<?xml version="1.0" encoding="UTF-8"?>
<svg width="1700" height="300" xmlns="http://www.w3.org/2000/svg">
<rect width="100%" height="100%" fill="white"/>
<g fill="green" transform="translate(100 100) scale(0.1 -0.1)"><path d="M0.0 0.0V-735.0H44.0V-38.0C68.0 -34.0 78.0 -24.0 80.0 -10.0ZM544.0 -95.0C386.0 -265.0 88.0 -473.0 -180.0 -601.0L-171.0 -617.0C114.0 -499.0 406.0 -304.0 566.0 -149.0C588.0 -160.0 598.0 -160.0 607.0 -150.0ZM0.0 -707.0V-761.0C0.0 -829.0 49.0 -847.0 141.0 -847.0H505.0C648.0 -847.0 684.0 -831.0 684.0 -808.0C684.0 -797.0 676.0 -794.0 649.0 -787.0V-617.0H636.0C628.0 -669.0 610.0 -750.0 601.0 -773.0C588.0 -802.0 563.0 -806.0 499.0 -806.0H136.0C80.0 -806.0 44.0 -800.0 44.0 -763.0V-707.0Z"/></g>
<g fill="green" transform="translate(200 100) scale(0.1 -0.1)"><path d="M0.0 0.0V-685.0H155.0V-45.0C183.0 -41.0 190.0 -31.0 192.0 -16.0ZM536.0 -90.0C401.0 -256.0 121.0 -490.0 -159.0 -626.0L-153.0 -638.0C177.0 -551.0 470.0 -373.0 646.0 -224.0C669.0 -232.0 681.0 -227.0 688.0 -218.0ZM0.0 -647.0V-691.0C0.0 -847.0 75.0 -894.0 246.0 -894.0H510.0C723.0 -894.0 768.0 -848.0 768.0 -780.0C768.0 -751.0 749.0 -740.0 691.0 -720.0L690.0 -541.0H681.0C656.0 -613.0 624.0 -689.0 604.0 -717.0C583.0 -742.0 556.0 -747.0 501.0 -747.0H245.0C177.0 -747.0 155.0 -733.0 155.0 -695.0V-647.0Z"/></g>
<g fill="green" transform="translate(300 100) scale(0.1 -0.1)"><path d="M0.0 0.0V-735.0H44.0V-38.0C68.0 -34.0 78.0 -24.0 80.0 -10.0ZM544.0 -95.0C386.0 -265.0 88.0 -473.0 -180.0 -601.0L-171.0 -617.0C114.0 -499.0 406.0 -304.0 566.0 -149.0C588.0 -160.0 598.0 -160.0 607.0 -150.0ZM0.0 -707.0V-761.0C0.0 -829.0 49.0 -847.0 141.0 -847.0H505.0C648.0 -847.0 684.0 -831.0 684.0 -808.0C684.0 -797.0 676.0 -794.0 649.0 -787.0V-617.0H636.0C628.0 -669.0 610.0 -750.0 601.0 -773.0C588.0 -802.0 563.0 -806.0 499.0 -806.0H136.0C80.0 -806.0 44.0 -800.0 44.0 -763.0V-707.0Z"/></g>
<g fill="green" transform="translate(400 100) scale(0.1 -0.1)"><path d="M0.0 0.0V-685.0H155.0V-45.0C183.0 -41.0 190.0 -31.0 192.0 -16.0ZM536.0 -90.0C401.0 -256.0 121.0 -490.0 -159.0 -626.0L-153.0 -638.0C177.0 -551.0 470.0 -373.0 646.0 -224.0C669.0 -232.0 681.0 -227.0 688.0 -218.0ZM0.0 -647.0V-691.0C0.0 -847.0 75.0 -894.0 246.0 -894.0H510.0C723.0 -894.0 768.0 -848.0 768.0 -780.0C768.0 -751.0 749.0 -740.0 691.0 -720.0L690.0 -541.0H681.0C656.0 -613.0 624.0 -689.0 604.0 -717.0C583.0 -742.0 556.0 -747.0 501.0 -747.0H245.0C177.0 -747.0 155.0 -733.0 155.0 -695.0V-647.0Z"/></g>
<g fill="red" transform="translate(100 200) scale(0.1 -0.1)"><path d="M0.0 0.0V-735.0H44.0V-38.0C68.0 -34.0 78.0 -24.0 80.0 -10.0ZM544.0 -95.0C386.0 -265.0 88.0 -473.0 -180.0 -601.0L-171.0 -617.0C114.0 -499.0 406.0 -304.0 566.0 -149.0C588.0 -160.0 598.0 -160.0 607.0 -150.0ZM0.0 -707.0V-761.0C0.0 -829.0 49.0 -847.0 141.0 -847.0H505.0C648.0 -847.0 684.0 -831.0 684.0 -808.0C684.0 -797.0 676.0 -794.0 649.0 -787.0V-617.0H636.0C628.0 -669.0 610.0 -750.0 601.0 -773.0C588.0 -802.0 563.0 -806.0 499.0 -806.0H136.0C80.0 -806.0 44.0 -800.0 44.0 -763.0V-707.0Z"/></g>
<g fill="black" opacity=".8" transform="translate(100 200) scale(0.1 -0.1)"><path d="M0.0 0.0V-735.0H44.0V-38.0C68.0 -34.0 78.0 -24.0 80.0 -10.0ZM544.0 -95.0C386.0 -265.0 88.0 -473.0 -180.0 -601.0L-171.0 -617.0C114.0 -499.0 406.0 -304.0 566.0 -149.0C588.0 -160.0 598.0 -160.0 607.0 -150.0ZM0.0 -707.0V-761.0C0.0 -829.0 49.0 -847.0 141.0 -847.0H505.0C648.0 -847.0 684.0 -831.0 684.0 -808.0C684.0 -797.0 676.0 -794.0 649.0 -787.0V-617.0H636.0C628.0 -669.0 610.0 -750.0 601.0 -773.0C588.0 -802.0 563.0 -806.0 499.0 -806.0H136.0C80.0 -806.0 44.0 -800.0 44.0 -763.0V-707.0Z"/></g>
<g fill="red" transform="translate(200 200) scale(0.1 -0.1)"><path d="M0.0 0.0V-685.0H155.0V-45.0C183.0 -41.0 190.0 -31.0 192.0 -16.0ZM536.0 -90.0C401.0 -256.0 121.0 -490.0 -159.0 -626.0L-153.0 -638.0C177.0 -551.0 470.0 -373.0 646.0 -224.0C669.0 -232.0 681.0 -227.0 688.0 -218.0ZM0.0 -647.0V-691.0C0.0 -847.0 75.0 -894.0 246.0 -894.0H510.0C723.0 -894.0 768.0 -848.0 768.0 -780.0C768.0 -751.0 749.0 -740.0 691.0 -720.0L690.0 -541.0H681.0C656.0 -613.0 624.0 -689.0 604.0 -717.0C583.0 -742.0 556.0 -747.0 501.0 -747.0H245.0C177.0 -747.0 155.0 -733.0 155.0 -695.0V-647.0Z"/></g>
<g fill="black" opacity=".8" transform="translate(200 200) scale(0.1 -0.1)"><path d="M0.0 0.0V-685.0H155.0V-45.0C183.0 -41.0 190.0 -31.0 192.0 -16.0ZM536.0 -90.0C401.0 -256.0 121.0 -490.0 -159.0 -626.0L-153.0 -638.0C177.0 -551.0 470.0 -373.0 646.0 -224.0C669.0 -232.0 681.0 -227.0 688.0 -218.0ZM0.0 -647.0V-691.0C0.0 -847.0 75.0 -894.0 246.0 -894.0H510.0C723.0 -894.0 768.0 -848.0 768.0 -780.0C768.0 -751.0 749.0 -740.0 691.0 -720.0L690.0 -541.0H681.0C656.0 -613.0 624.0 -689.0 604.0 -717.0C583.0 -742.0 556.0 -747.0 501.0 -747.0H245.0C177.0 -747.0 155.0 -733.0 155.0 -695.0V-647.0Z"/></g>
</svg>
