<?xml version="1.0" encoding="UTF-8"?>
<svg width="1700" height="300" xmlns="http://www.w3.org/2000/svg">
<rect width="100%" height="100%" fill="white"/>
<g fill="green" transform="translate(100 100) scale(0.1 -0.1)"><path d="M0.0 0.0 -13.0 -7.0C15.0 -37.0 46.0 -89.0 51.0 -128.0C94.0 -163.0 134.0 -70.0 0.0 0.0ZM-130.0 -141.0V-763.0H-122.0C-102.0 -763.0 -85.0 -752.0 -85.0 -746.0V-197.0H198.0V-167.0H-80.0ZM184.0 -588.0 150.0 -630.0H-109.0V-660.0H223.0C236.0 -660.0 245.0 -655.0 248.0 -644.0C223.0 -619.0 184.0 -588.0 184.0 -588.0ZM170.0 -465.0 136.0 -507.0H-109.0V-537.0H209.0C222.0 -537.0 231.0 -532.0 234.0 -521.0C209.0 -496.0 170.0 -465.0 170.0 -465.0ZM198.0 -387.0H-110.0V-417.0H198.0ZM198.0 -279.0H-110.0V-309.0H198.0ZM165.0 -167.0H173.0V-449.0H179.0C194.0 -449.0 217.0 -437.0 218.0 -431.0V-201.0C233.0 -199.0 247.0 -192.0 252.0 -185.0L192.0 -139.0ZM53.0 115.0 36.0 111.0C134.0 49.0 206.0 -34.0 235.0 -96.0C287.0 -129.0 340.0 -3.0 53.0 115.0ZM53.0 115.0C79.0 115.0 90.0 121.0 93.0 132.0L8.0 156.0C-37.0 51.0 -143.0 -97.0 -247.0 -181.0L-234.0 -194.0C-115.0 -116.0 -8.0 15.0 53.0 115.0Z"/></g>
<g fill="green" transform="translate(200 100) scale(0.1 -0.1)"><path d="M0.0 0.0 -9.0 -5.0C10.0 -36.0 22.0 -86.0 17.0 -130.0C108.0 -219.0 241.0 -45.0 0.0 0.0ZM-139.0 -116.0V-790.0H-119.0C-64.0 -790.0 -12.0 -760.0 -12.0 -746.0V-198.0H218.0V-170.0H-7.0ZM178.0 -554.0 112.0 -643.0H-73.0V-671.0H270.0C285.0 -671.0 296.0 -666.0 298.0 -655.0C254.0 -614.0 178.0 -554.0 178.0 -554.0ZM176.0 -440.0 115.0 -517.0H-74.0V-545.0H261.0C275.0 -545.0 285.0 -540.0 288.0 -529.0C246.0 -492.0 176.0 -440.0 176.0 -440.0ZM198.0 -401.0H-67.0V-429.0H198.0ZM193.0 -286.0H-67.0V-314.0H193.0ZM124.0 -170.0H133.0V-456.0H156.0C197.0 -456.0 262.0 -434.0 262.0 -426.0V-213.0C279.0 -210.0 289.0 -203.0 294.0 -196.0L180.0 -111.0ZM89.0 95.0 78.0 93.0C136.0 40.0 173.0 -36.0 183.0 -86.0C290.0 -173.0 450.0 57.0 89.0 95.0ZM88.0 95.0C118.0 97.0 130.0 105.0 134.0 118.0L-62.0 169.0C-92.0 65.0 -175.0 -108.0 -264.0 -209.0L-258.0 -215.0C-114.0 -140.0 18.0 -13.0 88.0 95.0Z"/></g>
<g fill="green" transform="translate(300 100) scale(0.1 -0.1)"><path d="M0.0 0.0 -13.0 -7.0C15.0 -37.0 46.0 -89.0 51.0 -128.0C94.0 -163.0 134.0 -70.0 0.0 0.0ZM-130.0 -141.0V-763.0H-122.0C-102.0 -763.0 -85.0 -752.0 -85.0 -746.0V-197.0H198.0V-167.0H-80.0ZM184.0 -588.0 150.0 -630.0H-109.0V-660.0H223.0C236.0 -660.0 245.0 -655.0 248.0 -644.0C223.0 -619.0 184.0 -588.0 184.0 -588.0ZM170.0 -465.0 136.0 -507.0H-109.0V-537.0H209.0C222.0 -537.0 231.0 -532.0 234.0 -521.0C209.0 -496.0 170.0 -465.0 170.0 -465.0ZM198.0 -387.0H-110.0V-417.0H198.0ZM198.0 -279.0H-110.0V-309.0H198.0ZM165.0 -167.0H173.0V-449.0H179.0C194.0 -449.0 217.0 -437.0 218.0 -431.0V-201.0C233.0 -199.0 247.0 -192.0 252.0 -185.0L192.0 -139.0ZM53.0 115.0 36.0 111.0C134.0 49.0 206.0 -34.0 235.0 -96.0C287.0 -129.0 340.0 -3.0 53.0 115.0ZM53.0 115.0C79.0 115.0 90.0 121.0 93.0 132.0L8.0 156.0C-37.0 51.0 -143.0 -97.0 -247.0 -181.0L-234.0 -194.0C-115.0 -116.0 -8.0 15.0 53.0 115.0Z"/></g>
<g fill="green" transform="translate(400 100) scale(0.1 -0.1)"><path d="M0.0 0.0 -9.0 -5.0C10.0 -36.0 22.0 -86.0 17.0 -130.0C108.0 -219.0 241.0 -45.0 0.0 0.0ZM-139.0 -116.0V-790.0H-119.0C-64.0 -790.0 -12.0 -760.0 -12.0 -746.0V-198.0H218.0V-170.0H-7.0ZM178.0 -554.0 112.0 -643.0H-73.0V-671.0H270.0C285.0 -671.0 296.0 -666.0 298.0 -655.0C254.0 -614.0 178.0 -554.0 178.0 -554.0ZM176.0 -440.0 115.0 -517.0H-74.0V-545.0H261.0C275.0 -545.0 285.0 -540.0 288.0 -529.0C246.0 -492.0 176.0 -440.0 176.0 -440.0ZM198.0 -401.0H-67.0V-429.0H198.0ZM193.0 -286.0H-67.0V-314.0H193.0ZM124.0 -170.0H133.0V-456.0H156.0C197.0 -456.0 262.0 -434.0 262.0 -426.0V-213.0C279.0 -210.0 289.0 -203.0 294.0 -196.0L180.0 -111.0ZM89.0 95.0 78.0 93.0C136.0 40.0 173.0 -36.0 183.0 -86.0C290.0 -173.0 450.0 57.0 89.0 95.0ZM88.0 95.0C118.0 97.0 130.0 105.0 134.0 118.0L-62.0 169.0C-92.0 65.0 -175.0 -108.0 -264.0 -209.0L-258.0 -215.0C-114.0 -140.0 18.0 -13.0 88.0 95.0Z"/></g>
<g fill="red" transform="translate(100 200) scale(0.1 -0.1)"><path d="M0.0 0.0 -13.0 -7.0C15.0 -37.0 46.0 -89.0 51.0 -128.0C94.0 -163.0 134.0 -70.0 0.0 0.0ZM-130.0 -141.0V-763.0H-122.0C-102.0 -763.0 -85.0 -752.0 -85.0 -746.0V-197.0H198.0V-167.0H-80.0ZM184.0 -588.0 150.0 -630.0H-109.0V-660.0H223.0C236.0 -660.0 245.0 -655.0 248.0 -644.0C223.0 -619.0 184.0 -588.0 184.0 -588.0ZM170.0 -465.0 136.0 -507.0H-109.0V-537.0H209.0C222.0 -537.0 231.0 -532.0 234.0 -521.0C209.0 -496.0 170.0 -465.0 170.0 -465.0ZM198.0 -387.0H-110.0V-417.0H198.0ZM198.0 -279.0H-110.0V-309.0H198.0ZM165.0 -167.0H173.0V-449.0H179.0C194.0 -449.0 217.0 -437.0 218.0 -431.0V-201.0C233.0 -199.0 247.0 -192.0 252.0 -185.0L192.0 -139.0ZM53.0 115.0 36.0 111.0C134.0 49.0 206.0 -34.0 235.0 -96.0C287.0 -129.0 340.0 -3.0 53.0 115.0ZM53.0 115.0C79.0 115.0 90.0 121.0 93.0 132.0L8.0 156.0C-37.0 51.0 -143.0 -97.0 -247.0 -181.0L-234.0 -194.0C-115.0 -116.0 -8.0 15.0 53.0 115.0Z"/></g>
<g fill="black" opacity=".8" transform="translate(100 200) scale(0.1 -0.1)"><path d="M0.0 0.0 -13.0 -7.0C15.0 -37.0 46.0 -89.0 51.0 -128.0C94.0 -163.0 134.0 -70.0 0.0 0.0ZM-130.0 -141.0V-763.0H-122.0C-102.0 -763.0 -85.0 -752.0 -85.0 -746.0V-197.0H198.0V-167.0H-80.0ZM184.0 -588.0 150.0 -630.0H-109.0V-660.0H223.0C236.0 -660.0 245.0 -655.0 248.0 -644.0C223.0 -619.0 184.0 -588.0 184.0 -588.0ZM170.0 -465.0 136.0 -507.0H-109.0V-537.0H209.0C222.0 -537.0 231.0 -532.0 234.0 -521.0C209.0 -496.0 170.0 -465.0 170.0 -465.0ZM198.0 -387.0H-110.0V-417.0H198.0ZM198.0 -279.0H-110.0V-309.0H198.0ZM165.0 -167.0H173.0V-449.0H179.0C194.0 -449.0 217.0 -437.0 218.0 -431.0V-201.0C233.0 -199.0 247.0 -192.0 252.0 -185.0L192.0 -139.0ZM53.0 115.0 36.0 111.0C134.0 49.0 206.0 -34.0 235.0 -96.0C287.0 -129.0 340.0 -3.0 53.0 115.0ZM53.0 115.0C79.0 115.0 90.0 121.0 93.0 132.0L8.0 156.0C-37.0 51.0 -143.0 -97.0 -247.0 -181.0L-234.0 -194.0C-115.0 -116.0 -8.0 15.0 53.0 115.0Z"/></g>
<g fill="red" transform="translate(200 200) scale(0.1 -0.1)"><path d="M0.0 0.0 -9.0 -5.0C10.0 -36.0 22.0 -86.0 17.0 -130.0C108.0 -219.0 241.0 -45.0 0.0 0.0ZM-139.0 -116.0V-790.0H-119.0C-64.0 -790.0 -12.0 -760.0 -12.0 -746.0V-198.0H218.0V-170.0H-7.0ZM178.0 -554.0 112.0 -643.0H-73.0V-671.0H270.0C285.0 -671.0 296.0 -666.0 298.0 -655.0C254.0 -614.0 178.0 -554.0 178.0 -554.0ZM176.0 -440.0 115.0 -517.0H-74.0V-545.0H261.0C275.0 -545.0 285.0 -540.0 288.0 -529.0C246.0 -492.0 176.0 -440.0 176.0 -440.0ZM198.0 -401.0H-67.0V-429.0H198.0ZM193.0 -286.0H-67.0V-314.0H193.0ZM124.0 -170.0H133.0V-456.0H156.0C197.0 -456.0 262.0 -434.0 262.0 -426.0V-213.0C279.0 -210.0 289.0 -203.0 294.0 -196.0L180.0 -111.0ZM89.0 95.0 78.0 93.0C136.0 40.0 173.0 -36.0 183.0 -86.0C290.0 -173.0 450.0 57.0 89.0 95.0ZM88.0 95.0C118.0 97.0 130.0 105.0 134.0 118.0L-62.0 169.0C-92.0 65.0 -175.0 -108.0 -264.0 -209.0L-258.0 -215.0C-114.0 -140.0 18.0 -13.0 88.0 95.0Z"/></g>
<g fill="black" opacity=".8" transform="translate(200 200) scale(0.1 -0.1)"><path d="M0.0 0.0 -9.0 -5.0C10.0 -36.0 22.0 -86.0 17.0 -130.0C108.0 -219.0 241.0 -45.0 0.0 0.0ZM-139.0 -116.0V-790.0H-119.0C-64.0 -790.0 -12.0 -760.0 -12.0 -746.0V-198.0H218.0V-170.0H-7.0ZM178.0 -554.0 112.0 -643.0H-73.0V-671.0H270.0C285.0 -671.0 296.0 -666.0 298.0 -655.0C254.0 -614.0 178.0 -554.0 178.0 -554.0ZM176.0 -440.0 115.0 -517.0H-74.0V-545.0H261.0C275.0 -545.0 285.0 -540.0 288.0 -529.0C246.0 -492.0 176.0 -440.0 176.0 -440.0ZM198.0 -401.0H-67.0V-429.0H198.0ZM193.0 -286.0H-67.0V-314.0H193.0ZM124.0 -170.0H133.0V-456.0H156.0C197.0 -456.0 262.0 -434.0 262.0 -426.0V-213.0C279.0 -210.0 289.0 -203.0 294.0 -196.0L180.0 -111.0ZM89.0 95.0 78.0 93.0C136.0 40.0 173.0 -36.0 183.0 -86.0C290.0 -173.0 450.0 57.0 89.0 95.0ZM88.0 95.0C118.0 97.0 130.0 105.0 134.0 118.0L-62.0 169.0C-92.0 65.0 -175.0 -108.0 -264.0 -209.0L-258.0 -215.0C-114.0 -140.0 18.0 -13.0 88.0 95.0Z"/></g>
</svg>
