<?xml version="1.0" encoding="UTF-8"?>
<svg width="1700" height="300" xmlns="http://www.w3.org/2000/svg">
<rect width="100%" height="100%" fill="white"/>
<g fill="green" transform="translate(100 100) scale(0.1 -0.1)"><path d="M-0.0 0.0 -13.0 -29.0H456.0V0.0ZM420.0 0.0C322.0 -316.0 95.0 -570.0 -274.0 -701.0L-263.0 -719.0C140.0 -593.0 351.0 -343.0 463.0 -36.0C487.0 -35.0 498.0 -33.0 507.0 -24.0L446.0 34.0L410.0 0.0ZM-20.0 -63.0 -35.0 -86.0C61.0 -360.0 243.0 -589.0 590.0 -719.0C598.0 -699.0 619.0 -688.0 640.0 -687.0L643.0 -676.0C275.0 -561.0 83.0 -331.0 -20.0 -63.0ZM60.0 188.0C-6.0 -23.0 -121.0 -213.0 -238.0 -329.0L-223.0 -342.0C-93.0 -234.0 24.0 -59.0 100.0 142.0C121.0 141.0 133.0 150.0 138.0 161.0Z"/></g>
<g fill="green" transform="translate(200 100) scale(0.1 -0.1)"><path d="M0.0 0.0 -13.0 -28.0H439.0V0.0ZM341.0 0.0C264.0 -314.0 55.0 -581.0 -281.0 -728.0L-275.0 -738.0C176.0 -637.0 392.0 -381.0 498.0 -63.0C526.0 -60.0 537.0 -56.0 545.0 -43.0L410.0 83.0L326.0 0.0ZM37.0 -53.0 28.0 -70.0C98.0 -386.0 240.0 -612.0 536.0 -735.0C555.0 -662.0 593.0 -617.0 672.0 -600.0L675.0 -588.0C343.0 -506.0 125.0 -334.0 37.0 -53.0ZM33.0 210.0C-16.0 6.0 -121.0 -191.0 -225.0 -312.0L-215.0 -319.0C-46.0 -228.0 87.0 -93.0 185.0 121.0C209.0 120.0 222.0 128.0 227.0 140.0Z"/></g>
<g fill="green" transform="translate(300 100) scale(0.1 -0.1)"><path d="M-0.0 0.0 -8.0 -19.0H318.0V0.0ZM293.0 0.0C230.0 -232.0 79.0 -421.0 -181.0 -519.0L-173.0 -531.0C112.0 -436.0 250.0 -249.0 322.0 -25.0C338.0 -24.0 345.0 -22.0 352.0 -16.0L310.0 23.0L287.0 0.0ZM-15.0 -48.0 -25.0 -65.0C37.0 -264.0 153.0 -435.0 399.0 -534.0C405.0 -521.0 420.0 -514.0 434.0 -513.0L436.0 -506.0C174.0 -418.0 53.0 -244.0 -15.0 -48.0ZM42.0 137.0C-4.0 -17.0 -82.0 -154.0 -160.0 -238.0L-149.0 -246.0C-63.0 -168.0 16.0 -43.0 69.0 105.0C82.0 104.0 91.0 111.0 94.0 119.0Z"/></g>
<g fill="green" transform="translate(400 100) scale(0.1 -0.1)"><path d="M0.0 0.0 -8.0 -19.0H310.0V0.0ZM239.0 0.0C190.0 -231.0 52.0 -431.0 -184.0 -541.0L-180.0 -548.0C141.0 -468.0 280.0 -274.0 345.0 -43.0C365.0 -41.0 372.0 -38.0 377.0 -29.0L285.0 57.0L229.0 0.0ZM30.0 -40.0 24.0 -52.0C66.0 -283.0 154.0 -454.0 361.0 -548.0C375.0 -498.0 401.0 -468.0 457.0 -456.0L460.0 -448.0C224.0 -383.0 85.0 -249.0 30.0 -40.0ZM28.0 152.0C-5.0 5.0 -76.0 -134.0 -145.0 -222.0L-137.0 -226.0C-24.0 -160.0 64.0 -67.0 131.0 88.0C146.0 88.0 156.0 93.0 159.0 102.0Z"/></g>
<g fill="green" transform="translate(500 100) scale(0.1 -0.1)"><path d="M0.0 0.0 -27.0 -40.0H520.0V0.0ZM474.0 0.0C321.0 -261.0 -2.0 -448.0 -397.0 -544.0L-387.0 -568.0C41.0 -485.0 351.0 -306.0 531.0 -45.0C565.0 -45.0 580.0 -44.0 591.0 -32.0L512.0 44.0L459.0 0.0ZM-16.0 -37.0 -37.0 -56.0C112.0 -302.0 413.0 -462.0 769.0 -540.0C777.0 -511.0 800.0 -493.0 827.0 -491.0L830.0 -476.0C463.0 -414.0 133.0 -263.0 -16.0 -37.0ZM67.0 164.0C-7.0 -16.0 -157.0 -198.0 -320.0 -302.0L-306.0 -322.0C-123.0 -227.0 35.0 -53.0 122.0 113.0C154.0 110.0 166.0 115.0 172.0 129.0Z"/></g>
<g fill="green" transform="translate(600 100) scale(0.1 -0.1)"><path d="M0.0 0.0 -25.0 -37.0H465.0V0.0ZM373.0 0.0C247.0 -257.0 -53.0 -445.0 -418.0 -545.0L-412.0 -560.0C43.0 -519.0 386.0 -360.0 580.0 -81.0C614.0 -78.0 629.0 -74.0 640.0 -58.0L470.0 102.0L353.0 0.0ZM8.0 -35.0 -5.0 -49.0C127.0 -323.0 383.0 -464.0 715.0 -535.0C732.0 -446.0 776.0 -384.0 855.0 -363.0V-346.0C517.0 -323.0 160.0 -240.0 8.0 -35.0ZM-8.0 191.0C-69.0 -3.0 -208.0 -207.0 -358.0 -318.0L-350.0 -329.0C-122.0 -249.0 74.0 -87.0 194.0 105.0C232.0 103.0 243.0 111.0 248.0 125.0Z"/></g>
<g fill="red" transform="translate(100 200) scale(0.1 -0.1)"><path d="M0.0 0.0 -13.0 -29.0H456.0V0.0ZM420.0 0.0C322.0 -316.0 95.0 -570.0 -274.0 -701.0L-263.0 -719.0C140.0 -593.0 351.0 -343.0 463.0 -36.0C487.0 -35.0 498.0 -33.0 507.0 -24.0L446.0 34.0L410.0 0.0ZM-20.0 -63.0 -35.0 -86.0C61.0 -360.0 243.0 -589.0 590.0 -719.0C598.0 -699.0 619.0 -688.0 640.0 -687.0L643.0 -676.0C275.0 -561.0 83.0 -331.0 -20.0 -63.0ZM60.0 188.0C-6.0 -23.0 -121.0 -213.0 -238.0 -329.0L-223.0 -342.0C-93.0 -234.0 24.0 -59.0 100.0 142.0C121.0 141.0 133.0 150.0 138.0 161.0Z"/></g>
<g fill="black" opacity=".8" transform="translate(100 200) scale(0.1 -0.1)"><path d="M0.0 0.0 -13.0 -29.0H456.0V0.0ZM420.0 0.0C322.0 -316.0 95.0 -570.0 -274.0 -701.0L-263.0 -719.0C140.0 -593.0 351.0 -343.0 463.0 -36.0C487.0 -35.0 498.0 -33.0 507.0 -24.0L446.0 34.0L410.0 0.0ZM-20.0 -63.0 -35.0 -86.0C61.0 -360.0 243.0 -589.0 590.0 -719.0C598.0 -699.0 619.0 -688.0 640.0 -687.0L643.0 -676.0C275.0 -561.0 83.0 -331.0 -20.0 -63.0ZM60.0 188.0C-6.0 -23.0 -121.0 -213.0 -238.0 -329.0L-223.0 -342.0C-93.0 -234.0 24.0 -59.0 100.0 142.0C121.0 141.0 133.0 150.0 138.0 161.0Z"/></g>
<g fill="red" transform="translate(200 200) scale(0.1 -0.1)"><path d="M0.0 0.0 -13.0 -28.0H439.0V0.0ZM341.0 0.0C264.0 -314.0 55.0 -581.0 -281.0 -728.0L-275.0 -738.0C176.0 -637.0 392.0 -381.0 498.0 -63.0C526.0 -60.0 537.0 -56.0 545.0 -43.0L410.0 83.0L326.0 0.0ZM37.0 -53.0 28.0 -70.0C98.0 -386.0 240.0 -612.0 536.0 -735.0C555.0 -662.0 593.0 -617.0 672.0 -600.0L675.0 -588.0C343.0 -506.0 125.0 -334.0 37.0 -53.0ZM33.0 210.0C-16.0 6.0 -121.0 -191.0 -225.0 -312.0L-215.0 -319.0C-46.0 -228.0 87.0 -93.0 185.0 121.0C209.0 120.0 222.0 128.0 227.0 140.0Z"/></g>
<g fill="black" opacity=".8" transform="translate(200 200) scale(0.1 -0.1)"><path d="M0.0 0.0 -13.0 -28.0H439.0V0.0ZM341.0 0.0C264.0 -314.0 55.0 -581.0 -281.0 -728.0L-275.0 -738.0C176.0 -637.0 392.0 -381.0 498.0 -63.0C526.0 -60.0 537.0 -56.0 545.0 -43.0L410.0 83.0L326.0 0.0ZM37.0 -53.0 28.0 -70.0C98.0 -386.0 240.0 -612.0 536.0 -735.0C555.0 -662.0 593.0 -617.0 672.0 -600.0L675.0 -588.0C343.0 -506.0 125.0 -334.0 37.0 -53.0ZM33.0 210.0C-16.0 6.0 -121.0 -191.0 -225.0 -312.0L-215.0 -319.0C-46.0 -228.0 87.0 -93.0 185.0 121.0C209.0 120.0 222.0 128.0 227.0 140.0Z"/></g>
<g fill="red" transform="translate(300 200) scale(0.1 -0.1)"><path d="M0.0 0.0 -22.0 -30.0H382.0V0.0ZM347.0 0.0C229.0 -177.0 -18.0 -299.0 -304.0 -362.0L-297.0 -380.0C13.0 -328.0 250.0 -212.0 390.0 -34.0C416.0 -34.0 427.0 -33.0 436.0 -24.0L376.0 33.0L336.0 0.0ZM-11.0 -22.0 -27.0 -35.0C88.0 -206.0 323.0 -308.0 578.0 -355.0C584.0 -333.0 601.0 -319.0 621.0 -317.0L623.0 -306.0C362.0 -271.0 103.0 -176.0 -11.0 -22.0ZM49.0 113.0C-5.0 -10.0 -118.0 -139.0 -242.0 -211.0L-232.0 -226.0C-93.0 -161.0 27.0 -37.0 91.0 76.0C115.0 73.0 124.0 76.0 128.0 87.0Z"/></g>
<g fill="black" opacity=".8" transform="translate(300 200) scale(0.1 -0.1)"><path d="M0.0 0.0 -22.0 -30.0H382.0V0.0ZM347.0 0.0C229.0 -177.0 -18.0 -299.0 -304.0 -362.0L-297.0 -380.0C13.0 -328.0 250.0 -212.0 390.0 -34.0C416.0 -34.0 427.0 -33.0 436.0 -24.0L376.0 33.0L336.0 0.0ZM-11.0 -22.0 -27.0 -35.0C88.0 -206.0 323.0 -308.0 578.0 -355.0C584.0 -333.0 601.0 -319.0 621.0 -317.0L623.0 -306.0C362.0 -271.0 103.0 -176.0 -11.0 -22.0ZM49.0 113.0C-5.0 -10.0 -118.0 -139.0 -242.0 -211.0L-232.0 -226.0C-93.0 -161.0 27.0 -37.0 91.0 76.0C115.0 73.0 124.0 76.0 128.0 87.0Z"/></g>
<g fill="red" transform="translate(400 200) scale(0.1 -0.1)"><path d="M0.0 0.0 -20.0 -28.0H336.0V0.0ZM271.0 0.0C173.0 -174.0 -56.0 -295.0 -321.0 -358.0L-317.0 -370.0C8.0 -350.0 274.0 -253.0 427.0 -61.0C453.0 -59.0 464.0 -56.0 472.0 -44.0L345.0 76.0L256.0 0.0ZM1.0 -22.0 -9.0 -31.0C95.0 -220.0 297.0 -306.0 540.0 -348.0C552.0 -282.0 584.0 -235.0 640.0 -219.0V-206.0C398.0 -200.0 120.0 -155.0 1.0 -22.0ZM-13.0 133.0C-58.0 -4.0 -163.0 -150.0 -278.0 -228.0L-272.0 -236.0C-100.0 -181.0 51.0 -61.0 140.0 72.0C169.0 71.0 177.0 76.0 180.0 87.0Z"/></g>
<g fill="black" opacity=".8" transform="translate(400 200) scale(0.1 -0.1)"><path d="M0.0 0.0 -20.0 -28.0H336.0V0.0ZM271.0 0.0C173.0 -174.0 -56.0 -295.0 -321.0 -358.0L-317.0 -370.0C8.0 -350.0 274.0 -253.0 427.0 -61.0C453.0 -59.0 464.0 -56.0 472.0 -44.0L345.0 76.0L256.0 0.0ZM1.0 -22.0 -9.0 -31.0C95.0 -220.0 297.0 -306.0 540.0 -348.0C552.0 -282.0 584.0 -235.0 640.0 -219.0V-206.0C398.0 -200.0 120.0 -155.0 1.0 -22.0ZM-13.0 133.0C-58.0 -4.0 -163.0 -150.0 -278.0 -228.0L-272.0 -236.0C-100.0 -181.0 51.0 -61.0 140.0 72.0C169.0 71.0 177.0 76.0 180.0 87.0Z"/></g>
</svg>
