<?xml version="1.0" encoding="UTF-8"?>
<svg width="1700" height="700" xmlns="http://www.w3.org/2000/svg">
<rect width="100%" height="100%" fill="white"/>
<g fill="green" transform="translate(100 100) scale(0.1 -0.1)"><path d="M0.0 -0.0 10.0 -31.0H829.0C846.0 -31.0 856.0 -26.0 860.0 -15.0C827.0 15.0 778.0 55.0 778.0 55.0L735.0 0.0ZM547.0 -116.0C407.0 -35.0 129.0 50.0 -95.0 101.0L-93.0 73.0C141.0 12.0 395.0 -83.0 560.0 -173.0C584.0 -183.0 603.0 -181.0 611.0 -175.0ZM446.0 -572.0 426.0 -577.0C474.0 -767.0 580.0 -928.0 863.0 -1034.0C870.0 -1006.0 885.0 -993.0 909.0 -990.0L910.0 -978.0C616.0 -892.0 501.0 -740.0 446.0 -572.0Z"/></g>
<g fill="green" transform="translate(200 100) scale(0.1 -0.1)"><path d="M0.0 0.0 9.0 -31.0H897.0C913.0 -31.0 926.0 -26.0 928.0 -13.0C880.0 34.0 796.0 103.0 796.0 103.0L721.0 0.0ZM522.0 -81.0C383.0 -34.0 107.0 24.0 -95.0 77.0L-94.0 61.0C126.0 -22.0 402.0 -135.0 585.0 -225.0C628.0 -241.0 655.0 -238.0 669.0 -228.0ZM510.0 -592.0 499.0 -593.0C525.0 -833.0 603.0 -981.0 828.0 -1077.0C845.0 -988.0 884.0 -939.0 945.0 -932.0L944.0 -921.0C688.0 -871.0 551.0 -762.0 510.0 -592.0Z"/></g>
<g fill="green" transform="translate(300 100) scale(0.1 -0.1)"><path d="M0.0 0.0 6.0 -18.0H464.0C475.0 -18.0 481.0 -15.0 484.0 -9.0C465.0 8.0 437.0 32.0 437.0 32.0L413.0 0.0ZM366.0 -195.0C248.0 -26.0 14.0 135.0 -95.0 232.0L-98.0 211.0C12.0 107.0 222.0 -61.0 362.0 -233.0C376.0 -242.0 390.0 -243.0 396.0 -243.0ZM226.0 -570.0H214.0C237.0 -696.0 293.0 -799.0 493.0 -872.0C496.0 -854.0 503.0 -845.0 516.0 -842.0V-835.0C308.0 -777.0 256.0 -678.0 226.0 -570.0Z"/></g>
<g fill="green" transform="translate(400 100) scale(0.1 -0.1)"><path d="M0.0 0.0 5.0 -19.0H522.0C532.0 -19.0 540.0 -16.0 541.0 -8.0C514.0 20.0 467.0 61.0 467.0 61.0L424.0 0.0ZM365.0 -167.0C241.0 -37.0 -1.0 101.0 -90.0 211.0L-92.0 200.0C-20.0 78.0 208.0 -105.0 366.0 -281.0C398.0 -296.0 419.0 -297.0 431.0 -293.0ZM283.0 -590.0 278.0 -588.0C282.0 -756.0 319.0 -844.0 472.0 -909.0C485.0 -850.0 507.0 -822.0 540.0 -827.0L539.0 -823.0C363.0 -784.0 297.0 -705.0 283.0 -590.0Z"/></g>
<g fill="green" transform="translate(500 100) scale(0.1 -0.1)"><path d="M0.0 0.0 10.0 -34.0H857.0C875.0 -34.0 885.0 -28.0 889.0 -16.0C854.0 16.0 801.0 58.0 801.0 58.0L754.0 0.0ZM714.0 343.0C464.0 549.0 -26.0 659.0 -184.0 750.0L-188.0 721.0C-24.0 618.0 436.0 482.0 713.0 269.0C735.0 251.0 759.0 245.0 772.0 250.0ZM654.0 -30.0 632.0 -43.0C718.0 -167.0 864.0 -249.0 1001.0 -291.0C1008.0 -267.0 1028.0 -250.0 1054.0 -248.0L1057.0 -235.0C922.0 -214.0 738.0 -130.0 654.0 -30.0Z"/></g>
<g fill="green" transform="translate(600 100) scale(0.1 -0.1)"><path d="M0.0 0.0 10.0 -33.0H924.0C942.0 -33.0 955.0 -28.0 957.0 -14.0C907.0 35.0 818.0 107.0 818.0 107.0L739.0 0.0ZM702.0 403.0C477.0 591.0 13.0 672.0 -169.0 768.0L-172.0 751.0C-30.0 621.0 461.0 443.0 746.0 200.0C792.0 174.0 825.0 174.0 844.0 181.0ZM692.0 -34.0 679.0 -45.0C748.0 -202.0 859.0 -260.0 999.0 -313.0C1012.0 -246.0 1049.0 -194.0 1105.0 -163.0V-148.0C973.0 -152.0 779.0 -121.0 692.0 -34.0Z"/></g>
<g fill="green" transform="translate(700 100) scale(0.1 -0.1)"><path d="M0.0 0.0 11.0 -32.0H1009.0C1025.0 -32.0 1036.0 -27.0 1041.0 -16.0C1004.0 16.0 953.0 57.0 953.0 57.0L906.0 0.0ZM366.0 -495.0C263.0 -543.0 18.0 -579.0 -325.0 -605.0L-323.0 -633.0C49.0 -616.0 284.0 -581.0 402.0 -544.0C423.0 -548.0 439.0 -542.0 445.0 -530.0ZM404.0 -332.0 384.0 -348.0C489.0 -498.0 685.0 -539.0 844.0 -549.0C850.0 -526.0 870.0 -506.0 896.0 -503.0L898.0 -491.0C737.0 -498.0 507.0 -463.0 404.0 -332.0Z"/></g>
<g fill="green" transform="translate(800 100) scale(0.1 -0.1)"><path d="M0.0 0.0 9.0 -31.0H1081.0C1098.0 -31.0 1112.0 -26.0 1113.0 -13.0C1058.0 37.0 966.0 107.0 966.0 107.0L882.0 0.0ZM336.0 -495.0C244.0 -539.0 22.0 -597.0 -328.0 -626.0L-325.0 -645.0C97.0 -653.0 345.0 -629.0 473.0 -585.0C505.0 -591.0 521.0 -582.0 526.0 -568.0ZM419.0 -352.0 407.0 -366.0C501.0 -533.0 655.0 -553.0 826.0 -574.0C837.0 -518.0 870.0 -463.0 924.0 -429.0V-414.0C774.0 -441.0 535.0 -460.0 419.0 -352.0Z"/></g>
<g fill="green" transform="translate(900 100) scale(0.1 -0.1)"><path d="M0.0 0.0 10.0 -39.0H789.0C809.0 -39.0 821.0 -33.0 825.0 -19.0C785.0 20.0 721.0 71.0 721.0 71.0L665.0 0.0ZM361.0 353.0C273.0 23.0 120.0 -176.0 -454.0 -311.0L-450.0 -352.0C152.0 -224.0 288.0 -21.0 399.0 293.0C433.0 290.0 449.0 299.0 455.0 312.0ZM388.0 -356.0 362.0 -359.0C398.0 -659.0 499.0 -984.0 889.0 -1201.0C900.0 -1163.0 920.0 -1152.0 951.0 -1149.0L954.0 -1134.0C541.0 -938.0 433.0 -636.0 388.0 -356.0Z"/></g>
<g fill="green" transform="translate(1000 100) scale(0.1 -0.1)"><path d="M0.0 0.0 11.0 -38.0H848.0C867.0 -38.0 884.0 -32.0 887.0 -16.0C821.0 46.0 706.0 139.0 706.0 139.0L604.0 0.0ZM302.0 399.0C209.0 39.0 64.0 -175.0 -441.0 -354.0L-437.0 -378.0C203.0 -269.0 331.0 -68.0 450.0 274.0C498.0 266.0 525.0 274.0 536.0 292.0ZM461.0 -356.0 445.0 -354.0C456.0 -729.0 518.0 -1055.0 825.0 -1237.0C847.0 -1114.0 903.0 -1044.0 994.0 -1037.0V-1022.0C622.0 -899.0 489.0 -663.0 461.0 -356.0Z"/></g>
<g fill="green" transform="translate(1100 100) scale(0.1 -0.1)"><path d="M0.0 0.0 9.0 -25.0H850.0C865.0 -25.0 873.0 -21.0 876.0 -12.0C849.0 13.0 807.0 47.0 807.0 47.0L770.0 0.0ZM779.0 -36.0C664.0 -67.0 452.0 -38.0 124.0 -29.0L129.0 -54.0C468.0 -68.0 655.0 -100.0 790.0 -82.0C815.0 -90.0 827.0 -87.0 833.0 -82.0ZM325.0 -569.0H310.0C333.0 -687.0 403.0 -856.0 744.0 -980.0C750.0 -954.0 761.0 -948.0 782.0 -945.0V-935.0C426.0 -824.0 359.0 -676.0 325.0 -569.0Z"/></g>
<g fill="green" transform="translate(1200 100) scale(0.1 -0.1)"><path d="M0.0 0.0 7.0 -25.0H916.0C929.0 -25.0 940.0 -21.0 942.0 -11.0C897.0 30.0 821.0 87.0 821.0 87.0L753.0 0.0ZM769.0 -10.0C635.0 -78.0 405.0 -66.0 125.0 -56.0L126.0 -71.0C448.0 -109.0 648.0 -143.0 808.0 -126.0C845.0 -138.0 866.0 -137.0 878.0 -128.0ZM403.0 -592.0 394.0 -589.0C399.0 -743.0 465.0 -922.0 708.0 -1023.0C721.0 -932.0 755.0 -898.0 816.0 -905.0L815.0 -897.0C516.0 -827.0 413.0 -707.0 403.0 -592.0Z"/></g>
<g fill="green" transform="translate(1300 100) scale(0.1 -0.1)"><path d="M0.0 0.0 9.0 -29.0H650.0C666.0 -29.0 675.0 -24.0 679.0 -13.0C648.0 14.0 604.0 51.0 604.0 51.0L565.0 0.0ZM542.0 -84.0C449.0 -68.0 263.0 -50.0 83.0 -28.0L88.0 -50.0C274.0 -80.0 445.0 -114.0 557.0 -139.0C578.0 -148.0 598.0 -148.0 606.0 -139.0ZM665.0 -657.0 645.0 -663.0C687.0 -808.0 769.0 -922.0 914.0 -986.0C920.0 -964.0 934.0 -949.0 953.0 -945.0L954.0 -934.0C805.0 -893.0 712.0 -773.0 665.0 -657.0Z"/></g>
<g fill="green" transform="translate(1400 100) scale(0.1 -0.1)"><path d="M0.0 0.0 9.0 -29.0H711.0C724.0 -29.0 736.0 -25.0 738.0 -12.0C704.0 28.0 641.0 89.0 641.0 89.0L585.0 0.0ZM513.0 -66.0C420.0 -79.0 238.0 -82.0 69.0 -67.0V-79.0C257.0 -128.0 446.0 -176.0 570.0 -199.0C609.0 -214.0 636.0 -212.0 649.0 -202.0ZM701.0 -673.0 692.0 -676.0C713.0 -863.0 766.0 -948.0 883.0 -1020.0C899.0 -937.0 937.0 -887.0 991.0 -871.0L990.0 -859.0C858.0 -842.0 741.0 -772.0 701.0 -673.0Z"/></g>
<g fill="green" transform="translate(1500 100) scale(0.1 -0.1)"><path d="M0.0 -0.0 10.0 -28.0H916.0C931.0 -28.0 941.0 -24.0 945.0 -14.0C913.0 14.0 866.0 52.0 866.0 52.0L825.0 0.0ZM402.0 -94.0C338.0 -28.0 221.0 60.0 63.0 104.0L71.0 85.0C242.0 34.0 349.0 -65.0 431.0 -139.0C450.0 -141.0 467.0 -134.0 472.0 -127.0ZM444.0 -660.0 427.0 -666.0C478.0 -807.0 585.0 -906.0 863.0 -971.0C869.0 -946.0 882.0 -934.0 903.0 -932.0L905.0 -921.0C619.0 -872.0 501.0 -782.0 444.0 -660.0Z"/></g>
<g fill="green" transform="translate(1600 100) scale(0.1 -0.1)"><path d="M0.0 0.0 8.0 -28.0H954.0C969.0 -28.0 981.0 -24.0 982.0 -12.0C936.0 32.0 855.0 98.0 855.0 98.0L783.0 0.0ZM346.0 -61.0C295.0 -16.0 198.0 54.0 60.0 93.0L64.0 83.0C247.0 24.0 375.0 -79.0 460.0 -149.0C494.0 -156.0 513.0 -149.0 521.0 -138.0ZM484.0 -682.0 475.0 -683.0C504.0 -872.0 592.0 -971.0 812.0 -1034.0C825.0 -953.0 860.0 -910.0 918.0 -903.0L916.0 -893.0C668.0 -869.0 526.0 -810.0 484.0 -682.0Z"/></g>
<g fill="green" transform="translate(100 200) scale(0.1 -0.1)"><path d="M0.0 -0.0 9.0 -27.0H856.0C870.0 -27.0 879.0 -23.0 882.0 -13.0C854.0 14.0 810.0 48.0 810.0 48.0L773.0 0.0ZM524.0 -160.0C385.0 -21.0 105.0 40.0 190.0 87.0L197.0 71.0C101.0 11.0 360.0 -67.0 526.0 -213.0C545.0 -225.0 561.0 -227.0 570.0 -222.0ZM523.0 -317.0 504.0 -314.0C492.0 -614.0 511.0 -924.0 845.0 -1130.0C853.0 -1102.0 869.0 -1100.0 895.0 -1098.0L896.0 -1088.0C540.0 -896.0 520.0 -607.0 523.0 -317.0Z"/></g>
<g fill="green" transform="translate(200 200) scale(0.1 -0.1)"><path d="M0.0 0.0 8.0 -26.0H895.0C909.0 -26.0 920.0 -22.0 923.0 -11.0C874.0 33.0 791.0 99.0 791.0 99.0L717.0 0.0ZM503.0 -127.0C370.0 -24.0 76.0 7.0 168.0 57.0L173.0 49.0C25.0 -23.0 329.0 -137.0 524.0 -276.0C562.0 -292.0 587.0 -292.0 601.0 -286.0ZM603.0 -344.0 589.0 -340.0C567.0 -678.0 564.0 -999.0 813.0 -1169.0C828.0 -1088.0 868.0 -1048.0 930.0 -1048.0V-1039.0C617.0 -902.0 586.0 -649.0 603.0 -344.0Z"/></g>
<g fill="green" transform="translate(300 200) scale(0.1 -0.1)"><path d="M0.0 -0.0 10.0 -34.0H810.0C828.0 -34.0 839.0 -29.0 843.0 -17.0C810.0 15.0 759.0 58.0 759.0 58.0L714.0 0.0ZM522.0 -139.0C424.0 -64.0 209.0 76.0 -102.0 140.0L-98.0 107.0C229.0 32.0 420.0 -108.0 544.0 -194.0C572.0 -202.0 590.0 -195.0 596.0 -188.0ZM398.0 -539.0 378.0 -543.0C434.0 -783.0 562.0 -942.0 922.0 -1046.0C929.0 -1015.0 942.0 -998.0 964.0 -994.0V-982.0C594.0 -901.0 465.0 -750.0 398.0 -539.0Z"/></g>
<g fill="green" transform="translate(400 200) scale(0.1 -0.1)"><path d="M0.0 0.0 10.0 -34.0H876.0C893.0 -34.0 906.0 -28.0 909.0 -14.0C862.0 32.0 781.0 99.0 781.0 99.0L709.0 0.0ZM487.0 -112.0C378.0 -78.0 157.0 27.0 -109.0 105.0L-106.0 86.0C214.0 -19.0 417.0 -160.0 567.0 -237.0C611.0 -249.0 636.0 -244.0 649.0 -232.0ZM485.0 -552.0 475.0 -550.0C501.0 -853.0 599.0 -978.0 876.0 -1074.0C900.0 -971.0 940.0 -919.0 1001.0 -924.0L999.0 -915.0C688.0 -866.0 529.0 -759.0 485.0 -552.0Z"/></g>
<g fill="green" transform="translate(500 200) scale(0.1 -0.1)"><path d="M0.0 -0.0 11.0 -37.0H825.0C845.0 -37.0 856.0 -31.0 860.0 -18.0C822.0 18.0 763.0 65.0 763.0 65.0L711.0 0.0ZM545.0 -113.0C384.0 -10.0 59.0 19.0 -33.0 52.0L-23.0 34.0C80.0 -12.0 388.0 -68.0 572.0 -181.0C598.0 -192.0 622.0 -190.0 632.0 -179.0ZM402.0 -593.0 378.0 -603.0C447.0 -778.0 592.0 -944.0 887.0 -1048.0C895.0 -1016.0 918.0 -1004.0 950.0 -1002.0L952.0 -987.0C648.0 -901.0 476.0 -749.0 402.0 -593.0Z"/></g>
<g fill="green" transform="translate(600 200) scale(0.1 -0.1)"><path d="M0.0 0.0 11.0 -37.0H886.0C905.0 -37.0 920.0 -31.0 922.0 -16.0C869.0 35.0 778.0 107.0 778.0 107.0L697.0 0.0ZM502.0 -64.0C361.0 22.0 59.0 28.0 -44.0 62.0L-37.0 51.0C63.0 -13.0 405.0 -101.0 605.0 -221.0C650.0 -237.0 677.0 -231.0 691.0 -218.0ZM452.0 -597.0 436.0 -604.0C489.0 -817.0 607.0 -983.0 849.0 -1074.0C860.0 -977.0 908.0 -921.0 990.0 -895.0V-878.0C716.0 -841.0 522.0 -749.0 452.0 -597.0Z"/></g>
<g fill="red" transform="translate(100 300) scale(0.1 -0.1)"><path d="M0.0 0.0 9.0 -29.0H883.0C898.0 -29.0 907.0 -24.0 910.0 -14.0C879.0 15.0 829.0 53.0 829.0 53.0L786.0 0.0ZM415.0 104.0C404.0 -88.0 361.0 -211.0 -4.0 -309.0L6.0 -330.0C401.0 -238.0 445.0 -112.0 463.0 67.0C485.0 69.0 496.0 81.0 498.0 94.0ZM469.0 -2.0 452.0 -12.0C522.0 -184.0 664.0 -279.0 875.0 -327.0C882.0 -305.0 898.0 -291.0 918.0 -288.0L919.0 -278.0C704.0 -243.0 541.0 -157.0 469.0 -2.0Z"/></g>
<g fill="black" opacity=".8" transform="translate(100 300) scale(0.1 -0.1)"><path d="M0.0 0.0 9.0 -29.0H875.0C889.0 -29.0 899.0 -25.0 902.0 -15.0C872.0 15.0 824.0 53.0 824.0 53.0L780.0 0.0ZM416.0 113.0C404.0 -92.0 363.0 -212.0 -1.0 -302.0L10.0 -323.0C400.0 -238.0 442.0 -116.0 462.0 74.0C484.0 76.0 494.0 86.0 497.0 100.0ZM468.0 -10.0 452.0 -18.0C516.0 -173.0 648.0 -273.0 875.0 -326.0C881.0 -303.0 897.0 -290.0 917.0 -287.0L920.0 -277.0C689.0 -237.0 536.0 -149.0 468.0 -10.0Z"/></g>
<g fill="red" transform="translate(200 300) scale(0.1 -0.1)"><path d="M0.0 0.0 8.0 -28.0H893.0C908.0 -28.0 919.0 -23.0 922.0 -12.0C873.0 31.0 790.0 95.0 790.0 95.0L718.0 0.0ZM353.0 117.0C347.0 -77.0 328.0 -208.0 -13.0 -319.0L-8.0 -333.0C460.0 -262.0 493.0 -125.0 515.0 76.0C538.0 79.0 548.0 89.0 550.0 104.0ZM494.0 0.0 484.0 -6.0C536.0 -211.0 647.0 -284.0 825.0 -334.0C839.0 -264.0 874.0 -215.0 930.0 -196.0L929.0 -185.0C740.0 -177.0 564.0 -146.0 494.0 0.0Z"/></g>
<g fill="black" opacity=".8" transform="translate(200 300) scale(0.1 -0.1)"><path d="M0.0 0.0 8.0 -28.0H899.0C914.0 -28.0 925.0 -24.0 927.0 -12.0C879.0 30.0 800.0 91.0 800.0 91.0L728.0 0.0ZM359.0 119.0C350.0 -83.0 326.0 -214.0 -12.0 -321.0L-6.0 -335.0C445.0 -267.0 484.0 -132.0 510.0 73.0C535.0 76.0 544.0 85.0 546.0 100.0ZM496.0 -9.0 486.0 -16.0C537.0 -193.0 647.0 -281.0 837.0 -335.0C849.0 -265.0 883.0 -219.0 942.0 -202.0V-190.0C738.0 -177.0 562.0 -135.0 496.0 -9.0Z"/></g>
<g fill="red" transform="translate(300 300) scale(0.1 -0.1)"><path d="M0.0 0.0 9.0 -30.0H881.0C895.0 -30.0 905.0 -25.0 908.0 -14.0C877.0 14.0 829.0 52.0 829.0 52.0L786.0 0.0ZM417.0 131.0C407.0 -77.0 369.0 -194.0 -5.0 -286.0L4.0 -307.0C407.0 -221.0 445.0 -100.0 462.0 95.0C484.0 97.0 495.0 108.0 497.0 121.0ZM473.0 0.0 455.0 -10.0C524.0 -181.0 660.0 -266.0 875.0 -310.0C881.0 -288.0 896.0 -273.0 916.0 -271.0L917.0 -260.0C699.0 -231.0 543.0 -154.0 473.0 0.0Z"/></g>
<g fill="black" opacity=".8" transform="translate(300 300) scale(0.1 -0.1)"><path d="M0.0 0.0 9.0 -29.0H866.0C880.0 -29.0 890.0 -25.0 894.0 -15.0C863.0 14.0 815.0 53.0 815.0 53.0L772.0 0.0ZM407.0 128.0C397.0 -76.0 360.0 -193.0 -5.0 -282.0L6.0 -304.0C398.0 -219.0 435.0 -100.0 454.0 89.0C475.0 91.0 485.0 101.0 488.0 115.0ZM466.0 -9.0 450.0 -18.0C516.0 -168.0 650.0 -260.0 873.0 -308.0C879.0 -286.0 895.0 -272.0 915.0 -269.0L918.0 -259.0C692.0 -224.0 536.0 -143.0 466.0 -9.0Z"/></g>
<g fill="red" transform="translate(400 300) scale(0.1 -0.1)"><path d="M0.0 0.0 8.0 -28.0H875.0C889.0 -28.0 900.0 -23.0 903.0 -12.0C857.0 31.0 778.0 94.0 778.0 94.0L708.0 0.0ZM342.0 125.0C335.0 -63.0 315.0 -190.0 -21.0 -298.0L-15.0 -312.0C441.0 -242.0 475.0 -109.0 497.0 84.0C520.0 87.0 530.0 98.0 532.0 112.0ZM483.0 -5.0 473.0 -11.0C531.0 -196.0 650.0 -268.0 827.0 -315.0C840.0 -245.0 874.0 -196.0 929.0 -178.0V-166.0C744.0 -161.0 559.0 -132.0 483.0 -5.0Z"/></g>
<g fill="black" opacity=".8" transform="translate(400 300) scale(0.1 -0.1)"><path d="M0.0 0.0 8.0 -28.0H890.0C904.0 -28.0 916.0 -24.0 918.0 -12.0C870.0 30.0 791.0 91.0 791.0 91.0L720.0 0.0ZM349.0 134.0C342.0 -65.0 324.0 -194.0 -16.0 -300.0L-10.0 -314.0C444.0 -247.0 479.0 -114.0 502.0 91.0C527.0 93.0 536.0 103.0 538.0 117.0ZM493.0 -7.0 482.0 -14.0C535.0 -187.0 647.0 -267.0 835.0 -317.0C847.0 -248.0 881.0 -201.0 939.0 -184.0V-172.0C740.0 -163.0 561.0 -128.0 493.0 -7.0Z"/></g>
<g fill="red" transform="translate(500 300) scale(0.1 -0.1)"><path d="M0.0 0.0 9.0 -30.0H875.0C889.0 -30.0 899.0 -25.0 901.0 -14.0C868.0 17.0 814.0 58.0 814.0 58.0L768.0 0.0ZM415.0 290.0C414.0 -63.0 425.0 -376.0 -11.0 -597.0L2.0 -616.0C464.0 -401.0 457.0 -84.0 465.0 253.0C489.0 256.0 497.0 267.0 500.0 281.0ZM469.0 -5.0 449.0 -10.0C478.0 -213.0 557.0 -456.0 860.0 -617.0C869.0 -591.0 888.0 -586.0 914.0 -585.0L916.0 -574.0C598.0 -424.0 501.0 -202.0 469.0 -5.0Z"/></g>
<g fill="black" opacity=".8" transform="translate(500 300) scale(0.1 -0.1)"><path d="M0.0 0.0 9.0 -31.0H884.0C898.0 -31.0 908.0 -26.0 911.0 -15.0C879.0 17.0 826.0 58.0 826.0 58.0L779.0 0.0ZM423.0 300.0C421.0 -101.0 423.0 -391.0 -1.0 -581.0L13.0 -603.0C462.0 -416.0 462.0 -124.0 473.0 259.0C498.0 262.0 506.0 272.0 509.0 289.0ZM476.0 -1.0 457.0 -5.0C483.0 -219.0 562.0 -465.0 860.0 -621.0C869.0 -594.0 888.0 -588.0 913.0 -586.0L917.0 -575.0C602.0 -428.0 508.0 -208.0 476.0 -1.0Z"/></g>
<g fill="red" transform="translate(600 300) scale(0.1 -0.1)"><path d="M0.0 0.0 8.0 -28.0H910.0C925.0 -28.0 937.0 -23.0 940.0 -12.0C884.0 35.0 791.0 105.0 791.0 105.0L708.0 0.0ZM363.0 301.0C362.0 -74.0 385.0 -379.0 -9.0 -632.0L-1.0 -645.0C528.0 -451.0 516.0 -127.0 525.0 254.0C549.0 258.0 559.0 267.0 562.0 283.0ZM516.0 -7.0 502.0 -9.0C522.0 -218.0 586.0 -497.0 816.0 -645.0C828.0 -561.0 871.0 -513.0 945.0 -498.0L946.0 -486.0C666.0 -382.0 545.0 -198.0 516.0 -7.0Z"/></g>
<g fill="black" opacity=".8" transform="translate(600 300) scale(0.1 -0.1)"><path d="M0.0 0.0 9.0 -28.0H902.0C917.0 -28.0 930.0 -25.0 932.0 -12.0C875.0 37.0 780.0 109.0 780.0 109.0L695.0 0.0ZM359.0 312.0C356.0 -88.0 368.0 -381.0 -12.0 -613.0L-4.0 -627.0C509.0 -452.0 505.0 -149.0 521.0 262.0C548.0 266.0 558.0 275.0 560.0 292.0ZM514.0 -0.0 499.0 -3.0C517.0 -245.0 577.0 -508.0 809.0 -639.0C821.0 -551.0 865.0 -500.0 943.0 -485.0V-472.0C659.0 -383.0 540.0 -215.0 514.0 -0.0Z"/></g>
<g fill="red" transform="translate(700 300) scale(0.1 -0.1)"><path d="M0.0 0.0 8.0 -29.0H726.0C740.0 -29.0 750.0 -24.0 753.0 -13.0C721.0 15.0 672.0 54.0 672.0 54.0L629.0 0.0ZM345.0 192.0C345.0 -238.0 368.0 -519.0 -77.0 -695.0L-65.0 -715.0C405.0 -542.0 387.0 -260.0 392.0 155.0C416.0 159.0 424.0 169.0 427.0 183.0ZM399.0 -240.0 380.0 -246.0C413.0 -386.0 496.0 -582.0 781.0 -713.0C789.0 -688.0 808.0 -684.0 834.0 -683.0L836.0 -671.0C538.0 -550.0 436.0 -374.0 399.0 -240.0Z"/></g>
<g fill="black" opacity=".8" transform="translate(700 300) scale(0.1 -0.1)"><path d="M0.0 0.0 8.0 -31.0H737.0C752.0 -31.0 762.0 -26.0 765.0 -15.0C733.0 16.0 681.0 57.0 681.0 57.0L635.0 0.0ZM348.0 186.0C361.0 -225.0 388.0 -512.0 -82.0 -698.0L-68.0 -721.0C431.0 -536.0 408.0 -247.0 402.0 147.0C428.0 151.0 437.0 162.0 440.0 179.0ZM405.0 -228.0 385.0 -234.0C427.0 -407.0 529.0 -598.0 785.0 -716.0C792.0 -690.0 811.0 -680.0 835.0 -678.0L838.0 -666.0C570.0 -560.0 452.0 -388.0 405.0 -228.0Z"/></g>
<g fill="red" transform="translate(800 300) scale(0.1 -0.1)"><path d="M0.0 0.0 8.0 -28.0H778.0C792.0 -28.0 804.0 -23.0 807.0 -12.0C753.0 33.0 665.0 98.0 665.0 98.0L587.0 0.0ZM303.0 207.0C303.0 -243.0 341.0 -512.0 -79.0 -717.0L-72.0 -730.0C489.0 -580.0 459.0 -302.0 465.0 160.0C489.0 164.0 501.0 173.0 503.0 190.0ZM449.0 -237.0 436.0 -240.0C459.0 -417.0 530.0 -620.0 758.0 -717.0C766.0 -631.0 808.0 -588.0 883.0 -572.0V-559.0C606.0 -501.0 479.0 -384.0 449.0 -237.0Z"/></g>
<g fill="black" opacity=".8" transform="translate(800 300) scale(0.1 -0.1)"><path d="M0.0 0.0 9.0 -29.0H766.0C780.0 -29.0 793.0 -25.0 795.0 -13.0C745.0 34.0 659.0 101.0 659.0 101.0L583.0 0.0ZM283.0 195.0C292.0 -215.0 334.0 -502.0 -92.0 -731.0L-84.0 -746.0C492.0 -574.0 457.0 -270.0 453.0 152.0C481.0 157.0 492.0 167.0 493.0 184.0ZM432.0 -223.0 419.0 -228.0C449.0 -431.0 529.0 -627.0 732.0 -730.0C743.0 -640.0 786.0 -586.0 863.0 -568.0V-554.0C620.0 -498.0 476.0 -383.0 432.0 -223.0Z"/></g>
<g fill="red" transform="translate(900 300) scale(0.1 -0.1)"><path d="M0.0 0.0 9.0 -29.0H883.0C898.0 -29.0 907.0 -24.0 910.0 -14.0C879.0 15.0 829.0 53.0 829.0 53.0L786.0 0.0ZM731.0 370.0C582.0 312.0 293.0 249.0 52.0 226.0L55.0 205.0C305.0 220.0 571.0 270.0 744.0 317.0C767.0 308.0 783.0 308.0 791.0 316.0ZM474.0 0.0 455.0 -5.0C487.0 -161.0 568.0 -380.0 856.0 -528.0C864.0 -502.0 883.0 -499.0 909.0 -498.0L911.0 -486.0C610.0 -349.0 510.0 -151.0 474.0 0.0Z"/></g>
<g fill="black" opacity=".8" transform="translate(900 300) scale(0.1 -0.1)"><path d="M0.0 0.0 9.0 -30.0H878.0C894.0 -30.0 903.0 -25.0 905.0 -14.0C875.0 15.0 825.0 54.0 825.0 54.0L782.0 0.0ZM728.0 374.0C575.0 318.0 288.0 254.0 48.0 222.0L54.0 199.0C303.0 224.0 569.0 274.0 742.0 318.0C766.0 308.0 780.0 308.0 789.0 316.0ZM470.0 3.0 451.0 -0.0C483.0 -164.0 563.0 -378.0 857.0 -521.0C865.0 -494.0 883.0 -489.0 909.0 -487.0L912.0 -476.0C605.0 -344.0 507.0 -152.0 470.0 3.0Z"/></g>
<g fill="red" transform="translate(1000 300) scale(0.1 -0.1)"><path d="M0.0 0.0 8.0 -28.0H919.0C935.0 -28.0 946.0 -23.0 949.0 -12.0C893.0 35.0 800.0 103.0 800.0 103.0L717.0 0.0ZM698.0 414.0C556.0 344.0 275.0 264.0 43.0 227.0L45.0 214.0C293.0 212.0 581.0 240.0 765.0 282.0C803.0 269.0 827.0 271.0 839.0 282.0ZM528.0 0.0 514.0 -3.0C537.0 -180.0 606.0 -414.0 828.0 -535.0C837.0 -454.0 878.0 -413.0 949.0 -398.0V-386.0C680.0 -304.0 558.0 -156.0 528.0 0.0Z"/></g>
<g fill="black" opacity=".8" transform="translate(1000 300) scale(0.1 -0.1)"><path d="M0.0 0.0 8.0 -28.0H920.0C936.0 -28.0 948.0 -24.0 950.0 -12.0C897.0 34.0 806.0 101.0 806.0 101.0L726.0 0.0ZM704.0 419.0C556.0 345.0 273.0 265.0 50.0 222.0L53.0 208.0C294.0 212.0 580.0 243.0 769.0 280.0C806.0 267.0 828.0 269.0 840.0 278.0ZM531.0 -0.0 517.0 -3.0C539.0 -193.0 605.0 -422.0 831.0 -541.0C842.0 -458.0 882.0 -416.0 952.0 -405.0V-392.0C679.0 -312.0 558.0 -164.0 531.0 -0.0Z"/></g>
<g fill="red" transform="translate(1100 300) scale(0.1 -0.1)"><path d="M0.0 0.0 9.0 -30.0H877.0C891.0 -30.0 900.0 -25.0 903.0 -14.0C872.0 15.0 824.0 52.0 824.0 52.0L781.0 0.0ZM407.0 -160.0C398.0 -399.0 330.0 -608.0 79.0 -722.0L89.0 -735.0C363.0 -627.0 434.0 -423.0 453.0 -197.0C472.0 -196.0 486.0 -189.0 489.0 -171.0ZM554.0 -6.0 534.0 -17.0C596.0 -173.0 723.0 -298.0 866.0 -362.0C873.0 -342.0 894.0 -332.0 918.0 -330.0L920.0 -319.0C773.0 -266.0 614.0 -151.0 554.0 -6.0Z"/></g>
<g fill="black" opacity=".8" transform="translate(1100 300) scale(0.1 -0.1)"><path d="M0.0 0.0 9.0 -29.0H870.0C884.0 -29.0 893.0 -25.0 897.0 -14.0C866.0 15.0 818.0 52.0 818.0 52.0L775.0 0.0ZM398.0 -156.0C383.0 -391.0 318.0 -602.0 71.0 -731.0L85.0 -745.0C353.0 -622.0 425.0 -416.0 446.0 -196.0C465.0 -195.0 475.0 -189.0 480.0 -171.0ZM543.0 -0.0 525.0 -11.0C586.0 -177.0 712.0 -294.0 864.0 -350.0C871.0 -330.0 891.0 -318.0 915.0 -315.0L917.0 -305.0C761.0 -261.0 604.0 -155.0 543.0 -0.0Z"/></g>
<g fill="red" transform="translate(1200 300) scale(0.1 -0.1)"><path d="M0.0 0.0 8.0 -28.0H893.0C908.0 -28.0 919.0 -23.0 922.0 -12.0C873.0 30.0 793.0 90.0 793.0 90.0L722.0 0.0ZM333.0 -174.0C337.0 -384.0 293.0 -610.0 26.0 -751.0L33.0 -761.0C377.0 -662.0 463.0 -456.0 484.0 -215.0C508.0 -212.0 519.0 -202.0 520.0 -185.0ZM542.0 -3.0 528.0 -15.0C590.0 -160.0 693.0 -283.0 828.0 -347.0C833.0 -286.0 872.0 -237.0 937.0 -198.0L938.0 -183.0C797.0 -167.0 621.0 -116.0 542.0 -3.0Z"/></g>
<g fill="black" opacity=".8" transform="translate(1200 300) scale(0.1 -0.1)"><path d="M0.0 0.0 9.0 -27.0H898.0C911.0 -27.0 923.0 -23.0 925.0 -12.0C878.0 31.0 800.0 90.0 800.0 90.0L730.0 0.0ZM349.0 -167.0C341.0 -386.0 293.0 -608.0 42.0 -756.0L51.0 -767.0C385.0 -660.0 466.0 -454.0 496.0 -216.0C517.0 -213.0 526.0 -204.0 526.0 -190.0ZM552.0 -3.0 538.0 -14.0C597.0 -181.0 697.0 -291.0 839.0 -348.0C847.0 -289.0 882.0 -241.0 943.0 -208.0L944.0 -193.0C797.0 -181.0 626.0 -131.0 552.0 -3.0Z"/></g>
<g fill="red" transform="translate(1300 300) scale(0.1 -0.1)"><path d="M0.0 0.0 9.0 -30.0H876.0C890.0 -30.0 900.0 -25.0 903.0 -14.0C868.0 16.0 815.0 55.0 815.0 55.0L768.0 0.0ZM405.0 173.0C355.0 -20.0 237.0 -207.0 -12.0 -310.0L-4.0 -324.0C267.0 -228.0 390.0 -52.0 449.0 130.0C468.0 129.0 482.0 135.0 487.0 150.0ZM540.0 -1.0 520.0 -12.0C584.0 -153.0 711.0 -247.0 850.0 -289.0C856.0 -268.0 878.0 -257.0 903.0 -254.0L905.0 -242.0C759.0 -213.0 601.0 -130.0 540.0 -1.0Z"/></g>
<g fill="black" opacity=".8" transform="translate(1300 300) scale(0.1 -0.1)"><path d="M0.0 0.0 9.0 -29.0H872.0C886.0 -29.0 896.0 -25.0 899.0 -14.0C867.0 16.0 817.0 54.0 817.0 54.0L772.0 0.0ZM401.0 181.0C345.0 -15.0 233.0 -206.0 -12.0 -315.0L-1.0 -330.0C265.0 -226.0 380.0 -48.0 443.0 136.0C462.0 135.0 475.0 141.0 481.0 156.0ZM529.0 -9.0 511.0 -21.0C576.0 -140.0 700.0 -248.0 851.0 -304.0C858.0 -283.0 879.0 -273.0 904.0 -271.0L908.0 -260.0C753.0 -214.0 593.0 -119.0 529.0 -9.0Z"/></g>
<g fill="red" transform="translate(1400 300) scale(0.1 -0.1)"><path d="M0.0 0.0 8.0 -28.0H891.0C906.0 -28.0 918.0 -23.0 920.0 -12.0C869.0 32.0 784.0 96.0 784.0 96.0L708.0 0.0ZM337.0 204.0C309.0 30.0 226.0 -178.0 -19.0 -320.0L-13.0 -329.0C305.0 -234.0 437.0 -55.0 494.0 137.0C519.0 136.0 531.0 145.0 535.0 159.0ZM516.0 0.0 503.0 -11.0C568.0 -165.0 675.0 -282.0 819.0 -339.0C824.0 -275.0 864.0 -223.0 932.0 -182.0L933.0 -166.0C781.0 -160.0 599.0 -118.0 516.0 0.0Z"/></g>
<g fill="black" opacity=".8" transform="translate(1400 300) scale(0.1 -0.1)"><path d="M0.0 0.0 8.0 -27.0H895.0C909.0 -27.0 921.0 -24.0 923.0 -12.0C872.0 33.0 786.0 99.0 786.0 99.0L710.0 0.0ZM344.0 200.0C310.0 19.0 231.0 -176.0 -20.0 -315.0L-14.0 -325.0C312.0 -230.0 437.0 -59.0 496.0 131.0C522.0 129.0 534.0 138.0 537.0 151.0ZM531.0 -8.0 517.0 -19.0C578.0 -149.0 678.0 -265.0 822.0 -321.0C827.0 -260.0 864.0 -212.0 930.0 -177.0V-161.0C778.0 -151.0 604.0 -108.0 531.0 -8.0Z"/></g>
<g fill="red" transform="translate(1500 300) scale(0.1 -0.1)"><path d="M0.0 0.0 9.0 -29.0H879.0C893.0 -29.0 902.0 -24.0 905.0 -14.0C874.0 15.0 825.0 53.0 825.0 53.0L781.0 0.0ZM430.0 444.0C430.0 -6.0 456.0 -276.0 -11.0 -438.0L0.0 -458.0C494.0 -299.0 473.0 -27.0 477.0 407.0C502.0 411.0 510.0 421.0 512.0 435.0ZM482.0 -7.0 463.0 -13.0C495.0 -155.0 574.0 -340.0 856.0 -459.0C863.0 -434.0 882.0 -430.0 906.0 -428.0L909.0 -416.0C615.0 -307.0 517.0 -144.0 482.0 -7.0Z"/></g>
<g fill="black" opacity=".8" transform="translate(1500 300) scale(0.1 -0.1)"><path d="M0.0 0.0 8.0 -30.0H882.0C896.0 -30.0 906.0 -26.0 909.0 -14.0C877.0 16.0 825.0 57.0 825.0 57.0L779.0 0.0ZM426.0 435.0C432.0 21.0 460.0 -264.0 -22.0 -451.0L-9.0 -474.0C502.0 -287.0 478.0 -0.0 478.0 396.0C502.0 401.0 510.0 412.0 512.0 428.0ZM478.0 2.0 459.0 -4.0C499.0 -159.0 593.0 -344.0 857.0 -461.0C865.0 -435.0 882.0 -428.0 905.0 -426.0L909.0 -415.0C634.0 -308.0 521.0 -145.0 478.0 2.0Z"/></g>
<g fill="red" transform="translate(1600 300) scale(0.1 -0.1)"><path d="M0.0 0.0 8.0 -28.0H897.0C912.0 -28.0 923.0 -23.0 926.0 -12.0C872.0 34.0 783.0 101.0 783.0 101.0L703.0 0.0ZM373.0 465.0C373.0 28.0 407.0 -250.0 -23.0 -463.0L-16.0 -477.0C548.0 -317.0 522.0 -28.0 529.0 419.0C553.0 422.0 564.0 432.0 567.0 448.0ZM508.0 0.0 495.0 -3.0C519.0 -175.0 591.0 -381.0 817.0 -480.0C825.0 -392.0 868.0 -347.0 945.0 -331.0V-318.0C669.0 -260.0 538.0 -143.0 508.0 0.0Z"/></g>
<g fill="black" opacity=".8" transform="translate(1600 300) scale(0.1 -0.1)"><path d="M0.0 0.0 8.0 -27.0H897.0C911.0 -27.0 924.0 -24.0 926.0 -12.0C871.0 36.0 778.0 106.0 778.0 106.0L695.0 0.0ZM356.0 452.0C364.0 42.0 412.0 -240.0 -24.0 -474.0L-17.0 -488.0C571.0 -311.0 535.0 -7.0 531.0 413.0C557.0 418.0 566.0 428.0 567.0 444.0ZM502.0 6.0 490.0 2.0C519.0 -182.0 597.0 -383.0 805.0 -484.0C815.0 -400.0 856.0 -350.0 930.0 -334.0V-320.0C681.0 -262.0 541.0 -148.0 502.0 6.0Z"/></g>
<g fill="red" transform="translate(100 400) scale(0.1 -0.1)"><path d="M0.0 0.0 9.0 -29.0H876.0C890.0 -29.0 900.0 -24.0 903.0 -13.0C868.0 16.0 815.0 56.0 815.0 56.0L768.0 0.0ZM406.0 200.0C348.0 -28.0 219.0 -268.0 -12.0 -403.0L-1.0 -415.0C253.0 -289.0 384.0 -62.0 450.0 156.0C470.0 155.0 484.0 161.0 489.0 176.0ZM548.0 -3.0 527.0 -13.0C589.0 -181.0 716.0 -324.0 861.0 -400.0C868.0 -380.0 890.0 -369.0 914.0 -368.0L917.0 -357.0C767.0 -292.0 608.0 -158.0 548.0 -3.0Z"/></g>
<g fill="black" opacity=".8" transform="translate(100 400) scale(0.1 -0.1)"><path d="M0.0 0.0 9.0 -31.0H872.0C887.0 -31.0 897.0 -27.0 901.0 -15.0C867.0 17.0 813.0 58.0 813.0 58.0L765.0 0.0ZM399.0 204.0C340.0 -27.0 222.0 -264.0 -8.0 -397.0L5.0 -411.0C256.0 -283.0 378.0 -62.0 445.0 155.0C465.0 154.0 479.0 160.0 485.0 176.0ZM535.0 -13.0 514.0 -24.0C576.0 -161.0 698.0 -304.0 864.0 -383.0C871.0 -360.0 895.0 -351.0 922.0 -350.0L927.0 -338.0C754.0 -269.0 595.0 -141.0 535.0 -13.0Z"/></g>
<g fill="red" transform="translate(200 400) scale(0.1 -0.1)"><path d="M0.0 0.0 8.0 -28.0H891.0C906.0 -28.0 918.0 -23.0 920.0 -12.0C869.0 32.0 784.0 96.0 784.0 96.0L708.0 0.0ZM334.0 216.0C308.0 18.0 228.0 -223.0 -19.0 -386.0L-12.0 -396.0C312.0 -281.0 439.0 -71.0 494.0 151.0C519.0 150.0 531.0 160.0 534.0 175.0ZM521.0 0.0 507.0 -11.0C571.0 -179.0 677.0 -309.0 825.0 -376.0C830.0 -313.0 870.0 -260.0 939.0 -221.0L940.0 -205.0C785.0 -189.0 603.0 -133.0 521.0 0.0Z"/></g>
<g fill="black" opacity=".8" transform="translate(200 400) scale(0.1 -0.1)"><path d="M0.0 0.0 9.0 -29.0H893.0C909.0 -29.0 922.0 -26.0 924.0 -13.0C870.0 35.0 779.0 104.0 779.0 104.0L698.0 0.0ZM338.0 226.0C303.0 13.0 220.0 -227.0 -19.0 -395.0L-11.0 -404.0C301.0 -284.0 436.0 -75.0 499.0 150.0C526.0 149.0 539.0 158.0 542.0 173.0ZM536.0 -9.0 521.0 -20.0C579.0 -167.0 677.0 -324.0 832.0 -397.0C836.0 -331.0 877.0 -279.0 951.0 -240.0L952.0 -223.0C781.0 -198.0 608.0 -129.0 536.0 -9.0Z"/></g>
<g fill="red" transform="translate(300 400) scale(0.1 -0.1)"><path d="M0.0 0.0 7.0 -30.0H510.0C524.0 -30.0 532.0 -25.0 535.0 -14.0C506.0 15.0 458.0 51.0 458.0 51.0L416.0 0.0ZM226.0 496.0C174.0 280.0 51.0 61.0 -191.0 -60.0L-182.0 -73.0C83.0 40.0 209.0 247.0 270.0 453.0C290.0 452.0 304.0 458.0 309.0 473.0ZM345.0 303.0 326.0 291.0C397.0 140.0 533.0 8.0 683.0 -63.0C690.0 -42.0 712.0 -33.0 736.0 -32.0L739.0 -21.0C589.0 39.0 412.0 163.0 345.0 303.0Z"/></g>
<g fill="black" opacity=".8" transform="translate(300 400) scale(0.1 -0.1)"><path d="M0.0 0.0 6.0 -31.0H506.0C520.0 -31.0 529.0 -26.0 531.0 -15.0C503.0 15.0 453.0 54.0 453.0 54.0L408.0 0.0ZM226.0 501.0C170.0 281.0 49.0 60.0 -190.0 -67.0L-179.0 -81.0C82.0 40.0 208.0 246.0 272.0 453.0C291.0 452.0 305.0 458.0 310.0 474.0ZM347.0 302.0 328.0 291.0C395.0 143.0 526.0 8.0 684.0 -64.0C690.0 -41.0 712.0 -32.0 736.0 -30.0L741.0 -19.0C583.0 43.0 413.0 166.0 347.0 302.0Z"/></g>
<g fill="red" transform="translate(400 400) scale(0.1 -0.1)"><path d="M0.0 0.0 8.0 -28.0H511.0C526.0 -28.0 537.0 -23.0 540.0 -12.0C494.0 29.0 416.0 90.0 416.0 90.0L348.0 0.0ZM161.0 531.0C134.0 339.0 53.0 108.0 -196.0 -50.0L-189.0 -59.0C135.0 50.0 264.0 251.0 321.0 465.0C345.0 465.0 357.0 474.0 360.0 489.0ZM353.0 335.0 339.0 324.0C403.0 163.0 509.0 29.0 652.0 -41.0C658.0 22.0 698.0 74.0 767.0 113.0L769.0 129.0C618.0 149.0 435.0 208.0 353.0 335.0Z"/></g>
<g fill="black" opacity=".8" transform="translate(400 400) scale(0.1 -0.1)"><path d="M0.0 0.0 9.0 -29.0H513.0C528.0 -29.0 540.0 -25.0 542.0 -13.0C497.0 27.0 424.0 83.0 424.0 83.0L358.0 0.0ZM163.0 536.0C131.0 335.0 51.0 110.0 -196.0 -46.0L-187.0 -55.0C134.0 54.0 259.0 252.0 320.0 465.0C345.0 464.0 356.0 473.0 359.0 487.0ZM355.0 335.0 340.0 323.0C403.0 159.0 507.0 27.0 656.0 -39.0C662.0 25.0 700.0 76.0 770.0 111.0L771.0 127.0C612.0 145.0 433.0 206.0 355.0 335.0Z"/></g>
<g fill="red" transform="translate(500 400) scale(0.1 -0.1)"><path d="M0.0 0.0 9.0 -30.0H876.0C890.0 -30.0 900.0 -25.0 903.0 -14.0C868.0 16.0 815.0 55.0 815.0 55.0L768.0 0.0ZM401.0 167.0C336.0 -26.0 202.0 -235.0 -12.0 -355.0L-2.0 -367.0C235.0 -256.0 371.0 -59.0 443.0 122.0C462.0 121.0 476.0 126.0 481.0 140.0ZM544.0 0.0 524.0 -13.0C590.0 -151.0 717.0 -273.0 855.0 -339.0C862.0 -319.0 883.0 -308.0 908.0 -308.0L911.0 -297.0C772.0 -242.0 607.0 -128.0 544.0 0.0Z"/></g>
<g fill="black" opacity=".8" transform="translate(500 400) scale(0.1 -0.1)"><path d="M0.0 0.0 9.0 -30.0H872.0C887.0 -30.0 896.0 -26.0 900.0 -14.0C867.0 16.0 815.0 56.0 815.0 56.0L769.0 0.0ZM401.0 173.0C336.0 -28.0 207.0 -238.0 -13.0 -355.0L-2.0 -369.0C237.0 -258.0 370.0 -63.0 443.0 125.0C462.0 124.0 476.0 128.0 482.0 144.0ZM546.0 -5.0 527.0 -16.0C588.0 -148.0 708.0 -277.0 858.0 -346.0C865.0 -324.0 887.0 -315.0 913.0 -313.0L917.0 -302.0C763.0 -243.0 606.0 -128.0 546.0 -5.0Z"/></g>
<g fill="red" transform="translate(600 400) scale(0.1 -0.1)"><path d="M0.0 0.0 8.0 -28.0H891.0C906.0 -28.0 918.0 -23.0 920.0 -12.0C869.0 32.0 784.0 96.0 784.0 96.0L708.0 0.0ZM345.0 190.0C306.0 13.0 210.0 -207.0 -23.0 -360.0L-17.0 -369.0C287.0 -263.0 431.0 -74.0 499.0 118.0C523.0 116.0 536.0 125.0 540.0 139.0ZM542.0 0.0 528.0 -11.0C589.0 -169.0 690.0 -301.0 828.0 -372.0C834.0 -309.0 874.0 -256.0 943.0 -217.0L944.0 -202.0C798.0 -181.0 621.0 -124.0 542.0 0.0Z"/></g>
<g fill="black" opacity=".8" transform="translate(600 400) scale(0.1 -0.1)"><path d="M0.0 0.0 9.0 -28.0H895.0C910.0 -28.0 923.0 -25.0 925.0 -12.0C872.0 34.0 784.0 102.0 784.0 102.0L705.0 0.0ZM345.0 193.0C304.0 8.0 208.0 -206.0 -23.0 -355.0L-16.0 -364.0C280.0 -261.0 426.0 -78.0 496.0 116.0C522.0 113.0 535.0 122.0 539.0 135.0ZM547.0 -4.0 532.0 -16.0C591.0 -157.0 686.0 -296.0 829.0 -362.0C834.0 -301.0 873.0 -251.0 941.0 -213.0L942.0 -197.0C788.0 -177.0 619.0 -118.0 547.0 -4.0Z"/></g>
<g fill="red" transform="translate(700 400) scale(0.1 -0.1)"><path d="M0.0 0.0 9.0 -30.0H868.0C882.0 -30.0 892.0 -25.0 895.0 -14.0C864.0 15.0 815.0 53.0 815.0 53.0L773.0 0.0ZM189.0 -73.0C163.0 -220.0 101.0 -338.0 22.0 -413.0L36.0 -425.0C125.0 -361.0 192.0 -251.0 229.0 -113.0C249.0 -113.0 260.0 -105.0 264.0 -93.0ZM446.0 -56.0 427.0 -60.0C448.0 -347.0 522.0 -593.0 842.0 -748.0C850.0 -721.0 870.0 -716.0 898.0 -715.0L900.0 -704.0C563.0 -561.0 472.0 -336.0 446.0 -56.0Z"/></g>
<g fill="black" opacity=".8" transform="translate(700 400) scale(0.1 -0.1)"><path d="M0.0 0.0 9.0 -31.0H874.0C888.0 -31.0 898.0 -27.0 902.0 -16.0C870.0 16.0 819.0 55.0 819.0 55.0L775.0 0.0ZM192.0 -79.0C173.0 -208.0 113.0 -332.0 20.0 -416.0L35.0 -430.0C140.0 -356.0 203.0 -238.0 236.0 -121.0C255.0 -120.0 267.0 -111.0 271.0 -97.0ZM449.0 -51.0 429.0 -55.0C456.0 -352.0 542.0 -601.0 845.0 -754.0C853.0 -726.0 873.0 -720.0 899.0 -718.0L902.0 -707.0C583.0 -565.0 481.0 -338.0 449.0 -51.0Z"/></g>
<g fill="red" transform="translate(800 400) scale(0.1 -0.1)"><path d="M0.0 0.0 8.0 -28.0H887.0C902.0 -28.0 914.0 -23.0 917.0 -12.0C863.0 34.0 773.0 101.0 773.0 101.0L694.0 0.0ZM141.0 -55.0C130.0 -208.0 77.0 -341.0 4.0 -431.0L15.0 -439.0C138.0 -382.0 226.0 -287.0 279.0 -121.0C302.0 -120.0 314.0 -111.0 318.0 -98.0ZM499.0 -62.0 484.0 -64.0C499.0 -387.0 549.0 -643.0 813.0 -768.0C824.0 -692.0 866.0 -647.0 934.0 -633.0L935.0 -621.0C624.0 -531.0 522.0 -353.0 499.0 -62.0Z"/></g>
<g fill="black" opacity=".8" transform="translate(800 400) scale(0.1 -0.1)"><path d="M0.0 0.0 9.0 -29.0H883.0C898.0 -29.0 910.0 -24.0 913.0 -12.0C858.0 34.0 769.0 103.0 769.0 103.0L688.0 0.0ZM123.0 -64.0C121.0 -194.0 77.0 -335.0 -6.0 -438.0L5.0 -447.0C144.0 -379.0 228.0 -270.0 271.0 -125.0C298.0 -123.0 309.0 -114.0 312.0 -100.0ZM489.0 -57.0 474.0 -60.0C494.0 -386.0 550.0 -642.0 797.0 -771.0C810.0 -696.0 851.0 -646.0 921.0 -631.0V-618.0C632.0 -527.0 521.0 -349.0 489.0 -57.0Z"/></g>
<g fill="red" transform="translate(900 400) scale(0.1 -0.1)"><path d="M0.0 0.0 9.0 -30.0H871.0C885.0 -30.0 894.0 -25.0 897.0 -14.0C865.0 16.0 816.0 54.0 816.0 54.0L773.0 0.0ZM408.0 156.0C334.0 -17.0 189.0 -209.0 -23.0 -318.0L-13.0 -331.0C220.0 -230.0 367.0 -52.0 447.0 110.0C467.0 108.0 481.0 113.0 486.0 126.0ZM540.0 0.0 521.0 -14.0C592.0 -137.0 724.0 -241.0 862.0 -294.0C869.0 -273.0 891.0 -263.0 916.0 -262.0L918.0 -250.0C779.0 -209.0 607.0 -114.0 540.0 0.0Z"/></g>
<g fill="black" opacity=".8" transform="translate(900 400) scale(0.1 -0.1)"><path d="M0.0 0.0 9.0 -30.0H869.0C883.0 -30.0 893.0 -26.0 897.0 -15.0C863.0 16.0 812.0 55.0 812.0 55.0L766.0 0.0ZM411.0 153.0C339.0 -18.0 192.0 -207.0 -20.0 -310.0L-9.0 -324.0C222.0 -227.0 372.0 -55.0 452.0 104.0C470.0 102.0 485.0 106.0 491.0 121.0ZM548.0 -1.0 529.0 -13.0C598.0 -133.0 728.0 -238.0 861.0 -290.0C868.0 -269.0 890.0 -259.0 916.0 -257.0L920.0 -246.0C784.0 -204.0 614.0 -110.0 548.0 -1.0Z"/></g>
<g fill="red" transform="translate(1000 400) scale(0.1 -0.1)"><path d="M0.0 0.0 8.0 -28.0H891.0C906.0 -28.0 918.0 -23.0 920.0 -12.0C870.0 34.0 784.0 102.0 784.0 102.0L708.0 0.0ZM365.0 168.0C313.0 18.0 200.0 -171.0 -25.0 -304.0L-20.0 -313.0C268.0 -224.0 431.0 -68.0 510.0 88.0C534.0 85.0 548.0 92.0 552.0 106.0ZM556.0 0.0 543.0 -12.0C606.0 -140.0 707.0 -246.0 837.0 -297.0C842.0 -238.0 879.0 -190.0 942.0 -151.0L943.0 -135.0C808.0 -131.0 633.0 -96.0 556.0 0.0Z"/></g>
<g fill="black" opacity=".8" transform="translate(1000 400) scale(0.1 -0.1)"><path d="M0.0 0.0 9.0 -28.0H894.0C909.0 -28.0 922.0 -25.0 923.0 -12.0C872.0 33.0 786.0 100.0 786.0 100.0L709.0 0.0ZM357.0 173.0C310.0 19.0 198.0 -175.0 -30.0 -307.0L-23.0 -316.0C265.0 -229.0 428.0 -69.0 505.0 93.0C531.0 90.0 545.0 98.0 549.0 111.0ZM546.0 1.0 532.0 -12.0C598.0 -139.0 702.0 -250.0 836.0 -304.0C841.0 -245.0 879.0 -195.0 945.0 -156.0L946.0 -140.0C807.0 -134.0 626.0 -95.0 546.0 1.0Z"/></g>
<g fill="red" transform="translate(1100 400) scale(0.1 -0.1)"><path d="M0.0 0.0 9.0 -29.0H871.0C885.0 -29.0 894.0 -24.0 897.0 -13.0C865.0 16.0 816.0 55.0 816.0 55.0L773.0 0.0ZM401.0 138.0C329.0 -22.0 188.0 -201.0 -19.0 -302.0L-10.0 -316.0C218.0 -221.0 361.0 -58.0 441.0 92.0C459.0 90.0 473.0 95.0 479.0 108.0ZM560.0 0.0 541.0 -13.0C609.0 -128.0 734.0 -229.0 865.0 -284.0C872.0 -264.0 893.0 -254.0 918.0 -254.0L921.0 -242.0C790.0 -199.0 625.0 -105.0 560.0 0.0Z"/></g>
<g fill="black" opacity=".8" transform="translate(1100 400) scale(0.1 -0.1)"><path d="M0.0 0.0 9.0 -29.0H869.0C883.0 -29.0 892.0 -25.0 896.0 -14.0C863.0 16.0 814.0 54.0 814.0 54.0L769.0 0.0ZM401.0 139.0C330.0 -20.0 186.0 -197.0 -16.0 -293.0L-6.0 -308.0C214.0 -217.0 361.0 -55.0 440.0 92.0C458.0 90.0 472.0 94.0 478.0 108.0ZM562.0 2.0 543.0 -11.0C610.0 -131.0 737.0 -231.0 861.0 -280.0C868.0 -259.0 889.0 -248.0 914.0 -247.0L918.0 -236.0C792.0 -198.0 627.0 -107.0 562.0 2.0Z"/></g>
<g fill="red" transform="translate(1200 400) scale(0.1 -0.1)"><path d="M0.0 0.0 8.0 -28.0H891.0C906.0 -28.0 918.0 -23.0 920.0 -12.0C870.0 34.0 784.0 102.0 784.0 102.0L708.0 0.0ZM354.0 156.0C303.0 14.0 192.0 -162.0 -25.0 -285.0L-19.0 -295.0C256.0 -212.0 414.0 -67.0 491.0 78.0C515.0 75.0 529.0 82.0 533.0 96.0ZM566.0 0.0 552.0 -12.0C613.0 -137.0 709.0 -242.0 834.0 -293.0C839.0 -234.0 876.0 -186.0 938.0 -146.0L939.0 -130.0C809.0 -126.0 640.0 -94.0 566.0 0.0Z"/></g>
<g fill="black" opacity=".8" transform="translate(1200 400) scale(0.1 -0.1)"><path d="M0.0 0.0 9.0 -27.0H893.0C908.0 -27.0 920.0 -24.0 922.0 -12.0C872.0 33.0 787.0 98.0 787.0 98.0L711.0 0.0ZM348.0 158.0C302.0 15.0 192.0 -168.0 -26.0 -292.0L-20.0 -301.0C256.0 -220.0 417.0 -72.0 492.0 79.0C518.0 76.0 531.0 84.0 535.0 96.0ZM559.0 2.0 546.0 -11.0C610.0 -139.0 710.0 -244.0 837.0 -295.0C842.0 -239.0 879.0 -190.0 942.0 -152.0L943.0 -136.0C813.0 -131.0 638.0 -94.0 559.0 2.0Z"/></g>
<g fill="red" transform="translate(1300 400) scale(0.1 -0.1)"><path d="M0.0 0.0 9.0 -30.0H869.0C883.0 -30.0 893.0 -25.0 896.0 -14.0C864.0 14.0 815.0 53.0 815.0 53.0L773.0 0.0ZM402.0 151.0C335.0 3.0 203.0 -156.0 -8.0 -247.0L2.0 -260.0C232.0 -178.0 368.0 -32.0 441.0 106.0C460.0 104.0 474.0 109.0 479.0 122.0ZM569.0 0.0 550.0 -13.0C615.0 -114.0 733.0 -191.0 855.0 -225.0C861.0 -205.0 882.0 -195.0 907.0 -193.0L909.0 -182.0C786.0 -158.0 631.0 -91.0 569.0 0.0Z"/></g>
<g fill="black" opacity=".8" transform="translate(1300 400) scale(0.1 -0.1)"><path d="M0.0 0.0 9.0 -29.0H868.0C882.0 -29.0 891.0 -24.0 895.0 -14.0C863.0 15.0 815.0 52.0 815.0 52.0L771.0 0.0ZM407.0 148.0C339.0 1.0 201.0 -160.0 -8.0 -248.0L2.0 -262.0C229.0 -180.0 370.0 -34.0 445.0 101.0C462.0 100.0 476.0 104.0 483.0 118.0ZM563.0 1.0 544.0 -11.0C614.0 -117.0 741.0 -198.0 857.0 -235.0C863.0 -215.0 883.0 -204.0 907.0 -202.0L911.0 -192.0C795.0 -166.0 629.0 -93.0 563.0 1.0Z"/></g>
<g fill="red" transform="translate(1400 400) scale(0.1 -0.1)"><path d="M0.0 0.0 8.0 -28.0H891.0C906.0 -28.0 918.0 -23.0 920.0 -12.0C870.0 34.0 784.0 102.0 784.0 102.0L708.0 0.0ZM359.0 165.0C310.0 33.0 203.0 -133.0 -13.0 -250.0L-8.0 -259.0C269.0 -184.0 427.0 -50.0 503.0 84.0C527.0 81.0 541.0 89.0 545.0 102.0ZM555.0 0.0 542.0 -12.0C608.0 -129.0 710.0 -223.0 840.0 -265.0C844.0 -206.0 881.0 -157.0 943.0 -116.0L944.0 -101.0C811.0 -106.0 634.0 -84.0 555.0 0.0Z"/></g>
<g fill="black" opacity=".8" transform="translate(1400 400) scale(0.1 -0.1)"><path d="M0.0 0.0 8.0 -27.0H893.0C907.0 -27.0 919.0 -23.0 920.0 -12.0C872.0 32.0 789.0 96.0 789.0 96.0L716.0 0.0ZM356.0 166.0C312.0 34.0 208.0 -132.0 -16.0 -245.0L-10.0 -255.0C272.0 -182.0 426.0 -48.0 497.0 90.0C522.0 87.0 535.0 95.0 538.0 107.0ZM559.0 1.0 546.0 -12.0C611.0 -125.0 714.0 -210.0 834.0 -252.0C839.0 -198.0 873.0 -151.0 933.0 -114.0L934.0 -98.0C815.0 -102.0 638.0 -80.0 559.0 1.0Z"/></g>
<g fill="red" transform="translate(1500 400) scale(0.1 -0.1)"><path d="M0.0 0.0 9.0 -30.0H871.0C885.0 -30.0 894.0 -25.0 897.0 -14.0C865.0 16.0 816.0 54.0 816.0 54.0L773.0 0.0ZM399.0 157.0C337.0 -22.0 207.0 -211.0 -14.0 -317.0L-5.0 -331.0C238.0 -232.0 372.0 -55.0 442.0 112.0C460.0 111.0 474.0 116.0 480.0 130.0ZM541.0 0.0 521.0 -13.0C590.0 -148.0 720.0 -259.0 860.0 -316.0C867.0 -296.0 888.0 -286.0 913.0 -284.0L916.0 -273.0C774.0 -228.0 606.0 -124.0 541.0 0.0Z"/></g>
<g fill="black" opacity=".8" transform="translate(1500 400) scale(0.1 -0.1)"><path d="M0.0 0.0 9.0 -30.0H869.0C884.0 -30.0 893.0 -25.0 897.0 -14.0C864.0 16.0 814.0 55.0 814.0 55.0L768.0 0.0ZM405.0 158.0C340.0 -24.0 208.0 -213.0 -13.0 -319.0L-2.0 -334.0C238.0 -234.0 372.0 -59.0 445.0 111.0C464.0 109.0 478.0 114.0 484.0 129.0ZM549.0 -2.0 530.0 -13.0C594.0 -141.0 717.0 -256.0 860.0 -315.0C867.0 -294.0 888.0 -284.0 913.0 -282.0L917.0 -271.0C771.0 -222.0 611.0 -119.0 549.0 -2.0Z"/></g>
<g fill="red" transform="translate(1600 400) scale(0.1 -0.1)"><path d="M0.0 0.0 8.0 -28.0H891.0C906.0 -28.0 918.0 -23.0 920.0 -12.0C870.0 34.0 784.0 102.0 784.0 102.0L708.0 0.0ZM359.0 173.0C314.0 11.0 209.0 -188.0 -20.0 -325.0L-14.0 -334.0C279.0 -239.0 429.0 -71.0 501.0 99.0C525.0 97.0 538.0 105.0 542.0 119.0ZM555.0 0.0 541.0 -12.0C602.0 -149.0 702.0 -266.0 832.0 -325.0C837.0 -268.0 874.0 -221.0 936.0 -184.0L937.0 -169.0C801.0 -155.0 630.0 -106.0 555.0 0.0Z"/></g>
<g fill="black" opacity=".8" transform="translate(1600 400) scale(0.1 -0.1)"><path d="M0.0 0.0 9.0 -28.0H893.0C908.0 -28.0 921.0 -24.0 922.0 -12.0C871.0 33.0 785.0 100.0 785.0 100.0L708.0 0.0ZM350.0 177.0C308.0 10.0 209.0 -185.0 -23.0 -319.0L-16.0 -329.0C279.0 -239.0 427.0 -75.0 497.0 100.0C523.0 98.0 536.0 106.0 540.0 119.0ZM550.0 -1.0 536.0 -13.0C596.0 -150.0 694.0 -271.0 833.0 -331.0C838.0 -271.0 876.0 -222.0 941.0 -185.0L942.0 -169.0C796.0 -156.0 624.0 -107.0 550.0 -1.0Z"/></g>
<g fill="red" transform="translate(100 500) scale(0.1 -0.1)"><path d="M0.0 0.0 9.0 -29.0H859.0C873.0 -29.0 882.0 -25.0 885.0 -14.0C852.0 14.0 802.0 49.0 802.0 49.0L758.0 0.0ZM383.0 113.0C313.0 -25.0 179.0 -179.0 -11.0 -268.0L-1.0 -281.0C205.0 -199.0 341.0 -58.0 418.0 68.0C437.0 66.0 450.0 71.0 456.0 83.0ZM538.0 0.0 519.0 -14.0C592.0 -123.0 724.0 -210.0 859.0 -252.0C866.0 -231.0 887.0 -222.0 912.0 -221.0L915.0 -209.0C779.0 -178.0 607.0 -99.0 538.0 0.0Z"/></g>
<g fill="black" opacity=".8" transform="translate(100 500) scale(0.1 -0.1)"><path d="M0.0 0.0 9.0 -30.0H865.0C879.0 -30.0 889.0 -25.0 893.0 -14.0C860.0 16.0 810.0 54.0 810.0 54.0L765.0 0.0ZM380.0 117.0C316.0 -23.0 180.0 -180.0 -13.0 -267.0L-2.0 -281.0C210.0 -200.0 350.0 -58.0 421.0 70.0C439.0 69.0 453.0 74.0 459.0 88.0ZM542.0 4.0 523.0 -9.0C596.0 -129.0 732.0 -216.0 862.0 -254.0C868.0 -234.0 889.0 -222.0 914.0 -220.0L918.0 -209.0C787.0 -182.0 612.0 -104.0 542.0 4.0Z"/></g>
<g fill="red" transform="translate(200 500) scale(0.1 -0.1)"><path d="M0.0 0.0 8.0 -28.0H898.0C913.0 -28.0 924.0 -23.0 927.0 -12.0C874.0 33.0 786.0 100.0 786.0 100.0L708.0 0.0ZM328.0 142.0C286.0 11.0 189.0 -151.0 -21.0 -264.0L-16.0 -274.0C257.0 -200.0 406.0 -70.0 475.0 65.0C499.0 62.0 512.0 70.0 517.0 84.0ZM543.0 0.0 529.0 -13.0C601.0 -122.0 714.0 -216.0 848.0 -260.0C853.0 -209.0 887.0 -168.0 943.0 -135.0L945.0 -120.0C810.0 -116.0 625.0 -80.0 543.0 0.0Z"/></g>
<g fill="black" opacity=".8" transform="translate(200 500) scale(0.1 -0.1)"><path d="M0.0 0.0 9.0 -28.0H888.0C903.0 -28.0 915.0 -24.0 916.0 -12.0C867.0 32.0 784.0 96.0 784.0 96.0L709.0 0.0ZM324.0 135.0C286.0 13.0 186.0 -152.0 -24.0 -262.0L-17.0 -272.0C252.0 -201.0 405.0 -70.0 474.0 61.0C499.0 59.0 511.0 68.0 515.0 81.0ZM540.0 5.0 526.0 -8.0C595.0 -135.0 704.0 -223.0 837.0 -267.0C842.0 -211.0 878.0 -162.0 940.0 -124.0L941.0 -108.0C809.0 -111.0 623.0 -88.0 540.0 5.0Z"/></g>
<g fill="red" transform="translate(300 500) scale(0.1 -0.1)"><path d="M0.0 0.0 9.0 -30.0H831.0C845.0 -30.0 855.0 -25.0 857.0 -14.0C827.0 14.0 781.0 49.0 781.0 49.0L740.0 0.0ZM630.0 182.0C497.0 25.0 234.0 -145.0 -20.0 -241.0L-11.0 -257.0C259.0 -171.0 518.0 -13.0 655.0 131.0C677.0 121.0 686.0 122.0 695.0 132.0ZM518.0 329.0 499.0 315.0C571.0 214.0 699.0 133.0 830.0 95.0C836.0 115.0 858.0 125.0 884.0 127.0L886.0 138.0C755.0 165.0 585.0 236.0 518.0 329.0Z"/></g>
<g fill="black" opacity=".8" transform="translate(300 500) scale(0.1 -0.1)"><path d="M0.0 0.0 8.0 -29.0H841.0C855.0 -29.0 864.0 -24.0 867.0 -14.0C837.0 15.0 790.0 51.0 790.0 51.0L747.0 0.0ZM631.0 174.0C509.0 29.0 245.0 -147.0 -20.0 -240.0L-12.0 -257.0C270.0 -171.0 528.0 -8.0 659.0 123.0C679.0 116.0 691.0 116.0 699.0 130.0ZM521.0 327.0 503.0 314.0C578.0 213.0 718.0 123.0 830.0 82.0C836.0 101.0 858.0 112.0 883.0 114.0L886.0 125.0C775.0 156.0 593.0 234.0 521.0 327.0Z"/></g>
<g fill="red" transform="translate(400 500) scale(0.1 -0.1)"><path d="M0.0 0.0 8.0 -28.0H885.0C899.0 -28.0 910.0 -23.0 913.0 -12.0C867.0 27.0 793.0 81.0 793.0 81.0L727.0 0.0ZM627.0 198.0C503.0 46.0 249.0 -134.0 -16.0 -236.0L-11.0 -250.0C294.0 -189.0 562.0 -49.0 717.0 86.0C739.0 78.0 751.0 82.0 759.0 91.0ZM540.0 329.0 526.0 315.0C599.0 216.0 713.0 132.0 844.0 96.0C849.0 148.0 882.0 189.0 938.0 223.0L940.0 238.0C808.0 235.0 622.0 258.0 540.0 329.0Z"/></g>
<g fill="black" opacity=".8" transform="translate(400 500) scale(0.1 -0.1)"><path d="M0.0 0.0 8.0 -26.0H881.0C895.0 -26.0 906.0 -23.0 909.0 -12.0C860.0 30.0 781.0 86.0 781.0 86.0L709.0 0.0ZM610.0 186.0C500.0 57.0 255.0 -130.0 -29.0 -234.0L-25.0 -248.0C298.0 -186.0 567.0 -40.0 710.0 85.0C736.0 78.0 749.0 83.0 755.0 94.0ZM533.0 334.0 519.0 319.0C596.0 228.0 713.0 143.0 830.0 100.0C835.0 149.0 867.0 193.0 926.0 232.0L927.0 247.0C815.0 246.0 622.0 267.0 533.0 334.0Z"/></g>
<g fill="red" transform="translate(500 500) scale(0.1 -0.1)"><path d="M0.0 0.0 8.0 -29.0H583.0C597.0 -29.0 606.0 -24.0 609.0 -14.0C581.0 13.0 538.0 48.0 538.0 48.0L499.0 0.0ZM113.0 -202.0C102.0 -380.0 60.0 -484.0 -308.0 -568.0L-301.0 -590.0C98.0 -512.0 141.0 -403.0 159.0 -237.0C181.0 -235.0 192.0 -224.0 194.0 -212.0ZM174.0 -316.0 156.0 -326.0C231.0 -473.0 375.0 -549.0 575.0 -590.0C581.0 -567.0 596.0 -552.0 617.0 -549.0L618.0 -539.0C414.0 -513.0 250.0 -445.0 174.0 -316.0Z"/></g>
<g fill="black" opacity=".8" transform="translate(500 500) scale(0.1 -0.1)"><path d="M0.0 0.0 7.0 -27.0H586.0C599.0 -27.0 608.0 -23.0 612.0 -14.0C584.0 13.0 541.0 48.0 541.0 48.0L502.0 0.0ZM108.0 -203.0C99.0 -385.0 53.0 -489.0 -309.0 -569.0L-303.0 -590.0C89.0 -516.0 136.0 -409.0 154.0 -237.0C173.0 -234.0 185.0 -224.0 187.0 -211.0ZM170.0 -317.0 153.0 -327.0C226.0 -475.0 373.0 -552.0 572.0 -593.0C576.0 -571.0 592.0 -556.0 611.0 -553.0L613.0 -544.0C411.0 -516.0 245.0 -448.0 170.0 -317.0Z"/></g>
<g fill="red" transform="translate(600 500) scale(0.1 -0.1)"><path d="M0.0 0.0 8.0 -28.0H625.0C639.0 -28.0 650.0 -23.0 652.0 -12.0C614.0 24.0 550.0 75.0 550.0 75.0L493.0 0.0ZM52.0 -198.0C45.0 -375.0 21.0 -494.0 -318.0 -595.0L-312.0 -610.0C143.0 -544.0 180.0 -420.0 202.0 -238.0C226.0 -236.0 236.0 -225.0 238.0 -211.0ZM184.0 -317.0 174.0 -323.0C234.0 -499.0 352.0 -567.0 528.0 -611.0C540.0 -541.0 573.0 -492.0 628.0 -473.0V-461.0C445.0 -459.0 261.0 -434.0 184.0 -317.0Z"/></g>
<g fill="black" opacity=".8" transform="translate(600 500) scale(0.1 -0.1)"><path d="M0.0 0.0 7.0 -26.0H626.0C640.0 -26.0 651.0 -22.0 652.0 -11.0C611.0 27.0 543.0 80.0 543.0 80.0L481.0 0.0ZM58.0 -198.0C51.0 -379.0 27.0 -493.0 -314.0 -587.0L-308.0 -601.0C146.0 -543.0 186.0 -426.0 209.0 -235.0C233.0 -232.0 242.0 -222.0 242.0 -207.0ZM190.0 -314.0 180.0 -322.0C239.0 -499.0 355.0 -561.0 534.0 -601.0C545.0 -536.0 576.0 -489.0 630.0 -471.0V-460.0C447.0 -459.0 267.0 -438.0 190.0 -314.0Z"/></g>
<g fill="red" transform="translate(700 500) scale(0.1 -0.1)"><path d="M0.0 0.0 9.0 -29.0H869.0C883.0 -29.0 893.0 -24.0 896.0 -14.0C864.0 15.0 815.0 53.0 815.0 53.0L773.0 0.0ZM408.0 123.0C340.0 -8.0 206.0 -143.0 -13.0 -218.0L-4.0 -233.0C232.0 -163.0 368.0 -41.0 443.0 79.0C460.0 77.0 474.0 82.0 480.0 94.0ZM550.0 0.0 531.0 -14.0C604.0 -104.0 730.0 -179.0 857.0 -216.0C864.0 -195.0 885.0 -186.0 910.0 -185.0L913.0 -173.0C788.0 -148.0 618.0 -81.0 550.0 0.0Z"/></g>
<g fill="black" opacity=".8" transform="translate(700 500) scale(0.1 -0.1)"><path d="M0.0 0.0 9.0 -28.0H866.0C880.0 -28.0 889.0 -24.0 893.0 -14.0C861.0 15.0 814.0 51.0 814.0 51.0L772.0 0.0ZM412.0 125.0C345.0 -6.0 204.0 -145.0 -12.0 -221.0L-3.0 -237.0C232.0 -165.0 373.0 -40.0 449.0 80.0C466.0 78.0 479.0 82.0 485.0 95.0ZM558.0 7.0 540.0 -5.0C611.0 -111.0 739.0 -183.0 854.0 -213.0C860.0 -195.0 880.0 -183.0 902.0 -181.0L906.0 -170.0C791.0 -152.0 626.0 -87.0 558.0 7.0Z"/></g>
<g fill="red" transform="translate(800 500) scale(0.1 -0.1)"><path d="M0.0 0.0 8.0 -28.0H891.0C906.0 -28.0 918.0 -23.0 920.0 -12.0C870.0 34.0 784.0 102.0 784.0 102.0L708.0 0.0ZM362.0 144.0C317.0 22.0 211.0 -123.0 -20.0 -223.0L-16.0 -232.0C276.0 -172.0 434.0 -58.0 506.0 65.0C530.0 62.0 544.0 70.0 548.0 83.0ZM570.0 0.0 557.0 -14.0C619.0 -100.0 715.0 -189.0 827.0 -233.0C833.0 -179.0 867.0 -135.0 925.0 -98.0L927.0 -83.0C814.0 -81.0 642.0 -59.0 570.0 0.0Z"/></g>
<g fill="black" opacity=".8" transform="translate(800 500) scale(0.1 -0.1)"><path d="M0.0 0.0 8.0 -26.0H892.0C906.0 -26.0 918.0 -23.0 919.0 -12.0C872.0 31.0 792.0 94.0 792.0 94.0L719.0 0.0ZM364.0 141.0C318.0 24.0 210.0 -122.0 -20.0 -221.0L-15.0 -231.0C273.0 -171.0 427.0 -55.0 499.0 66.0C524.0 63.0 537.0 71.0 540.0 83.0ZM556.0 5.0 544.0 -7.0C610.0 -121.0 713.0 -192.0 833.0 -230.0C838.0 -178.0 871.0 -132.0 928.0 -97.0L929.0 -82.0C813.0 -89.0 636.0 -73.0 556.0 5.0Z"/></g>
<g fill="red" transform="translate(900 500) scale(0.1 -0.1)"><path d="M0.0 0.0 9.0 -30.0H831.0C844.0 -30.0 853.0 -25.0 856.0 -14.0C827.0 13.0 780.0 50.0 780.0 50.0L740.0 0.0ZM385.0 356.0C305.0 242.0 163.0 114.0 -27.0 40.0L-18.0 26.0C186.0 93.0 331.0 208.0 416.0 311.0C434.0 308.0 447.0 312.0 454.0 323.0ZM563.0 250.0 544.0 236.0C615.0 152.0 735.0 79.0 856.0 43.0C863.0 63.0 884.0 72.0 909.0 72.0L912.0 83.0C793.0 110.0 629.0 175.0 563.0 250.0Z"/></g>
<g fill="black" opacity=".8" transform="translate(900 500) scale(0.1 -0.1)"><path d="M0.0 0.0 8.0 -28.0H840.0C853.0 -28.0 862.0 -24.0 865.0 -14.0C836.0 14.0 788.0 50.0 788.0 50.0L746.0 0.0ZM369.0 352.0C300.0 238.0 158.0 107.0 -34.0 34.0L-26.0 19.0C185.0 87.0 329.0 204.0 406.0 308.0C422.0 307.0 435.0 311.0 441.0 323.0ZM554.0 252.0 537.0 239.0C611.0 133.0 741.0 68.0 850.0 43.0C856.0 61.0 875.0 73.0 897.0 74.0L902.0 84.0C794.0 99.0 623.0 157.0 554.0 252.0Z"/></g>
<g fill="red" transform="translate(1000 500) scale(0.1 -0.1)"><path d="M0.0 0.0 8.0 -28.0H855.0C870.0 -28.0 881.0 -23.0 883.0 -12.0C837.0 27.0 761.0 83.0 761.0 83.0L694.0 0.0ZM299.0 384.0C259.0 273.0 164.0 137.0 -43.0 44.0L-38.0 34.0C228.0 91.0 377.0 195.0 445.0 306.0C468.0 303.0 482.0 311.0 486.0 324.0ZM545.0 247.0 531.0 234.0C600.0 141.0 705.0 62.0 828.0 28.0C832.0 80.0 866.0 122.0 922.0 158.0L923.0 173.0C799.0 166.0 622.0 183.0 545.0 247.0Z"/></g>
<g fill="black" opacity=".8" transform="translate(1000 500) scale(0.1 -0.1)"><path d="M0.0 0.0 8.0 -25.0H851.0C865.0 -25.0 876.0 -22.0 877.0 -11.0C830.0 30.0 749.0 91.0 749.0 91.0L678.0 0.0ZM314.0 378.0C273.0 282.0 172.0 145.0 -37.0 49.0L-32.0 39.0C232.0 98.0 387.0 205.0 457.0 307.0C479.0 305.0 490.0 313.0 494.0 324.0ZM550.0 259.0 538.0 246.0C606.0 133.0 712.0 68.0 830.0 34.0C835.0 81.0 867.0 125.0 922.0 160.0V175.0C810.0 166.0 632.0 177.0 550.0 259.0Z"/></g>
<g fill="red" transform="translate(1100 500) scale(0.1 -0.1)"><path d="M0.0 0.0 7.0 -30.0H641.0C655.0 -30.0 664.0 -25.0 666.0 -14.0C638.0 14.0 591.0 50.0 591.0 50.0L550.0 0.0ZM286.0 288.0C286.0 -99.0 301.0 -402.0 -42.0 -603.0L-28.0 -622.0C339.0 -423.0 327.0 -118.0 331.0 251.0C356.0 255.0 364.0 265.0 367.0 279.0ZM327.0 0.0 307.0 -4.0C327.0 -216.0 387.0 -462.0 616.0 -617.0C625.0 -590.0 642.0 -586.0 666.0 -584.0L669.0 -573.0C422.0 -426.0 350.0 -206.0 327.0 0.0Z"/></g>
<g fill="black" opacity=".8" transform="translate(1100 500) scale(0.1 -0.1)"><path d="M0.0 0.0 6.0 -25.0H630.0C642.0 -25.0 649.0 -21.0 652.0 -12.0C626.0 14.0 582.0 47.0 582.0 47.0L543.0 0.0ZM276.0 290.0C273.0 -97.0 281.0 -409.0 -41.0 -602.0L-29.0 -617.0C313.0 -426.0 309.0 -116.0 318.0 257.0C338.0 260.0 345.0 267.0 348.0 282.0ZM321.0 -16.0 304.0 -17.0C312.0 -203.0 359.0 -454.0 610.0 -618.0C617.0 -594.0 634.0 -593.0 657.0 -591.0L661.0 -582.0C393.0 -425.0 334.0 -200.0 321.0 -16.0Z"/></g>
<g fill="red" transform="translate(1200 500) scale(0.1 -0.1)"><path d="M0.0 0.0 8.0 -28.0H627.0C641.0 -28.0 652.0 -23.0 655.0 -12.0C609.0 33.0 527.0 101.0 527.0 101.0L456.0 0.0ZM194.0 304.0C194.0 -64.0 215.0 -374.0 -60.0 -634.0L-51.0 -646.0C356.0 -439.0 342.0 -114.0 349.0 258.0C373.0 262.0 383.0 271.0 386.0 287.0ZM336.0 -1.0 322.0 -3.0C334.0 -249.0 371.0 -522.0 533.0 -647.0C544.0 -561.0 586.0 -509.0 657.0 -492.0L658.0 -480.0C442.0 -390.0 355.0 -221.0 336.0 -1.0Z"/></g>
<g fill="black" opacity=".8" transform="translate(1200 500) scale(0.1 -0.1)"><path d="M0.0 0.0 7.0 -23.0H641.0C653.0 -23.0 664.0 -20.0 666.0 -10.0C618.0 31.0 539.0 90.0 539.0 90.0L468.0 0.0ZM221.0 307.0C220.0 -79.0 239.0 -386.0 -50.0 -625.0L-42.0 -635.0C353.0 -448.0 345.0 -135.0 357.0 264.0C379.0 268.0 387.0 275.0 389.0 289.0ZM349.0 -11.0 335.0 -13.0C340.0 -219.0 372.0 -498.0 565.0 -630.0C571.0 -555.0 610.0 -512.0 682.0 -498.0L683.0 -486.0C435.0 -388.0 359.0 -210.0 349.0 -11.0Z"/></g>
<g fill="red" transform="translate(1300 500) scale(0.1 -0.1)"><path d="M0.0 0.0 7.0 -30.0H636.0C650.0 -30.0 659.0 -25.0 661.0 -14.0C631.0 15.0 581.0 54.0 581.0 54.0L536.0 0.0ZM283.0 420.0C211.0 258.0 72.0 78.0 -133.0 -25.0L-124.0 -38.0C102.0 58.0 244.0 223.0 323.0 374.0C341.0 372.0 355.0 377.0 361.0 390.0ZM445.0 263.0 426.0 249.0C494.0 140.0 617.0 43.0 745.0 -8.0C752.0 12.0 773.0 21.0 798.0 22.0L801.0 34.0C673.0 74.0 509.0 162.0 445.0 263.0Z"/></g>
<g fill="black" opacity=".8" transform="translate(1300 500) scale(0.1 -0.1)"><path d="M0.0 0.0 7.0 -29.0H637.0C651.0 -29.0 660.0 -25.0 663.0 -14.0C634.0 14.0 586.0 52.0 586.0 52.0L542.0 0.0ZM289.0 420.0C218.0 261.0 72.0 84.0 -133.0 -15.0L-123.0 -29.0C101.0 64.0 250.0 225.0 329.0 373.0C346.0 372.0 360.0 376.0 366.0 390.0ZM444.0 270.0 426.0 258.0C497.0 136.0 629.0 39.0 747.0 -6.0C753.0 14.0 774.0 25.0 797.0 26.0L802.0 37.0C685.0 72.0 512.0 160.0 444.0 270.0Z"/></g>
<g fill="red" transform="translate(1400 500) scale(0.1 -0.1)"><path d="M0.0 0.0 8.0 -28.0H651.0C665.0 -28.0 676.0 -23.0 679.0 -12.0C633.0 27.0 559.0 81.0 559.0 81.0L493.0 0.0ZM242.0 452.0C194.0 309.0 87.0 135.0 -137.0 15.0L-131.0 6.0C152.0 86.0 307.0 229.0 381.0 376.0C404.0 373.0 418.0 381.0 422.0 394.0ZM451.0 290.0 437.0 278.0C501.0 156.0 603.0 55.0 731.0 6.0C736.0 62.0 771.0 106.0 831.0 143.0L832.0 158.0C699.0 163.0 527.0 198.0 451.0 290.0Z"/></g>
<g fill="black" opacity=".8" transform="translate(1400 500) scale(0.1 -0.1)"><path d="M0.0 0.0 8.0 -27.0H649.0C663.0 -27.0 674.0 -24.0 676.0 -12.0C631.0 28.0 556.0 86.0 556.0 86.0L488.0 0.0ZM233.0 452.0C190.0 312.0 85.0 129.0 -137.0 5.0L-130.0 -4.0C150.0 78.0 305.0 228.0 378.0 376.0C402.0 374.0 413.0 382.0 417.0 394.0ZM444.0 291.0 430.0 278.0C497.0 146.0 602.0 52.0 725.0 4.0C730.0 58.0 765.0 106.0 827.0 143.0L828.0 158.0C705.0 160.0 526.0 192.0 444.0 291.0Z"/></g>
<g fill="red" transform="translate(1500 500) scale(0.1 -0.1)"><path d="M0.0 0.0 9.0 -29.0H858.0C872.0 -29.0 882.0 -24.0 884.0 -13.0C855.0 14.0 808.0 51.0 808.0 51.0L768.0 0.0ZM598.0 -27.0C578.0 -73.0 546.0 -138.0 523.0 -179.0H546.0C578.0 -145.0 616.0 -102.0 641.0 -69.0C662.0 -70.0 675.0 -62.0 680.0 -50.0ZM457.0 -434.0 440.0 -441.0C478.0 -528.0 565.0 -642.0 850.0 -714.0C856.0 -690.0 874.0 -687.0 898.0 -685.0L900.0 -673.0C608.0 -610.0 500.0 -514.0 457.0 -434.0Z"/></g>
<g fill="black" opacity=".8" transform="translate(1500 500) scale(0.1 -0.1)"><path d="M0.0 0.0 9.0 -27.0H861.0C875.0 -27.0 884.0 -24.0 887.0 -13.0C858.0 14.0 812.0 51.0 812.0 51.0L771.0 0.0ZM597.0 -28.0C580.0 -75.0 544.0 -141.0 523.0 -179.0H546.0C577.0 -147.0 617.0 -103.0 641.0 -70.0C660.0 -71.0 674.0 -63.0 679.0 -49.0ZM457.0 -434.0 441.0 -439.0C479.0 -531.0 570.0 -647.0 849.0 -718.0C854.0 -695.0 872.0 -690.0 895.0 -689.0L897.0 -678.0C612.0 -614.0 501.0 -518.0 457.0 -434.0Z"/></g>
<g fill="red" transform="translate(1600 500) scale(0.1 -0.1)"><path d="M0.0 0.0 8.0 -28.0H872.0C886.0 -28.0 896.0 -23.0 899.0 -12.0C859.0 23.0 794.0 72.0 794.0 72.0L737.0 0.0ZM535.0 -8.0C526.0 -57.0 507.0 -129.0 489.0 -175.0H501.0C557.0 -146.0 622.0 -102.0 660.0 -69.0C683.0 -70.0 694.0 -61.0 698.0 -49.0ZM488.0 -440.0 476.0 -443.0C505.0 -541.0 598.0 -682.0 802.0 -745.0C806.0 -660.0 844.0 -626.0 917.0 -609.0V-596.0C666.0 -568.0 523.0 -507.0 488.0 -440.0Z"/></g>
<g fill="black" opacity=".8" transform="translate(1600 500) scale(0.1 -0.1)"><path d="M0.0 0.0 8.0 -26.0H872.0C885.0 -26.0 895.0 -23.0 897.0 -12.0C857.0 24.0 790.0 74.0 790.0 74.0L731.0 0.0ZM534.0 -10.0C529.0 -56.0 511.0 -128.0 488.0 -171.0H500.0C558.0 -146.0 624.0 -103.0 660.0 -67.0C684.0 -67.0 694.0 -59.0 697.0 -47.0ZM487.0 -436.0 475.0 -441.0C505.0 -542.0 599.0 -678.0 801.0 -739.0C805.0 -658.0 843.0 -623.0 915.0 -606.0L914.0 -593.0C668.0 -567.0 524.0 -509.0 487.0 -436.0Z"/></g>
<g fill="red" transform="translate(100 600) scale(0.1 -0.1)"><path d="M0.0 0.0 9.0 -30.0H881.0C895.0 -30.0 905.0 -25.0 908.0 -14.0C877.0 14.0 829.0 52.0 829.0 52.0L786.0 0.0ZM412.0 124.0C402.0 -72.0 362.0 -185.0 -7.0 -276.0L2.0 -297.0C401.0 -213.0 441.0 -95.0 458.0 88.0C480.0 90.0 491.0 101.0 493.0 114.0ZM476.0 0.0 458.0 -10.0C531.0 -169.0 674.0 -253.0 877.0 -298.0C884.0 -276.0 899.0 -262.0 919.0 -259.0L920.0 -249.0C713.0 -218.0 550.0 -141.0 476.0 0.0Z"/></g>
<g fill="black" opacity=".8" transform="translate(100 600) scale(0.1 -0.1)"><path d="M0.0 0.0 9.0 -29.0H887.0C901.0 -29.0 911.0 -25.0 914.0 -15.0C884.0 15.0 836.0 53.0 836.0 53.0L793.0 0.0ZM420.0 129.0C406.0 -71.0 364.0 -186.0 -1.0 -274.0L9.0 -295.0C400.0 -212.0 443.0 -95.0 465.0 90.0C486.0 92.0 497.0 102.0 500.0 116.0ZM482.0 -5.0 465.0 -14.0C532.0 -161.0 665.0 -250.0 882.0 -297.0C888.0 -275.0 904.0 -261.0 925.0 -258.0L927.0 -248.0C707.0 -215.0 551.0 -136.0 482.0 -5.0Z"/></g>
<g fill="red" transform="translate(200 600) scale(0.1 -0.1)"><path d="M0.0 0.0 8.0 -28.0H919.0C933.0 -28.0 945.0 -23.0 947.0 -12.0C899.0 31.0 817.0 93.0 817.0 93.0L746.0 0.0ZM367.0 131.0C359.0 -50.0 333.0 -181.0 -3.0 -296.0L3.0 -311.0C457.0 -234.0 497.0 -97.0 521.0 90.0C544.0 93.0 554.0 103.0 556.0 118.0ZM508.0 0.0 498.0 -6.0C555.0 -190.0 670.0 -262.0 843.0 -310.0C856.0 -240.0 890.0 -192.0 945.0 -173.0V-162.0C764.0 -155.0 582.0 -126.0 508.0 0.0Z"/></g>
<g fill="black" opacity=".8" transform="translate(200 600) scale(0.1 -0.1)"><path d="M0.0 0.0 8.0 -27.0H911.0C926.0 -27.0 937.0 -23.0 939.0 -12.0C891.0 31.0 811.0 92.0 811.0 92.0L740.0 0.0ZM363.0 136.0C353.0 -60.0 330.0 -187.0 -11.0 -291.0L-5.0 -305.0C447.0 -240.0 488.0 -109.0 514.0 90.0C539.0 93.0 548.0 102.0 550.0 116.0ZM507.0 -5.0 497.0 -12.0C550.0 -181.0 661.0 -259.0 845.0 -308.0C857.0 -240.0 891.0 -194.0 949.0 -176.0L948.0 -164.0C753.0 -156.0 575.0 -123.0 507.0 -5.0Z"/></g>
<g fill="red" transform="translate(300 600) scale(0.1 -0.1)"><path d="M0.0 0.0 8.0 -29.0H528.0C542.0 -29.0 551.0 -24.0 553.0 -13.0C526.0 13.0 483.0 48.0 483.0 48.0L445.0 0.0ZM433.0 391.0C344.0 357.0 175.0 316.0 34.0 299.0L39.0 280.0C184.0 287.0 343.0 313.0 447.0 338.0C467.0 329.0 484.0 329.0 492.0 337.0ZM698.0 -72.0 678.0 -78.0C709.0 -270.0 769.0 -424.0 893.0 -510.0C900.0 -489.0 915.0 -477.0 933.0 -474.0L934.0 -464.0C807.0 -398.0 731.0 -238.0 698.0 -72.0Z"/></g>
<g fill="black" opacity=".8" transform="translate(300 600) scale(0.1 -0.1)"><path d="M0.0 0.0 7.0 -28.0H528.0C542.0 -28.0 551.0 -24.0 554.0 -13.0C527.0 13.0 484.0 48.0 484.0 48.0L446.0 0.0ZM430.0 390.0C343.0 357.0 173.0 314.0 34.0 300.0L39.0 280.0C181.0 286.0 340.0 312.0 445.0 337.0C463.0 329.0 481.0 328.0 489.0 338.0ZM695.0 -76.0 676.0 -81.0C706.0 -266.0 766.0 -424.0 892.0 -513.0C898.0 -492.0 913.0 -480.0 931.0 -477.0L934.0 -467.0C805.0 -398.0 728.0 -237.0 695.0 -76.0Z"/></g>
<g fill="red" transform="translate(400 600) scale(0.1 -0.1)"><path d="M0.0 0.0 8.0 -28.0H555.0C568.0 -28.0 578.0 -23.0 581.0 -12.0C549.0 25.0 489.0 83.0 489.0 83.0L437.0 0.0ZM389.0 422.0C310.0 372.0 152.0 308.0 23.0 275.0L25.0 263.0C172.0 259.0 342.0 272.0 452.0 294.0C486.0 281.0 510.0 283.0 523.0 293.0ZM724.0 -71.0 714.0 -74.0C729.0 -307.0 760.0 -435.0 864.0 -527.0C880.0 -451.0 918.0 -401.0 969.0 -384.0L970.0 -373.0C849.0 -334.0 756.0 -224.0 724.0 -71.0Z"/></g>
<g fill="black" opacity=".8" transform="translate(400 600) scale(0.1 -0.1)"><path d="M0.0 0.0 9.0 -27.0H557.0C569.0 -27.0 580.0 -24.0 582.0 -11.0C548.0 26.0 486.0 85.0 486.0 85.0L432.0 0.0ZM390.0 422.0C313.0 369.0 156.0 308.0 23.0 278.0L25.0 267.0C172.0 258.0 344.0 268.0 454.0 296.0C488.0 283.0 512.0 285.0 524.0 293.0ZM728.0 -72.0 717.0 -75.0C731.0 -300.0 760.0 -430.0 866.0 -522.0C882.0 -449.0 919.0 -401.0 971.0 -383.0V-372.0C849.0 -333.0 758.0 -222.0 728.0 -72.0Z"/></g>
</svg>
