<?xml version="1.0" encoding="UTF-8"?>
<svg width="1700" height="400" xmlns="http://www.w3.org/2000/svg">
<rect width="100%" height="100%" fill="white"/>
<g fill="green" transform="translate(100 100) scale(0.1 -0.1)"><path d="M-0.0 -0.0 9.0 -23.0H1059.0C1071.0 -23.0 1079.0 -20.0 1081.0 -12.0C1053.0 15.0 1007.0 49.0 1007.0 49.0L968.0 0.0ZM-85.0 337.0 -80.0 313.0H882.0C892.0 313.0 901.0 317.0 903.0 326.0C876.0 349.0 835.0 382.0 835.0 382.0L795.0 337.0ZM487.0 216.0V-93.0H492.0C509.0 -93.0 522.0 -83.0 522.0 -78.0V216.0Z"/></g>
<g fill="green" transform="translate(200 100) scale(0.1 -0.1)"><path d="M0.0 0.0 7.0 -23.0H1092.0C1104.0 -23.0 1115.0 -19.0 1117.0 -10.0C1063.0 31.0 975.0 90.0 975.0 90.0L898.0 0.0ZM-115.0 337.0 -110.0 314.0H910.0C922.0 314.0 932.0 318.0 934.0 327.0C885.0 365.0 805.0 421.0 805.0 421.0L734.0 337.0ZM436.0 203.0V-112.0H461.0C527.0 -112.0 565.0 -92.0 566.0 -87.0V203.0Z"/></g>
<g fill="green" transform="translate(300 100) scale(0.1 -0.1)"><path d="M-0.0 0.0H3.0H548.0C549.0 0.0 550.0 -1.0 550.0 -1.0C545.0 4.0 536.0 9.0 536.0 9.0L529.0 0.0ZM-98.0 93.0 -97.0 92.0H407.0C406.0 92.0 408.0 92.0 408.0 93.0C404.0 94.0 399.0 99.0 399.0 99.0L391.0 93.0ZM236.0 -12.0V260.0C236.0 260.0 237.0 260.0 237.0 262.0V-12.0Z"/></g>
<g fill="green" transform="translate(400 100) scale(0.1 -0.1)"><path d="M0.0 0.0 1.0 -1.0H566.0C566.0 -1.0 569.0 -1.0 569.0 -1.0C552.0 6.0 526.0 15.0 526.0 15.0L505.0 0.0ZM-123.0 87.0V86.0H417.0C418.0 86.0 419.0 86.0 419.0 86.0C407.0 91.0 390.0 99.0 390.0 99.0L374.0 87.0ZM221.0 -29.0V254.0H224.0C230.0 254.0 234.0 251.0 234.0 249.0V-29.0Z"/></g>
<g fill="green" transform="translate(500 100) scale(0.1 -0.1)"><path d="M0.0 0.0 15.0 -49.0H952.0C976.0 -49.0 992.0 -42.0 996.0 -24.0C946.0 23.0 866.0 85.0 866.0 85.0L797.0 0.0ZM-368.0 740.0 -356.0 691.0H517.0C540.0 691.0 557.0 700.0 562.0 718.0C511.0 764.0 433.0 826.0 433.0 826.0L361.0 740.0ZM354.0 489.0V-601.0H364.0C400.0 -601.0 427.0 -579.0 427.0 -571.0V489.0Z"/></g>
<g fill="green" transform="translate(600 100) scale(0.1 -0.1)"><path d="M0.0 0.0 14.0 -47.0H994.0C1018.0 -47.0 1038.0 -39.0 1041.0 -20.0C963.0 55.0 824.0 169.0 824.0 169.0L703.0 0.0ZM-414.0 766.0 -402.0 719.0H544.0C569.0 719.0 588.0 727.0 592.0 746.0C514.0 817.0 381.0 921.0 381.0 921.0L265.0 766.0ZM247.0 493.0V-615.0H293.0C419.0 -615.0 491.0 -569.0 492.0 -556.0V493.0Z"/></g>
<g fill="green" transform="translate(700 100) scale(0.1 -0.1)"><path d="M0.0 0.0 7.0 -25.0H883.0C896.0 -25.0 904.0 -22.0 907.0 -13.0C878.0 15.0 830.0 51.0 830.0 51.0L789.0 0.0ZM256.0 263.0 257.0 236.0H1051.0C1062.0 236.0 1071.0 240.0 1073.0 250.0C1045.0 276.0 1001.0 310.0 1001.0 310.0L961.0 263.0ZM353.0 320.0V-358.0H358.0C378.0 -358.0 392.0 -347.0 392.0 -342.0V320.0Z"/></g>
<g fill="green" transform="translate(800 100) scale(0.1 -0.1)"><path d="M0.0 0.0 6.0 -25.0H904.0C917.0 -25.0 928.0 -21.0 931.0 -11.0C878.0 31.0 791.0 92.0 791.0 92.0L715.0 0.0ZM246.0 275.0 247.0 249.0H1074.0C1087.0 249.0 1097.0 254.0 1100.0 264.0C1048.0 306.0 963.0 367.0 963.0 367.0L887.0 275.0ZM304.0 338.0V-368.0H332.0C407.0 -368.0 451.0 -340.0 451.0 -331.0V338.0Z"/></g>
<g fill="green" transform="translate(900 100) scale(0.1 -0.1)"><path d="M-0.0 -0.0 8.0 -30.0H1075.0C1090.0 -30.0 1100.0 -25.0 1103.0 -15.0C1070.0 16.0 1018.0 56.0 1018.0 56.0L973.0 0.0ZM-171.0 225.0 -168.0 195.0H813.0C825.0 195.0 836.0 200.0 838.0 212.0C806.0 240.0 756.0 280.0 756.0 280.0L709.0 225.0ZM544.0 130.0V-242.0H550.0C572.0 -242.0 588.0 -229.0 588.0 -224.0V130.0Z"/></g>
<g fill="green" transform="translate(1000 100) scale(0.1 -0.1)"><path d="M0.0 0.0 6.0 -29.0H1138.0C1153.0 -29.0 1165.0 -24.0 1168.0 -12.0C1109.0 36.0 1012.0 106.0 1012.0 106.0L927.0 0.0ZM-194.0 226.0 -192.0 197.0H872.0C888.0 197.0 900.0 202.0 902.0 214.0C845.0 261.0 751.0 330.0 751.0 330.0L667.0 226.0ZM510.0 117.0V-260.0H540.0C622.0 -260.0 668.0 -236.0 670.0 -230.0V117.0Z"/></g>
<g fill="green" transform="translate(1100 100) scale(0.1 -0.1)"><path d="M-0.0 -0.0 13.0 -20.0H990.0C1000.0 -20.0 1008.0 -17.0 1009.0 -10.0C985.0 13.0 945.0 43.0 945.0 43.0L911.0 0.0ZM-1.0 354.0 19.0 334.0H832.0C841.0 334.0 848.0 337.0 850.0 345.0C828.0 364.0 791.0 394.0 791.0 394.0L757.0 354.0ZM581.0 326.0V-71.0H585.0C600.0 -71.0 611.0 -62.0 611.0 -57.0V326.0Z"/></g>
<g fill="green" transform="translate(1200 100) scale(0.1 -0.1)"><path d="M0.0 0.0 10.0 -20.0H1063.0C1073.0 -20.0 1083.0 -17.0 1085.0 -9.0C1041.0 27.0 969.0 78.0 969.0 78.0L905.0 0.0ZM-17.0 346.0 2.0 326.0H910.0C920.0 326.0 929.0 329.0 931.0 337.0C892.0 367.0 825.0 413.0 825.0 413.0L767.0 346.0ZM571.0 302.0V-96.0H592.0C647.0 -96.0 679.0 -77.0 680.0 -72.0V302.0Z"/></g>
<g fill="green" transform="translate(1300 100) scale(0.1 -0.1)"><path d="M-0.0 0.0 6.0 -21.0H1041.0C1052.0 -21.0 1061.0 -19.0 1061.0 -11.0C1034.0 16.0 988.0 49.0 988.0 49.0L950.0 0.0ZM-140.0 354.0 -145.0 332.0H939.0C948.0 332.0 956.0 335.0 959.0 344.0C932.0 366.0 891.0 398.0 891.0 398.0L853.0 354.0ZM538.0 133.0V-90.0H543.0C559.0 -90.0 571.0 -80.0 571.0 -77.0V133.0Z"/></g>
<g fill="green" transform="translate(1400 100) scale(0.1 -0.1)"><path d="M0.0 0.0 5.0 -21.0H1020.0C1032.0 -21.0 1042.0 -17.0 1044.0 -9.0C990.0 28.0 904.0 79.0 904.0 79.0L830.0 0.0ZM-170.0 353.0 -175.0 332.0H907.0C917.0 332.0 928.0 336.0 929.0 344.0C879.0 380.0 801.0 430.0 801.0 430.0L731.0 353.0ZM467.0 117.0V-125.0H491.0C554.0 -125.0 590.0 -107.0 590.0 -103.0V117.0Z"/></g>
<g fill="green" transform="translate(1500 100) scale(0.1 -0.1)"><path d="M0.0 -0.0 10.0 -22.0H1091.0C1101.0 -22.0 1108.0 -19.0 1110.0 -11.0C1084.0 13.0 1039.0 47.0 1039.0 47.0L1003.0 0.0ZM-59.0 345.0 -48.0 323.0H885.0C894.0 323.0 903.0 327.0 904.0 335.0C879.0 355.0 841.0 387.0 841.0 387.0L804.0 345.0ZM502.0 226.0V-93.0H507.0C524.0 -93.0 536.0 -84.0 536.0 -78.0V226.0Z"/></g>
<g fill="green" transform="translate(1600 100) scale(0.1 -0.1)"><path d="M0.0 0.0 9.0 -21.0H1079.0C1090.0 -21.0 1101.0 -17.0 1102.0 -9.0C1050.0 32.0 963.0 91.0 963.0 91.0L887.0 0.0ZM-78.0 326.0 -67.0 305.0H878.0C889.0 305.0 898.0 309.0 900.0 317.0C859.0 352.0 787.0 405.0 787.0 405.0L725.0 326.0ZM432.0 197.0V-118.0H455.0C516.0 -118.0 552.0 -99.0 553.0 -94.0V197.0Z"/></g>
<g fill="red" transform="translate(100 200) scale(0.1 -0.1)"><path d="M0.0 0.0 8.0 -29.0H725.0C739.0 -29.0 749.0 -25.0 751.0 -14.0C718.0 17.0 666.0 57.0 666.0 57.0L620.0 0.0ZM-33.0 414.0V384.0H721.0C735.0 384.0 745.0 389.0 748.0 400.0C716.0 429.0 667.0 467.0 667.0 467.0L624.0 414.0ZM331.0 253.0V-402.0H337.0C360.0 -402.0 375.0 -389.0 375.0 -385.0V253.0Z"/></g>
<g fill="black" opacity=".8" transform="translate(100 200) scale(0.1 -0.1)"><path d="M0.0 0.0 6.0 -27.0H726.0C739.0 -27.0 749.0 -25.0 750.0 -14.0C720.0 15.0 669.0 54.0 669.0 54.0L626.0 0.0ZM-42.0 412.0 -44.0 384.0H724.0C736.0 384.0 745.0 388.0 749.0 400.0C718.0 427.0 669.0 464.0 669.0 464.0L627.0 412.0ZM331.0 265.0V-405.0H337.0C359.0 -405.0 374.0 -392.0 374.0 -388.0V265.0Z"/></g>
<g fill="red" transform="translate(200 200) scale(0.1 -0.1)"><path d="M0.0 0.0 8.0 -28.0H689.0C704.0 -28.0 715.0 -23.0 718.0 -12.0C665.0 33.0 576.0 99.0 576.0 99.0L498.0 0.0ZM-51.0 424.0V396.0H676.0C690.0 396.0 702.0 401.0 705.0 412.0C654.0 456.0 569.0 520.0 569.0 520.0L494.0 424.0ZM241.0 259.0V-433.0H270.0C350.0 -433.0 396.0 -404.0 396.0 -396.0V259.0Z"/></g>
<g fill="black" opacity=".8" transform="translate(200 200) scale(0.1 -0.1)"><path d="M0.0 0.0 7.0 -26.0H685.0C700.0 -26.0 711.0 -22.0 714.0 -11.0C662.0 32.0 573.0 95.0 573.0 95.0L497.0 0.0ZM-58.0 421.0 -61.0 395.0H676.0C690.0 395.0 702.0 400.0 704.0 410.0C653.0 453.0 569.0 513.0 569.0 513.0L495.0 421.0ZM244.0 269.0V-430.0H273.0C350.0 -430.0 394.0 -402.0 393.0 -394.0V269.0Z"/></g>
<g fill="red" transform="translate(300 200) scale(0.1 -0.1)"><path d="M0.0 0.0 9.0 -29.0H887.0C901.0 -29.0 910.0 -24.0 913.0 -13.0C880.0 17.0 828.0 58.0 828.0 58.0L782.0 0.0ZM55.0 315.0 63.0 285.0H833.0C847.0 285.0 856.0 290.0 858.0 301.0C827.0 330.0 775.0 371.0 775.0 371.0L729.0 315.0ZM432.0 315.0V-512.0H438.0C460.0 -512.0 476.0 -499.0 476.0 -494.0V315.0Z"/></g>
<g fill="black" opacity=".8" transform="translate(300 200) scale(0.1 -0.1)"><path d="M0.0 0.0 10.0 -34.0H890.0C905.0 -34.0 916.0 -28.0 919.0 -16.0C885.0 16.0 828.0 60.0 828.0 60.0L780.0 0.0ZM57.0 313.0 67.0 280.0H832.0C847.0 280.0 858.0 285.0 860.0 298.0C826.0 329.0 771.0 373.0 771.0 373.0L723.0 313.0ZM431.0 320.0V-508.0H438.0C464.0 -508.0 482.0 -493.0 482.0 -487.0V320.0Z"/></g>
<g fill="red" transform="translate(400 200) scale(0.1 -0.1)"><path d="M0.0 0.0 8.0 -28.0H917.0C932.0 -28.0 944.0 -23.0 947.0 -12.0C891.0 35.0 799.0 104.0 799.0 104.0L717.0 0.0ZM60.0 315.0 68.0 287.0H861.0C876.0 287.0 887.0 292.0 890.0 303.0C836.0 349.0 745.0 417.0 745.0 417.0L665.0 315.0ZM391.0 315.0V-524.0H420.0C500.0 -524.0 546.0 -492.0 546.0 -483.0V315.0Z"/></g>
<g fill="black" opacity=".8" transform="translate(400 200) scale(0.1 -0.1)"><path d="M0.0 0.0 9.0 -32.0H913.0C929.0 -32.0 943.0 -27.0 946.0 -13.0C888.0 39.0 789.0 116.0 789.0 116.0L703.0 0.0ZM54.0 315.0 62.0 282.0H862.0C879.0 282.0 892.0 288.0 895.0 301.0C840.0 351.0 744.0 426.0 744.0 426.0L660.0 315.0ZM378.0 320.0V-526.0H411.0C502.0 -526.0 554.0 -492.0 555.0 -482.0V320.0Z"/></g>
<g fill="red" transform="translate(500 200) scale(0.1 -0.1)"><path d="M0.0 0.0 9.0 -29.0H881.0C895.0 -29.0 905.0 -24.0 907.0 -14.0C876.0 16.0 826.0 54.0 826.0 54.0L782.0 0.0ZM57.0 435.0 65.0 405.0H836.0C849.0 405.0 859.0 410.0 861.0 421.0C831.0 450.0 781.0 489.0 781.0 489.0L736.0 435.0ZM433.0 435.0V-401.0H439.0C461.0 -401.0 477.0 -388.0 477.0 -383.0V435.0Z"/></g>
<g fill="black" opacity=".8" transform="translate(500 200) scale(0.1 -0.1)"><path d="M0.0 0.0 12.0 -31.0H879.0C894.0 -31.0 905.0 -26.0 907.0 -15.0C874.0 16.0 819.0 58.0 819.0 58.0L772.0 0.0ZM62.0 440.0 76.0 409.0H834.0C848.0 409.0 858.0 414.0 861.0 425.0C829.0 455.0 777.0 496.0 777.0 496.0L730.0 440.0ZM432.0 424.0V-397.0H438.0C461.0 -397.0 478.0 -383.0 478.0 -377.0V424.0Z"/></g>
<g fill="red" transform="translate(600 200) scale(0.1 -0.1)"><path d="M0.0 0.0 8.0 -28.0H922.0C937.0 -28.0 949.0 -23.0 952.0 -12.0C897.0 33.0 807.0 99.0 807.0 99.0L727.0 0.0ZM40.0 451.0 48.0 423.0H883.0C898.0 423.0 909.0 428.0 912.0 439.0C857.0 483.0 767.0 547.0 767.0 547.0L687.0 451.0ZM394.0 442.0V-410.0H422.0C499.0 -410.0 544.0 -379.0 544.0 -370.0V442.0Z"/></g>
<g fill="black" opacity=".8" transform="translate(600 200) scale(0.1 -0.1)"><path d="M0.0 0.0 10.0 -30.0H926.0C941.0 -30.0 955.0 -25.0 958.0 -13.0C902.0 36.0 808.0 108.0 808.0 108.0L726.0 0.0ZM47.0 450.0 60.0 420.0H883.0C898.0 420.0 910.0 425.0 914.0 437.0C860.0 483.0 768.0 550.0 768.0 550.0L687.0 450.0ZM386.0 427.0V-415.0H417.0C501.0 -415.0 550.0 -382.0 550.0 -373.0V427.0Z"/></g>
<g fill="red" transform="translate(700 200) scale(0.1 -0.1)"><path d="M0.0 0.0V-30.0H608.0C622.0 -30.0 632.0 -25.0 634.0 -14.0C605.0 14.0 559.0 50.0 559.0 50.0L518.0 0.0ZM4.0 212.0 -10.0 182.0H639.0C652.0 182.0 661.0 187.0 664.0 198.0C633.0 228.0 584.0 265.0 584.0 265.0L541.0 212.0ZM264.0 212.0V-553.0H270.0C293.0 -553.0 309.0 -540.0 309.0 -536.0V212.0Z"/></g>
<g fill="black" opacity=".8" transform="translate(700 200) scale(0.1 -0.1)"><path d="M0.0 0.0 4.0 -31.0H605.0C620.0 -31.0 631.0 -27.0 634.0 -15.0C602.0 15.0 551.0 54.0 551.0 54.0L507.0 0.0ZM16.0 213.0 11.0 181.0H638.0C651.0 181.0 662.0 186.0 664.0 199.0C632.0 229.0 581.0 268.0 581.0 268.0L537.0 213.0ZM265.0 194.0V-549.0H271.0C295.0 -549.0 312.0 -535.0 312.0 -531.0V194.0Z"/></g>
<g fill="red" transform="translate(800 200) scale(0.1 -0.1)"><path d="M0.0 0.0V-28.0H617.0C632.0 -28.0 643.0 -23.0 646.0 -12.0C595.0 30.0 511.0 92.0 511.0 92.0L437.0 0.0ZM3.0 230.0 -11.0 202.0H652.0C667.0 202.0 679.0 207.0 681.0 218.0C625.0 265.0 538.0 328.0 538.0 328.0L459.0 230.0ZM221.0 230.0V-555.0H251.0C333.0 -555.0 379.0 -524.0 380.0 -515.0V230.0Z"/></g>
<g fill="black" opacity=".8" transform="translate(800 200) scale(0.1 -0.1)"><path d="M0.0 0.0 4.0 -29.0H622.0C638.0 -29.0 649.0 -25.0 653.0 -12.0C602.0 33.0 515.0 99.0 515.0 99.0L441.0 0.0ZM9.0 233.0 2.0 203.0H650.0C666.0 203.0 678.0 208.0 681.0 221.0C625.0 269.0 535.0 337.0 535.0 337.0L454.0 233.0ZM216.0 215.0V-559.0H247.0C332.0 -559.0 381.0 -528.0 381.0 -519.0V215.0Z"/></g>
<g fill="red" transform="translate(900 200) scale(0.1 -0.1)"><path d="M0.0 0.0 9.0 -30.0H880.0C894.0 -30.0 904.0 -25.0 906.0 -14.0C875.0 16.0 825.0 54.0 825.0 54.0L781.0 0.0ZM37.0 269.0 46.0 239.0H846.0C859.0 239.0 868.0 244.0 871.0 255.0C841.0 283.0 791.0 322.0 791.0 322.0L749.0 269.0ZM583.0 269.0V-422.0H589.0C612.0 -422.0 628.0 -409.0 628.0 -405.0V269.0Z"/></g>
<g fill="black" opacity=".8" transform="translate(900 200) scale(0.1 -0.1)"><path d="M0.0 0.0 10.0 -29.0H879.0C892.0 -29.0 904.0 -24.0 905.0 -14.0C875.0 15.0 824.0 54.0 824.0 54.0L782.0 0.0ZM36.0 268.0 47.0 240.0H848.0C859.0 240.0 869.0 243.0 871.0 256.0C842.0 282.0 791.0 321.0 791.0 321.0L750.0 268.0ZM584.0 270.0V-424.0H590.0C613.0 -424.0 628.0 -410.0 628.0 -406.0V270.0Z"/></g>
<g fill="red" transform="translate(1000 200) scale(0.1 -0.1)"><path d="M0.0 0.0 8.0 -28.0H916.0C931.0 -28.0 942.0 -23.0 945.0 -12.0C895.0 32.0 811.0 96.0 811.0 96.0L736.0 0.0ZM42.0 263.0 50.0 235.0H893.0C907.0 235.0 919.0 240.0 922.0 251.0C871.0 294.0 787.0 356.0 787.0 356.0L713.0 263.0ZM561.0 257.0V-457.0H590.0C669.0 -457.0 714.0 -428.0 715.0 -420.0V257.0Z"/></g>
<g fill="black" opacity=".8" transform="translate(1000 200) scale(0.1 -0.1)"><path d="M0.0 0.0 8.0 -27.0H916.0C930.0 -27.0 942.0 -23.0 945.0 -11.0C895.0 33.0 811.0 95.0 811.0 95.0L738.0 0.0ZM40.0 263.0 49.0 235.0H892.0C906.0 235.0 918.0 240.0 920.0 251.0C871.0 293.0 786.0 354.0 786.0 354.0L712.0 263.0ZM562.0 257.0V-457.0H591.0C669.0 -457.0 713.0 -428.0 714.0 -420.0V257.0Z"/></g>
<g fill="red" transform="translate(1100 200) scale(0.1 -0.1)"><path d="M0.0 0.0 8.0 -30.0H438.0C452.0 -30.0 462.0 -25.0 464.0 -14.0C436.0 12.0 391.0 48.0 391.0 48.0L352.0 0.0ZM-434.0 417.0 -426.0 388.0H-14.0C0.0 388.0 10.0 393.0 13.0 404.0C-17.0 431.0 -63.0 468.0 -63.0 468.0L-105.0 417.0ZM203.0 204.0V-364.0H209.0C231.0 -364.0 247.0 -351.0 247.0 -347.0V204.0Z"/></g>
<g fill="black" opacity=".8" transform="translate(1100 200) scale(0.1 -0.1)"><path d="M0.0 0.0 9.0 -30.0H438.0C452.0 -30.0 462.0 -26.0 464.0 -14.0C435.0 12.0 390.0 48.0 390.0 48.0L351.0 0.0ZM-433.0 416.0 -423.0 388.0H-13.0C-1.0 388.0 10.0 393.0 13.0 405.0C-17.0 430.0 -64.0 468.0 -64.0 468.0L-106.0 416.0ZM204.0 203.0V-365.0H209.0C231.0 -365.0 248.0 -351.0 248.0 -346.0V203.0Z"/></g>
<g fill="red" transform="translate(1200 200) scale(0.1 -0.1)"><path d="M0.0 0.0 8.0 -28.0H468.0C483.0 -28.0 494.0 -23.0 496.0 -12.0C454.0 32.0 378.0 99.0 378.0 99.0L311.0 0.0ZM-460.0 427.0 -452.0 399.0H7.0C22.0 399.0 33.0 404.0 35.0 415.0C-7.0 456.0 -80.0 516.0 -80.0 516.0L-144.0 427.0ZM148.0 193.0V-374.0H174.0C246.0 -374.0 287.0 -349.0 288.0 -343.0V193.0Z"/></g>
<g fill="black" opacity=".8" transform="translate(1200 200) scale(0.1 -0.1)"><path d="M0.0 0.0 8.0 -28.0H469.0C483.0 -28.0 495.0 -23.0 497.0 -12.0C455.0 32.0 377.0 100.0 377.0 100.0L311.0 0.0ZM-460.0 427.0 -452.0 399.0H6.0C22.0 399.0 33.0 404.0 35.0 415.0C-7.0 456.0 -81.0 517.0 -81.0 517.0L-145.0 427.0ZM147.0 192.0V-374.0H173.0C246.0 -374.0 287.0 -349.0 288.0 -343.0V192.0Z"/></g>
<g fill="red" transform="translate(1300 200) scale(0.1 -0.1)"><path d="M0.0 0.0 8.0 -30.0H619.0C633.0 -30.0 641.0 -25.0 644.0 -14.0C615.0 13.0 569.0 50.0 569.0 50.0L528.0 0.0ZM45.0 302.0 52.0 272.0H564.0C577.0 272.0 587.0 277.0 589.0 288.0C561.0 316.0 515.0 351.0 515.0 351.0L475.0 302.0ZM279.0 302.0V-507.0H285.0C308.0 -507.0 323.0 -494.0 323.0 -490.0V302.0Z"/></g>
<g fill="black" opacity=".8" transform="translate(1300 200) scale(0.1 -0.1)"><path d="M0.0 0.0 8.0 -30.0H616.0C630.0 -30.0 640.0 -26.0 643.0 -14.0C613.0 13.0 563.0 52.0 563.0 52.0L522.0 0.0ZM34.0 306.0 43.0 276.0H568.0C581.0 276.0 591.0 281.0 593.0 293.0C563.0 320.0 515.0 358.0 515.0 358.0L473.0 306.0ZM280.0 309.0V-514.0H286.0C310.0 -514.0 326.0 -500.0 326.0 -495.0V309.0Z"/></g>
<g fill="red" transform="translate(1400 200) scale(0.1 -0.1)"><path d="M0.0 0.0 8.0 -28.0H631.0C645.0 -28.0 657.0 -23.0 660.0 -12.0C609.0 34.0 523.0 102.0 523.0 102.0L446.0 0.0ZM33.0 317.0 41.0 289.0H589.0C604.0 289.0 615.0 294.0 618.0 305.0C568.0 350.0 484.0 416.0 484.0 416.0L409.0 317.0ZM233.0 317.0V-531.0H261.0C338.0 -531.0 382.0 -500.0 383.0 -491.0V317.0Z"/></g>
<g fill="black" opacity=".8" transform="translate(1400 200) scale(0.1 -0.1)"><path d="M0.0 0.0 8.0 -28.0H629.0C644.0 -28.0 656.0 -24.0 658.0 -12.0C611.0 34.0 527.0 102.0 527.0 102.0L455.0 0.0ZM33.0 312.0 40.0 283.0H585.0C601.0 283.0 612.0 288.0 614.0 300.0C568.0 344.0 487.0 409.0 487.0 409.0L416.0 312.0ZM228.0 315.0V-526.0H257.0C336.0 -526.0 383.0 -495.0 383.0 -485.0V315.0Z"/></g>
<g fill="red" transform="translate(1500 200) scale(0.1 -0.1)"><path d="M0.0 0.0 8.0 -29.0H416.0C430.0 -29.0 439.0 -24.0 442.0 -14.0C413.0 13.0 369.0 48.0 369.0 48.0L329.0 0.0ZM18.0 278.0 26.0 248.0H411.0C424.0 248.0 434.0 253.0 436.0 264.0C408.0 291.0 364.0 326.0 364.0 326.0L325.0 278.0ZM190.0 278.0V-531.0H196.0C218.0 -531.0 234.0 -518.0 234.0 -514.0V278.0Z"/></g>
<g fill="black" opacity=".8" transform="translate(1500 200) scale(0.1 -0.1)"><path d="M0.0 0.0 7.0 -28.0H416.0C430.0 -28.0 440.0 -25.0 443.0 -14.0C415.0 12.0 370.0 48.0 370.0 48.0L330.0 0.0ZM17.0 277.0 21.0 248.0H415.0C427.0 248.0 436.0 252.0 439.0 264.0C411.0 291.0 364.0 327.0 364.0 327.0L324.0 277.0ZM191.0 288.0V-534.0H196.0C218.0 -534.0 233.0 -520.0 233.0 -516.0V288.0Z"/></g>
<g fill="red" transform="translate(1600 200) scale(0.1 -0.1)"><path d="M0.0 0.0 8.0 -28.0H457.0C471.0 -28.0 482.0 -23.0 485.0 -12.0C443.0 29.0 370.0 90.0 370.0 90.0L306.0 0.0ZM17.0 301.0 25.0 273.0H448.0C462.0 273.0 473.0 278.0 476.0 289.0C432.0 330.0 357.0 390.0 357.0 390.0L290.0 301.0ZM159.0 301.0V-542.0H185.0C259.0 -542.0 301.0 -513.0 301.0 -504.0V301.0Z"/></g>
<g fill="black" opacity=".8" transform="translate(1600 200) scale(0.1 -0.1)"><path d="M0.0 0.0 6.0 -27.0H454.0C468.0 -27.0 479.0 -23.0 482.0 -12.0C441.0 29.0 367.0 91.0 367.0 91.0L304.0 0.0ZM12.0 298.0 14.0 270.0H449.0C464.0 270.0 475.0 275.0 477.0 286.0C431.0 328.0 354.0 388.0 354.0 388.0L285.0 298.0ZM156.0 307.0V-539.0H184.0C260.0 -539.0 304.0 -509.0 304.0 -499.0V307.0Z"/></g>
<g fill="red" transform="translate(100 300) scale(0.1 -0.1)"><path d="M0.0 0.0 9.0 -29.0H863.0C877.0 -29.0 886.0 -24.0 889.0 -14.0C858.0 15.0 810.0 52.0 810.0 52.0L768.0 0.0ZM68.0 172.0 77.0 142.0H813.0C826.0 142.0 836.0 147.0 838.0 158.0C809.0 184.0 765.0 219.0 765.0 219.0L725.0 172.0ZM420.0 172.0V-260.0H426.0C448.0 -260.0 464.0 -248.0 464.0 -243.0V172.0Z"/></g>
<g fill="black" opacity=".8" transform="translate(100 300) scale(0.1 -0.1)"><path d="M0.0 0.0 7.0 -23.0H863.0C875.0 -23.0 883.0 -20.0 885.0 -12.0C859.0 13.0 817.0 45.0 817.0 45.0L781.0 0.0ZM56.0 169.0 61.0 145.0H816.0C825.0 145.0 833.0 149.0 835.0 158.0C810.0 180.0 770.0 212.0 770.0 212.0L733.0 169.0ZM421.0 182.0V-266.0H425.0C443.0 -266.0 456.0 -256.0 456.0 -251.0V182.0Z"/></g>
<g fill="red" transform="translate(200 300) scale(0.1 -0.1)"><path d="M0.0 0.0 8.0 -28.0H903.0C917.0 -28.0 928.0 -23.0 931.0 -12.0C884.0 32.0 803.0 99.0 803.0 99.0L732.0 0.0ZM52.0 169.0 60.0 141.0H857.0C871.0 141.0 882.0 146.0 885.0 157.0C839.0 200.0 760.0 265.0 760.0 265.0L690.0 169.0ZM376.0 169.0V-283.0H405.0C484.0 -283.0 529.0 -258.0 530.0 -252.0V169.0Z"/></g>
<g fill="black" opacity=".8" transform="translate(200 300) scale(0.1 -0.1)"><path d="M0.0 0.0 5.0 -23.0H902.0C914.0 -23.0 924.0 -19.0 926.0 -10.0C879.0 29.0 801.0 85.0 801.0 85.0L734.0 0.0ZM48.0 168.0 52.0 145.0H858.0C870.0 145.0 879.0 149.0 882.0 159.0C837.0 196.0 762.0 252.0 762.0 252.0L695.0 168.0ZM392.0 179.0V-279.0H416.0C483.0 -279.0 521.0 -257.0 522.0 -251.0V179.0Z"/></g>
<g fill="red" transform="translate(300 300) scale(0.1 -0.1)"><path d="M0.0 0.0 8.0 -30.0H660.0C673.0 -30.0 682.0 -25.0 685.0 -14.0C656.0 13.0 609.0 50.0 609.0 50.0L569.0 0.0ZM48.0 331.0 56.0 302.0H629.0C643.0 302.0 653.0 307.0 655.0 318.0C626.0 345.0 579.0 382.0 579.0 382.0L539.0 331.0ZM310.0 331.0V-504.0H318.0C342.0 -504.0 359.0 -490.0 359.0 -485.0V331.0Z"/></g>
<g fill="black" opacity=".8" transform="translate(300 300) scale(0.1 -0.1)"><path d="M0.0 0.0 9.0 -30.0H660.0C673.0 -30.0 683.0 -25.0 685.0 -14.0C656.0 13.0 606.0 53.0 606.0 53.0L564.0 0.0ZM48.0 333.0 57.0 304.0H628.0C641.0 304.0 651.0 308.0 653.0 320.0C623.0 346.0 575.0 385.0 575.0 385.0L533.0 333.0ZM313.0 322.0V-503.0H319.0C343.0 -503.0 358.0 -489.0 358.0 -484.0V322.0Z"/></g>
<g fill="red" transform="translate(400 300) scale(0.1 -0.1)"><path d="M0.0 0.0 8.0 -28.0H654.0C669.0 -28.0 680.0 -23.0 683.0 -12.0C635.0 33.0 552.0 101.0 552.0 101.0L479.0 0.0ZM34.0 334.0 42.0 306.0H627.0C642.0 306.0 653.0 311.0 655.0 322.0C611.0 364.0 534.0 427.0 534.0 427.0L466.0 334.0ZM256.0 334.0V-518.0H284.0C361.0 -518.0 406.0 -487.0 406.0 -478.0V334.0Z"/></g>
<g fill="black" opacity=".8" transform="translate(400 300) scale(0.1 -0.1)"><path d="M0.0 0.0 9.0 -28.0H657.0C671.0 -28.0 683.0 -23.0 685.0 -12.0C637.0 34.0 552.0 102.0 552.0 102.0L479.0 0.0ZM47.0 334.0 56.0 306.0H630.0C645.0 306.0 656.0 311.0 659.0 323.0C614.0 366.0 533.0 430.0 533.0 430.0L463.0 334.0ZM253.0 323.0V-520.0H282.0C361.0 -520.0 407.0 -489.0 407.0 -479.0V323.0Z"/></g>
<g fill="red" transform="translate(500 300) scale(0.1 -0.1)"><path d="M0.0 0.0 7.0 -30.0H581.0C594.0 -30.0 604.0 -25.0 606.0 -14.0C578.0 13.0 530.0 50.0 530.0 50.0L490.0 0.0ZM41.0 339.0 49.0 309.0H544.0C558.0 309.0 567.0 314.0 570.0 325.0C540.0 352.0 494.0 389.0 494.0 389.0L454.0 339.0ZM267.0 339.0V-497.0H273.0C296.0 -497.0 312.0 -484.0 312.0 -479.0V339.0Z"/></g>
<g fill="black" opacity=".8" transform="translate(500 300) scale(0.1 -0.1)"><path d="M0.0 0.0 9.0 -28.0H580.0C592.0 -28.0 602.0 -24.0 604.0 -13.0C576.0 12.0 529.0 49.0 529.0 49.0L491.0 0.0ZM52.0 337.0 64.0 309.0H545.0C557.0 309.0 566.0 314.0 568.0 325.0C541.0 349.0 495.0 386.0 495.0 386.0L457.0 337.0ZM267.0 331.0V-496.0H272.0C295.0 -496.0 310.0 -483.0 310.0 -478.0V331.0Z"/></g>
<g fill="red" transform="translate(600 300) scale(0.1 -0.1)"><path d="M0.0 0.0 8.0 -28.0H565.0C580.0 -28.0 591.0 -23.0 593.0 -12.0C549.0 31.0 472.0 96.0 472.0 96.0L404.0 0.0ZM58.0 334.0 66.0 306.0H543.0C557.0 306.0 568.0 311.0 571.0 322.0C529.0 363.0 456.0 424.0 456.0 424.0L392.0 334.0ZM201.0 334.0V-509.0H229.0C306.0 -509.0 351.0 -478.0 351.0 -469.0V334.0Z"/></g>
<g fill="black" opacity=".8" transform="translate(600 300) scale(0.1 -0.1)"><path d="M0.0 0.0 9.0 -26.0H569.0C582.0 -26.0 594.0 -22.0 596.0 -11.0C552.0 32.0 473.0 97.0 473.0 97.0L405.0 0.0ZM54.0 336.0 64.0 310.0H541.0C555.0 310.0 565.0 315.0 568.0 325.0C527.0 366.0 453.0 425.0 453.0 425.0L389.0 336.0ZM206.0 331.0V-511.0H233.0C306.0 -511.0 350.0 -481.0 350.0 -472.0V331.0Z"/></g>
<g fill="red" transform="translate(700 300) scale(0.1 -0.1)"><path d="M0.0 0.0 8.0 -30.0H468.0C481.0 -30.0 490.0 -25.0 493.0 -14.0C466.0 13.0 422.0 47.0 422.0 47.0L384.0 0.0ZM26.0 350.0 34.0 321.0H440.0C454.0 321.0 463.0 326.0 466.0 337.0C438.0 363.0 394.0 398.0 394.0 398.0L355.0 350.0ZM210.0 350.0V-476.0H216.0C237.0 -476.0 253.0 -463.0 253.0 -459.0V350.0Z"/></g>
<g fill="black" opacity=".8" transform="translate(700 300) scale(0.1 -0.1)"><path d="M0.0 0.0 8.0 -27.0H469.0C482.0 -27.0 492.0 -24.0 494.0 -13.0C466.0 12.0 421.0 47.0 421.0 47.0L383.0 0.0ZM29.0 342.0 38.0 315.0H444.0C456.0 315.0 465.0 319.0 468.0 330.0C440.0 355.0 395.0 391.0 395.0 391.0L357.0 342.0ZM213.0 344.0V-484.0H218.0C240.0 -484.0 255.0 -471.0 255.0 -467.0V344.0Z"/></g>
<g fill="red" transform="translate(800 300) scale(0.1 -0.1)"><path d="M0.0 0.0 8.0 -28.0H496.0C510.0 -28.0 521.0 -23.0 523.0 -12.0C484.0 31.0 412.0 98.0 412.0 98.0L348.0 0.0ZM19.0 351.0 27.0 323.0H474.0C488.0 323.0 499.0 328.0 502.0 339.0C461.0 379.0 391.0 437.0 391.0 437.0L330.0 351.0ZM168.0 351.0V-501.0H196.0C273.0 -501.0 317.0 -470.0 318.0 -461.0V351.0Z"/></g>
<g fill="black" opacity=".8" transform="translate(800 300) scale(0.1 -0.1)"><path d="M0.0 0.0 8.0 -26.0H498.0C511.0 -26.0 523.0 -22.0 525.0 -11.0C484.0 30.0 410.0 92.0 410.0 92.0L347.0 0.0ZM23.0 357.0 31.0 330.0H473.0C487.0 330.0 498.0 335.0 500.0 346.0C457.0 386.0 383.0 444.0 383.0 444.0L318.0 357.0ZM172.0 356.0V-492.0H198.0C271.0 -492.0 314.0 -463.0 314.0 -453.0V356.0Z"/></g>
<g fill="red" transform="translate(900 300) scale(0.1 -0.1)"><path d="M0.0 0.0 8.0 -29.0H383.0C397.0 -29.0 406.0 -24.0 409.0 -13.0C379.0 14.0 333.0 51.0 333.0 51.0L292.0 0.0ZM36.0 294.0 44.0 264.0H344.0C357.0 264.0 366.0 269.0 369.0 280.0C341.0 308.0 294.0 343.0 294.0 343.0L255.0 294.0ZM171.0 294.0V-510.0H177.0C200.0 -510.0 216.0 -497.0 216.0 -493.0V294.0Z"/></g>
<g fill="black" opacity=".8" transform="translate(900 300) scale(0.1 -0.1)"><path d="M0.0 0.0 8.0 -27.0H380.0C393.0 -27.0 402.0 -23.0 404.0 -13.0C378.0 11.0 336.0 45.0 336.0 45.0L299.0 0.0ZM17.0 297.0 26.0 270.0H347.0C359.0 270.0 368.0 275.0 370.0 286.0C344.0 310.0 300.0 344.0 300.0 344.0L264.0 297.0ZM166.0 310.0V-511.0H171.0C192.0 -511.0 207.0 -499.0 207.0 -494.0V310.0Z"/></g>
<g fill="red" transform="translate(1000 300) scale(0.1 -0.1)"><path d="M0.0 0.0 8.0 -28.0H404.0C418.0 -28.0 428.0 -23.0 431.0 -12.0C395.0 30.0 328.0 95.0 328.0 95.0L269.0 0.0ZM19.0 318.0 27.0 290.0H374.0C389.0 290.0 399.0 295.0 402.0 306.0C362.0 347.0 290.0 410.0 290.0 410.0L227.0 318.0ZM115.0 318.0V-516.0H143.0C220.0 -516.0 264.0 -486.0 265.0 -477.0V318.0Z"/></g>
<g fill="black" opacity=".8" transform="translate(1000 300) scale(0.1 -0.1)"><path d="M0.0 0.0 7.0 -25.0H406.0C418.0 -25.0 429.0 -22.0 431.0 -11.0C394.0 29.0 324.0 89.0 324.0 89.0L265.0 0.0ZM15.0 311.0 23.0 285.0H373.0C387.0 285.0 397.0 290.0 399.0 301.0C360.0 339.0 289.0 396.0 289.0 396.0L228.0 311.0ZM127.0 323.0V-516.0H152.0C223.0 -516.0 264.0 -487.0 264.0 -478.0V323.0Z"/></g>
<g fill="red" transform="translate(1100 300) scale(0.1 -0.1)"><path d="M0.0 0.0 8.0 -30.0H521.0C535.0 -30.0 544.0 -25.0 547.0 -14.0C518.0 14.0 472.0 50.0 472.0 50.0L430.0 0.0ZM29.0 341.0 37.0 311.0H481.0C495.0 311.0 505.0 316.0 507.0 327.0C478.0 354.0 431.0 391.0 431.0 391.0L391.0 341.0ZM229.0 341.0V-490.0H235.0C258.0 -490.0 274.0 -477.0 274.0 -473.0V341.0Z"/></g>
<g fill="black" opacity=".8" transform="translate(1100 300) scale(0.1 -0.1)"><path d="M0.0 0.0 9.0 -28.0H521.0C534.0 -28.0 544.0 -24.0 546.0 -14.0C518.0 12.0 472.0 49.0 472.0 49.0L432.0 0.0ZM36.0 334.0 46.0 306.0H484.0C496.0 306.0 506.0 310.0 508.0 321.0C480.0 347.0 434.0 384.0 434.0 384.0L394.0 334.0ZM236.0 345.0V-489.0H241.0C263.0 -489.0 279.0 -476.0 279.0 -471.0V345.0Z"/></g>
<g fill="red" transform="translate(1200 300) scale(0.1 -0.1)"><path d="M0.0 0.0 8.0 -28.0H559.0C573.0 -28.0 585.0 -23.0 587.0 -12.0C538.0 32.0 455.0 97.0 455.0 97.0L381.0 0.0ZM48.0 344.0 56.0 316.0H520.0C534.0 316.0 545.0 321.0 548.0 332.0C503.0 373.0 426.0 434.0 426.0 434.0L359.0 344.0ZM196.0 344.0V-495.0H225.0C303.0 -495.0 348.0 -464.0 349.0 -454.0V344.0Z"/></g>
<g fill="black" opacity=".8" transform="translate(1200 300) scale(0.1 -0.1)"><path d="M0.0 0.0 8.0 -27.0H553.0C566.0 -27.0 578.0 -23.0 581.0 -12.0C538.0 31.0 461.0 96.0 461.0 96.0L394.0 0.0ZM31.0 347.0 40.0 319.0H517.0C532.0 319.0 543.0 324.0 545.0 335.0C501.0 376.0 424.0 437.0 424.0 437.0L357.0 347.0ZM195.0 356.0V-497.0H222.0C297.0 -497.0 341.0 -467.0 341.0 -457.0V356.0Z"/></g>
<g fill="red" transform="translate(1300 300) scale(0.1 -0.1)"><path d="M0.0 0.0 8.0 -29.0H361.0C375.0 -29.0 384.0 -24.0 387.0 -13.0C358.0 13.0 314.0 49.0 314.0 49.0L274.0 0.0ZM18.0 299.0 26.0 269.0H348.0C362.0 269.0 372.0 274.0 374.0 285.0C345.0 313.0 300.0 348.0 300.0 348.0L260.0 299.0ZM165.0 299.0V-519.0H171.0C194.0 -519.0 209.0 -506.0 209.0 -501.0V299.0Z"/></g>
<g fill="black" opacity=".8" transform="translate(1300 300) scale(0.1 -0.1)"><path d="M0.0 0.0 7.0 -27.0H364.0C376.0 -27.0 386.0 -23.0 388.0 -13.0C362.0 11.0 319.0 45.0 319.0 45.0L282.0 0.0ZM6.0 300.0 14.0 273.0H343.0C354.0 273.0 363.0 277.0 366.0 288.0C339.0 313.0 295.0 348.0 295.0 348.0L258.0 300.0ZM164.0 301.0V-518.0H169.0C190.0 -518.0 205.0 -505.0 205.0 -501.0V301.0Z"/></g>
<g fill="red" transform="translate(1400 300) scale(0.1 -0.1)"><path d="M0.0 0.0 8.0 -28.0H390.0C404.0 -28.0 414.0 -23.0 417.0 -12.0C381.0 27.0 316.0 88.0 316.0 88.0L259.0 0.0ZM1.0 318.0 9.0 290.0H362.0C376.0 290.0 387.0 295.0 390.0 306.0C345.0 349.0 268.0 412.0 268.0 412.0L200.0 318.0ZM122.0 318.0V-521.0H148.0C222.0 -521.0 264.0 -491.0 264.0 -483.0V318.0Z"/></g>
<g fill="black" opacity=".8" transform="translate(1400 300) scale(0.1 -0.1)"><path d="M0.0 0.0 7.0 -25.0H389.0C401.0 -25.0 412.0 -22.0 415.0 -11.0C377.0 28.0 307.0 88.0 307.0 88.0L248.0 0.0ZM3.0 317.0 8.0 291.0H366.0C380.0 291.0 390.0 295.0 393.0 306.0C352.0 345.0 280.0 402.0 280.0 402.0L218.0 317.0ZM125.0 317.0V-524.0H150.0C222.0 -524.0 263.0 -495.0 263.0 -486.0V317.0Z"/></g>
</svg>
