<?xml version="1.0" encoding="UTF-8"?>
<svg width="1700" height="300" xmlns="http://www.w3.org/2000/svg">
<rect width="100%" height="100%" fill="white"/>
<g fill="green" transform="translate(100 100) scale(0.1 -0.1)"><path d="M-0.0 0.0C1.0 -414.0 67.0 -780.0 281.0 -962.0C328.0 -1004.0 384.0 -1032.0 404.0 -1005.0C411.0 -996.0 408.0 -984.0 378.0 -948.0L395.0 -785.0L381.0 -783.0C368.0 -826.0 352.0 -878.0 340.0 -903.0C332.0 -927.0 326.0 -928.0 307.0 -909.0C106.0 -748.0 52.0 -382.0 55.0 -42.0C83.0 -38.0 93.0 -26.0 95.0 -11.0ZM122.0 -24.0 112.0 -36.0C156.0 -62.0 214.0 -110.0 237.0 -147.0C292.0 -173.0 316.0 -64.0 122.0 -24.0ZM-604.0 -187.0 -593.0 -220.0 381.0 -217.0C396.0 -217.0 407.0 -212.0 410.0 -199.0C376.0 -168.0 325.0 -128.0 325.0 -128.0L278.0 -184.0Z"/></g>
<g fill="green" transform="translate(200 100) scale(0.1 -0.1)"><path d="M0.0 0.0C1.0 -403.0 14.0 -751.0 238.0 -987.0C285.0 -1035.0 388.0 -1094.0 455.0 -1037.0C479.0 -1016.0 472.0 -968.0 432.0 -888.0L461.0 -686.0L450.0 -684.0C426.0 -733.0 392.0 -796.0 372.0 -827.0C361.0 -845.0 353.0 -845.0 338.0 -830.0C168.0 -671.0 158.0 -371.0 165.0 -53.0C195.0 -48.0 203.0 -35.0 205.0 -20.0ZM218.0 -27.0 210.0 -34.0C247.0 -64.0 291.0 -118.0 309.0 -168.0C442.0 -229.0 517.0 13.0 218.0 -27.0ZM-594.0 -203.0 -585.0 -235.0 437.0 -231.0C453.0 -231.0 466.0 -226.0 469.0 -213.0C412.0 -167.0 321.0 -102.0 321.0 -102.0L240.0 -201.0Z"/></g>
<g fill="green" transform="translate(300 100) scale(0.1 -0.1)"><path d="M0.0 0.0C-2.0 -236.0 28.0 -451.0 135.0 -567.0C159.0 -593.0 190.0 -611.0 203.0 -596.0C208.0 -592.0 206.0 -584.0 189.0 -561.0L200.0 -466.0L192.0 -465.0C184.0 -489.0 175.0 -519.0 168.0 -533.0C164.0 -547.0 161.0 -548.0 151.0 -536.0C50.0 -434.0 26.0 -218.0 31.0 -24.0C47.0 -22.0 52.0 -15.0 54.0 -6.0ZM61.0 -7.0 55.0 -13.0C75.0 -28.0 101.0 -52.0 114.0 -69.0C142.0 -83.0 159.0 -30.0 61.0 -7.0ZM-361.0 -72.0 -354.0 -90.0 194.0 -95.0C202.0 -95.0 209.0 -93.0 211.0 -85.0C192.0 -68.0 164.0 -45.0 164.0 -45.0L137.0 -76.0Z"/></g>
<g fill="green" transform="translate(400 100) scale(0.1 -0.1)"><path d="M0.0 0.0C-2.0 -233.0 -1.0 -435.0 110.0 -578.0C132.0 -607.0 189.0 -644.0 230.0 -614.0C245.0 -603.0 240.0 -573.0 220.0 -526.0L237.0 -408.0L231.0 -407.0C218.0 -434.0 199.0 -470.0 188.0 -488.0C182.0 -498.0 178.0 -498.0 170.0 -489.0C86.0 -393.0 85.0 -215.0 92.0 -31.0C109.0 -27.0 113.0 -20.0 115.0 -12.0ZM122.0 -10.0 117.0 -14.0C138.0 -30.0 164.0 -58.0 175.0 -85.0C250.0 -115.0 285.0 20.0 122.0 -10.0ZM-360.0 -78.0 -355.0 -96.0 222.0 -101.0C230.0 -101.0 238.0 -98.0 239.0 -91.0C208.0 -65.0 160.0 -30.0 160.0 -30.0L115.0 -83.0Z"/></g>
<g fill="green" transform="translate(500 100) scale(0.1 -0.1)"><path d="M-0.0 0.0C52.0 -325.0 235.0 -608.0 555.0 -743.0C630.0 -774.0 701.0 -791.0 718.0 -755.0C725.0 -741.0 719.0 -729.0 679.0 -699.0L688.0 -540.0L671.0 -539.0C656.0 -587.0 640.0 -642.0 627.0 -667.0C618.0 -689.0 606.0 -690.0 577.0 -678.0C283.0 -568.0 127.0 -292.0 85.0 -45.0C113.0 -41.0 126.0 -26.0 127.0 -9.0ZM229.0 -10.0 217.0 -27.0C281.0 -54.0 366.0 -105.0 405.0 -144.0C478.0 -166.0 493.0 -30.0 229.0 -10.0ZM-607.0 -209.0 -592.0 -251.0 665.0 -211.0C684.0 -211.0 699.0 -204.0 702.0 -186.0C659.0 -148.0 588.0 -97.0 588.0 -97.0L530.0 -173.0Z"/></g>
<g fill="green" transform="translate(600 100) scale(0.1 -0.1)"><path d="M0.0 0.0C49.0 -347.0 151.0 -637.0 495.0 -806.0C581.0 -845.0 718.0 -878.0 766.0 -794.0C786.0 -761.0 778.0 -727.0 712.0 -660.0L733.0 -471.0L720.0 -468.0C694.0 -522.0 657.0 -589.0 635.0 -622.0C622.0 -639.0 608.0 -638.0 580.0 -628.0C332.0 -523.0 256.0 -304.0 217.0 -58.0C250.0 -52.0 262.0 -36.0 264.0 -17.0ZM314.0 -9.0 303.0 -18.0C344.0 -54.0 390.0 -119.0 405.0 -179.0C563.0 -264.0 676.0 24.0 314.0 -9.0ZM-607.0 -228.0 -595.0 -269.0 729.0 -226.0C748.0 -226.0 766.0 -218.0 768.0 -201.0C699.0 -146.0 588.0 -71.0 588.0 -71.0L494.0 -194.0Z"/></g>
<g fill="green" transform="translate(700 100) scale(0.1 -0.1)"><path d="M0.0 0.0C-20.0 -444.0 38.0 -820.0 290.0 -959.0C338.0 -993.0 384.0 -1011.0 397.0 -990.0C401.0 -982.0 400.0 -975.0 371.0 -950.0L387.0 -811.0L376.0 -808.0C365.0 -845.0 350.0 -890.0 341.0 -915.0C332.0 -936.0 326.0 -936.0 305.0 -922.0C59.0 -792.0 14.0 -417.0 34.0 -35.0C57.0 -32.0 65.0 -22.0 67.0 -9.0ZM113.0 -52.0 105.0 -61.0C153.0 -87.0 217.0 -139.0 236.0 -184.0C287.0 -209.0 299.0 -101.0 113.0 -52.0ZM-375.0 -323.0 -365.0 -347.0 381.0 -287.0C393.0 -286.0 400.0 -281.0 402.0 -271.0C371.0 -249.0 328.0 -218.0 328.0 -218.0L295.0 -268.0Z"/></g>
<g fill="green" transform="translate(800 100) scale(0.1 -0.1)"><path d="M0.0 0.0C-20.0 -431.0 -23.0 -782.0 275.0 -977.0C336.0 -1014.0 426.0 -1050.0 474.0 -992.0C490.0 -972.0 486.0 -942.0 444.0 -878.0L472.0 -699.0L464.0 -698.0C439.0 -743.0 401.0 -807.0 380.0 -835.0C368.0 -851.0 360.0 -850.0 343.0 -839.0C104.0 -697.0 108.0 -403.0 131.0 -45.0C156.0 -41.0 162.0 -31.0 163.0 -19.0ZM168.0 -50.0 163.0 -55.0C205.0 -89.0 254.0 -145.0 278.0 -200.0C407.0 -253.0 464.0 -14.0 168.0 -50.0ZM-327.0 -340.0 -318.0 -365.0 464.0 -300.0C477.0 -298.0 488.0 -295.0 489.0 -284.0C437.0 -246.0 350.0 -190.0 350.0 -190.0L286.0 -290.0Z"/></g>
<g fill="green" transform="translate(900 100) scale(0.1 -0.1)"><path d="M0.0 0.0C9.0 -414.0 71.0 -772.0 277.0 -949.0C323.0 -990.0 381.0 -1019.0 402.0 -990.0C409.0 -980.0 406.0 -967.0 376.0 -931.0L393.0 -763.0L377.0 -761.0C364.0 -806.0 348.0 -860.0 336.0 -885.0C328.0 -909.0 323.0 -911.0 304.0 -891.0C117.0 -736.0 66.0 -382.0 61.0 -44.0C91.0 -40.0 101.0 -26.0 103.0 -12.0ZM125.0 -38.0 114.0 -51.0C169.0 -78.0 237.0 -132.0 261.0 -177.0C325.0 -208.0 346.0 -73.0 125.0 -38.0ZM-687.0 -220.0 -676.0 -255.0 368.0 -279.0C385.0 -280.0 396.0 -275.0 400.0 -261.0C365.0 -228.0 312.0 -184.0 312.0 -184.0L261.0 -242.0Z"/></g>
<g fill="green" transform="translate(1000 100) scale(0.1 -0.1)"><path d="M0.0 0.0C9.0 -383.0 29.0 -727.0 221.0 -977.0C263.0 -1028.0 369.0 -1096.0 444.0 -1040.0C470.0 -1019.0 462.0 -965.0 423.0 -879.0L453.0 -671.0L441.0 -668.0C417.0 -718.0 385.0 -780.0 366.0 -811.0C355.0 -831.0 347.0 -831.0 333.0 -815.0C191.0 -650.0 175.0 -351.0 176.0 -55.0C207.0 -50.0 217.0 -36.0 218.0 -20.0ZM226.0 -38.0 217.0 -45.0C248.0 -77.0 285.0 -132.0 296.0 -183.0C426.0 -259.0 529.0 -21.0 226.0 -38.0ZM-681.0 -245.0 -672.0 -279.0 420.0 -304.0C437.0 -305.0 452.0 -299.0 455.0 -286.0C395.0 -234.0 296.0 -160.0 296.0 -160.0L204.0 -265.0Z"/></g>
<g fill="red" transform="translate(100 200) scale(0.1 -0.1)"><path d="M0.0 0.0C1.0 -410.0 102.0 -753.0 393.0 -874.0C451.0 -903.0 504.0 -918.0 515.0 -892.0C519.0 -883.0 517.0 -876.0 484.0 -853.0L498.0 -714.0L484.0 -711.0C474.0 -751.0 458.0 -797.0 448.0 -823.0C439.0 -843.0 431.0 -843.0 407.0 -832.0C128.0 -722.0 45.0 -383.0 46.0 -37.0C70.0 -33.0 79.0 -22.0 81.0 -9.0ZM154.0 -48.0 145.0 -60.0C204.0 -86.0 280.0 -141.0 305.0 -189.0C364.0 -214.0 373.0 -90.0 154.0 -48.0ZM-393.0 -338.0 -382.0 -367.0 485.0 -298.0C499.0 -297.0 508.0 -291.0 510.0 -280.0C476.0 -254.0 424.0 -218.0 424.0 -218.0L386.0 -276.0Z"/></g>
<g fill="black" opacity=".8" transform="translate(100 200) scale(0.1 -0.1)"><path d="M0.0 0.0C1.0 -410.0 102.0 -753.0 392.0 -874.0C451.0 -903.0 503.0 -917.0 515.0 -892.0C519.0 -882.0 517.0 -875.0 484.0 -852.0L497.0 -714.0L485.0 -711.0C473.0 -751.0 458.0 -797.0 448.0 -822.0C439.0 -842.0 431.0 -843.0 406.0 -831.0C128.0 -722.0 45.0 -383.0 47.0 -37.0C70.0 -34.0 79.0 -22.0 81.0 -8.0ZM154.0 -50.0 145.0 -61.0C203.0 -87.0 279.0 -142.0 304.0 -189.0C364.0 -214.0 372.0 -90.0 154.0 -50.0ZM-394.0 -338.0 -382.0 -366.0 485.0 -298.0C499.0 -297.0 508.0 -291.0 510.0 -279.0C475.0 -254.0 424.0 -218.0 424.0 -218.0L386.0 -276.0Z"/></g>
<g fill="red" transform="translate(200 200) scale(0.1 -0.1)"><path d="M0.0 0.0C0.0 -406.0 32.0 -734.0 368.0 -906.0C443.0 -941.0 546.0 -968.0 588.0 -901.0C603.0 -876.0 599.0 -850.0 547.0 -790.0L572.0 -615.0L563.0 -613.0C538.0 -661.0 499.0 -726.0 478.0 -754.0C465.0 -770.0 455.0 -769.0 433.0 -759.0C170.0 -637.0 148.0 -373.0 153.0 -47.0C179.0 -43.0 187.0 -31.0 188.0 -18.0ZM206.0 -45.0 200.0 -51.0C242.0 -87.0 291.0 -149.0 312.0 -207.0C450.0 -273.0 528.0 -17.0 206.0 -45.0ZM-351.0 -359.0 -341.0 -387.0 570.0 -314.0C585.0 -312.0 597.0 -307.0 599.0 -295.0C541.0 -253.0 445.0 -191.0 445.0 -191.0L374.0 -301.0Z"/></g>
<g fill="black" opacity=".8" transform="translate(200 200) scale(0.1 -0.1)"><path d="M0.0 0.0C-0.0 -406.0 32.0 -734.0 368.0 -907.0C443.0 -941.0 546.0 -969.0 589.0 -901.0C604.0 -876.0 599.0 -850.0 548.0 -790.0L573.0 -615.0L564.0 -613.0C538.0 -660.0 499.0 -726.0 478.0 -754.0C465.0 -770.0 455.0 -769.0 433.0 -760.0C171.0 -637.0 149.0 -373.0 153.0 -47.0C179.0 -43.0 187.0 -32.0 188.0 -18.0ZM206.0 -46.0 200.0 -51.0C242.0 -88.0 290.0 -148.0 311.0 -207.0C449.0 -273.0 527.0 -17.0 206.0 -46.0ZM-350.0 -358.0 -340.0 -387.0 571.0 -314.0C585.0 -312.0 598.0 -308.0 599.0 -295.0C542.0 -252.0 445.0 -191.0 445.0 -191.0L374.0 -301.0Z"/></g>
<g fill="red" transform="translate(300 200) scale(0.1 -0.1)"><path d="M0.0 0.0C1.0 -395.0 53.0 -723.0 262.0 -861.0C306.0 -894.0 356.0 -915.0 371.0 -890.0C376.0 -881.0 374.0 -872.0 347.0 -844.0L362.0 -700.0L348.0 -698.0C338.0 -738.0 323.0 -784.0 313.0 -807.0C305.0 -828.0 300.0 -829.0 282.0 -814.0C89.0 -691.0 47.0 -367.0 49.0 -38.0C74.0 -34.0 83.0 -22.0 85.0 -10.0ZM107.0 -57.0 98.0 -69.0C151.0 -91.0 218.0 -140.0 239.0 -184.0C295.0 -209.0 306.0 -90.0 107.0 -57.0ZM-534.0 -263.0 -525.0 -292.0H343.0C357.0 -292.0 366.0 -287.0 369.0 -276.0C339.0 -249.0 293.0 -212.0 293.0 -212.0L252.0 -263.0Z"/></g>
<g fill="black" opacity=".8" transform="translate(300 200) scale(0.1 -0.1)"><path d="M0.0 0.0C0.0 -391.0 57.0 -721.0 266.0 -863.0C310.0 -896.0 359.0 -918.0 375.0 -894.0C380.0 -885.0 378.0 -875.0 351.0 -847.0L366.0 -704.0L352.0 -702.0C341.0 -741.0 327.0 -787.0 317.0 -810.0C309.0 -831.0 305.0 -832.0 286.0 -816.0C91.0 -690.0 46.0 -364.0 48.0 -37.0C73.0 -34.0 81.0 -22.0 83.0 -10.0ZM114.0 -48.0 105.0 -59.0C158.0 -83.0 224.0 -135.0 245.0 -180.0C303.0 -208.0 316.0 -83.0 114.0 -48.0ZM-529.0 -266.0 -519.0 -294.0 346.0 -290.0C360.0 -291.0 368.0 -286.0 372.0 -274.0C341.0 -248.0 295.0 -211.0 295.0 -211.0L254.0 -262.0Z"/></g>
<g fill="red" transform="translate(400 200) scale(0.1 -0.1)"><path d="M0.0 0.0C1.0 -361.0 17.0 -677.0 231.0 -888.0C276.0 -932.0 370.0 -983.0 430.0 -930.0C451.0 -911.0 445.0 -870.0 407.0 -798.0L433.0 -617.0L424.0 -614.0C402.0 -659.0 370.0 -717.0 352.0 -744.0C341.0 -761.0 333.0 -761.0 320.0 -747.0C154.0 -603.0 142.0 -332.0 149.0 -47.0C175.0 -43.0 184.0 -31.0 185.0 -18.0ZM188.0 -46.0 181.0 -52.0C212.0 -82.0 248.0 -134.0 260.0 -181.0C375.0 -246.0 460.0 -32.0 188.0 -46.0ZM-504.0 -285.0 -496.0 -313.0H409.0C424.0 -313.0 436.0 -308.0 439.0 -297.0C385.0 -253.0 296.0 -188.0 296.0 -188.0L218.0 -285.0Z"/></g>
<g fill="black" opacity=".8" transform="translate(400 200) scale(0.1 -0.1)"><path d="M0.0 0.0C0.0 -362.0 14.0 -677.0 227.0 -886.0C273.0 -928.0 365.0 -979.0 425.0 -927.0C445.0 -907.0 439.0 -866.0 402.0 -795.0L428.0 -615.0L419.0 -613.0C396.0 -657.0 365.0 -714.0 347.0 -741.0C336.0 -759.0 329.0 -758.0 315.0 -746.0C152.0 -603.0 141.0 -334.0 148.0 -47.0C174.0 -43.0 183.0 -31.0 183.0 -18.0ZM188.0 -45.0 181.0 -51.0C211.0 -82.0 247.0 -134.0 260.0 -184.0C378.0 -251.0 466.0 -32.0 188.0 -45.0ZM-506.0 -290.0 -498.0 -318.0 406.0 -313.0C420.0 -313.0 433.0 -308.0 435.0 -297.0C382.0 -253.0 292.0 -188.0 292.0 -188.0L215.0 -286.0Z"/></g>
<g fill="red" transform="translate(500 200) scale(0.1 -0.1)"><path d="M0.0 0.0C1.0 -377.0 60.0 -704.0 261.0 -857.0C304.0 -893.0 355.0 -917.0 372.0 -892.0C377.0 -883.0 376.0 -873.0 348.0 -842.0L364.0 -697.0L350.0 -695.0C340.0 -734.0 325.0 -780.0 314.0 -804.0C306.0 -824.0 301.0 -825.0 284.0 -809.0C97.0 -673.0 49.0 -349.0 50.0 -38.0C75.0 -34.0 84.0 -22.0 86.0 -10.0ZM121.0 -35.0 113.0 -46.0C164.0 -71.0 229.0 -122.0 250.0 -165.0C309.0 -193.0 324.0 -69.0 121.0 -35.0ZM-533.0 -246.0 -524.0 -275.0H344.0C358.0 -275.0 367.0 -270.0 370.0 -260.0C340.0 -232.0 294.0 -196.0 294.0 -196.0L253.0 -246.0Z"/></g>
<g fill="black" opacity=".8" transform="translate(500 200) scale(0.1 -0.1)"><path d="M0.0 0.0C2.0 -384.0 56.0 -711.0 257.0 -856.0C299.0 -890.0 348.0 -912.0 365.0 -888.0C371.0 -879.0 368.0 -869.0 341.0 -840.0L356.0 -697.0L343.0 -694.0C332.0 -733.0 318.0 -780.0 308.0 -802.0C300.0 -823.0 296.0 -825.0 278.0 -808.0C92.0 -679.0 48.0 -357.0 49.0 -37.0C74.0 -34.0 82.0 -22.0 84.0 -10.0ZM111.0 -44.0 102.0 -55.0C154.0 -79.0 218.0 -130.0 238.0 -173.0C295.0 -201.0 310.0 -78.0 111.0 -44.0ZM-545.0 -246.0 -535.0 -275.0 336.0 -277.0C351.0 -278.0 359.0 -273.0 363.0 -261.0C332.0 -235.0 286.0 -198.0 286.0 -198.0L245.0 -248.0Z"/></g>
<g fill="red" transform="translate(600 200) scale(0.1 -0.1)"><path d="M0.0 0.0C1.0 -357.0 13.0 -668.0 210.0 -879.0C252.0 -922.0 343.0 -975.0 403.0 -925.0C425.0 -906.0 419.0 -863.0 383.0 -791.0L409.0 -611.0L399.0 -609.0C378.0 -653.0 348.0 -709.0 330.0 -736.0C320.0 -753.0 313.0 -753.0 300.0 -739.0C150.0 -597.0 141.0 -329.0 148.0 -47.0C174.0 -43.0 182.0 -31.0 183.0 -18.0ZM183.0 -43.0 176.0 -48.0C203.0 -80.0 235.0 -131.0 245.0 -179.0C362.0 -251.0 461.0 -36.0 183.0 -43.0ZM-528.0 -273.0 -520.0 -301.0H385.0C400.0 -301.0 412.0 -296.0 415.0 -285.0C361.0 -241.0 272.0 -176.0 272.0 -176.0L194.0 -273.0Z"/></g>
<g fill="black" opacity=".8" transform="translate(600 200) scale(0.1 -0.1)"><path d="M0.0 0.0C2.0 -355.0 15.0 -667.0 215.0 -879.0C259.0 -921.0 351.0 -975.0 412.0 -923.0C433.0 -905.0 426.0 -862.0 390.0 -790.0L417.0 -609.0L407.0 -607.0C385.0 -651.0 355.0 -707.0 337.0 -734.0C327.0 -752.0 319.0 -751.0 306.0 -738.0C153.0 -595.0 143.0 -328.0 148.0 -47.0C175.0 -43.0 183.0 -31.0 184.0 -18.0ZM189.0 -42.0 182.0 -48.0C211.0 -78.0 246.0 -129.0 258.0 -177.0C375.0 -244.0 463.0 -28.0 189.0 -42.0ZM-527.0 -269.0 -518.0 -298.0 393.0 -300.0C407.0 -300.0 420.0 -295.0 422.0 -284.0C369.0 -239.0 281.0 -175.0 281.0 -175.0L203.0 -271.0Z"/></g>
<g fill="red" transform="translate(700 200) scale(0.1 -0.1)"><path d="M0.0 0.0C1.0 -386.0 52.0 -714.0 246.0 -861.0C287.0 -896.0 335.0 -919.0 350.0 -896.0C355.0 -888.0 353.0 -880.0 327.0 -851.0L342.0 -707.0L328.0 -705.0C318.0 -744.0 304.0 -790.0 294.0 -813.0C287.0 -834.0 282.0 -835.0 265.0 -819.0C84.0 -686.0 42.0 -357.0 44.0 -37.0C70.0 -34.0 79.0 -22.0 81.0 -10.0ZM101.0 -33.0 92.0 -44.0C140.0 -69.0 198.0 -120.0 214.0 -164.0C267.0 -194.0 287.0 -76.0 101.0 -33.0ZM-556.0 -217.0 -547.0 -247.0H321.0C335.0 -247.0 344.0 -242.0 347.0 -231.0C317.0 -203.0 271.0 -167.0 271.0 -167.0L230.0 -217.0Z"/></g>
<g fill="black" opacity=".8" transform="translate(700 200) scale(0.1 -0.1)"><path d="M0.0 0.0C1.0 -380.0 54.0 -708.0 247.0 -862.0C288.0 -898.0 337.0 -922.0 355.0 -897.0C360.0 -889.0 358.0 -879.0 331.0 -848.0L347.0 -703.0L334.0 -701.0C322.0 -740.0 308.0 -786.0 298.0 -809.0C291.0 -830.0 286.0 -831.0 269.0 -814.0C89.0 -678.0 46.0 -352.0 48.0 -38.0C74.0 -34.0 82.0 -23.0 84.0 -10.0ZM108.0 -35.0 98.0 -46.0C145.0 -70.0 203.0 -117.0 224.0 -156.0C277.0 -183.0 295.0 -70.0 108.0 -35.0ZM-549.0 -212.0 -539.0 -241.0 329.0 -244.0C343.0 -245.0 353.0 -240.0 356.0 -228.0C325.0 -202.0 280.0 -165.0 280.0 -165.0L238.0 -215.0Z"/></g>
<g fill="red" transform="translate(800 200) scale(0.1 -0.1)"><path d="M0.0 0.0C1.0 -357.0 13.0 -668.0 210.0 -879.0C252.0 -922.0 343.0 -975.0 403.0 -925.0C425.0 -906.0 419.0 -863.0 383.0 -791.0L409.0 -611.0L399.0 -609.0C378.0 -653.0 348.0 -709.0 330.0 -736.0C320.0 -753.0 313.0 -753.0 300.0 -739.0C150.0 -597.0 141.0 -329.0 148.0 -47.0C174.0 -43.0 182.0 -31.0 183.0 -18.0ZM197.0 -31.0 190.0 -37.0C224.0 -66.0 266.0 -118.0 282.0 -165.0C402.0 -223.0 473.0 -2.0 197.0 -31.0ZM-535.0 -234.0 -527.0 -262.0H388.0C403.0 -262.0 414.0 -257.0 417.0 -246.0C365.0 -203.0 281.0 -142.0 281.0 -142.0L206.0 -234.0Z"/></g>
<g fill="black" opacity=".8" transform="translate(800 200) scale(0.1 -0.1)"><path d="M0.0 0.0C1.0 -357.0 12.0 -670.0 206.0 -884.0C247.0 -927.0 339.0 -981.0 400.0 -931.0C422.0 -912.0 415.0 -869.0 380.0 -796.0L407.0 -615.0L397.0 -613.0C375.0 -657.0 345.0 -713.0 327.0 -740.0C317.0 -757.0 310.0 -757.0 297.0 -744.0C149.0 -599.0 141.0 -329.0 147.0 -47.0C174.0 -43.0 182.0 -31.0 183.0 -18.0ZM190.0 -35.0 182.0 -41.0C213.0 -70.0 249.0 -119.0 263.0 -166.0C379.0 -227.0 459.0 -13.0 190.0 -35.0ZM-535.0 -232.0 -526.0 -260.0 383.0 -263.0C397.0 -263.0 409.0 -259.0 411.0 -247.0C360.0 -204.0 274.0 -142.0 274.0 -142.0L199.0 -235.0Z"/></g>
<g fill="red" transform="translate(900 200) scale(0.1 -0.1)"><path d="M0.0 0.0C1.0 -366.0 60.0 -692.0 249.0 -858.0C291.0 -896.0 342.0 -922.0 360.0 -897.0C367.0 -889.0 364.0 -878.0 337.0 -845.0L353.0 -698.0L340.0 -696.0C329.0 -735.0 314.0 -781.0 303.0 -804.0C296.0 -825.0 290.0 -826.0 274.0 -809.0C97.0 -663.0 48.0 -337.0 51.0 -38.0C76.0 -34.0 85.0 -23.0 87.0 -10.0ZM110.0 -21.0 101.0 -32.0C139.0 -54.0 190.0 -95.0 212.0 -125.0C260.0 -146.0 281.0 -54.0 110.0 -21.0ZM-540.0 -156.0 -531.0 -186.0H342.0C355.0 -186.0 365.0 -181.0 368.0 -170.0C338.0 -142.0 292.0 -106.0 292.0 -106.0L250.0 -156.0Z"/></g>
<g fill="black" opacity=".8" transform="translate(900 200) scale(0.1 -0.1)"><path d="M0.0 0.0C1.0 -367.0 60.0 -694.0 249.0 -858.0C291.0 -896.0 341.0 -921.0 359.0 -897.0C366.0 -889.0 363.0 -878.0 336.0 -846.0L351.0 -700.0L339.0 -698.0C327.0 -737.0 313.0 -783.0 302.0 -805.0C295.0 -827.0 290.0 -828.0 273.0 -811.0C95.0 -666.0 47.0 -339.0 50.0 -38.0C74.0 -34.0 83.0 -23.0 85.0 -10.0ZM109.0 -19.0 100.0 -30.0C138.0 -53.0 188.0 -95.0 209.0 -127.0C258.0 -150.0 280.0 -55.0 109.0 -19.0ZM-543.0 -158.0 -533.0 -188.0 339.0 -186.0C352.0 -186.0 363.0 -182.0 365.0 -170.0C335.0 -142.0 289.0 -107.0 289.0 -107.0L247.0 -157.0Z"/></g>
<g fill="red" transform="translate(1000 200) scale(0.1 -0.1)"><path d="M0.0 0.0C1.0 -359.0 13.0 -670.0 210.0 -882.0C251.0 -926.0 343.0 -979.0 403.0 -929.0C425.0 -910.0 419.0 -867.0 383.0 -795.0L409.0 -614.0L399.0 -612.0C378.0 -656.0 348.0 -712.0 330.0 -740.0C320.0 -756.0 313.0 -756.0 300.0 -742.0C150.0 -599.0 141.0 -330.0 148.0 -47.0C174.0 -43.0 182.0 -31.0 184.0 -18.0ZM193.0 -24.0 186.0 -30.0C217.0 -56.0 255.0 -104.0 270.0 -147.0C387.0 -202.0 456.0 11.0 193.0 -24.0ZM-535.0 -171.0 -527.0 -199.0H386.0C401.0 -199.0 412.0 -194.0 415.0 -183.0C364.0 -142.0 283.0 -84.0 283.0 -84.0L211.0 -171.0Z"/></g>
<g fill="black" opacity=".8" transform="translate(1000 200) scale(0.1 -0.1)"><path d="M0.0 0.0C1.0 -359.0 13.0 -669.0 211.0 -881.0C252.0 -924.0 344.0 -977.0 404.0 -926.0C426.0 -907.0 419.0 -864.0 384.0 -793.0L410.0 -612.0L400.0 -610.0C379.0 -654.0 348.0 -710.0 331.0 -738.0C321.0 -754.0 314.0 -754.0 300.0 -740.0C150.0 -598.0 141.0 -330.0 148.0 -48.0C174.0 -43.0 181.0 -31.0 183.0 -18.0ZM196.0 -22.0 188.0 -29.0C221.0 -55.0 261.0 -103.0 277.0 -147.0C396.0 -201.0 461.0 15.0 196.0 -22.0ZM-535.0 -172.0 -527.0 -201.0 388.0 -198.0C402.0 -198.0 414.0 -194.0 417.0 -182.0C366.0 -141.0 285.0 -83.0 285.0 -83.0L213.0 -171.0Z"/></g>
<g fill="red" transform="translate(1100 200) scale(0.1 -0.1)"><path d="M0.0 0.0C51.0 -152.0 194.0 -279.0 407.0 -338.0C459.0 -351.0 506.0 -358.0 514.0 -333.0C518.0 -323.0 514.0 -316.0 488.0 -301.0L490.0 -209.0H478.0C470.0 -239.0 460.0 -272.0 452.0 -287.0C447.0 -298.0 438.0 -299.0 419.0 -295.0C228.0 -252.0 105.0 -133.0 62.0 -28.0C79.0 -25.0 87.0 -15.0 88.0 -5.0ZM168.0 -6.0 160.0 -19.0C208.0 -34.0 270.0 -67.0 298.0 -93.0C350.0 -107.0 354.0 -9.0 168.0 -6.0ZM-388.0 -137.0 -379.0 -166.0 469.0 -144.0C482.0 -144.0 492.0 -139.0 494.0 -127.0C466.0 -102.0 418.0 -67.0 418.0 -67.0L379.0 -118.0Z"/></g>
<g fill="black" opacity=".8" transform="translate(1100 200) scale(0.1 -0.1)"><path d="M0.0 0.0C52.0 -151.0 195.0 -279.0 408.0 -338.0C459.0 -351.0 505.0 -358.0 515.0 -333.0C519.0 -324.0 514.0 -316.0 488.0 -300.0L490.0 -209.0H478.0C469.0 -239.0 460.0 -272.0 452.0 -286.0C447.0 -298.0 439.0 -299.0 419.0 -294.0C228.0 -252.0 105.0 -133.0 62.0 -27.0C79.0 -26.0 87.0 -14.0 88.0 -4.0ZM169.0 -7.0 160.0 -18.0C209.0 -35.0 270.0 -67.0 299.0 -93.0C351.0 -106.0 355.0 -8.0 169.0 -7.0ZM-389.0 -137.0 -378.0 -164.0 469.0 -143.0C482.0 -144.0 492.0 -140.0 495.0 -126.0C466.0 -102.0 418.0 -67.0 418.0 -67.0L379.0 -118.0Z"/></g>
<g fill="red" transform="translate(1200 200) scale(0.1 -0.1)"><path d="M0.0 0.0C49.0 -167.0 141.0 -308.0 361.0 -388.0C420.0 -409.0 511.0 -423.0 536.0 -367.0C547.0 -344.0 542.0 -327.0 496.0 -290.0L505.0 -184.0L496.0 -182.0C482.0 -215.0 461.0 -254.0 448.0 -273.0C440.0 -283.0 430.0 -282.0 410.0 -277.0C257.0 -234.0 188.0 -138.0 147.0 -36.0C167.0 -32.0 176.0 -21.0 177.0 -9.0ZM216.0 -3.0 208.0 -9.0C230.0 -32.0 254.0 -73.0 258.0 -111.0C354.0 -174.0 445.0 3.0 216.0 -3.0ZM-395.0 -153.0 -387.0 -180.0 505.0 -158.0C518.0 -158.0 530.0 -152.0 532.0 -141.0C487.0 -104.0 413.0 -53.0 413.0 -53.0L350.0 -134.0Z"/></g>
<g fill="black" opacity=".8" transform="translate(1200 200) scale(0.1 -0.1)"><path d="M0.0 0.0C49.0 -167.0 141.0 -309.0 360.0 -388.0C420.0 -409.0 511.0 -423.0 536.0 -366.0C547.0 -344.0 541.0 -326.0 495.0 -290.0L505.0 -184.0L497.0 -182.0C482.0 -214.0 460.0 -253.0 448.0 -273.0C440.0 -283.0 430.0 -282.0 409.0 -278.0C257.0 -234.0 188.0 -139.0 147.0 -36.0C167.0 -31.0 176.0 -21.0 177.0 -9.0ZM216.0 -3.0 208.0 -9.0C230.0 -33.0 253.0 -73.0 257.0 -111.0C355.0 -175.0 445.0 3.0 216.0 -3.0ZM-395.0 -153.0 -387.0 -180.0 506.0 -158.0C517.0 -158.0 531.0 -152.0 531.0 -141.0C487.0 -103.0 414.0 -53.0 414.0 -53.0L350.0 -134.0Z"/></g>
</svg>
