<?xml version="1.0" encoding="UTF-8"?>
<svg width="1700" height="800" xmlns="http://www.w3.org/2000/svg">
<rect width="100%" height="100%" fill="white"/>
<g fill="green" transform="translate(100 100) scale(0.1 -0.1)"><path d="M-0.0 -0.0 -57.0 21.0 -89.0 -19.0V-624.0H-79.0C-59.0 -624.0 -37.0 -610.0 -36.0 -604.0V-22.0C-16.0 -19.0 -4.0 -11.0 -0.0 -0.0ZM658.0 -30.0 565.0 -6.0C529.0 -155.0 458.0 -283.0 343.0 -355.0L358.0 -370.0C489.0 -308.0 571.0 -190.0 616.0 -51.0C642.0 -52.0 655.0 -44.0 658.0 -30.0ZM93.0 381.0 22.0 460.0C-94.0 454.0 -322.0 412.0 -516.0 394.0L-525.0 367.0C-317.0 376.0 -92.0 396.0 41.0 393.0C68.0 377.0 81.0 371.0 93.0 381.0Z"/></g>
<g fill="green" transform="translate(200 100) scale(0.1 -0.1)"><path d="M0.0 0.0 -173.0 64.0 -212.0 12.0V-660.0H-179.0C-101.0 -660.0 -37.0 -613.0 -37.0 -595.0V-23.0C-12.0 -19.0 -4.0 -12.0 0.0 0.0ZM683.0 -30.0 477.0 4.0C454.0 -153.0 393.0 -295.0 289.0 -384.0L300.0 -394.0C465.0 -331.0 570.0 -218.0 638.0 -55.0C665.0 -55.0 678.0 -46.0 683.0 -30.0ZM44.0 298.0 -108.0 492.0C-210.0 465.0 -418.0 391.0 -598.0 354.0L-664.0 337.0C-436.0 326.0 -183.0 320.0 -24.0 310.0C13.0 291.0 30.0 291.0 44.0 298.0Z"/></g>
<g fill="green" transform="translate(300 100) scale(0.1 -0.1)"><path d="M0.0 0.0 -41.0 15.0 -64.0 -14.0V-447.0H-57.0C-42.0 -447.0 -26.0 -437.0 -26.0 -433.0V-16.0C-12.0 -14.0 -3.0 -8.0 0.0 0.0ZM590.0 -73.0 523.0 -60.0C502.0 -172.0 461.0 -253.0 379.0 -294.0L389.0 -304.0C483.0 -271.0 533.0 -196.0 561.0 -90.0C579.0 -90.0 589.0 -83.0 590.0 -73.0ZM13.0 262.0 -34.0 329.0C-135.0 351.0 -333.0 345.0 -499.0 350.0L-513.0 327.0C-336.0 316.0 -142.0 305.0 -26.0 278.0C-7.0 263.0 3.0 256.0 13.0 262.0Z"/></g>
<g fill="green" transform="translate(400 100) scale(0.1 -0.1)"><path d="M0.0 0.0 -129.0 48.0 -154.0 13.0V-482.0H-130.0C-72.0 -482.0 -26.0 -447.0 -26.0 -433.0V-16.0C-8.0 -14.0 -3.0 -9.0 0.0 0.0ZM619.0 -72.0 469.0 -64.0C457.0 -183.0 422.0 -272.0 347.0 -326.0L355.0 -333.0C475.0 -294.0 543.0 -220.0 587.0 -92.0C606.0 -91.0 615.0 -85.0 619.0 -72.0ZM-31.0 180.0 -129.0 347.0C-219.0 349.0 -402.0 316.0 -558.0 304.0L-631.0 290.0C-439.0 263.0 -221.0 231.0 -85.0 197.0C-56.0 179.0 -43.0 177.0 -31.0 180.0Z"/></g>
<g fill="green" transform="translate(500 100) scale(0.1 -0.1)"><path d="M-0.0 -0.0 -46.0 18.0 -71.0 -13.0V-491.0H-63.0C-47.0 -491.0 -29.0 -481.0 -29.0 -476.0V-17.0C-13.0 -15.0 -3.0 -8.0 0.0 -0.0ZM681.0 -205.0 609.0 -191.0C594.0 -288.0 559.0 -345.0 457.0 -367.0L467.0 -380.0C581.0 -366.0 626.0 -314.0 649.0 -222.0C669.0 -222.0 680.0 -217.0 681.0 -205.0ZM619.0 312.0 569.0 372.0C464.0 375.0 266.0 377.0 104.0 394.0L99.0 374.0C265.0 351.0 453.0 332.0 576.0 322.0C595.0 310.0 611.0 305.0 619.0 312.0Z"/></g>
<g fill="green" transform="translate(600 100) scale(0.1 -0.1)"><path d="M0.0 0.0 -140.0 52.0 -166.0 16.0V-527.0H-140.0C-78.0 -527.0 -29.0 -489.0 -29.0 -474.0V-18.0C-10.0 -15.0 -4.0 -9.0 0.0 0.0ZM710.0 -191.0H550.0C546.0 -299.0 521.0 -367.0 434.0 -405.0L441.0 -414.0C576.0 -389.0 636.0 -329.0 672.0 -211.0C695.0 -211.0 706.0 -206.0 710.0 -191.0ZM603.0 251.0 492.0 387.0C400.0 365.0 220.0 342.0 79.0 341.0L46.0 329.0C206.0 303.0 407.0 274.0 530.0 263.0C564.0 244.0 587.0 242.0 603.0 251.0Z"/></g>
<g fill="green" transform="translate(700 100) scale(0.1 -0.1)"><path d="M0.0 -0.0 -61.0 22.0 -99.0 -26.0V-704.0H-88.0C-66.0 -704.0 -41.0 -688.0 -40.0 -681.0V-25.0C-18.0 -21.0 -5.0 -13.0 0.0 -0.0ZM126.0 -101.0 26.0 -52.0C-44.0 -152.0 -186.0 -290.0 -347.0 -369.0L-333.0 -388.0C-153.0 -318.0 -3.0 -199.0 76.0 -111.0C107.0 -119.0 119.0 -115.0 126.0 -101.0ZM202.0 419.0 124.0 505.0C-11.0 477.0 -278.0 410.0 -501.0 378.0L-504.0 348.0C-266.0 370.0 -8.0 415.0 144.0 431.0C174.0 413.0 188.0 408.0 202.0 419.0Z"/></g>
<g fill="green" transform="translate(800 100) scale(0.1 -0.1)"><path d="M0.0 0.0 -194.0 71.0 -243.0 7.0V-737.0H-205.0C-116.0 -737.0 -41.0 -685.0 -41.0 -664.0V-26.0C-13.0 -22.0 -4.0 -14.0 0.0 0.0ZM114.0 -145.0 -121.0 -25.0C-181.0 -139.0 -311.0 -316.0 -464.0 -423.0L-456.0 -436.0C-237.0 -371.0 -55.0 -257.0 63.0 -162.0C96.0 -166.0 107.0 -159.0 114.0 -145.0ZM155.0 326.0 -31.0 544.0C-149.0 499.0 -387.0 401.0 -592.0 350.0L-634.0 332.0C-380.0 325.0 -98.0 335.0 78.0 336.0C119.0 317.0 140.0 318.0 155.0 326.0Z"/></g>
<g fill="green" transform="translate(900 100) scale(0.1 -0.1)"><path d="M0.0 0.0 -57.0 22.0 -83.0 -11.0V-576.0H-74.0C-55.0 -576.0 -35.0 -563.0 -34.0 -557.0V-20.0C-15.0 -18.0 -3.0 -10.0 0.0 0.0ZM591.0 489.0 498.0 508.0C476.0 329.0 433.0 140.0 403.0 10.0L423.0 0.0C468.0 118.0 521.0 296.0 552.0 464.0C578.0 465.0 589.0 476.0 591.0 489.0ZM109.0 370.0 38.0 429.0C-35.0 441.0 -177.0 408.0 -291.0 394.0L-289.0 377.0C-165.0 385.0 -22.0 394.0 63.0 373.0C87.0 362.0 100.0 359.0 109.0 370.0Z"/></g>
<g fill="green" transform="translate(1000 100) scale(0.1 -0.1)"><path d="M0.0 0.0 -156.0 58.0 -192.0 10.0V-610.0H-162.0C-93.0 -610.0 -35.0 -567.0 -35.0 -552.0V-21.0C-12.0 -18.0 -4.0 -11.0 0.0 0.0ZM599.0 478.0 419.0 523.0C404.0 347.0 361.0 154.0 334.0 17.0L350.0 10.0C429.0 120.0 504.0 272.0 559.0 453.0C582.0 454.0 594.0 464.0 599.0 478.0ZM73.0 320.0 -75.0 462.0C-135.0 455.0 -257.0 395.0 -361.0 368.0L-379.0 358.0C-245.0 353.0 -84.0 351.0 13.0 320.0C47.0 307.0 62.0 310.0 73.0 320.0Z"/></g>
<g fill="green" transform="translate(1100 100) scale(0.1 -0.1)"><path d="M-0.0 -0.0 -61.0 23.0 -99.0 -26.0V-708.0H-88.0C-66.0 -708.0 -41.0 -692.0 -40.0 -686.0V-24.0C-18.0 -21.0 -5.0 -12.0 0.0 0.0ZM649.0 -86.0 553.0 -50.0C514.0 -153.0 451.0 -255.0 408.0 -315.0L425.0 -332.0C479.0 -284.0 551.0 -196.0 601.0 -102.0C630.0 -105.0 644.0 -98.0 649.0 -86.0ZM-45.0 461.0 -149.0 505.0C-168.0 403.0 -211.0 265.0 -265.0 174.0L-249.0 160.0C-176.0 242.0 -117.0 359.0 -91.0 445.0C-61.0 440.0 -52.0 445.0 -45.0 461.0Z"/></g>
<g fill="green" transform="translate(1200 100) scale(0.1 -0.1)"><path d="M0.0 0.0 -185.0 69.0 -227.0 13.0V-750.0H-192.0C-108.0 -750.0 -41.0 -696.0 -41.0 -677.0V-25.0C-14.0 -21.0 -5.0 -13.0 0.0 0.0ZM678.0 -89.0 469.0 -33.0C439.0 -161.0 381.0 -283.0 344.0 -357.0L356.0 -369.0C441.0 -317.0 544.0 -232.0 622.0 -109.0C655.0 -112.0 671.0 -105.0 678.0 -89.0ZM-71.0 432.0 -281.0 528.0C-296.0 412.0 -337.0 245.0 -391.0 139.0L-392.0 129.0C-276.0 204.0 -178.0 312.0 -111.0 412.0C-82.0 409.0 -75.0 419.0 -71.0 432.0Z"/></g>
<g fill="green" transform="translate(1300 100) scale(0.1 -0.1)"><path d="M-0.0 0.0 -65.0 25.0 -88.0 -4.0V-594.0H-79.0C-59.0 -594.0 -37.0 -580.0 -36.0 -574.0V-21.0C-15.0 -19.0 -3.0 -11.0 0.0 0.0ZM744.0 -36.0 671.0 3.0C573.0 -137.0 386.0 -243.0 193.0 -293.0L203.0 -311.0C407.0 -273.0 593.0 -174.0 699.0 -44.0C723.0 -51.0 738.0 -48.0 744.0 -36.0ZM139.0 408.0 69.0 488.0C-76.0 395.0 -365.0 280.0 -628.0 207.0L-648.0 175.0C-364.0 234.0 -75.0 336.0 87.0 421.0C114.0 404.0 125.0 398.0 139.0 408.0Z"/></g>
<g fill="green" transform="translate(1400 100) scale(0.1 -0.1)"><path d="M0.0 0.0 -168.0 62.0 -209.0 9.0V-612.0H-176.0C-106.0 -612.0 -38.0 -574.0 -37.0 -559.0V-23.0C-14.0 -19.0 -5.0 -12.0 0.0 0.0ZM766.0 -49.0 601.0 25.0C515.0 -121.0 338.0 -234.0 142.0 -293.0L149.0 -307.0C387.0 -281.0 586.0 -198.0 711.0 -59.0C738.0 -67.0 757.0 -63.0 766.0 -49.0ZM97.0 328.0 -47.0 528.0C-168.0 415.0 -429.0 260.0 -686.0 161.0L-801.0 139.0C-468.0 174.0 -156.0 245.0 38.0 343.0C72.0 324.0 85.0 325.0 97.0 328.0Z"/></g>
<g fill="green" transform="translate(1500 100) scale(0.1 -0.1)"><path d="M0.0 -0.0 -54.0 20.0 -83.0 -17.0V-574.0H-73.0C-55.0 -574.0 -35.0 -560.0 -34.0 -555.0V-21.0C-15.0 -17.0 -4.0 -11.0 -0.0 -0.0ZM687.0 9.0 598.0 28.0C542.0 -182.0 430.0 -350.0 240.0 -443.0L254.0 -457.0C463.0 -374.0 586.0 -212.0 648.0 -14.0C672.0 -14.0 684.0 -5.0 687.0 9.0ZM59.0 388.0 -8.0 447.0C-109.0 447.0 -303.0 411.0 -459.0 408.0L-448.0 393.0C-285.0 391.0 -97.0 401.0 13.0 390.0C37.0 378.0 50.0 376.0 59.0 388.0Z"/></g>
<g fill="green" transform="translate(1600 100) scale(0.1 -0.1)"><path d="M0.0 0.0 -165.0 61.0 -207.0 5.0V-590.0H-175.0C-102.0 -590.0 -36.0 -552.0 -35.0 -536.0V-22.0C-11.0 -18.0 -4.0 -11.0 0.0 0.0ZM719.0 16.0 506.0 34.0C468.0 -178.0 369.0 -361.0 187.0 -472.0L197.0 -481.0C454.0 -401.0 597.0 -243.0 681.0 -13.0C705.0 -12.0 717.0 0.0 719.0 16.0ZM18.0 343.0 -137.0 492.0C-234.0 471.0 -420.0 408.0 -577.0 389.0L-562.0 380.0C-384.0 365.0 -175.0 367.0 -42.0 344.0C-11.0 330.0 6.0 333.0 18.0 343.0Z"/></g>
<g fill="green" transform="translate(100 200) scale(0.1 -0.1)"><path d="M0.0 0.0 -57.0 22.0 -90.0 -19.0V-630.0H-80.0C-59.0 -630.0 -37.0 -616.0 -36.0 -610.0V-22.0C-16.0 -19.0 -4.0 -11.0 -0.0 -0.0ZM639.0 20.0 537.0 35.0C521.0 -161.0 482.0 -337.0 364.0 -443.0L382.0 -456.0C518.0 -359.0 571.0 -194.0 597.0 -9.0C624.0 -7.0 637.0 4.0 639.0 20.0ZM110.0 377.0 36.0 461.0C-88.0 434.0 -332.0 371.0 -541.0 332.0L-554.0 300.0C-330.0 327.0 -90.0 369.0 55.0 389.0C84.0 374.0 98.0 367.0 110.0 377.0Z"/></g>
<g fill="green" transform="translate(200 200) scale(0.1 -0.1)"><path d="M0.0 0.0 -173.0 64.0 -206.0 20.0V-689.0H-175.0C-97.0 -689.0 -37.0 -639.0 -37.0 -621.0V-23.0C-12.0 -18.0 -4.0 -12.0 0.0 0.0ZM655.0 23.0 428.0 35.0C433.0 -168.0 417.0 -366.0 328.0 -496.0L342.0 -504.0C509.0 -396.0 574.0 -229.0 614.0 -11.0C641.0 -7.0 652.0 5.0 655.0 23.0ZM58.0 253.0 -95.0 466.0C-200.0 427.0 -417.0 330.0 -597.0 270.0L-681.0 248.0C-443.0 254.0 -184.0 257.0 -15.0 268.0C23.0 248.0 43.0 247.0 58.0 253.0Z"/></g>
<g fill="green" transform="translate(300 200) scale(0.1 -0.1)"><path d="M0.0 0.0 -55.0 20.0 -90.0 -24.0V-632.0H-79.0C-60.0 -632.0 -37.0 -618.0 -36.0 -611.0V-23.0C-17.0 -19.0 -4.0 -11.0 0.0 0.0ZM626.0 -51.0 526.0 -34.0C502.0 -181.0 454.0 -320.0 370.0 -401.0L388.0 -415.0C489.0 -343.0 552.0 -214.0 585.0 -74.0C613.0 -74.0 623.0 -66.0 626.0 -51.0ZM77.0 382.0 2.0 464.0C-111.0 433.0 -335.0 385.0 -538.0 358.0L-556.0 327.0C-333.0 342.0 -106.0 373.0 26.0 395.0C53.0 378.0 65.0 373.0 77.0 382.0Z"/></g>
<g fill="green" transform="translate(400 200) scale(0.1 -0.1)"><path d="M0.0 0.0 -163.0 60.0 -210.0 -4.0V-620.0H-178.0C-103.0 -620.0 -38.0 -577.0 -37.0 -560.0V-24.0C-12.0 -19.0 -4.0 -12.0 0.0 0.0ZM688.0 -1.0 457.0 22.0C444.0 -132.0 403.0 -273.0 329.0 -360.0L340.0 -368.0C483.0 -307.0 584.0 -189.0 647.0 -29.0C675.0 -26.0 684.0 -17.0 688.0 -1.0ZM75.0 346.0 -96.0 538.0C-194.0 490.0 -402.0 419.0 -597.0 380.0L-704.0 360.0C-436.0 342.0 -160.0 333.0 11.0 358.0C48.0 339.0 62.0 340.0 75.0 346.0Z"/></g>
<g fill="green" transform="translate(500 200) scale(0.1 -0.1)"><path d="M0.0 -0.0 -58.0 22.0 -89.0 -17.0V-629.0H-79.0C-59.0 -629.0 -37.0 -615.0 -36.0 -609.0V-22.0C-16.0 -19.0 -4.0 -11.0 -0.0 -0.0ZM669.0 -37.0 576.0 -9.0C550.0 -164.0 484.0 -292.0 323.0 -368.0L335.0 -385.0C514.0 -320.0 589.0 -202.0 625.0 -60.0C649.0 -61.0 665.0 -52.0 669.0 -37.0ZM121.0 375.0 50.0 452.0C-71.0 450.0 -310.0 396.0 -507.0 368.0L-512.0 341.0C-304.0 360.0 -72.0 392.0 67.0 386.0C95.0 370.0 108.0 364.0 121.0 375.0Z"/></g>
<g fill="green" transform="translate(600 200) scale(0.1 -0.1)"><path d="M0.0 0.0 -164.0 61.0 -207.0 3.0V-654.0H-175.0C-99.0 -654.0 -37.0 -607.0 -37.0 -590.0V-23.0C-12.0 -19.0 -4.0 -11.0 0.0 0.0ZM654.0 -24.0 467.0 10.0C460.0 -137.0 421.0 -275.0 287.0 -368.0L297.0 -381.0C490.0 -318.0 567.0 -210.0 606.0 -53.0C633.0 -52.0 649.0 -41.0 654.0 -24.0ZM17.0 306.0 -122.0 500.0C-227.0 485.0 -439.0 404.0 -615.0 359.0L-664.0 341.0C-453.0 339.0 -207.0 342.0 -53.0 316.0C-15.0 298.0 3.0 299.0 17.0 306.0Z"/></g>
<g fill="red" transform="translate(100 300) scale(0.1 -0.1)"><path d="M0.0 0.0 -57.0 22.0 -74.0 1.0V-491.0H-66.0C-49.0 -491.0 -31.0 -478.0 -30.0 -473.0V-18.0C-13.0 -15.0 -3.0 -9.0 0.0 0.0ZM216.0 199.0 151.0 243.0C34.0 88.0 -198.0 -85.0 -425.0 -188.0L-416.0 -202.0C-174.0 -110.0 55.0 55.0 176.0 196.0C198.0 187.0 207.0 189.0 216.0 199.0ZM141.0 380.0 78.0 424.0C-22.0 314.0 -218.0 182.0 -394.0 104.0L-384.0 89.0C-196.0 158.0 -1.0 278.0 102.0 377.0C123.0 368.0 132.0 370.0 141.0 380.0Z"/></g>
<g fill="black" opacity=".8" transform="translate(100 300) scale(0.1 -0.1)"><path d="M0.0 0.0 -55.0 22.0 -74.0 -3.0V-496.0H-66.0C-50.0 -496.0 -31.0 -483.0 -31.0 -477.0V-19.0C-14.0 -15.0 -3.0 -10.0 0.0 0.0ZM217.0 198.0 153.0 241.0C36.0 86.0 -196.0 -85.0 -424.0 -187.0L-415.0 -202.0C-172.0 -111.0 56.0 50.0 177.0 195.0C199.0 185.0 209.0 188.0 217.0 198.0ZM140.0 377.0 75.0 421.0C-23.0 311.0 -219.0 181.0 -392.0 103.0L-384.0 87.0C-197.0 156.0 -3.0 274.0 101.0 373.0C122.0 364.0 131.0 366.0 140.0 377.0Z"/></g>
<g fill="red" transform="translate(200 300) scale(0.1 -0.1)"><path d="M0.0 0.0 -132.0 48.0 -181.0 -16.0V-462.0H-153.0C-99.0 -462.0 -34.0 -441.0 -32.0 -432.0V-20.0C-13.0 -17.0 -4.0 -10.0 0.0 0.0ZM210.0 177.0 53.0 294.0C-51.0 148.0 -269.0 -41.0 -502.0 -152.0L-496.0 -163.0C-215.0 -100.0 25.0 39.0 169.0 169.0C192.0 162.0 204.0 168.0 210.0 177.0ZM126.0 381.0 -30.0 494.0C-114.0 375.0 -290.0 222.0 -476.0 131.0L-470.0 120.0C-241.0 166.0 -38.0 271.0 86.0 373.0C109.0 367.0 120.0 373.0 126.0 381.0Z"/></g>
<g fill="black" opacity=".8" transform="translate(200 300) scale(0.1 -0.1)"><path d="M0.0 0.0 -134.0 49.0 -181.0 -13.0V-465.0H-153.0C-98.0 -465.0 -34.0 -442.0 -31.0 -431.0V-20.0C-12.0 -17.0 -5.0 -10.0 0.0 0.0ZM211.0 180.0 53.0 295.0C-52.0 145.0 -272.0 -41.0 -507.0 -149.0L-502.0 -161.0C-217.0 -98.0 25.0 35.0 169.0 172.0C193.0 165.0 205.0 170.0 211.0 180.0ZM127.0 377.0 -29.0 493.0C-112.0 377.0 -289.0 225.0 -472.0 133.0L-471.0 123.0C-243.0 167.0 -38.0 268.0 86.0 370.0C110.0 363.0 121.0 371.0 127.0 377.0Z"/></g>
<g fill="red" transform="translate(300 300) scale(0.1 -0.1)"><path d="M0.0 0.0 -47.0 17.0 -74.0 -17.0V-523.0H-66.0C-49.0 -523.0 -31.0 -511.0 -30.0 -506.0V-18.0C-13.0 -16.0 -3.0 -9.0 0.0 0.0ZM90.0 140.0 14.0 176.0C-34.0 74.0 -134.0 -71.0 -233.0 -168.0L-220.0 -181.0C-108.0 -92.0 -4.0 38.0 51.0 130.0C75.0 125.0 84.0 129.0 90.0 140.0ZM83.0 339.0 10.0 378.0C-38.0 299.0 -135.0 189.0 -224.0 117.0L-212.0 103.0C-111.0 167.0 -10.0 263.0 45.0 331.0C67.0 325.0 76.0 329.0 83.0 339.0Z"/></g>
<g fill="black" opacity=".8" transform="translate(300 300) scale(0.1 -0.1)"><path d="M0.0 0.0 -48.0 19.0 -74.0 -16.0V-522.0H-66.0C-49.0 -522.0 -30.0 -510.0 -30.0 -505.0V-19.0C-14.0 -16.0 -4.0 -10.0 0.0 0.0ZM95.0 141.0 19.0 178.0C-32.0 74.0 -139.0 -70.0 -237.0 -166.0L-225.0 -178.0C-113.0 -92.0 -3.0 38.0 56.0 132.0C80.0 126.0 89.0 132.0 95.0 141.0ZM83.0 343.0 10.0 381.0C-39.0 300.0 -141.0 190.0 -231.0 118.0L-219.0 104.0C-116.0 168.0 -11.0 265.0 45.0 335.0C67.0 328.0 76.0 331.0 83.0 343.0Z"/></g>
<g fill="red" transform="translate(400 300) scale(0.1 -0.1)"><path d="M0.0 0.0 -134.0 49.0 -171.0 0.0V-529.0H-145.0C-84.0 -529.0 -31.0 -493.0 -31.0 -479.0V-20.0C-11.0 -16.0 -3.0 -10.0 0.0 0.0ZM83.0 126.0 -82.0 221.0C-126.0 114.0 -225.0 -55.0 -327.0 -164.0L-319.0 -173.0C-170.0 -98.0 -39.0 19.0 44.0 113.0C68.0 110.0 78.0 116.0 83.0 126.0ZM59.0 323.0 -99.0 423.0C-139.0 341.0 -227.0 213.0 -314.0 132.0L-307.0 123.0C-179.0 169.0 -58.0 245.0 21.0 311.0C44.0 307.0 54.0 313.0 59.0 323.0Z"/></g>
<g fill="black" opacity=".8" transform="translate(400 300) scale(0.1 -0.1)"><path d="M0.0 0.0 -133.0 49.0 -171.0 -4.0V-527.0H-145.0C-85.0 -527.0 -31.0 -492.0 -30.0 -479.0V-19.0C-10.0 -17.0 -4.0 -10.0 0.0 0.0ZM78.0 125.0 -88.0 219.0C-132.0 111.0 -225.0 -57.0 -316.0 -164.0L-308.0 -174.0C-169.0 -98.0 -41.0 16.0 39.0 110.0C64.0 108.0 73.0 114.0 78.0 125.0ZM60.0 325.0 -100.0 423.0C-139.0 341.0 -225.0 213.0 -311.0 132.0L-301.0 123.0C-174.0 169.0 -54.0 246.0 21.0 313.0C45.0 309.0 55.0 317.0 60.0 325.0Z"/></g>
<g fill="red" transform="translate(500 300) scale(0.1 -0.1)"><path d="M0.0 0.0 -48.0 18.0 -74.0 -15.0V-521.0H-66.0C-49.0 -521.0 -31.0 -509.0 -30.0 -504.0V-18.0C-13.0 -15.0 -3.0 -9.0 0.0 0.0ZM316.0 308.0 236.0 333.0C191.0 157.0 112.0 -14.0 30.0 -122.0L46.0 -133.0C140.0 -33.0 224.0 123.0 278.0 289.0C301.0 288.0 312.0 297.0 316.0 308.0ZM90.0 343.0 17.0 381.0C-31.0 298.0 -128.0 179.0 -218.0 101.0L-206.0 88.0C-104.0 158.0 -3.0 261.0 52.0 334.0C75.0 329.0 83.0 332.0 90.0 343.0Z"/></g>
<g fill="black" opacity=".8" transform="translate(500 300) scale(0.1 -0.1)"><path d="M0.0 0.0 -50.0 21.0 -74.0 -11.0V-516.0H-66.0C-49.0 -516.0 -30.0 -503.0 -30.0 -498.0V-18.0C-14.0 -16.0 -3.0 -9.0 0.0 0.0ZM321.0 305.0 241.0 330.0C204.0 169.0 123.0 -14.0 34.0 -138.0L50.0 -148.0C153.0 -34.0 238.0 137.0 284.0 287.0C307.0 285.0 317.0 294.0 321.0 305.0ZM86.0 350.0 11.0 388.0C-37.0 305.0 -136.0 191.0 -224.0 113.0L-215.0 99.0C-113.0 168.0 -10.0 267.0 47.0 341.0C70.0 336.0 79.0 338.0 86.0 350.0Z"/></g>
<g fill="red" transform="translate(600 300) scale(0.1 -0.1)"><path d="M0.0 0.0 -134.0 49.0 -171.0 0.0V-525.0H-145.0C-84.0 -525.0 -31.0 -489.0 -31.0 -476.0V-20.0C-11.0 -16.0 -3.0 -10.0 0.0 0.0ZM328.0 312.0 147.0 377.0C119.0 197.0 55.0 7.0 -11.0 -115.0L0.0 -122.0C126.0 -26.0 220.0 111.0 286.0 293.0C310.0 291.0 323.0 299.0 328.0 312.0ZM58.0 326.0 -100.0 425.0C-137.0 344.0 -220.0 217.0 -301.0 136.0L-294.0 126.0C-171.0 173.0 -56.0 249.0 19.0 314.0C43.0 311.0 53.0 317.0 58.0 326.0Z"/></g>
<g fill="black" opacity=".8" transform="translate(600 300) scale(0.1 -0.1)"><path d="M0.0 0.0 -129.0 48.0 -165.0 -1.0V-523.0H-141.0C-84.0 -523.0 -32.0 -489.0 -30.0 -477.0V-19.0C-11.0 -16.0 -4.0 -10.0 0.0 0.0ZM313.0 308.0 145.0 368.0C120.0 211.0 57.0 15.0 -18.0 -117.0L-7.0 -125.0C122.0 -22.0 218.0 129.0 276.0 286.0C299.0 287.0 308.0 295.0 313.0 308.0ZM62.0 331.0 -93.0 427.0C-129.0 344.0 -210.0 212.0 -292.0 125.0V114.0C-166.0 167.0 -52.0 247.0 22.0 320.0C46.0 315.0 57.0 323.0 62.0 331.0Z"/></g>
<g fill="red" transform="translate(700 300) scale(0.1 -0.1)"><path d="M0.0 0.0 -45.0 17.0 -74.0 -20.0V-526.0H-65.0C-49.0 -526.0 -31.0 -514.0 -30.0 -509.0V-18.0C-14.0 -15.0 -4.0 -9.0 0.0 0.0ZM94.0 144.0 18.0 180.0C-32.0 76.0 -135.0 -69.0 -239.0 -164.0L-226.0 -177.0C-109.0 -90.0 -2.0 41.0 55.0 134.0C79.0 130.0 88.0 134.0 94.0 144.0ZM78.0 341.0 5.0 379.0C-40.0 302.0 -133.0 193.0 -220.0 123.0L-208.0 109.0C-109.0 171.0 -12.0 265.0 40.0 332.0C63.0 327.0 71.0 330.0 78.0 341.0Z"/></g>
<g fill="black" opacity=".8" transform="translate(700 300) scale(0.1 -0.1)"><path d="M0.0 0.0 -48.0 19.0 -74.0 -16.0V-523.0H-66.0C-49.0 -523.0 -30.0 -511.0 -30.0 -506.0V-18.0C-14.0 -16.0 -4.0 -10.0 0.0 0.0ZM94.0 140.0 19.0 177.0C-32.0 76.0 -138.0 -66.0 -237.0 -160.0L-225.0 -173.0C-113.0 -88.0 -3.0 39.0 56.0 131.0C79.0 125.0 88.0 130.0 94.0 140.0ZM80.0 342.0 7.0 380.0C-41.0 302.0 -139.0 192.0 -224.0 120.0L-211.0 107.0C-113.0 171.0 -12.0 267.0 42.0 334.0C64.0 327.0 73.0 330.0 80.0 342.0Z"/></g>
<g fill="red" transform="translate(800 300) scale(0.1 -0.1)"><path d="M0.0 0.0 -134.0 50.0 -171.0 2.0V-531.0H-145.0C-84.0 -531.0 -31.0 -494.0 -31.0 -480.0V-19.0C-11.0 -15.0 -3.0 -9.0 0.0 0.0ZM73.0 115.0 -94.0 209.0C-134.0 105.0 -225.0 -57.0 -321.0 -162.0L-313.0 -172.0C-169.0 -101.0 -45.0 10.0 34.0 101.0C58.0 98.0 68.0 105.0 73.0 115.0ZM52.0 319.0 -109.0 419.0C-145.0 337.0 -226.0 210.0 -307.0 128.0L-299.0 119.0C-177.0 165.0 -62.0 241.0 13.0 307.0C37.0 303.0 47.0 310.0 52.0 319.0Z"/></g>
<g fill="black" opacity=".8" transform="translate(800 300) scale(0.1 -0.1)"><path d="M0.0 0.0 -134.0 50.0 -172.0 -2.0V-534.0H-146.0C-85.0 -534.0 -31.0 -498.0 -30.0 -485.0V-19.0C-10.0 -17.0 -4.0 -10.0 0.0 0.0ZM73.0 118.0 -91.0 213.0C-134.0 107.0 -226.0 -59.0 -317.0 -167.0L-309.0 -177.0C-172.0 -101.0 -46.0 11.0 34.0 104.0C58.0 101.0 67.0 107.0 73.0 118.0ZM51.0 320.0 -108.0 417.0C-146.0 337.0 -227.0 210.0 -309.0 129.0L-293.0 119.0C-174.0 167.0 -60.0 245.0 11.0 308.0C36.0 304.0 46.0 312.0 51.0 320.0Z"/></g>
<g fill="red" transform="translate(900 300) scale(0.1 -0.1)"><path d="M0.0 0.0 -47.0 17.0 -74.0 -17.0V-523.0H-66.0C-49.0 -523.0 -31.0 -511.0 -30.0 -506.0V-18.0C-13.0 -16.0 -3.0 -9.0 0.0 0.0ZM92.0 140.0 16.0 176.0C-31.0 75.0 -129.0 -68.0 -226.0 -163.0L-215.0 -176.0C-103.0 -89.0 -1.0 40.0 53.0 130.0C77.0 125.0 86.0 129.0 92.0 140.0ZM628.0 328.0 568.0 380.0C475.0 341.0 297.0 288.0 153.0 263.0L158.0 244.0C307.0 260.0 475.0 297.0 583.0 329.0C603.0 320.0 620.0 320.0 628.0 328.0Z"/></g>
<g fill="black" opacity=".8" transform="translate(900 300) scale(0.1 -0.1)"><path d="M0.0 0.0 -49.0 20.0 -74.0 -12.0V-515.0H-66.0C-49.0 -515.0 -30.0 -504.0 -30.0 -498.0V-18.0C-14.0 -16.0 -3.0 -9.0 0.0 0.0ZM85.0 141.0 7.0 173.0C-33.0 76.0 -123.0 -63.0 -228.0 -154.0L-215.0 -166.0C-95.0 -84.0 1.0 41.0 48.0 130.0C72.0 125.0 80.0 129.0 85.0 141.0ZM629.0 335.0 570.0 385.0C478.0 343.0 302.0 292.0 161.0 268.0L167.0 250.0C314.0 267.0 480.0 303.0 586.0 336.0C606.0 327.0 621.0 326.0 629.0 335.0Z"/></g>
<g fill="red" transform="translate(1000 300) scale(0.1 -0.1)"><path d="M0.0 0.0 -134.0 49.0 -171.0 0.0V-529.0H-145.0C-84.0 -529.0 -31.0 -493.0 -31.0 -479.0V-20.0C-11.0 -16.0 -3.0 -10.0 0.0 0.0ZM67.0 123.0 -100.0 216.0C-137.0 114.0 -221.0 -48.0 -309.0 -154.0L-300.0 -163.0C-165.0 -91.0 -47.0 20.0 28.0 108.0C53.0 106.0 62.0 113.0 67.0 123.0ZM627.0 290.0 486.0 425.0C415.0 378.0 272.0 308.0 161.0 270.0L163.0 259.0C297.0 260.0 455.0 273.0 554.0 291.0C588.0 278.0 613.0 279.0 627.0 290.0Z"/></g>
<g fill="black" opacity=".8" transform="translate(1000 300) scale(0.1 -0.1)"><path d="M0.0 0.0 -136.0 50.0 -171.0 2.0V-528.0H-145.0C-84.0 -528.0 -31.0 -492.0 -30.0 -479.0V-19.0C-11.0 -16.0 -4.0 -10.0 0.0 0.0ZM66.0 124.0 -106.0 211.0C-137.0 111.0 -215.0 -53.0 -307.0 -159.0L-299.0 -168.0C-155.0 -93.0 -41.0 21.0 28.0 108.0C54.0 107.0 61.0 112.0 66.0 124.0ZM627.0 299.0 483.0 420.0C409.0 368.0 262.0 300.0 141.0 264.0L147.0 253.0C290.0 256.0 459.0 274.0 559.0 299.0C592.0 287.0 614.0 289.0 627.0 299.0Z"/></g>
<g fill="red" transform="translate(1100 300) scale(0.1 -0.1)"><path d="M0.0 0.0 -45.0 17.0 -74.0 -20.0V-541.0H-65.0C-49.0 -541.0 -31.0 -528.0 -30.0 -523.0V-18.0C-14.0 -15.0 -4.0 -9.0 0.0 0.0ZM100.0 143.0 24.0 179.0C-24.0 78.0 -124.0 -65.0 -223.0 -160.0L-210.0 -173.0C-98.0 -86.0 6.0 42.0 61.0 133.0C85.0 128.0 94.0 132.0 100.0 143.0ZM80.0 325.0 6.0 363.0C-37.0 287.0 -126.0 180.0 -210.0 111.0L-197.0 98.0C-102.0 158.0 -8.0 250.0 42.0 317.0C64.0 311.0 73.0 315.0 80.0 325.0Z"/></g>
<g fill="black" opacity=".8" transform="translate(1100 300) scale(0.1 -0.1)"><path d="M0.0 0.0 -47.0 19.0 -74.0 -18.0V-527.0H-65.0C-50.0 -527.0 -30.0 -515.0 -30.0 -509.0V-19.0C-15.0 -16.0 -4.0 -10.0 0.0 0.0ZM91.0 149.0 13.0 184.0C-29.0 82.0 -122.0 -66.0 -220.0 -167.0L-208.0 -180.0C-95.0 -88.0 3.0 45.0 53.0 139.0C76.0 133.0 85.0 139.0 91.0 149.0ZM83.0 343.0 9.0 378.0C-34.0 295.0 -124.0 183.0 -206.0 109.0L-194.0 96.0C-98.0 161.0 -4.0 261.0 47.0 333.0C68.0 327.0 76.0 331.0 83.0 343.0Z"/></g>
<g fill="red" transform="translate(1200 300) scale(0.1 -0.1)"><path d="M0.0 0.0 -116.0 43.0 -171.0 -30.0V-495.0H-145.0C-87.0 -495.0 -33.0 -463.0 -31.0 -451.0V-20.0C-12.0 -16.0 -3.0 -9.0 0.0 0.0ZM77.0 177.0 -95.0 253.0C-129.0 152.0 -208.0 -7.0 -293.0 -110.0L-285.0 -119.0C-152.0 -49.0 -31.0 68.0 39.0 160.0C64.0 160.0 73.0 167.0 77.0 177.0ZM65.0 369.0 -102.0 453.0C-134.0 374.0 -207.0 256.0 -285.0 182.0L-278.0 173.0C-157.0 212.0 -41.0 286.0 28.0 354.0C52.0 352.0 61.0 359.0 65.0 369.0Z"/></g>
<g fill="black" opacity=".8" transform="translate(1200 300) scale(0.1 -0.1)"><path d="M0.0 0.0 -122.0 45.0 -169.0 -19.0V-495.0H-144.0C-86.0 -495.0 -32.0 -463.0 -30.0 -451.0V-19.0C-10.0 -17.0 -4.0 -9.0 0.0 0.0ZM79.0 167.0 -90.0 256.0C-124.0 159.0 -200.0 -2.0 -288.0 -107.0L-280.0 -117.0C-144.0 -46.0 -27.0 63.0 41.0 149.0C66.0 149.0 74.0 156.0 79.0 167.0ZM62.0 371.0 -104.0 458.0C-137.0 376.0 -213.0 256.0 -295.0 179.0L-285.0 170.0C-160.0 211.0 -44.0 288.0 26.0 356.0C50.0 353.0 58.0 362.0 62.0 371.0Z"/></g>
<g fill="red" transform="translate(1300 300) scale(0.1 -0.1)"><path d="M0.0 0.0 -48.0 18.0 -74.0 -15.0V-521.0H-66.0C-49.0 -521.0 -31.0 -509.0 -30.0 -504.0V-18.0C-13.0 -15.0 -3.0 -9.0 0.0 0.0ZM88.0 143.0 11.0 178.0C-33.0 79.0 -126.0 -62.0 -218.0 -156.0L-205.0 -169.0C-100.0 -82.0 -3.0 44.0 49.0 132.0C72.0 128.0 81.0 132.0 88.0 143.0ZM76.0 343.0 2.0 381.0C-43.0 300.0 -134.0 183.0 -219.0 106.0L-207.0 93.0C-109.0 162.0 -14.0 263.0 37.0 334.0C60.0 329.0 69.0 333.0 76.0 343.0Z"/></g>
<g fill="black" opacity=".8" transform="translate(1300 300) scale(0.1 -0.1)"><path d="M0.0 0.0 -47.0 19.0 -74.0 -17.0V-523.0H-66.0C-49.0 -523.0 -30.0 -511.0 -30.0 -506.0V-19.0C-14.0 -16.0 -4.0 -10.0 0.0 0.0ZM90.0 141.0 14.0 177.0C-34.0 79.0 -133.0 -63.0 -217.0 -157.0L-204.0 -169.0C-106.0 -84.0 -4.0 43.0 52.0 132.0C75.0 126.0 84.0 131.0 90.0 141.0ZM78.0 341.0 5.0 379.0C-41.0 297.0 -135.0 186.0 -221.0 113.0L-210.0 99.0C-110.0 164.0 -12.0 261.0 41.0 333.0C63.0 326.0 71.0 330.0 78.0 341.0Z"/></g>
<g fill="red" transform="translate(1400 300) scale(0.1 -0.1)"><path d="M0.0 0.0 -134.0 49.0 -171.0 0.0V-525.0H-145.0C-84.0 -525.0 -31.0 -489.0 -31.0 -476.0V-20.0C-11.0 -16.0 -3.0 -10.0 0.0 0.0ZM78.0 127.0 -88.0 221.0C-126.0 120.0 -213.0 -43.0 -301.0 -149.0L-293.0 -158.0C-157.0 -85.0 -38.0 26.0 39.0 113.0C63.0 110.0 73.0 117.0 78.0 127.0ZM64.0 326.0 -94.0 425.0C-132.0 344.0 -217.0 217.0 -300.0 136.0L-292.0 126.0C-168.0 173.0 -51.0 249.0 25.0 314.0C49.0 310.0 59.0 317.0 64.0 326.0Z"/></g>
<g fill="black" opacity=".8" transform="translate(1400 300) scale(0.1 -0.1)"><path d="M0.0 0.0 -131.0 49.0 -170.0 -5.0V-525.0H-145.0C-85.0 -525.0 -31.0 -490.0 -30.0 -477.0V-19.0C-10.0 -16.0 -4.0 -10.0 0.0 0.0ZM78.0 129.0 -89.0 222.0C-130.0 119.0 -217.0 -44.0 -295.0 -149.0L-287.0 -158.0C-162.0 -84.0 -39.0 26.0 40.0 114.0C65.0 113.0 73.0 118.0 78.0 129.0ZM61.0 328.0 -101.0 425.0C-136.0 340.0 -215.0 214.0 -298.0 133.0L-293.0 123.0C-166.0 169.0 -50.0 246.0 23.0 316.0C48.0 312.0 57.0 320.0 61.0 328.0Z"/></g>
<g fill="red" transform="translate(1500 300) scale(0.1 -0.1)"><path d="M0.0 0.0 -45.0 17.0 -74.0 -20.0V-526.0H-65.0C-49.0 -526.0 -31.0 -514.0 -30.0 -509.0V-18.0C-14.0 -15.0 -4.0 -9.0 0.0 0.0ZM102.0 145.0 26.0 180.0C-23.0 76.0 -124.0 -68.0 -226.0 -164.0L-213.0 -177.0C-98.0 -89.0 8.0 41.0 63.0 134.0C87.0 130.0 96.0 134.0 102.0 145.0ZM81.0 347.0 7.0 385.0C-37.0 307.0 -128.0 196.0 -214.0 124.0L-201.0 111.0C-104.0 174.0 -9.0 270.0 42.0 338.0C65.0 333.0 74.0 337.0 81.0 347.0Z"/></g>
<g fill="black" opacity=".8" transform="translate(1500 300) scale(0.1 -0.1)"><path d="M0.0 0.0 -48.0 19.0 -75.0 -17.0V-528.0H-66.0C-50.0 -528.0 -30.0 -516.0 -30.0 -510.0V-19.0C-14.0 -16.0 -4.0 -10.0 0.0 0.0ZM97.0 140.0 21.0 176.0C-28.0 77.0 -129.0 -65.0 -217.0 -159.0L-204.0 -171.0C-103.0 -86.0 2.0 41.0 59.0 131.0C83.0 125.0 91.0 130.0 97.0 140.0ZM86.0 345.0 12.0 383.0C-33.0 302.0 -127.0 192.0 -211.0 120.0L-199.0 106.0C-101.0 170.0 -4.0 266.0 49.0 337.0C71.0 330.0 79.0 334.0 86.0 345.0Z"/></g>
<g fill="red" transform="translate(1600 300) scale(0.1 -0.1)"><path d="M0.0 0.0 -134.0 50.0 -171.0 2.0V-531.0H-145.0C-84.0 -531.0 -31.0 -494.0 -31.0 -480.0V-19.0C-11.0 -15.0 -3.0 -9.0 0.0 0.0ZM76.0 121.0 -93.0 214.0C-128.0 114.0 -207.0 -45.0 -293.0 -148.0L-285.0 -157.0C-152.0 -88.0 -37.0 20.0 37.0 107.0C61.0 104.0 71.0 111.0 76.0 121.0ZM75.0 337.0 -99.0 416.0C-133.0 337.0 -211.0 213.0 -287.0 134.0L-280.0 125.0C-159.0 169.0 -33.0 251.0 38.0 320.0C62.0 320.0 71.0 327.0 75.0 337.0Z"/></g>
<g fill="black" opacity=".8" transform="translate(1600 300) scale(0.1 -0.1)"><path d="M0.0 0.0 -133.0 49.0 -172.0 -4.0V-532.0H-146.0C-86.0 -532.0 -31.0 -496.0 -30.0 -483.0V-19.0C-10.0 -17.0 -4.0 -10.0 0.0 0.0ZM85.0 126.0 -84.0 219.0C-126.0 115.0 -215.0 -49.0 -296.0 -155.0L-288.0 -164.0C-160.0 -90.0 -35.0 21.0 45.0 111.0C71.0 109.0 79.0 115.0 85.0 126.0ZM68.0 332.0 -96.0 427.0C-131.0 343.0 -210.0 217.0 -291.0 136.0L-281.0 127.0C-158.0 173.0 -43.0 251.0 29.0 319.0C54.0 315.0 63.0 323.0 68.0 332.0Z"/></g>
<g fill="red" transform="translate(100 400) scale(0.1 -0.1)"><path d="M0.0 0.0 -49.0 19.0 -74.0 -13.0V-519.0H-66.0C-49.0 -519.0 -31.0 -507.0 -30.0 -502.0V-18.0C-13.0 -15.0 -3.0 -9.0 0.0 0.0ZM88.0 142.0 12.0 178.0C-33.0 79.0 -125.0 -61.0 -217.0 -156.0L-204.0 -169.0C-99.0 -82.0 -2.0 45.0 50.0 132.0C73.0 127.0 82.0 131.0 88.0 142.0ZM79.0 344.0 6.0 383.0C-38.0 307.0 -127.0 198.0 -210.0 127.0L-197.0 113.0C-103.0 176.0 -9.0 270.0 41.0 336.0C64.0 331.0 72.0 334.0 79.0 344.0Z"/></g>
<g fill="black" opacity=".8" transform="translate(100 400) scale(0.1 -0.1)"><path d="M0.0 0.0 -47.0 19.0 -74.0 -17.0V-526.0H-66.0C-49.0 -526.0 -30.0 -514.0 -30.0 -509.0V-19.0C-14.0 -16.0 -4.0 -10.0 0.0 0.0ZM86.0 144.0 10.0 181.0C-34.0 82.0 -129.0 -60.0 -222.0 -156.0L-210.0 -168.0C-103.0 -82.0 -4.0 45.0 48.0 134.0C71.0 128.0 80.0 134.0 86.0 144.0ZM79.0 339.0 6.0 376.0C-39.0 301.0 -131.0 192.0 -211.0 121.0L-198.0 108.0C-105.0 172.0 -10.0 266.0 41.0 331.0C64.0 324.0 72.0 327.0 79.0 339.0Z"/></g>
<g fill="red" transform="translate(200 400) scale(0.1 -0.1)"><path d="M0.0 0.0 -133.0 49.0 -171.0 -1.0V-526.0H-145.0C-84.0 -526.0 -31.0 -490.0 -31.0 -477.0V-20.0C-11.0 -16.0 -3.0 -9.0 0.0 0.0ZM60.0 133.0 -106.0 225.0C-141.0 125.0 -220.0 -40.0 -301.0 -148.0L-292.0 -157.0C-164.0 -81.0 -51.0 31.0 21.0 118.0C46.0 116.0 56.0 123.0 60.0 133.0ZM46.0 330.0 -113.0 427.0C-146.0 347.0 -221.0 220.0 -296.0 139.0L-288.0 129.0C-173.0 177.0 -64.0 253.0 7.0 318.0C31.0 314.0 41.0 321.0 46.0 330.0Z"/></g>
<g fill="black" opacity=".8" transform="translate(200 400) scale(0.1 -0.1)"><path d="M0.0 0.0 -131.0 48.0 -170.0 -6.0V-529.0H-144.0C-84.0 -529.0 -31.0 -493.0 -30.0 -480.0V-19.0C-10.0 -17.0 -4.0 -10.0 0.0 0.0ZM63.0 131.0 -100.0 224.0C-136.0 124.0 -216.0 -40.0 -299.0 -147.0L-291.0 -157.0C-161.0 -82.0 -47.0 28.0 24.0 115.0C49.0 114.0 58.0 120.0 63.0 131.0ZM46.0 328.0 -113.0 422.0C-147.0 347.0 -223.0 223.0 -299.0 144.0L-282.0 135.0C-169.0 181.0 -61.0 257.0 7.0 315.0C32.0 311.0 42.0 319.0 46.0 328.0Z"/></g>
<g fill="red" transform="translate(300 400) scale(0.1 -0.1)"><path d="M0.0 0.0 -47.0 17.0 -74.0 -17.0V-523.0H-66.0C-49.0 -523.0 -31.0 -511.0 -30.0 -506.0V-18.0C-13.0 -16.0 -3.0 -9.0 0.0 0.0ZM89.0 141.0 12.0 176.0C-35.0 72.0 -133.0 -78.0 -231.0 -177.0L-219.0 -190.0C-106.0 -98.0 -5.0 36.0 50.0 130.0C74.0 126.0 82.0 130.0 89.0 141.0ZM74.0 339.0 1.0 378.0C-48.0 297.0 -147.0 182.0 -238.0 108.0L-227.0 94.0C-123.0 160.0 -20.0 260.0 36.0 331.0C58.0 326.0 67.0 329.0 74.0 339.0Z"/></g>
<g fill="black" opacity=".8" transform="translate(300 400) scale(0.1 -0.1)"><path d="M0.0 0.0 -48.0 19.0 -74.0 -16.0V-522.0H-66.0C-49.0 -522.0 -30.0 -509.0 -30.0 -504.0V-19.0C-14.0 -16.0 -4.0 -10.0 0.0 0.0ZM94.0 139.0 19.0 174.0C-33.0 70.0 -137.0 -77.0 -228.0 -173.0L-215.0 -185.0C-111.0 -98.0 -2.0 34.0 57.0 130.0C80.0 124.0 89.0 129.0 94.0 139.0ZM75.0 343.0 2.0 382.0C-47.0 298.0 -147.0 186.0 -237.0 114.0L-226.0 99.0C-122.0 164.0 -19.0 262.0 37.0 335.0C59.0 328.0 68.0 331.0 75.0 343.0Z"/></g>
<g fill="red" transform="translate(400 400) scale(0.1 -0.1)"><path d="M0.0 0.0 -134.0 49.0 -171.0 0.0V-529.0H-145.0C-84.0 -529.0 -31.0 -493.0 -31.0 -479.0V-20.0C-11.0 -16.0 -3.0 -10.0 0.0 0.0ZM90.0 121.0 -75.0 216.0C-118.0 109.0 -216.0 -59.0 -315.0 -169.0L-307.0 -178.0C-160.0 -102.0 -30.0 15.0 51.0 108.0C76.0 105.0 85.0 112.0 90.0 121.0ZM61.0 322.0 -98.0 422.0C-137.0 340.0 -224.0 213.0 -309.0 132.0L-301.0 122.0C-175.0 168.0 -55.0 244.0 22.0 310.0C46.0 306.0 56.0 313.0 61.0 322.0Z"/></g>
<g fill="black" opacity=".8" transform="translate(400 400) scale(0.1 -0.1)"><path d="M0.0 0.0 -133.0 49.0 -171.0 -3.0V-525.0H-145.0C-85.0 -525.0 -31.0 -491.0 -30.0 -478.0V-19.0C-10.0 -16.0 -4.0 -10.0 0.0 0.0ZM86.0 125.0 -85.0 216.0C-129.0 106.0 -222.0 -63.0 -307.0 -171.0L-298.0 -180.0C-164.0 -103.0 -35.0 13.0 48.0 110.0C73.0 108.0 80.0 114.0 86.0 125.0ZM61.0 325.0 -102.0 424.0C-140.0 337.0 -225.0 210.0 -312.0 128.0L-308.0 118.0C-175.0 164.0 -54.0 241.0 23.0 314.0C47.0 310.0 57.0 317.0 61.0 325.0Z"/></g>
<g fill="red" transform="translate(500 400) scale(0.1 -0.1)"><path d="M0.0 0.0 -45.0 17.0 -74.0 -20.0V-530.0H-65.0C-49.0 -530.0 -31.0 -517.0 -30.0 -513.0V-18.0C-14.0 -15.0 -4.0 -9.0 0.0 0.0ZM361.0 -103.0 292.0 -65.0C228.0 -188.0 134.0 -298.0 52.0 -362.0L64.0 -375.0C156.0 -320.0 253.0 -226.0 322.0 -115.0C342.0 -120.0 355.0 -113.0 361.0 -103.0ZM91.0 343.0 18.0 382.0C-28.0 306.0 -124.0 199.0 -212.0 130.0L-199.0 117.0C-100.0 177.0 0.0 269.0 53.0 335.0C75.0 330.0 84.0 333.0 91.0 343.0Z"/></g>
<g fill="black" opacity=".8" transform="translate(500 400) scale(0.1 -0.1)"><path d="M0.0 0.0 -46.0 18.0 -74.0 -19.0V-525.0H-65.0C-49.0 -525.0 -30.0 -512.0 -30.0 -508.0V-19.0C-14.0 -15.0 -4.0 -10.0 0.0 0.0ZM354.0 -99.0 279.0 -72.0C238.0 -186.0 155.0 -300.0 36.0 -367.0L47.0 -380.0C180.0 -322.0 270.0 -218.0 317.0 -112.0C339.0 -116.0 349.0 -110.0 354.0 -99.0ZM81.0 348.0 8.0 384.0C-36.0 305.0 -124.0 203.0 -205.0 140.0L-190.0 128.0C-98.0 184.0 -6.0 270.0 45.0 338.0C66.0 332.0 75.0 336.0 81.0 348.0Z"/></g>
<g fill="red" transform="translate(600 400) scale(0.1 -0.1)"><path d="M0.0 0.0 -132.0 49.0 -171.0 -3.0V-524.0H-145.0C-85.0 -524.0 -32.0 -490.0 -31.0 -477.0V-19.0C-12.0 -16.0 -4.0 -9.0 0.0 0.0ZM372.0 -80.0 197.0 -33.0C154.0 -173.0 75.0 -305.0 0.0 -385.0L10.0 -394.0C128.0 -338.0 245.0 -248.0 332.0 -103.0C356.0 -103.0 369.0 -93.0 372.0 -80.0ZM47.0 332.0 -109.0 427.0C-141.0 350.0 -214.0 231.0 -286.0 154.0L-279.0 145.0C-166.0 188.0 -61.0 258.0 8.0 320.0C32.0 316.0 42.0 323.0 47.0 332.0Z"/></g>
<g fill="black" opacity=".8" transform="translate(600 400) scale(0.1 -0.1)"><path d="M0.0 0.0 -135.0 50.0 -172.0 -1.0V-531.0H-147.0C-85.0 -531.0 -31.0 -495.0 -30.0 -481.0V-19.0C-10.0 -16.0 -4.0 -10.0 0.0 0.0ZM365.0 -89.0 188.0 -42.0C160.0 -165.0 94.0 -299.0 -11.0 -379.0L-4.0 -389.0C156.0 -333.0 262.0 -232.0 326.0 -109.0C351.0 -109.0 361.0 -102.0 365.0 -89.0ZM59.0 337.0 -101.0 424.0C-140.0 339.0 -222.0 221.0 -301.0 148.0L-285.0 139.0C-167.0 183.0 -54.0 255.0 20.0 324.0C44.0 320.0 54.0 328.0 59.0 337.0Z"/></g>
<g fill="red" transform="translate(700 400) scale(0.1 -0.1)"><path d="M0.0 0.0 -47.0 17.0 -74.0 -17.0V-523.0H-66.0C-49.0 -523.0 -31.0 -511.0 -30.0 -506.0V-18.0C-13.0 -16.0 -3.0 -9.0 0.0 0.0ZM265.0 -72.0 188.0 -41.0C162.0 -121.0 105.0 -230.0 36.0 -300.0L48.0 -313.0C130.0 -252.0 195.0 -155.0 228.0 -83.0C251.0 -86.0 259.0 -82.0 265.0 -72.0ZM78.0 344.0 5.0 382.0C-41.0 301.0 -137.0 187.0 -225.0 112.0L-213.0 98.0C-112.0 165.0 -13.0 265.0 40.0 335.0C63.0 330.0 71.0 333.0 78.0 344.0Z"/></g>
<g fill="black" opacity=".8" transform="translate(700 400) scale(0.1 -0.1)"><path d="M0.0 0.0 -45.0 18.0 -74.0 -21.0V-532.0H-66.0C-49.0 -532.0 -30.0 -520.0 -30.0 -515.0V-19.0C-15.0 -16.0 -4.0 -9.0 0.0 0.0ZM269.0 -76.0 192.0 -47.0C166.0 -127.0 111.0 -228.0 41.0 -292.0L53.0 -304.0C135.0 -250.0 197.0 -162.0 232.0 -88.0C254.0 -92.0 264.0 -86.0 269.0 -76.0ZM77.0 332.0 2.0 374.0C-41.0 291.0 -130.0 187.0 -217.0 116.0L-212.0 99.0C-110.0 161.0 -14.0 253.0 40.0 326.0C62.0 319.0 70.0 321.0 77.0 332.0Z"/></g>
<g fill="red" transform="translate(800 400) scale(0.1 -0.1)"><path d="M0.0 0.0 -134.0 49.0 -171.0 0.0V-529.0H-145.0C-84.0 -529.0 -31.0 -493.0 -31.0 -479.0V-20.0C-11.0 -16.0 -3.0 -10.0 0.0 0.0ZM273.0 -72.0 109.0 8.0C96.0 -74.0 59.0 -200.0 8.0 -282.0L16.0 -291.0C110.0 -240.0 186.0 -159.0 235.0 -88.0C260.0 -89.0 269.0 -82.0 273.0 -72.0ZM59.0 323.0 -100.0 422.0C-138.0 340.0 -223.0 213.0 -306.0 132.0L-299.0 122.0C-174.0 168.0 -56.0 245.0 20.0 310.0C44.0 307.0 54.0 313.0 59.0 323.0Z"/></g>
<g fill="black" opacity=".8" transform="translate(800 400) scale(0.1 -0.1)"><path d="M0.0 0.0 -130.0 48.0 -167.0 -4.0V-533.0H-142.0C-82.0 -533.0 -31.0 -496.0 -30.0 -482.0V-19.0C-10.0 -16.0 -4.0 -10.0 0.0 0.0ZM276.0 -59.0 105.0 -2.0C89.0 -91.0 49.0 -208.0 -7.0 -281.0L1.0 -290.0C103.0 -240.0 186.0 -159.0 237.0 -77.0C263.0 -77.0 271.0 -71.0 276.0 -59.0ZM58.0 322.0 -101.0 420.0C-135.0 335.0 -213.0 216.0 -294.0 137.0L-315.0 125.0C-182.0 168.0 -59.0 237.0 19.0 312.0C44.0 307.0 53.0 314.0 58.0 322.0Z"/></g>
<g fill="red" transform="translate(900 400) scale(0.1 -0.1)"><path d="M0.0 0.0 -47.0 17.0 -74.0 -17.0V-523.0H-66.0C-49.0 -523.0 -31.0 -511.0 -30.0 -506.0V-18.0C-13.0 -16.0 -3.0 -9.0 0.0 0.0ZM93.0 145.0 16.0 180.0C-29.0 80.0 -123.0 -63.0 -217.0 -159.0L-205.0 -172.0C-97.0 -84.0 1.0 44.0 54.0 134.0C77.0 130.0 86.0 134.0 93.0 145.0ZM79.0 344.0 6.0 382.0C-38.0 305.0 -130.0 197.0 -214.0 126.0L-202.0 112.0C-106.0 175.0 -10.0 269.0 41.0 335.0C64.0 330.0 72.0 333.0 79.0 344.0Z"/></g>
<g fill="black" opacity=".8" transform="translate(900 400) scale(0.1 -0.1)"><path d="M0.0 0.0 -47.0 19.0 -74.0 -17.0V-524.0H-66.0C-49.0 -524.0 -30.0 -511.0 -30.0 -506.0V-19.0C-14.0 -16.0 -4.0 -10.0 0.0 0.0ZM94.0 142.0 18.0 178.0C-31.0 79.0 -129.0 -62.0 -212.0 -157.0L-199.0 -168.0C-103.0 -84.0 -0.0 43.0 56.0 133.0C79.0 128.0 88.0 133.0 94.0 142.0ZM82.0 342.0 9.0 380.0C-37.0 301.0 -130.0 194.0 -214.0 124.0L-203.0 110.0C-105.0 172.0 -8.0 266.0 45.0 334.0C67.0 327.0 75.0 330.0 82.0 342.0Z"/></g>
<g fill="red" transform="translate(1000 400) scale(0.1 -0.1)"><path d="M0.0 0.0 -134.0 49.0 -171.0 0.0V-529.0H-145.0C-84.0 -529.0 -31.0 -493.0 -31.0 -479.0V-20.0C-11.0 -16.0 -3.0 -10.0 0.0 0.0ZM80.0 123.0 -87.0 216.0C-124.0 114.0 -208.0 -48.0 -296.0 -154.0L-287.0 -163.0C-152.0 -91.0 -34.0 20.0 41.0 108.0C66.0 106.0 75.0 113.0 80.0 123.0ZM68.0 323.0 -92.0 422.0C-128.0 341.0 -209.0 214.0 -289.0 132.0L-282.0 123.0C-160.0 169.0 -45.0 245.0 29.0 311.0C53.0 307.0 63.0 314.0 68.0 323.0Z"/></g>
<g fill="black" opacity=".8" transform="translate(1000 400) scale(0.1 -0.1)"><path d="M0.0 0.0 -133.0 49.0 -171.0 -2.0V-531.0H-145.0C-85.0 -531.0 -31.0 -495.0 -30.0 -482.0V-19.0C-10.0 -17.0 -4.0 -10.0 0.0 0.0ZM82.0 126.0 -86.0 218.0C-128.0 113.0 -215.0 -52.0 -292.0 -157.0L-284.0 -167.0C-160.0 -91.0 -36.0 20.0 44.0 111.0C69.0 109.0 77.0 115.0 82.0 126.0ZM66.0 324.0 -96.0 420.0C-132.0 338.0 -211.0 214.0 -291.0 136.0L-283.0 126.0C-160.0 171.0 -45.0 245.0 27.0 312.0C51.0 307.0 61.0 315.0 66.0 324.0Z"/></g>
<g fill="red" transform="translate(1100 400) scale(0.1 -0.1)"><path d="M0.0 0.0 -49.0 19.0 -74.0 -13.0V-519.0H-66.0C-49.0 -519.0 -31.0 -507.0 -30.0 -502.0V-18.0C-13.0 -15.0 -3.0 -9.0 0.0 0.0ZM89.0 142.0 13.0 178.0C-32.0 79.0 -124.0 -61.0 -216.0 -156.0L-203.0 -169.0C-98.0 -82.0 -1.0 45.0 51.0 132.0C74.0 127.0 83.0 131.0 89.0 142.0ZM79.0 344.0 6.0 383.0C-38.0 307.0 -127.0 198.0 -210.0 127.0L-197.0 113.0C-103.0 176.0 -9.0 270.0 41.0 336.0C64.0 331.0 72.0 334.0 79.0 344.0Z"/></g>
<g fill="black" opacity=".8" transform="translate(1100 400) scale(0.1 -0.1)"><path d="M0.0 0.0 -47.0 19.0 -74.0 -17.0V-526.0H-66.0C-49.0 -526.0 -30.0 -514.0 -30.0 -509.0V-19.0C-14.0 -16.0 -4.0 -10.0 0.0 0.0ZM87.0 144.0 11.0 181.0C-34.0 82.0 -129.0 -60.0 -222.0 -156.0L-210.0 -168.0C-103.0 -82.0 -4.0 45.0 48.0 134.0C72.0 129.0 81.0 134.0 87.0 144.0ZM79.0 339.0 6.0 376.0C-39.0 301.0 -131.0 192.0 -211.0 121.0L-198.0 108.0C-105.0 172.0 -10.0 266.0 42.0 331.0C64.0 324.0 72.0 327.0 79.0 339.0Z"/></g>
<g fill="red" transform="translate(1200 400) scale(0.1 -0.1)"><path d="M0.0 0.0 -133.0 49.0 -171.0 -1.0V-526.0H-145.0C-84.0 -526.0 -31.0 -490.0 -31.0 -477.0V-20.0C-11.0 -16.0 -3.0 -9.0 0.0 0.0ZM60.0 133.0 -106.0 225.0C-141.0 125.0 -220.0 -40.0 -301.0 -148.0L-292.0 -157.0C-164.0 -81.0 -51.0 31.0 21.0 118.0C46.0 116.0 56.0 123.0 60.0 133.0ZM46.0 330.0 -113.0 427.0C-146.0 347.0 -221.0 220.0 -296.0 139.0L-288.0 129.0C-173.0 177.0 -64.0 253.0 7.0 318.0C31.0 314.0 41.0 321.0 46.0 330.0Z"/></g>
<g fill="black" opacity=".8" transform="translate(1200 400) scale(0.1 -0.1)"><path d="M0.0 0.0 -131.0 48.0 -170.0 -6.0V-529.0H-144.0C-84.0 -529.0 -31.0 -493.0 -30.0 -480.0V-19.0C-10.0 -17.0 -4.0 -10.0 0.0 0.0ZM64.0 131.0 -100.0 224.0C-136.0 124.0 -215.0 -40.0 -298.0 -147.0L-290.0 -157.0C-161.0 -82.0 -47.0 28.0 24.0 115.0C50.0 114.0 58.0 120.0 64.0 131.0ZM46.0 328.0 -113.0 422.0C-147.0 347.0 -223.0 223.0 -299.0 144.0L-282.0 135.0C-169.0 181.0 -61.0 257.0 7.0 315.0C32.0 311.0 42.0 319.0 46.0 328.0Z"/></g>
<g fill="red" transform="translate(1300 400) scale(0.1 -0.1)"><path d="M0.0 0.0 -45.0 17.0 -74.0 -20.0V-530.0H-65.0C-49.0 -530.0 -31.0 -517.0 -30.0 -513.0V-18.0C-14.0 -15.0 -4.0 -9.0 0.0 0.0ZM97.0 142.0 21.0 178.0C-27.0 77.0 -125.0 -69.0 -221.0 -166.0L-210.0 -178.0C-98.0 -89.0 4.0 41.0 58.0 132.0C82.0 127.0 91.0 131.0 97.0 142.0ZM79.0 339.0 6.0 377.0C-40.0 298.0 -133.0 185.0 -220.0 111.0L-207.0 98.0C-109.0 163.0 -11.0 261.0 41.0 330.0C64.0 325.0 72.0 328.0 79.0 339.0Z"/></g>
<g fill="black" opacity=".8" transform="translate(1300 400) scale(0.1 -0.1)"><path d="M0.0 0.0 -48.0 19.0 -75.0 -16.0V-529.0H-67.0C-50.0 -529.0 -30.0 -517.0 -30.0 -512.0V-19.0C-14.0 -16.0 -4.0 -10.0 0.0 0.0ZM94.0 142.0 18.0 179.0C-29.0 75.0 -127.0 -71.0 -223.0 -168.0L-211.0 -180.0C-101.0 -93.0 1.0 38.0 56.0 132.0C79.0 126.0 88.0 132.0 94.0 142.0ZM82.0 343.0 8.0 381.0C-39.0 301.0 -135.0 186.0 -220.0 111.0L-207.0 97.0C-110.0 165.0 -11.0 265.0 43.0 335.0C66.0 328.0 74.0 331.0 82.0 343.0Z"/></g>
<g fill="red" transform="translate(1400 400) scale(0.1 -0.1)"><path d="M0.0 0.0 -116.0 43.0 -171.0 -30.0V-540.0H-145.0C-87.0 -540.0 -32.0 -507.0 -31.0 -496.0V-20.0C-12.0 -16.0 -3.0 -9.0 0.0 0.0ZM69.0 124.0 -100.0 213.0C-134.0 105.0 -215.0 -64.0 -304.0 -174.0L-296.0 -183.0C-158.0 -106.0 -43.0 14.0 30.0 109.0C55.0 107.0 64.0 114.0 69.0 124.0ZM52.0 323.0 -112.0 412.0C-148.0 335.0 -227.0 206.0 -300.0 123.0L-291.0 114.0C-178.0 164.0 -58.0 245.0 14.0 309.0C39.0 307.0 48.0 313.0 52.0 323.0Z"/></g>
<g fill="black" opacity=".8" transform="translate(1400 400) scale(0.1 -0.1)"><path d="M0.0 0.0 -133.0 49.0 -171.0 -2.0V-540.0H-146.0C-85.0 -540.0 -31.0 -504.0 -30.0 -491.0V-19.0C-10.0 -17.0 -4.0 -10.0 0.0 0.0ZM71.0 124.0 -95.0 216.0C-132.0 109.0 -214.0 -61.0 -300.0 -172.0L-291.0 -182.0C-158.0 -102.0 -42.0 13.0 31.0 108.0C57.0 106.0 65.0 112.0 71.0 124.0ZM49.0 321.0 -111.0 419.0C-147.0 338.0 -226.0 207.0 -304.0 122.0L-290.0 112.0C-172.0 163.0 -61.0 243.0 9.0 308.0C34.0 304.0 45.0 312.0 49.0 321.0Z"/></g>
<g fill="red" transform="translate(1500 400) scale(0.1 -0.1)"><path d="M0.0 0.0 -48.0 18.0 -74.0 -15.0V-536.0H-66.0C-49.0 -536.0 -31.0 -523.0 -30.0 -518.0V-18.0C-13.0 -15.0 -3.0 -9.0 0.0 0.0ZM80.0 136.0 3.0 171.0C-43.0 71.0 -137.0 -72.0 -230.0 -168.0L-218.0 -181.0C-110.0 -93.0 -12.0 36.0 41.0 125.0C64.0 121.0 73.0 125.0 80.0 136.0ZM69.0 334.0 -5.0 372.0C-48.0 291.0 -138.0 174.0 -222.0 97.0L-209.0 84.0C-113.0 153.0 -20.0 255.0 31.0 325.0C54.0 320.0 62.0 324.0 69.0 334.0Z"/></g>
<g fill="black" opacity=".8" transform="translate(1500 400) scale(0.1 -0.1)"><path d="M0.0 0.0 -47.0 19.0 -74.0 -18.0V-528.0H-66.0C-49.0 -528.0 -30.0 -516.0 -30.0 -511.0V-19.0C-14.0 -16.0 -4.0 -10.0 0.0 0.0ZM81.0 136.0 3.0 171.0C-39.0 72.0 -130.0 -72.0 -218.0 -169.0L-205.0 -182.0C-103.0 -94.0 -8.0 35.0 42.0 125.0C66.0 120.0 75.0 126.0 81.0 136.0ZM70.0 340.0 -5.0 378.0C-48.0 294.0 -137.0 179.0 -218.0 102.0L-206.0 88.0C-111.0 157.0 -18.0 258.0 32.0 331.0C54.0 325.0 62.0 329.0 70.0 340.0Z"/></g>
<g fill="red" transform="translate(1600 400) scale(0.1 -0.1)"><path d="M0.0 0.0 -134.0 49.0 -171.0 0.0V-525.0H-145.0C-84.0 -525.0 -31.0 -489.0 -31.0 -476.0V-20.0C-11.0 -16.0 -3.0 -10.0 0.0 0.0ZM67.0 130.0 -101.0 221.0C-133.0 120.0 -209.0 -44.0 -287.0 -152.0L-279.0 -161.0C-152.0 -86.0 -42.0 27.0 28.0 115.0C53.0 113.0 63.0 120.0 67.0 130.0ZM43.0 330.0 -117.0 426.0C-148.0 346.0 -220.0 220.0 -291.0 138.0L-284.0 129.0C-170.0 177.0 -65.0 252.0 5.0 317.0C29.0 313.0 38.0 320.0 43.0 330.0Z"/></g>
<g fill="black" opacity=".8" transform="translate(1600 400) scale(0.1 -0.1)"><path d="M0.0 0.0 -129.0 48.0 -169.0 -7.0V-525.0H-144.0C-84.0 -525.0 -31.0 -490.0 -30.0 -477.0V-19.0C-10.0 -17.0 -4.0 -10.0 0.0 0.0ZM63.0 130.0 -105.0 221.0C-139.0 120.0 -214.0 -44.0 -291.0 -152.0L-283.0 -162.0C-158.0 -86.0 -45.0 26.0 24.0 114.0C50.0 113.0 58.0 119.0 63.0 130.0ZM44.0 334.0 -119.0 428.0C-151.0 345.0 -225.0 217.0 -301.0 133.0L-292.0 123.0C-173.0 172.0 -62.0 252.0 7.0 321.0C31.0 318.0 40.0 326.0 44.0 334.0Z"/></g>
<g fill="red" transform="translate(100 500) scale(0.1 -0.1)"><path d="M0.0 0.0 -49.0 19.0 -74.0 -13.0V-519.0H-66.0C-49.0 -519.0 -31.0 -507.0 -30.0 -502.0V-18.0C-13.0 -15.0 -3.0 -9.0 0.0 0.0ZM89.0 144.0 13.0 180.0C-32.0 81.0 -124.0 -59.0 -216.0 -154.0L-203.0 -167.0C-98.0 -80.0 -1.0 47.0 51.0 134.0C74.0 129.0 83.0 133.0 89.0 144.0ZM421.0 381.0 345.0 389.0C337.0 294.0 323.0 168.0 314.0 98.0H353.0C364.0 166.0 378.0 276.0 388.0 356.0C407.0 357.0 419.0 368.0 421.0 381.0Z"/></g>
<g fill="black" opacity=".8" transform="translate(100 500) scale(0.1 -0.1)"><path d="M0.0 0.0 -48.0 20.0 -74.0 -15.0V-527.0H-66.0C-50.0 -527.0 -30.0 -515.0 -31.0 -510.0V-18.0C-14.0 -15.0 -4.0 -10.0 0.0 0.0ZM92.0 144.0 16.0 182.0C-27.0 85.0 -124.0 -55.0 -227.0 -150.0L-215.0 -163.0C-98.0 -78.0 1.0 47.0 53.0 134.0C76.0 129.0 85.0 134.0 92.0 144.0ZM416.0 374.0 337.0 385.0C330.0 287.0 318.0 166.0 312.0 93.0H349.0C359.0 161.0 373.0 265.0 382.0 350.0C403.0 351.0 413.0 360.0 416.0 374.0Z"/></g>
<g fill="red" transform="translate(200 500) scale(0.1 -0.1)"><path d="M0.0 0.0 -133.0 49.0 -171.0 -1.0V-526.0H-145.0C-84.0 -526.0 -31.0 -490.0 -31.0 -477.0V-20.0C-11.0 -16.0 -3.0 -9.0 0.0 0.0ZM60.0 133.0 -106.0 225.0C-141.0 125.0 -220.0 -40.0 -301.0 -148.0L-292.0 -157.0C-164.0 -81.0 -51.0 31.0 21.0 118.0C46.0 116.0 56.0 123.0 60.0 133.0ZM400.0 410.0 215.0 426.0C215.0 324.0 212.0 189.0 209.0 114.0H326.0C336.0 180.0 352.0 301.0 361.0 377.0C384.0 382.0 397.0 392.0 400.0 410.0Z"/></g>
<g fill="black" opacity=".8" transform="translate(200 500) scale(0.1 -0.1)"><path d="M0.0 0.0 -129.0 48.0 -169.0 -6.0V-529.0H-143.0C-85.0 -529.0 -32.0 -495.0 -30.0 -482.0V-19.0C-11.0 -17.0 -5.0 -9.0 0.0 0.0ZM58.0 133.0 -101.0 224.0C-135.0 124.0 -213.0 -41.0 -302.0 -149.0L-295.0 -160.0C-159.0 -83.0 -49.0 28.0 17.0 117.0C43.0 115.0 53.0 121.0 58.0 133.0ZM401.0 406.0 227.0 427.0C225.0 328.0 223.0 199.0 220.0 121.0L326.0 120.0C339.0 187.0 354.0 295.0 362.0 376.0C385.0 379.0 398.0 391.0 401.0 406.0Z"/></g>
<g fill="red" transform="translate(300 500) scale(0.1 -0.1)"><path d="M0.0 0.0 -45.0 17.0 -74.0 -20.0V-530.0H-65.0C-49.0 -530.0 -31.0 -517.0 -30.0 -513.0V-18.0C-14.0 -15.0 -4.0 -9.0 0.0 0.0ZM74.0 127.0 -5.0 160.0C-40.0 63.0 -113.0 -78.0 -192.0 -174.0L-179.0 -186.0C-88.0 -98.0 -8.0 29.0 35.0 115.0C59.0 111.0 68.0 116.0 74.0 127.0ZM247.0 351.0 169.0 377.0C145.0 288.0 107.0 202.0 68.0 146.0L82.0 136.0C133.0 183.0 180.0 256.0 211.0 333.0C232.0 332.0 243.0 341.0 247.0 351.0Z"/></g>
<g fill="black" opacity=".8" transform="translate(300 500) scale(0.1 -0.1)"><path d="M0.0 0.0 -46.0 18.0 -74.0 -20.0V-530.0H-66.0C-50.0 -530.0 -30.0 -518.0 -30.0 -513.0V-19.0C-15.0 -15.0 -4.0 -10.0 0.0 0.0ZM78.0 124.0 -1.0 157.0C-36.0 65.0 -112.0 -75.0 -183.0 -171.0L-169.0 -182.0C-85.0 -97.0 -2.0 28.0 41.0 113.0C65.0 109.0 73.0 114.0 78.0 124.0ZM244.0 354.0 167.0 379.0C146.0 297.0 105.0 194.0 68.0 130.0L91.0 123.0C137.0 181.0 183.0 269.0 208.0 338.0C229.0 335.0 239.0 341.0 244.0 354.0Z"/></g>
<g fill="red" transform="translate(400 500) scale(0.1 -0.1)"><path d="M0.0 0.0 -110.0 40.0 -160.0 -26.0V-525.0H-136.0C-86.0 -525.0 -33.0 -500.0 -31.0 -491.0V-20.0C-12.0 -16.0 -3.0 -9.0 0.0 0.0ZM70.0 123.0 -90.0 207.0C-119.0 108.0 -187.0 -51.0 -260.0 -156.0L-251.0 -165.0C-133.0 -90.0 -33.0 22.0 31.0 108.0C56.0 106.0 65.0 113.0 70.0 123.0ZM237.0 383.0 69.0 430.0C60.0 335.0 39.0 231.0 16.0 163.0L29.0 155.0C95.0 203.0 153.0 275.0 198.0 361.0C220.0 361.0 233.0 370.0 237.0 383.0Z"/></g>
<g fill="black" opacity=".8" transform="translate(400 500) scale(0.1 -0.1)"><path d="M0.0 0.0 -130.0 48.0 -170.0 -8.0V-524.0H-144.0C-85.0 -524.0 -31.0 -489.0 -30.0 -476.0V-19.0C-10.0 -17.0 -4.0 -10.0 0.0 0.0ZM69.0 125.0 -106.0 208.0C-134.0 110.0 -198.0 -52.0 -259.0 -157.0L-250.0 -166.0C-140.0 -90.0 -35.0 20.0 31.0 108.0C57.0 107.0 64.0 113.0 69.0 125.0ZM242.0 374.0 68.0 430.0C53.0 346.0 21.0 234.0 -14.0 165.0L39.0 160.0C103.0 207.0 165.0 285.0 203.0 353.0C227.0 352.0 238.0 362.0 242.0 374.0Z"/></g>
<g fill="red" transform="translate(500 500) scale(0.1 -0.1)"><path d="M0.0 0.0 -52.0 21.0 -74.0 -7.0V-535.0H-66.0C-49.0 -535.0 -31.0 -522.0 -30.0 -518.0V-17.0C-13.0 -15.0 -3.0 -8.0 0.0 0.0ZM91.0 149.0 15.0 185.0C-30.0 89.0 -125.0 -47.0 -218.0 -135.0L-205.0 -148.0C-99.0 -67.0 0.0 54.0 52.0 139.0C76.0 134.0 85.0 138.0 91.0 149.0ZM77.0 332.0 4.0 370.0C-40.0 293.0 -130.0 180.0 -212.0 105.0L-199.0 92.0C-106.0 159.0 -12.0 256.0 38.0 323.0C61.0 318.0 70.0 321.0 77.0 332.0Z"/></g>
<g fill="black" opacity=".8" transform="translate(500 500) scale(0.1 -0.1)"><path d="M0.0 0.0 -49.0 20.0 -75.0 -15.0V-531.0H-67.0C-49.0 -531.0 -30.0 -519.0 -30.0 -514.0V-18.0C-14.0 -16.0 -4.0 -10.0 0.0 0.0ZM89.0 152.0 14.0 190.0C-30.0 91.0 -122.0 -50.0 -206.0 -145.0L-194.0 -157.0C-97.0 -72.0 -3.0 53.0 50.0 142.0C73.0 136.0 83.0 142.0 89.0 152.0ZM79.0 340.0 4.0 378.0C-40.0 299.0 -130.0 180.0 -209.0 100.0L-195.0 86.0C-105.0 158.0 -12.0 261.0 40.0 331.0C63.0 325.0 72.0 328.0 79.0 340.0Z"/></g>
<g fill="red" transform="translate(600 500) scale(0.1 -0.1)"><path d="M0.0 0.0 -132.0 49.0 -171.0 -3.0V-569.0H-145.0C-85.0 -569.0 -32.0 -534.0 -31.0 -521.0V-19.0C-12.0 -16.0 -4.0 -9.0 0.0 0.0ZM51.0 117.0 -108.0 201.0C-139.0 98.0 -211.0 -76.0 -283.0 -193.0L-273.0 -202.0C-156.0 -113.0 -54.0 12.0 12.0 102.0C37.0 100.0 46.0 107.0 51.0 117.0ZM34.0 294.0 -118.0 382.0C-148.0 299.0 -216.0 165.0 -285.0 78.0L-277.0 68.0C-168.0 126.0 -69.0 212.0 -4.0 281.0C20.0 278.0 29.0 284.0 34.0 294.0Z"/></g>
<g fill="black" opacity=".8" transform="translate(600 500) scale(0.1 -0.1)"><path d="M0.0 0.0 -138.0 51.0 -170.0 8.0V-569.0H-145.0C-82.0 -569.0 -31.0 -529.0 -30.0 -515.0V-18.0C-10.0 -16.0 -4.0 -10.0 0.0 0.0ZM54.0 112.0 -106.0 207.0C-140.0 101.0 -215.0 -71.0 -286.0 -185.0L-277.0 -195.0C-161.0 -110.0 -57.0 4.0 13.0 97.0C38.0 95.0 48.0 101.0 54.0 112.0ZM35.0 288.0 -120.0 390.0C-152.0 309.0 -223.0 169.0 -290.0 77.0L-274.0 67.0C-170.0 127.0 -71.0 212.0 -6.0 276.0C19.0 272.0 30.0 279.0 35.0 288.0Z"/></g>
<g fill="red" transform="translate(700 500) scale(0.1 -0.1)"><path d="M0.0 0.0 -50.0 20.0 -74.0 -11.0V-517.0H-66.0C-49.0 -517.0 -31.0 -505.0 -30.0 -500.0V-18.0C-13.0 -15.0 -3.0 -9.0 0.0 0.0ZM97.0 144.0 21.0 181.0C-26.0 84.0 -123.0 -55.0 -216.0 -149.0L-204.0 -162.0C-97.0 -76.0 4.0 49.0 58.0 135.0C81.0 130.0 90.0 134.0 97.0 144.0ZM89.0 349.0 16.0 387.0C-30.0 306.0 -124.0 189.0 -210.0 112.0L-197.0 99.0C-99.0 168.0 -2.0 270.0 51.0 340.0C74.0 335.0 82.0 338.0 89.0 349.0Z"/></g>
<g fill="black" opacity=".8" transform="translate(700 500) scale(0.1 -0.1)"><path d="M0.0 0.0 -48.0 19.0 -74.0 -16.0V-525.0H-66.0C-49.0 -525.0 -30.0 -513.0 -30.0 -508.0V-19.0C-14.0 -16.0 -4.0 -10.0 0.0 0.0ZM96.0 146.0 20.0 183.0C-26.0 84.0 -123.0 -57.0 -218.0 -153.0L-206.0 -165.0C-97.0 -79.0 4.0 47.0 57.0 137.0C80.0 131.0 90.0 137.0 96.0 146.0ZM88.0 340.0 15.0 378.0C-31.0 299.0 -125.0 188.0 -208.0 115.0L-195.0 102.0C-99.0 167.0 -2.0 264.0 50.0 332.0C72.0 325.0 81.0 329.0 88.0 340.0Z"/></g>
<g fill="red" transform="translate(800 500) scale(0.1 -0.1)"><path d="M0.0 0.0 -133.0 49.0 -171.0 -1.0V-522.0H-145.0C-84.0 -522.0 -31.0 -487.0 -31.0 -474.0V-20.0C-11.0 -16.0 -3.0 -9.0 0.0 0.0ZM71.0 138.0 -94.0 230.0C-129.0 130.0 -209.0 -35.0 -289.0 -143.0L-280.0 -152.0C-153.0 -75.0 -40.0 37.0 32.0 123.0C57.0 121.0 67.0 127.0 71.0 138.0ZM55.0 334.0 -102.0 430.0C-136.0 350.0 -213.0 224.0 -289.0 143.0L-281.0 133.0C-165.0 181.0 -55.0 257.0 16.0 321.0C40.0 318.0 50.0 324.0 55.0 334.0Z"/></g>
<g fill="black" opacity=".8" transform="translate(800 500) scale(0.1 -0.1)"><path d="M0.0 0.0 -130.0 48.0 -170.0 -7.0V-525.0H-144.0C-85.0 -525.0 -31.0 -490.0 -30.0 -477.0V-19.0C-10.0 -17.0 -4.0 -10.0 0.0 0.0ZM74.0 137.0 -89.0 230.0C-126.0 130.0 -208.0 -32.0 -292.0 -138.0L-284.0 -148.0C-154.0 -74.0 -38.0 34.0 34.0 121.0C59.0 120.0 68.0 126.0 74.0 137.0ZM56.0 333.0 -103.0 427.0C-138.0 348.0 -215.0 223.0 -294.0 142.0L-280.0 133.0C-163.0 180.0 -51.0 257.0 17.0 320.0C42.0 316.0 52.0 324.0 56.0 333.0Z"/></g>
<g fill="red" transform="translate(900 500) scale(0.1 -0.1)"><path d="M0.0 0.0 -46.0 18.0 -74.0 -18.0V-524.0H-66.0C-49.0 -524.0 -31.0 -512.0 -30.0 -507.0V-18.0C-14.0 -15.0 -4.0 -8.0 0.0 0.0ZM350.0 -117.0 279.0 -94.0C235.0 -194.0 147.0 -308.0 53.0 -373.0L66.0 -387.0C170.0 -327.0 264.0 -220.0 314.0 -127.0C338.0 -130.0 346.0 -127.0 350.0 -117.0ZM293.0 370.0 213.0 395.0C182.0 272.0 128.0 154.0 70.0 79.0L86.0 68.0C155.0 134.0 217.0 238.0 256.0 351.0C278.0 350.0 289.0 359.0 293.0 370.0Z"/></g>
<g fill="black" opacity=".8" transform="translate(900 500) scale(0.1 -0.1)"><path d="M0.0 0.0 -47.0 19.0 -75.0 -18.0V-524.0H-66.0C-50.0 -524.0 -30.0 -512.0 -30.0 -507.0V-18.0C-14.0 -15.0 -4.0 -9.0 0.0 0.0ZM343.0 -108.0 267.0 -83.0C224.0 -190.0 142.0 -305.0 49.0 -371.0L62.0 -383.0C166.0 -325.0 256.0 -221.0 306.0 -119.0C330.0 -123.0 338.0 -118.0 343.0 -108.0ZM293.0 371.0 215.0 397.0C187.0 270.0 132.0 144.0 71.0 63.0L88.0 53.0C162.0 125.0 224.0 239.0 259.0 354.0C280.0 352.0 290.0 358.0 293.0 371.0Z"/></g>
<g fill="red" transform="translate(1000 500) scale(0.1 -0.1)"><path d="M0.0 0.0 -134.0 50.0 -171.0 2.0V-530.0H-145.0C-84.0 -530.0 -31.0 -494.0 -31.0 -481.0V-19.0C-11.0 -15.0 -3.0 -9.0 0.0 0.0ZM364.0 -86.0 180.0 -47.0C151.0 -170.0 79.0 -311.0 -2.0 -390.0L5.0 -397.0C142.0 -336.0 257.0 -220.0 326.0 -101.0C353.0 -102.0 361.0 -97.0 364.0 -86.0ZM327.0 373.0 147.0 427.0C125.0 288.0 77.0 141.0 27.0 47.0L39.0 39.0C140.0 109.0 225.0 213.0 287.0 352.0C310.0 352.0 323.0 360.0 327.0 373.0Z"/></g>
<g fill="black" opacity=".8" transform="translate(1000 500) scale(0.1 -0.1)"><path d="M0.0 0.0 -135.0 50.0 -170.0 3.0V-531.0H-144.0C-85.0 -531.0 -32.0 -497.0 -30.0 -484.0V-19.0C-11.0 -16.0 -5.0 -10.0 0.0 0.0ZM373.0 -93.0 188.0 -48.0C156.0 -174.0 86.0 -311.0 4.0 -390.0L11.0 -398.0C149.0 -340.0 262.0 -234.0 334.0 -110.0C361.0 -111.0 369.0 -106.0 373.0 -93.0ZM323.0 369.0 147.0 425.0C125.0 293.0 74.0 150.0 14.0 59.0L34.0 51.0C142.0 116.0 228.0 219.0 286.0 351.0C308.0 349.0 319.0 358.0 323.0 369.0Z"/></g>
<g fill="red" transform="translate(1100 500) scale(0.1 -0.1)"><path d="M0.0 0.0 -52.0 21.0 -74.0 -7.0V-517.0H-66.0C-49.0 -517.0 -31.0 -505.0 -30.0 -500.0V-17.0C-13.0 -15.0 -3.0 -8.0 0.0 0.0ZM84.0 144.0 8.0 180.0C-35.0 87.0 -122.0 -52.0 -206.0 -145.0L-193.0 -158.0C-96.0 -71.0 -4.0 51.0 45.0 134.0C69.0 129.0 78.0 133.0 84.0 144.0ZM672.0 336.0 615.0 389.0C511.0 354.0 313.0 304.0 159.0 280.0L164.0 260.0C321.0 277.0 505.0 311.0 627.0 338.0C648.0 329.0 663.0 328.0 672.0 336.0Z"/></g>
<g fill="black" opacity=".8" transform="translate(1100 500) scale(0.1 -0.1)"><path d="M0.0 0.0 -50.0 20.0 -75.0 -12.0V-521.0H-66.0C-50.0 -521.0 -30.0 -510.0 -31.0 -504.0V-18.0C-14.0 -16.0 -3.0 -9.0 0.0 0.0ZM80.0 151.0 -1.0 183.0C-33.0 88.0 -113.0 -52.0 -220.0 -146.0L-207.0 -158.0C-85.0 -73.0 2.0 52.0 42.0 139.0C66.0 134.0 75.0 139.0 80.0 151.0ZM665.0 331.0 606.0 385.0C507.0 346.0 316.0 297.0 163.0 272.0L165.0 252.0C325.0 268.0 504.0 304.0 620.0 334.0C641.0 324.0 656.0 322.0 665.0 331.0Z"/></g>
<g fill="red" transform="translate(1200 500) scale(0.1 -0.1)"><path d="M0.0 0.0 -132.0 49.0 -171.0 -3.0V-517.0H-145.0C-85.0 -517.0 -32.0 -482.0 -31.0 -470.0V-19.0C-12.0 -16.0 -4.0 -9.0 0.0 0.0ZM51.0 149.0 -115.0 239.0C-144.0 141.0 -214.0 -26.0 -282.0 -137.0L-273.0 -145.0C-158.0 -65.0 -55.0 49.0 12.0 134.0C37.0 132.0 46.0 139.0 51.0 149.0ZM650.0 308.0 505.0 432.0C426.0 382.0 269.0 312.0 145.0 273.0L147.0 261.0C292.0 265.0 472.0 282.0 578.0 306.0C613.0 295.0 637.0 297.0 650.0 308.0Z"/></g>
<g fill="black" opacity=".8" transform="translate(1200 500) scale(0.1 -0.1)"><path d="M0.0 0.0 -133.0 49.0 -170.0 -2.0V-525.0H-144.0C-84.0 -525.0 -31.0 -489.0 -30.0 -476.0V-19.0C-11.0 -16.0 -4.0 -10.0 0.0 0.0ZM53.0 144.0 -116.0 231.0C-139.0 139.0 -203.0 -22.0 -293.0 -129.0L-285.0 -139.0C-143.0 -63.0 -43.0 47.0 15.0 128.0C40.0 127.0 48.0 132.0 53.0 144.0ZM653.0 301.0 513.0 430.0C434.0 383.0 275.0 319.0 146.0 284.0L141.0 272.0C293.0 271.0 475.0 283.0 582.0 303.0C617.0 289.0 640.0 291.0 653.0 301.0Z"/></g>
<g fill="red" transform="translate(1300 500) scale(0.1 -0.1)"><path d="M0.0 0.0 -48.0 18.0 -74.0 -15.0V-521.0H-66.0C-49.0 -521.0 -31.0 -509.0 -30.0 -504.0V-18.0C-13.0 -15.0 -3.0 -9.0 0.0 0.0ZM100.0 151.0 23.0 187.0C-24.0 86.0 -120.0 -60.0 -215.0 -157.0L-203.0 -169.0C-93.0 -80.0 7.0 50.0 61.0 141.0C84.0 137.0 93.0 141.0 100.0 151.0ZM374.0 376.0 300.0 385.0C289.0 302.0 270.0 190.0 259.0 128.0H300.0C312.0 187.0 330.0 283.0 340.0 352.0C360.0 353.0 371.0 363.0 374.0 376.0Z"/></g>
<g fill="black" opacity=".8" transform="translate(1300 500) scale(0.1 -0.1)"><path d="M0.0 0.0 -48.0 20.0 -74.0 -16.0V-524.0H-66.0C-49.0 -524.0 -30.0 -512.0 -31.0 -507.0V-18.0C-14.0 -15.0 -4.0 -10.0 0.0 0.0ZM97.0 150.0 21.0 186.0C-25.0 87.0 -124.0 -54.0 -218.0 -149.0L-206.0 -161.0C-98.0 -76.0 5.0 50.0 59.0 141.0C83.0 135.0 91.0 140.0 97.0 150.0ZM377.0 373.0 299.0 385.0C291.0 297.0 275.0 189.0 266.0 127.0L301.0 126.0C315.0 184.0 333.0 276.0 343.0 350.0C363.0 350.0 374.0 359.0 377.0 373.0Z"/></g>
<g fill="red" transform="translate(1400 500) scale(0.1 -0.1)"><path d="M0.0 0.0 -134.0 49.0 -171.0 0.0V-525.0H-145.0C-84.0 -525.0 -31.0 -489.0 -31.0 -476.0V-20.0C-11.0 -16.0 -3.0 -10.0 0.0 0.0ZM73.0 134.0 -93.0 227.0C-130.0 125.0 -215.0 -40.0 -301.0 -147.0L-293.0 -156.0C-159.0 -82.0 -41.0 31.0 34.0 120.0C59.0 117.0 69.0 124.0 73.0 134.0ZM376.0 403.0 212.0 424.0C198.0 333.0 177.0 213.0 164.0 146.0H295.0C306.0 204.0 325.0 307.0 336.0 374.0C359.0 377.0 373.0 387.0 376.0 403.0Z"/></g>
<g fill="black" opacity=".8" transform="translate(1400 500) scale(0.1 -0.1)"><path d="M0.0 0.0 -132.0 49.0 -171.0 -5.0V-525.0H-145.0C-86.0 -525.0 -32.0 -491.0 -30.0 -478.0V-19.0C-11.0 -17.0 -4.0 -9.0 0.0 0.0ZM77.0 137.0 -88.0 226.0C-128.0 121.0 -214.0 -45.0 -300.0 -153.0L-292.0 -163.0C-158.0 -86.0 -38.0 28.0 37.0 122.0C63.0 120.0 72.0 126.0 77.0 137.0ZM374.0 403.0 199.0 428.0C193.0 336.0 185.0 218.0 175.0 150.0L277.0 149.0C298.0 206.0 322.0 301.0 336.0 374.0C358.0 376.0 371.0 388.0 374.0 403.0Z"/></g>
<g fill="red" transform="translate(1500 500) scale(0.1 -0.1)"><path d="M0.0 0.0 -47.0 17.0 -74.0 -17.0V-523.0H-66.0C-49.0 -523.0 -31.0 -511.0 -30.0 -506.0V-18.0C-13.0 -16.0 -3.0 -9.0 0.0 0.0ZM102.0 140.0 26.0 176.0C-21.0 75.0 -119.0 -68.0 -216.0 -163.0L-205.0 -176.0C-93.0 -89.0 9.0 40.0 63.0 130.0C87.0 125.0 96.0 129.0 102.0 140.0ZM89.0 341.0 15.0 378.0C-30.0 293.0 -125.0 175.0 -216.0 99.0L-204.0 85.0C-100.0 153.0 -1.0 257.0 51.0 332.0C74.0 327.0 82.0 331.0 89.0 341.0Z"/></g>
<g fill="black" opacity=".8" transform="translate(1500 500) scale(0.1 -0.1)"><path d="M0.0 0.0 -48.0 19.0 -74.0 -15.0V-524.0H-66.0C-49.0 -524.0 -30.0 -512.0 -30.0 -507.0V-19.0C-14.0 -16.0 -4.0 -10.0 0.0 0.0ZM101.0 142.0 26.0 179.0C-22.0 79.0 -125.0 -63.0 -223.0 -159.0L-211.0 -171.0C-99.0 -85.0 6.0 42.0 63.0 133.0C86.0 127.0 95.0 133.0 101.0 142.0ZM92.0 342.0 18.0 380.0C-31.0 294.0 -131.0 177.0 -221.0 99.0L-210.0 84.0C-106.0 154.0 -3.0 258.0 54.0 334.0C76.0 327.0 84.0 330.0 92.0 342.0Z"/></g>
<g fill="red" transform="translate(1600 500) scale(0.1 -0.1)"><path d="M0.0 0.0 -134.0 49.0 -171.0 0.0V-529.0H-145.0C-84.0 -529.0 -31.0 -493.0 -31.0 -479.0V-20.0C-11.0 -16.0 -3.0 -10.0 0.0 0.0ZM81.0 132.0 -85.0 227.0C-125.0 125.0 -215.0 -38.0 -307.0 -144.0L-299.0 -153.0C-159.0 -81.0 -36.0 30.0 42.0 119.0C66.0 116.0 76.0 123.0 81.0 132.0ZM65.0 324.0 -95.0 422.0C-134.0 337.0 -220.0 204.0 -306.0 119.0L-298.0 109.0C-170.0 160.0 -51.0 242.0 26.0 311.0C50.0 308.0 59.0 314.0 65.0 324.0Z"/></g>
<g fill="black" opacity=".8" transform="translate(1600 500) scale(0.1 -0.1)"><path d="M0.0 0.0 -130.0 48.0 -170.0 -5.0V-527.0H-144.0C-85.0 -527.0 -31.0 -492.0 -30.0 -479.0V-19.0C-10.0 -16.0 -4.0 -10.0 0.0 0.0ZM80.0 130.0 -82.0 224.0C-122.0 121.0 -209.0 -42.0 -297.0 -148.0L-289.0 -158.0C-155.0 -84.0 -35.0 26.0 40.0 115.0C65.0 113.0 74.0 119.0 80.0 130.0ZM63.0 328.0 -96.0 425.0C-133.0 339.0 -216.0 206.0 -301.0 119.0L-295.0 108.0C-167.0 160.0 -50.0 243.0 24.0 315.0C49.0 311.0 58.0 320.0 63.0 328.0Z"/></g>
<g fill="red" transform="translate(100 600) scale(0.1 -0.1)"><path d="M0.0 0.0 -48.0 18.0 -74.0 -15.0V-521.0H-66.0C-49.0 -521.0 -31.0 -509.0 -30.0 -504.0V-18.0C-13.0 -15.0 -3.0 -9.0 0.0 0.0ZM300.0 -12.0 220.0 10.0C193.0 -53.0 143.0 -135.0 95.0 -182.0L109.0 -194.0C169.0 -153.0 230.0 -81.0 265.0 -24.0C289.0 -26.0 297.0 -23.0 300.0 -12.0ZM378.0 343.0 313.0 386.0C274.0 300.0 194.0 212.0 106.0 161.0L117.0 147.0C216.0 191.0 301.0 272.0 344.0 342.0C364.0 333.0 372.0 335.0 378.0 343.0Z"/></g>
<g fill="black" opacity=".8" transform="translate(100 600) scale(0.1 -0.1)"><path d="M0.0 0.0 -47.0 19.0 -75.0 -17.0V-524.0H-66.0C-50.0 -524.0 -30.0 -513.0 -30.0 -507.0V-18.0C-14.0 -16.0 -3.0 -9.0 0.0 0.0ZM308.0 -19.0 234.0 10.0C201.0 -51.0 136.0 -136.0 93.0 -189.0L106.0 -201.0C159.0 -158.0 230.0 -84.0 272.0 -28.0C295.0 -33.0 303.0 -29.0 308.0 -19.0ZM380.0 347.0 309.0 386.0C265.0 304.0 179.0 221.0 96.0 169.0L102.0 155.0C198.0 198.0 289.0 270.0 343.0 341.0C364.0 334.0 375.0 337.0 380.0 347.0Z"/></g>
<g fill="red" transform="translate(200 600) scale(0.1 -0.1)"><path d="M0.0 0.0 -134.0 49.0 -171.0 0.0V-525.0H-145.0C-84.0 -525.0 -31.0 -489.0 -31.0 -476.0V-20.0C-11.0 -16.0 -3.0 -10.0 0.0 0.0ZM338.0 -10.0 157.0 44.0C131.0 -29.0 76.0 -121.0 28.0 -174.0L35.0 -181.0C131.0 -147.0 231.0 -82.0 298.0 -22.0C325.0 -25.0 333.0 -21.0 338.0 -10.0ZM401.0 352.0 235.0 427.0C200.0 330.0 116.0 236.0 21.0 186.0L27.0 177.0C164.0 202.0 289.0 266.0 360.0 346.0C387.0 339.0 395.0 342.0 401.0 352.0Z"/></g>
<g fill="black" opacity=".8" transform="translate(200 600) scale(0.1 -0.1)"><path d="M0.0 0.0 -133.0 49.0 -169.0 -1.0V-523.0H-143.0C-83.0 -523.0 -31.0 -487.0 -30.0 -474.0V-19.0C-11.0 -16.0 -4.0 -10.0 0.0 0.0ZM330.0 -7.0 167.0 57.0C137.0 -18.0 75.0 -115.0 35.0 -174.0L42.0 -183.0C122.0 -146.0 222.0 -83.0 289.0 -20.0C316.0 -22.0 324.0 -19.0 330.0 -7.0ZM401.0 352.0 241.0 431.0C208.0 338.0 133.0 239.0 54.0 178.0L42.0 169.0C166.0 201.0 284.0 259.0 355.0 342.0C382.0 335.0 394.0 342.0 401.0 352.0Z"/></g>
<g fill="red" transform="translate(300 600) scale(0.1 -0.1)"><path d="M0.0 0.0 -52.0 21.0 -74.0 -7.0V-506.0H-66.0C-49.0 -506.0 -31.0 -493.0 -30.0 -489.0V-17.0C-13.0 -15.0 -3.0 -8.0 0.0 0.0ZM583.0 387.0 502.0 402.0C485.0 212.0 446.0 7.0 397.0 -137.0L414.0 -146.0C477.0 -12.0 522.0 185.0 547.0 363.0C570.0 365.0 580.0 375.0 583.0 387.0ZM58.0 354.0 -17.0 390.0C-50.0 318.0 -117.0 209.0 -181.0 134.0L-168.0 122.0C-94.0 188.0 -20.0 282.0 20.0 344.0C42.0 339.0 51.0 343.0 58.0 354.0Z"/></g>
<g fill="black" opacity=".8" transform="translate(300 600) scale(0.1 -0.1)"><path d="M0.0 0.0 -51.0 21.0 -74.0 -9.0V-511.0H-65.0C-49.0 -511.0 -30.0 -499.0 -30.0 -494.0V-18.0C-14.0 -16.0 -3.0 -9.0 0.0 0.0ZM578.0 384.0 494.0 398.0C481.0 206.0 445.0 14.0 382.0 -118.0L399.0 -127.0C476.0 -6.0 520.0 177.0 542.0 359.0C564.0 361.0 575.0 372.0 578.0 384.0ZM58.0 352.0 -18.0 384.0C-51.0 314.0 -116.0 208.0 -176.0 135.0L-164.0 123.0C-93.0 188.0 -20.0 278.0 21.0 340.0C43.0 336.0 52.0 339.0 58.0 352.0Z"/></g>
<g fill="red" transform="translate(400 600) scale(0.1 -0.1)"><path d="M0.0 0.0 -124.0 46.0 -161.0 -2.0V-516.0H-137.0C-81.0 -516.0 -32.0 -483.0 -31.0 -471.0V-19.0C-12.0 -15.0 -3.0 -9.0 0.0 0.0ZM574.0 405.0 418.0 430.0C415.0 257.0 392.0 65.0 355.0 -73.0L370.0 -80.0C454.0 34.0 506.0 197.0 537.0 379.0C560.0 382.0 571.0 392.0 574.0 405.0ZM25.0 346.0 -127.0 431.0C-147.0 356.0 -196.0 233.0 -248.0 152.0L-239.0 143.0C-149.0 195.0 -67.0 271.0 -13.0 332.0C11.0 329.0 20.0 336.0 25.0 346.0Z"/></g>
<g fill="black" opacity=".8" transform="translate(400 600) scale(0.1 -0.1)"><path d="M0.0 0.0 -124.0 47.0 -159.0 -1.0V-518.0H-135.0C-80.0 -518.0 -32.0 -484.0 -30.0 -473.0V-19.0C-11.0 -15.0 -4.0 -9.0 0.0 0.0ZM579.0 413.0 417.0 433.0C418.0 250.0 402.0 58.0 358.0 -78.0L372.0 -85.0C470.0 28.0 517.0 188.0 543.0 384.0C564.0 387.0 576.0 398.0 579.0 413.0ZM24.0 348.0 -124.0 426.0C-146.0 355.0 -198.0 232.0 -251.0 152.0L-245.0 142.0C-153.0 196.0 -68.0 272.0 -14.0 333.0C11.0 329.0 20.0 338.0 24.0 348.0Z"/></g>
<g fill="red" transform="translate(500 600) scale(0.1 -0.1)"><path d="M0.0 0.0 -49.0 19.0 -74.0 -13.0V-519.0H-66.0C-49.0 -519.0 -31.0 -507.0 -30.0 -502.0V-18.0C-13.0 -15.0 -3.0 -9.0 0.0 0.0ZM422.0 -181.0 336.0 -165.0C321.0 -315.0 251.0 -439.0 5.0 -507.0L13.0 -522.0C280.0 -461.0 360.0 -342.0 385.0 -203.0C405.0 -202.0 418.0 -197.0 422.0 -181.0ZM637.0 338.0 580.0 391.0C467.0 352.0 251.0 305.0 74.0 288.0L79.0 267.0C260.0 277.0 461.0 309.0 592.0 340.0C613.0 331.0 629.0 330.0 637.0 338.0Z"/></g>
<g fill="black" opacity=".8" transform="translate(500 600) scale(0.1 -0.1)"><path d="M0.0 0.0 -48.0 20.0 -75.0 -14.0V-519.0H-66.0C-49.0 -519.0 -30.0 -508.0 -30.0 -502.0V-19.0C-14.0 -15.0 -3.0 -9.0 0.0 0.0ZM427.0 -185.0 347.0 -164.0C319.0 -314.0 237.0 -440.0 17.0 -510.0L26.0 -525.0C265.0 -463.0 355.0 -345.0 390.0 -205.0C411.0 -206.0 423.0 -200.0 427.0 -185.0ZM643.0 338.0 586.0 392.0C469.0 355.0 246.0 305.0 67.0 286.0L74.0 267.0C255.0 278.0 462.0 311.0 597.0 341.0C618.0 331.0 634.0 328.0 643.0 338.0Z"/></g>
<g fill="red" transform="translate(600 600) scale(0.1 -0.1)"><path d="M0.0 0.0 -133.0 49.0 -171.0 -1.0V-526.0H-145.0C-84.0 -526.0 -31.0 -490.0 -31.0 -477.0V-20.0C-11.0 -16.0 -3.0 -9.0 0.0 0.0ZM411.0 -159.0 224.0 -141.0C230.0 -278.0 194.0 -422.0 -15.0 -512.0L-10.0 -523.0C276.0 -462.0 353.0 -337.0 374.0 -187.0C398.0 -185.0 409.0 -175.0 411.0 -159.0ZM597.0 305.0 472.0 433.0C369.0 388.0 166.0 328.0 10.0 298.0L12.0 284.0C184.0 281.0 394.0 292.0 526.0 309.0C559.0 295.0 583.0 295.0 597.0 305.0Z"/></g>
<g fill="black" opacity=".8" transform="translate(600 600) scale(0.1 -0.1)"><path d="M0.0 0.0 -135.0 50.0 -172.0 -2.0V-522.0H-147.0C-85.0 -522.0 -32.0 -487.0 -30.0 -474.0V-20.0C-10.0 -16.0 -4.0 -9.0 0.0 0.0ZM411.0 -156.0 229.0 -133.0C224.0 -276.0 180.0 -422.0 -4.0 -513.0L1.0 -525.0C255.0 -462.0 340.0 -340.0 374.0 -184.0C399.0 -182.0 409.0 -172.0 411.0 -156.0ZM594.0 303.0 465.0 438.0C363.0 393.0 165.0 328.0 12.0 296.0L24.0 282.0C189.0 281.0 393.0 293.0 520.0 307.0C554.0 292.0 579.0 294.0 594.0 303.0Z"/></g>
<g fill="red" transform="translate(700 600) scale(0.1 -0.1)"><path d="M0.0 0.0 -52.0 21.0 -74.0 -7.0V-517.0H-66.0C-49.0 -517.0 -31.0 -505.0 -30.0 -500.0V-17.0C-13.0 -15.0 -3.0 -8.0 0.0 0.0ZM397.0 -95.0 344.0 -47.0C278.0 -75.0 151.0 -111.0 49.0 -130.0L55.0 -148.0C159.0 -139.0 279.0 -114.0 356.0 -94.0C375.0 -102.0 389.0 -103.0 397.0 -95.0ZM577.0 375.0 498.0 392.0C475.0 229.0 430.0 65.0 375.0 -47.0L392.0 -57.0C459.0 46.0 511.0 201.0 541.0 353.0C563.0 354.0 573.0 363.0 577.0 375.0Z"/></g>
<g fill="black" opacity=".8" transform="translate(700 600) scale(0.1 -0.1)"><path d="M0.0 0.0 -53.0 23.0 -74.0 -5.0V-512.0H-66.0C-50.0 -512.0 -30.0 -501.0 -30.0 -496.0V-17.0C-14.0 -16.0 -3.0 -9.0 0.0 0.0ZM394.0 -94.0 339.0 -48.0C277.0 -74.0 152.0 -110.0 51.0 -129.0L57.0 -146.0C163.0 -138.0 283.0 -113.0 354.0 -93.0C374.0 -102.0 387.0 -102.0 394.0 -94.0ZM578.0 380.0 499.0 395.0C477.0 231.0 432.0 66.0 376.0 -46.0L394.0 -55.0C461.0 48.0 514.0 207.0 543.0 359.0C564.0 359.0 573.0 367.0 578.0 380.0Z"/></g>
<g fill="red" transform="translate(800 600) scale(0.1 -0.1)"><path d="M0.0 0.0 -123.0 45.0 -159.0 -2.0V-516.0H-135.0C-81.0 -516.0 -32.0 -483.0 -31.0 -472.0V-19.0C-13.0 -16.0 -4.0 -9.0 0.0 0.0ZM374.0 -98.0 273.0 -2.0C216.0 -41.0 104.0 -90.0 8.0 -113.0L11.0 -128.0C119.0 -129.0 239.0 -116.0 316.0 -97.0C344.0 -107.0 364.0 -107.0 374.0 -98.0ZM565.0 403.0 413.0 430.0C407.0 263.0 379.0 82.0 338.0 -45.0L352.0 -53.0C438.0 52.0 494.0 204.0 528.0 378.0C551.0 380.0 562.0 390.0 565.0 403.0Z"/></g>
<g fill="black" opacity=".8" transform="translate(800 600) scale(0.1 -0.1)"><path d="M0.0 0.0 -124.0 47.0 -159.0 0.0V-516.0H-134.0C-81.0 -516.0 -31.0 -483.0 -30.0 -472.0V-18.0C-13.0 -16.0 -5.0 -9.0 0.0 0.0ZM373.0 -98.0 268.0 -6.0C212.0 -42.0 103.0 -90.0 9.0 -114.0L13.0 -129.0C121.0 -128.0 242.0 -115.0 318.0 -99.0C346.0 -108.0 363.0 -109.0 373.0 -98.0ZM564.0 405.0 412.0 429.0C404.0 260.0 374.0 78.0 323.0 -48.0L348.0 -55.0C439.0 49.0 497.0 207.0 530.0 382.0C552.0 383.0 562.0 394.0 564.0 405.0Z"/></g>
<g fill="red" transform="translate(900 600) scale(0.1 -0.1)"><path d="M0.0 0.0 -45.0 17.0 -74.0 -20.0V-530.0H-65.0C-49.0 -530.0 -31.0 -517.0 -30.0 -513.0V-18.0C-14.0 -15.0 -4.0 -9.0 0.0 0.0ZM74.0 145.0 -5.0 178.0C-45.0 72.0 -129.0 -79.0 -221.0 -179.0L-208.0 -191.0C-103.0 -99.0 -13.0 38.0 35.0 133.0C59.0 130.0 68.0 134.0 74.0 145.0ZM436.0 356.0 361.0 379.0C351.0 295.0 335.0 184.0 325.0 121.0H372.0C381.0 181.0 393.0 273.0 401.0 339.0C421.0 338.0 432.0 345.0 436.0 356.0Z"/></g>
<g fill="black" opacity=".8" transform="translate(900 600) scale(0.1 -0.1)"><path d="M0.0 0.0 -47.0 19.0 -74.0 -17.0V-523.0H-65.0C-49.0 -523.0 -30.0 -511.0 -30.0 -506.0V-18.0C-14.0 -15.0 -4.0 -9.0 0.0 0.0ZM76.0 141.0 -2.0 175.0C-40.0 67.0 -124.0 -83.0 -218.0 -185.0L-205.0 -197.0C-96.0 -105.0 -6.0 31.0 39.0 130.0C63.0 126.0 71.0 131.0 76.0 141.0ZM437.0 369.0 360.0 381.0C350.0 297.0 333.0 195.0 324.0 136.0L360.0 135.0C372.0 190.0 390.0 275.0 403.0 345.0C423.0 346.0 434.0 355.0 437.0 369.0Z"/></g>
<g fill="red" transform="translate(1000 600) scale(0.1 -0.1)"><path d="M0.0 0.0 -132.0 49.0 -171.0 -3.0V-524.0H-145.0C-85.0 -524.0 -32.0 -490.0 -31.0 -477.0V-19.0C-12.0 -16.0 -4.0 -9.0 0.0 0.0ZM61.0 129.0 -114.0 213.0C-142.0 99.0 -211.0 -81.0 -292.0 -200.0L-284.0 -208.0C-149.0 -122.0 -44.0 9.0 22.0 112.0C48.0 111.0 57.0 118.0 61.0 129.0ZM442.0 388.0 257.0 429.0C246.0 344.0 228.0 231.0 217.0 168.0H356.0C368.0 218.0 387.0 305.0 399.0 361.0C422.0 363.0 437.0 372.0 442.0 388.0Z"/></g>
<g fill="black" opacity=".8" transform="translate(1000 600) scale(0.1 -0.1)"><path d="M0.0 0.0 -131.0 49.0 -169.0 -4.0V-527.0H-144.0C-84.0 -527.0 -31.0 -492.0 -30.0 -479.0V-19.0C-11.0 -16.0 -4.0 -9.0 0.0 0.0ZM55.0 134.0 -118.0 214.0C-146.0 101.0 -214.0 -77.0 -295.0 -193.0L-287.0 -202.0C-152.0 -116.0 -47.0 10.0 17.0 116.0C43.0 115.0 51.0 122.0 55.0 134.0ZM437.0 395.0 262.0 420.0C255.0 333.0 246.0 223.0 241.0 160.0L347.0 159.0C361.0 212.0 382.0 299.0 395.0 366.0C418.0 368.0 433.0 380.0 437.0 395.0Z"/></g>
<g fill="red" transform="translate(1100 600) scale(0.1 -0.1)"><path d="M0.0 0.0 -48.0 18.0 -74.0 -15.0V-517.0H-66.0C-49.0 -517.0 -31.0 -505.0 -30.0 -501.0V-18.0C-13.0 -15.0 -3.0 -9.0 0.0 0.0ZM97.0 155.0 20.0 190.0C-23.0 91.0 -114.0 -49.0 -204.0 -144.0L-191.0 -157.0C-88.0 -70.0 7.0 57.0 58.0 144.0C82.0 140.0 90.0 144.0 97.0 155.0ZM85.0 347.0 11.0 384.0C-30.0 304.0 -116.0 187.0 -196.0 109.0L-183.0 96.0C-91.0 165.0 -1.0 267.0 47.0 338.0C70.0 332.0 79.0 336.0 85.0 347.0Z"/></g>
<g fill="black" opacity=".8" transform="translate(1100 600) scale(0.1 -0.1)"><path d="M0.0 0.0 -47.0 19.0 -74.0 -16.0V-523.0H-66.0C-49.0 -523.0 -30.0 -510.0 -30.0 -505.0V-18.0C-14.0 -16.0 -4.0 -10.0 0.0 0.0ZM101.0 153.0 26.0 189.0C-21.0 88.0 -117.0 -55.0 -207.0 -151.0L-195.0 -163.0C-92.0 -76.0 9.0 52.0 63.0 144.0C86.0 138.0 95.0 144.0 101.0 153.0ZM82.0 341.0 9.0 377.0C-33.0 299.0 -120.0 189.0 -195.0 117.0L-181.0 104.0C-93.0 169.0 -3.0 265.0 45.0 332.0C67.0 326.0 75.0 330.0 82.0 341.0Z"/></g>
<g fill="red" transform="translate(1200 600) scale(0.1 -0.1)"><path d="M0.0 0.0 -134.0 49.0 -171.0 0.0V-525.0H-145.0C-84.0 -525.0 -31.0 -489.0 -31.0 -476.0V-20.0C-11.0 -16.0 -3.0 -10.0 0.0 0.0ZM84.0 136.0 -83.0 228.0C-119.0 124.0 -202.0 -44.0 -287.0 -155.0L-279.0 -164.0C-145.0 -86.0 -29.0 31.0 45.0 122.0C70.0 119.0 79.0 126.0 84.0 136.0ZM52.0 329.0 -109.0 425.0C-138.0 346.0 -206.0 219.0 -274.0 137.0L-267.0 128.0C-156.0 177.0 -54.0 252.0 13.0 316.0C37.0 313.0 47.0 319.0 52.0 329.0Z"/></g>
<g fill="black" opacity=".8" transform="translate(1200 600) scale(0.1 -0.1)"><path d="M0.0 0.0 -131.0 49.0 -170.0 -4.0V-528.0H-144.0C-84.0 -528.0 -31.0 -493.0 -30.0 -480.0V-19.0C-10.0 -16.0 -4.0 -10.0 0.0 0.0ZM81.0 138.0 -82.0 230.0C-120.0 125.0 -203.0 -40.0 -284.0 -147.0L-276.0 -157.0C-148.0 -80.0 -32.0 31.0 42.0 123.0C67.0 121.0 76.0 127.0 81.0 138.0ZM54.0 329.0 -105.0 419.0C-138.0 340.0 -209.0 214.0 -281.0 134.0L-262.0 125.0C-152.0 173.0 -49.0 252.0 16.0 315.0C41.0 312.0 50.0 320.0 54.0 329.0Z"/></g>
<g fill="red" transform="translate(1300 600) scale(0.1 -0.1)"><path d="M0.0 0.0 -52.0 21.0 -74.0 -7.0V-517.0H-66.0C-49.0 -517.0 -31.0 -505.0 -30.0 -500.0V-17.0C-13.0 -15.0 -3.0 -8.0 0.0 0.0ZM74.0 150.0 -4.0 185.0C-41.0 92.0 -119.0 -48.0 -195.0 -145.0L-181.0 -157.0C-93.0 -68.0 -10.0 57.0 35.0 139.0C58.0 135.0 67.0 139.0 74.0 150.0ZM577.0 379.0 496.0 395.0C480.0 241.0 441.0 89.0 390.0 -19.0L406.0 -28.0C470.0 68.0 517.0 212.0 542.0 356.0C564.0 358.0 574.0 367.0 577.0 379.0Z"/></g>
<g fill="black" opacity=".8" transform="translate(1300 600) scale(0.1 -0.1)"><path d="M0.0 0.0 -49.0 22.0 -75.0 -12.0V-521.0H-66.0C-50.0 -521.0 -30.0 -509.0 -30.0 -503.0V-18.0C-14.0 -15.0 -3.0 -9.0 0.0 0.0ZM75.0 148.0 -1.0 181.0C-38.0 92.0 -122.0 -51.0 -191.0 -150.0L-176.0 -162.0C-97.0 -72.0 -10.0 56.0 37.0 139.0C62.0 133.0 69.0 137.0 75.0 148.0ZM579.0 372.0 498.0 391.0C477.0 238.0 436.0 89.0 389.0 -13.0L408.0 -23.0C466.0 69.0 514.0 210.0 543.0 351.0C564.0 352.0 575.0 360.0 579.0 372.0Z"/></g>
<g fill="red" transform="translate(1400 600) scale(0.1 -0.1)"><path d="M0.0 0.0 -123.0 45.0 -159.0 -2.0V-516.0H-135.0C-81.0 -516.0 -32.0 -483.0 -31.0 -472.0V-19.0C-13.0 -16.0 -4.0 -9.0 0.0 0.0ZM62.0 152.0 -106.0 240.0C-130.0 143.0 -191.0 -23.0 -251.0 -134.0L-242.0 -143.0C-134.0 -62.0 -39.0 52.0 22.0 136.0C48.0 134.0 57.0 141.0 62.0 152.0ZM606.0 393.0 435.0 423.0C434.0 279.0 411.0 124.0 375.0 13.0L389.0 5.0C476.0 88.0 533.0 212.0 568.0 368.0C591.0 370.0 603.0 379.0 606.0 393.0Z"/></g>
<g fill="black" opacity=".8" transform="translate(1400 600) scale(0.1 -0.1)"><path d="M0.0 0.0 -123.0 46.0 -159.0 -3.0V-518.0H-136.0C-81.0 -518.0 -32.0 -484.0 -30.0 -473.0V-19.0C-12.0 -16.0 -5.0 -9.0 0.0 0.0ZM62.0 153.0 -103.0 241.0C-132.0 143.0 -198.0 -22.0 -250.0 -129.0L-242.0 -139.0C-142.0 -58.0 -42.0 57.0 21.0 140.0C49.0 138.0 57.0 142.0 62.0 153.0ZM610.0 391.0 432.0 427.0C425.0 278.0 401.0 119.0 366.0 9.0L402.0 1.0C481.0 86.0 535.0 212.0 568.0 367.0C592.0 368.0 606.0 379.0 610.0 391.0Z"/></g>
<g fill="red" transform="translate(1500 600) scale(0.1 -0.1)"><path d="M0.0 0.0 -52.0 21.0 -74.0 -7.0V-517.0H-66.0C-49.0 -517.0 -31.0 -505.0 -30.0 -500.0V-17.0C-13.0 -15.0 -3.0 -8.0 0.0 0.0ZM557.0 374.0 474.0 390.0C457.0 228.0 417.0 66.0 364.0 -46.0L380.0 -56.0C447.0 45.0 496.0 198.0 522.0 351.0C544.0 352.0 554.0 361.0 557.0 374.0ZM284.0 376.0 204.0 389.0C200.0 352.0 192.0 293.0 186.0 261.0H207.0C220.0 289.0 237.0 325.0 249.0 353.0C270.0 355.0 281.0 362.0 284.0 376.0Z"/></g>
<g fill="black" opacity=".8" transform="translate(1500 600) scale(0.1 -0.1)"><path d="M0.0 0.0 -50.0 20.0 -74.0 -12.0V-516.0H-66.0C-50.0 -516.0 -31.0 -505.0 -31.0 -499.0V-18.0C-14.0 -15.0 -3.0 -9.0 0.0 0.0ZM555.0 376.0 473.0 393.0C453.0 230.0 414.0 63.0 375.0 -53.0L392.0 -62.0C445.0 42.0 493.0 201.0 520.0 354.0C543.0 355.0 553.0 365.0 555.0 376.0ZM286.0 372.0 211.0 391.0C203.0 353.0 190.0 291.0 184.0 261.0L211.0 260.0C222.0 288.0 240.0 329.0 252.0 354.0C272.0 353.0 283.0 359.0 286.0 372.0Z"/></g>
<g fill="red" transform="translate(1600 600) scale(0.1 -0.1)"><path d="M0.0 0.0 -132.0 49.0 -171.0 -3.0V-517.0H-145.0C-85.0 -517.0 -32.0 -482.0 -31.0 -470.0V-19.0C-12.0 -16.0 -4.0 -9.0 0.0 0.0ZM568.0 401.0 403.0 431.0C398.0 269.0 367.0 97.0 323.0 -24.0L336.0 -31.0C431.0 63.0 493.0 203.0 531.0 376.0C553.0 378.0 565.0 387.0 568.0 401.0ZM284.0 411.0 128.0 435.0C128.0 390.0 125.0 322.0 122.0 284.0H160.0C185.0 312.0 223.0 355.0 245.0 384.0C268.0 386.0 280.0 395.0 284.0 411.0Z"/></g>
<g fill="black" opacity=".8" transform="translate(1600 600) scale(0.1 -0.1)"><path d="M0.0 0.0 -131.0 49.0 -168.0 -2.0V-516.0H-143.0C-85.0 -516.0 -32.0 -482.0 -31.0 -470.0V-19.0C-11.0 -16.0 -4.0 -9.0 0.0 0.0ZM571.0 397.0 406.0 427.0C395.0 266.0 359.0 97.0 325.0 -20.0L338.0 -27.0C422.0 67.0 490.0 204.0 535.0 373.0C557.0 375.0 568.0 384.0 571.0 397.0ZM285.0 410.0 125.0 442.0C118.0 392.0 108.0 317.0 98.0 282.0H173.0C193.0 310.0 226.0 361.0 244.0 386.0C268.0 385.0 280.0 394.0 285.0 410.0Z"/></g>
<g fill="red" transform="translate(100 700) scale(0.1 -0.1)"><path d="M0.0 0.0 -50.0 20.0 -74.0 -11.0V-517.0H-66.0C-49.0 -517.0 -31.0 -505.0 -30.0 -500.0V-18.0C-13.0 -15.0 -3.0 -9.0 0.0 0.0ZM573.0 375.0 493.0 391.0C475.0 231.0 438.0 64.0 392.0 -53.0L409.0 -62.0C468.0 45.0 512.0 204.0 537.0 352.0C559.0 354.0 569.0 363.0 573.0 375.0ZM60.0 350.0 -16.0 387.0C-49.0 314.0 -116.0 205.0 -181.0 131.0L-167.0 118.0C-92.0 184.0 -18.0 278.0 21.0 341.0C44.0 336.0 53.0 340.0 60.0 350.0Z"/></g>
<g fill="black" opacity=".8" transform="translate(100 700) scale(0.1 -0.1)"><path d="M0.0 0.0 -52.0 21.0 -74.0 -8.0V-515.0H-66.0C-49.0 -515.0 -31.0 -503.0 -30.0 -498.0V-18.0C-14.0 -16.0 -3.0 -9.0 0.0 0.0ZM577.0 376.0 497.0 395.0C477.0 231.0 436.0 62.0 395.0 -56.0L412.0 -65.0C464.0 41.0 512.0 200.0 540.0 355.0C563.0 355.0 574.0 365.0 577.0 376.0ZM60.0 353.0 -17.0 388.0C-49.0 310.0 -114.0 201.0 -179.0 123.0L-172.0 111.0C-93.0 179.0 -18.0 274.0 22.0 342.0C45.0 338.0 54.0 341.0 60.0 353.0Z"/></g>
<g fill="red" transform="translate(200 700) scale(0.1 -0.1)"><path d="M0.0 0.0 -120.0 45.0 -153.0 1.0V-520.0H-130.0C-78.0 -520.0 -32.0 -488.0 -31.0 -477.0V-19.0C-12.0 -15.0 -3.0 -9.0 0.0 0.0ZM580.0 400.0 429.0 427.0C425.0 273.0 399.0 105.0 362.0 -14.0L377.0 -21.0C458.0 75.0 511.0 215.0 544.0 375.0C566.0 377.0 577.0 387.0 580.0 400.0ZM35.0 351.0 -112.0 432.0C-137.0 348.0 -197.0 213.0 -259.0 124.0L-250.0 114.0C-150.0 176.0 -61.0 268.0 -4.0 338.0C21.0 335.0 30.0 341.0 35.0 351.0Z"/></g>
<g fill="black" opacity=".8" transform="translate(200 700) scale(0.1 -0.1)"><path d="M0.0 0.0 -126.0 47.0 -160.0 -0.0V-523.0H-136.0C-81.0 -523.0 -32.0 -488.0 -31.0 -477.0V-19.0C-11.0 -16.0 -4.0 -9.0 0.0 0.0ZM581.0 398.0 430.0 431.0C421.0 273.0 392.0 106.0 365.0 -12.0L378.0 -20.0C450.0 76.0 506.0 210.0 542.0 374.0C564.0 376.0 576.0 384.0 581.0 398.0ZM32.0 348.0 -116.0 429.0C-136.0 348.0 -187.0 220.0 -246.0 134.0L-259.0 124.0C-153.0 181.0 -62.0 262.0 -4.0 335.0C20.0 331.0 28.0 339.0 32.0 348.0Z"/></g>
</svg>
