<?xml version="1.0" encoding="UTF-8"?>
<svg width="1700" height="300" xmlns="http://www.w3.org/2000/svg">
<rect width="100%" height="100%" fill="white"/>
<g fill="green" transform="translate(100 100) scale(0.1 -0.1)"><path d="M-0.0 -0.0 -19.0 -10.0C80.0 -73.0 158.0 -156.0 194.0 -217.0C264.0 -253.0 323.0 -103.0 0.0 0.0ZM49.0 -579.0 32.0 -592.0C83.0 -641.0 141.0 -724.0 154.0 -789.0C224.0 -836.0 270.0 -678.0 49.0 -579.0ZM-237.0 -432.0 -225.0 -473.0 292.0 -475.0C311.0 -474.0 325.0 -466.0 328.0 -449.0C285.0 -413.0 218.0 -361.0 218.0 -361.0L162.0 -437.0ZM532.0 37.0V-898.0H545.0C570.0 -898.0 596.0 -882.0 596.0 -870.0V-15.0C630.0 -10.0 643.0 3.0 647.0 23.0Z"/></g>
<g fill="green" transform="translate(200 100) scale(0.1 -0.1)"><path d="M0.0 0.0 -14.0 -5.0C32.0 -60.0 68.0 -138.0 77.0 -185.0C206.0 -287.0 393.0 -30.0 0.0 0.0ZM-14.0 -553.0 -27.0 -562.0C-7.0 -612.0 18.0 -684.0 16.0 -747.0C139.0 -847.0 278.0 -614.0 -14.0 -553.0ZM-266.0 -391.0 -254.0 -432.0 215.0 -439.0C234.0 -438.0 249.0 -430.0 252.0 -415.0C205.0 -369.0 122.0 -302.0 122.0 -302.0L53.0 -397.0ZM397.0 67.0V-918.0H431.0C500.0 -918.0 579.0 -881.0 579.0 -865.0V5.0C618.0 11.0 628.0 25.0 631.0 45.0Z"/></g>
<g fill="green" transform="translate(300 100) scale(0.1 -0.1)"><path d="M0.0 0.0 -14.0 -6.0C58.0 -52.0 105.0 -106.0 130.0 -146.0C174.0 -168.0 221.0 -74.0 0.0 0.0ZM79.0 -448.0 67.0 -456.0C94.0 -491.0 122.0 -545.0 125.0 -589.0C169.0 -622.0 205.0 -520.0 79.0 -448.0ZM-168.0 -216.0 -162.0 -244.0 93.0 -283.0C106.0 -283.0 116.0 -278.0 119.0 -266.0C90.0 -241.0 46.0 -204.0 46.0 -204.0L7.0 -252.0ZM404.0 8.0V-560.0H412.0C430.0 -560.0 447.0 -549.0 447.0 -541.0V-27.0C470.0 -23.0 479.0 -15.0 482.0 -1.0Z"/></g>
<g fill="green" transform="translate(400 100) scale(0.1 -0.1)"><path d="M0.0 0.0 -10.0 -3.0C18.0 -38.0 35.0 -86.0 38.0 -107.0C112.0 -174.0 251.0 -22.0 0.0 0.0ZM16.0 -414.0 6.0 -421.0C10.0 -452.0 17.0 -495.0 11.0 -531.0C80.0 -595.0 173.0 -466.0 16.0 -414.0ZM-207.0 -169.0 -200.0 -197.0 -1.0 -240.0C12.0 -240.0 22.0 -235.0 25.0 -225.0C-1.0 -196.0 -50.0 -154.0 -50.0 -154.0L-91.0 -201.0ZM283.0 35.0V-566.0H305.0C349.0 -566.0 400.0 -543.0 400.0 -533.0V-6.0C427.0 -2.0 434.0 7.0 436.0 21.0Z"/></g>
<g fill="green" transform="translate(500 100) scale(0.1 -0.1)"><path d="M-0.0 0.0 -15.0 -19.0C93.0 -62.0 211.0 -135.0 267.0 -192.0C363.0 -218.0 377.0 -32.0 0.0 0.0ZM67.0 -215.0 54.0 -236.0C144.0 -276.0 262.0 -356.0 309.0 -423.0C409.0 -454.0 416.0 -257.0 67.0 -215.0ZM-339.0 -421.0 -324.0 -468.0 720.0 -413.0C743.0 -412.0 759.0 -402.0 763.0 -382.0C708.0 -342.0 623.0 -286.0 623.0 -286.0L555.0 -371.0ZM556.0 20.0V-746.0H570.0C598.0 -746.0 628.0 -729.0 628.0 -716.0V-36.0C666.0 -31.0 681.0 -17.0 685.0 5.0Z"/></g>
<g fill="green" transform="translate(600 100) scale(0.1 -0.1)"><path d="M0.0 0.0 -12.0 -9.0C52.0 -55.0 126.0 -135.0 159.0 -196.0C346.0 -273.0 461.0 72.0 0.0 0.0ZM13.0 -213.0 2.0 -225.0C60.0 -279.0 136.0 -370.0 167.0 -452.0C366.0 -539.0 464.0 -174.0 13.0 -213.0ZM-334.0 -419.0 -320.0 -465.0 660.0 -411.0C683.0 -409.0 702.0 -399.0 705.0 -381.0C627.0 -322.0 499.0 -241.0 499.0 -241.0L400.0 -375.0ZM446.0 34.0V-775.0H486.0C569.0 -775.0 665.0 -738.0 665.0 -722.0V-34.0C709.0 -28.0 720.0 -12.0 723.0 9.0Z"/></g>
<g fill="green" transform="translate(700 100) scale(0.1 -0.1)"><path d="M0.0 0.0 -15.0 -14.0C39.0 -52.0 103.0 -124.0 123.0 -181.0C198.0 -223.0 238.0 -63.0 0.0 0.0ZM-299.0 -615.0 -315.0 -630.0C-267.0 -662.0 -215.0 -721.0 -200.0 -769.0C-133.0 -809.0 -92.0 -668.0 -299.0 -615.0ZM-20.0 -588.0 -1.0 -626.0 409.0 -524.0C426.0 -521.0 438.0 -510.0 438.0 -493.0C394.0 -461.0 324.0 -411.0 324.0 -411.0L279.0 -511.0ZM213.0 113.0V-896.0H226.0C251.0 -896.0 277.0 -879.0 277.0 -867.0V60.0C312.0 65.0 324.0 78.0 329.0 99.0Z"/></g>
<g fill="green" transform="translate(800 100) scale(0.1 -0.1)"><path d="M0.0 0.0 -13.0 -8.0C21.0 -58.0 54.0 -135.0 54.0 -202.0C190.0 -306.0 328.0 -43.0 0.0 0.0ZM-289.0 -636.0 -303.0 -645.0C-290.0 -673.0 -270.0 -723.0 -271.0 -762.0C-176.0 -834.0 -63.0 -663.0 -289.0 -636.0ZM29.0 -580.0 47.0 -617.0 440.0 -531.0C456.0 -527.0 469.0 -516.0 469.0 -502.0C429.0 -465.0 361.0 -410.0 361.0 -410.0L308.0 -517.0ZM165.0 127.0V-932.0H198.0C266.0 -932.0 345.0 -894.0 345.0 -878.0V65.0C384.0 71.0 394.0 84.0 398.0 106.0Z"/></g>
<g fill="green" transform="translate(900 100) scale(0.1 -0.1)"><path d="M0.0 0.0 -19.0 -9.0C67.0 -73.0 133.0 -158.0 159.0 -220.0C224.0 -262.0 289.0 -116.0 0.0 0.0ZM168.0 -435.0 149.0 -446.0C195.0 -501.0 246.0 -591.0 254.0 -660.0C320.0 -712.0 376.0 -559.0 168.0 -435.0ZM-114.0 -560.0 -100.0 -598.0 197.0 -569.0C215.0 -567.0 227.0 -558.0 230.0 -541.0C188.0 -511.0 123.0 -467.0 123.0 -467.0L75.0 -540.0ZM445.0 61.0V-1036.0H458.0C482.0 -1036.0 507.0 -1020.0 507.0 -1008.0V11.0C538.0 17.0 550.0 29.0 554.0 48.0Z"/></g>
<g fill="green" transform="translate(1000 100) scale(0.1 -0.1)"><path d="M0.0 0.0 -13.0 -5.0C24.0 -61.0 48.0 -137.0 47.0 -188.0C168.0 -304.0 371.0 -60.0 0.0 0.0ZM124.0 -410.0 111.0 -418.0C132.0 -479.0 149.0 -562.0 136.0 -637.0C267.0 -767.0 447.0 -508.0 124.0 -410.0ZM-117.0 -512.0 -104.0 -551.0 159.0 -533.0C177.0 -532.0 190.0 -523.0 192.0 -509.0C156.0 -469.0 91.0 -410.0 91.0 -410.0L36.0 -502.0ZM321.0 91.0V-1053.0H354.0C418.0 -1053.0 492.0 -1013.0 492.0 -995.0V31.0C529.0 37.0 539.0 51.0 542.0 70.0Z"/></g>
<g fill="green" transform="translate(1100 100) scale(0.1 -0.1)"><path d="M0.0 0.0 -15.0 -6.0C80.0 -65.0 156.0 -141.0 191.0 -196.0C244.0 -222.0 292.0 -106.0 0.0 0.0ZM27.0 -582.0 15.0 -592.0C61.0 -634.0 120.0 -708.0 133.0 -765.0C187.0 -803.0 220.0 -674.0 27.0 -582.0ZM-248.0 -436.0 -240.0 -465.0 260.0 -432.0C275.0 -432.0 285.0 -426.0 289.0 -414.0C255.0 -388.0 206.0 -352.0 206.0 -352.0L166.0 -403.0ZM532.0 67.0V-902.0H542.0C560.0 -902.0 579.0 -890.0 579.0 -880.0V27.0C605.0 32.0 614.0 42.0 618.0 57.0Z"/></g>
<g fill="green" transform="translate(1200 100) scale(0.1 -0.1)"><path d="M0.0 0.0 -10.0 -3.0C49.0 -58.0 102.0 -135.0 129.0 -183.0C246.0 -258.0 387.0 -22.0 0.0 0.0ZM-2.0 -585.0 -11.0 -593.0C28.0 -634.0 72.0 -700.0 87.0 -762.0C205.0 -829.0 285.0 -602.0 -2.0 -585.0ZM-274.0 -410.0 -266.0 -440.0 230.0 -428.0C245.0 -427.0 256.0 -422.0 260.0 -411.0C219.0 -373.0 149.0 -314.0 149.0 -314.0L88.0 -397.0ZM458.0 87.0V-930.0H486.0C539.0 -930.0 600.0 -895.0 600.0 -879.0V38.0C630.0 43.0 637.0 54.0 639.0 69.0Z"/></g>
<g fill="green" transform="translate(1300 100) scale(0.1 -0.1)"><path d="M0.0 -0.0 -19.0 -7.0C75.0 -73.0 147.0 -159.0 179.0 -219.0C240.0 -257.0 306.0 -121.0 0.0 0.0ZM55.0 -561.0 39.0 -571.0C83.0 -624.0 134.0 -710.0 143.0 -774.0C205.0 -823.0 256.0 -680.0 55.0 -561.0ZM-290.0 -432.0 -279.0 -470.0 288.0 -460.0C305.0 -459.0 318.0 -452.0 321.0 -436.0C282.0 -403.0 223.0 -356.0 223.0 -356.0L173.0 -426.0ZM525.0 21.0V-888.0H537.0C559.0 -888.0 582.0 -874.0 582.0 -863.0V-24.0C612.0 -20.0 624.0 -8.0 627.0 9.0Z"/></g>
<g fill="green" transform="translate(1400 100) scale(0.1 -0.1)"><path d="M0.0 0.0 -13.0 -3.0C28.0 -62.0 54.0 -141.0 57.0 -191.0C179.0 -309.0 395.0 -60.0 0.0 0.0ZM-15.0 -546.0 -28.0 -554.0C-5.0 -612.0 15.0 -693.0 7.0 -766.0C128.0 -886.0 293.0 -648.0 -15.0 -546.0ZM-350.0 -425.0 -340.0 -463.0 217.0 -466.0C235.0 -466.0 250.0 -459.0 253.0 -445.0C203.0 -393.0 115.0 -315.0 115.0 -315.0L35.0 -430.0ZM402.0 35.0V-923.0H435.0C499.0 -923.0 575.0 -886.0 575.0 -871.0V-20.0C607.0 -15.0 615.0 -3.0 618.0 14.0Z"/></g>
<g fill="green" transform="translate(1500 100) scale(0.1 -0.1)"><path d="M-0.0 0.0 -18.0 -7.0C80.0 -74.0 156.0 -162.0 188.0 -226.0C252.0 -264.0 312.0 -121.0 0.0 0.0ZM50.0 -586.0 35.0 -597.0C86.0 -647.0 143.0 -733.0 152.0 -801.0C217.0 -850.0 262.0 -695.0 50.0 -586.0ZM-267.0 -421.0 -259.0 -458.0 281.0 -498.0C298.0 -498.0 310.0 -491.0 313.0 -478.0C278.0 -444.0 221.0 -395.0 221.0 -395.0L168.0 -458.0ZM534.0 28.0V-907.0H545.0C566.0 -907.0 588.0 -893.0 588.0 -882.0V-21.0C622.0 -16.0 633.0 -4.0 637.0 15.0Z"/></g>
<g fill="green" transform="translate(1600 100) scale(0.1 -0.1)"><path d="M0.0 0.0 -13.0 -4.0C34.0 -59.0 68.0 -135.0 80.0 -181.0C195.0 -275.0 366.0 -41.0 0.0 0.0ZM-4.0 -544.0 -14.0 -551.0C2.0 -601.0 20.0 -668.0 16.0 -729.0C125.0 -829.0 263.0 -618.0 -4.0 -544.0ZM-289.0 -371.0 -280.0 -407.0 233.0 -418.0C250.0 -418.0 264.0 -412.0 267.0 -398.0C218.0 -357.0 135.0 -298.0 135.0 -298.0L72.0 -381.0ZM406.0 77.0V-911.0H436.0C502.0 -911.0 572.0 -875.0 572.0 -860.0V16.0C611.0 22.0 622.0 36.0 625.0 56.0Z"/></g>
<g fill="red" transform="translate(100 200) scale(0.1 -0.1)"><path d="M0.0 0.0 -9.0 -12.0C59.0 -45.0 152.0 -111.0 185.0 -163.0C251.0 -189.0 258.0 -54.0 0.0 0.0ZM-98.0 -219.0 -106.0 -231.0C-36.0 -263.0 62.0 -329.0 98.0 -381.0C166.0 -406.0 169.0 -269.0 -98.0 -219.0ZM-224.0 -560.0 -211.0 -586.0 654.0 -443.0C667.0 -442.0 676.0 -434.0 677.0 -423.0C642.0 -401.0 587.0 -371.0 587.0 -371.0L552.0 -431.0ZM334.0 88.0V-820.0H343.0C359.0 -820.0 378.0 -808.0 378.0 -799.0V51.0C403.0 55.0 411.0 65.0 414.0 79.0Z"/></g>
<g fill="black" opacity=".8" transform="translate(100 200) scale(0.1 -0.1)"><path d="M0.0 0.0 -9.0 -12.0C59.0 -44.0 152.0 -111.0 186.0 -162.0C252.0 -188.0 258.0 -51.0 0.0 0.0ZM-102.0 -219.0 -108.0 -233.0C-37.0 -263.0 62.0 -328.0 98.0 -380.0C166.0 -404.0 169.0 -266.0 -102.0 -219.0ZM-224.0 -558.0 -212.0 -585.0 652.0 -444.0C667.0 -443.0 674.0 -435.0 678.0 -423.0C641.0 -402.0 587.0 -372.0 587.0 -372.0L552.0 -431.0ZM335.0 87.0V-820.0H344.0C359.0 -820.0 377.0 -809.0 377.0 -800.0V51.0C402.0 55.0 410.0 65.0 414.0 79.0Z"/></g>
<g fill="red" transform="translate(200 200) scale(0.1 -0.1)"><path d="M0.0 0.0 -6.0 -6.0C55.0 -54.0 127.0 -133.0 163.0 -207.0C317.0 -273.0 385.0 17.0 0.0 0.0ZM-74.0 -270.0 -80.0 -277.0C-11.0 -320.0 63.0 -399.0 99.0 -474.0C259.0 -540.0 323.0 -234.0 -74.0 -270.0ZM-186.0 -603.0 -174.0 -629.0 736.0 -500.0C750.0 -498.0 762.0 -490.0 763.0 -479.0C700.0 -435.0 602.0 -372.0 602.0 -372.0L525.0 -502.0ZM348.0 82.0V-867.0H377.0C435.0 -867.0 501.0 -830.0 501.0 -815.0V35.0C529.0 39.0 536.0 50.0 538.0 64.0Z"/></g>
<g fill="black" opacity=".8" transform="translate(200 200) scale(0.1 -0.1)"><path d="M0.0 0.0 -6.0 -6.0C55.0 -54.0 126.0 -131.0 162.0 -206.0C317.0 -273.0 387.0 18.0 0.0 0.0ZM-74.0 -269.0 -80.0 -277.0C-12.0 -320.0 63.0 -398.0 97.0 -474.0C259.0 -541.0 324.0 -233.0 -74.0 -269.0ZM-186.0 -603.0 -176.0 -629.0 735.0 -501.0C749.0 -499.0 761.0 -492.0 763.0 -480.0C700.0 -437.0 602.0 -372.0 602.0 -372.0L525.0 -503.0ZM349.0 83.0V-866.0H378.0C435.0 -866.0 502.0 -830.0 502.0 -814.0V35.0C530.0 39.0 537.0 50.0 539.0 64.0Z"/></g>
<g fill="red" transform="translate(300 200) scale(0.1 -0.1)"><path d="M0.0 0.0 -12.0 -9.0C34.0 -48.0 90.0 -116.0 103.0 -167.0C157.0 -205.0 192.0 -83.0 0.0 0.0ZM-4.0 -227.0 -17.0 -235.0C23.0 -276.0 73.0 -347.0 86.0 -399.0C138.0 -438.0 176.0 -322.0 -4.0 -227.0ZM-59.0 -560.0 -44.0 -585.0 368.0 -481.0C379.0 -479.0 387.0 -470.0 387.0 -459.0C355.0 -438.0 304.0 -407.0 304.0 -407.0L273.0 -475.0ZM208.0 77.0V-823.0H217.0C234.0 -823.0 252.0 -811.0 252.0 -802.0V39.0C277.0 43.0 285.0 53.0 288.0 67.0Z"/></g>
<g fill="black" opacity=".8" transform="translate(300 200) scale(0.1 -0.1)"><path d="M0.0 0.0 -12.0 -9.0C35.0 -46.0 92.0 -113.0 107.0 -162.0C163.0 -198.0 196.0 -73.0 0.0 0.0ZM-17.0 -229.0 -29.0 -239.0C17.0 -277.0 73.0 -342.0 87.0 -393.0C143.0 -429.0 176.0 -310.0 -17.0 -229.0ZM-62.0 -553.0 -49.0 -581.0 363.0 -486.0C376.0 -484.0 383.0 -475.0 385.0 -463.0C352.0 -443.0 301.0 -412.0 301.0 -412.0L269.0 -477.0ZM208.0 73.0V-825.0H217.0C234.0 -825.0 251.0 -813.0 251.0 -804.0V37.0C276.0 41.0 284.0 50.0 288.0 64.0Z"/></g>
<g fill="red" transform="translate(400 200) scale(0.1 -0.1)"><path d="M0.0 0.0 -8.0 -5.0C22.0 -51.0 49.0 -118.0 51.0 -180.0C162.0 -273.0 285.0 -56.0 0.0 0.0ZM-6.0 -246.0 -15.0 -251.0C14.0 -300.0 39.0 -369.0 38.0 -433.0C149.0 -533.0 281.0 -313.0 -6.0 -246.0ZM-25.0 -564.0 -12.0 -590.0 421.0 -497.0C433.0 -495.0 443.0 -486.0 443.0 -476.0C402.0 -443.0 336.0 -396.0 336.0 -396.0L287.0 -497.0ZM172.0 80.0V-856.0H198.0C250.0 -856.0 309.0 -822.0 309.0 -808.0V34.0C337.0 38.0 344.0 49.0 346.0 63.0Z"/></g>
<g fill="black" opacity=".8" transform="translate(400 200) scale(0.1 -0.1)"><path d="M0.0 0.0 -8.0 -5.0C21.0 -49.0 45.0 -113.0 47.0 -173.0C160.0 -269.0 290.0 -48.0 0.0 0.0ZM-9.0 -244.0 -18.0 -250.0C11.0 -297.0 36.0 -367.0 33.0 -432.0C149.0 -536.0 288.0 -307.0 -9.0 -244.0ZM-28.0 -564.0 -16.0 -591.0 417.0 -501.0C430.0 -500.0 441.0 -492.0 441.0 -481.0C401.0 -447.0 337.0 -396.0 337.0 -396.0L285.0 -500.0ZM175.0 82.0V-854.0H201.0C252.0 -854.0 313.0 -820.0 313.0 -805.0V36.0C340.0 40.0 348.0 50.0 351.0 65.0Z"/></g>
<g fill="red" transform="translate(500 200) scale(0.1 -0.1)"><path d="M0.0 0.0 -16.0 -4.0C69.0 -67.0 133.0 -146.0 159.0 -202.0C207.0 -236.0 266.0 -125.0 0.0 0.0ZM82.0 -505.0 69.0 -512.0C108.0 -560.0 154.0 -640.0 160.0 -700.0C210.0 -744.0 253.0 -621.0 82.0 -505.0ZM-253.0 -419.0 -245.0 -448.0H214.0C227.0 -448.0 237.0 -443.0 239.0 -432.0C211.0 -406.0 166.0 -370.0 166.0 -370.0L127.0 -419.0ZM481.0 33.0V-867.0H490.0C507.0 -867.0 525.0 -855.0 525.0 -846.0V-5.0C550.0 -1.0 558.0 9.0 561.0 23.0Z"/></g>
<g fill="black" opacity=".8" transform="translate(500 200) scale(0.1 -0.1)"><path d="M0.0 0.0 -16.0 -4.0C69.0 -66.0 132.0 -147.0 159.0 -202.0C206.0 -236.0 265.0 -124.0 0.0 0.0ZM82.0 -505.0 69.0 -512.0C108.0 -560.0 154.0 -640.0 159.0 -700.0C209.0 -745.0 253.0 -621.0 82.0 -505.0ZM-252.0 -419.0 -245.0 -448.0H214.0C227.0 -448.0 237.0 -442.0 240.0 -431.0C211.0 -406.0 167.0 -370.0 167.0 -370.0L128.0 -419.0ZM482.0 32.0V-867.0H491.0C507.0 -867.0 524.0 -856.0 524.0 -847.0V-5.0C549.0 -0.0 558.0 9.0 561.0 23.0Z"/></g>
<g fill="red" transform="translate(600 200) scale(0.1 -0.1)"><path d="M0.0 0.0 -10.0 -2.0C32.0 -56.0 61.0 -128.0 70.0 -172.0C170.0 -266.0 344.0 -59.0 0.0 0.0ZM37.0 -488.0 28.0 -493.0C53.0 -545.0 73.0 -616.0 69.0 -682.0C173.0 -784.0 309.0 -574.0 37.0 -488.0ZM-293.0 -400.0 -285.0 -428.0H183.0C197.0 -428.0 208.0 -423.0 211.0 -412.0C170.0 -372.0 99.0 -312.0 99.0 -312.0L37.0 -400.0ZM388.0 57.0V-888.0H414.0C466.0 -888.0 525.0 -854.0 525.0 -840.0V11.0C553.0 15.0 560.0 26.0 562.0 40.0Z"/></g>
<g fill="black" opacity=".8" transform="translate(600 200) scale(0.1 -0.1)"><path d="M0.0 0.0 -10.0 -2.0C32.0 -56.0 60.0 -127.0 70.0 -172.0C170.0 -267.0 345.0 -59.0 0.0 0.0ZM37.0 -487.0 28.0 -493.0C53.0 -545.0 73.0 -616.0 69.0 -682.0C173.0 -784.0 308.0 -574.0 37.0 -487.0ZM-293.0 -400.0 -286.0 -429.0 183.0 -427.0C197.0 -428.0 208.0 -423.0 212.0 -412.0C170.0 -373.0 99.0 -312.0 99.0 -312.0L37.0 -400.0ZM388.0 58.0V-888.0H415.0C466.0 -888.0 525.0 -854.0 525.0 -840.0V11.0C553.0 15.0 560.0 26.0 563.0 40.0Z"/></g>
<g fill="red" transform="translate(700 200) scale(0.1 -0.1)"><path d="M0.0 0.0 -9.0 -12.0C52.0 -38.0 134.0 -91.0 166.0 -133.0C231.0 -155.0 235.0 -27.0 0.0 0.0ZM-73.0 -126.0 -80.0 -139.0C-16.0 -165.0 69.0 -219.0 103.0 -263.0C170.0 -285.0 171.0 -154.0 -73.0 -126.0ZM-262.0 -330.0 -252.0 -359.0 618.0 -303.0C631.0 -302.0 641.0 -295.0 642.0 -284.0C610.0 -258.0 556.0 -222.0 556.0 -222.0L514.0 -280.0ZM300.0 13.0V-496.0H309.0C325.0 -496.0 344.0 -485.0 344.0 -477.0V-23.0C369.0 -20.0 378.0 -10.0 380.0 4.0Z"/></g>
<g fill="black" opacity=".8" transform="translate(700 200) scale(0.1 -0.1)"><path d="M0.0 0.0 -8.0 -12.0C52.0 -37.0 133.0 -91.0 165.0 -133.0C231.0 -155.0 234.0 -25.0 0.0 0.0ZM-74.0 -126.0 -80.0 -139.0C-16.0 -166.0 69.0 -218.0 103.0 -263.0C170.0 -285.0 171.0 -154.0 -74.0 -126.0ZM-262.0 -329.0 -252.0 -358.0 617.0 -303.0C631.0 -303.0 641.0 -295.0 643.0 -284.0C609.0 -258.0 556.0 -222.0 556.0 -222.0L515.0 -280.0ZM302.0 12.0V-496.0H309.0C326.0 -496.0 342.0 -486.0 342.0 -478.0V-22.0C369.0 -19.0 378.0 -11.0 380.0 4.0Z"/></g>
<g fill="red" transform="translate(800 200) scale(0.1 -0.1)"><path d="M0.0 0.0 -7.0 -6.0C34.0 -39.0 82.0 -97.0 103.0 -150.0C233.0 -209.0 302.0 32.0 0.0 0.0ZM-91.0 -138.0 -98.0 -144.0C-56.0 -182.0 -6.0 -245.0 15.0 -303.0C145.0 -369.0 222.0 -126.0 -91.0 -138.0ZM-250.0 -363.0 -240.0 -390.0 631.0 -317.0C645.0 -316.0 658.0 -309.0 659.0 -297.0C596.0 -253.0 495.0 -194.0 495.0 -194.0L419.0 -307.0ZM262.0 17.0V-523.0H288.0C345.0 -523.0 410.0 -497.0 410.0 -487.0V-27.0C438.0 -23.0 445.0 -13.0 447.0 1.0Z"/></g>
<g fill="black" opacity=".8" transform="translate(800 200) scale(0.1 -0.1)"><path d="M0.0 0.0 -7.0 -6.0C34.0 -39.0 81.0 -96.0 103.0 -149.0C233.0 -210.0 302.0 32.0 0.0 0.0ZM-91.0 -137.0 -98.0 -144.0C-55.0 -182.0 -6.0 -245.0 15.0 -303.0C146.0 -370.0 222.0 -126.0 -91.0 -137.0ZM-250.0 -363.0 -241.0 -390.0 630.0 -317.0C645.0 -316.0 658.0 -310.0 660.0 -298.0C596.0 -255.0 495.0 -194.0 495.0 -194.0L419.0 -307.0ZM263.0 18.0V-523.0H289.0C345.0 -523.0 410.0 -496.0 410.0 -487.0V-27.0C438.0 -23.0 446.0 -13.0 448.0 1.0Z"/></g>
<g fill="red" transform="translate(900 200) scale(0.1 -0.1)"><path d="M0.0 0.0 -10.0 -11.0C36.0 -34.0 95.0 -81.0 117.0 -117.0C172.0 -141.0 189.0 -31.0 0.0 0.0ZM-48.0 -153.0 -57.0 -164.0C-9.0 -188.0 54.0 -235.0 79.0 -272.0C134.0 -294.0 147.0 -187.0 -48.0 -153.0ZM-111.0 -408.0 -98.0 -435.0 406.0 -339.0C418.0 -338.0 427.0 -330.0 427.0 -318.0C396.0 -298.0 346.0 -270.0 346.0 -270.0L315.0 -327.0ZM203.0 48.0V-592.0H212.0C228.0 -592.0 247.0 -581.0 247.0 -573.0V17.0C266.0 20.0 274.0 28.0 276.0 40.0Z"/></g>
<g fill="black" opacity=".8" transform="translate(900 200) scale(0.1 -0.1)"><path d="M0.0 0.0 -9.0 -10.0C35.0 -35.0 92.0 -84.0 113.0 -121.0C166.0 -146.0 183.0 -36.0 0.0 0.0ZM-39.0 -150.0 -48.0 -161.0C-4.0 -189.0 55.0 -238.0 76.0 -277.0C129.0 -301.0 147.0 -197.0 -39.0 -150.0ZM-108.0 -412.0 -96.0 -437.0 409.0 -335.0C421.0 -334.0 429.0 -326.0 431.0 -313.0C398.0 -295.0 349.0 -267.0 349.0 -267.0L320.0 -326.0ZM205.0 49.0V-592.0H213.0C229.0 -592.0 245.0 -581.0 245.0 -573.0V19.0C266.0 23.0 274.0 30.0 276.0 42.0Z"/></g>
<g fill="red" transform="translate(1000 200) scale(0.1 -0.1)"><path d="M0.0 0.0 -7.0 -5.0C21.0 -38.0 51.0 -91.0 57.0 -140.0C170.0 -217.0 275.0 -4.0 0.0 0.0ZM-47.0 -178.0 -55.0 -184.0C-19.0 -221.0 16.0 -283.0 23.0 -340.0C140.0 -420.0 244.0 -194.0 -47.0 -178.0ZM-98.0 -443.0 -86.0 -469.0 427.0 -393.0C440.0 -391.0 450.0 -383.0 450.0 -373.0C411.0 -335.0 345.0 -279.0 345.0 -279.0L284.0 -386.0ZM179.0 40.0V-629.0H204.0C251.0 -629.0 310.0 -601.0 310.0 -590.0V3.0C331.0 6.0 336.0 14.0 338.0 25.0Z"/></g>
<g fill="black" opacity=".8" transform="translate(1000 200) scale(0.1 -0.1)"><path d="M0.0 0.0 -6.0 -5.0C22.0 -40.0 53.0 -93.0 59.0 -145.0C171.0 -222.0 272.0 -10.0 0.0 0.0ZM-44.0 -178.0 -53.0 -185.0C-17.0 -222.0 18.0 -285.0 26.0 -342.0C141.0 -418.0 238.0 -200.0 -44.0 -178.0ZM-94.0 -443.0 -84.0 -468.0 429.0 -389.0C442.0 -388.0 452.0 -380.0 453.0 -370.0C412.0 -334.0 344.0 -280.0 344.0 -280.0L286.0 -384.0ZM178.0 39.0V-630.0H203.0C249.0 -630.0 306.0 -603.0 306.0 -591.0V2.0C328.0 5.0 334.0 13.0 336.0 25.0Z"/></g>
<g fill="red" transform="translate(1100 200) scale(0.1 -0.1)"><path d="M0.0 0.0 -12.0 -8.0C29.0 -44.0 78.0 -109.0 89.0 -159.0C141.0 -196.0 179.0 -78.0 0.0 0.0ZM-287.0 -563.0 -299.0 -572.0C-264.0 -600.0 -226.0 -652.0 -219.0 -692.0C-173.0 -727.0 -137.0 -624.0 -287.0 -563.0ZM-49.0 -524.0 -35.0 -549.0 325.0 -460.0C336.0 -458.0 344.0 -450.0 343.0 -440.0C315.0 -417.0 268.0 -382.0 268.0 -382.0L239.0 -454.0ZM166.0 100.0V-800.0H175.0C192.0 -800.0 210.0 -788.0 210.0 -779.0V62.0C235.0 66.0 243.0 76.0 246.0 90.0Z"/></g>
<g fill="black" opacity=".8" transform="translate(1100 200) scale(0.1 -0.1)"><path d="M0.0 0.0 -12.0 -8.0C29.0 -44.0 77.0 -109.0 88.0 -159.0C140.0 -196.0 178.0 -78.0 0.0 0.0ZM-287.0 -562.0 -299.0 -572.0C-264.0 -601.0 -226.0 -652.0 -219.0 -692.0C-174.0 -727.0 -137.0 -625.0 -287.0 -562.0ZM-48.0 -523.0 -35.0 -549.0 325.0 -460.0C336.0 -458.0 344.0 -450.0 344.0 -439.0C315.0 -417.0 269.0 -382.0 269.0 -382.0L240.0 -454.0ZM167.0 100.0V-800.0H176.0C192.0 -800.0 209.0 -789.0 209.0 -780.0V62.0C235.0 66.0 243.0 76.0 247.0 91.0Z"/></g>
<g fill="red" transform="translate(1200 200) scale(0.1 -0.1)"><path d="M0.0 0.0 -9.0 -5.0C20.0 -51.0 46.0 -119.0 47.0 -179.0C149.0 -269.0 267.0 -65.0 0.0 0.0ZM-265.0 -589.0 -275.0 -594.0C-260.0 -620.0 -247.0 -662.0 -249.0 -698.0C-181.0 -762.0 -83.0 -633.0 -265.0 -589.0ZM-16.0 -535.0 -3.0 -559.0 389.0 -477.0C400.0 -474.0 409.0 -466.0 409.0 -456.0C375.0 -426.0 320.0 -380.0 320.0 -380.0L275.0 -474.0ZM155.0 110.0V-835.0H180.0C230.0 -835.0 288.0 -802.0 288.0 -789.0V65.0C315.0 69.0 322.0 79.0 325.0 94.0Z"/></g>
<g fill="black" opacity=".8" transform="translate(1200 200) scale(0.1 -0.1)"><path d="M0.0 0.0 -9.0 -5.0C21.0 -51.0 46.0 -118.0 47.0 -179.0C150.0 -270.0 268.0 -65.0 0.0 0.0ZM-264.0 -588.0 -274.0 -595.0C-260.0 -619.0 -247.0 -662.0 -249.0 -698.0C-181.0 -762.0 -84.0 -633.0 -264.0 -588.0ZM-16.0 -535.0 -3.0 -559.0 389.0 -476.0C400.0 -474.0 409.0 -467.0 410.0 -457.0C375.0 -427.0 320.0 -380.0 320.0 -380.0L275.0 -474.0ZM156.0 111.0V-835.0H180.0C230.0 -835.0 287.0 -802.0 287.0 -789.0V64.0C315.0 69.0 322.0 78.0 326.0 95.0Z"/></g>
<g fill="red" transform="translate(1300 200) scale(0.1 -0.1)"><path d="M0.0 0 -11.0 -10.0C43.0 -45.0 111.0 -109.0 131.0 -159.0C192.0 -192.0 216.0 -63.0 0.0 0.0ZM-38.0 -232.0 -48.0 -243.0C9.0 -274.0 82.0 -337.0 104.0 -387.0C166.0 -418.0 184.0 -288.0 -38.0 -232.0ZM-93.0 -539.0 -81.0 -567.0 412.0 -493.0C424.0 -492.0 433.0 -484.0 433.0 -473.0C403.0 -451.0 352.0 -421.0 352.0 -421.0L318.0 -477.0ZM238.0 75.0V-825.0H247.0C264.0 -825.0 283.0 -813.0 283.0 -804.0V37.0C307.0 41.0 315.0 51.0 318.0 65.0Z"/></g>
<g fill="black" opacity=".8" transform="translate(1300 200) scale(0.1 -0.1)"><path d="M0.0 0.0 -11.0 -9.0C42.0 -46.0 108.0 -113.0 127.0 -164.0C185.0 -198.0 210.0 -69.0 0.0 0.0ZM-28.0 -229.0 -38.0 -240.0C15.0 -275.0 82.0 -340.0 101.0 -392.0C160.0 -426.0 184.0 -299.0 -28.0 -229.0ZM-90.0 -544.0 -78.0 -570.0 415.0 -489.0C428.0 -487.0 435.0 -479.0 437.0 -468.0C406.0 -448.0 356.0 -417.0 356.0 -417.0L323.0 -476.0ZM240.0 77.0V-825.0H248.0C264.0 -825.0 281.0 -813.0 281.0 -804.0V39.0C307.0 44.0 315.0 53.0 318.0 68.0Z"/></g>
<g fill="red" transform="translate(1400 200) scale(0.1 -0.1)"><path d="M0.0 0 -8.0 -6.0C29.0 -46.0 66.0 -110.0 77.0 -168.0C196.0 -248.0 298.0 -19.0 0.0 0.0ZM-14.0 -238.0 -21.0 -243.0C16.0 -286.0 49.0 -352.0 54.0 -414.0C178.0 -506.0 297.0 -264.0 -14.0 -238.0ZM-44.0 -544.0 -32.0 -570.0 482.0 -481.0C495.0 -479.0 505.0 -471.0 505.0 -460.0C463.0 -427.0 396.0 -379.0 396.0 -379.0L343.0 -477.0ZM215.0 98.0V-842.0H241.0C295.0 -842.0 355.0 -808.0 355.0 -794.0V51.0C384.0 55.0 391.0 66.0 394.0 81.0Z"/></g>
<g fill="black" opacity=".8" transform="translate(1400 200) scale(0.1 -0.1)"><path d="M0.0 0.0 -7.0 -6.0C30.0 -48.0 68.0 -113.0 80.0 -174.0C198.0 -253.0 296.0 -26.0 0.0 0.0ZM-10.0 -238.0 -17.0 -245.0C18.0 -288.0 52.0 -354.0 58.0 -416.0C178.0 -504.0 291.0 -270.0 -10.0 -238.0ZM-40.0 -544.0 -30.0 -569.0 484.0 -476.0C497.0 -475.0 507.0 -467.0 508.0 -457.0C464.0 -425.0 395.0 -380.0 395.0 -380.0L345.0 -475.0ZM214.0 97.0V-844.0H240.0C292.0 -844.0 350.0 -810.0 350.0 -796.0V49.0C380.0 54.0 389.0 65.0 392.0 81.0Z"/></g>
<g fill="red" transform="translate(1500 200) scale(0.1 -0.1)"><path d="M0.0 0.0 -8.0 -13.0C46.0 -32.0 116.0 -73.0 146.0 -108.0C207.0 -125.0 208.0 -7.0 0.0 0.0ZM-44.0 -129.0 -52.0 -142.0C3.0 -162.0 75.0 -205.0 105.0 -242.0C166.0 -259.0 168.0 -141.0 -44.0 -129.0ZM-129.0 -312.0 -118.0 -339.0 475.0 -274.0C488.0 -273.0 498.0 -266.0 499.0 -254.0C465.0 -231.0 411.0 -197.0 411.0 -197.0L372.0 -256.0ZM250.0 41.0V-468.0H259.0C276.0 -468.0 295.0 -457.0 295.0 -449.0V5.0C319.0 8.0 328.0 17.0 331.0 31.0Z"/></g>
<g fill="black" opacity=".8" transform="translate(1500 200) scale(0.1 -0.1)"><path d="M0.0 0.0 -8.0 -14.0C46.0 -32.0 116.0 -72.0 146.0 -107.0C208.0 -124.0 208.0 -4.0 0.0 0.0ZM-47.0 -129.0 -54.0 -143.0C2.0 -163.0 75.0 -203.0 105.0 -241.0C167.0 -257.0 168.0 -139.0 -47.0 -129.0ZM-130.0 -310.0 -119.0 -338.0 474.0 -275.0C488.0 -275.0 497.0 -267.0 499.0 -255.0C464.0 -232.0 410.0 -199.0 410.0 -199.0L372.0 -256.0ZM251.0 39.0V-469.0H259.0C277.0 -469.0 294.0 -458.0 294.0 -450.0V4.0C319.0 8.0 327.0 16.0 331.0 31.0Z"/></g>
<g fill="red" transform="translate(1600 200) scale(0.1 -0.1)"><path d="M0.0 0.0 -7.0 -7.0C31.0 -33.0 79.0 -82.0 100.0 -125.0C217.0 -167.0 262.0 46.0 0.0 0.0ZM-54.0 -140.0 -61.0 -147.0C-26.0 -173.0 22.0 -221.0 44.0 -263.0C159.0 -303.0 203.0 -96.0 -54.0 -140.0ZM-94.0 -310.0 -83.0 -337.0 473.0 -274.0C486.0 -272.0 497.0 -265.0 498.0 -254.0C453.0 -223.0 380.0 -182.0 380.0 -182.0L329.0 -261.0ZM208.0 48.0V-487.0H232.0C283.0 -487.0 341.0 -464.0 341.0 -454.0V5.0C369.0 9.0 376.0 19.0 378.0 33.0Z"/></g>
<g fill="black" opacity=".8" transform="translate(1600 200) scale(0.1 -0.1)"><path d="M0.0 0.0 -7.0 -7.0C31.0 -32.0 78.0 -80.0 99.0 -124.0C217.0 -167.0 263.0 48.0 0.0 0.0ZM-54.0 -139.0 -61.0 -147.0C-26.0 -172.0 21.0 -221.0 43.0 -263.0C159.0 -304.0 204.0 -95.0 -54.0 -139.0ZM-94.0 -310.0 -84.0 -337.0 472.0 -276.0C486.0 -274.0 496.0 -266.0 498.0 -256.0C453.0 -224.0 380.0 -182.0 380.0 -182.0L328.0 -261.0ZM209.0 49.0V-487.0H233.0C283.0 -487.0 341.0 -463.0 341.0 -453.0V6.0C370.0 10.0 377.0 19.0 380.0 34.0Z"/></g>
</svg>
