<?xml version="1.0" encoding="UTF-8"?>
<svg width="1700" height="300" xmlns="http://www.w3.org/2000/svg">
<rect width="100%" height="100%" fill="white"/>
<g fill="green" transform="translate(100 100) scale(0.1 -0.1)"><path d="M0.0 -0.0 13.0 -44.0H633.0V0.0ZM663.0 16.0C568.0 -319.0 343.0 -608.0 -17.0 -775.0L-0.0 -800.0C402.0 -640.0 614.0 -360.0 730.0 -38.0C765.0 -35.0 781.0 -32.0 793.0 -20.0L702.0 67.0L647.0 16.0ZM207.0 11.0 175.0 -4.0C262.0 -400.0 477.0 -669.0 801.0 -807.0C813.0 -773.0 839.0 -754.0 870.0 -751.0L874.0 -736.0C537.0 -621.0 293.0 -360.0 207.0 11.0ZM312.0 563.0V22.0H379.0V507.0C415.0 513.0 431.0 528.0 434.0 550.0ZM-517.0 370.0 -504.0 325.0H292.0C314.0 325.0 327.0 333.0 332.0 350.0C288.0 392.0 215.0 447.0 215.0 447.0L154.0 370.0Z"/></g>
<g fill="green" transform="translate(200 100) scale(0.1 -0.1)"><path d="M0.0 0.0 12.0 -43.0H592.0V0.0ZM553.0 17.0C486.0 -323.0 306.0 -643.0 -14.0 -832.0L-4.0 -847.0C450.0 -704.0 671.0 -409.0 778.0 -66.0C816.0 -61.0 830.0 -55.0 841.0 -37.0L648.0 131.0L534.0 17.0ZM185.0 16.0 163.0 6.0C242.0 -454.0 424.0 -696.0 722.0 -851.0C750.0 -749.0 814.0 -677.0 910.0 -651.0L912.0 -631.0C588.0 -545.0 293.0 -373.0 185.0 16.0ZM239.0 582.0V33.0H450.0V519.0C491.0 524.0 502.0 539.0 505.0 561.0ZM-562.0 372.0 -550.0 329.0H343.0C366.0 329.0 383.0 337.0 388.0 354.0C314.0 418.0 193.0 510.0 193.0 510.0L86.0 372.0Z"/></g>
<g fill="green" transform="translate(300 100) scale(0.1 -0.1)"><path d="M0.0 0.0 9.0 -27.0H379.0V0.0ZM355.0 -1.0C305.0 -200.0 183.0 -385.0 -13.0 -496.0L-1.0 -511.0C221.0 -403.0 335.0 -225.0 397.0 -34.0C418.0 -32.0 428.0 -30.0 435.0 -23.0L379.0 31.0L345.0 -1.0ZM93.0 -4.0 72.0 -12.0C120.0 -262.0 241.0 -431.0 433.0 -518.0C440.0 -497.0 456.0 -485.0 475.0 -483.0L478.0 -474.0C277.0 -401.0 139.0 -238.0 93.0 -4.0ZM184.0 332.0V-13.0H225.0V297.0C248.0 301.0 258.0 310.0 259.0 325.0ZM-517.0 232.0 -509.0 204.0H-50.0C-36.0 204.0 -29.0 209.0 -25.0 219.0C-52.0 245.0 -98.0 279.0 -98.0 279.0L-135.0 232.0Z"/></g>
<g fill="green" transform="translate(400 100) scale(0.1 -0.1)"><path d="M0.0 0.0 8.0 -27.0H357.0V0.0ZM288.0 -1.0C257.0 -206.0 171.0 -411.0 -1.0 -535.0L5.0 -544.0C263.0 -445.0 376.0 -256.0 429.0 -51.0C452.0 -48.0 460.0 -44.0 467.0 -33.0L346.0 70.0L276.0 -1.0ZM73.0 -1.0 59.0 -8.0C105.0 -295.0 210.0 -449.0 389.0 -548.0C406.0 -485.0 445.0 -439.0 505.0 -422.0L506.0 -409.0C310.0 -355.0 137.0 -246.0 73.0 -1.0ZM138.0 342.0V-4.0H270.0V303.0C295.0 306.0 302.0 315.0 304.0 329.0ZM-561.0 237.0 -553.0 210.0H-9.0C6.0 210.0 16.0 215.0 20.0 226.0C-27.0 265.0 -101.0 320.0 -101.0 320.0L-166.0 237.0Z"/></g>
<g fill="green" transform="translate(500 100) scale(0.1 -0.1)"><path d="M0.0 -0.0V-27.0H315.0V0.0ZM758.0 111.0C679.0 -94.0 501.0 -264.0 252.0 -358.0L262.0 -374.0C536.0 -285.0 703.0 -120.0 797.0 78.0C819.0 80.0 828.0 82.0 836.0 89.0L782.0 141.0L749.0 111.0ZM456.0 106.0 436.0 96.0C503.0 -133.0 665.0 -296.0 867.0 -377.0C874.0 -357.0 890.0 -346.0 908.0 -344.0L911.0 -335.0C702.0 -267.0 522.0 -109.0 456.0 106.0ZM146.0 427.0V277.0H186.0V394.0C207.0 396.0 218.0 405.0 220.0 419.0ZM249.0 302.0 257.0 274.0H803.0C816.0 274.0 824.0 279.0 827.0 290.0C800.0 315.0 757.0 348.0 757.0 348.0L719.0 302.0Z"/></g>
<g fill="green" transform="translate(600 100) scale(0.1 -0.1)"><path d="M0.0 0.0 -1.0 -26.0H296.0V0.0ZM670.0 118.0C607.0 -85.0 453.0 -270.0 233.0 -377.0L238.0 -385.0C536.0 -311.0 713.0 -144.0 805.0 66.0C829.0 69.0 838.0 72.0 845.0 83.0L730.0 187.0L658.0 118.0ZM420.0 117.0 407.0 110.0C468.0 -156.0 605.0 -306.0 806.0 -392.0C823.0 -331.0 859.0 -287.0 918.0 -270.0V-259.0C704.0 -213.0 499.0 -109.0 420.0 117.0ZM87.0 459.0V303.0H206.0V423.0C229.0 425.0 237.0 434.0 238.0 447.0ZM207.0 305.0 214.0 279.0H817.0C830.0 279.0 841.0 284.0 844.0 294.0C799.0 334.0 724.0 392.0 724.0 392.0L657.0 305.0Z"/></g>
<g fill="green" transform="translate(700 100) scale(0.1 -0.1)"><path d="M0.0 0.0 17.0 -40.0H839.0V0.0ZM574.0 -55.0C453.0 -378.0 180.0 -641.0 -209.0 -786.0L-195.0 -810.0C234.0 -672.0 489.0 -417.0 631.0 -105.0C665.0 -103.0 680.0 -100.0 692.0 -89.0L609.0 -10.0L558.0 -55.0ZM45.0 -67.0 16.0 -83.0C128.0 -468.0 403.0 -705.0 768.0 -812.0C776.0 -781.0 800.0 -762.0 830.0 -757.0L832.0 -743.0C457.0 -654.0 155.0 -428.0 45.0 -67.0ZM459.0 441.0V-164.0H520.0V390.0C553.0 396.0 568.0 410.0 571.0 429.0ZM-488.0 248.0 -475.0 206.0H508.0C528.0 206.0 540.0 214.0 544.0 229.0C502.0 269.0 434.0 320.0 434.0 320.0L376.0 248.0Z"/></g>
<g fill="green" transform="translate(800 100) scale(0.1 -0.1)"><path d="M0.0 0.0 16.0 -39.0H751.0V0.0ZM465.0 -59.0C374.0 -387.0 143.0 -677.0 -207.0 -842.0L-199.0 -856.0C276.0 -743.0 542.0 -477.0 679.0 -141.0C716.0 -137.0 730.0 -131.0 740.0 -115.0L559.0 49.0L446.0 -59.0ZM28.0 -61.0 7.0 -73.0C110.0 -510.0 345.0 -743.0 699.0 -858.0C717.0 -764.0 770.0 -691.0 863.0 -658.0L865.0 -638.0C496.0 -585.0 159.0 -436.0 28.0 -61.0ZM386.0 446.0V-168.0H594.0V387.0C632.0 392.0 641.0 405.0 644.0 426.0ZM-537.0 237.0 -526.0 197.0H547.0C568.0 197.0 584.0 205.0 589.0 220.0C517.0 281.0 399.0 370.0 399.0 370.0L295.0 237.0Z"/></g>
<g fill="green" transform="translate(900 100) scale(0.1 -0.1)"><path d="M0.0 -0.0 13.0 -49.0H563.0V0.0ZM616.0 22.0C533.0 -348.0 327.0 -663.0 -55.0 -845.0L-36.0 -871.0C391.0 -699.0 589.0 -395.0 694.0 -37.0C731.0 -34.0 749.0 -30.0 762.0 -16.0L660.0 81.0L600.0 22.0ZM174.0 24.0 138.0 8.0C208.0 -426.0 396.0 -724.0 702.0 -878.0C714.0 -839.0 740.0 -817.0 774.0 -813.0L779.0 -796.0C463.0 -668.0 244.0 -382.0 174.0 24.0ZM249.0 661.0V32.0H324.0V599.0C364.0 605.0 381.0 622.0 385.0 646.0ZM-349.0 411.0 -336.0 360.0H316.0C340.0 360.0 356.0 369.0 360.0 388.0C312.0 435.0 231.0 497.0 231.0 497.0L161.0 411.0Z"/></g>
<g fill="green" transform="translate(1000 100) scale(0.1 -0.1)"><path d="M0.0 0.0 13.0 -48.0H515.0V0.0ZM505.0 24.0C454.0 -360.0 297.0 -715.0 -47.0 -922.0L-35.0 -939.0C458.0 -778.0 662.0 -447.0 752.0 -65.0C792.0 -59.0 808.0 -53.0 819.0 -33.0L607.0 149.0L485.0 24.0ZM183.0 23.0 157.0 13.0C216.0 -478.0 346.0 -757.0 613.0 -940.0C640.0 -826.0 710.0 -741.0 814.0 -705.0L817.0 -682.0C521.0 -583.0 276.0 -397.0 183.0 23.0ZM191.0 662.0V46.0H418.0V592.0C464.0 598.0 476.0 615.0 480.0 639.0ZM-361.0 390.0 -347.0 342.0H378.0C403.0 342.0 421.0 351.0 427.0 370.0C352.0 440.0 226.0 543.0 226.0 543.0L114.0 390.0Z"/></g>
<g fill="green" transform="translate(1100 100) scale(0.1 -0.1)"><path d="M0.0 0.0 12.0 -44.0H631.0V0.0ZM657.0 18.0C564.0 -331.0 338.0 -610.0 -50.0 -767.0L-34.0 -793.0C394.0 -645.0 610.0 -372.0 725.0 -36.0C761.0 -33.0 776.0 -30.0 789.0 -19.0L697.0 68.0L642.0 18.0ZM201.0 15.0 173.0 0.0C259.0 -373.0 461.0 -644.0 795.0 -795.0C811.0 -762.0 842.0 -745.0 873.0 -747.0L878.0 -732.0C525.0 -604.0 292.0 -335.0 201.0 15.0ZM313.0 575.0V27.0H380.0V519.0C416.0 525.0 432.0 540.0 435.0 561.0ZM-544.0 370.0 -531.0 325.0H302.0C323.0 325.0 336.0 333.0 341.0 350.0C299.0 391.0 228.0 445.0 228.0 445.0L169.0 370.0Z"/></g>
<g fill="green" transform="translate(1200 100) scale(0.1 -0.1)"><path d="M0.0 0.0 12.0 -43.0H622.0V0.0ZM563.0 19.0C485.0 -323.0 279.0 -630.0 -66.0 -808.0L-56.0 -824.0C415.0 -693.0 658.0 -409.0 779.0 -64.0C817.0 -60.0 831.0 -53.0 842.0 -35.0L656.0 129.0L544.0 19.0ZM189.0 19.0 171.0 10.0C245.0 -452.0 431.0 -655.0 709.0 -824.0C752.0 -723.0 825.0 -663.0 916.0 -660.0L919.0 -645.0C604.0 -535.0 289.0 -358.0 189.0 19.0ZM245.0 613.0V24.0H450.0V549.0C492.0 555.0 503.0 570.0 506.0 592.0ZM-542.0 388.0 -530.0 346.0H334.0C356.0 346.0 373.0 354.0 378.0 371.0C303.0 435.0 180.0 527.0 180.0 527.0L71.0 388.0Z"/></g>
<g fill="red" transform="translate(100 200) scale(0.1 -0.1)"><path d="M0.0 0.0 9.0 -29.0H468.0V0.0ZM447.0 0.0C371.0 -228.0 195.0 -412.0 -75.0 -513.0L-65.0 -529.0C233.0 -435.0 398.0 -257.0 490.0 -35.0C513.0 -34.0 524.0 -31.0 532.0 -23.0L473.0 34.0L437.0 0.0ZM110.0 -4.0 88.0 -15.0C154.0 -285.0 323.0 -454.0 544.0 -530.0C549.0 -507.0 563.0 -493.0 584.0 -488.0L585.0 -478.0C361.0 -416.0 174.0 -257.0 110.0 -4.0ZM238.0 372.0V-16.0H282.0V335.0C306.0 339.0 316.0 349.0 318.0 363.0ZM-3.0 208.0 5.0 178.0H551.0C565.0 178.0 575.0 183.0 577.0 194.0C546.0 223.0 498.0 260.0 498.0 260.0L455.0 208.0Z"/></g>
<g fill="black" opacity=".8" transform="translate(100 200) scale(0.1 -0.1)"><path d="M0.0 0.0 8.0 -29.0H468.0V0.0ZM447.0 0.0C371.0 -228.0 195.0 -412.0 -75.0 -513.0L-64.0 -529.0C233.0 -435.0 399.0 -258.0 490.0 -35.0C513.0 -34.0 524.0 -31.0 532.0 -23.0L473.0 34.0L437.0 0.0ZM110.0 -4.0 88.0 -15.0C153.0 -285.0 323.0 -455.0 544.0 -530.0C548.0 -507.0 563.0 -493.0 584.0 -489.0L586.0 -478.0C362.0 -415.0 174.0 -257.0 110.0 -4.0ZM238.0 372.0V-17.0H281.0V335.0C305.0 339.0 316.0 349.0 318.0 363.0ZM-3.0 208.0 5.0 177.0H551.0C565.0 177.0 575.0 183.0 577.0 194.0C547.0 223.0 498.0 260.0 498.0 260.0L455.0 208.0Z"/></g>
<g fill="red" transform="translate(200 200) scale(0.1 -0.1)"><path d="M0.0 0.0 9.0 -28.0H404.0V0.0ZM368.0 0.0C315.0 -237.0 171.0 -443.0 -75.0 -559.0L-69.0 -569.0C267.0 -488.0 436.0 -297.0 519.0 -56.0C545.0 -53.0 555.0 -50.0 562.0 -38.0L433.0 77.0L355.0 0.0ZM112.0 -1.0 96.0 -9.0C153.0 -304.0 276.0 -483.0 490.0 -570.0C498.0 -502.0 534.0 -446.0 599.0 -414.0L601.0 -399.0C378.0 -362.0 191.0 -259.0 112.0 -1.0ZM196.0 366.0V-9.0H337.0V324.0C364.0 328.0 371.0 338.0 373.0 352.0ZM-22.0 183.0 -14.0 155.0H580.0C595.0 155.0 606.0 160.0 609.0 171.0C563.0 214.0 484.0 279.0 484.0 279.0L415.0 183.0Z"/></g>
<g fill="black" opacity=".8" transform="translate(200 200) scale(0.1 -0.1)"><path d="M0.0 0.0 8.0 -28.0H404.0V0.0ZM368.0 0.0C315.0 -237.0 171.0 -444.0 -74.0 -559.0L-68.0 -569.0C267.0 -488.0 437.0 -297.0 520.0 -57.0C545.0 -53.0 556.0 -50.0 562.0 -38.0L434.0 77.0L355.0 0.0ZM112.0 -1.0 96.0 -10.0C153.0 -303.0 276.0 -483.0 490.0 -571.0C499.0 -503.0 534.0 -445.0 600.0 -414.0L601.0 -399.0C378.0 -362.0 191.0 -259.0 112.0 -1.0ZM197.0 366.0V-9.0H337.0V325.0C364.0 328.0 371.0 338.0 373.0 352.0ZM-22.0 183.0 -14.0 154.0H580.0C594.0 154.0 605.0 160.0 610.0 171.0C563.0 214.0 484.0 279.0 484.0 279.0L414.0 183.0Z"/></g>
<g fill="red" transform="translate(300 200) scale(0.1 -0.1)"><path d="M0.0 0.0 9.0 -30.0H643.0V0.0ZM614.0 0.0C505.0 -250.0 263.0 -434.0 -74.0 -528.0L-65.0 -547.0C300.0 -460.0 527.0 -280.0 654.0 -36.0C680.0 -35.0 691.0 -33.0 700.0 -25.0L641.0 32.0L603.0 0.0ZM181.0 -10.0 163.0 -23.0C262.0 -290.0 493.0 -462.0 789.0 -543.0C797.0 -521.0 817.0 -508.0 839.0 -507.0L840.0 -497.0C535.0 -429.0 282.0 -261.0 181.0 -10.0ZM359.0 361.0V-13.0H403.0V324.0C427.0 328.0 438.0 338.0 440.0 352.0ZM-59.0 203.0 -50.0 173.0H799.0C813.0 173.0 822.0 178.0 825.0 189.0C794.0 218.0 746.0 255.0 746.0 255.0L704.0 203.0Z"/></g>
<g fill="black" opacity=".8" transform="translate(300 200) scale(0.1 -0.1)"><path d="M0.0 0.0 9.0 -29.0H643.0V0.0ZM614.0 1.0C505.0 -250.0 263.0 -434.0 -74.0 -528.0L-64.0 -547.0C300.0 -460.0 528.0 -280.0 654.0 -36.0C681.0 -35.0 691.0 -32.0 701.0 -25.0L640.0 32.0L603.0 1.0ZM182.0 -10.0 163.0 -22.0C261.0 -290.0 493.0 -463.0 789.0 -543.0C796.0 -521.0 817.0 -509.0 839.0 -507.0L841.0 -497.0C536.0 -429.0 282.0 -261.0 182.0 -10.0ZM358.0 361.0V-14.0H403.0V324.0C426.0 328.0 438.0 338.0 440.0 351.0ZM-59.0 203.0 -50.0 172.0H799.0C813.0 172.0 822.0 178.0 825.0 189.0C794.0 218.0 746.0 255.0 746.0 255.0L704.0 203.0Z"/></g>
<g fill="red" transform="translate(400 200) scale(0.1 -0.1)"><path d="M0.0 0.0 9.0 -28.0H590.0V0.0ZM530.0 0.0C436.0 -244.0 206.0 -442.0 -97.0 -550.0L-92.0 -561.0C297.0 -497.0 546.0 -317.0 682.0 -62.0C710.0 -60.0 721.0 -56.0 729.0 -44.0L600.0 78.0L515.0 0.0ZM163.0 -1.0 151.0 -9.0C238.0 -330.0 447.0 -480.0 727.0 -562.0C747.0 -493.0 790.0 -447.0 856.0 -434.0L858.0 -422.0C564.0 -378.0 270.0 -268.0 163.0 -1.0ZM297.0 385.0V-18.0H445.0V342.0C473.0 346.0 480.0 356.0 481.0 371.0ZM-76.0 203.0 -68.0 175.0H804.0C819.0 175.0 831.0 180.0 834.0 191.0C779.0 237.0 689.0 305.0 689.0 305.0L609.0 203.0Z"/></g>
<g fill="black" opacity=".8" transform="translate(400 200) scale(0.1 -0.1)"><path d="M0.0 0.0 8.0 -29.0H589.0V0.0ZM530.0 0.0C435.0 -244.0 206.0 -443.0 -96.0 -550.0L-91.0 -561.0C296.0 -497.0 547.0 -317.0 682.0 -62.0C711.0 -60.0 721.0 -55.0 729.0 -44.0L601.0 78.0L515.0 0.0ZM163.0 -1.0 150.0 -10.0C238.0 -329.0 447.0 -480.0 727.0 -562.0C748.0 -494.0 789.0 -446.0 856.0 -433.0L858.0 -422.0C563.0 -378.0 271.0 -268.0 163.0 -1.0ZM298.0 385.0V-18.0H445.0V342.0C473.0 346.0 480.0 356.0 482.0 371.0ZM-76.0 203.0 -68.0 174.0H804.0C818.0 174.0 830.0 181.0 834.0 191.0C779.0 237.0 689.0 305.0 689.0 305.0L608.0 203.0Z"/></g>
<g fill="red" transform="translate(500 200) scale(0.1 -0.1)"><path d="M0.0 0.0 9.0 -29.0H360.0V0.0ZM332.0 0.0C286.0 -219.0 169.0 -407.0 -51.0 -517.0L-40.0 -533.0C207.0 -428.0 319.0 -245.0 378.0 -35.0C400.0 -33.0 411.0 -31.0 418.0 -23.0L358.0 34.0L322.0 0.0ZM72.0 0.0 52.0 -9.0C95.0 -259.0 201.0 -438.0 393.0 -537.0C403.0 -515.0 421.0 -503.0 441.0 -503.0L444.0 -493.0C241.0 -410.0 116.0 -234.0 72.0 0.0ZM167.0 370.0V-13.0H211.0V333.0C235.0 337.0 245.0 347.0 247.0 361.0ZM-470.0 242.0 -462.0 213.0H-29.0C-15.0 213.0 -6.0 218.0 -3.0 229.0C-31.0 256.0 -78.0 292.0 -78.0 292.0L-117.0 242.0Z"/></g>
<g fill="black" opacity=".8" transform="translate(500 200) scale(0.1 -0.1)"><path d="M0.0 0.0 9.0 -29.0H360.0V0.0ZM332.0 -0.0C286.0 -219.0 169.0 -407.0 -51.0 -517.0L-39.0 -533.0C207.0 -428.0 320.0 -246.0 378.0 -35.0C400.0 -33.0 410.0 -31.0 418.0 -23.0L358.0 34.0L322.0 -0.0ZM72.0 0.0 52.0 -8.0C94.0 -259.0 201.0 -438.0 393.0 -537.0C402.0 -515.0 421.0 -503.0 441.0 -503.0L445.0 -494.0C241.0 -410.0 116.0 -235.0 72.0 0.0ZM167.0 370.0V-13.0H211.0V333.0C235.0 337.0 245.0 346.0 247.0 361.0ZM-470.0 243.0 -462.0 213.0H-29.0C-15.0 213.0 -6.0 218.0 -3.0 229.0C-30.0 256.0 -78.0 292.0 -78.0 292.0L-117.0 243.0Z"/></g>
<g fill="red" transform="translate(600 200) scale(0.1 -0.1)"><path d="M0.0 0.0 9.0 -28.0H351.0V0.0ZM273.0 0.0C241.0 -221.0 148.0 -430.0 -48.0 -554.0L-41.0 -565.0C241.0 -467.0 361.0 -272.0 416.0 -52.0C440.0 -49.0 449.0 -45.0 456.0 -33.0L332.0 73.0L261.0 0.0ZM69.0 0.0 56.0 -5.0C93.0 -305.0 183.0 -450.0 342.0 -565.0C366.0 -498.0 412.0 -456.0 472.0 -447.0L474.0 -435.0C292.0 -364.0 124.0 -249.0 69.0 0.0ZM128.0 383.0V-11.0H263.0V341.0C291.0 345.0 298.0 355.0 300.0 369.0ZM-477.0 248.0 -469.0 220.0H6.0C21.0 220.0 32.0 225.0 35.0 236.0C-12.0 277.0 -89.0 336.0 -89.0 336.0L-157.0 248.0Z"/></g>
<g fill="black" opacity=".8" transform="translate(600 200) scale(0.1 -0.1)"><path d="M0.0 0.0 8.0 -29.0H351.0V0.0ZM273.0 0.0C241.0 -221.0 148.0 -431.0 -48.0 -555.0L-41.0 -565.0C241.0 -467.0 361.0 -272.0 417.0 -52.0C441.0 -49.0 449.0 -45.0 456.0 -33.0L333.0 73.0L261.0 0.0ZM69.0 1.0 56.0 -6.0C93.0 -304.0 183.0 -450.0 342.0 -565.0C367.0 -499.0 412.0 -455.0 472.0 -447.0L474.0 -435.0C292.0 -365.0 124.0 -249.0 69.0 1.0ZM129.0 383.0V-11.0H263.0V341.0C291.0 345.0 298.0 355.0 300.0 369.0ZM-477.0 248.0 -468.0 219.0H6.0C21.0 219.0 31.0 225.0 35.0 236.0C-12.0 277.0 -89.0 336.0 -89.0 336.0L-157.0 248.0Z"/></g>
<g fill="red" transform="translate(700 200) scale(0.1 -0.1)"><path d="M0.0 0.0V-30.0H275.0V0.0ZM729.0 115.0C657.0 -117.0 489.0 -296.0 212.0 -393.0L222.0 -410.0C525.0 -321.0 686.0 -146.0 774.0 80.0C797.0 81.0 808.0 84.0 816.0 92.0L756.0 149.0L720.0 115.0ZM434.0 115.0 414.0 104.0C472.0 -132.0 611.0 -312.0 808.0 -410.0C818.0 -388.0 836.0 -376.0 856.0 -376.0L859.0 -366.0C653.0 -284.0 494.0 -107.0 434.0 115.0ZM112.0 489.0V286.0H156.0V452.0C180.0 455.0 191.0 465.0 193.0 479.0ZM328.0 325.0 336.0 295.0H822.0C836.0 295.0 846.0 300.0 848.0 311.0C819.0 339.0 773.0 375.0 773.0 375.0L731.0 325.0Z"/></g>
<g fill="black" opacity=".8" transform="translate(700 200) scale(0.1 -0.1)"><path d="M0.0 0.0 -1.0 -30.0H275.0V0.0ZM728.0 115.0C657.0 -117.0 489.0 -296.0 212.0 -393.0L223.0 -410.0C525.0 -321.0 687.0 -146.0 774.0 80.0C798.0 82.0 807.0 84.0 816.0 92.0L756.0 149.0L720.0 115.0ZM434.0 116.0 414.0 105.0C471.0 -132.0 611.0 -313.0 808.0 -410.0C817.0 -388.0 836.0 -376.0 856.0 -376.0L860.0 -366.0C654.0 -284.0 494.0 -107.0 434.0 116.0ZM111.0 489.0V285.0H156.0V452.0C179.0 454.0 191.0 464.0 193.0 479.0ZM328.0 325.0 336.0 294.0H822.0C836.0 294.0 845.0 299.0 848.0 311.0C820.0 339.0 773.0 375.0 773.0 375.0L731.0 325.0Z"/></g>
<g fill="red" transform="translate(800 200) scale(0.1 -0.1)"><path d="M0.0 0.0V-28.0H270.0V0.0ZM649.0 123.0C589.0 -106.0 433.0 -302.0 185.0 -413.0L191.0 -424.0C521.0 -346.0 700.0 -165.0 791.0 68.0C816.0 71.0 826.0 74.0 833.0 86.0L711.0 196.0L636.0 123.0ZM421.0 123.0 409.0 117.0C455.0 -169.0 565.0 -317.0 738.0 -426.0C762.0 -359.0 807.0 -316.0 867.0 -306.0L869.0 -295.0C676.0 -228.0 487.0 -114.0 421.0 123.0ZM63.0 521.0V306.0H188.0V480.0C215.0 484.0 223.0 494.0 224.0 508.0ZM331.0 324.0 339.0 296.0H832.0C846.0 296.0 857.0 301.0 860.0 312.0C814.0 355.0 735.0 420.0 735.0 420.0L665.0 324.0Z"/></g>
<g fill="black" opacity=".8" transform="translate(800 200) scale(0.1 -0.1)"><path d="M0.0 0.0V-29.0H270.0V0.0ZM649.0 123.0C589.0 -106.0 433.0 -303.0 185.0 -414.0L192.0 -424.0C521.0 -346.0 701.0 -165.0 791.0 68.0C816.0 71.0 826.0 74.0 833.0 86.0L711.0 196.0L636.0 123.0ZM421.0 123.0 408.0 116.0C455.0 -168.0 565.0 -317.0 738.0 -427.0C763.0 -360.0 807.0 -315.0 868.0 -305.0L869.0 -295.0C675.0 -229.0 487.0 -114.0 421.0 123.0ZM63.0 521.0V305.0H188.0V481.0C214.0 484.0 223.0 494.0 225.0 508.0ZM331.0 324.0 339.0 296.0H832.0C845.0 296.0 857.0 301.0 860.0 312.0C814.0 356.0 735.0 420.0 735.0 420.0L664.0 324.0Z"/></g>
<g fill="red" transform="translate(900 200) scale(0.1 -0.1)"><path d="M0.0 0.0 8.0 -29.0H435.0V0.0ZM403.0 0.0C335.0 -241.0 172.0 -416.0 -118.0 -508.0L-109.0 -525.0C207.0 -442.0 364.0 -270.0 448.0 -35.0C471.0 -34.0 482.0 -31.0 490.0 -23.0L430.0 34.0L394.0 0.0ZM83.0 0.0 65.0 -11.0C123.0 -258.0 265.0 -430.0 484.0 -521.0C493.0 -499.0 511.0 -486.0 532.0 -486.0L534.0 -476.0C307.0 -400.0 145.0 -232.0 83.0 0.0ZM217.0 390.0V-16.0H261.0V353.0C285.0 357.0 295.0 367.0 297.0 380.0ZM-34.0 210.0 -26.0 180.0H502.0C515.0 180.0 525.0 185.0 527.0 196.0C498.0 224.0 452.0 260.0 452.0 260.0L410.0 210.0Z"/></g>
<g fill="black" opacity=".8" transform="translate(900 200) scale(0.1 -0.1)"><path d="M0.0 0.0 7.0 -29.0H435.0V0.0ZM403.0 0.0C335.0 -241.0 172.0 -416.0 -118.0 -508.0L-108.0 -525.0C207.0 -441.0 365.0 -271.0 448.0 -35.0C471.0 -33.0 481.0 -30.0 491.0 -23.0L430.0 34.0L394.0 0.0ZM83.0 0.0 65.0 -10.0C122.0 -258.0 265.0 -431.0 484.0 -521.0C492.0 -499.0 511.0 -486.0 532.0 -487.0L535.0 -477.0C308.0 -399.0 145.0 -232.0 83.0 0.0ZM216.0 389.0V-17.0H260.0V353.0C284.0 356.0 295.0 366.0 297.0 380.0ZM-34.0 210.0 -26.0 178.0H502.0C515.0 178.0 525.0 184.0 526.0 195.0C499.0 223.0 452.0 260.0 452.0 260.0L410.0 210.0Z"/></g>
<g fill="red" transform="translate(1000 200) scale(0.1 -0.1)"><path d="M0.0 0.0 9.0 -28.0H404.0V0.0ZM343.0 0.0C286.0 -240.0 130.0 -435.0 -134.0 -541.0L-128.0 -553.0C219.0 -480.0 396.0 -298.0 485.0 -55.0C510.0 -53.0 520.0 -49.0 527.0 -37.0L405.0 73.0L330.0 0.0ZM101.0 0.0 89.0 -6.0C134.0 -302.0 244.0 -444.0 423.0 -549.0C446.0 -481.0 491.0 -437.0 551.0 -427.0L554.0 -416.0C354.0 -353.0 165.0 -245.0 101.0 0.0ZM184.0 399.0V-23.0H319.0V356.0C347.0 361.0 354.0 371.0 356.0 385.0ZM0.0 198.0 8.0 170.0H515.0C529.0 170.0 540.0 175.0 543.0 186.0C497.0 229.0 418.0 294.0 418.0 294.0L348.0 198.0Z"/></g>
<g fill="black" opacity=".8" transform="translate(1000 200) scale(0.1 -0.1)"><path d="M0.0 0.0 8.0 -29.0H404.0V0.0ZM343.0 0.0C285.0 -240.0 130.0 -436.0 -133.0 -542.0L-127.0 -553.0C219.0 -481.0 397.0 -298.0 486.0 -56.0C510.0 -53.0 521.0 -49.0 527.0 -37.0L406.0 73.0L330.0 0.0ZM102.0 0.0 89.0 -7.0C134.0 -301.0 244.0 -444.0 423.0 -549.0C447.0 -482.0 491.0 -436.0 551.0 -426.0L554.0 -416.0C354.0 -353.0 166.0 -245.0 102.0 0.0ZM185.0 399.0V-23.0H319.0V356.0C347.0 361.0 354.0 370.0 357.0 385.0ZM-0.0 198.0 8.0 169.0H515.0C528.0 169.0 539.0 175.0 543.0 186.0C497.0 229.0 418.0 294.0 418.0 294.0L347.0 198.0Z"/></g>
</svg>
