<?xml version="1.0" encoding="UTF-8"?>
<svg width="1700" height="500" xmlns="http://www.w3.org/2000/svg">
<rect width="100%" height="100%" fill="white"/>
<g fill="green" transform="translate(100 100) scale(0.1 -0.1)"><path d="M0.0 -0.0H12.0V-385.0H20.0C38.0 -385.0 67.0 -372.0 69.0 -366.0V-48.0C92.0 -44.0 113.0 -35.0 122.0 -25.0L37.0 40.0ZM-93.0 -86.0H-894.0L-893.0 -124.0H-93.0ZM-475.0 193.0 -502.0 157.0 -905.0 148.0 -904.0 110.0 -449.0 121.0C-432.0 121.0 -423.0 128.0 -420.0 142.0C-442.0 164.0 -475.0 193.0 -475.0 193.0ZM-520.0 610.0 -644.0 383.0 -630.0 -203.0 -560.0 40.0 -562.0 572.0C-534.0 576.0 -523.0 590.0 -520.0 610.0ZM-863.0 333.0 -963.0 345.0V-259.0C-963.0 -479.0 -985.0 -638.0 -1085.0 -778.0L-1064.0 -791.0C-938.0 -648.0 -908.0 -478.0 -907.0 -258.0V299.0C-875.0 303.0 -866.0 316.0 -863.0 333.0Z"/></g>
<g fill="green" transform="translate(200 100) scale(0.1 -0.1)"><path d="M0.0 0.0H11.0V-370.0H44.0C103.0 -370.0 193.0 -339.0 194.0 -329.0V-53.0C213.0 -50.0 223.0 -41.0 228.0 -34.0L76.0 79.0ZM-61.0 -61.0H-797.0L-795.0 -97.0H-61.0ZM-431.0 287.0 -511.0 177.0 -833.0 168.0 -832.0 133.0 -317.0 146.0C-300.0 146.0 -286.0 153.0 -282.0 167.0C-339.0 216.0 -431.0 287.0 -431.0 287.0ZM-421.0 637.0 -686.0 411.0 -642.0 -213.0 -431.0 33.0 -439.0 593.0C-419.0 600.0 -421.0 616.0 -421.0 637.0ZM-715.0 338.0 -930.0 358.0V-190.0C-930.0 -422.0 -946.0 -639.0 -1040.0 -812.0L-1029.0 -822.0C-819.0 -680.0 -763.0 -444.0 -761.0 -190.0V301.0C-727.0 306.0 -717.0 319.0 -715.0 338.0Z"/></g>
<g fill="green" transform="translate(300 100) scale(0.1 -0.1)"><path d="M0.0 -0.0H7.0V-178.0H12.0C22.0 -178.0 40.0 -171.0 41.0 -168.0V-28.0C54.0 -26.0 66.0 -21.0 72.0 -15.0L22.0 23.0ZM-240.0 -72.0H-854.0V-94.0H-240.0ZM-626.0 55.0 -636.0 41.0 -838.0 34.0 -839.0 11.0 -620.0 21.0C-610.0 21.0 -606.0 25.0 -604.0 33.0C-613.0 42.0 -626.0 55.0 -626.0 55.0ZM-517.0 419.0 -603.0 158.0 -587.0 -298.0 -538.0 -27.0 -540.0 393.0C-525.0 396.0 -519.0 405.0 -517.0 419.0ZM-711.0 118.0 -770.0 125.0V-230.0C-770.0 -362.0 -784.0 -457.0 -850.0 -540.0L-839.0 -548.0C-757.0 -464.0 -737.0 -362.0 -736.0 -229.0V98.0C-718.0 101.0 -712.0 108.0 -711.0 118.0Z"/></g>
<g fill="green" transform="translate(400 100) scale(0.1 -0.1)"><path d="M0.0 0.0H6.0V-153.0H28.0C64.0 -153.0 123.0 -137.0 123.0 -132.0V-29.0C133.0 -28.0 136.0 -23.0 138.0 -20.0L46.0 47.0ZM-228.0 -41.0H-795.0L-793.0 -62.0H-228.0ZM-599.0 139.0 -652.0 68.0 -797.0 61.0 -798.0 40.0 -522.0 51.0C-512.0 51.0 -503.0 56.0 -500.0 64.0C-539.0 95.0 -599.0 139.0 -599.0 139.0ZM-459.0 447.0 -649.0 186.0 -600.0 -299.0 -448.0 -24.0 -457.0 416.0C-452.0 421.0 -459.0 432.0 -459.0 447.0ZM-608.0 126.0 -740.0 137.0V-177.0C-740.0 -317.0 -751.0 -453.0 -815.0 -557.0L-809.0 -563.0C-672.0 -479.0 -637.0 -332.0 -635.0 -177.0V103.0C-615.0 106.0 -609.0 114.0 -608.0 126.0Z"/></g>
<g fill="green" transform="translate(500 100) scale(0.1 -0.1)"><path d="M0.0 0.0H10.0V-316.0H16.0C30.0 -316.0 52.0 -304.0 54.0 -299.0V-38.0C72.0 -34.0 89.0 -28.0 96.0 -20.0L29.0 31.0ZM457.0 392.0H-85.0L-87.0 363.0H457.0ZM439.0 560.0 408.0 520.0 64.0 506.0 65.0 477.0 475.0 494.0C489.0 494.0 497.0 500.0 499.0 511.0C475.0 531.0 439.0 560.0 439.0 560.0ZM96.0 1030.0 -30.0 572.0 -2.0 20.0 68.0 494.0 64.0 991.0C86.0 995.0 93.0 1009.0 96.0 1030.0ZM-30.0 506.0 -107.0 515.0V40.0C-107.0 -124.0 -122.0 -236.0 -191.0 -338.0L-176.0 -348.0C-86.0 -242.0 -64.0 -123.0 -64.0 41.0V480.0C-39.0 483.0 -32.0 493.0 -30.0 506.0Z"/></g>
<g fill="green" transform="translate(600 100) scale(0.1 -0.1)"><path d="M0.0 0.0H9.0V-328.0H33.0C82.0 -328.0 145.0 -296.0 146.0 -286.0V-46.0C164.0 -43.0 175.0 -35.0 180.0 -28.0L60.0 64.0ZM464.0 400.0H-44.0L-45.0 372.0H464.0ZM437.0 614.0 363.0 518.0 89.0 504.0 90.0 477.0 549.0 497.0C563.0 498.0 575.0 503.0 578.0 514.0C522.0 556.0 437.0 614.0 437.0 614.0ZM152.0 1050.0 -111.0 590.0 -25.0 -2.0 185.0 478.0 169.0 1007.0C166.0 1013.0 151.0 1029.0 152.0 1050.0ZM75.0 509.0 -86.0 524.0V97.0C-86.0 -79.0 -99.0 -240.0 -169.0 -370.0L-161.0 -378.0C-4.0 -270.0 39.0 -95.0 40.0 97.0V480.0C66.0 484.0 74.0 494.0 75.0 509.0Z"/></g>
<g fill="green" transform="translate(700 100) scale(0.1 -0.1)"><path d="M0.0 0.0H13.0V-397.0H21.0C41.0 -397.0 71.0 -382.0 73.0 -374.0V-51.0C97.0 -46.0 120.0 -37.0 129.0 -26.0L40.0 43.0ZM178.0 -255.0H-525.0L-521.0 -295.0H178.0ZM-131.0 9.0 -168.0 -40.0 -590.0 -48.0 -585.0 -88.0 -88.0 -78.0C-69.0 -78.0 -60.0 -71.0 -56.0 -56.0C-85.0 -28.0 -131.0 9.0 -131.0 9.0ZM-754.0 290.0 -870.0 222.0 -865.0 -361.0 -801.0 -277.0 -802.0 255.0C-771.0 259.0 -757.0 271.0 -754.0 290.0ZM-844.0 189.0 -950.0 202.0V-518.0C-950.0 -726.0 -959.0 -851.0 -999.0 -985.0L-975.0 -996.0C-911.0 -855.0 -892.0 -722.0 -891.0 -517.0V153.0C-857.0 157.0 -848.0 171.0 -844.0 189.0Z"/></g>
<g fill="green" transform="translate(800 100) scale(0.1 -0.1)"><path d="M0.0 0.0H12.0V-378.0H41.0C93.0 -378.0 172.0 -349.0 173.0 -338.0V-53.0C193.0 -50.0 206.0 -41.0 211.0 -33.0L70.0 72.0ZM195.0 -253.0H-434.0L-428.0 -291.0H195.0ZM-118.0 72.0 -198.0 -42.0 -508.0 -51.0 -503.0 -88.0 -6.0 -76.0C12.0 -76.0 26.0 -69.0 30.0 -54.0C-25.0 -3.0 -118.0 72.0 -118.0 72.0ZM-698.0 296.0 -903.0 228.0 -888.0 -404.0 -728.0 -320.0 -731.0 258.0C-704.0 264.0 -699.0 278.0 -698.0 296.0ZM-766.0 184.0 -969.0 204.0V-463.0C-969.0 -682.0 -972.0 -862.0 -1003.0 -1025.0L-989.0 -1035.0C-859.0 -889.0 -816.0 -698.0 -814.0 -463.0V146.0C-779.0 151.0 -769.0 164.0 -766.0 184.0Z"/></g>
<g fill="green" transform="translate(900 100) scale(0.1 -0.1)"><path d="M0.0 0.0H8.0V-397.0H15.0C30.0 -397.0 53.0 -388.0 55.0 -383.0V-35.0C70.0 -33.0 84.0 -26.0 91.0 -19.0L29.0 30.0ZM-462.0 -236.0H-1183.0L-1184.0 -266.0H-462.0ZM-283.0 438.0 -318.0 393.0 -889.0 378.0 -881.0 348.0 -232.0 366.0C-219.0 366.0 -211.0 372.0 -208.0 384.0C-238.0 406.0 -283.0 438.0 -283.0 438.0ZM-369.0 -90.0 -396.0 375.0 -423.0 168.0 -406.0 -293.0 -402.0 -97.0C-382.0 -96.0 -370.0 -93.0 -369.0 -90.0ZM-1003.0 404.0 -1083.0 414.0V-56.0C-1083.0 -236.0 -1102.0 -377.0 -1188.0 -496.0L-1171.0 -507.0C-1064.0 -385.0 -1039.0 -237.0 -1038.0 -54.0V377.0C-1013.0 380.0 -1006.0 391.0 -1003.0 404.0Z"/></g>
<g fill="green" transform="translate(1000 100) scale(0.1 -0.1)"><path d="M0.0 0.0H9.0V-396.0H37.0C86.0 -396.0 167.0 -373.0 167.0 -366.0V-41.0C180.0 -38.0 187.0 -32.0 189.0 -27.0L63.0 67.0ZM-438.0 -224.0H-1090.0V-253.0H-438.0ZM-274.0 557.0 -369.0 445.0 -840.0 430.0 -831.0 402.0 -123.0 423.0C-108.0 423.0 -95.0 429.0 -92.0 440.0C-164.0 490.0 -274.0 557.0 -274.0 557.0ZM-243.0 -76.0 -331.0 397.0 -415.0 182.0 -341.0 -286.0 -326.0 -88.0C-269.0 -86.0 -242.0 -81.0 -243.0 -76.0ZM-875.0 414.0 -1063.0 431.0V-7.0C-1063.0 -193.0 -1075.0 -368.0 -1151.0 -507.0L-1144.0 -515.0C-963.0 -405.0 -915.0 -214.0 -912.0 -7.0V385.0C-885.0 389.0 -877.0 399.0 -875.0 414.0Z"/></g>
<g fill="green" transform="translate(1100 100) scale(0.1 -0.1)"><path d="M0.0 0.0H15.0V-637.0H24.0C46.0 -637.0 80.0 -621.0 82.0 -613.0V-59.0C112.0 -53.0 137.0 -42.0 148.0 -30.0L45.0 49.0ZM337.0 -213.0H-657.0L-660.0 -259.0H337.0ZM-661.0 172.0 -694.0 128.0 -1033.0 130.0 -1038.0 84.0 -638.0 83.0C-617.0 82.0 -606.0 90.0 -602.0 107.0C-625.0 135.0 -661.0 172.0 -661.0 172.0ZM-391.0 422.0 -506.0 483.0 -509.0 -74.0 -445.0 -120.0V387.0C-410.0 391.0 -394.0 404.0 -391.0 422.0ZM-776.0 442.0 -895.0 456.0V-253.0C-895.0 -512.0 -920.0 -702.0 -1035.0 -867.0L-1010.0 -883.0C-864.0 -713.0 -829.0 -511.0 -828.0 -252.0V401.0C-790.0 406.0 -779.0 421.0 -776.0 442.0Z"/></g>
<g fill="green" transform="translate(1200 100) scale(0.1 -0.1)"><path d="M0.0 0.0H16.0V-646.0H54.0C129.0 -646.0 235.0 -602.0 236.0 -589.0V-74.0C266.0 -69.0 283.0 -55.0 292.0 -44.0L97.0 105.0ZM368.0 -201.0H-530.0L-533.0 -243.0H368.0ZM-590.0 258.0 -681.0 121.0 -950.0 123.0 -955.0 81.0 -471.0 79.0C-451.0 79.0 -435.0 86.0 -430.0 103.0C-489.0 164.0 -590.0 258.0 -590.0 258.0ZM-243.0 441.0 -490.0 507.0 -499.0 -84.0 -301.0 -131.0 -299.0 400.0C-256.0 407.0 -243.0 421.0 -243.0 441.0ZM-594.0 471.0 -849.0 495.0V-164.0C-849.0 -439.0 -867.0 -695.0 -975.0 -901.0L-961.0 -913.0C-717.0 -743.0 -652.0 -465.0 -649.0 -164.0V427.0C-609.0 433.0 -597.0 448.0 -594.0 471.0Z"/></g>
<g fill="green" transform="translate(1300 100) scale(0.1 -0.1)"><path d="M0.0 0.0H14.0V-455.0H22.0C41.0 -455.0 72.0 -442.0 74.0 -435.0V-53.0C101.0 -48.0 124.0 -38.0 134.0 -27.0L40.0 44.0ZM-324.0 -273.0H-1114.0L-1113.0 -314.0H-324.0ZM-412.0 47.0 -433.0 18.0 -914.0 -1.0 -915.0 -41.0 -395.0 -19.0C-376.0 -18.0 -368.0 -10.0 -364.0 4.0C-384.0 23.0 -412.0 47.0 -412.0 47.0ZM-468.0 664.0 -597.0 456.0 -584.0 -219.0 -512.0 6.0 -513.0 625.0C-483.0 629.0 -471.0 643.0 -468.0 664.0ZM-820.0 410.0 -926.0 423.0V-157.0C-926.0 -407.0 -959.0 -611.0 -1105.0 -774.0L-1084.0 -789.0C-907.0 -627.0 -868.0 -408.0 -866.0 -157.0V374.0C-832.0 378.0 -823.0 392.0 -820.0 410.0Z"/></g>
<g fill="green" transform="translate(1400 100) scale(0.1 -0.1)"><path d="M0.0 0.0H13.0V-448.0H47.0C111.0 -448.0 206.0 -414.0 208.0 -403.0V-62.0C231.0 -57.0 244.0 -47.0 252.0 -38.0L83.0 88.0ZM-256.0 -243.0H-1007.0L-1005.0 -281.0H-256.0ZM-370.0 128.0 -437.0 43.0 -800.0 25.0V-12.0L-272.0 14.0C-255.0 14.0 -241.0 22.0 -238.0 37.0C-290.0 76.0 -370.0 128.0 -370.0 128.0ZM-371.0 701.0 -652.0 494.0 -611.0 -232.0 -391.0 -5.0 -398.0 653.0C-371.0 661.0 -372.0 678.0 -371.0 701.0ZM-642.0 420.0 -883.0 443.0V-97.0C-883.0 -358.0 -907.0 -615.0 -1040.0 -809.0L-1030.0 -820.0C-762.0 -666.0 -694.0 -385.0 -692.0 -97.0V381.0C-656.0 387.0 -645.0 400.0 -642.0 420.0Z"/></g>
<g fill="green" transform="translate(1500 100) scale(0.1 -0.1)"><path d="M0.0 0.0H10.0V-287.0H17.0C34.0 -287.0 60.0 -276.0 62.0 -271.0V-41.0C80.0 -39.0 98.0 -30.0 106.0 -22.0L32.0 34.0ZM41.0 -91.0H-731.0L-729.0 -126.0H41.0ZM-444.0 105.0 -469.0 74.0 -952.0 84.0V49.0L-424.0 38.0C-409.0 37.0 -401.0 42.0 -398.0 55.0C-416.0 78.0 -444.0 105.0 -444.0 105.0ZM-440.0 632.0 -554.0 391.0 -539.0 -30.0 -474.0 225.0 -476.0 597.0C-453.0 600.0 -443.0 613.0 -440.0 632.0ZM-952.0 342.0 -1042.0 353.0V-199.0C-1042.0 -399.0 -1062.0 -538.0 -1154.0 -663.0L-1135.0 -673.0C-1020.0 -547.0 -993.0 -397.0 -992.0 -199.0V311.0C-963.0 315.0 -955.0 326.0 -952.0 342.0Z"/></g>
<g fill="green" transform="translate(1600 100) scale(0.1 -0.1)"><path d="M0.0 0.0H8.0V-266.0H38.0C88.0 -266.0 170.0 -242.0 171.0 -235.0V-40.0C183.0 -38.0 188.0 -33.0 191.0 -28.0L64.0 64.0ZM75.0 -76.0H-641.0L-638.0 -108.0H75.0ZM-378.0 162.0 -437.0 84.0 -887.0 95.0V62.0L-306.0 49.0C-291.0 49.0 -280.0 54.0 -276.0 67.0C-315.0 106.0 -378.0 162.0 -378.0 162.0ZM-338.0 654.0 -592.0 415.0 -546.0 -26.0 -342.0 232.0 -350.0 614.0C-335.0 620.0 -338.0 635.0 -338.0 654.0ZM-826.0 333.0 -1018.0 351.0V-137.0C-1018.0 -348.0 -1034.0 -545.0 -1126.0 -701.0L-1116.0 -711.0C-920.0 -583.0 -869.0 -368.0 -866.0 -137.0V299.0C-836.0 304.0 -827.0 316.0 -826.0 333.0Z"/></g>
<g fill="green" transform="translate(100 200) scale(0.1 -0.1)"><path d="M0.0 -0.0H14.0V-426.0H22.0C40.0 -426.0 69.0 -413.0 71.0 -408.0V-53.0C98.0 -47.0 122.0 -38.0 132.0 -27.0L39.0 43.0ZM-198.0 37.0H-915.0L-914.0 -2.0H-198.0ZM-459.0 152.0 -481.0 122.0 -1035.0 109.0 -1032.0 70.0 -441.0 85.0C-425.0 85.0 -416.0 93.0 -414.0 107.0C-431.0 127.0 -459.0 152.0 -459.0 152.0ZM-440.0 578.0 -573.0 314.0 -557.0 -173.0 -483.0 109.0 -485.0 535.0C-455.0 541.0 -443.0 555.0 -440.0 578.0ZM-865.0 260.0 -968.0 272.0V-287.0C-968.0 -526.0 -999.0 -723.0 -1136.0 -878.0L-1116.0 -893.0C-949.0 -737.0 -911.0 -527.0 -910.0 -287.0V225.0C-877.0 229.0 -868.0 242.0 -865.0 260.0Z"/></g>
<g fill="green" transform="translate(200 200) scale(0.1 -0.1)"><path d="M0.0 0.0H13.0V-416.0H47.0C110.0 -416.0 205.0 -383.0 206.0 -373.0V-61.0C230.0 -57.0 243.0 -45.0 250.0 -37.0L82.0 88.0ZM-144.0 55.0H-815.0L-812.0 19.0H-144.0ZM-378.0 271.0 -453.0 150.0 -951.0 138.0 -948.0 102.0 -274.0 119.0C-257.0 120.0 -243.0 127.0 -239.0 141.0C-290.0 193.0 -378.0 271.0 -378.0 271.0ZM-338.0 599.0 -625.0 338.0 -574.0 -174.0 -345.0 110.0 -354.0 553.0C-336.0 560.0 -339.0 576.0 -338.0 599.0ZM-688.0 260.0 -910.0 282.0V-243.0C-910.0 -493.0 -935.0 -733.0 -1067.0 -916.0L-1056.0 -926.0C-802.0 -779.0 -737.0 -516.0 -736.0 -243.0V223.0C-700.0 228.0 -690.0 242.0 -688.0 260.0Z"/></g>
<g fill="green" transform="translate(300 200) scale(0.1 -0.1)"><path d="M0.0 -0.0H11.0V-394.0H19.0C38.0 -394.0 67.0 -380.0 68.0 -373.0V-46.0C90.0 -43.0 110.0 -34.0 118.0 -25.0L36.0 39.0ZM-227.0 -168.0H-785.0L-786.0 -206.0H-227.0ZM-498.0 219.0 -527.0 177.0 -832.0 159.0 -826.0 120.0 -465.0 142.0C-449.0 142.0 -439.0 150.0 -436.0 164.0C-460.0 187.0 -498.0 219.0 -498.0 219.0ZM-501.0 626.0 -629.0 374.0 -614.0 -140.0 -541.0 128.0 -544.0 586.0C-515.0 590.0 -504.0 605.0 -501.0 626.0ZM-867.0 326.0 -968.0 338.0V-337.0C-968.0 -546.0 -981.0 -675.0 -1042.0 -805.0L-1019.0 -817.0C-935.0 -680.0 -913.0 -543.0 -912.0 -335.0V291.0C-879.0 295.0 -870.0 309.0 -867.0 326.0Z"/></g>
<g fill="green" transform="translate(400 200) scale(0.1 -0.1)"><path d="M0.0 0.0H11.0V-364.0H43.0C101.0 -364.0 188.0 -332.0 189.0 -321.0V-50.0C206.0 -48.0 215.0 -40.0 220.0 -33.0L74.0 75.0ZM-180.0 -136.0H-680.0V-172.0H-180.0ZM-447.0 305.0 -523.0 194.0 -780.0 176.0 -775.0 141.0 -336.0 166.0C-319.0 167.0 -305.0 174.0 -302.0 189.0C-357.0 236.0 -447.0 305.0 -447.0 305.0ZM-388.0 653.0 -648.0 402.0 -599.0 -143.0 -391.0 128.0 -400.0 610.0C-385.0 616.0 -388.0 632.0 -388.0 653.0ZM-733.0 327.0 -940.0 346.0V-253.0C-940.0 -475.0 -949.0 -668.0 -1008.0 -834.0L-995.0 -844.0C-830.0 -702.0 -782.0 -493.0 -780.0 -253.0V289.0C-746.0 294.0 -736.0 308.0 -733.0 327.0Z"/></g>
<g fill="green" transform="translate(500 200) scale(0.1 -0.1)"><path d="M0.0 0.0H13.0V-390.0H21.0C39.0 -390.0 68.0 -377.0 70.0 -371.0V-50.0C94.0 -45.0 116.0 -36.0 125.0 -26.0L37.0 41.0ZM-121.0 -50.0H-878.0L-877.0 -88.0H-121.0ZM-487.0 191.0 -514.0 159.0 -828.0 165.0 -830.0 126.0 -462.0 119.0C-444.0 118.0 -436.0 125.0 -432.0 139.0C-454.0 163.0 -487.0 191.0 -487.0 191.0ZM-511.0 609.0 -636.0 388.0 -622.0 -227.0 -552.0 10.0 -554.0 570.0C-525.0 575.0 -514.0 589.0 -511.0 609.0ZM-882.0 336.0 -984.0 348.0V-212.0C-984.0 -447.0 -1013.0 -636.0 -1144.0 -789.0L-1123.0 -803.0C-964.0 -650.0 -928.0 -447.0 -927.0 -212.0V302.0C-894.0 306.0 -885.0 319.0 -882.0 336.0Z"/></g>
<g fill="green" transform="translate(600 200) scale(0.1 -0.1)"><path d="M0.0 0.0H12.0V-395.0H45.0C106.0 -395.0 196.0 -363.0 197.0 -353.0V-56.0C219.0 -52.0 229.0 -43.0 235.0 -35.0L78.0 82.0ZM-83.0 -31.0H-756.0L-753.0 -68.0H-83.0ZM-446.0 268.0 -530.0 163.0 -708.0 170.0 -709.0 134.0 -331.0 126.0C-312.0 125.0 -298.0 132.0 -294.0 146.0C-352.0 196.0 -446.0 268.0 -446.0 268.0ZM-415.0 632.0 -685.0 412.0 -642.0 -240.0 -428.0 -1.0 -436.0 587.0C-414.0 594.0 -416.0 610.0 -415.0 632.0ZM-709.0 338.0 -926.0 359.0V-161.0C-926.0 -405.0 -947.0 -645.0 -1066.0 -827.0L-1056.0 -837.0C-817.0 -689.0 -757.0 -429.0 -756.0 -161.0V301.0C-721.0 306.0 -711.0 319.0 -709.0 338.0Z"/></g>
<g fill="green" transform="translate(700 200) scale(0.1 -0.1)"><path d="M0.0 0.0H13.0V-369.0H21.0C40.0 -369.0 70.0 -354.0 72.0 -347.0V-50.0C96.0 -46.0 118.0 -37.0 128.0 -26.0L39.0 42.0ZM-118.0 -70.0H-879.0L-874.0 -110.0H-118.0ZM-488.0 196.0 -518.0 154.0 -911.0 144.0 -907.0 105.0 -456.0 116.0C-438.0 116.0 -428.0 123.0 -426.0 138.0C-450.0 163.0 -488.0 196.0 -488.0 196.0ZM-534.0 604.0 -659.0 417.0 -647.0 -151.0 -577.0 52.0 -579.0 565.0C-549.0 569.0 -537.0 583.0 -534.0 604.0ZM-848.0 360.0 -952.0 373.0V-245.0C-952.0 -475.0 -975.0 -643.0 -1081.0 -789.0L-1059.0 -802.0C-926.0 -653.0 -895.0 -474.0 -894.0 -244.0V325.0C-860.0 329.0 -851.0 343.0 -848.0 360.0Z"/></g>
<g fill="green" transform="translate(800 200) scale(0.1 -0.1)"><path d="M0.0 0.0H11.0V-361.0H43.0C102.0 -361.0 191.0 -329.0 192.0 -318.0V-53.0C210.0 -51.0 222.0 -42.0 226.0 -34.0L75.0 78.0ZM-75.0 -44.0H-789.0L-783.0 -81.0H-75.0ZM-416.0 280.0 -484.0 173.0 -846.0 164.0 -841.0 127.0 -322.0 141.0C-305.0 141.0 -291.0 148.0 -288.0 163.0C-335.0 210.0 -416.0 280.0 -416.0 280.0ZM-431.0 624.0 -689.0 439.0 -652.0 -169.0 -448.0 36.0 -455.0 580.0C-432.0 587.0 -431.0 603.0 -431.0 624.0ZM-711.0 354.0 -936.0 375.0V-181.0C-936.0 -422.0 -950.0 -653.0 -1043.0 -837.0L-1031.0 -848.0C-817.0 -697.0 -761.0 -444.0 -759.0 -181.0V316.0C-723.0 321.0 -713.0 335.0 -711.0 354.0Z"/></g>
<g fill="red" transform="translate(100 300) scale(0.1 -0.1)"><path d="M0.0 0.0H10.0V-415.0H16.0C31.0 -415.0 53.0 -402.0 54.0 -396.0V-39.0C74.0 -35.0 91.0 -28.0 98.0 -20.0L30.0 33.0ZM48.0 0.0H-396.0V-30.0H48.0ZM18.0 244.0 -6.0 215.0H-395.0V185.0H39.0C52.0 185.0 60.0 190.0 63.0 201.0C45.0 221.0 18.0 244.0 18.0 244.0ZM59.0 483.0 -22.0 493.0V202.0H22.0V457.0C46.0 460.0 57.0 469.0 59.0 483.0ZM-329.0 465.0 -408.0 474.0V102.0C-408.0 -93.0 -436.0 -273.0 -566.0 -404.0L-550.0 -417.0C-396.0 -287.0 -365.0 -94.0 -364.0 101.0V438.0C-339.0 441.0 -331.0 451.0 -329.0 465.0Z"/></g>
<g fill="black" opacity=".8" transform="translate(100 300) scale(0.1 -0.1)"><path d="M0.0 0.0H12.0V-411.0H17.0C32.0 -411.0 54.0 -400.0 55.0 -394.0V-40.0C76.0 -36.0 93.0 -29.0 101.0 -21.0L30.0 33.0ZM46.0 4.0H-389.0L-390.0 -26.0H46.0ZM24.0 243.0 0.0 213.0 -378.0 212.0V181.0L47.0 183.0C61.0 182.0 67.0 188.0 70.0 199.0C53.0 219.0 24.0 243.0 24.0 243.0ZM67.0 483.0 -13.0 494.0 -12.0 199.0 31.0 198.0V457.0C54.0 461.0 65.0 469.0 67.0 483.0ZM-323.0 465.0 -402.0 474.0V93.0C-402.0 -101.0 -431.0 -274.0 -560.0 -401.0L-546.0 -412.0C-391.0 -287.0 -359.0 -103.0 -357.0 92.0V438.0C-331.0 441.0 -325.0 451.0 -323.0 465.0Z"/></g>
<g fill="red" transform="translate(200 300) scale(0.1 -0.1)"><path d="M0.0 0.0H10.0V-446.0H34.0C86.0 -446.0 151.0 -411.0 152.0 -400.0V-51.0C172.0 -46.0 185.0 -37.0 191.0 -29.0L64.0 69.0ZM107.0 0.0H-292.0V-28.0H107.0ZM97.0 271.0 55.0 213.0H-289.0V185.0H150.0C163.0 185.0 173.0 190.0 175.0 201.0C146.0 230.0 97.0 271.0 97.0 271.0ZM163.0 492.0 -13.0 506.0V197.0H127.0V464.0C155.0 468.0 162.0 478.0 163.0 492.0ZM-178.0 457.0 -352.0 474.0V124.0C-352.0 -74.0 -370.0 -283.0 -478.0 -437.0L-470.0 -445.0C-264.0 -323.0 -216.0 -92.0 -215.0 124.0V429.0C-188.0 433.0 -180.0 444.0 -178.0 457.0Z"/></g>
<g fill="black" opacity=".8" transform="translate(200 300) scale(0.1 -0.1)"><path d="M0.0 0.0H11.0V-443.0H34.0C85.0 -443.0 151.0 -412.0 152.0 -404.0V-51.0C173.0 -47.0 186.0 -39.0 193.0 -29.0L63.0 70.0ZM108.0 5.0H-307.0L-306.0 -22.0H108.0ZM85.0 274.0 40.0 208.0 -294.0 210.0 -291.0 181.0 142.0 182.0C156.0 183.0 166.0 187.0 167.0 199.0C136.0 230.0 85.0 274.0 85.0 274.0ZM163.0 491.0 -16.0 508.0V195.0L126.0 191.0V463.0C154.0 467.0 161.0 476.0 163.0 491.0ZM-182.0 466.0 -360.0 484.0V118.0C-360.0 -82.0 -381.0 -287.0 -498.0 -436.0L-491.0 -445.0C-273.0 -327.0 -220.0 -102.0 -219.0 118.0V437.0C-192.0 442.0 -184.0 452.0 -182.0 466.0Z"/></g>
<g fill="red" transform="translate(300 300) scale(0.1 -0.1)"><path d="M0.0 0.0H11.0V-406.0H17.0C31.0 -406.0 53.0 -398.0 55.0 -394.0V-41.0C77.0 -37.0 96.0 -29.0 103.0 -21.0L30.0 34.0ZM42.0 0.0H-483.0V-30.0H42.0ZM7.0 240.0 -17.0 211.0H-480.0V181.0H27.0C40.0 181.0 48.0 186.0 50.0 197.0C33.0 217.0 7.0 240.0 7.0 240.0ZM54.0 478.0 -23.0 487.0V201.0H21.0V453.0C43.0 456.0 52.0 465.0 54.0 478.0ZM-428.0 462.0 -507.0 471.0V81.0C-507.0 -111.0 -538.0 -280.0 -672.0 -403.0L-657.0 -416.0C-499.0 -293.0 -464.0 -113.0 -463.0 81.0V435.0C-438.0 438.0 -431.0 448.0 -428.0 462.0Z"/></g>
<g fill="black" opacity=".8" transform="translate(300 300) scale(0.1 -0.1)"><path d="M0.0 0.0H11.0V-411.0H17.0C31.0 -411.0 53.0 -401.0 55.0 -396.0V-40.0C75.0 -36.0 92.0 -28.0 100.0 -21.0L29.0 32.0ZM42.0 -3.0H-489.0L-491.0 -33.0H42.0ZM0.0 241.0 -22.0 213.0 -496.0 214.0 -497.0 184.0 21.0 183.0C34.0 182.0 41.0 188.0 44.0 198.0C27.0 218.0 0.0 241.0 0.0 241.0ZM46.0 478.0 -33.0 486.0 -32.0 203.0 11.0 205.0 12.0 453.0C33.0 457.0 44.0 464.0 46.0 478.0ZM-435.0 461.0 -514.0 471.0V89.0C-514.0 -105.0 -543.0 -279.0 -677.0 -407.0L-663.0 -419.0C-504.0 -293.0 -470.0 -107.0 -469.0 88.0V434.0C-443.0 438.0 -437.0 447.0 -435.0 461.0Z"/></g>
<g fill="red" transform="translate(400 300) scale(0.1 -0.1)"><path d="M0.0 0.0H10.0V-433.0H36.0C85.0 -433.0 159.0 -407.0 160.0 -399.0V-52.0C181.0 -47.0 193.0 -38.0 200.0 -30.0L65.0 72.0ZM99.0 0.0H-419.0V-28.0H99.0ZM44.0 288.0 -10.0 214.0H-414.0V186.0H115.0C128.0 186.0 139.0 191.0 141.0 202.0C105.0 237.0 44.0 288.0 44.0 288.0ZM147.0 489.0 -44.0 503.0V203.0H107.0V459.0C138.0 464.0 145.0 474.0 147.0 489.0ZM-288.0 473.0 -472.0 490.0V111.0C-472.0 -93.0 -500.0 -292.0 -635.0 -438.0L-628.0 -446.0C-387.0 -335.0 -327.0 -115.0 -325.0 111.0V444.0C-298.0 448.0 -290.0 459.0 -288.0 473.0Z"/></g>
<g fill="black" opacity=".8" transform="translate(400 300) scale(0.1 -0.1)"><path d="M0.0 0.0H11.0V-436.0H35.0C87.0 -436.0 158.0 -406.0 159.0 -398.0V-50.0C179.0 -46.0 190.0 -38.0 197.0 -30.0L64.0 71.0ZM98.0 -4.0H-405.0V-31.0H98.0ZM55.0 284.0 3.0 216.0 -411.0 219.0 -410.0 190.0 123.0 188.0C136.0 189.0 146.0 193.0 149.0 205.0C112.0 238.0 55.0 284.0 55.0 284.0ZM146.0 491.0 -41.0 504.0V207.0H109.0V462.0C137.0 466.0 144.0 476.0 146.0 491.0ZM-285.0 465.0 -465.0 483.0V117.0C-465.0 -84.0 -489.0 -289.0 -614.0 -437.0L-608.0 -446.0C-378.0 -331.0 -323.0 -106.0 -322.0 117.0V436.0C-295.0 441.0 -287.0 451.0 -285.0 465.0Z"/></g>
<g fill="red" transform="translate(500 300) scale(0.1 -0.1)"><path d="M0.0 0.0H10.0V-390.0H16.0C31.0 -390.0 53.0 -377.0 54.0 -371.0V-39.0C74.0 -35.0 91.0 -28.0 98.0 -20.0L30.0 33.0ZM564.0 182.0H204.0V152.0H564.0ZM585.0 474.0 546.0 425.0H198.0V395.0H633.0C647.0 395.0 656.0 400.0 659.0 411.0C631.0 439.0 585.0 474.0 585.0 474.0ZM88.0 474.0 7.0 484.0V175.0H51.0V448.0C75.0 451.0 86.0 460.0 88.0 474.0ZM-115.0 461.0 -194.0 470.0V-25.0C-194.0 -189.0 -206.0 -305.0 -260.0 -412.0L-242.0 -423.0C-169.0 -310.0 -151.0 -188.0 -150.0 -24.0V434.0C-125.0 437.0 -118.0 447.0 -115.0 461.0Z"/></g>
<g fill="black" opacity=".8" transform="translate(500 300) scale(0.1 -0.1)"><path d="M0.0 0.0H11.0V-397.0H16.0C32.0 -397.0 53.0 -384.0 55.0 -377.0V-39.0C73.0 -34.0 90.0 -28.0 97.0 -21.0L29.0 32.0ZM563.0 188.0H201.0L199.0 158.0H563.0ZM585.0 471.0 544.0 421.0 207.0 424.0 211.0 393.0 638.0 390.0C653.0 389.0 660.0 394.0 664.0 406.0C634.0 434.0 585.0 471.0 585.0 471.0ZM87.0 473.0 6.0 484.0 7.0 184.0 50.0 182.0V447.0C73.0 451.0 85.0 459.0 87.0 473.0ZM-115.0 460.0 -195.0 469.0V-28.0C-195.0 -191.0 -205.0 -303.0 -255.0 -408.0L-239.0 -417.0C-168.0 -307.0 -150.0 -189.0 -150.0 -28.0V433.0C-124.0 436.0 -117.0 446.0 -115.0 460.0Z"/></g>
<g fill="red" transform="translate(600 300) scale(0.1 -0.1)"><path d="M0.0 0.0H10.0V-425.0H32.0C78.0 -425.0 136.0 -393.0 137.0 -382.0V-49.0C158.0 -45.0 171.0 -36.0 177.0 -28.0L59.0 64.0ZM579.0 164.0H271.0V135.0H579.0ZM594.0 488.0 524.0 392.0H269.0V364.0H690.0C705.0 364.0 716.0 369.0 719.0 380.0C673.0 423.0 594.0 488.0 594.0 488.0ZM156.0 463.0 -1.0 476.0V148.0H124.0V437.0C148.0 441.0 154.0 450.0 156.0 463.0ZM-32.0 452.0 -190.0 467.0V4.0C-190.0 -168.0 -198.0 -316.0 -245.0 -444.0L-235.0 -452.0C-107.0 -342.0 -69.0 -182.0 -68.0 4.0V424.0C-42.0 427.0 -34.0 438.0 -32.0 452.0Z"/></g>
<g fill="black" opacity=".8" transform="translate(600 300) scale(0.1 -0.1)"><path d="M0.0 0.0H11.0V-430.0H31.0C76.0 -430.0 132.0 -399.0 133.0 -389.0V-47.0C153.0 -44.0 166.0 -36.0 172.0 -27.0L57.0 62.0ZM577.0 166.0H269.0V138.0H577.0ZM588.0 487.0 516.0 392.0 264.0 396.0 269.0 368.0 689.0 363.0C705.0 364.0 716.0 368.0 719.0 380.0C669.0 424.0 588.0 487.0 588.0 487.0ZM152.0 464.0 1.0 478.0 0.0 157.0 121.0 153.0V439.0C143.0 442.0 149.0 451.0 152.0 464.0ZM-37.0 455.0 -189.0 471.0V2.0C-189.0 -168.0 -196.0 -316.0 -240.0 -442.0L-231.0 -450.0C-109.0 -339.0 -74.0 -181.0 -72.0 2.0V426.0C-46.0 430.0 -39.0 440.0 -37.0 455.0Z"/></g>
<g fill="red" transform="translate(700 300) scale(0.1 -0.1)"><path d="M0.0 0.0H10.0V-415.0H16.0C31.0 -415.0 53.0 -402.0 54.0 -396.0V-39.0C74.0 -35.0 91.0 -28.0 98.0 -20.0L30.0 33.0ZM29.0 0.0H-166.0V-30.0H29.0ZM567.0 409.0 533.0 360.0 100.0 327.0 110.0 298.0 616.0 337.0C629.0 338.0 638.0 345.0 640.0 356.0C612.0 377.0 567.0 409.0 567.0 409.0ZM87.0 468.0 6.0 478.0V178.0H50.0V442.0C74.0 445.0 85.0 454.0 87.0 468.0ZM-113.0 464.0 -192.0 473.0V-22.0C-192.0 -186.0 -204.0 -302.0 -258.0 -409.0L-240.0 -420.0C-167.0 -307.0 -149.0 -185.0 -148.0 -21.0V437.0C-123.0 440.0 -116.0 450.0 -113.0 464.0Z"/></g>
<g fill="black" opacity=".8" transform="translate(700 300) scale(0.1 -0.1)"><path d="M0.0 0.0H11.0V-417.0H16.0C32.0 -417.0 53.0 -404.0 54.0 -397.0V-38.0C73.0 -34.0 90.0 -28.0 97.0 -20.0L30.0 32.0ZM28.0 1.0H-167.0L-168.0 -29.0H28.0ZM567.0 408.0 533.0 360.0 101.0 327.0 112.0 298.0 617.0 336.0C630.0 336.0 638.0 344.0 641.0 355.0C613.0 376.0 567.0 408.0 567.0 408.0ZM86.0 468.0 5.0 478.0V179.0L49.0 180.0V442.0C73.0 445.0 84.0 453.0 86.0 468.0ZM-114.0 463.0 -193.0 473.0V-22.0C-193.0 -187.0 -205.0 -302.0 -257.0 -409.0L-241.0 -418.0C-167.0 -306.0 -150.0 -186.0 -149.0 -21.0V436.0C-123.0 439.0 -116.0 450.0 -114.0 463.0Z"/></g>
<g fill="red" transform="translate(800 300) scale(0.1 -0.1)"><path d="M0.0 0.0H10.0V-429.0H31.0C77.0 -429.0 135.0 -397.0 136.0 -386.0V-49.0C156.0 -45.0 170.0 -36.0 176.0 -28.0L58.0 63.0ZM81.0 0.0H-112.0V-28.0H81.0ZM575.0 450.0 518.0 366.0 140.0 333.0 150.0 306.0 668.0 351.0C681.0 352.0 692.0 359.0 694.0 370.0C648.0 404.0 575.0 450.0 575.0 450.0ZM155.0 472.0 5.0 485.0V157.0H123.0V446.0C147.0 450.0 154.0 459.0 155.0 472.0ZM-31.0 460.0 -194.0 476.0V13.0C-194.0 -159.0 -202.0 -307.0 -249.0 -435.0L-239.0 -443.0C-109.0 -334.0 -69.0 -173.0 -68.0 13.0V432.0C-42.0 436.0 -34.0 446.0 -31.0 460.0Z"/></g>
<g fill="black" opacity=".8" transform="translate(800 300) scale(0.1 -0.1)"><path d="M0.0 0.0H11.0V-430.0H31.0C76.0 -430.0 133.0 -399.0 135.0 -388.0V-48.0C154.0 -45.0 168.0 -37.0 175.0 -28.0L57.0 63.0ZM81.0 0.0H-112.0L-111.0 -27.0H81.0ZM574.0 449.0 517.0 366.0 139.0 335.0 150.0 307.0 669.0 351.0C682.0 353.0 693.0 358.0 694.0 370.0C647.0 404.0 574.0 449.0 574.0 449.0ZM154.0 473.0 5.0 486.0V160.0L123.0 158.0V447.0C146.0 450.0 152.0 459.0 154.0 473.0ZM-32.0 461.0 -194.0 477.0V14.0C-194.0 -159.0 -201.0 -307.0 -246.0 -435.0L-237.0 -443.0C-109.0 -333.0 -70.0 -172.0 -69.0 14.0V432.0C-43.0 436.0 -35.0 447.0 -32.0 461.0Z"/></g>
<g fill="red" transform="translate(900 300) scale(0.1 -0.1)"><path d="M0.0 0.0H10.0V-390.0H16.0C30.0 -390.0 52.0 -379.0 53.0 -374.0V-39.0C73.0 -35.0 91.0 -28.0 97.0 -20.0L29.0 33.0ZM24.0 -322.0H-388.0V-352.0H24.0ZM-514.0 -163.0 -531.0 -187.0H-722.0V-217.0H-503.0C-491.0 -217.0 -484.0 -212.0 -481.0 -201.0C-493.0 -184.0 -514.0 -163.0 -514.0 -163.0ZM-474.0 96.0 -555.0 106.0V-203.0H-511.0V70.0C-487.0 73.0 -476.0 82.0 -474.0 96.0ZM-663.0 84.0 -742.0 93.0V-399.0C-742.0 -563.0 -754.0 -678.0 -808.0 -785.0L-790.0 -795.0C-717.0 -684.0 -699.0 -561.0 -698.0 -399.0V57.0C-673.0 60.0 -666.0 70.0 -663.0 84.0Z"/></g>
<g fill="black" opacity=".8" transform="translate(900 300) scale(0.1 -0.1)"><path d="M0.0 0.0H11.0V-389.0H16.0C31.0 -389.0 53.0 -379.0 53.0 -373.0V-39.0C73.0 -35.0 91.0 -28.0 98.0 -20.0L29.0 32.0ZM23.0 -321.0H-386.0L-388.0 -351.0H23.0ZM-513.0 -163.0 -530.0 -187.0 -720.0 -186.0V-218.0L-502.0 -217.0C-489.0 -218.0 -484.0 -212.0 -480.0 -202.0C-491.0 -185.0 -513.0 -163.0 -513.0 -163.0ZM-472.0 96.0 -554.0 106.0V-204.0H-509.0L-510.0 70.0C-486.0 74.0 -474.0 82.0 -472.0 96.0ZM-663.0 84.0 -742.0 93.0V-401.0C-742.0 -565.0 -753.0 -678.0 -806.0 -784.0L-790.0 -794.0C-717.0 -684.0 -698.0 -563.0 -697.0 -401.0V57.0C-672.0 60.0 -665.0 70.0 -663.0 84.0Z"/></g>
<g fill="red" transform="translate(1000 300) scale(0.1 -0.1)"><path d="M0.0 0.0H10.0V-379.0H33.0C77.0 -379.0 140.0 -353.0 141.0 -345.0V-46.0C160.0 -43.0 171.0 -34.0 177.0 -27.0L59.0 62.0ZM64.0 -317.0H-287.0V-345.0H64.0ZM-454.0 -122.0 -498.0 -198.0H-640.0V-226.0H-402.0C-389.0 -226.0 -380.0 -221.0 -377.0 -210.0C-403.0 -176.0 -454.0 -122.0 -454.0 -122.0ZM-396.0 101.0 -546.0 114.0V-214.0H-428.0V75.0C-404.0 79.0 -397.0 88.0 -396.0 101.0ZM-563.0 90.0 -714.0 105.0V-358.0C-714.0 -530.0 -722.0 -679.0 -769.0 -807.0L-758.0 -814.0C-636.0 -703.0 -600.0 -542.0 -599.0 -358.0V62.0C-573.0 66.0 -565.0 76.0 -563.0 90.0Z"/></g>
<g fill="black" opacity=".8" transform="translate(1000 300) scale(0.1 -0.1)"><path d="M0.0 0.0H11.0V-379.0H34.0C77.0 -379.0 140.0 -354.0 140.0 -346.0V-46.0C160.0 -43.0 171.0 -35.0 177.0 -27.0L58.0 62.0ZM65.0 -317.0H-289.0V-343.0H65.0ZM-456.0 -121.0 -501.0 -200.0 -641.0 -198.0V-226.0L-403.0 -227.0C-390.0 -226.0 -381.0 -222.0 -378.0 -210.0C-405.0 -175.0 -456.0 -121.0 -456.0 -121.0ZM-396.0 101.0 -546.0 115.0 -547.0 -214.0 -427.0 -216.0V76.0C-405.0 79.0 -398.0 87.0 -396.0 101.0ZM-563.0 92.0 -715.0 107.0V-358.0C-715.0 -530.0 -724.0 -680.0 -773.0 -807.0L-762.0 -815.0C-637.0 -703.0 -602.0 -543.0 -599.0 -358.0V63.0C-574.0 67.0 -566.0 77.0 -563.0 92.0Z"/></g>
<g fill="red" transform="translate(1100 300) scale(0.1 -0.1)"><path d="M0.0 0.0H10.0V-415.0H16.0C31.0 -415.0 52.0 -402.0 53.0 -396.0V-39.0C73.0 -35.0 91.0 -28.0 97.0 -20.0L29.0 33.0ZM349.0 -21.0H168.0V-51.0H349.0ZM493.0 285.0 456.0 238.0H232.0L240.0 208.0H539.0C553.0 208.0 562.0 213.0 565.0 224.0C537.0 251.0 493.0 285.0 493.0 285.0ZM95.0 468.0 14.0 478.0V178.0H58.0V442.0C82.0 445.0 93.0 454.0 95.0 468.0ZM-78.0 453.0 -157.0 462.0V-25.0C-157.0 -188.0 -169.0 -303.0 -223.0 -407.0L-205.0 -418.0C-132.0 -307.0 -114.0 -186.0 -113.0 -25.0V426.0C-88.0 429.0 -81.0 439.0 -78.0 453.0Z"/></g>
<g fill="black" opacity=".8" transform="translate(1100 300) scale(0.1 -0.1)"><path d="M0.0 0.0H11.0V-412.0H16.0C32.0 -412.0 53.0 -399.0 54.0 -391.0V-38.0C73.0 -34.0 89.0 -28.0 96.0 -21.0L29.0 32.0ZM347.0 -27.0H169.0L167.0 -56.0H347.0ZM490.0 287.0 456.0 242.0 221.0 241.0 225.0 210.0 534.0 212.0C549.0 211.0 555.0 217.0 559.0 228.0C534.0 254.0 490.0 287.0 490.0 287.0ZM92.0 469.0 11.0 477.0 12.0 171.0 55.0 174.0V443.0C79.0 447.0 90.0 455.0 92.0 469.0ZM-80.0 453.0 -159.0 463.0V-21.0C-159.0 -187.0 -172.0 -304.0 -227.0 -412.0L-210.0 -421.0C-135.0 -309.0 -116.0 -185.0 -115.0 -21.0V426.0C-89.0 429.0 -83.0 440.0 -80.0 453.0Z"/></g>
<g fill="red" transform="translate(1200 300) scale(0.1 -0.1)"><path d="M0.0 0.0H10.0V-446.0H29.0C71.0 -446.0 123.0 -416.0 124.0 -405.0V-47.0C144.0 -43.0 158.0 -35.0 165.0 -27.0L54.0 59.0ZM393.0 -38.0H242.0V-66.0H393.0ZM498.0 273.0 446.0 208.0H294.0L302.0 180.0H568.0C582.0 180.0 592.0 185.0 594.0 196.0C558.0 228.0 498.0 273.0 498.0 273.0ZM155.0 464.0 13.0 476.0V148.0H122.0V438.0C146.0 442.0 153.0 451.0 155.0 464.0ZM-3.0 452.0 -152.0 467.0V4.0C-152.0 -168.0 -160.0 -317.0 -207.0 -445.0L-196.0 -452.0C-76.0 -340.0 -40.0 -180.0 -39.0 4.0V424.0C-13.0 428.0 -5.0 438.0 -3.0 452.0Z"/></g>
<g fill="black" opacity=".8" transform="translate(1200 300) scale(0.1 -0.1)"><path d="M0.0 0.0H12.0V-443.0H29.0C74.0 -443.0 125.0 -412.0 126.0 -401.0V-48.0C146.0 -44.0 160.0 -37.0 167.0 -27.0L55.0 60.0ZM394.0 -41.0H248.0V-68.0H394.0ZM505.0 272.0 455.0 207.0H299.0L305.0 179.0L572.0 180.0C586.0 181.0 596.0 185.0 597.0 198.0C562.0 229.0 505.0 272.0 505.0 272.0ZM158.0 465.0 12.0 475.0 13.0 145.0 127.0 144.0 126.0 439.0C149.0 442.0 155.0 451.0 158.0 465.0ZM1.0 448.0 -151.0 464.0V8.0C-151.0 -164.0 -158.0 -317.0 -204.0 -446.0L-194.0 -454.0C-71.0 -340.0 -37.0 -177.0 -35.0 8.0V419.0C-9.0 424.0 -2.0 434.0 1.0 448.0Z"/></g>
<g fill="red" transform="translate(1300 300) scale(0.1 -0.1)"><path d="M0.0 0.0H9.0V-501.0H15.0C31.0 -501.0 52.0 -489.0 53.0 -483.0V-36.0C71.0 -33.0 86.0 -26.0 92.0 -19.0L29.0 32.0ZM29.0 -406.0H-415.0V-436.0H29.0ZM44.0 203.0 4.0 153.0H-464.0L-456.0 123.0H95.0C108.0 123.0 117.0 128.0 120.0 139.0C91.0 167.0 44.0 203.0 44.0 203.0ZM-168.0 -424.0V324.0H-212.0V-424.0H-206.0C-183.0 -424.0 -168.0 -424.0 -168.0 -424.0ZM-654.0 372.0 -733.0 381.0V-94.0C-733.0 -260.0 -745.0 -386.0 -802.0 -497.0L-783.0 -508.0C-708.0 -391.0 -690.0 -259.0 -689.0 -93.0V345.0C-664.0 348.0 -657.0 358.0 -654.0 372.0Z"/></g>
<g fill="black" opacity=".8" transform="translate(1300 300) scale(0.1 -0.1)"><path d="M0.0 0.0H10.0V-501.0H15.0C31.0 -501.0 52.0 -490.0 54.0 -483.0V-36.0C70.0 -33.0 85.0 -26.0 92.0 -19.0L29.0 31.0ZM28.0 -406.0H-414.0L-416.0 -436.0H28.0ZM43.0 203.0 5.0 153.0H-464.0L-457.0 123.0H95.0C109.0 122.0 116.0 128.0 120.0 140.0C92.0 166.0 43.0 203.0 43.0 203.0ZM-168.0 -424.0V324.0H-212.0V-424.0H-206.0C-184.0 -423.0 -168.0 -424.0 -168.0 -424.0ZM-655.0 371.0 -733.0 381.0V-94.0C-733.0 -260.0 -745.0 -386.0 -801.0 -498.0L-784.0 -507.0C-709.0 -391.0 -690.0 -260.0 -689.0 -93.0V344.0C-664.0 348.0 -657.0 358.0 -655.0 371.0Z"/></g>
<g fill="red" transform="translate(1400 300) scale(0.1 -0.1)"><path d="M0.0 0.0H10.0V-526.0H32.0C75.0 -526.0 138.0 -500.0 139.0 -492.0V-46.0C157.0 -42.0 169.0 -34.0 174.0 -27.0L58.0 63.0ZM65.0 -428.0H-319.0V-456.0H65.0ZM72.0 241.0 7.0 154.0H-397.0L-389.0 126.0H162.0C176.0 126.0 187.0 131.0 189.0 142.0C146.0 182.0 72.0 241.0 72.0 241.0ZM-53.0 -440.0V319.0H-189.0V-440.0H-164.0C-94.0 -440.0 -54.0 -440.0 -53.0 -440.0ZM-574.0 378.0 -739.0 394.0V-69.0C-739.0 -240.0 -745.0 -388.0 -787.0 -517.0L-777.0 -524.0C-650.0 -415.0 -612.0 -254.0 -610.0 -69.0V350.0C-584.0 354.0 -576.0 364.0 -574.0 378.0Z"/></g>
<g fill="black" opacity=".8" transform="translate(1400 300) scale(0.1 -0.1)"><path d="M0.0 0.0H12.0V-526.0H32.0C75.0 -526.0 138.0 -500.0 138.0 -492.0V-46.0C156.0 -42.0 169.0 -35.0 174.0 -26.0L57.0 63.0ZM66.0 -428.0H-319.0V-455.0H66.0ZM71.0 241.0 7.0 153.0 -398.0 155.0 -389.0 126.0H163.0C177.0 126.0 187.0 130.0 189.0 142.0C145.0 183.0 71.0 241.0 71.0 241.0ZM-53.0 -440.0V320.0H-189.0L-188.0 -441.0L-163.0 -439.0C-95.0 -440.0 -55.0 -440.0 -53.0 -440.0ZM-573.0 378.0 -739.0 395.0V-68.0C-739.0 -239.0 -745.0 -389.0 -787.0 -516.0L-778.0 -525.0C-650.0 -415.0 -613.0 -254.0 -610.0 -68.0V350.0C-584.0 355.0 -577.0 364.0 -573.0 378.0Z"/></g>
<g fill="red" transform="translate(1500 300) scale(0.1 -0.1)"><path d="M0.0 0.0H10.0V-415.0H16.0C31.0 -415.0 52.0 -402.0 53.0 -396.0V-39.0C73.0 -35.0 91.0 -28.0 97.0 -20.0L29.0 33.0ZM538.0 195.0H367.0V165.0H538.0ZM614.0 390.0 576.0 340.0H104.0L112.0 310.0H659.0C671.0 310.0 681.0 315.0 683.0 326.0C658.0 354.0 614.0 390.0 614.0 390.0ZM270.0 469.0 188.0 479.0V403.0H232.0V441.0C256.0 445.0 268.0 454.0 270.0 469.0ZM-86.0 453.0 -165.0 462.0V-25.0C-165.0 -188.0 -177.0 -303.0 -231.0 -407.0L-213.0 -418.0C-140.0 -307.0 -122.0 -186.0 -121.0 -25.0V426.0C-96.0 429.0 -89.0 439.0 -86.0 453.0Z"/></g>
<g fill="black" opacity=".8" transform="translate(1500 300) scale(0.1 -0.1)"><path d="M0.0 0.0H11.0V-415.0H16.0C32.0 -415.0 53.0 -402.0 54.0 -395.0V-39.0C72.0 -34.0 90.0 -28.0 97.0 -21.0L29.0 31.0ZM536.0 195.0H367.0L365.0 165.0H536.0ZM614.0 389.0 577.0 341.0 103.0 340.0 112.0 310.0H659.0C672.0 308.0 681.0 314.0 683.0 326.0C658.0 354.0 614.0 389.0 614.0 389.0ZM269.0 469.0 188.0 479.0V402.0L232.0 403.0L231.0 441.0C255.0 446.0 267.0 453.0 269.0 469.0ZM-87.0 453.0 -166.0 462.0V-25.0C-166.0 -189.0 -177.0 -304.0 -230.0 -408.0L-214.0 -416.0C-140.0 -307.0 -122.0 -187.0 -122.0 -25.0V426.0C-95.0 429.0 -89.0 439.0 -87.0 453.0Z"/></g>
<g fill="red" transform="translate(1600 300) scale(0.1 -0.1)"><path d="M0.0 0.0H10.0V-442.0H30.0C74.0 -442.0 129.0 -410.0 130.0 -400.0V-48.0C150.0 -44.0 164.0 -35.0 170.0 -27.0L56.0 61.0ZM583.0 168.0H428.0V140.0H583.0ZM674.0 397.0 628.0 314.0H139.0L147.0 286.0H730.0C743.0 286.0 753.0 291.0 755.0 302.0C728.0 339.0 674.0 397.0 674.0 397.0ZM355.0 453.0 201.0 468.0V391.0H324.0V429.0C345.0 432.0 352.0 440.0 355.0 453.0ZM-10.0 437.0 -159.0 452.0V-4.0C-159.0 -176.0 -169.0 -321.0 -222.0 -447.0L-210.0 -455.0C-84.0 -345.0 -47.0 -187.0 -46.0 -4.0V409.0C-20.0 413.0 -12.0 424.0 -10.0 437.0Z"/></g>
<g fill="black" opacity=".8" transform="translate(1600 300) scale(0.1 -0.1)"><path d="M0.0 0.0H11.0V-442.0H30.0C74.0 -442.0 129.0 -410.0 129.0 -400.0V-47.0C149.0 -44.0 163.0 -36.0 170.0 -27.0L55.0 61.0ZM583.0 167.0H428.0L429.0 141.0H583.0ZM674.0 396.0 628.0 313.0 139.0 315.0 148.0 286.0 731.0 285.0C744.0 287.0 754.0 290.0 755.0 302.0C727.0 340.0 674.0 396.0 674.0 396.0ZM354.0 453.0 201.0 469.0V393.0L325.0 390.0V430.0C344.0 432.0 351.0 440.0 354.0 453.0ZM-10.0 437.0 -159.0 453.0V-3.0C-159.0 -175.0 -169.0 -321.0 -221.0 -447.0L-211.0 -456.0C-84.0 -345.0 -47.0 -186.0 -46.0 -3.0V409.0C-20.0 413.0 -12.0 424.0 -10.0 437.0Z"/></g>
<g fill="red" transform="translate(100 400) scale(0.1 -0.1)"><path d="M0.0 0.0H10.0V-415.0H16.0C31.0 -415.0 53.0 -402.0 54.0 -396.0V-39.0C74.0 -35.0 91.0 -28.0 98.0 -20.0L30.0 33.0ZM621.0 192.0H143.0V162.0H621.0ZM602.0 419.0 561.0 369.0H121.0L129.0 339.0H652.0C666.0 339.0 675.0 344.0 678.0 355.0C648.0 383.0 602.0 419.0 602.0 419.0ZM87.0 468.0 6.0 478.0V178.0H50.0V442.0C74.0 445.0 85.0 454.0 87.0 468.0ZM-91.0 452.0 -170.0 461.0V-26.0C-170.0 -189.0 -182.0 -304.0 -236.0 -408.0L-218.0 -419.0C-145.0 -308.0 -127.0 -187.0 -126.0 -26.0V425.0C-101.0 428.0 -94.0 438.0 -91.0 452.0Z"/></g>
<g fill="black" opacity=".8" transform="translate(100 400) scale(0.1 -0.1)"><path d="M0.0 0.0H11.0V-407.0H17.0C32.0 -407.0 54.0 -394.0 55.0 -388.0V-40.0C74.0 -35.0 92.0 -29.0 100.0 -20.0L30.0 32.0ZM619.0 187.0H148.0L147.0 157.0H619.0ZM603.0 421.0 564.0 373.0 116.0 370.0 120.0 340.0 649.0 343.0C664.0 343.0 672.0 348.0 675.0 360.0C647.0 386.0 603.0 421.0 603.0 421.0ZM89.0 469.0 8.0 478.0 9.0 168.0 52.0 169.0V444.0C76.0 447.0 87.0 455.0 89.0 469.0ZM-90.0 453.0 -169.0 462.0V-26.0C-169.0 -190.0 -182.0 -306.0 -238.0 -412.0L-222.0 -421.0C-145.0 -311.0 -125.0 -189.0 -125.0 -26.0V426.0C-99.0 429.0 -92.0 439.0 -90.0 453.0Z"/></g>
<g fill="red" transform="translate(200 400) scale(0.1 -0.1)"><path d="M0.0 0.0H10.0V-442.0H30.0C75.0 -442.0 131.0 -410.0 132.0 -400.0V-48.0C152.0 -44.0 166.0 -35.0 172.0 -27.0L57.0 62.0ZM629.0 166.0H202.0V138.0H629.0ZM608.0 448.0 537.0 356.0H156.0L164.0 328.0H707.0C721.0 328.0 732.0 333.0 735.0 344.0C687.0 386.0 608.0 448.0 608.0 448.0ZM146.0 463.0 -4.0 476.0V148.0H114.0V437.0C138.0 441.0 145.0 450.0 146.0 463.0ZM-17.0 452.0 -168.0 467.0V4.0C-168.0 -168.0 -176.0 -317.0 -223.0 -445.0L-212.0 -452.0C-90.0 -341.0 -54.0 -180.0 -53.0 4.0V424.0C-27.0 428.0 -19.0 438.0 -17.0 452.0Z"/></g>
<g fill="black" opacity=".8" transform="translate(200 400) scale(0.1 -0.1)"><path d="M0.0 0.0H11.0V-436.0H31.0C77.0 -436.0 135.0 -405.0 136.0 -395.0V-49.0C157.0 -45.0 171.0 -37.0 177.0 -28.0L58.0 64.0ZM631.0 165.0H201.0V137.0H631.0ZM610.0 449.0 542.0 354.0 160.0 352.0 165.0 323.0 706.0 327.0C721.0 328.0 732.0 332.0 734.0 343.0C687.0 387.0 610.0 449.0 610.0 449.0ZM150.0 463.0 -6.0 475.0V140.0H118.0V437.0C142.0 440.0 148.0 449.0 150.0 463.0ZM-14.0 452.0 -171.0 468.0V5.0C-171.0 -168.0 -180.0 -319.0 -232.0 -446.0L-223.0 -454.0C-90.0 -344.0 -51.0 -182.0 -50.0 5.0V423.0C-23.0 428.0 -16.0 437.0 -14.0 452.0Z"/></g>
<g fill="red" transform="translate(300 400) scale(0.1 -0.1)"><path d="M0.0 0.0H10.0V-423.0H16.0C31.0 -423.0 53.0 -410.0 54.0 -404.0V-39.0C74.0 -35.0 91.0 -28.0 98.0 -20.0L30.0 33.0ZM619.0 -5.0H193.0V-35.0H619.0ZM91.0 240.0 60.0 196.0H-126.0V166.0H121.0C135.0 166.0 144.0 171.0 146.0 182.0C126.0 207.0 91.0 240.0 91.0 240.0ZM59.0 463.0 -22.0 473.0V177.0H22.0V437.0C46.0 440.0 57.0 449.0 59.0 463.0ZM-82.0 435.0 -161.0 444.0V-64.0C-161.0 -221.0 -170.0 -320.0 -215.0 -417.0L-197.0 -427.0C-134.0 -323.0 -118.0 -219.0 -117.0 -63.0V408.0C-92.0 411.0 -85.0 421.0 -82.0 435.0Z"/></g>
<g fill="black" opacity=".8" transform="translate(300 400) scale(0.1 -0.1)"><path d="M0.0 0.0H11.0V-426.0H16.0C32.0 -426.0 53.0 -412.0 54.0 -405.0V-38.0C73.0 -34.0 89.0 -28.0 97.0 -20.0L30.0 32.0ZM618.0 -5.0H191.0L190.0 -35.0H618.0ZM89.0 239.0 58.0 196.0 -130.0 197.0 -129.0 167.0 120.0 166.0C134.0 165.0 142.0 170.0 145.0 182.0C125.0 206.0 89.0 239.0 89.0 239.0ZM56.0 463.0 -25.0 472.0V178.0H19.0V437.0C42.0 440.0 54.0 448.0 56.0 463.0ZM-85.0 434.0 -163.0 444.0V-62.0C-163.0 -220.0 -172.0 -320.0 -215.0 -418.0L-199.0 -426.0C-136.0 -322.0 -120.0 -218.0 -119.0 -61.0V407.0C-93.0 411.0 -86.0 421.0 -85.0 434.0Z"/></g>
<g fill="red" transform="translate(400 400) scale(0.1 -0.1)"><path d="M0.0 0.0H10.0V-446.0H31.0C77.0 -446.0 134.0 -414.0 135.0 -403.0V-49.0C155.0 -45.0 169.0 -36.0 175.0 -28.0L58.0 63.0ZM645.0 -10.0H246.0V-38.0H645.0ZM142.0 243.0 99.0 164.0H-104.0V136.0H190.0C203.0 136.0 213.0 141.0 215.0 152.0C191.0 187.0 142.0 243.0 142.0 243.0ZM146.0 460.0 -7.0 473.0V154.0H114.0V434.0C138.0 438.0 145.0 447.0 146.0 460.0ZM-9.0 442.0 -168.0 457.0V-6.0C-168.0 -177.0 -174.0 -325.0 -216.0 -454.0L-205.0 -462.0C-83.0 -351.0 -47.0 -190.0 -45.0 -6.0V413.0C-19.0 417.0 -11.0 428.0 -9.0 442.0Z"/></g>
<g fill="black" opacity=".8" transform="translate(400 400) scale(0.1 -0.1)"><path d="M0.0 0.0H11.0V-448.0H31.0C77.0 -448.0 133.0 -415.0 134.0 -404.0V-48.0C153.0 -45.0 167.0 -37.0 173.0 -28.0L57.0 63.0ZM645.0 -11.0H250.0V-38.0H645.0ZM144.0 242.0 101.0 164.0 -104.0 166.0 -103.0 137.0 193.0 136.0C206.0 138.0 215.0 141.0 217.0 153.0C191.0 188.0 144.0 242.0 144.0 242.0ZM145.0 461.0 -6.0 474.0V157.0L115.0 156.0V435.0C137.0 439.0 144.0 448.0 145.0 461.0ZM-9.0 441.0 -166.0 456.0V-4.0C-166.0 -174.0 -171.0 -324.0 -210.0 -453.0L-199.0 -463.0C-81.0 -349.0 -47.0 -187.0 -45.0 -4.0V411.0C-19.0 416.0 -11.0 426.0 -9.0 441.0Z"/></g>
<g fill="red" transform="translate(500 400) scale(0.1 -0.1)"><path d="M0.0 0.0H10.0V-415.0H16.0C31.0 -415.0 53.0 -402.0 54.0 -396.0V-39.0C74.0 -35.0 91.0 -28.0 98.0 -20.0L30.0 33.0ZM607.0 -102.0H251.0V-132.0H607.0ZM645.0 139.0 612.0 98.0H168.0V68.0H679.0C693.0 68.0 701.0 73.0 704.0 84.0C681.0 109.0 645.0 139.0 645.0 139.0ZM96.0 468.0 15.0 478.0V178.0H59.0V442.0C83.0 445.0 94.0 454.0 96.0 468.0ZM-80.0 459.0 -159.0 468.0V-24.0C-159.0 -188.0 -171.0 -303.0 -225.0 -410.0L-207.0 -420.0C-134.0 -309.0 -116.0 -186.0 -115.0 -24.0V432.0C-90.0 435.0 -83.0 445.0 -80.0 459.0Z"/></g>
<g fill="black" opacity=".8" transform="translate(500 400) scale(0.1 -0.1)"><path d="M0.0 0.0H11.0V-415.0H16.0C32.0 -415.0 54.0 -404.0 55.0 -396.0V-39.0C74.0 -35.0 91.0 -28.0 98.0 -20.0L30.0 32.0ZM605.0 -98.0H252.0L250.0 -129.0H605.0ZM646.0 137.0 614.0 96.0 175.0 97.0 176.0 67.0 682.0 66.0C698.0 65.0 704.0 71.0 708.0 82.0C685.0 106.0 646.0 137.0 646.0 137.0ZM98.0 467.0 17.0 478.0 18.0 179.0H61.0V443.0C84.0 445.0 96.0 453.0 98.0 467.0ZM-79.0 458.0 -158.0 468.0V-27.0C-158.0 -191.0 -169.0 -302.0 -221.0 -409.0L-206.0 -416.0C-132.0 -308.0 -114.0 -188.0 -113.0 -28.0V431.0C-87.0 434.0 -81.0 444.0 -79.0 458.0Z"/></g>
<g fill="red" transform="translate(600 400) scale(0.1 -0.1)"><path d="M0.0 0.0H10.0V-438.0H29.0C71.0 -438.0 124.0 -407.0 125.0 -397.0V-48.0C145.0 -43.0 159.0 -35.0 166.0 -27.0L55.0 59.0ZM644.0 -125.0H317.0V-153.0H644.0ZM661.0 111.0 622.0 62.0H250.0V34.0H707.0C720.0 34.0 729.0 39.0 732.0 50.0C705.0 76.0 661.0 111.0 661.0 111.0ZM152.0 463.0 2.0 476.0V148.0H119.0V437.0C143.0 441.0 150.0 450.0 152.0 463.0ZM-13.0 452.0 -168.0 467.0V4.0C-168.0 -168.0 -176.0 -316.0 -223.0 -444.0L-212.0 -452.0C-88.0 -341.0 -51.0 -181.0 -49.0 4.0V424.0C-24.0 428.0 -16.0 438.0 -13.0 452.0Z"/></g>
<g fill="black" opacity=".8" transform="translate(600 400) scale(0.1 -0.1)"><path d="M0.0 0.0H11.0V-439.0H29.0C71.0 -439.0 122.0 -409.0 124.0 -400.0V-47.0C144.0 -43.0 157.0 -36.0 165.0 -27.0L54.0 58.0ZM644.0 -123.0H312.0L313.0 -150.0H644.0ZM656.0 112.0 615.0 60.0 247.0 63.0 250.0 34.0 706.0 33.0C719.0 34.0 728.0 37.0 729.0 49.0C701.0 76.0 656.0 112.0 656.0 112.0ZM151.0 464.0 2.0 478.0V151.0L118.0 147.0V438.0C142.0 441.0 148.0 451.0 151.0 464.0ZM-16.0 455.0 -169.0 471.0V2.0C-169.0 -170.0 -178.0 -317.0 -226.0 -443.0L-217.0 -452.0C-91.0 -341.0 -54.0 -183.0 -51.0 2.0V426.0C-26.0 431.0 -18.0 441.0 -16.0 455.0Z"/></g>
<g fill="red" transform="translate(700 400) scale(0.1 -0.1)"><path d="M0.0 0.0H10.0V-253.0H16.0C31.0 -253.0 53.0 -241.0 54.0 -235.0V-39.0C73.0 -35.0 91.0 -28.0 98.0 -20.0L30.0 33.0ZM34.0 -191.0H-307.0L-298.0 -221.0H34.0ZM96.0 -55.0 66.0 -94.0H-347.0L-339.0 -124.0H131.0C145.0 -124.0 153.0 -119.0 155.0 -108.0C133.0 -84.0 96.0 -55.0 96.0 -55.0ZM-460.0 194.0 -541.0 204.0V-100.0H-497.0V168.0C-473.0 171.0 -462.0 180.0 -460.0 194.0ZM-620.0 181.0 -699.0 190.0V-302.0C-699.0 -466.0 -711.0 -581.0 -765.0 -688.0L-747.0 -698.0C-674.0 -587.0 -656.0 -464.0 -655.0 -302.0V154.0C-630.0 157.0 -623.0 167.0 -620.0 181.0Z"/></g>
<g fill="black" opacity=".8" transform="translate(700 400) scale(0.1 -0.1)"><path d="M0.0 0.0H11.0V-254.0H16.0C32.0 -254.0 53.0 -242.0 55.0 -235.0V-38.0C72.0 -35.0 90.0 -28.0 97.0 -20.0L30.0 32.0ZM33.0 -191.0H-308.0L-301.0 -221.0H33.0ZM94.0 -55.0 65.0 -93.0H-350.0L-342.0 -123.0H131.0C145.0 -124.0 151.0 -119.0 154.0 -108.0C132.0 -84.0 94.0 -55.0 94.0 -55.0ZM-462.0 194.0 -543.0 204.0 -542.0 -100.0 -499.0 -99.0V168.0C-476.0 172.0 -464.0 179.0 -462.0 194.0ZM-622.0 180.0 -701.0 190.0V-300.0C-701.0 -466.0 -712.0 -581.0 -766.0 -690.0L-749.0 -697.0C-676.0 -587.0 -658.0 -463.0 -657.0 -301.0V154.0C-630.0 157.0 -624.0 167.0 -622.0 180.0Z"/></g>
<g fill="red" transform="translate(800 400) scale(0.1 -0.1)"><path d="M0.0 0.0H8.0V-253.0H27.0C61.0 -253.0 115.0 -233.0 116.0 -225.0V-37.0C129.0 -35.0 139.0 -29.0 143.0 -23.0L47.0 48.0ZM78.0 -199.0H-244.0L-235.0 -227.0H78.0ZM137.0 -42.0 102.0 -101.0H-270.0L-262.0 -129.0H176.0C189.0 -129.0 198.0 -124.0 200.0 -113.0C179.0 -84.0 137.0 -42.0 137.0 -42.0ZM-422.0 186.0 -560.0 198.0V-135.0H-455.0V160.0C-431.0 164.0 -424.0 173.0 -422.0 186.0ZM-573.0 156.0 -726.0 171.0V-290.0C-726.0 -460.0 -732.0 -608.0 -774.0 -736.0L-763.0 -744.0C-645.0 -632.0 -610.0 -472.0 -609.0 -290.0V128.0C-583.0 132.0 -575.0 142.0 -573.0 156.0Z"/></g>
<g fill="black" opacity=".8" transform="translate(800 400) scale(0.1 -0.1)"><path d="M0.0 0.0H9.0V-253.0H27.0C62.0 -253.0 114.0 -233.0 115.0 -226.0V-37.0C128.0 -35.0 139.0 -30.0 142.0 -23.0L46.0 47.0ZM78.0 -200.0H-242.0L-232.0 -227.0H78.0ZM138.0 -43.0 104.0 -101.0 -270.0 -99.0 -261.0 -129.0H178.0C191.0 -128.0 200.0 -124.0 201.0 -112.0C180.0 -84.0 138.0 -43.0 138.0 -43.0ZM-423.0 187.0 -560.0 199.0 -559.0 -133.0 -454.0 -134.0V161.0C-432.0 165.0 -425.0 174.0 -423.0 187.0ZM-573.0 155.0 -725.0 170.0V-288.0C-725.0 -457.0 -730.0 -608.0 -769.0 -736.0L-759.0 -744.0C-644.0 -631.0 -610.0 -469.0 -608.0 -288.0V127.0C-582.0 131.0 -575.0 141.0 -573.0 155.0Z"/></g>
<g fill="red" transform="translate(900 400) scale(0.1 -0.1)"><path d="M0.0 0.0H8.0V-315.0H14.0C29.0 -315.0 51.0 -303.0 52.0 -297.0V-33.0C67.0 -32.0 81.0 -25.0 86.0 -18.0L27.0 29.0ZM24.0 -86.0H-354.0V-116.0H24.0ZM39.0 341.0 3.0 296.0H-410.0L-402.0 266.0H83.0C95.0 266.0 105.0 271.0 107.0 282.0C81.0 308.0 39.0 341.0 39.0 341.0ZM-114.0 459.0 -191.0 468.0V279.0H-147.0V435.0C-126.0 437.0 -116.0 446.0 -114.0 459.0ZM-641.0 450.0 -720.0 459.0V-67.0C-720.0 -230.0 -729.0 -330.0 -774.0 -432.0L-755.0 -441.0C-693.0 -334.0 -677.0 -227.0 -676.0 -66.0V423.0C-651.0 426.0 -644.0 436.0 -641.0 450.0Z"/></g>
<g fill="black" opacity=".8" transform="translate(900 400) scale(0.1 -0.1)"><path d="M0.0 0.0H8.0V-313.0H14.0C30.0 -313.0 52.0 -301.0 53.0 -295.0V-33.0C67.0 -32.0 81.0 -25.0 87.0 -19.0L27.0 28.0ZM22.0 -86.0H-352.0L-353.0 -116.0H22.0ZM40.0 342.0 5.0 296.0H-408.0L-401.0 265.0L84.0 266.0C97.0 265.0 105.0 271.0 108.0 282.0C82.0 308.0 40.0 342.0 40.0 342.0ZM-113.0 459.0 -189.0 468.0V276.0L-145.0 277.0V435.0C-125.0 437.0 -115.0 446.0 -113.0 459.0ZM-640.0 450.0 -718.0 460.0V-69.0C-718.0 -232.0 -728.0 -331.0 -773.0 -432.0L-755.0 -440.0C-692.0 -334.0 -676.0 -229.0 -675.0 -68.0V423.0C-649.0 426.0 -642.0 437.0 -640.0 450.0Z"/></g>
<g fill="red" transform="translate(1000 400) scale(0.1 -0.1)"><path d="M0.0 0.0H7.0V-307.0H31.0C73.0 -307.0 138.0 -282.0 138.0 -274.0V-34.0C148.0 -32.0 153.0 -28.0 156.0 -24.0L53.0 52.0ZM64.0 -83.0H-268.0V-111.0H64.0ZM84.0 370.0 28.0 300.0H-372.0L-364.0 272.0H161.0C175.0 272.0 185.0 277.0 188.0 288.0C148.0 322.0 84.0 370.0 84.0 370.0ZM-5.0 467.0 -167.0 480.0V284.0H-36.0V442.0C-13.0 446.0 -6.0 455.0 -5.0 467.0ZM-552.0 435.0 -711.0 450.0V-13.0C-711.0 -184.0 -717.0 -332.0 -759.0 -461.0L-748.0 -469.0C-626.0 -358.0 -590.0 -197.0 -588.0 -13.0V406.0C-562.0 410.0 -554.0 421.0 -552.0 435.0Z"/></g>
<g fill="black" opacity=".8" transform="translate(1000 400) scale(0.1 -0.1)"><path d="M0.0 0.0H8.0V-306.0H31.0C73.0 -306.0 138.0 -281.0 139.0 -274.0V-34.0C149.0 -32.0 154.0 -29.0 157.0 -24.0L53.0 53.0ZM65.0 -83.0H-271.0L-270.0 -110.0H65.0ZM82.0 370.0 26.0 298.0 -372.0 299.0 -364.0 270.0 160.0 271.0C174.0 272.0 184.0 276.0 186.0 288.0C146.0 323.0 82.0 370.0 82.0 370.0ZM-5.0 467.0 -168.0 480.0 -167.0 283.0 -35.0 282.0V443.0C-12.0 445.0 -5.0 455.0 -5.0 467.0ZM-552.0 437.0 -713.0 452.0V-13.0C-713.0 -185.0 -719.0 -333.0 -764.0 -461.0L-754.0 -470.0C-627.0 -360.0 -591.0 -199.0 -588.0 -13.0V407.0C-562.0 411.0 -554.0 422.0 -552.0 437.0Z"/></g>
</svg>
