<?xml version="1.0" encoding="UTF-8"?>
<svg width="1700" height="300" xmlns="http://www.w3.org/2000/svg">
<rect width="100%" height="100%" fill="white"/>
<g fill="green" transform="translate(100 100) scale(0.1 -0.1)"><path d="M-0.0 0.0V-396.0C0.0 -577.0 -17.0 -733.0 -136.0 -846.0L-120.0 -858.0C29.0 -746.0 44.0 -572.0 44.0 -395.0V-10.0H54.0L0.0 18.0ZM360.0 -10.0H316.0V-748.0C316.0 -803.0 341.0 -821.0 426.0 -821.0L564.0 -822.0C755.0 -822.0 793.0 -816.0 793.0 -789.0C793.0 -778.0 786.0 -774.0 765.0 -768.0L762.0 -658.0H749.0C739.0 -709.0 728.0 -754.0 722.0 -766.0C717.0 -772.0 712.0 -775.0 699.0 -777.0C681.0 -778.0 632.0 -779.0 564.0 -779.0H428.0C369.0 -779.0 360.0 -768.0 360.0 -739.0V-45.0C360.0 -36.0 360.0 -26.0 360.0 -10.0ZM651.0 -431.0H22.0V-461.0H651.0ZM655.0 -220.0H22.0V-250.0H655.0ZM622.0 -10.0H633.0V-583.0C633.0 -600.0 627.0 -607.0 606.0 -607.0C584.0 -607.0 469.0 -597.0 469.0 -597.0V-614.0C517.0 -620.0 546.0 -627.0 562.0 -635.0C577.0 -643.0 583.0 -656.0 586.0 -670.0C668.0 -661.0 677.0 -632.0 677.0 -590.0V-52.0C699.0 -48.0 718.0 -40.0 726.0 -31.0L650.0 25.0ZM654.0 -10.0H21.0V-40.0H654.0Z"/></g>
<g fill="green" transform="translate(200 100) scale(0.1 -0.1)"><path d="M0.0 0.0V-362.0C0.0 -552.0 -9.0 -734.0 -122.0 -876.0L-114.0 -882.0C130.0 -751.0 143.0 -550.0 143.0 -361.0V-10.0H164.0L0.0 45.0ZM430.0 -10.0H286.0V-714.0C286.0 -822.0 332.0 -845.0 459.0 -845.0H573.0C780.0 -845.0 834.0 -822.0 834.0 -758.0C834.0 -732.0 821.0 -713.0 776.0 -697.0L771.0 -592.0H762.0C740.0 -642.0 720.0 -681.0 705.0 -696.0C694.0 -704.0 680.0 -708.0 665.0 -708.0C647.0 -710.0 618.0 -710.0 587.0 -710.0H482.0C444.0 -710.0 430.0 -702.0 430.0 -675.0V-54.0C430.0 -43.0 430.0 -24.0 430.0 -10.0ZM658.0 -413.0H92.0V-441.0H658.0ZM658.0 -207.0H92.0V-235.0H658.0ZM567.0 -10.0H578.0V-521.0C578.0 -534.0 574.0 -541.0 559.0 -541.0C539.0 -541.0 452.0 -536.0 452.0 -536.0V-548.0C500.0 -557.0 517.0 -572.0 531.0 -592.0C545.0 -612.0 549.0 -645.0 552.0 -689.0C702.0 -677.0 723.0 -627.0 723.0 -536.0V-64.0C746.0 -59.0 759.0 -49.0 767.0 -40.0L632.0 64.0ZM658.0 -10.0H92.0V-38.0H658.0Z"/></g>
<g fill="green" transform="translate(300 100) scale(0.1 -0.1)"><path d="M0.0 0.0V-239.0C0.0 -339.0 -9.0 -420.0 -72.0 -477.0L-64.0 -482.0C13.0 -426.0 21.0 -337.0 21.0 -239.0V-5.0H26.0L0.0 9.0ZM203.0 -55.0 187.0 -57.0V-518.0C187.0 -547.0 201.0 -557.0 243.0 -557.0L311.0 -558.0C405.0 -558.0 425.0 -555.0 425.0 -541.0C425.0 -536.0 421.0 -534.0 411.0 -531.0L410.0 -472.0H403.0C398.0 -500.0 392.0 -524.0 389.0 -530.0C387.0 -532.0 384.0 -534.0 378.0 -536.0C369.0 -536.0 345.0 -537.0 311.0 -537.0H244.0C213.0 -537.0 208.0 -530.0 208.0 -513.0V-74.0C205.0 -69.0 203.0 -64.0 203.0 -55.0ZM317.0 -239.0H13.0V-253.0H317.0ZM319.0 -121.0H13.0V-136.0H319.0ZM305.0 -5.0H310.0V-316.0C310.0 -325.0 307.0 -328.0 297.0 -328.0C286.0 -328.0 230.0 -323.0 230.0 -323.0V-331.0C253.0 -334.0 267.0 -338.0 275.0 -341.0C283.0 -345.0 286.0 -351.0 287.0 -358.0C327.0 -354.0 331.0 -340.0 331.0 -319.0V-26.0C343.0 -24.0 352.0 -20.0 356.0 -15.0L319.0 13.0ZM304.0 -69.0H23.0V-83.0H304.0Z"/></g>
<g fill="green" transform="translate(400 100) scale(0.1 -0.1)"><path d="M0.0 0.0V-217.0C0.0 -323.0 -5.0 -419.0 -64.0 -494.0L-60.0 -496.0C64.0 -426.0 68.0 -322.0 68.0 -216.0V-5.0H78.0L0.0 21.0ZM231.0 -59.0 165.0 -61.0V-501.0C165.0 -558.0 192.0 -570.0 256.0 -570.0H313.0C419.0 -570.0 446.0 -558.0 446.0 -525.0C446.0 -512.0 439.0 -502.0 416.0 -494.0L413.0 -438.0H409.0C398.0 -464.0 387.0 -485.0 379.0 -493.0C373.0 -497.0 365.0 -499.0 358.0 -499.0C348.0 -500.0 334.0 -500.0 319.0 -500.0H266.0C245.0 -500.0 236.0 -496.0 236.0 -480.0V-84.0C233.0 -77.0 231.0 -66.0 231.0 -59.0ZM319.0 -230.0H46.0V-244.0H319.0ZM319.0 -115.0H46.0V-128.0H319.0ZM274.0 -5.0H280.0V-287.0C280.0 -294.0 278.0 -297.0 270.0 -297.0C261.0 -297.0 216.0 -295.0 216.0 -295.0V-300.0C240.0 -305.0 249.0 -312.0 256.0 -322.0C263.0 -332.0 265.0 -348.0 267.0 -369.0C339.0 -363.0 350.0 -339.0 350.0 -295.0V-32.0C362.0 -30.0 369.0 -24.0 373.0 -19.0L307.0 32.0ZM310.0 -74.0H63.0V-87.0H310.0Z"/></g>
<g fill="green" transform="translate(500 100) scale(0.1 -0.1)"><path d="M-0.0 0.0V-284.0C0.0 -476.0 -19.0 -670.0 -162.0 -826.0L-140.0 -847.0C50.0 -692.0 67.0 -464.0 67.0 -282.0V-15.0H82.0L0.0 27.0ZM352.0 305.0 252.0 317.0V-121.0C252.0 -185.0 276.0 -204.0 395.0 -204.0H596.0C867.0 -204.0 912.0 -194.0 912.0 -158.0C912.0 -142.0 903.0 -137.0 872.0 -129.0L868.0 0.0H849.0C837.0 -56.0 825.0 -109.0 815.0 -126.0C808.0 -137.0 802.0 -138.0 783.0 -139.0C759.0 -141.0 687.0 -142.0 595.0 -142.0H400.0C327.0 -142.0 319.0 -135.0 319.0 -111.0V266.0C339.0 273.0 351.0 287.0 352.0 305.0ZM952.0 -447.0H18.0V-493.0H952.0ZM955.0 -231.0H19.0V-276.0H955.0ZM897.0 -15.0H912.0V-648.0C912.0 -671.0 904.0 -681.0 873.0 -681.0C841.0 -681.0 676.0 -668.0 676.0 -668.0V-693.0C746.0 -701.0 788.0 -711.0 811.0 -725.0C832.0 -737.0 840.0 -756.0 845.0 -777.0C966.0 -764.0 979.0 -721.0 979.0 -659.0V-72.0C1006.0 -67.0 1032.0 -56.0 1042.0 -45.0L936.0 33.0ZM1044.0 391.0H-49.0V345.0H1044.0Z"/></g>
<g fill="green" transform="translate(600 100) scale(0.1 -0.1)"><path d="M0.0 0.0V-271.0C0.0 -462.0 -11.0 -683.0 -150.0 -855.0L-140.0 -866.0C187.0 -717.0 217.0 -458.0 217.0 -271.0V-15.0H249.0L0.0 69.0ZM492.0 327.0 256.0 341.0V-71.0C256.0 -200.0 295.0 -231.0 466.0 -231.0H624.0C889.0 -231.0 964.0 -203.0 964.0 -121.0C964.0 -86.0 950.0 -64.0 893.0 -42.0L888.0 84.0H873.0C844.0 21.0 819.0 -23.0 802.0 -42.0C790.0 -53.0 776.0 -57.0 755.0 -57.0C734.0 -59.0 691.0 -59.0 647.0 -59.0H508.0C465.0 -59.0 457.0 -52.0 457.0 -30.0V284.0C479.0 290.0 490.0 307.0 492.0 327.0ZM972.0 -418.0H127.0V-460.0H972.0ZM972.0 -213.0H127.0V-256.0H972.0ZM840.0 -15.0H854.0V-549.0C854.0 -566.0 849.0 -577.0 828.0 -577.0C799.0 -577.0 684.0 -570.0 684.0 -570.0V-589.0C750.0 -602.0 773.0 -624.0 792.0 -652.0C812.0 -681.0 817.0 -729.0 820.0 -794.0C1042.0 -776.0 1071.0 -704.0 1071.0 -569.0V-86.0C1098.0 -80.0 1114.0 -69.0 1123.0 -59.0L930.0 86.0ZM1029.0 421.0H20.0V378.0H1029.0Z"/></g>
<g fill="red" transform="translate(100 200) scale(0.1 -0.1)"><path d="M0.0 0.0V-396.0C0.0 -577.0 -17.0 -733.0 -136.0 -846.0L-120.0 -858.0C29.0 -746.0 44.0 -572.0 44.0 -395.0V-10.0H54.0L0.0 18.0ZM360.0 -10.0H316.0V-748.0C316.0 -803.0 341.0 -821.0 426.0 -821.0L564.0 -822.0C755.0 -822.0 793.0 -816.0 793.0 -789.0C793.0 -778.0 786.0 -774.0 765.0 -768.0L762.0 -658.0H749.0C739.0 -709.0 728.0 -754.0 722.0 -766.0C717.0 -772.0 712.0 -775.0 699.0 -777.0C681.0 -778.0 632.0 -779.0 564.0 -779.0H428.0C369.0 -779.0 360.0 -768.0 360.0 -739.0V-45.0C360.0 -36.0 360.0 -26.0 360.0 -10.0ZM651.0 -431.0H22.0V-461.0H651.0ZM655.0 -220.0H22.0V-250.0H655.0ZM622.0 -10.0H633.0V-583.0C633.0 -600.0 627.0 -607.0 606.0 -607.0C584.0 -607.0 469.0 -597.0 469.0 -597.0V-614.0C517.0 -620.0 546.0 -627.0 562.0 -635.0C577.0 -643.0 583.0 -656.0 586.0 -670.0C668.0 -661.0 677.0 -632.0 677.0 -590.0V-52.0C699.0 -48.0 718.0 -40.0 726.0 -31.0L650.0 25.0ZM654.0 -10.0H21.0V-40.0H654.0Z"/></g>
<g fill="black" opacity=".8" transform="translate(100 200) scale(0.1 -0.1)"><path d="M0.0 0.0V-396.0C0.0 -577.0 -17.0 -733.0 -136.0 -846.0L-120.0 -858.0C29.0 -746.0 44.0 -572.0 44.0 -395.0V-10.0H54.0L0.0 18.0ZM360.0 -10.0H316.0V-748.0C316.0 -803.0 341.0 -821.0 426.0 -821.0L564.0 -822.0C755.0 -822.0 793.0 -816.0 793.0 -789.0C793.0 -778.0 786.0 -774.0 765.0 -768.0L762.0 -658.0H749.0C739.0 -709.0 728.0 -754.0 722.0 -766.0C717.0 -772.0 712.0 -775.0 699.0 -777.0C681.0 -778.0 632.0 -779.0 564.0 -779.0H428.0C369.0 -779.0 360.0 -768.0 360.0 -739.0V-45.0C360.0 -36.0 360.0 -26.0 360.0 -10.0ZM651.0 -431.0H22.0V-461.0H651.0ZM655.0 -220.0H22.0V-250.0H655.0ZM622.0 -10.0H633.0V-583.0C633.0 -600.0 627.0 -607.0 606.0 -607.0C584.0 -607.0 469.0 -597.0 469.0 -597.0V-614.0C517.0 -620.0 546.0 -627.0 562.0 -635.0C577.0 -643.0 583.0 -656.0 586.0 -670.0C668.0 -661.0 677.0 -632.0 677.0 -590.0V-52.0C699.0 -48.0 718.0 -40.0 726.0 -31.0L650.0 25.0ZM654.0 -10.0H21.0V-40.0H654.0Z"/></g>
<g fill="red" transform="translate(200 200) scale(0.1 -0.1)"><path d="M0.0 0.0V-362.0C0.0 -552.0 -9.0 -734.0 -122.0 -876.0L-114.0 -882.0C130.0 -751.0 143.0 -550.0 143.0 -361.0V-10.0H164.0L0.0 45.0ZM430.0 -10.0H286.0V-714.0C286.0 -822.0 332.0 -845.0 459.0 -845.0H573.0C780.0 -845.0 834.0 -822.0 834.0 -758.0C834.0 -732.0 821.0 -713.0 776.0 -697.0L771.0 -592.0H762.0C740.0 -642.0 720.0 -681.0 705.0 -696.0C694.0 -704.0 680.0 -708.0 665.0 -708.0C647.0 -710.0 618.0 -710.0 587.0 -710.0H482.0C444.0 -710.0 430.0 -702.0 430.0 -675.0V-54.0C430.0 -43.0 430.0 -24.0 430.0 -10.0ZM658.0 -413.0H92.0V-441.0H658.0ZM658.0 -207.0H92.0V-235.0H658.0ZM567.0 -10.0H578.0V-521.0C578.0 -534.0 574.0 -541.0 559.0 -541.0C539.0 -541.0 452.0 -536.0 452.0 -536.0V-548.0C500.0 -557.0 517.0 -572.0 531.0 -592.0C545.0 -612.0 549.0 -645.0 552.0 -689.0C702.0 -677.0 723.0 -627.0 723.0 -536.0V-64.0C746.0 -59.0 759.0 -49.0 767.0 -40.0L632.0 64.0ZM658.0 -10.0H92.0V-38.0H658.0Z"/></g>
<g fill="black" opacity=".8" transform="translate(200 200) scale(0.1 -0.1)"><path d="M0.0 0.0V-362.0C0.0 -552.0 -9.0 -734.0 -122.0 -876.0L-114.0 -882.0C130.0 -751.0 143.0 -550.0 143.0 -361.0V-10.0H164.0L0.0 45.0ZM430.0 -10.0H286.0V-714.0C286.0 -822.0 332.0 -845.0 459.0 -845.0H573.0C780.0 -845.0 834.0 -822.0 834.0 -758.0C834.0 -732.0 821.0 -713.0 776.0 -697.0L771.0 -592.0H762.0C740.0 -642.0 720.0 -681.0 705.0 -696.0C694.0 -704.0 680.0 -708.0 665.0 -708.0C647.0 -710.0 618.0 -710.0 587.0 -710.0H482.0C444.0 -710.0 430.0 -702.0 430.0 -675.0V-54.0C430.0 -43.0 430.0 -24.0 430.0 -10.0ZM658.0 -413.0H92.0V-441.0H658.0ZM658.0 -207.0H92.0V-235.0H658.0ZM567.0 -10.0H578.0V-521.0C578.0 -534.0 574.0 -541.0 559.0 -541.0C539.0 -541.0 452.0 -536.0 452.0 -536.0V-548.0C500.0 -557.0 517.0 -572.0 531.0 -592.0C545.0 -612.0 549.0 -645.0 552.0 -689.0C702.0 -677.0 723.0 -627.0 723.0 -536.0V-64.0C746.0 -59.0 759.0 -49.0 767.0 -40.0L632.0 64.0ZM658.0 -10.0H92.0V-38.0H658.0Z"/></g>
<g fill="red" transform="translate(300 200) scale(0.1 -0.1)"><path d="M0.0 0.0V-127.0C0.0 -238.0 -11.0 -357.0 -98.0 -457.0L-84.0 -471.0C34.0 -372.0 44.0 -229.0 44.0 -126.0V-10.0H54.0L0.0 18.0ZM195.0 260.0 123.0 270.0V109.0C123.0 71.0 136.0 60.0 212.0 60.0H343.0C517.0 60.0 544.0 67.0 544.0 90.0C544.0 100.0 538.0 103.0 518.0 108.0L516.0 186.0H503.0C496.0 153.0 489.0 121.0 482.0 110.0C478.0 103.0 474.0 103.0 462.0 102.0C447.0 101.0 400.0 100.0 342.0 100.0H216.0C171.0 100.0 167.0 103.0 167.0 115.0V237.0C184.0 240.0 194.0 249.0 195.0 260.0ZM618.0 -255.0H9.0V-285.0H618.0ZM619.0 -132.0H10.0V-162.0H619.0ZM580.0 -10.0H589.0V-381.0C589.0 -396.0 584.0 -402.0 564.0 -402.0C543.0 -402.0 437.0 -394.0 437.0 -394.0V-410.0C482.0 -415.0 509.0 -422.0 524.0 -431.0C538.0 -439.0 543.0 -451.0 546.0 -465.0C625.0 -457.0 633.0 -429.0 633.0 -388.0V-46.0C650.0 -43.0 666.0 -36.0 672.0 -29.0L605.0 21.0ZM694.0 332.0H-47.0V302.0H694.0Z"/></g>
<g fill="black" opacity=".8" transform="translate(300 200) scale(0.1 -0.1)"><path d="M0.0 0.0V-127.0C0.0 -238.0 -11.0 -357.0 -98.0 -457.0L-84.0 -471.0C34.0 -372.0 44.0 -229.0 44.0 -126.0V-10.0H54.0L0.0 18.0ZM195.0 260.0 123.0 270.0V109.0C123.0 71.0 136.0 60.0 212.0 60.0H343.0C517.0 60.0 544.0 67.0 544.0 90.0C544.0 100.0 538.0 103.0 518.0 108.0L516.0 186.0H503.0C496.0 153.0 489.0 121.0 482.0 110.0C478.0 103.0 474.0 103.0 462.0 102.0C447.0 101.0 400.0 100.0 342.0 100.0H216.0C171.0 100.0 167.0 103.0 167.0 115.0V237.0C184.0 240.0 194.0 249.0 195.0 260.0ZM618.0 -255.0H9.0V-285.0H618.0ZM619.0 -132.0H10.0V-162.0H619.0ZM580.0 -10.0H589.0V-381.0C589.0 -396.0 584.0 -402.0 564.0 -402.0C543.0 -402.0 437.0 -394.0 437.0 -394.0V-410.0C482.0 -415.0 509.0 -422.0 524.0 -431.0C538.0 -439.0 543.0 -451.0 546.0 -465.0C625.0 -457.0 633.0 -429.0 633.0 -388.0V-46.0C650.0 -43.0 666.0 -36.0 672.0 -29.0L605.0 21.0ZM694.0 332.0H-47.0V302.0H694.0Z"/></g>
<g fill="red" transform="translate(400 200) scale(0.1 -0.1)"><path d="M0.0 0.0V-126.0C0.0 -233.0 -7.0 -368.0 -92.0 -473.0L-86.0 -480.0C121.0 -392.0 142.0 -230.0 142.0 -126.0V-10.0H163.0L0.0 45.0ZM293.0 278.0 135.0 290.0V142.0C135.0 64.0 155.0 44.0 263.0 44.0H364.0C528.0 44.0 576.0 61.0 576.0 112.0C576.0 134.0 568.0 147.0 533.0 161.0L530.0 238.0H520.0C502.0 199.0 486.0 173.0 476.0 161.0C469.0 154.0 461.0 152.0 448.0 152.0C435.0 151.0 407.0 151.0 379.0 151.0H292.0C266.0 151.0 263.0 154.0 263.0 165.0V254.0C282.0 256.0 291.0 265.0 293.0 278.0ZM633.0 -235.0H81.0V-263.0H633.0ZM633.0 -121.0H81.0V-149.0H633.0ZM547.0 -10.0H556.0V-315.0C556.0 -326.0 553.0 -333.0 539.0 -333.0C521.0 -333.0 448.0 -329.0 448.0 -329.0V-341.0C490.0 -350.0 505.0 -364.0 517.0 -382.0C530.0 -401.0 533.0 -432.0 535.0 -474.0C679.0 -462.0 698.0 -416.0 698.0 -328.0V-54.0C714.0 -51.0 724.0 -44.0 729.0 -38.0L605.0 54.0ZM681.0 357.0H-9.0V329.0H681.0Z"/></g>
<g fill="black" opacity=".8" transform="translate(400 200) scale(0.1 -0.1)"><path d="M0.0 0.0V-126.0C0.0 -233.0 -7.0 -368.0 -92.0 -473.0L-86.0 -480.0C121.0 -392.0 142.0 -230.0 142.0 -126.0V-10.0H163.0L0.0 45.0ZM293.0 278.0 135.0 290.0V142.0C135.0 64.0 155.0 44.0 263.0 44.0H364.0C528.0 44.0 576.0 61.0 576.0 112.0C576.0 134.0 568.0 147.0 533.0 161.0L530.0 238.0H520.0C502.0 199.0 486.0 173.0 476.0 161.0C469.0 154.0 461.0 152.0 448.0 152.0C435.0 151.0 407.0 151.0 379.0 151.0H292.0C266.0 151.0 263.0 154.0 263.0 165.0V254.0C282.0 256.0 291.0 265.0 293.0 278.0ZM633.0 -235.0H81.0V-263.0H633.0ZM633.0 -121.0H81.0V-149.0H633.0ZM547.0 -10.0H556.0V-315.0C556.0 -326.0 553.0 -333.0 539.0 -333.0C521.0 -333.0 448.0 -329.0 448.0 -329.0V-341.0C490.0 -350.0 505.0 -364.0 517.0 -382.0C530.0 -401.0 533.0 -432.0 535.0 -474.0C679.0 -462.0 698.0 -416.0 698.0 -328.0V-54.0C714.0 -51.0 724.0 -44.0 729.0 -38.0L605.0 54.0ZM681.0 357.0H-9.0V329.0H681.0Z"/></g>
</svg>
