<?xml version="1.0" encoding="UTF-8"?>
<svg width="1700" height="400" xmlns="http://www.w3.org/2000/svg">
<rect width="100%" height="100%" fill="white"/>
<g fill="green" transform="translate(100 100) scale(0.1 -0.1)"><path d="M-0.0 -0.0V271.0H-59.0V-21.0H-51.0C-20.0 -21.0 0.0 -5.0 0.0 0.0ZM-189.0 170.0 -276.0 222.0C-344.0 155.0 -487.0 73.0 -607.0 27.0L-593.0 8.0C-461.0 40.0 -315.0 104.0 -238.0 162.0C-210.0 154.0 -199.0 157.0 -189.0 170.0ZM143.0 209.0 133.0 190.0C245.0 155.0 405.0 74.0 470.0 8.0C560.0 -11.0 541.0 158.0 143.0 209.0ZM277.0 546.0 230.0 490.0H-417.0L-407.0 450.0H335.0C353.0 450.0 365.0 457.0 369.0 471.0C333.0 506.0 277.0 546.0 277.0 546.0ZM181.0 1006.0 137.0 951.0H-202.0L-192.0 911.0H231.0C250.0 911.0 261.0 918.0 264.0 933.0C232.0 965.0 181.0 1006.0 181.0 1006.0Z"/></g>
<g fill="green" transform="translate(200 100) scale(0.1 -0.1)"><path d="M0.0 0.0V271.0H-193.0V-30.0H-157.0C-59.0 -30.0 -1.0 -5.0 0.0 0.0ZM-213.0 135.0 -401.0 262.0C-464.0 174.0 -597.0 62.0 -731.0 -4.0L-721.0 -20.0C-547.0 -1.0 -373.0 54.0 -265.0 122.0C-234.0 116.0 -221.0 123.0 -213.0 135.0ZM45.0 216.0 37.0 205.0C136.0 152.0 274.0 52.0 352.0 -30.0C548.0 -61.0 557.0 288.0 45.0 216.0ZM218.0 588.0 132.0 483.0H-511.0L-501.0 446.0H338.0C356.0 446.0 371.0 453.0 375.0 467.0C315.0 517.0 218.0 588.0 218.0 588.0ZM114.0 1071.0 56.0 984.0H-257.0L-246.0 946.0H181.0C198.0 946.0 212.0 953.0 214.0 968.0C179.0 1010.0 114.0 1071.0 114.0 1071.0Z"/></g>
<g fill="green" transform="translate(300 100) scale(0.1 -0.1)"><path d="M-0.0 0.0V103.0H-38.0V-13.0H-33.0C-13.0 -13.0 0.0 -3.0 0.0 0.0ZM-117.0 57.0 -169.0 91.0C-215.0 60.0 -311.0 24.0 -385.0 6.0L-376.0 -6.0C-296.0 2.0 -199.0 27.0 -148.0 53.0C-131.0 47.0 -124.0 49.0 -117.0 57.0ZM83.0 83.0 78.0 70.0C151.0 57.0 255.0 19.0 302.0 -14.0C360.0 -18.0 338.0 81.0 83.0 83.0ZM131.0 336.0 103.0 304.0H-217.0L-212.0 278.0H165.0C176.0 278.0 184.0 283.0 186.0 291.0C165.0 313.0 131.0 336.0 131.0 336.0ZM84.0 699.0 59.0 666.0H-78.0L-72.0 640.0H112.0C124.0 640.0 131.0 645.0 132.0 654.0C114.0 674.0 84.0 699.0 84.0 699.0Z"/></g>
<g fill="green" transform="translate(400 100) scale(0.1 -0.1)"><path d="M0.0 0.0V101.0H-122.0V-16.0H-99.0C-38.0 -16.0 -1.0 -2.0 0.0 0.0ZM-131.0 30.0 -242.0 114.0C-288.0 68.0 -383.0 13.0 -472.0 -17.0L-466.0 -28.0C-356.0 -28.0 -238.0 -9.0 -165.0 23.0C-145.0 19.0 -137.0 22.0 -131.0 30.0ZM23.0 83.0 18.0 75.0C83.0 50.0 181.0 -6.0 239.0 -48.0C363.0 -46.0 341.0 165.0 23.0 83.0ZM113.0 354.0 61.0 293.0H-278.0L-272.0 270.0H184.0C195.0 270.0 204.0 275.0 207.0 283.0C171.0 313.0 113.0 354.0 113.0 354.0ZM59.0 743.0 33.0 697.0H-103.0L-96.0 672.0H83.0C93.0 672.0 102.0 677.0 103.0 686.0C89.0 709.0 59.0 743.0 59.0 743.0Z"/></g>
<g fill="green" transform="translate(500 100) scale(0.1 -0.1)"><path d="M0.0 -0.0V315.0H-73.0V-27.0H-63.0C-25.0 -27.0 0.0 -6.0 0.0 0.0ZM-230.0 192.0 -343.0 259.0C-425.0 174.0 -598.0 72.0 -748.0 17.0L-731.0 -7.0C-565.0 30.0 -385.0 109.0 -291.0 182.0C-256.0 172.0 -242.0 177.0 -230.0 192.0ZM171.0 239.0 159.0 215.0C295.0 178.0 487.0 86.0 565.0 7.0C678.0 -18.0 655.0 196.0 171.0 239.0ZM502.0 490.0 440.0 416.0H-682.0L-668.0 367.0H579.0C602.0 367.0 617.0 375.0 622.0 393.0C575.0 438.0 502.0 490.0 502.0 490.0ZM230.0 782.0 174.0 715.0H-496.0L-483.0 665.0H297.0C319.0 665.0 333.0 674.0 337.0 692.0C296.0 732.0 230.0 782.0 230.0 782.0Z"/></g>
<g fill="green" transform="translate(600 100) scale(0.1 -0.1)"><path d="M0.0 0.0V331.0H-238.0V-38.0H-193.0C-72.0 -38.0 0.0 -6.0 0.0 0.0ZM-265.0 161.0 -502.0 322.0C-576.0 217.0 -732.0 84.0 -889.0 7.0L-877.0 -13.0C-670.0 6.0 -460.0 66.0 -329.0 145.0C-291.0 138.0 -274.0 146.0 -265.0 161.0ZM63.0 266.0 52.0 253.0C167.0 189.0 325.0 68.0 414.0 -32.0C655.0 -80.0 684.0 350.0 63.0 266.0ZM410.0 567.0 302.0 430.0H-798.0L-785.0 384.0H561.0C584.0 384.0 602.0 393.0 608.0 410.0C533.0 475.0 410.0 567.0 410.0 567.0ZM105.0 869.0 18.0 752.0H-600.0L-586.0 705.0H217.0C238.0 705.0 257.0 713.0 260.0 732.0C203.0 788.0 105.0 869.0 105.0 869.0Z"/></g>
<g fill="green" transform="translate(700 100) scale(0.1 -0.1)"><path d="M0.0 0.0V460.0H-49.0V-18.0H-42.0C-17.0 -18.0 0.0 -4.0 0.0 0.0ZM-169.0 321.0 -248.0 362.0C-302.0 275.0 -416.0 159.0 -522.0 84.0L-510.0 70.0C-390.0 132.0 -273.0 234.0 -211.0 312.0C-186.0 306.0 -176.0 310.0 -169.0 321.0ZM144.0 349.0 130.0 336.0C225.0 272.0 360.0 157.0 405.0 76.0C474.0 43.0 482.0 196.0 144.0 349.0ZM293.0 609.0 251.0 557.0H-416.0L-407.0 524.0H347.0C362.0 524.0 371.0 530.0 374.0 541.0C344.0 572.0 293.0 609.0 293.0 609.0ZM46.0 977.0 9.0 929.0H-297.0L-288.0 895.0H91.0C107.0 895.0 116.0 901.0 119.0 914.0C91.0 942.0 46.0 977.0 46.0 977.0Z"/></g>
<g fill="green" transform="translate(800 100) scale(0.1 -0.1)"><path d="M0.0 0.0V444.0H-161.0V-35.0H-131.0C-50.0 -35.0 -2.0 -7.0 0.0 0.0ZM-185.0 284.0 -356.0 378.0C-399.0 273.0 -496.0 124.0 -605.0 30.0L-596.0 17.0C-441.0 76.0 -309.0 179.0 -229.0 269.0C-202.0 266.0 -192.0 273.0 -185.0 284.0ZM47.0 338.0 40.0 330.0C131.0 261.0 233.0 151.0 280.0 52.0C450.0 -24.0 514.0 310.0 47.0 338.0ZM201.0 642.0 124.0 545.0H-479.0L-471.0 514.0H312.0C327.0 514.0 339.0 520.0 343.0 532.0C290.0 577.0 201.0 642.0 201.0 642.0ZM-38.0 1016.0 -95.0 931.0H-321.0L-311.0 899.0H33.0C47.0 899.0 59.0 905.0 61.0 918.0C27.0 957.0 -38.0 1016.0 -38.0 1016.0Z"/></g>
<g fill="green" transform="translate(900 100) scale(0.1 -0.1)"><path d="M-0.0 -0.0V355.0H-49.0V-17.0H-42.0C-16.0 -17.0 0.0 -4.0 0.0 0.0ZM-174.0 235.0 -252.0 274.0C-301.0 193.0 -411.0 91.0 -514.0 29.0L-501.0 13.0C-386.0 66.0 -274.0 154.0 -216.0 225.0C-191.0 220.0 -181.0 224.0 -174.0 235.0ZM151.0 272.0 140.0 259.0C233.0 208.0 364.0 109.0 408.0 34.0C484.0 4.0 483.0 164.0 151.0 272.0ZM254.0 574.0 211.0 524.0H-379.0L-370.0 490.0H307.0C323.0 490.0 332.0 496.0 336.0 508.0C303.0 538.0 254.0 574.0 254.0 574.0ZM361.0 960.0 317.0 906.0H-161.0L-152.0 872.0H413.0C429.0 872.0 439.0 878.0 442.0 891.0C410.0 921.0 361.0 960.0 361.0 960.0Z"/></g>
<g fill="green" transform="translate(1000 100) scale(0.1 -0.1)"><path d="M0.0 0.0V361.0H-165.0V-27.0H-135.0C-49.0 -27.0 -1.0 -5.0 0.0 0.0ZM-191.0 209.0 -367.0 309.0C-408.0 215.0 -504.0 91.0 -613.0 15.0L-605.0 4.0C-452.0 38.0 -317.0 114.0 -234.0 195.0C-207.0 191.0 -197.0 198.0 -191.0 209.0ZM55.0 281.0 48.0 272.0C128.0 210.0 230.0 110.0 282.0 23.0C446.0 -37.0 496.0 271.0 55.0 281.0ZM198.0 618.0 118.0 522.0H-474.0L-466.0 492.0H312.0C327.0 492.0 341.0 498.0 344.0 509.0C288.0 553.0 198.0 618.0 198.0 618.0ZM316.0 1020.0 248.0 934.0H-242.0L-233.0 902.0H407.0C423.0 902.0 435.0 908.0 437.0 920.0C392.0 961.0 316.0 1020.0 316.0 1020.0Z"/></g>
<g fill="green" transform="translate(1100 100) scale(0.1 -0.1)"><path d="M0.0 -0.0V286.0H-66.0V-24.0H-57.0C-23.0 -24.0 0.0 -6.0 0.0 0.0ZM-198.0 177.0 -295.0 234.0C-369.0 165.0 -523.0 82.0 -653.0 39.0L-638.0 17.0C-494.0 46.0 -336.0 109.0 -252.0 168.0C-221.0 159.0 -209.0 163.0 -198.0 177.0ZM139.0 213.0 128.0 192.0C248.0 158.0 416.0 75.0 484.0 4.0C585.0 -22.0 573.0 172.0 139.0 213.0ZM275.0 551.0 223.0 489.0H-418.0L-407.0 444.0H339.0C359.0 444.0 373.0 452.0 377.0 468.0C337.0 506.0 275.0 551.0 275.0 551.0ZM196.0 1001.0 146.0 940.0H-77.0L-66.0 895.0H253.0C274.0 895.0 286.0 903.0 290.0 920.0C253.0 956.0 196.0 1001.0 196.0 1001.0Z"/></g>
<g fill="green" transform="translate(1200 100) scale(0.1 -0.1)"><path d="M0.0 0.0V291.0H-216.0V-38.0H-176.0C-67.0 -38.0 -1.0 -7.0 0.0 0.0ZM-232.0 158.0 -444.0 298.0C-508.0 201.0 -647.0 76.0 -788.0 2.0L-777.0 -15.0C-591.0 7.0 -406.0 67.0 -290.0 143.0C-255.0 136.0 -240.0 145.0 -232.0 158.0ZM39.0 242.0 29.0 230.0C132.0 173.0 275.0 65.0 356.0 -25.0C570.0 -70.0 599.0 312.0 39.0 242.0ZM176.0 609.0 82.0 488.0H-509.0L-497.0 447.0H304.0C324.0 447.0 341.0 455.0 345.0 470.0C281.0 527.0 176.0 609.0 176.0 609.0ZM80.0 1056.0 10.0 951.0H-129.0L-117.0 909.0H167.0C186.0 909.0 202.0 917.0 205.0 933.0C160.0 983.0 80.0 1056.0 80.0 1056.0Z"/></g>
<g fill="red" transform="translate(100 200) scale(0.1 -0.1)"><path d="M0.0 0.0V387.0H-44.0V-18.0H-38.0C-16.0 -18.0 0.0 -5.0 0.0 0.0ZM-140.0 272.0 -211.0 309.0C-259.0 232.0 -359.0 130.0 -453.0 68.0L-443.0 54.0C-336.0 108.0 -232.0 196.0 -177.0 264.0C-155.0 258.0 -146.0 262.0 -140.0 272.0ZM110.0 285.0 99.0 274.0C179.0 223.0 292.0 129.0 330.0 61.0C397.0 28.0 410.0 171.0 110.0 285.0ZM300.0 441.0 260.0 391.0H-411.0L-402.0 361.0H351.0C364.0 361.0 373.0 366.0 376.0 377.0C347.0 405.0 300.0 441.0 300.0 441.0ZM142.0 623.0 105.0 578.0H-248.0L-240.0 548.0H187.0C201.0 548.0 210.0 553.0 213.0 564.0C185.0 590.0 142.0 623.0 142.0 623.0Z"/></g>
<g fill="black" opacity=".8" transform="translate(100 200) scale(0.1 -0.1)"><path d="M0.0 0.0V394.0H-44.0V-17.0H-38.0C-16.0 -17.0 0.0 -4.0 0.0 0.0ZM-144.0 271.0 -218.0 307.0C-262.0 229.0 -356.0 128.0 -448.0 66.0L-438.0 52.0C-332.0 104.0 -234.0 193.0 -182.0 262.0C-159.0 256.0 -150.0 262.0 -144.0 271.0ZM118.0 292.0 106.0 281.0C187.0 228.0 296.0 132.0 330.0 60.0C395.0 25.0 409.0 172.0 118.0 292.0ZM300.0 441.0 260.0 393.0H-405.0L-397.0 363.0H351.0C365.0 363.0 373.0 368.0 376.0 378.0C347.0 406.0 300.0 441.0 300.0 441.0ZM132.0 616.0 95.0 571.0H-235.0L-227.0 539.0H178.0C192.0 539.0 200.0 546.0 203.0 557.0C175.0 584.0 132.0 616.0 132.0 616.0Z"/></g>
<g fill="red" transform="translate(200 200) scale(0.1 -0.1)"><path d="M0.0 0.0V385.0H-147.0V-39.0H-120.0C-45.0 -39.0 -1.0 -8.0 0.0 0.0ZM-174.0 266.0 -334.0 347.0C-362.0 252.0 -429.0 115.0 -512.0 28.0L-504.0 18.0C-378.0 73.0 -275.0 167.0 -212.0 251.0C-188.0 249.0 -178.0 256.0 -174.0 266.0ZM46.0 309.0 39.0 303.0C102.0 241.0 168.0 148.0 196.0 61.0C345.0 -29.0 441.0 263.0 46.0 309.0ZM189.0 488.0 116.0 398.0H-452.0L-444.0 370.0H292.0C307.0 370.0 318.0 375.0 321.0 386.0C271.0 428.0 189.0 488.0 189.0 488.0ZM12.0 639.0 -54.0 554.0H-285.0L-277.0 526.0H104.0C118.0 526.0 129.0 531.0 132.0 542.0C87.0 582.0 12.0 639.0 12.0 639.0Z"/></g>
<g fill="black" opacity=".8" transform="translate(200 200) scale(0.1 -0.1)"><path d="M0.0 0.0V395.0H-146.0V-34.0H-119.0C-45.0 -34.0 -1.0 -7.0 0.0 0.0ZM-165.0 260.0 -326.0 344.0C-356.0 251.0 -430.0 119.0 -517.0 37.0L-510.0 26.0C-380.0 76.0 -271.0 164.0 -205.0 245.0C-180.0 243.0 -171.0 249.0 -165.0 260.0ZM42.0 309.0 34.0 302.0C105.0 241.0 181.0 145.0 214.0 57.0C361.0 -25.0 444.0 266.0 42.0 309.0ZM192.0 492.0 122.0 398.0H-460.0L-452.0 371.0H291.0C304.0 371.0 315.0 378.0 319.0 387.0C272.0 429.0 192.0 492.0 192.0 492.0ZM18.0 646.0 -48.0 558.0H-281.0L-272.0 529.0H113.0C125.0 529.0 138.0 535.0 140.0 545.0C95.0 585.0 18.0 646.0 18.0 646.0Z"/></g>
<g fill="red" transform="translate(300 200) scale(0.1 -0.1)"><path d="M0.0 0.0V411.0H-43.0V-17.0H-37.0C-15.0 -17.0 0.0 -4.0 0.0 0.0ZM-165.0 279.0 -241.0 314.0C-284.0 224.0 -378.0 110.0 -476.0 40.0L-466.0 25.0C-353.0 87.0 -254.0 189.0 -203.0 269.0C-180.0 265.0 -171.0 269.0 -165.0 279.0ZM138.0 303.0 126.0 292.0C210.0 233.0 321.0 125.0 349.0 40.0C412.0 0.0 432.0 160.0 138.0 303.0ZM335.0 464.0 293.0 415.0H-447.0L-438.0 385.0H390.0C404.0 385.0 413.0 390.0 416.0 401.0C385.0 429.0 335.0 464.0 335.0 464.0ZM185.0 633.0 145.0 587.0H-286.0L-278.0 557.0H235.0C249.0 557.0 259.0 562.0 262.0 573.0C231.0 600.0 185.0 633.0 185.0 633.0Z"/></g>
<g fill="black" opacity=".8" transform="translate(300 200) scale(0.1 -0.1)"><path d="M0.0 0.0V408.0H-45.0V-17.0H-39.0C-16.0 -17.0 0.0 -4.0 0.0 0.0ZM-155.0 279.0 -231.0 316.0C-275.0 232.0 -372.0 124.0 -468.0 57.0L-457.0 43.0C-347.0 100.0 -246.0 196.0 -194.0 269.0C-170.0 264.0 -160.0 270.0 -155.0 279.0ZM132.0 305.0 120.0 294.0C204.0 238.0 318.0 136.0 354.0 61.0C421.0 25.0 433.0 177.0 132.0 305.0ZM333.0 463.0 291.0 413.0H-447.0L-439.0 382.0H386.0C401.0 382.0 409.0 387.0 412.0 398.0C382.0 427.0 333.0 463.0 333.0 463.0ZM197.0 641.0 158.0 593.0H-302.0L-293.0 561.0H247.0C261.0 561.0 270.0 567.0 273.0 579.0C243.0 607.0 197.0 641.0 197.0 641.0Z"/></g>
<g fill="red" transform="translate(400 200) scale(0.1 -0.1)"><path d="M0.0 0.0V418.0H-144.0V-29.0H-117.0C-43.0 -29.0 -1.0 -6.0 0.0 0.0ZM-162.0 274.0 -320.0 356.0C-357.0 253.0 -443.0 114.0 -547.0 27.0L-540.0 16.0C-393.0 70.0 -273.0 169.0 -201.0 260.0C-177.0 258.0 -167.0 264.0 -162.0 274.0ZM51.0 322.0 43.0 315.0C124.0 251.0 203.0 147.0 233.0 51.0C383.0 -39.0 473.0 268.0 51.0 322.0ZM247.0 514.0 177.0 425.0H-513.0L-505.0 397.0H345.0C360.0 397.0 371.0 402.0 374.0 413.0C326.0 454.0 247.0 514.0 247.0 514.0ZM110.0 681.0 42.0 595.0H-353.0L-345.0 567.0H204.0C218.0 567.0 229.0 572.0 232.0 583.0C186.0 623.0 110.0 681.0 110.0 681.0Z"/></g>
<g fill="black" opacity=".8" transform="translate(400 200) scale(0.1 -0.1)"><path d="M0.0 0.0V412.0H-150.0V-32.0H-122.0C-46.0 -32.0 -1.0 -6.0 0.0 0.0ZM-174.0 263.0 -341.0 351.0C-372.0 255.0 -449.0 120.0 -541.0 36.0L-533.0 26.0C-396.0 75.0 -283.0 165.0 -214.0 249.0C-189.0 246.0 -179.0 252.0 -174.0 263.0ZM50.0 320.0 42.0 312.0C115.0 248.0 195.0 148.0 230.0 57.0C382.0 -25.0 464.0 274.0 50.0 320.0ZM236.0 516.0 162.0 420.0H-514.0L-507.0 392.0H342.0C356.0 392.0 368.0 398.0 372.0 408.0C321.0 452.0 236.0 516.0 236.0 516.0ZM98.0 681.0 28.0 592.0H-367.0L-358.0 562.0H199.0C213.0 562.0 225.0 568.0 228.0 579.0C180.0 620.0 98.0 681.0 98.0 681.0Z"/></g>
<g fill="red" transform="translate(500 200) scale(0.1 -0.1)"><path d="M0.0 0.0V560.0H-44.0V-16.0H-38.0C-15.0 -16.0 0.0 -4.0 0.0 0.0ZM-166.0 394.0 -245.0 427.0C-286.0 322.0 -376.0 180.0 -475.0 88.0L-463.0 75.0C-349.0 159.0 -254.0 287.0 -205.0 382.0C-181.0 378.0 -172.0 383.0 -166.0 394.0ZM161.0 426.0 147.0 417.0C231.0 338.0 349.0 203.0 380.0 110.0C444.0 65.0 465.0 222.0 161.0 426.0ZM352.0 616.0 308.0 563.0H-473.0L-464.0 533.0H406.0C420.0 533.0 428.0 538.0 431.0 549.0C401.0 578.0 352.0 616.0 352.0 616.0ZM247.0 850.0 204.0 798.0H-365.0L-357.0 768.0H299.0C313.0 768.0 323.0 773.0 326.0 784.0C295.0 813.0 247.0 850.0 247.0 850.0Z"/></g>
<g fill="black" opacity=".8" transform="translate(500 200) scale(0.1 -0.1)"><path d="M0.0 0.0V560.0H-44.0V-16.0H-37.0C-15.0 -16.0 0.0 -3.0 0.0 0.0ZM-169.0 394.0 -248.0 427.0C-288.0 320.0 -380.0 177.0 -480.0 82.0L-468.0 70.0C-353.0 154.0 -257.0 286.0 -208.0 382.0C-184.0 379.0 -174.0 384.0 -169.0 394.0ZM162.0 423.0 146.0 414.0C231.0 333.0 349.0 196.0 377.0 102.0C441.0 55.0 465.0 216.0 162.0 423.0ZM351.0 617.0 308.0 564.0H-474.0L-465.0 534.0H407.0C422.0 534.0 429.0 539.0 433.0 550.0C402.0 579.0 351.0 617.0 351.0 617.0ZM244.0 850.0 202.0 799.0H-362.0L-353.0 767.0H297.0C311.0 767.0 320.0 773.0 323.0 785.0C292.0 814.0 244.0 850.0 244.0 850.0Z"/></g>
<g fill="red" transform="translate(600 200) scale(0.1 -0.1)"><path d="M0.0 0.0V556.0H-151.0V-34.0H-123.0C-45.0 -34.0 -1.0 -7.0 0.0 0.0ZM-185.0 361.0 -364.0 443.0C-389.0 330.0 -454.0 166.0 -542.0 60.0L-535.0 51.0C-393.0 122.0 -288.0 241.0 -223.0 344.0C-199.0 343.0 -190.0 351.0 -185.0 361.0ZM64.0 420.0 56.0 414.0C132.0 332.0 208.0 215.0 236.0 107.0C391.0 0.0 497.0 318.0 64.0 420.0ZM248.0 667.0 167.0 564.0H-550.0L-542.0 536.0H365.0C380.0 536.0 392.0 541.0 395.0 552.0C340.0 598.0 248.0 667.0 248.0 667.0ZM158.0 894.0 80.0 796.0H-432.0L-424.0 768.0H271.0C286.0 768.0 297.0 773.0 300.0 784.0C247.0 829.0 158.0 894.0 158.0 894.0Z"/></g>
<g fill="black" opacity=".8" transform="translate(600 200) scale(0.1 -0.1)"><path d="M0.0 0.0V556.0H-149.0V-35.0H-122.0C-45.0 -35.0 -2.0 -7.0 0.0 0.0ZM-182.0 367.0 -359.0 447.0C-384.0 330.0 -452.0 161.0 -544.0 53.0L-537.0 44.0C-391.0 118.0 -285.0 243.0 -221.0 350.0C-196.0 349.0 -187.0 356.0 -182.0 367.0ZM64.0 421.0 56.0 414.0C134.0 332.0 207.0 215.0 232.0 104.0C387.0 -7.0 499.0 315.0 64.0 421.0ZM251.0 664.0 172.0 565.0H-546.0L-539.0 538.0H367.0C381.0 538.0 393.0 543.0 396.0 553.0C342.0 598.0 251.0 664.0 251.0 664.0ZM161.0 892.0 83.0 797.0H-430.0L-421.0 768.0H272.0C286.0 768.0 298.0 773.0 301.0 785.0C249.0 828.0 161.0 892.0 161.0 892.0Z"/></g>
<g fill="red" transform="translate(700 200) scale(0.1 -0.1)"><path d="M0.0 0.0V271.0H-44.0V-16.0H-38.0C-15.0 -16.0 0.0 -4.0 0.0 0.0ZM-151.0 177.0 -225.0 216.0C-271.0 146.0 -371.0 61.0 -467.0 14.0L-458.0 -1.0C-348.0 37.0 -242.0 108.0 -188.0 169.0C-165.0 164.0 -157.0 167.0 -151.0 177.0ZM121.0 201.0 113.0 188.0C195.0 155.0 311.0 84.0 354.0 27.0C425.0 4.0 419.0 145.0 121.0 201.0ZM353.0 325.0 312.0 277.0H-460.0L-451.0 247.0H403.0C417.0 247.0 426.0 252.0 429.0 263.0C399.0 291.0 353.0 325.0 353.0 325.0ZM251.0 453.0 213.0 409.0H-338.0L-330.0 379.0H297.0C310.0 379.0 320.0 384.0 322.0 395.0C295.0 421.0 251.0 453.0 251.0 453.0Z"/></g>
<g fill="black" opacity=".8" transform="translate(700 200) scale(0.1 -0.1)"><path d="M0.0 0.0V270.0H-45.0V-17.0H-39.0C-16.0 -17.0 0.0 -3.0 0.0 0.0ZM-150.0 172.0 -224.0 212.0C-270.0 144.0 -370.0 62.0 -464.0 15.0L-453.0 0.0C-348.0 37.0 -242.0 106.0 -188.0 164.0C-166.0 159.0 -156.0 164.0 -150.0 172.0ZM121.0 203.0 112.0 190.0C195.0 155.0 310.0 81.0 351.0 21.0C422.0 -4.0 418.0 141.0 121.0 203.0ZM353.0 332.0 311.0 285.0H-468.0L-460.0 254.0H404.0C419.0 254.0 428.0 259.0 431.0 270.0C400.0 299.0 353.0 332.0 353.0 332.0ZM249.0 456.0 211.0 410.0H-342.0L-334.0 378.0H298.0C311.0 378.0 320.0 384.0 323.0 395.0C294.0 422.0 249.0 456.0 249.0 456.0Z"/></g>
<g fill="red" transform="translate(800 200) scale(0.1 -0.1)"><path d="M0.0 0.0V288.0H-148.0V-26.0H-120.0C-44.0 -26.0 0.0 -4.0 0.0 0.0ZM-177.0 163.0 -335.0 259.0C-371.0 185.0 -450.0 85.0 -535.0 23.0L-528.0 13.0C-405.0 38.0 -289.0 91.0 -215.0 151.0C-192.0 147.0 -182.0 153.0 -177.0 163.0ZM60.0 228.0 53.0 221.0C122.0 172.0 210.0 89.0 257.0 17.0C407.0 -34.0 452.0 242.0 60.0 228.0ZM286.0 382.0 217.0 297.0H-543.0L-535.0 269.0H383.0C398.0 269.0 409.0 274.0 412.0 285.0C364.0 325.0 286.0 382.0 286.0 382.0ZM167.0 513.0 101.0 432.0H-434.0L-426.0 404.0H259.0C273.0 404.0 284.0 409.0 287.0 420.0C241.0 459.0 167.0 513.0 167.0 513.0Z"/></g>
<g fill="black" opacity=".8" transform="translate(800 200) scale(0.1 -0.1)"><path d="M0.0 0.0V286.0H-149.0V-26.0H-121.0C-45.0 -26.0 -0.0 -4.0 0.0 0.0ZM-171.0 159.0 -329.0 255.0C-367.0 179.0 -453.0 78.0 -545.0 18.0L-539.0 7.0C-408.0 30.0 -286.0 84.0 -211.0 147.0C-186.0 144.0 -176.0 148.0 -171.0 159.0ZM49.0 226.0 42.0 218.0C110.0 168.0 197.0 84.0 241.0 11.0C390.0 -42.0 438.0 234.0 49.0 226.0ZM284.0 391.0 212.0 299.0H-547.0L-539.0 272.0H385.0C399.0 272.0 411.0 278.0 415.0 287.0C366.0 330.0 284.0 391.0 284.0 391.0ZM164.0 511.0 97.0 429.0H-430.0L-422.0 399.0H260.0C274.0 399.0 287.0 404.0 289.0 415.0C242.0 454.0 164.0 511.0 164.0 511.0Z"/></g>
<g fill="red" transform="translate(900 200) scale(0.1 -0.1)"><path d="M0.0 0.0V280.0H-44.0V-16.0H-38.0C-15.0 -16.0 0.0 -4.0 0.0 0.0ZM-134.0 179.0 -207.0 219.0C-256.0 153.0 -358.0 72.0 -453.0 26.0L-442.0 11.0C-336.0 48.0 -228.0 115.0 -172.0 171.0C-150.0 166.0 -141.0 169.0 -134.0 179.0ZM109.0 208.0 100.0 195.0C182.0 160.0 296.0 86.0 338.0 26.0C408.0 1.0 405.0 144.0 109.0 208.0ZM337.0 345.0 296.0 296.0H-453.0L-444.0 266.0H388.0C401.0 266.0 411.0 271.0 414.0 282.0C383.0 310.0 337.0 345.0 337.0 345.0ZM230.0 460.0 191.0 415.0H-327.0L-319.0 385.0H277.0C291.0 385.0 300.0 390.0 303.0 401.0C274.0 427.0 230.0 460.0 230.0 460.0Z"/></g>
<g fill="black" opacity=".8" transform="translate(900 200) scale(0.1 -0.1)"><path d="M0.0 0.0V276.0H-44.0V-16.0H-37.0C-15.0 -16.0 0.0 -3.0 0.0 0.0ZM-144.0 179.0 -216.0 216.0C-259.0 150.0 -355.0 67.0 -445.0 19.0L-434.0 5.0C-333.0 43.0 -233.0 113.0 -181.0 171.0C-159.0 166.0 -150.0 171.0 -144.0 179.0ZM117.0 208.0 108.0 195.0C188.0 159.0 298.0 84.0 337.0 25.0C404.0 0.0 402.0 140.0 117.0 208.0ZM337.0 334.0 297.0 288.0H-448.0L-440.0 258.0H387.0C401.0 258.0 410.0 263.0 412.0 273.0C383.0 301.0 337.0 334.0 337.0 334.0ZM234.0 456.0 197.0 412.0H-325.0L-317.0 381.0H281.0C293.0 381.0 302.0 387.0 305.0 397.0C277.0 424.0 234.0 456.0 234.0 456.0Z"/></g>
<g fill="red" transform="translate(1000 200) scale(0.1 -0.1)"><path d="M0.0 0.0V288.0H-145.0V-26.0H-118.0C-43.0 -26.0 0.0 -5.0 0.0 0.0ZM-160.0 161.0 -316.0 253.0C-354.0 175.0 -438.0 74.0 -533.0 14.0L-527.0 3.0C-394.0 27.0 -273.0 84.0 -198.0 149.0C-175.0 146.0 -165.0 152.0 -160.0 161.0ZM34.0 222.0 27.0 215.0C93.0 165.0 178.0 81.0 222.0 8.0C370.0 -47.0 421.0 227.0 34.0 222.0ZM258.0 392.0 185.0 302.0H-523.0L-515.0 274.0H362.0C376.0 274.0 388.0 279.0 391.0 290.0C340.0 332.0 258.0 392.0 258.0 392.0ZM155.0 501.0 88.0 418.0H-419.0L-411.0 390.0H248.0C262.0 390.0 273.0 395.0 276.0 406.0C230.0 445.0 155.0 501.0 155.0 501.0Z"/></g>
<g fill="black" opacity=".8" transform="translate(1000 200) scale(0.1 -0.1)"><path d="M0.0 0.0V291.0H-143.0V-26.0H-116.0C-43.0 -26.0 -0.0 -4.0 0.0 0.0ZM-164.0 166.0 -317.0 257.0C-352.0 181.0 -433.0 80.0 -522.0 20.0L-515.0 10.0C-389.0 35.0 -274.0 92.0 -203.0 154.0C-179.0 151.0 -169.0 156.0 -164.0 166.0ZM48.0 229.0 40.0 221.0C106.0 172.0 188.0 89.0 229.0 17.0C372.0 -38.0 423.0 229.0 48.0 229.0ZM268.0 389.0 198.0 301.0H-522.0L-514.0 275.0H365.0C379.0 275.0 390.0 281.0 394.0 289.0C347.0 330.0 268.0 389.0 268.0 389.0ZM150.0 507.0 85.0 428.0H-407.0L-399.0 399.0H244.0C257.0 399.0 269.0 404.0 271.0 414.0C226.0 452.0 150.0 507.0 150.0 507.0Z"/></g>
<g fill="red" transform="translate(1100 200) scale(0.1 -0.1)"><path d="M0.0 0.0V328.0H-44.0V-16.0H-38.0C-15.0 -16.0 0.0 -4.0 0.0 0.0ZM-136.0 215.0 -211.0 254.0C-256.0 186.0 -351.0 103.0 -444.0 57.0L-434.0 42.0C-328.0 79.0 -226.0 148.0 -173.0 207.0C-151.0 202.0 -143.0 206.0 -136.0 215.0ZM109.0 242.0 99.0 230.0C179.0 190.0 288.0 111.0 326.0 48.0C393.0 18.0 398.0 163.0 109.0 242.0ZM289.0 374.0 249.0 328.0H-384.0L-375.0 298.0H337.0C351.0 298.0 360.0 303.0 363.0 314.0C334.0 341.0 289.0 374.0 289.0 374.0ZM126.0 526.0 89.0 483.0H-190.0L-182.0 453.0H171.0C184.0 453.0 193.0 458.0 196.0 469.0C169.0 495.0 126.0 526.0 126.0 526.0Z"/></g>
<g fill="black" opacity=".8" transform="translate(1100 200) scale(0.1 -0.1)"><path d="M0.0 0.0V320.0H-45.0V-17.0H-38.0C-16.0 -17.0 0.0 -4.0 0.0 0.0ZM-139.0 214.0 -212.0 252.0C-257.0 185.0 -354.0 100.0 -445.0 51.0L-434.0 36.0C-331.0 76.0 -230.0 148.0 -177.0 206.0C-155.0 200.0 -145.0 206.0 -139.0 214.0ZM107.0 236.0 96.0 223.0C176.0 182.0 285.0 102.0 322.0 39.0C389.0 9.0 397.0 153.0 107.0 236.0ZM289.0 374.0 250.0 328.0H-391.0L-383.0 297.0H339.0C353.0 297.0 362.0 303.0 364.0 313.0C336.0 341.0 289.0 374.0 289.0 374.0ZM133.0 532.0 97.0 488.0H-200.0L-191.0 456.0H179.0C192.0 456.0 201.0 462.0 204.0 473.0C176.0 500.0 133.0 532.0 133.0 532.0Z"/></g>
<g fill="red" transform="translate(1200 200) scale(0.1 -0.1)"><path d="M0.0 0.0V335.0H-148.0V-28.0H-120.0C-45.0 -28.0 -1.0 -5.0 0.0 0.0ZM-161.0 198.0 -321.0 293.0C-356.0 214.0 -435.0 106.0 -522.0 39.0L-515.0 29.0C-389.0 60.0 -273.0 121.0 -199.0 186.0C-176.0 182.0 -166.0 189.0 -161.0 198.0ZM32.0 258.0 25.0 251.0C98.0 198.0 190.0 109.0 238.0 32.0C387.0 -25.0 437.0 255.0 32.0 258.0ZM182.0 429.0 114.0 335.0H-454.0L-446.0 307.0H276.0C290.0 307.0 301.0 312.0 304.0 323.0C259.0 366.0 182.0 429.0 182.0 429.0ZM24.0 567.0 -41.0 477.0H-254.0L-246.0 449.0H114.0C128.0 449.0 139.0 454.0 142.0 465.0C99.0 506.0 24.0 567.0 24.0 567.0Z"/></g>
<g fill="black" opacity=".8" transform="translate(1200 200) scale(0.1 -0.1)"><path d="M0.0 0.0V326.0H-147.0V-32.0H-120.0C-46.0 -32.0 -1.0 -6.0 0.0 0.0ZM-163.0 208.0 -320.0 297.0C-353.0 214.0 -432.0 99.0 -520.0 28.0L-512.0 17.0C-385.0 54.0 -273.0 125.0 -203.0 195.0C-178.0 192.0 -168.0 198.0 -163.0 208.0ZM36.0 261.0 28.0 253.0C97.0 200.0 177.0 112.0 215.0 34.0C361.0 -34.0 429.0 246.0 36.0 261.0ZM186.0 428.0 117.0 336.0H-447.0L-439.0 309.0H281.0C295.0 309.0 306.0 315.0 310.0 324.0C264.0 367.0 186.0 428.0 186.0 428.0ZM17.0 563.0 -47.0 477.0H-248.0L-239.0 448.0H107.0C120.0 448.0 133.0 454.0 135.0 464.0C91.0 504.0 17.0 563.0 17.0 563.0Z"/></g>
<g fill="red" transform="translate(1300 200) scale(0.1 -0.1)"><path d="M0.0 0.0V284.0H-44.0V-16.0H-38.0C-15.0 -16.0 0.0 -4.0 0.0 0.0ZM-148.0 185.0 -216.0 220.0C-261.0 155.0 -357.0 73.0 -447.0 27.0L-436.0 12.0C-336.0 52.0 -237.0 120.0 -185.0 177.0C-163.0 172.0 -155.0 175.0 -148.0 185.0ZM120.0 214.0 111.0 202.0C192.0 163.0 304.0 83.0 343.0 20.0C412.0 -8.0 414.0 137.0 120.0 214.0ZM187.0 480.0 149.0 436.0H-291.0L-283.0 406.0H233.0C247.0 406.0 256.0 411.0 259.0 422.0C230.0 448.0 187.0 480.0 187.0 480.0ZM321.0 817.0 281.0 769.0H-20.0L-12.0 739.0H368.0C382.0 739.0 391.0 744.0 394.0 755.0C365.0 782.0 321.0 817.0 321.0 817.0Z"/></g>
<g fill="black" opacity=".8" transform="translate(1300 200) scale(0.1 -0.1)"><path d="M0.0 0.0V285.0H-45.0V-16.0H-38.0C-15.0 -16.0 0.0 -4.0 0.0 0.0ZM-148.0 185.0 -217.0 220.0C-261.0 155.0 -358.0 74.0 -448.0 28.0L-436.0 13.0C-336.0 52.0 -237.0 120.0 -185.0 177.0C-163.0 172.0 -154.0 176.0 -148.0 185.0ZM120.0 215.0 111.0 203.0C192.0 163.0 304.0 83.0 343.0 20.0C412.0 -7.0 414.0 138.0 120.0 215.0ZM186.0 480.0 148.0 437.0H-289.0L-282.0 405.0H233.0C247.0 405.0 256.0 411.0 259.0 422.0C230.0 448.0 186.0 480.0 186.0 480.0ZM320.0 817.0 281.0 769.0H-18.0L-10.0 738.0H367.0C381.0 738.0 390.0 744.0 393.0 755.0C364.0 783.0 320.0 817.0 320.0 817.0Z"/></g>
<g fill="red" transform="translate(1400 200) scale(0.1 -0.1)"><path d="M0.0 0.0V292.0H-150.0V-26.0H-122.0C-45.0 -26.0 -1.0 -5.0 0.0 0.0ZM-168.0 174.0 -325.0 264.0C-361.0 183.0 -444.0 77.0 -538.0 12.0L-531.0 2.0C-399.0 30.0 -280.0 92.0 -206.0 162.0C-183.0 158.0 -173.0 165.0 -168.0 174.0ZM41.0 235.0 34.0 228.0C101.0 176.0 188.0 91.0 233.0 17.0C378.0 -38.0 428.0 231.0 41.0 235.0ZM121.0 525.0 51.0 438.0H-367.0L-359.0 410.0H219.0C233.0 410.0 245.0 415.0 247.0 426.0C199.0 466.0 121.0 525.0 121.0 525.0ZM259.0 860.0 197.0 780.0H-81.0L-73.0 752.0H342.0C357.0 752.0 367.0 757.0 370.0 768.0C328.0 806.0 259.0 860.0 259.0 860.0Z"/></g>
<g fill="black" opacity=".8" transform="translate(1400 200) scale(0.1 -0.1)"><path d="M0.0 0.0V293.0H-149.0V-26.0H-122.0C-45.0 -26.0 -1.0 -5.0 0.0 0.0ZM-167.0 174.0 -325.0 264.0C-360.0 184.0 -444.0 77.0 -538.0 12.0L-531.0 3.0C-398.0 30.0 -280.0 92.0 -207.0 161.0C-182.0 158.0 -173.0 164.0 -167.0 174.0ZM40.0 236.0 33.0 227.0C101.0 176.0 190.0 90.0 236.0 16.0C380.0 -37.0 428.0 232.0 40.0 236.0ZM121.0 524.0 51.0 437.0H-367.0L-359.0 410.0H218.0C232.0 410.0 244.0 416.0 247.0 425.0C199.0 465.0 121.0 524.0 121.0 524.0ZM259.0 861.0 198.0 781.0H-83.0L-75.0 752.0H344.0C358.0 752.0 369.0 758.0 371.0 768.0C329.0 806.0 259.0 861.0 259.0 861.0Z"/></g>
<g fill="red" transform="translate(1500 200) scale(0.1 -0.1)"><path d="M0.0 0.0V262.0H-44.0V-17.0H-38.0C-15.0 -17.0 0.0 -4.0 0.0 0.0ZM-149.0 171.0 -218.0 208.0C-262.0 147.0 -354.0 68.0 -439.0 23.0L-428.0 8.0C-333.0 45.0 -237.0 110.0 -186.0 164.0C-165.0 158.0 -156.0 161.0 -149.0 171.0ZM116.0 205.0 107.0 192.0C187.0 157.0 296.0 83.0 335.0 23.0C402.0 -3.0 401.0 136.0 116.0 205.0ZM335.0 325.0 295.0 277.0H-454.0L-445.0 247.0H384.0C398.0 247.0 408.0 252.0 410.0 263.0C381.0 291.0 335.0 325.0 335.0 325.0ZM198.0 449.0 160.0 404.0H-317.0L-309.0 374.0H245.0C257.0 374.0 267.0 379.0 269.0 390.0C242.0 417.0 198.0 449.0 198.0 449.0Z"/></g>
<g fill="black" opacity=".8" transform="translate(1500 200) scale(0.1 -0.1)"><path d="M0.0 0.0V272.0H-45.0V-17.0H-39.0C-16.0 -17.0 0.0 -3.0 0.0 0.0ZM-144.0 176.0 -217.0 215.0C-262.0 150.0 -362.0 71.0 -454.0 26.0L-443.0 11.0C-339.0 46.0 -235.0 113.0 -182.0 168.0C-159.0 162.0 -150.0 168.0 -144.0 176.0ZM112.0 203.0 103.0 190.0C185.0 155.0 296.0 83.0 337.0 24.0C406.0 -1.0 405.0 141.0 112.0 203.0ZM334.0 326.0 293.0 279.0H-443.0L-435.0 249.0H384.0C398.0 249.0 407.0 254.0 410.0 264.0C381.0 293.0 334.0 326.0 334.0 326.0ZM188.0 450.0 152.0 406.0H-305.0L-297.0 374.0H235.0C248.0 374.0 257.0 380.0 259.0 391.0C232.0 418.0 188.0 450.0 188.0 450.0Z"/></g>
<g fill="red" transform="translate(1600 200) scale(0.1 -0.1)"><path d="M0.0 0.0V279.0H-148.0V-26.0H-120.0C-44.0 -26.0 0.0 -5.0 0.0 0.0ZM-169.0 163.0 -322.0 256.0C-359.0 182.0 -441.0 83.0 -530.0 23.0L-523.0 12.0C-398.0 37.0 -280.0 91.0 -207.0 151.0C-184.0 148.0 -174.0 154.0 -169.0 163.0ZM46.0 229.0 39.0 222.0C99.0 173.0 176.0 92.0 214.0 22.0C354.0 -37.0 412.0 225.0 46.0 229.0ZM258.0 394.0 187.0 295.0H-517.0L-509.0 267.0H357.0C372.0 267.0 383.0 272.0 386.0 283.0C339.0 327.0 258.0 394.0 258.0 394.0ZM79.0 500.0 12.0 415.0H-360.0L-352.0 387.0H174.0C188.0 387.0 199.0 392.0 202.0 403.0C155.0 443.0 79.0 500.0 79.0 500.0Z"/></g>
<g fill="black" opacity=".8" transform="translate(1600 200) scale(0.1 -0.1)"><path d="M0.0 0.0V285.0H-147.0V-28.0H-119.0C-45.0 -28.0 -0.0 -5.0 0.0 0.0ZM-166.0 165.0 -321.0 259.0C-357.0 183.0 -442.0 81.0 -532.0 20.0L-525.0 9.0C-398.0 34.0 -279.0 91.0 -206.0 153.0C-181.0 150.0 -171.0 155.0 -166.0 165.0ZM43.0 226.0 36.0 218.0C104.0 170.0 188.0 86.0 231.0 14.0C378.0 -40.0 429.0 233.0 43.0 226.0ZM254.0 382.0 185.0 292.0H-512.0L-504.0 265.0H351.0C365.0 265.0 376.0 271.0 380.0 280.0C333.0 322.0 254.0 382.0 254.0 382.0ZM91.0 496.0 27.0 415.0H-378.0L-369.0 385.0H182.0C195.0 385.0 208.0 391.0 210.0 401.0C165.0 440.0 91.0 496.0 91.0 496.0Z"/></g>
<g fill="red" transform="translate(100 300) scale(0.1 -0.1)"><path d="M0.0 0.0V240.0H-44.0V-16.0H-38.0C-15.0 -16.0 0.0 -4.0 0.0 0.0ZM-142.0 156.0 -209.0 196.0C-261.0 141.0 -369.0 72.0 -461.0 32.0L-451.0 18.0C-349.0 47.0 -238.0 102.0 -179.0 150.0C-158.0 144.0 -150.0 146.0 -142.0 156.0ZM109.0 184.0 101.0 170.0C186.0 139.0 307.0 72.0 356.0 19.0C422.0 3.0 410.0 130.0 109.0 184.0ZM240.0 414.0 204.0 371.0H-347.0L-339.0 341.0H285.0C298.0 341.0 307.0 346.0 310.0 357.0C283.0 383.0 240.0 414.0 240.0 414.0ZM76.0 731.0 44.0 691.0H-225.0L-217.0 661.0H113.0C127.0 661.0 136.0 666.0 138.0 677.0C114.0 701.0 76.0 731.0 76.0 731.0Z"/></g>
<g fill="black" opacity=".8" transform="translate(100 300) scale(0.1 -0.1)"><path d="M0.0 0.0V239.0H-45.0V-16.0H-38.0C-15.0 -16.0 0.0 -4.0 0.0 0.0ZM-143.0 156.0 -210.0 195.0C-261.0 141.0 -369.0 72.0 -460.0 32.0L-449.0 18.0C-349.0 46.0 -238.0 102.0 -180.0 150.0C-159.0 143.0 -150.0 147.0 -143.0 156.0ZM110.0 184.0 101.0 170.0C186.0 138.0 307.0 71.0 355.0 18.0C422.0 3.0 410.0 130.0 110.0 184.0ZM240.0 414.0 204.0 371.0H-347.0L-340.0 341.0H285.0C298.0 341.0 307.0 346.0 310.0 356.0C283.0 383.0 240.0 414.0 240.0 414.0ZM77.0 732.0 45.0 691.0H-226.0L-218.0 660.0H114.0C128.0 660.0 136.0 666.0 138.0 677.0C115.0 701.0 77.0 732.0 77.0 732.0Z"/></g>
<g fill="red" transform="translate(200 300) scale(0.1 -0.1)"><path d="M0.0 0.0V236.0H-144.0V-24.0H-117.0C-44.0 -24.0 -1.0 -4.0 0.0 0.0ZM-160.0 126.0 -302.0 220.0C-349.0 150.0 -448.0 58.0 -548.0 3.0L-541.0 -9.0C-409.0 12.0 -279.0 61.0 -199.0 116.0C-176.0 112.0 -166.0 117.0 -160.0 126.0ZM35.0 184.0 29.0 176.0C106.0 133.0 209.0 54.0 265.0 -12.0C415.0 -42.0 428.0 229.0 35.0 184.0ZM187.0 445.0 122.0 365.0H-413.0L-405.0 337.0H278.0C292.0 337.0 303.0 342.0 306.0 353.0C261.0 391.0 187.0 445.0 187.0 445.0ZM18.0 778.0 -25.0 711.0H-261.0L-253.0 683.0H68.0C81.0 683.0 91.0 688.0 93.0 699.0C67.0 731.0 18.0 778.0 18.0 778.0Z"/></g>
<g fill="black" opacity=".8" transform="translate(200 300) scale(0.1 -0.1)"><path d="M0.0 0.0V236.0H-144.0V-24.0H-117.0C-45.0 -24.0 -1.0 -4.0 0.0 0.0ZM-160.0 127.0 -302.0 221.0C-348.0 150.0 -448.0 58.0 -548.0 3.0L-540.0 -10.0C-409.0 12.0 -279.0 62.0 -200.0 116.0C-176.0 112.0 -166.0 117.0 -160.0 127.0ZM35.0 185.0 29.0 176.0C106.0 133.0 208.0 54.0 264.0 -12.0C413.0 -42.0 426.0 229.0 35.0 185.0ZM188.0 445.0 123.0 365.0H-412.0L-405.0 337.0H279.0C292.0 337.0 303.0 343.0 307.0 353.0C262.0 391.0 188.0 445.0 188.0 445.0ZM17.0 778.0 -26.0 712.0H-261.0L-252.0 683.0H68.0C80.0 683.0 91.0 688.0 93.0 699.0C67.0 731.0 17.0 778.0 17.0 778.0Z"/></g>
</svg>
