<?xml version="1.0" encoding="UTF-8"?>
<svg width="1700" height="300" xmlns="http://www.w3.org/2000/svg">
<rect width="100%" height="100%" fill="white"/>
<g fill="green" transform="translate(100 100) scale(0.1 -0.1)"><path d="M0.0 0.0V-244.0H7.0C25.0 -244.0 45.0 -233.0 45.0 -229.0V-29.0H740.0V0.0H50.0L0.0 26.0ZM703.0 0.0V-232.0H708.0C723.0 -232.0 746.0 -220.0 747.0 -215.0V-39.0C766.0 -35.0 783.0 -27.0 790.0 -20.0L722.0 32.0L693.0 0.0ZM526.0 -211.0 517.0 -221.0C558.0 -239.0 608.0 -275.0 629.0 -304.0C683.0 -325.0 698.0 -219.0 526.0 -211.0ZM674.0 -394.0C590.0 -603.0 442.0 -756.0 287.0 -836.0L299.0 -852.0C465.0 -781.0 616.0 -646.0 710.0 -445.0C732.0 -449.0 745.0 -441.0 751.0 -431.0Z"/></g>
<g fill="green" transform="translate(200 100) scale(0.1 -0.1)"><path d="M0.0 0.0V-240.0H19.0C74.0 -240.0 137.0 -211.0 137.0 -199.0V-28.0H725.0V0.0H148.0L0.0 56.0ZM666.0 0.0V-207.0H690.0C734.0 -207.0 805.0 -186.0 806.0 -179.0V-51.0C827.0 -46.0 840.0 -37.0 846.0 -29.0L716.0 67.0L656.0 0.0ZM557.0 -201.0 550.0 -207.0C571.0 -227.0 594.0 -265.0 598.0 -300.0C698.0 -362.0 788.0 -179.0 557.0 -201.0ZM663.0 -368.0C590.0 -592.0 434.0 -767.0 276.0 -866.0L284.0 -876.0C493.0 -806.0 663.0 -689.0 782.0 -459.0C806.0 -463.0 820.0 -455.0 826.0 -443.0Z"/></g>
<g fill="green" transform="translate(300 100) scale(0.1 -0.1)"><path d="M0.0 0.0V-196.0H6.0C21.0 -196.0 38.0 -187.0 38.0 -184.0V-24.0H621.0V0.0H42.0L0.0 22.0ZM589.0 0.0V-185.0H593.0C606.0 -185.0 625.0 -175.0 626.0 -171.0V-33.0C642.0 -29.0 656.0 -23.0 662.0 -17.0L605.0 27.0L581.0 0.0ZM458.0 -176.0 450.0 -183.0C475.0 -196.0 511.0 -223.0 525.0 -244.0C570.0 -261.0 581.0 -175.0 458.0 -176.0ZM578.0 -359.0C505.0 -541.0 374.0 -677.0 245.0 -746.0L256.0 -759.0C393.0 -698.0 526.0 -579.0 608.0 -403.0C627.0 -406.0 638.0 -399.0 643.0 -391.0Z"/></g>
<g fill="green" transform="translate(400 100) scale(0.1 -0.1)"><path d="M0.0 0.0V-191.0H16.0C62.0 -191.0 115.0 -167.0 115.0 -157.0V-23.0H608.0V0.0H124.0L0.0 47.0ZM558.0 0.0V-161.0H578.0C615.0 -161.0 675.0 -144.0 676.0 -138.0V-43.0C693.0 -39.0 704.0 -31.0 709.0 -24.0L600.0 56.0L550.0 0.0ZM484.0 -166.0 478.0 -171.0C486.0 -185.0 500.0 -213.0 499.0 -240.0C582.0 -291.0 655.0 -144.0 484.0 -166.0ZM570.0 -335.0C507.0 -532.0 366.0 -687.0 232.0 -773.0L239.0 -781.0C414.0 -720.0 566.0 -618.0 670.0 -414.0C691.0 -417.0 703.0 -410.0 708.0 -400.0Z"/></g>
<g fill="green" transform="translate(500 100) scale(0.1 -0.1)"><path d="M0.0 0.0V-534.0H9.0C31.0 -534.0 52.0 -520.0 52.0 -514.0V-35.0H855.0V0.0H58.0L0.0 29.0ZM826.0 0.0V-528.0H832.0C850.0 -528.0 876.0 -513.0 877.0 -507.0V-46.0C899.0 -41.0 919.0 -32.0 927.0 -23.0L849.0 37.0L815.0 0.0ZM180.0 -110.0 172.0 -132.0C404.0 -212.0 572.0 -299.0 663.0 -388.0C733.0 -439.0 787.0 -266.0 180.0 -110.0ZM658.0 -107.0C509.0 -291.0 298.0 -426.0 108.0 -517.0L121.0 -537.0C320.0 -456.0 533.0 -333.0 686.0 -162.0C712.0 -170.0 723.0 -168.0 732.0 -156.0Z"/></g>
<g fill="green" transform="translate(600 100) scale(0.1 -0.1)"><path d="M0.0 0.0V-552.0H24.0C91.0 -552.0 161.0 -516.0 161.0 -500.0V-32.0H844.0V0.0H174.0L0.0 67.0ZM770.0 0.0V-538.0H797.0C851.0 -538.0 932.0 -509.0 933.0 -500.0V-59.0C958.0 -53.0 973.0 -43.0 980.0 -33.0L831.0 81.0L758.0 0.0ZM190.0 -108.0 184.0 -124.0C395.0 -201.0 511.0 -307.0 572.0 -389.0C708.0 -516.0 926.0 -193.0 190.0 -108.0ZM606.0 -79.0C481.0 -279.0 313.0 -431.0 142.0 -534.0L149.0 -547.0C349.0 -484.0 556.0 -379.0 732.0 -205.0C759.0 -212.0 774.0 -208.0 783.0 -196.0Z"/></g>
<g fill="green" transform="translate(700 100) scale(0.1 -0.1)"><path d="M0.0 0.0V-131.0H7.0C25.0 -131.0 46.0 -120.0 46.0 -117.0V-30.0H740.0V0.0H52.0L0.0 27.0ZM709.0 0.0V-123.0H715.0C729.0 -123.0 753.0 -111.0 754.0 -105.0V-40.0C774.0 -36.0 792.0 -28.0 799.0 -21.0L727.0 33.0L698.0 0.0ZM692.0 -372.0 682.0 -383.0C689.0 -387.0 735.0 -423.0 746.0 -448.0C804.0 -462.0 796.0 -357.0 692.0 -372.0ZM598.0 -288.0C608.0 -441.0 610.0 -514.0 441.0 -564.0L452.0 -587.0C649.0 -542.0 651.0 -459.0 648.0 -324.0C668.0 -320.0 678.0 -307.0 679.0 -295.0Z"/></g>
<g fill="green" transform="translate(800 100) scale(0.1 -0.1)"><path d="M0.0 0.0V-132.0H19.0C76.0 -132.0 142.0 -102.0 142.0 -91.0V-29.0H734.0V0.0H153.0L0.0 57.0ZM678.0 0.0V-115.0H704.0C750.0 -115.0 822.0 -90.0 823.0 -82.0V-51.0C844.0 -47.0 857.0 -38.0 863.0 -30.0L730.0 67.0L667.0 0.0ZM751.0 -366.0 743.0 -371.0C729.0 -384.0 755.0 -418.0 762.0 -449.0C869.0 -474.0 881.0 -301.0 751.0 -366.0ZM600.0 -287.0C609.0 -431.0 599.0 -520.0 450.0 -582.0L458.0 -599.0C708.0 -552.0 724.0 -464.0 726.0 -324.0C750.0 -321.0 759.0 -308.0 761.0 -295.0Z"/></g>
<g fill="red" transform="translate(100 200) scale(0.1 -0.1)"><path d="M0.0 0.0V-460.0H8.0C27.0 -460.0 45.0 -448.0 45.0 -443.0V-30.0H736.0V0.0H50.0L0.0 25.0ZM713.0 0.0V-456.0H719.0C734.0 -456.0 757.0 -443.0 758.0 -438.0V-40.0C777.0 -36.0 794.0 -28.0 801.0 -20.0L733.0 32.0L704.0 0.0ZM150.0 -112.0 143.0 -132.0C352.0 -203.0 504.0 -281.0 586.0 -362.0C648.0 -406.0 693.0 -254.0 150.0 -112.0ZM544.0 -47.0C428.0 -191.0 269.0 -291.0 102.0 -364.0L113.0 -382.0C290.0 -317.0 451.0 -223.0 570.0 -92.0C592.0 -97.0 601.0 -95.0 608.0 -85.0Z"/></g>
<g fill="black" opacity=".8" transform="translate(100 200) scale(0.1 -0.1)"><path d="M0.0 0.0V-460.0H8.0C27.0 -460.0 45.0 -448.0 45.0 -443.0V-30.0H736.0V0.0H50.0L0.0 25.0ZM713.0 0.0V-456.0H719.0C734.0 -456.0 757.0 -443.0 758.0 -438.0V-40.0C777.0 -35.0 794.0 -28.0 801.0 -20.0L733.0 32.0L704.0 0.0ZM150.0 -112.0 143.0 -132.0C351.0 -203.0 504.0 -281.0 586.0 -361.0C648.0 -407.0 693.0 -254.0 150.0 -112.0ZM544.0 -47.0C428.0 -191.0 269.0 -291.0 102.0 -364.0L113.0 -383.0C291.0 -318.0 451.0 -223.0 570.0 -92.0C592.0 -97.0 600.0 -95.0 607.0 -84.0Z"/></g>
<g fill="red" transform="translate(200 200) scale(0.1 -0.1)"><path d="M0.0 0.0V-478.0H21.0C79.0 -478.0 140.0 -447.0 140.0 -433.0V-28.0H729.0V0.0H151.0L0.0 58.0ZM665.0 0.0V-471.0H689.0C736.0 -471.0 806.0 -445.0 807.0 -437.0V-51.0C828.0 -46.0 841.0 -37.0 847.0 -29.0L718.0 70.0L655.0 0.0ZM162.0 -112.0 157.0 -126.0C347.0 -195.0 454.0 -291.0 511.0 -364.0C631.0 -471.0 815.0 -186.0 162.0 -112.0ZM499.0 -27.0C402.0 -181.0 283.0 -294.0 138.0 -375.0L144.0 -388.0C320.0 -339.0 473.0 -256.0 608.0 -128.0C631.0 -133.0 643.0 -129.0 650.0 -119.0Z"/></g>
<g fill="black" opacity=".8" transform="translate(200 200) scale(0.1 -0.1)"><path d="M0.0 0.0V-478.0H21.0C79.0 -478.0 140.0 -447.0 140.0 -433.0V-27.0H729.0V0.0H151.0L0.0 58.0ZM665.0 0.0V-471.0H688.0C736.0 -471.0 806.0 -445.0 807.0 -437.0V-51.0C828.0 -46.0 841.0 -37.0 847.0 -28.0L718.0 70.0L655.0 0.0ZM162.0 -111.0 157.0 -126.0C347.0 -195.0 454.0 -290.0 511.0 -364.0C632.0 -471.0 815.0 -186.0 162.0 -111.0ZM498.0 -27.0C402.0 -182.0 283.0 -294.0 138.0 -375.0L144.0 -388.0C320.0 -339.0 473.0 -256.0 607.0 -129.0C631.0 -133.0 643.0 -129.0 650.0 -119.0Z"/></g>
<g fill="red" transform="translate(300 200) scale(0.1 -0.1)"><path d="M0.0 0.0V-244.0H7.0C25.0 -244.0 45.0 -233.0 45.0 -229.0V-29.0H740.0V0.0H50.0L0.0 26.0ZM703.0 0.0V-232.0H708.0C723.0 -232.0 746.0 -220.0 747.0 -215.0V-39.0C766.0 -35.0 783.0 -27.0 790.0 -20.0L722.0 32.0L693.0 0.0ZM526.0 -211.0 517.0 -221.0C558.0 -239.0 608.0 -275.0 629.0 -304.0C683.0 -325.0 698.0 -219.0 526.0 -211.0ZM674.0 -394.0C590.0 -603.0 442.0 -756.0 287.0 -836.0L299.0 -852.0C465.0 -781.0 616.0 -646.0 710.0 -445.0C732.0 -449.0 745.0 -441.0 751.0 -431.0Z"/></g>
<g fill="black" opacity=".8" transform="translate(300 200) scale(0.1 -0.1)"><path d="M0.0 0.0V-244.0H7.0C25.0 -244.0 45.0 -233.0 45.0 -229.0V-29.0H740.0V0.0H50.0L0.0 26.0ZM703.0 0.0V-232.0H708.0C723.0 -232.0 746.0 -220.0 747.0 -215.0V-39.0C766.0 -35.0 783.0 -27.0 790.0 -20.0L722.0 32.0L693.0 0.0ZM526.0 -211.0 517.0 -221.0C558.0 -239.0 608.0 -275.0 629.0 -304.0C683.0 -325.0 698.0 -219.0 526.0 -211.0ZM674.0 -394.0C590.0 -603.0 442.0 -756.0 287.0 -836.0L299.0 -852.0C465.0 -781.0 616.0 -646.0 710.0 -445.0C732.0 -449.0 745.0 -441.0 751.0 -431.0Z"/></g>
<g fill="red" transform="translate(400 200) scale(0.1 -0.1)"><path d="M0.0 0.0V-240.0H19.0C74.0 -240.0 137.0 -211.0 137.0 -199.0V-28.0H725.0V0.0H148.0L0.0 56.0ZM666.0 0.0V-207.0H690.0C734.0 -207.0 805.0 -186.0 806.0 -179.0V-51.0C827.0 -46.0 840.0 -37.0 846.0 -29.0L716.0 67.0L656.0 0.0ZM557.0 -201.0 550.0 -207.0C571.0 -227.0 594.0 -265.0 598.0 -300.0C698.0 -362.0 788.0 -179.0 557.0 -201.0ZM663.0 -368.0C590.0 -592.0 434.0 -767.0 276.0 -866.0L284.0 -876.0C493.0 -806.0 663.0 -689.0 782.0 -459.0C806.0 -463.0 820.0 -455.0 826.0 -443.0Z"/></g>
<g fill="black" opacity=".8" transform="translate(400 200) scale(0.1 -0.1)"><path d="M0.0 0.0V-240.0H19.0C74.0 -240.0 137.0 -211.0 137.0 -199.0V-28.0H725.0V0.0H148.0L0.0 56.0ZM666.0 0.0V-207.0H690.0C734.0 -207.0 805.0 -186.0 806.0 -179.0V-51.0C827.0 -46.0 840.0 -37.0 846.0 -29.0L716.0 67.0L656.0 0.0ZM557.0 -201.0 550.0 -207.0C571.0 -227.0 594.0 -265.0 598.0 -300.0C698.0 -362.0 788.0 -179.0 557.0 -201.0ZM663.0 -368.0C590.0 -592.0 434.0 -767.0 276.0 -866.0L284.0 -876.0C493.0 -806.0 663.0 -689.0 782.0 -459.0C806.0 -463.0 820.0 -455.0 826.0 -443.0Z"/></g>
<g fill="red" transform="translate(500 200) scale(0.1 -0.1)"><path d="M0.0 0.0V-192.0H7.0C25.0 -192.0 44.0 -182.0 44.0 -178.0V-29.0H709.0V0.0H50.0L0.0 26.0ZM683.0 0.0V-187.0H689.0C703.0 -187.0 726.0 -175.0 727.0 -169.0V-39.0C746.0 -35.0 763.0 -27.0 770.0 -20.0L701.0 32.0L673.0 0.0ZM550.0 -322.0 541.0 -335.0C597.0 -355.0 671.0 -402.0 699.0 -441.0C757.0 -461.0 759.0 -347.0 550.0 -322.0ZM540.0 -182.0C537.0 -312.0 529.0 -371.0 364.0 -418.0L374.0 -440.0C565.0 -398.0 576.0 -328.0 585.0 -215.0C604.0 -212.0 613.0 -201.0 614.0 -190.0Z"/></g>
<g fill="black" opacity=".8" transform="translate(500 200) scale(0.1 -0.1)"><path d="M0.0 0.0V-192.0H7.0C25.0 -192.0 44.0 -181.0 44.0 -178.0V-29.0H709.0V0.0H50.0L0.0 26.0ZM683.0 0.0V-187.0H689.0C703.0 -187.0 726.0 -175.0 727.0 -169.0V-39.0C746.0 -35.0 763.0 -27.0 770.0 -20.0L701.0 32.0L673.0 0.0ZM550.0 -322.0 541.0 -335.0C597.0 -355.0 671.0 -402.0 699.0 -440.0C757.0 -461.0 759.0 -347.0 550.0 -322.0ZM540.0 -182.0C537.0 -313.0 529.0 -371.0 364.0 -418.0L375.0 -441.0C566.0 -398.0 576.0 -327.0 585.0 -215.0C604.0 -212.0 612.0 -201.0 614.0 -190.0Z"/></g>
<g fill="red" transform="translate(600 200) scale(0.1 -0.1)"><path d="M0.0 0.0V-199.0H19.0C74.0 -199.0 137.0 -170.0 137.0 -159.0V-28.0H706.0V0.0H148.0L0.0 55.0ZM650.0 0.0V-190.0H675.0C720.0 -190.0 789.0 -165.0 790.0 -157.0V-49.0C810.0 -45.0 822.0 -36.0 828.0 -29.0L701.0 65.0L640.0 0.0ZM600.0 -319.0 593.0 -326.0C629.0 -353.0 678.0 -402.0 700.0 -443.0C808.0 -482.0 850.0 -286.0 600.0 -319.0ZM532.0 -181.0C530.0 -303.0 525.0 -374.0 385.0 -430.0L392.0 -447.0C621.0 -407.0 638.0 -331.0 650.0 -222.0C672.0 -220.0 681.0 -209.0 683.0 -197.0Z"/></g>
<g fill="black" opacity=".8" transform="translate(600 200) scale(0.1 -0.1)"><path d="M0.0 0.0V-199.0H19.0C75.0 -199.0 137.0 -170.0 137.0 -159.0V-27.0H706.0V0.0H148.0L0.0 55.0ZM650.0 0.0V-190.0H675.0C720.0 -190.0 789.0 -165.0 790.0 -157.0V-49.0C810.0 -45.0 822.0 -37.0 828.0 -28.0L701.0 65.0L640.0 0.0ZM600.0 -319.0 593.0 -326.0C629.0 -353.0 678.0 -402.0 700.0 -443.0C808.0 -482.0 850.0 -286.0 600.0 -319.0ZM532.0 -181.0C530.0 -303.0 525.0 -374.0 385.0 -430.0L392.0 -447.0C621.0 -407.0 638.0 -331.0 649.0 -222.0C673.0 -220.0 681.0 -209.0 683.0 -197.0Z"/></g>
</svg>
