<?xml version="1.0" encoding="UTF-8"?>
<svg width="1700" height="300" xmlns="http://www.w3.org/2000/svg">
<rect width="100%" height="100%" fill="white"/>
<g fill="green" transform="translate(100 100) scale(0.1 -0.1)"><path d="M-0.0 0.0 11.0 -42.0H892.0C910.0 -42.0 924.0 -35.0 927.0 -19.0C890.0 19.0 826.0 74.0 826.0 74.0L772.0 0.0ZM9.0 -360.0 20.0 -402.0H798.0C817.0 -402.0 830.0 -395.0 834.0 -379.0C792.0 -341.0 727.0 -291.0 727.0 -291.0L670.0 -360.0ZM-46.0 -547.0 -34.0 -589.0H856.0C876.0 -589.0 888.0 -583.0 893.0 -567.0C850.0 -528.0 784.0 -478.0 784.0 -478.0L726.0 -547.0ZM-5.0 263.0 4.0 222.0H895.0V263.0ZM40.0 -99.0 53.0 -141.0H713.0V-99.0ZM351.0 336.0V-819.0H363.0C387.0 -819.0 414.0 -802.0 414.0 -789.0V287.0C445.0 292.0 455.0 305.0 459.0 323.0ZM700.0 369.0V-36.0H708.0C730.0 -36.0 761.0 -19.0 762.0 -12.0V310.0C792.0 316.0 820.0 328.0 830.0 340.0L728.0 417.0L684.0 369.0Z"/></g>
<g fill="green" transform="translate(200 100) scale(0.1 -0.1)"><path d="M0.0 0.0 11.0 -40.0H875.0C894.0 -40.0 907.0 -33.0 910.0 -17.0C877.0 29.0 810.0 99.0 810.0 99.0L753.0 0.0ZM5.0 -379.0 17.0 -418.0H820.0C841.0 -418.0 856.0 -411.0 860.0 -396.0C796.0 -340.0 691.0 -260.0 691.0 -260.0L597.0 -379.0ZM-25.0 -573.0 -13.0 -612.0H859.0C879.0 -612.0 895.0 -605.0 898.0 -590.0C833.0 -532.0 724.0 -449.0 724.0 -449.0L626.0 -573.0ZM-51.0 255.0 -42.0 216.0H801.0V255.0ZM15.0 -104.0 28.0 -143.0H641.0V-104.0ZM244.0 352.0V-855.0H283.0C356.0 -855.0 444.0 -809.0 444.0 -790.0V291.0C480.0 296.0 488.0 311.0 491.0 329.0ZM576.0 363.0V-36.0H611.0C674.0 -36.0 778.0 -6.0 779.0 3.0V288.0C811.0 294.0 830.0 308.0 839.0 321.0L649.0 462.0L561.0 363.0Z"/></g>
<g fill="green" transform="translate(300 100) scale(0.1 -0.1)"><path d="M0.0 0.0 9.0 -34.0H667.0C681.0 -34.0 692.0 -28.0 695.0 -15.0C666.0 15.0 615.0 60.0 615.0 60.0L573.0 0.0ZM-6.0 -294.0 2.0 -328.0H594.0C610.0 -328.0 620.0 -322.0 623.0 -309.0C590.0 -279.0 538.0 -239.0 538.0 -239.0L493.0 -294.0ZM-43.0 -447.0 -33.0 -481.0H634.0C651.0 -481.0 660.0 -476.0 664.0 -463.0C630.0 -432.0 577.0 -392.0 577.0 -392.0L531.0 -447.0ZM-24.0 196.0 -16.0 163.0H744.0V196.0ZM15.0 -93.0 26.0 -127.0H530.0V-93.0ZM247.0 277.0V-669.0H257.0C276.0 -669.0 298.0 -656.0 298.0 -645.0V237.0C323.0 241.0 331.0 252.0 335.0 267.0ZM523.0 327.0V2.0H529.0C547.0 2.0 572.0 16.0 572.0 21.0V278.0C597.0 283.0 621.0 293.0 629.0 303.0L545.0 366.0L509.0 327.0Z"/></g>
<g fill="green" transform="translate(400 100) scale(0.1 -0.1)"><path d="M0.0 0.0 9.0 -32.0H641.0C656.0 -32.0 667.0 -27.0 669.0 -14.0C645.0 22.0 595.0 77.0 595.0 77.0L553.0 0.0ZM-10.0 -311.0 0.0 -343.0H608.0C625.0 -343.0 636.0 -337.0 640.0 -325.0C589.0 -280.0 505.0 -215.0 505.0 -215.0L430.0 -311.0ZM-23.0 -471.0 -13.0 -503.0H632.0C648.0 -503.0 661.0 -497.0 663.0 -485.0C611.0 -438.0 524.0 -371.0 524.0 -371.0L446.0 -471.0ZM-71.0 187.0 -64.0 156.0H658.0V187.0ZM-8.0 -98.0 3.0 -129.0H466.0V-98.0ZM155.0 288.0V-702.0H187.0C245.0 -702.0 315.0 -665.0 315.0 -650.0V238.0C344.0 243.0 351.0 255.0 353.0 270.0ZM415.0 320.0V3.0H443.0C493.0 3.0 578.0 26.0 578.0 33.0V259.0C605.0 264.0 621.0 275.0 628.0 286.0L474.0 401.0L403.0 320.0Z"/></g>
<g fill="green" transform="translate(500 100) scale(0.1 -0.1)"><path d="M0.0 0.0 11.0 -39.0H964.0C981.0 -39.0 994.0 -33.0 996.0 -18.0C961.0 16.0 903.0 65.0 903.0 65.0L853.0 0.0ZM73.0 -234.0 84.0 -272.0H865.0C883.0 -272.0 895.0 -266.0 899.0 -251.0C859.0 -219.0 801.0 -177.0 801.0 -177.0L749.0 -234.0ZM-4.0 -351.0 8.0 -389.0H940.0C959.0 -389.0 970.0 -384.0 975.0 -370.0C933.0 -335.0 872.0 -292.0 872.0 -292.0L819.0 -351.0ZM5.0 458.0 3.0 420.0H687.0V458.0ZM98.0 161.0 109.0 124.0H777.0V161.0ZM427.0 194.0V-527.0H439.0C461.0 -527.0 485.0 -511.0 485.0 -501.0V159.0C504.0 162.0 513.0 171.0 516.0 183.0ZM774.0 364.0V138.0H781.0C801.0 138.0 830.0 153.0 831.0 160.0V315.0C853.0 320.0 875.0 330.0 883.0 339.0L799.0 402.0L761.0 364.0Z"/></g>
<g fill="green" transform="translate(600 100) scale(0.1 -0.1)"><path d="M0.0 0.0 10.0 -37.0H951.0C969.0 -37.0 982.0 -30.0 985.0 -16.0C945.0 29.0 871.0 95.0 871.0 95.0L807.0 0.0ZM54.0 -237.0 65.0 -273.0H865.0C884.0 -273.0 897.0 -266.0 902.0 -253.0C844.0 -208.0 754.0 -148.0 754.0 -148.0L673.0 -237.0ZM-14.0 -354.0 -3.0 -390.0H931.0C950.0 -390.0 964.0 -384.0 967.0 -370.0C909.0 -322.0 816.0 -257.0 816.0 -257.0L733.0 -354.0ZM-15.0 450.0 -16.0 414.0H607.0V450.0ZM83.0 162.0 95.0 126.0H704.0V162.0ZM319.0 213.0V-527.0H358.0C422.0 -527.0 509.0 -491.0 509.0 -477.0V170.0C531.0 173.0 535.0 183.0 537.0 195.0ZM643.0 355.0V140.0H676.0C734.0 140.0 834.0 165.0 834.0 173.0V289.0C862.0 294.0 876.0 306.0 884.0 317.0L710.0 443.0L629.0 355.0Z"/></g>
<g fill="green" transform="translate(700 100) scale(0.1 -0.1)"><path d="M-0.0 0.0 10.0 -36.0H889.0C905.0 -36.0 918.0 -30.0 920.0 -16.0C883.0 17.0 823.0 62.0 823.0 62.0L772.0 0.0ZM22.0 -339.0 33.0 -375.0H791.0C808.0 -375.0 820.0 -369.0 823.0 -355.0C787.0 -321.0 729.0 -276.0 729.0 -276.0L679.0 -339.0ZM-53.0 -517.0 -42.0 -554.0H866.0C883.0 -554.0 895.0 -548.0 899.0 -534.0C861.0 -499.0 803.0 -455.0 803.0 -455.0L751.0 -517.0ZM84.0 189.0 94.0 153.0H610.0V189.0ZM67.0 -156.0 77.0 -193.0H716.0V-156.0ZM380.0 321.0V-775.0H390.0C411.0 -775.0 434.0 -760.0 434.0 -749.0V275.0C465.0 280.0 474.0 292.0 477.0 309.0ZM676.0 113.0V-330.0H682.0C701.0 -330.0 729.0 -315.0 730.0 -308.0V68.0C752.0 73.0 772.0 82.0 779.0 91.0L700.0 153.0L664.0 113.0Z"/></g>
<g fill="green" transform="translate(800 100) scale(0.1 -0.1)"><path d="M0.0 0.0 10.0 -35.0H933.0C950.0 -35.0 961.0 -29.0 964.0 -15.0C928.0 27.0 860.0 89.0 860.0 89.0L802.0 0.0ZM34.0 -356.0 45.0 -390.0H851.0C869.0 -390.0 883.0 -384.0 886.0 -371.0C829.0 -320.0 735.0 -247.0 735.0 -247.0L651.0 -356.0ZM-20.0 -537.0 -9.0 -571.0H907.0C924.0 -571.0 938.0 -565.0 941.0 -552.0C882.0 -500.0 784.0 -424.0 784.0 -424.0L697.0 -537.0ZM95.0 194.0 106.0 160.0H588.0V194.0ZM62.0 -159.0 73.0 -193.0H690.0V-159.0ZM325.0 336.0V-810.0H359.0C424.0 -810.0 500.0 -768.0 500.0 -751.0V280.0C534.0 284.0 542.0 298.0 545.0 315.0ZM633.0 118.0V-334.0H661.0C715.0 -334.0 796.0 -305.0 797.0 -296.0V59.0C821.0 64.0 837.0 74.0 844.0 84.0L693.0 197.0L621.0 118.0Z"/></g>
<g fill="green" transform="translate(900 100) scale(0.1 -0.1)"><path d="M0.0 0.0 10.0 -35.0H876.0C891.0 -35.0 903.0 -29.0 905.0 -15.0C874.0 19.0 818.0 69.0 818.0 69.0L770.0 0.0ZM39.0 -344.0 49.0 -379.0H816.0C832.0 -379.0 843.0 -374.0 845.0 -360.0C808.0 -327.0 749.0 -279.0 749.0 -279.0L697.0 -344.0ZM1.0 -522.0 12.0 -558.0H854.0C871.0 -558.0 882.0 -553.0 885.0 -539.0C847.0 -504.0 787.0 -457.0 787.0 -457.0L734.0 -522.0ZM35.0 144.0 46.0 110.0H1057.0V144.0ZM72.0 -171.0 83.0 -207.0H722.0V-171.0ZM386.0 315.0V-777.0H397.0C417.0 -777.0 439.0 -763.0 439.0 -751.0V271.0C469.0 275.0 478.0 287.0 482.0 304.0ZM720.0 362.0V-19.0H726.0C745.0 -19.0 771.0 -4.0 772.0 0.0V309.0C801.0 314.0 826.0 325.0 835.0 336.0L743.0 406.0L705.0 362.0Z"/></g>
<g fill="green" transform="translate(1000 100) scale(0.1 -0.1)"><path d="M0.0 0.0 9.0 -34.0H872.0C889.0 -34.0 900.0 -28.0 903.0 -14.0C873.0 31.0 808.0 102.0 808.0 102.0L752.0 0.0ZM28.0 -356.0 39.0 -388.0H831.0C850.0 -388.0 862.0 -382.0 866.0 -370.0C806.0 -320.0 709.0 -249.0 709.0 -249.0L622.0 -356.0ZM-5.0 -539.0 5.0 -571.0H851.0C869.0 -571.0 881.0 -566.0 884.0 -553.0C824.0 -500.0 721.0 -426.0 721.0 -426.0L631.0 -539.0ZM-33.0 138.0 -22.0 105.0H959.0V138.0ZM37.0 -178.0 48.0 -211.0H656.0V-178.0ZM300.0 343.0V-800.0H334.0C400.0 -800.0 476.0 -757.0 476.0 -740.0V287.0C510.0 292.0 518.0 305.0 521.0 322.0ZM596.0 359.0V-20.0H629.0C689.0 -20.0 780.0 11.0 781.0 21.0V294.0C807.0 300.0 822.0 311.0 830.0 322.0L663.0 448.0L583.0 359.0Z"/></g>
<g fill="red" transform="translate(100 200) scale(0.1 -0.1)"><path d="M0.0 0.0 8.0 -30.0H669.0C682.0 -30.0 692.0 -25.0 694.0 -14.0C666.0 13.0 618.0 50.0 618.0 50.0L578.0 0.0ZM7.0 -279.0 15.0 -309.0H615.0C629.0 -309.0 639.0 -304.0 641.0 -293.0C612.0 -265.0 566.0 -229.0 566.0 -229.0L525.0 -279.0ZM-46.0 -426.0 -38.0 -456.0H647.0C661.0 -456.0 670.0 -451.0 673.0 -440.0C643.0 -412.0 597.0 -376.0 597.0 -376.0L555.0 -426.0ZM47.0 138.0 56.0 109.0H539.0V138.0ZM41.0 -138.0 50.0 -168.0H533.0V-138.0ZM272.0 271.0V-637.0H280.0C297.0 -637.0 316.0 -625.0 316.0 -616.0V234.0C341.0 238.0 348.0 248.0 351.0 262.0ZM510.0 138.0V-222.0H516.0C531.0 -222.0 553.0 -210.0 554.0 -204.0V99.0C574.0 103.0 591.0 111.0 598.0 119.0L530.0 171.0L500.0 138.0Z"/></g>
<g fill="black" opacity=".8" transform="translate(100 200) scale(0.1 -0.1)"><path d="M0.0 0.0 8.0 -29.0H674.0C687.0 -29.0 697.0 -24.0 699.0 -13.0C670.0 14.0 622.0 51.0 622.0 51.0L582.0 0.0ZM7.0 -279.0 15.0 -309.0H600.0C614.0 -309.0 623.0 -304.0 625.0 -292.0C597.0 -265.0 550.0 -229.0 550.0 -229.0L510.0 -279.0ZM-45.0 -426.0 -35.0 -456.0H652.0C666.0 -456.0 675.0 -451.0 679.0 -440.0C648.0 -412.0 601.0 -376.0 601.0 -376.0L560.0 -426.0ZM46.0 136.0 55.0 107.0H548.0V136.0ZM39.0 -140.0 48.0 -170.0H541.0V-140.0ZM276.0 266.0V-638.0H285.0C301.0 -638.0 320.0 -627.0 320.0 -617.0V228.0C345.0 232.0 353.0 243.0 356.0 257.0ZM515.0 137.0V-217.0H519.0C535.0 -217.0 558.0 -205.0 558.0 -200.0V98.0C577.0 103.0 595.0 110.0 601.0 118.0L534.0 170.0L504.0 137.0Z"/></g>
<g fill="red" transform="translate(200 200) scale(0.1 -0.1)"><path d="M0.0 0.0 8.0 -28.0H692.0C705.0 -28.0 714.0 -23.0 717.0 -12.0C690.0 21.0 640.0 70.0 640.0 70.0L596.0 0.0ZM23.0 -298.0 31.0 -326.0H641.0C655.0 -326.0 666.0 -321.0 669.0 -310.0C623.0 -269.0 547.0 -209.0 547.0 -209.0L479.0 -298.0ZM-15.0 -444.0 -7.0 -472.0H675.0C689.0 -472.0 701.0 -467.0 703.0 -456.0C656.0 -414.0 577.0 -352.0 577.0 -352.0L506.0 -444.0ZM46.0 141.0 55.0 113.0H531.0V141.0ZM36.0 -140.0 45.0 -168.0H540.0V-140.0ZM227.0 281.0V-668.0H253.0C305.0 -668.0 365.0 -634.0 365.0 -620.0V235.0C393.0 239.0 400.0 250.0 402.0 264.0ZM465.0 141.0V-221.0H489.0C534.0 -221.0 603.0 -197.0 604.0 -190.0V91.0C625.0 95.0 638.0 104.0 644.0 112.0L516.0 209.0L455.0 141.0Z"/></g>
<g fill="black" opacity=".8" transform="translate(200 200) scale(0.1 -0.1)"><path d="M0.0 0.0 8.0 -28.0H695.0C709.0 -28.0 718.0 -24.0 720.0 -12.0C694.0 21.0 642.0 71.0 642.0 71.0L599.0 0.0ZM14.0 -294.0 24.0 -323.0H642.0C657.0 -323.0 667.0 -317.0 670.0 -307.0C624.0 -266.0 548.0 -206.0 548.0 -206.0L480.0 -294.0ZM-18.0 -445.0 -9.0 -473.0H678.0C692.0 -473.0 703.0 -468.0 705.0 -458.0C657.0 -415.0 578.0 -353.0 578.0 -353.0L508.0 -445.0ZM41.0 137.0 49.0 110.0H516.0V137.0ZM30.0 -143.0 40.0 -171.0H512.0V-143.0ZM224.0 278.0V-670.0H252.0C304.0 -670.0 365.0 -635.0 365.0 -622.0V231.0C393.0 236.0 400.0 247.0 402.0 261.0ZM467.0 138.0V-220.0H490.0C533.0 -220.0 601.0 -197.0 601.0 -190.0V90.0C622.0 94.0 635.0 102.0 641.0 110.0L516.0 205.0L457.0 138.0Z"/></g>
<g fill="red" transform="translate(300 200) scale(0.1 -0.1)"><path d="M0.0 0.0 8.0 -29.0H669.0C682.0 -29.0 692.0 -24.0 694.0 -13.0C666.0 14.0 618.0 51.0 618.0 51.0L578.0 0.0ZM3.0 -278.0 11.0 -308.0H575.0C589.0 -308.0 598.0 -303.0 601.0 -292.0C571.0 -264.0 525.0 -228.0 525.0 -228.0L484.0 -278.0ZM-46.0 -425.0 -38.0 -455.0H647.0C661.0 -455.0 670.0 -450.0 673.0 -439.0C643.0 -411.0 597.0 -375.0 597.0 -375.0L555.0 -425.0ZM39.0 139.0 48.0 110.0H544.0V139.0ZM33.0 -137.0 42.0 -167.0H539.0V-137.0ZM273.0 261.0V-638.0H281.0C298.0 -638.0 317.0 -626.0 317.0 -617.0V224.0C342.0 228.0 349.0 238.0 352.0 252.0ZM508.0 139.0V-209.0H514.0C529.0 -209.0 551.0 -197.0 552.0 -191.0V100.0C572.0 104.0 589.0 112.0 596.0 120.0L528.0 172.0L498.0 139.0Z"/></g>
<g fill="black" opacity=".8" transform="translate(300 200) scale(0.1 -0.1)"><path d="M0.0 0.0 8.0 -30.0H665.0C677.0 -30.0 688.0 -24.0 690.0 -13.0C661.0 14.0 613.0 51.0 613.0 51.0L573.0 0.0ZM3.0 -279.0 11.0 -308.0H589.0C603.0 -308.0 613.0 -303.0 615.0 -291.0C586.0 -264.0 539.0 -228.0 539.0 -228.0L500.0 -279.0ZM-48.0 -425.0 -39.0 -455.0H641.0C656.0 -455.0 665.0 -450.0 668.0 -439.0C638.0 -411.0 591.0 -375.0 591.0 -375.0L549.0 -425.0ZM41.0 142.0 50.0 113.0H536.0V142.0ZM35.0 -135.0 44.0 -165.0H532.0V-135.0ZM268.0 266.0V-637.0H277.0C294.0 -637.0 313.0 -625.0 313.0 -616.0V228.0C338.0 232.0 345.0 243.0 348.0 257.0ZM505.0 140.0V-213.0H510.0C526.0 -213.0 549.0 -200.0 549.0 -195.0V101.0C568.0 105.0 586.0 113.0 592.0 121.0L525.0 173.0L494.0 140.0Z"/></g>
<g fill="red" transform="translate(400 200) scale(0.1 -0.1)"><path d="M0.0 0.0 8.0 -28.0H687.0C700.0 -28.0 710.0 -23.0 712.0 -12.0C685.0 21.0 635.0 70.0 635.0 70.0L592.0 0.0ZM4.0 -291.0 12.0 -319.0H631.0C646.0 -319.0 657.0 -314.0 659.0 -303.0C614.0 -262.0 537.0 -202.0 537.0 -202.0L469.0 -291.0ZM-21.0 -446.0 -13.0 -474.0H669.0C683.0 -474.0 695.0 -469.0 697.0 -458.0C650.0 -416.0 571.0 -354.0 571.0 -354.0L500.0 -446.0ZM31.0 139.0 40.0 111.0H487.0V139.0ZM21.0 -142.0 30.0 -170.0H477.0V-142.0ZM213.0 273.0V-672.0H240.0C293.0 -672.0 355.0 -637.0 355.0 -623.0V227.0C383.0 231.0 390.0 242.0 392.0 256.0ZM458.0 139.0V-215.0H480.0C522.0 -215.0 588.0 -192.0 589.0 -185.0V90.0C609.0 94.0 623.0 103.0 629.0 111.0L506.0 203.0L448.0 139.0Z"/></g>
<g fill="black" opacity=".8" transform="translate(400 200) scale(0.1 -0.1)"><path d="M0.0 0.0 8.0 -28.0H683.0C697.0 -28.0 706.0 -24.0 708.0 -13.0C682.0 21.0 632.0 70.0 632.0 70.0L589.0 0.0ZM11.0 -294.0 20.0 -323.0H631.0C645.0 -323.0 656.0 -317.0 659.0 -307.0C613.0 -265.0 537.0 -206.0 537.0 -206.0L469.0 -294.0ZM-19.0 -445.0 -10.0 -473.0H667.0C681.0 -473.0 692.0 -468.0 694.0 -457.0C647.0 -415.0 568.0 -353.0 568.0 -353.0L498.0 -445.0ZM36.0 142.0 44.0 115.0H502.0V142.0ZM26.0 -138.0 36.0 -166.0H502.0V-138.0ZM214.0 276.0V-669.0H243.0C295.0 -669.0 356.0 -635.0 356.0 -622.0V230.0C383.0 234.0 390.0 246.0 392.0 260.0ZM457.0 141.0V-215.0H480.0C523.0 -215.0 591.0 -192.0 591.0 -185.0V92.0C612.0 96.0 626.0 104.0 632.0 113.0L506.0 207.0L447.0 141.0Z"/></g>
<g fill="red" transform="translate(500 200) scale(0.1 -0.1)"><path d="M0.0 0.0 9.0 -29.0H895.0C909.0 -29.0 919.0 -24.0 920.0 -13.0C890.0 16.0 840.0 55.0 840.0 55.0L795.0 0.0ZM70.0 -287.0 79.0 -317.0H829.0C843.0 -317.0 853.0 -312.0 854.0 -301.0C823.0 -272.0 772.0 -232.0 772.0 -232.0L727.0 -287.0ZM8.0 -437.0 17.0 -467.0H889.0C903.0 -467.0 913.0 -462.0 915.0 -451.0C882.0 -421.0 831.0 -381.0 831.0 -381.0L785.0 -437.0ZM115.0 139.0 124.0 110.0H747.0V139.0ZM112.0 -142.0 121.0 -172.0H744.0V-142.0ZM435.0 258.0V-650.0H444.0C460.0 -650.0 479.0 -638.0 479.0 -629.0V221.0C504.0 225.0 512.0 235.0 515.0 249.0ZM721.0 139.0V-221.0H726.0C741.0 -221.0 764.0 -209.0 765.0 -204.0V100.0C785.0 104.0 801.0 112.0 808.0 120.0L740.0 172.0L711.0 139.0Z"/></g>
<g fill="black" opacity=".8" transform="translate(500 200) scale(0.1 -0.1)"><path d="M0.0 0.0 9.0 -29.0H895.0C908.0 -29.0 919.0 -24.0 920.0 -12.0C889.0 16.0 839.0 56.0 839.0 56.0L795.0 0.0ZM70.0 -288.0 80.0 -316.0H830.0C844.0 -316.0 854.0 -312.0 855.0 -300.0C824.0 -273.0 773.0 -231.0 773.0 -231.0L729.0 -288.0ZM8.0 -437.0 18.0 -467.0H888.0C902.0 -467.0 913.0 -462.0 915.0 -451.0C882.0 -420.0 830.0 -381.0 830.0 -381.0L784.0 -437.0ZM115.0 139.0 124.0 110.0H747.0V139.0ZM113.0 -142.0 121.0 -172.0H744.0V-142.0ZM434.0 259.0V-650.0H443.0C460.0 -650.0 478.0 -638.0 478.0 -629.0V222.0C504.0 225.0 512.0 235.0 515.0 249.0ZM722.0 138.0V-221.0H726.0C741.0 -221.0 764.0 -209.0 765.0 -205.0V101.0C785.0 104.0 801.0 112.0 807.0 120.0L740.0 172.0L711.0 138.0Z"/></g>
<g fill="red" transform="translate(600 200) scale(0.1 -0.1)"><path d="M0.0 0.0 8.0 -28.0H946.0C960.0 -28.0 970.0 -23.0 973.0 -12.0C937.0 29.0 870.0 92.0 870.0 92.0L811.0 0.0ZM68.0 -292.0 76.0 -320.0H872.0C887.0 -320.0 898.0 -315.0 901.0 -304.0C849.0 -262.0 766.0 -203.0 766.0 -203.0L692.0 -292.0ZM3.0 -441.0 11.0 -469.0H914.0C929.0 -469.0 940.0 -464.0 943.0 -453.0C890.0 -409.0 802.0 -346.0 802.0 -346.0L725.0 -441.0ZM105.0 144.0 114.0 116.0H714.0V144.0ZM98.0 -146.0 107.0 -174.0H716.0V-146.0ZM394.0 287.0V-662.0H422.0C479.0 -662.0 544.0 -625.0 544.0 -611.0V240.0C572.0 244.0 579.0 255.0 581.0 269.0ZM666.0 144.0V-226.0H692.0C742.0 -226.0 812.0 -196.0 813.0 -187.0V96.0C831.0 100.0 842.0 108.0 848.0 115.0L720.0 212.0L656.0 144.0Z"/></g>
<g fill="black" opacity=".8" transform="translate(600 200) scale(0.1 -0.1)"><path d="M0.0 0.0 8.0 -29.0H945.0C960.0 -29.0 970.0 -24.0 973.0 -12.0C938.0 29.0 870.0 92.0 870.0 92.0L811.0 0.0ZM68.0 -293.0 78.0 -320.0H872.0C887.0 -320.0 898.0 -315.0 901.0 -305.0C849.0 -263.0 766.0 -204.0 766.0 -204.0L692.0 -293.0ZM3.0 -441.0 12.0 -468.0H914.0C930.0 -468.0 939.0 -464.0 942.0 -453.0C890.0 -409.0 801.0 -346.0 801.0 -346.0L725.0 -441.0ZM105.0 144.0 114.0 116.0H715.0V144.0ZM98.0 -145.0 107.0 -173.0H718.0V-145.0ZM393.0 287.0V-661.0H423.0C479.0 -661.0 544.0 -625.0 544.0 -611.0V241.0C572.0 244.0 579.0 255.0 582.0 269.0ZM666.0 144.0V-225.0H692.0C743.0 -225.0 813.0 -197.0 813.0 -187.0V96.0C831.0 100.0 842.0 107.0 848.0 115.0L720.0 212.0L656.0 144.0Z"/></g>
<g fill="red" transform="translate(700 200) scale(0.1 -0.1)"><path d="M0.0 0.0 8.0 -30.0H745.0C759.0 -30.0 768.0 -25.0 770.0 -14.0C744.0 13.0 700.0 52.0 700.0 52.0L661.0 0.0ZM58.0 -192.0 66.0 -222.0H678.0C692.0 -222.0 701.0 -217.0 704.0 -206.0C673.0 -180.0 627.0 -147.0 627.0 -147.0L586.0 -192.0ZM7.0 -289.0 16.0 -318.0H728.0C742.0 -318.0 751.0 -314.0 754.0 -303.0C722.0 -276.0 674.0 -242.0 674.0 -242.0L632.0 -289.0ZM-1.0 325.0V295.0H642.0V325.0ZM76.0 97.0 85.0 68.0H605.0V97.0ZM333.0 160.0V-431.0H342.0C359.0 -431.0 378.0 -419.0 378.0 -411.0V132.0C393.0 135.0 400.0 142.0 402.0 152.0ZM609.0 325.0V146.0H615.0C630.0 146.0 652.0 158.0 653.0 163.0V285.0C672.0 289.0 690.0 297.0 697.0 305.0L628.0 356.0L599.0 325.0Z"/></g>
<g fill="black" opacity=".8" transform="translate(700 200) scale(0.1 -0.1)"><path d="M0.0 0.0 9.0 -30.0H746.0C759.0 -30.0 769.0 -25.0 770.0 -13.0C744.0 13.0 699.0 53.0 699.0 53.0L661.0 0.0ZM58.0 -192.0 66.0 -222.0H678.0C692.0 -222.0 701.0 -217.0 704.0 -205.0C673.0 -181.0 627.0 -147.0 627.0 -147.0L587.0 -192.0ZM7.0 -289.0 17.0 -318.0H727.0C743.0 -318.0 751.0 -314.0 754.0 -303.0C722.0 -276.0 673.0 -242.0 673.0 -242.0L632.0 -289.0ZM-1.0 325.0V296.0H643.0V325.0ZM76.0 97.0 85.0 68.0H606.0V97.0ZM333.0 160.0V-432.0H342.0C359.0 -432.0 378.0 -420.0 378.0 -411.0V132.0C393.0 134.0 400.0 142.0 403.0 152.0ZM610.0 325.0V147.0H615.0C631.0 147.0 653.0 159.0 653.0 163.0V285.0C672.0 289.0 690.0 298.0 697.0 305.0L629.0 356.0L599.0 325.0Z"/></g>
<g fill="red" transform="translate(800 200) scale(0.1 -0.1)"><path d="M0.0 0.0 8.0 -28.0H729.0C743.0 -28.0 753.0 -23.0 755.0 -12.0C725.0 23.0 669.0 77.0 669.0 77.0L620.0 0.0ZM40.0 -194.0 48.0 -222.0H672.0C687.0 -222.0 697.0 -217.0 700.0 -206.0C654.0 -171.0 583.0 -124.0 583.0 -124.0L519.0 -194.0ZM-7.0 -291.0 1.0 -319.0H714.0C728.0 -319.0 739.0 -314.0 742.0 -303.0C696.0 -266.0 622.0 -214.0 622.0 -214.0L556.0 -291.0ZM-33.0 317.0V289.0H566.0V317.0ZM58.0 96.0 67.0 68.0H543.0V96.0ZM246.0 178.0V-431.0H275.0C326.0 -431.0 393.0 -402.0 393.0 -391.0V143.0C411.0 146.0 415.0 154.0 416.0 163.0ZM494.0 317.0V148.0H521.0C567.0 148.0 646.0 169.0 647.0 175.0V265.0C668.0 269.0 680.0 279.0 686.0 287.0L548.0 388.0L484.0 317.0Z"/></g>
<g fill="black" opacity=".8" transform="translate(800 200) scale(0.1 -0.1)"><path d="M0.0 0.0 8.0 -28.0H729.0C743.0 -28.0 753.0 -24.0 755.0 -13.0C725.0 23.0 668.0 77.0 668.0 77.0L619.0 0.0ZM40.0 -194.0 49.0 -222.0H672.0C687.0 -222.0 696.0 -216.0 701.0 -207.0C655.0 -171.0 583.0 -124.0 583.0 -124.0L519.0 -194.0ZM-8.0 -291.0 1.0 -319.0H714.0C729.0 -319.0 739.0 -314.0 741.0 -303.0C695.0 -265.0 621.0 -214.0 621.0 -214.0L556.0 -291.0ZM-33.0 317.0 -34.0 289.0H566.0V317.0ZM58.0 96.0 67.0 69.0H542.0V96.0ZM245.0 178.0V-431.0H276.0C326.0 -431.0 393.0 -402.0 393.0 -392.0V143.0C411.0 146.0 415.0 154.0 416.0 164.0ZM495.0 317.0V149.0H521.0C567.0 149.0 647.0 169.0 646.0 175.0V265.0C669.0 269.0 679.0 278.0 686.0 287.0L548.0 388.0L484.0 317.0Z"/></g>
<g fill="red" transform="translate(900 200) scale(0.1 -0.1)"><path d="M0.0 0.0 9.0 -30.0H887.0C901.0 -30.0 911.0 -25.0 912.0 -14.0C881.0 13.0 833.0 47.0 833.0 47.0L790.0 0.0ZM86.0 -189.0 95.0 -219.0H797.0C811.0 -219.0 821.0 -214.0 824.0 -203.0C793.0 -177.0 747.0 -144.0 747.0 -144.0L706.0 -189.0ZM-2.0 -286.0 7.0 -315.0H880.0C894.0 -315.0 904.0 -311.0 907.0 -300.0C874.0 -273.0 827.0 -239.0 827.0 -239.0L784.0 -286.0ZM95.0 350.0V321.0H375.0V350.0ZM122.0 94.0 130.0 65.0H721.0V94.0ZM429.0 157.0V-429.0H438.0C454.0 -429.0 473.0 -417.0 473.0 -410.0V129.0C489.0 132.0 496.0 139.0 498.0 149.0ZM696.0 94.0V-142.0H702.0C716.0 -142.0 739.0 -130.0 740.0 -124.0V63.0C753.0 66.0 765.0 72.0 770.0 78.0L715.0 120.0L689.0 94.0Z"/></g>
<g fill="black" opacity=".8" transform="translate(900 200) scale(0.1 -0.1)"><path d="M0.0 0.0 9.0 -29.0H887.0C901.0 -29.0 911.0 -25.0 912.0 -13.0C881.0 13.0 832.0 48.0 832.0 48.0L790.0 0.0ZM86.0 -190.0 96.0 -218.0H796.0C811.0 -218.0 821.0 -214.0 823.0 -202.0C792.0 -177.0 747.0 -144.0 747.0 -144.0L706.0 -190.0ZM-3.0 -286.0 7.0 -315.0H879.0C894.0 -315.0 904.0 -311.0 907.0 -300.0C874.0 -272.0 826.0 -239.0 826.0 -239.0L783.0 -286.0ZM94.0 345.0 93.0 315.0H379.0V345.0ZM122.0 95.0 129.0 67.0H723.0V95.0ZM428.0 157.0V-429.0H438.0C454.0 -429.0 472.0 -417.0 472.0 -410.0V129.0C489.0 131.0 496.0 139.0 498.0 148.0ZM697.0 94.0V-141.0H701.0C716.0 -141.0 740.0 -129.0 740.0 -124.0V63.0C753.0 66.0 765.0 73.0 769.0 78.0L715.0 120.0L689.0 94.0Z"/></g>
<g fill="red" transform="translate(1000 200) scale(0.1 -0.1)"><path d="M0.0 0.0 8.0 -28.0H935.0C949.0 -28.0 959.0 -23.0 962.0 -12.0C921.0 25.0 853.0 78.0 853.0 78.0L793.0 0.0ZM82.0 -189.0 90.0 -217.0H831.0C845.0 -217.0 856.0 -212.0 859.0 -201.0C813.0 -166.0 742.0 -119.0 742.0 -119.0L678.0 -189.0ZM3.0 -281.0 11.0 -309.0H902.0C916.0 -309.0 927.0 -304.0 930.0 -293.0C883.0 -256.0 809.0 -204.0 809.0 -204.0L744.0 -281.0ZM133.0 350.0V322.0H379.0V350.0ZM127.0 96.0 136.0 68.0H702.0V96.0ZM382.0 175.0V-425.0H411.0C462.0 -425.0 529.0 -396.0 529.0 -385.0V141.0C547.0 143.0 551.0 151.0 552.0 160.0ZM652.0 96.0V-144.0H676.0C720.0 -144.0 789.0 -121.0 789.0 -114.0V52.0C806.0 55.0 816.0 63.0 821.0 69.0L701.0 157.0L643.0 96.0Z"/></g>
<g fill="black" opacity=".8" transform="translate(1000 200) scale(0.1 -0.1)"><path d="M0.0 0.0 8.0 -29.0H934.0C949.0 -29.0 959.0 -23.0 962.0 -13.0C922.0 25.0 853.0 78.0 853.0 78.0L793.0 0.0ZM82.0 -189.0 91.0 -217.0H831.0C845.0 -217.0 855.0 -211.0 859.0 -202.0C813.0 -166.0 742.0 -119.0 742.0 -119.0L678.0 -189.0ZM-5.0 -281.0 4.0 -308.0H906.0C920.0 -308.0 931.0 -304.0 933.0 -293.0C886.0 -255.0 812.0 -204.0 812.0 -204.0L748.0 -281.0ZM127.0 350.0 128.0 322.0H373.0V350.0ZM126.0 98.0 135.0 70.0H700.0V98.0ZM380.0 175.0V-425.0H411.0C461.0 -425.0 529.0 -397.0 529.0 -386.0V142.0C546.0 144.0 550.0 151.0 552.0 161.0ZM652.0 96.0V-143.0H676.0C720.0 -143.0 789.0 -121.0 789.0 -114.0V52.0C806.0 56.0 816.0 62.0 821.0 69.0L701.0 157.0L642.0 96.0Z"/></g>
<g fill="red" transform="translate(1100 200) scale(0.1 -0.1)"><path d="M0.0 0.0 9.0 -30.0H887.0C901.0 -30.0 911.0 -25.0 912.0 -14.0C881.0 13.0 833.0 47.0 833.0 47.0L790.0 0.0ZM86.0 -189.0 95.0 -219.0H797.0C811.0 -219.0 821.0 -214.0 824.0 -203.0C793.0 -177.0 747.0 -144.0 747.0 -144.0L706.0 -189.0ZM-2.0 -286.0 7.0 -315.0H880.0C894.0 -315.0 904.0 -311.0 907.0 -300.0C874.0 -273.0 827.0 -239.0 827.0 -239.0L784.0 -286.0ZM92.0 336.0V306.0H387.0V336.0ZM121.0 94.0 129.0 65.0H725.0V94.0ZM429.0 157.0V-429.0H438.0C454.0 -429.0 473.0 -417.0 473.0 -410.0V129.0C489.0 132.0 496.0 139.0 498.0 149.0ZM696.0 94.0V-142.0H702.0C716.0 -142.0 739.0 -130.0 740.0 -124.0V63.0C753.0 66.0 765.0 72.0 770.0 78.0L715.0 120.0L689.0 94.0Z"/></g>
<g fill="black" opacity=".8" transform="translate(1100 200) scale(0.1 -0.1)"><path d="M0.0 0.0 9.0 -29.0H887.0C901.0 -29.0 911.0 -25.0 912.0 -13.0C881.0 13.0 832.0 48.0 832.0 48.0L790.0 0.0ZM86.0 -190.0 96.0 -218.0H797.0C811.0 -218.0 821.0 -214.0 824.0 -202.0C793.0 -178.0 747.0 -144.0 747.0 -144.0L707.0 -190.0ZM-2.0 -286.0 8.0 -316.0H880.0C894.0 -316.0 904.0 -311.0 908.0 -300.0C874.0 -273.0 826.0 -239.0 826.0 -239.0L784.0 -286.0ZM95.0 342.0 94.0 313.0H383.0V342.0ZM122.0 93.0 129.0 64.0H724.0V93.0ZM429.0 157.0V-430.0H438.0C455.0 -430.0 473.0 -418.0 473.0 -411.0V129.0C490.0 132.0 497.0 139.0 499.0 149.0ZM698.0 94.0V-142.0H702.0C717.0 -142.0 740.0 -130.0 741.0 -124.0V63.0C753.0 66.0 765.0 73.0 770.0 78.0L716.0 120.0L689.0 94.0Z"/></g>
<g fill="red" transform="translate(1200 200) scale(0.1 -0.1)"><path d="M0.0 0.0 8.0 -28.0H935.0C949.0 -28.0 959.0 -23.0 962.0 -12.0C921.0 25.0 853.0 78.0 853.0 78.0L793.0 0.0ZM82.0 -189.0 90.0 -217.0H831.0C845.0 -217.0 856.0 -212.0 859.0 -201.0C813.0 -166.0 742.0 -119.0 742.0 -119.0L678.0 -189.0ZM-12.0 -281.0 -4.0 -309.0H910.0C924.0 -309.0 935.0 -304.0 938.0 -293.0C892.0 -256.0 818.0 -204.0 818.0 -204.0L752.0 -281.0ZM124.0 346.0V318.0H370.0V346.0ZM125.0 96.0 134.0 68.0H700.0V96.0ZM382.0 177.0V-427.0H411.0C462.0 -427.0 529.0 -398.0 529.0 -387.0V142.0C547.0 145.0 551.0 153.0 552.0 162.0ZM652.0 96.0V-144.0H676.0C720.0 -144.0 789.0 -121.0 789.0 -114.0V52.0C806.0 55.0 816.0 63.0 821.0 69.0L701.0 157.0L643.0 96.0Z"/></g>
<g fill="black" opacity=".8" transform="translate(1200 200) scale(0.1 -0.1)"><path d="M0.0 0.0 8.0 -28.0H935.0C949.0 -28.0 959.0 -23.0 962.0 -13.0C922.0 25.0 853.0 79.0 853.0 79.0L793.0 0.0ZM82.0 -189.0 91.0 -217.0H831.0C846.0 -217.0 856.0 -211.0 860.0 -202.0C814.0 -166.0 743.0 -119.0 743.0 -119.0L679.0 -189.0ZM-5.0 -281.0 4.0 -309.0H906.0C921.0 -309.0 931.0 -304.0 934.0 -294.0C887.0 -256.0 812.0 -204.0 812.0 -204.0L748.0 -281.0ZM128.0 347.0V319.0H377.0V347.0ZM126.0 95.0 135.0 68.0H700.0V95.0ZM381.0 176.0V-426.0H412.0C462.0 -426.0 530.0 -397.0 530.0 -387.0V142.0C547.0 144.0 551.0 152.0 553.0 162.0ZM653.0 96.0V-144.0H676.0C721.0 -144.0 789.0 -122.0 789.0 -114.0V52.0C807.0 56.0 816.0 62.0 821.0 69.0L701.0 157.0L643.0 96.0Z"/></g>
</svg>
