<?xml version="1.0" encoding="UTF-8"?>
<svg width="1700" height="500" xmlns="http://www.w3.org/2000/svg">
<rect width="100%" height="100%" fill="white"/>
<g fill="green" transform="translate(100 100) scale(0.1 -0.1)"><path d="M0.0 -0.0V-155.0C-0.0 -298.0 -30.0 -436.0 -195.0 -550.0L-180.0 -567.0C30.0 -456.0 54.0 -290.0 54.0 -156.0V0.0H65.0L3.0 31.0L0.0 11.0ZM217.0 236.0 204.0 201.0H892.0V236.0ZM-87.0 -19.0 -101.0 -55.0H564.0V-19.0ZM23.0 -296.0 35.0 -334.0H569.0V-296.0ZM650.0 0.0V-469.0C650.0 -488.0 642.0 -497.0 617.0 -497.0C587.0 -497.0 443.0 -486.0 443.0 -486.0V-506.0C503.0 -511.0 540.0 -518.0 560.0 -529.0C577.0 -537.0 586.0 -551.0 590.0 -568.0C692.0 -557.0 703.0 -523.0 703.0 -475.0V-47.0C726.0 -43.0 747.0 -33.0 755.0 -23.0L669.0 39.0L639.0 0.0ZM312.0 0.0V-332.0H364.0V0.0ZM394.0 274.0 393.0 126.0H613.0V274.0ZM406.0 161.0C384.0 115.0 334.0 24.0 295.0 -23.0H318.0C365.0 14.0 420.0 82.0 452.0 121.0C476.0 122.0 490.0 123.0 500.0 132.0L430.0 200.0L392.0 161.0ZM130.0 250.0C65.0 132.0 -67.0 0.0 -196.0 -75.0L-183.0 -92.0C-38.0 -26.0 101.0 97.0 177.0 203.0C206.0 198.0 216.0 202.0 222.0 214.0Z"/></g>
<g fill="green" transform="translate(200 100) scale(0.1 -0.1)"><path d="M0.0 0.0V-170.0C0.0 -313.0 -22.0 -470.0 -182.0 -592.0L-176.0 -602.0C130.0 -500.0 164.0 -309.0 164.0 -170.0V0.0H189.0L25.0 55.0L0.0 12.0ZM252.0 220.0 239.0 186.0H878.0V220.0ZM-36.0 -5.0 -48.0 -39.0H572.0V-5.0ZM99.0 -270.0 111.0 -304.0H583.0V-270.0ZM621.0 -0.0V-421.0C621.0 -437.0 616.0 -445.0 595.0 -445.0C565.0 -445.0 416.0 -436.0 416.0 -436.0V-452.0C488.0 -462.0 515.0 -479.0 538.0 -501.0C560.0 -523.0 568.0 -555.0 573.0 -602.0C761.0 -588.0 788.0 -532.0 788.0 -436.0V-64.0C815.0 -58.0 832.0 -46.0 840.0 -36.0L682.0 85.0L608.0 -0.0ZM306.0 -0.0V-317.0H467.0V-0.0ZM478.0 253.0 477.0 107.0H706.0V253.0ZM372.0 135.0C359.0 97.0 331.0 30.0 306.0 -10.0H321.0C389.0 10.0 470.0 48.0 525.0 79.0C550.0 82.0 562.0 84.0 572.0 94.0L436.0 213.0L358.0 135.0ZM124.0 256.0C69.0 135.0 -52.0 1.0 -170.0 -68.0L-163.0 -78.0C13.0 -37.0 187.0 64.0 297.0 176.0C331.0 172.0 341.0 178.0 346.0 192.0Z"/></g>
<g fill="green" transform="translate(300 100) scale(0.1 -0.1)"><path d="M0.0 0.0V-81.0C0.0 -173.0 -28.0 -258.0 -164.0 -329.0L-154.0 -341.0C16.0 -274.0 38.0 -169.0 38.0 -82.0V0.0H45.0L3.0 21.0L0.0 7.0ZM149.0 227.0 137.0 203.0H710.0V227.0ZM-148.0 35.0 -161.0 10.0H382.0V35.0ZM-26.0 -179.0 -13.0 -207.0H405.0V-179.0ZM539.0 0.0V-274.0C539.0 -287.0 532.0 -294.0 514.0 -294.0C491.0 -294.0 381.0 -286.0 381.0 -286.0V-300.0C427.0 -303.0 455.0 -308.0 470.0 -316.0C482.0 -322.0 490.0 -331.0 492.0 -343.0C568.0 -335.0 576.0 -311.0 576.0 -277.0V-34.0C592.0 -31.0 608.0 -24.0 613.0 -16.0L552.0 27.0L531.0 0.0ZM258.0 0.0V-211.0H294.0V0.0ZM357.0 216.0 360.0 83.0H514.0V216.0ZM322.0 107.0C305.0 76.0 268.0 14.0 239.0 -17.0H255.0C289.0 8.0 330.0 53.0 353.0 79.0C370.0 80.0 380.0 80.0 387.0 87.0L338.0 134.0L312.0 107.0ZM100.0 162.0C48.0 89.0 -60.0 2.0 -164.0 -45.0L-156.0 -58.0C-40.0 -17.0 73.0 66.0 133.0 129.0C155.0 125.0 161.0 126.0 165.0 134.0Z"/></g>
<g fill="green" transform="translate(400 100) scale(0.1 -0.1)"><path d="M0.0 0.0V-95.0C0.0 -186.0 -21.0 -283.0 -156.0 -358.0L-153.0 -365.0C93.0 -307.0 123.0 -184.0 123.0 -95.0V0.0H142.0L21.0 39.0L0.0 8.0ZM170.0 214.0 157.0 190.0H687.0V214.0ZM-114.0 53.0 -125.0 29.0H381.0V53.0ZM34.0 -150.0 46.0 -174.0H412.0V-150.0ZM513.0 -0.0V-237.0C513.0 -248.0 509.0 -254.0 494.0 -254.0C470.0 -254.0 351.0 -247.0 351.0 -247.0V-258.0C408.0 -265.0 429.0 -278.0 447.0 -293.0C464.0 -309.0 470.0 -330.0 475.0 -363.0C617.0 -353.0 638.0 -314.0 638.0 -247.0V-48.0C658.0 -44.0 671.0 -34.0 677.0 -27.0L559.0 64.0L503.0 -0.0ZM249.0 -0.0V-195.0H375.0V-0.0ZM430.0 200.0 433.0 68.0H600.0V200.0ZM295.0 86.0C285.0 61.0 264.0 20.0 246.0 -6.0H257.0C306.0 5.0 366.0 27.0 407.0 46.0C425.0 48.0 433.0 49.0 440.0 56.0L342.0 142.0L285.0 86.0ZM99.0 165.0C54.0 91.0 -46.0 5.0 -143.0 -33.0L-140.0 -40.0C-1.0 -22.0 141.0 43.0 228.0 110.0C254.0 106.0 260.0 109.0 263.0 119.0Z"/></g>
<g fill="green" transform="translate(500 100) scale(0.1 -0.1)"><path d="M0.0 0.0V-225.0C-0.0 -387.0 -3.0 -563.0 -79.0 -710.0L-60.0 -722.0C49.0 -578.0 52.0 -373.0 52.0 -226.0V0.0H62.0L-3.0 33.0L0.0 11.0ZM598.0 205.0 603.0 171.0H1149.0V205.0ZM329.0 -96.0 310.0 -130.0H721.0V-96.0ZM347.0 -429.0 354.0 -464.0H584.0V-429.0ZM298.0 0.0V-629.0C298.0 -647.0 291.0 -654.0 271.0 -654.0C247.0 -654.0 139.0 -645.0 139.0 -645.0V-665.0C185.0 -668.0 214.0 -673.0 230.0 -684.0C243.0 -691.0 250.0 -704.0 253.0 -718.0C338.0 -709.0 348.0 -680.0 348.0 -635.0V-45.0C370.0 -40.0 388.0 -31.0 397.0 -21.0L315.0 39.0L287.0 0.0ZM145.0 0.0V-386.0H195.0V0.0ZM512.0 247.0 509.0 60.0H574.0V247.0ZM239.0 191.0C221.0 138.0 180.0 29.0 143.0 -26.0H166.0C209.0 20.0 255.0 106.0 281.0 153.0C303.0 154.0 318.0 155.0 326.0 163.0L261.0 227.0L226.0 191.0ZM88.0 294.0C52.0 158.0 -13.0 25.0 -79.0 -60.0L-62.0 -70.0C15.0 5.0 87.0 123.0 133.0 246.0C156.0 245.0 169.0 255.0 174.0 268.0Z"/></g>
<g fill="green" transform="translate(600 100) scale(0.1 -0.1)"><path d="M0.0 0.0V-221.0C0.0 -389.0 -2.0 -590.0 -70.0 -750.0L-58.0 -760.0C111.0 -609.0 121.0 -379.0 121.0 -220.0V0.0H140.0L2.0 50.0L0.0 11.0ZM636.0 175.0 641.0 142.0H1169.0V175.0ZM386.0 -99.0 369.0 -132.0H734.0V-99.0ZM412.0 -417.0 419.0 -449.0H594.0V-417.0ZM289.0 0.0V-606.0C289.0 -621.0 285.0 -627.0 268.0 -627.0C248.0 -627.0 161.0 -621.0 161.0 -621.0V-638.0C206.0 -645.0 226.0 -658.0 240.0 -678.0C253.0 -696.0 259.0 -726.0 260.0 -765.0C396.0 -753.0 412.0 -705.0 412.0 -619.0V-52.0C435.0 -47.0 450.0 -37.0 457.0 -29.0L334.0 66.0L277.0 0.0ZM154.0 0.0V-376.0H255.0V0.0ZM554.0 210.0 552.0 24.0H662.0V210.0ZM221.0 161.0C210.0 118.0 185.0 39.0 160.0 -6.0H176.0C234.0 22.0 297.0 75.0 340.0 112.0C363.0 114.0 376.0 116.0 385.0 125.0L271.0 225.0L208.0 161.0ZM71.0 289.0C43.0 154.0 -12.0 15.0 -69.0 -73.0L-55.0 -83.0C46.0 -18.0 137.0 83.0 203.0 214.0C229.0 213.0 243.0 223.0 248.0 238.0Z"/></g>
<g fill="green" transform="translate(700 100) scale(0.1 -0.1)"><path d="M0.0 0.0V-188.0C0.0 -358.0 -25.0 -531.0 -177.0 -675.0L-160.0 -692.0C38.0 -550.0 58.0 -345.0 58.0 -188.0V0.0H69.0L2.0 34.0L0.0 12.0ZM-45.0 218.0 -49.0 181.0H639.0V218.0ZM-407.0 -96.0 -416.0 -134.0H126.0V-96.0ZM-209.0 -388.0 -192.0 -428.0H232.0V-388.0ZM607.0 0.0V-584.0C607.0 -604.0 599.0 -613.0 574.0 -613.0C545.0 -613.0 402.0 -602.0 402.0 -602.0V-623.0C462.0 -629.0 498.0 -635.0 519.0 -648.0C536.0 -656.0 545.0 -672.0 549.0 -689.0C651.0 -678.0 663.0 -643.0 663.0 -591.0V-48.0C686.0 -43.0 708.0 -34.0 716.0 -24.0L628.0 41.0L595.0 0.0ZM292.0 0.0V-384.0H348.0V0.0ZM301.0 263.0 292.0 154.0H550.0V263.0ZM396.0 192.0C375.0 139.0 329.0 32.0 290.0 -24.0H317.0C362.0 21.0 416.0 104.0 446.0 149.0C472.0 150.0 487.0 151.0 497.0 161.0L422.0 234.0L381.0 192.0ZM138.0 301.0C76.0 157.0 -49.0 9.0 -176.0 -78.0L-159.0 -94.0C-18.0 -18.0 114.0 117.0 188.0 250.0C218.0 246.0 230.0 252.0 236.0 266.0Z"/></g>
<g fill="green" transform="translate(800 100) scale(0.1 -0.1)"><path d="M0.0 0.0V-219.0C0.0 -389.0 -18.0 -576.0 -165.0 -721.0L-156.0 -732.0C141.0 -605.0 169.0 -383.0 169.0 -219.0V0.0H195.0L12.0 62.0L0.0 13.0ZM-24.0 215.0 -28.0 179.0H619.0V215.0ZM-369.0 -77.0 -376.0 -113.0H140.0V-77.0ZM-137.0 -364.0 -119.0 -400.0H259.0V-364.0ZM569.0 1.0V-530.0C569.0 -548.0 564.0 -556.0 541.0 -556.0C511.0 -556.0 356.0 -547.0 356.0 -547.0V-565.0C429.0 -575.0 459.0 -595.0 482.0 -622.0C505.0 -647.0 514.0 -684.0 519.0 -740.0C717.0 -724.0 744.0 -659.0 744.0 -550.0V-69.0C773.0 -61.0 792.0 -49.0 801.0 -38.0L634.0 92.0L555.0 1.0ZM285.0 1.0V-385.0H446.0V1.0ZM352.0 232.0 344.0 125.0H609.0V232.0ZM352.0 158.0C339.0 114.0 309.0 35.0 282.0 -12.0H297.0C372.0 14.0 458.0 61.0 517.0 99.0C543.0 101.0 556.0 104.0 567.0 115.0L421.0 242.0L337.0 158.0ZM122.0 300.0C69.0 161.0 -45.0 16.0 -156.0 -63.0L-148.0 -74.0C24.0 -25.0 188.0 80.0 297.0 210.0C331.0 207.0 343.0 214.0 349.0 231.0Z"/></g>
<g fill="green" transform="translate(900 100) scale(0.1 -0.1)"><path d="M0.0 0.0V-184.0C-0.0 -328.0 -28.0 -463.0 -191.0 -572.0L-176.0 -590.0C32.0 -483.0 56.0 -321.0 56.0 -185.0V0.0H67.0L4.0 31.0L0.0 11.0ZM-119.0 149.0 -141.0 114.0H370.0V149.0ZM-3.0 -34.0 -17.0 -70.0H649.0V-34.0ZM372.0 -344.0 381.0 -382.0H892.0V-344.0ZM635.0 0.0V-483.0C635.0 -503.0 627.0 -512.0 603.0 -512.0C573.0 -512.0 427.0 -500.0 427.0 -500.0V-521.0C488.0 -527.0 525.0 -535.0 545.0 -546.0C562.0 -556.0 571.0 -572.0 575.0 -591.0C679.0 -579.0 690.0 -543.0 690.0 -491.0V-46.0C711.0 -42.0 731.0 -33.0 739.0 -24.0L654.0 39.0L625.0 0.0ZM306.0 0.0V-342.0H360.0V0.0ZM398.0 262.0V111.0H605.0V262.0ZM400.0 146.0C379.0 103.0 328.0 19.0 289.0 -27.0H310.0C360.0 7.0 414.0 69.0 448.0 106.0C472.0 107.0 486.0 108.0 496.0 117.0L425.0 186.0L386.0 146.0ZM122.0 237.0C59.0 118.0 -69.0 -16.0 -195.0 -94.0L-181.0 -110.0C-41.0 -42.0 95.0 83.0 171.0 189.0C199.0 184.0 209.0 188.0 215.0 200.0Z"/></g>
<g fill="green" transform="translate(1000 100) scale(0.1 -0.1)"><path d="M0.0 0.0V-178.0C0.0 -321.0 -20.0 -479.0 -171.0 -602.0L-164.0 -612.0C129.0 -508.0 162.0 -317.0 162.0 -178.0V0.0H187.0L34.0 52.0L0.0 12.0ZM-74.0 142.0 -96.0 108.0H398.0V142.0ZM49.0 -24.0 36.0 -59.0H672.0V-24.0ZM448.0 -317.0 457.0 -352.0H906.0V-317.0ZM611.0 0.0V-430.0C611.0 -445.0 606.0 -453.0 588.0 -453.0C560.0 -453.0 432.0 -445.0 432.0 -445.0V-461.0C496.0 -471.0 521.0 -488.0 541.0 -510.0C560.0 -533.0 568.0 -567.0 571.0 -614.0C753.0 -601.0 779.0 -544.0 779.0 -446.0V-57.0C801.0 -52.0 814.0 -42.0 821.0 -34.0L671.0 80.0L600.0 0.0ZM301.0 0.0V-321.0H461.0V0.0ZM479.0 256.0V107.0H675.0V256.0ZM357.0 135.0C345.0 97.0 319.0 29.0 296.0 -10.0H311.0C375.0 10.0 452.0 49.0 502.0 79.0C528.0 82.0 540.0 84.0 550.0 94.0L418.0 210.0L343.0 135.0ZM117.0 257.0C65.0 126.0 -50.0 -24.0 -162.0 -104.0L-154.0 -114.0C17.0 -60.0 185.0 56.0 289.0 177.0C324.0 173.0 334.0 179.0 340.0 193.0Z"/></g>
<g fill="green" transform="translate(1100 100) scale(0.1 -0.1)"><path d="M0.0 -0.0V-168.0C-0.0 -315.0 -30.0 -456.0 -196.0 -571.0L-181.0 -588.0C32.0 -476.0 56.0 -307.0 56.0 -169.0V0.0H67.0L3.0 31.0L0.0 11.0ZM74.0 178.0 56.0 143.0H699.0V178.0ZM250.0 -108.0 239.0 -145.0H968.0V-108.0ZM-319.0 -245.0 -303.0 -282.0H246.0V-245.0ZM647.0 0.0V-480.0C647.0 -499.0 639.0 -508.0 615.0 -508.0C586.0 -508.0 439.0 -496.0 439.0 -496.0V-517.0C500.0 -523.0 537.0 -531.0 557.0 -543.0C574.0 -552.0 583.0 -568.0 587.0 -587.0C691.0 -576.0 702.0 -539.0 702.0 -487.0V-45.0C722.0 -41.0 742.0 -32.0 749.0 -23.0L667.0 38.0L637.0 0.0ZM310.0 0.0V-338.0H363.0V0.0ZM332.0 259.0 329.0 135.0H568.0V259.0ZM410.0 153.0C389.0 108.0 342.0 21.0 304.0 -26.0H327.0C373.0 10.0 426.0 75.0 457.0 112.0C482.0 113.0 496.0 114.0 506.0 123.0L435.0 192.0L396.0 153.0ZM130.0 244.0C66.0 125.0 -65.0 -7.0 -195.0 -83.0L-181.0 -99.0C-37.0 -33.0 102.0 89.0 178.0 196.0C207.0 191.0 217.0 195.0 223.0 207.0Z"/></g>
<g fill="green" transform="translate(1200 100) scale(0.1 -0.1)"><path d="M0.0 0.0V-175.0C0.0 -318.0 -21.0 -476.0 -178.0 -599.0L-171.0 -609.0C132.0 -506.0 166.0 -315.0 166.0 -175.0V0.0H192.0L26.0 56.0L0.0 12.0ZM117.0 177.0 99.0 142.0H693.0V177.0ZM334.0 -86.0 325.0 -120.0H1009.0V-86.0ZM-258.0 -223.0 -243.0 -258.0H277.0V-223.0ZM623.0 1.0V-419.0C623.0 -435.0 617.0 -443.0 598.0 -443.0C569.0 -443.0 431.0 -435.0 431.0 -435.0V-451.0C499.0 -461.0 525.0 -479.0 546.0 -504.0C566.0 -528.0 575.0 -565.0 579.0 -617.0C769.0 -602.0 795.0 -540.0 795.0 -438.0V-60.0C819.0 -54.0 835.0 -43.0 842.0 -35.0L684.0 85.0L610.0 1.0ZM307.0 1.0V-321.0H472.0V1.0ZM414.0 253.0 411.0 131.0H637.0V253.0ZM373.0 140.0C360.0 101.0 332.0 34.0 308.0 -7.0H323.0C389.0 14.0 469.0 53.0 522.0 84.0C547.0 87.0 560.0 89.0 570.0 99.0L435.0 217.0L358.0 140.0ZM121.0 259.0C67.0 133.0 -52.0 -7.0 -168.0 -81.0L-161.0 -91.0C14.0 -45.0 186.0 62.0 294.0 177.0C329.0 174.0 339.0 179.0 344.0 193.0Z"/></g>
<g fill="green" transform="translate(1300 100) scale(0.1 -0.1)"><path d="M0.0 -0.0V-152.0C0.0 -295.0 -29.0 -435.0 -194.0 -551.0L-178.0 -570.0C34.0 -456.0 57.0 -286.0 57.0 -152.0V0.0H68.0L3.0 32.0L0.0 11.0ZM362.0 242.0 348.0 206.0H893.0V242.0ZM-81.0 -84.0 -78.0 -121.0H541.0V-84.0ZM55.0 -269.0 58.0 -307.0H663.0V-269.0ZM651.0 0.0V-468.0C651.0 -488.0 642.0 -496.0 617.0 -496.0C586.0 -496.0 438.0 -486.0 438.0 -486.0V-506.0C500.0 -513.0 538.0 -520.0 559.0 -530.0C576.0 -538.0 585.0 -554.0 589.0 -571.0C695.0 -560.0 706.0 -524.0 706.0 -474.0V-49.0C730.0 -45.0 752.0 -35.0 761.0 -25.0L671.0 41.0L639.0 0.0ZM312.0 0.0V-339.0H367.0V0.0ZM-6.0 241.0 -18.0 231.0H317.0V241.0ZM411.0 160.0C387.0 116.0 336.0 32.0 296.0 -14.0H321.0C368.0 20.0 425.0 82.0 458.0 118.0C483.0 119.0 498.0 120.0 508.0 129.0L436.0 200.0L396.0 160.0ZM128.0 248.0C63.0 126.0 -68.0 -9.0 -195.0 -85.0L-182.0 -105.0C-37.0 -36.0 100.0 90.0 177.0 199.0C207.0 194.0 217.0 199.0 223.0 212.0Z"/></g>
<g fill="green" transform="translate(1400 100) scale(0.1 -0.1)"><path d="M0.0 0.0V-163.0C0.0 -308.0 -22.0 -471.0 -184.0 -599.0L-178.0 -608.0C138.0 -503.0 173.0 -303.0 173.0 -163.0V0.0H199.0L23.0 60.0L0.0 13.0ZM388.0 229.0 374.0 193.0H873.0V229.0ZM-29.0 -76.0 -24.0 -112.0H569.0V-76.0ZM128.0 -247.0 131.0 -283.0H697.0V-247.0ZM633.0 0.0V-415.0C633.0 -432.0 627.0 -440.0 606.0 -440.0C575.0 -440.0 424.0 -431.0 424.0 -431.0V-448.0C497.0 -459.0 525.0 -476.0 549.0 -500.0C571.0 -523.0 579.0 -559.0 584.0 -610.0C780.0 -595.0 809.0 -535.0 809.0 -433.0V-68.0C837.0 -62.0 856.0 -49.0 864.0 -37.0L698.0 90.0L619.0 0.0ZM314.0 0.0V-315.0H480.0V0.0ZM70.0 234.0 58.0 227.0H364.0V234.0ZM375.0 138.0C362.0 99.0 331.0 28.0 304.0 -14.0H320.0C391.0 7.0 475.0 47.0 533.0 80.0C559.0 82.0 571.0 85.0 582.0 95.0L441.0 218.0L361.0 138.0ZM119.0 260.0C64.0 133.0 -55.0 -7.0 -171.0 -81.0L-163.0 -91.0C14.0 -47.0 190.0 57.0 301.0 174.0C337.0 171.0 347.0 178.0 353.0 193.0Z"/></g>
<g fill="green" transform="translate(1500 100) scale(0.1 -0.1)"><path d="M0.0 0.0V-155.0C0.0 -298.0 -34.0 -429.0 -201.0 -536.0L-188.0 -551.0C18.0 -447.0 45.0 -289.0 45.0 -156.0V0.0H54.0L0.0 27.0V9.0ZM176.0 68.0 171.0 38.0H972.0V68.0ZM-84.0 -44.0 -96.0 -74.0H556.0V-44.0ZM28.0 -350.0 33.0 -382.0H574.0V-350.0ZM663.0 0.0V-464.0C663.0 -482.0 656.0 -490.0 632.0 -490.0C606.0 -490.0 473.0 -479.0 473.0 -479.0V-496.0C528.0 -501.0 561.0 -507.0 579.0 -517.0C595.0 -524.0 603.0 -536.0 607.0 -551.0C699.0 -541.0 707.0 -511.0 707.0 -470.0V-38.0C726.0 -34.0 743.0 -27.0 749.0 -18.0L679.0 32.0L654.0 0.0ZM319.0 0.0V-332.0H362.0V0.0ZM374.0 225.0 366.0 96.0H630.0V225.0ZM415.0 159.0C393.0 114.0 342.0 27.0 302.0 -18.0H321.0C369.0 18.0 423.0 86.0 455.0 125.0C476.0 126.0 487.0 127.0 496.0 134.0L436.0 192.0L403.0 159.0ZM143.0 248.0C78.0 137.0 -59.0 5.0 -195.0 -69.0L-184.0 -83.0C-33.0 -17.0 110.0 110.0 185.0 211.0C211.0 207.0 219.0 208.0 224.0 218.0Z"/></g>
<g fill="green" transform="translate(1600 100) scale(0.1 -0.1)"><path d="M0.0 0.0V-192.0C0.0 -330.0 -23.0 -467.0 -185.0 -573.0L-181.0 -581.0C118.0 -494.0 149.0 -329.0 149.0 -192.0V0.0H171.0L24.0 48.0L0.0 10.0ZM238.0 57.0 233.0 28.0H938.0V57.0ZM-25.0 -34.0 -35.0 -62.0H538.0V-34.0ZM113.0 -321.0 118.0 -350.0H561.0V-321.0ZM620.0 -0.0V-410.0C620.0 -425.0 615.0 -432.0 596.0 -432.0C568.0 -432.0 420.0 -424.0 420.0 -424.0V-437.0C489.0 -447.0 514.0 -463.0 537.0 -484.0C559.0 -505.0 567.0 -536.0 573.0 -581.0C747.0 -567.0 772.0 -515.0 772.0 -425.0V-54.0C793.0 -49.0 806.0 -39.0 813.0 -31.0L675.0 75.0L609.0 -0.0ZM303.0 -0.0V-326.0H453.0V-0.0ZM446.0 201.0 437.0 74.0H710.0V201.0ZM391.0 136.0C378.0 99.0 350.0 30.0 325.0 -9.0H336.0C405.0 12.0 484.0 52.0 540.0 86.0C561.0 89.0 571.0 91.0 580.0 100.0L452.0 209.0L379.0 136.0ZM141.0 251.0C84.0 133.0 -45.0 -4.0 -174.0 -70.0L-169.0 -78.0C15.0 -36.0 194.0 76.0 301.0 188.0C332.0 184.0 339.0 188.0 343.0 200.0Z"/></g>
<g fill="green" transform="translate(100 200) scale(0.1 -0.1)"><path d="M0.0 -0.0V-164.0C0.0 -307.0 -27.0 -447.0 -192.0 -563.0L-176.0 -582.0C39.0 -469.0 61.0 -300.0 61.0 -165.0V0.0H73.0L6.0 33.0L0.0 12.0ZM260.0 179.0 237.0 139.0H855.0V179.0ZM-87.0 47.0 -102.0 6.0H544.0V47.0ZM9.0 -243.0 16.0 -285.0H567.0V-243.0ZM641.0 0.0V-475.0C641.0 -495.0 632.0 -504.0 606.0 -504.0C574.0 -504.0 423.0 -493.0 423.0 -493.0V-515.0C486.0 -520.0 525.0 -528.0 546.0 -540.0C564.0 -550.0 574.0 -566.0 578.0 -585.0C688.0 -572.0 700.0 -535.0 700.0 -481.0V-54.0C726.0 -49.0 750.0 -37.0 759.0 -27.0L662.0 44.0L628.0 0.0ZM307.0 0.0V-326.0H366.0V0.0ZM401.0 303.0 406.0 143.0H594.0V303.0ZM399.0 155.0C378.0 110.0 330.0 20.0 292.0 -28.0H318.0C364.0 8.0 419.0 73.0 452.0 110.0C478.0 112.0 493.0 113.0 504.0 123.0L426.0 199.0L384.0 155.0ZM118.0 246.0C52.0 120.0 -76.0 -13.0 -201.0 -91.0L-187.0 -110.0C-45.0 -43.0 92.0 79.0 169.0 192.0C200.0 186.0 212.0 192.0 218.0 205.0Z"/></g>
<g fill="green" transform="translate(200 200) scale(0.1 -0.1)"><path d="M0.0 0.0V-160.0C0.0 -306.0 -21.0 -476.0 -178.0 -608.0L-170.0 -619.0C140.0 -507.0 175.0 -300.0 175.0 -160.0V0.0H202.0L30.0 59.0L0.0 13.0ZM298.0 162.0 276.0 124.0H865.0V162.0ZM-51.0 52.0 -64.0 14.0H572.0V52.0ZM71.0 -221.0 78.0 -259.0H604.0V-221.0ZM624.0 0.0V-430.0C624.0 -447.0 619.0 -456.0 596.0 -456.0C565.0 -456.0 419.0 -446.0 419.0 -446.0V-464.0C492.0 -474.0 520.0 -492.0 543.0 -514.0C565.0 -537.0 572.0 -571.0 577.0 -619.0C774.0 -605.0 803.0 -546.0 803.0 -445.0V-70.0C833.0 -64.0 852.0 -50.0 861.0 -39.0L689.0 91.0L610.0 0.0ZM309.0 0.0V-314.0H479.0V0.0ZM501.0 291.0 507.0 133.0H696.0V291.0ZM363.0 134.0C351.0 96.0 324.0 28.0 300.0 -13.0H318.0C384.0 6.0 466.0 44.0 519.0 73.0C547.0 76.0 561.0 78.0 572.0 89.0L429.0 216.0L348.0 134.0ZM110.0 259.0C56.0 132.0 -58.0 -6.0 -167.0 -80.0L-158.0 -92.0C12.0 -48.0 181.0 50.0 292.0 165.0C329.0 161.0 341.0 168.0 347.0 184.0Z"/></g>
<g fill="green" transform="translate(300 200) scale(0.1 -0.1)"><path d="M0.0 -0.0V-161.0C-0.0 -302.0 -32.0 -432.0 -197.0 -538.0L-183.0 -553.0C22.0 -450.0 47.0 -294.0 47.0 -162.0V0.0H58.0L5.0 28.0L0.0 10.0ZM223.0 239.0 215.0 207.0H880.0V239.0ZM-97.0 -35.0 -111.0 -67.0H577.0V-35.0ZM-28.0 -246.0 -17.0 -281.0H638.0V-246.0ZM652.0 0.0V-471.0C652.0 -489.0 644.0 -498.0 620.0 -498.0C592.0 -498.0 458.0 -488.0 458.0 -488.0V-506.0C513.0 -511.0 548.0 -517.0 567.0 -526.0C583.0 -533.0 591.0 -544.0 595.0 -558.0C689.0 -548.0 699.0 -518.0 699.0 -476.0V-46.0C725.0 -42.0 745.0 -32.0 754.0 -22.0L669.0 38.0L641.0 0.0ZM314.0 0.0V-333.0H362.0V0.0ZM393.0 249.0 392.0 102.0H625.0V249.0ZM400.0 158.0C379.0 114.0 329.0 26.0 291.0 -18.0H311.0C359.0 17.0 415.0 82.0 449.0 120.0C470.0 121.0 483.0 123.0 492.0 131.0L424.0 196.0L387.0 158.0ZM130.0 253.0C64.0 127.0 -71.0 -13.0 -203.0 -91.0L-193.0 -108.0C-41.0 -37.0 100.0 94.0 176.0 209.0C204.0 205.0 213.0 209.0 219.0 220.0Z"/></g>
<g fill="green" transform="translate(400 200) scale(0.1 -0.1)"><path d="M0.0 0.0V-196.0C0.0 -338.0 -22.0 -484.0 -182.0 -596.0L-177.0 -605.0C124.0 -511.0 157.0 -335.0 157.0 -195.0V0.0H180.0L33.0 49.0L0.0 11.0ZM261.0 219.0 253.0 188.0H864.0V219.0ZM-48.0 -32.0 -60.0 -63.0H555.0V-32.0ZM49.0 -255.0 60.0 -286.0H628.0V-255.0ZM614.0 -1.0V-437.0C614.0 -451.0 610.0 -459.0 588.0 -459.0C558.0 -459.0 398.0 -450.0 398.0 -450.0V-465.0C473.0 -475.0 500.0 -490.0 526.0 -509.0C549.0 -527.0 557.0 -554.0 563.0 -595.0C744.0 -582.0 771.0 -534.0 771.0 -447.0V-62.0C797.0 -57.0 813.0 -45.0 821.0 -35.0L673.0 80.0L602.0 -1.0ZM301.0 -1.0V-335.0H454.0V-1.0ZM482.0 219.0 480.0 75.0H729.0V219.0ZM380.0 127.0C368.0 91.0 344.0 26.0 321.0 -11.0H334.0C402.0 7.0 484.0 42.0 541.0 73.0C564.0 76.0 575.0 77.0 584.0 87.0L447.0 206.0L367.0 127.0ZM132.0 254.0C75.0 129.0 -50.0 -11.0 -172.0 -82.0L-166.0 -91.0C15.0 -47.0 189.0 60.0 299.0 178.0C331.0 173.0 340.0 179.0 344.0 192.0Z"/></g>
<g fill="red" transform="translate(100 300) scale(0.1 -0.1)"><path d="M0.0 0.0V-220.0C0.0 -366.0 -3.0 -523.0 -73.0 -650.0L-57.0 -662.0C43.0 -535.0 47.0 -354.0 47.0 -219.0V0.0H56.0L0.0 28.0V10.0ZM424.0 1.0V-28.0H775.0V1.0ZM424.0 -174.0V-204.0H770.0V-174.0ZM22.0 -334.0V-363.0H288.0V-334.0ZM268.0 0.0V-571.0C268.0 -587.0 263.0 -592.0 246.0 -592.0C227.0 -592.0 133.0 -584.0 133.0 -584.0V-601.0C173.0 -606.0 197.0 -612.0 211.0 -621.0C223.0 -629.0 228.0 -644.0 231.0 -658.0C305.0 -650.0 313.0 -621.0 313.0 -578.0V-36.0C329.0 -32.0 344.0 -25.0 350.0 -19.0L284.0 32.0L259.0 0.0ZM131.0 0.0V-349.0H176.0V0.0ZM78.0 152.0 64.0 122.0H242.0V152.0ZM218.0 152.0C204.0 110.0 172.0 27.0 143.0 -19.0H163.0C198.0 17.0 237.0 82.0 259.0 118.0C278.0 119.0 291.0 120.0 298.0 127.0L239.0 184.0L207.0 152.0ZM79.0 250.0C47.0 120.0 -11.0 -3.0 -74.0 -82.0L-58.0 -92.0C13.0 -22.0 77.0 89.0 119.0 208.0C139.0 207.0 150.0 216.0 154.0 227.0Z"/></g>
<g fill="black" opacity=".8" transform="translate(100 300) scale(0.1 -0.1)"><path d="M0.0 0.0V-213.0C0.0 -360.0 -3.0 -518.0 -72.0 -648.0L-56.0 -659.0C44.0 -531.0 47.0 -347.0 47.0 -212.0V0.0H55.0L-2.0 28.0L0.0 9.0ZM418.0 1.0 419.0 -29.0H782.0V1.0ZM422.0 -183.0V-213.0H757.0V-183.0ZM20.0 -328.0 16.0 -357.0H295.0V-328.0ZM268.0 0.0V-570.0C268.0 -586.0 261.0 -591.0 244.0 -591.0C225.0 -591.0 129.0 -584.0 129.0 -584.0V-601.0C170.0 -606.0 194.0 -610.0 208.0 -620.0C219.0 -628.0 226.0 -642.0 228.0 -655.0C304.0 -647.0 312.0 -619.0 312.0 -576.0V-38.0C329.0 -33.0 344.0 -27.0 352.0 -19.0L283.0 33.0L258.0 0.0ZM130.0 0.0V-349.0H175.0V0.0ZM83.0 162.0 69.0 130.0H245.0V162.0ZM220.0 159.0C204.0 115.0 172.0 30.0 139.0 -18.0H160.0C197.0 19.0 237.0 87.0 260.0 124.0C280.0 125.0 292.0 126.0 299.0 133.0L241.0 190.0L208.0 159.0ZM79.0 254.0C47.0 126.0 -10.0 4.0 -72.0 -75.0L-57.0 -84.0C14.0 -14.0 79.0 95.0 120.0 212.0C141.0 211.0 152.0 220.0 156.0 232.0Z"/></g>
<g fill="red" transform="translate(200 300) scale(0.1 -0.1)"><path d="M0.0 0.0V-215.0C0.0 -365.0 0.0 -539.0 -58.0 -677.0L-47.0 -685.0C103.0 -555.0 111.0 -358.0 111.0 -215.0V0.0H129.0L6.0 44.0L0.0 10.0ZM477.0 -1.0V-29.0H795.0V-1.0ZM477.0 -183.0V-211.0H795.0V-183.0ZM60.0 -339.0V-367.0H320.0V-339.0ZM263.0 1.0V-533.0C263.0 -546.0 259.0 -552.0 246.0 -552.0C229.0 -552.0 159.0 -547.0 159.0 -547.0V-561.0C196.0 -569.0 213.0 -582.0 224.0 -603.0C235.0 -622.0 240.0 -655.0 241.0 -697.0C365.0 -685.0 380.0 -635.0 380.0 -550.0V-41.0C396.0 -37.0 407.0 -30.0 412.0 -24.0L304.0 58.0L254.0 1.0ZM141.0 1.0V-348.0H235.0V1.0ZM111.0 147.0 98.0 119.0H258.0V147.0ZM208.0 147.0C200.0 109.0 178.0 36.0 159.0 -5.0H172.0C222.0 22.0 278.0 70.0 316.0 104.0C336.0 105.0 347.0 108.0 355.0 116.0L253.0 205.0L197.0 147.0ZM60.0 260.0C36.0 127.0 -12.0 -12.0 -61.0 -101.0L-49.0 -109.0C43.0 -41.0 122.0 62.0 179.0 190.0C202.0 190.0 214.0 198.0 219.0 211.0Z"/></g>
<g fill="black" opacity=".8" transform="translate(200 300) scale(0.1 -0.1)"><path d="M0.0 0.0V-210.0C0.0 -360.0 -1.0 -537.0 -60.0 -678.0L-49.0 -686.0C104.0 -554.0 112.0 -352.0 112.0 -209.0V0.0H130.0L3.0 46.0L0.0 9.0ZM466.0 -6.0 467.0 -36.0H801.0V-6.0ZM487.0 -191.0 488.0 -220.0H799.0V-191.0ZM61.0 -328.0 57.0 -358.0H327.0V-328.0ZM265.0 1.0V-535.0C265.0 -548.0 260.0 -554.0 247.0 -554.0C229.0 -554.0 157.0 -549.0 157.0 -549.0V-564.0C195.0 -571.0 213.0 -584.0 225.0 -605.0C235.0 -623.0 241.0 -656.0 242.0 -697.0C368.0 -685.0 383.0 -636.0 383.0 -551.0V-44.0C399.0 -40.0 412.0 -31.0 418.0 -24.0L307.0 60.0L255.0 1.0ZM142.0 1.0V-345.0H236.0V1.0ZM109.0 152.0 96.0 121.0H262.0V152.0ZM204.0 148.0C195.0 109.0 172.0 34.0 150.0 -8.0H164.0C216.0 18.0 273.0 69.0 312.0 104.0C332.0 104.0 344.0 107.0 353.0 115.0L249.0 205.0L192.0 148.0ZM61.0 262.0C35.0 131.0 -12.0 -6.0 -62.0 -91.0L-49.0 -100.0C43.0 -35.0 124.0 66.0 180.0 191.0C205.0 191.0 217.0 199.0 222.0 214.0Z"/></g>
<g fill="red" transform="translate(300 300) scale(0.1 -0.1)"><path d="M0.0 0.0V-228.0C0.0 -374.0 -8.0 -523.0 -93.0 -641.0L-78.0 -654.0C36.0 -535.0 44.0 -364.0 44.0 -227.0V0.0H54.0L8.0 24.0L0.0 10.0ZM24.0 0.0V-29.0H356.0V0.0ZM24.0 -156.0V-186.0H356.0V-156.0ZM24.0 -322.0V-351.0H356.0V-322.0ZM332.0 0.0V-571.0C332.0 -587.0 327.0 -592.0 310.0 -592.0C292.0 -592.0 202.0 -585.0 202.0 -585.0V-601.0C239.0 -606.0 263.0 -612.0 277.0 -620.0C289.0 -628.0 294.0 -642.0 296.0 -655.0C368.0 -647.0 376.0 -619.0 376.0 -578.0V-39.0C396.0 -35.0 413.0 -27.0 420.0 -20.0L348.0 34.0L322.0 0.0ZM164.0 0.0V-335.0H209.0V0.0ZM70.0 139.0 60.0 110.0H261.0V139.0ZM234.0 139.0C224.0 101.0 197.0 24.0 174.0 -19.0H193.0C226.0 13.0 263.0 71.0 287.0 104.0C304.0 105.0 317.0 107.0 324.0 113.0L258.0 176.0L224.0 139.0ZM80.0 251.0C41.0 100.0 -30.0 -37.0 -108.0 -123.0L-94.0 -135.0C-3.0 -59.0 75.0 64.0 123.0 207.0C144.0 206.0 156.0 215.0 160.0 226.0Z"/></g>
<g fill="black" opacity=".8" transform="translate(300 300) scale(0.1 -0.1)"><path d="M0.0 0.0V-217.0C0.0 -366.0 -8.0 -518.0 -92.0 -642.0L-76.0 -654.0C37.0 -531.0 44.0 -352.0 44.0 -216.0V0.0H52.0L2.0 26.0L0.0 8.0ZM31.0 -5.0V-33.0H344.0V-5.0ZM22.0 -169.0V-196.0H354.0V-169.0ZM8.0 -321.0V-349.0H370.0V-321.0ZM330.0 0.0V-571.0C330.0 -587.0 322.0 -593.0 306.0 -593.0C287.0 -593.0 191.0 -585.0 191.0 -585.0V-602.0C231.0 -607.0 255.0 -611.0 270.0 -620.0C281.0 -628.0 287.0 -641.0 290.0 -653.0C363.0 -644.0 371.0 -618.0 371.0 -577.0V-38.0C391.0 -33.0 407.0 -27.0 414.0 -20.0L345.0 34.0L319.0 0.0ZM161.0 0.0V-350.0H206.0V0.0ZM78.0 151.0 65.0 120.0H274.0V151.0ZM243.0 155.0C229.0 113.0 196.0 30.0 165.0 -16.0H185.0C223.0 19.0 264.0 85.0 289.0 120.0C308.0 122.0 320.0 123.0 326.0 130.0L266.0 188.0L232.0 155.0ZM87.0 259.0C49.0 119.0 -22.0 -13.0 -98.0 -97.0L-84.0 -107.0C4.0 -32.0 82.0 88.0 129.0 217.0C151.0 217.0 161.0 225.0 165.0 236.0Z"/></g>
<g fill="red" transform="translate(400 300) scale(0.1 -0.1)"><path d="M0.0 0.0V-247.0C0.0 -398.0 -2.0 -562.0 -72.0 -689.0L-62.0 -697.0C110.0 -576.0 120.0 -393.0 120.0 -247.0V0.0H139.0L21.0 42.0L0.0 10.0ZM56.0 0.0V-28.0H378.0V0.0ZM56.0 -176.0V-204.0H378.0V-176.0ZM56.0 -357.0V-385.0H378.0V-357.0ZM307.0 0.0V-542.0C307.0 -555.0 303.0 -561.0 287.0 -561.0C266.0 -561.0 169.0 -556.0 169.0 -556.0V-569.0C217.0 -578.0 237.0 -591.0 253.0 -611.0C268.0 -629.0 273.0 -659.0 276.0 -700.0C414.0 -687.0 432.0 -640.0 432.0 -556.0V-45.0C450.0 -42.0 462.0 -34.0 468.0 -27.0L352.0 62.0L297.0 0.0ZM160.0 0.0V-376.0H265.0V0.0ZM108.0 130.0 99.0 102.0H274.0V130.0ZM218.0 130.0C212.0 95.0 197.0 25.0 184.0 -13.0H195.0C247.0 10.0 308.0 52.0 349.0 84.0C370.0 85.0 380.0 88.0 388.0 97.0L273.0 197.0L207.0 130.0ZM68.0 260.0C38.0 117.0 -21.0 -30.0 -79.0 -123.0L-68.0 -131.0C38.0 -61.0 126.0 43.0 192.0 180.0C215.0 178.0 228.0 186.0 233.0 199.0Z"/></g>
<g fill="black" opacity=".8" transform="translate(400 300) scale(0.1 -0.1)"><path d="M0.0 0.0V-234.0C0.0 -386.0 -4.0 -554.0 -77.0 -686.0L-66.0 -693.0C107.0 -570.0 117.0 -379.0 117.0 -232.0V0.0H135.0L13.0 44.0L0.0 9.0ZM70.0 -5.0 71.0 -33.0H368.0V-5.0ZM61.0 -181.0 63.0 -209.0H370.0V-181.0ZM52.0 -343.0V-371.0H387.0V-343.0ZM310.0 0.0V-541.0C310.0 -553.0 307.0 -559.0 291.0 -559.0C272.0 -559.0 179.0 -554.0 179.0 -554.0V-569.0C223.0 -576.0 244.0 -590.0 260.0 -610.0C273.0 -627.0 279.0 -657.0 282.0 -698.0C415.0 -686.0 433.0 -639.0 433.0 -555.0V-46.0C450.0 -42.0 462.0 -33.0 468.0 -26.0L356.0 62.0L301.0 0.0ZM161.0 0.0V-366.0H263.0V0.0ZM104.0 134.0 91.0 106.0H288.0V134.0ZM225.0 139.0C217.0 101.0 197.0 28.0 177.0 -11.0H189.0C244.0 13.0 307.0 59.0 349.0 94.0C369.0 94.0 380.0 96.0 389.0 105.0L276.0 201.0L214.0 139.0ZM74.0 265.0C43.0 128.0 -18.0 -18.0 -78.0 -105.0L-68.0 -113.0C40.0 -47.0 133.0 60.0 198.0 191.0C223.0 190.0 234.0 197.0 239.0 212.0Z"/></g>
<g fill="red" transform="translate(500 300) scale(0.1 -0.1)"><path d="M0.0 0.0V-201.0C0.0 -358.0 -27.0 -506.0 -173.0 -624.0L-159.0 -638.0C22.0 -521.0 44.0 -347.0 44.0 -200.0V0.0H54.0L0.0 28.0V10.0ZM23.0 0.0V-29.0H595.0V0.0ZM21.0 -177.0V-206.0H592.0V-177.0ZM11.0 -360.0V-390.0H592.0V-360.0ZM577.0 0.0V-550.0C577.0 -568.0 571.0 -575.0 548.0 -575.0C524.0 -575.0 401.0 -564.0 401.0 -564.0V-581.0C452.0 -587.0 483.0 -594.0 500.0 -602.0C515.0 -610.0 522.0 -623.0 526.0 -638.0C613.0 -629.0 621.0 -598.0 621.0 -557.0V-36.0C639.0 -33.0 655.0 -26.0 661.0 -18.0L593.0 32.0L568.0 0.0ZM279.0 0.0V-379.0H323.0V0.0ZM103.0 166.0 83.0 136.0H416.0V166.0ZM381.0 166.0C359.0 121.0 310.0 34.0 270.0 -12.0H289.0C337.0 24.0 392.0 92.0 424.0 132.0C444.0 133.0 456.0 134.0 464.0 141.0L403.0 199.0L369.0 166.0ZM137.0 269.0C78.0 139.0 -44.0 -7.0 -168.0 -91.0L-155.0 -105.0C-17.0 -28.0 110.0 112.0 179.0 232.0C204.0 229.0 212.0 233.0 217.0 243.0Z"/></g>
<g fill="black" opacity=".8" transform="translate(500 300) scale(0.1 -0.1)"><path d="M0.0 0.0V-201.0C0.0 -358.0 -27.0 -504.0 -173.0 -622.0L-159.0 -636.0C22.0 -520.0 44.0 -346.0 44.0 -201.0V0.0H53.0L1.0 27.0L0.0 9.0ZM23.0 0.0 22.0 -29.0H598.0V0.0ZM20.0 -177.0V-205.0H593.0V-177.0ZM15.0 -359.0V-389.0H588.0V-359.0ZM579.0 0.0V-548.0C579.0 -567.0 571.0 -574.0 550.0 -574.0C526.0 -574.0 403.0 -564.0 403.0 -564.0V-580.0C454.0 -587.0 484.0 -593.0 502.0 -602.0C516.0 -609.0 523.0 -622.0 527.0 -636.0C614.0 -627.0 622.0 -597.0 622.0 -555.0V-37.0C641.0 -33.0 657.0 -27.0 664.0 -19.0L594.0 33.0L569.0 0.0ZM280.0 0.0V-373.0H324.0V0.0ZM101.0 167.0 83.0 135.0H413.0V167.0ZM379.0 164.0C358.0 119.0 311.0 34.0 271.0 -13.0H290.0C338.0 23.0 391.0 90.0 424.0 129.0C444.0 130.0 455.0 132.0 463.0 138.0L402.0 198.0L367.0 164.0ZM134.0 268.0C76.0 135.0 -46.0 -12.0 -171.0 -97.0L-159.0 -111.0C-19.0 -33.0 109.0 107.0 178.0 230.0C203.0 228.0 212.0 231.0 216.0 242.0Z"/></g>
<g fill="red" transform="translate(600 300) scale(0.1 -0.1)"><path d="M0.0 0.0V-238.0C0.0 -392.0 -16.0 -545.0 -154.0 -664.0L-148.0 -671.0C118.0 -568.0 142.0 -390.0 142.0 -238.0V0.0H163.0L23.0 47.0L0.0 10.0ZM88.0 0.0V-28.0H582.0V0.0ZM88.0 -178.0V-206.0H582.0V-178.0ZM88.0 -361.0V-389.0H582.0V-361.0ZM541.0 0.0V-496.0C541.0 -510.0 536.0 -517.0 519.0 -517.0C493.0 -517.0 360.0 -510.0 360.0 -510.0V-523.0C422.0 -534.0 446.0 -549.0 467.0 -571.0C487.0 -593.0 494.0 -626.0 499.0 -673.0C663.0 -659.0 686.0 -606.0 686.0 -513.0V-48.0C704.0 -44.0 715.0 -36.0 721.0 -29.0L593.0 69.0L531.0 0.0ZM269.0 0.0V-376.0H404.0V0.0ZM149.0 149.0 129.0 121.0H442.0V149.0ZM361.0 149.0C349.0 109.0 321.0 31.0 297.0 -11.0H307.0C376.0 15.0 454.0 62.0 509.0 100.0C530.0 102.0 540.0 105.0 549.0 114.0L422.0 222.0L349.0 149.0ZM131.0 277.0C81.0 137.0 -33.0 -22.0 -148.0 -107.0L-141.0 -115.0C30.0 -53.0 190.0 77.0 286.0 213.0C315.0 211.0 323.0 216.0 327.0 227.0Z"/></g>
<g fill="black" opacity=".8" transform="translate(600 300) scale(0.1 -0.1)"><path d="M0.0 0.0V-241.0C0.0 -394.0 -17.0 -547.0 -153.0 -665.0L-147.0 -672.0C119.0 -570.0 143.0 -392.0 143.0 -240.0V0.0H164.0L24.0 47.0L0.0 10.0ZM85.0 0.0 84.0 -29.0H585.0V0.0ZM86.0 -179.0 88.0 -207.0H586.0V-179.0ZM90.0 -364.0V-393.0H579.0V-364.0ZM539.0 -0.0V-497.0C539.0 -511.0 534.0 -518.0 517.0 -518.0C491.0 -518.0 356.0 -511.0 356.0 -511.0V-525.0C418.0 -535.0 442.0 -550.0 465.0 -573.0C484.0 -593.0 492.0 -627.0 497.0 -674.0C663.0 -660.0 687.0 -607.0 687.0 -513.0V-50.0C704.0 -46.0 716.0 -37.0 722.0 -29.0L593.0 71.0L529.0 -0.0ZM267.0 -0.0V-379.0H404.0V-0.0ZM150.0 150.0 131.0 122.0H441.0V150.0ZM358.0 147.0C347.0 107.0 320.0 30.0 296.0 -11.0H307.0C376.0 13.0 454.0 59.0 510.0 97.0C530.0 99.0 540.0 101.0 549.0 111.0L420.0 220.0L346.0 147.0ZM130.0 276.0C78.0 136.0 -35.0 -24.0 -149.0 -109.0L-142.0 -116.0C29.0 -55.0 188.0 74.0 284.0 209.0C314.0 206.0 321.0 211.0 326.0 225.0Z"/></g>
<g fill="red" transform="translate(700 300) scale(0.1 -0.1)"><path d="M0.0 0.0V-194.0C0.0 -339.0 -4.0 -498.0 -75.0 -629.0L-59.0 -641.0C41.0 -510.0 45.0 -326.0 45.0 -193.0V0.0H54.0L0.0 28.0V10.0ZM388.0 8.0 397.0 -21.0H763.0V8.0ZM24.0 -160.0V-190.0H304.0V-160.0ZM19.0 -333.0V-363.0H304.0V-333.0ZM282.0 0.0V-562.0C282.0 -577.0 277.0 -583.0 259.0 -583.0C239.0 -583.0 147.0 -576.0 147.0 -576.0V-592.0C186.0 -596.0 211.0 -601.0 225.0 -609.0C237.0 -615.0 242.0 -627.0 245.0 -638.0C317.0 -631.0 326.0 -605.0 326.0 -567.0V-39.0C346.0 -35.0 363.0 -27.0 370.0 -19.0L298.0 34.0L272.0 0.0ZM138.0 0.0V-343.0H182.0V0.0ZM73.0 169.0 59.0 139.0H246.0V169.0ZM220.0 169.0C205.0 124.0 172.0 34.0 142.0 -13.0H164.0C198.0 25.0 239.0 96.0 261.0 135.0C280.0 136.0 293.0 137.0 300.0 144.0L241.0 201.0L209.0 169.0ZM84.0 267.0C50.0 134.0 -12.0 9.0 -77.0 -69.0L-62.0 -80.0C14.0 -10.0 81.0 102.0 123.0 224.0C144.0 223.0 156.0 233.0 160.0 244.0Z"/></g>
<g fill="black" opacity=".8" transform="translate(700 300) scale(0.1 -0.1)"><path d="M0.0 0.0V-201.0C0.0 -347.0 -5.0 -502.0 -76.0 -632.0L-60.0 -643.0C40.0 -515.0 44.0 -333.0 44.0 -200.0V0.0H51.0L-1.0 27.0L0.0 8.0ZM371.0 15.0 377.0 -13.0H774.0V15.0ZM36.0 -140.0 37.0 -168.0H306.0V-140.0ZM20.0 -336.0 16.0 -364.0H306.0V-336.0ZM283.0 0.0V-564.0C283.0 -579.0 275.0 -584.0 259.0 -584.0C240.0 -584.0 149.0 -578.0 149.0 -578.0V-593.0C188.0 -598.0 211.0 -601.0 225.0 -611.0C236.0 -617.0 242.0 -630.0 244.0 -640.0C316.0 -632.0 323.0 -608.0 323.0 -568.0V-38.0C343.0 -33.0 359.0 -27.0 366.0 -19.0L297.0 33.0L272.0 0.0ZM137.0 0.0V-342.0H181.0V0.0ZM65.0 157.0 50.0 132.0H243.0V157.0ZM221.0 164.0C206.0 121.0 174.0 33.0 143.0 -14.0H164.0C199.0 23.0 239.0 93.0 262.0 130.0C281.0 132.0 293.0 132.0 299.0 139.0L242.0 195.0L210.0 164.0ZM83.0 262.0C49.0 129.0 -12.0 4.0 -78.0 -75.0L-64.0 -85.0C13.0 -14.0 81.0 99.0 123.0 221.0C144.0 221.0 155.0 229.0 158.0 241.0Z"/></g>
<g fill="red" transform="translate(800 300) scale(0.1 -0.1)"><path d="M0.0 0.0V-210.0C0.0 -362.0 -2.0 -538.0 -69.0 -677.0L-59.0 -685.0C105.0 -555.0 114.0 -354.0 114.0 -210.0V0.0H132.0L0.0 47.0V10.0ZM418.0 1.0 427.0 -27.0H769.0V1.0ZM67.0 -169.0V-197.0H327.0V-169.0ZM67.0 -340.0V-368.0H327.0V-340.0ZM271.0 0.0V-537.0C271.0 -551.0 267.0 -557.0 251.0 -557.0C231.0 -557.0 137.0 -551.0 137.0 -551.0V-565.0C183.0 -573.0 203.0 -586.0 218.0 -605.0C232.0 -622.0 237.0 -651.0 240.0 -690.0C370.0 -678.0 387.0 -632.0 387.0 -551.0V-50.0C409.0 -45.0 424.0 -36.0 431.0 -27.0L314.0 63.0L260.0 0.0ZM145.0 0.0V-349.0H239.0V0.0ZM93.0 140.0 80.0 112.0H273.0V140.0ZM202.0 140.0C193.0 102.0 170.0 29.0 149.0 -12.0H162.0C217.0 14.0 278.0 61.0 321.0 96.0C341.0 97.0 352.0 100.0 360.0 108.0L252.0 202.0L191.0 140.0ZM66.0 261.0C39.0 135.0 -14.0 9.0 -68.0 -71.0L-57.0 -79.0C40.0 -22.0 125.0 67.0 188.0 190.0C211.0 189.0 223.0 198.0 227.0 211.0Z"/></g>
<g fill="black" opacity=".8" transform="translate(800 300) scale(0.1 -0.1)"><path d="M0.0 0.0V-217.0C0.0 -368.0 -3.0 -540.0 -67.0 -676.0L-56.0 -683.0C104.0 -556.0 112.0 -360.0 112.0 -216.0V0.0H128.0L2.0 46.0L0.0 9.0ZM408.0 6.0 415.0 -23.0H779.0V6.0ZM71.0 -153.0 74.0 -181.0H321.0V-153.0ZM65.0 -344.0 61.0 -372.0H327.0V-344.0ZM269.0 0.0V-536.0C269.0 -550.0 265.0 -555.0 249.0 -555.0C231.0 -555.0 142.0 -550.0 142.0 -550.0V-565.0C185.0 -572.0 205.0 -584.0 220.0 -604.0C232.0 -621.0 238.0 -651.0 241.0 -690.0C368.0 -678.0 385.0 -632.0 385.0 -551.0V-48.0C403.0 -43.0 417.0 -33.0 424.0 -25.0L313.0 62.0L259.0 0.0ZM143.0 0.0V-352.0H236.0V0.0ZM87.0 134.0 73.0 111.0H266.0V134.0ZM207.0 141.0C199.0 104.0 177.0 30.0 155.0 -11.0H168.0C223.0 14.0 283.0 62.0 325.0 98.0C344.0 98.0 355.0 101.0 364.0 109.0L256.0 201.0L197.0 141.0ZM67.0 261.0C39.0 133.0 -13.0 1.0 -67.0 -80.0L-56.0 -89.0C41.0 -28.0 125.0 67.0 185.0 190.0C209.0 189.0 220.0 197.0 225.0 212.0Z"/></g>
<g fill="red" transform="translate(900 300) scale(0.1 -0.1)"><path d="M0.0 0.0V-194.0C0.0 -339.0 -4.0 -498.0 -75.0 -629.0L-59.0 -641.0C41.0 -510.0 45.0 -326.0 45.0 -193.0V0.0H54.0L0.0 28.0V10.0ZM360.0 193.0 369.0 164.0H772.0V193.0ZM24.0 -160.0V-190.0H304.0V-160.0ZM19.0 -333.0V-363.0H304.0V-333.0ZM282.0 0.0V-562.0C282.0 -577.0 277.0 -583.0 259.0 -583.0C239.0 -583.0 147.0 -576.0 147.0 -576.0V-592.0C186.0 -596.0 211.0 -601.0 225.0 -609.0C237.0 -615.0 242.0 -627.0 245.0 -638.0C317.0 -631.0 326.0 -605.0 326.0 -567.0V-39.0C346.0 -35.0 363.0 -27.0 370.0 -19.0L298.0 34.0L272.0 0.0ZM138.0 0.0V-343.0H182.0V0.0ZM73.0 169.0 59.0 139.0H246.0V169.0ZM220.0 169.0C205.0 124.0 172.0 34.0 142.0 -13.0H164.0C198.0 25.0 239.0 96.0 261.0 135.0C280.0 136.0 293.0 137.0 300.0 144.0L241.0 201.0L209.0 169.0ZM84.0 267.0C50.0 134.0 -12.0 9.0 -77.0 -69.0L-62.0 -80.0C14.0 -10.0 81.0 102.0 123.0 224.0C144.0 223.0 156.0 233.0 160.0 244.0Z"/></g>
<g fill="black" opacity=".8" transform="translate(900 300) scale(0.1 -0.1)"><path d="M0.0 0.0V-192.0C0.0 -338.0 -5.0 -497.0 -75.0 -629.0L-58.0 -640.0C42.0 -509.0 45.0 -324.0 45.0 -192.0V0.0H53.0L-1.0 28.0L0.0 9.0ZM376.0 187.0 384.0 159.0H760.0V187.0ZM17.0 -170.0V-198.0H312.0V-170.0ZM17.0 -334.0 22.0 -364.0H301.0V-334.0ZM284.0 0.0V-561.0C284.0 -576.0 277.0 -582.0 260.0 -582.0C240.0 -582.0 146.0 -575.0 146.0 -575.0V-592.0C186.0 -596.0 211.0 -600.0 226.0 -609.0C236.0 -614.0 243.0 -626.0 245.0 -637.0C318.0 -630.0 326.0 -605.0 326.0 -565.0V-40.0C346.0 -35.0 363.0 -28.0 371.0 -19.0L299.0 34.0L273.0 0.0ZM138.0 0.0V-345.0H182.0V0.0ZM77.0 171.0 63.0 140.0H249.0V171.0ZM221.0 170.0C205.0 125.0 173.0 34.0 141.0 -14.0H163.0C198.0 25.0 239.0 97.0 261.0 136.0C281.0 137.0 294.0 138.0 300.0 145.0L242.0 202.0L210.0 170.0ZM83.0 267.0C50.0 135.0 -12.0 11.0 -76.0 -67.0L-62.0 -78.0C15.0 -7.0 81.0 103.0 124.0 224.0C145.0 224.0 156.0 233.0 160.0 245.0Z"/></g>
<g fill="red" transform="translate(1000 300) scale(0.1 -0.1)"><path d="M0.0 0.0V-210.0C0.0 -362.0 -2.0 -538.0 -69.0 -677.0L-59.0 -685.0C105.0 -555.0 114.0 -354.0 114.0 -210.0V0.0H132.0L0.0 47.0V10.0ZM375.0 174.0 384.0 146.0H769.0V174.0ZM67.0 -169.0V-197.0H327.0V-169.0ZM67.0 -340.0V-368.0H327.0V-340.0ZM271.0 0.0V-537.0C271.0 -551.0 267.0 -557.0 251.0 -557.0C231.0 -557.0 137.0 -551.0 137.0 -551.0V-565.0C183.0 -573.0 203.0 -586.0 218.0 -605.0C232.0 -622.0 237.0 -651.0 240.0 -690.0C370.0 -678.0 387.0 -632.0 387.0 -551.0V-50.0C409.0 -45.0 424.0 -36.0 431.0 -27.0L314.0 63.0L260.0 0.0ZM145.0 0.0V-349.0H239.0V0.0ZM93.0 140.0 80.0 112.0H273.0V140.0ZM202.0 140.0C193.0 102.0 170.0 29.0 149.0 -12.0H162.0C217.0 14.0 278.0 61.0 321.0 96.0C341.0 97.0 352.0 100.0 360.0 108.0L252.0 202.0L191.0 140.0ZM66.0 261.0C39.0 135.0 -14.0 9.0 -68.0 -71.0L-57.0 -79.0C40.0 -22.0 125.0 67.0 188.0 190.0C211.0 189.0 223.0 198.0 227.0 211.0Z"/></g>
<g fill="black" opacity=".8" transform="translate(1000 300) scale(0.1 -0.1)"><path d="M0.0 0.0V-209.0C0.0 -361.0 -3.0 -537.0 -69.0 -676.0L-58.0 -684.0C105.0 -554.0 114.0 -352.0 114.0 -208.0V0.0H132.0L-1.0 48.0L0.0 10.0ZM391.0 174.0 399.0 145.0H760.0V174.0ZM57.0 -173.0 59.0 -202.0H328.0V-173.0ZM67.0 -342.0 72.0 -371.0H323.0V-342.0ZM271.0 0.0V-536.0C271.0 -550.0 267.0 -555.0 250.0 -555.0C231.0 -555.0 137.0 -550.0 137.0 -550.0V-565.0C182.0 -572.0 203.0 -585.0 218.0 -605.0C232.0 -621.0 238.0 -650.0 240.0 -690.0C371.0 -678.0 388.0 -632.0 388.0 -551.0V-51.0C409.0 -46.0 424.0 -36.0 431.0 -27.0L316.0 64.0L259.0 0.0ZM144.0 0.0V-347.0H239.0V0.0ZM96.0 142.0 83.0 113.0H277.0V142.0ZM202.0 141.0C193.0 103.0 170.0 31.0 148.0 -9.0H161.0C217.0 15.0 278.0 62.0 321.0 97.0C341.0 97.0 352.0 99.0 361.0 108.0L252.0 202.0L191.0 141.0ZM66.0 261.0C38.0 137.0 -14.0 10.0 -68.0 -68.0L-57.0 -77.0C40.0 -20.0 125.0 69.0 187.0 189.0C211.0 189.0 223.0 197.0 228.0 212.0Z"/></g>
<g fill="red" transform="translate(1100 300) scale(0.1 -0.1)"><path d="M0.0 0.0V-220.0C0.0 -366.0 -3.0 -523.0 -73.0 -650.0L-57.0 -662.0C43.0 -535.0 47.0 -354.0 47.0 -219.0V0.0H56.0L0.0 28.0V10.0ZM25.0 0.0V-29.0H286.0V0.0ZM27.0 -160.0V-190.0H288.0V-160.0ZM22.0 -334.0V-363.0H288.0V-334.0ZM268.0 0.0V-571.0C268.0 -587.0 263.0 -592.0 246.0 -592.0C227.0 -592.0 133.0 -584.0 133.0 -584.0V-601.0C173.0 -606.0 197.0 -612.0 211.0 -621.0C223.0 -629.0 228.0 -644.0 231.0 -658.0C305.0 -650.0 313.0 -621.0 313.0 -578.0V-36.0C329.0 -32.0 344.0 -25.0 350.0 -19.0L284.0 32.0L259.0 0.0ZM131.0 0.0V-349.0H176.0V0.0ZM78.0 152.0 64.0 122.0H242.0V152.0ZM218.0 152.0C204.0 110.0 172.0 27.0 143.0 -19.0H163.0C198.0 17.0 237.0 82.0 259.0 118.0C278.0 119.0 291.0 120.0 298.0 127.0L239.0 184.0L207.0 152.0ZM79.0 250.0C47.0 120.0 -11.0 -3.0 -74.0 -82.0L-58.0 -92.0C13.0 -22.0 77.0 89.0 119.0 208.0C139.0 207.0 150.0 216.0 154.0 227.0Z"/></g>
<g fill="black" opacity=".8" transform="translate(1100 300) scale(0.1 -0.1)"><path d="M0.0 0.0V-214.0C0.0 -361.0 -3.0 -516.0 -72.0 -645.0L-56.0 -656.0C44.0 -529.0 47.0 -347.0 47.0 -214.0V0.0H54.0L1.0 27.0L0.0 9.0ZM25.0 -1.0 24.0 -31.0H288.0V-1.0ZM25.0 -159.0V-189.0H291.0V-159.0ZM28.0 -333.0 29.0 -362.0H282.0V-333.0ZM271.0 0.0V-568.0C271.0 -584.0 263.0 -589.0 248.0 -589.0C229.0 -589.0 136.0 -582.0 136.0 -582.0V-599.0C175.0 -605.0 199.0 -609.0 213.0 -618.0C224.0 -627.0 231.0 -641.0 233.0 -653.0C306.0 -644.0 314.0 -618.0 314.0 -574.0V-39.0C332.0 -33.0 349.0 -27.0 356.0 -20.0L287.0 34.0L261.0 0.0ZM132.0 0.0V-341.0H178.0V0.0ZM75.0 157.0 62.0 127.0H236.0V157.0ZM214.0 153.0C201.0 112.0 172.0 28.0 142.0 -19.0H164.0C198.0 17.0 235.0 83.0 258.0 117.0C277.0 119.0 290.0 120.0 296.0 127.0L236.0 186.0L203.0 153.0ZM76.0 253.0C44.0 117.0 -14.0 -7.0 -78.0 -87.0L-62.0 -97.0C11.0 -26.0 75.0 84.0 118.0 209.0C139.0 209.0 150.0 218.0 153.0 230.0Z"/></g>
<g fill="red" transform="translate(1200 300) scale(0.1 -0.1)"><path d="M0.0 0.0V-215.0C0.0 -365.0 0.0 -539.0 -58.0 -677.0L-47.0 -685.0C103.0 -555.0 111.0 -358.0 111.0 -215.0V0.0H129.0L6.0 44.0L0.0 10.0ZM60.0 1.0V-27.0H320.0V1.0ZM60.0 -168.0V-196.0H320.0V-168.0ZM60.0 -339.0V-367.0H320.0V-339.0ZM263.0 1.0V-533.0C263.0 -546.0 259.0 -552.0 246.0 -552.0C229.0 -552.0 159.0 -547.0 159.0 -547.0V-561.0C196.0 -569.0 213.0 -582.0 224.0 -603.0C235.0 -622.0 240.0 -655.0 241.0 -697.0C365.0 -685.0 380.0 -635.0 380.0 -550.0V-41.0C396.0 -37.0 407.0 -30.0 412.0 -24.0L304.0 58.0L254.0 1.0ZM141.0 1.0V-348.0H235.0V1.0ZM92.0 142.0 79.0 114.0H239.0V142.0ZM189.0 142.0C181.0 104.0 159.0 31.0 140.0 -10.0H153.0C203.0 17.0 259.0 65.0 297.0 99.0C317.0 100.0 328.0 103.0 336.0 111.0L234.0 200.0L178.0 142.0ZM60.0 260.0C36.0 127.0 -12.0 -12.0 -61.0 -101.0L-49.0 -109.0C43.0 -41.0 122.0 62.0 179.0 190.0C202.0 190.0 214.0 198.0 219.0 211.0Z"/></g>
<g fill="black" opacity=".8" transform="translate(1200 300) scale(0.1 -0.1)"><path d="M0.0 0.0V-217.0C0.0 -368.0 -1.0 -543.0 -59.0 -680.0L-47.0 -688.0C106.0 -558.0 114.0 -359.0 114.0 -216.0V0.0H131.0L6.0 46.0L0.0 9.0ZM57.0 1.0 56.0 -29.0H321.0V1.0ZM59.0 -168.0 60.0 -197.0H326.0V-168.0ZM65.0 -342.0V-372.0H315.0V-342.0ZM260.0 1.0V-536.0C260.0 -549.0 256.0 -555.0 242.0 -555.0C224.0 -555.0 146.0 -550.0 146.0 -550.0V-566.0C185.0 -572.0 205.0 -586.0 218.0 -607.0C229.0 -625.0 235.0 -657.0 236.0 -698.0C365.0 -686.0 381.0 -637.0 381.0 -553.0V-45.0C398.0 -41.0 410.0 -32.0 417.0 -25.0L305.0 62.0L250.0 1.0ZM139.0 1.0V-351.0H235.0V1.0ZM92.0 144.0 81.0 115.0H242.0V144.0ZM189.0 139.0C182.0 102.0 161.0 30.0 142.0 -10.0H155.0C207.0 14.0 264.0 61.0 303.0 95.0C323.0 95.0 335.0 97.0 343.0 106.0L237.0 198.0L178.0 139.0ZM58.0 260.0C32.0 128.0 -15.0 -10.0 -62.0 -95.0L-50.0 -104.0C41.0 -39.0 119.0 58.0 176.0 184.0C201.0 184.0 213.0 192.0 219.0 207.0Z"/></g>
<g fill="red" transform="translate(1300 300) scale(0.1 -0.1)"><path d="M0.0 0.0V-194.0C0.0 -339.0 -4.0 -498.0 -75.0 -629.0L-59.0 -641.0C41.0 -510.0 45.0 -326.0 45.0 -193.0V0.0H54.0L0.0 28.0V10.0ZM24.0 0.0V-29.0H304.0V0.0ZM24.0 -160.0V-190.0H304.0V-160.0ZM19.0 -333.0V-363.0H304.0V-333.0ZM282.0 0.0V-562.0C282.0 -577.0 277.0 -583.0 259.0 -583.0C239.0 -583.0 147.0 -576.0 147.0 -576.0V-592.0C186.0 -596.0 211.0 -601.0 225.0 -609.0C237.0 -615.0 242.0 -627.0 245.0 -638.0C317.0 -631.0 326.0 -605.0 326.0 -567.0V-39.0C346.0 -35.0 363.0 -27.0 370.0 -19.0L298.0 34.0L272.0 0.0ZM138.0 0.0V-343.0H182.0V0.0ZM73.0 169.0 59.0 139.0H246.0V169.0ZM220.0 169.0C205.0 124.0 172.0 34.0 142.0 -13.0H164.0C198.0 25.0 239.0 96.0 261.0 135.0C280.0 136.0 293.0 137.0 300.0 144.0L241.0 201.0L209.0 169.0ZM84.0 267.0C50.0 134.0 -12.0 9.0 -77.0 -69.0L-62.0 -80.0C14.0 -10.0 81.0 102.0 123.0 224.0C144.0 223.0 156.0 233.0 160.0 244.0Z"/></g>
<g fill="black" opacity=".8" transform="translate(1300 300) scale(0.1 -0.1)"><path d="M0.0 0.0V-212.0C0.0 -358.0 -5.0 -511.0 -77.0 -638.0L-61.0 -649.0C41.0 -524.0 45.0 -344.0 45.0 -211.0V0.0H53.0L1.0 26.0L0.0 8.0ZM26.0 2.0V-26.0H310.0V2.0ZM22.0 -164.0 23.0 -192.0H302.0V-164.0ZM25.0 -333.0 26.0 -362.0H298.0V-333.0ZM283.0 0.0V-564.0C283.0 -579.0 276.0 -585.0 260.0 -585.0C242.0 -585.0 149.0 -577.0 149.0 -577.0V-594.0C188.0 -599.0 212.0 -603.0 226.0 -613.0C236.0 -621.0 243.0 -634.0 245.0 -646.0C318.0 -638.0 325.0 -612.0 325.0 -569.0V-38.0C343.0 -32.0 359.0 -27.0 366.0 -20.0L298.0 33.0L273.0 0.0ZM138.0 0.0V-341.0H183.0V0.0ZM79.0 153.0 66.0 122.0H248.0V153.0ZM220.0 152.0C206.0 112.0 177.0 29.0 147.0 -18.0H167.0C202.0 18.0 240.0 83.0 263.0 118.0C282.0 120.0 294.0 121.0 300.0 128.0L241.0 185.0L209.0 152.0ZM79.0 253.0C46.0 118.0 -15.0 -7.0 -81.0 -87.0L-67.0 -96.0C10.0 -25.0 77.0 86.0 120.0 210.0C141.0 210.0 152.0 218.0 155.0 230.0Z"/></g>
<g fill="red" transform="translate(1400 300) scale(0.1 -0.1)"><path d="M0.0 0.0V-210.0C0.0 -362.0 -2.0 -538.0 -69.0 -677.0L-59.0 -685.0C105.0 -555.0 114.0 -354.0 114.0 -210.0V0.0H132.0L0.0 47.0V10.0ZM67.0 0.0V-28.0H327.0V0.0ZM67.0 -169.0V-197.0H327.0V-169.0ZM67.0 -340.0V-368.0H327.0V-340.0ZM271.0 0.0V-537.0C271.0 -551.0 267.0 -557.0 251.0 -557.0C231.0 -557.0 137.0 -551.0 137.0 -551.0V-565.0C183.0 -573.0 203.0 -586.0 218.0 -605.0C232.0 -622.0 237.0 -651.0 240.0 -690.0C370.0 -678.0 387.0 -632.0 387.0 -551.0V-50.0C409.0 -45.0 424.0 -36.0 431.0 -27.0L314.0 63.0L260.0 0.0ZM145.0 0.0V-349.0H239.0V0.0ZM93.0 140.0 80.0 112.0H273.0V140.0ZM202.0 140.0C193.0 102.0 170.0 29.0 149.0 -12.0H162.0C217.0 14.0 278.0 61.0 321.0 96.0C341.0 97.0 352.0 100.0 360.0 108.0L252.0 202.0L191.0 140.0ZM66.0 261.0C39.0 135.0 -14.0 9.0 -68.0 -71.0L-57.0 -79.0C40.0 -22.0 125.0 67.0 188.0 190.0C211.0 189.0 223.0 198.0 227.0 211.0Z"/></g>
<g fill="black" opacity=".8" transform="translate(1400 300) scale(0.1 -0.1)"><path d="M0.0 0.0V-220.0C0.0 -369.0 -2.0 -540.0 -63.0 -674.0L-51.0 -682.0C105.0 -555.0 113.0 -361.0 113.0 -219.0V0.0H130.0L7.0 45.0L0.0 9.0ZM60.0 4.0V-25.0H338.0V4.0ZM58.0 -172.0 60.0 -201.0H331.0V-172.0ZM64.0 -344.0 65.0 -373.0H326.0V-344.0ZM270.0 1.0V-532.0C270.0 -545.0 266.0 -550.0 251.0 -550.0C233.0 -550.0 153.0 -545.0 153.0 -545.0V-560.0C192.0 -567.0 212.0 -581.0 225.0 -601.0C237.0 -619.0 243.0 -650.0 245.0 -690.0C372.0 -679.0 389.0 -631.0 389.0 -548.0V-45.0C405.0 -41.0 417.0 -32.0 424.0 -25.0L314.0 61.0L260.0 1.0ZM143.0 1.0V-351.0H239.0V1.0ZM97.0 138.0 85.0 109.0H256.0V138.0ZM197.0 138.0C189.0 101.0 169.0 29.0 149.0 -10.0H162.0C214.0 14.0 272.0 61.0 312.0 94.0C331.0 94.0 343.0 97.0 351.0 105.0L245.0 197.0L186.0 138.0ZM63.0 258.0C36.0 127.0 -15.0 -10.0 -65.0 -95.0L-54.0 -104.0C41.0 -39.0 122.0 60.0 180.0 185.0C205.0 185.0 216.0 192.0 222.0 208.0Z"/></g>
<g fill="red" transform="translate(1500 300) scale(0.1 -0.1)"><path d="M0.0 0.0V-220.0C0.0 -366.0 -3.0 -523.0 -73.0 -650.0L-57.0 -662.0C43.0 -535.0 47.0 -354.0 47.0 -219.0V0.0H56.0L0.0 28.0V10.0ZM25.0 0.0V-29.0H286.0V0.0ZM27.0 -160.0V-190.0H288.0V-160.0ZM22.0 -334.0V-363.0H288.0V-334.0ZM268.0 0.0V-571.0C268.0 -587.0 263.0 -592.0 246.0 -592.0C227.0 -592.0 133.0 -584.0 133.0 -584.0V-601.0C173.0 -606.0 197.0 -612.0 211.0 -621.0C223.0 -629.0 228.0 -644.0 231.0 -658.0C305.0 -650.0 313.0 -621.0 313.0 -578.0V-36.0C329.0 -32.0 344.0 -25.0 350.0 -19.0L284.0 32.0L259.0 0.0ZM131.0 0.0V-349.0H176.0V0.0ZM78.0 152.0 64.0 122.0H242.0V152.0ZM218.0 152.0C204.0 110.0 172.0 27.0 143.0 -19.0H163.0C198.0 17.0 237.0 82.0 259.0 118.0C278.0 119.0 291.0 120.0 298.0 127.0L239.0 184.0L207.0 152.0ZM79.0 250.0C47.0 120.0 -11.0 -3.0 -74.0 -82.0L-58.0 -92.0C13.0 -22.0 77.0 89.0 119.0 208.0C139.0 207.0 150.0 216.0 154.0 227.0Z"/></g>
<g fill="black" opacity=".8" transform="translate(1500 300) scale(0.1 -0.1)"><path d="M0.0 0.0V-214.0C0.0 -361.0 -3.0 -517.0 -73.0 -645.0L-57.0 -656.0C43.0 -529.0 47.0 -347.0 47.0 -214.0V0.0H54.0L1.0 27.0L0.0 8.0ZM25.0 -2.0 24.0 -31.0H289.0V-2.0ZM24.0 -160.0 25.0 -189.0H291.0V-160.0ZM27.0 -333.0V-362.0H283.0V-333.0ZM272.0 0.0V-569.0C272.0 -585.0 264.0 -590.0 249.0 -590.0C230.0 -590.0 137.0 -582.0 137.0 -582.0V-599.0C176.0 -605.0 200.0 -609.0 214.0 -619.0C225.0 -627.0 232.0 -641.0 233.0 -653.0C307.0 -644.0 315.0 -618.0 315.0 -574.0V-39.0C333.0 -33.0 349.0 -27.0 357.0 -20.0L287.0 34.0L262.0 0.0ZM133.0 0.0V-341.0H179.0V0.0ZM74.0 157.0 62.0 126.0H237.0V157.0ZM215.0 153.0C201.0 112.0 172.0 28.0 143.0 -19.0H164.0C198.0 17.0 236.0 83.0 258.0 117.0C278.0 119.0 290.0 120.0 296.0 127.0L236.0 186.0L203.0 153.0ZM76.0 253.0C44.0 117.0 -14.0 -7.0 -78.0 -87.0L-63.0 -97.0C11.0 -26.0 76.0 84.0 118.0 209.0C139.0 209.0 150.0 218.0 154.0 230.0Z"/></g>
<g fill="red" transform="translate(1600 300) scale(0.1 -0.1)"><path d="M0.0 0.0V-215.0C0.0 -365.0 0.0 -539.0 -58.0 -677.0L-47.0 -685.0C103.0 -555.0 111.0 -358.0 111.0 -215.0V0.0H129.0L6.0 44.0L0.0 10.0ZM60.0 1.0V-27.0H320.0V1.0ZM60.0 -168.0V-196.0H320.0V-168.0ZM60.0 -339.0V-367.0H320.0V-339.0ZM263.0 1.0V-533.0C263.0 -546.0 259.0 -552.0 246.0 -552.0C229.0 -552.0 159.0 -547.0 159.0 -547.0V-561.0C196.0 -569.0 213.0 -582.0 224.0 -603.0C235.0 -622.0 240.0 -655.0 241.0 -697.0C365.0 -685.0 380.0 -635.0 380.0 -550.0V-41.0C396.0 -37.0 407.0 -30.0 412.0 -24.0L304.0 58.0L254.0 1.0ZM141.0 1.0V-348.0H235.0V1.0ZM92.0 142.0 79.0 114.0H239.0V142.0ZM196.0 142.0C188.0 104.0 166.0 31.0 147.0 -10.0H160.0C210.0 17.0 266.0 65.0 304.0 99.0C324.0 100.0 335.0 103.0 343.0 111.0L241.0 200.0L185.0 142.0ZM60.0 260.0C36.0 127.0 -12.0 -12.0 -61.0 -101.0L-49.0 -109.0C43.0 -41.0 122.0 62.0 179.0 190.0C202.0 190.0 214.0 198.0 219.0 211.0Z"/></g>
<g fill="black" opacity=".8" transform="translate(1600 300) scale(0.1 -0.1)"><path d="M0.0 0.0V-218.0C0.0 -368.0 -1.0 -543.0 -59.0 -680.0L-47.0 -688.0C106.0 -558.0 114.0 -360.0 114.0 -217.0V0.0H131.0L6.0 46.0L0.0 9.0ZM57.0 0.0 56.0 -29.0H321.0V0.0ZM58.0 -169.0 60.0 -198.0H326.0V-169.0ZM64.0 -343.0V-372.0H316.0V-343.0ZM261.0 1.0V-537.0C261.0 -550.0 257.0 -555.0 242.0 -555.0C225.0 -555.0 147.0 -550.0 147.0 -550.0V-566.0C186.0 -572.0 205.0 -586.0 218.0 -607.0C229.0 -625.0 235.0 -657.0 237.0 -698.0C365.0 -686.0 381.0 -638.0 381.0 -553.0V-45.0C398.0 -41.0 411.0 -32.0 417.0 -25.0L306.0 62.0L251.0 1.0ZM139.0 1.0V-351.0H236.0V1.0ZM92.0 144.0 81.0 115.0H243.0V144.0ZM190.0 139.0C182.0 102.0 162.0 30.0 143.0 -10.0H156.0C207.0 14.0 265.0 61.0 304.0 95.0C324.0 95.0 336.0 97.0 344.0 105.0L238.0 198.0L179.0 139.0ZM58.0 260.0C32.0 127.0 -15.0 -10.0 -62.0 -96.0L-50.0 -105.0C41.0 -39.0 119.0 58.0 177.0 185.0C202.0 184.0 213.0 192.0 219.0 208.0Z"/></g>
<g fill="red" transform="translate(100 400) scale(0.1 -0.1)"><path d="M0.0 0.0V-220.0C0.0 -366.0 -3.0 -523.0 -73.0 -650.0L-57.0 -662.0C43.0 -535.0 47.0 -354.0 47.0 -219.0V0.0H56.0L0.0 28.0V10.0ZM25.0 0.0V-29.0H286.0V0.0ZM410.0 -244.0V-274.0H751.0V-244.0ZM22.0 -334.0V-363.0H288.0V-334.0ZM268.0 0.0V-571.0C268.0 -587.0 263.0 -592.0 246.0 -592.0C227.0 -592.0 133.0 -584.0 133.0 -584.0V-601.0C173.0 -606.0 197.0 -612.0 211.0 -621.0C223.0 -629.0 228.0 -644.0 231.0 -658.0C305.0 -650.0 313.0 -621.0 313.0 -578.0V-36.0C329.0 -32.0 344.0 -25.0 350.0 -19.0L284.0 32.0L259.0 0.0ZM131.0 0.0V-349.0H176.0V0.0ZM78.0 152.0 64.0 122.0H242.0V152.0ZM218.0 152.0C204.0 110.0 172.0 27.0 143.0 -19.0H163.0C198.0 17.0 237.0 82.0 259.0 118.0C278.0 119.0 291.0 120.0 298.0 127.0L239.0 184.0L207.0 152.0ZM79.0 250.0C47.0 120.0 -11.0 -3.0 -74.0 -82.0L-58.0 -92.0C13.0 -22.0 77.0 89.0 119.0 208.0C139.0 207.0 150.0 216.0 154.0 227.0Z"/></g>
<g fill="black" opacity=".8" transform="translate(100 400) scale(0.1 -0.1)"><path d="M0.0 0.0V-224.0C0.0 -372.0 -4.0 -527.0 -73.0 -653.0L-57.0 -664.0C42.0 -539.0 46.0 -359.0 46.0 -224.0V0.0H53.0L-1.0 27.0L0.0 8.0ZM29.0 -0.0 27.0 -28.0H280.0V-0.0ZM413.0 -238.0V-266.0H763.0V-238.0ZM20.0 -339.0 23.0 -367.0H286.0V-339.0ZM269.0 0.0V-572.0C269.0 -588.0 261.0 -593.0 247.0 -593.0C229.0 -593.0 134.0 -585.0 134.0 -585.0V-602.0C174.0 -608.0 197.0 -613.0 212.0 -622.0C222.0 -631.0 228.0 -645.0 230.0 -659.0C304.0 -651.0 312.0 -623.0 312.0 -579.0V-35.0C327.0 -30.0 341.0 -25.0 347.0 -19.0L284.0 32.0L260.0 0.0ZM131.0 0.0V-352.0H175.0V0.0ZM76.0 143.0 61.0 116.0H242.0V143.0ZM219.0 149.0C205.0 108.0 174.0 27.0 143.0 -20.0H163.0C199.0 16.0 237.0 80.0 260.0 115.0C279.0 116.0 291.0 117.0 297.0 124.0L240.0 180.0L208.0 149.0ZM78.0 247.0C48.0 118.0 -10.0 -5.0 -73.0 -85.0L-58.0 -93.0C13.0 -22.0 78.0 88.0 120.0 205.0C139.0 205.0 150.0 213.0 154.0 224.0Z"/></g>
<g fill="red" transform="translate(200 400) scale(0.1 -0.1)"><path d="M0.0 0.0V-215.0C0.0 -365.0 0.0 -539.0 -58.0 -677.0L-47.0 -685.0C103.0 -555.0 111.0 -358.0 111.0 -215.0V0.0H129.0L6.0 44.0L0.0 10.0ZM60.0 1.0V-27.0H320.0V1.0ZM491.0 -248.0V-276.0H818.0V-248.0ZM60.0 -339.0V-367.0H320.0V-339.0ZM263.0 1.0V-533.0C263.0 -546.0 259.0 -552.0 246.0 -552.0C229.0 -552.0 159.0 -547.0 159.0 -547.0V-561.0C196.0 -569.0 213.0 -582.0 224.0 -603.0C235.0 -622.0 240.0 -655.0 241.0 -697.0C365.0 -685.0 380.0 -635.0 380.0 -550.0V-41.0C396.0 -37.0 407.0 -30.0 412.0 -24.0L304.0 58.0L254.0 1.0ZM141.0 1.0V-348.0H235.0V1.0ZM92.0 142.0 79.0 114.0H239.0V142.0ZM189.0 142.0C181.0 104.0 159.0 31.0 140.0 -10.0H153.0C203.0 17.0 259.0 65.0 297.0 99.0C317.0 100.0 328.0 103.0 336.0 111.0L234.0 200.0L178.0 142.0ZM60.0 260.0C36.0 127.0 -12.0 -12.0 -61.0 -101.0L-49.0 -109.0C43.0 -41.0 122.0 62.0 179.0 190.0C202.0 190.0 214.0 198.0 219.0 211.0Z"/></g>
<g fill="black" opacity=".8" transform="translate(200 400) scale(0.1 -0.1)"><path d="M0.0 0.0V-219.0C0.0 -368.0 -1.0 -539.0 -57.0 -675.0L-45.0 -682.0C102.0 -554.0 109.0 -360.0 109.0 -218.0V0.0H127.0L7.0 44.0L0.0 9.0ZM72.0 6.0 69.0 -23.0H316.0V6.0ZM483.0 -240.0 485.0 -268.0H813.0V-240.0ZM59.0 -345.0 61.0 -374.0H316.0V-345.0ZM262.0 1.0V-531.0C262.0 -543.0 257.0 -549.0 245.0 -549.0C229.0 -549.0 165.0 -545.0 165.0 -545.0V-560.0C198.0 -566.0 216.0 -579.0 226.0 -601.0C235.0 -620.0 242.0 -654.0 242.0 -696.0C364.0 -685.0 378.0 -634.0 378.0 -549.0V-38.0C391.0 -35.0 402.0 -28.0 406.0 -23.0L303.0 57.0L252.0 1.0ZM139.0 1.0V-349.0H233.0V1.0ZM92.0 139.0 78.0 114.0H237.0V139.0ZM195.0 144.0C187.0 106.0 165.0 34.0 146.0 -6.0H158.0C208.0 19.0 263.0 68.0 300.0 102.0C320.0 102.0 331.0 105.0 339.0 113.0L239.0 200.0L183.0 144.0ZM61.0 260.0C36.0 126.0 -11.0 -17.0 -60.0 -106.0L-48.0 -114.0C44.0 -44.0 122.0 63.0 176.0 191.0C201.0 191.0 212.0 198.0 217.0 212.0Z"/></g>
<g fill="red" transform="translate(300 400) scale(0.1 -0.1)"><path d="M0.0 0.0V-220.0C0.0 -366.0 -3.0 -523.0 -73.0 -650.0L-57.0 -662.0C43.0 -535.0 47.0 -354.0 47.0 -219.0V0.0H56.0L0.0 28.0V10.0ZM25.0 0.0V-29.0H286.0V0.0ZM27.0 -160.0V-190.0H288.0V-160.0ZM431.0 -438.0V-468.0H607.0V-438.0ZM274.0 0.0V-571.0C274.0 -587.0 269.0 -592.0 252.0 -592.0C233.0 -592.0 139.0 -584.0 139.0 -584.0V-601.0C179.0 -606.0 203.0 -612.0 217.0 -621.0C229.0 -629.0 234.0 -644.0 237.0 -658.0C311.0 -650.0 319.0 -621.0 319.0 -578.0V-36.0C335.0 -32.0 350.0 -25.0 356.0 -19.0L290.0 32.0L265.0 0.0ZM135.0 0.0V-349.0H180.0V0.0ZM78.0 152.0 64.0 122.0H242.0V152.0ZM218.0 152.0C204.0 110.0 172.0 27.0 143.0 -19.0H163.0C198.0 17.0 237.0 82.0 259.0 118.0C278.0 119.0 291.0 120.0 298.0 127.0L239.0 184.0L207.0 152.0ZM79.0 250.0C47.0 120.0 -11.0 -3.0 -74.0 -82.0L-58.0 -92.0C13.0 -22.0 77.0 89.0 119.0 208.0C139.0 207.0 150.0 216.0 154.0 227.0Z"/></g>
<g fill="black" opacity=".8" transform="translate(300 400) scale(0.1 -0.1)"><path d="M0.0 0.0V-217.0C0.0 -365.0 -3.0 -521.0 -72.0 -650.0L-56.0 -662.0C43.0 -535.0 47.0 -351.0 47.0 -217.0V0.0H54.0L-2.0 28.0L0.0 9.0ZM21.0 0.0V-28.0H287.0V0.0ZM29.0 -161.0V-190.0H285.0V-161.0ZM427.0 -437.0 425.0 -466.0H612.0V-437.0ZM274.0 0.0V-571.0C274.0 -588.0 266.0 -593.0 251.0 -593.0C231.0 -593.0 135.0 -585.0 135.0 -585.0V-602.0C176.0 -607.0 200.0 -612.0 215.0 -621.0C226.0 -629.0 232.0 -644.0 234.0 -657.0C309.0 -648.0 317.0 -621.0 317.0 -578.0V-36.0C332.0 -31.0 347.0 -26.0 354.0 -19.0L289.0 32.0L264.0 0.0ZM134.0 0.0V-352.0H179.0V0.0ZM80.0 154.0 65.0 125.0H245.0V154.0ZM221.0 156.0C206.0 114.0 172.0 29.0 140.0 -18.0H160.0C198.0 18.0 236.0 86.0 260.0 123.0C279.0 124.0 292.0 124.0 298.0 131.0L242.0 187.0L210.0 156.0ZM80.0 252.0C49.0 125.0 -9.0 3.0 -72.0 -76.0L-56.0 -84.0C15.0 -15.0 79.0 95.0 121.0 210.0C141.0 210.0 152.0 218.0 155.0 230.0Z"/></g>
<g fill="red" transform="translate(400 400) scale(0.1 -0.1)"><path d="M0.0 0.0V-215.0C0.0 -365.0 0.0 -539.0 -58.0 -677.0L-47.0 -685.0C103.0 -555.0 111.0 -358.0 111.0 -215.0V0.0H129.0L6.0 44.0L0.0 10.0ZM60.0 1.0V-27.0H320.0V1.0ZM60.0 -168.0V-196.0H320.0V-168.0ZM481.0 -428.0V-456.0H632.0V-428.0ZM263.0 1.0V-533.0C263.0 -546.0 259.0 -552.0 246.0 -552.0C229.0 -552.0 159.0 -547.0 159.0 -547.0V-561.0C196.0 -569.0 213.0 -582.0 224.0 -603.0C235.0 -622.0 240.0 -655.0 241.0 -697.0C365.0 -685.0 380.0 -635.0 380.0 -550.0V-41.0C396.0 -37.0 407.0 -30.0 412.0 -24.0L304.0 58.0L254.0 1.0ZM141.0 1.0V-348.0H235.0V1.0ZM92.0 142.0 79.0 114.0H239.0V142.0ZM189.0 142.0C181.0 104.0 159.0 31.0 140.0 -10.0H153.0C203.0 17.0 259.0 65.0 297.0 99.0C317.0 100.0 328.0 103.0 336.0 111.0L234.0 200.0L178.0 142.0ZM60.0 260.0C36.0 127.0 -12.0 -12.0 -61.0 -101.0L-49.0 -109.0C43.0 -41.0 122.0 62.0 179.0 190.0C202.0 190.0 214.0 198.0 219.0 211.0Z"/></g>
<g fill="black" opacity=".8" transform="translate(400 400) scale(0.1 -0.1)"><path d="M0.0 0.0V-212.0C0.0 -362.0 -1.0 -537.0 -59.0 -676.0L-48.0 -684.0C103.0 -554.0 110.0 -354.0 110.0 -211.0V0.0H127.0L4.0 45.0L0.0 10.0ZM58.0 -0.0 57.0 -29.0H322.0V-0.0ZM65.0 -167.0 66.0 -196.0H318.0V-167.0ZM480.0 -423.0 478.0 -451.0H636.0V-423.0ZM264.0 1.0V-533.0C264.0 -546.0 259.0 -551.0 247.0 -551.0C230.0 -551.0 163.0 -547.0 163.0 -547.0V-561.0C197.0 -568.0 216.0 -582.0 226.0 -603.0C236.0 -622.0 242.0 -655.0 243.0 -696.0C366.0 -685.0 381.0 -636.0 381.0 -550.0V-41.0C396.0 -37.0 406.0 -30.0 412.0 -24.0L306.0 58.0L254.0 1.0ZM140.0 1.0V-346.0H234.0V1.0ZM89.0 143.0 75.0 115.0H242.0V143.0ZM190.0 145.0C182.0 106.0 159.0 31.0 138.0 -9.0H150.0C203.0 17.0 259.0 67.0 296.0 102.0C317.0 102.0 327.0 105.0 336.0 113.0L235.0 200.0L180.0 145.0ZM62.0 261.0C37.0 130.0 -11.0 -10.0 -61.0 -97.0L-49.0 -105.0C43.0 -37.0 124.0 67.0 179.0 193.0C204.0 193.0 215.0 201.0 221.0 216.0Z"/></g>
<g fill="red" transform="translate(500 400) scale(0.1 -0.1)"><path d="M0.0 0.0V-110.0C0.0 -202.0 -24.0 -288.0 -160.0 -356.0L-149.0 -372.0C25.0 -305.0 45.0 -200.0 45.0 -110.0V0.0H55.0L8.0 23.0L0.0 9.0ZM67.0 88.0 40.0 59.0H328.0V88.0ZM24.0 0.0V-30.0H544.0V0.0ZM21.0 -99.0V-129.0H546.0V-99.0ZM523.0 0.0V-291.0C523.0 -306.0 517.0 -312.0 498.0 -312.0C473.0 -312.0 357.0 -304.0 357.0 -304.0V-320.0C405.0 -325.0 435.0 -332.0 451.0 -340.0C465.0 -348.0 472.0 -361.0 475.0 -376.0C559.0 -367.0 568.0 -337.0 568.0 -296.0V-40.0C587.0 -37.0 605.0 -28.0 611.0 -21.0L539.0 32.0L514.0 0.0ZM251.0 0.0V-217.0H295.0V0.0ZM34.0 194.0V164.0H253.0V194.0ZM315.0 88.0C299.0 62.0 263.0 13.0 237.0 -16.0H255.0C289.0 3.0 330.0 35.0 356.0 55.0C375.0 56.0 386.0 57.0 394.0 64.0L335.0 121.0L304.0 88.0ZM84.0 149.0C32.0 62.0 -71.0 -34.0 -170.0 -88.0L-161.0 -105.0C-48.0 -57.0 61.0 31.0 122.0 109.0C145.0 104.0 153.0 107.0 158.0 117.0Z"/></g>
<g fill="black" opacity=".8" transform="translate(500 400) scale(0.1 -0.1)"><path d="M0.0 0.0V-110.0C0.0 -204.0 -24.0 -288.0 -160.0 -357.0L-149.0 -372.0C26.0 -306.0 45.0 -200.0 45.0 -111.0V0.0H53.0L7.0 22.0L0.0 7.0ZM67.0 88.0 40.0 60.0H328.0V88.0ZM25.0 0.0V-29.0H546.0V0.0ZM20.0 -100.0V-129.0H547.0V-100.0ZM524.0 0.0V-291.0C524.0 -306.0 515.0 -312.0 498.0 -312.0C473.0 -312.0 356.0 -305.0 356.0 -305.0V-320.0C405.0 -326.0 435.0 -332.0 451.0 -340.0C463.0 -349.0 472.0 -362.0 474.0 -376.0C559.0 -366.0 567.0 -338.0 567.0 -295.0V-40.0C585.0 -36.0 603.0 -28.0 610.0 -21.0L539.0 32.0L514.0 0.0ZM251.0 0.0V-218.0H295.0V0.0ZM34.0 193.0V163.0H254.0V193.0ZM316.0 88.0C300.0 62.0 264.0 13.0 236.0 -16.0H254.0C289.0 3.0 330.0 35.0 357.0 55.0C375.0 57.0 386.0 57.0 394.0 64.0L336.0 120.0L305.0 88.0ZM84.0 148.0C32.0 61.0 -71.0 -33.0 -170.0 -87.0L-161.0 -103.0C-48.0 -56.0 61.0 33.0 123.0 108.0C146.0 104.0 154.0 107.0 158.0 116.0Z"/></g>
<g fill="red" transform="translate(600 400) scale(0.1 -0.1)"><path d="M0.0 0.0V-98.0C0.0 -192.0 -18.0 -302.0 -147.0 -387.0L-142.0 -395.0C106.0 -327.0 137.0 -190.0 137.0 -98.0V0.0H158.0L33.0 42.0L0.0 10.0ZM95.0 85.0 69.0 57.0H346.0V85.0ZM59.0 0.0V-28.0H587.0V0.0ZM59.0 -92.0V-120.0H587.0V-92.0ZM518.0 0.0V-251.0C518.0 -263.0 513.0 -270.0 498.0 -270.0C474.0 -270.0 365.0 -263.0 365.0 -263.0V-275.0C421.0 -284.0 441.0 -297.0 458.0 -313.0C475.0 -331.0 480.0 -357.0 483.0 -394.0C635.0 -383.0 658.0 -339.0 658.0 -263.0V-51.0C679.0 -47.0 692.0 -37.0 698.0 -29.0L568.0 68.0L508.0 0.0ZM254.0 0.0V-202.0H390.0V0.0ZM116.0 207.0V179.0H295.0V207.0ZM284.0 85.0C276.0 60.0 257.0 15.0 242.0 -12.0H255.0C302.0 -1.0 362.0 22.0 401.0 40.0C422.0 42.0 432.0 44.0 440.0 52.0L334.0 146.0L273.0 85.0ZM81.0 171.0C39.0 78.0 -52.0 -28.0 -138.0 -84.0L-132.0 -92.0C2.0 -59.0 137.0 17.0 223.0 100.0C251.0 97.0 260.0 101.0 265.0 112.0Z"/></g>
<g fill="black" opacity=".8" transform="translate(600 400) scale(0.1 -0.1)"><path d="M0.0 0.0V-98.0C0.0 -193.0 -19.0 -302.0 -146.0 -387.0L-141.0 -394.0C106.0 -327.0 136.0 -189.0 136.0 -98.0V0.0H157.0L32.0 43.0L0.0 9.0ZM96.0 86.0 70.0 57.0H346.0V86.0ZM58.0 1.0 60.0 -27.0H586.0V1.0ZM59.0 -91.0 58.0 -120.0H587.0V-91.0ZM518.0 0.0V-250.0C518.0 -262.0 513.0 -269.0 498.0 -269.0C474.0 -269.0 368.0 -262.0 368.0 -262.0V-275.0C422.0 -283.0 443.0 -296.0 460.0 -313.0C475.0 -330.0 481.0 -357.0 485.0 -394.0C635.0 -383.0 659.0 -339.0 659.0 -263.0V-50.0C677.0 -47.0 691.0 -36.0 697.0 -28.0L569.0 68.0L508.0 0.0ZM254.0 0.0V-202.0H389.0V0.0ZM115.0 206.0V179.0H295.0V206.0ZM286.0 86.0C278.0 61.0 258.0 16.0 242.0 -11.0H255.0C302.0 -1.0 363.0 23.0 401.0 41.0C423.0 43.0 432.0 44.0 441.0 52.0L335.0 146.0L275.0 86.0ZM81.0 172.0C38.0 79.0 -52.0 -29.0 -137.0 -84.0L-131.0 -93.0C2.0 -59.0 137.0 19.0 222.0 101.0C252.0 97.0 260.0 102.0 264.0 114.0Z"/></g>
<g fill="red" transform="translate(700 400) scale(0.1 -0.1)"><path d="M0.0 0.0V-227.0C0.0 -369.0 -2.0 -520.0 -68.0 -641.0L-52.0 -653.0C42.0 -532.0 45.0 -358.0 45.0 -226.0V0.0H55.0L0.0 28.0V10.0ZM431.0 -37.0V-67.0H725.0V-37.0ZM431.0 -135.0V-164.0H725.0V-135.0ZM440.0 -338.0 419.0 -367.0H775.0V-338.0ZM251.0 0.0V-571.0C251.0 -587.0 246.0 -592.0 228.0 -592.0C208.0 -592.0 116.0 -585.0 116.0 -585.0V-601.0C155.0 -606.0 180.0 -612.0 193.0 -619.0C205.0 -627.0 210.0 -640.0 213.0 -653.0C287.0 -645.0 295.0 -617.0 295.0 -577.0V-39.0C315.0 -35.0 331.0 -27.0 338.0 -20.0L266.0 34.0L241.0 0.0ZM124.0 0.0V-349.0H168.0V0.0ZM63.0 152.0 50.0 122.0H222.0V152.0ZM208.0 152.0C192.0 111.0 155.0 30.0 123.0 -14.0H142.0C181.0 20.0 224.0 82.0 250.0 118.0C268.0 119.0 281.0 120.0 288.0 127.0L229.0 184.0L197.0 152.0ZM72.0 249.0C40.0 118.0 -16.0 -10.0 -74.0 -91.0L-59.0 -102.0C10.0 -28.0 71.0 88.0 112.0 207.0C132.0 206.0 143.0 216.0 147.0 227.0Z"/></g>
<g fill="black" opacity=".8" transform="translate(700 400) scale(0.1 -0.1)"><path d="M0.0 0.0V-227.0C0.0 -371.0 -2.0 -520.0 -68.0 -641.0L-51.0 -653.0C43.0 -533.0 45.0 -358.0 45.0 -227.0V0.0H53.0L-1.0 27.0L0.0 8.0ZM456.0 -45.0 455.0 -74.0H706.0V-45.0ZM422.0 -146.0V-175.0H742.0V-146.0ZM440.0 -343.0 427.0 -370.0H768.0V-343.0ZM254.0 0.0V-570.0C254.0 -587.0 246.0 -591.0 230.0 -591.0C210.0 -591.0 118.0 -584.0 118.0 -584.0V-601.0C157.0 -606.0 181.0 -611.0 195.0 -619.0C205.0 -627.0 212.0 -640.0 214.0 -652.0C289.0 -643.0 296.0 -617.0 296.0 -576.0V-39.0C315.0 -34.0 330.0 -27.0 339.0 -20.0L268.0 34.0L243.0 0.0ZM124.0 0.0V-351.0H169.0V0.0ZM68.0 151.0 55.0 120.0H225.0V151.0ZM208.0 150.0C193.0 110.0 157.0 30.0 124.0 -15.0H142.0C183.0 18.0 224.0 81.0 251.0 116.0C269.0 118.0 281.0 119.0 288.0 125.0L230.0 182.0L197.0 150.0ZM70.0 247.0C39.0 116.0 -16.0 -11.0 -74.0 -92.0L-60.0 -102.0C10.0 -28.0 71.0 86.0 113.0 205.0C132.0 205.0 143.0 214.0 147.0 225.0Z"/></g>
<g fill="red" transform="translate(800 400) scale(0.1 -0.1)"><path d="M0.0 0.0V-217.0C0.0 -367.0 1.0 -542.0 -55.0 -681.0L-44.0 -689.0C100.0 -557.0 108.0 -359.0 108.0 -216.0V0.0H125.0L13.0 41.0L0.0 10.0ZM488.0 -62.0V-90.0H763.0V-62.0ZM491.0 -167.0V-195.0H766.0V-167.0ZM486.0 -350.0 466.0 -378.0H793.0V-350.0ZM255.0 0.0V-548.0C255.0 -560.0 251.0 -566.0 238.0 -566.0C221.0 -566.0 152.0 -561.0 152.0 -561.0V-575.0C189.0 -583.0 205.0 -594.0 217.0 -611.0C228.0 -627.0 232.0 -656.0 233.0 -691.0C350.0 -680.0 365.0 -638.0 365.0 -560.0V-41.0C381.0 -38.0 392.0 -31.0 397.0 -24.0L294.0 54.0L246.0 0.0ZM137.0 0.0V-349.0H224.0V0.0ZM96.0 141.0 83.0 113.0H243.0V141.0ZM198.0 141.0C190.0 103.0 168.0 26.0 149.0 -15.0H162.0C212.0 12.0 268.0 63.0 306.0 98.0C326.0 99.0 337.0 102.0 345.0 110.0L243.0 199.0L187.0 141.0ZM59.0 259.0C36.0 122.0 -10.0 -25.0 -57.0 -119.0L-44.0 -127.0C47.0 -53.0 124.0 57.0 179.0 191.0C202.0 191.0 214.0 200.0 219.0 212.0Z"/></g>
<g fill="black" opacity=".8" transform="translate(800 400) scale(0.1 -0.1)"><path d="M0.0 0.0V-218.0C0.0 -367.0 -0.0 -541.0 -54.0 -680.0L-43.0 -687.0C101.0 -556.0 108.0 -358.0 108.0 -216.0V0.0H124.0L13.0 42.0L0.0 9.0ZM514.0 -60.0 512.0 -89.0H748.0V-60.0ZM473.0 -172.0 475.0 -200.0H767.0V-172.0ZM487.0 -356.0 474.0 -385.0H784.0V-356.0ZM254.0 -0.0V-546.0C254.0 -558.0 250.0 -563.0 237.0 -563.0C220.0 -563.0 154.0 -559.0 154.0 -559.0V-574.0C189.0 -581.0 206.0 -592.0 218.0 -609.0C228.0 -625.0 232.0 -655.0 233.0 -690.0C350.0 -680.0 365.0 -637.0 365.0 -559.0V-41.0C380.0 -39.0 391.0 -30.0 396.0 -23.0L295.0 55.0L245.0 -0.0ZM136.0 -0.0V-349.0H224.0V-0.0ZM102.0 143.0 89.0 114.0H247.0V143.0ZM199.0 142.0C191.0 105.0 170.0 29.0 149.0 -10.0H163.0C213.0 14.0 269.0 64.0 307.0 99.0C327.0 99.0 338.0 101.0 346.0 109.0L244.0 198.0L188.0 142.0ZM58.0 258.0C34.0 122.0 -10.0 -26.0 -57.0 -119.0L-43.0 -128.0C46.0 -54.0 123.0 58.0 176.0 190.0C201.0 189.0 212.0 198.0 218.0 212.0Z"/></g>
<g fill="red" transform="translate(900 400) scale(0.1 -0.1)"><path d="M0.0 0.0V-227.0C0.0 -369.0 -2.0 -520.0 -68.0 -641.0L-52.0 -653.0C42.0 -532.0 45.0 -358.0 45.0 -226.0V0.0H55.0L0.0 28.0V10.0ZM384.0 59.0V30.0H532.0V59.0ZM403.0 -191.0V-220.0H768.0V-191.0ZM403.0 -322.0V-351.0H768.0V-322.0ZM254.0 0.0V-571.0C254.0 -587.0 249.0 -592.0 231.0 -592.0C211.0 -592.0 119.0 -585.0 119.0 -585.0V-601.0C158.0 -606.0 183.0 -612.0 196.0 -619.0C208.0 -627.0 213.0 -640.0 216.0 -653.0C290.0 -645.0 298.0 -617.0 298.0 -577.0V-39.0C318.0 -35.0 334.0 -27.0 341.0 -20.0L269.0 34.0L244.0 0.0ZM126.0 0.0V-361.0H171.0V0.0ZM63.0 152.0 50.0 122.0H222.0V152.0ZM208.0 152.0C192.0 111.0 155.0 30.0 123.0 -14.0H142.0C181.0 20.0 224.0 82.0 250.0 118.0C268.0 119.0 281.0 120.0 288.0 127.0L229.0 184.0L197.0 152.0ZM72.0 249.0C40.0 118.0 -16.0 -10.0 -74.0 -91.0L-59.0 -102.0C10.0 -28.0 71.0 88.0 112.0 207.0C132.0 206.0 143.0 216.0 147.0 227.0Z"/></g>
<g fill="black" opacity=".8" transform="translate(900 400) scale(0.1 -0.1)"><path d="M0.0 0.0V-228.0C0.0 -371.0 -2.0 -519.0 -68.0 -640.0L-51.0 -651.0C42.0 -532.0 45.0 -358.0 45.0 -227.0V0.0H53.0L0.0 27.0V8.0ZM364.0 65.0 363.0 36.0H550.0V65.0ZM410.0 -182.0 411.0 -209.0H757.0V-182.0ZM406.0 -319.0 400.0 -347.0H771.0V-319.0ZM255.0 0.0V-570.0C255.0 -587.0 247.0 -592.0 232.0 -592.0C212.0 -592.0 119.0 -585.0 119.0 -585.0V-602.0C158.0 -607.0 183.0 -612.0 197.0 -619.0C207.0 -627.0 213.0 -640.0 215.0 -651.0C290.0 -643.0 297.0 -617.0 297.0 -576.0V-40.0C318.0 -35.0 333.0 -28.0 343.0 -21.0L269.0 35.0L245.0 0.0ZM125.0 0.0V-354.0H171.0V0.0ZM58.0 151.0 46.0 122.0H218.0V151.0ZM207.0 150.0C191.0 110.0 155.0 30.0 123.0 -14.0H141.0C182.0 19.0 223.0 81.0 250.0 115.0C268.0 117.0 281.0 118.0 287.0 125.0L228.0 183.0L195.0 150.0ZM69.0 248.0C38.0 114.0 -18.0 -15.0 -76.0 -97.0L-63.0 -107.0C8.0 -32.0 70.0 84.0 112.0 205.0C132.0 205.0 142.0 215.0 146.0 227.0Z"/></g>
<g fill="red" transform="translate(1000 400) scale(0.1 -0.1)"><path d="M0.0 0.0V-217.0C0.0 -367.0 1.0 -542.0 -55.0 -681.0L-44.0 -689.0C100.0 -557.0 108.0 -359.0 108.0 -216.0V0.0H125.0L13.0 41.0L0.0 10.0ZM429.0 51.0V23.0H580.0V51.0ZM453.0 -208.0V-236.0H780.0V-208.0ZM453.0 -348.0V-376.0H780.0V-348.0ZM255.0 0.0V-548.0C255.0 -560.0 251.0 -566.0 238.0 -566.0C221.0 -566.0 152.0 -561.0 152.0 -561.0V-575.0C189.0 -583.0 205.0 -594.0 217.0 -611.0C228.0 -627.0 232.0 -656.0 233.0 -691.0C350.0 -680.0 365.0 -638.0 365.0 -560.0V-41.0C381.0 -38.0 392.0 -31.0 397.0 -24.0L294.0 54.0L246.0 0.0ZM137.0 0.0V-349.0H224.0V0.0ZM96.0 141.0 83.0 113.0H243.0V141.0ZM198.0 140.0C190.0 103.0 168.0 32.0 149.0 -7.0H162.0C212.0 18.0 268.0 64.0 306.0 97.0C326.0 98.0 337.0 101.0 345.0 109.0L243.0 198.0L187.0 140.0ZM59.0 259.0C36.0 122.0 -10.0 -25.0 -57.0 -119.0L-44.0 -127.0C47.0 -53.0 124.0 57.0 179.0 191.0C202.0 191.0 214.0 200.0 219.0 212.0Z"/></g>
<g fill="black" opacity=".8" transform="translate(1000 400) scale(0.1 -0.1)"><path d="M0.0 0.0V-221.0C0.0 -370.0 -0.0 -545.0 -54.0 -683.0L-43.0 -690.0C101.0 -560.0 109.0 -362.0 109.0 -219.0V0.0H125.0L15.0 42.0L0.0 9.0ZM406.0 50.0 405.0 21.0H595.0V50.0ZM465.0 -203.0 467.0 -232.0H781.0V-203.0ZM454.0 -346.0 448.0 -374.0H784.0V-346.0ZM254.0 -1.0V-550.0C254.0 -562.0 250.0 -568.0 237.0 -568.0C219.0 -568.0 149.0 -563.0 149.0 -563.0V-578.0C186.0 -585.0 203.0 -596.0 216.0 -613.0C226.0 -628.0 231.0 -657.0 232.0 -691.0C350.0 -681.0 365.0 -640.0 365.0 -562.0V-42.0C381.0 -40.0 392.0 -31.0 398.0 -24.0L295.0 55.0L244.0 -1.0ZM136.0 -1.0V-352.0H224.0V-1.0ZM91.0 140.0 79.0 113.0H239.0V140.0ZM195.0 139.0C187.0 101.0 167.0 29.0 147.0 -10.0H161.0C211.0 14.0 268.0 61.0 306.0 95.0C326.0 95.0 337.0 97.0 345.0 105.0L241.0 196.0L184.0 139.0ZM58.0 259.0C34.0 121.0 -11.0 -28.0 -57.0 -121.0L-44.0 -130.0C46.0 -55.0 123.0 55.0 177.0 188.0C202.0 187.0 213.0 197.0 218.0 211.0Z"/></g>
<g fill="red" transform="translate(1100 400) scale(0.1 -0.1)"><path d="M0.0 0.0V-228.0C0.0 -371.0 -2.0 -523.0 -68.0 -646.0L-52.0 -657.0C42.0 -535.0 45.0 -360.0 45.0 -228.0V0.0H55.0L0.0 28.0V10.0ZM378.0 38.0V8.0H766.0V38.0ZM429.0 -84.0 411.0 -114.0H792.0V-84.0ZM393.0 -360.0V-390.0H659.0V-360.0ZM251.0 0.0V-575.0C251.0 -591.0 246.0 -597.0 228.0 -597.0C208.0 -597.0 116.0 -589.0 116.0 -589.0V-606.0C155.0 -609.0 180.0 -615.0 193.0 -623.0C205.0 -631.0 210.0 -643.0 213.0 -656.0C287.0 -648.0 295.0 -621.0 295.0 -581.0V-39.0C315.0 -35.0 331.0 -27.0 338.0 -19.0L266.0 34.0L241.0 0.0ZM124.0 0.0V-348.0H168.0V0.0ZM482.0 202.0V25.0H526.0V202.0ZM203.0 157.0C189.0 112.0 153.0 22.0 122.0 -25.0H140.0C179.0 13.0 220.0 83.0 245.0 123.0C263.0 124.0 276.0 125.0 283.0 132.0L224.0 189.0L192.0 157.0ZM72.0 254.0C40.0 126.0 -16.0 2.0 -74.0 -78.0L-59.0 -87.0C9.0 -16.0 71.0 95.0 112.0 212.0C132.0 211.0 143.0 220.0 147.0 231.0Z"/></g>
<g fill="black" opacity=".8" transform="translate(1100 400) scale(0.1 -0.1)"><path d="M0.0 0.0V-227.0C0.0 -372.0 -2.0 -523.0 -68.0 -646.0L-52.0 -656.0C42.0 -536.0 45.0 -360.0 45.0 -228.0V0.0H53.0L-1.0 27.0L0.0 9.0ZM378.0 38.0 377.0 8.0H767.0V38.0ZM430.0 -84.0 412.0 -112.0H793.0V-84.0ZM393.0 -360.0V-390.0H659.0V-360.0ZM252.0 0.0V-575.0C252.0 -591.0 245.0 -597.0 228.0 -597.0C208.0 -597.0 116.0 -589.0 116.0 -589.0V-606.0C155.0 -609.0 180.0 -614.0 193.0 -623.0C204.0 -631.0 210.0 -643.0 213.0 -656.0C287.0 -647.0 295.0 -621.0 295.0 -581.0V-40.0C314.0 -35.0 330.0 -27.0 338.0 -19.0L266.0 34.0L242.0 0.0ZM124.0 0.0V-348.0H168.0V0.0ZM482.0 201.0 481.0 24.0H526.0V201.0ZM204.0 156.0C189.0 112.0 154.0 22.0 121.0 -25.0H139.0C180.0 13.0 220.0 83.0 245.0 122.0C264.0 124.0 276.0 125.0 283.0 132.0L224.0 189.0L193.0 156.0ZM71.0 254.0C40.0 125.0 -16.0 2.0 -74.0 -79.0L-60.0 -87.0C9.0 -16.0 72.0 95.0 112.0 211.0C132.0 211.0 143.0 220.0 147.0 231.0Z"/></g>
<g fill="red" transform="translate(1200 400) scale(0.1 -0.1)"><path d="M0.0 0.0V-217.0C0.0 -367.0 1.0 -542.0 -53.0 -681.0L-42.0 -690.0C96.0 -557.0 103.0 -359.0 103.0 -216.0V0.0H120.0L13.0 39.0L0.0 10.0ZM433.0 16.0V-12.0H813.0V16.0ZM482.0 -100.0 465.0 -128.0H804.0V-100.0ZM444.0 -369.0V-397.0H661.0V-369.0ZM245.0 0.0V-557.0C245.0 -569.0 242.0 -575.0 228.0 -575.0C211.0 -575.0 143.0 -570.0 143.0 -570.0V-584.0C180.0 -591.0 196.0 -602.0 207.0 -618.0C218.0 -633.0 222.0 -659.0 223.0 -691.0C337.0 -681.0 351.0 -641.0 351.0 -567.0V-40.0C367.0 -37.0 378.0 -30.0 383.0 -24.0L282.0 53.0L236.0 0.0ZM131.0 0.0V-349.0H216.0V0.0ZM527.0 177.0V1.0H600.0V177.0ZM193.0 140.0C185.0 103.0 166.0 32.0 148.0 -7.0H161.0C209.0 18.0 262.0 65.0 298.0 97.0C318.0 99.0 329.0 101.0 337.0 109.0L237.0 197.0L182.0 140.0ZM61.0 258.0C38.0 127.0 -9.0 -11.0 -56.0 -100.0L-43.0 -108.0C45.0 -39.0 120.0 64.0 175.0 191.0C197.0 190.0 210.0 199.0 214.0 211.0Z"/></g>
<g fill="black" opacity=".8" transform="translate(1200 400) scale(0.1 -0.1)"><path d="M0.0 0.0V-218.0C0.0 -367.0 -0.0 -543.0 -53.0 -681.0L-41.0 -689.0C96.0 -557.0 103.0 -359.0 103.0 -217.0V0.0H119.0L13.0 39.0L0.0 9.0ZM433.0 17.0 432.0 -12.0H814.0V17.0ZM482.0 -99.0 466.0 -128.0H804.0V-99.0ZM444.0 -369.0V-397.0H661.0V-369.0ZM245.0 -0.0V-557.0C245.0 -569.0 241.0 -575.0 227.0 -575.0C211.0 -575.0 144.0 -570.0 144.0 -570.0V-585.0C180.0 -591.0 196.0 -602.0 208.0 -618.0C218.0 -633.0 223.0 -659.0 223.0 -691.0C337.0 -681.0 351.0 -641.0 351.0 -567.0V-40.0C367.0 -38.0 377.0 -29.0 383.0 -24.0L283.0 53.0L235.0 -0.0ZM130.0 -0.0V-349.0H216.0V-0.0ZM527.0 177.0V1.0H601.0V177.0ZM193.0 140.0C185.0 103.0 167.0 32.0 147.0 -6.0H161.0C209.0 18.0 263.0 65.0 298.0 97.0C318.0 99.0 330.0 100.0 338.0 108.0L237.0 196.0L182.0 140.0ZM60.0 258.0C36.0 127.0 -9.0 -12.0 -56.0 -100.0L-43.0 -109.0C45.0 -39.0 120.0 65.0 174.0 191.0C197.0 190.0 210.0 198.0 214.0 212.0Z"/></g>
</svg>
