<?xml version="1.0" encoding="UTF-8"?>
<svg width="1700" height="300" xmlns="http://www.w3.org/2000/svg">
<rect width="100%" height="100%" fill="white"/>
<g fill="green" transform="translate(100 100) scale(0.1 -0.1)"><path d="M0.0 0.0V-252.0H7.0C24.0 -252.0 43.0 -241.0 43.0 -237.0V-29.0H546.0V0.0H49.0L0.0 25.0ZM508.0 0.0V-249.0H514.0C529.0 -249.0 551.0 -237.0 552.0 -231.0V-39.0C571.0 -35.0 589.0 -28.0 596.0 -20.0L528.0 33.0L498.0 0.0ZM16.0 -173.0V-203.0H541.0V-173.0ZM251.0 -306.0V-537.0H295.0V-306.0ZM577.0 -306.0V-597.0H583.0C598.0 -597.0 620.0 -584.0 621.0 -578.0V-346.0C641.0 -342.0 658.0 -334.0 665.0 -326.0L597.0 -274.0L567.0 -306.0ZM-72.0 -686.0V-734.0C-72.0 -807.0 -15.0 -826.0 88.0 -826.0H532.0C698.0 -826.0 738.0 -809.0 738.0 -785.0C738.0 -774.0 729.0 -771.0 700.0 -765.0L699.0 -616.0L685.0 -617.0C677.0 -663.0 659.0 -733.0 647.0 -754.0C632.0 -781.0 603.0 -785.0 529.0 -785.0H83.0C16.0 -785.0 -28.0 -778.0 -28.0 -735.0V-686.0ZM-72.0 -306.0V-712.0H-28.0V-306.0H-16.0L-72.0 -280.0ZM-53.0 -306.0V-336.0H612.0V-306.0ZM-53.0 -516.0V-546.0H612.0V-516.0Z"/></g>
<g fill="green" transform="translate(200 100) scale(0.1 -0.1)"><path d="M0.0 0.0V-248.0H20.0C79.0 -248.0 145.0 -217.0 145.0 -205.0V-28.0H540.0V0.0H153.0L0.0 57.0ZM496.0 0.0V-232.0H522.0C570.0 -232.0 642.0 -205.0 643.0 -197.0V-51.0C664.0 -47.0 676.0 -38.0 682.0 -30.0L550.0 69.0L486.0 0.0ZM92.0 -162.0V-190.0H558.0V-162.0ZM255.0 -281.0V-506.0H394.0V-281.0ZM560.0 -281.0V-567.0H585.0C633.0 -567.0 704.0 -540.0 705.0 -532.0V-332.0C726.0 -328.0 738.0 -318.0 744.0 -310.0L613.0 -212.0L550.0 -281.0ZM-49.0 -618.0V-666.0C-49.0 -810.0 26.0 -853.0 196.0 -853.0H541.0C761.0 -853.0 808.0 -813.0 808.0 -748.0C808.0 -720.0 787.0 -711.0 727.0 -692.0L725.0 -563.0H716.0C691.0 -617.0 662.0 -672.0 640.0 -694.0C617.0 -714.0 586.0 -718.0 528.0 -718.0H191.0C118.0 -718.0 93.0 -706.0 93.0 -670.0V-618.0ZM-49.0 -281.0V-635.0H93.0V-281.0H107.0L-49.0 -224.0ZM19.0 -281.0V-309.0H618.0V-281.0ZM19.0 -494.0V-522.0H618.0V-494.0Z"/></g>
<g fill="green" transform="translate(300 100) scale(0.1 -0.1)"><path d="M0.0 0.0V-252.0H7.0C24.0 -252.0 43.0 -241.0 43.0 -237.0V-29.0H546.0V0.0H49.0L0.0 25.0ZM508.0 0.0V-249.0H514.0C529.0 -249.0 551.0 -237.0 552.0 -231.0V-39.0C571.0 -35.0 589.0 -28.0 596.0 -20.0L528.0 33.0L498.0 0.0ZM16.0 -173.0V-203.0H541.0V-173.0ZM251.0 -306.0V-537.0H295.0V-306.0ZM577.0 -306.0V-597.0H583.0C598.0 -597.0 620.0 -584.0 621.0 -578.0V-346.0C641.0 -342.0 658.0 -334.0 665.0 -326.0L597.0 -274.0L567.0 -306.0ZM-72.0 -686.0V-734.0C-72.0 -807.0 -15.0 -826.0 88.0 -826.0H532.0C698.0 -826.0 738.0 -809.0 738.0 -785.0C738.0 -774.0 729.0 -771.0 700.0 -765.0L699.0 -616.0L685.0 -617.0C677.0 -663.0 659.0 -733.0 647.0 -754.0C632.0 -781.0 603.0 -785.0 529.0 -785.0H83.0C16.0 -785.0 -28.0 -778.0 -28.0 -735.0V-686.0ZM-72.0 -306.0V-712.0H-28.0V-306.0H-16.0L-72.0 -280.0ZM-53.0 -306.0V-336.0H612.0V-306.0ZM-53.0 -516.0V-546.0H612.0V-516.0Z"/></g>
<g fill="green" transform="translate(400 100) scale(0.1 -0.1)"><path d="M0.0 0.0V-248.0H20.0C79.0 -248.0 145.0 -217.0 145.0 -205.0V-28.0H540.0V0.0H153.0L0.0 57.0ZM496.0 0.0V-232.0H522.0C570.0 -232.0 642.0 -205.0 643.0 -197.0V-51.0C664.0 -47.0 676.0 -38.0 682.0 -30.0L550.0 69.0L486.0 0.0ZM92.0 -162.0V-190.0H558.0V-162.0ZM255.0 -281.0V-506.0H394.0V-281.0ZM560.0 -281.0V-567.0H585.0C633.0 -567.0 704.0 -540.0 705.0 -532.0V-332.0C726.0 -328.0 738.0 -318.0 744.0 -310.0L613.0 -212.0L550.0 -281.0ZM-49.0 -618.0V-666.0C-49.0 -810.0 26.0 -853.0 196.0 -853.0H541.0C761.0 -853.0 808.0 -813.0 808.0 -748.0C808.0 -720.0 787.0 -711.0 727.0 -692.0L725.0 -563.0H716.0C691.0 -617.0 662.0 -672.0 640.0 -694.0C617.0 -714.0 586.0 -718.0 528.0 -718.0H191.0C118.0 -718.0 93.0 -706.0 93.0 -670.0V-618.0ZM-49.0 -281.0V-635.0H93.0V-281.0H107.0L-49.0 -224.0ZM19.0 -281.0V-309.0H618.0V-281.0ZM19.0 -494.0V-522.0H618.0V-494.0Z"/></g>
<g fill="red" transform="translate(100 200) scale(0.1 -0.1)"><path d="M0.0 0.0V-252.0H7.0C24.0 -252.0 43.0 -241.0 43.0 -237.0V-29.0H546.0V0.0H49.0L0.0 25.0ZM508.0 0.0V-249.0H514.0C529.0 -249.0 551.0 -237.0 552.0 -231.0V-39.0C571.0 -35.0 589.0 -28.0 596.0 -20.0L528.0 33.0L498.0 0.0ZM16.0 -173.0V-203.0H541.0V-173.0ZM251.0 -306.0V-537.0H295.0V-306.0ZM577.0 -306.0V-597.0H583.0C598.0 -597.0 620.0 -584.0 621.0 -578.0V-346.0C641.0 -342.0 658.0 -334.0 665.0 -326.0L597.0 -274.0L567.0 -306.0ZM-72.0 -686.0V-734.0C-72.0 -807.0 -15.0 -826.0 88.0 -826.0H532.0C698.0 -826.0 738.0 -809.0 738.0 -785.0C738.0 -774.0 729.0 -771.0 700.0 -765.0L699.0 -616.0L685.0 -617.0C677.0 -663.0 659.0 -733.0 647.0 -754.0C632.0 -781.0 603.0 -785.0 529.0 -785.0H83.0C16.0 -785.0 -28.0 -778.0 -28.0 -735.0V-686.0ZM-72.0 -306.0V-712.0H-28.0V-306.0H-16.0L-72.0 -280.0ZM-53.0 -306.0V-336.0H612.0V-306.0ZM-53.0 -516.0V-546.0H612.0V-516.0Z"/></g>
<g fill="black" opacity=".8" transform="translate(100 200) scale(0.1 -0.1)"><path d="M0.0 0.0V-252.0H7.0C24.0 -252.0 43.0 -241.0 43.0 -237.0V-29.0H546.0V0.0H49.0L0.0 25.0ZM508.0 0.0V-249.0H514.0C529.0 -249.0 551.0 -237.0 552.0 -231.0V-39.0C571.0 -35.0 589.0 -28.0 596.0 -20.0L528.0 33.0L498.0 0.0ZM16.0 -173.0V-203.0H541.0V-173.0ZM251.0 -306.0V-537.0H295.0V-306.0ZM577.0 -306.0V-597.0H583.0C598.0 -597.0 620.0 -584.0 621.0 -578.0V-346.0C641.0 -342.0 658.0 -334.0 665.0 -326.0L597.0 -274.0L567.0 -306.0ZM-72.0 -686.0V-734.0C-72.0 -807.0 -15.0 -826.0 88.0 -826.0H532.0C698.0 -826.0 738.0 -809.0 738.0 -785.0C738.0 -774.0 729.0 -771.0 700.0 -765.0L699.0 -616.0L685.0 -617.0C677.0 -663.0 659.0 -733.0 647.0 -754.0C632.0 -781.0 603.0 -785.0 529.0 -785.0H83.0C16.0 -785.0 -28.0 -778.0 -28.0 -735.0V-686.0ZM-72.0 -306.0V-712.0H-28.0V-306.0H-16.0L-72.0 -280.0ZM-53.0 -306.0V-336.0H612.0V-306.0ZM-53.0 -516.0V-546.0H612.0V-516.0Z"/></g>
<g fill="red" transform="translate(200 200) scale(0.1 -0.1)"><path d="M0.0 0.0V-248.0H20.0C79.0 -248.0 145.0 -217.0 145.0 -205.0V-28.0H540.0V0.0H153.0L0.0 57.0ZM496.0 0.0V-232.0H522.0C570.0 -232.0 642.0 -205.0 643.0 -197.0V-51.0C664.0 -47.0 676.0 -38.0 682.0 -30.0L550.0 69.0L486.0 0.0ZM92.0 -162.0V-190.0H558.0V-162.0ZM255.0 -281.0V-506.0H394.0V-281.0ZM560.0 -281.0V-567.0H585.0C633.0 -567.0 704.0 -540.0 705.0 -532.0V-332.0C726.0 -328.0 738.0 -318.0 744.0 -310.0L613.0 -212.0L550.0 -281.0ZM-49.0 -618.0V-666.0C-49.0 -810.0 26.0 -853.0 196.0 -853.0H541.0C761.0 -853.0 808.0 -813.0 808.0 -748.0C808.0 -720.0 787.0 -711.0 727.0 -692.0L725.0 -563.0H716.0C691.0 -617.0 662.0 -672.0 640.0 -694.0C617.0 -714.0 586.0 -718.0 528.0 -718.0H191.0C118.0 -718.0 93.0 -706.0 93.0 -670.0V-618.0ZM-49.0 -281.0V-635.0H93.0V-281.0H107.0L-49.0 -224.0ZM19.0 -281.0V-309.0H618.0V-281.0ZM19.0 -494.0V-522.0H618.0V-494.0Z"/></g>
<g fill="black" opacity=".8" transform="translate(200 200) scale(0.1 -0.1)"><path d="M0.0 0.0V-248.0H20.0C79.0 -248.0 145.0 -217.0 145.0 -205.0V-28.0H540.0V0.0H153.0L0.0 57.0ZM496.0 0.0V-232.0H522.0C570.0 -232.0 642.0 -205.0 643.0 -197.0V-51.0C664.0 -47.0 676.0 -38.0 682.0 -30.0L550.0 69.0L486.0 0.0ZM92.0 -162.0V-190.0H558.0V-162.0ZM255.0 -281.0V-506.0H394.0V-281.0ZM560.0 -281.0V-567.0H585.0C633.0 -567.0 704.0 -540.0 705.0 -532.0V-332.0C726.0 -328.0 738.0 -318.0 744.0 -310.0L613.0 -212.0L550.0 -281.0ZM-49.0 -618.0V-666.0C-49.0 -810.0 26.0 -853.0 196.0 -853.0H541.0C761.0 -853.0 808.0 -813.0 808.0 -748.0C808.0 -720.0 787.0 -711.0 727.0 -692.0L725.0 -563.0H716.0C691.0 -617.0 662.0 -672.0 640.0 -694.0C617.0 -714.0 586.0 -718.0 528.0 -718.0H191.0C118.0 -718.0 93.0 -706.0 93.0 -670.0V-618.0ZM-49.0 -281.0V-635.0H93.0V-281.0H107.0L-49.0 -224.0ZM19.0 -281.0V-309.0H618.0V-281.0ZM19.0 -494.0V-522.0H618.0V-494.0Z"/></g>
</svg>
