<?xml version="1.0" encoding="UTF-8"?>
<svg width="1700" height="300" xmlns="http://www.w3.org/2000/svg">
<rect width="100%" height="100%" fill="white"/>
<g fill="green" transform="translate(100 100) scale(0.1 -0.1)"><path d="M0.0 0.0 9.0 -31.0H713.0C728.0 -31.0 737.0 -26.0 740.0 -14.0C707.0 15.0 654.0 56.0 654.0 56.0L610.0 0.0ZM79.0 204.0 88.0 171.0H667.0C681.0 171.0 691.0 177.0 694.0 189.0C662.0 219.0 613.0 258.0 613.0 258.0L569.0 204.0ZM572.0 1067.0V622.0H579.0C596.0 622.0 619.0 638.0 618.0 647.0V1025.0C640.0 1029.0 658.0 1038.0 666.0 1047.0L594.0 1102.0L561.0 1067.0ZM131.0 1067.0V612.0H139.0C158.0 612.0 177.0 623.0 177.0 628.0V1036.0H609.0V1067.0H182.0L131.0 1094.0ZM-88.0 889.0V857.0H312.0V889.0ZM-93.0 486.0V454.0H328.0V486.0ZM349.0 520.0V-18.0H396.0V520.0Z"/></g>
<g fill="green" transform="translate(200 100) scale(0.1 -0.1)"><path d="M0.0 0.0 9.0 -30.0H734.0C749.0 -30.0 761.0 -24.0 763.0 -13.0C720.0 29.0 645.0 89.0 645.0 89.0L580.0 0.0ZM73.0 209.0 82.0 179.0H674.0C688.0 179.0 700.0 185.0 703.0 196.0C658.0 241.0 579.0 308.0 579.0 308.0L509.0 209.0ZM508.0 1102.0V655.0H531.0C575.0 655.0 646.0 675.0 647.0 681.0V1049.0C669.0 1053.0 683.0 1064.0 690.0 1072.0L559.0 1171.0L497.0 1102.0ZM116.0 1102.0V621.0H136.0C194.0 621.0 251.0 652.0 251.0 665.0V1072.0H581.0V1102.0H259.0L116.0 1158.0ZM-85.0 921.0V892.0H306.0V921.0ZM-112.0 500.0V470.0H324.0V500.0ZM310.0 554.0V-18.0H446.0V554.0Z"/></g>
<g fill="green" transform="translate(300 100) scale(0.1 -0.1)"><path d="M0.0 0.0 6.0 -22.0H479.0C490.0 -22.0 496.0 -18.0 498.0 -10.0C474.0 11.0 437.0 40.0 437.0 40.0L406.0 0.0ZM56.0 145.0 63.0 122.0H450.0C459.0 122.0 466.0 126.0 469.0 135.0C446.0 156.0 411.0 184.0 411.0 184.0L380.0 145.0ZM379.0 829.0V514.0H384.0C397.0 514.0 413.0 526.0 411.0 533.0V800.0C427.0 802.0 440.0 809.0 445.0 815.0L395.0 854.0L371.0 829.0ZM95.0 829.0V507.0H101.0C114.0 507.0 127.0 514.0 127.0 517.0V807.0H407.0V829.0H130.0L95.0 848.0ZM-115.0 705.0V682.0H129.0V705.0ZM-120.0 368.0V345.0H144.0V368.0ZM235.0 292.0V-14.0H268.0V292.0Z"/></g>
<g fill="green" transform="translate(400 100) scale(0.1 -0.1)"><path d="M0.0 0.0 6.0 -21.0H495.0C505.0 -21.0 513.0 -17.0 515.0 -9.0C487.0 19.0 438.0 59.0 438.0 59.0L395.0 0.0ZM51.0 148.0 58.0 127.0H450.0C460.0 127.0 468.0 132.0 470.0 139.0C440.0 171.0 385.0 219.0 385.0 219.0L336.0 148.0ZM334.0 858.0V543.0H350.0C379.0 543.0 428.0 555.0 429.0 558.0V821.0C444.0 823.0 454.0 832.0 459.0 837.0L369.0 905.0L326.0 858.0ZM87.0 858.0V517.0H100.0C140.0 517.0 178.0 538.0 178.0 547.0V837.0H393.0V858.0H184.0L87.0 896.0ZM-123.0 730.0V710.0H132.0V730.0ZM-149.0 377.0V356.0H148.0V377.0ZM209.0 321.0V-14.0H301.0V321.0Z"/></g>
<g fill="green" transform="translate(500 100) scale(0.1 -0.1)"><path d="M0.0 0.0 8.0 -23.0H958.0C971.0 -23.0 978.0 -20.0 980.0 -11.0C952.0 12.0 912.0 43.0 912.0 43.0L877.0 0.0ZM82.0 63.0 90.0 38.0H876.0C886.0 38.0 893.0 43.0 896.0 51.0C872.0 73.0 837.0 100.0 837.0 100.0L805.0 63.0ZM746.0 677.0V487.0H752.0C764.0 487.0 782.0 497.0 781.0 503.0V646.0C797.0 649.0 811.0 656.0 817.0 662.0L762.0 703.0L739.0 677.0ZM187.0 677.0V491.0H193.0C207.0 491.0 222.0 499.0 222.0 503.0V654.0H794.0V677.0H226.0L187.0 698.0ZM276.0 617.0V593.0H877.0V617.0ZM268.0 237.0V213.0H890.0V237.0ZM471.0 236.0V-14.0H506.0V236.0Z"/></g>
<g fill="green" transform="translate(600 100) scale(0.1 -0.1)"><path d="M0.0 0.0 7.0 -23.0H1020.0C1032.0 -23.0 1042.0 -18.0 1044.0 -10.0C998.0 29.0 917.0 86.0 917.0 86.0L848.0 0.0ZM88.0 66.0 95.0 44.0H915.0C926.0 44.0 935.0 48.0 938.0 56.0C892.0 95.0 814.0 151.0 814.0 151.0L746.0 66.0ZM717.0 697.0V520.0H739.0C779.0 520.0 845.0 536.0 846.0 541.0V653.0C863.0 656.0 873.0 665.0 878.0 671.0L762.0 757.0L709.0 697.0ZM186.0 697.0V489.0H205.0C258.0 489.0 317.0 516.0 317.0 528.0V674.0H781.0V697.0H327.0L186.0 748.0ZM343.0 624.0V603.0H869.0V624.0ZM308.0 230.0V208.0H892.0V230.0ZM448.0 241.0V-8.0H578.0V241.0Z"/></g>
<g fill="green" transform="translate(700 100) scale(0.1 -0.1)"><path d="M0.0 0.0 10.0 -36.0H763.0C780.0 -36.0 791.0 -30.0 794.0 -16.0C758.0 18.0 698.0 64.0 698.0 64.0L647.0 0.0ZM93.0 294.0 103.0 256.0H716.0C734.0 256.0 746.0 263.0 749.0 277.0C710.0 313.0 649.0 360.0 649.0 360.0L596.0 294.0ZM658.0 1019.0V401.0H666.0C685.0 401.0 712.0 418.0 712.0 426.0V970.0C737.0 975.0 757.0 985.0 766.0 996.0L682.0 1059.0L646.0 1019.0ZM107.0 1019.0V383.0H117.0C140.0 383.0 162.0 396.0 162.0 403.0V983.0H687.0V1019.0H167.0L107.0 1051.0ZM-302.0 760.0V724.0H178.0V760.0ZM-302.0 565.0V528.0H182.0V565.0ZM377.0 981.0V-18.0H431.0V981.0Z"/></g>
<g fill="green" transform="translate(800 100) scale(0.1 -0.1)"><path d="M0.0 0.0 10.0 -35.0H770.0C788.0 -35.0 802.0 -28.0 804.0 -15.0C750.0 36.0 657.0 110.0 657.0 110.0L574.0 0.0ZM85.0 294.0 96.0 259.0H720.0C737.0 259.0 751.0 266.0 754.0 279.0C699.0 331.0 606.0 405.0 606.0 405.0L525.0 294.0ZM578.0 1039.0V396.0H603.0C655.0 396.0 731.0 425.0 732.0 433.0V979.0C758.0 983.0 775.0 995.0 783.0 1004.0L636.0 1118.0L565.0 1039.0ZM85.0 1039.0V352.0H108.0C173.0 352.0 235.0 388.0 235.0 403.0V1005.0H627.0V1039.0H244.0L85.0 1103.0ZM-312.0 778.0V744.0H158.0V778.0ZM-308.0 566.0V532.0H156.0V566.0ZM326.0 995.0V-25.0H485.0V995.0Z"/></g>
<g fill="green" transform="translate(900 100) scale(0.1 -0.1)"><path d="M0.0 0.0 9.0 -31.0H642.0C657.0 -31.0 666.0 -26.0 669.0 -15.0C636.0 15.0 583.0 56.0 583.0 56.0L539.0 0.0ZM74.0 263.0 82.0 230.0H597.0C612.0 230.0 621.0 236.0 625.0 248.0C591.0 279.0 540.0 320.0 540.0 320.0L495.0 263.0ZM537.0 1115.0V543.0H545.0C562.0 543.0 586.0 559.0 584.0 569.0V1073.0C607.0 1077.0 624.0 1086.0 632.0 1095.0L560.0 1152.0L526.0 1115.0ZM95.0 1115.0V531.0H105.0C124.0 531.0 142.0 542.0 142.0 548.0V1084.0H566.0V1115.0H147.0L95.0 1143.0ZM118.0 875.0V843.0H563.0V875.0ZM121.0 536.0V505.0H572.0V536.0ZM312.0 713.0V-20.0H360.0V713.0Z"/></g>
<g fill="green" transform="translate(1000 100) scale(0.1 -0.1)"><path d="M0.0 0.0 9.0 -30.0H647.0C662.0 -30.0 674.0 -24.0 677.0 -13.0C633.0 31.0 556.0 95.0 556.0 95.0L490.0 0.0ZM59.0 276.0 68.0 246.0H608.0C622.0 246.0 634.0 252.0 637.0 263.0C592.0 310.0 512.0 379.0 512.0 379.0L441.0 276.0ZM459.0 1152.0V579.0H484.0C533.0 579.0 608.0 605.0 609.0 612.0V1099.0C630.0 1103.0 644.0 1113.0 650.0 1121.0L515.0 1224.0L448.0 1152.0ZM59.0 1152.0V551.0H81.0C144.0 551.0 203.0 585.0 203.0 600.0V1121.0H526.0V1152.0H211.0L59.0 1212.0ZM125.0 914.0V885.0H519.0V914.0ZM115.0 567.0V537.0H528.0V567.0ZM259.0 757.0V-19.0H406.0V757.0Z"/></g>
<g fill="green" transform="translate(1100 100) scale(0.1 -0.1)"><path d="M0.0 0.0 10.0 -36.0H715.0C731.0 -36.0 742.0 -30.0 745.0 -15.0C710.0 16.0 652.0 62.0 652.0 62.0L604.0 0.0ZM71.0 192.0 82.0 155.0H679.0C695.0 155.0 705.0 162.0 710.0 175.0C676.0 207.0 625.0 247.0 625.0 247.0L579.0 192.0ZM557.0 1050.0V644.0H565.0C584.0 644.0 610.0 660.0 611.0 669.0V1002.0C635.0 1006.0 656.0 1016.0 665.0 1026.0L582.0 1090.0L545.0 1050.0ZM135.0 1050.0V633.0H143.0C165.0 633.0 188.0 646.0 188.0 651.0V1014.0H595.0V1050.0H193.0L135.0 1081.0ZM-74.0 888.0V851.0H293.0V888.0ZM-79.0 470.0V433.0H306.0V470.0ZM343.0 611.0V-12.0H397.0V611.0Z"/></g>
<g fill="green" transform="translate(1200 100) scale(0.1 -0.1)"><path d="M0.0 0.0 10.0 -34.0H727.0C744.0 -34.0 757.0 -28.0 760.0 -15.0C714.0 32.0 635.0 97.0 635.0 97.0L566.0 0.0ZM67.0 198.0 77.0 164.0H686.0C703.0 164.0 716.0 171.0 719.0 184.0C674.0 230.0 595.0 299.0 595.0 299.0L525.0 198.0ZM488.0 1091.0V677.0H514.0C563.0 677.0 641.0 703.0 643.0 711.0V1031.0C667.0 1036.0 683.0 1048.0 691.0 1057.0L544.0 1167.0L475.0 1091.0ZM121.0 1091.0V655.0H142.0C204.0 655.0 268.0 689.0 268.0 702.0V1057.0H558.0V1091.0H275.0L121.0 1152.0ZM-55.0 933.0V899.0H293.0V933.0ZM-86.0 504.0V470.0H313.0V504.0ZM301.0 652.0V-12.0H447.0V652.0Z"/></g>
<g fill="red" transform="translate(100 200) scale(0.1 -0.1)"><path d="M0.0 0.0 8.0 -29.0H642.0C655.0 -29.0 665.0 -24.0 667.0 -13.0C639.0 14.0 591.0 51.0 591.0 51.0L551.0 0.0ZM66.0 220.0 74.0 190.0H592.0C606.0 190.0 615.0 195.0 618.0 206.0C589.0 234.0 542.0 270.0 542.0 270.0L502.0 220.0ZM533.0 798.0V346.0H539.0C554.0 346.0 577.0 359.0 578.0 365.0V759.0C597.0 763.0 614.0 771.0 621.0 778.0L553.0 831.0L523.0 798.0ZM89.0 798.0V330.0H97.0C116.0 330.0 133.0 342.0 133.0 347.0V769.0H551.0V798.0H138.0L89.0 824.0ZM115.0 601.0V572.0H550.0V601.0ZM122.0 412.0V383.0H547.0V412.0ZM308.0 797.0V-11.0H352.0V797.0Z"/></g>
<g fill="black" opacity=".8" transform="translate(100 200) scale(0.1 -0.1)"><path d="M0.0 0.0 8.0 -30.0H642.0C656.0 -30.0 666.0 -25.0 668.0 -14.0C638.0 14.0 591.0 52.0 591.0 52.0L550.0 0.0ZM65.0 215.0 74.0 184.0H601.0C615.0 184.0 623.0 190.0 628.0 201.0C597.0 229.0 550.0 265.0 550.0 265.0L510.0 215.0ZM537.0 800.0V337.0H545.0C560.0 337.0 583.0 349.0 583.0 356.0V761.0C604.0 764.0 620.0 772.0 627.0 780.0L558.0 835.0L528.0 800.0ZM89.0 800.0V327.0H98.0C117.0 327.0 135.0 337.0 135.0 343.0V770.0H562.0V800.0H139.0L89.0 827.0ZM110.0 605.0V575.0H560.0V605.0ZM114.0 408.0V378.0H559.0V408.0ZM310.0 797.0V-12.0H355.0V797.0Z"/></g>
<g fill="red" transform="translate(200 200) scale(0.1 -0.1)"><path d="M0.0 0.0 8.0 -28.0H651.0C665.0 -28.0 676.0 -23.0 679.0 -12.0C634.0 31.0 557.0 94.0 557.0 94.0L489.0 0.0ZM63.0 228.0 71.0 200.0H618.0C632.0 200.0 643.0 205.0 646.0 216.0C604.0 256.0 531.0 315.0 531.0 315.0L467.0 228.0ZM477.0 824.0V344.0H501.0C551.0 344.0 618.0 376.0 619.0 385.0V773.0C640.0 778.0 653.0 787.0 659.0 795.0L531.0 894.0L467.0 824.0ZM65.0 824.0V329.0H86.0C144.0 329.0 202.0 361.0 202.0 375.0V796.0H514.0V824.0H209.0L65.0 880.0ZM139.0 631.0V603.0H528.0V631.0ZM139.0 437.0V409.0H528.0V437.0ZM269.0 822.0V-8.0H410.0V822.0Z"/></g>
<g fill="black" opacity=".8" transform="translate(200 200) scale(0.1 -0.1)"><path d="M0.0 0.0 8.0 -29.0H646.0C661.0 -29.0 672.0 -23.0 676.0 -12.0C630.0 32.0 552.0 95.0 552.0 95.0L483.0 0.0ZM56.0 224.0 65.0 195.0H617.0C632.0 195.0 643.0 201.0 645.0 212.0C602.0 254.0 528.0 314.0 528.0 314.0L463.0 224.0ZM470.0 825.0V349.0H494.0C542.0 349.0 611.0 379.0 613.0 386.0V774.0C632.0 777.0 646.0 787.0 652.0 794.0L523.0 892.0L459.0 825.0ZM61.0 825.0V330.0H81.0C139.0 330.0 197.0 362.0 197.0 376.0V796.0H511.0V825.0H204.0L61.0 881.0ZM140.0 633.0V605.0H520.0V633.0ZM140.0 436.0V408.0H521.0V436.0ZM262.0 821.0V-12.0H403.0V821.0Z"/></g>
<g fill="red" transform="translate(300 200) scale(0.1 -0.1)"><path d="M0.0 0.0 8.0 -29.0H683.0C697.0 -29.0 707.0 -24.0 709.0 -14.0C680.0 14.0 633.0 50.0 633.0 50.0L592.0 0.0ZM64.0 190.0 72.0 161.0H650.0C664.0 161.0 673.0 166.0 676.0 176.0C646.0 204.0 600.0 240.0 600.0 240.0L560.0 190.0ZM580.0 765.0V297.0H586.0C601.0 297.0 624.0 309.0 625.0 315.0V725.0C645.0 729.0 661.0 737.0 668.0 745.0L600.0 798.0L571.0 765.0ZM111.0 765.0V285.0H119.0C137.0 285.0 155.0 296.0 155.0 302.0V735.0H607.0V765.0H160.0L111.0 790.0ZM127.0 571.0V542.0H605.0V571.0ZM133.0 380.0V351.0H606.0V380.0ZM344.0 765.0V-18.0H388.0V765.0Z"/></g>
<g fill="black" opacity=".8" transform="translate(300 200) scale(0.1 -0.1)"><path d="M0.0 0.0 8.0 -29.0H685.0C698.0 -29.0 707.0 -24.0 709.0 -13.0C680.0 14.0 634.0 50.0 634.0 50.0L595.0 0.0ZM69.0 205.0 77.0 176.0H636.0C650.0 176.0 657.0 181.0 662.0 192.0C632.0 219.0 586.0 254.0 586.0 254.0L547.0 205.0ZM573.0 761.0V312.0H581.0C596.0 312.0 618.0 324.0 617.0 330.0V723.0C637.0 726.0 653.0 734.0 660.0 742.0L593.0 794.0L564.0 761.0ZM97.0 761.0V303.0H106.0C123.0 303.0 141.0 313.0 141.0 318.0V732.0H600.0V761.0H144.0L97.0 787.0ZM122.0 573.0V544.0H608.0V573.0ZM126.0 389.0V360.0H607.0V389.0ZM333.0 771.0V-12.0H376.0V771.0Z"/></g>
<g fill="red" transform="translate(400 200) scale(0.1 -0.1)"><path d="M0.0 0.0 8.0 -28.0H683.0C697.0 -28.0 709.0 -23.0 711.0 -12.0C664.0 32.0 583.0 99.0 583.0 99.0L512.0 0.0ZM56.0 210.0 64.0 182.0H646.0C660.0 182.0 671.0 187.0 674.0 198.0C629.0 241.0 552.0 304.0 552.0 304.0L484.0 210.0ZM507.0 786.0V327.0H530.0C577.0 327.0 645.0 353.0 646.0 361.0V736.0C667.0 740.0 680.0 749.0 686.0 757.0L559.0 854.0L497.0 786.0ZM73.0 786.0V300.0H93.0C151.0 300.0 210.0 331.0 210.0 345.0V758.0H563.0V786.0H217.0L73.0 842.0ZM157.0 597.0V569.0H561.0V597.0ZM163.0 414.0V386.0H562.0V414.0ZM287.0 786.0V-17.0H428.0V786.0Z"/></g>
<g fill="black" opacity=".8" transform="translate(400 200) scale(0.1 -0.1)"><path d="M0.0 0.0 8.0 -28.0H695.0C709.0 -28.0 720.0 -22.0 724.0 -12.0C677.0 32.0 597.0 95.0 597.0 95.0L527.0 0.0ZM61.0 213.0 70.0 186.0H656.0C670.0 186.0 681.0 191.0 683.0 201.0C639.0 243.0 563.0 303.0 563.0 303.0L497.0 213.0ZM511.0 781.0V322.0H534.0C581.0 322.0 649.0 350.0 651.0 357.0V732.0C670.0 736.0 683.0 745.0 688.0 752.0L562.0 848.0L500.0 781.0ZM70.0 781.0V299.0H91.0C148.0 299.0 205.0 330.0 205.0 344.0V754.0H551.0V781.0H213.0L70.0 837.0ZM155.0 595.0V568.0H569.0V595.0ZM156.0 408.0V382.0H569.0V408.0ZM287.0 788.0V-13.0H427.0V788.0Z"/></g>
<g fill="red" transform="translate(500 200) scale(0.1 -0.1)"><path d="M0.0 0.0 8.0 -29.0H578.0C591.0 -29.0 600.0 -24.0 603.0 -13.0C574.0 14.0 527.0 51.0 527.0 51.0L486.0 0.0ZM62.0 225.0 69.0 195.0H538.0C552.0 195.0 561.0 200.0 564.0 211.0C535.0 239.0 490.0 274.0 490.0 274.0L451.0 225.0ZM487.0 797.0V329.0H493.0C508.0 329.0 530.0 342.0 531.0 348.0V758.0C551.0 762.0 568.0 770.0 575.0 778.0L507.0 831.0L477.0 797.0ZM68.0 797.0V322.0H76.0C95.0 322.0 113.0 333.0 113.0 338.0V768.0H512.0V797.0H118.0L68.0 823.0ZM93.0 601.0V572.0H519.0V601.0ZM93.0 414.0V385.0H519.0V414.0ZM272.0 793.0V-10.0H317.0V793.0Z"/></g>
<g fill="black" opacity=".8" transform="translate(500 200) scale(0.1 -0.1)"><path d="M0.0 0.0 8.0 -29.0H576.0C590.0 -29.0 599.0 -24.0 601.0 -13.0C572.0 14.0 527.0 50.0 527.0 50.0L487.0 0.0ZM60.0 220.0 68.0 190.0H540.0C554.0 190.0 562.0 196.0 567.0 207.0C536.0 234.0 491.0 269.0 491.0 269.0L452.0 220.0ZM486.0 797.0V328.0H493.0C509.0 328.0 531.0 340.0 530.0 347.0V759.0C551.0 762.0 566.0 770.0 573.0 778.0L506.0 831.0L477.0 797.0ZM76.0 797.0V317.0H85.0C103.0 317.0 120.0 327.0 120.0 332.0V768.0H508.0V797.0H124.0L76.0 824.0ZM100.0 598.0V569.0H510.0V598.0ZM105.0 412.0V383.0H509.0V412.0ZM277.0 790.0V-11.0H321.0V790.0Z"/></g>
<g fill="red" transform="translate(600 200) scale(0.1 -0.1)"><path d="M0.0 0.0 8.0 -28.0H580.0C594.0 -28.0 605.0 -23.0 608.0 -12.0C565.0 29.0 492.0 89.0 492.0 89.0L428.0 0.0ZM48.0 229.0 56.0 201.0H559.0C573.0 201.0 584.0 206.0 587.0 217.0C546.0 256.0 476.0 313.0 476.0 313.0L415.0 229.0ZM414.0 819.0V344.0H437.0C483.0 344.0 550.0 369.0 551.0 377.0V772.0C570.0 776.0 581.0 784.0 587.0 791.0L465.0 884.0L404.0 819.0ZM39.0 819.0V324.0H58.0C114.0 324.0 169.0 354.0 169.0 367.0V791.0H449.0V819.0H174.0L39.0 873.0ZM122.0 629.0V601.0H468.0V629.0ZM122.0 438.0V410.0H468.0V438.0ZM226.0 817.0V-13.0H357.0V817.0Z"/></g>
<g fill="black" opacity=".8" transform="translate(600 200) scale(0.1 -0.1)"><path d="M0.0 0.0 8.0 -28.0H575.0C589.0 -28.0 599.0 -23.0 603.0 -12.0C561.0 30.0 487.0 91.0 487.0 91.0L423.0 0.0ZM50.0 229.0 58.0 202.0H554.0C568.0 202.0 579.0 208.0 581.0 218.0C541.0 259.0 470.0 316.0 470.0 316.0L409.0 229.0ZM419.0 822.0V341.0H442.0C487.0 341.0 554.0 369.0 555.0 377.0V774.0C574.0 777.0 587.0 786.0 592.0 793.0L469.0 887.0L408.0 822.0ZM46.0 822.0V323.0H65.0C121.0 323.0 176.0 354.0 176.0 367.0V795.0H458.0V822.0H182.0L46.0 877.0ZM123.0 628.0V601.0H469.0V628.0ZM125.0 442.0V415.0H469.0V442.0ZM229.0 817.0V-12.0H364.0V817.0Z"/></g>
<g fill="red" transform="translate(700 200) scale(0.1 -0.1)"><path d="M0.0 0.0 9.0 -29.0H883.0C898.0 -29.0 907.0 -24.0 910.0 -14.0C879.0 15.0 829.0 53.0 829.0 53.0L786.0 0.0ZM90.0 210.0 98.0 180.0H807.0C821.0 180.0 831.0 185.0 833.0 196.0C802.0 225.0 753.0 263.0 753.0 263.0L710.0 210.0ZM739.0 779.0V315.0H745.0C760.0 315.0 783.0 328.0 783.0 334.0V740.0C803.0 744.0 820.0 752.0 827.0 760.0L759.0 812.0L729.0 779.0ZM128.0 779.0V308.0H136.0C155.0 308.0 173.0 319.0 173.0 324.0V750.0H772.0V779.0H178.0L128.0 805.0ZM135.0 588.0V559.0H768.0V588.0ZM135.0 399.0V370.0H768.0V399.0ZM432.0 780.0V-16.0H476.0V780.0Z"/></g>
<g fill="black" opacity=".8" transform="translate(700 200) scale(0.1 -0.1)"><path d="M0.0 0.0 9.0 -29.0H883.0C898.0 -29.0 907.0 -25.0 909.0 -14.0C878.0 15.0 829.0 53.0 829.0 53.0L786.0 0.0ZM89.0 206.0 97.0 175.0H811.0C826.0 175.0 835.0 181.0 838.0 192.0C805.0 221.0 756.0 259.0 756.0 259.0L713.0 206.0ZM740.0 780.0V311.0H748.0C762.0 311.0 786.0 324.0 785.0 330.0V740.0C805.0 745.0 821.0 753.0 829.0 761.0L760.0 813.0L731.0 780.0ZM131.0 780.0V304.0H141.0C159.0 304.0 177.0 314.0 177.0 321.0V751.0H774.0V780.0H181.0L131.0 807.0ZM136.0 588.0V559.0H767.0V588.0ZM138.0 397.0V367.0H768.0V397.0ZM435.0 779.0V-16.0H479.0V779.0Z"/></g>
<g fill="red" transform="translate(800 200) scale(0.1 -0.1)"><path d="M0.0 0.0 8.0 -28.0H917.0C932.0 -28.0 944.0 -23.0 947.0 -12.0C892.0 35.0 799.0 105.0 799.0 105.0L717.0 0.0ZM86.0 212.0 94.0 184.0H843.0C857.0 184.0 869.0 189.0 872.0 200.0C819.0 245.0 731.0 310.0 731.0 310.0L654.0 212.0ZM681.0 792.0V317.0H706.0C757.0 317.0 830.0 344.0 831.0 352.0V741.0C852.0 745.0 864.0 754.0 870.0 762.0L737.0 865.0L671.0 792.0ZM107.0 792.0V281.0H129.0C192.0 281.0 256.0 315.0 256.0 330.0V764.0H722.0V792.0H265.0L107.0 853.0ZM177.0 596.0V568.0H729.0V596.0ZM177.0 395.0V367.0H729.0V395.0ZM391.0 784.0V-15.0H545.0V784.0Z"/></g>
<g fill="black" opacity=".8" transform="translate(800 200) scale(0.1 -0.1)"><path d="M0.0 0.0 8.0 -29.0H913.0C928.0 -29.0 940.0 -23.0 943.0 -12.0C889.0 35.0 795.0 106.0 795.0 106.0L713.0 0.0ZM84.0 211.0 93.0 183.0H841.0C855.0 183.0 867.0 188.0 870.0 198.0C816.0 246.0 727.0 311.0 727.0 311.0L650.0 211.0ZM681.0 794.0V317.0H706.0C756.0 317.0 829.0 345.0 830.0 352.0V742.0C851.0 746.0 864.0 755.0 870.0 763.0L736.0 866.0L670.0 794.0ZM108.0 794.0V282.0H131.0C194.0 282.0 257.0 315.0 257.0 330.0V765.0H725.0V794.0H267.0L108.0 855.0ZM178.0 596.0V569.0H726.0V596.0ZM179.0 396.0V369.0H728.0V396.0ZM390.0 783.0V-17.0H546.0V783.0Z"/></g>
<g fill="red" transform="translate(900 200) scale(0.1 -0.1)"><path d="M0.0 0.0 9.0 -29.0H886.0C900.0 -29.0 910.0 -24.0 912.0 -13.0C883.0 14.0 836.0 51.0 836.0 51.0L795.0 0.0ZM77.0 142.0 86.0 113.0H819.0C833.0 113.0 842.0 118.0 845.0 128.0C817.0 155.0 773.0 188.0 773.0 188.0L734.0 142.0ZM725.0 535.0V212.0H731.0C745.0 212.0 768.0 222.0 770.0 226.0V496.0C789.0 500.0 806.0 508.0 813.0 515.0L744.0 568.0L716.0 535.0ZM137.0 535.0V207.0H144.0C163.0 207.0 182.0 218.0 182.0 223.0V506.0H758.0V535.0H187.0L137.0 561.0ZM149.0 406.0V377.0H754.0V406.0ZM149.0 273.0V244.0H749.0V273.0ZM431.0 775.0V-8.0H475.0V775.0Z"/></g>
<g fill="black" opacity=".8" transform="translate(900 200) scale(0.1 -0.1)"><path d="M0.0 0.0 9.0 -29.0H886.0C900.0 -29.0 910.0 -25.0 911.0 -13.0C882.0 14.0 837.0 51.0 837.0 51.0L796.0 0.0ZM77.0 141.0 86.0 112.0H820.0C834.0 112.0 842.0 118.0 847.0 127.0C817.0 154.0 773.0 187.0 773.0 187.0L735.0 141.0ZM724.0 535.0V212.0H732.0C746.0 212.0 769.0 221.0 770.0 226.0V497.0C789.0 500.0 806.0 508.0 812.0 516.0L743.0 568.0L716.0 535.0ZM138.0 535.0V207.0H146.0C164.0 207.0 183.0 217.0 183.0 223.0V506.0H758.0V535.0H186.0L138.0 562.0ZM150.0 407.0V377.0H753.0V407.0ZM150.0 273.0V243.0H748.0V273.0ZM431.0 775.0V-7.0H475.0V775.0Z"/></g>
<g fill="red" transform="translate(1000 200) scale(0.1 -0.1)"><path d="M0.0 0.0 8.0 -28.0H917.0C932.0 -28.0 944.0 -23.0 947.0 -12.0C892.0 35.0 799.0 105.0 799.0 105.0L717.0 0.0ZM80.0 144.0 88.0 116.0H855.0C870.0 116.0 881.0 121.0 884.0 132.0C834.0 173.0 752.0 231.0 752.0 231.0L681.0 144.0ZM675.0 544.0V207.0H700.0C750.0 207.0 821.0 236.0 822.0 245.0V493.0C843.0 497.0 855.0 506.0 861.0 514.0L729.0 614.0L665.0 544.0ZM123.0 544.0V183.0H144.0C203.0 183.0 268.0 215.0 268.0 228.0V516.0H704.0V544.0H276.0L123.0 602.0ZM217.0 413.0V385.0H726.0V413.0ZM217.0 278.0V250.0H726.0V278.0ZM394.0 769.0V-7.0H542.0V769.0Z"/></g>
<g fill="black" opacity=".8" transform="translate(1000 200) scale(0.1 -0.1)"><path d="M0.0 0.0 8.0 -28.0H916.0C931.0 -28.0 942.0 -23.0 946.0 -12.0C892.0 36.0 798.0 105.0 798.0 105.0L716.0 0.0ZM79.0 143.0 88.0 116.0H855.0C870.0 116.0 881.0 121.0 883.0 132.0C833.0 174.0 751.0 232.0 751.0 232.0L680.0 143.0ZM676.0 545.0V206.0H701.0C750.0 206.0 821.0 236.0 823.0 245.0V493.0C843.0 496.0 856.0 506.0 862.0 513.0L729.0 614.0L665.0 545.0ZM125.0 545.0V183.0H146.0C204.0 183.0 269.0 215.0 269.0 228.0V517.0H705.0V545.0H278.0L125.0 603.0ZM217.0 413.0V385.0H725.0V413.0ZM217.0 278.0V251.0H726.0V278.0ZM393.0 769.0V-8.0H543.0V769.0Z"/></g>
<g fill="red" transform="translate(1100 200) scale(0.1 -0.1)"><path d="M0.0 0.0 9.0 -29.0H867.0C881.0 -29.0 891.0 -24.0 893.0 -13.0C862.0 14.0 814.0 52.0 814.0 52.0L773.0 0.0ZM75.0 110.0 84.0 80.0H804.0C817.0 80.0 826.0 85.0 829.0 96.0C802.0 122.0 760.0 154.0 760.0 154.0L722.0 110.0ZM673.0 804.0V538.0H679.0C694.0 538.0 716.0 551.0 717.0 557.0V765.0C736.0 769.0 754.0 777.0 761.0 784.0L693.0 837.0L663.0 804.0ZM166.0 804.0V536.0H173.0C191.0 536.0 210.0 547.0 210.0 551.0V775.0H716.0V804.0H215.0L166.0 829.0ZM187.0 707.0V677.0H703.0V707.0ZM181.0 317.0V287.0H714.0V317.0ZM421.0 419.0V-12.0H465.0V419.0Z"/></g>
<g fill="black" opacity=".8" transform="translate(1100 200) scale(0.1 -0.1)"><path d="M0.0 0.0 9.0 -29.0H867.0C882.0 -29.0 891.0 -25.0 893.0 -13.0C862.0 14.0 814.0 52.0 814.0 52.0L773.0 0.0ZM75.0 110.0 84.0 80.0H804.0C817.0 80.0 825.0 86.0 830.0 96.0C801.0 122.0 760.0 154.0 760.0 154.0L722.0 110.0ZM672.0 804.0V538.0H679.0C694.0 538.0 716.0 550.0 716.0 557.0V765.0C736.0 768.0 753.0 777.0 761.0 785.0L692.0 837.0L663.0 804.0ZM166.0 804.0V537.0H173.0C191.0 537.0 210.0 547.0 210.0 551.0V775.0H716.0V804.0H214.0L166.0 830.0ZM187.0 707.0V677.0H703.0V707.0ZM181.0 317.0V287.0H714.0V317.0ZM421.0 419.0V-11.0H465.0V419.0Z"/></g>
<g fill="red" transform="translate(1200 200) scale(0.1 -0.1)"><path d="M0.0 0.0 8.0 -28.0H907.0C922.0 -28.0 933.0 -23.0 936.0 -12.0C888.0 31.0 807.0 93.0 807.0 93.0L736.0 0.0ZM77.0 116.0 85.0 88.0H833.0C847.0 88.0 858.0 93.0 861.0 104.0C815.0 145.0 737.0 206.0 737.0 206.0L668.0 116.0ZM625.0 833.0V572.0H650.0C696.0 572.0 769.0 594.0 770.0 601.0V782.0C791.0 786.0 803.0 796.0 809.0 804.0L677.0 902.0L615.0 833.0ZM158.0 833.0V549.0H178.0C236.0 549.0 300.0 579.0 300.0 592.0V805.0H690.0V833.0H308.0L158.0 890.0ZM244.0 733.0V705.0H695.0V733.0ZM212.0 333.0V305.0H716.0V333.0ZM389.0 440.0V-7.0H529.0V440.0Z"/></g>
<g fill="black" opacity=".8" transform="translate(1200 200) scale(0.1 -0.1)"><path d="M0.0 0.0 8.0 -28.0H907.0C921.0 -28.0 933.0 -23.0 936.0 -12.0C888.0 31.0 806.0 93.0 806.0 93.0L736.0 0.0ZM77.0 115.0 85.0 88.0H833.0C847.0 88.0 858.0 93.0 861.0 104.0C815.0 146.0 737.0 207.0 737.0 207.0L668.0 115.0ZM626.0 833.0V572.0H651.0C696.0 572.0 769.0 594.0 771.0 601.0V782.0C791.0 786.0 803.0 796.0 810.0 803.0L677.0 902.0L616.0 833.0ZM159.0 833.0V549.0H179.0C237.0 549.0 300.0 579.0 300.0 592.0V805.0H690.0V833.0H309.0L159.0 890.0ZM244.0 732.0V705.0H695.0V732.0ZM211.0 333.0V306.0H717.0V333.0ZM388.0 440.0V-7.0H529.0V440.0Z"/></g>
<g fill="red" transform="translate(1300 200) scale(0.1 -0.1)"><path d="M0.0 0.0 8.0 -29.0H526.0C539.0 -29.0 548.0 -24.0 551.0 -13.0C523.0 14.0 475.0 51.0 475.0 51.0L435.0 0.0ZM64.0 219.0 72.0 189.0H502.0C516.0 189.0 526.0 194.0 528.0 205.0C499.0 233.0 452.0 269.0 452.0 269.0L411.0 219.0ZM448.0 775.0V327.0H454.0C469.0 327.0 491.0 340.0 492.0 346.0V735.0C512.0 739.0 529.0 747.0 536.0 755.0L468.0 807.0L438.0 775.0ZM76.0 775.0V311.0H83.0C102.0 311.0 120.0 322.0 120.0 327.0V745.0H469.0V775.0H125.0L76.0 800.0ZM-300.0 586.0V557.0H-5.0V586.0ZM-301.0 429.0V399.0H-2.0V429.0ZM257.0 767.0V-11.0H301.0V767.0Z"/></g>
<g fill="black" opacity=".8" transform="translate(1300 200) scale(0.1 -0.1)"><path d="M0.0 0.0 8.0 -30.0H526.0C539.0 -30.0 548.0 -24.0 550.0 -12.0C522.0 14.0 476.0 51.0 476.0 51.0L436.0 0.0ZM64.0 219.0 73.0 189.0H502.0C516.0 189.0 525.0 195.0 529.0 206.0C498.0 234.0 451.0 270.0 451.0 270.0L411.0 219.0ZM448.0 775.0V327.0H454.0C470.0 327.0 492.0 340.0 492.0 346.0V736.0C512.0 738.0 529.0 747.0 535.0 755.0L467.0 807.0L438.0 775.0ZM76.0 775.0V313.0H84.0C102.0 313.0 120.0 323.0 120.0 327.0V745.0H469.0V775.0H123.0L76.0 801.0ZM-300.0 587.0V558.0H-5.0V587.0ZM-301.0 430.0V399.0H-2.0V430.0ZM257.0 768.0V-10.0H300.0V768.0Z"/></g>
<g fill="red" transform="translate(1400 200) scale(0.1 -0.1)"><path d="M0.0 0.0 8.0 -28.0H523.0C537.0 -28.0 548.0 -23.0 550.0 -12.0C510.0 27.0 442.0 83.0 442.0 83.0L381.0 0.0ZM59.0 219.0 67.0 191.0H499.0C513.0 191.0 524.0 196.0 526.0 207.0C487.0 245.0 420.0 301.0 420.0 301.0L361.0 219.0ZM384.0 794.0V323.0H404.0C444.0 323.0 502.0 346.0 503.0 353.0V746.0C524.0 750.0 537.0 759.0 544.0 767.0L429.0 855.0L374.0 794.0ZM61.0 794.0V295.0H78.0C127.0 295.0 175.0 322.0 175.0 333.0V766.0H421.0V794.0H180.0L61.0 842.0ZM-310.0 608.0V580.0H-11.0V608.0ZM-310.0 440.0V412.0H-11.0V440.0ZM219.0 783.0V-16.0H337.0V783.0Z"/></g>
<g fill="black" opacity=".8" transform="translate(1400 200) scale(0.1 -0.1)"><path d="M0.0 0.0 8.0 -28.0H523.0C537.0 -28.0 548.0 -23.0 550.0 -12.0C510.0 27.0 443.0 83.0 443.0 83.0L381.0 0.0ZM58.0 218.0 68.0 190.0H499.0C514.0 190.0 524.0 197.0 526.0 207.0C487.0 246.0 420.0 301.0 420.0 301.0L361.0 218.0ZM385.0 794.0V322.0H405.0C444.0 322.0 502.0 346.0 504.0 352.0V746.0C523.0 749.0 537.0 759.0 544.0 766.0L429.0 854.0L374.0 794.0ZM62.0 794.0V295.0H78.0C127.0 295.0 174.0 322.0 174.0 333.0V767.0H420.0V794.0H181.0L62.0 842.0ZM-310.0 608.0V580.0H-11.0V608.0ZM-310.0 439.0V412.0H-11.0V439.0ZM218.0 783.0V-17.0H337.0V783.0Z"/></g>
</svg>
