<?xml version="1.0" encoding="UTF-8"?>
<svg width="1700" height="300" xmlns="http://www.w3.org/2000/svg">
<rect width="100%" height="100%" fill="white"/>
<g fill="green" transform="translate(100 100) scale(0.1 -0.1)"><path d="M0.0 -0.0 -33.0 62.0C-79.0 43.0 -199.0 0.0 -276.0 -21.0L-272.0 -38.0C-186.0 -27.0 -71.0 -2.0 -26.0 8.0C-15.0 -1.0 -7.0 -3.0 0.0 0.0ZM-762.0 -102.0 -727.0 -168.0C-718.0 -165.0 -710.0 -159.0 -704.0 -144.0C-594.0 -118.0 -511.0 -96.0 -456.0 -81.0L-458.0 -62.0C-583.0 -80.0 -708.0 -98.0 -762.0 -102.0ZM-267.0 -63.0 -272.0 -86.0C-184.0 -102.0 -59.0 -142.0 3.0 -164.0C58.0 -170.0 50.0 -80.0 -267.0 -63.0ZM-407.0 -723.0V-533.0H-8.0V-499.0H-402.0L-458.0 -470.0V-740.0H-450.0C-429.0 -740.0 -407.0 -727.0 -407.0 -723.0ZM-31.0 -483.0H-21.0V-639.0C-21.0 -655.0 -25.0 -661.0 -43.0 -661.0C-63.0 -661.0 -150.0 -653.0 -150.0 -653.0V-673.0C-112.0 -677.0 -88.0 -685.0 -75.0 -694.0C-62.0 -702.0 -58.0 -719.0 -55.0 -734.0C21.0 -724.0 30.0 -695.0 30.0 -647.0V-525.0C50.0 -521.0 69.0 -513.0 75.0 -505.0L-3.0 -449.0ZM-325.0 -85.0V220.0H-376.0V-104.0H-369.0C-343.0 -104.0 -325.0 -89.0 -325.0 -85.0ZM-52.0 247.0 -96.0 195.0H-728.0L-718.0 160.0H3.0C19.0 160.0 29.0 166.0 32.0 179.0C-1.0 210.0 -52.0 247.0 -52.0 247.0ZM-738.0 -243.0 -748.0 -257.0C-698.0 -277.0 -649.0 -314.0 -628.0 -348.0C-570.0 -377.0 -539.0 -261.0 -738.0 -243.0Z"/></g>
<g fill="green" transform="translate(200 100) scale(0.1 -0.1)"><path d="M0.0 0.0 -87.0 115.0C-121.0 91.0 -211.0 36.0 -273.0 8.0L-269.0 -4.0C-187.0 -8.0 -79.0 -1.0 -35.0 5.0C-20.0 -5.0 -8.0 -6.0 0.0 0.0ZM-773.0 -41.0 -714.0 -167.0C-702.0 -165.0 -690.0 -156.0 -684.0 -141.0C-584.0 -94.0 -515.0 -58.0 -469.0 -33.0L-470.0 -17.0C-594.0 -29.0 -719.0 -38.0 -773.0 -41.0ZM-279.0 -30.0 -285.0 -46.0C-207.0 -66.0 -93.0 -119.0 -37.0 -154.0C73.0 -150.0 34.0 42.0 -279.0 -30.0ZM-341.0 -655.0V-491.0H1.0V-459.0H-333.0L-488.0 -400.0V-699.0H-468.0C-408.0 -699.0 -341.0 -667.0 -341.0 -655.0ZM-87.0 -441.0H-75.0V-541.0C-75.0 -551.0 -77.0 -557.0 -91.0 -557.0C-106.0 -557.0 -143.0 -555.0 -143.0 -555.0V-569.0C-109.0 -576.0 -100.0 -591.0 -92.0 -605.0C-85.0 -621.0 -84.0 -650.0 -84.0 -687.0C60.0 -676.0 78.0 -635.0 78.0 -550.0V-495.0C100.0 -490.0 113.0 -481.0 119.0 -472.0L-22.0 -369.0ZM-277.0 -53.0V257.0H-442.0V-81.0H-412.0C-327.0 -81.0 -277.0 -57.0 -277.0 -53.0ZM-108.0 318.0 -179.0 228.0H-753.0L-744.0 196.0H-10.0C6.0 196.0 18.0 202.0 21.0 214.0C-28.0 257.0 -108.0 318.0 -108.0 318.0ZM-762.0 -196.0 -770.0 -205.0C-729.0 -229.0 -688.0 -277.0 -674.0 -319.0C-558.0 -380.0 -463.0 -164.0 -762.0 -196.0Z"/></g>
<g fill="green" transform="translate(300 100) scale(0.1 -0.1)"><path d="M0.0 0.0 -26.0 51.0C-63.0 38.0 -164.0 3.0 -229.0 -14.0L-226.0 -28.0C-154.0 -20.0 -57.0 0.0 -21.0 7.0C-12.0 0.0 -6.0 -2.0 0.0 0.0ZM-635.0 -75.0 -606.0 -129.0C-599.0 -127.0 -592.0 -122.0 -587.0 -110.0C-495.0 -89.0 -427.0 -72.0 -382.0 -61.0L-383.0 -45.0C-487.0 -59.0 -591.0 -72.0 -635.0 -75.0ZM-221.0 -47.0 -225.0 -66.0C-152.0 -78.0 -47.0 -110.0 5.0 -126.0C50.0 -130.0 43.0 -58.0 -221.0 -47.0ZM-303.0 -611.0V-470.0H15.0V-442.0H-299.0L-345.0 -418.0V-625.0H-339.0C-321.0 -625.0 -303.0 -614.0 -303.0 -611.0ZM-32.0 -442.0H-24.0V-529.0C-24.0 -542.0 -27.0 -547.0 -42.0 -547.0C-58.0 -547.0 -126.0 -540.0 -126.0 -540.0V-557.0C-96.0 -560.0 -77.0 -567.0 -67.0 -574.0C-56.0 -581.0 -53.0 -595.0 -51.0 -607.0C11.0 -599.0 18.0 -575.0 18.0 -536.0V-477.0C34.0 -473.0 50.0 -467.0 54.0 -460.0L-9.0 -415.0ZM-258.0 -14.0V204.0H-300.0V-30.0H-294.0C-273.0 -30.0 -258.0 -17.0 -258.0 -14.0ZM-53.0 196.0 -89.0 154.0H-596.0L-588.0 125.0H-7.0C6.0 125.0 14.0 130.0 17.0 141.0C-11.0 166.0 -53.0 196.0 -53.0 196.0ZM-624.0 -230.0 -632.0 -241.0C-594.0 -258.0 -559.0 -288.0 -544.0 -316.0C-496.0 -340.0 -469.0 -243.0 -624.0 -230.0Z"/></g>
<g fill="green" transform="translate(400 100) scale(0.1 -0.1)"><path d="M0.0 0.0 -69.0 96.0C-96.0 79.0 -172.0 34.0 -225.0 12.0L-222.0 2.0C-153.0 -3.0 -63.0 2.0 -28.0 5.0C-16.0 -3.0 -7.0 -5.0 0.0 0.0ZM-643.0 -24.0 -596.0 -127.0C-587.0 -126.0 -576.0 -118.0 -571.0 -106.0C-487.0 -69.0 -428.0 -41.0 -389.0 -22.0L-390.0 -8.0C-494.0 -16.0 -599.0 -22.0 -643.0 -24.0ZM-232.0 -20.0 -236.0 -34.0C-170.0 -49.0 -72.0 -92.0 -24.0 -119.0C67.0 -112.0 27.0 46.0 -232.0 -20.0ZM-244.0 -547.0V-431.0H32.0V-405.0H-237.0L-366.0 -356.0V-583.0H-350.0C-300.0 -583.0 -244.0 -557.0 -244.0 -547.0ZM-74.0 -405.0H-64.0V-444.0C-64.0 -452.0 -65.0 -457.0 -76.0 -457.0C-88.0 -457.0 -113.0 -456.0 -113.0 -456.0V-467.0C-86.0 -473.0 -80.0 -485.0 -74.0 -496.0C-69.0 -509.0 -69.0 -532.0 -69.0 -561.0C48.0 -553.0 62.0 -520.0 62.0 -451.0V-449.0C80.0 -445.0 90.0 -438.0 95.0 -430.0L-20.0 -346.0ZM-215.0 15.0V238.0H-353.0V-8.0H-328.0C-257.0 -8.0 -215.0 12.0 -215.0 15.0ZM-97.0 257.0 -156.0 183.0H-615.0L-608.0 157.0H-17.0C-4.0 157.0 6.0 162.0 8.0 172.0C-32.0 207.0 -97.0 257.0 -97.0 257.0ZM-643.0 -188.0 -650.0 -195.0C-618.0 -215.0 -588.0 -255.0 -578.0 -290.0C-481.0 -343.0 -400.0 -161.0 -643.0 -188.0Z"/></g>
<g fill="green" transform="translate(500 100) scale(0.1 -0.1)"><path d="M0.0 0.0 -62.0 64.0C-117.0 2.0 -199.0 -73.0 -255.0 -116.0L-241.0 -134.0C-178.0 -101.0 -98.0 -45.0 -43.0 -1.0C-24.0 -10.0 -9.0 -7.0 0.0 0.0ZM-707.0 -333.0 -658.0 -396.0C-649.0 -389.0 -643.0 -379.0 -642.0 -366.0C-555.0 -312.0 -484.0 -259.0 -434.0 -219.0L-442.0 -202.0C-541.0 -256.0 -648.0 -310.0 -707.0 -333.0ZM-248.0 -203.0 -259.0 -217.0C-182.0 -253.0 -78.0 -326.0 -38.0 -378.0C26.0 -405.0 36.0 -274.0 -248.0 -203.0ZM-678.0 -571.0V62.0H144.0V98.0H-672.0L-732.0 130.0V-591.0H-722.0C-697.0 -591.0 -678.0 -577.0 -678.0 -571.0ZM32.0 51.0H43.0V-502.0C43.0 -520.0 37.0 -528.0 16.0 -528.0C-8.0 -528.0 -118.0 -518.0 -118.0 -518.0V-539.0C-70.0 -543.0 -42.0 -553.0 -25.0 -562.0C-11.0 -571.0 -5.0 -587.0 -2.0 -603.0C86.0 -593.0 96.0 -561.0 96.0 -510.0V6.0C118.0 10.0 138.0 19.0 146.0 27.0L63.0 88.0ZM-348.0 -563.0V277.0H-401.0V-584.0H-394.0C-367.0 -584.0 -348.0 -568.0 -348.0 -563.0ZM64.0 396.0 13.0 333.0H-831.0L-819.0 297.0H130.0C147.0 297.0 157.0 303.0 161.0 317.0C123.0 352.0 64.0 396.0 64.0 396.0ZM-778.0 -8.0 -793.0 -17.0C-751.0 -49.0 -683.0 -117.0 -669.0 -170.0C-606.0 -197.0 -610.0 -57.0 -778.0 -8.0Z"/></g>
<g fill="green" transform="translate(600 100) scale(0.1 -0.1)"><path d="M0.0 0.0 -156.0 124.0C-198.0 55.0 -260.0 -27.0 -302.0 -75.0L-293.0 -85.0C-215.0 -69.0 -120.0 -39.0 -50.0 -7.0C-25.0 -16.0 -9.0 -10.0 0.0 0.0ZM-736.0 -215.0 -632.0 -387.0C-618.0 -381.0 -607.0 -365.0 -605.0 -348.0C-534.0 -256.0 -488.0 -181.0 -458.0 -132.0L-461.0 -122.0C-566.0 -164.0 -681.0 -200.0 -736.0 -215.0ZM-296.0 -121.0 -305.0 -128.0C-259.0 -174.0 -200.0 -248.0 -176.0 -312.0C-34.0 -380.0 42.0 -118.0 -296.0 -121.0ZM-642.0 -507.0V109.0H52.0V143.0H-629.0L-810.0 213.0V-564.0H-785.0C-715.0 -564.0 -642.0 -526.0 -642.0 -507.0ZM-70.0 87.0H-58.0V-396.0C-58.0 -409.0 -61.0 -416.0 -79.0 -416.0C-103.0 -416.0 -189.0 -412.0 -189.0 -412.0V-426.0C-137.0 -435.0 -121.0 -453.0 -105.0 -472.0C-90.0 -492.0 -87.0 -527.0 -84.0 -572.0C84.0 -559.0 107.0 -508.0 107.0 -407.0V30.0C130.0 35.0 144.0 44.0 151.0 54.0L2.0 168.0ZM-327.0 -535.0V304.0H-497.0V-580.0H-466.0C-378.0 -580.0 -327.0 -545.0 -327.0 -535.0ZM-27.0 490.0 -119.0 371.0H-880.0L-871.0 338.0H104.0C122.0 338.0 136.0 344.0 139.0 356.0C77.0 411.0 -27.0 490.0 -27.0 490.0ZM-843.0 47.0 -855.0 43.0C-824.0 -1.0 -773.0 -77.0 -759.0 -144.0C-610.0 -206.0 -588.0 70.0 -843.0 47.0Z"/></g>
<g fill="green" transform="translate(700 100) scale(0.1 -0.1)"><path d="M0.0 -0.0 -10.0 51.0C-48.0 59.0 -181.0 41.0 -263.0 35.0L-266.0 21.0C-173.0 18.0 -48.0 23.0 -12.0 12.0C-7.0 5.0 -5.0 0.0 0.0 0.0ZM-698.0 63.0 -681.0 3.0C-673.0 3.0 -663.0 6.0 -655.0 20.0C-543.0 19.0 -460.0 16.0 -405.0 9.0L-403.0 28.0C-530.0 40.0 -652.0 52.0 -698.0 63.0ZM-257.0 25.0 -258.0 -1.0C-174.0 -2.0 -52.0 -16.0 16.0 -16.0C58.0 -10.0 41.0 44.0 -257.0 25.0ZM-471.0 -562.0V-706.0H-366.0V-677.0H-467.0L-512.0 -655.0V-574.0H-506.0C-491.0 -574.0 -471.0 -564.0 -471.0 -562.0ZM-40.0 -507.0H-32.0V-664.0C-32.0 -677.0 -35.0 -682.0 -52.0 -682.0C-71.0 -682.0 -155.0 -675.0 -155.0 -675.0V-692.0C-118.0 -696.0 -96.0 -703.0 -84.0 -710.0C-73.0 -716.0 -68.0 -731.0 -65.0 -744.0C3.0 -735.0 11.0 -710.0 11.0 -669.0V-543.0C29.0 -540.0 46.0 -533.0 50.0 -526.0L-17.0 -477.0ZM-490.0 -434.0V-339.0H-533.0V-448.0H-527.0C-505.0 -448.0 -490.0 -436.0 -490.0 -434.0ZM-116.0 120.0 -149.0 82.0H-574.0L-566.0 53.0H-76.0C-63.0 53.0 -54.0 58.0 -52.0 69.0C-77.0 92.0 -116.0 120.0 -116.0 120.0ZM-696.0 -114.0 -699.0 -135.0C-638.0 -134.0 -562.0 -143.0 -517.0 -155.0C-472.0 -157.0 -487.0 -83.0 -696.0 -114.0Z"/></g>
<g fill="green" transform="translate(800 100) scale(0.1 -0.1)"><path d="M0.0 0.0 -37.0 101.0C-63.0 106.0 -161.0 79.0 -226.0 68.0L-228.0 57.0C-151.0 37.0 -47.0 23.0 -21.0 12.0C-14.0 2.0 -6.0 -3.0 0.0 0.0ZM-687.0 88.0 -667.0 2.0C-657.0 2.0 -647.0 5.0 -639.0 18.0C-542.0 27.0 -473.0 32.0 -427.0 37.0V54.0C-538.0 67.0 -644.0 81.0 -687.0 88.0ZM-236.0 40.0 -240.0 21.0C-163.0 20.0 -46.0 -9.0 15.0 -22.0C86.0 21.0 -7.0 138.0 -236.0 40.0ZM-457.0 -534.0V-689.0H-351.0V-662.0H-453.0L-558.0 -622.0V-561.0H-546.0C-506.0 -561.0 -457.0 -539.0 -457.0 -534.0ZM-68.0 -482.0H-58.0V-595.0C-58.0 -604.0 -59.0 -608.0 -71.0 -608.0C-84.0 -608.0 -113.0 -606.0 -113.0 -606.0V-619.0C-86.0 -625.0 -78.0 -637.0 -71.0 -648.0C-66.0 -662.0 -65.0 -686.0 -65.0 -716.0C46.0 -707.0 60.0 -672.0 60.0 -603.0V-526.0C79.0 -523.0 91.0 -514.0 97.0 -507.0L-16.0 -424.0ZM-467.0 -426.0V-326.0H-588.0V-445.0H-566.0C-503.0 -445.0 -466.0 -429.0 -467.0 -426.0ZM-147.0 167.0 -193.0 109.0H-587.0L-579.0 82.0H-86.0C-73.0 82.0 -65.0 87.0 -62.0 97.0C-95.0 127.0 -147.0 167.0 -147.0 167.0ZM-690.0 -82.0 -696.0 -96.0C-644.0 -102.0 -576.0 -124.0 -541.0 -135.0C-475.0 -128.0 -501.0 -9.0 -690.0 -82.0Z"/></g>
<g fill="green" transform="translate(900 100) scale(0.1 -0.1)"><path d="M0.0 -0.0 -34.0 60.0C-85.0 37.0 -200.0 5.0 -275.0 -11.0L-270.0 -28.0C-188.0 -23.0 -78.0 -5.0 -30.0 7.0C-18.0 -3.0 -8.0 -4.0 0.0 0.0ZM-742.0 -116.0 -708.0 -184.0C-699.0 -181.0 -691.0 -174.0 -685.0 -159.0C-573.0 -131.0 -487.0 -106.0 -428.0 -86.0L-430.0 -67.0C-556.0 -89.0 -684.0 -110.0 -742.0 -116.0ZM-266.0 -58.0 -272.0 -80.0C-183.0 -99.0 -60.0 -144.0 -1.0 -172.0C56.0 -183.0 51.0 -85.0 -266.0 -58.0ZM-464.0 -768.0V-559.0H-114.0V-525.0H-459.0L-515.0 -497.0V-785.0H-507.0C-486.0 -785.0 -464.0 -773.0 -464.0 -768.0ZM-4.0 -416.0H7.0V-683.0C7.0 -698.0 3.0 -704.0 -17.0 -704.0C-40.0 -704.0 -138.0 -696.0 -138.0 -696.0V-716.0C-97.0 -720.0 -69.0 -728.0 -55.0 -737.0C-40.0 -746.0 -36.0 -763.0 -32.0 -777.0C49.0 -767.0 58.0 -738.0 58.0 -689.0V-461.0C81.0 -457.0 102.0 -448.0 108.0 -440.0L26.0 -380.0ZM-288.0 -50.0V291.0H-339.0V-70.0H-332.0C-306.0 -70.0 -288.0 -55.0 -288.0 -50.0ZM-2.0 274.0 -46.0 221.0H-757.0L-747.0 186.0H54.0C69.0 186.0 80.0 192.0 81.0 205.0C49.0 236.0 -2.0 274.0 -2.0 274.0ZM-541.0 -196.0 -548.0 -216.0C-467.0 -239.0 -405.0 -273.0 -368.0 -305.0C-310.0 -341.0 -237.0 -237.0 -541.0 -196.0Z"/></g>
<g fill="green" transform="translate(1000 100) scale(0.1 -0.1)"><path d="M0.0 0.0 -86.0 99.0C-126.0 65.0 -212.0 10.0 -271.0 -19.0L-265.0 -33.0C-187.0 -28.0 -86.0 -11.0 -36.0 2.0C-20.0 -6.0 -7.0 -6.0 0.0 0.0ZM-760.0 -86.0 -696.0 -205.0C-685.0 -201.0 -674.0 -192.0 -669.0 -176.0C-572.0 -124.0 -505.0 -84.0 -459.0 -55.0L-462.0 -40.0C-581.0 -61.0 -705.0 -80.0 -760.0 -86.0ZM-265.0 -49.0 -271.0 -65.0C-191.0 -90.0 -77.0 -145.0 -22.0 -183.0C82.0 -194.0 69.0 -10.0 -265.0 -49.0ZM-392.0 -752.0V-548.0H-136.0V-516.0H-386.0L-533.0 -459.0V-795.0H-513.0C-455.0 -795.0 -392.0 -764.0 -392.0 -752.0ZM-90.0 -391.0H-78.0V-614.0C-78.0 -626.0 -82.0 -632.0 -96.0 -632.0C-115.0 -632.0 -173.0 -628.0 -173.0 -628.0V-642.0C-131.0 -651.0 -119.0 -667.0 -108.0 -685.0C-97.0 -704.0 -95.0 -736.0 -94.0 -780.0C67.0 -767.0 88.0 -718.0 88.0 -627.0V-449.0C113.0 -444.0 126.0 -433.0 133.0 -424.0L-19.0 -311.0ZM-236.0 -25.0V316.0H-404.0V-51.0H-373.0C-287.0 -51.0 -237.0 -28.0 -236.0 -25.0ZM-57.0 317.0 -127.0 227.0H-783.0L-774.0 195.0H41.0C57.0 195.0 68.0 201.0 71.0 213.0C23.0 256.0 -57.0 317.0 -57.0 317.0ZM-553.0 -182.0 -558.0 -197.0C-497.0 -217.0 -451.0 -251.0 -427.0 -282.0C-328.0 -358.0 -129.0 -177.0 -553.0 -182.0Z"/></g>
<g fill="red" transform="translate(100 200) scale(0.1 -0.1)"><path d="M0.0 0.0 -56.0 53.0C-106.0 -7.0 -165.0 -67.0 -207.0 -102.0L-194.0 -117.0C-148.0 -90.0 -89.0 -45.0 -40.0 -2.0C-23.0 -11.0 -8.0 -7.0 0.0 0.0ZM-567.0 -316.0 -524.0 -368.0C-517.0 -362.0 -512.0 -352.0 -512.0 -342.0C-442.0 -292.0 -383.0 -242.0 -340.0 -202.0L-348.0 -188.0C-427.0 -241.0 -515.0 -292.0 -567.0 -316.0ZM-201.0 -183.0 -211.0 -194.0C-149.0 -228.0 -66.0 -295.0 -39.0 -347.0C17.0 -374.0 29.0 -255.0 -201.0 -183.0ZM-614.0 -489.0V107.0H94.0V137.0H-608.0L-658.0 164.0V-506.0H-650.0C-629.0 -506.0 -614.0 -495.0 -614.0 -489.0ZM49.0 137.0H59.0V-422.0C59.0 -437.0 54.0 -443.0 35.0 -443.0C14.0 -443.0 -87.0 -435.0 -87.0 -435.0V-452.0C-44.0 -456.0 -18.0 -464.0 -3.0 -472.0C10.0 -480.0 15.0 -493.0 18.0 -506.0C95.0 -498.0 103.0 -470.0 103.0 -428.0V98.0C123.0 101.0 141.0 109.0 148.0 116.0L76.0 170.0ZM-256.0 -468.0V310.0H-300.0V-486.0H-294.0C-271.0 -486.0 -256.0 -473.0 -256.0 -468.0ZM98.0 364.0 54.0 310.0H-718.0L-709.0 280.0H154.0C168.0 280.0 177.0 285.0 180.0 296.0C148.0 326.0 98.0 364.0 98.0 364.0ZM-529.0 37.0 -540.0 27.0C-489.0 -3.0 -426.0 -62.0 -407.0 -108.0C-354.0 -136.0 -333.0 -23.0 -529.0 37.0Z"/></g>
<g fill="black" opacity=".8" transform="translate(100 200) scale(0.1 -0.1)"><path d="M0.0 0.0 -56.0 52.0C-105.0 -7.0 -165.0 -67.0 -207.0 -102.0L-194.0 -117.0C-147.0 -91.0 -89.0 -45.0 -41.0 -3.0C-23.0 -10.0 -9.0 -7.0 0.0 0.0ZM-566.0 -316.0 -524.0 -368.0C-517.0 -362.0 -512.0 -352.0 -512.0 -342.0C-442.0 -292.0 -384.0 -242.0 -341.0 -202.0L-348.0 -188.0C-427.0 -241.0 -515.0 -292.0 -566.0 -316.0ZM-201.0 -184.0 -212.0 -193.0C-149.0 -227.0 -67.0 -295.0 -39.0 -345.0C17.0 -374.0 30.0 -255.0 -201.0 -184.0ZM-613.0 -490.0V107.0H94.0V137.0H-608.0L-658.0 164.0V-507.0H-650.0C-628.0 -507.0 -613.0 -495.0 -613.0 -490.0ZM49.0 138.0H59.0V-422.0C59.0 -436.0 54.0 -443.0 35.0 -443.0C13.0 -443.0 -86.0 -434.0 -86.0 -434.0V-452.0C-44.0 -455.0 -18.0 -464.0 -3.0 -471.0C10.0 -480.0 15.0 -493.0 18.0 -505.0C95.0 -497.0 103.0 -470.0 103.0 -428.0V98.0C123.0 102.0 142.0 109.0 148.0 116.0L77.0 169.0ZM-256.0 -468.0V310.0H-300.0V-487.0H-294.0C-272.0 -487.0 -256.0 -473.0 -256.0 -468.0ZM97.0 363.0 54.0 310.0H-719.0L-709.0 280.0H155.0C168.0 280.0 177.0 285.0 180.0 297.0C147.0 326.0 97.0 363.0 97.0 363.0ZM-529.0 37.0 -540.0 27.0C-489.0 -4.0 -426.0 -63.0 -407.0 -109.0C-354.0 -135.0 -333.0 -23.0 -529.0 37.0Z"/></g>
<g fill="red" transform="translate(200 200) scale(0.1 -0.1)"><path d="M0.0 0.0 -138.0 94.0C-177.0 26.0 -222.0 -46.0 -253.0 -90.0L-243.0 -99.0C-182.0 -77.0 -109.0 -43.0 -44.0 -9.0C-22.0 -16.0 -7.0 -9.0 0.0 0.0ZM-598.0 -228.0 -503.0 -372.0C-491.0 -366.0 -483.0 -352.0 -482.0 -338.0C-429.0 -252.0 -394.0 -182.0 -372.0 -136.0L-375.0 -129.0C-457.0 -173.0 -550.0 -213.0 -598.0 -228.0ZM-239.0 -124.0 -247.0 -129.0C-211.0 -173.0 -169.0 -239.0 -153.0 -298.0C-35.0 -372.0 58.0 -150.0 -239.0 -124.0ZM-580.0 -466.0V130.0H-10.0V158.0H-570.0L-720.0 217.0V-514.0H-698.0C-639.0 -514.0 -580.0 -482.0 -580.0 -466.0ZM-59.0 158.0H-49.0V-349.0C-49.0 -361.0 -53.0 -368.0 -68.0 -368.0C-91.0 -368.0 -179.0 -363.0 -179.0 -363.0V-375.0C-130.0 -383.0 -113.0 -399.0 -98.0 -418.0C-83.0 -437.0 -79.0 -468.0 -76.0 -510.0C76.0 -498.0 97.0 -450.0 97.0 -361.0V107.0C118.0 111.0 130.0 120.0 137.0 128.0L5.0 230.0ZM-237.0 -448.0V326.0H-382.0V-486.0H-355.0C-281.0 -486.0 -238.0 -457.0 -237.0 -448.0ZM19.0 428.0 -60.0 326.0H-763.0L-755.0 298.0H131.0C146.0 298.0 158.0 303.0 161.0 314.0C108.0 360.0 19.0 428.0 19.0 428.0ZM-582.0 64.0 -590.0 58.0C-555.0 22.0 -511.0 -37.0 -494.0 -90.0C-376.0 -154.0 -296.0 64.0 -582.0 64.0Z"/></g>
<g fill="black" opacity=".8" transform="translate(200 200) scale(0.1 -0.1)"><path d="M0.0 0.0 -137.0 94.0C-176.0 25.0 -222.0 -47.0 -253.0 -89.0L-243.0 -99.0C-181.0 -78.0 -109.0 -43.0 -44.0 -9.0C-21.0 -15.0 -7.0 -9.0 0.0 0.0ZM-597.0 -229.0 -502.0 -373.0C-491.0 -367.0 -482.0 -352.0 -482.0 -337.0C-429.0 -252.0 -394.0 -182.0 -371.0 -136.0L-376.0 -129.0C-457.0 -173.0 -551.0 -213.0 -597.0 -229.0ZM-239.0 -124.0 -246.0 -129.0C-211.0 -173.0 -168.0 -239.0 -153.0 -297.0C-34.0 -372.0 59.0 -150.0 -239.0 -124.0ZM-580.0 -465.0V130.0H-11.0V158.0H-569.0L-719.0 217.0V-514.0H-698.0C-639.0 -514.0 -580.0 -482.0 -580.0 -465.0ZM-59.0 157.0H-49.0V-349.0C-49.0 -361.0 -52.0 -367.0 -67.0 -367.0C-91.0 -367.0 -180.0 -363.0 -180.0 -363.0V-374.0C-129.0 -383.0 -114.0 -399.0 -98.0 -418.0C-82.0 -437.0 -80.0 -468.0 -76.0 -510.0C77.0 -498.0 98.0 -450.0 98.0 -361.0V107.0C119.0 111.0 130.0 120.0 137.0 129.0L6.0 231.0ZM-237.0 -448.0V325.0H-382.0V-486.0H-355.0C-281.0 -486.0 -238.0 -456.0 -237.0 -448.0ZM19.0 428.0 -60.0 325.0H-763.0L-756.0 298.0H132.0C147.0 298.0 158.0 303.0 160.0 313.0C108.0 360.0 19.0 428.0 19.0 428.0ZM-581.0 65.0 -590.0 58.0C-554.0 21.0 -511.0 -37.0 -494.0 -90.0C-376.0 -154.0 -296.0 64.0 -581.0 65.0Z"/></g>
<g fill="red" transform="translate(300 200) scale(0.1 -0.1)"><path d="M0.0 0.0 -32.0 54.0C-73.0 32.0 -171.0 -10.0 -235.0 -31.0L-230.0 -46.0C-159.0 -33.0 -64.0 -7.0 -24.0 6.0C-14.0 -2.0 -6.0 -3.0 0.0 0.0ZM-650.0 -117.0 -618.0 -173.0C-610.0 -170.0 -603.0 -164.0 -599.0 -152.0C-507.0 -126.0 -438.0 -103.0 -391.0 -87.0L-394.0 -71.0C-498.0 -91.0 -603.0 -111.0 -650.0 -117.0ZM-227.0 -73.0 -232.0 -92.0C-158.0 -108.0 -53.0 -146.0 -3.0 -169.0C46.0 -176.0 41.0 -94.0 -227.0 -73.0ZM-386.0 -596.0V-377.0H17.0V-347.0H-381.0L-430.0 -322.0V-611.0H-423.0C-404.0 -611.0 -386.0 -600.0 -386.0 -596.0ZM-20.0 -347.0H-11.0V-529.0C-11.0 -543.0 -15.0 -548.0 -31.0 -548.0C-48.0 -548.0 -126.0 -541.0 -126.0 -541.0V-558.0C-92.0 -562.0 -71.0 -569.0 -59.0 -577.0C-48.0 -584.0 -44.0 -598.0 -42.0 -611.0C25.0 -603.0 33.0 -577.0 33.0 -536.0V-383.0C50.0 -380.0 66.0 -373.0 72.0 -366.0L4.0 -317.0ZM-289.0 -148.0V184.0H-333.0V-165.0H-327.0C-304.0 -165.0 -289.0 -152.0 -289.0 -148.0ZM-33.0 230.0 -72.0 184.0H-637.0L-629.0 154.0H15.0C29.0 154.0 38.0 159.0 41.0 170.0C12.0 197.0 -33.0 230.0 -33.0 230.0ZM-656.0 -178.0 -665.0 -189.0C-625.0 -207.0 -581.0 -243.0 -565.0 -275.0C-514.0 -299.0 -496.0 -195.0 -656.0 -178.0Z"/></g>
<g fill="black" opacity=".8" transform="translate(300 200) scale(0.1 -0.1)"><path d="M0.0 0.0 -32.0 53.0C-72.0 32.0 -171.0 -10.0 -235.0 -31.0L-230.0 -46.0C-159.0 -34.0 -64.0 -7.0 -25.0 6.0C-14.0 -2.0 -7.0 -3.0 0.0 0.0ZM-650.0 -117.0 -618.0 -173.0C-610.0 -170.0 -603.0 -164.0 -599.0 -152.0C-507.0 -126.0 -438.0 -103.0 -392.0 -88.0L-394.0 -71.0C-498.0 -91.0 -603.0 -111.0 -650.0 -117.0ZM-227.0 -73.0 -232.0 -91.0C-158.0 -107.0 -53.0 -146.0 -3.0 -168.0C45.0 -176.0 41.0 -94.0 -227.0 -73.0ZM-386.0 -596.0V-377.0H17.0V-347.0H-381.0L-430.0 -322.0V-611.0H-423.0C-404.0 -611.0 -386.0 -600.0 -386.0 -596.0ZM-20.0 -346.0H-11.0V-529.0C-11.0 -543.0 -15.0 -548.0 -31.0 -548.0C-49.0 -548.0 -126.0 -541.0 -126.0 -541.0V-559.0C-92.0 -562.0 -71.0 -569.0 -59.0 -577.0C-48.0 -584.0 -44.0 -598.0 -42.0 -611.0C25.0 -603.0 33.0 -577.0 33.0 -536.0V-383.0C50.0 -379.0 67.0 -373.0 72.0 -365.0L5.0 -317.0ZM-289.0 -148.0V183.0H-333.0V-165.0H-327.0C-305.0 -165.0 -289.0 -152.0 -289.0 -148.0ZM-34.0 230.0 -72.0 184.0H-638.0L-629.0 154.0H16.0C29.0 154.0 38.0 159.0 41.0 170.0C11.0 197.0 -34.0 230.0 -34.0 230.0ZM-656.0 -178.0 -665.0 -189.0C-625.0 -208.0 -581.0 -244.0 -565.0 -276.0C-514.0 -299.0 -496.0 -195.0 -656.0 -178.0Z"/></g>
<g fill="red" transform="translate(400 200) scale(0.1 -0.1)"><path d="M0.0 0.0 -84.0 101.0C-114.0 76.0 -188.0 25.0 -239.0 -2.0L-235.0 -12.0C-165.0 -13.0 -73.0 -5.0 -32.0 3.0C-18.0 -6.0 -7.0 -6.0 0.0 0.0ZM-661.0 -54.0 -605.0 -169.0C-594.0 -167.0 -584.0 -159.0 -579.0 -146.0C-497.0 -100.0 -440.0 -64.0 -403.0 -40.0L-404.0 -27.0C-508.0 -40.0 -614.0 -51.0 -661.0 -54.0ZM-243.0 -36.0 -249.0 -49.0C-186.0 -69.0 -96.0 -117.0 -52.0 -151.0C47.0 -156.0 27.0 19.0 -243.0 -36.0ZM-334.0 -535.0V-338.0H13.0V-310.0H-327.0L-464.0 -258.0V-574.0H-446.0C-393.0 -574.0 -334.0 -546.0 -334.0 -535.0ZM-72.0 -310.0H-62.0V-441.0C-62.0 -450.0 -64.0 -456.0 -76.0 -456.0C-90.0 -456.0 -127.0 -454.0 -127.0 -454.0V-466.0C-96.0 -472.0 -87.0 -485.0 -80.0 -498.0C-73.0 -512.0 -72.0 -537.0 -71.0 -570.0C54.0 -560.0 70.0 -524.0 70.0 -449.0V-357.0C89.0 -353.0 100.0 -345.0 106.0 -337.0L-16.0 -248.0ZM-252.0 -121.0V215.0H-394.0V-148.0H-368.0C-295.0 -148.0 -252.0 -126.0 -252.0 -121.0ZM-86.0 296.0 -150.0 215.0H-662.0L-654.0 187.0H2.0C16.0 187.0 27.0 192.0 30.0 203.0C-14.0 241.0 -86.0 296.0 -86.0 296.0ZM-683.0 -134.0 -690.0 -141.0C-658.0 -164.0 -621.0 -210.0 -609.0 -250.0C-504.0 -301.0 -442.0 -105.0 -683.0 -134.0Z"/></g>
<g fill="black" opacity=".8" transform="translate(400 200) scale(0.1 -0.1)"><path d="M0.0 0.0 -84.0 101.0C-114.0 76.0 -188.0 25.0 -239.0 -2.0L-235.0 -12.0C-164.0 -13.0 -73.0 -5.0 -32.0 3.0C-18.0 -5.0 -7.0 -6.0 0.0 0.0ZM-660.0 -55.0 -604.0 -170.0C-594.0 -168.0 -583.0 -158.0 -579.0 -145.0C-497.0 -99.0 -440.0 -64.0 -403.0 -40.0L-404.0 -27.0C-508.0 -40.0 -615.0 -51.0 -660.0 -55.0ZM-244.0 -36.0 -249.0 -49.0C-186.0 -69.0 -95.0 -117.0 -52.0 -150.0C48.0 -156.0 28.0 19.0 -244.0 -36.0ZM-334.0 -535.0V-338.0H12.0V-310.0H-326.0L-463.0 -258.0V-574.0H-446.0C-393.0 -574.0 -334.0 -546.0 -334.0 -535.0ZM-72.0 -310.0H-62.0V-441.0C-62.0 -450.0 -63.0 -455.0 -76.0 -455.0C-90.0 -455.0 -127.0 -454.0 -127.0 -454.0V-465.0C-95.0 -472.0 -87.0 -485.0 -79.0 -498.0C-73.0 -512.0 -72.0 -537.0 -71.0 -569.0C55.0 -560.0 70.0 -524.0 70.0 -449.0V-357.0C89.0 -353.0 100.0 -345.0 106.0 -337.0L-15.0 -248.0ZM-252.0 -121.0V215.0H-394.0V-148.0H-368.0C-295.0 -148.0 -252.0 -125.0 -252.0 -121.0ZM-86.0 296.0 -150.0 214.0H-662.0L-655.0 187.0H3.0C16.0 187.0 27.0 192.0 29.0 203.0C-14.0 241.0 -86.0 296.0 -86.0 296.0ZM-682.0 -134.0 -690.0 -141.0C-657.0 -165.0 -621.0 -210.0 -609.0 -250.0C-504.0 -301.0 -442.0 -105.0 -682.0 -134.0Z"/></g>
<g fill="red" transform="translate(500 200) scale(0.1 -0.1)"><path d="M0.0 0.0 -25.0 52.0C-69.0 38.0 -176.0 16.0 -245.0 6.0L-242.0 -9.0C-167.0 -8.0 -65.0 2.0 -23.0 8.0C-15.0 -1.0 -6.0 -3.0 0.0 0.0ZM-655.0 -64.0 -628.0 -123.0C-620.0 -121.0 -612.0 -115.0 -607.0 -103.0C-504.0 -84.0 -427.0 -67.0 -373.0 -54.0L-375.0 -37.0C-489.0 -50.0 -604.0 -61.0 -655.0 -64.0ZM-237.0 -29.0 -241.0 -50.0C-162.0 -63.0 -51.0 -97.0 3.0 -118.0C52.0 -124.0 45.0 -44.0 -237.0 -29.0ZM-419.0 -667.0V-562.0H-181.0V-532.0H-414.0L-462.0 -508.0V-681.0H-455.0C-438.0 -681.0 -419.0 -671.0 -419.0 -667.0ZM-7.0 -398.0H3.0V-625.0C3.0 -638.0 -1.0 -643.0 -18.0 -643.0C-38.0 -643.0 -126.0 -636.0 -126.0 -636.0V-653.0C-89.0 -657.0 -65.0 -664.0 -52.0 -672.0C-39.0 -680.0 -35.0 -694.0 -32.0 -706.0C39.0 -698.0 47.0 -672.0 47.0 -630.0V-437.0C67.0 -434.0 85.0 -426.0 91.0 -419.0L19.0 -366.0ZM-287.0 -87.0V157.0H-331.0V-104.0H-325.0C-302.0 -104.0 -287.0 -91.0 -287.0 -87.0ZM-16.0 216.0 -54.0 172.0H-646.0L-638.0 142.0H30.0C43.0 142.0 53.0 147.0 54.0 158.0C27.0 184.0 -16.0 216.0 -16.0 216.0ZM-466.0 -160.0 -470.0 -179.0C-394.0 -195.0 -333.0 -219.0 -295.0 -243.0C-245.0 -271.0 -185.0 -187.0 -466.0 -160.0Z"/></g>
<g fill="black" opacity=".8" transform="translate(500 200) scale(0.1 -0.1)"><path d="M0.0 0.0 -25.0 51.0C-69.0 38.0 -176.0 16.0 -245.0 6.0L-242.0 -9.0C-167.0 -9.0 -65.0 2.0 -24.0 7.0C-14.0 -1.0 -7.0 -3.0 0.0 0.0ZM-654.0 -63.0 -628.0 -123.0C-620.0 -121.0 -612.0 -116.0 -606.0 -103.0C-504.0 -84.0 -427.0 -67.0 -374.0 -54.0V-37.0C-489.0 -50.0 -604.0 -61.0 -654.0 -63.0ZM-237.0 -29.0 -242.0 -49.0C-162.0 -63.0 -52.0 -97.0 3.0 -117.0C51.0 -124.0 45.0 -45.0 -237.0 -29.0ZM-418.0 -667.0V-561.0H-181.0V-532.0H-414.0L-462.0 -508.0V-681.0H-455.0C-438.0 -681.0 -418.0 -671.0 -418.0 -667.0ZM-7.0 -398.0H3.0V-625.0C3.0 -638.0 -0.0 -643.0 -18.0 -643.0C-39.0 -643.0 -125.0 -636.0 -125.0 -636.0V-653.0C-89.0 -657.0 -64.0 -664.0 -52.0 -671.0C-39.0 -679.0 -35.0 -694.0 -32.0 -706.0C39.0 -697.0 47.0 -672.0 47.0 -630.0V-437.0C67.0 -434.0 86.0 -426.0 90.0 -419.0L19.0 -367.0ZM-286.0 -87.0V157.0H-330.0V-104.0H-324.0C-302.0 -104.0 -286.0 -91.0 -286.0 -87.0ZM-17.0 216.0 -54.0 172.0H-646.0L-638.0 142.0H31.0C43.0 142.0 53.0 147.0 54.0 158.0C26.0 184.0 -17.0 216.0 -17.0 216.0ZM-466.0 -160.0 -470.0 -179.0C-393.0 -196.0 -334.0 -220.0 -295.0 -243.0C-245.0 -270.0 -185.0 -187.0 -466.0 -160.0Z"/></g>
<g fill="red" transform="translate(600 200) scale(0.1 -0.1)"><path d="M0.0 0.0 -65.0 85.0C-99.0 62.0 -178.0 19.0 -233.0 -4.0L-228.0 -16.0C-160.0 -15.0 -70.0 -4.0 -29.0 4.0C-17.0 -4.0 -6.0 -5.0 0.0 0.0ZM-666.0 -47.0 -618.0 -143.0C-608.0 -141.0 -599.0 -134.0 -594.0 -121.0C-507.0 -83.0 -445.0 -54.0 -404.0 -33.0L-406.0 -19.0C-511.0 -32.0 -618.0 -44.0 -666.0 -47.0ZM-228.0 -27.0 -233.0 -43.0C-160.0 -61.0 -55.0 -105.0 -3.0 -134.0C81.0 -134.0 55.0 14.0 -228.0 -27.0ZM-362.0 -663.0V-558.0H-197.0V-530.0H-358.0L-479.0 -483.0V-697.0H-463.0C-415.0 -697.0 -362.0 -672.0 -362.0 -663.0ZM-78.0 -379.0H-68.0V-570.0C-68.0 -580.0 -71.0 -586.0 -83.0 -586.0C-100.0 -586.0 -149.0 -583.0 -149.0 -583.0V-595.0C-113.0 -602.0 -102.0 -616.0 -93.0 -632.0C-84.0 -649.0 -82.0 -676.0 -81.0 -714.0C56.0 -703.0 74.0 -660.0 74.0 -582.0V-430.0C96.0 -426.0 108.0 -416.0 114.0 -408.0L-17.0 -311.0ZM-243.0 -69.0V175.0H-385.0V-90.0H-359.0C-286.0 -90.0 -244.0 -72.0 -243.0 -69.0ZM-59.0 248.0 -117.0 175.0H-666.0L-658.0 147.0H19.0C33.0 147.0 43.0 152.0 46.0 163.0C6.0 198.0 -59.0 248.0 -59.0 248.0ZM-469.0 -152.0 -472.0 -167.0C-414.0 -180.0 -368.0 -204.0 -342.0 -224.0C-265.0 -280.0 -101.0 -140.0 -469.0 -152.0Z"/></g>
<g fill="black" opacity=".8" transform="translate(600 200) scale(0.1 -0.1)"><path d="M0.0 0.0 -64.0 85.0C-99.0 61.0 -178.0 18.0 -233.0 -3.0L-229.0 -16.0C-159.0 -15.0 -70.0 -4.0 -29.0 4.0C-16.0 -3.0 -6.0 -5.0 0.0 0.0ZM-666.0 -47.0 -617.0 -144.0C-608.0 -141.0 -599.0 -134.0 -594.0 -120.0C-507.0 -82.0 -445.0 -54.0 -403.0 -33.0L-406.0 -19.0C-511.0 -32.0 -619.0 -44.0 -666.0 -47.0ZM-228.0 -28.0 -233.0 -43.0C-160.0 -61.0 -54.0 -105.0 -3.0 -133.0C81.0 -134.0 56.0 14.0 -228.0 -28.0ZM-362.0 -663.0V-558.0H-197.0V-530.0H-357.0L-478.0 -483.0V-697.0H-462.0C-415.0 -697.0 -362.0 -672.0 -362.0 -663.0ZM-78.0 -379.0H-68.0V-570.0C-68.0 -581.0 -71.0 -586.0 -83.0 -586.0C-100.0 -586.0 -149.0 -582.0 -149.0 -582.0V-594.0C-113.0 -602.0 -103.0 -616.0 -93.0 -632.0C-84.0 -648.0 -82.0 -676.0 -81.0 -714.0C57.0 -703.0 75.0 -660.0 75.0 -582.0V-429.0C97.0 -425.0 108.0 -416.0 114.0 -408.0L-17.0 -310.0ZM-243.0 -69.0V174.0H-385.0V-90.0H-359.0C-286.0 -90.0 -244.0 -71.0 -243.0 -69.0ZM-59.0 248.0 -117.0 174.0H-666.0L-658.0 147.0H20.0C34.0 147.0 42.0 152.0 45.0 163.0C6.0 198.0 -59.0 248.0 -59.0 248.0ZM-468.0 -152.0 -472.0 -167.0C-414.0 -180.0 -368.0 -204.0 -342.0 -224.0C-265.0 -280.0 -101.0 -141.0 -468.0 -152.0Z"/></g>
<g fill="red" transform="translate(700 200) scale(0.1 -0.1)"><path d="M0.0 0.0 -27.0 52.0C-72.0 34.0 -181.0 3.0 -251.0 -12.0L-248.0 -27.0C-170.0 -20.0 -66.0 -2.0 -23.0 7.0C-14.0 -1.0 -6.0 -3.0 0.0 0.0ZM-659.0 -72.0 -634.0 -130.0C-626.0 -128.0 -617.0 -122.0 -612.0 -110.0C-511.0 -94.0 -434.0 -79.0 -379.0 -69.0L-381.0 -51.0C-494.0 -61.0 -608.0 -70.0 -659.0 -72.0ZM-246.0 -50.0 -250.0 -71.0C-172.0 -84.0 -62.0 -118.0 -9.0 -139.0C40.0 -146.0 34.0 -65.0 -246.0 -50.0ZM-648.0 -499.0V-390.0H-332.0V-360.0H-643.0L-690.0 -336.0V-513.0H-683.0C-666.0 -513.0 -648.0 -503.0 -648.0 -499.0ZM7.0 -181.0H17.0V-609.0C17.0 -623.0 12.0 -629.0 -7.0 -629.0C-29.0 -629.0 -132.0 -621.0 -132.0 -621.0V-638.0C-88.0 -642.0 -62.0 -650.0 -47.0 -658.0C-34.0 -665.0 -28.0 -679.0 -25.0 -692.0C52.0 -683.0 61.0 -656.0 61.0 -614.0V-220.0C81.0 -217.0 99.0 -209.0 105.0 -202.0L33.0 -148.0ZM-486.0 -681.0V-274.0H-530.0V-697.0H-524.0C-501.0 -697.0 -486.0 -685.0 -486.0 -681.0ZM-28.0 215.0 -66.0 171.0H-644.0L-636.0 141.0H18.0C31.0 141.0 41.0 146.0 43.0 157.0C15.0 183.0 -28.0 215.0 -28.0 215.0ZM-626.0 38.0 -630.0 17.0C-559.0 10.0 -466.0 -14.0 -418.0 -36.0C-370.0 -41.0 -384.0 41.0 -626.0 38.0Z"/></g>
<g fill="black" opacity=".8" transform="translate(700 200) scale(0.1 -0.1)"><path d="M0.0 0.0 -26.0 51.0C-72.0 34.0 -181.0 3.0 -251.0 -13.0L-248.0 -27.0C-170.0 -21.0 -66.0 -2.0 -23.0 7.0C-13.0 -1.0 -7.0 -3.0 0.0 0.0ZM-658.0 -71.0 -634.0 -130.0C-626.0 -128.0 -617.0 -123.0 -612.0 -110.0C-512.0 -94.0 -434.0 -79.0 -380.0 -70.0L-381.0 -52.0C-494.0 -61.0 -608.0 -71.0 -658.0 -71.0ZM-246.0 -50.0 -251.0 -71.0C-172.0 -84.0 -63.0 -119.0 -9.0 -138.0C39.0 -146.0 34.0 -65.0 -246.0 -50.0ZM-647.0 -499.0V-390.0H-332.0V-360.0H-643.0L-690.0 -336.0V-513.0H-683.0C-666.0 -513.0 -647.0 -503.0 -647.0 -499.0ZM7.0 -181.0H16.0V-609.0C16.0 -623.0 12.0 -629.0 -7.0 -629.0C-30.0 -629.0 -132.0 -621.0 -132.0 -621.0V-638.0C-88.0 -642.0 -62.0 -650.0 -47.0 -657.0C-35.0 -664.0 -28.0 -679.0 -25.0 -692.0C52.0 -683.0 61.0 -656.0 61.0 -613.0V-220.0C81.0 -217.0 100.0 -209.0 105.0 -202.0L33.0 -148.0ZM-485.0 -681.0V-274.0H-529.0V-697.0H-523.0C-501.0 -697.0 -485.0 -685.0 -485.0 -681.0ZM-28.0 215.0 -65.0 170.0H-644.0L-635.0 141.0H18.0C31.0 141.0 41.0 146.0 42.0 157.0C15.0 183.0 -28.0 215.0 -28.0 215.0ZM-626.0 38.0 -630.0 17.0C-559.0 10.0 -466.0 -15.0 -418.0 -37.0C-370.0 -41.0 -384.0 41.0 -626.0 38.0Z"/></g>
<g fill="red" transform="translate(800 200) scale(0.1 -0.1)"><path d="M0.0 0.0 -75.0 98.0C-108.0 75.0 -188.0 32.0 -242.0 9.0L-239.0 -2.0C-167.0 -6.0 -73.0 -2.0 -30.0 4.0C-17.0 -5.0 -6.0 -6.0 0.0 0.0ZM-661.0 -29.0 -614.0 -136.0C-603.0 -134.0 -594.0 -127.0 -588.0 -114.0C-509.0 -77.0 -453.0 -48.0 -417.0 -28.0L-418.0 -15.0C-516.0 -22.0 -616.0 -28.0 -661.0 -29.0ZM-239.0 -19.0 -245.0 -33.0C-184.0 -51.0 -98.0 -93.0 -55.0 -123.0C31.0 -127.0 13.0 25.0 -239.0 -19.0ZM-647.0 -498.0V-384.0H-387.0V-356.0H-642.0L-758.0 -311.0V-531.0H-743.0C-698.0 -531.0 -647.0 -507.0 -647.0 -498.0ZM-60.0 -166.0H-50.0V-549.0C-50.0 -560.0 -53.0 -566.0 -67.0 -566.0C-87.0 -566.0 -152.0 -562.0 -152.0 -562.0V-575.0C-112.0 -582.0 -98.0 -596.0 -86.0 -613.0C-75.0 -630.0 -72.0 -658.0 -70.0 -696.0C62.0 -685.0 80.0 -641.0 80.0 -560.0V-215.0C101.0 -212.0 114.0 -202.0 121.0 -194.0L-2.0 -101.0ZM-475.0 -679.0V-272.0H-601.0V-706.0H-578.0C-513.0 -706.0 -475.0 -685.0 -475.0 -679.0ZM-78.0 261.0 -136.0 188.0H-671.0L-663.0 160.0H0.0C14.0 160.0 24.0 165.0 27.0 176.0C-13.0 211.0 -78.0 261.0 -78.0 261.0ZM-637.0 59.0 -643.0 44.0C-588.0 30.0 -512.0 -1.0 -472.0 -21.0C-396.0 -22.0 -413.0 114.0 -637.0 59.0Z"/></g>
<g fill="black" opacity=".8" transform="translate(800 200) scale(0.1 -0.1)"><path d="M0.0 0.0 -75.0 98.0C-108.0 74.0 -189.0 32.0 -241.0 10.0L-239.0 -1.0C-166.0 -6.0 -73.0 -3.0 -30.0 4.0C-17.0 -5.0 -6.0 -5.0 0.0 0.0ZM-660.0 -29.0 -613.0 -137.0C-603.0 -134.0 -594.0 -127.0 -588.0 -113.0C-509.0 -77.0 -453.0 -48.0 -416.0 -28.0L-418.0 -15.0C-516.0 -23.0 -616.0 -28.0 -660.0 -29.0ZM-239.0 -19.0 -244.0 -33.0C-184.0 -51.0 -98.0 -92.0 -55.0 -123.0C31.0 -127.0 14.0 25.0 -239.0 -19.0ZM-647.0 -498.0V-384.0H-387.0V-356.0H-641.0L-757.0 -311.0V-532.0H-742.0C-698.0 -532.0 -647.0 -507.0 -647.0 -498.0ZM-60.0 -167.0H-50.0V-549.0C-50.0 -561.0 -53.0 -565.0 -67.0 -565.0C-87.0 -565.0 -152.0 -561.0 -152.0 -561.0V-574.0C-112.0 -582.0 -99.0 -596.0 -86.0 -612.0C-74.0 -630.0 -72.0 -658.0 -70.0 -696.0C63.0 -685.0 81.0 -641.0 81.0 -560.0V-215.0C102.0 -212.0 114.0 -202.0 121.0 -194.0L-1.0 -100.0ZM-475.0 -679.0V-272.0H-601.0V-706.0H-578.0C-512.0 -706.0 -475.0 -685.0 -475.0 -679.0ZM-78.0 261.0 -135.0 187.0H-671.0L-663.0 160.0H1.0C15.0 160.0 24.0 165.0 27.0 175.0C-13.0 212.0 -78.0 261.0 -78.0 261.0ZM-637.0 59.0 -643.0 45.0C-588.0 30.0 -512.0 -1.0 -472.0 -21.0C-396.0 -22.0 -413.0 114.0 -637.0 59.0Z"/></g>
</svg>
