<?xml version="1.0" encoding="UTF-8"?>
<svg width="1700" height="300" xmlns="http://www.w3.org/2000/svg">
<rect width="100%" height="100%" fill="white"/>
<g fill="green" transform="translate(100 100) scale(0.1 -0.1)"><path d="M0.0 0.0 9.0 -30.0H883.0C898.0 -30.0 907.0 -25.0 910.0 -14.0C879.0 14.0 829.0 53.0 829.0 53.0L786.0 0.0ZM94.0 -191.0V-828.0H100.0C122.0 -828.0 137.0 -815.0 137.0 -811.0V-220.0H768.0V-828.0H775.0C792.0 -828.0 812.0 -815.0 812.0 -810.0V-225.0C834.0 -222.0 845.0 -216.0 852.0 -208.0L789.0 -159.0L764.0 -191.0H149.0L94.0 -165.0ZM286.0 -336.0V-627.0H292.0C315.0 -627.0 329.0 -614.0 329.0 -610.0V-366.0H565.0V-615.0H572.0C589.0 -615.0 609.0 -602.0 609.0 -598.0V-369.0C628.0 -365.0 638.0 -360.0 645.0 -353.0L585.0 -308.0L562.0 -336.0H341.0L286.0 -311.0ZM116.0 -732.0V-762.0H795.0V-732.0ZM318.0 -541.0V-571.0H583.0V-541.0ZM423.0 0.0C412.0 -60.0 390.0 -160.0 378.0 -210.0H403.0C427.0 -158.0 464.0 -66.0 488.0 0.0Z"/></g>
<g fill="green" transform="translate(200 100) scale(0.1 -0.1)"><path d="M0.0 0.0 8.0 -28.0H885.0C900.0 -28.0 911.0 -23.0 914.0 -12.0C859.0 33.0 769.0 99.0 769.0 99.0L689.0 0.0ZM70.0 -192.0V-844.0H96.0C169.0 -844.0 213.0 -818.0 213.0 -808.0V-220.0H694.0V-826.0H720.0C796.0 -826.0 844.0 -797.0 844.0 -789.0V-233.0C868.0 -228.0 879.0 -220.0 887.0 -210.0L760.0 -110.0L688.0 -192.0H225.0L70.0 -135.0ZM285.0 -343.0V-630.0H305.0C363.0 -630.0 398.0 -612.0 398.0 -604.0V-371.0H505.0V-619.0H526.0C586.0 -619.0 623.0 -600.0 623.0 -595.0V-379.0C644.0 -375.0 654.0 -369.0 660.0 -360.0L555.0 -282.0L501.0 -343.0H408.0L285.0 -296.0ZM148.0 -745.0V-773.0H757.0V-745.0ZM345.0 -540.0V-568.0H558.0V-540.0ZM349.0 0.0C347.0 -64.0 342.0 -156.0 339.0 -209.0H353.0C420.0 -160.0 510.0 -70.0 571.0 0.0Z"/></g>
<g fill="green" transform="translate(300 100) scale(0.1 -0.1)"><path d="M0.0 0.0 9.0 -30.0H883.0C898.0 -30.0 907.0 -25.0 910.0 -14.0C879.0 14.0 829.0 53.0 829.0 53.0L786.0 0.0ZM94.0 -191.0V-828.0H100.0C122.0 -828.0 137.0 -815.0 137.0 -811.0V-220.0H768.0V-828.0H775.0C792.0 -828.0 812.0 -815.0 812.0 -810.0V-225.0C834.0 -222.0 845.0 -216.0 852.0 -208.0L789.0 -159.0L764.0 -191.0H149.0L94.0 -165.0ZM286.0 -336.0V-627.0H292.0C315.0 -627.0 329.0 -614.0 329.0 -610.0V-366.0H565.0V-615.0H572.0C589.0 -615.0 609.0 -602.0 609.0 -598.0V-369.0C628.0 -365.0 638.0 -360.0 645.0 -353.0L585.0 -308.0L562.0 -336.0H341.0L286.0 -311.0ZM116.0 -732.0V-762.0H795.0V-732.0ZM318.0 -541.0V-571.0H583.0V-541.0ZM423.0 0.0C412.0 -60.0 390.0 -160.0 378.0 -210.0H403.0C427.0 -158.0 464.0 -66.0 488.0 0.0Z"/></g>
<g fill="green" transform="translate(400 100) scale(0.1 -0.1)"><path d="M0.0 0.0 8.0 -28.0H885.0C900.0 -28.0 911.0 -23.0 914.0 -12.0C859.0 33.0 769.0 99.0 769.0 99.0L689.0 0.0ZM70.0 -192.0V-844.0H96.0C169.0 -844.0 213.0 -818.0 213.0 -808.0V-220.0H694.0V-826.0H720.0C796.0 -826.0 844.0 -797.0 844.0 -789.0V-233.0C868.0 -228.0 879.0 -220.0 887.0 -210.0L760.0 -110.0L688.0 -192.0H225.0L70.0 -135.0ZM285.0 -343.0V-630.0H305.0C363.0 -630.0 398.0 -612.0 398.0 -604.0V-371.0H505.0V-619.0H526.0C586.0 -619.0 623.0 -600.0 623.0 -595.0V-379.0C644.0 -375.0 654.0 -369.0 660.0 -360.0L555.0 -282.0L501.0 -343.0H408.0L285.0 -296.0ZM148.0 -745.0V-773.0H757.0V-745.0ZM345.0 -540.0V-568.0H558.0V-540.0ZM349.0 0.0C347.0 -64.0 342.0 -156.0 339.0 -209.0H353.0C420.0 -160.0 510.0 -70.0 571.0 0.0Z"/></g>
<g fill="red" transform="translate(100 200) scale(0.1 -0.1)"><path d="M0.0 0.0 9.0 -30.0H883.0C898.0 -30.0 907.0 -25.0 910.0 -14.0C879.0 14.0 829.0 53.0 829.0 53.0L786.0 0.0ZM94.0 -191.0V-828.0H100.0C122.0 -828.0 137.0 -815.0 137.0 -811.0V-220.0H768.0V-828.0H775.0C792.0 -828.0 812.0 -815.0 812.0 -810.0V-225.0C834.0 -222.0 845.0 -216.0 852.0 -208.0L789.0 -159.0L764.0 -191.0H149.0L94.0 -165.0ZM286.0 -336.0V-627.0H292.0C315.0 -627.0 329.0 -614.0 329.0 -610.0V-366.0H565.0V-615.0H572.0C589.0 -615.0 609.0 -602.0 609.0 -598.0V-369.0C628.0 -365.0 638.0 -360.0 645.0 -353.0L585.0 -308.0L562.0 -336.0H341.0L286.0 -311.0ZM116.0 -732.0V-762.0H795.0V-732.0ZM318.0 -541.0V-571.0H583.0V-541.0ZM423.0 0.0C412.0 -60.0 390.0 -160.0 378.0 -210.0H403.0C427.0 -158.0 464.0 -66.0 488.0 0.0Z"/></g>
<g fill="black" opacity=".8" transform="translate(100 200) scale(0.1 -0.1)"><path d="M0.0 0.0 9.0 -30.0H883.0C898.0 -30.0 907.0 -25.0 910.0 -14.0C879.0 14.0 829.0 53.0 829.0 53.0L786.0 0.0ZM94.0 -191.0V-828.0H100.0C122.0 -828.0 137.0 -815.0 137.0 -811.0V-220.0H768.0V-828.0H775.0C792.0 -828.0 812.0 -815.0 812.0 -810.0V-225.0C834.0 -222.0 845.0 -216.0 852.0 -208.0L789.0 -159.0L764.0 -191.0H149.0L94.0 -165.0ZM286.0 -336.0V-627.0H292.0C315.0 -627.0 329.0 -614.0 329.0 -610.0V-366.0H565.0V-615.0H572.0C589.0 -615.0 609.0 -602.0 609.0 -598.0V-369.0C628.0 -365.0 638.0 -360.0 645.0 -353.0L585.0 -308.0L562.0 -336.0H341.0L286.0 -311.0ZM116.0 -732.0V-762.0H795.0V-732.0ZM318.0 -541.0V-571.0H583.0V-541.0ZM423.0 0.0C412.0 -60.0 390.0 -160.0 378.0 -210.0H403.0C427.0 -158.0 464.0 -66.0 488.0 0.0Z"/></g>
<g fill="red" transform="translate(200 200) scale(0.1 -0.1)"><path d="M0.0 0.0 8.0 -28.0H885.0C900.0 -28.0 911.0 -23.0 914.0 -12.0C859.0 33.0 769.0 99.0 769.0 99.0L689.0 0.0ZM70.0 -192.0V-844.0H96.0C169.0 -844.0 213.0 -818.0 213.0 -808.0V-220.0H694.0V-826.0H720.0C796.0 -826.0 844.0 -797.0 844.0 -789.0V-233.0C868.0 -228.0 879.0 -220.0 887.0 -210.0L760.0 -110.0L688.0 -192.0H225.0L70.0 -135.0ZM285.0 -343.0V-630.0H305.0C363.0 -630.0 398.0 -612.0 398.0 -604.0V-371.0H505.0V-619.0H526.0C586.0 -619.0 623.0 -600.0 623.0 -595.0V-379.0C644.0 -375.0 654.0 -369.0 660.0 -360.0L555.0 -282.0L501.0 -343.0H408.0L285.0 -296.0ZM148.0 -745.0V-773.0H757.0V-745.0ZM345.0 -540.0V-568.0H558.0V-540.0ZM349.0 0.0C347.0 -64.0 342.0 -156.0 339.0 -209.0H353.0C420.0 -160.0 510.0 -70.0 571.0 0.0Z"/></g>
<g fill="black" opacity=".8" transform="translate(200 200) scale(0.1 -0.1)"><path d="M0.0 0.0 8.0 -28.0H885.0C900.0 -28.0 911.0 -23.0 914.0 -12.0C859.0 33.0 769.0 99.0 769.0 99.0L689.0 0.0ZM70.0 -192.0V-844.0H96.0C169.0 -844.0 213.0 -818.0 213.0 -808.0V-220.0H694.0V-826.0H720.0C796.0 -826.0 844.0 -797.0 844.0 -789.0V-233.0C868.0 -228.0 879.0 -220.0 887.0 -210.0L760.0 -110.0L688.0 -192.0H225.0L70.0 -135.0ZM285.0 -343.0V-630.0H305.0C363.0 -630.0 398.0 -612.0 398.0 -604.0V-371.0H505.0V-619.0H526.0C586.0 -619.0 623.0 -600.0 623.0 -595.0V-379.0C644.0 -375.0 654.0 -369.0 660.0 -360.0L555.0 -282.0L501.0 -343.0H408.0L285.0 -296.0ZM148.0 -745.0V-773.0H757.0V-745.0ZM345.0 -540.0V-568.0H558.0V-540.0ZM349.0 0.0C347.0 -64.0 342.0 -156.0 339.0 -209.0H353.0C420.0 -160.0 510.0 -70.0 571.0 0.0Z"/></g>
</svg>
