<?xml version="1.0" encoding="UTF-8"?>
<svg width="1700" height="400" xmlns="http://www.w3.org/2000/svg">
<rect width="100%" height="100%" fill="white"/>
<g fill="green" transform="translate(100 100) scale(0.1 -0.1)"><path d="M0.0 -0.0H-641.0L-644.0 -54.0H0.0ZM-314.0 22.0V-315.0C-314.0 -494.0 -321.0 -662.0 -441.0 -795.0L-416.0 -820.0C-245.0 -688.0 -234.0 -489.0 -234.0 -313.0V4.0H-215.0L-314.0 55.0ZM274.0 4.0H292.0V-673.0C292.0 -699.0 285.0 -709.0 255.0 -709.0C222.0 -709.0 72.0 -696.0 72.0 -696.0V-727.0C138.0 -734.0 178.0 -745.0 201.0 -755.0C220.0 -769.0 229.0 -792.0 233.0 -814.0C357.0 -801.0 372.0 -754.0 372.0 -682.0V-67.0C409.0 -62.0 442.0 -47.0 452.0 -34.0L321.0 64.0ZM373.0 375.0 299.0 285.0H-454.0L-440.0 231.0H464.0C489.0 231.0 505.0 240.0 510.0 259.0C457.0 310.0 373.0 375.0 373.0 375.0ZM836.0 330.0 759.0 238.0H-113.0L-98.0 183.0H929.0C955.0 183.0 971.0 192.0 976.0 212.0C922.0 264.0 836.0 330.0 836.0 330.0ZM401.0 668.0 326.0 575.0H-471.0L-456.0 521.0H495.0C519.0 521.0 538.0 530.0 542.0 550.0C488.0 601.0 401.0 668.0 401.0 668.0ZM122.0 735.0 -24.0 753.0V151.0H55.0V687.0C98.0 694.0 118.0 710.0 122.0 735.0ZM364.0 -400.0H-278.0V-454.0H364.0ZM219.0 -174.0H-388.0L-390.0 -228.0H219.0Z"/></g>
<g fill="green" transform="translate(200 100) scale(0.1 -0.1)"><path d="M0.0 0.0H-580.0L-583.0 -51.0H0.0ZM-347.0 32.0V-251.0C-347.0 -433.0 -352.0 -645.0 -468.0 -807.0L-457.0 -822.0C-139.0 -677.0 -107.0 -429.0 -107.0 -251.0V14.0H-71.0L-347.0 108.0ZM194.0 14.0H212.0V-558.0C212.0 -580.0 205.0 -592.0 179.0 -592.0C137.0 -592.0 -15.0 -582.0 -15.0 -582.0V-604.0C69.0 -619.0 100.0 -644.0 126.0 -671.0C152.0 -703.0 159.0 -751.0 163.0 -817.0C416.0 -796.0 452.0 -718.0 452.0 -578.0V-78.0C491.0 -70.0 514.0 -53.0 527.0 -39.0L300.0 134.0ZM382.0 429.0 273.0 292.0H-446.0L-432.0 241.0H529.0C554.0 241.0 574.0 250.0 579.0 270.0C504.0 336.0 382.0 429.0 382.0 429.0ZM853.0 372.0 733.0 227.0H-100.0L-86.0 176.0H1025.0C1051.0 176.0 1072.0 185.0 1076.0 205.0C992.0 276.0 853.0 372.0 853.0 372.0ZM418.0 731.0 308.0 592.0H-474.0L-460.0 541.0H568.0C593.0 541.0 613.0 550.0 618.0 570.0C542.0 636.0 418.0 731.0 418.0 731.0ZM208.0 781.0 -98.0 806.0V158.0H147.0V733.0C193.0 741.0 205.0 758.0 208.0 781.0ZM397.0 -351.0H-252.0V-401.0H397.0ZM251.0 -142.0H-358.0L-360.0 -193.0H251.0Z"/></g>
<g fill="green" transform="translate(300 100) scale(0.1 -0.1)"><path d="M0.0 -0.0H-275.0L-279.0 -25.0H0.0ZM110.0 31.0V-129.0C110.0 -206.0 112.0 -279.0 74.0 -337.0L86.0 -348.0C146.0 -291.0 148.0 -205.0 148.0 -128.0V22.0H157.0L110.0 46.0ZM363.0 22.0H371.0V-288.0C371.0 -300.0 369.0 -305.0 355.0 -305.0C339.0 -305.0 273.0 -299.0 273.0 -299.0V-314.0C303.0 -317.0 321.0 -321.0 332.0 -324.0C339.0 -330.0 344.0 -341.0 345.0 -350.0C401.0 -344.0 409.0 -323.0 409.0 -291.0V-11.0C427.0 -10.0 443.0 -2.0 446.0 4.0L385.0 50.0ZM419.0 168.0 381.0 121.0H11.0L18.0 96.0H467.0C479.0 96.0 486.0 100.0 489.0 108.0C462.0 134.0 419.0 168.0 419.0 168.0ZM715.0 225.0 675.0 179.0H296.0L303.0 153.0H764.0C777.0 153.0 784.0 157.0 786.0 166.0C759.0 192.0 715.0 225.0 715.0 225.0ZM435.0 320.0 397.0 273.0H17.0L24.0 248.0H483.0C494.0 248.0 504.0 252.0 506.0 261.0C478.0 286.0 435.0 320.0 435.0 320.0ZM303.0 336.0 233.0 345.0V87.0H269.0V313.0C290.0 317.0 301.0 325.0 303.0 336.0ZM476.0 -159.0H170.0V-184.0H476.0ZM204.0 -33.0H-41.0L-44.0 -58.0H204.0Z"/></g>
<g fill="green" transform="translate(400 100) scale(0.1 -0.1)"><path d="M0.0 0.0H-268.0L-273.0 -24.0H0.0ZM76.0 45.0V-62.0C76.0 -143.0 75.0 -244.0 26.0 -323.0L30.0 -330.0C173.0 -261.0 188.0 -140.0 188.0 -63.0V36.0H205.0L76.0 80.0ZM317.0 36.0H326.0V-220.0C326.0 -231.0 322.0 -237.0 310.0 -237.0C287.0 -237.0 213.0 -232.0 213.0 -232.0V-241.0C254.0 -249.0 269.0 -260.0 282.0 -271.0C295.0 -285.0 299.0 -305.0 301.0 -334.0C420.0 -324.0 437.0 -289.0 437.0 -228.0V-8.0C456.0 -4.0 467.0 5.0 474.0 11.0L368.0 93.0ZM424.0 189.0 373.0 128.0H8.0L14.0 104.0H491.0C502.0 104.0 512.0 108.0 514.0 118.0C479.0 148.0 424.0 189.0 424.0 189.0ZM729.0 233.0 669.0 169.0H284.0L290.0 145.0H819.0C831.0 145.0 842.0 149.0 843.0 159.0C799.0 192.0 729.0 233.0 729.0 233.0ZM439.0 344.0 391.0 285.0H3.0L9.0 262.0H505.0C516.0 262.0 526.0 266.0 528.0 275.0C494.0 304.0 439.0 344.0 439.0 344.0ZM325.0 371.0 184.0 382.0V100.0H296.0V348.0C318.0 352.0 323.0 360.0 325.0 371.0ZM495.0 -117.0H151.0V-140.0H495.0ZM222.0 -6.0H-61.0L-64.0 -30.0H222.0Z"/></g>
<g fill="green" transform="translate(500 100) scale(0.1 -0.1)"><path d="M0.0 0.0H-327.0L-323.0 -25.0H0.0ZM-792.0 -22.0V-216.0C-792.0 -312.0 -793.0 -404.0 -842.0 -476.0L-829.0 -486.0C-758.0 -415.0 -755.0 -307.0 -755.0 -215.0V-30.0H-746.0L-792.0 -6.0ZM-521.0 -30.0H-513.0V-411.0C-513.0 -422.0 -516.0 -427.0 -529.0 -427.0C-543.0 -427.0 -606.0 -420.0 -606.0 -420.0V-436.0C-577.0 -438.0 -560.0 -443.0 -550.0 -446.0C-542.0 -454.0 -539.0 -467.0 -537.0 -477.0C-483.0 -470.0 -477.0 -446.0 -477.0 -414.0V-62.0C-460.0 -61.0 -444.0 -53.0 -441.0 -48.0L-500.0 -3.0ZM-439.0 43.0 -480.0 -9.0H-919.0L-913.0 -34.0H-388.0C-376.0 -34.0 -368.0 -30.0 -366.0 -21.0C-394.0 6.0 -439.0 43.0 -439.0 43.0ZM262.0 42.0 224.0 -1.0H-251.0L-244.0 -27.0H306.0C319.0 -27.0 326.0 -23.0 328.0 -14.0C302.0 11.0 262.0 42.0 262.0 42.0ZM-475.0 310.0 -513.0 263.0H-869.0L-862.0 238.0H-425.0C-414.0 238.0 -406.0 242.0 -404.0 251.0C-431.0 276.0 -475.0 310.0 -475.0 310.0ZM-579.0 343.0 -652.0 352.0V47.0H-616.0V318.0C-593.0 323.0 -581.0 330.0 -579.0 343.0ZM-434.0 -252.0H-747.0V-276.0H-434.0ZM-217.0 -174.0H-583.0L-577.0 -198.0H-217.0Z"/></g>
<g fill="green" transform="translate(600 100) scale(0.1 -0.1)"><path d="M0.0 0.0H-320.0L-316.0 -24.0H0.0ZM-817.0 -38.0V-127.0C-817.0 -233.0 -822.0 -384.0 -884.0 -501.0L-879.0 -508.0C-713.0 -406.0 -698.0 -227.0 -698.0 -128.0V-47.0H-681.0L-817.0 -1.0ZM-572.0 -47.0H-564.0V-369.0C-564.0 -379.0 -567.0 -384.0 -580.0 -384.0C-604.0 -384.0 -681.0 -379.0 -681.0 -379.0V-388.0C-638.0 -396.0 -622.0 -409.0 -609.0 -421.0C-595.0 -437.0 -592.0 -459.0 -590.0 -490.0C-461.0 -480.0 -443.0 -443.0 -443.0 -376.0V-88.0C-426.0 -85.0 -417.0 -77.0 -412.0 -72.0L-520.0 11.0ZM-442.0 46.0 -495.0 -24.0H-920.0L-914.0 -48.0H-368.0C-356.0 -48.0 -347.0 -43.0 -344.0 -34.0C-381.0 -1.0 -442.0 46.0 -442.0 46.0ZM310.0 43.0 268.0 -23.0H-230.0L-223.0 -46.0H367.0C378.0 -46.0 388.0 -42.0 389.0 -33.0C362.0 -1.0 310.0 43.0 310.0 43.0ZM-437.0 326.0 -486.0 260.0H-902.0L-896.0 237.0H-370.0C-358.0 237.0 -350.0 241.0 -346.0 250.0C-381.0 281.0 -437.0 326.0 -437.0 326.0ZM-545.0 362.0 -695.0 374.0V31.0H-574.0V339.0C-552.0 343.0 -546.0 351.0 -545.0 362.0ZM-427.0 -233.0H-744.0V-256.0H-427.0ZM-202.0 -176.0H-599.0L-594.0 -200.0H-202.0Z"/></g>
<g fill="green" transform="translate(700 100) scale(0.1 -0.1)"><path d="M0.0 -0.0H-691.0L-698.0 -50.0H0.0ZM-376.0 80.0V-238.0C-376.0 -416.0 -392.0 -580.0 -539.0 -710.0L-517.0 -734.0C-319.0 -605.0 -301.0 -410.0 -301.0 -236.0V63.0H-284.0L-376.0 111.0ZM327.0 63.0H344.0V-584.0C344.0 -609.0 337.0 -619.0 306.0 -619.0C272.0 -619.0 111.0 -605.0 111.0 -605.0V-635.0C180.0 -641.0 222.0 -653.0 246.0 -663.0C266.0 -677.0 276.0 -699.0 281.0 -721.0C405.0 -709.0 420.0 -662.0 420.0 -593.0V-3.0C455.0 1.0 485.0 15.0 495.0 28.0L371.0 120.0ZM416.0 511.0 346.0 428.0H-494.0L-481.0 378.0H502.0C525.0 378.0 540.0 386.0 545.0 404.0C494.0 451.0 416.0 511.0 416.0 511.0ZM546.0 432.0 470.0 342.0H-557.0L-542.0 291.0H638.0C663.0 291.0 678.0 299.0 683.0 318.0C630.0 368.0 546.0 432.0 546.0 432.0ZM484.0 706.0 412.0 617.0H-561.0L-546.0 566.0H575.0C598.0 566.0 616.0 575.0 619.0 593.0C568.0 642.0 484.0 706.0 484.0 706.0ZM101.0 774.0 -33.0 790.0V205.0H41.0V730.0C80.0 736.0 98.0 750.0 101.0 774.0ZM332.0 -335.0H-402.0V-386.0H332.0ZM74.0 -88.0H-592.0L-598.0 -138.0H74.0Z"/></g>
<g fill="green" transform="translate(800 100) scale(0.1 -0.1)"><path d="M0.0 0.0H-569.0L-576.0 -48.0H0.0ZM-378.0 100.0V-199.0C-378.0 -375.0 -388.0 -568.0 -522.0 -714.0L-512.0 -727.0C-173.0 -598.0 -138.0 -373.0 -138.0 -199.0V84.0H-103.0L-378.0 176.0ZM257.0 84.0H274.0V-456.0C274.0 -476.0 267.0 -489.0 242.0 -489.0C199.0 -489.0 32.0 -478.0 32.0 -478.0V-498.0C121.0 -513.0 153.0 -539.0 180.0 -568.0C208.0 -600.0 216.0 -650.0 221.0 -719.0C479.0 -698.0 517.0 -618.0 517.0 -477.0V-6.0C555.0 2.0 576.0 19.0 588.0 32.0L364.0 203.0ZM421.0 579.0 311.0 440.0H-451.0L-438.0 393.0H573.0C596.0 393.0 615.0 401.0 620.0 420.0C544.0 486.0 421.0 579.0 421.0 579.0ZM545.0 489.0 414.0 335.0H-538.0L-525.0 288.0H738.0C764.0 288.0 785.0 296.0 788.0 315.0C696.0 388.0 545.0 489.0 545.0 489.0ZM491.0 787.0 375.0 640.0H-524.0L-511.0 593.0H651.0C676.0 593.0 695.0 601.0 700.0 620.0C621.0 688.0 491.0 787.0 491.0 787.0ZM219.0 818.0 -79.0 842.0V215.0H161.0V772.0C205.0 780.0 216.0 796.0 219.0 818.0ZM374.0 -284.0H-335.0V-331.0H374.0ZM103.0 -47.0H-514.0L-520.0 -94.0H103.0Z"/></g>
<g fill="green" transform="translate(900 100) scale(0.1 -0.1)"><path d="M0.0 0.0H-739.0L-738.0 -57.0H0.0ZM-302.0 -59.0V-381.0C-302.0 -560.0 -310.0 -727.0 -437.0 -861.0L-411.0 -889.0C-231.0 -755.0 -218.0 -555.0 -218.0 -379.0V-78.0H-199.0L-302.0 -25.0ZM306.0 -78.0H325.0V-743.0C325.0 -769.0 317.0 -780.0 284.0 -780.0C250.0 -780.0 87.0 -766.0 87.0 -766.0V-798.0C158.0 -807.0 201.0 -818.0 226.0 -830.0C248.0 -844.0 256.0 -866.0 261.0 -890.0C393.0 -876.0 408.0 -827.0 408.0 -753.0V-152.0C446.0 -146.0 480.0 -131.0 491.0 -117.0L355.0 -16.0ZM401.0 349.0 330.0 264.0H-430.0L-416.0 207.0H486.0C513.0 207.0 530.0 217.0 535.0 236.0C482.0 287.0 401.0 349.0 401.0 349.0ZM680.0 174.0 607.0 84.0H-381.0L-365.0 27.0H769.0C795.0 27.0 812.0 36.0 817.0 57.0C765.0 109.0 680.0 174.0 680.0 174.0ZM445.0 587.0 370.0 496.0H-462.0L-447.0 439.0H536.0C560.0 439.0 579.0 449.0 584.0 469.0C530.0 521.0 445.0 587.0 445.0 587.0ZM147.0 649.0 -4.0 668.0V67.0H79.0V600.0C123.0 607.0 143.0 624.0 147.0 649.0ZM429.0 -481.0H-228.0V-538.0H429.0ZM469.0 -287.0H-201.0L-199.0 -343.0H469.0Z"/></g>
<g fill="green" transform="translate(1000 100) scale(0.1 -0.1)"><path d="M0.0 0.0H-686.0L-685.0 -53.0H0.0ZM-352.0 -61.0V-337.0C-352.0 -515.0 -357.0 -720.0 -473.0 -876.0L-461.0 -891.0C-140.0 -753.0 -107.0 -510.0 -107.0 -337.0V-80.0H-69.0L-352.0 17.0ZM208.0 -80.0H227.0V-641.0C227.0 -665.0 220.0 -677.0 192.0 -677.0C152.0 -677.0 -4.0 -667.0 -4.0 -667.0V-690.0C82.0 -706.0 114.0 -730.0 140.0 -756.0C167.0 -788.0 174.0 -836.0 177.0 -901.0C434.0 -880.0 471.0 -804.0 471.0 -662.0V-174.0C510.0 -166.0 534.0 -149.0 547.0 -134.0L315.0 42.0ZM400.0 402.0 288.0 264.0H-431.0L-416.0 210.0H550.0C576.0 210.0 597.0 220.0 602.0 241.0C524.0 308.0 400.0 402.0 400.0 402.0ZM671.0 225.0 558.0 80.0H-384.0L-369.0 27.0H825.0C852.0 27.0 873.0 37.0 878.0 57.0C801.0 127.0 671.0 225.0 671.0 225.0ZM445.0 643.0 330.0 501.0H-475.0L-460.0 447.0H602.0C627.0 447.0 649.0 457.0 653.0 478.0C574.0 546.0 445.0 643.0 445.0 643.0ZM226.0 693.0 -94.0 719.0V62.0H163.0V642.0C211.0 650.0 224.0 668.0 226.0 693.0ZM469.0 -452.0H-203.0V-504.0H469.0ZM514.0 -273.0H-181.0L-178.0 -326.0H514.0Z"/></g>
<g fill="green" transform="translate(1100 100) scale(0.1 -0.1)"><path d="M0.0 0.0H-572.0L-575.0 -56.0H0.0ZM-235.0 18.0V-334.0C-235.0 -519.0 -242.0 -691.0 -366.0 -828.0L-341.0 -854.0C-163.0 -718.0 -151.0 -515.0 -151.0 -332.0V0.0H-132.0L-235.0 53.0ZM289.0 0.0H308.0V-694.0C308.0 -721.0 301.0 -731.0 271.0 -731.0C238.0 -731.0 88.0 -718.0 88.0 -718.0V-750.0C153.0 -757.0 194.0 -769.0 217.0 -780.0C236.0 -795.0 245.0 -819.0 250.0 -842.0C377.0 -828.0 392.0 -780.0 392.0 -704.0V-75.0C430.0 -69.0 464.0 -54.0 475.0 -39.0L339.0 62.0ZM375.0 388.0 303.0 301.0H-329.0L-314.0 244.0H463.0C488.0 244.0 505.0 254.0 509.0 274.0C458.0 324.0 375.0 388.0 375.0 388.0ZM797.0 327.0 720.0 237.0H-5.0L10.0 179.0H885.0C913.0 179.0 929.0 189.0 935.0 210.0C881.0 262.0 797.0 327.0 797.0 327.0ZM391.0 688.0 317.0 596.0H-358.0L-342.0 540.0H482.0C507.0 540.0 526.0 549.0 531.0 570.0C477.0 621.0 391.0 688.0 391.0 688.0ZM176.0 774.0 25.0 792.0V153.0H108.0V725.0C152.0 731.0 171.0 747.0 176.0 774.0ZM-169.0 -370.0H-642.0V-427.0H-169.0ZM226.0 -189.0H-299.0L-301.0 -246.0H226.0Z"/></g>
<g fill="green" transform="translate(1200 100) scale(0.1 -0.1)"><path d="M0.0 0.0H-527.0L-529.0 -53.0H0.0ZM-266.0 28.0V-305.0C-266.0 -494.0 -268.0 -702.0 -375.0 -861.0L-363.0 -878.0C-57.0 -731.0 -26.0 -492.0 -26.0 -306.0V9.0H10.0L-266.0 104.0ZM205.0 9.0H224.0V-597.0C224.0 -619.0 217.0 -631.0 190.0 -631.0C152.0 -631.0 15.0 -622.0 15.0 -622.0V-646.0C93.0 -661.0 123.0 -685.0 146.0 -715.0C170.0 -748.0 177.0 -798.0 180.0 -867.0C427.0 -846.0 460.0 -764.0 460.0 -619.0V-85.0C501.0 -77.0 526.0 -59.0 540.0 -45.0L310.0 129.0ZM369.0 451.0 259.0 313.0H-344.0L-329.0 259.0H513.0C539.0 259.0 559.0 269.0 564.0 290.0C490.0 357.0 369.0 451.0 369.0 451.0ZM791.0 374.0 670.0 227.0H5.0L20.0 174.0H962.0C990.0 174.0 1011.0 183.0 1015.0 204.0C931.0 277.0 791.0 374.0 791.0 374.0ZM393.0 757.0 282.0 616.0H-366.0L-352.0 563.0H543.0C570.0 563.0 590.0 572.0 595.0 593.0C519.0 660.0 393.0 757.0 393.0 757.0ZM249.0 802.0 -62.0 828.0V166.0H187.0V753.0C233.0 761.0 245.0 778.0 249.0 802.0ZM-130.0 -383.0H-677.0V-435.0H-130.0ZM259.0 -151.0H-267.0L-269.0 -205.0H259.0Z"/></g>
<g fill="green" transform="translate(1300 100) scale(0.1 -0.1)"><path d="M0.0 -0.0H-575.0L-578.0 -57.0H0.0ZM-275.0 28.0V-316.0C-275.0 -506.0 -283.0 -688.0 -413.0 -834.0L-386.0 -860.0C-203.0 -716.0 -190.0 -500.0 -190.0 -313.0V9.0H-170.0L-275.0 63.0ZM262.0 9.0H281.0V-699.0C281.0 -727.0 273.0 -736.0 244.0 -736.0C213.0 -736.0 70.0 -723.0 70.0 -723.0V-756.0C132.0 -764.0 172.0 -774.0 193.0 -787.0C213.0 -802.0 221.0 -827.0 226.0 -851.0C351.0 -837.0 366.0 -788.0 366.0 -711.0V-66.0C405.0 -60.0 439.0 -45.0 450.0 -30.0L312.0 73.0ZM343.0 406.0 268.0 318.0H-370.0L-355.0 260.0H436.0C462.0 260.0 478.0 270.0 484.0 290.0C430.0 342.0 343.0 406.0 343.0 406.0ZM763.0 345.0 684.0 250.0H1.0L16.0 192.0H858.0C885.0 192.0 901.0 202.0 907.0 223.0C851.0 277.0 763.0 345.0 763.0 345.0ZM339.0 722.0 262.0 626.0H-382.0L-367.0 569.0H434.0C460.0 569.0 479.0 578.0 484.0 600.0C427.0 653.0 339.0 722.0 339.0 722.0ZM136.0 798.0 -15.0 816.0V169.0H69.0V749.0C112.0 756.0 131.0 772.0 136.0 798.0ZM472.0 -426.0H-135.0V-484.0H472.0ZM195.0 -179.0H-356.0L-358.0 -236.0H195.0Z"/></g>
<g fill="green" transform="translate(1400 100) scale(0.1 -0.1)"><path d="M0.0 0.0H-523.0L-526.0 -54.0H0.0ZM-325.0 38.0V-327.0C-325.0 -513.0 -324.0 -708.0 -419.0 -855.0L-406.0 -870.0C-111.0 -732.0 -81.0 -512.0 -81.0 -326.0V19.0H-44.0L-325.0 116.0ZM174.0 19.0H193.0V-582.0C193.0 -605.0 187.0 -617.0 161.0 -617.0C124.0 -617.0 -7.0 -609.0 -7.0 -609.0V-634.0C69.0 -647.0 98.0 -673.0 121.0 -703.0C143.0 -737.0 149.0 -790.0 152.0 -861.0C404.0 -839.0 438.0 -757.0 438.0 -606.0V-77.0C480.0 -68.0 504.0 -50.0 518.0 -35.0L282.0 143.0ZM334.0 474.0 223.0 330.0H-379.0L-364.0 276.0H483.0C510.0 276.0 531.0 286.0 536.0 307.0C460.0 375.0 334.0 474.0 334.0 474.0ZM753.0 407.0 627.0 251.0H29.0L44.0 197.0H933.0C960.0 197.0 982.0 207.0 986.0 228.0C899.0 303.0 753.0 407.0 753.0 407.0ZM339.0 794.0 224.0 645.0H-386.0L-371.0 591.0H497.0C523.0 591.0 544.0 600.0 549.0 621.0C469.0 693.0 339.0 794.0 339.0 794.0ZM214.0 841.0 -100.0 868.0V179.0H154.0V794.0C198.0 801.0 212.0 818.0 214.0 841.0ZM482.0 -358.0H-71.0V-411.0H482.0ZM211.0 -142.0H-293.0L-295.0 -196.0H211.0Z"/></g>
<g fill="green" transform="translate(1500 100) scale(0.1 -0.1)"><path d="M0.0 0.0H-640.0L-642.0 -54.0H0.0ZM-345.0 21.0V-316.0C-345.0 -494.0 -354.0 -658.0 -480.0 -787.0L-455.0 -812.0C-276.0 -684.0 -264.0 -489.0 -264.0 -314.0V3.0H-245.0L-345.0 55.0ZM255.0 3.0H273.0V-666.0C273.0 -693.0 266.0 -702.0 236.0 -702.0C202.0 -702.0 49.0 -690.0 49.0 -690.0V-721.0C116.0 -727.0 157.0 -739.0 180.0 -749.0C200.0 -763.0 209.0 -786.0 213.0 -808.0C338.0 -795.0 353.0 -749.0 353.0 -675.0V-68.0C391.0 -63.0 424.0 -48.0 434.0 -35.0L302.0 64.0ZM340.0 369.0 269.0 281.0H-455.0L-441.0 227.0H426.0C451.0 227.0 467.0 236.0 472.0 255.0C421.0 305.0 340.0 369.0 340.0 369.0ZM819.0 318.0 745.0 229.0H-124.0L-109.0 174.0H907.0C933.0 174.0 950.0 183.0 954.0 203.0C901.0 254.0 819.0 318.0 819.0 318.0ZM386.0 664.0 315.0 574.0H-486.0L-471.0 520.0H476.0C500.0 520.0 520.0 529.0 523.0 549.0C471.0 599.0 386.0 664.0 386.0 664.0ZM108.0 754.0 -39.0 772.0V151.0H40.0V706.0C83.0 713.0 104.0 729.0 108.0 754.0ZM357.0 -400.0H-286.0V-454.0H357.0ZM209.0 -175.0H-399.0L-401.0 -229.0H209.0Z"/></g>
<g fill="green" transform="translate(1600 100) scale(0.1 -0.1)"><path d="M0.0 0.0H-544.0L-547.0 -51.0H0.0ZM-322.0 31.0V-249.0C-322.0 -435.0 -330.0 -650.0 -463.0 -815.0L-452.0 -831.0C-120.0 -684.0 -86.0 -431.0 -86.0 -249.0V13.0H-50.0L-322.0 106.0ZM225.0 13.0H243.0V-562.0C243.0 -584.0 236.0 -596.0 210.0 -596.0C169.0 -596.0 20.0 -585.0 20.0 -585.0V-608.0C102.0 -623.0 133.0 -647.0 159.0 -675.0C184.0 -707.0 191.0 -755.0 195.0 -821.0C441.0 -800.0 475.0 -722.0 475.0 -582.0V-78.0C514.0 -71.0 539.0 -54.0 551.0 -40.0L328.0 130.0ZM401.0 423.0 295.0 290.0H-427.0L-413.0 239.0H543.0C568.0 239.0 588.0 248.0 593.0 268.0C520.0 332.0 401.0 423.0 401.0 423.0ZM874.0 360.0 757.0 219.0H-83.0L-69.0 167.0H1040.0C1066.0 167.0 1086.0 176.0 1091.0 197.0C1009.0 266.0 874.0 360.0 874.0 360.0ZM439.0 729.0 332.0 593.0H-459.0L-445.0 542.0H583.0C610.0 542.0 629.0 551.0 634.0 571.0C560.0 636.0 439.0 729.0 439.0 729.0ZM233.0 788.0 -70.0 813.0V156.0H171.0V740.0C218.0 748.0 229.0 765.0 233.0 788.0ZM392.0 -361.0H-225.0V-411.0H392.0ZM243.0 -152.0H-334.0L-336.0 -204.0H243.0Z"/></g>
<g fill="red" transform="translate(100 200) scale(0.1 -0.1)"><path d="M0.0 0.0H-393.0V-30.0H0.0ZM-406.0 10.0V-183.0C-406.0 -292.0 -417.0 -392.0 -508.0 -472.0L-496.0 -486.0C-373.0 -407.0 -362.0 -289.0 -362.0 -182.0V0.0H-352.0L-406.0 28.0ZM-36.0 0.0H-26.0V-390.0C-26.0 -404.0 -31.0 -410.0 -48.0 -410.0C-66.0 -410.0 -155.0 -402.0 -155.0 -402.0V-419.0C-118.0 -424.0 -94.0 -430.0 -81.0 -438.0C-69.0 -446.0 -64.0 -460.0 -61.0 -474.0C10.0 -466.0 18.0 -437.0 18.0 -397.0V-39.0C38.0 -35.0 55.0 -28.0 62.0 -20.0L-10.0 33.0ZM9.0 264.0 -29.0 220.0H-460.0L-452.0 190.0H56.0C70.0 190.0 79.0 195.0 82.0 206.0C53.0 232.0 9.0 264.0 9.0 264.0ZM58.0 148.0 18.0 98.0H-519.0L-511.0 68.0H109.0C122.0 68.0 131.0 73.0 134.0 84.0C106.0 112.0 58.0 148.0 58.0 148.0ZM20.0 381.0 -22.0 331.0H-480.0L-472.0 301.0H70.0C83.0 301.0 92.0 306.0 95.0 317.0C66.0 345.0 20.0 381.0 20.0 381.0ZM-152.0 423.0 -229.0 432.0V81.0H-185.0V398.0C-163.0 401.0 -154.0 409.0 -152.0 423.0ZM-6.0 -245.0H-394.0V-275.0H-6.0ZM-4.0 -120.0H-392.0V-150.0H-4.0Z"/></g>
<g fill="black" opacity=".8" transform="translate(100 200) scale(0.1 -0.1)"><path d="M0.0 0.0H-394.0L-395.0 -29.0H0.0ZM-410.0 9.0V-171.0C-410.0 -279.0 -420.0 -381.0 -512.0 -464.0L-499.0 -478.0C-378.0 -396.0 -365.0 -274.0 -365.0 -169.0V-1.0H-355.0L-410.0 27.0ZM-36.0 -1.0H-26.0V-384.0C-26.0 -398.0 -30.0 -404.0 -48.0 -404.0C-65.0 -404.0 -153.0 -395.0 -153.0 -395.0V-414.0C-117.0 -418.0 -92.0 -423.0 -80.0 -431.0C-67.0 -440.0 -63.0 -454.0 -59.0 -468.0C11.0 -460.0 19.0 -431.0 19.0 -391.0V-40.0C40.0 -37.0 56.0 -29.0 62.0 -21.0L-10.0 32.0ZM11.0 267.0 -28.0 223.0H-457.0L-450.0 193.0H58.0C72.0 193.0 81.0 198.0 84.0 208.0C55.0 235.0 11.0 267.0 11.0 267.0ZM64.0 151.0 23.0 102.0H-516.0L-508.0 72.0H113.0C128.0 72.0 136.0 76.0 139.0 87.0C110.0 116.0 64.0 151.0 64.0 151.0ZM23.0 386.0 -18.0 337.0H-486.0L-478.0 306.0H73.0C87.0 306.0 96.0 312.0 99.0 322.0C69.0 350.0 23.0 386.0 23.0 386.0ZM-153.0 426.0 -231.0 434.0V85.0H-187.0V401.0C-165.0 404.0 -155.0 412.0 -153.0 426.0ZM-6.0 -242.0H-396.0V-273.0H-6.0ZM-1.0 -121.0H-391.0L-390.0 -150.0H-1.0Z"/></g>
<g fill="red" transform="translate(200 200) scale(0.1 -0.1)"><path d="M0.0 0.0H-341.0V-28.0H0.0ZM-435.0 10.0V-194.0C-435.0 -296.0 -437.0 -401.0 -500.0 -479.0L-493.0 -486.0C-314.0 -414.0 -296.0 -296.0 -296.0 -193.0V0.0H-276.0L-435.0 54.0ZM-99.0 0.0H-89.0V-314.0C-89.0 -325.0 -93.0 -332.0 -107.0 -332.0C-127.0 -332.0 -212.0 -327.0 -212.0 -327.0V-340.0C-166.0 -348.0 -149.0 -363.0 -135.0 -382.0C-121.0 -401.0 -117.0 -432.0 -115.0 -475.0C32.0 -463.0 53.0 -415.0 53.0 -328.0V-51.0C74.0 -46.0 86.0 -37.0 93.0 -29.0L-38.0 69.0ZM-12.0 310.0 -76.0 226.0H-448.0L-440.0 198.0H77.0C91.0 198.0 102.0 203.0 105.0 214.0C61.0 253.0 -12.0 310.0 -12.0 310.0ZM42.0 198.0 -28.0 106.0H-507.0L-499.0 78.0H141.0C155.0 78.0 167.0 83.0 169.0 94.0C122.0 136.0 42.0 198.0 42.0 198.0ZM14.0 433.0 -56.0 342.0H-474.0L-466.0 314.0H111.0C125.0 314.0 136.0 319.0 139.0 330.0C92.0 372.0 14.0 433.0 14.0 433.0ZM-96.0 451.0 -271.0 465.0V81.0H-128.0V425.0C-104.0 429.0 -97.0 438.0 -96.0 451.0ZM5.0 -213.0H-346.0V-241.0H5.0ZM7.0 -103.0H-344.0V-131.0H7.0Z"/></g>
<g fill="black" opacity=".8" transform="translate(200 200) scale(0.1 -0.1)"><path d="M0.0 0.0H-338.0L-340.0 -28.0H0.0ZM-433.0 9.0V-193.0C-433.0 -296.0 -437.0 -400.0 -500.0 -478.0L-493.0 -484.0C-315.0 -414.0 -296.0 -295.0 -296.0 -193.0V-1.0H-275.0L-433.0 53.0ZM-97.0 -1.0H-87.0V-322.0C-87.0 -334.0 -90.0 -341.0 -105.0 -341.0C-126.0 -341.0 -209.0 -336.0 -209.0 -336.0V-348.0C-163.0 -356.0 -146.0 -371.0 -133.0 -388.0C-119.0 -407.0 -115.0 -438.0 -113.0 -479.0C33.0 -467.0 53.0 -421.0 53.0 -336.0V-53.0C76.0 -48.0 87.0 -37.0 94.0 -30.0L-36.0 68.0ZM-14.0 307.0 -78.0 224.0H-448.0L-440.0 196.0H74.0C88.0 196.0 99.0 202.0 102.0 213.0C57.0 251.0 -14.0 307.0 -14.0 307.0ZM38.0 195.0 -31.0 103.0H-502.0L-494.0 76.0H135.0C150.0 76.0 162.0 81.0 163.0 92.0C118.0 134.0 38.0 195.0 38.0 195.0ZM10.0 432.0 -59.0 342.0H-479.0L-472.0 314.0H107.0C122.0 314.0 133.0 319.0 136.0 330.0C88.0 372.0 10.0 432.0 10.0 432.0ZM-100.0 445.0 -275.0 460.0V81.0H-131.0V419.0C-108.0 423.0 -100.0 432.0 -100.0 445.0ZM5.0 -219.0H-343.0V-246.0H5.0ZM11.0 -107.0H-339.0L-338.0 -135.0H11.0Z"/></g>
<g fill="red" transform="translate(300 200) scale(0.1 -0.1)"><path d="M0.0 0.0H-417.0V-30.0H0.0ZM-439.0 10.0V-153.0C-439.0 -260.0 -450.0 -366.0 -541.0 -451.0L-528.0 -465.0C-406.0 -380.0 -395.0 -255.0 -395.0 -152.0V0.0H-385.0L-439.0 28.0ZM-35.0 0.0H-25.0V-372.0C-25.0 -387.0 -30.0 -392.0 -47.0 -392.0C-65.0 -392.0 -154.0 -385.0 -154.0 -385.0V-402.0C-117.0 -406.0 -93.0 -413.0 -80.0 -421.0C-68.0 -429.0 -63.0 -442.0 -60.0 -456.0C11.0 -448.0 19.0 -421.0 19.0 -379.0V-39.0C39.0 -35.0 56.0 -28.0 63.0 -20.0L-9.0 33.0ZM11.0 278.0 -28.0 234.0H-472.0L-464.0 204.0H58.0C72.0 204.0 81.0 209.0 84.0 220.0C55.0 246.0 11.0 278.0 11.0 278.0ZM65.0 162.0 24.0 112.0H-545.0L-537.0 82.0H115.0C129.0 82.0 138.0 87.0 141.0 98.0C111.0 126.0 65.0 162.0 65.0 162.0ZM33.0 399.0 -8.0 349.0H-517.0L-509.0 319.0H83.0C97.0 319.0 106.0 324.0 109.0 335.0C79.0 363.0 33.0 399.0 33.0 399.0ZM-168.0 441.0 -245.0 450.0V94.0H-201.0V416.0C-179.0 419.0 -170.0 427.0 -168.0 441.0ZM-6.0 -237.0H-418.0V-267.0H-6.0ZM-4.0 -119.0H-416.0V-149.0H-4.0Z"/></g>
<g fill="black" opacity=".8" transform="translate(300 200) scale(0.1 -0.1)"><path d="M0.0 0.0H-407.0L-408.0 -30.0H0.0ZM-431.0 12.0V-170.0C-431.0 -279.0 -442.0 -380.0 -538.0 -462.0L-524.0 -476.0C-399.0 -395.0 -385.0 -274.0 -385.0 -168.0V2.0H-376.0L-431.0 31.0ZM-37.0 2.0H-27.0V-382.0C-27.0 -397.0 -32.0 -402.0 -50.0 -402.0C-68.0 -402.0 -159.0 -393.0 -159.0 -393.0V-412.0C-121.0 -416.0 -96.0 -422.0 -83.0 -430.0C-70.0 -439.0 -66.0 -453.0 -62.0 -467.0C10.0 -459.0 18.0 -430.0 18.0 -389.0V-36.0C38.0 -34.0 55.0 -26.0 61.0 -17.0L-11.0 36.0ZM7.0 274.0 -31.0 231.0H-473.0L-466.0 200.0H54.0C67.0 200.0 76.0 205.0 79.0 215.0C50.0 242.0 7.0 274.0 7.0 274.0ZM58.0 156.0 17.0 107.0H-550.0L-541.0 77.0H107.0C122.0 77.0 130.0 82.0 133.0 93.0C104.0 121.0 58.0 156.0 58.0 156.0ZM28.0 392.0 -12.0 342.0H-509.0L-501.0 312.0H78.0C92.0 312.0 101.0 317.0 104.0 327.0C74.0 356.0 28.0 392.0 28.0 392.0ZM-161.0 437.0 -239.0 446.0V89.0H-195.0V412.0C-173.0 416.0 -163.0 423.0 -161.0 437.0ZM-7.0 -241.0H-413.0V-272.0H-7.0ZM-11.0 -118.0H-415.0V-146.0H-11.0Z"/></g>
<g fill="red" transform="translate(400 200) scale(0.1 -0.1)"><path d="M0.0 0.0H-341.0V-28.0H0.0ZM-436.0 10.0V-194.0C-436.0 -296.0 -438.0 -401.0 -501.0 -479.0L-494.0 -486.0C-315.0 -414.0 -297.0 -296.0 -297.0 -193.0V0.0H-277.0L-436.0 54.0ZM-83.0 0.0H-73.0V-331.0C-73.0 -343.0 -76.0 -350.0 -91.0 -350.0C-111.0 -350.0 -197.0 -345.0 -197.0 -345.0V-357.0C-149.0 -365.0 -133.0 -379.0 -119.0 -396.0C-105.0 -414.0 -101.0 -444.0 -99.0 -483.0C48.0 -472.0 69.0 -427.0 69.0 -344.0V-51.0C90.0 -46.0 102.0 -37.0 109.0 -29.0L-22.0 69.0ZM-3.0 313.0 -67.0 229.0H-453.0L-445.0 201.0H86.0C100.0 201.0 111.0 206.0 114.0 217.0C70.0 256.0 -3.0 313.0 -3.0 313.0ZM37.0 198.0 -33.0 106.0H-512.0L-504.0 78.0H136.0C150.0 78.0 162.0 83.0 164.0 94.0C117.0 136.0 37.0 198.0 37.0 198.0ZM22.0 438.0 -48.0 347.0H-494.0L-486.0 319.0H119.0C133.0 319.0 144.0 324.0 147.0 335.0C100.0 377.0 22.0 438.0 22.0 438.0ZM-101.0 446.0 -276.0 460.0V85.0H-133.0V420.0C-109.0 424.0 -102.0 433.0 -101.0 446.0ZM5.0 -228.0H-346.0V-256.0H5.0ZM7.0 -111.0H-344.0V-139.0H7.0Z"/></g>
<g fill="black" opacity=".8" transform="translate(400 200) scale(0.1 -0.1)"><path d="M0.0 0.0H-336.0L-338.0 -29.0H0.0ZM-436.0 13.0V-187.0C-436.0 -292.0 -441.0 -399.0 -512.0 -480.0L-505.0 -487.0C-317.0 -414.0 -297.0 -291.0 -297.0 -187.0V3.0H-276.0L-436.0 57.0ZM-85.0 3.0H-74.0V-321.0C-74.0 -333.0 -77.0 -340.0 -92.0 -340.0C-114.0 -340.0 -200.0 -335.0 -200.0 -335.0V-347.0C-153.0 -355.0 -135.0 -370.0 -122.0 -388.0C-107.0 -407.0 -103.0 -438.0 -101.0 -480.0C46.0 -467.0 67.0 -421.0 67.0 -335.0V-49.0C89.0 -44.0 101.0 -34.0 107.0 -27.0L-23.0 72.0ZM-2.0 315.0 -66.0 232.0H-455.0L-447.0 203.0H86.0C100.0 203.0 111.0 209.0 114.0 220.0C70.0 259.0 -2.0 315.0 -2.0 315.0ZM44.0 201.0 -25.0 108.0H-528.0L-519.0 81.0H142.0C157.0 81.0 170.0 86.0 171.0 97.0C125.0 139.0 44.0 201.0 44.0 201.0ZM27.0 438.0 -43.0 348.0H-491.0L-484.0 321.0H124.0C139.0 321.0 150.0 325.0 153.0 336.0C105.0 379.0 27.0 438.0 27.0 438.0ZM-93.0 454.0 -269.0 469.0V85.0H-125.0V428.0C-101.0 432.0 -94.0 441.0 -93.0 454.0ZM6.0 -220.0H-349.0V-248.0H6.0ZM2.0 -105.0H-352.0L-351.0 -133.0H2.0Z"/></g>
<g fill="red" transform="translate(500 200) scale(0.1 -0.1)"><path d="M0.0 0.0H-341.0V-30.0H0.0ZM-362.0 10.0V-176.0C-362.0 -282.0 -373.0 -378.0 -464.0 -455.0L-452.0 -469.0C-329.0 -393.0 -318.0 -279.0 -318.0 -175.0V0.0H-308.0L-362.0 28.0ZM-28.0 0.0H-18.0V-372.0C-18.0 -387.0 -23.0 -392.0 -40.0 -392.0C-58.0 -392.0 -147.0 -385.0 -147.0 -385.0V-402.0C-110.0 -406.0 -86.0 -413.0 -73.0 -421.0C-61.0 -429.0 -56.0 -442.0 -53.0 -456.0C18.0 -448.0 26.0 -421.0 26.0 -379.0V-39.0C46.0 -35.0 63.0 -28.0 70.0 -20.0L-2.0 33.0ZM5.0 259.0 -29.0 219.0H-372.0L-364.0 189.0H46.0C59.0 189.0 68.0 194.0 70.0 205.0C45.0 229.0 5.0 259.0 5.0 259.0ZM59.0 147.0 21.0 102.0H-437.0L-429.0 72.0H101.0C115.0 72.0 124.0 77.0 127.0 88.0C100.0 114.0 59.0 147.0 59.0 147.0ZM26.0 378.0 -10.0 333.0H-418.0L-410.0 303.0H70.0C83.0 303.0 92.0 308.0 95.0 319.0C69.0 345.0 26.0 378.0 26.0 378.0ZM-118.0 441.0 -195.0 450.0V85.0H-151.0V416.0C-129.0 419.0 -120.0 427.0 -118.0 441.0ZM-484.0 -196.0H-736.0V-226.0H-484.0ZM-11.0 -119.0H-338.0V-149.0H-11.0Z"/></g>
<g fill="black" opacity=".8" transform="translate(500 200) scale(0.1 -0.1)"><path d="M0.0 0.0H-341.0L-342.0 -29.0H0.0ZM-363.0 9.0V-177.0C-363.0 -283.0 -373.0 -378.0 -465.0 -455.0L-453.0 -469.0C-330.0 -393.0 -317.0 -279.0 -317.0 -175.0V-0.0H-308.0L-363.0 29.0ZM-29.0 -0.0H-19.0V-373.0C-19.0 -387.0 -23.0 -392.0 -40.0 -392.0C-58.0 -392.0 -147.0 -384.0 -147.0 -384.0V-403.0C-110.0 -406.0 -86.0 -413.0 -73.0 -420.0C-60.0 -429.0 -56.0 -443.0 -51.0 -456.0C19.0 -448.0 26.0 -421.0 26.0 -379.0V-39.0C47.0 -36.0 63.0 -29.0 69.0 -19.0L-2.0 33.0ZM5.0 259.0 -29.0 220.0H-372.0L-364.0 189.0H46.0C59.0 189.0 68.0 195.0 70.0 205.0C45.0 229.0 5.0 259.0 5.0 259.0ZM59.0 146.0 21.0 102.0H-437.0L-428.0 72.0H100.0C116.0 72.0 124.0 77.0 127.0 88.0C100.0 114.0 59.0 146.0 59.0 146.0ZM26.0 379.0 -11.0 333.0H-418.0L-409.0 303.0H70.0C83.0 303.0 93.0 309.0 96.0 319.0C68.0 345.0 26.0 379.0 26.0 379.0ZM-117.0 441.0 -195.0 450.0V85.0H-151.0V416.0C-129.0 419.0 -120.0 426.0 -117.0 441.0ZM-483.0 -196.0H-736.0V-227.0H-483.0ZM-11.0 -120.0H-338.0V-149.0H-11.0Z"/></g>
<g fill="red" transform="translate(600 200) scale(0.1 -0.1)"><path d="M0.0 0.0H-279.0V-28.0H0.0ZM-349.0 10.0V-199.0C-349.0 -305.0 -353.0 -411.0 -423.0 -491.0L-416.0 -500.0C-237.0 -425.0 -219.0 -305.0 -219.0 -199.0V0.0H-200.0L-349.0 51.0ZM-62.0 0.0H-52.0V-332.0C-52.0 -343.0 -56.0 -350.0 -70.0 -350.0C-88.0 -350.0 -164.0 -345.0 -164.0 -345.0V-358.0C-122.0 -366.0 -106.0 -379.0 -94.0 -398.0C-81.0 -416.0 -77.0 -446.0 -75.0 -486.0C58.0 -475.0 76.0 -428.0 76.0 -346.0V-49.0C97.0 -45.0 110.0 -36.0 117.0 -28.0L-6.0 64.0ZM1.0 302.0 -59.0 224.0H-365.0L-357.0 196.0H81.0C95.0 196.0 105.0 201.0 108.0 212.0C68.0 249.0 1.0 302.0 1.0 302.0ZM45.0 186.0 -20.0 101.0H-415.0L-407.0 73.0H135.0C150.0 73.0 161.0 78.0 163.0 89.0C119.0 129.0 45.0 186.0 45.0 186.0ZM27.0 426.0 -38.0 342.0H-400.0L-392.0 314.0H115.0C130.0 314.0 140.0 319.0 143.0 330.0C100.0 369.0 27.0 426.0 27.0 426.0ZM-53.0 441.0 -221.0 455.0V85.0H-85.0V415.0C-61.0 419.0 -55.0 428.0 -53.0 441.0ZM-459.0 -233.0H-729.0V-261.0H-459.0ZM6.0 -106.0H-278.0V-134.0H6.0Z"/></g>
<g fill="black" opacity=".8" transform="translate(600 200) scale(0.1 -0.1)"><path d="M0.0 0.0H-279.0V-28.0H0.0ZM-349.0 10.0V-198.0C-349.0 -305.0 -353.0 -411.0 -423.0 -491.0L-416.0 -500.0C-237.0 -425.0 -218.0 -305.0 -218.0 -200.0V0.0H-199.0L-349.0 52.0ZM-63.0 0.0H-52.0V-332.0C-52.0 -343.0 -56.0 -350.0 -71.0 -350.0C-89.0 -350.0 -163.0 -345.0 -163.0 -345.0V-358.0C-122.0 -366.0 -105.0 -379.0 -94.0 -398.0C-81.0 -416.0 -77.0 -446.0 -76.0 -487.0C58.0 -475.0 75.0 -429.0 75.0 -345.0V-49.0C97.0 -46.0 111.0 -35.0 117.0 -29.0L-6.0 64.0ZM2.0 301.0 -59.0 224.0H-365.0L-357.0 195.0H81.0C95.0 195.0 105.0 201.0 108.0 213.0C67.0 249.0 2.0 301.0 2.0 301.0ZM45.0 186.0 -20.0 100.0H-415.0L-407.0 73.0H135.0C150.0 73.0 162.0 77.0 163.0 89.0C120.0 129.0 45.0 186.0 45.0 186.0ZM26.0 426.0 -38.0 342.0H-399.0L-392.0 315.0H114.0C131.0 315.0 141.0 319.0 143.0 330.0C100.0 370.0 26.0 426.0 26.0 426.0ZM-53.0 441.0 -222.0 455.0V85.0H-84.0V415.0C-61.0 419.0 -55.0 427.0 -53.0 441.0ZM-459.0 -234.0H-729.0V-261.0H-459.0ZM6.0 -106.0H-278.0V-134.0H6.0Z"/></g>
<g fill="red" transform="translate(700 200) scale(0.1 -0.1)"><path d="M0.0 0.0H-417.0V-30.0H0.0ZM-438.0 10.0V-176.0C-438.0 -282.0 -449.0 -378.0 -540.0 -455.0L-528.0 -469.0C-405.0 -393.0 -394.0 -279.0 -394.0 -175.0V0.0H-384.0L-438.0 28.0ZM-35.0 0.0H-25.0V-372.0C-25.0 -387.0 -30.0 -392.0 -47.0 -392.0C-65.0 -392.0 -154.0 -385.0 -154.0 -385.0V-402.0C-117.0 -406.0 -93.0 -413.0 -80.0 -421.0C-68.0 -429.0 -63.0 -442.0 -60.0 -456.0C11.0 -448.0 19.0 -421.0 19.0 -379.0V-39.0C39.0 -35.0 56.0 -28.0 63.0 -20.0L-9.0 33.0ZM0.0 263.0 -37.0 220.0H-459.0L-451.0 190.0H44.0C58.0 190.0 67.0 195.0 70.0 206.0C42.0 232.0 0.0 263.0 0.0 263.0ZM65.0 146.0 26.0 97.0H-530.0L-522.0 67.0H113.0C126.0 67.0 136.0 72.0 138.0 83.0C110.0 111.0 65.0 146.0 65.0 146.0ZM31.0 383.0 -9.0 334.0H-495.0L-487.0 304.0H78.0C92.0 304.0 102.0 309.0 104.0 320.0C75.0 348.0 31.0 383.0 31.0 383.0ZM-162.0 441.0 -239.0 450.0V85.0H-195.0V416.0C-173.0 419.0 -164.0 427.0 -162.0 441.0ZM-5.0 -237.0H-412.0V-267.0H-5.0ZM-3.0 -119.0H-410.0V-149.0H-3.0Z"/></g>
<g fill="black" opacity=".8" transform="translate(700 200) scale(0.1 -0.1)"><path d="M0.0 0.0H-402.0V-29.0H0.0ZM-432.0 10.0V-170.0C-432.0 -276.0 -444.0 -373.0 -542.0 -451.0L-528.0 -465.0C-400.0 -388.0 -386.0 -271.0 -386.0 -168.0V0.0H-377.0L-432.0 30.0ZM-36.0 0.0H-27.0V-373.0C-27.0 -388.0 -31.0 -393.0 -49.0 -393.0C-67.0 -393.0 -160.0 -385.0 -160.0 -385.0V-404.0C-122.0 -406.0 -96.0 -413.0 -83.0 -421.0C-70.0 -430.0 -65.0 -443.0 -61.0 -457.0C10.0 -449.0 18.0 -421.0 18.0 -380.0V-38.0C39.0 -36.0 56.0 -28.0 62.0 -19.0L-11.0 35.0ZM-2.0 263.0 -38.0 221.0H-455.0L-448.0 191.0H41.0C55.0 191.0 63.0 196.0 66.0 206.0C39.0 232.0 -2.0 263.0 -2.0 263.0ZM69.0 146.0 30.0 100.0H-530.0L-521.0 70.0H113.0C128.0 70.0 137.0 75.0 139.0 86.0C111.0 113.0 69.0 146.0 69.0 146.0ZM33.0 382.0 -4.0 335.0H-500.0L-492.0 305.0H80.0C93.0 305.0 104.0 310.0 105.0 320.0C77.0 348.0 33.0 382.0 33.0 382.0ZM-153.0 443.0 -232.0 452.0V87.0H-188.0V418.0C-166.0 422.0 -155.0 429.0 -153.0 443.0ZM-8.0 -237.0H-407.0V-268.0H-8.0ZM-6.0 -117.0H-404.0V-145.0H-6.0Z"/></g>
<g fill="red" transform="translate(800 200) scale(0.1 -0.1)"><path d="M0.0 0.0H-322.0V-28.0H0.0ZM-398.0 10.0V-194.0C-398.0 -296.0 -400.0 -401.0 -465.0 -479.0L-458.0 -487.0C-280.0 -414.0 -262.0 -297.0 -262.0 -193.0V0.0H-242.0L-398.0 53.0ZM-51.0 0.0H-41.0V-314.0C-41.0 -325.0 -45.0 -332.0 -59.0 -332.0C-78.0 -332.0 -161.0 -327.0 -161.0 -327.0V-340.0C-116.0 -348.0 -99.0 -362.0 -85.0 -381.0C-72.0 -400.0 -68.0 -431.0 -66.0 -473.0C77.0 -461.0 96.0 -414.0 96.0 -328.0V-50.0C117.0 -46.0 130.0 -37.0 137.0 -29.0L8.0 68.0ZM35.0 306.0 -28.0 224.0H-418.0L-410.0 196.0H121.0C135.0 196.0 146.0 201.0 149.0 212.0C106.0 250.0 35.0 306.0 35.0 306.0ZM83.0 191.0 15.0 101.0H-474.0L-466.0 73.0H179.0C193.0 73.0 204.0 78.0 207.0 89.0C161.0 130.0 83.0 191.0 83.0 191.0ZM58.0 431.0 -10.0 342.0H-447.0L-439.0 314.0H152.0C167.0 314.0 178.0 319.0 180.0 330.0C135.0 371.0 58.0 431.0 58.0 431.0ZM-64.0 451.0 -237.0 465.0V81.0H-97.0V425.0C-72.0 429.0 -66.0 438.0 -64.0 451.0ZM6.0 -223.0H-326.0V-251.0H6.0ZM9.0 -111.0H-323.0V-139.0H9.0Z"/></g>
<g fill="black" opacity=".8" transform="translate(800 200) scale(0.1 -0.1)"><path d="M0.0 0.0H-309.0L-310.0 -28.0H0.0ZM-397.0 11.0V-180.0C-397.0 -287.0 -404.0 -396.0 -487.0 -479.0L-481.0 -487.0C-284.0 -413.0 -263.0 -285.0 -263.0 -180.0V1.0H-242.0L-397.0 54.0ZM-47.0 1.0H-37.0V-320.0C-37.0 -332.0 -40.0 -340.0 -55.0 -340.0C-76.0 -340.0 -159.0 -333.0 -159.0 -333.0V-346.0C-114.0 -354.0 -96.0 -368.0 -83.0 -386.0C-69.0 -405.0 -65.0 -436.0 -63.0 -476.0C78.0 -464.0 96.0 -419.0 96.0 -334.0V-49.0C118.0 -45.0 132.0 -35.0 137.0 -28.0L12.0 67.0ZM28.0 303.0 -33.0 224.0H-423.0L-416.0 196.0H111.0C125.0 196.0 136.0 201.0 139.0 213.0C96.0 249.0 28.0 303.0 28.0 303.0ZM84.0 189.0 17.0 101.0H-489.0L-481.0 73.0H176.0C191.0 73.0 203.0 78.0 205.0 90.0C160.0 129.0 84.0 189.0 84.0 189.0ZM58.0 429.0 -8.0 342.0H-462.0L-454.0 315.0H149.0C165.0 315.0 176.0 319.0 178.0 330.0C133.0 372.0 58.0 429.0 58.0 429.0ZM-59.0 451.0 -231.0 466.0V81.0H-92.0V426.0C-67.0 429.0 -61.0 438.0 -59.0 451.0ZM8.0 -225.0H-323.0V-252.0H8.0ZM9.0 -111.0H-320.0V-139.0H9.0Z"/></g>
<g fill="red" transform="translate(900 200) scale(0.1 -0.1)"><path d="M0.0 0.0H-337.0V-30.0H0.0ZM-371.0 10.0V-164.0C-371.0 -269.0 -385.0 -368.0 -484.0 -446.0L-471.0 -461.0C-339.0 -383.0 -327.0 -266.0 -327.0 -163.0V0.0H-317.0L-371.0 28.0ZM-33.0 0.0H-23.0V-372.0C-23.0 -387.0 -28.0 -392.0 -45.0 -392.0C-63.0 -392.0 -152.0 -385.0 -152.0 -385.0V-402.0C-115.0 -406.0 -91.0 -413.0 -78.0 -421.0C-66.0 -429.0 -61.0 -442.0 -58.0 -456.0C13.0 -448.0 21.0 -421.0 21.0 -379.0V-39.0C41.0 -35.0 58.0 -28.0 65.0 -20.0L-7.0 33.0ZM-7.0 257.0 -40.0 218.0H-383.0L-375.0 188.0H33.0C46.0 188.0 54.0 193.0 57.0 204.0C33.0 228.0 -7.0 257.0 -7.0 257.0ZM45.0 139.0 9.0 95.0H-445.0L-437.0 65.0H87.0C100.0 65.0 109.0 70.0 112.0 81.0C86.0 107.0 45.0 139.0 45.0 139.0ZM15.0 376.0 -20.0 332.0H-428.0L-420.0 302.0H58.0C71.0 302.0 80.0 307.0 82.0 318.0C57.0 344.0 15.0 376.0 15.0 376.0ZM-122.0 441.0 -199.0 450.0V85.0H-155.0V416.0C-133.0 419.0 -124.0 427.0 -122.0 441.0ZM-5.0 -237.0H-346.0V-267.0H-5.0ZM-3.0 -114.0H-344.0V-144.0H-3.0Z"/></g>
<g fill="black" opacity=".8" transform="translate(900 200) scale(0.1 -0.1)"><path d="M0.0 0.0H-353.0V-29.0H0.0ZM-379.0 8.0V-166.0C-379.0 -272.0 -391.0 -369.0 -486.0 -448.0L-472.0 -462.0C-348.0 -384.0 -334.0 -267.0 -334.0 -164.0V-2.0H-325.0L-379.0 27.0ZM-32.0 -2.0H-22.0V-369.0C-22.0 -384.0 -27.0 -388.0 -44.0 -388.0C-60.0 -388.0 -145.0 -381.0 -145.0 -381.0V-399.0C-110.0 -403.0 -86.0 -409.0 -75.0 -417.0C-62.0 -426.0 -58.0 -439.0 -53.0 -453.0C15.0 -445.0 22.0 -418.0 22.0 -377.0V-40.0C43.0 -37.0 60.0 -30.0 65.0 -21.0L-6.0 32.0ZM-5.0 258.0 -40.0 219.0H-385.0L-378.0 189.0H37.0C50.0 189.0 58.0 194.0 62.0 204.0C35.0 229.0 -5.0 258.0 -5.0 258.0ZM44.0 139.0 6.0 94.0H-444.0L-436.0 64.0H87.0C101.0 64.0 110.0 69.0 112.0 79.0C85.0 106.0 44.0 139.0 44.0 139.0ZM13.0 380.0 -24.0 334.0H-424.0L-417.0 304.0H58.0C71.0 304.0 81.0 309.0 83.0 319.0C55.0 347.0 13.0 380.0 13.0 380.0ZM-129.0 439.0 -206.0 448.0V85.0H-163.0V415.0C-142.0 419.0 -132.0 426.0 -129.0 439.0ZM-1.0 -236.0H-351.0V-267.0H-1.0ZM0.0 -119.0H-350.0V-147.0H0.0Z"/></g>
<g fill="red" transform="translate(1000 200) scale(0.1 -0.1)"><path d="M0.0 0.0H-265.0V-28.0H0.0ZM-362.0 10.0V-193.0C-362.0 -299.0 -369.0 -401.0 -454.0 -479.0L-447.0 -487.0C-254.0 -416.0 -234.0 -299.0 -234.0 -193.0V0.0H-215.0L-362.0 51.0ZM-48.0 0.0H-38.0V-323.0C-38.0 -334.0 -42.0 -341.0 -55.0 -341.0C-73.0 -341.0 -148.0 -336.0 -148.0 -336.0V-350.0C-107.0 -357.0 -91.0 -370.0 -79.0 -389.0C-67.0 -407.0 -63.0 -437.0 -61.0 -476.0C70.0 -465.0 88.0 -419.0 88.0 -337.0V-49.0C109.0 -45.0 122.0 -36.0 128.0 -28.0L7.0 63.0ZM2.0 300.0 -56.0 224.0H-372.0L-364.0 196.0H80.0C94.0 196.0 104.0 201.0 107.0 212.0C68.0 248.0 2.0 300.0 2.0 300.0ZM43.0 185.0 -21.0 101.0H-421.0L-413.0 73.0H131.0C145.0 73.0 156.0 78.0 158.0 89.0C115.0 128.0 43.0 185.0 43.0 185.0ZM27.0 425.0 -36.0 342.0H-408.0L-400.0 314.0H113.0C128.0 314.0 138.0 319.0 141.0 330.0C98.0 369.0 27.0 425.0 27.0 425.0ZM-44.0 451.0 -210.0 465.0V81.0H-76.0V425.0C-52.0 429.0 -46.0 438.0 -44.0 451.0ZM8.0 -220.0H-267.0V-248.0H8.0ZM7.0 -109.0H-263.0V-137.0H7.0Z"/></g>
<g fill="black" opacity=".8" transform="translate(1000 200) scale(0.1 -0.1)"><path d="M0.0 0.0H-276.0L-277.0 -28.0H0.0ZM-361.0 8.0V-206.0C-361.0 -308.0 -365.0 -405.0 -433.0 -478.0L-426.0 -485.0C-251.0 -418.0 -232.0 -308.0 -232.0 -206.0V-1.0H-212.0L-361.0 50.0ZM-53.0 -1.0H-42.0V-319.0C-42.0 -331.0 -45.0 -338.0 -59.0 -338.0C-77.0 -338.0 -147.0 -333.0 -147.0 -333.0V-346.0C-108.0 -353.0 -91.0 -367.0 -80.0 -385.0C-69.0 -404.0 -65.0 -434.0 -64.0 -475.0C69.0 -463.0 86.0 -418.0 86.0 -334.0V-51.0C108.0 -47.0 121.0 -36.0 127.0 -30.0L4.0 63.0ZM9.0 301.0 -51.0 223.0H-367.0L-359.0 195.0H89.0C102.0 195.0 113.0 201.0 116.0 212.0C75.0 248.0 9.0 301.0 9.0 301.0ZM41.0 186.0 -24.0 99.0H-405.0L-397.0 71.0H131.0C146.0 71.0 157.0 76.0 159.0 88.0C116.0 127.0 41.0 186.0 41.0 186.0ZM24.0 427.0 -40.0 341.0H-394.0L-387.0 314.0H114.0C130.0 314.0 140.0 318.0 143.0 329.0C98.0 371.0 24.0 427.0 24.0 427.0ZM-50.0 447.0 -217.0 461.0V81.0H-81.0V422.0C-58.0 426.0 -51.0 434.0 -50.0 447.0ZM6.0 -221.0H-268.0V-248.0H6.0ZM9.0 -110.0H-264.0V-138.0H9.0Z"/></g>
<g fill="red" transform="translate(1100 200) scale(0.1 -0.1)"><path d="M0.0 0.0H-487.0V-30.0H0.0ZM-514.0 10.0V-180.0C-514.0 -288.0 -528.0 -386.0 -627.0 -463.0L-614.0 -478.0C-482.0 -401.0 -470.0 -285.0 -470.0 -179.0V0.0H-460.0L-514.0 28.0ZM-46.0 0.0H-36.0V-390.0C-36.0 -405.0 -41.0 -411.0 -61.0 -411.0C-83.0 -411.0 -189.0 -403.0 -189.0 -403.0V-420.0C-144.0 -424.0 -117.0 -432.0 -101.0 -438.0C-88.0 -446.0 -82.0 -459.0 -79.0 -473.0C-1.0 -465.0 8.0 -436.0 8.0 -395.0V-39.0C28.0 -36.0 46.0 -28.0 52.0 -21.0L-20.0 33.0ZM11.0 267.0 -28.0 219.0H-593.0L-585.0 189.0H58.0C72.0 189.0 81.0 194.0 84.0 205.0C55.0 232.0 11.0 267.0 11.0 267.0ZM115.0 154.0 74.0 104.0H-693.0L-684.0 74.0H165.0C179.0 74.0 189.0 79.0 191.0 90.0C162.0 118.0 115.0 154.0 115.0 154.0ZM66.0 377.0 26.0 327.0H-640.0L-631.0 297.0H117.0C130.0 297.0 140.0 302.0 142.0 313.0C114.0 341.0 66.0 377.0 66.0 377.0ZM-197.0 428.0 -278.0 438.0V82.0H-234.0V401.0C-210.0 405.0 -199.0 414.0 -197.0 428.0ZM-11.0 -247.0H-494.0V-277.0H-11.0ZM-4.0 -119.0H-487.0V-149.0H-4.0Z"/></g>
<g fill="black" opacity=".8" transform="translate(1100 200) scale(0.1 -0.1)"><path d="M0.0 0.0H-495.0L-496.0 -29.0H0.0ZM-519.0 9.0V-180.0C-519.0 -289.0 -531.0 -386.0 -628.0 -463.0L-615.0 -478.0C-487.0 -401.0 -474.0 -284.0 -474.0 -179.0V-1.0H-464.0L-519.0 28.0ZM-46.0 -1.0H-36.0V-389.0C-36.0 -403.0 -40.0 -409.0 -60.0 -409.0C-81.0 -409.0 -186.0 -400.0 -186.0 -400.0V-419.0C-141.0 -422.0 -114.0 -429.0 -99.0 -435.0C-85.0 -444.0 -80.0 -457.0 -76.0 -471.0C-0.0 -463.0 8.0 -434.0 8.0 -394.0V-39.0C30.0 -38.0 47.0 -29.0 52.0 -21.0L-20.0 33.0ZM12.0 268.0 -28.0 220.0H-594.0L-587.0 190.0H60.0C74.0 190.0 83.0 195.0 86.0 205.0C56.0 233.0 12.0 268.0 12.0 268.0ZM115.0 154.0 73.0 104.0H-693.0L-683.0 74.0H165.0C180.0 74.0 189.0 78.0 191.0 89.0C161.0 118.0 115.0 154.0 115.0 154.0ZM65.0 379.0 24.0 329.0H-639.0L-630.0 299.0H118.0C131.0 299.0 141.0 304.0 143.0 314.0C113.0 343.0 65.0 379.0 65.0 379.0ZM-201.0 427.0 -282.0 437.0V83.0H-238.0V401.0C-215.0 405.0 -203.0 413.0 -201.0 427.0ZM-9.0 -247.0H-497.0V-276.0H-9.0ZM-3.0 -122.0H-490.0V-150.0H-3.0Z"/></g>
<g fill="red" transform="translate(1200 200) scale(0.1 -0.1)"><path d="M0.0 0.0H-394.0V-28.0H0.0ZM-495.0 10.0V-132.0C-495.0 -244.0 -507.0 -377.0 -615.0 -479.0L-609.0 -487.0C-374.0 -401.0 -350.0 -241.0 -350.0 -132.0V0.0H-329.0L-495.0 56.0ZM-71.0 0.0H-61.0V-326.0C-61.0 -338.0 -66.0 -346.0 -81.0 -346.0C-108.0 -346.0 -220.0 -338.0 -220.0 -338.0V-350.0C-162.0 -360.0 -142.0 -375.0 -124.0 -392.0C-106.0 -411.0 -100.0 -440.0 -97.0 -480.0C60.0 -468.0 84.0 -421.0 84.0 -338.0V-51.0C105.0 -47.0 117.0 -38.0 123.0 -30.0L-8.0 70.0ZM32.0 300.0 -34.0 218.0H-555.0L-547.0 190.0H123.0C137.0 190.0 148.0 195.0 151.0 206.0C106.0 245.0 32.0 300.0 32.0 300.0ZM137.0 186.0 68.0 98.0H-678.0L-670.0 70.0H234.0C249.0 70.0 260.0 75.0 263.0 86.0C215.0 127.0 137.0 186.0 137.0 186.0ZM92.0 422.0 23.0 335.0H-615.0L-607.0 307.0H187.0C202.0 307.0 213.0 312.0 216.0 323.0C169.0 363.0 92.0 422.0 92.0 422.0ZM-104.0 449.0 -285.0 463.0V74.0H-140.0V420.0C-112.0 425.0 -106.0 435.0 -104.0 449.0ZM23.0 -230.0H-433.0V-258.0H23.0ZM22.0 -115.0H-434.0V-143.0H22.0Z"/></g>
<g fill="black" opacity=".8" transform="translate(1200 200) scale(0.1 -0.1)"><path d="M0.0 0.0H-399.0L-400.0 -28.0H0.0ZM-494.0 9.0V-138.0C-494.0 -249.0 -505.0 -379.0 -604.0 -478.0L-598.0 -486.0C-372.0 -402.0 -349.0 -246.0 -349.0 -139.0V-0.0H-327.0L-494.0 55.0ZM-73.0 -0.0H-63.0V-325.0C-63.0 -337.0 -67.0 -345.0 -83.0 -345.0C-110.0 -345.0 -219.0 -337.0 -219.0 -337.0V-348.0C-163.0 -358.0 -142.0 -373.0 -125.0 -391.0C-106.0 -410.0 -101.0 -439.0 -98.0 -480.0C60.0 -467.0 83.0 -421.0 83.0 -337.0V-52.0C104.0 -48.0 117.0 -38.0 123.0 -31.0L-10.0 70.0ZM35.0 300.0 -31.0 217.0H-552.0L-545.0 189.0H128.0C141.0 189.0 152.0 195.0 156.0 206.0C109.0 245.0 35.0 300.0 35.0 300.0ZM135.0 186.0 66.0 96.0H-669.0L-661.0 69.0H233.0C249.0 69.0 261.0 74.0 263.0 85.0C216.0 126.0 135.0 186.0 135.0 186.0ZM90.0 423.0 21.0 334.0H-608.0L-601.0 307.0H187.0C203.0 307.0 214.0 312.0 217.0 323.0C169.0 364.0 90.0 423.0 90.0 423.0ZM-108.0 446.0 -290.0 461.0V74.0H-143.0V418.0C-115.0 423.0 -109.0 432.0 -108.0 446.0ZM22.0 -231.0H-433.0V-258.0H22.0ZM23.0 -116.0H-434.0V-144.0H23.0Z"/></g>
<g fill="red" transform="translate(1300 200) scale(0.1 -0.1)"><path d="M0.0 0H-271.0V-30.0H0.0ZM-289.0 10.0V-186.0C-289.0 -287.0 -291.0 -383.0 -350.0 -459.0L-336.0 -472.0C-249.0 -397.0 -245.0 -284.0 -245.0 -185.0V0.0H-234.0L-289.0 28.0ZM-40.0 0.0H-30.0V-388.0C-30.0 -402.0 -34.0 -407.0 -48.0 -407.0C-64.0 -407.0 -133.0 -401.0 -133.0 -401.0V-418.0C-102.0 -421.0 -83.0 -427.0 -72.0 -433.0C-63.0 -441.0 -59.0 -454.0 -57.0 -466.0C6.0 -459.0 14.0 -434.0 14.0 -393.0V-39.0C34.0 -36.0 52.0 -28.0 58.0 -21.0L-14.0 33.0ZM10.0 149.0 -31.0 99.0H-351.0L-343.0 69.0H60.0C74.0 69.0 82.0 74.0 85.0 85.0C57.0 113.0 10.0 149.0 10.0 149.0ZM466.0 157.0 425.0 108.0H110.0L118.0 78.0H514.0C528.0 78.0 537.0 83.0 540.0 94.0C511.0 122.0 466.0 157.0 466.0 157.0ZM-8.0 377.0 -48.0 327.0H-336.0L-328.0 297.0H42.0C56.0 297.0 66.0 302.0 68.0 313.0C39.0 341.0 -8.0 377.0 -8.0 377.0ZM-81.0 427.0 -162.0 437.0V86.0H-118.0V400.0C-94.0 404.0 -83.0 413.0 -81.0 427.0ZM4.0 -226.0H-271.0V-256.0H4.0ZM5.0 -111.0H-270.0V-141.0H5.0Z"/></g>
<g fill="black" opacity=".8" transform="translate(1300 200) scale(0.1 -0.1)"><path d="M0.0 0.0H-272.0V-30.0H0.0ZM-290.0 10.0V-187.0C-290.0 -287.0 -291.0 -383.0 -351.0 -460.0L-336.0 -472.0C-250.0 -397.0 -244.0 -284.0 -244.0 -185.0V-0.0H-234.0L-290.0 29.0ZM-40.0 -0.0H-31.0V-388.0C-31.0 -402.0 -34.0 -407.0 -48.0 -407.0C-64.0 -407.0 -133.0 -400.0 -133.0 -400.0V-418.0C-103.0 -421.0 -83.0 -427.0 -72.0 -432.0C-63.0 -440.0 -59.0 -455.0 -56.0 -466.0C6.0 -459.0 14.0 -433.0 14.0 -393.0V-39.0C35.0 -37.0 53.0 -28.0 57.0 -21.0L-14.0 33.0ZM10.0 149.0 -31.0 99.0H-351.0L-343.0 69.0H60.0C74.0 69.0 82.0 74.0 85.0 84.0C57.0 113.0 10.0 149.0 10.0 149.0ZM466.0 156.0 424.0 108.0H110.0L118.0 78.0H514.0C529.0 78.0 537.0 83.0 540.0 93.0C510.0 122.0 466.0 156.0 466.0 156.0ZM-8.0 378.0 -48.0 327.0H-335.0L-328.0 298.0H42.0C56.0 298.0 66.0 302.0 69.0 313.0C38.0 341.0 -8.0 378.0 -8.0 378.0ZM-80.0 427.0 -162.0 437.0V86.0H-119.0V400.0C-95.0 405.0 -83.0 413.0 -80.0 427.0ZM5.0 -226.0H-271.0V-256.0H5.0ZM4.0 -112.0H-271.0L-270.0 -141.0H4.0Z"/></g>
<g fill="red" transform="translate(1400 200) scale(0.1 -0.1)"><path d="M0.0 0H-251.0V-28.0H0.0ZM-300.0 10.0V-161.0C-300.0 -267.0 -300.0 -389.0 -355.0 -483.0L-348.0 -492.0C-190.0 -405.0 -175.0 -265.0 -175.0 -161.0V0.0H-156.0L-300.0 50.0ZM-70.0 0.0H-60.0V-337.0C-60.0 -348.0 -64.0 -354.0 -77.0 -354.0C-97.0 -354.0 -163.0 -350.0 -163.0 -350.0V-363.0C-124.0 -370.0 -109.0 -383.0 -97.0 -399.0C-86.0 -416.0 -83.0 -443.0 -81.0 -479.0C47.0 -468.0 64.0 -425.0 64.0 -348.0V-49.0C85.0 -45.0 98.0 -36.0 105.0 -28.0L-15.0 63.0ZM24.0 176.0 -32.0 102.0H-357.0L-349.0 74.0H99.0C113.0 74.0 123.0 79.0 126.0 90.0C88.0 125.0 24.0 176.0 24.0 176.0ZM494.0 177.0 434.0 101.0H137.0L145.0 73.0H577.0C591.0 73.0 602.0 78.0 604.0 89.0C563.0 126.0 494.0 177.0 494.0 177.0ZM18.0 409.0 -37.0 336.0H-343.0L-335.0 308.0H92.0C106.0 308.0 116.0 313.0 119.0 324.0C81.0 359.0 18.0 409.0 18.0 409.0ZM-35.0 444.0 -197.0 458.0V88.0H-67.0V419.0C-43.0 423.0 -37.0 432.0 -35.0 444.0ZM9.0 -202.0H-251.0V-230.0H9.0ZM14.0 -98.0H-246.0V-126.0H14.0Z"/></g>
<g fill="black" opacity=".8" transform="translate(1400 200) scale(0.1 -0.1)"><path d="M0.0 0.0H-251.0V-28.0H0.0ZM-300.0 10.0V-161.0C-300.0 -267.0 -300.0 -389.0 -355.0 -483.0L-348.0 -492.0C-190.0 -405.0 -174.0 -265.0 -174.0 -162.0V-0.0H-155.0L-300.0 50.0ZM-70.0 -0.0H-60.0V-336.0C-60.0 -348.0 -64.0 -354.0 -77.0 -354.0C-98.0 -354.0 -162.0 -350.0 -162.0 -350.0V-363.0C-124.0 -370.0 -109.0 -383.0 -97.0 -398.0C-86.0 -416.0 -83.0 -443.0 -81.0 -479.0C47.0 -468.0 63.0 -425.0 63.0 -348.0V-49.0C85.0 -45.0 98.0 -35.0 105.0 -28.0L-15.0 63.0ZM24.0 175.0 -32.0 102.0H-357.0L-350.0 74.0H99.0C113.0 74.0 124.0 79.0 126.0 90.0C88.0 125.0 24.0 175.0 24.0 175.0ZM494.0 177.0 434.0 101.0H137.0L145.0 72.0H577.0C591.0 72.0 602.0 77.0 604.0 89.0C564.0 126.0 494.0 177.0 494.0 177.0ZM17.0 409.0 -38.0 336.0H-343.0L-335.0 309.0H92.0C107.0 309.0 116.0 313.0 120.0 324.0C81.0 360.0 17.0 409.0 17.0 409.0ZM-35.0 444.0 -197.0 457.0V88.0H-67.0V419.0C-43.0 423.0 -37.0 431.0 -35.0 444.0ZM9.0 -202.0H-251.0V-230.0H9.0ZM14.0 -97.0H-247.0L-246.0 -126.0H14.0Z"/></g>
<g fill="red" transform="translate(1500 200) scale(0.1 -0.1)"><path d="M0.0 0.0H-360.0L-351.0 -30.0H0.0ZM-752.0 -95.0V-283.0C-752.0 -386.0 -756.0 -485.0 -820.0 -564.0L-806.0 -578.0C-713.0 -499.0 -708.0 -382.0 -708.0 -282.0V-105.0H-698.0L-752.0 -77.0ZM-504.0 -105.0H-494.0V-492.0C-494.0 -505.0 -498.0 -510.0 -513.0 -510.0C-528.0 -510.0 -600.0 -504.0 -600.0 -504.0V-521.0C-569.0 -525.0 -549.0 -531.0 -538.0 -538.0C-527.0 -546.0 -524.0 -559.0 -522.0 -572.0C-458.0 -564.0 -451.0 -538.0 -451.0 -498.0V-143.0C-432.0 -139.0 -415.0 -132.0 -408.0 -125.0L-478.0 -73.0ZM-447.0 37.0 -484.0 -8.0H-813.0L-805.0 -38.0H-404.0C-390.0 -38.0 -381.0 -33.0 -379.0 -22.0C-405.0 4.0 -447.0 37.0 -447.0 37.0ZM56.0 -101.0 23.0 -142.0H-408.0L-400.0 -172.0H94.0C107.0 -172.0 116.0 -167.0 119.0 -156.0C94.0 -131.0 56.0 -101.0 56.0 -101.0ZM-480.0 269.0 -517.0 224.0H-786.0L-778.0 194.0H-436.0C-423.0 194.0 -415.0 199.0 -412.0 210.0C-438.0 236.0 -480.0 269.0 -480.0 269.0ZM-541.0 321.0 -622.0 331.0V-20.0H-578.0V294.0C-554.0 298.0 -543.0 307.0 -541.0 321.0ZM-479.0 -332.0H-735.0V-362.0H-479.0ZM-2.0 -285.0H-371.0L-362.0 -315.0H-2.0Z"/></g>
<g fill="black" opacity=".8" transform="translate(1500 200) scale(0.1 -0.1)"><path d="M0.0 0.0H-359.0L-351.0 -30.0H0.0ZM-752.0 -95.0V-284.0C-752.0 -387.0 -756.0 -485.0 -821.0 -564.0L-806.0 -578.0C-714.0 -499.0 -707.0 -382.0 -707.0 -282.0V-105.0H-697.0L-752.0 -76.0ZM-504.0 -105.0H-494.0V-493.0C-494.0 -506.0 -499.0 -511.0 -514.0 -511.0C-528.0 -511.0 -601.0 -503.0 -601.0 -503.0V-521.0C-569.0 -525.0 -549.0 -531.0 -538.0 -537.0C-526.0 -546.0 -525.0 -560.0 -521.0 -573.0C-457.0 -564.0 -451.0 -538.0 -451.0 -499.0V-143.0C-432.0 -140.0 -414.0 -132.0 -409.0 -125.0L-479.0 -72.0ZM-447.0 37.0 -484.0 -7.0H-813.0L-806.0 -38.0H-405.0C-390.0 -38.0 -381.0 -32.0 -379.0 -23.0C-405.0 4.0 -447.0 37.0 -447.0 37.0ZM56.0 -101.0 22.0 -142.0H-408.0L-400.0 -172.0H93.0C107.0 -172.0 116.0 -167.0 118.0 -157.0C93.0 -131.0 56.0 -101.0 56.0 -101.0ZM-480.0 269.0 -517.0 224.0H-785.0L-778.0 194.0H-436.0C-423.0 194.0 -415.0 199.0 -411.0 210.0C-439.0 236.0 -480.0 269.0 -480.0 269.0ZM-539.0 321.0 -622.0 331.0V-20.0H-578.0V294.0C-554.0 299.0 -542.0 307.0 -539.0 321.0ZM-478.0 -332.0H-735.0V-362.0H-478.0ZM-3.0 -286.0H-371.0L-362.0 -315.0H-3.0Z"/></g>
<g fill="red" transform="translate(1600 200) scale(0.1 -0.1)"><path d="M0.0 0.0H-351.0L-342.0 -28.0H0.0ZM-772.0 -123.0V-265.0C-772.0 -374.0 -773.0 -508.0 -830.0 -612.0L-822.0 -621.0C-663.0 -527.0 -648.0 -369.0 -648.0 -265.0V-133.0H-629.0L-772.0 -83.0ZM-550.0 -133.0H-540.0V-474.0C-540.0 -485.0 -543.0 -491.0 -557.0 -491.0C-574.0 -491.0 -639.0 -487.0 -639.0 -487.0V-500.0C-600.0 -507.0 -586.0 -519.0 -575.0 -534.0C-564.0 -550.0 -561.0 -576.0 -560.0 -609.0C-434.0 -599.0 -417.0 -560.0 -417.0 -484.0V-178.0C-399.0 -175.0 -387.0 -167.0 -381.0 -160.0L-497.0 -73.0ZM-446.0 50.0 -502.0 -24.0H-827.0L-819.0 -52.0H-371.0C-357.0 -52.0 -347.0 -47.0 -344.0 -36.0C-382.0 -1.0 -446.0 50.0 -446.0 50.0ZM79.0 -79.0 41.0 -149.0H-378.0L-370.0 -177.0H120.0C133.0 -177.0 142.0 -172.0 145.0 -161.0C123.0 -129.0 79.0 -79.0 79.0 -79.0ZM-452.0 286.0 -507.0 213.0H-813.0L-805.0 185.0H-378.0C-364.0 185.0 -354.0 190.0 -351.0 201.0C-389.0 236.0 -452.0 286.0 -452.0 286.0ZM-499.0 325.0 -666.0 339.0V-45.0H-531.0V299.0C-507.0 303.0 -500.0 312.0 -499.0 325.0ZM-475.0 -345.0H-711.0V-373.0H-475.0ZM17.0 -306.0H-358.0L-349.0 -334.0H17.0Z"/></g>
<g fill="black" opacity=".8" transform="translate(1600 200) scale(0.1 -0.1)"><path d="M0.0 0.0H-350.0L-342.0 -28.0H0.0ZM-771.0 -122.0V-264.0C-771.0 -373.0 -774.0 -509.0 -830.0 -612.0L-823.0 -620.0C-663.0 -527.0 -647.0 -368.0 -647.0 -265.0V-133.0H-628.0L-771.0 -83.0ZM-550.0 -133.0H-540.0V-473.0C-540.0 -485.0 -543.0 -490.0 -558.0 -490.0C-575.0 -490.0 -638.0 -486.0 -638.0 -486.0V-499.0C-601.0 -507.0 -585.0 -519.0 -575.0 -533.0C-563.0 -550.0 -561.0 -576.0 -561.0 -610.0C-434.0 -599.0 -418.0 -560.0 -418.0 -484.0V-178.0C-399.0 -175.0 -387.0 -166.0 -381.0 -160.0L-498.0 -73.0ZM-446.0 50.0 -501.0 -23.0H-827.0L-820.0 -53.0H-371.0C-357.0 -53.0 -347.0 -46.0 -344.0 -35.0C-383.0 -1.0 -446.0 50.0 -446.0 50.0ZM79.0 -79.0 41.0 -150.0H-379.0L-370.0 -177.0H120.0C133.0 -177.0 143.0 -172.0 146.0 -162.0C124.0 -129.0 79.0 -79.0 79.0 -79.0ZM-452.0 287.0 -507.0 213.0H-813.0L-805.0 185.0H-378.0C-363.0 185.0 -354.0 190.0 -350.0 201.0C-389.0 237.0 -452.0 287.0 -452.0 287.0ZM-499.0 324.0 -666.0 339.0V-45.0H-530.0V299.0C-507.0 302.0 -499.0 311.0 -499.0 324.0ZM-475.0 -345.0H-711.0V-373.0H-475.0ZM17.0 -305.0H-358.0L-349.0 -334.0H17.0Z"/></g>
<g fill="red" transform="translate(100 300) scale(0.1 -0.1)"><path d="M0.0 0.0H-322.0V-30.0H0.0ZM144.0 -42.0V-192.0C144.0 -276.0 142.0 -355.0 85.0 -419.0L98.0 -434.0C183.0 -370.0 188.0 -275.0 188.0 -191.0V-52.0H198.0L144.0 -24.0ZM390.0 -52.0H400.0V-364.0C400.0 -378.0 396.0 -383.0 380.0 -383.0C363.0 -383.0 285.0 -377.0 285.0 -377.0V-393.0C319.0 -398.0 340.0 -403.0 352.0 -410.0C363.0 -417.0 367.0 -427.0 369.0 -439.0C436.0 -432.0 444.0 -409.0 444.0 -370.0V-91.0C464.0 -87.0 481.0 -80.0 488.0 -72.0L416.0 -19.0ZM420.0 176.0 387.0 137.0H113.0L121.0 107.0H459.0C473.0 107.0 481.0 112.0 484.0 123.0C459.0 147.0 420.0 176.0 420.0 176.0ZM465.0 83.0 430.0 39.0H63.0L71.0 9.0H507.0C520.0 9.0 529.0 14.0 532.0 25.0C506.0 51.0 465.0 83.0 465.0 83.0ZM445.0 276.0 409.0 232.0H89.0L97.0 202.0H487.0C500.0 202.0 510.0 207.0 512.0 218.0C486.0 244.0 445.0 276.0 445.0 276.0ZM341.0 311.0 264.0 320.0V20.0H308.0V286.0C330.0 289.0 339.0 298.0 341.0 311.0ZM425.0 -237.0H164.0V-267.0H425.0ZM422.0 -143.0H161.0V-173.0H422.0Z"/></g>
<g fill="black" opacity=".8" transform="translate(100 300) scale(0.1 -0.1)"><path d="M0.0 0.0H-322.0V-30.0H0.0ZM144.0 -42.0V-193.0C144.0 -277.0 142.0 -355.0 84.0 -420.0L98.0 -434.0C183.0 -370.0 190.0 -275.0 190.0 -191.0V-52.0H199.0L144.0 -24.0ZM390.0 -52.0H399.0V-364.0C399.0 -378.0 396.0 -383.0 379.0 -383.0C363.0 -383.0 285.0 -376.0 285.0 -376.0V-393.0C318.0 -398.0 340.0 -403.0 352.0 -410.0C363.0 -417.0 367.0 -428.0 370.0 -440.0C436.0 -432.0 444.0 -409.0 444.0 -370.0V-91.0C465.0 -88.0 482.0 -80.0 487.0 -72.0L416.0 -19.0ZM420.0 176.0 387.0 138.0H113.0L121.0 107.0H459.0C473.0 107.0 481.0 113.0 484.0 122.0C459.0 147.0 420.0 176.0 420.0 176.0ZM464.0 82.0 429.0 39.0H63.0L71.0 9.0H506.0C520.0 9.0 529.0 14.0 531.0 24.0C505.0 51.0 464.0 82.0 464.0 82.0ZM445.0 276.0 409.0 232.0H90.0L97.0 202.0H487.0C499.0 202.0 510.0 207.0 513.0 218.0C485.0 244.0 445.0 276.0 445.0 276.0ZM342.0 310.0 264.0 320.0V20.0H307.0V286.0C329.0 289.0 340.0 298.0 342.0 310.0ZM426.0 -237.0H164.0V-267.0H426.0ZM421.0 -144.0H161.0V-173.0H421.0Z"/></g>
<g fill="red" transform="translate(200 300) scale(0.1 -0.1)"><path d="M0.0 0.0H-308.0V-28.0H0.0ZM117.0 -39.0V-199.0C117.0 -281.0 118.0 -364.0 73.0 -427.0L80.0 -436.0C219.0 -377.0 234.0 -280.0 234.0 -199.0V-49.0H253.0L117.0 -1.0ZM348.0 -49.0H358.0V-319.0C358.0 -331.0 355.0 -337.0 341.0 -337.0C325.0 -337.0 261.0 -333.0 261.0 -333.0V-346.0C298.0 -353.0 312.0 -364.0 323.0 -377.0C334.0 -392.0 337.0 -416.0 338.0 -447.0C456.0 -437.0 472.0 -400.0 472.0 -330.0V-97.0C492.0 -93.0 506.0 -84.0 513.0 -76.0L399.0 10.0ZM426.0 208.0 373.0 143.0H100.0L108.0 115.0H495.0C509.0 115.0 519.0 120.0 522.0 131.0C485.0 163.0 426.0 208.0 426.0 208.0ZM448.0 113.0 392.0 44.0H58.0L66.0 16.0H524.0C538.0 16.0 548.0 21.0 551.0 32.0C512.0 66.0 448.0 113.0 448.0 113.0ZM436.0 303.0 381.0 236.0H84.0L92.0 208.0H511.0C524.0 208.0 535.0 213.0 537.0 224.0C499.0 257.0 436.0 303.0 436.0 303.0ZM373.0 330.0 215.0 343.0V24.0H341.0V304.0C365.0 308.0 372.0 317.0 373.0 330.0ZM443.0 -228.0H168.0V-256.0H443.0ZM444.0 -134.0H174.0V-162.0H444.0Z"/></g>
<g fill="black" opacity=".8" transform="translate(200 300) scale(0.1 -0.1)"><path d="M0.0 0.0H-307.0L-308.0 -28.0H0.0ZM117.0 -38.0V-198.0C117.0 -281.0 118.0 -364.0 72.0 -427.0L78.0 -435.0C218.0 -377.0 234.0 -279.0 234.0 -199.0V-49.0H254.0L117.0 -1.0ZM347.0 -49.0H358.0V-318.0C358.0 -331.0 355.0 -337.0 340.0 -337.0C324.0 -337.0 261.0 -333.0 261.0 -333.0V-345.0C298.0 -353.0 313.0 -363.0 323.0 -376.0C334.0 -392.0 338.0 -415.0 338.0 -447.0C456.0 -437.0 471.0 -400.0 471.0 -330.0V-97.0C492.0 -93.0 506.0 -83.0 513.0 -76.0L399.0 10.0ZM427.0 208.0 373.0 144.0H100.0L107.0 114.0H495.0C508.0 114.0 520.0 120.0 522.0 132.0C484.0 163.0 427.0 208.0 427.0 208.0ZM448.0 113.0 392.0 44.0H58.0L65.0 15.0H524.0C538.0 15.0 549.0 21.0 551.0 32.0C513.0 66.0 448.0 113.0 448.0 113.0ZM436.0 303.0 381.0 236.0H84.0L92.0 208.0H511.0C524.0 208.0 536.0 213.0 537.0 224.0C499.0 258.0 436.0 303.0 436.0 303.0ZM373.0 330.0 215.0 343.0V23.0H342.0V304.0C366.0 308.0 372.0 316.0 373.0 330.0ZM443.0 -229.0H169.0V-256.0H443.0ZM444.0 -134.0H173.0L174.0 -162.0H444.0Z"/></g>
</svg>
