<?xml version="1.0" encoding="UTF-8"?>
<svg width="1700" height="300" xmlns="http://www.w3.org/2000/svg">
<rect width="100%" height="100%" fill="white"/>
<g fill="green" transform="translate(100 100) scale(0.1 -0.1)"><path d="M0.0 0.0 9.0 -30.0H890.0C904.0 -30.0 914.0 -25.0 916.0 -14.0C885.0 16.0 835.0 54.0 835.0 54.0L790.0 0.0ZM20.0 586.0 29.0 557.0H865.0C879.0 557.0 889.0 561.0 891.0 572.0C860.0 601.0 812.0 639.0 812.0 639.0L769.0 586.0ZM433.0 458.0V-211.0H439.0C461.0 -211.0 477.0 -198.0 477.0 -193.0V458.0ZM274.0 698.0V370.0H283.0C300.0 370.0 319.0 381.0 319.0 389.0V662.0C343.0 666.0 353.0 675.0 355.0 689.0ZM591.0 698.0V375.0H600.0C617.0 375.0 636.0 386.0 636.0 393.0V662.0C660.0 666.0 670.0 675.0 672.0 689.0ZM296.0 458.0V428.0H618.0V458.0ZM151.0 325.0V69.0H158.0C176.0 69.0 194.0 80.0 194.0 84.0V296.0H736.0V325.0H200.0L151.0 350.0ZM712.0 325.0V72.0H718.0C732.0 72.0 755.0 84.0 756.0 90.0V286.0C775.0 290.0 792.0 297.0 799.0 305.0L731.0 358.0L702.0 325.0ZM164.0 151.0V121.0H730.0V151.0Z"/></g>
<g fill="green" transform="translate(200 100) scale(0.1 -0.1)"><path d="M0.0 0.0 8.0 -28.0H918.0C933.0 -28.0 944.0 -23.0 947.0 -12.0C893.0 32.0 805.0 97.0 805.0 97.0L727.0 0.0ZM27.0 595.0 35.0 567.0H899.0C913.0 567.0 925.0 572.0 928.0 583.0C876.0 626.0 791.0 688.0 791.0 688.0L717.0 595.0ZM395.0 475.0V-226.0H423.0C500.0 -226.0 545.0 -197.0 545.0 -190.0V475.0ZM244.0 721.0V397.0H266.0C319.0 397.0 381.0 421.0 381.0 431.0V682.0C406.0 686.0 412.0 695.0 414.0 707.0ZM564.0 721.0V402.0H586.0C639.0 402.0 701.0 426.0 701.0 436.0V682.0C726.0 686.0 732.0 695.0 734.0 707.0ZM307.0 475.0V447.0H629.0V475.0ZM132.0 342.0V58.0H152.0C211.0 58.0 277.0 89.0 277.0 101.0V314.0H728.0V342.0H286.0L132.0 400.0ZM668.0 342.0V81.0H694.0C743.0 81.0 814.0 108.0 815.0 116.0V291.0C836.0 295.0 849.0 304.0 855.0 312.0L722.0 412.0L658.0 342.0ZM203.0 151.0V123.0H736.0V151.0Z"/></g>
<g fill="green" transform="translate(300 100) scale(0.1 -0.1)"><path d="M0.0 0.0 6.0 -17.0H592.0C601.0 -17.0 606.0 -14.0 608.0 -8.0C589.0 10.0 558.0 33.0 558.0 33.0L531.0 0.0ZM41.0 309.0 48.0 292.0H629.0C637.0 292.0 643.0 294.0 644.0 301.0C625.0 318.0 596.0 340.0 596.0 340.0L570.0 309.0ZM290.0 296.0V-150.0H294.0C306.0 -150.0 315.0 -141.0 315.0 -138.0V296.0ZM237.0 414.0V211.0H243.0C252.0 211.0 263.0 217.0 263.0 222.0V393.0C278.0 395.0 284.0 400.0 285.0 409.0ZM445.0 414.0V212.0H450.0C460.0 212.0 471.0 218.0 471.0 222.0V393.0C485.0 395.0 491.0 400.0 492.0 409.0ZM213.0 260.0V243.0H395.0V260.0ZM153.0 184.0V27.0H157.0C168.0 27.0 178.0 33.0 178.0 36.0V167.0H543.0V184.0H181.0L153.0 198.0ZM527.0 184.0V26.0H531.0C538.0 26.0 551.0 33.0 552.0 36.0V161.0C564.0 163.0 574.0 167.0 578.0 172.0L538.0 204.0L521.0 184.0ZM107.0 69.0V52.0H485.0V69.0Z"/></g>
<g fill="green" transform="translate(400 100) scale(0.1 -0.1)"><path d="M0.0 0.0 5.0 -16.0H615.0C624.0 -16.0 630.0 -13.0 632.0 -7.0C598.0 20.0 543.0 60.0 543.0 60.0L494.0 0.0ZM51.0 309.0 57.0 293.0H656.0C664.0 293.0 672.0 295.0 673.0 302.0C640.0 328.0 586.0 365.0 586.0 365.0L538.0 309.0ZM270.0 307.0V-162.0H287.0C334.0 -162.0 362.0 -141.0 362.0 -136.0V307.0ZM223.0 426.0V225.0H236.0C269.0 225.0 307.0 240.0 307.0 246.0V403.0C322.0 405.0 325.0 411.0 326.0 418.0ZM435.0 426.0V226.0H448.0C480.0 226.0 518.0 242.0 518.0 248.0V404.0C533.0 406.0 537.0 411.0 538.0 418.0ZM218.0 270.0V254.0H410.0V270.0ZM144.0 193.0V15.0H156.0C193.0 15.0 234.0 34.0 234.0 42.0V177.0H545.0V193.0H240.0L144.0 229.0ZM506.0 193.0V28.0H522.0C554.0 28.0 597.0 46.0 598.0 51.0V162.0C611.0 164.0 619.0 170.0 622.0 175.0L540.0 237.0L500.0 193.0ZM136.0 68.0V52.0H499.0V68.0Z"/></g>
<g fill="green" transform="translate(500 100) scale(0.1 -0.1)"><path d="M0.0 0.0 11.0 -38.0H849.0C867.0 -38.0 878.0 -32.0 882.0 -18.0C842.0 20.0 778.0 70.0 778.0 70.0L721.0 0.0ZM-453.0 902.0 -440.0 865.0H290.0C309.0 865.0 321.0 871.0 324.0 884.0C291.0 919.0 238.0 965.0 238.0 965.0L190.0 902.0ZM405.0 515.0V-78.0H412.0C442.0 -78.0 462.0 -76.0 462.0 -75.0V515.0ZM-239.0 1146.0V699.0H-227.0C-205.0 699.0 -181.0 715.0 -181.0 725.0V1101.0C-151.0 1106.0 -139.0 1118.0 -136.0 1135.0ZM61.0 1146.0V709.0H73.0C95.0 709.0 119.0 725.0 119.0 734.0V1101.0C149.0 1106.0 161.0 1118.0 163.0 1135.0ZM164.0 861.0V822.0H721.0V861.0ZM-326.0 627.0V262.0H-317.0C-293.0 262.0 -269.0 276.0 -269.0 281.0V588.0H184.0V627.0H-262.0L-326.0 660.0ZM152.0 627.0V283.0H160.0C179.0 283.0 209.0 298.0 210.0 304.0V578.0C233.0 582.0 255.0 591.0 264.0 601.0L177.0 668.0L140.0 627.0ZM190.0 441.0V401.0H677.0V441.0Z"/></g>
<g fill="green" transform="translate(600 100) scale(0.1 -0.1)"><path d="M0.0 0.0 10.0 -37.0H845.0C864.0 -37.0 879.0 -30.0 883.0 -16.0C819.0 39.0 714.0 119.0 714.0 119.0L621.0 0.0ZM-498.0 956.0 -485.0 920.0H324.0C342.0 920.0 355.0 926.0 358.0 941.0C320.0 987.0 249.0 1060.0 249.0 1060.0L187.0 956.0ZM344.0 540.0V-80.0H377.0C467.0 -80.0 519.0 -73.0 520.0 -71.0V540.0ZM-305.0 1220.0V771.0H-276.0C-211.0 771.0 -137.0 799.0 -137.0 811.0V1169.0C-104.0 1173.0 -95.0 1185.0 -93.0 1202.0ZM-8.0 1215.0V782.0H20.0C86.0 782.0 161.0 809.0 161.0 821.0V1164.0C194.0 1168.0 202.0 1180.0 204.0 1198.0ZM151.0 895.0V858.0H714.0V895.0ZM-392.0 674.0V295.0H-369.0C-299.0 295.0 -225.0 331.0 -225.0 346.0V638.0H177.0V674.0H-217.0L-392.0 742.0ZM82.0 674.0V322.0H112.0C166.0 322.0 250.0 350.0 251.0 360.0V614.0C275.0 620.0 291.0 630.0 298.0 638.0L144.0 754.0L70.0 674.0ZM189.0 456.0V419.0H676.0V456.0Z"/></g>
<g fill="green" transform="translate(700 100) scale(0.1 -0.1)"><path d="M0.0 0.0 10.0 -40.0H834.0C852.0 -40.0 865.0 -33.0 868.0 -19.0C832.0 16.0 778.0 57.0 778.0 57.0L728.0 0.0ZM201.0 860.0 203.0 821.0H861.0C880.0 821.0 893.0 827.0 896.0 842.0C856.0 879.0 795.0 927.0 795.0 927.0L740.0 860.0ZM397.0 426.0V-226.0H405.0C435.0 -226.0 456.0 -208.0 456.0 -202.0V426.0ZM266.0 629.0V322.0H278.0C301.0 322.0 326.0 338.0 326.0 347.0V584.0C355.0 588.0 367.0 599.0 371.0 617.0ZM591.0 629.0V333.0H603.0C625.0 333.0 650.0 349.0 650.0 358.0V584.0C680.0 588.0 692.0 599.0 696.0 617.0ZM260.0 405.0V366.0H588.0V405.0ZM141.0 282.0V42.0H151.0C175.0 42.0 201.0 56.0 201.0 62.0V242.0H729.0V282.0H208.0L141.0 313.0ZM713.0 282.0V54.0H720.0C740.0 54.0 770.0 69.0 772.0 78.0V235.0C792.0 238.0 811.0 249.0 818.0 257.0L737.0 319.0L702.0 282.0ZM140.0 125.0V86.0H706.0V125.0Z"/></g>
<g fill="green" transform="translate(800 100) scale(0.1 -0.1)"><path d="M0.0 0.0 11.0 -37.0H855.0C873.0 -37.0 888.0 -31.0 891.0 -16.0C837.0 32.0 748.0 102.0 748.0 102.0L669.0 0.0ZM214.0 875.0 215.0 838.0H859.0C878.0 838.0 893.0 845.0 897.0 859.0C832.0 913.0 726.0 986.0 726.0 986.0L634.0 875.0ZM344.0 441.0V-235.0H375.0C465.0 -235.0 516.0 -204.0 517.0 -197.0V441.0ZM229.0 632.0V339.0H256.0C312.0 339.0 381.0 362.0 381.0 372.0V584.0C410.0 590.0 418.0 600.0 421.0 615.0ZM543.0 632.0V350.0H570.0C628.0 350.0 697.0 374.0 697.0 384.0V585.0C726.0 590.0 734.0 601.0 736.0 615.0ZM307.0 418.0V381.0H557.0V418.0ZM140.0 288.0V30.0H163.0C227.0 30.0 299.0 64.0 299.0 76.0V251.0H669.0V288.0H307.0L140.0 352.0ZM633.0 288.0V61.0H661.0C712.0 61.0 792.0 88.0 793.0 98.0V230.0C816.0 234.0 831.0 245.0 838.0 253.0L690.0 362.0L621.0 288.0ZM189.0 125.0V88.0H645.0V125.0Z"/></g>
<g fill="red" transform="translate(100 200) scale(0.1 -0.1)"><path d="M0.0 0.0 9.0 -30.0H890.0C904.0 -30.0 914.0 -25.0 916.0 -14.0C885.0 16.0 835.0 54.0 835.0 54.0L790.0 0.0ZM20.0 586.0 29.0 557.0H865.0C879.0 557.0 889.0 561.0 891.0 572.0C860.0 601.0 812.0 639.0 812.0 639.0L769.0 586.0ZM433.0 458.0V-211.0H439.0C461.0 -211.0 477.0 -198.0 477.0 -193.0V458.0ZM274.0 698.0V370.0H283.0C300.0 370.0 319.0 381.0 319.0 389.0V662.0C343.0 666.0 353.0 675.0 355.0 689.0ZM591.0 698.0V375.0H600.0C617.0 375.0 636.0 386.0 636.0 393.0V662.0C660.0 666.0 670.0 675.0 672.0 689.0ZM296.0 458.0V428.0H618.0V458.0ZM151.0 325.0V69.0H158.0C176.0 69.0 194.0 80.0 194.0 84.0V296.0H736.0V325.0H200.0L151.0 350.0ZM712.0 325.0V72.0H718.0C732.0 72.0 755.0 84.0 756.0 90.0V286.0C775.0 290.0 792.0 297.0 799.0 305.0L731.0 358.0L702.0 325.0ZM164.0 151.0V121.0H730.0V151.0Z"/></g>
<g fill="black" opacity=".8" transform="translate(100 200) scale(0.1 -0.1)"><path d="M0.0 0.0 9.0 -30.0H890.0C904.0 -30.0 914.0 -25.0 916.0 -14.0C885.0 16.0 835.0 54.0 835.0 54.0L790.0 0.0ZM20.0 586.0 29.0 557.0H865.0C879.0 557.0 889.0 561.0 891.0 572.0C860.0 601.0 812.0 639.0 812.0 639.0L769.0 586.0ZM433.0 458.0V-211.0H439.0C461.0 -211.0 477.0 -198.0 477.0 -193.0V458.0ZM274.0 698.0V370.0H283.0C300.0 370.0 319.0 381.0 319.0 389.0V662.0C343.0 666.0 353.0 675.0 355.0 689.0ZM591.0 698.0V375.0H600.0C617.0 375.0 636.0 386.0 636.0 393.0V662.0C660.0 666.0 670.0 675.0 672.0 689.0ZM296.0 458.0V428.0H618.0V458.0ZM151.0 325.0V69.0H158.0C176.0 69.0 194.0 80.0 194.0 84.0V296.0H736.0V325.0H200.0L151.0 350.0ZM712.0 325.0V72.0H718.0C732.0 72.0 755.0 84.0 756.0 90.0V286.0C775.0 290.0 792.0 297.0 799.0 305.0L731.0 358.0L702.0 325.0ZM164.0 151.0V121.0H730.0V151.0Z"/></g>
<g fill="red" transform="translate(200 200) scale(0.1 -0.1)"><path d="M0.0 0.0 8.0 -28.0H918.0C933.0 -28.0 944.0 -23.0 947.0 -12.0C893.0 32.0 805.0 97.0 805.0 97.0L727.0 0.0ZM27.0 595.0 35.0 567.0H899.0C913.0 567.0 925.0 572.0 928.0 583.0C876.0 626.0 791.0 688.0 791.0 688.0L717.0 595.0ZM395.0 475.0V-226.0H423.0C500.0 -226.0 545.0 -197.0 545.0 -190.0V475.0ZM244.0 721.0V397.0H266.0C319.0 397.0 381.0 421.0 381.0 431.0V682.0C406.0 686.0 412.0 695.0 414.0 707.0ZM564.0 721.0V402.0H586.0C639.0 402.0 701.0 426.0 701.0 436.0V682.0C726.0 686.0 732.0 695.0 734.0 707.0ZM307.0 475.0V447.0H629.0V475.0ZM132.0 342.0V58.0H152.0C211.0 58.0 277.0 89.0 277.0 101.0V314.0H728.0V342.0H286.0L132.0 400.0ZM668.0 342.0V81.0H694.0C743.0 81.0 814.0 108.0 815.0 116.0V291.0C836.0 295.0 849.0 304.0 855.0 312.0L722.0 412.0L658.0 342.0ZM203.0 151.0V123.0H736.0V151.0Z"/></g>
<g fill="black" opacity=".8" transform="translate(200 200) scale(0.1 -0.1)"><path d="M0.0 0.0 8.0 -28.0H918.0C933.0 -28.0 944.0 -23.0 947.0 -12.0C893.0 32.0 805.0 97.0 805.0 97.0L727.0 0.0ZM27.0 595.0 35.0 567.0H899.0C913.0 567.0 925.0 572.0 928.0 583.0C876.0 626.0 791.0 688.0 791.0 688.0L717.0 595.0ZM395.0 475.0V-226.0H423.0C500.0 -226.0 545.0 -197.0 545.0 -190.0V475.0ZM244.0 721.0V397.0H266.0C319.0 397.0 381.0 421.0 381.0 431.0V682.0C406.0 686.0 412.0 695.0 414.0 707.0ZM564.0 721.0V402.0H586.0C639.0 402.0 701.0 426.0 701.0 436.0V682.0C726.0 686.0 732.0 695.0 734.0 707.0ZM307.0 475.0V447.0H629.0V475.0ZM132.0 342.0V58.0H152.0C211.0 58.0 277.0 89.0 277.0 101.0V314.0H728.0V342.0H286.0L132.0 400.0ZM668.0 342.0V81.0H694.0C743.0 81.0 814.0 108.0 815.0 116.0V291.0C836.0 295.0 849.0 304.0 855.0 312.0L722.0 412.0L658.0 342.0ZM203.0 151.0V123.0H736.0V151.0Z"/></g>
<g fill="red" transform="translate(300 200) scale(0.1 -0.1)"><path d="M0.0 0.0 7.0 -30.0H566.0C579.0 -30.0 589.0 -25.0 591.0 -14.0C565.0 11.0 526.0 41.0 526.0 41.0L490.0 0.0ZM147.0 665.0V635.0H565.0C579.0 635.0 589.0 640.0 591.0 651.0C562.0 679.0 517.0 714.0 517.0 714.0L476.0 665.0ZM267.0 293.0V-152.0H273.0C296.0 -152.0 312.0 -139.0 312.0 -135.0V293.0ZM155.0 448.0V233.0H164.0C181.0 233.0 200.0 245.0 200.0 251.0V415.0C221.0 418.0 230.0 426.0 233.0 439.0ZM381.0 448.0V242.0H390.0C406.0 242.0 425.0 254.0 425.0 261.0V415.0C447.0 418.0 456.0 426.0 459.0 439.0ZM166.0 293.0V264.0H408.0V293.0ZM70.0 204.0V35.0H77.0C95.0 35.0 115.0 45.0 115.0 50.0V174.0H474.0V204.0H120.0L70.0 227.0ZM464.0 204.0V46.0H469.0C484.0 46.0 507.0 57.0 508.0 64.0V170.0C523.0 172.0 536.0 180.0 541.0 186.0L482.0 231.0L456.0 204.0ZM94.0 98.0V69.0H482.0V98.0Z"/></g>
<g fill="black" opacity=".8" transform="translate(300 200) scale(0.1 -0.1)"><path d="M0.0 0.0 8.0 -30.0H566.0C580.0 -30.0 588.0 -24.0 592.0 -14.0C565.0 11.0 526.0 41.0 526.0 41.0L489.0 0.0ZM146.0 665.0 147.0 635.0H565.0C579.0 635.0 589.0 640.0 591.0 652.0C561.0 679.0 516.0 714.0 516.0 714.0L476.0 665.0ZM267.0 292.0V-152.0H273.0C296.0 -152.0 311.0 -139.0 311.0 -135.0V292.0ZM154.0 448.0V233.0H164.0C181.0 233.0 200.0 245.0 200.0 252.0V415.0C222.0 418.0 230.0 425.0 234.0 440.0ZM381.0 448.0V241.0H390.0C406.0 241.0 425.0 254.0 425.0 260.0V415.0C447.0 418.0 456.0 425.0 459.0 440.0ZM167.0 293.0V264.0H408.0V293.0ZM69.0 205.0V35.0H77.0C96.0 35.0 115.0 45.0 115.0 50.0V174.0H474.0V205.0H120.0L69.0 227.0ZM464.0 205.0V46.0H469.0C484.0 46.0 506.0 57.0 508.0 64.0V170.0C523.0 171.0 536.0 180.0 541.0 186.0L482.0 231.0L456.0 205.0ZM94.0 98.0V69.0H482.0V98.0Z"/></g>
<g fill="red" transform="translate(400 200) scale(0.1 -0.1)"><path d="M0.0 0.0 8.0 -28.0H577.0C591.0 -28.0 602.0 -23.0 604.0 -12.0C566.0 23.0 503.0 73.0 503.0 73.0L447.0 0.0ZM154.0 679.0V651.0H557.0C571.0 651.0 582.0 656.0 585.0 667.0C538.0 706.0 462.0 760.0 462.0 760.0L395.0 679.0ZM226.0 303.0V-157.0H249.0C314.0 -157.0 351.0 -136.0 352.0 -131.0V303.0ZM126.0 449.0V245.0H146.0C186.0 245.0 236.0 261.0 236.0 268.0V414.0C257.0 418.0 263.0 426.0 265.0 437.0ZM341.0 449.0V254.0H361.0C403.0 254.0 453.0 271.0 453.0 278.0V414.0C474.0 418.0 480.0 426.0 482.0 437.0ZM204.0 303.0V275.0H378.0V303.0ZM70.0 208.0V29.0H86.0C132.0 29.0 184.0 53.0 184.0 62.0V180.0H423.0V208.0H189.0L70.0 254.0ZM400.0 208.0V52.0H420.0C456.0 52.0 514.0 71.0 515.0 78.0V166.0C531.0 169.0 542.0 177.0 547.0 183.0L441.0 261.0L391.0 208.0ZM128.0 99.0V71.0H427.0V99.0Z"/></g>
<g fill="black" opacity=".8" transform="translate(400 200) scale(0.1 -0.1)"><path d="M0.0 0.0 9.0 -28.0H577.0C591.0 -28.0 602.0 -23.0 604.0 -12.0C566.0 23.0 503.0 73.0 503.0 73.0L448.0 0.0ZM154.0 679.0V651.0H556.0C571.0 651.0 582.0 656.0 585.0 667.0C539.0 707.0 462.0 759.0 462.0 759.0L395.0 679.0ZM226.0 303.0V-156.0H248.0C314.0 -156.0 351.0 -136.0 352.0 -131.0V303.0ZM126.0 449.0V245.0H146.0C186.0 245.0 236.0 261.0 236.0 268.0V414.0C257.0 418.0 263.0 426.0 265.0 437.0ZM341.0 449.0V254.0H361.0C403.0 254.0 453.0 271.0 453.0 278.0V415.0C474.0 418.0 481.0 426.0 482.0 437.0ZM205.0 302.0V275.0H377.0V302.0ZM70.0 208.0V29.0H86.0C132.0 29.0 184.0 53.0 184.0 62.0V180.0H423.0V208.0H189.0L70.0 254.0ZM400.0 208.0V52.0H420.0C457.0 52.0 514.0 71.0 515.0 78.0V166.0C531.0 169.0 543.0 177.0 547.0 183.0L441.0 261.0L391.0 208.0ZM128.0 99.0V71.0H427.0V99.0Z"/></g>
<g fill="red" transform="translate(500 200) scale(0.1 -0.1)"><path d="M0.0 0.0 8.0 -29.0H531.0C545.0 -29.0 553.0 -24.0 556.0 -14.0C527.0 14.0 481.0 50.0 481.0 50.0L440.0 0.0ZM-367.0 723.0 -359.0 694.0H53.0C67.0 694.0 76.0 699.0 79.0 709.0C55.0 735.0 16.0 769.0 16.0 769.0L-19.0 723.0ZM249.0 342.0V-23.0H255.0C278.0 -23.0 293.0 -23.0 293.0 -23.0V342.0ZM-278.0 837.0V523.0H-269.0C-252.0 523.0 -234.0 535.0 -234.0 542.0V804.0C-212.0 807.0 -203.0 816.0 -201.0 829.0ZM-85.0 837.0V532.0H-76.0C-59.0 532.0 -41.0 544.0 -41.0 551.0V804.0C-19.0 807.0 -10.0 816.0 -8.0 829.0ZM68.0 644.0V615.0H488.0V644.0ZM-327.0 470.0V210.0H-320.0C-302.0 210.0 -283.0 221.0 -283.0 225.0V440.0H-12.0V470.0H-278.0L-327.0 495.0ZM-33.0 470.0V230.0H-27.0C-12.0 230.0 11.0 241.0 12.0 246.0V434.0C28.0 437.0 44.0 444.0 50.0 451.0L-14.0 500.0L-41.0 470.0ZM125.0 350.0V320.0H423.0V350.0Z"/></g>
<g fill="black" opacity=".8" transform="translate(500 200) scale(0.1 -0.1)"><path d="M0.0 0.0 8.0 -29.0H531.0C545.0 -29.0 552.0 -24.0 557.0 -14.0C527.0 14.0 481.0 50.0 481.0 50.0L440.0 0.0ZM-367.0 723.0 -359.0 694.0H53.0C67.0 694.0 76.0 699.0 79.0 710.0C55.0 735.0 16.0 769.0 16.0 769.0L-19.0 723.0ZM249.0 342.0V-22.0H255.0C278.0 -22.0 292.0 -23.0 292.0 -23.0V342.0ZM-279.0 837.0V523.0H-269.0C-253.0 523.0 -234.0 536.0 -234.0 543.0V804.0C-212.0 807.0 -203.0 816.0 -200.0 829.0ZM-85.0 837.0V531.0H-76.0C-59.0 531.0 -41.0 544.0 -41.0 550.0V804.0C-19.0 807.0 -10.0 816.0 -8.0 829.0ZM68.0 644.0V615.0H487.0V644.0ZM-328.0 471.0V210.0H-321.0C-301.0 210.0 -282.0 220.0 -282.0 225.0V440.0H-12.0V471.0H-278.0L-328.0 495.0ZM-33.0 471.0V231.0H-26.0C-12.0 231.0 10.0 242.0 12.0 246.0V435.0C28.0 436.0 44.0 444.0 50.0 451.0L-14.0 500.0L-41.0 471.0ZM124.0 350.0V319.0H423.0V350.0Z"/></g>
<g fill="red" transform="translate(600 200) scale(0.1 -0.1)"><path d="M0.0 0.0 8.0 -28.0H520.0C534.0 -28.0 545.0 -23.0 548.0 -12.0C504.0 27.0 431.0 84.0 431.0 84.0L367.0 0.0ZM-407.0 770.0 -399.0 742.0H67.0C81.0 742.0 90.0 747.0 92.0 758.0C68.0 791.0 20.0 844.0 20.0 844.0L-21.0 770.0ZM201.0 360.0V-20.0H224.0C289.0 -20.0 326.0 -20.0 327.0 -20.0V360.0ZM-331.0 893.0V578.0H-310.0C-264.0 578.0 -211.0 597.0 -211.0 605.0V855.0C-187.0 858.0 -180.0 867.0 -179.0 880.0ZM-145.0 889.0V588.0H-124.0C-77.0 588.0 -23.0 606.0 -23.0 614.0V851.0C1.0 854.0 7.0 863.0 9.0 876.0ZM62.0 670.0V642.0H470.0V670.0ZM-377.0 506.0V242.0H-361.0C-312.0 242.0 -260.0 267.0 -260.0 278.0V478.0H-27.0V506.0H-255.0L-377.0 554.0ZM-92.0 506.0V262.0H-71.0C-35.0 262.0 25.0 281.0 26.0 288.0V463.0C43.0 467.0 54.0 474.0 59.0 480.0L-49.0 561.0L-101.0 506.0ZM117.0 363.0V335.0H406.0V363.0Z"/></g>
<g fill="black" opacity=".8" transform="translate(600 200) scale(0.1 -0.1)"><path d="M0.0 0.0 8.0 -28.0H519.0C534.0 -28.0 545.0 -23.0 548.0 -12.0C504.0 27.0 432.0 84.0 432.0 84.0L367.0 0.0ZM-407.0 770.0 -399.0 743.0H67.0C80.0 743.0 91.0 747.0 92.0 759.0C68.0 792.0 21.0 844.0 21.0 844.0L-22.0 770.0ZM201.0 360.0V-19.0H224.0C288.0 -19.0 326.0 -20.0 327.0 -20.0V360.0ZM-331.0 893.0V578.0H-310.0C-264.0 578.0 -211.0 597.0 -211.0 605.0V855.0C-187.0 858.0 -180.0 867.0 -178.0 880.0ZM-145.0 888.0V587.0H-124.0C-77.0 587.0 -23.0 606.0 -23.0 614.0V851.0C1.0 854.0 8.0 862.0 9.0 876.0ZM62.0 670.0V641.0H469.0V670.0ZM-377.0 506.0V242.0H-361.0C-311.0 242.0 -260.0 267.0 -260.0 278.0V478.0H-27.0V506.0H-255.0L-377.0 554.0ZM-93.0 506.0V262.0H-72.0C-34.0 262.0 25.0 281.0 26.0 289.0V463.0C43.0 467.0 55.0 475.0 59.0 480.0L-49.0 561.0L-101.0 506.0ZM117.0 364.0V335.0H406.0V364.0Z"/></g>
</svg>
