<?xml version="1.0" encoding="UTF-8"?>
<svg width="1700" height="300" xmlns="http://www.w3.org/2000/svg">
<rect width="100%" height="100%" fill="white"/>
<g fill="green" transform="translate(100 100) scale(0.1 -0.1)"><path d="M0.0 0.0 -39.0 -50.0H-567.0L-559.0 -80.0H51.0C65.0 -80.0 73.0 -75.0 76.0 -64.0C47.0 -36.0 0.0 0.0 0.0 0.0ZM-602.0 497.0H-635.0V117.0L-622.0 151.0C-638.0 146.0 -661.0 136.0 -671.0 128.0L-607.0 84.0L-584.0 114.0H-593.0V491.0ZM-555.0 538.0 -635.0 548.0V472.0H-593.0V511.0C-569.0 514.0 -557.0 524.0 -555.0 538.0ZM-327.0 273.0 -337.0 263.0C-296.0 240.0 -247.0 196.0 -233.0 160.0C-183.0 132.0 -161.0 238.0 -327.0 273.0ZM-552.0 413.0 -562.0 402.0C-519.0 382.0 -469.0 344.0 -452.0 310.0C-402.0 286.0 -386.0 387.0 -552.0 413.0ZM-123.0 419.0 -132.0 407.0C-89.0 387.0 -31.0 346.0 -10.0 315.0C43.0 293.0 56.0 394.0 -123.0 419.0ZM-369.0 567.0 -378.0 555.0C-334.0 537.0 -278.0 502.0 -255.0 472.0C-203.0 455.0 -193.0 552.0 -369.0 567.0ZM141.0 537.0 60.0 547.0V55.0H69.0C86.0 55.0 104.0 67.0 104.0 75.0V511.0C129.0 514.0 138.0 523.0 141.0 537.0ZM-22.0 551.0 -93.0 588.0C-177.0 441.0 -352.0 278.0 -541.0 181.0L-531.0 166.0C-327.0 254.0 -151.0 409.0 -61.0 543.0C-38.0 537.0 -29.0 540.0 -22.0 551.0ZM-503.0 509.0 -511.0 491.0C-280.0 395.0 -115.0 264.0 -52.0 176.0C17.0 138.0 29.0 310.0 -503.0 509.0ZM-517.0 72.0 -593.0 81.0V-224.0C-593.0 -282.0 -569.0 -293.0 -448.0 -293.0H-206.0C100.0 -293.0 140.0 -289.0 140.0 -259.0C140.0 -249.0 131.0 -244.0 108.0 -239.0L107.0 -111.0H94.0C82.0 -173.0 72.0 -215.0 63.0 -233.0C57.0 -243.0 53.0 -247.0 32.0 -249.0C1.0 -252.0 -88.0 -253.0 -206.0 -253.0H-451.0C-540.0 -253.0 -549.0 -246.0 -549.0 -222.0V48.0C-528.0 50.0 -519.0 59.0 -517.0 72.0ZM84.0 143.0H-615.0V113.0H84.0Z"/></g>
<g fill="green" transform="translate(200 100) scale(0.1 -0.1)"><path d="M0.0 0.0 -72.0 -94.0H-486.0L-478.0 -122.0H102.0C117.0 -122.0 128.0 -117.0 131.0 -106.0C82.0 -63.0 0.0 0.0 0.0 0.0ZM-534.0 466.0H-637.0V60.0L-615.0 97.0C-634.0 90.0 -661.0 68.0 -675.0 50.0L-535.0 -18.0L-494.0 41.0H-500.0V446.0ZM-462.0 491.0 -637.0 508.0V431.0H-500.0V462.0C-473.0 466.0 -465.0 476.0 -462.0 491.0ZM-328.0 209.0 -335.0 204.0C-314.0 177.0 -298.0 131.0 -303.0 89.0C-199.0 1.0 -67.0 195.0 -328.0 209.0ZM-495.0 366.0 -502.0 360.0C-472.0 336.0 -445.0 290.0 -442.0 248.0C-340.0 182.0 -252.0 379.0 -495.0 366.0ZM-112.0 378.0 -120.0 372.0C-97.0 347.0 -71.0 303.0 -65.0 264.0C32.0 201.0 121.0 380.0 -112.0 378.0ZM-370.0 539.0 -377.0 533.0C-350.0 508.0 -319.0 463.0 -311.0 422.0C-201.0 360.0 -117.0 563.0 -370.0 539.0ZM202.0 496.0 25.0 511.0V-24.0H47.0C102.0 -24.0 165.0 5.0 165.0 18.0V468.0C193.0 472.0 200.0 482.0 202.0 496.0ZM-1.0 484.0 -137.0 549.0C-195.0 401.0 -325.0 219.0 -494.0 109.0L-485.0 98.0C-276.0 179.0 -124.0 333.0 -40.0 471.0C-16.0 468.0 -6.0 474.0 -1.0 484.0ZM-458.0 451.0 -465.0 438.0C-286.0 330.0 -152.0 191.0 -103.0 109.0C9.0 37.0 113.0 285.0 -458.0 451.0ZM-413.0 5.0 -589.0 19.0V-253.0C-589.0 -360.0 -530.0 -373.0 -367.0 -373.0H-157.0C165.0 -373.0 227.0 -353.0 227.0 -284.0C227.0 -256.0 210.0 -240.0 157.0 -227.0L153.0 -115.0H143.0C113.0 -178.0 93.0 -208.0 75.0 -227.0C63.0 -238.0 50.0 -243.0 22.0 -245.0C-10.0 -247.0 -78.0 -247.0 -144.0 -247.0H-376.0C-436.0 -247.0 -447.0 -242.0 -447.0 -222.0V-20.0C-424.0 -17.0 -414.0 -9.0 -413.0 5.0ZM100.0 69.0H-581.0V41.0H100.0Z"/></g>
<g fill="green" transform="translate(300 100) scale(0.1 -0.1)"><path d="M0.0 0.0 -39.0 -50.0H-567.0L-559.0 -80.0H51.0C65.0 -80.0 73.0 -75.0 76.0 -64.0C47.0 -36.0 0.0 0.0 0.0 0.0ZM-602.0 497.0H-635.0V117.0L-622.0 151.0C-638.0 146.0 -661.0 136.0 -671.0 128.0L-607.0 84.0L-584.0 114.0H-593.0V491.0ZM-555.0 538.0 -635.0 548.0V472.0H-593.0V511.0C-569.0 514.0 -557.0 524.0 -555.0 538.0ZM-327.0 273.0 -337.0 263.0C-296.0 240.0 -247.0 196.0 -233.0 160.0C-183.0 132.0 -161.0 238.0 -327.0 273.0ZM-552.0 413.0 -562.0 402.0C-519.0 382.0 -469.0 344.0 -452.0 310.0C-402.0 286.0 -386.0 387.0 -552.0 413.0ZM-123.0 419.0 -132.0 407.0C-89.0 387.0 -31.0 346.0 -10.0 315.0C43.0 293.0 56.0 394.0 -123.0 419.0ZM-369.0 567.0 -378.0 555.0C-334.0 537.0 -278.0 502.0 -255.0 472.0C-203.0 455.0 -193.0 552.0 -369.0 567.0ZM141.0 537.0 60.0 547.0V55.0H69.0C86.0 55.0 104.0 67.0 104.0 75.0V511.0C129.0 514.0 138.0 523.0 141.0 537.0ZM-22.0 551.0 -93.0 588.0C-177.0 441.0 -352.0 278.0 -541.0 181.0L-531.0 166.0C-327.0 254.0 -151.0 409.0 -61.0 543.0C-38.0 537.0 -29.0 540.0 -22.0 551.0ZM-503.0 509.0 -511.0 491.0C-280.0 395.0 -115.0 264.0 -52.0 176.0C17.0 138.0 29.0 310.0 -503.0 509.0ZM-517.0 72.0 -593.0 81.0V-224.0C-593.0 -282.0 -569.0 -293.0 -448.0 -293.0H-206.0C100.0 -293.0 140.0 -289.0 140.0 -259.0C140.0 -249.0 131.0 -244.0 108.0 -239.0L107.0 -111.0H94.0C82.0 -173.0 72.0 -215.0 63.0 -233.0C57.0 -243.0 53.0 -247.0 32.0 -249.0C1.0 -252.0 -88.0 -253.0 -206.0 -253.0H-451.0C-540.0 -253.0 -549.0 -246.0 -549.0 -222.0V48.0C-528.0 50.0 -519.0 59.0 -517.0 72.0ZM84.0 143.0H-615.0V113.0H84.0Z"/></g>
<g fill="green" transform="translate(400 100) scale(0.1 -0.1)"><path d="M0.0 0.0 -72.0 -94.0H-486.0L-478.0 -122.0H102.0C117.0 -122.0 128.0 -117.0 131.0 -106.0C82.0 -63.0 0.0 0.0 0.0 0.0ZM-534.0 466.0H-637.0V60.0L-615.0 97.0C-634.0 90.0 -661.0 68.0 -675.0 50.0L-535.0 -18.0L-494.0 41.0H-500.0V446.0ZM-462.0 491.0 -637.0 508.0V431.0H-500.0V462.0C-473.0 466.0 -465.0 476.0 -462.0 491.0ZM-328.0 209.0 -335.0 204.0C-314.0 177.0 -298.0 131.0 -303.0 89.0C-199.0 1.0 -67.0 195.0 -328.0 209.0ZM-495.0 366.0 -502.0 360.0C-472.0 336.0 -445.0 290.0 -442.0 248.0C-340.0 182.0 -252.0 379.0 -495.0 366.0ZM-112.0 378.0 -120.0 372.0C-97.0 347.0 -71.0 303.0 -65.0 264.0C32.0 201.0 121.0 380.0 -112.0 378.0ZM-370.0 539.0 -377.0 533.0C-350.0 508.0 -319.0 463.0 -311.0 422.0C-201.0 360.0 -117.0 563.0 -370.0 539.0ZM202.0 496.0 25.0 511.0V-24.0H47.0C102.0 -24.0 165.0 5.0 165.0 18.0V468.0C193.0 472.0 200.0 482.0 202.0 496.0ZM-1.0 484.0 -137.0 549.0C-195.0 401.0 -325.0 219.0 -494.0 109.0L-485.0 98.0C-276.0 179.0 -124.0 333.0 -40.0 471.0C-16.0 468.0 -6.0 474.0 -1.0 484.0ZM-458.0 451.0 -465.0 438.0C-286.0 330.0 -152.0 191.0 -103.0 109.0C9.0 37.0 113.0 285.0 -458.0 451.0ZM-413.0 5.0 -589.0 19.0V-253.0C-589.0 -360.0 -530.0 -373.0 -367.0 -373.0H-157.0C165.0 -373.0 227.0 -353.0 227.0 -284.0C227.0 -256.0 210.0 -240.0 157.0 -227.0L153.0 -115.0H143.0C113.0 -178.0 93.0 -208.0 75.0 -227.0C63.0 -238.0 50.0 -243.0 22.0 -245.0C-10.0 -247.0 -78.0 -247.0 -144.0 -247.0H-376.0C-436.0 -247.0 -447.0 -242.0 -447.0 -222.0V-20.0C-424.0 -17.0 -414.0 -9.0 -413.0 5.0ZM100.0 69.0H-581.0V41.0H100.0Z"/></g>
<g fill="red" transform="translate(100 200) scale(0.1 -0.1)"><path d="M0.0 0.0 -39.0 -50.0H-567.0L-559.0 -80.0H51.0C65.0 -80.0 73.0 -75.0 76.0 -64.0C47.0 -36.0 0.0 0.0 0.0 0.0ZM-602.0 497.0H-635.0V117.0L-622.0 151.0C-638.0 146.0 -661.0 136.0 -671.0 128.0L-607.0 84.0L-584.0 114.0H-593.0V491.0ZM-555.0 538.0 -635.0 548.0V472.0H-593.0V511.0C-569.0 514.0 -557.0 524.0 -555.0 538.0ZM-327.0 273.0 -337.0 263.0C-296.0 240.0 -247.0 196.0 -233.0 160.0C-183.0 132.0 -161.0 238.0 -327.0 273.0ZM-552.0 413.0 -562.0 402.0C-519.0 382.0 -469.0 344.0 -452.0 310.0C-402.0 286.0 -386.0 387.0 -552.0 413.0ZM-123.0 419.0 -132.0 407.0C-89.0 387.0 -31.0 346.0 -10.0 315.0C43.0 293.0 56.0 394.0 -123.0 419.0ZM-369.0 567.0 -378.0 555.0C-334.0 537.0 -278.0 502.0 -255.0 472.0C-203.0 455.0 -193.0 552.0 -369.0 567.0ZM141.0 537.0 60.0 547.0V55.0H69.0C86.0 55.0 104.0 67.0 104.0 75.0V511.0C129.0 514.0 138.0 523.0 141.0 537.0ZM-22.0 551.0 -93.0 588.0C-177.0 441.0 -352.0 278.0 -541.0 181.0L-531.0 166.0C-327.0 254.0 -151.0 409.0 -61.0 543.0C-38.0 537.0 -29.0 540.0 -22.0 551.0ZM-503.0 509.0 -511.0 491.0C-280.0 395.0 -115.0 264.0 -52.0 176.0C17.0 138.0 29.0 310.0 -503.0 509.0ZM-517.0 72.0 -593.0 81.0V-224.0C-593.0 -282.0 -569.0 -293.0 -448.0 -293.0H-206.0C100.0 -293.0 140.0 -289.0 140.0 -259.0C140.0 -249.0 131.0 -244.0 108.0 -239.0L107.0 -111.0H94.0C82.0 -173.0 72.0 -215.0 63.0 -233.0C57.0 -243.0 53.0 -247.0 32.0 -249.0C1.0 -252.0 -88.0 -253.0 -206.0 -253.0H-451.0C-540.0 -253.0 -549.0 -246.0 -549.0 -222.0V48.0C-528.0 50.0 -519.0 59.0 -517.0 72.0ZM84.0 143.0H-615.0V113.0H84.0Z"/></g>
<g fill="black" opacity=".8" transform="translate(100 200) scale(0.1 -0.1)"><path d="M0.0 0.0 -39.0 -50.0H-567.0L-559.0 -80.0H51.0C65.0 -80.0 73.0 -75.0 76.0 -64.0C47.0 -36.0 0.0 0.0 0.0 0.0ZM-602.0 497.0H-635.0V117.0L-622.0 151.0C-638.0 146.0 -661.0 136.0 -671.0 128.0L-607.0 84.0L-584.0 114.0H-593.0V491.0ZM-555.0 538.0 -635.0 548.0V472.0H-593.0V511.0C-569.0 514.0 -557.0 524.0 -555.0 538.0ZM-327.0 273.0 -337.0 263.0C-296.0 240.0 -247.0 196.0 -233.0 160.0C-183.0 132.0 -161.0 238.0 -327.0 273.0ZM-552.0 413.0 -562.0 402.0C-519.0 382.0 -469.0 344.0 -452.0 310.0C-402.0 286.0 -386.0 387.0 -552.0 413.0ZM-123.0 419.0 -132.0 407.0C-89.0 387.0 -31.0 346.0 -10.0 315.0C43.0 293.0 56.0 394.0 -123.0 419.0ZM-369.0 567.0 -378.0 555.0C-334.0 537.0 -278.0 502.0 -255.0 472.0C-203.0 455.0 -193.0 552.0 -369.0 567.0ZM141.0 537.0 60.0 547.0V55.0H69.0C86.0 55.0 104.0 67.0 104.0 75.0V511.0C129.0 514.0 138.0 523.0 141.0 537.0ZM-22.0 551.0 -93.0 588.0C-177.0 441.0 -352.0 278.0 -541.0 181.0L-531.0 166.0C-327.0 254.0 -151.0 409.0 -61.0 543.0C-38.0 537.0 -29.0 540.0 -22.0 551.0ZM-503.0 509.0 -511.0 491.0C-280.0 395.0 -115.0 264.0 -52.0 176.0C17.0 138.0 29.0 310.0 -503.0 509.0ZM-517.0 72.0 -593.0 81.0V-224.0C-593.0 -282.0 -569.0 -293.0 -448.0 -293.0H-206.0C100.0 -293.0 140.0 -289.0 140.0 -259.0C140.0 -249.0 131.0 -244.0 108.0 -239.0L107.0 -111.0H94.0C82.0 -173.0 72.0 -215.0 63.0 -233.0C57.0 -243.0 53.0 -247.0 32.0 -249.0C1.0 -252.0 -88.0 -253.0 -206.0 -253.0H-451.0C-540.0 -253.0 -549.0 -246.0 -549.0 -222.0V48.0C-528.0 50.0 -519.0 59.0 -517.0 72.0ZM84.0 143.0H-615.0V113.0H84.0Z"/></g>
<g fill="red" transform="translate(200 200) scale(0.1 -0.1)"><path d="M0.0 0.0 -72.0 -94.0H-486.0L-478.0 -122.0H102.0C117.0 -122.0 128.0 -117.0 131.0 -106.0C82.0 -63.0 0.0 0.0 0.0 0.0ZM-534.0 466.0H-637.0V60.0L-615.0 97.0C-634.0 90.0 -661.0 68.0 -675.0 50.0L-535.0 -18.0L-494.0 41.0H-500.0V446.0ZM-462.0 491.0 -637.0 508.0V431.0H-500.0V462.0C-473.0 466.0 -465.0 476.0 -462.0 491.0ZM-328.0 209.0 -335.0 204.0C-314.0 177.0 -298.0 131.0 -303.0 89.0C-199.0 1.0 -67.0 195.0 -328.0 209.0ZM-495.0 366.0 -502.0 360.0C-472.0 336.0 -445.0 290.0 -442.0 248.0C-340.0 182.0 -252.0 379.0 -495.0 366.0ZM-112.0 378.0 -120.0 372.0C-97.0 347.0 -71.0 303.0 -65.0 264.0C32.0 201.0 121.0 380.0 -112.0 378.0ZM-370.0 539.0 -377.0 533.0C-350.0 508.0 -319.0 463.0 -311.0 422.0C-201.0 360.0 -117.0 563.0 -370.0 539.0ZM202.0 496.0 25.0 511.0V-24.0H47.0C102.0 -24.0 165.0 5.0 165.0 18.0V468.0C193.0 472.0 200.0 482.0 202.0 496.0ZM-1.0 484.0 -137.0 549.0C-195.0 401.0 -325.0 219.0 -494.0 109.0L-485.0 98.0C-276.0 179.0 -124.0 333.0 -40.0 471.0C-16.0 468.0 -6.0 474.0 -1.0 484.0ZM-458.0 451.0 -465.0 438.0C-286.0 330.0 -152.0 191.0 -103.0 109.0C9.0 37.0 113.0 285.0 -458.0 451.0ZM-413.0 5.0 -589.0 19.0V-253.0C-589.0 -360.0 -530.0 -373.0 -367.0 -373.0H-157.0C165.0 -373.0 227.0 -353.0 227.0 -284.0C227.0 -256.0 210.0 -240.0 157.0 -227.0L153.0 -115.0H143.0C113.0 -178.0 93.0 -208.0 75.0 -227.0C63.0 -238.0 50.0 -243.0 22.0 -245.0C-10.0 -247.0 -78.0 -247.0 -144.0 -247.0H-376.0C-436.0 -247.0 -447.0 -242.0 -447.0 -222.0V-20.0C-424.0 -17.0 -414.0 -9.0 -413.0 5.0ZM100.0 69.0H-581.0V41.0H100.0Z"/></g>
<g fill="black" opacity=".8" transform="translate(200 200) scale(0.1 -0.1)"><path d="M0.0 0.0 -72.0 -94.0H-486.0L-478.0 -122.0H102.0C117.0 -122.0 128.0 -117.0 131.0 -106.0C82.0 -63.0 0.0 0.0 0.0 0.0ZM-534.0 466.0H-637.0V60.0L-615.0 97.0C-634.0 90.0 -661.0 68.0 -675.0 50.0L-535.0 -18.0L-494.0 41.0H-500.0V446.0ZM-462.0 491.0 -637.0 508.0V431.0H-500.0V462.0C-473.0 466.0 -465.0 476.0 -462.0 491.0ZM-328.0 209.0 -335.0 204.0C-314.0 177.0 -298.0 131.0 -303.0 89.0C-199.0 1.0 -67.0 195.0 -328.0 209.0ZM-495.0 366.0 -502.0 360.0C-472.0 336.0 -445.0 290.0 -442.0 248.0C-340.0 182.0 -252.0 379.0 -495.0 366.0ZM-112.0 378.0 -120.0 372.0C-97.0 347.0 -71.0 303.0 -65.0 264.0C32.0 201.0 121.0 380.0 -112.0 378.0ZM-370.0 539.0 -377.0 533.0C-350.0 508.0 -319.0 463.0 -311.0 422.0C-201.0 360.0 -117.0 563.0 -370.0 539.0ZM202.0 496.0 25.0 511.0V-24.0H47.0C102.0 -24.0 165.0 5.0 165.0 18.0V468.0C193.0 472.0 200.0 482.0 202.0 496.0ZM-1.0 484.0 -137.0 549.0C-195.0 401.0 -325.0 219.0 -494.0 109.0L-485.0 98.0C-276.0 179.0 -124.0 333.0 -40.0 471.0C-16.0 468.0 -6.0 474.0 -1.0 484.0ZM-458.0 451.0 -465.0 438.0C-286.0 330.0 -152.0 191.0 -103.0 109.0C9.0 37.0 113.0 285.0 -458.0 451.0ZM-413.0 5.0 -589.0 19.0V-253.0C-589.0 -360.0 -530.0 -373.0 -367.0 -373.0H-157.0C165.0 -373.0 227.0 -353.0 227.0 -284.0C227.0 -256.0 210.0 -240.0 157.0 -227.0L153.0 -115.0H143.0C113.0 -178.0 93.0 -208.0 75.0 -227.0C63.0 -238.0 50.0 -243.0 22.0 -245.0C-10.0 -247.0 -78.0 -247.0 -144.0 -247.0H-376.0C-436.0 -247.0 -447.0 -242.0 -447.0 -222.0V-20.0C-424.0 -17.0 -414.0 -9.0 -413.0 5.0ZM100.0 69.0H-581.0V41.0H100.0Z"/></g>
</svg>
