<?xml version="1.0" encoding="UTF-8"?>
<svg width="1700" height="300" xmlns="http://www.w3.org/2000/svg">
<rect width="100%" height="100%" fill="white"/>
<g fill="green" transform="translate(100 100) scale(0.1 -0.1)"><path d="M-0.0 0.0C-10.0 -74.0 -69.0 -131.0 -117.0 -152.0C-135.0 -162.0 -147.0 -179.0 -139.0 -195.0C-128.0 -214.0 -95.0 -209.0 -70.0 -194.0C-29.0 -170.0 30.0 -108.0 18.0 -1.0ZM155.0 -8.0 141.0 -13.0C162.0 -58.0 187.0 -131.0 189.0 -184.0C235.0 -230.0 287.0 -124.0 155.0 -8.0ZM350.0 -7.0 337.0 -14.0C373.0 -57.0 419.0 -130.0 429.0 -184.0C483.0 -227.0 527.0 -107.0 350.0 -7.0ZM547.0 1.0 536.0 -9.0C598.0 -53.0 680.0 -135.0 702.0 -198.0C765.0 -235.0 792.0 -95.0 547.0 1.0ZM6.0 495.0V465.0H601.0V495.0ZM6.0 341.0V311.0H601.0V341.0ZM572.0 649.0V276.0H578.0C593.0 276.0 616.0 289.0 617.0 295.0V613.0C633.0 616.0 649.0 624.0 655.0 630.0L591.0 680.0L564.0 649.0ZM-18.0 649.0V261.0H-10.0C9.0 261.0 27.0 272.0 27.0 277.0V620.0H603.0V649.0H32.0L-18.0 675.0ZM276.0 645.0V47.0H320.0V645.0ZM-51.0 199.0 -43.0 169.0H648.0C661.0 169.0 671.0 174.0 674.0 185.0C643.0 213.0 596.0 249.0 596.0 249.0L555.0 199.0ZM-148.0 65.0 -139.0 35.0H733.0C747.0 35.0 757.0 40.0 760.0 51.0C728.0 79.0 681.0 116.0 681.0 116.0L638.0 65.0Z"/></g>
<g fill="green" transform="translate(200 100) scale(0.1 -0.1)"><path d="M0.0 0.0C-3.0 -56.0 -54.0 -100.0 -97.0 -116.0C-134.0 -131.0 -160.0 -162.0 -149.0 -205.0C-136.0 -250.0 -84.0 -265.0 -43.0 -245.0C17.0 -218.0 60.0 -129.0 12.0 -0.0ZM133.0 -4.0 123.0 -8.0C139.0 -67.0 150.0 -142.0 142.0 -211.0C240.0 -321.0 385.0 -124.0 133.0 -4.0ZM307.0 -7.0 298.0 -12.0C336.0 -68.0 376.0 -147.0 388.0 -219.0C509.0 -312.0 621.0 -74.0 307.0 -7.0ZM509.0 -9.0 502.0 -16.0C569.0 -66.0 637.0 -152.0 661.0 -232.0C799.0 -311.0 881.0 -31.0 509.0 -9.0ZM41.0 470.0V442.0H583.0V470.0ZM41.0 316.0V288.0H588.0V316.0ZM525.0 625.0V255.0H550.0C598.0 255.0 671.0 279.0 672.0 287.0V574.0C693.0 578.0 705.0 587.0 712.0 595.0L579.0 696.0L515.0 625.0ZM-46.0 625.0V224.0H-25.0C35.0 224.0 99.0 255.0 99.0 269.0V597.0H561.0V625.0H108.0L-46.0 684.0ZM238.0 625.0V35.0H383.0V625.0ZM-52.0 184.0 -44.0 156.0H669.0C683.0 156.0 694.0 161.0 697.0 172.0C651.0 213.0 575.0 274.0 575.0 274.0L507.0 184.0ZM-147.0 44.0 -139.0 16.0H753.0C767.0 16.0 779.0 21.0 782.0 32.0C731.0 77.0 646.0 143.0 646.0 143.0L571.0 44.0Z"/></g>
<g fill="green" transform="translate(300 100) scale(0.1 -0.1)"><path d="M0.0 0.0C-9.0 -70.0 -65.0 -125.0 -110.0 -145.0C-127.0 -154.0 -139.0 -170.0 -131.0 -185.0C-121.0 -203.0 -89.0 -198.0 -66.0 -184.0C-27.0 -161.0 28.0 -102.0 17.0 -1.0ZM146.0 -8.0 133.0 -12.0C153.0 -55.0 176.0 -124.0 178.0 -175.0C222.0 -218.0 271.0 -118.0 146.0 -8.0ZM329.0 -7.0 317.0 -13.0C351.0 -54.0 395.0 -123.0 404.0 -175.0C455.0 -215.0 497.0 -102.0 329.0 -7.0ZM515.0 1.0 504.0 -9.0C563.0 -50.0 640.0 -128.0 661.0 -188.0C720.0 -223.0 746.0 -91.0 515.0 1.0ZM8.0 462.0V434.0H563.0V462.0ZM3.0 318.0V289.0H568.0V318.0ZM541.0 613.0V256.0H546.0C560.0 256.0 582.0 269.0 583.0 274.0V580.0C598.0 582.0 613.0 590.0 619.0 596.0L559.0 643.0L533.0 613.0ZM-19.0 613.0V242.0H-12.0C6.0 242.0 23.0 252.0 23.0 257.0V586.0H570.0V613.0H28.0L-19.0 638.0ZM260.0 615.0V45.0H301.0V615.0ZM-47.0 189.0 -40.0 161.0H610.0C622.0 161.0 631.0 165.0 634.0 176.0C605.0 202.0 561.0 236.0 561.0 236.0L522.0 189.0ZM-139.0 62.0 -131.0 33.0H690.0C703.0 33.0 713.0 38.0 716.0 48.0C685.0 75.0 641.0 110.0 641.0 110.0L600.0 62.0Z"/></g>
<g fill="green" transform="translate(400 100) scale(0.1 -0.1)"><path d="M0.0 0.0C-3.0 -53.0 -50.0 -95.0 -91.0 -110.0C-125.0 -124.0 -150.0 -154.0 -139.0 -194.0C-127.0 -237.0 -78.0 -251.0 -39.0 -232.0C17.0 -206.0 57.0 -122.0 11.0 0.0ZM126.0 -3.0 116.0 -7.0C132.0 -63.0 142.0 -134.0 135.0 -200.0C228.0 -304.0 363.0 -117.0 126.0 -3.0ZM290.0 -6.0 281.0 -11.0C317.0 -64.0 355.0 -139.0 366.0 -207.0C480.0 -295.0 586.0 -71.0 290.0 -6.0ZM480.0 -8.0 473.0 -15.0C537.0 -62.0 601.0 -143.0 623.0 -219.0C753.0 -294.0 831.0 -30.0 480.0 -8.0ZM41.0 439.0V412.0H547.0V439.0ZM37.0 294.0V268.0H557.0V294.0ZM498.0 591.0V237.0H521.0C567.0 237.0 636.0 260.0 637.0 267.0V543.0C657.0 547.0 668.0 555.0 675.0 563.0L549.0 659.0L488.0 591.0ZM-46.0 591.0V207.0H-26.0C31.0 207.0 91.0 237.0 91.0 250.0V565.0H531.0V591.0H100.0L-46.0 647.0ZM225.0 596.0V33.0H362.0V596.0ZM-48.0 175.0 -41.0 149.0H631.0C644.0 149.0 654.0 154.0 657.0 164.0C614.0 203.0 542.0 261.0 542.0 261.0L477.0 175.0ZM-138.0 42.0 -130.0 15.0H710.0C723.0 15.0 734.0 20.0 737.0 31.0C689.0 73.0 608.0 136.0 608.0 136.0L537.0 42.0Z"/></g>
<g fill="green" transform="translate(500 100) scale(0.1 -0.1)"><path d="M-0.0 0.0C-11.0 -56.0 -70.0 -92.0 -115.0 -103.0C-134.0 -112.0 -146.0 -128.0 -140.0 -145.0C-131.0 -164.0 -100.0 -163.0 -73.0 -152.0C-31.0 -135.0 27.0 -90.0 19.0 -1.0ZM165.0 -4.0 151.0 -10.0C169.0 -42.0 189.0 -97.0 189.0 -137.0C232.0 -180.0 287.0 -87.0 165.0 -4.0ZM372.0 -4.0 359.0 -12.0C389.0 -44.0 426.0 -101.0 435.0 -141.0C485.0 -180.0 528.0 -75.0 372.0 -4.0ZM581.0 5.0 571.0 -6.0C630.0 -39.0 708.0 -104.0 734.0 -154.0C798.0 -183.0 815.0 -51.0 581.0 5.0ZM-69.0 675.0V644.0H731.0V675.0ZM89.0 480.0V449.0H544.0V480.0ZM524.0 595.0V417.0H530.0C546.0 417.0 570.0 429.0 571.0 436.0V559.0C587.0 562.0 601.0 570.0 606.0 576.0L543.0 624.0L516.0 595.0ZM63.0 595.0V414.0H71.0C90.0 414.0 110.0 426.0 110.0 430.0V564.0H545.0V595.0H115.0L63.0 621.0ZM292.0 402.0V39.0H339.0V402.0ZM-75.0 153.0 -65.0 121.0H692.0C707.0 121.0 717.0 127.0 720.0 138.0C690.0 164.0 647.0 194.0 647.0 194.0L609.0 153.0ZM-167.0 56.0 -157.0 26.0H773.0C788.0 26.0 797.0 31.0 800.0 42.0C770.0 69.0 725.0 102.0 725.0 102.0L684.0 56.0Z"/></g>
<g fill="green" transform="translate(600 100) scale(0.1 -0.1)"><path d="M0.0 0.0C-13.0 -46.0 -79.0 -76.0 -131.0 -83.0C-169.0 -97.0 -198.0 -125.0 -190.0 -168.0C-180.0 -214.0 -128.0 -232.0 -84.0 -218.0C-17.0 -198.0 42.0 -120.0 14.0 -1.0ZM116.0 -18.0 106.0 -22.0C115.0 -65.0 119.0 -122.0 107.0 -176.0C195.0 -288.0 369.0 -117.0 116.0 -18.0ZM292.0 -15.0 284.0 -21.0C321.0 -64.0 360.0 -132.0 370.0 -194.0C491.0 -277.0 597.0 -44.0 292.0 -15.0ZM510.0 -17.0 503.0 -24.0C561.0 -70.0 638.0 -147.0 676.0 -214.0C817.0 -268.0 869.0 -6.0 510.0 -17.0ZM-39.0 630.0V601.0H678.0V630.0ZM116.0 448.0V418.0H480.0V448.0ZM424.0 555.0V383.0H451.0C495.0 383.0 567.0 406.0 568.0 415.0V511.0C583.0 514.0 593.0 521.0 597.0 527.0L475.0 616.0L416.0 555.0ZM40.0 555.0V367.0H58.0C113.0 367.0 175.0 395.0 175.0 406.0V525.0H472.0V555.0H181.0L40.0 608.0ZM225.0 370.0V20.0H369.0V370.0ZM-86.0 121.0 -77.0 91.0H678.0C693.0 91.0 704.0 96.0 707.0 108.0C662.0 143.0 592.0 192.0 592.0 192.0L530.0 121.0ZM-178.0 31.0 -170.0 2.0H762.0C777.0 2.0 788.0 7.0 791.0 18.0C744.0 56.0 671.0 105.0 671.0 105.0L606.0 31.0Z"/></g>
<g fill="red" transform="translate(100 200) scale(0.1 -0.1)"><path d="M0.0 0.0C-10.0 -74.0 -69.0 -131.0 -117.0 -152.0C-135.0 -162.0 -147.0 -179.0 -139.0 -195.0C-128.0 -214.0 -95.0 -209.0 -70.0 -194.0C-29.0 -170.0 30.0 -108.0 18.0 -1.0ZM155.0 -8.0 141.0 -13.0C162.0 -58.0 187.0 -131.0 189.0 -184.0C235.0 -230.0 287.0 -124.0 155.0 -8.0ZM350.0 -7.0 337.0 -14.0C373.0 -57.0 419.0 -130.0 429.0 -184.0C483.0 -227.0 527.0 -107.0 350.0 -7.0ZM547.0 1.0 536.0 -9.0C598.0 -53.0 680.0 -135.0 702.0 -198.0C765.0 -235.0 792.0 -95.0 547.0 1.0ZM6.0 495.0V465.0H601.0V495.0ZM6.0 341.0V311.0H601.0V341.0ZM572.0 649.0V276.0H578.0C593.0 276.0 616.0 289.0 617.0 295.0V613.0C633.0 616.0 649.0 624.0 655.0 630.0L591.0 680.0L564.0 649.0ZM-18.0 649.0V261.0H-10.0C9.0 261.0 27.0 272.0 27.0 277.0V620.0H603.0V649.0H32.0L-18.0 675.0ZM276.0 645.0V47.0H320.0V645.0ZM-51.0 199.0 -43.0 169.0H648.0C661.0 169.0 671.0 174.0 674.0 185.0C643.0 213.0 596.0 249.0 596.0 249.0L555.0 199.0ZM-148.0 65.0 -139.0 35.0H733.0C747.0 35.0 757.0 40.0 760.0 51.0C728.0 79.0 681.0 116.0 681.0 116.0L638.0 65.0Z"/></g>
<g fill="black" opacity=".8" transform="translate(100 200) scale(0.1 -0.1)"><path d="M0.0 0.0C-10.0 -74.0 -69.0 -131.0 -117.0 -152.0C-135.0 -162.0 -147.0 -179.0 -139.0 -195.0C-128.0 -214.0 -95.0 -209.0 -70.0 -194.0C-29.0 -170.0 30.0 -108.0 18.0 -1.0ZM155.0 -8.0 141.0 -13.0C162.0 -58.0 187.0 -131.0 189.0 -184.0C235.0 -230.0 287.0 -124.0 155.0 -8.0ZM350.0 -7.0 337.0 -14.0C373.0 -57.0 419.0 -130.0 429.0 -184.0C483.0 -227.0 527.0 -107.0 350.0 -7.0ZM547.0 1.0 536.0 -9.0C598.0 -53.0 680.0 -135.0 702.0 -198.0C765.0 -235.0 792.0 -95.0 547.0 1.0ZM6.0 495.0V465.0H601.0V495.0ZM6.0 341.0V311.0H601.0V341.0ZM572.0 649.0V276.0H578.0C593.0 276.0 616.0 289.0 617.0 295.0V613.0C633.0 616.0 649.0 624.0 655.0 630.0L591.0 680.0L564.0 649.0ZM-18.0 649.0V261.0H-10.0C9.0 261.0 27.0 272.0 27.0 277.0V620.0H603.0V649.0H32.0L-18.0 675.0ZM276.0 645.0V47.0H320.0V645.0ZM-51.0 199.0 -43.0 169.0H648.0C661.0 169.0 671.0 174.0 674.0 185.0C643.0 213.0 596.0 249.0 596.0 249.0L555.0 199.0ZM-148.0 65.0 -139.0 35.0H733.0C747.0 35.0 757.0 40.0 760.0 51.0C728.0 79.0 681.0 116.0 681.0 116.0L638.0 65.0Z"/></g>
<g fill="red" transform="translate(200 200) scale(0.1 -0.1)"><path d="M0.0 0.0C-3.0 -56.0 -54.0 -100.0 -97.0 -116.0C-134.0 -131.0 -160.0 -162.0 -149.0 -205.0C-136.0 -250.0 -84.0 -265.0 -43.0 -245.0C17.0 -218.0 60.0 -129.0 12.0 0.0ZM133.0 -4.0 123.0 -8.0C139.0 -67.0 150.0 -142.0 142.0 -211.0C240.0 -321.0 385.0 -124.0 133.0 -4.0ZM307.0 -7.0 298.0 -12.0C336.0 -68.0 376.0 -147.0 388.0 -219.0C509.0 -312.0 621.0 -74.0 307.0 -7.0ZM509.0 -9.0 502.0 -16.0C569.0 -66.0 637.0 -152.0 661.0 -232.0C799.0 -311.0 881.0 -31.0 509.0 -9.0ZM41.0 470.0V442.0H583.0V470.0ZM41.0 316.0V288.0H588.0V316.0ZM525.0 625.0V255.0H550.0C598.0 255.0 671.0 279.0 672.0 287.0V574.0C693.0 578.0 705.0 587.0 712.0 595.0L579.0 696.0L515.0 625.0ZM-46.0 625.0V224.0H-25.0C35.0 224.0 99.0 255.0 99.0 269.0V597.0H561.0V625.0H108.0L-46.0 684.0ZM238.0 625.0V35.0H383.0V625.0ZM-52.0 184.0 -44.0 156.0H669.0C683.0 156.0 694.0 161.0 697.0 172.0C651.0 213.0 575.0 274.0 575.0 274.0L507.0 184.0ZM-147.0 44.0 -139.0 16.0H753.0C767.0 16.0 779.0 21.0 782.0 32.0C731.0 77.0 646.0 143.0 646.0 143.0L571.0 44.0Z"/></g>
<g fill="black" opacity=".8" transform="translate(200 200) scale(0.1 -0.1)"><path d="M0.0 0.0C-3.0 -56.0 -54.0 -100.0 -97.0 -116.0C-134.0 -131.0 -160.0 -162.0 -149.0 -205.0C-136.0 -250.0 -84.0 -265.0 -43.0 -245.0C17.0 -218.0 60.0 -129.0 12.0 0.0ZM133.0 -4.0 123.0 -8.0C139.0 -67.0 150.0 -142.0 142.0 -211.0C240.0 -321.0 385.0 -124.0 133.0 -4.0ZM307.0 -7.0 298.0 -12.0C336.0 -68.0 376.0 -147.0 388.0 -219.0C509.0 -312.0 621.0 -74.0 307.0 -7.0ZM509.0 -9.0 502.0 -16.0C569.0 -66.0 637.0 -152.0 661.0 -232.0C799.0 -311.0 881.0 -31.0 509.0 -9.0ZM41.0 470.0V442.0H583.0V470.0ZM41.0 316.0V288.0H588.0V316.0ZM525.0 625.0V255.0H550.0C598.0 255.0 671.0 279.0 672.0 287.0V574.0C693.0 578.0 705.0 587.0 712.0 595.0L579.0 696.0L515.0 625.0ZM-46.0 625.0V224.0H-25.0C35.0 224.0 99.0 255.0 99.0 269.0V597.0H561.0V625.0H108.0L-46.0 684.0ZM238.0 625.0V35.0H383.0V625.0ZM-52.0 184.0 -44.0 156.0H669.0C683.0 156.0 694.0 161.0 697.0 172.0C651.0 213.0 575.0 274.0 575.0 274.0L507.0 184.0ZM-147.0 44.0 -139.0 16.0H753.0C767.0 16.0 779.0 21.0 782.0 32.0C731.0 77.0 646.0 143.0 646.0 143.0L571.0 44.0Z"/></g>
<g fill="red" transform="translate(300 200) scale(0.1 -0.1)"><path d="M0.0 0.0C-10.0 -52.0 -66.0 -86.0 -108.0 -96.0C-126.0 -104.0 -138.0 -119.0 -132.0 -135.0C-124.0 -153.0 -94.0 -152.0 -69.0 -142.0C-29.0 -126.0 25.0 -84.0 18.0 -1.0ZM156.0 -4.0 143.0 -9.0C160.0 -39.0 178.0 -90.0 178.0 -128.0C219.0 -168.0 271.0 -81.0 156.0 -4.0ZM351.0 -4.0 339.0 -11.0C367.0 -41.0 402.0 -94.0 410.0 -132.0C457.0 -168.0 498.0 -70.0 351.0 -4.0ZM549.0 5.0 539.0 -6.0C595.0 -36.0 668.0 -97.0 693.0 -144.0C753.0 -171.0 769.0 -47.0 549.0 5.0ZM-67.0 642.0V613.0H693.0V642.0ZM86.0 457.0V427.0H511.0V457.0ZM493.0 559.0V397.0H498.0C513.0 397.0 536.0 409.0 537.0 415.0V526.0C552.0 528.0 565.0 536.0 570.0 542.0L511.0 587.0L485.0 559.0ZM62.0 559.0V395.0H69.0C87.0 395.0 106.0 406.0 106.0 410.0V530.0H512.0V559.0H111.0L62.0 584.0ZM276.0 372.0V37.0H320.0V372.0ZM-71.0 143.0 -62.0 113.0H654.0C668.0 113.0 677.0 118.0 680.0 129.0C652.0 153.0 612.0 181.0 612.0 181.0L576.0 143.0ZM-158.0 53.0 -149.0 24.0H730.0C744.0 24.0 753.0 29.0 756.0 39.0C727.0 65.0 685.0 96.0 685.0 96.0L646.0 53.0Z"/></g>
<g fill="black" opacity=".8" transform="translate(300 200) scale(0.1 -0.1)"><path d="M0.0 0.0C-10.0 -52.0 -66.0 -86.0 -108.0 -96.0C-126.0 -104.0 -138.0 -119.0 -132.0 -135.0C-124.0 -153.0 -94.0 -152.0 -69.0 -142.0C-29.0 -126.0 25.0 -84.0 18.0 -1.0ZM156.0 -4.0 143.0 -9.0C160.0 -39.0 178.0 -90.0 178.0 -128.0C219.0 -168.0 271.0 -81.0 156.0 -4.0ZM351.0 -4.0 339.0 -11.0C367.0 -41.0 402.0 -94.0 410.0 -132.0C457.0 -168.0 498.0 -70.0 351.0 -4.0ZM549.0 5.0 539.0 -6.0C595.0 -36.0 668.0 -97.0 693.0 -144.0C753.0 -171.0 769.0 -47.0 549.0 5.0ZM-67.0 642.0V613.0H693.0V642.0ZM86.0 457.0V427.0H511.0V457.0ZM493.0 559.0V397.0H498.0C513.0 397.0 536.0 409.0 537.0 415.0V526.0C552.0 528.0 565.0 536.0 570.0 542.0L511.0 587.0L485.0 559.0ZM62.0 559.0V395.0H69.0C87.0 395.0 106.0 406.0 106.0 410.0V530.0H512.0V559.0H111.0L62.0 584.0ZM276.0 372.0V37.0H320.0V372.0ZM-71.0 143.0 -62.0 113.0H654.0C668.0 113.0 677.0 118.0 680.0 129.0C652.0 153.0 612.0 181.0 612.0 181.0L576.0 143.0ZM-158.0 53.0 -149.0 24.0H730.0C744.0 24.0 753.0 29.0 756.0 39.0C727.0 65.0 685.0 96.0 685.0 96.0L646.0 53.0Z"/></g>
<g fill="red" transform="translate(400 200) scale(0.1 -0.1)"><path d="M0.0 0.0C-13.0 -43.0 -75.0 -71.0 -125.0 -77.0C-160.0 -90.0 -188.0 -117.0 -180.0 -157.0C-171.0 -201.0 -122.0 -218.0 -80.0 -205.0C-17.0 -186.0 39.0 -113.0 13.0 -1.0ZM109.0 -17.0 99.0 -21.0C108.0 -61.0 111.0 -114.0 100.0 -165.0C183.0 -271.0 347.0 -110.0 109.0 -17.0ZM275.0 -14.0 267.0 -20.0C302.0 -60.0 339.0 -124.0 348.0 -182.0C462.0 -260.0 562.0 -41.0 275.0 -14.0ZM481.0 -16.0 474.0 -23.0C529.0 -66.0 602.0 -138.0 638.0 -201.0C771.0 -251.0 819.0 -5.0 481.0 -16.0ZM-39.0 599.0V571.0H642.0V599.0ZM112.0 426.0V398.0H449.0V426.0ZM397.0 521.0V365.0H422.0C464.0 365.0 532.0 387.0 533.0 395.0V480.0C547.0 483.0 556.0 489.0 560.0 495.0L445.0 579.0L389.0 521.0ZM40.0 521.0V350.0H57.0C109.0 350.0 167.0 377.0 167.0 387.0V493.0H442.0V521.0H173.0L40.0 571.0ZM212.0 341.0V18.0H348.0V341.0ZM-82.0 112.0 -74.0 84.0H640.0C654.0 84.0 664.0 89.0 667.0 100.0C625.0 133.0 559.0 179.0 559.0 179.0L500.0 112.0ZM-169.0 29.0 -161.0 1.0H719.0C733.0 1.0 743.0 6.0 746.0 17.0C702.0 52.0 633.0 98.0 633.0 98.0L572.0 29.0Z"/></g>
<g fill="black" opacity=".8" transform="translate(400 200) scale(0.1 -0.1)"><path d="M0.0 0.0C-13.0 -43.0 -75.0 -71.0 -125.0 -77.0C-160.0 -90.0 -188.0 -117.0 -180.0 -157.0C-171.0 -201.0 -122.0 -218.0 -80.0 -205.0C-17.0 -186.0 39.0 -113.0 13.0 -1.0ZM109.0 -17.0 99.0 -21.0C108.0 -61.0 111.0 -114.0 100.0 -165.0C183.0 -271.0 347.0 -110.0 109.0 -17.0ZM275.0 -14.0 267.0 -20.0C302.0 -60.0 339.0 -124.0 348.0 -182.0C462.0 -260.0 562.0 -41.0 275.0 -14.0ZM481.0 -16.0 474.0 -23.0C529.0 -66.0 602.0 -138.0 638.0 -201.0C771.0 -251.0 819.0 -5.0 481.0 -16.0ZM-39.0 599.0V571.0H642.0V599.0ZM112.0 426.0V398.0H449.0V426.0ZM397.0 521.0V365.0H422.0C464.0 365.0 532.0 387.0 533.0 395.0V480.0C547.0 483.0 556.0 489.0 560.0 495.0L445.0 579.0L389.0 521.0ZM40.0 521.0V350.0H57.0C109.0 350.0 167.0 377.0 167.0 387.0V493.0H442.0V521.0H173.0L40.0 571.0ZM212.0 341.0V18.0H348.0V341.0ZM-82.0 112.0 -74.0 84.0H640.0C654.0 84.0 664.0 89.0 667.0 100.0C625.0 133.0 559.0 179.0 559.0 179.0L500.0 112.0ZM-169.0 29.0 -161.0 1.0H719.0C733.0 1.0 743.0 6.0 746.0 17.0C702.0 52.0 633.0 98.0 633.0 98.0L572.0 29.0Z"/></g>
</svg>
