<?xml version="1.0" encoding="UTF-8"?>
<svg width="1700" height="300" xmlns="http://www.w3.org/2000/svg">
<rect width="100%" height="100%" fill="white"/>
<g fill="green" transform="translate(100 100) scale(0.1 -0.1)"><path d="M0.0 0.0 -12.0 -5.0C7.0 -38.0 29.0 -94.0 30.0 -136.0C69.0 -173.0 114.0 -85.0 0.0 0.0ZM36.0 -409.0V-436.0H523.0V-409.0ZM825.0 -186.0V-380.0H830.0C843.0 -380.0 865.0 -370.0 866.0 -366.0V-222.0C883.0 -218.0 898.0 -211.0 905.0 -204.0L843.0 -157.0L816.0 -186.0ZM-95.0 81.0V-257.0H-88.0C-70.0 -257.0 -54.0 -247.0 -54.0 -243.0V55.0H389.0V81.0H-50.0L-95.0 105.0ZM42.0 52.0 45.0 -375.0H105.0V52.0ZM-137.0 -308.0 -129.0 -335.0H410.0C423.0 -335.0 432.0 -330.0 433.0 -320.0C407.0 -295.0 366.0 -264.0 366.0 -264.0L329.0 -308.0ZM162.0 -487.0 170.0 -514.0H1002.0C1015.0 -514.0 1023.0 -509.0 1026.0 -499.0C996.0 -473.0 948.0 -436.0 948.0 -436.0L908.0 -487.0ZM220.0 -11.0C216.0 -41.0 201.0 -110.0 189.0 -154.0L201.0 -158.0C221.0 -120.0 244.0 -77.0 258.0 -54.0C274.0 -55.0 284.0 -45.0 285.0 -39.0ZM-80.0 -490.0C-86.0 -558.0 -132.0 -618.0 -171.0 -640.0C-187.0 -651.0 -196.0 -667.0 -188.0 -681.0C-177.0 -697.0 -147.0 -690.0 -128.0 -674.0C-95.0 -650.0 -51.0 -587.0 -64.0 -491.0ZM296.0 -516.0 284.0 -525.0C332.0 -565.0 391.0 -636.0 405.0 -691.0C456.0 -726.0 487.0 -608.0 296.0 -516.0ZM30.0 -499.0 17.0 -503.0C31.0 -548.0 46.0 -619.0 43.0 -671.0C82.0 -715.0 132.0 -616.0 30.0 -499.0ZM172.0 -506.0 160.0 -511.0C187.0 -551.0 221.0 -617.0 227.0 -667.0C271.0 -705.0 314.0 -603.0 172.0 -506.0Z"/></g>
<g fill="green" transform="translate(200 100) scale(0.1 -0.1)"><path d="M0.0 0.0 -10.0 -4.0C4.0 -41.0 19.0 -94.0 18.0 -140.0C81.0 -204.0 171.0 -77.0 0.0 0.0ZM88.0 -437.0V-462.0H512.0V-437.0ZM743.0 -209.0V-388.0H767.0C810.0 -388.0 879.0 -368.0 880.0 -363.0V-259.0C902.0 -254.0 914.0 -244.0 919.0 -237.0L793.0 -142.0L733.0 -209.0ZM-111.0 57.0V-283.0H-95.0C-52.0 -283.0 -8.0 -261.0 -8.0 -250.0V31.0H359.0V57.0H2.0L-111.0 102.0ZM25.0 29.0 27.0 -399.0H173.0V29.0ZM-126.0 -319.0 -118.0 -345.0H424.0C437.0 -345.0 446.0 -340.0 449.0 -330.0C414.0 -300.0 358.0 -255.0 358.0 -255.0L308.0 -319.0ZM201.0 -510.0 209.0 -536.0H998.0C1011.0 -536.0 1021.0 -531.0 1023.0 -521.0C988.0 -486.0 925.0 -433.0 925.0 -433.0L869.0 -510.0ZM199.0 -17.0C199.0 -45.0 194.0 -115.0 190.0 -162.0L199.0 -164.0C226.0 -131.0 258.0 -91.0 275.0 -73.0C293.0 -73.0 303.0 -61.0 304.0 -53.0ZM-78.0 -503.0C-81.0 -566.0 -122.0 -621.0 -158.0 -642.0C-186.0 -657.0 -203.0 -683.0 -191.0 -714.0C-178.0 -746.0 -137.0 -751.0 -107.0 -729.0C-60.0 -700.0 -27.0 -617.0 -66.0 -503.0ZM278.0 -531.0 270.0 -538.0C324.0 -581.0 380.0 -654.0 399.0 -720.0C499.0 -781.0 559.0 -571.0 278.0 -531.0ZM17.0 -508.0 6.0 -512.0C18.0 -566.0 24.0 -640.0 16.0 -703.0C87.0 -789.0 195.0 -634.0 17.0 -508.0ZM142.0 -519.0 132.0 -525.0C163.0 -573.0 196.0 -642.0 203.0 -704.0C295.0 -778.0 383.0 -594.0 142.0 -519.0Z"/></g>
<g fill="green" transform="translate(300 100) scale(0.1 -0.1)"><path d="M0.0 0.0 -9.0 -4.0C6.0 -31.0 23.0 -76.0 23.0 -110.0C55.0 -140.0 93.0 -69.0 0.0 0.0ZM20.0 -366.0V-388.0H427.0V-366.0ZM748.0 -180.0V-321.0H752.0C762.0 -321.0 780.0 -313.0 781.0 -310.0V-209.0C795.0 -206.0 807.0 -200.0 813.0 -195.0L762.0 -157.0L741.0 -180.0ZM-78.0 77.0V-201.0H-73.0C-58.0 -201.0 -45.0 -193.0 -45.0 -190.0V56.0H324.0V77.0H-42.0L-78.0 97.0ZM15.0 82.0 19.0 -306.0H46.0V82.0ZM-115.0 -243.0 -109.0 -265.0H340.0C350.0 -265.0 358.0 -261.0 358.0 -253.0C337.0 -233.0 303.0 -207.0 303.0 -207.0L273.0 -243.0ZM179.0 -398.0 185.0 -419.0H904.0C915.0 -419.0 921.0 -415.0 924.0 -407.0C899.0 -386.0 859.0 -355.0 859.0 -355.0L825.0 -398.0ZM167.0 -22.0C166.0 -41.0 157.0 -95.0 152.0 -129.0L161.0 -132.0C173.0 -102.0 188.0 -71.0 198.0 -58.0C210.0 -59.0 218.0 -50.0 219.0 -46.0ZM-67.0 -388.0C-72.0 -445.0 -112.0 -494.0 -145.0 -512.0C-158.0 -521.0 -166.0 -533.0 -159.0 -545.0C-151.0 -558.0 -126.0 -552.0 -110.0 -539.0C-82.0 -520.0 -43.0 -469.0 -54.0 -389.0ZM234.0 -420.0 224.0 -427.0C264.0 -461.0 313.0 -520.0 324.0 -567.0C365.0 -596.0 391.0 -498.0 234.0 -420.0ZM19.0 -397.0 9.0 -400.0C20.0 -438.0 31.0 -496.0 29.0 -539.0C60.0 -575.0 101.0 -494.0 19.0 -397.0ZM138.0 -405.0 129.0 -409.0C151.0 -442.0 178.0 -497.0 183.0 -539.0C219.0 -570.0 254.0 -486.0 138.0 -405.0Z"/></g>
<g fill="green" transform="translate(400 100) scale(0.1 -0.1)"><path d="M0.0 0.0 -8.0 -3.0C3.0 -33.0 15.0 -75.0 14.0 -112.0C66.0 -165.0 142.0 -61.0 0.0 0.0ZM70.0 -394.0V-414.0H419.0V-394.0ZM675.0 -202.0V-329.0H696.0C731.0 -329.0 789.0 -313.0 790.0 -309.0V-244.0C808.0 -239.0 818.0 -231.0 822.0 -225.0L717.0 -146.0L667.0 -202.0ZM-87.0 54.0V-224.0H-74.0C-40.0 -224.0 -5.0 -206.0 -5.0 -197.0V33.0H296.0V54.0H3.0L-87.0 90.0ZM5.0 62.0 8.0 -328.0H113.0V62.0ZM-100.0 -253.0 -93.0 -274.0H351.0C361.0 -274.0 369.0 -270.0 371.0 -262.0C344.0 -238.0 300.0 -203.0 300.0 -203.0L261.0 -253.0ZM222.0 -418.0 228.0 -439.0H898.0C908.0 -439.0 916.0 -435.0 918.0 -427.0C891.0 -399.0 841.0 -357.0 841.0 -357.0L796.0 -418.0ZM152.0 -30.0C153.0 -47.0 153.0 -100.0 153.0 -136.0L160.0 -137.0C177.0 -112.0 199.0 -84.0 210.0 -76.0C224.0 -76.0 232.0 -65.0 233.0 -59.0ZM-64.0 -402.0C-66.0 -456.0 -99.0 -502.0 -129.0 -519.0C-151.0 -531.0 -165.0 -552.0 -155.0 -576.0C-145.0 -601.0 -114.0 -605.0 -89.0 -587.0C-50.0 -564.0 -22.0 -496.0 -55.0 -402.0ZM220.0 -435.0 214.0 -441.0C260.0 -477.0 308.0 -538.0 324.0 -594.0C404.0 -642.0 450.0 -471.0 220.0 -435.0ZM12.0 -407.0 3.0 -411.0C12.0 -456.0 16.0 -517.0 10.0 -570.0C66.0 -639.0 152.0 -514.0 12.0 -407.0ZM115.0 -419.0 106.0 -424.0C132.0 -464.0 159.0 -521.0 165.0 -573.0C239.0 -633.0 310.0 -484.0 115.0 -419.0Z"/></g>
<g fill="green" transform="translate(500 100) scale(0.1 -0.1)"><path d="M0.0 0.0 -12.0 -6.0C16.0 -44.0 52.0 -107.0 57.0 -155.0C102.0 -193.0 144.0 -89.0 0.0 0.0ZM-402.0 -303.0V-332.0H146.0V-303.0ZM454.0 74.0V-276.0H460.0C474.0 -276.0 497.0 -264.0 498.0 -260.0V39.0C514.0 42.0 529.0 50.0 535.0 56.0L473.0 104.0L445.0 74.0ZM-110.0 64.0V-286.0H-102.0C-84.0 -286.0 -66.0 -277.0 -66.0 -270.0V36.0H508.0V64.0H-61.0L-110.0 90.0ZM587.0 -50.0 572.0 -609.0H576.0V-50.0ZM-162.0 -348.0 -153.0 -378.0H547.0C560.0 -378.0 569.0 -372.0 572.0 -362.0C542.0 -334.0 496.0 -300.0 496.0 -300.0L456.0 -348.0ZM-264.0 -478.0 -255.0 -508.0H600.0C614.0 -508.0 622.0 -503.0 626.0 -492.0C594.0 -465.0 546.0 -427.0 546.0 -427.0L503.0 -478.0ZM605.0 101.0C566.0 20.0 490.0 -80.0 415.0 -137.0L424.0 -150.0C513.0 -99.0 600.0 -15.0 646.0 57.0C668.0 53.0 679.0 56.0 683.0 65.0ZM-100.0 -535.0C-109.0 -611.0 -166.0 -672.0 -213.0 -693.0C-231.0 -704.0 -241.0 -720.0 -233.0 -736.0C-223.0 -755.0 -191.0 -748.0 -167.0 -733.0C-127.0 -708.0 -69.0 -644.0 -83.0 -536.0ZM608.0 -482.0 598.0 -495.0C668.0 -535.0 763.0 -617.0 792.0 -679.0C859.0 -710.0 877.0 -564.0 608.0 -482.0ZM124.0 -540.0 111.0 -547.0C139.0 -588.0 175.0 -656.0 184.0 -704.0C231.0 -744.0 275.0 -642.0 124.0 -540.0ZM318.0 -545.0 307.0 -552.0C345.0 -590.0 397.0 -654.0 409.0 -703.0C464.0 -742.0 503.0 -624.0 318.0 -545.0Z"/></g>
<g fill="green" transform="translate(600 100) scale(0.1 -0.1)"><path d="M0.0 0.0 -9.0 -4.0C6.0 -43.0 23.0 -98.0 21.0 -148.0C103.0 -228.0 219.0 -69.0 0.0 0.0ZM-403.0 -342.0V-369.0H119.0V-342.0ZM397.0 58.0V-290.0H422.0C467.0 -290.0 537.0 -267.0 538.0 -261.0V8.0C558.0 13.0 570.0 22.0 575.0 30.0L449.0 125.0L387.0 58.0ZM-145.0 49.0V-326.0H-125.0C-69.0 -326.0 -8.0 -296.0 -8.0 -283.0V21.0H473.0V49.0H3.0L-145.0 105.0ZM508.0 -63.0 496.0 -622.0H603.0V-63.0ZM-161.0 -351.0 -152.0 -379.0H538.0C552.0 -379.0 563.0 -374.0 565.0 -363.0C522.0 -325.0 450.0 -269.0 450.0 -269.0L387.0 -351.0ZM-258.0 -488.0 -250.0 -516.0H580.0C594.0 -516.0 605.0 -510.0 608.0 -500.0C565.0 -461.0 493.0 -406.0 493.0 -406.0L427.0 -488.0ZM511.0 105.0C492.0 24.0 444.0 -78.0 394.0 -138.0L398.0 -145.0C507.0 -110.0 612.0 -41.0 675.0 27.0C700.0 24.0 710.0 28.0 714.0 39.0ZM-108.0 -534.0C-112.0 -596.0 -165.0 -644.0 -209.0 -662.0C-244.0 -677.0 -268.0 -708.0 -256.0 -749.0C-243.0 -792.0 -192.0 -804.0 -153.0 -783.0C-93.0 -754.0 -51.0 -664.0 -97.0 -534.0ZM555.0 -492.0 550.0 -498.0C608.0 -540.0 666.0 -613.0 689.0 -683.0C839.0 -769.0 940.0 -476.0 555.0 -492.0ZM86.0 -533.0 77.0 -538.0C105.0 -590.0 131.0 -662.0 130.0 -727.0C233.0 -824.0 359.0 -618.0 86.0 -533.0ZM274.0 -541.0 266.0 -547.0C307.0 -595.0 350.0 -666.0 365.0 -731.0C489.0 -816.0 590.0 -577.0 274.0 -541.0Z"/></g>
<g fill="green" transform="translate(700 100) scale(0.1 -0.1)"><path d="M0.0 0.0H-20.0C-24.0 -55.0 -34.0 -138.0 -53.0 -198.0C-30.0 -251.0 36.0 -177.0 0.0 0.0ZM489.0 -275.0V-306.0H746.0V-275.0ZM672.0 -46.0V-368.0H678.0C693.0 -368.0 717.0 -356.0 719.0 -351.0V-88.0C740.0 -83.0 757.0 -75.0 765.0 -66.0L693.0 -11.0L661.0 -46.0ZM-59.0 265.0V-228.0H-50.0C-31.0 -228.0 -12.0 -216.0 -12.0 -212.0V235.0H148.0V265.0H-7.0L-59.0 292.0ZM-33.0 -187.0 -37.0 -145.0H367.0V-187.0ZM-65.0 -304.0 -57.0 -334.0H159.0C173.0 -334.0 183.0 -328.0 185.0 -316.0C159.0 -290.0 119.0 -254.0 119.0 -254.0L82.0 -304.0ZM367.0 -540.0 375.0 -571.0H772.0C787.0 -571.0 796.0 -565.0 798.0 -553.0C770.0 -526.0 720.0 -484.0 720.0 -484.0L680.0 -540.0ZM204.0 -115.0C211.0 -123.0 210.0 -204.0 213.0 -256.0H228.0C234.0 -208.0 244.0 -157.0 245.0 -153.0C268.0 -153.0 275.0 -140.0 275.0 -133.0ZM-45.0 -600.0C-37.0 -668.0 -43.0 -770.0 -55.0 -811.0C-70.0 -832.0 -74.0 -859.0 -58.0 -872.0C-37.0 -887.0 -4.0 -866.0 -1.0 -836.0C8.0 -794.0 0.0 -698.0 -25.0 -601.0ZM145.0 -552.0 129.0 -558.0C152.0 -600.0 178.0 -666.0 176.0 -714.0C218.0 -758.0 271.0 -663.0 145.0 -552.0ZM29.0 -595.0 12.0 -599.0C28.0 -658.0 44.0 -750.0 38.0 -818.0C80.0 -869.0 133.0 -752.0 29.0 -595.0ZM70.0 -584.0 55.0 -588.0C81.0 -637.0 111.0 -715.0 114.0 -772.0C158.0 -815.0 204.0 -712.0 70.0 -584.0Z"/></g>
<g fill="green" transform="translate(800 100) scale(0.1 -0.1)"><path d="M0.0 0.0 -19.0 -3.0C-11.0 -63.0 -4.0 -150.0 -12.0 -215.0C9.0 -268.0 69.0 -196.0 0.0 0.0ZM573.0 -277.0V-306.0H775.0V-277.0ZM642.0 -59.0V-381.0H662.0C699.0 -381.0 761.0 -364.0 762.0 -359.0V-114.0C787.0 -108.0 803.0 -97.0 811.0 -88.0L687.0 6.0L631.0 -59.0ZM-57.0 250.0V-250.0H-42.0C-5.0 -250.0 28.0 -230.0 28.0 -220.0V220.0H170.0V250.0H34.0L-57.0 290.0ZM2.0 -222.0 -1.0 -188.0H380.0V-222.0ZM-64.0 -326.0 -55.0 -356.0H233.0C248.0 -356.0 259.0 -350.0 261.0 -338.0C224.0 -303.0 161.0 -249.0 161.0 -249.0L105.0 -326.0ZM401.0 -586.0 411.0 -616.0H824.0C838.0 -616.0 850.0 -610.0 852.0 -599.0C813.0 -556.0 739.0 -487.0 739.0 -487.0L674.0 -586.0ZM214.0 -126.0C219.0 -145.0 221.0 -241.0 224.0 -300.0L237.0 -301.0C248.0 -241.0 261.0 -170.0 260.0 -160.0C283.0 -157.0 290.0 -144.0 289.0 -135.0ZM-6.0 -634.0C1.0 -708.0 -20.0 -799.0 -35.0 -839.0C-59.0 -865.0 -65.0 -900.0 -43.0 -926.0C-17.0 -955.0 38.0 -943.0 51.0 -902.0C70.0 -845.0 56.0 -748.0 10.0 -634.0ZM189.0 -580.0 178.0 -586.0C203.0 -619.0 213.0 -675.0 198.0 -723.0C263.0 -805.0 376.0 -655.0 189.0 -580.0ZM67.0 -622.0 51.0 -627.0C70.0 -687.0 82.0 -777.0 72.0 -847.0C132.0 -918.0 209.0 -770.0 67.0 -622.0ZM112.0 -616.0 99.0 -622.0C124.0 -669.0 146.0 -739.0 139.0 -797.0C202.0 -868.0 292.0 -729.0 112.0 -616.0Z"/></g>
<g fill="green" transform="translate(900 100) scale(0.1 -0.1)"><path d="M0.0 0.0 -11.0 -7.0C19.0 -39.0 57.0 -95.0 64.0 -138.0C111.0 -174.0 153.0 -71.0 0.0 0.0ZM133.0 -273.0V-301.0H772.0V-273.0ZM725.0 -84.0V-339.0H731.0C744.0 -339.0 767.0 -328.0 768.0 -324.0V-120.0C783.0 -116.0 798.0 -109.0 805.0 -103.0L743.0 -55.0L716.0 -84.0ZM-115.0 48.0V-289.0H-108.0C-90.0 -289.0 -73.0 -278.0 -73.0 -274.0V21.0H533.0V48.0H-69.0L-115.0 73.0ZM-231.0 253.0 -213.0 -409.0H-221.0V253.0ZM-171.0 -335.0 -162.0 -363.0H571.0C584.0 -363.0 593.0 -358.0 595.0 -347.0C565.0 -321.0 520.0 -287.0 520.0 -287.0L479.0 -335.0ZM-85.0 -485.0 -76.0 -512.0H925.0C938.0 -512.0 947.0 -507.0 949.0 -497.0C919.0 -470.0 872.0 -434.0 872.0 -434.0L831.0 -485.0ZM82.0 -64.0C92.0 -72.0 103.0 -128.0 123.0 -169.0L136.0 -170.0C125.0 -137.0 121.0 -116.0 121.0 -117.0C134.0 -118.0 148.0 -103.0 149.0 -98.0ZM-97.0 -518.0C-110.0 -588.0 -174.0 -632.0 -226.0 -647.0C-244.0 -655.0 -257.0 -669.0 -251.0 -685.0C-243.0 -703.0 -211.0 -701.0 -184.0 -690.0C-140.0 -673.0 -72.0 -620.0 -81.0 -519.0ZM270.0 -599.0 258.0 -607.0C313.0 -654.0 384.0 -735.0 400.0 -799.0C457.0 -837.0 487.0 -704.0 270.0 -599.0ZM-12.0 -534.0 -26.0 -537.0C-15.0 -582.0 -6.0 -653.0 -11.0 -705.0C29.0 -754.0 86.0 -652.0 -12.0 -534.0ZM184.0 -537.0 171.0 -542.0C200.0 -586.0 236.0 -660.0 243.0 -716.0C292.0 -758.0 339.0 -646.0 184.0 -537.0Z"/></g>
<g fill="green" transform="translate(1000 100) scale(0.1 -0.1)"><path d="M0.0 0.0 -8.0 -4.0C9.0 -41.0 25.0 -90.0 25.0 -138.0C111.0 -220.0 229.0 -54.0 0.0 0.0ZM187.0 -275.0V-300.0H761.0V-275.0ZM637.0 -100.0V-347.0H663.0C711.0 -347.0 785.0 -323.0 786.0 -317.0V-151.0C808.0 -146.0 819.0 -136.0 824.0 -128.0L691.0 -28.0L627.0 -100.0ZM-147.0 32.0V-312.0H-128.0C-75.0 -312.0 -17.0 -284.0 -17.0 -271.0V6.0H481.0V32.0H-5.0L-147.0 87.0ZM-253.0 241.0 -240.0 -422.0H-132.0V241.0ZM-156.0 -356.0 -147.0 -383.0H562.0C575.0 -383.0 585.0 -377.0 588.0 -367.0C546.0 -329.0 474.0 -268.0 474.0 -268.0L409.0 -356.0ZM-72.0 -509.0 -64.0 -535.0H928.0C942.0 -535.0 952.0 -530.0 955.0 -520.0C912.0 -476.0 834.0 -410.0 834.0 -410.0L766.0 -509.0ZM78.0 -63.0C88.0 -65.0 104.0 -122.0 124.0 -167.0L135.0 -168.0C127.0 -139.0 134.0 -119.0 133.0 -127.0C149.0 -128.0 162.0 -111.0 162.0 -103.0ZM-107.0 -508.0C-112.0 -560.0 -162.0 -595.0 -207.0 -607.0C-241.0 -619.0 -268.0 -645.0 -259.0 -685.0C-251.0 -727.0 -207.0 -743.0 -166.0 -728.0C-103.0 -710.0 -53.0 -629.0 -96.0 -508.0ZM231.0 -596.0 222.0 -604.0C298.0 -661.0 381.0 -757.0 414.0 -843.0C530.0 -901.0 570.0 -651.0 231.0 -596.0ZM-43.0 -522.0 -53.0 -525.0C-51.0 -585.0 -57.0 -659.0 -71.0 -727.0C11.0 -839.0 162.0 -670.0 -43.0 -522.0ZM117.0 -530.0 107.0 -535.0C141.0 -594.0 177.0 -674.0 188.0 -748.0C299.0 -840.0 409.0 -618.0 117.0 -530.0Z"/></g>
<g fill="green" transform="translate(1100 100) scale(0.1 -0.1)"><path d="M0.0 0.0 -11.0 -9.0C18.0 -28.0 51.0 -67.0 63.0 -97.0C112.0 -123.0 137.0 -32.0 0.0 0.0ZM103.0 -473.0V-501.0H580.0V-473.0ZM748.0 -389.0V-479.0H754.0C768.0 -479.0 792.0 -467.0 793.0 -462.0V-428.0C812.0 -424.0 828.0 -416.0 836.0 -408.0L768.0 -358.0L739.0 -389.0ZM-103.0 -148.0V-368.0H-96.0C-78.0 -368.0 -59.0 -358.0 -59.0 -354.0V-177.0H355.0V-148.0H-54.0L-103.0 -123.0ZM21.0 -246.0 23.0 -379.0H149.0V-246.0ZM-132.0 -392.0 -123.0 -422.0H368.0C382.0 -422.0 392.0 -416.0 393.0 -405.0C369.0 -382.0 331.0 -356.0 331.0 -356.0L298.0 -392.0ZM143.0 -539.0 152.0 -568.0H906.0C920.0 -568.0 929.0 -562.0 932.0 -552.0C903.0 -526.0 858.0 -492.0 858.0 -492.0L821.0 -539.0ZM150.0 165.0C132.0 80.0 99.0 -2.0 60.0 -51.0L75.0 -62.0C121.0 -19.0 160.0 47.0 191.0 125.0C208.0 125.0 219.0 134.0 222.0 144.0ZM-76.0 -543.0C-80.0 -593.0 -121.0 -640.0 -153.0 -655.0C-169.0 -667.0 -178.0 -683.0 -171.0 -698.0C-160.0 -714.0 -131.0 -709.0 -112.0 -695.0C-83.0 -674.0 -48.0 -623.0 -59.0 -544.0ZM278.0 -550.0 266.0 -560.0C307.0 -588.0 357.0 -640.0 373.0 -681.0C423.0 -710.0 450.0 -605.0 278.0 -550.0ZM35.0 -543.0 22.0 -547.0C31.0 -585.0 40.0 -644.0 31.0 -688.0C69.0 -733.0 126.0 -643.0 35.0 -543.0ZM158.0 -546.0 146.0 -552.0C165.0 -585.0 189.0 -639.0 192.0 -679.0C232.0 -715.0 278.0 -627.0 158.0 -546.0Z"/></g>
<g fill="green" transform="translate(1200 100) scale(0.1 -0.1)"><path d="M0.0 0.0 -11.0 -6.0C11.0 -33.0 37.0 -81.0 43.0 -119.0C112.0 -159.0 164.0 -28.0 0.0 0.0ZM100.0 -491.0V-519.0H534.0V-491.0ZM647.0 -400.0V-468.0H671.0C714.0 -468.0 781.0 -444.0 782.0 -437.0V-446.0C802.0 -442.0 813.0 -434.0 817.0 -427.0L695.0 -338.0L637.0 -400.0ZM-148.0 -160.0V-375.0H-133.0C-92.0 -375.0 -48.0 -355.0 -48.0 -345.0V-188.0H338.0V-160.0H-39.0L-148.0 -116.0ZM-20.0 -261.0 -18.0 -383.0H175.0V-261.0ZM-177.0 -389.0 -168.0 -417.0H378.0C392.0 -417.0 401.0 -412.0 404.0 -401.0C369.0 -376.0 318.0 -343.0 318.0 -343.0L271.0 -389.0ZM128.0 -533.0 137.0 -562.0H896.0C910.0 -562.0 920.0 -556.0 922.0 -545.0C886.0 -515.0 827.0 -475.0 827.0 -475.0L775.0 -533.0ZM133.0 181.0C121.0 100.0 96.0 15.0 67.0 -40.0L80.0 -46.0C133.0 -9.0 179.0 48.0 218.0 121.0C238.0 122.0 250.0 133.0 253.0 144.0ZM-95.0 -531.0C-106.0 -584.0 -159.0 -630.0 -202.0 -644.0C-230.0 -660.0 -250.0 -686.0 -238.0 -717.0C-226.0 -752.0 -182.0 -757.0 -150.0 -738.0C-100.0 -711.0 -59.0 -637.0 -81.0 -532.0ZM243.0 -551.0 234.0 -558.0C275.0 -596.0 334.0 -658.0 361.0 -710.0C461.0 -751.0 502.0 -564.0 243.0 -551.0ZM-23.0 -541.0 -34.0 -545.0C-25.0 -587.0 -22.0 -650.0 -31.0 -702.0C36.0 -789.0 163.0 -647.0 -23.0 -541.0ZM98.0 -547.0 88.0 -554.0C118.0 -590.0 151.0 -649.0 156.0 -701.0C246.0 -765.0 328.0 -587.0 98.0 -547.0Z"/></g>
<g fill="red" transform="translate(100 200) scale(0.1 -0.1)"><path d="M0.0 0.0 -13.0 -6.0C16.0 -46.0 51.0 -112.0 56.0 -162.0C101.0 -202.0 146.0 -96.0 0.0 0.0ZM-88.0 -216.0V-246.0H502.0V-216.0ZM483.0 83.0V-281.0H489.0C504.0 -281.0 527.0 -269.0 528.0 -264.0V47.0C544.0 50.0 560.0 58.0 566.0 64.0L502.0 114.0L474.0 83.0ZM-112.0 83.0V-293.0H-104.0C-85.0 -293.0 -67.0 -282.0 -67.0 -277.0V54.0H521.0V83.0H-62.0L-112.0 109.0ZM184.0 83.0V-506.0H228.0V83.0ZM-163.0 -352.0 -154.0 -382.0H564.0C578.0 -382.0 587.0 -377.0 590.0 -366.0C559.0 -338.0 512.0 -302.0 512.0 -302.0L470.0 -352.0ZM-250.0 -490.0 -241.0 -520.0H641.0C655.0 -520.0 664.0 -515.0 667.0 -504.0C636.0 -476.0 588.0 -439.0 588.0 -439.0L545.0 -490.0ZM367.0 3.0C353.0 -40.0 319.0 -122.0 292.0 -174.0L304.0 -181.0C344.0 -136.0 386.0 -80.0 408.0 -47.0C428.0 -50.0 440.0 -40.0 442.0 -32.0ZM-98.0 -562.0C-108.0 -636.0 -167.0 -693.0 -215.0 -714.0C-233.0 -724.0 -245.0 -741.0 -237.0 -757.0C-226.0 -776.0 -193.0 -771.0 -168.0 -756.0C-127.0 -732.0 -68.0 -670.0 -80.0 -563.0ZM449.0 -561.0 438.0 -571.0C501.0 -617.0 584.0 -701.0 606.0 -765.0C670.0 -802.0 696.0 -659.0 449.0 -561.0ZM60.0 -570.0 46.0 -575.0C67.0 -620.0 92.0 -693.0 94.0 -746.0C140.0 -792.0 192.0 -686.0 60.0 -570.0ZM255.0 -569.0 242.0 -576.0C278.0 -619.0 324.0 -692.0 334.0 -746.0C388.0 -789.0 432.0 -669.0 255.0 -569.0Z"/></g>
<g fill="black" opacity=".8" transform="translate(100 200) scale(0.1 -0.1)"><path d="M0.0 0.0 -13.0 -6.0C15.0 -46.0 51.0 -112.0 55.0 -162.0C101.0 -202.0 146.0 -96.0 0.0 0.0ZM-88.0 -216.0V-246.0H502.0V-216.0ZM483.0 83.0V-281.0H489.0C503.0 -281.0 527.0 -268.0 528.0 -264.0V47.0C544.0 50.0 559.0 58.0 566.0 64.0L502.0 114.0L473.0 83.0ZM-112.0 83.0V-293.0H-104.0C-86.0 -293.0 -67.0 -283.0 -67.0 -277.0V54.0H522.0V83.0H-62.0L-112.0 109.0ZM184.0 83.0V-505.0H228.0V83.0ZM-163.0 -352.0 -154.0 -383.0H564.0C578.0 -383.0 587.0 -377.0 590.0 -366.0C559.0 -338.0 512.0 -302.0 512.0 -302.0L470.0 -352.0ZM-250.0 -490.0 -241.0 -520.0H641.0C655.0 -520.0 664.0 -515.0 667.0 -504.0C636.0 -476.0 588.0 -438.0 588.0 -438.0L545.0 -490.0ZM367.0 3.0C352.0 -40.0 319.0 -122.0 293.0 -174.0L304.0 -181.0C344.0 -136.0 386.0 -81.0 408.0 -47.0C427.0 -50.0 440.0 -40.0 443.0 -33.0ZM-98.0 -561.0C-108.0 -636.0 -166.0 -693.0 -215.0 -713.0C-233.0 -724.0 -245.0 -741.0 -237.0 -757.0C-226.0 -777.0 -193.0 -770.0 -168.0 -756.0C-128.0 -733.0 -68.0 -670.0 -81.0 -562.0ZM449.0 -561.0 438.0 -571.0C500.0 -616.0 584.0 -701.0 606.0 -765.0C670.0 -802.0 696.0 -659.0 449.0 -561.0ZM60.0 -570.0 46.0 -575.0C67.0 -620.0 92.0 -693.0 94.0 -746.0C140.0 -792.0 192.0 -686.0 60.0 -570.0ZM255.0 -569.0 242.0 -575.0C278.0 -618.0 324.0 -691.0 334.0 -746.0C389.0 -789.0 432.0 -669.0 255.0 -569.0Z"/></g>
<g fill="red" transform="translate(200 200) scale(0.1 -0.1)"><path d="M0.0 0.0 -10.0 -4.0C6.0 -46.0 22.0 -105.0 19.0 -158.0C102.0 -243.0 224.0 -79.0 0.0 0.0ZM-63.0 -227.0V-255.0H489.0V-227.0ZM423.0 72.0V-294.0H448.0C495.0 -294.0 567.0 -270.0 568.0 -263.0V21.0C589.0 25.0 601.0 35.0 607.0 43.0L476.0 142.0L413.0 72.0ZM-149.0 72.0V-325.0H-128.0C-70.0 -325.0 -7.0 -294.0 -7.0 -281.0V44.0H483.0V72.0H3.0L-149.0 130.0ZM133.0 72.0V-518.0H273.0V72.0ZM-157.0 -368.0 -149.0 -396.0H559.0C573.0 -396.0 584.0 -391.0 587.0 -380.0C541.0 -337.0 462.0 -272.0 462.0 -272.0L392.0 -368.0ZM-252.0 -510.0 -244.0 -538.0H643.0C658.0 -538.0 669.0 -533.0 672.0 -522.0C625.0 -477.0 543.0 -410.0 543.0 -410.0L470.0 -510.0ZM317.0 7.0C312.0 -35.0 296.0 -121.0 281.0 -178.0L290.0 -182.0C341.0 -145.0 399.0 -95.0 429.0 -64.0C451.0 -67.0 462.0 -56.0 465.0 -46.0ZM-104.0 -553.0C-107.0 -609.0 -158.0 -653.0 -201.0 -669.0C-238.0 -684.0 -264.0 -715.0 -253.0 -758.0C-240.0 -803.0 -188.0 -818.0 -147.0 -798.0C-87.0 -771.0 -44.0 -682.0 -92.0 -553.0ZM405.0 -562.0 398.0 -569.0C465.0 -619.0 533.0 -705.0 557.0 -785.0C695.0 -864.0 777.0 -584.0 405.0 -562.0ZM29.0 -557.0 19.0 -561.0C35.0 -620.0 46.0 -695.0 38.0 -764.0C136.0 -874.0 281.0 -677.0 29.0 -557.0ZM203.0 -560.0 194.0 -565.0C232.0 -621.0 272.0 -700.0 284.0 -772.0C405.0 -865.0 517.0 -627.0 203.0 -560.0Z"/></g>
<g fill="black" opacity=".8" transform="translate(200 200) scale(0.1 -0.1)"><path d="M0.0 0.0 -10.0 -4.0C6.0 -47.0 21.0 -105.0 19.0 -159.0C102.0 -244.0 223.0 -79.0 0.0 0.0ZM-62.0 -227.0V-255.0H489.0V-227.0ZM423.0 72.0V-294.0H448.0C495.0 -294.0 567.0 -270.0 568.0 -263.0V20.0C589.0 25.0 601.0 35.0 607.0 44.0L476.0 142.0L413.0 72.0ZM-148.0 72.0V-325.0H-128.0C-70.0 -325.0 -7.0 -294.0 -7.0 -280.0V44.0H483.0V72.0H4.0L-148.0 130.0ZM133.0 72.0V-518.0H273.0V72.0ZM-158.0 -368.0 -148.0 -396.0H559.0C573.0 -396.0 584.0 -391.0 587.0 -380.0C541.0 -338.0 462.0 -272.0 462.0 -272.0L391.0 -368.0ZM-252.0 -510.0 -244.0 -538.0H643.0C657.0 -538.0 668.0 -532.0 672.0 -522.0C625.0 -477.0 543.0 -410.0 543.0 -410.0L470.0 -510.0ZM317.0 7.0C313.0 -35.0 296.0 -121.0 281.0 -177.0L289.0 -182.0C341.0 -145.0 399.0 -94.0 429.0 -64.0C451.0 -66.0 463.0 -56.0 464.0 -46.0ZM-104.0 -553.0C-107.0 -609.0 -158.0 -653.0 -202.0 -669.0C-238.0 -684.0 -264.0 -715.0 -253.0 -758.0C-241.0 -804.0 -188.0 -818.0 -148.0 -798.0C-86.0 -771.0 -45.0 -682.0 -93.0 -553.0ZM406.0 -562.0 398.0 -569.0C465.0 -619.0 533.0 -706.0 558.0 -785.0C694.0 -864.0 777.0 -584.0 406.0 -562.0ZM28.0 -557.0 19.0 -561.0C35.0 -619.0 47.0 -695.0 38.0 -764.0C136.0 -873.0 280.0 -676.0 28.0 -557.0ZM204.0 -560.0 194.0 -566.0C233.0 -621.0 272.0 -700.0 284.0 -772.0C405.0 -865.0 518.0 -627.0 204.0 -560.0Z"/></g>
<g fill="red" transform="translate(300 200) scale(0.1 -0.1)"><path d="M0.0 0.0 -16.0 -4.0C-1.0 -45.0 14.0 -110.0 12.0 -158.0C45.0 -196.0 86.0 -113.0 0.0 0.0ZM379.0 -82.0V-111.0H734.0V-82.0ZM244.0 65.0V-279.0H250.0C265.0 -279.0 287.0 -267.0 288.0 -261.0V29.0C305.0 32.0 321.0 40.0 327.0 47.0L263.0 96.0L235.0 65.0ZM-76.0 65.0V-294.0H-68.0C-51.0 -294.0 -32.0 -283.0 -32.0 -280.0V36.0H267.0V65.0H-27.0L-76.0 90.0ZM-53.0 -211.0V-240.0H265.0V-211.0ZM-87.0 -344.0 -79.0 -373.0H295.0C308.0 -373.0 317.0 -368.0 320.0 -357.0C295.0 -333.0 257.0 -302.0 257.0 -302.0L224.0 -344.0ZM-105.0 -478.0 -97.0 -507.0H316.0C330.0 -507.0 339.0 -502.0 341.0 -491.0C317.0 -467.0 277.0 -435.0 277.0 -435.0L243.0 -478.0ZM173.0 0.0C169.0 -40.0 155.0 -118.0 144.0 -168.0L158.0 -173.0C180.0 -128.0 200.0 -73.0 211.0 -40.0C232.0 -40.0 241.0 -28.0 243.0 -19.0ZM-56.0 -587.0C-55.0 -638.0 -76.0 -704.0 -95.0 -730.0C-110.0 -745.0 -117.0 -767.0 -105.0 -781.0C-90.0 -796.0 -60.0 -784.0 -49.0 -764.0C-32.0 -734.0 -22.0 -668.0 -38.0 -588.0ZM212.0 -544.0 200.0 -550.0C230.0 -585.0 269.0 -642.0 276.0 -684.0C322.0 -720.0 359.0 -623.0 212.0 -544.0ZM30.0 -580.0 15.0 -584.0C29.0 -628.0 43.0 -698.0 37.0 -750.0C77.0 -796.0 129.0 -699.0 30.0 -580.0ZM118.0 -562.0 104.0 -568.0C128.0 -608.0 157.0 -673.0 161.0 -720.0C204.0 -759.0 247.0 -665.0 118.0 -562.0Z"/></g>
<g fill="black" opacity=".8" transform="translate(300 200) scale(0.1 -0.1)"><path d="M0.0 0.0 -15.0 -4.0C-1.0 -45.0 15.0 -110.0 11.0 -158.0C45.0 -196.0 86.0 -113.0 0.0 0.0ZM379.0 -82.0V-111.0H735.0V-82.0ZM244.0 65.0V-279.0H251.0C264.0 -279.0 287.0 -265.0 289.0 -261.0V29.0C306.0 32.0 320.0 40.0 327.0 46.0L262.0 96.0L235.0 65.0ZM-75.0 65.0V-294.0H-68.0C-52.0 -294.0 -32.0 -284.0 -32.0 -279.0V35.0H268.0V65.0H-27.0L-75.0 90.0ZM-54.0 -212.0 -52.0 -239.0H265.0V-212.0ZM-87.0 -344.0 -79.0 -374.0H295.0C307.0 -374.0 317.0 -368.0 320.0 -356.0C294.0 -334.0 256.0 -301.0 256.0 -301.0L223.0 -344.0ZM-105.0 -479.0 -97.0 -507.0H316.0C330.0 -507.0 339.0 -501.0 340.0 -491.0C317.0 -467.0 278.0 -434.0 278.0 -434.0L243.0 -479.0ZM173.0 -0.0C169.0 -40.0 155.0 -118.0 145.0 -167.0L158.0 -173.0C180.0 -128.0 200.0 -73.0 212.0 -40.0C232.0 -41.0 242.0 -28.0 245.0 -20.0ZM-57.0 -586.0C-55.0 -637.0 -76.0 -704.0 -94.0 -729.0C-110.0 -745.0 -117.0 -766.0 -105.0 -781.0C-90.0 -797.0 -60.0 -783.0 -49.0 -763.0C-33.0 -734.0 -21.0 -668.0 -39.0 -587.0ZM213.0 -544.0 200.0 -549.0C229.0 -584.0 270.0 -641.0 277.0 -685.0C323.0 -720.0 360.0 -623.0 213.0 -544.0ZM30.0 -580.0 15.0 -583.0C29.0 -628.0 42.0 -698.0 38.0 -749.0C76.0 -796.0 129.0 -698.0 30.0 -580.0ZM117.0 -562.0 105.0 -567.0C128.0 -607.0 156.0 -673.0 160.0 -720.0C205.0 -760.0 246.0 -665.0 117.0 -562.0Z"/></g>
<g fill="red" transform="translate(400 200) scale(0.1 -0.1)"><path d="M0.0 0.0 -15.0 -4.0C-1.0 -50.0 13.0 -120.0 10.0 -174.0C56.0 -227.0 120.0 -120.0 0.0 0.0ZM397.0 -56.0V-84.0H734.0V-56.0ZM217.0 72.0V-282.0H236.0C272.0 -282.0 327.0 -261.0 328.0 -254.0V28.0C346.0 31.0 359.0 39.0 365.0 47.0L258.0 127.0L208.0 72.0ZM-113.0 72.0V-305.0H-97.0C-52.0 -305.0 -5.0 -281.0 -5.0 -271.0V44.0H276.0V72.0H0.0L-113.0 117.0ZM-66.0 -222.0V-250.0H247.0V-222.0ZM-120.0 -361.0 -112.0 -389.0H328.0C342.0 -389.0 353.0 -384.0 355.0 -373.0C313.0 -334.0 241.0 -276.0 241.0 -276.0L177.0 -361.0ZM-147.0 -497.0 -139.0 -525.0H360.0C374.0 -525.0 385.0 -520.0 388.0 -509.0C343.0 -466.0 265.0 -402.0 265.0 -402.0L197.0 -497.0ZM169.0 13.0C167.0 -33.0 158.0 -125.0 148.0 -185.0L162.0 -189.0C189.0 -137.0 216.0 -71.0 230.0 -32.0C252.0 -32.0 261.0 -20.0 263.0 -10.0ZM-49.0 -574.0C-49.0 -620.0 -85.0 -673.0 -111.0 -694.0C-141.0 -714.0 -158.0 -746.0 -143.0 -780.0C-124.0 -819.0 -68.0 -822.0 -43.0 -795.0C-9.0 -756.0 1.0 -678.0 -35.0 -575.0ZM209.0 -541.0 200.0 -547.0C233.0 -582.0 265.0 -642.0 268.0 -693.0C357.0 -760.0 444.0 -580.0 209.0 -541.0ZM13.0 -571.0 1.0 -575.0C13.0 -624.0 19.0 -692.0 8.0 -750.0C79.0 -838.0 200.0 -687.0 13.0 -571.0ZM100.0 -557.0 90.0 -562.0C117.0 -604.0 142.0 -668.0 141.0 -723.0C222.0 -797.0 319.0 -629.0 100.0 -557.0Z"/></g>
<g fill="black" opacity=".8" transform="translate(400 200) scale(0.1 -0.1)"><path d="M0.0 0.0 -15.0 -3.0C-1.0 -51.0 12.0 -120.0 9.0 -175.0C57.0 -228.0 119.0 -120.0 0.0 0.0ZM398.0 -57.0V-84.0H734.0V-57.0ZM217.0 72.0V-282.0H237.0C272.0 -282.0 327.0 -261.0 328.0 -254.0V27.0C347.0 32.0 359.0 39.0 365.0 49.0L258.0 128.0L208.0 72.0ZM-112.0 71.0V-305.0H-96.0C-52.0 -305.0 -5.0 -280.0 -5.0 -270.0V44.0H276.0V71.0H1.0L-112.0 118.0ZM-66.0 -222.0 -65.0 -249.0H248.0V-222.0ZM-121.0 -361.0 -111.0 -390.0H328.0C342.0 -390.0 354.0 -384.0 354.0 -373.0C314.0 -335.0 242.0 -277.0 242.0 -277.0L177.0 -361.0ZM-147.0 -497.0 -138.0 -525.0H360.0C374.0 -525.0 384.0 -519.0 388.0 -509.0C344.0 -465.0 266.0 -402.0 266.0 -402.0L197.0 -497.0ZM169.0 14.0C167.0 -32.0 158.0 -125.0 148.0 -184.0L161.0 -188.0C189.0 -136.0 215.0 -70.0 230.0 -32.0C252.0 -31.0 261.0 -19.0 262.0 -9.0ZM-49.0 -574.0C-49.0 -620.0 -85.0 -672.0 -112.0 -693.0C-140.0 -714.0 -159.0 -746.0 -142.0 -780.0C-124.0 -820.0 -69.0 -822.0 -44.0 -794.0C-8.0 -755.0 1.0 -678.0 -36.0 -574.0ZM209.0 -541.0 200.0 -547.0C233.0 -583.0 265.0 -643.0 268.0 -693.0C356.0 -759.0 445.0 -579.0 209.0 -541.0ZM12.0 -571.0 0.0 -575.0C13.0 -623.0 20.0 -692.0 9.0 -750.0C79.0 -837.0 200.0 -686.0 12.0 -571.0ZM101.0 -558.0 90.0 -562.0C118.0 -604.0 143.0 -668.0 141.0 -723.0C221.0 -797.0 319.0 -629.0 101.0 -558.0Z"/></g>
<g fill="red" transform="translate(500 200) scale(0.1 -0.1)"><path d="M0.0 0.0 -16.0 -4.0C-1.0 -45.0 14.0 -110.0 12.0 -158.0C45.0 -196.0 86.0 -113.0 0.0 0.0ZM-53.0 -211.0V-240.0H265.0V-211.0ZM244.0 65.0V-279.0H250.0C265.0 -279.0 287.0 -267.0 288.0 -261.0V29.0C305.0 32.0 321.0 40.0 327.0 47.0L263.0 96.0L235.0 65.0ZM-76.0 65.0V-286.0H-68.0C-51.0 -286.0 -32.0 -276.0 -32.0 -271.0V36.0H267.0V65.0H-27.0L-76.0 90.0ZM502.0 -366.0 481.0 -396.0H744.0V-366.0ZM-91.0 -344.0 -83.0 -373.0H291.0C304.0 -373.0 313.0 -368.0 316.0 -357.0C291.0 -333.0 253.0 -302.0 253.0 -302.0L220.0 -344.0ZM-115.0 -478.0 -107.0 -508.0H308.0C322.0 -508.0 331.0 -503.0 334.0 -492.0C307.0 -467.0 265.0 -433.0 265.0 -433.0L228.0 -478.0ZM515.0 117.0C478.0 29.0 406.0 -75.0 331.0 -134.0L343.0 -147.0C431.0 -92.0 511.0 2.0 554.0 84.0C579.0 81.0 586.0 85.0 590.0 96.0ZM-62.0 -568.0C-60.0 -626.0 -81.0 -700.0 -101.0 -729.0C-116.0 -745.0 -121.0 -767.0 -109.0 -780.0C-94.0 -796.0 -64.0 -782.0 -54.0 -760.0C-36.0 -727.0 -26.0 -655.0 -44.0 -569.0ZM443.0 -456.0 432.0 -465.0C475.0 -496.0 532.0 -554.0 549.0 -597.0C602.0 -627.0 629.0 -519.0 443.0 -456.0ZM118.0 -558.0 104.0 -564.0C129.0 -605.0 159.0 -672.0 163.0 -721.0C206.0 -760.0 249.0 -664.0 118.0 -558.0ZM212.0 -548.0 200.0 -555.0C230.0 -590.0 269.0 -647.0 276.0 -689.0C322.0 -725.0 359.0 -628.0 212.0 -548.0Z"/></g>
<g fill="black" opacity=".8" transform="translate(500 200) scale(0.1 -0.1)"><path d="M0.0 0.0 -15.0 -4.0C-1.0 -45.0 15.0 -110.0 11.0 -158.0C45.0 -196.0 85.0 -113.0 0.0 0.0ZM-52.0 -211.0V-240.0H266.0V-211.0ZM244.0 65.0V-279.0H250.0C264.0 -279.0 286.0 -266.0 288.0 -261.0V29.0C306.0 32.0 321.0 40.0 327.0 47.0L263.0 96.0L235.0 65.0ZM-76.0 64.0V-286.0H-68.0C-52.0 -286.0 -32.0 -277.0 -32.0 -271.0V35.0H268.0V64.0H-26.0L-76.0 90.0ZM501.0 -366.0 481.0 -395.0H744.0V-366.0ZM-91.0 -344.0 -83.0 -374.0H291.0C303.0 -374.0 313.0 -367.0 316.0 -357.0C291.0 -333.0 252.0 -302.0 252.0 -302.0L220.0 -344.0ZM-115.0 -479.0 -107.0 -508.0H308.0C323.0 -508.0 330.0 -503.0 334.0 -492.0C307.0 -468.0 266.0 -432.0 266.0 -432.0L229.0 -479.0ZM515.0 117.0C478.0 29.0 406.0 -75.0 332.0 -133.0L343.0 -147.0C430.0 -92.0 511.0 2.0 554.0 84.0C579.0 81.0 587.0 85.0 591.0 95.0ZM-63.0 -567.0C-60.0 -625.0 -81.0 -700.0 -100.0 -728.0C-115.0 -745.0 -121.0 -766.0 -109.0 -781.0C-94.0 -797.0 -64.0 -781.0 -54.0 -760.0C-37.0 -727.0 -25.0 -655.0 -45.0 -568.0ZM443.0 -455.0 432.0 -465.0C474.0 -495.0 533.0 -554.0 549.0 -597.0C602.0 -627.0 630.0 -519.0 443.0 -455.0ZM118.0 -557.0 104.0 -563.0C129.0 -605.0 159.0 -672.0 163.0 -720.0C206.0 -760.0 249.0 -663.0 118.0 -557.0ZM212.0 -548.0 201.0 -554.0C230.0 -589.0 268.0 -647.0 276.0 -689.0C322.0 -725.0 359.0 -628.0 212.0 -548.0Z"/></g>
<g fill="red" transform="translate(600 200) scale(0.1 -0.1)"><path d="M0.0 0.0 -14.0 -4.0C-1.0 -48.0 14.0 -116.0 11.0 -168.0C57.0 -219.0 121.0 -115.0 0.0 0.0ZM-63.0 -225.0V-253.0H250.0V-225.0ZM220.0 63.0V-286.0H239.0C275.0 -286.0 330.0 -266.0 331.0 -259.0V19.0C349.0 22.0 362.0 30.0 368.0 38.0L261.0 118.0L211.0 63.0ZM-110.0 63.0V-310.0H-94.0C-49.0 -310.0 -2.0 -286.0 -2.0 -276.0V35.0H279.0V63.0H3.0L-110.0 108.0ZM451.0 -381.0 436.0 -409.0H707.0V-381.0ZM-125.0 -346.0 -117.0 -374.0H321.0C335.0 -374.0 346.0 -369.0 348.0 -358.0C308.0 -323.0 243.0 -275.0 243.0 -275.0L186.0 -346.0ZM-140.0 -487.0 -132.0 -515.0H323.0C337.0 -515.0 348.0 -510.0 351.0 -499.0C309.0 -463.0 241.0 -412.0 241.0 -412.0L180.0 -487.0ZM449.0 128.0C428.0 32.0 377.0 -84.0 321.0 -150.0L330.0 -157.0C434.0 -106.0 526.0 -15.0 584.0 72.0C610.0 70.0 618.0 74.0 622.0 85.0ZM-56.0 -568.0C-57.0 -625.0 -96.0 -688.0 -123.0 -713.0C-152.0 -734.0 -167.0 -767.0 -150.0 -799.0C-130.0 -836.0 -74.0 -836.0 -50.0 -806.0C-16.0 -763.0 -5.0 -679.0 -42.0 -569.0ZM428.0 -466.0 421.0 -471.0C446.0 -497.0 467.0 -543.0 467.0 -585.0C578.0 -666.0 695.0 -458.0 428.0 -466.0ZM96.0 -558.0 85.0 -563.0C114.0 -607.0 140.0 -674.0 139.0 -730.0C221.0 -805.0 319.0 -634.0 96.0 -558.0ZM207.0 -551.0 198.0 -557.0C230.0 -591.0 261.0 -649.0 264.0 -698.0C353.0 -765.0 439.0 -588.0 207.0 -551.0Z"/></g>
<g fill="black" opacity=".8" transform="translate(600 200) scale(0.1 -0.1)"><path d="M0.0 0.0 -15.0 -4.0C-2.0 -48.0 14.0 -117.0 11.0 -169.0C58.0 -219.0 120.0 -115.0 0.0 0.0ZM-62.0 -226.0V-253.0H250.0V-226.0ZM220.0 63.0V-286.0H240.0C275.0 -286.0 330.0 -266.0 331.0 -259.0V18.0C349.0 23.0 362.0 30.0 368.0 39.0L261.0 118.0L211.0 63.0ZM-109.0 63.0V-310.0H-93.0C-49.0 -310.0 -2.0 -285.0 -2.0 -275.0V35.0H279.0V63.0H4.0L-109.0 108.0ZM451.0 -381.0 436.0 -409.0H707.0V-381.0ZM-126.0 -346.0 -116.0 -374.0H321.0C335.0 -374.0 346.0 -369.0 347.0 -358.0C308.0 -323.0 243.0 -275.0 243.0 -275.0L186.0 -346.0ZM-140.0 -487.0 -132.0 -515.0H323.0C336.0 -515.0 347.0 -509.0 350.0 -499.0C310.0 -462.0 242.0 -411.0 242.0 -411.0L180.0 -487.0ZM450.0 128.0C428.0 32.0 378.0 -84.0 322.0 -149.0L329.0 -157.0C434.0 -106.0 526.0 -14.0 584.0 71.0C610.0 71.0 618.0 75.0 622.0 86.0ZM-56.0 -568.0C-56.0 -625.0 -96.0 -687.0 -124.0 -712.0C-152.0 -733.0 -167.0 -767.0 -150.0 -799.0C-130.0 -837.0 -75.0 -836.0 -51.0 -806.0C-15.0 -762.0 -6.0 -679.0 -43.0 -569.0ZM428.0 -467.0 422.0 -471.0C446.0 -498.0 467.0 -544.0 468.0 -585.0C578.0 -665.0 695.0 -457.0 428.0 -467.0ZM96.0 -558.0 85.0 -563.0C114.0 -606.0 141.0 -674.0 139.0 -730.0C221.0 -804.0 319.0 -633.0 96.0 -558.0ZM208.0 -551.0 198.0 -557.0C231.0 -592.0 261.0 -649.0 264.0 -698.0C353.0 -765.0 439.0 -587.0 208.0 -551.0Z"/></g>
<g fill="red" transform="translate(700 200) scale(0.1 -0.1)"><path d="M0.0 0.0 -10.0 -10.0C30.0 -30.0 78.0 -70.0 97.0 -101.0C151.0 -125.0 171.0 -21.0 0.0 0.0ZM-97.0 -319.0V-348.0H479.0V-319.0ZM453.0 -178.0V-377.0H459.0C474.0 -377.0 497.0 -365.0 498.0 -359.0V-214.0C514.0 -211.0 530.0 -203.0 536.0 -197.0L472.0 -148.0L445.0 -178.0ZM-118.0 -178.0V-386.0H-111.0C-93.0 -386.0 -74.0 -376.0 -74.0 -372.0V-207.0H487.0V-178.0H-69.0L-118.0 -153.0ZM167.0 -178.0V-513.0H211.0V-178.0ZM-159.0 -411.0 -150.0 -441.0H519.0C533.0 -441.0 542.0 -436.0 545.0 -425.0C518.0 -401.0 477.0 -373.0 477.0 -373.0L442.0 -411.0ZM-241.0 -505.0 -232.0 -534.0H600.0C614.0 -534.0 623.0 -529.0 626.0 -519.0C597.0 -493.0 555.0 -462.0 555.0 -462.0L517.0 -505.0ZM275.0 195.0C246.0 97.0 194.0 10.0 139.0 -43.0L153.0 -56.0C218.0 -11.0 276.0 62.0 315.0 151.0C334.0 149.0 346.0 157.0 350.0 168.0ZM-93.0 -555.0C-103.0 -607.0 -159.0 -641.0 -202.0 -651.0C-219.0 -660.0 -231.0 -674.0 -225.0 -690.0C-217.0 -708.0 -187.0 -707.0 -162.0 -697.0C-123.0 -681.0 -69.0 -639.0 -76.0 -556.0ZM423.0 -550.0 413.0 -561.0C469.0 -592.0 542.0 -652.0 567.0 -699.0C627.0 -726.0 644.0 -602.0 423.0 -550.0ZM61.0 -556.0 48.0 -561.0C63.0 -594.0 79.0 -647.0 76.0 -687.0C117.0 -730.0 172.0 -642.0 61.0 -556.0ZM239.0 -556.0 227.0 -563.0C253.0 -595.0 286.0 -649.0 293.0 -689.0C339.0 -726.0 383.0 -628.0 239.0 -556.0Z"/></g>
<g fill="black" opacity=".8" transform="translate(700 200) scale(0.1 -0.1)"><path d="M0.0 0.0 -9.0 -10.0C30.0 -30.0 79.0 -70.0 96.0 -101.0C151.0 -125.0 171.0 -21.0 0.0 0.0ZM-97.0 -319.0V-348.0H479.0V-319.0ZM453.0 -178.0V-377.0H459.0C473.0 -377.0 497.0 -364.0 498.0 -359.0V-214.0C514.0 -211.0 529.0 -203.0 537.0 -197.0L472.0 -148.0L444.0 -178.0ZM-118.0 -178.0V-386.0H-111.0C-94.0 -386.0 -74.0 -377.0 -74.0 -371.0V-208.0H488.0V-178.0H-69.0L-118.0 -153.0ZM167.0 -178.0V-512.0H211.0V-178.0ZM-160.0 -411.0 -150.0 -442.0H520.0C533.0 -442.0 542.0 -435.0 545.0 -424.0C518.0 -401.0 477.0 -373.0 477.0 -373.0L442.0 -411.0ZM-241.0 -505.0 -232.0 -534.0H600.0C614.0 -534.0 623.0 -529.0 626.0 -519.0C597.0 -493.0 555.0 -461.0 555.0 -461.0L518.0 -505.0ZM274.0 195.0C245.0 97.0 194.0 9.0 140.0 -42.0L153.0 -56.0C218.0 -11.0 276.0 62.0 316.0 151.0C333.0 149.0 346.0 157.0 351.0 167.0ZM-93.0 -554.0C-103.0 -606.0 -159.0 -641.0 -201.0 -650.0C-219.0 -660.0 -230.0 -674.0 -225.0 -690.0C-217.0 -708.0 -187.0 -707.0 -162.0 -697.0C-124.0 -681.0 -68.0 -639.0 -77.0 -555.0ZM423.0 -550.0 413.0 -561.0C468.0 -591.0 543.0 -651.0 568.0 -699.0C628.0 -726.0 645.0 -602.0 423.0 -550.0ZM61.0 -556.0 48.0 -561.0C63.0 -594.0 79.0 -648.0 76.0 -686.0C117.0 -730.0 172.0 -642.0 61.0 -556.0ZM239.0 -556.0 227.0 -563.0C252.0 -595.0 286.0 -649.0 293.0 -689.0C339.0 -726.0 383.0 -628.0 239.0 -556.0Z"/></g>
<g fill="red" transform="translate(800 200) scale(0.1 -0.1)"><path d="M0.0 0.0 -9.0 -6.0C15.0 -31.0 42.0 -75.0 48.0 -113.0C137.0 -170.0 217.0 -5.0 0.0 0.0ZM-131.0 -328.0V-356.0H425.0V-328.0ZM365.0 -180.0V-370.0H390.0C435.0 -370.0 502.0 -343.0 503.0 -335.0V-224.0C520.0 -221.0 530.0 -214.0 534.0 -207.0L414.0 -119.0L356.0 -180.0ZM-182.0 -180.0V-399.0H-164.0C-112.0 -399.0 -52.0 -372.0 -52.0 -361.0V-208.0H456.0V-180.0H-43.0L-182.0 -127.0ZM89.0 -180.0V-503.0H225.0V-180.0ZM-206.0 -409.0 -198.0 -437.0H502.0C516.0 -437.0 526.0 -432.0 529.0 -421.0C487.0 -388.0 421.0 -342.0 421.0 -342.0L362.0 -409.0ZM-289.0 -492.0 -281.0 -520.0H584.0C599.0 -520.0 609.0 -515.0 612.0 -504.0C568.0 -469.0 499.0 -423.0 499.0 -423.0L438.0 -492.0ZM227.0 220.0C210.0 127.0 174.0 37.0 134.0 -22.0L146.0 -30.0C222.0 4.0 293.0 62.0 345.0 146.0C367.0 144.0 380.0 153.0 385.0 165.0ZM-125.0 -521.0C-138.0 -564.0 -200.0 -592.0 -250.0 -598.0C-285.0 -611.0 -313.0 -638.0 -305.0 -678.0C-296.0 -722.0 -247.0 -739.0 -205.0 -726.0C-142.0 -707.0 -86.0 -634.0 -112.0 -522.0ZM356.0 -537.0 349.0 -544.0C404.0 -587.0 477.0 -659.0 513.0 -722.0C646.0 -772.0 694.0 -526.0 356.0 -537.0ZM-19.0 -533.0 -28.0 -537.0C-17.0 -579.0 -11.0 -636.0 -19.0 -689.0C69.0 -793.0 225.0 -623.0 -19.0 -533.0ZM150.0 -535.0 142.0 -541.0C178.0 -581.0 217.0 -645.0 228.0 -703.0C343.0 -779.0 439.0 -558.0 150.0 -535.0Z"/></g>
<g fill="black" opacity=".8" transform="translate(800 200) scale(0.1 -0.1)"><path d="M0.0 0.0 -9.0 -6.0C15.0 -32.0 42.0 -75.0 48.0 -114.0C138.0 -170.0 217.0 -5.0 0.0 0.0ZM-130.0 -328.0V-356.0H425.0V-328.0ZM365.0 -181.0V-370.0H390.0C435.0 -370.0 502.0 -343.0 503.0 -335.0V-225.0C520.0 -221.0 530.0 -214.0 534.0 -206.0L414.0 -119.0L356.0 -181.0ZM-181.0 -180.0V-399.0H-163.0C-112.0 -399.0 -52.0 -372.0 -52.0 -360.0V-208.0H456.0V-180.0H-42.0L-181.0 -127.0ZM89.0 -180.0 90.0 -503.0H226.0V-180.0ZM-207.0 -409.0 -197.0 -437.0H502.0C516.0 -437.0 526.0 -432.0 528.0 -421.0C487.0 -388.0 421.0 -343.0 421.0 -343.0L361.0 -409.0ZM-289.0 -492.0 -281.0 -520.0H584.0C598.0 -520.0 608.0 -514.0 611.0 -504.0C569.0 -468.0 500.0 -423.0 500.0 -423.0L438.0 -492.0ZM227.0 220.0C211.0 127.0 175.0 37.0 134.0 -21.0L145.0 -29.0C222.0 4.0 292.0 63.0 345.0 146.0C367.0 145.0 380.0 154.0 384.0 166.0ZM-125.0 -521.0C-137.0 -564.0 -200.0 -592.0 -251.0 -597.0C-285.0 -611.0 -314.0 -638.0 -304.0 -678.0C-296.0 -723.0 -248.0 -738.0 -205.0 -725.0C-141.0 -706.0 -86.0 -634.0 -113.0 -522.0ZM357.0 -537.0 350.0 -544.0C404.0 -587.0 477.0 -659.0 514.0 -722.0C646.0 -772.0 694.0 -526.0 357.0 -537.0ZM-20.0 -533.0 -29.0 -537.0C-17.0 -578.0 -10.0 -636.0 -18.0 -689.0C69.0 -792.0 225.0 -622.0 -20.0 -533.0ZM151.0 -535.0 142.0 -542.0C178.0 -582.0 217.0 -645.0 229.0 -702.0C343.0 -779.0 440.0 -558.0 151.0 -535.0Z"/></g>
<g fill="red" transform="translate(900 200) scale(0.1 -0.1)"><path d="M0.0 0.0 -16.0 -4.0C-5.0 -42.0 4.0 -103.0 0.0 -148.0C33.0 -187.0 79.0 -108.0 0.0 0.0ZM344.0 -334.0V-363.0H690.0V-334.0ZM668.0 -187.0V-402.0H673.0C688.0 -402.0 711.0 -391.0 712.0 -385.0V-226.0C731.0 -222.0 748.0 -214.0 755.0 -206.0L687.0 -155.0L658.0 -187.0ZM-76.0 75.0V-284.0H-68.0C-50.0 -284.0 -32.0 -273.0 -32.0 -270.0V46.0H232.0V75.0H-27.0L-76.0 100.0ZM-52.0 -201.0V-230.0H227.0V-201.0ZM-91.0 -334.0 -83.0 -363.0H245.0C259.0 -363.0 268.0 -358.0 270.0 -347.0C246.0 -323.0 208.0 -292.0 208.0 -292.0L174.0 -334.0ZM248.0 -522.0 256.0 -551.0H788.0C802.0 -551.0 811.0 -546.0 813.0 -535.0C786.0 -509.0 740.0 -473.0 740.0 -473.0L702.0 -522.0ZM148.0 3.0C146.0 -35.0 135.0 -112.0 124.0 -161.0L139.0 -165.0C158.0 -121.0 176.0 -68.0 187.0 -35.0C207.0 -35.0 215.0 -23.0 216.0 -15.0ZM-56.0 -561.0C-54.0 -618.0 -75.0 -691.0 -95.0 -720.0C-110.0 -736.0 -116.0 -758.0 -104.0 -771.0C-88.0 -786.0 -58.0 -773.0 -48.0 -751.0C-30.0 -719.0 -21.0 -647.0 -38.0 -562.0ZM180.0 -542.0 167.0 -549.0C196.0 -584.0 229.0 -641.0 235.0 -684.0C278.0 -721.0 319.0 -625.0 180.0 -542.0ZM24.0 -558.0 9.0 -562.0C21.0 -609.0 32.0 -684.0 24.0 -740.0C63.0 -787.0 117.0 -686.0 24.0 -558.0ZM99.0 -552.0 85.0 -557.0C107.0 -598.0 133.0 -663.0 135.0 -711.0C176.0 -750.0 221.0 -657.0 99.0 -552.0Z"/></g>
<g fill="black" opacity=".8" transform="translate(900 200) scale(0.1 -0.1)"><path d="M0.0 0.0 -15.0 -4.0C-5.0 -42.0 4.0 -103.0 -1.0 -148.0C33.0 -188.0 79.0 -108.0 0.0 0.0ZM344.0 -334.0V-363.0H691.0V-334.0ZM667.0 -187.0V-402.0H673.0C687.0 -402.0 711.0 -390.0 712.0 -385.0V-226.0C732.0 -222.0 748.0 -214.0 755.0 -206.0L687.0 -155.0L658.0 -187.0ZM-76.0 75.0V-284.0H-68.0C-50.0 -284.0 -32.0 -273.0 -32.0 -270.0V46.0H233.0V75.0H-27.0L-76.0 100.0ZM-52.0 -201.0V-229.0H227.0V-201.0ZM-91.0 -334.0 -83.0 -364.0H245.0C258.0 -364.0 268.0 -358.0 270.0 -346.0C245.0 -323.0 208.0 -292.0 208.0 -292.0L174.0 -334.0ZM248.0 -523.0 256.0 -551.0H788.0C802.0 -551.0 811.0 -546.0 813.0 -535.0C786.0 -509.0 740.0 -472.0 740.0 -472.0L703.0 -523.0ZM148.0 3.0C146.0 -35.0 135.0 -112.0 124.0 -161.0L139.0 -165.0C158.0 -121.0 176.0 -68.0 187.0 -35.0C207.0 -35.0 215.0 -23.0 217.0 -15.0ZM-56.0 -560.0C-54.0 -617.0 -75.0 -691.0 -95.0 -720.0C-109.0 -736.0 -116.0 -757.0 -104.0 -771.0C-88.0 -786.0 -58.0 -773.0 -48.0 -751.0C-31.0 -719.0 -20.0 -647.0 -38.0 -561.0ZM181.0 -542.0 167.0 -549.0C196.0 -584.0 230.0 -641.0 235.0 -684.0C279.0 -721.0 319.0 -625.0 181.0 -542.0ZM24.0 -558.0 9.0 -561.0C21.0 -610.0 32.0 -684.0 24.0 -740.0C63.0 -787.0 117.0 -686.0 24.0 -558.0ZM99.0 -552.0 85.0 -556.0C107.0 -597.0 132.0 -663.0 135.0 -711.0C176.0 -750.0 221.0 -657.0 99.0 -552.0Z"/></g>
<g fill="red" transform="translate(1000 200) scale(0.1 -0.1)"><path d="M0.0 0.0 -15.0 -4.0C-1.0 -48.0 14.0 -116.0 12.0 -167.0C53.0 -213.0 108.0 -117.0 0.0 0.0ZM388.0 -338.0V-366.0H687.0V-338.0ZM608.0 -197.0V-404.0H629.0C668.0 -404.0 730.0 -384.0 731.0 -378.0V-246.0C752.0 -242.0 766.0 -232.0 772.0 -225.0L653.0 -136.0L598.0 -197.0ZM-96.0 63.0V-298.0H-82.0C-44.0 -298.0 -6.0 -278.0 -6.0 -269.0V35.0H238.0V63.0H0.0L-96.0 103.0ZM-49.0 -225.0V-253.0H245.0V-225.0ZM-111.0 -346.0 -103.0 -374.0H289.0C303.0 -374.0 313.0 -369.0 316.0 -358.0C280.0 -327.0 223.0 -283.0 223.0 -283.0L172.0 -346.0ZM256.0 -545.0 264.0 -573.0H814.0C828.0 -573.0 839.0 -568.0 841.0 -557.0C803.0 -520.0 737.0 -465.0 737.0 -465.0L679.0 -545.0ZM150.0 5.0C149.0 -38.0 142.0 -124.0 134.0 -180.0L148.0 -183.0C171.0 -134.0 193.0 -73.0 206.0 -38.0C227.0 -37.0 236.0 -24.0 237.0 -15.0ZM-44.0 -571.0C-45.0 -632.0 -79.0 -700.0 -105.0 -727.0C-131.0 -748.0 -143.0 -778.0 -127.0 -805.0C-107.0 -836.0 -58.0 -833.0 -37.0 -803.0C-6.0 -761.0 5.0 -678.0 -29.0 -572.0ZM189.0 -555.0 179.0 -562.0C211.0 -596.0 243.0 -654.0 246.0 -703.0C323.0 -764.0 399.0 -604.0 189.0 -555.0ZM19.0 -570.0 6.0 -574.0C18.0 -625.0 24.0 -700.0 14.0 -760.0C75.0 -837.0 174.0 -698.0 19.0 -570.0ZM93.0 -568.0 82.0 -574.0C108.0 -615.0 134.0 -679.0 132.0 -733.0C204.0 -799.0 289.0 -648.0 93.0 -568.0Z"/></g>
<g fill="black" opacity=".8" transform="translate(1000 200) scale(0.1 -0.1)"><path d="M0.0 0.0 -15.0 -4.0C-1.0 -48.0 14.0 -116.0 12.0 -168.0C54.0 -213.0 108.0 -117.0 0.0 0.0ZM388.0 -339.0V-366.0H687.0V-339.0ZM608.0 -197.0V-404.0H630.0C668.0 -404.0 730.0 -384.0 731.0 -378.0V-247.0C753.0 -241.0 766.0 -232.0 772.0 -224.0L653.0 -136.0L598.0 -197.0ZM-96.0 63.0V-298.0H-81.0C-44.0 -298.0 -6.0 -278.0 -6.0 -268.0V35.0H238.0V63.0H1.0L-96.0 104.0ZM-49.0 -225.0 -48.0 -253.0H245.0V-225.0ZM-112.0 -346.0 -103.0 -374.0H289.0C303.0 -374.0 313.0 -369.0 315.0 -358.0C280.0 -328.0 223.0 -283.0 223.0 -283.0L172.0 -346.0ZM255.0 -545.0 265.0 -573.0H814.0C828.0 -573.0 839.0 -567.0 841.0 -557.0C804.0 -520.0 737.0 -465.0 737.0 -465.0L679.0 -545.0ZM150.0 5.0C149.0 -37.0 142.0 -124.0 134.0 -179.0L147.0 -182.0C171.0 -134.0 193.0 -73.0 206.0 -38.0C227.0 -36.0 236.0 -24.0 237.0 -14.0ZM-44.0 -571.0C-45.0 -632.0 -79.0 -700.0 -106.0 -727.0C-131.0 -748.0 -143.0 -778.0 -126.0 -805.0C-107.0 -837.0 -58.0 -833.0 -37.0 -803.0C-5.0 -761.0 5.0 -678.0 -29.0 -572.0ZM189.0 -555.0 179.0 -562.0C211.0 -596.0 243.0 -654.0 246.0 -703.0C323.0 -763.0 400.0 -604.0 189.0 -555.0ZM19.0 -570.0 5.0 -574.0C18.0 -625.0 24.0 -700.0 14.0 -760.0C75.0 -837.0 174.0 -697.0 19.0 -570.0ZM94.0 -568.0 82.0 -574.0C108.0 -615.0 134.0 -679.0 132.0 -733.0C204.0 -799.0 289.0 -648.0 94.0 -568.0Z"/></g>
</svg>
