<?xml version="1.0" encoding="UTF-8"?>
<svg width="1700" height="300" xmlns="http://www.w3.org/2000/svg">
<rect width="100%" height="100%" fill="white"/>
<g fill="green" transform="translate(100 100) scale(0.1 -0.1)"><path d="M0.0 0.0C83.0 -101.0 241.0 -201.0 401.0 -259.0C406.0 -240.0 428.0 -225.0 453.0 -221.0L455.0 -207.0C282.0 -155.0 115.0 -76.0 19.0 11.0C42.0 13.0 54.0 18.0 57.0 29.0L-45.0 48.0C-106.0 -57.0 -319.0 -208.0 -482.0 -275.0L-475.0 -291.0C-300.0 -228.0 -101.0 -102.0 0.0 0.0ZM180.0 -450.0V-306.0H320.0V-276.0H184.0L136.0 -252.0V-464.0H143.0C161.0 -464.0 180.0 -454.0 180.0 -450.0ZM281.0 -276.0H289.0V-459.0H295.0C310.0 -459.0 332.0 -447.0 333.0 -442.0V-310.0C349.0 -308.0 363.0 -301.0 368.0 -295.0L308.0 -247.0ZM316.0 -399.0H158.0V-429.0H316.0ZM-74.0 -446.0V-306.0H62.0V-276.0H-70.0L-118.0 -252.0V-460.0H-111.0C-93.0 -460.0 -74.0 -450.0 -74.0 -446.0ZM29.0 -276.0H37.0V-454.0H43.0C58.0 -454.0 80.0 -443.0 81.0 -437.0V-309.0C96.0 -308.0 110.0 -300.0 115.0 -294.0L56.0 -248.0ZM61.0 -399.0H-97.0V-429.0H61.0ZM-329.0 -450.0V-306.0H-189.0V-276.0H-325.0L-373.0 -252.0V-464.0H-366.0C-348.0 -464.0 -329.0 -454.0 -329.0 -450.0ZM-226.0 -276.0H-218.0V-454.0H-212.0C-197.0 -454.0 -175.0 -443.0 -174.0 -437.0V-309.0C-159.0 -308.0 -145.0 -300.0 -140.0 -294.0L-199.0 -248.0ZM-190.0 -399.0H-353.0V-429.0H-190.0ZM262.0 -509.0H272.0V-786.0C272.0 -799.0 268.0 -804.0 253.0 -804.0C236.0 -804.0 163.0 -799.0 163.0 -799.0V-814.0C195.0 -818.0 215.0 -824.0 227.0 -832.0C238.0 -840.0 241.0 -853.0 243.0 -867.0C308.0 -859.0 316.0 -833.0 316.0 -791.0V-548.0C336.0 -545.0 354.0 -537.0 360.0 -530.0L288.0 -476.0ZM108.0 -819.0V-509.0H64.0V-835.0H70.0C93.0 -835.0 108.0 -823.0 108.0 -819.0ZM-99.0 -823.0V-509.0H-143.0V-840.0H-137.0C-114.0 -840.0 -99.0 -827.0 -99.0 -823.0ZM-310.0 -850.0V-539.0H285.0V-509.0H-304.0L-354.0 -483.0V-865.0H-346.0C-328.0 -865.0 -310.0 -854.0 -310.0 -850.0ZM286.0 -648.0H-328.0V-678.0H286.0ZM89.0 -129.0 52.0 -173.0H-222.0L-214.0 -203.0H136.0C148.0 -203.0 158.0 -198.0 160.0 -187.0C133.0 -161.0 89.0 -129.0 89.0 -129.0Z"/></g>
<g fill="green" transform="translate(200 100) scale(0.1 -0.1)"><path d="M0.0 0.0C64.0 -113.0 197.0 -190.0 337.0 -233.0C342.0 -178.0 378.0 -110.0 436.0 -90.0V-74.0C309.0 -74.0 110.0 -55.0 14.0 11.0C52.0 15.0 64.0 22.0 68.0 36.0L-136.0 89.0C-173.0 -14.0 -344.0 -173.0 -515.0 -259.0L-510.0 -270.0C-316.0 -222.0 -96.0 -109.0 0.0 0.0ZM215.0 -422.0V-288.0H324.0V-260.0H218.0L117.0 -220.0V-451.0H131.0C171.0 -451.0 215.0 -430.0 215.0 -422.0ZM239.0 -260.0H247.0V-441.0H265.0C297.0 -441.0 349.0 -423.0 350.0 -416.0V-298.0C364.0 -295.0 374.0 -289.0 379.0 -283.0L284.0 -213.0ZM314.0 -395.0H159.0V-423.0H314.0ZM-52.0 -422.0V-288.0H50.0V-260.0H-48.0L-150.0 -219.0V-451.0H-136.0C-96.0 -451.0 -52.0 -430.0 -52.0 -422.0ZM-22.0 -260.0H-14.0V-446.0H4.0C37.0 -446.0 89.0 -427.0 89.0 -420.0V-298.0C103.0 -295.0 113.0 -289.0 117.0 -283.0L23.0 -214.0ZM49.0 -395.0H-102.0V-423.0H49.0ZM-316.0 -426.0V-288.0H-214.0V-260.0H-312.0L-414.0 -219.0V-455.0H-400.0C-360.0 -455.0 -316.0 -434.0 -316.0 -426.0ZM-288.0 -260.0H-280.0V-446.0H-262.0C-230.0 -446.0 -178.0 -427.0 -177.0 -420.0V-298.0C-163.0 -295.0 -154.0 -288.0 -149.0 -283.0L-243.0 -214.0ZM-222.0 -395.0H-358.0V-423.0H-222.0ZM159.0 -490.0H169.0V-728.0C169.0 -738.0 167.0 -743.0 155.0 -743.0C142.0 -743.0 118.0 -742.0 118.0 -742.0V-754.0C145.0 -759.0 153.0 -773.0 158.0 -788.0C164.0 -804.0 164.0 -830.0 165.0 -865.0C290.0 -855.0 306.0 -815.0 306.0 -739.0V-540.0C327.0 -536.0 340.0 -527.0 346.0 -519.0L218.0 -423.0ZM115.0 -797.0V-490.0H-13.0V-821.0H11.0C76.0 -821.0 115.0 -802.0 115.0 -797.0ZM-67.0 -806.0V-490.0H-194.0V-830.0H-171.0C-106.0 -830.0 -68.0 -810.0 -67.0 -806.0ZM-253.0 -821.0V-518.0H253.0V-490.0H-244.0L-386.0 -435.0V-863.0H-367.0C-312.0 -863.0 -253.0 -834.0 -253.0 -821.0ZM261.0 -632.0H-324.0V-660.0H261.0ZM43.0 -92.0 -19.0 -165.0H-232.0L-224.0 -193.0H129.0C143.0 -193.0 154.0 -188.0 157.0 -177.0C113.0 -141.0 43.0 -92.0 43.0 -92.0Z"/></g>
<g fill="green" transform="translate(300 100) scale(0.1 -0.1)"><path d="M0.0 0.0C83.0 -101.0 241.0 -201.0 401.0 -259.0C406.0 -240.0 428.0 -225.0 453.0 -221.0L455.0 -207.0C282.0 -155.0 115.0 -76.0 19.0 11.0C42.0 13.0 54.0 18.0 57.0 29.0L-45.0 48.0C-106.0 -57.0 -319.0 -208.0 -482.0 -275.0L-475.0 -291.0C-300.0 -228.0 -101.0 -102.0 0.0 0.0ZM180.0 -450.0V-306.0H320.0V-276.0H184.0L136.0 -252.0V-464.0H143.0C161.0 -464.0 180.0 -454.0 180.0 -450.0ZM281.0 -276.0H289.0V-459.0H295.0C310.0 -459.0 332.0 -447.0 333.0 -442.0V-310.0C349.0 -308.0 363.0 -301.0 368.0 -295.0L308.0 -247.0ZM316.0 -399.0H158.0V-429.0H316.0ZM-74.0 -446.0V-306.0H62.0V-276.0H-70.0L-118.0 -252.0V-460.0H-111.0C-93.0 -460.0 -74.0 -450.0 -74.0 -446.0ZM29.0 -276.0H37.0V-454.0H43.0C58.0 -454.0 80.0 -443.0 81.0 -437.0V-309.0C96.0 -308.0 110.0 -300.0 115.0 -294.0L56.0 -248.0ZM61.0 -399.0H-97.0V-429.0H61.0ZM-329.0 -450.0V-306.0H-189.0V-276.0H-325.0L-373.0 -252.0V-464.0H-366.0C-348.0 -464.0 -329.0 -454.0 -329.0 -450.0ZM-226.0 -276.0H-218.0V-454.0H-212.0C-197.0 -454.0 -175.0 -443.0 -174.0 -437.0V-309.0C-159.0 -308.0 -145.0 -300.0 -140.0 -294.0L-199.0 -248.0ZM-190.0 -399.0H-353.0V-429.0H-190.0ZM262.0 -509.0H272.0V-786.0C272.0 -799.0 268.0 -804.0 253.0 -804.0C236.0 -804.0 163.0 -799.0 163.0 -799.0V-814.0C195.0 -818.0 215.0 -824.0 227.0 -832.0C238.0 -840.0 241.0 -853.0 243.0 -867.0C308.0 -859.0 316.0 -833.0 316.0 -791.0V-548.0C336.0 -545.0 354.0 -537.0 360.0 -530.0L288.0 -476.0ZM108.0 -819.0V-509.0H64.0V-835.0H70.0C93.0 -835.0 108.0 -823.0 108.0 -819.0ZM-99.0 -823.0V-509.0H-143.0V-840.0H-137.0C-114.0 -840.0 -99.0 -827.0 -99.0 -823.0ZM-310.0 -850.0V-539.0H285.0V-509.0H-304.0L-354.0 -483.0V-865.0H-346.0C-328.0 -865.0 -310.0 -854.0 -310.0 -850.0ZM286.0 -648.0H-328.0V-678.0H286.0ZM89.0 -129.0 52.0 -173.0H-222.0L-214.0 -203.0H136.0C148.0 -203.0 158.0 -198.0 160.0 -187.0C133.0 -161.0 89.0 -129.0 89.0 -129.0Z"/></g>
<g fill="green" transform="translate(400 100) scale(0.1 -0.1)"><path d="M0.0 0.0C64.0 -113.0 197.0 -190.0 337.0 -233.0C342.0 -178.0 378.0 -110.0 436.0 -90.0V-74.0C309.0 -74.0 110.0 -55.0 14.0 11.0C52.0 15.0 64.0 22.0 68.0 36.0L-136.0 89.0C-173.0 -14.0 -344.0 -173.0 -515.0 -259.0L-510.0 -270.0C-316.0 -222.0 -96.0 -109.0 0.0 0.0ZM215.0 -422.0V-288.0H324.0V-260.0H218.0L117.0 -220.0V-451.0H131.0C171.0 -451.0 215.0 -430.0 215.0 -422.0ZM239.0 -260.0H247.0V-441.0H265.0C297.0 -441.0 349.0 -423.0 350.0 -416.0V-298.0C364.0 -295.0 374.0 -289.0 379.0 -283.0L284.0 -213.0ZM314.0 -395.0H159.0V-423.0H314.0ZM-52.0 -422.0V-288.0H50.0V-260.0H-48.0L-150.0 -219.0V-451.0H-136.0C-96.0 -451.0 -52.0 -430.0 -52.0 -422.0ZM-22.0 -260.0H-14.0V-446.0H4.0C37.0 -446.0 89.0 -427.0 89.0 -420.0V-298.0C103.0 -295.0 113.0 -289.0 117.0 -283.0L23.0 -214.0ZM49.0 -395.0H-102.0V-423.0H49.0ZM-316.0 -426.0V-288.0H-214.0V-260.0H-312.0L-414.0 -219.0V-455.0H-400.0C-360.0 -455.0 -316.0 -434.0 -316.0 -426.0ZM-288.0 -260.0H-280.0V-446.0H-262.0C-230.0 -446.0 -178.0 -427.0 -177.0 -420.0V-298.0C-163.0 -295.0 -154.0 -288.0 -149.0 -283.0L-243.0 -214.0ZM-222.0 -395.0H-358.0V-423.0H-222.0ZM159.0 -490.0H169.0V-728.0C169.0 -738.0 167.0 -743.0 155.0 -743.0C142.0 -743.0 118.0 -742.0 118.0 -742.0V-754.0C145.0 -759.0 153.0 -773.0 158.0 -788.0C164.0 -804.0 164.0 -830.0 165.0 -865.0C290.0 -855.0 306.0 -815.0 306.0 -739.0V-540.0C327.0 -536.0 340.0 -527.0 346.0 -519.0L218.0 -423.0ZM115.0 -797.0V-490.0H-13.0V-821.0H11.0C76.0 -821.0 115.0 -802.0 115.0 -797.0ZM-67.0 -806.0V-490.0H-194.0V-830.0H-171.0C-106.0 -830.0 -68.0 -810.0 -67.0 -806.0ZM-253.0 -821.0V-518.0H253.0V-490.0H-244.0L-386.0 -435.0V-863.0H-367.0C-312.0 -863.0 -253.0 -834.0 -253.0 -821.0ZM261.0 -632.0H-324.0V-660.0H261.0ZM43.0 -92.0 -19.0 -165.0H-232.0L-224.0 -193.0H129.0C143.0 -193.0 154.0 -188.0 157.0 -177.0C113.0 -141.0 43.0 -92.0 43.0 -92.0Z"/></g>
<g fill="red" transform="translate(100 200) scale(0.1 -0.1)"><path d="M0.0 0.0C83.0 -101.0 241.0 -201.0 401.0 -259.0C406.0 -240.0 428.0 -225.0 453.0 -221.0L455.0 -207.0C282.0 -155.0 115.0 -76.0 19.0 11.0C42.0 13.0 54.0 18.0 57.0 29.0L-45.0 48.0C-106.0 -57.0 -319.0 -208.0 -482.0 -275.0L-475.0 -291.0C-300.0 -228.0 -101.0 -102.0 0.0 0.0ZM180.0 -450.0V-306.0H320.0V-276.0H184.0L136.0 -252.0V-464.0H143.0C161.0 -464.0 180.0 -454.0 180.0 -450.0ZM281.0 -276.0H289.0V-459.0H295.0C310.0 -459.0 332.0 -447.0 333.0 -442.0V-310.0C349.0 -308.0 363.0 -301.0 368.0 -295.0L308.0 -247.0ZM316.0 -399.0H158.0V-429.0H316.0ZM-74.0 -446.0V-306.0H62.0V-276.0H-70.0L-118.0 -252.0V-460.0H-111.0C-93.0 -460.0 -74.0 -450.0 -74.0 -446.0ZM29.0 -276.0H37.0V-454.0H43.0C58.0 -454.0 80.0 -443.0 81.0 -437.0V-309.0C96.0 -308.0 110.0 -300.0 115.0 -294.0L56.0 -248.0ZM61.0 -399.0H-97.0V-429.0H61.0ZM-329.0 -450.0V-306.0H-189.0V-276.0H-325.0L-373.0 -252.0V-464.0H-366.0C-348.0 -464.0 -329.0 -454.0 -329.0 -450.0ZM-226.0 -276.0H-218.0V-454.0H-212.0C-197.0 -454.0 -175.0 -443.0 -174.0 -437.0V-309.0C-159.0 -308.0 -145.0 -300.0 -140.0 -294.0L-199.0 -248.0ZM-190.0 -399.0H-353.0V-429.0H-190.0ZM262.0 -509.0H272.0V-786.0C272.0 -799.0 268.0 -804.0 253.0 -804.0C236.0 -804.0 163.0 -799.0 163.0 -799.0V-814.0C195.0 -818.0 215.0 -824.0 227.0 -832.0C238.0 -840.0 241.0 -853.0 243.0 -867.0C308.0 -859.0 316.0 -833.0 316.0 -791.0V-548.0C336.0 -545.0 354.0 -537.0 360.0 -530.0L288.0 -476.0ZM108.0 -819.0V-509.0H64.0V-835.0H70.0C93.0 -835.0 108.0 -823.0 108.0 -819.0ZM-99.0 -823.0V-509.0H-143.0V-840.0H-137.0C-114.0 -840.0 -99.0 -827.0 -99.0 -823.0ZM-310.0 -850.0V-539.0H285.0V-509.0H-304.0L-354.0 -483.0V-865.0H-346.0C-328.0 -865.0 -310.0 -854.0 -310.0 -850.0ZM286.0 -648.0H-328.0V-678.0H286.0ZM89.0 -129.0 52.0 -173.0H-222.0L-214.0 -203.0H136.0C148.0 -203.0 158.0 -198.0 160.0 -187.0C133.0 -161.0 89.0 -129.0 89.0 -129.0Z"/></g>
<g fill="black" opacity=".8" transform="translate(100 200) scale(0.1 -0.1)"><path d="M0.0 0.0C83.0 -101.0 241.0 -201.0 401.0 -259.0C406.0 -240.0 428.0 -225.0 453.0 -221.0L455.0 -207.0C282.0 -155.0 115.0 -76.0 19.0 11.0C42.0 13.0 54.0 18.0 57.0 29.0L-45.0 48.0C-106.0 -57.0 -319.0 -208.0 -482.0 -275.0L-475.0 -291.0C-300.0 -228.0 -101.0 -102.0 0.0 0.0ZM180.0 -450.0V-306.0H320.0V-276.0H184.0L136.0 -252.0V-464.0H143.0C161.0 -464.0 180.0 -454.0 180.0 -450.0ZM281.0 -276.0H289.0V-459.0H295.0C310.0 -459.0 332.0 -447.0 333.0 -442.0V-310.0C349.0 -308.0 363.0 -301.0 368.0 -295.0L308.0 -247.0ZM316.0 -399.0H158.0V-429.0H316.0ZM-74.0 -446.0V-306.0H62.0V-276.0H-70.0L-118.0 -252.0V-460.0H-111.0C-93.0 -460.0 -74.0 -450.0 -74.0 -446.0ZM29.0 -276.0H37.0V-454.0H43.0C58.0 -454.0 80.0 -443.0 81.0 -437.0V-309.0C96.0 -308.0 110.0 -300.0 115.0 -294.0L56.0 -248.0ZM61.0 -399.0H-97.0V-429.0H61.0ZM-329.0 -450.0V-306.0H-189.0V-276.0H-325.0L-373.0 -252.0V-464.0H-366.0C-348.0 -464.0 -329.0 -454.0 -329.0 -450.0ZM-226.0 -276.0H-218.0V-454.0H-212.0C-197.0 -454.0 -175.0 -443.0 -174.0 -437.0V-309.0C-159.0 -308.0 -145.0 -300.0 -140.0 -294.0L-199.0 -248.0ZM-190.0 -399.0H-353.0V-429.0H-190.0ZM262.0 -509.0H272.0V-786.0C272.0 -799.0 268.0 -804.0 253.0 -804.0C236.0 -804.0 163.0 -799.0 163.0 -799.0V-814.0C195.0 -818.0 215.0 -824.0 227.0 -832.0C238.0 -840.0 241.0 -853.0 243.0 -867.0C308.0 -859.0 316.0 -833.0 316.0 -791.0V-548.0C336.0 -545.0 354.0 -537.0 360.0 -530.0L288.0 -476.0ZM108.0 -819.0V-509.0H64.0V-835.0H70.0C93.0 -835.0 108.0 -823.0 108.0 -819.0ZM-99.0 -823.0V-509.0H-143.0V-840.0H-137.0C-114.0 -840.0 -99.0 -827.0 -99.0 -823.0ZM-310.0 -850.0V-539.0H285.0V-509.0H-304.0L-354.0 -483.0V-865.0H-346.0C-328.0 -865.0 -310.0 -854.0 -310.0 -850.0ZM286.0 -648.0H-328.0V-678.0H286.0ZM89.0 -129.0 52.0 -173.0H-222.0L-214.0 -203.0H136.0C148.0 -203.0 158.0 -198.0 160.0 -187.0C133.0 -161.0 89.0 -129.0 89.0 -129.0Z"/></g>
<g fill="red" transform="translate(200 200) scale(0.1 -0.1)"><path d="M0.0 0.0C64.0 -113.0 197.0 -190.0 337.0 -233.0C342.0 -178.0 378.0 -110.0 436.0 -90.0V-74.0C309.0 -74.0 110.0 -55.0 14.0 11.0C52.0 15.0 64.0 22.0 68.0 36.0L-136.0 89.0C-173.0 -14.0 -344.0 -173.0 -515.0 -259.0L-510.0 -270.0C-316.0 -222.0 -96.0 -109.0 0.0 0.0ZM215.0 -422.0V-288.0H324.0V-260.0H218.0L117.0 -220.0V-451.0H131.0C171.0 -451.0 215.0 -430.0 215.0 -422.0ZM239.0 -260.0H247.0V-441.0H265.0C297.0 -441.0 349.0 -423.0 350.0 -416.0V-298.0C364.0 -295.0 374.0 -289.0 379.0 -283.0L284.0 -213.0ZM314.0 -395.0H159.0V-423.0H314.0ZM-52.0 -422.0V-288.0H50.0V-260.0H-48.0L-150.0 -219.0V-451.0H-136.0C-96.0 -451.0 -52.0 -430.0 -52.0 -422.0ZM-22.0 -260.0H-14.0V-446.0H4.0C37.0 -446.0 89.0 -427.0 89.0 -420.0V-298.0C103.0 -295.0 113.0 -289.0 117.0 -283.0L23.0 -214.0ZM49.0 -395.0H-102.0V-423.0H49.0ZM-316.0 -426.0V-288.0H-214.0V-260.0H-312.0L-414.0 -219.0V-455.0H-400.0C-360.0 -455.0 -316.0 -434.0 -316.0 -426.0ZM-288.0 -260.0H-280.0V-446.0H-262.0C-230.0 -446.0 -178.0 -427.0 -177.0 -420.0V-298.0C-163.0 -295.0 -154.0 -288.0 -149.0 -283.0L-243.0 -214.0ZM-222.0 -395.0H-358.0V-423.0H-222.0ZM159.0 -490.0H169.0V-728.0C169.0 -738.0 167.0 -743.0 155.0 -743.0C142.0 -743.0 118.0 -742.0 118.0 -742.0V-754.0C145.0 -759.0 153.0 -773.0 158.0 -788.0C164.0 -804.0 164.0 -830.0 165.0 -865.0C290.0 -855.0 306.0 -815.0 306.0 -739.0V-540.0C327.0 -536.0 340.0 -527.0 346.0 -519.0L218.0 -423.0ZM115.0 -797.0V-490.0H-13.0V-821.0H11.0C76.0 -821.0 115.0 -802.0 115.0 -797.0ZM-67.0 -806.0V-490.0H-194.0V-830.0H-171.0C-106.0 -830.0 -68.0 -810.0 -67.0 -806.0ZM-253.0 -821.0V-518.0H253.0V-490.0H-244.0L-386.0 -435.0V-863.0H-367.0C-312.0 -863.0 -253.0 -834.0 -253.0 -821.0ZM261.0 -632.0H-324.0V-660.0H261.0ZM43.0 -92.0 -19.0 -165.0H-232.0L-224.0 -193.0H129.0C143.0 -193.0 154.0 -188.0 157.0 -177.0C113.0 -141.0 43.0 -92.0 43.0 -92.0Z"/></g>
<g fill="black" opacity=".8" transform="translate(200 200) scale(0.1 -0.1)"><path d="M0.0 0.0C64.0 -113.0 197.0 -190.0 337.0 -233.0C342.0 -178.0 378.0 -110.0 436.0 -90.0V-74.0C309.0 -74.0 110.0 -55.0 14.0 11.0C52.0 15.0 64.0 22.0 68.0 36.0L-136.0 89.0C-173.0 -14.0 -344.0 -173.0 -515.0 -259.0L-510.0 -270.0C-316.0 -222.0 -96.0 -109.0 0.0 0.0ZM215.0 -422.0V-288.0H324.0V-260.0H218.0L117.0 -220.0V-451.0H131.0C171.0 -451.0 215.0 -430.0 215.0 -422.0ZM239.0 -260.0H247.0V-441.0H265.0C297.0 -441.0 349.0 -423.0 350.0 -416.0V-298.0C364.0 -295.0 374.0 -289.0 379.0 -283.0L284.0 -213.0ZM314.0 -395.0H159.0V-423.0H314.0ZM-52.0 -422.0V-288.0H50.0V-260.0H-48.0L-150.0 -219.0V-451.0H-136.0C-96.0 -451.0 -52.0 -430.0 -52.0 -422.0ZM-22.0 -260.0H-14.0V-446.0H4.0C37.0 -446.0 89.0 -427.0 89.0 -420.0V-298.0C103.0 -295.0 113.0 -289.0 117.0 -283.0L23.0 -214.0ZM49.0 -395.0H-102.0V-423.0H49.0ZM-316.0 -426.0V-288.0H-214.0V-260.0H-312.0L-414.0 -219.0V-455.0H-400.0C-360.0 -455.0 -316.0 -434.0 -316.0 -426.0ZM-288.0 -260.0H-280.0V-446.0H-262.0C-230.0 -446.0 -178.0 -427.0 -177.0 -420.0V-298.0C-163.0 -295.0 -154.0 -288.0 -149.0 -283.0L-243.0 -214.0ZM-222.0 -395.0H-358.0V-423.0H-222.0ZM159.0 -490.0H169.0V-728.0C169.0 -738.0 167.0 -743.0 155.0 -743.0C142.0 -743.0 118.0 -742.0 118.0 -742.0V-754.0C145.0 -759.0 153.0 -773.0 158.0 -788.0C164.0 -804.0 164.0 -830.0 165.0 -865.0C290.0 -855.0 306.0 -815.0 306.0 -739.0V-540.0C327.0 -536.0 340.0 -527.0 346.0 -519.0L218.0 -423.0ZM115.0 -797.0V-490.0H-13.0V-821.0H11.0C76.0 -821.0 115.0 -802.0 115.0 -797.0ZM-67.0 -806.0V-490.0H-194.0V-830.0H-171.0C-106.0 -830.0 -68.0 -810.0 -67.0 -806.0ZM-253.0 -821.0V-518.0H253.0V-490.0H-244.0L-386.0 -435.0V-863.0H-367.0C-312.0 -863.0 -253.0 -834.0 -253.0 -821.0ZM261.0 -632.0H-324.0V-660.0H261.0ZM43.0 -92.0 -19.0 -165.0H-232.0L-224.0 -193.0H129.0C143.0 -193.0 154.0 -188.0 157.0 -177.0C113.0 -141.0 43.0 -92.0 43.0 -92.0Z"/></g>
</svg>
