<?xml version="1.0" encoding="UTF-8"?>
<svg width="1700" height="300" xmlns="http://www.w3.org/2000/svg">
<rect width="100%" height="100%" fill="white"/>
<g fill="green" transform="translate(100 100) scale(0.1 -0.1)"><path d="M0.0 0.0 10.0 -39.0H728.0C745.0 -39.0 757.0 -33.0 760.0 -18.0C725.0 16.0 670.0 58.0 670.0 58.0L622.0 0.0ZM492.0 0.0V-313.0H500.0C531.0 -313.0 551.0 -296.0 551.0 -291.0V0.0ZM116.0 769.0V386.0H125.0C151.0 386.0 175.0 399.0 175.0 406.0V729.0H594.0V769.0H181.0L116.0 801.0ZM150.0 671.0V631.0H597.0V671.0ZM97.0 247.0V207.0H637.0V247.0ZM97.0 128.0V89.0H637.0V128.0ZM135.0 572.0 134.0 532.0H581.0V572.0ZM150.0 470.0V432.0H603.0V470.0ZM455.0 817.0V414.0H463.0C482.0 414.0 512.0 430.0 513.0 438.0V771.0C533.0 774.0 552.0 784.0 559.0 793.0L479.0 854.0L444.0 817.0ZM64.0 358.0V42.0H74.0C98.0 42.0 123.0 57.0 123.0 62.0V319.0H637.0V358.0H129.0L64.0 390.0ZM735.0 436.0V31.0H743.0C763.0 31.0 793.0 47.0 794.0 55.0V390.0C813.0 393.0 832.0 402.0 839.0 412.0L760.0 473.0L724.0 436.0ZM332.0 888.0C325.0 848.0 311.0 783.0 304.0 747.0H339.0C355.0 776.0 377.0 812.0 389.0 841.0C416.0 842.0 431.0 854.0 435.0 870.0ZM332.0 358.0V113.0H390.0V358.0ZM209.0 0.0C205.0 -113.0 185.0 -212.0 -21.0 -293.0L-3.0 -316.0C237.0 -239.0 264.0 -129.0 274.0 0.0Z"/></g>
<g fill="green" transform="translate(200 100) scale(0.1 -0.1)"><path d="M0.0 0.0 11.0 -37.0H745.0C763.0 -37.0 777.0 -30.0 781.0 -16.0C730.0 32.0 645.0 103.0 645.0 103.0L569.0 0.0ZM433.0 0.0V-338.0H464.0C554.0 -338.0 607.0 -312.0 609.0 -307.0V0.0ZM106.0 774.0V387.0H130.0C198.0 387.0 271.0 422.0 271.0 436.0V737.0H562.0V774.0H277.0L106.0 841.0ZM197.0 674.0V637.0H570.0V674.0ZM152.0 239.0V202.0H623.0V239.0ZM152.0 118.0V81.0H623.0V118.0ZM183.0 572.0V535.0H553.0V572.0ZM197.0 468.0V431.0H570.0V468.0ZM383.0 828.0V424.0H413.0C470.0 424.0 551.0 461.0 553.0 472.0V772.0C573.0 776.0 587.0 785.0 592.0 794.0L444.0 905.0L371.0 828.0ZM60.0 356.0V28.0H82.0C144.0 28.0 214.0 62.0 214.0 74.0V319.0H605.0V356.0H221.0L60.0 419.0ZM688.0 444.0V55.0H714.0C762.0 55.0 833.0 85.0 835.0 95.0V389.0C856.0 393.0 873.0 402.0 879.0 412.0L743.0 513.0L677.0 444.0ZM292.0 928.0C292.0 879.0 289.0 803.0 286.0 761.0H335.0C375.0 787.0 440.0 831.0 477.0 859.0C506.0 863.0 524.0 874.0 528.0 897.0ZM306.0 356.0V111.0H460.0V356.0ZM147.0 2.0C144.0 -111.0 140.0 -221.0 -6.0 -320.0L5.0 -337.0C268.0 -262.0 327.0 -134.0 338.0 2.0Z"/></g>
<g fill="green" transform="translate(300 100) scale(0.1 -0.1)"><path d="M0.0 0.0 7.0 -29.0H524.0C536.0 -29.0 545.0 -25.0 548.0 -14.0C522.0 12.0 481.0 43.0 481.0 43.0L445.0 0.0ZM358.0 0.0V-233.0H364.0C388.0 -233.0 403.0 -220.0 403.0 -217.0V0.0ZM78.0 575.0V290.0H84.0C104.0 290.0 122.0 299.0 122.0 305.0V545.0H428.0V575.0H126.0L78.0 599.0ZM104.0 502.0V472.0H432.0V502.0ZM69.0 187.0V156.0H458.0V187.0ZM69.0 96.0V67.0H458.0V96.0ZM70.0 429.0 68.0 399.0H395.0V429.0ZM104.0 353.0V324.0H438.0V353.0ZM269.0 636.0V323.0H275.0C289.0 323.0 311.0 335.0 312.0 341.0V602.0C327.0 604.0 340.0 611.0 346.0 618.0L286.0 663.0L261.0 636.0ZM43.0 270.0V33.0H50.0C68.0 33.0 87.0 44.0 87.0 48.0V240.0H457.0V270.0H91.0L43.0 294.0ZM517.0 352.0V29.0H523.0C538.0 29.0 561.0 41.0 561.0 47.0V318.0C575.0 320.0 589.0 326.0 594.0 334.0L535.0 379.0L509.0 352.0ZM238.0 667.0C232.0 636.0 222.0 586.0 217.0 558.0H243.0C255.0 581.0 271.0 610.0 279.0 633.0C300.0 634.0 311.0 643.0 314.0 654.0ZM235.0 270.0V85.0H278.0V270.0ZM146.0 0.0C143.0 -84.0 128.0 -158.0 -24.0 -218.0L-10.0 -236.0C167.0 -178.0 187.0 -96.0 194.0 0.0Z"/></g>
<g fill="green" transform="translate(400 100) scale(0.1 -0.1)"><path d="M0.0 0.0 8.0 -28.0H533.0C546.0 -28.0 556.0 -22.0 560.0 -12.0C522.0 24.0 460.0 77.0 460.0 77.0L404.0 0.0ZM310.0 0.0V-254.0H333.0C400.0 -254.0 440.0 -234.0 442.0 -231.0V0.0ZM70.0 579.0V292.0H88.0C139.0 292.0 193.0 318.0 193.0 328.0V551.0H403.0V579.0H197.0L70.0 629.0ZM139.0 505.0V477.0H409.0V505.0ZM110.0 178.0V150.0H443.0V178.0ZM110.0 86.0V59.0H443.0V86.0ZM106.0 429.0 105.0 401.0H369.0V429.0ZM139.0 351.0V323.0H409.0V351.0ZM212.0 647.0V331.0H235.0C277.0 331.0 337.0 359.0 339.0 368.0V605.0C353.0 608.0 364.0 615.0 367.0 622.0L258.0 704.0L203.0 647.0ZM40.0 267.0V22.0H57.0C102.0 22.0 154.0 47.0 154.0 56.0V239.0H427.0V267.0H159.0L40.0 313.0ZM483.0 357.0V50.0H502.0C537.0 50.0 588.0 73.0 590.0 80.0V316.0C605.0 319.0 618.0 326.0 622.0 333.0L524.0 407.0L475.0 357.0ZM208.0 698.0C208.0 660.0 206.0 601.0 204.0 569.0H239.0C270.0 589.0 319.0 624.0 347.0 646.0C369.0 649.0 382.0 657.0 385.0 674.0ZM217.0 267.0V83.0H332.0V267.0ZM96.0 2.0C94.0 -80.0 91.0 -163.0 -7.0 -239.0L1.0 -252.0C187.0 -195.0 233.0 -97.0 241.0 2.0Z"/></g>
<g fill="green" transform="translate(500 100) scale(0.1 -0.1)"><path d="M0.0 0.0 10.0 -38.0H526.0C541.0 -38.0 555.0 -32.0 558.0 -17.0C523.0 15.0 471.0 55.0 471.0 55.0L425.0 0.0ZM359.0 0.0V-318.0H367.0C396.0 -318.0 416.0 -301.0 416.0 -297.0V0.0ZM77.0 734.0V362.0H86.0C111.0 362.0 135.0 375.0 135.0 382.0V694.0H443.0V734.0H140.0L77.0 765.0ZM112.0 641.0V602.0H452.0V641.0ZM82.0 232.0V193.0H468.0V232.0ZM82.0 116.0V77.0H468.0V116.0ZM-88.0 551.0 -94.0 512.0H240.0V551.0ZM112.0 451.0V414.0H456.0V451.0ZM780.0 579.0V292.0H788.0C807.0 292.0 837.0 307.0 838.0 315.0V533.0C856.0 536.0 876.0 546.0 883.0 555.0L804.0 615.0L769.0 579.0ZM47.0 338.0V35.0H57.0C80.0 35.0 105.0 50.0 105.0 55.0V300.0H461.0V338.0H111.0L47.0 369.0ZM1031.0 294.0V-87.0H1039.0C1059.0 -87.0 1088.0 -71.0 1089.0 -64.0V249.0C1108.0 252.0 1127.0 261.0 1134.0 270.0L1055.0 331.0L1020.0 294.0ZM244.0 853.0C238.0 814.0 229.0 750.0 223.0 715.0H257.0C271.0 745.0 289.0 781.0 300.0 808.0C325.0 810.0 339.0 822.0 343.0 839.0ZM236.0 338.0V105.0H292.0V338.0ZM147.0 0.0C145.0 -113.0 133.0 -216.0 -14.0 -299.0L4.0 -322.0C185.0 -241.0 203.0 -128.0 211.0 0.0Z"/></g>
<g fill="green" transform="translate(600 100) scale(0.1 -0.1)"><path d="M0.0 0.0 11.0 -36.0H561.0C578.0 -36.0 593.0 -29.0 596.0 -16.0C547.0 30.0 465.0 97.0 465.0 97.0L393.0 0.0ZM326.0 0.0V-345.0H356.0C442.0 -345.0 493.0 -319.0 495.0 -314.0V0.0ZM77.0 755.0V378.0H100.0C164.0 378.0 232.0 410.0 232.0 424.0V719.0H432.0V755.0H237.0L77.0 818.0ZM171.0 660.0V624.0H444.0V660.0ZM138.0 239.0V203.0H482.0V239.0ZM138.0 122.0V86.0H482.0V122.0ZM-18.0 566.0 -23.0 530.0H214.0V566.0ZM171.0 464.0V427.0H444.0V464.0ZM751.0 581.0V318.0H781.0C834.0 318.0 914.0 352.0 915.0 363.0V528.0C935.0 531.0 948.0 539.0 953.0 548.0L809.0 654.0L740.0 581.0ZM46.0 351.0V27.0H67.0C125.0 27.0 190.0 59.0 190.0 70.0V315.0H446.0V351.0H195.0L46.0 410.0ZM1006.0 335.0V-43.0H1030.0C1078.0 -43.0 1142.0 -9.0 1143.0 2.0V284.0C1164.0 287.0 1179.0 295.0 1184.0 304.0L1058.0 399.0L996.0 335.0ZM218.0 902.0C218.0 856.0 217.0 784.0 214.0 744.0H265.0C301.0 769.0 358.0 811.0 390.0 838.0C418.0 842.0 435.0 853.0 439.0 875.0ZM223.0 351.0V117.0H362.0V351.0ZM94.0 3.0C91.0 -109.0 90.0 -220.0 -11.0 -321.0L0.0 -337.0C214.0 -260.0 270.0 -130.0 278.0 3.0Z"/></g>
<g fill="green" transform="translate(700 100) scale(0.1 -0.1)"><path d="M0.0 0.0 8.0 -31.0H931.0C944.0 -31.0 954.0 -27.0 956.0 -15.0C928.0 13.0 882.0 50.0 882.0 50.0L841.0 0.0ZM625.0 -1.0V-218.0H631.0C654.0 -218.0 669.0 -205.0 669.0 -201.0V-1.0ZM174.0 639.0V316.0H181.0C200.0 316.0 220.0 327.0 220.0 332.0V609.0H762.0V639.0H224.0L174.0 664.0ZM195.0 555.0V524.0H751.0V555.0ZM115.0 203.0V172.0H818.0V203.0ZM115.0 105.0V76.0H818.0V105.0ZM-25.0 472.0 -31.0 441.0H519.0V472.0ZM195.0 382.0V353.0H758.0V382.0ZM582.0 702.0V353.0H589.0C604.0 353.0 626.0 367.0 627.0 373.0V662.0C647.0 666.0 664.0 675.0 672.0 683.0L603.0 736.0L572.0 702.0ZM97.0 294.0V33.0H104.0C124.0 33.0 142.0 44.0 142.0 48.0V264.0H820.0V294.0H148.0L97.0 320.0ZM724.0 348.0V66.0H730.0C745.0 66.0 769.0 79.0 770.0 85.0V307.0C788.0 311.0 806.0 319.0 813.0 328.0L744.0 380.0L713.0 348.0ZM469.0 722.0C457.0 691.0 435.0 643.0 423.0 617.0H451.0C471.0 635.0 496.0 659.0 513.0 679.0C534.0 676.0 548.0 684.0 552.0 696.0ZM447.0 294.0V90.0H492.0V294.0ZM301.0 0.0C295.0 -82.0 261.0 -146.0 -23.0 -200.0L-12.0 -218.0C301.0 -170.0 341.0 -98.0 354.0 0.0Z"/></g>
<g fill="green" transform="translate(800 100) scale(0.1 -0.1)"><path d="M0.0 0.0 9.0 -29.0H955.0C969.0 -29.0 980.0 -23.0 983.0 -12.0C941.0 27.0 868.0 87.0 868.0 87.0L804.0 0.0ZM563.0 0.0V-247.0H587.0C660.0 -247.0 703.0 -227.0 704.0 -222.0V0.0ZM162.0 606.0V283.0H183.0C240.0 283.0 304.0 314.0 304.0 326.0V578.0H732.0V606.0H311.0L162.0 664.0ZM221.0 520.0V492.0H730.0V520.0ZM152.0 175.0V146.0H812.0V175.0ZM152.0 81.0V52.0H812.0V81.0ZM13.0 439.0 8.0 410.0H477.0V439.0ZM221.0 350.0V321.0H730.0V350.0ZM497.0 677.0V322.0H523.0C572.0 322.0 639.0 353.0 642.0 362.0V630.0C659.0 633.0 671.0 641.0 675.0 650.0L549.0 744.0L487.0 677.0ZM87.0 269.0V14.0H106.0C162.0 14.0 224.0 44.0 224.0 54.0V241.0H841.0V269.0H234.0L87.0 326.0ZM661.0 322.0V56.0H686.0C732.0 56.0 801.0 81.0 803.0 89.0V272.0C822.0 276.0 836.0 284.0 841.0 293.0L713.0 388.0L652.0 322.0ZM401.0 729.0C399.0 688.0 394.0 627.0 390.0 594.0H424.0C462.0 613.0 527.0 647.0 564.0 668.0C587.0 670.0 602.0 678.0 606.0 697.0ZM408.0 269.0V69.0H550.0V269.0ZM238.0 -3.0C233.0 -82.0 224.0 -159.0 1.0 -229.0L8.0 -243.0C328.0 -193.0 384.0 -102.0 400.0 -3.0Z"/></g>
<g fill="green" transform="translate(900 100) scale(0.1 -0.1)"><path d="M0.0 0.0 10.0 -40.0H713.0C730.0 -40.0 742.0 -34.0 744.0 -18.0C710.0 16.0 653.0 59.0 653.0 59.0L605.0 0.0ZM468.0 0.0V-326.0H476.0C508.0 -326.0 529.0 -308.0 529.0 -303.0V0.0ZM110.0 787.0V393.0H119.0C146.0 393.0 171.0 406.0 171.0 414.0V746.0H573.0V787.0H177.0L110.0 820.0ZM146.0 687.0V646.0H578.0V687.0ZM100.0 247.0V206.0H628.0V247.0ZM100.0 131.0V91.0H628.0V131.0ZM418.0 581.0 425.0 540.0H866.0V581.0ZM146.0 482.0V443.0H584.0V482.0ZM590.0 770.0V390.0H599.0C619.0 390.0 650.0 406.0 651.0 415.0V722.0C671.0 726.0 691.0 736.0 697.0 745.0L615.0 808.0L579.0 770.0ZM66.0 362.0V30.0H76.0C100.0 30.0 126.0 45.0 126.0 51.0V322.0H628.0V362.0H132.0L66.0 395.0ZM598.0 344.0V43.0H606.0C627.0 43.0 658.0 59.0 659.0 68.0V298.0C678.0 301.0 698.0 310.0 706.0 320.0L623.0 383.0L586.0 344.0ZM303.0 911.0C296.0 870.0 283.0 803.0 276.0 765.0H312.0C328.0 796.0 350.0 833.0 363.0 863.0C389.0 864.0 405.0 877.0 409.0 894.0ZM328.0 362.0V112.0H388.0V362.0ZM217.0 0.0C212.0 -117.0 194.0 -221.0 -2.0 -306.0L17.0 -329.0C249.0 -248.0 274.0 -133.0 283.0 0.0Z"/></g>
<g fill="green" transform="translate(1000 100) scale(0.1 -0.1)"><path d="M0.0 0.0 11.0 -38.0H727.0C746.0 -38.0 760.0 -31.0 763.0 -16.0C711.0 33.0 624.0 105.0 624.0 105.0L546.0 0.0ZM426.0 0.0V-344.0H458.0C549.0 -344.0 602.0 -318.0 604.0 -312.0V0.0ZM102.0 797.0V407.0H126.0C192.0 407.0 263.0 441.0 263.0 456.0V759.0H543.0V797.0H270.0L102.0 863.0ZM197.0 695.0V657.0H555.0V695.0ZM150.0 248.0V210.0H601.0V248.0ZM150.0 123.0V85.0H601.0V123.0ZM456.0 587.0 463.0 548.0H870.0V587.0ZM197.0 484.0V446.0H555.0V484.0ZM526.0 778.0V405.0H556.0C613.0 405.0 694.0 441.0 695.0 453.0V721.0C716.0 726.0 731.0 735.0 736.0 743.0L587.0 854.0L513.0 778.0ZM55.0 368.0V37.0H76.0C138.0 37.0 207.0 71.0 207.0 83.0V330.0H576.0V368.0H214.0L55.0 431.0ZM537.0 349.0V62.0H568.0C623.0 62.0 704.0 97.0 706.0 108.0V294.0C725.0 297.0 739.0 305.0 745.0 315.0L599.0 423.0L526.0 349.0ZM282.0 955.0C282.0 905.0 280.0 827.0 277.0 784.0H328.0C368.0 811.0 433.0 856.0 470.0 885.0C500.0 889.0 519.0 901.0 523.0 924.0ZM300.0 368.0V117.0H442.0V368.0ZM147.0 3.0C145.0 -124.0 142.0 -235.0 -13.0 -328.0L0.0 -346.0C267.0 -272.0 316.0 -148.0 325.0 3.0Z"/></g>
<g fill="green" transform="translate(1100 100) scale(0.1 -0.1)"><path d="M0.0 0.0 10.0 -37.0H727.0C744.0 -37.0 756.0 -31.0 759.0 -17.0C723.0 16.0 668.0 58.0 668.0 58.0L620.0 0.0ZM481.0 -1.0V-320.0H488.0C518.0 -320.0 538.0 -303.0 538.0 -298.0V-1.0ZM138.0 744.0V377.0H147.0C171.0 377.0 194.0 389.0 194.0 395.0V706.0H588.0V744.0H201.0L138.0 775.0ZM166.0 648.0V610.0H585.0V648.0ZM98.0 238.0V199.0H630.0V238.0ZM98.0 125.0V87.0H630.0V125.0ZM260.0 550.0 262.0 511.0H684.0V550.0ZM166.0 452.0V415.0H585.0V452.0ZM429.0 797.0V404.0H437.0C455.0 404.0 485.0 420.0 486.0 428.0V753.0C505.0 756.0 523.0 765.0 530.0 775.0L453.0 833.0L419.0 797.0ZM70.0 343.0V46.0H80.0C102.0 46.0 127.0 61.0 127.0 66.0V306.0H635.0V343.0H134.0L70.0 375.0ZM785.0 437.0V22.0H793.0C812.0 22.0 840.0 37.0 841.0 45.0V394.0C861.0 397.0 879.0 405.0 886.0 415.0L810.0 474.0L775.0 437.0ZM327.0 850.0C324.0 816.0 315.0 758.0 310.0 727.0H343.0C357.0 751.0 377.0 780.0 387.0 804.0C415.0 806.0 429.0 818.0 433.0 834.0ZM338.0 343.0V114.0H394.0V343.0ZM205.0 0.0C202.0 -115.0 187.0 -218.0 8.0 -300.0L26.0 -322.0C238.0 -243.0 260.0 -130.0 267.0 0.0Z"/></g>
<g fill="green" transform="translate(1200 100) scale(0.1 -0.1)"><path d="M0.0 0.0 11.0 -36.0H751.0C769.0 -36.0 783.0 -29.0 787.0 -16.0C733.0 31.0 645.0 98.0 645.0 98.0L568.0 0.0ZM428.0 0.0V-334.0H459.0C547.0 -334.0 599.0 -309.0 600.0 -303.0V0.0ZM125.0 761.0V371.0H149.0C218.0 371.0 292.0 407.0 292.0 421.0V725.0H554.0V761.0H297.0L125.0 828.0ZM214.0 661.0V625.0H560.0V661.0ZM156.0 242.0V206.0H635.0V242.0ZM156.0 129.0V93.0H635.0V129.0ZM303.0 560.0 306.0 525.0H669.0V560.0ZM214.0 462.0V426.0H560.0V462.0ZM361.0 821.0V419.0H391.0C447.0 419.0 529.0 455.0 530.0 467.0V764.0C551.0 769.0 565.0 778.0 571.0 787.0L422.0 898.0L349.0 821.0ZM70.0 350.0V22.0H92.0C156.0 22.0 227.0 56.0 227.0 68.0V314.0H615.0V350.0H235.0L70.0 413.0ZM744.0 458.0V41.0H768.0C810.0 41.0 879.0 64.0 881.0 72.0V400.0C904.0 406.0 922.0 416.0 929.0 426.0L796.0 526.0L733.0 458.0ZM284.0 894.0C284.0 852.0 282.0 787.0 279.0 750.0H336.0C370.0 771.0 427.0 806.0 459.0 829.0C488.0 832.0 505.0 843.0 508.0 865.0ZM313.0 350.0V117.0H468.0V350.0ZM170.0 -1.0C168.0 -121.0 166.0 -230.0 14.0 -324.0L24.0 -341.0C295.0 -268.0 346.0 -145.0 355.0 -1.0Z"/></g>
<g fill="red" transform="translate(100 200) scale(0.1 -0.1)"><path d="M0.0 0.0 8.0 -30.0H669.0C682.0 -30.0 691.0 -25.0 693.0 -14.0C667.0 12.0 624.0 45.0 624.0 45.0L587.0 0.0ZM446.0 0.0V-226.0H452.0C475.0 -226.0 490.0 -214.0 490.0 -210.0V0.0ZM113.0 595.0V294.0H120.0C139.0 294.0 158.0 305.0 158.0 310.0V565.0H545.0V595.0H162.0L113.0 619.0ZM137.0 518.0V488.0H544.0V518.0ZM89.0 187.0V157.0H590.0V187.0ZM89.0 98.0V69.0H590.0V98.0ZM137.0 440.0V410.0H544.0V440.0ZM137.0 361.0V332.0H549.0V361.0ZM523.0 595.0V300.0H529.0C544.0 300.0 566.0 312.0 567.0 318.0V558.0C584.0 561.0 600.0 569.0 606.0 576.0L542.0 625.0L514.0 595.0ZM66.0 274.0V25.0H73.0C92.0 25.0 110.0 36.0 110.0 40.0V244.0H590.0V274.0H115.0L66.0 298.0ZM567.0 274.0V37.0H573.0C588.0 37.0 611.0 49.0 612.0 55.0V237.0C628.0 240.0 644.0 248.0 650.0 255.0L586.0 303.0L558.0 274.0ZM315.0 682.0C307.0 652.0 292.0 603.0 284.0 576.0H311.0C326.0 597.0 345.0 623.0 358.0 644.0C377.0 643.0 390.0 652.0 393.0 664.0ZM315.0 274.0V83.0H359.0V274.0ZM212.0 0.0C207.0 -83.0 186.0 -153.0 -13.0 -211.0L0.0 -228.0C225.0 -174.0 252.0 -96.0 262.0 0.0Z"/></g>
<g fill="black" opacity=".8" transform="translate(100 200) scale(0.1 -0.1)"><path d="M0.0 0.0 7.0 -30.0H669.0C681.0 -30.0 691.0 -26.0 693.0 -14.0C667.0 12.0 624.0 45.0 624.0 45.0L587.0 0.0ZM446.0 -0.0V-226.0H452.0C475.0 -226.0 490.0 -213.0 490.0 -210.0V-0.0ZM113.0 594.0V295.0H119.0C139.0 295.0 158.0 304.0 158.0 310.0V565.0H545.0V594.0H161.0L113.0 618.0ZM137.0 518.0V488.0H544.0V518.0ZM89.0 188.0V157.0H590.0V188.0ZM89.0 98.0V69.0H590.0V98.0ZM137.0 440.0V410.0H544.0V440.0ZM137.0 361.0V332.0H550.0V361.0ZM523.0 595.0V300.0H530.0C544.0 300.0 566.0 313.0 567.0 319.0V558.0C584.0 561.0 599.0 569.0 605.0 576.0L542.0 625.0L514.0 595.0ZM66.0 273.0V25.0H73.0C91.0 25.0 110.0 36.0 110.0 40.0V244.0H590.0V273.0H115.0L66.0 298.0ZM568.0 274.0V37.0H574.0C589.0 37.0 612.0 49.0 612.0 55.0V238.0C628.0 241.0 644.0 247.0 650.0 256.0L586.0 304.0L558.0 274.0ZM315.0 682.0C307.0 652.0 292.0 603.0 284.0 576.0H311.0C326.0 597.0 345.0 623.0 358.0 645.0C377.0 644.0 390.0 653.0 393.0 664.0ZM315.0 273.0V83.0H358.0V273.0ZM212.0 0.0C207.0 -83.0 186.0 -153.0 -13.0 -210.0L0.0 -228.0C226.0 -174.0 253.0 -96.0 261.0 0.0Z"/></g>
<g fill="red" transform="translate(200 200) scale(0.1 -0.1)"><path d="M0.0 0.0 8.0 -28.0H686.0C700.0 -28.0 710.0 -23.0 713.0 -12.0C674.0 25.0 608.0 80.0 608.0 80.0L549.0 0.0ZM404.0 0.0V-247.0H428.0C496.0 -247.0 536.0 -228.0 537.0 -224.0V0.0ZM106.0 585.0V289.0H124.0C175.0 289.0 231.0 316.0 231.0 327.0V557.0H522.0V585.0H237.0L106.0 636.0ZM171.0 507.0V479.0H527.0V507.0ZM125.0 176.0V148.0H576.0V176.0ZM125.0 84.0V56.0H576.0V84.0ZM171.0 428.0V400.0H527.0V428.0ZM171.0 348.0V320.0H527.0V348.0ZM464.0 585.0V294.0H487.0C531.0 294.0 593.0 322.0 594.0 330.0V542.0C610.0 545.0 621.0 552.0 625.0 559.0L511.0 644.0L455.0 585.0ZM57.0 266.0V22.0H74.0C122.0 22.0 176.0 48.0 176.0 58.0V238.0H577.0V266.0H183.0L57.0 315.0ZM517.0 266.0V43.0H540.0C583.0 43.0 646.0 69.0 647.0 77.0V223.0C663.0 226.0 674.0 233.0 679.0 240.0L564.0 324.0L508.0 266.0ZM280.0 704.0C279.0 665.0 276.0 607.0 273.0 574.0H308.0C341.0 594.0 395.0 628.0 426.0 649.0C448.0 652.0 462.0 660.0 466.0 678.0ZM288.0 266.0V77.0H405.0V266.0ZM154.0 0.0C151.0 -85.0 146.0 -163.0 -8.0 -232.0L1.0 -245.0C241.0 -193.0 285.0 -103.0 296.0 0.0Z"/></g>
<g fill="black" opacity=".8" transform="translate(200 200) scale(0.1 -0.1)"><path d="M0.0 0.0 8.0 -28.0H686.0C699.0 -28.0 710.0 -22.0 713.0 -12.0C674.0 25.0 607.0 80.0 607.0 80.0L549.0 0.0ZM405.0 0.0V-247.0H428.0C496.0 -247.0 536.0 -228.0 537.0 -224.0V0.0ZM106.0 585.0V289.0H125.0C175.0 289.0 231.0 315.0 231.0 327.0V557.0H522.0V585.0H237.0L106.0 636.0ZM170.0 507.0V479.0H527.0V507.0ZM124.0 176.0V148.0H577.0V176.0ZM124.0 84.0V56.0H577.0V84.0ZM171.0 429.0V400.0H527.0V429.0ZM170.0 348.0V320.0H527.0V348.0ZM464.0 585.0V294.0H488.0C531.0 294.0 593.0 321.0 595.0 331.0V542.0C610.0 545.0 622.0 552.0 625.0 560.0L511.0 644.0L454.0 585.0ZM57.0 266.0V22.0H74.0C122.0 22.0 176.0 49.0 176.0 58.0V238.0H577.0V266.0H183.0L57.0 315.0ZM516.0 267.0V43.0H540.0C583.0 43.0 645.0 69.0 647.0 77.0V223.0C663.0 226.0 674.0 232.0 678.0 240.0L565.0 325.0L508.0 267.0ZM280.0 704.0C279.0 665.0 276.0 606.0 273.0 574.0H308.0C341.0 594.0 395.0 628.0 426.0 649.0C448.0 652.0 462.0 660.0 466.0 677.0ZM288.0 266.0V78.0H404.0V266.0ZM154.0 0.0C151.0 -85.0 146.0 -163.0 -8.0 -231.0L1.0 -245.0C241.0 -193.0 285.0 -103.0 295.0 0.0Z"/></g>
<g fill="red" transform="translate(300 200) scale(0.1 -0.1)"><path d="M0.0 0.0 9.0 -30.0H886.0C900.0 -30.0 910.0 -25.0 912.0 -14.0C883.0 13.0 836.0 50.0 836.0 50.0L795.0 0.0ZM578.0 -1.0V-232.0H584.0C606.0 -232.0 622.0 -219.0 622.0 -215.0V-1.0ZM186.0 617.0V305.0H193.0C211.0 305.0 230.0 316.0 230.0 321.0V588.0H718.0V617.0H235.0L186.0 642.0ZM202.0 535.0V505.0H704.0V535.0ZM115.0 191.0V161.0H776.0V191.0ZM115.0 102.0V73.0H776.0V102.0ZM202.0 451.0V421.0H704.0V451.0ZM202.0 367.0V338.0H704.0V367.0ZM682.0 617.0V310.0H688.0C703.0 310.0 725.0 323.0 726.0 329.0V578.0C746.0 582.0 763.0 590.0 770.0 598.0L702.0 650.0L672.0 617.0ZM101.0 278.0V30.0H108.0C126.0 30.0 145.0 41.0 145.0 45.0V249.0H783.0V278.0H151.0L101.0 304.0ZM758.0 278.0V42.0H764.0C779.0 42.0 801.0 54.0 802.0 60.0V239.0C821.0 243.0 839.0 251.0 846.0 259.0L778.0 310.0L748.0 278.0ZM434.0 689.0C426.0 664.0 410.0 622.0 401.0 600.0H428.0C445.0 614.0 467.0 632.0 482.0 647.0C503.0 645.0 517.0 653.0 521.0 666.0ZM434.0 278.0V88.0H478.0V278.0ZM290.0 0.0C284.0 -86.0 259.0 -158.0 16.0 -215.0L29.0 -232.0C298.0 -179.0 330.0 -101.0 341.0 0.0Z"/></g>
<g fill="black" opacity=".8" transform="translate(300 200) scale(0.1 -0.1)"><path d="M0.0 0.0 8.0 -29.0H887.0C899.0 -29.0 910.0 -25.0 911.0 -14.0C883.0 13.0 836.0 50.0 836.0 50.0L795.0 0.0ZM578.0 -2.0V-232.0H583.0C605.0 -232.0 621.0 -219.0 621.0 -215.0V-2.0ZM186.0 617.0V306.0H193.0C210.0 306.0 230.0 316.0 230.0 321.0V588.0H719.0V617.0H235.0L186.0 641.0ZM202.0 535.0V505.0H704.0V535.0ZM115.0 191.0V161.0H776.0V191.0ZM115.0 101.0V73.0H776.0V101.0ZM202.0 451.0V420.0H704.0V451.0ZM202.0 367.0V338.0H704.0V367.0ZM681.0 616.0V309.0H689.0C703.0 309.0 726.0 323.0 727.0 330.0V577.0C745.0 582.0 762.0 590.0 770.0 599.0L703.0 649.0L672.0 616.0ZM101.0 277.0V30.0H108.0C126.0 30.0 144.0 41.0 144.0 45.0V249.0H782.0V277.0H151.0L101.0 304.0ZM758.0 278.0V42.0H764.0C779.0 42.0 801.0 54.0 802.0 60.0V240.0C821.0 244.0 839.0 251.0 846.0 260.0L778.0 311.0L748.0 278.0ZM434.0 689.0C426.0 664.0 410.0 622.0 401.0 600.0H427.0C445.0 614.0 467.0 632.0 482.0 647.0C503.0 645.0 517.0 654.0 521.0 666.0ZM434.0 277.0V89.0H478.0V277.0ZM290.0 0.0C285.0 -86.0 258.0 -157.0 17.0 -215.0L28.0 -232.0C299.0 -179.0 331.0 -101.0 340.0 0.0Z"/></g>
<g fill="red" transform="translate(400 200) scale(0.1 -0.1)"><path d="M0.0 0.0 8.0 -28.0H920.0C934.0 -28.0 945.0 -23.0 948.0 -12.0C902.0 27.0 826.0 82.0 826.0 82.0L760.0 0.0ZM535.0 0.0V-247.0H560.0C631.0 -247.0 672.0 -228.0 672.0 -223.0V0.0ZM174.0 601.0V276.0H194.0C251.0 276.0 314.0 307.0 314.0 319.0V573.0H691.0V601.0H321.0L174.0 657.0ZM234.0 515.0V487.0H690.0V515.0ZM154.0 182.0V154.0H787.0V182.0ZM154.0 95.0V67.0H787.0V95.0ZM234.0 433.0V405.0H690.0V433.0ZM234.0 351.0V323.0H690.0V351.0ZM612.0 601.0V289.0H637.0C685.0 289.0 753.0 318.0 754.0 327.0V553.0C773.0 557.0 784.0 565.0 790.0 573.0L664.0 667.0L602.0 601.0ZM92.0 268.0V12.0H111.0C167.0 12.0 229.0 41.0 229.0 53.0V240.0H809.0V268.0H240.0L92.0 324.0ZM699.0 268.0V28.0H723.0C767.0 28.0 838.0 49.0 839.0 56.0V217.0C860.0 222.0 873.0 231.0 879.0 239.0L750.0 335.0L689.0 268.0ZM375.0 704.0C373.0 670.0 369.0 620.0 366.0 591.0H409.0C441.0 606.0 496.0 631.0 527.0 647.0C550.0 649.0 564.0 657.0 568.0 675.0ZM397.0 268.0V79.0H532.0V268.0ZM252.0 -6.0C248.0 -99.0 242.0 -174.0 16.0 -238.0L24.0 -251.0C345.0 -204.0 387.0 -119.0 401.0 -6.0Z"/></g>
<g fill="black" opacity=".8" transform="translate(400 200) scale(0.1 -0.1)"><path d="M0.0 0.0 9.0 -28.0H919.0C934.0 -28.0 945.0 -22.0 947.0 -12.0C902.0 26.0 825.0 82.0 825.0 82.0L760.0 0.0ZM535.0 0.0V-247.0H560.0C631.0 -247.0 672.0 -228.0 672.0 -222.0V0.0ZM174.0 601.0V275.0H195.0C251.0 275.0 314.0 306.0 314.0 319.0V574.0H691.0V601.0H320.0L174.0 658.0ZM233.0 515.0V488.0H690.0V515.0ZM153.0 182.0V154.0H788.0V182.0ZM153.0 95.0V67.0H788.0V95.0ZM233.0 433.0 234.0 406.0H691.0V433.0ZM233.0 351.0V323.0H690.0V351.0ZM612.0 601.0V289.0H638.0C685.0 289.0 753.0 318.0 754.0 328.0V553.0C773.0 557.0 785.0 565.0 790.0 574.0L663.0 667.0L602.0 601.0ZM92.0 268.0V12.0H110.0C168.0 12.0 229.0 42.0 229.0 52.0V241.0H808.0V268.0H240.0L92.0 324.0ZM698.0 269.0V28.0H723.0C767.0 28.0 838.0 49.0 839.0 56.0V217.0C859.0 222.0 873.0 231.0 878.0 239.0L750.0 336.0L689.0 269.0ZM375.0 704.0C373.0 670.0 370.0 620.0 366.0 591.0H409.0C440.0 606.0 496.0 631.0 527.0 647.0C550.0 648.0 565.0 657.0 568.0 675.0ZM397.0 268.0V79.0H532.0V268.0ZM252.0 -5.0C248.0 -98.0 242.0 -175.0 17.0 -237.0L24.0 -251.0C345.0 -204.0 387.0 -119.0 400.0 -5.0Z"/></g>
<g fill="red" transform="translate(500 200) scale(0.1 -0.1)"><path d="M0.0 0.0 8.0 -29.0H508.0C522.0 -29.0 530.0 -24.0 532.0 -13.0C506.0 12.0 463.0 44.0 463.0 44.0L427.0 0.0ZM325.0 0.0V-252.0H331.0C354.0 -252.0 370.0 -239.0 370.0 -235.0V0.0ZM91.0 572.0V288.0H98.0C117.0 288.0 135.0 298.0 135.0 303.0V542.0H402.0V572.0H140.0L91.0 596.0ZM114.0 499.0V469.0H403.0V499.0ZM73.0 179.0V149.0H443.0V179.0ZM73.0 97.0V67.0H443.0V97.0ZM461.0 419.0 470.0 389.0H770.0V419.0ZM114.0 349.0V320.0H403.0V349.0ZM382.0 572.0V290.0H388.0C402.0 290.0 425.0 302.0 426.0 308.0V538.0C441.0 540.0 455.0 547.0 459.0 554.0L400.0 599.0L374.0 572.0ZM50.0 261.0V25.0H57.0C74.0 25.0 94.0 36.0 94.0 40.0V232.0H447.0V261.0H99.0L50.0 286.0ZM423.0 261.0V33.0H429.0C444.0 33.0 466.0 45.0 467.0 51.0V228.0C482.0 230.0 496.0 237.0 501.0 244.0L442.0 289.0L415.0 261.0ZM205.0 657.0C203.0 630.0 197.0 584.0 194.0 559.0H220.0C230.0 579.0 244.0 603.0 252.0 622.0C272.0 624.0 283.0 633.0 286.0 646.0ZM237.0 261.0V84.0H281.0V261.0ZM150.0 0.0C147.0 -90.0 139.0 -172.0 20.0 -237.0L35.0 -254.0C179.0 -191.0 193.0 -101.0 198.0 0.0Z"/></g>
<g fill="black" opacity=".8" transform="translate(500 200) scale(0.1 -0.1)"><path d="M0.0 0.0 7.0 -28.0H509.0C521.0 -28.0 530.0 -24.0 532.0 -13.0C506.0 12.0 463.0 44.0 463.0 44.0L427.0 0.0ZM325.0 -1.0V-252.0H330.0C354.0 -252.0 370.0 -238.0 370.0 -235.0V-1.0ZM91.0 571.0V289.0H97.0C117.0 289.0 135.0 297.0 135.0 303.0V542.0H402.0V571.0H140.0L91.0 595.0ZM114.0 498.0V468.0H403.0V498.0ZM73.0 179.0V148.0H443.0V179.0ZM73.0 96.0V67.0H443.0V96.0ZM461.0 419.0 470.0 389.0H769.0V419.0ZM114.0 349.0V320.0H404.0V349.0ZM382.0 571.0V290.0H389.0C403.0 290.0 426.0 302.0 427.0 309.0V537.0C441.0 540.0 454.0 546.0 459.0 554.0L400.0 598.0L375.0 571.0ZM50.0 261.0V24.0H57.0C74.0 24.0 94.0 35.0 94.0 40.0V232.0H447.0V261.0H98.0L50.0 286.0ZM423.0 261.0V33.0H429.0C445.0 33.0 467.0 44.0 467.0 51.0V229.0C482.0 231.0 496.0 236.0 502.0 244.0L441.0 290.0L415.0 261.0ZM205.0 657.0C202.0 630.0 198.0 584.0 195.0 558.0H220.0C230.0 579.0 244.0 603.0 252.0 622.0C272.0 624.0 284.0 634.0 287.0 646.0ZM237.0 261.0V85.0H280.0V261.0ZM151.0 0.0C148.0 -90.0 139.0 -172.0 20.0 -237.0L35.0 -254.0C180.0 -190.0 194.0 -101.0 197.0 0.0Z"/></g>
<g fill="red" transform="translate(600 200) scale(0.1 -0.1)"><path d="M0.0 0.0 8.0 -28.0H521.0C535.0 -28.0 545.0 -23.0 548.0 -12.0C507.0 24.0 440.0 75.0 440.0 75.0L381.0 0.0ZM299.0 0.0V-256.0H323.0C390.0 -256.0 428.0 -237.0 429.0 -233.0V0.0ZM83.0 590.0V298.0H100.0C150.0 298.0 203.0 324.0 203.0 335.0V562.0H377.0V590.0H208.0L83.0 639.0ZM154.0 514.0V486.0H386.0V514.0ZM113.0 189.0V161.0H431.0V189.0ZM113.0 101.0V73.0H431.0V101.0ZM483.0 433.0 492.0 405.0H786.0V433.0ZM154.0 361.0V333.0H386.0V361.0ZM336.0 590.0V308.0H358.0C400.0 308.0 461.0 334.0 461.0 343.0V547.0C477.0 551.0 488.0 558.0 493.0 564.0L382.0 647.0L327.0 590.0ZM44.0 273.0V25.0H60.0C107.0 25.0 159.0 50.0 159.0 60.0V245.0H408.0V273.0H164.0L44.0 320.0ZM382.0 273.0V45.0H403.0C440.0 45.0 499.0 66.0 500.0 73.0V231.0C516.0 234.0 527.0 241.0 532.0 248.0L425.0 327.0L373.0 273.0ZM192.0 695.0C192.0 662.0 191.0 611.0 189.0 582.0H233.0C259.0 599.0 301.0 627.0 325.0 645.0C347.0 648.0 360.0 657.0 363.0 674.0ZM217.0 273.0V93.0H322.0V273.0ZM117.0 0.0C116.0 -102.0 116.0 -184.0 3.0 -251.0L13.0 -264.0C210.0 -210.0 238.0 -120.0 244.0 0.0Z"/></g>
<g fill="black" opacity=".8" transform="translate(600 200) scale(0.1 -0.1)"><path d="M0.0 0.0 8.0 -28.0H521.0C535.0 -28.0 545.0 -22.0 548.0 -12.0C506.0 24.0 440.0 75.0 440.0 75.0L381.0 0.0ZM299.0 0.0V-256.0H323.0C389.0 -256.0 428.0 -237.0 429.0 -232.0V0.0ZM83.0 590.0V298.0H101.0C151.0 298.0 203.0 324.0 203.0 335.0V562.0H377.0V590.0H207.0L83.0 639.0ZM154.0 514.0V486.0H386.0V514.0ZM111.0 189.0V161.0H432.0V189.0ZM111.0 100.0V73.0H432.0V100.0ZM483.0 433.0 492.0 405.0H787.0V433.0ZM154.0 361.0V333.0H386.0V361.0ZM336.0 591.0V307.0H359.0C400.0 307.0 461.0 334.0 461.0 344.0V547.0C477.0 552.0 489.0 559.0 493.0 565.0L382.0 647.0L326.0 591.0ZM44.0 274.0V26.0H60.0C106.0 26.0 158.0 51.0 158.0 60.0V245.0H407.0V274.0H164.0L44.0 320.0ZM381.0 274.0V45.0H403.0C440.0 45.0 499.0 67.0 501.0 73.0V230.0C516.0 234.0 527.0 241.0 531.0 248.0L426.0 328.0L373.0 274.0ZM191.0 695.0C191.0 662.0 191.0 611.0 189.0 582.0H233.0C259.0 599.0 301.0 627.0 325.0 645.0C348.0 648.0 361.0 657.0 363.0 673.0ZM217.0 274.0V94.0H321.0V274.0ZM116.0 0.0C116.0 -102.0 116.0 -185.0 3.0 -250.0L13.0 -264.0C210.0 -210.0 239.0 -120.0 243.0 0.0Z"/></g>
<g fill="red" transform="translate(700 200) scale(0.1 -0.1)"><path d="M0.0 0.0 8.0 -29.0H489.0C503.0 -29.0 512.0 -24.0 515.0 -13.0C487.0 12.0 445.0 44.0 445.0 44.0L408.0 0.0ZM327.0 0.0V-252.0H333.0C356.0 -252.0 372.0 -239.0 372.0 -235.0V0.0ZM89.0 572.0V288.0H96.0C115.0 288.0 133.0 298.0 133.0 303.0V542.0H400.0V572.0H138.0L89.0 596.0ZM112.0 499.0V469.0H401.0V499.0ZM69.0 183.0V153.0H425.0V183.0ZM69.0 95.0V65.0H425.0V95.0ZM112.0 425.0V395.0H401.0V425.0ZM112.0 349.0V320.0H401.0V349.0ZM375.0 572.0V290.0H381.0C395.0 290.0 418.0 302.0 419.0 308.0V538.0C434.0 540.0 448.0 547.0 453.0 554.0L393.0 599.0L367.0 572.0ZM46.0 264.0V36.0H53.0C70.0 36.0 90.0 47.0 90.0 51.0V235.0H427.0V264.0H95.0L46.0 289.0ZM681.0 321.0V-15.0H687.0C702.0 -15.0 724.0 -3.0 725.0 3.0V287.0C740.0 289.0 754.0 296.0 759.0 303.0L700.0 349.0L673.0 321.0ZM220.0 657.0C218.0 630.0 212.0 584.0 209.0 559.0H235.0C245.0 579.0 259.0 603.0 266.0 622.0C287.0 624.0 298.0 633.0 301.0 646.0ZM224.0 264.0V87.0H268.0V264.0ZM132.0 0.0C130.0 -90.0 122.0 -172.0 2.0 -237.0L17.0 -254.0C161.0 -191.0 175.0 -101.0 181.0 0.0Z"/></g>
<g fill="black" opacity=".8" transform="translate(700 200) scale(0.1 -0.1)"><path d="M0.0 0.0 7.0 -28.0H490.0C502.0 -28.0 512.0 -24.0 515.0 -13.0C487.0 12.0 445.0 44.0 445.0 44.0L408.0 0.0ZM327.0 -1.0V-252.0H332.0C356.0 -252.0 372.0 -238.0 372.0 -235.0V-1.0ZM89.0 571.0V289.0H96.0C115.0 289.0 133.0 298.0 133.0 303.0V542.0H400.0V571.0H138.0L89.0 595.0ZM112.0 498.0V469.0H401.0V498.0ZM69.0 184.0V152.0H425.0V184.0ZM69.0 94.0V65.0H425.0V94.0ZM113.0 425.0 112.0 395.0H400.0V425.0ZM112.0 349.0V320.0H401.0V349.0ZM375.0 572.0V290.0H382.0C395.0 290.0 419.0 302.0 420.0 309.0V538.0C434.0 540.0 447.0 546.0 453.0 554.0L393.0 599.0L368.0 572.0ZM46.0 264.0V35.0H53.0C70.0 35.0 90.0 47.0 90.0 51.0V235.0H427.0V264.0H95.0L46.0 289.0ZM681.0 321.0V-15.0H687.0C702.0 -15.0 724.0 -3.0 725.0 3.0V288.0C740.0 290.0 754.0 296.0 759.0 304.0L700.0 349.0L674.0 321.0ZM220.0 657.0C218.0 630.0 213.0 584.0 209.0 559.0H235.0C245.0 579.0 259.0 603.0 266.0 622.0C288.0 624.0 298.0 634.0 301.0 646.0ZM224.0 264.0V87.0H267.0V264.0ZM133.0 0.0C131.0 -90.0 122.0 -172.0 2.0 -236.0L17.0 -254.0C162.0 -191.0 176.0 -101.0 180.0 0.0Z"/></g>
<g fill="red" transform="translate(800 200) scale(0.1 -0.1)"><path d="M0.0 0.0 8.0 -28.0H511.0C525.0 -28.0 536.0 -23.0 539.0 -12.0C498.0 24.0 431.0 75.0 431.0 75.0L372.0 0.0ZM290.0 0.0V-265.0H314.0C382.0 -265.0 422.0 -245.0 423.0 -241.0V0.0ZM82.0 590.0V290.0H100.0C153.0 290.0 209.0 317.0 209.0 328.0V562.0H379.0V590.0H213.0L82.0 641.0ZM153.0 514.0V486.0H385.0V514.0ZM116.0 189.0V161.0H434.0V189.0ZM116.0 101.0V73.0H434.0V101.0ZM153.0 438.0V410.0H385.0V438.0ZM153.0 361.0V333.0H385.0V361.0ZM333.0 590.0V308.0H356.0C399.0 308.0 462.0 335.0 463.0 344.0V547.0C479.0 550.0 489.0 557.0 494.0 564.0L380.0 649.0L324.0 590.0ZM47.0 273.0V17.0H64.0C112.0 17.0 166.0 43.0 166.0 53.0V245.0H412.0V273.0H171.0L47.0 321.0ZM658.0 346.0V9.0H675.0C707.0 9.0 757.0 28.0 758.0 35.0V303.0C776.0 307.0 790.0 315.0 795.0 322.0L696.0 397.0L649.0 346.0ZM191.0 695.0C191.0 662.0 190.0 611.0 188.0 582.0H232.0C258.0 599.0 300.0 627.0 324.0 645.0C346.0 648.0 359.0 657.0 362.0 674.0ZM209.0 273.0V93.0H327.0V273.0ZM106.0 0.0C104.0 -92.0 104.0 -178.0 7.0 -255.0L16.0 -267.0C204.0 -209.0 244.0 -110.0 251.0 0.0Z"/></g>
<g fill="black" opacity=".8" transform="translate(800 200) scale(0.1 -0.1)"><path d="M0.0 0.0 8.0 -28.0H511.0C525.0 -28.0 536.0 -22.0 539.0 -13.0C497.0 24.0 431.0 75.0 431.0 75.0L372.0 0.0ZM290.0 0.0V-265.0H314.0C382.0 -265.0 422.0 -245.0 423.0 -241.0V0.0ZM82.0 590.0V290.0H100.0C153.0 290.0 209.0 317.0 209.0 327.0V562.0H379.0V590.0H212.0L82.0 642.0ZM153.0 514.0V486.0H385.0V514.0ZM115.0 189.0V161.0H435.0V189.0ZM115.0 101.0V74.0H435.0V101.0ZM153.0 438.0V410.0H385.0V438.0ZM153.0 362.0V333.0H385.0V362.0ZM333.0 591.0V307.0H357.0C399.0 307.0 462.0 335.0 463.0 345.0V547.0C479.0 550.0 490.0 557.0 494.0 565.0L380.0 649.0L324.0 591.0ZM47.0 273.0V18.0H64.0C112.0 18.0 166.0 43.0 166.0 52.0V245.0H411.0V273.0H171.0L47.0 320.0ZM657.0 347.0V9.0H675.0C707.0 9.0 757.0 28.0 758.0 34.0V303.0C776.0 307.0 790.0 315.0 795.0 322.0L697.0 397.0L649.0 347.0ZM191.0 695.0C191.0 662.0 190.0 611.0 188.0 582.0H232.0C258.0 599.0 300.0 627.0 324.0 645.0C347.0 648.0 359.0 656.0 361.0 673.0ZM210.0 273.0V94.0H327.0V273.0ZM106.0 -0.0C104.0 -92.0 104.0 -178.0 8.0 -254.0L16.0 -267.0C204.0 -209.0 244.0 -110.0 250.0 -0.0Z"/></g>
<g fill="red" transform="translate(900 200) scale(0.1 -0.1)"><path d="M0.0 0.0 8.0 -29.0H466.0C479.0 -29.0 489.0 -24.0 491.0 -13.0C464.0 12.0 422.0 44.0 422.0 44.0L385.0 0.0ZM303.0 0.0V-252.0H309.0C331.0 -252.0 347.0 -239.0 347.0 -235.0V0.0ZM85.0 572.0V279.0H92.0C111.0 279.0 130.0 290.0 130.0 295.0V542.0H386.0V572.0H134.0L85.0 596.0ZM108.0 499.0V469.0H388.0V499.0ZM75.0 175.0V145.0H416.0V175.0ZM75.0 90.0V60.0H416.0V90.0ZM108.0 425.0V395.0H388.0V425.0ZM108.0 349.0V320.0H388.0V349.0ZM799.0 385.0V193.0H805.0C820.0 193.0 843.0 205.0 844.0 211.0V348.0C860.0 351.0 876.0 359.0 882.0 366.0L818.0 414.0L790.0 385.0ZM52.0 257.0V21.0H59.0C76.0 21.0 96.0 32.0 96.0 36.0V228.0H413.0V257.0H101.0L52.0 282.0ZM831.0 147.0V-73.0H837.0C852.0 -73.0 874.0 -61.0 875.0 -55.0V111.0C892.0 114.0 908.0 122.0 914.0 128.0L850.0 177.0L822.0 147.0ZM213.0 657.0C209.0 630.0 202.0 584.0 197.0 559.0H224.0C235.0 579.0 249.0 603.0 259.0 621.0C278.0 622.0 290.0 631.0 293.0 645.0ZM221.0 257.0V80.0H265.0V257.0ZM146.0 0.0C143.0 -90.0 135.0 -172.0 16.0 -237.0L31.0 -254.0C175.0 -191.0 189.0 -101.0 195.0 0.0Z"/></g>
<g fill="black" opacity=".8" transform="translate(900 200) scale(0.1 -0.1)"><path d="M0.0 0.0 8.0 -29.0H467.0C478.0 -29.0 489.0 -25.0 491.0 -13.0C464.0 12.0 422.0 44.0 422.0 44.0L385.0 0.0ZM303.0 -1.0V-252.0H308.0C330.0 -252.0 346.0 -238.0 346.0 -235.0V-1.0ZM85.0 571.0V280.0H92.0C110.0 280.0 129.0 290.0 129.0 295.0V541.0H386.0V571.0H133.0L85.0 595.0ZM109.0 498.0V468.0H388.0V498.0ZM75.0 175.0V145.0H416.0V175.0ZM75.0 89.0V60.0H416.0V89.0ZM109.0 424.0 108.0 394.0H387.0V424.0ZM109.0 348.0V320.0H389.0V348.0ZM799.0 385.0V193.0H806.0C821.0 193.0 844.0 205.0 845.0 212.0V348.0C859.0 351.0 875.0 358.0 881.0 366.0L818.0 414.0L791.0 385.0ZM52.0 257.0V20.0H59.0C76.0 20.0 96.0 32.0 96.0 36.0V228.0H413.0V257.0H101.0L52.0 282.0ZM831.0 146.0V-73.0H837.0C853.0 -73.0 875.0 -61.0 875.0 -55.0V112.0C892.0 115.0 908.0 121.0 914.0 129.0L849.0 177.0L822.0 146.0ZM213.0 657.0C208.0 630.0 203.0 584.0 198.0 559.0H223.0C235.0 579.0 249.0 603.0 259.0 621.0C278.0 622.0 290.0 632.0 293.0 645.0ZM221.0 257.0V80.0H264.0V257.0ZM146.0 0.0C144.0 -89.0 135.0 -172.0 17.0 -236.0L31.0 -254.0C176.0 -190.0 190.0 -101.0 195.0 0.0Z"/></g>
<g fill="red" transform="translate(1000 200) scale(0.1 -0.1)"><path d="M0.0 0.0 8.0 -28.0H502.0C516.0 -28.0 527.0 -23.0 529.0 -12.0C489.0 24.0 421.0 75.0 421.0 75.0L362.0 0.0ZM291.0 0.0V-265.0H315.0C382.0 -265.0 420.0 -246.0 421.0 -241.0V0.0ZM86.0 590.0V290.0H103.0C153.0 290.0 206.0 316.0 206.0 327.0V562.0H380.0V590.0H211.0L86.0 639.0ZM157.0 514.0V486.0H389.0V514.0ZM116.0 189.0V161.0H434.0V189.0ZM116.0 101.0V73.0H434.0V101.0ZM157.0 438.0V410.0H389.0V438.0ZM157.0 361.0V333.0H389.0V361.0ZM783.0 380.0V211.0H806.0C848.0 211.0 911.0 236.0 911.0 245.0V337.0C928.0 340.0 938.0 347.0 943.0 354.0L829.0 437.0L774.0 380.0ZM47.0 273.0V21.0H63.0C110.0 21.0 162.0 46.0 162.0 56.0V245.0H411.0V273.0H167.0L47.0 320.0ZM803.0 179.0V-49.0H824.0C865.0 -49.0 923.0 -23.0 923.0 -14.0V137.0C940.0 140.0 950.0 147.0 955.0 153.0L847.0 234.0L794.0 179.0ZM195.0 695.0C195.0 662.0 194.0 611.0 192.0 582.0H236.0C262.0 599.0 304.0 627.0 328.0 645.0C350.0 648.0 363.0 657.0 366.0 674.0ZM207.0 273.0V93.0H312.0V273.0ZM112.0 0.0C110.0 -97.0 110.0 -180.0 -2.0 -251.0L8.0 -263.0C205.0 -208.0 239.0 -114.0 246.0 0.0Z"/></g>
<g fill="black" opacity=".8" transform="translate(1000 200) scale(0.1 -0.1)"><path d="M0.0 0.0 9.0 -28.0H502.0C515.0 -28.0 527.0 -22.0 529.0 -12.0C488.0 24.0 420.0 74.0 420.0 74.0L362.0 0.0ZM292.0 0.0V-265.0H315.0C381.0 -265.0 420.0 -246.0 421.0 -241.0V0.0ZM85.0 590.0V290.0H104.0C153.0 290.0 206.0 315.0 206.0 327.0V562.0H380.0V590.0H210.0L85.0 639.0ZM157.0 514.0V486.0H389.0V514.0ZM115.0 189.0V161.0H435.0V189.0ZM115.0 101.0V74.0H435.0V101.0ZM157.0 439.0V410.0H390.0V439.0ZM157.0 362.0V333.0H389.0V362.0ZM783.0 380.0V210.0H807.0C848.0 210.0 911.0 235.0 911.0 246.0V337.0C928.0 341.0 939.0 347.0 943.0 354.0L829.0 437.0L773.0 380.0ZM47.0 273.0V21.0H63.0C110.0 21.0 162.0 47.0 162.0 55.0V245.0H411.0V273.0H167.0L47.0 320.0ZM802.0 180.0V-50.0H824.0C865.0 -50.0 922.0 -22.0 923.0 -14.0V137.0C940.0 140.0 950.0 146.0 954.0 153.0L848.0 235.0L794.0 180.0ZM195.0 695.0C194.0 662.0 194.0 611.0 192.0 582.0H236.0C262.0 599.0 304.0 627.0 328.0 645.0C350.0 647.0 363.0 656.0 366.0 673.0ZM207.0 273.0V94.0H311.0V273.0ZM111.0 -0.0C110.0 -97.0 110.0 -180.0 -1.0 -250.0L8.0 -263.0C205.0 -208.0 240.0 -115.0 245.0 -0.0Z"/></g>
</svg>
