<?xml version="1.0" encoding="UTF-8"?>
<svg width="1700" height="400" xmlns="http://www.w3.org/2000/svg">
<rect width="100%" height="100%" fill="white"/>
<g fill="green" transform="translate(100 100) scale(0.1 -0.1)"><path d="M0.0 -0.0V18.0C-50.0 -24.0 -124.0 -79.0 -163.0 -103.0L-122.0 -162.0C-115.0 -156.0 -112.0 -149.0 -115.0 -138.0C-87.0 -110.0 -41.0 -60.0 -12.0 -22.0C62.0 -120.0 148.0 -140.0 333.0 -140.0C454.0 -140.0 602.0 -140.0 711.0 -140.0C715.0 -120.0 729.0 -107.0 752.0 -104.0V-90.0C626.0 -94.0 457.0 -94.0 332.0 -94.0C157.0 -94.0 74.0 -81.0 0.0 0.0ZM0.0 202.0C25.0 205.0 40.0 213.0 46.0 219.0L-25.0 280.0L-56.0 239.0H-159.0L-153.0 209.0H-43.0V-27.0L0.0 5.0ZM-108.0 717.0 -119.0 707.0C-79.0 677.0 -33.0 622.0 -25.0 576.0C25.0 540.0 59.0 656.0 -108.0 717.0Z"/></g>
<g fill="green" transform="translate(200 100) scale(0.1 -0.1)"><path d="M0.0 0.0V16.0C-69.0 -17.0 -163.0 -58.0 -220.0 -78.0L-152.0 -217.0C-143.0 -214.0 -136.0 -206.0 -136.0 -193.0C-100.0 -150.0 -46.0 -75.0 -11.0 -16.0C57.0 -166.0 136.0 -196.0 335.0 -196.0C435.0 -196.0 558.0 -196.0 645.0 -196.0C652.0 -138.0 680.0 -99.0 731.0 -87.0V-75.0C603.0 -79.0 448.0 -79.0 333.0 -79.0C142.0 -79.0 71.0 -71.0 0.0 0.0ZM0.0 175.0C29.0 178.0 44.0 188.0 52.0 198.0L-80.0 303.0L-141.0 220.0H-222.0L-216.0 192.0H-126.0V-82.0L0.0 7.0ZM-170.0 706.0 -177.0 700.0C-143.0 668.0 -100.0 613.0 -83.0 565.0C33.0 508.0 104.0 721.0 -170.0 706.0Z"/></g>
<g fill="green" transform="translate(300 100) scale(0.1 -0.1)"><path d="M0.0 -0.0V18.0C-49.0 -23.0 -121.0 -77.0 -159.0 -101.0L-119.0 -158.0C-112.0 -153.0 -109.0 -146.0 -112.0 -135.0C-85.0 -108.0 -40.0 -59.0 -12.0 -22.0C61.0 -117.0 145.0 -137.0 326.0 -137.0C445.0 -137.0 589.0 -137.0 696.0 -137.0C700.0 -117.0 714.0 -105.0 736.0 -102.0V-88.0C613.0 -92.0 447.0 -92.0 325.0 -92.0C154.0 -92.0 72.0 -79.0 0.0 0.0ZM0.0 197.0C24.0 200.0 39.0 208.0 45.0 214.0L-24.0 273.0L-55.0 233.0H-155.0L-149.0 204.0H-42.0V-26.0L0.0 5.0ZM-105.0 702.0 -116.0 692.0C-77.0 663.0 -32.0 609.0 -25.0 564.0C24.0 529.0 58.0 642.0 -105.0 702.0Z"/></g>
<g fill="green" transform="translate(400 100) scale(0.1 -0.1)"><path d="M0.0 0.0V16.0C-67.0 -17.0 -159.0 -57.0 -215.0 -76.0L-148.0 -212.0C-139.0 -209.0 -133.0 -201.0 -133.0 -189.0C-98.0 -147.0 -45.0 -73.0 -11.0 -16.0C56.0 -162.0 133.0 -192.0 328.0 -192.0C426.0 -192.0 547.0 -192.0 632.0 -192.0C639.0 -135.0 666.0 -97.0 716.0 -85.0V-74.0C591.0 -77.0 439.0 -77.0 326.0 -77.0C139.0 -77.0 70.0 -70.0 0.0 0.0ZM0.0 171.0C28.0 174.0 43.0 183.0 51.0 193.0L-78.0 296.0L-138.0 215.0H-217.0L-211.0 187.0H-123.0V-80.0L0.0 7.0ZM-166.0 691.0 -173.0 685.0C-139.0 654.0 -97.0 600.0 -81.0 554.0C32.0 498.0 101.0 706.0 -166.0 691.0Z"/></g>
<g fill="green" transform="translate(500 100) scale(0.1 -0.1)"><path d="M0.0 0.0V19.0C-59.0 -25.0 -145.0 -79.0 -191.0 -104.0L-151.0 -167.0C-143.0 -162.0 -139.0 -155.0 -142.0 -143.0C-107.0 -114.0 -50.0 -60.0 -13.0 -21.0C59.0 -123.0 143.0 -144.0 324.0 -144.0C442.0 -144.0 585.0 -144.0 690.0 -144.0C694.0 -123.0 708.0 -109.0 731.0 -106.0V-92.0C608.0 -96.0 445.0 -96.0 324.0 -96.0C152.0 -96.0 71.0 -83.0 0.0 0.0ZM0.0 279.0C26.0 283.0 41.0 291.0 47.0 297.0L-24.0 359.0L-56.0 318.0H-185.0L-180.0 287.0H-43.0V-30.0L0.0 2.0ZM-158.0 710.0 -169.0 700.0C-117.0 657.0 -54.0 579.0 -40.0 519.0C19.0 475.0 56.0 616.0 -158.0 710.0Z"/></g>
<g fill="green" transform="translate(600 100) scale(0.1 -0.1)"><path d="M0.0 0.0V16.0C-74.0 -16.0 -175.0 -56.0 -236.0 -75.0L-166.0 -222.0C-156.0 -219.0 -149.0 -211.0 -149.0 -198.0C-109.0 -154.0 -50.0 -76.0 -11.0 -15.0C56.0 -169.0 134.0 -200.0 333.0 -200.0C430.0 -200.0 551.0 -200.0 636.0 -200.0C643.0 -139.0 672.0 -98.0 725.0 -85.0V-73.0C597.0 -77.0 444.0 -78.0 330.0 -78.0C139.0 -78.0 70.0 -69.0 0.0 0.0ZM0.0 256.0C29.0 260.0 44.0 269.0 52.0 279.0L-83.0 387.0L-146.0 301.0H-233.0L-227.0 274.0H-131.0V-68.0L0.0 -1.0ZM-212.0 693.0 -219.0 688.0C-182.0 639.0 -149.0 567.0 -142.0 500.0C-15.0 403.0 110.0 648.0 -212.0 693.0Z"/></g>
<g fill="green" transform="translate(700 100) scale(0.1 -0.1)"><path d="M0.0 0.0V19.0C-58.0 -24.0 -142.0 -80.0 -187.0 -104.0L-146.0 -167.0C-138.0 -162.0 -134.0 -155.0 -138.0 -143.0C-104.0 -114.0 -49.0 -61.0 -13.0 -21.0C60.0 -123.0 145.0 -144.0 330.0 -144.0C450.0 -144.0 596.0 -144.0 703.0 -144.0C707.0 -123.0 721.0 -110.0 743.0 -107.0V-92.0C620.0 -96.0 452.0 -96.0 329.0 -96.0C155.0 -96.0 73.0 -83.0 0.0 0.0ZM0.0 202.0C26.0 205.0 41.0 213.0 47.0 219.0L-25.0 280.0L-57.0 239.0H-186.0L-179.0 209.0H-43.0V-24.0L0.0 7.0ZM-116.0 719.0 -126.0 709.0C-80.0 677.0 -20.0 620.0 -2.0 575.0C52.0 544.0 78.0 660.0 -116.0 719.0Z"/></g>
<g fill="green" transform="translate(800 100) scale(0.1 -0.1)"><path d="M0.0 0.0V16.0C-80.0 -14.0 -190.0 -51.0 -255.0 -70.0L-183.0 -225.0C-173.0 -220.0 -165.0 -213.0 -164.0 -199.0C-121.0 -154.0 -55.0 -77.0 -11.0 -15.0C55.0 -169.0 129.0 -201.0 325.0 -201.0C418.0 -201.0 539.0 -201.0 620.0 -201.0C626.0 -136.0 656.0 -94.0 711.0 -79.0V-68.0C584.0 -72.0 434.0 -72.0 323.0 -72.0C133.0 -72.0 69.0 -65.0 0.0 0.0ZM0.0 160.0C29.0 164.0 45.0 174.0 54.0 184.0L-88.0 295.0L-154.0 207.0H-260.0L-253.0 179.0H-138.0V-86.0L0.0 11.0ZM-186.0 719.0 -193.0 713.0C-150.0 678.0 -95.0 617.0 -70.0 563.0C61.0 508.0 122.0 749.0 -186.0 719.0Z"/></g>
<g fill="red" transform="translate(100 200) scale(0.1 -0.1)"><path d="M0.0 0.0V18.0C-53.0 -24.0 -130.0 -80.0 -172.0 -104.0L-131.0 -164.0C-123.0 -158.0 -120.0 -152.0 -123.0 -140.0C-93.0 -112.0 -43.0 -60.0 -12.0 -22.0C62.0 -121.0 147.0 -142.0 332.0 -142.0C453.0 -142.0 601.0 -142.0 709.0 -142.0C713.0 -121.0 727.0 -109.0 749.0 -106.0V-91.0C625.0 -95.0 456.0 -95.0 331.0 -95.0C157.0 -95.0 74.0 -82.0 0.0 0.0ZM0.0 205.0C26.0 208.0 41.0 216.0 47.0 222.0L-25.0 283.0L-56.0 242.0H-168.0L-162.0 212.0H-42.0V-25.0L0.0 6.0ZM-108.0 715.0 -119.0 705.0C-76.0 675.0 -24.0 619.0 -13.0 573.0C39.0 539.0 69.0 655.0 -108.0 715.0Z"/></g>
<g fill="black" opacity=".8" transform="translate(100 200) scale(0.1 -0.1)"><path d="M0.0 0.0V19.0C-56.0 -24.0 -137.0 -79.0 -181.0 -103.0L-140.0 -165.0C-132.0 -160.0 -129.0 -153.0 -132.0 -141.0C-100.0 -113.0 -47.0 -60.0 -13.0 -21.0C60.0 -122.0 145.0 -142.0 328.0 -142.0C448.0 -142.0 593.0 -142.0 700.0 -142.0C704.0 -122.0 718.0 -109.0 740.0 -106.0V-91.0C617.0 -95.0 450.0 -95.0 327.0 -95.0C154.0 -95.0 73.0 -82.0 0.0 0.0ZM0.0 205.0C26.0 208.0 41.0 216.0 47.0 222.0L-25.0 282.0L-56.0 242.0H-179.0L-172.0 212.0H-43.0V-25.0L0.0 6.0ZM-116.0 714.0 -126.0 704.0C-81.0 672.0 -24.0 615.0 -9.0 569.0C44.0 536.0 72.0 653.0 -116.0 714.0Z"/></g>
<g fill="red" transform="translate(200 200) scale(0.1 -0.1)"><path d="M0.0 0.0V16.0C-79.0 -13.0 -186.0 -49.0 -250.0 -67.0L-179.0 -221.0C-169.0 -217.0 -161.0 -210.0 -160.0 -196.0C-118.0 -152.0 -54.0 -75.0 -11.0 -14.0C55.0 -166.0 128.0 -198.0 320.0 -198.0C413.0 -198.0 532.0 -198.0 612.0 -198.0C618.0 -133.0 649.0 -90.0 703.0 -76.0V-65.0C577.0 -69.0 428.0 -69.0 318.0 -69.0C131.0 -69.0 68.0 -62.0 0.0 0.0ZM0.0 171.0C29.0 175.0 44.0 184.0 53.0 194.0L-86.0 304.0L-151.0 218.0H-253.0L-247.0 189.0H-135.0V-82.0L0.0 13.0ZM-185.0 711.0 -192.0 705.0C-151.0 669.0 -99.0 609.0 -77.0 555.0C50.0 497.0 117.0 733.0 -185.0 711.0Z"/></g>
<g fill="black" opacity=".8" transform="translate(200 200) scale(0.1 -0.1)"><path d="M0.0 0.0V16.0C-77.0 -15.0 -182.0 -53.0 -245.0 -71.0L-174.0 -222.0C-164.0 -217.0 -157.0 -210.0 -156.0 -197.0C-115.0 -152.0 -53.0 -76.0 -11.0 -15.0C55.0 -167.0 130.0 -199.0 326.0 -199.0C420.0 -199.0 541.0 -199.0 623.0 -199.0C629.0 -136.0 658.0 -95.0 712.0 -81.0V-70.0C586.0 -73.0 435.0 -73.0 324.0 -73.0C134.0 -73.0 69.0 -66.0 0.0 0.0ZM0.0 167.0C29.0 171.0 44.0 181.0 53.0 191.0L-85.0 300.0L-150.0 213.0H-249.0L-242.0 186.0H-134.0V-84.0L0.0 9.0ZM-183.0 711.0 -190.0 705.0C-149.0 670.0 -98.0 610.0 -76.0 557.0C51.0 500.0 117.0 733.0 -183.0 711.0Z"/></g>
<g fill="red" transform="translate(300 200) scale(0.1 -0.1)"><path d="M0.0 0.0V19.0C-59.0 -23.0 -144.0 -79.0 -190.0 -103.0L-149.0 -165.0C-141.0 -160.0 -138.0 -154.0 -140.0 -142.0C-106.0 -113.0 -50.0 -60.0 -14.0 -21.0C59.0 -122.0 142.0 -142.0 324.0 -142.0C441.0 -142.0 585.0 -142.0 690.0 -142.0C693.0 -121.0 707.0 -109.0 730.0 -106.0V-91.0C608.0 -95.0 444.0 -95.0 323.0 -95.0C152.0 -95.0 72.0 -82.0 0.0 0.0ZM0.0 205.0C26.0 208.0 41.0 216.0 47.0 222.0L-25.0 283.0L-57.0 242.0H-189.0L-183.0 212.0H-43.0V-25.0L0.0 6.0ZM-125.0 713.0 -136.0 703.0C-89.0 670.0 -28.0 611.0 -10.0 565.0C45.0 534.0 72.0 651.0 -125.0 713.0Z"/></g>
<g fill="black" opacity=".8" transform="translate(300 200) scale(0.1 -0.1)"><path d="M0.0 0.0V19.0C-58.0 -24.0 -142.0 -79.0 -187.0 -103.0L-146.0 -166.0C-138.0 -161.0 -134.0 -154.0 -138.0 -142.0C-104.0 -113.0 -49.0 -60.0 -13.0 -21.0C59.0 -122.0 143.0 -143.0 326.0 -143.0C445.0 -143.0 589.0 -143.0 695.0 -143.0C699.0 -122.0 713.0 -109.0 735.0 -106.0V-91.0C613.0 -95.0 447.0 -95.0 325.0 -95.0C153.0 -95.0 72.0 -82.0 0.0 0.0ZM0.0 210.0C26.0 213.0 41.0 221.0 47.0 227.0L-24.0 287.0L-56.0 247.0H-185.0L-178.0 217.0H-43.0V-24.0L0.0 6.0ZM-120.0 712.0 -131.0 702.0C-84.0 669.0 -23.0 609.0 -6.0 563.0C48.0 531.0 75.0 649.0 -120.0 712.0Z"/></g>
<g fill="red" transform="translate(400 200) scale(0.1 -0.1)"><path d="M0.0 0.0V16.0C-78.0 -15.0 -185.0 -54.0 -248.0 -73.0L-177.0 -225.0C-167.0 -220.0 -159.0 -213.0 -159.0 -199.0C-117.0 -154.0 -54.0 -76.0 -11.0 -15.0C54.0 -170.0 129.0 -201.0 322.0 -201.0C415.0 -201.0 533.0 -201.0 614.0 -201.0C620.0 -138.0 650.0 -96.0 703.0 -82.0V-71.0C578.0 -75.0 430.0 -75.0 320.0 -75.0C134.0 -75.0 68.0 -67.0 0.0 0.0ZM0.0 171.0C29.0 175.0 44.0 184.0 53.0 194.0L-86.0 304.0L-151.0 218.0H-253.0L-247.0 189.0H-135.0V-85.0L0.0 9.0ZM-196.0 714.0 -203.0 708.0C-162.0 672.0 -110.0 612.0 -88.0 558.0C39.0 500.0 106.0 736.0 -196.0 714.0Z"/></g>
<g fill="black" opacity=".8" transform="translate(400 200) scale(0.1 -0.1)"><path d="M0.0 0.0V16.0C-79.0 -14.0 -187.0 -51.0 -252.0 -70.0L-180.0 -223.0C-170.0 -218.0 -163.0 -211.0 -162.0 -197.0C-119.0 -153.0 -54.0 -76.0 -11.0 -15.0C55.0 -167.0 128.0 -199.0 323.0 -199.0C415.0 -199.0 535.0 -199.0 616.0 -199.0C622.0 -135.0 651.0 -94.0 706.0 -79.0V-68.0C580.0 -72.0 431.0 -72.0 321.0 -72.0C132.0 -72.0 69.0 -65.0 0.0 0.0ZM0.0 170.0C29.0 174.0 44.0 184.0 53.0 194.0L-87.0 304.0L-152.0 217.0H-256.0L-249.0 189.0H-136.0V-83.0L0.0 10.0ZM-188.0 710.0 -195.0 704.0C-153.0 668.0 -101.0 605.0 -78.0 550.0C52.0 490.0 120.0 731.0 -188.0 710.0Z"/></g>
<g fill="red" transform="translate(500 200) scale(0.1 -0.1)"><path d="M0.0 0.0V19.0C-65.0 -24.0 -157.0 -79.0 -208.0 -104.0L-168.0 -169.0C-159.0 -164.0 -155.0 -158.0 -158.0 -145.0C-119.0 -116.0 -55.0 -60.0 -14.0 -20.0C57.0 -124.0 139.0 -145.0 317.0 -145.0C433.0 -145.0 573.0 -145.0 675.0 -145.0C679.0 -123.0 692.0 -111.0 714.0 -108.0V-93.0C596.0 -97.0 436.0 -97.0 317.0 -97.0C149.0 -97.0 70.0 -84.0 0.0 0.0ZM0.0 276.0C27.0 280.0 42.0 288.0 48.0 294.0L-24.0 355.0L-56.0 314.0H-204.0L-198.0 284.0H-42.0V-27.0L0.0 4.0ZM-169.0 706.0 -180.0 697.0C-126.0 654.0 -56.0 576.0 -37.0 518.0C25.0 478.0 56.0 615.0 -169.0 706.0Z"/></g>
<g fill="black" opacity=".8" transform="translate(500 200) scale(0.1 -0.1)"><path d="M0.0 0.0V20.0C-63.0 -25.0 -155.0 -79.0 -204.0 -104.0L-164.0 -168.0C-156.0 -164.0 -151.0 -157.0 -155.0 -145.0C-116.0 -116.0 -54.0 -60.0 -14.0 -20.0C57.0 -124.0 140.0 -145.0 319.0 -145.0C436.0 -145.0 576.0 -145.0 679.0 -145.0C683.0 -124.0 697.0 -110.0 719.0 -107.0V-92.0C599.0 -96.0 438.0 -96.0 319.0 -96.0C149.0 -96.0 70.0 -83.0 0.0 0.0ZM0.0 276.0C26.0 280.0 41.0 288.0 47.0 294.0L-24.0 355.0L-56.0 314.0H-200.0L-194.0 284.0H-43.0V-28.0L0.0 3.0ZM-161.0 705.0 -171.0 695.0C-116.0 651.0 -45.0 572.0 -26.0 514.0C35.0 473.0 67.0 613.0 -161.0 705.0Z"/></g>
<g fill="red" transform="translate(600 200) scale(0.1 -0.1)"><path d="M0.0 0.0V16.0C-80.0 -14.0 -190.0 -52.0 -254.0 -69.0L-182.0 -225.0C-172.0 -220.0 -164.0 -213.0 -164.0 -199.0C-121.0 -155.0 -55.0 -76.0 -11.0 -14.0C55.0 -169.0 129.0 -201.0 323.0 -201.0C416.0 -201.0 534.0 -201.0 615.0 -201.0C621.0 -136.0 652.0 -93.0 706.0 -79.0V-68.0C580.0 -72.0 431.0 -72.0 321.0 -72.0C133.0 -72.0 68.0 -64.0 0.0 0.0ZM0.0 238.0C29.0 243.0 44.0 251.0 53.0 261.0L-86.0 371.0L-151.0 285.0H-254.0L-248.0 256.0H-135.0V-69.0L0.0 2.0ZM-223.0 695.0 -230.0 690.0C-191.0 641.0 -154.0 569.0 -145.0 501.0C-15.0 406.0 106.0 659.0 -223.0 695.0Z"/></g>
<g fill="black" opacity=".8" transform="translate(600 200) scale(0.1 -0.1)"><path d="M0.0 0.0V16.0C-80.0 -14.0 -190.0 -51.0 -255.0 -69.0L-183.0 -225.0C-173.0 -220.0 -166.0 -213.0 -165.0 -200.0C-121.0 -155.0 -55.0 -76.0 -11.0 -14.0C54.0 -169.0 128.0 -201.0 324.0 -201.0C416.0 -201.0 534.0 -201.0 615.0 -201.0C621.0 -136.0 651.0 -94.0 706.0 -79.0V-68.0C580.0 -72.0 431.0 -73.0 321.0 -73.0C132.0 -73.0 68.0 -65.0 0.0 0.0ZM0.0 244.0C29.0 249.0 44.0 257.0 53.0 267.0L-87.0 378.0L-153.0 290.0H-254.0L-248.0 263.0H-137.0V-70.0L0.0 2.0ZM-220.0 695.0 -227.0 690.0C-184.0 639.0 -144.0 564.0 -132.0 495.0C3.0 400.0 120.0 660.0 -220.0 695.0Z"/></g>
<g fill="red" transform="translate(700 200) scale(0.1 -0.1)"><path d="M0.0 0.0V19.0C-65.0 -24.0 -157.0 -79.0 -208.0 -104.0L-168.0 -169.0C-159.0 -164.0 -155.0 -158.0 -158.0 -145.0C-119.0 -116.0 -55.0 -60.0 -14.0 -20.0C57.0 -124.0 139.0 -145.0 317.0 -145.0C433.0 -145.0 573.0 -145.0 675.0 -145.0C679.0 -123.0 692.0 -111.0 714.0 -108.0V-93.0C596.0 -97.0 436.0 -97.0 317.0 -97.0C149.0 -97.0 70.0 -84.0 0.0 0.0ZM0.0 276.0C27.0 280.0 42.0 288.0 48.0 294.0L-24.0 355.0L-56.0 314.0H-204.0L-198.0 284.0H-42.0V-27.0L0.0 4.0ZM-147.0 692.0 -158.0 682.0C-97.0 639.0 -17.0 560.0 6.0 500.0C70.0 463.0 96.0 602.0 -147.0 692.0Z"/></g>
<g fill="black" opacity=".8" transform="translate(700 200) scale(0.1 -0.1)"><path d="M0.0 0.0V20.0C-66.0 -24.0 -160.0 -78.0 -211.0 -103.0L-172.0 -168.0C-163.0 -165.0 -158.0 -158.0 -162.0 -145.0C-122.0 -116.0 -57.0 -60.0 -14.0 -20.0C56.0 -123.0 137.0 -145.0 314.0 -145.0C429.0 -145.0 566.0 -145.0 667.0 -145.0C671.0 -123.0 685.0 -110.0 706.0 -107.0V-92.0C589.0 -96.0 430.0 -96.0 314.0 -96.0C147.0 -96.0 68.0 -83.0 0.0 0.0ZM0.0 273.0C26.0 277.0 41.0 285.0 47.0 291.0L-23.0 351.0L-56.0 311.0H-208.0L-202.0 281.0H-42.0V-26.0L0.0 4.0ZM-162.0 697.0 -172.0 687.0C-116.0 643.0 -40.0 565.0 -17.0 507.0C45.0 469.0 74.0 607.0 -162.0 697.0Z"/></g>
<g fill="red" transform="translate(800 200) scale(0.1 -0.1)"><path d="M0.0 0.0V16.0C-83.0 -13.0 -197.0 -50.0 -264.0 -68.0L-191.0 -226.0C-181.0 -221.0 -173.0 -214.0 -172.0 -200.0C-127.0 -155.0 -58.0 -76.0 -11.0 -14.0C53.0 -169.0 126.0 -202.0 315.0 -202.0C405.0 -202.0 521.0 -202.0 599.0 -202.0C605.0 -136.0 636.0 -92.0 690.0 -78.0V-67.0C566.0 -70.0 421.0 -71.0 313.0 -71.0C129.0 -71.0 67.0 -63.0 0.0 0.0ZM0.0 238.0C29.0 243.0 44.0 251.0 53.0 261.0L-88.0 374.0L-156.0 285.0H-262.0L-256.0 257.0H-139.0V-71.0L0.0 2.0ZM-223.0 689.0 -230.0 684.0C-181.0 631.0 -133.0 553.0 -116.0 478.0C27.0 385.0 137.0 663.0 -223.0 689.0Z"/></g>
<g fill="black" opacity=".8" transform="translate(800 200) scale(0.1 -0.1)"><path d="M0.0 0.0V16.0C-83.0 -13.0 -198.0 -48.0 -266.0 -65.0L-193.0 -225.0C-182.0 -220.0 -175.0 -213.0 -174.0 -200.0C-128.0 -155.0 -58.0 -76.0 -11.0 -14.0C53.0 -168.0 124.0 -201.0 316.0 -201.0C404.0 -201.0 521.0 -201.0 598.0 -201.0C604.0 -134.0 634.0 -91.0 690.0 -75.0V-65.0C566.0 -68.0 421.0 -69.0 313.0 -69.0C127.0 -69.0 67.0 -62.0 0.0 0.0ZM0.0 236.0C28.0 241.0 44.0 249.0 53.0 259.0L-89.0 371.0L-156.0 282.0H-266.0L-259.0 255.0H-140.0V-70.0L0.0 3.0ZM-223.0 691.0 -230.0 686.0C-184.0 635.0 -140.0 559.0 -126.0 488.0C13.0 394.0 125.0 662.0 -223.0 691.0Z"/></g>
<g fill="red" transform="translate(900 200) scale(0.1 -0.1)"><path d="M0.0 0.0V19.0C-59.0 -23.0 -144.0 -79.0 -190.0 -103.0L-149.0 -165.0C-141.0 -160.0 -138.0 -154.0 -140.0 -142.0C-106.0 -113.0 -50.0 -60.0 -14.0 -21.0C59.0 -122.0 142.0 -142.0 324.0 -142.0C441.0 -142.0 585.0 -142.0 690.0 -142.0C693.0 -121.0 707.0 -109.0 730.0 -106.0V-91.0C608.0 -95.0 444.0 -95.0 323.0 -95.0C152.0 -95.0 72.0 -82.0 0.0 0.0ZM0.0 205.0C26.0 208.0 41.0 216.0 47.0 222.0L-25.0 283.0L-57.0 242.0H-189.0L-183.0 212.0H-43.0V-25.0L0.0 6.0ZM-125.0 713.0 -136.0 703.0C-89.0 670.0 -28.0 611.0 -10.0 565.0C45.0 534.0 72.0 651.0 -125.0 713.0Z"/></g>
<g fill="black" opacity=".8" transform="translate(900 200) scale(0.1 -0.1)"><path d="M0.0 0.0V19.0C-57.0 -24.0 -139.0 -79.0 -183.0 -103.0L-142.0 -165.0C-134.0 -160.0 -130.0 -153.0 -134.0 -141.0C-101.0 -113.0 -48.0 -60.0 -13.0 -21.0C60.0 -122.0 144.0 -143.0 328.0 -143.0C447.0 -143.0 592.0 -143.0 699.0 -143.0C703.0 -122.0 717.0 -109.0 739.0 -106.0V-91.0C616.0 -95.0 449.0 -95.0 327.0 -95.0C154.0 -95.0 72.0 -82.0 0.0 0.0ZM0.0 208.0C26.0 211.0 41.0 219.0 47.0 225.0L-25.0 286.0L-56.0 245.0H-181.0L-174.0 215.0H-43.0V-25.0L0.0 6.0ZM-118.0 714.0 -128.0 704.0C-83.0 671.0 -25.0 613.0 -9.0 566.0C44.0 533.0 73.0 651.0 -118.0 714.0Z"/></g>
<g fill="red" transform="translate(1000 200) scale(0.1 -0.1)"><path d="M0.0 0.0V16.0C-77.0 -14.0 -183.0 -53.0 -245.0 -71.0L-175.0 -221.0C-165.0 -216.0 -158.0 -209.0 -157.0 -195.0C-116.0 -152.0 -53.0 -75.0 -11.0 -15.0C56.0 -167.0 132.0 -198.0 328.0 -198.0C424.0 -198.0 546.0 -198.0 630.0 -198.0C636.0 -135.0 666.0 -95.0 719.0 -81.0V-70.0C591.0 -74.0 439.0 -74.0 327.0 -74.0C136.0 -74.0 70.0 -66.0 0.0 0.0ZM0.0 172.0C29.0 176.0 44.0 185.0 53.0 195.0L-84.0 304.0L-148.0 218.0H-247.0L-241.0 190.0H-132.0V-82.0L0.0 10.0ZM-178.0 712.0 -185.0 706.0C-145.0 671.0 -95.0 612.0 -73.0 558.0C52.0 501.0 120.0 733.0 -178.0 712.0Z"/></g>
<g fill="black" opacity=".8" transform="translate(1000 200) scale(0.1 -0.1)"><path d="M0.0 0.0V16.0C-77.0 -15.0 -183.0 -52.0 -246.0 -71.0L-175.0 -222.0C-166.0 -218.0 -158.0 -210.0 -157.0 -197.0C-116.0 -153.0 -53.0 -76.0 -11.0 -15.0C55.0 -167.0 130.0 -199.0 325.0 -199.0C419.0 -199.0 540.0 -199.0 622.0 -199.0C628.0 -136.0 657.0 -95.0 711.0 -80.0V-69.0C585.0 -73.0 435.0 -73.0 323.0 -73.0C134.0 -73.0 69.0 -66.0 0.0 0.0ZM0.0 171.0C29.0 174.0 44.0 184.0 53.0 194.0L-86.0 303.0L-150.0 217.0H-250.0L-243.0 189.0H-135.0V-83.0L0.0 9.0ZM-185.0 710.0 -192.0 704.0C-151.0 669.0 -100.0 608.0 -78.0 554.0C49.0 495.0 117.0 731.0 -185.0 710.0Z"/></g>
<g fill="red" transform="translate(1100 200) scale(0.1 -0.1)"><path d="M0.0 0.0V19.0C-65.0 -24.0 -157.0 -79.0 -208.0 -104.0L-168.0 -169.0C-159.0 -164.0 -155.0 -158.0 -158.0 -145.0C-119.0 -116.0 -55.0 -60.0 -14.0 -20.0C57.0 -124.0 139.0 -145.0 317.0 -145.0C433.0 -145.0 573.0 -145.0 675.0 -145.0C679.0 -123.0 692.0 -111.0 714.0 -108.0V-93.0C596.0 -97.0 436.0 -97.0 317.0 -97.0C149.0 -97.0 70.0 -84.0 0.0 0.0ZM0.0 276.0C27.0 280.0 42.0 288.0 48.0 294.0L-24.0 355.0L-56.0 314.0H-204.0L-198.0 284.0H-42.0V-27.0L0.0 4.0ZM-169.0 706.0 -180.0 697.0C-126.0 654.0 -56.0 576.0 -37.0 518.0C25.0 478.0 56.0 615.0 -169.0 706.0Z"/></g>
<g fill="black" opacity=".8" transform="translate(1100 200) scale(0.1 -0.1)"><path d="M0.0 0.0V20.0C-65.0 -24.0 -157.0 -79.0 -207.0 -104.0L-168.0 -169.0C-159.0 -165.0 -154.0 -158.0 -158.0 -145.0C-119.0 -116.0 -56.0 -60.0 -14.0 -20.0C57.0 -124.0 139.0 -145.0 318.0 -145.0C434.0 -145.0 574.0 -145.0 676.0 -145.0C680.0 -124.0 694.0 -110.0 716.0 -107.0V-92.0C597.0 -96.0 436.0 -96.0 318.0 -96.0C149.0 -96.0 69.0 -83.0 0.0 0.0ZM0.0 275.0C26.0 279.0 41.0 287.0 47.0 293.0L-23.0 354.0L-56.0 314.0H-203.0L-198.0 283.0H-42.0V-27.0L0.0 4.0ZM-162.0 704.0 -172.0 694.0C-116.0 650.0 -43.0 571.0 -22.0 513.0C39.0 473.0 70.0 612.0 -162.0 704.0Z"/></g>
<g fill="red" transform="translate(1200 200) scale(0.1 -0.1)"><path d="M0.0 0.0V16.0C-83.0 -13.0 -197.0 -50.0 -264.0 -68.0L-191.0 -226.0C-181.0 -221.0 -173.0 -214.0 -172.0 -200.0C-127.0 -155.0 -58.0 -76.0 -11.0 -14.0C54.0 -169.0 128.0 -202.0 321.0 -202.0C413.0 -202.0 531.0 -202.0 611.0 -202.0C617.0 -135.0 648.0 -92.0 703.0 -78.0V-67.0C577.0 -70.0 429.0 -71.0 319.0 -71.0C131.0 -71.0 68.0 -63.0 0.0 0.0ZM0.0 238.0C29.0 243.0 44.0 251.0 53.0 261.0L-88.0 374.0L-156.0 285.0H-262.0L-256.0 257.0H-139.0V-71.0L0.0 2.0ZM-214.0 694.0 -221.0 689.0C-179.0 638.0 -139.0 563.0 -128.0 491.0C9.0 394.0 130.0 659.0 -214.0 694.0Z"/></g>
<g fill="black" opacity=".8" transform="translate(1200 200) scale(0.1 -0.1)"><path d="M0.0 0.0V16.0C-81.0 -14.0 -194.0 -50.0 -260.0 -68.0L-188.0 -226.0C-177.0 -221.0 -170.0 -214.0 -169.0 -201.0C-124.0 -155.0 -56.0 -77.0 -11.0 -14.0C54.0 -169.0 127.0 -202.0 322.0 -202.0C412.0 -202.0 531.0 -202.0 610.0 -202.0C616.0 -136.0 646.0 -93.0 702.0 -78.0V-67.0C576.0 -71.0 429.0 -72.0 319.0 -72.0C131.0 -72.0 68.0 -64.0 0.0 0.0ZM0.0 241.0C28.0 246.0 44.0 255.0 53.0 265.0L-88.0 376.0L-154.0 287.0H-260.0L-253.0 260.0H-139.0V-70.0L0.0 2.0ZM-222.0 696.0 -229.0 691.0C-185.0 640.0 -143.0 564.0 -130.0 494.0C7.0 399.0 122.0 663.0 -222.0 696.0Z"/></g>
<g fill="red" transform="translate(1300 200) scale(0.1 -0.1)"><path d="M0.0 0.0V19.0C-59.0 -24.0 -144.0 -79.0 -190.0 -104.0L-149.0 -166.0C-141.0 -161.0 -138.0 -154.0 -140.0 -142.0C-106.0 -114.0 -50.0 -60.0 -14.0 -21.0C59.0 -123.0 143.0 -143.0 324.0 -143.0C441.0 -143.0 585.0 -143.0 690.0 -143.0C693.0 -122.0 707.0 -109.0 731.0 -106.0V-92.0C608.0 -96.0 445.0 -96.0 323.0 -96.0C152.0 -96.0 72.0 -83.0 0.0 0.0ZM0.0 276.0C26.0 280.0 41.0 288.0 47.0 294.0L-25.0 356.0L-56.0 314.0H-184.0L-179.0 284.0H-44.0V-31.0L0.0 1.0ZM-155.0 709.0 -167.0 700.0C-114.0 657.0 -50.0 579.0 -37.0 518.0C23.0 475.0 60.0 616.0 -155.0 709.0Z"/></g>
<g fill="black" opacity=".8" transform="translate(1300 200) scale(0.1 -0.1)"><path d="M0.0 0.0V19.0C-59.0 -25.0 -145.0 -79.0 -191.0 -104.0L-151.0 -167.0C-143.0 -162.0 -139.0 -155.0 -142.0 -143.0C-107.0 -114.0 -50.0 -60.0 -13.0 -21.0C59.0 -123.0 143.0 -144.0 324.0 -144.0C442.0 -144.0 585.0 -144.0 690.0 -144.0C694.0 -123.0 708.0 -109.0 731.0 -106.0V-92.0C608.0 -96.0 445.0 -96.0 324.0 -96.0C152.0 -96.0 71.0 -83.0 0.0 0.0ZM0.0 279.0C26.0 283.0 41.0 291.0 47.0 297.0L-24.0 359.0L-56.0 318.0H-185.0L-180.0 287.0H-43.0V-30.0L0.0 2.0ZM-158.0 710.0 -169.0 700.0C-117.0 657.0 -54.0 579.0 -40.0 519.0C19.0 475.0 56.0 616.0 -158.0 710.0Z"/></g>
<g fill="red" transform="translate(1400 200) scale(0.1 -0.1)"><path d="M0.0 0.0V16.0C-74.0 -16.0 -175.0 -56.0 -235.0 -75.0L-165.0 -223.0C-155.0 -219.0 -148.0 -212.0 -148.0 -198.0C-109.0 -154.0 -50.0 -76.0 -11.0 -15.0C56.0 -170.0 134.0 -201.0 331.0 -201.0C428.0 -201.0 549.0 -201.0 633.0 -201.0C640.0 -139.0 670.0 -98.0 722.0 -85.0V-73.0C595.0 -77.0 442.0 -78.0 329.0 -78.0C139.0 -78.0 70.0 -69.0 0.0 0.0ZM0.0 261.0C29.0 265.0 44.0 274.0 52.0 284.0L-82.0 392.0L-146.0 307.0H-231.0L-225.0 279.0H-130.0V-68.0L0.0 0.0ZM-214.0 696.0 -222.0 691.0C-184.0 642.0 -149.0 570.0 -141.0 502.0C-14.0 407.0 108.0 654.0 -214.0 696.0Z"/></g>
<g fill="black" opacity=".8" transform="translate(1400 200) scale(0.1 -0.1)"><path d="M0.0 0.0V16.0C-74.0 -16.0 -175.0 -56.0 -236.0 -75.0L-166.0 -222.0C-156.0 -219.0 -149.0 -211.0 -149.0 -198.0C-109.0 -154.0 -50.0 -76.0 -11.0 -15.0C56.0 -169.0 134.0 -200.0 333.0 -200.0C430.0 -200.0 551.0 -200.0 636.0 -200.0C643.0 -139.0 672.0 -98.0 725.0 -85.0V-73.0C597.0 -77.0 444.0 -78.0 330.0 -78.0C139.0 -78.0 70.0 -69.0 0.0 0.0ZM0.0 256.0C29.0 260.0 44.0 269.0 52.0 279.0L-83.0 387.0L-146.0 301.0H-233.0L-227.0 274.0H-131.0V-68.0L0.0 -1.0ZM-212.0 693.0 -219.0 688.0C-182.0 639.0 -149.0 567.0 -142.0 500.0C-15.0 403.0 110.0 648.0 -212.0 693.0Z"/></g>
<g fill="red" transform="translate(1500 200) scale(0.1 -0.1)"><path d="M0.0 0.0V18.0C-53.0 -24.0 -130.0 -80.0 -172.0 -104.0L-131.0 -164.0C-123.0 -158.0 -120.0 -152.0 -123.0 -140.0C-93.0 -112.0 -43.0 -60.0 -12.0 -22.0C62.0 -121.0 147.0 -142.0 332.0 -142.0C453.0 -142.0 601.0 -142.0 709.0 -142.0C713.0 -121.0 727.0 -109.0 749.0 -106.0V-91.0C625.0 -95.0 456.0 -95.0 331.0 -95.0C157.0 -95.0 74.0 -82.0 0.0 0.0ZM0.0 205.0C26.0 208.0 41.0 216.0 47.0 222.0L-25.0 283.0L-56.0 242.0H-168.0L-162.0 212.0H-42.0V-25.0L0.0 6.0ZM-108.0 715.0 -119.0 705.0C-76.0 675.0 -24.0 619.0 -13.0 573.0C39.0 539.0 69.0 655.0 -108.0 715.0Z"/></g>
<g fill="black" opacity=".8" transform="translate(1500 200) scale(0.1 -0.1)"><path d="M0.0 0.0V18.0C-54.0 -24.0 -132.0 -79.0 -174.0 -103.0L-133.0 -164.0C-126.0 -159.0 -122.0 -152.0 -126.0 -140.0C-95.0 -112.0 -45.0 -60.0 -12.0 -22.0C61.0 -121.0 146.0 -142.0 331.0 -142.0C451.0 -142.0 598.0 -142.0 706.0 -142.0C710.0 -121.0 724.0 -108.0 746.0 -105.0V-91.0C622.0 -95.0 454.0 -95.0 330.0 -95.0C156.0 -95.0 73.0 -82.0 0.0 0.0ZM0.0 203.0C25.0 206.0 40.0 214.0 46.0 220.0L-25.0 281.0L-56.0 240.0H-171.0L-165.0 210.0H-43.0V-26.0L0.0 6.0ZM-112.0 716.0 -123.0 706.0C-80.0 675.0 -27.0 619.0 -15.0 573.0C37.0 540.0 68.0 656.0 -112.0 716.0Z"/></g>
<g fill="red" transform="translate(1600 200) scale(0.1 -0.1)"><path d="M0.0 0.0V16.0C-74.0 -14.0 -175.0 -53.0 -235.0 -72.0L-165.0 -220.0C-156.0 -216.0 -148.0 -209.0 -148.0 -195.0C-109.0 -151.0 -50.0 -75.0 -11.0 -15.0C56.0 -166.0 133.0 -198.0 328.0 -198.0C425.0 -198.0 546.0 -198.0 630.0 -198.0C636.0 -136.0 666.0 -94.0 719.0 -81.0V-70.0C591.0 -74.0 439.0 -74.0 327.0 -74.0C137.0 -74.0 70.0 -66.0 0.0 0.0ZM0.0 169.0C29.0 173.0 44.0 182.0 53.0 192.0L-84.0 301.0L-148.0 215.0H-237.0L-231.0 187.0H-132.0V-85.0L0.0 7.0ZM-178.0 712.0 -185.0 706.0C-145.0 671.0 -95.0 612.0 -73.0 558.0C52.0 501.0 120.0 733.0 -178.0 712.0Z"/></g>
<g fill="black" opacity=".8" transform="translate(1600 200) scale(0.1 -0.1)"><path d="M0.0 0.0V16.0C-74.0 -16.0 -175.0 -55.0 -236.0 -74.0L-166.0 -220.0C-157.0 -216.0 -149.0 -209.0 -149.0 -195.0C-110.0 -152.0 -50.0 -76.0 -11.0 -16.0C56.0 -167.0 132.0 -198.0 330.0 -198.0C426.0 -198.0 548.0 -198.0 632.0 -198.0C639.0 -137.0 668.0 -97.0 720.0 -83.0V-72.0C593.0 -76.0 441.0 -76.0 328.0 -76.0C138.0 -76.0 70.0 -68.0 0.0 0.0ZM0.0 169.0C29.0 173.0 44.0 182.0 53.0 192.0L-84.0 300.0L-147.0 215.0H-239.0L-233.0 187.0H-131.0V-83.0L0.0 9.0ZM-178.0 710.0 -185.0 704.0C-147.0 671.0 -98.0 613.0 -78.0 562.0C45.0 505.0 112.0 731.0 -178.0 710.0Z"/></g>
<g fill="red" transform="translate(100 300) scale(0.1 -0.1)"><path d="M0.0 0.0V18.0C-53.0 -24.0 -130.0 -80.0 -172.0 -104.0L-131.0 -164.0C-123.0 -158.0 -120.0 -152.0 -123.0 -140.0C-93.0 -112.0 -43.0 -60.0 -12.0 -22.0C62.0 -121.0 147.0 -142.0 332.0 -142.0C453.0 -142.0 601.0 -142.0 709.0 -142.0C713.0 -121.0 727.0 -109.0 749.0 -106.0V-91.0C625.0 -95.0 456.0 -95.0 331.0 -95.0C157.0 -95.0 74.0 -82.0 0.0 0.0ZM0.0 205.0C26.0 208.0 41.0 216.0 47.0 222.0L-25.0 283.0L-56.0 242.0H-168.0L-162.0 212.0H-42.0V-25.0L0.0 6.0ZM-108.0 715.0 -119.0 705.0C-76.0 675.0 -24.0 619.0 -13.0 573.0C39.0 539.0 69.0 655.0 -108.0 715.0Z"/></g>
<g fill="black" opacity=".8" transform="translate(100 300) scale(0.1 -0.1)"><path d="M0.0 0.0V18.0C-52.0 -24.0 -128.0 -79.0 -169.0 -103.0L-128.0 -163.0C-121.0 -157.0 -117.0 -150.0 -121.0 -139.0C-91.0 -111.0 -43.0 -60.0 -12.0 -22.0C61.0 -121.0 147.0 -141.0 332.0 -141.0C452.0 -141.0 600.0 -141.0 708.0 -141.0C712.0 -121.0 726.0 -108.0 749.0 -105.0V-90.0C624.0 -94.0 455.0 -94.0 331.0 -94.0C156.0 -94.0 74.0 -81.0 0.0 0.0ZM0.0 202.0C25.0 205.0 40.0 213.0 46.0 219.0L-25.0 280.0L-56.0 239.0H-166.0L-159.0 209.0H-43.0V-26.0L0.0 6.0ZM-110.0 716.0 -121.0 706.0C-79.0 676.0 -30.0 621.0 -19.0 575.0C32.0 540.0 64.0 656.0 -110.0 716.0Z"/></g>
<g fill="red" transform="translate(200 300) scale(0.1 -0.1)"><path d="M0.0 0.0V17.0C-71.0 -17.0 -170.0 -60.0 -228.0 -80.0L-160.0 -220.0C-150.0 -216.0 -144.0 -208.0 -144.0 -195.0C-106.0 -152.0 -49.0 -75.0 -11.0 -16.0C57.0 -168.0 136.0 -198.0 334.0 -198.0C434.0 -198.0 556.0 -198.0 644.0 -198.0C650.0 -140.0 678.0 -101.0 729.0 -89.0V-77.0C601.0 -81.0 447.0 -81.0 332.0 -81.0C142.0 -81.0 71.0 -72.0 0.0 0.0ZM0.0 165.0C29.0 169.0 44.0 178.0 52.0 188.0L-81.0 295.0L-144.0 211.0H-232.0L-226.0 182.0H-128.0V-83.0L0.0 7.0ZM-170.0 703.0 -177.0 697.0C-141.0 664.0 -96.0 608.0 -79.0 558.0C41.0 499.0 113.0 721.0 -170.0 703.0Z"/></g>
<g fill="black" opacity=".8" transform="translate(200 300) scale(0.1 -0.1)"><path d="M0.0 0.0V16.0C-72.0 -16.0 -170.0 -56.0 -229.0 -76.0L-160.0 -219.0C-150.0 -215.0 -143.0 -207.0 -143.0 -194.0C-105.0 -151.0 -48.0 -75.0 -11.0 -16.0C56.0 -166.0 134.0 -197.0 332.0 -197.0C430.0 -197.0 552.0 -197.0 638.0 -197.0C644.0 -137.0 673.0 -98.0 725.0 -85.0V-73.0C597.0 -77.0 444.0 -77.0 330.0 -77.0C139.0 -77.0 70.0 -69.0 0.0 0.0ZM0.0 171.0C29.0 174.0 44.0 184.0 52.0 194.0L-82.0 300.0L-144.0 216.0H-231.0L-225.0 188.0H-129.0V-83.0L0.0 8.0ZM-174.0 708.0 -181.0 702.0C-145.0 670.0 -99.0 613.0 -80.0 564.0C40.0 507.0 108.0 727.0 -174.0 708.0Z"/></g>
</svg>
