<?xml version="1.0" encoding="UTF-8"?>
<svg width="1700" height="1400" xmlns="http://www.w3.org/2000/svg">
<rect width="100%" height="100%" fill="white"/>
<g fill="green" transform="translate(100 100) scale(0.1 -0.1)"><path d="M-0.0 -0.0V-129.0H804.0V0.0ZM7.0 -191.0V-319.0H791.0V-191.0ZM128.0 -43.0V-337.0H297.0V-43.0ZM507.0 -43.0V-337.0H676.0V-43.0Z"/></g>
<g fill="green" transform="translate(200 100) scale(0.1 -0.1)"><path d="M-0.0 0.0V-76.0H439.0V0.0ZM4.0 -43.0V-118.0H429.0V-43.0ZM63.0 -20.0V-159.0H165.0V-20.0ZM274.0 -20.0V-159.0H376.0V-20.0Z"/></g>
<g fill="green" transform="translate(300 100) scale(0.1 -0.1)"><path d="M0.0 -0.0V-220.0H703.0V0.0ZM12.0 -306.0V-526.0H685.0V-306.0ZM54.0 -108.0V-474.0H331.0V-108.0ZM372.0 -108.0V-474.0H649.0V-108.0Z"/></g>
<g fill="green" transform="translate(400 100) scale(0.1 -0.1)"><path d="M0.0 0.0V1.0H783.0V0.0ZM-4.0 -326.0V-325.0H784.0V-326.0ZM210.0 5.0V-392.0H200.0V5.0ZM582.0 5.0V-392.0H572.0V5.0Z"/></g>
<g fill="green" transform="translate(500 100) scale(0.1 -0.1)"><path d="M-0.0 0.0V-112.0H808.0V0.0ZM9.0 -235.0V-346.0H799.0V-235.0ZM143.0 -107.0V-286.0H292.0V-107.0ZM517.0 -107.0V-287.0H665.0V-107.0Z"/></g>
<g fill="green" transform="translate(600 100) scale(0.1 -0.1)"><path d="M-0.0 -0.0V-143.0H804.0V0.0ZM9.0 -224.0V-367.0H793.0V-224.0ZM124.0 6.0V-297.0H311.0V6.0ZM494.0 6.0V-297.0H681.0V6.0Z"/></g>
<g fill="red" transform="translate(100 200) scale(0.1 -0.1)"><path d="M0.0 0.0V-30.0H637.0V0.0ZM0.0 -359.0V-388.0H637.0V-359.0ZM155.0 -21.0V-370.0H188.0V-21.0ZM450.0 -21.0V-370.0H482.0V-21.0Z"/></g>
<g fill="black" opacity=".8" transform="translate(100 200) scale(0.1 -0.1)"><path d="M0.0 0.0V-32.0H638.0V0.0ZM-1.0 -357.0V-389.0H639.0V-357.0ZM157.0 -21.0V-369.0H187.0V-21.0ZM450.0 -21.0V-369.0H480.0V-21.0Z"/></g>
<g fill="red" transform="translate(200 200) scale(0.1 -0.1)"><path d="M0.0 0.0V-30.0H637.0V0.0ZM0.0 -271.0V-300.0H637.0V-271.0ZM155.0 -21.0V-288.0H188.0V-21.0ZM450.0 -21.0V-288.0H482.0V-21.0Z"/></g>
<g fill="black" opacity=".8" transform="translate(200 200) scale(0.1 -0.1)"><path d="M0.0 0.0V-29.0H637.0V0.0ZM1.0 -270.0V-300.0H637.0V-270.0ZM154.0 -21.0V-287.0H187.0V-21.0ZM450.0 -21.0V-288.0H483.0V-21.0Z"/></g>
<g fill="red" transform="translate(300 200) scale(0.1 -0.1)"><path d="M0.0 0.0V-30.0H636.0V0.0ZM0.0 -261.0V-291.0H636.0V-261.0ZM154.0 -11.0V-278.0H187.0V-11.0ZM449.0 -11.0V-278.0H482.0V-11.0Z"/></g>
<g fill="black" opacity=".8" transform="translate(300 200) scale(0.1 -0.1)"><path d="M0.0 0.0V-30.0H636.0V0.0ZM1.0 -261.0V-290.0H636.0V-261.0ZM153.0 -11.0V-277.0H187.0V-11.0ZM449.0 -11.0V-278.0H483.0V-11.0Z"/></g>
<g fill="red" transform="translate(400 200) scale(0.1 -0.1)"><path d="M0.0 0.0V-30.0H637.0V0.0ZM0.0 -283.0V-312.0H637.0V-283.0ZM155.0 -22.0V-289.0H188.0V-22.0ZM450.0 -22.0V-289.0H482.0V-22.0Z"/></g>
<g fill="black" opacity=".8" transform="translate(400 200) scale(0.1 -0.1)"><path d="M0.0 0.0V-30.0H637.0V0.0ZM1.0 -282.0V-312.0H637.0V-282.0ZM155.0 -22.0V-288.0H188.0V-22.0ZM450.0 -22.0V-289.0H482.0V-22.0Z"/></g>
<g fill="red" transform="translate(500 200) scale(0.1 -0.1)"><path d="M0.0 0.0V-30.0H637.0V0.0ZM0.0 -256.0V-285.0H637.0V-256.0ZM155.0 -10.0V-277.0H188.0V-10.0ZM450.0 -10.0V-277.0H482.0V-10.0Z"/></g>
<g fill="black" opacity=".8" transform="translate(500 200) scale(0.1 -0.1)"><path d="M0.0 0.0V-29.0H637.0V0.0ZM1.0 -256.0V-285.0H636.0V-256.0ZM154.0 -10.0V-276.0H187.0V-10.0ZM450.0 -10.0V-276.0H483.0V-10.0Z"/></g>
<g fill="red" transform="translate(600 200) scale(0.1 -0.1)"><path d="M0.0 0.0V-30.0H636.0V0.0ZM0.0 -239.0V-269.0H636.0V-239.0ZM154.0 -8.0V-256.0H187.0V-8.0ZM449.0 -8.0V-256.0H482.0V-8.0Z"/></g>
<g fill="black" opacity=".8" transform="translate(600 200) scale(0.1 -0.1)"><path d="M0.0 0.0V-29.0H636.0V0.0ZM1.0 -239.0V-268.0H635.0V-239.0ZM153.0 -8.0V-255.0H187.0V-8.0ZM449.0 -8.0V-256.0H483.0V-8.0Z"/></g>
<g fill="red" transform="translate(700 200) scale(0.1 -0.1)"><path d="M0.0 0.0V-30.0H637.0V0.0ZM0.0 -268.0V-298.0H637.0V-268.0ZM155.0 -21.0V-288.0H188.0V-21.0ZM450.0 -21.0V-288.0H482.0V-21.0Z"/></g>
<g fill="black" opacity=".8" transform="translate(700 200) scale(0.1 -0.1)"><path d="M0.0 0.0V-30.0H637.0V0.0ZM1.0 -268.0V-298.0H637.0V-268.0ZM154.0 -21.0V-287.0H187.0V-21.0ZM450.0 -21.0V-288.0H483.0V-21.0Z"/></g>
<g fill="red" transform="translate(800 200) scale(0.1 -0.1)"><path d="M0.0 0.0V-30.0H637.0V0.0ZM0.0 -259.0V-288.0H637.0V-259.0ZM155.0 -10.0V-277.0H188.0V-10.0ZM450.0 -10.0V-277.0H482.0V-10.0Z"/></g>
<g fill="black" opacity=".8" transform="translate(800 200) scale(0.1 -0.1)"><path d="M0.0 0.0V-29.0H637.0V0.0ZM1.0 -259.0V-288.0H637.0V-259.0ZM154.0 -10.0V-276.0H187.0V-10.0ZM450.0 -10.0V-276.0H483.0V-10.0Z"/></g>
<g fill="red" transform="translate(900 200) scale(0.1 -0.1)"><path d="M0.0 0.0V-30.0H637.0V0.0ZM0.0 -266.0V-296.0H637.0V-266.0ZM155.0 -20.0V-287.0H188.0V-20.0ZM450.0 -20.0V-287.0H482.0V-20.0Z"/></g>
<g fill="black" opacity=".8" transform="translate(900 200) scale(0.1 -0.1)"><path d="M0.0 0.0V-30.0H637.0V0.0ZM1.0 -266.0V-296.0H637.0V-266.0ZM154.0 -20.0V-286.0H187.0V-20.0ZM450.0 -20.0V-287.0H483.0V-20.0Z"/></g>
<g fill="red" transform="translate(1000 200) scale(0.1 -0.1)"><path d="M0.0 0.0V-29.0H636.0V0.0ZM0.0 -266.0V-295.0H636.0V-266.0ZM154.0 -20.0V-287.0H187.0V-20.0ZM449.0 -20.0V-287.0H482.0V-20.0Z"/></g>
<g fill="black" opacity=".8" transform="translate(1000 200) scale(0.1 -0.1)"><path d="M0.0 0.0V-29.0H636.0V0.0ZM1.0 -265.0V-295.0H636.0V-265.0ZM154.0 -20.0V-286.0H187.0V-20.0ZM450.0 -20.0V-287.0H482.0V-20.0Z"/></g>
<g fill="red" transform="translate(1100 200) scale(0.1 -0.1)"><path d="M0.0 0.0V-30.0H496.0V0.0ZM0.0 -323.0V-353.0H496.0V-323.0ZM111.0 -20.0V-332.0H143.0V-20.0ZM353.0 -20.0V-332.0H386.0V-20.0Z"/></g>
<g fill="black" opacity=".8" transform="translate(1100 200) scale(0.1 -0.1)"><path d="M0.0 0.0V-32.0H499.0V0.0ZM-1.0 -320.0V-353.0H500.0V-320.0ZM121.0 -20.0V-332.0H151.0V-20.0ZM348.0 -20.0V-332.0H377.0V-20.0Z"/></g>
<g fill="red" transform="translate(1200 200) scale(0.1 -0.1)"><path d="M0.0 0.0V-30.0H463.0V0.0ZM0.0 -249.0V-279.0H463.0V-249.0ZM106.0 -9.0V-266.0H139.0V-9.0ZM325.0 -9.0V-266.0H358.0V-9.0Z"/></g>
<g fill="black" opacity=".8" transform="translate(1200 200) scale(0.1 -0.1)"><path d="M0.0 0.0V-31.0H465.0V0.0ZM-0.0 -247.0V-279.0H464.0V-247.0ZM110.0 -9.0V-265.0H142.0V-9.0ZM323.0 -9.0V-266.0H355.0V-9.0Z"/></g>
<g fill="red" transform="translate(1300 200) scale(0.1 -0.1)"><path d="M0.0 0.0V-30.0H463.0V0.0ZM0.0 -259.0V-289.0H463.0V-259.0ZM106.0 -9.0V-285.0H139.0V-9.0ZM325.0 -9.0V-285.0H358.0V-9.0Z"/></g>
<g fill="black" opacity=".8" transform="translate(1300 200) scale(0.1 -0.1)"><path d="M0.0 0.0V-31.0H465.0V0.0ZM-1.0 -257.0V-289.0H464.0V-257.0ZM110.0 -9.0V-284.0H141.0V-9.0ZM323.0 -9.0V-285.0H355.0V-9.0Z"/></g>
<g fill="red" transform="translate(1400 200) scale(0.1 -0.1)"><path d="M0.0 0.0V-29.0H463.0V0.0ZM0.0 -226.0V-256.0H463.0V-226.0ZM106.0 -8.0V-247.0H139.0V-8.0ZM325.0 -8.0V-244.0H358.0V-8.0Z"/></g>
<g fill="black" opacity=".8" transform="translate(1400 200) scale(0.1 -0.1)"><path d="M0.0 0.0V-30.0H465.0V0.0ZM0.0 -225.0V-255.0H464.0V-225.0ZM109.0 -8.0V-245.0H141.0V-8.0ZM323.0 -8.0V-245.0H355.0V-8.0Z"/></g>
<g fill="red" transform="translate(1500 200) scale(0.1 -0.1)"><path d="M0.0 0.0V-29.0H463.0V0.0ZM0.0 -232.0V-262.0H463.0V-232.0ZM106.0 -8.0V-247.0H139.0V-8.0ZM325.0 -8.0V-244.0H358.0V-8.0Z"/></g>
<g fill="black" opacity=".8" transform="translate(1500 200) scale(0.1 -0.1)"><path d="M0.0 0.0V-30.0H465.0V0.0ZM0.0 -231.0V-261.0H464.0V-231.0ZM110.0 -8.0V-245.0H142.0V-8.0ZM323.0 -8.0V-245.0H355.0V-8.0Z"/></g>
<g fill="red" transform="translate(1600 200) scale(0.1 -0.1)"><path d="M0.0 0.0V-29.0H463.0V0.0ZM0.0 -248.0V-278.0H463.0V-248.0ZM106.0 -8.0V-266.0H139.0V-8.0ZM325.0 -8.0V-266.0H358.0V-8.0Z"/></g>
<g fill="black" opacity=".8" transform="translate(1600 200) scale(0.1 -0.1)"><path d="M0.0 0.0V-31.0H465.0V0.0ZM-0.0 -247.0V-278.0H464.0V-247.0ZM110.0 -8.0V-265.0H141.0V-8.0ZM323.0 -8.0V-266.0H355.0V-8.0Z"/></g>
<g fill="red" transform="translate(100 300) scale(0.1 -0.1)"><path d="M0.0 0.0V-30.0H417.0V0.0ZM-3.0 -297.0V-326.0H419.0V-297.0ZM96.0 -10.0V-314.0H128.0V-10.0ZM289.0 -10.0V-314.0H321.0V-10.0Z"/></g>
<g fill="black" opacity=".8" transform="translate(100 300) scale(0.1 -0.1)"><path d="M0.0 0.0V-32.0H419.0V0.0ZM-1.0 -294.0V-327.0H419.0V-294.0ZM100.0 -10.0V-313.0H129.0V-10.0ZM289.0 -10.0V-313.0H318.0V-10.0Z"/></g>
<g fill="red" transform="translate(200 300) scale(0.1 -0.1)"><path d="M0.0 0.0V-30.0H395.0V0.0ZM-3.0 -249.0V-279.0H392.0V-249.0ZM96.0 -9.0V-266.0H129.0V-9.0ZM265.0 -9.0V-266.0H298.0V-9.0Z"/></g>
<g fill="black" opacity=".8" transform="translate(200 300) scale(0.1 -0.1)"><path d="M0.0 0.0V-32.0H393.0V0.0ZM-0.0 -248.0V-280.0H392.0V-248.0ZM92.0 -9.0V-265.0H123.0V-9.0ZM270.0 -9.0V-265.0H301.0V-9.0Z"/></g>
<g fill="red" transform="translate(300 300) scale(0.1 -0.1)"><path d="M0.0 0.0V-30.0H395.0V0.0ZM-3.0 -249.0V-279.0H392.0V-249.0ZM98.0 -13.0V-270.0H130.0V-13.0ZM265.0 -9.0V-266.0H298.0V-9.0Z"/></g>
<g fill="black" opacity=".8" transform="translate(300 300) scale(0.1 -0.1)"><path d="M0.0 0.0V-32.0H393.0V0.0ZM-0.0 -248.0V-280.0H392.0V-248.0ZM92.0 -11.0V-267.0H122.0V-11.0ZM270.0 -11.0V-267.0H301.0V-11.0Z"/></g>
<g fill="red" transform="translate(400 300) scale(0.1 -0.1)"><path d="M0.0 0.0V-30.0H395.0V0.0ZM-3.0 -259.0V-289.0H392.0V-259.0ZM96.0 -9.0V-266.0H129.0V-9.0ZM265.0 -9.0V-266.0H298.0V-9.0Z"/></g>
<g fill="black" opacity=".8" transform="translate(400 300) scale(0.1 -0.1)"><path d="M0.0 0.0V-32.0H393.0V0.0ZM-0.0 -257.0V-290.0H393.0V-257.0ZM92.0 -9.0V-265.0H123.0V-9.0ZM269.0 -9.0V-265.0H300.0V-9.0Z"/></g>
<g fill="red" transform="translate(500 300) scale(0.1 -0.1)"><path d="M0.0 0.0V-29.0H395.0V0.0ZM-3.0 -223.0V-253.0H392.0V-223.0ZM96.0 -14.0V-240.0H129.0V-14.0ZM265.0 -14.0V-240.0H298.0V-14.0Z"/></g>
<g fill="black" opacity=".8" transform="translate(500 300) scale(0.1 -0.1)"><path d="M0.0 0.0V-31.0H393.0V0.0ZM0.0 -222.0V-254.0H392.0V-222.0ZM91.0 -14.0V-239.0H122.0V-14.0ZM270.0 -14.0V-239.0H301.0V-14.0Z"/></g>
<g fill="red" transform="translate(600 300) scale(0.1 -0.1)"><path d="M0.0 0.0V-30.0H509.0V0.0ZM0.0 -323.0V-353.0H509.0V-323.0ZM125.0 -21.0V-333.0H157.0V-21.0ZM351.0 -21.0V-333.0H384.0V-21.0Z"/></g>
<g fill="black" opacity=".8" transform="translate(600 300) scale(0.1 -0.1)"><path d="M0.0 0.0V-32.0H508.0V0.0ZM-1.0 -321.0V-354.0H509.0V-321.0ZM124.0 -21.0V-332.0H153.0V-21.0ZM355.0 -21.0V-332.0H384.0V-21.0Z"/></g>
<g fill="red" transform="translate(700 300) scale(0.1 -0.1)"><path d="M0.0 0.0V-29.0H463.0V0.0ZM-3.0 -241.0V-270.0H465.0V-241.0ZM106.0 -18.0V-257.0H139.0V-18.0ZM322.0 -16.0V-255.0H355.0V-16.0Z"/></g>
<g fill="black" opacity=".8" transform="translate(700 300) scale(0.1 -0.1)"><path d="M0.0 0.0V-30.0H464.0V0.0ZM0.0 -240.0V-270.0H463.0V-240.0ZM110.0 -17.0V-255.0H141.0V-17.0ZM323.0 -17.0V-256.0H354.0V-17.0Z"/></g>
<g fill="red" transform="translate(800 300) scale(0.1 -0.1)"><path d="M0.0 0.0V-30.0H473.0V0.0ZM0.0 -263.0V-293.0H473.0V-263.0ZM106.0 -18.0V-276.0H139.0V-18.0ZM325.0 -18.0V-276.0H358.0V-18.0Z"/></g>
<g fill="black" opacity=".8" transform="translate(800 300) scale(0.1 -0.1)"><path d="M0.0 0.0V-31.0H471.0V0.0ZM0.0 -262.0V-293.0H471.0V-262.0ZM112.0 -18.0V-275.0H143.0V-18.0ZM328.0 -18.0V-276.0H359.0V-18.0Z"/></g>
<g fill="red" transform="translate(900 300) scale(0.1 -0.1)"><path d="M0.0 0.0V-29.0H463.0V0.0ZM-4.0 -228.0V-258.0H463.0V-228.0ZM112.0 -8.0V-247.0H145.0V-8.0ZM328.0 -6.0V-245.0H361.0V-6.0Z"/></g>
<g fill="black" opacity=".8" transform="translate(900 300) scale(0.1 -0.1)"><path d="M0.0 0.0V-30.0H467.0V0.0ZM0.0 -227.0V-258.0H466.0V-227.0ZM110.0 -7.0V-245.0H142.0V-7.0ZM325.0 -7.0V-246.0H357.0V-7.0Z"/></g>
<g fill="red" transform="translate(1000 300) scale(0.1 -0.1)"><path d="M0.0 0.0V-30.0H637.0V0.0ZM0.0 -357.0V-387.0H637.0V-357.0ZM155.0 -22.0V-370.0H188.0V-22.0ZM450.0 -22.0V-370.0H482.0V-22.0Z"/></g>
<g fill="black" opacity=".8" transform="translate(1000 300) scale(0.1 -0.1)"><path d="M0.0 0.0V-32.0H638.0V0.0ZM-1.0 -355.0V-388.0H639.0V-355.0ZM157.0 -22.0V-369.0H187.0V-22.0ZM450.0 -22.0V-369.0H480.0V-22.0Z"/></g>
<g fill="red" transform="translate(1100 300) scale(0.1 -0.1)"><path d="M0.0 0.0V-30.0H636.0V0.0ZM0.0 -270.0V-299.0H636.0V-270.0ZM154.0 -14.0V-281.0H187.0V-14.0ZM449.0 -14.0V-281.0H482.0V-14.0Z"/></g>
<g fill="black" opacity=".8" transform="translate(1100 300) scale(0.1 -0.1)"><path d="M0.0 0.0V-30.0H636.0V0.0ZM1.0 -269.0V-299.0H636.0V-269.0ZM154.0 -14.0V-280.0H187.0V-14.0ZM449.0 -14.0V-281.0H482.0V-14.0Z"/></g>
<g fill="red" transform="translate(1200 300) scale(0.1 -0.1)"><path d="M0.0 0.0V-30.0H637.0V0.0ZM0.0 -281.0V-311.0H637.0V-281.0ZM155.0 -23.0V-290.0H188.0V-23.0ZM450.0 -23.0V-290.0H482.0V-23.0Z"/></g>
<g fill="black" opacity=".8" transform="translate(1200 300) scale(0.1 -0.1)"><path d="M0.0 0.0V-30.0H637.0V0.0ZM1.0 -281.0V-311.0H637.0V-281.0ZM155.0 -23.0V-289.0H188.0V-23.0ZM450.0 -23.0V-290.0H482.0V-23.0Z"/></g>
<g fill="red" transform="translate(1300 300) scale(0.1 -0.1)"><path d="M0.0 0.0V-30.0H636.0V0.0ZM0.0 -260.0V-290.0H636.0V-260.0ZM154.0 -14.0V-272.0H187.0V-14.0ZM449.0 -14.0V-272.0H482.0V-14.0Z"/></g>
<g fill="black" opacity=".8" transform="translate(1300 300) scale(0.1 -0.1)"><path d="M0.0 0.0V-29.0H636.0V0.0ZM1.0 -260.0V-289.0H636.0V-260.0ZM154.0 -14.0V-271.0H187.0V-14.0ZM449.0 -14.0V-272.0H483.0V-14.0Z"/></g>
<g fill="red" transform="translate(1400 300) scale(0.1 -0.1)"><path d="M0.0 0.0V-30.0H637.0V0.0ZM0.0 -252.0V-282.0H637.0V-252.0ZM155.0 -7.0V-264.0H188.0V-7.0ZM450.0 -7.0V-264.0H482.0V-7.0Z"/></g>
<g fill="black" opacity=".8" transform="translate(1400 300) scale(0.1 -0.1)"><path d="M0.0 0.0V-29.0H637.0V0.0ZM1.0 -252.0V-281.0H637.0V-252.0ZM154.0 -7.0V-263.0H188.0V-7.0ZM450.0 -7.0V-264.0H483.0V-7.0Z"/></g>
<g fill="red" transform="translate(1500 300) scale(0.1 -0.1)"><path d="M0.0 0.0V-30.0H636.0V0.0ZM0.0 -249.0V-279.0H636.0V-249.0ZM154.0 -12.0V-260.0H187.0V-12.0ZM449.0 -12.0V-260.0H482.0V-12.0Z"/></g>
<g fill="black" opacity=".8" transform="translate(1500 300) scale(0.1 -0.1)"><path d="M0.0 0.0V-29.0H636.0V0.0ZM1.0 -249.0V-278.0H636.0V-249.0ZM153.0 -12.0V-259.0H187.0V-12.0ZM449.0 -12.0V-260.0H483.0V-12.0Z"/></g>
<g fill="red" transform="translate(1600 300) scale(0.1 -0.1)"><path d="M0.0 0.0V-30.0H637.0V0.0ZM0.0 -257.0V-286.0H637.0V-257.0ZM155.0 -8.0V-275.0H188.0V-8.0ZM450.0 -8.0V-275.0H482.0V-8.0Z"/></g>
<g fill="black" opacity=".8" transform="translate(1600 300) scale(0.1 -0.1)"><path d="M0.0 0.0V-29.0H637.0V0.0ZM1.0 -257.0V-286.0H637.0V-257.0ZM154.0 -8.0V-274.0H187.0V-8.0ZM450.0 -8.0V-274.0H483.0V-8.0Z"/></g>
<g fill="red" transform="translate(100 400) scale(0.1 -0.1)"><path d="M0.0 0.0V-30.0H637.0V0.0ZM0.0 -264.0V-294.0H637.0V-264.0ZM155.0 -10.0V-277.0H188.0V-10.0ZM450.0 -10.0V-277.0H482.0V-10.0Z"/></g>
<g fill="black" opacity=".8" transform="translate(100 400) scale(0.1 -0.1)"><path d="M0.0 0.0V-29.0H637.0V0.0ZM1.0 -264.0V-293.0H637.0V-264.0ZM154.0 -10.0V-276.0H187.0V-10.0ZM450.0 -10.0V-277.0H483.0V-10.0Z"/></g>
<g fill="red" transform="translate(200 400) scale(0.1 -0.1)"><path d="M0.0 0.0V-30.0H637.0V0.0ZM0.0 -313.0V-343.0H637.0V-313.0ZM155.0 -19.0V-331.0H188.0V-19.0ZM450.0 -19.0V-331.0H482.0V-19.0Z"/></g>
<g fill="black" opacity=".8" transform="translate(200 400) scale(0.1 -0.1)"><path d="M0.0 0.0V-31.0H637.0V0.0ZM-0.0 -312.0V-343.0H638.0V-312.0ZM155.0 -19.0V-330.0H187.0V-19.0ZM450.0 -19.0V-330.0H482.0V-19.0Z"/></g>
<g fill="red" transform="translate(300 400) scale(0.1 -0.1)"><path d="M0.0 0.0V-29.0H636.0V0.0ZM0.0 -272.0V-302.0H636.0V-272.0ZM154.0 -21.0V-288.0H187.0V-21.0ZM449.0 -21.0V-288.0H482.0V-21.0Z"/></g>
<g fill="black" opacity=".8" transform="translate(300 400) scale(0.1 -0.1)"><path d="M0.0 0.0V-29.0H636.0V0.0ZM1.0 -272.0V-301.0H636.0V-272.0ZM154.0 -21.0V-287.0H187.0V-21.0ZM449.0 -21.0V-288.0H482.0V-21.0Z"/></g>
<g fill="red" transform="translate(400 400) scale(0.1 -0.1)"><path d="M0.0 0.0V-30.0H637.0V0.0ZM0.0 -285.0V-314.0H637.0V-285.0ZM155.0 -25.0V-292.0H188.0V-25.0ZM450.0 -25.0V-292.0H482.0V-25.0Z"/></g>
<g fill="black" opacity=".8" transform="translate(400 400) scale(0.1 -0.1)"><path d="M0.0 0.0V-30.0H637.0V0.0ZM1.0 -284.0V-314.0H637.0V-284.0ZM155.0 -25.0V-291.0H188.0V-25.0ZM450.0 -25.0V-292.0H482.0V-25.0Z"/></g>
<g fill="red" transform="translate(500 400) scale(0.1 -0.1)"><path d="M0.0 0.0V-30.0H637.0V0.0ZM0.0 -269.0V-299.0H637.0V-269.0ZM155.0 -21.0V-288.0H188.0V-21.0ZM450.0 -21.0V-288.0H482.0V-21.0Z"/></g>
<g fill="black" opacity=".8" transform="translate(500 400) scale(0.1 -0.1)"><path d="M0.0 0.0V-30.0H637.0V0.0ZM1.0 -269.0V-299.0H637.0V-269.0ZM154.0 -21.0V-287.0H187.0V-21.0ZM450.0 -21.0V-288.0H483.0V-21.0Z"/></g>
<g fill="red" transform="translate(600 400) scale(0.1 -0.1)"><path d="M0.0 0.0V-30.0H637.0V0.0ZM0.0 -254.0V-284.0H637.0V-254.0ZM155.0 -10.0V-277.0H188.0V-10.0ZM450.0 -10.0V-277.0H482.0V-10.0Z"/></g>
<g fill="black" opacity=".8" transform="translate(600 400) scale(0.1 -0.1)"><path d="M0.0 0.0V-29.0H637.0V0.0ZM0.0 -254.0V-283.0H636.0V-254.0ZM153.0 -10.0V-276.0H187.0V-10.0ZM450.0 -10.0V-276.0H484.0V-10.0Z"/></g>
<g fill="red" transform="translate(700 400) scale(0.1 -0.1)"><path d="M0.0 0.0V-30.0H636.0V0.0ZM0.0 -249.0V-278.0H636.0V-249.0ZM154.0 -8.0V-275.0H187.0V-8.0ZM449.0 -8.0V-275.0H482.0V-8.0Z"/></g>
<g fill="black" opacity=".8" transform="translate(700 400) scale(0.1 -0.1)"><path d="M0.0 0.0V-29.0H636.0V0.0ZM0.0 -249.0V-278.0H635.0V-249.0ZM153.0 -8.0V-274.0H186.0V-8.0ZM450.0 -8.0V-274.0H483.0V-8.0Z"/></g>
<g fill="red" transform="translate(800 400) scale(0.1 -0.1)"><path d="M0.0 0.0V-30.0H637.0V0.0ZM0.0 -249.0V-279.0H637.0V-249.0ZM155.0 -8.0V-275.0H188.0V-8.0ZM450.0 -8.0V-275.0H482.0V-8.0Z"/></g>
<g fill="black" opacity=".8" transform="translate(800 400) scale(0.1 -0.1)"><path d="M0.0 0.0V-29.0H637.0V0.0ZM0.0 -249.0V-278.0H636.0V-249.0ZM153.0 -8.0V-274.0H187.0V-8.0ZM451.0 -8.0V-274.0H484.0V-8.0Z"/></g>
<g fill="red" transform="translate(900 400) scale(0.1 -0.1)"><path d="M0.0 0.0V-30.0H637.0V0.0ZM0.0 -268.0V-298.0H637.0V-268.0ZM155.0 -12.0V-279.0H188.0V-12.0ZM450.0 -12.0V-279.0H482.0V-12.0Z"/></g>
<g fill="black" opacity=".8" transform="translate(900 400) scale(0.1 -0.1)"><path d="M0.0 0.0V-29.0H637.0V0.0ZM1.0 -268.0V-297.0H637.0V-268.0ZM154.0 -12.0V-278.0H188.0V-12.0ZM450.0 -12.0V-279.0H483.0V-12.0Z"/></g>
<g fill="red" transform="translate(1000 400) scale(0.1 -0.1)"><path d="M0.0 0.0V-29.0H495.0V0.0ZM0.0 -291.0V-320.0H495.0V-291.0ZM110.0 -20.0V-310.0H143.0V-20.0ZM352.0 -20.0V-310.0H385.0V-20.0Z"/></g>
<g fill="black" opacity=".8" transform="translate(1000 400) scale(0.1 -0.1)"><path d="M0.0 0.0V-31.0H498.0V0.0ZM-1.0 -288.0V-320.0H498.0V-288.0ZM120.0 -20.0V-310.0H150.0V-20.0ZM348.0 -20.0V-310.0H378.0V-20.0Z"/></g>
<g fill="red" transform="translate(1100 400) scale(0.1 -0.1)"><path d="M0.0 0.0V-30.0H463.0V0.0ZM0.0 -234.0V-264.0H463.0V-234.0ZM106.0 -4.0V-261.0H138.0V-4.0ZM325.0 -4.0V-261.0H357.0V-4.0Z"/></g>
<g fill="black" opacity=".8" transform="translate(1100 400) scale(0.1 -0.1)"><path d="M0.0 0.0V-30.0H464.0V0.0ZM-0.0 -233.0V-264.0H463.0V-233.0ZM109.0 -4.0V-260.0H141.0V-4.0ZM324.0 -4.0V-261.0H355.0V-4.0Z"/></g>
<g fill="red" transform="translate(1200 400) scale(0.1 -0.1)"><path d="M0.0 0.0V-29.0H463.0V0.0ZM-1.0 -256.0V-286.0H461.0V-256.0ZM104.0 -9.0V-276.0H137.0V-9.0ZM331.0 -9.0V-276.0H364.0V-9.0Z"/></g>
<g fill="black" opacity=".8" transform="translate(1200 400) scale(0.1 -0.1)"><path d="M0.0 0.0V-31.0H467.0V0.0ZM-0.0 -254.0V-285.0H466.0V-254.0ZM111.0 -9.0V-276.0H142.0V-9.0ZM325.0 -9.0V-276.0H356.0V-9.0Z"/></g>
<g fill="red" transform="translate(1300 400) scale(0.1 -0.1)"><path d="M0.0 0.0V-29.0H463.0V0.0ZM-2.0 -218.0V-247.0H465.0V-218.0ZM103.0 -4.0V-235.0H136.0V-4.0ZM322.0 -4.0V-235.0H355.0V-4.0Z"/></g>
<g fill="black" opacity=".8" transform="translate(1300 400) scale(0.1 -0.1)"><path d="M0.0 0.0V-29.0H463.0V0.0ZM0.0 -217.0V-247.0H462.0V-217.0ZM109.0 -4.0V-234.0H141.0V-4.0ZM323.0 -4.0V-235.0H354.0V-4.0Z"/></g>
<g fill="red" transform="translate(1400 400) scale(0.1 -0.1)"><path d="M0.0 0.0V-30.0H463.0V0.0ZM-1.0 -233.0V-263.0H466.0V-233.0ZM108.0 -5.0V-253.0H141.0V-5.0ZM325.0 -4.0V-252.0H358.0V-4.0Z"/></g>
<g fill="black" opacity=".8" transform="translate(1400 400) scale(0.1 -0.1)"><path d="M0.0 0.0V-30.0H466.0V0.0ZM0.0 -232.0V-263.0H465.0V-232.0ZM110.0 -4.0V-252.0H142.0V-4.0ZM324.0 -4.0V-252.0H356.0V-4.0Z"/></g>
<g fill="red" transform="translate(1500 400) scale(0.1 -0.1)"><path d="M0.0 0.0V-29.0H463.0V0.0ZM0.0 -243.0V-272.0H463.0V-243.0ZM106.0 -12.0V-261.0H138.0V-12.0ZM325.0 -12.0V-261.0H357.0V-12.0Z"/></g>
<g fill="black" opacity=".8" transform="translate(1500 400) scale(0.1 -0.1)"><path d="M0.0 0.0V-30.0H464.0V0.0ZM-0.0 -241.0V-272.0H464.0V-241.0ZM110.0 -12.0V-260.0H141.0V-12.0ZM324.0 -12.0V-261.0H354.0V-12.0Z"/></g>
<g fill="red" transform="translate(1600 400) scale(0.1 -0.1)"><path d="M0.0 0.0V-30.0H463.0V0.0ZM0.0 -221.0V-251.0H463.0V-221.0ZM106.0 -2.0V-237.0H138.0V-2.0ZM325.0 -2.0V-237.0H357.0V-2.0Z"/></g>
<g fill="black" opacity=".8" transform="translate(1600 400) scale(0.1 -0.1)"><path d="M0.0 0.0V-30.0H464.0V0.0ZM0.0 -220.0V-250.0H463.0V-220.0ZM109.0 -2.0V-236.0H141.0V-2.0ZM323.0 -2.0V-237.0H355.0V-2.0Z"/></g>
<g fill="red" transform="translate(100 500) scale(0.1 -0.1)"><path d="M0.0 0.0V-30.0H463.0V0.0ZM-2.0 -208.0V-238.0H465.0V-208.0ZM103.0 -5.0V-235.0H136.0V-5.0ZM322.0 -5.0V-235.0H355.0V-5.0Z"/></g>
<g fill="black" opacity=".8" transform="translate(100 500) scale(0.1 -0.1)"><path d="M0.0 0.0V-30.0H463.0V0.0ZM0.0 -207.0V-237.0H462.0V-207.0ZM108.0 -5.0V-234.0H141.0V-5.0ZM323.0 -5.0V-235.0H355.0V-5.0Z"/></g>
<g fill="red" transform="translate(200 500) scale(0.1 -0.1)"><path d="M0.0 0.0V-29.0H463.0V0.0ZM-2.0 -204.0V-234.0H465.0V-204.0ZM103.0 -2.0V-232.0H136.0V-2.0ZM322.0 -2.0V-232.0H355.0V-2.0Z"/></g>
<g fill="black" opacity=".8" transform="translate(200 500) scale(0.1 -0.1)"><path d="M0.0 0.0V-29.0H463.0V0.0ZM0.0 -203.0V-233.0H462.0V-203.0ZM108.0 -2.0V-231.0H140.0V-2.0ZM323.0 -2.0V-232.0H355.0V-2.0Z"/></g>
<g fill="red" transform="translate(300 500) scale(0.1 -0.1)"><path d="M0.0 0.0V-29.0H409.0V0.0ZM0.0 -291.0V-320.0H409.0V-291.0ZM96.0 -20.0V-310.0H129.0V-20.0ZM281.0 -20.0V-310.0H314.0V-20.0Z"/></g>
<g fill="black" opacity=".8" transform="translate(300 500) scale(0.1 -0.1)"><path d="M0.0 0.0V-32.0H410.0V0.0ZM-1.0 -288.0V-322.0H410.0V-288.0ZM97.0 -20.0V-309.0H127.0V-20.0ZM283.0 -20.0V-309.0H312.0V-20.0Z"/></g>
<g fill="red" transform="translate(400 500) scale(0.1 -0.1)"><path d="M0.0 0.0V-29.0H395.0V0.0ZM-3.0 -224.0V-254.0H392.0V-224.0ZM96.0 -7.0V-243.0H129.0V-7.0ZM264.0 -8.0V-244.0H297.0V-8.0Z"/></g>
<g fill="black" opacity=".8" transform="translate(400 500) scale(0.1 -0.1)"><path d="M0.0 0.0V-31.0H392.0V0.0ZM-0.0 -223.0V-255.0H391.0V-223.0ZM91.0 -7.0V-242.0H122.0V-7.0ZM270.0 -7.0V-242.0H301.0V-7.0Z"/></g>
<g fill="red" transform="translate(500 500) scale(0.1 -0.1)"><path d="M0.0 0.0V-29.0H395.0V0.0ZM-3.0 -203.0V-233.0H392.0V-203.0ZM96.0 -7.0V-224.0H129.0V-7.0ZM264.0 -8.0V-225.0H297.0V-8.0Z"/></g>
<g fill="black" opacity=".8" transform="translate(500 500) scale(0.1 -0.1)"><path d="M0.0 0.0V-30.0H392.0V0.0ZM0.0 -203.0V-234.0H391.0V-203.0ZM90.0 -7.0V-223.0H122.0V-7.0ZM270.0 -7.0V-223.0H302.0V-7.0Z"/></g>
<g fill="red" transform="translate(600 500) scale(0.1 -0.1)"><path d="M0.0 0.0V-29.0H395.0V0.0ZM-3.0 -214.0V-244.0H392.0V-214.0ZM96.0 -2.0V-238.0H129.0V-2.0ZM264.0 -3.0V-239.0H297.0V-3.0Z"/></g>
<g fill="black" opacity=".8" transform="translate(600 500) scale(0.1 -0.1)"><path d="M0.0 0.0V-31.0H392.0V0.0ZM-0.0 -214.0V-245.0H391.0V-214.0ZM90.0 -2.0V-237.0H122.0V-2.0ZM270.0 -2.0V-237.0H302.0V-2.0Z"/></g>
<g fill="red" transform="translate(700 500) scale(0.1 -0.1)"><path d="M0.0 0.0V-30.0H395.0V0.0ZM-3.0 -195.0V-225.0H392.0V-195.0ZM96.0 -9.0V-207.0H129.0V-9.0ZM264.0 -9.0V-208.0H297.0V-9.0Z"/></g>
<g fill="black" opacity=".8" transform="translate(700 500) scale(0.1 -0.1)"><path d="M0.0 0.0V-30.0H392.0V0.0ZM1.0 -195.0V-225.0H391.0V-195.0ZM90.0 -9.0V-206.0H123.0V-9.0ZM269.0 -9.0V-207.0H302.0V-9.0Z"/></g>
<g fill="red" transform="translate(800 500) scale(0.1 -0.1)"><path d="M0.0 0.0V-30.0H472.0V0.0ZM0.0 -253.0V-282.0H472.0V-253.0ZM106.0 -14.0V-271.0H138.0V-14.0ZM325.0 -14.0V-271.0H357.0V-14.0Z"/></g>
<g fill="black" opacity=".8" transform="translate(800 500) scale(0.1 -0.1)"><path d="M0.0 0.0V-30.0H470.0V0.0ZM-0.0 -251.0V-282.0H469.0V-251.0ZM112.0 -14.0V-270.0H142.0V-14.0ZM327.0 -14.0V-270.0H358.0V-14.0Z"/></g>
<g fill="red" transform="translate(900 500) scale(0.1 -0.1)"><path d="M0.0 0.0V-29.0H472.0V0.0ZM0.0 -263.0V-293.0H472.0V-263.0ZM106.0 -18.0V-275.0H138.0V-18.0ZM325.0 -18.0V-275.0H357.0V-18.0Z"/></g>
<g fill="black" opacity=".8" transform="translate(900 500) scale(0.1 -0.1)"><path d="M0.0 0.0V-30.0H470.0V0.0ZM-0.0 -262.0V-293.0H470.0V-262.0ZM112.0 -18.0V-274.0H143.0V-18.0ZM327.0 -18.0V-275.0H357.0V-18.0Z"/></g>
<g fill="red" transform="translate(1000 500) scale(0.1 -0.1)"><path d="M0.0 0.0V-30.0H463.0V0.0ZM0.0 -235.0V-264.0H463.0V-235.0ZM105.0 -5.0V-263.0H138.0V-5.0ZM324.0 -5.0V-263.0H357.0V-5.0Z"/></g>
<g fill="black" opacity=".8" transform="translate(1000 500) scale(0.1 -0.1)"><path d="M0.0 0.0V-31.0H464.0V0.0ZM-0.0 -233.0V-264.0H463.0V-233.0ZM109.0 -5.0V-262.0H141.0V-5.0ZM323.0 -5.0V-263.0H355.0V-5.0Z"/></g>
<g fill="red" transform="translate(1100 500) scale(0.1 -0.1)"><path d="M0.0 0.0V-30.0H463.0V0.0ZM0.0 -239.0V-268.0H463.0V-239.0ZM105.0 -6.0V-264.0H138.0V-6.0ZM324.0 -6.0V-264.0H357.0V-6.0Z"/></g>
<g fill="black" opacity=".8" transform="translate(1100 500) scale(0.1 -0.1)"><path d="M0.0 0.0V-31.0H464.0V0.0ZM-0.0 -237.0V-268.0H463.0V-237.0ZM109.0 -6.0V-263.0H141.0V-6.0ZM323.0 -6.0V-264.0H355.0V-6.0Z"/></g>
<g fill="red" transform="translate(1200 500) scale(0.1 -0.1)"><path d="M0.0 0.0V-30.0H472.0V0.0ZM0.0 -253.0V-283.0H472.0V-253.0ZM106.0 -14.0V-271.0H138.0V-14.0ZM325.0 -14.0V-271.0H357.0V-14.0Z"/></g>
<g fill="black" opacity=".8" transform="translate(1200 500) scale(0.1 -0.1)"><path d="M0.0 0.0V-30.0H470.0V0.0ZM-0.0 -252.0V-283.0H469.0V-252.0ZM111.0 -14.0V-270.0H143.0V-14.0ZM327.0 -14.0V-270.0H358.0V-14.0Z"/></g>
<g fill="red" transform="translate(1300 500) scale(0.1 -0.1)"><path d="M0.0 0.0V-30.0H472.0V0.0ZM0.0 -253.0V-282.0H472.0V-253.0ZM106.0 -13.0V-271.0H138.0V-13.0ZM325.0 -13.0V-271.0H357.0V-13.0Z"/></g>
<g fill="black" opacity=".8" transform="translate(1300 500) scale(0.1 -0.1)"><path d="M0.0 0.0V-30.0H470.0V0.0ZM-0.0 -251.0V-282.0H469.0V-251.0ZM112.0 -13.0V-270.0H142.0V-13.0ZM327.0 -13.0V-270.0H358.0V-13.0Z"/></g>
<g fill="red" transform="translate(1400 500) scale(0.1 -0.1)"><path d="M0.0 0.0V-30.0H463.0V0.0ZM0.0 -233.0V-263.0H463.0V-233.0ZM106.0 -2.0V-260.0H138.0V-2.0ZM325.0 -2.0V-260.0H357.0V-2.0Z"/></g>
<g fill="black" opacity=".8" transform="translate(1400 500) scale(0.1 -0.1)"><path d="M0.0 0.0V-30.0H464.0V0.0ZM-0.0 -232.0V-263.0H463.0V-232.0ZM109.0 -2.0V-259.0H141.0V-2.0ZM324.0 -2.0V-260.0H355.0V-2.0Z"/></g>
<g fill="red" transform="translate(1500 500) scale(0.1 -0.1)"><path d="M0.0 0.0V-30.0H463.0V0.0ZM0.0 -219.0V-249.0H463.0V-219.0ZM106.0 -6.0V-237.0H138.0V-6.0ZM325.0 -6.0V-237.0H357.0V-6.0Z"/></g>
<g fill="black" opacity=".8" transform="translate(1500 500) scale(0.1 -0.1)"><path d="M0.0 0.0V-30.0H464.0V0.0ZM0.0 -218.0V-248.0H463.0V-218.0ZM109.0 -6.0V-236.0H141.0V-6.0ZM323.0 -6.0V-237.0H355.0V-6.0Z"/></g>
<g fill="red" transform="translate(1600 500) scale(0.1 -0.1)"><path d="M0.0 0.0V-30.0H637.0V0.0ZM0.0 -311.0V-341.0H637.0V-311.0ZM155.0 -19.0V-331.0H188.0V-19.0ZM450.0 -19.0V-331.0H482.0V-19.0Z"/></g>
<g fill="black" opacity=".8" transform="translate(1600 500) scale(0.1 -0.1)"><path d="M0.0 0.0V-31.0H637.0V0.0ZM-0.0 -310.0V-341.0H637.0V-310.0ZM155.0 -19.0V-330.0H187.0V-19.0ZM450.0 -19.0V-330.0H482.0V-19.0Z"/></g>
<g fill="red" transform="translate(100 600) scale(0.1 -0.1)"><path d="M0.0 0.0V-30.0H636.0V0.0ZM0.0 -266.0V-296.0H636.0V-266.0ZM154.0 -21.0V-288.0H187.0V-21.0ZM449.0 -21.0V-288.0H482.0V-21.0Z"/></g>
<g fill="black" opacity=".8" transform="translate(100 600) scale(0.1 -0.1)"><path d="M0.0 0.0V-30.0H636.0V0.0ZM1.0 -266.0V-296.0H636.0V-266.0ZM153.0 -21.0V-287.0H187.0V-21.0ZM450.0 -21.0V-288.0H483.0V-21.0Z"/></g>
<g fill="red" transform="translate(200 600) scale(0.1 -0.1)"><path d="M0.0 0.0V-30.0H637.0V0.0ZM0.0 -284.0V-314.0H637.0V-284.0ZM155.0 -25.0V-292.0H188.0V-25.0ZM450.0 -25.0V-292.0H482.0V-25.0Z"/></g>
<g fill="black" opacity=".8" transform="translate(200 600) scale(0.1 -0.1)"><path d="M0.0 0.0V-30.0H637.0V0.0ZM1.0 -284.0V-314.0H637.0V-284.0ZM155.0 -25.0V-291.0H188.0V-25.0ZM450.0 -25.0V-292.0H482.0V-25.0Z"/></g>
<g fill="red" transform="translate(300 600) scale(0.1 -0.1)"><path d="M0.0 0.0V-30.0H637.0V0.0ZM0.0 -250.0V-280.0H637.0V-250.0ZM155.0 -10.0V-277.0H188.0V-10.0ZM450.0 -10.0V-277.0H482.0V-10.0Z"/></g>
<g fill="black" opacity=".8" transform="translate(300 600) scale(0.1 -0.1)"><path d="M0.0 0.0V-29.0H637.0V0.0ZM0.0 -250.0V-279.0H636.0V-250.0ZM153.0 -10.0V-276.0H187.0V-10.0ZM451.0 -10.0V-276.0H484.0V-10.0Z"/></g>
<g fill="red" transform="translate(400 600) scale(0.1 -0.1)"><path d="M0.0 0.0V-30.0H637.0V0.0ZM0.0 -249.0V-278.0H637.0V-249.0ZM155.0 -8.0V-275.0H188.0V-8.0ZM450.0 -8.0V-275.0H482.0V-8.0Z"/></g>
<g fill="black" opacity=".8" transform="translate(400 600) scale(0.1 -0.1)"><path d="M0.0 0.0V-29.0H637.0V0.0ZM0.0 -249.0V-278.0H636.0V-249.0ZM153.0 -8.0V-274.0H187.0V-8.0ZM451.0 -8.0V-274.0H484.0V-8.0Z"/></g>
<g fill="red" transform="translate(500 600) scale(0.1 -0.1)"><path d="M0.0 0.0V-30.0H637.0V0.0ZM0.0 -266.0V-296.0H637.0V-266.0ZM155.0 -21.0V-288.0H188.0V-21.0ZM450.0 -21.0V-288.0H482.0V-21.0Z"/></g>
<g fill="black" opacity=".8" transform="translate(500 600) scale(0.1 -0.1)"><path d="M0.0 0.0V-30.0H637.0V0.0ZM1.0 -266.0V-296.0H637.0V-266.0ZM154.0 -21.0V-287.0H187.0V-21.0ZM450.0 -21.0V-288.0H483.0V-21.0Z"/></g>
<g fill="red" transform="translate(600 600) scale(0.1 -0.1)"><path d="M0.0 0.0V-30.0H637.0V0.0ZM0.0 -267.0V-297.0H637.0V-267.0ZM155.0 -21.0V-288.0H188.0V-21.0ZM450.0 -21.0V-288.0H482.0V-21.0Z"/></g>
<g fill="black" opacity=".8" transform="translate(600 600) scale(0.1 -0.1)"><path d="M0.0 0.0V-30.0H637.0V0.0ZM1.0 -267.0V-297.0H637.0V-267.0ZM154.0 -21.0V-287.0H187.0V-21.0ZM450.0 -21.0V-288.0H483.0V-21.0Z"/></g>
<g fill="red" transform="translate(700 600) scale(0.1 -0.1)"><path d="M0.0 0.0V-30.0H637.0V0.0ZM0.0 -380.0V-409.0H637.0V-380.0ZM155.0 -27.0V-385.0H188.0V-27.0ZM450.0 -27.0V-385.0H482.0V-27.0Z"/></g>
<g fill="black" opacity=".8" transform="translate(700 600) scale(0.1 -0.1)"><path d="M0.0 0.0V-33.0H638.0V0.0ZM-1.0 -377.0V-411.0H639.0V-377.0ZM158.0 -27.0V-384.0H188.0V-27.0ZM450.0 -27.0V-384.0H479.0V-27.0Z"/></g>
<g fill="red" transform="translate(800 600) scale(0.1 -0.1)"><path d="M0.0 0.0V-29.0H636.0V0.0ZM0.0 -262.0V-292.0H636.0V-262.0ZM154.0 -17.0V-284.0H187.0V-17.0ZM449.0 -17.0V-284.0H482.0V-17.0Z"/></g>
<g fill="black" opacity=".8" transform="translate(800 600) scale(0.1 -0.1)"><path d="M0.0 0.0V-29.0H636.0V0.0ZM1.0 -262.0V-291.0H635.0V-262.0ZM153.0 -17.0V-283.0H187.0V-17.0ZM450.0 -17.0V-284.0H483.0V-17.0Z"/></g>
<g fill="red" transform="translate(900 600) scale(0.1 -0.1)"><path d="M0.0 0.0V-30.0H636.0V0.0ZM0.0 -256.0V-286.0H636.0V-256.0ZM154.0 -8.0V-275.0H187.0V-8.0ZM449.0 -8.0V-275.0H482.0V-8.0Z"/></g>
<g fill="black" opacity=".8" transform="translate(900 600) scale(0.1 -0.1)"><path d="M0.0 0.0V-29.0H636.0V0.0ZM1.0 -256.0V-285.0H635.0V-256.0ZM153.0 -8.0V-274.0H187.0V-8.0ZM449.0 -8.0V-275.0H483.0V-8.0Z"/></g>
<g fill="red" transform="translate(1000 600) scale(0.1 -0.1)"><path d="M0.0 0.0V-30.0H637.0V0.0ZM0.0 -270.0V-300.0H637.0V-270.0ZM155.0 -21.0V-288.0H188.0V-21.0ZM450.0 -21.0V-288.0H482.0V-21.0Z"/></g>
<g fill="black" opacity=".8" transform="translate(1000 600) scale(0.1 -0.1)"><path d="M0.0 0.0V-30.0H637.0V0.0ZM1.0 -270.0V-300.0H637.0V-270.0ZM154.0 -21.0V-287.0H187.0V-21.0ZM450.0 -21.0V-288.0H483.0V-21.0Z"/></g>
<g fill="red" transform="translate(1100 600) scale(0.1 -0.1)"><path d="M0.0 0.0V-30.0H637.0V0.0ZM0.0 -261.0V-291.0H637.0V-261.0ZM155.0 -10.0V-277.0H188.0V-10.0ZM450.0 -10.0V-277.0H482.0V-10.0Z"/></g>
<g fill="black" opacity=".8" transform="translate(1100 600) scale(0.1 -0.1)"><path d="M0.0 0.0V-29.0H637.0V0.0ZM1.0 -261.0V-290.0H637.0V-261.0ZM154.0 -10.0V-276.0H187.0V-10.0ZM450.0 -10.0V-276.0H483.0V-10.0Z"/></g>
<g fill="red" transform="translate(1200 600) scale(0.1 -0.1)"><path d="M0.0 0.0V-29.0H637.0V0.0ZM0.0 -271.0V-301.0H637.0V-271.0ZM155.0 -20.0V-287.0H188.0V-20.0ZM450.0 -20.0V-287.0H482.0V-20.0Z"/></g>
<g fill="black" opacity=".8" transform="translate(1200 600) scale(0.1 -0.1)"><path d="M0.0 0.0V-29.0H637.0V0.0ZM1.0 -271.0V-300.0H637.0V-271.0ZM154.0 -20.0V-286.0H187.0V-20.0ZM450.0 -20.0V-287.0H483.0V-20.0Z"/></g>
<g fill="red" transform="translate(1300 600) scale(0.1 -0.1)"><path d="M0.0 0.0V-30.0H472.0V0.0ZM-3.0 -308.0V-337.0H469.0V-308.0ZM124.0 -16.0V-328.0H156.0V-16.0ZM315.0 -16.0V-328.0H347.0V-16.0Z"/></g>
<g fill="black" opacity=".8" transform="translate(1300 600) scale(0.1 -0.1)"><path d="M0.0 0.0V-32.0H468.0V0.0ZM-1.0 -307.0V-340.0H468.0V-307.0ZM113.0 -16.0V-326.0H142.0V-16.0ZM325.0 -16.0V-326.0H354.0V-16.0Z"/></g>
<g fill="red" transform="translate(1400 600) scale(0.1 -0.1)"><path d="M0.0 0.0V-128.0H725.0V0.0ZM6.0 -372.0V-498.0H721.0V-372.0ZM118.0 -107.0V-384.0H279.0V-107.0ZM446.0 -107.0V-384.0H607.0V-107.0Z"/></g>
<g fill="black" opacity=".8" transform="translate(1400 600) scale(0.1 -0.1)"><path d="M0.0 0.0V-128.0H726.0V0.0ZM9.0 -370.0V-499.0H720.0V-370.0ZM122.0 -107.0V-383.0H281.0V-107.0ZM446.0 -107.0V-384.0H605.0V-107.0Z"/></g>
<g fill="red" transform="translate(1500 600) scale(0.1 -0.1)"><path d="M0.0 0.0V-127.0H706.0V0.0ZM9.0 -251.0V-377.0H696.0V-251.0ZM108.0 -46.0V-323.0H269.0V-46.0ZM437.0 -46.0V-323.0H598.0V-46.0Z"/></g>
<g fill="black" opacity=".8" transform="translate(1500 600) scale(0.1 -0.1)"><path d="M0.0 0.0V-126.0H707.0V0.0ZM8.0 -250.0V-376.0H697.0V-250.0ZM111.0 -46.0V-322.0H272.0V-46.0ZM435.0 -46.0V-323.0H596.0V-46.0Z"/></g>
<g fill="red" transform="translate(1600 600) scale(0.1 -0.1)"><path d="M0.0 0.0V-128.0H706.0V0.0ZM4.0 -227.0V-353.0H691.0V-227.0ZM104.0 -56.0V-291.0H265.0V-56.0ZM433.0 -56.0V-291.0H594.0V-56.0Z"/></g>
<g fill="black" opacity=".8" transform="translate(1600 600) scale(0.1 -0.1)"><path d="M0.0 0.0V-126.0H702.0V0.0ZM8.0 -227.0V-352.0H693.0V-227.0ZM109.0 -56.0V-291.0H272.0V-56.0ZM431.0 -56.0V-291.0H594.0V-56.0Z"/></g>
<g fill="red" transform="translate(100 700) scale(0.1 -0.1)"><path d="M0.0 0.0V-126.0H706.0V0.0ZM9.0 -255.0V-381.0H696.0V-255.0ZM108.0 -46.0V-323.0H269.0V-46.0ZM437.0 -46.0V-323.0H598.0V-46.0Z"/></g>
<g fill="black" opacity=".8" transform="translate(100 700) scale(0.1 -0.1)"><path d="M0.0 0.0V-126.0H707.0V0.0ZM8.0 -254.0V-380.0H697.0V-254.0ZM111.0 -46.0V-322.0H272.0V-46.0ZM435.0 -46.0V-323.0H596.0V-46.0Z"/></g>
<g fill="red" transform="translate(200 700) scale(0.1 -0.1)"><path d="M0.0 0.0V-119.0H706.0V0.0ZM9.0 -206.0V-325.0H696.0V-206.0ZM108.0 -47.0V-282.0H269.0V-47.0ZM437.0 -47.0V-282.0H598.0V-47.0Z"/></g>
<g fill="black" opacity=".8" transform="translate(200 700) scale(0.1 -0.1)"><path d="M0.0 0.0V-121.0H706.0V0.0ZM8.0 -204.0V-325.0H696.0V-204.0ZM111.0 -47.0V-281.0H270.0V-47.0ZM438.0 -47.0V-282.0H596.0V-47.0Z"/></g>
<g fill="red" transform="translate(300 700) scale(0.1 -0.1)"><path d="M0.0 0.0V-120.0H706.0V0.0ZM5.0 -199.0V-319.0H692.0V-199.0ZM119.0 -46.0V-282.0H279.0V-46.0ZM429.0 -46.0V-282.0H590.0V-46.0Z"/></g>
<g fill="black" opacity=".8" transform="translate(300 700) scale(0.1 -0.1)"><path d="M0.0 0.0V-122.0H703.0V0.0ZM8.0 -199.0V-320.0H693.0V-199.0ZM110.0 -46.0V-281.0H269.0V-46.0ZM435.0 -46.0V-281.0H594.0V-46.0Z"/></g>
<g fill="red" transform="translate(400 700) scale(0.1 -0.1)"><path d="M0.0 0.0V-127.0H706.0V0.0ZM9.0 -238.0V-365.0H696.0V-238.0ZM108.0 -43.0V-321.0H269.0V-43.0ZM437.0 -43.0V-321.0H598.0V-43.0Z"/></g>
<g fill="black" opacity=".8" transform="translate(400 700) scale(0.1 -0.1)"><path d="M0.0 0.0V-126.0H707.0V0.0ZM7.0 -238.0V-364.0H697.0V-238.0ZM110.0 -43.0V-320.0H272.0V-43.0ZM435.0 -43.0V-321.0H597.0V-43.0Z"/></g>
<g fill="red" transform="translate(500 700) scale(0.1 -0.1)"><path d="M0.0 0.0V-127.0H706.0V0.0ZM9.0 -235.0V-362.0H696.0V-235.0ZM108.0 -43.0V-321.0H269.0V-43.0ZM437.0 -43.0V-321.0H598.0V-43.0Z"/></g>
<g fill="black" opacity=".8" transform="translate(500 700) scale(0.1 -0.1)"><path d="M0.0 0.0V-126.0H707.0V0.0ZM7.0 -235.0V-361.0H696.0V-235.0ZM110.0 -43.0V-320.0H272.0V-43.0ZM435.0 -43.0V-321.0H597.0V-43.0Z"/></g>
<g fill="red" transform="translate(600 700) scale(0.1 -0.1)"><path d="M0.0 0.0V-120.0H706.0V0.0ZM5.0 -231.0V-351.0H692.0V-231.0ZM119.0 -57.0V-292.0H279.0V-57.0ZM429.0 -57.0V-292.0H590.0V-57.0Z"/></g>
<g fill="black" opacity=".8" transform="translate(600 700) scale(0.1 -0.1)"><path d="M0.0 0.0V-122.0H703.0V0.0ZM8.0 -230.0V-352.0H694.0V-230.0ZM111.0 -57.0V-291.0H270.0V-57.0ZM434.0 -57.0V-291.0H592.0V-57.0Z"/></g>
<g fill="red" transform="translate(700 700) scale(0.1 -0.1)"><path d="M0.0 0.0V-127.0H706.0V0.0ZM9.0 -239.0V-366.0H696.0V-239.0ZM108.0 -35.0V-313.0H269.0V-35.0ZM437.0 -35.0V-313.0H598.0V-35.0Z"/></g>
<g fill="black" opacity=".8" transform="translate(700 700) scale(0.1 -0.1)"><path d="M0.0 0.0V-126.0H707.0V0.0ZM8.0 -239.0V-365.0H697.0V-239.0ZM110.0 -35.0V-312.0H272.0V-35.0ZM435.0 -35.0V-313.0H597.0V-35.0Z"/></g>
<g fill="red" transform="translate(800 700) scale(0.1 -0.1)"><path d="M0.0 0.0V-128.0H706.0V0.0ZM6.0 -233.0V-360.0H693.0V-233.0ZM109.0 -36.0V-313.0H270.0V-36.0ZM438.0 -36.0V-313.0H599.0V-36.0Z"/></g>
<g fill="black" opacity=".8" transform="translate(800 700) scale(0.1 -0.1)"><path d="M0.0 0.0V-126.0H706.0V0.0ZM8.0 -233.0V-359.0H696.0V-233.0ZM110.0 -36.0V-313.0H272.0V-36.0ZM435.0 -36.0V-313.0H597.0V-36.0Z"/></g>
<g fill="red" transform="translate(900 700) scale(0.1 -0.1)"><path d="M0.0 0.0V-126.0H706.0V0.0ZM9.0 -238.0V-365.0H696.0V-238.0ZM108.0 -43.0V-321.0H269.0V-43.0ZM437.0 -43.0V-321.0H598.0V-43.0Z"/></g>
<g fill="black" opacity=".8" transform="translate(900 700) scale(0.1 -0.1)"><path d="M0.0 0.0V-126.0H707.0V0.0ZM7.0 -238.0V-364.0H697.0V-238.0ZM110.0 -43.0V-320.0H272.0V-43.0ZM435.0 -43.0V-321.0H597.0V-43.0Z"/></g>
<g fill="red" transform="translate(1000 700) scale(0.1 -0.1)"><path d="M0.0 0.0V-120.0H706.0V0.0ZM5.0 -203.0V-323.0H692.0V-203.0ZM119.0 -46.0V-282.0H279.0V-46.0ZM429.0 -46.0V-282.0H590.0V-46.0Z"/></g>
<g fill="black" opacity=".8" transform="translate(1000 700) scale(0.1 -0.1)"><path d="M0.0 0.0V-122.0H703.0V0.0ZM8.0 -203.0V-324.0H693.0V-203.0ZM110.0 -46.0V-281.0H269.0V-46.0ZM435.0 -46.0V-281.0H594.0V-46.0Z"/></g>
<g fill="red" transform="translate(1100 700) scale(0.1 -0.1)"><path d="M0.0 0.0V-126.0H538.0V0.0ZM12.0 -312.0V-438.0H527.0V-312.0ZM75.0 -66.0V-343.0H231.0V-66.0ZM308.0 -66.0V-343.0H464.0V-66.0Z"/></g>
<g fill="black" opacity=".8" transform="translate(1100 700) scale(0.1 -0.1)"><path d="M0.0 0.0V-127.0H537.0V0.0ZM7.0 -311.0V-439.0H530.0V-311.0ZM73.0 -66.0V-342.0H228.0V-66.0ZM309.0 -66.0V-342.0H464.0V-66.0Z"/></g>
<g fill="red" transform="translate(1200 700) scale(0.1 -0.1)"><path d="M0.0 0.0V-123.0H515.0V0.0ZM6.0 -219.0V-343.0H512.0V-219.0ZM70.0 -69.0V-286.0H225.0V-69.0ZM293.0 -69.0V-286.0H448.0V-69.0Z"/></g>
<g fill="black" opacity=".8" transform="translate(1200 700) scale(0.1 -0.1)"><path d="M0.0 0.0V-123.0H516.0V0.0ZM7.0 -220.0V-343.0H507.0V-220.0ZM64.0 -69.0V-285.0H220.0V-69.0ZM297.0 -69.0V-285.0H452.0V-69.0Z"/></g>
<g fill="red" transform="translate(1300 700) scale(0.1 -0.1)"><path d="M0.0 0.0V-123.0H515.0V0.0ZM6.0 -246.0V-369.0H512.0V-246.0ZM70.0 -89.0V-306.0H225.0V-89.0ZM293.0 -89.0V-306.0H448.0V-89.0Z"/></g>
<g fill="black" opacity=".8" transform="translate(1300 700) scale(0.1 -0.1)"><path d="M0.0 0.0V-123.0H517.0V0.0ZM8.0 -246.0V-370.0H508.0V-246.0ZM65.0 -89.0V-305.0H220.0V-89.0ZM297.0 -89.0V-305.0H451.0V-89.0Z"/></g>
<g fill="red" transform="translate(1400 700) scale(0.1 -0.1)"><path d="M0.0 0.0V-119.0H515.0V0.0ZM5.0 -199.0V-318.0H511.0V-199.0ZM70.0 -46.0V-263.0H225.0V-46.0ZM293.0 -46.0V-263.0H448.0V-46.0Z"/></g>
<g fill="black" opacity=".8" transform="translate(1400 700) scale(0.1 -0.1)"><path d="M0.0 0.0V-121.0H516.0V0.0ZM7.0 -198.0V-319.0H507.0V-198.0ZM65.0 -46.0V-262.0H218.0V-46.0ZM298.0 -46.0V-262.0H451.0V-46.0Z"/></g>
<g fill="red" transform="translate(1500 700) scale(0.1 -0.1)"><path d="M0.0 0.0V-118.0H515.0V0.0ZM5.0 -215.0V-334.0H511.0V-215.0ZM70.0 -45.0V-261.0H225.0V-45.0ZM293.0 -45.0V-261.0H448.0V-45.0Z"/></g>
<g fill="black" opacity=".8" transform="translate(1500 700) scale(0.1 -0.1)"><path d="M0.0 0.0V-120.0H516.0V0.0ZM8.0 -214.0V-335.0H508.0V-214.0ZM66.0 -45.0V-260.0H219.0V-45.0ZM298.0 -45.0V-260.0H450.0V-45.0Z"/></g>
<g fill="red" transform="translate(1600 700) scale(0.1 -0.1)"><path d="M0.0 0.0V-118.0H515.0V0.0ZM5.0 -219.0V-338.0H511.0V-219.0ZM70.0 -49.0V-265.0H225.0V-49.0ZM293.0 -49.0V-265.0H448.0V-49.0Z"/></g>
<g fill="black" opacity=".8" transform="translate(1600 700) scale(0.1 -0.1)"><path d="M0.0 0.0V-120.0H516.0V0.0ZM8.0 -218.0V-339.0H508.0V-218.0ZM66.0 -49.0V-264.0H219.0V-49.0ZM298.0 -49.0V-264.0H450.0V-49.0Z"/></g>
<g fill="red" transform="translate(100 800) scale(0.1 -0.1)"><path d="M0.0 0.0V-123.0H515.0V0.0ZM5.0 -219.0V-343.0H511.0V-219.0ZM70.0 -69.0V-286.0H225.0V-69.0ZM293.0 -69.0V-286.0H448.0V-69.0Z"/></g>
<g fill="black" opacity=".8" transform="translate(100 800) scale(0.1 -0.1)"><path d="M0.0 0.0V-123.0H516.0V0.0ZM7.0 -220.0V-343.0H507.0V-220.0ZM64.0 -69.0V-285.0H220.0V-69.0ZM297.0 -69.0V-285.0H452.0V-69.0Z"/></g>
<g fill="red" transform="translate(200 800) scale(0.1 -0.1)"><path d="M0.0 0.0V-123.0H525.0V0.0ZM9.0 -234.0V-357.0H515.0V-234.0ZM69.0 -65.0V-282.0H225.0V-65.0ZM300.0 -65.0V-282.0H456.0V-65.0Z"/></g>
<g fill="black" opacity=".8" transform="translate(200 800) scale(0.1 -0.1)"><path d="M0.0 0.0V-123.0H524.0V0.0ZM8.0 -233.0V-357.0H515.0V-233.0ZM67.0 -65.0V-281.0H223.0V-65.0ZM302.0 -65.0V-281.0H457.0V-65.0Z"/></g>
<g fill="red" transform="translate(300 800) scale(0.1 -0.1)"><path d="M0.0 0.0V-119.0H515.0V0.0ZM5.0 -207.0V-326.0H511.0V-207.0ZM70.0 -46.0V-263.0H225.0V-46.0ZM293.0 -46.0V-263.0H448.0V-46.0Z"/></g>
<g fill="black" opacity=".8" transform="translate(300 800) scale(0.1 -0.1)"><path d="M0.0 0.0V-121.0H516.0V0.0ZM7.0 -206.0V-327.0H507.0V-206.0ZM65.0 -46.0V-262.0H219.0V-46.0ZM298.0 -46.0V-262.0H451.0V-46.0Z"/></g>
<g fill="red" transform="translate(400 800) scale(0.1 -0.1)"><path d="M0.0 0.0V-119.0H515.0V0.0ZM5.0 -199.0V-318.0H511.0V-199.0ZM70.0 -46.0V-244.0H225.0V-46.0ZM293.0 -46.0V-244.0H448.0V-46.0Z"/></g>
<g fill="black" opacity=".8" transform="translate(400 800) scale(0.1 -0.1)"><path d="M0.0 0.0V-120.0H516.0V0.0ZM8.0 -198.0V-319.0H507.0V-198.0ZM66.0 -46.0V-243.0H219.0V-46.0ZM298.0 -46.0V-243.0H451.0V-46.0Z"/></g>
<g fill="red" transform="translate(500 800) scale(0.1 -0.1)"><path d="M0.0 0.0V-127.0H440.0V0.0ZM8.0 -294.0V-420.0H425.0V-294.0ZM49.0 -66.0V-343.0H190.0V-66.0ZM248.0 -66.0V-343.0H390.0V-66.0Z"/></g>
<g fill="black" opacity=".8" transform="translate(500 800) scale(0.1 -0.1)"><path d="M0.0 0.0V-122.0H438.0V0.0ZM6.0 -295.0V-418.0H431.0V-295.0ZM50.0 -66.0V-342.0H197.0V-66.0ZM242.0 -66.0V-343.0H388.0V-66.0Z"/></g>
<g fill="red" transform="translate(600 800) scale(0.1 -0.1)"><path d="M0.0 0.0V-123.0H417.0V0.0ZM2.0 -219.0V-343.0H410.0V-219.0ZM38.0 -69.0V-286.0H180.0V-69.0ZM237.0 -69.0V-286.0H379.0V-69.0Z"/></g>
<g fill="black" opacity=".8" transform="translate(600 800) scale(0.1 -0.1)"><path d="M0.0 0.0V-119.0H420.0V0.0ZM7.0 -220.0V-339.0H411.0V-220.0ZM43.0 -69.0V-286.0H190.0V-69.0ZM230.0 -69.0V-286.0H376.0V-69.0Z"/></g>
<g fill="red" transform="translate(700 800) scale(0.1 -0.1)"><path d="M0.0 0.0V-123.0H417.0V0.0ZM2.0 -246.0V-369.0H410.0V-246.0ZM38.0 -69.0V-286.0H180.0V-69.0ZM237.0 -69.0V-286.0H379.0V-69.0Z"/></g>
<g fill="black" opacity=".8" transform="translate(700 800) scale(0.1 -0.1)"><path d="M0.0 0.0V-119.0H420.0V0.0ZM7.0 -246.0V-366.0H412.0V-246.0ZM45.0 -69.0V-286.0H191.0V-69.0ZM229.0 -69.0V-286.0H375.0V-69.0Z"/></g>
<g fill="red" transform="translate(800 800) scale(0.1 -0.1)"><path d="M0.0 0.0V-119.0H417.0V0.0ZM4.0 -187.0V-306.0H412.0V-187.0ZM48.0 -50.0V-267.0H181.0V-50.0ZM235.0 -50.0V-267.0H368.0V-50.0Z"/></g>
<g fill="black" opacity=".8" transform="translate(800 800) scale(0.1 -0.1)"><path d="M0.0 0.0V-112.0H418.0V0.0ZM6.0 -190.0V-303.0H409.0V-190.0ZM45.0 -50.0V-266.0H185.0V-50.0ZM233.0 -50.0V-266.0H373.0V-50.0Z"/></g>
<g fill="red" transform="translate(900 800) scale(0.1 -0.1)"><path d="M0.0 0.0V-118.0H417.0V0.0ZM5.0 -217.0V-336.0H413.0V-217.0ZM49.0 -44.0V-261.0H182.0V-44.0ZM236.0 -44.0V-261.0H369.0V-44.0Z"/></g>
<g fill="black" opacity=".8" transform="translate(900 800) scale(0.1 -0.1)"><path d="M0.0 0.0V-112.0H419.0V0.0ZM6.0 -220.0V-332.0H411.0V-220.0ZM48.0 -44.0V-260.0H187.0V-44.0ZM232.0 -44.0V-261.0H371.0V-44.0Z"/></g>
<g fill="red" transform="translate(1000 800) scale(0.1 -0.1)"><path d="M0.0 0.0V-118.0H417.0V0.0ZM4.0 -219.0V-338.0H412.0V-219.0ZM48.0 -43.0V-260.0H181.0V-43.0ZM235.0 -43.0V-260.0H368.0V-43.0Z"/></g>
<g fill="black" opacity=".8" transform="translate(1000 800) scale(0.1 -0.1)"><path d="M0.0 0.0V-112.0H418.0V0.0ZM6.0 -221.0V-334.0H410.0V-221.0ZM48.0 -43.0V-259.0H187.0V-43.0ZM232.0 -43.0V-260.0H371.0V-43.0Z"/></g>
<g fill="red" transform="translate(1100 800) scale(0.1 -0.1)"><path d="M0.0 0.0V-123.0H417.0V0.0ZM2.0 -212.0V-335.0H410.0V-212.0ZM38.0 -69.0V-286.0H180.0V-69.0ZM237.0 -69.0V-286.0H379.0V-69.0Z"/></g>
<g fill="black" opacity=".8" transform="translate(1100 800) scale(0.1 -0.1)"><path d="M0.0 0.0V-118.0H420.0V0.0ZM6.0 -213.0V-332.0H411.0V-213.0ZM43.0 -69.0V-286.0H189.0V-69.0ZM230.0 -69.0V-286.0H377.0V-69.0Z"/></g>
<g fill="red" transform="translate(1200 800) scale(0.1 -0.1)"><path d="M0.0 0.0V-126.0H552.0V0.0ZM10.0 -312.0V-438.0H543.0V-312.0ZM78.0 -66.0V-343.0H234.0V-66.0ZM318.0 -66.0V-343.0H473.0V-66.0Z"/></g>
<g fill="black" opacity=".8" transform="translate(1200 800) scale(0.1 -0.1)"><path d="M0.0 0.0V-126.0H551.0V0.0ZM7.0 -311.0V-438.0H544.0V-311.0ZM76.0 -66.0V-342.0H232.0V-66.0ZM320.0 -66.0V-342.0H474.0V-66.0Z"/></g>
<g fill="red" transform="translate(1300 800) scale(0.1 -0.1)"><path d="M0.0 0.0V-123.0H524.0V0.0ZM5.0 -212.0V-336.0H519.0V-212.0ZM68.0 -65.0V-282.0H223.0V-65.0ZM301.0 -65.0V-282.0H456.0V-65.0Z"/></g>
<g fill="black" opacity=".8" transform="translate(1300 800) scale(0.1 -0.1)"><path d="M0.0 0.0V-123.0H525.0V0.0ZM7.0 -213.0V-335.0H515.0V-213.0ZM66.0 -65.0V-281.0H222.0V-65.0ZM304.0 -65.0V-281.0H459.0V-65.0Z"/></g>
<g fill="red" transform="translate(1400 800) scale(0.1 -0.1)"><path d="M0.0 0.0V-123.0H524.0V0.0ZM9.0 -246.0V-370.0H514.0V-246.0ZM68.0 -65.0V-282.0H224.0V-65.0ZM300.0 -65.0V-282.0H456.0V-65.0Z"/></g>
<g fill="black" opacity=".8" transform="translate(1400 800) scale(0.1 -0.1)"><path d="M0.0 0.0V-124.0H523.0V0.0ZM8.0 -245.0V-370.0H515.0V-245.0ZM68.0 -65.0V-281.0H223.0V-65.0ZM301.0 -65.0V-281.0H456.0V-65.0Z"/></g>
<g fill="red" transform="translate(1500 800) scale(0.1 -0.1)"><path d="M0.0 0.0V-119.0H524.0V0.0ZM5.0 -187.0V-306.0H519.0V-187.0ZM68.0 -36.0V-253.0H223.0V-36.0ZM301.0 -36.0V-253.0H456.0V-36.0Z"/></g>
<g fill="black" opacity=".8" transform="translate(1500 800) scale(0.1 -0.1)"><path d="M0.0 0.0V-120.0H525.0V0.0ZM7.0 -186.0V-306.0H515.0V-186.0ZM67.0 -36.0V-252.0H220.0V-36.0ZM305.0 -36.0V-252.0H458.0V-36.0Z"/></g>
<g fill="red" transform="translate(1600 800) scale(0.1 -0.1)"><path d="M0.0 0.0V-118.0H524.0V0.0ZM5.0 -215.0V-334.0H519.0V-215.0ZM68.0 -56.0V-272.0H223.0V-56.0ZM301.0 -56.0V-272.0H456.0V-56.0Z"/></g>
<g fill="black" opacity=".8" transform="translate(1600 800) scale(0.1 -0.1)"><path d="M0.0 0.0V-120.0H525.0V0.0ZM7.0 -214.0V-335.0H516.0V-214.0ZM68.0 -56.0V-271.0H220.0V-56.0ZM305.0 -56.0V-271.0H457.0V-56.0Z"/></g>
<g fill="red" transform="translate(100 900) scale(0.1 -0.1)"><path d="M0.0 0.0V-118.0H524.0V0.0ZM5.0 -215.0V-334.0H519.0V-215.0ZM68.0 -36.0V-253.0H223.0V-36.0ZM301.0 -36.0V-253.0H456.0V-36.0Z"/></g>
<g fill="black" opacity=".8" transform="translate(100 900) scale(0.1 -0.1)"><path d="M0.0 0.0V-120.0H525.0V0.0ZM8.0 -214.0V-334.0H516.0V-214.0ZM69.0 -36.0V-252.0H221.0V-36.0ZM304.0 -36.0V-252.0H456.0V-36.0Z"/></g>
<g fill="red" transform="translate(200 900) scale(0.1 -0.1)"><path d="M0.0 0.0V-128.0H725.0V0.0ZM6.0 -369.0V-495.0H721.0V-369.0ZM118.0 -107.0V-384.0H279.0V-107.0ZM446.0 -107.0V-384.0H607.0V-107.0Z"/></g>
<g fill="black" opacity=".8" transform="translate(200 900) scale(0.1 -0.1)"><path d="M0.0 0.0V-128.0H726.0V0.0ZM9.0 -367.0V-496.0H720.0V-367.0ZM121.0 -107.0V-383.0H281.0V-107.0ZM446.0 -107.0V-384.0H605.0V-107.0Z"/></g>
<g fill="red" transform="translate(300 900) scale(0.1 -0.1)"><path d="M0.0 0.0V-127.0H706.0V0.0ZM9.0 -245.0V-371.0H696.0V-245.0ZM108.0 -37.0V-315.0H269.0V-37.0ZM437.0 -37.0V-315.0H598.0V-37.0Z"/></g>
<g fill="black" opacity=".8" transform="translate(300 900) scale(0.1 -0.1)"><path d="M0.0 0.0V-126.0H707.0V0.0ZM8.0 -244.0V-370.0H697.0V-244.0ZM111.0 -37.0V-314.0H272.0V-37.0ZM435.0 -37.0V-315.0H596.0V-37.0Z"/></g>
<g fill="red" transform="translate(400 900) scale(0.1 -0.1)"><path d="M0.0 0.0V-127.0H706.0V0.0ZM9.0 -224.0V-351.0H696.0V-224.0ZM108.0 -37.0V-315.0H269.0V-37.0ZM437.0 -37.0V-315.0H598.0V-37.0Z"/></g>
<g fill="black" opacity=".8" transform="translate(400 900) scale(0.1 -0.1)"><path d="M0.0 0.0V-126.0H707.0V0.0ZM7.0 -224.0V-350.0H696.0V-224.0ZM109.0 -37.0V-314.0H271.0V-37.0ZM436.0 -37.0V-315.0H598.0V-37.0Z"/></g>
<g fill="red" transform="translate(500 900) scale(0.1 -0.1)"><path d="M0.0 0.0V-126.0H706.0V0.0ZM9.0 -253.0V-379.0H696.0V-253.0ZM108.0 -46.0V-323.0H269.0V-46.0ZM437.0 -46.0V-323.0H598.0V-46.0Z"/></g>
<g fill="black" opacity=".8" transform="translate(500 900) scale(0.1 -0.1)"><path d="M0.0 0.0V-126.0H707.0V0.0ZM8.0 -252.0V-378.0H697.0V-252.0ZM111.0 -46.0V-322.0H272.0V-46.0ZM435.0 -46.0V-323.0H596.0V-46.0Z"/></g>
<g fill="red" transform="translate(600 900) scale(0.1 -0.1)"><path d="M0.0 0.0V-127.0H706.0V0.0ZM8.0 -218.0V-344.0H695.0V-218.0ZM108.0 -39.0V-274.0H269.0V-39.0ZM437.0 -39.0V-274.0H598.0V-39.0Z"/></g>
<g fill="black" opacity=".8" transform="translate(600 900) scale(0.1 -0.1)"><path d="M0.0 0.0V-125.0H706.0V0.0ZM8.0 -218.0V-343.0H697.0V-218.0ZM110.0 -39.0V-273.0H273.0V-39.0ZM434.0 -39.0V-274.0H596.0V-39.0Z"/></g>
<g fill="red" transform="translate(700 900) scale(0.1 -0.1)"><path d="M0.0 0.0V-127.0H706.0V0.0ZM9.0 -222.0V-349.0H696.0V-222.0ZM108.0 -37.0V-272.0H269.0V-37.0ZM437.0 -37.0V-272.0H598.0V-37.0Z"/></g>
<g fill="black" opacity=".8" transform="translate(700 900) scale(0.1 -0.1)"><path d="M0.0 0.0V-125.0H706.0V0.0ZM9.0 -222.0V-347.0H697.0V-222.0ZM111.0 -37.0V-271.0H274.0V-37.0ZM434.0 -37.0V-272.0H596.0V-37.0Z"/></g>
<g fill="red" transform="translate(800 900) scale(0.1 -0.1)"><path d="M0.0 0.0V-119.0H706.0V0.0ZM9.0 -203.0V-322.0H696.0V-203.0ZM108.0 -47.0V-254.0H269.0V-47.0ZM437.0 -47.0V-254.0H598.0V-47.0Z"/></g>
<g fill="black" opacity=".8" transform="translate(800 900) scale(0.1 -0.1)"><path d="M0.0 0.0V-121.0H706.0V0.0ZM9.0 -201.0V-322.0H697.0V-201.0ZM112.0 -47.0V-253.0H271.0V-47.0ZM436.0 -47.0V-254.0H595.0V-47.0Z"/></g>
<g fill="red" transform="translate(900 900) scale(0.1 -0.1)"><path d="M0.0 0.0V-120.0H706.0V0.0ZM9.0 -194.0V-311.0H696.0V-194.0ZM108.0 -18.0V-253.0H269.0V-18.0ZM437.0 -18.0V-253.0H598.0V-18.0Z"/></g>
<g fill="black" opacity=".8" transform="translate(900 900) scale(0.1 -0.1)"><path d="M0.0 0.0V-121.0H706.0V0.0ZM8.0 -191.0V-312.0H697.0V-191.0ZM111.0 -18.0V-252.0H270.0V-18.0ZM437.0 -18.0V-253.0H596.0V-18.0Z"/></g>
<g fill="red" transform="translate(1000 900) scale(0.1 -0.1)"><path d="M0.0 0.0V-127.0H706.0V0.0ZM9.0 -234.0V-360.0H696.0V-234.0ZM108.0 -43.0V-279.0H269.0V-43.0ZM437.0 -43.0V-279.0H598.0V-43.0Z"/></g>
<g fill="black" opacity=".8" transform="translate(1000 900) scale(0.1 -0.1)"><path d="M0.0 0.0V-125.0H706.0V0.0ZM9.0 -234.0V-359.0H697.0V-234.0ZM111.0 -43.0V-278.0H274.0V-43.0ZM434.0 -43.0V-279.0H596.0V-43.0Z"/></g>
<g fill="red" transform="translate(1100 900) scale(0.1 -0.1)"><path d="M0.0 0.0V-120.0H706.0V0.0ZM5.0 -235.0V-352.0H692.0V-235.0ZM105.0 -18.0V-253.0H266.0V-18.0ZM434.0 -18.0V-253.0H595.0V-18.0Z"/></g>
<g fill="black" opacity=".8" transform="translate(1100 900) scale(0.1 -0.1)"><path d="M0.0 0.0V-121.0H703.0V0.0ZM9.0 -231.0V-353.0H695.0V-231.0ZM114.0 -18.0V-253.0H272.0V-18.0ZM433.0 -18.0V-253.0H590.0V-18.0Z"/></g>
<g fill="red" transform="translate(1200 900) scale(0.1 -0.1)"><path d="M0.0 0.0V-127.0H706.0V0.0ZM9.0 -236.0V-363.0H696.0V-236.0ZM108.0 -33.0V-311.0H269.0V-33.0ZM437.0 -33.0V-311.0H598.0V-33.0Z"/></g>
<g fill="black" opacity=".8" transform="translate(1200 900) scale(0.1 -0.1)"><path d="M0.0 0.0V-126.0H707.0V0.0ZM8.0 -236.0V-362.0H697.0V-236.0ZM110.0 -33.0V-310.0H272.0V-33.0ZM435.0 -33.0V-311.0H597.0V-33.0Z"/></g>
<g fill="red" transform="translate(1300 900) scale(0.1 -0.1)"><path d="M0.0 0.0V-127.0H706.0V0.0ZM9.0 -315.0V-442.0H696.0V-315.0ZM108.0 -105.0V-382.0H269.0V-105.0ZM437.0 -105.0V-382.0H598.0V-105.0Z"/></g>
<g fill="black" opacity=".8" transform="translate(1300 900) scale(0.1 -0.1)"><path d="M0.0 0.0V-128.0H707.0V0.0ZM8.0 -314.0V-442.0H698.0V-314.0ZM113.0 -105.0V-381.0H273.0V-105.0ZM435.0 -105.0V-382.0H594.0V-105.0Z"/></g>
<g fill="red" transform="translate(1400 900) scale(0.1 -0.1)"><path d="M0.0 0.0V-128.0H706.0V0.0ZM6.0 -228.0V-354.0H693.0V-228.0ZM106.0 -48.0V-326.0H267.0V-48.0ZM435.0 -48.0V-326.0H596.0V-48.0Z"/></g>
<g fill="black" opacity=".8" transform="translate(1400 900) scale(0.1 -0.1)"><path d="M0.0 0.0V-126.0H704.0V0.0ZM7.0 -227.0V-354.0H694.0V-227.0ZM108.0 -48.0V-325.0H271.0V-48.0ZM434.0 -48.0V-326.0H596.0V-48.0Z"/></g>
<g fill="red" transform="translate(1500 900) scale(0.1 -0.1)"><path d="M0.0 0.0V-128.0H706.0V0.0ZM5.0 -228.0V-354.0H692.0V-228.0ZM108.0 -46.0V-324.0H269.0V-46.0ZM437.0 -46.0V-324.0H598.0V-46.0Z"/></g>
<g fill="black" opacity=".8" transform="translate(1500 900) scale(0.1 -0.1)"><path d="M0.0 0.0V-126.0H705.0V0.0ZM7.0 -227.0V-354.0H695.0V-227.0ZM109.0 -46.0V-324.0H271.0V-46.0ZM435.0 -46.0V-324.0H597.0V-46.0Z"/></g>
<g fill="red" transform="translate(1600 900) scale(0.1 -0.1)"><path d="M0.0 0.0V-126.0H706.0V0.0ZM9.0 -263.0V-389.0H696.0V-263.0ZM108.0 -41.0V-319.0H269.0V-41.0ZM437.0 -41.0V-319.0H598.0V-41.0Z"/></g>
<g fill="black" opacity=".8" transform="translate(1600 900) scale(0.1 -0.1)"><path d="M0.0 0.0V-126.0H707.0V0.0ZM8.0 -262.0V-388.0H698.0V-262.0ZM112.0 -41.0V-318.0H273.0V-41.0ZM434.0 -41.0V-319.0H595.0V-41.0Z"/></g>
<g fill="red" transform="translate(100 1000) scale(0.1 -0.1)"><path d="M0.0 0.0V-128.0H706.0V0.0ZM6.0 -228.0V-354.0H693.0V-228.0ZM105.0 -46.0V-324.0H266.0V-46.0ZM434.0 -46.0V-324.0H595.0V-46.0Z"/></g>
<g fill="black" opacity=".8" transform="translate(100 1000) scale(0.1 -0.1)"><path d="M0.0 0.0V-126.0H704.0V0.0ZM7.0 -227.0V-353.0H693.0V-227.0ZM108.0 -46.0V-324.0H270.0V-46.0ZM434.0 -46.0V-324.0H596.0V-46.0Z"/></g>
<g fill="red" transform="translate(200 1000) scale(0.1 -0.1)"><path d="M0.0 0.0V-127.0H706.0V0.0ZM9.0 -243.0V-370.0H696.0V-243.0ZM108.0 -48.0V-326.0H269.0V-48.0ZM437.0 -48.0V-326.0H598.0V-48.0Z"/></g>
<g fill="black" opacity=".8" transform="translate(200 1000) scale(0.1 -0.1)"><path d="M0.0 0.0V-126.0H707.0V0.0ZM7.0 -243.0V-369.0H697.0V-243.0ZM110.0 -48.0V-325.0H272.0V-48.0ZM435.0 -48.0V-326.0H597.0V-48.0Z"/></g>
<g fill="red" transform="translate(300 1000) scale(0.1 -0.1)"><path d="M0.0 0.0V-119.0H706.0V0.0ZM9.0 -201.0V-320.0H696.0V-201.0ZM108.0 -47.0V-282.0H269.0V-47.0ZM437.0 -47.0V-282.0H598.0V-47.0Z"/></g>
<g fill="black" opacity=".8" transform="translate(300 1000) scale(0.1 -0.1)"><path d="M0.0 0.0V-121.0H706.0V0.0ZM8.0 -200.0V-320.0H696.0V-200.0ZM111.0 -47.0V-281.0H269.0V-47.0ZM438.0 -47.0V-282.0H596.0V-47.0Z"/></g>
<g fill="red" transform="translate(400 1000) scale(0.1 -0.1)"><path d="M0.0 0.0V-119.0H706.0V0.0ZM5.0 -198.0V-317.0H692.0V-198.0ZM105.0 -57.0V-292.0H266.0V-57.0ZM434.0 -57.0V-292.0H595.0V-57.0Z"/></g>
<g fill="black" opacity=".8" transform="translate(400 1000) scale(0.1 -0.1)"><path d="M0.0 0.0V-121.0H703.0V0.0ZM8.0 -197.0V-317.0H692.0V-197.0ZM109.0 -57.0V-291.0H268.0V-57.0ZM436.0 -57.0V-292.0H594.0V-57.0Z"/></g>
<g fill="red" transform="translate(500 1000) scale(0.1 -0.1)"><path d="M0.0 0.0V-119.0H706.0V0.0ZM9.0 -204.0V-323.0H696.0V-204.0ZM108.0 -46.0V-281.0H269.0V-46.0ZM437.0 -46.0V-281.0H598.0V-46.0Z"/></g>
<g fill="black" opacity=".8" transform="translate(500 1000) scale(0.1 -0.1)"><path d="M0.0 0.0V-121.0H706.0V0.0ZM8.0 -202.0V-323.0H696.0V-202.0ZM111.0 -46.0V-280.0H269.0V-46.0ZM438.0 -46.0V-281.0H596.0V-46.0Z"/></g>
<g fill="red" transform="translate(600 1000) scale(0.1 -0.1)"><path d="M0.0 0.0V-127.0H706.0V0.0ZM9.0 -232.0V-359.0H696.0V-232.0ZM108.0 -43.0V-321.0H269.0V-43.0ZM437.0 -43.0V-321.0H598.0V-43.0Z"/></g>
<g fill="black" opacity=".8" transform="translate(600 1000) scale(0.1 -0.1)"><path d="M0.0 0.0V-126.0H707.0V0.0ZM7.0 -232.0V-358.0H696.0V-232.0ZM109.0 -43.0V-320.0H272.0V-43.0ZM435.0 -43.0V-321.0H597.0V-43.0Z"/></g>
<g fill="red" transform="translate(700 1000) scale(0.1 -0.1)"><path d="M0.0 0.0V-119.0H706.0V0.0ZM5.0 -235.0V-354.0H692.0V-235.0ZM105.0 -57.0V-292.0H266.0V-57.0ZM434.0 -58.0V-293.0H595.0V-58.0Z"/></g>
<g fill="black" opacity=".8" transform="translate(700 1000) scale(0.1 -0.1)"><path d="M0.0 0.0V-122.0H703.0V0.0ZM8.0 -233.0V-354.0H694.0V-233.0ZM112.0 -57.0V-292.0H270.0V-57.0ZM435.0 -57.0V-292.0H592.0V-57.0Z"/></g>
<g fill="red" transform="translate(800 1000) scale(0.1 -0.1)"><path d="M0.0 0.0V-126.0H706.0V0.0ZM9.0 -236.0V-363.0H696.0V-236.0ZM108.0 -43.0V-321.0H269.0V-43.0ZM437.0 -43.0V-321.0H598.0V-43.0Z"/></g>
<g fill="black" opacity=".8" transform="translate(800 1000) scale(0.1 -0.1)"><path d="M0.0 0.0V-126.0H707.0V0.0ZM7.0 -236.0V-362.0H697.0V-236.0ZM110.0 -43.0V-320.0H272.0V-43.0ZM436.0 -43.0V-321.0H597.0V-43.0Z"/></g>
<g fill="red" transform="translate(900 1000) scale(0.1 -0.1)"><path d="M0.0 0.0V-128.0H706.0V0.0ZM6.0 -228.0V-354.0H693.0V-228.0ZM108.0 -46.0V-324.0H269.0V-46.0ZM437.0 -46.0V-324.0H598.0V-46.0Z"/></g>
<g fill="black" opacity=".8" transform="translate(900 1000) scale(0.1 -0.1)"><path d="M0.0 0.0V-126.0H706.0V0.0ZM7.0 -227.0V-354.0H695.0V-227.0ZM109.0 -46.0V-323.0H271.0V-46.0ZM435.0 -46.0V-324.0H597.0V-46.0Z"/></g>
<g fill="red" transform="translate(1000 1000) scale(0.1 -0.1)"><path d="M0.0 0.0V-128.0H706.0V0.0ZM4.0 -228.0V-354.0H691.0V-228.0ZM108.0 -46.0V-324.0H269.0V-46.0ZM437.0 -46.0V-324.0H598.0V-46.0Z"/></g>
<g fill="black" opacity=".8" transform="translate(1000 1000) scale(0.1 -0.1)"><path d="M0.0 0.0V-126.0H705.0V0.0ZM7.0 -227.0V-353.0H694.0V-227.0ZM108.0 -46.0V-324.0H271.0V-46.0ZM435.0 -46.0V-324.0H597.0V-46.0Z"/></g>
<g fill="red" transform="translate(1100 1000) scale(0.1 -0.1)"><path d="M0.0 0.0V-127.0H538.0V0.0ZM12.0 -278.0V-404.0H526.0V-278.0ZM78.0 -65.0V-343.0H234.0V-65.0ZM304.0 -65.0V-343.0H459.0V-65.0Z"/></g>
<g fill="black" opacity=".8" transform="translate(1100 1000) scale(0.1 -0.1)"><path d="M0.0 0.0V-127.0H535.0V0.0ZM7.0 -278.0V-405.0H526.0V-278.0ZM70.0 -65.0V-341.0H226.0V-65.0ZM309.0 -65.0V-342.0H465.0V-65.0Z"/></g>
<g fill="red" transform="translate(1200 1000) scale(0.1 -0.1)"><path d="M0.0 0.0V-119.0H514.0V0.0ZM3.0 -181.0V-300.0H512.0V-181.0ZM68.0 -56.0V-273.0H223.0V-56.0ZM301.0 -56.0V-273.0H455.0V-56.0Z"/></g>
<g fill="black" opacity=".8" transform="translate(1200 1000) scale(0.1 -0.1)"><path d="M0.0 0.0V-120.0H519.0V0.0ZM7.0 -181.0V-300.0H509.0V-181.0ZM64.0 -56.0V-272.0H217.0V-56.0ZM302.0 -56.0V-272.0H455.0V-56.0Z"/></g>
<g fill="red" transform="translate(1300 1000) scale(0.1 -0.1)"><path d="M0.0 0.0V-119.0H514.0V0.0ZM3.0 -216.0V-334.0H512.0V-216.0ZM68.0 -66.0V-282.0H223.0V-66.0ZM301.0 -66.0V-282.0H455.0V-66.0Z"/></g>
<g fill="black" opacity=".8" transform="translate(1300 1000) scale(0.1 -0.1)"><path d="M0.0 0.0V-120.0H519.0V0.0ZM7.0 -214.0V-335.0H510.0V-214.0ZM66.0 -66.0V-281.0H218.0V-66.0ZM301.0 -66.0V-281.0H453.0V-66.0Z"/></g>
<g fill="red" transform="translate(1400 1000) scale(0.1 -0.1)"><path d="M0.0 0.0V-116.0H514.0V0.0ZM5.0 -160.0V-276.0H514.0V-160.0ZM68.0 -37.0V-253.0H223.0V-37.0ZM301.0 -37.0V-253.0H455.0V-37.0Z"/></g>
<g fill="black" opacity=".8" transform="translate(1400 1000) scale(0.1 -0.1)"><path d="M0.0 0.0V-118.0H520.0V0.0ZM7.0 -159.0V-277.0H509.0V-159.0ZM64.0 -37.0V-252.0H216.0V-37.0ZM304.0 -37.0V-252.0H456.0V-37.0Z"/></g>
<g fill="red" transform="translate(1500 1000) scale(0.1 -0.1)"><path d="M0.0 0.0V-116.0H514.0V0.0ZM5.0 -183.0V-299.0H514.0V-183.0ZM68.0 -27.0V-243.0H223.0V-27.0ZM301.0 -27.0V-243.0H455.0V-27.0Z"/></g>
<g fill="black" opacity=".8" transform="translate(1500 1000) scale(0.1 -0.1)"><path d="M0.0 0.0V-118.0H520.0V0.0ZM7.0 -181.0V-300.0H510.0V-181.0ZM66.0 -27.0V-242.0H218.0V-27.0ZM302.0 -27.0V-242.0H454.0V-27.0Z"/></g>
<g fill="red" transform="translate(1600 1000) scale(0.1 -0.1)"><path d="M0.0 0.0V-116.0H514.0V0.0ZM5.0 -185.0V-301.0H514.0V-185.0ZM68.0 -28.0V-244.0H223.0V-28.0ZM301.0 -28.0V-244.0H455.0V-28.0Z"/></g>
<g fill="black" opacity=".8" transform="translate(1600 1000) scale(0.1 -0.1)"><path d="M0.0 0.0V-118.0H520.0V0.0ZM7.0 -183.0V-302.0H510.0V-183.0ZM67.0 -28.0V-243.0H218.0V-28.0ZM302.0 -28.0V-243.0H454.0V-28.0Z"/></g>
<g fill="red" transform="translate(100 1100) scale(0.1 -0.1)"><path d="M0.0 0.0V-119.0H524.0V0.0ZM9.0 -204.0V-322.0H514.0V-204.0ZM68.0 -56.0V-273.0H223.0V-56.0ZM301.0 -56.0V-273.0H456.0V-56.0Z"/></g>
<g fill="black" opacity=".8" transform="translate(100 1100) scale(0.1 -0.1)"><path d="M0.0 0.0V-121.0H523.0V0.0ZM7.0 -203.0V-323.0H514.0V-203.0ZM66.0 -56.0V-272.0H220.0V-56.0ZM304.0 -56.0V-272.0H457.0V-56.0Z"/></g>
<g fill="red" transform="translate(200 1100) scale(0.1 -0.1)"><path d="M0.0 0.0V-127.0H432.0V0.0ZM7.0 -275.0V-403.0H420.0V-275.0ZM41.0 -70.0V-348.0H188.0V-70.0ZM244.0 -70.0V-348.0H391.0V-70.0Z"/></g>
<g fill="black" opacity=".8" transform="translate(200 1100) scale(0.1 -0.1)"><path d="M0.0 0.0V-124.0H433.0V0.0ZM6.0 -275.0V-400.0H425.0V-275.0ZM46.0 -70.0V-348.0H196.0V-70.0ZM237.0 -70.0V-348.0H387.0V-70.0Z"/></g>
<g fill="red" transform="translate(300 1100) scale(0.1 -0.1)"><path d="M0.0 0.0V-119.0H422.0V0.0ZM6.0 -180.0V-299.0H414.0V-180.0ZM39.0 -56.0V-272.0H186.0V-56.0ZM234.0 -56.0V-272.0H381.0V-56.0Z"/></g>
<g fill="black" opacity=".8" transform="translate(300 1100) scale(0.1 -0.1)"><path d="M0.0 0.0V-118.0H423.0V0.0ZM6.0 -180.0V-298.0H413.0V-180.0ZM42.0 -56.0V-271.0H189.0V-56.0ZM233.0 -56.0V-272.0H381.0V-56.0Z"/></g>
<g fill="red" transform="translate(400 1100) scale(0.1 -0.1)"><path d="M0.0 0.0V-118.0H422.0V0.0ZM6.0 -215.0V-334.0H414.0V-215.0ZM39.0 -46.0V-262.0H186.0V-46.0ZM234.0 -46.0V-262.0H381.0V-46.0Z"/></g>
<g fill="black" opacity=".8" transform="translate(400 1100) scale(0.1 -0.1)"><path d="M0.0 0.0V-118.0H423.0V0.0ZM7.0 -214.0V-333.0H415.0V-214.0ZM45.0 -46.0V-261.0H192.0V-46.0ZM232.0 -46.0V-262.0H378.0V-46.0Z"/></g>
<g fill="red" transform="translate(500 1100) scale(0.1 -0.1)"><path d="M0.0 0.0V-111.0H422.0V0.0ZM5.0 -166.0V-277.0H413.0V-166.0ZM44.0 -35.0V-252.0H185.0V-35.0ZM235.0 -35.0V-252.0H377.0V-35.0Z"/></g>
<g fill="black" opacity=".8" transform="translate(500 1100) scale(0.1 -0.1)"><path d="M0.0 0.0V-112.0H422.0V0.0ZM6.0 -165.0V-277.0H412.0V-165.0ZM45.0 -35.0V-251.0H185.0V-35.0ZM237.0 -35.0V-251.0H377.0V-35.0Z"/></g>
<g fill="red" transform="translate(600 1100) scale(0.1 -0.1)"><path d="M0.0 0.0V-111.0H422.0V0.0ZM5.0 -189.0V-300.0H413.0V-189.0ZM44.0 -35.0V-252.0H185.0V-35.0ZM235.0 -35.0V-252.0H377.0V-35.0Z"/></g>
<g fill="black" opacity=".8" transform="translate(600 1100) scale(0.1 -0.1)"><path d="M0.0 0.0V-112.0H422.0V0.0ZM6.0 -188.0V-300.0H413.0V-188.0ZM46.0 -35.0V-251.0H186.0V-35.0ZM236.0 -35.0V-251.0H376.0V-35.0Z"/></g>
<g fill="red" transform="translate(700 1100) scale(0.1 -0.1)"><path d="M0.0 0.0V-119.0H422.0V0.0ZM6.0 -176.0V-295.0H414.0V-176.0ZM39.0 -52.0V-269.0H186.0V-52.0ZM234.0 -52.0V-269.0H381.0V-52.0Z"/></g>
<g fill="black" opacity=".8" transform="translate(700 1100) scale(0.1 -0.1)"><path d="M0.0 0.0V-118.0H423.0V0.0ZM6.0 -176.0V-294.0H413.0V-176.0ZM41.0 -52.0V-268.0H189.0V-52.0ZM233.0 -52.0V-269.0H381.0V-52.0Z"/></g>
<g fill="red" transform="translate(800 1100) scale(0.1 -0.1)"><path d="M0.0 0.0V-111.0H422.0V0.0ZM5.0 -156.0V-267.0H413.0V-156.0ZM44.0 -35.0V-252.0H185.0V-35.0ZM235.0 -35.0V-252.0H377.0V-35.0Z"/></g>
<g fill="black" opacity=".8" transform="translate(800 1100) scale(0.1 -0.1)"><path d="M0.0 0.0V-112.0H422.0V0.0ZM6.0 -155.0V-267.0H412.0V-155.0ZM44.0 -35.0V-251.0H185.0V-35.0ZM237.0 -35.0V-251.0H378.0V-35.0Z"/></g>
<g fill="red" transform="translate(900 1100) scale(0.1 -0.1)"><path d="M0.0 0.0V-123.0H524.0V0.0ZM8.0 -232.0V-354.0H514.0V-232.0ZM68.0 -66.0V-282.0H223.0V-66.0ZM300.0 -66.0V-282.0H455.0V-66.0Z"/></g>
<g fill="black" opacity=".8" transform="translate(900 1100) scale(0.1 -0.1)"><path d="M0.0 0.0V-123.0H523.0V0.0ZM8.0 -231.0V-354.0H514.0V-231.0ZM67.0 -66.0V-281.0H222.0V-66.0ZM302.0 -66.0V-281.0H456.0V-66.0Z"/></g>
<g fill="red" transform="translate(1000 1100) scale(0.1 -0.1)"><path d="M0.0 0.0V-123.0H524.0V0.0ZM8.0 -241.0V-362.0H514.0V-241.0ZM68.0 -65.0V-282.0H224.0V-65.0ZM300.0 -65.0V-282.0H455.0V-65.0Z"/></g>
<g fill="black" opacity=".8" transform="translate(1000 1100) scale(0.1 -0.1)"><path d="M0.0 0.0V-123.0H523.0V0.0ZM8.0 -239.0V-363.0H515.0V-239.0ZM68.0 -65.0V-281.0H222.0V-65.0ZM301.0 -65.0V-281.0H456.0V-65.0Z"/></g>
<g fill="red" transform="translate(1100 1100) scale(0.1 -0.1)"><path d="M0.0 0.0V-123.0H524.0V0.0ZM8.0 -222.0V-344.0H514.0V-222.0ZM68.0 -66.0V-282.0H223.0V-66.0ZM300.0 -66.0V-282.0H455.0V-66.0Z"/></g>
<g fill="black" opacity=".8" transform="translate(1100 1100) scale(0.1 -0.1)"><path d="M0.0 0.0V-123.0H523.0V0.0ZM8.0 -221.0V-344.0H514.0V-221.0ZM66.0 -66.0V-281.0H221.0V-66.0ZM302.0 -66.0V-281.0H457.0V-66.0Z"/></g>
<g fill="red" transform="translate(1200 1100) scale(0.1 -0.1)"><path d="M0.0 0.0V-116.0H524.0V0.0ZM8.0 -195.0V-311.0H514.0V-195.0ZM68.0 -53.0V-270.0H224.0V-53.0ZM300.0 -53.0V-270.0H455.0V-53.0Z"/></g>
<g fill="black" opacity=".8" transform="translate(1200 1100) scale(0.1 -0.1)"><path d="M0.0 0.0V-119.0H523.0V0.0ZM7.0 -193.0V-313.0H513.0V-193.0ZM66.0 -53.0V-269.0H218.0V-53.0ZM305.0 -53.0V-269.0H456.0V-53.0Z"/></g>
<g fill="red" transform="translate(1300 1100) scale(0.1 -0.1)"><path d="M0.0 0.0V-116.0H524.0V0.0ZM8.0 -195.0V-310.0H514.0V-195.0ZM68.0 -53.0V-270.0H223.0V-53.0ZM300.0 -53.0V-270.0H455.0V-53.0Z"/></g>
<g fill="black" opacity=".8" transform="translate(1300 1100) scale(0.1 -0.1)"><path d="M0.0 0.0V-119.0H523.0V0.0ZM7.0 -193.0V-312.0H513.0V-193.0ZM67.0 -53.0V-269.0H218.0V-53.0ZM305.0 -53.0V-269.0H456.0V-53.0Z"/></g>
<g fill="red" transform="translate(1400 1100) scale(0.1 -0.1)"><path d="M0.0 0.0V-123.0H524.0V0.0ZM8.0 -232.0V-354.0H514.0V-232.0ZM68.0 -66.0V-282.0H224.0V-66.0ZM300.0 -66.0V-282.0H455.0V-66.0Z"/></g>
<g fill="black" opacity=".8" transform="translate(1400 1100) scale(0.1 -0.1)"><path d="M0.0 0.0V-123.0H523.0V0.0ZM8.0 -231.0V-354.0H514.0V-231.0ZM67.0 -66.0V-281.0H222.0V-66.0ZM301.0 -66.0V-281.0H456.0V-66.0Z"/></g>
<g fill="red" transform="translate(1500 1100) scale(0.1 -0.1)"><path d="M0.0 0.0V-115.0H524.0V0.0ZM7.0 -206.0V-320.0H521.0V-206.0ZM68.0 -53.0V-269.0H223.0V-53.0ZM301.0 -53.0V-269.0H456.0V-53.0Z"/></g>
<g fill="black" opacity=".8" transform="translate(1500 1100) scale(0.1 -0.1)"><path d="M0.0 0.0V-119.0H525.0V0.0ZM7.0 -204.0V-322.0H516.0V-204.0ZM68.0 -53.0V-268.0H219.0V-53.0ZM307.0 -53.0V-268.0H457.0V-53.0Z"/></g>
<g fill="red" transform="translate(1600 1100) scale(0.1 -0.1)"><path d="M0.0 0.0V-115.0H524.0V0.0ZM9.0 -208.0V-322.0H514.0V-208.0ZM68.0 -53.0V-269.0H223.0V-53.0ZM301.0 -53.0V-269.0H456.0V-53.0Z"/></g>
<g fill="black" opacity=".8" transform="translate(1600 1100) scale(0.1 -0.1)"><path d="M0.0 0.0V-119.0H523.0V0.0ZM7.0 -205.0V-324.0H514.0V-205.0ZM68.0 -53.0V-268.0H219.0V-53.0ZM305.0 -53.0V-268.0H455.0V-53.0Z"/></g>
<g fill="red" transform="translate(100 1200) scale(0.1 -0.1)"><path d="M0.0 0.0V-123.0H524.0V0.0ZM8.0 -226.0V-350.0H514.0V-226.0ZM68.0 -65.0V-282.0H224.0V-65.0ZM300.0 -65.0V-282.0H455.0V-65.0Z"/></g>
<g fill="black" opacity=".8" transform="translate(100 1200) scale(0.1 -0.1)"><path d="M0.0 0.0V-123.0H523.0V0.0ZM8.0 -226.0V-350.0H514.0V-226.0ZM66.0 -65.0V-281.0H222.0V-65.0ZM301.0 -65.0V-281.0H457.0V-65.0Z"/></g>
<g fill="red" transform="translate(200 1200) scale(0.1 -0.1)"><path d="M0.0 0.0V-116.0H524.0V0.0ZM8.0 -180.0V-295.0H514.0V-180.0ZM68.0 -53.0V-270.0H223.0V-53.0ZM300.0 -53.0V-270.0H455.0V-53.0Z"/></g>
<g fill="black" opacity=".8" transform="translate(200 1200) scale(0.1 -0.1)"><path d="M0.0 0.0V-119.0H523.0V0.0ZM7.0 -178.0V-297.0H512.0V-178.0ZM66.0 -53.0V-269.0H217.0V-53.0ZM306.0 -53.0V-269.0H457.0V-53.0Z"/></g>
<g fill="red" transform="translate(300 1200) scale(0.1 -0.1)"><path d="M0.0 0.0V-116.0H524.0V0.0ZM8.0 -166.0V-280.0H514.0V-166.0ZM68.0 -33.0V-250.0H223.0V-33.0ZM300.0 -33.0V-250.0H455.0V-33.0Z"/></g>
<g fill="black" opacity=".8" transform="translate(300 1200) scale(0.1 -0.1)"><path d="M0.0 0.0V-118.0H522.0V0.0ZM7.0 -164.0V-282.0H512.0V-164.0ZM66.0 -33.0V-249.0H217.0V-33.0ZM305.0 -33.0V-249.0H457.0V-33.0Z"/></g>
<g fill="red" transform="translate(400 1200) scale(0.1 -0.1)"><path d="M0.0 0.0V-127.0H706.0V0.0ZM9.0 -310.0V-437.0H696.0V-310.0ZM108.0 -105.0V-382.0H269.0V-105.0ZM437.0 -105.0V-382.0H598.0V-105.0Z"/></g>
<g fill="black" opacity=".8" transform="translate(400 1200) scale(0.1 -0.1)"><path d="M0.0 0.0V-128.0H707.0V0.0ZM8.0 -309.0V-437.0H698.0V-309.0ZM112.0 -105.0V-381.0H273.0V-105.0ZM435.0 -105.0V-382.0H594.0V-105.0Z"/></g>
<g fill="red" transform="translate(500 1200) scale(0.1 -0.1)"><path d="M0.0 0.0V-128.0H706.0V0.0ZM5.0 -229.0V-355.0H692.0V-229.0ZM108.0 -58.0V-335.0H269.0V-58.0ZM437.0 -58.0V-335.0H598.0V-58.0Z"/></g>
<g fill="black" opacity=".8" transform="translate(500 1200) scale(0.1 -0.1)"><path d="M0.0 0.0V-127.0H705.0V0.0ZM7.0 -229.0V-355.0H694.0V-229.0ZM108.0 -58.0V-334.0H270.0V-58.0ZM435.0 -58.0V-335.0H597.0V-58.0Z"/></g>
<g fill="red" transform="translate(600 1200) scale(0.1 -0.1)"><path d="M0.0 0.0V-128.0H706.0V0.0ZM6.0 -228.0V-354.0H693.0V-228.0ZM108.0 -51.0V-329.0H269.0V-51.0ZM437.0 -51.0V-329.0H598.0V-51.0Z"/></g>
<g fill="black" opacity=".8" transform="translate(600 1200) scale(0.1 -0.1)"><path d="M0.0 0.0V-126.0H706.0V0.0ZM7.0 -228.0V-354.0H695.0V-228.0ZM108.0 -51.0V-328.0H271.0V-51.0ZM435.0 -51.0V-329.0H597.0V-51.0Z"/></g>
<g fill="red" transform="translate(700 1200) scale(0.1 -0.1)"><path d="M0.0 0.0V-128.0H706.0V0.0ZM6.0 -229.0V-355.0H693.0V-229.0ZM108.0 -51.0V-329.0H269.0V-51.0ZM437.0 -51.0V-329.0H598.0V-51.0Z"/></g>
<g fill="black" opacity=".8" transform="translate(700 1200) scale(0.1 -0.1)"><path d="M0.0 0.0V-126.0H706.0V0.0ZM7.0 -229.0V-355.0H695.0V-229.0ZM108.0 -51.0V-328.0H271.0V-51.0ZM435.0 -51.0V-329.0H597.0V-51.0Z"/></g>
<g fill="red" transform="translate(800 1200) scale(0.1 -0.1)"><path d="M0.0 0.0V-126.0H706.0V0.0ZM9.0 -261.0V-387.0H696.0V-261.0ZM108.0 -41.0V-319.0H269.0V-41.0ZM437.0 -41.0V-319.0H598.0V-41.0Z"/></g>
<g fill="black" opacity=".8" transform="translate(800 1200) scale(0.1 -0.1)"><path d="M0.0 0.0V-126.0H707.0V0.0ZM8.0 -260.0V-386.0H698.0V-260.0ZM112.0 -41.0V-318.0H273.0V-41.0ZM434.0 -41.0V-319.0H595.0V-41.0Z"/></g>
<g fill="red" transform="translate(900 1200) scale(0.1 -0.1)"><path d="M0.0 0.0V-120.0H706.0V0.0ZM6.0 -225.0V-344.0H693.0V-225.0ZM108.0 -51.0V-329.0H269.0V-51.0ZM437.0 -51.0V-329.0H598.0V-51.0Z"/></g>
<g fill="black" opacity=".8" transform="translate(900 1200) scale(0.1 -0.1)"><path d="M0.0 0.0V-123.0H706.0V0.0ZM7.0 -223.0V-345.0H695.0V-223.0ZM110.0 -51.0V-328.0H268.0V-51.0ZM438.0 -51.0V-329.0H595.0V-51.0Z"/></g>
<g fill="red" transform="translate(1000 1200) scale(0.1 -0.1)"><path d="M0.0 0.0V-119.0H706.0V0.0ZM9.0 -199.0V-318.0H696.0V-199.0ZM108.0 -47.0V-283.0H269.0V-47.0ZM437.0 -47.0V-283.0H598.0V-47.0Z"/></g>
<g fill="black" opacity=".8" transform="translate(1000 1200) scale(0.1 -0.1)"><path d="M0.0 0.0V-121.0H706.0V0.0ZM8.0 -198.0V-318.0H696.0V-198.0ZM110.0 -47.0V-282.0H269.0V-47.0ZM438.0 -47.0V-283.0H596.0V-47.0Z"/></g>
<g fill="red" transform="translate(1100 1200) scale(0.1 -0.1)"><path d="M0.0 0.0V-120.0H706.0V0.0ZM9.0 -199.0V-316.0H696.0V-199.0ZM108.0 -56.0V-292.0H269.0V-56.0ZM437.0 -56.0V-292.0H598.0V-56.0Z"/></g>
<g fill="black" opacity=".8" transform="translate(1100 1200) scale(0.1 -0.1)"><path d="M0.0 0.0V-121.0H706.0V0.0ZM8.0 -197.0V-318.0H696.0V-197.0ZM110.0 -56.0V-291.0H269.0V-56.0ZM438.0 -56.0V-292.0H597.0V-56.0Z"/></g>
<g fill="red" transform="translate(1200 1200) scale(0.1 -0.1)"><path d="M0.0 0.0V-120.0H706.0V0.0ZM5.0 -200.0V-317.0H692.0V-200.0ZM105.0 -56.0V-292.0H266.0V-56.0ZM434.0 -56.0V-292.0H595.0V-56.0Z"/></g>
<g fill="black" opacity=".8" transform="translate(1200 1200) scale(0.1 -0.1)"><path d="M0.0 0.0V-121.0H703.0V0.0ZM8.0 -198.0V-318.0H693.0V-198.0ZM109.0 -56.0V-291.0H268.0V-56.0ZM436.0 -56.0V-292.0H594.0V-56.0Z"/></g>
<g fill="red" transform="translate(1300 1200) scale(0.1 -0.1)"><path d="M0.0 0.0V-117.0H706.0V0.0ZM9.0 -199.0V-316.0H696.0V-199.0ZM108.0 -56.0V-292.0H269.0V-56.0ZM437.0 -56.0V-292.0H598.0V-56.0Z"/></g>
<g fill="black" opacity=".8" transform="translate(1300 1200) scale(0.1 -0.1)"><path d="M0.0 0.0V-121.0H706.0V0.0ZM8.0 -197.0V-317.0H696.0V-197.0ZM111.0 -56.0V-291.0H268.0V-56.0ZM439.0 -56.0V-292.0H596.0V-56.0Z"/></g>
<g fill="red" transform="translate(1400 1200) scale(0.1 -0.1)"><path d="M0.0 0.0V-127.0H706.0V0.0ZM9.0 -233.0V-360.0H696.0V-233.0ZM108.0 -43.0V-321.0H269.0V-43.0ZM437.0 -43.0V-321.0H598.0V-43.0Z"/></g>
<g fill="black" opacity=".8" transform="translate(1400 1200) scale(0.1 -0.1)"><path d="M0.0 0.0V-126.0H707.0V0.0ZM7.0 -233.0V-359.0H696.0V-233.0ZM110.0 -43.0V-320.0H272.0V-43.0ZM435.0 -43.0V-321.0H597.0V-43.0Z"/></g>
<g fill="red" transform="translate(1500 1200) scale(0.1 -0.1)"><path d="M0.0 0.0V-124.0H706.0V0.0ZM9.0 -231.0V-354.0H696.0V-231.0ZM108.0 -56.0V-291.0H269.0V-56.0ZM437.0 -56.0V-291.0H598.0V-56.0Z"/></g>
<g fill="black" opacity=".8" transform="translate(1500 1200) scale(0.1 -0.1)"><path d="M0.0 0.0V-124.0H706.0V0.0ZM8.0 -230.0V-354.0H697.0V-230.0ZM111.0 -56.0V-290.0H272.0V-56.0ZM435.0 -56.0V-291.0H596.0V-56.0Z"/></g>
<g fill="red" transform="translate(1600 1200) scale(0.1 -0.1)"><path d="M0.0 0.0V-126.0H706.0V0.0ZM9.0 -237.0V-364.0H696.0V-237.0ZM108.0 -43.0V-321.0H269.0V-43.0ZM437.0 -43.0V-321.0H598.0V-43.0Z"/></g>
<g fill="black" opacity=".8" transform="translate(1600 1200) scale(0.1 -0.1)"><path d="M0.0 0.0V-126.0H707.0V0.0ZM7.0 -237.0V-363.0H697.0V-237.0ZM110.0 -43.0V-320.0H272.0V-43.0ZM435.0 -43.0V-321.0H597.0V-43.0Z"/></g>
<g fill="red" transform="translate(100 1300) scale(0.1 -0.1)"><path d="M0.0 0.0V-127.0H706.0V0.0ZM9.0 -234.0V-361.0H696.0V-234.0ZM108.0 -43.0V-321.0H269.0V-43.0ZM437.0 -43.0V-321.0H598.0V-43.0Z"/></g>
<g fill="black" opacity=".8" transform="translate(100 1300) scale(0.1 -0.1)"><path d="M0.0 0.0V-126.0H707.0V0.0ZM7.0 -234.0V-360.0H696.0V-234.0ZM110.0 -43.0V-320.0H272.0V-43.0ZM435.0 -43.0V-321.0H597.0V-43.0Z"/></g>
<g fill="red" transform="translate(200 1300) scale(0.1 -0.1)"><path d="M0.0 0.0V-128.0H725.0V0.0ZM6.0 -385.0V-513.0H721.0V-385.0ZM118.0 -119.0V-396.0H279.0V-119.0ZM446.0 -119.0V-396.0H607.0V-119.0Z"/></g>
<g fill="black" opacity=".8" transform="translate(200 1300) scale(0.1 -0.1)"><path d="M0.0 0.0V-129.0H726.0V0.0ZM9.0 -384.0V-513.0H720.0V-384.0ZM122.0 -119.0V-395.0H281.0V-119.0ZM446.0 -119.0V-396.0H605.0V-119.0Z"/></g>
<g fill="red" transform="translate(300 1300) scale(0.1 -0.1)"><path d="M0.0 0.0V-128.0H706.0V0.0ZM9.0 -228.0V-354.0H696.0V-228.0ZM108.0 -51.0V-329.0H269.0V-51.0ZM437.0 -51.0V-329.0H598.0V-51.0Z"/></g>
<g fill="black" opacity=".8" transform="translate(300 1300) scale(0.1 -0.1)"><path d="M0.0 0.0V-126.0H707.0V0.0ZM7.0 -228.0V-354.0H696.0V-228.0ZM109.0 -51.0V-328.0H271.0V-51.0ZM436.0 -51.0V-329.0H598.0V-51.0Z"/></g>
<g fill="red" transform="translate(400 1300) scale(0.1 -0.1)"><path d="M0.0 0.0V-128.0H706.0V0.0ZM9.0 -229.0V-355.0H696.0V-229.0ZM108.0 -51.0V-329.0H269.0V-51.0ZM437.0 -51.0V-329.0H598.0V-51.0Z"/></g>
<g fill="black" opacity=".8" transform="translate(400 1300) scale(0.1 -0.1)"><path d="M0.0 0.0V-126.0H707.0V0.0ZM7.0 -229.0V-355.0H696.0V-229.0ZM109.0 -51.0V-328.0H271.0V-51.0ZM436.0 -51.0V-329.0H598.0V-51.0Z"/></g>
<g fill="red" transform="translate(500 1300) scale(0.1 -0.1)"><path d="M0.0 0.0V-120.0H706.0V0.0ZM7.0 -198.0V-317.0H694.0V-198.0ZM107.0 -46.0V-282.0H268.0V-46.0ZM436.0 -46.0V-282.0H597.0V-46.0Z"/></g>
<g fill="black" opacity=".8" transform="translate(500 1300) scale(0.1 -0.1)"><path d="M0.0 0.0V-122.0H705.0V0.0ZM8.0 -196.0V-318.0H695.0V-196.0ZM110.0 -46.0V-281.0H269.0V-46.0ZM437.0 -46.0V-282.0H595.0V-46.0Z"/></g>
<g fill="red" transform="translate(600 1300) scale(0.1 -0.1)"><path d="M0.0 0.0V-127.0H706.0V0.0ZM9.0 -240.0V-367.0H696.0V-240.0ZM108.0 -43.0V-321.0H269.0V-43.0ZM437.0 -43.0V-321.0H598.0V-43.0Z"/></g>
<g fill="black" opacity=".8" transform="translate(600 1300) scale(0.1 -0.1)"><path d="M0.0 0.0V-126.0H707.0V0.0ZM7.0 -240.0V-366.0H697.0V-240.0ZM110.0 -43.0V-320.0H272.0V-43.0ZM435.0 -43.0V-321.0H597.0V-43.0Z"/></g>
<g fill="red" transform="translate(700 1300) scale(0.1 -0.1)"><path d="M0.0 0.0V-127.0H706.0V0.0ZM9.0 -237.0V-364.0H696.0V-237.0ZM108.0 -43.0V-321.0H269.0V-43.0ZM437.0 -43.0V-321.0H598.0V-43.0Z"/></g>
<g fill="black" opacity=".8" transform="translate(700 1300) scale(0.1 -0.1)"><path d="M0.0 0.0V-126.0H707.0V0.0ZM7.0 -237.0V-363.0H697.0V-237.0ZM110.0 -43.0V-320.0H272.0V-43.0ZM435.0 -43.0V-321.0H597.0V-43.0Z"/></g>
<g fill="red" transform="translate(800 1300) scale(0.1 -0.1)"><path d="M0.0 0.0V-120.0H706.0V0.0ZM7.0 -236.0V-355.0H694.0V-236.0ZM107.0 -70.0V-305.0H268.0V-70.0ZM436.0 -70.0V-305.0H597.0V-70.0Z"/></g>
<g fill="black" opacity=".8" transform="translate(800 1300) scale(0.1 -0.1)"><path d="M0.0 0.0V-122.0H705.0V0.0ZM8.0 -234.0V-356.0H696.0V-234.0ZM112.0 -70.0V-304.0H270.0V-70.0ZM436.0 -70.0V-305.0H594.0V-70.0Z"/></g>
<g fill="red" transform="translate(900 1300) scale(0.1 -0.1)"><path d="M0.0 0.0V-126.0H706.0V0.0ZM9.0 -242.0V-368.0H696.0V-242.0ZM108.0 -35.0V-313.0H269.0V-35.0ZM437.0 -35.0V-313.0H598.0V-35.0Z"/></g>
<g fill="black" opacity=".8" transform="translate(900 1300) scale(0.1 -0.1)"><path d="M0.0 0.0V-126.0H707.0V0.0ZM8.0 -241.0V-367.0H697.0V-241.0ZM111.0 -35.0V-312.0H272.0V-35.0ZM435.0 -35.0V-313.0H596.0V-35.0Z"/></g>
<g fill="red" transform="translate(1000 1300) scale(0.1 -0.1)"><path d="M0.0 0.0V-128.0H557.0V0.0ZM13.0 -312.0V-439.0H546.0V-312.0ZM77.0 -66.0V-343.0H231.0V-66.0ZM322.0 -66.0V-343.0H476.0V-66.0Z"/></g>
<g fill="black" opacity=".8" transform="translate(1000 1300) scale(0.1 -0.1)"><path d="M0.0 0.0V-127.0H554.0V0.0ZM7.0 -311.0V-439.0H547.0V-311.0ZM77.0 -66.0V-342.0H233.0V-66.0ZM322.0 -66.0V-342.0H477.0V-66.0Z"/></g>
<g fill="red" transform="translate(1100 1300) scale(0.1 -0.1)"><path d="M0.0 0.0V-123.0H524.0V0.0ZM5.0 -212.0V-336.0H519.0V-212.0ZM69.0 -65.0V-282.0H224.0V-65.0ZM302.0 -65.0V-282.0H457.0V-65.0Z"/></g>
<g fill="black" opacity=".8" transform="translate(1100 1300) scale(0.1 -0.1)"><path d="M0.0 0.0V-123.0H525.0V0.0ZM7.0 -213.0V-335.0H516.0V-213.0ZM66.0 -65.0V-281.0H222.0V-65.0ZM304.0 -65.0V-281.0H459.0V-65.0Z"/></g>
<g fill="red" transform="translate(1200 1300) scale(0.1 -0.1)"><path d="M0.0 0.0V-123.0H524.0V0.0ZM9.0 -246.0V-368.0H514.0V-246.0ZM68.0 -65.0V-282.0H223.0V-65.0ZM301.0 -65.0V-282.0H456.0V-65.0Z"/></g>
<g fill="black" opacity=".8" transform="translate(1200 1300) scale(0.1 -0.1)"><path d="M0.0 0.0V-123.0H523.0V0.0ZM8.0 -245.0V-368.0H515.0V-245.0ZM68.0 -65.0V-281.0H223.0V-65.0ZM301.0 -65.0V-281.0H455.0V-65.0Z"/></g>
</svg>
