<?xml version="1.0" encoding="UTF-8"?>
<svg width="1700" height="300" xmlns="http://www.w3.org/2000/svg">
<rect width="100%" height="100%" fill="white"/>
<g fill="green" transform="translate(100 100) scale(0.1 -0.1)"><path d="M0.0 0.0V-194.0H29.0V0.0ZM88.0 -2.0V-196.0H117.0V-2.0ZM449.0 -15.0V-342.0H479.0V-15.0ZM580.0 -13.0V-345.0H609.0V-13.0ZM298.0 -94.0C328.0 -144.0 357.0 -211.0 369.0 -255.0L396.0 -245.0C385.0 -201.0 354.0 -135.0 324.0 -85.0ZM706.0 -81.0C690.0 -129.0 660.0 -201.0 638.0 -246.0L661.0 -257.0C685.0 -215.0 712.0 -150.0 735.0 -96.0Z"/></g>
<g fill="green" transform="translate(200 100) scale(0.1 -0.1)"><path d="M0.0 0.0V-257.0H84.0V0.0ZM117.0 0.0V-257.0H197.0V0.0ZM450.0 -12.0V-336.0H566.0V-12.0ZM595.0 -12.0V-336.0H711.0V-12.0ZM314.0 -132.0C333.0 -176.0 351.0 -236.0 355.0 -274.0L459.0 -241.0C452.0 -203.0 434.0 -146.0 412.0 -103.0ZM732.0 -107.0C727.0 -146.0 713.0 -201.0 702.0 -239.0L785.0 -263.0C800.0 -230.0 817.0 -181.0 838.0 -133.0Z"/></g>
<g fill="green" transform="translate(300 100) scale(0.1 -0.1)"><path d="M0.0 0.0V-194.0H29.0V0.0ZM88.0 -2.0V-196.0H117.0V-2.0ZM449.0 -15.0V-342.0H479.0V-15.0ZM580.0 -13.0V-345.0H609.0V-13.0ZM298.0 -94.0C328.0 -144.0 357.0 -211.0 369.0 -255.0L396.0 -245.0C385.0 -201.0 354.0 -135.0 324.0 -85.0ZM706.0 -81.0C690.0 -129.0 660.0 -201.0 638.0 -246.0L661.0 -257.0C685.0 -215.0 712.0 -150.0 735.0 -96.0Z"/></g>
<g fill="green" transform="translate(400 100) scale(0.1 -0.1)"><path d="M0.0 0.0V-257.0H84.0V0.0ZM117.0 0.0V-257.0H197.0V0.0ZM450.0 -12.0V-336.0H566.0V-12.0ZM595.0 -12.0V-336.0H711.0V-12.0ZM314.0 -132.0C333.0 -176.0 351.0 -236.0 355.0 -274.0L459.0 -241.0C452.0 -203.0 434.0 -146.0 412.0 -103.0ZM732.0 -107.0C727.0 -146.0 713.0 -201.0 702.0 -239.0L785.0 -263.0C800.0 -230.0 817.0 -181.0 838.0 -133.0Z"/></g>
<g fill="red" transform="translate(100 200) scale(0.1 -0.1)"><path d="M0.0 0.0V-194.0H29.0V0.0ZM88.0 -2.0V-196.0H117.0V-2.0ZM449.0 -15.0V-342.0H479.0V-15.0ZM580.0 -13.0V-345.0H609.0V-13.0ZM298.0 -94.0C328.0 -144.0 357.0 -211.0 369.0 -255.0L396.0 -245.0C385.0 -201.0 354.0 -135.0 324.0 -85.0ZM706.0 -81.0C690.0 -129.0 660.0 -201.0 638.0 -246.0L661.0 -257.0C685.0 -215.0 712.0 -150.0 735.0 -96.0Z"/></g>
<g fill="black" opacity=".8" transform="translate(100 200) scale(0.1 -0.1)"><path d="M0.0 0.0V-194.0H29.0V0.0ZM88.0 -2.0V-196.0H117.0V-2.0ZM449.0 -15.0V-342.0H479.0V-15.0ZM580.0 -13.0V-345.0H609.0V-13.0ZM298.0 -94.0C328.0 -144.0 357.0 -211.0 369.0 -255.0L396.0 -245.0C385.0 -201.0 354.0 -135.0 324.0 -85.0ZM706.0 -81.0C690.0 -129.0 660.0 -201.0 638.0 -246.0L661.0 -257.0C685.0 -215.0 712.0 -150.0 735.0 -96.0Z"/></g>
<g fill="red" transform="translate(200 200) scale(0.1 -0.1)"><path d="M0.0 0.0V-257.0H84.0V0.0ZM117.0 0.0V-257.0H197.0V0.0ZM450.0 -12.0V-336.0H566.0V-12.0ZM595.0 -12.0V-336.0H711.0V-12.0ZM314.0 -132.0C333.0 -176.0 351.0 -236.0 355.0 -274.0L459.0 -241.0C452.0 -203.0 434.0 -146.0 412.0 -103.0ZM732.0 -107.0C727.0 -146.0 713.0 -201.0 702.0 -239.0L785.0 -263.0C800.0 -230.0 817.0 -181.0 838.0 -133.0Z"/></g>
<g fill="black" opacity=".8" transform="translate(200 200) scale(0.1 -0.1)"><path d="M0.0 0.0V-257.0H84.0V0.0ZM117.0 0.0V-257.0H197.0V0.0ZM450.0 -12.0V-336.0H566.0V-12.0ZM595.0 -12.0V-336.0H711.0V-12.0ZM314.0 -132.0C333.0 -176.0 351.0 -236.0 355.0 -274.0L459.0 -241.0C452.0 -203.0 434.0 -146.0 412.0 -103.0ZM732.0 -107.0C727.0 -146.0 713.0 -201.0 702.0 -239.0L785.0 -263.0C800.0 -230.0 817.0 -181.0 838.0 -133.0Z"/></g>
</svg>
