<?xml version="1.0" encoding="UTF-8"?>
<svg width="1700" height="300" xmlns="http://www.w3.org/2000/svg">
<rect width="100%" height="100%" fill="white"/>
<g fill="green" transform="translate(100 100) scale(0.1 -0.1)"><path d="M0.0 0.0V-253.0H325.0V0.0ZM30.0 -30.0H295.0V-111.0H30.0ZM-110.0 92.0V-590.0C-110.0 -679.0 -69.0 -709.0 21.0 -709.0C41.0 -709.0 269.0 -709.0 316.0 -709.0C363.0 -709.0 404.0 -707.0 418.0 -704.0C416.0 -698.0 412.0 -683.0 411.0 -674.0C389.0 -678.0 343.0 -679.0 314.0 -679.0C270.0 -679.0 62.0 -679.0 18.0 -679.0C-53.0 -679.0 -81.0 -654.0 -81.0 -592.0V92.0Z"/></g>
<g fill="green" transform="translate(200 100) scale(0.1 -0.1)"><path d="M0.0 0.0V-260.0H355.0V0.0ZM103.0 -72.0H247.0V-96.0H103.0ZM-157.0 88.0V-536.0C-157.0 -680.0 -107.0 -735.0 37.0 -735.0C75.0 -735.0 224.0 -735.0 263.0 -735.0C316.0 -735.0 371.0 -734.0 400.0 -726.0C394.0 -701.0 388.0 -654.0 386.0 -624.0C356.0 -631.0 301.0 -634.0 260.0 -634.0C218.0 -634.0 77.0 -634.0 33.0 -634.0C-21.0 -634.0 -35.0 -608.0 -35.0 -543.0V88.0Z"/></g>
<g fill="green" transform="translate(300 100) scale(0.1 -0.1)"><path d="M0.0 0.0V-253.0H325.0V0.0ZM30.0 -30.0H295.0V-111.0H30.0ZM-110.0 92.0V-590.0C-110.0 -679.0 -69.0 -709.0 21.0 -709.0C41.0 -709.0 269.0 -709.0 316.0 -709.0C363.0 -709.0 404.0 -707.0 418.0 -704.0C416.0 -698.0 412.0 -683.0 411.0 -674.0C389.0 -678.0 343.0 -679.0 314.0 -679.0C270.0 -679.0 62.0 -679.0 18.0 -679.0C-53.0 -679.0 -81.0 -654.0 -81.0 -592.0V92.0Z"/></g>
<g fill="green" transform="translate(400 100) scale(0.1 -0.1)"><path d="M0.0 0.0V-260.0H355.0V0.0ZM103.0 -72.0H247.0V-96.0H103.0ZM-157.0 88.0V-536.0C-157.0 -680.0 -107.0 -735.0 37.0 -735.0C75.0 -735.0 224.0 -735.0 263.0 -735.0C316.0 -735.0 371.0 -734.0 400.0 -726.0C394.0 -701.0 388.0 -654.0 386.0 -624.0C356.0 -631.0 301.0 -634.0 260.0 -634.0C218.0 -634.0 77.0 -634.0 33.0 -634.0C-21.0 -634.0 -35.0 -608.0 -35.0 -543.0V88.0Z"/></g>
<g fill="red" transform="translate(100 200) scale(0.1 -0.1)"><path d="M0.0 0.0V-253.0H325.0V0.0ZM30.0 -30.0H295.0V-111.0H30.0ZM-110.0 92.0V-590.0C-110.0 -679.0 -69.0 -709.0 21.0 -709.0C41.0 -709.0 269.0 -709.0 316.0 -709.0C363.0 -709.0 404.0 -707.0 418.0 -704.0C416.0 -698.0 412.0 -683.0 411.0 -674.0C389.0 -678.0 343.0 -679.0 314.0 -679.0C270.0 -679.0 62.0 -679.0 18.0 -679.0C-53.0 -679.0 -81.0 -654.0 -81.0 -592.0V92.0Z"/></g>
<g fill="black" opacity=".8" transform="translate(100 200) scale(0.1 -0.1)"><path d="M0.0 0.0V-253.0H325.0V0.0ZM30.0 -30.0H295.0V-111.0H30.0ZM-110.0 92.0V-590.0C-110.0 -679.0 -69.0 -709.0 21.0 -709.0C41.0 -709.0 269.0 -709.0 316.0 -709.0C363.0 -709.0 404.0 -707.0 418.0 -704.0C416.0 -698.0 412.0 -683.0 411.0 -674.0C389.0 -678.0 343.0 -679.0 314.0 -679.0C270.0 -679.0 62.0 -679.0 18.0 -679.0C-53.0 -679.0 -81.0 -654.0 -81.0 -592.0V92.0Z"/></g>
<g fill="red" transform="translate(200 200) scale(0.1 -0.1)"><path d="M0.0 0.0V-260.0H355.0V0.0ZM103.0 -72.0H247.0V-96.0H103.0ZM-157.0 88.0V-536.0C-157.0 -680.0 -107.0 -735.0 37.0 -735.0C75.0 -735.0 224.0 -735.0 263.0 -735.0C316.0 -735.0 371.0 -734.0 400.0 -726.0C394.0 -701.0 388.0 -654.0 386.0 -624.0C356.0 -631.0 301.0 -634.0 260.0 -634.0C218.0 -634.0 77.0 -634.0 33.0 -634.0C-21.0 -634.0 -35.0 -608.0 -35.0 -543.0V88.0Z"/></g>
<g fill="black" opacity=".8" transform="translate(200 200) scale(0.1 -0.1)"><path d="M0.0 0.0V-260.0H355.0V0.0ZM103.0 -72.0H247.0V-96.0H103.0ZM-157.0 88.0V-536.0C-157.0 -680.0 -107.0 -735.0 37.0 -735.0C75.0 -735.0 224.0 -735.0 263.0 -735.0C316.0 -735.0 371.0 -734.0 400.0 -726.0C394.0 -701.0 388.0 -654.0 386.0 -624.0C356.0 -631.0 301.0 -634.0 260.0 -634.0C218.0 -634.0 77.0 -634.0 33.0 -634.0C-21.0 -634.0 -35.0 -608.0 -35.0 -543.0V88.0Z"/></g>
</svg>
