<?xml version="1.0" encoding="UTF-8"?>
<svg width="1700" height="300" xmlns="http://www.w3.org/2000/svg">
<rect width="100%" height="100%" fill="white"/>
<g fill="green" transform="translate(100 100) scale(0.1 -0.1)"><path d="M0.0 -0.0V-372.0V-1291.0H78.0V-372.0V0.0ZM55.0 650.0V260.0H92.0V650.0Z"/></g>
<g fill="green" transform="translate(200 100) scale(0.1 -0.1)"><path d="M0.0 0.0V-377.0H18.0V-1277.0H301.0V-377.0H317.0V0.0ZM57.0 759.0V230.0H296.0V759.0Z"/></g>
<g fill="green" transform="translate(300 100) scale(0.1 -0.1)"><path d="M0.0 0.0V-86.0V-687.0H40.0V-86.0V0.0ZM-312.0 545.0V465.0H-558.0V545.0Z"/></g>
<g fill="green" transform="translate(400 100) scale(0.1 -0.1)"><path d="M0.0 0.0V-131.0H28.0V-724.0H164.0V-131.0H191.0V0.0ZM-322.0 601.0V434.0H-439.0V601.0Z"/></g>
<g fill="green" transform="translate(500 100) scale(0.1 -0.1)"><path d="M0.0 0.0V-243.0V-638.0H51.0V-243.0V0.0ZM574.0 454.0V262.0H579.0V454.0Z"/></g>
<g fill="green" transform="translate(600 100) scale(0.1 -0.1)"><path d="M0.0 0.0V-192.0H8.0V-588.0H206.0V-192.0H212.0V0.0ZM588.0 567.0V298.0H737.0V567.0Z"/></g>
<g fill="green" transform="translate(700 100) scale(0.1 -0.1)"><path d="M0.0 -0.0V-385.0V-1330.0H75.0V-385.0V0.0ZM-134.0 9.0V-370.0H130.0V9.0Z"/></g>
<g fill="green" transform="translate(800 100) scale(0.1 -0.1)"><path d="M0.0 0.0V-394.0H19.0V-1273.0H271.0V-394.0H290.0V0.0ZM-107.0 93.0V-464.0H268.0V93.0Z"/></g>
<g fill="green" transform="translate(900 100) scale(0.1 -0.1)"><path d="M0.0 -0.0V-428.0V-1182.0H59.0V-428.0V0.0ZM-51.0 785.0V191.0H191.0V785.0Z"/></g>
<g fill="green" transform="translate(1000 100) scale(0.1 -0.1)"><path d="M0.0 0.0V-443.0H-13.0V-1211.0H221.0V-443.0H206.0V0.0ZM-79.0 825.0V176.0H350.0V825.0Z"/></g>
<g fill="red" transform="translate(100 200) scale(0.1 -0.1)"><path d="M0.0 0.0V-116.0V-381.0H30.0V-116.0V0.0ZM210.0 -226.0V-255.0H299.0V-226.0Z"/></g>
<g fill="black" opacity=".8" transform="translate(100 200) scale(0.1 -0.1)"><path d="M0.0 0.0V-116.0V-381.0H29.0V-116.0V0.0ZM210.0 -225.0V-255.0H299.0V-225.0Z"/></g>
<g fill="red" transform="translate(200 200) scale(0.1 -0.1)"><path d="M0.0 0.0V-89.0H14.0V-314.0H110.0V-89.0H124.0V0.0ZM242.0 -163.0V-282.0H351.0V-163.0Z"/></g>
<g fill="black" opacity=".8" transform="translate(200 200) scale(0.1 -0.1)"><path d="M0.0 0.0V-88.0H14.0V-314.0H110.0V-88.0H124.0V0.0ZM242.0 -162.0V-282.0H351.0V-162.0Z"/></g>
<g fill="red" transform="translate(300 200) scale(0.1 -0.1)"><path d="M0.0 0.0V-189.0V-406.0H30.0V-189.0V0.0ZM408.0 494.0V286.0H437.0V494.0Z"/></g>
<g fill="black" opacity=".8" transform="translate(300 200) scale(0.1 -0.1)"><path d="M0.0 0.0V-189.0V-406.0H30.0V-189.0V0.0ZM407.0 495.0V286.0H436.0V495.0Z"/></g>
<g fill="red" transform="translate(400 200) scale(0.1 -0.1)"><path d="M0.0 0.0V-155.0H-5.0V-394.0H124.0V-155.0H117.0V0.0ZM402.0 555.0V330.0H546.0V555.0Z"/></g>
<g fill="black" opacity=".8" transform="translate(400 200) scale(0.1 -0.1)"><path d="M0.0 0.0V-155.0H-5.0V-394.0H124.0V-155.0H117.0V0.0ZM402.0 556.0V330.0H546.0V556.0Z"/></g>
<g fill="red" transform="translate(500 200) scale(0.1 -0.1)"><path d="M0.0 0.0V-316.0V-588.0H30.0V-316.0V0.0ZM264.0 -47.0V-437.0H702.0V-47.0Z"/></g>
<g fill="black" opacity=".8" transform="translate(500 200) scale(0.1 -0.1)"><path d="M0.0 0.0V-316.0V-588.0H30.0V-316.0V0.0ZM263.0 -46.0V-437.0H701.0V-46.0Z"/></g>
<g fill="red" transform="translate(600 200) scale(0.1 -0.1)"><path d="M0.0 0.0V-281.0H-22.0V-539.0H99.0V-281.0H77.0V0.0ZM272.0 -28.0V-452.0H750.0V-28.0Z"/></g>
<g fill="black" opacity=".8" transform="translate(600 200) scale(0.1 -0.1)"><path d="M0.0 0.0V-281.0H-22.0V-539.0H99.0V-281.0H77.0V0.0ZM272.0 -27.0V-452.0H750.0V-27.0Z"/></g>
<g fill="red" transform="translate(700 200) scale(0.1 -0.1)"><path d="M0.0 0.0V-128.0V-648.0H27.0V-128.0V0.0ZM-502.0 196.0V2.0H-473.0V196.0Z"/></g>
<g fill="black" opacity=".8" transform="translate(700 200) scale(0.1 -0.1)"><path d="M0.0 0.0V-128.0V-648.0H27.0V-128.0V0.0ZM-502.0 197.0V2.0H-473.0V197.0Z"/></g>
<g fill="red" transform="translate(800 200) scale(0.1 -0.1)"><path d="M0.0 0.0V-183.0H10.0V-682.0H96.0V-183.0H106.0V0.0ZM-513.0 194.0V-63.0H-426.0V194.0Z"/></g>
<g fill="black" opacity=".8" transform="translate(800 200) scale(0.1 -0.1)"><path d="M0.0 0.0V-182.0H10.0V-682.0H96.0V-182.0H106.0V0.0ZM-513.0 195.0V-63.0H-425.0V195.0Z"/></g>
</svg>
