<?xml version="1.0" encoding="UTF-8"?>
<svg width="1700" height="300" xmlns="http://www.w3.org/2000/svg">
<rect width="100%" height="100%" fill="white"/>
<g fill="green" transform="translate(100 100) scale(0.1 -0.1)"><path d="M0.0 0.0H114.0V-137.0H0.0ZM-228.0 -309.0 -220.0 -340.0C-168.0 -332.0 -111.0 -324.0 -49.0 -314.0L-50.0 -287.0C-119.0 -296.0 -179.0 -305.0 -228.0 -309.0ZM136.0 -298.0 147.0 -327.0C199.0 -321.0 252.0 -314.0 312.0 -308.0L311.0 -280.0C244.0 -287.0 185.0 -294.0 136.0 -298.0ZM-220.0 -32.0C-183.0 -73.0 -141.0 -131.0 -121.0 -169.0L-99.0 -145.0C-120.0 -110.0 -163.0 -53.0 -201.0 -11.0ZM-101.0 -196.0C-81.0 -246.0 -59.0 -310.0 -51.0 -354.0L-24.0 -342.0C-32.0 -300.0 -54.0 -234.0 -76.0 -185.0ZM-70.0 -8.0C-100.0 -99.0 -156.0 -235.0 -201.0 -313.0L-176.0 -323.0C-131.0 -245.0 -77.0 -114.0 -40.0 -17.0ZM41.0 143.0C36.0 111.0 25.0 61.0 15.0 29.0L42.0 22.0C52.0 51.0 61.0 96.0 72.0 134.0ZM135.0 -32.0C172.0 -73.0 213.0 -131.0 234.0 -169.0L255.0 -145.0C235.0 -110.0 192.0 -53.0 153.0 -11.0ZM231.0 122.0C217.0 72.0 189.0 -6.0 166.0 -51.0L191.0 -60.0C214.0 -15.0 240.0 55.0 261.0 112.0Z"/></g>
<g fill="green" transform="translate(200 100) scale(0.1 -0.1)"><path d="M0.0 0.0H29.0V-64.0H0.0ZM-285.0 -242.0 -257.0 -337.0C-205.0 -324.0 -150.0 -309.0 -94.0 -293.0L-103.0 -210.0C-173.0 -223.0 -236.0 -235.0 -285.0 -242.0ZM96.0 -235.0 119.0 -331.0C173.0 -316.0 228.0 -300.0 286.0 -283.0L276.0 -199.0C208.0 -214.0 145.0 -227.0 96.0 -235.0ZM-298.0 1.0C-263.0 -40.0 -223.0 -98.0 -204.0 -135.0L-145.0 -60.0C-165.0 -25.0 -206.0 29.0 -244.0 69.0ZM-163.0 -160.0C-147.0 -221.0 -135.0 -301.0 -133.0 -353.0L-66.0 -320.0C-69.0 -268.0 -84.0 -189.0 -101.0 -128.0ZM-136.0 56.0C-167.0 -37.0 -223.0 -166.0 -269.0 -244.0L-208.0 -280.0C-161.0 -204.0 -103.0 -83.0 -56.0 14.0ZM-29.0 194.0C-31.0 151.0 -40.0 91.0 -48.0 49.0L46.0 30.0C58.0 67.0 72.0 122.0 88.0 176.0ZM72.0 1.0C108.0 -40.0 149.0 -98.0 168.0 -135.0L227.0 -59.0C207.0 -24.0 164.0 30.0 126.0 70.0ZM176.0 184.0C163.0 131.0 135.0 54.0 113.0 6.0L183.0 -21.0C208.0 24.0 238.0 93.0 267.0 154.0Z"/></g>
<g fill="green" transform="translate(300 100) scale(0.1 -0.1)"><path d="M0.0 0.0H114.0V-137.0H0.0ZM-228.0 -309.0 -220.0 -340.0C-168.0 -332.0 -111.0 -324.0 -49.0 -314.0L-50.0 -287.0C-119.0 -296.0 -179.0 -305.0 -228.0 -309.0ZM136.0 -298.0 147.0 -327.0C199.0 -321.0 252.0 -314.0 312.0 -308.0L311.0 -280.0C244.0 -287.0 185.0 -294.0 136.0 -298.0ZM-220.0 -32.0C-183.0 -73.0 -141.0 -131.0 -121.0 -169.0L-99.0 -145.0C-120.0 -110.0 -163.0 -53.0 -201.0 -11.0ZM-101.0 -196.0C-81.0 -246.0 -59.0 -310.0 -51.0 -354.0L-24.0 -342.0C-32.0 -300.0 -54.0 -234.0 -76.0 -185.0ZM-70.0 -8.0C-100.0 -99.0 -156.0 -235.0 -201.0 -313.0L-176.0 -323.0C-131.0 -245.0 -77.0 -114.0 -40.0 -17.0ZM41.0 143.0C36.0 111.0 25.0 61.0 15.0 29.0L42.0 22.0C52.0 51.0 61.0 96.0 72.0 134.0ZM135.0 -32.0C172.0 -73.0 213.0 -131.0 234.0 -169.0L255.0 -145.0C235.0 -110.0 192.0 -53.0 153.0 -11.0ZM231.0 122.0C217.0 72.0 189.0 -6.0 166.0 -51.0L191.0 -60.0C214.0 -15.0 240.0 55.0 261.0 112.0Z"/></g>
<g fill="green" transform="translate(400 100) scale(0.1 -0.1)"><path d="M0.0 0.0H29.0V-64.0H0.0ZM-285.0 -242.0 -257.0 -337.0C-205.0 -324.0 -150.0 -309.0 -94.0 -293.0L-103.0 -210.0C-173.0 -223.0 -236.0 -235.0 -285.0 -242.0ZM96.0 -235.0 119.0 -331.0C173.0 -316.0 228.0 -300.0 286.0 -283.0L276.0 -199.0C208.0 -214.0 145.0 -227.0 96.0 -235.0ZM-298.0 1.0C-263.0 -40.0 -223.0 -98.0 -204.0 -135.0L-145.0 -60.0C-165.0 -25.0 -206.0 29.0 -244.0 69.0ZM-163.0 -160.0C-147.0 -221.0 -135.0 -301.0 -133.0 -353.0L-66.0 -320.0C-69.0 -268.0 -84.0 -189.0 -101.0 -128.0ZM-136.0 56.0C-167.0 -37.0 -223.0 -166.0 -269.0 -244.0L-208.0 -280.0C-161.0 -204.0 -103.0 -83.0 -56.0 14.0ZM-29.0 194.0C-31.0 151.0 -40.0 91.0 -48.0 49.0L46.0 30.0C58.0 67.0 72.0 122.0 88.0 176.0ZM72.0 1.0C108.0 -40.0 149.0 -98.0 168.0 -135.0L227.0 -59.0C207.0 -24.0 164.0 30.0 126.0 70.0ZM176.0 184.0C163.0 131.0 135.0 54.0 113.0 6.0L183.0 -21.0C208.0 24.0 238.0 93.0 267.0 154.0Z"/></g>
<g fill="red" transform="translate(100 200) scale(0.1 -0.1)"><path d="M0.0 0.0H114.0V-137.0H0.0ZM-228.0 -309.0 -220.0 -340.0C-168.0 -332.0 -111.0 -324.0 -49.0 -314.0L-50.0 -287.0C-119.0 -296.0 -179.0 -305.0 -228.0 -309.0ZM136.0 -298.0 147.0 -327.0C199.0 -321.0 252.0 -314.0 312.0 -308.0L311.0 -280.0C244.0 -287.0 185.0 -294.0 136.0 -298.0ZM-220.0 -32.0C-183.0 -73.0 -141.0 -131.0 -121.0 -169.0L-99.0 -145.0C-120.0 -110.0 -163.0 -53.0 -201.0 -11.0ZM-101.0 -196.0C-81.0 -246.0 -59.0 -310.0 -51.0 -354.0L-24.0 -342.0C-32.0 -300.0 -54.0 -234.0 -76.0 -185.0ZM-70.0 -8.0C-100.0 -99.0 -156.0 -235.0 -201.0 -313.0L-176.0 -323.0C-131.0 -245.0 -77.0 -114.0 -40.0 -17.0ZM41.0 143.0C36.0 111.0 25.0 61.0 15.0 29.0L42.0 22.0C52.0 51.0 61.0 96.0 72.0 134.0ZM135.0 -32.0C172.0 -73.0 213.0 -131.0 234.0 -169.0L255.0 -145.0C235.0 -110.0 192.0 -53.0 153.0 -11.0ZM231.0 122.0C217.0 72.0 189.0 -6.0 166.0 -51.0L191.0 -60.0C214.0 -15.0 240.0 55.0 261.0 112.0Z"/></g>
<g fill="black" opacity=".8" transform="translate(100 200) scale(0.1 -0.1)"><path d="M0.0 0.0H114.0V-137.0H0.0ZM-228.0 -309.0 -220.0 -340.0C-168.0 -332.0 -111.0 -324.0 -49.0 -314.0L-50.0 -287.0C-119.0 -296.0 -179.0 -305.0 -228.0 -309.0ZM136.0 -298.0 147.0 -327.0C199.0 -321.0 252.0 -314.0 312.0 -308.0L311.0 -280.0C244.0 -287.0 185.0 -294.0 136.0 -298.0ZM-220.0 -32.0C-183.0 -73.0 -141.0 -131.0 -121.0 -169.0L-99.0 -145.0C-120.0 -110.0 -163.0 -53.0 -201.0 -11.0ZM-101.0 -196.0C-81.0 -246.0 -59.0 -310.0 -51.0 -354.0L-24.0 -342.0C-32.0 -300.0 -54.0 -234.0 -76.0 -185.0ZM-70.0 -8.0C-100.0 -99.0 -156.0 -235.0 -201.0 -313.0L-176.0 -323.0C-131.0 -245.0 -77.0 -114.0 -40.0 -17.0ZM41.0 143.0C36.0 111.0 25.0 61.0 15.0 29.0L42.0 22.0C52.0 51.0 61.0 96.0 72.0 134.0ZM135.0 -32.0C172.0 -73.0 213.0 -131.0 234.0 -169.0L255.0 -145.0C235.0 -110.0 192.0 -53.0 153.0 -11.0ZM231.0 122.0C217.0 72.0 189.0 -6.0 166.0 -51.0L191.0 -60.0C214.0 -15.0 240.0 55.0 261.0 112.0Z"/></g>
<g fill="red" transform="translate(200 200) scale(0.1 -0.1)"><path d="M0.0 0.0H29.0V-64.0H0.0ZM-285.0 -242.0 -257.0 -337.0C-205.0 -324.0 -150.0 -309.0 -94.0 -293.0L-103.0 -210.0C-173.0 -223.0 -236.0 -235.0 -285.0 -242.0ZM96.0 -235.0 119.0 -331.0C173.0 -316.0 228.0 -300.0 286.0 -283.0L276.0 -199.0C208.0 -214.0 145.0 -227.0 96.0 -235.0ZM-298.0 1.0C-263.0 -40.0 -223.0 -98.0 -204.0 -135.0L-145.0 -60.0C-165.0 -25.0 -206.0 29.0 -244.0 69.0ZM-163.0 -160.0C-147.0 -221.0 -135.0 -301.0 -133.0 -353.0L-66.0 -320.0C-69.0 -268.0 -84.0 -189.0 -101.0 -128.0ZM-136.0 56.0C-167.0 -37.0 -223.0 -166.0 -269.0 -244.0L-208.0 -280.0C-161.0 -204.0 -103.0 -83.0 -56.0 14.0ZM-29.0 194.0C-31.0 151.0 -40.0 91.0 -48.0 49.0L46.0 30.0C58.0 67.0 72.0 122.0 88.0 176.0ZM72.0 1.0C108.0 -40.0 149.0 -98.0 168.0 -135.0L227.0 -59.0C207.0 -24.0 164.0 30.0 126.0 70.0ZM176.0 184.0C163.0 131.0 135.0 54.0 113.0 6.0L183.0 -21.0C208.0 24.0 238.0 93.0 267.0 154.0Z"/></g>
<g fill="black" opacity=".8" transform="translate(200 200) scale(0.1 -0.1)"><path d="M0.0 0.0H29.0V-64.0H0.0ZM-285.0 -242.0 -257.0 -337.0C-205.0 -324.0 -150.0 -309.0 -94.0 -293.0L-103.0 -210.0C-173.0 -223.0 -236.0 -235.0 -285.0 -242.0ZM96.0 -235.0 119.0 -331.0C173.0 -316.0 228.0 -300.0 286.0 -283.0L276.0 -199.0C208.0 -214.0 145.0 -227.0 96.0 -235.0ZM-298.0 1.0C-263.0 -40.0 -223.0 -98.0 -204.0 -135.0L-145.0 -60.0C-165.0 -25.0 -206.0 29.0 -244.0 69.0ZM-163.0 -160.0C-147.0 -221.0 -135.0 -301.0 -133.0 -353.0L-66.0 -320.0C-69.0 -268.0 -84.0 -189.0 -101.0 -128.0ZM-136.0 56.0C-167.0 -37.0 -223.0 -166.0 -269.0 -244.0L-208.0 -280.0C-161.0 -204.0 -103.0 -83.0 -56.0 14.0ZM-29.0 194.0C-31.0 151.0 -40.0 91.0 -48.0 49.0L46.0 30.0C58.0 67.0 72.0 122.0 88.0 176.0ZM72.0 1.0C108.0 -40.0 149.0 -98.0 168.0 -135.0L227.0 -59.0C207.0 -24.0 164.0 30.0 126.0 70.0ZM176.0 184.0C163.0 131.0 135.0 54.0 113.0 6.0L183.0 -21.0C208.0 24.0 238.0 93.0 267.0 154.0Z"/></g>
</svg>
