<?xml version="1.0" encoding="UTF-8"?>
<svg width="1700" height="300" xmlns="http://www.w3.org/2000/svg">
<rect width="100%" height="100%" fill="white"/>
<g fill="green" transform="translate(100 100) scale(0.1 -0.1)"><path d="M0.0 0.0V-518.0H26.0V26.0V27.0ZM-458.0 -422.0 -452.0 -453.0C-357.0 -432.0 -217.0 -402.0 -81.0 -372.0L-83.0 -344.0C-224.0 -374.0 -367.0 -405.0 -458.0 -422.0ZM134.0 380.0C91.0 187.0 18.0 12.0 -86.0 -103.0C-78.0 -107.0 -66.0 -117.0 -61.0 -122.0C41.0 -3.0 116.0 173.0 163.0 374.0Z"/></g>
<g fill="green" transform="translate(200 100) scale(0.1 -0.1)"><path d="M0.0 0.0V-545.0H118.0V66.0L74.0 78.0ZM-456.0 -363.0 -439.0 -501.0C-330.0 -484.0 -186.0 -462.0 -51.0 -439.0L-56.0 -312.0C-199.0 -332.0 -353.0 -352.0 -456.0 -363.0ZM108.0 404.0C73.0 214.0 8.0 42.0 -97.0 -63.0C-73.0 -94.0 -34.0 -163.0 -22.0 -195.0C108.0 -62.0 191.0 151.0 237.0 379.0Z"/></g>
<g fill="green" transform="translate(300 100) scale(0.1 -0.1)"><path d="M0.0 0.0V-518.0H26.0V26.0V27.0ZM-458.0 -422.0 -452.0 -453.0C-357.0 -432.0 -217.0 -402.0 -81.0 -372.0L-83.0 -344.0C-224.0 -374.0 -367.0 -405.0 -458.0 -422.0ZM134.0 380.0C91.0 187.0 18.0 12.0 -86.0 -103.0C-78.0 -107.0 -66.0 -117.0 -61.0 -122.0C41.0 -3.0 116.0 173.0 163.0 374.0Z"/></g>
<g fill="green" transform="translate(400 100) scale(0.1 -0.1)"><path d="M0.0 0.0V-545.0H118.0V66.0L74.0 78.0ZM-456.0 -363.0 -439.0 -501.0C-330.0 -484.0 -186.0 -462.0 -51.0 -439.0L-56.0 -312.0C-199.0 -332.0 -353.0 -352.0 -456.0 -363.0ZM108.0 404.0C73.0 214.0 8.0 42.0 -97.0 -63.0C-73.0 -94.0 -34.0 -163.0 -22.0 -195.0C108.0 -62.0 191.0 151.0 237.0 379.0Z"/></g>
<g fill="red" transform="translate(100 200) scale(0.1 -0.1)"><path d="M0.0 0.0V-518.0H26.0V26.0V27.0ZM-458.0 -422.0 -452.0 -453.0C-357.0 -432.0 -217.0 -402.0 -81.0 -372.0L-83.0 -344.0C-224.0 -374.0 -367.0 -405.0 -458.0 -422.0ZM134.0 380.0C91.0 187.0 18.0 12.0 -86.0 -103.0C-78.0 -107.0 -66.0 -117.0 -61.0 -122.0C41.0 -3.0 116.0 173.0 163.0 374.0Z"/></g>
<g fill="black" opacity=".8" transform="translate(100 200) scale(0.1 -0.1)"><path d="M0.0 0.0V-518.0H26.0V26.0V27.0ZM-458.0 -422.0 -452.0 -453.0C-357.0 -432.0 -217.0 -402.0 -81.0 -372.0L-83.0 -344.0C-224.0 -374.0 -367.0 -405.0 -458.0 -422.0ZM134.0 380.0C91.0 187.0 18.0 12.0 -86.0 -103.0C-78.0 -107.0 -66.0 -117.0 -61.0 -122.0C41.0 -3.0 116.0 173.0 163.0 374.0Z"/></g>
<g fill="red" transform="translate(200 200) scale(0.1 -0.1)"><path d="M0.0 0.0V-545.0H118.0V66.0L74.0 78.0ZM-456.0 -363.0 -439.0 -501.0C-330.0 -484.0 -186.0 -462.0 -51.0 -439.0L-56.0 -312.0C-199.0 -332.0 -353.0 -352.0 -456.0 -363.0ZM108.0 404.0C73.0 214.0 8.0 42.0 -97.0 -63.0C-73.0 -94.0 -34.0 -163.0 -22.0 -195.0C108.0 -62.0 191.0 151.0 237.0 379.0Z"/></g>
<g fill="black" opacity=".8" transform="translate(200 200) scale(0.1 -0.1)"><path d="M0.0 0.0V-545.0H118.0V66.0L74.0 78.0ZM-456.0 -363.0 -439.0 -501.0C-330.0 -484.0 -186.0 -462.0 -51.0 -439.0L-56.0 -312.0C-199.0 -332.0 -353.0 -352.0 -456.0 -363.0ZM108.0 404.0C73.0 214.0 8.0 42.0 -97.0 -63.0C-73.0 -94.0 -34.0 -163.0 -22.0 -195.0C108.0 -62.0 191.0 151.0 237.0 379.0Z"/></g>
</svg>
