<?xml version="1.0" encoding="UTF-8"?>
<svg width="1700" height="300" xmlns="http://www.w3.org/2000/svg">
<rect width="100%" height="100%" fill="white"/>
<g fill="green" transform="translate(100 100) scale(0.1 -0.1)"><path d="M0.0 0.0V-408.0H272.0V0.0ZM-32.0 -547.0 -25.0 -578.0C63.0 -561.0 181.0 -539.0 299.0 -516.0L297.0 -488.0C174.0 -511.0 50.0 -534.0 -32.0 -547.0ZM312.0 -569.0C312.0 -554.0 365.0 -515.0 365.0 -515.0V196.0H335.0V-469.0C335.0 -510.0 306.0 -534.0 292.0 -542.0C299.0 -549.0 308.0 -561.0 312.0 -569.0ZM426.0 -291.0C479.0 -381.0 530.0 -501.0 547.0 -575.0L574.0 -563.0C558.0 -490.0 506.0 -372.0 452.0 -282.0ZM312.0 -569.0C323.0 -557.0 344.0 -545.0 522.0 -457.0C520.0 -451.0 516.0 -441.0 515.0 -432.0L328.0 -515.0L311.0 -538.0Z"/></g>
<g fill="green" transform="translate(200 100) scale(0.1 -0.1)"><path d="M0.0 0.0V-478.0H317.0V0.0ZM-26.0 -544.0 -8.0 -666.0C86.0 -655.0 204.0 -642.0 318.0 -627.0L315.0 -516.0C190.0 -527.0 62.0 -538.0 -26.0 -544.0ZM357.0 -617.0C357.0 -576.0 447.0 -515.0 447.0 -515.0V211.0H343.0V-434.0C343.0 -479.0 322.0 -508.0 304.0 -522.0C322.0 -543.0 348.0 -590.0 357.0 -617.0ZM458.0 -329.0C498.0 -430.0 530.0 -560.0 535.0 -640.0L638.0 -604.0C631.0 -523.0 595.0 -397.0 552.0 -299.0ZM357.0 -617.0C377.0 -597.0 409.0 -574.0 575.0 -504.0C567.0 -479.0 559.0 -432.0 556.0 -399.0L378.0 -464.0L339.0 -503.0Z"/></g>
<g fill="green" transform="translate(300 100) scale(0.1 -0.1)"><path d="M0.0 0.0V-408.0H272.0V0.0ZM-32.0 -547.0 -25.0 -578.0C63.0 -561.0 181.0 -539.0 299.0 -516.0L297.0 -488.0C174.0 -511.0 50.0 -534.0 -32.0 -547.0ZM312.0 -569.0C312.0 -554.0 365.0 -515.0 365.0 -515.0V196.0H335.0V-469.0C335.0 -510.0 306.0 -534.0 292.0 -542.0C299.0 -549.0 308.0 -561.0 312.0 -569.0ZM426.0 -291.0C479.0 -381.0 530.0 -501.0 547.0 -575.0L574.0 -563.0C558.0 -490.0 506.0 -372.0 452.0 -282.0ZM312.0 -569.0C323.0 -557.0 344.0 -545.0 522.0 -457.0C520.0 -451.0 516.0 -441.0 515.0 -432.0L328.0 -515.0L311.0 -538.0Z"/></g>
<g fill="green" transform="translate(400 100) scale(0.1 -0.1)"><path d="M0.0 0.0V-478.0H317.0V0.0ZM-26.0 -544.0 -8.0 -666.0C86.0 -655.0 204.0 -642.0 318.0 -627.0L315.0 -516.0C190.0 -527.0 62.0 -538.0 -26.0 -544.0ZM357.0 -617.0C357.0 -576.0 447.0 -515.0 447.0 -515.0V211.0H343.0V-434.0C343.0 -479.0 322.0 -508.0 304.0 -522.0C322.0 -543.0 348.0 -590.0 357.0 -617.0ZM458.0 -329.0C498.0 -430.0 530.0 -560.0 535.0 -640.0L638.0 -604.0C631.0 -523.0 595.0 -397.0 552.0 -299.0ZM357.0 -617.0C377.0 -597.0 409.0 -574.0 575.0 -504.0C567.0 -479.0 559.0 -432.0 556.0 -399.0L378.0 -464.0L339.0 -503.0Z"/></g>
<g fill="red" transform="translate(100 200) scale(0.1 -0.1)"><path d="M0.0 0.0V-408.0H272.0V0.0ZM-32.0 -547.0 -25.0 -578.0C63.0 -561.0 181.0 -539.0 299.0 -516.0L297.0 -488.0C174.0 -511.0 50.0 -534.0 -32.0 -547.0ZM312.0 -569.0C312.0 -554.0 365.0 -515.0 365.0 -515.0V196.0H335.0V-469.0C335.0 -510.0 306.0 -534.0 292.0 -542.0C299.0 -549.0 308.0 -561.0 312.0 -569.0ZM426.0 -291.0C479.0 -381.0 530.0 -501.0 547.0 -575.0L574.0 -563.0C558.0 -490.0 506.0 -372.0 452.0 -282.0ZM312.0 -569.0C323.0 -557.0 344.0 -545.0 522.0 -457.0C520.0 -451.0 516.0 -441.0 515.0 -432.0L328.0 -515.0L311.0 -538.0Z"/></g>
<g fill="black" opacity=".8" transform="translate(100 200) scale(0.1 -0.1)"><path d="M0.0 0.0V-408.0H272.0V0.0ZM-32.0 -547.0 -25.0 -578.0C63.0 -561.0 181.0 -539.0 299.0 -516.0L297.0 -488.0C174.0 -511.0 50.0 -534.0 -32.0 -547.0ZM312.0 -569.0C312.0 -554.0 365.0 -515.0 365.0 -515.0V196.0H335.0V-469.0C335.0 -510.0 306.0 -534.0 292.0 -542.0C299.0 -549.0 308.0 -561.0 312.0 -569.0ZM426.0 -291.0C479.0 -381.0 530.0 -501.0 547.0 -575.0L574.0 -563.0C558.0 -490.0 506.0 -372.0 452.0 -282.0ZM312.0 -569.0C323.0 -557.0 344.0 -545.0 522.0 -457.0C520.0 -451.0 516.0 -441.0 515.0 -432.0L328.0 -515.0L311.0 -538.0Z"/></g>
<g fill="red" transform="translate(200 200) scale(0.1 -0.1)"><path d="M0.0 0.0V-478.0H317.0V0.0ZM-26.0 -544.0 -8.0 -666.0C86.0 -655.0 204.0 -642.0 318.0 -627.0L315.0 -516.0C190.0 -527.0 62.0 -538.0 -26.0 -544.0ZM357.0 -617.0C357.0 -576.0 447.0 -515.0 447.0 -515.0V211.0H343.0V-434.0C343.0 -479.0 322.0 -508.0 304.0 -522.0C322.0 -543.0 348.0 -590.0 357.0 -617.0ZM458.0 -329.0C498.0 -430.0 530.0 -560.0 535.0 -640.0L638.0 -604.0C631.0 -523.0 595.0 -397.0 552.0 -299.0ZM357.0 -617.0C377.0 -597.0 409.0 -574.0 575.0 -504.0C567.0 -479.0 559.0 -432.0 556.0 -399.0L378.0 -464.0L339.0 -503.0Z"/></g>
<g fill="black" opacity=".8" transform="translate(200 200) scale(0.1 -0.1)"><path d="M0.0 0.0V-478.0H317.0V0.0ZM-26.0 -544.0 -8.0 -666.0C86.0 -655.0 204.0 -642.0 318.0 -627.0L315.0 -516.0C190.0 -527.0 62.0 -538.0 -26.0 -544.0ZM357.0 -617.0C357.0 -576.0 447.0 -515.0 447.0 -515.0V211.0H343.0V-434.0C343.0 -479.0 322.0 -508.0 304.0 -522.0C322.0 -543.0 348.0 -590.0 357.0 -617.0ZM458.0 -329.0C498.0 -430.0 530.0 -560.0 535.0 -640.0L638.0 -604.0C631.0 -523.0 595.0 -397.0 552.0 -299.0ZM357.0 -617.0C377.0 -597.0 409.0 -574.0 575.0 -504.0C567.0 -479.0 559.0 -432.0 556.0 -399.0L378.0 -464.0L339.0 -503.0Z"/></g>
</svg>
