<?xml version="1.0" encoding="UTF-8"?>
<svg width="1700" height="300" xmlns="http://www.w3.org/2000/svg">
<rect width="100%" height="100%" fill="white"/>
<g fill="green" transform="translate(100 100) scale(0.1 -0.1)"><path d="M0.0 0.0V-627.0H29.0V0.0ZM17.0 -251.0V-281.0H339.0V-251.0ZM-50.0 -630.0 -42.0 -659.0C62.0 -629.0 211.0 -584.0 353.0 -541.0L349.0 -513.0C201.0 -557.0 48.0 -603.0 -50.0 -630.0ZM293.0 99.0C229.0 63.0 105.0 26.0 0.0 0.0C4.0 -7.0 9.0 -17.0 12.0 -24.0C119.0 2.0 244.0 38.0 322.0 77.0Z"/></g>
<g fill="green" transform="translate(200 100) scale(0.1 -0.1)"><path d="M0.0 0.0V-626.0H144.0V0.0ZM68.0 -212.0V-352.0H375.0V-212.0ZM-43.0 -591.0 -12.0 -736.0C106.0 -696.0 258.0 -645.0 397.0 -594.0L376.0 -469.0C224.0 -516.0 61.0 -565.0 -43.0 -591.0ZM292.0 94.0C216.0 59.0 104.0 23.0 0.0 0.0C16.0 -31.0 37.0 -84.0 44.0 -116.0C157.0 -96.0 289.0 -66.0 400.0 -25.0Z"/></g>
<g fill="green" transform="translate(300 100) scale(0.1 -0.1)"><path d="M0.0 0.0V-627.0H29.0V0.0ZM17.0 -251.0V-281.0H339.0V-251.0ZM-50.0 -630.0 -42.0 -659.0C62.0 -629.0 211.0 -584.0 353.0 -541.0L349.0 -513.0C201.0 -557.0 48.0 -603.0 -50.0 -630.0ZM293.0 99.0C229.0 63.0 105.0 26.0 0.0 0.0C4.0 -7.0 9.0 -17.0 12.0 -24.0C119.0 2.0 244.0 38.0 322.0 77.0Z"/></g>
<g fill="green" transform="translate(400 100) scale(0.1 -0.1)"><path d="M0.0 0.0V-626.0H144.0V0.0ZM68.0 -212.0V-352.0H375.0V-212.0ZM-43.0 -591.0 -12.0 -736.0C106.0 -696.0 258.0 -645.0 397.0 -594.0L376.0 -469.0C224.0 -516.0 61.0 -565.0 -43.0 -591.0ZM292.0 94.0C216.0 59.0 104.0 23.0 0.0 0.0C16.0 -31.0 37.0 -84.0 44.0 -116.0C157.0 -96.0 289.0 -66.0 400.0 -25.0Z"/></g>
<g fill="red" transform="translate(100 200) scale(0.1 -0.1)"><path d="M0.0 0.0V-627.0H29.0V0.0ZM17.0 -251.0V-281.0H339.0V-251.0ZM-50.0 -630.0 -42.0 -659.0C62.0 -629.0 211.0 -584.0 353.0 -541.0L349.0 -513.0C201.0 -557.0 48.0 -603.0 -50.0 -630.0ZM293.0 99.0C229.0 63.0 105.0 26.0 0.0 0.0C4.0 -7.0 9.0 -17.0 12.0 -24.0C119.0 2.0 244.0 38.0 322.0 77.0Z"/></g>
<g fill="black" opacity=".8" transform="translate(100 200) scale(0.1 -0.1)"><path d="M0.0 0.0V-627.0H29.0V0.0ZM17.0 -251.0V-281.0H339.0V-251.0ZM-50.0 -630.0 -42.0 -659.0C62.0 -629.0 211.0 -584.0 353.0 -541.0L349.0 -513.0C201.0 -557.0 48.0 -603.0 -50.0 -630.0ZM293.0 99.0C229.0 63.0 105.0 26.0 0.0 0.0C4.0 -7.0 9.0 -17.0 12.0 -24.0C119.0 2.0 244.0 38.0 322.0 77.0Z"/></g>
<g fill="red" transform="translate(200 200) scale(0.1 -0.1)"><path d="M0.0 0.0V-626.0H144.0V0.0ZM68.0 -212.0V-352.0H375.0V-212.0ZM-43.0 -591.0 -12.0 -736.0C106.0 -696.0 258.0 -645.0 397.0 -594.0L376.0 -469.0C224.0 -516.0 61.0 -565.0 -43.0 -591.0ZM292.0 94.0C216.0 59.0 104.0 23.0 0.0 0.0C16.0 -31.0 37.0 -84.0 44.0 -116.0C157.0 -96.0 289.0 -66.0 400.0 -25.0Z"/></g>
<g fill="black" opacity=".8" transform="translate(200 200) scale(0.1 -0.1)"><path d="M0.0 0.0V-626.0H144.0V0.0ZM68.0 -212.0V-352.0H375.0V-212.0ZM-43.0 -591.0 -12.0 -736.0C106.0 -696.0 258.0 -645.0 397.0 -594.0L376.0 -469.0C224.0 -516.0 61.0 -565.0 -43.0 -591.0ZM292.0 94.0C216.0 59.0 104.0 23.0 0.0 0.0C16.0 -31.0 37.0 -84.0 44.0 -116.0C157.0 -96.0 289.0 -66.0 400.0 -25.0Z"/></g>
</svg>
