<?xml version="1.0" encoding="UTF-8"?>
<svg width="1700" height="300" xmlns="http://www.w3.org/2000/svg">
<rect width="100%" height="100%" fill="white"/>
<g fill="green" transform="translate(100 100) scale(0.1 -0.1)"><path d="M0.0 0.0V-30.0H407.0V0.0ZM86.0 -475.0V-504.0H356.0V-475.0ZM195.0 78.0V-116.0H224.0V78.0ZM628.0 77.0V-117.0H657.0V77.0ZM-21.0 -657.0 -15.0 -687.0C87.0 -673.0 232.0 -653.0 373.0 -632.0L372.0 -605.0C224.0 -625.0 76.0 -645.0 -21.0 -657.0ZM339.0 -125.0C278.0 -148.0 166.0 -176.0 70.0 -193.0C75.0 -200.0 80.0 -211.0 82.0 -217.0C180.0 -200.0 293.0 -175.0 368.0 -147.0Z"/></g>
<g fill="green" transform="translate(200 100) scale(0.1 -0.1)"><path d="M0.0 0.0V-123.0H437.0V0.0ZM155.0 -494.0V-612.0H381.0V-494.0ZM171.0 47.0V-169.0H315.0V47.0ZM599.0 47.0V-169.0H743.0V47.0ZM1.0 -676.0 14.0 -806.0C121.0 -794.0 261.0 -779.0 393.0 -763.0L390.0 -644.0C249.0 -656.0 101.0 -669.0 1.0 -676.0ZM319.0 -162.0C257.0 -188.0 159.0 -213.0 70.0 -229.0C85.0 -255.0 102.0 -300.0 108.0 -328.0C207.0 -314.0 325.0 -292.0 420.0 -259.0Z"/></g>
<g fill="green" transform="translate(300 100) scale(0.1 -0.1)"><path d="M0.0 0.0V-30.0H407.0V0.0ZM86.0 -475.0V-504.0H356.0V-475.0ZM195.0 78.0V-116.0H224.0V78.0ZM628.0 77.0V-117.0H657.0V77.0ZM-21.0 -657.0 -15.0 -687.0C87.0 -673.0 232.0 -653.0 373.0 -632.0L372.0 -605.0C224.0 -625.0 76.0 -645.0 -21.0 -657.0ZM339.0 -125.0C278.0 -148.0 166.0 -176.0 70.0 -193.0C75.0 -200.0 80.0 -211.0 82.0 -217.0C180.0 -200.0 293.0 -175.0 368.0 -147.0Z"/></g>
<g fill="green" transform="translate(400 100) scale(0.1 -0.1)"><path d="M0.0 0.0V-123.0H437.0V0.0ZM155.0 -494.0V-612.0H381.0V-494.0ZM171.0 47.0V-169.0H315.0V47.0ZM599.0 47.0V-169.0H743.0V47.0ZM1.0 -676.0 14.0 -806.0C121.0 -794.0 261.0 -779.0 393.0 -763.0L390.0 -644.0C249.0 -656.0 101.0 -669.0 1.0 -676.0ZM319.0 -162.0C257.0 -188.0 159.0 -213.0 70.0 -229.0C85.0 -255.0 102.0 -300.0 108.0 -328.0C207.0 -314.0 325.0 -292.0 420.0 -259.0Z"/></g>
<g fill="red" transform="translate(100 200) scale(0.1 -0.1)"><path d="M0.0 0.0V-30.0H407.0V0.0ZM86.0 -475.0V-504.0H356.0V-475.0ZM195.0 78.0V-116.0H224.0V78.0ZM628.0 77.0V-117.0H657.0V77.0ZM-21.0 -657.0 -15.0 -687.0C87.0 -673.0 232.0 -653.0 373.0 -632.0L372.0 -605.0C224.0 -625.0 76.0 -645.0 -21.0 -657.0ZM339.0 -125.0C278.0 -148.0 166.0 -176.0 70.0 -193.0C75.0 -200.0 80.0 -211.0 82.0 -217.0C180.0 -200.0 293.0 -175.0 368.0 -147.0Z"/></g>
<g fill="black" opacity=".8" transform="translate(100 200) scale(0.1 -0.1)"><path d="M0.0 0.0V-30.0H407.0V0.0ZM86.0 -475.0V-504.0H356.0V-475.0ZM195.0 78.0V-116.0H224.0V78.0ZM628.0 77.0V-117.0H657.0V77.0ZM-21.0 -657.0 -15.0 -687.0C87.0 -673.0 232.0 -653.0 373.0 -632.0L372.0 -605.0C224.0 -625.0 76.0 -645.0 -21.0 -657.0ZM339.0 -125.0C278.0 -148.0 166.0 -176.0 70.0 -193.0C75.0 -200.0 80.0 -211.0 82.0 -217.0C180.0 -200.0 293.0 -175.0 368.0 -147.0Z"/></g>
<g fill="red" transform="translate(200 200) scale(0.1 -0.1)"><path d="M0.0 0.0V-123.0H437.0V0.0ZM155.0 -494.0V-612.0H381.0V-494.0ZM171.0 47.0V-169.0H315.0V47.0ZM599.0 47.0V-169.0H743.0V47.0ZM1.0 -676.0 14.0 -806.0C121.0 -794.0 261.0 -779.0 393.0 -763.0L390.0 -644.0C249.0 -656.0 101.0 -669.0 1.0 -676.0ZM319.0 -162.0C257.0 -188.0 159.0 -213.0 70.0 -229.0C85.0 -255.0 102.0 -300.0 108.0 -328.0C207.0 -314.0 325.0 -292.0 420.0 -259.0Z"/></g>
<g fill="black" opacity=".8" transform="translate(200 200) scale(0.1 -0.1)"><path d="M0.0 0.0V-123.0H437.0V0.0ZM155.0 -494.0V-612.0H381.0V-494.0ZM171.0 47.0V-169.0H315.0V47.0ZM599.0 47.0V-169.0H743.0V47.0ZM1.0 -676.0 14.0 -806.0C121.0 -794.0 261.0 -779.0 393.0 -763.0L390.0 -644.0C249.0 -656.0 101.0 -669.0 1.0 -676.0ZM319.0 -162.0C257.0 -188.0 159.0 -213.0 70.0 -229.0C85.0 -255.0 102.0 -300.0 108.0 -328.0C207.0 -314.0 325.0 -292.0 420.0 -259.0Z"/></g>
</svg>
