<?xml version="1.0" encoding="UTF-8"?>
<svg width="1700" height="300" xmlns="http://www.w3.org/2000/svg">
<rect width="100%" height="100%" fill="white"/>
<g fill="green" transform="translate(100 100) scale(0.1 -0.1)"><path d="M0.0 0.0V-30.0H76.0H446.0H521.0V0.0H446.0H76.0ZM-209.0 -196.0V-378.0V-724.0H-180.0V-378.0V-196.0ZM35.0 -204.0V-349.0H492.0V-204.0ZM64.0 -233.0H462.0V-320.0H64.0ZM66.0 103.0V-136.0H455.0V103.0ZM96.0 73.0H426.0V-107.0H96.0ZM244.0 179.0V-332.0H273.0V179.0Z"/></g>
<g fill="green" transform="translate(200 100) scale(0.1 -0.1)"><path d="M0.0 0.0V-103.0H122.0V-91.0H435.0V-103.0H558.0V0.0H435.0V-12.0H122.0V0.0ZM-234.0 -269.0V-455.0H-250.0V-808.0H-129.0V-455.0H-144.0V-269.0ZM21.0 -224.0V-418.0H522.0V-224.0ZM132.0 -309.0H406.0V-334.0H132.0ZM38.0 97.0V-200.0H512.0V97.0ZM153.0 14.0H391.0V-116.0H153.0ZM206.0 143.0V-366.0H337.0V143.0Z"/></g>
<g fill="green" transform="translate(300 100) scale(0.1 -0.1)"><path d="M0.0 0.0V-30.0H76.0H446.0H521.0V0.0H446.0H76.0ZM-209.0 -196.0V-378.0V-724.0H-180.0V-378.0V-196.0ZM35.0 -204.0V-349.0H492.0V-204.0ZM64.0 -233.0H462.0V-320.0H64.0ZM66.0 103.0V-136.0H455.0V103.0ZM96.0 73.0H426.0V-107.0H96.0ZM244.0 179.0V-332.0H273.0V179.0Z"/></g>
<g fill="green" transform="translate(400 100) scale(0.1 -0.1)"><path d="M0.0 0.0V-103.0H122.0V-91.0H435.0V-103.0H558.0V0.0H435.0V-12.0H122.0V0.0ZM-234.0 -269.0V-455.0H-250.0V-808.0H-129.0V-455.0H-144.0V-269.0ZM21.0 -224.0V-418.0H522.0V-224.0ZM132.0 -309.0H406.0V-334.0H132.0ZM38.0 97.0V-200.0H512.0V97.0ZM153.0 14.0H391.0V-116.0H153.0ZM206.0 143.0V-366.0H337.0V143.0Z"/></g>
<g fill="red" transform="translate(100 200) scale(0.1 -0.1)"><path d="M0.0 0.0V-30.0H76.0H446.0H521.0V0.0H446.0H76.0ZM-209.0 -196.0V-378.0V-724.0H-180.0V-378.0V-196.0ZM35.0 -204.0V-349.0H492.0V-204.0ZM64.0 -233.0H462.0V-320.0H64.0ZM66.0 103.0V-136.0H455.0V103.0ZM96.0 73.0H426.0V-107.0H96.0ZM244.0 179.0V-332.0H273.0V179.0Z"/></g>
<g fill="black" opacity=".8" transform="translate(100 200) scale(0.1 -0.1)"><path d="M0.0 0.0V-30.0H76.0H446.0H521.0V0.0H446.0H76.0ZM-209.0 -196.0V-378.0V-724.0H-180.0V-378.0V-196.0ZM35.0 -204.0V-349.0H492.0V-204.0ZM64.0 -233.0H462.0V-320.0H64.0ZM66.0 103.0V-136.0H455.0V103.0ZM96.0 73.0H426.0V-107.0H96.0ZM244.0 179.0V-332.0H273.0V179.0Z"/></g>
<g fill="red" transform="translate(200 200) scale(0.1 -0.1)"><path d="M0.0 0.0V-103.0H122.0V-91.0H435.0V-103.0H558.0V0.0H435.0V-12.0H122.0V0.0ZM-234.0 -269.0V-455.0H-250.0V-808.0H-129.0V-455.0H-144.0V-269.0ZM21.0 -224.0V-418.0H522.0V-224.0ZM132.0 -309.0H406.0V-334.0H132.0ZM38.0 97.0V-200.0H512.0V97.0ZM153.0 14.0H391.0V-116.0H153.0ZM206.0 143.0V-366.0H337.0V143.0Z"/></g>
<g fill="black" opacity=".8" transform="translate(200 200) scale(0.1 -0.1)"><path d="M0.0 0.0V-103.0H122.0V-91.0H435.0V-103.0H558.0V0.0H435.0V-12.0H122.0V0.0ZM-234.0 -269.0V-455.0H-250.0V-808.0H-129.0V-455.0H-144.0V-269.0ZM21.0 -224.0V-418.0H522.0V-224.0ZM132.0 -309.0H406.0V-334.0H132.0ZM38.0 97.0V-200.0H512.0V97.0ZM153.0 14.0H391.0V-116.0H153.0ZM206.0 143.0V-366.0H337.0V143.0Z"/></g>
</svg>
