<?xml version="1.0" encoding="UTF-8"?>
<svg width="1700" height="500" xmlns="http://www.w3.org/2000/svg">
<rect width="100%" height="100%" fill="white"/>
<g fill="green" transform="translate(100 100) scale(0.1 -0.1)"><path d="M0.0 -0.0V-523.0H452.0V0.0ZM38.0 -436.0 585.0 -384.0 -13.0 -636.0 -559.0 -689.0ZM-33.0 -356.0 223.0 -706.0 -286.0 -890.0 -542.0 -517.0ZM461.0 -234.0 422.0 -848.0 256.0 -830.0 295.0 -216.0ZM270.0 -645.0V-618.0H673.0V-645.0ZM806.0 -560.0V-567.0C793.0 -806.0 779.0 -893.0 760.0 -915.0C751.0 -924.0 742.0 -925.0 728.0 -924.0C714.0 -924.0 670.0 -924.0 624.0 -920.0C629.0 -927.0 630.0 -939.0 632.0 -947.0C673.0 -950.0 715.0 -951.0 734.0 -951.0C759.0 -949.0 771.0 -946.0 783.0 -932.0C807.0 -904.0 820.0 -823.0 833.0 -579.0C833.0 -572.0 834.0 -560.0 834.0 -560.0ZM504.0 -109.0C501.0 -138.0 490.0 -184.0 479.0 -215.0L500.0 -220.0C511.0 -192.0 520.0 -152.0 528.0 -118.0Z"/></g>
<g fill="green" transform="translate(200 100) scale(0.1 -0.1)"><path d="M0.0 0.0V-567.0H541.0V0.0ZM174.0 -545.0 490.0 -449.0 -109.0 -522.0 -425.0 -618.0ZM14.0 -461.0 172.0 -766.0 -169.0 -902.0 -327.0 -515.0ZM485.0 -216.0 462.0 -882.0 429.0 -876.0 452.0 -210.0ZM357.0 -646.0V-655.0H686.0V-646.0ZM837.0 -534.0V-552.0C833.0 -769.0 828.0 -843.0 817.0 -861.0C811.0 -870.0 804.0 -873.0 796.0 -873.0C785.0 -873.0 775.0 -874.0 756.0 -870.0C771.0 -900.0 783.0 -944.0 783.0 -980.0C807.0 -979.0 830.0 -978.0 845.0 -973.0C868.0 -968.0 879.0 -957.0 893.0 -932.0C913.0 -902.0 919.0 -808.0 924.0 -575.0C924.0 -562.0 925.0 -534.0 925.0 -534.0ZM567.0 -102.0C568.0 -141.0 567.0 -196.0 563.0 -239.0L663.0 -255.0C675.0 -219.0 690.0 -168.0 703.0 -116.0Z"/></g>
<g fill="green" transform="translate(300 100) scale(0.1 -0.1)"><path d="M0.0 0.0V-455.0H315.0V0.0ZM24.0 -449.0 518.0 -351.0 -161.0 -582.0 -654.0 -681.0ZM-94.0 -320.0 100.0 -646.0 -461.0 -801.0 -656.0 -452.0ZM343.0 -272.0 285.0 -783.0 84.0 -756.0 142.0 -246.0ZM106.0 -656.0V-554.0H428.0V-656.0ZM483.0 -440.0V-444.0C475.0 -608.0 467.0 -667.0 455.0 -681.0C449.0 -687.0 443.0 -688.0 435.0 -687.0C427.0 -687.0 398.0 -687.0 369.0 -685.0C372.0 -688.0 372.0 -695.0 373.0 -700.0C400.0 -702.0 427.0 -703.0 439.0 -703.0C455.0 -701.0 462.0 -700.0 469.0 -690.0C483.0 -672.0 491.0 -618.0 498.0 -451.0C498.0 -447.0 499.0 -440.0 499.0 -440.0ZM312.0 -200.0C309.0 -217.0 300.0 -246.0 292.0 -265.0L303.0 -269.0C311.0 -252.0 318.0 -227.0 325.0 -207.0Z"/></g>
<g fill="green" transform="translate(400 100) scale(0.1 -0.1)"><path d="M0.0 0.0V-473.0H388.0V0.0ZM145.0 -545.0 432.0 -392.0 -260.0 -458.0 -546.0 -611.0ZM-66.0 -402.0 56.0 -678.0 -339.0 -802.0 -462.0 -447.0ZM357.0 -245.0 323.0 -794.0 237.0 -785.0 270.0 -236.0ZM182.0 -650.0V-571.0H419.0V-650.0ZM526.0 -406.0V-417.0C524.0 -570.0 522.0 -620.0 516.0 -632.0C513.0 -637.0 509.0 -640.0 505.0 -640.0C499.0 -640.0 498.0 -641.0 489.0 -638.0C499.0 -658.0 506.0 -685.0 506.0 -710.0C515.0 -708.0 524.0 -707.0 530.0 -704.0C543.0 -700.0 545.0 -692.0 552.0 -676.0C563.0 -657.0 565.0 -593.0 567.0 -430.0C567.0 -423.0 567.0 -406.0 567.0 -406.0ZM383.0 -186.0C384.0 -210.0 384.0 -245.0 382.0 -273.0L434.0 -288.0C442.0 -265.0 453.0 -233.0 462.0 -200.0Z"/></g>
<g fill="green" transform="translate(500 100) scale(0.1 -0.1)"><path d="M0.0 -0.0V-334.0H533.0V0.0ZM53.0 395.0 374.0 63.0 175.0 -106.0 -145.0 224.0ZM-212.0 367.0 244.0 -13.0 -435.0 -271.0 -891.0 128.0ZM207.0 363.0 459.0 179.0 313.0 70.0 61.0 253.0ZM282.0 339.0V-76.0H407.0V339.0ZM1134.0 67.0V58.0C1115.0 -259.0 1096.0 -376.0 1067.0 -406.0C1055.0 -418.0 1042.0 -420.0 1020.0 -418.0C999.0 -418.0 932.0 -418.0 862.0 -412.0C869.0 -422.0 871.0 -438.0 874.0 -449.0C937.0 -454.0 1000.0 -455.0 1030.0 -456.0C1064.0 -453.0 1082.0 -449.0 1099.0 -430.0C1133.0 -391.0 1152.0 -281.0 1171.0 41.0C1171.0 50.0 1173.0 67.0 1173.0 67.0ZM1002.0 819.0C978.0 782.0 938.0 718.0 908.0 676.0L938.0 653.0C967.0 690.0 1004.0 742.0 1040.0 791.0Z"/></g>
<g fill="green" transform="translate(600 100) scale(0.1 -0.1)"><path d="M0.0 0.0V-432.0H559.0V0.0ZM89.0 337.0 278.0 -14.0 139.0 -59.0 -50.0 292.0ZM-138.0 233.0 122.0 -55.0 -400.0 -203.0 -660.0 156.0ZM285.0 316.0 417.0 97.0 313.0 65.0 180.0 284.0ZM293.0 323.0V-88.0H460.0V323.0ZM1121.0 91.0V66.0C1116.0 -216.0 1109.0 -313.0 1094.0 -337.0C1085.0 -350.0 1076.0 -354.0 1063.0 -354.0C1048.0 -354.0 1030.0 -355.0 1001.0 -349.0C1023.0 -391.0 1039.0 -455.0 1039.0 -505.0C1078.0 -504.0 1114.0 -502.0 1137.0 -495.0C1169.0 -489.0 1188.0 -474.0 1209.0 -440.0C1237.0 -398.0 1246.0 -273.0 1253.0 33.0C1254.0 51.0 1255.0 91.0 1255.0 91.0ZM1032.0 846.0C1020.0 792.0 1000.0 718.0 983.0 655.0L1113.0 602.0C1146.0 652.0 1193.0 721.0 1236.0 803.0Z"/></g>
<g fill="green" transform="translate(700 100) scale(0.1 -0.1)"><path d="M0.0 0.0V-775.0H295.0V0.0ZM16.0 -746.0 710.0 -478.0 211.0 -784.0 -482.0 -1053.0ZM94.0 -322.0 217.0 -508.0 334.0 -620.0 211.0 -415.0ZM465.0 344.0 438.0 -61.0 607.0 -49.0 634.0 355.0ZM168.0 -507.0V-263.0H660.0V-507.0ZM755.0 -715.0V-722.0C740.0 -871.0 725.0 -926.0 708.0 -944.0C699.0 -951.0 689.0 -952.0 676.0 -952.0C662.0 -952.0 625.0 -951.0 580.0 -948.0C586.0 -955.0 588.0 -969.0 590.0 -977.0C626.0 -979.0 664.0 -980.0 681.0 -980.0C705.0 -979.0 718.0 -976.0 731.0 -965.0C755.0 -944.0 770.0 -888.0 785.0 -736.0C787.0 -728.0 788.0 -715.0 788.0 -715.0ZM594.0 -247.0C584.0 -267.0 563.0 -302.0 547.0 -326.0L573.0 -335.0C588.0 -315.0 606.0 -288.0 624.0 -261.0Z"/></g>
<g fill="green" transform="translate(800 100) scale(0.1 -0.1)"><path d="M0.0 0.0V-775.0H422.0V0.0ZM261.0 -865.0 641.0 -518.0 52.0 -609.0 -328.0 -956.0ZM154.0 -352.0 231.0 -557.0 432.0 -660.0 355.0 -385.0ZM486.0 414.0 469.0 -66.0 720.0 -62.0 736.0 418.0ZM227.0 -513.0V-297.0H671.0V-513.0ZM751.0 -703.0V-720.0C746.0 -844.0 740.0 -890.0 729.0 -903.0C722.0 -910.0 715.0 -912.0 706.0 -912.0C694.0 -912.0 678.0 -913.0 655.0 -909.0C670.0 -934.0 683.0 -973.0 682.0 -1001.0C723.0 -1001.0 760.0 -1001.0 781.0 -998.0C808.0 -995.0 832.0 -986.0 850.0 -965.0C872.0 -942.0 883.0 -882.0 889.0 -744.0C891.0 -730.0 892.0 -703.0 892.0 -703.0ZM608.0 -244.0C606.0 -270.0 599.0 -307.0 593.0 -341.0L743.0 -373.0C757.0 -346.0 780.0 -312.0 801.0 -269.0Z"/></g>
<g fill="green" transform="translate(900 100) scale(0.1 -0.1)"><path d="M0.0 0.0V-413.0H454.0V0.0ZM52.0 -528.0 369.0 -630.0 185.0 -792.0 -131.0 -691.0ZM-178.0 -254.0 217.0 -438.0 -253.0 -709.0 -649.0 -508.0ZM258.0 -243.0 265.0 -781.0 98.0 -783.0 91.0 -246.0ZM220.0 -326.0V-440.0H567.0V-326.0ZM904.0 -547.0V-555.0C887.0 -812.0 870.0 -907.0 847.0 -932.0C837.0 -941.0 828.0 -942.0 811.0 -942.0C793.0 -942.0 741.0 -941.0 688.0 -936.0C693.0 -945.0 694.0 -959.0 697.0 -967.0C746.0 -971.0 795.0 -973.0 817.0 -972.0C845.0 -971.0 860.0 -967.0 874.0 -952.0C902.0 -919.0 918.0 -831.0 935.0 -569.0C936.0 -562.0 937.0 -547.0 937.0 -547.0ZM91.0 -178.0C111.0 -217.0 127.0 -271.0 131.0 -307.0L156.0 -297.0C152.0 -262.0 134.0 -212.0 116.0 -172.0Z"/></g>
<g fill="green" transform="translate(1000 100) scale(0.1 -0.1)"><path d="M0.0 0.0V-484.0H591.0V0.0ZM156.0 -619.0 351.0 -708.0 198.0 -745.0 3.0 -656.0ZM-41.0 -401.0 194.0 -530.0 -177.0 -676.0 -412.0 -486.0ZM328.0 -267.0 329.0 -832.0H269.0L268.0 -267.0ZM318.0 -320.0V-484.0H617.0V-320.0ZM934.0 -534.0V-553.0C929.0 -777.0 921.0 -857.0 909.0 -876.0C901.0 -886.0 892.0 -889.0 882.0 -889.0C867.0 -889.0 848.0 -891.0 820.0 -886.0C836.0 -920.0 851.0 -970.0 852.0 -1011.0C886.0 -1011.0 918.0 -1009.0 938.0 -1004.0C966.0 -999.0 981.0 -987.0 1000.0 -959.0C1024.0 -926.0 1031.0 -826.0 1039.0 -582.0C1040.0 -566.0 1041.0 -534.0 1041.0 -534.0ZM150.0 -201.0C167.0 -242.0 187.0 -300.0 196.0 -341.0L324.0 -315.0C319.0 -277.0 304.0 -224.0 290.0 -179.0Z"/></g>
<g fill="green" transform="translate(1100 100) scale(0.1 -0.1)"><path d="M0.0 0.0V-299.0H433.0V0.0ZM36.0 -58.0 443.0 -116.0 112.0 -260.0 -293.0 -202.0ZM253.0 -591.0 257.0 -1053.0 48.0 -1091.0 44.0 -606.0ZM757.0 -145.0 754.0 -982.0 540.0 -980.0 543.0 -144.0ZM502.0 -726.0V-467.0H1159.0V-726.0ZM829.0 -475.0V-482.0C816.0 -706.0 801.0 -789.0 785.0 -810.0C777.0 -819.0 769.0 -820.0 757.0 -818.0C745.0 -818.0 711.0 -819.0 676.0 -815.0C681.0 -823.0 682.0 -836.0 684.0 -844.0C714.0 -847.0 747.0 -847.0 763.0 -847.0C785.0 -845.0 796.0 -842.0 807.0 -828.0C831.0 -802.0 843.0 -725.0 857.0 -494.0C857.0 -488.0 858.0 -475.0 858.0 -475.0ZM355.0 -210.0C362.0 -235.0 365.0 -272.0 364.0 -298.0L384.0 -294.0C387.0 -269.0 381.0 -236.0 376.0 -208.0Z"/></g>
<g fill="green" transform="translate(1200 100) scale(0.1 -0.1)"><path d="M0.0 0.0V-353.0H478.0V0.0ZM127.0 -125.0 341.0 -175.0 32.0 -210.0 -182.0 -160.0ZM234.0 -638.0 222.0 -1092.0 179.0 -1183.0 190.0 -645.0ZM778.0 -127.0 775.0 -989.0 747.0 -988.0 749.0 -126.0ZM638.0 -693.0V-543.0H1145.0V-693.0ZM847.0 -462.0V-479.0C842.0 -682.0 834.0 -754.0 823.0 -772.0C816.0 -781.0 809.0 -784.0 800.0 -784.0C790.0 -784.0 777.0 -784.0 756.0 -781.0C771.0 -810.0 782.0 -852.0 782.0 -885.0C807.0 -885.0 831.0 -884.0 845.0 -879.0C869.0 -875.0 880.0 -865.0 894.0 -841.0C915.0 -811.0 923.0 -722.0 931.0 -502.0C931.0 -490.0 931.0 -462.0 931.0 -462.0ZM394.0 -220.0C399.0 -258.0 405.0 -312.0 406.0 -350.0L515.0 -353.0C518.0 -319.0 519.0 -269.0 520.0 -224.0Z"/></g>
<g fill="green" transform="translate(1300 100) scale(0.1 -0.1)"><path d="M0.0 -0.0V-316.0H593.0V0.0ZM43.0 -352.0 537.0 -326.0 -172.0 -549.0 -665.0 -576.0ZM-33.0 -104.0 400.0 -259.0 -216.0 -515.0 -650.0 -344.0ZM584.0 -242.0 569.0 -931.0 389.0 -926.0 405.0 -237.0ZM540.0 -516.0V-510.0H825.0V-516.0ZM750.0 -640.0V-646.0C739.0 -873.0 728.0 -954.0 711.0 -975.0C704.0 -982.0 695.0 -983.0 683.0 -983.0C670.0 -983.0 629.0 -982.0 587.0 -978.0C592.0 -985.0 592.0 -995.0 594.0 -1003.0C632.0 -1004.0 670.0 -1006.0 689.0 -1005.0C712.0 -1004.0 722.0 -1001.0 732.0 -989.0C753.0 -963.0 764.0 -887.0 774.0 -657.0C774.0 -650.0 774.0 -640.0 774.0 -640.0ZM484.0 -26.0C497.0 -62.0 509.0 -112.0 510.0 -147.0L532.0 -138.0C531.0 -108.0 519.0 -57.0 505.0 -22.0Z"/></g>
<g fill="green" transform="translate(1400 100) scale(0.1 -0.1)"><path d="M0.0 0.0V-380.0H612.0V0.0ZM114.0 -460.0 380.0 -402.0 -291.0 -464.0 -557.0 -522.0ZM19.0 -248.0 275.0 -363.0 -175.0 -502.0 -431.0 -327.0ZM566.0 -256.0 556.0 -985.0 552.0 -983.0 563.0 -254.0ZM594.0 -530.0V-582.0H811.0V-530.0ZM753.0 -643.0V-660.0C751.0 -867.0 748.0 -937.0 739.0 -954.0C733.0 -962.0 727.0 -965.0 719.0 -965.0C708.0 -965.0 697.0 -966.0 677.0 -962.0C691.0 -988.0 703.0 -1027.0 703.0 -1058.0C726.0 -1058.0 749.0 -1057.0 764.0 -1051.0C787.0 -1048.0 798.0 -1037.0 810.0 -1013.0C828.0 -986.0 832.0 -899.0 835.0 -679.0C834.0 -668.0 834.0 -643.0 834.0 -643.0ZM518.0 -40.0C532.0 -85.0 547.0 -149.0 551.0 -192.0L647.0 -172.0C646.0 -131.0 635.0 -72.0 622.0 -25.0Z"/></g>
<g fill="green" transform="translate(1500 100) scale(0.1 -0.1)"><path d="M0.0 0.0V-505.0H447.0V0.0ZM44.0 -311.0 673.0 -322.0 -137.0 -597.0 -765.0 -586.0ZM200.0 -335.0 324.0 -672.0 -8.0 -809.0 -132.0 -454.0ZM302.0 -354.0 293.0 -727.0 213.0 -724.0 222.0 -351.0ZM321.0 -662.0V-941.0H501.0V-662.0ZM822.0 -557.0V-564.0C808.0 -813.0 794.0 -904.0 774.0 -928.0C765.0 -938.0 755.0 -939.0 742.0 -938.0C728.0 -938.0 686.0 -938.0 641.0 -933.0C647.0 -941.0 649.0 -954.0 650.0 -963.0C689.0 -965.0 729.0 -967.0 748.0 -966.0C773.0 -965.0 786.0 -961.0 798.0 -947.0C823.0 -917.0 837.0 -832.0 851.0 -577.0C851.0 -570.0 853.0 -557.0 853.0 -557.0ZM424.0 -58.0C434.0 -90.0 440.0 -135.0 440.0 -166.0L463.0 -159.0C464.0 -131.0 457.0 -88.0 448.0 -55.0Z"/></g>
<g fill="green" transform="translate(1600 100) scale(0.1 -0.1)"><path d="M0.0 0.0V-546.0H495.0V0.0ZM182.0 -430.0 535.0 -377.0 -278.0 -459.0 -631.0 -513.0ZM191.0 -409.0 278.0 -740.0 115.0 -845.0 29.0 -449.0ZM318.0 -350.0 311.0 -782.0 316.0 -781.0 323.0 -349.0ZM333.0 -682.0V-963.0H563.0V-682.0ZM846.0 -528.0V-548.0C842.0 -772.0 838.0 -850.0 826.0 -869.0C819.0 -878.0 811.0 -881.0 802.0 -881.0C789.0 -881.0 774.0 -882.0 750.0 -878.0C766.0 -910.0 779.0 -957.0 779.0 -995.0C808.0 -994.0 836.0 -993.0 853.0 -988.0C879.0 -982.0 891.0 -971.0 907.0 -944.0C929.0 -912.0 934.0 -813.0 939.0 -571.0C939.0 -558.0 939.0 -528.0 939.0 -528.0ZM478.0 -47.0C486.0 -90.0 495.0 -150.0 495.0 -191.0L608.0 -187.0C609.0 -148.0 606.0 -91.0 602.0 -45.0Z"/></g>
<g fill="green" transform="translate(100 200) scale(0.1 -0.1)"><path d="M0.0 -0.0V-461.0H268.0V0.0ZM39.0 -434.0 472.0 -392.0 156.0 -596.0 -276.0 -640.0ZM-132.0 -258.0 -60.0 -829.0 -391.0 -939.0 -463.0 -344.0ZM507.0 -420.0 271.0 -871.0 429.0 -768.0 666.0 -317.0ZM270.0 -698.0V-691.0H576.0V-698.0ZM805.0 -647.0V-654.0C793.0 -830.0 780.0 -896.0 765.0 -914.0C758.0 -923.0 750.0 -924.0 739.0 -922.0C728.0 -922.0 697.0 -923.0 664.0 -919.0C668.0 -928.0 670.0 -942.0 671.0 -951.0C700.0 -953.0 730.0 -954.0 745.0 -953.0C766.0 -952.0 775.0 -949.0 788.0 -936.0C808.0 -913.0 820.0 -849.0 832.0 -667.0C833.0 -660.0 834.0 -647.0 834.0 -647.0ZM500.0 -30.0C502.0 -64.0 498.0 -115.0 492.0 -150.0L517.0 -153.0C525.0 -120.0 527.0 -74.0 527.0 -36.0Z"/></g>
<g fill="green" transform="translate(200 200) scale(0.1 -0.1)"><path d="M0.0 0.0V-491.0H347.0V0.0ZM178.0 -533.0 408.0 -464.0 82.0 -523.0 -147.0 -592.0ZM-131.0 -352.0 -72.0 -845.0 -245.0 -961.0 -304.0 -384.0ZM495.0 -349.0 366.0 -890.0 615.0 -858.0 744.0 -318.0ZM319.0 -733.0V-705.0H549.0V-733.0ZM804.0 -626.0V-644.0C800.0 -803.0 794.0 -862.0 785.0 -878.0C779.0 -886.0 772.0 -888.0 763.0 -888.0C751.0 -888.0 735.0 -889.0 711.0 -885.0C723.0 -911.0 736.0 -952.0 735.0 -980.0C770.0 -982.0 801.0 -982.0 820.0 -977.0C843.0 -975.0 863.0 -964.0 880.0 -940.0C898.0 -914.0 906.0 -843.0 911.0 -668.0C912.0 -654.0 913.0 -626.0 913.0 -626.0ZM540.0 -25.0C546.0 -64.0 551.0 -118.0 549.0 -161.0L651.0 -162.0C659.0 -126.0 665.0 -75.0 667.0 -26.0Z"/></g>
<g fill="green" transform="translate(300 200) scale(0.1 -0.1)"><path d="M0.0 0.0V-456.0H520.0V0.0ZM51.0 -554.0 553.0 -468.0 21.0 -692.0 -480.0 -779.0ZM75.0 -490.0 301.0 -742.0 -68.0 -882.0 -294.0 -611.0ZM434.0 -452.0 407.0 -1043.0 254.0 -1016.0 281.0 -426.0ZM187.0 -511.0V-407.0H536.0V-511.0ZM774.0 -574.0V-580.0C762.0 -800.0 750.0 -880.0 731.0 -901.0C723.0 -909.0 714.0 -910.0 700.0 -909.0C685.0 -909.0 639.0 -909.0 592.0 -905.0C596.0 -911.0 597.0 -922.0 599.0 -929.0C642.0 -932.0 686.0 -933.0 705.0 -933.0C729.0 -931.0 741.0 -929.0 752.0 -916.0C774.0 -890.0 786.0 -815.0 798.0 -592.0C798.0 -584.0 799.0 -574.0 799.0 -574.0ZM554.0 -55.0C549.0 -84.0 536.0 -131.0 525.0 -161.0L545.0 -167.0C557.0 -140.0 568.0 -99.0 577.0 -66.0Z"/></g>
<g fill="green" transform="translate(400 200) scale(0.1 -0.1)"><path d="M0.0 0.0V-511.0H699.0V0.0ZM206.0 -660.0 495.0 -537.0 -19.0 -609.0 -308.0 -731.0ZM153.0 -583.0 294.0 -816.0 65.0 -919.0 -77.0 -619.0ZM492.0 -453.0 475.0 -1080.0 457.0 -1069.0 475.0 -442.0ZM267.0 -499.0V-442.0H595.0V-499.0ZM834.0 -551.0V-568.0C828.0 -768.0 822.0 -835.0 812.0 -853.0C807.0 -861.0 800.0 -864.0 793.0 -864.0C783.0 -864.0 778.0 -864.0 763.0 -861.0C776.0 -888.0 787.0 -929.0 787.0 -962.0C809.0 -961.0 829.0 -960.0 843.0 -956.0C863.0 -950.0 874.0 -940.0 887.0 -918.0C907.0 -890.0 914.0 -803.0 920.0 -590.0C920.0 -577.0 922.0 -551.0 922.0 -551.0ZM645.0 -50.0C645.0 -89.0 644.0 -144.0 639.0 -186.0L736.0 -201.0C749.0 -165.0 764.0 -115.0 778.0 -63.0Z"/></g>
<g fill="green" transform="translate(500 200) scale(0.1 -0.1)"><path d="M0.0 0.0V-584.0H379.0V0.0ZM16.0 -364.0 535.0 -205.0 121.0 -451.0 -396.0 -610.0ZM-80.0 -334.0 211.0 -602.0 -211.0 -749.0 -502.0 -465.0ZM373.0 -292.0 295.0 -918.0 123.0 -889.0 201.0 -262.0ZM254.0 -598.0V-631.0H672.0V-598.0ZM812.0 -556.0V-564.0C799.0 -811.0 784.0 -900.0 764.0 -923.0C756.0 -932.0 746.0 -933.0 731.0 -932.0C716.0 -932.0 672.0 -932.0 624.0 -928.0C630.0 -935.0 631.0 -947.0 633.0 -955.0C675.0 -958.0 718.0 -959.0 737.0 -959.0C763.0 -957.0 775.0 -954.0 788.0 -940.0C812.0 -911.0 825.0 -828.0 840.0 -576.0C840.0 -569.0 841.0 -556.0 841.0 -556.0ZM602.0 -200.0C581.0 -220.0 549.0 -259.0 527.0 -283.0L545.0 -301.0C568.0 -279.0 598.0 -251.0 628.0 -221.0Z"/></g>
<g fill="green" transform="translate(600 200) scale(0.1 -0.1)"><path d="M0.0 0.0V-607.0H456.0V0.0ZM155.0 -453.0 473.0 -265.0 31.0 -334.0 -287.0 -522.0ZM-20.0 -430.0 175.0 -656.0 -132.0 -754.0 -327.0 -468.0ZM396.0 -281.0 352.0 -953.0 303.0 -944.0 347.0 -273.0ZM351.0 -595.0V-677.0H674.0V-595.0ZM830.0 -535.0V-553.0C825.0 -779.0 820.0 -856.0 808.0 -874.0C802.0 -884.0 794.0 -887.0 786.0 -887.0C776.0 -887.0 765.0 -887.0 746.0 -884.0C762.0 -913.0 772.0 -956.0 773.0 -991.0C795.0 -990.0 817.0 -989.0 831.0 -984.0C854.0 -979.0 864.0 -969.0 878.0 -945.0C898.0 -915.0 905.0 -818.0 911.0 -576.0C912.0 -563.0 912.0 -535.0 912.0 -535.0ZM654.0 -191.0C642.0 -230.0 626.0 -284.0 614.0 -329.0L706.0 -375.0C729.0 -340.0 766.0 -290.0 801.0 -230.0Z"/></g>
<g fill="green" transform="translate(700 200) scale(0.1 -0.1)"><path d="M0.0 -0.0V-536.0H438.0V0.0ZM38.0 -503.0 570.0 -471.0 42.0 -709.0 -489.0 -743.0ZM-51.0 -371.0 171.0 -748.0 -287.0 -925.0 -509.0 -519.0ZM357.0 -240.0 381.0 -817.0 194.0 -828.0 170.0 -251.0ZM389.0 -600.0V-693.0H808.0V-600.0ZM795.0 -588.0V-594.0C782.0 -805.0 768.0 -883.0 749.0 -903.0C740.0 -911.0 732.0 -912.0 718.0 -911.0C705.0 -911.0 663.0 -911.0 619.0 -908.0C624.0 -914.0 625.0 -927.0 627.0 -934.0C666.0 -938.0 707.0 -939.0 723.0 -939.0C748.0 -937.0 760.0 -934.0 772.0 -920.0C796.0 -895.0 809.0 -822.0 823.0 -607.0C823.0 -600.0 824.0 -588.0 824.0 -588.0ZM530.0 -82.0C522.0 -111.0 504.0 -159.0 488.0 -190.0L510.0 -201.0C525.0 -173.0 542.0 -133.0 556.0 -97.0Z"/></g>
<g fill="green" transform="translate(800 200) scale(0.1 -0.1)"><path d="M0.0 0.0V-592.0H524.0V0.0ZM184.0 -621.0 484.0 -531.0 -55.0 -605.0 -354.0 -695.0ZM-11.0 -463.0 129.0 -798.0 -153.0 -950.0 -292.0 -510.0ZM392.0 -247.0 406.0 -843.0 359.0 -846.0 345.0 -250.0ZM484.0 -570.0V-724.0H872.0V-570.0ZM816.0 -558.0V-576.0C812.0 -763.0 806.0 -827.0 795.0 -844.0C789.0 -852.0 783.0 -855.0 774.0 -855.0C763.0 -855.0 753.0 -856.0 735.0 -852.0C750.0 -882.0 762.0 -924.0 762.0 -959.0C790.0 -958.0 816.0 -957.0 832.0 -953.0C856.0 -948.0 870.0 -938.0 885.0 -913.0C906.0 -885.0 913.0 -802.0 919.0 -599.0C919.0 -586.0 920.0 -558.0 920.0 -558.0ZM590.0 -78.0C587.0 -112.0 580.0 -161.0 572.0 -202.0L667.0 -224.0C685.0 -192.0 710.0 -146.0 731.0 -96.0Z"/></g>
<g fill="green" transform="translate(900 200) scale(0.1 -0.1)"><path d="M0.0 0.0V-381.0H520.0V0.0ZM34.0 -427.0 424.0 -349.0 -11.0 -543.0 -401.0 -622.0ZM-18.0 -487.0 297.0 -729.0 -273.0 -934.0 -588.0 -671.0ZM443.0 -125.0 384.0 -766.0 176.0 -743.0 235.0 -102.0ZM242.0 -665.0V-646.0H630.0V-665.0ZM787.0 -567.0V-574.0C775.0 -825.0 762.0 -915.0 743.0 -938.0C734.0 -947.0 726.0 -948.0 713.0 -947.0C701.0 -947.0 662.0 -947.0 621.0 -943.0C626.0 -950.0 627.0 -962.0 629.0 -969.0C664.0 -972.0 702.0 -972.0 719.0 -972.0C742.0 -970.0 754.0 -967.0 766.0 -953.0C789.0 -925.0 802.0 -842.0 814.0 -585.0C813.0 -579.0 814.0 -567.0 814.0 -567.0ZM534.0 -69.0C530.0 -102.0 516.0 -153.0 503.0 -187.0L525.0 -195.0C537.0 -164.0 548.0 -119.0 559.0 -81.0Z"/></g>
<g fill="green" transform="translate(1000 200) scale(0.1 -0.1)"><path d="M0.0 0.0V-452.0H600.0V0.0ZM111.0 -519.0 348.0 -432.0 -60.0 -497.0 -296.0 -584.0ZM40.0 -616.0 228.0 -822.0 -184.0 -965.0 -373.0 -682.0ZM447.0 -119.0 412.0 -823.0 335.0 -816.0 370.0 -112.0ZM330.0 -686.0V-701.0H647.0V-686.0ZM822.0 -554.0V-571.0C817.0 -800.0 811.0 -877.0 799.0 -895.0C793.0 -905.0 787.0 -908.0 780.0 -908.0C768.0 -908.0 760.0 -908.0 743.0 -905.0C758.0 -934.0 768.0 -976.0 769.0 -1011.0C789.0 -1009.0 808.0 -1009.0 822.0 -1004.0C843.0 -999.0 852.0 -988.0 866.0 -964.0C885.0 -934.0 892.0 -837.0 897.0 -593.0C898.0 -580.0 898.0 -554.0 898.0 -554.0ZM577.0 -73.0C576.0 -112.0 571.0 -168.0 564.0 -211.0L648.0 -226.0C665.0 -189.0 684.0 -137.0 701.0 -84.0Z"/></g>
<g fill="green" transform="translate(1100 200) scale(0.1 -0.1)"><path d="M0.0 0.0V-593.0H393.0V0.0ZM39.0 -418.0 587.0 -454.0 52.0 -717.0 -495.0 -681.0ZM-10.0 -360.0 267.0 -634.0 -202.0 -844.0 -479.0 -556.0ZM513.0 -193.0 462.0 -918.0 230.0 -899.0 281.0 -173.0ZM233.0 -712.0V-610.0H725.0V-712.0ZM811.0 -511.0V-518.0C798.0 -799.0 783.0 -901.0 764.0 -925.0C755.0 -935.0 746.0 -936.0 730.0 -935.0C716.0 -935.0 667.0 -935.0 617.0 -931.0C622.0 -937.0 623.0 -950.0 624.0 -957.0C670.0 -961.0 716.0 -961.0 737.0 -962.0C762.0 -960.0 775.0 -956.0 787.0 -941.0C813.0 -908.0 825.0 -817.0 837.0 -530.0C837.0 -523.0 837.0 -511.0 837.0 -511.0ZM526.0 -63.0C516.0 -94.0 494.0 -146.0 477.0 -181.0L497.0 -193.0C515.0 -162.0 534.0 -118.0 551.0 -78.0Z"/></g>
<g fill="green" transform="translate(1200 200) scale(0.1 -0.1)"><path d="M0.0 0.0V-640.0H432.0V0.0ZM143.0 -526.0 495.0 -519.0 -45.0 -605.0 -397.0 -612.0ZM29.0 -473.0 194.0 -711.0 -159.0 -828.0 -324.0 -541.0ZM513.0 -167.0 483.0 -960.0 388.0 -954.0 417.0 -161.0ZM319.0 -718.0V-662.0H694.0V-718.0ZM831.0 -491.0V-510.0C826.0 -763.0 819.0 -851.0 806.0 -872.0C799.0 -882.0 792.0 -885.0 782.0 -885.0C771.0 -885.0 757.0 -886.0 736.0 -882.0C752.0 -915.0 764.0 -963.0 764.0 -1003.0C787.0 -1002.0 809.0 -1001.0 824.0 -995.0C847.0 -989.0 856.0 -977.0 870.0 -950.0C892.0 -917.0 899.0 -807.0 906.0 -535.0C905.0 -521.0 907.0 -491.0 907.0 -491.0ZM557.0 -46.0C550.0 -90.0 535.0 -151.0 520.0 -201.0L613.0 -229.0C637.0 -188.0 670.0 -133.0 699.0 -70.0Z"/></g>
<g fill="green" transform="translate(1300 200) scale(0.1 -0.1)"><path d="M0.0 0.0V-525.0H475.0V0.0ZM43.0 -492.0 566.0 -388.0 18.0 -643.0 -504.0 -748.0ZM-60.0 -361.0 262.0 -637.0 -248.0 -831.0 -569.0 -539.0ZM488.0 -259.0 392.0 -844.0 288.0 -794.0 384.0 -208.0ZM294.0 -676.0V-704.0H648.0V-676.0ZM800.0 -533.0V-539.0C787.0 -788.0 774.0 -877.0 754.0 -900.0C745.0 -909.0 736.0 -910.0 719.0 -909.0C702.0 -909.0 648.0 -909.0 592.0 -904.0C597.0 -911.0 598.0 -921.0 600.0 -929.0C651.0 -933.0 701.0 -934.0 725.0 -934.0C751.0 -932.0 764.0 -930.0 776.0 -915.0C801.0 -886.0 813.0 -803.0 825.0 -551.0C825.0 -544.0 826.0 -533.0 826.0 -533.0ZM492.0 -123.0C490.0 -151.0 481.0 -194.0 471.0 -224.0L490.0 -227.0C500.0 -200.0 508.0 -162.0 514.0 -130.0Z"/></g>
<g fill="green" transform="translate(1400 200) scale(0.1 -0.1)"><path d="M0.0 0.0V-556.0H609.0V0.0ZM186.0 -603.0 500.0 -451.0 -41.0 -523.0 -354.0 -674.0ZM26.0 -481.0 232.0 -707.0 -143.0 -824.0 -348.0 -541.0ZM519.0 -225.0 471.0 -893.0 476.0 -877.0 524.0 -209.0ZM432.0 -708.0V-717.0H684.0V-708.0ZM847.0 -511.0V-529.0C845.0 -758.0 844.0 -834.0 835.0 -851.0C829.0 -860.0 823.0 -863.0 816.0 -863.0C806.0 -863.0 799.0 -864.0 783.0 -860.0C797.0 -890.0 809.0 -935.0 809.0 -972.0C829.0 -970.0 849.0 -969.0 862.0 -964.0C884.0 -958.0 892.0 -948.0 905.0 -923.0C922.0 -893.0 925.0 -795.0 927.0 -551.0C926.0 -539.0 927.0 -511.0 927.0 -511.0ZM580.0 -118.0C583.0 -151.0 586.0 -199.0 585.0 -237.0L688.0 -253.0C695.0 -221.0 705.0 -177.0 714.0 -131.0Z"/></g>
<g fill="red" transform="translate(100 300) scale(0.1 -0.1)"><path d="M0.0 0.0V-29.0H416.0V0.0ZM46.0 428.0V107.0H386.0V428.0ZM76.0 254.0H357.0V136.0H76.0ZM76.0 399.0H357.0V283.0H76.0ZM456.0 589.0V108.0H485.0V589.0ZM852.0 126.0V120.0C837.0 -85.0 822.0 -162.0 800.0 -183.0C792.0 -191.0 783.0 -192.0 764.0 -192.0C747.0 -192.0 693.0 -191.0 637.0 -186.0C642.0 -194.0 645.0 -206.0 646.0 -214.0C697.0 -218.0 747.0 -219.0 770.0 -219.0C796.0 -218.0 811.0 -214.0 823.0 -201.0C851.0 -174.0 865.0 -101.0 880.0 106.0C881.0 113.0 882.0 126.0 882.0 126.0ZM626.0 683.0C618.0 655.0 599.0 610.0 584.0 581.0L609.0 571.0C623.0 597.0 640.0 635.0 656.0 670.0Z"/></g>
<g fill="black" opacity=".8" transform="translate(100 300) scale(0.1 -0.1)"><path d="M0.0 0.0V-29.0H416.0V0.0ZM45.0 429.0 46.0 107.0H386.0V428.0ZM76.0 254.0 356.0 252.0 358.0 136.0H77.0ZM75.0 400.0 355.0 399.0 356.0 284.0 76.0 283.0ZM456.0 588.0V108.0H486.0V588.0ZM852.0 126.0V121.0C836.0 -85.0 823.0 -161.0 800.0 -184.0C793.0 -191.0 783.0 -193.0 764.0 -191.0C746.0 -191.0 693.0 -191.0 637.0 -186.0C643.0 -193.0 645.0 -206.0 646.0 -213.0C697.0 -218.0 747.0 -219.0 771.0 -219.0C795.0 -218.0 811.0 -215.0 824.0 -201.0C850.0 -173.0 864.0 -101.0 880.0 106.0C881.0 112.0 883.0 126.0 883.0 126.0ZM627.0 684.0C618.0 656.0 598.0 610.0 583.0 582.0L607.0 571.0C623.0 597.0 641.0 635.0 657.0 670.0Z"/></g>
<g fill="red" transform="translate(200 300) scale(0.1 -0.1)"><path d="M0.0 0.0V-122.0H451.0V0.0ZM34.0 418.0V56.0H443.0V418.0ZM158.0 191.0H313.0V156.0H158.0ZM158.0 318.0H313.0V284.0H158.0ZM485.0 583.0V92.0H616.0V583.0ZM823.0 112.0V94.0C818.0 -81.0 812.0 -143.0 801.0 -159.0C794.0 -168.0 787.0 -170.0 776.0 -170.0C764.0 -170.0 745.0 -170.0 721.0 -167.0C737.0 -196.0 748.0 -242.0 750.0 -276.0C787.0 -276.0 821.0 -275.0 842.0 -271.0C867.0 -267.0 887.0 -258.0 905.0 -234.0C928.0 -205.0 936.0 -124.0 942.0 68.0C943.0 82.0 944.0 112.0 944.0 112.0ZM619.0 675.0C616.0 641.0 606.0 595.0 597.0 559.0L716.0 538.0C732.0 568.0 755.0 611.0 776.0 660.0Z"/></g>
<g fill="black" opacity=".8" transform="translate(200 300) scale(0.1 -0.1)"><path d="M0.0 0.0V-122.0H452.0V0.0ZM33.0 418.0 34.0 57.0 442.0 56.0 444.0 418.0ZM158.0 190.0H313.0V155.0L158.0 156.0ZM158.0 318.0 312.0 317.0 314.0 284.0 157.0 285.0ZM485.0 583.0V91.0H615.0V583.0ZM823.0 112.0V93.0C818.0 -80.0 813.0 -142.0 803.0 -159.0C794.0 -167.0 788.0 -171.0 776.0 -171.0C764.0 -171.0 746.0 -170.0 721.0 -167.0C738.0 -197.0 749.0 -243.0 750.0 -278.0C788.0 -277.0 822.0 -275.0 840.0 -271.0C868.0 -266.0 886.0 -258.0 905.0 -233.0C927.0 -204.0 936.0 -124.0 943.0 68.0C944.0 81.0 943.0 112.0 943.0 112.0ZM620.0 675.0C615.0 642.0 607.0 596.0 596.0 559.0L716.0 536.0C732.0 569.0 755.0 611.0 775.0 659.0Z"/></g>
<g fill="red" transform="translate(300 300) scale(0.1 -0.1)"><path d="M0.0 0.0V-370.0H370.0V0.0ZM30.0 -199.0H340.0V-341.0H30.0ZM30.0 -29.0H340.0V-169.0H30.0ZM436.0 6.0V-475.0H466.0V6.0ZM454.0 -114.0V-144.0H776.0V-114.0ZM815.0 -457.0V-464.0C802.0 -670.0 788.0 -746.0 769.0 -766.0C762.0 -774.0 753.0 -775.0 736.0 -775.0C721.0 -775.0 674.0 -774.0 624.0 -770.0C629.0 -778.0 631.0 -790.0 632.0 -798.0C677.0 -801.0 721.0 -802.0 742.0 -802.0C767.0 -801.0 780.0 -797.0 792.0 -785.0C817.0 -758.0 829.0 -687.0 843.0 -477.0C844.0 -470.0 844.0 -457.0 844.0 -457.0ZM601.0 100.0C592.0 72.0 574.0 27.0 559.0 -2.0L583.0 -12.0C598.0 14.0 615.0 52.0 630.0 87.0Z"/></g>
<g fill="black" opacity=".8" transform="translate(300 300) scale(0.1 -0.1)"><path d="M0.0 0.0V-370.0H371.0V0.0ZM29.0 -198.0 341.0 -199.0 340.0 -342.0 30.0 -341.0ZM30.0 -28.0 339.0 -30.0 340.0 -169.0H30.0ZM436.0 6.0 435.0 -474.0H465.0L467.0 6.0ZM453.0 -114.0V-144.0H777.0V-114.0ZM816.0 -457.0V-464.0C802.0 -670.0 788.0 -745.0 769.0 -767.0C763.0 -774.0 753.0 -775.0 736.0 -775.0C720.0 -775.0 674.0 -774.0 624.0 -770.0C630.0 -777.0 631.0 -790.0 632.0 -798.0C677.0 -800.0 721.0 -802.0 743.0 -801.0C767.0 -801.0 780.0 -797.0 792.0 -785.0C816.0 -757.0 829.0 -687.0 843.0 -478.0C844.0 -470.0 844.0 -457.0 844.0 -457.0ZM602.0 101.0C592.0 73.0 573.0 27.0 559.0 -2.0L582.0 -12.0C598.0 14.0 616.0 52.0 631.0 87.0Z"/></g>
<g fill="red" transform="translate(400 300) scale(0.1 -0.1)"><path d="M0.0 0.0V-416.0H413.0V0.0ZM110.0 -260.0H298.0V-303.0H110.0ZM110.0 -113.0H298.0V-155.0H110.0ZM448.0 -3.0V-525.0H574.0V-3.0ZM512.0 -124.0V-207.0H783.0V-124.0ZM784.0 -478.0V-495.0C779.0 -675.0 772.0 -740.0 760.0 -757.0C753.0 -766.0 746.0 -768.0 735.0 -768.0C723.0 -768.0 703.0 -768.0 678.0 -765.0C693.0 -791.0 704.0 -833.0 705.0 -863.0C741.0 -864.0 774.0 -863.0 795.0 -859.0C820.0 -856.0 840.0 -847.0 857.0 -824.0C879.0 -796.0 888.0 -716.0 896.0 -520.0C896.0 -506.0 897.0 -478.0 897.0 -478.0ZM588.0 89.0C585.0 48.0 575.0 -7.0 565.0 -49.0L685.0 -69.0C702.0 -33.0 725.0 18.0 746.0 74.0Z"/></g>
<g fill="black" opacity=".8" transform="translate(400 300) scale(0.1 -0.1)"><path d="M0.0 0.0V-416.0H414.0V0.0ZM109.0 -260.0 298.0 -259.0V-303.0H111.0ZM110.0 -114.0H299.0L298.0 -155.0H110.0ZM447.0 -3.0V-526.0L574.0 -524.0V-3.0ZM512.0 -124.0V-207.0H783.0V-124.0ZM784.0 -478.0V-496.0C779.0 -675.0 772.0 -740.0 762.0 -757.0C753.0 -766.0 746.0 -768.0 735.0 -768.0C724.0 -768.0 704.0 -768.0 678.0 -765.0C693.0 -791.0 705.0 -834.0 705.0 -864.0C741.0 -865.0 775.0 -864.0 794.0 -859.0C820.0 -856.0 839.0 -846.0 857.0 -823.0C879.0 -796.0 888.0 -715.0 896.0 -520.0C897.0 -507.0 897.0 -478.0 897.0 -478.0ZM589.0 89.0C585.0 49.0 576.0 -6.0 564.0 -50.0L685.0 -70.0C702.0 -32.0 725.0 17.0 746.0 73.0Z"/></g>
<g fill="red" transform="translate(500 300) scale(0.1 -0.1)"><path d="M0.0 0.0V-29.0H419.0V0.0ZM53.0 -121.0V-349.0H371.0V-121.0ZM82.0 -151.0H342.0V-319.0H82.0ZM471.0 45.0V-436.0H501.0V45.0ZM485.0 -75.0V-105.0H788.0V-75.0ZM830.0 -418.0V-425.0C816.0 -630.0 802.0 -707.0 784.0 -727.0C777.0 -735.0 770.0 -736.0 755.0 -736.0C742.0 -736.0 702.0 -735.0 662.0 -731.0C666.0 -740.0 669.0 -753.0 670.0 -761.0C706.0 -764.0 743.0 -765.0 761.0 -764.0C783.0 -764.0 796.0 -759.0 808.0 -747.0C832.0 -720.0 845.0 -649.0 858.0 -438.0C859.0 -432.0 859.0 -418.0 859.0 -418.0ZM164.0 120.0C192.0 77.0 217.0 22.0 227.0 -17.0L255.0 -2.0C245.0 34.0 218.0 91.0 190.0 132.0Z"/></g>
<g fill="black" opacity=".8" transform="translate(500 300) scale(0.1 -0.1)"><path d="M0.0 0.0V-29.0H420.0V0.0ZM52.0 -120.0 53.0 -349.0H371.0V-121.0ZM82.0 -151.0 341.0 -152.0 342.0 -319.0H82.0ZM470.0 46.0V-436.0L500.0 -435.0L502.0 45.0ZM485.0 -76.0V-105.0H788.0V-76.0ZM830.0 -418.0V-424.0C816.0 -630.0 802.0 -706.0 784.0 -728.0C778.0 -736.0 770.0 -737.0 756.0 -736.0C742.0 -736.0 702.0 -736.0 662.0 -731.0C667.0 -740.0 668.0 -754.0 670.0 -761.0C706.0 -764.0 743.0 -765.0 762.0 -763.0C782.0 -764.0 795.0 -760.0 808.0 -747.0C832.0 -719.0 844.0 -648.0 858.0 -438.0C859.0 -432.0 859.0 -418.0 859.0 -418.0ZM165.0 121.0C192.0 78.0 216.0 22.0 227.0 -16.0L254.0 -2.0C246.0 34.0 219.0 91.0 191.0 133.0Z"/></g>
<g fill="red" transform="translate(600 300) scale(0.1 -0.1)"><path d="M0.0 0.0V-126.0H460.0V0.0ZM39.0 -156.0V-433.0H432.0V-156.0ZM165.0 -264.0H300.0V-325.0H165.0ZM481.0 21.0V-501.0H604.0V21.0ZM547.0 -100.0V-183.0H804.0V-100.0ZM804.0 -454.0V-471.0C798.0 -646.0 789.0 -712.0 777.0 -729.0C769.0 -738.0 762.0 -740.0 750.0 -740.0C735.0 -740.0 710.0 -740.0 680.0 -737.0C694.0 -764.0 706.0 -807.0 708.0 -837.0C747.0 -839.0 783.0 -838.0 806.0 -834.0C832.0 -831.0 853.0 -822.0 872.0 -798.0C895.0 -769.0 904.0 -690.0 913.0 -497.0C914.0 -483.0 914.0 -454.0 914.0 -454.0ZM134.0 77.0C154.0 35.0 173.0 -22.0 178.0 -59.0L306.0 -13.0C299.0 24.0 277.0 77.0 254.0 117.0Z"/></g>
<g fill="black" opacity=".8" transform="translate(600 300) scale(0.1 -0.1)"><path d="M0.0 0.0V-126.0H460.0V0.0ZM38.0 -156.0 39.0 -431.0 432.0 -432.0 433.0 -157.0ZM165.0 -265.0H300.0V-326.0L165.0 -325.0ZM481.0 21.0 480.0 -502.0 604.0 -501.0V21.0ZM548.0 -100.0V-184.0H804.0V-100.0ZM804.0 -454.0V-472.0C799.0 -645.0 789.0 -712.0 778.0 -729.0C769.0 -738.0 762.0 -740.0 750.0 -740.0C736.0 -740.0 711.0 -740.0 680.0 -737.0C694.0 -764.0 707.0 -807.0 707.0 -838.0C748.0 -840.0 784.0 -839.0 805.0 -834.0C832.0 -831.0 852.0 -821.0 872.0 -797.0C894.0 -769.0 904.0 -690.0 913.0 -498.0C915.0 -483.0 914.0 -454.0 914.0 -454.0ZM134.0 77.0C153.0 36.0 173.0 -22.0 178.0 -59.0L305.0 -15.0C299.0 24.0 277.0 76.0 254.0 116.0Z"/></g>
<g fill="red" transform="translate(700 300) scale(0.1 -0.1)"><path d="M0.0 0.0V-290.0H332.0V0.0ZM29.0 -159.0H303.0V-261.0H29.0ZM150.0 -390.0V-737.0L179.0 -758.0V-390.0ZM419.0 -45.0V-477.0H449.0V-45.0ZM439.0 -362.0V-392.0H841.0V-362.0ZM785.0 -464.0V-471.0C772.0 -627.0 758.0 -687.0 742.0 -703.0C735.0 -711.0 728.0 -712.0 716.0 -711.0C706.0 -711.0 677.0 -711.0 645.0 -708.0C650.0 -716.0 652.0 -729.0 653.0 -737.0C679.0 -740.0 708.0 -740.0 721.0 -740.0C742.0 -739.0 753.0 -735.0 764.0 -724.0C786.0 -703.0 799.0 -645.0 813.0 -483.0C814.0 -477.0 815.0 -464.0 815.0 -464.0ZM560.0 45.0C552.0 20.0 535.0 -22.0 522.0 -49.0L546.0 -59.0C559.0 -34.0 574.0 0.0 588.0 32.0Z"/></g>
<g fill="black" opacity=".8" transform="translate(700 300) scale(0.1 -0.1)"><path d="M0.0 0.0V-289.0H332.0V0.0ZM28.0 -159.0H304.0L303.0 -261.0H29.0ZM150.0 -389.0 149.0 -738.0 179.0 -758.0V-390.0ZM419.0 -44.0 418.0 -477.0 448.0 -476.0 450.0 -45.0ZM438.0 -362.0V-391.0H842.0V-362.0ZM784.0 -464.0V-470.0C772.0 -627.0 758.0 -686.0 742.0 -704.0C736.0 -711.0 728.0 -712.0 716.0 -710.0C706.0 -710.0 677.0 -711.0 645.0 -708.0C650.0 -715.0 652.0 -730.0 653.0 -737.0C679.0 -740.0 709.0 -740.0 721.0 -739.0C741.0 -738.0 752.0 -736.0 765.0 -723.0C786.0 -703.0 798.0 -645.0 813.0 -484.0C814.0 -477.0 815.0 -464.0 815.0 -464.0ZM561.0 46.0C552.0 20.0 535.0 -21.0 521.0 -48.0L545.0 -59.0C560.0 -34.0 575.0 0.0 589.0 32.0Z"/></g>
<g fill="red" transform="translate(800 300) scale(0.1 -0.1)"><path d="M0.0 0.0V-348.0H397.0V0.0ZM128.0 -218.0H263.0V-253.0H128.0ZM151.0 -423.0V-769.0L282.0 -843.0V-423.0ZM444.0 -42.0V-497.0H574.0V-42.0ZM508.0 -344.0V-436.0H896.0V-344.0ZM773.0 -460.0V-476.0C767.0 -611.0 758.0 -662.0 747.0 -676.0C741.0 -684.0 735.0 -686.0 725.0 -686.0C714.0 -686.0 699.0 -686.0 678.0 -683.0C691.0 -707.0 701.0 -745.0 702.0 -771.0C737.0 -772.0 769.0 -772.0 788.0 -769.0C811.0 -766.0 832.0 -758.0 849.0 -737.0C870.0 -712.0 881.0 -650.0 889.0 -499.0C890.0 -486.0 891.0 -460.0 891.0 -460.0ZM569.0 36.0C566.0 4.0 557.0 -40.0 549.0 -76.0L654.0 -96.0C670.0 -67.0 693.0 -25.0 713.0 21.0Z"/></g>
<g fill="black" opacity=".8" transform="translate(800 300) scale(0.1 -0.1)"><path d="M0.0 0.0V-348.0H398.0V0.0ZM128.0 -218.0 263.0 -217.0 262.0 -253.0H129.0ZM151.0 -424.0V-770.0L283.0 -843.0L282.0 -423.0ZM444.0 -42.0 443.0 -498.0 574.0 -497.0V-42.0ZM509.0 -344.0V-436.0H896.0V-344.0ZM773.0 -460.0V-476.0C767.0 -611.0 758.0 -661.0 748.0 -676.0C741.0 -684.0 735.0 -686.0 725.0 -686.0C714.0 -686.0 699.0 -685.0 678.0 -683.0C691.0 -708.0 702.0 -745.0 702.0 -772.0C738.0 -772.0 769.0 -772.0 787.0 -769.0C811.0 -766.0 831.0 -758.0 849.0 -736.0C870.0 -712.0 881.0 -649.0 889.0 -499.0C891.0 -486.0 890.0 -460.0 890.0 -460.0ZM570.0 36.0C565.0 5.0 557.0 -40.0 548.0 -76.0L654.0 -97.0C670.0 -67.0 693.0 -25.0 712.0 20.0Z"/></g>
<g fill="red" transform="translate(900 300) scale(0.1 -0.1)"><path d="M0.0 0.0V-29.0H407.0V0.0ZM50.0 -105.0V-292.0H341.0V-105.0ZM77.0 -135.0H313.0V-262.0H77.0ZM92.0 -456.0V-703.0H121.0V-456.0ZM487.0 15.0V-466.0H517.0V15.0ZM838.0 -448.0V-455.0C824.0 -659.0 810.0 -736.0 790.0 -757.0C783.0 -765.0 776.0 -766.0 761.0 -766.0C747.0 -766.0 708.0 -765.0 668.0 -761.0C672.0 -770.0 675.0 -783.0 676.0 -791.0C712.0 -794.0 749.0 -795.0 767.0 -794.0C789.0 -794.0 802.0 -789.0 814.0 -777.0C838.0 -750.0 852.0 -678.0 867.0 -468.0C868.0 -462.0 869.0 -448.0 869.0 -448.0ZM154.0 106.0C176.0 66.0 198.0 13.0 207.0 -20.0L233.0 -9.0C225.0 24.0 204.0 76.0 180.0 115.0Z"/></g>
<g fill="black" opacity=".8" transform="translate(900 300) scale(0.1 -0.1)"><path d="M0.0 0.0V-28.0H408.0V0.0ZM49.0 -105.0 50.0 -292.0H341.0L342.0 -105.0ZM77.0 -134.0 312.0 -136.0 314.0 -262.0H77.0ZM92.0 -455.0 91.0 -702.0H120.0L122.0 -456.0ZM487.0 15.0V-466.0H518.0V15.0ZM838.0 -448.0V-454.0C823.0 -659.0 810.0 -735.0 790.0 -758.0C784.0 -765.0 776.0 -766.0 762.0 -766.0C746.0 -766.0 708.0 -765.0 667.0 -760.0C673.0 -769.0 675.0 -784.0 676.0 -791.0C712.0 -793.0 749.0 -796.0 767.0 -793.0C789.0 -794.0 802.0 -790.0 815.0 -777.0C838.0 -749.0 851.0 -677.0 867.0 -469.0C868.0 -463.0 869.0 -448.0 869.0 -448.0ZM155.0 107.0C176.0 67.0 197.0 13.0 206.0 -20.0L232.0 -9.0C226.0 24.0 205.0 76.0 182.0 115.0Z"/></g>
<g fill="red" transform="translate(1000 300) scale(0.1 -0.1)"><path d="M0.0 0.0V-121.0H471.0V0.0ZM57.0 -144.0V-371.0H416.0V-144.0ZM158.0 -239.0H308.0V-276.0H158.0ZM133.0 -532.0V-784.0H216.0V-532.0ZM503.0 4.0V-518.0H626.0V4.0ZM821.0 -471.0V-488.0C815.0 -663.0 806.0 -729.0 794.0 -746.0C787.0 -755.0 779.0 -757.0 767.0 -757.0C752.0 -757.0 727.0 -757.0 697.0 -754.0C711.0 -781.0 723.0 -824.0 725.0 -854.0C764.0 -856.0 800.0 -855.0 823.0 -851.0C849.0 -848.0 870.0 -839.0 889.0 -815.0C912.0 -786.0 921.0 -707.0 930.0 -514.0C931.0 -500.0 931.0 -471.0 931.0 -471.0ZM156.0 66.0C172.0 22.0 190.0 -37.0 196.0 -73.0L308.0 -32.0C301.0 5.0 281.0 61.0 262.0 102.0Z"/></g>
<g fill="black" opacity=".8" transform="translate(1000 300) scale(0.1 -0.1)"><path d="M0.0 0.0V-121.0H472.0V0.0ZM56.0 -143.0 57.0 -370.0H416.0L417.0 -144.0ZM157.0 -239.0 308.0 -240.0V-276.0H158.0ZM133.0 -531.0 132.0 -785.0 216.0 -784.0V-531.0ZM503.0 4.0V-518.0H626.0V4.0ZM822.0 -471.0V-489.0C815.0 -663.0 806.0 -728.0 796.0 -746.0C787.0 -755.0 779.0 -757.0 767.0 -757.0C752.0 -757.0 728.0 -757.0 697.0 -754.0C711.0 -782.0 723.0 -824.0 725.0 -855.0C765.0 -857.0 801.0 -856.0 822.0 -851.0C849.0 -847.0 868.0 -838.0 889.0 -814.0C912.0 -786.0 921.0 -706.0 930.0 -514.0C932.0 -500.0 931.0 -471.0 931.0 -471.0ZM157.0 66.0C172.0 23.0 191.0 -37.0 195.0 -73.0L308.0 -33.0C301.0 5.0 281.0 61.0 261.0 101.0Z"/></g>
<g fill="red" transform="translate(1100 300) scale(0.1 -0.1)"><path d="M0.0 0.0V-280.0H352.0V0.0ZM29.0 -154.0H322.0V-251.0H29.0ZM441.0 -521.0V-551.0H812.0V-521.0ZM441.0 -58.0V-539.0H470.0V-58.0ZM452.0 -411.0V-440.0H859.0V-411.0ZM807.0 -521.0V-528.0C792.0 -732.0 776.0 -809.0 757.0 -830.0C750.0 -838.0 742.0 -839.0 727.0 -839.0C713.0 -839.0 676.0 -838.0 636.0 -834.0C641.0 -843.0 644.0 -856.0 645.0 -864.0C679.0 -867.0 715.0 -868.0 733.0 -867.0C756.0 -867.0 769.0 -862.0 781.0 -850.0C807.0 -823.0 821.0 -752.0 837.0 -541.0C838.0 -535.0 839.0 -521.0 839.0 -521.0ZM138.0 -297.0C157.0 -321.0 175.0 -352.0 183.0 -373.0L206.0 -359.0C199.0 -338.0 179.0 -308.0 161.0 -285.0Z"/></g>
<g fill="black" opacity=".8" transform="translate(1100 300) scale(0.1 -0.1)"><path d="M0.0 0.0V-280.0H353.0V0.0ZM29.0 -154.0 323.0 -153.0 321.0 -251.0 30.0 -250.0ZM441.0 -520.0V-552.0L812.0 -551.0V-521.0ZM441.0 -57.0 440.0 -539.0 469.0 -538.0 471.0 -58.0ZM452.0 -411.0V-439.0H859.0V-411.0ZM807.0 -521.0V-527.0C791.0 -732.0 776.0 -808.0 758.0 -831.0C751.0 -839.0 742.0 -840.0 728.0 -839.0C713.0 -839.0 676.0 -839.0 635.0 -833.0C642.0 -842.0 644.0 -856.0 645.0 -864.0C679.0 -866.0 715.0 -868.0 733.0 -866.0C755.0 -866.0 769.0 -863.0 781.0 -850.0C806.0 -823.0 820.0 -751.0 837.0 -541.0C838.0 -535.0 840.0 -521.0 840.0 -521.0ZM139.0 -296.0C157.0 -321.0 174.0 -352.0 183.0 -373.0L205.0 -359.0C199.0 -338.0 180.0 -309.0 162.0 -284.0Z"/></g>
<g fill="red" transform="translate(1200 300) scale(0.1 -0.1)"><path d="M0.0 0.0V-318.0H423.0V0.0ZM126.0 -202.0H290.0V-226.0H126.0ZM473.0 -538.0V-639.0H843.0V-538.0ZM473.0 -63.0V-581.0H588.0V-63.0ZM534.0 -413.0V-511.0H917.0V-413.0ZM804.0 -538.0V-554.0C798.0 -731.0 789.0 -797.0 777.0 -813.0C769.0 -822.0 761.0 -824.0 750.0 -824.0C737.0 -824.0 714.0 -824.0 686.0 -821.0C701.0 -848.0 712.0 -890.0 714.0 -920.0C749.0 -921.0 783.0 -920.0 804.0 -917.0C830.0 -913.0 848.0 -905.0 866.0 -883.0C889.0 -854.0 899.0 -773.0 908.0 -579.0C909.0 -566.0 909.0 -538.0 909.0 -538.0ZM137.0 -328.0C149.0 -362.0 163.0 -410.0 169.0 -438.0L312.0 -419.0C303.0 -390.0 286.0 -345.0 273.0 -312.0Z"/></g>
<g fill="black" opacity=".8" transform="translate(1200 300) scale(0.1 -0.1)"><path d="M0.0 0.0V-318.0H423.0V0.0ZM125.0 -202.0 290.0 -201.0V-225.0L127.0 -226.0ZM473.0 -538.0V-640.0L843.0 -639.0V-538.0ZM473.0 -63.0 472.0 -582.0 588.0 -581.0V-63.0ZM534.0 -413.0V-511.0H917.0V-413.0ZM804.0 -537.0V-555.0C798.0 -731.0 790.0 -797.0 778.0 -813.0C769.0 -822.0 761.0 -824.0 750.0 -824.0C737.0 -824.0 715.0 -824.0 686.0 -822.0C701.0 -849.0 712.0 -891.0 713.0 -921.0C750.0 -922.0 784.0 -921.0 802.0 -917.0C831.0 -913.0 847.0 -905.0 866.0 -882.0C889.0 -854.0 898.0 -773.0 908.0 -579.0C910.0 -566.0 908.0 -537.0 908.0 -537.0ZM137.0 -328.0C149.0 -362.0 163.0 -409.0 169.0 -438.0L312.0 -421.0C303.0 -389.0 286.0 -346.0 272.0 -313.0Z"/></g>
<g fill="red" transform="translate(1300 300) scale(0.1 -0.1)"><path d="M0.0 0.0V-370.0H313.0V0.0ZM29.0 -199.0H283.0V-341.0H29.0ZM29.0 -29.0H283.0V-169.0H29.0ZM70.0 163.0V134.0H233.0V163.0ZM139.0 -8.0V-357.0H169.0V-8.0ZM781.0 -304.0V-311.0C767.0 -516.0 753.0 -592.0 732.0 -613.0C724.0 -621.0 715.0 -622.0 699.0 -622.0C684.0 -622.0 638.0 -621.0 589.0 -617.0C594.0 -625.0 597.0 -637.0 598.0 -645.0C641.0 -648.0 684.0 -649.0 705.0 -649.0C729.0 -648.0 743.0 -644.0 756.0 -632.0C781.0 -605.0 795.0 -533.0 809.0 -324.0C810.0 -317.0 811.0 -304.0 811.0 -304.0ZM567.0 253.0C559.0 225.0 540.0 180.0 525.0 151.0L550.0 141.0C564.0 167.0 581.0 205.0 597.0 240.0Z"/></g>
<g fill="black" opacity=".8" transform="translate(1300 300) scale(0.1 -0.1)"><path d="M0.0 0.0V-370.0H314.0V0.0ZM29.0 -199.0H283.0V-341.0H29.0ZM29.0 -29.0 283.0 -30.0V-169.0H29.0ZM69.0 163.0V134.0L232.0 135.0L233.0 163.0ZM139.0 -8.0V-356.0H169.0V-8.0ZM781.0 -304.0V-310.0C766.0 -516.0 753.0 -590.0 732.0 -613.0C725.0 -621.0 715.0 -623.0 699.0 -622.0C684.0 -622.0 639.0 -621.0 589.0 -616.0C595.0 -624.0 597.0 -637.0 598.0 -645.0C641.0 -648.0 684.0 -649.0 705.0 -648.0C728.0 -648.0 743.0 -645.0 756.0 -632.0C780.0 -604.0 795.0 -533.0 809.0 -324.0C810.0 -318.0 812.0 -304.0 812.0 -304.0ZM568.0 254.0C559.0 225.0 539.0 180.0 525.0 152.0L549.0 141.0C564.0 167.0 582.0 205.0 598.0 240.0Z"/></g>
<g fill="red" transform="translate(1400 300) scale(0.1 -0.1)"><path d="M0.0 0.0V-414.0H391.0V0.0ZM111.0 -257.0H275.0V-306.0H111.0ZM111.0 -108.0H275.0V-156.0H111.0ZM98.0 163.0V55.0H238.0V163.0ZM140.0 -68.0V-365.0H243.0V-68.0ZM771.0 -309.0V-326.0C766.0 -505.0 761.0 -568.0 749.0 -584.0C742.0 -593.0 735.0 -595.0 725.0 -595.0C712.0 -595.0 693.0 -595.0 669.0 -592.0C684.0 -619.0 695.0 -662.0 696.0 -694.0C731.0 -694.0 764.0 -694.0 785.0 -690.0C809.0 -686.0 828.0 -677.0 846.0 -654.0C867.0 -626.0 875.0 -546.0 881.0 -351.0C882.0 -337.0 883.0 -309.0 883.0 -309.0ZM565.0 254.0C562.0 220.0 552.0 174.0 543.0 138.0L660.0 117.0C676.0 148.0 698.0 191.0 719.0 239.0Z"/></g>
<g fill="black" opacity=".8" transform="translate(1400 300) scale(0.1 -0.1)"><path d="M0.0 0.0V-414.0H392.0V0.0ZM110.0 -257.0 275.0 -256.0V-305.0L112.0 -306.0ZM111.0 -108.0 275.0 -109.0V-156.0L111.0 -155.0ZM98.0 163.0 97.0 54.0 238.0 55.0V164.0ZM140.0 -68.0V-365.0H242.0V-68.0ZM771.0 -309.0V-327.0C766.0 -504.0 761.0 -568.0 750.0 -584.0C742.0 -593.0 735.0 -595.0 726.0 -595.0C712.0 -595.0 694.0 -595.0 669.0 -592.0C684.0 -619.0 695.0 -663.0 696.0 -695.0C732.0 -694.0 765.0 -694.0 784.0 -690.0C809.0 -686.0 827.0 -676.0 846.0 -653.0C867.0 -626.0 875.0 -545.0 881.0 -351.0C883.0 -337.0 882.0 -309.0 882.0 -309.0ZM565.0 254.0C561.0 221.0 553.0 175.0 542.0 138.0L660.0 115.0C676.0 149.0 698.0 191.0 718.0 239.0Z"/></g>
<g fill="red" transform="translate(1500 300) scale(0.1 -0.1)"><path d="M0.0 0.0V-29.0H455.0V0.0ZM26.0 166.0V137.0H437.0V166.0ZM88.0 -127.0H377.0V-208.0H88.0ZM505.0 161.0V-320.0H534.0V161.0ZM517.0 41.0V11.0H827.0V41.0ZM856.0 -302.0V-309.0C843.0 -515.0 829.0 -591.0 810.0 -611.0C804.0 -619.0 796.0 -620.0 780.0 -620.0C766.0 -620.0 726.0 -619.0 683.0 -615.0C688.0 -624.0 691.0 -636.0 692.0 -644.0C729.0 -647.0 767.0 -647.0 786.0 -647.0C809.0 -646.0 822.0 -642.0 834.0 -630.0C858.0 -604.0 870.0 -533.0 884.0 -322.0C885.0 -315.0 885.0 -302.0 885.0 -302.0ZM672.0 255.0C663.0 227.0 645.0 182.0 630.0 153.0L655.0 143.0C669.0 169.0 686.0 207.0 702.0 242.0Z"/></g>
<g fill="black" opacity=".8" transform="translate(1500 300) scale(0.1 -0.1)"><path d="M0.0 0.0V-28.0H456.0V0.0ZM25.0 166.0 26.0 137.0 436.0 136.0 437.0 166.0ZM88.0 -126.0 376.0 -128.0 377.0 -208.0H88.0ZM505.0 161.0 504.0 -320.0 533.0 -319.0 534.0 161.0ZM516.0 41.0V11.0H828.0V41.0ZM856.0 -302.0V-309.0C843.0 -515.0 830.0 -589.0 811.0 -612.0C805.0 -619.0 796.0 -621.0 780.0 -619.0C765.0 -619.0 726.0 -619.0 683.0 -614.0C689.0 -623.0 690.0 -636.0 692.0 -644.0C729.0 -647.0 767.0 -646.0 787.0 -646.0C809.0 -645.0 821.0 -643.0 834.0 -629.0C857.0 -603.0 870.0 -532.0 884.0 -322.0C885.0 -316.0 885.0 -302.0 885.0 -302.0ZM673.0 256.0C663.0 228.0 644.0 183.0 630.0 154.0L654.0 142.0C670.0 169.0 686.0 208.0 703.0 242.0Z"/></g>
<g fill="red" transform="translate(1600 300) scale(0.1 -0.1)"><path d="M0.0 0.0V-107.0H496.0V0.0ZM17.0 160.0V55.0H486.0V160.0ZM165.0 -216.0H332.0V-241.0H165.0ZM517.0 135.0V-387.0H637.0V135.0ZM598.0 14.0V-69.0H842.0V14.0ZM825.0 -340.0V-356.0C819.0 -540.0 811.0 -606.0 799.0 -622.0C792.0 -632.0 786.0 -634.0 776.0 -634.0C764.0 -634.0 747.0 -633.0 724.0 -631.0C738.0 -655.0 747.0 -695.0 749.0 -722.0C781.0 -723.0 811.0 -723.0 831.0 -719.0C854.0 -716.0 873.0 -708.0 890.0 -686.0C911.0 -658.0 921.0 -579.0 929.0 -380.0C930.0 -367.0 930.0 -340.0 930.0 -340.0ZM647.0 227.0C644.0 186.0 635.0 131.0 626.0 90.0L736.0 72.0C752.0 107.0 773.0 159.0 792.0 214.0Z"/></g>
<g fill="black" opacity=".8" transform="translate(1600 300) scale(0.1 -0.1)"><path d="M0.0 0.0V-107.0H497.0V0.0ZM16.0 160.0 17.0 57.0 486.0 55.0 488.0 159.0ZM165.0 -217.0H332.0L333.0 -241.0H164.0ZM516.0 135.0V-388.0L637.0 -386.0V135.0ZM598.0 14.0V-70.0H842.0V14.0ZM825.0 -340.0V-357.0C819.0 -540.0 811.0 -605.0 801.0 -622.0C793.0 -632.0 786.0 -635.0 776.0 -635.0C764.0 -635.0 747.0 -632.0 723.0 -631.0C738.0 -656.0 748.0 -696.0 749.0 -723.0C782.0 -724.0 812.0 -724.0 829.0 -719.0C854.0 -716.0 872.0 -707.0 890.0 -685.0C910.0 -658.0 921.0 -578.0 929.0 -380.0C931.0 -367.0 929.0 -340.0 929.0 -340.0ZM648.0 226.0C643.0 187.0 635.0 131.0 625.0 90.0L736.0 71.0C753.0 108.0 773.0 158.0 792.0 213.0Z"/></g>
<g fill="red" transform="translate(100 400) scale(0.1 -0.1)"><path d="M0.0 0.0V-139.0H304.0V0.0ZM30.0 -29.0H275.0V-109.0H30.0ZM332.0 58.0V29.0H809.0V58.0ZM370.0 180.0V150.0H776.0V180.0ZM550.0 41.0V-149.0H579.0V41.0ZM699.0 -474.0V-480.0C687.0 -573.0 676.0 -610.0 663.0 -623.0C658.0 -629.0 650.0 -630.0 640.0 -630.0C630.0 -630.0 607.0 -629.0 578.0 -626.0C583.0 -635.0 586.0 -647.0 586.0 -655.0C609.0 -656.0 632.0 -657.0 645.0 -656.0C663.0 -656.0 673.0 -653.0 683.0 -645.0C702.0 -629.0 714.0 -589.0 726.0 -493.0C728.0 -486.0 729.0 -474.0 729.0 -474.0ZM533.0 252.0C547.0 223.0 561.0 185.0 565.0 159.0L594.0 169.0C590.0 192.0 577.0 231.0 562.0 259.0Z"/></g>
<g fill="black" opacity=".8" transform="translate(100 400) scale(0.1 -0.1)"><path d="M0.0 0.0V-139.0H305.0V0.0ZM30.0 -28.0 276.0 -29.0 275.0 -109.0H30.0ZM332.0 59.0 331.0 28.0 809.0 30.0V58.0ZM369.0 181.0V150.0L775.0 152.0L777.0 180.0ZM550.0 41.0V-148.0H580.0V41.0ZM699.0 -474.0V-479.0C687.0 -573.0 677.0 -608.0 663.0 -624.0C659.0 -629.0 650.0 -631.0 641.0 -630.0C630.0 -630.0 607.0 -629.0 578.0 -625.0C584.0 -634.0 586.0 -647.0 586.0 -655.0C608.0 -655.0 632.0 -657.0 646.0 -655.0C662.0 -656.0 673.0 -653.0 683.0 -644.0C701.0 -628.0 713.0 -589.0 726.0 -493.0C728.0 -486.0 729.0 -474.0 729.0 -474.0ZM535.0 253.0C547.0 224.0 559.0 186.0 565.0 159.0L593.0 169.0C591.0 192.0 578.0 231.0 563.0 259.0Z"/></g>
<g fill="red" transform="translate(200 400) scale(0.1 -0.1)"><path d="M0.0 0.0V-181.0H312.0V0.0ZM109.0 -77.0H197.0V-104.0H109.0ZM322.0 49.0V-35.0H804.0V49.0ZM352.0 187.0V102.0H780.0V187.0ZM496.0 -3.0V-192.0H629.0V-3.0ZM634.0 -510.0V-524.0C630.0 -598.0 624.0 -630.0 615.0 -640.0C608.0 -646.0 602.0 -647.0 591.0 -647.0C578.0 -647.0 554.0 -647.0 526.0 -644.0C537.0 -662.0 548.0 -694.0 549.0 -711.0C596.0 -714.0 639.0 -714.0 664.0 -712.0C689.0 -711.0 719.0 -705.0 738.0 -687.0C758.0 -668.0 768.0 -630.0 774.0 -544.0C775.0 -533.0 775.0 -510.0 775.0 -510.0ZM480.0 228.0C494.0 194.0 506.0 149.0 509.0 121.0L648.0 144.0C643.0 174.0 628.0 217.0 612.0 249.0Z"/></g>
<g fill="black" opacity=".8" transform="translate(200 400) scale(0.1 -0.1)"><path d="M0.0 0.0V-181.0H313.0V0.0ZM108.0 -77.0 197.0 -76.0V-103.0L110.0 -104.0ZM322.0 48.0V-36.0L805.0 -35.0L804.0 49.0ZM352.0 187.0 351.0 100.0 780.0 102.0V188.0ZM496.0 -3.0V-192.0H629.0V-3.0ZM634.0 -509.0V-525.0C630.0 -597.0 624.0 -629.0 617.0 -641.0C608.0 -646.0 603.0 -648.0 592.0 -648.0C579.0 -648.0 555.0 -647.0 525.0 -644.0C538.0 -663.0 549.0 -695.0 548.0 -712.0C597.0 -714.0 640.0 -715.0 663.0 -712.0C690.0 -711.0 718.0 -704.0 738.0 -686.0C757.0 -667.0 768.0 -629.0 774.0 -545.0C777.0 -533.0 774.0 -509.0 774.0 -509.0ZM481.0 228.0C493.0 196.0 507.0 150.0 508.0 121.0L648.0 142.0C643.0 174.0 628.0 217.0 612.0 247.0Z"/></g>
<g fill="red" transform="translate(300 400) scale(0.1 -0.1)"><path d="M0.0 0.0V-288.0H30.0V0.0ZM14.0 -207.0V-237.0H738.0V-207.0ZM14.0 -70.0V-99.0H592.0V-70.0ZM110.0 373.0V344.0H441.0V373.0ZM135.0 242.0V212.0H419.0V242.0ZM670.0 -274.0V-280.0C656.0 -361.0 642.0 -396.0 627.0 -408.0C621.0 -414.0 615.0 -415.0 602.0 -415.0C591.0 -415.0 563.0 -414.0 530.0 -411.0C534.0 -419.0 537.0 -432.0 538.0 -439.0C565.0 -442.0 593.0 -442.0 606.0 -442.0C624.0 -442.0 635.0 -438.0 648.0 -430.0C668.0 -413.0 681.0 -378.0 697.0 -292.0C699.0 -287.0 700.0 -274.0 700.0 -274.0ZM284.0 62.0C277.0 44.0 260.0 13.0 248.0 -6.0L272.0 -17.0C284.0 2.0 298.0 24.0 313.0 50.0Z"/></g>
<g fill="black" opacity=".8" transform="translate(300 400) scale(0.1 -0.1)"><path d="M0.0 0.0V-287.0H31.0V0.0ZM13.0 -206.0 14.0 -236.0 737.0 -237.0 738.0 -207.0ZM14.0 -70.0 13.0 -100.0 592.0 -99.0V-70.0ZM110.0 374.0 108.0 344.0 440.0 345.0 442.0 372.0ZM135.0 241.0V213.0H420.0V241.0ZM670.0 -274.0V-279.0C655.0 -361.0 642.0 -394.0 627.0 -409.0C622.0 -414.0 615.0 -415.0 602.0 -414.0C590.0 -414.0 563.0 -414.0 530.0 -411.0C535.0 -418.0 537.0 -433.0 538.0 -438.0C565.0 -442.0 594.0 -442.0 607.0 -441.0C623.0 -441.0 635.0 -439.0 648.0 -429.0C667.0 -412.0 680.0 -378.0 696.0 -293.0C699.0 -288.0 701.0 -274.0 701.0 -274.0ZM285.0 64.0C277.0 45.0 258.0 13.0 247.0 -5.0L271.0 -17.0C284.0 2.0 299.0 24.0 315.0 50.0Z"/></g>
<g fill="red" transform="translate(400 400) scale(0.1 -0.1)"><path d="M0.0 0.0V-315.0H135.0V0.0ZM111.0 -215.0V-274.0H800.0V-215.0ZM99.0 -73.0V-122.0H581.0V-73.0ZM164.0 390.0V330.0H471.0V390.0ZM174.0 240.0V189.0H467.0V240.0ZM623.0 -294.0V-307.0C616.0 -362.0 605.0 -390.0 595.0 -400.0C588.0 -406.0 582.0 -407.0 571.0 -407.0C559.0 -407.0 534.0 -407.0 507.0 -404.0C518.0 -423.0 528.0 -455.0 529.0 -474.0C576.0 -477.0 617.0 -477.0 641.0 -476.0C664.0 -475.0 693.0 -470.0 713.0 -454.0C734.0 -436.0 748.0 -402.0 758.0 -332.0C761.0 -318.0 762.0 -294.0 762.0 -294.0ZM239.0 40.0C236.0 22.0 227.0 -2.0 220.0 -26.0L350.0 -43.0C363.0 -25.0 383.0 -3.0 403.0 30.0Z"/></g>
<g fill="black" opacity=".8" transform="translate(400 400) scale(0.1 -0.1)"><path d="M0.0 0.0V-316.0H135.0V0.0ZM110.0 -215.0 111.0 -272.0 799.0 -273.0 801.0 -215.0ZM99.0 -74.0 98.0 -123.0 582.0 -122.0 581.0 -72.0ZM164.0 390.0 162.0 328.0 472.0 330.0 470.0 390.0ZM175.0 240.0V189.0H466.0V240.0ZM623.0 -294.0V-308.0C616.0 -361.0 605.0 -390.0 597.0 -400.0C589.0 -406.0 582.0 -407.0 571.0 -407.0C559.0 -407.0 535.0 -407.0 506.0 -404.0C518.0 -424.0 528.0 -456.0 529.0 -476.0C577.0 -478.0 618.0 -477.0 639.0 -476.0C664.0 -475.0 692.0 -469.0 713.0 -453.0C733.0 -435.0 747.0 -402.0 758.0 -332.0C762.0 -319.0 761.0 -294.0 761.0 -294.0ZM239.0 40.0C236.0 23.0 227.0 -2.0 219.0 -26.0L350.0 -45.0C363.0 -25.0 383.0 -4.0 402.0 29.0Z"/></g>
<g fill="red" transform="translate(500 400) scale(0.1 -0.1)"><path d="M0.0 0.0V-29.0H188.0V0.0ZM38.0 590.0V265.0H396.0V590.0ZM77.0 163.0V-199.0H106.0V163.0ZM249.0 0.0V-29.0H425.0V0.0ZM327.0 163.0V-199.0H355.0V163.0ZM823.0 70.0V63.0C810.0 -133.0 797.0 -208.0 780.0 -227.0C774.0 -236.0 766.0 -237.0 752.0 -236.0C740.0 -236.0 704.0 -236.0 666.0 -232.0C671.0 -241.0 674.0 -254.0 674.0 -263.0C708.0 -266.0 741.0 -266.0 759.0 -266.0C779.0 -265.0 790.0 -261.0 802.0 -248.0C824.0 -222.0 836.0 -152.0 849.0 50.0C850.0 56.0 851.0 70.0 851.0 70.0ZM618.0 627.0C610.0 599.0 593.0 554.0 581.0 525.0L604.0 515.0C618.0 543.0 633.0 581.0 646.0 616.0Z"/></g>
<g fill="black" opacity=".8" transform="translate(500 400) scale(0.1 -0.1)"><path d="M0.0 0.0V-28.0H189.0V0.0ZM37.0 591.0 38.0 265.0H395.0L396.0 590.0ZM77.0 164.0 76.0 -200.0 106.0 -199.0V163.0ZM248.0 1.0V-29.0L424.0 -28.0L425.0 0.0ZM327.0 162.0V-198.0H356.0V162.0ZM823.0 69.0V64.0C810.0 -133.0 797.0 -207.0 780.0 -227.0C775.0 -237.0 766.0 -239.0 752.0 -235.0C740.0 -235.0 704.0 -237.0 666.0 -231.0C671.0 -240.0 674.0 -254.0 674.0 -263.0C707.0 -266.0 741.0 -266.0 760.0 -265.0C779.0 -265.0 790.0 -262.0 802.0 -248.0C824.0 -221.0 836.0 -152.0 849.0 50.0C850.0 55.0 852.0 69.0 852.0 69.0ZM619.0 628.0C609.0 600.0 591.0 555.0 580.0 526.0L603.0 515.0C618.0 543.0 634.0 581.0 648.0 616.0Z"/></g>
<g fill="red" transform="translate(600 400) scale(0.1 -0.1)"><path d="M0.0 0.0V-88.0H159.0V0.0ZM14.0 593.0V209.0H425.0V593.0ZM49.0 119.0V-205.0H105.0V119.0ZM264.0 0.0V-88.0H423.0V0.0ZM311.0 117.0V-207.0H369.0V117.0ZM779.0 65.0V48.0C774.0 -127.0 767.0 -193.0 756.0 -210.0C749.0 -219.0 742.0 -221.0 731.0 -221.0C719.0 -221.0 696.0 -221.0 670.0 -218.0C683.0 -245.0 693.0 -288.0 694.0 -318.0C729.0 -320.0 761.0 -319.0 781.0 -315.0C804.0 -312.0 823.0 -303.0 840.0 -279.0C860.0 -250.0 868.0 -171.0 876.0 22.0C877.0 36.0 877.0 65.0 877.0 65.0ZM594.0 637.0C589.0 596.0 577.0 541.0 565.0 500.0L660.0 479.0C677.0 515.0 700.0 567.0 720.0 622.0Z"/></g>
<g fill="black" opacity=".8" transform="translate(600 400) scale(0.1 -0.1)"><path d="M0.0 0.0V-89.0H160.0V0.0ZM13.0 593.0 14.0 211.0 424.0 209.0 426.0 592.0ZM49.0 119.0V-206.0L105.0 -205.0L104.0 119.0ZM264.0 0.0 263.0 -89.0 424.0 -87.0 423.0 0.0ZM311.0 117.0V-207.0H369.0V117.0ZM779.0 65.0V47.0C774.0 -126.0 767.0 -192.0 757.0 -210.0C749.0 -219.0 742.0 -222.0 731.0 -222.0C719.0 -222.0 697.0 -220.0 669.0 -218.0C683.0 -245.0 693.0 -289.0 693.0 -319.0C730.0 -320.0 762.0 -320.0 780.0 -315.0C804.0 -312.0 821.0 -302.0 840.0 -278.0C859.0 -250.0 868.0 -171.0 876.0 22.0C878.0 35.0 877.0 65.0 877.0 65.0ZM594.0 638.0C588.0 598.0 578.0 542.0 564.0 500.0L660.0 478.0C678.0 516.0 700.0 567.0 719.0 621.0Z"/></g>
<g fill="red" transform="translate(700 400) scale(0.1 -0.1)"><path d="M0.0 0.0V-314.0H368.0V0.0ZM31.0 -171.0H338.0V-285.0H31.0ZM452.0 -512.0V-542.0H806.0V-512.0ZM452.0 -49.0V-530.0H481.0V-49.0ZM464.0 -402.0V-431.0H848.0V-402.0ZM794.0 -512.0V-519.0C781.0 -725.0 767.0 -801.0 749.0 -821.0C743.0 -829.0 735.0 -830.0 721.0 -830.0C709.0 -830.0 673.0 -829.0 635.0 -826.0C640.0 -834.0 643.0 -847.0 643.0 -854.0C675.0 -857.0 710.0 -857.0 726.0 -857.0C748.0 -857.0 761.0 -852.0 772.0 -840.0C796.0 -814.0 809.0 -744.0 822.0 -532.0C823.0 -525.0 823.0 -512.0 823.0 -512.0ZM605.0 45.0C596.0 17.0 577.0 -28.0 563.0 -57.0L587.0 -67.0C602.0 -41.0 619.0 -3.0 634.0 32.0Z"/></g>
<g fill="black" opacity=".8" transform="translate(700 400) scale(0.1 -0.1)"><path d="M0.0 0.0V-314.0H369.0V0.0ZM30.0 -171.0H339.0L338.0 -286.0L31.0 -284.0ZM452.0 -511.0V-543.0L806.0 -542.0V-512.0ZM452.0 -49.0 451.0 -529.0H480.0L482.0 -48.0ZM464.0 -402.0V-430.0H849.0V-402.0ZM794.0 -512.0V-518.0C781.0 -724.0 767.0 -800.0 750.0 -822.0C744.0 -830.0 735.0 -831.0 721.0 -830.0C709.0 -830.0 674.0 -830.0 634.0 -826.0C640.0 -833.0 643.0 -848.0 643.0 -854.0C675.0 -857.0 710.0 -857.0 727.0 -856.0C747.0 -856.0 760.0 -852.0 772.0 -840.0C796.0 -813.0 808.0 -743.0 822.0 -532.0C823.0 -525.0 824.0 -512.0 824.0 -512.0ZM606.0 46.0C596.0 18.0 576.0 -27.0 563.0 -56.0L587.0 -66.0C603.0 -41.0 620.0 -3.0 635.0 32.0Z"/></g>
<g fill="red" transform="translate(800 400) scale(0.1 -0.1)"><path d="M0.0 0.0V-376.0H401.0V0.0ZM105.0 -230.0H292.0V-284.0H105.0ZM449.0 -532.0V-636.0H801.0V-532.0ZM449.0 -57.0V-584.0H569.0V-57.0ZM502.0 -407.0V-505.0H904.0V-407.0ZM776.0 -532.0V-549.0C768.0 -727.0 757.0 -793.0 743.0 -811.0C736.0 -820.0 729.0 -822.0 717.0 -822.0C705.0 -822.0 685.0 -821.0 661.0 -819.0C676.0 -845.0 685.0 -886.0 687.0 -915.0C722.0 -916.0 754.0 -916.0 775.0 -912.0C799.0 -908.0 819.0 -900.0 837.0 -878.0C861.0 -849.0 873.0 -769.0 883.0 -574.0C884.0 -560.0 885.0 -532.0 885.0 -532.0ZM573.0 35.0C565.0 -5.0 547.0 -58.0 530.0 -98.0L644.0 -119.0C666.0 -84.0 696.0 -34.0 723.0 20.0Z"/></g>
<g fill="black" opacity=".8" transform="translate(800 400) scale(0.1 -0.1)"><path d="M0.0 0.0V-376.0H402.0V0.0ZM104.0 -230.0 292.0 -229.0V-283.0L106.0 -284.0ZM449.0 -532.0V-637.0L801.0 -636.0L800.0 -531.0ZM449.0 -57.0 448.0 -585.0 569.0 -584.0V-56.0ZM502.0 -407.0V-505.0H903.0V-407.0ZM776.0 -532.0V-550.0C768.0 -727.0 758.0 -793.0 745.0 -811.0C736.0 -820.0 729.0 -822.0 718.0 -822.0C705.0 -822.0 685.0 -820.0 661.0 -819.0C676.0 -846.0 686.0 -887.0 686.0 -916.0C722.0 -916.0 755.0 -917.0 774.0 -913.0C799.0 -908.0 818.0 -899.0 836.0 -877.0C860.0 -849.0 873.0 -768.0 884.0 -574.0C885.0 -560.0 884.0 -532.0 884.0 -532.0ZM574.0 35.0C565.0 -3.0 548.0 -58.0 529.0 -98.0L644.0 -120.0C666.0 -83.0 696.0 -34.0 722.0 19.0Z"/></g>
<g fill="red" transform="translate(900 400) scale(0.1 -0.1)"><path d="M0.0 0.0V-29.0H393.0V0.0ZM43.0 416.0V108.0H366.0V416.0ZM73.0 248.0H336.0V137.0H73.0ZM73.0 386.0H336.0V277.0H73.0ZM188.0 679.0V406.0H218.0V679.0ZM841.0 122.0V115.0C826.0 -89.0 812.0 -166.0 790.0 -187.0C782.0 -195.0 773.0 -196.0 757.0 -196.0C741.0 -196.0 694.0 -195.0 645.0 -191.0C650.0 -199.0 653.0 -211.0 654.0 -219.0C698.0 -222.0 742.0 -223.0 763.0 -223.0C787.0 -222.0 801.0 -218.0 814.0 -206.0C839.0 -179.0 854.0 -106.0 869.0 102.0C870.0 109.0 871.0 122.0 871.0 122.0ZM625.0 679.0C617.0 651.0 598.0 606.0 583.0 577.0L608.0 567.0C622.0 593.0 639.0 631.0 655.0 666.0Z"/></g>
<g fill="black" opacity=".8" transform="translate(900 400) scale(0.1 -0.1)"><path d="M0.0 0.0V-29.0H394.0V0.0ZM42.0 417.0 43.0 108.0H366.0V416.0ZM73.0 248.0 335.0 247.0 336.0 137.0H73.0ZM72.0 387.0 335.0 386.0V279.0L73.0 276.0ZM188.0 678.0V406.0H219.0V678.0ZM842.0 122.0V116.0C826.0 -89.0 812.0 -165.0 790.0 -188.0C783.0 -195.0 773.0 -197.0 757.0 -196.0C740.0 -196.0 694.0 -195.0 645.0 -190.0C651.0 -198.0 652.0 -211.0 654.0 -218.0C698.0 -222.0 742.0 -223.0 764.0 -223.0C787.0 -221.0 801.0 -219.0 814.0 -206.0C838.0 -178.0 853.0 -105.0 869.0 102.0C870.0 108.0 872.0 122.0 872.0 122.0ZM626.0 680.0C617.0 652.0 597.0 606.0 583.0 578.0L607.0 567.0C623.0 593.0 639.0 631.0 656.0 666.0Z"/></g>
<g fill="red" transform="translate(1000 400) scale(0.1 -0.1)"><path d="M0.0 0.0V-122.0H446.0V0.0ZM34.0 419.0V49.0H425.0V419.0ZM158.0 186.0H295.0V154.0H158.0ZM158.0 314.0H295.0V283.0H158.0ZM158.0 676.0V370.0H294.0V676.0ZM819.0 109.0V92.0C812.0 -82.0 803.0 -145.0 790.0 -162.0C783.0 -171.0 775.0 -173.0 764.0 -173.0C752.0 -173.0 732.0 -173.0 707.0 -170.0C722.0 -198.0 733.0 -243.0 735.0 -275.0C771.0 -276.0 805.0 -275.0 826.0 -271.0C851.0 -267.0 871.0 -258.0 889.0 -235.0C913.0 -206.0 924.0 -125.0 933.0 66.0C935.0 80.0 936.0 109.0 936.0 109.0ZM610.0 676.0C607.0 635.0 597.0 580.0 587.0 538.0L707.0 518.0C724.0 554.0 747.0 605.0 768.0 661.0Z"/></g>
<g fill="black" opacity=".8" transform="translate(1000 400) scale(0.1 -0.1)"><path d="M0.0 0.0V-122.0H446.0V0.0ZM34.0 419.0V50.0H425.0L426.0 419.0ZM158.0 186.0 294.0 185.0 296.0 153.0 157.0 154.0ZM159.0 314.0 294.0 313.0 296.0 283.0H158.0ZM159.0 676.0V370.0H294.0V676.0ZM820.0 109.0V92.0C812.0 -81.0 803.0 -145.0 792.0 -162.0C783.0 -171.0 776.0 -174.0 765.0 -174.0C752.0 -174.0 733.0 -173.0 706.0 -170.0C723.0 -199.0 733.0 -243.0 734.0 -276.0C772.0 -276.0 806.0 -275.0 825.0 -271.0C851.0 -267.0 870.0 -257.0 889.0 -234.0C913.0 -205.0 924.0 -125.0 933.0 66.0C936.0 80.0 935.0 109.0 935.0 109.0ZM611.0 676.0C606.0 636.0 597.0 580.0 587.0 538.0L706.0 516.0C724.0 555.0 747.0 605.0 768.0 660.0Z"/></g>
<g fill="red" transform="translate(1100 400) scale(0.1 -0.1)"><path d="M0.0 0.0V-29.0H305.0V0.0ZM23.0 601.0V254.0H345.0V601.0ZM52.0 414.0H316.0V284.0H52.0ZM52.0 572.0H316.0V443.0H52.0ZM448.0 555.0V74.0H480.0V555.0ZM820.0 92.0V85.0C805.0 -119.0 789.0 -196.0 770.0 -217.0C762.0 -225.0 754.0 -226.0 739.0 -226.0C726.0 -226.0 688.0 -225.0 646.0 -221.0C652.0 -230.0 655.0 -243.0 656.0 -251.0C691.0 -254.0 728.0 -255.0 746.0 -254.0C769.0 -254.0 782.0 -249.0 794.0 -237.0C820.0 -210.0 834.0 -138.0 850.0 72.0C851.0 78.0 852.0 92.0 852.0 92.0ZM601.0 649.0C592.0 621.0 574.0 576.0 559.0 547.0L585.0 537.0C599.0 563.0 616.0 600.0 632.0 636.0Z"/></g>
<g fill="black" opacity=".8" transform="translate(1100 400) scale(0.1 -0.1)"><path d="M0.0 0.0V-29.0H305.0V0.0ZM22.0 602.0 24.0 254.0H345.0V601.0ZM52.0 415.0 315.0 413.0 317.0 284.0 52.0 283.0ZM52.0 573.0 315.0 572.0 314.0 444.0 52.0 443.0ZM448.0 555.0V75.0H481.0V555.0ZM820.0 92.0V86.0C804.0 -119.0 790.0 -195.0 770.0 -218.0C763.0 -225.0 753.0 -227.0 739.0 -226.0C726.0 -226.0 688.0 -225.0 646.0 -221.0C653.0 -229.0 655.0 -243.0 656.0 -251.0C691.0 -254.0 728.0 -255.0 747.0 -254.0C768.0 -254.0 782.0 -250.0 794.0 -237.0C819.0 -209.0 834.0 -137.0 850.0 72.0C851.0 77.0 852.0 92.0 852.0 92.0ZM602.0 650.0C592.0 622.0 573.0 577.0 558.0 548.0L584.0 537.0C599.0 562.0 616.0 600.0 634.0 636.0Z"/></g>
<g fill="red" transform="translate(1200 400) scale(0.1 -0.1)"><path d="M0.0 0.0V-117.0H203.0V0.0ZM-37.0 605.0V203.0H330.0V605.0ZM74.0 354.0H214.0V312.0H74.0ZM74.0 496.0H214.0V455.0H74.0ZM400.0 544.0V22.0H524.0V544.0ZM741.0 69.0V52.0C735.0 -121.0 727.0 -186.0 713.0 -202.0C705.0 -211.0 698.0 -213.0 685.0 -213.0C671.0 -213.0 644.0 -213.0 614.0 -210.0C631.0 -238.0 642.0 -282.0 644.0 -314.0C684.0 -315.0 722.0 -314.0 745.0 -310.0C772.0 -307.0 794.0 -298.0 813.0 -274.0C837.0 -245.0 847.0 -165.0 856.0 26.0C857.0 40.0 857.0 69.0 857.0 69.0ZM522.0 641.0C516.0 600.0 502.0 545.0 488.0 504.0L600.0 484.0C620.0 520.0 647.0 572.0 670.0 627.0Z"/></g>
<g fill="black" opacity=".8" transform="translate(1200 400) scale(0.1 -0.1)"><path d="M0.0 0.0V-118.0H204.0V0.0ZM-38.0 606.0 -36.0 204.0H330.0L331.0 604.0ZM74.0 354.0 214.0 352.0V312.0H74.0ZM74.0 496.0 212.0 494.0 215.0 455.0 74.0 456.0ZM400.0 544.0V22.0H523.0V544.0ZM741.0 69.0V51.0C736.0 -120.0 727.0 -185.0 715.0 -201.0C705.0 -211.0 698.0 -214.0 685.0 -214.0C671.0 -214.0 645.0 -213.0 613.0 -210.0C632.0 -239.0 642.0 -283.0 643.0 -315.0C685.0 -316.0 723.0 -314.0 744.0 -310.0C773.0 -307.0 793.0 -297.0 813.0 -273.0C836.0 -244.0 847.0 -165.0 856.0 26.0C859.0 39.0 856.0 69.0 856.0 69.0ZM523.0 641.0C516.0 601.0 502.0 546.0 488.0 504.0L600.0 482.0C620.0 521.0 646.0 572.0 670.0 626.0Z"/></g>
</svg>
