<?xml version="1.0" encoding="UTF-8"?>
<svg width="1700" height="300" xmlns="http://www.w3.org/2000/svg">
<rect width="100%" height="100%" fill="white"/>
<g fill="green" transform="translate(100 100) scale(0.1 -0.1)"><path d="M0.0 0.0V-30.0H269.0V0.0ZM739.0 302.0V296.0C731.0 209.0 711.0 24.0 694.0 -96.0L722.0 -98.0C740.0 23.0 759.0 199.0 768.0 301.0L748.0 305.0L742.0 302.0ZM-21.0 -386.0 -11.0 -417.0C70.0 -389.0 179.0 -351.0 284.0 -316.0L279.0 -286.0C167.0 -325.0 55.0 -363.0 -21.0 -386.0ZM833.0 -75.0V-82.0C809.0 -354.0 785.0 -458.0 752.0 -488.0C744.0 -497.0 733.0 -499.0 714.0 -498.0C696.0 -498.0 645.0 -498.0 591.0 -492.0C596.0 -501.0 599.0 -514.0 600.0 -523.0C649.0 -527.0 696.0 -527.0 719.0 -527.0C747.0 -527.0 762.0 -522.0 777.0 -507.0C813.0 -472.0 837.0 -371.0 862.0 -95.0C863.0 -88.0 863.0 -75.0 863.0 -75.0ZM413.0 186.0C407.0 97.0 394.0 -30.0 382.0 -103.0H410.0C421.0 -32.0 434.0 92.0 441.0 183.0Z"/></g>
<g fill="green" transform="translate(200 100) scale(0.1 -0.1)"><path d="M0.0 0.0V-133.0H316.0V0.0ZM709.0 292.0V278.0C703.0 173.0 685.0 -21.0 665.0 -169.0L802.0 -180.0C821.0 -33.0 840.0 144.0 849.0 288.0L746.0 297.0L724.0 292.0ZM-21.0 -378.0 11.0 -526.0C111.0 -494.0 235.0 -454.0 348.0 -415.0L323.0 -277.0C201.0 -316.0 68.0 -356.0 -21.0 -378.0ZM777.0 -92.0V-114.0C763.0 -349.0 742.0 -446.0 720.0 -469.0C709.0 -481.0 699.0 -483.0 684.0 -483.0C665.0 -483.0 630.0 -483.0 592.0 -479.0C613.0 -514.0 628.0 -569.0 630.0 -608.0C678.0 -609.0 722.0 -608.0 751.0 -604.0C785.0 -599.0 811.0 -588.0 837.0 -557.0C872.0 -518.0 893.0 -408.0 912.0 -147.0C914.0 -130.0 916.0 -92.0 916.0 -92.0ZM416.0 137.0C409.0 23.0 394.0 -122.0 379.0 -214.0H515.0C528.0 -127.0 543.0 15.0 552.0 129.0Z"/></g>
<g fill="green" transform="translate(300 100) scale(0.1 -0.1)"><path d="M0.0 0.0V-30.0H269.0V0.0ZM739.0 302.0V296.0C731.0 209.0 711.0 24.0 694.0 -96.0L722.0 -98.0C740.0 23.0 759.0 199.0 768.0 301.0L748.0 305.0L742.0 302.0ZM-21.0 -386.0 -11.0 -417.0C70.0 -389.0 179.0 -351.0 284.0 -316.0L279.0 -286.0C167.0 -325.0 55.0 -363.0 -21.0 -386.0ZM833.0 -75.0V-82.0C809.0 -354.0 785.0 -458.0 752.0 -488.0C744.0 -497.0 733.0 -499.0 714.0 -498.0C696.0 -498.0 645.0 -498.0 591.0 -492.0C596.0 -501.0 599.0 -514.0 600.0 -523.0C649.0 -527.0 696.0 -527.0 719.0 -527.0C747.0 -527.0 762.0 -522.0 777.0 -507.0C813.0 -472.0 837.0 -371.0 862.0 -95.0C863.0 -88.0 863.0 -75.0 863.0 -75.0ZM413.0 186.0C407.0 97.0 394.0 -30.0 382.0 -103.0H410.0C421.0 -32.0 434.0 92.0 441.0 183.0Z"/></g>
<g fill="green" transform="translate(400 100) scale(0.1 -0.1)"><path d="M0.0 0.0V-133.0H316.0V0.0ZM709.0 292.0V278.0C703.0 173.0 685.0 -21.0 665.0 -169.0L802.0 -180.0C821.0 -33.0 840.0 144.0 849.0 288.0L746.0 297.0L724.0 292.0ZM-21.0 -378.0 11.0 -526.0C111.0 -494.0 235.0 -454.0 348.0 -415.0L323.0 -277.0C201.0 -316.0 68.0 -356.0 -21.0 -378.0ZM777.0 -92.0V-114.0C763.0 -349.0 742.0 -446.0 720.0 -469.0C709.0 -481.0 699.0 -483.0 684.0 -483.0C665.0 -483.0 630.0 -483.0 592.0 -479.0C613.0 -514.0 628.0 -569.0 630.0 -608.0C678.0 -609.0 722.0 -608.0 751.0 -604.0C785.0 -599.0 811.0 -588.0 837.0 -557.0C872.0 -518.0 893.0 -408.0 912.0 -147.0C914.0 -130.0 916.0 -92.0 916.0 -92.0ZM416.0 137.0C409.0 23.0 394.0 -122.0 379.0 -214.0H515.0C528.0 -127.0 543.0 15.0 552.0 129.0Z"/></g>
<g fill="red" transform="translate(100 200) scale(0.1 -0.1)"><path d="M0.0 0.0V-30.0H269.0V0.0ZM739.0 302.0V296.0C731.0 209.0 711.0 24.0 694.0 -96.0L722.0 -98.0C740.0 23.0 759.0 199.0 768.0 301.0L748.0 305.0L742.0 302.0ZM-21.0 -386.0 -11.0 -417.0C70.0 -389.0 179.0 -351.0 284.0 -316.0L279.0 -286.0C167.0 -325.0 55.0 -363.0 -21.0 -386.0ZM833.0 -75.0V-82.0C809.0 -354.0 785.0 -458.0 752.0 -488.0C744.0 -497.0 733.0 -499.0 714.0 -498.0C696.0 -498.0 645.0 -498.0 591.0 -492.0C596.0 -501.0 599.0 -514.0 600.0 -523.0C649.0 -527.0 696.0 -527.0 719.0 -527.0C747.0 -527.0 762.0 -522.0 777.0 -507.0C813.0 -472.0 837.0 -371.0 862.0 -95.0C863.0 -88.0 863.0 -75.0 863.0 -75.0ZM413.0 186.0C407.0 97.0 394.0 -30.0 382.0 -103.0H410.0C421.0 -32.0 434.0 92.0 441.0 183.0Z"/></g>
<g fill="black" opacity=".8" transform="translate(100 200) scale(0.1 -0.1)"><path d="M0.0 0.0V-30.0H269.0V0.0ZM739.0 302.0V296.0C731.0 209.0 711.0 24.0 694.0 -96.0L722.0 -98.0C740.0 23.0 759.0 199.0 768.0 301.0L748.0 305.0L742.0 302.0ZM-21.0 -386.0 -11.0 -417.0C70.0 -389.0 179.0 -351.0 284.0 -316.0L279.0 -286.0C167.0 -325.0 55.0 -363.0 -21.0 -386.0ZM833.0 -75.0V-82.0C809.0 -354.0 785.0 -458.0 752.0 -488.0C744.0 -497.0 733.0 -499.0 714.0 -498.0C696.0 -498.0 645.0 -498.0 591.0 -492.0C596.0 -501.0 599.0 -514.0 600.0 -523.0C649.0 -527.0 696.0 -527.0 719.0 -527.0C747.0 -527.0 762.0 -522.0 777.0 -507.0C813.0 -472.0 837.0 -371.0 862.0 -95.0C863.0 -88.0 863.0 -75.0 863.0 -75.0ZM413.0 186.0C407.0 97.0 394.0 -30.0 382.0 -103.0H410.0C421.0 -32.0 434.0 92.0 441.0 183.0Z"/></g>
<g fill="red" transform="translate(200 200) scale(0.1 -0.1)"><path d="M0.0 0.0V-133.0H316.0V0.0ZM709.0 292.0V278.0C703.0 173.0 685.0 -21.0 665.0 -169.0L802.0 -180.0C821.0 -33.0 840.0 144.0 849.0 288.0L746.0 297.0L724.0 292.0ZM-21.0 -378.0 11.0 -526.0C111.0 -494.0 235.0 -454.0 348.0 -415.0L323.0 -277.0C201.0 -316.0 68.0 -356.0 -21.0 -378.0ZM777.0 -92.0V-114.0C763.0 -349.0 742.0 -446.0 720.0 -469.0C709.0 -481.0 699.0 -483.0 684.0 -483.0C665.0 -483.0 630.0 -483.0 592.0 -479.0C613.0 -514.0 628.0 -569.0 630.0 -608.0C678.0 -609.0 722.0 -608.0 751.0 -604.0C785.0 -599.0 811.0 -588.0 837.0 -557.0C872.0 -518.0 893.0 -408.0 912.0 -147.0C914.0 -130.0 916.0 -92.0 916.0 -92.0ZM416.0 137.0C409.0 23.0 394.0 -122.0 379.0 -214.0H515.0C528.0 -127.0 543.0 15.0 552.0 129.0Z"/></g>
<g fill="black" opacity=".8" transform="translate(200 200) scale(0.1 -0.1)"><path d="M0.0 0.0V-133.0H316.0V0.0ZM709.0 292.0V278.0C703.0 173.0 685.0 -21.0 665.0 -169.0L802.0 -180.0C821.0 -33.0 840.0 144.0 849.0 288.0L746.0 297.0L724.0 292.0ZM-21.0 -378.0 11.0 -526.0C111.0 -494.0 235.0 -454.0 348.0 -415.0L323.0 -277.0C201.0 -316.0 68.0 -356.0 -21.0 -378.0ZM777.0 -92.0V-114.0C763.0 -349.0 742.0 -446.0 720.0 -469.0C709.0 -481.0 699.0 -483.0 684.0 -483.0C665.0 -483.0 630.0 -483.0 592.0 -479.0C613.0 -514.0 628.0 -569.0 630.0 -608.0C678.0 -609.0 722.0 -608.0 751.0 -604.0C785.0 -599.0 811.0 -588.0 837.0 -557.0C872.0 -518.0 893.0 -408.0 912.0 -147.0C914.0 -130.0 916.0 -92.0 916.0 -92.0ZM416.0 137.0C409.0 23.0 394.0 -122.0 379.0 -214.0H515.0C528.0 -127.0 543.0 15.0 552.0 129.0Z"/></g>
</svg>
