<?xml version="1.0" encoding="UTF-8"?>
<svg width="1700" height="300" xmlns="http://www.w3.org/2000/svg">
<rect width="100%" height="100%" fill="white"/>
<g fill="green" transform="translate(100 100) scale(0.1 -0.1)"><path d="M-0.0 -0.0V-344.0H-129.0V-762.0H52.0V-137.0H-96.0V0.0ZM781.0 151.0V98.0V-3.0H813.0V98.0V151.0Z"/></g>
<g fill="green" transform="translate(200 100) scale(0.1 -0.1)"><path d="M0.0 0.0V-297.0H-114.0V-790.0H177.0V-101.0H5.0V0.0ZM858.0 220.0V79.0H888.0V9.0H948.0V79.0H978.0V220.0Z"/></g>
<g fill="green" transform="translate(300 100) scale(0.1 -0.1)"><path d="M0.0 0.0V-205.0H-155.0V-380.0H35.0V44.0H-143.0V0.0ZM493.0 134.0V253.0V342.0H504.0V253.0V134.0Z"/></g>
<g fill="green" transform="translate(400 100) scale(0.1 -0.1)"><path d="M0.0 0.0V-135.0H-128.0V-396.0H114.0V102.0H-83.0V0.0ZM562.0 210.0V240.0H595.0V358.0H579.0V240.0H612.0V210.0Z"/></g>
<g fill="green" transform="translate(500 100) scale(0.1 -0.1)"><path d="M0.0 0.0V-192.0H19.0V-589.0H31.0V-228.0H53.0V0.0ZM451.0 -319.0V-568.0V-819.0H483.0V-568.0V-319.0Z"/></g>
<g fill="green" transform="translate(600 100) scale(0.1 -0.1)"><path d="M0.0 0.0V-223.0H9.0V-612.0H114.0V-259.0H131.0V0.0ZM488.0 -327.0V-632.0H483.0V-883.0H569.0V-632.0H564.0V-327.0Z"/></g>
<g fill="green" transform="translate(700 100) scale(0.1 -0.1)"><path d="M-0.0 0.0V-309.0H98.0V-887.0H38.0V-471.0H150.0V0.0ZM707.0 441.0V175.0V-72.0H759.0V175.0V441.0Z"/></g>
<g fill="green" transform="translate(800 100) scale(0.1 -0.1)"><path d="M0.0 0.0V-323.0H39.0V-871.0H118.0V-477.0H201.0V0.0ZM716.0 481.0V170.0H745.0V0.0H853.0V170.0H882.0V481.0Z"/></g>
<g fill="green" transform="translate(900 100) scale(0.1 -0.1)"><path d="M-0.0 -0.0V-453.0H-202.0V-773.0H52.0V-150.0H-178.0V0.0ZM753.0 199.0V107.0V-65.0H777.0V107.0V199.0Z"/></g>
<g fill="green" transform="translate(1000 100) scale(0.1 -0.1)"><path d="M0.0 0.0V-381.0H-172.0V-822.0H180.0V-104.0H-82.0V0.0ZM842.0 271.0V103.0H867.0V-40.0H931.0V103.0H955.0V271.0Z"/></g>
<g fill="green" transform="translate(1100 100) scale(0.1 -0.1)"><path d="M0.0 0.0V-335.0H-116.0V-721.0H50.0V-102.0H-87.0V0.0ZM779.0 175.0V103.0V-59.0H809.0V103.0V175.0Z"/></g>
<g fill="green" transform="translate(1200 100) scale(0.1 -0.1)"><path d="M0.0 0.0V-310.0H-90.0V-742.0H176.0V-68.0H32.0V0.0ZM868.0 255.0V98.0H887.0V-18.0H984.0V98.0H1003.0V255.0Z"/></g>
<g fill="green" transform="translate(1300 100) scale(0.1 -0.1)"><path d="M0.0 -0.0V-301.0H-149.0V-753.0H51.0V-122.0H-114.0V0.0ZM777.0 164.0V111.0V-13.0H809.0V111.0V164.0Z"/></g>
<g fill="green" transform="translate(1400 100) scale(0.1 -0.1)"><path d="M0.0 0.0V-266.0H-117.0V-816.0H179.0V-124.0H-3.0V0.0ZM861.0 214.0V85.0H893.0V-13.0H949.0V85.0H981.0V214.0Z"/></g>
<g fill="green" transform="translate(1500 100) scale(0.1 -0.1)"><path d="M-0.0 -0.0V-346.0H-121.0V-778.0H55.0V-127.0H-86.0V0.0ZM794.0 150.0V99.0V0.0H827.0V99.0V150.0Z"/></g>
<g fill="green" transform="translate(1600 100) scale(0.1 -0.1)"><path d="M0.0 0.0V-302.0H-119.0V-801.0H188.0V-82.0H12.0V0.0ZM831.0 185.0V112.0H852.0V-21.0H946.0V112.0H968.0V185.0Z"/></g>
<g fill="red" transform="translate(100 200) scale(0.1 -0.1)"><path d="M0.0 0.0V-182.0V-550.0H29.0V-182.0V0.0ZM443.0 -272.0V-551.0V-898.0H472.0V-551.0V-272.0Z"/></g>
<g fill="black" opacity=".8" transform="translate(100 200) scale(0.1 -0.1)"><path d="M0.0 0.0V-181.0V-550.0H29.0V-182.0V0.0ZM443.0 -272.0V-550.0V-899.0H471.0V-550.0V-272.0Z"/></g>
<g fill="red" transform="translate(200 200) scale(0.1 -0.1)"><path d="M0.0 0.0V-238.0H13.0V-597.0H119.0V-238.0H131.0V0.0ZM487.0 -295.0V-589.0H468.0V-951.0H600.0V-589.0H581.0V-295.0Z"/></g>
<g fill="black" opacity=".8" transform="translate(200 200) scale(0.1 -0.1)"><path d="M0.0 0.0V-238.0H13.0V-597.0H119.0V-237.0H130.0V0.0ZM486.0 -295.0V-590.0H467.0V-951.0H600.0V-590.0H581.0V-295.0Z"/></g>
<g fill="red" transform="translate(300 200) scale(0.1 -0.1)"><path d="M0.0 0.0V-304.0V-643.0H29.0V-304.0V0.0ZM514.0 259.0V19.0V-265.0H544.0V19.0V259.0Z"/></g>
<g fill="black" opacity=".8" transform="translate(300 200) scale(0.1 -0.1)"><path d="M0.0 0.0V-304.0V-642.0H29.0V-304.0V0.0ZM514.0 258.0V20.0V-265.0H544.0V20.0V258.0Z"/></g>
<g fill="red" transform="translate(400 200) scale(0.1 -0.1)"><path d="M0.0 0.0V-310.0H-13.0V-656.0H100.0V-310.0H88.0V0.0ZM553.0 295.0V21.0H561.0V-205.0H663.0V21.0H671.0V295.0Z"/></g>
<g fill="black" opacity=".8" transform="translate(400 200) scale(0.1 -0.1)"><path d="M0.0 0.0V-310.0H-13.0V-655.0H101.0V-309.0H88.0V0.0ZM552.0 295.0V20.0H560.0V-205.0H664.0V20.0H671.0V295.0Z"/></g>
<g fill="red" transform="translate(500 200) scale(0.1 -0.1)"><path d="M0.0 0.0V-182.0V-528.0H30.0V-182.0V0.0ZM451.0 -46.0V-184.0V-320.0H480.0V-184.0V-46.0Z"/></g>
<g fill="black" opacity=".8" transform="translate(500 200) scale(0.1 -0.1)"><path d="M0.0 0.0V-182.0V-528.0H30.0V-182.0V0.0ZM451.0 -47.0V-183.0V-320.0H479.0V-183.0V-47.0Z"/></g>
<g fill="red" transform="translate(600 200) scale(0.1 -0.1)"><path d="M0.0 0.0V-186.0H-16.0V-539.0H103.0V-186.0H87.0V0.0ZM468.0 -43.0V-207.0H476.0V-351.0H542.0V-207.0H550.0V-43.0Z"/></g>
<g fill="black" opacity=".8" transform="translate(600 200) scale(0.1 -0.1)"><path d="M0.0 0.0V-186.0H-16.0V-539.0H103.0V-185.0H87.0V0.0ZM467.0 -43.0V-208.0H475.0V-351.0H542.0V-208.0H550.0V-43.0Z"/></g>
<g fill="red" transform="translate(700 200) scale(0.1 -0.1)"><path d="M0.0 0.0V-29.0H228.0V-317.0H0.0V-346.0H257.0V0.0ZM104.0 -11.0V-327.0V-599.0H134.0V-327.0V-11.0Z"/></g>
<g fill="black" opacity=".8" transform="translate(700 200) scale(0.1 -0.1)"><path d="M0.0 0.0V-28.0H228.0V-316.0H1.0V-346.0H257.0V0.0ZM104.0 -12.0V-325.0V-600.0H133.0V-325.0V-12.0Z"/></g>
<g fill="red" transform="translate(800 200) scale(0.1 -0.1)"><path d="M0.0 0.0V-117.0H160.0V-277.0H0.0V-394.0H260.0V0.0ZM54.0 -52.0V-333.0H35.0V-591.0H150.0V-333.0H131.0V-52.0Z"/></g>
<g fill="black" opacity=".8" transform="translate(800 200) scale(0.1 -0.1)"><path d="M0.0 0.0V-117.0H160.0V-276.0H1.0V-392.0H260.0V0.0ZM53.0 -52.0V-334.0H34.0V-591.0H150.0V-334.0H131.0V-52.0Z"/></g>
<g fill="red" transform="translate(900 200) scale(0.1 -0.1)"><path d="M0.0 0.0V-29.0H164.0V-322.0H0.0V-352.0H193.0V0.0ZM77.0 -11.0V-320.0V-593.0H105.0V-320.0V-11.0Z"/></g>
<g fill="black" opacity=".8" transform="translate(900 200) scale(0.1 -0.1)"><path d="M0.0 0.0V-28.0H164.0V-322.0H-0.0V-353.0H193.0V0.0ZM77.0 -12.0V-319.0V-593.0H104.0V-319.0V-12.0Z"/></g>
<g fill="red" transform="translate(1000 200) scale(0.1 -0.1)"><path d="M0.0 0.0V-101.0H116.0V-332.0H0.0V-434.0H192.0V0.0ZM43.0 -67.0V-348.0H34.0V-606.0H107.0V-348.0H98.0V-67.0Z"/></g>
<g fill="black" opacity=".8" transform="translate(1000 200) scale(0.1 -0.1)"><path d="M0.0 0.0V-101.0H116.0V-332.0H1.0V-433.0H192.0V0.0ZM42.0 -68.0V-349.0H33.0V-605.0H107.0V-349.0H98.0V-68.0Z"/></g>
<g fill="red" transform="translate(1100 200) scale(0.1 -0.1)"><path d="M0.0 0.0V-288.0V-626.0H30.0V-288.0V0.0ZM448.0 7.0V-290.0V-629.0H477.0V-290.0V7.0Z"/></g>
<g fill="black" opacity=".8" transform="translate(1100 200) scale(0.1 -0.1)"><path d="M0.0 0.0V-287.0V-626.0H30.0V-288.0V0.0ZM448.0 6.0V-289.0V-630.0H476.0V-289.0V6.0Z"/></g>
<g fill="red" transform="translate(1200 200) scale(0.1 -0.1)"><path d="M0.0 0.0V-310.0H-18.0V-656.0H110.0V-310.0H91.0V0.0ZM448.0 -22.0V-280.0H435.0V-655.0H573.0V-280.0H560.0V-22.0Z"/></g>
<g fill="black" opacity=".8" transform="translate(1200 200) scale(0.1 -0.1)"><path d="M0.0 0.0V-310.0H-18.0V-655.0H110.0V-309.0H90.0V0.0ZM447.0 -22.0V-281.0H434.0V-654.0H573.0V-281.0H560.0V-22.0Z"/></g>
<g fill="red" transform="translate(1300 200) scale(0.1 -0.1)"><path d="M0.0 0.0V-182.0V-528.0H29.0V-182.0V0.0ZM510.0 373.0V286.0V158.0H539.0V286.0V373.0Z"/></g>
<g fill="black" opacity=".8" transform="translate(1300 200) scale(0.1 -0.1)"><path d="M0.0 0.0V-181.0V-527.0H29.0V-182.0V0.0ZM510.0 373.0V287.0V158.0H538.0V287.0V373.0Z"/></g>
<g fill="red" transform="translate(1400 200) scale(0.1 -0.1)"><path d="M0.0 0.0V-186.0H-12.0V-539.0H97.0V-186.0H85.0V0.0ZM522.0 395.0V313.0H540.0V204.0H625.0V313.0H642.0V395.0Z"/></g>
<g fill="black" opacity=".8" transform="translate(1400 200) scale(0.1 -0.1)"><path d="M0.0 0.0V-186.0H-12.0V-538.0H97.0V-185.0H84.0V0.0ZM521.0 395.0V312.0H539.0V204.0H625.0V312.0H643.0V395.0Z"/></g>
</svg>
