<?xml version="1.0" encoding="UTF-8"?>
<svg width="1700" height="300" xmlns="http://www.w3.org/2000/svg">
<rect width="100%" height="100%" fill="white"/>
<g fill="green" transform="translate(100 100) scale(0.1 -0.1)"><path d="M0.0 0.0V-29.0H609.0V0.0ZM0.0 298.0V269.0H587.0V298.0ZM2.0 146.0V117.0H545.0V146.0ZM209.0 -45.0 185.0 -55.0C263.0 -222.0 428.0 -349.0 616.0 -403.0C621.0 -395.0 629.0 -384.0 636.0 -378.0C448.0 -330.0 285.0 -206.0 209.0 -45.0ZM-37.0 -406.0C-37.0 -394.0 13.0 -371.0 13.0 -371.0V298.0H-16.0V-325.0C-16.0 -360.0 -39.0 -371.0 -52.0 -375.0C-46.0 -384.0 -40.0 -399.0 -37.0 -406.0ZM530.0 -48.0C475.0 -98.0 377.0 -167.0 306.0 -209.0L328.0 -224.0C400.0 -183.0 491.0 -120.0 555.0 -64.0ZM-37.0 -410.0C-19.0 -397.0 9.0 -387.0 309.0 -288.0C307.0 -282.0 306.0 -271.0 305.0 -263.0L-14.0 -364.0L-37.0 -384.0Z"/></g>
<g fill="green" transform="translate(200 100) scale(0.1 -0.1)"><path d="M0.0 0.0V-118.0H604.0V0.0ZM0.0 306.0V186.0H572.0V306.0ZM32.0 150.0V38.0H564.0V150.0ZM372.0 -112.0 238.0 -149.0C305.0 -288.0 408.0 -386.0 566.0 -434.0C585.0 -398.0 625.0 -342.0 657.0 -315.0C520.0 -282.0 420.0 -208.0 372.0 -112.0ZM-36.0 -435.0C-36.0 -388.0 109.0 -336.0 109.0 -336.0V306.0H-36.0V-243.0C-36.0 -282.0 -59.0 -300.0 -82.0 -309.0C-63.0 -338.0 -42.0 -399.0 -36.0 -435.0ZM532.0 -114.0C493.0 -154.0 427.0 -206.0 377.0 -237.0L468.0 -304.0C520.0 -277.0 588.0 -235.0 652.0 -192.0ZM-36.0 -435.0C-5.0 -417.0 42.0 -401.0 277.0 -349.0C273.0 -316.0 271.0 -255.0 273.0 -213.0L13.0 -262.0L-49.0 -307.0Z"/></g>
<g fill="green" transform="translate(300 100) scale(0.1 -0.1)"><path d="M0.0 0.0V-29.0H609.0V0.0ZM0.0 298.0V269.0H587.0V298.0ZM2.0 146.0V117.0H545.0V146.0ZM209.0 -45.0 185.0 -55.0C263.0 -222.0 428.0 -349.0 616.0 -403.0C621.0 -395.0 629.0 -384.0 636.0 -378.0C448.0 -330.0 285.0 -206.0 209.0 -45.0ZM-37.0 -406.0C-37.0 -394.0 13.0 -371.0 13.0 -371.0V298.0H-16.0V-325.0C-16.0 -360.0 -39.0 -371.0 -52.0 -375.0C-46.0 -384.0 -40.0 -399.0 -37.0 -406.0ZM530.0 -48.0C475.0 -98.0 377.0 -167.0 306.0 -209.0L328.0 -224.0C400.0 -183.0 491.0 -120.0 555.0 -64.0ZM-37.0 -410.0C-19.0 -397.0 9.0 -387.0 309.0 -288.0C307.0 -282.0 306.0 -271.0 305.0 -263.0L-14.0 -364.0L-37.0 -384.0Z"/></g>
<g fill="green" transform="translate(400 100) scale(0.1 -0.1)"><path d="M0.0 0.0V-118.0H604.0V0.0ZM0.0 306.0V186.0H572.0V306.0ZM32.0 150.0V38.0H564.0V150.0ZM372.0 -112.0 238.0 -149.0C305.0 -288.0 408.0 -386.0 566.0 -434.0C585.0 -398.0 625.0 -342.0 657.0 -315.0C520.0 -282.0 420.0 -208.0 372.0 -112.0ZM-36.0 -435.0C-36.0 -388.0 109.0 -336.0 109.0 -336.0V306.0H-36.0V-243.0C-36.0 -282.0 -59.0 -300.0 -82.0 -309.0C-63.0 -338.0 -42.0 -399.0 -36.0 -435.0ZM532.0 -114.0C493.0 -154.0 427.0 -206.0 377.0 -237.0L468.0 -304.0C520.0 -277.0 588.0 -235.0 652.0 -192.0ZM-36.0 -435.0C-5.0 -417.0 42.0 -401.0 277.0 -349.0C273.0 -316.0 271.0 -255.0 273.0 -213.0L13.0 -262.0L-49.0 -307.0Z"/></g>
<g fill="red" transform="translate(100 200) scale(0.1 -0.1)"><path d="M0.0 0.0V-29.0H609.0V0.0ZM0.0 298.0V269.0H587.0V298.0ZM2.0 146.0V117.0H545.0V146.0ZM209.0 -45.0 185.0 -55.0C263.0 -222.0 428.0 -349.0 616.0 -403.0C621.0 -395.0 629.0 -384.0 636.0 -378.0C448.0 -330.0 285.0 -206.0 209.0 -45.0ZM-37.0 -406.0C-37.0 -394.0 13.0 -371.0 13.0 -371.0V298.0H-16.0V-325.0C-16.0 -360.0 -39.0 -371.0 -52.0 -375.0C-46.0 -384.0 -40.0 -399.0 -37.0 -406.0ZM530.0 -48.0C475.0 -98.0 377.0 -167.0 306.0 -209.0L328.0 -224.0C400.0 -183.0 491.0 -120.0 555.0 -64.0ZM-37.0 -410.0C-19.0 -397.0 9.0 -387.0 309.0 -288.0C307.0 -282.0 306.0 -271.0 305.0 -263.0L-14.0 -364.0L-37.0 -384.0Z"/></g>
<g fill="black" opacity=".8" transform="translate(100 200) scale(0.1 -0.1)"><path d="M0.0 0.0V-29.0H609.0V0.0ZM0.0 298.0V269.0H587.0V298.0ZM2.0 146.0V117.0H545.0V146.0ZM209.0 -45.0 185.0 -55.0C263.0 -222.0 428.0 -349.0 616.0 -403.0C621.0 -395.0 629.0 -384.0 636.0 -378.0C448.0 -330.0 285.0 -206.0 209.0 -45.0ZM-37.0 -406.0C-37.0 -394.0 13.0 -371.0 13.0 -371.0V298.0H-16.0V-325.0C-16.0 -360.0 -39.0 -371.0 -52.0 -375.0C-46.0 -384.0 -40.0 -399.0 -37.0 -406.0ZM530.0 -48.0C475.0 -98.0 377.0 -167.0 306.0 -209.0L328.0 -224.0C400.0 -183.0 491.0 -120.0 555.0 -64.0ZM-37.0 -410.0C-19.0 -397.0 9.0 -387.0 309.0 -288.0C307.0 -282.0 306.0 -271.0 305.0 -263.0L-14.0 -364.0L-37.0 -384.0Z"/></g>
<g fill="red" transform="translate(200 200) scale(0.1 -0.1)"><path d="M0.0 0.0V-118.0H604.0V0.0ZM0.0 306.0V186.0H572.0V306.0ZM32.0 150.0V38.0H564.0V150.0ZM372.0 -112.0 238.0 -149.0C305.0 -288.0 408.0 -386.0 566.0 -434.0C585.0 -398.0 625.0 -342.0 657.0 -315.0C520.0 -282.0 420.0 -208.0 372.0 -112.0ZM-36.0 -435.0C-36.0 -388.0 109.0 -336.0 109.0 -336.0V306.0H-36.0V-243.0C-36.0 -282.0 -59.0 -300.0 -82.0 -309.0C-63.0 -338.0 -42.0 -399.0 -36.0 -435.0ZM532.0 -114.0C493.0 -154.0 427.0 -206.0 377.0 -237.0L468.0 -304.0C520.0 -277.0 588.0 -235.0 652.0 -192.0ZM-36.0 -435.0C-5.0 -417.0 42.0 -401.0 277.0 -349.0C273.0 -316.0 271.0 -255.0 273.0 -213.0L13.0 -262.0L-49.0 -307.0Z"/></g>
<g fill="black" opacity=".8" transform="translate(200 200) scale(0.1 -0.1)"><path d="M0.0 0.0V-118.0H604.0V0.0ZM0.0 306.0V186.0H572.0V306.0ZM32.0 150.0V38.0H564.0V150.0ZM372.0 -112.0 238.0 -149.0C305.0 -288.0 408.0 -386.0 566.0 -434.0C585.0 -398.0 625.0 -342.0 657.0 -315.0C520.0 -282.0 420.0 -208.0 372.0 -112.0ZM-36.0 -435.0C-36.0 -388.0 109.0 -336.0 109.0 -336.0V306.0H-36.0V-243.0C-36.0 -282.0 -59.0 -300.0 -82.0 -309.0C-63.0 -338.0 -42.0 -399.0 -36.0 -435.0ZM532.0 -114.0C493.0 -154.0 427.0 -206.0 377.0 -237.0L468.0 -304.0C520.0 -277.0 588.0 -235.0 652.0 -192.0ZM-36.0 -435.0C-5.0 -417.0 42.0 -401.0 277.0 -349.0C273.0 -316.0 271.0 -255.0 273.0 -213.0L13.0 -262.0L-49.0 -307.0Z"/></g>
</svg>
