<?xml version="1.0" encoding="UTF-8"?>
<svg width="1700" height="300" xmlns="http://www.w3.org/2000/svg">
<rect width="100%" height="100%" fill="white"/>
<g fill="green" transform="translate(100 100) scale(0.1 -0.1)"><path d="M0.0 0.0V-257.0H667.0V-228.0H30.0V0.0ZM-143.0 321.0V292.0H708.0V321.0ZM157.0 304.0V52.0H186.0V304.0ZM377.0 306.0V54.0H406.0V306.0ZM523.0 0.0V-5.0C518.0 -100.0 513.0 -135.0 503.0 -146.0C499.0 -150.0 492.0 -151.0 478.0 -151.0C467.0 -151.0 429.0 -151.0 389.0 -147.0C394.0 -155.0 397.0 -167.0 398.0 -176.0C432.0 -178.0 468.0 -179.0 485.0 -178.0C506.0 -178.0 517.0 -174.0 527.0 -164.0C541.0 -150.0 547.0 -114.0 552.0 -17.0C552.0 -11.0 552.0 0.0 552.0 0.0ZM651.0 -228.0V-234.0C640.0 -383.0 628.0 -440.0 609.0 -456.0C602.0 -463.0 591.0 -464.0 573.0 -464.0C554.0 -464.0 495.0 -464.0 434.0 -458.0C440.0 -467.0 443.0 -479.0 444.0 -488.0C502.0 -491.0 555.0 -492.0 580.0 -491.0C607.0 -491.0 620.0 -488.0 633.0 -476.0C656.0 -454.0 668.0 -397.0 681.0 -246.0C681.0 -241.0 682.0 -228.0 682.0 -228.0ZM124.0 -71.0C184.0 -102.0 258.0 -148.0 298.0 -178.0L313.0 -153.0C275.0 -124.0 201.0 -80.0 141.0 -50.0ZM272.0 89.0C256.0 60.0 224.0 14.0 201.0 -13.0L224.0 -24.0C249.0 2.0 277.0 41.0 301.0 76.0ZM495.0 233.0C553.0 186.0 626.0 114.0 661.0 68.0L686.0 84.0C652.0 129.0 580.0 198.0 519.0 246.0ZM31.0 246.0C-1.0 184.0 -55.0 124.0 -111.0 81.0C-103.0 77.0 -90.0 67.0 -85.0 62.0C-32.0 106.0 24.0 173.0 60.0 239.0Z"/></g>
<g fill="green" transform="translate(200 100) scale(0.1 -0.1)"><path d="M0.0 0.0V-330.0H693.0V-219.0H131.0V0.0ZM-111.0 341.0V229.0H763.0V341.0ZM128.0 275.0V45.0H272.0V275.0ZM373.0 266.0V45.0H517.0V266.0ZM533.0 0.0V-12.0C528.0 -75.0 521.0 -104.0 511.0 -113.0C504.0 -120.0 496.0 -121.0 484.0 -121.0C470.0 -121.0 441.0 -120.0 410.0 -117.0C426.0 -143.0 437.0 -184.0 439.0 -213.0C480.0 -215.0 519.0 -214.0 541.0 -212.0C568.0 -209.0 590.0 -202.0 609.0 -184.0C629.0 -163.0 640.0 -119.0 648.0 -40.0C650.0 -26.0 652.0 0.0 652.0 0.0ZM637.0 -220.0V-236.0C634.0 -352.0 631.0 -402.0 618.0 -415.0C608.0 -423.0 597.0 -424.0 581.0 -424.0C558.0 -424.0 510.0 -423.0 461.0 -419.0C483.0 -451.0 500.0 -502.0 503.0 -539.0C559.0 -541.0 613.0 -540.0 644.0 -537.0C681.0 -533.0 710.0 -524.0 734.0 -498.0C759.0 -470.0 767.0 -404.0 771.0 -267.0C772.0 -251.0 772.0 -220.0 772.0 -220.0ZM156.0 -141.0C211.0 -171.0 286.0 -218.0 322.0 -247.0L402.0 -164.0C362.0 -135.0 285.0 -93.0 232.0 -66.0ZM243.0 69.0C230.0 38.0 204.0 -5.0 183.0 -34.0L303.0 -66.0C324.0 -40.0 350.0 -6.0 377.0 36.0ZM533.0 138.0C587.0 98.0 653.0 34.0 686.0 -9.0L798.0 67.0C763.0 107.0 698.0 165.0 640.0 204.0ZM-9.0 197.0C-43.0 147.0 -100.0 93.0 -156.0 59.0C-124.0 41.0 -70.0 6.0 -43.0 -17.0C11.0 24.0 78.0 93.0 120.0 156.0Z"/></g>
<g fill="green" transform="translate(300 100) scale(0.1 -0.1)"><path d="M0.0 0.0V-257.0H667.0V-228.0H30.0V0.0ZM-143.0 321.0V292.0H708.0V321.0ZM157.0 304.0V52.0H186.0V304.0ZM377.0 306.0V54.0H406.0V306.0ZM523.0 0.0V-5.0C518.0 -100.0 513.0 -135.0 503.0 -146.0C499.0 -150.0 492.0 -151.0 478.0 -151.0C467.0 -151.0 429.0 -151.0 389.0 -147.0C394.0 -155.0 397.0 -167.0 398.0 -176.0C432.0 -178.0 468.0 -179.0 485.0 -178.0C506.0 -178.0 517.0 -174.0 527.0 -164.0C541.0 -150.0 547.0 -114.0 552.0 -17.0C552.0 -11.0 552.0 0.0 552.0 0.0ZM651.0 -228.0V-234.0C640.0 -383.0 628.0 -440.0 609.0 -456.0C602.0 -463.0 591.0 -464.0 573.0 -464.0C554.0 -464.0 495.0 -464.0 434.0 -458.0C440.0 -467.0 443.0 -479.0 444.0 -488.0C502.0 -491.0 555.0 -492.0 580.0 -491.0C607.0 -491.0 620.0 -488.0 633.0 -476.0C656.0 -454.0 668.0 -397.0 681.0 -246.0C681.0 -241.0 682.0 -228.0 682.0 -228.0ZM124.0 -71.0C184.0 -102.0 258.0 -148.0 298.0 -178.0L313.0 -153.0C275.0 -124.0 201.0 -80.0 141.0 -50.0ZM272.0 89.0C256.0 60.0 224.0 14.0 201.0 -13.0L224.0 -24.0C249.0 2.0 277.0 41.0 301.0 76.0ZM495.0 233.0C553.0 186.0 626.0 114.0 661.0 68.0L686.0 84.0C652.0 129.0 580.0 198.0 519.0 246.0ZM31.0 246.0C-1.0 184.0 -55.0 124.0 -111.0 81.0C-103.0 77.0 -90.0 67.0 -85.0 62.0C-32.0 106.0 24.0 173.0 60.0 239.0Z"/></g>
<g fill="green" transform="translate(400 100) scale(0.1 -0.1)"><path d="M0.0 0.0V-330.0H693.0V-219.0H131.0V0.0ZM-111.0 341.0V229.0H763.0V341.0ZM128.0 275.0V45.0H272.0V275.0ZM373.0 266.0V45.0H517.0V266.0ZM533.0 0.0V-12.0C528.0 -75.0 521.0 -104.0 511.0 -113.0C504.0 -120.0 496.0 -121.0 484.0 -121.0C470.0 -121.0 441.0 -120.0 410.0 -117.0C426.0 -143.0 437.0 -184.0 439.0 -213.0C480.0 -215.0 519.0 -214.0 541.0 -212.0C568.0 -209.0 590.0 -202.0 609.0 -184.0C629.0 -163.0 640.0 -119.0 648.0 -40.0C650.0 -26.0 652.0 0.0 652.0 0.0ZM637.0 -220.0V-236.0C634.0 -352.0 631.0 -402.0 618.0 -415.0C608.0 -423.0 597.0 -424.0 581.0 -424.0C558.0 -424.0 510.0 -423.0 461.0 -419.0C483.0 -451.0 500.0 -502.0 503.0 -539.0C559.0 -541.0 613.0 -540.0 644.0 -537.0C681.0 -533.0 710.0 -524.0 734.0 -498.0C759.0 -470.0 767.0 -404.0 771.0 -267.0C772.0 -251.0 772.0 -220.0 772.0 -220.0ZM156.0 -141.0C211.0 -171.0 286.0 -218.0 322.0 -247.0L402.0 -164.0C362.0 -135.0 285.0 -93.0 232.0 -66.0ZM243.0 69.0C230.0 38.0 204.0 -5.0 183.0 -34.0L303.0 -66.0C324.0 -40.0 350.0 -6.0 377.0 36.0ZM533.0 138.0C587.0 98.0 653.0 34.0 686.0 -9.0L798.0 67.0C763.0 107.0 698.0 165.0 640.0 204.0ZM-9.0 197.0C-43.0 147.0 -100.0 93.0 -156.0 59.0C-124.0 41.0 -70.0 6.0 -43.0 -17.0C11.0 24.0 78.0 93.0 120.0 156.0Z"/></g>
<g fill="red" transform="translate(100 200) scale(0.1 -0.1)"><path d="M0.0 0.0V-257.0H667.0V-228.0H30.0V0.0ZM-143.0 321.0V292.0H708.0V321.0ZM157.0 304.0V52.0H186.0V304.0ZM377.0 306.0V54.0H406.0V306.0ZM523.0 0.0V-5.0C518.0 -100.0 513.0 -135.0 503.0 -146.0C499.0 -150.0 492.0 -151.0 478.0 -151.0C467.0 -151.0 429.0 -151.0 389.0 -147.0C394.0 -155.0 397.0 -167.0 398.0 -176.0C432.0 -178.0 468.0 -179.0 485.0 -178.0C506.0 -178.0 517.0 -174.0 527.0 -164.0C541.0 -150.0 547.0 -114.0 552.0 -17.0C552.0 -11.0 552.0 0.0 552.0 0.0ZM651.0 -228.0V-234.0C640.0 -383.0 628.0 -440.0 609.0 -456.0C602.0 -463.0 591.0 -464.0 573.0 -464.0C554.0 -464.0 495.0 -464.0 434.0 -458.0C440.0 -467.0 443.0 -479.0 444.0 -488.0C502.0 -491.0 555.0 -492.0 580.0 -491.0C607.0 -491.0 620.0 -488.0 633.0 -476.0C656.0 -454.0 668.0 -397.0 681.0 -246.0C681.0 -241.0 682.0 -228.0 682.0 -228.0ZM124.0 -71.0C184.0 -102.0 258.0 -148.0 298.0 -178.0L313.0 -153.0C275.0 -124.0 201.0 -80.0 141.0 -50.0ZM272.0 89.0C256.0 60.0 224.0 14.0 201.0 -13.0L224.0 -24.0C249.0 2.0 277.0 41.0 301.0 76.0ZM495.0 233.0C553.0 186.0 626.0 114.0 661.0 68.0L686.0 84.0C652.0 129.0 580.0 198.0 519.0 246.0ZM31.0 246.0C-1.0 184.0 -55.0 124.0 -111.0 81.0C-103.0 77.0 -90.0 67.0 -85.0 62.0C-32.0 106.0 24.0 173.0 60.0 239.0Z"/></g>
<g fill="black" opacity=".8" transform="translate(100 200) scale(0.1 -0.1)"><path d="M0.0 0.0V-257.0H667.0V-228.0H30.0V0.0ZM-143.0 321.0V292.0H708.0V321.0ZM157.0 304.0V52.0H186.0V304.0ZM377.0 306.0V54.0H406.0V306.0ZM523.0 0.0V-5.0C518.0 -100.0 513.0 -135.0 503.0 -146.0C499.0 -150.0 492.0 -151.0 478.0 -151.0C467.0 -151.0 429.0 -151.0 389.0 -147.0C394.0 -155.0 397.0 -167.0 398.0 -176.0C432.0 -178.0 468.0 -179.0 485.0 -178.0C506.0 -178.0 517.0 -174.0 527.0 -164.0C541.0 -150.0 547.0 -114.0 552.0 -17.0C552.0 -11.0 552.0 0.0 552.0 0.0ZM651.0 -228.0V-234.0C640.0 -383.0 628.0 -440.0 609.0 -456.0C602.0 -463.0 591.0 -464.0 573.0 -464.0C554.0 -464.0 495.0 -464.0 434.0 -458.0C440.0 -467.0 443.0 -479.0 444.0 -488.0C502.0 -491.0 555.0 -492.0 580.0 -491.0C607.0 -491.0 620.0 -488.0 633.0 -476.0C656.0 -454.0 668.0 -397.0 681.0 -246.0C681.0 -241.0 682.0 -228.0 682.0 -228.0ZM124.0 -71.0C184.0 -102.0 258.0 -148.0 298.0 -178.0L313.0 -153.0C275.0 -124.0 201.0 -80.0 141.0 -50.0ZM272.0 89.0C256.0 60.0 224.0 14.0 201.0 -13.0L224.0 -24.0C249.0 2.0 277.0 41.0 301.0 76.0ZM495.0 233.0C553.0 186.0 626.0 114.0 661.0 68.0L686.0 84.0C652.0 129.0 580.0 198.0 519.0 246.0ZM31.0 246.0C-1.0 184.0 -55.0 124.0 -111.0 81.0C-103.0 77.0 -90.0 67.0 -85.0 62.0C-32.0 106.0 24.0 173.0 60.0 239.0Z"/></g>
<g fill="red" transform="translate(200 200) scale(0.1 -0.1)"><path d="M0.0 0.0V-330.0H693.0V-219.0H131.0V0.0ZM-111.0 341.0V229.0H763.0V341.0ZM128.0 275.0V45.0H272.0V275.0ZM373.0 266.0V45.0H517.0V266.0ZM533.0 0.0V-12.0C528.0 -75.0 521.0 -104.0 511.0 -113.0C504.0 -120.0 496.0 -121.0 484.0 -121.0C470.0 -121.0 441.0 -120.0 410.0 -117.0C426.0 -143.0 437.0 -184.0 439.0 -213.0C480.0 -215.0 519.0 -214.0 541.0 -212.0C568.0 -209.0 590.0 -202.0 609.0 -184.0C629.0 -163.0 640.0 -119.0 648.0 -40.0C650.0 -26.0 652.0 0.0 652.0 0.0ZM637.0 -220.0V-236.0C634.0 -352.0 631.0 -402.0 618.0 -415.0C608.0 -423.0 597.0 -424.0 581.0 -424.0C558.0 -424.0 510.0 -423.0 461.0 -419.0C483.0 -451.0 500.0 -502.0 503.0 -539.0C559.0 -541.0 613.0 -540.0 644.0 -537.0C681.0 -533.0 710.0 -524.0 734.0 -498.0C759.0 -470.0 767.0 -404.0 771.0 -267.0C772.0 -251.0 772.0 -220.0 772.0 -220.0ZM156.0 -141.0C211.0 -171.0 286.0 -218.0 322.0 -247.0L402.0 -164.0C362.0 -135.0 285.0 -93.0 232.0 -66.0ZM243.0 69.0C230.0 38.0 204.0 -5.0 183.0 -34.0L303.0 -66.0C324.0 -40.0 350.0 -6.0 377.0 36.0ZM533.0 138.0C587.0 98.0 653.0 34.0 686.0 -9.0L798.0 67.0C763.0 107.0 698.0 165.0 640.0 204.0ZM-9.0 197.0C-43.0 147.0 -100.0 93.0 -156.0 59.0C-124.0 41.0 -70.0 6.0 -43.0 -17.0C11.0 24.0 78.0 93.0 120.0 156.0Z"/></g>
<g fill="black" opacity=".8" transform="translate(200 200) scale(0.1 -0.1)"><path d="M0.0 0.0V-330.0H693.0V-219.0H131.0V0.0ZM-111.0 341.0V229.0H763.0V341.0ZM128.0 275.0V45.0H272.0V275.0ZM373.0 266.0V45.0H517.0V266.0ZM533.0 0.0V-12.0C528.0 -75.0 521.0 -104.0 511.0 -113.0C504.0 -120.0 496.0 -121.0 484.0 -121.0C470.0 -121.0 441.0 -120.0 410.0 -117.0C426.0 -143.0 437.0 -184.0 439.0 -213.0C480.0 -215.0 519.0 -214.0 541.0 -212.0C568.0 -209.0 590.0 -202.0 609.0 -184.0C629.0 -163.0 640.0 -119.0 648.0 -40.0C650.0 -26.0 652.0 0.0 652.0 0.0ZM637.0 -220.0V-236.0C634.0 -352.0 631.0 -402.0 618.0 -415.0C608.0 -423.0 597.0 -424.0 581.0 -424.0C558.0 -424.0 510.0 -423.0 461.0 -419.0C483.0 -451.0 500.0 -502.0 503.0 -539.0C559.0 -541.0 613.0 -540.0 644.0 -537.0C681.0 -533.0 710.0 -524.0 734.0 -498.0C759.0 -470.0 767.0 -404.0 771.0 -267.0C772.0 -251.0 772.0 -220.0 772.0 -220.0ZM156.0 -141.0C211.0 -171.0 286.0 -218.0 322.0 -247.0L402.0 -164.0C362.0 -135.0 285.0 -93.0 232.0 -66.0ZM243.0 69.0C230.0 38.0 204.0 -5.0 183.0 -34.0L303.0 -66.0C324.0 -40.0 350.0 -6.0 377.0 36.0ZM533.0 138.0C587.0 98.0 653.0 34.0 686.0 -9.0L798.0 67.0C763.0 107.0 698.0 165.0 640.0 204.0ZM-9.0 197.0C-43.0 147.0 -100.0 93.0 -156.0 59.0C-124.0 41.0 -70.0 6.0 -43.0 -17.0C11.0 24.0 78.0 93.0 120.0 156.0Z"/></g>
</svg>
