<?xml version="1.0" encoding="UTF-8"?>
<svg width="1700" height="300" xmlns="http://www.w3.org/2000/svg">
<rect width="100%" height="100%" fill="white"/>
<g fill="green" transform="translate(100 100) scale(0.1 -0.1)"><path d="M0.0 0.0H-350.0V-495.0H-16.0V-465.0H-321.0V-29.0H0.0ZM242.0 45.0V-179.0H243.0V-789.0H272.0V-179.0H273.0V45.0ZM-334.0 -309.0V-338.0H-23.0V-309.0ZM-334.0 -151.0V-180.0H-23.0V-151.0ZM-28.0 -465.0V-472.0C-40.0 -707.0 -52.0 -793.0 -72.0 -813.0C-78.0 -822.0 -86.0 -823.0 -101.0 -823.0C-115.0 -823.0 -154.0 -823.0 -197.0 -819.0C-192.0 -827.0 -189.0 -840.0 -188.0 -848.0C-152.0 -850.0 -115.0 -851.0 -96.0 -850.0C-72.0 -850.0 -59.0 -846.0 -47.0 -832.0C-23.0 -805.0 -11.0 -727.0 1.0 -485.0C2.0 -479.0 2.0 -465.0 2.0 -465.0Z"/></g>
<g fill="green" transform="translate(200 100) scale(0.1 -0.1)"><path d="M0.0 0.0H-381.0V-569.0H-48.0V-457.0H-265.0V-112.0H0.0ZM194.0 36.0V-241.0H198.0V-802.0H322.0V-241.0H326.0V36.0ZM-307.0 -306.0V-414.0H-18.0V-306.0ZM-307.0 -155.0V-263.0H-18.0V-155.0ZM-96.0 -457.0V-476.0C-105.0 -691.0 -116.0 -771.0 -131.0 -790.0C-140.0 -801.0 -148.0 -803.0 -160.0 -803.0C-174.0 -803.0 -199.0 -803.0 -227.0 -800.0C-210.0 -830.0 -198.0 -877.0 -196.0 -911.0C-157.0 -912.0 -121.0 -911.0 -98.0 -907.0C-71.0 -903.0 -50.0 -893.0 -30.0 -868.0C-3.0 -834.0 9.0 -738.0 20.0 -504.0C22.0 -489.0 23.0 -457.0 23.0 -457.0Z"/></g>
<g fill="green" transform="translate(300 100) scale(0.1 -0.1)"><path d="M0.0 0.0H-350.0V-495.0H-16.0V-465.0H-321.0V-29.0H0.0ZM242.0 45.0V-179.0H243.0V-789.0H272.0V-179.0H273.0V45.0ZM-334.0 -309.0V-338.0H-23.0V-309.0ZM-334.0 -151.0V-180.0H-23.0V-151.0ZM-28.0 -465.0V-472.0C-40.0 -707.0 -52.0 -793.0 -72.0 -813.0C-78.0 -822.0 -86.0 -823.0 -101.0 -823.0C-115.0 -823.0 -154.0 -823.0 -197.0 -819.0C-192.0 -827.0 -189.0 -840.0 -188.0 -848.0C-152.0 -850.0 -115.0 -851.0 -96.0 -850.0C-72.0 -850.0 -59.0 -846.0 -47.0 -832.0C-23.0 -805.0 -11.0 -727.0 1.0 -485.0C2.0 -479.0 2.0 -465.0 2.0 -465.0Z"/></g>
<g fill="green" transform="translate(400 100) scale(0.1 -0.1)"><path d="M0.0 0.0H-381.0V-569.0H-48.0V-457.0H-265.0V-112.0H0.0ZM194.0 36.0V-241.0H198.0V-802.0H322.0V-241.0H326.0V36.0ZM-307.0 -306.0V-414.0H-18.0V-306.0ZM-307.0 -155.0V-263.0H-18.0V-155.0ZM-96.0 -457.0V-476.0C-105.0 -691.0 -116.0 -771.0 -131.0 -790.0C-140.0 -801.0 -148.0 -803.0 -160.0 -803.0C-174.0 -803.0 -199.0 -803.0 -227.0 -800.0C-210.0 -830.0 -198.0 -877.0 -196.0 -911.0C-157.0 -912.0 -121.0 -911.0 -98.0 -907.0C-71.0 -903.0 -50.0 -893.0 -30.0 -868.0C-3.0 -834.0 9.0 -738.0 20.0 -504.0C22.0 -489.0 23.0 -457.0 23.0 -457.0Z"/></g>
<g fill="red" transform="translate(100 200) scale(0.1 -0.1)"><path d="M0.0 0.0H-350.0V-495.0H-16.0V-465.0H-321.0V-29.0H0.0ZM242.0 45.0V-179.0H243.0V-789.0H272.0V-179.0H273.0V45.0ZM-334.0 -309.0V-338.0H-23.0V-309.0ZM-334.0 -151.0V-180.0H-23.0V-151.0ZM-28.0 -465.0V-472.0C-40.0 -707.0 -52.0 -793.0 -72.0 -813.0C-78.0 -822.0 -86.0 -823.0 -101.0 -823.0C-115.0 -823.0 -154.0 -823.0 -197.0 -819.0C-192.0 -827.0 -189.0 -840.0 -188.0 -848.0C-152.0 -850.0 -115.0 -851.0 -96.0 -850.0C-72.0 -850.0 -59.0 -846.0 -47.0 -832.0C-23.0 -805.0 -11.0 -727.0 1.0 -485.0C2.0 -479.0 2.0 -465.0 2.0 -465.0Z"/></g>
<g fill="black" opacity=".8" transform="translate(100 200) scale(0.1 -0.1)"><path d="M0.0 0.0H-350.0V-495.0H-16.0V-465.0H-321.0V-29.0H0.0ZM242.0 45.0V-179.0H243.0V-789.0H272.0V-179.0H273.0V45.0ZM-334.0 -309.0V-338.0H-23.0V-309.0ZM-334.0 -151.0V-180.0H-23.0V-151.0ZM-28.0 -465.0V-472.0C-40.0 -707.0 -52.0 -793.0 -72.0 -813.0C-78.0 -822.0 -86.0 -823.0 -101.0 -823.0C-115.0 -823.0 -154.0 -823.0 -197.0 -819.0C-192.0 -827.0 -189.0 -840.0 -188.0 -848.0C-152.0 -850.0 -115.0 -851.0 -96.0 -850.0C-72.0 -850.0 -59.0 -846.0 -47.0 -832.0C-23.0 -805.0 -11.0 -727.0 1.0 -485.0C2.0 -479.0 2.0 -465.0 2.0 -465.0Z"/></g>
<g fill="red" transform="translate(200 200) scale(0.1 -0.1)"><path d="M0.0 0.0H-381.0V-569.0H-48.0V-457.0H-265.0V-112.0H0.0ZM194.0 36.0V-241.0H198.0V-802.0H322.0V-241.0H326.0V36.0ZM-307.0 -306.0V-414.0H-18.0V-306.0ZM-307.0 -155.0V-263.0H-18.0V-155.0ZM-96.0 -457.0V-476.0C-105.0 -691.0 -116.0 -771.0 -131.0 -790.0C-140.0 -801.0 -148.0 -803.0 -160.0 -803.0C-174.0 -803.0 -199.0 -803.0 -227.0 -800.0C-210.0 -830.0 -198.0 -877.0 -196.0 -911.0C-157.0 -912.0 -121.0 -911.0 -98.0 -907.0C-71.0 -903.0 -50.0 -893.0 -30.0 -868.0C-3.0 -834.0 9.0 -738.0 20.0 -504.0C22.0 -489.0 23.0 -457.0 23.0 -457.0Z"/></g>
<g fill="black" opacity=".8" transform="translate(200 200) scale(0.1 -0.1)"><path d="M0.0 0.0H-381.0V-569.0H-48.0V-457.0H-265.0V-112.0H0.0ZM194.0 36.0V-241.0H198.0V-802.0H322.0V-241.0H326.0V36.0ZM-307.0 -306.0V-414.0H-18.0V-306.0ZM-307.0 -155.0V-263.0H-18.0V-155.0ZM-96.0 -457.0V-476.0C-105.0 -691.0 -116.0 -771.0 -131.0 -790.0C-140.0 -801.0 -148.0 -803.0 -160.0 -803.0C-174.0 -803.0 -199.0 -803.0 -227.0 -800.0C-210.0 -830.0 -198.0 -877.0 -196.0 -911.0C-157.0 -912.0 -121.0 -911.0 -98.0 -907.0C-71.0 -903.0 -50.0 -893.0 -30.0 -868.0C-3.0 -834.0 9.0 -738.0 20.0 -504.0C22.0 -489.0 23.0 -457.0 23.0 -457.0Z"/></g>
</svg>
