<?xml version="1.0" encoding="UTF-8"?>
<svg width="1700" height="300" xmlns="http://www.w3.org/2000/svg">
<rect width="100%" height="100%" fill="white"/>
<g fill="green" transform="translate(100 100) scale(0.1 -0.1)"><path d="M0.0 0.0V-244.0H30.0V-2.0ZM9.0 -269.0V-361.0C9.0 -472.0 -31.0 -635.0 -425.0 -730.0C-417.0 -738.0 -409.0 -748.0 -405.0 -755.0C-5.0 -657.0 39.0 -489.0 39.0 -361.0V-269.0ZM98.0 -61.0C214.0 -109.0 351.0 -191.0 422.0 -249.0L441.0 -225.0C372.0 -169.0 233.0 -89.0 119.0 -41.0Z"/></g>
<g fill="green" transform="translate(200 100) scale(0.1 -0.1)"><path d="M0.0 0.0V-266.0H152.0V-39.0ZM1.0 -298.0V-392.0C1.0 -478.0 -55.0 -594.0 -393.0 -655.0C-363.0 -686.0 -323.0 -740.0 -304.0 -774.0C85.0 -703.0 153.0 -530.0 153.0 -397.0V-298.0ZM162.0 -139.0C264.0 -181.0 390.0 -249.0 461.0 -300.0L559.0 -185.0C484.0 -139.0 362.0 -75.0 259.0 -37.0Z"/></g>
<g fill="green" transform="translate(300 100) scale(0.1 -0.1)"><path d="M0.0 0.0V-244.0H30.0V-2.0ZM9.0 -269.0V-361.0C9.0 -472.0 -31.0 -635.0 -425.0 -730.0C-417.0 -738.0 -409.0 -748.0 -405.0 -755.0C-5.0 -657.0 39.0 -489.0 39.0 -361.0V-269.0ZM98.0 -61.0C214.0 -109.0 351.0 -191.0 422.0 -249.0L441.0 -225.0C372.0 -169.0 233.0 -89.0 119.0 -41.0Z"/></g>
<g fill="green" transform="translate(400 100) scale(0.1 -0.1)"><path d="M0.0 0.0V-266.0H152.0V-39.0ZM1.0 -298.0V-392.0C1.0 -478.0 -55.0 -594.0 -393.0 -655.0C-363.0 -686.0 -323.0 -740.0 -304.0 -774.0C85.0 -703.0 153.0 -530.0 153.0 -397.0V-298.0ZM162.0 -139.0C264.0 -181.0 390.0 -249.0 461.0 -300.0L559.0 -185.0C484.0 -139.0 362.0 -75.0 259.0 -37.0Z"/></g>
<g fill="red" transform="translate(100 200) scale(0.1 -0.1)"><path d="M0.0 0.0V-244.0H30.0V-2.0ZM9.0 -269.0V-361.0C9.0 -472.0 -31.0 -635.0 -425.0 -730.0C-417.0 -738.0 -409.0 -748.0 -405.0 -755.0C-5.0 -657.0 39.0 -489.0 39.0 -361.0V-269.0ZM98.0 -61.0C214.0 -109.0 351.0 -191.0 422.0 -249.0L441.0 -225.0C372.0 -169.0 233.0 -89.0 119.0 -41.0Z"/></g>
<g fill="black" opacity=".8" transform="translate(100 200) scale(0.1 -0.1)"><path d="M0.0 0.0V-244.0H30.0V-2.0ZM9.0 -269.0V-361.0C9.0 -472.0 -31.0 -635.0 -425.0 -730.0C-417.0 -738.0 -409.0 -748.0 -405.0 -755.0C-5.0 -657.0 39.0 -489.0 39.0 -361.0V-269.0ZM98.0 -61.0C214.0 -109.0 351.0 -191.0 422.0 -249.0L441.0 -225.0C372.0 -169.0 233.0 -89.0 119.0 -41.0Z"/></g>
<g fill="red" transform="translate(200 200) scale(0.1 -0.1)"><path d="M0.0 0.0V-266.0H152.0V-39.0ZM1.0 -298.0V-392.0C1.0 -478.0 -55.0 -594.0 -393.0 -655.0C-363.0 -686.0 -323.0 -740.0 -304.0 -774.0C85.0 -703.0 153.0 -530.0 153.0 -397.0V-298.0ZM162.0 -139.0C264.0 -181.0 390.0 -249.0 461.0 -300.0L559.0 -185.0C484.0 -139.0 362.0 -75.0 259.0 -37.0Z"/></g>
<g fill="black" opacity=".8" transform="translate(200 200) scale(0.1 -0.1)"><path d="M0.0 0.0V-266.0H152.0V-39.0ZM1.0 -298.0V-392.0C1.0 -478.0 -55.0 -594.0 -393.0 -655.0C-363.0 -686.0 -323.0 -740.0 -304.0 -774.0C85.0 -703.0 153.0 -530.0 153.0 -397.0V-298.0ZM162.0 -139.0C264.0 -181.0 390.0 -249.0 461.0 -300.0L559.0 -185.0C484.0 -139.0 362.0 -75.0 259.0 -37.0Z"/></g>
</svg>
