<?xml version="1.0" encoding="UTF-8"?>
<svg width="1700" height="300" xmlns="http://www.w3.org/2000/svg">
<rect width="100%" height="100%" fill="white"/>
<g fill="green" transform="translate(100 100) scale(0.1 -0.1)"><path d="M0.0 0.0V-30.0H82.0H481.0H561.0V0.0H481.0H82.0ZM36.0 -204.0V-349.0H519.0V-204.0ZM65.0 -233.0H489.0V-320.0H65.0ZM67.0 103.0V-136.0H483.0V103.0ZM97.0 73.0H453.0V-107.0H97.0ZM258.0 180.0V-331.0H288.0V180.0ZM-321.0 -174.0C-321.0 -164.0 -293.0 -152.0 -293.0 -152.0C-225.0 -70.0 -158.0 48.0 -102.0 164.0L-133.0 178.0C-179.0 66.0 -255.0 -53.0 -278.0 -83.0C-299.0 -115.0 -317.0 -137.0 -332.0 -140.0C-328.0 -149.0 -323.0 -166.0 -321.0 -174.0ZM-315.0 -393.0C-315.0 -383.0 -287.0 -373.0 -287.0 -373.0V-372.0C-194.0 -274.0 -99.0 -134.0 -17.0 7.0L-48.0 21.0C-118.0 -113.0 -224.0 -256.0 -256.0 -292.0C-286.0 -329.0 -309.0 -357.0 -326.0 -360.0C-322.0 -369.0 -317.0 -385.0 -315.0 -393.0ZM-184.0 -451.0C-171.0 -520.0 -159.0 -610.0 -156.0 -669.0L-127.0 -664.0C-130.0 -605.0 -143.0 -516.0 -155.0 -447.0ZM-78.0 -433.0C-54.0 -496.0 -28.0 -578.0 -17.0 -632.0L11.0 -624.0C0.0 -571.0 -27.0 -489.0 -51.0 -426.0ZM-321.0 -174.0C-308.0 -168.0 -285.0 -164.0 -118.0 -143.0C-119.0 -136.0 -119.0 -124.0 -118.0 -116.0L-298.0 -134.0L-321.0 -146.0ZM-315.0 -393.0C-299.0 -385.0 -273.0 -379.0 -30.0 -342.0C-31.0 -335.0 -31.0 -324.0 -31.0 -315.0L-292.0 -352.0L-315.0 -366.0ZM-280.0 -449.0C-294.0 -529.0 -312.0 -620.0 -336.0 -684.0C-328.0 -687.0 -313.0 -693.0 -307.0 -695.0C-287.0 -633.0 -265.0 -538.0 -249.0 -456.0Z"/></g>
<g fill="green" transform="translate(200 100) scale(0.1 -0.1)"><path d="M0.0 0.0V-103.0H126.0V-91.0H449.0V-103.0H576.0V0.0H449.0V-12.0H126.0V0.0ZM28.0 -224.0V-418.0H572.0V-224.0ZM156.0 -309.0H438.0V-334.0H156.0ZM63.0 97.0V-200.0H537.0V97.0ZM178.0 14.0H416.0V-116.0H178.0ZM231.0 143.0V-366.0H362.0V143.0ZM-327.0 -267.0C-327.0 -244.0 -252.0 -203.0 -252.0 -203.0V-200.0C-194.0 -124.0 -130.0 -11.0 -91.0 92.0L-218.0 142.0C-245.0 40.0 -298.0 -67.0 -316.0 -94.0C-334.0 -123.0 -350.0 -141.0 -369.0 -147.0C-355.0 -181.0 -334.0 -241.0 -327.0 -267.0ZM-319.0 -503.0C-319.0 -482.0 -250.0 -446.0 -250.0 -446.0V-442.0C-152.0 -342.0 -52.0 -202.0 18.0 -67.0L-84.0 -2.0C-144.0 -142.0 -246.0 -289.0 -279.0 -326.0C-310.0 -364.0 -331.0 -386.0 -358.0 -393.0C-344.0 -424.0 -325.0 -480.0 -319.0 -503.0ZM-221.0 -543.0C-211.0 -609.0 -201.0 -695.0 -200.0 -753.0L-97.0 -726.0C-101.0 -669.0 -111.0 -585.0 -124.0 -519.0ZM-112.0 -518.0C-92.0 -578.0 -69.0 -657.0 -60.0 -709.0L28.0 -677.0C18.0 -626.0 -6.0 -549.0 -28.0 -490.0ZM-327.0 -267.0C-305.0 -257.0 -270.0 -249.0 -117.0 -235.0C-116.0 -207.0 -110.0 -158.0 -103.0 -124.0L-276.0 -135.0L-331.0 -171.0ZM-319.0 -503.0C-293.0 -489.0 -251.0 -478.0 -23.0 -442.0C-23.0 -416.0 -21.0 -367.0 -15.0 -335.0L-272.0 -368.0L-326.0 -406.0ZM-336.0 -527.0C-342.0 -604.0 -355.0 -695.0 -369.0 -754.0C-341.0 -760.0 -290.0 -770.0 -264.0 -783.0C-253.0 -724.0 -236.0 -629.0 -229.0 -549.0Z"/></g>
<g fill="green" transform="translate(300 100) scale(0.1 -0.1)"><path d="M0.0 0.0V-30.0H82.0H481.0H561.0V0.0H481.0H82.0ZM36.0 -204.0V-349.0H519.0V-204.0ZM65.0 -233.0H489.0V-320.0H65.0ZM67.0 103.0V-136.0H483.0V103.0ZM97.0 73.0H453.0V-107.0H97.0ZM258.0 180.0V-331.0H288.0V180.0ZM-321.0 -174.0C-321.0 -164.0 -293.0 -152.0 -293.0 -152.0C-225.0 -70.0 -158.0 48.0 -102.0 164.0L-133.0 178.0C-179.0 66.0 -255.0 -53.0 -278.0 -83.0C-299.0 -115.0 -317.0 -137.0 -332.0 -140.0C-328.0 -149.0 -323.0 -166.0 -321.0 -174.0ZM-315.0 -393.0C-315.0 -383.0 -287.0 -373.0 -287.0 -373.0V-372.0C-194.0 -274.0 -99.0 -134.0 -17.0 7.0L-48.0 21.0C-118.0 -113.0 -224.0 -256.0 -256.0 -292.0C-286.0 -329.0 -309.0 -357.0 -326.0 -360.0C-322.0 -369.0 -317.0 -385.0 -315.0 -393.0ZM-184.0 -451.0C-171.0 -520.0 -159.0 -610.0 -156.0 -669.0L-127.0 -664.0C-130.0 -605.0 -143.0 -516.0 -155.0 -447.0ZM-78.0 -433.0C-54.0 -496.0 -28.0 -578.0 -17.0 -632.0L11.0 -624.0C0.0 -571.0 -27.0 -489.0 -51.0 -426.0ZM-321.0 -174.0C-308.0 -168.0 -285.0 -164.0 -118.0 -143.0C-119.0 -136.0 -119.0 -124.0 -118.0 -116.0L-298.0 -134.0L-321.0 -146.0ZM-315.0 -393.0C-299.0 -385.0 -273.0 -379.0 -30.0 -342.0C-31.0 -335.0 -31.0 -324.0 -31.0 -315.0L-292.0 -352.0L-315.0 -366.0ZM-280.0 -449.0C-294.0 -529.0 -312.0 -620.0 -336.0 -684.0C-328.0 -687.0 -313.0 -693.0 -307.0 -695.0C-287.0 -633.0 -265.0 -538.0 -249.0 -456.0Z"/></g>
<g fill="green" transform="translate(400 100) scale(0.1 -0.1)"><path d="M0.0 0.0V-103.0H126.0V-91.0H449.0V-103.0H576.0V0.0H449.0V-12.0H126.0V0.0ZM28.0 -224.0V-418.0H572.0V-224.0ZM156.0 -309.0H438.0V-334.0H156.0ZM63.0 97.0V-200.0H537.0V97.0ZM178.0 14.0H416.0V-116.0H178.0ZM231.0 143.0V-366.0H362.0V143.0ZM-327.0 -267.0C-327.0 -244.0 -252.0 -203.0 -252.0 -203.0V-200.0C-194.0 -124.0 -130.0 -11.0 -91.0 92.0L-218.0 142.0C-245.0 40.0 -298.0 -67.0 -316.0 -94.0C-334.0 -123.0 -350.0 -141.0 -369.0 -147.0C-355.0 -181.0 -334.0 -241.0 -327.0 -267.0ZM-319.0 -503.0C-319.0 -482.0 -250.0 -446.0 -250.0 -446.0V-442.0C-152.0 -342.0 -52.0 -202.0 18.0 -67.0L-84.0 -2.0C-144.0 -142.0 -246.0 -289.0 -279.0 -326.0C-310.0 -364.0 -331.0 -386.0 -358.0 -393.0C-344.0 -424.0 -325.0 -480.0 -319.0 -503.0ZM-221.0 -543.0C-211.0 -609.0 -201.0 -695.0 -200.0 -753.0L-97.0 -726.0C-101.0 -669.0 -111.0 -585.0 -124.0 -519.0ZM-112.0 -518.0C-92.0 -578.0 -69.0 -657.0 -60.0 -709.0L28.0 -677.0C18.0 -626.0 -6.0 -549.0 -28.0 -490.0ZM-327.0 -267.0C-305.0 -257.0 -270.0 -249.0 -117.0 -235.0C-116.0 -207.0 -110.0 -158.0 -103.0 -124.0L-276.0 -135.0L-331.0 -171.0ZM-319.0 -503.0C-293.0 -489.0 -251.0 -478.0 -23.0 -442.0C-23.0 -416.0 -21.0 -367.0 -15.0 -335.0L-272.0 -368.0L-326.0 -406.0ZM-336.0 -527.0C-342.0 -604.0 -355.0 -695.0 -369.0 -754.0C-341.0 -760.0 -290.0 -770.0 -264.0 -783.0C-253.0 -724.0 -236.0 -629.0 -229.0 -549.0Z"/></g>
<g fill="red" transform="translate(100 200) scale(0.1 -0.1)"><path d="M0.0 0.0V-30.0H82.0H481.0H561.0V0.0H481.0H82.0ZM36.0 -204.0V-349.0H519.0V-204.0ZM65.0 -233.0H489.0V-320.0H65.0ZM67.0 103.0V-136.0H483.0V103.0ZM97.0 73.0H453.0V-107.0H97.0ZM258.0 180.0V-331.0H288.0V180.0ZM-321.0 -174.0C-321.0 -164.0 -293.0 -152.0 -293.0 -152.0C-225.0 -70.0 -158.0 48.0 -102.0 164.0L-133.0 178.0C-179.0 66.0 -255.0 -53.0 -278.0 -83.0C-299.0 -115.0 -317.0 -137.0 -332.0 -140.0C-328.0 -149.0 -323.0 -166.0 -321.0 -174.0ZM-315.0 -393.0C-315.0 -383.0 -287.0 -373.0 -287.0 -373.0V-372.0C-194.0 -274.0 -99.0 -134.0 -17.0 7.0L-48.0 21.0C-118.0 -113.0 -224.0 -256.0 -256.0 -292.0C-286.0 -329.0 -309.0 -357.0 -326.0 -360.0C-322.0 -369.0 -317.0 -385.0 -315.0 -393.0ZM-184.0 -451.0C-171.0 -520.0 -159.0 -610.0 -156.0 -669.0L-127.0 -664.0C-130.0 -605.0 -143.0 -516.0 -155.0 -447.0ZM-78.0 -433.0C-54.0 -496.0 -28.0 -578.0 -17.0 -632.0L11.0 -624.0C0.0 -571.0 -27.0 -489.0 -51.0 -426.0ZM-321.0 -174.0C-308.0 -168.0 -285.0 -164.0 -118.0 -143.0C-119.0 -136.0 -119.0 -124.0 -118.0 -116.0L-298.0 -134.0L-321.0 -146.0ZM-315.0 -393.0C-299.0 -385.0 -273.0 -379.0 -30.0 -342.0C-31.0 -335.0 -31.0 -324.0 -31.0 -315.0L-292.0 -352.0L-315.0 -366.0ZM-280.0 -449.0C-294.0 -529.0 -312.0 -620.0 -336.0 -684.0C-328.0 -687.0 -313.0 -693.0 -307.0 -695.0C-287.0 -633.0 -265.0 -538.0 -249.0 -456.0Z"/></g>
<g fill="black" opacity=".8" transform="translate(100 200) scale(0.1 -0.1)"><path d="M0.0 0.0V-30.0H82.0H481.0H561.0V0.0H481.0H82.0ZM36.0 -204.0V-349.0H519.0V-204.0ZM65.0 -233.0H489.0V-320.0H65.0ZM67.0 103.0V-136.0H483.0V103.0ZM97.0 73.0H453.0V-107.0H97.0ZM258.0 180.0V-331.0H288.0V180.0ZM-321.0 -174.0C-321.0 -164.0 -293.0 -152.0 -293.0 -152.0C-225.0 -70.0 -158.0 48.0 -102.0 164.0L-133.0 178.0C-179.0 66.0 -255.0 -53.0 -278.0 -83.0C-299.0 -115.0 -317.0 -137.0 -332.0 -140.0C-328.0 -149.0 -323.0 -166.0 -321.0 -174.0ZM-315.0 -393.0C-315.0 -383.0 -287.0 -373.0 -287.0 -373.0V-372.0C-194.0 -274.0 -99.0 -134.0 -17.0 7.0L-48.0 21.0C-118.0 -113.0 -224.0 -256.0 -256.0 -292.0C-286.0 -329.0 -309.0 -357.0 -326.0 -360.0C-322.0 -369.0 -317.0 -385.0 -315.0 -393.0ZM-184.0 -451.0C-171.0 -520.0 -159.0 -610.0 -156.0 -669.0L-127.0 -664.0C-130.0 -605.0 -143.0 -516.0 -155.0 -447.0ZM-78.0 -433.0C-54.0 -496.0 -28.0 -578.0 -17.0 -632.0L11.0 -624.0C0.0 -571.0 -27.0 -489.0 -51.0 -426.0ZM-321.0 -174.0C-308.0 -168.0 -285.0 -164.0 -118.0 -143.0C-119.0 -136.0 -119.0 -124.0 -118.0 -116.0L-298.0 -134.0L-321.0 -146.0ZM-315.0 -393.0C-299.0 -385.0 -273.0 -379.0 -30.0 -342.0C-31.0 -335.0 -31.0 -324.0 -31.0 -315.0L-292.0 -352.0L-315.0 -366.0ZM-280.0 -449.0C-294.0 -529.0 -312.0 -620.0 -336.0 -684.0C-328.0 -687.0 -313.0 -693.0 -307.0 -695.0C-287.0 -633.0 -265.0 -538.0 -249.0 -456.0Z"/></g>
<g fill="red" transform="translate(200 200) scale(0.1 -0.1)"><path d="M0.0 0.0V-103.0H126.0V-91.0H449.0V-103.0H576.0V0.0H449.0V-12.0H126.0V0.0ZM28.0 -224.0V-418.0H572.0V-224.0ZM156.0 -309.0H438.0V-334.0H156.0ZM63.0 97.0V-200.0H537.0V97.0ZM178.0 14.0H416.0V-116.0H178.0ZM231.0 143.0V-366.0H362.0V143.0ZM-327.0 -267.0C-327.0 -244.0 -252.0 -203.0 -252.0 -203.0V-200.0C-194.0 -124.0 -130.0 -11.0 -91.0 92.0L-218.0 142.0C-245.0 40.0 -298.0 -67.0 -316.0 -94.0C-334.0 -123.0 -350.0 -141.0 -369.0 -147.0C-355.0 -181.0 -334.0 -241.0 -327.0 -267.0ZM-319.0 -503.0C-319.0 -482.0 -250.0 -446.0 -250.0 -446.0V-442.0C-152.0 -342.0 -52.0 -202.0 18.0 -67.0L-84.0 -2.0C-144.0 -142.0 -246.0 -289.0 -279.0 -326.0C-310.0 -364.0 -331.0 -386.0 -358.0 -393.0C-344.0 -424.0 -325.0 -480.0 -319.0 -503.0ZM-221.0 -543.0C-211.0 -609.0 -201.0 -695.0 -200.0 -753.0L-97.0 -726.0C-101.0 -669.0 -111.0 -585.0 -124.0 -519.0ZM-112.0 -518.0C-92.0 -578.0 -69.0 -657.0 -60.0 -709.0L28.0 -677.0C18.0 -626.0 -6.0 -549.0 -28.0 -490.0ZM-327.0 -267.0C-305.0 -257.0 -270.0 -249.0 -117.0 -235.0C-116.0 -207.0 -110.0 -158.0 -103.0 -124.0L-276.0 -135.0L-331.0 -171.0ZM-319.0 -503.0C-293.0 -489.0 -251.0 -478.0 -23.0 -442.0C-23.0 -416.0 -21.0 -367.0 -15.0 -335.0L-272.0 -368.0L-326.0 -406.0ZM-336.0 -527.0C-342.0 -604.0 -355.0 -695.0 -369.0 -754.0C-341.0 -760.0 -290.0 -770.0 -264.0 -783.0C-253.0 -724.0 -236.0 -629.0 -229.0 -549.0Z"/></g>
<g fill="black" opacity=".8" transform="translate(200 200) scale(0.1 -0.1)"><path d="M0.0 0.0V-103.0H126.0V-91.0H449.0V-103.0H576.0V0.0H449.0V-12.0H126.0V0.0ZM28.0 -224.0V-418.0H572.0V-224.0ZM156.0 -309.0H438.0V-334.0H156.0ZM63.0 97.0V-200.0H537.0V97.0ZM178.0 14.0H416.0V-116.0H178.0ZM231.0 143.0V-366.0H362.0V143.0ZM-327.0 -267.0C-327.0 -244.0 -252.0 -203.0 -252.0 -203.0V-200.0C-194.0 -124.0 -130.0 -11.0 -91.0 92.0L-218.0 142.0C-245.0 40.0 -298.0 -67.0 -316.0 -94.0C-334.0 -123.0 -350.0 -141.0 -369.0 -147.0C-355.0 -181.0 -334.0 -241.0 -327.0 -267.0ZM-319.0 -503.0C-319.0 -482.0 -250.0 -446.0 -250.0 -446.0V-442.0C-152.0 -342.0 -52.0 -202.0 18.0 -67.0L-84.0 -2.0C-144.0 -142.0 -246.0 -289.0 -279.0 -326.0C-310.0 -364.0 -331.0 -386.0 -358.0 -393.0C-344.0 -424.0 -325.0 -480.0 -319.0 -503.0ZM-221.0 -543.0C-211.0 -609.0 -201.0 -695.0 -200.0 -753.0L-97.0 -726.0C-101.0 -669.0 -111.0 -585.0 -124.0 -519.0ZM-112.0 -518.0C-92.0 -578.0 -69.0 -657.0 -60.0 -709.0L28.0 -677.0C18.0 -626.0 -6.0 -549.0 -28.0 -490.0ZM-327.0 -267.0C-305.0 -257.0 -270.0 -249.0 -117.0 -235.0C-116.0 -207.0 -110.0 -158.0 -103.0 -124.0L-276.0 -135.0L-331.0 -171.0ZM-319.0 -503.0C-293.0 -489.0 -251.0 -478.0 -23.0 -442.0C-23.0 -416.0 -21.0 -367.0 -15.0 -335.0L-272.0 -368.0L-326.0 -406.0ZM-336.0 -527.0C-342.0 -604.0 -355.0 -695.0 -369.0 -754.0C-341.0 -760.0 -290.0 -770.0 -264.0 -783.0C-253.0 -724.0 -236.0 -629.0 -229.0 -549.0Z"/></g>
</svg>
