<?xml version="1.0" encoding="UTF-8"?>
<svg width="1700" height="300" xmlns="http://www.w3.org/2000/svg">
<rect width="100%" height="100%" fill="white"/>
<g fill="green" transform="translate(100 100) scale(0.1 -0.1)"><path d="M0.0 0.0V-494.0H30.0V-29.0H301.0V0.0ZM17.0 -153.0V-182.0H282.0V-153.0ZM409.0 -127.0V-157.0H613.0V-127.0ZM528.0 -63.0V-226.0H558.0V-63.0ZM618.0 -559.0V-709.0H647.0V-559.0ZM640.0 -127.0V-157.0H839.0V-127.0ZM707.0 -63.0V-226.0H736.0V-63.0ZM262.0 -465.0V-473.0C250.0 -710.0 237.0 -797.0 220.0 -817.0C214.0 -826.0 206.0 -827.0 194.0 -827.0C182.0 -827.0 155.0 -827.0 123.0 -824.0C127.0 -832.0 130.0 -845.0 131.0 -852.0C157.0 -854.0 184.0 -855.0 199.0 -854.0C221.0 -854.0 233.0 -850.0 244.0 -837.0C268.0 -809.0 279.0 -732.0 291.0 -485.0C292.0 -479.0 292.0 -465.0 292.0 -465.0Z"/></g>
<g fill="green" transform="translate(200 100) scale(0.1 -0.1)"><path d="M0.0 0.0V-569.0H101.0V-116.0H348.0V0.0ZM76.0 -155.0V-263.0H330.0V-155.0ZM501.0 -161.0V-248.0H695.0V-161.0ZM566.0 -129.0V-278.0H660.0V-129.0ZM651.0 -561.0V-750.0H733.0V-561.0ZM709.0 -161.0V-248.0H890.0V-161.0ZM743.0 -129.0V-278.0H834.0V-129.0ZM248.0 -458.0V-478.0C241.0 -692.0 231.0 -772.0 218.0 -791.0C211.0 -802.0 204.0 -804.0 194.0 -804.0C181.0 -804.0 161.0 -804.0 136.0 -801.0C151.0 -832.0 162.0 -881.0 163.0 -916.0C197.0 -917.0 228.0 -917.0 248.0 -912.0C271.0 -907.0 290.0 -898.0 307.0 -871.0C330.0 -838.0 340.0 -741.0 350.0 -506.0C351.0 -491.0 351.0 -458.0 351.0 -458.0Z"/></g>
<g fill="green" transform="translate(300 100) scale(0.1 -0.1)"><path d="M0.0 0.0V-494.0H30.0V-29.0H301.0V0.0ZM17.0 -153.0V-182.0H282.0V-153.0ZM409.0 -127.0V-157.0H613.0V-127.0ZM528.0 -63.0V-226.0H558.0V-63.0ZM618.0 -559.0V-709.0H647.0V-559.0ZM640.0 -127.0V-157.0H839.0V-127.0ZM707.0 -63.0V-226.0H736.0V-63.0ZM262.0 -465.0V-473.0C250.0 -710.0 237.0 -797.0 220.0 -817.0C214.0 -826.0 206.0 -827.0 194.0 -827.0C182.0 -827.0 155.0 -827.0 123.0 -824.0C127.0 -832.0 130.0 -845.0 131.0 -852.0C157.0 -854.0 184.0 -855.0 199.0 -854.0C221.0 -854.0 233.0 -850.0 244.0 -837.0C268.0 -809.0 279.0 -732.0 291.0 -485.0C292.0 -479.0 292.0 -465.0 292.0 -465.0Z"/></g>
<g fill="green" transform="translate(400 100) scale(0.1 -0.1)"><path d="M0.0 0.0V-569.0H101.0V-116.0H348.0V0.0ZM76.0 -155.0V-263.0H330.0V-155.0ZM501.0 -161.0V-248.0H695.0V-161.0ZM566.0 -129.0V-278.0H660.0V-129.0ZM651.0 -561.0V-750.0H733.0V-561.0ZM709.0 -161.0V-248.0H890.0V-161.0ZM743.0 -129.0V-278.0H834.0V-129.0ZM248.0 -458.0V-478.0C241.0 -692.0 231.0 -772.0 218.0 -791.0C211.0 -802.0 204.0 -804.0 194.0 -804.0C181.0 -804.0 161.0 -804.0 136.0 -801.0C151.0 -832.0 162.0 -881.0 163.0 -916.0C197.0 -917.0 228.0 -917.0 248.0 -912.0C271.0 -907.0 290.0 -898.0 307.0 -871.0C330.0 -838.0 340.0 -741.0 350.0 -506.0C351.0 -491.0 351.0 -458.0 351.0 -458.0Z"/></g>
<g fill="red" transform="translate(100 200) scale(0.1 -0.1)"><path d="M0.0 0.0V-494.0H30.0V-29.0H301.0V0.0ZM17.0 -153.0V-182.0H282.0V-153.0ZM409.0 -127.0V-157.0H613.0V-127.0ZM528.0 -63.0V-226.0H558.0V-63.0ZM618.0 -559.0V-709.0H647.0V-559.0ZM640.0 -127.0V-157.0H839.0V-127.0ZM707.0 -63.0V-226.0H736.0V-63.0ZM262.0 -465.0V-473.0C250.0 -710.0 237.0 -797.0 220.0 -817.0C214.0 -826.0 206.0 -827.0 194.0 -827.0C182.0 -827.0 155.0 -827.0 123.0 -824.0C127.0 -832.0 130.0 -845.0 131.0 -852.0C157.0 -854.0 184.0 -855.0 199.0 -854.0C221.0 -854.0 233.0 -850.0 244.0 -837.0C268.0 -809.0 279.0 -732.0 291.0 -485.0C292.0 -479.0 292.0 -465.0 292.0 -465.0Z"/></g>
<g fill="black" opacity=".8" transform="translate(100 200) scale(0.1 -0.1)"><path d="M0.0 0.0V-494.0H30.0V-29.0H301.0V0.0ZM17.0 -153.0V-182.0H282.0V-153.0ZM409.0 -127.0V-157.0H613.0V-127.0ZM528.0 -63.0V-226.0H558.0V-63.0ZM618.0 -559.0V-709.0H647.0V-559.0ZM640.0 -127.0V-157.0H839.0V-127.0ZM707.0 -63.0V-226.0H736.0V-63.0ZM262.0 -465.0V-473.0C250.0 -710.0 237.0 -797.0 220.0 -817.0C214.0 -826.0 206.0 -827.0 194.0 -827.0C182.0 -827.0 155.0 -827.0 123.0 -824.0C127.0 -832.0 130.0 -845.0 131.0 -852.0C157.0 -854.0 184.0 -855.0 199.0 -854.0C221.0 -854.0 233.0 -850.0 244.0 -837.0C268.0 -809.0 279.0 -732.0 291.0 -485.0C292.0 -479.0 292.0 -465.0 292.0 -465.0Z"/></g>
<g fill="red" transform="translate(200 200) scale(0.1 -0.1)"><path d="M0.0 0.0V-569.0H101.0V-116.0H348.0V0.0ZM76.0 -155.0V-263.0H330.0V-155.0ZM501.0 -161.0V-248.0H695.0V-161.0ZM566.0 -129.0V-278.0H660.0V-129.0ZM651.0 -561.0V-750.0H733.0V-561.0ZM709.0 -161.0V-248.0H890.0V-161.0ZM743.0 -129.0V-278.0H834.0V-129.0ZM248.0 -458.0V-478.0C241.0 -692.0 231.0 -772.0 218.0 -791.0C211.0 -802.0 204.0 -804.0 194.0 -804.0C181.0 -804.0 161.0 -804.0 136.0 -801.0C151.0 -832.0 162.0 -881.0 163.0 -916.0C197.0 -917.0 228.0 -917.0 248.0 -912.0C271.0 -907.0 290.0 -898.0 307.0 -871.0C330.0 -838.0 340.0 -741.0 350.0 -506.0C351.0 -491.0 351.0 -458.0 351.0 -458.0Z"/></g>
<g fill="black" opacity=".8" transform="translate(200 200) scale(0.1 -0.1)"><path d="M0.0 0.0V-569.0H101.0V-116.0H348.0V0.0ZM76.0 -155.0V-263.0H330.0V-155.0ZM501.0 -161.0V-248.0H695.0V-161.0ZM566.0 -129.0V-278.0H660.0V-129.0ZM651.0 -561.0V-750.0H733.0V-561.0ZM709.0 -161.0V-248.0H890.0V-161.0ZM743.0 -129.0V-278.0H834.0V-129.0ZM248.0 -458.0V-478.0C241.0 -692.0 231.0 -772.0 218.0 -791.0C211.0 -802.0 204.0 -804.0 194.0 -804.0C181.0 -804.0 161.0 -804.0 136.0 -801.0C151.0 -832.0 162.0 -881.0 163.0 -916.0C197.0 -917.0 228.0 -917.0 248.0 -912.0C271.0 -907.0 290.0 -898.0 307.0 -871.0C330.0 -838.0 340.0 -741.0 350.0 -506.0C351.0 -491.0 351.0 -458.0 351.0 -458.0Z"/></g>
</svg>
