<?xml version="1.0" encoding="UTF-8"?>
<svg width="1700" height="300" xmlns="http://www.w3.org/2000/svg">
<rect width="100%" height="100%" fill="white"/>
<g fill="green" transform="translate(100 100) scale(0.1 -0.1)"><path d="M0.0 0.0 -7.0 -34.0H337.0V0.0ZM-578.0 -94.0C-578.0 -82.0 -545.0 -69.0 -545.0 -69.0V-68.0C-479.0 25.0 -413.0 159.0 -361.0 290.0L-396.0 306.0C-438.0 180.0 -513.0 44.0 -537.0 10.0C-556.0 -27.0 -574.0 -52.0 -590.0 -55.0C-586.0 -65.0 -580.0 -85.0 -578.0 -94.0ZM-571.0 -347.0C-571.0 -336.0 -539.0 -323.0 -539.0 -323.0C-436.0 -210.0 -334.0 -50.0 -246.0 109.0L-280.0 125.0C-356.0 -28.0 -472.0 -190.0 -506.0 -232.0C-539.0 -274.0 -564.0 -306.0 -583.0 -310.0C-579.0 -320.0 -573.0 -338.0 -571.0 -347.0ZM-418.0 -416.0C-404.0 -491.0 -390.0 -591.0 -388.0 -657.0L-353.0 -651.0C-358.0 -586.0 -372.0 -487.0 -385.0 -411.0ZM-325.0 -148.0C-294.0 -219.0 -261.0 -313.0 -247.0 -369.0L-212.0 -358.0C-226.0 -303.0 -261.0 -211.0 -293.0 -140.0ZM-293.0 -363.0C-269.0 -426.0 -243.0 -510.0 -233.0 -563.0L-200.0 -552.0C-211.0 -501.0 -238.0 -418.0 -262.0 -355.0ZM-75.0 -322.0C13.0 -367.0 112.0 -438.0 161.0 -490.0L182.0 -461.0C133.0 -410.0 32.0 -341.0 -54.0 -296.0ZM28.0 213.0C-6.0 17.0 -68.0 -275.0 -111.0 -435.0L-76.0 -439.0C-35.0 -280.0 26.0 10.0 62.0 208.0ZM319.0 0.0C298.0 -202.0 257.0 -503.0 227.0 -666.0H258.0C287.0 -507.0 327.0 -206.0 351.0 0.0ZM-578.0 -94.0C-563.0 -87.0 -538.0 -81.0 -350.0 -55.0C-350.0 -47.0 -351.0 -34.0 -350.0 -25.0L-551.0 -47.0L-578.0 -62.0ZM-571.0 -347.0C-553.0 -337.0 -524.0 -330.0 -252.0 -282.0C-253.0 -275.0 -254.0 -261.0 -253.0 -252.0L-545.0 -299.0L-571.0 -317.0ZM-515.0 -408.0C-533.0 -500.0 -557.0 -602.0 -589.0 -675.0C-579.0 -679.0 -562.0 -685.0 -555.0 -689.0C-529.0 -617.0 -500.0 -510.0 -481.0 -416.0Z"/></g>
<g fill="green" transform="translate(200 100) scale(0.1 -0.1)"><path d="M0.0 0.0 -19.0 -140.0H342.0V0.0ZM-571.0 -172.0C-571.0 -146.0 -486.0 -101.0 -486.0 -101.0V-97.0C-415.0 -8.0 -336.0 122.0 -286.0 242.0L-426.0 300.0C-462.0 180.0 -530.0 55.0 -553.0 23.0C-575.0 -10.0 -595.0 -31.0 -618.0 -38.0C-601.0 -75.0 -579.0 -144.0 -571.0 -172.0ZM-562.0 -441.0C-562.0 -416.0 -483.0 -371.0 -483.0 -371.0V-367.0C-371.0 -254.0 -253.0 -92.0 -173.0 65.0L-303.0 137.0C-368.0 -22.0 -483.0 -190.0 -519.0 -230.0C-555.0 -273.0 -578.0 -298.0 -609.0 -306.0C-592.0 -344.0 -569.0 -413.0 -562.0 -441.0ZM-437.0 -484.0C-426.0 -558.0 -416.0 -655.0 -414.0 -719.0L-297.0 -689.0C-302.0 -625.0 -313.0 -531.0 -327.0 -456.0ZM-321.0 -207.0C-298.0 -281.0 -276.0 -379.0 -268.0 -437.0L-157.0 -400.0C-166.0 -343.0 -191.0 -248.0 -216.0 -176.0ZM-303.0 -419.0C-284.0 -475.0 -264.0 -548.0 -256.0 -596.0L-153.0 -558.0C-163.0 -513.0 -184.0 -442.0 -205.0 -387.0ZM-49.0 -430.0C13.0 -468.0 97.0 -526.0 136.0 -563.0L216.0 -455.0C173.0 -420.0 87.0 -367.0 26.0 -334.0ZM-55.0 125.0C-77.0 -74.0 -119.0 -329.0 -156.0 -485.0L2.0 -498.0C35.0 -342.0 76.0 -92.0 105.0 112.0ZM248.0 0.0C231.0 -215.0 196.0 -483.0 162.0 -656.0H328.0C355.0 -489.0 386.0 -221.0 406.0 0.0ZM-571.0 -172.0C-547.0 -161.0 -506.0 -152.0 -335.0 -136.0C-334.0 -105.0 -326.0 -49.0 -318.0 -12.0L-513.0 -23.0L-574.0 -64.0ZM-562.0 -441.0C-534.0 -424.0 -488.0 -409.0 -240.0 -358.0C-243.0 -328.0 -242.0 -274.0 -237.0 -236.0L-514.0 -285.0L-572.0 -328.0ZM-558.0 -468.0C-565.0 -561.0 -579.0 -660.0 -607.0 -726.0C-579.0 -735.0 -525.0 -751.0 -500.0 -765.0C-473.0 -696.0 -453.0 -589.0 -445.0 -486.0Z"/></g>
<g fill="green" transform="translate(300 100) scale(0.1 -0.1)"><path d="M0.0 0.0 -6.0 -30.0H301.0V0.0ZM-500.0 -83.0C-500.0 -73.0 -471.0 -61.0 -471.0 -61.0V-60.0C-413.0 22.0 -355.0 140.0 -310.0 255.0L-340.0 269.0C-377.0 158.0 -443.0 38.0 -464.0 8.0C-481.0 -24.0 -497.0 -46.0 -511.0 -49.0C-507.0 -58.0 -502.0 -75.0 -500.0 -83.0ZM-494.0 -305.0C-494.0 -295.0 -466.0 -284.0 -466.0 -284.0C-375.0 -185.0 -285.0 -45.0 -207.0 95.0L-237.0 109.0C-304.0 -25.0 -407.0 -167.0 -437.0 -204.0C-466.0 -241.0 -488.0 -269.0 -505.0 -272.0C-501.0 -281.0 -496.0 -297.0 -494.0 -305.0ZM-360.0 -365.0C-347.0 -431.0 -335.0 -519.0 -333.0 -577.0L-303.0 -571.0C-307.0 -514.0 -319.0 -428.0 -331.0 -361.0ZM-279.0 -115.0C-251.0 -177.0 -222.0 -260.0 -210.0 -309.0L-179.0 -299.0C-191.0 -251.0 -222.0 -170.0 -251.0 -108.0ZM-264.0 -348.0C-243.0 -403.0 -220.0 -476.0 -211.0 -522.0L-182.0 -513.0C-192.0 -468.0 -216.0 -396.0 -237.0 -341.0ZM-66.0 -283.0C12.0 -323.0 100.0 -386.0 144.0 -432.0L163.0 -406.0C119.0 -361.0 29.0 -300.0 -48.0 -260.0ZM25.0 187.0C-5.0 16.0 -59.0 -238.0 -97.0 -378.0L-66.0 -381.0C-30.0 -243.0 23.0 10.0 55.0 183.0ZM285.0 0.0C266.0 -177.0 230.0 -442.0 204.0 -585.0H231.0C257.0 -445.0 292.0 -181.0 313.0 0.0ZM-500.0 -83.0C-487.0 -77.0 -465.0 -72.0 -299.0 -49.0C-299.0 -42.0 -300.0 -30.0 -299.0 -22.0L-477.0 -42.0L-500.0 -55.0ZM-494.0 -305.0C-478.0 -296.0 -453.0 -290.0 -212.0 -247.0C-213.0 -241.0 -214.0 -229.0 -213.0 -221.0L-471.0 -263.0L-494.0 -278.0ZM-445.0 -358.0C-461.0 -439.0 -482.0 -529.0 -510.0 -593.0C-501.0 -596.0 -486.0 -602.0 -480.0 -605.0C-457.0 -542.0 -432.0 -448.0 -415.0 -365.0Z"/></g>
<g fill="green" transform="translate(400 100) scale(0.1 -0.1)"><path d="M0.0 0.0 -17.0 -124.0H307.0V0.0ZM-493.0 -151.0C-493.0 -128.0 -418.0 -88.0 -418.0 -88.0V-85.0C-355.0 -7.0 -285.0 107.0 -240.0 213.0L-365.0 264.0C-397.0 159.0 -457.0 49.0 -477.0 21.0C-497.0 -8.0 -514.0 -26.0 -535.0 -32.0C-520.0 -65.0 -500.0 -126.0 -493.0 -151.0ZM-485.0 -387.0C-485.0 -365.0 -416.0 -326.0 -416.0 -326.0V-322.0C-316.0 -223.0 -212.0 -81.0 -140.0 57.0L-256.0 120.0C-313.0 -19.0 -415.0 -166.0 -447.0 -201.0C-479.0 -239.0 -499.0 -261.0 -527.0 -268.0C-512.0 -301.0 -491.0 -363.0 -485.0 -387.0ZM-376.0 -425.0C-366.0 -490.0 -357.0 -575.0 -356.0 -631.0L-253.0 -605.0C-257.0 -549.0 -267.0 -466.0 -279.0 -401.0ZM-274.0 -167.0C-254.0 -232.0 -235.0 -318.0 -228.0 -369.0L-130.0 -337.0C-138.0 -287.0 -160.0 -203.0 -182.0 -140.0ZM-273.0 -398.0C-257.0 -446.0 -239.0 -509.0 -232.0 -550.0L-140.0 -516.0C-149.0 -477.0 -168.0 -416.0 -186.0 -369.0ZM-44.0 -379.0C11.0 -413.0 86.0 -464.0 121.0 -497.0L193.0 -402.0C155.0 -371.0 78.0 -324.0 24.0 -294.0ZM-49.0 110.0C-69.0 -64.0 -106.0 -286.0 -139.0 -423.0L1.0 -434.0C31.0 -298.0 67.0 -80.0 93.0 98.0ZM222.0 0.0C207.0 -189.0 175.0 -424.0 145.0 -576.0H293.0C317.0 -429.0 345.0 -194.0 363.0 0.0ZM-493.0 -151.0C-472.0 -141.0 -436.0 -133.0 -284.0 -119.0C-283.0 -92.0 -276.0 -43.0 -269.0 -10.0L-442.0 -20.0L-496.0 -56.0ZM-485.0 -387.0C-460.0 -372.0 -420.0 -359.0 -200.0 -314.0C-202.0 -288.0 -201.0 -240.0 -197.0 -207.0L-443.0 -250.0L-494.0 -288.0ZM-482.0 -411.0C-488.0 -493.0 -500.0 -580.0 -525.0 -638.0C-500.0 -645.0 -452.0 -659.0 -430.0 -671.0C-407.0 -611.0 -390.0 -517.0 -383.0 -427.0Z"/></g>
<g fill="green" transform="translate(500 100) scale(0.1 -0.1)"><path d="M0.0 0.0 -6.0 -30.0H230.0V0.0ZM-611.0 -73.0C-611.0 -63.0 -582.0 -51.0 -582.0 -51.0V-50.0C-526.0 27.0 -469.0 140.0 -424.0 250.0L-455.0 263.0C-491.0 157.0 -556.0 43.0 -576.0 14.0C-593.0 -16.0 -608.0 -38.0 -622.0 -39.0C-618.0 -48.0 -613.0 -65.0 -611.0 -73.0ZM-605.0 -305.0C-605.0 -295.0 -577.0 -284.0 -577.0 -284.0V-283.0C-493.0 -180.0 -411.0 -33.0 -342.0 111.0L-374.0 125.0C-432.0 -13.0 -525.0 -162.0 -553.0 -200.0C-579.0 -239.0 -600.0 -269.0 -616.0 -272.0C-612.0 -281.0 -607.0 -297.0 -605.0 -305.0ZM-474.0 -364.0C-461.0 -432.0 -449.0 -523.0 -446.0 -581.0L-417.0 -577.0C-420.0 -518.0 -433.0 -429.0 -445.0 -360.0ZM-379.0 -348.0C-355.0 -411.0 -329.0 -493.0 -318.0 -547.0L-289.0 -539.0C-300.0 -486.0 -328.0 -404.0 -352.0 -341.0ZM-158.0 103.0C-136.0 39.0 -117.0 -45.0 -112.0 -95.0L-82.0 -83.0C-87.0 -36.0 -106.0 46.0 -130.0 110.0ZM-60.0 -275.0C0.0 -313.0 69.0 -371.0 104.0 -411.0L121.0 -384.0C88.0 -346.0 18.0 -291.0 -43.0 -253.0ZM23.0 187.0C-9.0 -3.0 -67.0 -289.0 -106.0 -444.0L-76.0 -447.0C-38.0 -294.0 19.0 -10.0 53.0 183.0ZM214.0 0.0C196.0 -177.0 159.0 -442.0 133.0 -585.0H160.0C186.0 -445.0 221.0 -181.0 243.0 0.0ZM-611.0 -73.0C-599.0 -67.0 -577.0 -62.0 -430.0 -42.0C-431.0 -36.0 -432.0 -23.0 -431.0 -15.0L-588.0 -33.0L-611.0 -45.0ZM-605.0 -305.0C-590.0 -297.0 -566.0 -291.0 -352.0 -253.0C-353.0 -247.0 -354.0 -235.0 -354.0 -226.0L-582.0 -263.0L-605.0 -278.0ZM-556.0 -358.0C-572.0 -439.0 -593.0 -529.0 -621.0 -593.0C-612.0 -596.0 -597.0 -602.0 -591.0 -605.0C-568.0 -542.0 -543.0 -448.0 -526.0 -365.0Z"/></g>
<g fill="green" transform="translate(600 100) scale(0.1 -0.1)"><path d="M0.0 0.0 -15.0 -109.0H208.0V0.0ZM-622.0 -151.0C-622.0 -129.0 -547.0 -93.0 -547.0 -93.0V-91.0C-494.0 -10.0 -440.0 106.0 -406.0 209.0L-512.0 259.0C-538.0 151.0 -590.0 38.0 -607.0 8.0C-625.0 -23.0 -640.0 -42.0 -659.0 -47.0C-646.0 -76.0 -628.0 -129.0 -622.0 -151.0ZM-616.0 -387.0C-616.0 -366.0 -545.0 -330.0 -545.0 -330.0V-328.0C-461.0 -223.0 -375.0 -77.0 -317.0 60.0L-416.0 119.0C-466.0 -24.0 -553.0 -174.0 -582.0 -212.0C-609.0 -252.0 -629.0 -276.0 -653.0 -282.0C-640.0 -312.0 -622.0 -365.0 -616.0 -387.0ZM-499.0 -425.0C-489.0 -493.0 -479.0 -582.0 -478.0 -641.0L-380.0 -610.0C-383.0 -551.0 -394.0 -465.0 -406.0 -396.0ZM-393.0 -398.0C-373.0 -460.0 -351.0 -542.0 -343.0 -595.0L-251.0 -556.0C-261.0 -504.0 -284.0 -425.0 -306.0 -363.0ZM-162.0 63.0C-140.0 -3.0 -125.0 -89.0 -125.0 -141.0L-55.0 -120.0C-56.0 -69.0 -73.0 14.0 -97.0 80.0ZM-31.0 -363.0C11.0 -389.0 68.0 -428.0 96.0 -454.0L138.0 -359.0C110.0 -336.0 52.0 -301.0 10.0 -279.0ZM-35.0 110.0C-49.0 -77.0 -78.0 -326.0 -105.0 -474.0L6.0 -487.0C31.0 -337.0 61.0 -91.0 79.0 102.0ZM156.0 0.0C148.0 -186.0 126.0 -427.0 104.0 -576.0H222.0C240.0 -431.0 258.0 -190.0 269.0 0.0ZM-622.0 -151.0C-603.0 -142.0 -570.0 -134.0 -440.0 -122.0C-439.0 -96.0 -433.0 -49.0 -426.0 -16.0L-574.0 -25.0L-625.0 -59.0ZM-616.0 -387.0C-594.0 -373.0 -557.0 -360.0 -370.0 -317.0C-372.0 -292.0 -372.0 -245.0 -369.0 -213.0L-578.0 -254.0L-625.0 -290.0ZM-607.0 -405.0C-615.0 -488.0 -630.0 -577.0 -655.0 -636.0C-630.0 -647.0 -585.0 -669.0 -564.0 -684.0C-537.0 -620.0 -515.0 -519.0 -505.0 -424.0Z"/></g>
<g fill="red" transform="translate(100 200) scale(0.1 -0.1)"><path d="M0.0 0.0 -6.0 -30.0H301.0V0.0ZM-500.0 -83.0C-500.0 -73.0 -471.0 -61.0 -471.0 -61.0V-60.0C-413.0 22.0 -355.0 140.0 -310.0 255.0L-340.0 269.0C-377.0 158.0 -443.0 38.0 -464.0 8.0C-481.0 -24.0 -497.0 -46.0 -511.0 -49.0C-507.0 -58.0 -502.0 -75.0 -500.0 -83.0ZM-494.0 -305.0C-494.0 -295.0 -466.0 -284.0 -466.0 -284.0C-375.0 -185.0 -285.0 -45.0 -207.0 95.0L-237.0 109.0C-304.0 -25.0 -407.0 -167.0 -437.0 -204.0C-466.0 -241.0 -488.0 -269.0 -505.0 -272.0C-501.0 -281.0 -496.0 -297.0 -494.0 -305.0ZM-360.0 -365.0C-347.0 -431.0 -335.0 -519.0 -333.0 -577.0L-303.0 -571.0C-307.0 -514.0 -319.0 -428.0 -331.0 -361.0ZM-279.0 -115.0C-251.0 -177.0 -222.0 -260.0 -210.0 -309.0L-179.0 -299.0C-191.0 -251.0 -222.0 -170.0 -251.0 -108.0ZM-264.0 -348.0C-243.0 -403.0 -220.0 -476.0 -211.0 -522.0L-182.0 -513.0C-192.0 -468.0 -216.0 -396.0 -237.0 -341.0ZM-66.0 -283.0C12.0 -323.0 100.0 -386.0 144.0 -432.0L163.0 -406.0C119.0 -361.0 29.0 -300.0 -48.0 -260.0ZM25.0 187.0C-5.0 16.0 -59.0 -238.0 -97.0 -378.0L-66.0 -381.0C-30.0 -243.0 23.0 10.0 55.0 183.0ZM285.0 0.0C266.0 -177.0 230.0 -442.0 204.0 -585.0H231.0C257.0 -445.0 292.0 -181.0 313.0 0.0ZM-500.0 -83.0C-487.0 -77.0 -465.0 -72.0 -299.0 -49.0C-299.0 -42.0 -300.0 -30.0 -299.0 -22.0L-477.0 -42.0L-500.0 -55.0ZM-494.0 -305.0C-478.0 -296.0 -453.0 -290.0 -212.0 -247.0C-213.0 -241.0 -214.0 -229.0 -213.0 -221.0L-471.0 -263.0L-494.0 -278.0ZM-445.0 -358.0C-461.0 -439.0 -482.0 -529.0 -510.0 -593.0C-501.0 -596.0 -486.0 -602.0 -480.0 -605.0C-457.0 -542.0 -432.0 -448.0 -415.0 -365.0Z"/></g>
<g fill="black" opacity=".8" transform="translate(100 200) scale(0.1 -0.1)"><path d="M0.0 0.0 -6.0 -30.0H301.0V0.0ZM-500.0 -83.0C-500.0 -73.0 -471.0 -61.0 -471.0 -61.0V-60.0C-413.0 22.0 -355.0 140.0 -310.0 255.0L-340.0 269.0C-377.0 158.0 -443.0 38.0 -464.0 8.0C-481.0 -24.0 -497.0 -46.0 -511.0 -49.0C-507.0 -58.0 -502.0 -75.0 -500.0 -83.0ZM-494.0 -305.0C-494.0 -295.0 -466.0 -284.0 -466.0 -284.0C-375.0 -185.0 -285.0 -45.0 -207.0 95.0L-237.0 109.0C-304.0 -25.0 -407.0 -167.0 -437.0 -204.0C-466.0 -241.0 -488.0 -269.0 -505.0 -272.0C-501.0 -281.0 -496.0 -297.0 -494.0 -305.0ZM-360.0 -365.0C-347.0 -431.0 -335.0 -519.0 -333.0 -577.0L-303.0 -571.0C-307.0 -514.0 -319.0 -428.0 -331.0 -361.0ZM-279.0 -115.0C-251.0 -177.0 -222.0 -260.0 -210.0 -309.0L-179.0 -299.0C-191.0 -251.0 -222.0 -170.0 -251.0 -108.0ZM-264.0 -348.0C-243.0 -403.0 -220.0 -476.0 -211.0 -522.0L-182.0 -513.0C-192.0 -468.0 -216.0 -396.0 -237.0 -341.0ZM-66.0 -283.0C12.0 -323.0 100.0 -386.0 144.0 -432.0L163.0 -406.0C119.0 -361.0 29.0 -300.0 -48.0 -260.0ZM25.0 187.0C-5.0 16.0 -59.0 -238.0 -97.0 -378.0L-66.0 -381.0C-30.0 -243.0 23.0 10.0 55.0 183.0ZM285.0 0.0C266.0 -177.0 230.0 -442.0 204.0 -585.0H231.0C257.0 -445.0 292.0 -181.0 313.0 0.0ZM-500.0 -83.0C-487.0 -77.0 -465.0 -72.0 -299.0 -49.0C-299.0 -42.0 -300.0 -30.0 -299.0 -22.0L-477.0 -42.0L-500.0 -55.0ZM-494.0 -305.0C-478.0 -296.0 -453.0 -290.0 -212.0 -247.0C-213.0 -241.0 -214.0 -229.0 -213.0 -221.0L-471.0 -263.0L-494.0 -278.0ZM-445.0 -358.0C-461.0 -439.0 -482.0 -529.0 -510.0 -593.0C-501.0 -596.0 -486.0 -602.0 -480.0 -605.0C-457.0 -542.0 -432.0 -448.0 -415.0 -365.0Z"/></g>
<g fill="red" transform="translate(200 200) scale(0.1 -0.1)"><path d="M0.0 0.0 -17.0 -124.0H307.0V0.0ZM-493.0 -151.0C-493.0 -128.0 -418.0 -88.0 -418.0 -88.0V-85.0C-355.0 -7.0 -285.0 107.0 -240.0 213.0L-365.0 264.0C-397.0 159.0 -457.0 49.0 -477.0 21.0C-497.0 -8.0 -514.0 -26.0 -535.0 -32.0C-520.0 -65.0 -500.0 -126.0 -493.0 -151.0ZM-485.0 -387.0C-485.0 -365.0 -416.0 -326.0 -416.0 -326.0V-322.0C-316.0 -223.0 -212.0 -81.0 -140.0 57.0L-256.0 120.0C-313.0 -19.0 -415.0 -166.0 -447.0 -201.0C-479.0 -239.0 -499.0 -261.0 -527.0 -268.0C-512.0 -301.0 -491.0 -363.0 -485.0 -387.0ZM-376.0 -425.0C-366.0 -490.0 -357.0 -575.0 -356.0 -631.0L-253.0 -605.0C-257.0 -549.0 -267.0 -466.0 -279.0 -401.0ZM-274.0 -167.0C-254.0 -232.0 -235.0 -318.0 -228.0 -369.0L-130.0 -337.0C-138.0 -287.0 -160.0 -203.0 -182.0 -140.0ZM-273.0 -398.0C-257.0 -446.0 -239.0 -509.0 -232.0 -550.0L-140.0 -516.0C-149.0 -477.0 -168.0 -416.0 -186.0 -369.0ZM-44.0 -379.0C11.0 -413.0 86.0 -464.0 121.0 -497.0L193.0 -402.0C155.0 -371.0 78.0 -324.0 24.0 -294.0ZM-49.0 110.0C-69.0 -64.0 -106.0 -286.0 -139.0 -423.0L1.0 -434.0C31.0 -298.0 67.0 -80.0 93.0 98.0ZM222.0 0.0C207.0 -189.0 175.0 -424.0 145.0 -576.0H293.0C317.0 -429.0 345.0 -194.0 363.0 0.0ZM-493.0 -151.0C-472.0 -141.0 -436.0 -133.0 -284.0 -119.0C-283.0 -92.0 -276.0 -43.0 -269.0 -10.0L-442.0 -20.0L-496.0 -56.0ZM-485.0 -387.0C-460.0 -372.0 -420.0 -359.0 -200.0 -314.0C-202.0 -288.0 -201.0 -240.0 -197.0 -207.0L-443.0 -250.0L-494.0 -288.0ZM-482.0 -411.0C-488.0 -493.0 -500.0 -580.0 -525.0 -638.0C-500.0 -645.0 -452.0 -659.0 -430.0 -671.0C-407.0 -611.0 -390.0 -517.0 -383.0 -427.0Z"/></g>
<g fill="black" opacity=".8" transform="translate(200 200) scale(0.1 -0.1)"><path d="M0.0 0.0 -17.0 -124.0H307.0V0.0ZM-493.0 -151.0C-493.0 -128.0 -418.0 -88.0 -418.0 -88.0V-85.0C-355.0 -7.0 -285.0 107.0 -240.0 213.0L-365.0 264.0C-397.0 159.0 -457.0 49.0 -477.0 21.0C-497.0 -8.0 -514.0 -26.0 -535.0 -32.0C-520.0 -65.0 -500.0 -126.0 -493.0 -151.0ZM-485.0 -387.0C-485.0 -365.0 -416.0 -326.0 -416.0 -326.0V-322.0C-316.0 -223.0 -212.0 -81.0 -140.0 57.0L-256.0 120.0C-313.0 -19.0 -415.0 -166.0 -447.0 -201.0C-479.0 -239.0 -499.0 -261.0 -527.0 -268.0C-512.0 -301.0 -491.0 -363.0 -485.0 -387.0ZM-376.0 -425.0C-366.0 -490.0 -357.0 -575.0 -356.0 -631.0L-253.0 -605.0C-257.0 -549.0 -267.0 -466.0 -279.0 -401.0ZM-274.0 -167.0C-254.0 -232.0 -235.0 -318.0 -228.0 -369.0L-130.0 -337.0C-138.0 -287.0 -160.0 -203.0 -182.0 -140.0ZM-273.0 -398.0C-257.0 -446.0 -239.0 -509.0 -232.0 -550.0L-140.0 -516.0C-149.0 -477.0 -168.0 -416.0 -186.0 -369.0ZM-44.0 -379.0C11.0 -413.0 86.0 -464.0 121.0 -497.0L193.0 -402.0C155.0 -371.0 78.0 -324.0 24.0 -294.0ZM-49.0 110.0C-69.0 -64.0 -106.0 -286.0 -139.0 -423.0L1.0 -434.0C31.0 -298.0 67.0 -80.0 93.0 98.0ZM222.0 0.0C207.0 -189.0 175.0 -424.0 145.0 -576.0H293.0C317.0 -429.0 345.0 -194.0 363.0 0.0ZM-493.0 -151.0C-472.0 -141.0 -436.0 -133.0 -284.0 -119.0C-283.0 -92.0 -276.0 -43.0 -269.0 -10.0L-442.0 -20.0L-496.0 -56.0ZM-485.0 -387.0C-460.0 -372.0 -420.0 -359.0 -200.0 -314.0C-202.0 -288.0 -201.0 -240.0 -197.0 -207.0L-443.0 -250.0L-494.0 -288.0ZM-482.0 -411.0C-488.0 -493.0 -500.0 -580.0 -525.0 -638.0C-500.0 -645.0 -452.0 -659.0 -430.0 -671.0C-407.0 -611.0 -390.0 -517.0 -383.0 -427.0Z"/></g>
<g fill="red" transform="translate(300 200) scale(0.1 -0.1)"><path d="M0.0 0.0 -6.0 -30.0H230.0V0.0ZM-611.0 -73.0C-611.0 -63.0 -582.0 -51.0 -582.0 -51.0V-50.0C-526.0 27.0 -469.0 140.0 -424.0 250.0L-455.0 263.0C-491.0 157.0 -556.0 43.0 -576.0 14.0C-593.0 -16.0 -608.0 -38.0 -622.0 -39.0C-618.0 -48.0 -613.0 -65.0 -611.0 -73.0ZM-605.0 -305.0C-605.0 -295.0 -577.0 -284.0 -577.0 -284.0V-283.0C-493.0 -180.0 -411.0 -33.0 -342.0 111.0L-374.0 125.0C-432.0 -13.0 -525.0 -162.0 -553.0 -200.0C-579.0 -239.0 -600.0 -269.0 -616.0 -272.0C-612.0 -281.0 -607.0 -297.0 -605.0 -305.0ZM-474.0 -364.0C-461.0 -432.0 -449.0 -523.0 -446.0 -581.0L-417.0 -577.0C-420.0 -518.0 -433.0 -429.0 -445.0 -360.0ZM-379.0 -348.0C-355.0 -411.0 -329.0 -493.0 -318.0 -547.0L-289.0 -539.0C-300.0 -486.0 -328.0 -404.0 -352.0 -341.0ZM-158.0 103.0C-136.0 39.0 -117.0 -45.0 -112.0 -95.0L-82.0 -83.0C-87.0 -36.0 -106.0 46.0 -130.0 110.0ZM-60.0 -275.0C0.0 -313.0 69.0 -371.0 104.0 -411.0L121.0 -384.0C88.0 -346.0 18.0 -291.0 -43.0 -253.0ZM23.0 187.0C-9.0 -3.0 -67.0 -289.0 -106.0 -444.0L-76.0 -447.0C-38.0 -294.0 19.0 -10.0 53.0 183.0ZM214.0 0.0C196.0 -177.0 159.0 -442.0 133.0 -585.0H160.0C186.0 -445.0 221.0 -181.0 243.0 0.0ZM-611.0 -73.0C-599.0 -67.0 -577.0 -62.0 -430.0 -42.0C-431.0 -36.0 -432.0 -23.0 -431.0 -15.0L-588.0 -33.0L-611.0 -45.0ZM-605.0 -305.0C-590.0 -297.0 -566.0 -291.0 -352.0 -253.0C-353.0 -247.0 -354.0 -235.0 -354.0 -226.0L-582.0 -263.0L-605.0 -278.0ZM-556.0 -358.0C-572.0 -439.0 -593.0 -529.0 -621.0 -593.0C-612.0 -596.0 -597.0 -602.0 -591.0 -605.0C-568.0 -542.0 -543.0 -448.0 -526.0 -365.0Z"/></g>
<g fill="black" opacity=".8" transform="translate(300 200) scale(0.1 -0.1)"><path d="M0.0 0.0 -6.0 -30.0H230.0V0.0ZM-611.0 -73.0C-611.0 -63.0 -582.0 -51.0 -582.0 -51.0V-50.0C-526.0 27.0 -469.0 140.0 -424.0 250.0L-455.0 263.0C-491.0 157.0 -556.0 43.0 -576.0 14.0C-593.0 -16.0 -608.0 -38.0 -622.0 -39.0C-618.0 -48.0 -613.0 -65.0 -611.0 -73.0ZM-605.0 -305.0C-605.0 -295.0 -577.0 -284.0 -577.0 -284.0V-283.0C-493.0 -180.0 -411.0 -33.0 -342.0 111.0L-374.0 125.0C-432.0 -13.0 -525.0 -162.0 -553.0 -200.0C-579.0 -239.0 -600.0 -269.0 -616.0 -272.0C-612.0 -281.0 -607.0 -297.0 -605.0 -305.0ZM-474.0 -364.0C-461.0 -432.0 -449.0 -523.0 -446.0 -581.0L-417.0 -577.0C-420.0 -518.0 -433.0 -429.0 -445.0 -360.0ZM-379.0 -348.0C-355.0 -411.0 -329.0 -493.0 -318.0 -547.0L-289.0 -539.0C-300.0 -486.0 -328.0 -404.0 -352.0 -341.0ZM-158.0 103.0C-136.0 39.0 -117.0 -45.0 -112.0 -95.0L-82.0 -83.0C-87.0 -36.0 -106.0 46.0 -130.0 110.0ZM-60.0 -275.0C0.0 -313.0 69.0 -371.0 104.0 -411.0L121.0 -384.0C88.0 -346.0 18.0 -291.0 -43.0 -253.0ZM23.0 187.0C-9.0 -3.0 -67.0 -289.0 -106.0 -444.0L-76.0 -447.0C-38.0 -294.0 19.0 -10.0 53.0 183.0ZM214.0 0.0C196.0 -177.0 159.0 -442.0 133.0 -585.0H160.0C186.0 -445.0 221.0 -181.0 243.0 0.0ZM-611.0 -73.0C-599.0 -67.0 -577.0 -62.0 -430.0 -42.0C-431.0 -36.0 -432.0 -23.0 -431.0 -15.0L-588.0 -33.0L-611.0 -45.0ZM-605.0 -305.0C-590.0 -297.0 -566.0 -291.0 -352.0 -253.0C-353.0 -247.0 -354.0 -235.0 -354.0 -226.0L-582.0 -263.0L-605.0 -278.0ZM-556.0 -358.0C-572.0 -439.0 -593.0 -529.0 -621.0 -593.0C-612.0 -596.0 -597.0 -602.0 -591.0 -605.0C-568.0 -542.0 -543.0 -448.0 -526.0 -365.0Z"/></g>
<g fill="red" transform="translate(400 200) scale(0.1 -0.1)"><path d="M0.0 0.0 -15.0 -109.0H208.0V0.0ZM-622.0 -151.0C-622.0 -129.0 -547.0 -93.0 -547.0 -93.0V-91.0C-494.0 -10.0 -440.0 106.0 -406.0 209.0L-512.0 259.0C-538.0 151.0 -590.0 38.0 -607.0 8.0C-625.0 -23.0 -640.0 -42.0 -659.0 -47.0C-646.0 -76.0 -628.0 -129.0 -622.0 -151.0ZM-616.0 -387.0C-616.0 -366.0 -545.0 -330.0 -545.0 -330.0V-328.0C-461.0 -223.0 -375.0 -77.0 -317.0 60.0L-416.0 119.0C-466.0 -24.0 -553.0 -174.0 -582.0 -212.0C-609.0 -252.0 -629.0 -276.0 -653.0 -282.0C-640.0 -312.0 -622.0 -365.0 -616.0 -387.0ZM-499.0 -425.0C-489.0 -493.0 -479.0 -582.0 -478.0 -641.0L-380.0 -610.0C-383.0 -551.0 -394.0 -465.0 -406.0 -396.0ZM-393.0 -398.0C-373.0 -460.0 -351.0 -542.0 -343.0 -595.0L-251.0 -556.0C-261.0 -504.0 -284.0 -425.0 -306.0 -363.0ZM-162.0 63.0C-140.0 -3.0 -125.0 -89.0 -125.0 -141.0L-55.0 -120.0C-56.0 -69.0 -73.0 14.0 -97.0 80.0ZM-31.0 -363.0C11.0 -389.0 68.0 -428.0 96.0 -454.0L138.0 -359.0C110.0 -336.0 52.0 -301.0 10.0 -279.0ZM-35.0 110.0C-49.0 -77.0 -78.0 -326.0 -105.0 -474.0L6.0 -487.0C31.0 -337.0 61.0 -91.0 79.0 102.0ZM156.0 0.0C148.0 -186.0 126.0 -427.0 104.0 -576.0H222.0C240.0 -431.0 258.0 -190.0 269.0 0.0ZM-622.0 -151.0C-603.0 -142.0 -570.0 -134.0 -440.0 -122.0C-439.0 -96.0 -433.0 -49.0 -426.0 -16.0L-574.0 -25.0L-625.0 -59.0ZM-616.0 -387.0C-594.0 -373.0 -557.0 -360.0 -370.0 -317.0C-372.0 -292.0 -372.0 -245.0 -369.0 -213.0L-578.0 -254.0L-625.0 -290.0ZM-607.0 -405.0C-615.0 -488.0 -630.0 -577.0 -655.0 -636.0C-630.0 -647.0 -585.0 -669.0 -564.0 -684.0C-537.0 -620.0 -515.0 -519.0 -505.0 -424.0Z"/></g>
<g fill="black" opacity=".8" transform="translate(400 200) scale(0.1 -0.1)"><path d="M0.0 0.0 -15.0 -109.0H208.0V0.0ZM-622.0 -151.0C-622.0 -129.0 -547.0 -93.0 -547.0 -93.0V-91.0C-494.0 -10.0 -440.0 106.0 -406.0 209.0L-512.0 259.0C-538.0 151.0 -590.0 38.0 -607.0 8.0C-625.0 -23.0 -640.0 -42.0 -659.0 -47.0C-646.0 -76.0 -628.0 -129.0 -622.0 -151.0ZM-616.0 -387.0C-616.0 -366.0 -545.0 -330.0 -545.0 -330.0V-328.0C-461.0 -223.0 -375.0 -77.0 -317.0 60.0L-416.0 119.0C-466.0 -24.0 -553.0 -174.0 -582.0 -212.0C-609.0 -252.0 -629.0 -276.0 -653.0 -282.0C-640.0 -312.0 -622.0 -365.0 -616.0 -387.0ZM-499.0 -425.0C-489.0 -493.0 -479.0 -582.0 -478.0 -641.0L-380.0 -610.0C-383.0 -551.0 -394.0 -465.0 -406.0 -396.0ZM-393.0 -398.0C-373.0 -460.0 -351.0 -542.0 -343.0 -595.0L-251.0 -556.0C-261.0 -504.0 -284.0 -425.0 -306.0 -363.0ZM-162.0 63.0C-140.0 -3.0 -125.0 -89.0 -125.0 -141.0L-55.0 -120.0C-56.0 -69.0 -73.0 14.0 -97.0 80.0ZM-31.0 -363.0C11.0 -389.0 68.0 -428.0 96.0 -454.0L138.0 -359.0C110.0 -336.0 52.0 -301.0 10.0 -279.0ZM-35.0 110.0C-49.0 -77.0 -78.0 -326.0 -105.0 -474.0L6.0 -487.0C31.0 -337.0 61.0 -91.0 79.0 102.0ZM156.0 0.0C148.0 -186.0 126.0 -427.0 104.0 -576.0H222.0C240.0 -431.0 258.0 -190.0 269.0 0.0ZM-622.0 -151.0C-603.0 -142.0 -570.0 -134.0 -440.0 -122.0C-439.0 -96.0 -433.0 -49.0 -426.0 -16.0L-574.0 -25.0L-625.0 -59.0ZM-616.0 -387.0C-594.0 -373.0 -557.0 -360.0 -370.0 -317.0C-372.0 -292.0 -372.0 -245.0 -369.0 -213.0L-578.0 -254.0L-625.0 -290.0ZM-607.0 -405.0C-615.0 -488.0 -630.0 -577.0 -655.0 -636.0C-630.0 -647.0 -585.0 -669.0 -564.0 -684.0C-537.0 -620.0 -515.0 -519.0 -505.0 -424.0Z"/></g>
</svg>
