<?xml version="1.0" encoding="UTF-8"?>
<svg width="1700" height="300" xmlns="http://www.w3.org/2000/svg">
<rect width="100%" height="100%" fill="white"/>
<g fill="green" transform="translate(100 100) scale(0.1 -0.1)"><path d="M0.0 0.0V-308.0H30.0V-29.0H265.0V0.0ZM18.0 -279.0V-308.0H237.0V-547.0H266.0V-279.0ZM461.0 -278.0V-546.0H490.0V-307.0H716.0V-278.0ZM461.0 2.0V-27.0H700.0V-306.0H731.0V2.0ZM265.0 208.0H236.0V-12.0H265.0ZM461.0 210.0V-10.0H490.0V210.0Z"/></g>
<g fill="green" transform="translate(200 100) scale(0.1 -0.1)"><path d="M0.0 0.0V-380.0H142.0V-122.0H351.0V0.0ZM86.0 -257.0V-380.0H211.0V-574.0H350.0V-257.0ZM429.0 -257.0V-578.0H569.0V-380.0H718.0V-257.0ZM429.0 0.0V-122.0H641.0V-380.0H788.0V0.0ZM351.0 174.0H211.0V-56.0H351.0ZM429.0 168.0V-62.0H569.0V168.0Z"/></g>
<g fill="green" transform="translate(300 100) scale(0.1 -0.1)"><path d="M0.0 0.0V-308.0H30.0V-29.0H265.0V0.0ZM18.0 -279.0V-308.0H237.0V-547.0H266.0V-279.0ZM461.0 -278.0V-546.0H490.0V-307.0H716.0V-278.0ZM461.0 2.0V-27.0H700.0V-306.0H731.0V2.0ZM265.0 208.0H236.0V-12.0H265.0ZM461.0 210.0V-10.0H490.0V210.0Z"/></g>
<g fill="green" transform="translate(400 100) scale(0.1 -0.1)"><path d="M0.0 0.0V-380.0H142.0V-122.0H351.0V0.0ZM86.0 -257.0V-380.0H211.0V-574.0H350.0V-257.0ZM429.0 -257.0V-578.0H569.0V-380.0H718.0V-257.0ZM429.0 0.0V-122.0H641.0V-380.0H788.0V0.0ZM351.0 174.0H211.0V-56.0H351.0ZM429.0 168.0V-62.0H569.0V168.0Z"/></g>
<g fill="red" transform="translate(100 200) scale(0.1 -0.1)"><path d="M0.0 0.0V-308.0H30.0V-29.0H265.0V0.0ZM18.0 -279.0V-308.0H237.0V-547.0H266.0V-279.0ZM461.0 -278.0V-546.0H490.0V-307.0H716.0V-278.0ZM461.0 2.0V-27.0H700.0V-306.0H731.0V2.0ZM265.0 208.0H236.0V-12.0H265.0ZM461.0 210.0V-10.0H490.0V210.0Z"/></g>
<g fill="black" opacity=".8" transform="translate(100 200) scale(0.1 -0.1)"><path d="M0.0 0.0V-308.0H30.0V-29.0H265.0V0.0ZM18.0 -279.0V-308.0H237.0V-547.0H266.0V-279.0ZM461.0 -278.0V-546.0H490.0V-307.0H716.0V-278.0ZM461.0 2.0V-27.0H700.0V-306.0H731.0V2.0ZM265.0 208.0H236.0V-12.0H265.0ZM461.0 210.0V-10.0H490.0V210.0Z"/></g>
<g fill="red" transform="translate(200 200) scale(0.1 -0.1)"><path d="M0.0 0.0V-380.0H142.0V-122.0H351.0V0.0ZM86.0 -257.0V-380.0H211.0V-574.0H350.0V-257.0ZM429.0 -257.0V-578.0H569.0V-380.0H718.0V-257.0ZM429.0 0.0V-122.0H641.0V-380.0H788.0V0.0ZM351.0 174.0H211.0V-56.0H351.0ZM429.0 168.0V-62.0H569.0V168.0Z"/></g>
<g fill="black" opacity=".8" transform="translate(200 200) scale(0.1 -0.1)"><path d="M0.0 0.0V-380.0H142.0V-122.0H351.0V0.0ZM86.0 -257.0V-380.0H211.0V-574.0H350.0V-257.0ZM429.0 -257.0V-578.0H569.0V-380.0H718.0V-257.0ZM429.0 0.0V-122.0H641.0V-380.0H788.0V0.0ZM351.0 174.0H211.0V-56.0H351.0ZM429.0 168.0V-62.0H569.0V168.0Z"/></g>
</svg>
