<?xml version="1.0" encoding="UTF-8"?>
<svg width="1700" height="300" xmlns="http://www.w3.org/2000/svg">
<rect width="100%" height="100%" fill="white"/>
<g fill="green" transform="translate(100 100) scale(0.1 -0.1)"><path d="M0.0 0.0V-29.0H410.0V0.0ZM243.0 92.0V-116.0H272.0V92.0ZM452.0 0.0V-29.0H862.0V0.0ZM-6.0 -653.0 1.0 -683.0C104.0 -657.0 252.0 -622.0 393.0 -587.0L391.0 -559.0C242.0 -595.0 92.0 -631.0 -6.0 -653.0ZM341.0 -125.0C277.0 -161.0 153.0 -198.0 48.0 -224.0C52.0 -231.0 57.0 -241.0 60.0 -248.0C167.0 -222.0 292.0 -186.0 370.0 -147.0Z"/></g>
<g fill="green" transform="translate(200 100) scale(0.1 -0.1)"><path d="M0.0 0.0V-129.0H437.0V0.0ZM187.0 60.0V-165.0H331.0V60.0ZM465.0 -2.0V-131.0H898.0V-2.0ZM-8.0 -684.0 19.0 -829.0C135.0 -799.0 284.0 -761.0 423.0 -722.0L408.0 -595.0C257.0 -630.0 96.0 -665.0 -8.0 -684.0ZM325.0 -165.0C249.0 -200.0 137.0 -236.0 33.0 -259.0C49.0 -290.0 70.0 -343.0 77.0 -375.0C190.0 -355.0 322.0 -325.0 433.0 -284.0Z"/></g>
<g fill="green" transform="translate(300 100) scale(0.1 -0.1)"><path d="M0.0 0.0V-29.0H410.0V0.0ZM243.0 92.0V-116.0H272.0V92.0ZM452.0 0.0V-29.0H862.0V0.0ZM-6.0 -653.0 1.0 -683.0C104.0 -657.0 252.0 -622.0 393.0 -587.0L391.0 -559.0C242.0 -595.0 92.0 -631.0 -6.0 -653.0ZM341.0 -125.0C277.0 -161.0 153.0 -198.0 48.0 -224.0C52.0 -231.0 57.0 -241.0 60.0 -248.0C167.0 -222.0 292.0 -186.0 370.0 -147.0Z"/></g>
<g fill="green" transform="translate(400 100) scale(0.1 -0.1)"><path d="M0.0 0.0V-129.0H437.0V0.0ZM187.0 60.0V-165.0H331.0V60.0ZM465.0 -2.0V-131.0H898.0V-2.0ZM-8.0 -684.0 19.0 -829.0C135.0 -799.0 284.0 -761.0 423.0 -722.0L408.0 -595.0C257.0 -630.0 96.0 -665.0 -8.0 -684.0ZM325.0 -165.0C249.0 -200.0 137.0 -236.0 33.0 -259.0C49.0 -290.0 70.0 -343.0 77.0 -375.0C190.0 -355.0 322.0 -325.0 433.0 -284.0Z"/></g>
<g fill="red" transform="translate(100 200) scale(0.1 -0.1)"><path d="M0.0 0.0V-29.0H410.0V0.0ZM243.0 92.0V-116.0H272.0V92.0ZM452.0 0.0V-29.0H862.0V0.0ZM-6.0 -653.0 1.0 -683.0C104.0 -657.0 252.0 -622.0 393.0 -587.0L391.0 -559.0C242.0 -595.0 92.0 -631.0 -6.0 -653.0ZM341.0 -125.0C277.0 -161.0 153.0 -198.0 48.0 -224.0C52.0 -231.0 57.0 -241.0 60.0 -248.0C167.0 -222.0 292.0 -186.0 370.0 -147.0Z"/></g>
<g fill="black" opacity=".8" transform="translate(100 200) scale(0.1 -0.1)"><path d="M0.0 0.0V-29.0H410.0V0.0ZM243.0 92.0V-116.0H272.0V92.0ZM452.0 0.0V-29.0H862.0V0.0ZM-6.0 -653.0 1.0 -683.0C104.0 -657.0 252.0 -622.0 393.0 -587.0L391.0 -559.0C242.0 -595.0 92.0 -631.0 -6.0 -653.0ZM341.0 -125.0C277.0 -161.0 153.0 -198.0 48.0 -224.0C52.0 -231.0 57.0 -241.0 60.0 -248.0C167.0 -222.0 292.0 -186.0 370.0 -147.0Z"/></g>
<g fill="red" transform="translate(200 200) scale(0.1 -0.1)"><path d="M0.0 0.0V-129.0H437.0V0.0ZM187.0 60.0V-165.0H331.0V60.0ZM465.0 -2.0V-131.0H898.0V-2.0ZM-8.0 -684.0 19.0 -829.0C135.0 -799.0 284.0 -761.0 423.0 -722.0L408.0 -595.0C257.0 -630.0 96.0 -665.0 -8.0 -684.0ZM325.0 -165.0C249.0 -200.0 137.0 -236.0 33.0 -259.0C49.0 -290.0 70.0 -343.0 77.0 -375.0C190.0 -355.0 322.0 -325.0 433.0 -284.0Z"/></g>
<g fill="black" opacity=".8" transform="translate(200 200) scale(0.1 -0.1)"><path d="M0.0 0.0V-129.0H437.0V0.0ZM187.0 60.0V-165.0H331.0V60.0ZM465.0 -2.0V-131.0H898.0V-2.0ZM-8.0 -684.0 19.0 -829.0C135.0 -799.0 284.0 -761.0 423.0 -722.0L408.0 -595.0C257.0 -630.0 96.0 -665.0 -8.0 -684.0ZM325.0 -165.0C249.0 -200.0 137.0 -236.0 33.0 -259.0C49.0 -290.0 70.0 -343.0 77.0 -375.0C190.0 -355.0 322.0 -325.0 433.0 -284.0Z"/></g>
</svg>
