<?xml version="1.0" encoding="UTF-8"?>
<svg width="1700" height="300" xmlns="http://www.w3.org/2000/svg">
<rect width="100%" height="100%" fill="white"/>
<g fill="green" transform="translate(100 100) scale(0.1 -0.1)"><path d="M0.0 0.0V-132.0H29.0V-30.0H326.0V-132.0H356.0V0.0ZM160.0 152.0V-16.0H189.0V123.0H298.0V152.0ZM674.0 310.0V208.0H704.0V310.0ZM86.0 -442.0 107.0 -470.0C165.0 -438.0 234.0 -397.0 302.0 -357.0L293.0 -332.0C216.0 -375.0 139.0 -417.0 86.0 -442.0ZM736.0 -409.0C724.0 -447.0 700.0 -508.0 681.0 -544.0L704.0 -553.0C724.0 -518.0 747.0 -464.0 765.0 -419.0Z"/></g>
<g fill="green" transform="translate(200 100) scale(0.1 -0.1)"><path d="M0.0 0.0V-164.0H102.0V-95.0H314.0V-164.0H421.0V0.0ZM172.0 162.0V-30.0H242.0V84.0H342.0V162.0ZM682.0 318.0V178.0H794.0V318.0ZM142.0 -401.0 183.0 -494.0C231.0 -463.0 279.0 -430.0 331.0 -396.0L311.0 -328.0C247.0 -357.0 187.0 -385.0 142.0 -401.0ZM738.0 -422.0C729.0 -457.0 710.0 -506.0 694.0 -541.0L786.0 -573.0C807.0 -545.0 836.0 -501.0 867.0 -457.0Z"/></g>
<g fill="green" transform="translate(300 100) scale(0.1 -0.1)"><path d="M0.0 0.0V-132.0H29.0V-30.0H326.0V-132.0H356.0V0.0ZM160.0 152.0V-16.0H189.0V123.0H298.0V152.0ZM674.0 310.0V208.0H704.0V310.0ZM86.0 -442.0 107.0 -470.0C165.0 -438.0 234.0 -397.0 302.0 -357.0L293.0 -332.0C216.0 -375.0 139.0 -417.0 86.0 -442.0ZM736.0 -409.0C724.0 -447.0 700.0 -508.0 681.0 -544.0L704.0 -553.0C724.0 -518.0 747.0 -464.0 765.0 -419.0Z"/></g>
<g fill="green" transform="translate(400 100) scale(0.1 -0.1)"><path d="M0.0 0.0V-164.0H102.0V-95.0H314.0V-164.0H421.0V0.0ZM172.0 162.0V-30.0H242.0V84.0H342.0V162.0ZM682.0 318.0V178.0H794.0V318.0ZM142.0 -401.0 183.0 -494.0C231.0 -463.0 279.0 -430.0 331.0 -396.0L311.0 -328.0C247.0 -357.0 187.0 -385.0 142.0 -401.0ZM738.0 -422.0C729.0 -457.0 710.0 -506.0 694.0 -541.0L786.0 -573.0C807.0 -545.0 836.0 -501.0 867.0 -457.0Z"/></g>
<g fill="red" transform="translate(100 200) scale(0.1 -0.1)"><path d="M0.0 0.0V-132.0H29.0V-30.0H326.0V-132.0H356.0V0.0ZM160.0 152.0V-16.0H189.0V123.0H298.0V152.0ZM674.0 310.0V208.0H704.0V310.0ZM86.0 -442.0 107.0 -470.0C165.0 -438.0 234.0 -397.0 302.0 -357.0L293.0 -332.0C216.0 -375.0 139.0 -417.0 86.0 -442.0ZM736.0 -409.0C724.0 -447.0 700.0 -508.0 681.0 -544.0L704.0 -553.0C724.0 -518.0 747.0 -464.0 765.0 -419.0Z"/></g>
<g fill="black" opacity=".8" transform="translate(100 200) scale(0.1 -0.1)"><path d="M0.0 0.0V-132.0H29.0V-30.0H326.0V-132.0H356.0V0.0ZM160.0 152.0V-16.0H189.0V123.0H298.0V152.0ZM674.0 310.0V208.0H704.0V310.0ZM86.0 -442.0 107.0 -470.0C165.0 -438.0 234.0 -397.0 302.0 -357.0L293.0 -332.0C216.0 -375.0 139.0 -417.0 86.0 -442.0ZM736.0 -409.0C724.0 -447.0 700.0 -508.0 681.0 -544.0L704.0 -553.0C724.0 -518.0 747.0 -464.0 765.0 -419.0Z"/></g>
<g fill="red" transform="translate(200 200) scale(0.1 -0.1)"><path d="M0.0 0.0V-164.0H102.0V-95.0H314.0V-164.0H421.0V0.0ZM172.0 162.0V-30.0H242.0V84.0H342.0V162.0ZM682.0 318.0V178.0H794.0V318.0ZM142.0 -401.0 183.0 -494.0C231.0 -463.0 279.0 -430.0 331.0 -396.0L311.0 -328.0C247.0 -357.0 187.0 -385.0 142.0 -401.0ZM738.0 -422.0C729.0 -457.0 710.0 -506.0 694.0 -541.0L786.0 -573.0C807.0 -545.0 836.0 -501.0 867.0 -457.0Z"/></g>
<g fill="black" opacity=".8" transform="translate(200 200) scale(0.1 -0.1)"><path d="M0.0 0.0V-164.0H102.0V-95.0H314.0V-164.0H421.0V0.0ZM172.0 162.0V-30.0H242.0V84.0H342.0V162.0ZM682.0 318.0V178.0H794.0V318.0ZM142.0 -401.0 183.0 -494.0C231.0 -463.0 279.0 -430.0 331.0 -396.0L311.0 -328.0C247.0 -357.0 187.0 -385.0 142.0 -401.0ZM738.0 -422.0C729.0 -457.0 710.0 -506.0 694.0 -541.0L786.0 -573.0C807.0 -545.0 836.0 -501.0 867.0 -457.0Z"/></g>
</svg>
