<?xml version="1.0" encoding="UTF-8"?>
<svg width="1700" height="1800" xmlns="http://www.w3.org/2000/svg">
<rect width="100%" height="100%" fill="white"/>
<g fill="green" transform="translate(100 100) scale(0.1 -0.1)"><path d="M0.0 0.0V-123.0H-42.0V-224.0H-58.0V-126.0H-29.0V0.0Z"/></g>
<g fill="green" transform="translate(200 100) scale(0.1 -0.1)"><path d="M0.0 0.0V47.0H-112.0V-193.0H-24.0V37.0H-75.0V0.0Z"/></g>
<g fill="green" transform="translate(300 100) scale(0.1 -0.1)"><path d="M0.0 0.0V-433.0H-41.0V-918.0H-22.0V-435.0H6.0V0.0Z"/></g>
<g fill="green" transform="translate(400 100) scale(0.1 -0.1)"><path d="M0.0 0.0V-250.0H-120.0V-890.0H105.0V-260.0H44.0V0.0Z"/></g>
<g fill="green" transform="translate(500 100) scale(0.1 -0.1)"><path d="M0.0 0.0V-473.0H136.0V88.0H190.0V-462.0H94.0V0.0Z"/></g>
<g fill="green" transform="translate(600 100) scale(0.1 -0.1)"><path d="M0.0 0.0V-316.0H118.0V166.0H156.0V-282.0H73.0V0.0Z"/></g>
<g fill="green" transform="translate(700 100) scale(0.1 -0.1)"><path d="M0.0 0.0V23.0H233.0V-253.0H169.0V40.0H-46.0V0.0Z"/></g>
<g fill="green" transform="translate(800 100) scale(0.1 -0.1)"><path d="M0.0 0.0V115.0H207.0V-324.0H202.0V172.0H17.0V0.0Z"/></g>
<g fill="green" transform="translate(900 100) scale(0.1 -0.1)"><path d="M0.0 0.0V-22.0H-146.0V-143.0H-54.0V-32.0H89.0V0.0Z"/></g>
<g fill="green" transform="translate(1000 100) scale(0.1 -0.1)"><path d="M0.0 0.0V-6.0H-193.0V-252.0H49.0V-41.0H109.0V0.0Z"/></g>
<g fill="green" transform="translate(1100 100) scale(0.1 -0.1)"><path d="M0.0 0.0V-80.0H-33.0V-191.0H-73.0V-83.0H-53.0V0.0Z"/></g>
<g fill="green" transform="translate(1200 100) scale(0.1 -0.1)"><path d="M0.0 0.0V-21.0H-53.0V-232.0H-107.0V-29.0H-116.0V0.0Z"/></g>
<g fill="green" transform="translate(1300 100) scale(0.1 -0.1)"><path d="M0.0 0.0V-99.0H-41.0V-276.0H-80.0V-103.0H-66.0V0.0Z"/></g>
<g fill="green" transform="translate(1400 100) scale(0.1 -0.1)"><path d="M0.0 0.0V24.0H-111.0V-139.0H1.0V13.0H-61.0V0.0Z"/></g>
<g fill="green" transform="translate(1500 100) scale(0.1 -0.1)"><path d="M0.0 0.0V-123.0H-54.0V-247.0H-48.0V-126.0H-1.0V0.0Z"/></g>
<g fill="green" transform="translate(1600 100) scale(0.1 -0.1)"><path d="M0.0 0.0V55.0H-90.0V-177.0H-55.0V42.0H-58.0V0.0Z"/></g>
<g fill="red" transform="translate(100 200) scale(0.1 -0.1)"><path d="M0.0 0.0V-304.0V-636.0H29.0V-304.0V0.0Z"/></g>
<g fill="black" opacity=".8" transform="translate(100 200) scale(0.1 -0.1)"><path d="M0.0 0.0V-302.0H2.0V-639.0H37.0V-302.0H35.0V0.0Z"/></g>
<g fill="red" transform="translate(200 200) scale(0.1 -0.1)"><path d="M0.0 0.0V-300.0H-8.0V-672.0H135.0V-300.0H127.0V0.0Z"/></g>
<g fill="black" opacity=".8" transform="translate(200 200) scale(0.1 -0.1)"><path d="M0.0 0.0V-302.0H-14.0V-670.0H136.0V-302.0H119.0V0.0Z"/></g>
<g fill="red" transform="translate(300 200) scale(0.1 -0.1)"><path d="M0.0 0.0V-304.0V-643.0H30.0V-304.0V0.0Z"/></g>
<g fill="black" opacity=".8" transform="translate(300 200) scale(0.1 -0.1)"><path d="M0.0 0.0V-302.0H2.0V-647.0H38.0V-301.0H37.0V0.0Z"/></g>
<g fill="red" transform="translate(400 200) scale(0.1 -0.1)"><path d="M0.0 0.0V-271.0H-6.0V-646.0H129.0V-271.0H123.0V0.0Z"/></g>
<g fill="black" opacity=".8" transform="translate(400 200) scale(0.1 -0.1)"><path d="M0.0 0.0V-274.0H-13.0V-644.0H130.0V-274.0H114.0V0.0Z"/></g>
<g fill="red" transform="translate(500 200) scale(0.1 -0.1)"><path d="M0.0 0.0V-182.0V-528.0H29.0V-182.0V0.0Z"/></g>
<g fill="black" opacity=".8" transform="translate(500 200) scale(0.1 -0.1)"><path d="M0.0 0.0V-185.0H-3.0V-525.0H22.0V-185.0H23.0V0.0Z"/></g>
<g fill="red" transform="translate(600 200) scale(0.1 -0.1)"><path d="M0.0 0.0V-186.0H-18.0V-539.0H105.0V-186.0H87.0V0.0Z"/></g>
<g fill="black" opacity=".8" transform="translate(600 200) scale(0.1 -0.1)"><path d="M0.0 0.0V-184.0H-13.0V-541.0H104.0V-185.0H95.0V0.0Z"/></g>
<g fill="red" transform="translate(700 200) scale(0.1 -0.1)"><path d="M0.0 0.0V-309.0V-900.0H29.0V-309.0V0.0Z"/></g>
<g fill="black" opacity=".8" transform="translate(700 200) scale(0.1 -0.1)"><path d="M0.0 0.0V-308.0H1.0V-903.0H34.0V-307.0H33.0V0.0Z"/></g>
<g fill="red" transform="translate(800 200) scale(0.1 -0.1)"><path d="M0.0 0.0V-310.0H13.0V-951.0H121.0V-310.0H133.0V0.0Z"/></g>
<g fill="black" opacity=".8" transform="translate(800 200) scale(0.1 -0.1)"><path d="M0.0 0.0V-312.0H9.0V-949.0H121.0V-312.0H127.0V0.0Z"/></g>
<g fill="red" transform="translate(900 200) scale(0.1 -0.1)"><path d="M0.0 0.0V-182.0V-528.0H30.0V-182.0V0.0Z"/></g>
<g fill="black" opacity=".8" transform="translate(900 200) scale(0.1 -0.1)"><path d="M0.0 0.0V-185.0H-3.0V-525.0H23.0V-185.0H24.0V0.0Z"/></g>
<g fill="red" transform="translate(1000 200) scale(0.1 -0.1)"><path d="M0.0 0.0V-186.0H-13.0V-539.0H99.0V-186.0H86.0V0.0Z"/></g>
<g fill="black" opacity=".8" transform="translate(1000 200) scale(0.1 -0.1)"><path d="M0.0 0.0V-184.0H-8.0V-541.0H98.0V-185.0H93.0V0.0Z"/></g>
<g fill="red" transform="translate(1100 200) scale(0.1 -0.1)"><path d="M0.0 0.0V-205.0V-416.0H30.0V-205.0V0.0Z"/></g>
<g fill="black" opacity=".8" transform="translate(1100 200) scale(0.1 -0.1)"><path d="M0.0 0.0V-205.0H1.0V-417.0H31.0V-205.0V0.0Z"/></g>
<g fill="red" transform="translate(1200 200) scale(0.1 -0.1)"><path d="M0.0 0.0V-183.0H-10.0V-392.0H105.0V-183.0H94.0V0.0Z"/></g>
<g fill="black" opacity=".8" transform="translate(1200 200) scale(0.1 -0.1)"><path d="M0.0 0.0V-183.0H-12.0V-392.0H105.0V-184.0H93.0V0.0Z"/></g>
<g fill="red" transform="translate(1300 200) scale(0.1 -0.1)"><path d="M0.0 0.0V-190.0V-379.0H30.0V-190.0V0.0Z"/></g>
<g fill="black" opacity=".8" transform="translate(1300 200) scale(0.1 -0.1)"><path d="M0.0 0.0V-190.0H1.0V-380.0H32.0V-190.0V0.0Z"/></g>
<g fill="red" transform="translate(1400 200) scale(0.1 -0.1)"><path d="M0.0 0.0V-180.0H-10.0V-379.0H105.0V-180.0H94.0V0.0Z"/></g>
<g fill="black" opacity=".8" transform="translate(1400 200) scale(0.1 -0.1)"><path d="M0.0 0.0V-181.0H-12.0V-378.0H105.0V-181.0H92.0V0.0Z"/></g>
<g fill="red" transform="translate(1500 200) scale(0.1 -0.1)"><path d="M0.0 0.0V-180.0V-389.0H30.0V-180.0V0.0Z"/></g>
<g fill="black" opacity=".8" transform="translate(1500 200) scale(0.1 -0.1)"><path d="M0.0 0.0V-175.0H5.0V-396.0H46.0V-174.0H44.0V0.0Z"/></g>
<g fill="red" transform="translate(1600 200) scale(0.1 -0.1)"><path d="M0.0 0.0V-102.0H9.0V-327.0H110.0V-102.0H120.0V0.0Z"/></g>
<g fill="black" opacity=".8" transform="translate(1600 200) scale(0.1 -0.1)"><path d="M0.0 0.0V-107.0H-5.0V-323.0H112.0V-106.0H102.0V0.0Z"/></g>
<g fill="red" transform="translate(100 300) scale(0.1 -0.1)"><path d="M0.0 0.0V-309.0V-900.0H29.0V-309.0V0.0Z"/></g>
<g fill="black" opacity=".8" transform="translate(100 300) scale(0.1 -0.1)"><path d="M0.0 0.0V-309.0V-902.0H33.0V-308.0H32.0V0.0Z"/></g>
<g fill="red" transform="translate(200 300) scale(0.1 -0.1)"><path d="M0.0 0.0V-310.0H12.0V-951.0H116.0V-310.0H127.0V0.0Z"/></g>
<g fill="black" opacity=".8" transform="translate(200 300) scale(0.1 -0.1)"><path d="M0.0 0.0V-311.0H9.0V-950.0H116.0V-312.0H123.0V0.0Z"/></g>
<g fill="red" transform="translate(300 300) scale(0.1 -0.1)"><path d="M0.0 0.0V-262.0V-544.0H30.0V-262.0V0.0Z"/></g>
<g fill="black" opacity=".8" transform="translate(300 300) scale(0.1 -0.1)"><path d="M0.0 0.0V-259.0H3.0V-549.0H40.0V-259.0H39.0V0.0Z"/></g>
<g fill="red" transform="translate(400 300) scale(0.1 -0.1)"><path d="M0.0 0.0V-300.0H11.0V-587.0H127.0V-300.0H140.0V0.0Z"/></g>
<g fill="black" opacity=".8" transform="translate(400 300) scale(0.1 -0.1)"><path d="M0.0 0.0V-303.0H3.0V-584.0H128.0V-303.0V0.0Z"/></g>
<g fill="red" transform="translate(500 300) scale(0.1 -0.1)"><path d="M0.0 0.0V-265.0V-575.0H29.0V-265.0V0.0Z"/></g>
<g fill="black" opacity=".8" transform="translate(500 300) scale(0.1 -0.1)"><path d="M0.0 0.0V-263.0H3.0V-579.0H36.0V-263.0H35.0V0.0Z"/></g>
<g fill="red" transform="translate(600 300) scale(0.1 -0.1)"><path d="M0.0 0.0V-313.0H28.0V-610.0H95.0V-313.0H122.0V0.0Z"/></g>
<g fill="black" opacity=".8" transform="translate(600 300) scale(0.1 -0.1)"><path d="M0.0 0.0V-316.0H21.0V-608.0H95.0V-316.0H114.0V0.0Z"/></g>
<g fill="red" transform="translate(700 300) scale(0.1 -0.1)"><path d="M0.0 0.0V-304.0V-636.0H30.0V-304.0V0.0Z"/></g>
<g fill="black" opacity=".8" transform="translate(700 300) scale(0.1 -0.1)"><path d="M0.0 0.0V-302.0H2.0V-639.0H37.0V-302.0H36.0V0.0Z"/></g>
<g fill="red" transform="translate(800 300) scale(0.1 -0.1)"><path d="M0.0 0.0V-300.0H-8.0V-672.0H135.0V-300.0H127.0V0.0Z"/></g>
<g fill="black" opacity=".8" transform="translate(800 300) scale(0.1 -0.1)"><path d="M0.0 0.0V-302.0H-14.0V-670.0H136.0V-302.0H119.0V0.0Z"/></g>
<g fill="red" transform="translate(900 300) scale(0.1 -0.1)"><path d="M0.0 0.0V-263.0V-626.0H30.0V-263.0V0.0Z"/></g>
<g fill="black" opacity=".8" transform="translate(900 300) scale(0.1 -0.1)"><path d="M0.0 0.0V-262.0V-628.0H34.0V-262.0H33.0V0.0Z"/></g>
<g fill="red" transform="translate(1000 300) scale(0.1 -0.1)"><path d="M0.0 0.0V-248.0H-10.0V-639.0H128.0V-248.0H118.0V0.0Z"/></g>
<g fill="black" opacity=".8" transform="translate(1000 300) scale(0.1 -0.1)"><path d="M0.0 0.0V-249.0H-13.0V-638.0H128.0V-249.0H114.0V0.0Z"/></g>
<g fill="red" transform="translate(1100 300) scale(0.1 -0.1)"><path d="M0.0 0.0V-304.0V-643.0H30.0V-304.0V0.0Z"/></g>
<g fill="black" opacity=".8" transform="translate(1100 300) scale(0.1 -0.1)"><path d="M0.0 0.0V-307.0H-3.0V-640.0H23.0V-307.0V0.0Z"/></g>
<g fill="red" transform="translate(1200 300) scale(0.1 -0.1)"><path d="M0.0 0.0V-310.0H-18.0V-656.0H103.0V-310.0H86.0V0.0Z"/></g>
<g fill="black" opacity=".8" transform="translate(1200 300) scale(0.1 -0.1)"><path d="M0.0 0.0V-308.0H-12.0V-658.0H102.0V-309.0H94.0V0.0Z"/></g>
<g fill="red" transform="translate(1300 300) scale(0.1 -0.1)"><path d="M0.0 0.0V-265.0V-575.0H29.0V-265.0V0.0Z"/></g>
<g fill="black" opacity=".8" transform="translate(1300 300) scale(0.1 -0.1)"><path d="M0.0 0.0V-266.0H-1.0V-575.0H29.0V-266.0H28.0V0.0Z"/></g>
<g fill="red" transform="translate(1400 300) scale(0.1 -0.1)"><path d="M0.0 0.0V-313.0H21.0V-552.0H89.0V-313.0H110.0V0.0Z"/></g>
<g fill="black" opacity=".8" transform="translate(1400 300) scale(0.1 -0.1)"><path d="M0.0 0.0V-313.0H21.0V-552.0H89.0V-314.0H110.0V0.0Z"/></g>
<g fill="red" transform="translate(1500 300) scale(0.1 -0.1)"><path d="M0.0 0.0V-304.0V-643.0H29.0V-304.0V0.0Z"/></g>
<g fill="black" opacity=".8" transform="translate(1500 300) scale(0.1 -0.1)"><path d="M0.0 0.0V-304.0V-644.0H31.0V-303.0V0.0Z"/></g>
<g fill="red" transform="translate(1600 300) scale(0.1 -0.1)"><path d="M0.0 0.0V-271.0H-15.0V-646.0H119.0V-271.0H104.0V0.0Z"/></g>
<g fill="black" opacity=".8" transform="translate(1600 300) scale(0.1 -0.1)"><path d="M0.0 0.0V-272.0H-17.0V-645.0H119.0V-272.0H101.0V0.0Z"/></g>
<g fill="red" transform="translate(100 400) scale(0.1 -0.1)"><path d="M0.0 0.0V-263.0V-626.0H30.0V-263.0V0.0Z"/></g>
<g fill="black" opacity=".8" transform="translate(100 400) scale(0.1 -0.1)"><path d="M0.0 0.0V-262.0V-628.0H34.0V-262.0H33.0V0.0Z"/></g>
<g fill="red" transform="translate(200 400) scale(0.1 -0.1)"><path d="M0.0 0.0V-248.0H-10.0V-639.0H129.0V-248.0H120.0V0.0Z"/></g>
<g fill="black" opacity=".8" transform="translate(200 400) scale(0.1 -0.1)"><path d="M0.0 0.0V-249.0H-13.0V-638.0H129.0V-250.0H115.0V0.0Z"/></g>
<g fill="red" transform="translate(300 400) scale(0.1 -0.1)"><path d="M0.0 0.0V-265.0V-575.0H30.0V-265.0V0.0Z"/></g>
<g fill="black" opacity=".8" transform="translate(300 400) scale(0.1 -0.1)"><path d="M0.0 0.0V-265.0V-576.0H32.0V-265.0V0.0Z"/></g>
<g fill="red" transform="translate(400 400) scale(0.1 -0.1)"><path d="M0.0 0.0V-313.0H27.0V-552.0H89.0V-313.0H117.0V0.0Z"/></g>
<g fill="black" opacity=".8" transform="translate(400 400) scale(0.1 -0.1)"><path d="M0.0 0.0V-314.0H25.0V-551.0H89.0V-315.0H114.0V0.0Z"/></g>
<g fill="red" transform="translate(500 400) scale(0.1 -0.1)"><path d="M0.0 0.0V-309.0V-900.0H30.0V-309.0V0.0Z"/></g>
<g fill="black" opacity=".8" transform="translate(500 400) scale(0.1 -0.1)"><path d="M0.0 0.0V-308.0H1.0V-902.0H35.0V-307.0H34.0V0.0Z"/></g>
<g fill="red" transform="translate(600 400) scale(0.1 -0.1)"><path d="M0.0 0.0V-310.0H13.0V-951.0H121.0V-310.0H133.0V0.0Z"/></g>
<g fill="black" opacity=".8" transform="translate(600 400) scale(0.1 -0.1)"><path d="M0.0 0.0V-312.0H9.0V-949.0H121.0V-312.0H128.0V0.0Z"/></g>
<g fill="red" transform="translate(700 400) scale(0.1 -0.1)"><path d="M0.0 0.0V-265.0V-575.0H29.0V-265.0V0.0Z"/></g>
<g fill="black" opacity=".8" transform="translate(700 400) scale(0.1 -0.1)"><path d="M0.0 0.0V-266.0H-1.0V-575.0H28.0V-266.0V0.0Z"/></g>
<g fill="red" transform="translate(800 400) scale(0.1 -0.1)"><path d="M0.0 0.0V-313.0H17.0V-552.0H93.0V-313.0H110.0V0.0Z"/></g>
<g fill="black" opacity=".8" transform="translate(800 400) scale(0.1 -0.1)"><path d="M0.0 0.0V-312.0H17.0V-552.0H93.0V-314.0H111.0V0.0Z"/></g>
<g fill="red" transform="translate(900 400) scale(0.1 -0.1)"><path d="M0.0 0.0V-256.0V-623.0H30.0V-256.0V0.0Z"/></g>
<g fill="black" opacity=".8" transform="translate(900 400) scale(0.1 -0.1)"><path d="M0.0 0.0V-253.0H2.0V-628.0H41.0V-252.0H38.0V0.0Z"/></g>
<g fill="red" transform="translate(1000 400) scale(0.1 -0.1)"><path d="M0.0 0.0V-206.0H8.0V-565.0H124.0V-206.0H132.0V0.0Z"/></g>
<g fill="black" opacity=".8" transform="translate(1000 400) scale(0.1 -0.1)"><path d="M0.0 0.0V-209.0H-1.0V-562.0H125.0V-209.0H121.0V0.0Z"/></g>
<g fill="red" transform="translate(1100 400) scale(0.1 -0.1)"><path d="M0.0 0.0V-189.0V-511.0H29.0V-189.0V0.0Z"/></g>
<g fill="black" opacity=".8" transform="translate(1100 400) scale(0.1 -0.1)"><path d="M0.0 0.0V-189.0V-512.0H32.0V-189.0H30.0V0.0Z"/></g>
<g fill="red" transform="translate(1200 400) scale(0.1 -0.1)"><path d="M0.0 0.0V-206.0H-12.0V-542.0H133.0V-206.0H121.0V0.0Z"/></g>
<g fill="black" opacity=".8" transform="translate(1200 400) scale(0.1 -0.1)"><path d="M0.0 0.0V-207.0H-14.0V-541.0H133.0V-207.0H119.0V0.0Z"/></g>
<g fill="red" transform="translate(1300 400) scale(0.1 -0.1)"><path d="M0.0 0.0V-236.0H392.0V0.0H363.0V-207.0H29.0V0.0Z"/></g>
<g fill="black" opacity=".8" transform="translate(1300 400) scale(0.1 -0.1)"><path d="M0.0 0.0V-237.0H391.0V1.0H362.0V-208.0H27.0V0.0Z"/></g>
<g fill="red" transform="translate(1400 400) scale(0.1 -0.1)"><path d="M0.0 0.0V-257.0H449.0V0.0H313.0V-162.0H130.0V0.0Z"/></g>
<g fill="black" opacity=".8" transform="translate(1400 400) scale(0.1 -0.1)"><path d="M0.0 0.0V-257.0H450.0V-1.0H313.0V-162.0H131.0V0.0Z"/></g>
<g fill="red" transform="translate(1500 400) scale(0.1 -0.1)"><path d="M0.0 0.0V-166.0V-396.0H29.0V-166.0V0.0Z"/></g>
<g fill="black" opacity=".8" transform="translate(1500 400) scale(0.1 -0.1)"><path d="M0.0 0.0V-164.0H2.0V-399.0H36.0V-164.0H34.0V0.0Z"/></g>
<g fill="red" transform="translate(1600 400) scale(0.1 -0.1)"><path d="M0.0 0.0V-199.0H7.0V-383.0H125.0V-199.0H131.0V0.0Z"/></g>
<g fill="black" opacity=".8" transform="translate(1600 400) scale(0.1 -0.1)"><path d="M0.0 0.0V-201.0H1.0V-381.0H125.0V-201.0H124.0V0.0Z"/></g>
<g fill="red" transform="translate(100 500) scale(0.1 -0.1)"><path d="M0.0 0.0V-303.0V-572.0H29.0V-303.0V0.0Z"/></g>
<g fill="black" opacity=".8" transform="translate(100 500) scale(0.1 -0.1)"><path d="M0.0 0.0V-304.0H-1.0V-572.0H28.0V-304.0H27.0V0.0Z"/></g>
<g fill="red" transform="translate(200 500) scale(0.1 -0.1)"><path d="M0.0 0.0V-281.0H-15.0V-539.0H108.0V-281.0H93.0V0.0Z"/></g>
<g fill="black" opacity=".8" transform="translate(200 500) scale(0.1 -0.1)"><path d="M0.0 0.0V-280.0H-14.0V-539.0H108.0V-281.0H95.0V0.0Z"/></g>
<g fill="red" transform="translate(300 500) scale(0.1 -0.1)"><path d="M0.0 0.0V-310.0V-554.0H29.0V-310.0V0.0Z"/></g>
<g fill="black" opacity=".8" transform="translate(300 500) scale(0.1 -0.1)"><path d="M0.0 0.0V-310.0V-555.0H31.0V-310.0H30.0V0.0Z"/></g>
<g fill="red" transform="translate(400 500) scale(0.1 -0.1)"><path d="M0.0 0.0V-281.0H-14.0V-539.0H110.0V-281.0H96.0V0.0Z"/></g>
<g fill="black" opacity=".8" transform="translate(400 500) scale(0.1 -0.1)"><path d="M0.0 0.0V-282.0H-16.0V-538.0H110.0V-282.0H94.0V0.0Z"/></g>
<g fill="red" transform="translate(500 500) scale(0.1 -0.1)"><path d="M0.0 0.0V-309.0V-582.0H29.0V-309.0V0.0Z"/></g>
<g fill="black" opacity=".8" transform="translate(500 500) scale(0.1 -0.1)"><path d="M0.0 0.0V-311.0H-2.0V-581.0H25.0V-311.0V0.0Z"/></g>
<g fill="red" transform="translate(600 500) scale(0.1 -0.1)"><path d="M0.0 0.0V-281.0H-10.0V-539.0H89.0V-281.0H79.0V0.0Z"/></g>
<g fill="black" opacity=".8" transform="translate(600 500) scale(0.1 -0.1)"><path d="M0.0 0.0V-280.0H-7.0V-540.0H88.0V-281.0H83.0V0.0Z"/></g>
<g fill="red" transform="translate(700 500) scale(0.1 -0.1)"><path d="M0.0 0.0V-313.0V-585.0H29.0V-313.0V0.0Z"/></g>
<g fill="black" opacity=".8" transform="translate(700 500) scale(0.1 -0.1)"><path d="M0.0 0.0V-314.0H-1.0V-585.0H29.0V-314.0H28.0V0.0Z"/></g>
<g fill="red" transform="translate(800 500) scale(0.1 -0.1)"><path d="M0.0 0.0V-281.0H-16.0V-539.0H111.0V-281.0H96.0V0.0Z"/></g>
<g fill="black" opacity=".8" transform="translate(800 500) scale(0.1 -0.1)"><path d="M0.0 0.0V-281.0H-15.0V-539.0H111.0V-282.0H97.0V0.0Z"/></g>
<g fill="red" transform="translate(900 500) scale(0.1 -0.1)"><path d="M0.0 0.0V-316.0V-588.0H29.0V-316.0V0.0Z"/></g>
<g fill="black" opacity=".8" transform="translate(900 500) scale(0.1 -0.1)"><path d="M0.0 0.0V-317.0H-1.0V-588.0H28.0V-317.0V0.0Z"/></g>
<g fill="red" transform="translate(1000 500) scale(0.1 -0.1)"><path d="M0.0 0.0V-281.0H-12.0V-539.0H102.0V-281.0H90.0V0.0Z"/></g>
<g fill="black" opacity=".8" transform="translate(1000 500) scale(0.1 -0.1)"><path d="M0.0 0.0V-281.0H-11.0V-539.0H102.0V-281.0H91.0V0.0Z"/></g>
<g fill="red" transform="translate(1100 500) scale(0.1 -0.1)"><path d="M0.0 0.0V-316.0V-588.0H29.0V-316.0V0.0Z"/></g>
<g fill="black" opacity=".8" transform="translate(1100 500) scale(0.1 -0.1)"><path d="M0.0 0.0V-317.0H-1.0V-588.0H28.0V-317.0V0.0Z"/></g>
<g fill="red" transform="translate(1200 500) scale(0.1 -0.1)"><path d="M0.0 0.0V-281.0H-12.0V-539.0H101.0V-281.0H90.0V0.0Z"/></g>
<g fill="black" opacity=".8" transform="translate(1200 500) scale(0.1 -0.1)"><path d="M0.0 0.0V-281.0H-11.0V-539.0H101.0V-282.0H91.0V0.0Z"/></g>
<g fill="red" transform="translate(1300 500) scale(0.1 -0.1)"><path d="M0.0 0.0V-313.0V-585.0H28.0V-313.0V0.0Z"/></g>
<g fill="black" opacity=".8" transform="translate(1300 500) scale(0.1 -0.1)"><path d="M0.0 0.0V-315.0H-2.0V-584.0H24.0V-315.0V0.0Z"/></g>
<g fill="red" transform="translate(1400 500) scale(0.1 -0.1)"><path d="M0.0 0.0V-281.0H-11.0V-539.0H86.0V-281.0H76.0V0.0Z"/></g>
<g fill="black" opacity=".8" transform="translate(1400 500) scale(0.1 -0.1)"><path d="M0.0 0.0V-280.0H-8.0V-540.0H86.0V-281.0H80.0V0.0Z"/></g>
<g fill="red" transform="translate(1500 500) scale(0.1 -0.1)"><path d="M0.0 0.0V-316.0V-588.0H28.0V-316.0V0.0Z"/></g>
<g fill="black" opacity=".8" transform="translate(1500 500) scale(0.1 -0.1)"><path d="M0.0 0.0V-317.0H-1.0V-588.0H28.0V-317.0H27.0V0.0Z"/></g>
<g fill="red" transform="translate(1600 500) scale(0.1 -0.1)"><path d="M0.0 0.0V-281.0H-15.0V-539.0H109.0V-281.0H94.0V0.0Z"/></g>
<g fill="black" opacity=".8" transform="translate(1600 500) scale(0.1 -0.1)"><path d="M0.0 0.0V-281.0H-15.0V-539.0H109.0V-282.0H94.0V0.0Z"/></g>
<g fill="red" transform="translate(100 600) scale(0.1 -0.1)"><path d="M0.0 0.0V-307.0V-579.0H30.0V-307.0V0.0Z"/></g>
<g fill="black" opacity=".8" transform="translate(100 600) scale(0.1 -0.1)"><path d="M0.0 0.0V-309.0H-2.0V-577.0H26.0V-309.0V0.0Z"/></g>
<g fill="red" transform="translate(200 600) scale(0.1 -0.1)"><path d="M0.0 0.0V-281.0H-12.0V-539.0H91.0V-281.0H80.0V0.0Z"/></g>
<g fill="black" opacity=".8" transform="translate(200 600) scale(0.1 -0.1)"><path d="M0.0 0.0V-280.0H-9.0V-540.0H91.0V-281.0H85.0V0.0Z"/></g>
<g fill="red" transform="translate(300 600) scale(0.1 -0.1)"><path d="M0.0 0.0V-316.0V-588.0H29.0V-316.0V0.0Z"/></g>
<g fill="black" opacity=".8" transform="translate(300 600) scale(0.1 -0.1)"><path d="M0.0 0.0V-317.0H-1.0V-587.0H27.0V-317.0V0.0Z"/></g>
<g fill="red" transform="translate(400 600) scale(0.1 -0.1)"><path d="M0.0 0.0V-281.0H-16.0V-539.0H105.0V-281.0H89.0V0.0Z"/></g>
<g fill="black" opacity=".8" transform="translate(400 600) scale(0.1 -0.1)"><path d="M0.0 0.0V-280.0H-15.0V-540.0H105.0V-281.0H91.0V0.0Z"/></g>
<g fill="red" transform="translate(500 600) scale(0.1 -0.1)"><path d="M0.0 0.0V-316.0V-588.0H29.0V-316.0V0.0Z"/></g>
<g fill="black" opacity=".8" transform="translate(500 600) scale(0.1 -0.1)"><path d="M0.0 0.0V-317.0H-1.0V-588.0H28.0V-317.0V0.0Z"/></g>
<g fill="red" transform="translate(600 600) scale(0.1 -0.1)"><path d="M0.0 0.0V-281.0H-13.0V-539.0H104.0V-281.0H91.0V0.0Z"/></g>
<g fill="black" opacity=".8" transform="translate(600 600) scale(0.1 -0.1)"><path d="M0.0 0.0V-281.0H-12.0V-539.0H104.0V-281.0H92.0V0.0Z"/></g>
<g fill="red" transform="translate(700 600) scale(0.1 -0.1)"><path d="M0.0 0.0V-284.0V-556.0H29.0V-284.0V0.0Z"/></g>
<g fill="black" opacity=".8" transform="translate(700 600) scale(0.1 -0.1)"><path d="M0.0 0.0V-286.0H-2.0V-555.0H26.0V-286.0V0.0Z"/></g>
<g fill="red" transform="translate(800 600) scale(0.1 -0.1)"><path d="M0.0 0.0V-281.0H-14.0V-539.0H104.0V-281.0H91.0V0.0Z"/></g>
<g fill="black" opacity=".8" transform="translate(800 600) scale(0.1 -0.1)"><path d="M0.0 0.0V-280.0H-11.0V-540.0H104.0V-281.0H95.0V0.0Z"/></g>
<g fill="red" transform="translate(900 600) scale(0.1 -0.1)"><path d="M0.0 0.0V-304.0V-557.0H29.0V-304.0V0.0Z"/></g>
<g fill="black" opacity=".8" transform="translate(900 600) scale(0.1 -0.1)"><path d="M0.0 0.0V-305.0H-1.0V-557.0H28.0V-305.0V0.0Z"/></g>
<g fill="red" transform="translate(1000 600) scale(0.1 -0.1)"><path d="M0.0 0.0V-281.0H-15.0V-539.0H104.0V-281.0H89.0V0.0Z"/></g>
<g fill="black" opacity=".8" transform="translate(1000 600) scale(0.1 -0.1)"><path d="M0.0 0.0V-281.0H-14.0V-539.0H104.0V-281.0H90.0V0.0Z"/></g>
<g fill="red" transform="translate(1100 600) scale(0.1 -0.1)"><path d="M0.0 0.0V-317.0V-585.0H29.0V-317.0V0.0Z"/></g>
<g fill="black" opacity=".8" transform="translate(1100 600) scale(0.1 -0.1)"><path d="M0.0 0.0V-318.0H-1.0V-585.0H27.0V-318.0V0.0Z"/></g>
<g fill="red" transform="translate(1200 600) scale(0.1 -0.1)"><path d="M0.0 0.0V-281.0H-10.0V-545.0H92.0V-281.0H82.0V0.0Z"/></g>
<g fill="black" opacity=".8" transform="translate(1200 600) scale(0.1 -0.1)"><path d="M0.0 0.0V-280.0H-9.0V-545.0H92.0V-281.0H84.0V0.0Z"/></g>
<g fill="red" transform="translate(1300 600) scale(0.1 -0.1)"><path d="M0.0 0.0V-432.0H29.0V-30.0H211.0V-428.0H241.0V0.0Z"/></g>
<g fill="black" opacity=".8" transform="translate(1300 600) scale(0.1 -0.1)"><path d="M0.0 0.0V-435.0H26.0V-27.0H205.0V-431.0H235.0V0.0Z"/></g>
<g fill="red" transform="translate(1400 600) scale(0.1 -0.1)"><path d="M0.0 0.0V-482.0H82.0V-90.0H193.0V-473.0H278.0V0.0Z"/></g>
<g fill="black" opacity=".8" transform="translate(1400 600) scale(0.1 -0.1)"><path d="M0.0 0.0V-480.0H86.0V-91.0H192.0V-472.0H284.0V0.0Z"/></g>
<g fill="red" transform="translate(1500 600) scale(0.1 -0.1)"><path d="M0.0 0.0V-281.0V-579.0H29.0V-281.0V0.0Z"/></g>
<g fill="black" opacity=".8" transform="translate(1500 600) scale(0.1 -0.1)"><path d="M0.0 0.0V-282.0H-1.0V-579.0H29.0V-282.0H28.0V0.0Z"/></g>
<g fill="red" transform="translate(1600 600) scale(0.1 -0.1)"><path d="M0.0 0.0V-261.0H-10.0V-539.0H111.0V-261.0H102.0V0.0Z"/></g>
<g fill="black" opacity=".8" transform="translate(1600 600) scale(0.1 -0.1)"><path d="M0.0 0.0V-261.0H-10.0V-539.0H111.0V-262.0H102.0V0.0Z"/></g>
<g fill="red" transform="translate(100 700) scale(0.1 -0.1)"><path d="M0.0 0.0V-262.0V-544.0H29.0V-262.0V0.0Z"/></g>
<g fill="black" opacity=".8" transform="translate(100 700) scale(0.1 -0.1)"><path d="M0.0 0.0V-259.0H3.0V-549.0H39.0V-259.0H38.0V0.0Z"/></g>
<g fill="red" transform="translate(200 700) scale(0.1 -0.1)"><path d="M0.0 0.0V-300.0H11.0V-587.0H125.0V-300.0H137.0V0.0Z"/></g>
<g fill="black" opacity=".8" transform="translate(200 700) scale(0.1 -0.1)"><path d="M0.0 0.0V-303.0H3.0V-584.0H126.0V-303.0V0.0Z"/></g>
<g fill="red" transform="translate(300 700) scale(0.1 -0.1)"><path d="M0.0 0.0V-189.0V-511.0H29.0V-189.0V0.0Z"/></g>
<g fill="black" opacity=".8" transform="translate(300 700) scale(0.1 -0.1)"><path d="M0.0 0.0V-188.0H1.0V-513.0H33.0V-188.0H31.0V0.0Z"/></g>
<g fill="red" transform="translate(400 700) scale(0.1 -0.1)"><path d="M0.0 0.0V-206.0H-6.0V-542.0H128.0V-206.0H121.0V0.0Z"/></g>
<g fill="black" opacity=".8" transform="translate(400 700) scale(0.1 -0.1)"><path d="M0.0 0.0V-207.0H-10.0V-541.0H128.0V-207.0H117.0V0.0Z"/></g>
<g fill="red" transform="translate(500 700) scale(0.1 -0.1)"><path d="M0.0 0.0V-281.0V-579.0H29.0V-281.0V0.0Z"/></g>
<g fill="black" opacity=".8" transform="translate(500 700) scale(0.1 -0.1)"><path d="M0.0 0.0V-282.0H-1.0V-579.0H29.0V-282.0H28.0V0.0Z"/></g>
<g fill="red" transform="translate(600 700) scale(0.1 -0.1)"><path d="M0.0 0.0V-274.0H-9.0V-552.0H112.0V-274.0H103.0V0.0Z"/></g>
<g fill="black" opacity=".8" transform="translate(600 700) scale(0.1 -0.1)"><path d="M0.0 0.0V-274.0H-9.0V-552.0H112.0V-275.0H104.0V0.0Z"/></g>
<g fill="red" transform="translate(700 700) scale(0.1 -0.1)"><path d="M0.0 0.0V-262.0V-544.0H30.0V-262.0V0.0Z"/></g>
<g fill="black" opacity=".8" transform="translate(700 700) scale(0.1 -0.1)"><path d="M0.0 0.0V-259.0H3.0V-548.0H40.0V-259.0H38.0V0.0Z"/></g>
<g fill="red" transform="translate(800 700) scale(0.1 -0.1)"><path d="M0.0 0.0V-300.0H11.0V-587.0H125.0V-300.0H137.0V0.0Z"/></g>
<g fill="black" opacity=".8" transform="translate(800 700) scale(0.1 -0.1)"><path d="M0.0 0.0V-303.0H3.0V-584.0H126.0V-303.0V0.0Z"/></g>
<g fill="red" transform="translate(900 700) scale(0.1 -0.1)"><path d="M0.0 0.0V-303.0V-642.0H30.0V-303.0V0.0Z"/></g>
<g fill="black" opacity=".8" transform="translate(900 700) scale(0.1 -0.1)"><path d="M0.0 0.0V-302.0H1.0V-644.0H34.0V-302.0H33.0V0.0Z"/></g>
<g fill="red" transform="translate(1000 700) scale(0.1 -0.1)"><path d="M0.0 0.0V-271.0H-13.0V-646.0H125.0V-271.0H112.0V0.0Z"/></g>
<g fill="black" opacity=".8" transform="translate(1000 700) scale(0.1 -0.1)"><path d="M0.0 0.0V-272.0H-16.0V-645.0H125.0V-273.0H108.0V0.0Z"/></g>
<g fill="red" transform="translate(1100 700) scale(0.1 -0.1)"><path d="M0.0 0.0V-303.0V-642.0H30.0V-303.0V0.0Z"/></g>
<g fill="black" opacity=".8" transform="translate(1100 700) scale(0.1 -0.1)"><path d="M0.0 0.0V-303.0V-643.0H32.0V-303.0H31.0V0.0Z"/></g>
<g fill="red" transform="translate(1200 700) scale(0.1 -0.1)"><path d="M0.0 0.0V-271.0H-14.0V-646.0H117.0V-271.0H103.0V0.0Z"/></g>
<g fill="black" opacity=".8" transform="translate(1200 700) scale(0.1 -0.1)"><path d="M0.0 0.0V-272.0H-16.0V-645.0H117.0V-272.0H101.0V0.0Z"/></g>
<g fill="red" transform="translate(1300 700) scale(0.1 -0.1)"><path d="M0.0 0.0V-303.0V-642.0H29.0V-303.0V0.0Z"/></g>
<g fill="black" opacity=".8" transform="translate(1300 700) scale(0.1 -0.1)"><path d="M0.0 0.0V-303.0V-643.0H31.0V-303.0H30.0V0.0Z"/></g>
<g fill="red" transform="translate(1400 700) scale(0.1 -0.1)"><path d="M0.0 0.0V-271.0H-16.0V-646.0H119.0V-271.0H103.0V0.0Z"/></g>
<g fill="black" opacity=".8" transform="translate(1400 700) scale(0.1 -0.1)"><path d="M0.0 0.0V-272.0H-18.0V-645.0H119.0V-272.0H101.0V0.0Z"/></g>
<g fill="red" transform="translate(1500 700) scale(0.1 -0.1)"><path d="M0.0 0.0V-303.0V-642.0H29.0V-303.0V0.0Z"/></g>
<g fill="black" opacity=".8" transform="translate(1500 700) scale(0.1 -0.1)"><path d="M0.0 0.0V-303.0V-643.0H31.0V-302.0V0.0Z"/></g>
<g fill="red" transform="translate(1600 700) scale(0.1 -0.1)"><path d="M0.0 0.0V-271.0H-14.0V-646.0H117.0V-271.0H103.0V0.0Z"/></g>
<g fill="black" opacity=".8" transform="translate(1600 700) scale(0.1 -0.1)"><path d="M0.0 0.0V-272.0H-16.0V-645.0H117.0V-272.0H101.0V0.0Z"/></g>
<g fill="red" transform="translate(100 800) scale(0.1 -0.1)"><path d="M0.0 0.0V-303.0V-642.0H29.0V-303.0V0.0Z"/></g>
<g fill="black" opacity=".8" transform="translate(100 800) scale(0.1 -0.1)"><path d="M0.0 0.0V-302.0V-644.0H33.0V-302.0H32.0V0.0Z"/></g>
<g fill="red" transform="translate(200 800) scale(0.1 -0.1)"><path d="M0.0 0.0V-271.0H-16.0V-646.0H125.0V-271.0H110.0V0.0Z"/></g>
<g fill="black" opacity=".8" transform="translate(200 800) scale(0.1 -0.1)"><path d="M0.0 0.0V-272.0H-19.0V-645.0H125.0V-272.0H106.0V0.0Z"/></g>
<g fill="red" transform="translate(300 800) scale(0.1 -0.1)"><path d="M0.0 0.0V-304.0V-643.0H30.0V-304.0V0.0Z"/></g>
<g fill="black" opacity=".8" transform="translate(300 800) scale(0.1 -0.1)"><path d="M0.0 0.0V-305.0H-1.0V-643.0H28.0V-305.0V0.0Z"/></g>
<g fill="red" transform="translate(400 800) scale(0.1 -0.1)"><path d="M0.0 0.0V-271.0H-18.0V-646.0H110.0V-271.0H92.0V0.0Z"/></g>
<g fill="black" opacity=".8" transform="translate(400 800) scale(0.1 -0.1)"><path d="M0.0 0.0V-271.0H-17.0V-646.0H110.0V-271.0H94.0V0.0Z"/></g>
<g fill="red" transform="translate(500 800) scale(0.1 -0.1)"><path d="M0.0 0.0V-303.0V-642.0H29.0V-303.0V0.0Z"/></g>
<g fill="black" opacity=".8" transform="translate(500 800) scale(0.1 -0.1)"><path d="M0.0 0.0V-303.0V-643.0H30.0V-303.0V0.0Z"/></g>
<g fill="red" transform="translate(600 800) scale(0.1 -0.1)"><path d="M0.0 0.0V-271.0H-11.0V-646.0H108.0V-271.0H97.0V0.0Z"/></g>
<g fill="black" opacity=".8" transform="translate(600 800) scale(0.1 -0.1)"><path d="M0.0 0.0V-272.0H-12.0V-645.0H108.0V-272.0H95.0V0.0Z"/></g>
<g fill="red" transform="translate(700 800) scale(0.1 -0.1)"><path d="M0.0 0.0V-304.0V-643.0H29.0V-304.0V0.0Z"/></g>
<g fill="black" opacity=".8" transform="translate(700 800) scale(0.1 -0.1)"><path d="M0.0 0.0V-304.0V-644.0H31.0V-304.0H30.0V0.0Z"/></g>
<g fill="red" transform="translate(800 800) scale(0.1 -0.1)"><path d="M0.0 0.0V-271.0H-15.0V-646.0H116.0V-271.0H101.0V0.0Z"/></g>
<g fill="black" opacity=".8" transform="translate(800 800) scale(0.1 -0.1)"><path d="M0.0 0.0V-272.0H-16.0V-645.0H116.0V-272.0H99.0V0.0Z"/></g>
<g fill="red" transform="translate(900 800) scale(0.1 -0.1)"><path d="M0.0 0.0V-303.0V-642.0H30.0V-303.0V0.0Z"/></g>
<g fill="black" opacity=".8" transform="translate(900 800) scale(0.1 -0.1)"><path d="M0.0 0.0V-303.0V-644.0H33.0V-302.0H32.0V0.0Z"/></g>
<g fill="red" transform="translate(1000 800) scale(0.1 -0.1)"><path d="M0.0 0.0V-271.0H-14.0V-646.0H123.0V-271.0H109.0V0.0Z"/></g>
<g fill="black" opacity=".8" transform="translate(1000 800) scale(0.1 -0.1)"><path d="M0.0 0.0V-272.0H-17.0V-645.0H123.0V-272.0H106.0V0.0Z"/></g>
<g fill="red" transform="translate(1100 800) scale(0.1 -0.1)"><path d="M0.0 0.0V-303.0V-642.0H30.0V-303.0V0.0Z"/></g>
<g fill="black" opacity=".8" transform="translate(1100 800) scale(0.1 -0.1)"><path d="M0.0 0.0V-303.0V-643.0H32.0V-303.0H31.0V0.0Z"/></g>
<g fill="red" transform="translate(1200 800) scale(0.1 -0.1)"><path d="M0.0 0.0V-271.0H-13.0V-646.0H115.0V-271.0H101.0V0.0Z"/></g>
<g fill="black" opacity=".8" transform="translate(1200 800) scale(0.1 -0.1)"><path d="M0.0 0.0V-272.0H-15.0V-645.0H115.0V-272.0H99.0V0.0Z"/></g>
<g fill="red" transform="translate(1300 800) scale(0.1 -0.1)"><path d="M0.0 0.0V-303.0V-642.0H30.0V-303.0V0.0Z"/></g>
<g fill="black" opacity=".8" transform="translate(1300 800) scale(0.1 -0.1)"><path d="M0.0 0.0V-304.0V-642.0H30.0V-303.0V0.0Z"/></g>
<g fill="red" transform="translate(1400 800) scale(0.1 -0.1)"><path d="M0.0 0.0V-271.0H-16.0V-646.0H115.0V-271.0H99.0V0.0Z"/></g>
<g fill="black" opacity=".8" transform="translate(1400 800) scale(0.1 -0.1)"><path d="M0.0 0.0V-271.0H-17.0V-646.0H115.0V-272.0H98.0V0.0Z"/></g>
<g fill="red" transform="translate(1500 800) scale(0.1 -0.1)"><path d="M0.0 0.0V-303.0V-642.0H29.0V-303.0V0.0Z"/></g>
<g fill="black" opacity=".8" transform="translate(1500 800) scale(0.1 -0.1)"><path d="M0.0 0.0V-303.0V-643.0H32.0V-302.0H31.0V0.0Z"/></g>
<g fill="red" transform="translate(1600 800) scale(0.1 -0.1)"><path d="M0.0 0.0V-271.0H-14.0V-646.0H118.0V-271.0H104.0V0.0Z"/></g>
<g fill="black" opacity=".8" transform="translate(1600 800) scale(0.1 -0.1)"><path d="M0.0 0.0V-272.0H-16.0V-645.0H118.0V-272.0H101.0V0.0Z"/></g>
<g fill="red" transform="translate(100 900) scale(0.1 -0.1)"><path d="M0.0 0.0V-303.0V-642.0H30.0V-303.0V0.0Z"/></g>
<g fill="black" opacity=".8" transform="translate(100 900) scale(0.1 -0.1)"><path d="M0.0 0.0V-303.0V-643.0H33.0V-302.0H32.0V0.0Z"/></g>
<g fill="red" transform="translate(200 900) scale(0.1 -0.1)"><path d="M0.0 0.0V-271.0H-15.0V-646.0H123.0V-271.0H108.0V0.0Z"/></g>
<g fill="black" opacity=".8" transform="translate(200 900) scale(0.1 -0.1)"><path d="M0.0 0.0V-272.0H-17.0V-645.0H123.0V-272.0H105.0V0.0Z"/></g>
<g fill="red" transform="translate(300 900) scale(0.1 -0.1)"><path d="M0.0 0.0V-303.0V-642.0H28.0V-303.0V0.0Z"/></g>
<g fill="black" opacity=".8" transform="translate(300 900) scale(0.1 -0.1)"><path d="M0.0 0.0V-303.0V-643.0H31.0V-302.0H29.0V0.0Z"/></g>
<g fill="red" transform="translate(400 900) scale(0.1 -0.1)"><path d="M0.0 0.0V-271.0H-13.0V-646.0H115.0V-271.0H101.0V0.0Z"/></g>
<g fill="black" opacity=".8" transform="translate(400 900) scale(0.1 -0.1)"><path d="M0.0 0.0V-272.0H-15.0V-645.0H115.0V-272.0H99.0V0.0Z"/></g>
<g fill="red" transform="translate(500 900) scale(0.1 -0.1)"><path d="M0.0 0.0V-304.0V-643.0H29.0V-304.0V0.0Z"/></g>
<g fill="black" opacity=".8" transform="translate(500 900) scale(0.1 -0.1)"><path d="M0.0 0.0V-305.0V-643.0H29.0V-304.0V0.0Z"/></g>
<g fill="red" transform="translate(600 900) scale(0.1 -0.1)"><path d="M0.0 0.0V-271.0H-16.0V-646.0H113.0V-271.0H96.0V0.0Z"/></g>
<g fill="black" opacity=".8" transform="translate(600 900) scale(0.1 -0.1)"><path d="M0.0 0.0V-271.0H-17.0V-646.0H113.0V-272.0H96.0V0.0Z"/></g>
<g fill="red" transform="translate(700 900) scale(0.1 -0.1)"><path d="M0.0 0.0V-303.0V-642.0H30.0V-303.0V0.0Z"/></g>
<g fill="black" opacity=".8" transform="translate(700 900) scale(0.1 -0.1)"><path d="M0.0 0.0V-303.0V-643.0H32.0V-303.0H31.0V0.0Z"/></g>
<g fill="red" transform="translate(800 900) scale(0.1 -0.1)"><path d="M0.0 0.0V-271.0H-14.0V-646.0H116.0V-271.0H102.0V0.0Z"/></g>
<g fill="black" opacity=".8" transform="translate(800 900) scale(0.1 -0.1)"><path d="M0.0 0.0V-272.0H-15.0V-645.0H116.0V-272.0H100.0V0.0Z"/></g>
<g fill="red" transform="translate(900 900) scale(0.1 -0.1)"><path d="M0.0 0.0V-303.0V-642.0H30.0V-303.0V0.0Z"/></g>
<g fill="black" opacity=".8" transform="translate(900 900) scale(0.1 -0.1)"><path d="M0.0 0.0V-303.0V-643.0H31.0V-303.0V0.0Z"/></g>
<g fill="red" transform="translate(1000 900) scale(0.1 -0.1)"><path d="M0.0 0.0V-271.0H-14.0V-646.0H115.0V-271.0H101.0V0.0Z"/></g>
<g fill="black" opacity=".8" transform="translate(1000 900) scale(0.1 -0.1)"><path d="M0.0 0.0V-271.0H-15.0V-645.0H115.0V-272.0H99.0V0.0Z"/></g>
<g fill="red" transform="translate(1100 900) scale(0.1 -0.1)"><path d="M0.0 0.0V-304.0V-643.0H29.0V-304.0V0.0Z"/></g>
<g fill="black" opacity=".8" transform="translate(1100 900) scale(0.1 -0.1)"><path d="M0.0 0.0V-305.0H-1.0V-643.0H28.0V-304.0V0.0Z"/></g>
<g fill="red" transform="translate(1200 900) scale(0.1 -0.1)"><path d="M0.0 0.0V-271.0H-14.0V-646.0H105.0V-271.0H91.0V0.0Z"/></g>
<g fill="black" opacity=".8" transform="translate(1200 900) scale(0.1 -0.1)"><path d="M0.0 0.0V-271.0H-14.0V-646.0H105.0V-271.0H91.0V0.0Z"/></g>
<g fill="red" transform="translate(1300 900) scale(0.1 -0.1)"><path d="M0.0 0.0V-303.0V-642.0H29.0V-303.0V0.0Z"/></g>
<g fill="black" opacity=".8" transform="translate(1300 900) scale(0.1 -0.1)"><path d="M0.0 0.0V-304.0H-1.0V-642.0H27.0V-304.0V0.0Z"/></g>
<g fill="red" transform="translate(1400 900) scale(0.1 -0.1)"><path d="M0.0 0.0V-271.0H-20.0V-646.0H111.0V-271.0H91.0V0.0Z"/></g>
<g fill="black" opacity=".8" transform="translate(1400 900) scale(0.1 -0.1)"><path d="M0.0 0.0V-270.0H-19.0V-646.0H111.0V-271.0H93.0V0.0Z"/></g>
<g fill="red" transform="translate(1500 900) scale(0.1 -0.1)"><path d="M0.0 0.0V-304.0V-643.0H29.0V-304.0V0.0Z"/></g>
<g fill="black" opacity=".8" transform="translate(1500 900) scale(0.1 -0.1)"><path d="M0.0 0.0V-304.0V-644.0H32.0V-303.0H31.0V0.0Z"/></g>
<g fill="red" transform="translate(1600 900) scale(0.1 -0.1)"><path d="M0.0 0.0V-271.0H-13.0V-646.0H117.0V-271.0H104.0V0.0Z"/></g>
<g fill="black" opacity=".8" transform="translate(1600 900) scale(0.1 -0.1)"><path d="M0.0 0.0V-272.0H-15.0V-645.0H117.0V-272.0H101.0V0.0Z"/></g>
<g fill="red" transform="translate(100 1000) scale(0.1 -0.1)"><path d="M0.0 0.0V-304.0V-643.0H31.0V-304.0H30.0V0.0Z"/></g>
<g fill="black" opacity=".8" transform="translate(100 1000) scale(0.1 -0.1)"><path d="M0.0 0.0V-306.0H-2.0V-641.0H25.0V-306.0V0.0Z"/></g>
<g fill="red" transform="translate(200 1000) scale(0.1 -0.1)"><path d="M0.0 0.0V-310.0H-13.0V-656.0H104.0V-310.0H91.0V0.0Z"/></g>
<g fill="black" opacity=".8" transform="translate(200 1000) scale(0.1 -0.1)"><path d="M0.0 0.0V-308.0H-9.0V-657.0H103.0V-309.0H97.0V0.0Z"/></g>
<g fill="red" transform="translate(300 1000) scale(0.1 -0.1)"><path d="M0.0 0.0V-304.0V-643.0H29.0V-304.0V0.0Z"/></g>
<g fill="black" opacity=".8" transform="translate(300 1000) scale(0.1 -0.1)"><path d="M0.0 0.0V-304.0V-644.0H31.0V-303.0V0.0Z"/></g>
<g fill="red" transform="translate(400 1000) scale(0.1 -0.1)"><path d="M0.0 0.0V-271.0H-14.0V-646.0H117.0V-271.0H103.0V0.0Z"/></g>
<g fill="black" opacity=".8" transform="translate(400 1000) scale(0.1 -0.1)"><path d="M0.0 0.0V-272.0H-16.0V-645.0H117.0V-272.0H100.0V0.0Z"/></g>
<g fill="red" transform="translate(500 1000) scale(0.1 -0.1)"><path d="M0.0 0.0V-303.0V-642.0H26.0V-303.0V0.0Z"/></g>
<g fill="black" opacity=".8" transform="translate(500 1000) scale(0.1 -0.1)"><path d="M0.0 0.0V-303.0V-643.0H28.0V-303.0H27.0V0.0Z"/></g>
<g fill="red" transform="translate(600 1000) scale(0.1 -0.1)"><path d="M0.0 0.0V-271.0H-13.0V-646.0H108.0V-271.0H95.0V0.0Z"/></g>
<g fill="black" opacity=".8" transform="translate(600 1000) scale(0.1 -0.1)"><path d="M0.0 0.0V-272.0H-15.0V-645.0H108.0V-272.0H93.0V0.0Z"/></g>
<g fill="red" transform="translate(700 1000) scale(0.1 -0.1)"><path d="M0.0 0.0V-303.0V-642.0H29.0V-303.0V0.0Z"/></g>
<g fill="black" opacity=".8" transform="translate(700 1000) scale(0.1 -0.1)"><path d="M0.0 0.0V-304.0H-1.0V-641.0H26.0V-304.0H27.0V0.0Z"/></g>
<g fill="red" transform="translate(800 1000) scale(0.1 -0.1)"><path d="M0.0 0.0V-274.0H-17.0V-649.0H103.0V-274.0H86.0V0.0Z"/></g>
<g fill="black" opacity=".8" transform="translate(800 1000) scale(0.1 -0.1)"><path d="M0.0 0.0V-273.0H-15.0V-649.0H103.0V-274.0H89.0V0.0Z"/></g>
<g fill="red" transform="translate(900 1000) scale(0.1 -0.1)"><path d="M0.0 0.0V-303.0V-642.0H29.0V-303.0V0.0Z"/></g>
<g fill="black" opacity=".8" transform="translate(900 1000) scale(0.1 -0.1)"><path d="M0.0 0.0V-304.0H-1.0V-642.0H28.0V-304.0V0.0Z"/></g>
<g fill="red" transform="translate(1000 1000) scale(0.1 -0.1)"><path d="M0.0 0.0V-271.0H-19.0V-646.0H112.0V-271.0H93.0V0.0Z"/></g>
<g fill="black" opacity=".8" transform="translate(1000 1000) scale(0.1 -0.1)"><path d="M0.0 0.0V-271.0H-18.0V-646.0H112.0V-271.0H94.0V0.0Z"/></g>
<g fill="red" transform="translate(1100 1000) scale(0.1 -0.1)"><path d="M0.0 0.0V-303.0V-642.0H29.0V-303.0V0.0Z"/></g>
<g fill="black" opacity=".8" transform="translate(1100 1000) scale(0.1 -0.1)"><path d="M0.0 0.0V-303.0V-643.0H30.0V-303.0H29.0V0.0Z"/></g>
<g fill="red" transform="translate(1200 1000) scale(0.1 -0.1)"><path d="M0.0 0.0V-271.0H-12.0V-646.0H107.0V-271.0H94.0V0.0Z"/></g>
<g fill="black" opacity=".8" transform="translate(1200 1000) scale(0.1 -0.1)"><path d="M0.0 0.0V-271.0H-13.0V-646.0H107.0V-272.0H93.0V0.0Z"/></g>
<g fill="red" transform="translate(1300 1000) scale(0.1 -0.1)"><path d="M0.0 0.0V-303.0V-642.0H29.0V-303.0V0.0Z"/></g>
<g fill="black" opacity=".8" transform="translate(1300 1000) scale(0.1 -0.1)"><path d="M0.0 0.0V-304.0H-2.0V-641.0H26.0V-304.0H27.0V0.0Z"/></g>
<g fill="red" transform="translate(1400 1000) scale(0.1 -0.1)"><path d="M0.0 0.0V-271.0H-18.0V-646.0H103.0V-271.0H86.0V0.0Z"/></g>
<g fill="black" opacity=".8" transform="translate(1400 1000) scale(0.1 -0.1)"><path d="M0.0 0.0V-270.0H-16.0V-646.0H103.0V-271.0H88.0V0.0Z"/></g>
<g fill="red" transform="translate(1500 1000) scale(0.1 -0.1)"><path d="M0.0 0.0V-304.0V-643.0H29.0V-304.0V0.0Z"/></g>
<g fill="black" opacity=".8" transform="translate(1500 1000) scale(0.1 -0.1)"><path d="M0.0 0.0V-306.0H-2.0V-641.0H25.0V-306.0V0.0Z"/></g>
<g fill="red" transform="translate(1600 1000) scale(0.1 -0.1)"><path d="M0.0 0.0V-310.0H-13.0V-656.0H105.0V-310.0H92.0V0.0Z"/></g>
<g fill="black" opacity=".8" transform="translate(1600 1000) scale(0.1 -0.1)"><path d="M0.0 0.0V-309.0H-10.0V-657.0H104.0V-310.0H97.0V0.0Z"/></g>
<g fill="red" transform="translate(100 1100) scale(0.1 -0.1)"><path d="M0.0 0.0V-304.0V-633.0H30.0V-304.0V0.0Z"/></g>
<g fill="black" opacity=".8" transform="translate(100 1100) scale(0.1 -0.1)"><path d="M0.0 0.0V-303.0H1.0V-635.0H35.0V-303.0H34.0V0.0Z"/></g>
<g fill="red" transform="translate(200 1100) scale(0.1 -0.1)"><path d="M0.0 0.0V-294.0H-10.0V-649.0H131.0V-294.0H121.0V0.0Z"/></g>
<g fill="black" opacity=".8" transform="translate(200 1100) scale(0.1 -0.1)"><path d="M0.0 0.0V-296.0H-14.0V-647.0H131.0V-296.0H116.0V0.0Z"/></g>
<g fill="red" transform="translate(300 1100) scale(0.1 -0.1)"><path d="M0.0 0.0V-182.0V-528.0H29.0V-182.0V0.0Z"/></g>
<g fill="black" opacity=".8" transform="translate(300 1100) scale(0.1 -0.1)"><path d="M0.0 0.0V-183.0H-1.0V-528.0H28.0V-183.0H27.0V0.0Z"/></g>
<g fill="red" transform="translate(400 1100) scale(0.1 -0.1)"><path d="M0.0 0.0V-186.0H-13.0V-539.0H121.0V-186.0H108.0V0.0Z"/></g>
<g fill="black" opacity=".8" transform="translate(400 1100) scale(0.1 -0.1)"><path d="M0.0 0.0V-185.0H-13.0V-539.0H121.0V-186.0H109.0V0.0Z"/></g>
<g fill="red" transform="translate(500 1100) scale(0.1 -0.1)"><path d="M0.0 0.0V-182.0V-528.0H29.0V-182.0V0.0Z"/></g>
<g fill="black" opacity=".8" transform="translate(500 1100) scale(0.1 -0.1)"><path d="M0.0 0.0V-183.0H-1.0V-527.0H27.0V-183.0V0.0Z"/></g>
<g fill="red" transform="translate(600 1100) scale(0.1 -0.1)"><path d="M0.0 0.0V-186.0H-12.0V-539.0H114.0V-186.0H102.0V0.0Z"/></g>
<g fill="black" opacity=".8" transform="translate(600 1100) scale(0.1 -0.1)"><path d="M0.0 0.0V-185.0H-11.0V-540.0H114.0V-186.0H105.0V0.0Z"/></g>
<g fill="red" transform="translate(700 1100) scale(0.1 -0.1)"><path d="M0.0 0.0V-182.0V-528.0H29.0V-182.0V0.0Z"/></g>
<g fill="black" opacity=".8" transform="translate(700 1100) scale(0.1 -0.1)"><path d="M0.0 0.0V-183.0H-1.0V-527.0H27.0V-183.0V0.0Z"/></g>
<g fill="red" transform="translate(800 1100) scale(0.1 -0.1)"><path d="M0.0 0.0V-186.0H-12.0V-539.0H115.0V-186.0H103.0V0.0Z"/></g>
<g fill="black" opacity=".8" transform="translate(800 1100) scale(0.1 -0.1)"><path d="M0.0 0.0V-185.0H-11.0V-539.0H115.0V-186.0H105.0V0.0Z"/></g>
<g fill="red" transform="translate(900 1100) scale(0.1 -0.1)"><path d="M0.0 0.0V-182.0V-528.0H28.0V-182.0V0.0Z"/></g>
<g fill="black" opacity=".8" transform="translate(900 1100) scale(0.1 -0.1)"><path d="M0.0 0.0V-183.0H-1.0V-527.0H26.0V-183.0V0.0Z"/></g>
<g fill="red" transform="translate(1000 1100) scale(0.1 -0.1)"><path d="M0.0 0.0V-186.0H-12.0V-539.0H114.0V-186.0H102.0V0.0Z"/></g>
<g fill="black" opacity=".8" transform="translate(1000 1100) scale(0.1 -0.1)"><path d="M0.0 0.0V-185.0H-11.0V-539.0H114.0V-186.0H104.0V0.0Z"/></g>
<g fill="red" transform="translate(1100 1100) scale(0.1 -0.1)"><path d="M0.0 0.0V-182.0V-528.0H29.0V-182.0V0.0Z"/></g>
<g fill="black" opacity=".8" transform="translate(1100 1100) scale(0.1 -0.1)"><path d="M0.0 0.0V-184.0H-2.0V-527.0H26.0V-184.0H25.0V0.0Z"/></g>
<g fill="red" transform="translate(1200 1100) scale(0.1 -0.1)"><path d="M0.0 0.0V-186.0H-19.0V-539.0H122.0V-186.0H103.0V0.0Z"/></g>
<g fill="black" opacity=".8" transform="translate(1200 1100) scale(0.1 -0.1)"><path d="M0.0 0.0V-185.0H-17.0V-540.0H122.0V-186.0H107.0V0.0Z"/></g>
<g fill="red" transform="translate(1300 1100) scale(0.1 -0.1)"><path d="M0.0 0.0V-182.0V-528.0H30.0V-182.0V0.0Z"/></g>
<g fill="black" opacity=".8" transform="translate(1300 1100) scale(0.1 -0.1)"><path d="M0.0 0.0V-184.0H-2.0V-527.0H27.0V-184.0V0.0Z"/></g>
<g fill="red" transform="translate(1400 1100) scale(0.1 -0.1)"><path d="M0.0 0.0V-186.0H-14.0V-539.0H116.0V-186.0H103.0V0.0Z"/></g>
<g fill="black" opacity=".8" transform="translate(1400 1100) scale(0.1 -0.1)"><path d="M0.0 0.0V-185.0H-12.0V-540.0H116.0V-186.0H106.0V0.0Z"/></g>
<g fill="red" transform="translate(1500 1100) scale(0.1 -0.1)"><path d="M0.0 0.0V-182.0V-528.0H30.0V-182.0V0.0Z"/></g>
<g fill="black" opacity=".8" transform="translate(1500 1100) scale(0.1 -0.1)"><path d="M0.0 0.0V-183.0H-1.0V-527.0H28.0V-183.0V0.0Z"/></g>
<g fill="red" transform="translate(1600 1100) scale(0.1 -0.1)"><path d="M0.0 0.0V-186.0H-13.0V-539.0H119.0V-186.0H107.0V0.0Z"/></g>
<g fill="black" opacity=".8" transform="translate(1600 1100) scale(0.1 -0.1)"><path d="M0.0 0.0V-185.0H-12.0V-539.0H119.0V-186.0H109.0V0.0Z"/></g>
<g fill="red" transform="translate(100 1200) scale(0.1 -0.1)"><path d="M0.0 0.0V-182.0V-528.0H30.0V-182.0V0.0Z"/></g>
<g fill="black" opacity=".8" transform="translate(100 1200) scale(0.1 -0.1)"><path d="M0.0 0.0V-184.0H-2.0V-526.0H25.0V-184.0H26.0V0.0Z"/></g>
<g fill="red" transform="translate(200 1200) scale(0.1 -0.1)"><path d="M0.0 0.0V-186.0H-13.0V-539.0H108.0V-186.0H95.0V0.0Z"/></g>
<g fill="black" opacity=".8" transform="translate(200 1200) scale(0.1 -0.1)"><path d="M0.0 0.0V-184.0H-10.0V-540.0H107.0V-186.0H100.0V0.0Z"/></g>
<g fill="red" transform="translate(300 1200) scale(0.1 -0.1)"><path d="M0.0 0.0V-195.0V-528.0H29.0V-195.0V0.0Z"/></g>
<g fill="black" opacity=".8" transform="translate(300 1200) scale(0.1 -0.1)"><path d="M0.0 0.0V-196.0H-1.0V-528.0H28.0V-196.0V0.0Z"/></g>
<g fill="red" transform="translate(400 1200) scale(0.1 -0.1)"><path d="M0.0 0.0V-186.0H-15.0V-539.0H117.0V-186.0H103.0V0.0Z"/></g>
<g fill="black" opacity=".8" transform="translate(400 1200) scale(0.1 -0.1)"><path d="M0.0 0.0V-186.0H-15.0V-539.0H117.0V-186.0H103.0V0.0Z"/></g>
<g fill="red" transform="translate(500 1200) scale(0.1 -0.1)"><path d="M0.0 0.0V-182.0V-528.0H30.0V-182.0V0.0Z"/></g>
<g fill="black" opacity=".8" transform="translate(500 1200) scale(0.1 -0.1)"><path d="M0.0 0.0V-183.0H-2.0V-527.0H28.0V-183.0V0.0Z"/></g>
<g fill="red" transform="translate(600 1200) scale(0.1 -0.1)"><path d="M0.0 0.0V-193.0H-13.0V-545.0H119.0V-193.0H107.0V0.0Z"/></g>
<g fill="black" opacity=".8" transform="translate(600 1200) scale(0.1 -0.1)"><path d="M0.0 0.0V-192.0H-11.0V-545.0H119.0V-193.0H109.0V0.0Z"/></g>
<g fill="red" transform="translate(700 1200) scale(0.1 -0.1)"><path d="M0.0 0.0V-182.0V-528.0H29.0V-182.0V0.0Z"/></g>
<g fill="black" opacity=".8" transform="translate(700 1200) scale(0.1 -0.1)"><path d="M0.0 0.0V-184.0H-2.0V-526.0H24.0V-184.0V0.0Z"/></g>
<g fill="red" transform="translate(800 1200) scale(0.1 -0.1)"><path d="M0.0 0.0V-186.0H-13.0V-539.0H105.0V-186.0H92.0V0.0Z"/></g>
<g fill="black" opacity=".8" transform="translate(800 1200) scale(0.1 -0.1)"><path d="M0.0 0.0V-184.0H-10.0V-540.0H104.0V-185.0H97.0V0.0Z"/></g>
<g fill="red" transform="translate(900 1200) scale(0.1 -0.1)"><path d="M0.0 0.0V-182.0V-528.0H29.0V-182.0V0.0Z"/></g>
<g fill="black" opacity=".8" transform="translate(900 1200) scale(0.1 -0.1)"><path d="M0.0 0.0V-185.0H-2.0V-526.0H23.0V-184.0H24.0V0.0Z"/></g>
<g fill="red" transform="translate(1000 1200) scale(0.1 -0.1)"><path d="M0.0 0.0V-186.0H-12.0V-539.0H99.0V-186.0H87.0V0.0Z"/></g>
<g fill="black" opacity=".8" transform="translate(1000 1200) scale(0.1 -0.1)"><path d="M0.0 0.0V-184.0H-8.0V-540.0H98.0V-185.0H93.0V0.0Z"/></g>
<g fill="red" transform="translate(1100 1200) scale(0.1 -0.1)"><path d="M0.0 0.0V-189.0V-521.0H30.0V-189.0V0.0Z"/></g>
<g fill="black" opacity=".8" transform="translate(1100 1200) scale(0.1 -0.1)"><path d="M0.0 0.0V-191.0H-3.0V-519.0H25.0V-192.0V0.0Z"/></g>
<g fill="red" transform="translate(1200 1200) scale(0.1 -0.1)"><path d="M0.0 0.0V-219.0H-17.0V-555.0H117.0V-219.0H101.0V0.0Z"/></g>
<g fill="black" opacity=".8" transform="translate(1200 1200) scale(0.1 -0.1)"><path d="M0.0 0.0V-217.0H-13.0V-556.0H116.0V-218.0H107.0V0.0Z"/></g>
<g fill="red" transform="translate(1300 1200) scale(0.1 -0.1)"><path d="M0.0 0.0V-182.0V-528.0H30.0V-182.0V0.0Z"/></g>
<g fill="black" opacity=".8" transform="translate(1300 1200) scale(0.1 -0.1)"><path d="M0.0 0.0V-184.0H-2.0V-527.0H26.0V-184.0V0.0Z"/></g>
<g fill="red" transform="translate(1400 1200) scale(0.1 -0.1)"><path d="M0.0 0.0V-186.0H-12.0V-539.0H110.0V-186.0H98.0V0.0Z"/></g>
<g fill="black" opacity=".8" transform="translate(1400 1200) scale(0.1 -0.1)"><path d="M0.0 0.0V-185.0H-10.0V-540.0H109.0V-186.0H102.0V0.0Z"/></g>
<g fill="red" transform="translate(1500 1200) scale(0.1 -0.1)"><path d="M0.0 0.0V-189.0V-524.0H29.0V-189.0V0.0Z"/></g>
<g fill="black" opacity=".8" transform="translate(1500 1200) scale(0.1 -0.1)"><path d="M0.0 0.0V-191.0H-2.0V-522.0H25.0V-191.0V0.0Z"/></g>
<g fill="red" transform="translate(1600 1200) scale(0.1 -0.1)"><path d="M0.0 0.0V-186.0H-16.0V-539.0H107.0V-186.0H91.0V0.0Z"/></g>
<g fill="black" opacity=".8" transform="translate(1600 1200) scale(0.1 -0.1)"><path d="M0.0 0.0V-185.0H-13.0V-540.0H106.0V-186.0H95.0V0.0Z"/></g>
<g fill="red" transform="translate(100 1300) scale(0.1 -0.1)"><path d="M0.0 0.0V-182.0V-528.0H30.0V-182.0V0.0Z"/></g>
<g fill="black" opacity=".8" transform="translate(100 1300) scale(0.1 -0.1)"><path d="M0.0 0.0V-184.0H-2.0V-526.0H25.0V-184.0V0.0Z"/></g>
<g fill="red" transform="translate(200 1300) scale(0.1 -0.1)"><path d="M0.0 0.0V-186.0H-13.0V-539.0H105.0V-186.0H92.0V0.0Z"/></g>
<g fill="black" opacity=".8" transform="translate(200 1300) scale(0.1 -0.1)"><path d="M0.0 0.0V-184.0H-9.0V-540.0H104.0V-185.0H98.0V0.0Z"/></g>
<g fill="red" transform="translate(300 1300) scale(0.1 -0.1)"><path d="M0.0 0.0V-182.0V-528.0H30.0V-182.0V0.0Z"/></g>
<g fill="black" opacity=".8" transform="translate(300 1300) scale(0.1 -0.1)"><path d="M0.0 0.0V-184.0H-2.0V-526.0H25.0V-184.0V0.0Z"/></g>
<g fill="red" transform="translate(400 1300) scale(0.1 -0.1)"><path d="M0.0 0.0V-186.0H-20.0V-539.0H119.0V-186.0H99.0V0.0Z"/></g>
<g fill="black" opacity=".8" transform="translate(400 1300) scale(0.1 -0.1)"><path d="M0.0 0.0V-184.0H-16.0V-540.0H118.0V-185.0H105.0V0.0Z"/></g>
<g fill="red" transform="translate(500 1300) scale(0.1 -0.1)"><path d="M0.0 0.0V-182.0V-528.0H27.0V-182.0V0.0Z"/></g>
<g fill="black" opacity=".8" transform="translate(500 1300) scale(0.1 -0.1)"><path d="M0.0 0.0V-184.0H-2.0V-527.0H24.0V-184.0V0.0Z"/></g>
<g fill="red" transform="translate(600 1300) scale(0.1 -0.1)"><path d="M0.0 0.0V-186.0H-11.0V-539.0H105.0V-186.0H94.0V0.0Z"/></g>
<g fill="black" opacity=".8" transform="translate(600 1300) scale(0.1 -0.1)"><path d="M0.0 0.0V-185.0H-9.0V-540.0H105.0V-186.0H97.0V0.0Z"/></g>
<g fill="red" transform="translate(700 1300) scale(0.1 -0.1)"><path d="M0.0 0.0V-182.0V-528.0H30.0V-182.0V0.0Z"/></g>
<g fill="black" opacity=".8" transform="translate(700 1300) scale(0.1 -0.1)"><path d="M0.0 0.0V-185.0H-3.0V-525.0H22.0V-185.0H24.0V0.0Z"/></g>
<g fill="red" transform="translate(800 1300) scale(0.1 -0.1)"><path d="M0.0 0.0V-186.0H-11.0V-539.0H92.0V-186.0H81.0V0.0Z"/></g>
<g fill="black" opacity=".8" transform="translate(800 1300) scale(0.1 -0.1)"><path d="M0.0 0.0V-184.0H-6.0V-541.0H91.0V-185.0H89.0V0.0Z"/></g>
<g fill="red" transform="translate(900 1300) scale(0.1 -0.1)"><path d="M0.0 0.0V-182.0V-528.0H30.0V-182.0V0.0Z"/></g>
<g fill="black" opacity=".8" transform="translate(900 1300) scale(0.1 -0.1)"><path d="M0.0 0.0V-184.0H-2.0V-526.0H25.0V-184.0V0.0Z"/></g>
<g fill="red" transform="translate(1000 1300) scale(0.1 -0.1)"><path d="M0.0 0.0V-186.0H-17.0V-539.0H113.0V-186.0H96.0V0.0Z"/></g>
<g fill="black" opacity=".8" transform="translate(1000 1300) scale(0.1 -0.1)"><path d="M0.0 0.0V-184.0H-13.0V-540.0H112.0V-185.0H102.0V0.0Z"/></g>
<g fill="red" transform="translate(1100 1300) scale(0.1 -0.1)"><path d="M0.0 0.0V-309.0V-900.0H27.0V-309.0V0.0Z"/></g>
<g fill="black" opacity=".8" transform="translate(1100 1300) scale(0.1 -0.1)"><path d="M0.0 0.0V-309.0V-901.0H30.0V-308.0H29.0V0.0Z"/></g>
<g fill="red" transform="translate(1200 1300) scale(0.1 -0.1)"><path d="M0.0 0.0V-310.0H11.0V-951.0H109.0V-310.0H119.0V0.0Z"/></g>
<g fill="black" opacity=".8" transform="translate(1200 1300) scale(0.1 -0.1)"><path d="M0.0 0.0V-311.0H9.0V-950.0H109.0V-311.0H116.0V0.0Z"/></g>
<g fill="red" transform="translate(1300 1300) scale(0.1 -0.1)"><path d="M0.0 0.0V-309.0V-900.0H28.0V-309.0V0.0Z"/></g>
<g fill="black" opacity=".8" transform="translate(1300 1300) scale(0.1 -0.1)"><path d="M0.0 0.0V-308.0V-902.0H33.0V-307.0H31.0V0.0Z"/></g>
<g fill="red" transform="translate(1400 1300) scale(0.1 -0.1)"><path d="M0.0 0.0V-310.0H13.0V-951.0H116.0V-310.0H128.0V0.0Z"/></g>
<g fill="black" opacity=".8" transform="translate(1400 1300) scale(0.1 -0.1)"><path d="M0.0 0.0V-311.0H9.0V-949.0H116.0V-312.0H123.0V0.0Z"/></g>
<g fill="red" transform="translate(1500 1300) scale(0.1 -0.1)"><path d="M0.0 0.0V-262.0V-544.0H29.0V-262.0V0.0Z"/></g>
<g fill="black" opacity=".8" transform="translate(1500 1300) scale(0.1 -0.1)"><path d="M0.0 0.0V-260.0H2.0V-548.0H37.0V-260.0H36.0V0.0Z"/></g>
<g fill="red" transform="translate(1600 1300) scale(0.1 -0.1)"><path d="M0.0 0.0V-300.0H10.0V-587.0H116.0V-300.0H128.0V0.0Z"/></g>
<g fill="black" opacity=".8" transform="translate(1600 1300) scale(0.1 -0.1)"><path d="M0.0 0.0V-303.0H4.0V-584.0H117.0V-303.0H119.0V0.0Z"/></g>
<g fill="red" transform="translate(100 1400) scale(0.1 -0.1)"><path d="M0.0 0.0V-265.0V-575.0H29.0V-265.0V0.0Z"/></g>
<g fill="black" opacity=".8" transform="translate(100 1400) scale(0.1 -0.1)"><path d="M0.0 0.0V-266.0H-1.0V-575.0H28.0V-266.0H27.0V0.0Z"/></g>
<g fill="red" transform="translate(200 1400) scale(0.1 -0.1)"><path d="M0.0 0.0V-313.0H20.0V-552.0H85.0V-313.0H105.0V0.0Z"/></g>
<g fill="black" opacity=".8" transform="translate(200 1400) scale(0.1 -0.1)"><path d="M0.0 0.0V-312.0H21.0V-552.0H85.0V-314.0H107.0V0.0Z"/></g>
<g fill="red" transform="translate(300 1400) scale(0.1 -0.1)"><path d="M0.0 0.0V-309.0V-900.0H27.0V-309.0V0.0Z"/></g>
<g fill="black" opacity=".8" transform="translate(300 1400) scale(0.1 -0.1)"><path d="M0.0 0.0V-309.0V-902.0H30.0V-308.0H29.0V0.0Z"/></g>
<g fill="red" transform="translate(400 1400) scale(0.1 -0.1)"><path d="M0.0 0.0V-310.0H12.0V-951.0H110.0V-310.0H121.0V0.0Z"/></g>
<g fill="black" opacity=".8" transform="translate(400 1400) scale(0.1 -0.1)"><path d="M0.0 0.0V-311.0H9.0V-950.0H110.0V-312.0H117.0V0.0Z"/></g>
<g fill="red" transform="translate(500 1400) scale(0.1 -0.1)"><path d="M0.0 0.0V-316.0V-588.0H30.0V-316.0V0.0Z"/></g>
<g fill="black" opacity=".8" transform="translate(500 1400) scale(0.1 -0.1)"><path d="M0.0 0.0V-316.0H-1.0V-589.0H31.0V-316.0H30.0V0.0Z"/></g>
<g fill="red" transform="translate(600 1400) scale(0.1 -0.1)"><path d="M0.0 0.0V-281.0H-14.0V-539.0H115.0V-281.0H102.0V0.0Z"/></g>
<g fill="black" opacity=".8" transform="translate(600 1400) scale(0.1 -0.1)"><path d="M0.0 0.0V-281.0H-15.0V-539.0H115.0V-282.0H101.0V0.0Z"/></g>
<g fill="red" transform="translate(700 1400) scale(0.1 -0.1)"><path d="M0.0 0.0V-316.0V-588.0H28.0V-316.0V0.0Z"/></g>
<g fill="black" opacity=".8" transform="translate(700 1400) scale(0.1 -0.1)"><path d="M0.0 0.0V-317.0H-1.0V-588.0H27.0V-317.0V0.0Z"/></g>
<g fill="red" transform="translate(800 1400) scale(0.1 -0.1)"><path d="M0.0 0.0V-281.0H-13.0V-539.0H101.0V-281.0H89.0V0.0Z"/></g>
<g fill="black" opacity=".8" transform="translate(800 1400) scale(0.1 -0.1)"><path d="M0.0 0.0V-281.0H-12.0V-539.0H101.0V-282.0H90.0V0.0Z"/></g>
<g fill="red" transform="translate(900 1400) scale(0.1 -0.1)"><path d="M0.0 0.0V-316.0V-588.0H29.0V-316.0V0.0Z"/></g>
<g fill="black" opacity=".8" transform="translate(900 1400) scale(0.1 -0.1)"><path d="M0.0 0.0V-318.0H-1.0V-587.0H26.0V-317.0V0.0Z"/></g>
<g fill="red" transform="translate(1000 1400) scale(0.1 -0.1)"><path d="M0.0 0.0V-281.0H-10.0V-539.0H89.0V-281.0H79.0V0.0Z"/></g>
<g fill="black" opacity=".8" transform="translate(1000 1400) scale(0.1 -0.1)"><path d="M0.0 0.0V-280.0H-8.0V-540.0H89.0V-281.0H82.0V0.0Z"/></g>
<g fill="red" transform="translate(1100 1400) scale(0.1 -0.1)"><path d="M0.0 0.0V-316.0V-588.0H28.0V-316.0V0.0Z"/></g>
<g fill="black" opacity=".8" transform="translate(1100 1400) scale(0.1 -0.1)"><path d="M0.0 0.0V-317.0H-1.0V-587.0H26.0V-317.0V0.0Z"/></g>
<g fill="red" transform="translate(1200 1400) scale(0.1 -0.1)"><path d="M0.0 0.0V-281.0H-12.0V-539.0H95.0V-281.0H84.0V0.0Z"/></g>
<g fill="black" opacity=".8" transform="translate(1200 1400) scale(0.1 -0.1)"><path d="M0.0 0.0V-280.0H-10.0V-540.0H95.0V-281.0H86.0V0.0Z"/></g>
<g fill="red" transform="translate(1300 1400) scale(0.1 -0.1)"><path d="M0.0 0.0V-304.0V-575.0H30.0V-304.0V0.0Z"/></g>
<g fill="black" opacity=".8" transform="translate(1300 1400) scale(0.1 -0.1)"><path d="M0.0 0.0V-306.0H-2.0V-573.0H25.0V-306.0H26.0V0.0Z"/></g>
<g fill="red" transform="translate(1400 1400) scale(0.1 -0.1)"><path d="M0.0 0.0V-281.0H-10.0V-539.0H86.0V-281.0H76.0V0.0Z"/></g>
<g fill="black" opacity=".8" transform="translate(1400 1400) scale(0.1 -0.1)"><path d="M0.0 0.0V-279.0H-6.0V-540.0H85.0V-280.0H81.0V0.0Z"/></g>
<g fill="red" transform="translate(1500 1400) scale(0.1 -0.1)"><path d="M0.0 0.0V-303.0V-642.0H30.0V-303.0V0.0Z"/></g>
<g fill="black" opacity=".8" transform="translate(1500 1400) scale(0.1 -0.1)"><path d="M0.0 0.0V-303.0V-643.0H32.0V-302.0V0.0Z"/></g>
<g fill="red" transform="translate(1600 1400) scale(0.1 -0.1)"><path d="M0.0 0.0V-271.0H-15.0V-646.0H120.0V-271.0H106.0V0.0Z"/></g>
<g fill="black" opacity=".8" transform="translate(1600 1400) scale(0.1 -0.1)"><path d="M0.0 0.0V-272.0H-17.0V-645.0H120.0V-272.0H103.0V0.0Z"/></g>
<g fill="red" transform="translate(100 1500) scale(0.1 -0.1)"><path d="M0.0 0.0V-304.0V-643.0H29.0V-304.0V0.0Z"/></g>
<g fill="black" opacity=".8" transform="translate(100 1500) scale(0.1 -0.1)"><path d="M0.0 0.0V-306.0H-2.0V-642.0H26.0V-306.0H25.0V0.0Z"/></g>
<g fill="red" transform="translate(200 1500) scale(0.1 -0.1)"><path d="M0.0 0.0V-310.0H-14.0V-656.0H111.0V-310.0H97.0V0.0Z"/></g>
<g fill="black" opacity=".8" transform="translate(200 1500) scale(0.1 -0.1)"><path d="M0.0 0.0V-309.0H-11.0V-657.0H110.0V-310.0H101.0V0.0Z"/></g>
<g fill="red" transform="translate(300 1500) scale(0.1 -0.1)"><path d="M0.0 0.0V-303.0V-642.0H30.0V-303.0V0.0Z"/></g>
<g fill="black" opacity=".8" transform="translate(300 1500) scale(0.1 -0.1)"><path d="M0.0 0.0V-303.0V-643.0H31.0V-303.0V0.0Z"/></g>
<g fill="red" transform="translate(400 1500) scale(0.1 -0.1)"><path d="M0.0 0.0V-271.0H-12.0V-646.0H111.0V-271.0H99.0V0.0Z"/></g>
<g fill="black" opacity=".8" transform="translate(400 1500) scale(0.1 -0.1)"><path d="M0.0 0.0V-271.0H-13.0V-645.0H111.0V-272.0H97.0V0.0Z"/></g>
<g fill="red" transform="translate(500 1500) scale(0.1 -0.1)"><path d="M0.0 0.0V-303.0V-642.0H30.0V-303.0V0.0Z"/></g>
<g fill="black" opacity=".8" transform="translate(500 1500) scale(0.1 -0.1)"><path d="M0.0 0.0V-303.0V-643.0H31.0V-303.0V0.0Z"/></g>
<g fill="red" transform="translate(600 1500) scale(0.1 -0.1)"><path d="M0.0 0.0V-271.0H-15.0V-646.0H116.0V-271.0H101.0V0.0Z"/></g>
<g fill="black" opacity=".8" transform="translate(600 1500) scale(0.1 -0.1)"><path d="M0.0 0.0V-271.0H-16.0V-646.0H116.0V-272.0H100.0V0.0Z"/></g>
<g fill="red" transform="translate(700 1500) scale(0.1 -0.1)"><path d="M0.0 0.0V-303.0V-642.0H30.0V-303.0V0.0Z"/></g>
<g fill="black" opacity=".8" transform="translate(700 1500) scale(0.1 -0.1)"><path d="M0.0 0.0V-303.0V-643.0H31.0V-303.0V0.0Z"/></g>
<g fill="red" transform="translate(800 1500) scale(0.1 -0.1)"><path d="M0.0 0.0V-271.0H-13.0V-646.0H111.0V-271.0H98.0V0.0Z"/></g>
<g fill="black" opacity=".8" transform="translate(800 1500) scale(0.1 -0.1)"><path d="M0.0 0.0V-271.0H-14.0V-646.0H111.0V-272.0H97.0V0.0Z"/></g>
<g fill="red" transform="translate(900 1500) scale(0.1 -0.1)"><path d="M0.0 0.0V-303.0V-642.0H29.0V-303.0V0.0Z"/></g>
<g fill="black" opacity=".8" transform="translate(900 1500) scale(0.1 -0.1)"><path d="M0.0 0.0V-303.0V-643.0H31.0V-302.0H30.0V0.0Z"/></g>
<g fill="red" transform="translate(1000 1500) scale(0.1 -0.1)"><path d="M0.0 0.0V-271.0H-13.0V-646.0H116.0V-271.0H102.0V0.0Z"/></g>
<g fill="black" opacity=".8" transform="translate(1000 1500) scale(0.1 -0.1)"><path d="M0.0 0.0V-272.0H-15.0V-645.0H116.0V-272.0H100.0V0.0Z"/></g>
<g fill="red" transform="translate(1100 1500) scale(0.1 -0.1)"><path d="M0.0 0.0V-303.0V-642.0H30.0V-303.0V0.0Z"/></g>
<g fill="black" opacity=".8" transform="translate(1100 1500) scale(0.1 -0.1)"><path d="M0.0 0.0V-304.0V-642.0H30.0V-303.0V0.0Z"/></g>
<g fill="red" transform="translate(1200 1500) scale(0.1 -0.1)"><path d="M0.0 0.0V-271.0H-15.0V-646.0H112.0V-271.0H97.0V0.0Z"/></g>
<g fill="black" opacity=".8" transform="translate(1200 1500) scale(0.1 -0.1)"><path d="M0.0 0.0V-271.0H-15.0V-646.0H112.0V-272.0H97.0V0.0Z"/></g>
<g fill="red" transform="translate(1300 1500) scale(0.1 -0.1)"><path d="M0.0 0.0V-237.0V-473.0H29.0V-237.0V0.0Z"/></g>
<g fill="black" opacity=".8" transform="translate(1300 1500) scale(0.1 -0.1)"><path d="M0.0 0.0V-235.0H2.0V-476.0H37.0V-235.0H35.0V0.0Z"/></g>
<g fill="red" transform="translate(1400 1500) scale(0.1 -0.1)"><path d="M0.0 0.0V-203.0H-8.0V-461.0H119.0V-203.0H111.0V0.0Z"/></g>
<g fill="black" opacity=".8" transform="translate(1400 1500) scale(0.1 -0.1)"><path d="M0.0 0.0V-205.0H-15.0V-459.0H120.0V-205.0H103.0V0.0Z"/></g>
<g fill="red" transform="translate(1500 1500) scale(0.1 -0.1)"><path d="M0.0 0.0V-303.0V-642.0H29.0V-303.0V0.0Z"/></g>
<g fill="black" opacity=".8" transform="translate(1500 1500) scale(0.1 -0.1)"><path d="M0.0 0.0V-305.0H-1.0V-641.0H26.0V-304.0V0.0Z"/></g>
<g fill="red" transform="translate(1600 1500) scale(0.1 -0.1)"><path d="M0.0 0.0V-271.0H-14.0V-646.0H94.0V-271.0H80.0V0.0Z"/></g>
<g fill="black" opacity=".8" transform="translate(1600 1500) scale(0.1 -0.1)"><path d="M0.0 0.0V-270.0H-12.0V-647.0H94.0V-271.0H83.0V0.0Z"/></g>
<g fill="red" transform="translate(100 1600) scale(0.1 -0.1)"><path d="M0.0 0.0V-304.0V-643.0H30.0V-304.0V0.0Z"/></g>
<g fill="black" opacity=".8" transform="translate(100 1600) scale(0.1 -0.1)"><path d="M0.0 0.0V-306.0H-2.0V-641.0H25.0V-306.0V0.0Z"/></g>
<g fill="red" transform="translate(200 1600) scale(0.1 -0.1)"><path d="M0.0 0.0V-310.0H-13.0V-656.0H105.0V-310.0H92.0V0.0Z"/></g>
<g fill="black" opacity=".8" transform="translate(200 1600) scale(0.1 -0.1)"><path d="M0.0 0.0V-308.0H-9.0V-657.0H104.0V-310.0H97.0V0.0Z"/></g>
<g fill="red" transform="translate(300 1600) scale(0.1 -0.1)"><path d="M0.0 0.0V-169.0V-333.0H30.0V-169.0V0.0Z"/></g>
<g fill="black" opacity=".8" transform="translate(300 1600) scale(0.1 -0.1)"><path d="M0.0 0.0V-170.0V-333.0H30.0V-170.0V0.0Z"/></g>
<g fill="red" transform="translate(400 1600) scale(0.1 -0.1)"><path d="M0.0 0.0V-167.0H-11.0V-311.0H103.0V-167.0H92.0V0.0Z"/></g>
<g fill="black" opacity=".8" transform="translate(400 1600) scale(0.1 -0.1)"><path d="M0.0 0.0V-167.0H-12.0V-311.0H103.0V-167.0H92.0V0.0Z"/></g>
<g fill="red" transform="translate(500 1600) scale(0.1 -0.1)"><path d="M0.0 0.0V-182.0V-528.0H30.0V-182.0V0.0Z"/></g>
<g fill="black" opacity=".8" transform="translate(500 1600) scale(0.1 -0.1)"><path d="M0.0 0.0V-184.0H-2.0V-527.0H27.0V-184.0V0.0Z"/></g>
<g fill="red" transform="translate(600 1600) scale(0.1 -0.1)"><path d="M0.0 0.0V-186.0H-12.0V-539.0H113.0V-186.0H101.0V0.0Z"/></g>
<g fill="black" opacity=".8" transform="translate(600 1600) scale(0.1 -0.1)"><path d="M0.0 0.0V-185.0H-10.0V-540.0H113.0V-186.0H104.0V0.0Z"/></g>
<g fill="red" transform="translate(700 1600) scale(0.1 -0.1)"><path d="M0.0 0.0V-192.0V-524.0H29.0V-192.0V0.0Z"/></g>
<g fill="black" opacity=".8" transform="translate(700 1600) scale(0.1 -0.1)"><path d="M0.0 0.0V-193.0H-2.0V-523.0H27.0V-194.0H26.0V0.0Z"/></g>
<g fill="red" transform="translate(800 1600) scale(0.1 -0.1)"><path d="M0.0 0.0V-219.0H-13.0V-555.0H120.0V-219.0H107.0V0.0Z"/></g>
<g fill="black" opacity=".8" transform="translate(800 1600) scale(0.1 -0.1)"><path d="M0.0 0.0V-218.0H-11.0V-556.0H120.0V-219.0H110.0V0.0Z"/></g>
<g fill="red" transform="translate(900 1600) scale(0.1 -0.1)"><path d="M0.0 0.0V-182.0V-528.0H30.0V-182.0V0.0Z"/></g>
<g fill="black" opacity=".8" transform="translate(900 1600) scale(0.1 -0.1)"><path d="M0.0 0.0V-184.0H-2.0V-527.0H26.0V-184.0H27.0V0.0Z"/></g>
<g fill="red" transform="translate(1000 1600) scale(0.1 -0.1)"><path d="M0.0 0.0V-186.0H-11.0V-539.0H108.0V-186.0H97.0V0.0Z"/></g>
<g fill="black" opacity=".8" transform="translate(1000 1600) scale(0.1 -0.1)"><path d="M0.0 0.0V-185.0H-9.0V-540.0H107.0V-186.0H101.0V0.0Z"/></g>
<g fill="red" transform="translate(1100 1600) scale(0.1 -0.1)"><path d="M0.0 0.0V-182.0V-528.0H28.0V-182.0V0.0Z"/></g>
<g fill="black" opacity=".8" transform="translate(1100 1600) scale(0.1 -0.1)"><path d="M0.0 0.0V-184.0H-2.0V-526.0H23.0V-184.0V0.0Z"/></g>
<g fill="red" transform="translate(1200 1600) scale(0.1 -0.1)"><path d="M0.0 0.0V-186.0H-13.0V-539.0H102.0V-186.0H89.0V0.0Z"/></g>
<g fill="black" opacity=".8" transform="translate(1200 1600) scale(0.1 -0.1)"><path d="M0.0 0.0V-184.0H-9.0V-540.0H101.0V-185.0H94.0V0.0Z"/></g>
<g fill="red" transform="translate(1300 1600) scale(0.1 -0.1)"><path d="M0.0 0.0V-182.0V-528.0H30.0V-182.0V0.0Z"/></g>
<g fill="black" opacity=".8" transform="translate(1300 1600) scale(0.1 -0.1)"><path d="M0.0 0.0V-184.0H-2.0V-526.0H26.0V-184.0V0.0Z"/></g>
<g fill="red" transform="translate(1400 1600) scale(0.1 -0.1)"><path d="M0.0 0.0V-186.0H-11.0V-539.0H106.0V-186.0H95.0V0.0Z"/></g>
<g fill="black" opacity=".8" transform="translate(1400 1600) scale(0.1 -0.1)"><path d="M0.0 0.0V-185.0H-8.0V-540.0H105.0V-186.0H99.0V0.0Z"/></g>
<g fill="red" transform="translate(1500 1600) scale(0.1 -0.1)"><path d="M0.0 0.0V-182.0V-528.0H29.0V-182.0V0.0Z"/></g>
<g fill="black" opacity=".8" transform="translate(1500 1600) scale(0.1 -0.1)"><path d="M0.0 0.0V-184.0H-2.0V-527.0H26.0V-184.0V0.0Z"/></g>
<g fill="red" transform="translate(1600 1600) scale(0.1 -0.1)"><path d="M0.0 0.0V-186.0H-12.0V-539.0H109.0V-186.0H98.0V0.0Z"/></g>
<g fill="black" opacity=".8" transform="translate(1600 1600) scale(0.1 -0.1)"><path d="M0.0 0.0V-185.0H-10.0V-540.0H109.0V-186.0H101.0V0.0Z"/></g>
<g fill="red" transform="translate(100 1700) scale(0.1 -0.1)"><path d="M0.0 0.0V-182.0V-528.0H26.0V-182.0V0.0Z"/></g>
<g fill="black" opacity=".8" transform="translate(100 1700) scale(0.1 -0.1)"><path d="M0.0 0.0V-183.0H-2.0V-527.0H24.0V-183.0H23.0V0.0Z"/></g>
<g fill="red" transform="translate(200 1700) scale(0.1 -0.1)"><path d="M0.0 0.0V-186.0H-11.0V-539.0H106.0V-186.0H95.0V0.0Z"/></g>
<g fill="black" opacity=".8" transform="translate(200 1700) scale(0.1 -0.1)"><path d="M0.0 0.0V-185.0H-9.0V-540.0H106.0V-186.0H98.0V0.0Z"/></g>
<g fill="red" transform="translate(300 1700) scale(0.1 -0.1)"><path d="M0.0 0.0V-182.0V-528.0H27.0V-182.0V0.0Z"/></g>
<g fill="black" opacity=".8" transform="translate(300 1700) scale(0.1 -0.1)"><path d="M0.0 0.0V-184.0H-2.0V-527.0H23.0V-184.0V0.0Z"/></g>
<g fill="red" transform="translate(400 1700) scale(0.1 -0.1)"><path d="M0.0 0.0V-186.0H-13.0V-539.0H105.0V-186.0H92.0V0.0Z"/></g>
<g fill="black" opacity=".8" transform="translate(400 1700) scale(0.1 -0.1)"><path d="M0.0 0.0V-185.0H-10.0V-540.0H104.0V-186.0H96.0V0.0Z"/></g>
<g fill="red" transform="translate(500 1700) scale(0.1 -0.1)"><path d="M0.0 0.0V-182.0V-528.0H30.0V-182.0V0.0Z"/></g>
<g fill="black" opacity=".8" transform="translate(500 1700) scale(0.1 -0.1)"><path d="M0.0 0.0V-185.0H-2.0V-526.0H23.0V-185.0H24.0V0.0Z"/></g>
<g fill="red" transform="translate(600 1700) scale(0.1 -0.1)"><path d="M0.0 0.0V-186.0H-13.0V-539.0H100.0V-186.0H87.0V0.0Z"/></g>
<g fill="black" opacity=".8" transform="translate(600 1700) scale(0.1 -0.1)"><path d="M0.0 0.0V-184.0H-8.0V-541.0H99.0V-185.0H94.0V0.0Z"/></g>
<g fill="red" transform="translate(700 1700) scale(0.1 -0.1)"><path d="M0.0 0.0V-182.0V-528.0H29.0V-182.0V0.0Z"/></g>
<g fill="black" opacity=".8" transform="translate(700 1700) scale(0.1 -0.1)"><path d="M0.0 0.0V-185.0H-2.0V-526.0H23.0V-185.0V0.0Z"/></g>
<g fill="red" transform="translate(800 1700) scale(0.1 -0.1)"><path d="M0.0 0.0V-186.0H-13.0V-539.0H101.0V-186.0H87.0V0.0Z"/></g>
<g fill="black" opacity=".8" transform="translate(800 1700) scale(0.1 -0.1)"><path d="M0.0 0.0V-184.0H-9.0V-540.0H100.0V-185.0H94.0V0.0Z"/></g>
<g fill="red" transform="translate(900 1700) scale(0.1 -0.1)"><path d="M0.0 0.0V-169.0V-314.0H30.0V-169.0V0.0Z"/></g>
<g fill="black" opacity=".8" transform="translate(900 1700) scale(0.1 -0.1)"><path d="M0.0 0.0V-169.0H1.0V-315.0H31.0V-169.0H32.0V0.0Z"/></g>
<g fill="red" transform="translate(1000 1700) scale(0.1 -0.1)"><path d="M0.0 0.0V-172.0H-12.0V-344.0H102.0V-172.0H90.0V0.0Z"/></g>
<g fill="black" opacity=".8" transform="translate(1000 1700) scale(0.1 -0.1)"><path d="M0.0 0.0V-173.0H-15.0V-343.0H102.0V-173.0H88.0V0.0Z"/></g>
<g fill="red" transform="translate(1100 1700) scale(0.1 -0.1)"><path d="M0.0 0.0V-208.0V-430.0H29.0V-208.0V0.0Z"/></g>
<g fill="black" opacity=".8" transform="translate(1100 1700) scale(0.1 -0.1)"><path d="M0.0 0.0V-209.0H-1.0V-430.0H28.0V-209.0V0.0Z"/></g>
<g fill="red" transform="translate(1200 1700) scale(0.1 -0.1)"><path d="M0.0 0.0V-199.0H-17.0V-415.0H111.0V-199.0H94.0V0.0Z"/></g>
<g fill="black" opacity=".8" transform="translate(1200 1700) scale(0.1 -0.1)"><path d="M0.0 0.0V-199.0H-17.0V-415.0H111.0V-199.0H95.0V0.0Z"/></g>
</svg>
