<?xml version="1.0" encoding="UTF-8"?>
<svg width="1700" height="300" xmlns="http://www.w3.org/2000/svg">
<rect width="100%" height="100%" fill="white"/>
<g fill="green" transform="translate(100 100) scale(0.1 -0.1)"><path d="M0.0 0.0V-29.0H556.0V-162.0H0.0V-191.0H586.0V0.0ZM-149.0 292.0V263.0H702.0V292.0ZM-19.0 -324.0V-354.0H665.0V-324.0ZM-19.0 0.0V-340.0H10.0V0.0ZM-2.0 -79.0V-109.0H572.0V-79.0ZM154.0 280.0V55.0H184.0V280.0ZM374.0 284.0V98.0C374.0 90.0 372.0 87.0 362.0 86.0C352.0 85.0 324.0 85.0 283.0 86.0C288.0 77.0 294.0 67.0 296.0 58.0C341.0 58.0 369.0 58.0 385.0 64.0C400.0 69.0 404.0 79.0 404.0 98.0V284.0ZM652.0 -324.0V-330.0C637.0 -433.0 622.0 -476.0 603.0 -491.0C597.0 -497.0 588.0 -498.0 573.0 -498.0C557.0 -498.0 515.0 -498.0 470.0 -493.0C475.0 -502.0 478.0 -514.0 479.0 -521.0C520.0 -525.0 559.0 -525.0 577.0 -525.0C599.0 -525.0 611.0 -522.0 624.0 -513.0C647.0 -494.0 662.0 -449.0 680.0 -343.0C682.0 -336.0 683.0 -324.0 683.0 -324.0ZM252.0 75.0C243.0 52.0 222.0 14.0 206.0 -10.0L232.0 -20.0C248.0 4.0 264.0 33.0 281.0 65.0ZM496.0 214.0C554.0 167.0 627.0 95.0 662.0 49.0L687.0 65.0C653.0 110.0 581.0 179.0 520.0 227.0ZM11.0 223.0C-24.0 158.0 -81.0 94.0 -140.0 50.0C-132.0 45.0 -119.0 35.0 -114.0 31.0C-58.0 77.0 3.0 146.0 40.0 216.0Z"/></g>
<g fill="green" transform="translate(200 100) scale(0.1 -0.1)"><path d="M0.0 0.0V-69.0H409.0V-173.0H0.0V-242.0H550.0V0.0ZM-228.0 305.0V192.0H646.0V305.0ZM-111.0 -354.0V-427.0H520.0V-354.0ZM-111.0 0.0V-405.0H30.0V0.0ZM9.0 -91.0V-150.0H437.0V-91.0ZM25.0 262.0V41.0H157.0V262.0ZM278.0 255.0V151.0C278.0 142.0 274.0 140.0 265.0 139.0C256.0 139.0 225.0 139.0 203.0 141.0C217.0 108.0 232.0 64.0 236.0 28.0C290.0 28.0 335.0 28.0 370.0 46.0C406.0 64.0 415.0 94.0 415.0 149.0V255.0ZM511.0 -354.0V-367.0C503.0 -445.0 491.0 -481.0 480.0 -493.0C472.0 -500.0 466.0 -501.0 454.0 -501.0C441.0 -501.0 417.0 -501.0 390.0 -497.0C403.0 -521.0 414.0 -558.0 415.0 -582.0C458.0 -585.0 497.0 -584.0 520.0 -582.0C545.0 -580.0 570.0 -574.0 590.0 -555.0C612.0 -534.0 627.0 -488.0 639.0 -395.0C641.0 -380.0 643.0 -354.0 643.0 -354.0ZM132.0 55.0C130.0 32.0 122.0 2.0 115.0 -28.0L233.0 -41.0C248.0 -18.0 273.0 14.0 291.0 53.0ZM429.0 137.0C476.0 102.0 535.0 45.0 563.0 7.0L672.0 71.0C641.0 106.0 584.0 158.0 533.0 192.0ZM-137.0 185.0C-162.0 137.0 -210.0 87.0 -262.0 54.0C-229.0 41.0 -172.0 15.0 -143.0 -6.0C-96.0 32.0 -41.0 92.0 -10.0 152.0Z"/></g>
<g fill="green" transform="translate(300 100) scale(0.1 -0.1)"><path d="M0.0 0.0V-29.0H556.0V-162.0H0.0V-191.0H586.0V0.0ZM-149.0 292.0V263.0H702.0V292.0ZM-19.0 -324.0V-354.0H665.0V-324.0ZM-19.0 0.0V-340.0H10.0V0.0ZM-2.0 -79.0V-109.0H572.0V-79.0ZM154.0 280.0V55.0H184.0V280.0ZM374.0 284.0V98.0C374.0 90.0 372.0 87.0 362.0 86.0C352.0 85.0 324.0 85.0 283.0 86.0C288.0 77.0 294.0 67.0 296.0 58.0C341.0 58.0 369.0 58.0 385.0 64.0C400.0 69.0 404.0 79.0 404.0 98.0V284.0ZM652.0 -324.0V-330.0C637.0 -433.0 622.0 -476.0 603.0 -491.0C597.0 -497.0 588.0 -498.0 573.0 -498.0C557.0 -498.0 515.0 -498.0 470.0 -493.0C475.0 -502.0 478.0 -514.0 479.0 -521.0C520.0 -525.0 559.0 -525.0 577.0 -525.0C599.0 -525.0 611.0 -522.0 624.0 -513.0C647.0 -494.0 662.0 -449.0 680.0 -343.0C682.0 -336.0 683.0 -324.0 683.0 -324.0ZM252.0 75.0C243.0 52.0 222.0 14.0 206.0 -10.0L232.0 -20.0C248.0 4.0 264.0 33.0 281.0 65.0ZM496.0 214.0C554.0 167.0 627.0 95.0 662.0 49.0L687.0 65.0C653.0 110.0 581.0 179.0 520.0 227.0ZM11.0 223.0C-24.0 158.0 -81.0 94.0 -140.0 50.0C-132.0 45.0 -119.0 35.0 -114.0 31.0C-58.0 77.0 3.0 146.0 40.0 216.0Z"/></g>
<g fill="green" transform="translate(400 100) scale(0.1 -0.1)"><path d="M0.0 0.0V-69.0H409.0V-173.0H0.0V-242.0H550.0V0.0ZM-228.0 305.0V192.0H646.0V305.0ZM-111.0 -354.0V-427.0H520.0V-354.0ZM-111.0 0.0V-405.0H30.0V0.0ZM9.0 -91.0V-150.0H437.0V-91.0ZM25.0 262.0V41.0H157.0V262.0ZM278.0 255.0V151.0C278.0 142.0 274.0 140.0 265.0 139.0C256.0 139.0 225.0 139.0 203.0 141.0C217.0 108.0 232.0 64.0 236.0 28.0C290.0 28.0 335.0 28.0 370.0 46.0C406.0 64.0 415.0 94.0 415.0 149.0V255.0ZM511.0 -354.0V-367.0C503.0 -445.0 491.0 -481.0 480.0 -493.0C472.0 -500.0 466.0 -501.0 454.0 -501.0C441.0 -501.0 417.0 -501.0 390.0 -497.0C403.0 -521.0 414.0 -558.0 415.0 -582.0C458.0 -585.0 497.0 -584.0 520.0 -582.0C545.0 -580.0 570.0 -574.0 590.0 -555.0C612.0 -534.0 627.0 -488.0 639.0 -395.0C641.0 -380.0 643.0 -354.0 643.0 -354.0ZM132.0 55.0C130.0 32.0 122.0 2.0 115.0 -28.0L233.0 -41.0C248.0 -18.0 273.0 14.0 291.0 53.0ZM429.0 137.0C476.0 102.0 535.0 45.0 563.0 7.0L672.0 71.0C641.0 106.0 584.0 158.0 533.0 192.0ZM-137.0 185.0C-162.0 137.0 -210.0 87.0 -262.0 54.0C-229.0 41.0 -172.0 15.0 -143.0 -6.0C-96.0 32.0 -41.0 92.0 -10.0 152.0Z"/></g>
<g fill="red" transform="translate(100 200) scale(0.1 -0.1)"><path d="M0.0 0.0V-29.0H556.0V-162.0H0.0V-191.0H586.0V0.0ZM-149.0 292.0V263.0H702.0V292.0ZM-19.0 -324.0V-354.0H665.0V-324.0ZM-19.0 0.0V-340.0H10.0V0.0ZM-2.0 -79.0V-109.0H572.0V-79.0ZM154.0 280.0V55.0H184.0V280.0ZM374.0 284.0V98.0C374.0 90.0 372.0 87.0 362.0 86.0C352.0 85.0 324.0 85.0 283.0 86.0C288.0 77.0 294.0 67.0 296.0 58.0C341.0 58.0 369.0 58.0 385.0 64.0C400.0 69.0 404.0 79.0 404.0 98.0V284.0ZM652.0 -324.0V-330.0C637.0 -433.0 622.0 -476.0 603.0 -491.0C597.0 -497.0 588.0 -498.0 573.0 -498.0C557.0 -498.0 515.0 -498.0 470.0 -493.0C475.0 -502.0 478.0 -514.0 479.0 -521.0C520.0 -525.0 559.0 -525.0 577.0 -525.0C599.0 -525.0 611.0 -522.0 624.0 -513.0C647.0 -494.0 662.0 -449.0 680.0 -343.0C682.0 -336.0 683.0 -324.0 683.0 -324.0ZM252.0 75.0C243.0 52.0 222.0 14.0 206.0 -10.0L232.0 -20.0C248.0 4.0 264.0 33.0 281.0 65.0ZM496.0 214.0C554.0 167.0 627.0 95.0 662.0 49.0L687.0 65.0C653.0 110.0 581.0 179.0 520.0 227.0ZM11.0 223.0C-24.0 158.0 -81.0 94.0 -140.0 50.0C-132.0 45.0 -119.0 35.0 -114.0 31.0C-58.0 77.0 3.0 146.0 40.0 216.0Z"/></g>
<g fill="black" opacity=".8" transform="translate(100 200) scale(0.1 -0.1)"><path d="M0.0 0.0V-29.0H556.0V-162.0H0.0V-191.0H586.0V0.0ZM-149.0 292.0V263.0H702.0V292.0ZM-19.0 -324.0V-354.0H665.0V-324.0ZM-19.0 0.0V-340.0H10.0V0.0ZM-2.0 -79.0V-109.0H572.0V-79.0ZM154.0 280.0V55.0H184.0V280.0ZM374.0 284.0V98.0C374.0 90.0 372.0 87.0 362.0 86.0C352.0 85.0 324.0 85.0 283.0 86.0C288.0 77.0 294.0 67.0 296.0 58.0C341.0 58.0 369.0 58.0 385.0 64.0C400.0 69.0 404.0 79.0 404.0 98.0V284.0ZM652.0 -324.0V-330.0C637.0 -433.0 622.0 -476.0 603.0 -491.0C597.0 -497.0 588.0 -498.0 573.0 -498.0C557.0 -498.0 515.0 -498.0 470.0 -493.0C475.0 -502.0 478.0 -514.0 479.0 -521.0C520.0 -525.0 559.0 -525.0 577.0 -525.0C599.0 -525.0 611.0 -522.0 624.0 -513.0C647.0 -494.0 662.0 -449.0 680.0 -343.0C682.0 -336.0 683.0 -324.0 683.0 -324.0ZM252.0 75.0C243.0 52.0 222.0 14.0 206.0 -10.0L232.0 -20.0C248.0 4.0 264.0 33.0 281.0 65.0ZM496.0 214.0C554.0 167.0 627.0 95.0 662.0 49.0L687.0 65.0C653.0 110.0 581.0 179.0 520.0 227.0ZM11.0 223.0C-24.0 158.0 -81.0 94.0 -140.0 50.0C-132.0 45.0 -119.0 35.0 -114.0 31.0C-58.0 77.0 3.0 146.0 40.0 216.0Z"/></g>
<g fill="red" transform="translate(200 200) scale(0.1 -0.1)"><path d="M0.0 0.0V-69.0H409.0V-173.0H0.0V-242.0H550.0V0.0ZM-228.0 305.0V192.0H646.0V305.0ZM-111.0 -354.0V-427.0H520.0V-354.0ZM-111.0 0.0V-405.0H30.0V0.0ZM9.0 -91.0V-150.0H437.0V-91.0ZM25.0 262.0V41.0H157.0V262.0ZM278.0 255.0V151.0C278.0 142.0 274.0 140.0 265.0 139.0C256.0 139.0 225.0 139.0 203.0 141.0C217.0 108.0 232.0 64.0 236.0 28.0C290.0 28.0 335.0 28.0 370.0 46.0C406.0 64.0 415.0 94.0 415.0 149.0V255.0ZM511.0 -354.0V-367.0C503.0 -445.0 491.0 -481.0 480.0 -493.0C472.0 -500.0 466.0 -501.0 454.0 -501.0C441.0 -501.0 417.0 -501.0 390.0 -497.0C403.0 -521.0 414.0 -558.0 415.0 -582.0C458.0 -585.0 497.0 -584.0 520.0 -582.0C545.0 -580.0 570.0 -574.0 590.0 -555.0C612.0 -534.0 627.0 -488.0 639.0 -395.0C641.0 -380.0 643.0 -354.0 643.0 -354.0ZM132.0 55.0C130.0 32.0 122.0 2.0 115.0 -28.0L233.0 -41.0C248.0 -18.0 273.0 14.0 291.0 53.0ZM429.0 137.0C476.0 102.0 535.0 45.0 563.0 7.0L672.0 71.0C641.0 106.0 584.0 158.0 533.0 192.0ZM-137.0 185.0C-162.0 137.0 -210.0 87.0 -262.0 54.0C-229.0 41.0 -172.0 15.0 -143.0 -6.0C-96.0 32.0 -41.0 92.0 -10.0 152.0Z"/></g>
<g fill="black" opacity=".8" transform="translate(200 200) scale(0.1 -0.1)"><path d="M0.0 0.0V-69.0H409.0V-173.0H0.0V-242.0H550.0V0.0ZM-228.0 305.0V192.0H646.0V305.0ZM-111.0 -354.0V-427.0H520.0V-354.0ZM-111.0 0.0V-405.0H30.0V0.0ZM9.0 -91.0V-150.0H437.0V-91.0ZM25.0 262.0V41.0H157.0V262.0ZM278.0 255.0V151.0C278.0 142.0 274.0 140.0 265.0 139.0C256.0 139.0 225.0 139.0 203.0 141.0C217.0 108.0 232.0 64.0 236.0 28.0C290.0 28.0 335.0 28.0 370.0 46.0C406.0 64.0 415.0 94.0 415.0 149.0V255.0ZM511.0 -354.0V-367.0C503.0 -445.0 491.0 -481.0 480.0 -493.0C472.0 -500.0 466.0 -501.0 454.0 -501.0C441.0 -501.0 417.0 -501.0 390.0 -497.0C403.0 -521.0 414.0 -558.0 415.0 -582.0C458.0 -585.0 497.0 -584.0 520.0 -582.0C545.0 -580.0 570.0 -574.0 590.0 -555.0C612.0 -534.0 627.0 -488.0 639.0 -395.0C641.0 -380.0 643.0 -354.0 643.0 -354.0ZM132.0 55.0C130.0 32.0 122.0 2.0 115.0 -28.0L233.0 -41.0C248.0 -18.0 273.0 14.0 291.0 53.0ZM429.0 137.0C476.0 102.0 535.0 45.0 563.0 7.0L672.0 71.0C641.0 106.0 584.0 158.0 533.0 192.0ZM-137.0 185.0C-162.0 137.0 -210.0 87.0 -262.0 54.0C-229.0 41.0 -172.0 15.0 -143.0 -6.0C-96.0 32.0 -41.0 92.0 -10.0 152.0Z"/></g>
</svg>
