<?xml version="1.0" encoding="UTF-8"?>
<svg width="1700" height="300" xmlns="http://www.w3.org/2000/svg">
<rect width="100%" height="100%" fill="white"/>
<g fill="green" transform="translate(100 100) scale(0.1 -0.1)"><path d="M0.0 0.0V-538.0H28.0V0.0ZM-410.0 -392.0 -401.0 -423.0C-320.0 -395.0 -211.0 -357.0 -105.0 -321.0L-109.0 -291.0C-221.0 -330.0 -335.0 -369.0 -410.0 -392.0ZM151.0 364.0C95.0 152.0 -2.0 -34.0 -134.0 -151.0C-127.0 -157.0 -117.0 -170.0 -113.0 -176.0C21.0 -49.0 120.0 136.0 180.0 357.0Z"/></g>
<g fill="green" transform="translate(200 100) scale(0.1 -0.1)"><path d="M0.0 0.0V-563.0H128.0V0.0ZM-414.0 -330.0 -391.0 -468.0C-299.0 -441.0 -181.0 -406.0 -74.0 -372.0L-89.0 -242.0C-205.0 -276.0 -330.0 -311.0 -414.0 -330.0ZM131.0 388.0C85.0 185.0 -2.0 -2.0 -123.0 -111.0C-93.0 -135.0 -39.0 -188.0 -17.0 -216.0C110.0 -85.0 210.0 128.0 267.0 359.0Z"/></g>
<g fill="green" transform="translate(300 100) scale(0.1 -0.1)"><path d="M0.0 0.0V-538.0H28.0V0.0ZM-410.0 -392.0 -401.0 -423.0C-320.0 -395.0 -211.0 -357.0 -105.0 -321.0L-109.0 -291.0C-221.0 -330.0 -335.0 -369.0 -410.0 -392.0ZM151.0 364.0C95.0 152.0 -2.0 -34.0 -134.0 -151.0C-127.0 -157.0 -117.0 -170.0 -113.0 -176.0C21.0 -49.0 120.0 136.0 180.0 357.0Z"/></g>
<g fill="green" transform="translate(400 100) scale(0.1 -0.1)"><path d="M0.0 0.0V-563.0H128.0V0.0ZM-414.0 -330.0 -391.0 -468.0C-299.0 -441.0 -181.0 -406.0 -74.0 -372.0L-89.0 -242.0C-205.0 -276.0 -330.0 -311.0 -414.0 -330.0ZM131.0 388.0C85.0 185.0 -2.0 -2.0 -123.0 -111.0C-93.0 -135.0 -39.0 -188.0 -17.0 -216.0C110.0 -85.0 210.0 128.0 267.0 359.0Z"/></g>
<g fill="red" transform="translate(100 200) scale(0.1 -0.1)"><path d="M0.0 0.0V-538.0H28.0V0.0ZM-410.0 -392.0 -401.0 -423.0C-320.0 -395.0 -211.0 -357.0 -105.0 -321.0L-109.0 -291.0C-221.0 -330.0 -335.0 -369.0 -410.0 -392.0ZM151.0 364.0C95.0 152.0 -2.0 -34.0 -134.0 -151.0C-127.0 -157.0 -117.0 -170.0 -113.0 -176.0C21.0 -49.0 120.0 136.0 180.0 357.0Z"/></g>
<g fill="black" opacity=".8" transform="translate(100 200) scale(0.1 -0.1)"><path d="M0.0 0.0V-538.0H28.0V0.0ZM-410.0 -392.0 -401.0 -423.0C-320.0 -395.0 -211.0 -357.0 -105.0 -321.0L-109.0 -291.0C-221.0 -330.0 -335.0 -369.0 -410.0 -392.0ZM151.0 364.0C95.0 152.0 -2.0 -34.0 -134.0 -151.0C-127.0 -157.0 -117.0 -170.0 -113.0 -176.0C21.0 -49.0 120.0 136.0 180.0 357.0Z"/></g>
<g fill="red" transform="translate(200 200) scale(0.1 -0.1)"><path d="M0.0 0.0V-563.0H128.0V0.0ZM-414.0 -330.0 -391.0 -468.0C-299.0 -441.0 -181.0 -406.0 -74.0 -372.0L-89.0 -242.0C-205.0 -276.0 -330.0 -311.0 -414.0 -330.0ZM131.0 388.0C85.0 185.0 -2.0 -2.0 -123.0 -111.0C-93.0 -135.0 -39.0 -188.0 -17.0 -216.0C110.0 -85.0 210.0 128.0 267.0 359.0Z"/></g>
<g fill="black" opacity=".8" transform="translate(200 200) scale(0.1 -0.1)"><path d="M0.0 0.0V-563.0H128.0V0.0ZM-414.0 -330.0 -391.0 -468.0C-299.0 -441.0 -181.0 -406.0 -74.0 -372.0L-89.0 -242.0C-205.0 -276.0 -330.0 -311.0 -414.0 -330.0ZM131.0 388.0C85.0 185.0 -2.0 -2.0 -123.0 -111.0C-93.0 -135.0 -39.0 -188.0 -17.0 -216.0C110.0 -85.0 210.0 128.0 267.0 359.0Z"/></g>
</svg>
