<?xml version="1.0" encoding="UTF-8"?>
<svg width="1700" height="300" xmlns="http://www.w3.org/2000/svg">
<rect width="100%" height="100%" fill="white"/>
<g fill="green" transform="translate(100 100) scale(0.1 -0.1)"><path d="M0.0 0.0V-29.0H298.0V-243.0H0.0V-272.0H327.0V0.0ZM-509.0 -633.0V-662.0H-44.0V-633.0ZM-484.0 -510.0V-540.0H-83.0V-510.0ZM-479.0 33.0V-264.0H-70.0V33.0ZM-451.0 -129.0H-98.0V-235.0H-451.0ZM-451.0 4.0H-98.0V-100.0H-451.0ZM-414.0 -245.0V-527.0H-383.0V-245.0ZM-282.0 28.0V-824.0H-254.0V28.0ZM-159.0 -245.0V-523.0H-129.0V-245.0ZM-14.0 -463.0V-493.0H353.0V-463.0ZM-14.0 0.0V-481.0H15.0V0.0ZM-4.0 -353.0V-382.0H389.0V-353.0ZM-1.0 -120.0V-150.0H312.0V-120.0ZM345.0 -463.0V-470.0C332.0 -676.0 318.0 -752.0 300.0 -772.0C294.0 -780.0 286.0 -781.0 272.0 -781.0C259.0 -781.0 224.0 -780.0 186.0 -777.0C191.0 -785.0 194.0 -798.0 194.0 -805.0C226.0 -808.0 260.0 -808.0 277.0 -808.0C299.0 -808.0 311.0 -803.0 323.0 -791.0C347.0 -765.0 359.0 -695.0 373.0 -483.0C374.0 -476.0 374.0 -463.0 374.0 -463.0ZM139.0 94.0C130.0 66.0 111.0 21.0 97.0 -8.0L121.0 -18.0C136.0 8.0 153.0 46.0 168.0 81.0Z"/></g>
<g fill="green" transform="translate(200 100) scale(0.1 -0.1)"><path d="M0.0 0.0V-95.0H205.0V-230.0H0.0V-325.0H328.0V0.0ZM-538.0 -646.0V-749.0H-72.0V-646.0ZM-513.0 -512.0V-617.0H-83.0V-512.0ZM-514.0 44.0V-312.0H-80.0V44.0ZM-403.0 -179.0H-197.0V-214.0H-403.0ZM-403.0 -54.0H-197.0V-88.0H-403.0ZM-479.0 -272.0V-574.0H-381.0V-272.0ZM-358.0 9.0V-855.0H-243.0V9.0ZM-218.0 -272.0V-574.0H-121.0V-272.0ZM-55.0 -475.0V-579.0H306.0V-475.0ZM-55.0 0.0V-527.0H68.0V0.0ZM0.0 -350.0V-448.0H389.0V-350.0ZM5.0 -121.0V-204.0H280.0V-121.0ZM265.0 -475.0V-492.0C260.0 -672.0 252.0 -737.0 241.0 -754.0C233.0 -763.0 226.0 -765.0 215.0 -765.0C203.0 -765.0 183.0 -765.0 158.0 -762.0C173.0 -788.0 184.0 -829.0 185.0 -858.0C220.0 -859.0 254.0 -858.0 275.0 -855.0C300.0 -851.0 320.0 -843.0 338.0 -820.0C360.0 -792.0 368.0 -713.0 376.0 -516.0C376.0 -503.0 377.0 -475.0 377.0 -475.0ZM72.0 92.0C69.0 53.0 60.0 -1.0 50.0 -41.0L167.0 -60.0C182.0 -26.0 204.0 24.0 224.0 78.0Z"/></g>
<g fill="green" transform="translate(300 100) scale(0.1 -0.1)"><path d="M0.0 0.0V-29.0H298.0V-243.0H0.0V-272.0H327.0V0.0ZM-509.0 -633.0V-662.0H-44.0V-633.0ZM-484.0 -510.0V-540.0H-83.0V-510.0ZM-479.0 33.0V-264.0H-70.0V33.0ZM-451.0 -129.0H-98.0V-235.0H-451.0ZM-451.0 4.0H-98.0V-100.0H-451.0ZM-414.0 -245.0V-527.0H-383.0V-245.0ZM-282.0 28.0V-824.0H-254.0V28.0ZM-159.0 -245.0V-523.0H-129.0V-245.0ZM-14.0 -463.0V-493.0H353.0V-463.0ZM-14.0 0.0V-481.0H15.0V0.0ZM-4.0 -353.0V-382.0H389.0V-353.0ZM-1.0 -120.0V-150.0H312.0V-120.0ZM345.0 -463.0V-470.0C332.0 -676.0 318.0 -752.0 300.0 -772.0C294.0 -780.0 286.0 -781.0 272.0 -781.0C259.0 -781.0 224.0 -780.0 186.0 -777.0C191.0 -785.0 194.0 -798.0 194.0 -805.0C226.0 -808.0 260.0 -808.0 277.0 -808.0C299.0 -808.0 311.0 -803.0 323.0 -791.0C347.0 -765.0 359.0 -695.0 373.0 -483.0C374.0 -476.0 374.0 -463.0 374.0 -463.0ZM139.0 94.0C130.0 66.0 111.0 21.0 97.0 -8.0L121.0 -18.0C136.0 8.0 153.0 46.0 168.0 81.0Z"/></g>
<g fill="green" transform="translate(400 100) scale(0.1 -0.1)"><path d="M0.0 0.0V-95.0H205.0V-230.0H0.0V-325.0H328.0V0.0ZM-538.0 -646.0V-749.0H-72.0V-646.0ZM-513.0 -512.0V-617.0H-83.0V-512.0ZM-514.0 44.0V-312.0H-80.0V44.0ZM-403.0 -179.0H-197.0V-214.0H-403.0ZM-403.0 -54.0H-197.0V-88.0H-403.0ZM-479.0 -272.0V-574.0H-381.0V-272.0ZM-358.0 9.0V-855.0H-243.0V9.0ZM-218.0 -272.0V-574.0H-121.0V-272.0ZM-55.0 -475.0V-579.0H306.0V-475.0ZM-55.0 0.0V-527.0H68.0V0.0ZM0.0 -350.0V-448.0H389.0V-350.0ZM5.0 -121.0V-204.0H280.0V-121.0ZM265.0 -475.0V-492.0C260.0 -672.0 252.0 -737.0 241.0 -754.0C233.0 -763.0 226.0 -765.0 215.0 -765.0C203.0 -765.0 183.0 -765.0 158.0 -762.0C173.0 -788.0 184.0 -829.0 185.0 -858.0C220.0 -859.0 254.0 -858.0 275.0 -855.0C300.0 -851.0 320.0 -843.0 338.0 -820.0C360.0 -792.0 368.0 -713.0 376.0 -516.0C376.0 -503.0 377.0 -475.0 377.0 -475.0ZM72.0 92.0C69.0 53.0 60.0 -1.0 50.0 -41.0L167.0 -60.0C182.0 -26.0 204.0 24.0 224.0 78.0Z"/></g>
<g fill="red" transform="translate(100 200) scale(0.1 -0.1)"><path d="M0.0 0.0V-29.0H298.0V-243.0H0.0V-272.0H327.0V0.0ZM-509.0 -633.0V-662.0H-44.0V-633.0ZM-484.0 -510.0V-540.0H-83.0V-510.0ZM-479.0 33.0V-264.0H-70.0V33.0ZM-451.0 -129.0H-98.0V-235.0H-451.0ZM-451.0 4.0H-98.0V-100.0H-451.0ZM-414.0 -245.0V-527.0H-383.0V-245.0ZM-282.0 28.0V-824.0H-254.0V28.0ZM-159.0 -245.0V-523.0H-129.0V-245.0ZM-14.0 -463.0V-493.0H353.0V-463.0ZM-14.0 0.0V-481.0H15.0V0.0ZM-4.0 -353.0V-382.0H389.0V-353.0ZM-1.0 -120.0V-150.0H312.0V-120.0ZM345.0 -463.0V-470.0C332.0 -676.0 318.0 -752.0 300.0 -772.0C294.0 -780.0 286.0 -781.0 272.0 -781.0C259.0 -781.0 224.0 -780.0 186.0 -777.0C191.0 -785.0 194.0 -798.0 194.0 -805.0C226.0 -808.0 260.0 -808.0 277.0 -808.0C299.0 -808.0 311.0 -803.0 323.0 -791.0C347.0 -765.0 359.0 -695.0 373.0 -483.0C374.0 -476.0 374.0 -463.0 374.0 -463.0ZM139.0 94.0C130.0 66.0 111.0 21.0 97.0 -8.0L121.0 -18.0C136.0 8.0 153.0 46.0 168.0 81.0Z"/></g>
<g fill="black" opacity=".8" transform="translate(100 200) scale(0.1 -0.1)"><path d="M0.0 0.0V-29.0H298.0V-243.0H0.0V-272.0H327.0V0.0ZM-509.0 -633.0V-662.0H-44.0V-633.0ZM-484.0 -510.0V-540.0H-83.0V-510.0ZM-479.0 33.0V-264.0H-70.0V33.0ZM-451.0 -129.0H-98.0V-235.0H-451.0ZM-451.0 4.0H-98.0V-100.0H-451.0ZM-414.0 -245.0V-527.0H-383.0V-245.0ZM-282.0 28.0V-824.0H-254.0V28.0ZM-159.0 -245.0V-523.0H-129.0V-245.0ZM-14.0 -463.0V-493.0H353.0V-463.0ZM-14.0 0.0V-481.0H15.0V0.0ZM-4.0 -353.0V-382.0H389.0V-353.0ZM-1.0 -120.0V-150.0H312.0V-120.0ZM345.0 -463.0V-470.0C332.0 -676.0 318.0 -752.0 300.0 -772.0C294.0 -780.0 286.0 -781.0 272.0 -781.0C259.0 -781.0 224.0 -780.0 186.0 -777.0C191.0 -785.0 194.0 -798.0 194.0 -805.0C226.0 -808.0 260.0 -808.0 277.0 -808.0C299.0 -808.0 311.0 -803.0 323.0 -791.0C347.0 -765.0 359.0 -695.0 373.0 -483.0C374.0 -476.0 374.0 -463.0 374.0 -463.0ZM139.0 94.0C130.0 66.0 111.0 21.0 97.0 -8.0L121.0 -18.0C136.0 8.0 153.0 46.0 168.0 81.0Z"/></g>
<g fill="red" transform="translate(200 200) scale(0.1 -0.1)"><path d="M0.0 0.0V-95.0H205.0V-230.0H0.0V-325.0H328.0V0.0ZM-538.0 -646.0V-749.0H-72.0V-646.0ZM-513.0 -512.0V-617.0H-83.0V-512.0ZM-514.0 44.0V-312.0H-80.0V44.0ZM-403.0 -179.0H-197.0V-214.0H-403.0ZM-403.0 -54.0H-197.0V-88.0H-403.0ZM-479.0 -272.0V-574.0H-381.0V-272.0ZM-358.0 9.0V-855.0H-243.0V9.0ZM-218.0 -272.0V-574.0H-121.0V-272.0ZM-55.0 -475.0V-579.0H306.0V-475.0ZM-55.0 0.0V-527.0H68.0V0.0ZM0.0 -350.0V-448.0H389.0V-350.0ZM5.0 -121.0V-204.0H280.0V-121.0ZM265.0 -475.0V-492.0C260.0 -672.0 252.0 -737.0 241.0 -754.0C233.0 -763.0 226.0 -765.0 215.0 -765.0C203.0 -765.0 183.0 -765.0 158.0 -762.0C173.0 -788.0 184.0 -829.0 185.0 -858.0C220.0 -859.0 254.0 -858.0 275.0 -855.0C300.0 -851.0 320.0 -843.0 338.0 -820.0C360.0 -792.0 368.0 -713.0 376.0 -516.0C376.0 -503.0 377.0 -475.0 377.0 -475.0ZM72.0 92.0C69.0 53.0 60.0 -1.0 50.0 -41.0L167.0 -60.0C182.0 -26.0 204.0 24.0 224.0 78.0Z"/></g>
<g fill="black" opacity=".8" transform="translate(200 200) scale(0.1 -0.1)"><path d="M0.0 0.0V-95.0H205.0V-230.0H0.0V-325.0H328.0V0.0ZM-538.0 -646.0V-749.0H-72.0V-646.0ZM-513.0 -512.0V-617.0H-83.0V-512.0ZM-514.0 44.0V-312.0H-80.0V44.0ZM-403.0 -179.0H-197.0V-214.0H-403.0ZM-403.0 -54.0H-197.0V-88.0H-403.0ZM-479.0 -272.0V-574.0H-381.0V-272.0ZM-358.0 9.0V-855.0H-243.0V9.0ZM-218.0 -272.0V-574.0H-121.0V-272.0ZM-55.0 -475.0V-579.0H306.0V-475.0ZM-55.0 0.0V-527.0H68.0V0.0ZM0.0 -350.0V-448.0H389.0V-350.0ZM5.0 -121.0V-204.0H280.0V-121.0ZM265.0 -475.0V-492.0C260.0 -672.0 252.0 -737.0 241.0 -754.0C233.0 -763.0 226.0 -765.0 215.0 -765.0C203.0 -765.0 183.0 -765.0 158.0 -762.0C173.0 -788.0 184.0 -829.0 185.0 -858.0C220.0 -859.0 254.0 -858.0 275.0 -855.0C300.0 -851.0 320.0 -843.0 338.0 -820.0C360.0 -792.0 368.0 -713.0 376.0 -516.0C376.0 -503.0 377.0 -475.0 377.0 -475.0ZM72.0 92.0C69.0 53.0 60.0 -1.0 50.0 -41.0L167.0 -60.0C182.0 -26.0 204.0 24.0 224.0 78.0Z"/></g>
</svg>
