<?xml version="1.0" encoding="UTF-8"?>
<svg width="1700" height="300" xmlns="http://www.w3.org/2000/svg">
<rect width="100%" height="100%" fill="white"/>
<g fill="green" transform="translate(100 100) scale(0.1 -0.1)"><path d="M0.0 0.0 5.0 -29.0 191.0 -3.0 186.0 25.0ZM255.0 106.0V99.0C244.0 57.0 227.0 7.0 213.0 -26.0L238.0 -32.0C254.0 1.0 271.0 55.0 286.0 100.0L267.0 108.0L261.0 106.0ZM-230.0 106.0V-165.0C-230.0 -297.0 -239.0 -475.0 -321.0 -606.0C-314.0 -609.0 -301.0 -617.0 -296.0 -622.0C-214.0 -489.0 -201.0 -301.0 -201.0 -165.0V106.0ZM-490.0 37.0C-457.0 2.0 -418.0 -48.0 -399.0 -80.0L-373.0 -64.0C-392.0 -32.0 -431.0 16.0 -466.0 51.0Z"/></g>
<g fill="green" transform="translate(200 100) scale(0.1 -0.1)"><path d="M0.0 0.0 9.0 -72.0 175.0 -53.0 166.0 17.0ZM199.0 139.0V124.0C195.0 74.0 186.0 11.0 177.0 -29.0L281.0 -50.0C296.0 -5.0 312.0 65.0 321.0 127.0L235.0 142.0L216.0 139.0ZM-278.0 139.0V-230.0C-278.0 -343.0 -281.0 -481.0 -334.0 -574.0C-305.0 -588.0 -248.0 -628.0 -226.0 -651.0C-161.0 -544.0 -151.0 -363.0 -151.0 -230.0V139.0ZM-530.0 6.0C-506.0 -24.0 -476.0 -66.0 -462.0 -91.0L-383.0 -35.0C-398.0 -10.0 -428.0 27.0 -454.0 55.0Z"/></g>
<g fill="green" transform="translate(300 100) scale(0.1 -0.1)"><path d="M0.0 0.0 5.0 -29.0 191.0 -3.0 186.0 25.0ZM255.0 106.0V99.0C244.0 57.0 227.0 7.0 213.0 -26.0L238.0 -32.0C254.0 1.0 271.0 55.0 286.0 100.0L267.0 108.0L261.0 106.0ZM-230.0 106.0V-165.0C-230.0 -297.0 -239.0 -475.0 -321.0 -606.0C-314.0 -609.0 -301.0 -617.0 -296.0 -622.0C-214.0 -489.0 -201.0 -301.0 -201.0 -165.0V106.0ZM-490.0 37.0C-457.0 2.0 -418.0 -48.0 -399.0 -80.0L-373.0 -64.0C-392.0 -32.0 -431.0 16.0 -466.0 51.0Z"/></g>
<g fill="green" transform="translate(400 100) scale(0.1 -0.1)"><path d="M0.0 0.0 9.0 -72.0 175.0 -53.0 166.0 17.0ZM199.0 139.0V124.0C195.0 74.0 186.0 11.0 177.0 -29.0L281.0 -50.0C296.0 -5.0 312.0 65.0 321.0 127.0L235.0 142.0L216.0 139.0ZM-278.0 139.0V-230.0C-278.0 -343.0 -281.0 -481.0 -334.0 -574.0C-305.0 -588.0 -248.0 -628.0 -226.0 -651.0C-161.0 -544.0 -151.0 -363.0 -151.0 -230.0V139.0ZM-530.0 6.0C-506.0 -24.0 -476.0 -66.0 -462.0 -91.0L-383.0 -35.0C-398.0 -10.0 -428.0 27.0 -454.0 55.0Z"/></g>
<g fill="red" transform="translate(100 200) scale(0.1 -0.1)"><path d="M0.0 0.0 5.0 -29.0 191.0 -3.0 186.0 25.0ZM255.0 106.0V99.0C244.0 57.0 227.0 7.0 213.0 -26.0L238.0 -32.0C254.0 1.0 271.0 55.0 286.0 100.0L267.0 108.0L261.0 106.0ZM-230.0 106.0V-165.0C-230.0 -297.0 -239.0 -475.0 -321.0 -606.0C-314.0 -609.0 -301.0 -617.0 -296.0 -622.0C-214.0 -489.0 -201.0 -301.0 -201.0 -165.0V106.0ZM-490.0 37.0C-457.0 2.0 -418.0 -48.0 -399.0 -80.0L-373.0 -64.0C-392.0 -32.0 -431.0 16.0 -466.0 51.0Z"/></g>
<g fill="black" opacity=".8" transform="translate(100 200) scale(0.1 -0.1)"><path d="M0.0 0.0 5.0 -29.0 191.0 -3.0 186.0 25.0ZM255.0 106.0V99.0C244.0 57.0 227.0 7.0 213.0 -26.0L238.0 -32.0C254.0 1.0 271.0 55.0 286.0 100.0L267.0 108.0L261.0 106.0ZM-230.0 106.0V-165.0C-230.0 -297.0 -239.0 -475.0 -321.0 -606.0C-314.0 -609.0 -301.0 -617.0 -296.0 -622.0C-214.0 -489.0 -201.0 -301.0 -201.0 -165.0V106.0ZM-490.0 37.0C-457.0 2.0 -418.0 -48.0 -399.0 -80.0L-373.0 -64.0C-392.0 -32.0 -431.0 16.0 -466.0 51.0Z"/></g>
<g fill="red" transform="translate(200 200) scale(0.1 -0.1)"><path d="M0.0 0.0 9.0 -72.0 175.0 -53.0 166.0 17.0ZM199.0 139.0V124.0C195.0 74.0 186.0 11.0 177.0 -29.0L281.0 -50.0C296.0 -5.0 312.0 65.0 321.0 127.0L235.0 142.0L216.0 139.0ZM-278.0 139.0V-230.0C-278.0 -343.0 -281.0 -481.0 -334.0 -574.0C-305.0 -588.0 -248.0 -628.0 -226.0 -651.0C-161.0 -544.0 -151.0 -363.0 -151.0 -230.0V139.0ZM-530.0 6.0C-506.0 -24.0 -476.0 -66.0 -462.0 -91.0L-383.0 -35.0C-398.0 -10.0 -428.0 27.0 -454.0 55.0Z"/></g>
<g fill="black" opacity=".8" transform="translate(200 200) scale(0.1 -0.1)"><path d="M0.0 0.0 9.0 -72.0 175.0 -53.0 166.0 17.0ZM199.0 139.0V124.0C195.0 74.0 186.0 11.0 177.0 -29.0L281.0 -50.0C296.0 -5.0 312.0 65.0 321.0 127.0L235.0 142.0L216.0 139.0ZM-278.0 139.0V-230.0C-278.0 -343.0 -281.0 -481.0 -334.0 -574.0C-305.0 -588.0 -248.0 -628.0 -226.0 -651.0C-161.0 -544.0 -151.0 -363.0 -151.0 -230.0V139.0ZM-530.0 6.0C-506.0 -24.0 -476.0 -66.0 -462.0 -91.0L-383.0 -35.0C-398.0 -10.0 -428.0 27.0 -454.0 55.0Z"/></g>
</svg>
