<?xml version="1.0" encoding="UTF-8"?>
<svg width="1700" height="300" xmlns="http://www.w3.org/2000/svg">
<rect width="100%" height="100%" fill="white"/>
<g fill="green" transform="translate(100 100) scale(0.1 -0.1)"><path d="M0.0 0.0V-29.0H229.0V-322.0H0.0V-352.0H256.0V0.0ZM107.0 -11.0V-327.0V-599.0H136.0V-327.0V-11.0ZM342.0 -270.0V-299.0H520.0V-270.0ZM342.0 -72.0V-101.0H520.0V-72.0ZM266.0 -506.0 275.0 -535.0C350.0 -519.0 449.0 -499.0 546.0 -479.0L544.0 -451.0C439.0 -472.0 336.0 -493.0 266.0 -506.0ZM492.0 180.0C456.0 151.0 386.0 118.0 327.0 94.0C332.0 87.0 336.0 77.0 339.0 72.0C401.0 94.0 472.0 126.0 520.0 160.0Z"/></g>
<g fill="green" transform="translate(200 100) scale(0.1 -0.1)"><path d="M0.0 0.0V-117.0H172.0V-298.0H0.0V-415.0H261.0V0.0ZM72.0 -58.0V-339.0H62.0V-597.0H152.0V-339.0H143.0V-58.0ZM331.0 -274.0V-400.0H511.0V-274.0ZM331.0 -74.0V-200.0H511.0V-74.0ZM261.0 -509.0 285.0 -636.0C361.0 -619.0 449.0 -598.0 533.0 -578.0L520.0 -460.0C424.0 -479.0 328.0 -498.0 261.0 -509.0ZM427.0 178.0C398.0 135.0 350.0 84.0 303.0 50.0C320.0 24.0 342.0 -19.0 350.0 -46.0C411.0 -13.0 481.0 33.0 540.0 84.0Z"/></g>
<g fill="green" transform="translate(300 100) scale(0.1 -0.1)"><path d="M0.0 0.0V-29.0H229.0V-322.0H0.0V-352.0H256.0V0.0ZM107.0 -11.0V-327.0V-599.0H136.0V-327.0V-11.0ZM342.0 -270.0V-299.0H520.0V-270.0ZM342.0 -72.0V-101.0H520.0V-72.0ZM266.0 -506.0 275.0 -535.0C350.0 -519.0 449.0 -499.0 546.0 -479.0L544.0 -451.0C439.0 -472.0 336.0 -493.0 266.0 -506.0ZM492.0 180.0C456.0 151.0 386.0 118.0 327.0 94.0C332.0 87.0 336.0 77.0 339.0 72.0C401.0 94.0 472.0 126.0 520.0 160.0Z"/></g>
<g fill="green" transform="translate(400 100) scale(0.1 -0.1)"><path d="M0.0 0.0V-117.0H172.0V-298.0H0.0V-415.0H261.0V0.0ZM72.0 -58.0V-339.0H62.0V-597.0H152.0V-339.0H143.0V-58.0ZM331.0 -274.0V-400.0H511.0V-274.0ZM331.0 -74.0V-200.0H511.0V-74.0ZM261.0 -509.0 285.0 -636.0C361.0 -619.0 449.0 -598.0 533.0 -578.0L520.0 -460.0C424.0 -479.0 328.0 -498.0 261.0 -509.0ZM427.0 178.0C398.0 135.0 350.0 84.0 303.0 50.0C320.0 24.0 342.0 -19.0 350.0 -46.0C411.0 -13.0 481.0 33.0 540.0 84.0Z"/></g>
<g fill="red" transform="translate(100 200) scale(0.1 -0.1)"><path d="M0.0 0.0V-29.0H229.0V-322.0H0.0V-352.0H256.0V0.0ZM107.0 -11.0V-327.0V-599.0H136.0V-327.0V-11.0ZM342.0 -270.0V-299.0H520.0V-270.0ZM342.0 -72.0V-101.0H520.0V-72.0ZM266.0 -506.0 275.0 -535.0C350.0 -519.0 449.0 -499.0 546.0 -479.0L544.0 -451.0C439.0 -472.0 336.0 -493.0 266.0 -506.0ZM492.0 180.0C456.0 151.0 386.0 118.0 327.0 94.0C332.0 87.0 336.0 77.0 339.0 72.0C401.0 94.0 472.0 126.0 520.0 160.0Z"/></g>
<g fill="black" opacity=".8" transform="translate(100 200) scale(0.1 -0.1)"><path d="M0.0 0.0V-29.0H229.0V-322.0H0.0V-352.0H256.0V0.0ZM107.0 -11.0V-327.0V-599.0H136.0V-327.0V-11.0ZM342.0 -270.0V-299.0H520.0V-270.0ZM342.0 -72.0V-101.0H520.0V-72.0ZM266.0 -506.0 275.0 -535.0C350.0 -519.0 449.0 -499.0 546.0 -479.0L544.0 -451.0C439.0 -472.0 336.0 -493.0 266.0 -506.0ZM492.0 180.0C456.0 151.0 386.0 118.0 327.0 94.0C332.0 87.0 336.0 77.0 339.0 72.0C401.0 94.0 472.0 126.0 520.0 160.0Z"/></g>
<g fill="red" transform="translate(200 200) scale(0.1 -0.1)"><path d="M0.0 0.0V-117.0H172.0V-298.0H0.0V-415.0H261.0V0.0ZM72.0 -58.0V-339.0H62.0V-597.0H152.0V-339.0H143.0V-58.0ZM331.0 -274.0V-400.0H511.0V-274.0ZM331.0 -74.0V-200.0H511.0V-74.0ZM261.0 -509.0 285.0 -636.0C361.0 -619.0 449.0 -598.0 533.0 -578.0L520.0 -460.0C424.0 -479.0 328.0 -498.0 261.0 -509.0ZM427.0 178.0C398.0 135.0 350.0 84.0 303.0 50.0C320.0 24.0 342.0 -19.0 350.0 -46.0C411.0 -13.0 481.0 33.0 540.0 84.0Z"/></g>
<g fill="black" opacity=".8" transform="translate(200 200) scale(0.1 -0.1)"><path d="M0.0 0.0V-117.0H172.0V-298.0H0.0V-415.0H261.0V0.0ZM72.0 -58.0V-339.0H62.0V-597.0H152.0V-339.0H143.0V-58.0ZM331.0 -274.0V-400.0H511.0V-274.0ZM331.0 -74.0V-200.0H511.0V-74.0ZM261.0 -509.0 285.0 -636.0C361.0 -619.0 449.0 -598.0 533.0 -578.0L520.0 -460.0C424.0 -479.0 328.0 -498.0 261.0 -509.0ZM427.0 178.0C398.0 135.0 350.0 84.0 303.0 50.0C320.0 24.0 342.0 -19.0 350.0 -46.0C411.0 -13.0 481.0 33.0 540.0 84.0Z"/></g>
</svg>
