<?xml version="1.0" encoding="UTF-8"?>
<svg width="1700" height="300" xmlns="http://www.w3.org/2000/svg">
<rect width="100%" height="100%" fill="white"/>
<g fill="green" transform="translate(100 100) scale(0.1 -0.1)"><path d="M0.0 0.0H-292.0V-438.0H35.0V-407.0H-263.0V-31.0H0.0ZM-382.0 27.0V19.0C-385.0 -175.0 -389.0 -243.0 -398.0 -257.0C-403.0 -265.0 -409.0 -265.0 -417.0 -265.0C-427.0 -265.0 -450.0 -265.0 -476.0 -263.0C-472.0 -270.0 -469.0 -283.0 -468.0 -291.0C-449.0 -293.0 -425.0 -293.0 -412.0 -293.0C-393.0 -292.0 -382.0 -287.0 -373.0 -276.0C-360.0 -256.0 -357.0 -195.0 -353.0 7.0C-353.0 14.0 -353.0 27.0 -353.0 27.0ZM-11.0 0.0V-7.0C-18.0 -201.0 -25.0 -270.0 -39.0 -287.0C-45.0 -294.0 -53.0 -295.0 -68.0 -295.0C-80.0 -295.0 -121.0 -295.0 -165.0 -291.0C-160.0 -299.0 -157.0 -312.0 -156.0 -319.0C-118.0 -322.0 -79.0 -323.0 -61.0 -322.0C-38.0 -322.0 -25.0 -317.0 -16.0 -306.0C4.0 -283.0 11.0 -218.0 19.0 -20.0C19.0 -13.0 19.0 0.0 19.0 0.0ZM-810.0 -310.0C-810.0 -295.0 -775.0 -269.0 -775.0 -269.0V18.0H-804.0V-223.0C-804.0 -262.0 -818.0 -274.0 -828.0 -280.0C-822.0 -287.0 -813.0 -302.0 -810.0 -310.0ZM-676.0 -94.0C-652.0 -164.0 -625.0 -258.0 -614.0 -311.0L-588.0 -301.0C-599.0 -250.0 -626.0 -159.0 -652.0 -88.0ZM-200.0 -111.0C-162.0 -141.0 -116.0 -186.0 -91.0 -214.0L-70.0 -191.0C-94.0 -166.0 -141.0 -123.0 -181.0 -92.0ZM-165.0 101.0C-174.0 70.0 -195.0 21.0 -211.0 -10.0L-186.0 -20.0C-170.0 9.0 -152.0 51.0 -135.0 88.0ZM-810.0 -310.0C-797.0 -297.0 -775.0 -286.0 -620.0 -216.0C-622.0 -211.0 -625.0 -198.0 -627.0 -190.0L-792.0 -261.0L-810.0 -280.0ZM-633.0 83.0C-671.0 59.0 -745.0 34.0 -804.0 18.0C-801.0 10.0 -795.0 -1.0 -793.0 -7.0C-731.0 8.0 -656.0 32.0 -608.0 60.0Z"/></g>
<g fill="green" transform="translate(200 100) scale(0.1 -0.1)"><path d="M0.0 0.0H-317.0V-520.0H-2.0V-410.0H-196.0V-111.0H0.0ZM-438.0 21.0V4.0C-440.0 -190.0 -443.0 -253.0 -451.0 -269.0C-457.0 -278.0 -462.0 -280.0 -471.0 -280.0C-480.0 -280.0 -490.0 -280.0 -506.0 -278.0C-493.0 -303.0 -484.0 -344.0 -483.0 -374.0C-455.0 -374.0 -430.0 -373.0 -413.0 -369.0C-391.0 -365.0 -376.0 -357.0 -361.0 -336.0C-343.0 -309.0 -339.0 -226.0 -336.0 -18.0C-335.0 -6.0 -335.0 21.0 -335.0 21.0ZM-44.0 0.0V-18.0C-49.0 -200.0 -56.0 -266.0 -68.0 -282.0C-75.0 -292.0 -83.0 -294.0 -94.0 -294.0C-107.0 -294.0 -129.0 -293.0 -156.0 -290.0C-140.0 -319.0 -128.0 -363.0 -127.0 -396.0C-89.0 -397.0 -54.0 -396.0 -32.0 -392.0C-5.0 -388.0 15.0 -379.0 33.0 -355.0C56.0 -326.0 65.0 -243.0 72.0 -44.0C73.0 -29.0 74.0 0.0 74.0 0.0ZM-804.0 -371.0C-804.0 -337.0 -717.0 -283.0 -717.0 -283.0V12.0H-818.0V-210.0C-818.0 -252.0 -831.0 -272.0 -847.0 -283.0C-831.0 -302.0 -810.0 -346.0 -804.0 -371.0ZM-717.0 -130.0C-698.0 -200.0 -677.0 -293.0 -669.0 -347.0L-583.0 -317.0C-592.0 -265.0 -616.0 -175.0 -636.0 -106.0ZM-207.0 -172.0C-178.0 -207.0 -142.0 -256.0 -125.0 -286.0L-46.0 -222.0C-64.0 -193.0 -100.0 -149.0 -131.0 -116.0ZM-201.0 87.0C-210.0 46.0 -229.0 -9.0 -247.0 -50.0L-141.0 -69.0C-119.0 -33.0 -88.0 19.0 -62.0 73.0ZM-804.0 -371.0C-787.0 -357.0 -757.0 -343.0 -626.0 -292.0C-633.0 -267.0 -641.0 -221.0 -644.0 -190.0L-782.0 -237.0L-819.0 -272.0ZM-648.0 76.0C-694.0 53.0 -761.0 29.0 -818.0 12.0C-807.0 -13.0 -793.0 -49.0 -789.0 -73.0C-729.0 -62.0 -653.0 -43.0 -588.0 -20.0Z"/></g>
<g fill="green" transform="translate(300 100) scale(0.1 -0.1)"><path d="M0.0 0.0H-292.0V-438.0H35.0V-407.0H-263.0V-31.0H0.0ZM-382.0 27.0V19.0C-385.0 -175.0 -389.0 -243.0 -398.0 -257.0C-403.0 -265.0 -409.0 -265.0 -417.0 -265.0C-427.0 -265.0 -450.0 -265.0 -476.0 -263.0C-472.0 -270.0 -469.0 -283.0 -468.0 -291.0C-449.0 -293.0 -425.0 -293.0 -412.0 -293.0C-393.0 -292.0 -382.0 -287.0 -373.0 -276.0C-360.0 -256.0 -357.0 -195.0 -353.0 7.0C-353.0 14.0 -353.0 27.0 -353.0 27.0ZM-11.0 0.0V-7.0C-18.0 -201.0 -25.0 -270.0 -39.0 -287.0C-45.0 -294.0 -53.0 -295.0 -68.0 -295.0C-80.0 -295.0 -121.0 -295.0 -165.0 -291.0C-160.0 -299.0 -157.0 -312.0 -156.0 -319.0C-118.0 -322.0 -79.0 -323.0 -61.0 -322.0C-38.0 -322.0 -25.0 -317.0 -16.0 -306.0C4.0 -283.0 11.0 -218.0 19.0 -20.0C19.0 -13.0 19.0 0.0 19.0 0.0ZM-810.0 -310.0C-810.0 -295.0 -775.0 -269.0 -775.0 -269.0V18.0H-804.0V-223.0C-804.0 -262.0 -818.0 -274.0 -828.0 -280.0C-822.0 -287.0 -813.0 -302.0 -810.0 -310.0ZM-676.0 -94.0C-652.0 -164.0 -625.0 -258.0 -614.0 -311.0L-588.0 -301.0C-599.0 -250.0 -626.0 -159.0 -652.0 -88.0ZM-200.0 -111.0C-162.0 -141.0 -116.0 -186.0 -91.0 -214.0L-70.0 -191.0C-94.0 -166.0 -141.0 -123.0 -181.0 -92.0ZM-165.0 101.0C-174.0 70.0 -195.0 21.0 -211.0 -10.0L-186.0 -20.0C-170.0 9.0 -152.0 51.0 -135.0 88.0ZM-810.0 -310.0C-797.0 -297.0 -775.0 -286.0 -620.0 -216.0C-622.0 -211.0 -625.0 -198.0 -627.0 -190.0L-792.0 -261.0L-810.0 -280.0ZM-633.0 83.0C-671.0 59.0 -745.0 34.0 -804.0 18.0C-801.0 10.0 -795.0 -1.0 -793.0 -7.0C-731.0 8.0 -656.0 32.0 -608.0 60.0Z"/></g>
<g fill="green" transform="translate(400 100) scale(0.1 -0.1)"><path d="M0.0 0.0H-317.0V-520.0H-2.0V-410.0H-196.0V-111.0H0.0ZM-438.0 21.0V4.0C-440.0 -190.0 -443.0 -253.0 -451.0 -269.0C-457.0 -278.0 -462.0 -280.0 -471.0 -280.0C-480.0 -280.0 -490.0 -280.0 -506.0 -278.0C-493.0 -303.0 -484.0 -344.0 -483.0 -374.0C-455.0 -374.0 -430.0 -373.0 -413.0 -369.0C-391.0 -365.0 -376.0 -357.0 -361.0 -336.0C-343.0 -309.0 -339.0 -226.0 -336.0 -18.0C-335.0 -6.0 -335.0 21.0 -335.0 21.0ZM-44.0 0.0V-18.0C-49.0 -200.0 -56.0 -266.0 -68.0 -282.0C-75.0 -292.0 -83.0 -294.0 -94.0 -294.0C-107.0 -294.0 -129.0 -293.0 -156.0 -290.0C-140.0 -319.0 -128.0 -363.0 -127.0 -396.0C-89.0 -397.0 -54.0 -396.0 -32.0 -392.0C-5.0 -388.0 15.0 -379.0 33.0 -355.0C56.0 -326.0 65.0 -243.0 72.0 -44.0C73.0 -29.0 74.0 0.0 74.0 0.0ZM-804.0 -371.0C-804.0 -337.0 -717.0 -283.0 -717.0 -283.0V12.0H-818.0V-210.0C-818.0 -252.0 -831.0 -272.0 -847.0 -283.0C-831.0 -302.0 -810.0 -346.0 -804.0 -371.0ZM-717.0 -130.0C-698.0 -200.0 -677.0 -293.0 -669.0 -347.0L-583.0 -317.0C-592.0 -265.0 -616.0 -175.0 -636.0 -106.0ZM-207.0 -172.0C-178.0 -207.0 -142.0 -256.0 -125.0 -286.0L-46.0 -222.0C-64.0 -193.0 -100.0 -149.0 -131.0 -116.0ZM-201.0 87.0C-210.0 46.0 -229.0 -9.0 -247.0 -50.0L-141.0 -69.0C-119.0 -33.0 -88.0 19.0 -62.0 73.0ZM-804.0 -371.0C-787.0 -357.0 -757.0 -343.0 -626.0 -292.0C-633.0 -267.0 -641.0 -221.0 -644.0 -190.0L-782.0 -237.0L-819.0 -272.0ZM-648.0 76.0C-694.0 53.0 -761.0 29.0 -818.0 12.0C-807.0 -13.0 -793.0 -49.0 -789.0 -73.0C-729.0 -62.0 -653.0 -43.0 -588.0 -20.0Z"/></g>
<g fill="red" transform="translate(100 200) scale(0.1 -0.1)"><path d="M0.0 0.0H-292.0V-438.0H35.0V-407.0H-263.0V-31.0H0.0ZM-382.0 27.0V19.0C-385.0 -175.0 -389.0 -243.0 -398.0 -257.0C-403.0 -265.0 -409.0 -265.0 -417.0 -265.0C-427.0 -265.0 -450.0 -265.0 -476.0 -263.0C-472.0 -270.0 -469.0 -283.0 -468.0 -291.0C-449.0 -293.0 -425.0 -293.0 -412.0 -293.0C-393.0 -292.0 -382.0 -287.0 -373.0 -276.0C-360.0 -256.0 -357.0 -195.0 -353.0 7.0C-353.0 14.0 -353.0 27.0 -353.0 27.0ZM-11.0 0.0V-7.0C-18.0 -201.0 -25.0 -270.0 -39.0 -287.0C-45.0 -294.0 -53.0 -295.0 -68.0 -295.0C-80.0 -295.0 -121.0 -295.0 -165.0 -291.0C-160.0 -299.0 -157.0 -312.0 -156.0 -319.0C-118.0 -322.0 -79.0 -323.0 -61.0 -322.0C-38.0 -322.0 -25.0 -317.0 -16.0 -306.0C4.0 -283.0 11.0 -218.0 19.0 -20.0C19.0 -13.0 19.0 0.0 19.0 0.0ZM-810.0 -310.0C-810.0 -295.0 -775.0 -269.0 -775.0 -269.0V18.0H-804.0V-223.0C-804.0 -262.0 -818.0 -274.0 -828.0 -280.0C-822.0 -287.0 -813.0 -302.0 -810.0 -310.0ZM-676.0 -94.0C-652.0 -164.0 -625.0 -258.0 -614.0 -311.0L-588.0 -301.0C-599.0 -250.0 -626.0 -159.0 -652.0 -88.0ZM-200.0 -111.0C-162.0 -141.0 -116.0 -186.0 -91.0 -214.0L-70.0 -191.0C-94.0 -166.0 -141.0 -123.0 -181.0 -92.0ZM-165.0 101.0C-174.0 70.0 -195.0 21.0 -211.0 -10.0L-186.0 -20.0C-170.0 9.0 -152.0 51.0 -135.0 88.0ZM-810.0 -310.0C-797.0 -297.0 -775.0 -286.0 -620.0 -216.0C-622.0 -211.0 -625.0 -198.0 -627.0 -190.0L-792.0 -261.0L-810.0 -280.0ZM-633.0 83.0C-671.0 59.0 -745.0 34.0 -804.0 18.0C-801.0 10.0 -795.0 -1.0 -793.0 -7.0C-731.0 8.0 -656.0 32.0 -608.0 60.0Z"/></g>
<g fill="black" opacity=".8" transform="translate(100 200) scale(0.1 -0.1)"><path d="M0.0 0.0H-292.0V-438.0H35.0V-407.0H-263.0V-31.0H0.0ZM-382.0 27.0V19.0C-385.0 -175.0 -389.0 -243.0 -398.0 -257.0C-403.0 -265.0 -409.0 -265.0 -417.0 -265.0C-427.0 -265.0 -450.0 -265.0 -476.0 -263.0C-472.0 -270.0 -469.0 -283.0 -468.0 -291.0C-449.0 -293.0 -425.0 -293.0 -412.0 -293.0C-393.0 -292.0 -382.0 -287.0 -373.0 -276.0C-360.0 -256.0 -357.0 -195.0 -353.0 7.0C-353.0 14.0 -353.0 27.0 -353.0 27.0ZM-11.0 0.0V-7.0C-18.0 -201.0 -25.0 -270.0 -39.0 -287.0C-45.0 -294.0 -53.0 -295.0 -68.0 -295.0C-80.0 -295.0 -121.0 -295.0 -165.0 -291.0C-160.0 -299.0 -157.0 -312.0 -156.0 -319.0C-118.0 -322.0 -79.0 -323.0 -61.0 -322.0C-38.0 -322.0 -25.0 -317.0 -16.0 -306.0C4.0 -283.0 11.0 -218.0 19.0 -20.0C19.0 -13.0 19.0 0.0 19.0 0.0ZM-810.0 -310.0C-810.0 -295.0 -775.0 -269.0 -775.0 -269.0V18.0H-804.0V-223.0C-804.0 -262.0 -818.0 -274.0 -828.0 -280.0C-822.0 -287.0 -813.0 -302.0 -810.0 -310.0ZM-676.0 -94.0C-652.0 -164.0 -625.0 -258.0 -614.0 -311.0L-588.0 -301.0C-599.0 -250.0 -626.0 -159.0 -652.0 -88.0ZM-200.0 -111.0C-162.0 -141.0 -116.0 -186.0 -91.0 -214.0L-70.0 -191.0C-94.0 -166.0 -141.0 -123.0 -181.0 -92.0ZM-165.0 101.0C-174.0 70.0 -195.0 21.0 -211.0 -10.0L-186.0 -20.0C-170.0 9.0 -152.0 51.0 -135.0 88.0ZM-810.0 -310.0C-797.0 -297.0 -775.0 -286.0 -620.0 -216.0C-622.0 -211.0 -625.0 -198.0 -627.0 -190.0L-792.0 -261.0L-810.0 -280.0ZM-633.0 83.0C-671.0 59.0 -745.0 34.0 -804.0 18.0C-801.0 10.0 -795.0 -1.0 -793.0 -7.0C-731.0 8.0 -656.0 32.0 -608.0 60.0Z"/></g>
<g fill="red" transform="translate(200 200) scale(0.1 -0.1)"><path d="M0.0 0.0H-317.0V-520.0H-2.0V-410.0H-196.0V-111.0H0.0ZM-438.0 21.0V4.0C-440.0 -190.0 -443.0 -253.0 -451.0 -269.0C-457.0 -278.0 -462.0 -280.0 -471.0 -280.0C-480.0 -280.0 -490.0 -280.0 -506.0 -278.0C-493.0 -303.0 -484.0 -344.0 -483.0 -374.0C-455.0 -374.0 -430.0 -373.0 -413.0 -369.0C-391.0 -365.0 -376.0 -357.0 -361.0 -336.0C-343.0 -309.0 -339.0 -226.0 -336.0 -18.0C-335.0 -6.0 -335.0 21.0 -335.0 21.0ZM-44.0 0.0V-18.0C-49.0 -200.0 -56.0 -266.0 -68.0 -282.0C-75.0 -292.0 -83.0 -294.0 -94.0 -294.0C-107.0 -294.0 -129.0 -293.0 -156.0 -290.0C-140.0 -319.0 -128.0 -363.0 -127.0 -396.0C-89.0 -397.0 -54.0 -396.0 -32.0 -392.0C-5.0 -388.0 15.0 -379.0 33.0 -355.0C56.0 -326.0 65.0 -243.0 72.0 -44.0C73.0 -29.0 74.0 0.0 74.0 0.0ZM-804.0 -371.0C-804.0 -337.0 -717.0 -283.0 -717.0 -283.0V12.0H-818.0V-210.0C-818.0 -252.0 -831.0 -272.0 -847.0 -283.0C-831.0 -302.0 -810.0 -346.0 -804.0 -371.0ZM-717.0 -130.0C-698.0 -200.0 -677.0 -293.0 -669.0 -347.0L-583.0 -317.0C-592.0 -265.0 -616.0 -175.0 -636.0 -106.0ZM-207.0 -172.0C-178.0 -207.0 -142.0 -256.0 -125.0 -286.0L-46.0 -222.0C-64.0 -193.0 -100.0 -149.0 -131.0 -116.0ZM-201.0 87.0C-210.0 46.0 -229.0 -9.0 -247.0 -50.0L-141.0 -69.0C-119.0 -33.0 -88.0 19.0 -62.0 73.0ZM-804.0 -371.0C-787.0 -357.0 -757.0 -343.0 -626.0 -292.0C-633.0 -267.0 -641.0 -221.0 -644.0 -190.0L-782.0 -237.0L-819.0 -272.0ZM-648.0 76.0C-694.0 53.0 -761.0 29.0 -818.0 12.0C-807.0 -13.0 -793.0 -49.0 -789.0 -73.0C-729.0 -62.0 -653.0 -43.0 -588.0 -20.0Z"/></g>
<g fill="black" opacity=".8" transform="translate(200 200) scale(0.1 -0.1)"><path d="M0.0 0.0H-317.0V-520.0H-2.0V-410.0H-196.0V-111.0H0.0ZM-438.0 21.0V4.0C-440.0 -190.0 -443.0 -253.0 -451.0 -269.0C-457.0 -278.0 -462.0 -280.0 -471.0 -280.0C-480.0 -280.0 -490.0 -280.0 -506.0 -278.0C-493.0 -303.0 -484.0 -344.0 -483.0 -374.0C-455.0 -374.0 -430.0 -373.0 -413.0 -369.0C-391.0 -365.0 -376.0 -357.0 -361.0 -336.0C-343.0 -309.0 -339.0 -226.0 -336.0 -18.0C-335.0 -6.0 -335.0 21.0 -335.0 21.0ZM-44.0 0.0V-18.0C-49.0 -200.0 -56.0 -266.0 -68.0 -282.0C-75.0 -292.0 -83.0 -294.0 -94.0 -294.0C-107.0 -294.0 -129.0 -293.0 -156.0 -290.0C-140.0 -319.0 -128.0 -363.0 -127.0 -396.0C-89.0 -397.0 -54.0 -396.0 -32.0 -392.0C-5.0 -388.0 15.0 -379.0 33.0 -355.0C56.0 -326.0 65.0 -243.0 72.0 -44.0C73.0 -29.0 74.0 0.0 74.0 0.0ZM-804.0 -371.0C-804.0 -337.0 -717.0 -283.0 -717.0 -283.0V12.0H-818.0V-210.0C-818.0 -252.0 -831.0 -272.0 -847.0 -283.0C-831.0 -302.0 -810.0 -346.0 -804.0 -371.0ZM-717.0 -130.0C-698.0 -200.0 -677.0 -293.0 -669.0 -347.0L-583.0 -317.0C-592.0 -265.0 -616.0 -175.0 -636.0 -106.0ZM-207.0 -172.0C-178.0 -207.0 -142.0 -256.0 -125.0 -286.0L-46.0 -222.0C-64.0 -193.0 -100.0 -149.0 -131.0 -116.0ZM-201.0 87.0C-210.0 46.0 -229.0 -9.0 -247.0 -50.0L-141.0 -69.0C-119.0 -33.0 -88.0 19.0 -62.0 73.0ZM-804.0 -371.0C-787.0 -357.0 -757.0 -343.0 -626.0 -292.0C-633.0 -267.0 -641.0 -221.0 -644.0 -190.0L-782.0 -237.0L-819.0 -272.0ZM-648.0 76.0C-694.0 53.0 -761.0 29.0 -818.0 12.0C-807.0 -13.0 -793.0 -49.0 -789.0 -73.0C-729.0 -62.0 -653.0 -43.0 -588.0 -20.0Z"/></g>
</svg>
