<?xml version="1.0" encoding="UTF-8"?>
<svg width="1700" height="300" xmlns="http://www.w3.org/2000/svg">
<rect width="100%" height="100%" fill="white"/>
<g fill="green" transform="translate(100 100) scale(0.1 -0.1)"><path d="M0.0 0.0V-29.0H154.0H742.0H883.0V0.0H742.0H154.0ZM9.0 224.0V194.0H424.0V224.0ZM128.0 -213.0H753.0V-279.0H128.0ZM136.0 92.0V-126.0H755.0V92.0ZM255.0 297.0V121.0H284.0V297.0ZM461.0 224.0V194.0H876.0V224.0ZM593.0 297.0V121.0H622.0V297.0Z"/></g>
<g fill="green" transform="translate(200 100) scale(0.1 -0.1)"><path d="M0.0 0.0V-95.0H215.0V-79.0H712.0V-95.0H919.0V0.0H712.0V-16.0H215.0V0.0ZM12.0 231.0V131.0H449.0V231.0ZM238.0 -256.0H677.0V-281.0H238.0ZM118.0 74.0V-170.0H810.0V74.0ZM213.0 279.0V90.0H355.0V279.0ZM477.0 231.0V131.0H910.0V231.0ZM558.0 279.0V90.0H701.0V279.0Z"/></g>
<g fill="green" transform="translate(300 100) scale(0.1 -0.1)"><path d="M0.0 0.0V-29.0H154.0H742.0H883.0V0.0H742.0H154.0ZM9.0 224.0V194.0H424.0V224.0ZM128.0 -213.0H753.0V-279.0H128.0ZM136.0 92.0V-126.0H755.0V92.0ZM255.0 297.0V121.0H284.0V297.0ZM461.0 224.0V194.0H876.0V224.0ZM593.0 297.0V121.0H622.0V297.0Z"/></g>
<g fill="green" transform="translate(400 100) scale(0.1 -0.1)"><path d="M0.0 0.0V-95.0H215.0V-79.0H712.0V-95.0H919.0V0.0H712.0V-16.0H215.0V0.0ZM12.0 231.0V131.0H449.0V231.0ZM238.0 -256.0H677.0V-281.0H238.0ZM118.0 74.0V-170.0H810.0V74.0ZM213.0 279.0V90.0H355.0V279.0ZM477.0 231.0V131.0H910.0V231.0ZM558.0 279.0V90.0H701.0V279.0Z"/></g>
<g fill="red" transform="translate(100 200) scale(0.1 -0.1)"><path d="M0.0 0.0V-29.0H154.0H742.0H883.0V0.0H742.0H154.0ZM9.0 224.0V194.0H424.0V224.0ZM128.0 -213.0H753.0V-279.0H128.0ZM136.0 92.0V-126.0H755.0V92.0ZM255.0 297.0V121.0H284.0V297.0ZM461.0 224.0V194.0H876.0V224.0ZM593.0 297.0V121.0H622.0V297.0Z"/></g>
<g fill="black" opacity=".8" transform="translate(100 200) scale(0.1 -0.1)"><path d="M0.0 0.0V-29.0H154.0H742.0H883.0V0.0H742.0H154.0ZM9.0 224.0V194.0H424.0V224.0ZM128.0 -213.0H753.0V-279.0H128.0ZM136.0 92.0V-126.0H755.0V92.0ZM255.0 297.0V121.0H284.0V297.0ZM461.0 224.0V194.0H876.0V224.0ZM593.0 297.0V121.0H622.0V297.0Z"/></g>
<g fill="red" transform="translate(200 200) scale(0.1 -0.1)"><path d="M0.0 0.0V-95.0H215.0V-79.0H712.0V-95.0H919.0V0.0H712.0V-16.0H215.0V0.0ZM12.0 231.0V131.0H449.0V231.0ZM238.0 -256.0H677.0V-281.0H238.0ZM118.0 74.0V-170.0H810.0V74.0ZM213.0 279.0V90.0H355.0V279.0ZM477.0 231.0V131.0H910.0V231.0ZM558.0 279.0V90.0H701.0V279.0Z"/></g>
<g fill="black" opacity=".8" transform="translate(200 200) scale(0.1 -0.1)"><path d="M0.0 0.0V-95.0H215.0V-79.0H712.0V-95.0H919.0V0.0H712.0V-16.0H215.0V0.0ZM12.0 231.0V131.0H449.0V231.0ZM238.0 -256.0H677.0V-281.0H238.0ZM118.0 74.0V-170.0H810.0V74.0ZM213.0 279.0V90.0H355.0V279.0ZM477.0 231.0V131.0H910.0V231.0ZM558.0 279.0V90.0H701.0V279.0Z"/></g>
</svg>
