<?xml version="1.0" encoding="UTF-8"?>
<svg width="1700" height="300" xmlns="http://www.w3.org/2000/svg">
<rect width="100%" height="100%" fill="white"/>
<g fill="green" transform="translate(100 100) scale(0.1 -0.1)"><path d="M0.0 0.0V-484.0H30.0V-29.0H495.0V0.0ZM-368.0 -15.0V-45.0H-54.0V-15.0ZM-362.0 -296.0V-325.0H-61.0V-296.0ZM-227.0 -27.0V-622.0L-198.0 -610.0V-27.0ZM-385.0 -656.0 -374.0 -687.0C-289.0 -655.0 -171.0 -611.0 -57.0 -569.0L-62.0 -540.0C-183.0 -584.0 -305.0 -629.0 -385.0 -656.0ZM480.0 -472.0V-479.0C467.0 -710.0 452.0 -795.0 432.0 -817.0C424.0 -825.0 415.0 -826.0 398.0 -826.0C383.0 -826.0 336.0 -826.0 286.0 -821.0C291.0 -830.0 293.0 -842.0 294.0 -850.0C339.0 -853.0 383.0 -854.0 404.0 -853.0C429.0 -853.0 442.0 -848.0 455.0 -835.0C482.0 -807.0 494.0 -728.0 508.0 -492.0C509.0 -486.0 509.0 -472.0 509.0 -472.0Z"/></g>
<g fill="green" transform="translate(200 100) scale(0.1 -0.1)"><path d="M0.0 0.0V-528.0H134.0V-124.0H535.0V0.0ZM-378.0 -21.0V-155.0H-26.0V-21.0ZM-372.0 -302.0V-435.0H-38.0V-302.0ZM-270.0 -74.0V-681.0L-130.0 -661.0V-74.0ZM-403.0 -629.0 -376.0 -767.0C-276.0 -745.0 -149.0 -717.0 -32.0 -690.0L-46.0 -559.0C-173.0 -586.0 -310.0 -614.0 -403.0 -629.0ZM427.0 -461.0V-482.0C421.0 -687.0 412.0 -764.0 398.0 -783.0C389.0 -793.0 380.0 -796.0 367.0 -796.0C351.0 -796.0 323.0 -795.0 291.0 -792.0C311.0 -826.0 325.0 -880.0 327.0 -918.0C372.0 -919.0 413.0 -919.0 439.0 -914.0C469.0 -908.0 492.0 -898.0 514.0 -870.0C541.0 -836.0 551.0 -739.0 560.0 -512.0C561.0 -496.0 562.0 -461.0 562.0 -461.0Z"/></g>
<g fill="green" transform="translate(300 100) scale(0.1 -0.1)"><path d="M0.0 0.0V-484.0H30.0V-29.0H495.0V0.0ZM-368.0 -15.0V-45.0H-54.0V-15.0ZM-362.0 -296.0V-325.0H-61.0V-296.0ZM-227.0 -27.0V-622.0L-198.0 -610.0V-27.0ZM-385.0 -656.0 -374.0 -687.0C-289.0 -655.0 -171.0 -611.0 -57.0 -569.0L-62.0 -540.0C-183.0 -584.0 -305.0 -629.0 -385.0 -656.0ZM480.0 -472.0V-479.0C467.0 -710.0 452.0 -795.0 432.0 -817.0C424.0 -825.0 415.0 -826.0 398.0 -826.0C383.0 -826.0 336.0 -826.0 286.0 -821.0C291.0 -830.0 293.0 -842.0 294.0 -850.0C339.0 -853.0 383.0 -854.0 404.0 -853.0C429.0 -853.0 442.0 -848.0 455.0 -835.0C482.0 -807.0 494.0 -728.0 508.0 -492.0C509.0 -486.0 509.0 -472.0 509.0 -472.0Z"/></g>
<g fill="green" transform="translate(400 100) scale(0.1 -0.1)"><path d="M0.0 0.0V-528.0H134.0V-124.0H535.0V0.0ZM-378.0 -21.0V-155.0H-26.0V-21.0ZM-372.0 -302.0V-435.0H-38.0V-302.0ZM-270.0 -74.0V-681.0L-130.0 -661.0V-74.0ZM-403.0 -629.0 -376.0 -767.0C-276.0 -745.0 -149.0 -717.0 -32.0 -690.0L-46.0 -559.0C-173.0 -586.0 -310.0 -614.0 -403.0 -629.0ZM427.0 -461.0V-482.0C421.0 -687.0 412.0 -764.0 398.0 -783.0C389.0 -793.0 380.0 -796.0 367.0 -796.0C351.0 -796.0 323.0 -795.0 291.0 -792.0C311.0 -826.0 325.0 -880.0 327.0 -918.0C372.0 -919.0 413.0 -919.0 439.0 -914.0C469.0 -908.0 492.0 -898.0 514.0 -870.0C541.0 -836.0 551.0 -739.0 560.0 -512.0C561.0 -496.0 562.0 -461.0 562.0 -461.0Z"/></g>
<g fill="red" transform="translate(100 200) scale(0.1 -0.1)"><path d="M0.0 0.0V-484.0H30.0V-29.0H495.0V0.0ZM-368.0 -15.0V-45.0H-54.0V-15.0ZM-362.0 -296.0V-325.0H-61.0V-296.0ZM-227.0 -27.0V-622.0L-198.0 -610.0V-27.0ZM-385.0 -656.0 -374.0 -687.0C-289.0 -655.0 -171.0 -611.0 -57.0 -569.0L-62.0 -540.0C-183.0 -584.0 -305.0 -629.0 -385.0 -656.0ZM480.0 -472.0V-479.0C467.0 -710.0 452.0 -795.0 432.0 -817.0C424.0 -825.0 415.0 -826.0 398.0 -826.0C383.0 -826.0 336.0 -826.0 286.0 -821.0C291.0 -830.0 293.0 -842.0 294.0 -850.0C339.0 -853.0 383.0 -854.0 404.0 -853.0C429.0 -853.0 442.0 -848.0 455.0 -835.0C482.0 -807.0 494.0 -728.0 508.0 -492.0C509.0 -486.0 509.0 -472.0 509.0 -472.0Z"/></g>
<g fill="black" opacity=".8" transform="translate(100 200) scale(0.1 -0.1)"><path d="M0.0 0.0V-484.0H30.0V-29.0H495.0V0.0ZM-368.0 -15.0V-45.0H-54.0V-15.0ZM-362.0 -296.0V-325.0H-61.0V-296.0ZM-227.0 -27.0V-622.0L-198.0 -610.0V-27.0ZM-385.0 -656.0 -374.0 -687.0C-289.0 -655.0 -171.0 -611.0 -57.0 -569.0L-62.0 -540.0C-183.0 -584.0 -305.0 -629.0 -385.0 -656.0ZM480.0 -472.0V-479.0C467.0 -710.0 452.0 -795.0 432.0 -817.0C424.0 -825.0 415.0 -826.0 398.0 -826.0C383.0 -826.0 336.0 -826.0 286.0 -821.0C291.0 -830.0 293.0 -842.0 294.0 -850.0C339.0 -853.0 383.0 -854.0 404.0 -853.0C429.0 -853.0 442.0 -848.0 455.0 -835.0C482.0 -807.0 494.0 -728.0 508.0 -492.0C509.0 -486.0 509.0 -472.0 509.0 -472.0Z"/></g>
<g fill="red" transform="translate(200 200) scale(0.1 -0.1)"><path d="M0.0 0.0V-528.0H134.0V-124.0H535.0V0.0ZM-378.0 -21.0V-155.0H-26.0V-21.0ZM-372.0 -302.0V-435.0H-38.0V-302.0ZM-270.0 -74.0V-681.0L-130.0 -661.0V-74.0ZM-403.0 -629.0 -376.0 -767.0C-276.0 -745.0 -149.0 -717.0 -32.0 -690.0L-46.0 -559.0C-173.0 -586.0 -310.0 -614.0 -403.0 -629.0ZM427.0 -461.0V-482.0C421.0 -687.0 412.0 -764.0 398.0 -783.0C389.0 -793.0 380.0 -796.0 367.0 -796.0C351.0 -796.0 323.0 -795.0 291.0 -792.0C311.0 -826.0 325.0 -880.0 327.0 -918.0C372.0 -919.0 413.0 -919.0 439.0 -914.0C469.0 -908.0 492.0 -898.0 514.0 -870.0C541.0 -836.0 551.0 -739.0 560.0 -512.0C561.0 -496.0 562.0 -461.0 562.0 -461.0Z"/></g>
<g fill="black" opacity=".8" transform="translate(200 200) scale(0.1 -0.1)"><path d="M0.0 0.0V-528.0H134.0V-124.0H535.0V0.0ZM-378.0 -21.0V-155.0H-26.0V-21.0ZM-372.0 -302.0V-435.0H-38.0V-302.0ZM-270.0 -74.0V-681.0L-130.0 -661.0V-74.0ZM-403.0 -629.0 -376.0 -767.0C-276.0 -745.0 -149.0 -717.0 -32.0 -690.0L-46.0 -559.0C-173.0 -586.0 -310.0 -614.0 -403.0 -629.0ZM427.0 -461.0V-482.0C421.0 -687.0 412.0 -764.0 398.0 -783.0C389.0 -793.0 380.0 -796.0 367.0 -796.0C351.0 -796.0 323.0 -795.0 291.0 -792.0C311.0 -826.0 325.0 -880.0 327.0 -918.0C372.0 -919.0 413.0 -919.0 439.0 -914.0C469.0 -908.0 492.0 -898.0 514.0 -870.0C541.0 -836.0 551.0 -739.0 560.0 -512.0C561.0 -496.0 562.0 -461.0 562.0 -461.0Z"/></g>
</svg>
