<?xml version="1.0" encoding="UTF-8"?>
<svg width="1700" height="300" xmlns="http://www.w3.org/2000/svg">
<rect width="100%" height="100%" fill="white"/>
<g fill="green" transform="translate(100 100) scale(0.1 -0.1)"><path d="M0.0 0.0V-191.0H30.0V0.0ZM466.0 225.0V14.0H495.0V225.0ZM-173.0 -626.0 -170.0 -660.0C-51.0 -651.0 127.0 -636.0 300.0 -622.0V-591.0C121.0 -605.0 -59.0 -620.0 -173.0 -626.0ZM-62.0 -225.0C-33.0 -258.0 -2.0 -303.0 9.0 -334.0L33.0 -317.0C21.0 -287.0 -9.0 -243.0 -40.0 -211.0ZM189.0 -214.0C173.0 -248.0 141.0 -302.0 117.0 -335.0L141.0 -346.0C165.0 -316.0 195.0 -268.0 218.0 -227.0Z"/></g>
<g fill="green" transform="translate(200 100) scale(0.1 -0.1)"><path d="M0.0 0.0V-170.0H105.0V0.0ZM451.0 238.0V-1.0H595.0V238.0ZM-135.0 -581.0 -128.0 -697.0C1.0 -692.0 182.0 -683.0 354.0 -673.0L356.0 -564.0C179.0 -572.0 -10.0 -578.0 -135.0 -581.0ZM-47.0 -267.0C-30.0 -296.0 -13.0 -336.0 -8.0 -362.0L87.0 -319.0C81.0 -293.0 62.0 -256.0 43.0 -228.0ZM196.0 -225.0C186.0 -256.0 165.0 -302.0 149.0 -331.0L233.0 -370.0C250.0 -345.0 271.0 -308.0 294.0 -269.0Z"/></g>
<g fill="green" transform="translate(300 100) scale(0.1 -0.1)"><path d="M0.0 0.0V-191.0H30.0V0.0ZM466.0 225.0V14.0H495.0V225.0ZM-173.0 -626.0 -170.0 -660.0C-51.0 -651.0 127.0 -636.0 300.0 -622.0V-591.0C121.0 -605.0 -59.0 -620.0 -173.0 -626.0ZM-62.0 -225.0C-33.0 -258.0 -2.0 -303.0 9.0 -334.0L33.0 -317.0C21.0 -287.0 -9.0 -243.0 -40.0 -211.0ZM189.0 -214.0C173.0 -248.0 141.0 -302.0 117.0 -335.0L141.0 -346.0C165.0 -316.0 195.0 -268.0 218.0 -227.0Z"/></g>
<g fill="green" transform="translate(400 100) scale(0.1 -0.1)"><path d="M0.0 0.0V-170.0H105.0V0.0ZM451.0 238.0V-1.0H595.0V238.0ZM-135.0 -581.0 -128.0 -697.0C1.0 -692.0 182.0 -683.0 354.0 -673.0L356.0 -564.0C179.0 -572.0 -10.0 -578.0 -135.0 -581.0ZM-47.0 -267.0C-30.0 -296.0 -13.0 -336.0 -8.0 -362.0L87.0 -319.0C81.0 -293.0 62.0 -256.0 43.0 -228.0ZM196.0 -225.0C186.0 -256.0 165.0 -302.0 149.0 -331.0L233.0 -370.0C250.0 -345.0 271.0 -308.0 294.0 -269.0Z"/></g>
<g fill="red" transform="translate(100 200) scale(0.1 -0.1)"><path d="M0.0 0.0V-191.0H30.0V0.0ZM466.0 225.0V14.0H495.0V225.0ZM-173.0 -626.0 -170.0 -660.0C-51.0 -651.0 127.0 -636.0 300.0 -622.0V-591.0C121.0 -605.0 -59.0 -620.0 -173.0 -626.0ZM-62.0 -225.0C-33.0 -258.0 -2.0 -303.0 9.0 -334.0L33.0 -317.0C21.0 -287.0 -9.0 -243.0 -40.0 -211.0ZM189.0 -214.0C173.0 -248.0 141.0 -302.0 117.0 -335.0L141.0 -346.0C165.0 -316.0 195.0 -268.0 218.0 -227.0Z"/></g>
<g fill="black" opacity=".8" transform="translate(100 200) scale(0.1 -0.1)"><path d="M0.0 0.0V-191.0H30.0V0.0ZM466.0 225.0V14.0H495.0V225.0ZM-173.0 -626.0 -170.0 -660.0C-51.0 -651.0 127.0 -636.0 300.0 -622.0V-591.0C121.0 -605.0 -59.0 -620.0 -173.0 -626.0ZM-62.0 -225.0C-33.0 -258.0 -2.0 -303.0 9.0 -334.0L33.0 -317.0C21.0 -287.0 -9.0 -243.0 -40.0 -211.0ZM189.0 -214.0C173.0 -248.0 141.0 -302.0 117.0 -335.0L141.0 -346.0C165.0 -316.0 195.0 -268.0 218.0 -227.0Z"/></g>
<g fill="red" transform="translate(200 200) scale(0.1 -0.1)"><path d="M0.0 0.0V-170.0H105.0V0.0ZM451.0 238.0V-1.0H595.0V238.0ZM-135.0 -581.0 -128.0 -697.0C1.0 -692.0 182.0 -683.0 354.0 -673.0L356.0 -564.0C179.0 -572.0 -10.0 -578.0 -135.0 -581.0ZM-47.0 -267.0C-30.0 -296.0 -13.0 -336.0 -8.0 -362.0L87.0 -319.0C81.0 -293.0 62.0 -256.0 43.0 -228.0ZM196.0 -225.0C186.0 -256.0 165.0 -302.0 149.0 -331.0L233.0 -370.0C250.0 -345.0 271.0 -308.0 294.0 -269.0Z"/></g>
<g fill="black" opacity=".8" transform="translate(200 200) scale(0.1 -0.1)"><path d="M0.0 0.0V-170.0H105.0V0.0ZM451.0 238.0V-1.0H595.0V238.0ZM-135.0 -581.0 -128.0 -697.0C1.0 -692.0 182.0 -683.0 354.0 -673.0L356.0 -564.0C179.0 -572.0 -10.0 -578.0 -135.0 -581.0ZM-47.0 -267.0C-30.0 -296.0 -13.0 -336.0 -8.0 -362.0L87.0 -319.0C81.0 -293.0 62.0 -256.0 43.0 -228.0ZM196.0 -225.0C186.0 -256.0 165.0 -302.0 149.0 -331.0L233.0 -370.0C250.0 -345.0 271.0 -308.0 294.0 -269.0Z"/></g>
</svg>
