<?xml version="1.0" encoding="UTF-8"?>
<svg width="1700" height="300" xmlns="http://www.w3.org/2000/svg">
<rect width="100%" height="100%" fill="white"/>
<g fill="green" transform="translate(100 100) scale(0.1 -0.1)"><path d="M-0.0 0.0V-202.0H35.0V0.0ZM168.0 -0.0V-204.0H204.0V-0.0ZM-606.0 -189.0C-606.0 -178.0 -573.0 -164.0 -573.0 -164.0V-163.0C-496.0 -69.0 -419.0 68.0 -355.0 202.0L-394.0 218.0C-444.0 88.0 -532.0 -49.0 -558.0 -84.0C-581.0 -121.0 -601.0 -147.0 -619.0 -150.0C-614.0 -161.0 -608.0 -180.0 -606.0 -189.0ZM-599.0 -443.0C-599.0 -432.0 -566.0 -420.0 -566.0 -420.0V-419.0C-459.0 -306.0 -349.0 -147.0 -257.0 14.0L-292.0 30.0C-372.0 -124.0 -496.0 -287.0 -531.0 -327.0C-566.0 -369.0 -592.0 -402.0 -612.0 -405.0C-607.0 -415.0 -601.0 -434.0 -599.0 -443.0ZM-455.0 -505.0C-439.0 -585.0 -425.0 -689.0 -421.0 -758.0L-386.0 -752.0C-390.0 -684.0 -405.0 -581.0 -420.0 -501.0ZM-349.0 -488.0C-325.0 -551.0 -297.0 -635.0 -287.0 -689.0L-252.0 -679.0C-263.0 -625.0 -291.0 -543.0 -318.0 -481.0ZM-606.0 -189.0C-590.0 -183.0 -564.0 -178.0 -373.0 -155.0C-373.0 -146.0 -374.0 -132.0 -373.0 -123.0L-579.0 -143.0L-606.0 -157.0ZM-599.0 -443.0C-581.0 -434.0 -551.0 -428.0 -281.0 -387.0C-281.0 -380.0 -283.0 -367.0 -282.0 -357.0L-572.0 -396.0L-599.0 -412.0ZM-561.0 -508.0C-576.0 -602.0 -597.0 -706.0 -627.0 -780.0C-618.0 -784.0 -600.0 -791.0 -593.0 -794.0C-568.0 -721.0 -542.0 -612.0 -524.0 -515.0Z"/></g>
<g fill="green" transform="translate(200 100) scale(0.1 -0.1)"><path d="M0.0 0.0V-210.0H146.0V0.0ZM197.0 0.0V-206.0H347.0V0.0ZM-525.0 -247.0C-525.0 -221.0 -440.0 -176.0 -440.0 -176.0V-173.0C-373.0 -82.0 -300.0 50.0 -255.0 172.0L-397.0 227.0C-428.0 106.0 -490.0 -20.0 -511.0 -52.0C-531.0 -87.0 -549.0 -109.0 -572.0 -114.0C-556.0 -151.0 -533.0 -218.0 -525.0 -247.0ZM-515.0 -520.0C-515.0 -494.0 -429.0 -448.0 -429.0 -448.0V-444.0C-319.0 -331.0 -208.0 -173.0 -131.0 -23.0L-266.0 57.0C-328.0 -100.0 -439.0 -264.0 -475.0 -306.0C-510.0 -348.0 -533.0 -373.0 -565.0 -380.0C-547.0 -420.0 -522.0 -492.0 -515.0 -520.0ZM-391.0 -563.0C-381.0 -643.0 -372.0 -748.0 -374.0 -817.0L-265.0 -800.0C-267.0 -732.0 -276.0 -629.0 -288.0 -548.0ZM-274.0 -545.0C-258.0 -615.0 -242.0 -707.0 -237.0 -767.0L-138.0 -740.0C-143.0 -680.0 -161.0 -590.0 -179.0 -520.0ZM-525.0 -247.0C-498.0 -235.0 -456.0 -225.0 -276.0 -209.0C-275.0 -176.0 -268.0 -117.0 -259.0 -76.0L-463.0 -89.0L-530.0 -132.0ZM-515.0 -520.0C-484.0 -505.0 -436.0 -494.0 -194.0 -462.0C-194.0 -429.0 -189.0 -370.0 -182.0 -329.0L-455.0 -357.0L-522.0 -402.0ZM-525.0 -548.0C-529.0 -650.0 -540.0 -760.0 -568.0 -832.0C-537.0 -839.0 -479.0 -856.0 -453.0 -869.0C-427.0 -795.0 -412.0 -678.0 -406.0 -566.0Z"/></g>
<g fill="green" transform="translate(300 100) scale(0.1 -0.1)"><path d="M-0.0 0.0V-175.0H31.0V0.0ZM144.0 0.0V-178.0H176.0V0.0ZM-529.0 -151.0C-529.0 -141.0 -501.0 -129.0 -501.0 -129.0V-128.0C-433.0 -46.0 -365.0 74.0 -309.0 191.0L-344.0 205.0C-387.0 91.0 -465.0 -28.0 -487.0 -59.0C-508.0 -91.0 -525.0 -114.0 -541.0 -117.0C-536.0 -126.0 -531.0 -143.0 -529.0 -151.0ZM-523.0 -372.0C-523.0 -363.0 -494.0 -352.0 -494.0 -352.0V-351.0C-400.0 -253.0 -304.0 -114.0 -223.0 26.0L-254.0 40.0C-324.0 -94.0 -433.0 -236.0 -464.0 -271.0C-494.0 -308.0 -517.0 -336.0 -535.0 -339.0C-530.0 -348.0 -525.0 -364.0 -523.0 -372.0ZM-402.0 -435.0C-388.0 -505.0 -377.0 -596.0 -373.0 -657.0L-343.0 -652.0C-346.0 -592.0 -358.0 -502.0 -371.0 -432.0ZM-321.0 -406.0C-301.0 -461.0 -276.0 -534.0 -268.0 -582.0L-237.0 -573.0C-246.0 -526.0 -271.0 -454.0 -294.0 -400.0ZM-529.0 -151.0C-515.0 -145.0 -493.0 -141.0 -325.0 -121.0C-325.0 -113.0 -326.0 -101.0 -325.0 -93.0L-506.0 -110.0L-529.0 -123.0ZM-523.0 -372.0C-508.0 -364.0 -481.0 -359.0 -247.0 -324.0C-247.0 -318.0 -249.0 -306.0 -248.0 -298.0L-500.0 -331.0L-523.0 -345.0ZM-491.0 -429.0C-504.0 -511.0 -522.0 -602.0 -549.0 -666.0C-541.0 -670.0 -525.0 -676.0 -519.0 -678.0C-497.0 -615.0 -474.0 -520.0 -458.0 -435.0Z"/></g>
<g fill="green" transform="translate(400 100) scale(0.1 -0.1)"><path d="M0.0 0.0V-179.0H128.0V0.0ZM172.0 0.0V-175.0H304.0V0.0ZM-456.0 -202.0C-456.0 -179.0 -381.0 -140.0 -381.0 -140.0V-137.0C-323.0 -58.0 -259.0 57.0 -220.0 164.0L-345.0 212.0C-372.0 106.0 -426.0 -4.0 -444.0 -32.0C-461.0 -62.0 -477.0 -82.0 -497.0 -86.0C-483.0 -118.0 -463.0 -177.0 -456.0 -202.0ZM-447.0 -440.0C-447.0 -417.0 -371.0 -377.0 -371.0 -377.0V-374.0C-275.0 -275.0 -179.0 -138.0 -112.0 -8.0L-231.0 63.0C-284.0 -74.0 -381.0 -217.0 -412.0 -253.0C-443.0 -290.0 -463.0 -311.0 -491.0 -317.0C-475.0 -353.0 -453.0 -416.0 -447.0 -440.0ZM-341.0 -487.0C-333.0 -557.0 -326.0 -649.0 -329.0 -709.0L-234.0 -696.0C-235.0 -637.0 -242.0 -546.0 -252.0 -475.0ZM-251.0 -456.0C-237.0 -518.0 -224.0 -600.0 -220.0 -653.0L-134.0 -630.0C-138.0 -577.0 -153.0 -497.0 -168.0 -435.0ZM-456.0 -202.0C-432.0 -191.0 -395.0 -183.0 -237.0 -169.0C-236.0 -140.0 -230.0 -88.0 -222.0 -52.0L-401.0 -63.0L-460.0 -101.0ZM-447.0 -440.0C-420.0 -427.0 -377.0 -418.0 -167.0 -390.0C-167.0 -361.0 -163.0 -309.0 -156.0 -273.0L-394.0 -297.0L-453.0 -336.0ZM-455.0 -464.0C-459.0 -554.0 -468.0 -651.0 -493.0 -714.0C-466.0 -720.0 -415.0 -735.0 -393.0 -746.0C-370.0 -681.0 -356.0 -579.0 -351.0 -480.0Z"/></g>
<g fill="green" transform="translate(500 100) scale(0.1 -0.1)"><path d="M-0.0 0.0V-165.0H30.0V0.0ZM252.0 -2.0V-161.0H286.0V-2.0ZM-495.0 -332.0C-495.0 -322.0 -463.0 -308.0 -463.0 -308.0C-394.0 -223.0 -325.0 -100.0 -268.0 23.0L-306.0 38.0C-348.0 -80.0 -428.0 -205.0 -452.0 -236.0C-473.0 -270.0 -490.0 -292.0 -507.0 -295.0C-502.0 -306.0 -497.0 -324.0 -495.0 -332.0ZM-492.0 -577.0C-492.0 -567.0 -460.0 -554.0 -460.0 -554.0V-555.0C-359.0 -446.0 -255.0 -294.0 -167.0 -141.0L-200.0 -126.0C-276.0 -273.0 -393.0 -428.0 -426.0 -467.0C-460.0 -507.0 -485.0 -538.0 -503.0 -541.0C-498.0 -551.0 -494.0 -569.0 -492.0 -577.0ZM-262.0 -368.0C-229.0 -439.0 -198.0 -532.0 -185.0 -588.0L-151.0 -577.0C-163.0 -523.0 -197.0 -432.0 -229.0 -361.0ZM160.0 -770.0C185.0 -807.0 213.0 -859.0 225.0 -891.0L254.0 -876.0C242.0 -845.0 213.0 -796.0 186.0 -760.0ZM-495.0 -332.0C-480.0 -326.0 -456.0 -322.0 -274.0 -299.0C-274.0 -292.0 -274.0 -278.0 -273.0 -269.0L-470.0 -289.0L-495.0 -302.0ZM-492.0 -577.0C-474.0 -569.0 -446.0 -563.0 -192.0 -524.0C-192.0 -517.0 -193.0 -505.0 -193.0 -496.0L-466.0 -533.0L-492.0 -548.0ZM-446.0 -640.0C-460.0 -727.0 -479.0 -823.0 -507.0 -894.0C-499.0 -897.0 -481.0 -904.0 -476.0 -907.0C-453.0 -839.0 -427.0 -736.0 -412.0 -647.0Z"/></g>
<g fill="green" transform="translate(600 100) scale(0.1 -0.1)"><path d="M0.0 0.0V-161.0H154.0V0.0ZM270.0 0.0V-160.0H426.0V0.0ZM-433.0 -392.0C-433.0 -368.0 -356.0 -325.0 -356.0 -325.0V-323.0C-293.0 -237.0 -224.0 -112.0 -180.0 4.0L-307.0 56.0C-338.0 -58.0 -398.0 -178.0 -418.0 -208.0C-437.0 -241.0 -453.0 -261.0 -475.0 -267.0C-460.0 -302.0 -439.0 -365.0 -433.0 -392.0ZM-424.0 -651.0C-424.0 -628.0 -347.0 -585.0 -347.0 -585.0V-581.0C-245.0 -474.0 -137.0 -320.0 -58.0 -168.0L-187.0 -107.0C-246.0 -256.0 -350.0 -411.0 -385.0 -451.0C-418.0 -491.0 -439.0 -514.0 -469.0 -521.0C-452.0 -558.0 -430.0 -625.0 -424.0 -651.0ZM-207.0 -416.0C-177.0 -489.0 -148.0 -588.0 -142.0 -648.0L-40.0 -613.0C-50.0 -553.0 -80.0 -458.0 -112.0 -386.0ZM227.0 -850.0C243.0 -891.0 257.0 -944.0 261.0 -975.0L367.0 -952.0C362.0 -920.0 344.0 -869.0 327.0 -830.0ZM-433.0 -392.0C-408.0 -381.0 -371.0 -372.0 -209.0 -357.0C-208.0 -327.0 -201.0 -274.0 -194.0 -236.0L-378.0 -248.0L-437.0 -288.0ZM-424.0 -651.0C-397.0 -637.0 -353.0 -626.0 -123.0 -591.0C-124.0 -562.0 -120.0 -509.0 -115.0 -472.0L-372.0 -503.0L-430.0 -544.0ZM-436.0 -678.0C-438.0 -768.0 -449.0 -865.0 -474.0 -929.0C-445.0 -936.0 -391.0 -953.0 -368.0 -966.0C-343.0 -900.0 -331.0 -795.0 -325.0 -696.0Z"/></g>
<g fill="green" transform="translate(700 100) scale(0.1 -0.1)"><path d="M0.0 0.0V-226.0H31.0V0.0ZM127.0 0.0V-227.0H159.0V0.0ZM-563.0 -242.0C-563.0 -233.0 -534.0 -220.0 -534.0 -220.0C-464.0 -135.0 -394.0 -12.0 -336.0 108.0L-368.0 122.0C-416.0 5.0 -495.0 -117.0 -518.0 -149.0C-540.0 -182.0 -559.0 -205.0 -574.0 -208.0C-570.0 -218.0 -565.0 -234.0 -563.0 -242.0ZM-556.0 -467.0C-556.0 -457.0 -528.0 -447.0 -528.0 -447.0V-446.0C-434.0 -345.0 -339.0 -203.0 -259.0 -60.0L-289.0 -46.0C-359.0 -183.0 -466.0 -328.0 -497.0 -365.0C-527.0 -401.0 -551.0 -431.0 -568.0 -433.0C-563.0 -442.0 -558.0 -459.0 -556.0 -467.0ZM-436.0 -578.0C-426.0 -650.0 -417.0 -743.0 -416.0 -807.0L-386.0 -802.0C-387.0 -740.0 -397.0 -647.0 -406.0 -575.0ZM-394.0 -480.0C-371.0 -545.0 -346.0 -631.0 -336.0 -686.0L-306.0 -680.0C-315.0 -623.0 -342.0 -539.0 -366.0 -473.0ZM-563.0 -242.0C-549.0 -237.0 -526.0 -233.0 -355.0 -211.0C-355.0 -204.0 -355.0 -191.0 -354.0 -183.0L-539.0 -202.0L-563.0 -214.0ZM-556.0 -467.0C-540.0 -459.0 -514.0 -453.0 -257.0 -413.0C-256.0 -407.0 -258.0 -395.0 -258.0 -386.0L-532.0 -425.0L-556.0 -439.0ZM-524.0 -524.0C-536.0 -608.0 -554.0 -701.0 -580.0 -766.0C-573.0 -770.0 -557.0 -776.0 -551.0 -779.0C-529.0 -714.0 -507.0 -617.0 -491.0 -531.0Z"/></g>
<g fill="green" transform="translate(800 100) scale(0.1 -0.1)"><path d="M0.0 0.0V-253.0H120.0V0.0ZM134.0 0.0V-253.0H256.0V0.0ZM-514.0 -282.0C-514.0 -259.0 -437.0 -218.0 -437.0 -218.0V-216.0C-374.0 -135.0 -305.0 -18.0 -261.0 92.0L-389.0 142.0C-420.0 34.0 -479.0 -77.0 -499.0 -106.0C-519.0 -137.0 -536.0 -156.0 -557.0 -161.0C-542.0 -195.0 -522.0 -256.0 -514.0 -282.0ZM-506.0 -524.0C-506.0 -501.0 -427.0 -458.0 -427.0 -458.0V-456.0C-327.0 -356.0 -225.0 -219.0 -156.0 -89.0L-276.0 -11.0C-333.0 -150.0 -436.0 -294.0 -469.0 -330.0C-501.0 -368.0 -522.0 -389.0 -550.0 -396.0C-535.0 -432.0 -512.0 -499.0 -506.0 -524.0ZM-414.0 -620.0C-408.0 -694.0 -403.0 -792.0 -405.0 -857.0L-299.0 -840.0C-301.0 -775.0 -306.0 -680.0 -315.0 -604.0ZM-373.0 -511.0C-356.0 -579.0 -338.0 -668.0 -332.0 -728.0L-237.0 -696.0C-244.0 -637.0 -263.0 -551.0 -282.0 -483.0ZM-514.0 -282.0C-491.0 -272.0 -454.0 -262.0 -296.0 -249.0C-295.0 -220.0 -289.0 -168.0 -280.0 -132.0L-460.0 -143.0L-518.0 -182.0ZM-506.0 -524.0C-479.0 -511.0 -436.0 -501.0 -218.0 -471.0C-219.0 -441.0 -215.0 -391.0 -209.0 -355.0L-453.0 -382.0L-512.0 -421.0ZM-513.0 -549.0C-516.0 -639.0 -527.0 -736.0 -551.0 -798.0C-522.0 -806.0 -468.0 -822.0 -442.0 -834.0C-420.0 -769.0 -406.0 -665.0 -401.0 -567.0Z"/></g>
<g fill="green" transform="translate(900 100) scale(0.1 -0.1)"><path d="M0.0 0.0V-171.0H33.0V0.0ZM159.0 -0.0V-168.0H194.0V-0.0ZM-607.0 -191.0C-607.0 -180.0 -575.0 -166.0 -575.0 -166.0V-165.0C-505.0 -73.0 -434.0 61.0 -376.0 193.0L-411.0 209.0C-458.0 81.0 -538.0 -53.0 -563.0 -88.0C-583.0 -124.0 -602.0 -149.0 -619.0 -152.0C-615.0 -163.0 -609.0 -182.0 -607.0 -191.0ZM-600.0 -441.0C-600.0 -430.0 -570.0 -418.0 -570.0 -418.0V-417.0C-469.0 -304.0 -369.0 -147.0 -283.0 13.0L-315.0 28.0C-389.0 -124.0 -504.0 -285.0 -537.0 -326.0C-570.0 -368.0 -594.0 -400.0 -613.0 -403.0C-608.0 -413.0 -602.0 -432.0 -600.0 -441.0ZM-456.0 -488.0C-440.0 -567.0 -427.0 -669.0 -422.0 -736.0L-390.0 -730.0C-394.0 -663.0 -409.0 -563.0 -423.0 -484.0ZM-334.0 -492.0C-312.0 -556.0 -284.0 -641.0 -273.0 -697.0L-241.0 -687.0C-253.0 -632.0 -280.0 -548.0 -306.0 -485.0ZM-607.0 -191.0C-592.0 -185.0 -568.0 -180.0 -397.0 -157.0C-396.0 -149.0 -397.0 -136.0 -396.0 -126.0L-581.0 -145.0L-607.0 -159.0ZM-600.0 -441.0C-583.0 -432.0 -555.0 -426.0 -294.0 -384.0C-295.0 -376.0 -297.0 -363.0 -295.0 -355.0L-574.0 -394.0L-600.0 -410.0ZM-560.0 -505.0C-574.0 -597.0 -594.0 -699.0 -621.0 -772.0C-614.0 -776.0 -597.0 -783.0 -590.0 -786.0C-566.0 -714.0 -543.0 -607.0 -526.0 -512.0Z"/></g>
<g fill="green" transform="translate(1000 100) scale(0.1 -0.1)"><path d="M0.0 0.0V-213.0H130.0V0.0ZM187.0 0.0V-208.0H321.0V0.0ZM-531.0 -249.0C-531.0 -225.0 -454.0 -181.0 -454.0 -181.0V-178.0C-389.0 -90.0 -321.0 40.0 -278.0 159.0L-407.0 211.0C-437.0 93.0 -496.0 -31.0 -516.0 -63.0C-535.0 -96.0 -553.0 -118.0 -574.0 -123.0C-560.0 -158.0 -537.0 -222.0 -531.0 -249.0ZM-522.0 -518.0C-522.0 -493.0 -445.0 -451.0 -445.0 -451.0V-447.0C-340.0 -330.0 -232.0 -168.0 -157.0 -12.0L-275.0 60.0C-337.0 -101.0 -446.0 -270.0 -481.0 -314.0C-514.0 -356.0 -536.0 -382.0 -566.0 -389.0C-551.0 -425.0 -529.0 -491.0 -522.0 -518.0ZM-410.0 -545.0C-401.0 -617.0 -389.0 -712.0 -390.0 -775.0L-286.0 -751.0C-291.0 -689.0 -300.0 -596.0 -313.0 -524.0ZM-276.0 -546.0C-257.0 -612.0 -237.0 -700.0 -230.0 -757.0L-135.0 -725.0C-144.0 -669.0 -165.0 -585.0 -187.0 -518.0ZM-531.0 -249.0C-507.0 -237.0 -468.0 -228.0 -297.0 -213.0C-296.0 -182.0 -289.0 -128.0 -282.0 -91.0L-475.0 -103.0L-535.0 -143.0ZM-522.0 -518.0C-494.0 -503.0 -449.0 -491.0 -204.0 -454.0C-204.0 -424.0 -200.0 -370.0 -194.0 -333.0L-469.0 -367.0L-529.0 -408.0ZM-541.0 -545.0C-545.0 -640.0 -555.0 -744.0 -581.0 -812.0C-552.0 -818.0 -498.0 -835.0 -474.0 -848.0C-450.0 -778.0 -437.0 -668.0 -431.0 -563.0Z"/></g>
<g fill="red" transform="translate(100 200) scale(0.1 -0.1)"><path d="M0.0 0.0V-212.0H30.0V0.0ZM142.0 0.0V-212.0H172.0V0.0ZM-532.0 -257.0C-532.0 -247.0 -504.0 -235.0 -504.0 -235.0C-436.0 -153.0 -369.0 -35.0 -313.0 81.0L-344.0 95.0C-390.0 -17.0 -466.0 -136.0 -489.0 -166.0C-510.0 -198.0 -528.0 -220.0 -543.0 -223.0C-539.0 -232.0 -534.0 -249.0 -532.0 -257.0ZM-526.0 -476.0C-526.0 -466.0 -498.0 -456.0 -498.0 -456.0V-455.0C-407.0 -358.0 -315.0 -219.0 -236.0 -80.0L-266.0 -66.0C-334.0 -199.0 -438.0 -340.0 -468.0 -376.0C-497.0 -412.0 -520.0 -440.0 -537.0 -443.0C-533.0 -452.0 -528.0 -468.0 -526.0 -476.0ZM-392.0 -534.0C-379.0 -603.0 -367.0 -693.0 -364.0 -752.0L-335.0 -747.0C-338.0 -688.0 -351.0 -599.0 -363.0 -530.0ZM-292.0 -516.0C-269.0 -575.0 -245.0 -653.0 -235.0 -703.0L-207.0 -695.0C-216.0 -645.0 -242.0 -568.0 -265.0 -509.0ZM-532.0 -257.0C-519.0 -251.0 -496.0 -247.0 -329.0 -226.0C-330.0 -219.0 -330.0 -207.0 -329.0 -199.0L-509.0 -217.0L-532.0 -229.0ZM-526.0 -476.0C-510.0 -468.0 -484.0 -462.0 -236.0 -424.0C-236.0 -418.0 -237.0 -406.0 -237.0 -397.0L-503.0 -435.0L-526.0 -449.0ZM-492.0 -532.0C-505.0 -613.0 -523.0 -703.0 -548.0 -767.0C-540.0 -770.0 -525.0 -776.0 -519.0 -779.0C-498.0 -716.0 -476.0 -622.0 -461.0 -538.0Z"/></g>
<g fill="black" opacity=".8" transform="translate(100 200) scale(0.1 -0.1)"><path d="M0.0 0.0V-212.0H30.0V0.0ZM141.0 -0.0V-212.0H172.0V-0.0ZM-532.0 -256.0C-532.0 -247.0 -504.0 -235.0 -504.0 -235.0C-436.0 -153.0 -369.0 -35.0 -313.0 81.0L-345.0 95.0C-390.0 -18.0 -467.0 -136.0 -489.0 -166.0C-510.0 -198.0 -528.0 -220.0 -543.0 -223.0C-539.0 -233.0 -534.0 -249.0 -532.0 -256.0ZM-526.0 -476.0C-526.0 -466.0 -498.0 -456.0 -498.0 -456.0C-407.0 -357.0 -314.0 -219.0 -236.0 -80.0L-265.0 -66.0C-334.0 -199.0 -438.0 -340.0 -468.0 -377.0C-497.0 -412.0 -521.0 -441.0 -537.0 -443.0C-532.0 -452.0 -528.0 -468.0 -526.0 -476.0ZM-392.0 -534.0C-379.0 -603.0 -367.0 -692.0 -364.0 -753.0L-335.0 -747.0C-338.0 -688.0 -351.0 -599.0 -363.0 -530.0ZM-292.0 -516.0C-270.0 -575.0 -245.0 -653.0 -235.0 -703.0L-207.0 -696.0C-216.0 -644.0 -242.0 -568.0 -266.0 -509.0ZM-532.0 -256.0C-518.0 -251.0 -496.0 -247.0 -329.0 -226.0C-329.0 -219.0 -329.0 -207.0 -328.0 -199.0L-509.0 -217.0L-532.0 -229.0ZM-526.0 -476.0C-510.0 -468.0 -485.0 -462.0 -236.0 -424.0C-235.0 -418.0 -237.0 -406.0 -237.0 -398.0L-502.0 -435.0L-526.0 -449.0ZM-493.0 -532.0C-505.0 -613.0 -522.0 -703.0 -547.0 -766.0C-541.0 -770.0 -525.0 -776.0 -519.0 -779.0C-498.0 -716.0 -476.0 -622.0 -461.0 -538.0Z"/></g>
<g fill="red" transform="translate(200 200) scale(0.1 -0.1)"><path d="M0.0 0.0V-234.0H121.0V0.0ZM148.0 0.0V-234.0H270.0V0.0ZM-485.0 -297.0C-485.0 -274.0 -411.0 -235.0 -411.0 -235.0V-232.0C-350.0 -154.0 -283.0 -40.0 -240.0 66.0L-364.0 116.0C-394.0 11.0 -451.0 -98.0 -471.0 -126.0C-490.0 -156.0 -506.0 -174.0 -526.0 -180.0C-512.0 -213.0 -492.0 -272.0 -485.0 -297.0ZM-477.0 -533.0C-477.0 -510.0 -401.0 -469.0 -401.0 -469.0V-466.0C-304.0 -370.0 -205.0 -235.0 -137.0 -107.0L-254.0 -34.0C-310.0 -169.0 -409.0 -309.0 -441.0 -344.0C-472.0 -381.0 -493.0 -402.0 -520.0 -409.0C-505.0 -444.0 -483.0 -508.0 -477.0 -533.0ZM-369.0 -574.0C-359.0 -646.0 -351.0 -740.0 -351.0 -803.0L-250.0 -783.0C-252.0 -721.0 -262.0 -629.0 -274.0 -556.0ZM-269.0 -553.0C-253.0 -614.0 -236.0 -694.0 -230.0 -747.0L-136.0 -717.0C-143.0 -665.0 -161.0 -587.0 -179.0 -526.0ZM-485.0 -297.0C-463.0 -287.0 -427.0 -278.0 -275.0 -265.0C-274.0 -237.0 -268.0 -187.0 -260.0 -152.0L-433.0 -163.0L-489.0 -200.0ZM-477.0 -533.0C-451.0 -520.0 -410.0 -510.0 -198.0 -480.0C-199.0 -452.0 -195.0 -402.0 -189.0 -368.0L-427.0 -395.0L-483.0 -433.0ZM-484.0 -557.0C-488.0 -643.0 -498.0 -736.0 -521.0 -796.0C-493.0 -804.0 -441.0 -820.0 -416.0 -832.0C-395.0 -769.0 -381.0 -669.0 -376.0 -574.0Z"/></g>
<g fill="black" opacity=".8" transform="translate(200 200) scale(0.1 -0.1)"><path d="M0.0 0.0V-235.0H120.0V0.0ZM148.0 0.0V-235.0H270.0V0.0ZM-485.0 -297.0C-485.0 -275.0 -411.0 -235.0 -411.0 -235.0V-233.0C-350.0 -154.0 -283.0 -40.0 -240.0 67.0L-363.0 115.0C-394.0 10.0 -451.0 -98.0 -470.0 -126.0C-490.0 -156.0 -506.0 -174.0 -526.0 -179.0C-512.0 -212.0 -493.0 -272.0 -485.0 -297.0ZM-477.0 -532.0C-477.0 -510.0 -401.0 -469.0 -401.0 -469.0V-467.0C-305.0 -369.0 -205.0 -235.0 -137.0 -107.0L-254.0 -34.0C-309.0 -169.0 -409.0 -309.0 -441.0 -344.0C-472.0 -381.0 -493.0 -402.0 -520.0 -408.0C-505.0 -443.0 -483.0 -508.0 -477.0 -532.0ZM-369.0 -574.0C-359.0 -645.0 -351.0 -740.0 -352.0 -802.0L-249.0 -783.0C-253.0 -721.0 -261.0 -629.0 -274.0 -556.0ZM-269.0 -552.0C-253.0 -614.0 -236.0 -694.0 -230.0 -748.0L-136.0 -717.0C-143.0 -665.0 -161.0 -587.0 -179.0 -526.0ZM-485.0 -297.0C-463.0 -287.0 -427.0 -278.0 -275.0 -265.0C-274.0 -237.0 -268.0 -187.0 -259.0 -152.0L-433.0 -162.0L-489.0 -200.0ZM-477.0 -532.0C-451.0 -520.0 -410.0 -510.0 -198.0 -480.0C-199.0 -451.0 -195.0 -403.0 -190.0 -368.0L-427.0 -395.0L-483.0 -433.0ZM-485.0 -557.0C-487.0 -643.0 -498.0 -736.0 -521.0 -796.0C-493.0 -804.0 -441.0 -820.0 -416.0 -831.0C-395.0 -769.0 -381.0 -669.0 -376.0 -574.0Z"/></g>
<g fill="red" transform="translate(300 200) scale(0.1 -0.1)"><path d="M0.0 0.0V-190.0H29.0V0.0ZM131.0 0.0V-185.0H160.0V0.0ZM-548.0 -265.0C-548.0 -255.0 -521.0 -243.0 -521.0 -243.0C-458.0 -161.0 -396.0 -43.0 -344.0 73.0L-372.0 87.0C-416.0 -25.0 -486.0 -144.0 -508.0 -174.0C-527.0 -206.0 -544.0 -228.0 -558.0 -231.0C-555.0 -240.0 -550.0 -257.0 -548.0 -265.0ZM-542.0 -484.0C-542.0 -474.0 -516.0 -464.0 -516.0 -464.0V-463.0C-430.0 -364.0 -346.0 -224.0 -272.0 -84.0L-300.0 -70.0C-363.0 -204.0 -459.0 -346.0 -488.0 -383.0C-515.0 -420.0 -537.0 -448.0 -553.0 -451.0C-549.0 -460.0 -544.0 -476.0 -542.0 -484.0ZM-409.0 -542.0C-397.0 -611.0 -386.0 -701.0 -383.0 -760.0L-356.0 -755.0C-359.0 -696.0 -371.0 -607.0 -382.0 -538.0ZM-306.0 -524.0C-284.0 -587.0 -260.0 -669.0 -249.0 -723.0L-223.0 -715.0C-233.0 -662.0 -259.0 -580.0 -281.0 -517.0ZM-548.0 -265.0C-536.0 -259.0 -515.0 -255.0 -364.0 -234.0C-364.0 -228.0 -364.0 -216.0 -363.0 -207.0L-526.0 -225.0L-548.0 -237.0ZM-542.0 -484.0C-527.0 -476.0 -502.0 -470.0 -257.0 -430.0C-258.0 -423.0 -259.0 -411.0 -258.0 -403.0L-519.0 -442.0L-542.0 -457.0ZM-506.0 -540.0C-518.0 -621.0 -535.0 -711.0 -558.0 -775.0C-551.0 -778.0 -537.0 -784.0 -531.0 -787.0C-511.0 -724.0 -491.0 -630.0 -477.0 -546.0Z"/></g>
<g fill="black" opacity=".8" transform="translate(300 200) scale(0.1 -0.1)"><path d="M0.0 0.0V-190.0H28.0V0.0ZM130.0 -0.0V-185.0H161.0V-0.0ZM-548.0 -264.0C-548.0 -256.0 -520.0 -243.0 -520.0 -243.0C-458.0 -161.0 -396.0 -43.0 -345.0 73.0L-372.0 87.0C-416.0 -26.0 -486.0 -143.0 -508.0 -175.0C-527.0 -206.0 -544.0 -228.0 -558.0 -231.0C-555.0 -241.0 -550.0 -257.0 -548.0 -264.0ZM-542.0 -484.0C-542.0 -474.0 -517.0 -464.0 -517.0 -464.0V-463.0C-430.0 -363.0 -346.0 -224.0 -272.0 -83.0L-299.0 -70.0C-362.0 -204.0 -459.0 -346.0 -488.0 -384.0C-516.0 -420.0 -538.0 -448.0 -553.0 -450.0C-548.0 -459.0 -544.0 -476.0 -542.0 -484.0ZM-409.0 -541.0C-397.0 -611.0 -387.0 -701.0 -383.0 -761.0L-356.0 -755.0C-359.0 -696.0 -371.0 -608.0 -382.0 -538.0ZM-306.0 -524.0C-285.0 -587.0 -260.0 -669.0 -249.0 -723.0L-223.0 -716.0C-233.0 -661.0 -259.0 -580.0 -282.0 -517.0ZM-548.0 -264.0C-535.0 -259.0 -515.0 -256.0 -365.0 -234.0C-364.0 -228.0 -364.0 -216.0 -363.0 -207.0L-525.0 -225.0L-548.0 -237.0ZM-542.0 -484.0C-527.0 -476.0 -503.0 -470.0 -257.0 -430.0C-257.0 -423.0 -259.0 -411.0 -258.0 -404.0L-519.0 -443.0L-542.0 -456.0ZM-507.0 -540.0C-517.0 -621.0 -534.0 -711.0 -557.0 -774.0C-552.0 -778.0 -537.0 -784.0 -531.0 -787.0C-511.0 -724.0 -492.0 -630.0 -477.0 -547.0Z"/></g>
<g fill="red" transform="translate(400 200) scale(0.1 -0.1)"><path d="M0.0 0.0V-248.0H106.0V0.0ZM135.0 0.0V-248.0H241.0V0.0ZM-507.0 -305.0C-507.0 -283.0 -439.0 -245.0 -439.0 -245.0V-242.0C-379.0 -165.0 -315.0 -51.0 -273.0 54.0L-387.0 102.0C-416.0 -2.0 -472.0 -111.0 -491.0 -139.0C-510.0 -168.0 -526.0 -186.0 -545.0 -192.0C-532.0 -224.0 -512.0 -281.0 -507.0 -305.0ZM-500.0 -541.0C-500.0 -519.0 -431.0 -481.0 -431.0 -481.0V-478.0C-337.0 -376.0 -239.0 -235.0 -172.0 -99.0L-274.0 -31.0C-331.0 -173.0 -430.0 -321.0 -462.0 -358.0C-492.0 -396.0 -512.0 -419.0 -538.0 -426.0C-525.0 -458.0 -506.0 -517.0 -500.0 -541.0ZM-407.0 -581.0C-398.0 -647.0 -388.0 -733.0 -387.0 -791.0L-289.0 -764.0C-293.0 -707.0 -303.0 -623.0 -315.0 -557.0ZM-303.0 -556.0C-284.0 -616.0 -262.0 -695.0 -254.0 -747.0L-162.0 -711.0C-173.0 -661.0 -195.0 -585.0 -217.0 -525.0ZM-507.0 -305.0C-487.0 -295.0 -454.0 -287.0 -308.0 -274.0C-307.0 -248.0 -301.0 -202.0 -294.0 -170.0L-460.0 -180.0L-510.0 -215.0ZM-500.0 -541.0C-476.0 -528.0 -437.0 -517.0 -218.0 -481.0C-219.0 -456.0 -216.0 -410.0 -211.0 -379.0L-456.0 -413.0L-506.0 -448.0ZM-516.0 -565.0C-520.0 -646.0 -529.0 -735.0 -550.0 -792.0C-524.0 -799.0 -475.0 -815.0 -451.0 -828.0C-432.0 -767.0 -419.0 -672.0 -414.0 -582.0Z"/></g>
<g fill="black" opacity=".8" transform="translate(400 200) scale(0.1 -0.1)"><path d="M0.0 0.0V-249.0H105.0V0.0ZM134.0 0.0V-248.0H241.0V0.0ZM-507.0 -305.0C-507.0 -284.0 -439.0 -244.0 -439.0 -244.0V-242.0C-379.0 -165.0 -315.0 -51.0 -273.0 55.0L-386.0 102.0C-416.0 -2.0 -472.0 -111.0 -491.0 -139.0C-510.0 -168.0 -526.0 -187.0 -545.0 -192.0C-532.0 -224.0 -513.0 -281.0 -507.0 -305.0ZM-500.0 -541.0C-500.0 -519.0 -431.0 -481.0 -431.0 -481.0V-479.0C-337.0 -375.0 -239.0 -235.0 -172.0 -99.0L-274.0 -31.0C-330.0 -173.0 -430.0 -321.0 -462.0 -359.0C-492.0 -396.0 -512.0 -418.0 -537.0 -425.0C-525.0 -457.0 -506.0 -517.0 -500.0 -541.0ZM-407.0 -581.0C-399.0 -646.0 -388.0 -733.0 -388.0 -791.0L-288.0 -764.0C-294.0 -706.0 -302.0 -623.0 -315.0 -557.0ZM-303.0 -556.0C-283.0 -615.0 -262.0 -695.0 -254.0 -748.0L-162.0 -711.0C-173.0 -660.0 -195.0 -586.0 -218.0 -525.0ZM-507.0 -305.0C-487.0 -295.0 -454.0 -286.0 -307.0 -274.0C-306.0 -248.0 -300.0 -201.0 -294.0 -170.0L-460.0 -180.0L-510.0 -215.0ZM-500.0 -541.0C-477.0 -528.0 -437.0 -517.0 -218.0 -481.0C-219.0 -455.0 -216.0 -411.0 -211.0 -379.0L-455.0 -413.0L-506.0 -447.0ZM-516.0 -565.0C-519.0 -646.0 -529.0 -735.0 -551.0 -792.0C-524.0 -799.0 -474.0 -815.0 -451.0 -827.0C-431.0 -767.0 -419.0 -672.0 -414.0 -583.0Z"/></g>
<g fill="red" transform="translate(500 200) scale(0.1 -0.1)"><path d="M0.0 0.0V-158.0H30.0V0.0ZM140.0 0.0V-158.0H170.0V0.0ZM-530.0 -152.0C-530.0 -142.0 -502.0 -130.0 -502.0 -130.0V-129.0C-438.0 -48.0 -374.0 70.0 -321.0 186.0L-353.0 200.0C-395.0 88.0 -468.0 -31.0 -490.0 -61.0C-509.0 -93.0 -526.0 -115.0 -541.0 -118.0C-537.0 -127.0 -532.0 -144.0 -530.0 -152.0ZM-524.0 -371.0C-524.0 -361.0 -496.0 -351.0 -496.0 -351.0V-350.0C-406.0 -252.0 -315.0 -114.0 -237.0 25.0L-267.0 39.0C-334.0 -94.0 -437.0 -235.0 -467.0 -270.0C-496.0 -307.0 -518.0 -335.0 -535.0 -338.0C-531.0 -347.0 -526.0 -363.0 -524.0 -371.0ZM-402.0 -426.0C-389.0 -495.0 -377.0 -585.0 -374.0 -644.0L-345.0 -639.0C-348.0 -580.0 -360.0 -491.0 -373.0 -422.0ZM-313.0 -408.0C-293.0 -464.0 -269.0 -538.0 -260.0 -586.0L-231.0 -577.0C-241.0 -530.0 -264.0 -457.0 -287.0 -402.0ZM-530.0 -152.0C-517.0 -146.0 -495.0 -142.0 -338.0 -122.0C-338.0 -115.0 -339.0 -103.0 -338.0 -95.0L-507.0 -112.0L-530.0 -124.0ZM-524.0 -371.0C-509.0 -363.0 -483.0 -358.0 -254.0 -322.0C-255.0 -316.0 -256.0 -304.0 -255.0 -296.0L-501.0 -330.0L-524.0 -344.0ZM-490.0 -427.0C-503.0 -508.0 -521.0 -598.0 -546.0 -662.0C-538.0 -665.0 -523.0 -671.0 -517.0 -674.0C-496.0 -611.0 -474.0 -517.0 -459.0 -433.0Z"/></g>
<g fill="black" opacity=".8" transform="translate(500 200) scale(0.1 -0.1)"><path d="M0.0 0.0V-158.0H30.0V0.0ZM139.0 0.0V-158.0H170.0V0.0ZM-530.0 -152.0C-530.0 -142.0 -502.0 -130.0 -502.0 -130.0V-129.0C-438.0 -48.0 -373.0 70.0 -321.0 186.0L-354.0 200.0C-395.0 87.0 -468.0 -30.0 -490.0 -61.0C-509.0 -93.0 -526.0 -115.0 -541.0 -118.0C-537.0 -127.0 -532.0 -144.0 -530.0 -152.0ZM-524.0 -371.0C-524.0 -362.0 -496.0 -351.0 -496.0 -351.0V-350.0C-406.0 -252.0 -315.0 -114.0 -238.0 25.0L-267.0 39.0C-334.0 -94.0 -437.0 -235.0 -467.0 -270.0C-496.0 -307.0 -518.0 -335.0 -536.0 -338.0C-531.0 -347.0 -526.0 -363.0 -524.0 -371.0ZM-403.0 -425.0C-389.0 -495.0 -378.0 -585.0 -374.0 -645.0L-345.0 -640.0C-348.0 -580.0 -360.0 -492.0 -373.0 -422.0ZM-313.0 -408.0C-294.0 -464.0 -269.0 -537.0 -260.0 -586.0L-231.0 -577.0C-240.0 -530.0 -265.0 -457.0 -287.0 -402.0ZM-530.0 -152.0C-516.0 -146.0 -495.0 -142.0 -338.0 -122.0C-338.0 -115.0 -339.0 -103.0 -338.0 -95.0L-507.0 -111.0L-530.0 -124.0ZM-524.0 -371.0C-509.0 -363.0 -483.0 -358.0 -254.0 -322.0C-255.0 -316.0 -257.0 -304.0 -255.0 -297.0L-501.0 -330.0L-524.0 -344.0ZM-490.0 -427.0C-503.0 -508.0 -520.0 -598.0 -546.0 -662.0C-539.0 -666.0 -523.0 -672.0 -517.0 -674.0C-496.0 -611.0 -475.0 -517.0 -459.0 -433.0Z"/></g>
<g fill="red" transform="translate(600 200) scale(0.1 -0.1)"><path d="M0.0 0.0V-180.0H120.0V0.0ZM167.0 0.0V-176.0H289.0V0.0ZM-459.0 -203.0C-459.0 -181.0 -389.0 -143.0 -389.0 -143.0V-140.0C-332.0 -62.0 -271.0 52.0 -233.0 156.0L-351.0 203.0C-377.0 99.0 -429.0 -10.0 -447.0 -38.0C-464.0 -67.0 -479.0 -86.0 -498.0 -91.0C-485.0 -122.0 -465.0 -179.0 -459.0 -203.0ZM-451.0 -439.0C-451.0 -417.0 -380.0 -379.0 -380.0 -379.0V-375.0C-287.0 -275.0 -192.0 -135.0 -127.0 -2.0L-236.0 64.0C-290.0 -74.0 -385.0 -220.0 -416.0 -257.0C-445.0 -294.0 -465.0 -317.0 -492.0 -323.0C-477.0 -356.0 -457.0 -415.0 -451.0 -439.0ZM-352.0 -477.0C-344.0 -543.0 -336.0 -629.0 -337.0 -686.0L-246.0 -669.0C-248.0 -613.0 -256.0 -528.0 -266.0 -462.0ZM-252.0 -457.0C-237.0 -517.0 -221.0 -596.0 -216.0 -647.0L-133.0 -622.0C-139.0 -571.0 -156.0 -494.0 -173.0 -434.0ZM-459.0 -203.0C-437.0 -193.0 -402.0 -185.0 -249.0 -171.0C-248.0 -143.0 -242.0 -94.0 -235.0 -60.0L-408.0 -71.0L-463.0 -107.0ZM-451.0 -439.0C-425.0 -426.0 -385.0 -416.0 -173.0 -386.0C-173.0 -359.0 -169.0 -309.0 -163.0 -275.0L-402.0 -302.0L-457.0 -340.0ZM-464.0 -463.0C-468.0 -549.0 -477.0 -642.0 -500.0 -703.0C-474.0 -709.0 -426.0 -723.0 -404.0 -735.0C-383.0 -672.0 -370.0 -573.0 -365.0 -478.0Z"/></g>
<g fill="black" opacity=".8" transform="translate(600 200) scale(0.1 -0.1)"><path d="M0.0 0.0V-181.0H119.0V0.0ZM166.0 0.0V-176.0H289.0V0.0ZM-459.0 -203.0C-459.0 -181.0 -389.0 -143.0 -389.0 -143.0V-140.0C-332.0 -62.0 -271.0 51.0 -233.0 157.0L-351.0 203.0C-377.0 99.0 -429.0 -10.0 -447.0 -38.0C-463.0 -67.0 -479.0 -87.0 -498.0 -91.0C-485.0 -122.0 -465.0 -179.0 -459.0 -203.0ZM-451.0 -439.0C-451.0 -416.0 -380.0 -379.0 -380.0 -379.0V-376.0C-287.0 -274.0 -192.0 -135.0 -127.0 -2.0L-236.0 65.0C-289.0 -75.0 -385.0 -220.0 -415.0 -257.0C-445.0 -294.0 -465.0 -316.0 -492.0 -322.0C-477.0 -356.0 -457.0 -415.0 -451.0 -439.0ZM-352.0 -477.0C-344.0 -542.0 -336.0 -629.0 -338.0 -685.0L-246.0 -669.0C-248.0 -613.0 -255.0 -528.0 -266.0 -462.0ZM-252.0 -457.0C-236.0 -516.0 -221.0 -596.0 -216.0 -647.0L-132.0 -622.0C-139.0 -571.0 -155.0 -494.0 -172.0 -434.0ZM-459.0 -203.0C-437.0 -192.0 -402.0 -185.0 -249.0 -171.0C-248.0 -143.0 -242.0 -94.0 -235.0 -60.0L-408.0 -71.0L-463.0 -107.0ZM-451.0 -439.0C-426.0 -426.0 -384.0 -416.0 -173.0 -386.0C-173.0 -358.0 -169.0 -309.0 -163.0 -275.0L-402.0 -303.0L-457.0 -339.0ZM-464.0 -462.0C-468.0 -548.0 -476.0 -642.0 -500.0 -703.0C-474.0 -708.0 -426.0 -723.0 -405.0 -734.0C-383.0 -671.0 -370.0 -573.0 -365.0 -478.0Z"/></g>
<g fill="red" transform="translate(700 200) scale(0.1 -0.1)"><path d="M0.0 0.0V-155.0H27.0V0.0ZM224.0 -2.0V-148.0H253.0V-2.0ZM-462.0 -353.0C-462.0 -343.0 -434.0 -331.0 -434.0 -331.0C-373.0 -253.0 -313.0 -142.0 -263.0 -30.0L-294.0 -16.0C-333.0 -123.0 -402.0 -237.0 -424.0 -265.0C-442.0 -296.0 -458.0 -316.0 -472.0 -319.0C-468.0 -328.0 -464.0 -345.0 -462.0 -353.0ZM-459.0 -576.0C-459.0 -566.0 -431.0 -555.0 -431.0 -555.0C-343.0 -456.0 -254.0 -316.0 -177.0 -176.0L-206.0 -162.0C-272.0 -296.0 -372.0 -438.0 -402.0 -475.0C-431.0 -512.0 -453.0 -540.0 -469.0 -543.0C-465.0 -552.0 -461.0 -568.0 -459.0 -576.0ZM-244.0 -383.0C-215.0 -447.0 -187.0 -532.0 -175.0 -582.0L-146.0 -572.0C-157.0 -523.0 -187.0 -440.0 -216.0 -376.0ZM151.0 -754.0C175.0 -792.0 200.0 -844.0 212.0 -876.0L236.0 -863.0C225.0 -832.0 198.0 -782.0 174.0 -745.0ZM-462.0 -353.0C-449.0 -347.0 -428.0 -343.0 -270.0 -322.0C-270.0 -316.0 -270.0 -304.0 -269.0 -295.0L-440.0 -313.0L-462.0 -325.0ZM-459.0 -576.0C-443.0 -568.0 -418.0 -562.0 -182.0 -525.0C-183.0 -518.0 -183.0 -506.0 -183.0 -498.0L-436.0 -535.0L-459.0 -549.0ZM-415.0 -633.0C-428.0 -712.0 -445.0 -800.0 -469.0 -864.0C-461.0 -867.0 -446.0 -873.0 -441.0 -876.0C-421.0 -814.0 -399.0 -721.0 -386.0 -639.0Z"/></g>
<g fill="black" opacity=".8" transform="translate(700 200) scale(0.1 -0.1)"><path d="M0.0 0.0V-155.0H26.0V0.0ZM223.0 -2.0V-148.0H254.0V-2.0ZM-462.0 -352.0C-462.0 -344.0 -433.0 -330.0 -433.0 -330.0V-331.0C-373.0 -253.0 -312.0 -142.0 -263.0 -29.0L-295.0 -16.0C-333.0 -124.0 -402.0 -237.0 -424.0 -266.0C-442.0 -296.0 -458.0 -316.0 -472.0 -319.0C-468.0 -329.0 -464.0 -345.0 -462.0 -352.0ZM-459.0 -576.0C-459.0 -567.0 -432.0 -555.0 -432.0 -555.0V-556.0C-343.0 -455.0 -254.0 -316.0 -177.0 -175.0L-205.0 -162.0C-271.0 -297.0 -372.0 -438.0 -402.0 -476.0C-431.0 -512.0 -454.0 -540.0 -469.0 -542.0C-464.0 -552.0 -461.0 -568.0 -459.0 -576.0ZM-245.0 -382.0C-215.0 -447.0 -187.0 -532.0 -175.0 -583.0L-146.0 -572.0C-156.0 -523.0 -188.0 -441.0 -216.0 -376.0ZM151.0 -755.0C174.0 -792.0 200.0 -844.0 212.0 -876.0L236.0 -863.0C225.0 -831.0 198.0 -782.0 173.0 -745.0ZM-462.0 -352.0C-449.0 -347.0 -428.0 -344.0 -271.0 -322.0C-270.0 -316.0 -270.0 -304.0 -269.0 -295.0L-440.0 -313.0L-462.0 -325.0ZM-459.0 -576.0C-443.0 -568.0 -419.0 -563.0 -182.0 -524.0C-182.0 -518.0 -183.0 -506.0 -183.0 -499.0L-436.0 -535.0L-459.0 -549.0ZM-416.0 -633.0C-428.0 -712.0 -444.0 -799.0 -468.0 -864.0C-462.0 -867.0 -446.0 -873.0 -442.0 -876.0C-421.0 -814.0 -399.0 -720.0 -386.0 -640.0Z"/></g>
<g fill="red" transform="translate(800 200) scale(0.1 -0.1)"><path d="M0.0 0.0V-178.0H130.0V0.0ZM230.0 0.0V-178.0H360.0V0.0ZM-419.0 -403.0C-419.0 -381.0 -353.0 -343.0 -353.0 -343.0V-340.0C-294.0 -263.0 -231.0 -149.0 -190.0 -44.0L-301.0 4.0C-330.0 -100.0 -385.0 -209.0 -404.0 -237.0C-422.0 -266.0 -437.0 -284.0 -456.0 -290.0C-443.0 -322.0 -424.0 -379.0 -419.0 -403.0ZM-412.0 -639.0C-412.0 -618.0 -345.0 -580.0 -345.0 -580.0V-576.0C-253.0 -477.0 -154.0 -334.0 -82.0 -192.0L-191.0 -137.0C-247.0 -276.0 -343.0 -421.0 -375.0 -458.0C-405.0 -495.0 -424.0 -517.0 -450.0 -524.0C-436.0 -556.0 -418.0 -615.0 -412.0 -639.0ZM-221.0 -421.0C-193.0 -486.0 -165.0 -573.0 -158.0 -626.0L-64.0 -588.0C-74.0 -534.0 -103.0 -451.0 -133.0 -388.0ZM182.0 -820.0C199.0 -856.0 216.0 -903.0 222.0 -931.0L321.0 -904.0C313.0 -876.0 293.0 -831.0 275.0 -797.0ZM-419.0 -403.0C-399.0 -393.0 -367.0 -385.0 -224.0 -372.0C-223.0 -346.0 -217.0 -300.0 -211.0 -268.0L-373.0 -278.0L-422.0 -313.0ZM-412.0 -639.0C-389.0 -626.0 -351.0 -615.0 -136.0 -579.0C-137.0 -554.0 -134.0 -508.0 -130.0 -477.0L-369.0 -511.0L-418.0 -546.0ZM-427.0 -663.0C-430.0 -741.0 -439.0 -826.0 -460.0 -882.0C-434.0 -889.0 -386.0 -905.0 -364.0 -918.0C-344.0 -859.0 -332.0 -767.0 -327.0 -680.0Z"/></g>
<g fill="black" opacity=".8" transform="translate(800 200) scale(0.1 -0.1)"><path d="M0.0 0.0V-178.0H129.0V0.0ZM230.0 0.0V-179.0H360.0V0.0ZM-420.0 -403.0C-420.0 -382.0 -353.0 -342.0 -353.0 -342.0V-341.0C-294.0 -263.0 -231.0 -149.0 -190.0 -43.0L-300.0 3.0C-330.0 -100.0 -385.0 -209.0 -404.0 -237.0C-422.0 -266.0 -437.0 -284.0 -456.0 -290.0C-443.0 -322.0 -424.0 -379.0 -420.0 -403.0ZM-412.0 -639.0C-412.0 -618.0 -345.0 -580.0 -345.0 -580.0V-577.0C-253.0 -476.0 -154.0 -334.0 -81.0 -191.0L-191.0 -137.0C-246.0 -276.0 -343.0 -421.0 -375.0 -458.0C-405.0 -496.0 -424.0 -516.0 -450.0 -523.0C-436.0 -555.0 -418.0 -615.0 -412.0 -639.0ZM-220.0 -421.0C-193.0 -485.0 -165.0 -573.0 -158.0 -626.0L-63.0 -588.0C-75.0 -534.0 -102.0 -450.0 -133.0 -388.0ZM182.0 -819.0C200.0 -856.0 216.0 -903.0 222.0 -932.0L321.0 -904.0C313.0 -876.0 294.0 -832.0 274.0 -797.0ZM-420.0 -403.0C-399.0 -393.0 -367.0 -385.0 -224.0 -372.0C-223.0 -346.0 -217.0 -300.0 -211.0 -268.0L-373.0 -278.0L-422.0 -313.0ZM-412.0 -639.0C-390.0 -626.0 -350.0 -615.0 -136.0 -579.0C-137.0 -554.0 -134.0 -509.0 -130.0 -478.0L-369.0 -511.0L-418.0 -546.0ZM-427.0 -663.0C-429.0 -741.0 -439.0 -826.0 -461.0 -882.0C-434.0 -888.0 -386.0 -905.0 -364.0 -917.0C-343.0 -859.0 -333.0 -767.0 -327.0 -681.0Z"/></g>
</svg>
