<?xml version="1.0" encoding="UTF-8"?>
<svg width="1700" height="300" xmlns="http://www.w3.org/2000/svg">
<rect width="100%" height="100%" fill="white"/>
<g fill="green" transform="translate(100 100) scale(0.1 -0.1)"><path d="M0.0 0.0V-29.0H232.0V-322.0H0.0V-352.0H258.0V0.0ZM105.0 -11.0V-327.0V-599.0H134.0V-327.0V-11.0ZM508.0 138.0V130.0C472.0 -20.0 376.0 -151.0 288.0 -209.0C295.0 -214.0 303.0 -223.0 307.0 -230.0C397.0 -167.0 495.0 -34.0 535.0 131.0L519.0 140.0L514.0 138.0ZM610.0 177.0 587.0 170.0C654.0 -53.0 739.0 -153.0 847.0 -227.0C850.0 -220.0 859.0 -210.0 867.0 -205.0C761.0 -133.0 675.0 -39.0 610.0 177.0ZM316.0 29.0C358.0 -2.0 406.0 -49.0 431.0 -79.0L449.0 -57.0C425.0 -27.0 376.0 18.0 334.0 48.0ZM762.0 145.0C734.0 110.0 683.0 58.0 648.0 26.0L665.0 10.0C701.0 40.0 748.0 84.0 781.0 127.0ZM828.0 37.0C797.0 3.0 739.0 -48.0 699.0 -77.0L717.0 -94.0C757.0 -65.0 810.0 -23.0 848.0 19.0Z"/></g>
<g fill="green" transform="translate(200 100) scale(0.1 -0.1)"><path d="M0.0 0.0V-117.0H177.0V-298.0H0.0V-415.0H275.0V0.0ZM72.0 -58.0V-339.0H61.0V-597.0H160.0V-339.0H150.0V-58.0ZM443.0 144.0V124.0C422.0 -14.0 354.0 -144.0 253.0 -202.0C279.0 -227.0 314.0 -277.0 329.0 -308.0C456.0 -225.0 534.0 -81.0 565.0 122.0L487.0 148.0L466.0 144.0ZM687.0 171.0 573.0 148.0C626.0 -104.0 695.0 -213.0 808.0 -298.0C825.0 -259.0 862.0 -213.0 894.0 -185.0C796.0 -123.0 734.0 -38.0 687.0 171.0ZM286.0 -75.0C320.0 -101.0 369.0 -138.0 392.0 -161.0L462.0 -65.0C437.0 -44.0 386.0 -10.0 353.0 12.0ZM737.0 145.0C708.0 114.0 656.0 70.0 621.0 48.0L684.0 -29.0C723.0 -11.0 771.0 20.0 823.0 50.0ZM800.0 21.0C772.0 -9.0 718.0 -54.0 684.0 -76.0L743.0 -149.0C783.0 -133.0 830.0 -105.0 888.0 -77.0Z"/></g>
<g fill="green" transform="translate(300 100) scale(0.1 -0.1)"><path d="M0.0 0.0V-29.0H232.0V-322.0H0.0V-352.0H258.0V0.0ZM105.0 -11.0V-327.0V-599.0H134.0V-327.0V-11.0ZM508.0 138.0V130.0C472.0 -20.0 376.0 -151.0 288.0 -209.0C295.0 -214.0 303.0 -223.0 307.0 -230.0C397.0 -167.0 495.0 -34.0 535.0 131.0L519.0 140.0L514.0 138.0ZM610.0 177.0 587.0 170.0C654.0 -53.0 739.0 -153.0 847.0 -227.0C850.0 -220.0 859.0 -210.0 867.0 -205.0C761.0 -133.0 675.0 -39.0 610.0 177.0ZM316.0 29.0C358.0 -2.0 406.0 -49.0 431.0 -79.0L449.0 -57.0C425.0 -27.0 376.0 18.0 334.0 48.0ZM762.0 145.0C734.0 110.0 683.0 58.0 648.0 26.0L665.0 10.0C701.0 40.0 748.0 84.0 781.0 127.0ZM828.0 37.0C797.0 3.0 739.0 -48.0 699.0 -77.0L717.0 -94.0C757.0 -65.0 810.0 -23.0 848.0 19.0Z"/></g>
<g fill="green" transform="translate(400 100) scale(0.1 -0.1)"><path d="M0.0 0.0V-117.0H177.0V-298.0H0.0V-415.0H275.0V0.0ZM72.0 -58.0V-339.0H61.0V-597.0H160.0V-339.0H150.0V-58.0ZM443.0 144.0V124.0C422.0 -14.0 354.0 -144.0 253.0 -202.0C279.0 -227.0 314.0 -277.0 329.0 -308.0C456.0 -225.0 534.0 -81.0 565.0 122.0L487.0 148.0L466.0 144.0ZM687.0 171.0 573.0 148.0C626.0 -104.0 695.0 -213.0 808.0 -298.0C825.0 -259.0 862.0 -213.0 894.0 -185.0C796.0 -123.0 734.0 -38.0 687.0 171.0ZM286.0 -75.0C320.0 -101.0 369.0 -138.0 392.0 -161.0L462.0 -65.0C437.0 -44.0 386.0 -10.0 353.0 12.0ZM737.0 145.0C708.0 114.0 656.0 70.0 621.0 48.0L684.0 -29.0C723.0 -11.0 771.0 20.0 823.0 50.0ZM800.0 21.0C772.0 -9.0 718.0 -54.0 684.0 -76.0L743.0 -149.0C783.0 -133.0 830.0 -105.0 888.0 -77.0Z"/></g>
<g fill="red" transform="translate(100 200) scale(0.1 -0.1)"><path d="M0.0 0.0V-29.0H232.0V-322.0H0.0V-352.0H258.0V0.0ZM105.0 -11.0V-327.0V-599.0H134.0V-327.0V-11.0ZM508.0 138.0V130.0C472.0 -20.0 376.0 -151.0 288.0 -209.0C295.0 -214.0 303.0 -223.0 307.0 -230.0C397.0 -167.0 495.0 -34.0 535.0 131.0L519.0 140.0L514.0 138.0ZM610.0 177.0 587.0 170.0C654.0 -53.0 739.0 -153.0 847.0 -227.0C850.0 -220.0 859.0 -210.0 867.0 -205.0C761.0 -133.0 675.0 -39.0 610.0 177.0ZM316.0 29.0C358.0 -2.0 406.0 -49.0 431.0 -79.0L449.0 -57.0C425.0 -27.0 376.0 18.0 334.0 48.0ZM762.0 145.0C734.0 110.0 683.0 58.0 648.0 26.0L665.0 10.0C701.0 40.0 748.0 84.0 781.0 127.0ZM828.0 37.0C797.0 3.0 739.0 -48.0 699.0 -77.0L717.0 -94.0C757.0 -65.0 810.0 -23.0 848.0 19.0Z"/></g>
<g fill="black" opacity=".8" transform="translate(100 200) scale(0.1 -0.1)"><path d="M0.0 0.0V-29.0H232.0V-322.0H0.0V-352.0H258.0V0.0ZM105.0 -11.0V-327.0V-599.0H134.0V-327.0V-11.0ZM508.0 138.0V130.0C472.0 -20.0 376.0 -151.0 288.0 -209.0C295.0 -214.0 303.0 -223.0 307.0 -230.0C397.0 -167.0 495.0 -34.0 535.0 131.0L519.0 140.0L514.0 138.0ZM610.0 177.0 587.0 170.0C654.0 -53.0 739.0 -153.0 847.0 -227.0C850.0 -220.0 859.0 -210.0 867.0 -205.0C761.0 -133.0 675.0 -39.0 610.0 177.0ZM316.0 29.0C358.0 -2.0 406.0 -49.0 431.0 -79.0L449.0 -57.0C425.0 -27.0 376.0 18.0 334.0 48.0ZM762.0 145.0C734.0 110.0 683.0 58.0 648.0 26.0L665.0 10.0C701.0 40.0 748.0 84.0 781.0 127.0ZM828.0 37.0C797.0 3.0 739.0 -48.0 699.0 -77.0L717.0 -94.0C757.0 -65.0 810.0 -23.0 848.0 19.0Z"/></g>
<g fill="red" transform="translate(200 200) scale(0.1 -0.1)"><path d="M0.0 0.0V-117.0H177.0V-298.0H0.0V-415.0H275.0V0.0ZM72.0 -58.0V-339.0H61.0V-597.0H160.0V-339.0H150.0V-58.0ZM443.0 144.0V124.0C422.0 -14.0 354.0 -144.0 253.0 -202.0C279.0 -227.0 314.0 -277.0 329.0 -308.0C456.0 -225.0 534.0 -81.0 565.0 122.0L487.0 148.0L466.0 144.0ZM687.0 171.0 573.0 148.0C626.0 -104.0 695.0 -213.0 808.0 -298.0C825.0 -259.0 862.0 -213.0 894.0 -185.0C796.0 -123.0 734.0 -38.0 687.0 171.0ZM286.0 -75.0C320.0 -101.0 369.0 -138.0 392.0 -161.0L462.0 -65.0C437.0 -44.0 386.0 -10.0 353.0 12.0ZM737.0 145.0C708.0 114.0 656.0 70.0 621.0 48.0L684.0 -29.0C723.0 -11.0 771.0 20.0 823.0 50.0ZM800.0 21.0C772.0 -9.0 718.0 -54.0 684.0 -76.0L743.0 -149.0C783.0 -133.0 830.0 -105.0 888.0 -77.0Z"/></g>
<g fill="black" opacity=".8" transform="translate(200 200) scale(0.1 -0.1)"><path d="M0.0 0.0V-117.0H177.0V-298.0H0.0V-415.0H275.0V0.0ZM72.0 -58.0V-339.0H61.0V-597.0H160.0V-339.0H150.0V-58.0ZM443.0 144.0V124.0C422.0 -14.0 354.0 -144.0 253.0 -202.0C279.0 -227.0 314.0 -277.0 329.0 -308.0C456.0 -225.0 534.0 -81.0 565.0 122.0L487.0 148.0L466.0 144.0ZM687.0 171.0 573.0 148.0C626.0 -104.0 695.0 -213.0 808.0 -298.0C825.0 -259.0 862.0 -213.0 894.0 -185.0C796.0 -123.0 734.0 -38.0 687.0 171.0ZM286.0 -75.0C320.0 -101.0 369.0 -138.0 392.0 -161.0L462.0 -65.0C437.0 -44.0 386.0 -10.0 353.0 12.0ZM737.0 145.0C708.0 114.0 656.0 70.0 621.0 48.0L684.0 -29.0C723.0 -11.0 771.0 20.0 823.0 50.0ZM800.0 21.0C772.0 -9.0 718.0 -54.0 684.0 -76.0L743.0 -149.0C783.0 -133.0 830.0 -105.0 888.0 -77.0Z"/></g>
</svg>
