<?xml version="1.0" encoding="UTF-8"?>
<svg width="1700" height="300" xmlns="http://www.w3.org/2000/svg">
<rect width="100%" height="100%" fill="white"/>
<g fill="green" transform="translate(100 100) scale(0.1 -0.1)"><path d="M0.0 0.0V-151.0H613.0V0.0ZM30.0 -29.0H583.0V-122.0H30.0ZM70.0 526.0V468.0C70.0 414.0 54.0 355.0 -104.0 319.0C-97.0 314.0 -88.0 304.0 -84.0 296.0C80.0 337.0 99.0 402.0 99.0 468.0V526.0ZM521.0 527.0V354.0C521.0 314.0 533.0 307.0 581.0 307.0C590.0 307.0 673.0 307.0 682.0 307.0C719.0 307.0 729.0 322.0 732.0 387.0C723.0 389.0 712.0 392.0 704.0 398.0C702.0 341.0 698.0 335.0 678.0 335.0C661.0 335.0 593.0 335.0 581.0 335.0C554.0 335.0 550.0 338.0 550.0 354.0V527.0Z"/></g>
<g fill="green" transform="translate(200 100) scale(0.1 -0.1)"><path d="M0.0 0.0V-174.0H708.0V0.0ZM140.0 -73.0H558.0V-102.0H140.0ZM36.0 532.0V459.0C36.0 421.0 19.0 386.0 -95.0 366.0C-71.0 349.0 -35.0 309.0 -22.0 286.0C130.0 319.0 154.0 386.0 154.0 456.0V532.0ZM543.0 533.0V412.0C543.0 336.0 561.0 312.0 653.0 312.0C671.0 312.0 689.0 312.0 708.0 312.0C768.0 312.0 797.0 329.0 809.0 380.0C777.0 385.0 730.0 398.0 708.0 411.0C705.0 395.0 702.0 391.0 692.0 391.0C689.0 391.0 680.0 391.0 676.0 391.0C667.0 391.0 666.0 393.0 666.0 413.0V533.0Z"/></g>
<g fill="green" transform="translate(300 100) scale(0.1 -0.1)"><path d="M0.0 0.0V-151.0H613.0V0.0ZM30.0 -29.0H583.0V-122.0H30.0ZM70.0 526.0V468.0C70.0 414.0 54.0 355.0 -104.0 319.0C-97.0 314.0 -88.0 304.0 -84.0 296.0C80.0 337.0 99.0 402.0 99.0 468.0V526.0ZM521.0 527.0V354.0C521.0 314.0 533.0 307.0 581.0 307.0C590.0 307.0 673.0 307.0 682.0 307.0C719.0 307.0 729.0 322.0 732.0 387.0C723.0 389.0 712.0 392.0 704.0 398.0C702.0 341.0 698.0 335.0 678.0 335.0C661.0 335.0 593.0 335.0 581.0 335.0C554.0 335.0 550.0 338.0 550.0 354.0V527.0Z"/></g>
<g fill="green" transform="translate(400 100) scale(0.1 -0.1)"><path d="M0.0 0.0V-174.0H708.0V0.0ZM140.0 -73.0H558.0V-102.0H140.0ZM36.0 532.0V459.0C36.0 421.0 19.0 386.0 -95.0 366.0C-71.0 349.0 -35.0 309.0 -22.0 286.0C130.0 319.0 154.0 386.0 154.0 456.0V532.0ZM543.0 533.0V412.0C543.0 336.0 561.0 312.0 653.0 312.0C671.0 312.0 689.0 312.0 708.0 312.0C768.0 312.0 797.0 329.0 809.0 380.0C777.0 385.0 730.0 398.0 708.0 411.0C705.0 395.0 702.0 391.0 692.0 391.0C689.0 391.0 680.0 391.0 676.0 391.0C667.0 391.0 666.0 393.0 666.0 413.0V533.0Z"/></g>
<g fill="red" transform="translate(100 200) scale(0.1 -0.1)"><path d="M0.0 0.0V-151.0H613.0V0.0ZM30.0 -29.0H583.0V-122.0H30.0ZM70.0 526.0V468.0C70.0 414.0 54.0 355.0 -104.0 319.0C-97.0 314.0 -88.0 304.0 -84.0 296.0C80.0 337.0 99.0 402.0 99.0 468.0V526.0ZM521.0 527.0V354.0C521.0 314.0 533.0 307.0 581.0 307.0C590.0 307.0 673.0 307.0 682.0 307.0C719.0 307.0 729.0 322.0 732.0 387.0C723.0 389.0 712.0 392.0 704.0 398.0C702.0 341.0 698.0 335.0 678.0 335.0C661.0 335.0 593.0 335.0 581.0 335.0C554.0 335.0 550.0 338.0 550.0 354.0V527.0Z"/></g>
<g fill="black" opacity=".8" transform="translate(100 200) scale(0.1 -0.1)"><path d="M0.0 0.0V-151.0H613.0V0.0ZM30.0 -29.0H583.0V-122.0H30.0ZM70.0 526.0V468.0C70.0 414.0 54.0 355.0 -104.0 319.0C-97.0 314.0 -88.0 304.0 -84.0 296.0C80.0 337.0 99.0 402.0 99.0 468.0V526.0ZM521.0 527.0V354.0C521.0 314.0 533.0 307.0 581.0 307.0C590.0 307.0 673.0 307.0 682.0 307.0C719.0 307.0 729.0 322.0 732.0 387.0C723.0 389.0 712.0 392.0 704.0 398.0C702.0 341.0 698.0 335.0 678.0 335.0C661.0 335.0 593.0 335.0 581.0 335.0C554.0 335.0 550.0 338.0 550.0 354.0V527.0Z"/></g>
<g fill="red" transform="translate(200 200) scale(0.1 -0.1)"><path d="M0.0 0.0V-174.0H708.0V0.0ZM140.0 -73.0H558.0V-102.0H140.0ZM36.0 532.0V459.0C36.0 421.0 19.0 386.0 -95.0 366.0C-71.0 349.0 -35.0 309.0 -22.0 286.0C130.0 319.0 154.0 386.0 154.0 456.0V532.0ZM543.0 533.0V412.0C543.0 336.0 561.0 312.0 653.0 312.0C671.0 312.0 689.0 312.0 708.0 312.0C768.0 312.0 797.0 329.0 809.0 380.0C777.0 385.0 730.0 398.0 708.0 411.0C705.0 395.0 702.0 391.0 692.0 391.0C689.0 391.0 680.0 391.0 676.0 391.0C667.0 391.0 666.0 393.0 666.0 413.0V533.0Z"/></g>
<g fill="black" opacity=".8" transform="translate(200 200) scale(0.1 -0.1)"><path d="M0.0 0.0V-174.0H708.0V0.0ZM140.0 -73.0H558.0V-102.0H140.0ZM36.0 532.0V459.0C36.0 421.0 19.0 386.0 -95.0 366.0C-71.0 349.0 -35.0 309.0 -22.0 286.0C130.0 319.0 154.0 386.0 154.0 456.0V532.0ZM543.0 533.0V412.0C543.0 336.0 561.0 312.0 653.0 312.0C671.0 312.0 689.0 312.0 708.0 312.0C768.0 312.0 797.0 329.0 809.0 380.0C777.0 385.0 730.0 398.0 708.0 411.0C705.0 395.0 702.0 391.0 692.0 391.0C689.0 391.0 680.0 391.0 676.0 391.0C667.0 391.0 666.0 393.0 666.0 413.0V533.0Z"/></g>
</svg>
