<?xml version="1.0" encoding="UTF-8"?>
<svg width="1700" height="300" xmlns="http://www.w3.org/2000/svg">
<rect width="100%" height="100%" fill="white"/>
<g fill="green" transform="translate(100 100) scale(0.1 -0.1)"><path d="M0.0 0.0V-602.0L18.0 -603.0V0.0ZM380.0 -44.0V-637.0L383.0 -629.0V-44.0ZM279.0 -705.0C279.0 -697.0 314.0 -685.0 314.0 -685.0V-337.0H295.0V-656.0C295.0 -678.0 279.0 -683.0 269.0 -685.0C273.0 -691.0 278.0 -700.0 279.0 -705.0ZM279.0 -705.0C290.0 -696.0 309.0 -690.0 524.0 -630.0C522.0 -626.0 520.0 -619.0 521.0 -613.0L293.0 -677.0L279.0 -688.0Z"/></g>
<g fill="green" transform="translate(200 100) scale(0.1 -0.1)"><path d="M0.0 0.0V-677.0L78.0 -681.0V0.0ZM362.0 -96.0V-721.0L455.0 -696.0V-96.0ZM292.0 -796.0C292.0 -772.0 364.0 -746.0 364.0 -746.0V-392.0H290.0V-679.0C290.0 -703.0 278.0 -712.0 265.0 -716.0C277.0 -737.0 288.0 -774.0 292.0 -796.0ZM292.0 -796.0C316.0 -782.0 351.0 -771.0 536.0 -724.0C531.0 -702.0 527.0 -661.0 526.0 -632.0L326.0 -677.0L283.0 -709.0Z"/></g>
<g fill="green" transform="translate(300 100) scale(0.1 -0.1)"><path d="M0.0 0.0V-267.0L2.0 -271.0V0.0ZM308.0 102.0V-376.0L230.0 -369.0V102.0ZM308.0 -333.0C308.0 -332.0 311.0 -331.0 311.0 -331.0V-158.0H308.0V-327.0C308.0 -330.0 308.0 -331.0 306.0 -331.0C307.0 -332.0 308.0 -333.0 308.0 -333.0ZM308.0 -333.0C309.0 -329.0 312.0 -327.0 343.0 -297.0C342.0 -297.0 340.0 -297.0 341.0 -295.0L308.0 -327.0V-330.0Z"/></g>
<g fill="green" transform="translate(400 100) scale(0.1 -0.1)"><path d="M0.0 0.0V-333.0L11.0 -345.0V0.0ZM271.0 43.0V-431.0L277.0 -410.0V43.0ZM305.0 -397.0C305.0 -392.0 318.0 -389.0 318.0 -389.0V-212.0H304.0V-368.0C304.0 -371.0 302.0 -373.0 298.0 -374.0C302.0 -381.0 304.0 -391.0 305.0 -397.0ZM305.0 -397.0C311.0 -392.0 319.0 -386.0 342.0 -358.0C339.0 -351.0 336.0 -338.0 333.0 -329.0L308.0 -356.0L299.0 -367.0Z"/></g>
<g fill="green" transform="translate(500 100) scale(0.1 -0.1)"><path d="M0.0 0.0V-720.0L25.0 -713.0V0.0ZM8.0 -428.0V-450.0H211.0V-428.0ZM-167.0 -774.0C-167.0 -763.0 -119.0 -746.0 -119.0 -746.0V-358.0H-145.0V-708.0C-145.0 -737.0 -167.0 -744.0 -179.0 -747.0C-175.0 -754.0 -169.0 -767.0 -167.0 -774.0ZM-167.0 -774.0C-149.0 -763.0 -123.0 -756.0 214.0 -683.0C212.0 -678.0 211.0 -667.0 212.0 -660.0L-146.0 -738.0L-167.0 -751.0Z"/></g>
<g fill="green" transform="translate(600 100) scale(0.1 -0.1)"><path d="M0.0 0.0V-696.0L123.0 -678.0V0.0ZM47.0 -395.0V-517.0L230.0 -518.0V-395.0ZM-166.0 -809.0C-166.0 -775.0 -55.0 -731.0 -55.0 -731.0V-357.0H-170.0V-655.0C-170.0 -688.0 -186.0 -702.0 -202.0 -709.0C-187.0 -733.0 -170.0 -781.0 -166.0 -809.0ZM-166.0 -809.0C-127.0 -794.0 -74.0 -787.0 237.0 -759.0C235.0 -729.0 235.0 -675.0 239.0 -637.0L-101.0 -661.0L-170.0 -704.0Z"/></g>
<g fill="green" transform="translate(700 100) scale(0.1 -0.1)"><path d="M0.0 0.0V-586.0L33.0 -584.0V0.0ZM419.0 -17.0V-661.0L507.0 -653.0V-17.0ZM232.0 -699.0C232.0 -684.0 297.0 -664.0 297.0 -664.0V-348.0H263.0V-611.0C263.0 -651.0 233.0 -660.0 215.0 -663.0C221.0 -674.0 230.0 -688.0 232.0 -699.0ZM232.0 -699.0C250.0 -689.0 285.0 -682.0 643.0 -628.0C642.0 -621.0 641.0 -606.0 643.0 -596.0L260.0 -656.0L232.0 -671.0Z"/></g>
<g fill="green" transform="translate(800 100) scale(0.1 -0.1)"><path d="M0.0 0.0V-663.0L125.0 -666.0V0.0ZM424.0 -49.0V-716.0L594.0 -689.0V-49.0ZM249.0 -791.0C249.0 -755.0 361.0 -712.0 361.0 -712.0V-374.0H248.0V-611.0C248.0 -653.0 228.0 -666.0 207.0 -673.0C225.0 -703.0 243.0 -759.0 249.0 -791.0ZM249.0 -791.0C288.0 -773.0 345.0 -761.0 693.0 -710.0C689.0 -679.0 686.0 -620.0 687.0 -579.0L311.0 -626.0L241.0 -672.0Z"/></g>
<g fill="green" transform="translate(900 100) scale(0.1 -0.1)"><path d="M0.0 0.0V-603.0L24.0 -604.0V0.0ZM384.0 -44.0V-649.0L368.0 -641.0V-44.0ZM255.0 -707.0C255.0 -696.0 304.0 -679.0 304.0 -679.0V-346.0H279.0V-639.0C279.0 -669.0 255.0 -676.0 242.0 -678.0C247.0 -688.0 253.0 -699.0 255.0 -707.0ZM255.0 -707.0C268.0 -698.0 292.0 -691.0 527.0 -640.0C525.0 -634.0 524.0 -624.0 525.0 -618.0L276.0 -670.0L255.0 -685.0Z"/></g>
<g fill="green" transform="translate(1000 100) scale(0.1 -0.1)"><path d="M0.0 0.0V-692.0L91.0 -689.0V0.0ZM380.0 -97.0V-730.0L453.0 -705.0V-97.0ZM311.0 -797.0C311.0 -771.0 389.0 -743.0 389.0 -743.0V-395.0H312.0V-666.0C312.0 -698.0 297.0 -707.0 282.0 -711.0C295.0 -734.0 307.0 -774.0 311.0 -797.0ZM311.0 -797.0C330.0 -784.0 360.0 -771.0 525.0 -718.0C519.0 -697.0 513.0 -658.0 510.0 -629.0L338.0 -680.0L302.0 -710.0Z"/></g>
<g fill="red" transform="translate(100 200) scale(0.1 -0.1)"><path d="M0.0 0.0V-664.0L30.0 -656.0V0.0ZM16.0 -394.0V-424.0H250.0V-394.0ZM-186.0 -717.0C-186.0 -704.0 -128.0 -685.0 -128.0 -685.0V-337.0H-158.0V-639.0C-158.0 -674.0 -185.0 -682.0 -200.0 -685.0C-195.0 -694.0 -188.0 -708.0 -186.0 -717.0ZM-186.0 -717.0C-166.0 -707.0 -134.0 -700.0 246.0 -634.0C245.0 -628.0 244.0 -614.0 245.0 -606.0L-160.0 -677.0L-186.0 -691.0Z"/></g>
<g fill="black" opacity=".8" transform="translate(100 200) scale(0.1 -0.1)"><path d="M0.0 0.0V-664.0L30.0 -656.0V0.0ZM17.0 -394.0V-424.0H249.0V-394.0ZM-186.0 -718.0C-186.0 -704.0 -128.0 -685.0 -128.0 -685.0V-338.0H-159.0V-639.0C-159.0 -674.0 -185.0 -682.0 -200.0 -685.0C-195.0 -694.0 -188.0 -708.0 -186.0 -718.0ZM-186.0 -718.0C-166.0 -707.0 -134.0 -700.0 246.0 -634.0C245.0 -628.0 244.0 -614.0 246.0 -606.0L-160.0 -677.0L-186.0 -691.0Z"/></g>
<g fill="red" transform="translate(200 200) scale(0.1 -0.1)"><path d="M0.0 0.0V-640.0L136.0 -623.0V0.0ZM64.0 -352.0V-473.0H272.0V-352.0ZM-185.0 -750.0C-185.0 -712.0 -63.0 -663.0 -63.0 -663.0V-323.0H-189.0V-578.0C-189.0 -616.0 -207.0 -631.0 -226.0 -639.0C-209.0 -665.0 -190.0 -719.0 -185.0 -750.0ZM-185.0 -750.0C-142.0 -733.0 -81.0 -726.0 286.0 -699.0C284.0 -667.0 285.0 -608.0 290.0 -568.0L-111.0 -590.0L-189.0 -636.0Z"/></g>
<g fill="black" opacity=".8" transform="translate(200 200) scale(0.1 -0.1)"><path d="M0.0 0.0V-640.0L136.0 -622.0V0.0ZM64.0 -352.0V-473.0H272.0V-352.0ZM-185.0 -749.0C-185.0 -712.0 -63.0 -663.0 -63.0 -663.0V-322.0H-188.0V-577.0C-188.0 -616.0 -207.0 -631.0 -226.0 -639.0C-209.0 -665.0 -190.0 -719.0 -185.0 -749.0ZM-185.0 -749.0C-141.0 -733.0 -82.0 -727.0 286.0 -700.0C284.0 -667.0 285.0 -609.0 290.0 -568.0L-111.0 -590.0L-188.0 -637.0Z"/></g>
<g fill="red" transform="translate(300 200) scale(0.1 -0.1)"><path d="M0.0 0.0V-595.0H29.0V0.0ZM400.0 -32.0V-655.0L430.0 -647.0V-32.0ZM243.0 -703.0C243.0 -690.0 300.0 -672.0 300.0 -672.0V-347.0H271.0V-626.0C271.0 -660.0 244.0 -668.0 229.0 -671.0C234.0 -681.0 241.0 -694.0 243.0 -703.0ZM243.0 -703.0C259.0 -694.0 288.0 -687.0 579.0 -635.0C578.0 -629.0 577.0 -616.0 578.0 -608.0L268.0 -663.0L243.0 -678.0Z"/></g>
<g fill="black" opacity=".8" transform="translate(300 200) scale(0.1 -0.1)"><path d="M0.0 0.0V-595.0H28.0V0.0ZM400.0 -32.0V-655.0L430.0 -647.0V-32.0ZM243.0 -704.0C243.0 -691.0 300.0 -672.0 300.0 -672.0V-347.0H271.0V-625.0C271.0 -660.0 244.0 -668.0 228.0 -671.0C234.0 -682.0 241.0 -694.0 243.0 -704.0ZM243.0 -704.0C259.0 -694.0 288.0 -687.0 579.0 -635.0C578.0 -629.0 577.0 -616.0 578.0 -608.0L268.0 -663.0L243.0 -679.0Z"/></g>
<g fill="red" transform="translate(400 200) scale(0.1 -0.1)"><path d="M0.0 0.0V-680.0H107.0V0.0ZM401.0 -75.0V-724.0L516.0 -698.0V-75.0ZM284.0 -795.0C284.0 -764.0 378.0 -729.0 378.0 -729.0V-386.0H284.0V-641.0C284.0 -677.0 267.0 -688.0 249.0 -694.0C264.0 -720.0 279.0 -768.0 284.0 -795.0ZM284.0 -795.0C311.0 -779.0 354.0 -766.0 600.0 -714.0C595.0 -688.0 590.0 -640.0 589.0 -607.0L327.0 -656.0L275.0 -693.0Z"/></g>
<g fill="black" opacity=".8" transform="translate(400 200) scale(0.1 -0.1)"><path d="M0.0 0.0V-680.0L107.0 -679.0V0.0ZM401.0 -75.0V-724.0L516.0 -698.0V-75.0ZM284.0 -794.0C284.0 -764.0 378.0 -729.0 378.0 -729.0V-386.0H284.0V-641.0C284.0 -677.0 267.0 -688.0 249.0 -694.0C265.0 -720.0 279.0 -767.0 284.0 -794.0ZM284.0 -794.0C312.0 -779.0 354.0 -766.0 600.0 -714.0C595.0 -689.0 590.0 -641.0 589.0 -606.0L327.0 -656.0L276.0 -693.0Z"/></g>
<g fill="red" transform="translate(500 200) scale(0.1 -0.1)"><path d="M0.0 0.0V-672.0L29.0 -666.0V0.0ZM10.0 -400.0V-430.0H179.0V-400.0ZM-178.0 -723.0C-178.0 -710.0 -120.0 -691.0 -120.0 -691.0V-342.0H-149.0V-645.0C-149.0 -679.0 -177.0 -687.0 -191.0 -690.0C-186.0 -700.0 -180.0 -714.0 -178.0 -723.0ZM-178.0 -723.0C-159.0 -713.0 -130.0 -706.0 199.0 -646.0C198.0 -640.0 197.0 -627.0 198.0 -620.0L-152.0 -682.0L-178.0 -697.0Z"/></g>
<g fill="black" opacity=".8" transform="translate(500 200) scale(0.1 -0.1)"><path d="M0.0 0.0V-673.0L29.0 -666.0V0.0ZM10.0 -400.0V-430.0H179.0V-400.0ZM-177.0 -724.0C-177.0 -711.0 -120.0 -690.0 -120.0 -690.0V-342.0H-150.0V-645.0C-150.0 -679.0 -177.0 -687.0 -191.0 -690.0C-187.0 -700.0 -180.0 -714.0 -177.0 -724.0ZM-177.0 -724.0C-159.0 -713.0 -130.0 -706.0 199.0 -646.0C197.0 -640.0 197.0 -627.0 198.0 -620.0L-151.0 -682.0L-177.0 -698.0Z"/></g>
<g fill="red" transform="translate(600 200) scale(0.1 -0.1)"><path d="M0.0 0.0V-664.0L125.0 -641.0V0.0ZM59.0 -370.0V-491.0H208.0V-370.0ZM-135.0 -756.0C-135.0 -722.0 -27.0 -680.0 -27.0 -680.0V-337.0H-137.0V-601.0C-137.0 -638.0 -154.0 -651.0 -171.0 -658.0C-156.0 -681.0 -140.0 -729.0 -135.0 -756.0ZM-135.0 -756.0C-105.0 -742.0 -60.0 -733.0 206.0 -702.0C203.0 -675.0 201.0 -627.0 203.0 -593.0L-82.0 -620.0L-140.0 -658.0Z"/></g>
<g fill="black" opacity=".8" transform="translate(600 200) scale(0.1 -0.1)"><path d="M0.0 0.0V-663.0L126.0 -640.0V0.0ZM59.0 -371.0V-491.0L208.0 -492.0V-371.0ZM-135.0 -755.0C-135.0 -722.0 -27.0 -679.0 -27.0 -679.0V-336.0H-136.0V-600.0C-136.0 -638.0 -154.0 -651.0 -170.0 -657.0C-156.0 -681.0 -139.0 -728.0 -135.0 -755.0ZM-135.0 -755.0C-104.0 -742.0 -60.0 -734.0 206.0 -702.0C203.0 -675.0 201.0 -627.0 203.0 -592.0L-82.0 -620.0L-139.0 -658.0Z"/></g>
<g fill="red" transform="translate(700 200) scale(0.1 -0.1)"><path d="M0.0 0.0V-357.0L29.0 -351.0V0.0ZM18.0 -215.0V-244.0H186.0V-215.0ZM-161.0 -390.0C-161.0 -377.0 -103.0 -359.0 -103.0 -359.0V-196.0H-132.0V-313.0C-132.0 -347.0 -160.0 -355.0 -174.0 -358.0C-170.0 -368.0 -163.0 -380.0 -161.0 -390.0ZM-161.0 -390.0C-144.0 -384.0 -115.0 -379.0 188.0 -352.0C188.0 -346.0 189.0 -332.0 190.0 -325.0L-134.0 -354.0L-161.0 -366.0Z"/></g>
<g fill="black" opacity=".8" transform="translate(700 200) scale(0.1 -0.1)"><path d="M0.0 0.0V-357.0L29.0 -351.0V0.0ZM18.0 -214.0V-244.0H186.0V-214.0ZM-161.0 -391.0C-161.0 -377.0 -103.0 -359.0 -103.0 -359.0V-196.0H-133.0V-312.0C-133.0 -347.0 -160.0 -356.0 -174.0 -358.0C-170.0 -368.0 -164.0 -380.0 -161.0 -391.0ZM-161.0 -391.0C-145.0 -384.0 -115.0 -379.0 188.0 -352.0C188.0 -346.0 189.0 -332.0 191.0 -325.0L-134.0 -354.0L-161.0 -366.0Z"/></g>
<g fill="red" transform="translate(800 200) scale(0.1 -0.1)"><path d="M0.0 0.0V-351.0L110.0 -336.0V0.0ZM68.0 -178.0V-252.0H213.0V-178.0ZM-129.0 -406.0C-129.0 -377.0 -35.0 -339.0 -35.0 -339.0V-166.0H-129.0V-267.0C-129.0 -303.0 -145.0 -314.0 -161.0 -320.0C-148.0 -340.0 -133.0 -383.0 -129.0 -406.0ZM-129.0 -406.0C-101.0 -395.0 -58.0 -389.0 221.0 -369.0C220.0 -347.0 220.0 -306.0 223.0 -278.0L-77.0 -294.0L-131.0 -326.0Z"/></g>
<g fill="black" opacity=".8" transform="translate(800 200) scale(0.1 -0.1)"><path d="M0.0 0.0V-350.0L111.0 -335.0V0.0ZM69.0 -178.0V-252.0H213.0V-178.0ZM-129.0 -405.0C-129.0 -377.0 -36.0 -339.0 -36.0 -339.0V-166.0H-128.0V-266.0C-128.0 -303.0 -145.0 -313.0 -161.0 -320.0C-148.0 -341.0 -132.0 -382.0 -129.0 -405.0ZM-129.0 -405.0C-100.0 -396.0 -58.0 -390.0 221.0 -370.0C221.0 -347.0 221.0 -307.0 222.0 -278.0L-77.0 -294.0L-130.0 -326.0Z"/></g>
</svg>
