<?xml version="1.0" encoding="UTF-8"?>
<svg width="1700" height="300" xmlns="http://www.w3.org/2000/svg">
<rect width="100%" height="100%" fill="white"/>
<g fill="green" transform="translate(100 100) scale(0.1 -0.1)"><path d="M0.0 0.0V-484.0H30.0V-29.0H351.0V0.0ZM592.0 -201.0V-791.0H622.0V-178.0L617.0 -176.0ZM15.0 -454.0V-483.0H329.0V-454.0ZM17.0 -301.0V-330.0H335.0V-301.0ZM17.0 -150.0V-179.0H335.0V-150.0ZM170.0 -12.0V-466.0H199.0V-12.0ZM321.0 -454.0V-461.0C313.0 -712.0 304.0 -800.0 287.0 -820.0C280.0 -829.0 274.0 -830.0 259.0 -830.0C246.0 -830.0 207.0 -829.0 166.0 -826.0C171.0 -834.0 174.0 -847.0 174.0 -854.0C209.0 -857.0 246.0 -858.0 265.0 -857.0C287.0 -857.0 301.0 -851.0 312.0 -839.0C333.0 -812.0 341.0 -731.0 350.0 -473.0C350.0 -467.0 350.0 -454.0 350.0 -454.0ZM60.0 -572.0C72.0 -631.0 80.0 -705.0 79.0 -755.0L107.0 -751.0C107.0 -702.0 99.0 -627.0 86.0 -568.0ZM652.0 -44.0C590.0 -227.0 488.0 -395.0 364.0 -503.0C372.0 -507.0 383.0 -518.0 388.0 -523.0C511.0 -409.0 615.0 -243.0 680.0 -51.0Z"/></g>
<g fill="green" transform="translate(200 100) scale(0.1 -0.1)"><path d="M0.0 0.0V-568.0H118.0V-111.0H400.0V0.0ZM578.0 -267.0V-820.0H712.0V-187.0L671.0 -174.0ZM69.0 -457.0V-568.0H331.0V-457.0ZM69.0 -305.0V-409.0H380.0V-305.0ZM69.0 -155.0V-259.0H380.0V-155.0ZM197.0 -70.0V-520.0H302.0V-70.0ZM284.0 -457.0V-475.0C282.0 -701.0 279.0 -784.0 265.0 -803.0C257.0 -812.0 248.0 -815.0 235.0 -815.0C217.0 -815.0 182.0 -814.0 143.0 -811.0C161.0 -839.0 174.0 -883.0 176.0 -915.0C220.0 -916.0 263.0 -916.0 290.0 -911.0C320.0 -907.0 342.0 -898.0 362.0 -872.0C385.0 -840.0 390.0 -746.0 393.0 -501.0C393.0 -487.0 394.0 -457.0 394.0 -457.0ZM70.0 -625.0C77.0 -685.0 79.0 -761.0 75.0 -812.0L142.0 -804.0C145.0 -754.0 142.0 -677.0 134.0 -618.0ZM625.0 -87.0C578.0 -248.0 492.0 -400.0 384.0 -491.0C411.0 -514.0 459.0 -564.0 478.0 -589.0C592.0 -480.0 691.0 -303.0 750.0 -118.0Z"/></g>
<g fill="green" transform="translate(300 100) scale(0.1 -0.1)"><path d="M0.0 0.0V-461.0H29.0V-28.0H334.0V0.0ZM564.0 -193.0V-762.0H592.0V-172.0L587.0 -170.0ZM14.0 -436.0V-463.0H313.0V-436.0ZM16.0 -290.0V-318.0H319.0V-290.0ZM16.0 -136.0V-164.0H319.0V-136.0ZM162.0 -11.0V-444.0H190.0V-11.0ZM306.0 -432.0V-439.0C298.0 -678.0 290.0 -761.0 273.0 -780.0C267.0 -789.0 261.0 -790.0 247.0 -790.0C234.0 -790.0 197.0 -789.0 158.0 -786.0C163.0 -794.0 166.0 -806.0 166.0 -813.0C199.0 -815.0 234.0 -816.0 253.0 -815.0C273.0 -815.0 287.0 -810.0 297.0 -798.0C317.0 -773.0 325.0 -696.0 333.0 -450.0C333.0 -445.0 333.0 -432.0 333.0 -432.0ZM44.0 -554.0C54.0 -610.0 60.0 -680.0 58.0 -728.0L85.0 -725.0C86.0 -678.0 80.0 -607.0 68.0 -550.0ZM621.0 -42.0C562.0 -218.0 465.0 -379.0 347.0 -483.0C354.0 -486.0 365.0 -497.0 370.0 -502.0C487.0 -392.0 586.0 -233.0 648.0 -49.0Z"/></g>
<g fill="green" transform="translate(400 100) scale(0.1 -0.1)"><path d="M0.0 0.0V-540.0H112.0V-106.0H381.0V0.0ZM550.0 -255.0V-790.0H677.0V-180.0L637.0 -167.0ZM65.0 -438.0V-544.0H314.0V-438.0ZM65.0 -294.0V-392.0H362.0V-294.0ZM65.0 -140.0V-239.0H362.0V-140.0ZM188.0 -67.0V-494.0H288.0V-67.0ZM270.0 -435.0V-452.0C268.0 -667.0 266.0 -746.0 252.0 -764.0C245.0 -773.0 236.0 -775.0 224.0 -775.0C206.0 -775.0 173.0 -774.0 135.0 -772.0C152.0 -798.0 165.0 -840.0 167.0 -870.0C209.0 -871.0 250.0 -871.0 276.0 -867.0C304.0 -863.0 325.0 -854.0 344.0 -830.0C366.0 -799.0 371.0 -710.0 374.0 -477.0C374.0 -463.0 375.0 -435.0 375.0 -435.0ZM53.0 -604.0C58.0 -661.0 58.0 -734.0 54.0 -782.0L117.0 -777.0C121.0 -729.0 120.0 -656.0 113.0 -599.0ZM595.0 -83.0C550.0 -238.0 468.0 -384.0 365.0 -472.0C391.0 -494.0 437.0 -541.0 455.0 -565.0C563.0 -460.0 657.0 -290.0 713.0 -113.0Z"/></g>
<g fill="green" transform="translate(500 100) scale(0.1 -0.1)"><path d="M0.0 0.0V-479.0H30.0V-30.0H340.0V0.0ZM590.0 -117.0V-411.0H622.0V-87.0V-86.0ZM17.0 -301.0V-332.0H324.0V-301.0ZM17.0 -153.0V-183.0H324.0V-153.0ZM18.0 -441.0V-471.0H325.0V-441.0ZM154.0 -12.0V-462.0H184.0V-12.0ZM311.0 -449.0V-457.0C302.0 -717.0 291.0 -809.0 275.0 -830.0C268.0 -838.0 262.0 -839.0 248.0 -839.0C236.0 -839.0 202.0 -839.0 164.0 -836.0C169.0 -844.0 172.0 -858.0 173.0 -866.0C204.0 -870.0 237.0 -870.0 253.0 -869.0C276.0 -869.0 289.0 -863.0 301.0 -849.0C322.0 -822.0 331.0 -738.0 342.0 -470.0C342.0 -463.0 342.0 -449.0 342.0 -449.0ZM638.0 -170.0C696.0 -227.0 765.0 -306.0 801.0 -352.0L823.0 -331.0C789.0 -287.0 718.0 -211.0 661.0 -155.0ZM634.0 -24.0C578.0 -161.0 473.0 -272.0 350.0 -342.0C359.0 -348.0 370.0 -359.0 375.0 -364.0C497.0 -289.0 606.0 -176.0 665.0 -31.0Z"/></g>
<g fill="green" transform="translate(600 100) scale(0.1 -0.1)"><path d="M0.0 0.0V-579.0H126.0V-117.0H399.0V0.0ZM591.0 -237.0V-423.0H733.0V-100.0L730.0 -99.0ZM80.0 -315.0V-425.0H388.0V-315.0ZM80.0 -163.0V-274.0H384.0V-163.0ZM80.0 -458.0V-571.0H355.0V-458.0ZM178.0 -74.0V-547.0H298.0V-74.0ZM288.0 -465.0V-485.0C284.0 -717.0 279.0 -797.0 267.0 -816.0C258.0 -826.0 251.0 -829.0 238.0 -829.0C226.0 -829.0 205.0 -829.0 181.0 -825.0C198.0 -855.0 209.0 -902.0 212.0 -936.0C249.0 -937.0 284.0 -936.0 307.0 -930.0C335.0 -926.0 355.0 -917.0 375.0 -891.0C399.0 -859.0 406.0 -760.0 411.0 -510.0C412.0 -497.0 412.0 -465.0 412.0 -465.0ZM659.0 -234.0C715.0 -289.0 796.0 -365.0 832.0 -413.0L916.0 -314.0C877.0 -271.0 793.0 -198.0 738.0 -148.0ZM641.0 -62.0C590.0 -159.0 492.0 -247.0 387.0 -298.0C416.0 -324.0 467.0 -382.0 488.0 -410.0C602.0 -342.0 715.0 -230.0 782.0 -104.0Z"/></g>
<g fill="red" transform="translate(100 200) scale(0.1 -0.1)"><path d="M0.0 0.0V-484.0H30.0V-29.0H351.0V0.0ZM592.0 -201.0V-791.0H622.0V-178.0L617.0 -176.0ZM15.0 -454.0V-483.0H329.0V-454.0ZM17.0 -301.0V-330.0H335.0V-301.0ZM17.0 -150.0V-179.0H335.0V-150.0ZM170.0 -12.0V-466.0H199.0V-12.0ZM321.0 -454.0V-461.0C313.0 -712.0 304.0 -800.0 287.0 -820.0C280.0 -829.0 274.0 -830.0 259.0 -830.0C246.0 -830.0 207.0 -829.0 166.0 -826.0C171.0 -834.0 174.0 -847.0 174.0 -854.0C209.0 -857.0 246.0 -858.0 265.0 -857.0C287.0 -857.0 301.0 -851.0 312.0 -839.0C333.0 -812.0 341.0 -731.0 350.0 -473.0C350.0 -467.0 350.0 -454.0 350.0 -454.0ZM60.0 -572.0C72.0 -631.0 80.0 -705.0 79.0 -755.0L107.0 -751.0C107.0 -702.0 99.0 -627.0 86.0 -568.0ZM652.0 -44.0C590.0 -227.0 488.0 -395.0 364.0 -503.0C372.0 -507.0 383.0 -518.0 388.0 -523.0C511.0 -409.0 615.0 -243.0 680.0 -51.0Z"/></g>
<g fill="black" opacity=".8" transform="translate(100 200) scale(0.1 -0.1)"><path d="M0.0 0.0V-484.0H30.0V-29.0H351.0V0.0ZM592.0 -201.0V-791.0H622.0V-178.0L617.0 -176.0ZM15.0 -454.0V-483.0H329.0V-454.0ZM17.0 -301.0V-330.0H335.0V-301.0ZM17.0 -150.0V-179.0H335.0V-150.0ZM170.0 -12.0V-466.0H199.0V-12.0ZM321.0 -454.0V-461.0C313.0 -712.0 304.0 -800.0 287.0 -820.0C280.0 -829.0 274.0 -830.0 259.0 -830.0C246.0 -830.0 207.0 -829.0 166.0 -826.0C171.0 -834.0 174.0 -847.0 174.0 -854.0C209.0 -857.0 246.0 -858.0 265.0 -857.0C287.0 -857.0 301.0 -851.0 312.0 -839.0C333.0 -812.0 341.0 -731.0 350.0 -473.0C350.0 -467.0 350.0 -454.0 350.0 -454.0ZM60.0 -572.0C72.0 -631.0 80.0 -705.0 79.0 -755.0L107.0 -751.0C107.0 -702.0 99.0 -627.0 86.0 -568.0ZM652.0 -44.0C590.0 -227.0 488.0 -395.0 364.0 -503.0C372.0 -507.0 383.0 -518.0 388.0 -523.0C511.0 -409.0 615.0 -243.0 680.0 -51.0Z"/></g>
<g fill="red" transform="translate(200 200) scale(0.1 -0.1)"><path d="M0.0 0.0V-568.0H118.0V-111.0H400.0V0.0ZM578.0 -267.0V-820.0H712.0V-187.0L671.0 -174.0ZM69.0 -457.0V-568.0H331.0V-457.0ZM69.0 -305.0V-409.0H380.0V-305.0ZM69.0 -155.0V-259.0H380.0V-155.0ZM197.0 -70.0V-520.0H302.0V-70.0ZM284.0 -457.0V-475.0C282.0 -701.0 279.0 -784.0 265.0 -803.0C257.0 -812.0 248.0 -815.0 235.0 -815.0C217.0 -815.0 182.0 -814.0 143.0 -811.0C161.0 -839.0 174.0 -883.0 176.0 -915.0C220.0 -916.0 263.0 -916.0 290.0 -911.0C320.0 -907.0 342.0 -898.0 362.0 -872.0C385.0 -840.0 390.0 -746.0 393.0 -501.0C393.0 -487.0 394.0 -457.0 394.0 -457.0ZM70.0 -625.0C77.0 -685.0 79.0 -761.0 75.0 -812.0L142.0 -804.0C145.0 -754.0 142.0 -677.0 134.0 -618.0ZM625.0 -87.0C578.0 -248.0 492.0 -400.0 384.0 -491.0C411.0 -514.0 459.0 -564.0 478.0 -589.0C592.0 -480.0 691.0 -303.0 750.0 -118.0Z"/></g>
<g fill="black" opacity=".8" transform="translate(200 200) scale(0.1 -0.1)"><path d="M0.0 0.0V-568.0H118.0V-111.0H400.0V0.0ZM578.0 -267.0V-820.0H712.0V-187.0L671.0 -174.0ZM69.0 -457.0V-568.0H331.0V-457.0ZM69.0 -305.0V-409.0H380.0V-305.0ZM69.0 -155.0V-259.0H380.0V-155.0ZM197.0 -70.0V-520.0H302.0V-70.0ZM284.0 -457.0V-475.0C282.0 -701.0 279.0 -784.0 265.0 -803.0C257.0 -812.0 248.0 -815.0 235.0 -815.0C217.0 -815.0 182.0 -814.0 143.0 -811.0C161.0 -839.0 174.0 -883.0 176.0 -915.0C220.0 -916.0 263.0 -916.0 290.0 -911.0C320.0 -907.0 342.0 -898.0 362.0 -872.0C385.0 -840.0 390.0 -746.0 393.0 -501.0C393.0 -487.0 394.0 -457.0 394.0 -457.0ZM70.0 -625.0C77.0 -685.0 79.0 -761.0 75.0 -812.0L142.0 -804.0C145.0 -754.0 142.0 -677.0 134.0 -618.0ZM625.0 -87.0C578.0 -248.0 492.0 -400.0 384.0 -491.0C411.0 -514.0 459.0 -564.0 478.0 -589.0C592.0 -480.0 691.0 -303.0 750.0 -118.0Z"/></g>
<g fill="red" transform="translate(300 200) scale(0.1 -0.1)"><path d="M0.0 0.0V-456.0H29.0V-29.0H323.0V0.0ZM562.0 -109.0V-382.0H592.0V-81.0V-80.0ZM16.0 -283.0V-312.0H308.0V-283.0ZM16.0 -142.0V-171.0H308.0V-142.0ZM17.0 -427.0V-456.0H309.0V-427.0ZM146.0 -11.0V-440.0H175.0V-11.0ZM296.0 -427.0V-435.0C287.0 -683.0 277.0 -770.0 261.0 -790.0C255.0 -798.0 249.0 -799.0 236.0 -799.0C224.0 -799.0 192.0 -799.0 156.0 -796.0C161.0 -804.0 164.0 -817.0 165.0 -825.0C194.0 -828.0 225.0 -828.0 241.0 -827.0C262.0 -827.0 275.0 -822.0 286.0 -808.0C306.0 -783.0 315.0 -703.0 325.0 -447.0C325.0 -441.0 325.0 -427.0 325.0 -427.0ZM622.0 -152.0C678.0 -206.0 745.0 -281.0 780.0 -325.0L801.0 -305.0C768.0 -263.0 699.0 -191.0 643.0 -137.0ZM603.0 -22.0C550.0 -152.0 450.0 -256.0 333.0 -322.0C341.0 -327.0 352.0 -338.0 357.0 -343.0C473.0 -272.0 577.0 -166.0 633.0 -29.0Z"/></g>
<g fill="black" opacity=".8" transform="translate(300 200) scale(0.1 -0.1)"><path d="M0.0 0.0V-456.0H29.0V-29.0H323.0V0.0ZM562.0 -109.0V-382.0H592.0V-81.0V-80.0ZM16.0 -283.0V-312.0H308.0V-283.0ZM16.0 -142.0V-171.0H308.0V-142.0ZM17.0 -427.0V-456.0H309.0V-427.0ZM146.0 -11.0V-440.0H175.0V-11.0ZM296.0 -427.0V-435.0C287.0 -683.0 277.0 -770.0 261.0 -790.0C255.0 -798.0 249.0 -799.0 236.0 -799.0C224.0 -799.0 192.0 -799.0 156.0 -796.0C161.0 -804.0 164.0 -817.0 165.0 -825.0C194.0 -828.0 225.0 -828.0 241.0 -827.0C262.0 -827.0 275.0 -822.0 286.0 -808.0C306.0 -783.0 315.0 -703.0 325.0 -447.0C325.0 -441.0 325.0 -427.0 325.0 -427.0ZM622.0 -152.0C678.0 -206.0 745.0 -281.0 780.0 -325.0L801.0 -305.0C768.0 -263.0 699.0 -191.0 643.0 -137.0ZM603.0 -22.0C550.0 -152.0 450.0 -256.0 333.0 -322.0C341.0 -327.0 352.0 -338.0 357.0 -343.0C473.0 -272.0 577.0 -166.0 633.0 -29.0Z"/></g>
<g fill="red" transform="translate(400 200) scale(0.1 -0.1)"><path d="M0.0 0.0V-551.0H120.0V-112.0H380.0V0.0ZM563.0 -225.0V-393.0H698.0V-93.0L696.0 -92.0ZM76.0 -296.0V-401.0H371.0V-296.0ZM76.0 -152.0V-257.0H366.0V-152.0ZM76.0 -443.0V-551.0H337.0V-443.0ZM169.0 -71.0V-521.0H284.0V-71.0ZM274.0 -443.0V-462.0C270.0 -683.0 266.0 -759.0 254.0 -777.0C246.0 -787.0 239.0 -789.0 227.0 -789.0C215.0 -789.0 196.0 -789.0 173.0 -786.0C189.0 -814.0 200.0 -859.0 203.0 -891.0C238.0 -892.0 271.0 -891.0 293.0 -886.0C319.0 -882.0 338.0 -873.0 357.0 -849.0C380.0 -818.0 387.0 -724.0 392.0 -486.0C393.0 -473.0 393.0 -443.0 393.0 -443.0ZM642.0 -213.0C696.0 -265.0 775.0 -338.0 811.0 -383.0L891.0 -287.0C853.0 -246.0 771.0 -177.0 717.0 -129.0ZM611.0 -58.0C562.0 -149.0 468.0 -231.0 368.0 -279.0C396.0 -304.0 445.0 -359.0 465.0 -386.0C573.0 -322.0 681.0 -217.0 745.0 -99.0Z"/></g>
<g fill="black" opacity=".8" transform="translate(400 200) scale(0.1 -0.1)"><path d="M0.0 0.0V-551.0H120.0V-112.0H380.0V0.0ZM563.0 -225.0V-393.0H698.0V-93.0L696.0 -92.0ZM76.0 -296.0V-401.0H371.0V-296.0ZM76.0 -152.0V-257.0H366.0V-152.0ZM76.0 -443.0V-551.0H337.0V-443.0ZM169.0 -71.0V-521.0H284.0V-71.0ZM274.0 -443.0V-462.0C270.0 -683.0 266.0 -759.0 254.0 -777.0C246.0 -787.0 239.0 -789.0 227.0 -789.0C215.0 -789.0 196.0 -789.0 173.0 -786.0C189.0 -814.0 200.0 -859.0 203.0 -891.0C238.0 -892.0 271.0 -891.0 293.0 -886.0C319.0 -882.0 338.0 -873.0 357.0 -849.0C380.0 -818.0 387.0 -724.0 392.0 -486.0C393.0 -473.0 393.0 -443.0 393.0 -443.0ZM642.0 -213.0C696.0 -265.0 775.0 -338.0 811.0 -383.0L891.0 -287.0C853.0 -246.0 771.0 -177.0 717.0 -129.0ZM611.0 -58.0C562.0 -149.0 468.0 -231.0 368.0 -279.0C396.0 -304.0 445.0 -359.0 465.0 -386.0C573.0 -322.0 681.0 -217.0 745.0 -99.0Z"/></g>
</svg>
