<?xml version="1.0" encoding="UTF-8"?>
<svg width="1700" height="300" xmlns="http://www.w3.org/2000/svg">
<rect width="100%" height="100%" fill="white"/>
<g fill="green" transform="translate(100 100) scale(0.1 -0.1)"><path d="M0.0 0.0V-30.0H228.0V-320.0H0.0V-349.0H257.0V0.0ZM102.0 -9.0V-326.0V-594.0H131.0V-326.0V-9.0ZM295.0 85.0V56.0H838.0V85.0ZM370.0 -172.0H749.0V-262.0H370.0ZM370.0 -54.0H749.0V-142.0H370.0ZM543.0 175.0V-389.0H572.0V175.0ZM284.0 -384.0 290.0 -415.0C418.0 -412.0 604.0 -407.0 782.0 -401.0L784.0 -375.0C597.0 -379.0 405.0 -383.0 284.0 -384.0ZM677.0 -321.0C734.0 -361.0 799.0 -420.0 830.0 -461.0L852.0 -442.0C821.0 -402.0 756.0 -344.0 699.0 -305.0Z"/></g>
<g fill="green" transform="translate(200 100) scale(0.1 -0.1)"><path d="M0.0 0.0V-116.0H175.0V-306.0H0.0V-422.0H280.0V0.0ZM59.0 -68.0V-349.0H48.0V-613.0H160.0V-349.0H149.0V-68.0ZM301.0 116.0V4.0H846.0V116.0ZM457.0 -208.0H686.0V-234.0H457.0ZM457.0 -104.0H686.0V-130.0H457.0ZM510.0 175.0V-424.0H637.0V175.0ZM298.0 -359.0 305.0 -473.0C433.0 -471.0 612.0 -468.0 782.0 -462.0L787.0 -358.0C609.0 -359.0 422.0 -359.0 298.0 -359.0ZM668.0 -339.0C708.0 -387.0 754.0 -454.0 772.0 -497.0L874.0 -442.0C853.0 -398.0 805.0 -335.0 764.0 -289.0Z"/></g>
<g fill="green" transform="translate(300 100) scale(0.1 -0.1)"><path d="M0.0 0.0V-30.0H228.0V-320.0H0.0V-349.0H257.0V0.0ZM102.0 -9.0V-326.0V-594.0H131.0V-326.0V-9.0ZM295.0 85.0V56.0H838.0V85.0ZM370.0 -172.0H749.0V-262.0H370.0ZM370.0 -54.0H749.0V-142.0H370.0ZM543.0 175.0V-389.0H572.0V175.0ZM284.0 -384.0 290.0 -415.0C418.0 -412.0 604.0 -407.0 782.0 -401.0L784.0 -375.0C597.0 -379.0 405.0 -383.0 284.0 -384.0ZM677.0 -321.0C734.0 -361.0 799.0 -420.0 830.0 -461.0L852.0 -442.0C821.0 -402.0 756.0 -344.0 699.0 -305.0Z"/></g>
<g fill="green" transform="translate(400 100) scale(0.1 -0.1)"><path d="M0.0 0.0V-116.0H175.0V-306.0H0.0V-422.0H280.0V0.0ZM59.0 -68.0V-349.0H48.0V-613.0H160.0V-349.0H149.0V-68.0ZM301.0 116.0V4.0H846.0V116.0ZM457.0 -208.0H686.0V-234.0H457.0ZM457.0 -104.0H686.0V-130.0H457.0ZM510.0 175.0V-424.0H637.0V175.0ZM298.0 -359.0 305.0 -473.0C433.0 -471.0 612.0 -468.0 782.0 -462.0L787.0 -358.0C609.0 -359.0 422.0 -359.0 298.0 -359.0ZM668.0 -339.0C708.0 -387.0 754.0 -454.0 772.0 -497.0L874.0 -442.0C853.0 -398.0 805.0 -335.0 764.0 -289.0Z"/></g>
<g fill="red" transform="translate(100 200) scale(0.1 -0.1)"><path d="M0.0 0.0V-30.0H228.0V-320.0H0.0V-349.0H257.0V0.0ZM102.0 -9.0V-326.0V-594.0H131.0V-326.0V-9.0ZM295.0 85.0V56.0H838.0V85.0ZM370.0 -172.0H749.0V-262.0H370.0ZM370.0 -54.0H749.0V-142.0H370.0ZM543.0 175.0V-389.0H572.0V175.0ZM284.0 -384.0 290.0 -415.0C418.0 -412.0 604.0 -407.0 782.0 -401.0L784.0 -375.0C597.0 -379.0 405.0 -383.0 284.0 -384.0ZM677.0 -321.0C734.0 -361.0 799.0 -420.0 830.0 -461.0L852.0 -442.0C821.0 -402.0 756.0 -344.0 699.0 -305.0Z"/></g>
<g fill="black" opacity=".8" transform="translate(100 200) scale(0.1 -0.1)"><path d="M0.0 0.0V-30.0H228.0V-320.0H0.0V-349.0H257.0V0.0ZM102.0 -9.0V-326.0V-594.0H131.0V-326.0V-9.0ZM295.0 85.0V56.0H838.0V85.0ZM370.0 -172.0H749.0V-262.0H370.0ZM370.0 -54.0H749.0V-142.0H370.0ZM543.0 175.0V-389.0H572.0V175.0ZM284.0 -384.0 290.0 -415.0C418.0 -412.0 604.0 -407.0 782.0 -401.0L784.0 -375.0C597.0 -379.0 405.0 -383.0 284.0 -384.0ZM677.0 -321.0C734.0 -361.0 799.0 -420.0 830.0 -461.0L852.0 -442.0C821.0 -402.0 756.0 -344.0 699.0 -305.0Z"/></g>
<g fill="red" transform="translate(200 200) scale(0.1 -0.1)"><path d="M0.0 0.0V-116.0H175.0V-306.0H0.0V-422.0H280.0V0.0ZM59.0 -68.0V-349.0H48.0V-613.0H160.0V-349.0H149.0V-68.0ZM301.0 116.0V4.0H846.0V116.0ZM457.0 -208.0H686.0V-234.0H457.0ZM457.0 -104.0H686.0V-130.0H457.0ZM510.0 175.0V-424.0H637.0V175.0ZM298.0 -359.0 305.0 -473.0C433.0 -471.0 612.0 -468.0 782.0 -462.0L787.0 -358.0C609.0 -359.0 422.0 -359.0 298.0 -359.0ZM668.0 -339.0C708.0 -387.0 754.0 -454.0 772.0 -497.0L874.0 -442.0C853.0 -398.0 805.0 -335.0 764.0 -289.0Z"/></g>
<g fill="black" opacity=".8" transform="translate(200 200) scale(0.1 -0.1)"><path d="M0.0 0.0V-116.0H175.0V-306.0H0.0V-422.0H280.0V0.0ZM59.0 -68.0V-349.0H48.0V-613.0H160.0V-349.0H149.0V-68.0ZM301.0 116.0V4.0H846.0V116.0ZM457.0 -208.0H686.0V-234.0H457.0ZM457.0 -104.0H686.0V-130.0H457.0ZM510.0 175.0V-424.0H637.0V175.0ZM298.0 -359.0 305.0 -473.0C433.0 -471.0 612.0 -468.0 782.0 -462.0L787.0 -358.0C609.0 -359.0 422.0 -359.0 298.0 -359.0ZM668.0 -339.0C708.0 -387.0 754.0 -454.0 772.0 -497.0L874.0 -442.0C853.0 -398.0 805.0 -335.0 764.0 -289.0Z"/></g>
</svg>
