<?xml version="1.0" encoding="UTF-8"?>
<svg width="1700" height="300" xmlns="http://www.w3.org/2000/svg">
<rect width="100%" height="100%" fill="white"/>
<g fill="green" transform="translate(100 100) scale(0.1 -0.1)"><path d="M0.0 0.0V-266.0V-556.0H30.0V-266.0V0.0ZM541.0 124.0V-14.0H571.0V124.0ZM546.0 -23.0V-243.0H576.0V-23.0Z"/></g>
<g fill="green" transform="translate(200 100) scale(0.1 -0.1)"><path d="M0.0 0.0V-248.0H-11.0V-514.0H107.0V-248.0H96.0V0.0ZM549.0 84.0V-51.0H668.0V84.0ZM559.0 -83.0V-240.0H658.0V-83.0Z"/></g>
<g fill="green" transform="translate(300 100) scale(0.1 -0.1)"><path d="M0.0 0.0V-232.0V-482.0H26.0V-232.0V0.0ZM488.0 107.0V-11.0H515.0V107.0ZM482.0 -35.0V-232.0H509.0V-35.0Z"/></g>
<g fill="green" transform="translate(400 100) scale(0.1 -0.1)"><path d="M0.0 0.0V-217.0H-9.0V-441.0H94.0V-217.0H84.0V0.0ZM495.0 68.0V-43.0H601.0V68.0ZM493.0 -93.0V-226.0H579.0V-93.0Z"/></g>
<g fill="green" transform="translate(500 100) scale(0.1 -0.1)"><path d="M0.0 0.0V-213.0V-601.0H33.0V-213.0V0.0ZM449.0 195.0V22.0H481.0V195.0ZM580.0 192.0V17.0H614.0V192.0Z"/></g>
<g fill="green" transform="translate(600 100) scale(0.1 -0.1)"><path d="M0.0 0.0V-215.0H-15.0V-612.0H121.0V-215.0H107.0V0.0ZM468.0 160.0V-26.0H576.0V160.0ZM614.0 158.0V-24.0H731.0V158.0Z"/></g>
<g fill="green" transform="translate(700 100) scale(0.1 -0.1)"><path d="M0.0 0.0V-348.0V-652.0H28.0V-348.0V0.0ZM468.0 34.0V-111.0H497.0V34.0ZM519.0 -49.0V-239.0H549.0V-49.0Z"/></g>
<g fill="green" transform="translate(800 100) scale(0.1 -0.1)"><path d="M0.0 0.0V-304.0H-13.0V-626.0H115.0V-304.0H103.0V0.0ZM482.0 7.0V-143.0H589.0V7.0ZM543.0 -87.0V-247.0H643.0V-87.0Z"/></g>
<g fill="green" transform="translate(900 100) scale(0.1 -0.1)"><path d="M0.0 0.0V-320.0V-574.0H29.0V-320.0V0.0ZM545.0 172.0V12.0H574.0V172.0ZM525.0 -12.0V-271.0H553.0V-12.0Z"/></g>
<g fill="green" transform="translate(1000 100) scale(0.1 -0.1)"><path d="M0.0 0.0V-283.0H-12.0V-515.0H95.0V-283.0H83.0V0.0ZM537.0 180.0V-20.0H668.0V180.0ZM510.0 -30.0V-264.0H606.0V-30.0Z"/></g>
<g fill="red" transform="translate(100 200) scale(0.1 -0.1)"><path d="M0.0 0.0V-304.0V-643.0H29.0V-304.0V0.0ZM383.0 176.0V-14.0H412.0V176.0ZM510.0 176.0V-9.0H540.0V176.0Z"/></g>
<g fill="black" opacity=".8" transform="translate(100 200) scale(0.1 -0.1)"><path d="M0.0 0.0V-304.0V-643.0H29.0V-304.0V0.0ZM383.0 176.0V-13.0H412.0V176.0ZM510.0 176.0V-9.0H540.0V176.0Z"/></g>
<g fill="red" transform="translate(200 200) scale(0.1 -0.1)"><path d="M0.0 0.0V-271.0H-16.0V-646.0H108.0V-271.0H92.0V0.0ZM389.0 198.0V-50.0H496.0V198.0ZM522.0 198.0V-50.0H630.0V198.0Z"/></g>
<g fill="black" opacity=".8" transform="translate(200 200) scale(0.1 -0.1)"><path d="M0.0 0.0V-271.0H-16.0V-646.0H107.0V-271.0H92.0V0.0ZM389.0 198.0V-50.0H495.0V198.0ZM521.0 198.0V-51.0H629.0V198.0Z"/></g>
<g fill="red" transform="translate(300 200) scale(0.1 -0.1)"><path d="M0.0 0.0V-303.0V-642.0H28.0V-303.0V0.0ZM392.0 65.0V-90.0H421.0V65.0ZM508.0 65.0V-90.0H538.0V65.0Z"/></g>
<g fill="black" opacity=".8" transform="translate(300 200) scale(0.1 -0.1)"><path d="M0.0 0.0V-303.0V-642.0H28.0V-303.0V0.0ZM392.0 65.0V-90.0H421.0V65.0ZM508.0 65.0V-90.0H539.0V65.0Z"/></g>
<g fill="red" transform="translate(400 200) scale(0.1 -0.1)"><path d="M0.0 0.0V-271.0H-14.0V-646.0H117.0V-271.0H103.0V0.0ZM412.0 42.0V-125.0H507.0V42.0ZM543.0 42.0V-120.0H647.0V42.0Z"/></g>
<g fill="black" opacity=".8" transform="translate(400 200) scale(0.1 -0.1)"><path d="M0.0 0.0V-271.0H-14.0V-646.0H117.0V-271.0H103.0V0.0ZM412.0 42.0V-125.0H507.0V42.0ZM543.0 42.0V-121.0H646.0V42.0Z"/></g>
<g fill="red" transform="translate(500 200) scale(0.1 -0.1)"><path d="M0.0 0.0V-182.0V-528.0H30.0V-182.0V0.0ZM396.0 181.0V26.0H425.0V181.0ZM515.0 181.0V26.0H545.0V181.0Z"/></g>
<g fill="black" opacity=".8" transform="translate(500 200) scale(0.1 -0.1)"><path d="M0.0 0.0V-182.0V-528.0H29.0V-182.0V0.0ZM396.0 181.0V27.0H425.0V181.0ZM515.0 181.0V26.0H546.0V181.0Z"/></g>
<g fill="red" transform="translate(600 200) scale(0.1 -0.1)"><path d="M0.0 0.0V-186.0H-13.0V-539.0H107.0V-186.0H94.0V0.0ZM413.0 151.0V-16.0H509.0V151.0ZM545.0 151.0V-11.0H649.0V151.0Z"/></g>
<g fill="black" opacity=".8" transform="translate(600 200) scale(0.1 -0.1)"><path d="M0.0 0.0V-186.0H-13.0V-539.0H107.0V-186.0H94.0V0.0ZM413.0 150.0V-16.0H509.0V150.0ZM545.0 151.0V-12.0H649.0V151.0Z"/></g>
<g fill="red" transform="translate(700 200) scale(0.1 -0.1)"><path d="M0.0 0.0V-316.0V-588.0H29.0V-316.0V0.0ZM527.0 132.0V-21.0H556.0V132.0ZM528.0 -22.0V-258.0H557.0V-22.0Z"/></g>
<g fill="black" opacity=".8" transform="translate(700 200) scale(0.1 -0.1)"><path d="M0.0 0.0V-315.0V-588.0H29.0V-315.0V0.0ZM527.0 132.0V-20.0H556.0V132.0ZM528.0 -22.0V-258.0H557.0V-22.0Z"/></g>
<g fill="red" transform="translate(800 200) scale(0.1 -0.1)"><path d="M0.0 0.0V-281.0H-12.0V-539.0H102.0V-281.0H90.0V0.0ZM527.0 123.0V-53.0H651.0V123.0ZM527.0 -53.0V-255.0H625.0V-53.0Z"/></g>
<g fill="black" opacity=".8" transform="translate(800 200) scale(0.1 -0.1)"><path d="M0.0 0.0V-281.0H-12.0V-539.0H102.0V-281.0H90.0V0.0ZM527.0 123.0V-53.0H651.0V123.0ZM527.0 -53.0V-255.0H625.0V-53.0Z"/></g>
</svg>
