<?xml version="1.0" encoding="UTF-8"?>
<svg width="1700" height="300" xmlns="http://www.w3.org/2000/svg">
<rect width="100%" height="100%" fill="white"/>
<g fill="green" transform="translate(100 100) scale(0.1 -0.1)"><path d="M0.0 0.0V-29.0H222.0V-322.0H0.0V-352.0H251.0V0.0ZM102.0 -10.0V-342.0V-595.0H131.0V-342.0V-10.0ZM318.0 60.0V30.0H516.0V-284.0H318.0V-314.0H545.0V60.0ZM299.0 -669.0C299.0 -655.0 335.0 -617.0 335.0 -617.0V60.0H306.0V-571.0C306.0 -614.0 289.0 -635.0 279.0 -642.0C285.0 -649.0 295.0 -663.0 299.0 -669.0ZM424.0 -392.0C469.0 -476.0 513.0 -589.0 529.0 -657.0L558.0 -645.0C541.0 -579.0 496.0 -468.0 450.0 -383.0ZM299.0 -669.0C312.0 -656.0 333.0 -644.0 502.0 -556.0C500.0 -550.0 496.0 -537.0 494.0 -529.0L317.0 -616.0L298.0 -638.0Z"/></g>
<g fill="green" transform="translate(200 100) scale(0.1 -0.1)"><path d="M0.0 0.0V-113.0H154.0V-301.0H0.0V-414.0H245.0V0.0ZM50.0 -57.0V-338.0H36.0V-596.0H138.0V-338.0H124.0V-57.0ZM356.0 43.0V-65.0H447.0V-283.0H356.0V-391.0H564.0V43.0ZM286.0 -743.0C286.0 -700.0 383.0 -615.0 383.0 -615.0V43.0H270.0V-551.0C270.0 -606.0 246.0 -643.0 226.0 -661.0C244.0 -678.0 275.0 -719.0 286.0 -743.0ZM411.0 -452.0C442.0 -534.0 470.0 -641.0 477.0 -707.0L586.0 -659.0C577.0 -595.0 544.0 -492.0 511.0 -412.0ZM286.0 -743.0C307.0 -724.0 343.0 -704.0 524.0 -628.0C515.0 -601.0 504.0 -551.0 500.0 -517.0L308.0 -588.0L267.0 -627.0Z"/></g>
<g fill="green" transform="translate(300 100) scale(0.1 -0.1)"><path d="M0.0 0.0V-29.0H222.0V-322.0H0.0V-352.0H251.0V0.0ZM102.0 -10.0V-342.0V-595.0H131.0V-342.0V-10.0ZM318.0 60.0V30.0H516.0V-284.0H318.0V-314.0H545.0V60.0ZM299.0 -669.0C299.0 -655.0 335.0 -617.0 335.0 -617.0V60.0H306.0V-571.0C306.0 -614.0 289.0 -635.0 279.0 -642.0C285.0 -649.0 295.0 -663.0 299.0 -669.0ZM424.0 -392.0C469.0 -476.0 513.0 -589.0 529.0 -657.0L558.0 -645.0C541.0 -579.0 496.0 -468.0 450.0 -383.0ZM299.0 -669.0C312.0 -656.0 333.0 -644.0 502.0 -556.0C500.0 -550.0 496.0 -537.0 494.0 -529.0L317.0 -616.0L298.0 -638.0Z"/></g>
<g fill="green" transform="translate(400 100) scale(0.1 -0.1)"><path d="M0.0 0.0V-113.0H154.0V-301.0H0.0V-414.0H245.0V0.0ZM50.0 -57.0V-338.0H36.0V-596.0H138.0V-338.0H124.0V-57.0ZM356.0 43.0V-65.0H447.0V-283.0H356.0V-391.0H564.0V43.0ZM286.0 -743.0C286.0 -700.0 383.0 -615.0 383.0 -615.0V43.0H270.0V-551.0C270.0 -606.0 246.0 -643.0 226.0 -661.0C244.0 -678.0 275.0 -719.0 286.0 -743.0ZM411.0 -452.0C442.0 -534.0 470.0 -641.0 477.0 -707.0L586.0 -659.0C577.0 -595.0 544.0 -492.0 511.0 -412.0ZM286.0 -743.0C307.0 -724.0 343.0 -704.0 524.0 -628.0C515.0 -601.0 504.0 -551.0 500.0 -517.0L308.0 -588.0L267.0 -627.0Z"/></g>
<g fill="red" transform="translate(100 200) scale(0.1 -0.1)"><path d="M0.0 0.0V-29.0H222.0V-322.0H0.0V-352.0H251.0V0.0ZM102.0 -10.0V-342.0V-595.0H131.0V-342.0V-10.0ZM318.0 60.0V30.0H516.0V-284.0H318.0V-314.0H545.0V60.0ZM299.0 -669.0C299.0 -655.0 335.0 -617.0 335.0 -617.0V60.0H306.0V-571.0C306.0 -614.0 289.0 -635.0 279.0 -642.0C285.0 -649.0 295.0 -663.0 299.0 -669.0ZM424.0 -392.0C469.0 -476.0 513.0 -589.0 529.0 -657.0L558.0 -645.0C541.0 -579.0 496.0 -468.0 450.0 -383.0ZM299.0 -669.0C312.0 -656.0 333.0 -644.0 502.0 -556.0C500.0 -550.0 496.0 -537.0 494.0 -529.0L317.0 -616.0L298.0 -638.0Z"/></g>
<g fill="black" opacity=".8" transform="translate(100 200) scale(0.1 -0.1)"><path d="M0.0 0.0V-29.0H222.0V-322.0H0.0V-352.0H251.0V0.0ZM102.0 -10.0V-342.0V-595.0H131.0V-342.0V-10.0ZM318.0 60.0V30.0H516.0V-284.0H318.0V-314.0H545.0V60.0ZM299.0 -669.0C299.0 -655.0 335.0 -617.0 335.0 -617.0V60.0H306.0V-571.0C306.0 -614.0 289.0 -635.0 279.0 -642.0C285.0 -649.0 295.0 -663.0 299.0 -669.0ZM424.0 -392.0C469.0 -476.0 513.0 -589.0 529.0 -657.0L558.0 -645.0C541.0 -579.0 496.0 -468.0 450.0 -383.0ZM299.0 -669.0C312.0 -656.0 333.0 -644.0 502.0 -556.0C500.0 -550.0 496.0 -537.0 494.0 -529.0L317.0 -616.0L298.0 -638.0Z"/></g>
<g fill="red" transform="translate(200 200) scale(0.1 -0.1)"><path d="M0.0 0.0V-113.0H154.0V-301.0H0.0V-414.0H245.0V0.0ZM50.0 -57.0V-338.0H36.0V-596.0H138.0V-338.0H124.0V-57.0ZM356.0 43.0V-65.0H447.0V-283.0H356.0V-391.0H564.0V43.0ZM286.0 -743.0C286.0 -700.0 383.0 -615.0 383.0 -615.0V43.0H270.0V-551.0C270.0 -606.0 246.0 -643.0 226.0 -661.0C244.0 -678.0 275.0 -719.0 286.0 -743.0ZM411.0 -452.0C442.0 -534.0 470.0 -641.0 477.0 -707.0L586.0 -659.0C577.0 -595.0 544.0 -492.0 511.0 -412.0ZM286.0 -743.0C307.0 -724.0 343.0 -704.0 524.0 -628.0C515.0 -601.0 504.0 -551.0 500.0 -517.0L308.0 -588.0L267.0 -627.0Z"/></g>
<g fill="black" opacity=".8" transform="translate(200 200) scale(0.1 -0.1)"><path d="M0.0 0.0V-113.0H154.0V-301.0H0.0V-414.0H245.0V0.0ZM50.0 -57.0V-338.0H36.0V-596.0H138.0V-338.0H124.0V-57.0ZM356.0 43.0V-65.0H447.0V-283.0H356.0V-391.0H564.0V43.0ZM286.0 -743.0C286.0 -700.0 383.0 -615.0 383.0 -615.0V43.0H270.0V-551.0C270.0 -606.0 246.0 -643.0 226.0 -661.0C244.0 -678.0 275.0 -719.0 286.0 -743.0ZM411.0 -452.0C442.0 -534.0 470.0 -641.0 477.0 -707.0L586.0 -659.0C577.0 -595.0 544.0 -492.0 511.0 -412.0ZM286.0 -743.0C307.0 -724.0 343.0 -704.0 524.0 -628.0C515.0 -601.0 504.0 -551.0 500.0 -517.0L308.0 -588.0L267.0 -627.0Z"/></g>
</svg>
