<?xml version="1.0" encoding="UTF-8"?>
<svg width="1700" height="300" xmlns="http://www.w3.org/2000/svg">
<rect width="100%" height="100%" fill="white"/>
<g fill="green" transform="translate(100 100) scale(0.1 -0.1)"><path d="M0.0 0.0V-139.0H29.0V-29.0H396.0V-138.0H425.0V0.0ZM77.0 264.0V-13.0H107.0V235.0H341.0V-13.0H370.0V264.0ZM487.0 210.0V181.0H773.0V-33.0H487.0V-62.0H804.0V210.0ZM196.0 146.0V-15.0H225.0V117.0H358.0V146.0ZM472.0 210.0V-271.0H502.0V210.0ZM485.0 90.0V60.0H786.0V90.0ZM129.0 -445.0 150.0 -473.0C206.0 -441.0 272.0 -402.0 338.0 -364.0L330.0 -339.0C256.0 -380.0 181.0 -421.0 129.0 -445.0ZM838.0 -253.0V-260.0C823.0 -464.0 808.0 -541.0 788.0 -562.0C781.0 -570.0 773.0 -571.0 759.0 -571.0C745.0 -571.0 708.0 -570.0 667.0 -566.0C672.0 -575.0 675.0 -588.0 676.0 -596.0C710.0 -599.0 747.0 -600.0 764.0 -599.0C787.0 -599.0 801.0 -594.0 812.0 -582.0C838.0 -555.0 853.0 -484.0 868.0 -273.0C869.0 -267.0 870.0 -253.0 870.0 -253.0ZM618.0 304.0C610.0 276.0 591.0 231.0 576.0 202.0L601.0 192.0C615.0 218.0 632.0 256.0 648.0 291.0ZM702.0 -335.0C730.0 -367.0 762.0 -413.0 777.0 -443.0L804.0 -427.0C788.0 -397.0 756.0 -354.0 726.0 -321.0Z"/></g>
<g fill="green" transform="translate(200 100) scale(0.1 -0.1)"><path d="M0.0 0.0V-168.0H120.0V-111.0H337.0V-168.0H463.0V0.0ZM57.0 267.0V-67.0H160.0V163.0H320.0V-67.0H428.0V267.0ZM549.0 204.0V109.0H757.0V-26.0H549.0V-121.0H880.0V204.0ZM192.0 132.0V-61.0H279.0V53.0H379.0V132.0ZM481.0 204.0V-314.0H606.0V204.0ZM547.0 83.0V0.0H804.0V83.0ZM154.0 -422.0 197.0 -531.0C246.0 -502.0 295.0 -472.0 346.0 -441.0L328.0 -361.0C262.0 -385.0 200.0 -409.0 154.0 -422.0ZM822.0 -271.0V-288.0C816.0 -464.0 807.0 -529.0 794.0 -546.0C786.0 -555.0 779.0 -557.0 767.0 -557.0C753.0 -557.0 727.0 -557.0 698.0 -554.0C714.0 -581.0 725.0 -624.0 727.0 -656.0C765.0 -657.0 802.0 -656.0 824.0 -652.0C851.0 -649.0 871.0 -640.0 890.0 -617.0C914.0 -588.0 924.0 -507.0 932.0 -313.0C933.0 -300.0 934.0 -271.0 934.0 -271.0ZM604.0 301.0C598.0 260.0 584.0 205.0 570.0 164.0L680.0 145.0C699.0 180.0 726.0 233.0 749.0 287.0ZM730.0 -405.0C744.0 -437.0 757.0 -480.0 762.0 -508.0L828.0 -485.0C823.0 -458.0 808.0 -417.0 793.0 -386.0Z"/></g>
<g fill="green" transform="translate(300 100) scale(0.1 -0.1)"><path d="M0.0 0.0V-139.0H29.0V-29.0H396.0V-138.0H425.0V0.0ZM77.0 264.0V-13.0H107.0V235.0H341.0V-13.0H370.0V264.0ZM487.0 210.0V181.0H773.0V-33.0H487.0V-62.0H804.0V210.0ZM196.0 146.0V-15.0H225.0V117.0H358.0V146.0ZM472.0 210.0V-271.0H502.0V210.0ZM485.0 90.0V60.0H786.0V90.0ZM129.0 -445.0 150.0 -473.0C206.0 -441.0 272.0 -402.0 338.0 -364.0L330.0 -339.0C256.0 -380.0 181.0 -421.0 129.0 -445.0ZM838.0 -253.0V-260.0C823.0 -464.0 808.0 -541.0 788.0 -562.0C781.0 -570.0 773.0 -571.0 759.0 -571.0C745.0 -571.0 708.0 -570.0 667.0 -566.0C672.0 -575.0 675.0 -588.0 676.0 -596.0C710.0 -599.0 747.0 -600.0 764.0 -599.0C787.0 -599.0 801.0 -594.0 812.0 -582.0C838.0 -555.0 853.0 -484.0 868.0 -273.0C869.0 -267.0 870.0 -253.0 870.0 -253.0ZM618.0 304.0C610.0 276.0 591.0 231.0 576.0 202.0L601.0 192.0C615.0 218.0 632.0 256.0 648.0 291.0ZM702.0 -335.0C730.0 -367.0 762.0 -413.0 777.0 -443.0L804.0 -427.0C788.0 -397.0 756.0 -354.0 726.0 -321.0Z"/></g>
<g fill="green" transform="translate(400 100) scale(0.1 -0.1)"><path d="M0.0 0.0V-168.0H120.0V-111.0H337.0V-168.0H463.0V0.0ZM57.0 267.0V-67.0H160.0V163.0H320.0V-67.0H428.0V267.0ZM549.0 204.0V109.0H757.0V-26.0H549.0V-121.0H880.0V204.0ZM192.0 132.0V-61.0H279.0V53.0H379.0V132.0ZM481.0 204.0V-314.0H606.0V204.0ZM547.0 83.0V0.0H804.0V83.0ZM154.0 -422.0 197.0 -531.0C246.0 -502.0 295.0 -472.0 346.0 -441.0L328.0 -361.0C262.0 -385.0 200.0 -409.0 154.0 -422.0ZM822.0 -271.0V-288.0C816.0 -464.0 807.0 -529.0 794.0 -546.0C786.0 -555.0 779.0 -557.0 767.0 -557.0C753.0 -557.0 727.0 -557.0 698.0 -554.0C714.0 -581.0 725.0 -624.0 727.0 -656.0C765.0 -657.0 802.0 -656.0 824.0 -652.0C851.0 -649.0 871.0 -640.0 890.0 -617.0C914.0 -588.0 924.0 -507.0 932.0 -313.0C933.0 -300.0 934.0 -271.0 934.0 -271.0ZM604.0 301.0C598.0 260.0 584.0 205.0 570.0 164.0L680.0 145.0C699.0 180.0 726.0 233.0 749.0 287.0ZM730.0 -405.0C744.0 -437.0 757.0 -480.0 762.0 -508.0L828.0 -485.0C823.0 -458.0 808.0 -417.0 793.0 -386.0Z"/></g>
<g fill="red" transform="translate(100 200) scale(0.1 -0.1)"><path d="M0.0 0.0V-139.0H29.0V-29.0H396.0V-138.0H425.0V0.0ZM77.0 264.0V-13.0H107.0V235.0H341.0V-13.0H370.0V264.0ZM487.0 210.0V181.0H773.0V-33.0H487.0V-62.0H804.0V210.0ZM196.0 146.0V-15.0H225.0V117.0H358.0V146.0ZM472.0 210.0V-271.0H502.0V210.0ZM485.0 90.0V60.0H786.0V90.0ZM129.0 -445.0 150.0 -473.0C206.0 -441.0 272.0 -402.0 338.0 -364.0L330.0 -339.0C256.0 -380.0 181.0 -421.0 129.0 -445.0ZM838.0 -253.0V-260.0C823.0 -464.0 808.0 -541.0 788.0 -562.0C781.0 -570.0 773.0 -571.0 759.0 -571.0C745.0 -571.0 708.0 -570.0 667.0 -566.0C672.0 -575.0 675.0 -588.0 676.0 -596.0C710.0 -599.0 747.0 -600.0 764.0 -599.0C787.0 -599.0 801.0 -594.0 812.0 -582.0C838.0 -555.0 853.0 -484.0 868.0 -273.0C869.0 -267.0 870.0 -253.0 870.0 -253.0ZM618.0 304.0C610.0 276.0 591.0 231.0 576.0 202.0L601.0 192.0C615.0 218.0 632.0 256.0 648.0 291.0ZM702.0 -335.0C730.0 -367.0 762.0 -413.0 777.0 -443.0L804.0 -427.0C788.0 -397.0 756.0 -354.0 726.0 -321.0Z"/></g>
<g fill="black" opacity=".8" transform="translate(100 200) scale(0.1 -0.1)"><path d="M0.0 0.0V-139.0H29.0V-29.0H396.0V-138.0H425.0V0.0ZM77.0 264.0V-13.0H107.0V235.0H341.0V-13.0H370.0V264.0ZM487.0 210.0V181.0H773.0V-33.0H487.0V-62.0H804.0V210.0ZM196.0 146.0V-15.0H225.0V117.0H358.0V146.0ZM472.0 210.0V-271.0H502.0V210.0ZM485.0 90.0V60.0H786.0V90.0ZM129.0 -445.0 150.0 -473.0C206.0 -441.0 272.0 -402.0 338.0 -364.0L330.0 -339.0C256.0 -380.0 181.0 -421.0 129.0 -445.0ZM838.0 -253.0V-260.0C823.0 -464.0 808.0 -541.0 788.0 -562.0C781.0 -570.0 773.0 -571.0 759.0 -571.0C745.0 -571.0 708.0 -570.0 667.0 -566.0C672.0 -575.0 675.0 -588.0 676.0 -596.0C710.0 -599.0 747.0 -600.0 764.0 -599.0C787.0 -599.0 801.0 -594.0 812.0 -582.0C838.0 -555.0 853.0 -484.0 868.0 -273.0C869.0 -267.0 870.0 -253.0 870.0 -253.0ZM618.0 304.0C610.0 276.0 591.0 231.0 576.0 202.0L601.0 192.0C615.0 218.0 632.0 256.0 648.0 291.0ZM702.0 -335.0C730.0 -367.0 762.0 -413.0 777.0 -443.0L804.0 -427.0C788.0 -397.0 756.0 -354.0 726.0 -321.0Z"/></g>
<g fill="red" transform="translate(200 200) scale(0.1 -0.1)"><path d="M0.0 0.0V-168.0H120.0V-111.0H337.0V-168.0H463.0V0.0ZM57.0 267.0V-67.0H160.0V163.0H320.0V-67.0H428.0V267.0ZM549.0 204.0V109.0H757.0V-26.0H549.0V-121.0H880.0V204.0ZM192.0 132.0V-61.0H279.0V53.0H379.0V132.0ZM481.0 204.0V-314.0H606.0V204.0ZM547.0 83.0V0.0H804.0V83.0ZM154.0 -422.0 197.0 -531.0C246.0 -502.0 295.0 -472.0 346.0 -441.0L328.0 -361.0C262.0 -385.0 200.0 -409.0 154.0 -422.0ZM822.0 -271.0V-288.0C816.0 -464.0 807.0 -529.0 794.0 -546.0C786.0 -555.0 779.0 -557.0 767.0 -557.0C753.0 -557.0 727.0 -557.0 698.0 -554.0C714.0 -581.0 725.0 -624.0 727.0 -656.0C765.0 -657.0 802.0 -656.0 824.0 -652.0C851.0 -649.0 871.0 -640.0 890.0 -617.0C914.0 -588.0 924.0 -507.0 932.0 -313.0C933.0 -300.0 934.0 -271.0 934.0 -271.0ZM604.0 301.0C598.0 260.0 584.0 205.0 570.0 164.0L680.0 145.0C699.0 180.0 726.0 233.0 749.0 287.0ZM730.0 -405.0C744.0 -437.0 757.0 -480.0 762.0 -508.0L828.0 -485.0C823.0 -458.0 808.0 -417.0 793.0 -386.0Z"/></g>
<g fill="black" opacity=".8" transform="translate(200 200) scale(0.1 -0.1)"><path d="M0.0 0.0V-168.0H120.0V-111.0H337.0V-168.0H463.0V0.0ZM57.0 267.0V-67.0H160.0V163.0H320.0V-67.0H428.0V267.0ZM549.0 204.0V109.0H757.0V-26.0H549.0V-121.0H880.0V204.0ZM192.0 132.0V-61.0H279.0V53.0H379.0V132.0ZM481.0 204.0V-314.0H606.0V204.0ZM547.0 83.0V0.0H804.0V83.0ZM154.0 -422.0 197.0 -531.0C246.0 -502.0 295.0 -472.0 346.0 -441.0L328.0 -361.0C262.0 -385.0 200.0 -409.0 154.0 -422.0ZM822.0 -271.0V-288.0C816.0 -464.0 807.0 -529.0 794.0 -546.0C786.0 -555.0 779.0 -557.0 767.0 -557.0C753.0 -557.0 727.0 -557.0 698.0 -554.0C714.0 -581.0 725.0 -624.0 727.0 -656.0C765.0 -657.0 802.0 -656.0 824.0 -652.0C851.0 -649.0 871.0 -640.0 890.0 -617.0C914.0 -588.0 924.0 -507.0 932.0 -313.0C933.0 -300.0 934.0 -271.0 934.0 -271.0ZM604.0 301.0C598.0 260.0 584.0 205.0 570.0 164.0L680.0 145.0C699.0 180.0 726.0 233.0 749.0 287.0ZM730.0 -405.0C744.0 -437.0 757.0 -480.0 762.0 -508.0L828.0 -485.0C823.0 -458.0 808.0 -417.0 793.0 -386.0Z"/></g>
</svg>
