<?xml version="1.0" encoding="UTF-8"?>
<svg width="1700" height="300" xmlns="http://www.w3.org/2000/svg">
<rect width="100%" height="100%" fill="white"/>
<g fill="green" transform="translate(100 100) scale(0.1 -0.1)"><path d="M0.0 0.0V-30.0H83.0H499.0H582.0V0.0H499.0H83.0ZM49.0 -204.0V-349.0H544.0V-204.0ZM69.0 103.0V-136.0H517.0V103.0ZM277.0 178.0V-333.0H306.0V178.0ZM70.0 -561.0H106.0C160.0 -508.0 239.0 -416.0 286.0 -338.0L257.0 -329.0C211.0 -406.0 133.0 -500.0 70.0 -561.0ZM-228.0 -63.0C-189.0 -98.0 -141.0 -148.0 -119.0 -180.0L-96.0 -163.0C-119.0 -132.0 -166.0 -84.0 -207.0 -48.0Z"/></g>
<g fill="green" transform="translate(200 100) scale(0.1 -0.1)"><path d="M0.0 0.0V-103.0H131.0V-86.0H470.0V-103.0H603.0V0.0H470.0V-16.0H131.0V0.0ZM25.0 -223.0V-417.0H571.0V-223.0ZM46.0 98.0V-199.0H549.0V98.0ZM235.0 145.0V-409.0H360.0V145.0ZM20.0 -645.0H171.0C221.0 -591.0 292.0 -498.0 337.0 -415.0L209.0 -383.0C163.0 -472.0 84.0 -577.0 20.0 -645.0ZM-231.0 -171.0C-207.0 -201.0 -177.0 -243.0 -163.0 -268.0L-86.0 -213.0C-101.0 -189.0 -131.0 -152.0 -157.0 -123.0Z"/></g>
<g fill="green" transform="translate(300 100) scale(0.1 -0.1)"><path d="M0.0 0.0V-30.0H83.0H499.0H582.0V0.0H499.0H83.0ZM49.0 -204.0V-349.0H544.0V-204.0ZM69.0 103.0V-136.0H517.0V103.0ZM277.0 178.0V-333.0H306.0V178.0ZM70.0 -561.0H106.0C160.0 -508.0 239.0 -416.0 286.0 -338.0L257.0 -329.0C211.0 -406.0 133.0 -500.0 70.0 -561.0ZM-228.0 -63.0C-189.0 -98.0 -141.0 -148.0 -119.0 -180.0L-96.0 -163.0C-119.0 -132.0 -166.0 -84.0 -207.0 -48.0Z"/></g>
<g fill="green" transform="translate(400 100) scale(0.1 -0.1)"><path d="M0.0 0.0V-103.0H131.0V-86.0H470.0V-103.0H603.0V0.0H470.0V-16.0H131.0V0.0ZM25.0 -223.0V-417.0H571.0V-223.0ZM46.0 98.0V-199.0H549.0V98.0ZM235.0 145.0V-409.0H360.0V145.0ZM20.0 -645.0H171.0C221.0 -591.0 292.0 -498.0 337.0 -415.0L209.0 -383.0C163.0 -472.0 84.0 -577.0 20.0 -645.0ZM-231.0 -171.0C-207.0 -201.0 -177.0 -243.0 -163.0 -268.0L-86.0 -213.0C-101.0 -189.0 -131.0 -152.0 -157.0 -123.0Z"/></g>
<g fill="red" transform="translate(100 200) scale(0.1 -0.1)"><path d="M0.0 0.0V-30.0H83.0H499.0H582.0V0.0H499.0H83.0ZM49.0 -204.0V-349.0H544.0V-204.0ZM69.0 103.0V-136.0H517.0V103.0ZM277.0 178.0V-333.0H306.0V178.0ZM70.0 -561.0H106.0C160.0 -508.0 239.0 -416.0 286.0 -338.0L257.0 -329.0C211.0 -406.0 133.0 -500.0 70.0 -561.0ZM-228.0 -63.0C-189.0 -98.0 -141.0 -148.0 -119.0 -180.0L-96.0 -163.0C-119.0 -132.0 -166.0 -84.0 -207.0 -48.0Z"/></g>
<g fill="black" opacity=".8" transform="translate(100 200) scale(0.1 -0.1)"><path d="M0.0 0.0V-30.0H83.0H499.0H582.0V0.0H499.0H83.0ZM49.0 -204.0V-349.0H544.0V-204.0ZM69.0 103.0V-136.0H517.0V103.0ZM277.0 178.0V-333.0H306.0V178.0ZM70.0 -561.0H106.0C160.0 -508.0 239.0 -416.0 286.0 -338.0L257.0 -329.0C211.0 -406.0 133.0 -500.0 70.0 -561.0ZM-228.0 -63.0C-189.0 -98.0 -141.0 -148.0 -119.0 -180.0L-96.0 -163.0C-119.0 -132.0 -166.0 -84.0 -207.0 -48.0Z"/></g>
<g fill="red" transform="translate(200 200) scale(0.1 -0.1)"><path d="M0.0 0.0V-103.0H131.0V-86.0H470.0V-103.0H603.0V0.0H470.0V-16.0H131.0V0.0ZM25.0 -223.0V-417.0H571.0V-223.0ZM46.0 98.0V-199.0H549.0V98.0ZM235.0 145.0V-409.0H360.0V145.0ZM20.0 -645.0H171.0C221.0 -591.0 292.0 -498.0 337.0 -415.0L209.0 -383.0C163.0 -472.0 84.0 -577.0 20.0 -645.0ZM-231.0 -171.0C-207.0 -201.0 -177.0 -243.0 -163.0 -268.0L-86.0 -213.0C-101.0 -189.0 -131.0 -152.0 -157.0 -123.0Z"/></g>
<g fill="black" opacity=".8" transform="translate(200 200) scale(0.1 -0.1)"><path d="M0.0 0.0V-103.0H131.0V-86.0H470.0V-103.0H603.0V0.0H470.0V-16.0H131.0V0.0ZM25.0 -223.0V-417.0H571.0V-223.0ZM46.0 98.0V-199.0H549.0V98.0ZM235.0 145.0V-409.0H360.0V145.0ZM20.0 -645.0H171.0C221.0 -591.0 292.0 -498.0 337.0 -415.0L209.0 -383.0C163.0 -472.0 84.0 -577.0 20.0 -645.0ZM-231.0 -171.0C-207.0 -201.0 -177.0 -243.0 -163.0 -268.0L-86.0 -213.0C-101.0 -189.0 -131.0 -152.0 -157.0 -123.0Z"/></g>
</svg>
