<?xml version="1.0" encoding="UTF-8"?>
<svg width="1700" height="500" xmlns="http://www.w3.org/2000/svg">
<rect width="100%" height="100%" fill="white"/>
<g fill="green" transform="translate(100 100) scale(0.1 -0.1)"><path d="M-0.0 0.0V421.0H1369.0V0.0ZM-184.0 41.0V-7.0H729.0V41.0ZM-118.0 582.0V263.0H651.0V582.0ZM-38.0 729.0 343.0 568.0 725.0 480.0 343.0 641.0ZM-20.0 796.0H706.0V658.0H-20.0ZM68.0 443.0V119.0H108.0V443.0ZM246.0 940.0V108.0H283.0V940.0ZM546.0 649.0V333.0H586.0V649.0Z"/></g>
<g fill="green" transform="translate(200 100) scale(0.1 -0.1)"><path d="M0.0 0.0V294.0H1335.0V0.0ZM-199.0 40.0V-112.0H700.0V40.0ZM-162.0 576.0V210.0H681.0V576.0ZM-17.0 690.0 273.0 506.0 682.0 478.0 392.0 663.0ZM64.0 710.0H597.0V665.0H64.0ZM4.0 403.0V87.0H157.0V403.0ZM173.0 904.0V50.0H350.0V904.0ZM477.0 612.0V307.0H635.0V612.0Z"/></g>
<g fill="green" transform="translate(300 100) scale(0.1 -0.1)"><path d="M-0.0 0.0V467.0H995.0V0.0ZM-214.0 -22.0V-26.0H338.0V-22.0ZM-166.0 338.0V171.0H274.0V338.0ZM-113.0 489.0 0.0 348.0 340.0 316.0 226.0 457.0ZM-97.0 493.0H324.0V416.0H-97.0ZM-41.0 286.0V125.0H-19.0V286.0ZM33.0 614.0V264.0H51.0V614.0ZM217.0 476.0V321.0H239.0V476.0Z"/></g>
<g fill="green" transform="translate(400 100) scale(0.1 -0.1)"><path d="M0.0 0.0V388.0H946.0V0.0ZM-231.0 -30.0V-92.0H294.0V-30.0ZM-207.0 324.0V142.0H285.0V324.0ZM-140.0 471.0 -32.0 311.0 331.0 300.0 223.0 461.0ZM-69.0 437.0H256.0V412.0H-69.0ZM-85.0 256.0V113.0H-5.0V256.0ZM-18.0 582.0V225.0H81.0V582.0ZM167.0 448.0V316.0H252.0V448.0Z"/></g>
<g fill="green" transform="translate(500 100) scale(0.1 -0.1)"><path d="M-0.0 0.0V127.0H1349.0V0.0ZM-67.0 -772.0V-749.0H1120.0V-772.0ZM56.0 -165.0V-549.0H990.0V-165.0ZM201.0 212.0 369.0 -148.0 1217.0 -185.0 1047.0 175.0ZM242.0 167.0H1175.0V13.0H242.0ZM351.0 -218.0V-574.0H399.0V-218.0ZM518.0 449.0V-261.0H564.0V449.0ZM949.0 232.0V-106.0H997.0V232.0Z"/></g>
<g fill="green" transform="translate(600 100) scale(0.1 -0.1)"><path d="M0.0 0.0V-22.0H1363.0V0.0ZM-61.0 -827.0V-936.0H1110.0V-827.0ZM33.0 -229.0V-659.0H1056.0V-229.0ZM195.0 138.0 339.0 -276.0 1249.0 -288.0 1106.0 126.0ZM376.0 9.0H1059.0V-44.0H376.0ZM297.0 -314.0V-664.0H495.0V-314.0ZM450.0 361.0V-365.0H674.0V361.0ZM881.0 142.0V-183.0H1088.0V142.0Z"/></g>
<g fill="green" transform="translate(700 100) scale(0.1 -0.1)"><path d="M-0.0 0.0V367.0H947.0V0.0ZM-144.0 852.0V620.0H357.0V852.0ZM7.0 258.0V-137.0H246.0V258.0ZM246.0 869.0 415.0 625.0 814.0 564.0 644.0 808.0ZM275.0 805.0H784.0V667.0H275.0ZM323.0 553.0V183.0H366.0V553.0ZM506.0 946.0V-199.0H546.0V946.0ZM694.0 555.0V184.0H736.0V555.0Z"/></g>
<g fill="green" transform="translate(800 100) scale(0.1 -0.1)"><path d="M0.0 0.0V222.0H916.0V0.0ZM-160.0 875.0V528.0H343.0V875.0ZM-45.0 213.0V-212.0H306.0V213.0ZM234.0 819.0 358.0 510.0 837.0 490.0 713.0 801.0ZM352.0 689.0H712.0V634.0H352.0ZM272.0 484.0V119.0H408.0V484.0ZM453.0 885.0V-268.0H622.0V885.0ZM663.0 486.0V121.0H796.0V486.0Z"/></g>
<g fill="green" transform="translate(900 100) scale(0.1 -0.1)"><path d="M-0.0 0.0V-59.0H597.0V0.0ZM25.0 -270.0V-126.0H622.0V-270.0ZM62.0 1351.0V715.0H567.0V1351.0ZM110.0 628.0 804.0 697.0 601.0 537.0 -94.0 468.0ZM102.0 823.0H608.0V689.0H102.0ZM164.0 494.0V162.0H197.0V494.0ZM393.0 789.0V-396.0H425.0V789.0ZM531.0 336.0V-5.0H565.0V336.0Z"/></g>
<g fill="green" transform="translate(1000 100) scale(0.1 -0.1)"><path d="M0.0 0.0V-151.0H618.0V0.0ZM36.0 -289.0V-255.0H636.0V-289.0ZM38.0 1355.0V698.0H625.0V1355.0ZM219.0 552.0 719.0 625.0 510.0 575.0 11.0 503.0ZM183.0 738.0H548.0V696.0H183.0ZM128.0 437.0V118.0H243.0V437.0ZM351.0 741.0V-479.0H485.0V741.0ZM502.0 277.0V-52.0H615.0V277.0Z"/></g>
<g fill="green" transform="translate(1100 100) scale(0.1 -0.1)"><path d="M0.0 0.0V158.0H1244.0V0.0ZM-70.0 277.0V-29.0H930.0V277.0ZM-96.0 254.0V250.0H952.0V254.0ZM-136.0 641.0 472.0 618.0 635.0 461.0 25.0 484.0ZM-135.0 874.0H632.0V713.0H-135.0ZM-55.0 413.0V37.0H-12.0V413.0ZM143.0 962.0V-8.0H184.0V962.0ZM468.0 629.0V264.0H511.0V629.0Z"/></g>
<g fill="green" transform="translate(1200 100) scale(0.1 -0.1)"><path d="M0.0 0.0V40.0H1246.0V0.0ZM-73.0 295.0V-97.0H940.0V295.0ZM-108.0 278.0V162.0H955.0V278.0ZM-29.0 600.0 388.0 593.0 529.0 544.0 113.0 552.0ZM-15.0 813.0H515.0V770.0H-15.0ZM-96.0 401.0V20.0H70.0V401.0ZM85.0 960.0V-62.0H271.0V960.0ZM404.0 620.0V250.0H577.0V620.0Z"/></g>
<g fill="green" transform="translate(1300 100) scale(0.1 -0.1)"><path d="M0.0 0.0V430.0H1432.0V0.0ZM-186.0 123.0V134.0H818.0V123.0ZM-113.0 600.0V360.0H717.0V600.0ZM-55.0 595.0 546.0 499.0 770.0 453.0 168.0 549.0ZM-45.0 630.0H759.0V554.0H-45.0ZM70.0 424.0V255.0H98.0V424.0ZM295.0 712.0V254.0H322.0V712.0ZM601.0 539.0V375.0H629.0V539.0Z"/></g>
<g fill="green" transform="translate(1400 100) scale(0.1 -0.1)"><path d="M0.0 0.0V341.0H1429.0V0.0ZM-191.0 129.0V78.0H786.0V129.0ZM-141.0 596.0V351.0H754.0V596.0ZM-6.0 581.0 478.0 471.0 719.0 458.0 234.0 570.0ZM42.0 584.0H668.0V561.0H42.0ZM17.0 410.0V252.0H158.0V410.0ZM244.0 692.0V222.0H393.0V692.0ZM539.0 529.0V378.0H687.0V529.0Z"/></g>
<g fill="green" transform="translate(1500 100) scale(0.1 -0.1)"><path d="M0.0 0.0V357.0H1309.0V0.0ZM-142.0 23.0V18.0H726.0V23.0ZM-93.0 588.0V271.0H671.0V588.0ZM-23.0 707.0 268.0 524.0 719.0 448.0 428.0 631.0ZM-2.0 764.0H698.0V629.0H-2.0ZM78.0 437.0V98.0H118.0V437.0ZM230.0 925.0V143.0H268.0V925.0ZM540.0 701.0V375.0H580.0V701.0Z"/></g>
<g fill="green" transform="translate(1600 100) scale(0.1 -0.1)"><path d="M0.0 0.0V233.0H1297.0V0.0ZM-164.0 46.0V-70.0H739.0V46.0ZM-123.0 616.0V236.0H709.0V616.0ZM0.0 694.0 218.0 488.0 696.0 464.0 478.0 671.0ZM93.0 705.0H599.0V662.0H93.0ZM10.0 435.0V75.0H167.0V435.0ZM165.0 925.0V122.0H342.0V925.0ZM489.0 702.0V357.0H651.0V702.0Z"/></g>
<g fill="green" transform="translate(100 200) scale(0.1 -0.1)"><path d="M0.0 0.0V422.0H1395.0V0.0ZM-170.0 46.0V-6.0H761.0V46.0ZM-98.0 582.0V270.0H675.0V582.0ZM-19.0 726.0 361.0 569.0 738.0 482.0 357.0 640.0ZM-2.0 796.0H719.0V660.0H-2.0ZM84.0 444.0V123.0H125.0V444.0ZM264.0 937.0V108.0H304.0V937.0ZM562.0 651.0V340.0H603.0V651.0Z"/></g>
<g fill="green" transform="translate(200 200) scale(0.1 -0.1)"><path d="M0.0 0.0V298.0H1313.0V0.0ZM-191.0 40.0V-110.0H680.0V40.0ZM-160.0 577.0V209.0H668.0V577.0ZM-13.0 684.0 248.0 504.0 651.0 475.0 390.0 655.0ZM67.0 710.0H567.0V665.0H67.0ZM0.0 399.0V84.0H157.0V399.0ZM156.0 907.0V59.0H333.0V907.0ZM450.0 609.0V306.0H611.0V609.0Z"/></g>
<g fill="red" transform="translate(100 300) scale(0.1 -0.1)"><path d="M0.0 0.0V-631.0H30.0V0.0ZM283.0 -483.0V-512.0H823.0V-483.0ZM300.0 61.0V-237.0H818.0V61.0ZM329.0 -102.0H788.0V-207.0H329.0ZM329.0 32.0H788.0V-72.0H329.0ZM368.0 -217.0V-499.0H397.0V-217.0ZM539.0 48.0V-798.0H571.0V48.0ZM713.0 -217.0V-496.0H742.0V-217.0Z"/></g>
<g fill="black" opacity=".8" transform="translate(100 300) scale(0.1 -0.1)"><path d="M0.0 0.0V-630.0H31.0V0.0ZM283.0 -484.0V-513.0H823.0V-484.0ZM302.0 62.0V-236.0H817.0V62.0ZM329.0 -102.0H787.0L789.0 -207.0L328.0 -206.0ZM328.0 33.0H788.0V-73.0H328.0ZM368.0 -217.0V-498.0H397.0V-217.0ZM539.0 49.0V-798.0H571.0V49.0ZM713.0 -217.0V-496.0H743.0V-217.0Z"/></g>
<g fill="red" transform="translate(200 300) scale(0.1 -0.1)"><path d="M0.0 0.0V-693.0H131.0V0.0ZM319.0 -509.0V-619.0H899.0V-509.0ZM335.0 50.0V-306.0H876.0V50.0ZM455.0 -174.0H751.0V-206.0H455.0ZM455.0 -50.0H751.0V-81.0H455.0ZM371.0 -266.0V-568.0H489.0V-266.0ZM536.0 15.0V-867.0H659.0V15.0ZM715.0 -266.0V-568.0H832.0V-266.0Z"/></g>
<g fill="black" opacity=".8" transform="translate(200 300) scale(0.1 -0.1)"><path d="M0.0 0.0V-693.0H130.0V0.0ZM319.0 -509.0V-619.0H899.0V-509.0ZM335.0 49.0V-306.0H875.0V49.0ZM455.0 -174.0 752.0 -173.0 750.0 -206.0H455.0ZM456.0 -51.0H750.0V-80.0H456.0ZM372.0 -265.0V-568.0H489.0V-265.0ZM536.0 16.0V-867.0H659.0V16.0ZM714.0 -266.0V-568.0H832.0V-266.0Z"/></g>
<g fill="red" transform="translate(300 300) scale(0.1 -0.1)"><path d="M0.0 0.0V-30.0H619.0V0.0ZM36.0 122.0V93.0H589.0V122.0ZM53.0 666.0V368.0H571.0V666.0ZM83.0 503.0H542.0V398.0H83.0ZM83.0 637.0H542.0V533.0H83.0ZM121.0 388.0V106.0H150.0V388.0ZM293.0 653.0V-193.0H324.0V653.0ZM468.0 388.0V109.0H496.0V388.0Z"/></g>
<g fill="black" opacity=".8" transform="translate(300 300) scale(0.1 -0.1)"><path d="M0.0 0.0V-31.0H624.0V0.0ZM38.0 124.0V94.0H587.0V124.0ZM54.0 669.0V372.0H571.0V669.0ZM81.0 505.0 539.0 506.0 540.0 399.0 82.0 400.0ZM81.0 641.0H539.0V535.0H81.0ZM128.0 390.0V108.0H158.0V390.0ZM293.0 659.0V-190.0H325.0V659.0ZM462.0 391.0V112.0H492.0V391.0Z"/></g>
<g fill="red" transform="translate(400 300) scale(0.1 -0.1)"><path d="M0.0 0.0V-108.0H627.0V0.0ZM25.0 146.0V36.0H605.0V146.0ZM41.0 705.0V349.0H582.0V705.0ZM161.0 481.0H457.0V449.0H161.0ZM161.0 605.0H457.0V574.0H161.0ZM77.0 389.0V87.0H195.0V389.0ZM242.0 670.0V-212.0H365.0V670.0ZM421.0 389.0V87.0H538.0V389.0Z"/></g>
<g fill="black" opacity=".8" transform="translate(400 300) scale(0.1 -0.1)"><path d="M0.0 0.0V-109.0H627.0V0.0ZM33.0 145.0V35.0H600.0V145.0ZM40.0 702.0V346.0H589.0V702.0ZM159.0 478.0 461.0 479.0 460.0 445.0H159.0ZM160.0 602.0H459.0V571.0H160.0ZM84.0 387.0V83.0H197.0V387.0ZM244.0 668.0V-209.0H367.0V668.0ZM420.0 387.0V84.0H534.0V387.0Z"/></g>
<g fill="red" transform="translate(500 300) scale(0.1 -0.1)"><path d="M0.0 0.0V-30.0H634.0V0.0ZM35.0 122.0V93.0H574.0V122.0ZM53.0 666.0V368.0H570.0V666.0ZM81.0 503.0H541.0V398.0H81.0ZM81.0 637.0H541.0V533.0H81.0ZM120.0 388.0V106.0H151.0V388.0ZM292.0 653.0V-193.0H323.0V653.0ZM465.0 388.0V109.0H495.0V388.0Z"/></g>
<g fill="black" opacity=".8" transform="translate(500 300) scale(0.1 -0.1)"><path d="M0.0 0.0V-29.0H629.0V0.0ZM29.0 122.0V95.0H586.0V122.0ZM43.0 670.0V368.0H572.0V670.0ZM71.0 507.0 543.0 505.0 548.0 398.0 76.0 401.0ZM72.0 640.0H548.0V533.0H72.0ZM122.0 390.0V107.0H151.0V390.0ZM291.0 660.0V-187.0H321.0V660.0ZM466.0 391.0V110.0H496.0V391.0Z"/></g>
<g fill="red" transform="translate(600 300) scale(0.1 -0.1)"><path d="M0.0 0.0V-108.0H680.0V0.0ZM43.0 146.0V36.0H623.0V146.0ZM41.0 705.0V349.0H617.0V705.0ZM161.0 481.0H492.0V449.0H161.0ZM161.0 605.0H492.0V574.0H161.0ZM82.0 389.0V87.0H200.0V389.0ZM260.0 670.0V-212.0H383.0V670.0ZM448.0 389.0V87.0H565.0V389.0Z"/></g>
<g fill="black" opacity=".8" transform="translate(600 300) scale(0.1 -0.1)"><path d="M0.0 0.0V-109.0H661.0V0.0ZM28.0 145.0V35.0H628.0V145.0ZM39.0 701.0V347.0H612.0V701.0ZM160.0 482.0 489.0 479.0 493.0 446.0 164.0 450.0ZM161.0 602.0H491.0V571.0H161.0ZM89.0 390.0V86.0H203.0V390.0ZM261.0 666.0V-210.0H386.0V666.0ZM448.0 390.0V87.0H563.0V390.0Z"/></g>
<g fill="red" transform="translate(700 300) scale(0.1 -0.1)"><path d="M0.0 0.0V-29.0H817.0V0.0ZM25.0 131.0V101.0H788.0V131.0ZM48.0 687.0V380.0H757.0V687.0ZM78.0 520.0H727.0V409.0H78.0ZM78.0 658.0H727.0V549.0H78.0ZM163.0 399.0V117.0H192.0V399.0ZM385.0 679.0V-167.0H415.0V679.0ZM616.0 399.0V117.0H645.0V399.0Z"/></g>
<g fill="black" opacity=".8" transform="translate(700 300) scale(0.1 -0.1)"><path d="M0.0 0.0V-25.0H830.0V0.0ZM28.0 131.0V98.0H786.0V131.0ZM53.0 682.0V381.0H755.0V682.0ZM82.0 513.0 724.0 516.0 718.0 409.0 75.0 405.0ZM81.0 652.0H718.0V546.0H81.0ZM156.0 395.0V118.0H188.0V395.0ZM379.0 668.0V-179.0H411.0V668.0ZM609.0 393.0V118.0H642.0V393.0Z"/></g>
<g fill="red" transform="translate(800 300) scale(0.1 -0.1)"><path d="M0.0 0.0V-116.0H856.0V0.0ZM20.0 150.0V36.0H826.0V150.0ZM37.0 701.0V361.0H802.0V701.0ZM177.0 487.0H654.0V455.0H177.0ZM177.0 607.0H654.0V575.0H177.0ZM110.0 395.0V98.0H243.0V395.0ZM341.0 657.0V-207.0H487.0V657.0ZM591.0 395.0V98.0H726.0V395.0Z"/></g>
<g fill="black" opacity=".8" transform="translate(800 300) scale(0.1 -0.1)"><path d="M0.0 0.0V-109.0H874.0V0.0ZM33.0 152.0V37.0H824.0V152.0ZM53.0 709.0V360.0H801.0V709.0ZM193.0 485.0 656.0 490.0 647.0 457.0 184.0 454.0ZM191.0 611.0H648.0V581.0H191.0ZM121.0 394.0V98.0H258.0V394.0ZM347.0 671.0V-207.0H492.0V671.0ZM582.0 392.0V97.0H721.0V392.0Z"/></g>
<g fill="red" transform="translate(900 300) scale(0.1 -0.1)"><path d="M0.0 0.0V-30.0H856.0V0.0ZM26.0 98.0V68.0H839.0V98.0ZM73.0 500.0V265.0H782.0V500.0ZM103.0 369.0H752.0V295.0H103.0ZM103.0 471.0H752.0V398.0H103.0ZM182.0 279.0V80.0H211.0V279.0ZM409.0 484.0V-151.0H439.0V484.0ZM644.0 279.0V85.0H673.0V279.0Z"/></g>
<g fill="black" opacity=".8" transform="translate(900 300) scale(0.1 -0.1)"><path d="M0.0 0.0V-28.0H848.0V0.0ZM33.0 94.0V66.0H836.0V94.0ZM73.0 498.0V265.0H785.0V498.0ZM102.0 372.0 756.0 371.0 760.0 294.0 104.0 296.0ZM101.0 474.0H759.0V397.0H101.0ZM184.0 281.0V79.0H212.0V281.0ZM411.0 486.0V-145.0H441.0V486.0ZM649.0 281.0V82.0H677.0V281.0Z"/></g>
<g fill="red" transform="translate(1000 300) scale(0.1 -0.1)"><path d="M0.0 0.0V-96.0H883.0V0.0ZM44.0 106.0V21.0H841.0V106.0ZM73.0 517.0V243.0H814.0V517.0ZM209.0 343.0H672.0V321.0H209.0ZM209.0 439.0H672.0V417.0H209.0ZM149.0 270.0V58.0H285.0V270.0ZM371.0 491.0V-166.0H507.0V491.0ZM594.0 273.0V61.0H732.0V273.0Z"/></g>
<g fill="black" opacity=".8" transform="translate(1000 300) scale(0.1 -0.1)"><path d="M0.0 0.0V-95.0H876.0V0.0ZM41.0 106.0V19.0H837.0V106.0ZM69.0 512.0V245.0H812.0V512.0ZM201.0 347.0 673.0 346.0 675.0 323.0 203.0 325.0ZM202.0 438.0H674.0V417.0H202.0ZM146.0 275.0V60.0H278.0V275.0ZM370.0 487.0V-166.0H502.0V487.0ZM599.0 276.0V63.0H735.0V276.0Z"/></g>
<g fill="red" transform="translate(1100 300) scale(0.1 -0.1)"><path d="M0.0 0.0V-30.0H878.0V0.0ZM11.0 -696.0V-726.0H876.0V-696.0ZM52.0 -586.0V-616.0H829.0V-586.0ZM89.0 -129.0V-393.0H792.0V-129.0ZM119.0 -158.0H762.0V-245.0H119.0ZM190.0 -402.0V-601.0H219.0V-402.0ZM253.0 69.0V-107.0H282.0V69.0ZM591.0 69.0V-107.0H620.0V69.0Z"/></g>
<g fill="black" opacity=".8" transform="translate(1100 300) scale(0.1 -0.1)"><path d="M0.0 0.0V-30.0H879.0V0.0ZM11.0 -696.0V-726.0H876.0V-696.0ZM53.0 -586.0V-616.0H828.0V-586.0ZM89.0 -129.0 88.0 -393.0H792.0L791.0 -128.0ZM119.0 -157.0H762.0V-246.0H119.0ZM189.0 -401.0V-600.0H219.0V-401.0ZM253.0 70.0V-107.0H282.0V70.0ZM591.0 69.0V-107.0H620.0V69.0Z"/></g>
<g fill="red" transform="translate(1200 300) scale(0.1 -0.1)"><path d="M0.0 0.0V-113.0H901.0V0.0ZM15.0 -727.0V-826.0H884.0V-727.0ZM58.0 -609.0V-700.0H851.0V-609.0ZM84.0 -157.0V-447.0H817.0V-157.0ZM220.0 -237.0H675.0V-264.0H220.0ZM157.0 -435.0V-651.0H293.0V-435.0ZM210.0 42.0V-147.0H354.0V42.0ZM541.0 42.0V-147.0H686.0V42.0Z"/></g>
<g fill="black" opacity=".8" transform="translate(1200 300) scale(0.1 -0.1)"><path d="M0.0 0.0V-113.0H901.0V0.0ZM15.0 -727.0V-827.0H884.0V-727.0ZM58.0 -610.0V-700.0H850.0V-610.0ZM85.0 -156.0V-446.0L816.0 -447.0L817.0 -157.0ZM220.0 -238.0H674.0V-264.0H220.0ZM157.0 -435.0V-651.0H293.0V-435.0ZM210.0 43.0V-147.0H354.0V43.0ZM541.0 41.0V-147.0H686.0V41.0Z"/></g>
<g fill="red" transform="translate(1300 300) scale(0.1 -0.1)"><path d="M0.0 0.0V-30.0H620.0V0.0ZM54.0 666.0V368.0H571.0V666.0ZM57.0 122.0V93.0H590.0V122.0ZM83.0 503.0H542.0V398.0H83.0ZM83.0 637.0H542.0V533.0H83.0ZM121.0 388.0V106.0H151.0V388.0ZM293.0 653.0V-193.0H325.0V653.0ZM468.0 388.0V109.0H497.0V388.0Z"/></g>
<g fill="black" opacity=".8" transform="translate(1300 300) scale(0.1 -0.1)"><path d="M0.0 0.0V-31.0H624.0V0.0ZM43.0 668.0V371.0H579.0V668.0ZM55.0 127.0V94.0H587.0V127.0ZM82.0 504.0 538.0 503.0 539.0 398.0 82.0 399.0ZM81.0 637.0H538.0V533.0H81.0ZM120.0 388.0V108.0H151.0V388.0ZM291.0 656.0V-196.0H325.0V656.0ZM466.0 387.0V112.0H497.0V387.0Z"/></g>
<g fill="red" transform="translate(1400 300) scale(0.1 -0.1)"><path d="M0.0 0.0V-108.0H621.0V0.0ZM44.0 705.0V349.0H572.0V705.0ZM43.0 146.0V36.0H582.0V146.0ZM162.0 481.0H450.0V449.0H162.0ZM162.0 605.0H450.0V574.0H162.0ZM84.0 389.0V87.0H199.0V389.0ZM245.0 670.0V-212.0H365.0V670.0ZM420.0 389.0V87.0H534.0V389.0Z"/></g>
<g fill="black" opacity=".8" transform="translate(1400 300) scale(0.1 -0.1)"><path d="M0.0 0.0V-110.0H617.0V0.0ZM39.0 706.0V351.0H579.0V706.0ZM43.0 148.0V32.0H581.0V148.0ZM166.0 479.0H448.0L447.0 445.0L166.0 446.0ZM167.0 602.0H446.0V572.0H167.0ZM85.0 387.0V85.0H202.0V387.0ZM243.0 672.0V-212.0H369.0V672.0ZM416.0 386.0V85.0H534.0V386.0Z"/></g>
<g fill="red" transform="translate(1500 300) scale(0.1 -0.1)"><path d="M0.0 0.0V-29.0H497.0V0.0ZM15.0 666.0V369.0H440.0V666.0ZM18.0 123.0V93.0H461.0V123.0ZM43.0 504.0H412.0V398.0H43.0ZM43.0 637.0H412.0V533.0H43.0ZM69.0 388.0V106.0H100.0V388.0ZM210.0 661.0V-191.0H238.0V661.0ZM352.0 388.0V110.0H382.0V388.0Z"/></g>
<g fill="black" opacity=".8" transform="translate(1500 300) scale(0.1 -0.1)"><path d="M0.0 0.0V-26.0H494.0V0.0ZM25.0 662.0V366.0H434.0V662.0ZM22.0 120.0V93.0H462.0V120.0ZM44.0 505.0H415.0L416.0 397.0L44.0 398.0ZM44.0 638.0H416.0V532.0H44.0ZM71.0 389.0V105.0H100.0V389.0ZM211.0 660.0V-189.0H239.0V660.0ZM355.0 388.0V107.0H383.0V388.0Z"/></g>
<g fill="red" transform="translate(1600 300) scale(0.1 -0.1)"><path d="M0.0 0.0V-108.0H524.0V0.0ZM20.0 705.0V349.0H493.0V705.0ZM26.0 146.0V36.0H488.0V146.0ZM136.0 481.0H371.0V449.0H136.0ZM136.0 605.0H371.0V574.0H136.0ZM58.0 389.0V87.0H160.0V389.0ZM197.0 670.0V-212.0H317.0V670.0ZM349.0 389.0V87.0H450.0V389.0Z"/></g>
<g fill="black" opacity=".8" transform="translate(1600 300) scale(0.1 -0.1)"><path d="M0.0 0.0V-106.0H526.0V0.0ZM24.0 705.0V346.0H486.0V705.0ZM26.0 142.0V38.0H487.0V142.0ZM131.0 484.0 374.0 485.0 373.0 452.0 131.0 453.0ZM132.0 605.0H373.0V576.0H132.0ZM58.0 393.0V90.0H156.0V393.0ZM198.0 671.0V-212.0H312.0V671.0ZM352.0 391.0V89.0H451.0V391.0Z"/></g>
<g fill="red" transform="translate(100 400) scale(0.1 -0.1)"><path d="M0.0 0.0V-30.0H688.0V0.0ZM46.0 122.0V93.0H650.0V122.0ZM49.0 666.0V368.0H639.0V666.0ZM77.0 503.0H610.0V398.0H77.0ZM77.0 637.0H610.0V533.0H77.0ZM138.0 388.0V106.0H168.0V388.0ZM319.0 653.0V-193.0H351.0V653.0ZM514.0 388.0V109.0H543.0V388.0Z"/></g>
<g fill="black" opacity=".8" transform="translate(100 400) scale(0.1 -0.1)"><path d="M0.0 0.0V-35.0H686.0V0.0ZM34.0 124.0V97.0H652.0V124.0ZM53.0 673.0V368.0H633.0V673.0ZM82.0 506.0 604.0 504.0 608.0 398.0 85.0 400.0ZM82.0 639.0H607.0V533.0H82.0ZM140.0 389.0V107.0H170.0V389.0ZM326.0 658.0V-191.0H357.0V658.0ZM518.0 388.0V109.0H549.0V388.0Z"/></g>
<g fill="red" transform="translate(200 400) scale(0.1 -0.1)"><path d="M0.0 0.0V-108.0H722.0V0.0ZM41.0 146.0V36.0H684.0V146.0ZM63.0 705.0V349.0H671.0V705.0ZM184.0 481.0H545.0V449.0H184.0ZM184.0 605.0H545.0V574.0H184.0ZM123.0 389.0V87.0H241.0V389.0ZM304.0 670.0V-212.0H427.0V670.0ZM492.0 389.0V87.0H609.0V389.0Z"/></g>
<g fill="black" opacity=".8" transform="translate(200 400) scale(0.1 -0.1)"><path d="M0.0 0.0V-117.0H719.0V0.0ZM34.0 147.0V37.0H691.0V147.0ZM49.0 704.0V347.0H672.0V704.0ZM177.0 480.0 543.0 478.0 545.0 445.0 179.0 448.0ZM178.0 600.0H544.0V570.0H178.0ZM104.0 389.0V85.0H226.0V389.0ZM293.0 664.0V-214.0H425.0V664.0ZM495.0 388.0V85.0H618.0V388.0Z"/></g>
<g fill="red" transform="translate(300 400) scale(0.1 -0.1)"><path d="M0.0 0.0V-29.0H509.0V0.0ZM27.0 123.0V93.0H467.0V123.0ZM42.0 666.0V369.0H454.0V666.0ZM70.0 504.0H425.0V398.0H70.0ZM70.0 637.0H425.0V533.0H70.0ZM108.0 388.0V106.0H138.0V388.0ZM239.0 661.0V-191.0H267.0V661.0ZM362.0 388.0V110.0H393.0V388.0Z"/></g>
<g fill="black" opacity=".8" transform="translate(300 400) scale(0.1 -0.1)"><path d="M0.0 0.0V-24.0H507.0V0.0ZM36.0 118.0V87.0H462.0V118.0ZM47.0 659.0V367.0H455.0V659.0ZM73.0 501.0 430.0 502.0 428.0 396.0H71.0ZM73.0 635.0H428.0V529.0H73.0ZM104.0 386.0V105.0H132.0V386.0ZM237.0 653.0V-194.0H267.0V653.0ZM367.0 384.0V105.0H396.0V384.0Z"/></g>
<g fill="red" transform="translate(400 400) scale(0.1 -0.1)"><path d="M0.0 0.0V-103.0H482.0V0.0ZM25.0 134.0V29.0H468.0V134.0ZM20.0 690.0V334.0H465.0V690.0ZM132.0 467.0H348.0V432.0H132.0ZM132.0 592.0H348.0V558.0H132.0ZM59.0 374.0V72.0H157.0V374.0ZM180.0 655.0V-209.0H295.0V655.0ZM320.0 374.0V72.0H417.0V374.0Z"/></g>
<g fill="black" opacity=".8" transform="translate(400 400) scale(0.1 -0.1)"><path d="M0.0 0.0V-98.0H489.0V0.0ZM27.0 136.0V27.0H463.0V136.0ZM25.0 691.0V337.0H459.0V691.0ZM133.0 472.0 350.0 473.0 346.0 438.0H131.0ZM134.0 596.0H346.0V564.0H134.0ZM58.0 379.0V77.0H156.0V379.0ZM181.0 662.0V-212.0H291.0V662.0ZM322.0 376.0V75.0H419.0V376.0Z"/></g>
<g fill="red" transform="translate(500 400) scale(0.1 -0.1)"><path d="M0.0 0.0V-29.0H349.0V0.0ZM32.0 200.0V171.0H333.0V200.0ZM186.0 -24.0V-461.0H216.0V-24.0ZM419.0 290.0V43.0H822.0V290.0ZM449.0 153.0H793.0V73.0H449.0ZM479.0 57.0V-186.0H509.0V57.0ZM606.0 278.0V-459.0H635.0V278.0ZM736.0 57.0V-186.0H765.0V57.0Z"/></g>
<g fill="black" opacity=".8" transform="translate(500 400) scale(0.1 -0.1)"><path d="M0.0 0.0V-28.0H349.0V0.0ZM33.0 200.0V170.0H333.0V200.0ZM187.0 -24.0V-460.0H215.0V-24.0ZM419.0 290.0V43.0H823.0L822.0 291.0ZM449.0 154.0H793.0V72.0H449.0ZM479.0 57.0V-186.0H509.0V57.0ZM606.0 279.0V-459.0H635.0V279.0ZM736.0 57.0V-186.0H765.0V57.0Z"/></g>
<g fill="red" transform="translate(600 400) scale(0.1 -0.1)"><path d="M0.0 0.0V-124.0H365.0V0.0ZM34.0 195.0V74.0H345.0V195.0ZM165.0 -78.0V-515.0H287.0V-78.0ZM399.0 243.0V-72.0H885.0V243.0ZM519.0 48.0H758.0V10.0H519.0ZM450.0 -13.0V-264.0H550.0V-13.0ZM580.0 217.0V-514.0H698.0V217.0ZM731.0 -13.0V-264.0H827.0V-13.0Z"/></g>
<g fill="black" opacity=".8" transform="translate(600 400) scale(0.1 -0.1)"><path d="M0.0 0.0V-124.0H364.0V0.0ZM34.0 195.0V73.0H344.0V195.0ZM165.0 -79.0V-515.0H286.0V-79.0ZM399.0 243.0 400.0 -71.0 884.0 -72.0 885.0 243.0ZM520.0 47.0H757.0V11.0H520.0ZM451.0 -12.0V-264.0H550.0V-12.0ZM580.0 218.0V-514.0H698.0V218.0ZM730.0 -14.0V-264.0H827.0V-14.0Z"/></g>
<g fill="red" transform="translate(700 400) scale(0.1 -0.1)"><path d="M0.0 0.0V-30.0H622.0V0.0ZM16.0 -128.0V-158.0H616.0V-128.0ZM42.0 576.0V263.0H582.0V576.0ZM72.0 406.0H553.0V292.0H72.0ZM72.0 547.0H553.0V435.0H72.0ZM124.0 254.0V-16.0H154.0V254.0ZM295.0 570.0V-281.0H324.0V570.0ZM464.0 254.0V-16.0H494.0V254.0Z"/></g>
<g fill="black" opacity=".8" transform="translate(700 400) scale(0.1 -0.1)"><path d="M0.0 0.0V-30.0H622.0V0.0ZM14.0 -128.0V-157.0H617.0V-128.0ZM42.0 577.0V264.0H581.0V577.0ZM72.0 407.0H552.0L554.0 292.0L72.0 293.0ZM71.0 548.0H553.0V435.0H71.0ZM125.0 255.0V-15.0H155.0V255.0ZM295.0 572.0V-280.0H324.0V572.0ZM464.0 255.0V-16.0H494.0V255.0Z"/></g>
<g fill="red" transform="translate(800 400) scale(0.1 -0.1)"><path d="M0.0 0.0V-110.0H622.0V0.0ZM23.0 -145.0V-253.0H604.0V-145.0ZM23.0 570.0V214.0H602.0V570.0ZM145.0 347.0H475.0V311.0H145.0ZM145.0 473.0H475.0V438.0H145.0ZM93.0 205.0V-56.0H202.0V205.0ZM248.0 535.0V-347.0H370.0V535.0ZM416.0 205.0V-56.0H525.0V205.0Z"/></g>
<g fill="black" opacity=".8" transform="translate(800 400) scale(0.1 -0.1)"><path d="M0.0 0.0V-111.0H620.0V0.0ZM22.0 -145.0V-253.0H605.0V-145.0ZM22.0 569.0V213.0H602.0V569.0ZM144.0 347.0H475.0V310.0L145.0 311.0ZM145.0 472.0H475.0V438.0H145.0ZM93.0 205.0V-56.0H201.0V205.0ZM247.0 535.0V-347.0H371.0V535.0ZM416.0 205.0V-56.0H526.0V205.0Z"/></g>
</svg>
