<?xml version="1.0" encoding="UTF-8"?>
<svg width="1700" height="300" xmlns="http://www.w3.org/2000/svg">
<rect width="100%" height="100%" fill="white"/>
<g fill="green" transform="translate(100 100) scale(0.1 -0.1)"><path d="M0.0 0.0V-415.0H29.0V-29.0H298.0V0.0ZM284.0 0.0V-7.0C276.0 -198.0 268.0 -266.0 253.0 -283.0C247.0 -291.0 240.0 -292.0 228.0 -291.0C215.0 -291.0 181.0 -291.0 143.0 -288.0C148.0 -296.0 150.0 -307.0 151.0 -316.0C183.0 -319.0 216.0 -319.0 234.0 -318.0C255.0 -318.0 267.0 -313.0 278.0 -302.0C296.0 -280.0 304.0 -214.0 312.0 -19.0C313.0 -12.0 313.0 0.0 313.0 0.0ZM334.0 -386.0V-393.0C318.0 -643.0 301.0 -735.0 277.0 -759.0C269.0 -768.0 259.0 -769.0 244.0 -769.0C227.0 -769.0 182.0 -769.0 133.0 -764.0C138.0 -773.0 141.0 -785.0 142.0 -793.0C185.0 -796.0 228.0 -797.0 248.0 -797.0C274.0 -796.0 288.0 -792.0 300.0 -778.0C330.0 -748.0 345.0 -660.0 362.0 -405.0C363.0 -400.0 364.0 -386.0 364.0 -386.0ZM69.0 -123.0C112.0 -150.0 162.0 -190.0 187.0 -218.0L205.0 -196.0C182.0 -168.0 132.0 -130.0 89.0 -105.0ZM143.0 106.0C132.0 74.0 109.0 23.0 92.0 -9.0L117.0 -19.0C135.0 10.0 155.0 54.0 173.0 93.0Z"/></g>
<g fill="green" transform="translate(200 100) scale(0.1 -0.1)"><path d="M0.0 0.0V-527.0H116.0V-109.0H307.0V0.0ZM277.0 0.0V-18.0C272.0 -193.0 265.0 -259.0 252.0 -275.0C244.0 -284.0 236.0 -286.0 223.0 -286.0C207.0 -286.0 179.0 -286.0 147.0 -283.0C165.0 -314.0 178.0 -362.0 180.0 -398.0C222.0 -399.0 261.0 -398.0 285.0 -394.0C314.0 -389.0 335.0 -380.0 355.0 -355.0C380.0 -325.0 388.0 -240.0 395.0 -45.0C396.0 -31.0 397.0 0.0 397.0 0.0ZM302.0 -411.0V-430.0C293.0 -636.0 281.0 -718.0 263.0 -737.0C253.0 -748.0 244.0 -750.0 230.0 -750.0C211.0 -750.0 177.0 -749.0 139.0 -746.0C160.0 -779.0 174.0 -831.0 176.0 -868.0C222.0 -869.0 265.0 -868.0 292.0 -864.0C324.0 -859.0 348.0 -850.0 370.0 -822.0C400.0 -787.0 413.0 -689.0 425.0 -461.0C427.0 -445.0 428.0 -411.0 428.0 -411.0ZM101.0 -187.0C140.0 -206.0 188.0 -237.0 210.0 -259.0L284.0 -185.0C259.0 -162.0 209.0 -134.0 170.0 -118.0ZM138.0 86.0C125.0 45.0 102.0 -10.0 79.0 -51.0L189.0 -71.0C216.0 -36.0 252.0 16.0 283.0 71.0Z"/></g>
<g fill="green" transform="translate(300 100) scale(0.1 -0.1)"><path d="M0.0 0.0V-415.0H29.0V-29.0H298.0V0.0ZM284.0 0.0V-7.0C276.0 -198.0 268.0 -266.0 253.0 -283.0C247.0 -291.0 240.0 -292.0 228.0 -291.0C215.0 -291.0 181.0 -291.0 143.0 -288.0C148.0 -296.0 150.0 -307.0 151.0 -316.0C183.0 -319.0 216.0 -319.0 234.0 -318.0C255.0 -318.0 267.0 -313.0 278.0 -302.0C296.0 -280.0 304.0 -214.0 312.0 -19.0C313.0 -12.0 313.0 0.0 313.0 0.0ZM334.0 -386.0V-393.0C318.0 -643.0 301.0 -735.0 277.0 -759.0C269.0 -768.0 259.0 -769.0 244.0 -769.0C227.0 -769.0 182.0 -769.0 133.0 -764.0C138.0 -773.0 141.0 -785.0 142.0 -793.0C185.0 -796.0 228.0 -797.0 248.0 -797.0C274.0 -796.0 288.0 -792.0 300.0 -778.0C330.0 -748.0 345.0 -660.0 362.0 -405.0C363.0 -400.0 364.0 -386.0 364.0 -386.0ZM69.0 -123.0C112.0 -150.0 162.0 -190.0 187.0 -218.0L205.0 -196.0C182.0 -168.0 132.0 -130.0 89.0 -105.0ZM143.0 106.0C132.0 74.0 109.0 23.0 92.0 -9.0L117.0 -19.0C135.0 10.0 155.0 54.0 173.0 93.0Z"/></g>
<g fill="green" transform="translate(400 100) scale(0.1 -0.1)"><path d="M0.0 0.0V-527.0H116.0V-109.0H307.0V0.0ZM277.0 0.0V-18.0C272.0 -193.0 265.0 -259.0 252.0 -275.0C244.0 -284.0 236.0 -286.0 223.0 -286.0C207.0 -286.0 179.0 -286.0 147.0 -283.0C165.0 -314.0 178.0 -362.0 180.0 -398.0C222.0 -399.0 261.0 -398.0 285.0 -394.0C314.0 -389.0 335.0 -380.0 355.0 -355.0C380.0 -325.0 388.0 -240.0 395.0 -45.0C396.0 -31.0 397.0 0.0 397.0 0.0ZM302.0 -411.0V-430.0C293.0 -636.0 281.0 -718.0 263.0 -737.0C253.0 -748.0 244.0 -750.0 230.0 -750.0C211.0 -750.0 177.0 -749.0 139.0 -746.0C160.0 -779.0 174.0 -831.0 176.0 -868.0C222.0 -869.0 265.0 -868.0 292.0 -864.0C324.0 -859.0 348.0 -850.0 370.0 -822.0C400.0 -787.0 413.0 -689.0 425.0 -461.0C427.0 -445.0 428.0 -411.0 428.0 -411.0ZM101.0 -187.0C140.0 -206.0 188.0 -237.0 210.0 -259.0L284.0 -185.0C259.0 -162.0 209.0 -134.0 170.0 -118.0ZM138.0 86.0C125.0 45.0 102.0 -10.0 79.0 -51.0L189.0 -71.0C216.0 -36.0 252.0 16.0 283.0 71.0Z"/></g>
<g fill="red" transform="translate(100 200) scale(0.1 -0.1)"><path d="M0.0 0.0V-415.0H29.0V-29.0H298.0V0.0ZM284.0 0.0V-7.0C276.0 -198.0 268.0 -266.0 253.0 -283.0C247.0 -291.0 240.0 -292.0 228.0 -291.0C215.0 -291.0 181.0 -291.0 143.0 -288.0C148.0 -296.0 150.0 -307.0 151.0 -316.0C183.0 -319.0 216.0 -319.0 234.0 -318.0C255.0 -318.0 267.0 -313.0 278.0 -302.0C296.0 -280.0 304.0 -214.0 312.0 -19.0C313.0 -12.0 313.0 0.0 313.0 0.0ZM334.0 -386.0V-393.0C318.0 -643.0 301.0 -735.0 277.0 -759.0C269.0 -768.0 259.0 -769.0 244.0 -769.0C227.0 -769.0 182.0 -769.0 133.0 -764.0C138.0 -773.0 141.0 -785.0 142.0 -793.0C185.0 -796.0 228.0 -797.0 248.0 -797.0C274.0 -796.0 288.0 -792.0 300.0 -778.0C330.0 -748.0 345.0 -660.0 362.0 -405.0C363.0 -400.0 364.0 -386.0 364.0 -386.0ZM69.0 -123.0C112.0 -150.0 162.0 -190.0 187.0 -218.0L205.0 -196.0C182.0 -168.0 132.0 -130.0 89.0 -105.0ZM143.0 106.0C132.0 74.0 109.0 23.0 92.0 -9.0L117.0 -19.0C135.0 10.0 155.0 54.0 173.0 93.0Z"/></g>
<g fill="black" opacity=".8" transform="translate(100 200) scale(0.1 -0.1)"><path d="M0.0 0.0V-415.0H29.0V-29.0H298.0V0.0ZM284.0 0.0V-7.0C276.0 -198.0 268.0 -266.0 253.0 -283.0C247.0 -291.0 240.0 -292.0 228.0 -291.0C215.0 -291.0 181.0 -291.0 143.0 -288.0C148.0 -296.0 150.0 -307.0 151.0 -316.0C183.0 -319.0 216.0 -319.0 234.0 -318.0C255.0 -318.0 267.0 -313.0 278.0 -302.0C296.0 -280.0 304.0 -214.0 312.0 -19.0C313.0 -12.0 313.0 0.0 313.0 0.0ZM334.0 -386.0V-393.0C318.0 -643.0 301.0 -735.0 277.0 -759.0C269.0 -768.0 259.0 -769.0 244.0 -769.0C227.0 -769.0 182.0 -769.0 133.0 -764.0C138.0 -773.0 141.0 -785.0 142.0 -793.0C185.0 -796.0 228.0 -797.0 248.0 -797.0C274.0 -796.0 288.0 -792.0 300.0 -778.0C330.0 -748.0 345.0 -660.0 362.0 -405.0C363.0 -400.0 364.0 -386.0 364.0 -386.0ZM69.0 -123.0C112.0 -150.0 162.0 -190.0 187.0 -218.0L205.0 -196.0C182.0 -168.0 132.0 -130.0 89.0 -105.0ZM143.0 106.0C132.0 74.0 109.0 23.0 92.0 -9.0L117.0 -19.0C135.0 10.0 155.0 54.0 173.0 93.0Z"/></g>
<g fill="red" transform="translate(200 200) scale(0.1 -0.1)"><path d="M0.0 0.0V-527.0H116.0V-109.0H307.0V0.0ZM277.0 0.0V-18.0C272.0 -193.0 265.0 -259.0 252.0 -275.0C244.0 -284.0 236.0 -286.0 223.0 -286.0C207.0 -286.0 179.0 -286.0 147.0 -283.0C165.0 -314.0 178.0 -362.0 180.0 -398.0C222.0 -399.0 261.0 -398.0 285.0 -394.0C314.0 -389.0 335.0 -380.0 355.0 -355.0C380.0 -325.0 388.0 -240.0 395.0 -45.0C396.0 -31.0 397.0 0.0 397.0 0.0ZM302.0 -411.0V-430.0C293.0 -636.0 281.0 -718.0 263.0 -737.0C253.0 -748.0 244.0 -750.0 230.0 -750.0C211.0 -750.0 177.0 -749.0 139.0 -746.0C160.0 -779.0 174.0 -831.0 176.0 -868.0C222.0 -869.0 265.0 -868.0 292.0 -864.0C324.0 -859.0 348.0 -850.0 370.0 -822.0C400.0 -787.0 413.0 -689.0 425.0 -461.0C427.0 -445.0 428.0 -411.0 428.0 -411.0ZM101.0 -187.0C140.0 -206.0 188.0 -237.0 210.0 -259.0L284.0 -185.0C259.0 -162.0 209.0 -134.0 170.0 -118.0ZM138.0 86.0C125.0 45.0 102.0 -10.0 79.0 -51.0L189.0 -71.0C216.0 -36.0 252.0 16.0 283.0 71.0Z"/></g>
<g fill="black" opacity=".8" transform="translate(200 200) scale(0.1 -0.1)"><path d="M0.0 0.0V-527.0H116.0V-109.0H307.0V0.0ZM277.0 0.0V-18.0C272.0 -193.0 265.0 -259.0 252.0 -275.0C244.0 -284.0 236.0 -286.0 223.0 -286.0C207.0 -286.0 179.0 -286.0 147.0 -283.0C165.0 -314.0 178.0 -362.0 180.0 -398.0C222.0 -399.0 261.0 -398.0 285.0 -394.0C314.0 -389.0 335.0 -380.0 355.0 -355.0C380.0 -325.0 388.0 -240.0 395.0 -45.0C396.0 -31.0 397.0 0.0 397.0 0.0ZM302.0 -411.0V-430.0C293.0 -636.0 281.0 -718.0 263.0 -737.0C253.0 -748.0 244.0 -750.0 230.0 -750.0C211.0 -750.0 177.0 -749.0 139.0 -746.0C160.0 -779.0 174.0 -831.0 176.0 -868.0C222.0 -869.0 265.0 -868.0 292.0 -864.0C324.0 -859.0 348.0 -850.0 370.0 -822.0C400.0 -787.0 413.0 -689.0 425.0 -461.0C427.0 -445.0 428.0 -411.0 428.0 -411.0ZM101.0 -187.0C140.0 -206.0 188.0 -237.0 210.0 -259.0L284.0 -185.0C259.0 -162.0 209.0 -134.0 170.0 -118.0ZM138.0 86.0C125.0 45.0 102.0 -10.0 79.0 -51.0L189.0 -71.0C216.0 -36.0 252.0 16.0 283.0 71.0Z"/></g>
</svg>
