<?xml version="1.0" encoding="UTF-8"?>
<svg width="1700" height="300" xmlns="http://www.w3.org/2000/svg">
<rect width="100%" height="100%" fill="white"/>
<g fill="green" transform="translate(100 100) scale(0.1 -0.1)"><path d="M0.0 0.0H314.0V-123.0H0.0ZM737.0 43.0V36.0C730.0 -153.0 722.0 -221.0 708.0 -236.0C702.0 -244.0 696.0 -245.0 681.0 -245.0C668.0 -245.0 627.0 -245.0 584.0 -241.0C589.0 -249.0 592.0 -261.0 593.0 -270.0C630.0 -272.0 668.0 -272.0 687.0 -272.0C710.0 -271.0 722.0 -267.0 733.0 -255.0C751.0 -233.0 758.0 -170.0 766.0 23.0C766.0 30.0 766.0 43.0 766.0 43.0ZM779.0 -364.0V-370.0C769.0 -600.0 759.0 -681.0 742.0 -701.0C735.0 -710.0 728.0 -711.0 713.0 -711.0C699.0 -711.0 658.0 -710.0 614.0 -706.0C619.0 -714.0 622.0 -726.0 623.0 -735.0C660.0 -738.0 699.0 -739.0 718.0 -738.0C742.0 -737.0 754.0 -733.0 766.0 -719.0C789.0 -694.0 797.0 -617.0 808.0 -383.0C808.0 -377.0 808.0 -364.0 808.0 -364.0ZM505.0 -68.0C545.0 -100.0 594.0 -148.0 619.0 -176.0L641.0 -155.0C616.0 -127.0 566.0 -82.0 524.0 -49.0ZM585.0 138.0C575.0 107.0 554.0 58.0 539.0 27.0L563.0 18.0C579.0 46.0 598.0 88.0 614.0 125.0Z"/></g>
<g fill="green" transform="translate(200 100) scale(0.1 -0.1)"><path d="M0.0 0.0H196.0V-44.0H0.0ZM608.0 116.0V99.0C604.0 -77.0 598.0 -139.0 586.0 -155.0C578.0 -164.0 571.0 -167.0 559.0 -166.0C545.0 -166.0 524.0 -166.0 497.0 -163.0C514.0 -191.0 526.0 -234.0 527.0 -265.0C567.0 -266.0 604.0 -265.0 627.0 -262.0C655.0 -258.0 676.0 -249.0 695.0 -226.0C719.0 -198.0 727.0 -118.0 733.0 74.0C734.0 88.0 735.0 116.0 735.0 116.0ZM638.0 -293.0V-311.0C632.0 -513.0 625.0 -591.0 608.0 -609.0C598.0 -619.0 588.0 -621.0 571.0 -621.0C550.0 -621.0 508.0 -620.0 461.0 -616.0C482.0 -645.0 497.0 -690.0 499.0 -722.0C552.0 -724.0 603.0 -724.0 633.0 -720.0C670.0 -716.0 697.0 -707.0 720.0 -680.0C749.0 -648.0 759.0 -560.0 765.0 -338.0C767.0 -324.0 767.0 -293.0 767.0 -293.0ZM461.0 -45.0C488.0 -76.0 521.0 -119.0 537.0 -146.0L620.0 -86.0C604.0 -61.0 570.0 -23.0 541.0 7.0ZM469.0 209.0C467.0 169.0 458.0 113.0 448.0 73.0L556.0 57.0C571.0 93.0 591.0 145.0 609.0 198.0Z"/></g>
<g fill="green" transform="translate(300 100) scale(0.1 -0.1)"><path d="M0.0 0.0H314.0V-123.0H0.0ZM737.0 43.0V36.0C730.0 -153.0 722.0 -221.0 708.0 -236.0C702.0 -244.0 696.0 -245.0 681.0 -245.0C668.0 -245.0 627.0 -245.0 584.0 -241.0C589.0 -249.0 592.0 -261.0 593.0 -270.0C630.0 -272.0 668.0 -272.0 687.0 -272.0C710.0 -271.0 722.0 -267.0 733.0 -255.0C751.0 -233.0 758.0 -170.0 766.0 23.0C766.0 30.0 766.0 43.0 766.0 43.0ZM779.0 -364.0V-370.0C769.0 -600.0 759.0 -681.0 742.0 -701.0C735.0 -710.0 728.0 -711.0 713.0 -711.0C699.0 -711.0 658.0 -710.0 614.0 -706.0C619.0 -714.0 622.0 -726.0 623.0 -735.0C660.0 -738.0 699.0 -739.0 718.0 -738.0C742.0 -737.0 754.0 -733.0 766.0 -719.0C789.0 -694.0 797.0 -617.0 808.0 -383.0C808.0 -377.0 808.0 -364.0 808.0 -364.0ZM505.0 -68.0C545.0 -100.0 594.0 -148.0 619.0 -176.0L641.0 -155.0C616.0 -127.0 566.0 -82.0 524.0 -49.0ZM585.0 138.0C575.0 107.0 554.0 58.0 539.0 27.0L563.0 18.0C579.0 46.0 598.0 88.0 614.0 125.0Z"/></g>
<g fill="green" transform="translate(400 100) scale(0.1 -0.1)"><path d="M0.0 0.0H196.0V-44.0H0.0ZM608.0 116.0V99.0C604.0 -77.0 598.0 -139.0 586.0 -155.0C578.0 -164.0 571.0 -167.0 559.0 -166.0C545.0 -166.0 524.0 -166.0 497.0 -163.0C514.0 -191.0 526.0 -234.0 527.0 -265.0C567.0 -266.0 604.0 -265.0 627.0 -262.0C655.0 -258.0 676.0 -249.0 695.0 -226.0C719.0 -198.0 727.0 -118.0 733.0 74.0C734.0 88.0 735.0 116.0 735.0 116.0ZM638.0 -293.0V-311.0C632.0 -513.0 625.0 -591.0 608.0 -609.0C598.0 -619.0 588.0 -621.0 571.0 -621.0C550.0 -621.0 508.0 -620.0 461.0 -616.0C482.0 -645.0 497.0 -690.0 499.0 -722.0C552.0 -724.0 603.0 -724.0 633.0 -720.0C670.0 -716.0 697.0 -707.0 720.0 -680.0C749.0 -648.0 759.0 -560.0 765.0 -338.0C767.0 -324.0 767.0 -293.0 767.0 -293.0ZM461.0 -45.0C488.0 -76.0 521.0 -119.0 537.0 -146.0L620.0 -86.0C604.0 -61.0 570.0 -23.0 541.0 7.0ZM469.0 209.0C467.0 169.0 458.0 113.0 448.0 73.0L556.0 57.0C571.0 93.0 591.0 145.0 609.0 198.0Z"/></g>
<g fill="red" transform="translate(100 200) scale(0.1 -0.1)"><path d="M0.0 0.0H314.0V-123.0H0.0ZM737.0 43.0V36.0C730.0 -153.0 722.0 -221.0 708.0 -236.0C702.0 -244.0 696.0 -245.0 681.0 -245.0C668.0 -245.0 627.0 -245.0 584.0 -241.0C589.0 -249.0 592.0 -261.0 593.0 -270.0C630.0 -272.0 668.0 -272.0 687.0 -272.0C710.0 -271.0 722.0 -267.0 733.0 -255.0C751.0 -233.0 758.0 -170.0 766.0 23.0C766.0 30.0 766.0 43.0 766.0 43.0ZM779.0 -364.0V-370.0C769.0 -600.0 759.0 -681.0 742.0 -701.0C735.0 -710.0 728.0 -711.0 713.0 -711.0C699.0 -711.0 658.0 -710.0 614.0 -706.0C619.0 -714.0 622.0 -726.0 623.0 -735.0C660.0 -738.0 699.0 -739.0 718.0 -738.0C742.0 -737.0 754.0 -733.0 766.0 -719.0C789.0 -694.0 797.0 -617.0 808.0 -383.0C808.0 -377.0 808.0 -364.0 808.0 -364.0ZM505.0 -68.0C545.0 -100.0 594.0 -148.0 619.0 -176.0L641.0 -155.0C616.0 -127.0 566.0 -82.0 524.0 -49.0ZM585.0 138.0C575.0 107.0 554.0 58.0 539.0 27.0L563.0 18.0C579.0 46.0 598.0 88.0 614.0 125.0Z"/></g>
<g fill="black" opacity=".8" transform="translate(100 200) scale(0.1 -0.1)"><path d="M0.0 0.0H314.0V-123.0H0.0ZM737.0 43.0V36.0C730.0 -153.0 722.0 -221.0 708.0 -236.0C702.0 -244.0 696.0 -245.0 681.0 -245.0C668.0 -245.0 627.0 -245.0 584.0 -241.0C589.0 -249.0 592.0 -261.0 593.0 -270.0C630.0 -272.0 668.0 -272.0 687.0 -272.0C710.0 -271.0 722.0 -267.0 733.0 -255.0C751.0 -233.0 758.0 -170.0 766.0 23.0C766.0 30.0 766.0 43.0 766.0 43.0ZM779.0 -364.0V-370.0C769.0 -600.0 759.0 -681.0 742.0 -701.0C735.0 -710.0 728.0 -711.0 713.0 -711.0C699.0 -711.0 658.0 -710.0 614.0 -706.0C619.0 -714.0 622.0 -726.0 623.0 -735.0C660.0 -738.0 699.0 -739.0 718.0 -738.0C742.0 -737.0 754.0 -733.0 766.0 -719.0C789.0 -694.0 797.0 -617.0 808.0 -383.0C808.0 -377.0 808.0 -364.0 808.0 -364.0ZM505.0 -68.0C545.0 -100.0 594.0 -148.0 619.0 -176.0L641.0 -155.0C616.0 -127.0 566.0 -82.0 524.0 -49.0ZM585.0 138.0C575.0 107.0 554.0 58.0 539.0 27.0L563.0 18.0C579.0 46.0 598.0 88.0 614.0 125.0Z"/></g>
<g fill="red" transform="translate(200 200) scale(0.1 -0.1)"><path d="M0.0 0.0H196.0V-44.0H0.0ZM608.0 116.0V99.0C604.0 -77.0 598.0 -139.0 586.0 -155.0C578.0 -164.0 571.0 -167.0 559.0 -166.0C545.0 -166.0 524.0 -166.0 497.0 -163.0C514.0 -191.0 526.0 -234.0 527.0 -265.0C567.0 -266.0 604.0 -265.0 627.0 -262.0C655.0 -258.0 676.0 -249.0 695.0 -226.0C719.0 -198.0 727.0 -118.0 733.0 74.0C734.0 88.0 735.0 116.0 735.0 116.0ZM638.0 -293.0V-311.0C632.0 -513.0 625.0 -591.0 608.0 -609.0C598.0 -619.0 588.0 -621.0 571.0 -621.0C550.0 -621.0 508.0 -620.0 461.0 -616.0C482.0 -645.0 497.0 -690.0 499.0 -722.0C552.0 -724.0 603.0 -724.0 633.0 -720.0C670.0 -716.0 697.0 -707.0 720.0 -680.0C749.0 -648.0 759.0 -560.0 765.0 -338.0C767.0 -324.0 767.0 -293.0 767.0 -293.0ZM461.0 -45.0C488.0 -76.0 521.0 -119.0 537.0 -146.0L620.0 -86.0C604.0 -61.0 570.0 -23.0 541.0 7.0ZM469.0 209.0C467.0 169.0 458.0 113.0 448.0 73.0L556.0 57.0C571.0 93.0 591.0 145.0 609.0 198.0Z"/></g>
<g fill="black" opacity=".8" transform="translate(200 200) scale(0.1 -0.1)"><path d="M0.0 0.0H196.0V-44.0H0.0ZM608.0 116.0V99.0C604.0 -77.0 598.0 -139.0 586.0 -155.0C578.0 -164.0 571.0 -167.0 559.0 -166.0C545.0 -166.0 524.0 -166.0 497.0 -163.0C514.0 -191.0 526.0 -234.0 527.0 -265.0C567.0 -266.0 604.0 -265.0 627.0 -262.0C655.0 -258.0 676.0 -249.0 695.0 -226.0C719.0 -198.0 727.0 -118.0 733.0 74.0C734.0 88.0 735.0 116.0 735.0 116.0ZM638.0 -293.0V-311.0C632.0 -513.0 625.0 -591.0 608.0 -609.0C598.0 -619.0 588.0 -621.0 571.0 -621.0C550.0 -621.0 508.0 -620.0 461.0 -616.0C482.0 -645.0 497.0 -690.0 499.0 -722.0C552.0 -724.0 603.0 -724.0 633.0 -720.0C670.0 -716.0 697.0 -707.0 720.0 -680.0C749.0 -648.0 759.0 -560.0 765.0 -338.0C767.0 -324.0 767.0 -293.0 767.0 -293.0ZM461.0 -45.0C488.0 -76.0 521.0 -119.0 537.0 -146.0L620.0 -86.0C604.0 -61.0 570.0 -23.0 541.0 7.0ZM469.0 209.0C467.0 169.0 458.0 113.0 448.0 73.0L556.0 57.0C571.0 93.0 591.0 145.0 609.0 198.0Z"/></g>
</svg>
