<?xml version="1.0" encoding="UTF-8"?>
<svg width="1700" height="300" xmlns="http://www.w3.org/2000/svg">
<rect width="100%" height="100%" fill="white"/>
<g fill="green" transform="translate(100 100) scale(0.1 -0.1)"><path d="M0.0 0.0V-30.0H271.0V0.0ZM-10.0 -677.0 -1.0 -708.0C75.0 -681.0 176.0 -646.0 274.0 -613.0L271.0 -583.0C165.0 -620.0 60.0 -656.0 -10.0 -677.0ZM813.0 -292.0V-300.0C741.0 -424.0 591.0 -578.0 452.0 -660.0C459.0 -665.0 468.0 -672.0 472.0 -678.0C614.0 -593.0 766.0 -440.0 849.0 -303.0L827.0 -290.0L820.0 -292.0ZM470.0 -655.0C424.0 -655.0 374.0 -710.0 313.0 -791.0L336.0 -813.0C390.0 -736.0 438.0 -681.0 470.0 -681.0C490.0 -681.0 513.0 -713.0 544.0 -744.0C590.0 -787.0 639.0 -804.0 716.0 -804.0C753.0 -804.0 849.0 -802.0 894.0 -799.0C895.0 -789.0 900.0 -774.0 904.0 -768.0C848.0 -772.0 763.0 -775.0 716.0 -775.0C645.0 -775.0 602.0 -760.0 560.0 -723.0C520.0 -687.0 502.0 -655.0 470.0 -655.0Z"/></g>
<g fill="green" transform="translate(200 100) scale(0.1 -0.1)"><path d="M0.0 0.0V-133.0H319.0V0.0ZM-12.0 -665.0 12.0 -805.0C111.0 -771.0 239.0 -728.0 356.0 -686.0L338.0 -554.0C215.0 -597.0 78.0 -641.0 -12.0 -665.0ZM767.0 -329.0V-360.0C717.0 -463.0 587.0 -602.0 455.0 -680.0C484.0 -704.0 527.0 -748.0 548.0 -778.0C696.0 -688.0 842.0 -536.0 930.0 -387.0L828.0 -322.0L800.0 -329.0ZM513.0 -656.0C464.0 -656.0 396.0 -702.0 335.0 -772.0L433.0 -915.0C454.0 -861.0 485.0 -786.0 510.0 -786.0C529.0 -786.0 562.0 -815.0 601.0 -841.0C658.0 -877.0 714.0 -897.0 792.0 -897.0C839.0 -897.0 897.0 -894.0 932.0 -891.0C933.0 -855.0 951.0 -781.0 963.0 -744.0C912.0 -752.0 839.0 -757.0 795.0 -757.0C721.0 -757.0 666.0 -744.0 617.0 -711.0C575.0 -686.0 545.0 -656.0 513.0 -656.0Z"/></g>
<g fill="green" transform="translate(300 100) scale(0.1 -0.1)"><path d="M0.0 0.0V-30.0H271.0V0.0ZM-10.0 -677.0 -1.0 -708.0C75.0 -681.0 176.0 -646.0 274.0 -613.0L271.0 -583.0C165.0 -620.0 60.0 -656.0 -10.0 -677.0ZM813.0 -292.0V-300.0C741.0 -424.0 591.0 -578.0 452.0 -660.0C459.0 -665.0 468.0 -672.0 472.0 -678.0C614.0 -593.0 766.0 -440.0 849.0 -303.0L827.0 -290.0L820.0 -292.0ZM470.0 -655.0C424.0 -655.0 374.0 -710.0 313.0 -791.0L336.0 -813.0C390.0 -736.0 438.0 -681.0 470.0 -681.0C490.0 -681.0 513.0 -713.0 544.0 -744.0C590.0 -787.0 639.0 -804.0 716.0 -804.0C753.0 -804.0 849.0 -802.0 894.0 -799.0C895.0 -789.0 900.0 -774.0 904.0 -768.0C848.0 -772.0 763.0 -775.0 716.0 -775.0C645.0 -775.0 602.0 -760.0 560.0 -723.0C520.0 -687.0 502.0 -655.0 470.0 -655.0Z"/></g>
<g fill="green" transform="translate(400 100) scale(0.1 -0.1)"><path d="M0.0 0.0V-133.0H319.0V0.0ZM-12.0 -665.0 12.0 -805.0C111.0 -771.0 239.0 -728.0 356.0 -686.0L338.0 -554.0C215.0 -597.0 78.0 -641.0 -12.0 -665.0ZM767.0 -329.0V-360.0C717.0 -463.0 587.0 -602.0 455.0 -680.0C484.0 -704.0 527.0 -748.0 548.0 -778.0C696.0 -688.0 842.0 -536.0 930.0 -387.0L828.0 -322.0L800.0 -329.0ZM513.0 -656.0C464.0 -656.0 396.0 -702.0 335.0 -772.0L433.0 -915.0C454.0 -861.0 485.0 -786.0 510.0 -786.0C529.0 -786.0 562.0 -815.0 601.0 -841.0C658.0 -877.0 714.0 -897.0 792.0 -897.0C839.0 -897.0 897.0 -894.0 932.0 -891.0C933.0 -855.0 951.0 -781.0 963.0 -744.0C912.0 -752.0 839.0 -757.0 795.0 -757.0C721.0 -757.0 666.0 -744.0 617.0 -711.0C575.0 -686.0 545.0 -656.0 513.0 -656.0Z"/></g>
<g fill="red" transform="translate(100 200) scale(0.1 -0.1)"><path d="M0.0 0.0V-30.0H271.0V0.0ZM-10.0 -677.0 -1.0 -708.0C75.0 -681.0 176.0 -646.0 274.0 -613.0L271.0 -583.0C165.0 -620.0 60.0 -656.0 -10.0 -677.0ZM813.0 -292.0V-300.0C741.0 -424.0 591.0 -578.0 452.0 -660.0C459.0 -665.0 468.0 -672.0 472.0 -678.0C614.0 -593.0 766.0 -440.0 849.0 -303.0L827.0 -290.0L820.0 -292.0ZM470.0 -655.0C424.0 -655.0 374.0 -710.0 313.0 -791.0L336.0 -813.0C390.0 -736.0 438.0 -681.0 470.0 -681.0C490.0 -681.0 513.0 -713.0 544.0 -744.0C590.0 -787.0 639.0 -804.0 716.0 -804.0C753.0 -804.0 849.0 -802.0 894.0 -799.0C895.0 -789.0 900.0 -774.0 904.0 -768.0C848.0 -772.0 763.0 -775.0 716.0 -775.0C645.0 -775.0 602.0 -760.0 560.0 -723.0C520.0 -687.0 502.0 -655.0 470.0 -655.0Z"/></g>
<g fill="black" opacity=".8" transform="translate(100 200) scale(0.1 -0.1)"><path d="M0.0 0.0V-30.0H271.0V0.0ZM-10.0 -677.0 -1.0 -708.0C75.0 -681.0 176.0 -646.0 274.0 -613.0L271.0 -583.0C165.0 -620.0 60.0 -656.0 -10.0 -677.0ZM813.0 -292.0V-300.0C741.0 -424.0 591.0 -578.0 452.0 -660.0C459.0 -665.0 468.0 -672.0 472.0 -678.0C614.0 -593.0 766.0 -440.0 849.0 -303.0L827.0 -290.0L820.0 -292.0ZM470.0 -655.0C424.0 -655.0 374.0 -710.0 313.0 -791.0L336.0 -813.0C390.0 -736.0 438.0 -681.0 470.0 -681.0C490.0 -681.0 513.0 -713.0 544.0 -744.0C590.0 -787.0 639.0 -804.0 716.0 -804.0C753.0 -804.0 849.0 -802.0 894.0 -799.0C895.0 -789.0 900.0 -774.0 904.0 -768.0C848.0 -772.0 763.0 -775.0 716.0 -775.0C645.0 -775.0 602.0 -760.0 560.0 -723.0C520.0 -687.0 502.0 -655.0 470.0 -655.0Z"/></g>
<g fill="red" transform="translate(200 200) scale(0.1 -0.1)"><path d="M0.0 0.0V-133.0H319.0V0.0ZM-12.0 -665.0 12.0 -805.0C111.0 -771.0 239.0 -728.0 356.0 -686.0L338.0 -554.0C215.0 -597.0 78.0 -641.0 -12.0 -665.0ZM767.0 -329.0V-360.0C717.0 -463.0 587.0 -602.0 455.0 -680.0C484.0 -704.0 527.0 -748.0 548.0 -778.0C696.0 -688.0 842.0 -536.0 930.0 -387.0L828.0 -322.0L800.0 -329.0ZM513.0 -656.0C464.0 -656.0 396.0 -702.0 335.0 -772.0L433.0 -915.0C454.0 -861.0 485.0 -786.0 510.0 -786.0C529.0 -786.0 562.0 -815.0 601.0 -841.0C658.0 -877.0 714.0 -897.0 792.0 -897.0C839.0 -897.0 897.0 -894.0 932.0 -891.0C933.0 -855.0 951.0 -781.0 963.0 -744.0C912.0 -752.0 839.0 -757.0 795.0 -757.0C721.0 -757.0 666.0 -744.0 617.0 -711.0C575.0 -686.0 545.0 -656.0 513.0 -656.0Z"/></g>
<g fill="black" opacity=".8" transform="translate(200 200) scale(0.1 -0.1)"><path d="M0.0 0.0V-133.0H319.0V0.0ZM-12.0 -665.0 12.0 -805.0C111.0 -771.0 239.0 -728.0 356.0 -686.0L338.0 -554.0C215.0 -597.0 78.0 -641.0 -12.0 -665.0ZM767.0 -329.0V-360.0C717.0 -463.0 587.0 -602.0 455.0 -680.0C484.0 -704.0 527.0 -748.0 548.0 -778.0C696.0 -688.0 842.0 -536.0 930.0 -387.0L828.0 -322.0L800.0 -329.0ZM513.0 -656.0C464.0 -656.0 396.0 -702.0 335.0 -772.0L433.0 -915.0C454.0 -861.0 485.0 -786.0 510.0 -786.0C529.0 -786.0 562.0 -815.0 601.0 -841.0C658.0 -877.0 714.0 -897.0 792.0 -897.0C839.0 -897.0 897.0 -894.0 932.0 -891.0C933.0 -855.0 951.0 -781.0 963.0 -744.0C912.0 -752.0 839.0 -757.0 795.0 -757.0C721.0 -757.0 666.0 -744.0 617.0 -711.0C575.0 -686.0 545.0 -656.0 513.0 -656.0Z"/></g>
</svg>
