<?xml version="1.0" encoding="UTF-8"?>
<svg width="1700" height="300" xmlns="http://www.w3.org/2000/svg">
<rect width="100%" height="100%" fill="white"/>
<g fill="green" transform="translate(100 100) scale(0.1 -0.1)"><path d="M0.0 0.0V-163.0H29.0V0.0ZM338.0 0.0V-159.0H367.0V0.0ZM-264.0 -531.0 -261.0 -561.0C-177.0 -556.0 -63.0 -551.0 54.0 -543.0L55.0 -515.0C-66.0 -522.0 -182.0 -528.0 -264.0 -531.0ZM-252.0 -298.0C-199.0 -340.0 -138.0 -401.0 -110.0 -441.0L-89.0 -421.0C-118.0 -382.0 -179.0 -322.0 -232.0 -281.0ZM-9.0 -630.0C19.0 -679.0 46.0 -745.0 54.0 -787.0L82.0 -777.0C74.0 -736.0 47.0 -671.0 18.0 -622.0ZM10.0 -268.0C-42.0 -351.0 -132.0 -466.0 -200.0 -537.0L-178.0 -552.0C-109.0 -481.0 -24.0 -371.0 36.0 -284.0ZM-203.0 -625.0C-219.0 -697.0 -243.0 -770.0 -277.0 -824.0C-268.0 -827.0 -255.0 -835.0 -249.0 -839.0C-219.0 -786.0 -191.0 -706.0 -173.0 -631.0Z"/></g>
<g fill="green" transform="translate(200 100) scale(0.1 -0.1)"><path d="M0.0 0.0V-198.0H141.0V0.0ZM328.0 0.0V-194.0H471.0V0.0ZM-237.0 -527.0 -228.0 -640.0C-136.0 -633.0 -20.0 -625.0 92.0 -616.0V-511.0C-29.0 -517.0 -152.0 -524.0 -237.0 -527.0ZM-230.0 -372.0C-184.0 -413.0 -128.0 -472.0 -105.0 -513.0L-33.0 -415.0C-57.0 -376.0 -115.0 -323.0 -162.0 -285.0ZM15.0 -687.0C36.0 -739.0 56.0 -808.0 62.0 -850.0L165.0 -811.0C158.0 -769.0 135.0 -703.0 112.0 -653.0ZM11.0 -286.0C-37.0 -367.0 -119.0 -474.0 -188.0 -540.0L-98.0 -586.0C-29.0 -524.0 59.0 -425.0 130.0 -336.0ZM-188.0 -657.0C-199.0 -727.0 -221.0 -799.0 -255.0 -846.0C-229.0 -861.0 -183.0 -894.0 -163.0 -913.0C-124.0 -856.0 -93.0 -767.0 -77.0 -680.0Z"/></g>
<g fill="green" transform="translate(300 100) scale(0.1 -0.1)"><path d="M0.0 0.0V-163.0H29.0V0.0ZM338.0 0.0V-159.0H367.0V0.0ZM-264.0 -531.0 -261.0 -561.0C-177.0 -556.0 -63.0 -551.0 54.0 -543.0L55.0 -515.0C-66.0 -522.0 -182.0 -528.0 -264.0 -531.0ZM-252.0 -298.0C-199.0 -340.0 -138.0 -401.0 -110.0 -441.0L-89.0 -421.0C-118.0 -382.0 -179.0 -322.0 -232.0 -281.0ZM-9.0 -630.0C19.0 -679.0 46.0 -745.0 54.0 -787.0L82.0 -777.0C74.0 -736.0 47.0 -671.0 18.0 -622.0ZM10.0 -268.0C-42.0 -351.0 -132.0 -466.0 -200.0 -537.0L-178.0 -552.0C-109.0 -481.0 -24.0 -371.0 36.0 -284.0ZM-203.0 -625.0C-219.0 -697.0 -243.0 -770.0 -277.0 -824.0C-268.0 -827.0 -255.0 -835.0 -249.0 -839.0C-219.0 -786.0 -191.0 -706.0 -173.0 -631.0Z"/></g>
<g fill="green" transform="translate(400 100) scale(0.1 -0.1)"><path d="M0.0 0.0V-198.0H141.0V0.0ZM328.0 0.0V-194.0H471.0V0.0ZM-237.0 -527.0 -228.0 -640.0C-136.0 -633.0 -20.0 -625.0 92.0 -616.0V-511.0C-29.0 -517.0 -152.0 -524.0 -237.0 -527.0ZM-230.0 -372.0C-184.0 -413.0 -128.0 -472.0 -105.0 -513.0L-33.0 -415.0C-57.0 -376.0 -115.0 -323.0 -162.0 -285.0ZM15.0 -687.0C36.0 -739.0 56.0 -808.0 62.0 -850.0L165.0 -811.0C158.0 -769.0 135.0 -703.0 112.0 -653.0ZM11.0 -286.0C-37.0 -367.0 -119.0 -474.0 -188.0 -540.0L-98.0 -586.0C-29.0 -524.0 59.0 -425.0 130.0 -336.0ZM-188.0 -657.0C-199.0 -727.0 -221.0 -799.0 -255.0 -846.0C-229.0 -861.0 -183.0 -894.0 -163.0 -913.0C-124.0 -856.0 -93.0 -767.0 -77.0 -680.0Z"/></g>
<g fill="red" transform="translate(100 200) scale(0.1 -0.1)"><path d="M0.0 0.0V-163.0H29.0V0.0ZM338.0 0.0V-159.0H367.0V0.0ZM-264.0 -531.0 -261.0 -561.0C-177.0 -556.0 -63.0 -551.0 54.0 -543.0L55.0 -515.0C-66.0 -522.0 -182.0 -528.0 -264.0 -531.0ZM-252.0 -298.0C-199.0 -340.0 -138.0 -401.0 -110.0 -441.0L-89.0 -421.0C-118.0 -382.0 -179.0 -322.0 -232.0 -281.0ZM-9.0 -630.0C19.0 -679.0 46.0 -745.0 54.0 -787.0L82.0 -777.0C74.0 -736.0 47.0 -671.0 18.0 -622.0ZM10.0 -268.0C-42.0 -351.0 -132.0 -466.0 -200.0 -537.0L-178.0 -552.0C-109.0 -481.0 -24.0 -371.0 36.0 -284.0ZM-203.0 -625.0C-219.0 -697.0 -243.0 -770.0 -277.0 -824.0C-268.0 -827.0 -255.0 -835.0 -249.0 -839.0C-219.0 -786.0 -191.0 -706.0 -173.0 -631.0Z"/></g>
<g fill="black" opacity=".8" transform="translate(100 200) scale(0.1 -0.1)"><path d="M0.0 0.0V-163.0H29.0V0.0ZM338.0 0.0V-159.0H367.0V0.0ZM-264.0 -531.0 -261.0 -561.0C-177.0 -556.0 -63.0 -551.0 54.0 -543.0L55.0 -515.0C-66.0 -522.0 -182.0 -528.0 -264.0 -531.0ZM-252.0 -298.0C-199.0 -340.0 -138.0 -401.0 -110.0 -441.0L-89.0 -421.0C-118.0 -382.0 -179.0 -322.0 -232.0 -281.0ZM-9.0 -630.0C19.0 -679.0 46.0 -745.0 54.0 -787.0L82.0 -777.0C74.0 -736.0 47.0 -671.0 18.0 -622.0ZM10.0 -268.0C-42.0 -351.0 -132.0 -466.0 -200.0 -537.0L-178.0 -552.0C-109.0 -481.0 -24.0 -371.0 36.0 -284.0ZM-203.0 -625.0C-219.0 -697.0 -243.0 -770.0 -277.0 -824.0C-268.0 -827.0 -255.0 -835.0 -249.0 -839.0C-219.0 -786.0 -191.0 -706.0 -173.0 -631.0Z"/></g>
<g fill="red" transform="translate(200 200) scale(0.1 -0.1)"><path d="M0.0 0.0V-198.0H141.0V0.0ZM328.0 0.0V-194.0H471.0V0.0ZM-237.0 -527.0 -228.0 -640.0C-136.0 -633.0 -20.0 -625.0 92.0 -616.0V-511.0C-29.0 -517.0 -152.0 -524.0 -237.0 -527.0ZM-230.0 -372.0C-184.0 -413.0 -128.0 -472.0 -105.0 -513.0L-33.0 -415.0C-57.0 -376.0 -115.0 -323.0 -162.0 -285.0ZM15.0 -687.0C36.0 -739.0 56.0 -808.0 62.0 -850.0L165.0 -811.0C158.0 -769.0 135.0 -703.0 112.0 -653.0ZM11.0 -286.0C-37.0 -367.0 -119.0 -474.0 -188.0 -540.0L-98.0 -586.0C-29.0 -524.0 59.0 -425.0 130.0 -336.0ZM-188.0 -657.0C-199.0 -727.0 -221.0 -799.0 -255.0 -846.0C-229.0 -861.0 -183.0 -894.0 -163.0 -913.0C-124.0 -856.0 -93.0 -767.0 -77.0 -680.0Z"/></g>
<g fill="black" opacity=".8" transform="translate(200 200) scale(0.1 -0.1)"><path d="M0.0 0.0V-198.0H141.0V0.0ZM328.0 0.0V-194.0H471.0V0.0ZM-237.0 -527.0 -228.0 -640.0C-136.0 -633.0 -20.0 -625.0 92.0 -616.0V-511.0C-29.0 -517.0 -152.0 -524.0 -237.0 -527.0ZM-230.0 -372.0C-184.0 -413.0 -128.0 -472.0 -105.0 -513.0L-33.0 -415.0C-57.0 -376.0 -115.0 -323.0 -162.0 -285.0ZM15.0 -687.0C36.0 -739.0 56.0 -808.0 62.0 -850.0L165.0 -811.0C158.0 -769.0 135.0 -703.0 112.0 -653.0ZM11.0 -286.0C-37.0 -367.0 -119.0 -474.0 -188.0 -540.0L-98.0 -586.0C-29.0 -524.0 59.0 -425.0 130.0 -336.0ZM-188.0 -657.0C-199.0 -727.0 -221.0 -799.0 -255.0 -846.0C-229.0 -861.0 -183.0 -894.0 -163.0 -913.0C-124.0 -856.0 -93.0 -767.0 -77.0 -680.0Z"/></g>
</svg>
