<?xml version="1.0" encoding="UTF-8"?>
<svg width="1700" height="300" xmlns="http://www.w3.org/2000/svg">
<rect width="100%" height="100%" fill="white"/>
<g fill="green" transform="translate(100 100) scale(0.1 -0.1)"><path d="M0.0 0.0H135.0V-101.0H0.0ZM92.0 337.0V170.0H121.0V337.0ZM164.0 0.0H303.0V-101.0H164.0ZM-204.0 -177.0C-140.0 -191.0 -62.0 -216.0 -20.0 -238.0L-6.0 -208.0C-48.0 -187.0 -127.0 -163.0 -189.0 -152.0ZM125.0 -275.0C200.0 -287.0 293.0 -312.0 343.0 -334.0L357.0 -303.0C306.0 -280.0 212.0 -258.0 139.0 -248.0ZM334.0 -156.0C281.0 -169.0 191.0 -190.0 130.0 -199.0L145.0 -223.0C207.0 -215.0 294.0 -202.0 352.0 -178.0Z"/></g>
<g fill="green" transform="translate(200 100) scale(0.1 -0.1)"><path d="M0.0 0.0H51.0V-34.0H0.0ZM-22.0 387.0V225.0H121.0V387.0ZM133.0 0.0H185.0V-34.0H133.0ZM-289.0 -187.0C-222.0 -196.0 -130.0 -216.0 -82.0 -232.0L-55.0 -148.0C-104.0 -133.0 -196.0 -116.0 -261.0 -111.0ZM97.0 -269.0C161.0 -281.0 248.0 -305.0 293.0 -323.0L325.0 -242.0C279.0 -225.0 192.0 -205.0 129.0 -196.0ZM274.0 -106.0C230.0 -120.0 150.0 -144.0 99.0 -151.0L134.0 -208.0C189.0 -206.0 261.0 -198.0 328.0 -185.0Z"/></g>
<g fill="green" transform="translate(300 100) scale(0.1 -0.1)"><path d="M0.0 0.0H135.0V-101.0H0.0ZM92.0 337.0V170.0H121.0V337.0ZM164.0 0.0H303.0V-101.0H164.0ZM-204.0 -177.0C-140.0 -191.0 -62.0 -216.0 -20.0 -238.0L-6.0 -208.0C-48.0 -187.0 -127.0 -163.0 -189.0 -152.0ZM125.0 -275.0C200.0 -287.0 293.0 -312.0 343.0 -334.0L357.0 -303.0C306.0 -280.0 212.0 -258.0 139.0 -248.0ZM334.0 -156.0C281.0 -169.0 191.0 -190.0 130.0 -199.0L145.0 -223.0C207.0 -215.0 294.0 -202.0 352.0 -178.0Z"/></g>
<g fill="green" transform="translate(400 100) scale(0.1 -0.1)"><path d="M0.0 0.0H51.0V-34.0H0.0ZM-22.0 387.0V225.0H121.0V387.0ZM133.0 0.0H185.0V-34.0H133.0ZM-289.0 -187.0C-222.0 -196.0 -130.0 -216.0 -82.0 -232.0L-55.0 -148.0C-104.0 -133.0 -196.0 -116.0 -261.0 -111.0ZM97.0 -269.0C161.0 -281.0 248.0 -305.0 293.0 -323.0L325.0 -242.0C279.0 -225.0 192.0 -205.0 129.0 -196.0ZM274.0 -106.0C230.0 -120.0 150.0 -144.0 99.0 -151.0L134.0 -208.0C189.0 -206.0 261.0 -198.0 328.0 -185.0Z"/></g>
<g fill="red" transform="translate(100 200) scale(0.1 -0.1)"><path d="M0.0 0.0H135.0V-101.0H0.0ZM92.0 337.0V170.0H121.0V337.0ZM164.0 0.0H303.0V-101.0H164.0ZM-204.0 -177.0C-140.0 -191.0 -62.0 -216.0 -20.0 -238.0L-6.0 -208.0C-48.0 -187.0 -127.0 -163.0 -189.0 -152.0ZM125.0 -275.0C200.0 -287.0 293.0 -312.0 343.0 -334.0L357.0 -303.0C306.0 -280.0 212.0 -258.0 139.0 -248.0ZM334.0 -156.0C281.0 -169.0 191.0 -190.0 130.0 -199.0L145.0 -223.0C207.0 -215.0 294.0 -202.0 352.0 -178.0Z"/></g>
<g fill="black" opacity=".8" transform="translate(100 200) scale(0.1 -0.1)"><path d="M0.0 0.0H135.0V-101.0H0.0ZM92.0 337.0V170.0H121.0V337.0ZM164.0 0.0H303.0V-101.0H164.0ZM-204.0 -177.0C-140.0 -191.0 -62.0 -216.0 -20.0 -238.0L-6.0 -208.0C-48.0 -187.0 -127.0 -163.0 -189.0 -152.0ZM125.0 -275.0C200.0 -287.0 293.0 -312.0 343.0 -334.0L357.0 -303.0C306.0 -280.0 212.0 -258.0 139.0 -248.0ZM334.0 -156.0C281.0 -169.0 191.0 -190.0 130.0 -199.0L145.0 -223.0C207.0 -215.0 294.0 -202.0 352.0 -178.0Z"/></g>
<g fill="red" transform="translate(200 200) scale(0.1 -0.1)"><path d="M0.0 0.0H51.0V-34.0H0.0ZM-22.0 387.0V225.0H121.0V387.0ZM133.0 0.0H185.0V-34.0H133.0ZM-289.0 -187.0C-222.0 -196.0 -130.0 -216.0 -82.0 -232.0L-55.0 -148.0C-104.0 -133.0 -196.0 -116.0 -261.0 -111.0ZM97.0 -269.0C161.0 -281.0 248.0 -305.0 293.0 -323.0L325.0 -242.0C279.0 -225.0 192.0 -205.0 129.0 -196.0ZM274.0 -106.0C230.0 -120.0 150.0 -144.0 99.0 -151.0L134.0 -208.0C189.0 -206.0 261.0 -198.0 328.0 -185.0Z"/></g>
<g fill="black" opacity=".8" transform="translate(200 200) scale(0.1 -0.1)"><path d="M0.0 0.0H51.0V-34.0H0.0ZM-22.0 387.0V225.0H121.0V387.0ZM133.0 0.0H185.0V-34.0H133.0ZM-289.0 -187.0C-222.0 -196.0 -130.0 -216.0 -82.0 -232.0L-55.0 -148.0C-104.0 -133.0 -196.0 -116.0 -261.0 -111.0ZM97.0 -269.0C161.0 -281.0 248.0 -305.0 293.0 -323.0L325.0 -242.0C279.0 -225.0 192.0 -205.0 129.0 -196.0ZM274.0 -106.0C230.0 -120.0 150.0 -144.0 99.0 -151.0L134.0 -208.0C189.0 -206.0 261.0 -198.0 328.0 -185.0Z"/></g>
</svg>
