<?xml version="1.0" encoding="UTF-8"?>
<svg width="1700" height="300" xmlns="http://www.w3.org/2000/svg">
<rect width="100%" height="100%" fill="white"/>
<g fill="green" transform="translate(100 100) scale(0.1 -0.1)"><path d="M-0.0 0.0V-30.0H402.0V0.0ZM220.0 76.0V-105.0H250.0V76.0ZM612.0 75.0V-106.0H642.0V75.0ZM236.0 -771.0C236.0 -758.0 294.0 -740.0 294.0 -740.0V-473.0H264.0V-694.0C264.0 -728.0 237.0 -736.0 222.0 -739.0C227.0 -749.0 234.0 -763.0 236.0 -771.0ZM236.0 -771.0C253.0 -764.0 280.0 -759.0 558.0 -722.0C557.0 -715.0 557.0 -702.0 558.0 -694.0L261.0 -733.0L236.0 -746.0Z"/></g>
<g fill="green" transform="translate(200 100) scale(0.1 -0.1)"><path d="M0.0 0.0V-118.0H437.0V0.0ZM193.0 44.0V-172.0H337.0V44.0ZM579.0 44.0V-181.0H723.0V44.0ZM246.0 -868.0C246.0 -838.0 343.0 -800.0 343.0 -800.0V-541.0H246.0V-726.0C246.0 -762.0 230.0 -774.0 213.0 -780.0C227.0 -801.0 242.0 -844.0 246.0 -868.0ZM246.0 -868.0C276.0 -855.0 322.0 -847.0 591.0 -823.0C588.0 -796.0 588.0 -747.0 591.0 -714.0L302.0 -734.0L242.0 -772.0Z"/></g>
<g fill="green" transform="translate(300 100) scale(0.1 -0.1)"><path d="M-0.0 0.0V-21.0H284.0V0.0ZM156.0 55.0V-76.0H178.0V55.0ZM433.0 54.0V-77.0H455.0V54.0ZM168.0 -582.0C168.0 -573.0 209.0 -560.0 209.0 -560.0V-357.0H188.0V-528.0C188.0 -552.0 169.0 -558.0 158.0 -560.0C162.0 -567.0 167.0 -577.0 168.0 -582.0ZM168.0 -582.0C180.0 -577.0 199.0 -574.0 393.0 -546.0C392.0 -541.0 392.0 -532.0 393.0 -526.0L186.0 -555.0L168.0 -565.0Z"/></g>
<g fill="green" transform="translate(400 100) scale(0.1 -0.1)"><path d="M0.0 0.0V-85.0H309.0V0.0ZM139.0 30.0V-128.0H241.0V30.0ZM408.0 30.0V-136.0H510.0V30.0ZM172.0 -655.0C172.0 -633.0 242.0 -606.0 242.0 -606.0V-407.0H172.0V-553.0C172.0 -578.0 160.0 -587.0 148.0 -591.0C158.0 -607.0 169.0 -638.0 172.0 -655.0ZM172.0 -655.0C194.0 -645.0 227.0 -639.0 418.0 -621.0C415.0 -601.0 415.0 -564.0 418.0 -539.0L213.0 -554.0L169.0 -582.0Z"/></g>
<g fill="green" transform="translate(500 100) scale(0.1 -0.1)"><path d="M0.0 0.0V-39.0H525.0V0.0ZM280.0 91.0V-118.0H318.0V91.0ZM791.0 90.0V-119.0H829.0V90.0ZM294.0 -668.0C294.0 -650.0 369.0 -627.0 369.0 -627.0V-413.0H331.0V-567.0C331.0 -611.0 295.0 -621.0 276.0 -625.0C282.0 -638.0 291.0 -655.0 294.0 -668.0ZM294.0 -668.0C316.0 -660.0 353.0 -653.0 740.0 -616.0C740.0 -608.0 741.0 -591.0 742.0 -581.0L328.0 -620.0L294.0 -635.0Z"/></g>
<g fill="green" transform="translate(600 100) scale(0.1 -0.1)"><path d="M0.0 0.0V-137.0H565.0V0.0ZM225.0 64.0V-165.0H411.0V64.0ZM770.0 64.0V-166.0H956.0V64.0ZM340.0 -758.0C340.0 -723.0 455.0 -677.0 455.0 -677.0V-480.0H341.0V-586.0C341.0 -633.0 321.0 -646.0 301.0 -654.0C317.0 -678.0 335.0 -729.0 340.0 -758.0ZM340.0 -758.0C371.0 -746.0 422.0 -739.0 770.0 -715.0C769.0 -691.0 769.0 -648.0 771.0 -618.0L397.0 -639.0L338.0 -674.0Z"/></g>
<g fill="red" transform="translate(100 200) scale(0.1 -0.1)"><path d="M0.0 0.0V-30.0H402.0V0.0ZM220.0 76.0V-105.0H250.0V76.0ZM612.0 75.0V-106.0H642.0V75.0ZM236.0 -771.0C236.0 -758.0 294.0 -740.0 294.0 -740.0V-473.0H264.0V-694.0C264.0 -728.0 237.0 -736.0 222.0 -739.0C227.0 -749.0 234.0 -763.0 236.0 -771.0ZM236.0 -771.0C253.0 -764.0 280.0 -759.0 558.0 -722.0C557.0 -715.0 557.0 -702.0 558.0 -694.0L261.0 -733.0L236.0 -746.0Z"/></g>
<g fill="black" opacity=".8" transform="translate(100 200) scale(0.1 -0.1)"><path d="M0.0 0.0V-30.0H402.0V0.0ZM220.0 76.0V-105.0H250.0V76.0ZM612.0 75.0V-106.0H642.0V75.0ZM236.0 -771.0C236.0 -758.0 294.0 -740.0 294.0 -740.0V-473.0H264.0V-694.0C264.0 -728.0 237.0 -736.0 222.0 -739.0C227.0 -749.0 234.0 -763.0 236.0 -771.0ZM236.0 -771.0C253.0 -764.0 280.0 -759.0 558.0 -722.0C557.0 -715.0 557.0 -702.0 558.0 -694.0L261.0 -733.0L236.0 -746.0Z"/></g>
<g fill="red" transform="translate(200 200) scale(0.1 -0.1)"><path d="M0.0 0.0V-118.0H437.0V0.0ZM193.0 44.0V-172.0H337.0V44.0ZM579.0 44.0V-181.0H723.0V44.0ZM246.0 -868.0C246.0 -838.0 343.0 -800.0 343.0 -800.0V-541.0H246.0V-726.0C246.0 -762.0 230.0 -774.0 213.0 -780.0C227.0 -801.0 242.0 -844.0 246.0 -868.0ZM246.0 -868.0C276.0 -855.0 322.0 -847.0 591.0 -823.0C588.0 -796.0 588.0 -747.0 591.0 -714.0L302.0 -734.0L242.0 -772.0Z"/></g>
<g fill="black" opacity=".8" transform="translate(200 200) scale(0.1 -0.1)"><path d="M0.0 0.0V-118.0H437.0V0.0ZM193.0 44.0V-172.0H337.0V44.0ZM579.0 44.0V-181.0H723.0V44.0ZM246.0 -868.0C246.0 -838.0 343.0 -800.0 343.0 -800.0V-541.0H246.0V-726.0C246.0 -762.0 230.0 -774.0 213.0 -780.0C227.0 -801.0 242.0 -844.0 246.0 -868.0ZM246.0 -868.0C276.0 -855.0 322.0 -847.0 591.0 -823.0C588.0 -796.0 588.0 -747.0 591.0 -714.0L302.0 -734.0L242.0 -772.0Z"/></g>
<g fill="red" transform="translate(300 200) scale(0.1 -0.1)"><path d="M0.0 0.0V-30.0H407.0V0.0ZM216.0 70.0V-89.0H246.0V70.0ZM612.0 69.0V-90.0H642.0V69.0ZM226.0 -479.0C226.0 -465.0 284.0 -447.0 284.0 -447.0V-297.0H255.0V-401.0C255.0 -435.0 227.0 -443.0 212.0 -446.0C217.0 -456.0 224.0 -469.0 226.0 -479.0ZM226.0 -479.0C243.0 -473.0 272.0 -468.0 575.0 -440.0C575.0 -434.0 576.0 -421.0 577.0 -413.0L253.0 -442.0L226.0 -454.0Z"/></g>
<g fill="black" opacity=".8" transform="translate(300 200) scale(0.1 -0.1)"><path d="M0.0 0.0V-30.0H407.0V0.0ZM216.0 70.0V-89.0H246.0V70.0ZM612.0 69.0V-90.0H642.0V69.0ZM226.0 -479.0C226.0 -465.0 284.0 -447.0 284.0 -447.0V-297.0H255.0V-401.0C255.0 -435.0 227.0 -443.0 212.0 -446.0C217.0 -456.0 224.0 -469.0 226.0 -479.0ZM226.0 -479.0C243.0 -473.0 272.0 -468.0 575.0 -440.0C575.0 -434.0 576.0 -421.0 577.0 -413.0L253.0 -442.0L226.0 -454.0Z"/></g>
<g fill="red" transform="translate(400 200) scale(0.1 -0.1)"><path d="M0.0 0.0V-104.0H437.0V0.0ZM171.0 50.0V-121.0H315.0V50.0ZM599.0 50.0V-121.0H743.0V50.0ZM266.0 -545.0C266.0 -518.0 354.0 -483.0 354.0 -483.0V-346.0H267.0V-413.0C267.0 -449.0 251.0 -459.0 236.0 -465.0C248.0 -484.0 262.0 -523.0 266.0 -545.0ZM266.0 -545.0C289.0 -536.0 327.0 -531.0 597.0 -513.0C596.0 -496.0 596.0 -465.0 598.0 -443.0L308.0 -459.0L265.0 -484.0Z"/></g>
<g fill="black" opacity=".8" transform="translate(400 200) scale(0.1 -0.1)"><path d="M0.0 0.0V-104.0H437.0V0.0ZM171.0 50.0V-121.0H315.0V50.0ZM599.0 50.0V-121.0H743.0V50.0ZM266.0 -545.0C266.0 -518.0 354.0 -483.0 354.0 -483.0V-346.0H267.0V-413.0C267.0 -449.0 251.0 -459.0 236.0 -465.0C248.0 -484.0 262.0 -523.0 266.0 -545.0ZM266.0 -545.0C289.0 -536.0 327.0 -531.0 597.0 -513.0C596.0 -496.0 596.0 -465.0 598.0 -443.0L308.0 -459.0L265.0 -484.0Z"/></g>
</svg>
