<?xml version="1.0" encoding="UTF-8"?>
<svg width="1700" height="300" xmlns="http://www.w3.org/2000/svg">
<rect width="100%" height="100%" fill="white"/>
<g fill="green" transform="translate(100 100) scale(0.1 -0.1)"><path d="M0.0 0.0V-526.0H29.0V23.0L24.0 25.0ZM-605.0 -111.0C-605.0 -101.0 -576.0 -89.0 -576.0 -89.0C-509.0 -7.0 -442.0 111.0 -386.0 227.0L-417.0 241.0C-463.0 129.0 -539.0 10.0 -562.0 -20.0C-583.0 -52.0 -601.0 -74.0 -616.0 -77.0C-612.0 -86.0 -607.0 -103.0 -605.0 -111.0ZM-599.0 -330.0C-599.0 -320.0 -570.0 -310.0 -570.0 -310.0V-309.0C-474.0 -212.0 -377.0 -74.0 -291.0 66.0L-322.0 80.0C-394.0 -53.0 -505.0 -194.0 -537.0 -230.0C-568.0 -266.0 -593.0 -294.0 -610.0 -297.0C-606.0 -306.0 -601.0 -322.0 -599.0 -330.0ZM-458.0 -388.0C-445.0 -457.0 -433.0 -547.0 -430.0 -606.0L-401.0 -601.0C-404.0 -542.0 -417.0 -453.0 -429.0 -384.0ZM-354.0 -144.0C-325.0 -208.0 -295.0 -293.0 -283.0 -343.0L-253.0 -333.0C-265.0 -284.0 -295.0 -201.0 -326.0 -137.0ZM-346.0 -370.0C-323.0 -433.0 -296.0 -515.0 -285.0 -569.0L-257.0 -561.0C-268.0 -508.0 -295.0 -426.0 -320.0 -363.0ZM-605.0 -111.0C-592.0 -105.0 -569.0 -100.0 -397.0 -79.0C-398.0 -72.0 -398.0 -61.0 -397.0 -52.0L-582.0 -70.0L-605.0 -83.0ZM-599.0 -330.0C-583.0 -322.0 -556.0 -317.0 -291.0 -282.0C-291.0 -275.0 -292.0 -263.0 -291.0 -254.0L-575.0 -289.0L-599.0 -304.0ZM-561.0 -386.0C-574.0 -467.0 -592.0 -557.0 -617.0 -621.0C-609.0 -624.0 -594.0 -630.0 -588.0 -633.0C-567.0 -570.0 -545.0 -476.0 -530.0 -392.0ZM70.0 156.0C5.0 -10.0 -104.0 -158.0 -230.0 -254.0C-223.0 -259.0 -211.0 -269.0 -206.0 -274.0C-82.0 -174.0 29.0 -24.0 99.0 148.0Z"/></g>
<g fill="green" transform="translate(200 100) scale(0.1 -0.1)"><path d="M0.0 0.0V-480.0H132.0V79.0L92.0 92.0ZM-540.0 -109.0C-540.0 -86.0 -465.0 -46.0 -465.0 -46.0V-43.0C-403.0 35.0 -334.0 149.0 -290.0 255.0L-416.0 306.0C-447.0 201.0 -506.0 92.0 -525.0 64.0C-545.0 34.0 -561.0 16.0 -582.0 10.0C-567.0 -23.0 -547.0 -84.0 -540.0 -109.0ZM-533.0 -345.0C-533.0 -323.0 -460.0 -285.0 -460.0 -285.0V-281.0C-359.0 -185.0 -256.0 -50.0 -183.0 80.0L-293.0 150.0C-355.0 14.0 -459.0 -127.0 -493.0 -162.0C-525.0 -198.0 -547.0 -220.0 -574.0 -227.0C-560.0 -260.0 -539.0 -321.0 -533.0 -345.0ZM-432.0 -387.0C-422.0 -452.0 -413.0 -537.0 -412.0 -593.0L-309.0 -567.0C-312.0 -511.0 -322.0 -428.0 -335.0 -363.0ZM-336.0 -138.0C-308.0 -202.0 -284.0 -284.0 -279.0 -336.0L-178.0 -297.0C-184.0 -245.0 -212.0 -165.0 -242.0 -104.0ZM-320.0 -365.0C-303.0 -417.0 -283.0 -485.0 -275.0 -530.0L-179.0 -495.0C-188.0 -451.0 -209.0 -385.0 -229.0 -334.0ZM-540.0 -109.0C-519.0 -99.0 -484.0 -91.0 -331.0 -77.0C-330.0 -50.0 -323.0 -2.0 -316.0 31.0L-490.0 20.0L-543.0 -15.0ZM-533.0 -345.0C-508.0 -332.0 -467.0 -322.0 -246.0 -289.0C-246.0 -264.0 -243.0 -217.0 -238.0 -185.0L-486.0 -214.0L-539.0 -251.0ZM-549.0 -369.0C-553.0 -450.0 -562.0 -539.0 -584.0 -596.0C-557.0 -603.0 -506.0 -619.0 -481.0 -632.0C-461.0 -571.0 -447.0 -476.0 -442.0 -386.0ZM59.0 180.0C10.0 28.0 -84.0 -107.0 -200.0 -187.0C-174.0 -216.0 -132.0 -281.0 -117.0 -312.0C17.0 -209.0 128.0 -40.0 192.0 145.0Z"/></g>
<g fill="green" transform="translate(300 100) scale(0.1 -0.1)"><path d="M0.0 0.0V-526.0H29.0V23.0L24.0 25.0ZM-605.0 -111.0C-605.0 -101.0 -576.0 -89.0 -576.0 -89.0C-509.0 -7.0 -442.0 111.0 -386.0 227.0L-417.0 241.0C-463.0 129.0 -539.0 10.0 -562.0 -20.0C-583.0 -52.0 -601.0 -74.0 -616.0 -77.0C-612.0 -86.0 -607.0 -103.0 -605.0 -111.0ZM-599.0 -330.0C-599.0 -320.0 -570.0 -310.0 -570.0 -310.0V-309.0C-474.0 -212.0 -377.0 -74.0 -291.0 66.0L-322.0 80.0C-394.0 -53.0 -505.0 -194.0 -537.0 -230.0C-568.0 -266.0 -593.0 -294.0 -610.0 -297.0C-606.0 -306.0 -601.0 -322.0 -599.0 -330.0ZM-458.0 -388.0C-445.0 -457.0 -433.0 -547.0 -430.0 -606.0L-401.0 -601.0C-404.0 -542.0 -417.0 -453.0 -429.0 -384.0ZM-354.0 -144.0C-325.0 -208.0 -295.0 -293.0 -283.0 -343.0L-253.0 -333.0C-265.0 -284.0 -295.0 -201.0 -326.0 -137.0ZM-346.0 -370.0C-323.0 -433.0 -296.0 -515.0 -285.0 -569.0L-257.0 -561.0C-268.0 -508.0 -295.0 -426.0 -320.0 -363.0ZM-605.0 -111.0C-592.0 -105.0 -569.0 -100.0 -397.0 -79.0C-398.0 -72.0 -398.0 -61.0 -397.0 -52.0L-582.0 -70.0L-605.0 -83.0ZM-599.0 -330.0C-583.0 -322.0 -556.0 -317.0 -291.0 -282.0C-291.0 -275.0 -292.0 -263.0 -291.0 -254.0L-575.0 -289.0L-599.0 -304.0ZM-561.0 -386.0C-574.0 -467.0 -592.0 -557.0 -617.0 -621.0C-609.0 -624.0 -594.0 -630.0 -588.0 -633.0C-567.0 -570.0 -545.0 -476.0 -530.0 -392.0ZM70.0 156.0C5.0 -10.0 -104.0 -158.0 -230.0 -254.0C-223.0 -259.0 -211.0 -269.0 -206.0 -274.0C-82.0 -174.0 29.0 -24.0 99.0 148.0Z"/></g>
<g fill="green" transform="translate(400 100) scale(0.1 -0.1)"><path d="M0.0 0.0V-480.0H132.0V79.0L92.0 92.0ZM-540.0 -109.0C-540.0 -86.0 -465.0 -46.0 -465.0 -46.0V-43.0C-403.0 35.0 -334.0 149.0 -290.0 255.0L-416.0 306.0C-447.0 201.0 -506.0 92.0 -525.0 64.0C-545.0 34.0 -561.0 16.0 -582.0 10.0C-567.0 -23.0 -547.0 -84.0 -540.0 -109.0ZM-533.0 -345.0C-533.0 -323.0 -460.0 -285.0 -460.0 -285.0V-281.0C-359.0 -185.0 -256.0 -50.0 -183.0 80.0L-293.0 150.0C-355.0 14.0 -459.0 -127.0 -493.0 -162.0C-525.0 -198.0 -547.0 -220.0 -574.0 -227.0C-560.0 -260.0 -539.0 -321.0 -533.0 -345.0ZM-432.0 -387.0C-422.0 -452.0 -413.0 -537.0 -412.0 -593.0L-309.0 -567.0C-312.0 -511.0 -322.0 -428.0 -335.0 -363.0ZM-336.0 -138.0C-308.0 -202.0 -284.0 -284.0 -279.0 -336.0L-178.0 -297.0C-184.0 -245.0 -212.0 -165.0 -242.0 -104.0ZM-320.0 -365.0C-303.0 -417.0 -283.0 -485.0 -275.0 -530.0L-179.0 -495.0C-188.0 -451.0 -209.0 -385.0 -229.0 -334.0ZM-540.0 -109.0C-519.0 -99.0 -484.0 -91.0 -331.0 -77.0C-330.0 -50.0 -323.0 -2.0 -316.0 31.0L-490.0 20.0L-543.0 -15.0ZM-533.0 -345.0C-508.0 -332.0 -467.0 -322.0 -246.0 -289.0C-246.0 -264.0 -243.0 -217.0 -238.0 -185.0L-486.0 -214.0L-539.0 -251.0ZM-549.0 -369.0C-553.0 -450.0 -562.0 -539.0 -584.0 -596.0C-557.0 -603.0 -506.0 -619.0 -481.0 -632.0C-461.0 -571.0 -447.0 -476.0 -442.0 -386.0ZM59.0 180.0C10.0 28.0 -84.0 -107.0 -200.0 -187.0C-174.0 -216.0 -132.0 -281.0 -117.0 -312.0C17.0 -209.0 128.0 -40.0 192.0 145.0Z"/></g>
<g fill="red" transform="translate(100 200) scale(0.1 -0.1)"><path d="M0.0 0.0V-526.0H29.0V23.0L24.0 25.0ZM-605.0 -111.0C-605.0 -101.0 -576.0 -89.0 -576.0 -89.0C-509.0 -7.0 -442.0 111.0 -386.0 227.0L-417.0 241.0C-463.0 129.0 -539.0 10.0 -562.0 -20.0C-583.0 -52.0 -601.0 -74.0 -616.0 -77.0C-612.0 -86.0 -607.0 -103.0 -605.0 -111.0ZM-599.0 -330.0C-599.0 -320.0 -570.0 -310.0 -570.0 -310.0V-309.0C-474.0 -212.0 -377.0 -74.0 -291.0 66.0L-322.0 80.0C-394.0 -53.0 -505.0 -194.0 -537.0 -230.0C-568.0 -266.0 -593.0 -294.0 -610.0 -297.0C-606.0 -306.0 -601.0 -322.0 -599.0 -330.0ZM-458.0 -388.0C-445.0 -457.0 -433.0 -547.0 -430.0 -606.0L-401.0 -601.0C-404.0 -542.0 -417.0 -453.0 -429.0 -384.0ZM-354.0 -144.0C-325.0 -208.0 -295.0 -293.0 -283.0 -343.0L-253.0 -333.0C-265.0 -284.0 -295.0 -201.0 -326.0 -137.0ZM-346.0 -370.0C-323.0 -433.0 -296.0 -515.0 -285.0 -569.0L-257.0 -561.0C-268.0 -508.0 -295.0 -426.0 -320.0 -363.0ZM-605.0 -111.0C-592.0 -105.0 -569.0 -100.0 -397.0 -79.0C-398.0 -72.0 -398.0 -61.0 -397.0 -52.0L-582.0 -70.0L-605.0 -83.0ZM-599.0 -330.0C-583.0 -322.0 -556.0 -317.0 -291.0 -282.0C-291.0 -275.0 -292.0 -263.0 -291.0 -254.0L-575.0 -289.0L-599.0 -304.0ZM-561.0 -386.0C-574.0 -467.0 -592.0 -557.0 -617.0 -621.0C-609.0 -624.0 -594.0 -630.0 -588.0 -633.0C-567.0 -570.0 -545.0 -476.0 -530.0 -392.0ZM70.0 156.0C5.0 -10.0 -104.0 -158.0 -230.0 -254.0C-223.0 -259.0 -211.0 -269.0 -206.0 -274.0C-82.0 -174.0 29.0 -24.0 99.0 148.0Z"/></g>
<g fill="black" opacity=".8" transform="translate(100 200) scale(0.1 -0.1)"><path d="M0.0 0.0V-526.0H29.0V23.0L24.0 25.0ZM-605.0 -111.0C-605.0 -101.0 -576.0 -89.0 -576.0 -89.0C-509.0 -7.0 -442.0 111.0 -386.0 227.0L-417.0 241.0C-463.0 129.0 -539.0 10.0 -562.0 -20.0C-583.0 -52.0 -601.0 -74.0 -616.0 -77.0C-612.0 -86.0 -607.0 -103.0 -605.0 -111.0ZM-599.0 -330.0C-599.0 -320.0 -570.0 -310.0 -570.0 -310.0V-309.0C-474.0 -212.0 -377.0 -74.0 -291.0 66.0L-322.0 80.0C-394.0 -53.0 -505.0 -194.0 -537.0 -230.0C-568.0 -266.0 -593.0 -294.0 -610.0 -297.0C-606.0 -306.0 -601.0 -322.0 -599.0 -330.0ZM-458.0 -388.0C-445.0 -457.0 -433.0 -547.0 -430.0 -606.0L-401.0 -601.0C-404.0 -542.0 -417.0 -453.0 -429.0 -384.0ZM-354.0 -144.0C-325.0 -208.0 -295.0 -293.0 -283.0 -343.0L-253.0 -333.0C-265.0 -284.0 -295.0 -201.0 -326.0 -137.0ZM-346.0 -370.0C-323.0 -433.0 -296.0 -515.0 -285.0 -569.0L-257.0 -561.0C-268.0 -508.0 -295.0 -426.0 -320.0 -363.0ZM-605.0 -111.0C-592.0 -105.0 -569.0 -100.0 -397.0 -79.0C-398.0 -72.0 -398.0 -61.0 -397.0 -52.0L-582.0 -70.0L-605.0 -83.0ZM-599.0 -330.0C-583.0 -322.0 -556.0 -317.0 -291.0 -282.0C-291.0 -275.0 -292.0 -263.0 -291.0 -254.0L-575.0 -289.0L-599.0 -304.0ZM-561.0 -386.0C-574.0 -467.0 -592.0 -557.0 -617.0 -621.0C-609.0 -624.0 -594.0 -630.0 -588.0 -633.0C-567.0 -570.0 -545.0 -476.0 -530.0 -392.0ZM70.0 156.0C5.0 -10.0 -104.0 -158.0 -230.0 -254.0C-223.0 -259.0 -211.0 -269.0 -206.0 -274.0C-82.0 -174.0 29.0 -24.0 99.0 148.0Z"/></g>
<g fill="red" transform="translate(200 200) scale(0.1 -0.1)"><path d="M0.0 0.0V-480.0H132.0V79.0L92.0 92.0ZM-540.0 -109.0C-540.0 -86.0 -465.0 -46.0 -465.0 -46.0V-43.0C-403.0 35.0 -334.0 149.0 -290.0 255.0L-416.0 306.0C-447.0 201.0 -506.0 92.0 -525.0 64.0C-545.0 34.0 -561.0 16.0 -582.0 10.0C-567.0 -23.0 -547.0 -84.0 -540.0 -109.0ZM-533.0 -345.0C-533.0 -323.0 -460.0 -285.0 -460.0 -285.0V-281.0C-359.0 -185.0 -256.0 -50.0 -183.0 80.0L-293.0 150.0C-355.0 14.0 -459.0 -127.0 -493.0 -162.0C-525.0 -198.0 -547.0 -220.0 -574.0 -227.0C-560.0 -260.0 -539.0 -321.0 -533.0 -345.0ZM-432.0 -387.0C-422.0 -452.0 -413.0 -537.0 -412.0 -593.0L-309.0 -567.0C-312.0 -511.0 -322.0 -428.0 -335.0 -363.0ZM-336.0 -138.0C-308.0 -202.0 -284.0 -284.0 -279.0 -336.0L-178.0 -297.0C-184.0 -245.0 -212.0 -165.0 -242.0 -104.0ZM-320.0 -365.0C-303.0 -417.0 -283.0 -485.0 -275.0 -530.0L-179.0 -495.0C-188.0 -451.0 -209.0 -385.0 -229.0 -334.0ZM-540.0 -109.0C-519.0 -99.0 -484.0 -91.0 -331.0 -77.0C-330.0 -50.0 -323.0 -2.0 -316.0 31.0L-490.0 20.0L-543.0 -15.0ZM-533.0 -345.0C-508.0 -332.0 -467.0 -322.0 -246.0 -289.0C-246.0 -264.0 -243.0 -217.0 -238.0 -185.0L-486.0 -214.0L-539.0 -251.0ZM-549.0 -369.0C-553.0 -450.0 -562.0 -539.0 -584.0 -596.0C-557.0 -603.0 -506.0 -619.0 -481.0 -632.0C-461.0 -571.0 -447.0 -476.0 -442.0 -386.0ZM59.0 180.0C10.0 28.0 -84.0 -107.0 -200.0 -187.0C-174.0 -216.0 -132.0 -281.0 -117.0 -312.0C17.0 -209.0 128.0 -40.0 192.0 145.0Z"/></g>
<g fill="black" opacity=".8" transform="translate(200 200) scale(0.1 -0.1)"><path d="M0.0 0.0V-480.0H132.0V79.0L92.0 92.0ZM-540.0 -109.0C-540.0 -86.0 -465.0 -46.0 -465.0 -46.0V-43.0C-403.0 35.0 -334.0 149.0 -290.0 255.0L-416.0 306.0C-447.0 201.0 -506.0 92.0 -525.0 64.0C-545.0 34.0 -561.0 16.0 -582.0 10.0C-567.0 -23.0 -547.0 -84.0 -540.0 -109.0ZM-533.0 -345.0C-533.0 -323.0 -460.0 -285.0 -460.0 -285.0V-281.0C-359.0 -185.0 -256.0 -50.0 -183.0 80.0L-293.0 150.0C-355.0 14.0 -459.0 -127.0 -493.0 -162.0C-525.0 -198.0 -547.0 -220.0 -574.0 -227.0C-560.0 -260.0 -539.0 -321.0 -533.0 -345.0ZM-432.0 -387.0C-422.0 -452.0 -413.0 -537.0 -412.0 -593.0L-309.0 -567.0C-312.0 -511.0 -322.0 -428.0 -335.0 -363.0ZM-336.0 -138.0C-308.0 -202.0 -284.0 -284.0 -279.0 -336.0L-178.0 -297.0C-184.0 -245.0 -212.0 -165.0 -242.0 -104.0ZM-320.0 -365.0C-303.0 -417.0 -283.0 -485.0 -275.0 -530.0L-179.0 -495.0C-188.0 -451.0 -209.0 -385.0 -229.0 -334.0ZM-540.0 -109.0C-519.0 -99.0 -484.0 -91.0 -331.0 -77.0C-330.0 -50.0 -323.0 -2.0 -316.0 31.0L-490.0 20.0L-543.0 -15.0ZM-533.0 -345.0C-508.0 -332.0 -467.0 -322.0 -246.0 -289.0C-246.0 -264.0 -243.0 -217.0 -238.0 -185.0L-486.0 -214.0L-539.0 -251.0ZM-549.0 -369.0C-553.0 -450.0 -562.0 -539.0 -584.0 -596.0C-557.0 -603.0 -506.0 -619.0 -481.0 -632.0C-461.0 -571.0 -447.0 -476.0 -442.0 -386.0ZM59.0 180.0C10.0 28.0 -84.0 -107.0 -200.0 -187.0C-174.0 -216.0 -132.0 -281.0 -117.0 -312.0C17.0 -209.0 128.0 -40.0 192.0 145.0Z"/></g>
</svg>
