<?xml version="1.0" encoding="UTF-8"?>
<svg width="1700" height="300" xmlns="http://www.w3.org/2000/svg">
<rect width="100%" height="100%" fill="white"/>
<g fill="green" transform="translate(100 100) scale(0.1 -0.1)"><path d="M0.0 0.0H-160.0V-300.0H0.0V-270.0H-130.0V-29.0H0.0ZM120.0 0.0V-29.0H250.0V-270.0H120.0V-300.0H279.0V0.0ZM-548.0 251.0V-243.0H-518.0V222.0H-237.0V251.0ZM-533.0 -213.0V-243.0H-254.0V-213.0ZM-531.0 -59.0V-88.0H-252.0V-59.0ZM-531.0 99.0V70.0H-257.0V99.0ZM-398.0 234.0V-221.0H-367.0V234.0ZM0.0 -270.0H-29.0V-557.0H0.0ZM0.0 228.0H-29.0V-15.0H0.0ZM120.0 -280.0V-558.0H149.0V-280.0ZM120.0 224.0V-14.0H149.0V224.0ZM-264.0 -213.0V-221.0C-275.0 -458.0 -289.0 -545.0 -307.0 -565.0C-313.0 -574.0 -319.0 -575.0 -332.0 -575.0C-345.0 -575.0 -374.0 -574.0 -409.0 -571.0C-404.0 -580.0 -401.0 -592.0 -401.0 -600.0C-372.0 -602.0 -344.0 -603.0 -327.0 -602.0C-307.0 -602.0 -294.0 -598.0 -281.0 -584.0C-259.0 -557.0 -247.0 -479.0 -235.0 -233.0C-234.0 -227.0 -234.0 -213.0 -234.0 -213.0Z"/></g>
<g fill="green" transform="translate(200 100) scale(0.1 -0.1)"><path d="M0.0 0.0H-219.0V-386.0H0.0V-265.0H-98.0V-121.0H0.0ZM31.0 0.0V-121.0H123.0V-265.0H31.0V-386.0H246.0V0.0ZM-621.0 233.0V-336.0H-514.0V117.0H-263.0V233.0ZM-559.0 -225.0V-336.0H-323.0V-225.0ZM-544.0 -73.0V-181.0H-276.0V-73.0ZM-544.0 78.0V-30.0H-276.0V78.0ZM-454.0 164.0V-286.0H-348.0V164.0ZM0.0 -333.0H-117.0V-585.0H0.0ZM0.0 178.0H-117.0V-70.0H0.0ZM31.0 -335.0V-578.0H147.0V-335.0ZM31.0 177.0V-66.0H148.0V177.0ZM-357.0 -225.0V-245.0C-364.0 -459.0 -375.0 -539.0 -388.0 -558.0C-396.0 -569.0 -403.0 -571.0 -414.0 -571.0C-428.0 -571.0 -449.0 -571.0 -476.0 -568.0C-459.0 -599.0 -448.0 -648.0 -447.0 -683.0C-411.0 -684.0 -377.0 -684.0 -357.0 -679.0C-331.0 -674.0 -312.0 -665.0 -294.0 -638.0C-269.0 -605.0 -257.0 -508.0 -248.0 -273.0C-247.0 -258.0 -246.0 -225.0 -246.0 -225.0Z"/></g>
<g fill="green" transform="translate(300 100) scale(0.1 -0.1)"><path d="M0.0 0.0H-160.0V-300.0H0.0V-270.0H-130.0V-29.0H0.0ZM120.0 0.0V-29.0H250.0V-270.0H120.0V-300.0H279.0V0.0ZM-548.0 251.0V-243.0H-518.0V222.0H-237.0V251.0ZM-533.0 -213.0V-243.0H-254.0V-213.0ZM-531.0 -59.0V-88.0H-252.0V-59.0ZM-531.0 99.0V70.0H-257.0V99.0ZM-398.0 234.0V-221.0H-367.0V234.0ZM0.0 -270.0H-29.0V-557.0H0.0ZM0.0 228.0H-29.0V-15.0H0.0ZM120.0 -280.0V-558.0H149.0V-280.0ZM120.0 224.0V-14.0H149.0V224.0ZM-264.0 -213.0V-221.0C-275.0 -458.0 -289.0 -545.0 -307.0 -565.0C-313.0 -574.0 -319.0 -575.0 -332.0 -575.0C-345.0 -575.0 -374.0 -574.0 -409.0 -571.0C-404.0 -580.0 -401.0 -592.0 -401.0 -600.0C-372.0 -602.0 -344.0 -603.0 -327.0 -602.0C-307.0 -602.0 -294.0 -598.0 -281.0 -584.0C-259.0 -557.0 -247.0 -479.0 -235.0 -233.0C-234.0 -227.0 -234.0 -213.0 -234.0 -213.0Z"/></g>
<g fill="green" transform="translate(400 100) scale(0.1 -0.1)"><path d="M0.0 0.0H-219.0V-386.0H0.0V-265.0H-98.0V-121.0H0.0ZM31.0 0.0V-121.0H123.0V-265.0H31.0V-386.0H246.0V0.0ZM-621.0 233.0V-336.0H-514.0V117.0H-263.0V233.0ZM-559.0 -225.0V-336.0H-323.0V-225.0ZM-544.0 -73.0V-181.0H-276.0V-73.0ZM-544.0 78.0V-30.0H-276.0V78.0ZM-454.0 164.0V-286.0H-348.0V164.0ZM0.0 -333.0H-117.0V-585.0H0.0ZM0.0 178.0H-117.0V-70.0H0.0ZM31.0 -335.0V-578.0H147.0V-335.0ZM31.0 177.0V-66.0H148.0V177.0ZM-357.0 -225.0V-245.0C-364.0 -459.0 -375.0 -539.0 -388.0 -558.0C-396.0 -569.0 -403.0 -571.0 -414.0 -571.0C-428.0 -571.0 -449.0 -571.0 -476.0 -568.0C-459.0 -599.0 -448.0 -648.0 -447.0 -683.0C-411.0 -684.0 -377.0 -684.0 -357.0 -679.0C-331.0 -674.0 -312.0 -665.0 -294.0 -638.0C-269.0 -605.0 -257.0 -508.0 -248.0 -273.0C-247.0 -258.0 -246.0 -225.0 -246.0 -225.0Z"/></g>
<g fill="red" transform="translate(100 200) scale(0.1 -0.1)"><path d="M0.0 0.0H-160.0V-300.0H0.0V-270.0H-130.0V-29.0H0.0ZM120.0 0.0V-29.0H250.0V-270.0H120.0V-300.0H279.0V0.0ZM-548.0 251.0V-243.0H-518.0V222.0H-237.0V251.0ZM-533.0 -213.0V-243.0H-254.0V-213.0ZM-531.0 -59.0V-88.0H-252.0V-59.0ZM-531.0 99.0V70.0H-257.0V99.0ZM-398.0 234.0V-221.0H-367.0V234.0ZM0.0 -270.0H-29.0V-557.0H0.0ZM0.0 228.0H-29.0V-15.0H0.0ZM120.0 -280.0V-558.0H149.0V-280.0ZM120.0 224.0V-14.0H149.0V224.0ZM-264.0 -213.0V-221.0C-275.0 -458.0 -289.0 -545.0 -307.0 -565.0C-313.0 -574.0 -319.0 -575.0 -332.0 -575.0C-345.0 -575.0 -374.0 -574.0 -409.0 -571.0C-404.0 -580.0 -401.0 -592.0 -401.0 -600.0C-372.0 -602.0 -344.0 -603.0 -327.0 -602.0C-307.0 -602.0 -294.0 -598.0 -281.0 -584.0C-259.0 -557.0 -247.0 -479.0 -235.0 -233.0C-234.0 -227.0 -234.0 -213.0 -234.0 -213.0Z"/></g>
<g fill="black" opacity=".8" transform="translate(100 200) scale(0.1 -0.1)"><path d="M0.0 0.0H-160.0V-300.0H0.0V-270.0H-130.0V-29.0H0.0ZM120.0 0.0V-29.0H250.0V-270.0H120.0V-300.0H279.0V0.0ZM-548.0 251.0V-243.0H-518.0V222.0H-237.0V251.0ZM-533.0 -213.0V-243.0H-254.0V-213.0ZM-531.0 -59.0V-88.0H-252.0V-59.0ZM-531.0 99.0V70.0H-257.0V99.0ZM-398.0 234.0V-221.0H-367.0V234.0ZM0.0 -270.0H-29.0V-557.0H0.0ZM0.0 228.0H-29.0V-15.0H0.0ZM120.0 -280.0V-558.0H149.0V-280.0ZM120.0 224.0V-14.0H149.0V224.0ZM-264.0 -213.0V-221.0C-275.0 -458.0 -289.0 -545.0 -307.0 -565.0C-313.0 -574.0 -319.0 -575.0 -332.0 -575.0C-345.0 -575.0 -374.0 -574.0 -409.0 -571.0C-404.0 -580.0 -401.0 -592.0 -401.0 -600.0C-372.0 -602.0 -344.0 -603.0 -327.0 -602.0C-307.0 -602.0 -294.0 -598.0 -281.0 -584.0C-259.0 -557.0 -247.0 -479.0 -235.0 -233.0C-234.0 -227.0 -234.0 -213.0 -234.0 -213.0Z"/></g>
<g fill="red" transform="translate(200 200) scale(0.1 -0.1)"><path d="M0.0 0.0H-219.0V-386.0H0.0V-265.0H-98.0V-121.0H0.0ZM31.0 0.0V-121.0H123.0V-265.0H31.0V-386.0H246.0V0.0ZM-621.0 233.0V-336.0H-514.0V117.0H-263.0V233.0ZM-559.0 -225.0V-336.0H-323.0V-225.0ZM-544.0 -73.0V-181.0H-276.0V-73.0ZM-544.0 78.0V-30.0H-276.0V78.0ZM-454.0 164.0V-286.0H-348.0V164.0ZM0.0 -333.0H-117.0V-585.0H0.0ZM0.0 178.0H-117.0V-70.0H0.0ZM31.0 -335.0V-578.0H147.0V-335.0ZM31.0 177.0V-66.0H148.0V177.0ZM-357.0 -225.0V-245.0C-364.0 -459.0 -375.0 -539.0 -388.0 -558.0C-396.0 -569.0 -403.0 -571.0 -414.0 -571.0C-428.0 -571.0 -449.0 -571.0 -476.0 -568.0C-459.0 -599.0 -448.0 -648.0 -447.0 -683.0C-411.0 -684.0 -377.0 -684.0 -357.0 -679.0C-331.0 -674.0 -312.0 -665.0 -294.0 -638.0C-269.0 -605.0 -257.0 -508.0 -248.0 -273.0C-247.0 -258.0 -246.0 -225.0 -246.0 -225.0Z"/></g>
<g fill="black" opacity=".8" transform="translate(200 200) scale(0.1 -0.1)"><path d="M0.0 0.0H-219.0V-386.0H0.0V-265.0H-98.0V-121.0H0.0ZM31.0 0.0V-121.0H123.0V-265.0H31.0V-386.0H246.0V0.0ZM-621.0 233.0V-336.0H-514.0V117.0H-263.0V233.0ZM-559.0 -225.0V-336.0H-323.0V-225.0ZM-544.0 -73.0V-181.0H-276.0V-73.0ZM-544.0 78.0V-30.0H-276.0V78.0ZM-454.0 164.0V-286.0H-348.0V164.0ZM0.0 -333.0H-117.0V-585.0H0.0ZM0.0 178.0H-117.0V-70.0H0.0ZM31.0 -335.0V-578.0H147.0V-335.0ZM31.0 177.0V-66.0H148.0V177.0ZM-357.0 -225.0V-245.0C-364.0 -459.0 -375.0 -539.0 -388.0 -558.0C-396.0 -569.0 -403.0 -571.0 -414.0 -571.0C-428.0 -571.0 -449.0 -571.0 -476.0 -568.0C-459.0 -599.0 -448.0 -648.0 -447.0 -683.0C-411.0 -684.0 -377.0 -684.0 -357.0 -679.0C-331.0 -674.0 -312.0 -665.0 -294.0 -638.0C-269.0 -605.0 -257.0 -508.0 -248.0 -273.0C-247.0 -258.0 -246.0 -225.0 -246.0 -225.0Z"/></g>
</svg>
