<?xml version="1.0" encoding="UTF-8"?>
<svg width="1700" height="300" xmlns="http://www.w3.org/2000/svg">
<rect width="100%" height="100%" fill="white"/>
<g fill="green" transform="translate(100 100) scale(0.1 -0.1)"><path d="M0.0 0.0V-29.0H270.0V0.0ZM96.0 58.0V-70.0H125.0V58.0ZM-628.0 -639.0 -612.0 -666.0C-534.0 -636.0 -432.0 -593.0 -335.0 -552.0L-341.0 -526.0C-447.0 -568.0 -555.0 -612.0 -628.0 -639.0Z"/></g>
<g fill="green" transform="translate(200 100) scale(0.1 -0.1)"><path d="M0.0 0.0V-102.0H296.0V0.0ZM64.0 39.0V-124.0H194.0V39.0ZM-643.0 -628.0 -600.0 -754.0C-513.0 -712.0 -406.0 -660.0 -308.0 -610.0L-341.0 -495.0C-450.0 -546.0 -567.0 -599.0 -643.0 -628.0Z"/></g>
<g fill="green" transform="translate(300 100) scale(0.1 -0.1)"><path d="M0.0 0.0V-29.0H270.0V0.0ZM96.0 58.0V-70.0H125.0V58.0ZM-628.0 -639.0 -612.0 -666.0C-534.0 -636.0 -432.0 -593.0 -335.0 -552.0L-341.0 -526.0C-447.0 -568.0 -555.0 -612.0 -628.0 -639.0Z"/></g>
<g fill="green" transform="translate(400 100) scale(0.1 -0.1)"><path d="M0.0 0.0V-102.0H296.0V0.0ZM64.0 39.0V-124.0H194.0V39.0ZM-643.0 -628.0 -600.0 -754.0C-513.0 -712.0 -406.0 -660.0 -308.0 -610.0L-341.0 -495.0C-450.0 -546.0 -567.0 -599.0 -643.0 -628.0Z"/></g>
<g fill="red" transform="translate(100 200) scale(0.1 -0.1)"><path d="M0.0 0.0V-29.0H270.0V0.0ZM96.0 58.0V-70.0H125.0V58.0ZM-628.0 -639.0 -612.0 -666.0C-534.0 -636.0 -432.0 -593.0 -335.0 -552.0L-341.0 -526.0C-447.0 -568.0 -555.0 -612.0 -628.0 -639.0Z"/></g>
<g fill="black" opacity=".8" transform="translate(100 200) scale(0.1 -0.1)"><path d="M0.0 0.0V-29.0H270.0V0.0ZM96.0 58.0V-70.0H125.0V58.0ZM-628.0 -639.0 -612.0 -666.0C-534.0 -636.0 -432.0 -593.0 -335.0 -552.0L-341.0 -526.0C-447.0 -568.0 -555.0 -612.0 -628.0 -639.0Z"/></g>
<g fill="red" transform="translate(200 200) scale(0.1 -0.1)"><path d="M0.0 0.0V-102.0H296.0V0.0ZM64.0 39.0V-124.0H194.0V39.0ZM-643.0 -628.0 -600.0 -754.0C-513.0 -712.0 -406.0 -660.0 -308.0 -610.0L-341.0 -495.0C-450.0 -546.0 -567.0 -599.0 -643.0 -628.0Z"/></g>
<g fill="black" opacity=".8" transform="translate(200 200) scale(0.1 -0.1)"><path d="M0.0 0.0V-102.0H296.0V0.0ZM64.0 39.0V-124.0H194.0V39.0ZM-643.0 -628.0 -600.0 -754.0C-513.0 -712.0 -406.0 -660.0 -308.0 -610.0L-341.0 -495.0C-450.0 -546.0 -567.0 -599.0 -643.0 -628.0Z"/></g>
</svg>
