<?xml version="1.0" encoding="UTF-8"?>
<svg width="1700" height="300" xmlns="http://www.w3.org/2000/svg">
<rect width="100%" height="100%" fill="white"/>
<g fill="green" transform="translate(100 100) scale(0.1 -0.1)"><path d="M0.0 0.0V-213.0H29.0V28.0V29.0ZM-160.0 -242.0V-533.0H-131.0V-242.0ZM-141.0 -314.0V-343.0H390.0V-314.0ZM15.0 47.0V17.0H469.0V47.0ZM18.0 -93.0V-123.0H449.0V-93.0ZM18.0 -23.0V-52.0H449.0V-23.0ZM455.0 -519.0V-525.0C444.0 -605.0 432.0 -638.0 418.0 -649.0C412.0 -655.0 404.0 -656.0 393.0 -656.0C381.0 -656.0 350.0 -656.0 317.0 -652.0C321.0 -661.0 324.0 -673.0 325.0 -680.0C353.0 -683.0 383.0 -683.0 396.0 -683.0C416.0 -682.0 427.0 -679.0 438.0 -671.0C457.0 -656.0 469.0 -621.0 483.0 -537.0C485.0 -530.0 486.0 -519.0 486.0 -519.0ZM92.0 -186.0C84.0 -205.0 67.0 -235.0 55.0 -255.0L79.0 -266.0C92.0 -247.0 105.0 -225.0 120.0 -199.0Z"/></g>
<g fill="green" transform="translate(200 100) scale(0.1 -0.1)"><path d="M0.0 0.0V-168.0H109.0V60.0L72.0 72.0ZM-171.0 -202.0V-513.0H-43.0V-202.0ZM-85.0 -269.0V-310.0H321.0V-269.0ZM109.0 80.0V31.0H479.0V80.0ZM83.0 -49.0V-90.0H453.0V-49.0ZM83.0 11.0V-30.0H453.0V11.0ZM353.0 -476.0V-490.0C350.0 -547.0 345.0 -572.0 338.0 -582.0C331.0 -588.0 326.0 -589.0 318.0 -589.0C308.0 -590.0 291.0 -589.0 270.0 -586.0C281.0 -606.0 292.0 -638.0 293.0 -658.0C335.0 -661.0 374.0 -661.0 395.0 -659.0C417.0 -658.0 443.0 -651.0 460.0 -633.0C478.0 -613.0 487.0 -579.0 492.0 -510.0C493.0 -498.0 493.0 -476.0 493.0 -476.0ZM68.0 -161.0C57.0 -176.0 37.0 -197.0 20.0 -217.0L122.0 -236.0C142.0 -221.0 170.0 -204.0 198.0 -177.0Z"/></g>
<g fill="green" transform="translate(300 100) scale(0.1 -0.1)"><path d="M0.0 0.0V-213.0H29.0V28.0V29.0ZM-160.0 -242.0V-533.0H-131.0V-242.0ZM-141.0 -314.0V-343.0H390.0V-314.0ZM15.0 47.0V17.0H469.0V47.0ZM18.0 -93.0V-123.0H449.0V-93.0ZM18.0 -23.0V-52.0H449.0V-23.0ZM455.0 -519.0V-525.0C444.0 -605.0 432.0 -638.0 418.0 -649.0C412.0 -655.0 404.0 -656.0 393.0 -656.0C381.0 -656.0 350.0 -656.0 317.0 -652.0C321.0 -661.0 324.0 -673.0 325.0 -680.0C353.0 -683.0 383.0 -683.0 396.0 -683.0C416.0 -682.0 427.0 -679.0 438.0 -671.0C457.0 -656.0 469.0 -621.0 483.0 -537.0C485.0 -530.0 486.0 -519.0 486.0 -519.0ZM92.0 -186.0C84.0 -205.0 67.0 -235.0 55.0 -255.0L79.0 -266.0C92.0 -247.0 105.0 -225.0 120.0 -199.0Z"/></g>
<g fill="green" transform="translate(400 100) scale(0.1 -0.1)"><path d="M0.0 0.0V-168.0H109.0V60.0L72.0 72.0ZM-171.0 -202.0V-513.0H-43.0V-202.0ZM-85.0 -269.0V-310.0H321.0V-269.0ZM109.0 80.0V31.0H479.0V80.0ZM83.0 -49.0V-90.0H453.0V-49.0ZM83.0 11.0V-30.0H453.0V11.0ZM353.0 -476.0V-490.0C350.0 -547.0 345.0 -572.0 338.0 -582.0C331.0 -588.0 326.0 -589.0 318.0 -589.0C308.0 -590.0 291.0 -589.0 270.0 -586.0C281.0 -606.0 292.0 -638.0 293.0 -658.0C335.0 -661.0 374.0 -661.0 395.0 -659.0C417.0 -658.0 443.0 -651.0 460.0 -633.0C478.0 -613.0 487.0 -579.0 492.0 -510.0C493.0 -498.0 493.0 -476.0 493.0 -476.0ZM68.0 -161.0C57.0 -176.0 37.0 -197.0 20.0 -217.0L122.0 -236.0C142.0 -221.0 170.0 -204.0 198.0 -177.0Z"/></g>
<g fill="red" transform="translate(100 200) scale(0.1 -0.1)"><path d="M0.0 0.0V-213.0H29.0V28.0V29.0ZM-160.0 -242.0V-533.0H-131.0V-242.0ZM-141.0 -314.0V-343.0H390.0V-314.0ZM15.0 47.0V17.0H469.0V47.0ZM18.0 -93.0V-123.0H449.0V-93.0ZM18.0 -23.0V-52.0H449.0V-23.0ZM455.0 -519.0V-525.0C444.0 -605.0 432.0 -638.0 418.0 -649.0C412.0 -655.0 404.0 -656.0 393.0 -656.0C381.0 -656.0 350.0 -656.0 317.0 -652.0C321.0 -661.0 324.0 -673.0 325.0 -680.0C353.0 -683.0 383.0 -683.0 396.0 -683.0C416.0 -682.0 427.0 -679.0 438.0 -671.0C457.0 -656.0 469.0 -621.0 483.0 -537.0C485.0 -530.0 486.0 -519.0 486.0 -519.0ZM92.0 -186.0C84.0 -205.0 67.0 -235.0 55.0 -255.0L79.0 -266.0C92.0 -247.0 105.0 -225.0 120.0 -199.0Z"/></g>
<g fill="black" opacity=".8" transform="translate(100 200) scale(0.1 -0.1)"><path d="M0.0 0.0V-213.0H29.0V28.0V29.0ZM-160.0 -242.0V-533.0H-131.0V-242.0ZM-141.0 -314.0V-343.0H390.0V-314.0ZM15.0 47.0V17.0H469.0V47.0ZM18.0 -93.0V-123.0H449.0V-93.0ZM18.0 -23.0V-52.0H449.0V-23.0ZM455.0 -519.0V-525.0C444.0 -605.0 432.0 -638.0 418.0 -649.0C412.0 -655.0 404.0 -656.0 393.0 -656.0C381.0 -656.0 350.0 -656.0 317.0 -652.0C321.0 -661.0 324.0 -673.0 325.0 -680.0C353.0 -683.0 383.0 -683.0 396.0 -683.0C416.0 -682.0 427.0 -679.0 438.0 -671.0C457.0 -656.0 469.0 -621.0 483.0 -537.0C485.0 -530.0 486.0 -519.0 486.0 -519.0ZM92.0 -186.0C84.0 -205.0 67.0 -235.0 55.0 -255.0L79.0 -266.0C92.0 -247.0 105.0 -225.0 120.0 -199.0Z"/></g>
<g fill="red" transform="translate(200 200) scale(0.1 -0.1)"><path d="M0.0 0.0V-168.0H109.0V60.0L72.0 72.0ZM-171.0 -202.0V-513.0H-43.0V-202.0ZM-85.0 -269.0V-310.0H321.0V-269.0ZM109.0 80.0V31.0H479.0V80.0ZM83.0 -49.0V-90.0H453.0V-49.0ZM83.0 11.0V-30.0H453.0V11.0ZM353.0 -476.0V-490.0C350.0 -547.0 345.0 -572.0 338.0 -582.0C331.0 -588.0 326.0 -589.0 318.0 -589.0C308.0 -590.0 291.0 -589.0 270.0 -586.0C281.0 -606.0 292.0 -638.0 293.0 -658.0C335.0 -661.0 374.0 -661.0 395.0 -659.0C417.0 -658.0 443.0 -651.0 460.0 -633.0C478.0 -613.0 487.0 -579.0 492.0 -510.0C493.0 -498.0 493.0 -476.0 493.0 -476.0ZM68.0 -161.0C57.0 -176.0 37.0 -197.0 20.0 -217.0L122.0 -236.0C142.0 -221.0 170.0 -204.0 198.0 -177.0Z"/></g>
<g fill="black" opacity=".8" transform="translate(200 200) scale(0.1 -0.1)"><path d="M0.0 0.0V-168.0H109.0V60.0L72.0 72.0ZM-171.0 -202.0V-513.0H-43.0V-202.0ZM-85.0 -269.0V-310.0H321.0V-269.0ZM109.0 80.0V31.0H479.0V80.0ZM83.0 -49.0V-90.0H453.0V-49.0ZM83.0 11.0V-30.0H453.0V11.0ZM353.0 -476.0V-490.0C350.0 -547.0 345.0 -572.0 338.0 -582.0C331.0 -588.0 326.0 -589.0 318.0 -589.0C308.0 -590.0 291.0 -589.0 270.0 -586.0C281.0 -606.0 292.0 -638.0 293.0 -658.0C335.0 -661.0 374.0 -661.0 395.0 -659.0C417.0 -658.0 443.0 -651.0 460.0 -633.0C478.0 -613.0 487.0 -579.0 492.0 -510.0C493.0 -498.0 493.0 -476.0 493.0 -476.0ZM68.0 -161.0C57.0 -176.0 37.0 -197.0 20.0 -217.0L122.0 -236.0C142.0 -221.0 170.0 -204.0 198.0 -177.0Z"/></g>
</svg>
