<?xml version="1.0" encoding="UTF-8"?>
<svg width="1700" height="300" xmlns="http://www.w3.org/2000/svg">
<rect width="100%" height="100%" fill="white"/>
<g fill="green" transform="translate(100 100) scale(0.1 -0.1)"><path d="M0.0 0.0V-29.0H283.0V0.0ZM315.0 2.0V-27.0H620.0V2.0ZM523.0 -254.0V-262.0C449.0 -386.0 293.0 -540.0 150.0 -622.0C157.0 -627.0 165.0 -635.0 169.0 -641.0C315.0 -555.0 473.0 -403.0 559.0 -265.0L537.0 -252.0L530.0 -254.0ZM129.0 -599.0C86.0 -599.0 39.0 -664.0 -20.0 -758.0L5.0 -778.0C57.0 -688.0 100.0 -626.0 129.0 -626.0C149.0 -626.0 174.0 -665.0 208.0 -699.0C260.0 -750.0 316.0 -769.0 412.0 -769.0C458.0 -769.0 588.0 -766.0 637.0 -762.0C638.0 -752.0 642.0 -737.0 646.0 -731.0C581.0 -736.0 484.0 -739.0 412.0 -739.0C324.0 -739.0 273.0 -725.0 225.0 -680.0C181.0 -638.0 163.0 -599.0 129.0 -599.0Z"/></g>
<g fill="green" transform="translate(200 100) scale(0.1 -0.1)"><path d="M0.0 0.0V-127.0H316.0V0.0ZM339.0 2.0V-125.0H668.0V2.0ZM513.0 -303.0V-333.0C446.0 -440.0 276.0 -579.0 109.0 -654.0C136.0 -678.0 175.0 -720.0 194.0 -749.0C377.0 -662.0 560.0 -513.0 671.0 -363.0L572.0 -296.0L545.0 -303.0ZM157.0 -625.0C109.0 -625.0 39.0 -669.0 -24.0 -738.0L76.0 -885.0C97.0 -833.0 129.0 -758.0 154.0 -758.0C174.0 -758.0 208.0 -788.0 250.0 -812.0C313.0 -849.0 377.0 -867.0 469.0 -867.0C532.0 -867.0 617.0 -863.0 661.0 -859.0C662.0 -821.0 681.0 -746.0 695.0 -708.0C630.0 -718.0 532.0 -724.0 473.0 -724.0C389.0 -724.0 322.0 -713.0 267.0 -680.0C220.0 -654.0 190.0 -625.0 157.0 -625.0Z"/></g>
<g fill="green" transform="translate(300 100) scale(0.1 -0.1)"><path d="M0.0 0.0V-29.0H283.0V0.0ZM315.0 2.0V-27.0H620.0V2.0ZM523.0 -254.0V-262.0C449.0 -386.0 293.0 -540.0 150.0 -622.0C157.0 -627.0 165.0 -635.0 169.0 -641.0C315.0 -555.0 473.0 -403.0 559.0 -265.0L537.0 -252.0L530.0 -254.0ZM129.0 -599.0C86.0 -599.0 39.0 -664.0 -20.0 -758.0L5.0 -778.0C57.0 -688.0 100.0 -626.0 129.0 -626.0C149.0 -626.0 174.0 -665.0 208.0 -699.0C260.0 -750.0 316.0 -769.0 412.0 -769.0C458.0 -769.0 588.0 -766.0 637.0 -762.0C638.0 -752.0 642.0 -737.0 646.0 -731.0C581.0 -736.0 484.0 -739.0 412.0 -739.0C324.0 -739.0 273.0 -725.0 225.0 -680.0C181.0 -638.0 163.0 -599.0 129.0 -599.0Z"/></g>
<g fill="green" transform="translate(400 100) scale(0.1 -0.1)"><path d="M0.0 0.0V-127.0H316.0V0.0ZM339.0 2.0V-125.0H668.0V2.0ZM513.0 -303.0V-333.0C446.0 -440.0 276.0 -579.0 109.0 -654.0C136.0 -678.0 175.0 -720.0 194.0 -749.0C377.0 -662.0 560.0 -513.0 671.0 -363.0L572.0 -296.0L545.0 -303.0ZM157.0 -625.0C109.0 -625.0 39.0 -669.0 -24.0 -738.0L76.0 -885.0C97.0 -833.0 129.0 -758.0 154.0 -758.0C174.0 -758.0 208.0 -788.0 250.0 -812.0C313.0 -849.0 377.0 -867.0 469.0 -867.0C532.0 -867.0 617.0 -863.0 661.0 -859.0C662.0 -821.0 681.0 -746.0 695.0 -708.0C630.0 -718.0 532.0 -724.0 473.0 -724.0C389.0 -724.0 322.0 -713.0 267.0 -680.0C220.0 -654.0 190.0 -625.0 157.0 -625.0Z"/></g>
<g fill="red" transform="translate(100 200) scale(0.1 -0.1)"><path d="M0.0 0.0V-29.0H283.0V0.0ZM315.0 2.0V-27.0H620.0V2.0ZM523.0 -254.0V-262.0C449.0 -386.0 293.0 -540.0 150.0 -622.0C157.0 -627.0 165.0 -635.0 169.0 -641.0C315.0 -555.0 473.0 -403.0 559.0 -265.0L537.0 -252.0L530.0 -254.0ZM129.0 -599.0C86.0 -599.0 39.0 -664.0 -20.0 -758.0L5.0 -778.0C57.0 -688.0 100.0 -626.0 129.0 -626.0C149.0 -626.0 174.0 -665.0 208.0 -699.0C260.0 -750.0 316.0 -769.0 412.0 -769.0C458.0 -769.0 588.0 -766.0 637.0 -762.0C638.0 -752.0 642.0 -737.0 646.0 -731.0C581.0 -736.0 484.0 -739.0 412.0 -739.0C324.0 -739.0 273.0 -725.0 225.0 -680.0C181.0 -638.0 163.0 -599.0 129.0 -599.0Z"/></g>
<g fill="black" opacity=".8" transform="translate(100 200) scale(0.1 -0.1)"><path d="M0.0 0.0V-29.0H283.0V0.0ZM315.0 2.0V-27.0H620.0V2.0ZM523.0 -254.0V-262.0C449.0 -386.0 293.0 -540.0 150.0 -622.0C157.0 -627.0 165.0 -635.0 169.0 -641.0C315.0 -555.0 473.0 -403.0 559.0 -265.0L537.0 -252.0L530.0 -254.0ZM129.0 -599.0C86.0 -599.0 39.0 -664.0 -20.0 -758.0L5.0 -778.0C57.0 -688.0 100.0 -626.0 129.0 -626.0C149.0 -626.0 174.0 -665.0 208.0 -699.0C260.0 -750.0 316.0 -769.0 412.0 -769.0C458.0 -769.0 588.0 -766.0 637.0 -762.0C638.0 -752.0 642.0 -737.0 646.0 -731.0C581.0 -736.0 484.0 -739.0 412.0 -739.0C324.0 -739.0 273.0 -725.0 225.0 -680.0C181.0 -638.0 163.0 -599.0 129.0 -599.0Z"/></g>
<g fill="red" transform="translate(200 200) scale(0.1 -0.1)"><path d="M0.0 0.0V-127.0H316.0V0.0ZM339.0 2.0V-125.0H668.0V2.0ZM513.0 -303.0V-333.0C446.0 -440.0 276.0 -579.0 109.0 -654.0C136.0 -678.0 175.0 -720.0 194.0 -749.0C377.0 -662.0 560.0 -513.0 671.0 -363.0L572.0 -296.0L545.0 -303.0ZM157.0 -625.0C109.0 -625.0 39.0 -669.0 -24.0 -738.0L76.0 -885.0C97.0 -833.0 129.0 -758.0 154.0 -758.0C174.0 -758.0 208.0 -788.0 250.0 -812.0C313.0 -849.0 377.0 -867.0 469.0 -867.0C532.0 -867.0 617.0 -863.0 661.0 -859.0C662.0 -821.0 681.0 -746.0 695.0 -708.0C630.0 -718.0 532.0 -724.0 473.0 -724.0C389.0 -724.0 322.0 -713.0 267.0 -680.0C220.0 -654.0 190.0 -625.0 157.0 -625.0Z"/></g>
<g fill="black" opacity=".8" transform="translate(200 200) scale(0.1 -0.1)"><path d="M0.0 0.0V-127.0H316.0V0.0ZM339.0 2.0V-125.0H668.0V2.0ZM513.0 -303.0V-333.0C446.0 -440.0 276.0 -579.0 109.0 -654.0C136.0 -678.0 175.0 -720.0 194.0 -749.0C377.0 -662.0 560.0 -513.0 671.0 -363.0L572.0 -296.0L545.0 -303.0ZM157.0 -625.0C109.0 -625.0 39.0 -669.0 -24.0 -738.0L76.0 -885.0C97.0 -833.0 129.0 -758.0 154.0 -758.0C174.0 -758.0 208.0 -788.0 250.0 -812.0C313.0 -849.0 377.0 -867.0 469.0 -867.0C532.0 -867.0 617.0 -863.0 661.0 -859.0C662.0 -821.0 681.0 -746.0 695.0 -708.0C630.0 -718.0 532.0 -724.0 473.0 -724.0C389.0 -724.0 322.0 -713.0 267.0 -680.0C220.0 -654.0 190.0 -625.0 157.0 -625.0Z"/></g>
</svg>
