<?xml version="1.0" encoding="UTF-8"?>
<svg width="1700" height="300" xmlns="http://www.w3.org/2000/svg">
<rect width="100%" height="100%" fill="white"/>
<g fill="green" transform="translate(100 100) scale(0.1 -0.1)"><path d="M0.0 0.0V-123.0H30.0V0.0ZM-80.0 -123.0V-156.0C-80.0 -245.0 -92.0 -371.0 -255.0 -465.0C-249.0 -470.0 -239.0 -479.0 -234.0 -486.0C-65.0 -386.0 -51.0 -256.0 -51.0 -156.0V-123.0ZM136.0 -124.0V-404.0C136.0 -415.0 133.0 -419.0 118.0 -420.0C103.0 -421.0 54.0 -421.0 -9.0 -419.0C-6.0 -429.0 -2.0 -439.0 -1.0 -448.0C72.0 -448.0 119.0 -448.0 139.0 -443.0C160.0 -437.0 165.0 -427.0 165.0 -404.0V-124.0ZM-241.0 -213.0C-276.0 -279.0 -355.0 -352.0 -430.0 -396.0C-423.0 -401.0 -413.0 -410.0 -408.0 -416.0C-332.0 -369.0 -253.0 -294.0 -210.0 -222.0Z"/></g>
<g fill="green" transform="translate(200 100) scale(0.1 -0.1)"><path d="M0.0 0.0V-135.0H150.0V0.0ZM-66.0 -114.0V-202.0C-66.0 -278.0 -81.0 -373.0 -197.0 -442.0C-164.0 -464.0 -113.0 -511.0 -91.0 -541.0C51.0 -450.0 69.0 -313.0 69.0 -206.0V-114.0ZM133.0 -133.0V-366.0C133.0 -376.0 130.0 -378.0 119.0 -378.0C108.0 -378.0 72.0 -378.0 45.0 -377.0C62.0 -413.0 80.0 -466.0 85.0 -504.0C142.0 -504.0 188.0 -503.0 226.0 -483.0C266.0 -463.0 274.0 -429.0 274.0 -370.0V-133.0ZM-256.0 -235.0C-280.0 -293.0 -333.0 -361.0 -393.0 -400.0C-365.0 -419.0 -319.0 -457.0 -293.0 -483.0C-225.0 -434.0 -162.0 -352.0 -121.0 -271.0Z"/></g>
<g fill="green" transform="translate(300 100) scale(0.1 -0.1)"><path d="M0.0 0.0V-123.0H30.0V0.0ZM-80.0 -123.0V-156.0C-80.0 -245.0 -92.0 -371.0 -255.0 -465.0C-249.0 -470.0 -239.0 -479.0 -234.0 -486.0C-65.0 -386.0 -51.0 -256.0 -51.0 -156.0V-123.0ZM136.0 -124.0V-404.0C136.0 -415.0 133.0 -419.0 118.0 -420.0C103.0 -421.0 54.0 -421.0 -9.0 -419.0C-6.0 -429.0 -2.0 -439.0 -1.0 -448.0C72.0 -448.0 119.0 -448.0 139.0 -443.0C160.0 -437.0 165.0 -427.0 165.0 -404.0V-124.0ZM-241.0 -213.0C-276.0 -279.0 -355.0 -352.0 -430.0 -396.0C-423.0 -401.0 -413.0 -410.0 -408.0 -416.0C-332.0 -369.0 -253.0 -294.0 -210.0 -222.0Z"/></g>
<g fill="green" transform="translate(400 100) scale(0.1 -0.1)"><path d="M0.0 0.0V-135.0H150.0V0.0ZM-66.0 -114.0V-202.0C-66.0 -278.0 -81.0 -373.0 -197.0 -442.0C-164.0 -464.0 -113.0 -511.0 -91.0 -541.0C51.0 -450.0 69.0 -313.0 69.0 -206.0V-114.0ZM133.0 -133.0V-366.0C133.0 -376.0 130.0 -378.0 119.0 -378.0C108.0 -378.0 72.0 -378.0 45.0 -377.0C62.0 -413.0 80.0 -466.0 85.0 -504.0C142.0 -504.0 188.0 -503.0 226.0 -483.0C266.0 -463.0 274.0 -429.0 274.0 -370.0V-133.0ZM-256.0 -235.0C-280.0 -293.0 -333.0 -361.0 -393.0 -400.0C-365.0 -419.0 -319.0 -457.0 -293.0 -483.0C-225.0 -434.0 -162.0 -352.0 -121.0 -271.0Z"/></g>
<g fill="red" transform="translate(100 200) scale(0.1 -0.1)"><path d="M0.0 0.0V-123.0H30.0V0.0ZM-80.0 -123.0V-156.0C-80.0 -245.0 -92.0 -371.0 -255.0 -465.0C-249.0 -470.0 -239.0 -479.0 -234.0 -486.0C-65.0 -386.0 -51.0 -256.0 -51.0 -156.0V-123.0ZM136.0 -124.0V-404.0C136.0 -415.0 133.0 -419.0 118.0 -420.0C103.0 -421.0 54.0 -421.0 -9.0 -419.0C-6.0 -429.0 -2.0 -439.0 -1.0 -448.0C72.0 -448.0 119.0 -448.0 139.0 -443.0C160.0 -437.0 165.0 -427.0 165.0 -404.0V-124.0ZM-241.0 -213.0C-276.0 -279.0 -355.0 -352.0 -430.0 -396.0C-423.0 -401.0 -413.0 -410.0 -408.0 -416.0C-332.0 -369.0 -253.0 -294.0 -210.0 -222.0Z"/></g>
<g fill="black" opacity=".8" transform="translate(100 200) scale(0.1 -0.1)"><path d="M0.0 0.0V-123.0H30.0V0.0ZM-80.0 -123.0V-156.0C-80.0 -245.0 -92.0 -371.0 -255.0 -465.0C-249.0 -470.0 -239.0 -479.0 -234.0 -486.0C-65.0 -386.0 -51.0 -256.0 -51.0 -156.0V-123.0ZM136.0 -124.0V-404.0C136.0 -415.0 133.0 -419.0 118.0 -420.0C103.0 -421.0 54.0 -421.0 -9.0 -419.0C-6.0 -429.0 -2.0 -439.0 -1.0 -448.0C72.0 -448.0 119.0 -448.0 139.0 -443.0C160.0 -437.0 165.0 -427.0 165.0 -404.0V-124.0ZM-241.0 -213.0C-276.0 -279.0 -355.0 -352.0 -430.0 -396.0C-423.0 -401.0 -413.0 -410.0 -408.0 -416.0C-332.0 -369.0 -253.0 -294.0 -210.0 -222.0Z"/></g>
<g fill="red" transform="translate(200 200) scale(0.1 -0.1)"><path d="M0.0 0.0V-135.0H150.0V0.0ZM-66.0 -114.0V-202.0C-66.0 -278.0 -81.0 -373.0 -197.0 -442.0C-164.0 -464.0 -113.0 -511.0 -91.0 -541.0C51.0 -450.0 69.0 -313.0 69.0 -206.0V-114.0ZM133.0 -133.0V-366.0C133.0 -376.0 130.0 -378.0 119.0 -378.0C108.0 -378.0 72.0 -378.0 45.0 -377.0C62.0 -413.0 80.0 -466.0 85.0 -504.0C142.0 -504.0 188.0 -503.0 226.0 -483.0C266.0 -463.0 274.0 -429.0 274.0 -370.0V-133.0ZM-256.0 -235.0C-280.0 -293.0 -333.0 -361.0 -393.0 -400.0C-365.0 -419.0 -319.0 -457.0 -293.0 -483.0C-225.0 -434.0 -162.0 -352.0 -121.0 -271.0Z"/></g>
<g fill="black" opacity=".8" transform="translate(200 200) scale(0.1 -0.1)"><path d="M0.0 0.0V-135.0H150.0V0.0ZM-66.0 -114.0V-202.0C-66.0 -278.0 -81.0 -373.0 -197.0 -442.0C-164.0 -464.0 -113.0 -511.0 -91.0 -541.0C51.0 -450.0 69.0 -313.0 69.0 -206.0V-114.0ZM133.0 -133.0V-366.0C133.0 -376.0 130.0 -378.0 119.0 -378.0C108.0 -378.0 72.0 -378.0 45.0 -377.0C62.0 -413.0 80.0 -466.0 85.0 -504.0C142.0 -504.0 188.0 -503.0 226.0 -483.0C266.0 -463.0 274.0 -429.0 274.0 -370.0V-133.0ZM-256.0 -235.0C-280.0 -293.0 -333.0 -361.0 -393.0 -400.0C-365.0 -419.0 -319.0 -457.0 -293.0 -483.0C-225.0 -434.0 -162.0 -352.0 -121.0 -271.0Z"/></g>
</svg>
