<?xml version="1.0" encoding="UTF-8"?>
<svg width="1700" height="300" xmlns="http://www.w3.org/2000/svg">
<rect width="100%" height="100%" fill="white"/>
<g fill="green" transform="translate(100 100) scale(0.1 -0.1)"><path d="M0.0 0.0V-227.0H404.0V0.0ZM29.0 -29.0H374.0V-198.0H29.0ZM118.0 131.0V-6.0H148.0V131.0ZM255.0 -8.0V-219.0H284.0V-8.0ZM255.0 131.0V-6.0H284.0V131.0ZM474.0 -253.0V-282.0H876.0V-253.0ZM477.0 -20.0V-50.0H791.0V-20.0ZM830.0 -363.0V-370.0C820.0 -578.0 810.0 -653.0 794.0 -672.0C788.0 -680.0 780.0 -681.0 767.0 -681.0C754.0 -681.0 719.0 -680.0 681.0 -677.0C686.0 -685.0 689.0 -698.0 690.0 -705.0C721.0 -708.0 755.0 -708.0 772.0 -708.0C795.0 -707.0 806.0 -703.0 818.0 -691.0C839.0 -666.0 848.0 -597.0 858.0 -383.0C859.0 -376.0 859.0 -363.0 859.0 -363.0ZM608.0 194.0C600.0 166.0 581.0 121.0 566.0 92.0L591.0 82.0C605.0 108.0 622.0 146.0 638.0 181.0Z"/></g>
<g fill="green" transform="translate(200 100) scale(0.1 -0.1)"><path d="M0.0 0.0V-271.0H445.0V0.0ZM84.0 -102.0H357.0V-169.0H84.0ZM121.0 98.0V-64.0H211.0V98.0ZM242.0 -52.0V-232.0H322.0V-52.0ZM242.0 98.0V-64.0H335.0V98.0ZM524.0 -232.0V-330.0H939.0V-232.0ZM529.0 -3.0V-86.0H800.0V-3.0ZM813.0 -357.0V-374.0C809.0 -554.0 805.0 -620.0 793.0 -636.0C786.0 -645.0 778.0 -647.0 766.0 -647.0C752.0 -647.0 726.0 -647.0 695.0 -644.0C710.0 -670.0 722.0 -711.0 723.0 -740.0C763.0 -741.0 800.0 -741.0 823.0 -737.0C850.0 -733.0 871.0 -725.0 890.0 -702.0C911.0 -673.0 918.0 -595.0 923.0 -398.0C924.0 -385.0 924.0 -357.0 924.0 -357.0ZM595.0 210.0C592.0 171.0 583.0 117.0 574.0 77.0L683.0 59.0C698.0 94.0 719.0 144.0 737.0 197.0Z"/></g>
<g fill="green" transform="translate(300 100) scale(0.1 -0.1)"><path d="M0.0 0.0V-227.0H404.0V0.0ZM29.0 -29.0H374.0V-198.0H29.0ZM118.0 131.0V-6.0H148.0V131.0ZM255.0 -8.0V-219.0H284.0V-8.0ZM255.0 131.0V-6.0H284.0V131.0ZM474.0 -253.0V-282.0H876.0V-253.0ZM477.0 -20.0V-50.0H791.0V-20.0ZM830.0 -363.0V-370.0C820.0 -578.0 810.0 -653.0 794.0 -672.0C788.0 -680.0 780.0 -681.0 767.0 -681.0C754.0 -681.0 719.0 -680.0 681.0 -677.0C686.0 -685.0 689.0 -698.0 690.0 -705.0C721.0 -708.0 755.0 -708.0 772.0 -708.0C795.0 -707.0 806.0 -703.0 818.0 -691.0C839.0 -666.0 848.0 -597.0 858.0 -383.0C859.0 -376.0 859.0 -363.0 859.0 -363.0ZM608.0 194.0C600.0 166.0 581.0 121.0 566.0 92.0L591.0 82.0C605.0 108.0 622.0 146.0 638.0 181.0Z"/></g>
<g fill="green" transform="translate(400 100) scale(0.1 -0.1)"><path d="M0.0 0.0V-271.0H445.0V0.0ZM84.0 -102.0H357.0V-169.0H84.0ZM121.0 98.0V-64.0H211.0V98.0ZM242.0 -52.0V-232.0H322.0V-52.0ZM242.0 98.0V-64.0H335.0V98.0ZM524.0 -232.0V-330.0H939.0V-232.0ZM529.0 -3.0V-86.0H800.0V-3.0ZM813.0 -357.0V-374.0C809.0 -554.0 805.0 -620.0 793.0 -636.0C786.0 -645.0 778.0 -647.0 766.0 -647.0C752.0 -647.0 726.0 -647.0 695.0 -644.0C710.0 -670.0 722.0 -711.0 723.0 -740.0C763.0 -741.0 800.0 -741.0 823.0 -737.0C850.0 -733.0 871.0 -725.0 890.0 -702.0C911.0 -673.0 918.0 -595.0 923.0 -398.0C924.0 -385.0 924.0 -357.0 924.0 -357.0ZM595.0 210.0C592.0 171.0 583.0 117.0 574.0 77.0L683.0 59.0C698.0 94.0 719.0 144.0 737.0 197.0Z"/></g>
<g fill="red" transform="translate(100 200) scale(0.1 -0.1)"><path d="M0.0 0.0V-227.0H404.0V0.0ZM29.0 -29.0H374.0V-198.0H29.0ZM118.0 131.0V-6.0H148.0V131.0ZM255.0 -8.0V-219.0H284.0V-8.0ZM255.0 131.0V-6.0H284.0V131.0ZM474.0 -253.0V-282.0H876.0V-253.0ZM477.0 -20.0V-50.0H791.0V-20.0ZM830.0 -363.0V-370.0C820.0 -578.0 810.0 -653.0 794.0 -672.0C788.0 -680.0 780.0 -681.0 767.0 -681.0C754.0 -681.0 719.0 -680.0 681.0 -677.0C686.0 -685.0 689.0 -698.0 690.0 -705.0C721.0 -708.0 755.0 -708.0 772.0 -708.0C795.0 -707.0 806.0 -703.0 818.0 -691.0C839.0 -666.0 848.0 -597.0 858.0 -383.0C859.0 -376.0 859.0 -363.0 859.0 -363.0ZM608.0 194.0C600.0 166.0 581.0 121.0 566.0 92.0L591.0 82.0C605.0 108.0 622.0 146.0 638.0 181.0Z"/></g>
<g fill="black" opacity=".8" transform="translate(100 200) scale(0.1 -0.1)"><path d="M0.0 0.0V-227.0H404.0V0.0ZM29.0 -29.0H374.0V-198.0H29.0ZM118.0 131.0V-6.0H148.0V131.0ZM255.0 -8.0V-219.0H284.0V-8.0ZM255.0 131.0V-6.0H284.0V131.0ZM474.0 -253.0V-282.0H876.0V-253.0ZM477.0 -20.0V-50.0H791.0V-20.0ZM830.0 -363.0V-370.0C820.0 -578.0 810.0 -653.0 794.0 -672.0C788.0 -680.0 780.0 -681.0 767.0 -681.0C754.0 -681.0 719.0 -680.0 681.0 -677.0C686.0 -685.0 689.0 -698.0 690.0 -705.0C721.0 -708.0 755.0 -708.0 772.0 -708.0C795.0 -707.0 806.0 -703.0 818.0 -691.0C839.0 -666.0 848.0 -597.0 858.0 -383.0C859.0 -376.0 859.0 -363.0 859.0 -363.0ZM608.0 194.0C600.0 166.0 581.0 121.0 566.0 92.0L591.0 82.0C605.0 108.0 622.0 146.0 638.0 181.0Z"/></g>
<g fill="red" transform="translate(200 200) scale(0.1 -0.1)"><path d="M0.0 0.0V-271.0H445.0V0.0ZM84.0 -102.0H357.0V-169.0H84.0ZM121.0 98.0V-64.0H211.0V98.0ZM242.0 -52.0V-232.0H322.0V-52.0ZM242.0 98.0V-64.0H335.0V98.0ZM524.0 -232.0V-330.0H939.0V-232.0ZM529.0 -3.0V-86.0H800.0V-3.0ZM813.0 -357.0V-374.0C809.0 -554.0 805.0 -620.0 793.0 -636.0C786.0 -645.0 778.0 -647.0 766.0 -647.0C752.0 -647.0 726.0 -647.0 695.0 -644.0C710.0 -670.0 722.0 -711.0 723.0 -740.0C763.0 -741.0 800.0 -741.0 823.0 -737.0C850.0 -733.0 871.0 -725.0 890.0 -702.0C911.0 -673.0 918.0 -595.0 923.0 -398.0C924.0 -385.0 924.0 -357.0 924.0 -357.0ZM595.0 210.0C592.0 171.0 583.0 117.0 574.0 77.0L683.0 59.0C698.0 94.0 719.0 144.0 737.0 197.0Z"/></g>
<g fill="black" opacity=".8" transform="translate(200 200) scale(0.1 -0.1)"><path d="M0.0 0.0V-271.0H445.0V0.0ZM84.0 -102.0H357.0V-169.0H84.0ZM121.0 98.0V-64.0H211.0V98.0ZM242.0 -52.0V-232.0H322.0V-52.0ZM242.0 98.0V-64.0H335.0V98.0ZM524.0 -232.0V-330.0H939.0V-232.0ZM529.0 -3.0V-86.0H800.0V-3.0ZM813.0 -357.0V-374.0C809.0 -554.0 805.0 -620.0 793.0 -636.0C786.0 -645.0 778.0 -647.0 766.0 -647.0C752.0 -647.0 726.0 -647.0 695.0 -644.0C710.0 -670.0 722.0 -711.0 723.0 -740.0C763.0 -741.0 800.0 -741.0 823.0 -737.0C850.0 -733.0 871.0 -725.0 890.0 -702.0C911.0 -673.0 918.0 -595.0 923.0 -398.0C924.0 -385.0 924.0 -357.0 924.0 -357.0ZM595.0 210.0C592.0 171.0 583.0 117.0 574.0 77.0L683.0 59.0C698.0 94.0 719.0 144.0 737.0 197.0Z"/></g>
</svg>
