<?xml version="1.0" encoding="UTF-8"?>
<svg width="1700" height="600" xmlns="http://www.w3.org/2000/svg">
<rect width="100%" height="100%" fill="white"/>
<g fill="green" transform="translate(100 100) scale(0.1 -0.1)"><path d="M-0.0 0.0V-216.0V-424.0H31.0V-216.0V-0.0ZM-589.0 -410.0V-187.0H-145.0V-410.0ZM-461.0 -837.0 -665.0 -1022.0 329.0 -809.0 533.0 -624.0ZM-516.0 -189.0 -150.0 -364.0 -231.0 -681.0 -596.0 -506.0ZM-624.0 -608.0 -611.0 -637.0C-520.0 -602.0 -386.0 -552.0 -259.0 -506.0L-265.0 -477.0C-401.0 -527.0 -539.0 -577.0 -624.0 -608.0ZM-174.0 -107.0C-147.0 -143.0 -122.0 -196.0 -116.0 -230.0L-86.0 -218.0C-95.0 -184.0 -119.0 -134.0 -146.0 -98.0ZM28.0 -716.0C49.0 -758.0 68.0 -804.0 69.0 -841.0L102.0 -831.0C99.0 -795.0 79.0 -747.0 56.0 -708.0Z"/></g>
<g fill="green" transform="translate(200 100) scale(0.1 -0.1)"><path d="M0.0 0.0V-222.0H-17.0V-440.0H121.0V-222.0H104.0V0.0ZM-602.0 -369.0V-266.0H-167.0V-369.0ZM-462.0 -731.0 -620.0 -1060.0 393.0 -899.0 550.0 -570.0ZM-534.0 -225.0 -280.0 -344.0 -174.0 -585.0 -428.0 -467.0ZM-656.0 -567.0 -602.0 -718.0C-494.0 -671.0 -355.0 -613.0 -231.0 -557.0L-270.0 -419.0C-407.0 -477.0 -558.0 -534.0 -656.0 -567.0ZM-110.0 -136.0C-97.0 -163.0 -86.0 -199.0 -84.0 -225.0L-5.0 -197.0C-7.0 -174.0 -21.0 -138.0 -36.0 -113.0ZM15.0 -744.0C34.0 -787.0 54.0 -837.0 58.0 -873.0L189.0 -842.0C180.0 -805.0 157.0 -756.0 133.0 -717.0Z"/></g>
<g fill="green" transform="translate(300 100) scale(0.1 -0.1)"><path d="M0.0 0.0V-56.0V-123.0H15.0V-56.0V0.0ZM-475.0 -284.0V28.0H-224.0V-284.0ZM-382.0 -790.0 -617.0 -860.0 219.0 -618.0 454.0 -549.0ZM-499.0 -144.0 -253.0 -310.0 -376.0 -523.0 -621.0 -357.0ZM-518.0 -292.0 -508.0 -304.0C-472.0 -277.0 -418.0 -239.0 -368.0 -205.0L-374.0 -191.0C-429.0 -230.0 -485.0 -268.0 -518.0 -292.0ZM-111.0 -48.0C-93.0 -56.0 -75.0 -72.0 -70.0 -82.0L-55.0 -73.0C-62.0 -63.0 -79.0 -50.0 -97.0 -42.0ZM-32.0 -649.0C-10.0 -664.0 15.0 -670.0 22.0 -683.0L43.0 -671.0C33.0 -658.0 8.0 -647.0 -19.0 -637.0Z"/></g>
<g fill="green" transform="translate(400 100) scale(0.1 -0.1)"><path d="M0.0 0.0V-57.0H-6.0V-130.0H66.0V-57.0H59.0V0.0ZM-494.0 -260.0V-27.0H-274.0V-260.0ZM-393.0 -697.0 -573.0 -877.0 258.0 -694.0 438.0 -513.0ZM-551.0 -174.0 -383.0 -272.0 -323.0 -435.0 -492.0 -338.0ZM-555.0 -271.0 -509.0 -357.0C-463.0 -317.0 -409.0 -268.0 -365.0 -222.0L-402.0 -144.0C-455.0 -194.0 -517.0 -243.0 -555.0 -271.0ZM-66.0 -69.0C-59.0 -71.0 -53.0 -76.0 -51.0 -81.0L-5.0 -62.0C-6.0 -59.0 -15.0 -55.0 -23.0 -54.0ZM-45.0 -674.0C-26.0 -694.0 -2.0 -712.0 6.0 -727.0L104.0 -692.0C90.0 -674.0 63.0 -655.0 34.0 -641.0Z"/></g>
<g fill="green" transform="translate(500 100) scale(0.1 -0.1)"><path d="M0.0 0.0V-249.0V-487.0H36.0V-249.0V-0.0ZM-706.0 130.0V-90.0H-317.0V130.0ZM-396.0 -1026.0 -273.0 -854.0 365.0 -932.0 242.0 -1104.0ZM7.0 -484.0 -19.0 -735.0 327.0 -716.0 354.0 -465.0ZM-664.0 -736.0 -645.0 -768.0C-556.0 -717.0 -429.0 -644.0 -311.0 -578.0L-321.0 -546.0C-449.0 -617.0 -581.0 -691.0 -664.0 -736.0ZM-195.0 -196.0C-169.0 -238.0 -147.0 -300.0 -143.0 -340.0L-110.0 -329.0C-117.0 -289.0 -139.0 -230.0 -164.0 -188.0ZM363.0 -82.0C383.0 -119.0 398.0 -168.0 397.0 -204.0L430.0 -196.0C429.0 -161.0 412.0 -115.0 395.0 -76.0Z"/></g>
<g fill="green" transform="translate(600 100) scale(0.1 -0.1)"><path d="M0.0 0.0V-250.0H-18.0V-497.0H131.0V-250.0H113.0V0.0ZM-751.0 191.0V-163.0H-331.0V191.0ZM-310.0 -982.0 -238.0 -883.0 344.0 -952.0 271.0 -1051.0ZM-60.0 -410.0 -85.0 -713.0 492.0 -692.0 516.0 -390.0ZM-701.0 -683.0 -625.0 -850.0C-523.0 -783.0 -397.0 -701.0 -287.0 -623.0L-345.0 -473.0C-472.0 -554.0 -611.0 -635.0 -701.0 -683.0ZM-128.0 -227.0C-117.0 -259.0 -110.0 -301.0 -111.0 -330.0L-22.0 -308.0C-22.0 -281.0 -32.0 -238.0 -44.0 -210.0ZM335.0 -98.0C357.0 -128.0 380.0 -165.0 387.0 -192.0L529.0 -153.0C519.0 -127.0 492.0 -95.0 473.0 -67.0Z"/></g>
<g fill="green" transform="translate(700 100) scale(0.1 -0.1)"><path d="M-0.0 0.0V-248.0V-467.0H25.0V-248.0V0.0ZM-98.0 -780.0V-399.0H368.0V-780.0ZM-334.0 7.0 -545.0 -476.0 134.0 -254.0 345.0 229.0ZM-662.0 363.0 -72.0 404.0 -192.0 -143.0 -781.0 -184.0ZM191.0 -701.0 212.0 -714.0C247.0 -641.0 303.0 -531.0 342.0 -446.0L323.0 -431.0C280.0 -522.0 223.0 -635.0 191.0 -701.0ZM-152.0 -589.0C-161.0 -633.0 -179.0 -710.0 -200.0 -754.0L-175.0 -765.0C-159.0 -719.0 -142.0 -646.0 -130.0 -600.0ZM148.0 -531.0C222.0 -562.0 318.0 -590.0 363.0 -620.0L387.0 -577.0C338.0 -547.0 245.0 -510.0 161.0 -490.0Z"/></g>
<g fill="green" transform="translate(800 100) scale(0.1 -0.1)"><path d="M0.0 0.0V-269.0H-15.0V-501.0H84.0V-269.0H68.0V0.0ZM-46.0 -765.0V-464.0H389.0V-765.0ZM-372.0 95.0 -536.0 -522.0 224.0 -356.0 386.0 261.0ZM-610.0 273.0 -200.0 391.0 -236.0 -34.0 -647.0 -153.0ZM224.0 -712.0 318.0 -763.0C353.0 -675.0 397.0 -572.0 432.0 -476.0L343.0 -421.0C308.0 -528.0 258.0 -640.0 224.0 -712.0ZM-124.0 -598.0C-136.0 -648.0 -159.0 -713.0 -178.0 -760.0L-92.0 -798.0C-76.0 -754.0 -58.0 -684.0 -45.0 -637.0ZM166.0 -566.0C228.0 -614.0 309.0 -671.0 346.0 -710.0L493.0 -582.0C448.0 -541.0 361.0 -480.0 283.0 -446.0Z"/></g>
<g fill="green" transform="translate(900 100) scale(0.1 -0.1)"><path d="M-0.0 0.0V-263.0V-499.0H30.0V-263.0V-0.0ZM-473.0 -180.0V-246.0H-53.0V-180.0ZM-314.0 -488.0 -239.0 -576.0 286.0 -617.0 211.0 -529.0ZM-90.0 -239.0 45.0 -375.0 307.0 -488.0 173.0 -352.0ZM-603.0 -550.0 -600.0 -583.0C-482.0 -579.0 -302.0 -573.0 -125.0 -562.0L-122.0 -532.0C-309.0 -543.0 -490.0 -546.0 -603.0 -550.0ZM-153.0 64.0C-121.0 21.0 -92.0 -35.0 -83.0 -72.0L-53.0 -57.0C-65.0 -22.0 -93.0 33.0 -125.0 76.0ZM-47.0 -960.0C-27.0 -1015.0 -6.0 -1075.0 -4.0 -1119.0L33.0 -1110.0C29.0 -1066.0 9.0 -1002.0 -17.0 -952.0Z"/></g>
<g fill="green" transform="translate(1000 100) scale(0.1 -0.1)"><path d="M0.0 0.0V-268.0H-19.0V-512.0H120.0V-268.0H102.0V0.0ZM-480.0 -137.0V-315.0H-45.0V-137.0ZM-264.0 -449.0 -224.0 -610.0 308.0 -647.0 267.0 -486.0ZM-112.0 -199.0 -23.0 -367.0 411.0 -457.0 322.0 -289.0ZM-612.0 -502.0 -605.0 -666.0C-465.0 -659.0 -274.0 -649.0 -98.0 -636.0L-94.0 -486.0C-280.0 -495.0 -480.0 -501.0 -612.0 -502.0ZM-88.0 37.0C-66.0 2.0 -45.0 -42.0 -37.0 -73.0L29.0 -30.0C21.0 -3.0 -2.0 41.0 -26.0 74.0ZM-48.0 -977.0C-32.0 -1037.0 -17.0 -1106.0 -16.0 -1154.0L134.0 -1131.0C127.0 -1080.0 108.0 -1009.0 81.0 -954.0Z"/></g>
<g fill="green" transform="translate(1100 100) scale(0.1 -0.1)"><path d="M-0.0 0.0V-282.0V-554.0H37.0V-282.0V0.0ZM-483.0 -499.0V-264.0H134.0V-499.0ZM-557.0 -760.0 -757.0 -971.0 316.0 -758.0 516.0 -547.0ZM-675.0 -11.0 -103.0 -124.0 -207.0 -596.0 -778.0 -483.0ZM-754.0 -574.0 -753.0 -614.0C-604.0 -619.0 -377.0 -626.0 -154.0 -625.0L-147.0 -587.0C-384.0 -588.0 -612.0 -577.0 -754.0 -574.0ZM-187.0 153.0C-143.0 104.0 -97.0 44.0 -78.0 3.0L-43.0 24.0C-65.0 64.0 -108.0 123.0 -155.0 171.0ZM86.0 -518.0C72.0 -579.0 43.0 -660.0 16.0 -711.0L53.0 -721.0C78.0 -673.0 106.0 -594.0 125.0 -531.0Z"/></g>
<g fill="green" transform="translate(1200 100) scale(0.1 -0.1)"><path d="M0.0 0.0V-300.0H-23.0V-585.0H147.0V-300.0H124.0V0.0ZM-479.0 -455.0V-342.0H153.0V-455.0ZM-567.0 -646.0 -723.0 -1016.0 404.0 -857.0 560.0 -487.0ZM-651.0 -83.0 -243.0 -121.0 -185.0 -474.0 -593.0 -437.0ZM-776.0 -519.0 -781.0 -712.0C-595.0 -715.0 -340.0 -715.0 -102.0 -711.0L-84.0 -539.0C-336.0 -537.0 -603.0 -528.0 -776.0 -519.0ZM-101.0 116.0C-74.0 82.0 -44.0 39.0 -30.0 8.0L49.0 71.0C37.0 97.0 5.0 139.0 -27.0 172.0ZM68.0 -525.0C59.0 -574.0 37.0 -636.0 17.0 -681.0L136.0 -710.0C154.0 -669.0 178.0 -611.0 195.0 -558.0Z"/></g>
<g fill="green" transform="translate(1300 100) scale(0.1 -0.1)"><path d="M0.0 0.0V-230.0V-432.0H32.0V-230.0H31.0V0.0ZM-744.0 -769.0V-497.0H-570.0V-769.0ZM-139.0 -403.0 -466.0 -1100.0 425.0 -777.0 753.0 -80.0ZM-338.0 -238.0 -119.0 -435.0 -235.0 -671.0 -454.0 -474.0ZM-634.0 -604.0 -625.0 -634.0C-556.0 -605.0 -454.0 -563.0 -353.0 -523.0L-358.0 -493.0C-465.0 -537.0 -569.0 -577.0 -634.0 -604.0ZM-144.0 -55.0C-123.0 -92.0 -101.0 -146.0 -96.0 -181.0L-69.0 -167.0C-76.0 -134.0 -97.0 -82.0 -120.0 -46.0ZM-9.0 -605.0C1.0 -650.0 7.0 -706.0 3.0 -747.0L31.0 -745.0C35.0 -704.0 27.0 -651.0 17.0 -606.0Z"/></g>
<g fill="green" transform="translate(1400 100) scale(0.1 -0.1)"><path d="M0.0 0.0V-217.0H-19.0V-424.0H106.0V-217.0H88.0V0.0ZM-751.0 -739.0V-601.0H-609.0V-739.0ZM-169.0 -289.0 -414.0 -1145.0 537.0 -897.0 781.0 -41.0ZM-366.0 -233.0 -212.0 -405.0 -151.0 -605.0 -305.0 -434.0ZM-664.0 -567.0 -623.0 -732.0C-538.0 -691.0 -435.0 -642.0 -344.0 -594.0L-377.0 -443.0C-480.0 -493.0 -590.0 -540.0 -664.0 -567.0ZM-93.0 -87.0C-79.0 -116.0 -65.0 -154.0 -61.0 -182.0L1.0 -153.0C-2.0 -129.0 -19.0 -91.0 -35.0 -63.0ZM-18.0 -636.0C-9.0 -678.0 -4.0 -730.0 -7.0 -767.0L94.0 -755.0C93.0 -717.0 83.0 -667.0 70.0 -625.0Z"/></g>
<g fill="green" transform="translate(1500 100) scale(0.1 -0.1)"><path d="M0.0 0.0V-238.0V-479.0H29.0V-238.0V0.0ZM-596.0 -94.0V-312.0H-289.0V-94.0ZM-209.0 -1058.0 -567.0 -1243.0 400.0 -900.0 757.0 -715.0ZM-520.0 -84.0 -62.0 -208.0 -261.0 -590.0 -719.0 -466.0ZM-536.0 -614.0 -524.0 -642.0C-424.0 -616.0 -272.0 -578.0 -129.0 -541.0L-133.0 -511.0C-285.0 -552.0 -441.0 -590.0 -536.0 -614.0ZM-168.0 -91.0C-138.0 -132.0 -109.0 -190.0 -100.0 -228.0L-71.0 -216.0C-82.0 -178.0 -110.0 -123.0 -142.0 -81.0ZM-54.0 -673.0C-50.0 -721.0 -56.0 -783.0 -67.0 -827.0L-38.0 -825.0C-27.0 -781.0 -23.0 -722.0 -26.0 -671.0Z"/></g>
<g fill="green" transform="translate(1600 100) scale(0.1 -0.1)"><path d="M0.0 0.0V-261.0H-13.0V-513.0H113.0V-261.0H99.0V0.0ZM-617.0 -50.0V-363.0H-264.0V-50.0ZM-248.0 -920.0 -513.0 -1290.0 529.0 -1024.0 793.0 -654.0ZM-490.0 -125.0 -171.0 -195.0 -229.0 -469.0 -549.0 -400.0ZM-554.0 -559.0 -511.0 -707.0C-396.0 -670.0 -238.0 -623.0 -97.0 -578.0L-124.0 -444.0C-277.0 -490.0 -447.0 -534.0 -554.0 -559.0ZM-100.0 -115.0C-87.0 -146.0 -77.0 -187.0 -76.0 -216.0L3.0 -182.0C1.0 -157.0 -12.0 -116.0 -26.0 -87.0ZM-79.0 -693.0C-72.0 -738.0 -68.0 -793.0 -72.0 -833.0L24.0 -835.0C25.0 -797.0 21.0 -746.0 16.0 -699.0Z"/></g>
<g fill="green" transform="translate(100 200) scale(0.1 -0.1)"><path d="M-0.0 0.0V-238.0V-454.0H32.0V-238.0V-0.0ZM-502.0 -464.0V-135.0H-36.0V-464.0ZM-546.0 -784.0 -677.0 -899.0 254.0 -773.0 385.0 -658.0ZM-448.0 -389.0 -136.0 -567.0 -250.0 -884.0 -560.0 -707.0ZM-576.0 -656.0 -561.0 -685.0C-486.0 -644.0 -379.0 -586.0 -277.0 -535.0L-285.0 -506.0C-395.0 -562.0 -506.0 -620.0 -576.0 -656.0ZM-156.0 -145.0C-134.0 -185.0 -116.0 -242.0 -113.0 -279.0L-84.0 -270.0C-90.0 -233.0 -107.0 -178.0 -129.0 -139.0ZM-148.0 -611.0C-151.0 -656.0 -166.0 -720.0 -182.0 -763.0L-158.0 -769.0C-142.0 -727.0 -130.0 -667.0 -121.0 -620.0Z"/></g>
<g fill="green" transform="translate(200 200) scale(0.1 -0.1)"><path d="M0.0 0.0V-240.0H-18.0V-469.0H114.0V-240.0H97.0V0.0ZM-518.0 -428.0V-219.0H-54.0V-428.0ZM-533.0 -700.0 -632.0 -946.0 293.0 -843.0 390.0 -597.0ZM-482.0 -447.0 -264.0 -561.0 -191.0 -810.0 -409.0 -697.0ZM-610.0 -618.0 -550.0 -770.0C-459.0 -718.0 -345.0 -655.0 -244.0 -594.0L-289.0 -454.0C-402.0 -518.0 -528.0 -581.0 -610.0 -618.0ZM-102.0 -168.0C-92.0 -200.0 -84.0 -242.0 -83.0 -273.0L-10.0 -253.0C-10.0 -225.0 -21.0 -182.0 -33.0 -152.0ZM-150.0 -643.0C-151.0 -685.0 -158.0 -740.0 -168.0 -780.0L-123.0 -794.0C-113.0 -759.0 -102.0 -707.0 -91.0 -662.0Z"/></g>
<g fill="green" transform="translate(300 200) scale(0.1 -0.1)"><path d="M-0.0 0.0V-182.0V-387.0H39.0V-182.0H38.0V0.0ZM-688.0 -392.0V-197.0H-94.0V-392.0ZM-500.0 -788.0 -707.0 -1000.0 430.0 -780.0 636.0 -567.0ZM-551.0 -271.0 -47.0 -445.0 -145.0 -710.0 -648.0 -535.0ZM-686.0 -579.0 -670.0 -616.0C-533.0 -575.0 -338.0 -518.0 -154.0 -464.0L-160.0 -430.0C-356.0 -486.0 -560.0 -545.0 -686.0 -579.0ZM-225.0 -134.0C-190.0 -165.0 -154.0 -214.0 -144.0 -246.0L-107.0 -229.0C-120.0 -197.0 -155.0 -151.0 -191.0 -121.0ZM48.0 -711.0C59.0 -750.0 60.0 -793.0 50.0 -829.0L88.0 -826.0C97.0 -790.0 94.0 -749.0 83.0 -710.0Z"/></g>
<g fill="green" transform="translate(400 200) scale(0.1 -0.1)"><path d="M0.0 0.0V-190.0H-18.0V-404.0H154.0V-190.0H136.0V0.0ZM-684.0 -354.0V-261.0H-102.0V-354.0ZM-486.0 -694.0 -644.0 -1025.0 522.0 -856.0 679.0 -525.0ZM-528.0 -306.0 -180.0 -439.0 -92.0 -616.0 -440.0 -484.0ZM-719.0 -537.0 -653.0 -678.0C-498.0 -625.0 -291.0 -558.0 -102.0 -495.0L-145.0 -371.0C-351.0 -435.0 -577.0 -500.0 -719.0 -537.0ZM-144.0 -172.0C-129.0 -188.0 -115.0 -212.0 -112.0 -229.0L-11.0 -193.0C-14.0 -177.0 -31.0 -154.0 -49.0 -141.0ZM14.0 -751.0C28.0 -784.0 41.0 -822.0 41.0 -851.0L175.0 -834.0C170.0 -804.0 155.0 -771.0 142.0 -739.0Z"/></g>
<g fill="green" transform="translate(500 200) scale(0.1 -0.1)"><path d="M0.0 0.0V-229.0V-438.0H28.0V-229.0V0.0ZM-561.0 -384.0V-209.0H-152.0V-384.0ZM-413.0 -823.0 -601.0 -1009.0 316.0 -799.0 504.0 -613.0ZM-457.0 -271.0 -130.0 -435.0 -347.0 -756.0 -673.0 -592.0ZM-606.0 -603.0 -594.0 -632.0C-497.0 -600.0 -360.0 -557.0 -228.0 -515.0L-234.0 -487.0C-373.0 -533.0 -515.0 -577.0 -606.0 -603.0ZM-155.0 -87.0C-128.0 -125.0 -106.0 -178.0 -101.0 -211.0L-69.0 -203.0C-76.0 -168.0 -100.0 -117.0 -125.0 -79.0ZM49.0 -732.0C75.0 -774.0 103.0 -816.0 109.0 -851.0L145.0 -838.0C138.0 -804.0 109.0 -758.0 80.0 -720.0Z"/></g>
<g fill="green" transform="translate(600 200) scale(0.1 -0.1)"><path d="M0.0 0.0V-228.0H-19.0V-443.0H122.0V-228.0H103.0V0.0ZM-580.0 -337.0V-278.0H-166.0V-337.0ZM-422.0 -710.0 -559.0 -1043.0 381.0 -884.0 518.0 -551.0ZM-431.0 -309.0 -203.0 -431.0 -324.0 -680.0 -551.0 -559.0ZM-641.0 -550.0 -591.0 -697.0C-482.0 -657.0 -340.0 -608.0 -214.0 -560.0L-247.0 -425.0C-388.0 -474.0 -540.0 -522.0 -641.0 -550.0ZM-103.0 -106.0C-89.0 -135.0 -78.0 -174.0 -74.0 -201.0L0.0 -176.0C-2.0 -152.0 -17.0 -113.0 -33.0 -86.0ZM43.0 -751.0C66.0 -797.0 92.0 -850.0 101.0 -886.0L244.0 -845.0C232.0 -805.0 202.0 -751.0 170.0 -711.0Z"/></g>
<g fill="green" transform="translate(700 200) scale(0.1 -0.1)"><path d="M0.0 0.0V-218.0V-431.0H35.0V-218.0V-0.0ZM-590.0 -412.0V-177.0H-133.0V-412.0ZM-472.0 -816.0 -682.0 -983.0 340.0 -811.0 549.0 -644.0ZM-455.0 -160.0 -85.0 -349.0 -236.0 -620.0 -606.0 -432.0ZM-635.0 -618.0 -619.0 -653.0C-519.0 -613.0 -384.0 -559.0 -255.0 -508.0L-262.0 -476.0C-399.0 -531.0 -542.0 -586.0 -635.0 -618.0ZM-158.0 -116.0C-131.0 -153.0 -104.0 -206.0 -97.0 -241.0L-67.0 -228.0C-76.0 -193.0 -101.0 -142.0 -129.0 -106.0ZM29.0 -711.0C48.0 -751.0 64.0 -795.0 64.0 -832.0L98.0 -826.0C97.0 -791.0 80.0 -745.0 58.0 -707.0Z"/></g>
<g fill="green" transform="translate(800 200) scale(0.1 -0.1)"><path d="M0.0 0.0V-218.0H-18.0V-440.0H124.0V-218.0H107.0V0.0ZM-614.0 -370.0V-257.0H-181.0V-370.0ZM-485.0 -725.0 -640.0 -1016.0 389.0 -887.0 543.0 -595.0ZM-451.0 -232.0 -194.0 -331.0 -235.0 -532.0 -492.0 -434.0ZM-687.0 -574.0 -626.0 -728.0C-517.0 -679.0 -380.0 -619.0 -257.0 -562.0L-298.0 -422.0C-437.0 -481.0 -589.0 -540.0 -687.0 -574.0ZM-110.0 -152.0C-98.0 -177.0 -85.0 -210.0 -83.0 -234.0L-6.0 -206.0C-9.0 -184.0 -23.0 -151.0 -38.0 -129.0ZM11.0 -749.0C29.0 -790.0 45.0 -837.0 48.0 -871.0L174.0 -843.0C166.0 -807.0 145.0 -762.0 123.0 -725.0Z"/></g>
<g fill="red" transform="translate(100 300) scale(0.1 -0.1)"><path d="M0.0 0.0V-299.0V-559.0H28.0V-299.0V0.0ZM-379.0 -53.0V-640.0H-350.0V-53.0ZM307.0 55.0V-391.0H336.0V55.0ZM322.0 -155.0V-185.0H482.0V-155.0ZM-167.0 -560.0 -164.0 -591.0C-73.0 -583.0 62.0 -571.0 194.0 -558.0V-530.0C58.0 -543.0 -79.0 -554.0 -167.0 -560.0ZM-92.0 -69.0C-78.0 -120.0 -66.0 -188.0 -64.0 -232.0L-40.0 -225.0C-42.0 -183.0 -55.0 -115.0 -71.0 -64.0ZM93.0 -64.0C84.0 -114.0 65.0 -193.0 52.0 -239.0L72.0 -248.0C88.0 -201.0 104.0 -131.0 118.0 -74.0Z"/></g>
<g fill="black" opacity=".8" transform="translate(100 300) scale(0.1 -0.1)"><path d="M0.0 0.0V-299.0V-559.0H29.0V-299.0H28.0V0.0ZM-379.0 -53.0V-640.0H-350.0V-53.0ZM307.0 54.0V-391.0H337.0L336.0 54.0ZM323.0 -155.0 322.0 -185.0 483.0 -184.0V-154.0ZM-167.0 -560.0 -164.0 -590.0C-72.0 -583.0 62.0 -572.0 194.0 -557.0V-530.0C57.0 -545.0 -78.0 -554.0 -167.0 -560.0ZM-93.0 -68.0C-79.0 -120.0 -66.0 -187.0 -64.0 -231.0L-40.0 -226.0C-42.0 -183.0 -55.0 -114.0 -73.0 -63.0ZM93.0 -64.0C83.0 -114.0 65.0 -193.0 52.0 -239.0L72.0 -249.0C88.0 -200.0 105.0 -131.0 119.0 -73.0Z"/></g>
<g fill="red" transform="translate(200 300) scale(0.1 -0.1)"><path d="M0.0 0.0V-302.0H-17.0V-563.0H85.0V-302.0H68.0V0.0ZM-379.0 -21.0V-678.0H-285.0V-21.0ZM315.0 76.0V-428.0H424.0V76.0ZM389.0 -83.0V-209.0H538.0V-83.0ZM-148.0 -515.0 -145.0 -636.0C-46.0 -631.0 91.0 -624.0 220.0 -615.0L222.0 -504.0C88.0 -509.0 -53.0 -513.0 -148.0 -515.0ZM-65.0 -84.0C-53.0 -129.0 -44.0 -186.0 -43.0 -225.0L6.0 -205.0C3.0 -168.0 -7.0 -111.0 -19.0 -67.0ZM84.0 -67.0C79.0 -107.0 67.0 -167.0 58.0 -205.0L106.0 -223.0C117.0 -187.0 128.0 -135.0 140.0 -86.0Z"/></g>
<g fill="black" opacity=".8" transform="translate(200 300) scale(0.1 -0.1)"><path d="M0.0 0.0V-301.0H-17.0V-564.0H85.0V-301.0H68.0V0.0ZM-380.0 -22.0V-678.0H-286.0V-22.0ZM315.0 75.0 316.0 -428.0H424.0V76.0ZM390.0 -84.0 388.0 -208.0 538.0 -209.0V-84.0ZM-147.0 -514.0 -144.0 -637.0C-47.0 -631.0 92.0 -623.0 220.0 -615.0L223.0 -505.0C87.0 -511.0 -55.0 -513.0 -147.0 -514.0ZM-65.0 -83.0C-54.0 -129.0 -44.0 -186.0 -42.0 -226.0L6.0 -205.0C4.0 -170.0 -7.0 -110.0 -19.0 -68.0ZM83.0 -67.0C80.0 -109.0 67.0 -166.0 58.0 -205.0L106.0 -224.0C117.0 -188.0 128.0 -135.0 140.0 -87.0Z"/></g>
<g fill="red" transform="translate(300 300) scale(0.1 -0.1)"><path d="M0.0 0.0V-189.0V-365.0H29.0V-189.0V0.0ZM-588.0 -102.0V-131.0H-336.0V-102.0ZM-278.0 -702.0V-731.0H305.0V-702.0ZM0.0 -506.0V-717.0H29.0V-506.0ZM-604.0 -529.0 -591.0 -559.0C-516.0 -527.0 -418.0 -485.0 -322.0 -444.0L-328.0 -416.0C-430.0 -460.0 -534.0 -503.0 -604.0 -529.0ZM-122.0 -55.0C-100.0 -86.0 -78.0 -129.0 -71.0 -158.0L-46.0 -146.0C-53.0 -118.0 -75.0 -76.0 -98.0 -46.0ZM133.0 -39.0C121.0 -70.0 94.0 -119.0 74.0 -150.0L96.0 -162.0C117.0 -133.0 140.0 -91.0 160.0 -54.0Z"/></g>
<g fill="black" opacity=".8" transform="translate(300 300) scale(0.1 -0.1)"><path d="M0.0 0.0V-189.0V-365.0H30.0V-189.0H29.0V0.0ZM-587.0 -102.0V-131.0H-336.0V-102.0ZM-278.0 -702.0V-731.0H306.0L305.0 -702.0ZM-0.0 -505.0V-717.0H29.0V-506.0ZM-604.0 -528.0 -591.0 -558.0C-516.0 -526.0 -418.0 -485.0 -322.0 -444.0L-328.0 -416.0C-430.0 -461.0 -534.0 -503.0 -604.0 -528.0ZM-123.0 -54.0C-100.0 -86.0 -78.0 -129.0 -71.0 -157.0L-46.0 -147.0C-53.0 -118.0 -75.0 -76.0 -99.0 -46.0ZM133.0 -39.0C120.0 -70.0 94.0 -119.0 74.0 -150.0L96.0 -163.0C117.0 -133.0 140.0 -91.0 161.0 -54.0Z"/></g>
<g fill="red" transform="translate(400 300) scale(0.1 -0.1)"><path d="M0.0 0.0V-177.0H-16.0V-357.0H102.0V-177.0H86.0V0.0ZM-628.0 -60.0V-193.0H-362.0V-60.0ZM-240.0 -660.0V-755.0H310.0V-660.0ZM-24.0 -488.0V-709.0H109.0V-488.0ZM-652.0 -480.0 -604.0 -620.0C-520.0 -581.0 -419.0 -533.0 -328.0 -487.0L-360.0 -362.0C-466.0 -408.0 -578.0 -454.0 -652.0 -480.0ZM-84.0 -80.0C-72.0 -100.0 -60.0 -127.0 -56.0 -145.0L1.0 -120.0C-3.0 -102.0 -16.0 -76.0 -30.0 -58.0ZM112.0 -56.0C105.0 -74.0 91.0 -103.0 80.0 -123.0L129.0 -142.0C141.0 -125.0 156.0 -104.0 174.0 -79.0Z"/></g>
<g fill="black" opacity=".8" transform="translate(400 300) scale(0.1 -0.1)"><path d="M0.0 0.0V-177.0H-16.0V-357.0H102.0V-177.0H86.0V0.0ZM-628.0 -60.0V-193.0H-362.0V-60.0ZM-240.0 -661.0V-754.0L310.0 -755.0V-660.0ZM-24.0 -488.0V-709.0H109.0V-489.0ZM-652.0 -480.0 -604.0 -620.0C-521.0 -581.0 -418.0 -533.0 -327.0 -487.0L-360.0 -363.0C-467.0 -410.0 -579.0 -454.0 -652.0 -480.0ZM-84.0 -80.0C-73.0 -100.0 -61.0 -126.0 -56.0 -146.0L1.0 -120.0C-2.0 -103.0 -16.0 -76.0 -30.0 -59.0ZM111.0 -56.0C106.0 -75.0 91.0 -103.0 81.0 -123.0L129.0 -143.0C141.0 -125.0 156.0 -104.0 174.0 -79.0Z"/></g>
<g fill="red" transform="translate(500 300) scale(0.1 -0.1)"><path d="M0.0 0.0V-297.0V-553.0H29.0V-297.0V0.0ZM-179.0 -406.0V-436.0H219.0V-406.0ZM-164.0 12.0V-312.0H202.0V12.0ZM-134.0 -17.0H173.0V-283.0H-134.0ZM-204.0 -556.0 -200.0 -588.0C-88.0 -579.0 77.0 -566.0 238.0 -553.0V-525.0C72.0 -538.0 -96.0 -549.0 -204.0 -556.0ZM-104.0 -73.0C-86.0 -124.0 -72.0 -191.0 -70.0 -234.0L-43.0 -228.0C-46.0 -186.0 -60.0 -119.0 -78.0 -68.0ZM-61.0 -645.0C-44.0 -700.0 -31.0 -771.0 -30.0 -818.0L-3.0 -813.0C-4.0 -767.0 -17.0 -695.0 -35.0 -641.0Z"/></g>
<g fill="black" opacity=".8" transform="translate(500 300) scale(0.1 -0.1)"><path d="M0.0 0.0V-296.0V-553.0H29.0V-296.0V0.0ZM-185.0 -401.0V-435.0H212.0V-401.0ZM-170.0 16.0 -169.0 -305.0 200.0 -307.0 198.0 14.0ZM-138.0 -15.0H174.0L170.0 -277.0L-141.0 -278.0ZM-207.0 -555.0 -203.0 -586.0C-92.0 -577.0 71.0 -565.0 230.0 -552.0V-525.0C65.0 -538.0 -100.0 -549.0 -207.0 -555.0ZM-112.0 -71.0C-94.0 -122.0 -80.0 -189.0 -79.0 -231.0L-51.0 -227.0C-53.0 -184.0 -68.0 -116.0 -87.0 -66.0ZM-63.0 -645.0C-52.0 -699.0 -41.0 -768.0 -42.0 -815.0L-14.0 -812.0C-12.0 -766.0 -22.0 -696.0 -35.0 -643.0Z"/></g>
<g fill="red" transform="translate(600 300) scale(0.1 -0.1)"><path d="M0.0 0.0V-303.0H-20.0V-565.0H105.0V-303.0H85.0V0.0ZM-165.0 -375.0V-483.0H254.0V-375.0ZM-172.0 49.0V-346.0H264.0V49.0ZM-66.0 -46.0H153.0V-251.0H-66.0ZM-199.0 -517.0 -191.0 -637.0C-66.0 -633.0 107.0 -627.0 270.0 -620.0L273.0 -505.0C105.0 -510.0 -77.0 -515.0 -199.0 -517.0ZM-78.0 -85.0C-64.0 -130.0 -53.0 -188.0 -51.0 -227.0L9.0 -207.0C6.0 -170.0 -7.0 -112.0 -22.0 -68.0ZM-59.0 -659.0C-50.0 -715.0 -44.0 -788.0 -46.0 -836.0L45.0 -825.0C45.0 -777.0 38.0 -705.0 27.0 -649.0Z"/></g>
<g fill="black" opacity=".8" transform="translate(600 300) scale(0.1 -0.1)"><path d="M0.0 0.0V-304.0H-20.0V-568.0H104.0V-304.0H85.0V0.0ZM-164.0 -373.0V-485.0H256.0V-373.0ZM-170.0 49.0 -168.0 -343.0 263.0 -345.0 260.0 48.0ZM-60.0 -48.0 159.0 -46.0 151.0 -251.0 -69.0 -252.0ZM-193.0 -519.0 -187.0 -640.0C-64.0 -634.0 110.0 -628.0 272.0 -620.0L275.0 -509.0C106.0 -514.0 -74.0 -518.0 -193.0 -519.0ZM-78.0 -86.0C-65.0 -132.0 -54.0 -189.0 -51.0 -230.0L8.0 -209.0C6.0 -173.0 -8.0 -113.0 -23.0 -70.0ZM-53.0 -660.0C-43.0 -717.0 -37.0 -788.0 -38.0 -837.0L51.0 -827.0C51.0 -778.0 44.0 -706.0 33.0 -650.0Z"/></g>
<g fill="red" transform="translate(700 300) scale(0.1 -0.1)"><path d="M0.0 0.0V-297.0V-553.0H29.0V-297.0V0.0ZM-181.0 17.0V-307.0H197.0V17.0ZM-151.0 -12.0H167.0V-278.0H-151.0ZM273.0 -337.0V-366.0H627.0V-337.0ZM-214.0 -558.0 -211.0 -589.0C-102.0 -581.0 58.0 -568.0 215.0 -555.0L216.0 -528.0C52.0 -540.0 -110.0 -551.0 -214.0 -558.0ZM-121.0 -68.0C-103.0 -119.0 -90.0 -186.0 -88.0 -229.0L-60.0 -223.0C-63.0 -181.0 -77.0 -114.0 -95.0 -63.0ZM107.0 -63.0C98.0 -113.0 76.0 -191.0 60.0 -236.0L82.0 -245.0C100.0 -201.0 119.0 -130.0 136.0 -75.0Z"/></g>
<g fill="black" opacity=".8" transform="translate(700 300) scale(0.1 -0.1)"><path d="M0.0 0.0V-297.0V-553.0H30.0V-297.0H29.0V0.0ZM-181.0 17.0V-307.0H197.0V17.0ZM-151.0 -13.0 167.0 -12.0 166.0 -278.0 -152.0 -279.0ZM273.0 -336.0 274.0 -366.0H627.0L628.0 -336.0ZM-215.0 -558.0 -211.0 -589.0C-103.0 -580.0 58.0 -568.0 215.0 -555.0L216.0 -528.0C51.0 -541.0 -110.0 -551.0 -215.0 -558.0ZM-122.0 -67.0C-104.0 -119.0 -91.0 -185.0 -90.0 -227.0L-61.0 -223.0C-64.0 -181.0 -79.0 -113.0 -97.0 -63.0ZM106.0 -63.0C95.0 -113.0 76.0 -191.0 59.0 -236.0L81.0 -246.0C99.0 -200.0 119.0 -129.0 136.0 -74.0Z"/></g>
<g fill="red" transform="translate(800 300) scale(0.1 -0.1)"><path d="M0.0 0.0V-303.0H-21.0V-565.0H106.0V-303.0H85.0V0.0ZM-172.0 53.0V-342.0H270.0V53.0ZM-66.0 -42.0H159.0V-247.0H-66.0ZM304.0 -274.0V-407.0H714.0V-274.0ZM-193.0 -519.0 -189.0 -638.0C-63.0 -633.0 111.0 -626.0 276.0 -617.0L279.0 -507.0C109.0 -513.0 -72.0 -517.0 -193.0 -519.0ZM-80.0 -78.0C-66.0 -123.0 -55.0 -181.0 -53.0 -220.0L7.0 -200.0C4.0 -163.0 -9.0 -105.0 -24.0 -61.0ZM108.0 -61.0C103.0 -101.0 90.0 -161.0 79.0 -200.0L129.0 -219.0C143.0 -184.0 159.0 -130.0 177.0 -83.0Z"/></g>
<g fill="black" opacity=".8" transform="translate(800 300) scale(0.1 -0.1)"><path d="M0.0 0.0V-303.0H-20.0V-566.0H105.0V-303.0H86.0V0.0ZM-172.0 52.0V-342.0H271.0V52.0ZM-66.0 -43.0 160.0 -42.0 159.0 -247.0H-67.0ZM306.0 -274.0 305.0 -407.0H714.0V-275.0ZM-192.0 -518.0 -188.0 -638.0C-64.0 -632.0 112.0 -625.0 277.0 -616.0L280.0 -508.0C108.0 -514.0 -73.0 -517.0 -192.0 -518.0ZM-79.0 -78.0C-66.0 -124.0 -56.0 -181.0 -52.0 -221.0L7.0 -201.0C5.0 -165.0 -8.0 -105.0 -23.0 -62.0ZM108.0 -61.0C104.0 -103.0 91.0 -161.0 80.0 -201.0L130.0 -220.0C143.0 -185.0 160.0 -130.0 178.0 -83.0Z"/></g>
<g fill="red" transform="translate(900 300) scale(0.1 -0.1)"><path d="M0.0 0.0V-300.0V-559.0H29.0V-300.0V0.0ZM-164.0 -409.0V-440.0H178.0V-409.0ZM-150.0 17.0V-310.0H178.0V17.0ZM-123.0 -12.0H150.0V-281.0H-123.0ZM-179.0 -560.0 -177.0 -591.0C-83.0 -583.0 55.0 -570.0 191.0 -557.0V-530.0C50.0 -542.0 -90.0 -553.0 -179.0 -560.0ZM-100.0 -69.0C-86.0 -120.0 -74.0 -188.0 -72.0 -232.0L-49.0 -225.0C-51.0 -183.0 -63.0 -115.0 -79.0 -64.0ZM93.0 -64.0C84.0 -114.0 66.0 -193.0 52.0 -239.0L71.0 -248.0C86.0 -204.0 102.0 -131.0 117.0 -76.0Z"/></g>
<g fill="black" opacity=".8" transform="translate(900 300) scale(0.1 -0.1)"><path d="M0.0 0.0V-301.0V-559.0H30.0V-301.0H29.0V0.0ZM-162.0 -409.0V-439.0H174.0V-409.0ZM-150.0 17.0V-309.0H175.0L174.0 16.0ZM-122.0 -11.0H147.0L146.0 -281.0L-122.0 -282.0ZM-180.0 -561.0 -176.0 -591.0C-83.0 -582.0 54.0 -570.0 189.0 -558.0V-531.0C48.0 -544.0 -89.0 -554.0 -180.0 -561.0ZM-101.0 -68.0C-86.0 -121.0 -73.0 -189.0 -72.0 -233.0L-46.0 -229.0C-49.0 -186.0 -62.0 -116.0 -78.0 -64.0ZM91.0 -65.0C81.0 -115.0 64.0 -194.0 49.0 -240.0L69.0 -250.0C85.0 -205.0 102.0 -131.0 118.0 -77.0Z"/></g>
<g fill="red" transform="translate(1000 300) scale(0.1 -0.1)"><path d="M0.0 0.0V-309.0H-18.0V-577.0H91.0V-309.0H73.0V0.0ZM-142.0 -383.0V-493.0H223.0V-383.0ZM-148.0 50.0V-353.0H229.0V50.0ZM-57.0 -47.0H134.0V-256.0H-57.0ZM-166.0 -528.0 -163.0 -651.0C-55.0 -646.0 93.0 -639.0 233.0 -630.0L236.0 -516.0C91.0 -522.0 -63.0 -526.0 -166.0 -528.0ZM-66.0 -87.0C-54.0 -133.0 -45.0 -192.0 -43.0 -232.0L8.0 -212.0C6.0 -174.0 -5.0 -115.0 -18.0 -70.0ZM96.0 -69.0C90.0 -110.0 76.0 -171.0 64.0 -211.0L107.0 -230.0C121.0 -195.0 138.0 -140.0 155.0 -92.0Z"/></g>
<g fill="black" opacity=".8" transform="translate(1000 300) scale(0.1 -0.1)"><path d="M0.0 0.0V-309.0H-20.0V-575.0H94.0V-309.0H75.0V0.0ZM-146.0 -381.0V-492.0H224.0V-381.0ZM-151.0 52.0 -150.0 -350.0 231.0 -351.0 230.0 52.0ZM-58.0 -44.0 136.0 -43.0V-256.0L-59.0 -258.0ZM-167.0 -527.0 -164.0 -651.0C-56.0 -645.0 95.0 -639.0 236.0 -630.0L239.0 -518.0C91.0 -524.0 -64.0 -526.0 -167.0 -527.0ZM-70.0 -83.0C-59.0 -131.0 -49.0 -190.0 -45.0 -232.0L8.0 -213.0C6.0 -176.0 -7.0 -114.0 -20.0 -69.0ZM96.0 -68.0C91.0 -111.0 76.0 -170.0 64.0 -212.0L108.0 -230.0C122.0 -194.0 140.0 -137.0 157.0 -89.0Z"/></g>
<g fill="red" transform="translate(1100 300) scale(0.1 -0.1)"><path d="M0.0 0.0V-297.0V-554.0H29.0V-297.0V0.0ZM-162.0 -406.0V-436.0H165.0V-406.0ZM-151.0 16.0V-308.0H170.0V16.0ZM-122.0 -13.0H141.0V-279.0H-122.0ZM-185.0 -555.0 -182.0 -586.0C-89.0 -579.0 46.0 -568.0 178.0 -558.0L179.0 -529.0C40.0 -539.0 -95.0 -549.0 -185.0 -555.0ZM-98.0 -69.0C-78.0 -124.0 -62.0 -196.0 -58.0 -243.0L-31.0 -237.0C-35.0 -191.0 -51.0 -119.0 -73.0 -64.0ZM100.0 -64.0C91.0 -114.0 69.0 -192.0 53.0 -237.0L75.0 -245.0C93.0 -202.0 112.0 -131.0 129.0 -76.0Z"/></g>
<g fill="black" opacity=".8" transform="translate(1100 300) scale(0.1 -0.1)"><path d="M0.0 0.0V-297.0V-551.0H29.0V-297.0V0.0ZM-163.0 -408.0V-431.0H168.0V-408.0ZM-151.0 15.0V-307.0L173.0 -309.0L172.0 13.0ZM-118.0 -9.0 144.0 -13.0 140.0 -276.0 -121.0 -273.0ZM-183.0 -554.0 -180.0 -584.0C-88.0 -575.0 47.0 -563.0 179.0 -550.0V-524.0C41.0 -537.0 -94.0 -547.0 -183.0 -554.0ZM-98.0 -66.0C-83.0 -118.0 -71.0 -185.0 -70.0 -228.0L-44.0 -224.0C-47.0 -181.0 -59.0 -113.0 -76.0 -62.0ZM95.0 -61.0C85.0 -110.0 69.0 -187.0 54.0 -233.0L74.0 -242.0C90.0 -198.0 106.0 -126.0 121.0 -72.0Z"/></g>
<g fill="red" transform="translate(1200 300) scale(0.1 -0.1)"><path d="M0.0 0.0V-303.0H-26.0V-565.0H100.0V-303.0H74.0V0.0ZM-150.0 -374.0V-482.0H211.0V-374.0ZM-154.0 53.0V-342.0H224.0V53.0ZM-65.0 -42.0H131.0V-247.0H-65.0ZM-174.0 -519.0 -170.0 -640.0C-61.0 -635.0 84.0 -629.0 222.0 -621.0L224.0 -509.0C79.0 -514.0 -71.0 -517.0 -174.0 -519.0ZM-76.0 -78.0C-62.0 -123.0 -51.0 -181.0 -49.0 -220.0L8.0 -202.0C4.0 -164.0 -8.0 -106.0 -23.0 -62.0ZM94.0 -61.0C89.0 -101.0 76.0 -161.0 66.0 -200.0L111.0 -216.0C124.0 -182.0 139.0 -127.0 156.0 -81.0Z"/></g>
<g fill="black" opacity=".8" transform="translate(1200 300) scale(0.1 -0.1)"><path d="M0.0 0.0V-304.0H-20.0V-566.0H93.0V-304.0H74.0V0.0ZM-148.0 -380.0V-484.0H214.0V-380.0ZM-152.0 49.0 -151.0 -348.0 227.0 -350.0 226.0 48.0ZM-55.0 -43.0H135.0L128.0 -251.0L-62.0 -252.0ZM-172.0 -521.0 -169.0 -643.0C-63.0 -637.0 85.0 -631.0 223.0 -623.0L226.0 -511.0C81.0 -518.0 -72.0 -520.0 -172.0 -521.0ZM-68.0 -81.0C-58.0 -128.0 -47.0 -186.0 -44.0 -227.0L8.0 -208.0C6.0 -172.0 -7.0 -111.0 -20.0 -67.0ZM99.0 -64.0C95.0 -106.0 80.0 -164.0 68.0 -205.0L112.0 -222.0C126.0 -186.0 144.0 -131.0 160.0 -83.0Z"/></g>
<g fill="red" transform="translate(1300 300) scale(0.1 -0.1)"><path d="M0.0 0.0V-303.0V-559.0H29.0V-303.0V0.0ZM-146.0 12.0V-312.0H181.0V12.0ZM-117.0 -17.0H151.0V-283.0H-117.0ZM309.0 -271.0V-301.0H504.0V-271.0ZM-182.0 -560.0 -177.0 -593.0C-72.0 -582.0 72.0 -568.0 214.0 -553.0V-526.0C67.0 -540.0 -82.0 -553.0 -182.0 -560.0ZM-86.0 -73.0C-71.0 -125.0 -61.0 -191.0 -60.0 -234.0L-34.0 -230.0C-35.0 -187.0 -46.0 -120.0 -61.0 -69.0ZM92.0 -67.0C84.0 -114.0 66.0 -188.0 53.0 -231.0L75.0 -241.0C90.0 -200.0 106.0 -132.0 120.0 -79.0Z"/></g>
<g fill="black" opacity=".8" transform="translate(1300 300) scale(0.1 -0.1)"><path d="M0.0 0.0V-303.0V-559.0H30.0V-303.0V0.0ZM-145.0 11.0V-312.0H182.0V11.0ZM-117.0 -18.0H151.0L153.0 -283.0H-116.0ZM309.0 -271.0V-302.0L505.0 -301.0L506.0 -272.0ZM-182.0 -560.0 -176.0 -593.0C-71.0 -582.0 73.0 -568.0 215.0 -553.0V-526.0C67.0 -542.0 -80.0 -554.0 -182.0 -560.0ZM-86.0 -72.0C-70.0 -125.0 -59.0 -191.0 -59.0 -234.0L-32.0 -231.0C-33.0 -188.0 -45.0 -120.0 -61.0 -68.0ZM93.0 -67.0C84.0 -114.0 67.0 -188.0 53.0 -232.0L76.0 -243.0C92.0 -200.0 108.0 -131.0 122.0 -79.0Z"/></g>
<g fill="red" transform="translate(1400 300) scale(0.1 -0.1)"><path d="M0.0 0.0V-303.0H-20.0V-565.0H97.0V-303.0H77.0V0.0ZM-151.0 49.0V-346.0H232.0V49.0ZM-61.0 -46.0H138.0V-251.0H-61.0ZM375.0 -255.0V-346.0H515.0V-255.0ZM-179.0 -515.0 -171.0 -632.0C-59.0 -628.0 93.0 -623.0 238.0 -616.0L241.0 -508.0C89.0 -511.0 -71.0 -514.0 -179.0 -515.0ZM-67.0 -85.0C-55.0 -130.0 -45.0 -188.0 -43.0 -226.0L7.0 -211.0C4.0 -173.0 -7.0 -115.0 -20.0 -71.0ZM98.0 -70.0C93.0 -110.0 80.0 -170.0 70.0 -208.0L113.0 -224.0C126.0 -189.0 141.0 -135.0 157.0 -88.0Z"/></g>
<g fill="black" opacity=".8" transform="translate(1400 300) scale(0.1 -0.1)"><path d="M0.0 0.0V-302.0H-20.0V-564.0H97.0V-302.0H78.0V0.0ZM-151.0 48.0V-346.0H231.0V48.0ZM-61.0 -48.0 138.0 -45.0V-250.0L-62.0 -251.0ZM374.0 -255.0V-346.0H516.0L515.0 -256.0ZM-179.0 -514.0 -170.0 -633.0C-60.0 -628.0 94.0 -623.0 238.0 -616.0L241.0 -509.0C88.0 -513.0 -73.0 -514.0 -179.0 -514.0ZM-68.0 -84.0C-56.0 -130.0 -46.0 -187.0 -42.0 -226.0L7.0 -210.0C5.0 -174.0 -7.0 -114.0 -20.0 -72.0ZM96.0 -70.0C93.0 -111.0 79.0 -169.0 70.0 -208.0L113.0 -225.0C125.0 -189.0 141.0 -135.0 156.0 -88.0Z"/></g>
<g fill="red" transform="translate(1500 300) scale(0.1 -0.1)"><path d="M0.0 0.0V-297.0V-554.0H29.0V-297.0V0.0ZM-180.0 16.0V-308.0H197.0V16.0ZM-150.0 -13.0H167.0V-279.0H-150.0ZM240.0 -63.0V-93.0H664.0V-63.0ZM-212.0 -555.0 -209.0 -586.0C-100.0 -578.0 60.0 -565.0 216.0 -552.0L217.0 -525.0C54.0 -537.0 -108.0 -548.0 -212.0 -555.0ZM-120.0 -69.0C-102.0 -120.0 -89.0 -187.0 -87.0 -230.0L-60.0 -224.0C-63.0 -182.0 -77.0 -115.0 -94.0 -64.0ZM405.0 59.0C426.0 14.0 448.0 -45.0 455.0 -82.0L485.0 -72.0C477.0 -37.0 455.0 22.0 433.0 66.0Z"/></g>
<g fill="black" opacity=".8" transform="translate(1500 300) scale(0.1 -0.1)"><path d="M0.0 0.0V-297.0V-553.0H30.0V-297.0H29.0V0.0ZM-179.0 16.0V-307.0H197.0V16.0ZM-151.0 -13.0H167.0L168.0 -279.0H-149.0ZM240.0 -62.0V-93.0H664.0L665.0 -63.0ZM-212.0 -555.0 -209.0 -586.0C-100.0 -577.0 61.0 -565.0 217.0 -552.0V-525.0C54.0 -539.0 -107.0 -548.0 -212.0 -555.0ZM-120.0 -68.0C-102.0 -120.0 -89.0 -187.0 -88.0 -229.0L-59.0 -225.0C-63.0 -182.0 -77.0 -114.0 -95.0 -63.0ZM405.0 59.0C425.0 15.0 449.0 -44.0 455.0 -82.0L485.0 -74.0C477.0 -37.0 456.0 23.0 435.0 66.0Z"/></g>
<g fill="red" transform="translate(1600 300) scale(0.1 -0.1)"><path d="M0.0 0.0V-303.0H-21.0V-565.0H105.0V-303.0H84.0V0.0ZM-175.0 59.0V-348.0H247.0V59.0ZM-75.0 -36.0H143.0V-253.0H-75.0ZM275.0 1.0V-119.0H726.0V1.0ZM-197.0 -517.0 -193.0 -638.0C-70.0 -633.0 99.0 -626.0 259.0 -617.0L262.0 -506.0C96.0 -511.0 -79.0 -515.0 -197.0 -517.0ZM-82.0 -87.0C-68.0 -132.0 -57.0 -190.0 -55.0 -229.0L5.0 -209.0C2.0 -172.0 -11.0 -114.0 -26.0 -70.0ZM404.0 68.0C423.0 28.0 442.0 -26.0 448.0 -59.0L588.0 -19.0C580.0 15.0 557.0 66.0 536.0 104.0Z"/></g>
<g fill="black" opacity=".8" transform="translate(1600 300) scale(0.1 -0.1)"><path d="M0.0 0.0V-303.0H-21.0V-565.0H105.0V-303.0H84.0V0.0ZM-175.0 59.0V-348.0H247.0V59.0ZM-75.0 -37.0 144.0 -35.0 143.0 -253.0H-76.0ZM276.0 1.0 275.0 -118.0 726.0 -120.0V-1.0ZM-196.0 -516.0 -193.0 -639.0C-70.0 -633.0 100.0 -627.0 259.0 -618.0L263.0 -507.0C95.0 -513.0 -80.0 -515.0 -196.0 -516.0ZM-82.0 -86.0C-69.0 -132.0 -58.0 -190.0 -54.0 -229.0L5.0 -209.0C2.0 -174.0 -11.0 -114.0 -26.0 -71.0ZM403.0 67.0C424.0 26.0 442.0 -25.0 448.0 -60.0L588.0 -20.0C580.0 15.0 557.0 66.0 536.0 104.0Z"/></g>
<g fill="red" transform="translate(100 400) scale(0.1 -0.1)"><path d="M0.0 0.0V-276.0H1.0V-547.0H28.0V-276.0H29.0V0.0ZM-176.0 9.0V-318.0H196.0V9.0ZM-170.0 -412.0V-441.0H193.0V-412.0ZM-146.0 -20.0H166.0V-288.0H-146.0ZM-201.0 -560.0 -194.0 -590.0C-86.0 -578.0 69.0 -559.0 218.0 -540.0V-512.0C60.0 -531.0 -98.0 -549.0 -201.0 -560.0ZM-118.0 -83.0C-93.0 -134.0 -71.0 -200.0 -63.0 -243.0L-37.0 -236.0C-44.0 -192.0 -67.0 -127.0 -93.0 -76.0ZM109.0 -72.0C97.0 -121.0 70.0 -196.0 50.0 -240.0L73.0 -248.0C94.0 -206.0 119.0 -137.0 139.0 -82.0Z"/></g>
<g fill="black" opacity=".8" transform="translate(100 400) scale(0.1 -0.1)"><path d="M0.0 0.0V-285.0V-548.0H29.0V-285.0H28.0V0.0ZM-180.0 12.0V-311.0H198.0V12.0ZM-173.0 -408.0 -174.0 -436.0H201.0L200.0 -408.0ZM-150.0 -18.0 171.0 -19.0 170.0 -284.0H-151.0ZM-207.0 -554.0 -200.0 -584.0C-91.0 -574.0 71.0 -560.0 226.0 -545.0V-517.0C63.0 -534.0 -100.0 -546.0 -207.0 -554.0ZM-120.0 -79.0C-98.0 -130.0 -80.0 -195.0 -75.0 -238.0L-48.0 -233.0C-54.0 -190.0 -73.0 -124.0 -96.0 -73.0ZM110.0 -71.0C99.0 -118.0 76.0 -194.0 57.0 -238.0L80.0 -247.0C99.0 -204.0 121.0 -134.0 139.0 -80.0Z"/></g>
<g fill="red" transform="translate(200 400) scale(0.1 -0.1)"><path d="M0.0 0.0V-310.0H-15.0V-591.0H103.0V-310.0H88.0V0.0ZM-182.0 49.0V-335.0H274.0V49.0ZM-169.0 -360.0V-473.0H264.0V-360.0ZM-75.0 -54.0H162.0V-232.0H-75.0ZM-203.0 -509.0 -191.0 -621.0C-65.0 -612.0 114.0 -599.0 282.0 -585.0L283.0 -485.0C107.0 -495.0 -82.0 -505.0 -203.0 -509.0ZM-76.0 -95.0C-65.0 -136.0 -56.0 -189.0 -55.0 -224.0L11.0 -198.0C8.0 -164.0 -2.0 -112.0 -14.0 -72.0ZM102.0 -68.0C97.0 -105.0 85.0 -159.0 75.0 -195.0L128.0 -219.0C141.0 -188.0 157.0 -141.0 176.0 -97.0Z"/></g>
<g fill="black" opacity=".8" transform="translate(200 400) scale(0.1 -0.1)"><path d="M0.0 0.0V-306.0H-17.0V-580.0H101.0V-306.0H84.0V0.0ZM-179.0 50.0V-337.0H269.0V50.0ZM-167.0 -364.0V-473.0H258.0V-363.0ZM-70.0 -52.0 158.0 -51.0 157.0 -240.0 -72.0 -241.0ZM-196.0 -508.0 -186.0 -626.0C-63.0 -617.0 113.0 -606.0 276.0 -594.0L277.0 -489.0C105.0 -499.0 -79.0 -505.0 -196.0 -508.0ZM-78.0 -93.0C-66.0 -136.0 -57.0 -190.0 -55.0 -228.0L8.0 -204.0C6.0 -170.0 -5.0 -114.0 -18.0 -74.0ZM100.0 -69.0C96.0 -108.0 82.0 -163.0 71.0 -201.0L122.0 -223.0C136.0 -190.0 153.0 -140.0 172.0 -95.0Z"/></g>
<g fill="red" transform="translate(300 400) scale(0.1 -0.1)"><path d="M0.0 0.0V-170.0V-346.0H30.0V-170.0V0.0ZM-196.0 -245.0V-274.0H224.0V-245.0ZM-192.0 12.0V-192.0H218.0V12.0ZM-162.0 -18.0H189.0V-163.0H-162.0ZM-205.0 -348.0 -200.0 -379.0C-86.0 -369.0 73.0 -355.0 227.0 -340.0L228.0 -314.0C67.0 -327.0 -98.0 -341.0 -205.0 -348.0ZM-121.0 -55.0C-100.0 -86.0 -78.0 -129.0 -70.0 -158.0L-46.0 -146.0C-53.0 -119.0 -75.0 -76.0 -98.0 -46.0ZM134.0 -39.0C121.0 -71.0 94.0 -120.0 75.0 -150.0L96.0 -162.0C117.0 -133.0 141.0 -91.0 160.0 -54.0Z"/></g>
<g fill="black" opacity=".8" transform="translate(300 400) scale(0.1 -0.1)"><path d="M0.0 0.0V-172.0V-347.0H29.0V-172.0H28.0V0.0ZM-197.0 -246.0V-275.0H220.0V-246.0ZM-192.0 8.0 -191.0 -193.0 212.0 -194.0 209.0 7.0ZM-161.0 -15.0 189.0 -17.0 187.0 -165.0 -162.0 -163.0ZM-209.0 -349.0 -204.0 -378.0C-90.0 -368.0 71.0 -356.0 227.0 -342.0V-318.0C64.0 -331.0 -101.0 -343.0 -209.0 -349.0ZM-122.0 -56.0C-101.0 -87.0 -79.0 -129.0 -73.0 -157.0L-49.0 -149.0C-56.0 -121.0 -77.0 -78.0 -100.0 -48.0ZM130.0 -42.0C117.0 -72.0 93.0 -121.0 74.0 -151.0L95.0 -162.0C114.0 -133.0 138.0 -90.0 156.0 -54.0Z"/></g>
<g fill="red" transform="translate(400 400) scale(0.1 -0.1)"><path d="M0.0 0.0V-177.0H-16.0V-357.0H101.0V-177.0H85.0V0.0ZM-166.0 -228.0V-299.0H258.0V-228.0ZM-178.0 16.0V-209.0H268.0V16.0ZM-82.0 -51.0H166.0V-142.0H-82.0ZM-204.0 -329.0 -194.0 -407.0C-67.0 -401.0 108.0 -390.0 276.0 -379.0L277.0 -312.0C101.0 -319.0 -85.0 -326.0 -204.0 -329.0ZM-83.0 -80.0C-71.0 -100.0 -59.0 -127.0 -55.0 -145.0L2.0 -120.0C-2.0 -102.0 -15.0 -76.0 -29.0 -58.0ZM111.0 -56.0C105.0 -74.0 91.0 -103.0 80.0 -123.0L128.0 -142.0C140.0 -125.0 155.0 -104.0 173.0 -79.0Z"/></g>
<g fill="black" opacity=".8" transform="translate(400 400) scale(0.1 -0.1)"><path d="M0.0 0.0V-181.0H-15.0V-362.0H100.0V-181.0H85.0V0.0ZM-171.0 -228.0V-297.0H261.0V-228.0ZM-178.0 20.0 -177.0 -206.0 269.0 -208.0 268.0 20.0ZM-78.0 -47.0H168.0L165.0 -140.0H-83.0ZM-205.0 -325.0 -193.0 -404.0C-68.0 -395.0 111.0 -385.0 279.0 -375.0V-309.0C102.0 -317.0 -87.0 -323.0 -205.0 -325.0ZM-82.0 -79.0C-72.0 -100.0 -61.0 -127.0 -56.0 -146.0L3.0 -122.0C-1.0 -105.0 -14.0 -76.0 -27.0 -59.0ZM110.0 -55.0C105.0 -75.0 92.0 -102.0 81.0 -124.0L131.0 -142.0C142.0 -124.0 158.0 -102.0 175.0 -77.0Z"/></g>
<g fill="red" transform="translate(500 400) scale(0.1 -0.1)"><path d="M0.0 0.0V-300.0V-559.0H30.0V-300.0V0.0ZM-196.0 -409.0V-440.0H202.0V-409.0ZM-180.0 17.0V-310.0H197.0V17.0ZM-151.0 -12.0H168.0V-281.0H-151.0ZM-213.0 -560.0 -210.0 -591.0C-102.0 -583.0 59.0 -570.0 216.0 -557.0L217.0 -530.0C53.0 -542.0 -109.0 -553.0 -213.0 -560.0ZM-120.0 -69.0C-103.0 -120.0 -89.0 -188.0 -87.0 -232.0L-59.0 -225.0C-62.0 -183.0 -76.0 -115.0 -95.0 -64.0ZM107.0 -64.0C97.0 -114.0 76.0 -193.0 60.0 -239.0L82.0 -248.0C99.0 -204.0 119.0 -131.0 136.0 -76.0Z"/></g>
<g fill="black" opacity=".8" transform="translate(500 400) scale(0.1 -0.1)"><path d="M0.0 0.0V-298.0V-560.0H32.0V-298.0V0.0ZM-190.0 -411.0V-441.0H205.0V-411.0ZM-179.0 15.0V-313.0L203.0 -311.0V18.0ZM-151.0 -14.0 169.0 -15.0 172.0 -283.0H-148.0ZM-210.0 -561.0 -206.0 -594.0C-97.0 -585.0 62.0 -572.0 217.0 -558.0V-529.0C55.0 -543.0 -105.0 -554.0 -210.0 -561.0ZM-118.0 -69.0C-100.0 -122.0 -83.0 -190.0 -81.0 -234.0L-52.0 -228.0C-57.0 -184.0 -73.0 -115.0 -94.0 -63.0ZM111.0 -64.0C99.0 -115.0 77.0 -194.0 59.0 -240.0L82.0 -251.0C101.0 -206.0 122.0 -133.0 140.0 -77.0Z"/></g>
<g fill="red" transform="translate(600 400) scale(0.1 -0.1)"><path d="M0.0 0.0V-309.0H-21.0V-577.0H106.0V-309.0H85.0V0.0ZM-169.0 -384.0V-493.0H259.0V-384.0ZM-175.0 50.0V-353.0H267.0V50.0ZM-69.0 -47.0H156.0V-256.0H-69.0ZM-196.0 -528.0 -192.0 -649.0C-66.0 -644.0 108.0 -637.0 273.0 -628.0L276.0 -516.0C106.0 -522.0 -75.0 -526.0 -196.0 -528.0ZM-80.0 -87.0C-66.0 -133.0 -55.0 -192.0 -53.0 -232.0L7.0 -212.0C4.0 -174.0 -9.0 -115.0 -24.0 -70.0ZM111.0 -69.0C104.0 -110.0 87.0 -171.0 73.0 -211.0L124.0 -230.0C140.0 -195.0 160.0 -140.0 180.0 -92.0Z"/></g>
<g fill="black" opacity=".8" transform="translate(600 400) scale(0.1 -0.1)"><path d="M0.0 0.0V-306.0H-21.0V-577.0H106.0V-306.0H85.0V0.0ZM-168.0 -383.0V-492.0H258.0V-383.0ZM-175.0 49.0V-352.0L267.0 -351.0V51.0ZM-76.0 -49.0H154.0L160.0 -254.0L-71.0 -255.0ZM-197.0 -527.0 -192.0 -652.0C-67.0 -645.0 108.0 -637.0 272.0 -628.0L275.0 -516.0C102.0 -523.0 -79.0 -526.0 -197.0 -527.0ZM-80.0 -88.0C-68.0 -133.0 -57.0 -189.0 -52.0 -230.0L8.0 -207.0C5.0 -171.0 -9.0 -112.0 -24.0 -70.0ZM109.0 -69.0C104.0 -110.0 87.0 -168.0 74.0 -208.0L124.0 -229.0C139.0 -194.0 159.0 -140.0 178.0 -93.0Z"/></g>
<g fill="red" transform="translate(700 400) scale(0.1 -0.1)"><path d="M0.0 0.0V-285.0V-557.0H29.0V-285.0V0.0ZM-213.0 9.0V-318.0H232.0V9.0ZM-207.0 -413.0V-442.0H226.0V-413.0ZM-184.0 -20.0H203.0V-288.0H-184.0ZM-248.0 -560.0 -242.0 -591.0C-113.0 -582.0 79.0 -569.0 261.0 -555.0L262.0 -528.0C71.0 -540.0 -126.0 -553.0 -248.0 -560.0ZM-140.0 -83.0C-116.0 -134.0 -93.0 -200.0 -86.0 -243.0L-59.0 -236.0C-67.0 -192.0 -89.0 -127.0 -116.0 -76.0ZM131.0 -72.0C118.0 -121.0 92.0 -196.0 71.0 -240.0L95.0 -248.0C115.0 -206.0 141.0 -137.0 160.0 -82.0Z"/></g>
<g fill="black" opacity=".8" transform="translate(700 400) scale(0.1 -0.1)"><path d="M0.0 0.0V-282.0V-552.0H32.0V-282.0V0.0ZM-212.0 10.0V-316.0H237.0V10.0ZM-208.0 -409.0 -209.0 -440.0 236.0 -439.0 234.0 -408.0ZM-183.0 -21.0H202.0L203.0 -285.0H-181.0ZM-243.0 -557.0 -236.0 -591.0C-107.0 -580.0 81.0 -565.0 261.0 -548.0L262.0 -518.0C72.0 -535.0 -120.0 -549.0 -243.0 -557.0ZM-141.0 -79.0C-115.0 -130.0 -92.0 -196.0 -85.0 -239.0L-55.0 -232.0C-63.0 -188.0 -86.0 -122.0 -114.0 -71.0ZM135.0 -69.0C120.0 -117.0 92.0 -193.0 70.0 -239.0L95.0 -250.0C118.0 -205.0 145.0 -136.0 167.0 -80.0Z"/></g>
<g fill="red" transform="translate(800 400) scale(0.1 -0.1)"><path d="M0.0 0.0V-310.0H-18.0V-591.0H112.0V-310.0H94.0V0.0ZM-213.0 49.0V-335.0H316.0V49.0ZM-197.0 -357.0V-470.0H300.0V-357.0ZM-87.0 -54.0H184.0V-232.0H-87.0ZM-236.0 -503.0 -221.0 -623.0C-76.0 -614.0 128.0 -601.0 319.0 -587.0L321.0 -479.0C121.0 -489.0 -96.0 -499.0 -236.0 -503.0ZM-91.0 -95.0C-78.0 -136.0 -68.0 -189.0 -66.0 -224.0L8.0 -198.0C5.0 -164.0 -6.0 -112.0 -20.0 -72.0ZM114.0 -68.0C108.0 -105.0 94.0 -159.0 83.0 -195.0L144.0 -219.0C159.0 -188.0 177.0 -141.0 198.0 -97.0Z"/></g>
<g fill="black" opacity=".8" transform="translate(800 400) scale(0.1 -0.1)"><path d="M0.0 0.0V-305.0H-18.0V-586.0H115.0V-305.0H97.0V0.0ZM-206.0 48.0V-339.0H312.0V48.0ZM-197.0 -367.0V-474.0H301.0V-365.0ZM-89.0 -58.0H183.0L187.0 -237.0H-86.0ZM-234.0 -510.0 -221.0 -630.0C-78.0 -621.0 128.0 -608.0 320.0 -595.0L322.0 -489.0C120.0 -500.0 -96.0 -507.0 -234.0 -510.0ZM-91.0 -97.0C-78.0 -138.0 -67.0 -190.0 -63.0 -225.0L8.0 -197.0C5.0 -165.0 -8.0 -111.0 -23.0 -74.0ZM117.0 -70.0C111.0 -108.0 96.0 -160.0 83.0 -197.0L142.0 -222.0C156.0 -191.0 176.0 -145.0 198.0 -101.0Z"/></g>
<g fill="red" transform="translate(900 400) scale(0.1 -0.1)"><path d="M0.0 0.0V-299.0V-557.0H29.0V-299.0V0.0ZM-196.0 -409.0V-439.0H202.0V-409.0ZM-181.0 17.0V-309.0H197.0V17.0ZM-151.0 -12.0H167.0V-280.0H-151.0ZM-214.0 -560.0 -211.0 -591.0C-102.0 -583.0 59.0 -570.0 215.0 -557.0L216.0 -530.0C53.0 -542.0 -110.0 -553.0 -214.0 -560.0ZM-121.0 -69.0C-103.0 -120.0 -89.0 -187.0 -88.0 -231.0L-60.0 -225.0C-63.0 -182.0 -77.0 -115.0 -95.0 -64.0ZM107.0 -64.0C97.0 -114.0 75.0 -192.0 59.0 -238.0L81.0 -247.0C99.0 -204.0 118.0 -131.0 135.0 -76.0Z"/></g>
<g fill="black" opacity=".8" transform="translate(900 400) scale(0.1 -0.1)"><path d="M0.0 0.0V-297.0V-559.0H32.0V-297.0V0.0ZM-190.0 -411.0V-441.0H205.0V-411.0ZM-179.0 15.0V-313.0L203.0 -311.0V18.0ZM-151.0 -14.0 169.0 -15.0 172.0 -282.0 -148.0 -283.0ZM-210.0 -561.0 -206.0 -594.0C-97.0 -584.0 61.0 -571.0 216.0 -557.0L217.0 -529.0C54.0 -543.0 -105.0 -554.0 -210.0 -561.0ZM-118.0 -69.0C-100.0 -122.0 -84.0 -190.0 -81.0 -234.0L-52.0 -228.0C-57.0 -184.0 -73.0 -115.0 -94.0 -63.0ZM110.0 -64.0C99.0 -114.0 77.0 -194.0 59.0 -240.0L82.0 -251.0C101.0 -206.0 122.0 -133.0 140.0 -77.0Z"/></g>
<g fill="red" transform="translate(1000 400) scale(0.1 -0.1)"><path d="M0.0 0.0V-309.0H-21.0V-577.0H106.0V-309.0H85.0V0.0ZM-169.0 -384.0V-493.0H259.0V-384.0ZM-175.0 50.0V-353.0H267.0V50.0ZM-69.0 -47.0H156.0V-256.0H-69.0ZM-196.0 -528.0 -192.0 -649.0C-66.0 -644.0 108.0 -637.0 273.0 -628.0L276.0 -516.0C106.0 -522.0 -75.0 -526.0 -196.0 -528.0ZM-80.0 -87.0C-66.0 -133.0 -55.0 -192.0 -53.0 -232.0L7.0 -212.0C4.0 -174.0 -9.0 -115.0 -24.0 -70.0ZM111.0 -69.0C104.0 -110.0 87.0 -171.0 73.0 -211.0L124.0 -230.0C140.0 -195.0 160.0 -140.0 180.0 -92.0Z"/></g>
<g fill="black" opacity=".8" transform="translate(1000 400) scale(0.1 -0.1)"><path d="M0.0 0.0V-306.0H-21.0V-577.0H106.0V-306.0H85.0V0.0ZM-169.0 -384.0V-491.0H258.0V-384.0ZM-175.0 48.0 -176.0 -352.0 267.0 -351.0 266.0 51.0ZM-77.0 -49.0H153.0L161.0 -254.0L-71.0 -255.0ZM-197.0 -527.0 -192.0 -651.0C-68.0 -645.0 107.0 -637.0 271.0 -627.0L274.0 -515.0C102.0 -522.0 -79.0 -525.0 -197.0 -527.0ZM-80.0 -88.0C-68.0 -133.0 -57.0 -189.0 -52.0 -229.0L8.0 -207.0C5.0 -171.0 -9.0 -112.0 -24.0 -70.0ZM109.0 -69.0C104.0 -110.0 87.0 -168.0 73.0 -208.0L124.0 -229.0C139.0 -194.0 159.0 -140.0 178.0 -93.0Z"/></g>
<g fill="red" transform="translate(1100 400) scale(0.1 -0.1)"><path d="M0.0 0.0V-299.0V-557.0H29.0V-299.0V0.0ZM-196.0 -409.0V-439.0H201.0V-409.0ZM-181.0 17.0V-309.0H197.0V17.0ZM-151.0 -12.0H167.0V-280.0H-151.0ZM-214.0 -560.0 -211.0 -591.0C-102.0 -583.0 58.0 -570.0 215.0 -557.0L216.0 -530.0C53.0 -542.0 -110.0 -553.0 -214.0 -560.0ZM-121.0 -69.0C-103.0 -120.0 -90.0 -187.0 -88.0 -231.0L-60.0 -225.0C-63.0 -182.0 -77.0 -115.0 -95.0 -64.0ZM-69.0 -657.0C-62.0 -710.0 -56.0 -779.0 -57.0 -824.0L-28.0 -823.0C-26.0 -778.0 -33.0 -710.0 -41.0 -657.0Z"/></g>
<g fill="black" opacity=".8" transform="translate(1100 400) scale(0.1 -0.1)"><path d="M0.0 0.0V-299.0V-557.0H29.0V-299.0V0.0ZM-190.0 -414.0V-439.0H209.0V-414.0ZM-174.0 13.0 -176.0 -316.0 201.0 -313.0 202.0 15.0ZM-147.0 -14.0 167.0 -15.0 171.0 -284.0H-143.0ZM-212.0 -561.0 -208.0 -592.0C-98.0 -583.0 65.0 -571.0 223.0 -558.0L224.0 -531.0C58.0 -544.0 -106.0 -554.0 -212.0 -561.0ZM-114.0 -70.0C-96.0 -122.0 -82.0 -189.0 -81.0 -232.0L-52.0 -227.0C-55.0 -185.0 -70.0 -116.0 -89.0 -65.0ZM-67.0 -657.0C-56.0 -711.0 -45.0 -782.0 -46.0 -828.0L-18.0 -826.0C-17.0 -779.0 -26.0 -708.0 -40.0 -655.0Z"/></g>
<g fill="red" transform="translate(1200 400) scale(0.1 -0.1)"><path d="M0.0 0.0V-309.0H-21.0V-577.0H104.0V-309.0H84.0V0.0ZM-166.0 -384.0V-493.0H255.0V-384.0ZM-172.0 50.0V-353.0H263.0V50.0ZM-68.0 -47.0H153.0V-256.0H-68.0ZM-193.0 -528.0 -189.0 -649.0C-65.0 -644.0 106.0 -637.0 268.0 -628.0L271.0 -516.0C104.0 -522.0 -74.0 -526.0 -193.0 -528.0ZM-79.0 -87.0C-65.0 -133.0 -54.0 -192.0 -52.0 -232.0L7.0 -212.0C4.0 -174.0 -9.0 -115.0 -24.0 -70.0ZM-49.0 -672.0C-40.0 -729.0 -34.0 -803.0 -36.0 -852.0L53.0 -841.0C53.0 -792.0 46.0 -719.0 35.0 -662.0Z"/></g>
<g fill="black" opacity=".8" transform="translate(1200 400) scale(0.1 -0.1)"><path d="M0.0 0.0V-307.0H-20.0V-574.0H104.0V-307.0H85.0V0.0ZM-168.0 -386.0V-491.0H253.0V-386.0ZM-173.0 48.0 -175.0 -356.0 265.0 -354.0V51.0ZM-73.0 -45.0 147.0 -46.0 156.0 -256.0H-65.0ZM-197.0 -525.0 -191.0 -648.0C-68.0 -642.0 105.0 -636.0 267.0 -627.0L270.0 -514.0C102.0 -520.0 -78.0 -524.0 -197.0 -525.0ZM-79.0 -85.0C-66.0 -132.0 -54.0 -190.0 -51.0 -231.0L8.0 -210.0C6.0 -173.0 -8.0 -113.0 -23.0 -69.0ZM-57.0 -671.0C-47.0 -729.0 -41.0 -802.0 -42.0 -851.0L47.0 -841.0C47.0 -792.0 41.0 -718.0 29.0 -661.0Z"/></g>
<g fill="red" transform="translate(1300 400) scale(0.1 -0.1)"><path d="M0.0 0.0V-300.0V-559.0H29.0V-300.0V0.0ZM-173.0 17.0V-310.0H191.0V17.0ZM-167.0 -409.0V-440.0H203.0V-409.0ZM-143.0 -12.0H162.0V-281.0H-143.0ZM-198.0 -560.0 -195.0 -591.0C-90.0 -583.0 66.0 -571.0 217.0 -558.0L218.0 -530.0C61.0 -543.0 -97.0 -554.0 -198.0 -560.0ZM-114.0 -69.0C-96.0 -120.0 -82.0 -188.0 -80.0 -232.0L-53.0 -225.0C-56.0 -183.0 -70.0 -115.0 -88.0 -64.0ZM113.0 -64.0C103.0 -114.0 81.0 -193.0 66.0 -239.0L87.0 -248.0C105.0 -204.0 123.0 -131.0 140.0 -76.0Z"/></g>
<g fill="black" opacity=".8" transform="translate(1300 400) scale(0.1 -0.1)"><path d="M0.0 0.0V-295.0V-562.0H28.0V-295.0V0.0ZM-169.0 11.0V-318.0H185.0V11.0ZM-163.0 -419.0 -162.0 -447.0 189.0 -448.0 187.0 -420.0ZM-139.0 -12.0 159.0 -13.0V-287.0H-139.0ZM-199.0 -567.0 -194.0 -596.0C-90.0 -587.0 63.0 -574.0 211.0 -560.0V-533.0C56.0 -549.0 -99.0 -560.0 -199.0 -567.0ZM-113.0 -75.0C-92.0 -128.0 -75.0 -194.0 -71.0 -238.0L-45.0 -234.0C-50.0 -190.0 -67.0 -122.0 -89.0 -69.0ZM107.0 -70.0C97.0 -119.0 76.0 -196.0 59.0 -242.0L81.0 -250.0C98.0 -206.0 119.0 -134.0 135.0 -78.0Z"/></g>
<g fill="red" transform="translate(1400 400) scale(0.1 -0.1)"><path d="M0.0 0.0V-309.0H-19.0V-577.0H98.0V-309.0H78.0V0.0ZM-161.0 50.0V-353.0H247.0V50.0ZM-157.0 -383.0V-493.0H238.0V-383.0ZM-63.0 -47.0H144.0V-256.0H-63.0ZM-182.0 -528.0 -178.0 -651.0C-62.0 -646.0 99.0 -639.0 251.0 -630.0L253.0 -516.0C97.0 -522.0 -70.0 -526.0 -182.0 -528.0ZM-74.0 -87.0C-61.0 -133.0 -51.0 -192.0 -49.0 -232.0L6.0 -212.0C3.0 -174.0 -9.0 -115.0 -23.0 -70.0ZM103.0 -69.0C97.0 -110.0 81.0 -171.0 68.0 -211.0L115.0 -230.0C130.0 -195.0 148.0 -140.0 167.0 -92.0Z"/></g>
<g fill="black" opacity=".8" transform="translate(1400 400) scale(0.1 -0.1)"><path d="M0.0 0.0V-316.0H-17.0V-594.0H97.0V-316.0H80.0V0.0ZM-171.0 50.0V-346.0H255.0V50.0ZM-159.0 -373.0 -158.0 -487.0 242.0 -488.0 241.0 -373.0ZM-64.0 -45.0 148.0 -44.0 147.0 -244.0 -66.0 -245.0ZM-189.0 -521.0 -180.0 -642.0C-64.0 -634.0 103.0 -624.0 258.0 -613.0L260.0 -504.0C97.0 -513.0 -77.0 -518.0 -189.0 -521.0ZM-73.0 -87.0C-62.0 -133.0 -53.0 -190.0 -50.0 -230.0L9.0 -207.0C7.0 -171.0 -4.0 -112.0 -16.0 -69.0ZM100.0 -66.0C97.0 -108.0 84.0 -165.0 73.0 -205.0L124.0 -225.0C137.0 -191.0 154.0 -138.0 171.0 -91.0Z"/></g>
<g fill="red" transform="translate(1500 400) scale(0.1 -0.1)"><path d="M0.0 0.0V-300.0V-559.0H30.0V-300.0V0.0ZM-166.0 -409.0V-440.0H180.0V-409.0ZM-152.0 17.0V-310.0H179.0V17.0ZM-125.0 -12.0H151.0V-281.0H-125.0ZM214.0 -814.0 240.0 -835.0C281.0 -751.0 332.0 -628.0 368.0 -531.0L345.0 -511.0C308.0 -614.0 252.0 -741.0 214.0 -814.0ZM-135.0 -646.0C-147.0 -699.0 -169.0 -786.0 -191.0 -838.0L-164.0 -850.0C-144.0 -797.0 -124.0 -712.0 -110.0 -658.0ZM228.0 -2.0C276.0 -33.0 331.0 -81.0 357.0 -116.0L376.0 -93.0C350.0 -58.0 294.0 -11.0 246.0 19.0Z"/></g>
<g fill="black" opacity=".8" transform="translate(1500 400) scale(0.1 -0.1)"><path d="M0.0 0.0V-300.0V-559.0H31.0V-300.0V0.0ZM-166.0 -410.0V-440.0H180.0V-410.0ZM-152.0 17.0 -153.0 -310.0H179.0V17.0ZM-125.0 -11.0H151.0V-280.0L-124.0 -281.0ZM214.0 -814.0 240.0 -834.0C282.0 -750.0 332.0 -628.0 368.0 -531.0L346.0 -511.0C308.0 -615.0 252.0 -741.0 214.0 -814.0ZM-136.0 -645.0C-147.0 -699.0 -169.0 -786.0 -192.0 -837.0L-163.0 -851.0C-144.0 -797.0 -125.0 -712.0 -111.0 -657.0ZM228.0 -2.0C275.0 -33.0 332.0 -81.0 357.0 -117.0L376.0 -94.0C350.0 -57.0 294.0 -11.0 247.0 20.0Z"/></g>
<g fill="red" transform="translate(1600 400) scale(0.1 -0.1)"><path d="M0.0 0.0V-309.0H-17.0V-577.0H90.0V-309.0H72.0V0.0ZM-143.0 -383.0V-493.0H217.0V-383.0ZM-146.0 50.0V-353.0H226.0V50.0ZM-57.0 -47.0H133.0V-256.0H-57.0ZM236.0 -806.0 343.0 -868.0C375.0 -773.0 409.0 -661.0 436.0 -558.0L340.0 -494.0C309.0 -607.0 267.0 -729.0 236.0 -806.0ZM-126.0 -651.0C-139.0 -707.0 -164.0 -781.0 -185.0 -831.0L-100.0 -876.0C-83.0 -825.0 -62.0 -748.0 -47.0 -695.0ZM238.0 -32.0C280.0 -69.0 335.0 -122.0 360.0 -157.0L441.0 -71.0C414.0 -38.0 357.0 12.0 316.0 45.0Z"/></g>
<g fill="black" opacity=".8" transform="translate(1600 400) scale(0.1 -0.1)"><path d="M0.0 0.0V-308.0H-18.0V-577.0H90.0V-308.0H72.0V0.0ZM-143.0 -384.0V-492.0H217.0V-384.0ZM-145.0 49.0 -146.0 -353.0 227.0 -352.0 225.0 50.0ZM-56.0 -47.0H133.0L134.0 -256.0L-57.0 -257.0ZM236.0 -806.0 344.0 -869.0C374.0 -773.0 410.0 -661.0 437.0 -558.0L340.0 -494.0C309.0 -609.0 266.0 -729.0 236.0 -806.0ZM-126.0 -651.0C-140.0 -707.0 -165.0 -780.0 -184.0 -832.0L-100.0 -876.0C-82.0 -826.0 -62.0 -747.0 -47.0 -695.0ZM237.0 -32.0C281.0 -70.0 335.0 -122.0 360.0 -157.0L441.0 -72.0C414.0 -39.0 357.0 12.0 316.0 45.0Z"/></g>
<g fill="red" transform="translate(100 500) scale(0.1 -0.1)"><path d="M0.0 0.0V-300.0V-559.0H30.0V-300.0V0.0ZM-166.0 -409.0V-440.0H179.0V-409.0ZM-153.0 17.0V-310.0H178.0V17.0ZM-125.0 -12.0H152.0V-281.0H-125.0ZM-182.0 -560.0 -179.0 -591.0C-84.0 -583.0 55.0 -570.0 191.0 -557.0L192.0 -530.0C50.0 -542.0 -91.0 -553.0 -182.0 -560.0ZM-102.0 -69.0C-87.0 -120.0 -74.0 -188.0 -73.0 -232.0L-49.0 -225.0C-52.0 -183.0 -64.0 -115.0 -80.0 -64.0ZM94.0 -64.0C85.0 -114.0 67.0 -193.0 53.0 -239.0L72.0 -248.0C87.0 -204.0 104.0 -131.0 119.0 -76.0Z"/></g>
<g fill="black" opacity=".8" transform="translate(100 500) scale(0.1 -0.1)"><path d="M0.0 0.0V-301.0V-559.0H30.0V-301.0H29.0V0.0ZM-167.0 -409.0V-440.0H179.0V-409.0ZM-155.0 17.0 -154.0 -309.0H180.0L178.0 17.0ZM-126.0 -11.0 151.0 -12.0V-281.0L-126.0 -282.0ZM-185.0 -561.0 -181.0 -591.0C-85.0 -583.0 55.0 -570.0 194.0 -558.0V-530.0C49.0 -544.0 -92.0 -554.0 -185.0 -561.0ZM-104.0 -68.0C-88.0 -122.0 -75.0 -189.0 -74.0 -233.0L-47.0 -229.0C-50.0 -185.0 -63.0 -116.0 -81.0 -64.0ZM94.0 -65.0C84.0 -115.0 66.0 -194.0 50.0 -240.0L71.0 -250.0C88.0 -205.0 106.0 -132.0 122.0 -77.0Z"/></g>
<g fill="red" transform="translate(200 500) scale(0.1 -0.1)"><path d="M0.0 0.0V-309.0H-19.0V-577.0H94.0V-309.0H76.0V0.0ZM-150.0 -383.0V-493.0H231.0V-383.0ZM-155.0 50.0V-353.0H239.0V50.0ZM-60.0 -47.0H140.0V-256.0H-60.0ZM-174.0 -528.0 -170.0 -651.0C-58.0 -646.0 97.0 -639.0 243.0 -630.0L246.0 -516.0C95.0 -522.0 -66.0 -526.0 -174.0 -528.0ZM-70.0 -87.0C-58.0 -133.0 -48.0 -192.0 -46.0 -232.0L7.0 -212.0C4.0 -174.0 -7.0 -115.0 -21.0 -70.0ZM99.0 -69.0C93.0 -110.0 78.0 -171.0 65.0 -211.0L111.0 -230.0C125.0 -195.0 143.0 -140.0 160.0 -92.0Z"/></g>
<g fill="black" opacity=".8" transform="translate(200 500) scale(0.1 -0.1)"><path d="M0.0 0.0V-308.0H-21.0V-575.0H96.0V-308.0H76.0V0.0ZM-150.0 -381.0V-492.0H229.0V-381.0ZM-154.0 51.0V-350.0L237.0 -351.0L236.0 52.0ZM-60.0 -44.0H140.0L141.0 -256.0L-60.0 -257.0ZM-172.0 -527.0 -169.0 -651.0C-58.0 -645.0 97.0 -639.0 242.0 -630.0L245.0 -518.0C93.0 -524.0 -67.0 -526.0 -172.0 -527.0ZM-71.0 -84.0C-60.0 -131.0 -50.0 -190.0 -46.0 -231.0L8.0 -212.0C5.0 -175.0 -7.0 -114.0 -21.0 -69.0ZM98.0 -68.0C93.0 -111.0 78.0 -170.0 65.0 -211.0L110.0 -230.0C125.0 -194.0 143.0 -137.0 160.0 -89.0Z"/></g>
<g fill="red" transform="translate(300 500) scale(0.1 -0.1)"><path d="M0.0 0.0V-297.0V-553.0H30.0V-297.0V0.0ZM-161.0 -406.0V-436.0H179.0V-406.0ZM-153.0 18.0V-306.0H183.0V18.0ZM-124.0 -11.0H153.0V-277.0H-124.0ZM-180.0 -557.0 -176.0 -588.0C-80.0 -577.0 60.0 -562.0 198.0 -547.0V-519.0C54.0 -534.0 -87.0 -548.0 -180.0 -557.0ZM-101.0 -67.0C-88.0 -118.0 -74.0 -185.0 -68.0 -228.0L-41.0 -222.0C-47.0 -180.0 -61.0 -114.0 -75.0 -63.0ZM95.0 -62.0C85.0 -112.0 63.0 -190.0 47.0 -235.0L69.0 -244.0C87.0 -201.0 106.0 -129.0 123.0 -74.0Z"/></g>
<g fill="black" opacity=".8" transform="translate(300 500) scale(0.1 -0.1)"><path d="M0.0 0.0V-296.0V-552.0H30.0V-296.0H29.0V0.0ZM-167.0 -404.0V-436.0H182.0V-404.0ZM-154.0 21.0V-303.0H181.0L180.0 20.0ZM-127.0 -8.0 154.0 -7.0 153.0 -272.0 -127.0 -274.0ZM-186.0 -552.0 -183.0 -582.0C-86.0 -574.0 57.0 -562.0 196.0 -550.0L197.0 -523.0C50.0 -536.0 -92.0 -545.0 -186.0 -552.0ZM-104.0 -64.0C-88.0 -116.0 -74.0 -183.0 -72.0 -227.0L-46.0 -222.0C-50.0 -179.0 -63.0 -111.0 -81.0 -59.0ZM97.0 -59.0C87.0 -108.0 68.0 -186.0 52.0 -232.0L73.0 -242.0C90.0 -198.0 108.0 -125.0 125.0 -70.0Z"/></g>
<g fill="red" transform="translate(400 500) scale(0.1 -0.1)"><path d="M0.0 0.0V-303.0H-21.0V-565.0H98.0V-303.0H77.0V0.0ZM-153.0 -375.0V-482.0H235.0V-375.0ZM-156.0 59.0V-342.0H241.0V59.0ZM-66.0 -36.0H147.0V-247.0H-66.0ZM-179.0 -519.0 -175.0 -640.0C-60.0 -635.0 94.0 -628.0 241.0 -620.0L244.0 -509.0C91.0 -513.0 -70.0 -517.0 -179.0 -519.0ZM-74.0 -76.0C-63.0 -122.0 -51.0 -181.0 -47.0 -221.0L9.0 -202.0C5.0 -164.0 -8.0 -106.0 -21.0 -60.0ZM104.0 -58.0C97.0 -99.0 80.0 -160.0 67.0 -200.0L114.0 -217.0C130.0 -182.0 148.0 -126.0 168.0 -79.0Z"/></g>
<g fill="black" opacity=".8" transform="translate(400 500) scale(0.1 -0.1)"><path d="M0.0 0.0V-304.0H-20.0V-568.0H96.0V-304.0H77.0V0.0ZM-149.0 -377.0V-487.0H232.0V-377.0ZM-154.0 54.0 -153.0 -343.0 238.0 -344.0V54.0ZM-59.0 -41.0 143.0 -39.0 141.0 -247.0 -63.0 -250.0ZM-174.0 -518.0 -171.0 -640.0C-59.0 -635.0 98.0 -629.0 245.0 -621.0L248.0 -511.0C94.0 -516.0 -68.0 -518.0 -174.0 -518.0ZM-71.0 -80.0C-60.0 -126.0 -49.0 -183.0 -45.0 -224.0L8.0 -205.0C6.0 -168.0 -7.0 -108.0 -21.0 -64.0ZM100.0 -62.0C95.0 -103.0 79.0 -161.0 67.0 -202.0L112.0 -221.0C126.0 -186.0 145.0 -131.0 163.0 -84.0Z"/></g>
<g fill="red" transform="translate(500 500) scale(0.1 -0.1)"><path d="M0.0 0.0V-300.0V-559.0H30.0V-300.0V0.0ZM-166.0 -409.0V-440.0H180.0V-409.0ZM-152.0 17.0V-310.0H179.0V17.0ZM-125.0 -12.0H151.0V-281.0H-125.0ZM-182.0 -560.0 -179.0 -591.0C-85.0 -583.0 55.0 -570.0 192.0 -557.0V-530.0C50.0 -542.0 -91.0 -553.0 -182.0 -560.0ZM-102.0 -69.0C-87.0 -120.0 -75.0 -188.0 -73.0 -232.0L-49.0 -225.0C-52.0 -183.0 -63.0 -115.0 -80.0 -64.0ZM94.0 -64.0C86.0 -114.0 67.0 -193.0 53.0 -239.0L72.0 -248.0C88.0 -204.0 104.0 -131.0 119.0 -76.0Z"/></g>
<g fill="black" opacity=".8" transform="translate(500 500) scale(0.1 -0.1)"><path d="M0.0 0.0V-301.0V-559.0H30.0V-301.0H29.0V0.0ZM-166.0 -408.0V-440.0H178.0V-408.0ZM-153.0 17.0V-309.0H178.0L177.0 17.0ZM-125.0 -11.0 150.0 -12.0V-281.0L-125.0 -282.0ZM-184.0 -561.0 -180.0 -591.0C-85.0 -583.0 55.0 -570.0 193.0 -558.0V-530.0C49.0 -544.0 -91.0 -554.0 -184.0 -561.0ZM-103.0 -68.0C-87.0 -121.0 -75.0 -189.0 -73.0 -233.0L-47.0 -229.0C-50.0 -185.0 -63.0 -116.0 -80.0 -64.0ZM93.0 -65.0C84.0 -115.0 66.0 -194.0 50.0 -240.0L71.0 -250.0C87.0 -205.0 105.0 -132.0 121.0 -77.0Z"/></g>
<g fill="red" transform="translate(600 500) scale(0.1 -0.1)"><path d="M0.0 0.0V-309.0H-19.0V-577.0H93.0V-309.0H75.0V0.0ZM-148.0 -383.0V-493.0H228.0V-383.0ZM-152.0 50.0V-353.0H236.0V50.0ZM-59.0 -47.0H139.0V-256.0H-59.0ZM-171.0 -528.0 -168.0 -651.0C-57.0 -646.0 96.0 -639.0 241.0 -630.0L244.0 -516.0C94.0 -522.0 -65.0 -526.0 -171.0 -528.0ZM-69.0 -87.0C-56.0 -133.0 -47.0 -192.0 -45.0 -232.0L8.0 -212.0C5.0 -174.0 -6.0 -115.0 -19.0 -70.0ZM98.0 -69.0C92.0 -110.0 77.0 -171.0 65.0 -211.0L110.0 -230.0C124.0 -195.0 141.0 -140.0 159.0 -92.0Z"/></g>
<g fill="black" opacity=".8" transform="translate(600 500) scale(0.1 -0.1)"><path d="M0.0 0.0V-308.0H-21.0V-575.0H96.0V-308.0H76.0V0.0ZM-149.0 -381.0V-492.0H228.0V-381.0ZM-153.0 51.0 -152.0 -351.0H236.0L235.0 52.0ZM-60.0 -44.0H139.0L140.0 -256.0L-60.0 -257.0ZM-171.0 -527.0 -167.0 -651.0C-57.0 -645.0 97.0 -639.0 241.0 -630.0L244.0 -518.0C93.0 -524.0 -66.0 -526.0 -171.0 -527.0ZM-71.0 -84.0C-60.0 -131.0 -50.0 -190.0 -46.0 -231.0L8.0 -212.0C5.0 -175.0 -7.0 -114.0 -21.0 -69.0ZM98.0 -68.0C93.0 -111.0 77.0 -170.0 65.0 -212.0L110.0 -230.0C124.0 -194.0 143.0 -137.0 160.0 -89.0Z"/></g>
<g fill="red" transform="translate(700 500) scale(0.1 -0.1)"><path d="M0.0 0.0V-300.0V-559.0H30.0V-300.0V0.0ZM-151.0 17.0V-310.0H178.0V17.0ZM-125.0 -12.0H150.0V-281.0H-125.0ZM275.0 -158.0V-188.0H673.0V-158.0ZM-181.0 -560.0 -178.0 -591.0C-84.0 -583.0 55.0 -570.0 191.0 -557.0L192.0 -530.0C49.0 -542.0 -91.0 -553.0 -181.0 -560.0ZM-101.0 -69.0C-86.0 -120.0 -74.0 -188.0 -72.0 -232.0L-49.0 -225.0C-52.0 -183.0 -63.0 -115.0 -79.0 -64.0ZM94.0 -64.0C86.0 -114.0 67.0 -193.0 53.0 -239.0L72.0 -248.0C87.0 -204.0 104.0 -131.0 118.0 -76.0Z"/></g>
<g fill="black" opacity=".8" transform="translate(700 500) scale(0.1 -0.1)"><path d="M0.0 0.0V-300.0V-559.0H31.0V-300.0H30.0V0.0ZM-151.0 17.0V-309.0H178.0V17.0ZM-126.0 -13.0 150.0 -12.0 151.0 -280.0 -125.0 -281.0ZM275.0 -157.0 276.0 -188.0 673.0 -187.0 674.0 -158.0ZM-182.0 -560.0 -178.0 -591.0C-84.0 -583.0 55.0 -570.0 191.0 -557.0L192.0 -530.0C48.0 -543.0 -90.0 -553.0 -182.0 -560.0ZM-102.0 -68.0C-86.0 -120.0 -74.0 -187.0 -73.0 -232.0L-49.0 -226.0C-52.0 -183.0 -63.0 -115.0 -81.0 -63.0ZM94.0 -64.0C85.0 -113.0 67.0 -193.0 52.0 -239.0L71.0 -249.0C87.0 -204.0 105.0 -130.0 119.0 -76.0Z"/></g>
<g fill="red" transform="translate(800 500) scale(0.1 -0.1)"><path d="M0.0 0.0V-309.0H-18.0V-577.0H91.0V-309.0H73.0V0.0ZM-149.0 50.0V-353.0H229.0V50.0ZM-58.0 -47.0H134.0V-256.0H-58.0ZM285.0 -118.0V-214.0H739.0V-118.0ZM-167.0 -528.0 -164.0 -651.0C-56.0 -646.0 92.0 -639.0 233.0 -630.0L236.0 -516.0C91.0 -522.0 -64.0 -526.0 -167.0 -528.0ZM-68.0 -87.0C-56.0 -133.0 -46.0 -192.0 -45.0 -232.0L7.0 -212.0C4.0 -174.0 -7.0 -115.0 -20.0 -70.0ZM95.0 -69.0C90.0 -110.0 75.0 -171.0 63.0 -211.0L107.0 -230.0C120.0 -195.0 137.0 -140.0 154.0 -92.0Z"/></g>
<g fill="black" opacity=".8" transform="translate(800 500) scale(0.1 -0.1)"><path d="M0.0 0.0V-309.0H-18.0V-578.0H90.0V-309.0H74.0V0.0ZM-149.0 50.0V-353.0H229.0V50.0ZM-57.0 -48.0 134.0 -46.0V-255.0H-59.0ZM286.0 -119.0 285.0 -214.0H740.0L739.0 -119.0ZM-166.0 -527.0 -163.0 -652.0C-57.0 -646.0 93.0 -639.0 233.0 -630.0L237.0 -517.0C90.0 -523.0 -65.0 -526.0 -166.0 -527.0ZM-68.0 -87.0C-57.0 -134.0 -47.0 -191.0 -44.0 -232.0L7.0 -212.0C4.0 -175.0 -7.0 -115.0 -20.0 -71.0ZM95.0 -69.0C91.0 -111.0 76.0 -170.0 64.0 -212.0L107.0 -231.0C120.0 -195.0 137.0 -140.0 154.0 -92.0Z"/></g>
</svg>
