<?xml version="1.0" encoding="UTF-8"?>
<svg width="1700" height="300" xmlns="http://www.w3.org/2000/svg">
<rect width="100%" height="100%" fill="white"/>
<g fill="green" transform="translate(100 100) scale(0.1 -0.1)"><path d="M0.0 0.0V-470.0H30.0V-29.0H320.0V0.0ZM0.0 -456.0V-485.0H310.0V-456.0ZM17.0 -303.0V-332.0H300.0V-303.0ZM17.0 -152.0V-181.0H300.0V-152.0ZM146.0 -12.0V-466.0H176.0V-12.0ZM296.0 -456.0V-462.0C283.0 -707.0 270.0 -797.0 250.0 -818.0C243.0 -827.0 235.0 -828.0 222.0 -828.0C208.0 -828.0 172.0 -828.0 132.0 -824.0C136.0 -832.0 139.0 -845.0 140.0 -853.0C174.0 -855.0 209.0 -856.0 227.0 -855.0C249.0 -855.0 262.0 -851.0 274.0 -837.0C299.0 -809.0 311.0 -727.0 325.0 -475.0C326.0 -469.0 326.0 -456.0 326.0 -456.0ZM545.0 -63.0C577.0 -89.0 614.0 -126.0 632.0 -152.0L653.0 -133.0C635.0 -109.0 598.0 -72.0 566.0 -48.0Z"/></g>
<g fill="green" transform="translate(200 100) scale(0.1 -0.1)"><path d="M0.0 0.0V-513.0H112.0V-112.0H359.0V0.0ZM0.0 -456.0V-564.0H302.0V-456.0ZM71.0 -305.0V-410.0H346.0V-305.0ZM71.0 -156.0V-261.0H342.0V-156.0ZM158.0 -70.0V-520.0H266.0V-70.0ZM260.0 -456.0V-476.0C257.0 -708.0 254.0 -786.0 243.0 -804.0C236.0 -815.0 229.0 -817.0 219.0 -817.0C207.0 -817.0 190.0 -817.0 168.0 -814.0C183.0 -843.0 194.0 -888.0 196.0 -921.0C229.0 -921.0 261.0 -920.0 281.0 -916.0C306.0 -911.0 324.0 -902.0 341.0 -877.0C363.0 -846.0 367.0 -749.0 371.0 -500.0C372.0 -486.0 372.0 -456.0 372.0 -456.0ZM564.0 -105.0C582.0 -126.0 605.0 -154.0 616.0 -172.0L688.0 -127.0C676.0 -110.0 652.0 -83.0 634.0 -65.0Z"/></g>
<g fill="green" transform="translate(300 100) scale(0.1 -0.1)"><path d="M0.0 0.0V-470.0H30.0V-29.0H320.0V0.0ZM0.0 -456.0V-485.0H310.0V-456.0ZM17.0 -303.0V-332.0H300.0V-303.0ZM17.0 -152.0V-181.0H300.0V-152.0ZM146.0 -12.0V-466.0H176.0V-12.0ZM296.0 -456.0V-462.0C283.0 -707.0 270.0 -797.0 250.0 -818.0C243.0 -827.0 235.0 -828.0 222.0 -828.0C208.0 -828.0 172.0 -828.0 132.0 -824.0C136.0 -832.0 139.0 -845.0 140.0 -853.0C174.0 -855.0 209.0 -856.0 227.0 -855.0C249.0 -855.0 262.0 -851.0 274.0 -837.0C299.0 -809.0 311.0 -727.0 325.0 -475.0C326.0 -469.0 326.0 -456.0 326.0 -456.0ZM545.0 -63.0C577.0 -89.0 614.0 -126.0 632.0 -152.0L653.0 -133.0C635.0 -109.0 598.0 -72.0 566.0 -48.0Z"/></g>
<g fill="green" transform="translate(400 100) scale(0.1 -0.1)"><path d="M0.0 0.0V-513.0H112.0V-112.0H359.0V0.0ZM0.0 -456.0V-564.0H302.0V-456.0ZM71.0 -305.0V-410.0H346.0V-305.0ZM71.0 -156.0V-261.0H342.0V-156.0ZM158.0 -70.0V-520.0H266.0V-70.0ZM260.0 -456.0V-476.0C257.0 -708.0 254.0 -786.0 243.0 -804.0C236.0 -815.0 229.0 -817.0 219.0 -817.0C207.0 -817.0 190.0 -817.0 168.0 -814.0C183.0 -843.0 194.0 -888.0 196.0 -921.0C229.0 -921.0 261.0 -920.0 281.0 -916.0C306.0 -911.0 324.0 -902.0 341.0 -877.0C363.0 -846.0 367.0 -749.0 371.0 -500.0C372.0 -486.0 372.0 -456.0 372.0 -456.0ZM564.0 -105.0C582.0 -126.0 605.0 -154.0 616.0 -172.0L688.0 -127.0C676.0 -110.0 652.0 -83.0 634.0 -65.0Z"/></g>
<g fill="red" transform="translate(100 200) scale(0.1 -0.1)"><path d="M0.0 0.0V-470.0H30.0V-29.0H320.0V0.0ZM0.0 -456.0V-485.0H310.0V-456.0ZM17.0 -303.0V-332.0H300.0V-303.0ZM17.0 -152.0V-181.0H300.0V-152.0ZM146.0 -12.0V-466.0H176.0V-12.0ZM296.0 -456.0V-462.0C283.0 -707.0 270.0 -797.0 250.0 -818.0C243.0 -827.0 235.0 -828.0 222.0 -828.0C208.0 -828.0 172.0 -828.0 132.0 -824.0C136.0 -832.0 139.0 -845.0 140.0 -853.0C174.0 -855.0 209.0 -856.0 227.0 -855.0C249.0 -855.0 262.0 -851.0 274.0 -837.0C299.0 -809.0 311.0 -727.0 325.0 -475.0C326.0 -469.0 326.0 -456.0 326.0 -456.0ZM545.0 -63.0C577.0 -89.0 614.0 -126.0 632.0 -152.0L653.0 -133.0C635.0 -109.0 598.0 -72.0 566.0 -48.0Z"/></g>
<g fill="black" opacity=".8" transform="translate(100 200) scale(0.1 -0.1)"><path d="M0.0 0.0V-470.0H30.0V-29.0H320.0V0.0ZM0.0 -456.0V-485.0H310.0V-456.0ZM17.0 -303.0V-332.0H300.0V-303.0ZM17.0 -152.0V-181.0H300.0V-152.0ZM146.0 -12.0V-466.0H176.0V-12.0ZM296.0 -456.0V-462.0C283.0 -707.0 270.0 -797.0 250.0 -818.0C243.0 -827.0 235.0 -828.0 222.0 -828.0C208.0 -828.0 172.0 -828.0 132.0 -824.0C136.0 -832.0 139.0 -845.0 140.0 -853.0C174.0 -855.0 209.0 -856.0 227.0 -855.0C249.0 -855.0 262.0 -851.0 274.0 -837.0C299.0 -809.0 311.0 -727.0 325.0 -475.0C326.0 -469.0 326.0 -456.0 326.0 -456.0ZM545.0 -63.0C577.0 -89.0 614.0 -126.0 632.0 -152.0L653.0 -133.0C635.0 -109.0 598.0 -72.0 566.0 -48.0Z"/></g>
<g fill="red" transform="translate(200 200) scale(0.1 -0.1)"><path d="M0.0 0.0V-513.0H112.0V-112.0H359.0V0.0ZM0.0 -456.0V-564.0H302.0V-456.0ZM71.0 -305.0V-410.0H346.0V-305.0ZM71.0 -156.0V-261.0H342.0V-156.0ZM158.0 -70.0V-520.0H266.0V-70.0ZM260.0 -456.0V-476.0C257.0 -708.0 254.0 -786.0 243.0 -804.0C236.0 -815.0 229.0 -817.0 219.0 -817.0C207.0 -817.0 190.0 -817.0 168.0 -814.0C183.0 -843.0 194.0 -888.0 196.0 -921.0C229.0 -921.0 261.0 -920.0 281.0 -916.0C306.0 -911.0 324.0 -902.0 341.0 -877.0C363.0 -846.0 367.0 -749.0 371.0 -500.0C372.0 -486.0 372.0 -456.0 372.0 -456.0ZM564.0 -105.0C582.0 -126.0 605.0 -154.0 616.0 -172.0L688.0 -127.0C676.0 -110.0 652.0 -83.0 634.0 -65.0Z"/></g>
<g fill="black" opacity=".8" transform="translate(200 200) scale(0.1 -0.1)"><path d="M0.0 0.0V-513.0H112.0V-112.0H359.0V0.0ZM0.0 -456.0V-564.0H302.0V-456.0ZM71.0 -305.0V-410.0H346.0V-305.0ZM71.0 -156.0V-261.0H342.0V-156.0ZM158.0 -70.0V-520.0H266.0V-70.0ZM260.0 -456.0V-476.0C257.0 -708.0 254.0 -786.0 243.0 -804.0C236.0 -815.0 229.0 -817.0 219.0 -817.0C207.0 -817.0 190.0 -817.0 168.0 -814.0C183.0 -843.0 194.0 -888.0 196.0 -921.0C229.0 -921.0 261.0 -920.0 281.0 -916.0C306.0 -911.0 324.0 -902.0 341.0 -877.0C363.0 -846.0 367.0 -749.0 371.0 -500.0C372.0 -486.0 372.0 -456.0 372.0 -456.0ZM564.0 -105.0C582.0 -126.0 605.0 -154.0 616.0 -172.0L688.0 -127.0C676.0 -110.0 652.0 -83.0 634.0 -65.0Z"/></g>
</svg>
