<?xml version="1.0" encoding="UTF-8"?>
<svg width="1700" height="300" xmlns="http://www.w3.org/2000/svg">
<rect width="100%" height="100%" fill="white"/>
<g fill="green" transform="translate(100 100) scale(0.1 -0.1)"><path d="M0.0 0.0V-30.0H81.0H474.0H552.0V0.0H474.0H81.0ZM-300.0 -6.0V-35.0H-72.0V-323.0H-300.0V-352.0H-43.0V-6.0ZM-196.0 -17.0V-333.0V-605.0H-166.0V-333.0V-17.0ZM28.0 -204.0V-349.0H511.0V-204.0ZM57.0 -233.0H481.0V-320.0H57.0ZM59.0 103.0V-136.0H474.0V103.0ZM88.0 73.0H445.0V-107.0H88.0ZM250.0 180.0V-331.0H279.0V180.0Z"/></g>
<g fill="green" transform="translate(200 100) scale(0.1 -0.1)"><path d="M0.0 0.0V-103.0H126.0V-91.0H449.0V-103.0H576.0V0.0H449.0V-12.0H126.0V0.0ZM-266.0 -34.0V-151.0H-106.0V-311.0H-266.0V-428.0H-13.0V-34.0ZM-212.0 -86.0V-367.0H-231.0V-625.0H-116.0V-367.0H-135.0V-86.0ZM28.0 -224.0V-418.0H572.0V-224.0ZM156.0 -309.0H438.0V-334.0H156.0ZM63.0 97.0V-200.0H537.0V97.0ZM178.0 14.0H416.0V-116.0H178.0ZM231.0 143.0V-366.0H362.0V143.0Z"/></g>
<g fill="green" transform="translate(300 100) scale(0.1 -0.1)"><path d="M0.0 0.0V-30.0H81.0H474.0H552.0V0.0H474.0H81.0ZM-300.0 -6.0V-35.0H-72.0V-323.0H-300.0V-352.0H-43.0V-6.0ZM-196.0 -17.0V-333.0V-605.0H-166.0V-333.0V-17.0ZM28.0 -204.0V-349.0H511.0V-204.0ZM57.0 -233.0H481.0V-320.0H57.0ZM59.0 103.0V-136.0H474.0V103.0ZM88.0 73.0H445.0V-107.0H88.0ZM250.0 180.0V-331.0H279.0V180.0Z"/></g>
<g fill="green" transform="translate(400 100) scale(0.1 -0.1)"><path d="M0.0 0.0V-103.0H126.0V-91.0H449.0V-103.0H576.0V0.0H449.0V-12.0H126.0V0.0ZM-266.0 -34.0V-151.0H-106.0V-311.0H-266.0V-428.0H-13.0V-34.0ZM-212.0 -86.0V-367.0H-231.0V-625.0H-116.0V-367.0H-135.0V-86.0ZM28.0 -224.0V-418.0H572.0V-224.0ZM156.0 -309.0H438.0V-334.0H156.0ZM63.0 97.0V-200.0H537.0V97.0ZM178.0 14.0H416.0V-116.0H178.0ZM231.0 143.0V-366.0H362.0V143.0Z"/></g>
<g fill="red" transform="translate(100 200) scale(0.1 -0.1)"><path d="M0.0 0.0V-30.0H81.0H474.0H552.0V0.0H474.0H81.0ZM-300.0 -6.0V-35.0H-72.0V-323.0H-300.0V-352.0H-43.0V-6.0ZM-196.0 -17.0V-333.0V-605.0H-166.0V-333.0V-17.0ZM28.0 -204.0V-349.0H511.0V-204.0ZM57.0 -233.0H481.0V-320.0H57.0ZM59.0 103.0V-136.0H474.0V103.0ZM88.0 73.0H445.0V-107.0H88.0ZM250.0 180.0V-331.0H279.0V180.0Z"/></g>
<g fill="black" opacity=".8" transform="translate(100 200) scale(0.1 -0.1)"><path d="M0.0 0.0V-30.0H81.0H474.0H552.0V0.0H474.0H81.0ZM-300.0 -6.0V-35.0H-72.0V-323.0H-300.0V-352.0H-43.0V-6.0ZM-196.0 -17.0V-333.0V-605.0H-166.0V-333.0V-17.0ZM28.0 -204.0V-349.0H511.0V-204.0ZM57.0 -233.0H481.0V-320.0H57.0ZM59.0 103.0V-136.0H474.0V103.0ZM88.0 73.0H445.0V-107.0H88.0ZM250.0 180.0V-331.0H279.0V180.0Z"/></g>
<g fill="red" transform="translate(200 200) scale(0.1 -0.1)"><path d="M0.0 0.0V-103.0H126.0V-91.0H449.0V-103.0H576.0V0.0H449.0V-12.0H126.0V0.0ZM-266.0 -34.0V-151.0H-106.0V-311.0H-266.0V-428.0H-13.0V-34.0ZM-212.0 -86.0V-367.0H-231.0V-625.0H-116.0V-367.0H-135.0V-86.0ZM28.0 -224.0V-418.0H572.0V-224.0ZM156.0 -309.0H438.0V-334.0H156.0ZM63.0 97.0V-200.0H537.0V97.0ZM178.0 14.0H416.0V-116.0H178.0ZM231.0 143.0V-366.0H362.0V143.0Z"/></g>
<g fill="black" opacity=".8" transform="translate(200 200) scale(0.1 -0.1)"><path d="M0.0 0.0V-103.0H126.0V-91.0H449.0V-103.0H576.0V0.0H449.0V-12.0H126.0V0.0ZM-266.0 -34.0V-151.0H-106.0V-311.0H-266.0V-428.0H-13.0V-34.0ZM-212.0 -86.0V-367.0H-231.0V-625.0H-116.0V-367.0H-135.0V-86.0ZM28.0 -224.0V-418.0H572.0V-224.0ZM156.0 -309.0H438.0V-334.0H156.0ZM63.0 97.0V-200.0H537.0V97.0ZM178.0 14.0H416.0V-116.0H178.0ZM231.0 143.0V-366.0H362.0V143.0Z"/></g>
</svg>
