<?xml version="1.0" encoding="UTF-8"?>
<svg width="1700" height="300" xmlns="http://www.w3.org/2000/svg">
<rect width="100%" height="100%" fill="white"/>
<g fill="green" transform="translate(100 100) scale(0.1 -0.1)"><path d="M0.0 0.0V-30.0H629.0V0.0ZM410.0 357.0V-542.0H439.0V357.0ZM186.0 346.0V2.0C186.0 -160.0 181.0 -388.0 -18.0 -519.0C-11.0 -525.0 -2.0 -536.0 1.0 -542.0C204.0 -400.0 214.0 -168.0 214.0 2.0V346.0ZM22.0 265.0C53.0 205.0 86.0 127.0 99.0 75.0L128.0 87.0C114.0 138.0 82.0 216.0 49.0 276.0ZM258.0 -131.0C288.0 -195.0 314.0 -278.0 323.0 -334.0L353.0 -322.0C344.0 -268.0 316.0 -185.0 286.0 -121.0ZM498.0 -128.0C526.0 -192.0 554.0 -276.0 564.0 -331.0L593.0 -318.0C582.0 -264.0 554.0 -180.0 524.0 -116.0ZM71.0 -110.0C58.0 -191.0 40.0 -269.0 6.0 -325.0C13.0 -329.0 27.0 -337.0 32.0 -341.0C64.0 -284.0 87.0 -199.0 102.0 -115.0Z"/></g>
<g fill="green" transform="translate(200 100) scale(0.1 -0.1)"><path d="M0.0 0.0V-123.0H684.0V0.0ZM413.0 335.0V-615.0H538.0V335.0ZM182.0 329.0V3.0C182.0 -153.0 173.0 -390.0 29.0 -526.0C61.0 -548.0 106.0 -592.0 125.0 -618.0C286.0 -451.0 308.0 -190.0 308.0 3.0V329.0ZM-1.0 229.0C41.0 158.0 78.0 62.0 88.0 -1.0L198.0 48.0C185.0 111.0 147.0 203.0 102.0 273.0ZM271.0 -170.0C295.0 -246.0 318.0 -347.0 324.0 -412.0L440.0 -378.0C431.0 -313.0 407.0 -216.0 380.0 -140.0ZM493.0 -180.0C532.0 -252.0 565.0 -349.0 573.0 -413.0L684.0 -362.0C673.0 -298.0 638.0 -204.0 595.0 -133.0ZM43.0 -129.0C33.0 -225.0 14.0 -328.0 -18.0 -393.0C10.0 -404.0 61.0 -427.0 84.0 -443.0C116.0 -371.0 142.0 -257.0 155.0 -149.0Z"/></g>
<g fill="green" transform="translate(300 100) scale(0.1 -0.1)"><path d="M0.0 0.0V-30.0H629.0V0.0ZM410.0 357.0V-542.0H439.0V357.0ZM186.0 346.0V2.0C186.0 -160.0 181.0 -388.0 -18.0 -519.0C-11.0 -525.0 -2.0 -536.0 1.0 -542.0C204.0 -400.0 214.0 -168.0 214.0 2.0V346.0ZM22.0 265.0C53.0 205.0 86.0 127.0 99.0 75.0L128.0 87.0C114.0 138.0 82.0 216.0 49.0 276.0ZM258.0 -131.0C288.0 -195.0 314.0 -278.0 323.0 -334.0L353.0 -322.0C344.0 -268.0 316.0 -185.0 286.0 -121.0ZM498.0 -128.0C526.0 -192.0 554.0 -276.0 564.0 -331.0L593.0 -318.0C582.0 -264.0 554.0 -180.0 524.0 -116.0ZM71.0 -110.0C58.0 -191.0 40.0 -269.0 6.0 -325.0C13.0 -329.0 27.0 -337.0 32.0 -341.0C64.0 -284.0 87.0 -199.0 102.0 -115.0Z"/></g>
<g fill="green" transform="translate(400 100) scale(0.1 -0.1)"><path d="M0.0 0.0V-123.0H684.0V0.0ZM413.0 335.0V-615.0H538.0V335.0ZM182.0 329.0V3.0C182.0 -153.0 173.0 -390.0 29.0 -526.0C61.0 -548.0 106.0 -592.0 125.0 -618.0C286.0 -451.0 308.0 -190.0 308.0 3.0V329.0ZM-1.0 229.0C41.0 158.0 78.0 62.0 88.0 -1.0L198.0 48.0C185.0 111.0 147.0 203.0 102.0 273.0ZM271.0 -170.0C295.0 -246.0 318.0 -347.0 324.0 -412.0L440.0 -378.0C431.0 -313.0 407.0 -216.0 380.0 -140.0ZM493.0 -180.0C532.0 -252.0 565.0 -349.0 573.0 -413.0L684.0 -362.0C673.0 -298.0 638.0 -204.0 595.0 -133.0ZM43.0 -129.0C33.0 -225.0 14.0 -328.0 -18.0 -393.0C10.0 -404.0 61.0 -427.0 84.0 -443.0C116.0 -371.0 142.0 -257.0 155.0 -149.0Z"/></g>
<g fill="red" transform="translate(100 200) scale(0.1 -0.1)"><path d="M0.0 0.0V-30.0H629.0V0.0ZM410.0 357.0V-542.0H439.0V357.0ZM186.0 346.0V2.0C186.0 -160.0 181.0 -388.0 -18.0 -519.0C-11.0 -525.0 -2.0 -536.0 1.0 -542.0C204.0 -400.0 214.0 -168.0 214.0 2.0V346.0ZM22.0 265.0C53.0 205.0 86.0 127.0 99.0 75.0L128.0 87.0C114.0 138.0 82.0 216.0 49.0 276.0ZM258.0 -131.0C288.0 -195.0 314.0 -278.0 323.0 -334.0L353.0 -322.0C344.0 -268.0 316.0 -185.0 286.0 -121.0ZM498.0 -128.0C526.0 -192.0 554.0 -276.0 564.0 -331.0L593.0 -318.0C582.0 -264.0 554.0 -180.0 524.0 -116.0ZM71.0 -110.0C58.0 -191.0 40.0 -269.0 6.0 -325.0C13.0 -329.0 27.0 -337.0 32.0 -341.0C64.0 -284.0 87.0 -199.0 102.0 -115.0Z"/></g>
<g fill="black" opacity=".8" transform="translate(100 200) scale(0.1 -0.1)"><path d="M0.0 0.0V-30.0H629.0V0.0ZM410.0 357.0V-542.0H439.0V357.0ZM186.0 346.0V2.0C186.0 -160.0 181.0 -388.0 -18.0 -519.0C-11.0 -525.0 -2.0 -536.0 1.0 -542.0C204.0 -400.0 214.0 -168.0 214.0 2.0V346.0ZM22.0 265.0C53.0 205.0 86.0 127.0 99.0 75.0L128.0 87.0C114.0 138.0 82.0 216.0 49.0 276.0ZM258.0 -131.0C288.0 -195.0 314.0 -278.0 323.0 -334.0L353.0 -322.0C344.0 -268.0 316.0 -185.0 286.0 -121.0ZM498.0 -128.0C526.0 -192.0 554.0 -276.0 564.0 -331.0L593.0 -318.0C582.0 -264.0 554.0 -180.0 524.0 -116.0ZM71.0 -110.0C58.0 -191.0 40.0 -269.0 6.0 -325.0C13.0 -329.0 27.0 -337.0 32.0 -341.0C64.0 -284.0 87.0 -199.0 102.0 -115.0Z"/></g>
<g fill="red" transform="translate(200 200) scale(0.1 -0.1)"><path d="M0.0 0.0V-123.0H684.0V0.0ZM413.0 335.0V-615.0H538.0V335.0ZM182.0 329.0V3.0C182.0 -153.0 173.0 -390.0 29.0 -526.0C61.0 -548.0 106.0 -592.0 125.0 -618.0C286.0 -451.0 308.0 -190.0 308.0 3.0V329.0ZM-1.0 229.0C41.0 158.0 78.0 62.0 88.0 -1.0L198.0 48.0C185.0 111.0 147.0 203.0 102.0 273.0ZM271.0 -170.0C295.0 -246.0 318.0 -347.0 324.0 -412.0L440.0 -378.0C431.0 -313.0 407.0 -216.0 380.0 -140.0ZM493.0 -180.0C532.0 -252.0 565.0 -349.0 573.0 -413.0L684.0 -362.0C673.0 -298.0 638.0 -204.0 595.0 -133.0ZM43.0 -129.0C33.0 -225.0 14.0 -328.0 -18.0 -393.0C10.0 -404.0 61.0 -427.0 84.0 -443.0C116.0 -371.0 142.0 -257.0 155.0 -149.0Z"/></g>
<g fill="black" opacity=".8" transform="translate(200 200) scale(0.1 -0.1)"><path d="M0.0 0.0V-123.0H684.0V0.0ZM413.0 335.0V-615.0H538.0V335.0ZM182.0 329.0V3.0C182.0 -153.0 173.0 -390.0 29.0 -526.0C61.0 -548.0 106.0 -592.0 125.0 -618.0C286.0 -451.0 308.0 -190.0 308.0 3.0V329.0ZM-1.0 229.0C41.0 158.0 78.0 62.0 88.0 -1.0L198.0 48.0C185.0 111.0 147.0 203.0 102.0 273.0ZM271.0 -170.0C295.0 -246.0 318.0 -347.0 324.0 -412.0L440.0 -378.0C431.0 -313.0 407.0 -216.0 380.0 -140.0ZM493.0 -180.0C532.0 -252.0 565.0 -349.0 573.0 -413.0L684.0 -362.0C673.0 -298.0 638.0 -204.0 595.0 -133.0ZM43.0 -129.0C33.0 -225.0 14.0 -328.0 -18.0 -393.0C10.0 -404.0 61.0 -427.0 84.0 -443.0C116.0 -371.0 142.0 -257.0 155.0 -149.0Z"/></g>
</svg>
