<?xml version="1.0" encoding="UTF-8"?>
<svg width="1700" height="1400" xmlns="http://www.w3.org/2000/svg">
<rect width="100%" height="100%" fill="white"/>
<g fill="green" transform="translate(100 100) scale(0.1 -0.1)"><path d="M-0.0 0.0V-126.0H-15.0V0.0ZM345.0 101.0 382.0 537.0 351.0 506.0 314.0 69.0Z"/></g>
<g fill="green" transform="translate(200 100) scale(0.1 -0.1)"><path d="M0.0 0.0V-68.0H-83.0V0.0ZM327.0 106.0 347.0 700.0 289.0 690.0 270.0 96.0Z"/></g>
<g fill="green" transform="translate(300 100) scale(0.1 -0.1)"><path d="M0.0 0.0V-534.0H92.0V0.0ZM780.0 168.0 825.0 207.0 846.0 168.0 801.0 129.0Z"/></g>
<g fill="green" transform="translate(400 100) scale(0.1 -0.1)"><path d="M0.0 0.0V-581.0H146.0V0.0ZM774.0 161.0 797.0 287.0 937.0 275.0 915.0 148.0Z"/></g>
<g fill="green" transform="translate(500 100) scale(0.1 -0.1)"><path d="M0.0 0.0V-328.0H-268.0V0.0ZM151.0 -273.0 179.0 218.0 159.0 198.0 131.0 -294.0Z"/></g>
<g fill="green" transform="translate(600 100) scale(0.1 -0.1)"><path d="M0.0 0.0V-285.0H-296.0V0.0ZM183.0 -231.0 201.0 310.0 136.0 304.0 120.0 -237.0Z"/></g>
<g fill="green" transform="translate(700 100) scale(0.1 -0.1)"><path d="M0.0 0.0V-226.0H412.0V0.0ZM3.0 406.0 21.0 388.0 59.0 387.0 40.0 404.0Z"/></g>
<g fill="green" transform="translate(800 100) scale(0.1 -0.1)"><path d="M0.0 0.0V-320.0H431.0V0.0ZM-27.0 358.0 -7.0 407.0H165.0L147.0 358.0Z"/></g>
<g fill="green" transform="translate(900 100) scale(0.1 -0.1)"><path d="M0.0 0.0V271.0H213.0V0.0ZM400.0 -62.0 452.0 285.0 423.0 242.0 372.0 -106.0Z"/></g>
<g fill="green" transform="translate(1000 100) scale(0.1 -0.1)"><path d="M0.0 0.0V303.0H86.0V0.0ZM376.0 -46.0 403.0 445.0 343.0 431.0 316.0 -60.0Z"/></g>
<g fill="green" transform="translate(1100 100) scale(0.1 -0.1)"><path d="M0.0 0.0V-20.0H-246.0V0.0ZM339.0 278.0 304.0 370.0 297.0 391.0 332.0 299.0Z"/></g>
<g fill="green" transform="translate(1200 100) scale(0.1 -0.1)"><path d="M0.0 0.0V27.0H-241.0V0.0ZM336.0 356.0 313.0 528.0 337.0 535.0 361.0 363.0Z"/></g>
<g fill="green" transform="translate(1300 100) scale(0.1 -0.1)"><path d="M-0.0 0.0V-141.0H34.0V0.0ZM408.0 114.0 413.0 504.0 367.0 500.0 362.0 110.0Z"/></g>
<g fill="green" transform="translate(1400 100) scale(0.1 -0.1)"><path d="M0.0 0.0V-71.0H-132.0V0.0ZM330.0 103.0 333.0 682.0 204.0 681.0 202.0 102.0Z"/></g>
<g fill="green" transform="translate(1500 100) scale(0.1 -0.1)"><path d="M-0.0 0.0V-102.0H-19.0V0.0ZM291.0 159.0 448.0 596.0 401.0 471.0 244.0 33.0Z"/></g>
<g fill="green" transform="translate(1600 100) scale(0.1 -0.1)"><path d="M0.0 0.0V-92.0H-90.0V0.0ZM345.0 141.0 434.0 685.0 272.0 644.0 184.0 100.0Z"/></g>
<g fill="green" transform="translate(100 200) scale(0.1 -0.1)"><path d="M0.0 0.0V-175.0H-30.0V0.0ZM340.0 107.0 408.0 500.0 371.0 458.0 302.0 64.0Z"/></g>
<g fill="green" transform="translate(200 200) scale(0.1 -0.1)"><path d="M0.0 0.0V-24.0H-61.0V0.0ZM303.0 117.0 350.0 727.0 291.0 714.0 245.0 104.0Z"/></g>
<g fill="green" transform="translate(300 200) scale(0.1 -0.1)"><path d="M0.0 0.0V-124.0H-41.0V0.0ZM367.0 82.0 404.0 570.0 381.0 534.0 344.0 46.0Z"/></g>
<g fill="green" transform="translate(400 200) scale(0.1 -0.1)"><path d="M0.0 0.0V-66.0H-58.0V0.0ZM294.0 123.0 310.0 676.0 272.0 664.0 257.0 112.0Z"/></g>
<g fill="green" transform="translate(500 200) scale(0.1 -0.1)"><path d="M-0.0 0.0V-142.0H-32.0V0.0ZM358.0 121.0 374.0 553.0 326.0 529.0 310.0 96.0Z"/></g>
<g fill="green" transform="translate(600 200) scale(0.1 -0.1)"><path d="M0.0 0.0V-49.0H-61.0V0.0ZM367.0 81.0 368.0 679.0 265.0 671.0 264.0 73.0Z"/></g>
<g fill="green" transform="translate(700 200) scale(0.1 -0.1)"><path d="M0.0 0.0V-123.0H-18.0V0.0ZM343.0 129.0 389.0 544.0 362.0 498.0 316.0 81.0Z"/></g>
<g fill="green" transform="translate(800 200) scale(0.1 -0.1)"><path d="M0.0 0.0V-69.0H-86.0V0.0ZM311.0 88.0 330.0 703.0 296.0 687.0 277.0 73.0Z"/></g>
<g fill="red" transform="translate(100 300) scale(0.1 -0.1)"><path d="M0.0 0.0V-244.0H29.0V0.0ZM194.0 0.0V-244.0H223.0V0.0Z"/></g>
<g fill="black" opacity=".8" transform="translate(100 300) scale(0.1 -0.1)"><path d="M0.0 0.0V-248.0H33.0V0.0ZM186.0 -0.0 188.0 -239.0 227.0 -241.0 225.0 -2.0Z"/></g>
<g fill="red" transform="translate(200 300) scale(0.1 -0.1)"><path d="M0.0 0.0V-311.0H136.0V0.0ZM174.0 1.0V-310.0H311.0V1.0Z"/></g>
<g fill="black" opacity=".8" transform="translate(200 300) scale(0.1 -0.1)"><path d="M0.0 0.0V-306.0H132.0V0.0ZM175.0 2.0 174.0 -313.0 312.0 -314.0 313.0 2.0Z"/></g>
<g fill="red" transform="translate(300 300) scale(0.1 -0.1)"><path d="M0.0 0.0V-159.0H29.0V0.0ZM142.0 0.0V-159.0H171.0V0.0Z"/></g>
<g fill="black" opacity=".8" transform="translate(300 300) scale(0.1 -0.1)"><path d="M0.0 0.0V-159.0H30.0V0.0ZM142.0 -0.0V-158.0L170.0 -159.0L169.0 -1.0Z"/></g>
<g fill="red" transform="translate(400 300) scale(0.1 -0.1)"><path d="M0.0 0.0V-185.0H113.0V0.0ZM148.0 -5.0V-185.0H261.0V-5.0Z"/></g>
<g fill="black" opacity=".8" transform="translate(400 300) scale(0.1 -0.1)"><path d="M0.0 0.0V-184.0H113.0V0.0ZM148.0 -5.0V-185.0L260.0 -186.0L262.0 -5.0Z"/></g>
<g fill="red" transform="translate(500 300) scale(0.1 -0.1)"><path d="M0.0 0.0V-199.0H29.0V0.0ZM140.0 0.0V-199.0H169.0V0.0Z"/></g>
<g fill="black" opacity=".8" transform="translate(500 300) scale(0.1 -0.1)"><path d="M0.0 0.0V-200.0H31.0V0.0ZM136.0 -0.0V-197.0L171.0 -198.0L170.0 -1.0Z"/></g>
<g fill="red" transform="translate(600 300) scale(0.1 -0.1)"><path d="M0.0 0.0V-257.0H121.0V0.0ZM149.0 0.0V-257.0H271.0V0.0Z"/></g>
<g fill="black" opacity=".8" transform="translate(600 300) scale(0.1 -0.1)"><path d="M0.0 0.0V-255.0H120.0V0.0ZM150.0 -0.0 149.0 -258.0H270.0L271.0 0.0Z"/></g>
<g fill="red" transform="translate(700 300) scale(0.1 -0.1)"><path d="M0.0 0.0V-211.0H29.0V0.0ZM136.0 0.0V-211.0H165.0V0.0Z"/></g>
<g fill="black" opacity=".8" transform="translate(700 300) scale(0.1 -0.1)"><path d="M0.0 0.0V-211.0H30.0V0.0ZM134.0 -1.0V-211.0L166.0 -209.0L165.0 1.0Z"/></g>
<g fill="red" transform="translate(800 300) scale(0.1 -0.1)"><path d="M0.0 0.0V-257.0H114.0V0.0ZM151.0 0.0V-257.0H265.0V0.0Z"/></g>
<g fill="black" opacity=".8" transform="translate(800 300) scale(0.1 -0.1)"><path d="M0.0 0.0V-256.0H114.0V0.0ZM150.0 -1.0 152.0 -258.0 265.0 -257.0 264.0 0.0Z"/></g>
<g fill="red" transform="translate(900 300) scale(0.1 -0.1)"><path d="M0.0 0.0V-194.0H29.0V0.0ZM100.0 0.0V-194.0H129.0V0.0Z"/></g>
<g fill="black" opacity=".8" transform="translate(900 300) scale(0.1 -0.1)"><path d="M0.0 0.0V-194.0H30.0V0.0ZM100.0 -2.0 101.0 -195.0 128.0 -191.0 126.0 2.0Z"/></g>
<g fill="red" transform="translate(1000 300) scale(0.1 -0.1)"><path d="M0.0 0.0V-225.0H95.0V0.0ZM114.0 0.0V-221.0H210.0V0.0Z"/></g>
<g fill="black" opacity=".8" transform="translate(1000 300) scale(0.1 -0.1)"><path d="M0.0 0.0V-224.0H95.0V0.0ZM112.0 -2.0 116.0 -223.0 212.0 -221.0 209.0 0.0Z"/></g>
<g fill="red" transform="translate(1100 300) scale(0.1 -0.1)"><path d="M0.0 0.0V-631.0H28.0V0.0ZM537.0 40.0V-181.0H566.0V40.0Z"/></g>
<g fill="black" opacity=".8" transform="translate(1100 300) scale(0.1 -0.1)"><path d="M0.0 0.0V-628.0H27.0V0.0ZM537.0 42.0 534.0 -181.0 565.0 -186.0 568.0 37.0Z"/></g>
<g fill="red" transform="translate(1200 300) scale(0.1 -0.1)"><path d="M0.0 0.0V-693.0H112.0V0.0ZM531.0 -16.0V-241.0H667.0V-16.0Z"/></g>
<g fill="black" opacity=".8" transform="translate(1200 300) scale(0.1 -0.1)"><path d="M0.0 0.0V-695.0H114.0V0.0ZM536.0 -15.0 528.0 -237.0 661.0 -239.0 668.0 -17.0Z"/></g>
<g fill="red" transform="translate(1300 300) scale(0.1 -0.1)"><path d="M0.0 0.0V-158.0H29.0V0.0ZM132.0 1.0V-157.0H162.0V1.0Z"/></g>
<g fill="black" opacity=".8" transform="translate(1300 300) scale(0.1 -0.1)"><path d="M0.0 0.0V-156.0H29.0V0.0ZM133.0 0.0 132.0 -158.0 160.0 -157.0 161.0 2.0Z"/></g>
<g fill="red" transform="translate(1400 300) scale(0.1 -0.1)"><path d="M0.0 0.0V-180.0H118.0V0.0ZM162.0 0.0V-176.0H281.0V0.0Z"/></g>
<g fill="black" opacity=".8" transform="translate(1400 300) scale(0.1 -0.1)"><path d="M0.0 0.0V-181.0H119.0V0.0ZM162.0 -1.0V-176.0L280.0 -175.0V0.0Z"/></g>
<g fill="red" transform="translate(1500 300) scale(0.1 -0.1)"><path d="M0.0 0.0V-30.0H216.0V0.0ZM73.0 65.0V-90.0H103.0V65.0Z"/></g>
<g fill="black" opacity=".8" transform="translate(1500 300) scale(0.1 -0.1)"><path d="M0.0 0.0V-28.0H215.0V0.0ZM74.0 65.0 73.0 -92.0 101.0 -91.0 102.0 65.0Z"/></g>
<g fill="red" transform="translate(1600 300) scale(0.1 -0.1)"><path d="M0.0 0.0V-96.0H208.0V0.0ZM50.0 30.0V-123.0H150.0V30.0Z"/></g>
<g fill="black" opacity=".8" transform="translate(1600 300) scale(0.1 -0.1)"><path d="M0.0 0.0V-98.0H210.0V0.0ZM51.0 29.0 50.0 -121.0 147.0 -122.0 149.0 30.0Z"/></g>
<g fill="red" transform="translate(100 400) scale(0.1 -0.1)"><path d="M0.0 0.0V-199.0H29.0V0.0ZM159.0 0.0V-199.0H188.0V0.0Z"/></g>
<g fill="black" opacity=".8" transform="translate(100 400) scale(0.1 -0.1)"><path d="M0.0 0.0V-200.0H30.0V0.0ZM156.0 -1.0V-198.0L189.0 -197.0L188.0 0.0Z"/></g>
<g fill="red" transform="translate(200 400) scale(0.1 -0.1)"><path d="M0.0 0.0V-230.0H129.0V0.0ZM162.0 0.0V-230.0H293.0V0.0Z"/></g>
<g fill="black" opacity=".8" transform="translate(200 400) scale(0.1 -0.1)"><path d="M0.0 0.0V-228.0H128.0V0.0ZM162.0 -1.0 163.0 -231.0H293.0V0.0Z"/></g>
<g fill="red" transform="translate(300 400) scale(0.1 -0.1)"><path d="M0.0 0.0V-208.0H29.0V0.0ZM145.0 0.0V-208.0H174.0V0.0Z"/></g>
<g fill="black" opacity=".8" transform="translate(300 400) scale(0.1 -0.1)"><path d="M0.0 0.0V-208.0H30.0V0.0ZM143.0 -1.0V-208.0L175.0 -205.0L174.0 1.0Z"/></g>
<g fill="red" transform="translate(400 400) scale(0.1 -0.1)"><path d="M0.0 0.0V-234.0H124.0V0.0ZM159.0 0.0V-234.0H284.0V0.0Z"/></g>
<g fill="black" opacity=".8" transform="translate(400 400) scale(0.1 -0.1)"><path d="M0.0 0.0V-233.0H124.0V0.0ZM158.0 -1.0 161.0 -235.0 285.0 -234.0 283.0 0.0Z"/></g>
<g fill="red" transform="translate(500 400) scale(0.1 -0.1)"><path d="M0.0 0.0V-159.0H29.0V0.0ZM136.0 0.0V-159.0H165.0V0.0Z"/></g>
<g fill="black" opacity=".8" transform="translate(500 400) scale(0.1 -0.1)"><path d="M0.0 0.0V-159.0H30.0V0.0ZM136.0 -0.0V-159.0H164.0V-1.0Z"/></g>
<g fill="red" transform="translate(600 400) scale(0.1 -0.1)"><path d="M0.0 0.0V-185.0H113.0V0.0ZM148.0 -5.0V-185.0H261.0V-5.0Z"/></g>
<g fill="black" opacity=".8" transform="translate(600 400) scale(0.1 -0.1)"><path d="M0.0 0.0V-184.0H113.0V0.0ZM148.0 -5.0V-185.0H260.0L261.0 -5.0Z"/></g>
<g fill="red" transform="translate(700 400) scale(0.1 -0.1)"><path d="M0.0 0.0V-706.0H30.0V0.0ZM535.0 4.0V-217.0H564.0V4.0Z"/></g>
<g fill="black" opacity=".8" transform="translate(700 400) scale(0.1 -0.1)"><path d="M0.0 0.0V-708.0H33.0V0.0ZM529.0 2.0 531.0 -214.0 567.0 -212.0 565.0 5.0Z"/></g>
<g fill="red" transform="translate(800 400) scale(0.1 -0.1)"><path d="M0.0 0.0V-779.0H112.0V0.0ZM524.0 -21.0V-246.0H663.0V-21.0Z"/></g>
<g fill="black" opacity=".8" transform="translate(800 400) scale(0.1 -0.1)"><path d="M0.0 0.0V-775.0H109.0V0.0ZM522.0 -22.0 526.0 -250.0 666.0 -248.0 663.0 -21.0Z"/></g>
<g fill="red" transform="translate(900 400) scale(0.1 -0.1)"><path d="M0.0 0.0V-30.0H216.0V0.0ZM73.0 67.0V-100.0H103.0V67.0Z"/></g>
<g fill="black" opacity=".8" transform="translate(900 400) scale(0.1 -0.1)"><path d="M0.0 0.0V-29.0H216.0V0.0ZM73.0 67.0 72.0 -101.0 101.0 -100.0 102.0 67.0Z"/></g>
<g fill="red" transform="translate(1000 400) scale(0.1 -0.1)"><path d="M0.0 0.0V-96.0H208.0V0.0ZM44.0 28.0V-125.0H152.0V28.0Z"/></g>
<g fill="black" opacity=".8" transform="translate(1000 400) scale(0.1 -0.1)"><path d="M0.0 0.0V-97.0H209.0V0.0ZM45.0 27.0 44.0 -124.0 150.0 -125.0 151.0 28.0Z"/></g>
<g fill="red" transform="translate(1100 400) scale(0.1 -0.1)"><path d="M0.0 0.0V-208.0H30.0V0.0ZM157.0 0.0V-208.0H187.0V0.0Z"/></g>
<g fill="black" opacity=".8" transform="translate(1100 400) scale(0.1 -0.1)"><path d="M0.0 0.0V-209.0H31.0V0.0ZM154.0 -1.0V-207.0L188.0 -206.0L187.0 0.0Z"/></g>
<g fill="red" transform="translate(1200 400) scale(0.1 -0.1)"><path d="M0.0 0.0V-248.0H126.0V0.0ZM160.0 0.0V-248.0H289.0V0.0Z"/></g>
<g fill="black" opacity=".8" transform="translate(1200 400) scale(0.1 -0.1)"><path d="M0.0 0.0V-246.0H125.0V0.0ZM160.0 -1.0 161.0 -249.0H289.0V0.0Z"/></g>
<g fill="red" transform="translate(1300 400) scale(0.1 -0.1)"><path d="M0.0 0.0V-168.0H30.0V0.0ZM152.0 0.0V-168.0H181.0V0.0Z"/></g>
<g fill="black" opacity=".8" transform="translate(1300 400) scale(0.1 -0.1)"><path d="M0.0 0.0V-167.0H30.0V0.0ZM152.0 -1.0V-168.0L180.0 -167.0V1.0Z"/></g>
<g fill="red" transform="translate(1400 400) scale(0.1 -0.1)"><path d="M0.0 0.0V-185.0H120.0V0.0ZM170.0 0.0V-180.0H290.0V0.0Z"/></g>
<g fill="black" opacity=".8" transform="translate(1400 400) scale(0.1 -0.1)"><path d="M0.0 0.0V-184.0H120.0V0.0ZM169.0 -1.0 171.0 -181.0 290.0 -180.0 289.0 0.0Z"/></g>
<g fill="red" transform="translate(1500 400) scale(0.1 -0.1)"><path d="M0.0 0.0V-208.0H29.0V0.0ZM0.0 417.0V196.0H29.0V417.0Z"/></g>
<g fill="black" opacity=".8" transform="translate(1500 400) scale(0.1 -0.1)"><path d="M0.0 0.0V-207.0H29.0V0.0ZM-1.0 418.0 -3.0 196.0 29.0 194.0 30.0 415.0Z"/></g>
<g fill="red" transform="translate(1600 400) scale(0.1 -0.1)"><path d="M0.0 0.0V-257.0H138.0V0.0ZM0.0 380.0V155.0H138.0V380.0Z"/></g>
<g fill="black" opacity=".8" transform="translate(1600 400) scale(0.1 -0.1)"><path d="M0.0 0.0V-257.0H139.0V0.0ZM3.0 380.0 -1.0 156.0 135.0 155.0 138.0 379.0Z"/></g>
<g fill="red" transform="translate(100 500) scale(0.1 -0.1)"><path d="M0.0 0.0V-755.0H29.0V0.0ZM528.0 3.0V-205.0H557.0V3.0Z"/></g>
<g fill="black" opacity=".8" transform="translate(100 500) scale(0.1 -0.1)"><path d="M0.0 0.0V-752.0H27.0V0.0ZM527.0 3.0 525.0 -207.0 558.0 -208.0 560.0 3.0Z"/></g>
<g fill="red" transform="translate(200 500) scale(0.1 -0.1)"><path d="M0.0 0.0V-819.0H118.0V0.0ZM523.0 -52.0V-277.0H662.0V-52.0Z"/></g>
<g fill="black" opacity=".8" transform="translate(200 500) scale(0.1 -0.1)"><path d="M0.0 0.0V-821.0H120.0V0.0ZM526.0 -53.0 523.0 -274.0H657.0L661.0 -53.0Z"/></g>
<g fill="red" transform="translate(300 500) scale(0.1 -0.1)"><path d="M0.0 0.0V-30.0H216.0V0.0ZM73.0 67.0V-100.0H103.0V67.0Z"/></g>
<g fill="black" opacity=".8" transform="translate(300 500) scale(0.1 -0.1)"><path d="M0.0 0.0V-30.0H217.0V0.0ZM74.0 67.0 73.0 -100.0 101.0 -99.0V67.0Z"/></g>
<g fill="red" transform="translate(400 500) scale(0.1 -0.1)"><path d="M0.0 0.0V-96.0H212.0V0.0ZM50.0 30.0V-125.0H149.0V30.0Z"/></g>
<g fill="black" opacity=".8" transform="translate(400 500) scale(0.1 -0.1)"><path d="M0.0 0.0V-96.0H212.0V0.0ZM50.0 30.0V-125.0H149.0V30.0Z"/></g>
<g fill="red" transform="translate(500 500) scale(0.1 -0.1)"><path d="M0.0 0.0V-158.0H29.0V0.0ZM137.0 0.0V-158.0H166.0V0.0Z"/></g>
<g fill="black" opacity=".8" transform="translate(500 500) scale(0.1 -0.1)"><path d="M0.0 0.0V-156.0H28.0V0.0ZM137.0 -0.0 136.0 -160.0 165.0 -158.0 166.0 1.0Z"/></g>
<g fill="red" transform="translate(600 500) scale(0.1 -0.1)"><path d="M0.0 0.0V-180.0H126.0V0.0ZM173.0 0.0V-176.0H300.0V0.0Z"/></g>
<g fill="black" opacity=".8" transform="translate(600 500) scale(0.1 -0.1)"><path d="M0.0 0.0V-181.0H127.0V0.0ZM173.0 -1.0V-175.0H298.0L299.0 -0.0Z"/></g>
<g fill="red" transform="translate(700 500) scale(0.1 -0.1)"><path d="M0.0 0.0V-30.0H216.0V0.0ZM73.0 68.0V-99.0H103.0V68.0Z"/></g>
<g fill="black" opacity=".8" transform="translate(700 500) scale(0.1 -0.1)"><path d="M0.0 0.0V-30.0H216.0V0.0ZM74.0 68.0 73.0 -99.0 101.0 -98.0V68.0Z"/></g>
<g fill="red" transform="translate(800 500) scale(0.1 -0.1)"><path d="M0.0 0.0V-96.0H212.0V0.0ZM50.0 30.0V-125.0H149.0V30.0Z"/></g>
<g fill="black" opacity=".8" transform="translate(800 500) scale(0.1 -0.1)"><path d="M0.0 0.0V-96.0H212.0V0.0ZM50.0 30.0V-125.0H148.0L149.0 30.0Z"/></g>
<g fill="red" transform="translate(900 500) scale(0.1 -0.1)"><path d="M0.0 0.0V-199.0H29.0V0.0ZM338.0 0.0V-199.0H367.0V0.0Z"/></g>
<g fill="black" opacity=".8" transform="translate(900 500) scale(0.1 -0.1)"><path d="M0.0 0.0V-199.0H29.0V0.0ZM336.0 1.0 335.0 -197.0 367.0 -202.0 368.0 -3.0Z"/></g>
<g fill="red" transform="translate(1000 500) scale(0.1 -0.1)"><path d="M0.0 0.0V-221.0H144.0V0.0ZM331.0 0.0V-225.0H476.0V0.0Z"/></g>
<g fill="black" opacity=".8" transform="translate(1000 500) scale(0.1 -0.1)"><path d="M0.0 0.0V-220.0H144.0V0.0ZM335.0 1.0 329.0 -224.0 472.0 -225.0 478.0 -0.0Z"/></g>
<g fill="red" transform="translate(1100 500) scale(0.1 -0.1)"><path d="M0.0 0.0V-29.0H410.0V0.0ZM246.0 94.0V-105.0H275.0V94.0Z"/></g>
<g fill="black" opacity=".8" transform="translate(1100 500) scale(0.1 -0.1)"><path d="M0.0 0.0V-29.0H410.0V0.0ZM242.0 94.0V-104.0L278.0 -105.0V93.0Z"/></g>
<g fill="red" transform="translate(1200 500) scale(0.1 -0.1)"><path d="M0.0 0.0V-125.0H437.0V0.0ZM196.0 61.0V-169.0H340.0V61.0Z"/></g>
<g fill="black" opacity=".8" transform="translate(1200 500) scale(0.1 -0.1)"><path d="M0.0 0.0V-124.0H437.0V0.0ZM198.0 61.0 196.0 -169.0H338.0L340.0 61.0Z"/></g>
<g fill="red" transform="translate(1300 500) scale(0.1 -0.1)"><path d="M0.0 0.0V-30.0H415.0V0.0ZM246.0 75.0V-92.0H275.0V75.0Z"/></g>
<g fill="black" opacity=".8" transform="translate(1300 500) scale(0.1 -0.1)"><path d="M0.0 0.0V-28.0H413.0V0.0ZM243.0 74.0V-95.0L278.0 -92.0V77.0Z"/></g>
<g fill="red" transform="translate(1400 500) scale(0.1 -0.1)"><path d="M0.0 0.0V-110.0H437.0V0.0ZM199.0 57.0V-141.0H343.0V57.0Z"/></g>
<g fill="black" opacity=".8" transform="translate(1400 500) scale(0.1 -0.1)"><path d="M0.0 0.0V-111.0H439.0V0.0ZM199.0 55.0 201.0 -140.0 341.0 -139.0 340.0 57.0Z"/></g>
<g fill="red" transform="translate(1500 500) scale(0.1 -0.1)"><path d="M0.0 0.0V-305.0H29.0V0.0ZM236.0 0.0V-309.0H265.0V0.0Z"/></g>
<g fill="black" opacity=".8" transform="translate(1500 500) scale(0.1 -0.1)"><path d="M0.0 0.0V-306.0H31.0V0.0ZM235.0 -4.0 238.0 -309.0 265.0 -301.0 260.0 5.0Z"/></g>
<g fill="red" transform="translate(1600 500) scale(0.1 -0.1)"><path d="M0.0 0.0V-306.0H94.0V0.0ZM221.0 0.0V-306.0H315.0V0.0Z"/></g>
<g fill="black" opacity=".8" transform="translate(1600 500) scale(0.1 -0.1)"><path d="M0.0 0.0V-303.0H92.0V0.0ZM215.0 -3.0 225.0 -311.0 322.0 -307.0 312.0 1.0Z"/></g>
<g fill="red" transform="translate(100 600) scale(0.1 -0.1)"><path d="M0.0 0.0V-194.0H29.0V0.0ZM125.0 0.0V-194.0H155.0V0.0Z"/></g>
<g fill="black" opacity=".8" transform="translate(100 600) scale(0.1 -0.1)"><path d="M0.0 0.0V-195.0H30.0V0.0ZM123.0 -0.0V-193.0H155.0V-1.0Z"/></g>
<g fill="red" transform="translate(200 600) scale(0.1 -0.1)"><path d="M0.0 0.0V-257.0H110.0V0.0ZM137.0 1.0V-256.0H248.0V1.0Z"/></g>
<g fill="black" opacity=".8" transform="translate(200 600) scale(0.1 -0.1)"><path d="M0.0 0.0V-255.0H109.0V0.0ZM137.0 1.0V-257.0H247.0L248.0 1.0Z"/></g>
<g fill="red" transform="translate(300 600) scale(0.1 -0.1)"><path d="M0.0 0.0V-176.0H30.0V0.0ZM107.0 0.0V-176.0H136.0V0.0Z"/></g>
<g fill="black" opacity=".8" transform="translate(300 600) scale(0.1 -0.1)"><path d="M0.0 0.0V-176.0H31.0V0.0ZM106.0 0.0 105.0 -175.0 135.0 -177.0 136.0 -2.0Z"/></g>
<g fill="red" transform="translate(400 600) scale(0.1 -0.1)"><path d="M0.0 0.0V-257.0H92.0V0.0ZM122.0 0.0V-257.0H216.0V0.0Z"/></g>
<g fill="black" opacity=".8" transform="translate(400 600) scale(0.1 -0.1)"><path d="M0.0 0.0V-256.0H92.0V0.0ZM124.0 0.0 121.0 -257.0H214.0L217.0 0.0Z"/></g>
<g fill="red" transform="translate(500 600) scale(0.1 -0.1)"><path d="M0.0 0.0V-194.0H30.0V0.0ZM107.0 0.0V-194.0H137.0V0.0Z"/></g>
<g fill="black" opacity=".8" transform="translate(500 600) scale(0.1 -0.1)"><path d="M0.0 0.0V-193.0H31.0V0.0ZM106.0 -1.0V-194.0L136.0 -193.0V0.0Z"/></g>
<g fill="red" transform="translate(600 600) scale(0.1 -0.1)"><path d="M0.0 0.0V-257.0H92.0V0.0ZM122.0 0.0V-257.0H216.0V0.0Z"/></g>
<g fill="black" opacity=".8" transform="translate(600 600) scale(0.1 -0.1)"><path d="M0.0 0.0V-257.0H92.0V0.0ZM122.0 -1.0V-257.0H215.0L216.0 0.0Z"/></g>
<g fill="red" transform="translate(700 600) scale(0.1 -0.1)"><path d="M0.0 0.0V-181.0H30.0V0.0ZM107.0 0.0V-181.0H137.0V0.0Z"/></g>
<g fill="black" opacity=".8" transform="translate(700 600) scale(0.1 -0.1)"><path d="M0.0 0.0V-181.0H31.0V0.0ZM106.0 0.0 105.0 -180.0 137.0 -182.0V-1.0Z"/></g>
<g fill="red" transform="translate(800 600) scale(0.1 -0.1)"><path d="M0.0 0.0V-257.0H102.0V0.0ZM130.0 0.0V-257.0H233.0V0.0Z"/></g>
<g fill="black" opacity=".8" transform="translate(800 600) scale(0.1 -0.1)"><path d="M0.0 0.0V-257.0H102.0V0.0ZM131.0 -0.0 130.0 -257.0H231.0L233.0 -0.0Z"/></g>
<g fill="red" transform="translate(900 600) scale(0.1 -0.1)"><path d="M0.0 0.0V-203.0H29.0V0.0ZM156.0 3.0V-205.0H185.0V3.0Z"/></g>
<g fill="black" opacity=".8" transform="translate(900 600) scale(0.1 -0.1)"><path d="M0.0 0.0V-203.0H30.0V0.0ZM154.0 2.0 155.0 -206.0 186.0 -203.0 185.0 4.0Z"/></g>
<g fill="red" transform="translate(1000 600) scale(0.1 -0.1)"><path d="M0.0 0.0V-221.0H126.0V0.0ZM171.0 0.0V-221.0H300.0V0.0Z"/></g>
<g fill="black" opacity=".8" transform="translate(1000 600) scale(0.1 -0.1)"><path d="M0.0 0.0V-220.0H126.0V0.0ZM170.0 -1.0 172.0 -222.0 300.0 -221.0 299.0 0.0Z"/></g>
<g fill="red" transform="translate(1100 600) scale(0.1 -0.1)"><path d="M0.0 0.0V-176.0H30.0V0.0ZM102.0 0.0V-176.0H131.0V0.0Z"/></g>
<g fill="black" opacity=".8" transform="translate(1100 600) scale(0.1 -0.1)"><path d="M0.0 0.0V-176.0H30.0V0.0ZM101.0 0.0 100.0 -175.0 130.0 -177.0 131.0 -1.0Z"/></g>
<g fill="red" transform="translate(1200 600) scale(0.1 -0.1)"><path d="M0.0 0.0V-257.0H92.0V0.0ZM122.0 0.0V-257.0H216.0V0.0Z"/></g>
<g fill="black" opacity=".8" transform="translate(1200 600) scale(0.1 -0.1)"><path d="M0.0 0.0V-257.0H93.0V0.0ZM124.0 0.0 121.0 -256.0 213.0 -257.0 216.0 -0.0Z"/></g>
<g fill="red" transform="translate(1300 600) scale(0.1 -0.1)"><path d="M0.0 0.0V-194.0H30.0V0.0ZM107.0 0.0V-194.0H137.0V0.0Z"/></g>
<g fill="black" opacity=".8" transform="translate(1300 600) scale(0.1 -0.1)"><path d="M0.0 0.0V-194.0H31.0V0.0ZM106.0 -1.0V-194.0L136.0 -193.0V-0.0Z"/></g>
<g fill="red" transform="translate(1400 600) scale(0.1 -0.1)"><path d="M0.0 0.0V-257.0H99.0V0.0ZM124.0 0.0V-257.0H224.0V0.0Z"/></g>
<g fill="black" opacity=".8" transform="translate(1400 600) scale(0.1 -0.1)"><path d="M0.0 0.0V-256.0H99.0V0.0ZM124.0 -1.0V-257.0H223.0L224.0 0.0Z"/></g>
<g fill="red" transform="translate(1500 600) scale(0.1 -0.1)"><path d="M0.0 0.0V-182.0H30.0V0.0ZM107.0 0.0V-182.0H137.0V0.0Z"/></g>
<g fill="black" opacity=".8" transform="translate(1500 600) scale(0.1 -0.1)"><path d="M0.0 0.0V-182.0H31.0V0.0ZM106.0 -0.0V-181.0L136.0 -182.0L137.0 -1.0Z"/></g>
<g fill="red" transform="translate(1600 600) scale(0.1 -0.1)"><path d="M0.0 0.0V-257.0H95.0V0.0ZM125.0 0.0V-257.0H221.0V0.0Z"/></g>
<g fill="black" opacity=".8" transform="translate(1600 600) scale(0.1 -0.1)"><path d="M0.0 0.0V-256.0H95.0V0.0ZM126.0 -0.0 125.0 -257.0H219.0L221.0 0.0Z"/></g>
<g fill="red" transform="translate(100 700) scale(0.1 -0.1)"><path d="M0.0 0.0V-194.0H29.0V0.0ZM475.0 53.0V-428.0H505.0V53.0Z"/></g>
<g fill="black" opacity=".8" transform="translate(100 700) scale(0.1 -0.1)"><path d="M0.0 0.0V-188.0H25.0V0.0ZM474.0 53.0 470.0 -433.0 507.0 -434.0 511.0 53.0Z"/></g>
<g fill="red" transform="translate(200 700) scale(0.1 -0.1)"><path d="M0.0 0.0V-257.0H94.0V0.0ZM492.0 62.0V-483.0H631.0V62.0Z"/></g>
<g fill="black" opacity=".8" transform="translate(200 700) scale(0.1 -0.1)"><path d="M0.0 0.0V-262.0H99.0V0.0ZM497.0 61.0 492.0 -478.0H622.0L628.0 61.0Z"/></g>
<g fill="red" transform="translate(300 700) scale(0.1 -0.1)"><path d="M0.0 0.0V-194.0H30.0V0.0ZM108.0 0.0V-194.0H138.0V0.0Z"/></g>
<g fill="black" opacity=".8" transform="translate(300 700) scale(0.1 -0.1)"><path d="M0.0 0.0V-194.0H31.0V0.0ZM108.0 -1.0V-194.0L137.0 -193.0V0.0Z"/></g>
<g fill="red" transform="translate(400 700) scale(0.1 -0.1)"><path d="M0.0 0.0V-257.0H91.0V0.0ZM122.0 0.0V-257.0H214.0V0.0Z"/></g>
<g fill="black" opacity=".8" transform="translate(400 700) scale(0.1 -0.1)"><path d="M0.0 0.0V-256.0H91.0V0.0ZM122.0 -1.0V-258.0L214.0 -257.0V0.0Z"/></g>
<g fill="red" transform="translate(500 700) scale(0.1 -0.1)"><path d="M0.0 0.0V-181.0H30.0V0.0ZM107.0 0.0V-181.0H137.0V0.0Z"/></g>
<g fill="black" opacity=".8" transform="translate(500 700) scale(0.1 -0.1)"><path d="M0.0 0.0V-181.0H31.0V0.0ZM106.0 -0.0V-180.0L136.0 -182.0L137.0 -1.0Z"/></g>
<g fill="red" transform="translate(600 700) scale(0.1 -0.1)"><path d="M0.0 0.0V-257.0H92.0V0.0ZM123.0 0.0V-257.0H217.0V0.0Z"/></g>
<g fill="black" opacity=".8" transform="translate(600 700) scale(0.1 -0.1)"><path d="M0.0 0.0V-256.0H92.0V0.0ZM124.0 -0.0 123.0 -257.0H215.0L217.0 0.0Z"/></g>
<g fill="red" transform="translate(700 700) scale(0.1 -0.1)"><path d="M0.0 0.0V-194.0H30.0V0.0ZM128.0 0.0V-194.0H157.0V0.0Z"/></g>
<g fill="black" opacity=".8" transform="translate(700 700) scale(0.1 -0.1)"><path d="M0.0 0.0V-195.0H31.0V0.0ZM125.0 -0.0V-193.0H158.0L157.0 -1.0Z"/></g>
<g fill="red" transform="translate(800 700) scale(0.1 -0.1)"><path d="M0.0 0.0V-257.0H107.0V0.0ZM137.0 1.0V-256.0H245.0V1.0Z"/></g>
<g fill="black" opacity=".8" transform="translate(800 700) scale(0.1 -0.1)"><path d="M0.0 0.0V-255.0H106.0V0.0ZM138.0 1.0 137.0 -257.0H244.0L245.0 1.0Z"/></g>
<g fill="red" transform="translate(900 700) scale(0.1 -0.1)"><path d="M0.0 0.0V-194.0H30.0V0.0ZM525.0 59.0V-435.0H555.0V59.0Z"/></g>
<g fill="black" opacity=".8" transform="translate(900 700) scale(0.1 -0.1)"><path d="M0.0 0.0V-192.0H29.0V0.0ZM520.0 59.0 518.0 -435.0 558.0 -438.0 560.0 58.0Z"/></g>
<g fill="red" transform="translate(1000 700) scale(0.1 -0.1)"><path d="M0.0 0.0V-257.0H107.0V0.0ZM508.0 76.0V-482.0H655.0V76.0Z"/></g>
<g fill="black" opacity=".8" transform="translate(1000 700) scale(0.1 -0.1)"><path d="M0.0 0.0V-258.0H109.0V0.0ZM512.0 76.0 508.0 -480.0 650.0 -481.0 654.0 75.0Z"/></g>
<g fill="red" transform="translate(1100 700) scale(0.1 -0.1)"><path d="M0.0 0.0V-194.0H30.0V0.0ZM92.0 -2.0V-196.0H122.0V-2.0Z"/></g>
<g fill="black" opacity=".8" transform="translate(1100 700) scale(0.1 -0.1)"><path d="M0.0 0.0V-194.0H31.0V0.0ZM91.0 -3.0 92.0 -196.0 121.0 -194.0V-1.0Z"/></g>
<g fill="red" transform="translate(1200 700) scale(0.1 -0.1)"><path d="M0.0 0.0V-257.0H92.0V0.0ZM111.0 0.0V-257.0H203.0V0.0Z"/></g>
<g fill="black" opacity=".8" transform="translate(1200 700) scale(0.1 -0.1)"><path d="M0.0 0.0V-256.0H92.0V0.0ZM110.0 -1.0 112.0 -258.0 203.0 -257.0 202.0 0.0Z"/></g>
<g fill="red" transform="translate(1300 700) scale(0.1 -0.1)"><path d="M0.0 0.0V-29.0H496.0V0.0ZM232.0 487.0V-15.0H261.0V487.0Z"/></g>
<g fill="black" opacity=".8" transform="translate(1300 700) scale(0.1 -0.1)"><path d="M0.0 0.0V-32.0H500.0V0.0ZM228.0 485.0 230.0 -11.0 262.0 -10.0 259.0 487.0Z"/></g>
<g fill="red" transform="translate(1400 700) scale(0.1 -0.1)"><path d="M0.0 0.0V-122.0H517.0V0.0ZM187.0 392.0V-45.0H322.0V392.0Z"/></g>
<g fill="black" opacity=".8" transform="translate(1400 700) scale(0.1 -0.1)"><path d="M0.0 0.0V-118.0H514.0V0.0ZM185.0 392.0 188.0 -49.0H326.0L323.0 392.0Z"/></g>
<g fill="red" transform="translate(1500 700) scale(0.1 -0.1)"><path d="M0.0 0.0V-194.0H29.0V0.0ZM92.0 -2.0V-196.0H121.0V-2.0Z"/></g>
<g fill="black" opacity=".8" transform="translate(1500 700) scale(0.1 -0.1)"><path d="M0.0 0.0V-194.0H30.0V0.0ZM91.0 -3.0V-196.0L120.0 -194.0V-1.0Z"/></g>
<g fill="red" transform="translate(1600 700) scale(0.1 -0.1)"><path d="M0.0 0.0V-257.0H85.0V0.0ZM106.0 0.0V-257.0H193.0V0.0Z"/></g>
<g fill="black" opacity=".8" transform="translate(1600 700) scale(0.1 -0.1)"><path d="M0.0 0.0V-256.0H85.0V0.0ZM105.0 -1.0 107.0 -258.0 193.0 -257.0 192.0 0.0Z"/></g>
<g fill="red" transform="translate(100 800) scale(0.1 -0.1)"><path d="M0.0 0.0V-176.0H30.0V0.0ZM95.0 0.0V-176.0H125.0V0.0Z"/></g>
<g fill="black" opacity=".8" transform="translate(100 800) scale(0.1 -0.1)"><path d="M0.0 0.0V-175.0H30.0V0.0ZM94.0 0.0V-176.0L124.0 -177.0L125.0 -1.0Z"/></g>
<g fill="red" transform="translate(200 800) scale(0.1 -0.1)"><path d="M0.0 0.0V-257.0H92.0V0.0ZM119.0 0.0V-257.0H213.0V0.0Z"/></g>
<g fill="black" opacity=".8" transform="translate(200 800) scale(0.1 -0.1)"><path d="M0.0 0.0V-257.0H93.0V0.0ZM120.0 -0.0 118.0 -256.0 210.0 -257.0 213.0 -0.0Z"/></g>
<g fill="red" transform="translate(300 800) scale(0.1 -0.1)"><path d="M0.0 0.0V-176.0H30.0V0.0ZM92.0 0.0V-176.0H122.0V0.0Z"/></g>
<g fill="black" opacity=".8" transform="translate(300 800) scale(0.1 -0.1)"><path d="M0.0 0.0V-175.0H30.0V0.0ZM92.0 0.0 91.0 -176.0 121.0 -177.0 122.0 -1.0Z"/></g>
<g fill="red" transform="translate(400 800) scale(0.1 -0.1)"><path d="M0.0 0.0V-257.0H92.0V0.0ZM119.0 0.0V-257.0H213.0V0.0Z"/></g>
<g fill="black" opacity=".8" transform="translate(400 800) scale(0.1 -0.1)"><path d="M0.0 0.0V-257.0H93.0V0.0ZM120.0 -0.0 119.0 -256.0 210.0 -257.0 213.0 -0.0Z"/></g>
<g fill="red" transform="translate(500 800) scale(0.1 -0.1)"><path d="M0.0 0.0V-190.0H29.0V0.0ZM464.0 61.0V-248.0H493.0V61.0Z"/></g>
<g fill="black" opacity=".8" transform="translate(500 800) scale(0.1 -0.1)"><path d="M0.0 0.0V-191.0H31.0V0.0ZM461.0 62.0 460.0 -244.0 494.0 -250.0 495.0 57.0Z"/></g>
<g fill="red" transform="translate(600 800) scale(0.1 -0.1)"><path d="M0.0 0.0V-257.0H87.0V0.0ZM434.0 75.0V-272.0H562.0V75.0Z"/></g>
<g fill="black" opacity=".8" transform="translate(600 800) scale(0.1 -0.1)"><path d="M0.0 0.0V-255.0H86.0V0.0ZM437.0 77.0 432.0 -272.0 559.0 -274.0 564.0 75.0Z"/></g>
<g fill="red" transform="translate(700 800) scale(0.1 -0.1)"><path d="M0.0 0.0V-194.0H29.0V0.0ZM90.0 -2.0V-196.0H119.0V-2.0Z"/></g>
<g fill="black" opacity=".8" transform="translate(700 800) scale(0.1 -0.1)"><path d="M0.0 0.0V-193.0H29.0V0.0ZM89.0 -3.0V-197.0L119.0 -195.0V-1.0Z"/></g>
<g fill="red" transform="translate(800 800) scale(0.1 -0.1)"><path d="M0.0 0.0V-257.0H98.0V0.0ZM118.0 0.0V-257.0H217.0V0.0Z"/></g>
<g fill="black" opacity=".8" transform="translate(800 800) scale(0.1 -0.1)"><path d="M0.0 0.0V-257.0H98.0V0.0ZM118.0 -1.0 119.0 -258.0 216.0 -257.0V0.0Z"/></g>
<g fill="red" transform="translate(900 800) scale(0.1 -0.1)"><path d="M0.0 0.0V-194.0H29.0V0.0ZM88.0 -2.0V-196.0H117.0V-2.0Z"/></g>
<g fill="black" opacity=".8" transform="translate(900 800) scale(0.1 -0.1)"><path d="M0.0 0.0V-194.0H30.0V0.0ZM88.0 -4.0V-196.0L116.0 -194.0L115.0 -1.0Z"/></g>
<g fill="red" transform="translate(1000 800) scale(0.1 -0.1)"><path d="M0.0 0.0V-257.0H84.0V0.0ZM107.0 0.0V-257.0H187.0V0.0Z"/></g>
<g fill="black" opacity=".8" transform="translate(1000 800) scale(0.1 -0.1)"><path d="M0.0 0.0V-256.0H84.0V0.0ZM106.0 -1.0 108.0 -258.0H188.0L187.0 0.0Z"/></g>
<g fill="red" transform="translate(1100 800) scale(0.1 -0.1)"><path d="M0.0 0.0V-194.0H29.0V0.0ZM92.0 -2.0V-196.0H121.0V-2.0Z"/></g>
<g fill="black" opacity=".8" transform="translate(1100 800) scale(0.1 -0.1)"><path d="M0.0 0.0V-194.0H30.0V0.0ZM91.0 -3.0V-196.0L120.0 -194.0V-1.0Z"/></g>
<g fill="red" transform="translate(1200 800) scale(0.1 -0.1)"><path d="M0.0 0.0V-257.0H88.0V0.0ZM107.0 0.0V-257.0H195.0V0.0Z"/></g>
<g fill="black" opacity=".8" transform="translate(1200 800) scale(0.1 -0.1)"><path d="M0.0 0.0V-256.0H88.0V0.0ZM106.0 -1.0 108.0 -258.0H195.0V0.0Z"/></g>
<g fill="red" transform="translate(1300 800) scale(0.1 -0.1)"><path d="M0.0 0.0V-194.0H30.0V0.0ZM97.0 0.0V-194.0H127.0V0.0Z"/></g>
<g fill="black" opacity=".8" transform="translate(1300 800) scale(0.1 -0.1)"><path d="M0.0 0.0V-193.0H30.0V0.0ZM97.0 -1.0 96.0 -195.0 126.0 -193.0V1.0Z"/></g>
<g fill="red" transform="translate(1400 800) scale(0.1 -0.1)"><path d="M0.0 0.0V-257.0H95.0V0.0ZM122.0 0.0V-257.0H218.0V0.0Z"/></g>
<g fill="black" opacity=".8" transform="translate(1400 800) scale(0.1 -0.1)"><path d="M0.0 0.0V-257.0H96.0V0.0ZM122.0 -1.0 123.0 -257.0H217.0V0.0Z"/></g>
<g fill="red" transform="translate(1500 800) scale(0.1 -0.1)"><path d="M0.0 0.0V-199.0H29.0V0.0ZM93.0 0.0V-190.0H122.0V0.0Z"/></g>
<g fill="black" opacity=".8" transform="translate(1500 800) scale(0.1 -0.1)"><path d="M0.0 0.0V-197.0H28.0V0.0ZM93.0 -1.0V-192.0L121.0 -190.0V1.0Z"/></g>
<g fill="red" transform="translate(1600 800) scale(0.1 -0.1)"><path d="M0.0 0.0V-257.0H87.0V0.0ZM108.0 0.0V-257.0H197.0V0.0Z"/></g>
<g fill="black" opacity=".8" transform="translate(1600 800) scale(0.1 -0.1)"><path d="M0.0 0.0V-258.0H88.0V0.0ZM108.0 -1.0 109.0 -256.0H195.0L196.0 -0.0Z"/></g>
<g fill="red" transform="translate(100 900) scale(0.1 -0.1)"><path d="M0.0 0.0V-194.0H30.0V0.0ZM92.0 -2.0V-196.0H122.0V-2.0Z"/></g>
<g fill="black" opacity=".8" transform="translate(100 900) scale(0.1 -0.1)"><path d="M0.0 0.0V-194.0H31.0V0.0ZM91.0 -3.0 92.0 -196.0 121.0 -194.0 120.0 -1.0Z"/></g>
<g fill="red" transform="translate(200 900) scale(0.1 -0.1)"><path d="M0.0 0.0V-257.0H90.0V0.0ZM107.0 0.0V-257.0H197.0V0.0Z"/></g>
<g fill="black" opacity=".8" transform="translate(200 900) scale(0.1 -0.1)"><path d="M0.0 0.0V-256.0H90.0V0.0ZM106.0 -1.0 108.0 -258.0 197.0 -257.0V0.0Z"/></g>
<g fill="red" transform="translate(300 900) scale(0.1 -0.1)"><path d="M0.0 0.0V-185.0H29.0V0.0ZM92.0 -2.0V-187.0H121.0V-2.0Z"/></g>
<g fill="black" opacity=".8" transform="translate(300 900) scale(0.1 -0.1)"><path d="M0.0 0.0V-184.0H29.0V0.0ZM93.0 -4.0V-189.0L119.0 -184.0L118.0 0.0Z"/></g>
<g fill="red" transform="translate(400 900) scale(0.1 -0.1)"><path d="M0.0 0.0V-216.0H92.0V0.0ZM111.0 0.0V-216.0H203.0V0.0Z"/></g>
<g fill="black" opacity=".8" transform="translate(400 900) scale(0.1 -0.1)"><path d="M0.0 0.0V-216.0H92.0V0.0ZM109.0 -2.0 113.0 -217.0 204.0 -215.0 201.0 0.0Z"/></g>
<g fill="red" transform="translate(500 900) scale(0.1 -0.1)"><path d="M0.0 0.0V-190.0H29.0V0.0ZM459.0 60.0V-293.0H489.0V60.0Z"/></g>
<g fill="black" opacity=".8" transform="translate(500 900) scale(0.1 -0.1)"><path d="M0.0 0.0V-190.0H30.0V0.0ZM458.0 60.0 457.0 -290.0 488.0 -294.0 489.0 58.0Z"/></g>
<g fill="red" transform="translate(600 900) scale(0.1 -0.1)"><path d="M0.0 0.0V-257.0H91.0V0.0ZM473.0 71.0V-312.0H592.0V71.0Z"/></g>
<g fill="black" opacity=".8" transform="translate(600 900) scale(0.1 -0.1)"><path d="M0.0 0.0V-256.0H90.0V0.0ZM475.0 72.0 472.0 -312.0 590.0 -313.0 593.0 71.0Z"/></g>
<g fill="red" transform="translate(700 900) scale(0.1 -0.1)"><path d="M0.0 0.0V-194.0H29.0V0.0ZM92.0 -2.0V-196.0H121.0V-2.0Z"/></g>
<g fill="black" opacity=".8" transform="translate(700 900) scale(0.1 -0.1)"><path d="M0.0 0.0V-194.0H30.0V0.0ZM91.0 -3.0V-196.0L121.0 -194.0L120.0 -1.0Z"/></g>
<g fill="red" transform="translate(800 900) scale(0.1 -0.1)"><path d="M0.0 0.0V-257.0H92.0V0.0ZM111.0 0.0V-257.0H203.0V0.0Z"/></g>
<g fill="black" opacity=".8" transform="translate(800 900) scale(0.1 -0.1)"><path d="M0.0 0.0V-256.0H92.0V0.0ZM110.0 -1.0 112.0 -258.0 203.0 -257.0 202.0 0.0Z"/></g>
<g fill="red" transform="translate(900 900) scale(0.1 -0.1)"><path d="M0.0 0.0V-194.0H29.0V0.0ZM85.0 -2.0V-196.0H114.0V-2.0Z"/></g>
<g fill="black" opacity=".8" transform="translate(900 900) scale(0.1 -0.1)"><path d="M0.0 0.0V-193.0H29.0V0.0ZM84.0 -3.0V-197.0L113.0 -195.0V-1.0Z"/></g>
<g fill="red" transform="translate(1000 900) scale(0.1 -0.1)"><path d="M0.0 0.0V-257.0H86.0V0.0ZM107.0 0.0V-257.0H197.0V0.0Z"/></g>
<g fill="black" opacity=".8" transform="translate(1000 900) scale(0.1 -0.1)"><path d="M0.0 0.0V-257.0H87.0V0.0ZM106.0 -1.0 108.0 -257.0H197.0L196.0 0.0Z"/></g>
<g fill="red" transform="translate(1100 900) scale(0.1 -0.1)"><path d="M0.0 0.0V-30.0H407.0V0.0ZM190.0 427.0V-14.0H220.0V427.0Z"/></g>
<g fill="black" opacity=".8" transform="translate(1100 900) scale(0.1 -0.1)"><path d="M0.0 0.0V-30.0H408.0V0.0ZM188.0 425.0 189.0 -14.0 220.0 -11.0 219.0 429.0Z"/></g>
<g fill="red" transform="translate(1200 900) scale(0.1 -0.1)"><path d="M0.0 0.0V-117.0H446.0V0.0ZM171.0 368.0V-60.0H299.0V368.0Z"/></g>
<g fill="black" opacity=".8" transform="translate(1200 900) scale(0.1 -0.1)"><path d="M0.0 0.0V-116.0H445.0V0.0ZM169.0 367.0 172.0 -62.0 301.0 -61.0 298.0 368.0Z"/></g>
<g fill="red" transform="translate(1300 900) scale(0.1 -0.1)"><path d="M0.0 0.0V-190.0H30.0V0.0ZM595.0 -13.0H710.0V-152.0H595.0Z"/></g>
<g fill="black" opacity=".8" transform="translate(1300 900) scale(0.1 -0.1)"><path d="M0.0 0.0V-191.0H31.0V0.0ZM590.0 -23.0 714.0 -19.0 713.0 -134.0 590.0 -138.0Z"/></g>
<g fill="red" transform="translate(1400 900) scale(0.1 -0.1)"><path d="M0.0 0.0V-257.0H91.0V0.0ZM666.0 -58.0H698.0V-104.0H666.0Z"/></g>
<g fill="black" opacity=".8" transform="translate(1400 900) scale(0.1 -0.1)"><path d="M0.0 0.0V-254.0H88.0V0.0ZM652.0 -65.0 709.0 -67.0 714.0 -105.0 656.0 -103.0Z"/></g>
<g fill="red" transform="translate(1500 900) scale(0.1 -0.1)"><path d="M0.0 0.0V-199.0H29.0V0.0ZM93.0 0.0V-199.0H122.0V0.0Z"/></g>
<g fill="black" opacity=".8" transform="translate(1500 900) scale(0.1 -0.1)"><path d="M0.0 0.0V-199.0H30.0V0.0ZM92.0 -2.0 93.0 -199.0 121.0 -197.0 120.0 1.0Z"/></g>
<g fill="red" transform="translate(1600 900) scale(0.1 -0.1)"><path d="M0.0 0.0V-257.0H83.0V0.0ZM102.0 0.0V-257.0H185.0V0.0Z"/></g>
<g fill="black" opacity=".8" transform="translate(1600 900) scale(0.1 -0.1)"><path d="M0.0 0.0V-256.0H83.0V0.0ZM101.0 -1.0 103.0 -258.0H186.0L184.0 0.0Z"/></g>
<g fill="red" transform="translate(100 1000) scale(0.1 -0.1)"><path d="M0.0 0.0V-194.0H29.0V0.0ZM92.0 -2.0V-196.0H121.0V-2.0Z"/></g>
<g fill="black" opacity=".8" transform="translate(100 1000) scale(0.1 -0.1)"><path d="M0.0 0.0V-194.0H30.0V0.0ZM91.0 -3.0V-196.0L120.0 -194.0V-1.0Z"/></g>
<g fill="red" transform="translate(200 1000) scale(0.1 -0.1)"><path d="M0.0 0.0V-257.0H85.0V0.0ZM105.0 0.0V-257.0H192.0V0.0Z"/></g>
<g fill="black" opacity=".8" transform="translate(200 1000) scale(0.1 -0.1)"><path d="M0.0 0.0V-256.0H85.0V0.0ZM104.0 -1.0 106.0 -258.0 192.0 -257.0 191.0 0.0Z"/></g>
<g fill="red" transform="translate(300 1000) scale(0.1 -0.1)"><path d="M0.0 0.0V-194.0H29.0V0.0ZM88.0 -2.0V-196.0H117.0V-2.0Z"/></g>
<g fill="black" opacity=".8" transform="translate(300 1000) scale(0.1 -0.1)"><path d="M0.0 0.0V-194.0H30.0V0.0ZM87.0 -3.0V-196.0L116.0 -194.0V-1.0Z"/></g>
<g fill="red" transform="translate(400 1000) scale(0.1 -0.1)"><path d="M0.0 0.0V-257.0H90.0V0.0ZM107.0 0.0V-257.0H197.0V0.0Z"/></g>
<g fill="black" opacity=".8" transform="translate(400 1000) scale(0.1 -0.1)"><path d="M0.0 0.0V-256.0H90.0V0.0ZM106.0 -1.0 108.0 -258.0 197.0 -257.0 196.0 0.0Z"/></g>
<g fill="red" transform="translate(500 1000) scale(0.1 -0.1)"><path d="M0.0 0.0V-194.0H29.0V0.0ZM90.0 -2.0V-196.0H119.0V-2.0Z"/></g>
<g fill="black" opacity=".8" transform="translate(500 1000) scale(0.1 -0.1)"><path d="M0.0 0.0V-194.0H30.0V0.0ZM89.0 -3.0V-196.0L119.0 -194.0L118.0 -1.0Z"/></g>
<g fill="red" transform="translate(600 1000) scale(0.1 -0.1)"><path d="M0.0 0.0V-257.0H92.0V0.0ZM112.0 0.0V-257.0H204.0V0.0Z"/></g>
<g fill="black" opacity=".8" transform="translate(600 1000) scale(0.1 -0.1)"><path d="M0.0 0.0V-256.0H92.0V0.0ZM111.0 -1.0 113.0 -258.0 204.0 -257.0 203.0 0.0Z"/></g>
<g fill="red" transform="translate(700 1000) scale(0.1 -0.1)"><path d="M0.0 0.0V-194.0H29.0V0.0ZM84.0 -2.0V-196.0H113.0V-2.0Z"/></g>
<g fill="black" opacity=".8" transform="translate(700 1000) scale(0.1 -0.1)"><path d="M0.0 0.0V-193.0H30.0V0.0ZM83.0 -3.0V-197.0L112.0 -194.0V-1.0Z"/></g>
<g fill="red" transform="translate(800 1000) scale(0.1 -0.1)"><path d="M0.0 0.0V-257.0H86.0V0.0ZM104.0 0.0V-257.0H192.0V0.0Z"/></g>
<g fill="black" opacity=".8" transform="translate(800 1000) scale(0.1 -0.1)"><path d="M0.0 0.0V-257.0H86.0V0.0ZM103.0 -1.0 105.0 -258.0 192.0 -257.0 191.0 0.0Z"/></g>
<g fill="red" transform="translate(900 1000) scale(0.1 -0.1)"><path d="M0.0 0.0V-264.0H30.0V0.0ZM481.0 217.0V5.0H511.0V217.0Z"/></g>
<g fill="black" opacity=".8" transform="translate(900 1000) scale(0.1 -0.1)"><path d="M0.0 0.0V-259.0H27.0V0.0ZM488.0 216.0 486.0 2.0H505.0L506.0 218.0Z"/></g>
<g fill="red" transform="translate(1000 1000) scale(0.1 -0.1)"><path d="M0.0 0.0V-234.0H113.0V0.0ZM404.0 244.0V7.0H501.0V244.0Z"/></g>
<g fill="black" opacity=".8" transform="translate(1000 1000) scale(0.1 -0.1)"><path d="M0.0 0.0V-237.0H116.0V0.0ZM405.0 243.0 403.0 10.0H498.0L500.0 244.0Z"/></g>
<g fill="red" transform="translate(1100 1000) scale(0.1 -0.1)"><path d="M0.0 0.0V-168.0H29.0V0.0ZM149.0 0.0V-168.0H178.0V0.0Z"/></g>
<g fill="black" opacity=".8" transform="translate(1100 1000) scale(0.1 -0.1)"><path d="M0.0 0.0V-168.0H30.0V0.0ZM149.0 -1.0V-168.0L177.0 -166.0L176.0 1.0Z"/></g>
<g fill="red" transform="translate(1200 1000) scale(0.1 -0.1)"><path d="M0.0 0.0V-185.0H113.0V0.0ZM161.0 0.0V-180.0H274.0V0.0Z"/></g>
<g fill="black" opacity=".8" transform="translate(1200 1000) scale(0.1 -0.1)"><path d="M0.0 0.0V-184.0H113.0V0.0ZM160.0 -1.0 161.0 -181.0 275.0 -180.0 274.0 0.0Z"/></g>
<g fill="red" transform="translate(1300 1000) scale(0.1 -0.1)"><path d="M0.0 0.0V-149.0H29.0V0.0ZM95.0 251.0V52.0H124.0V251.0Z"/></g>
<g fill="black" opacity=".8" transform="translate(1300 1000) scale(0.1 -0.1)"><path d="M0.0 0.0V-148.0H29.0V0.0ZM90.0 248.0 92.0 49.0 129.0 58.0 126.0 257.0Z"/></g>
<g fill="red" transform="translate(1400 1000) scale(0.1 -0.1)"><path d="M0.0 0.0V-198.0H95.0V0.0ZM92.0 296.0V75.0H236.0V296.0Z"/></g>
<g fill="black" opacity=".8" transform="translate(1400 1000) scale(0.1 -0.1)"><path d="M0.0 0.0V-197.0H95.0V0.0ZM88.0 293.0 97.0 72.0 239.0 75.0 232.0 296.0Z"/></g>
<g fill="red" transform="translate(1500 1000) scale(0.1 -0.1)"><path d="M0.0 0.0V-208.0H28.0V0.0ZM0.0 417.0V196.0H28.0V417.0Z"/></g>
<g fill="black" opacity=".8" transform="translate(1500 1000) scale(0.1 -0.1)"><path d="M0.0 0.0V-207.0H28.0V0.0ZM-1.0 418.0 -3.0 196.0 28.0 194.0 29.0 415.0Z"/></g>
<g fill="red" transform="translate(1600 1000) scale(0.1 -0.1)"><path d="M0.0 0.0V-257.0H136.0V0.0ZM0.0 380.0V155.0H136.0V380.0Z"/></g>
<g fill="black" opacity=".8" transform="translate(1600 1000) scale(0.1 -0.1)"><path d="M0.0 0.0V-257.0H137.0V0.0ZM3.0 380.0 -1.0 156.0 133.0 155.0 136.0 380.0Z"/></g>
<g fill="red" transform="translate(100 1100) scale(0.1 -0.1)"><path d="M0.0 0.0V-182.0H30.0V0.0ZM92.0 0.0V-182.0H122.0V0.0Z"/></g>
<g fill="black" opacity=".8" transform="translate(100 1100) scale(0.1 -0.1)"><path d="M0.0 0.0V-181.0H30.0V0.0ZM91.0 -0.0V-182.0L121.0 -183.0L122.0 -0.0Z"/></g>
<g fill="red" transform="translate(200 1100) scale(0.1 -0.1)"><path d="M0.0 0.0V-257.0H94.0V0.0ZM118.0 0.0V-257.0H215.0V0.0Z"/></g>
<g fill="black" opacity=".8" transform="translate(200 1100) scale(0.1 -0.1)"><path d="M0.0 0.0V-257.0H95.0V0.0ZM119.0 -0.0 118.0 -256.0H213.0L215.0 -0.0Z"/></g>
<g fill="red" transform="translate(300 1100) scale(0.1 -0.1)"><path d="M0.0 0.0V-182.0H30.0V0.0ZM107.0 0.0V-182.0H137.0V0.0Z"/></g>
<g fill="black" opacity=".8" transform="translate(300 1100) scale(0.1 -0.1)"><path d="M0.0 0.0V-181.0H30.0V0.0ZM106.0 -0.0 105.0 -182.0 136.0 -183.0 137.0 -1.0Z"/></g>
<g fill="red" transform="translate(400 1100) scale(0.1 -0.1)"><path d="M0.0 0.0V-257.0H94.0V0.0ZM126.0 0.0V-257.0H223.0V0.0Z"/></g>
<g fill="black" opacity=".8" transform="translate(400 1100) scale(0.1 -0.1)"><path d="M0.0 0.0V-257.0H95.0V0.0ZM127.0 -0.0 126.0 -257.0H221.0L223.0 -0.0Z"/></g>
<g fill="red" transform="translate(500 1100) scale(0.1 -0.1)"><path d="M0.0 0.0V-182.0H30.0V0.0ZM108.0 0.0V-182.0H138.0V0.0Z"/></g>
<g fill="black" opacity=".8" transform="translate(500 1100) scale(0.1 -0.1)"><path d="M0.0 0.0V-182.0H31.0V0.0ZM107.0 -0.0V-181.0L137.0 -182.0V-1.0Z"/></g>
<g fill="red" transform="translate(600 1100) scale(0.1 -0.1)"><path d="M0.0 0.0V-257.0H90.0V0.0ZM120.0 0.0V-257.0H211.0V0.0Z"/></g>
<g fill="black" opacity=".8" transform="translate(600 1100) scale(0.1 -0.1)"><path d="M0.0 0.0V-256.0H90.0V0.0ZM121.0 0.0 119.0 -257.0 210.0 -258.0 212.0 0.0Z"/></g>
<g fill="red" transform="translate(700 1100) scale(0.1 -0.1)"><path d="M0.0 0.0V-182.0H30.0V0.0ZM102.0 0.0V-182.0H132.0V0.0Z"/></g>
<g fill="black" opacity=".8" transform="translate(700 1100) scale(0.1 -0.1)"><path d="M0.0 0.0V-181.0H30.0V0.0ZM102.0 -0.0 101.0 -182.0 131.0 -183.0 132.0 -1.0Z"/></g>
<g fill="red" transform="translate(800 1100) scale(0.1 -0.1)"><path d="M0.0 0.0V-257.0H92.0V0.0ZM127.0 -1.0V-258.0H221.0V-1.0Z"/></g>
<g fill="black" opacity=".8" transform="translate(800 1100) scale(0.1 -0.1)"><path d="M0.0 0.0V-257.0H93.0V0.0ZM128.0 -1.0 127.0 -257.0H219.0L221.0 -1.0Z"/></g>
<g fill="red" transform="translate(900 1100) scale(0.1 -0.1)"><path d="M0.0 0.0V-194.0H30.0V0.0ZM96.0 -2.0V-196.0H125.0V-2.0Z"/></g>
<g fill="black" opacity=".8" transform="translate(900 1100) scale(0.1 -0.1)"><path d="M0.0 0.0V-194.0H31.0V0.0ZM95.0 -3.0V-196.0L125.0 -194.0L124.0 -1.0Z"/></g>
<g fill="red" transform="translate(1000 1100) scale(0.1 -0.1)"><path d="M0.0 0.0V-257.0H91.0V0.0ZM109.0 0.0V-257.0H200.0V0.0Z"/></g>
<g fill="black" opacity=".8" transform="translate(1000 1100) scale(0.1 -0.1)"><path d="M0.0 0.0V-256.0H91.0V0.0ZM108.0 -1.0 110.0 -258.0H200.0V0.0Z"/></g>
<g fill="red" transform="translate(1100 1100) scale(0.1 -0.1)"><path d="M0.0 0.0V-194.0H30.0V0.0ZM107.0 0.0V-194.0H137.0V0.0Z"/></g>
<g fill="black" opacity=".8" transform="translate(1100 1100) scale(0.1 -0.1)"><path d="M0.0 0.0V-194.0H31.0V0.0ZM106.0 -1.0V-194.0L136.0 -193.0V0.0Z"/></g>
<g fill="red" transform="translate(1200 1100) scale(0.1 -0.1)"><path d="M0.0 0.0V-257.0H92.0V0.0ZM119.0 0.0V-257.0H213.0V0.0Z"/></g>
<g fill="black" opacity=".8" transform="translate(1200 1100) scale(0.1 -0.1)"><path d="M0.0 0.0V-256.0H92.0V0.0ZM119.0 -1.0V-258.0L212.0 -257.0L213.0 0.0Z"/></g>
<g fill="red" transform="translate(1300 1100) scale(0.1 -0.1)"><path d="M0.0 0.0V-182.0H28.0V0.0ZM102.0 0.0V-182.0H131.0V0.0Z"/></g>
<g fill="black" opacity=".8" transform="translate(1300 1100) scale(0.1 -0.1)"><path d="M0.0 0.0V-182.0H29.0V0.0ZM101.0 -0.0V-181.0L130.0 -182.0V-1.0Z"/></g>
<g fill="red" transform="translate(1400 1100) scale(0.1 -0.1)"><path d="M0.0 0.0V-257.0H87.0V0.0ZM116.0 0.0V-257.0H205.0V0.0Z"/></g>
<g fill="black" opacity=".8" transform="translate(1400 1100) scale(0.1 -0.1)"><path d="M0.0 0.0V-256.0H87.0V0.0ZM117.0 -0.0 116.0 -257.0 204.0 -258.0 205.0 0.0Z"/></g>
<g fill="red" transform="translate(1500 1100) scale(0.1 -0.1)"><path d="M0.0 0.0V-182.0H28.0V0.0ZM95.0 0.0V-182.0H123.0V0.0Z"/></g>
<g fill="black" opacity=".8" transform="translate(1500 1100) scale(0.1 -0.1)"><path d="M0.0 0.0V-182.0H29.0V0.0ZM94.0 -0.0 93.0 -182.0H123.0V-1.0Z"/></g>
<g fill="red" transform="translate(1600 1100) scale(0.1 -0.1)"><path d="M0.0 0.0V-257.0H86.0V0.0ZM114.0 0.0V-257.0H202.0V0.0Z"/></g>
<g fill="black" opacity=".8" transform="translate(1600 1100) scale(0.1 -0.1)"><path d="M0.0 0.0V-257.0H86.0V0.0ZM115.0 -0.0 114.0 -257.0H200.0L202.0 0.0Z"/></g>
<g fill="red" transform="translate(100 1200) scale(0.1 -0.1)"><path d="M0.0 0.0V-194.0H30.0V0.0ZM602.0 58.0V-206.0H632.0V58.0Z"/></g>
<g fill="black" opacity=".8" transform="translate(100 1200) scale(0.1 -0.1)"><path d="M0.0 0.0V-192.0H29.0V0.0ZM605.0 61.0 601.0 -204.0 628.0 -213.0 632.0 52.0Z"/></g>
<g fill="red" transform="translate(200 1200) scale(0.1 -0.1)"><path d="M0.0 0.0V-257.0H92.0V0.0ZM626.0 65.0V-210.0H755.0V65.0Z"/></g>
<g fill="black" opacity=".8" transform="translate(200 1200) scale(0.1 -0.1)"><path d="M0.0 0.0V-259.0H94.0V0.0ZM632.0 68.0 621.0 -206.0 748.0 -209.0 758.0 64.0Z"/></g>
<g fill="red" transform="translate(300 1200) scale(0.1 -0.1)"><path d="M0.0 0.0V-182.0H30.0V0.0ZM107.0 0.0V-182.0H137.0V0.0Z"/></g>
<g fill="black" opacity=".8" transform="translate(300 1200) scale(0.1 -0.1)"><path d="M0.0 0.0V-182.0H31.0V0.0ZM106.0 -0.0V-181.0L136.0 -182.0V-1.0Z"/></g>
<g fill="red" transform="translate(400 1200) scale(0.1 -0.1)"><path d="M0.0 0.0V-257.0H92.0V0.0ZM122.0 0.0V-257.0H216.0V0.0Z"/></g>
<g fill="black" opacity=".8" transform="translate(400 1200) scale(0.1 -0.1)"><path d="M0.0 0.0V-256.0H92.0V0.0ZM123.0 -0.0 122.0 -257.0H214.0L216.0 0.0Z"/></g>
<g fill="red" transform="translate(500 1200) scale(0.1 -0.1)"><path d="M0.0 0.0V-194.0H29.0V0.0ZM85.0 -2.0V-196.0H114.0V-2.0Z"/></g>
<g fill="black" opacity=".8" transform="translate(500 1200) scale(0.1 -0.1)"><path d="M0.0 0.0V-194.0H30.0V0.0ZM84.0 -3.0V-196.0L113.0 -194.0V-1.0Z"/></g>
<g fill="red" transform="translate(600 1200) scale(0.1 -0.1)"><path d="M0.0 0.0V-257.0H86.0V0.0ZM100.0 0.0V-257.0H188.0V0.0Z"/></g>
<g fill="black" opacity=".8" transform="translate(600 1200) scale(0.1 -0.1)"><path d="M0.0 0.0V-256.0H86.0V0.0ZM99.0 -1.0 101.0 -258.0 188.0 -257.0 187.0 0.0Z"/></g>
<g fill="red" transform="translate(700 1200) scale(0.1 -0.1)"><path d="M0.0 0.0V-194.0H28.0V0.0ZM603.0 58.0V-153.0H631.0V58.0Z"/></g>
<g fill="black" opacity=".8" transform="translate(700 1200) scale(0.1 -0.1)"><path d="M0.0 0.0V-198.0H32.0V0.0ZM603.0 60.0V-145.0L628.0 -154.0V52.0Z"/></g>
<g fill="red" transform="translate(800 1200) scale(0.1 -0.1)"><path d="M0.0 0.0V-257.0H84.0V0.0ZM608.0 74.0V-124.0H723.0V74.0Z"/></g>
<g fill="black" opacity=".8" transform="translate(800 1200) scale(0.1 -0.1)"><path d="M0.0 0.0V-253.0H80.0V0.0ZM610.0 78.0 604.0 -126.0 722.0 -128.0 729.0 75.0Z"/></g>
<g fill="red" transform="translate(900 1200) scale(0.1 -0.1)"><path d="M0.0 0.0V-156.0H233.0V0.0ZM29.0 -29.0H204.0V-127.0H29.0Z"/></g>
<g fill="black" opacity=".8" transform="translate(900 1200) scale(0.1 -0.1)"><path d="M0.0 0.0V-154.0H232.0V0.0ZM30.0 -22.0 198.0 -25.0 202.0 -141.0 33.0 -139.0Z"/></g>
<g fill="red" transform="translate(1000 1200) scale(0.1 -0.1)"><path d="M0.0 0.0V-183.0H272.0V0.0ZM70.0 -76.0H198.0V-107.0H70.0Z"/></g>
<g fill="black" opacity=".8" transform="translate(1000 1200) scale(0.1 -0.1)"><path d="M0.0 0.0V-184.0H274.0V0.0ZM83.0 -71.0 190.0 -68.0 183.0 -106.0 77.0 -108.0Z"/></g>
<g fill="red" transform="translate(1100 1200) scale(0.1 -0.1)"><path d="M0.0 0.0V-29.0H221.0V0.0ZM260.0 346.0V90.0H290.0V346.0Z"/></g>
<g fill="black" opacity=".8" transform="translate(1100 1200) scale(0.1 -0.1)"><path d="M0.0 0.0V-27.0H220.0V0.0ZM262.0 346.0 261.0 89.0 288.0 88.0 289.0 345.0Z"/></g>
<g fill="red" transform="translate(1200 1200) scale(0.1 -0.1)"><path d="M0.0 0.0V-91.0H289.0V0.0ZM271.0 338.0V79.0H403.0V338.0Z"/></g>
<g fill="black" opacity=".8" transform="translate(1200 1200) scale(0.1 -0.1)"><path d="M0.0 0.0V-92.0H290.0V0.0ZM272.0 338.0 270.0 80.0H401.0L403.0 338.0Z"/></g>
<g fill="red" transform="translate(1300 1200) scale(0.1 -0.1)"><path d="M0.0 0.0V-194.0H30.0V0.0ZM107.0 0.0V-194.0H137.0V0.0Z"/></g>
<g fill="black" opacity=".8" transform="translate(1300 1200) scale(0.1 -0.1)"><path d="M0.0 0.0V-194.0H31.0V0.0ZM106.0 -1.0V-194.0L136.0 -193.0V0.0Z"/></g>
<g fill="red" transform="translate(1400 1200) scale(0.1 -0.1)"><path d="M0.0 0.0V-257.0H92.0V0.0ZM118.0 0.0V-257.0H212.0V0.0Z"/></g>
<g fill="black" opacity=".8" transform="translate(1400 1200) scale(0.1 -0.1)"><path d="M0.0 0.0V-256.0H92.0V0.0ZM118.0 -1.0V-258.0L212.0 -257.0V0.0Z"/></g>
<g fill="red" transform="translate(1500 1200) scale(0.1 -0.1)"><path d="M0.0 0.0V-30.0H225.0V0.0ZM79.0 66.0V-101.0H108.0V66.0Z"/></g>
<g fill="black" opacity=".8" transform="translate(1500 1200) scale(0.1 -0.1)"><path d="M0.0 0.0V-27.0H223.0V0.0ZM80.0 65.0 79.0 -105.0 107.0 -102.0 108.0 68.0Z"/></g>
<g fill="red" transform="translate(1600 1200) scale(0.1 -0.1)"><path d="M0.0 0.0V-89.0H202.0V0.0ZM46.0 34.0V-121.0H149.0V34.0Z"/></g>
<g fill="black" opacity=".8" transform="translate(1600 1200) scale(0.1 -0.1)"><path d="M0.0 0.0V-92.0H205.0V0.0ZM46.0 32.0 47.0 -119.0 146.0 -118.0V34.0Z"/></g>
<g fill="red" transform="translate(100 1300) scale(0.1 -0.1)"><path d="M0.0 0.0V-199.0H30.0V0.0ZM131.0 0.0V-199.0H160.0V0.0Z"/></g>
<g fill="black" opacity=".8" transform="translate(100 1300) scale(0.1 -0.1)"><path d="M0.0 0.0V-198.0H30.0V0.0ZM128.0 -0.0V-199.0H161.0L162.0 -0.0Z"/></g>
<g fill="red" transform="translate(200 1300) scale(0.1 -0.1)"><path d="M0.0 0.0V-257.0H121.0V0.0ZM159.0 0.0V-257.0H281.0V0.0Z"/></g>
<g fill="black" opacity=".8" transform="translate(200 1300) scale(0.1 -0.1)"><path d="M0.0 0.0V-257.0H122.0V0.0ZM160.0 -1.0V-257.0H279.0L280.0 -0.0Z"/></g>
</svg>
