<?xml version="1.0" encoding="UTF-8"?>
<svg width="1700" height="300" xmlns="http://www.w3.org/2000/svg">
<rect width="100%" height="100%" fill="white"/>
<g fill="green" transform="translate(100 100) scale(0.1 -0.1)"><path d="M0.0 0.0 11.0 -32.0C87.0 -8.0 182.0 22.0 277.0 53.0L273.0 81.0C171.0 50.0 71.0 18.0 0.0 0.0ZM629.0 221.0V-139.0C629.0 -151.0 627.0 -154.0 614.0 -155.0C600.0 -156.0 561.0 -156.0 505.0 -155.0C510.0 -164.0 516.0 -176.0 517.0 -185.0C578.0 -185.0 615.0 -185.0 634.0 -179.0C653.0 -173.0 659.0 -163.0 659.0 -139.0V221.0ZM338.0 232.0V224.0C321.0 -32.0 302.0 -127.0 276.0 -152.0C268.0 -162.0 257.0 -163.0 239.0 -163.0C222.0 -163.0 171.0 -162.0 117.0 -157.0C123.0 -166.0 126.0 -179.0 127.0 -188.0C175.0 -191.0 222.0 -192.0 245.0 -192.0C272.0 -191.0 286.0 -187.0 300.0 -172.0C332.0 -140.0 348.0 -48.0 368.0 211.0C369.0 217.0 369.0 232.0 369.0 232.0ZM85.0 538.0C77.0 435.0 62.0 287.0 49.0 203.0H77.0C90.0 285.0 104.0 430.0 112.0 535.0ZM293.0 638.0C284.0 506.0 264.0 316.0 247.0 210.0L279.0 218.0C293.0 317.0 312.0 504.0 323.0 638.0Z"/></g>
<g fill="green" transform="translate(200 100) scale(0.1 -0.1)"><path d="M0.0 0.0 23.0 -114.0C95.0 -99.0 177.0 -83.0 257.0 -66.0L246.0 41.0C155.0 25.0 65.0 9.0 0.0 0.0ZM637.0 154.0V-157.0C637.0 -166.0 634.0 -169.0 624.0 -169.0C615.0 -169.0 584.0 -169.0 559.0 -168.0C573.0 -202.0 588.0 -250.0 592.0 -285.0C646.0 -285.0 688.0 -284.0 722.0 -265.0C756.0 -246.0 764.0 -215.0 764.0 -160.0V154.0ZM281.0 211.0V191.0C273.0 -40.0 262.0 -131.0 243.0 -152.0C233.0 -163.0 223.0 -166.0 208.0 -166.0C187.0 -166.0 147.0 -165.0 104.0 -161.0C123.0 -192.0 138.0 -240.0 140.0 -275.0C190.0 -276.0 238.0 -276.0 267.0 -272.0C301.0 -268.0 327.0 -257.0 350.0 -229.0C380.0 -193.0 394.0 -91.0 404.0 162.0C405.0 177.0 406.0 211.0 406.0 211.0ZM60.0 459.0C56.0 344.0 46.0 193.0 34.0 100.0H144.0C155.0 189.0 165.0 337.0 170.0 453.0ZM254.0 641.0C247.0 497.0 230.0 314.0 212.0 197.0L336.0 194.0C353.0 308.0 370.0 493.0 380.0 641.0Z"/></g>
<g fill="green" transform="translate(300 100) scale(0.1 -0.1)"><path d="M0.0 0.0 11.0 -32.0C87.0 -8.0 182.0 22.0 277.0 53.0L273.0 81.0C171.0 50.0 71.0 18.0 0.0 0.0ZM629.0 221.0V-139.0C629.0 -151.0 627.0 -154.0 614.0 -155.0C600.0 -156.0 561.0 -156.0 505.0 -155.0C510.0 -164.0 516.0 -176.0 517.0 -185.0C578.0 -185.0 615.0 -185.0 634.0 -179.0C653.0 -173.0 659.0 -163.0 659.0 -139.0V221.0ZM338.0 232.0V224.0C321.0 -32.0 302.0 -127.0 276.0 -152.0C268.0 -162.0 257.0 -163.0 239.0 -163.0C222.0 -163.0 171.0 -162.0 117.0 -157.0C123.0 -166.0 126.0 -179.0 127.0 -188.0C175.0 -191.0 222.0 -192.0 245.0 -192.0C272.0 -191.0 286.0 -187.0 300.0 -172.0C332.0 -140.0 348.0 -48.0 368.0 211.0C369.0 217.0 369.0 232.0 369.0 232.0ZM85.0 538.0C77.0 435.0 62.0 287.0 49.0 203.0H77.0C90.0 285.0 104.0 430.0 112.0 535.0ZM293.0 638.0C284.0 506.0 264.0 316.0 247.0 210.0L279.0 218.0C293.0 317.0 312.0 504.0 323.0 638.0Z"/></g>
<g fill="green" transform="translate(400 100) scale(0.1 -0.1)"><path d="M0.0 0.0 23.0 -114.0C95.0 -99.0 177.0 -83.0 257.0 -66.0L246.0 41.0C155.0 25.0 65.0 9.0 0.0 0.0ZM637.0 154.0V-157.0C637.0 -166.0 634.0 -169.0 624.0 -169.0C615.0 -169.0 584.0 -169.0 559.0 -168.0C573.0 -202.0 588.0 -250.0 592.0 -285.0C646.0 -285.0 688.0 -284.0 722.0 -265.0C756.0 -246.0 764.0 -215.0 764.0 -160.0V154.0ZM281.0 211.0V191.0C273.0 -40.0 262.0 -131.0 243.0 -152.0C233.0 -163.0 223.0 -166.0 208.0 -166.0C187.0 -166.0 147.0 -165.0 104.0 -161.0C123.0 -192.0 138.0 -240.0 140.0 -275.0C190.0 -276.0 238.0 -276.0 267.0 -272.0C301.0 -268.0 327.0 -257.0 350.0 -229.0C380.0 -193.0 394.0 -91.0 404.0 162.0C405.0 177.0 406.0 211.0 406.0 211.0ZM60.0 459.0C56.0 344.0 46.0 193.0 34.0 100.0H144.0C155.0 189.0 165.0 337.0 170.0 453.0ZM254.0 641.0C247.0 497.0 230.0 314.0 212.0 197.0L336.0 194.0C353.0 308.0 370.0 493.0 380.0 641.0Z"/></g>
<g fill="red" transform="translate(100 200) scale(0.1 -0.1)"><path d="M0.0 0.0 11.0 -32.0C87.0 -8.0 182.0 22.0 277.0 53.0L273.0 81.0C171.0 50.0 71.0 18.0 0.0 0.0ZM629.0 221.0V-139.0C629.0 -151.0 627.0 -154.0 614.0 -155.0C600.0 -156.0 561.0 -156.0 505.0 -155.0C510.0 -164.0 516.0 -176.0 517.0 -185.0C578.0 -185.0 615.0 -185.0 634.0 -179.0C653.0 -173.0 659.0 -163.0 659.0 -139.0V221.0ZM338.0 232.0V224.0C321.0 -32.0 302.0 -127.0 276.0 -152.0C268.0 -162.0 257.0 -163.0 239.0 -163.0C222.0 -163.0 171.0 -162.0 117.0 -157.0C123.0 -166.0 126.0 -179.0 127.0 -188.0C175.0 -191.0 222.0 -192.0 245.0 -192.0C272.0 -191.0 286.0 -187.0 300.0 -172.0C332.0 -140.0 348.0 -48.0 368.0 211.0C369.0 217.0 369.0 232.0 369.0 232.0ZM85.0 538.0C77.0 435.0 62.0 287.0 49.0 203.0H77.0C90.0 285.0 104.0 430.0 112.0 535.0ZM293.0 638.0C284.0 506.0 264.0 316.0 247.0 210.0L279.0 218.0C293.0 317.0 312.0 504.0 323.0 638.0Z"/></g>
<g fill="black" opacity=".8" transform="translate(100 200) scale(0.1 -0.1)"><path d="M0.0 0.0 11.0 -32.0C87.0 -8.0 182.0 22.0 277.0 53.0L273.0 81.0C171.0 50.0 71.0 18.0 0.0 0.0ZM629.0 221.0V-139.0C629.0 -151.0 627.0 -154.0 614.0 -155.0C600.0 -156.0 561.0 -156.0 505.0 -155.0C510.0 -164.0 516.0 -176.0 517.0 -185.0C578.0 -185.0 615.0 -185.0 634.0 -179.0C653.0 -173.0 659.0 -163.0 659.0 -139.0V221.0ZM338.0 232.0V224.0C321.0 -32.0 302.0 -127.0 276.0 -152.0C268.0 -162.0 257.0 -163.0 239.0 -163.0C222.0 -163.0 171.0 -162.0 117.0 -157.0C123.0 -166.0 126.0 -179.0 127.0 -188.0C175.0 -191.0 222.0 -192.0 245.0 -192.0C272.0 -191.0 286.0 -187.0 300.0 -172.0C332.0 -140.0 348.0 -48.0 368.0 211.0C369.0 217.0 369.0 232.0 369.0 232.0ZM85.0 538.0C77.0 435.0 62.0 287.0 49.0 203.0H77.0C90.0 285.0 104.0 430.0 112.0 535.0ZM293.0 638.0C284.0 506.0 264.0 316.0 247.0 210.0L279.0 218.0C293.0 317.0 312.0 504.0 323.0 638.0Z"/></g>
<g fill="red" transform="translate(200 200) scale(0.1 -0.1)"><path d="M0.0 0.0 23.0 -114.0C95.0 -99.0 177.0 -83.0 257.0 -66.0L246.0 41.0C155.0 25.0 65.0 9.0 0.0 0.0ZM637.0 154.0V-157.0C637.0 -166.0 634.0 -169.0 624.0 -169.0C615.0 -169.0 584.0 -169.0 559.0 -168.0C573.0 -202.0 588.0 -250.0 592.0 -285.0C646.0 -285.0 688.0 -284.0 722.0 -265.0C756.0 -246.0 764.0 -215.0 764.0 -160.0V154.0ZM281.0 211.0V191.0C273.0 -40.0 262.0 -131.0 243.0 -152.0C233.0 -163.0 223.0 -166.0 208.0 -166.0C187.0 -166.0 147.0 -165.0 104.0 -161.0C123.0 -192.0 138.0 -240.0 140.0 -275.0C190.0 -276.0 238.0 -276.0 267.0 -272.0C301.0 -268.0 327.0 -257.0 350.0 -229.0C380.0 -193.0 394.0 -91.0 404.0 162.0C405.0 177.0 406.0 211.0 406.0 211.0ZM60.0 459.0C56.0 344.0 46.0 193.0 34.0 100.0H144.0C155.0 189.0 165.0 337.0 170.0 453.0ZM254.0 641.0C247.0 497.0 230.0 314.0 212.0 197.0L336.0 194.0C353.0 308.0 370.0 493.0 380.0 641.0Z"/></g>
<g fill="black" opacity=".8" transform="translate(200 200) scale(0.1 -0.1)"><path d="M0.0 0.0 23.0 -114.0C95.0 -99.0 177.0 -83.0 257.0 -66.0L246.0 41.0C155.0 25.0 65.0 9.0 0.0 0.0ZM637.0 154.0V-157.0C637.0 -166.0 634.0 -169.0 624.0 -169.0C615.0 -169.0 584.0 -169.0 559.0 -168.0C573.0 -202.0 588.0 -250.0 592.0 -285.0C646.0 -285.0 688.0 -284.0 722.0 -265.0C756.0 -246.0 764.0 -215.0 764.0 -160.0V154.0ZM281.0 211.0V191.0C273.0 -40.0 262.0 -131.0 243.0 -152.0C233.0 -163.0 223.0 -166.0 208.0 -166.0C187.0 -166.0 147.0 -165.0 104.0 -161.0C123.0 -192.0 138.0 -240.0 140.0 -275.0C190.0 -276.0 238.0 -276.0 267.0 -272.0C301.0 -268.0 327.0 -257.0 350.0 -229.0C380.0 -193.0 394.0 -91.0 404.0 162.0C405.0 177.0 406.0 211.0 406.0 211.0ZM60.0 459.0C56.0 344.0 46.0 193.0 34.0 100.0H144.0C155.0 189.0 165.0 337.0 170.0 453.0ZM254.0 641.0C247.0 497.0 230.0 314.0 212.0 197.0L336.0 194.0C353.0 308.0 370.0 493.0 380.0 641.0Z"/></g>
</svg>
