<?xml version="1.0" encoding="UTF-8"?>
<svg width="1700" height="300" xmlns="http://www.w3.org/2000/svg">
<rect width="100%" height="100%" fill="white"/>
<g fill="green" transform="translate(100 100) scale(0.1 -0.1)"><path d="M0.0 0.0V-6.0C-10.0 -45.0 -25.0 -89.0 -36.0 -120.0L-10.0 -129.0C2.0 -97.0 17.0 -48.0 30.0 -6.0L12.0 2.0L5.0 0.0ZM-358.0 -377.0C-367.0 -529.0 -399.0 -620.0 -521.0 -669.0C-514.0 -674.0 -504.0 -684.0 -500.0 -691.0C-374.0 -636.0 -339.0 -539.0 -328.0 -377.0Z"/></g>
<g fill="green" transform="translate(200 100) scale(0.1 -0.1)"><path d="M0.0 0.0V-14.0C-6.0 -71.0 -18.0 -140.0 -27.0 -185.0L79.0 -209.0C94.0 -159.0 112.0 -82.0 125.0 -15.0L36.0 4.0L17.0 0.0ZM-308.0 -395.0C-312.0 -526.0 -319.0 -604.0 -435.0 -651.0C-408.0 -674.0 -374.0 -722.0 -362.0 -753.0C-207.0 -687.0 -185.0 -570.0 -180.0 -395.0Z"/></g>
<g fill="green" transform="translate(300 100) scale(0.1 -0.1)"><path d="M0.0 0.0V-6.0C-10.0 -45.0 -25.0 -88.0 -36.0 -119.0L-10.0 -128.0C2.0 -96.0 17.0 -48.0 30.0 -6.0L12.0 2.0L5.0 0.0ZM-355.0 -373.0C-364.0 -524.0 -395.0 -614.0 -516.0 -663.0C-509.0 -668.0 -499.0 -678.0 -495.0 -685.0C-371.0 -630.0 -336.0 -534.0 -325.0 -373.0Z"/></g>
<g fill="green" transform="translate(400 100) scale(0.1 -0.1)"><path d="M0.0 0.0V-14.0C-6.0 -70.0 -18.0 -139.0 -27.0 -183.0L78.0 -207.0C93.0 -158.0 111.0 -81.0 124.0 -15.0L36.0 4.0L17.0 0.0ZM-305.0 -391.0C-309.0 -521.0 -316.0 -598.0 -431.0 -645.0C-404.0 -668.0 -371.0 -715.0 -359.0 -746.0C-205.0 -681.0 -183.0 -565.0 -178.0 -391.0Z"/></g>
<g fill="green" transform="translate(500 100) scale(0.1 -0.1)"><path d="M0.0 0.0V-6.0C-13.0 -46.0 -31.0 -89.0 -44.0 -119.0L-18.0 -128.0C-2.0 -98.0 15.0 -49.0 33.0 -6.0L12.0 1.0L6.0 0.0ZM-353.0 -382.0C-357.0 -562.0 -384.0 -631.0 -518.0 -672.0C-512.0 -677.0 -502.0 -688.0 -499.0 -695.0C-357.0 -649.0 -328.0 -573.0 -324.0 -382.0Z"/></g>
<g fill="green" transform="translate(600 100) scale(0.1 -0.1)"><path d="M0.0 0.0V-14.0C-4.0 -67.0 -12.0 -133.0 -18.0 -175.0L94.0 -200.0C107.0 -152.0 122.0 -79.0 133.0 -15.0L38.0 4.0L18.0 0.0ZM-295.0 -382.0C-295.0 -546.0 -296.0 -615.0 -396.0 -656.0C-369.0 -680.0 -336.0 -728.0 -326.0 -759.0C-182.0 -702.0 -168.0 -589.0 -168.0 -382.0Z"/></g>
<g fill="red" transform="translate(100 200) scale(0.1 -0.1)"><path d="M0.0 0.0V-6.0C-10.0 -45.0 -25.0 -88.0 -36.0 -119.0L-10.0 -128.0C2.0 -96.0 17.0 -48.0 30.0 -6.0L12.0 2.0L5.0 0.0ZM-355.0 -373.0C-364.0 -524.0 -395.0 -614.0 -516.0 -663.0C-509.0 -668.0 -499.0 -678.0 -495.0 -685.0C-371.0 -630.0 -336.0 -534.0 -325.0 -373.0Z"/></g>
<g fill="black" opacity=".8" transform="translate(100 200) scale(0.1 -0.1)"><path d="M0.0 0.0V-6.0C-10.0 -45.0 -25.0 -88.0 -36.0 -119.0L-10.0 -128.0C2.0 -96.0 17.0 -48.0 30.0 -6.0L12.0 2.0L5.0 0.0ZM-355.0 -373.0C-364.0 -524.0 -395.0 -614.0 -516.0 -663.0C-509.0 -668.0 -499.0 -678.0 -495.0 -685.0C-371.0 -630.0 -336.0 -534.0 -325.0 -373.0Z"/></g>
<g fill="red" transform="translate(200 200) scale(0.1 -0.1)"><path d="M0.0 0.0V-14.0C-6.0 -70.0 -18.0 -139.0 -27.0 -183.0L78.0 -207.0C93.0 -158.0 111.0 -81.0 124.0 -15.0L36.0 4.0L17.0 0.0ZM-305.0 -391.0C-309.0 -521.0 -316.0 -598.0 -431.0 -645.0C-404.0 -668.0 -371.0 -715.0 -359.0 -746.0C-205.0 -681.0 -183.0 -565.0 -178.0 -391.0Z"/></g>
<g fill="black" opacity=".8" transform="translate(200 200) scale(0.1 -0.1)"><path d="M0.0 0.0V-14.0C-6.0 -70.0 -18.0 -139.0 -27.0 -183.0L78.0 -207.0C93.0 -158.0 111.0 -81.0 124.0 -15.0L36.0 4.0L17.0 0.0ZM-305.0 -391.0C-309.0 -521.0 -316.0 -598.0 -431.0 -645.0C-404.0 -668.0 -371.0 -715.0 -359.0 -746.0C-205.0 -681.0 -183.0 -565.0 -178.0 -391.0Z"/></g>
<g fill="red" transform="translate(300 200) scale(0.1 -0.1)"><path d="M0.0 0.0V-6.0C-13.0 -46.0 -31.0 -89.0 -44.0 -119.0L-18.0 -128.0C-2.0 -98.0 15.0 -49.0 33.0 -6.0L12.0 1.0L6.0 0.0ZM-353.0 -382.0C-357.0 -562.0 -384.0 -631.0 -518.0 -672.0C-512.0 -677.0 -502.0 -688.0 -499.0 -695.0C-357.0 -649.0 -328.0 -573.0 -324.0 -382.0Z"/></g>
<g fill="black" opacity=".8" transform="translate(300 200) scale(0.1 -0.1)"><path d="M0.0 0.0V-6.0C-13.0 -46.0 -31.0 -89.0 -44.0 -119.0L-18.0 -128.0C-2.0 -98.0 15.0 -49.0 33.0 -6.0L12.0 1.0L6.0 0.0ZM-353.0 -382.0C-357.0 -562.0 -384.0 -631.0 -518.0 -672.0C-512.0 -677.0 -502.0 -688.0 -499.0 -695.0C-357.0 -649.0 -328.0 -573.0 -324.0 -382.0Z"/></g>
<g fill="red" transform="translate(400 200) scale(0.1 -0.1)"><path d="M0.0 0.0V-14.0C-4.0 -67.0 -12.0 -133.0 -18.0 -175.0L94.0 -200.0C107.0 -152.0 122.0 -79.0 133.0 -15.0L38.0 4.0L18.0 0.0ZM-295.0 -382.0C-295.0 -546.0 -296.0 -615.0 -396.0 -656.0C-369.0 -680.0 -336.0 -728.0 -326.0 -759.0C-182.0 -702.0 -168.0 -589.0 -168.0 -382.0Z"/></g>
<g fill="black" opacity=".8" transform="translate(400 200) scale(0.1 -0.1)"><path d="M0.0 0.0V-14.0C-4.0 -67.0 -12.0 -133.0 -18.0 -175.0L94.0 -200.0C107.0 -152.0 122.0 -79.0 133.0 -15.0L38.0 4.0L18.0 0.0ZM-295.0 -382.0C-295.0 -546.0 -296.0 -615.0 -396.0 -656.0C-369.0 -680.0 -336.0 -728.0 -326.0 -759.0C-182.0 -702.0 -168.0 -589.0 -168.0 -382.0Z"/></g>
</svg>
