<?xml version="1.0" encoding="UTF-8"?>
<svg width="1700" height="300" xmlns="http://www.w3.org/2000/svg">
<rect width="100%" height="100%" fill="white"/>
<g fill="green" transform="translate(100 100) scale(0.1 -0.1)"><path d="M0.0 0.0 6.0 -30.0C115.0 -18.0 271.0 2.0 424.0 22.0L423.0 50.0C264.0 30.0 104.0 11.0 0.0 0.0ZM800.0 575.0V568.0C793.0 379.0 785.0 312.0 771.0 296.0C766.0 288.0 759.0 287.0 744.0 287.0C731.0 287.0 690.0 287.0 647.0 291.0C652.0 283.0 655.0 272.0 656.0 263.0C693.0 260.0 731.0 260.0 750.0 260.0C773.0 261.0 785.0 266.0 796.0 277.0C815.0 299.0 821.0 363.0 829.0 556.0C829.0 563.0 829.0 575.0 829.0 575.0ZM843.0 169.0V162.0C833.0 -75.0 822.0 -160.0 805.0 -179.0C798.0 -188.0 790.0 -189.0 775.0 -189.0C762.0 -189.0 720.0 -189.0 676.0 -185.0C682.0 -193.0 684.0 -205.0 685.0 -214.0C722.0 -216.0 762.0 -217.0 781.0 -216.0C805.0 -216.0 817.0 -212.0 829.0 -198.0C852.0 -171.0 862.0 -94.0 872.0 149.0C872.0 155.0 872.0 169.0 872.0 169.0ZM183.0 661.0C210.0 624.0 236.0 573.0 248.0 540.0L273.0 555.0C261.0 586.0 233.0 636.0 206.0 672.0ZM593.0 461.0C632.0 428.0 681.0 380.0 707.0 352.0L728.0 373.0C704.0 401.0 654.0 446.0 612.0 479.0Z"/></g>
<g fill="green" transform="translate(200 100) scale(0.1 -0.1)"><path d="M0.0 0.0 5.0 -118.0C123.0 -111.0 286.0 -103.0 440.0 -93.0L441.0 19.0C283.0 11.0 114.0 4.0 0.0 0.0ZM770.0 552.0V533.0C766.0 360.0 760.0 297.0 748.0 281.0C741.0 272.0 734.0 270.0 722.0 270.0C708.0 270.0 685.0 270.0 658.0 273.0C674.0 246.0 686.0 202.0 687.0 171.0C728.0 170.0 767.0 170.0 790.0 174.0C817.0 178.0 840.0 187.0 859.0 212.0C882.0 241.0 891.0 318.0 897.0 508.0C897.0 522.0 898.0 552.0 898.0 552.0ZM802.0 145.0V125.0C797.0 -70.0 790.0 -149.0 774.0 -167.0C765.0 -177.0 755.0 -179.0 739.0 -179.0C719.0 -179.0 678.0 -178.0 634.0 -174.0C653.0 -205.0 668.0 -252.0 669.0 -286.0C722.0 -287.0 772.0 -287.0 803.0 -283.0C838.0 -279.0 866.0 -269.0 890.0 -241.0C917.0 -208.0 927.0 -121.0 934.0 96.0C935.0 111.0 935.0 145.0 935.0 145.0ZM152.0 612.0C169.0 574.0 187.0 522.0 192.0 489.0L322.0 531.0C314.0 563.0 295.0 612.0 276.0 648.0ZM622.0 388.0C648.0 356.0 680.0 312.0 696.0 284.0L778.0 343.0C762.0 369.0 730.0 409.0 702.0 439.0Z"/></g>
<g fill="green" transform="translate(300 100) scale(0.1 -0.1)"><path d="M0.0 0.0 6.0 -30.0C115.0 -18.0 271.0 2.0 424.0 22.0L423.0 50.0C264.0 30.0 104.0 11.0 0.0 0.0ZM800.0 575.0V568.0C793.0 379.0 785.0 312.0 771.0 296.0C766.0 288.0 759.0 287.0 744.0 287.0C731.0 287.0 690.0 287.0 647.0 291.0C652.0 283.0 655.0 272.0 656.0 263.0C693.0 260.0 731.0 260.0 750.0 260.0C773.0 261.0 785.0 266.0 796.0 277.0C815.0 299.0 821.0 363.0 829.0 556.0C829.0 563.0 829.0 575.0 829.0 575.0ZM843.0 169.0V162.0C833.0 -75.0 822.0 -160.0 805.0 -179.0C798.0 -188.0 790.0 -189.0 775.0 -189.0C762.0 -189.0 720.0 -189.0 676.0 -185.0C682.0 -193.0 684.0 -205.0 685.0 -214.0C722.0 -216.0 762.0 -217.0 781.0 -216.0C805.0 -216.0 817.0 -212.0 829.0 -198.0C852.0 -171.0 862.0 -94.0 872.0 149.0C872.0 155.0 872.0 169.0 872.0 169.0ZM183.0 661.0C210.0 624.0 236.0 573.0 248.0 540.0L273.0 555.0C261.0 586.0 233.0 636.0 206.0 672.0ZM593.0 461.0C632.0 428.0 681.0 380.0 707.0 352.0L728.0 373.0C704.0 401.0 654.0 446.0 612.0 479.0Z"/></g>
<g fill="green" transform="translate(400 100) scale(0.1 -0.1)"><path d="M0.0 0.0 5.0 -118.0C123.0 -111.0 286.0 -103.0 440.0 -93.0L441.0 19.0C283.0 11.0 114.0 4.0 0.0 0.0ZM770.0 552.0V533.0C766.0 360.0 760.0 297.0 748.0 281.0C741.0 272.0 734.0 270.0 722.0 270.0C708.0 270.0 685.0 270.0 658.0 273.0C674.0 246.0 686.0 202.0 687.0 171.0C728.0 170.0 767.0 170.0 790.0 174.0C817.0 178.0 840.0 187.0 859.0 212.0C882.0 241.0 891.0 318.0 897.0 508.0C897.0 522.0 898.0 552.0 898.0 552.0ZM802.0 145.0V125.0C797.0 -70.0 790.0 -149.0 774.0 -167.0C765.0 -177.0 755.0 -179.0 739.0 -179.0C719.0 -179.0 678.0 -178.0 634.0 -174.0C653.0 -205.0 668.0 -252.0 669.0 -286.0C722.0 -287.0 772.0 -287.0 803.0 -283.0C838.0 -279.0 866.0 -269.0 890.0 -241.0C917.0 -208.0 927.0 -121.0 934.0 96.0C935.0 111.0 935.0 145.0 935.0 145.0ZM152.0 612.0C169.0 574.0 187.0 522.0 192.0 489.0L322.0 531.0C314.0 563.0 295.0 612.0 276.0 648.0ZM622.0 388.0C648.0 356.0 680.0 312.0 696.0 284.0L778.0 343.0C762.0 369.0 730.0 409.0 702.0 439.0Z"/></g>
<g fill="red" transform="translate(100 200) scale(0.1 -0.1)"><path d="M0.0 0.0 6.0 -30.0C115.0 -18.0 271.0 2.0 424.0 22.0L423.0 50.0C264.0 30.0 104.0 11.0 0.0 0.0ZM800.0 575.0V568.0C793.0 379.0 785.0 312.0 771.0 296.0C766.0 288.0 759.0 287.0 744.0 287.0C731.0 287.0 690.0 287.0 647.0 291.0C652.0 283.0 655.0 272.0 656.0 263.0C693.0 260.0 731.0 260.0 750.0 260.0C773.0 261.0 785.0 266.0 796.0 277.0C815.0 299.0 821.0 363.0 829.0 556.0C829.0 563.0 829.0 575.0 829.0 575.0ZM843.0 169.0V162.0C833.0 -75.0 822.0 -160.0 805.0 -179.0C798.0 -188.0 790.0 -189.0 775.0 -189.0C762.0 -189.0 720.0 -189.0 676.0 -185.0C682.0 -193.0 684.0 -205.0 685.0 -214.0C722.0 -216.0 762.0 -217.0 781.0 -216.0C805.0 -216.0 817.0 -212.0 829.0 -198.0C852.0 -171.0 862.0 -94.0 872.0 149.0C872.0 155.0 872.0 169.0 872.0 169.0ZM183.0 661.0C210.0 624.0 236.0 573.0 248.0 540.0L273.0 555.0C261.0 586.0 233.0 636.0 206.0 672.0ZM593.0 461.0C632.0 428.0 681.0 380.0 707.0 352.0L728.0 373.0C704.0 401.0 654.0 446.0 612.0 479.0Z"/></g>
<g fill="black" opacity=".8" transform="translate(100 200) scale(0.1 -0.1)"><path d="M0.0 0.0 6.0 -30.0C115.0 -18.0 271.0 2.0 424.0 22.0L423.0 50.0C264.0 30.0 104.0 11.0 0.0 0.0ZM800.0 575.0V568.0C793.0 379.0 785.0 312.0 771.0 296.0C766.0 288.0 759.0 287.0 744.0 287.0C731.0 287.0 690.0 287.0 647.0 291.0C652.0 283.0 655.0 272.0 656.0 263.0C693.0 260.0 731.0 260.0 750.0 260.0C773.0 261.0 785.0 266.0 796.0 277.0C815.0 299.0 821.0 363.0 829.0 556.0C829.0 563.0 829.0 575.0 829.0 575.0ZM843.0 169.0V162.0C833.0 -75.0 822.0 -160.0 805.0 -179.0C798.0 -188.0 790.0 -189.0 775.0 -189.0C762.0 -189.0 720.0 -189.0 676.0 -185.0C682.0 -193.0 684.0 -205.0 685.0 -214.0C722.0 -216.0 762.0 -217.0 781.0 -216.0C805.0 -216.0 817.0 -212.0 829.0 -198.0C852.0 -171.0 862.0 -94.0 872.0 149.0C872.0 155.0 872.0 169.0 872.0 169.0ZM183.0 661.0C210.0 624.0 236.0 573.0 248.0 540.0L273.0 555.0C261.0 586.0 233.0 636.0 206.0 672.0ZM593.0 461.0C632.0 428.0 681.0 380.0 707.0 352.0L728.0 373.0C704.0 401.0 654.0 446.0 612.0 479.0Z"/></g>
<g fill="red" transform="translate(200 200) scale(0.1 -0.1)"><path d="M0.0 0.0 5.0 -118.0C123.0 -111.0 286.0 -103.0 440.0 -93.0L441.0 19.0C283.0 11.0 114.0 4.0 0.0 0.0ZM770.0 552.0V533.0C766.0 360.0 760.0 297.0 748.0 281.0C741.0 272.0 734.0 270.0 722.0 270.0C708.0 270.0 685.0 270.0 658.0 273.0C674.0 246.0 686.0 202.0 687.0 171.0C728.0 170.0 767.0 170.0 790.0 174.0C817.0 178.0 840.0 187.0 859.0 212.0C882.0 241.0 891.0 318.0 897.0 508.0C897.0 522.0 898.0 552.0 898.0 552.0ZM802.0 145.0V125.0C797.0 -70.0 790.0 -149.0 774.0 -167.0C765.0 -177.0 755.0 -179.0 739.0 -179.0C719.0 -179.0 678.0 -178.0 634.0 -174.0C653.0 -205.0 668.0 -252.0 669.0 -286.0C722.0 -287.0 772.0 -287.0 803.0 -283.0C838.0 -279.0 866.0 -269.0 890.0 -241.0C917.0 -208.0 927.0 -121.0 934.0 96.0C935.0 111.0 935.0 145.0 935.0 145.0ZM152.0 612.0C169.0 574.0 187.0 522.0 192.0 489.0L322.0 531.0C314.0 563.0 295.0 612.0 276.0 648.0ZM622.0 388.0C648.0 356.0 680.0 312.0 696.0 284.0L778.0 343.0C762.0 369.0 730.0 409.0 702.0 439.0Z"/></g>
<g fill="black" opacity=".8" transform="translate(200 200) scale(0.1 -0.1)"><path d="M0.0 0.0 5.0 -118.0C123.0 -111.0 286.0 -103.0 440.0 -93.0L441.0 19.0C283.0 11.0 114.0 4.0 0.0 0.0ZM770.0 552.0V533.0C766.0 360.0 760.0 297.0 748.0 281.0C741.0 272.0 734.0 270.0 722.0 270.0C708.0 270.0 685.0 270.0 658.0 273.0C674.0 246.0 686.0 202.0 687.0 171.0C728.0 170.0 767.0 170.0 790.0 174.0C817.0 178.0 840.0 187.0 859.0 212.0C882.0 241.0 891.0 318.0 897.0 508.0C897.0 522.0 898.0 552.0 898.0 552.0ZM802.0 145.0V125.0C797.0 -70.0 790.0 -149.0 774.0 -167.0C765.0 -177.0 755.0 -179.0 739.0 -179.0C719.0 -179.0 678.0 -178.0 634.0 -174.0C653.0 -205.0 668.0 -252.0 669.0 -286.0C722.0 -287.0 772.0 -287.0 803.0 -283.0C838.0 -279.0 866.0 -269.0 890.0 -241.0C917.0 -208.0 927.0 -121.0 934.0 96.0C935.0 111.0 935.0 145.0 935.0 145.0ZM152.0 612.0C169.0 574.0 187.0 522.0 192.0 489.0L322.0 531.0C314.0 563.0 295.0 612.0 276.0 648.0ZM622.0 388.0C648.0 356.0 680.0 312.0 696.0 284.0L778.0 343.0C762.0 369.0 730.0 409.0 702.0 439.0Z"/></g>
</svg>
