<?xml version="1.0" encoding="UTF-8"?>
<svg width="1700" height="300" xmlns="http://www.w3.org/2000/svg">
<rect width="100%" height="100%" fill="white"/>
<g fill="green" transform="translate(100 100) scale(0.1 -0.1)"><path d="M0.0 0.0 21.0 -28.0C68.0 -0.0 120.0 30.0 173.0 61.0L165.0 87.0C102.0 53.0 44.0 19.0 0.0 0.0ZM23.0 325.0C55.0 294.0 93.0 249.0 111.0 220.0L137.0 238.0C118.0 265.0 81.0 308.0 47.0 340.0Z"/></g>
<g fill="green" transform="translate(200 100) scale(0.1 -0.1)"><path d="M0.0 0.0 46.0 -116.0C86.0 -83.0 122.0 -50.0 161.0 -16.0L136.0 64.0C84.0 38.0 36.0 14.0 0.0 0.0ZM-8.0 241.0C19.0 208.0 52.0 162.0 67.0 134.0L146.0 191.0C129.0 218.0 96.0 259.0 68.0 290.0Z"/></g>
<g fill="green" transform="translate(300 100) scale(0.1 -0.1)"><path d="M0.0 0.0 21.0 -27.0C67.0 -0.0 118.0 29.0 170.0 60.0L162.0 85.0C100.0 52.0 43.0 19.0 0.0 0.0ZM23.0 319.0C54.0 288.0 91.0 244.0 109.0 216.0L134.0 234.0C116.0 260.0 79.0 302.0 46.0 333.0Z"/></g>
<g fill="green" transform="translate(400 100) scale(0.1 -0.1)"><path d="M0.0 0.0 45.0 -114.0C84.0 -82.0 120.0 -49.0 158.0 -16.0L134.0 62.0C82.0 37.0 35.0 14.0 0.0 0.0ZM-8.0 236.0C19.0 204.0 51.0 159.0 66.0 132.0L143.0 188.0C127.0 214.0 94.0 254.0 67.0 285.0Z"/></g>
<g fill="green" transform="translate(500 100) scale(0.1 -0.1)"><path d="M0.0 0.0 21.0 -29.0C73.0 2.0 132.0 37.0 192.0 71.0L183.0 98.0C115.0 60.0 48.0 22.0 0.0 0.0ZM23.0 331.0C63.0 292.0 111.0 235.0 133.0 199.0L160.0 216.0C136.0 252.0 89.0 307.0 47.0 347.0Z"/></g>
<g fill="green" transform="translate(600 100) scale(0.1 -0.1)"><path d="M0.0 0.0 48.0 -122.0C90.0 -74.0 128.0 -29.0 166.0 18.0L125.0 98.0C78.0 58.0 33.0 22.0 0.0 0.0ZM-23.0 243.0C2.0 206.0 34.0 155.0 48.0 123.0L134.0 178.0C117.0 209.0 86.0 255.0 59.0 290.0Z"/></g>
<g fill="red" transform="translate(100 200) scale(0.1 -0.1)"><path d="M0.0 0.0 21.0 -28.0C68.0 0.0 120.0 30.0 173.0 61.0L165.0 87.0C102.0 53.0 44.0 19.0 0.0 0.0ZM23.0 325.0C55.0 294.0 93.0 249.0 111.0 220.0L137.0 238.0C118.0 265.0 81.0 308.0 47.0 340.0Z"/></g>
<g fill="black" opacity=".8" transform="translate(100 200) scale(0.1 -0.1)"><path d="M0.0 0.0 21.0 -28.0C68.0 0.0 120.0 30.0 173.0 61.0L165.0 87.0C102.0 53.0 44.0 19.0 0.0 0.0ZM23.0 325.0C55.0 294.0 93.0 249.0 111.0 220.0L137.0 238.0C118.0 265.0 81.0 308.0 47.0 340.0Z"/></g>
<g fill="red" transform="translate(200 200) scale(0.1 -0.1)"><path d="M0.0 0.0 46.0 -116.0C86.0 -83.0 122.0 -50.0 161.0 -16.0L136.0 64.0C84.0 38.0 36.0 14.0 0.0 0.0ZM-8.0 241.0C19.0 208.0 52.0 162.0 67.0 134.0L146.0 191.0C129.0 218.0 96.0 259.0 68.0 290.0Z"/></g>
<g fill="black" opacity=".8" transform="translate(200 200) scale(0.1 -0.1)"><path d="M0.0 0.0 46.0 -116.0C86.0 -83.0 122.0 -50.0 161.0 -16.0L136.0 64.0C84.0 38.0 36.0 14.0 0.0 0.0ZM-8.0 241.0C19.0 208.0 52.0 162.0 67.0 134.0L146.0 191.0C129.0 218.0 96.0 259.0 68.0 290.0Z"/></g>
<g fill="red" transform="translate(300 200) scale(0.1 -0.1)"><path d="M0.0 0.0 21.0 -28.0C72.0 2.0 130.0 36.0 189.0 70.0L180.0 96.0C113.0 59.0 47.0 22.0 0.0 0.0ZM23.0 325.0C62.0 286.0 109.0 230.0 131.0 195.0L157.0 212.0C134.0 247.0 87.0 301.0 46.0 340.0Z"/></g>
<g fill="black" opacity=".8" transform="translate(300 200) scale(0.1 -0.1)"><path d="M0.0 0.0 21.0 -28.0C72.0 2.0 130.0 36.0 189.0 70.0L180.0 96.0C113.0 59.0 47.0 22.0 0.0 0.0ZM23.0 325.0C62.0 286.0 109.0 230.0 131.0 195.0L157.0 212.0C134.0 247.0 87.0 301.0 46.0 340.0Z"/></g>
<g fill="red" transform="translate(400 200) scale(0.1 -0.1)"><path d="M0.0 0.0 47.0 -120.0C88.0 -73.0 126.0 -28.0 163.0 18.0L123.0 96.0C76.0 57.0 32.0 22.0 0.0 0.0ZM-23.0 238.0C2.0 202.0 33.0 152.0 47.0 121.0L131.0 175.0C115.0 205.0 84.0 250.0 58.0 285.0Z"/></g>
<g fill="black" opacity=".8" transform="translate(400 200) scale(0.1 -0.1)"><path d="M0.0 0.0 47.0 -120.0C88.0 -73.0 126.0 -28.0 163.0 18.0L123.0 96.0C76.0 57.0 32.0 22.0 0.0 0.0ZM-23.0 238.0C2.0 202.0 33.0 152.0 47.0 121.0L131.0 175.0C115.0 205.0 84.0 250.0 58.0 285.0Z"/></g>
</svg>
