<?xml version="1.0" encoding="UTF-8"?>
<svg width="1700" height="300" xmlns="http://www.w3.org/2000/svg">
<rect width="100%" height="100%" fill="white"/>
<g fill="green" transform="translate(100 100) scale(0.1 -0.1)"><path d="M-0.0 0.0 22.0 -26.0C70.0 8.0 123.0 46.0 174.0 87.0L164.0 113.0C102.0 68.0 42.0 27.0 0.0 0.0ZM9.0 338.0C48.0 296.0 92.0 237.0 114.0 199.0L139.0 215.0C117.0 251.0 72.0 308.0 32.0 350.0Z"/></g>
<g fill="green" transform="translate(200 100) scale(0.1 -0.1)"><path d="M0.0 0.0 47.0 -120.0C90.0 -72.0 130.0 -26.0 170.0 21.0L130.0 99.0C80.0 59.0 34.0 23.0 0.0 0.0ZM-28.0 246.0C-2.0 214.0 30.0 169.0 45.0 141.0L125.0 200.0C108.0 226.0 77.0 265.0 48.0 296.0Z"/></g>
<g fill="green" transform="translate(300 100) scale(0.1 -0.1)"><path d="M0.0 0.0 19.0 -22.0C59.0 8.0 103.0 41.0 145.0 78.0L136.0 100.0C84.0 60.0 35.0 24.0 0.0 0.0ZM6.0 296.0C38.0 258.0 75.0 207.0 93.0 173.0L115.0 187.0C97.0 218.0 59.0 268.0 26.0 305.0Z"/></g>
<g fill="green" transform="translate(400 100) scale(0.1 -0.1)"><path d="M0.0 0.0 41.0 -103.0C76.0 -61.0 109.0 -20.0 142.0 21.0L106.0 87.0C65.0 52.0 28.0 20.0 0.0 0.0ZM-26.0 217.0C-5.0 189.0 22.0 150.0 34.0 125.0L103.0 175.0C89.0 198.0 64.0 232.0 39.0 259.0Z"/></g>
<g fill="green" transform="translate(500 100) scale(0.1 -0.1)"><path d="M0.0 0.0 19.0 -34.0C106.0 -8.0 214.0 26.0 319.0 59.0L314.0 91.0C199.0 55.0 80.0 22.0 0.0 0.0ZM33.0 230.0C114.0 199.0 211.0 148.0 263.0 110.0L276.0 138.0C226.0 173.0 127.0 221.0 46.0 251.0Z"/></g>
<g fill="green" transform="translate(600 100) scale(0.1 -0.1)"><path d="M0.0 0.0 45.0 -127.0C134.0 -97.0 243.0 -63.0 346.0 -29.0L324.0 86.0C205.0 52.0 84.0 20.0 0.0 0.0ZM8.0 111.0C58.0 94.0 127.0 68.0 163.0 50.0L223.0 148.0C185.0 163.0 115.0 185.0 65.0 198.0Z"/></g>
<g fill="green" transform="translate(700 100) scale(0.1 -0.1)"><path d="M0.0 0.0 21.0 -27.0C66.0 2.0 115.0 34.0 163.0 67.0L155.0 93.0C95.0 56.0 41.0 21.0 0.0 0.0ZM17.0 329.0C48.0 297.0 84.0 252.0 101.0 222.0L127.0 240.0C109.0 266.0 74.0 310.0 41.0 342.0Z"/></g>
<g fill="green" transform="translate(800 100) scale(0.1 -0.1)"><path d="M0.0 0.0 46.0 -115.0C86.0 -82.0 121.0 -50.0 161.0 -16.0L136.0 63.0C84.0 38.0 36.0 14.0 0.0 0.0ZM-9.0 244.0C18.0 213.0 50.0 169.0 65.0 142.0L142.0 201.0C125.0 226.0 93.0 264.0 64.0 293.0Z"/></g>
<g fill="green" transform="translate(900 100) scale(0.1 -0.1)"><path d="M0.0 0.0 22.0 -28.0C71.0 4.0 126.0 39.0 182.0 76.0L172.0 102.0C108.0 62.0 45.0 24.0 0.0 0.0ZM21.0 340.0C58.0 298.0 102.0 239.0 123.0 203.0L150.0 219.0C129.0 255.0 84.0 312.0 45.0 353.0Z"/></g>
<g fill="green" transform="translate(1000 100) scale(0.1 -0.1)"><path d="M0.0 0.0 48.0 -122.0C87.0 -71.0 120.0 -24.0 153.0 26.0L110.0 102.0C67.0 60.0 29.0 24.0 0.0 0.0ZM-27.0 252.0C-4.0 215.0 24.0 162.0 37.0 130.0L124.0 182.0C109.0 213.0 81.0 260.0 56.0 297.0Z"/></g>
<g fill="red" transform="translate(100 200) scale(0.1 -0.1)"><path d="M0.0 0.0 21.0 -28.0C68.0 0.0 120.0 30.0 173.0 61.0L165.0 87.0C102.0 53.0 44.0 19.0 0.0 0.0ZM23.0 325.0C55.0 294.0 93.0 249.0 111.0 220.0L137.0 238.0C118.0 265.0 81.0 308.0 47.0 340.0Z"/></g>
<g fill="black" opacity=".8" transform="translate(100 200) scale(0.1 -0.1)"><path d="M0.0 0.0 21.0 -28.0C68.0 -0.0 120.0 30.0 173.0 61.0L165.0 87.0C102.0 53.0 44.0 20.0 0.0 0.0ZM23.0 325.0C55.0 294.0 93.0 249.0 111.0 220.0L138.0 238.0C119.0 264.0 82.0 308.0 47.0 339.0Z"/></g>
<g fill="red" transform="translate(200 200) scale(0.1 -0.1)"><path d="M0.0 0.0 46.0 -116.0C86.0 -83.0 122.0 -50.0 161.0 -16.0L136.0 64.0C84.0 38.0 36.0 14.0 0.0 0.0ZM-8.0 241.0C19.0 208.0 52.0 162.0 67.0 134.0L146.0 191.0C129.0 218.0 96.0 259.0 68.0 290.0Z"/></g>
<g fill="black" opacity=".8" transform="translate(200 200) scale(0.1 -0.1)"><path d="M0.0 0.0 46.0 -116.0C87.0 -83.0 122.0 -51.0 162.0 -16.0L136.0 64.0C84.0 38.0 36.0 14.0 0.0 0.0ZM-7.0 241.0C20.0 208.0 52.0 162.0 67.0 133.0L146.0 191.0C129.0 218.0 96.0 258.0 68.0 289.0Z"/></g>
<g fill="red" transform="translate(300 200) scale(0.1 -0.1)"><path d="M0.0 0.0 21.0 -25.0C67.0 8.0 117.0 45.0 166.0 84.0L156.0 109.0C97.0 66.0 40.0 26.0 0.0 0.0ZM8.0 326.0C45.0 286.0 87.0 229.0 108.0 192.0L132.0 207.0C111.0 242.0 68.0 297.0 30.0 338.0Z"/></g>
<g fill="black" opacity=".8" transform="translate(300 200) scale(0.1 -0.1)"><path d="M0.0 0.0 21.0 -25.0C67.0 8.0 117.0 45.0 166.0 84.0L156.0 109.0C97.0 66.0 40.0 26.0 0.0 0.0ZM8.0 326.0C45.0 285.0 87.0 229.0 108.0 192.0L132.0 207.0C111.0 242.0 68.0 297.0 30.0 337.0Z"/></g>
<g fill="red" transform="translate(400 200) scale(0.1 -0.1)"><path d="M0.0 0.0 45.0 -115.0C86.0 -69.0 124.0 -24.0 162.0 21.0L123.0 96.0C76.0 57.0 32.0 22.0 0.0 0.0ZM-28.0 238.0C-3.0 207.0 28.0 164.0 42.0 137.0L119.0 193.0C103.0 218.0 73.0 256.0 46.0 286.0Z"/></g>
<g fill="black" opacity=".8" transform="translate(400 200) scale(0.1 -0.1)"><path d="M0.0 0.0 45.0 -115.0C86.0 -69.0 124.0 -24.0 162.0 21.0L123.0 96.0C76.0 57.0 32.0 22.0 0.0 0.0ZM-27.0 238.0C-3.0 207.0 28.0 164.0 42.0 137.0L119.0 193.0C103.0 218.0 73.0 256.0 45.0 286.0Z"/></g>
<g fill="red" transform="translate(500 200) scale(0.1 -0.1)"><path d="M0.0 0.0 16.0 -31.0C94.0 -12.0 192.0 14.0 289.0 38.0L286.0 66.0C181.0 40.0 74.0 15.0 0.0 0.0ZM37.0 185.0C108.0 163.0 195.0 124.0 241.0 94.0L252.0 120.0C207.0 148.0 120.0 184.0 48.0 206.0Z"/></g>
<g fill="black" opacity=".8" transform="translate(500 200) scale(0.1 -0.1)"><path d="M0.0 0.0 16.0 -31.0C94.0 -12.0 192.0 14.0 289.0 38.0L286.0 66.0C181.0 40.0 74.0 16.0 0.0 0.0ZM38.0 186.0C108.0 162.0 195.0 124.0 241.0 94.0L252.0 121.0C208.0 147.0 120.0 183.0 49.0 204.0Z"/></g>
<g fill="red" transform="translate(600 200) scale(0.1 -0.1)"><path d="M0.0 0.0 38.0 -109.0C117.0 -89.0 215.0 -64.0 307.0 -40.0L294.0 63.0C186.0 38.0 76.0 14.0 0.0 0.0ZM16.0 84.0C61.0 69.0 124.0 46.0 156.0 31.0L207.0 116.0C173.0 130.0 109.0 150.0 66.0 161.0Z"/></g>
<g fill="black" opacity=".8" transform="translate(600 200) scale(0.1 -0.1)"><path d="M0.0 0.0 39.0 -109.0C117.0 -89.0 215.0 -65.0 308.0 -40.0L294.0 62.0C186.0 38.0 77.0 14.0 0.0 0.0ZM17.0 84.0C61.0 69.0 124.0 46.0 156.0 30.0L207.0 116.0C172.0 130.0 109.0 150.0 65.0 160.0Z"/></g>
<g fill="red" transform="translate(700 200) scale(0.1 -0.1)"><path d="M0.0 0.0 21.0 -28.0C72.0 2.0 130.0 36.0 189.0 70.0L180.0 96.0C113.0 59.0 47.0 22.0 0.0 0.0ZM23.0 325.0C62.0 286.0 109.0 230.0 131.0 195.0L157.0 212.0C134.0 247.0 87.0 301.0 46.0 340.0Z"/></g>
<g fill="black" opacity=".8" transform="translate(700 200) scale(0.1 -0.1)"><path d="M0.0 0.0 21.0 -28.0C72.0 2.0 130.0 36.0 189.0 71.0L180.0 97.0C113.0 59.0 47.0 23.0 0.0 0.0ZM23.0 326.0C62.0 286.0 109.0 230.0 131.0 195.0L157.0 212.0C135.0 246.0 87.0 301.0 46.0 339.0Z"/></g>
<g fill="red" transform="translate(800 200) scale(0.1 -0.1)"><path d="M0.0 0.0 47.0 -120.0C88.0 -73.0 126.0 -28.0 163.0 18.0L123.0 96.0C76.0 57.0 32.0 22.0 0.0 0.0ZM-23.0 238.0C2.0 202.0 33.0 152.0 47.0 121.0L131.0 175.0C115.0 205.0 84.0 250.0 58.0 285.0Z"/></g>
<g fill="black" opacity=".8" transform="translate(800 200) scale(0.1 -0.1)"><path d="M0.0 0.0 47.0 -120.0C89.0 -73.0 126.0 -29.0 163.0 18.0L124.0 96.0C76.0 57.0 33.0 23.0 0.0 0.0ZM-22.0 237.0C2.0 202.0 33.0 152.0 47.0 121.0L131.0 175.0C115.0 205.0 84.0 250.0 58.0 284.0Z"/></g>
</svg>
