<?xml version="1.0" encoding="UTF-8"?>
<svg width="1700" height="300" xmlns="http://www.w3.org/2000/svg">
<rect width="100%" height="100%" fill="white"/>
<g fill="green" transform="translate(100 100) scale(0.1 -0.1)"><path d="M-0.0 0.0 21.0 -28.0C67.0 1.0 116.0 31.0 167.0 62.0L159.0 88.0C98.0 54.0 43.0 19.0 0.0 0.0ZM22.0 329.0C52.0 298.0 88.0 253.0 105.0 224.0L132.0 241.0C114.0 268.0 79.0 312.0 46.0 344.0Z"/></g>
<g fill="green" transform="translate(200 100) scale(0.1 -0.1)"><path d="M0.0 0.0 46.0 -116.0C84.0 -82.0 118.0 -49.0 154.0 -14.0L129.0 64.0C79.0 38.0 34.0 14.0 0.0 0.0ZM-9.0 246.0C17.0 213.0 48.0 166.0 63.0 138.0L142.0 193.0C126.0 221.0 95.0 262.0 67.0 294.0Z"/></g>
<g fill="green" transform="translate(300 100) scale(0.1 -0.1)"><path d="M0.0 0.0 19.0 -25.0C58.0 1.0 99.0 27.0 142.0 54.0L134.0 77.0C83.0 47.0 37.0 17.0 0.0 0.0ZM19.0 294.0C44.0 267.0 73.0 228.0 87.0 203.0L111.0 218.0C96.0 241.0 68.0 279.0 41.0 307.0Z"/></g>
<g fill="green" transform="translate(400 100) scale(0.1 -0.1)"><path d="M0.0 0.0 41.0 -102.0C72.0 -72.0 99.0 -43.0 129.0 -13.0L107.0 55.0C65.0 33.0 28.0 12.0 0.0 0.0ZM-8.0 222.0C14.0 193.0 40.0 150.0 52.0 125.0L123.0 172.0C110.0 198.0 84.0 234.0 60.0 263.0Z"/></g>
<g fill="green" transform="translate(500 100) scale(0.1 -0.1)"><path d="M0.0 0.0 18.0 -36.0C102.0 -16.0 205.0 10.0 310.0 32.0L308.0 64.0C194.0 39.0 81.0 13.0 0.0 0.0ZM47.0 215.0C118.0 195.0 208.0 157.0 254.0 128.0L269.0 157.0C223.0 184.0 135.0 219.0 60.0 239.0Z"/></g>
<g fill="green" transform="translate(600 100) scale(0.1 -0.1)"><path d="M0.0 0.0 43.0 -121.0C125.0 -104.0 227.0 -82.0 323.0 -60.0L316.0 53.0C199.0 32.0 82.0 11.0 0.0 0.0ZM25.0 107.0C74.0 89.0 141.0 60.0 176.0 42.0L235.0 133.0C199.0 151.0 130.0 176.0 83.0 190.0Z"/></g>
<g fill="green" transform="translate(700 100) scale(0.1 -0.1)"><path d="M-0.0 0.0 22.0 -26.0C71.0 8.0 122.0 46.0 174.0 86.0L164.0 113.0C102.0 69.0 43.0 27.0 0.0 0.0ZM9.0 337.0C47.0 297.0 92.0 238.0 114.0 199.0L140.0 215.0C117.0 251.0 72.0 309.0 31.0 350.0Z"/></g>
<g fill="green" transform="translate(800 100) scale(0.1 -0.1)"><path d="M0.0 0.0 47.0 -120.0C90.0 -72.0 131.0 -26.0 170.0 21.0L131.0 99.0C80.0 59.0 34.0 23.0 0.0 0.0ZM-28.0 246.0C-2.0 214.0 30.0 169.0 46.0 142.0L125.0 200.0C109.0 226.0 77.0 265.0 48.0 296.0Z"/></g>
<g fill="red" transform="translate(100 200) scale(0.1 -0.1)"><path d="M0.0 0.0 21.0 -28.0C68.0 0.0 120.0 30.0 173.0 61.0L165.0 87.0C102.0 53.0 44.0 19.0 0.0 0.0ZM23.0 325.0C55.0 294.0 93.0 249.0 111.0 220.0L137.0 238.0C118.0 265.0 81.0 308.0 47.0 340.0Z"/></g>
<g fill="black" opacity=".8" transform="translate(100 200) scale(0.1 -0.1)"><path d="M0.0 0.0 21.0 -28.0C68.0 0.0 119.0 30.0 173.0 61.0L165.0 87.0C102.0 53.0 44.0 19.0 0.0 0.0ZM23.0 325.0C55.0 294.0 93.0 249.0 111.0 220.0L137.0 238.0C118.0 265.0 81.0 308.0 47.0 340.0Z"/></g>
<g fill="red" transform="translate(200 200) scale(0.1 -0.1)"><path d="M0.0 0.0 46.0 -116.0C86.0 -83.0 122.0 -50.0 161.0 -16.0L136.0 64.0C84.0 38.0 36.0 14.0 0.0 0.0ZM-8.0 241.0C19.0 208.0 52.0 162.0 67.0 134.0L146.0 191.0C129.0 218.0 96.0 259.0 68.0 290.0Z"/></g>
<g fill="black" opacity=".8" transform="translate(200 200) scale(0.1 -0.1)"><path d="M0.0 0.0 46.0 -116.0C86.0 -83.0 122.0 -50.0 161.0 -16.0L136.0 64.0C84.0 38.0 36.0 14.0 0.0 0.0ZM-8.0 241.0C19.0 208.0 52.0 162.0 67.0 134.0L146.0 191.0C129.0 218.0 96.0 259.0 68.0 290.0Z"/></g>
<g fill="red" transform="translate(300 200) scale(0.1 -0.1)"><path d="M0.0 0.0 21.0 -25.0C67.0 8.0 117.0 45.0 166.0 84.0L156.0 109.0C97.0 66.0 40.0 26.0 0.0 0.0ZM8.0 326.0C45.0 286.0 87.0 229.0 108.0 192.0L132.0 207.0C111.0 242.0 68.0 297.0 30.0 338.0Z"/></g>
<g fill="black" opacity=".8" transform="translate(300 200) scale(0.1 -0.1)"><path d="M0.0 0.0 21.0 -25.0C68.0 8.0 116.0 45.0 165.0 83.0L155.0 109.0C97.0 67.0 41.0 26.0 0.0 0.0ZM8.0 325.0C44.0 286.0 87.0 229.0 108.0 192.0L133.0 207.0C111.0 242.0 68.0 298.0 29.0 337.0Z"/></g>
<g fill="red" transform="translate(400 200) scale(0.1 -0.1)"><path d="M0.0 0.0 45.0 -115.0C86.0 -69.0 124.0 -24.0 162.0 21.0L123.0 96.0C76.0 57.0 32.0 22.0 0.0 0.0ZM-28.0 238.0C-3.0 207.0 28.0 164.0 42.0 137.0L119.0 193.0C103.0 218.0 73.0 256.0 46.0 286.0Z"/></g>
<g fill="black" opacity=".8" transform="translate(400 200) scale(0.1 -0.1)"><path d="M0.0 0.0 45.0 -115.0C86.0 -69.0 124.0 -24.0 161.0 21.0L123.0 96.0C75.0 57.0 32.0 22.0 0.0 0.0ZM-28.0 238.0C-3.0 207.0 27.0 164.0 42.0 138.0L118.0 193.0C104.0 218.0 73.0 255.0 46.0 285.0Z"/></g>
<g fill="red" transform="translate(500 200) scale(0.1 -0.1)"><path d="M0.0 0.0 16.0 -31.0C94.0 -12.0 192.0 14.0 289.0 38.0L286.0 66.0C181.0 40.0 74.0 15.0 0.0 0.0ZM37.0 185.0C108.0 163.0 195.0 124.0 241.0 94.0L252.0 120.0C207.0 148.0 120.0 184.0 48.0 206.0Z"/></g>
<g fill="black" opacity=".8" transform="translate(500 200) scale(0.1 -0.1)"><path d="M0.0 0.0 17.0 -32.0C95.0 -12.0 191.0 14.0 289.0 37.0L286.0 66.0C181.0 40.0 75.0 15.0 0.0 0.0ZM37.0 184.0C107.0 163.0 195.0 124.0 241.0 94.0L252.0 120.0C207.0 148.0 120.0 184.0 47.0 205.0Z"/></g>
<g fill="red" transform="translate(600 200) scale(0.1 -0.1)"><path d="M0.0 0.0 38.0 -109.0C117.0 -89.0 215.0 -64.0 307.0 -40.0L294.0 63.0C186.0 38.0 76.0 14.0 0.0 0.0ZM16.0 84.0C61.0 69.0 124.0 46.0 156.0 31.0L207.0 116.0C173.0 130.0 109.0 150.0 66.0 161.0Z"/></g>
<g fill="black" opacity=".8" transform="translate(600 200) scale(0.1 -0.1)"><path d="M0.0 0.0 39.0 -109.0C116.0 -89.0 215.0 -64.0 306.0 -40.0L295.0 63.0C186.0 38.0 76.0 14.0 0.0 0.0ZM16.0 83.0C61.0 70.0 123.0 46.0 156.0 31.0L207.0 116.0C174.0 131.0 109.0 150.0 66.0 160.0Z"/></g>
</svg>
