<?xml version="1.0" encoding="UTF-8"?>
<svg width="1700" height="300" xmlns="http://www.w3.org/2000/svg">
<rect width="100%" height="100%" fill="white"/>
<g fill="green" transform="translate(100 100) scale(0.1 -0.1)"><path d="M0.0 0.0 -19.0 -15.0C5.0 -46.0 79.0 -170.0 101.0 -211.0L123.0 -184.0C104.0 -154.0 22.0 -27.0 0.0 0.0ZM671.0 -97.0C628.0 -147.0 552.0 -216.0 497.0 -258.0L518.0 -278.0C572.0 -236.0 644.0 -174.0 694.0 -118.0ZM290.0 -611.0C301.0 -599.0 323.0 -587.0 484.0 -504.0C482.0 -497.0 478.0 -484.0 477.0 -475.0L307.0 -558.0L289.0 -579.0ZM290.0 -611.0C290.0 -599.0 328.0 -582.0 328.0 -582.0C331.0 -484.0 330.0 -119.0 327.0 1.0H300.0C301.0 -104.0 302.0 -496.0 301.0 -542.0C301.0 -569.0 289.0 -571.0 275.0 -576.0C279.0 -584.0 287.0 -602.0 290.0 -611.0ZM636.0 77.0C563.0 46.0 418.0 19.0 300.0 1.0C304.0 -7.0 308.0 -18.0 310.0 -24.0C430.0 -9.0 575.0 19.0 662.0 54.0Z"/></g>
<g fill="green" transform="translate(200 100) scale(0.1 -0.1)"><path d="M0.0 0.0 -60.0 -50.0C-32.0 -105.0 15.0 -217.0 36.0 -281.0L115.0 -185.0C99.0 -155.0 22.0 -28.0 0.0 0.0ZM622.0 -80.0C591.0 -123.0 536.0 -183.0 498.0 -215.0L564.0 -298.0C606.0 -272.0 656.0 -228.0 717.0 -189.0ZM282.0 -598.0C302.0 -579.0 337.0 -558.0 508.0 -484.0C498.0 -457.0 486.0 -407.0 481.0 -371.0L302.0 -440.0L263.0 -480.0ZM282.0 -598.0C282.0 -563.0 403.0 -511.0 403.0 -511.0C405.0 -383.0 404.0 -90.0 402.0 41.0H273.0C276.0 -76.0 281.0 -355.0 277.0 -401.0C273.0 -445.0 258.0 -461.0 230.0 -471.0C246.0 -501.0 273.0 -564.0 282.0 -598.0ZM578.0 121.0C502.0 88.0 383.0 59.0 272.0 42.0C288.0 12.0 307.0 -41.0 313.0 -73.0C434.0 -59.0 574.0 -33.0 687.0 9.0Z"/></g>
<g fill="green" transform="translate(300 100) scale(0.1 -0.1)"><path d="M0.0 0.0 -19.0 -15.0C5.0 -46.0 79.0 -170.0 101.0 -211.0L123.0 -184.0C104.0 -154.0 22.0 -27.0 0.0 0.0ZM671.0 -97.0C628.0 -147.0 552.0 -216.0 497.0 -258.0L518.0 -278.0C572.0 -236.0 644.0 -174.0 694.0 -118.0ZM290.0 -611.0C301.0 -599.0 323.0 -587.0 484.0 -504.0C482.0 -497.0 478.0 -484.0 477.0 -475.0L307.0 -558.0L289.0 -579.0ZM290.0 -611.0C290.0 -599.0 328.0 -582.0 328.0 -582.0C331.0 -484.0 330.0 -119.0 327.0 1.0H300.0C301.0 -104.0 302.0 -496.0 301.0 -542.0C301.0 -569.0 289.0 -571.0 275.0 -576.0C279.0 -584.0 287.0 -602.0 290.0 -611.0ZM636.0 77.0C563.0 46.0 418.0 19.0 300.0 1.0C304.0 -7.0 308.0 -18.0 310.0 -24.0C430.0 -9.0 575.0 19.0 662.0 54.0Z"/></g>
<g fill="green" transform="translate(400 100) scale(0.1 -0.1)"><path d="M0.0 0.0 -60.0 -50.0C-32.0 -105.0 15.0 -217.0 36.0 -281.0L115.0 -185.0C99.0 -155.0 22.0 -28.0 0.0 0.0ZM622.0 -80.0C591.0 -123.0 536.0 -183.0 498.0 -215.0L564.0 -298.0C606.0 -272.0 656.0 -228.0 717.0 -189.0ZM282.0 -598.0C302.0 -579.0 337.0 -558.0 508.0 -484.0C498.0 -457.0 486.0 -407.0 481.0 -371.0L302.0 -440.0L263.0 -480.0ZM282.0 -598.0C282.0 -563.0 403.0 -511.0 403.0 -511.0C405.0 -383.0 404.0 -90.0 402.0 41.0H273.0C276.0 -76.0 281.0 -355.0 277.0 -401.0C273.0 -445.0 258.0 -461.0 230.0 -471.0C246.0 -501.0 273.0 -564.0 282.0 -598.0ZM578.0 121.0C502.0 88.0 383.0 59.0 272.0 42.0C288.0 12.0 307.0 -41.0 313.0 -73.0C434.0 -59.0 574.0 -33.0 687.0 9.0Z"/></g>
<g fill="red" transform="translate(100 200) scale(0.1 -0.1)"><path d="M0.0 0.0 -19.0 -15.0C5.0 -46.0 79.0 -170.0 101.0 -211.0L123.0 -184.0C104.0 -154.0 22.0 -27.0 0.0 0.0ZM671.0 -97.0C628.0 -147.0 552.0 -216.0 497.0 -258.0L518.0 -278.0C572.0 -236.0 644.0 -174.0 694.0 -118.0ZM290.0 -611.0C301.0 -599.0 323.0 -587.0 484.0 -504.0C482.0 -497.0 478.0 -484.0 477.0 -475.0L307.0 -558.0L289.0 -579.0ZM290.0 -611.0C290.0 -599.0 328.0 -582.0 328.0 -582.0C331.0 -484.0 330.0 -119.0 327.0 1.0H300.0C301.0 -104.0 302.0 -496.0 301.0 -542.0C301.0 -569.0 289.0 -571.0 275.0 -576.0C279.0 -584.0 287.0 -602.0 290.0 -611.0ZM636.0 77.0C563.0 46.0 418.0 19.0 300.0 1.0C304.0 -7.0 308.0 -18.0 310.0 -24.0C430.0 -9.0 575.0 19.0 662.0 54.0Z"/></g>
<g fill="black" opacity=".8" transform="translate(100 200) scale(0.1 -0.1)"><path d="M0.0 0.0 -19.0 -15.0C5.0 -46.0 79.0 -170.0 101.0 -211.0L123.0 -184.0C104.0 -154.0 22.0 -27.0 0.0 0.0ZM671.0 -97.0C628.0 -147.0 552.0 -216.0 497.0 -258.0L518.0 -278.0C572.0 -236.0 644.0 -174.0 694.0 -118.0ZM290.0 -611.0C301.0 -599.0 323.0 -587.0 484.0 -504.0C482.0 -497.0 478.0 -484.0 477.0 -475.0L307.0 -558.0L289.0 -579.0ZM290.0 -611.0C290.0 -599.0 328.0 -582.0 328.0 -582.0C331.0 -484.0 330.0 -119.0 327.0 1.0H300.0C301.0 -104.0 302.0 -496.0 301.0 -542.0C301.0 -569.0 289.0 -571.0 275.0 -576.0C279.0 -584.0 287.0 -602.0 290.0 -611.0ZM636.0 77.0C563.0 46.0 418.0 19.0 300.0 1.0C304.0 -7.0 308.0 -18.0 310.0 -24.0C430.0 -9.0 575.0 19.0 662.0 54.0Z"/></g>
<g fill="red" transform="translate(200 200) scale(0.1 -0.1)"><path d="M0.0 0.0 -60.0 -50.0C-32.0 -105.0 15.0 -217.0 36.0 -281.0L115.0 -185.0C99.0 -155.0 22.0 -28.0 0.0 0.0ZM622.0 -80.0C591.0 -123.0 536.0 -183.0 498.0 -215.0L564.0 -298.0C606.0 -272.0 656.0 -228.0 717.0 -189.0ZM282.0 -598.0C302.0 -579.0 337.0 -558.0 508.0 -484.0C498.0 -457.0 486.0 -407.0 481.0 -371.0L302.0 -440.0L263.0 -480.0ZM282.0 -598.0C282.0 -563.0 403.0 -511.0 403.0 -511.0C405.0 -383.0 404.0 -90.0 402.0 41.0H273.0C276.0 -76.0 281.0 -355.0 277.0 -401.0C273.0 -445.0 258.0 -461.0 230.0 -471.0C246.0 -501.0 273.0 -564.0 282.0 -598.0ZM578.0 121.0C502.0 88.0 383.0 59.0 272.0 42.0C288.0 12.0 307.0 -41.0 313.0 -73.0C434.0 -59.0 574.0 -33.0 687.0 9.0Z"/></g>
<g fill="black" opacity=".8" transform="translate(200 200) scale(0.1 -0.1)"><path d="M0.0 0.0 -60.0 -50.0C-32.0 -105.0 15.0 -217.0 36.0 -281.0L115.0 -185.0C99.0 -155.0 22.0 -28.0 0.0 0.0ZM622.0 -80.0C591.0 -123.0 536.0 -183.0 498.0 -215.0L564.0 -298.0C606.0 -272.0 656.0 -228.0 717.0 -189.0ZM282.0 -598.0C302.0 -579.0 337.0 -558.0 508.0 -484.0C498.0 -457.0 486.0 -407.0 481.0 -371.0L302.0 -440.0L263.0 -480.0ZM282.0 -598.0C282.0 -563.0 403.0 -511.0 403.0 -511.0C405.0 -383.0 404.0 -90.0 402.0 41.0H273.0C276.0 -76.0 281.0 -355.0 277.0 -401.0C273.0 -445.0 258.0 -461.0 230.0 -471.0C246.0 -501.0 273.0 -564.0 282.0 -598.0ZM578.0 121.0C502.0 88.0 383.0 59.0 272.0 42.0C288.0 12.0 307.0 -41.0 313.0 -73.0C434.0 -59.0 574.0 -33.0 687.0 9.0Z"/></g>
</svg>
