<?xml version="1.0" encoding="UTF-8"?>
<svg width="1700" height="300" xmlns="http://www.w3.org/2000/svg">
<rect width="100%" height="100%" fill="white"/>
<g fill="green" transform="translate(100 100) scale(0.1 -0.1)"><path d="M0.0 0.0 10.0 -30.0C94.0 -2.0 209.0 37.0 320.0 74.0L316.0 104.0C197.0 65.0 79.0 24.0 0.0 0.0ZM704.0 584.0V-77.0C704.0 -89.0 699.0 -92.0 687.0 -93.0C676.0 -94.0 636.0 -94.0 588.0 -93.0C593.0 -101.0 598.0 -114.0 600.0 -121.0C660.0 -121.0 691.0 -121.0 709.0 -116.0C726.0 -110.0 733.0 -100.0 733.0 -76.0V584.0ZM799.0 404.0C844.0 318.0 885.0 206.0 899.0 131.0L927.0 141.0C913.0 216.0 871.0 328.0 825.0 414.0ZM391.0 415.0C372.0 313.0 337.0 215.0 286.0 148.0C293.0 144.0 307.0 135.0 312.0 131.0C362.0 200.0 399.0 302.0 422.0 411.0Z"/></g>
<g fill="green" transform="translate(200 100) scale(0.1 -0.1)"><path d="M0.0 0.0 25.0 -139.0C126.0 -110.0 253.0 -75.0 369.0 -40.0L349.0 91.0C224.0 56.0 90.0 19.0 0.0 0.0ZM670.0 495.0V-58.0C670.0 -68.0 667.0 -70.0 658.0 -70.0C650.0 -71.0 627.0 -71.0 607.0 -70.0C623.0 -107.0 638.0 -162.0 641.0 -199.0C695.0 -199.0 735.0 -196.0 767.0 -174.0C800.0 -153.0 807.0 -118.0 807.0 -60.0V495.0ZM793.0 353.0C820.0 258.0 847.0 131.0 854.0 49.0L977.0 81.0C966.0 164.0 939.0 285.0 908.0 381.0ZM373.0 381.0C362.0 281.0 340.0 178.0 301.0 113.0C330.0 99.0 382.0 67.0 404.0 48.0C447.0 123.0 478.0 243.0 493.0 360.0Z"/></g>
<g fill="green" transform="translate(300 100) scale(0.1 -0.1)"><path d="M0.0 0.0 10.0 -30.0C94.0 -2.0 209.0 37.0 320.0 74.0L316.0 104.0C197.0 65.0 79.0 24.0 0.0 0.0ZM704.0 584.0V-77.0C704.0 -89.0 699.0 -92.0 687.0 -93.0C676.0 -94.0 636.0 -94.0 588.0 -93.0C593.0 -101.0 598.0 -114.0 600.0 -121.0C660.0 -121.0 691.0 -121.0 709.0 -116.0C726.0 -110.0 733.0 -100.0 733.0 -76.0V584.0ZM799.0 404.0C844.0 318.0 885.0 206.0 899.0 131.0L927.0 141.0C913.0 216.0 871.0 328.0 825.0 414.0ZM391.0 415.0C372.0 313.0 337.0 215.0 286.0 148.0C293.0 144.0 307.0 135.0 312.0 131.0C362.0 200.0 399.0 302.0 422.0 411.0Z"/></g>
<g fill="green" transform="translate(400 100) scale(0.1 -0.1)"><path d="M0.0 0.0 25.0 -139.0C126.0 -110.0 253.0 -75.0 369.0 -40.0L349.0 91.0C224.0 56.0 90.0 19.0 0.0 0.0ZM670.0 495.0V-58.0C670.0 -68.0 667.0 -70.0 658.0 -70.0C650.0 -71.0 627.0 -71.0 607.0 -70.0C623.0 -107.0 638.0 -162.0 641.0 -199.0C695.0 -199.0 735.0 -196.0 767.0 -174.0C800.0 -153.0 807.0 -118.0 807.0 -60.0V495.0ZM793.0 353.0C820.0 258.0 847.0 131.0 854.0 49.0L977.0 81.0C966.0 164.0 939.0 285.0 908.0 381.0ZM373.0 381.0C362.0 281.0 340.0 178.0 301.0 113.0C330.0 99.0 382.0 67.0 404.0 48.0C447.0 123.0 478.0 243.0 493.0 360.0Z"/></g>
<g fill="red" transform="translate(100 200) scale(0.1 -0.1)"><path d="M0.0 0.0 10.0 -30.0C94.0 -2.0 209.0 37.0 320.0 74.0L316.0 104.0C197.0 65.0 79.0 24.0 0.0 0.0ZM704.0 584.0V-77.0C704.0 -89.0 699.0 -92.0 687.0 -93.0C676.0 -94.0 636.0 -94.0 588.0 -93.0C593.0 -101.0 598.0 -114.0 600.0 -121.0C660.0 -121.0 691.0 -121.0 709.0 -116.0C726.0 -110.0 733.0 -100.0 733.0 -76.0V584.0ZM799.0 404.0C844.0 318.0 885.0 206.0 899.0 131.0L927.0 141.0C913.0 216.0 871.0 328.0 825.0 414.0ZM391.0 415.0C372.0 313.0 337.0 215.0 286.0 148.0C293.0 144.0 307.0 135.0 312.0 131.0C362.0 200.0 399.0 302.0 422.0 411.0Z"/></g>
<g fill="black" opacity=".8" transform="translate(100 200) scale(0.1 -0.1)"><path d="M0.0 0.0 10.0 -30.0C94.0 -2.0 209.0 37.0 320.0 74.0L316.0 104.0C197.0 65.0 79.0 24.0 0.0 0.0ZM704.0 584.0V-77.0C704.0 -89.0 699.0 -92.0 687.0 -93.0C676.0 -94.0 636.0 -94.0 588.0 -93.0C593.0 -101.0 598.0 -114.0 600.0 -121.0C660.0 -121.0 691.0 -121.0 709.0 -116.0C726.0 -110.0 733.0 -100.0 733.0 -76.0V584.0ZM799.0 404.0C844.0 318.0 885.0 206.0 899.0 131.0L927.0 141.0C913.0 216.0 871.0 328.0 825.0 414.0ZM391.0 415.0C372.0 313.0 337.0 215.0 286.0 148.0C293.0 144.0 307.0 135.0 312.0 131.0C362.0 200.0 399.0 302.0 422.0 411.0Z"/></g>
<g fill="red" transform="translate(200 200) scale(0.1 -0.1)"><path d="M0.0 0.0 25.0 -139.0C126.0 -110.0 253.0 -75.0 369.0 -40.0L349.0 91.0C224.0 56.0 90.0 19.0 0.0 0.0ZM670.0 495.0V-58.0C670.0 -68.0 667.0 -70.0 658.0 -70.0C650.0 -71.0 627.0 -71.0 607.0 -70.0C623.0 -107.0 638.0 -162.0 641.0 -199.0C695.0 -199.0 735.0 -196.0 767.0 -174.0C800.0 -153.0 807.0 -118.0 807.0 -60.0V495.0ZM793.0 353.0C820.0 258.0 847.0 131.0 854.0 49.0L977.0 81.0C966.0 164.0 939.0 285.0 908.0 381.0ZM373.0 381.0C362.0 281.0 340.0 178.0 301.0 113.0C330.0 99.0 382.0 67.0 404.0 48.0C447.0 123.0 478.0 243.0 493.0 360.0Z"/></g>
<g fill="black" opacity=".8" transform="translate(200 200) scale(0.1 -0.1)"><path d="M0.0 0.0 25.0 -139.0C126.0 -110.0 253.0 -75.0 369.0 -40.0L349.0 91.0C224.0 56.0 90.0 19.0 0.0 0.0ZM670.0 495.0V-58.0C670.0 -68.0 667.0 -70.0 658.0 -70.0C650.0 -71.0 627.0 -71.0 607.0 -70.0C623.0 -107.0 638.0 -162.0 641.0 -199.0C695.0 -199.0 735.0 -196.0 767.0 -174.0C800.0 -153.0 807.0 -118.0 807.0 -60.0V495.0ZM793.0 353.0C820.0 258.0 847.0 131.0 854.0 49.0L977.0 81.0C966.0 164.0 939.0 285.0 908.0 381.0ZM373.0 381.0C362.0 281.0 340.0 178.0 301.0 113.0C330.0 99.0 382.0 67.0 404.0 48.0C447.0 123.0 478.0 243.0 493.0 360.0Z"/></g>
</svg>
