<?xml version="1.0" encoding="UTF-8"?>
<svg width="1700" height="300" xmlns="http://www.w3.org/2000/svg">
<rect width="100%" height="100%" fill="white"/>
<g fill="green" transform="translate(100 100) scale(0.1 -0.1)"><path d="M0.0 0.0V-329.0C0.0 -519.0 -15.0 -711.0 -152.0 -866.0C-144.0 -871.0 -134.0 -879.0 -129.0 -885.0C13.0 -725.0 29.0 -528.0 29.0 -328.0V0.0ZM-100.0 -182.0C-99.0 -285.0 -110.0 -393.0 -151.0 -451.0L-127.0 -468.0C-82.0 -404.0 -71.0 -290.0 -72.0 -186.0Z"/></g>
<g fill="green" transform="translate(200 100) scale(0.1 -0.1)"><path d="M0.0 0.0V-402.0C0.0 -570.0 -12.0 -735.0 -109.0 -859.0C-84.0 -876.0 -45.0 -915.0 -27.0 -941.0C93.0 -795.0 107.0 -602.0 107.0 -402.0V0.0ZM-104.0 -183.0C-99.0 -282.0 -108.0 -408.0 -137.0 -480.0L-48.0 -509.0C-17.0 -424.0 -9.0 -295.0 -17.0 -193.0Z"/></g>
<g fill="green" transform="translate(300 100) scale(0.1 -0.1)"><path d="M0.0 0.0V-329.0C0.0 -519.0 -15.0 -711.0 -152.0 -866.0C-144.0 -871.0 -134.0 -879.0 -129.0 -885.0C13.0 -725.0 29.0 -528.0 29.0 -328.0V0.0ZM-100.0 -182.0C-99.0 -285.0 -110.0 -393.0 -151.0 -451.0L-127.0 -468.0C-82.0 -404.0 -71.0 -290.0 -72.0 -186.0Z"/></g>
<g fill="green" transform="translate(400 100) scale(0.1 -0.1)"><path d="M0.0 0.0V-402.0C0.0 -570.0 -12.0 -735.0 -109.0 -859.0C-84.0 -876.0 -45.0 -915.0 -27.0 -941.0C93.0 -795.0 107.0 -602.0 107.0 -402.0V0.0ZM-104.0 -183.0C-99.0 -282.0 -108.0 -408.0 -137.0 -480.0L-48.0 -509.0C-17.0 -424.0 -9.0 -295.0 -17.0 -193.0Z"/></g>
<g fill="red" transform="translate(100 200) scale(0.1 -0.1)"><path d="M0.0 0.0V-329.0C0.0 -519.0 -15.0 -711.0 -152.0 -866.0C-144.0 -871.0 -134.0 -879.0 -129.0 -885.0C13.0 -725.0 29.0 -528.0 29.0 -328.0V0.0ZM-100.0 -182.0C-99.0 -285.0 -110.0 -393.0 -151.0 -451.0L-127.0 -468.0C-82.0 -404.0 -71.0 -290.0 -72.0 -186.0Z"/></g>
<g fill="black" opacity=".8" transform="translate(100 200) scale(0.1 -0.1)"><path d="M0.0 0.0V-329.0C0.0 -519.0 -15.0 -711.0 -152.0 -866.0C-144.0 -871.0 -134.0 -879.0 -129.0 -885.0C13.0 -725.0 29.0 -528.0 29.0 -328.0V0.0ZM-100.0 -182.0C-99.0 -285.0 -110.0 -393.0 -151.0 -451.0L-127.0 -468.0C-82.0 -404.0 -71.0 -290.0 -72.0 -186.0Z"/></g>
<g fill="red" transform="translate(200 200) scale(0.1 -0.1)"><path d="M0.0 0.0V-402.0C0.0 -570.0 -12.0 -735.0 -109.0 -859.0C-84.0 -876.0 -45.0 -915.0 -27.0 -941.0C93.0 -795.0 107.0 -602.0 107.0 -402.0V0.0ZM-104.0 -183.0C-99.0 -282.0 -108.0 -408.0 -137.0 -480.0L-48.0 -509.0C-17.0 -424.0 -9.0 -295.0 -17.0 -193.0Z"/></g>
<g fill="black" opacity=".8" transform="translate(200 200) scale(0.1 -0.1)"><path d="M0.0 0.0V-402.0C0.0 -570.0 -12.0 -735.0 -109.0 -859.0C-84.0 -876.0 -45.0 -915.0 -27.0 -941.0C93.0 -795.0 107.0 -602.0 107.0 -402.0V0.0ZM-104.0 -183.0C-99.0 -282.0 -108.0 -408.0 -137.0 -480.0L-48.0 -509.0C-17.0 -424.0 -9.0 -295.0 -17.0 -193.0Z"/></g>
</svg>
