<?xml version="1.0" encoding="UTF-8"?>
<svg width="1700" height="300" xmlns="http://www.w3.org/2000/svg">
<rect width="100%" height="100%" fill="white"/>
<g fill="green" transform="translate(100 100) scale(0.1 -0.1)"><path d="M0.0 0.0V-477.0C0.0 -516.0 -14.0 -532.0 -24.0 -538.0C-18.0 -545.0 -10.0 -559.0 -6.0 -566.0L30.0 -523.0V0.0ZM196.0 28.0 170.0 24.0C212.0 -236.0 299.0 -456.0 451.0 -557.0C457.0 -548.0 466.0 -538.0 474.0 -533.0C323.0 -442.0 237.0 -223.0 196.0 28.0ZM412.0 -61.0C367.0 -106.0 288.0 -171.0 231.0 -209.0L252.0 -226.0C309.0 -188.0 384.0 -131.0 436.0 -78.0ZM-6.0 -566.0C8.0 -551.0 31.0 -539.0 215.0 -445.0C212.0 -439.0 208.0 -426.0 207.0 -418.0L12.0 -515.0L-6.0 -537.0ZM379.0 109.0C297.0 65.0 123.0 17.0 0.0 0.0C8.0 -7.0 17.0 -18.0 21.0 -25.0C144.0 -3.0 314.0 46.0 401.0 91.0Z"/></g>
<g fill="green" transform="translate(200 100) scale(0.1 -0.1)"><path d="M0.0 0.0V-356.0C0.0 -397.0 -18.0 -421.0 -40.0 -435.0C-17.0 -474.0 9.0 -560.0 17.0 -597.0L142.0 -480.0V0.0ZM307.0 -22.0 173.0 -38.0C203.0 -281.0 254.0 -479.0 398.0 -590.0C421.0 -552.0 468.0 -496.0 503.0 -469.0C380.0 -385.0 330.0 -212.0 307.0 -22.0ZM374.0 -59.0C334.0 -110.0 266.0 -175.0 218.0 -212.0L308.0 -294.0C358.0 -258.0 425.0 -202.0 481.0 -150.0ZM16.0 -597.0C36.0 -578.0 73.0 -559.0 242.0 -478.0C233.0 -447.0 222.0 -388.0 217.0 -348.0L35.0 -428.0L-4.0 -470.0ZM340.0 111.0C266.0 63.0 117.0 16.0 0.0 0.0C33.0 -32.0 69.0 -84.0 90.0 -121.0C209.0 -89.0 364.0 -24.0 450.0 38.0Z"/></g>
<g fill="green" transform="translate(300 100) scale(0.1 -0.1)"><path d="M0.0 0.0V-477.0C0.0 -516.0 -14.0 -532.0 -24.0 -538.0C-18.0 -545.0 -10.0 -559.0 -6.0 -566.0L30.0 -523.0V0.0ZM196.0 28.0 170.0 24.0C212.0 -236.0 299.0 -456.0 451.0 -557.0C457.0 -548.0 466.0 -538.0 474.0 -533.0C323.0 -442.0 237.0 -223.0 196.0 28.0ZM412.0 -61.0C367.0 -106.0 288.0 -171.0 231.0 -209.0L252.0 -226.0C309.0 -188.0 384.0 -131.0 436.0 -78.0ZM-6.0 -566.0C8.0 -551.0 31.0 -539.0 215.0 -445.0C212.0 -439.0 208.0 -426.0 207.0 -418.0L12.0 -515.0L-6.0 -537.0ZM379.0 109.0C297.0 65.0 123.0 17.0 0.0 0.0C8.0 -7.0 17.0 -18.0 21.0 -25.0C144.0 -3.0 314.0 46.0 401.0 91.0Z"/></g>
<g fill="green" transform="translate(400 100) scale(0.1 -0.1)"><path d="M0.0 0.0V-356.0C0.0 -397.0 -18.0 -421.0 -40.0 -435.0C-17.0 -474.0 9.0 -560.0 17.0 -597.0L142.0 -480.0V0.0ZM307.0 -22.0 173.0 -38.0C203.0 -281.0 254.0 -479.0 398.0 -590.0C421.0 -552.0 468.0 -496.0 503.0 -469.0C380.0 -385.0 330.0 -212.0 307.0 -22.0ZM374.0 -59.0C334.0 -110.0 266.0 -175.0 218.0 -212.0L308.0 -294.0C358.0 -258.0 425.0 -202.0 481.0 -150.0ZM16.0 -597.0C36.0 -578.0 73.0 -559.0 242.0 -478.0C233.0 -447.0 222.0 -388.0 217.0 -348.0L35.0 -428.0L-4.0 -470.0ZM340.0 111.0C266.0 63.0 117.0 16.0 0.0 0.0C33.0 -32.0 69.0 -84.0 90.0 -121.0C209.0 -89.0 364.0 -24.0 450.0 38.0Z"/></g>
<g fill="red" transform="translate(100 200) scale(0.1 -0.1)"><path d="M0.0 0.0V-477.0C0.0 -516.0 -14.0 -532.0 -24.0 -538.0C-18.0 -545.0 -10.0 -559.0 -6.0 -566.0L30.0 -523.0V0.0ZM196.0 28.0 170.0 24.0C212.0 -236.0 299.0 -456.0 451.0 -557.0C457.0 -548.0 466.0 -538.0 474.0 -533.0C323.0 -442.0 237.0 -223.0 196.0 28.0ZM412.0 -61.0C367.0 -106.0 288.0 -171.0 231.0 -209.0L252.0 -226.0C309.0 -188.0 384.0 -131.0 436.0 -78.0ZM-6.0 -566.0C8.0 -551.0 31.0 -539.0 215.0 -445.0C212.0 -439.0 208.0 -426.0 207.0 -418.0L12.0 -515.0L-6.0 -537.0ZM379.0 109.0C297.0 65.0 123.0 17.0 0.0 0.0C8.0 -7.0 17.0 -18.0 21.0 -25.0C144.0 -3.0 314.0 46.0 401.0 91.0Z"/></g>
<g fill="black" opacity=".8" transform="translate(100 200) scale(0.1 -0.1)"><path d="M0.0 0.0V-477.0C0.0 -516.0 -14.0 -532.0 -24.0 -538.0C-18.0 -545.0 -10.0 -559.0 -6.0 -566.0L30.0 -523.0V0.0ZM196.0 28.0 170.0 24.0C212.0 -236.0 299.0 -456.0 451.0 -557.0C457.0 -548.0 466.0 -538.0 474.0 -533.0C323.0 -442.0 237.0 -223.0 196.0 28.0ZM412.0 -61.0C367.0 -106.0 288.0 -171.0 231.0 -209.0L252.0 -226.0C309.0 -188.0 384.0 -131.0 436.0 -78.0ZM-6.0 -566.0C8.0 -551.0 31.0 -539.0 215.0 -445.0C212.0 -439.0 208.0 -426.0 207.0 -418.0L12.0 -515.0L-6.0 -537.0ZM379.0 109.0C297.0 65.0 123.0 17.0 0.0 0.0C8.0 -7.0 17.0 -18.0 21.0 -25.0C144.0 -3.0 314.0 46.0 401.0 91.0Z"/></g>
<g fill="red" transform="translate(200 200) scale(0.1 -0.1)"><path d="M0.0 0.0V-356.0C0.0 -397.0 -18.0 -421.0 -40.0 -435.0C-17.0 -474.0 9.0 -560.0 17.0 -597.0L142.0 -480.0V0.0ZM307.0 -22.0 173.0 -38.0C203.0 -281.0 254.0 -479.0 398.0 -590.0C421.0 -552.0 468.0 -496.0 503.0 -469.0C380.0 -385.0 330.0 -212.0 307.0 -22.0ZM374.0 -59.0C334.0 -110.0 266.0 -175.0 218.0 -212.0L308.0 -294.0C358.0 -258.0 425.0 -202.0 481.0 -150.0ZM16.0 -597.0C36.0 -578.0 73.0 -559.0 242.0 -478.0C233.0 -447.0 222.0 -388.0 217.0 -348.0L35.0 -428.0L-4.0 -470.0ZM340.0 111.0C266.0 63.0 117.0 16.0 0.0 0.0C33.0 -32.0 69.0 -84.0 90.0 -121.0C209.0 -89.0 364.0 -24.0 450.0 38.0Z"/></g>
<g fill="black" opacity=".8" transform="translate(200 200) scale(0.1 -0.1)"><path d="M0.0 0.0V-356.0C0.0 -397.0 -18.0 -421.0 -40.0 -435.0C-17.0 -474.0 9.0 -560.0 17.0 -597.0L142.0 -480.0V0.0ZM307.0 -22.0 173.0 -38.0C203.0 -281.0 254.0 -479.0 398.0 -590.0C421.0 -552.0 468.0 -496.0 503.0 -469.0C380.0 -385.0 330.0 -212.0 307.0 -22.0ZM374.0 -59.0C334.0 -110.0 266.0 -175.0 218.0 -212.0L308.0 -294.0C358.0 -258.0 425.0 -202.0 481.0 -150.0ZM16.0 -597.0C36.0 -578.0 73.0 -559.0 242.0 -478.0C233.0 -447.0 222.0 -388.0 217.0 -348.0L35.0 -428.0L-4.0 -470.0ZM340.0 111.0C266.0 63.0 117.0 16.0 0.0 0.0C33.0 -32.0 69.0 -84.0 90.0 -121.0C209.0 -89.0 364.0 -24.0 450.0 38.0Z"/></g>
</svg>
