<?xml version="1.0" encoding="UTF-8"?>
<svg width="1700" height="300" xmlns="http://www.w3.org/2000/svg">
<rect width="100%" height="100%" fill="white"/>
<g fill="green" transform="translate(100 100) scale(0.1 -0.1)"><path d="M0.0 0.0V-87.0C0.0 -161.0 -20.0 -256.0 -111.0 -328.0C-104.0 -332.0 -93.0 -340.0 -88.0 -347.0C5.0 -271.0 29.0 -167.0 29.0 -87.0V0.0ZM142.0 0.0V-234.0C142.0 -274.0 155.0 -280.0 202.0 -280.0C211.0 -280.0 302.0 -280.0 311.0 -280.0C341.0 -280.0 351.0 -273.0 354.0 -261.0C346.0 -259.0 335.0 -256.0 327.0 -250.0C326.0 -252.0 322.0 -253.0 306.0 -253.0C289.0 -253.0 215.0 -253.0 202.0 -253.0C175.0 -253.0 171.0 -250.0 171.0 -234.0V0.0Z"/></g>
<g fill="green" transform="translate(200 100) scale(0.1 -0.1)"><path d="M0.0 0.0V-102.0C0.0 -157.0 -7.0 -221.0 -66.0 -272.0C-45.0 -283.0 -4.0 -313.0 12.0 -329.0C79.0 -270.0 92.0 -178.0 92.0 -104.0V0.0ZM119.0 0.0V-179.0C119.0 -269.0 136.0 -297.0 207.0 -297.0C220.0 -297.0 238.0 -297.0 252.0 -297.0C299.0 -297.0 326.0 -280.0 340.0 -229.0C311.0 -222.0 271.0 -206.0 255.0 -191.0C252.0 -196.0 250.0 -198.0 240.0 -198.0C236.0 -198.0 226.0 -198.0 223.0 -198.0C214.0 -198.0 213.0 -197.0 213.0 -176.0V0.0Z"/></g>
<g fill="green" transform="translate(300 100) scale(0.1 -0.1)"><path d="M0.0 0.0V-87.0C0.0 -161.0 -20.0 -256.0 -111.0 -328.0C-104.0 -332.0 -93.0 -340.0 -88.0 -347.0C5.0 -271.0 29.0 -167.0 29.0 -87.0V0.0ZM142.0 0.0V-234.0C142.0 -274.0 155.0 -280.0 202.0 -280.0C211.0 -280.0 302.0 -280.0 311.0 -280.0C341.0 -280.0 351.0 -273.0 354.0 -261.0C346.0 -259.0 335.0 -256.0 327.0 -250.0C326.0 -252.0 322.0 -253.0 306.0 -253.0C289.0 -253.0 215.0 -253.0 202.0 -253.0C175.0 -253.0 171.0 -250.0 171.0 -234.0V0.0Z"/></g>
<g fill="green" transform="translate(400 100) scale(0.1 -0.1)"><path d="M0.0 0.0V-102.0C0.0 -157.0 -7.0 -221.0 -66.0 -272.0C-45.0 -283.0 -4.0 -313.0 12.0 -329.0C79.0 -270.0 92.0 -178.0 92.0 -104.0V0.0ZM119.0 0.0V-179.0C119.0 -269.0 136.0 -297.0 207.0 -297.0C220.0 -297.0 238.0 -297.0 252.0 -297.0C299.0 -297.0 326.0 -280.0 340.0 -229.0C311.0 -222.0 271.0 -206.0 255.0 -191.0C252.0 -196.0 250.0 -198.0 240.0 -198.0C236.0 -198.0 226.0 -198.0 223.0 -198.0C214.0 -198.0 213.0 -197.0 213.0 -176.0V0.0Z"/></g>
<g fill="red" transform="translate(100 200) scale(0.1 -0.1)"><path d="M0.0 0.0V-87.0C0.0 -161.0 -20.0 -256.0 -111.0 -328.0C-104.0 -332.0 -93.0 -340.0 -88.0 -347.0C5.0 -271.0 29.0 -167.0 29.0 -87.0V0.0ZM142.0 0.0V-234.0C142.0 -274.0 155.0 -280.0 202.0 -280.0C211.0 -280.0 302.0 -280.0 311.0 -280.0C341.0 -280.0 351.0 -273.0 354.0 -261.0C346.0 -259.0 335.0 -256.0 327.0 -250.0C326.0 -252.0 322.0 -253.0 306.0 -253.0C289.0 -253.0 215.0 -253.0 202.0 -253.0C175.0 -253.0 171.0 -250.0 171.0 -234.0V0.0Z"/></g>
<g fill="black" opacity=".8" transform="translate(100 200) scale(0.1 -0.1)"><path d="M0.0 0.0V-87.0C0.0 -161.0 -20.0 -256.0 -111.0 -328.0C-104.0 -332.0 -93.0 -340.0 -88.0 -347.0C5.0 -271.0 29.0 -167.0 29.0 -87.0V0.0ZM142.0 0.0V-234.0C142.0 -274.0 155.0 -280.0 202.0 -280.0C211.0 -280.0 302.0 -280.0 311.0 -280.0C341.0 -280.0 351.0 -273.0 354.0 -261.0C346.0 -259.0 335.0 -256.0 327.0 -250.0C326.0 -252.0 322.0 -253.0 306.0 -253.0C289.0 -253.0 215.0 -253.0 202.0 -253.0C175.0 -253.0 171.0 -250.0 171.0 -234.0V0.0Z"/></g>
<g fill="red" transform="translate(200 200) scale(0.1 -0.1)"><path d="M0.0 0.0V-102.0C0.0 -157.0 -7.0 -221.0 -66.0 -272.0C-45.0 -283.0 -4.0 -313.0 12.0 -329.0C79.0 -270.0 92.0 -178.0 92.0 -104.0V0.0ZM119.0 0.0V-179.0C119.0 -269.0 136.0 -297.0 207.0 -297.0C220.0 -297.0 238.0 -297.0 252.0 -297.0C299.0 -297.0 326.0 -280.0 340.0 -229.0C311.0 -222.0 271.0 -206.0 255.0 -191.0C252.0 -196.0 250.0 -198.0 240.0 -198.0C236.0 -198.0 226.0 -198.0 223.0 -198.0C214.0 -198.0 213.0 -197.0 213.0 -176.0V0.0Z"/></g>
<g fill="black" opacity=".8" transform="translate(200 200) scale(0.1 -0.1)"><path d="M0.0 0.0V-102.0C0.0 -157.0 -7.0 -221.0 -66.0 -272.0C-45.0 -283.0 -4.0 -313.0 12.0 -329.0C79.0 -270.0 92.0 -178.0 92.0 -104.0V0.0ZM119.0 0.0V-179.0C119.0 -269.0 136.0 -297.0 207.0 -297.0C220.0 -297.0 238.0 -297.0 252.0 -297.0C299.0 -297.0 326.0 -280.0 340.0 -229.0C311.0 -222.0 271.0 -206.0 255.0 -191.0C252.0 -196.0 250.0 -198.0 240.0 -198.0C236.0 -198.0 226.0 -198.0 223.0 -198.0C214.0 -198.0 213.0 -197.0 213.0 -176.0V0.0Z"/></g>
</svg>
