<?xml version="1.0" encoding="UTF-8"?>
<svg width="1700" height="300" xmlns="http://www.w3.org/2000/svg">
<rect width="100%" height="100%" fill="white"/>
<g fill="green" transform="translate(100 100) scale(0.1 -0.1)"><path d="M0.0 0.0V-275.0C0.0 -314.0 -15.0 -329.0 -25.0 -335.0C-19.0 -342.0 -11.0 -356.0 -7.0 -364.0L29.0 -321.0V0.0ZM135.0 -90.0C171.0 -145.0 214.0 -221.0 236.0 -264.0L261.0 -250.0C241.0 -208.0 197.0 -134.0 159.0 -81.0ZM-7.0 -364.0C7.0 -347.0 28.0 -332.0 220.0 -208.0C218.0 -202.0 213.0 -191.0 211.0 -183.0L10.0 -309.0L-7.0 -333.0ZM206.0 74.0C160.0 46.0 73.0 18.0 1.0 -1.0C6.0 -9.0 10.0 -19.0 13.0 -26.0C87.0 -7.0 176.0 19.0 232.0 51.0Z"/></g>
<g fill="green" transform="translate(200 100) scale(0.1 -0.1)"><path d="M0.0 0.0V-187.0C0.0 -231.0 -12.0 -261.0 -29.0 -278.0C-9.0 -307.0 21.0 -380.0 29.0 -413.0L122.0 -293.0V0.0ZM147.0 -134.0C165.0 -205.0 185.0 -297.0 193.0 -353.0L300.0 -310.0C292.0 -257.0 268.0 -167.0 248.0 -99.0ZM30.0 -413.0C49.0 -391.0 82.0 -368.0 264.0 -271.0C252.0 -247.0 232.0 -204.0 222.0 -173.0L43.0 -261.0L12.0 -299.0ZM208.0 65.0C152.0 42.0 72.0 16.0 1.0 0.0C14.0 -28.0 29.0 -72.0 34.0 -99.0C110.0 -88.0 203.0 -69.0 283.0 -45.0Z"/></g>
<g fill="green" transform="translate(300 100) scale(0.1 -0.1)"><path d="M0.0 0.0V-268.0C0.0 -306.0 -15.0 -320.0 -24.0 -326.0C-18.0 -333.0 -11.0 -347.0 -7.0 -354.0L28.0 -313.0V0.0ZM132.0 -87.0C167.0 -141.0 209.0 -215.0 230.0 -257.0L254.0 -243.0C235.0 -202.0 192.0 -130.0 155.0 -78.0ZM-7.0 -354.0C7.0 -338.0 27.0 -323.0 214.0 -202.0C213.0 -196.0 208.0 -185.0 206.0 -178.0L10.0 -301.0L-7.0 -324.0ZM201.0 72.0C156.0 45.0 71.0 17.0 1.0 -1.0C6.0 -9.0 10.0 -18.0 13.0 -25.0C85.0 -7.0 171.0 18.0 226.0 50.0Z"/></g>
<g fill="green" transform="translate(400 100) scale(0.1 -0.1)"><path d="M0.0 0.0V-182.0C0.0 -225.0 -12.0 -254.0 -28.0 -271.0C-9.0 -299.0 21.0 -370.0 28.0 -402.0L119.0 -285.0V0.0ZM143.0 -130.0C161.0 -199.0 180.0 -289.0 188.0 -343.0L292.0 -301.0C284.0 -250.0 261.0 -162.0 242.0 -96.0ZM29.0 -402.0C48.0 -381.0 80.0 -358.0 257.0 -263.0C245.0 -240.0 226.0 -198.0 216.0 -168.0L42.0 -254.0L12.0 -291.0ZM203.0 63.0C148.0 41.0 70.0 16.0 1.0 0.0C14.0 -27.0 28.0 -70.0 33.0 -96.0C107.0 -86.0 198.0 -67.0 276.0 -44.0Z"/></g>
<g fill="green" transform="translate(500 100) scale(0.1 -0.1)"><path d="M0.0 0.0V-265.0C0.0 -305.0 -15.0 -322.0 -26.0 -328.0C-20.0 -336.0 -11.0 -348.0 -7.0 -358.0L30.0 -312.0V0.0ZM109.0 -119.0C142.0 -175.0 181.0 -252.0 200.0 -296.0L228.0 -283.0C210.0 -240.0 170.0 -165.0 136.0 -109.0ZM-7.0 -358.0C7.0 -342.0 29.0 -331.0 194.0 -246.0C190.0 -241.0 186.0 -229.0 185.0 -220.0L12.0 -305.0L-7.0 -328.0ZM194.0 77.0C151.0 49.0 69.0 20.0 0.0 0.0C5.0 -7.0 10.0 -19.0 13.0 -25.0C82.0 -6.0 168.0 22.0 220.0 53.0Z"/></g>
<g fill="green" transform="translate(600 100) scale(0.1 -0.1)"><path d="M0.0 0.0V-202.0C0.0 -243.0 -16.0 -265.0 -35.0 -276.0C-16.0 -309.0 7.0 -381.0 14.0 -414.0L121.0 -312.0V0.0ZM130.0 -135.0C150.0 -208.0 173.0 -305.0 181.0 -363.0L285.0 -333.0C276.0 -277.0 250.0 -183.0 226.0 -111.0ZM13.0 -414.0C32.0 -395.0 66.0 -378.0 247.0 -293.0C240.0 -268.0 230.0 -220.0 227.0 -187.0L32.0 -272.0L-2.0 -309.0ZM199.0 66.0C145.0 42.0 69.0 16.0 0.0 0.0C14.0 -30.0 30.0 -74.0 35.0 -103.0C107.0 -91.0 194.0 -74.0 273.0 -50.0Z"/></g>
<g fill="red" transform="translate(100 200) scale(0.1 -0.1)"><path d="M0.0 0.0V-275.0C0.0 -314.0 -15.0 -329.0 -25.0 -335.0C-19.0 -342.0 -11.0 -356.0 -7.0 -364.0L29.0 -321.0V0.0ZM135.0 -90.0C171.0 -145.0 214.0 -221.0 236.0 -264.0L261.0 -250.0C241.0 -208.0 197.0 -134.0 159.0 -81.0ZM-7.0 -364.0C7.0 -347.0 28.0 -332.0 220.0 -208.0C218.0 -202.0 213.0 -191.0 211.0 -183.0L10.0 -309.0L-7.0 -333.0ZM206.0 74.0C160.0 46.0 73.0 18.0 1.0 -1.0C6.0 -9.0 10.0 -19.0 13.0 -26.0C87.0 -7.0 176.0 19.0 232.0 51.0Z"/></g>
<g fill="black" opacity=".8" transform="translate(100 200) scale(0.1 -0.1)"><path d="M0.0 0.0V-275.0C0.0 -314.0 -15.0 -329.0 -25.0 -335.0C-19.0 -342.0 -11.0 -356.0 -7.0 -364.0L29.0 -321.0V0.0ZM135.0 -90.0C171.0 -145.0 214.0 -221.0 236.0 -264.0L261.0 -250.0C241.0 -208.0 197.0 -134.0 159.0 -81.0ZM-7.0 -364.0C7.0 -347.0 28.0 -332.0 220.0 -208.0C218.0 -202.0 213.0 -191.0 211.0 -183.0L10.0 -309.0L-7.0 -333.0ZM206.0 74.0C160.0 46.0 73.0 18.0 1.0 -1.0C6.0 -9.0 10.0 -19.0 13.0 -26.0C87.0 -7.0 176.0 19.0 232.0 51.0Z"/></g>
<g fill="red" transform="translate(200 200) scale(0.1 -0.1)"><path d="M0.0 0.0V-187.0C0.0 -231.0 -12.0 -261.0 -29.0 -278.0C-9.0 -307.0 21.0 -380.0 29.0 -413.0L122.0 -293.0V0.0ZM147.0 -134.0C165.0 -205.0 185.0 -297.0 193.0 -353.0L300.0 -310.0C292.0 -257.0 268.0 -167.0 248.0 -99.0ZM30.0 -413.0C49.0 -391.0 82.0 -368.0 264.0 -271.0C252.0 -247.0 232.0 -204.0 222.0 -173.0L43.0 -261.0L12.0 -299.0ZM208.0 65.0C152.0 42.0 72.0 16.0 1.0 0.0C14.0 -28.0 29.0 -72.0 34.0 -99.0C110.0 -88.0 203.0 -69.0 283.0 -45.0Z"/></g>
<g fill="black" opacity=".8" transform="translate(200 200) scale(0.1 -0.1)"><path d="M0.0 0.0V-187.0C0.0 -231.0 -12.0 -261.0 -29.0 -278.0C-9.0 -307.0 21.0 -380.0 29.0 -413.0L122.0 -293.0V0.0ZM147.0 -134.0C165.0 -205.0 185.0 -297.0 193.0 -353.0L300.0 -310.0C292.0 -257.0 268.0 -167.0 248.0 -99.0ZM30.0 -413.0C49.0 -391.0 82.0 -368.0 264.0 -271.0C252.0 -247.0 232.0 -204.0 222.0 -173.0L43.0 -261.0L12.0 -299.0ZM208.0 65.0C152.0 42.0 72.0 16.0 1.0 0.0C14.0 -28.0 29.0 -72.0 34.0 -99.0C110.0 -88.0 203.0 -69.0 283.0 -45.0Z"/></g>
<g fill="red" transform="translate(300 200) scale(0.1 -0.1)"><path d="M0.0 0.0V-258.0C0.0 -297.0 -15.0 -313.0 -25.0 -319.0C-19.0 -327.0 -11.0 -339.0 -7.0 -348.0L29.0 -304.0V0.0ZM106.0 -116.0C138.0 -171.0 176.0 -246.0 194.0 -289.0L221.0 -276.0C204.0 -234.0 165.0 -161.0 132.0 -106.0ZM-7.0 -348.0C7.0 -333.0 28.0 -322.0 188.0 -240.0C185.0 -235.0 181.0 -223.0 180.0 -215.0L12.0 -297.0L-7.0 -319.0ZM189.0 75.0C147.0 48.0 67.0 19.0 0.0 0.0C5.0 -7.0 10.0 -18.0 13.0 -24.0C80.0 -6.0 163.0 21.0 214.0 52.0Z"/></g>
<g fill="black" opacity=".8" transform="translate(300 200) scale(0.1 -0.1)"><path d="M0.0 0.0V-258.0C0.0 -297.0 -15.0 -313.0 -25.0 -319.0C-19.0 -327.0 -11.0 -339.0 -7.0 -348.0L29.0 -304.0V0.0ZM106.0 -116.0C138.0 -171.0 176.0 -246.0 194.0 -289.0L221.0 -276.0C204.0 -234.0 165.0 -161.0 132.0 -106.0ZM-7.0 -348.0C7.0 -333.0 28.0 -322.0 188.0 -240.0C185.0 -235.0 181.0 -223.0 180.0 -215.0L12.0 -297.0L-7.0 -319.0ZM189.0 75.0C147.0 48.0 67.0 19.0 0.0 0.0C5.0 -7.0 10.0 -18.0 13.0 -24.0C80.0 -6.0 163.0 21.0 214.0 52.0Z"/></g>
<g fill="red" transform="translate(400 200) scale(0.1 -0.1)"><path d="M0.0 0.0V-197.0C0.0 -237.0 -16.0 -258.0 -34.0 -269.0C-16.0 -301.0 7.0 -371.0 13.0 -403.0L118.0 -304.0V0.0ZM126.0 -131.0C146.0 -202.0 168.0 -297.0 176.0 -353.0L277.0 -324.0C268.0 -270.0 243.0 -178.0 220.0 -108.0ZM12.0 -403.0C31.0 -385.0 64.0 -368.0 240.0 -285.0C233.0 -261.0 224.0 -214.0 221.0 -182.0L31.0 -265.0L-2.0 -301.0ZM194.0 64.0C141.0 41.0 67.0 16.0 0.0 0.0C14.0 -29.0 29.0 -72.0 34.0 -100.0C104.0 -89.0 189.0 -72.0 266.0 -49.0Z"/></g>
<g fill="black" opacity=".8" transform="translate(400 200) scale(0.1 -0.1)"><path d="M0.0 0.0V-197.0C0.0 -237.0 -16.0 -258.0 -34.0 -269.0C-16.0 -301.0 7.0 -371.0 13.0 -403.0L118.0 -304.0V0.0ZM126.0 -131.0C146.0 -202.0 168.0 -297.0 176.0 -353.0L277.0 -324.0C268.0 -270.0 243.0 -178.0 220.0 -108.0ZM12.0 -403.0C31.0 -385.0 64.0 -368.0 240.0 -285.0C233.0 -261.0 224.0 -214.0 221.0 -182.0L31.0 -265.0L-2.0 -301.0ZM194.0 64.0C141.0 41.0 67.0 16.0 0.0 0.0C14.0 -29.0 29.0 -72.0 34.0 -100.0C104.0 -89.0 189.0 -72.0 266.0 -49.0Z"/></g>
</svg>
