<?xml version="1.0" encoding="UTF-8"?>
<svg width="1700" height="300" xmlns="http://www.w3.org/2000/svg">
<rect width="100%" height="100%" fill="white"/>
<g fill="green" transform="translate(100 100) scale(0.1 -0.1)"><path d="M0.0 0.0C0.0 12.0 36.0 34.0 36.0 34.0V635.0L7.0 647.0V80.0C7.0 44.0 -6.0 35.0 -16.0 31.0C-10.0 22.0 -3.0 7.0 0.0 0.0ZM329.0 749.0C247.0 715.0 106.0 671.0 7.0 647.0L25.0 625.0C125.0 649.0 260.0 688.0 351.0 729.0ZM0.0 0.0C19.0 15.0 48.0 27.0 374.0 145.0C372.0 151.0 370.0 163.0 369.0 172.0L22.0 51.0L-1.0 30.0Z"/></g>
<g fill="green" transform="translate(200 100) scale(0.1 -0.1)"><path d="M0.0 0.0C0.0 53.0 147.0 116.0 147.0 116.0V691.0L-5.0 733.0V224.0C-5.0 183.0 -33.0 157.0 -59.0 145.0C-35.0 110.0 -9.0 40.0 0.0 0.0ZM280.0 852.0C204.0 809.0 84.0 758.0 -5.0 733.0L97.0 633.0C186.0 656.0 306.0 697.0 405.0 743.0ZM0.0 0.0C34.0 21.0 87.0 38.0 367.0 105.0C362.0 138.0 359.0 200.0 361.0 241.0L50.0 176.0L-14.0 129.0Z"/></g>
<g fill="green" transform="translate(300 100) scale(0.1 -0.1)"><path d="M0.0 0.0C0.0 12.0 36.0 34.0 36.0 34.0V635.0L7.0 647.0V80.0C7.0 44.0 -6.0 35.0 -16.0 31.0C-10.0 22.0 -3.0 7.0 0.0 0.0ZM329.0 749.0C247.0 715.0 106.0 671.0 7.0 647.0L25.0 625.0C125.0 649.0 260.0 688.0 351.0 729.0ZM0.0 0.0C19.0 15.0 48.0 27.0 374.0 145.0C372.0 151.0 370.0 163.0 369.0 172.0L22.0 51.0L-1.0 30.0Z"/></g>
<g fill="green" transform="translate(400 100) scale(0.1 -0.1)"><path d="M0.0 0.0C0.0 53.0 147.0 116.0 147.0 116.0V691.0L-5.0 733.0V224.0C-5.0 183.0 -33.0 157.0 -59.0 145.0C-35.0 110.0 -9.0 40.0 0.0 0.0ZM280.0 852.0C204.0 809.0 84.0 758.0 -5.0 733.0L97.0 633.0C186.0 656.0 306.0 697.0 405.0 743.0ZM0.0 0.0C34.0 21.0 87.0 38.0 367.0 105.0C362.0 138.0 359.0 200.0 361.0 241.0L50.0 176.0L-14.0 129.0Z"/></g>
<g fill="red" transform="translate(100 200) scale(0.1 -0.1)"><path d="M0.0 0.0C0.0 12.0 36.0 34.0 36.0 34.0V635.0L7.0 647.0V80.0C7.0 44.0 -6.0 35.0 -16.0 31.0C-10.0 22.0 -3.0 7.0 0.0 0.0ZM329.0 749.0C247.0 715.0 106.0 671.0 7.0 647.0L25.0 625.0C125.0 649.0 260.0 688.0 351.0 729.0ZM0.0 0.0C19.0 15.0 48.0 27.0 374.0 145.0C372.0 151.0 370.0 163.0 369.0 172.0L22.0 51.0L-1.0 30.0Z"/></g>
<g fill="black" opacity=".8" transform="translate(100 200) scale(0.1 -0.1)"><path d="M0.0 0.0C0.0 12.0 36.0 34.0 36.0 34.0V635.0L7.0 647.0V80.0C7.0 44.0 -6.0 35.0 -16.0 31.0C-10.0 22.0 -3.0 7.0 0.0 0.0ZM329.0 749.0C247.0 715.0 106.0 671.0 7.0 647.0L25.0 625.0C125.0 649.0 260.0 688.0 351.0 729.0ZM0.0 0.0C19.0 15.0 48.0 27.0 374.0 145.0C372.0 151.0 370.0 163.0 369.0 172.0L22.0 51.0L-1.0 30.0Z"/></g>
<g fill="red" transform="translate(200 200) scale(0.1 -0.1)"><path d="M0.0 0.0C0.0 53.0 147.0 116.0 147.0 116.0V691.0L-5.0 733.0V224.0C-5.0 183.0 -33.0 157.0 -59.0 145.0C-35.0 110.0 -9.0 40.0 0.0 0.0ZM280.0 852.0C204.0 809.0 84.0 758.0 -5.0 733.0L97.0 633.0C186.0 656.0 306.0 697.0 405.0 743.0ZM0.0 0.0C34.0 21.0 87.0 38.0 367.0 105.0C362.0 138.0 359.0 200.0 361.0 241.0L50.0 176.0L-14.0 129.0Z"/></g>
<g fill="black" opacity=".8" transform="translate(200 200) scale(0.1 -0.1)"><path d="M0.0 0.0C0.0 53.0 147.0 116.0 147.0 116.0V691.0L-5.0 733.0V224.0C-5.0 183.0 -33.0 157.0 -59.0 145.0C-35.0 110.0 -9.0 40.0 0.0 0.0ZM280.0 852.0C204.0 809.0 84.0 758.0 -5.0 733.0L97.0 633.0C186.0 656.0 306.0 697.0 405.0 743.0ZM0.0 0.0C34.0 21.0 87.0 38.0 367.0 105.0C362.0 138.0 359.0 200.0 361.0 241.0L50.0 176.0L-14.0 129.0Z"/></g>
</svg>
