<?xml version="1.0" encoding="UTF-8"?>
<svg width="1700" height="300" xmlns="http://www.w3.org/2000/svg">
<rect width="100%" height="100%" fill="white"/>
<g fill="green" transform="translate(100 100) scale(0.1 -0.1)"><path d="M0.0 0.0C0.0 10.0 28.0 22.0 28.0 22.0V23.0C90.0 105.0 152.0 223.0 201.0 338.0L171.0 352.0C130.0 240.0 60.0 121.0 39.0 91.0C20.0 59.0 4.0 37.0 -11.0 34.0C-7.0 25.0 -2.0 8.0 0.0 0.0ZM6.0 -219.0C6.0 -209.0 34.0 -199.0 34.0 -199.0V-198.0C123.0 -99.0 210.0 41.0 286.0 182.0L255.0 195.0C191.0 61.0 91.0 -81.0 62.0 -118.0C33.0 -155.0 12.0 -183.0 -5.0 -186.0C-1.0 -195.0 4.0 -211.0 6.0 -219.0ZM128.0 -282.0C140.0 -345.0 151.0 -426.0 154.0 -481.0L183.0 -475.0C180.0 -422.0 169.0 -341.0 156.0 -278.0ZM219.0 -267.0C237.0 -317.0 258.0 -383.0 267.0 -425.0L295.0 -416.0C286.0 -375.0 265.0 -310.0 245.0 -260.0ZM0.0 0.0C12.0 6.0 35.0 11.0 191.0 33.0C190.0 39.0 190.0 51.0 191.0 60.0L23.0 41.0L0.0 28.0ZM6.0 -219.0C21.0 -211.0 46.0 -205.0 269.0 -165.0C268.0 -159.0 267.0 -147.0 267.0 -138.0L29.0 -177.0L6.0 -192.0ZM44.0 -275.0C31.0 -356.0 13.0 -446.0 -12.0 -510.0C-4.0 -513.0 11.0 -519.0 17.0 -522.0C38.0 -459.0 60.0 -365.0 74.0 -281.0ZM469.0 -94.0C441.0 -251.0 381.0 -381.0 283.0 -462.0C291.0 -467.0 304.0 -478.0 309.0 -483.0C405.0 -396.0 468.0 -265.0 500.0 -99.0Z"/></g>
<g fill="green" transform="translate(200 100) scale(0.1 -0.1)"><path d="M0.0 0.0C0.0 23.0 77.0 66.0 77.0 66.0V69.0C138.0 147.0 205.0 263.0 246.0 369.0L115.0 421.0C86.0 316.0 31.0 206.0 12.0 178.0C-7.0 148.0 -23.0 130.0 -44.0 124.0C-29.0 89.0 -7.0 26.0 0.0 0.0ZM8.0 -236.0C8.0 -214.0 77.0 -175.0 77.0 -175.0V-171.0C175.0 -73.0 279.0 66.0 349.0 201.0L233.0 264.0C177.0 128.0 77.0 -16.0 45.0 -51.0C14.0 -88.0 -7.0 -110.0 -34.0 -117.0C-19.0 -150.0 2.0 -212.0 8.0 -236.0ZM94.0 -274.0C104.0 -340.0 114.0 -426.0 115.0 -484.0L212.0 -458.0C209.0 -402.0 199.0 -317.0 186.0 -251.0ZM195.0 -249.0C210.0 -295.0 228.0 -355.0 234.0 -394.0L327.0 -361.0C319.0 -323.0 300.0 -264.0 283.0 -220.0ZM0.0 0.0C21.0 10.0 55.0 18.0 209.0 31.0C210.0 57.0 216.0 103.0 223.0 135.0L49.0 125.0L-3.0 90.0ZM8.0 -236.0C31.0 -222.0 69.0 -210.0 277.0 -167.0C275.0 -142.0 276.0 -97.0 279.0 -65.0L48.0 -106.0L0.0 -141.0ZM-9.0 -260.0C-13.0 -341.0 -21.0 -429.0 -44.0 -487.0C-18.0 -494.0 29.0 -508.0 52.0 -519.0C72.0 -459.0 85.0 -365.0 90.0 -276.0ZM444.0 -66.0C426.0 -200.0 382.0 -318.0 300.0 -388.0C329.0 -409.0 380.0 -456.0 400.0 -481.0C494.0 -392.0 550.0 -251.0 577.0 -85.0Z"/></g>
<g fill="green" transform="translate(300 100) scale(0.1 -0.1)"><path d="M0.0 0.0C0.0 10.0 28.0 22.0 28.0 22.0V23.0C90.0 105.0 152.0 223.0 201.0 338.0L171.0 352.0C130.0 240.0 60.0 121.0 39.0 91.0C20.0 59.0 4.0 37.0 -11.0 34.0C-7.0 25.0 -2.0 8.0 0.0 0.0ZM6.0 -219.0C6.0 -209.0 34.0 -199.0 34.0 -199.0V-198.0C123.0 -99.0 210.0 41.0 286.0 182.0L255.0 195.0C191.0 61.0 91.0 -81.0 62.0 -118.0C33.0 -155.0 12.0 -183.0 -5.0 -186.0C-1.0 -195.0 4.0 -211.0 6.0 -219.0ZM128.0 -282.0C140.0 -345.0 151.0 -426.0 154.0 -481.0L183.0 -475.0C180.0 -422.0 169.0 -341.0 156.0 -278.0ZM219.0 -267.0C237.0 -317.0 258.0 -383.0 267.0 -425.0L295.0 -416.0C286.0 -375.0 265.0 -310.0 245.0 -260.0ZM0.0 0.0C12.0 6.0 35.0 11.0 191.0 33.0C190.0 39.0 190.0 51.0 191.0 60.0L23.0 41.0L0.0 28.0ZM6.0 -219.0C21.0 -211.0 46.0 -205.0 269.0 -165.0C268.0 -159.0 267.0 -147.0 267.0 -138.0L29.0 -177.0L6.0 -192.0ZM44.0 -275.0C31.0 -356.0 13.0 -446.0 -12.0 -510.0C-4.0 -513.0 11.0 -519.0 17.0 -522.0C38.0 -459.0 60.0 -365.0 74.0 -281.0ZM469.0 -94.0C441.0 -251.0 381.0 -381.0 283.0 -462.0C291.0 -467.0 304.0 -478.0 309.0 -483.0C405.0 -396.0 468.0 -265.0 500.0 -99.0Z"/></g>
<g fill="green" transform="translate(400 100) scale(0.1 -0.1)"><path d="M0.0 0.0C0.0 23.0 77.0 66.0 77.0 66.0V69.0C138.0 147.0 205.0 263.0 246.0 369.0L115.0 421.0C86.0 316.0 31.0 206.0 12.0 178.0C-7.0 148.0 -23.0 130.0 -44.0 124.0C-29.0 89.0 -7.0 26.0 0.0 0.0ZM8.0 -236.0C8.0 -214.0 77.0 -175.0 77.0 -175.0V-171.0C175.0 -73.0 279.0 66.0 349.0 201.0L233.0 264.0C177.0 128.0 77.0 -16.0 45.0 -51.0C14.0 -88.0 -7.0 -110.0 -34.0 -117.0C-19.0 -150.0 2.0 -212.0 8.0 -236.0ZM94.0 -274.0C104.0 -340.0 114.0 -426.0 115.0 -484.0L212.0 -458.0C209.0 -402.0 199.0 -317.0 186.0 -251.0ZM195.0 -249.0C210.0 -295.0 228.0 -355.0 234.0 -394.0L327.0 -361.0C319.0 -323.0 300.0 -264.0 283.0 -220.0ZM0.0 0.0C21.0 10.0 55.0 18.0 209.0 31.0C210.0 57.0 216.0 103.0 223.0 135.0L49.0 125.0L-3.0 90.0ZM8.0 -236.0C31.0 -222.0 69.0 -210.0 277.0 -167.0C275.0 -142.0 276.0 -97.0 279.0 -65.0L48.0 -106.0L0.0 -141.0ZM-9.0 -260.0C-13.0 -341.0 -21.0 -429.0 -44.0 -487.0C-18.0 -494.0 29.0 -508.0 52.0 -519.0C72.0 -459.0 85.0 -365.0 90.0 -276.0ZM444.0 -66.0C426.0 -200.0 382.0 -318.0 300.0 -388.0C329.0 -409.0 380.0 -456.0 400.0 -481.0C494.0 -392.0 550.0 -251.0 577.0 -85.0Z"/></g>
<g fill="red" transform="translate(100 200) scale(0.1 -0.1)"><path d="M0.0 0.0C0.0 10.0 28.0 22.0 28.0 22.0V23.0C90.0 105.0 152.0 223.0 201.0 338.0L171.0 352.0C130.0 240.0 60.0 121.0 39.0 91.0C20.0 59.0 4.0 37.0 -11.0 34.0C-7.0 25.0 -2.0 8.0 0.0 0.0ZM6.0 -219.0C6.0 -209.0 34.0 -199.0 34.0 -199.0V-198.0C123.0 -99.0 210.0 41.0 286.0 182.0L255.0 195.0C191.0 61.0 91.0 -81.0 62.0 -118.0C33.0 -155.0 12.0 -183.0 -5.0 -186.0C-1.0 -195.0 4.0 -211.0 6.0 -219.0ZM128.0 -282.0C140.0 -345.0 151.0 -426.0 154.0 -481.0L183.0 -475.0C180.0 -422.0 169.0 -341.0 156.0 -278.0ZM219.0 -267.0C237.0 -317.0 258.0 -383.0 267.0 -425.0L295.0 -416.0C286.0 -375.0 265.0 -310.0 245.0 -260.0ZM0.0 0.0C12.0 6.0 35.0 11.0 191.0 33.0C190.0 39.0 190.0 51.0 191.0 60.0L23.0 41.0L0.0 28.0ZM6.0 -219.0C21.0 -211.0 46.0 -205.0 269.0 -165.0C268.0 -159.0 267.0 -147.0 267.0 -138.0L29.0 -177.0L6.0 -192.0ZM44.0 -275.0C31.0 -356.0 13.0 -446.0 -12.0 -510.0C-4.0 -513.0 11.0 -519.0 17.0 -522.0C38.0 -459.0 60.0 -365.0 74.0 -281.0ZM469.0 -94.0C441.0 -251.0 381.0 -381.0 283.0 -462.0C291.0 -467.0 304.0 -478.0 309.0 -483.0C405.0 -396.0 468.0 -265.0 500.0 -99.0Z"/></g>
<g fill="black" opacity=".8" transform="translate(100 200) scale(0.1 -0.1)"><path d="M0.0 0.0C0.0 10.0 28.0 22.0 28.0 22.0V23.0C90.0 105.0 152.0 223.0 201.0 338.0L171.0 352.0C130.0 240.0 60.0 121.0 39.0 91.0C20.0 59.0 4.0 37.0 -11.0 34.0C-7.0 25.0 -2.0 8.0 0.0 0.0ZM6.0 -219.0C6.0 -209.0 34.0 -199.0 34.0 -199.0V-198.0C123.0 -99.0 210.0 41.0 286.0 182.0L255.0 195.0C191.0 61.0 91.0 -81.0 62.0 -118.0C33.0 -155.0 12.0 -183.0 -5.0 -186.0C-1.0 -195.0 4.0 -211.0 6.0 -219.0ZM128.0 -282.0C140.0 -345.0 151.0 -426.0 154.0 -481.0L183.0 -475.0C180.0 -422.0 169.0 -341.0 156.0 -278.0ZM219.0 -267.0C237.0 -317.0 258.0 -383.0 267.0 -425.0L295.0 -416.0C286.0 -375.0 265.0 -310.0 245.0 -260.0ZM0.0 0.0C12.0 6.0 35.0 11.0 191.0 33.0C190.0 39.0 190.0 51.0 191.0 60.0L23.0 41.0L0.0 28.0ZM6.0 -219.0C21.0 -211.0 46.0 -205.0 269.0 -165.0C268.0 -159.0 267.0 -147.0 267.0 -138.0L29.0 -177.0L6.0 -192.0ZM44.0 -275.0C31.0 -356.0 13.0 -446.0 -12.0 -510.0C-4.0 -513.0 11.0 -519.0 17.0 -522.0C38.0 -459.0 60.0 -365.0 74.0 -281.0ZM469.0 -94.0C441.0 -251.0 381.0 -381.0 283.0 -462.0C291.0 -467.0 304.0 -478.0 309.0 -483.0C405.0 -396.0 468.0 -265.0 500.0 -99.0Z"/></g>
<g fill="red" transform="translate(200 200) scale(0.1 -0.1)"><path d="M0.0 0.0C0.0 23.0 77.0 66.0 77.0 66.0V69.0C138.0 147.0 205.0 263.0 246.0 369.0L115.0 421.0C86.0 316.0 31.0 206.0 12.0 178.0C-7.0 148.0 -23.0 130.0 -44.0 124.0C-29.0 89.0 -7.0 26.0 0.0 0.0ZM8.0 -236.0C8.0 -214.0 77.0 -175.0 77.0 -175.0V-171.0C175.0 -73.0 279.0 66.0 349.0 201.0L233.0 264.0C177.0 128.0 77.0 -16.0 45.0 -51.0C14.0 -88.0 -7.0 -110.0 -34.0 -117.0C-19.0 -150.0 2.0 -212.0 8.0 -236.0ZM94.0 -274.0C104.0 -340.0 114.0 -426.0 115.0 -484.0L212.0 -458.0C209.0 -402.0 199.0 -317.0 186.0 -251.0ZM195.0 -249.0C210.0 -295.0 228.0 -355.0 234.0 -394.0L327.0 -361.0C319.0 -323.0 300.0 -264.0 283.0 -220.0ZM0.0 0.0C21.0 10.0 55.0 18.0 209.0 31.0C210.0 57.0 216.0 103.0 223.0 135.0L49.0 125.0L-3.0 90.0ZM8.0 -236.0C31.0 -222.0 69.0 -210.0 277.0 -167.0C275.0 -142.0 276.0 -97.0 279.0 -65.0L48.0 -106.0L0.0 -141.0ZM-9.0 -260.0C-13.0 -341.0 -21.0 -429.0 -44.0 -487.0C-18.0 -494.0 29.0 -508.0 52.0 -519.0C72.0 -459.0 85.0 -365.0 90.0 -276.0ZM444.0 -66.0C426.0 -200.0 382.0 -318.0 300.0 -388.0C329.0 -409.0 380.0 -456.0 400.0 -481.0C494.0 -392.0 550.0 -251.0 577.0 -85.0Z"/></g>
<g fill="black" opacity=".8" transform="translate(200 200) scale(0.1 -0.1)"><path d="M0.0 0.0C0.0 23.0 77.0 66.0 77.0 66.0V69.0C138.0 147.0 205.0 263.0 246.0 369.0L115.0 421.0C86.0 316.0 31.0 206.0 12.0 178.0C-7.0 148.0 -23.0 130.0 -44.0 124.0C-29.0 89.0 -7.0 26.0 0.0 0.0ZM8.0 -236.0C8.0 -214.0 77.0 -175.0 77.0 -175.0V-171.0C175.0 -73.0 279.0 66.0 349.0 201.0L233.0 264.0C177.0 128.0 77.0 -16.0 45.0 -51.0C14.0 -88.0 -7.0 -110.0 -34.0 -117.0C-19.0 -150.0 2.0 -212.0 8.0 -236.0ZM94.0 -274.0C104.0 -340.0 114.0 -426.0 115.0 -484.0L212.0 -458.0C209.0 -402.0 199.0 -317.0 186.0 -251.0ZM195.0 -249.0C210.0 -295.0 228.0 -355.0 234.0 -394.0L327.0 -361.0C319.0 -323.0 300.0 -264.0 283.0 -220.0ZM0.0 0.0C21.0 10.0 55.0 18.0 209.0 31.0C210.0 57.0 216.0 103.0 223.0 135.0L49.0 125.0L-3.0 90.0ZM8.0 -236.0C31.0 -222.0 69.0 -210.0 277.0 -167.0C275.0 -142.0 276.0 -97.0 279.0 -65.0L48.0 -106.0L0.0 -141.0ZM-9.0 -260.0C-13.0 -341.0 -21.0 -429.0 -44.0 -487.0C-18.0 -494.0 29.0 -508.0 52.0 -519.0C72.0 -459.0 85.0 -365.0 90.0 -276.0ZM444.0 -66.0C426.0 -200.0 382.0 -318.0 300.0 -388.0C329.0 -409.0 380.0 -456.0 400.0 -481.0C494.0 -392.0 550.0 -251.0 577.0 -85.0Z"/></g>
</svg>
