<?xml version="1.0" encoding="UTF-8"?>
<svg width="1700" height="300" xmlns="http://www.w3.org/2000/svg">
<rect width="100%" height="100%" fill="white"/>
<g fill="green" transform="translate(100 100) scale(0.1 -0.1)"><path d="M0.0 0.0C0.0 10.0 29.0 21.0 29.0 21.0V22.0C88.0 104.0 146.0 222.0 192.0 338.0L160.0 349.0C125.0 239.0 58.0 119.0 38.0 89.0C18.0 57.0 4.0 34.0 -10.0 32.0C-6.0 24.0 -1.0 7.0 0.0 0.0ZM6.0 -235.0C6.0 -225.0 34.0 -215.0 34.0 -215.0V-214.0C129.0 -105.0 225.0 47.0 306.0 199.0L275.0 213.0C208.0 67.0 98.0 -89.0 66.0 -129.0C36.0 -170.0 12.0 -201.0 -6.0 -203.0C-2.0 -211.0 3.0 -227.0 6.0 -235.0ZM138.0 -280.0C151.0 -348.0 163.0 -439.0 166.0 -497.0L198.0 -493.0C194.0 -434.0 181.0 -345.0 167.0 -276.0ZM225.0 -43.0C252.0 -105.0 276.0 -189.0 284.0 -238.0L314.0 -229.0C305.0 -182.0 280.0 -100.0 254.0 -37.0ZM239.0 -265.0C262.0 -325.0 290.0 -403.0 300.0 -455.0L328.0 -446.0C317.0 -397.0 291.0 -319.0 265.0 -258.0ZM0.0 0.0C12.0 5.0 36.0 9.0 189.0 23.0C189.0 29.0 189.0 43.0 190.0 50.0L23.0 39.0L0.0 27.0ZM6.0 -235.0C20.0 -226.0 47.0 -220.0 269.0 -178.0C267.0 -172.0 266.0 -159.0 266.0 -152.0L29.0 -192.0L6.0 -207.0ZM48.0 -275.0C34.0 -356.0 14.0 -446.0 -11.0 -510.0C-3.0 -513.0 12.0 -519.0 18.0 -522.0C42.0 -459.0 64.0 -365.0 79.0 -281.0Z"/></g>
<g fill="green" transform="translate(200 100) scale(0.1 -0.1)"><path d="M0.0 0.0C0.0 22.0 71.0 62.0 71.0 62.0V64.0C127.0 144.0 191.0 264.0 230.0 377.0L104.0 412.0C79.0 307.0 28.0 196.0 11.0 168.0C-6.0 138.0 -21.0 119.0 -40.0 114.0C-26.0 82.0 -6.0 24.0 0.0 0.0ZM8.0 -236.0C8.0 -215.0 74.0 -177.0 74.0 -177.0V-174.0C173.0 -69.0 280.0 81.0 355.0 232.0L239.0 282.0C182.0 137.0 80.0 -16.0 47.0 -54.0C16.0 -93.0 -5.0 -117.0 -32.0 -123.0C-17.0 -155.0 2.0 -213.0 8.0 -236.0ZM91.0 -274.0C105.0 -340.0 120.0 -427.0 124.0 -484.0L215.0 -457.0C209.0 -401.0 194.0 -316.0 177.0 -250.0ZM196.0 -22.0C216.0 -89.0 236.0 -176.0 243.0 -229.0L346.0 -202.0C338.0 -151.0 315.0 -65.0 293.0 -1.0ZM209.0 -255.0C230.0 -315.0 255.0 -394.0 264.0 -446.0L354.0 -412.0C343.0 -361.0 318.0 -285.0 295.0 -226.0ZM1.0 3.0C22.0 13.0 56.0 21.0 210.0 34.0C211.0 60.0 217.0 106.0 224.0 138.0L50.0 128.0L-2.0 93.0ZM8.0 -236.0C31.0 -222.0 69.0 -210.0 277.0 -167.0C275.0 -142.0 276.0 -97.0 279.0 -65.0L48.0 -106.0L0.0 -141.0ZM-9.0 -260.0C-13.0 -341.0 -21.0 -429.0 -43.0 -487.0C-20.0 -493.0 24.0 -505.0 44.0 -516.0C64.0 -456.0 77.0 -363.0 81.0 -274.0Z"/></g>
<g fill="green" transform="translate(300 100) scale(0.1 -0.1)"><path d="M0.0 0.0C0.0 10.0 29.0 21.0 29.0 21.0V22.0C88.0 104.0 146.0 222.0 192.0 338.0L160.0 349.0C125.0 239.0 58.0 119.0 38.0 89.0C18.0 57.0 4.0 34.0 -10.0 32.0C-6.0 24.0 -1.0 7.0 0.0 0.0ZM6.0 -235.0C6.0 -225.0 34.0 -215.0 34.0 -215.0V-214.0C129.0 -105.0 225.0 47.0 306.0 199.0L275.0 213.0C208.0 67.0 98.0 -89.0 66.0 -129.0C36.0 -170.0 12.0 -201.0 -6.0 -203.0C-2.0 -211.0 3.0 -227.0 6.0 -235.0ZM138.0 -280.0C151.0 -348.0 163.0 -439.0 166.0 -497.0L198.0 -493.0C194.0 -434.0 181.0 -345.0 167.0 -276.0ZM225.0 -43.0C252.0 -105.0 276.0 -189.0 284.0 -238.0L314.0 -229.0C305.0 -182.0 280.0 -100.0 254.0 -37.0ZM239.0 -265.0C262.0 -325.0 290.0 -403.0 300.0 -455.0L328.0 -446.0C317.0 -397.0 291.0 -319.0 265.0 -258.0ZM0.0 0.0C12.0 5.0 36.0 9.0 189.0 23.0C189.0 29.0 189.0 43.0 190.0 50.0L23.0 39.0L0.0 27.0ZM6.0 -235.0C20.0 -226.0 47.0 -220.0 269.0 -178.0C267.0 -172.0 266.0 -159.0 266.0 -152.0L29.0 -192.0L6.0 -207.0ZM48.0 -275.0C34.0 -356.0 14.0 -446.0 -11.0 -510.0C-3.0 -513.0 12.0 -519.0 18.0 -522.0C42.0 -459.0 64.0 -365.0 79.0 -281.0Z"/></g>
<g fill="green" transform="translate(400 100) scale(0.1 -0.1)"><path d="M0.0 0.0C0.0 22.0 71.0 62.0 71.0 62.0V64.0C127.0 144.0 191.0 264.0 230.0 377.0L104.0 412.0C79.0 307.0 28.0 196.0 11.0 168.0C-6.0 138.0 -21.0 119.0 -40.0 114.0C-26.0 82.0 -6.0 24.0 0.0 0.0ZM8.0 -236.0C8.0 -215.0 74.0 -177.0 74.0 -177.0V-174.0C173.0 -69.0 280.0 81.0 355.0 232.0L239.0 282.0C182.0 137.0 80.0 -16.0 47.0 -54.0C16.0 -93.0 -5.0 -117.0 -32.0 -123.0C-17.0 -155.0 2.0 -213.0 8.0 -236.0ZM91.0 -274.0C105.0 -340.0 120.0 -427.0 124.0 -484.0L215.0 -457.0C209.0 -401.0 194.0 -316.0 177.0 -250.0ZM196.0 -22.0C216.0 -89.0 236.0 -176.0 243.0 -229.0L346.0 -202.0C338.0 -151.0 315.0 -65.0 293.0 -1.0ZM209.0 -255.0C230.0 -315.0 255.0 -394.0 264.0 -446.0L354.0 -412.0C343.0 -361.0 318.0 -285.0 295.0 -226.0ZM1.0 3.0C22.0 13.0 56.0 21.0 210.0 34.0C211.0 60.0 217.0 106.0 224.0 138.0L50.0 128.0L-2.0 93.0ZM8.0 -236.0C31.0 -222.0 69.0 -210.0 277.0 -167.0C275.0 -142.0 276.0 -97.0 279.0 -65.0L48.0 -106.0L0.0 -141.0ZM-9.0 -260.0C-13.0 -341.0 -21.0 -429.0 -43.0 -487.0C-20.0 -493.0 24.0 -505.0 44.0 -516.0C64.0 -456.0 77.0 -363.0 81.0 -274.0Z"/></g>
<g fill="red" transform="translate(100 200) scale(0.1 -0.1)"><path d="M0.0 0.0C0.0 10.0 29.0 21.0 29.0 21.0V22.0C88.0 104.0 146.0 222.0 192.0 338.0L160.0 349.0C125.0 239.0 58.0 119.0 38.0 89.0C18.0 57.0 4.0 34.0 -10.0 32.0C-6.0 24.0 -1.0 7.0 0.0 0.0ZM6.0 -235.0C6.0 -225.0 34.0 -215.0 34.0 -215.0V-214.0C129.0 -105.0 225.0 47.0 306.0 199.0L275.0 213.0C208.0 67.0 98.0 -89.0 66.0 -129.0C36.0 -170.0 12.0 -201.0 -6.0 -203.0C-2.0 -211.0 3.0 -227.0 6.0 -235.0ZM138.0 -280.0C151.0 -348.0 163.0 -439.0 166.0 -497.0L198.0 -493.0C194.0 -434.0 181.0 -345.0 167.0 -276.0ZM225.0 -43.0C252.0 -105.0 276.0 -189.0 284.0 -238.0L314.0 -229.0C305.0 -182.0 280.0 -100.0 254.0 -37.0ZM239.0 -265.0C262.0 -325.0 290.0 -403.0 300.0 -455.0L328.0 -446.0C317.0 -397.0 291.0 -319.0 265.0 -258.0ZM0.0 0.0C12.0 5.0 36.0 9.0 189.0 23.0C189.0 29.0 189.0 43.0 190.0 50.0L23.0 39.0L0.0 27.0ZM6.0 -235.0C20.0 -226.0 47.0 -220.0 269.0 -178.0C267.0 -172.0 266.0 -159.0 266.0 -152.0L29.0 -192.0L6.0 -207.0ZM48.0 -275.0C34.0 -356.0 14.0 -446.0 -11.0 -510.0C-3.0 -513.0 12.0 -519.0 18.0 -522.0C42.0 -459.0 64.0 -365.0 79.0 -281.0Z"/></g>
<g fill="black" opacity=".8" transform="translate(100 200) scale(0.1 -0.1)"><path d="M0.0 0.0C0.0 10.0 29.0 21.0 29.0 21.0V22.0C88.0 104.0 146.0 222.0 192.0 338.0L160.0 349.0C125.0 239.0 58.0 119.0 38.0 89.0C18.0 57.0 4.0 34.0 -10.0 32.0C-6.0 24.0 -1.0 7.0 0.0 0.0ZM6.0 -235.0C6.0 -225.0 34.0 -215.0 34.0 -215.0V-214.0C129.0 -105.0 225.0 47.0 306.0 199.0L275.0 213.0C208.0 67.0 98.0 -89.0 66.0 -129.0C36.0 -170.0 12.0 -201.0 -6.0 -203.0C-2.0 -211.0 3.0 -227.0 6.0 -235.0ZM138.0 -280.0C151.0 -348.0 163.0 -439.0 166.0 -497.0L198.0 -493.0C194.0 -434.0 181.0 -345.0 167.0 -276.0ZM225.0 -43.0C252.0 -105.0 276.0 -189.0 284.0 -238.0L314.0 -229.0C305.0 -182.0 280.0 -100.0 254.0 -37.0ZM239.0 -265.0C262.0 -325.0 290.0 -403.0 300.0 -455.0L328.0 -446.0C317.0 -397.0 291.0 -319.0 265.0 -258.0ZM0.0 0.0C12.0 5.0 36.0 9.0 189.0 23.0C189.0 29.0 189.0 43.0 190.0 50.0L23.0 39.0L0.0 27.0ZM6.0 -235.0C20.0 -226.0 47.0 -220.0 269.0 -178.0C267.0 -172.0 266.0 -159.0 266.0 -152.0L29.0 -192.0L6.0 -207.0ZM48.0 -275.0C34.0 -356.0 14.0 -446.0 -11.0 -510.0C-3.0 -513.0 12.0 -519.0 18.0 -522.0C42.0 -459.0 64.0 -365.0 79.0 -281.0Z"/></g>
<g fill="red" transform="translate(200 200) scale(0.1 -0.1)"><path d="M0.0 0.0C0.0 22.0 71.0 62.0 71.0 62.0V64.0C127.0 144.0 191.0 264.0 230.0 377.0L104.0 412.0C79.0 307.0 28.0 196.0 11.0 168.0C-6.0 138.0 -21.0 119.0 -40.0 114.0C-26.0 82.0 -6.0 24.0 0.0 0.0ZM8.0 -236.0C8.0 -215.0 74.0 -177.0 74.0 -177.0V-174.0C173.0 -69.0 280.0 81.0 355.0 232.0L239.0 282.0C182.0 137.0 80.0 -16.0 47.0 -54.0C16.0 -93.0 -5.0 -117.0 -32.0 -123.0C-17.0 -155.0 2.0 -213.0 8.0 -236.0ZM91.0 -274.0C105.0 -340.0 120.0 -427.0 124.0 -484.0L215.0 -457.0C209.0 -401.0 194.0 -316.0 177.0 -250.0ZM196.0 -22.0C216.0 -89.0 236.0 -176.0 243.0 -229.0L346.0 -202.0C338.0 -151.0 315.0 -65.0 293.0 -1.0ZM209.0 -255.0C230.0 -315.0 255.0 -394.0 264.0 -446.0L354.0 -412.0C343.0 -361.0 318.0 -285.0 295.0 -226.0ZM1.0 3.0C22.0 13.0 56.0 21.0 210.0 34.0C211.0 60.0 217.0 106.0 224.0 138.0L50.0 128.0L-2.0 93.0ZM8.0 -236.0C31.0 -222.0 69.0 -210.0 277.0 -167.0C275.0 -142.0 276.0 -97.0 279.0 -65.0L48.0 -106.0L0.0 -141.0ZM-9.0 -260.0C-13.0 -341.0 -21.0 -429.0 -43.0 -487.0C-20.0 -493.0 24.0 -505.0 44.0 -516.0C64.0 -456.0 77.0 -363.0 81.0 -274.0Z"/></g>
<g fill="black" opacity=".8" transform="translate(200 200) scale(0.1 -0.1)"><path d="M0.0 0.0C0.0 22.0 71.0 62.0 71.0 62.0V64.0C127.0 144.0 191.0 264.0 230.0 377.0L104.0 412.0C79.0 307.0 28.0 196.0 11.0 168.0C-6.0 138.0 -21.0 119.0 -40.0 114.0C-26.0 82.0 -6.0 24.0 0.0 0.0ZM8.0 -236.0C8.0 -215.0 74.0 -177.0 74.0 -177.0V-174.0C173.0 -69.0 280.0 81.0 355.0 232.0L239.0 282.0C182.0 137.0 80.0 -16.0 47.0 -54.0C16.0 -93.0 -5.0 -117.0 -32.0 -123.0C-17.0 -155.0 2.0 -213.0 8.0 -236.0ZM91.0 -274.0C105.0 -340.0 120.0 -427.0 124.0 -484.0L215.0 -457.0C209.0 -401.0 194.0 -316.0 177.0 -250.0ZM196.0 -22.0C216.0 -89.0 236.0 -176.0 243.0 -229.0L346.0 -202.0C338.0 -151.0 315.0 -65.0 293.0 -1.0ZM209.0 -255.0C230.0 -315.0 255.0 -394.0 264.0 -446.0L354.0 -412.0C343.0 -361.0 318.0 -285.0 295.0 -226.0ZM1.0 3.0C22.0 13.0 56.0 21.0 210.0 34.0C211.0 60.0 217.0 106.0 224.0 138.0L50.0 128.0L-2.0 93.0ZM8.0 -236.0C31.0 -222.0 69.0 -210.0 277.0 -167.0C275.0 -142.0 276.0 -97.0 279.0 -65.0L48.0 -106.0L0.0 -141.0ZM-9.0 -260.0C-13.0 -341.0 -21.0 -429.0 -43.0 -487.0C-20.0 -493.0 24.0 -505.0 44.0 -516.0C64.0 -456.0 77.0 -363.0 81.0 -274.0Z"/></g>
</svg>
