<?xml version="1.0" encoding="UTF-8"?>
<svg width="1700" height="300" xmlns="http://www.w3.org/2000/svg">
<rect width="100%" height="100%" fill="white"/>
<g fill="green" transform="translate(100 100) scale(0.1 -0.1)"><path d="M-0.0 0.0C0.0 11.0 31.0 23.0 31.0 23.0V25.0C109.0 116.0 187.0 247.0 252.0 377.0L218.0 393.0C164.0 268.0 76.0 135.0 49.0 100.0C26.0 66.0 4.0 41.0 -12.0 38.0C-8.0 28.0 -2.0 9.0 0.0 0.0ZM149.0 -309.0C164.0 -386.0 177.0 -486.0 181.0 -552.0L213.0 -547.0C210.0 -481.0 195.0 -382.0 182.0 -305.0ZM252.0 -289.0C278.0 -355.0 305.0 -442.0 316.0 -498.0L348.0 -489.0C337.0 -433.0 308.0 -347.0 282.0 -281.0ZM0.0 0.0C15.0 7.0 40.0 11.0 226.0 35.0C225.0 42.0 225.0 56.0 226.0 65.0L26.0 45.0L0.0 31.0ZM7.0 -244.0C25.0 -235.0 54.0 -229.0 330.0 -186.0C330.0 -180.0 329.0 -166.0 329.0 -156.0L32.0 -199.0L7.0 -214.0ZM432.0 -83.0C432.0 -67.0 499.0 -54.0 499.0 -54.0C546.0 11.0 658.0 197.0 706.0 279.0H665.0C627.0 213.0 510.0 13.0 481.0 -18.0C464.0 -35.0 438.0 -41.0 419.0 -45.0C423.0 -54.0 430.0 -73.0 432.0 -83.0ZM45.0 -307.0C30.0 -397.0 10.0 -498.0 -18.0 -569.0C-9.0 -572.0 8.0 -579.0 15.0 -582.0C38.0 -512.0 62.0 -407.0 79.0 -313.0Z"/></g>
<g fill="green" transform="translate(200 100) scale(0.1 -0.1)"><path d="M0.0 0.0C0.0 26.0 84.0 70.0 84.0 70.0V74.0C156.0 161.0 235.0 288.0 287.0 406.0L147.0 463.0C109.0 346.0 41.0 224.0 18.0 193.0C-5.0 161.0 -23.0 140.0 -47.0 134.0C-30.0 96.0 -8.0 28.0 0.0 0.0ZM131.0 -309.0C143.0 -389.0 155.0 -495.0 156.0 -564.0L274.0 -540.0C270.0 -471.0 257.0 -368.0 242.0 -287.0ZM248.0 -286.0C268.0 -340.0 290.0 -412.0 299.0 -458.0L407.0 -417.0C396.0 -372.0 373.0 -303.0 351.0 -250.0ZM0.0 0.0C25.0 11.0 65.0 21.0 234.0 36.0C235.0 67.0 242.0 123.0 251.0 162.0L58.0 150.0L-4.0 108.0ZM9.0 -263.0C38.0 -249.0 84.0 -238.0 320.0 -204.0C319.0 -173.0 324.0 -117.0 330.0 -79.0L65.0 -109.0L2.0 -152.0ZM422.0 -96.0C422.0 -55.0 580.0 1.0 580.0 1.0C631.0 71.0 710.0 206.0 760.0 286.0H579.0C549.0 234.0 477.0 119.0 453.0 94.0C431.0 72.0 407.0 64.0 385.0 59.0C397.0 25.0 416.0 -56.0 422.0 -96.0ZM1.0 -290.0C-3.0 -386.0 -15.0 -490.0 -40.0 -557.0C-9.0 -566.0 50.0 -583.0 78.0 -598.0C102.0 -528.0 118.0 -416.0 124.0 -309.0Z"/></g>
<g fill="green" transform="translate(300 100) scale(0.1 -0.1)"><path d="M0.0 0.0C0.0 10.0 28.0 21.0 28.0 21.0V22.0C98.0 104.0 168.0 221.0 226.0 338.0L195.0 352.0C147.0 240.0 68.0 121.0 44.0 90.0C23.0 59.0 4.0 37.0 -11.0 34.0C-7.0 25.0 -2.0 8.0 0.0 0.0ZM134.0 -277.0C147.0 -346.0 159.0 -436.0 162.0 -495.0L191.0 -490.0C188.0 -431.0 175.0 -342.0 163.0 -273.0ZM226.0 -259.0C249.0 -318.0 273.0 -396.0 283.0 -446.0L312.0 -438.0C302.0 -388.0 276.0 -311.0 253.0 -252.0ZM0.0 0.0C13.0 6.0 36.0 10.0 203.0 31.0C202.0 38.0 202.0 50.0 203.0 58.0L23.0 40.0L0.0 28.0ZM6.0 -219.0C22.0 -211.0 48.0 -205.0 296.0 -167.0C296.0 -161.0 295.0 -149.0 295.0 -140.0L29.0 -178.0L6.0 -192.0ZM390.0 -48.0C390.0 -34.0 450.0 -22.0 450.0 -22.0C492.0 36.0 592.0 202.0 635.0 275.0H598.0C564.0 216.0 460.0 38.0 434.0 10.0C419.0 -5.0 395.0 -10.0 378.0 -14.0C382.0 -22.0 388.0 -39.0 390.0 -48.0ZM40.0 -275.0C27.0 -356.0 9.0 -446.0 -16.0 -510.0C-8.0 -513.0 7.0 -519.0 13.0 -522.0C34.0 -459.0 56.0 -365.0 71.0 -281.0Z"/></g>
<g fill="green" transform="translate(400 100) scale(0.1 -0.1)"><path d="M0.0 0.0C0.0 23.0 75.0 63.0 75.0 63.0V66.0C140.0 144.0 211.0 258.0 257.0 364.0L132.0 415.0C98.0 310.0 37.0 201.0 16.0 173.0C-4.0 144.0 -21.0 125.0 -42.0 120.0C-27.0 86.0 -7.0 25.0 0.0 0.0ZM117.0 -277.0C128.0 -349.0 139.0 -444.0 140.0 -506.0L245.0 -484.0C242.0 -422.0 230.0 -330.0 217.0 -257.0ZM222.0 -256.0C240.0 -305.0 260.0 -369.0 268.0 -411.0L365.0 -374.0C355.0 -334.0 334.0 -272.0 314.0 -224.0ZM0.0 0.0C22.0 10.0 58.0 19.0 210.0 32.0C211.0 60.0 217.0 110.0 225.0 145.0L52.0 134.0L-4.0 97.0ZM8.0 -236.0C34.0 -223.0 75.0 -213.0 287.0 -183.0C286.0 -155.0 290.0 -105.0 296.0 -71.0L58.0 -98.0L2.0 -136.0ZM379.0 -61.0C379.0 -24.0 520.0 27.0 520.0 27.0C566.0 89.0 638.0 210.0 683.0 282.0H520.0C493.0 235.0 428.0 132.0 406.0 110.0C386.0 90.0 366.0 83.0 347.0 79.0C357.0 48.0 374.0 -25.0 379.0 -61.0ZM1.0 -260.0C-3.0 -346.0 -13.0 -439.0 -36.0 -499.0C-8.0 -507.0 45.0 -523.0 70.0 -536.0C91.0 -473.0 106.0 -373.0 111.0 -277.0Z"/></g>
<g fill="green" transform="translate(500 100) scale(0.1 -0.1)"><path d="M-0.0 0.0C0.0 10.0 28.0 21.0 28.0 21.0V22.0C98.0 104.0 168.0 221.0 226.0 338.0L195.0 352.0C147.0 240.0 68.0 121.0 44.0 90.0C23.0 59.0 4.0 37.0 -11.0 34.0C-7.0 25.0 -2.0 8.0 0.0 0.0ZM134.0 -277.0C147.0 -346.0 159.0 -436.0 162.0 -495.0L191.0 -490.0C188.0 -431.0 175.0 -342.0 163.0 -273.0ZM226.0 -259.0C249.0 -318.0 273.0 -396.0 283.0 -446.0L312.0 -438.0C302.0 -388.0 276.0 -311.0 253.0 -252.0ZM0.0 0.0C13.0 6.0 36.0 10.0 203.0 31.0C202.0 38.0 202.0 50.0 203.0 58.0L23.0 40.0L0.0 28.0ZM6.0 -219.0C22.0 -211.0 48.0 -205.0 296.0 -167.0C296.0 -161.0 295.0 -149.0 295.0 -140.0L29.0 -178.0L6.0 -192.0ZM346.0 -530.0C346.0 -517.0 398.0 -504.0 398.0 -504.0C445.0 -439.0 548.0 -258.0 592.0 -180.0H557.0C522.0 -243.0 413.0 -439.0 384.0 -470.0C369.0 -488.0 348.0 -494.0 331.0 -497.0C335.0 -505.0 344.0 -521.0 346.0 -530.0ZM40.0 -275.0C27.0 -356.0 9.0 -446.0 -16.0 -510.0C-8.0 -513.0 7.0 -519.0 13.0 -522.0C34.0 -459.0 56.0 -365.0 71.0 -281.0Z"/></g>
<g fill="green" transform="translate(600 100) scale(0.1 -0.1)"><path d="M0.0 0.0C0.0 23.0 76.0 64.0 76.0 64.0V67.0C140.0 145.0 210.0 259.0 255.0 365.0L128.0 417.0C95.0 312.0 35.0 202.0 15.0 174.0C-5.0 145.0 -22.0 127.0 -42.0 121.0C-28.0 87.0 -7.0 26.0 0.0 0.0ZM118.0 -277.0C129.0 -349.0 140.0 -444.0 141.0 -506.0L251.0 -483.0C247.0 -421.0 236.0 -329.0 222.0 -256.0ZM228.0 -256.0C243.0 -304.0 260.0 -367.0 267.0 -408.0L369.0 -371.0C361.0 -332.0 342.0 -271.0 325.0 -224.0ZM0.0 0.0C22.0 10.0 58.0 19.0 210.0 32.0C211.0 61.0 218.0 112.0 225.0 147.0L52.0 136.0L-4.0 99.0ZM8.0 -236.0C34.0 -223.0 75.0 -212.0 287.0 -183.0C286.0 -155.0 290.0 -104.0 296.0 -69.0L58.0 -96.0L2.0 -134.0ZM358.0 -526.0C358.0 -490.0 513.0 -442.0 513.0 -442.0C556.0 -372.0 616.0 -254.0 655.0 -184.0H501.0C479.0 -229.0 425.0 -332.0 405.0 -355.0C386.0 -377.0 346.0 -387.0 319.0 -392.0C331.0 -424.0 352.0 -491.0 358.0 -526.0ZM1.0 -260.0C-3.0 -346.0 -13.0 -440.0 -36.0 -499.0C-7.0 -507.0 48.0 -524.0 74.0 -538.0C95.0 -474.0 110.0 -374.0 115.0 -278.0Z"/></g>
<g fill="red" transform="translate(100 200) scale(0.1 -0.1)"><path d="M0.0 0.0C0.0 10.0 28.0 21.0 28.0 21.0V22.0C98.0 104.0 168.0 221.0 226.0 338.0L195.0 352.0C147.0 240.0 68.0 121.0 44.0 90.0C23.0 59.0 4.0 37.0 -11.0 34.0C-7.0 25.0 -2.0 8.0 0.0 0.0ZM134.0 -277.0C147.0 -346.0 159.0 -436.0 162.0 -495.0L191.0 -490.0C188.0 -431.0 175.0 -342.0 163.0 -273.0ZM226.0 -259.0C249.0 -318.0 273.0 -396.0 283.0 -446.0L312.0 -438.0C302.0 -388.0 276.0 -311.0 253.0 -252.0ZM0.0 0.0C13.0 6.0 36.0 10.0 203.0 31.0C202.0 38.0 202.0 50.0 203.0 58.0L23.0 40.0L0.0 28.0ZM6.0 -219.0C22.0 -211.0 48.0 -205.0 296.0 -167.0C296.0 -161.0 295.0 -149.0 295.0 -140.0L29.0 -178.0L6.0 -192.0ZM390.0 -48.0C390.0 -34.0 450.0 -22.0 450.0 -22.0C492.0 36.0 592.0 202.0 635.0 275.0H598.0C564.0 216.0 460.0 38.0 434.0 10.0C419.0 -5.0 395.0 -10.0 378.0 -14.0C382.0 -22.0 388.0 -39.0 390.0 -48.0ZM40.0 -275.0C27.0 -356.0 9.0 -446.0 -16.0 -510.0C-8.0 -513.0 7.0 -519.0 13.0 -522.0C34.0 -459.0 56.0 -365.0 71.0 -281.0Z"/></g>
<g fill="black" opacity=".8" transform="translate(100 200) scale(0.1 -0.1)"><path d="M0.0 0.0C0.0 10.0 28.0 21.0 28.0 21.0V22.0C98.0 104.0 168.0 221.0 226.0 338.0L195.0 352.0C147.0 240.0 68.0 121.0 44.0 90.0C23.0 59.0 4.0 37.0 -11.0 34.0C-7.0 25.0 -2.0 8.0 0.0 0.0ZM134.0 -277.0C147.0 -346.0 159.0 -436.0 162.0 -495.0L191.0 -490.0C188.0 -431.0 175.0 -342.0 163.0 -273.0ZM226.0 -259.0C249.0 -318.0 273.0 -396.0 283.0 -446.0L312.0 -438.0C302.0 -388.0 276.0 -311.0 253.0 -252.0ZM0.0 0.0C13.0 6.0 36.0 10.0 203.0 31.0C202.0 38.0 202.0 50.0 203.0 58.0L23.0 40.0L0.0 28.0ZM6.0 -219.0C22.0 -211.0 48.0 -205.0 296.0 -167.0C296.0 -161.0 295.0 -149.0 295.0 -140.0L29.0 -178.0L6.0 -192.0ZM390.0 -48.0C390.0 -34.0 450.0 -22.0 450.0 -22.0C492.0 36.0 592.0 202.0 635.0 275.0H598.0C564.0 216.0 460.0 38.0 434.0 10.0C419.0 -5.0 395.0 -10.0 378.0 -14.0C382.0 -22.0 388.0 -39.0 390.0 -48.0ZM40.0 -275.0C27.0 -356.0 9.0 -446.0 -16.0 -510.0C-8.0 -513.0 7.0 -519.0 13.0 -522.0C34.0 -459.0 56.0 -365.0 71.0 -281.0Z"/></g>
<g fill="red" transform="translate(200 200) scale(0.1 -0.1)"><path d="M0.0 0.0C0.0 23.0 75.0 63.0 75.0 63.0V66.0C140.0 144.0 211.0 258.0 257.0 364.0L132.0 415.0C98.0 310.0 37.0 201.0 16.0 173.0C-4.0 144.0 -21.0 125.0 -42.0 120.0C-27.0 86.0 -7.0 25.0 0.0 0.0ZM117.0 -277.0C128.0 -349.0 139.0 -444.0 140.0 -506.0L245.0 -484.0C242.0 -422.0 230.0 -330.0 217.0 -257.0ZM222.0 -256.0C240.0 -305.0 260.0 -369.0 268.0 -411.0L365.0 -374.0C355.0 -334.0 334.0 -272.0 314.0 -224.0ZM0.0 0.0C22.0 10.0 58.0 19.0 210.0 32.0C211.0 60.0 217.0 110.0 225.0 145.0L52.0 134.0L-4.0 97.0ZM8.0 -236.0C34.0 -223.0 75.0 -213.0 287.0 -183.0C286.0 -155.0 290.0 -105.0 296.0 -71.0L58.0 -98.0L2.0 -136.0ZM379.0 -61.0C379.0 -24.0 520.0 27.0 520.0 27.0C566.0 89.0 638.0 210.0 683.0 282.0H520.0C493.0 235.0 428.0 132.0 406.0 110.0C386.0 90.0 366.0 83.0 347.0 79.0C357.0 48.0 374.0 -25.0 379.0 -61.0ZM1.0 -260.0C-3.0 -346.0 -13.0 -439.0 -36.0 -499.0C-8.0 -507.0 45.0 -523.0 70.0 -536.0C91.0 -473.0 106.0 -373.0 111.0 -277.0Z"/></g>
<g fill="black" opacity=".8" transform="translate(200 200) scale(0.1 -0.1)"><path d="M0.0 0.0C0.0 23.0 75.0 63.0 75.0 63.0V66.0C140.0 144.0 211.0 258.0 257.0 364.0L132.0 415.0C98.0 310.0 37.0 201.0 16.0 173.0C-4.0 144.0 -21.0 125.0 -42.0 120.0C-27.0 86.0 -7.0 25.0 0.0 0.0ZM117.0 -277.0C128.0 -349.0 139.0 -444.0 140.0 -506.0L245.0 -484.0C242.0 -422.0 230.0 -330.0 217.0 -257.0ZM222.0 -256.0C240.0 -305.0 260.0 -369.0 268.0 -411.0L365.0 -374.0C355.0 -334.0 334.0 -272.0 314.0 -224.0ZM0.0 0.0C22.0 10.0 58.0 19.0 210.0 32.0C211.0 60.0 217.0 110.0 225.0 145.0L52.0 134.0L-4.0 97.0ZM8.0 -236.0C34.0 -223.0 75.0 -213.0 287.0 -183.0C286.0 -155.0 290.0 -105.0 296.0 -71.0L58.0 -98.0L2.0 -136.0ZM379.0 -61.0C379.0 -24.0 520.0 27.0 520.0 27.0C566.0 89.0 638.0 210.0 683.0 282.0H520.0C493.0 235.0 428.0 132.0 406.0 110.0C386.0 90.0 366.0 83.0 347.0 79.0C357.0 48.0 374.0 -25.0 379.0 -61.0ZM1.0 -260.0C-3.0 -346.0 -13.0 -439.0 -36.0 -499.0C-8.0 -507.0 45.0 -523.0 70.0 -536.0C91.0 -473.0 106.0 -373.0 111.0 -277.0Z"/></g>
<g fill="red" transform="translate(300 200) scale(0.1 -0.1)"><path d="M0.0 0.0C0.0 10.0 28.0 21.0 28.0 21.0V22.0C98.0 104.0 168.0 221.0 226.0 338.0L195.0 352.0C147.0 240.0 68.0 121.0 44.0 90.0C23.0 59.0 4.0 37.0 -11.0 34.0C-7.0 25.0 -2.0 8.0 0.0 0.0ZM134.0 -277.0C147.0 -346.0 159.0 -436.0 162.0 -495.0L191.0 -490.0C188.0 -431.0 175.0 -342.0 163.0 -273.0ZM226.0 -259.0C249.0 -318.0 273.0 -396.0 283.0 -446.0L312.0 -438.0C302.0 -388.0 276.0 -311.0 253.0 -252.0ZM0.0 0.0C13.0 6.0 36.0 10.0 203.0 31.0C202.0 38.0 202.0 50.0 203.0 58.0L23.0 40.0L0.0 28.0ZM6.0 -219.0C22.0 -211.0 48.0 -205.0 296.0 -167.0C296.0 -161.0 295.0 -149.0 295.0 -140.0L29.0 -178.0L6.0 -192.0ZM346.0 -530.0C346.0 -517.0 398.0 -504.0 398.0 -504.0C445.0 -439.0 548.0 -258.0 592.0 -180.0H557.0C522.0 -243.0 413.0 -439.0 384.0 -470.0C369.0 -488.0 348.0 -494.0 331.0 -497.0C335.0 -505.0 344.0 -521.0 346.0 -530.0ZM40.0 -275.0C27.0 -356.0 9.0 -446.0 -16.0 -510.0C-8.0 -513.0 7.0 -519.0 13.0 -522.0C34.0 -459.0 56.0 -365.0 71.0 -281.0Z"/></g>
<g fill="black" opacity=".8" transform="translate(300 200) scale(0.1 -0.1)"><path d="M0.0 0.0C0.0 10.0 28.0 21.0 28.0 21.0V22.0C98.0 104.0 168.0 221.0 226.0 338.0L195.0 352.0C147.0 240.0 68.0 121.0 44.0 90.0C23.0 59.0 4.0 37.0 -11.0 34.0C-7.0 25.0 -2.0 8.0 0.0 0.0ZM134.0 -277.0C147.0 -346.0 159.0 -436.0 162.0 -495.0L191.0 -490.0C188.0 -431.0 175.0 -342.0 163.0 -273.0ZM226.0 -259.0C249.0 -318.0 273.0 -396.0 283.0 -446.0L312.0 -438.0C302.0 -388.0 276.0 -311.0 253.0 -252.0ZM0.0 0.0C13.0 6.0 36.0 10.0 203.0 31.0C202.0 38.0 202.0 50.0 203.0 58.0L23.0 40.0L0.0 28.0ZM6.0 -219.0C22.0 -211.0 48.0 -205.0 296.0 -167.0C296.0 -161.0 295.0 -149.0 295.0 -140.0L29.0 -178.0L6.0 -192.0ZM346.0 -530.0C346.0 -517.0 398.0 -504.0 398.0 -504.0C445.0 -439.0 548.0 -258.0 592.0 -180.0H557.0C522.0 -243.0 413.0 -439.0 384.0 -470.0C369.0 -488.0 348.0 -494.0 331.0 -497.0C335.0 -505.0 344.0 -521.0 346.0 -530.0ZM40.0 -275.0C27.0 -356.0 9.0 -446.0 -16.0 -510.0C-8.0 -513.0 7.0 -519.0 13.0 -522.0C34.0 -459.0 56.0 -365.0 71.0 -281.0Z"/></g>
<g fill="red" transform="translate(400 200) scale(0.1 -0.1)"><path d="M0.0 0.0C0.0 23.0 76.0 64.0 76.0 64.0V67.0C140.0 145.0 210.0 259.0 255.0 365.0L128.0 417.0C95.0 312.0 35.0 202.0 15.0 174.0C-5.0 145.0 -22.0 127.0 -42.0 121.0C-28.0 87.0 -7.0 26.0 0.0 0.0ZM118.0 -277.0C129.0 -349.0 140.0 -444.0 141.0 -506.0L251.0 -483.0C247.0 -421.0 236.0 -329.0 222.0 -256.0ZM228.0 -256.0C243.0 -304.0 260.0 -367.0 267.0 -408.0L369.0 -371.0C361.0 -332.0 342.0 -271.0 325.0 -224.0ZM0.0 0.0C22.0 10.0 58.0 19.0 210.0 32.0C211.0 61.0 218.0 112.0 225.0 147.0L52.0 136.0L-4.0 99.0ZM8.0 -236.0C34.0 -223.0 75.0 -212.0 287.0 -183.0C286.0 -155.0 290.0 -104.0 296.0 -69.0L58.0 -96.0L2.0 -134.0ZM358.0 -526.0C358.0 -490.0 513.0 -442.0 513.0 -442.0C556.0 -372.0 616.0 -254.0 655.0 -184.0H501.0C479.0 -229.0 425.0 -332.0 405.0 -355.0C386.0 -377.0 346.0 -387.0 319.0 -392.0C331.0 -424.0 352.0 -491.0 358.0 -526.0ZM1.0 -260.0C-3.0 -346.0 -13.0 -440.0 -36.0 -499.0C-7.0 -507.0 48.0 -524.0 74.0 -538.0C95.0 -474.0 110.0 -374.0 115.0 -278.0Z"/></g>
<g fill="black" opacity=".8" transform="translate(400 200) scale(0.1 -0.1)"><path d="M0.0 0.0C0.0 23.0 76.0 64.0 76.0 64.0V67.0C140.0 145.0 210.0 259.0 255.0 365.0L128.0 417.0C95.0 312.0 35.0 202.0 15.0 174.0C-5.0 145.0 -22.0 127.0 -42.0 121.0C-28.0 87.0 -7.0 26.0 0.0 0.0ZM118.0 -277.0C129.0 -349.0 140.0 -444.0 141.0 -506.0L251.0 -483.0C247.0 -421.0 236.0 -329.0 222.0 -256.0ZM228.0 -256.0C243.0 -304.0 260.0 -367.0 267.0 -408.0L369.0 -371.0C361.0 -332.0 342.0 -271.0 325.0 -224.0ZM0.0 0.0C22.0 10.0 58.0 19.0 210.0 32.0C211.0 61.0 218.0 112.0 225.0 147.0L52.0 136.0L-4.0 99.0ZM8.0 -236.0C34.0 -223.0 75.0 -212.0 287.0 -183.0C286.0 -155.0 290.0 -104.0 296.0 -69.0L58.0 -96.0L2.0 -134.0ZM358.0 -526.0C358.0 -490.0 513.0 -442.0 513.0 -442.0C556.0 -372.0 616.0 -254.0 655.0 -184.0H501.0C479.0 -229.0 425.0 -332.0 405.0 -355.0C386.0 -377.0 346.0 -387.0 319.0 -392.0C331.0 -424.0 352.0 -491.0 358.0 -526.0ZM1.0 -260.0C-3.0 -346.0 -13.0 -440.0 -36.0 -499.0C-7.0 -507.0 48.0 -524.0 74.0 -538.0C95.0 -474.0 110.0 -374.0 115.0 -278.0Z"/></g>
</svg>
