<?xml version="1.0" encoding="UTF-8"?>
<svg width="1700" height="1100" xmlns="http://www.w3.org/2000/svg">
<rect width="100%" height="100%" fill="white"/>
<g fill="green" transform="translate(100 100) scale(0.1 -0.1)"><path d="M-0.0 -0.0C3.0 -20.0 8.0 -49.0 -7.0 -74.0C-0.0 -74.0 10.0 -74.0 15.0 -76.0C26.0 -54.0 24.0 -23.0 22.0 -2.0ZM-606.0 -57.0 -604.0 -725.0 -451.0 -787.0 -448.0 -119.0Z"/></g>
<g fill="green" transform="translate(200 100) scale(0.1 -0.1)"><path d="M0.0 0.0C13.0 -27.0 23.0 -56.0 5.0 -73.0C38.0 -60.0 102.0 -32.0 136.0 -33.0C131.0 -25.0 111.0 -25.0 97.0 2.0ZM-649.0 -67.0 -643.0 -704.0 -362.0 -761.0 -351.0 -124.0Z"/></g>
<g fill="green" transform="translate(300 100) scale(0.1 -0.1)"><path d="M0.0 -0.0C-34.0 -146.0 -89.0 -298.0 -178.0 -405.0C-164.0 -409.0 -141.0 -418.0 -131.0 -424.0C-48.0 -317.0 12.0 -161.0 51.0 -8.0ZM-720.0 -431.0 -718.0 -1148.0 -89.0 -1194.0 -87.0 -477.0Z"/></g>
<g fill="green" transform="translate(400 100) scale(0.1 -0.1)"><path d="M0.0 0.0C-18.0 -141.0 -67.0 -284.0 -156.0 -371.0C-92.0 -379.0 25.0 -398.0 82.0 -424.0C153.0 -330.0 203.0 -193.0 231.0 -30.0ZM-715.0 -425.0 -708.0 -1203.0 38.0 -1246.0 46.0 -468.0Z"/></g>
<g fill="green" transform="translate(500 100) scale(0.1 -0.1)"><path d="M0.0 -0.0C-1.0 9.0 -5.0 7.0 -25.0 2.0C-22.0 2.0 -19.0 3.0 -17.0 0.0C4.0 7.0 8.0 8.0 11.0 0.0ZM46.0 37.0 42.0 -75.0 724.0 -154.0 728.0 -43.0Z"/></g>
<g fill="green" transform="translate(600 100) scale(0.1 -0.1)"><path d="M0.0 0.0C10.0 2.0 22.0 3.0 9.0 -2.0C24.0 4.0 49.0 15.0 63.0 11.0C73.0 16.0 55.0 3.0 48.0 8.0ZM48.0 64.0 32.0 -50.0 817.0 -123.0 831.0 -8.0Z"/></g>
<g fill="green" transform="translate(700 100) scale(0.1 -0.1)"><path d="M0.0 0.0C-20.0 -168.0 -52.0 -324.0 -127.0 -430.0C-115.0 -433.0 -96.0 -440.0 -89.0 -445.0C-20.0 -338.0 17.0 -181.0 40.0 -5.0ZM-487.0 452.0 -492.0 -433.0 -662.0 -521.0 -658.0 364.0Z"/></g>
<g fill="green" transform="translate(800 100) scale(0.1 -0.1)"><path d="M0.0 0.0C1.0 -160.0 -13.0 -312.0 -79.0 -401.0C-32.0 -411.0 58.0 -438.0 98.0 -459.0C159.0 -358.0 178.0 -199.0 181.0 -13.0ZM-483.0 444.0 -504.0 -456.0 -564.0 -537.0 -548.0 365.0Z"/></g>
<g fill="green" transform="translate(900 100) scale(0.1 -0.1)"><path d="M0.0 0.0C-6.0 -33.0 -10.0 -67.0 -14.0 -93.0C-10.0 -93.0 -3.0 -95.0 0.0 -95.0C1.0 -73.0 7.0 -35.0 12.0 -3.0ZM-255.0 -216.0 -253.0 -729.0 -577.0 -802.0 -573.0 -289.0Z"/></g>
<g fill="green" transform="translate(1000 100) scale(0.1 -0.1)"><path d="M0.0 0.0C4.0 -25.0 2.0 -50.0 -1.0 -63.0C16.0 -60.0 53.0 -51.0 71.0 -52.0C61.0 -45.0 62.0 -28.0 56.0 -8.0ZM-290.0 -266.0 -285.0 -748.0 -578.0 -816.0 -565.0 -333.0Z"/></g>
<g fill="green" transform="translate(1100 100) scale(0.1 -0.1)"><path d="M-0.0 -0.0C18.0 -45.0 45.0 -88.0 40.0 -122.0C49.0 -122.0 64.0 -122.0 72.0 -124.0C70.0 -95.0 48.0 -49.0 28.0 -2.0ZM-712.0 -293.0 -703.0 -501.0 -444.0 -482.0V-274.0Z"/></g>
<g fill="green" transform="translate(1200 100) scale(0.1 -0.1)"><path d="M0.0 0.0C25.0 -58.0 49.0 -117.0 30.0 -145.0C78.0 -121.0 177.0 -70.0 229.0 -65.0C205.0 -55.0 165.0 -46.0 132.0 6.0ZM-743.0 -291.0 -712.0 -565.0 -433.0 -549.0 -436.0 -276.0Z"/></g>
<g fill="green" transform="translate(1300 100) scale(0.1 -0.1)"><path d="M0.0 0.0C-29.0 -9.0 -76.0 -33.0 -131.0 -54.0C-124.0 -54.0 -115.0 -58.0 -110.0 -62.0C-58.0 -41.0 -9.0 -16.0 23.0 -5.0ZM-651.0 -69.0 -646.0 -665.0 -418.0 -719.0 -416.0 -123.0Z"/></g>
<g fill="green" transform="translate(1400 100) scale(0.1 -0.1)"><path d="M0.0 0.0C-23.0 -8.0 -71.0 -23.0 -127.0 -33.0C-89.0 -25.0 -20.0 -4.0 19.0 -11.0C47.0 -11.0 86.0 -27.0 116.0 -20.0ZM-692.0 -100.0 -683.0 -671.0 -419.0 -723.0 -410.0 -152.0Z"/></g>
<g fill="green" transform="translate(1500 100) scale(0.1 -0.1)"><path d="M-0.0 -0.0C5.0 -24.0 11.0 -54.0 -2.0 -77.0C4.0 -78.0 13.0 -80.0 17.0 -81.0C27.0 -59.0 24.0 -28.0 20.0 -2.0ZM-600.0 -168.0 -587.0 -871.0 -444.0 -697.0 -452.0 7.0Z"/></g>
<g fill="green" transform="translate(1600 100) scale(0.1 -0.1)"><path d="M0.0 0.0C12.0 -23.0 22.0 -46.0 7.0 -60.0C36.0 -49.0 91.0 -27.0 120.0 -30.0C116.0 -24.0 98.0 -25.0 84.0 0.0ZM-663.0 -149.0 -614.0 -811.0 -339.0 -655.0 -371.0 5.0Z"/></g>
<g fill="green" transform="translate(100 200) scale(0.1 -0.1)"><path d="M0.0 0.0C1.0 -5.0 4.0 -18.0 -2.0 -32.0C3.0 -32.0 10.0 -31.0 13.0 -33.0C17.0 -23.0 16.0 -6.0 16.0 -2.0ZM-628.0 -63.0 -627.0 -724.0 -500.0 -783.0 -497.0 -121.0Z"/></g>
<g fill="green" transform="translate(200 200) scale(0.1 -0.1)"><path d="M0.0 0.0C12.0 -42.0 23.0 -87.0 15.0 -115.0C37.0 -105.0 82.0 -84.0 105.0 -83.0C96.0 -61.0 78.0 -35.0 64.0 4.0ZM-632.0 -84.0 -633.0 -694.0 -321.0 -745.0 -309.0 -134.0Z"/></g>
<g fill="green" transform="translate(300 200) scale(0.1 -0.1)"><path d="M-0.0 -0.0C5.0 -31.0 15.0 -74.0 5.0 -107.0C10.0 -106.0 15.0 -106.0 19.0 -108.0C27.0 -75.0 20.0 -32.0 16.0 -1.0ZM-626.0 -82.0 -627.0 -736.0 -480.0 -810.0 -476.0 -156.0Z"/></g>
<g fill="green" transform="translate(400 200) scale(0.1 -0.1)"><path d="M0.0 0.0C15.0 -13.0 32.0 -25.0 25.0 -36.0C43.0 -32.0 77.0 -24.0 94.0 -28.0C97.0 -17.0 76.0 -14.0 62.0 6.0ZM-639.0 -49.0 -642.0 -662.0 -338.0 -730.0 -325.0 -116.0Z"/></g>
<g fill="green" transform="translate(500 200) scale(0.1 -0.1)"><path d="M0.0 -0.0C9.0 -19.0 25.0 -47.0 18.0 -72.0C26.0 -72.0 37.0 -72.0 42.0 -74.0C44.0 -53.0 33.0 -22.0 23.0 -2.0ZM-591.0 -55.0 -590.0 -725.0 -434.0 -790.0 -431.0 -121.0Z"/></g>
<g fill="green" transform="translate(600 200) scale(0.1 -0.1)"><path d="M0.0 0.0C8.0 -25.0 10.0 -53.0 -13.0 -71.0C19.0 -62.0 77.0 -44.0 109.0 -48.0C114.0 -37.0 104.0 -31.0 98.0 -3.0ZM-667.0 -62.0 -664.0 -703.0 -375.0 -763.0 -364.0 -123.0Z"/></g>
<g fill="red" transform="translate(100 300) scale(0.1 -0.1)"><path d="M0.0 0.0C-55.0 -136.0 -147.0 -262.0 -250.0 -344.0C-242.0 -349.0 -229.0 -359.0 -223.0 -364.0C-123.0 -278.0 -30.0 -150.0 30.0 -8.0ZM-108.0 -337.0V-366.0H414.0V-337.0Z"/></g>
<g fill="black" opacity=".8" transform="translate(100 300) scale(0.1 -0.1)"><path d="M0.0 0.0C-58.0 -131.0 -150.0 -259.0 -251.0 -345.0C-243.0 -348.0 -229.0 -361.0 -223.0 -367.0C-124.0 -277.0 -29.0 -146.0 32.0 -9.0ZM-106.0 -338.0 -104.0 -371.0 413.0 -369.0V-337.0Z"/></g>
<g fill="red" transform="translate(200 300) scale(0.1 -0.1)"><path d="M0.0 0.0C-55.0 -126.0 -152.0 -253.0 -252.0 -328.0C-216.0 -353.0 -154.0 -406.0 -126.0 -435.0C-26.0 -344.0 84.0 -194.0 153.0 -48.0ZM-57.0 -346.0V-485.0H398.0V-346.0Z"/></g>
<g fill="black" opacity=".8" transform="translate(200 300) scale(0.1 -0.1)"><path d="M0.0 0.0C-54.0 -123.0 -152.0 -248.0 -252.0 -327.0C-215.0 -353.0 -154.0 -409.0 -125.0 -439.0C-22.0 -344.0 89.0 -193.0 159.0 -48.0ZM-58.0 -346.0 -61.0 -478.0 399.0 -480.0V-346.0Z"/></g>
<g fill="red" transform="translate(300 300) scale(0.1 -0.1)"><path d="M0.0 0.0C-62.0 -161.0 -162.0 -319.0 -268.0 -422.0C-262.0 -427.0 -251.0 -440.0 -247.0 -446.0C-139.0 -336.0 -38.0 -177.0 29.0 -8.0ZM131.0 -362.0V-392.0H520.0V-362.0Z"/></g>
<g fill="black" opacity=".8" transform="translate(300 300) scale(0.1 -0.1)"><path d="M0.0 0.0C-63.0 -164.0 -160.0 -321.0 -264.0 -424.0C-257.0 -428.0 -245.0 -442.0 -241.0 -448.0C-136.0 -339.0 -37.0 -179.0 29.0 -9.0ZM125.0 -356.0V-389.0L514.0 -387.0V-354.0Z"/></g>
<g fill="red" transform="translate(400 300) scale(0.1 -0.1)"><path d="M0.0 0.0C-48.0 -138.0 -131.0 -276.0 -217.0 -363.0C-193.0 -399.0 -154.0 -480.0 -141.0 -516.0C-32.0 -400.0 73.0 -214.0 137.0 -43.0ZM195.0 -348.0V-482.0H529.0V-348.0Z"/></g>
<g fill="black" opacity=".8" transform="translate(400 300) scale(0.1 -0.1)"><path d="M0.0 0.0C-49.0 -139.0 -138.0 -276.0 -228.0 -363.0C-201.0 -398.0 -156.0 -474.0 -139.0 -509.0C-32.0 -397.0 78.0 -214.0 142.0 -47.0ZM206.0 -354.0 197.0 -485.0 535.0 -486.0V-352.0Z"/></g>
<g fill="red" transform="translate(500 300) scale(0.1 -0.1)"><path d="M0.0 0.0C-56.0 -159.0 -146.0 -315.0 -244.0 -417.0C-237.0 -423.0 -225.0 -436.0 -221.0 -442.0C-123.0 -332.0 -32.0 -174.0 29.0 -8.0ZM1.0 -474.0V-503.0H668.0V-474.0Z"/></g>
<g fill="black" opacity=".8" transform="translate(500 300) scale(0.1 -0.1)"><path d="M0.0 0.0C-58.0 -157.0 -148.0 -313.0 -248.0 -417.0C-240.0 -421.0 -228.0 -434.0 -223.0 -441.0C-123.0 -331.0 -30.0 -172.0 31.0 -9.0ZM11.0 -480.0 9.0 -511.0 664.0 -509.0V-479.0Z"/></g>
<g fill="red" transform="translate(600 300) scale(0.1 -0.1)"><path d="M0.0 0.0C-52.0 -138.0 -142.0 -276.0 -234.0 -363.0C-210.0 -399.0 -172.0 -479.0 -160.0 -514.0C-45.0 -400.0 67.0 -214.0 135.0 -44.0ZM92.0 -455.0V-596.0H732.0V-455.0Z"/></g>
<g fill="black" opacity=".8" transform="translate(600 300) scale(0.1 -0.1)"><path d="M0.0 0.0C-51.0 -136.0 -143.0 -271.0 -236.0 -361.0C-210.0 -399.0 -170.0 -482.0 -155.0 -519.0C-39.0 -402.0 75.0 -215.0 144.0 -47.0ZM90.0 -453.0 78.0 -585.0 735.0 -586.0 734.0 -451.0Z"/></g>
<g fill="red" transform="translate(700 300) scale(0.1 -0.1)"><path d="M0.0 0.0C-47.0 -162.0 -122.0 -323.0 -208.0 -430.0C-201.0 -436.0 -190.0 -447.0 -186.0 -453.0C-99.0 -340.0 -22.0 -176.0 29.0 -6.0ZM33.0 -489.0V-518.0H705.0V-489.0Z"/></g>
<g fill="black" opacity=".8" transform="translate(700 300) scale(0.1 -0.1)"><path d="M0.0 0.0C-47.0 -163.0 -120.0 -323.0 -209.0 -430.0C-200.0 -434.0 -187.0 -446.0 -182.0 -452.0C-94.0 -340.0 -18.0 -177.0 32.0 -8.0ZM31.0 -495.0 29.0 -521.0 699.0 -519.0 700.0 -494.0Z"/></g>
<g fill="red" transform="translate(800 300) scale(0.1 -0.1)"><path d="M0.0 0.0C-41.0 -142.0 -112.0 -284.0 -189.0 -375.0C-167.0 -414.0 -132.0 -499.0 -121.0 -535.0C-17.0 -413.0 77.0 -216.0 134.0 -40.0ZM93.0 -464.0V-595.0H782.0V-464.0Z"/></g>
<g fill="black" opacity=".8" transform="translate(800 300) scale(0.1 -0.1)"><path d="M0.0 0.0C-41.0 -143.0 -117.0 -284.0 -201.0 -377.0C-175.0 -413.0 -134.0 -495.0 -119.0 -532.0C-10.0 -411.0 87.0 -218.0 145.0 -42.0ZM104.0 -459.0 93.0 -592.0H786.0V-457.0Z"/></g>
<g fill="red" transform="translate(900 300) scale(0.1 -0.1)"><path d="M0.0 0.0C-42.0 -120.0 -110.0 -238.0 -189.0 -316.0C-181.0 -320.0 -168.0 -330.0 -163.0 -335.0C-87.0 -253.0 -16.0 -134.0 30.0 -7.0ZM-97.0 -349.0V-378.0H252.0V-349.0Z"/></g>
<g fill="black" opacity=".8" transform="translate(900 300) scale(0.1 -0.1)"><path d="M0.0 0.0C-43.0 -122.0 -109.0 -238.0 -188.0 -317.0C-180.0 -320.0 -166.0 -330.0 -161.0 -335.0C-84.0 -254.0 -15.0 -134.0 30.0 -7.0ZM-103.0 -351.0 -100.0 -385.0 254.0 -384.0 255.0 -351.0Z"/></g>
<g fill="red" transform="translate(1000 300) scale(0.1 -0.1)"><path d="M0.0 0.0C-33.0 -105.0 -94.0 -214.0 -163.0 -279.0C-128.0 -299.0 -66.0 -343.0 -38.0 -368.0C32.0 -290.0 104.0 -162.0 147.0 -37.0ZM-66.0 -366.0V-499.0H236.0V-366.0Z"/></g>
<g fill="black" opacity=".8" transform="translate(1000 300) scale(0.1 -0.1)"><path d="M0.0 0.0C-32.0 -111.0 -96.0 -221.0 -170.0 -288.0C-134.0 -304.0 -67.0 -338.0 -36.0 -360.0C32.0 -284.0 105.0 -161.0 146.0 -35.0ZM-63.0 -363.0 -59.0 -491.0 234.0 -494.0V-364.0Z"/></g>
<g fill="red" transform="translate(1100 300) scale(0.1 -0.1)"><path d="M0.0 0.0C-44.0 -139.0 -114.0 -270.0 -201.0 -357.0C-194.0 -361.0 -182.0 -370.0 -177.0 -375.0C-92.0 -285.0 -18.0 -153.0 28.0 -7.0ZM-216.0 -469.0V-499.0H667.0V-469.0Z"/></g>
<g fill="black" opacity=".8" transform="translate(1100 300) scale(0.1 -0.1)"><path d="M0.0 0.0C-44.0 -132.0 -114.0 -265.0 -205.0 -356.0C-196.0 -360.0 -180.0 -370.0 -173.0 -377.0C-83.0 -282.0 -9.0 -146.0 38.0 -8.0ZM-222.0 -475.0 -221.0 -505.0 663.0 -503.0V-474.0Z"/></g>
<g fill="red" transform="translate(1200 300) scale(0.1 -0.1)"><path d="M0.0 0.0C-38.0 -134.0 -111.0 -270.0 -195.0 -349.0C-157.0 -369.0 -88.0 -413.0 -57.0 -438.0C25.0 -344.0 107.0 -191.0 156.0 -37.0ZM-176.0 -451.0V-598.0H734.0V-451.0Z"/></g>
<g fill="black" opacity=".8" transform="translate(1200 300) scale(0.1 -0.1)"><path d="M0.0 0.0C-38.0 -129.0 -112.0 -261.0 -205.0 -345.0C-163.0 -367.0 -91.0 -415.0 -58.0 -446.0C38.0 -345.0 122.0 -193.0 174.0 -38.0ZM-166.0 -446.0 -169.0 -591.0H736.0V-446.0Z"/></g>
<g fill="red" transform="translate(1300 300) scale(0.1 -0.1)"><path d="M0.0 0.0C-35.0 -136.0 -93.0 -266.0 -168.0 -353.0C-160.0 -357.0 -147.0 -367.0 -141.0 -372.0C-68.0 -282.0 -8.0 -149.0 31.0 -6.0ZM-75.0 -366.0V-395.0H300.0V-366.0Z"/></g>
<g fill="black" opacity=".8" transform="translate(1300 300) scale(0.1 -0.1)"><path d="M0.0 0.0C-38.0 -136.0 -95.0 -267.0 -168.0 -354.0C-160.0 -357.0 -147.0 -367.0 -141.0 -373.0C-70.0 -282.0 -8.0 -148.0 30.0 -7.0ZM-76.0 -363.0 -75.0 -395.0 302.0 -393.0 303.0 -362.0Z"/></g>
<g fill="red" transform="translate(1400 300) scale(0.1 -0.1)"><path d="M0.0 0.0C-36.0 -118.0 -103.0 -234.0 -183.0 -304.0C-150.0 -326.0 -92.0 -374.0 -66.0 -400.0C17.0 -314.0 96.0 -176.0 143.0 -35.0ZM-46.0 -352.0V-486.0H288.0V-352.0Z"/></g>
<g fill="black" opacity=".8" transform="translate(1400 300) scale(0.1 -0.1)"><path d="M0.0 0.0C-34.0 -115.0 -101.0 -230.0 -177.0 -302.0C-146.0 -325.0 -91.0 -377.0 -67.0 -403.0C16.0 -316.0 96.0 -175.0 142.0 -37.0ZM-46.0 -354.0 -47.0 -486.0 287.0 -487.0 286.0 -355.0Z"/></g>
<g fill="red" transform="translate(1500 300) scale(0.1 -0.1)"><path d="M0.0 0.0C-32.0 -158.0 -84.0 -307.0 -161.0 -406.0C-152.0 -409.0 -139.0 -416.0 -133.0 -421.0C-59.0 -319.0 -4.0 -169.0 30.0 -5.0ZM-437.0 -131.0V-727.0H-407.0V-131.0Z"/></g>
<g fill="black" opacity=".8" transform="translate(1500 300) scale(0.1 -0.1)"><path d="M0.0 0.0C-35.0 -155.0 -89.0 -304.0 -163.0 -404.0C-154.0 -407.0 -140.0 -417.0 -134.0 -421.0C-63.0 -319.0 -5.0 -167.0 33.0 -7.0ZM-438.0 -124.0V-735.0L-400.0 -736.0L-399.0 -124.0Z"/></g>
<g fill="red" transform="translate(1600 300) scale(0.1 -0.1)"><path d="M0.0 0.0C-21.0 -150.0 -68.0 -295.0 -144.0 -379.0C-108.0 -393.0 -39.0 -426.0 -9.0 -445.0C62.0 -349.0 117.0 -192.0 145.0 -22.0ZM-398.0 -114.0V-776.0H-277.0V-114.0Z"/></g>
<g fill="black" opacity=".8" transform="translate(1600 300) scale(0.1 -0.1)"><path d="M0.0 0.0C-20.0 -143.0 -65.0 -283.0 -131.0 -368.0C-97.0 -389.0 -35.0 -436.0 -9.0 -461.0C63.0 -359.0 120.0 -194.0 148.0 -28.0ZM-399.0 -122.0 -401.0 -765.0 -284.0 -766.0 -283.0 -122.0Z"/></g>
<g fill="red" transform="translate(100 400) scale(0.1 -0.1)"><path d="M0.0 0.0C-30.0 -123.0 -76.0 -248.0 -137.0 -332.0C-128.0 -336.0 -114.0 -343.0 -109.0 -347.0C-52.0 -261.0 -3.0 -135.0 31.0 -6.0ZM-501.0 -104.0V-735.0H-471.0V-104.0Z"/></g>
<g fill="black" opacity=".8" transform="translate(100 400) scale(0.1 -0.1)"><path d="M0.0 0.0C-29.0 -125.0 -72.0 -249.0 -135.0 -333.0C-126.0 -336.0 -113.0 -344.0 -108.0 -348.0C-48.0 -262.0 -0.0 -136.0 30.0 -6.0ZM-501.0 -98.0 -500.0 -753.0H-474.0L-473.0 -97.0Z"/></g>
<g fill="red" transform="translate(200 400) scale(0.1 -0.1)"><path d="M0.0 0.0C-21.0 -104.0 -63.0 -204.0 -121.0 -268.0C-95.0 -292.0 -51.0 -348.0 -34.0 -374.0C40.0 -292.0 96.0 -160.0 127.0 -28.0ZM-502.0 -83.0V-781.0H-396.0V-83.0Z"/></g>
<g fill="black" opacity=".8" transform="translate(200 400) scale(0.1 -0.1)"><path d="M0.0 0.0C-23.0 -108.0 -71.0 -213.0 -135.0 -280.0C-104.0 -298.0 -50.0 -341.0 -26.0 -364.0C42.0 -284.0 101.0 -157.0 134.0 -28.0ZM-501.0 -92.0V-759.0L-394.0 -761.0V-93.0Z"/></g>
<g fill="red" transform="translate(300 400) scale(0.1 -0.1)"><path d="M0.0 0.0C-31.0 -68.0 -89.0 -157.0 -171.0 -222.0C-163.0 -226.0 -152.0 -234.0 -146.0 -241.0C-63.0 -169.0 -4.0 -80.0 33.0 -5.0ZM-194.0 -346.0V-375.0H495.0V-346.0Z"/></g>
<g fill="black" opacity=".8" transform="translate(300 400) scale(0.1 -0.1)"><path d="M0.0 0.0C-37.0 -79.0 -97.0 -163.0 -168.0 -221.0C-161.0 -223.0 -152.0 -231.0 -147.0 -237.0C-77.0 -175.0 -15.0 -89.0 25.0 -6.0ZM-191.0 -350.0 -189.0 -375.0H502.0L503.0 -351.0Z"/></g>
<g fill="red" transform="translate(400 400) scale(0.1 -0.1)"><path d="M0.0 0.0C-34.0 -68.0 -93.0 -146.0 -176.0 -206.0C-145.0 -224.0 -99.0 -264.0 -77.0 -293.0C18.0 -214.0 83.0 -124.0 135.0 -25.0ZM-143.0 -337.0V-429.0H560.0V-337.0Z"/></g>
<g fill="black" opacity=".8" transform="translate(400 400) scale(0.1 -0.1)"><path d="M0.0 0.0C-33.0 -77.0 -97.0 -157.0 -167.0 -211.0C-139.0 -227.0 -92.0 -261.0 -69.0 -283.0C3.0 -218.0 73.0 -124.0 119.0 -30.0ZM-149.0 -330.0 -151.0 -428.0 555.0 -430.0V-331.0Z"/></g>
<g fill="red" transform="translate(500 400) scale(0.1 -0.1)"><path d="M0.0 0.0C-63.0 -156.0 -161.0 -307.0 -272.0 -406.0C-263.0 -409.0 -249.0 -418.0 -244.0 -423.0C-138.0 -321.0 -39.0 -170.0 29.0 -8.0ZM-86.0 -184.0V-213.0H595.0V-184.0Z"/></g>
<g fill="black" opacity=".8" transform="translate(500 400) scale(0.1 -0.1)"><path d="M0.0 0.0C-60.0 -152.0 -157.0 -302.0 -273.0 -402.0C-264.0 -406.0 -252.0 -418.0 -246.0 -426.0C-130.0 -319.0 -31.0 -168.0 34.0 -8.0ZM-101.0 -180.0V-213.0L603.0 -211.0V-178.0Z"/></g>
<g fill="red" transform="translate(600 400) scale(0.1 -0.1)"><path d="M0.0 0.0C-51.0 -145.0 -143.0 -291.0 -244.0 -378.0C-206.0 -399.0 -139.0 -446.0 -109.0 -473.0C-12.0 -372.0 90.0 -206.0 154.0 -42.0ZM-29.0 -144.0V-287.0H678.0V-144.0Z"/></g>
<g fill="black" opacity=".8" transform="translate(600 400) scale(0.1 -0.1)"><path d="M0.0 0.0C-47.0 -138.0 -133.0 -275.0 -236.0 -363.0C-201.0 -392.0 -143.0 -457.0 -118.0 -491.0C-3.0 -379.0 98.0 -210.0 162.0 -40.0ZM-9.0 -148.0 -23.0 -288.0H671.0V-147.0Z"/></g>
<g fill="red" transform="translate(700 400) scale(0.1 -0.1)"><path d="M0.0 0.0C-37.0 -140.0 -96.0 -277.0 -169.0 -369.0C-162.0 -373.0 -149.0 -383.0 -143.0 -388.0C-71.0 -292.0 -11.0 -153.0 30.0 -6.0ZM-91.0 -357.0V-387.0H254.0V-357.0Z"/></g>
<g fill="black" opacity=".8" transform="translate(700 400) scale(0.1 -0.1)"><path d="M0.0 0.0C-38.0 -141.0 -97.0 -276.0 -172.0 -367.0C-164.0 -369.0 -151.0 -380.0 -145.0 -385.0C-72.0 -291.0 -10.0 -154.0 30.0 -7.0ZM-89.0 -368.0 -88.0 -394.0 256.0 -393.0 257.0 -367.0Z"/></g>
<g fill="red" transform="translate(800 400) scale(0.1 -0.1)"><path d="M0.0 0.0C-30.0 -114.0 -87.0 -230.0 -156.0 -300.0C-124.0 -320.0 -65.0 -362.0 -39.0 -386.0C32.0 -302.0 100.0 -167.0 140.0 -33.0ZM-40.0 -367.0V-494.0H253.0V-367.0Z"/></g>
<g fill="black" opacity=".8" transform="translate(800 400) scale(0.1 -0.1)"><path d="M0.0 0.0C-28.0 -116.0 -85.0 -230.0 -156.0 -300.0C-123.0 -320.0 -63.0 -365.0 -37.0 -389.0C36.0 -306.0 105.0 -170.0 143.0 -33.0ZM-43.0 -357.0 -41.0 -485.0 250.0 -488.0V-358.0Z"/></g>
<g fill="red" transform="translate(900 400) scale(0.1 -0.1)"><path d="M0.0 0.0C-41.0 -137.0 -107.0 -266.0 -190.0 -353.0C-181.0 -357.0 -168.0 -367.0 -163.0 -371.0C-83.0 -282.0 -14.0 -150.0 29.0 -7.0ZM-85.0 -366.0V-396.0H304.0V-366.0Z"/></g>
<g fill="black" opacity=".8" transform="translate(900 400) scale(0.1 -0.1)"><path d="M0.0 0.0C-42.0 -136.0 -108.0 -267.0 -188.0 -355.0C-180.0 -358.0 -167.0 -369.0 -161.0 -374.0C-83.0 -283.0 -14.0 -149.0 30.0 -7.0ZM-87.0 -362.0 -85.0 -394.0 302.0 -391.0V-360.0Z"/></g>
<g fill="red" transform="translate(1000 400) scale(0.1 -0.1)"><path d="M0.0 0.0C-35.0 -118.0 -103.0 -234.0 -183.0 -304.0C-149.0 -326.0 -90.0 -375.0 -65.0 -401.0C19.0 -316.0 98.0 -177.0 145.0 -36.0ZM-46.0 -352.0V-486.0H288.0V-352.0Z"/></g>
<g fill="black" opacity=".8" transform="translate(1000 400) scale(0.1 -0.1)"><path d="M0.0 0.0C-35.0 -116.0 -104.0 -232.0 -183.0 -303.0C-149.0 -325.0 -91.0 -374.0 -65.0 -401.0C17.0 -314.0 98.0 -175.0 145.0 -37.0ZM-46.0 -356.0V-488.0L291.0 -489.0L290.0 -356.0Z"/></g>
<g fill="red" transform="translate(1100 400) scale(0.1 -0.1)"><path d="M0.0 0.0C-35.0 -125.0 -94.0 -247.0 -165.0 -328.0C-157.0 -333.0 -145.0 -342.0 -140.0 -347.0C-70.0 -262.0 -9.0 -137.0 29.0 -6.0ZM-173.0 -453.0V-482.0H423.0V-453.0Z"/></g>
<g fill="black" opacity=".8" transform="translate(1100 400) scale(0.1 -0.1)"><path d="M0.0 0.0C-37.0 -124.0 -95.0 -246.0 -169.0 -328.0C-161.0 -331.0 -147.0 -340.0 -141.0 -346.0C-69.0 -261.0 -8.0 -136.0 31.0 -7.0ZM-170.0 -457.0 -168.0 -490.0H425.0V-457.0Z"/></g>
<g fill="red" transform="translate(1200 400) scale(0.1 -0.1)"><path d="M0.0 0.0C-28.0 -120.0 -82.0 -244.0 -150.0 -317.0C-114.0 -333.0 -48.0 -368.0 -18.0 -390.0C46.0 -305.0 109.0 -168.0 145.0 -31.0ZM-105.0 -448.0V-589.0H490.0V-448.0Z"/></g>
<g fill="black" opacity=".8" transform="translate(1200 400) scale(0.1 -0.1)"><path d="M0.0 0.0C-25.0 -121.0 -79.0 -242.0 -148.0 -318.0C-113.0 -334.0 -47.0 -371.0 -18.0 -394.0C51.0 -306.0 113.0 -169.0 147.0 -30.0ZM-110.0 -445.0 -108.0 -578.0 488.0 -580.0V-445.0Z"/></g>
<g fill="red" transform="translate(1300 400) scale(0.1 -0.1)"><path d="M0.0 0.0C-37.0 -115.0 -93.0 -225.0 -163.0 -300.0C-155.0 -304.0 -142.0 -313.0 -137.0 -317.0C-70.0 -240.0 -10.0 -125.0 28.0 -7.0ZM-216.0 -505.0V-534.0H429.0V-505.0Z"/></g>
<g fill="black" opacity=".8" transform="translate(1300 400) scale(0.1 -0.1)"><path d="M0.0 0.0C-36.0 -111.0 -93.0 -225.0 -164.0 -302.0C-157.0 -305.0 -146.0 -314.0 -140.0 -319.0C-70.0 -238.0 -10.0 -122.0 28.0 -6.0ZM-214.0 -504.0 -212.0 -535.0 432.0 -534.0V-504.0Z"/></g>
<g fill="red" transform="translate(1400 400) scale(0.1 -0.1)"><path d="M0.0 0.0C-30.0 -98.0 -88.0 -195.0 -156.0 -255.0C-124.0 -273.0 -68.0 -313.0 -43.0 -336.0C26.0 -265.0 94.0 -149.0 134.0 -33.0ZM-152.0 -474.0V-598.0H501.0V-474.0Z"/></g>
<g fill="black" opacity=".8" transform="translate(1400 400) scale(0.1 -0.1)"><path d="M0.0 0.0C-28.0 -97.0 -84.0 -194.0 -151.0 -257.0C-120.0 -275.0 -68.0 -315.0 -44.0 -339.0C27.0 -262.0 92.0 -145.0 131.0 -29.0ZM-157.0 -475.0 -155.0 -595.0 499.0 -596.0V-475.0Z"/></g>
<g fill="red" transform="translate(1500 400) scale(0.1 -0.1)"><path d="M0.0 0.0C-42.0 -134.0 -111.0 -263.0 -192.0 -349.0C-185.0 -354.0 -171.0 -364.0 -165.0 -369.0C-86.0 -280.0 -14.0 -148.0 31.0 -7.0ZM-94.0 -363.0V-393.0H307.0V-363.0Z"/></g>
<g fill="black" opacity=".8" transform="translate(1500 400) scale(0.1 -0.1)"><path d="M0.0 0.0C-43.0 -135.0 -111.0 -264.0 -192.0 -350.0C-184.0 -354.0 -169.0 -364.0 -163.0 -370.0C-84.0 -281.0 -13.0 -148.0 32.0 -8.0ZM-96.0 -363.0 -94.0 -393.0 304.0 -391.0V-362.0Z"/></g>
<g fill="red" transform="translate(1600 400) scale(0.1 -0.1)"><path d="M0.0 0.0C-37.0 -126.0 -105.0 -253.0 -185.0 -329.0C-150.0 -350.0 -87.0 -397.0 -60.0 -423.0C21.0 -332.0 101.0 -184.0 149.0 -37.0ZM-56.0 -369.0V-503.0H291.0V-369.0Z"/></g>
<g fill="black" opacity=".8" transform="translate(1600 400) scale(0.1 -0.1)"><path d="M0.0 0.0C-36.0 -126.0 -108.0 -252.0 -189.0 -329.0C-153.0 -349.0 -88.0 -395.0 -59.0 -421.0C22.0 -331.0 105.0 -184.0 153.0 -39.0ZM-54.0 -369.0V-502.0L294.0 -503.0V-369.0Z"/></g>
<g fill="red" transform="translate(100 500) scale(0.1 -0.1)"><path d="M0.0 0.0C-35.0 -133.0 -94.0 -260.0 -168.0 -345.0C-160.0 -349.0 -146.0 -358.0 -142.0 -363.0C-69.0 -275.0 -8.0 -146.0 29.0 -6.0ZM-153.0 -544.0 -143.0 -568.0 369.0 -364.0 358.0 -339.0Z"/></g>
<g fill="black" opacity=".8" transform="translate(100 500) scale(0.1 -0.1)"><path d="M0.0 0.0C-36.0 -134.0 -93.0 -260.0 -167.0 -344.0C-159.0 -348.0 -145.0 -360.0 -139.0 -364.0C-67.0 -276.0 -6.0 -147.0 31.0 -7.0ZM-154.0 -542.0 -142.0 -564.0 363.0 -363.0 354.0 -342.0Z"/></g>
<g fill="red" transform="translate(200 500) scale(0.1 -0.1)"><path d="M0.0 0.0C-31.0 -116.0 -91.0 -231.0 -165.0 -300.0C-132.0 -320.0 -72.0 -364.0 -46.0 -389.0C30.0 -305.0 101.0 -170.0 142.0 -33.0ZM-136.0 -509.0 -95.0 -633.0 368.0 -461.0 328.0 -339.0Z"/></g>
<g fill="black" opacity=".8" transform="translate(200 500) scale(0.1 -0.1)"><path d="M0.0 0.0C-32.0 -115.0 -96.0 -229.0 -171.0 -299.0C-135.0 -318.0 -72.0 -361.0 -44.0 -387.0C32.0 -305.0 106.0 -172.0 147.0 -37.0ZM-134.0 -512.0 -94.0 -638.0 371.0 -460.0 334.0 -334.0Z"/></g>
<g fill="red" transform="translate(300 500) scale(0.1 -0.1)"><path d="M0.0 0.0C-30.0 -113.0 -81.0 -222.0 -146.0 -296.0C-138.0 -300.0 -125.0 -309.0 -119.0 -313.0C-58.0 -237.0 -3.0 -124.0 30.0 -6.0ZM-158.0 -506.0V-536.0H455.0V-506.0Z"/></g>
<g fill="black" opacity=".8" transform="translate(300 500) scale(0.1 -0.1)"><path d="M0.0 0.0C-32.0 -111.0 -81.0 -224.0 -145.0 -300.0C-137.0 -303.0 -125.0 -311.0 -120.0 -317.0C-58.0 -237.0 -5.0 -122.0 28.0 -6.0ZM-159.0 -498.0 -158.0 -530.0 456.0 -528.0 457.0 -497.0Z"/></g>
<g fill="red" transform="translate(400 500) scale(0.1 -0.1)"><path d="M0.0 0.0C-29.0 -103.0 -86.0 -205.0 -157.0 -267.0C-126.0 -287.0 -72.0 -331.0 -48.0 -354.0C28.0 -278.0 96.0 -155.0 136.0 -30.0ZM-115.0 -466.0V-587.0H512.0V-466.0Z"/></g>
<g fill="black" opacity=".8" transform="translate(400 500) scale(0.1 -0.1)"><path d="M0.0 0.0C-28.0 -100.0 -84.0 -201.0 -150.0 -267.0C-121.0 -287.0 -72.0 -331.0 -50.0 -356.0C23.0 -276.0 89.0 -151.0 129.0 -31.0ZM-118.0 -473.0 -117.0 -594.0H512.0V-472.0Z"/></g>
<g fill="red" transform="translate(500 500) scale(0.1 -0.1)"><path d="M0.0 0.0C-31.0 -114.0 -81.0 -225.0 -146.0 -300.0C-138.0 -304.0 -124.0 -312.0 -118.0 -317.0C-56.0 -240.0 -3.0 -126.0 31.0 -6.0ZM-30.0 -267.0V-297.0H262.0V-267.0Z"/></g>
<g fill="black" opacity=".8" transform="translate(500 500) scale(0.1 -0.1)"><path d="M0.0 0.0C-32.0 -118.0 -82.0 -228.0 -144.0 -301.0C-138.0 -304.0 -126.0 -312.0 -121.0 -317.0C-60.0 -242.0 -8.0 -129.0 26.0 -6.0ZM-28.0 -266.0 -27.0 -297.0H267.0L268.0 -266.0Z"/></g>
<g fill="red" transform="translate(600 500) scale(0.1 -0.1)"><path d="M0.0 0.0C-22.0 -116.0 -64.0 -233.0 -123.0 -305.0C-92.0 -323.0 -35.0 -364.0 -10.0 -387.0C53.0 -301.0 106.0 -164.0 135.0 -27.0ZM31.0 -275.0V-391.0H306.0V-275.0Z"/></g>
<g fill="black" opacity=".8" transform="translate(600 500) scale(0.1 -0.1)"><path d="M0.0 0.0C-19.0 -121.0 -61.0 -240.0 -118.0 -312.0C-89.0 -327.0 -33.0 -361.0 -10.0 -380.0C46.0 -297.0 97.0 -161.0 122.0 -25.0ZM27.0 -275.0 25.0 -390.0 302.0 -392.0 303.0 -274.0Z"/></g>
<g fill="red" transform="translate(700 500) scale(0.1 -0.1)"><path d="M0.0 0.0C-31.0 -144.0 -80.0 -284.0 -150.0 -377.0C-142.0 -380.0 -128.0 -388.0 -122.0 -392.0C-55.0 -297.0 -3.0 -156.0 30.0 -6.0ZM-420.0 -374.0V-404.0H-195.0V-374.0Z"/></g>
<g fill="black" opacity=".8" transform="translate(700 500) scale(0.1 -0.1)"><path d="M0.0 0.0C-32.0 -147.0 -80.0 -286.0 -147.0 -378.0C-139.0 -380.0 -126.0 -389.0 -120.0 -395.0C-55.0 -300.0 -3.0 -158.0 29.0 -7.0ZM-425.0 -370.0 -422.0 -394.0 -197.0 -393.0 -196.0 -369.0Z"/></g>
<g fill="red" transform="translate(800 500) scale(0.1 -0.1)"><path d="M0.0 0.0C-25.0 -129.0 -73.0 -262.0 -135.0 -342.0C-100.0 -358.0 -34.0 -393.0 -4.0 -414.0C56.0 -323.0 113.0 -175.0 145.0 -29.0ZM-350.0 -350.0V-476.0H-165.0V-350.0Z"/></g>
<g fill="black" opacity=".8" transform="translate(800 500) scale(0.1 -0.1)"><path d="M0.0 0.0C-22.0 -132.0 -70.0 -262.0 -135.0 -339.0C-102.0 -355.0 -36.0 -391.0 -8.0 -411.0C54.0 -322.0 112.0 -176.0 140.0 -27.0ZM-350.0 -353.0 -347.0 -486.0 -163.0 -487.0 -162.0 -351.0Z"/></g>
<g fill="red" transform="translate(900 500) scale(0.1 -0.1)"><path d="M0.0 0.0C-30.0 -113.0 -80.0 -222.0 -142.0 -296.0C-134.0 -300.0 -122.0 -309.0 -117.0 -313.0C-56.0 -237.0 -3.0 -124.0 29.0 -6.0ZM-407.0 -360.0V-390.0H-203.0V-360.0Z"/></g>
<g fill="black" opacity=".8" transform="translate(900 500) scale(0.1 -0.1)"><path d="M0.0 0.0C-32.0 -115.0 -80.0 -225.0 -140.0 -299.0C-133.0 -301.0 -122.0 -309.0 -116.0 -314.0C-59.0 -239.0 -6.0 -125.0 26.0 -7.0ZM-404.0 -361.0 -400.0 -392.0 -205.0 -391.0 -204.0 -361.0Z"/></g>
<g fill="red" transform="translate(1000 500) scale(0.1 -0.1)"><path d="M0.0 0.0C-28.0 -103.0 -82.0 -205.0 -149.0 -267.0C-120.0 -287.0 -68.0 -331.0 -46.0 -354.0C26.0 -278.0 91.0 -155.0 129.0 -30.0ZM-349.0 -361.0V-485.0H-209.0V-361.0Z"/></g>
<g fill="black" opacity=".8" transform="translate(1000 500) scale(0.1 -0.1)"><path d="M0.0 0.0C-29.0 -107.0 -88.0 -213.0 -153.0 -278.0C-123.0 -293.0 -66.0 -325.0 -40.0 -343.0C20.0 -271.0 87.0 -150.0 124.0 -31.0ZM-356.0 -360.0 -352.0 -481.0 -207.0 -483.0 -206.0 -360.0Z"/></g>
<g fill="red" transform="translate(1100 500) scale(0.1 -0.1)"><path d="M0.0 0.0C-40.0 -137.0 -107.0 -266.0 -188.0 -353.0C-181.0 -357.0 -168.0 -366.0 -163.0 -371.0C-83.0 -281.0 -14.0 -150.0 29.0 -6.0ZM-84.0 -366.0V-396.0H305.0V-366.0Z"/></g>
<g fill="black" opacity=".8" transform="translate(1100 500) scale(0.1 -0.1)"><path d="M0.0 0.0C-42.0 -136.0 -108.0 -267.0 -187.0 -354.0C-180.0 -357.0 -166.0 -368.0 -161.0 -373.0C-83.0 -282.0 -14.0 -148.0 30.0 -7.0ZM-88.0 -362.0 -86.0 -395.0 306.0 -393.0V-361.0Z"/></g>
<g fill="red" transform="translate(1200 500) scale(0.1 -0.1)"><path d="M0.0 0.0C-36.0 -118.0 -103.0 -234.0 -183.0 -304.0C-150.0 -326.0 -92.0 -373.0 -67.0 -399.0C16.0 -314.0 95.0 -175.0 142.0 -35.0ZM-47.0 -352.0V-486.0H300.0V-352.0Z"/></g>
<g fill="black" opacity=".8" transform="translate(1200 500) scale(0.1 -0.1)"><path d="M0.0 0.0C-35.0 -116.0 -104.0 -230.0 -181.0 -302.0C-149.0 -325.0 -92.0 -374.0 -67.0 -401.0C15.0 -314.0 96.0 -174.0 143.0 -37.0ZM-44.0 -355.0 -45.0 -486.0 300.0 -488.0V-355.0Z"/></g>
<g fill="red" transform="translate(1300 500) scale(0.1 -0.1)"><path d="M0.0 0.0C-34.0 -127.0 -89.0 -253.0 -157.0 -336.0C-150.0 -340.0 -136.0 -349.0 -131.0 -353.0C-64.0 -267.0 -8.0 -139.0 30.0 -6.0ZM-169.0 -455.0V-485.0H471.0V-455.0Z"/></g>
<g fill="black" opacity=".8" transform="translate(1300 500) scale(0.1 -0.1)"><path d="M0.0 0.0C-34.0 -127.0 -88.0 -250.0 -161.0 -335.0C-152.0 -338.0 -136.0 -347.0 -130.0 -353.0C-59.0 -267.0 -2.0 -139.0 34.0 -7.0ZM-169.0 -462.0 -168.0 -492.0 468.0 -491.0V-462.0Z"/></g>
<g fill="red" transform="translate(1400 500) scale(0.1 -0.1)"><path d="M0.0 0.0C-33.0 -120.0 -92.0 -250.0 -154.0 -329.0C-118.0 -349.0 -52.0 -392.0 -23.0 -417.0C40.0 -325.0 109.0 -175.0 152.0 -39.0ZM-130.0 -456.0V-596.0H510.0V-456.0Z"/></g>
<g fill="black" opacity=".8" transform="translate(1400 500) scale(0.1 -0.1)"><path d="M0.0 0.0C-28.0 -126.0 -87.0 -252.0 -164.0 -331.0C-125.0 -349.0 -56.0 -390.0 -25.0 -415.0C51.0 -323.0 119.0 -179.0 158.0 -33.0ZM-129.0 -450.0 -128.0 -588.0 512.0 -589.0V-450.0Z"/></g>
<g fill="red" transform="translate(1500 500) scale(0.1 -0.1)"><path d="M0.0 0.0C-36.0 -132.0 -98.0 -258.0 -175.0 -340.0C-167.0 -345.0 -155.0 -355.0 -149.0 -359.0C-74.0 -272.0 -10.0 -145.0 30.0 -6.0ZM-180.0 -534.0 -169.0 -558.0 378.0 -348.0 368.0 -323.0Z"/></g>
<g fill="black" opacity=".8" transform="translate(1500 500) scale(0.1 -0.1)"><path d="M0.0 0.0C-38.0 -132.0 -99.0 -258.0 -175.0 -341.0C-167.0 -345.0 -155.0 -356.0 -149.0 -361.0C-75.0 -274.0 -10.0 -145.0 30.0 -7.0ZM-180.0 -534.0 -168.0 -559.0 379.0 -345.0 370.0 -319.0Z"/></g>
<g fill="red" transform="translate(1600 500) scale(0.1 -0.1)"><path d="M0.0 0.0C-31.0 -121.0 -91.0 -241.0 -167.0 -313.0C-134.0 -334.0 -77.0 -383.0 -52.0 -409.0C28.0 -321.0 101.0 -178.0 142.0 -33.0ZM-133.0 -497.0 -93.0 -621.0 440.0 -426.0 401.0 -304.0Z"/></g>
<g fill="black" opacity=".8" transform="translate(1600 500) scale(0.1 -0.1)"><path d="M0.0 0.0C-31.0 -121.0 -92.0 -241.0 -164.0 -316.0C-132.0 -336.0 -75.0 -382.0 -51.0 -407.0C25.0 -319.0 97.0 -177.0 137.0 -34.0ZM-135.0 -497.0 -96.0 -620.0 439.0 -429.0 400.0 -306.0Z"/></g>
<g fill="red" transform="translate(100 600) scale(0.1 -0.1)"><path d="M0.0 0.0C-24.0 -122.0 -62.0 -245.0 -116.0 -328.0C-108.0 -331.0 -93.0 -337.0 -87.0 -340.0C-37.0 -257.0 3.0 -132.0 29.0 -5.0ZM-110.0 -446.0V-475.0H319.0V-446.0Z"/></g>
<g fill="black" opacity=".8" transform="translate(100 600) scale(0.1 -0.1)"><path d="M0.0 0.0C-24.0 -125.0 -61.0 -244.0 -115.0 -326.0C-107.0 -328.0 -93.0 -336.0 -87.0 -341.0C-35.0 -259.0 5.0 -135.0 29.0 -6.0ZM-114.0 -445.0 -113.0 -479.0 318.0 -478.0 319.0 -445.0Z"/></g>
<g fill="red" transform="translate(200 600) scale(0.1 -0.1)"><path d="M0.0 0.0C-19.0 -120.0 -59.0 -240.0 -116.0 -313.0C-85.0 -329.0 -30.0 -365.0 -5.0 -386.0C54.0 -300.0 103.0 -163.0 128.0 -24.0ZM-82.0 -434.0V-570.0H356.0V-434.0Z"/></g>
<g fill="black" opacity=".8" transform="translate(200 600) scale(0.1 -0.1)"><path d="M0.0 0.0C-18.0 -119.0 -60.0 -237.0 -118.0 -310.0C-87.0 -327.0 -29.0 -366.0 -4.0 -388.0C56.0 -303.0 108.0 -164.0 134.0 -27.0ZM-79.0 -434.0 -78.0 -565.0 356.0 -566.0V-434.0Z"/></g>
<g fill="red" transform="translate(300 600) scale(0.1 -0.1)"><path d="M0.0 0.0C-39.0 -122.0 -102.0 -241.0 -177.0 -320.0C-170.0 -324.0 -156.0 -333.0 -150.0 -337.0C-78.0 -256.0 -13.0 -134.0 29.0 -7.0ZM-173.0 -498.0V-527.0H499.0V-498.0Z"/></g>
<g fill="black" opacity=".8" transform="translate(300 600) scale(0.1 -0.1)"><path d="M0.0 0.0C-38.0 -120.0 -99.0 -240.0 -175.0 -322.0C-167.0 -325.0 -154.0 -335.0 -148.0 -340.0C-73.0 -255.0 -10.0 -131.0 31.0 -7.0ZM-181.0 -493.0 -180.0 -524.0 497.0 -522.0V-492.0Z"/></g>
<g fill="red" transform="translate(400 600) scale(0.1 -0.1)"><path d="M0.0 0.0C-32.0 -108.0 -91.0 -222.0 -155.0 -292.0C-121.0 -310.0 -59.0 -349.0 -31.0 -372.0C32.0 -291.0 100.0 -160.0 141.0 -36.0ZM-133.0 -465.0V-596.0H556.0V-465.0Z"/></g>
<g fill="black" opacity=".8" transform="translate(400 600) scale(0.1 -0.1)"><path d="M0.0 0.0C-29.0 -109.0 -87.0 -219.0 -160.0 -289.0C-126.0 -307.0 -65.0 -347.0 -37.0 -372.0C38.0 -289.0 106.0 -161.0 146.0 -31.0ZM-126.0 -469.0 -125.0 -599.0 558.0 -600.0V-469.0Z"/></g>
<g fill="red" transform="translate(500 600) scale(0.1 -0.1)"><path d="M0.0 0.0C-25.0 -122.0 -62.0 -245.0 -116.0 -328.0C-108.0 -331.0 -93.0 -337.0 -87.0 -341.0C-37.0 -258.0 3.0 -133.0 30.0 -6.0ZM-110.0 -446.0V-475.0H279.0V-446.0Z"/></g>
<g fill="black" opacity=".8" transform="translate(500 600) scale(0.1 -0.1)"><path d="M0.0 0.0C-24.0 -127.0 -61.0 -246.0 -114.0 -327.0C-106.0 -330.0 -93.0 -338.0 -87.0 -342.0C-37.0 -260.0 3.0 -136.0 28.0 -6.0ZM-111.0 -441.0 -110.0 -474.0 275.0 -473.0 276.0 -440.0Z"/></g>
<g fill="red" transform="translate(600 600) scale(0.1 -0.1)"><path d="M0.0 0.0C-17.0 -121.0 -52.0 -243.0 -104.0 -318.0C-75.0 -333.0 -21.0 -367.0 3.0 -387.0C57.0 -300.0 100.0 -162.0 123.0 -23.0ZM-64.0 -424.0V-559.0H323.0V-424.0Z"/></g>
<g fill="black" opacity=".8" transform="translate(600 600) scale(0.1 -0.1)"><path d="M0.0 0.0C-16.0 -121.0 -53.0 -240.0 -106.0 -313.0C-76.0 -329.0 -21.0 -367.0 2.0 -388.0C58.0 -303.0 105.0 -163.0 127.0 -25.0ZM-65.0 -430.0 -63.0 -558.0 326.0 -559.0 327.0 -429.0Z"/></g>
<g fill="red" transform="translate(700 600) scale(0.1 -0.1)"><path d="M0.0 0.0C-45.0 -134.0 -119.0 -263.0 -205.0 -349.0C-196.0 -354.0 -183.0 -364.0 -178.0 -369.0C-93.0 -280.0 -18.0 -149.0 31.0 -8.0ZM-89.0 -363.0V-393.0H312.0V-363.0Z"/></g>
<g fill="black" opacity=".8" transform="translate(700 600) scale(0.1 -0.1)"><path d="M0.0 0.0C-47.0 -135.0 -119.0 -264.0 -204.0 -350.0C-196.0 -353.0 -182.0 -364.0 -176.0 -370.0C-93.0 -281.0 -17.0 -148.0 31.0 -8.0ZM-91.0 -362.0 -89.0 -393.0 310.0 -392.0 311.0 -361.0Z"/></g>
<g fill="red" transform="translate(800 600) scale(0.1 -0.1)"><path d="M0.0 0.0C-40.0 -126.0 -113.0 -253.0 -197.0 -329.0C-162.0 -350.0 -100.0 -397.0 -72.0 -424.0C13.0 -333.0 98.0 -185.0 149.0 -38.0ZM-48.0 -369.0V-503.0H299.0V-369.0Z"/></g>
<g fill="black" opacity=".8" transform="translate(800 600) scale(0.1 -0.1)"><path d="M0.0 0.0C-39.0 -125.0 -115.0 -250.0 -199.0 -328.0C-163.0 -349.0 -100.0 -397.0 -71.0 -424.0C13.0 -333.0 101.0 -185.0 152.0 -40.0ZM-46.0 -370.0 -47.0 -502.0 301.0 -503.0V-370.0Z"/></g>
<g fill="red" transform="translate(900 600) scale(0.1 -0.1)"><path d="M0.0 0.0C-34.0 -111.0 -87.0 -218.0 -152.0 -292.0C-144.0 -296.0 -131.0 -306.0 -127.0 -310.0C-65.0 -235.0 -9.0 -122.0 28.0 -7.0ZM-344.0 -85.0V-711.0H-316.0V-85.0Z"/></g>
<g fill="black" opacity=".8" transform="translate(900 600) scale(0.1 -0.1)"><path d="M0.0 0.0C-34.0 -111.0 -86.0 -220.0 -150.0 -295.0C-143.0 -297.0 -130.0 -306.0 -126.0 -310.0C-64.0 -234.0 -9.0 -122.0 27.0 -7.0ZM-345.0 -102.0 -343.0 -682.0 -321.0 -680.0V-100.0Z"/></g>
<g fill="red" transform="translate(1000 600) scale(0.1 -0.1)"><path d="M0.0 0.0C-31.0 -101.0 -86.0 -209.0 -144.0 -275.0C-112.0 -294.0 -57.0 -334.0 -32.0 -358.0C26.0 -280.0 91.0 -153.0 131.0 -36.0ZM-340.0 -137.0V-673.0H-261.0V-137.0Z"/></g>
<g fill="black" opacity=".8" transform="translate(1000 600) scale(0.1 -0.1)"><path d="M0.0 0.0C-26.0 -105.0 -80.0 -208.0 -142.0 -273.0C-113.0 -291.0 -63.0 -331.0 -40.0 -353.0C25.0 -276.0 88.0 -152.0 124.0 -30.0ZM-340.0 -117.0V-706.0H-255.0V-116.0Z"/></g>
<g fill="red" transform="translate(1100 600) scale(0.1 -0.1)"><path d="M0.0 0.0C-33.0 -118.0 -87.0 -232.0 -156.0 -308.0C-147.0 -312.0 -134.0 -320.0 -129.0 -325.0C-65.0 -245.0 -8.0 -130.0 29.0 -6.0ZM-50.0 -290.0V-320.0H330.0V-290.0Z"/></g>
<g fill="black" opacity=".8" transform="translate(1100 600) scale(0.1 -0.1)"><path d="M0.0 0.0C-34.0 -117.0 -86.0 -232.0 -156.0 -309.0C-148.0 -311.0 -137.0 -320.0 -131.0 -325.0C-64.0 -244.0 -8.0 -128.0 27.0 -6.0ZM-58.0 -286.0 -57.0 -319.0 340.0 -317.0 341.0 -284.0Z"/></g>
<g fill="red" transform="translate(1200 600) scale(0.1 -0.1)"><path d="M0.0 0.0C-35.0 -89.0 -103.0 -177.0 -179.0 -230.0C-146.0 -247.0 -89.0 -286.0 -62.0 -309.0C12.0 -246.0 89.0 -143.0 134.0 -35.0ZM-48.0 -263.0V-384.0H313.0V-263.0Z"/></g>
<g fill="black" opacity=".8" transform="translate(1200 600) scale(0.1 -0.1)"><path d="M0.0 0.0C-32.0 -86.0 -94.0 -171.0 -166.0 -226.0C-137.0 -246.0 -89.0 -292.0 -67.0 -317.0C11.0 -249.0 84.0 -141.0 128.0 -34.0ZM-43.0 -265.0 -44.0 -386.0 305.0 -388.0 304.0 -266.0Z"/></g>
<g fill="red" transform="translate(1300 600) scale(0.1 -0.1)"><path d="M0.0 0.0C-27.0 -75.0 -79.0 -176.0 -152.0 -251.0C-144.0 -254.0 -135.0 -262.0 -129.0 -268.0C-52.0 -188.0 -1.0 -86.0 31.0 -3.0ZM-168.0 -390.0V-419.0H525.0V-390.0Z"/></g>
<g fill="black" opacity=".8" transform="translate(1300 600) scale(0.1 -0.1)"><path d="M0.0 0.0C-32.0 -90.0 -82.0 -186.0 -149.0 -251.0C-142.0 -252.0 -133.0 -260.0 -128.0 -265.0C-62.0 -195.0 -9.0 -99.0 25.0 -5.0ZM-159.0 -388.0 -158.0 -413.0 520.0 -411.0 521.0 -387.0Z"/></g>
<g fill="red" transform="translate(1400 600) scale(0.1 -0.1)"><path d="M0.0 0.0C-24.0 -61.0 -68.0 -131.0 -136.0 -185.0C-106.0 -201.0 -62.0 -238.0 -40.0 -265.0C38.0 -194.0 88.0 -111.0 126.0 -21.0ZM-106.0 -348.0V-446.0H565.0V-348.0Z"/></g>
<g fill="black" opacity=".8" transform="translate(1400 600) scale(0.1 -0.1)"><path d="M0.0 0.0C-24.0 -69.0 -72.0 -139.0 -133.0 -186.0C-105.0 -200.0 -59.0 -232.0 -37.0 -254.0C28.0 -195.0 83.0 -112.0 117.0 -24.0ZM-118.0 -350.0 -117.0 -451.0 571.0 -452.0 570.0 -350.0Z"/></g>
<g fill="red" transform="translate(1500 600) scale(0.1 -0.1)"><path d="M0.0 0.0C-41.0 -145.0 -109.0 -284.0 -191.0 -377.0C-183.0 -381.0 -170.0 -391.0 -165.0 -396.0C-84.0 -300.0 -16.0 -158.0 29.0 -7.0ZM-91.0 -360.0V-390.0H266.0V-360.0Z"/></g>
<g fill="black" opacity=".8" transform="translate(1500 600) scale(0.1 -0.1)"><path d="M0.0 0.0C-44.0 -146.0 -111.0 -284.0 -193.0 -376.0C-184.0 -379.0 -170.0 -390.0 -164.0 -395.0C-85.0 -300.0 -14.0 -159.0 31.0 -8.0ZM-86.0 -367.0 -84.0 -388.0 258.0 -386.0 259.0 -366.0Z"/></g>
<g fill="red" transform="translate(1600 600) scale(0.1 -0.1)"><path d="M0.0 0.0C-36.0 -133.0 -102.0 -266.0 -182.0 -346.0C-149.0 -365.0 -89.0 -408.0 -63.0 -431.0C17.0 -337.0 94.0 -185.0 140.0 -33.0ZM-33.0 -373.0V-496.0H242.0V-373.0Z"/></g>
<g fill="black" opacity=".8" transform="translate(1600 600) scale(0.1 -0.1)"><path d="M0.0 0.0C-35.0 -130.0 -105.0 -259.0 -185.0 -337.0C-150.0 -360.0 -88.0 -410.0 -61.0 -437.0C22.0 -343.0 104.0 -189.0 151.0 -38.0ZM-37.0 -368.0V-496.0L249.0 -497.0L248.0 -368.0Z"/></g>
<g fill="red" transform="translate(100 700) scale(0.1 -0.1)"><path d="M0.0 0.0C-38.0 -140.0 -96.0 -277.0 -170.0 -369.0C-162.0 -373.0 -149.0 -382.0 -144.0 -387.0C-73.0 -292.0 -12.0 -152.0 29.0 -6.0ZM-86.0 -357.0V-387.0H259.0V-357.0Z"/></g>
<g fill="black" opacity=".8" transform="translate(100 700) scale(0.1 -0.1)"><path d="M0.0 0.0C-38.0 -142.0 -96.0 -277.0 -170.0 -367.0C-162.0 -370.0 -149.0 -381.0 -143.0 -386.0C-72.0 -292.0 -9.0 -154.0 30.0 -7.0ZM-87.0 -368.0 -86.0 -393.0 259.0 -391.0 260.0 -367.0Z"/></g>
<g fill="red" transform="translate(200 700) scale(0.1 -0.1)"><path d="M0.0 0.0C-34.0 -115.0 -97.0 -230.0 -171.0 -300.0C-142.0 -328.0 -94.0 -389.0 -75.0 -418.0C11.0 -327.0 91.0 -180.0 138.0 -36.0ZM-53.0 -367.0V-490.0H246.0V-367.0Z"/></g>
<g fill="black" opacity=".8" transform="translate(200 700) scale(0.1 -0.1)"><path d="M0.0 0.0C-34.0 -118.0 -101.0 -235.0 -177.0 -308.0C-146.0 -332.0 -93.0 -386.0 -70.0 -413.0C13.0 -324.0 94.0 -178.0 140.0 -38.0ZM-50.0 -356.0 -52.0 -483.0 245.0 -485.0V-357.0Z"/></g>
<g fill="red" transform="translate(300 700) scale(0.1 -0.1)"><path d="M0.0 0.0C-32.0 -132.0 -86.0 -258.0 -155.0 -340.0C-147.0 -345.0 -136.0 -356.0 -130.0 -360.0C-65.0 -273.0 -8.0 -145.0 28.0 -7.0ZM-160.0 -534.0 -150.0 -558.0 331.0 -348.0 323.0 -323.0Z"/></g>
<g fill="black" opacity=".8" transform="translate(300 700) scale(0.1 -0.1)"><path d="M0.0 0.0C-33.0 -133.0 -87.0 -259.0 -155.0 -341.0C-148.0 -345.0 -136.0 -356.0 -131.0 -360.0C-64.0 -274.0 -7.0 -145.0 28.0 -7.0ZM-161.0 -535.0 -150.0 -561.0 334.0 -348.0 324.0 -321.0Z"/></g>
<g fill="red" transform="translate(400 700) scale(0.1 -0.1)"><path d="M0.0 0.0C-28.0 -121.0 -82.0 -241.0 -150.0 -313.0C-120.0 -334.0 -69.0 -383.0 -47.0 -409.0C25.0 -321.0 91.0 -178.0 128.0 -33.0ZM-117.0 -497.0 -81.0 -621.0 399.0 -426.0 363.0 -304.0Z"/></g>
<g fill="black" opacity=".8" transform="translate(400 700) scale(0.1 -0.1)"><path d="M0.0 0.0C-27.0 -121.0 -82.0 -240.0 -148.0 -315.0C-119.0 -335.0 -68.0 -384.0 -47.0 -409.0C24.0 -320.0 91.0 -175.0 127.0 -32.0ZM-118.0 -496.0 -80.0 -617.0 398.0 -426.0 360.0 -305.0Z"/></g>
<g fill="red" transform="translate(500 700) scale(0.1 -0.1)"><path d="M0.0 0.0C-31.0 -127.0 -83.0 -247.0 -153.0 -328.0C-145.0 -332.0 -131.0 -339.0 -125.0 -343.0C-59.0 -261.0 -5.0 -138.0 29.0 -6.0ZM-39.0 -169.0 -54.0 -199.0H380.0V-169.0Z"/></g>
<g fill="black" opacity=".8" transform="translate(500 700) scale(0.1 -0.1)"><path d="M0.0 0.0C-32.0 -127.0 -82.0 -248.0 -152.0 -328.0C-144.0 -331.0 -132.0 -340.0 -128.0 -346.0C-60.0 -261.0 -6.0 -138.0 27.0 -6.0ZM-49.0 -163.0 -50.0 -200.0 387.0 -202.0V-166.0Z"/></g>
<g fill="red" transform="translate(600 700) scale(0.1 -0.1)"><path d="M0.0 0.0C-29.0 -123.0 -86.0 -243.0 -158.0 -317.0C-129.0 -341.0 -79.0 -394.0 -58.0 -420.0C23.0 -328.0 93.0 -180.0 134.0 -31.0ZM25.0 -142.0 -39.0 -273.0H438.0V-142.0Z"/></g>
<g fill="black" opacity=".8" transform="translate(600 700) scale(0.1 -0.1)"><path d="M0.0 0.0C-27.0 -123.0 -81.0 -244.0 -151.0 -320.0C-125.0 -343.0 -79.0 -396.0 -61.0 -421.0C20.0 -327.0 87.0 -176.0 126.0 -29.0ZM-1.0 -144.0 -12.0 -269.0 433.0 -273.0 434.0 -146.0Z"/></g>
<g fill="red" transform="translate(700 700) scale(0.1 -0.1)"><path d="M0.0 0.0C-36.0 -140.0 -95.0 -277.0 -167.0 -369.0C-160.0 -373.0 -147.0 -383.0 -141.0 -388.0C-71.0 -292.0 -11.0 -153.0 29.0 -6.0ZM-90.0 -357.0V-387.0H250.0V-357.0Z"/></g>
<g fill="black" opacity=".8" transform="translate(700 700) scale(0.1 -0.1)"><path d="M0.0 0.0C-38.0 -141.0 -97.0 -276.0 -171.0 -366.0C-164.0 -369.0 -151.0 -379.0 -145.0 -384.0C-73.0 -291.0 -11.0 -153.0 29.0 -7.0ZM-86.0 -369.0 -84.0 -393.0H255.0L256.0 -368.0Z"/></g>
<g fill="red" transform="translate(800 700) scale(0.1 -0.1)"><path d="M0.0 0.0C-30.0 -114.0 -87.0 -230.0 -156.0 -300.0C-124.0 -320.0 -65.0 -362.0 -39.0 -386.0C32.0 -302.0 100.0 -167.0 140.0 -33.0ZM-28.0 -367.0V-490.0H265.0V-367.0Z"/></g>
<g fill="black" opacity=".8" transform="translate(800 700) scale(0.1 -0.1)"><path d="M0.0 0.0C-27.0 -117.0 -82.0 -230.0 -151.0 -300.0C-119.0 -321.0 -62.0 -366.0 -38.0 -391.0C35.0 -306.0 102.0 -169.0 138.0 -32.0ZM-33.0 -356.0V-481.0L260.0 -484.0L259.0 -357.0Z"/></g>
<g fill="red" transform="translate(900 700) scale(0.1 -0.1)"><path d="M0.0 0.0C-33.0 -135.0 -87.0 -262.0 -160.0 -349.0C-151.0 -353.0 -139.0 -361.0 -133.0 -365.0C-62.0 -277.0 -6.0 -147.0 29.0 -6.0ZM-144.0 -455.0V-485.0H386.0V-455.0Z"/></g>
<g fill="black" opacity=".8" transform="translate(900 700) scale(0.1 -0.1)"><path d="M0.0 0.0C-35.0 -133.0 -89.0 -261.0 -160.0 -348.0C-152.0 -351.0 -138.0 -360.0 -132.0 -366.0C-62.0 -277.0 -5.0 -145.0 32.0 -7.0ZM-147.0 -458.0 -146.0 -490.0 388.0 -489.0 389.0 -458.0Z"/></g>
<g fill="red" transform="translate(1000 700) scale(0.1 -0.1)"><path d="M0.0 0.0C-25.0 -129.0 -76.0 -260.0 -144.0 -338.0C-109.0 -356.0 -45.0 -396.0 -16.0 -419.0C52.0 -327.0 112.0 -178.0 146.0 -29.0ZM-92.0 -452.0V-590.0H449.0V-452.0Z"/></g>
<g fill="black" opacity=".8" transform="translate(1000 700) scale(0.1 -0.1)"><path d="M0.0 0.0C-24.0 -130.0 -76.0 -259.0 -145.0 -339.0C-109.0 -356.0 -44.0 -397.0 -15.0 -421.0C54.0 -328.0 116.0 -179.0 149.0 -30.0ZM-89.0 -448.0V-584.0L446.0 -585.0L447.0 -448.0Z"/></g>
<g fill="red" transform="translate(1100 700) scale(0.1 -0.1)"><path d="M0.0 0.0C-35.0 -111.0 -89.0 -218.0 -155.0 -292.0C-147.0 -296.0 -134.0 -306.0 -129.0 -310.0C-66.0 -235.0 -9.0 -122.0 29.0 -7.0ZM-153.0 -488.0V-517.0H413.0V-488.0Z"/></g>
<g fill="black" opacity=".8" transform="translate(1100 700) scale(0.1 -0.1)"><path d="M0.0 0.0C-35.0 -110.0 -89.0 -219.0 -154.0 -294.0C-147.0 -297.0 -134.0 -305.0 -129.0 -311.0C-65.0 -234.0 -8.0 -120.0 28.0 -7.0ZM-159.0 -487.0 -157.0 -515.0 417.0 -514.0V-487.0Z"/></g>
<g fill="red" transform="translate(1200 700) scale(0.1 -0.1)"><path d="M0.0 0.0C-35.0 -104.0 -98.0 -215.0 -163.0 -283.0C-131.0 -302.0 -75.0 -343.0 -50.0 -366.0C15.0 -287.0 88.0 -158.0 133.0 -37.0ZM-120.0 -475.0V-588.0H469.0V-475.0Z"/></g>
<g fill="black" opacity=".8" transform="translate(1200 700) scale(0.1 -0.1)"><path d="M0.0 0.0C-31.0 -106.0 -91.0 -213.0 -160.0 -282.0C-130.0 -301.0 -78.0 -344.0 -55.0 -368.0C18.0 -286.0 89.0 -157.0 131.0 -33.0ZM-116.0 -474.0V-591.0L466.0 -592.0V-474.0Z"/></g>
<g fill="red" transform="translate(1300 700) scale(0.1 -0.1)"><path d="M0.0 0.0C-41.0 -137.0 -107.0 -266.0 -190.0 -353.0C-181.0 -357.0 -168.0 -367.0 -163.0 -371.0C-83.0 -282.0 -13.0 -150.0 30.0 -7.0ZM-85.0 -366.0V-396.0H306.0V-366.0Z"/></g>
<g fill="black" opacity=".8" transform="translate(1300 700) scale(0.1 -0.1)"><path d="M0.0 0.0C-43.0 -136.0 -108.0 -267.0 -189.0 -355.0C-181.0 -358.0 -168.0 -369.0 -162.0 -374.0C-84.0 -283.0 -14.0 -149.0 30.0 -7.0ZM-84.0 -362.0 -83.0 -394.0 305.0 -392.0V-361.0Z"/></g>
<g fill="red" transform="translate(1400 700) scale(0.1 -0.1)"><path d="M0.0 0.0C-35.0 -118.0 -103.0 -234.0 -183.0 -304.0C-149.0 -326.0 -90.0 -375.0 -65.0 -401.0C19.0 -316.0 98.0 -177.0 145.0 -36.0ZM-38.0 -352.0V-486.0H296.0V-352.0Z"/></g>
<g fill="black" opacity=".8" transform="translate(1400 700) scale(0.1 -0.1)"><path d="M0.0 0.0C-35.0 -116.0 -103.0 -232.0 -181.0 -304.0C-148.0 -326.0 -90.0 -375.0 -65.0 -401.0C17.0 -314.0 97.0 -174.0 144.0 -37.0ZM-40.0 -356.0 -41.0 -487.0 298.0 -488.0V-356.0Z"/></g>
<g fill="red" transform="translate(1500 700) scale(0.1 -0.1)"><path d="M0.0 0.0C-29.0 -137.0 -78.0 -266.0 -147.0 -353.0C-139.0 -357.0 -126.0 -363.0 -120.0 -367.0C-53.0 -279.0 -2.0 -148.0 29.0 -5.0ZM-152.0 -486.0V-515.0H440.0V-486.0Z"/></g>
<g fill="black" opacity=".8" transform="translate(1500 700) scale(0.1 -0.1)"><path d="M0.0 0.0C-31.0 -135.0 -79.0 -265.0 -146.0 -353.0C-138.0 -356.0 -123.0 -365.0 -117.0 -370.0C-51.0 -280.0 0.0 -146.0 33.0 -6.0ZM-159.0 -483.0 -158.0 -514.0 439.0 -513.0 440.0 -482.0Z"/></g>
<g fill="red" transform="translate(1600 700) scale(0.1 -0.1)"><path d="M0.0 0.0C-17.0 -137.0 -56.0 -272.0 -121.0 -350.0C-85.0 -364.0 -16.0 -396.0 14.0 -416.0C75.0 -324.0 122.0 -177.0 144.0 -21.0ZM-100.0 -463.0V-603.0H522.0V-463.0Z"/></g>
<g fill="black" opacity=".8" transform="translate(1600 700) scale(0.1 -0.1)"><path d="M0.0 0.0C-17.0 -133.0 -58.0 -265.0 -122.0 -345.0C-85.0 -361.0 -17.0 -398.0 13.0 -420.0C77.0 -326.0 126.0 -178.0 151.0 -25.0ZM-95.0 -465.0 -93.0 -604.0H522.0L523.0 -464.0Z"/></g>
<g fill="red" transform="translate(100 800) scale(0.1 -0.1)"><path d="M0.0 0.0C-30.0 -113.0 -80.0 -222.0 -142.0 -296.0C-134.0 -300.0 -122.0 -309.0 -117.0 -313.0C-56.0 -237.0 -3.0 -124.0 29.0 -6.0ZM-154.0 -506.0V-536.0H442.0V-506.0Z"/></g>
<g fill="black" opacity=".8" transform="translate(100 800) scale(0.1 -0.1)"><path d="M0.0 0.0C-31.0 -112.0 -79.0 -224.0 -141.0 -300.0C-134.0 -303.0 -123.0 -311.0 -117.0 -316.0C-56.0 -237.0 -5.0 -122.0 28.0 -6.0ZM-156.0 -498.0 -155.0 -531.0 446.0 -530.0V-497.0Z"/></g>
<g fill="red" transform="translate(200 800) scale(0.1 -0.1)"><path d="M0.0 0.0C-28.0 -103.0 -82.0 -205.0 -149.0 -267.0C-119.0 -288.0 -65.0 -334.0 -42.0 -358.0C30.0 -281.0 96.0 -157.0 134.0 -32.0ZM-107.0 -466.0V-587.0H515.0V-466.0Z"/></g>
<g fill="black" opacity=".8" transform="translate(200 800) scale(0.1 -0.1)"><path d="M0.0 0.0C-26.0 -102.0 -78.0 -204.0 -141.0 -270.0C-113.0 -289.0 -66.0 -334.0 -45.0 -358.0C25.0 -277.0 88.0 -151.0 125.0 -29.0ZM-109.0 -472.0V-593.0H513.0V-472.0Z"/></g>
<g fill="red" transform="translate(300 800) scale(0.1 -0.1)"><path d="M0.0 0.0C-42.0 -119.0 -109.0 -235.0 -189.0 -311.0C-180.0 -316.0 -167.0 -325.0 -161.0 -329.0C-86.0 -250.0 -16.0 -132.0 30.0 -7.0ZM-60.0 -304.0V-333.0H325.0V-304.0Z"/></g>
<g fill="black" opacity=".8" transform="translate(300 800) scale(0.1 -0.1)"><path d="M0.0 0.0C-42.0 -121.0 -108.0 -236.0 -186.0 -314.0C-179.0 -317.0 -166.0 -327.0 -161.0 -332.0C-85.0 -251.0 -16.0 -133.0 28.0 -7.0ZM-60.0 -298.0 -59.0 -328.0 322.0 -326.0 323.0 -296.0Z"/></g>
<g fill="red" transform="translate(400 800) scale(0.1 -0.1)"><path d="M0.0 0.0C-36.0 -111.0 -103.0 -221.0 -181.0 -288.0C-148.0 -308.0 -91.0 -352.0 -66.0 -376.0C13.0 -296.0 92.0 -166.0 138.0 -35.0ZM-20.0 -294.0V-415.0H309.0V-294.0Z"/></g>
<g fill="black" opacity=".8" transform="translate(400 800) scale(0.1 -0.1)"><path d="M0.0 0.0C-35.0 -109.0 -104.0 -219.0 -179.0 -287.0C-148.0 -307.0 -92.0 -350.0 -67.0 -375.0C11.0 -294.0 90.0 -164.0 136.0 -36.0ZM-21.0 -300.0 -22.0 -420.0 313.0 -421.0V-300.0Z"/></g>
<g fill="red" transform="translate(500 800) scale(0.1 -0.1)"><path d="M0.0 0.0C-39.0 -125.0 -102.0 -247.0 -178.0 -328.0C-169.0 -332.0 -156.0 -341.0 -150.0 -346.0C-78.0 -262.0 -13.0 -137.0 30.0 -7.0ZM-176.0 -426.0V-456.0H473.0V-426.0Z"/></g>
<g fill="black" opacity=".8" transform="translate(500 800) scale(0.1 -0.1)"><path d="M0.0 0.0C-38.0 -124.0 -98.0 -248.0 -177.0 -331.0C-169.0 -334.0 -156.0 -343.0 -150.0 -349.0C-72.0 -261.0 -9.0 -136.0 31.0 -6.0ZM-176.0 -423.0 -174.0 -453.0 466.0 -451.0 467.0 -422.0Z"/></g>
<g fill="red" transform="translate(600 800) scale(0.1 -0.1)"><path d="M0.0 0.0C-25.0 -107.0 -75.0 -212.0 -142.0 -276.0C-108.0 -294.0 -46.0 -334.0 -19.0 -358.0C49.0 -282.0 110.0 -158.0 144.0 -30.0ZM-116.0 -392.0V-523.0H510.0V-392.0Z"/></g>
<g fill="black" opacity=".8" transform="translate(600 800) scale(0.1 -0.1)"><path d="M0.0 0.0C-25.0 -106.0 -78.0 -212.0 -149.0 -278.0C-113.0 -294.0 -49.0 -331.0 -20.0 -354.0C52.0 -275.0 112.0 -155.0 147.0 -28.0ZM-118.0 -395.0 -116.0 -525.0 517.0 -526.0 516.0 -395.0Z"/></g>
<g fill="red" transform="translate(700 800) scale(0.1 -0.1)"><path d="M0.0 0.0C-37.0 -115.0 -98.0 -226.0 -172.0 -300.0C-164.0 -305.0 -151.0 -314.0 -145.0 -318.0C-75.0 -242.0 -11.0 -128.0 29.0 -7.0ZM-166.0 -447.0 -158.0 -473.0 385.0 -333.0 378.0 -307.0Z"/></g>
<g fill="black" opacity=".8" transform="translate(700 800) scale(0.1 -0.1)"><path d="M0.0 0.0C-37.0 -113.0 -96.0 -225.0 -172.0 -300.0C-165.0 -303.0 -153.0 -313.0 -148.0 -318.0C-74.0 -238.0 -11.0 -125.0 28.0 -7.0ZM-169.0 -448.0 -161.0 -474.0 389.0 -336.0 383.0 -310.0Z"/></g>
<g fill="red" transform="translate(800 800) scale(0.1 -0.1)"><path d="M0.0 0.0C-42.0 -80.0 -113.0 -167.0 -181.0 -221.0C-148.0 -238.0 -92.0 -275.0 -64.0 -298.0C0.0 -236.0 79.0 -134.0 131.0 -42.0ZM-157.0 -408.0 -129.0 -525.0 386.0 -406.0 358.0 -293.0Z"/></g>
<g fill="black" opacity=".8" transform="translate(800 800) scale(0.1 -0.1)"><path d="M0.0 0.0C-35.0 -82.0 -103.0 -164.0 -178.0 -217.0C-147.0 -236.0 -95.0 -278.0 -70.0 -304.0C8.0 -238.0 85.0 -139.0 133.0 -36.0ZM-154.0 -408.0 -126.0 -524.0 381.0 -403.0 355.0 -288.0Z"/></g>
<g fill="red" transform="translate(900 800) scale(0.1 -0.1)"><path d="M0.0 0.0C-40.0 -137.0 -107.0 -266.0 -189.0 -353.0C-180.0 -357.0 -168.0 -367.0 -163.0 -371.0C-82.0 -282.0 -14.0 -150.0 29.0 -7.0ZM-84.0 -366.0V-396.0H305.0V-366.0Z"/></g>
<g fill="black" opacity=".8" transform="translate(900 800) scale(0.1 -0.1)"><path d="M0.0 0.0C-42.0 -136.0 -107.0 -267.0 -187.0 -355.0C-179.0 -358.0 -166.0 -369.0 -160.0 -374.0C-82.0 -283.0 -13.0 -149.0 30.0 -7.0ZM-86.0 -362.0 -84.0 -393.0 303.0 -391.0V-360.0Z"/></g>
<g fill="red" transform="translate(1000 800) scale(0.1 -0.1)"><path d="M0.0 0.0C-35.0 -118.0 -103.0 -234.0 -183.0 -304.0C-149.0 -326.0 -90.0 -375.0 -65.0 -401.0C19.0 -316.0 98.0 -177.0 145.0 -36.0ZM-46.0 -352.0V-486.0H288.0V-352.0Z"/></g>
<g fill="black" opacity=".8" transform="translate(1000 800) scale(0.1 -0.1)"><path d="M0.0 0.0C-35.0 -116.0 -105.0 -231.0 -183.0 -303.0C-149.0 -325.0 -91.0 -374.0 -65.0 -401.0C17.0 -314.0 98.0 -175.0 146.0 -38.0ZM-45.0 -356.0 -46.0 -488.0 291.0 -489.0 290.0 -356.0Z"/></g>
<g fill="red" transform="translate(1100 800) scale(0.1 -0.1)"><path d="M0.0 0.0C-32.0 -132.0 -88.0 -258.0 -158.0 -340.0C-150.0 -345.0 -137.0 -356.0 -133.0 -360.0C-64.0 -274.0 -7.0 -146.0 29.0 -7.0ZM-162.0 -534.0 -153.0 -558.0 339.0 -348.0 331.0 -323.0Z"/></g>
<g fill="black" opacity=".8" transform="translate(1100 800) scale(0.1 -0.1)"><path d="M0.0 0.0C-34.0 -133.0 -88.0 -259.0 -157.0 -341.0C-150.0 -345.0 -137.0 -356.0 -132.0 -361.0C-65.0 -274.0 -7.0 -146.0 28.0 -7.0ZM-162.0 -535.0 -151.0 -560.0 339.0 -347.0 330.0 -321.0Z"/></g>
<g fill="red" transform="translate(1200 800) scale(0.1 -0.1)"><path d="M0.0 0.0C-28.0 -121.0 -82.0 -241.0 -150.0 -313.0C-120.0 -334.0 -69.0 -383.0 -47.0 -409.0C25.0 -321.0 91.0 -178.0 128.0 -33.0ZM-117.0 -497.0 -81.0 -621.0 399.0 -426.0 363.0 -304.0Z"/></g>
<g fill="black" opacity=".8" transform="translate(1200 800) scale(0.1 -0.1)"><path d="M0.0 0.0C-28.0 -121.0 -83.0 -240.0 -150.0 -315.0C-121.0 -335.0 -69.0 -383.0 -47.0 -408.0C25.0 -319.0 93.0 -175.0 129.0 -33.0ZM-119.0 -496.0 -81.0 -618.0 401.0 -427.0 363.0 -306.0Z"/></g>
<g fill="red" transform="translate(1300 800) scale(0.1 -0.1)"><path d="M0.0 0.0C-34.0 -119.0 -89.0 -237.0 -156.0 -316.0C-148.0 -320.0 -135.0 -330.0 -130.0 -335.0C-66.0 -253.0 -8.0 -131.0 29.0 -7.0ZM-80.0 -323.0V-352.0H207.0V-323.0Z"/></g>
<g fill="black" opacity=".8" transform="translate(1300 800) scale(0.1 -0.1)"><path d="M0.0 0.0C-36.0 -123.0 -90.0 -239.0 -155.0 -317.0C-148.0 -320.0 -134.0 -329.0 -130.0 -334.0C-66.0 -255.0 -8.0 -135.0 27.0 -7.0ZM-82.0 -319.0 -81.0 -355.0 209.0 -354.0 210.0 -319.0Z"/></g>
<g fill="red" transform="translate(1400 800) scale(0.1 -0.1)"><path d="M0.0 0.0C-35.0 -121.0 -98.0 -245.0 -171.0 -321.0C-141.0 -343.0 -89.0 -391.0 -66.0 -416.0C11.0 -324.0 87.0 -176.0 132.0 -34.0ZM-50.0 -325.0V-458.0H212.0V-325.0Z"/></g>
<g fill="black" opacity=".8" transform="translate(1400 800) scale(0.1 -0.1)"><path d="M0.0 0.0C-33.0 -123.0 -98.0 -245.0 -169.0 -321.0C-140.0 -342.0 -88.0 -391.0 -65.0 -414.0C9.0 -325.0 86.0 -177.0 130.0 -36.0ZM-48.0 -329.0 -51.0 -454.0 211.0 -455.0V-329.0Z"/></g>
<g fill="red" transform="translate(1500 800) scale(0.1 -0.1)"><path d="M0.0 0.0C-37.0 -137.0 -99.0 -266.0 -175.0 -353.0C-167.0 -357.0 -155.0 -367.0 -150.0 -371.0C-77.0 -282.0 -13.0 -150.0 26.0 -7.0ZM-79.0 -366.0V-396.0H280.0V-366.0Z"/></g>
<g fill="black" opacity=".8" transform="translate(1500 800) scale(0.1 -0.1)"><path d="M0.0 0.0C-40.0 -136.0 -100.0 -267.0 -176.0 -354.0C-168.0 -357.0 -155.0 -368.0 -149.0 -373.0C-76.0 -282.0 -11.0 -148.0 29.0 -7.0ZM-84.0 -363.0 -82.0 -396.0 285.0 -395.0V-362.0Z"/></g>
<g fill="red" transform="translate(1600 800) scale(0.1 -0.1)"><path d="M0.0 0.0C-34.0 -118.0 -101.0 -234.0 -181.0 -304.0C-147.0 -326.0 -89.0 -375.0 -64.0 -401.0C19.0 -316.0 97.0 -177.0 144.0 -36.0ZM-46.0 -352.0V-486.0H284.0V-352.0Z"/></g>
<g fill="black" opacity=".8" transform="translate(1600 800) scale(0.1 -0.1)"><path d="M0.0 0.0C-34.0 -117.0 -100.0 -232.0 -174.0 -304.0C-143.0 -326.0 -89.0 -377.0 -65.0 -403.0C16.0 -316.0 94.0 -174.0 140.0 -36.0ZM-43.0 -354.0 -44.0 -486.0 281.0 -487.0 280.0 -355.0Z"/></g>
<g fill="red" transform="translate(100 900) scale(0.1 -0.1)"><path d="M0.0 0.0C-29.0 -146.0 -77.0 -285.0 -150.0 -377.0C-141.0 -381.0 -127.0 -388.0 -121.0 -392.0C-53.0 -298.0 -2.0 -158.0 31.0 -5.0ZM-144.0 -486.0V-515.0H417.0V-486.0Z"/></g>
<g fill="black" opacity=".8" transform="translate(100 900) scale(0.1 -0.1)"><path d="M0.0 0.0C-32.0 -144.0 -81.0 -282.0 -151.0 -376.0C-143.0 -379.0 -129.0 -388.0 -122.0 -393.0C-54.0 -297.0 -1.0 -155.0 33.0 -6.0ZM-143.0 -488.0 -142.0 -516.0 417.0 -515.0 418.0 -487.0Z"/></g>
<g fill="red" transform="translate(200 900) scale(0.1 -0.1)"><path d="M0.0 0.0C-19.0 -135.0 -63.0 -266.0 -132.0 -342.0C-96.0 -356.0 -28.0 -388.0 2.0 -409.0C68.0 -320.0 119.0 -177.0 145.0 -22.0ZM-76.0 -463.0V-603.0H487.0V-463.0Z"/></g>
<g fill="black" opacity=".8" transform="translate(200 900) scale(0.1 -0.1)"><path d="M0.0 0.0C-19.0 -129.0 -61.0 -256.0 -126.0 -335.0C-91.0 -353.0 -26.0 -395.0 3.0 -419.0C70.0 -326.0 123.0 -178.0 150.0 -27.0ZM-79.0 -462.0 -78.0 -600.0 486.0 -601.0V-461.0Z"/></g>
<g fill="red" transform="translate(300 900) scale(0.1 -0.1)"><path d="M0.0 0.0C-30.0 -113.0 -80.0 -222.0 -142.0 -296.0C-134.0 -300.0 -122.0 -309.0 -117.0 -313.0C-56.0 -237.0 -3.0 -124.0 29.0 -6.0ZM-154.0 -506.0V-536.0H442.0V-506.0Z"/></g>
<g fill="black" opacity=".8" transform="translate(300 900) scale(0.1 -0.1)"><path d="M0.0 0.0C-31.0 -112.0 -79.0 -224.0 -141.0 -301.0C-133.0 -303.0 -122.0 -312.0 -116.0 -317.0C-56.0 -238.0 -4.0 -122.0 28.0 -6.0ZM-152.0 -498.0 -151.0 -529.0 438.0 -527.0 439.0 -497.0Z"/></g>
<g fill="red" transform="translate(400 900) scale(0.1 -0.1)"><path d="M0.0 0.0C-28.0 -103.0 -82.0 -205.0 -149.0 -267.0C-120.0 -287.0 -68.0 -331.0 -46.0 -354.0C26.0 -278.0 91.0 -155.0 129.0 -30.0ZM-109.0 -466.0V-587.0H486.0V-466.0Z"/></g>
<g fill="black" opacity=".8" transform="translate(400 900) scale(0.1 -0.1)"><path d="M0.0 0.0C-27.0 -100.0 -82.0 -201.0 -147.0 -266.0C-118.0 -286.0 -69.0 -330.0 -48.0 -354.0C24.0 -275.0 89.0 -151.0 127.0 -31.0ZM-113.0 -474.0 -112.0 -594.0H491.0V-473.0Z"/></g>
<g fill="red" transform="translate(500 900) scale(0.1 -0.1)"><path d="M0.0 0.0C-30.0 -181.0 -81.0 -349.0 -162.0 -459.0C-154.0 -464.0 -141.0 -473.0 -136.0 -478.0C-55.0 -362.0 -3.0 -193.0 30.0 -5.0ZM284.0 -84.0 272.0 -113.0H673.0V-84.0Z"/></g>
<g fill="black" opacity=".8" transform="translate(500 900) scale(0.1 -0.1)"><path d="M0.0 0.0C-33.0 -182.0 -82.0 -351.0 -158.0 -462.0C-151.0 -465.0 -140.0 -476.0 -136.0 -481.0C-60.0 -364.0 -7.0 -194.0 27.0 -5.0ZM284.0 -80.0 277.0 -111.0 674.0 -110.0 675.0 -80.0Z"/></g>
<g fill="red" transform="translate(600 900) scale(0.1 -0.1)"><path d="M0.0 0.0C-23.0 -144.0 -64.0 -282.0 -132.0 -372.0C-113.0 -415.0 -89.0 -510.0 -85.0 -549.0C26.0 -423.0 92.0 -221.0 131.0 -30.0ZM359.0 -23.0 333.0 -155.0H751.0V-23.0Z"/></g>
<g fill="black" opacity=".8" transform="translate(600 900) scale(0.1 -0.1)"><path d="M0.0 0.0C-22.0 -150.0 -65.0 -290.0 -131.0 -381.0C-113.0 -418.0 -88.0 -505.0 -83.0 -540.0C18.0 -416.0 84.0 -216.0 119.0 -28.0ZM353.0 -26.0 330.0 -156.0 752.0 -158.0 751.0 -25.0Z"/></g>
<g fill="red" transform="translate(700 900) scale(0.1 -0.1)"><path d="M0.0 0.0C-33.0 -65.0 -94.0 -148.0 -177.0 -209.0C-169.0 -213.0 -160.0 -221.0 -154.0 -228.0C-67.0 -161.0 -6.0 -77.0 34.0 -5.0ZM-178.0 -339.0V-368.0H705.0V-339.0Z"/></g>
<g fill="black" opacity=".8" transform="translate(700 900) scale(0.1 -0.1)"><path d="M0.0 0.0C-36.0 -73.0 -96.0 -154.0 -173.0 -210.0C-165.0 -212.0 -155.0 -220.0 -150.0 -226.0C-74.0 -165.0 -11.0 -83.0 28.0 -6.0ZM-183.0 -340.0 -181.0 -368.0 707.0 -367.0V-340.0Z"/></g>
<g fill="red" transform="translate(800 900) scale(0.1 -0.1)"><path d="M0.0 0.0C-29.0 -64.0 -82.0 -134.0 -164.0 -188.0C-131.0 -205.0 -83.0 -243.0 -59.0 -270.0C34.0 -198.0 94.0 -115.0 141.0 -21.0ZM-154.0 -313.0V-414.0H765.0V-313.0Z"/></g>
<g fill="black" opacity=".8" transform="translate(800 900) scale(0.1 -0.1)"><path d="M0.0 0.0C-32.0 -70.0 -92.0 -144.0 -168.0 -195.0C-134.0 -207.0 -79.0 -235.0 -50.0 -258.0C24.0 -197.0 88.0 -116.0 133.0 -28.0ZM-150.0 -310.0 -151.0 -414.0 765.0 -416.0 764.0 -311.0Z"/></g>
<g fill="red" transform="translate(900 900) scale(0.1 -0.1)"><path d="M0.0 0.0C-29.0 -108.0 -75.0 -215.0 -133.0 -288.0C-124.0 -292.0 -111.0 -300.0 -106.0 -305.0C-49.0 -231.0 -1.0 -120.0 29.0 -5.0ZM-46.0 -170.0V-200.0H326.0V-170.0Z"/></g>
<g fill="black" opacity=".8" transform="translate(900 900) scale(0.1 -0.1)"><path d="M0.0 0.0C-29.0 -113.0 -74.0 -218.0 -133.0 -289.0C-126.0 -291.0 -115.0 -299.0 -111.0 -304.0C-53.0 -232.0 -5.0 -123.0 25.0 -6.0ZM-41.0 -166.0 -42.0 -198.0 328.0 -197.0V-166.0Z"/></g>
<g fill="red" transform="translate(1000 900) scale(0.1 -0.1)"><path d="M0.0 0.0C-28.0 -123.0 -81.0 -250.0 -144.0 -330.0C-117.0 -348.0 -68.0 -388.0 -47.0 -409.0C19.0 -317.0 81.0 -169.0 119.0 -28.0ZM9.0 -158.0V-271.0H386.0V-158.0Z"/></g>
<g fill="black" opacity=".8" transform="translate(1000 900) scale(0.1 -0.1)"><path d="M0.0 0.0C-24.0 -124.0 -73.0 -247.0 -135.0 -324.0C-111.0 -344.0 -68.0 -391.0 -51.0 -413.0C19.0 -321.0 80.0 -171.0 113.0 -27.0ZM7.0 -163.0 -3.0 -273.0H386.0V-161.0Z"/></g>
<g fill="red" transform="translate(1100 900) scale(0.1 -0.1)"><path d="M0.0 0.0C-51.0 -105.0 -134.0 -204.0 -222.0 -271.0C-214.0 -275.0 -201.0 -285.0 -197.0 -290.0C-112.0 -221.0 -26.0 -118.0 29.0 -7.0ZM-67.0 -251.0V-281.0H454.0V-251.0Z"/></g>
<g fill="black" opacity=".8" transform="translate(1100 900) scale(0.1 -0.1)"><path d="M0.0 0.0C-51.0 -104.0 -133.0 -206.0 -223.0 -274.0C-216.0 -277.0 -204.0 -287.0 -199.0 -293.0C-110.0 -221.0 -27.0 -116.0 28.0 -7.0ZM-60.0 -248.0 -58.0 -280.0 451.0 -279.0V-246.0Z"/></g>
<g fill="red" transform="translate(1200 900) scale(0.1 -0.1)"><path d="M0.0 0.0C-38.0 -105.0 -111.0 -206.0 -196.0 -267.0C-161.0 -286.0 -100.0 -327.0 -72.0 -351.0C10.0 -279.0 93.0 -161.0 142.0 -36.0ZM2.0 -253.0V-374.0H457.0V-253.0Z"/></g>
<g fill="black" opacity=".8" transform="translate(1200 900) scale(0.1 -0.1)"><path d="M0.0 0.0C-39.0 -103.0 -113.0 -207.0 -194.0 -273.0C-160.0 -289.0 -99.0 -325.0 -71.0 -348.0C7.0 -272.0 89.0 -155.0 139.0 -35.0ZM-6.0 -258.0 -8.0 -372.0 461.0 -374.0V-258.0Z"/></g>
<g fill="red" transform="translate(1300 900) scale(0.1 -0.1)"><path d="M0.0 0.0C-35.0 -108.0 -91.0 -212.0 -157.0 -283.0C-149.0 -288.0 -135.0 -296.0 -130.0 -301.0C-66.0 -227.0 -9.0 -119.0 30.0 -7.0ZM-141.0 -382.0V-411.0H376.0V-382.0Z"/></g>
<g fill="black" opacity=".8" transform="translate(1300 900) scale(0.1 -0.1)"><path d="M0.0 0.0C-34.0 -108.0 -86.0 -214.0 -154.0 -286.0C-147.0 -289.0 -134.0 -297.0 -129.0 -302.0C-63.0 -227.0 -7.0 -118.0 28.0 -6.0ZM-152.0 -378.0 -150.0 -414.0 381.0 -413.0 382.0 -378.0Z"/></g>
<g fill="red" transform="translate(1400 900) scale(0.1 -0.1)"><path d="M0.0 0.0C-23.0 -105.0 -71.0 -207.0 -134.0 -270.0C-102.0 -287.0 -43.0 -326.0 -18.0 -350.0C47.0 -276.0 105.0 -155.0 137.0 -30.0ZM-111.0 -368.0V-495.0H432.0V-368.0Z"/></g>
<g fill="black" opacity=".8" transform="translate(1400 900) scale(0.1 -0.1)"><path d="M0.0 0.0C-24.0 -106.0 -73.0 -212.0 -138.0 -278.0C-105.0 -292.0 -45.0 -324.0 -18.0 -344.0C45.0 -268.0 102.0 -149.0 134.0 -27.0ZM-103.0 -370.0 -102.0 -493.0 428.0 -494.0V-369.0Z"/></g>
<g fill="red" transform="translate(1500 900) scale(0.1 -0.1)"><path d="M0.0 0.0C-11.0 -164.0 -35.0 -307.0 -103.0 -401.0C-95.0 -405.0 -82.0 -414.0 -77.0 -419.0C-11.0 -319.0 17.0 -176.0 31.0 -2.0ZM-56.0 304.0V275.0H311.0V304.0Z"/></g>
<g fill="black" opacity=".8" transform="translate(1500 900) scale(0.1 -0.1)"><path d="M0.0 0.0C-13.0 -163.0 -35.0 -308.0 -103.0 -403.0C-94.0 -406.0 -80.0 -413.0 -74.0 -419.0C-9.0 -318.0 18.0 -174.0 32.0 -3.0ZM-52.0 297.0 -56.0 277.0 304.0 279.0 305.0 299.0Z"/></g>
<g fill="red" transform="translate(1600 900) scale(0.1 -0.1)"><path d="M0.0 0.0C1.0 -157.0 -6.0 -303.0 -66.0 -389.0C-35.0 -406.0 25.0 -450.0 48.0 -472.0C118.0 -365.0 134.0 -197.0 137.0 -6.0ZM-2.0 343.0V216.0H359.0V343.0Z"/></g>
<g fill="black" opacity=".8" transform="translate(1600 900) scale(0.1 -0.1)"><path d="M0.0 0.0C0.0 -156.0 -11.0 -303.0 -74.0 -392.0C-40.0 -406.0 24.0 -447.0 50.0 -468.0C121.0 -362.0 140.0 -196.0 145.0 -9.0ZM7.0 347.0 -12.0 214.0H366.0V350.0Z"/></g>
<g fill="red" transform="translate(100 1000) scale(0.1 -0.1)"><path d="M0.0 0.0C-61.0 -161.0 -161.0 -319.0 -268.0 -422.0C-261.0 -427.0 -251.0 -440.0 -247.0 -446.0C-139.0 -336.0 -38.0 -177.0 29.0 -8.0ZM-27.0 -494.0V-523.0H671.0V-494.0Z"/></g>
<g fill="black" opacity=".8" transform="translate(100 1000) scale(0.1 -0.1)"><path d="M0.0 0.0C-63.0 -159.0 -162.0 -318.0 -269.0 -423.0C-262.0 -427.0 -250.0 -440.0 -245.0 -447.0C-137.0 -335.0 -37.0 -174.0 31.0 -9.0ZM-24.0 -502.0 -25.0 -524.0 665.0 -522.0V-500.0Z"/></g>
<g fill="red" transform="translate(200 1000) scale(0.1 -0.1)"><path d="M0.0 0.0C-48.0 -138.0 -131.0 -276.0 -217.0 -363.0C-193.0 -399.0 -154.0 -480.0 -141.0 -516.0C-32.0 -400.0 73.0 -214.0 137.0 -43.0ZM79.0 -478.0V-600.0H759.0V-478.0Z"/></g>
<g fill="black" opacity=".8" transform="translate(200 1000) scale(0.1 -0.1)"><path d="M0.0 0.0C-48.0 -138.0 -135.0 -275.0 -226.0 -365.0C-199.0 -401.0 -154.0 -478.0 -138.0 -513.0C-27.0 -397.0 80.0 -213.0 146.0 -44.0ZM83.0 -473.0 73.0 -597.0 764.0 -598.0V-471.0Z"/></g>
<g fill="red" transform="translate(300 1000) scale(0.1 -0.1)"><path d="M0.0 0.0C-37.0 -114.0 -93.0 -225.0 -163.0 -300.0C-155.0 -304.0 -142.0 -312.0 -137.0 -316.0C-70.0 -240.0 -10.0 -125.0 28.0 -7.0ZM-216.0 -504.0V-534.0H447.0V-504.0Z"/></g>
<g fill="black" opacity=".8" transform="translate(300 1000) scale(0.1 -0.1)"><path d="M0.0 0.0C-36.0 -112.0 -93.0 -225.0 -164.0 -302.0C-156.0 -305.0 -144.0 -314.0 -138.0 -319.0C-69.0 -239.0 -9.0 -122.0 30.0 -7.0ZM-211.0 -504.0 -209.0 -533.0 444.0 -532.0V-503.0Z"/></g>
<g fill="red" transform="translate(400 1000) scale(0.1 -0.1)"><path d="M0.0 0.0C-30.0 -102.0 -88.0 -205.0 -157.0 -267.0C-125.0 -286.0 -67.0 -327.0 -41.0 -351.0C29.0 -276.0 98.0 -155.0 138.0 -33.0ZM-153.0 -479.0V-603.0H500.0V-479.0Z"/></g>
<g fill="black" opacity=".8" transform="translate(400 1000) scale(0.1 -0.1)"><path d="M0.0 0.0C-29.0 -101.0 -87.0 -204.0 -157.0 -270.0C-124.0 -287.0 -67.0 -327.0 -41.0 -350.0C31.0 -272.0 97.0 -151.0 137.0 -31.0ZM-160.0 -480.0 -158.0 -602.0 503.0 -603.0V-480.0Z"/></g>
<g fill="red" transform="translate(500 1000) scale(0.1 -0.1)"><path d="M0.0 0.0C-31.0 -120.0 -82.0 -237.0 -148.0 -316.0C-140.0 -320.0 -125.0 -329.0 -120.0 -333.0C-56.0 -253.0 -3.0 -132.0 31.0 -6.0ZM-30.0 -277.0V-307.0H262.0V-277.0Z"/></g>
<g fill="black" opacity=".8" transform="translate(500 1000) scale(0.1 -0.1)"><path d="M0.0 0.0C-32.0 -125.0 -82.0 -240.0 -146.0 -318.0C-139.0 -321.0 -127.0 -329.0 -122.0 -333.0C-60.0 -254.0 -8.0 -135.0 26.0 -6.0ZM-29.0 -275.0 -28.0 -305.0 267.0 -304.0 268.0 -274.0Z"/></g>
<g fill="red" transform="translate(600 1000) scale(0.1 -0.1)"><path d="M0.0 0.0C-22.0 -116.0 -64.0 -233.0 -123.0 -305.0C-92.0 -323.0 -35.0 -364.0 -10.0 -387.0C53.0 -301.0 106.0 -164.0 135.0 -27.0ZM31.0 -275.0V-391.0H306.0V-275.0Z"/></g>
<g fill="black" opacity=".8" transform="translate(600 1000) scale(0.1 -0.1)"><path d="M0.0 0.0C-19.0 -121.0 -60.0 -238.0 -117.0 -310.0C-88.0 -326.0 -34.0 -362.0 -11.0 -382.0C47.0 -299.0 98.0 -162.0 123.0 -25.0ZM28.0 -276.0 26.0 -393.0 302.0 -394.0 303.0 -275.0Z"/></g>
<g fill="red" transform="translate(700 1000) scale(0.1 -0.1)"><path d="M0.0 0.0C-35.0 -130.0 -92.0 -259.0 -164.0 -345.0C-155.0 -349.0 -140.0 -357.0 -135.0 -362.0C-67.0 -274.0 -8.0 -143.0 31.0 -7.0ZM-181.0 -500.0V-529.0H494.0V-500.0Z"/></g>
<g fill="black" opacity=".8" transform="translate(700 1000) scale(0.1 -0.1)"><path d="M0.0 0.0C-36.0 -129.0 -91.0 -257.0 -164.0 -345.0C-156.0 -348.0 -142.0 -357.0 -136.0 -363.0C-65.0 -273.0 -6.0 -141.0 32.0 -7.0ZM-182.0 -505.0 -181.0 -528.0 494.0 -527.0 495.0 -505.0Z"/></g>
<g fill="red" transform="translate(800 1000) scale(0.1 -0.1)"><path d="M0.0 0.0C-31.0 -123.0 -91.0 -244.0 -167.0 -317.0C-135.0 -338.0 -78.0 -386.0 -54.0 -412.0C27.0 -323.0 99.0 -178.0 141.0 -32.0ZM-130.0 -481.0V-602.0H564.0V-481.0Z"/></g>
<g fill="black" opacity=".8" transform="translate(800 1000) scale(0.1 -0.1)"><path d="M0.0 0.0C-31.0 -119.0 -92.0 -239.0 -166.0 -316.0C-134.0 -338.0 -78.0 -389.0 -53.0 -416.0C29.0 -322.0 102.0 -176.0 145.0 -33.0ZM-128.0 -476.0 -130.0 -602.0 564.0 -603.0V-475.0Z"/></g>
<g fill="red" transform="translate(900 1000) scale(0.1 -0.1)"><path d="M0.0 0.0C-48.0 -162.0 -124.0 -323.0 -212.0 -430.0C-205.0 -436.0 -194.0 -448.0 -190.0 -454.0C-102.0 -340.0 -24.0 -176.0 28.0 -7.0ZM10.0 -489.0V-518.0H390.0V-489.0Z"/></g>
<g fill="black" opacity=".8" transform="translate(900 1000) scale(0.1 -0.1)"><path d="M0.0 0.0C-50.0 -166.0 -125.0 -326.0 -208.0 -431.0C-202.0 -434.0 -191.0 -446.0 -187.0 -452.0C-103.0 -342.0 -25.0 -179.0 27.0 -8.0ZM1.0 -493.0 -0.0 -516.0H394.0L395.0 -492.0Z"/></g>
<g fill="red" transform="translate(1000 1000) scale(0.1 -0.1)"><path d="M0.0 0.0C-37.0 -141.0 -101.0 -283.0 -172.0 -376.0C-151.0 -412.0 -117.0 -493.0 -107.0 -527.0C-10.0 -405.0 76.0 -211.0 127.0 -37.0ZM88.0 -478.0V-591.0H489.0V-478.0Z"/></g>
<g fill="black" opacity=".8" transform="translate(1000 1000) scale(0.1 -0.1)"><path d="M0.0 0.0C-36.0 -146.0 -104.0 -288.0 -175.0 -379.0C-154.0 -413.0 -117.0 -490.0 -106.0 -521.0C-13.0 -404.0 76.0 -211.0 125.0 -38.0ZM102.0 -472.0 92.0 -594.0 485.0 -595.0V-470.0Z"/></g>
<g fill="red" transform="translate(1100 1000) scale(0.1 -0.1)"><path d="M0.0 0.0C-61.0 -161.0 -161.0 -319.0 -268.0 -422.0C-261.0 -427.0 -251.0 -440.0 -247.0 -446.0C-139.0 -336.0 -38.0 -177.0 29.0 -8.0ZM137.0 -203.0 126.0 -232.0H654.0V-203.0Z"/></g>
<g fill="black" opacity=".8" transform="translate(1100 1000) scale(0.1 -0.1)"><path d="M0.0 0.0C-62.0 -163.0 -160.0 -320.0 -269.0 -423.0C-263.0 -427.0 -253.0 -440.0 -249.0 -447.0C-138.0 -336.0 -39.0 -177.0 28.0 -8.0ZM134.0 -199.0 131.0 -233.0 656.0 -234.0 657.0 -200.0Z"/></g>
<g fill="red" transform="translate(1200 1000) scale(0.1 -0.1)"><path d="M0.0 0.0C-48.0 -138.0 -131.0 -276.0 -217.0 -363.0C-193.0 -399.0 -154.0 -480.0 -141.0 -516.0C-32.0 -400.0 73.0 -214.0 137.0 -43.0ZM261.0 -168.0 207.0 -302.0H739.0V-168.0Z"/></g>
<g fill="black" opacity=".8" transform="translate(1200 1000) scale(0.1 -0.1)"><path d="M0.0 0.0C-45.0 -140.0 -125.0 -275.0 -214.0 -364.0C-191.0 -400.0 -155.0 -481.0 -144.0 -516.0C-31.0 -399.0 71.0 -213.0 132.0 -40.0ZM240.0 -171.0 221.0 -297.0 737.0 -301.0 738.0 -172.0Z"/></g>
</svg>
