<?xml version="1.0" encoding="UTF-8"?>
<svg width="1700" height="1300" xmlns="http://www.w3.org/2000/svg">
<rect width="100%" height="100%" fill="white"/>
<g fill="green" transform="translate(100 100) scale(0.1 -0.1)"><path d="M-0.0 0.0V-4.0H-373.0V0.0ZM-119.0 -543.0C-57.0 -465.0 27.0 -709.0 -76.0 -740.0C-76.0 -739.0 -73.0 -736.0 -73.0 -736.0C31.0 -704.0 -52.0 -461.0 -116.0 -537.0Z"/></g>
<g fill="green" transform="translate(200 100) scale(0.1 -0.1)"><path d="M0.0 0.0 2.0 19.0H-361.0V0.0ZM-51.0 -556.0C-11.0 -574.0 82.0 -616.0 -27.0 -644.0C-10.0 -634.0 -14.0 -599.0 -1.0 -603.0C92.0 -586.0 2.0 -546.0 -52.0 -531.0Z"/></g>
<g fill="green" transform="translate(300 100) scale(0.1 -0.1)"><path d="M0.0 0.0V-25.0H51.0V0.0ZM51.0 -456.0C84.0 -555.0 113.0 -976.0 -105.0 -1110.0C-100.0 -1113.0 -88.0 -1117.0 -85.0 -1121.0C135.0 -981.0 107.0 -562.0 75.0 -453.0Z"/></g>
<g fill="green" transform="translate(400 100) scale(0.1 -0.1)"><path d="M0.0 0.0 2.0 -76.0H73.0V0.0ZM82.0 -495.0C101.0 -689.0 147.0 -895.0 -69.0 -1017.0C-29.0 -1025.0 4.0 -1028.0 32.0 -1053.0C242.0 -924.0 208.0 -700.0 183.0 -483.0Z"/></g>
<g fill="green" transform="translate(500 100) scale(0.1 -0.1)"><path d="M0.0 0.0V-9.0H198.0V0.0ZM448.0 -12.0C497.0 52.0 562.0 -266.0 416.0 -332.0C417.0 -332.0 421.0 -330.0 422.0 -331.0C571.0 -265.0 506.0 55.0 455.0 -9.0Z"/></g>
<g fill="green" transform="translate(600 100) scale(0.1 -0.1)"><path d="M0.0 0.0 4.0 -2.0H240.0V0.0ZM524.0 8.0C548.0 -22.0 618.0 -126.0 470.0 -187.0C491.0 -188.0 482.0 -168.0 498.0 -184.0C643.0 -127.0 581.0 -15.0 549.0 23.0Z"/></g>
<g fill="green" transform="translate(700 100) scale(0.1 -0.1)"><path d="M0.0 0.0 -1.0 -10.0H301.0V0.0ZM-199.0 -606.0C-209.0 -452.0 -265.0 -533.0 -424.0 -507.0C-422.0 -509.0 -419.0 -511.0 -419.0 -514.0C-260.0 -543.0 -202.0 -453.0 -189.0 -610.0Z"/></g>
<g fill="green" transform="translate(800 100) scale(0.1 -0.1)"><path d="M0.0 0.0 -2.0 -16.0H308.0V0.0ZM-146.0 -614.0C-170.0 -486.0 -218.0 -434.0 -395.0 -395.0C-379.0 -398.0 -380.0 -390.0 -366.0 -404.0C-192.0 -455.0 -134.0 -514.0 -98.0 -633.0Z"/></g>
<g fill="green" transform="translate(900 100) scale(0.1 -0.1)"><path d="M0.0 0.0 -1.0 -3.0H-414.0V0.0ZM-324.0 -41.0C-202.0 -124.0 -12.0 -690.0 -172.0 -864.0C-173.0 -861.0 -168.0 -854.0 -167.0 -853.0C-2.0 -673.0 -194.0 -116.0 -321.0 -27.0Z"/></g>
<g fill="green" transform="translate(1000 100) scale(0.1 -0.1)"><path d="M0.0 0.0 -4.0 8.0H-428.0V0.0ZM-274.0 -64.0C-182.0 -314.0 26.0 -595.0 -121.0 -772.0C-94.0 -759.0 -94.0 -714.0 -76.0 -722.0C57.0 -541.0 -150.0 -247.0 -274.0 -1.0Z"/></g>
<g fill="green" transform="translate(1100 100) scale(0.1 -0.1)"><path d="M0.0 0.0 -2.0 -19.0H-442.0V0.0ZM3.0 -496.0C20.0 -475.0 8.0 -684.0 -161.0 -714.0C-157.0 -716.0 -149.0 -720.0 -147.0 -724.0C21.0 -691.0 36.0 -479.0 21.0 -496.0Z"/></g>
<g fill="green" transform="translate(1200 100) scale(0.1 -0.1)"><path d="M0.0 0.0 -6.0 -36.0H-456.0V0.0ZM33.0 -498.0C33.0 -556.0 35.0 -577.0 -139.0 -601.0C-115.0 -610.0 -106.0 -621.0 -90.0 -646.0C87.0 -622.0 101.0 -578.0 101.0 -501.0Z"/></g>
<g fill="green" transform="translate(1300 100) scale(0.1 -0.1)"><path d="M0.0 0.0 1.0 -14.0H-364.0V0.0ZM-104.0 -433.0C-91.0 -629.0 -60.0 -656.0 -24.0 -689.0C-21.0 -690.0 -11.0 -694.0 -9.0 -695.0C-50.0 -655.0 -77.0 -637.0 -90.0 -431.0Z"/></g>
<g fill="green" transform="translate(1400 100) scale(0.1 -0.1)"><path d="M0.0 0.0 6.0 -40.0H-351.0V0.0ZM-80.0 -475.0C-62.0 -640.0 -37.0 -633.0 5.0 -636.0C20.0 -630.0 63.0 -634.0 75.0 -628.0C12.0 -626.0 -16.0 -632.0 -43.0 -466.0Z"/></g>
<g fill="green" transform="translate(1500 100) scale(0.1 -0.1)"><path d="M0.0 0.0 -1.0 -11.0H-321.0V0.0ZM-85.0 -560.0C-23.0 -413.0 59.0 -681.0 -37.0 -710.0C-35.0 -710.0 -29.0 -710.0 -28.0 -710.0C69.0 -679.0 -11.0 -411.0 -77.0 -555.0Z"/></g>
<g fill="green" transform="translate(1600 100) scale(0.1 -0.1)"><path d="M0.0 0.0 -2.0 -5.0H-406.0V0.0ZM-113.0 -583.0C-68.0 -570.0 42.0 -621.0 -57.0 -665.0C-35.0 -663.0 -37.0 -643.0 -23.0 -655.0C65.0 -616.0 -35.0 -551.0 -96.0 -561.0Z"/></g>
<g fill="green" transform="translate(100 200) scale(0.1 -0.1)"><path d="M0.0 0.0 2.0 -3.0H-432.0V0.0ZM-149.0 -557.0C-89.0 -425.0 5.0 -666.0 -77.0 -692.0C-77.0 -691.0 -76.0 -690.0 -75.0 -690.0C10.0 -662.0 -83.0 -420.0 -146.0 -551.0Z"/></g>
<g fill="green" transform="translate(200 200) scale(0.1 -0.1)"><path d="M0.0 0.0 8.0 -2.0H-308.0V0.0ZM-23.0 -570.0C9.0 -560.0 102.0 -633.0 -10.0 -677.0C3.0 -679.0 -14.0 -665.0 -7.0 -676.0C107.0 -633.0 25.0 -546.0 -19.0 -551.0Z"/></g>
<g fill="green" transform="translate(300 200) scale(0.1 -0.1)"><path d="M0.0 0.0V8.0H-374.0V0.0ZM-109.0 -544.0C-42.0 -486.0 50.0 -709.0 -70.0 -725.0C-73.0 -722.0 -76.0 -715.0 -78.0 -714.0C45.0 -698.0 -47.0 -477.0 -117.0 -536.0Z"/></g>
<g fill="green" transform="translate(400 200) scale(0.1 -0.1)"><path d="M0.0 0.0 3.0 64.0H-358.0V0.0ZM-35.0 -533.0C7.0 -598.0 102.0 -645.0 -27.0 -668.0C-19.0 -652.0 -40.0 -601.0 -32.0 -599.0C82.0 -590.0 -16.0 -554.0 -73.0 -499.0Z"/></g>
<g fill="green" transform="translate(500 200) scale(0.1 -0.1)"><path d="M-0.0 0.0V2.0H-378.0V0.0ZM-87.0 -535.0C-43.0 -466.0 12.0 -693.0 -85.0 -744.0C-87.0 -742.0 -87.0 -739.0 -88.0 -739.0C13.0 -688.0 -46.0 -463.0 -89.0 -531.0Z"/></g>
<g fill="green" transform="translate(600 200) scale(0.1 -0.1)"><path d="M0.0 0.0 3.0 33.0H-360.0V0.0ZM-45.0 -578.0C-8.0 -547.0 65.0 -638.0 -17.0 -676.0C-1.0 -657.0 5.0 -600.0 22.0 -591.0C70.0 -568.0 -12.0 -509.0 -59.0 -553.0Z"/></g>
<g fill="red" transform="translate(100 300) scale(0.1 -0.1)"><path d="M0.0 0.0V-29.0H672.0V0.0ZM280.0 163.0C217.0 -50.0 112.0 -235.0 -33.0 -352.0C-25.0 -357.0 -12.0 -367.0 -7.0 -372.0C135.0 -248.0 242.0 -65.0 308.0 156.0Z"/></g>
<g fill="black" opacity=".8" transform="translate(100 300) scale(0.1 -0.1)"><path d="M0.0 0.0 -1.0 -29.0H669.0V0.0ZM274.0 170.0C220.0 -52.0 118.0 -234.0 -30.0 -352.0C-24.0 -356.0 -12.0 -368.0 -7.0 -374.0C143.0 -249.0 246.0 -67.0 304.0 163.0Z"/></g>
<g fill="red" transform="translate(200 300) scale(0.1 -0.1)"><path d="M0.0 0.0V-132.0H662.0V0.0ZM204.0 149.0C162.0 -68.0 76.0 -255.0 -64.0 -363.0C-35.0 -392.0 13.0 -455.0 30.0 -487.0C188.0 -352.0 290.0 -131.0 345.0 123.0Z"/></g>
<g fill="black" opacity=".8" transform="translate(200 300) scale(0.1 -0.1)"><path d="M0.0 0.0 -2.0 -132.0H665.0V0.0ZM204.0 144.0C163.0 -67.0 73.0 -257.0 -66.0 -363.0C-37.0 -392.0 8.0 -454.0 29.0 -484.0C186.0 -351.0 290.0 -131.0 347.0 116.0Z"/></g>
<g fill="red" transform="translate(300 300) scale(0.1 -0.1)"><path d="M0.0 0.0V-30.0H672.0V0.0ZM265.0 210.0C214.0 -117.0 130.0 -392.0 -41.0 -566.0C-33.0 -571.0 -21.0 -582.0 -15.0 -586.0C155.0 -403.0 240.0 -133.0 295.0 206.0Z"/></g>
<g fill="black" opacity=".8" transform="translate(300 300) scale(0.1 -0.1)"><path d="M0.0 0.0 -1.0 -31.0H670.0V0.0ZM263.0 217.0C219.0 -113.0 132.0 -391.0 -45.0 -564.0C-38.0 -568.0 -24.0 -580.0 -20.0 -586.0C160.0 -404.0 246.0 -129.0 295.0 211.0Z"/></g>
<g fill="red" transform="translate(400 300) scale(0.1 -0.1)"><path d="M0.0 0.0V-137.0H653.0V0.0ZM189.0 176.0C154.0 -129.0 82.0 -400.0 -68.0 -556.0C-35.0 -582.0 25.0 -642.0 46.0 -671.0C208.0 -484.0 294.0 -179.0 338.0 160.0Z"/></g>
<g fill="black" opacity=".8" transform="translate(400 300) scale(0.1 -0.1)"><path d="M0.0 0.0 -2.0 -139.0H655.0V0.0ZM182.0 174.0C154.0 -139.0 83.0 -409.0 -71.0 -559.0C-34.0 -583.0 27.0 -635.0 53.0 -663.0C215.0 -484.0 295.0 -190.0 335.0 157.0Z"/></g>
<g fill="red" transform="translate(500 300) scale(0.1 -0.1)"><path d="M0.0 0.0V-29.0H663.0V0.0ZM292.0 200.0C248.0 -55.0 159.0 -321.0 -40.0 -483.0C-34.0 -489.0 -25.0 -499.0 -20.0 -504.0C183.0 -338.0 273.0 -67.0 322.0 194.0Z"/></g>
<g fill="black" opacity=".8" transform="translate(500 300) scale(0.1 -0.1)"><path d="M0.0 0.0 -1.0 -30.0H655.0V0.0ZM294.0 211.0C250.0 -42.0 159.0 -327.0 -39.0 -485.0C-32.0 -489.0 -19.0 -500.0 -15.0 -507.0C185.0 -341.0 276.0 -57.0 325.0 204.0Z"/></g>
<g fill="red" transform="translate(600 300) scale(0.1 -0.1)"><path d="M0.0 0.0V-140.0H658.0V0.0ZM240.0 184.0C212.0 -47.0 142.0 -315.0 -34.0 -453.0C-5.0 -481.0 39.0 -536.0 61.0 -569.0C264.0 -402.0 347.0 -109.0 393.0 163.0Z"/></g>
<g fill="black" opacity=".8" transform="translate(600 300) scale(0.1 -0.1)"><path d="M0.0 0.0 -3.0 -133.0H667.0V0.0ZM244.0 178.0C210.0 -65.0 134.0 -316.0 -46.0 -454.0C-10.0 -480.0 40.0 -530.0 66.0 -562.0C258.0 -397.0 347.0 -123.0 395.0 156.0Z"/></g>
<g fill="red" transform="translate(700 300) scale(0.1 -0.1)"><path d="M0.0 0.0V-29.0H596.0V0.0ZM229.0 145.0C181.0 -62.0 93.0 -233.0 -41.0 -342.0C-33.0 -347.0 -20.0 -357.0 -15.0 -361.0C116.0 -247.0 206.0 -76.0 258.0 139.0Z"/></g>
<g fill="black" opacity=".8" transform="translate(700 300) scale(0.1 -0.1)"><path d="M0.0 0.0V-28.0H595.0V0.0ZM230.0 150.0C181.0 -64.0 93.0 -234.0 -39.0 -343.0C-32.0 -348.0 -20.0 -360.0 -16.0 -366.0C118.0 -248.0 207.0 -78.0 259.0 143.0Z"/></g>
<g fill="red" transform="translate(800 300) scale(0.1 -0.1)"><path d="M0.0 0.0V-135.0H635.0V0.0ZM196.0 129.0C157.0 -83.0 74.0 -261.0 -66.0 -362.0C-36.0 -389.0 18.0 -448.0 38.0 -477.0C191.0 -351.0 290.0 -143.0 342.0 104.0Z"/></g>
<g fill="black" opacity=".8" transform="translate(800 300) scale(0.1 -0.1)"><path d="M0.0 0.0V-133.0H636.0V0.0ZM200.0 127.0C160.0 -79.0 76.0 -255.0 -57.0 -355.0C-30.0 -385.0 11.0 -451.0 29.0 -482.0C184.0 -354.0 284.0 -143.0 340.0 99.0Z"/></g>
<g fill="red" transform="translate(900 300) scale(0.1 -0.1)"><path d="M0.0 0.0V-29.0H645.0V0.0ZM277.0 95.0C213.0 -67.0 101.0 -205.0 -33.0 -294.0C-25.0 -299.0 -14.0 -308.0 -9.0 -314.0C123.0 -221.0 237.0 -82.0 306.0 88.0Z"/></g>
<g fill="black" opacity=".8" transform="translate(900 300) scale(0.1 -0.1)"><path d="M0.0 0.0 -1.0 -28.0H642.0V0.0ZM273.0 101.0C214.0 -73.0 104.0 -204.0 -26.0 -297.0C-19.0 -301.0 -7.0 -313.0 -3.0 -319.0C127.0 -221.0 238.0 -88.0 302.0 92.0Z"/></g>
<g fill="red" transform="translate(1000 300) scale(0.1 -0.1)"><path d="M0.0 0.0V-129.0H658.0V0.0ZM227.0 79.0C180.0 -75.0 85.0 -207.0 -41.0 -283.0C-11.0 -308.0 41.0 -363.0 61.0 -391.0C195.0 -296.0 305.0 -139.0 366.0 46.0Z"/></g>
<g fill="black" opacity=".8" transform="translate(1000 300) scale(0.1 -0.1)"><path d="M0.0 0.0 -1.0 -127.0H661.0V0.0ZM231.0 73.0C184.0 -65.0 82.0 -204.0 -41.0 -279.0C-14.0 -306.0 30.0 -364.0 50.0 -392.0C188.0 -295.0 304.0 -132.0 369.0 39.0Z"/></g>
<g fill="red" transform="translate(1100 300) scale(0.1 -0.1)"><path d="M0.0 0.0V-30.0H300.0V0.0ZM247.0 -135.0C197.0 -335.0 100.0 -496.0 -41.0 -597.0C-33.0 -602.0 -22.0 -613.0 -17.0 -619.0C123.0 -511.0 222.0 -350.0 277.0 -140.0Z"/></g>
<g fill="black" opacity=".8" transform="translate(1100 300) scale(0.1 -0.1)"><path d="M0.0 0.0 -1.0 -29.0H295.0V0.0ZM250.0 -133.0C200.0 -334.0 102.0 -499.0 -41.0 -598.0C-34.0 -602.0 -22.0 -615.0 -18.0 -621.0C126.0 -514.0 226.0 -350.0 280.0 -140.0Z"/></g>
<g fill="red" transform="translate(1200 300) scale(0.1 -0.1)"><path d="M0.0 0.0V-126.0H284.0V0.0ZM179.0 -171.0C142.0 -375.0 59.0 -542.0 -81.0 -637.0C-51.0 -662.0 2.0 -716.0 22.0 -744.0C172.0 -626.0 269.0 -433.0 319.0 -194.0Z"/></g>
<g fill="black" opacity=".8" transform="translate(1200 300) scale(0.1 -0.1)"><path d="M0.0 0.0 -1.0 -125.0H289.0V0.0ZM177.0 -170.0C141.0 -375.0 58.0 -539.0 -77.0 -632.0C-48.0 -659.0 -0.0 -717.0 20.0 -745.0C168.0 -628.0 265.0 -435.0 315.0 -195.0Z"/></g>
<g fill="red" transform="translate(1300 300) scale(0.1 -0.1)"><path d="M0.0 0.0V-29.0H869.0V0.0ZM308.0 193.0C262.0 -109.0 183.0 -445.0 -18.0 -656.0C-12.0 -662.0 -2.0 -672.0 3.0 -679.0C209.0 -459.0 290.0 -120.0 339.0 188.0Z"/></g>
<g fill="black" opacity=".8" transform="translate(1300 300) scale(0.1 -0.1)"><path d="M0.0 0.0V-29.0H858.0V0.0ZM315.0 203.0C272.0 -99.0 191.0 -456.0 -28.0 -652.0C-22.0 -657.0 -10.0 -668.0 -5.0 -675.0C220.0 -469.0 298.0 -114.0 346.0 198.0Z"/></g>
<g fill="red" transform="translate(1400 300) scale(0.1 -0.1)"><path d="M0.0 0.0V-140.0H896.0V0.0ZM279.0 161.0C246.0 -131.0 169.0 -488.0 -33.0 -676.0C2.0 -703.0 54.0 -755.0 80.0 -788.0C306.0 -568.0 392.0 -190.0 441.0 144.0Z"/></g>
<g fill="black" opacity=".8" transform="translate(1400 300) scale(0.1 -0.1)"><path d="M0.0 0.0 2.0 -145.0H907.0V0.0ZM269.0 157.0C238.0 -151.0 171.0 -491.0 -33.0 -673.0C6.0 -701.0 61.0 -750.0 90.0 -782.0C306.0 -568.0 384.0 -205.0 428.0 141.0Z"/></g>
<g fill="red" transform="translate(1500 300) scale(0.1 -0.1)"><path d="M0.0 0.0V-29.0H856.0V0.0ZM286.0 186.0C282.0 125.0 262.0 -444.0 -28.0 -670.0C-20.0 -674.0 -7.0 -682.0 -1.0 -687.0C291.0 -452.0 309.0 113.0 315.0 186.0Z"/></g>
<g fill="black" opacity=".8" transform="translate(1500 300) scale(0.1 -0.1)"><path d="M0.0 0.0 -1.0 -30.0H855.0V0.0ZM288.0 196.0C287.0 133.0 260.0 -442.0 -31.0 -669.0C-25.0 -673.0 -13.0 -682.0 -8.0 -688.0C292.0 -455.0 314.0 123.0 318.0 192.0Z"/></g>
<g fill="red" transform="translate(1600 300) scale(0.1 -0.1)"><path d="M0.0 0.0V-141.0H878.0V0.0ZM240.0 139.0C233.0 -1.0 242.0 -432.0 -43.0 -668.0C7.0 -697.0 52.0 -734.0 82.0 -773.0C369.0 -503.0 384.0 -42.0 392.0 139.0Z"/></g>
<g fill="black" opacity=".8" transform="translate(1600 300) scale(0.1 -0.1)"><path d="M0.0 0.0 -1.0 -140.0H879.0V0.0ZM235.0 139.0C232.0 -15.0 243.0 -435.0 -33.0 -668.0C16.0 -697.0 50.0 -727.0 84.0 -769.0C372.0 -506.0 380.0 -59.0 390.0 133.0Z"/></g>
<g fill="red" transform="translate(100 400) scale(0.1 -0.1)"><path d="M0.0 0.0V-29.0H860.0V0.0ZM367.0 203.0C308.0 -58.0 194.0 -316.0 -32.0 -472.0C-25.0 -478.0 -16.0 -488.0 -11.0 -495.0C217.0 -334.0 333.0 -73.0 398.0 196.0Z"/></g>
<g fill="black" opacity=".8" transform="translate(100 400) scale(0.1 -0.1)"><path d="M0.0 0.0 -1.0 -28.0H859.0V0.0ZM368.0 197.0C307.0 -56.0 189.0 -320.0 -28.0 -473.0C-22.0 -478.0 -11.0 -490.0 -7.0 -497.0C215.0 -336.0 331.0 -71.0 398.0 189.0Z"/></g>
<g fill="red" transform="translate(200 400) scale(0.1 -0.1)"><path d="M0.0 0.0V-142.0H896.0V0.0ZM315.0 162.0C271.0 -77.0 170.0 -346.0 -36.0 -484.0C-6.0 -513.0 39.0 -567.0 60.0 -601.0C291.0 -435.0 403.0 -145.0 468.0 134.0Z"/></g>
<g fill="black" opacity=".8" transform="translate(200 400) scale(0.1 -0.1)"><path d="M0.0 0.0V-135.0H897.0V0.0ZM318.0 168.0C270.0 -76.0 164.0 -344.0 -42.0 -483.0C-8.0 -513.0 39.0 -568.0 64.0 -601.0C287.0 -433.0 406.0 -143.0 474.0 140.0Z"/></g>
<g fill="red" transform="translate(300 400) scale(0.1 -0.1)"><path d="M0.0 0.0V-29.0H561.0V0.0ZM175.0 195.0C152.0 -168.0 112.0 -485.0 -20.0 -687.0C-13.0 -691.0 0.0 -700.0 6.0 -705.0C139.0 -492.0 179.0 -184.0 206.0 193.0Z"/></g>
<g fill="black" opacity=".8" transform="translate(300 400) scale(0.1 -0.1)"><path d="M0.0 0.0V-30.0H564.0V0.0ZM177.0 194.0C152.0 -166.0 113.0 -488.0 -27.0 -683.0C-21.0 -687.0 -5.0 -698.0 -0.0 -703.0C142.0 -496.0 181.0 -182.0 208.0 191.0Z"/></g>
<g fill="red" transform="translate(400 400) scale(0.1 -0.1)"><path d="M0.0 0.0V-142.0H568.0V0.0ZM103.0 131.0C96.0 -214.0 66.0 -531.0 -54.0 -708.0C-18.0 -729.0 53.0 -779.0 76.0 -802.0C201.0 -592.0 238.0 -252.0 251.0 127.0Z"/></g>
<g fill="black" opacity=".8" transform="translate(400 400) scale(0.1 -0.1)"><path d="M0.0 0.0 1.0 -144.0H566.0V0.0ZM102.0 135.0C94.0 -220.0 69.0 -531.0 -48.0 -709.0C-10.0 -730.0 56.0 -778.0 82.0 -802.0C203.0 -593.0 235.0 -257.0 248.0 130.0Z"/></g>
<g fill="red" transform="translate(500 400) scale(0.1 -0.1)"><path d="M0.0 0.0V-29.0H543.0V0.0ZM222.0 199.0C171.0 -116.0 85.0 -381.0 -81.0 -548.0C-74.0 -553.0 -62.0 -564.0 -57.0 -569.0C111.0 -393.0 196.0 -132.0 252.0 195.0Z"/></g>
<g fill="black" opacity=".8" transform="translate(500 400) scale(0.1 -0.1)"><path d="M0.0 0.0 -1.0 -26.0H544.0V0.0ZM218.0 200.0C171.0 -119.0 86.0 -380.0 -74.0 -551.0C-69.0 -554.0 -57.0 -566.0 -53.0 -572.0C111.0 -391.0 194.0 -135.0 246.0 195.0Z"/></g>
<g fill="red" transform="translate(600 400) scale(0.1 -0.1)"><path d="M0.0 0.0V-137.0H572.0V0.0ZM146.0 153.0C115.0 -161.0 51.0 -444.0 -88.0 -608.0C-57.0 -633.0 -2.0 -689.0 18.0 -717.0C168.0 -522.0 243.0 -207.0 283.0 139.0Z"/></g>
<g fill="black" opacity=".8" transform="translate(600 400) scale(0.1 -0.1)"><path d="M0.0 0.0V-135.0H571.0V0.0ZM148.0 153.0C118.0 -154.0 47.0 -449.0 -94.0 -609.0C-63.0 -634.0 -8.0 -688.0 16.0 -713.0C168.0 -521.0 248.0 -204.0 290.0 136.0Z"/></g>
<g fill="red" transform="translate(700 400) scale(0.1 -0.1)"><path d="M0.0 0.0V-29.0H565.0V0.0ZM213.0 137.0C168.0 -59.0 94.0 -243.0 -5.0 -362.0C1.0 -369.0 10.0 -383.0 14.0 -390.0C117.0 -260.0 194.0 -73.0 242.0 131.0Z"/></g>
<g fill="black" opacity=".8" transform="translate(700 400) scale(0.1 -0.1)"><path d="M0.0 0.0V-30.0H569.0V0.0ZM212.0 141.0C171.0 -60.0 98.0 -247.0 -20.0 -359.0C-13.0 -364.0 0.0 -376.0 5.0 -382.0C124.0 -260.0 199.0 -74.0 243.0 135.0Z"/></g>
<g fill="red" transform="translate(800 400) scale(0.1 -0.1)"><path d="M0.0 0.0V-139.0H599.0V0.0ZM177.0 115.0C137.0 -89.0 60.0 -276.0 -57.0 -389.0C-31.0 -420.0 11.0 -489.0 26.0 -522.0C165.0 -380.0 260.0 -152.0 313.0 88.0Z"/></g>
<g fill="black" opacity=".8" transform="translate(800 400) scale(0.1 -0.1)"><path d="M0.0 0.0V-140.0H595.0V0.0ZM166.0 113.0C133.0 -95.0 68.0 -280.0 -52.0 -389.0C-24.0 -421.0 18.0 -490.0 36.0 -522.0C178.0 -383.0 262.0 -158.0 307.0 88.0Z"/></g>
<g fill="red" transform="translate(900 400) scale(0.1 -0.1)"><path d="M0.0 0.0V-30.0H278.0V0.0ZM223.0 -135.0C177.0 -341.0 91.0 -511.0 -42.0 -618.0C-35.0 -623.0 -23.0 -633.0 -19.0 -638.0C114.0 -526.0 203.0 -356.0 253.0 -139.0Z"/></g>
<g fill="black" opacity=".8" transform="translate(900 400) scale(0.1 -0.1)"><path d="M0.0 0.0V-29.0H278.0V0.0ZM223.0 -131.0C178.0 -338.0 91.0 -512.0 -43.0 -618.0C-36.0 -622.0 -23.0 -635.0 -19.0 -641.0C115.0 -527.0 204.0 -354.0 253.0 -137.0Z"/></g>
<g fill="red" transform="translate(1000 400) scale(0.1 -0.1)"><path d="M0.0 0.0V-126.0H289.0V0.0ZM167.0 -171.0C135.0 -371.0 63.0 -541.0 -64.0 -638.0C-34.0 -661.0 19.0 -716.0 39.0 -743.0C177.0 -623.0 263.0 -427.0 307.0 -193.0Z"/></g>
<g fill="black" opacity=".8" transform="translate(1000 400) scale(0.1 -0.1)"><path d="M0.0 0.0V-125.0H290.0V0.0ZM169.0 -172.0C137.0 -375.0 63.0 -541.0 -63.0 -636.0C-32.0 -661.0 18.0 -715.0 39.0 -742.0C174.0 -624.0 262.0 -431.0 306.0 -195.0Z"/></g>
<g fill="red" transform="translate(1100 400) scale(0.1 -0.1)"><path d="M0.0 0.0V-30.0H614.0V0.0ZM243.0 103.0C196.0 -53.0 107.0 -183.0 -9.0 -266.0C-1.0 -271.0 12.0 -281.0 17.0 -286.0C131.0 -199.0 222.0 -68.0 273.0 96.0Z"/></g>
<g fill="black" opacity=".8" transform="translate(1100 400) scale(0.1 -0.1)"><path d="M0.0 0.0 -2.0 -28.0H597.0V0.0ZM248.0 99.0C204.0 -55.0 114.0 -188.0 -2.0 -270.0C5.0 -275.0 18.0 -285.0 22.0 -290.0C136.0 -202.0 228.0 -68.0 275.0 91.0Z"/></g>
<g fill="red" transform="translate(1200 400) scale(0.1 -0.1)"><path d="M0.0 0.0V-109.0H509.0V0.0ZM163.0 67.0C132.0 -59.0 64.0 -164.0 -36.0 -226.0C-11.0 -247.0 30.0 -294.0 46.0 -318.0C158.0 -239.0 239.0 -111.0 281.0 45.0Z"/></g>
<g fill="black" opacity=".8" transform="translate(1200 400) scale(0.1 -0.1)"><path d="M0.0 0.0 -5.0 -109.0H526.0V0.0ZM156.0 73.0C125.0 -56.0 53.0 -161.0 -46.0 -224.0C-19.0 -244.0 26.0 -291.0 47.0 -314.0C152.0 -235.0 236.0 -109.0 280.0 47.0Z"/></g>
<g fill="red" transform="translate(1300 400) scale(0.1 -0.1)"><path d="M0.0 0.0V-30.0H869.0V0.0ZM353.0 154.0C279.0 -103.0 159.0 -323.0 -16.0 -462.0C-8.0 -467.0 5.0 -477.0 10.0 -483.0C182.0 -337.0 303.0 -120.0 381.0 148.0Z"/></g>
<g fill="black" opacity=".8" transform="translate(1300 400) scale(0.1 -0.1)"><path d="M0.0 0.0 -1.0 -31.0H865.0V0.0ZM350.0 163.0C285.0 -109.0 163.0 -319.0 -18.0 -460.0C-11.0 -465.0 2.0 -478.0 6.0 -485.0C189.0 -336.0 311.0 -126.0 382.0 154.0Z"/></g>
<g fill="red" transform="translate(1400 400) scale(0.1 -0.1)"><path d="M0.0 0.0V-137.0H892.0V0.0ZM317.0 134.0C253.0 -106.0 133.0 -320.0 -29.0 -443.0C6.0 -469.0 69.0 -526.0 94.0 -556.0C259.0 -410.0 392.0 -169.0 471.0 99.0Z"/></g>
<g fill="black" opacity=".8" transform="translate(1400 400) scale(0.1 -0.1)"><path d="M0.0 0.0 1.0 -141.0H896.0V0.0ZM304.0 127.0C254.0 -103.0 141.0 -325.0 -26.0 -441.0C8.0 -468.0 64.0 -524.0 91.0 -553.0C268.0 -412.0 393.0 -171.0 462.0 95.0Z"/></g>
<g fill="red" transform="translate(1500 400) scale(0.1 -0.1)"><path d="M0.0 0.0V-29.0H865.0V0.0ZM362.0 130.0C289.0 -55.0 161.0 -203.0 -1.0 -295.0C7.0 -300.0 19.0 -311.0 23.0 -316.0C182.0 -219.0 314.0 -71.0 390.0 122.0Z"/></g>
<g fill="black" opacity=".8" transform="translate(1500 400) scale(0.1 -0.1)"><path d="M0.0 0.0 -1.0 -27.0H868.0V0.0ZM359.0 121.0C290.0 -68.0 162.0 -202.0 2.0 -296.0C8.0 -301.0 19.0 -313.0 23.0 -319.0C184.0 -220.0 314.0 -83.0 387.0 111.0Z"/></g>
<g fill="red" transform="translate(1600 400) scale(0.1 -0.1)"><path d="M0.0 0.0V-124.0H887.0V0.0ZM303.0 96.0C245.0 -85.0 125.0 -228.0 -39.0 -307.0C-8.0 -332.0 46.0 -388.0 68.0 -417.0C236.0 -318.0 371.0 -152.0 446.0 61.0Z"/></g>
<g fill="black" opacity=".8" transform="translate(1600 400) scale(0.1 -0.1)"><path d="M0.0 0.0V-127.0H884.0V0.0ZM304.0 103.0C248.0 -63.0 127.0 -221.0 -30.0 -303.0C-3.0 -333.0 38.0 -394.0 58.0 -424.0C234.0 -319.0 369.0 -137.0 447.0 66.0Z"/></g>
<g fill="red" transform="translate(100 500) scale(0.1 -0.1)"><path d="M0.0 0.0V-30.0H566.0V0.0ZM222.0 168.0C174.0 -93.0 92.0 -319.0 -52.0 -461.0C-44.0 -466.0 -31.0 -476.0 -26.0 -480.0C116.0 -331.0 199.0 -109.0 252.0 163.0Z"/></g>
<g fill="black" opacity=".8" transform="translate(100 500) scale(0.1 -0.1)"><path d="M0.0 0.0 -1.0 -27.0H571.0V0.0ZM219.0 154.0C173.0 -103.0 89.0 -318.0 -46.0 -463.0C-40.0 -467.0 -27.0 -478.0 -23.0 -483.0C113.0 -331.0 197.0 -118.0 247.0 147.0Z"/></g>
<g fill="red" transform="translate(200 500) scale(0.1 -0.1)"><path d="M0.0 0.0V-127.0H563.0V0.0ZM142.0 92.0C114.0 -132.0 53.0 -335.0 -58.0 -453.0C-27.0 -469.0 33.0 -507.0 57.0 -527.0C167.0 -391.0 236.0 -172.0 272.0 75.0Z"/></g>
<g fill="black" opacity=".8" transform="translate(200 500) scale(0.1 -0.1)"><path d="M0.0 0.0 -2.0 -124.0H559.0V0.0ZM144.0 103.0C118.0 -111.0 50.0 -331.0 -60.0 -451.0C-28.0 -470.0 30.0 -512.0 55.0 -533.0C165.0 -391.0 240.0 -158.0 278.0 84.0Z"/></g>
<g fill="red" transform="translate(300 500) scale(0.1 -0.1)"><path d="M0.0 0.0V-29.0H842.0V0.0ZM312.0 193.0C263.0 -101.0 173.0 -418.0 -38.0 -616.0C-31.0 -621.0 -21.0 -632.0 -16.0 -638.0C198.0 -434.0 289.0 -114.0 343.0 188.0Z"/></g>
<g fill="black" opacity=".8" transform="translate(300 500) scale(0.1 -0.1)"><path d="M0.0 0.0V-28.0H840.0V0.0ZM315.0 199.0C268.0 -93.0 178.0 -427.0 -46.0 -611.0C-40.0 -616.0 -28.0 -626.0 -24.0 -633.0C205.0 -440.0 293.0 -108.0 344.0 193.0Z"/></g>
<g fill="red" transform="translate(400 500) scale(0.1 -0.1)"><path d="M0.0 0.0V-140.0H896.0V0.0ZM287.0 161.0C250.0 -120.0 165.0 -452.0 -41.0 -626.0C-12.0 -655.0 32.0 -709.0 54.0 -743.0C290.0 -535.0 385.0 -182.0 439.0 142.0Z"/></g>
<g fill="black" opacity=".8" transform="translate(400 500) scale(0.1 -0.1)"><path d="M0.0 0.0 2.0 -140.0H899.0V0.0ZM280.0 161.0C244.0 -136.0 165.0 -457.0 -46.0 -627.0C-9.0 -655.0 42.0 -706.0 69.0 -737.0C295.0 -537.0 385.0 -193.0 436.0 141.0Z"/></g>
<g fill="red" transform="translate(500 500) scale(0.1 -0.1)"><path d="M0.0 0.0V-30.0H865.0V0.0ZM356.0 164.0C292.0 -49.0 166.0 -267.0 -24.0 -401.0C-17.0 -406.0 -8.0 -417.0 -3.0 -423.0C191.0 -285.0 315.0 -64.0 386.0 156.0Z"/></g>
<g fill="black" opacity=".8" transform="translate(500 500) scale(0.1 -0.1)"><path d="M0.0 0.0V-28.0H862.0V0.0ZM356.0 163.0C292.0 -51.0 171.0 -270.0 -24.0 -400.0C-18.0 -405.0 -8.0 -417.0 -4.0 -424.0C196.0 -287.0 316.0 -66.0 385.0 155.0Z"/></g>
<g fill="red" transform="translate(600 500) scale(0.1 -0.1)"><path d="M0.0 0.0V-139.0H905.0V0.0ZM311.0 139.0C262.0 -70.0 149.0 -307.0 -39.0 -428.0C-13.0 -461.0 25.0 -520.0 43.0 -557.0C263.0 -405.0 388.0 -148.0 462.0 105.0Z"/></g>
<g fill="black" opacity=".8" transform="translate(600 500) scale(0.1 -0.1)"><path d="M0.0 0.0 1.0 -137.0H908.0V0.0ZM310.0 140.0C258.0 -71.0 146.0 -305.0 -46.0 -427.0C-15.0 -460.0 26.0 -522.0 49.0 -556.0C263.0 -405.0 390.0 -144.0 463.0 107.0Z"/></g>
<g fill="red" transform="translate(700 500) scale(0.1 -0.1)"><path d="M0.0 0.0V-29.0H874.0V0.0ZM363.0 126.0C300.0 -53.0 165.0 -226.0 -17.0 -329.0C-11.0 -335.0 -2.0 -346.0 3.0 -353.0C188.0 -245.0 322.0 -70.0 393.0 117.0Z"/></g>
<g fill="black" opacity=".8" transform="translate(700 500) scale(0.1 -0.1)"><path d="M0.0 0.0 -1.0 -28.0H874.0V0.0ZM365.0 127.0C298.0 -57.0 167.0 -226.0 -19.0 -330.0C-12.0 -335.0 -2.0 -347.0 2.0 -354.0C190.0 -244.0 321.0 -72.0 394.0 118.0Z"/></g>
<g fill="red" transform="translate(800 500) scale(0.1 -0.1)"><path d="M0.0 0.0V-126.0H901.0V0.0ZM328.0 111.0C273.0 -48.0 146.0 -219.0 -33.0 -308.0C-3.0 -334.0 42.0 -385.0 64.0 -417.0C257.0 -311.0 393.0 -123.0 476.0 71.0Z"/></g>
<g fill="black" opacity=".8" transform="translate(800 500) scale(0.1 -0.1)"><path d="M0.0 0.0V-125.0H901.0V0.0ZM327.0 108.0C271.0 -48.0 149.0 -218.0 -31.0 -304.0C-2.0 -333.0 40.0 -388.0 63.0 -418.0C259.0 -311.0 395.0 -121.0 474.0 72.0Z"/></g>
<g fill="red" transform="translate(900 500) scale(0.1 -0.1)"><path d="M0.0 0.0V-29.0H614.0V0.0ZM281.0 161.0C223.0 -50.0 116.0 -215.0 -41.0 -317.0C-33.0 -322.0 -21.0 -333.0 -16.0 -338.0C139.0 -229.0 248.0 -65.0 309.0 155.0Z"/></g>
<g fill="black" opacity=".8" transform="translate(900 500) scale(0.1 -0.1)"><path d="M0.0 0.0 -1.0 -29.0H611.0V0.0ZM278.0 168.0C220.0 -43.0 113.0 -210.0 -33.0 -319.0C-26.0 -323.0 -15.0 -336.0 -10.0 -343.0C138.0 -226.0 246.0 -58.0 307.0 160.0Z"/></g>
<g fill="red" transform="translate(1000 500) scale(0.1 -0.1)"><path d="M0.0 0.0V-134.0H599.0V0.0ZM189.0 150.0C144.0 -57.0 59.0 -243.0 -70.0 -355.0C-47.0 -394.0 -14.0 -480.0 -4.0 -520.0C162.0 -372.0 271.0 -132.0 331.0 120.0Z"/></g>
<g fill="black" opacity=".8" transform="translate(1000 500) scale(0.1 -0.1)"><path d="M0.0 0.0 -3.0 -135.0H601.0V0.0ZM193.0 146.0C149.0 -70.0 55.0 -257.0 -87.0 -365.0C-60.0 -398.0 -19.0 -469.0 -1.0 -503.0C165.0 -365.0 277.0 -139.0 338.0 116.0Z"/></g>
<g fill="red" transform="translate(1100 500) scale(0.1 -0.1)"><path d="M0.0 0.0V-29.0H570.0V0.0ZM152.0 188.0C151.0 -77.0 143.0 -503.0 -94.0 -690.0C-86.0 -694.0 -74.0 -701.0 -68.0 -706.0C171.0 -511.0 180.0 -87.0 182.0 188.0Z"/></g>
<g fill="black" opacity=".8" transform="translate(1100 500) scale(0.1 -0.1)"><path d="M0.0 0.0 -1.0 -28.0H572.0V0.0ZM149.0 174.0C150.0 -84.0 138.0 -508.0 -84.0 -693.0C-78.0 -696.0 -65.0 -704.0 -61.0 -710.0C165.0 -515.0 178.0 -94.0 178.0 174.0Z"/></g>
<g fill="red" transform="translate(1200 500) scale(0.1 -0.1)"><path d="M0.0 0.0V-134.0H586.0V0.0ZM108.0 144.0C106.0 -217.0 120.0 -518.0 -105.0 -699.0C-69.0 -722.0 -26.0 -768.0 -4.0 -802.0C243.0 -595.0 247.0 -248.0 249.0 144.0Z"/></g>
<g fill="black" opacity=".8" transform="translate(1200 500) scale(0.1 -0.1)"><path d="M0.0 0.0 -2.0 -128.0H584.0V0.0ZM115.0 153.0C111.0 -194.0 112.0 -509.0 -107.0 -696.0C-70.0 -723.0 -33.0 -773.0 -9.0 -811.0C232.0 -592.0 250.0 -233.0 256.0 153.0Z"/></g>
<g fill="red" transform="translate(1300 500) scale(0.1 -0.1)"><path d="M0.0 0.0V-29.0H596.0V0.0ZM267.0 151.0C210.0 -74.0 108.0 -257.0 -47.0 -372.0C-39.0 -377.0 -26.0 -387.0 -22.0 -392.0C130.0 -270.0 234.0 -89.0 295.0 145.0Z"/></g>
<g fill="black" opacity=".8" transform="translate(1300 500) scale(0.1 -0.1)"><path d="M0.0 0.0 -1.0 -28.0H604.0V0.0ZM262.0 164.0C211.0 -71.0 109.0 -255.0 -55.0 -368.0C-48.0 -372.0 -36.0 -384.0 -32.0 -390.0C133.0 -269.0 236.0 -85.0 292.0 157.0Z"/></g>
<g fill="red" transform="translate(1400 500) scale(0.1 -0.1)"><path d="M0.0 0.0V-134.0H613.0V0.0ZM218.0 154.0C171.0 -68.0 73.0 -247.0 -85.0 -350.0C-58.0 -375.0 -11.0 -432.0 6.0 -460.0C178.0 -334.0 291.0 -127.0 351.0 129.0Z"/></g>
<g fill="black" opacity=".8" transform="translate(1400 500) scale(0.1 -0.1)"><path d="M0.0 0.0 -3.0 -124.0H605.0V0.0ZM212.0 147.0C170.0 -77.0 77.0 -249.0 -78.0 -346.0C-50.0 -373.0 -6.0 -433.0 14.0 -463.0C187.0 -341.0 295.0 -140.0 353.0 119.0Z"/></g>
<g fill="red" transform="translate(1500 500) scale(0.1 -0.1)"><path d="M0.0 0.0V-30.0H578.0V0.0ZM241.0 -145.0C191.0 -341.0 97.0 -498.0 -43.0 -595.0C-35.0 -601.0 -23.0 -612.0 -18.0 -618.0C119.0 -514.0 217.0 -357.0 270.0 -151.0Z"/></g>
<g fill="black" opacity=".8" transform="translate(1500 500) scale(0.1 -0.1)"><path d="M0.0 0.0V-30.0H580.0V0.0ZM242.0 -137.0C192.0 -336.0 96.0 -497.0 -47.0 -594.0C-40.0 -599.0 -27.0 -611.0 -23.0 -617.0C120.0 -513.0 218.0 -352.0 272.0 -143.0Z"/></g>
<g fill="red" transform="translate(1600 500) scale(0.1 -0.1)"><path d="M0.0 0.0V-126.0H586.0V0.0ZM196.0 -168.0C153.0 -348.0 63.0 -499.0 -73.0 -584.0C-42.0 -609.0 12.0 -665.0 33.0 -693.0C177.0 -586.0 282.0 -410.0 339.0 -197.0Z"/></g>
<g fill="black" opacity=".8" transform="translate(1600 500) scale(0.1 -0.1)"><path d="M0.0 0.0 2.0 -127.0H585.0V0.0ZM193.0 -173.0C155.0 -360.0 69.0 -505.0 -70.0 -584.0C-38.0 -609.0 13.0 -661.0 36.0 -688.0C183.0 -589.0 282.0 -420.0 335.0 -200.0Z"/></g>
<g fill="red" transform="translate(100 600) scale(0.1 -0.1)"><path d="M0.0 0.0V-29.0H860.0V0.0ZM345.0 138.0C286.0 -69.0 163.0 -278.0 -17.0 -407.0C-12.0 -413.0 -3.0 -423.0 0.0 -430.0C186.0 -297.0 307.0 -83.0 373.0 130.0Z"/></g>
<g fill="black" opacity=".8" transform="translate(100 600) scale(0.1 -0.1)"><path d="M0.0 0.0 -1.0 -29.0H863.0V0.0ZM342.0 143.0C281.0 -68.0 164.0 -279.0 -21.0 -406.0C-14.0 -411.0 -3.0 -423.0 1.0 -429.0C189.0 -296.0 306.0 -83.0 372.0 134.0Z"/></g>
<g fill="red" transform="translate(200 600) scale(0.1 -0.1)"><path d="M0.0 0.0V-136.0H901.0V0.0ZM300.0 117.0C253.0 -67.0 146.0 -278.0 -25.0 -388.0C4.0 -416.0 50.0 -468.0 72.0 -501.0C263.0 -368.0 381.0 -139.0 451.0 83.0Z"/></g>
<g fill="black" opacity=".8" transform="translate(200 600) scale(0.1 -0.1)"><path d="M0.0 0.0 1.0 -133.0H898.0V0.0ZM303.0 113.0C254.0 -71.0 147.0 -280.0 -28.0 -388.0C3.0 -416.0 51.0 -469.0 75.0 -499.0C265.0 -368.0 384.0 -139.0 453.0 81.0Z"/></g>
<g fill="red" transform="translate(300 600) scale(0.1 -0.1)"><path d="M0.0 0.0V-29.0H473.0V0.0ZM192.0 108.0C149.0 -46.0 76.0 -186.0 -20.0 -277.0C-12.0 -282.0 1.0 -292.0 6.0 -297.0C99.0 -201.0 176.0 -59.0 222.0 102.0Z"/></g>
<g fill="black" opacity=".8" transform="translate(300 600) scale(0.1 -0.1)"><path d="M0.0 0.0 -1.0 -28.0H474.0V0.0ZM190.0 109.0C151.0 -48.0 78.0 -188.0 -18.0 -276.0C-12.0 -281.0 0.0 -292.0 5.0 -297.0C101.0 -202.0 176.0 -61.0 218.0 102.0Z"/></g>
<g fill="red" transform="translate(400 600) scale(0.1 -0.1)"><path d="M0.0 0.0V-121.0H500.0V0.0ZM166.0 82.0C134.0 -54.0 69.0 -175.0 -23.0 -248.0C0.0 -273.0 40.0 -331.0 54.0 -358.0C165.0 -264.0 245.0 -112.0 289.0 56.0Z"/></g>
<g fill="black" opacity=".8" transform="translate(400 600) scale(0.1 -0.1)"><path d="M0.0 0.0V-121.0H499.0V0.0ZM167.0 82.0C135.0 -53.0 68.0 -176.0 -27.0 -249.0C-1.0 -275.0 39.0 -331.0 56.0 -357.0C165.0 -262.0 247.0 -110.0 292.0 56.0Z"/></g>
<g fill="red" transform="translate(500 600) scale(0.1 -0.1)"><path d="M0.0 0.0V-29.0H583.0V0.0ZM183.0 195.0C153.0 -177.0 103.0 -490.0 -55.0 -687.0C-48.0 -691.0 -34.0 -700.0 -29.0 -705.0C130.0 -498.0 180.0 -194.0 213.0 193.0Z"/></g>
<g fill="black" opacity=".8" transform="translate(500 600) scale(0.1 -0.1)"><path d="M0.0 0.0V-29.0H584.0V0.0ZM183.0 194.0C152.0 -174.0 100.0 -491.0 -52.0 -688.0C-45.0 -692.0 -31.0 -702.0 -26.0 -708.0C128.0 -500.0 179.0 -190.0 213.0 190.0Z"/></g>
<g fill="red" transform="translate(600 600) scale(0.1 -0.1)"><path d="M0.0 0.0V-142.0H590.0V0.0ZM103.0 131.0C95.0 -217.0 62.0 -532.0 -66.0 -708.0C-30.0 -729.0 41.0 -779.0 64.0 -803.0C196.0 -594.0 236.0 -256.0 251.0 127.0Z"/></g>
<g fill="black" opacity=".8" transform="translate(600 600) scale(0.1 -0.1)"><path d="M0.0 0.0 1.0 -141.0H589.0V0.0ZM109.0 135.0C96.0 -220.0 59.0 -534.0 -67.0 -710.0C-30.0 -730.0 37.0 -776.0 64.0 -799.0C193.0 -593.0 236.0 -257.0 255.0 128.0Z"/></g>
<g fill="red" transform="translate(700 600) scale(0.1 -0.1)"><path d="M0.0 0.0V-29.0H622.0V0.0ZM247.0 145.0C199.0 -62.0 111.0 -233.0 -23.0 -342.0C-15.0 -347.0 -3.0 -357.0 2.0 -361.0C134.0 -247.0 224.0 -76.0 276.0 139.0Z"/></g>
<g fill="black" opacity=".8" transform="translate(700 600) scale(0.1 -0.1)"><path d="M0.0 0.0 -1.0 -28.0H626.0V0.0ZM249.0 152.0C199.0 -61.0 107.0 -231.0 -24.0 -342.0C-18.0 -346.0 -6.0 -358.0 -1.0 -364.0C132.0 -245.0 224.0 -75.0 278.0 144.0Z"/></g>
<g fill="red" transform="translate(800 600) scale(0.1 -0.1)"><path d="M0.0 0.0V-135.0H640.0V0.0ZM195.0 129.0C152.0 -75.0 65.0 -256.0 -63.0 -362.0C-33.0 -387.0 20.0 -444.0 40.0 -472.0C178.0 -343.0 279.0 -132.0 334.0 102.0Z"/></g>
<g fill="black" opacity=".8" transform="translate(800 600) scale(0.1 -0.1)"><path d="M0.0 0.0 -1.0 -131.0H637.0V0.0ZM193.0 125.0C155.0 -76.0 72.0 -255.0 -54.0 -355.0C-26.0 -384.0 17.0 -446.0 36.0 -475.0C180.0 -348.0 278.0 -139.0 331.0 98.0Z"/></g>
<g fill="red" transform="translate(900 600) scale(0.1 -0.1)"><path d="M0.0 0.0V-29.0H645.0V0.0ZM224.0 174.0C175.0 -102.0 94.0 -343.0 -49.0 -497.0C-41.0 -501.0 -28.0 -511.0 -23.0 -515.0C119.0 -355.0 201.0 -117.0 255.0 169.0Z"/></g>
<g fill="black" opacity=".8" transform="translate(900 600) scale(0.1 -0.1)"><path d="M0.0 0.0 -1.0 -29.0H651.0V0.0ZM227.0 167.0C180.0 -108.0 93.0 -342.0 -60.0 -491.0C-53.0 -496.0 -40.0 -507.0 -35.0 -513.0C119.0 -355.0 206.0 -124.0 257.0 160.0Z"/></g>
<g fill="red" transform="translate(1000 600) scale(0.1 -0.1)"><path d="M0.0 0.0V-132.0H662.0V0.0ZM177.0 117.0C131.0 -132.0 44.0 -361.0 -90.0 -494.0C-57.0 -515.0 6.0 -563.0 30.0 -588.0C166.0 -433.0 264.0 -181.0 320.0 93.0Z"/></g>
<g fill="black" opacity=".8" transform="translate(1000 600) scale(0.1 -0.1)"><path d="M0.0 0.0 -1.0 -136.0H656.0V0.0ZM163.0 124.0C131.0 -127.0 57.0 -361.0 -78.0 -490.0C-45.0 -515.0 11.0 -568.0 36.0 -594.0C180.0 -438.0 264.0 -181.0 309.0 103.0Z"/></g>
<g fill="red" transform="translate(1100 600) scale(0.1 -0.1)"><path d="M0.0 0.0V-30.0H292.0V0.0ZM254.0 -135.0C203.0 -335.0 107.0 -496.0 -34.0 -597.0C-26.0 -602.0 -15.0 -613.0 -10.0 -619.0C130.0 -511.0 229.0 -350.0 284.0 -140.0Z"/></g>
<g fill="black" opacity=".8" transform="translate(1100 600) scale(0.1 -0.1)"><path d="M0.0 0.0 -1.0 -29.0H289.0V0.0ZM255.0 -133.0C205.0 -334.0 108.0 -498.0 -31.0 -599.0C-24.0 -603.0 -12.0 -616.0 -8.0 -622.0C132.0 -513.0 230.0 -350.0 284.0 -139.0Z"/></g>
<g fill="red" transform="translate(1200 600) scale(0.1 -0.1)"><path d="M0.0 0.0V-126.0H293.0V0.0ZM187.0 -171.0C152.0 -374.0 74.0 -542.0 -61.0 -637.0C-31.0 -662.0 22.0 -716.0 42.0 -743.0C187.0 -625.0 279.0 -430.0 327.0 -194.0Z"/></g>
<g fill="black" opacity=".8" transform="translate(1200 600) scale(0.1 -0.1)"><path d="M0.0 0.0V-124.0H296.0V0.0ZM190.0 -171.0C154.0 -372.0 71.0 -540.0 -60.0 -633.0C-30.0 -660.0 18.0 -716.0 39.0 -744.0C181.0 -626.0 277.0 -431.0 327.0 -196.0Z"/></g>
<g fill="red" transform="translate(1300 600) scale(0.1 -0.1)"><path d="M0.0 0.0V-30.0H653.0V0.0ZM253.0 114.0C198.0 -63.0 103.0 -215.0 -24.0 -311.0C-16.0 -316.0 -3.0 -327.0 1.0 -332.0C126.0 -230.0 224.0 -78.0 282.0 108.0Z"/></g>
<g fill="black" opacity=".8" transform="translate(1300 600) scale(0.1 -0.1)"><path d="M0.0 0.0 -1.0 -28.0H660.0V0.0ZM250.0 112.0C199.0 -68.0 103.0 -215.0 -25.0 -311.0C-18.0 -315.0 -6.0 -326.0 -2.0 -332.0C126.0 -230.0 223.0 -82.0 277.0 104.0Z"/></g>
<g fill="red" transform="translate(1400 600) scale(0.1 -0.1)"><path d="M0.0 0.0V-116.0H640.0V0.0ZM169.0 83.0C131.0 -82.0 49.0 -223.0 -72.0 -304.0C-42.0 -327.0 10.0 -379.0 30.0 -405.0C159.0 -305.0 254.0 -140.0 305.0 56.0Z"/></g>
<g fill="black" opacity=".8" transform="translate(1400 600) scale(0.1 -0.1)"><path d="M0.0 0.0 -2.0 -120.0H633.0V0.0ZM174.0 85.0C137.0 -76.0 54.0 -221.0 -64.0 -303.0C-36.0 -328.0 7.0 -382.0 27.0 -408.0C157.0 -305.0 253.0 -135.0 305.0 58.0Z"/></g>
<g fill="red" transform="translate(1500 600) scale(0.1 -0.1)"><path d="M0.0 0.0V-30.0H578.0V0.0ZM231.0 -135.0C186.0 -326.0 100.0 -482.0 -28.0 -580.0C-20.0 -586.0 -8.0 -597.0 -3.0 -602.0C122.0 -497.0 211.0 -340.0 260.0 -140.0Z"/></g>
<g fill="black" opacity=".8" transform="translate(1500 600) scale(0.1 -0.1)"><path d="M0.0 0.0V-28.0H573.0V0.0ZM233.0 -133.0C187.0 -326.0 103.0 -486.0 -25.0 -582.0C-19.0 -587.0 -6.0 -598.0 -2.0 -604.0C127.0 -500.0 212.0 -341.0 261.0 -139.0Z"/></g>
<g fill="red" transform="translate(1600 600) scale(0.1 -0.1)"><path d="M0.0 0.0V-125.0H581.0V0.0ZM179.0 -172.0C149.0 -364.0 76.0 -521.0 -54.0 -610.0C-25.0 -633.0 25.0 -686.0 44.0 -712.0C186.0 -602.0 272.0 -420.0 315.0 -192.0Z"/></g>
<g fill="black" opacity=".8" transform="translate(1600 600) scale(0.1 -0.1)"><path d="M0.0 0.0 3.0 -125.0H586.0V0.0ZM181.0 -170.0C147.0 -362.0 72.0 -520.0 -55.0 -607.0C-25.0 -632.0 22.0 -685.0 43.0 -711.0C181.0 -603.0 268.0 -420.0 315.0 -195.0Z"/></g>
<g fill="red" transform="translate(100 700) scale(0.1 -0.1)"><path d="M0.0 0.0V-29.0H513.0V0.0ZM187.0 188.0C150.0 -111.0 78.0 -342.0 -90.0 -486.0C-82.0 -491.0 -70.0 -501.0 -64.0 -507.0C102.0 -354.0 177.0 -126.0 218.0 184.0Z"/></g>
<g fill="black" opacity=".8" transform="translate(100 700) scale(0.1 -0.1)"><path d="M0.0 0.0 -1.0 -28.0H508.0V0.0ZM192.0 184.0C154.0 -109.0 79.0 -348.0 -90.0 -487.0C-83.0 -492.0 -71.0 -502.0 -66.0 -509.0C104.0 -360.0 180.0 -123.0 222.0 179.0Z"/></g>
<g fill="red" transform="translate(200 700) scale(0.1 -0.1)"><path d="M0.0 0.0V-131.0H559.0V0.0ZM183.0 158.0C154.0 -131.0 81.0 -356.0 -99.0 -479.0C-68.0 -506.0 -14.0 -569.0 5.0 -599.0C202.0 -446.0 292.0 -190.0 332.0 143.0Z"/></g>
<g fill="black" opacity=".8" transform="translate(200 700) scale(0.1 -0.1)"><path d="M0.0 0.0 -1.0 -133.0H564.0V0.0ZM185.0 166.0C151.0 -132.0 77.0 -350.0 -91.0 -475.0C-61.0 -504.0 -17.0 -568.0 3.0 -601.0C193.0 -446.0 283.0 -191.0 330.0 145.0Z"/></g>
<g fill="red" transform="translate(300 700) scale(0.1 -0.1)"><path d="M0.0 0.0V-29.0H561.0V0.0ZM175.0 195.0C152.0 -168.0 112.0 -485.0 -20.0 -687.0C-13.0 -691.0 0.0 -700.0 6.0 -705.0C139.0 -492.0 179.0 -184.0 206.0 193.0Z"/></g>
<g fill="black" opacity=".8" transform="translate(300 700) scale(0.1 -0.1)"><path d="M0.0 0.0V-30.0H555.0V0.0ZM179.0 194.0C154.0 -167.0 116.0 -489.0 -22.0 -685.0C-16.0 -689.0 -1.0 -700.0 4.0 -705.0C144.0 -497.0 182.0 -183.0 210.0 192.0Z"/></g>
<g fill="red" transform="translate(400 700) scale(0.1 -0.1)"><path d="M0.0 0.0V-142.0H552.0V0.0ZM110.0 131.0C104.0 -214.0 75.0 -531.0 -39.0 -708.0C-4.0 -729.0 63.0 -779.0 85.0 -802.0C204.0 -592.0 239.0 -252.0 251.0 127.0Z"/></g>
<g fill="black" opacity=".8" transform="translate(400 700) scale(0.1 -0.1)"><path d="M0.0 0.0 1.0 -143.0H558.0V0.0ZM105.0 134.0C97.0 -220.0 73.0 -531.0 -41.0 -709.0C-3.0 -729.0 63.0 -776.0 90.0 -798.0C206.0 -591.0 237.0 -255.0 249.0 130.0Z"/></g>
<g fill="red" transform="translate(500 700) scale(0.1 -0.1)"><path d="M0.0 0.0V-30.0H525.0V0.0ZM200.0 168.0C158.0 -101.0 87.0 -338.0 -45.0 -489.0C-37.0 -494.0 -24.0 -504.0 -19.0 -509.0C113.0 -350.0 184.0 -117.0 230.0 164.0Z"/></g>
<g fill="black" opacity=".8" transform="translate(500 700) scale(0.1 -0.1)"><path d="M0.0 0.0V-26.0H535.0V0.0ZM197.0 155.0C156.0 -111.0 84.0 -338.0 -42.0 -489.0C-37.0 -493.0 -24.0 -504.0 -20.0 -509.0C109.0 -350.0 179.0 -126.0 224.0 149.0Z"/></g>
<g fill="red" transform="translate(600 700) scale(0.1 -0.1)"><path d="M0.0 0.0V-127.0H563.0V0.0ZM136.0 92.0C111.0 -148.0 55.0 -370.0 -52.0 -499.0C-20.0 -515.0 41.0 -552.0 64.0 -571.0C171.0 -423.0 234.0 -186.0 266.0 77.0Z"/></g>
<g fill="black" opacity=".8" transform="translate(600 700) scale(0.1 -0.1)"><path d="M0.0 0.0V-126.0H553.0V0.0ZM140.0 102.0C116.0 -128.0 58.0 -367.0 -48.0 -496.0C-17.0 -516.0 40.0 -559.0 64.0 -579.0C172.0 -426.0 237.0 -172.0 271.0 86.0Z"/></g>
<g fill="red" transform="translate(700 700) scale(0.1 -0.1)"><path d="M0.0 0.0V-29.0H521.0V0.0ZM146.0 195.0C123.0 -168.0 83.0 -485.0 -49.0 -687.0C-42.0 -691.0 -29.0 -700.0 -23.0 -705.0C110.0 -492.0 150.0 -184.0 177.0 193.0Z"/></g>
<g fill="black" opacity=".8" transform="translate(700 700) scale(0.1 -0.1)"><path d="M0.0 0.0V-29.0H514.0V0.0ZM149.0 195.0C124.0 -169.0 88.0 -489.0 -47.0 -687.0C-41.0 -691.0 -26.0 -702.0 -21.0 -707.0C116.0 -497.0 151.0 -185.0 180.0 192.0Z"/></g>
<g fill="red" transform="translate(800 700) scale(0.1 -0.1)"><path d="M0.0 0.0V-142.0H552.0V0.0ZM110.0 131.0C104.0 -214.0 75.0 -531.0 -39.0 -708.0C-4.0 -729.0 63.0 -779.0 85.0 -802.0C204.0 -592.0 239.0 -252.0 251.0 127.0Z"/></g>
<g fill="black" opacity=".8" transform="translate(800 700) scale(0.1 -0.1)"><path d="M0.0 0.0 3.0 -144.0H559.0V0.0ZM108.0 133.0C99.0 -215.0 71.0 -531.0 -42.0 -708.0C-6.0 -729.0 59.0 -776.0 85.0 -798.0C203.0 -590.0 237.0 -250.0 251.0 128.0Z"/></g>
<g fill="red" transform="translate(900 700) scale(0.1 -0.1)"><path d="M0.0 0.0V-29.0H534.0V0.0ZM125.0 228.0C124.0 -43.0 114.0 -464.0 -60.0 -656.0C-52.0 -659.0 -39.0 -666.0 -34.0 -670.0C142.0 -470.0 153.0 -54.0 155.0 228.0Z"/></g>
<g fill="black" opacity=".8" transform="translate(900 700) scale(0.1 -0.1)"><path d="M0.0 0.0V-28.0H533.0V0.0ZM124.0 220.0C126.0 -52.0 123.0 -462.0 -61.0 -656.0C-55.0 -659.0 -42.0 -667.0 -37.0 -672.0C151.0 -469.0 154.0 -63.0 153.0 220.0Z"/></g>
<g fill="red" transform="translate(1000 700) scale(0.1 -0.1)"><path d="M0.0 0.0V-127.0H563.0V0.0ZM99.0 180.0C97.0 -163.0 108.0 -475.0 -73.0 -667.0C-35.0 -689.0 8.0 -732.0 31.0 -766.0C230.0 -544.0 235.0 -193.0 238.0 180.0Z"/></g>
<g fill="black" opacity=".8" transform="translate(1000 700) scale(0.1 -0.1)"><path d="M0.0 0.0V-132.0H564.0V0.0ZM97.0 185.0C98.0 -150.0 107.0 -473.0 -71.0 -663.0C-34.0 -688.0 8.0 -736.0 32.0 -769.0C227.0 -547.0 233.0 -184.0 233.0 187.0Z"/></g>
<g fill="red" transform="translate(1100 700) scale(0.1 -0.1)"><path d="M0.0 0.0 -9.0 -30.0H451.0V0.0ZM49.0 273.0C31.0 69.0 -57.0 -199.0 -261.0 -358.0C-254.0 -362.0 -243.0 -370.0 -238.0 -377.0C-32.0 -213.0 58.0 60.0 78.0 270.0Z"/></g>
<g fill="black" opacity=".8" transform="translate(1100 700) scale(0.1 -0.1)"><path d="M0.0 0.0 -4.0 -30.0H447.0V0.0ZM58.0 268.0C27.0 75.0 -56.0 -215.0 -263.0 -355.0C-256.0 -359.0 -242.0 -369.0 -238.0 -376.0C-29.0 -229.0 55.0 62.0 89.0 262.0Z"/></g>
<g fill="red" transform="translate(1200 700) scale(0.1 -0.1)"><path d="M0.0 0.0 -37.0 -125.0H356.0V0.0ZM-52.0 238.0C-63.0 19.0 -124.0 -189.0 -324.0 -325.0C-290.0 -347.0 -242.0 -403.0 -223.0 -440.0C0.0 -276.0 77.0 -33.0 98.0 227.0Z"/></g>
<g fill="black" opacity=".8" transform="translate(1200 700) scale(0.1 -0.1)"><path d="M0.0 0.0 -14.0 -125.0H360.0V0.0ZM-45.0 249.0C-70.0 24.0 -127.0 -186.0 -316.0 -317.0C-283.0 -345.0 -244.0 -403.0 -222.0 -441.0C-12.0 -282.0 64.0 -32.0 100.0 229.0Z"/></g>
<g fill="red" transform="translate(1300 700) scale(0.1 -0.1)"><path d="M0.0 0.0V-29.0H419.0V0.0ZM-82.0 -116.0C-155.0 -345.0 -288.0 -517.0 -479.0 -623.0C-471.0 -628.0 -458.0 -640.0 -453.0 -644.0C-266.0 -533.0 -131.0 -361.0 -52.0 -123.0Z"/></g>
<g fill="black" opacity=".8" transform="translate(1300 700) scale(0.1 -0.1)"><path d="M0.0 0.0 -2.0 -28.0H420.0V0.0ZM-84.0 -121.0C-150.0 -354.0 -286.0 -514.0 -482.0 -621.0C-475.0 -626.0 -464.0 -638.0 -460.0 -646.0C-263.0 -531.0 -126.0 -370.0 -53.0 -129.0Z"/></g>
<g fill="red" transform="translate(1400 700) scale(0.1 -0.1)"><path d="M0.0 0.0V-129.0H437.0V0.0ZM-115.0 -162.0C-179.0 -376.0 -312.0 -538.0 -503.0 -627.0C-472.0 -655.0 -419.0 -715.0 -398.0 -746.0C-200.0 -635.0 -51.0 -446.0 32.0 -198.0Z"/></g>
<g fill="black" opacity=".8" transform="translate(1400 700) scale(0.1 -0.1)"><path d="M0.0 0.0 -6.0 -133.0H436.0V0.0ZM-127.0 -159.0C-180.0 -370.0 -306.0 -537.0 -498.0 -628.0C-468.0 -656.0 -419.0 -717.0 -398.0 -749.0C-189.0 -634.0 -48.0 -441.0 27.0 -193.0Z"/></g>
<g fill="red" transform="translate(1500 700) scale(0.1 -0.1)"><path d="M0.0 0.0V-29.0H419.0V0.0ZM-97.0 -285.0C-163.0 -425.0 -309.0 -557.0 -474.0 -635.0C-468.0 -639.0 -459.0 -650.0 -455.0 -657.0C-286.0 -577.0 -142.0 -441.0 -67.0 -294.0Z"/></g>
<g fill="black" opacity=".8" transform="translate(1500 700) scale(0.1 -0.1)"><path d="M0.0 0.0 -1.0 -26.0H426.0V0.0ZM-101.0 -281.0C-166.0 -432.0 -303.0 -552.0 -478.0 -632.0C-472.0 -637.0 -462.0 -648.0 -459.0 -655.0C-283.0 -569.0 -146.0 -446.0 -74.0 -289.0Z"/></g>
<g fill="red" transform="translate(1600 700) scale(0.1 -0.1)"><path d="M0.0 0.0V-108.0H433.0V0.0ZM-151.0 -322.0C-206.0 -441.0 -334.0 -565.0 -487.0 -629.0C-461.0 -653.0 -419.0 -702.0 -399.0 -732.0C-233.0 -653.0 -96.0 -514.0 -13.0 -363.0Z"/></g>
<g fill="black" opacity=".8" transform="translate(1600 700) scale(0.1 -0.1)"><path d="M0.0 0.0 -4.0 -115.0H426.0V0.0ZM-152.0 -329.0C-202.0 -446.0 -323.0 -573.0 -492.0 -635.0C-465.0 -657.0 -418.0 -703.0 -396.0 -727.0C-220.0 -648.0 -87.0 -510.0 -15.0 -364.0Z"/></g>
<g fill="red" transform="translate(100 800) scale(0.1 -0.1)"><path d="M0.0 0.0V-30.0H543.0V0.0ZM223.0 205.0C171.0 -103.0 83.0 -363.0 -83.0 -526.0C-75.0 -531.0 -64.0 -541.0 -59.0 -547.0C109.0 -374.0 196.0 -119.0 253.0 201.0Z"/></g>
<g fill="black" opacity=".8" transform="translate(100 800) scale(0.1 -0.1)"><path d="M0.0 0.0 -1.0 -28.0H547.0V0.0ZM215.0 216.0C169.0 -100.0 82.0 -358.0 -77.0 -528.0C-71.0 -532.0 -59.0 -543.0 -54.0 -549.0C109.0 -370.0 193.0 -116.0 244.0 211.0Z"/></g>
<g fill="red" transform="translate(200 800) scale(0.1 -0.1)"><path d="M0.0 0.0V-137.0H557.0V0.0ZM134.0 176.0C105.0 -115.0 45.0 -381.0 -85.0 -536.0C-53.0 -562.0 5.0 -621.0 26.0 -650.0C166.0 -465.0 240.0 -165.0 277.0 161.0Z"/></g>
<g fill="black" opacity=".8" transform="translate(200 800) scale(0.1 -0.1)"><path d="M0.0 0.0 -2.0 -135.0H552.0V0.0ZM142.0 168.0C114.0 -121.0 43.0 -392.0 -93.0 -542.0C-60.0 -565.0 -0.0 -615.0 25.0 -640.0C167.0 -462.0 246.0 -170.0 286.0 151.0Z"/></g>
<g fill="red" transform="translate(300 800) scale(0.1 -0.1)"><path d="M0.0 0.0V-29.0H504.0V0.0ZM189.0 151.0C151.0 -31.0 85.0 -190.0 -20.0 -291.0C-12.0 -296.0 -1.0 -305.0 5.0 -310.0C108.0 -204.0 179.0 -45.0 219.0 146.0Z"/></g>
<g fill="black" opacity=".8" transform="translate(300 800) scale(0.1 -0.1)"><path d="M0.0 0.0V-28.0H501.0V0.0ZM194.0 147.0C153.0 -32.0 83.0 -192.0 -19.0 -291.0C-12.0 -295.0 -0.0 -307.0 5.0 -313.0C108.0 -205.0 179.0 -45.0 222.0 141.0Z"/></g>
<g fill="red" transform="translate(400 800) scale(0.1 -0.1)"><path d="M0.0 0.0V-133.0H550.0V0.0ZM174.0 121.0C137.0 -60.0 67.0 -225.0 -39.0 -325.0C-15.0 -358.0 22.0 -432.0 34.0 -465.0C168.0 -335.0 257.0 -126.0 307.0 93.0Z"/></g>
<g fill="black" opacity=".8" transform="translate(400 800) scale(0.1 -0.1)"><path d="M0.0 0.0 1.0 -136.0H554.0V0.0ZM170.0 125.0C135.0 -61.0 69.0 -227.0 -41.0 -325.0C-16.0 -358.0 20.0 -430.0 35.0 -462.0C170.0 -333.0 256.0 -125.0 304.0 98.0Z"/></g>
<g fill="red" transform="translate(500 800) scale(0.1 -0.1)"><path d="M0.0 0.0V-30.0H266.0V0.0ZM232.0 -125.0C190.0 -317.0 107.0 -471.0 -21.0 -567.0C-14.0 -573.0 -2.0 -583.0 2.0 -589.0C130.0 -485.0 217.0 -332.0 263.0 -131.0Z"/></g>
<g fill="black" opacity=".8" transform="translate(500 800) scale(0.1 -0.1)"><path d="M0.0 0.0V-29.0H261.0V0.0ZM236.0 -127.0C191.0 -316.0 106.0 -474.0 -16.0 -570.0C-9.0 -575.0 3.0 -587.0 7.0 -593.0C130.0 -488.0 216.0 -331.0 265.0 -133.0Z"/></g>
<g fill="red" transform="translate(600 800) scale(0.1 -0.1)"><path d="M0.0 0.0V-126.0H271.0V0.0ZM181.0 -168.0C152.0 -355.0 84.0 -509.0 -36.0 -597.0C-7.0 -621.0 43.0 -675.0 61.0 -702.0C193.0 -592.0 275.0 -411.0 314.0 -189.0Z"/></g>
<g fill="black" opacity=".8" transform="translate(600 800) scale(0.1 -0.1)"><path d="M0.0 0.0 1.0 -123.0H276.0V0.0ZM184.0 -165.0C152.0 -352.0 79.0 -506.0 -38.0 -593.0C-9.0 -619.0 38.0 -675.0 58.0 -702.0C185.0 -591.0 272.0 -409.0 317.0 -189.0Z"/></g>
<g fill="red" transform="translate(700 800) scale(0.1 -0.1)"><path d="M0.0 0.0V-30.0H596.0V0.0ZM240.0 -135.0C194.0 -316.0 106.0 -464.0 -20.0 -556.0C-13.0 -562.0 -1.0 -573.0 3.0 -578.0C128.0 -479.0 220.0 -331.0 270.0 -140.0Z"/></g>
<g fill="black" opacity=".8" transform="translate(700 800) scale(0.1 -0.1)"><path d="M0.0 0.0V-29.0H602.0V0.0ZM239.0 -131.0C191.0 -315.0 105.0 -465.0 -22.0 -556.0C-15.0 -561.0 -2.0 -572.0 2.0 -578.0C128.0 -480.0 217.0 -330.0 268.0 -138.0Z"/></g>
<g fill="red" transform="translate(800 800) scale(0.1 -0.1)"><path d="M0.0 0.0V-125.0H641.0V0.0ZM206.0 -167.0C170.0 -335.0 89.0 -472.0 -36.0 -550.0C-7.0 -575.0 45.0 -629.0 64.0 -657.0C202.0 -558.0 297.0 -394.0 345.0 -192.0Z"/></g>
<g fill="black" opacity=".8" transform="translate(800 800) scale(0.1 -0.1)"><path d="M0.0 0.0 4.0 -126.0H635.0V0.0ZM212.0 -167.0C174.0 -336.0 93.0 -476.0 -34.0 -551.0C-4.0 -576.0 44.0 -629.0 65.0 -654.0C202.0 -559.0 296.0 -396.0 348.0 -194.0Z"/></g>
<g fill="red" transform="translate(900 800) scale(0.1 -0.1)"><path d="M0.0 0.0V-30.0H631.0V0.0ZM262.0 127.0C211.0 -63.0 116.0 -220.0 -16.0 -319.0C-8.0 -324.0 5.0 -334.0 10.0 -339.0C140.0 -234.0 237.0 -78.0 292.0 121.0Z"/></g>
<g fill="black" opacity=".8" transform="translate(900 800) scale(0.1 -0.1)"><path d="M0.0 0.0 -1.0 -30.0H637.0V0.0ZM257.0 120.0C209.0 -63.0 115.0 -218.0 -18.0 -314.0C-11.0 -319.0 2.0 -330.0 7.0 -336.0C140.0 -234.0 235.0 -78.0 287.0 112.0Z"/></g>
<g fill="red" transform="translate(1000 800) scale(0.1 -0.1)"><path d="M0.0 0.0V-122.0H644.0V0.0ZM216.0 91.0C173.0 -61.0 88.0 -191.0 -27.0 -268.0C-6.0 -301.0 26.0 -373.0 35.0 -406.0C181.0 -302.0 285.0 -131.0 344.0 60.0Z"/></g>
<g fill="black" opacity=".8" transform="translate(1000 800) scale(0.1 -0.1)"><path d="M0.0 0.0 -2.0 -126.0H638.0V0.0ZM212.0 98.0C173.0 -67.0 88.0 -203.0 -40.0 -282.0C-12.0 -309.0 31.0 -367.0 51.0 -397.0C194.0 -296.0 295.0 -130.0 350.0 69.0Z"/></g>
<g fill="red" transform="translate(1100 800) scale(0.1 -0.1)"><path d="M0.0 0.0V-30.0H525.0V0.0ZM210.0 128.0C170.0 -57.0 97.0 -218.0 -13.0 -322.0C-5.0 -327.0 8.0 -336.0 14.0 -340.0C121.0 -231.0 195.0 -71.0 239.0 123.0Z"/></g>
<g fill="black" opacity=".8" transform="translate(1100 800) scale(0.1 -0.1)"><path d="M0.0 0.0 -1.0 -30.0H515.0V0.0ZM214.0 130.0C173.0 -54.0 99.0 -220.0 -10.0 -322.0C-3.0 -326.0 10.0 -339.0 15.0 -344.0C124.0 -234.0 201.0 -68.0 245.0 124.0Z"/></g>
<g fill="red" transform="translate(1200 800) scale(0.1 -0.1)"><path d="M0.0 0.0V-132.0H518.0V0.0ZM177.0 104.0C142.0 -68.0 73.0 -226.0 -30.0 -321.0C-5.0 -352.0 36.0 -421.0 50.0 -453.0C177.0 -330.0 264.0 -133.0 312.0 76.0Z"/></g>
<g fill="black" opacity=".8" transform="translate(1200 800) scale(0.1 -0.1)"><path d="M0.0 0.0 -1.0 -134.0H529.0V0.0ZM171.0 103.0C138.0 -76.0 71.0 -229.0 -36.0 -321.0C-9.0 -351.0 34.0 -416.0 52.0 -446.0C178.0 -327.0 262.0 -137.0 307.0 77.0Z"/></g>
<g fill="red" transform="translate(1300 800) scale(0.1 -0.1)"><path d="M0.0 0.0V-29.0H534.0V0.0ZM194.0 103.0C150.0 -54.0 74.0 -197.0 -23.0 -290.0C-15.0 -295.0 -2.0 -305.0 3.0 -310.0C98.0 -212.0 176.0 -67.0 223.0 97.0Z"/></g>
<g fill="black" opacity=".8" transform="translate(1300 800) scale(0.1 -0.1)"><path d="M0.0 0.0 -1.0 -28.0H531.0V0.0ZM191.0 110.0C152.0 -53.0 79.0 -199.0 -19.0 -291.0C-12.0 -295.0 0.0 -306.0 5.0 -311.0C103.0 -212.0 177.0 -66.0 219.0 104.0Z"/></g>
<g fill="red" transform="translate(1400 800) scale(0.1 -0.1)"><path d="M0.0 0.0V-121.0H536.0V0.0ZM150.0 87.0C120.0 -58.0 61.0 -189.0 -29.0 -268.0C-5.0 -295.0 35.0 -355.0 49.0 -383.0C159.0 -281.0 235.0 -117.0 276.0 62.0Z"/></g>
<g fill="black" opacity=".8" transform="translate(1400 800) scale(0.1 -0.1)"><path d="M0.0 0.0 -1.0 -123.0H540.0V0.0ZM153.0 81.0C122.0 -63.0 57.0 -193.0 -37.0 -271.0C-10.0 -296.0 31.0 -351.0 49.0 -377.0C157.0 -278.0 236.0 -118.0 279.0 56.0Z"/></g>
<g fill="red" transform="translate(1500 800) scale(0.1 -0.1)"><path d="M0.0 0.0V-30.0H248.0V0.0ZM-35.0 -117.0C-83.0 -310.0 -172.0 -473.0 -299.0 -576.0C-291.0 -580.0 -279.0 -591.0 -274.0 -597.0C-149.0 -487.0 -58.0 -325.0 -6.0 -123.0Z"/></g>
<g fill="black" opacity=".8" transform="translate(1500 800) scale(0.1 -0.1)"><path d="M0.0 0.0 -1.0 -29.0H244.0V0.0ZM-35.0 -123.0C-81.0 -315.0 -171.0 -473.0 -295.0 -577.0C-288.0 -582.0 -276.0 -594.0 -271.0 -600.0C-147.0 -488.0 -56.0 -331.0 -6.0 -130.0Z"/></g>
<g fill="red" transform="translate(1600 800) scale(0.1 -0.1)"><path d="M0.0 0.0V-126.0H248.0V0.0ZM-86.0 -180.0C-120.0 -354.0 -194.0 -505.0 -308.0 -593.0C-279.0 -616.0 -227.0 -670.0 -207.0 -697.0C-82.0 -588.0 5.0 -410.0 52.0 -205.0Z"/></g>
<g fill="black" opacity=".8" transform="translate(1600 800) scale(0.1 -0.1)"><path d="M0.0 0.0 -3.0 -130.0H252.0V0.0ZM-86.0 -175.0C-118.0 -346.0 -194.0 -503.0 -311.0 -592.0C-282.0 -617.0 -231.0 -672.0 -211.0 -697.0C-85.0 -584.0 5.0 -402.0 50.0 -200.0Z"/></g>
<g fill="red" transform="translate(100 900) scale(0.1 -0.1)"><path d="M0.0 0.0V-29.0H539.0V0.0ZM234.0 161.0C189.0 -45.0 105.0 -214.0 -28.0 -321.0C-20.0 -326.0 -7.0 -337.0 -2.0 -342.0C127.0 -228.0 214.0 -59.0 263.0 156.0Z"/></g>
<g fill="black" opacity=".8" transform="translate(100 900) scale(0.1 -0.1)"><path d="M0.0 0.0 -1.0 -28.0H548.0V0.0ZM231.0 160.0C184.0 -41.0 98.0 -211.0 -27.0 -319.0C-20.0 -324.0 -8.0 -336.0 -4.0 -341.0C122.0 -225.0 209.0 -55.0 260.0 153.0Z"/></g>
<g fill="red" transform="translate(200 900) scale(0.1 -0.1)"><path d="M0.0 0.0V-134.0H572.0V0.0ZM176.0 133.0C137.0 -57.0 61.0 -229.0 -50.0 -334.0C-28.0 -368.0 7.0 -441.0 18.0 -475.0C159.0 -339.0 253.0 -122.0 306.0 106.0Z"/></g>
<g fill="black" opacity=".8" transform="translate(200 900) scale(0.1 -0.1)"><path d="M0.0 0.0 -1.0 -131.0H563.0V0.0ZM177.0 135.0C140.0 -63.0 63.0 -240.0 -58.0 -342.0C-32.0 -372.0 9.0 -437.0 27.0 -468.0C169.0 -338.0 263.0 -126.0 313.0 108.0Z"/></g>
<g fill="red" transform="translate(300 900) scale(0.1 -0.1)"><path d="M0.0 0.0V-30.0H508.0V0.0ZM144.0 218.0C144.0 -64.0 136.0 -479.0 -72.0 -665.0C-65.0 -669.0 -52.0 -676.0 -47.0 -680.0C163.0 -485.0 172.0 -75.0 174.0 218.0Z"/></g>
<g fill="black" opacity=".8" transform="translate(300 900) scale(0.1 -0.1)"><path d="M0.0 0.0 -1.0 -28.0H507.0V0.0ZM142.0 223.0C144.0 -65.0 136.0 -476.0 -66.0 -668.0C-60.0 -671.0 -46.0 -679.0 -42.0 -684.0C163.0 -482.0 171.0 -76.0 170.0 223.0Z"/></g>
<g fill="red" transform="translate(400 900) scale(0.1 -0.1)"><path d="M0.0 0.0V-127.0H518.0V0.0ZM114.0 201.0C112.0 -152.0 121.0 -455.0 -62.0 -639.0C-26.0 -661.0 16.0 -704.0 38.0 -738.0C238.0 -527.0 244.0 -183.0 246.0 201.0Z"/></g>
<g fill="black" opacity=".8" transform="translate(400 900) scale(0.1 -0.1)"><path d="M0.0 0.0 -2.0 -123.0H519.0V0.0ZM115.0 195.0C115.0 -151.0 119.0 -457.0 -71.0 -639.0C-33.0 -661.0 11.0 -703.0 36.0 -735.0C239.0 -525.0 249.0 -182.0 249.0 197.0Z"/></g>
<g fill="red" transform="translate(500 900) scale(0.1 -0.1)"><path d="M0.0 0.0V-29.0H530.0V0.0ZM218.0 -133.0C176.0 -325.0 93.0 -479.0 -36.0 -575.0C-28.0 -581.0 -16.0 -591.0 -12.0 -597.0C115.0 -493.0 203.0 -340.0 249.0 -139.0Z"/></g>
<g fill="black" opacity=".8" transform="translate(500 900) scale(0.1 -0.1)"><path d="M0.0 0.0V-28.0H526.0V0.0ZM219.0 -130.0C175.0 -323.0 94.0 -481.0 -29.0 -578.0C-22.0 -582.0 -10.0 -594.0 -6.0 -599.0C117.0 -495.0 199.0 -338.0 247.0 -136.0Z"/></g>
<g fill="red" transform="translate(600 900) scale(0.1 -0.1)"><path d="M0.0 0.0V-122.0H541.0V0.0ZM172.0 -168.0C143.0 -350.0 77.0 -500.0 -40.0 -585.0C-12.0 -609.0 35.0 -663.0 54.0 -690.0C181.0 -583.0 261.0 -407.0 300.0 -190.0Z"/></g>
<g fill="black" opacity=".8" transform="translate(600 900) scale(0.1 -0.1)"><path d="M0.0 0.0 3.0 -121.0H545.0V0.0ZM176.0 -170.0C144.0 -352.0 71.0 -504.0 -48.0 -587.0C-18.0 -610.0 30.0 -659.0 51.0 -683.0C178.0 -580.0 262.0 -406.0 307.0 -193.0Z"/></g>
<g fill="red" transform="translate(700 900) scale(0.1 -0.1)"><path d="M0.0 0.0V-29.0H560.0V0.0ZM227.0 143.0C186.0 -74.0 111.0 -257.0 -13.0 -373.0C-5.0 -378.0 7.0 -389.0 12.0 -393.0C134.0 -270.0 211.0 -88.0 257.0 138.0Z"/></g>
<g fill="black" opacity=".8" transform="translate(700 900) scale(0.1 -0.1)"><path d="M0.0 0.0 -1.0 -28.0H555.0V0.0ZM233.0 130.0C189.0 -79.0 106.0 -258.0 -7.0 -378.0C-1.0 -382.0 12.0 -393.0 16.0 -398.0C130.0 -271.0 213.0 -94.0 261.0 123.0Z"/></g>
<g fill="red" transform="translate(800 900) scale(0.1 -0.1)"><path d="M0.0 0.0V-127.0H505.0V0.0ZM140.0 74.0C110.0 -110.0 49.0 -282.0 -48.0 -384.0C-16.0 -400.0 42.0 -437.0 67.0 -457.0C162.0 -340.0 232.0 -153.0 270.0 53.0Z"/></g>
<g fill="black" opacity=".8" transform="translate(800 900) scale(0.1 -0.1)"><path d="M0.0 0.0 -3.0 -123.0H511.0V0.0ZM137.0 85.0C110.0 -94.0 47.0 -273.0 -45.0 -374.0C-15.0 -396.0 38.0 -443.0 61.0 -465.0C156.0 -342.0 229.0 -143.0 267.0 64.0Z"/></g>
<g fill="red" transform="translate(900 900) scale(0.1 -0.1)"><path d="M0.0 0.0V-29.0H574.0V0.0ZM215.0 151.0C178.0 -55.0 109.0 -234.0 -3.0 -348.0C5.0 -352.0 17.0 -362.0 22.0 -367.0C134.0 -247.0 204.0 -69.0 246.0 146.0Z"/></g>
<g fill="black" opacity=".8" transform="translate(900 900) scale(0.1 -0.1)"><path d="M0.0 0.0 -1.0 -29.0H568.0V0.0ZM219.0 152.0C180.0 -53.0 111.0 -236.0 -1.0 -349.0C6.0 -353.0 19.0 -365.0 24.0 -370.0C136.0 -249.0 207.0 -67.0 248.0 146.0Z"/></g>
<g fill="red" transform="translate(1000 900) scale(0.1 -0.1)"><path d="M0.0 0.0V-133.0H559.0V0.0ZM156.0 121.0C129.0 -80.0 72.0 -260.0 -36.0 -367.0C-8.0 -394.0 38.0 -455.0 55.0 -484.0C182.0 -351.0 255.0 -137.0 292.0 101.0Z"/></g>
<g fill="black" opacity=".8" transform="translate(1000 900) scale(0.1 -0.1)"><path d="M0.0 0.0 -1.0 -132.0H565.0V0.0ZM156.0 122.0C128.0 -83.0 69.0 -259.0 -37.0 -364.0C-9.0 -392.0 35.0 -454.0 54.0 -482.0C177.0 -350.0 251.0 -139.0 291.0 100.0Z"/></g>
<g fill="red" transform="translate(1100 900) scale(0.1 -0.1)"><path d="M0.0 0.0V-29.0H384.0V0.0ZM167.0 198.0C137.0 -80.0 85.0 -329.0 -29.0 -488.0C-22.0 -493.0 -9.0 -503.0 -3.0 -507.0C112.0 -339.0 164.0 -95.0 197.0 195.0Z"/></g>
<g fill="black" opacity=".8" transform="translate(1100 900) scale(0.1 -0.1)"><path d="M0.0 0.0V-27.0H389.0V0.0ZM170.0 190.0C136.0 -87.0 83.0 -331.0 -28.0 -489.0C-22.0 -493.0 -10.0 -504.0 -5.0 -510.0C109.0 -341.0 161.0 -101.0 198.0 186.0Z"/></g>
<g fill="red" transform="translate(1200 900) scale(0.1 -0.1)"><path d="M0.0 0.0V-139.0H442.0V0.0ZM123.0 133.0C105.0 -140.0 61.0 -394.0 -45.0 -541.0C-12.0 -559.0 51.0 -603.0 75.0 -624.0C184.0 -453.0 237.0 -178.0 262.0 122.0Z"/></g>
<g fill="black" opacity=".8" transform="translate(1200 900) scale(0.1 -0.1)"><path d="M0.0 0.0 2.0 -136.0H437.0V0.0ZM127.0 140.0C108.0 -124.0 65.0 -384.0 -34.0 -531.0C-4.0 -556.0 49.0 -612.0 69.0 -636.0C179.0 -458.0 233.0 -170.0 260.0 126.0Z"/></g>
<g fill="red" transform="translate(1300 900) scale(0.1 -0.1)"><path d="M0.0 0.0V-30.0H495.0V0.0ZM133.0 218.0C132.0 -57.0 122.0 -463.0 -57.0 -649.0C-49.0 -652.0 -36.0 -659.0 -30.0 -664.0C150.0 -470.0 160.0 -68.0 163.0 218.0Z"/></g>
<g fill="black" opacity=".8" transform="translate(1300 900) scale(0.1 -0.1)"><path d="M0.0 0.0 -1.0 -28.0H495.0V0.0ZM130.0 225.0C132.0 -63.0 127.0 -460.0 -54.0 -649.0C-48.0 -653.0 -34.0 -661.0 -30.0 -665.0C155.0 -465.0 159.0 -74.0 158.0 225.0Z"/></g>
<g fill="red" transform="translate(1400 900) scale(0.1 -0.1)"><path d="M0.0 0.0V-127.0H500.0V0.0ZM96.0 201.0C94.0 -154.0 98.0 -457.0 -62.0 -640.0C-26.0 -663.0 17.0 -706.0 40.0 -741.0C212.0 -530.0 219.0 -186.0 220.0 201.0Z"/></g>
<g fill="black" opacity=".8" transform="translate(1400 900) scale(0.1 -0.1)"><path d="M0.0 0.0 -1.0 -125.0H500.0V0.0ZM90.0 193.0C93.0 -152.0 101.0 -459.0 -68.0 -641.0C-32.0 -663.0 13.0 -708.0 37.0 -738.0C220.0 -526.0 225.0 -182.0 223.0 195.0Z"/></g>
<g fill="red" transform="translate(1500 900) scale(0.1 -0.1)"><path d="M0.0 0.0V-29.0H455.0V0.0ZM196.0 105.0C151.0 -43.0 75.0 -176.0 -22.0 -263.0C-14.0 -268.0 -2.0 -278.0 3.0 -283.0C98.0 -192.0 178.0 -56.0 226.0 98.0Z"/></g>
<g fill="black" opacity=".8" transform="translate(1500 900) scale(0.1 -0.1)"><path d="M0.0 0.0 -1.0 -27.0H457.0V0.0ZM194.0 103.0C152.0 -47.0 75.0 -177.0 -17.0 -264.0C-11.0 -268.0 0.0 -279.0 5.0 -284.0C98.0 -191.0 176.0 -60.0 221.0 96.0Z"/></g>
<g fill="red" transform="translate(1600 900) scale(0.1 -0.1)"><path d="M0.0 0.0V-118.0H472.0V0.0ZM155.0 74.0C122.0 -57.0 58.0 -176.0 -29.0 -247.0C-4.0 -271.0 38.0 -323.0 55.0 -348.0C152.0 -258.0 230.0 -113.0 273.0 46.0Z"/></g>
<g fill="black" opacity=".8" transform="translate(1600 900) scale(0.1 -0.1)"><path d="M0.0 0.0 -1.0 -117.0H470.0V0.0ZM157.0 73.0C125.0 -51.0 56.0 -175.0 -31.0 -247.0C-6.0 -271.0 35.0 -325.0 52.0 -349.0C151.0 -256.0 233.0 -106.0 278.0 47.0Z"/></g>
<g fill="red" transform="translate(100 1000) scale(0.1 -0.1)"><path d="M0.0 0.0V-29.0H552.0V0.0ZM149.0 228.0C148.0 -31.0 139.0 -464.0 -75.0 -655.0C-68.0 -659.0 -56.0 -666.0 -50.0 -670.0C167.0 -470.0 176.0 -42.0 178.0 228.0Z"/></g>
<g fill="black" opacity=".8" transform="translate(100 1000) scale(0.1 -0.1)"><path d="M0.0 0.0 -1.0 -28.0H547.0V0.0ZM152.0 221.0C152.0 -30.0 139.0 -462.0 -73.0 -658.0C-67.0 -662.0 -54.0 -670.0 -49.0 -675.0C167.0 -469.0 179.0 -41.0 181.0 220.0Z"/></g>
<g fill="red" transform="translate(200 1000) scale(0.1 -0.1)"><path d="M0.0 0.0V-127.0H536.0V0.0ZM97.0 180.0C95.0 -140.0 107.0 -467.0 -96.0 -667.0C-58.0 -690.0 -14.0 -732.0 10.0 -767.0C229.0 -537.0 236.0 -171.0 239.0 180.0Z"/></g>
<g fill="black" opacity=".8" transform="translate(200 1000) scale(0.1 -0.1)"><path d="M0.0 0.0 -3.0 -128.0H541.0V0.0ZM96.0 187.0C96.0 -137.0 103.0 -467.0 -96.0 -662.0C-58.0 -687.0 -16.0 -731.0 10.0 -766.0C224.0 -540.0 233.0 -171.0 234.0 188.0Z"/></g>
<g fill="red" transform="translate(300 1000) scale(0.1 -0.1)"><path d="M0.0 0.0V-29.0H345.0V0.0ZM556.0 208.0C514.0 -44.0 438.0 -257.0 304.0 -393.0C312.0 -397.0 324.0 -408.0 329.0 -414.0C463.0 -270.0 539.0 -58.0 586.0 203.0Z"/></g>
<g fill="black" opacity=".8" transform="translate(300 1000) scale(0.1 -0.1)"><path d="M0.0 0.0V-31.0H343.0V0.0ZM557.0 198.0C514.0 -45.0 437.0 -260.0 306.0 -392.0C313.0 -397.0 326.0 -409.0 331.0 -415.0C464.0 -275.0 541.0 -61.0 589.0 191.0Z"/></g>
<g fill="red" transform="translate(400 1000) scale(0.1 -0.1)"><path d="M0.0 0.0V-133.0H433.0V0.0ZM573.0 162.0C539.0 -47.0 467.0 -231.0 343.0 -338.0C373.0 -363.0 424.0 -418.0 443.0 -446.0C579.0 -315.0 665.0 -102.0 710.0 140.0Z"/></g>
<g fill="black" opacity=".8" transform="translate(400 1000) scale(0.1 -0.1)"><path d="M0.0 0.0 4.0 -131.0H436.0V0.0ZM571.0 172.0C536.0 -37.0 461.0 -229.0 342.0 -336.0C373.0 -363.0 423.0 -419.0 446.0 -447.0C576.0 -316.0 665.0 -97.0 713.0 148.0Z"/></g>
<g fill="red" transform="translate(500 1000) scale(0.1 -0.1)"><path d="M0.0 0.0V-29.0H574.0V0.0ZM216.0 190.0C172.0 -117.0 87.0 -344.0 -104.0 -483.0C-97.0 -489.0 -85.0 -499.0 -80.0 -505.0C110.0 -356.0 199.0 -132.0 247.0 186.0Z"/></g>
<g fill="black" opacity=".8" transform="translate(500 1000) scale(0.1 -0.1)"><path d="M0.0 0.0 -1.0 -28.0H560.0V0.0ZM220.0 195.0C176.0 -110.0 87.0 -347.0 -93.0 -491.0C-87.0 -495.0 -75.0 -506.0 -70.0 -512.0C112.0 -359.0 201.0 -124.0 250.0 190.0Z"/></g>
<g fill="red" transform="translate(600 1000) scale(0.1 -0.1)"><path d="M0.0 0.0V-131.0H572.0V0.0ZM179.0 175.0C151.0 -121.0 80.0 -351.0 -100.0 -478.0C-69.0 -506.0 -14.0 -568.0 5.0 -599.0C202.0 -441.0 289.0 -179.0 328.0 161.0Z"/></g>
<g fill="black" opacity=".8" transform="translate(600 1000) scale(0.1 -0.1)"><path d="M0.0 0.0 -2.0 -129.0H586.0V0.0ZM186.0 175.0C150.0 -126.0 67.0 -349.0 -104.0 -475.0C-73.0 -502.0 -25.0 -561.0 -4.0 -592.0C185.0 -438.0 282.0 -184.0 332.0 154.0Z"/></g>
<g fill="red" transform="translate(700 1000) scale(0.1 -0.1)"><path d="M0.0 0.0V-29.0H613.0V0.0ZM229.0 140.0C173.0 -60.0 79.0 -242.0 -38.0 -359.0C-32.0 -366.0 -23.0 -380.0 -19.0 -387.0C102.0 -259.0 198.0 -75.0 257.0 133.0Z"/></g>
<g fill="black" opacity=".8" transform="translate(700 1000) scale(0.1 -0.1)"><path d="M0.0 0.0 -1.0 -31.0H613.0V0.0ZM227.0 144.0C178.0 -64.0 85.0 -244.0 -50.0 -358.0C-43.0 -363.0 -30.0 -376.0 -25.0 -382.0C110.0 -260.0 205.0 -80.0 258.0 136.0Z"/></g>
<g fill="red" transform="translate(800 1000) scale(0.1 -0.1)"><path d="M0.0 0.0V-139.0H614.0V0.0ZM179.0 116.0C133.0 -82.0 42.0 -259.0 -86.0 -363.0C-57.0 -390.0 -7.0 -451.0 11.0 -481.0C153.0 -353.0 259.0 -143.0 319.0 86.0Z"/></g>
<g fill="black" opacity=".8" transform="translate(800 1000) scale(0.1 -0.1)"><path d="M0.0 0.0 -2.0 -138.0H615.0V0.0ZM167.0 113.0C129.0 -82.0 47.0 -258.0 -81.0 -359.0C-51.0 -389.0 -4.0 -453.0 16.0 -484.0C162.0 -355.0 260.0 -147.0 313.0 85.0Z"/></g>
<g fill="red" transform="translate(900 1000) scale(0.1 -0.1)"><path d="M0.0 0.0V-29.0H649.0V0.0ZM282.0 190.0C233.0 -109.0 144.0 -340.0 -38.0 -483.0C-31.0 -489.0 -19.0 -499.0 -13.0 -505.0C169.0 -352.0 260.0 -124.0 313.0 186.0Z"/></g>
<g fill="black" opacity=".8" transform="translate(900 1000) scale(0.1 -0.1)"><path d="M0.0 0.0 -1.0 -29.0H642.0V0.0ZM288.0 196.0C240.0 -103.0 144.0 -341.0 -40.0 -484.0C-34.0 -489.0 -21.0 -500.0 -17.0 -507.0C169.0 -354.0 266.0 -118.0 318.0 190.0Z"/></g>
<g fill="red" transform="translate(1000 1000) scale(0.1 -0.1)"><path d="M0.0 0.0V-131.0H640.0V0.0ZM239.0 175.0C197.0 -111.0 107.0 -345.0 -68.0 -478.0C-37.0 -506.0 18.0 -567.0 39.0 -597.0C227.0 -436.0 333.0 -168.0 386.0 154.0Z"/></g>
<g fill="black" opacity=".8" transform="translate(1000 1000) scale(0.1 -0.1)"><path d="M0.0 0.0 -2.0 -131.0H647.0V0.0ZM232.0 174.0C194.0 -121.0 107.0 -348.0 -64.0 -475.0C-33.0 -503.0 17.0 -562.0 40.0 -593.0C229.0 -438.0 328.0 -181.0 381.0 152.0Z"/></g>
<g fill="red" transform="translate(1100 1000) scale(0.1 -0.1)"><path d="M0.0 0.0V-29.0H666.0V0.0ZM284.0 98.0C228.0 -27.0 102.0 -149.0 -38.0 -223.0C-31.0 -229.0 -22.0 -239.0 -18.0 -246.0C126.0 -169.0 250.0 -42.0 314.0 88.0Z"/></g>
<g fill="black" opacity=".8" transform="translate(1100 1000) scale(0.1 -0.1)"><path d="M0.0 0.0 -1.0 -26.0H666.0V0.0ZM286.0 91.0C225.0 -36.0 105.0 -150.0 -34.0 -226.0C-28.0 -231.0 -18.0 -242.0 -14.0 -248.0C127.0 -167.0 247.0 -49.0 313.0 81.0Z"/></g>
<g fill="red" transform="translate(1200 1000) scale(0.1 -0.1)"><path d="M0.0 0.0V-111.0H652.0V0.0ZM220.0 67.0C176.0 -36.0 70.0 -147.0 -60.0 -204.0C-34.0 -227.0 7.0 -272.0 27.0 -300.0C171.0 -229.0 285.0 -104.0 356.0 29.0Z"/></g>
<g fill="black" opacity=".8" transform="translate(1200 1000) scale(0.1 -0.1)"><path d="M0.0 0.0 -3.0 -112.0H653.0V0.0ZM225.0 69.0C177.0 -25.0 70.0 -140.0 -61.0 -201.0C-36.0 -226.0 3.0 -278.0 22.0 -305.0C166.0 -226.0 286.0 -92.0 354.0 34.0Z"/></g>
<g fill="red" transform="translate(1300 1000) scale(0.1 -0.1)"><path d="M0.0 0.0V-30.0H842.0V0.0ZM312.0 135.0C255.0 -114.0 150.0 -304.0 -28.0 -421.0C-20.0 -425.0 -7.0 -436.0 -2.0 -441.0C172.0 -317.0 281.0 -129.0 342.0 129.0Z"/></g>
<g fill="black" opacity=".8" transform="translate(1300 1000) scale(0.1 -0.1)"><path d="M0.0 0.0V-27.0H844.0V0.0ZM315.0 131.0C256.0 -116.0 146.0 -301.0 -24.0 -423.0C-18.0 -428.0 -7.0 -439.0 -3.0 -445.0C169.0 -317.0 279.0 -131.0 343.0 124.0Z"/></g>
<g fill="red" transform="translate(1400 1000) scale(0.1 -0.1)"><path d="M0.0 0.0V-119.0H892.0V0.0ZM288.0 99.0C237.0 -117.0 133.0 -299.0 -34.0 -402.0C0.0 -423.0 62.0 -473.0 85.0 -498.0C258.0 -375.0 375.0 -169.0 440.0 75.0Z"/></g>
<g fill="black" opacity=".8" transform="translate(1400 1000) scale(0.1 -0.1)"><path d="M0.0 0.0 2.0 -125.0H890.0V0.0ZM293.0 106.0C245.0 -107.0 139.0 -299.0 -24.0 -397.0C6.0 -422.0 54.0 -473.0 77.0 -499.0C252.0 -379.0 369.0 -170.0 435.0 76.0Z"/></g>
<g fill="red" transform="translate(1500 1000) scale(0.1 -0.1)"><path d="M0.0 0.0V-29.0H481.0V0.0ZM143.0 195.0C120.0 -168.0 80.0 -485.0 -52.0 -687.0C-45.0 -691.0 -31.0 -700.0 -26.0 -705.0C108.0 -492.0 147.0 -184.0 174.0 193.0Z"/></g>
<g fill="black" opacity=".8" transform="translate(1500 1000) scale(0.1 -0.1)"><path d="M0.0 0.0V-28.0H480.0V0.0ZM147.0 196.0C121.0 -172.0 82.0 -488.0 -52.0 -687.0C-46.0 -691.0 -32.0 -701.0 -27.0 -707.0C109.0 -495.0 147.0 -187.0 176.0 193.0Z"/></g>
<g fill="red" transform="translate(1600 1000) scale(0.1 -0.1)"><path d="M0.0 0.0V-142.0H500.0V0.0ZM86.0 133.0C79.0 -225.0 48.0 -549.0 -64.0 -726.0C-29.0 -740.0 48.0 -779.0 73.0 -796.0C180.0 -591.0 213.0 -252.0 225.0 129.0Z"/></g>
<g fill="black" opacity=".8" transform="translate(1600 1000) scale(0.1 -0.1)"><path d="M0.0 0.0 2.0 -138.0H502.0V0.0ZM84.0 132.0C76.0 -219.0 50.0 -540.0 -58.0 -719.0C-22.0 -739.0 44.0 -783.0 70.0 -802.0C179.0 -592.0 210.0 -252.0 222.0 129.0Z"/></g>
<g fill="red" transform="translate(100 1100) scale(0.1 -0.1)"><path d="M0.0 0.0V-30.0H466.0V0.0ZM132.0 218.0C131.0 -62.0 123.0 -476.0 -45.0 -666.0C-39.0 -669.0 -26.0 -676.0 -20.0 -680.0C148.0 -482.0 157.0 -73.0 159.0 218.0Z"/></g>
<g fill="black" opacity=".8" transform="translate(100 1100) scale(0.1 -0.1)"><path d="M0.0 0.0V-27.0H471.0V0.0ZM125.0 228.0C128.0 -70.0 127.0 -469.0 -46.0 -664.0C-40.0 -668.0 -26.0 -676.0 -22.0 -680.0C155.0 -474.0 155.0 -82.0 153.0 228.0Z"/></g>
<g fill="red" transform="translate(200 1100) scale(0.1 -0.1)"><path d="M0.0 0.0V-127.0H489.0V0.0ZM94.0 201.0C92.0 -159.0 96.0 -468.0 -48.0 -657.0C-12.0 -679.0 30.0 -722.0 54.0 -757.0C207.0 -541.0 214.0 -191.0 215.0 201.0Z"/></g>
<g fill="black" opacity=".8" transform="translate(200 1100) scale(0.1 -0.1)"><path d="M0.0 0.0 -1.0 -126.0H484.0V0.0ZM87.0 190.0C92.0 -159.0 104.0 -474.0 -55.0 -660.0C-19.0 -682.0 29.0 -724.0 53.0 -753.0C224.0 -537.0 224.0 -186.0 218.0 194.0Z"/></g>
<g fill="red" transform="translate(300 1100) scale(0.1 -0.1)"><path d="M0.0 0.0V-30.0H486.0V0.0ZM204.0 -137.0C170.0 -322.0 106.0 -477.0 -1.0 -575.0C7.0 -580.0 19.0 -590.0 22.0 -595.0C129.0 -490.0 197.0 -336.0 233.0 -141.0Z"/></g>
<g fill="black" opacity=".8" transform="translate(300 1100) scale(0.1 -0.1)"><path d="M0.0 0.0V-29.0H492.0V0.0ZM203.0 -132.0C168.0 -316.0 105.0 -480.0 -4.0 -573.0C3.0 -578.0 16.0 -589.0 20.0 -593.0C129.0 -493.0 195.0 -330.0 232.0 -137.0Z"/></g>
<g fill="red" transform="translate(400 1100) scale(0.1 -0.1)"><path d="M0.0 0.0V-124.0H509.0V0.0ZM159.0 -169.0C138.0 -343.0 84.0 -487.0 -26.0 -570.0C2.0 -592.0 50.0 -643.0 68.0 -668.0C191.0 -564.0 259.0 -395.0 290.0 -185.0Z"/></g>
<g fill="black" opacity=".8" transform="translate(400 1100) scale(0.1 -0.1)"><path d="M0.0 0.0 3.0 -121.0H504.0V0.0ZM165.0 -169.0C139.0 -351.0 84.0 -490.0 -24.0 -570.0C6.0 -592.0 53.0 -642.0 73.0 -666.0C190.0 -567.0 258.0 -402.0 293.0 -189.0Z"/></g>
<g fill="red" transform="translate(500 1100) scale(0.1 -0.1)"><path d="M0.0 0.0V-29.0H561.0V0.0ZM175.0 195.0C148.0 -173.0 103.0 -488.0 -44.0 -687.0C-36.0 -691.0 -23.0 -700.0 -17.0 -705.0C130.0 -495.0 175.0 -189.0 205.0 193.0Z"/></g>
<g fill="black" opacity=".8" transform="translate(500 1100) scale(0.1 -0.1)"><path d="M0.0 0.0 -1.0 -30.0H568.0V0.0ZM176.0 189.0C150.0 -172.0 103.0 -492.0 -55.0 -681.0C-48.0 -685.0 -33.0 -696.0 -28.0 -702.0C132.0 -501.0 178.0 -188.0 208.0 186.0Z"/></g>
<g fill="red" transform="translate(600 1100) scale(0.1 -0.1)"><path d="M0.0 0.0V-142.0H568.0V0.0ZM103.0 131.0C91.0 -227.0 51.0 -537.0 -97.0 -708.0C-61.0 -729.0 9.0 -780.0 33.0 -803.0C185.0 -600.0 233.0 -267.0 251.0 126.0Z"/></g>
<g fill="black" opacity=".8" transform="translate(600 1100) scale(0.1 -0.1)"><path d="M0.0 0.0V-142.0H562.0V0.0ZM100.0 140.0C88.0 -230.0 54.0 -533.0 -83.0 -707.0C-47.0 -730.0 15.0 -783.0 41.0 -809.0C188.0 -603.0 230.0 -271.0 248.0 133.0Z"/></g>
<g fill="red" transform="translate(700 1100) scale(0.1 -0.1)"><path d="M0.0 0.0V-29.0H402.0V0.0ZM171.0 185.0C144.0 -87.0 94.0 -318.0 -29.0 -465.0C-22.0 -469.0 -9.0 -480.0 -4.0 -486.0C119.0 -330.0 171.0 -102.0 202.0 182.0Z"/></g>
<g fill="black" opacity=".8" transform="translate(700 1100) scale(0.1 -0.1)"><path d="M0.0 0.0V-29.0H402.0V0.0ZM173.0 191.0C144.0 -77.0 92.0 -319.0 -30.0 -464.0C-24.0 -468.0 -10.0 -479.0 -5.0 -485.0C119.0 -329.0 171.0 -92.0 203.0 187.0Z"/></g>
<g fill="red" transform="translate(800 1100) scale(0.1 -0.1)"><path d="M0.0 0.0V-135.0H442.0V0.0ZM150.0 156.0C129.0 -87.0 84.0 -313.0 -23.0 -449.0C3.0 -478.0 47.0 -543.0 62.0 -575.0C193.0 -407.0 254.0 -142.0 284.0 142.0Z"/></g>
<g fill="black" opacity=".8" transform="translate(800 1100) scale(0.1 -0.1)"><path d="M0.0 0.0V-135.0H442.0V0.0ZM149.0 155.0C128.0 -105.0 83.0 -325.0 -31.0 -454.0C0.0 -479.0 50.0 -536.0 71.0 -563.0C198.0 -406.0 257.0 -154.0 286.0 139.0Z"/></g>
<g fill="red" transform="translate(900 1100) scale(0.1 -0.1)"><path d="M0.0 0.0V-30.0H290.0V0.0ZM489.0 349.0C488.0 69.0 480.0 -345.0 311.0 -535.0C317.0 -538.0 331.0 -545.0 336.0 -549.0C505.0 -351.0 514.0 58.0 516.0 349.0Z"/></g>
<g fill="black" opacity=".8" transform="translate(900 1100) scale(0.1 -0.1)"><path d="M0.0 0.0 -2.0 -28.0H301.0V0.0ZM484.0 356.0C487.0 65.0 483.0 -340.0 302.0 -530.0C308.0 -533.0 321.0 -541.0 326.0 -546.0C510.0 -345.0 514.0 54.0 512.0 356.0Z"/></g>
<g fill="red" transform="translate(1000 1100) scale(0.1 -0.1)"><path d="M0.0 0.0V-105.0H275.0V0.0ZM410.0 347.0C408.0 -13.0 412.0 -322.0 267.0 -511.0C303.0 -533.0 346.0 -576.0 369.0 -611.0C524.0 -395.0 531.0 -45.0 532.0 347.0Z"/></g>
<g fill="black" opacity=".8" transform="translate(1000 1100) scale(0.1 -0.1)"><path d="M0.0 0.0 -3.0 -110.0H264.0V0.0ZM404.0 339.0C411.0 -20.0 426.0 -328.0 271.0 -514.0C307.0 -536.0 350.0 -578.0 374.0 -610.0C540.0 -394.0 537.0 -47.0 528.0 345.0Z"/></g>
<g fill="red" transform="translate(1100 1100) scale(0.1 -0.1)"><path d="M0.0 0.0V-29.0H360.0V0.0ZM494.0 447.0C493.0 167.0 484.0 -247.0 313.0 -437.0C318.0 -440.0 332.0 -447.0 337.0 -451.0C511.0 -253.0 519.0 156.0 521.0 447.0Z"/></g>
<g fill="black" opacity=".8" transform="translate(1100 1100) scale(0.1 -0.1)"><path d="M0.0 0.0 -1.0 -25.0H361.0V0.0ZM493.0 442.0C493.0 153.0 489.0 -245.0 316.0 -438.0C321.0 -440.0 333.0 -448.0 338.0 -453.0C515.0 -250.0 518.0 143.0 518.0 441.0Z"/></g>
<g fill="red" transform="translate(1200 1100) scale(0.1 -0.1)"><path d="M0.0 0.0V-99.0H381.0V0.0ZM449.0 427.0C447.0 67.0 451.0 -242.0 306.0 -431.0C343.0 -453.0 385.0 -496.0 409.0 -531.0C564.0 -315.0 571.0 35.0 572.0 427.0Z"/></g>
<g fill="black" opacity=".8" transform="translate(1200 1100) scale(0.1 -0.1)"><path d="M0.0 0.0 -1.0 -111.0H380.0V0.0ZM448.0 428.0C450.0 80.0 459.0 -242.0 307.0 -432.0C340.0 -456.0 378.0 -500.0 400.0 -531.0C568.0 -309.0 571.0 51.0 568.0 431.0Z"/></g>
<g fill="red" transform="translate(1300 1100) scale(0.1 -0.1)"><path d="M0.0 0.0V-30.0H869.0V0.0ZM372.0 -108.0C299.0 -337.0 166.0 -509.0 -25.0 -615.0C-17.0 -620.0 -4.0 -632.0 1.0 -636.0C188.0 -525.0 323.0 -353.0 402.0 -115.0Z"/></g>
<g fill="black" opacity=".8" transform="translate(1300 1100) scale(0.1 -0.1)"><path d="M0.0 0.0V-30.0H861.0V0.0ZM374.0 -119.0C303.0 -346.0 168.0 -510.0 -22.0 -614.0C-15.0 -620.0 -4.0 -632.0 0.0 -639.0C193.0 -529.0 329.0 -363.0 406.0 -128.0Z"/></g>
<g fill="red" transform="translate(1400 1100) scale(0.1 -0.1)"><path d="M0.0 0.0V-133.0H896.0V0.0ZM349.0 -159.0C285.0 -373.0 152.0 -535.0 -39.0 -624.0C-8.0 -652.0 45.0 -712.0 66.0 -743.0C264.0 -632.0 413.0 -443.0 496.0 -195.0Z"/></g>
<g fill="black" opacity=".8" transform="translate(1400 1100) scale(0.1 -0.1)"><path d="M0.0 0.0 4.0 -136.0H903.0V0.0ZM336.0 -148.0C278.0 -357.0 149.0 -535.0 -41.0 -623.0C-9.0 -653.0 42.0 -711.0 66.0 -742.0C271.0 -632.0 413.0 -434.0 494.0 -185.0Z"/></g>
<g fill="red" transform="translate(1500 1100) scale(0.1 -0.1)"><path d="M0.0 0.0V-29.0H860.0V0.0ZM363.0 138.0C300.0 -71.0 169.0 -281.0 -23.0 -407.0C-17.0 -413.0 -8.0 -424.0 -5.0 -431.0C193.0 -300.0 323.0 -88.0 394.0 129.0Z"/></g>
<g fill="black" opacity=".8" transform="translate(1500 1100) scale(0.1 -0.1)"><path d="M0.0 0.0 -1.0 -29.0H866.0V0.0ZM360.0 143.0C294.0 -71.0 168.0 -280.0 -23.0 -408.0C-16.0 -413.0 -5.0 -425.0 -1.0 -432.0C193.0 -297.0 318.0 -87.0 390.0 133.0Z"/></g>
<g fill="red" transform="translate(1600 1100) scale(0.1 -0.1)"><path d="M0.0 0.0V-139.0H901.0V0.0ZM300.0 117.0C253.0 -73.0 143.0 -292.0 -35.0 -405.0C-4.0 -433.0 44.0 -488.0 67.0 -522.0C265.0 -385.0 385.0 -148.0 457.0 82.0Z"/></g>
<g fill="black" opacity=".8" transform="translate(1600 1100) scale(0.1 -0.1)"><path d="M0.0 0.0V-135.0H895.0V0.0ZM309.0 112.0C258.0 -76.0 143.0 -293.0 -37.0 -405.0C-6.0 -434.0 42.0 -490.0 66.0 -521.0C262.0 -384.0 389.0 -147.0 463.0 79.0Z"/></g>
<g fill="red" transform="translate(100 1200) scale(0.1 -0.1)"><path d="M0.0 0.0V-29.0H583.0V0.0ZM182.0 195.0C153.0 -177.0 103.0 -490.0 -55.0 -687.0C-48.0 -691.0 -35.0 -700.0 -30.0 -705.0C129.0 -498.0 179.0 -194.0 212.0 193.0Z"/></g>
<g fill="black" opacity=".8" transform="translate(100 1200) scale(0.1 -0.1)"><path d="M0.0 0.0V-29.0H571.0V0.0ZM185.0 197.0C153.0 -173.0 101.0 -491.0 -44.0 -692.0C-37.0 -696.0 -23.0 -707.0 -18.0 -713.0C130.0 -500.0 180.0 -189.0 215.0 194.0Z"/></g>
<g fill="red" transform="translate(200 1200) scale(0.1 -0.1)"><path d="M0.0 0.0V-142.0H563.0V0.0ZM103.0 131.0C97.0 -210.0 70.0 -529.0 -42.0 -708.0C-7.0 -728.0 64.0 -779.0 88.0 -802.0C205.0 -589.0 239.0 -248.0 251.0 127.0Z"/></g>
<g fill="black" opacity=".8" transform="translate(200 1200) scale(0.1 -0.1)"><path d="M0.0 0.0 1.0 -142.0H575.0V0.0ZM108.0 131.0C97.0 -213.0 61.0 -532.0 -54.0 -709.0C-16.0 -728.0 54.0 -771.0 82.0 -791.0C197.0 -585.0 237.0 -249.0 254.0 125.0Z"/></g>
<g fill="red" transform="translate(300 1200) scale(0.1 -0.1)"><path d="M0.0 0.0V-30.0H292.0V0.0ZM255.0 -135.0C204.0 -335.0 108.0 -496.0 -33.0 -597.0C-25.0 -602.0 -14.0 -613.0 -9.0 -619.0C131.0 -511.0 230.0 -350.0 285.0 -140.0Z"/></g>
<g fill="black" opacity=".8" transform="translate(300 1200) scale(0.1 -0.1)"><path d="M0.0 0.0 -1.0 -30.0H299.0V0.0ZM254.0 -133.0C206.0 -332.0 107.0 -497.0 -41.0 -593.0C-34.0 -597.0 -21.0 -610.0 -17.0 -616.0C131.0 -512.0 232.0 -348.0 284.0 -140.0Z"/></g>
<g fill="red" transform="translate(400 1200) scale(0.1 -0.1)"><path d="M0.0 0.0V-125.0H293.0V0.0ZM194.0 -167.0C155.0 -356.0 66.0 -507.0 -76.0 -592.0C-47.0 -616.0 4.0 -671.0 23.0 -699.0C173.0 -593.0 276.0 -416.0 330.0 -193.0Z"/></g>
<g fill="black" opacity=".8" transform="translate(400 1200) scale(0.1 -0.1)"><path d="M0.0 0.0 -2.0 -122.0H287.0V0.0ZM190.0 -166.0C154.0 -363.0 69.0 -508.0 -70.0 -592.0C-39.0 -617.0 9.0 -672.0 31.0 -701.0C181.0 -596.0 279.0 -423.0 329.0 -192.0Z"/></g>
<g fill="red" transform="translate(500 1200) scale(0.1 -0.1)"><path d="M0.0 0.0V-30.0H604.0V0.0ZM234.0 210.0C194.0 -57.0 124.0 -278.0 -20.0 -415.0C-12.0 -420.0 -1.0 -431.0 4.0 -436.0C148.0 -289.0 221.0 -72.0 264.0 206.0Z"/></g>
<g fill="black" opacity=".8" transform="translate(500 1200) scale(0.1 -0.1)"><path d="M0.0 0.0 -1.0 -32.0H605.0V0.0ZM240.0 214.0C199.0 -51.0 120.0 -277.0 -33.0 -412.0C-25.0 -417.0 -11.0 -429.0 -6.0 -435.0C147.0 -291.0 228.0 -66.0 272.0 208.0Z"/></g>
<g fill="red" transform="translate(600 1200) scale(0.1 -0.1)"><path d="M0.0 0.0V-144.0H615.0V0.0ZM208.0 190.0C168.0 -56.0 83.0 -267.0 -66.0 -388.0C-33.0 -415.0 24.0 -475.0 45.0 -505.0C207.0 -358.0 307.0 -114.0 360.0 167.0Z"/></g>
<g fill="black" opacity=".8" transform="translate(600 1200) scale(0.1 -0.1)"><path d="M0.0 0.0 -2.0 -141.0H615.0V0.0ZM197.0 191.0C164.0 -69.0 92.0 -265.0 -52.0 -382.0C-20.0 -411.0 30.0 -476.0 51.0 -509.0C215.0 -364.0 303.0 -130.0 349.0 167.0Z"/></g>
<g fill="red" transform="translate(700 1200) scale(0.1 -0.1)"><path d="M0.0 0.0V-29.0H822.0V0.0ZM311.0 108.0C269.0 -101.0 172.0 -310.0 -26.0 -432.0C-18.0 -437.0 -6.0 -446.0 -2.0 -451.0C196.0 -327.0 295.0 -113.0 343.0 101.0Z"/></g>
<g fill="black" opacity=".8" transform="translate(700 1200) scale(0.1 -0.1)"><path d="M0.0 0.0V-25.0H829.0V0.0ZM316.0 99.0C265.0 -100.0 166.0 -314.0 -21.0 -433.0C-15.0 -437.0 -5.0 -447.0 -2.0 -453.0C187.0 -328.0 287.0 -113.0 342.0 92.0Z"/></g>
<g fill="red" transform="translate(800 1200) scale(0.1 -0.1)"><path d="M0.0 0.0V-113.0H869.0V0.0ZM276.0 69.0C241.0 -117.0 152.0 -313.0 -32.0 -412.0C-1.0 -433.0 47.0 -478.0 70.0 -505.0C263.0 -390.0 364.0 -173.0 418.0 45.0Z"/></g>
<g fill="black" opacity=".8" transform="translate(800 1200) scale(0.1 -0.1)"><path d="M0.0 0.0 1.0 -114.0H862.0V0.0ZM287.0 77.0C245.0 -112.0 153.0 -310.0 -27.0 -412.0C3.0 -436.0 44.0 -481.0 67.0 -508.0C259.0 -386.0 362.0 -170.0 422.0 51.0Z"/></g>
<g fill="red" transform="translate(900 1200) scale(0.1 -0.1)"><path d="M0.0 0.0V-29.0H521.0V0.0ZM211.0 190.0C179.0 -103.0 116.0 -337.0 -35.0 -484.0C-27.0 -489.0 -14.0 -499.0 -9.0 -504.0C142.0 -348.0 206.0 -118.0 242.0 187.0Z"/></g>
<g fill="black" opacity=".8" transform="translate(900 1200) scale(0.1 -0.1)"><path d="M0.0 0.0 -1.0 -28.0H529.0V0.0ZM210.0 199.0C177.0 -93.0 113.0 -338.0 -37.0 -483.0C-31.0 -487.0 -18.0 -498.0 -13.0 -503.0C138.0 -348.0 203.0 -107.0 239.0 195.0Z"/></g>
<g fill="red" transform="translate(1000 1200) scale(0.1 -0.1)"><path d="M0.0 0.0V-131.0H545.0V0.0ZM152.0 175.0C132.0 -106.0 82.0 -344.0 -63.0 -479.0C-32.0 -505.0 21.0 -564.0 40.0 -593.0C201.0 -428.0 266.0 -160.0 295.0 164.0Z"/></g>
<g fill="black" opacity=".8" transform="translate(1000 1200) scale(0.1 -0.1)"><path d="M0.0 0.0 -1.0 -128.0H538.0V0.0ZM162.0 172.0C137.0 -123.0 82.0 -349.0 -57.0 -480.0C-26.0 -505.0 22.0 -561.0 44.0 -589.0C197.0 -430.0 266.0 -172.0 299.0 157.0Z"/></g>
<g fill="red" transform="translate(1100 1200) scale(0.1 -0.1)"><path d="M0.0 0.0V-30.0H513.0V0.0ZM172.0 131.0C139.0 -131.0 81.0 -362.0 -36.0 -511.0C-28.0 -515.0 -15.0 -525.0 -9.0 -529.0C106.0 -373.0 165.0 -144.0 202.0 127.0Z"/></g>
<g fill="black" opacity=".8" transform="translate(1100 1200) scale(0.1 -0.1)"><path d="M0.0 0.0V-27.0H522.0V0.0ZM170.0 144.0C138.0 -127.0 81.0 -361.0 -39.0 -509.0C-33.0 -513.0 -20.0 -524.0 -16.0 -529.0C106.0 -372.0 162.0 -142.0 198.0 139.0Z"/></g>
<g fill="red" transform="translate(1200 1200) scale(0.1 -0.1)"><path d="M0.0 0.0V-130.0H533.0V0.0ZM106.0 105.0C87.0 -148.0 42.0 -381.0 -61.0 -515.0C-29.0 -531.0 34.0 -571.0 57.0 -592.0C161.0 -436.0 214.0 -186.0 240.0 92.0Z"/></g>
<g fill="black" opacity=".8" transform="translate(1200 1200) scale(0.1 -0.1)"><path d="M0.0 0.0V-125.0H524.0V0.0ZM111.0 95.0C93.0 -154.0 49.0 -382.0 -53.0 -510.0C-21.0 -529.0 34.0 -574.0 57.0 -594.0C163.0 -442.0 215.0 -195.0 240.0 83.0Z"/></g>
<g fill="red" transform="translate(1300 1200) scale(0.1 -0.1)"><path d="M0.0 0.0V-29.0H578.0V0.0ZM158.0 201.0C157.0 -72.0 150.0 -492.0 -80.0 -677.0C-72.0 -681.0 -60.0 -688.0 -54.0 -693.0C177.0 -499.0 186.0 -83.0 188.0 201.0Z"/></g>
<g fill="black" opacity=".8" transform="translate(1300 1200) scale(0.1 -0.1)"><path d="M0.0 0.0 -1.0 -28.0H580.0V0.0ZM156.0 189.0C154.0 -78.0 142.0 -493.0 -69.0 -681.0C-62.0 -684.0 -49.0 -693.0 -45.0 -698.0C170.0 -500.0 183.0 -89.0 184.0 189.0Z"/></g>
<g fill="red" transform="translate(1400 1200) scale(0.1 -0.1)"><path d="M0.0 0.0V-134.0H595.0V0.0ZM110.0 156.0C108.0 -202.0 121.0 -503.0 -84.0 -687.0C-48.0 -710.0 -4.0 -755.0 18.0 -790.0C245.0 -578.0 249.0 -233.0 251.0 156.0Z"/></g>
<g fill="black" opacity=".8" transform="translate(1400 1200) scale(0.1 -0.1)"><path d="M0.0 0.0 -1.0 -128.0H593.0V0.0ZM118.0 164.0C115.0 -182.0 116.0 -498.0 -89.0 -684.0C-52.0 -711.0 -12.0 -759.0 12.0 -795.0C236.0 -577.0 252.0 -219.0 258.0 163.0Z"/></g>
</svg>
