<?xml version="1.0" encoding="UTF-8"?>
<svg width="1700" height="1200" xmlns="http://www.w3.org/2000/svg">
<rect width="100%" height="100%" fill="white"/>
<g fill="green" transform="translate(100 100) scale(0.1 -0.1)"><path d="M-0.0 0.0 -1.0 112.0H-23.0V0.0H0.0ZM-442.0 -343.0C-379.0 -237.0 -280.0 -535.0 -366.0 -607.0C-365.0 -605.0 -366.0 -601.0 -366.0 -600.0C-276.0 -527.0 -376.0 -231.0 -444.0 -335.0L-442.0 -343.0Z"/></g>
<g fill="green" transform="translate(200 100) scale(0.1 -0.1)"><path d="M-0.0 -0.0 -4.0 70.0H-10.0V-0.0H0.0ZM-415.0 -376.0C-370.0 -372.0 -254.0 -526.0 -360.0 -621.0C-343.0 -622.0 -353.0 -607.0 -345.0 -619.0C-239.0 -517.0 -345.0 -349.0 -405.0 -348.0L-415.0 -376.0Z"/></g>
<g fill="green" transform="translate(300 100) scale(0.1 -0.1)"><path d="M0.0 0.0 -1.0 83.0H509.0V0.0H0.0ZM-185.0 -250.0C-159.0 -362.0 -131.0 -885.0 -369.0 -1082.0C-361.0 -1084.0 -351.0 -1090.0 -346.0 -1094.0C-105.0 -889.0 -132.0 -369.0 -159.0 -246.0L-185.0 -250.0Z"/></g>
<g fill="green" transform="translate(400 100) scale(0.1 -0.1)"><path d="M0.0 0.0 -4.0 -50.0H531.0V0.0H0.0ZM-201.0 -313.0C-184.0 -528.0 -127.0 -886.0 -375.0 -1096.0C-330.0 -1120.0 -295.0 -1152.0 -267.0 -1192.0C-7.0 -951.0 -42.0 -554.0 -64.0 -302.0L-201.0 -313.0Z"/></g>
<g fill="green" transform="translate(500 100) scale(0.1 -0.1)"><path d="M0.0 0.0V165.0H-362.0V0.0H0.0ZM556.0 15.0C560.0 77.0 549.0 -174.0 389.0 -212.0C389.0 -212.0 385.0 -211.0 385.0 -212.0C549.0 -173.0 557.0 77.0 550.0 18.0L556.0 15.0Z"/></g>
<g fill="green" transform="translate(600 100) scale(0.1 -0.1)"><path d="M0.0 0.0 -1.0 139.0H-379.0V0.0H0.0ZM600.0 12.0C594.0 27.0 602.0 -89.0 432.0 -145.0C441.0 -151.0 415.0 -146.0 417.0 -162.0C589.0 -99.0 585.0 22.0 587.0 23.0L600.0 12.0Z"/></g>
<g fill="green" transform="translate(700 100) scale(0.1 -0.1)"><path d="M0.0 0.0 -2.0 132.0H357.0V0.0H0.0ZM-521.0 115.0C-446.0 133.0 -329.0 -353.0 -492.0 -523.0C-491.0 -521.0 -491.0 -516.0 -490.0 -516.0C-320.0 -343.0 -440.0 139.0 -520.0 125.0L-521.0 115.0Z"/></g>
<g fill="green" transform="translate(800 100) scale(0.1 -0.1)"><path d="M0.0 0.0 -7.0 61.0H383.0V0.0H0.0ZM-492.0 91.0C-440.0 -22.0 -307.0 -336.0 -486.0 -524.0C-461.0 -534.0 -469.0 -532.0 -458.0 -556.0C-265.0 -347.0 -382.0 -3.0 -449.0 125.0L-492.0 91.0Z"/></g>
<g fill="green" transform="translate(900 100) scale(0.1 -0.1)"><path d="M0.0 0.0 -1.0 135.0H433.0V0.0H0.0ZM-327.0 -622.0C-324.0 -376.0 -338.0 -398.0 -398.0 -366.0C-397.0 -366.0 -400.0 -365.0 -402.0 -366.0C-339.0 -403.0 -326.0 -374.0 -329.0 -622.0H-327.0Z"/></g>
<g fill="green" transform="translate(1000 100) scale(0.1 -0.1)"><path d="M0.0 0.0 -2.0 92.0H457.0V0.0H0.0ZM-297.0 -647.0C-304.0 -430.0 -311.0 -408.0 -411.0 -385.0C-403.0 -390.0 -414.0 -386.0 -409.0 -395.0C-307.0 -422.0 -289.0 -446.0 -274.0 -657.0L-297.0 -647.0Z"/></g>
<g fill="green" transform="translate(1100 100) scale(0.1 -0.1)"><path d="M0.0 0.0 -3.0 -112.0H-103.0V0.0H0.0ZM-311.0 -309.0C-326.0 -317.0 -374.0 -507.0 -525.0 -574.0C-517.0 -577.0 -509.0 -584.0 -505.0 -589.0C-354.0 -518.0 -303.0 -324.0 -289.0 -311.0L-311.0 -309.0Z"/></g>
<g fill="green" transform="translate(1200 100) scale(0.1 -0.1)"><path d="M0.0 0.0 -14.0 -196.0H-117.0V0.0H0.0ZM-345.0 -320.0C-354.0 -355.0 -369.0 -472.0 -530.0 -547.0C-501.0 -568.0 -472.0 -607.0 -455.0 -638.0C-279.0 -545.0 -244.0 -399.0 -234.0 -332.0L-345.0 -320.0Z"/></g>
<g fill="green" transform="translate(1300 100) scale(0.1 -0.1)"><path d="M-0.0 0.0 2.0 -224.0H-41.0V0.0H0.0ZM-584.0 -392.0C-476.0 -186.0 -277.0 -547.0 -276.0 -633.0C-274.0 -629.0 -268.0 -623.0 -267.0 -621.0C-264.0 -538.0 -464.0 -177.0 -579.0 -383.0L-584.0 -392.0Z"/></g>
<g fill="green" transform="translate(1400 100) scale(0.1 -0.1)"><path d="M0.0 0.0 8.0 -199.0H138.0V0.0H0.0ZM-467.0 -406.0C-390.0 -326.0 -189.0 -505.0 -213.0 -618.0C-187.0 -611.0 -189.0 -569.0 -169.0 -575.0C-158.0 -466.0 -352.0 -283.0 -453.0 -373.0L-467.0 -406.0Z"/></g>
<g fill="green" transform="translate(1500 100) scale(0.1 -0.1)"><path d="M0.0 0.0 1.0 127.0H-11.0V0.0H0.0ZM-431.0 -262.0C-410.0 -413.0 -351.0 -490.0 -297.0 -554.0C-295.0 -554.0 -291.0 -556.0 -291.0 -556.0C-345.0 -485.0 -401.0 -415.0 -425.0 -258.0L-431.0 -262.0Z"/></g>
<g fill="green" transform="translate(1600 100) scale(0.1 -0.1)"><path d="M0.0 0.0 3.0 57.0H7.0V0.0H0.0ZM-441.0 -306.0C-417.0 -463.0 -361.0 -549.0 -309.0 -613.0C-301.0 -617.0 -276.0 -636.0 -273.0 -639.0C-323.0 -561.0 -374.0 -456.0 -409.0 -292.0L-441.0 -306.0Z"/></g>
<g fill="green" transform="translate(100 200) scale(0.1 -0.1)"><path d="M0.0 0.0 -2.0 101.0H2.0V0.0H0.0ZM-412.0 -345.0C-352.0 -189.0 -257.0 -503.0 -334.0 -582.0C-332.0 -581.0 -330.0 -579.0 -329.0 -579.0C-248.0 -498.0 -344.0 -184.0 -410.0 -338.0L-412.0 -345.0Z"/></g>
<g fill="green" transform="translate(200 200) scale(0.1 -0.1)"><path d="M0.0 0.0 -7.0 47.0H-32.0V0.0H0.0ZM-457.0 -397.0C-411.0 -364.0 -287.0 -533.0 -379.0 -644.0C-359.0 -650.0 -367.0 -646.0 -360.0 -662.0C-263.0 -539.0 -372.0 -347.0 -434.0 -372.0L-457.0 -397.0Z"/></g>
<g fill="green" transform="translate(300 200) scale(0.1 -0.1)"><path d="M-0.0 0.0 -2.0 101.0H16.0V0.0H0.0ZM-437.0 -336.0C-363.0 -254.0 -261.0 -560.0 -361.0 -631.0C-360.0 -629.0 -359.0 -624.0 -359.0 -623.0C-255.0 -551.0 -358.0 -248.0 -437.0 -327.0V-336.0Z"/></g>
<g fill="green" transform="translate(400 200) scale(0.1 -0.1)"><path d="M0.0 0.0 -9.0 70.0H-39.0V0.0H0.0ZM-437.0 -375.0C-383.0 -385.0 -261.0 -521.0 -373.0 -606.0C-352.0 -598.0 -351.0 -567.0 -338.0 -574.0C-238.0 -490.0 -355.0 -351.0 -427.0 -342.0L-437.0 -375.0Z"/></g>
<g fill="green" transform="translate(500 200) scale(0.1 -0.1)"><path d="M0.0 0.0V81.0H-23.0V0.0H0.0ZM-440.0 -341.0C-367.0 -241.0 -255.0 -537.0 -372.0 -592.0C-373.0 -589.0 -378.0 -580.0 -379.0 -577.0C-258.0 -525.0 -373.0 -230.0 -451.0 -332.0L-440.0 -341.0Z"/></g>
<g fill="green" transform="translate(600 200) scale(0.1 -0.1)"><path d="M0.0 0.0 -2.0 85.0H-6.0V0.0H0.0ZM-408.0 -366.0C-355.0 -414.0 -224.0 -557.0 -352.0 -644.0C-343.0 -637.0 -368.0 -601.0 -364.0 -606.0C-237.0 -520.0 -365.0 -370.0 -433.0 -329.0L-408.0 -366.0Z"/></g>
<g fill="red" transform="translate(100 300) scale(0.1 -0.1)"><path d="M0.0 0.0V-29.0H672.0V0.0H0.0ZM280.0 163.0C217.0 -50.0 112.0 -235.0 -33.0 -352.0C-25.0 -357.0 -12.0 -367.0 -7.0 -372.0C135.0 -248.0 242.0 -65.0 308.0 156.0L280.0 163.0Z"/></g>
<g fill="black" opacity=".8" transform="translate(100 300) scale(0.1 -0.1)"><path d="M0.0 0.0V-28.0H669.0V0.0H0.0ZM277.0 170.0C220.0 -53.0 116.0 -229.0 -32.0 -352.0C-25.0 -358.0 -12.0 -368.0 -8.0 -375.0C140.0 -246.0 245.0 -68.0 305.0 164.0L277.0 170.0Z"/></g>
<g fill="red" transform="translate(200 300) scale(0.1 -0.1)"><path d="M0.0 0.0V-132.0H662.0V0.0H0.0ZM204.0 149.0C162.0 -68.0 76.0 -255.0 -64.0 -363.0C-35.0 -392.0 13.0 -455.0 30.0 -487.0C188.0 -352.0 290.0 -131.0 345.0 123.0L204.0 149.0Z"/></g>
<g fill="black" opacity=".8" transform="translate(200 300) scale(0.1 -0.1)"><path d="M0.0 0.0 -1.0 -131.0H665.0V0.0H0.0ZM206.0 142.0C164.0 -66.0 73.0 -257.0 -64.0 -366.0C-38.0 -393.0 12.0 -454.0 29.0 -484.0C186.0 -349.0 291.0 -129.0 348.0 115.0L206.0 142.0Z"/></g>
<g fill="red" transform="translate(300 300) scale(0.1 -0.1)"><path d="M0.0 0.0V-30.0H672.0V0.0H0.0ZM265.0 210.0C214.0 -117.0 130.0 -392.0 -41.0 -566.0C-33.0 -571.0 -21.0 -582.0 -15.0 -586.0C155.0 -403.0 240.0 -133.0 295.0 206.0L265.0 210.0Z"/></g>
<g fill="black" opacity=".8" transform="translate(300 300) scale(0.1 -0.1)"><path d="M0.0 0.0V-22.0H673.0V0.0H0.0ZM257.0 214.0C214.0 -111.0 131.0 -390.0 -45.0 -561.0C-36.0 -567.0 -21.0 -578.0 -15.0 -585.0C160.0 -405.0 245.0 -128.0 291.0 210.0L257.0 214.0Z"/></g>
<g fill="red" transform="translate(400 300) scale(0.1 -0.1)"><path d="M0.0 0.0V-137.0H653.0V0.0H0.0ZM189.0 176.0C154.0 -129.0 82.0 -400.0 -68.0 -556.0C-35.0 -582.0 25.0 -642.0 46.0 -671.0C208.0 -484.0 294.0 -179.0 338.0 160.0L189.0 176.0Z"/></g>
<g fill="black" opacity=".8" transform="translate(400 300) scale(0.1 -0.1)"><path d="M0.0 0.0 -2.0 -142.0H653.0V0.0H0.0ZM183.0 175.0C153.0 -140.0 85.0 -401.0 -73.0 -553.0C-37.0 -579.0 27.0 -639.0 51.0 -672.0C224.0 -490.0 305.0 -197.0 344.0 157.0L183.0 175.0Z"/></g>
<g fill="red" transform="translate(500 300) scale(0.1 -0.1)"><path d="M0.0 0.0V-29.0H663.0V0.0H0.0ZM292.0 200.0C248.0 -55.0 159.0 -321.0 -40.0 -483.0C-34.0 -489.0 -25.0 -499.0 -20.0 -504.0C183.0 -338.0 273.0 -67.0 322.0 194.0L292.0 200.0Z"/></g>
<g fill="black" opacity=".8" transform="translate(500 300) scale(0.1 -0.1)"><path d="M0.0 0.0V-28.0H659.0V0.0H0.0ZM288.0 206.0C245.0 -44.0 157.0 -327.0 -38.0 -483.0C-30.0 -488.0 -17.0 -498.0 -12.0 -505.0C184.0 -341.0 273.0 -59.0 319.0 202.0L288.0 206.0Z"/></g>
<g fill="red" transform="translate(600 300) scale(0.1 -0.1)"><path d="M0.0 0.0V-140.0H658.0V0.0H0.0ZM240.0 184.0C212.0 -47.0 142.0 -315.0 -34.0 -453.0C-5.0 -481.0 39.0 -536.0 61.0 -569.0C264.0 -402.0 347.0 -109.0 393.0 163.0L240.0 184.0Z"/></g>
<g fill="black" opacity=".8" transform="translate(600 300) scale(0.1 -0.1)"><path d="M0.0 0.0 -2.0 -139.0H662.0V0.0H0.0ZM245.0 180.0C212.0 -63.0 138.0 -311.0 -48.0 -451.0C-14.0 -478.0 39.0 -533.0 62.0 -567.0C265.0 -400.0 353.0 -123.0 398.0 159.0L245.0 180.0Z"/></g>
<g fill="red" transform="translate(700 300) scale(0.1 -0.1)"><path d="M0.0 0.0V-29.0H645.0V0.0H0.0ZM277.0 95.0C213.0 -67.0 101.0 -205.0 -33.0 -294.0C-25.0 -299.0 -14.0 -308.0 -9.0 -314.0C123.0 -221.0 237.0 -82.0 306.0 88.0L277.0 95.0Z"/></g>
<g fill="black" opacity=".8" transform="translate(700 300) scale(0.1 -0.1)"><path d="M0.0 0.0V-32.0H644.0V0.0H0.0ZM274.0 96.0C214.0 -78.0 105.0 -200.0 -24.0 -296.0C-17.0 -301.0 -6.0 -311.0 -3.0 -318.0C127.0 -218.0 237.0 -92.0 300.0 89.0L274.0 96.0Z"/></g>
<g fill="red" transform="translate(800 300) scale(0.1 -0.1)"><path d="M0.0 0.0V-129.0H658.0V0.0H0.0ZM227.0 79.0C180.0 -75.0 85.0 -207.0 -41.0 -283.0C-11.0 -308.0 41.0 -363.0 61.0 -391.0C195.0 -296.0 305.0 -139.0 366.0 46.0L227.0 79.0Z"/></g>
<g fill="black" opacity=".8" transform="translate(800 300) scale(0.1 -0.1)"><path d="M0.0 0.0V-126.0H659.0V0.0H0.0ZM233.0 77.0C187.0 -62.0 85.0 -206.0 -41.0 -284.0C-17.0 -310.0 28.0 -365.0 45.0 -392.0C188.0 -293.0 303.0 -127.0 366.0 46.0L233.0 77.0Z"/></g>
<g fill="red" transform="translate(900 300) scale(0.1 -0.1)"><path d="M0.0 0.0V-30.0H631.0V0.0H0.0ZM254.0 -127.0C201.0 -327.0 103.0 -488.0 -38.0 -589.0C-31.0 -594.0 -19.0 -606.0 -15.0 -611.0C126.0 -503.0 226.0 -342.0 283.0 -132.0L254.0 -127.0Z"/></g>
<g fill="black" opacity=".8" transform="translate(900 300) scale(0.1 -0.1)"><path d="M0.0 0.0 1.0 -28.0H629.0V0.0H0.0ZM251.0 -120.0C199.0 -325.0 103.0 -486.0 -35.0 -591.0C-27.0 -596.0 -14.0 -607.0 -10.0 -613.0C128.0 -503.0 225.0 -340.0 281.0 -126.0L251.0 -120.0Z"/></g>
<g fill="red" transform="translate(1000 300) scale(0.1 -0.1)"><path d="M0.0 0.0V-126.0H631.0V0.0H0.0ZM185.0 -158.0C147.0 -353.0 67.0 -520.0 -62.0 -616.0C-30.0 -639.0 27.0 -691.0 50.0 -718.0C185.0 -601.0 278.0 -409.0 328.0 -183.0L185.0 -158.0Z"/></g>
<g fill="black" opacity=".8" transform="translate(1000 300) scale(0.1 -0.1)"><path d="M0.0 0.0 1.0 -128.0H633.0V0.0H0.0ZM189.0 -163.0C151.0 -356.0 68.0 -521.0 -63.0 -613.0C-34.0 -637.0 21.0 -689.0 42.0 -716.0C184.0 -602.0 279.0 -415.0 330.0 -189.0L189.0 -163.0Z"/></g>
<g fill="red" transform="translate(1100 300) scale(0.1 -0.1)"><path d="M0.0 0.0V-29.0H860.0V0.0H0.0ZM363.0 138.0C300.0 -71.0 169.0 -281.0 -23.0 -407.0C-17.0 -413.0 -8.0 -424.0 -5.0 -431.0C193.0 -300.0 323.0 -88.0 394.0 129.0L363.0 138.0Z"/></g>
<g fill="black" opacity=".8" transform="translate(1100 300) scale(0.1 -0.1)"><path d="M0.0 0.0V-30.0H870.0V0.0H0.0ZM354.0 140.0C291.0 -70.0 169.0 -276.0 -22.0 -406.0C-14.0 -412.0 -1.0 -423.0 3.0 -430.0C194.0 -296.0 317.0 -85.0 385.0 133.0L354.0 140.0Z"/></g>
<g fill="red" transform="translate(1200 300) scale(0.1 -0.1)"><path d="M0.0 0.0V-139.0H901.0V0.0H0.0ZM300.0 117.0C253.0 -73.0 143.0 -292.0 -35.0 -405.0C-4.0 -433.0 44.0 -488.0 67.0 -522.0C265.0 -385.0 385.0 -148.0 457.0 82.0L300.0 117.0Z"/></g>
<g fill="black" opacity=".8" transform="translate(1200 300) scale(0.1 -0.1)"><path d="M0.0 0.0V-138.0H891.0V0.0H0.0ZM308.0 115.0C257.0 -80.0 146.0 -290.0 -40.0 -402.0C-9.0 -432.0 41.0 -492.0 62.0 -526.0C268.0 -388.0 395.0 -152.0 466.0 81.0L308.0 115.0Z"/></g>
<g fill="red" transform="translate(1300 300) scale(0.1 -0.1)"><path d="M0.0 0.0V-29.0H869.0V0.0H0.0ZM308.0 193.0C262.0 -109.0 183.0 -445.0 -18.0 -656.0C-12.0 -662.0 -2.0 -672.0 3.0 -679.0C209.0 -459.0 290.0 -120.0 339.0 188.0L308.0 193.0Z"/></g>
<g fill="black" opacity=".8" transform="translate(1300 300) scale(0.1 -0.1)"><path d="M0.0 0.0 1.0 -19.0H861.0V0.0H0.0ZM306.0 199.0C265.0 -95.0 188.0 -457.0 -28.0 -652.0C-19.0 -657.0 -5.0 -668.0 1.0 -676.0C219.0 -472.0 296.0 -111.0 341.0 195.0L306.0 199.0Z"/></g>
<g fill="red" transform="translate(1400 300) scale(0.1 -0.1)"><path d="M0.0 0.0V-140.0H896.0V0.0H0.0ZM279.0 161.0C246.0 -131.0 169.0 -488.0 -33.0 -676.0C2.0 -703.0 54.0 -755.0 80.0 -788.0C306.0 -568.0 392.0 -190.0 441.0 144.0L279.0 161.0Z"/></g>
<g fill="black" opacity=".8" transform="translate(1400 300) scale(0.1 -0.1)"><path d="M0.0 0.0 3.0 -146.0H905.0V0.0H0.0ZM269.0 160.0C236.0 -152.0 172.0 -476.0 -35.0 -659.0C4.0 -691.0 61.0 -754.0 87.0 -793.0C315.0 -576.0 396.0 -216.0 442.0 140.0L269.0 160.0Z"/></g>
<g fill="red" transform="translate(1500 300) scale(0.1 -0.1)"><path d="M0.0 0.0V-29.0H856.0V0.0H0.0ZM286.0 186.0C282.0 125.0 262.0 -444.0 -28.0 -670.0C-20.0 -674.0 -7.0 -682.0 -1.0 -687.0C291.0 -452.0 309.0 113.0 315.0 186.0H286.0Z"/></g>
<g fill="black" opacity=".8" transform="translate(1500 300) scale(0.1 -0.1)"><path d="M0.0 0.0 -1.0 -24.0H854.0V0.0H0.0ZM277.0 189.0C280.0 131.0 263.0 -446.0 -22.0 -670.0C-14.0 -673.0 0.0 -681.0 6.0 -688.0C297.0 -459.0 312.0 120.0 309.0 188.0L277.0 189.0Z"/></g>
<g fill="red" transform="translate(1600 300) scale(0.1 -0.1)"><path d="M0.0 0.0V-141.0H878.0V0.0H0.0ZM240.0 139.0C233.0 -1.0 242.0 -432.0 -43.0 -668.0C7.0 -697.0 52.0 -734.0 82.0 -773.0C369.0 -503.0 384.0 -42.0 392.0 139.0H240.0Z"/></g>
<g fill="black" opacity=".8" transform="translate(1600 300) scale(0.1 -0.1)"><path d="M0.0 0.0 -3.0 -144.0H881.0V0.0H0.0ZM238.0 143.0C232.0 -14.0 245.0 -423.0 -45.0 -655.0C5.0 -688.0 39.0 -730.0 69.0 -778.0C379.0 -512.0 391.0 -64.0 401.0 137.0L238.0 143.0Z"/></g>
<g fill="red" transform="translate(100 400) scale(0.1 -0.1)"><path d="M0.0 0.0V-29.0H860.0V0.0H0.0ZM367.0 203.0C308.0 -58.0 194.0 -316.0 -32.0 -472.0C-25.0 -478.0 -16.0 -488.0 -11.0 -495.0C217.0 -334.0 333.0 -73.0 398.0 196.0L367.0 203.0Z"/></g>
<g fill="black" opacity=".8" transform="translate(100 400) scale(0.1 -0.1)"><path d="M0.0 0.0V-30.0H866.0V0.0H0.0ZM363.0 196.0C304.0 -52.0 191.0 -318.0 -30.0 -471.0C-23.0 -476.0 -10.0 -486.0 -6.0 -494.0C217.0 -336.0 330.0 -67.0 393.0 190.0L363.0 196.0Z"/></g>
<g fill="red" transform="translate(200 400) scale(0.1 -0.1)"><path d="M0.0 0.0V-142.0H896.0V0.0H0.0ZM315.0 162.0C271.0 -77.0 170.0 -346.0 -36.0 -484.0C-6.0 -513.0 39.0 -567.0 60.0 -601.0C291.0 -435.0 403.0 -145.0 468.0 134.0L315.0 162.0Z"/></g>
<g fill="black" opacity=".8" transform="translate(200 400) scale(0.1 -0.1)"><path d="M0.0 0.0 1.0 -138.0H892.0V0.0H0.0ZM317.0 170.0C270.0 -85.0 170.0 -340.0 -42.0 -479.0C-10.0 -509.0 39.0 -570.0 60.0 -607.0C295.0 -439.0 410.0 -154.0 476.0 142.0L317.0 170.0Z"/></g>
<g fill="red" transform="translate(300 400) scale(0.1 -0.1)"><path d="M0.0 0.0V-29.0H543.0V0.0H0.0ZM222.0 199.0C171.0 -116.0 85.0 -381.0 -81.0 -548.0C-74.0 -553.0 -62.0 -564.0 -57.0 -569.0C111.0 -393.0 196.0 -132.0 252.0 195.0L222.0 199.0Z"/></g>
<g fill="black" opacity=".8" transform="translate(300 400) scale(0.1 -0.1)"><path d="M0.0 0.0 1.0 -26.0H547.0V0.0H0.0ZM212.0 196.0C166.0 -114.0 91.0 -382.0 -74.0 -547.0C-67.0 -552.0 -54.0 -562.0 -49.0 -569.0C117.0 -395.0 193.0 -129.0 242.0 191.0L212.0 196.0Z"/></g>
<g fill="red" transform="translate(400 400) scale(0.1 -0.1)"><path d="M0.0 0.0V-137.0H572.0V0.0H0.0ZM146.0 153.0C115.0 -161.0 51.0 -444.0 -88.0 -608.0C-57.0 -633.0 -2.0 -689.0 18.0 -717.0C168.0 -522.0 243.0 -207.0 283.0 139.0L146.0 153.0Z"/></g>
<g fill="black" opacity=".8" transform="translate(400 400) scale(0.1 -0.1)"><path d="M0.0 0.0 1.0 -139.0H569.0V0.0H0.0ZM146.0 161.0C116.0 -167.0 56.0 -435.0 -92.0 -594.0C-63.0 -625.0 -13.0 -691.0 4.0 -726.0C178.0 -532.0 253.0 -224.0 293.0 144.0L146.0 161.0Z"/></g>
<g fill="red" transform="translate(500 400) scale(0.1 -0.1)"><path d="M0.0 0.0V-29.0H565.0V0.0H0.0ZM213.0 137.0C168.0 -59.0 94.0 -243.0 -5.0 -362.0C1.0 -369.0 10.0 -383.0 14.0 -390.0C117.0 -260.0 194.0 -73.0 242.0 131.0L213.0 137.0Z"/></g>
<g fill="black" opacity=".8" transform="translate(500 400) scale(0.1 -0.1)"><path d="M0.0 0.0 1.0 -29.0H566.0V0.0H0.0ZM223.0 139.0C172.0 -62.0 90.0 -239.0 -21.0 -365.0C-13.0 -370.0 -1.0 -380.0 3.0 -387.0C114.0 -255.0 197.0 -76.0 251.0 133.0L223.0 139.0Z"/></g>
<g fill="red" transform="translate(600 400) scale(0.1 -0.1)"><path d="M0.0 0.0V-139.0H599.0V0.0H0.0ZM177.0 115.0C137.0 -89.0 60.0 -276.0 -57.0 -389.0C-31.0 -420.0 11.0 -489.0 26.0 -522.0C165.0 -380.0 260.0 -152.0 313.0 88.0L177.0 115.0Z"/></g>
<g fill="black" opacity=".8" transform="translate(600 400) scale(0.1 -0.1)"><path d="M0.0 0.0 2.0 -135.0H599.0V0.0H0.0ZM169.0 110.0C132.0 -80.0 60.0 -279.0 -44.0 -395.0C-19.0 -425.0 26.0 -491.0 41.0 -521.0C168.0 -376.0 257.0 -143.0 306.0 84.0L169.0 110.0Z"/></g>
<g fill="red" transform="translate(700 400) scale(0.1 -0.1)"><path d="M0.0 0.0V-30.0H578.0V0.0H0.0ZM224.0 -135.0C178.0 -341.0 92.0 -511.0 -41.0 -618.0C-34.0 -623.0 -22.0 -633.0 -18.0 -638.0C115.0 -526.0 204.0 -356.0 254.0 -139.0L224.0 -135.0Z"/></g>
<g fill="black" opacity=".8" transform="translate(700 400) scale(0.1 -0.1)"><path d="M0.0 0.0 1.0 -27.0H573.0V0.0H0.0ZM225.0 -129.0C178.0 -339.0 92.0 -511.0 -42.0 -619.0C-34.0 -623.0 -20.0 -634.0 -16.0 -640.0C117.0 -527.0 205.0 -353.0 255.0 -134.0L225.0 -129.0Z"/></g>
<g fill="red" transform="translate(800 400) scale(0.1 -0.1)"><path d="M0.0 0.0V-125.0H577.0V0.0H0.0ZM170.0 -167.0C138.0 -367.0 66.0 -537.0 -61.0 -634.0C-31.0 -657.0 22.0 -712.0 42.0 -739.0C180.0 -619.0 266.0 -423.0 310.0 -189.0L170.0 -167.0Z"/></g>
<g fill="black" opacity=".8" transform="translate(800 400) scale(0.1 -0.1)"><path d="M0.0 0.0 2.0 -127.0H582.0V0.0H0.0ZM171.0 -171.0C137.0 -371.0 64.0 -539.0 -63.0 -635.0C-33.0 -658.0 21.0 -708.0 42.0 -734.0C179.0 -618.0 265.0 -426.0 310.0 -195.0L171.0 -171.0Z"/></g>
<g fill="red" transform="translate(900 400) scale(0.1 -0.1)"><path d="M0.0 0.0V-30.0H883.0V0.0H0.0ZM328.0 174.0C273.0 -119.0 175.0 -344.0 -15.0 -484.0C-7.0 -488.0 5.0 -498.0 10.0 -504.0C198.0 -356.0 299.0 -135.0 358.0 169.0L328.0 174.0Z"/></g>
<g fill="black" opacity=".8" transform="translate(900 400) scale(0.1 -0.1)"><path d="M0.0 0.0 1.0 -31.0H880.0V0.0H0.0ZM332.0 169.0C276.0 -119.0 170.0 -341.0 -14.0 -485.0C-6.0 -491.0 7.0 -501.0 11.0 -508.0C196.0 -357.0 302.0 -135.0 363.0 163.0L332.0 169.0Z"/></g>
<g fill="red" transform="translate(1000 400) scale(0.1 -0.1)"><path d="M0.0 0.0V-137.0H892.0V0.0H0.0ZM288.0 133.0C242.0 -140.0 144.0 -362.0 -33.0 -486.0C1.0 -512.0 63.0 -569.0 87.0 -598.0C270.0 -449.0 382.0 -198.0 441.0 109.0L288.0 133.0Z"/></g>
<g fill="black" opacity=".8" transform="translate(1000 400) scale(0.1 -0.1)"><path d="M0.0 0.0 2.0 -134.0H897.0V0.0H0.0ZM284.0 139.0C241.0 -136.0 143.0 -362.0 -28.0 -486.0C3.0 -511.0 60.0 -566.0 83.0 -597.0C270.0 -449.0 379.0 -198.0 439.0 112.0L284.0 139.0Z"/></g>
<g fill="red" transform="translate(1100 400) scale(0.1 -0.1)"><path d="M0.0 0.0V-30.0H566.0V0.0H0.0ZM201.0 168.0C163.0 -114.0 93.0 -342.0 -58.0 -485.0C-51.0 -490.0 -38.0 -500.0 -33.0 -506.0C117.0 -353.0 190.0 -129.0 232.0 164.0L201.0 168.0Z"/></g>
<g fill="black" opacity=".8" transform="translate(1100 400) scale(0.1 -0.1)"><path d="M0.0 0.0V-32.0H569.0V0.0H0.0ZM199.0 148.0C163.0 -121.0 97.0 -347.0 -47.0 -487.0C-41.0 -491.0 -28.0 -500.0 -24.0 -505.0C121.0 -359.0 188.0 -133.0 226.0 144.0L199.0 148.0Z"/></g>
<g fill="red" transform="translate(1200 400) scale(0.1 -0.1)"><path d="M0.0 0.0V-127.0H563.0V0.0H0.0ZM131.0 92.0C112.0 -168.0 59.0 -387.0 -71.0 -511.0C-40.0 -528.0 21.0 -569.0 43.0 -590.0C174.0 -444.0 235.0 -208.0 262.0 81.0L131.0 92.0Z"/></g>
<g fill="black" opacity=".8" transform="translate(1200 400) scale(0.1 -0.1)"><path d="M0.0 0.0 -1.0 -124.0H562.0V0.0H0.0ZM135.0 114.0C111.0 -159.0 57.0 -376.0 -71.0 -503.0C-43.0 -525.0 8.0 -573.0 27.0 -600.0C169.0 -449.0 233.0 -204.0 265.0 99.0L135.0 114.0Z"/></g>
<g fill="red" transform="translate(1300 400) scale(0.1 -0.1)"><path d="M0.0 0.0V-29.0H842.0V0.0H0.0ZM312.0 193.0C263.0 -101.0 173.0 -418.0 -38.0 -616.0C-31.0 -621.0 -21.0 -632.0 -16.0 -638.0C198.0 -434.0 289.0 -114.0 343.0 188.0L312.0 193.0Z"/></g>
<g fill="black" opacity=".8" transform="translate(1300 400) scale(0.1 -0.1)"><path d="M0.0 0.0 1.0 -22.0H844.0V0.0H0.0ZM308.0 195.0C262.0 -89.0 175.0 -427.0 -47.0 -610.0C-39.0 -615.0 -25.0 -625.0 -20.0 -632.0C204.0 -442.0 290.0 -104.0 341.0 190.0L308.0 195.0Z"/></g>
<g fill="red" transform="translate(1400 400) scale(0.1 -0.1)"><path d="M0.0 0.0V-140.0H896.0V0.0H0.0ZM287.0 161.0C250.0 -120.0 165.0 -452.0 -41.0 -626.0C-12.0 -655.0 32.0 -709.0 54.0 -743.0C290.0 -535.0 385.0 -182.0 439.0 142.0L287.0 161.0Z"/></g>
<g fill="black" opacity=".8" transform="translate(1400 400) scale(0.1 -0.1)"><path d="M0.0 0.0 3.0 -143.0H895.0V0.0H0.0ZM279.0 163.0C242.0 -138.0 168.0 -444.0 -46.0 -616.0C-10.0 -648.0 43.0 -710.0 67.0 -749.0C304.0 -545.0 394.0 -203.0 446.0 141.0L279.0 163.0Z"/></g>
<g fill="red" transform="translate(1500 400) scale(0.1 -0.1)"><path d="M0.0 0.0V-30.0H865.0V0.0H0.0ZM356.0 164.0C292.0 -49.0 166.0 -267.0 -24.0 -401.0C-17.0 -406.0 -8.0 -417.0 -3.0 -423.0C191.0 -285.0 315.0 -64.0 386.0 156.0L356.0 164.0Z"/></g>
<g fill="black" opacity=".8" transform="translate(1500 400) scale(0.1 -0.1)"><path d="M0.0 0.0 1.0 -30.0H866.0V0.0H0.0ZM356.0 164.0C290.0 -48.0 169.0 -265.0 -28.0 -400.0C-20.0 -406.0 -8.0 -416.0 -4.0 -423.0C194.0 -284.0 315.0 -63.0 385.0 156.0L356.0 164.0Z"/></g>
<g fill="red" transform="translate(1600 400) scale(0.1 -0.1)"><path d="M0.0 0.0V-139.0H905.0V0.0H0.0ZM311.0 139.0C262.0 -70.0 149.0 -307.0 -39.0 -428.0C-13.0 -461.0 25.0 -520.0 43.0 -557.0C263.0 -405.0 388.0 -148.0 462.0 105.0L311.0 139.0Z"/></g>
<g fill="black" opacity=".8" transform="translate(1600 400) scale(0.1 -0.1)"><path d="M0.0 0.0 2.0 -136.0H905.0V0.0H0.0ZM310.0 139.0C258.0 -75.0 149.0 -302.0 -42.0 -426.0C-14.0 -459.0 30.0 -523.0 48.0 -559.0C266.0 -407.0 391.0 -148.0 464.0 106.0L310.0 139.0Z"/></g>
<g fill="red" transform="translate(100 500) scale(0.1 -0.1)"><path d="M0.0 0.0V-29.0H874.0V0.0H0.0ZM363.0 126.0C300.0 -53.0 165.0 -226.0 -17.0 -329.0C-11.0 -335.0 -2.0 -346.0 3.0 -353.0C188.0 -245.0 322.0 -70.0 393.0 117.0L363.0 126.0Z"/></g>
<g fill="black" opacity=".8" transform="translate(100 500) scale(0.1 -0.1)"><path d="M0.0 0.0V-28.0H879.0V0.0H0.0ZM362.0 126.0C296.0 -58.0 165.0 -221.0 -19.0 -329.0C-12.0 -335.0 -1.0 -345.0 3.0 -352.0C189.0 -240.0 319.0 -73.0 390.0 119.0L362.0 126.0Z"/></g>
<g fill="red" transform="translate(200 500) scale(0.1 -0.1)"><path d="M0.0 0.0V-126.0H901.0V0.0H0.0ZM328.0 111.0C273.0 -48.0 146.0 -219.0 -33.0 -308.0C-3.0 -334.0 42.0 -385.0 64.0 -417.0C257.0 -311.0 393.0 -123.0 476.0 71.0L328.0 111.0Z"/></g>
<g fill="black" opacity=".8" transform="translate(200 500) scale(0.1 -0.1)"><path d="M0.0 0.0V-125.0H897.0V0.0H0.0ZM328.0 108.0C273.0 -47.0 151.0 -220.0 -32.0 -308.0C-4.0 -334.0 43.0 -389.0 63.0 -420.0C264.0 -311.0 399.0 -119.0 476.0 73.0L328.0 108.0Z"/></g>
<g fill="red" transform="translate(300 500) scale(0.1 -0.1)"><path d="M0.0 0.0V-29.0H614.0V0.0H0.0ZM281.0 161.0C223.0 -50.0 116.0 -215.0 -41.0 -317.0C-33.0 -322.0 -21.0 -333.0 -16.0 -338.0C139.0 -229.0 248.0 -65.0 309.0 155.0L281.0 161.0Z"/></g>
<g fill="black" opacity=".8" transform="translate(300 500) scale(0.1 -0.1)"><path d="M0.0 0.0V-27.0H609.0V0.0H0.0ZM284.0 170.0C220.0 -41.0 107.0 -202.0 -37.0 -321.0C-30.0 -327.0 -18.0 -338.0 -14.0 -345.0C131.0 -220.0 244.0 -56.0 312.0 163.0L284.0 170.0Z"/></g>
<g fill="red" transform="translate(400 500) scale(0.1 -0.1)"><path d="M0.0 0.0V-134.0H599.0V0.0H0.0ZM189.0 150.0C144.0 -57.0 59.0 -243.0 -70.0 -355.0C-47.0 -394.0 -14.0 -480.0 -4.0 -520.0C162.0 -372.0 271.0 -132.0 331.0 120.0L189.0 150.0Z"/></g>
<g fill="black" opacity=".8" transform="translate(400 500) scale(0.1 -0.1)"><path d="M0.0 0.0 -1.0 -133.0H603.0V0.0H0.0ZM194.0 141.0C148.0 -67.0 52.0 -258.0 -79.0 -369.0C-55.0 -401.0 -11.0 -470.0 2.0 -503.0C161.0 -361.0 273.0 -135.0 335.0 111.0L194.0 141.0Z"/></g>
<g fill="red" transform="translate(500 500) scale(0.1 -0.1)"><path d="M0.0 0.0V-29.0H570.0V0.0H0.0ZM152.0 188.0C151.0 -77.0 143.0 -503.0 -94.0 -690.0C-86.0 -694.0 -74.0 -701.0 -68.0 -706.0C171.0 -511.0 180.0 -87.0 182.0 188.0H152.0Z"/></g>
<g fill="black" opacity=".8" transform="translate(500 500) scale(0.1 -0.1)"><path d="M0.0 0.0V-37.0H575.0V0.0H0.0ZM160.0 183.0C155.0 -84.0 135.0 -503.0 -94.0 -693.0C-87.0 -696.0 -76.0 -701.0 -71.0 -706.0C160.0 -510.0 180.0 -94.0 186.0 183.0H160.0Z"/></g>
<g fill="red" transform="translate(600 500) scale(0.1 -0.1)"><path d="M0.0 0.0V-134.0H586.0V0.0H0.0ZM108.0 144.0C106.0 -217.0 120.0 -518.0 -105.0 -699.0C-69.0 -722.0 -26.0 -768.0 -4.0 -802.0C243.0 -595.0 247.0 -248.0 249.0 144.0H108.0Z"/></g>
<g fill="black" opacity=".8" transform="translate(600 500) scale(0.1 -0.1)"><path d="M0.0 0.0 -1.0 -124.0H583.0V0.0H0.0ZM114.0 145.0C111.0 -196.0 112.0 -522.0 -98.0 -713.0C-63.0 -734.0 -22.0 -769.0 1.0 -802.0C227.0 -584.0 238.0 -225.0 243.0 147.0L114.0 145.0Z"/></g>
<g fill="red" transform="translate(700 500) scale(0.1 -0.1)"><path d="M0.0 0.0V-29.0H596.0V0.0H0.0ZM267.0 151.0C210.0 -74.0 108.0 -257.0 -47.0 -372.0C-39.0 -377.0 -26.0 -387.0 -22.0 -392.0C130.0 -270.0 234.0 -89.0 295.0 145.0L267.0 151.0Z"/></g>
<g fill="black" opacity=".8" transform="translate(700 500) scale(0.1 -0.1)"><path d="M0.0 0.0V-30.0H607.0V0.0H0.0ZM265.0 163.0C210.0 -72.0 103.0 -249.0 -58.0 -368.0C-51.0 -373.0 -39.0 -383.0 -35.0 -390.0C126.0 -265.0 234.0 -87.0 293.0 157.0L265.0 163.0Z"/></g>
<g fill="red" transform="translate(800 500) scale(0.1 -0.1)"><path d="M0.0 0.0V-134.0H613.0V0.0H0.0ZM218.0 154.0C171.0 -68.0 73.0 -247.0 -85.0 -350.0C-58.0 -375.0 -11.0 -432.0 6.0 -460.0C178.0 -334.0 291.0 -127.0 351.0 129.0L218.0 154.0Z"/></g>
<g fill="black" opacity=".8" transform="translate(800 500) scale(0.1 -0.1)"><path d="M0.0 0.0 -3.0 -130.0H602.0V0.0H0.0ZM214.0 142.0C172.0 -68.0 76.0 -250.0 -75.0 -352.0C-48.0 -377.0 2.0 -434.0 21.0 -464.0C189.0 -338.0 298.0 -130.0 354.0 115.0L214.0 142.0Z"/></g>
<g fill="red" transform="translate(900 500) scale(0.1 -0.1)"><path d="M0.0 0.0V-30.0H578.0V0.0H0.0ZM241.0 -145.0C191.0 -341.0 97.0 -498.0 -43.0 -595.0C-35.0 -601.0 -23.0 -612.0 -18.0 -618.0C119.0 -514.0 217.0 -357.0 270.0 -151.0L241.0 -145.0Z"/></g>
<g fill="black" opacity=".8" transform="translate(900 500) scale(0.1 -0.1)"><path d="M0.0 0.0V-25.0H581.0V0.0H0.0ZM242.0 -137.0C190.0 -339.0 90.0 -494.0 -49.0 -594.0C-41.0 -599.0 -28.0 -610.0 -24.0 -617.0C115.0 -511.0 217.0 -354.0 273.0 -143.0L242.0 -137.0Z"/></g>
<g fill="red" transform="translate(1000 500) scale(0.1 -0.1)"><path d="M0.0 0.0V-126.0H586.0V0.0H0.0ZM196.0 -168.0C153.0 -348.0 63.0 -499.0 -73.0 -584.0C-42.0 -609.0 12.0 -665.0 33.0 -693.0C177.0 -586.0 282.0 -410.0 339.0 -197.0L196.0 -168.0Z"/></g>
<g fill="black" opacity=".8" transform="translate(1000 500) scale(0.1 -0.1)"><path d="M0.0 0.0V-129.0H583.0V0.0H0.0ZM194.0 -176.0C154.0 -352.0 67.0 -505.0 -68.0 -589.0C-38.0 -612.0 18.0 -662.0 40.0 -690.0C185.0 -586.0 285.0 -412.0 337.0 -203.0L194.0 -176.0Z"/></g>
<g fill="red" transform="translate(1100 500) scale(0.1 -0.1)"><path d="M0.0 0.0V-29.0H473.0V0.0H0.0ZM190.0 108.0C147.0 -46.0 74.0 -186.0 -22.0 -277.0C-14.0 -282.0 -1.0 -292.0 4.0 -297.0C97.0 -201.0 174.0 -59.0 220.0 102.0L190.0 108.0Z"/></g>
<g fill="black" opacity=".8" transform="translate(1100 500) scale(0.1 -0.1)"><path d="M0.0 0.0V-30.0H467.0V0.0H0.0ZM196.0 102.0C153.0 -56.0 76.0 -185.0 -16.0 -280.0C-10.0 -284.0 1.0 -293.0 4.0 -299.0C97.0 -199.0 175.0 -69.0 220.0 97.0L196.0 102.0Z"/></g>
<g fill="red" transform="translate(1200 500) scale(0.1 -0.1)"><path d="M0.0 0.0V-121.0H482.0V0.0H0.0ZM167.0 82.0C135.0 -54.0 70.0 -175.0 -22.0 -248.0C1.0 -273.0 41.0 -331.0 55.0 -358.0C166.0 -264.0 246.0 -112.0 290.0 56.0L167.0 82.0Z"/></g>
<g fill="black" opacity=".8" transform="translate(1200 500) scale(0.1 -0.1)"><path d="M0.0 0.0V-118.0H488.0V0.0H0.0ZM169.0 85.0C135.0 -39.0 64.0 -179.0 -27.0 -258.0C-4.0 -280.0 38.0 -330.0 54.0 -354.0C158.0 -255.0 242.0 -93.0 285.0 61.0L169.0 85.0Z"/></g>
<g fill="red" transform="translate(1300 500) scale(0.1 -0.1)"><path d="M0.0 0.0V-30.0H658.0V0.0H0.0ZM229.0 208.0C189.0 -165.0 120.0 -470.0 -61.0 -661.0C-53.0 -666.0 -41.0 -676.0 -35.0 -680.0C146.0 -479.0 214.0 -181.0 259.0 205.0L229.0 208.0Z"/></g>
<g fill="black" opacity=".8" transform="translate(1300 500) scale(0.1 -0.1)"><path d="M0.0 0.0 1.0 -26.0H654.0V0.0H0.0ZM218.0 205.0C186.0 -161.0 126.0 -476.0 -51.0 -661.0C-43.0 -665.0 -28.0 -675.0 -23.0 -681.0C155.0 -487.0 216.0 -176.0 251.0 202.0L218.0 205.0Z"/></g>
<g fill="red" transform="translate(1400 500) scale(0.1 -0.1)"><path d="M0.0 0.0V-137.0H662.0V0.0H0.0ZM170.0 157.0C151.0 -192.0 101.0 -499.0 -48.0 -670.0C-13.0 -690.0 57.0 -740.0 80.0 -763.0C232.0 -562.0 291.0 -232.0 317.0 149.0L170.0 157.0Z"/></g>
<g fill="black" opacity=".8" transform="translate(1400 500) scale(0.1 -0.1)"><path d="M0.0 0.0 1.0 -140.0H667.0V0.0H0.0ZM171.0 166.0C149.0 -202.0 100.0 -490.0 -58.0 -657.0C-23.0 -682.0 41.0 -736.0 66.0 -768.0C238.0 -570.0 298.0 -251.0 327.0 154.0L171.0 166.0Z"/></g>
<g fill="red" transform="translate(1500 500) scale(0.1 -0.1)"><path d="M0.0 0.0V-29.0H645.0V0.0H0.0ZM224.0 174.0C181.0 -112.0 105.0 -348.0 -49.0 -496.0C-41.0 -502.0 -28.0 -512.0 -23.0 -516.0C129.0 -359.0 208.0 -127.0 255.0 170.0L224.0 174.0Z"/></g>
<g fill="black" opacity=".8" transform="translate(1500 500) scale(0.1 -0.1)"><path d="M0.0 0.0 1.0 -28.0H646.0V0.0H0.0ZM223.0 161.0C182.0 -118.0 107.0 -350.0 -43.0 -497.0C-36.0 -501.0 -23.0 -511.0 -19.0 -517.0C133.0 -363.0 209.0 -132.0 253.0 157.0L223.0 161.0Z"/></g>
<g fill="red" transform="translate(1600 500) scale(0.1 -0.1)"><path d="M0.0 0.0V-132.0H662.0V0.0H0.0ZM179.0 117.0C151.0 -145.0 85.0 -369.0 -57.0 -494.0C-23.0 -516.0 38.0 -567.0 61.0 -592.0C208.0 -442.0 286.0 -194.0 323.0 101.0L179.0 117.0Z"/></g>
<g fill="black" opacity=".8" transform="translate(1600 500) scale(0.1 -0.1)"><path d="M0.0 0.0 1.0 -131.0H662.0V0.0H0.0ZM181.0 131.0C151.0 -136.0 84.0 -362.0 -54.0 -492.0C-24.0 -516.0 30.0 -569.0 51.0 -598.0C205.0 -443.0 283.0 -190.0 323.0 112.0L181.0 131.0Z"/></g>
<g fill="red" transform="translate(100 600) scale(0.1 -0.1)"><path d="M0.0 0.0V-30.0H292.0V0.0H0.0ZM254.0 -135.0C203.0 -335.0 107.0 -496.0 -34.0 -597.0C-26.0 -602.0 -15.0 -613.0 -10.0 -619.0C130.0 -511.0 229.0 -350.0 284.0 -140.0L254.0 -135.0Z"/></g>
<g fill="black" opacity=".8" transform="translate(100 600) scale(0.1 -0.1)"><path d="M0.0 0.0V-27.0H293.0V0.0H0.0ZM257.0 -133.0C202.0 -335.0 106.0 -500.0 -34.0 -597.0C-26.0 -602.0 -14.0 -614.0 -10.0 -620.0C129.0 -515.0 228.0 -349.0 284.0 -139.0L257.0 -133.0Z"/></g>
<g fill="red" transform="translate(200 600) scale(0.1 -0.1)"><path d="M0.0 0.0V-126.0H293.0V0.0H0.0ZM187.0 -171.0C152.0 -374.0 74.0 -542.0 -61.0 -637.0C-31.0 -662.0 22.0 -716.0 42.0 -743.0C187.0 -625.0 279.0 -430.0 327.0 -194.0L187.0 -171.0Z"/></g>
<g fill="black" opacity=".8" transform="translate(200 600) scale(0.1 -0.1)"><path d="M0.0 0.0V-129.0H293.0V0.0H0.0ZM191.0 -171.0C153.0 -373.0 78.0 -536.0 -53.0 -632.0C-27.0 -659.0 19.0 -718.0 35.0 -748.0C184.0 -626.0 273.0 -432.0 321.0 -195.0L191.0 -171.0Z"/></g>
<g fill="red" transform="translate(300 600) scale(0.1 -0.1)"><path d="M0.0 0.0V-30.0H310.0V0.0H0.0ZM530.0 134.0C466.0 -107.0 349.0 -294.0 172.0 -410.0C179.0 -415.0 191.0 -427.0 196.0 -431.0C372.0 -309.0 491.0 -123.0 560.0 127.0L530.0 134.0Z"/></g>
<g fill="black" opacity=".8" transform="translate(300 600) scale(0.1 -0.1)"><path d="M0.0 0.0V-30.0H304.0V0.0H0.0ZM527.0 130.0C468.0 -109.0 351.0 -300.0 180.0 -410.0C188.0 -415.0 201.0 -426.0 205.0 -433.0C376.0 -317.0 494.0 -125.0 556.0 124.0L527.0 130.0Z"/></g>
<g fill="red" transform="translate(400 600) scale(0.1 -0.1)"><path d="M0.0 0.0V-126.0H257.0V0.0H0.0ZM452.0 98.0C411.0 -116.0 322.0 -288.0 170.0 -385.0C199.0 -409.0 248.0 -463.0 266.0 -490.0C428.0 -370.0 532.0 -173.0 585.0 75.0L452.0 98.0Z"/></g>
<g fill="black" opacity=".8" transform="translate(400 600) scale(0.1 -0.1)"><path d="M0.0 0.0 -3.0 -124.0H264.0V0.0H0.0ZM456.0 104.0C413.0 -112.0 317.0 -285.0 162.0 -383.0C190.0 -407.0 239.0 -461.0 257.0 -491.0C424.0 -370.0 531.0 -173.0 586.0 79.0L456.0 104.0Z"/></g>
<g fill="red" transform="translate(500 600) scale(0.1 -0.1)"><path d="M0.0 0.0V-30.0H578.0V0.0H0.0ZM231.0 -135.0C186.0 -326.0 100.0 -482.0 -28.0 -580.0C-20.0 -586.0 -8.0 -597.0 -3.0 -602.0C122.0 -497.0 211.0 -340.0 260.0 -140.0L231.0 -135.0Z"/></g>
<g fill="black" opacity=".8" transform="translate(500 600) scale(0.1 -0.1)"><path d="M0.0 0.0 1.0 -29.0H573.0V0.0H0.0ZM235.0 -132.0C187.0 -326.0 100.0 -483.0 -29.0 -583.0C-21.0 -588.0 -9.0 -598.0 -5.0 -604.0C124.0 -499.0 212.0 -340.0 264.0 -138.0L235.0 -132.0Z"/></g>
<g fill="red" transform="translate(600 600) scale(0.1 -0.1)"><path d="M0.0 0.0V-125.0H581.0V0.0H0.0ZM179.0 -172.0C149.0 -364.0 76.0 -521.0 -54.0 -610.0C-25.0 -633.0 25.0 -686.0 44.0 -712.0C186.0 -602.0 272.0 -420.0 315.0 -192.0L179.0 -172.0Z"/></g>
<g fill="black" opacity=".8" transform="translate(600 600) scale(0.1 -0.1)"><path d="M0.0 0.0 2.0 -123.0H587.0V0.0H0.0ZM181.0 -174.0C146.0 -362.0 72.0 -522.0 -51.0 -612.0C-24.0 -634.0 26.0 -684.0 46.0 -710.0C180.0 -599.0 266.0 -416.0 313.0 -198.0L181.0 -174.0Z"/></g>
<g fill="red" transform="translate(700 600) scale(0.1 -0.1)"><path d="M0.0 0.0V-29.0H530.0V0.0H0.0ZM216.0 190.0C179.0 -109.0 107.0 -340.0 -61.0 -484.0C-53.0 -489.0 -41.0 -499.0 -35.0 -505.0C131.0 -352.0 206.0 -124.0 247.0 186.0L216.0 190.0Z"/></g>
<g fill="black" opacity=".8" transform="translate(700 600) scale(0.1 -0.1)"><path d="M0.0 0.0V-29.0H536.0V0.0H0.0ZM216.0 197.0C174.0 -99.0 99.0 -338.0 -58.0 -487.0C-51.0 -492.0 -38.0 -501.0 -34.0 -507.0C123.0 -350.0 200.0 -113.0 244.0 193.0L216.0 197.0Z"/></g>
<g fill="red" transform="translate(800 600) scale(0.1 -0.1)"><path d="M0.0 0.0V-131.0H550.0V0.0H0.0ZM156.0 175.0C135.0 -109.0 80.0 -346.0 -71.0 -478.0C-40.0 -506.0 16.0 -568.0 35.0 -598.0C204.0 -434.0 274.0 -165.0 304.0 163.0L156.0 175.0Z"/></g>
<g fill="black" opacity=".8" transform="translate(800 600) scale(0.1 -0.1)"><path d="M0.0 0.0 -1.0 -132.0H545.0V0.0H0.0ZM169.0 170.0C140.0 -118.0 76.0 -349.0 -67.0 -483.0C-38.0 -508.0 15.0 -563.0 34.0 -593.0C194.0 -432.0 270.0 -171.0 308.0 153.0L169.0 170.0Z"/></g>
<g fill="red" transform="translate(900 600) scale(0.1 -0.1)"><path d="M0.0 0.0V-29.0H574.0V0.0H0.0ZM-255.0 -349.0C-270.0 -439.0 -292.0 -529.0 -329.0 -592.0C-321.0 -595.0 -306.0 -602.0 -301.0 -606.0C-267.0 -542.0 -241.0 -448.0 -225.0 -354.0L-255.0 -349.0Z"/></g>
<g fill="black" opacity=".8" transform="translate(900 600) scale(0.1 -0.1)"><path d="M0.0 0.0V-40.0H577.0V0.0H0.0ZM-254.0 -360.0C-269.0 -444.0 -294.0 -526.0 -320.0 -595.0C-314.0 -598.0 -300.0 -606.0 -298.0 -610.0C-273.0 -537.0 -244.0 -454.0 -228.0 -363.0L-254.0 -360.0Z"/></g>
<g fill="red" transform="translate(1000 600) scale(0.1 -0.1)"><path d="M0.0 0.0V-137.0H568.0V0.0H0.0ZM-337.0 -425.0C-343.0 -508.0 -356.0 -598.0 -382.0 -656.0C-354.0 -667.0 -302.0 -690.0 -278.0 -706.0C-251.0 -642.0 -231.0 -541.0 -222.0 -445.0L-337.0 -425.0Z"/></g>
<g fill="black" opacity=".8" transform="translate(1000 600) scale(0.1 -0.1)"><path d="M0.0 0.0 -1.0 -124.0H565.0V0.0H0.0ZM-334.0 -417.0C-340.0 -499.0 -356.0 -590.0 -382.0 -652.0C-357.0 -665.0 -305.0 -699.0 -287.0 -715.0C-257.0 -641.0 -230.0 -532.0 -220.0 -433.0L-334.0 -417.0Z"/></g>
<g fill="red" transform="translate(1100 600) scale(0.1 -0.1)"><path d="M0.0 0.0V-449.0H29.0V0.0H0.0ZM-98.0 -104.0C-113.0 -194.0 -135.0 -284.0 -172.0 -347.0C-164.0 -350.0 -149.0 -357.0 -144.0 -361.0C-110.0 -297.0 -84.0 -203.0 -68.0 -109.0L-98.0 -104.0Z"/></g>
<g fill="black" opacity=".8" transform="translate(1100 600) scale(0.1 -0.1)"><path d="M0.0 0.0 1.0 -445.0H28.0V0.0H0.0ZM-99.0 -102.0C-114.0 -190.0 -135.0 -285.0 -174.0 -345.0C-165.0 -349.0 -149.0 -355.0 -144.0 -360.0C-107.0 -299.0 -84.0 -199.0 -69.0 -108.0L-99.0 -102.0Z"/></g>
<g fill="red" transform="translate(1200 600) scale(0.1 -0.1)"><path d="M0.0 0.0V-446.0H121.0V0.0H0.0ZM-104.0 -93.0C-110.0 -176.0 -123.0 -266.0 -149.0 -324.0C-122.0 -334.0 -72.0 -357.0 -49.0 -372.0C-22.0 -308.0 -2.0 -208.0 6.0 -112.0L-104.0 -93.0Z"/></g>
<g fill="black" opacity=".8" transform="translate(1200 600) scale(0.1 -0.1)"><path d="M0.0 0.0 1.0 -448.0H123.0V0.0H0.0ZM-106.0 -93.0C-112.0 -182.0 -121.0 -264.0 -149.0 -321.0C-122.0 -332.0 -70.0 -356.0 -47.0 -373.0C-16.0 -311.0 1.0 -216.0 8.0 -113.0L-106.0 -93.0Z"/></g>
<g fill="red" transform="translate(1300 600) scale(0.1 -0.1)"><path d="M0.0 0.0V-30.0H548.0V0.0H0.0ZM162.0 138.0C154.0 -70.0 130.0 -379.0 -33.0 -519.0C-24.0 -523.0 -12.0 -532.0 -7.0 -536.0C158.0 -387.0 182.0 -83.0 192.0 138.0H162.0Z"/></g>
<g fill="black" opacity=".8" transform="translate(1300 600) scale(0.1 -0.1)"><path d="M0.0 0.0V-33.0H551.0V0.0H0.0ZM172.0 126.0C157.0 -63.0 123.0 -373.0 -38.0 -524.0C-31.0 -528.0 -18.0 -535.0 -14.0 -540.0C148.0 -383.0 183.0 -74.0 198.0 124.0L172.0 126.0Z"/></g>
<g fill="red" transform="translate(1400 600) scale(0.1 -0.1)"><path d="M0.0 0.0V-129.0H554.0V0.0H0.0ZM125.0 78.0C117.0 -124.0 109.0 -365.0 -65.0 -505.0C-30.0 -528.0 8.0 -570.0 29.0 -603.0C222.0 -436.0 246.0 -162.0 256.0 78.0H125.0Z"/></g>
<g fill="black" opacity=".8" transform="translate(1400 600) scale(0.1 -0.1)"><path d="M0.0 0.0 -2.0 -123.0H552.0V0.0H0.0ZM127.0 91.0C116.0 -122.0 97.0 -369.0 -55.0 -512.0C-22.0 -532.0 23.0 -570.0 45.0 -598.0C207.0 -432.0 239.0 -160.0 253.0 83.0L127.0 91.0Z"/></g>
<g fill="red" transform="translate(1500 600) scale(0.1 -0.1)"><path d="M0.0 0.0V-29.0H534.0V0.0H0.0ZM125.0 228.0C124.0 -43.0 114.0 -464.0 -60.0 -656.0C-52.0 -659.0 -39.0 -666.0 -34.0 -670.0C142.0 -470.0 153.0 -54.0 155.0 228.0H125.0Z"/></g>
<g fill="black" opacity=".8" transform="translate(1500 600) scale(0.1 -0.1)"><path d="M0.0 0.0 1.0 -28.0H534.0V0.0H0.0ZM132.0 221.0C128.0 -53.0 120.0 -460.0 -65.0 -657.0C-58.0 -660.0 -45.0 -667.0 -40.0 -671.0C147.0 -466.0 154.0 -64.0 158.0 221.0H132.0Z"/></g>
<g fill="red" transform="translate(1600 600) scale(0.1 -0.1)"><path d="M0.0 0.0V-127.0H563.0V0.0H0.0ZM99.0 180.0C97.0 -163.0 108.0 -475.0 -73.0 -667.0C-35.0 -689.0 8.0 -732.0 31.0 -766.0C230.0 -544.0 235.0 -193.0 238.0 180.0H99.0Z"/></g>
<g fill="black" opacity=".8" transform="translate(1600 600) scale(0.1 -0.1)"><path d="M0.0 0.0 1.0 -126.0H565.0V0.0H0.0ZM98.0 184.0C97.0 -146.0 105.0 -476.0 -65.0 -670.0C-31.0 -693.0 14.0 -735.0 37.0 -767.0C223.0 -542.0 228.0 -177.0 229.0 185.0L98.0 184.0Z"/></g>
<g fill="red" transform="translate(100 700) scale(0.1 -0.1)"><path d="M0.0 0.0V-30.0H283.0V0.0H0.0ZM510.0 159.0C456.0 -99.0 343.0 -317.0 170.0 -414.0C178.0 -420.0 188.0 -431.0 194.0 -438.0C368.0 -333.0 482.0 -117.0 539.0 153.0L510.0 159.0Z"/></g>
<g fill="black" opacity=".8" transform="translate(100 700) scale(0.1 -0.1)"><path d="M0.0 0.0V-33.0H287.0V0.0H0.0ZM508.0 159.0C453.0 -96.0 342.0 -302.0 166.0 -418.0C174.0 -423.0 187.0 -434.0 191.0 -441.0C367.0 -318.0 479.0 -112.0 537.0 154.0L508.0 159.0Z"/></g>
<g fill="red" transform="translate(200 700) scale(0.1 -0.1)"><path d="M0.0 0.0V-133.0H253.0V0.0H0.0ZM455.0 138.0C410.0 -76.0 316.0 -272.0 160.0 -368.0C189.0 -392.0 229.0 -439.0 249.0 -471.0C419.0 -352.0 514.0 -143.0 570.0 114.0L455.0 138.0Z"/></g>
<g fill="black" opacity=".8" transform="translate(200 700) scale(0.1 -0.1)"><path d="M0.0 0.0 -3.0 -126.0H249.0V0.0H0.0ZM450.0 136.0C409.0 -90.0 317.0 -269.0 157.0 -369.0C186.0 -392.0 237.0 -443.0 257.0 -472.0C427.0 -350.0 529.0 -149.0 579.0 115.0L450.0 136.0Z"/></g>
<g fill="red" transform="translate(300 700) scale(0.1 -0.1)"><path d="M0.0 0.0V-29.0H508.0V0.0H0.0ZM146.0 201.0C125.0 -152.0 87.0 -468.0 -33.0 -672.0C-25.0 -676.0 -11.0 -685.0 -6.0 -690.0C113.0 -475.0 151.0 -167.0 178.0 199.0L146.0 201.0Z"/></g>
<g fill="black" opacity=".8" transform="translate(300 700) scale(0.1 -0.1)"><path d="M0.0 0.0 1.0 -20.0H507.0V0.0H0.0ZM139.0 207.0C120.0 -145.0 95.0 -474.0 -35.0 -668.0C-27.0 -672.0 -10.0 -682.0 -5.0 -688.0C125.0 -483.0 152.0 -159.0 172.0 206.0L139.0 207.0Z"/></g>
<g fill="red" transform="translate(400 700) scale(0.1 -0.1)"><path d="M0.0 0.0V-131.0H514.0V0.0H0.0ZM85.0 160.0C75.0 -183.0 45.0 -514.0 -54.0 -704.0C-20.0 -720.0 49.0 -760.0 72.0 -779.0C172.0 -560.0 207.0 -213.0 222.0 156.0L85.0 160.0Z"/></g>
<g fill="black" opacity=".8" transform="translate(400 700) scale(0.1 -0.1)"><path d="M0.0 0.0 1.0 -138.0H516.0V0.0H0.0ZM77.0 159.0C69.0 -202.0 55.0 -500.0 -54.0 -681.0C-19.0 -705.0 44.0 -760.0 67.0 -791.0C190.0 -577.0 217.0 -242.0 226.0 154.0L77.0 159.0Z"/></g>
<g fill="red" transform="translate(500 700) scale(0.1 -0.1)"><path d="M0.0 0.0V-29.0H561.0V0.0H0.0ZM175.0 195.0C152.0 -168.0 112.0 -485.0 -20.0 -687.0C-13.0 -691.0 0.0 -700.0 6.0 -705.0C139.0 -492.0 179.0 -184.0 206.0 193.0L175.0 195.0Z"/></g>
<g fill="black" opacity=".8" transform="translate(500 700) scale(0.1 -0.1)"><path d="M0.0 0.0 1.0 -24.0H564.0V0.0H0.0ZM171.0 190.0C148.0 -163.0 114.0 -490.0 -24.0 -683.0C-16.0 -687.0 1.0 -698.0 6.0 -704.0C145.0 -500.0 182.0 -178.0 205.0 188.0L171.0 190.0Z"/></g>
<g fill="red" transform="translate(600 700) scale(0.1 -0.1)"><path d="M0.0 0.0V-142.0H568.0V0.0H0.0ZM103.0 131.0C96.0 -214.0 66.0 -531.0 -54.0 -708.0C-18.0 -729.0 53.0 -779.0 76.0 -802.0C201.0 -592.0 238.0 -252.0 251.0 127.0L103.0 131.0Z"/></g>
<g fill="black" opacity=".8" transform="translate(600 700) scale(0.1 -0.1)"><path d="M0.0 0.0 1.0 -144.0H566.0V0.0H0.0ZM101.0 139.0C89.0 -223.0 67.0 -520.0 -50.0 -699.0C-13.0 -723.0 53.0 -780.0 77.0 -811.0C207.0 -599.0 242.0 -266.0 255.0 132.0L101.0 139.0Z"/></g>
<g fill="red" transform="translate(700 700) scale(0.1 -0.1)"><path d="M0.0 0.0 -9.0 -30.0H451.0V0.0H0.0ZM49.0 273.0C31.0 69.0 -57.0 -199.0 -261.0 -358.0C-254.0 -362.0 -243.0 -370.0 -238.0 -377.0C-32.0 -213.0 58.0 60.0 78.0 270.0L49.0 273.0Z"/></g>
<g fill="black" opacity=".8" transform="translate(700 700) scale(0.1 -0.1)"><path d="M0.0 0.0 -3.0 -24.0H452.0V0.0H0.0ZM59.0 267.0C27.0 67.0 -56.0 -210.0 -264.0 -355.0C-257.0 -359.0 -245.0 -367.0 -241.0 -374.0C-31.0 -222.0 53.0 56.0 86.0 264.0L59.0 267.0Z"/></g>
<g fill="red" transform="translate(800 700) scale(0.1 -0.1)"><path d="M0.0 0.0 -37.0 -125.0H356.0V0.0H0.0ZM-52.0 238.0C-63.0 19.0 -124.0 -189.0 -324.0 -325.0C-290.0 -347.0 -242.0 -403.0 -223.0 -440.0C0.0 -276.0 77.0 -33.0 98.0 227.0L-52.0 238.0Z"/></g>
<g fill="black" opacity=".8" transform="translate(800 700) scale(0.1 -0.1)"><path d="M0.0 0.0 -15.0 -130.0H356.0V0.0H0.0ZM-48.0 244.0C-69.0 31.0 -123.0 -193.0 -316.0 -327.0C-284.0 -351.0 -239.0 -403.0 -220.0 -437.0C-7.0 -276.0 63.0 -20.0 91.0 231.0L-48.0 244.0Z"/></g>
<g fill="red" transform="translate(900 700) scale(0.1 -0.1)"><path d="M0.0 0.0V-30.0H869.0V0.0H0.0ZM372.0 -108.0C299.0 -337.0 166.0 -509.0 -25.0 -615.0C-17.0 -620.0 -4.0 -632.0 1.0 -636.0C188.0 -525.0 323.0 -353.0 402.0 -115.0L372.0 -108.0Z"/></g>
<g fill="black" opacity=".8" transform="translate(900 700) scale(0.1 -0.1)"><path d="M0.0 0.0 1.0 -27.0H867.0V0.0H0.0ZM375.0 -116.0C303.0 -344.0 166.0 -506.0 -29.0 -612.0C-20.0 -618.0 -8.0 -629.0 -4.0 -636.0C190.0 -527.0 329.0 -361.0 407.0 -124.0L375.0 -116.0Z"/></g>
<g fill="red" transform="translate(1000 700) scale(0.1 -0.1)"><path d="M0.0 0.0V-133.0H896.0V0.0H0.0ZM349.0 -159.0C285.0 -373.0 152.0 -535.0 -39.0 -624.0C-8.0 -652.0 45.0 -712.0 66.0 -743.0C264.0 -632.0 413.0 -443.0 496.0 -195.0L349.0 -159.0Z"/></g>
<g fill="black" opacity=".8" transform="translate(1000 700) scale(0.1 -0.1)"><path d="M0.0 0.0 4.0 -132.0H900.0V0.0H0.0ZM337.0 -152.0C280.0 -363.0 153.0 -538.0 -37.0 -628.0C-7.0 -655.0 47.0 -711.0 71.0 -743.0C277.0 -632.0 415.0 -436.0 495.0 -188.0L337.0 -152.0Z"/></g>
<g fill="red" transform="translate(1100 700) scale(0.1 -0.1)"><path d="M0.0 0.0V-30.0H407.0V0.0H0.0ZM721.0 75.0C628.0 -104.0 460.0 -234.0 262.0 -313.0C270.0 -319.0 282.0 -330.0 287.0 -336.0C479.0 -252.0 652.0 -122.0 749.0 65.0L721.0 75.0Z"/></g>
<g fill="black" opacity=".8" transform="translate(1100 700) scale(0.1 -0.1)"><path d="M0.0 0.0 1.0 -32.0H402.0V0.0H0.0ZM719.0 90.0C632.0 -110.0 465.0 -236.0 265.0 -312.0C273.0 -319.0 283.0 -330.0 287.0 -338.0C486.0 -257.0 654.0 -128.0 746.0 81.0L719.0 90.0Z"/></g>
<g fill="red" transform="translate(1200 700) scale(0.1 -0.1)"><path d="M0.0 0.0V-121.0H401.0V0.0H0.0ZM689.0 93.0C619.0 -84.0 468.0 -207.0 271.0 -273.0C300.0 -297.0 350.0 -351.0 370.0 -379.0C568.0 -296.0 733.0 -153.0 824.0 56.0L689.0 93.0Z"/></g>
<g fill="black" opacity=".8" transform="translate(1200 700) scale(0.1 -0.1)"><path d="M0.0 0.0 1.0 -119.0H406.0V0.0H0.0ZM691.0 80.0C621.0 -74.0 469.0 -204.0 276.0 -266.0C300.0 -293.0 341.0 -350.0 359.0 -382.0C567.0 -301.0 730.0 -153.0 821.0 42.0L691.0 80.0Z"/></g>
<g fill="red" transform="translate(1300 700) scale(0.1 -0.1)"><path d="M0.0 0.0V-30.0H883.0V0.0H0.0ZM363.0 -266.0C297.0 -406.0 151.0 -538.0 -14.0 -616.0C-8.0 -620.0 1.0 -631.0 5.0 -638.0C174.0 -558.0 318.0 -422.0 393.0 -275.0L363.0 -266.0Z"/></g>
<g fill="black" opacity=".8" transform="translate(1300 700) scale(0.1 -0.1)"><path d="M0.0 0.0V-24.0H882.0V0.0H0.0ZM358.0 -265.0C292.0 -409.0 158.0 -534.0 -17.0 -611.0C-9.0 -617.0 4.0 -629.0 8.0 -636.0C183.0 -556.0 319.0 -425.0 389.0 -274.0L358.0 -265.0Z"/></g>
<g fill="red" transform="translate(1400 700) scale(0.1 -0.1)"><path d="M0.0 0.0V-117.0H874.0V0.0H0.0ZM304.0 -310.0C250.0 -426.0 124.0 -548.0 -35.0 -610.0C-6.0 -633.0 38.0 -680.0 60.0 -707.0C233.0 -631.0 369.0 -494.0 452.0 -349.0L304.0 -310.0Z"/></g>
<g fill="black" opacity=".8" transform="translate(1400 700) scale(0.1 -0.1)"><path d="M0.0 0.0 1.0 -121.0H876.0V0.0H0.0ZM301.0 -311.0C248.0 -429.0 127.0 -552.0 -48.0 -612.0C-17.0 -634.0 40.0 -678.0 65.0 -706.0C247.0 -633.0 379.0 -498.0 454.0 -348.0L301.0 -311.0Z"/></g>
<g fill="red" transform="translate(1500 700) scale(0.1 -0.1)"><path d="M0.0 0.0V-29.0H513.0V0.0H0.0ZM113.0 228.0C112.0 -43.0 102.0 -464.0 -72.0 -656.0C-64.0 -659.0 -52.0 -666.0 -46.0 -670.0C130.0 -470.0 140.0 -54.0 142.0 228.0H113.0Z"/></g>
<g fill="black" opacity=".8" transform="translate(1500 700) scale(0.1 -0.1)"><path d="M0.0 0.0 1.0 -27.0H505.0V0.0H0.0ZM118.0 222.0C115.0 -56.0 111.0 -461.0 -69.0 -658.0C-62.0 -661.0 -50.0 -668.0 -45.0 -673.0C137.0 -467.0 142.0 -66.0 145.0 222.0H118.0Z"/></g>
<g fill="red" transform="translate(1600 700) scale(0.1 -0.1)"><path d="M0.0 0.0V-127.0H523.0V0.0H0.0ZM86.0 180.0C85.0 -160.0 94.0 -472.0 -67.0 -668.0C-30.0 -689.0 13.0 -732.0 37.0 -765.0C214.0 -541.0 220.0 -190.0 223.0 180.0H86.0Z"/></g>
<g fill="black" opacity=".8" transform="translate(1600 700) scale(0.1 -0.1)"><path d="M0.0 0.0 1.0 -126.0H532.0V0.0H0.0ZM83.0 184.0C83.0 -146.0 94.0 -473.0 -71.0 -668.0C-36.0 -690.0 10.0 -732.0 33.0 -764.0C213.0 -539.0 215.0 -176.0 214.0 186.0L83.0 184.0Z"/></g>
<g fill="red" transform="translate(100 800) scale(0.1 -0.1)"><path d="M0.0 0.0V-29.0H543.0V0.0H0.0ZM234.0 -133.0C192.0 -325.0 109.0 -479.0 -20.0 -575.0C-12.0 -581.0 0.0 -591.0 4.0 -597.0C131.0 -493.0 219.0 -340.0 265.0 -139.0L234.0 -133.0Z"/></g>
<g fill="black" opacity=".8" transform="translate(100 800) scale(0.1 -0.1)"><path d="M0.0 0.0 1.0 -28.0H545.0V0.0H0.0ZM241.0 -130.0C191.0 -323.0 103.0 -478.0 -24.0 -577.0C-17.0 -582.0 -4.0 -592.0 -1.0 -598.0C126.0 -494.0 216.0 -337.0 268.0 -135.0L241.0 -130.0Z"/></g>
<g fill="red" transform="translate(200 800) scale(0.1 -0.1)"><path d="M0.0 0.0V-122.0H559.0V0.0H0.0ZM180.0 -168.0C148.0 -360.0 74.0 -517.0 -57.0 -605.0C-28.0 -629.0 24.0 -684.0 43.0 -711.0C186.0 -600.0 274.0 -417.0 318.0 -189.0L180.0 -168.0Z"/></g>
<g fill="black" opacity=".8" transform="translate(200 800) scale(0.1 -0.1)"><path d="M0.0 0.0 2.0 -122.0H557.0V0.0H0.0ZM183.0 -171.0C148.0 -359.0 73.0 -518.0 -47.0 -609.0C-21.0 -632.0 29.0 -683.0 47.0 -709.0C181.0 -597.0 267.0 -414.0 315.0 -195.0L183.0 -171.0Z"/></g>
<g fill="red" transform="translate(300 800) scale(0.1 -0.1)"><path d="M0.0 0.0V-30.0H596.0V0.0H0.0ZM240.0 -135.0C194.0 -316.0 106.0 -464.0 -20.0 -556.0C-13.0 -562.0 -1.0 -573.0 3.0 -578.0C128.0 -479.0 220.0 -331.0 270.0 -140.0L240.0 -135.0Z"/></g>
<g fill="black" opacity=".8" transform="translate(300 800) scale(0.1 -0.1)"><path d="M0.0 0.0 1.0 -30.0H603.0V0.0H0.0ZM241.0 -133.0C191.0 -317.0 101.0 -461.0 -22.0 -556.0C-15.0 -561.0 -2.0 -571.0 1.0 -577.0C124.0 -477.0 216.0 -332.0 270.0 -139.0L241.0 -133.0Z"/></g>
<g fill="red" transform="translate(400 800) scale(0.1 -0.1)"><path d="M0.0 0.0V-125.0H641.0V0.0H0.0ZM206.0 -167.0C170.0 -335.0 89.0 -472.0 -36.0 -550.0C-7.0 -575.0 45.0 -629.0 64.0 -657.0C202.0 -558.0 297.0 -394.0 345.0 -192.0L206.0 -167.0Z"/></g>
<g fill="black" opacity=".8" transform="translate(400 800) scale(0.1 -0.1)"><path d="M0.0 0.0 3.0 -125.0H635.0V0.0H0.0ZM211.0 -169.0C173.0 -329.0 90.0 -478.0 -32.0 -558.0C-4.0 -581.0 47.0 -629.0 68.0 -655.0C200.0 -555.0 294.0 -387.0 346.0 -196.0L211.0 -169.0Z"/></g>
<g fill="red" transform="translate(500 800) scale(0.1 -0.1)"><path d="M0.0 0.0V-30.0H243.0V0.0H0.0ZM466.0 159.0C411.0 -91.0 298.0 -305.0 126.0 -397.0C134.0 -403.0 144.0 -414.0 150.0 -423.0C322.0 -321.0 437.0 -109.0 494.0 153.0L466.0 159.0Z"/></g>
<g fill="black" opacity=".8" transform="translate(500 800) scale(0.1 -0.1)"><path d="M0.0 0.0V-34.0H246.0V0.0H0.0ZM464.0 157.0C408.0 -92.0 299.0 -290.0 127.0 -403.0C134.0 -408.0 146.0 -419.0 150.0 -425.0C322.0 -305.0 432.0 -107.0 491.0 151.0L464.0 157.0Z"/></g>
<g fill="red" transform="translate(600 800) scale(0.1 -0.1)"><path d="M0.0 0.0V-133.0H234.0V0.0H0.0ZM423.0 138.0C378.0 -75.0 282.0 -272.0 130.0 -368.0C158.0 -392.0 198.0 -439.0 218.0 -470.0C386.0 -351.0 480.0 -142.0 537.0 114.0L423.0 138.0Z"/></g>
<g fill="black" opacity=".8" transform="translate(600 800) scale(0.1 -0.1)"><path d="M0.0 0.0 -2.0 -126.0H231.0V0.0H0.0ZM419.0 139.0C377.0 -86.0 286.0 -265.0 128.0 -366.0C154.0 -390.0 200.0 -444.0 217.0 -474.0C390.0 -350.0 492.0 -145.0 545.0 117.0L419.0 139.0Z"/></g>
<g fill="red" transform="translate(700 800) scale(0.1 -0.1)"><path d="M0.0 0.0V-29.0H534.0V0.0H0.0ZM194.0 103.0C150.0 -54.0 74.0 -197.0 -23.0 -290.0C-15.0 -295.0 -2.0 -305.0 3.0 -310.0C98.0 -212.0 176.0 -67.0 223.0 97.0L194.0 103.0Z"/></g>
<g fill="black" opacity=".8" transform="translate(700 800) scale(0.1 -0.1)"><path d="M0.0 0.0V-30.0H529.0V0.0H0.0ZM196.0 105.0C153.0 -60.0 77.0 -194.0 -16.0 -293.0C-10.0 -297.0 2.0 -306.0 5.0 -312.0C98.0 -208.0 175.0 -72.0 221.0 100.0L196.0 105.0Z"/></g>
<g fill="red" transform="translate(800 800) scale(0.1 -0.1)"><path d="M0.0 0.0V-121.0H536.0V0.0H0.0ZM150.0 87.0C120.0 -58.0 61.0 -189.0 -29.0 -268.0C-5.0 -295.0 35.0 -355.0 49.0 -383.0C159.0 -281.0 235.0 -117.0 276.0 62.0L150.0 87.0Z"/></g>
<g fill="black" opacity=".8" transform="translate(800 800) scale(0.1 -0.1)"><path d="M0.0 0.0V-119.0H541.0V0.0H0.0ZM156.0 83.0C123.0 -50.0 53.0 -197.0 -36.0 -280.0C-13.0 -302.0 32.0 -351.0 48.0 -375.0C151.0 -272.0 233.0 -104.0 276.0 59.0L156.0 83.0Z"/></g>
<g fill="red" transform="translate(900 800) scale(0.1 -0.1)"><path d="M0.0 0.0V-30.0H534.0V0.0H0.0ZM229.0 -120.0C185.0 -313.0 105.0 -478.0 -15.0 -583.0C-7.0 -587.0 6.0 -598.0 10.0 -604.0C128.0 -492.0 211.0 -328.0 259.0 -126.0L229.0 -120.0Z"/></g>
<g fill="black" opacity=".8" transform="translate(900 800) scale(0.1 -0.1)"><path d="M0.0 0.0 1.0 -28.0H525.0V0.0H0.0ZM232.0 -122.0C186.0 -316.0 107.0 -481.0 -8.0 -585.0C-1.0 -590.0 12.0 -601.0 16.0 -607.0C131.0 -496.0 212.0 -330.0 261.0 -128.0L232.0 -122.0Z"/></g>
<g fill="red" transform="translate(1000 800) scale(0.1 -0.1)"><path d="M0.0 0.0V-125.0H541.0V0.0H0.0ZM180.0 -168.0C150.0 -355.0 84.0 -521.0 -25.0 -618.0C5.0 -641.0 58.0 -694.0 78.0 -721.0C198.0 -602.0 276.0 -409.0 318.0 -191.0L180.0 -168.0Z"/></g>
<g fill="black" opacity=".8" transform="translate(1000 800) scale(0.1 -0.1)"><path d="M0.0 0.0 3.0 -126.0H550.0V0.0H0.0ZM183.0 -165.0C149.0 -351.0 82.0 -520.0 -28.0 -616.0C-0.0 -640.0 49.0 -692.0 69.0 -718.0C191.0 -600.0 271.0 -406.0 315.0 -188.0L183.0 -165.0Z"/></g>
<g fill="red" transform="translate(1100 800) scale(0.1 -0.1)"><path d="M0.0 0.0V-29.0H539.0V0.0H0.0ZM234.0 161.0C189.0 -45.0 105.0 -214.0 -28.0 -321.0C-20.0 -326.0 -7.0 -337.0 -2.0 -342.0C127.0 -228.0 214.0 -59.0 263.0 156.0L234.0 161.0Z"/></g>
<g fill="black" opacity=".8" transform="translate(1100 800) scale(0.1 -0.1)"><path d="M0.0 0.0V-30.0H547.0V0.0H0.0ZM238.0 159.0C184.0 -42.0 93.0 -205.0 -27.0 -322.0C-20.0 -327.0 -9.0 -337.0 -5.0 -343.0C116.0 -220.0 208.0 -56.0 264.0 153.0L238.0 159.0Z"/></g>
<g fill="red" transform="translate(1200 800) scale(0.1 -0.1)"><path d="M0.0 0.0V-134.0H572.0V0.0H0.0ZM176.0 133.0C137.0 -57.0 61.0 -229.0 -50.0 -334.0C-28.0 -368.0 7.0 -441.0 18.0 -475.0C159.0 -339.0 253.0 -122.0 306.0 106.0L176.0 133.0Z"/></g>
<g fill="black" opacity=".8" transform="translate(1200 800) scale(0.1 -0.1)"><path d="M0.0 0.0V-130.0H564.0V0.0H0.0ZM178.0 134.0C139.0 -56.0 60.0 -240.0 -53.0 -348.0C-29.0 -376.0 14.0 -439.0 28.0 -468.0C163.0 -334.0 258.0 -117.0 310.0 107.0L178.0 134.0Z"/></g>
<g fill="red" transform="translate(1300 800) scale(0.1 -0.1)"><path d="M0.0 0.0V-30.0H508.0V0.0H0.0ZM144.0 218.0C144.0 -64.0 136.0 -479.0 -72.0 -665.0C-65.0 -669.0 -52.0 -676.0 -47.0 -680.0C163.0 -485.0 172.0 -75.0 174.0 218.0H144.0Z"/></g>
<g fill="black" opacity=".8" transform="translate(1300 800) scale(0.1 -0.1)"><path d="M0.0 0.0V-32.0H508.0V0.0H0.0ZM146.0 225.0C144.0 -67.0 132.0 -474.0 -71.0 -667.0C-64.0 -670.0 -52.0 -676.0 -47.0 -681.0C158.0 -480.0 170.0 -78.0 172.0 226.0L146.0 225.0Z"/></g>
<g fill="red" transform="translate(1400 800) scale(0.1 -0.1)"><path d="M0.0 0.0V-127.0H518.0V0.0H0.0ZM114.0 201.0C112.0 -152.0 121.0 -455.0 -62.0 -639.0C-26.0 -661.0 16.0 -704.0 38.0 -738.0C238.0 -527.0 244.0 -183.0 246.0 201.0H114.0Z"/></g>
<g fill="black" opacity=".8" transform="translate(1400 800) scale(0.1 -0.1)"><path d="M0.0 0.0 -1.0 -124.0H518.0V0.0H0.0ZM116.0 192.0C116.0 -147.0 120.0 -463.0 -66.0 -649.0C-30.0 -668.0 18.0 -702.0 42.0 -732.0C239.0 -521.0 246.0 -174.0 245.0 195.0L116.0 192.0Z"/></g>
<g fill="red" transform="translate(1500 800) scale(0.1 -0.1)"><path d="M0.0 0.0V-29.0H530.0V0.0H0.0ZM218.0 -133.0C176.0 -325.0 93.0 -479.0 -36.0 -575.0C-28.0 -581.0 -16.0 -591.0 -12.0 -597.0C115.0 -493.0 203.0 -340.0 249.0 -139.0L218.0 -133.0Z"/></g>
<g fill="black" opacity=".8" transform="translate(1500 800) scale(0.1 -0.1)"><path d="M0.0 0.0 1.0 -29.0H527.0V0.0H0.0ZM219.0 -131.0C174.0 -325.0 92.0 -480.0 -31.0 -577.0C-23.0 -582.0 -11.0 -591.0 -8.0 -597.0C115.0 -494.0 199.0 -339.0 247.0 -136.0L219.0 -131.0Z"/></g>
<g fill="red" transform="translate(1600 800) scale(0.1 -0.1)"><path d="M0.0 0.0V-122.0H541.0V0.0H0.0ZM172.0 -168.0C143.0 -350.0 77.0 -500.0 -40.0 -585.0C-12.0 -609.0 35.0 -663.0 54.0 -690.0C181.0 -583.0 261.0 -407.0 300.0 -190.0L172.0 -168.0Z"/></g>
<g fill="black" opacity=".8" transform="translate(1600 800) scale(0.1 -0.1)"><path d="M0.0 0.0 2.0 -121.0H544.0V0.0H0.0ZM176.0 -169.0C143.0 -351.0 72.0 -505.0 -46.0 -591.0C-19.0 -612.0 31.0 -659.0 51.0 -684.0C179.0 -578.0 261.0 -404.0 305.0 -192.0L176.0 -169.0Z"/></g>
<g fill="red" transform="translate(100 900) scale(0.1 -0.1)"><path d="M0.0 0.0V-29.0H560.0V0.0H0.0ZM181.0 102.0C153.0 -100.0 91.0 -255.0 -30.0 -352.0C-22.0 -357.0 -10.0 -368.0 -6.0 -374.0C113.0 -269.0 180.0 -112.0 210.0 98.0L181.0 102.0Z"/></g>
<g fill="black" opacity=".8" transform="translate(100 900) scale(0.1 -0.1)"><path d="M0.0 0.0V-29.0H546.0V0.0H0.0ZM184.0 105.0C153.0 -96.0 92.0 -257.0 -12.0 -364.0C-6.0 -368.0 6.0 -376.0 9.0 -381.0C114.0 -269.0 175.0 -108.0 208.0 101.0L184.0 105.0Z"/></g>
<g fill="red" transform="translate(200 900) scale(0.1 -0.1)"><path d="M0.0 0.0V-106.0H505.0V0.0H0.0ZM106.0 72.0C90.0 -112.0 49.0 -277.0 -40.0 -374.0C-11.0 -390.0 45.0 -427.0 67.0 -447.0C158.0 -333.0 208.0 -151.0 231.0 58.0L106.0 72.0Z"/></g>
<g fill="black" opacity=".8" transform="translate(200 900) scale(0.1 -0.1)"><path d="M0.0 0.0 -1.0 -106.0H519.0V0.0H0.0ZM117.0 72.0C95.0 -117.0 45.0 -274.0 -46.0 -366.0C-22.0 -382.0 25.0 -420.0 42.0 -441.0C142.0 -332.0 201.0 -157.0 229.0 57.0L117.0 72.0Z"/></g>
<g fill="red" transform="translate(300 900) scale(0.1 -0.1)"><path d="M0.0 0.0V-30.0H495.0V0.0H0.0ZM133.0 218.0C132.0 -57.0 122.0 -463.0 -57.0 -649.0C-49.0 -652.0 -36.0 -659.0 -30.0 -664.0C150.0 -470.0 160.0 -68.0 163.0 218.0H133.0Z"/></g>
<g fill="black" opacity=".8" transform="translate(300 900) scale(0.1 -0.1)"><path d="M0.0 0.0V-31.0H494.0V0.0H0.0ZM135.0 227.0C132.0 -65.0 123.0 -457.0 -58.0 -649.0C-52.0 -652.0 -39.0 -659.0 -34.0 -663.0C150.0 -463.0 159.0 -75.0 162.0 228.0L135.0 227.0Z"/></g>
<g fill="red" transform="translate(400 900) scale(0.1 -0.1)"><path d="M0.0 0.0V-127.0H500.0V0.0H0.0ZM96.0 201.0C94.0 -154.0 98.0 -457.0 -62.0 -640.0C-26.0 -663.0 17.0 -706.0 40.0 -741.0C212.0 -530.0 219.0 -186.0 220.0 201.0H96.0Z"/></g>
<g fill="black" opacity=".8" transform="translate(400 900) scale(0.1 -0.1)"><path d="M0.0 0.0 -1.0 -124.0H501.0V0.0H0.0ZM93.0 190.0C93.0 -149.0 100.0 -463.0 -63.0 -649.0C-29.0 -669.0 20.0 -707.0 43.0 -737.0C219.0 -522.0 223.0 -176.0 221.0 192.0L93.0 190.0Z"/></g>
<g fill="red" transform="translate(500 900) scale(0.1 -0.1)"><path d="M0.0 0.0V-30.0H269.0V0.0H0.0ZM775.0 43.0C715.0 -207.0 588.0 -430.0 398.0 -513.0C406.0 -520.0 415.0 -531.0 421.0 -539.0C611.0 -448.0 738.0 -225.0 800.0 37.0L775.0 43.0Z"/></g>
<g fill="black" opacity=".8" transform="translate(500 900) scale(0.1 -0.1)"><path d="M0.0 0.0 2.0 -28.0H274.0V0.0H0.0ZM769.0 42.0C707.0 -204.0 589.0 -416.0 401.0 -519.0C408.0 -524.0 420.0 -535.0 425.0 -542.0C612.0 -433.0 731.0 -220.0 797.0 36.0L769.0 42.0Z"/></g>
<g fill="red" transform="translate(600 900) scale(0.1 -0.1)"><path d="M0.0 0.0V-105.0H275.0V0.0H0.0ZM724.0 10.0C677.0 -207.0 577.0 -402.0 416.0 -496.0C443.0 -520.0 482.0 -568.0 502.0 -599.0C678.0 -482.0 777.0 -275.0 836.0 -15.0L724.0 10.0Z"/></g>
<g fill="black" opacity=".8" transform="translate(600 900) scale(0.1 -0.1)"><path d="M0.0 0.0 4.0 -107.0H271.0V0.0H0.0ZM728.0 11.0C679.0 -223.0 580.0 -403.0 409.0 -499.0C436.0 -521.0 480.0 -567.0 500.0 -596.0C679.0 -480.0 786.0 -281.0 847.0 -12.0L728.0 11.0Z"/></g>
<g fill="red" transform="translate(700 900) scale(0.1 -0.1)"><path d="M0.0 0.0V-29.0H874.0V0.0H0.0ZM300.0 66.0C258.0 -97.0 154.0 -262.0 -13.0 -357.0C-4.0 -362.0 8.0 -371.0 14.0 -377.0C180.0 -279.0 284.0 -112.0 333.0 58.0L300.0 66.0Z"/></g>
<g fill="black" opacity=".8" transform="translate(700 900) scale(0.1 -0.1)"><path d="M0.0 0.0 1.0 -24.0H869.0V0.0H0.0ZM318.0 64.0C264.0 -103.0 155.0 -262.0 -17.0 -361.0C-11.0 -365.0 -1.0 -373.0 1.0 -379.0C175.0 -279.0 284.0 -117.0 342.0 57.0L318.0 64.0Z"/></g>
<g fill="red" transform="translate(800 900) scale(0.1 -0.1)"><path d="M0.0 0.0V-102.0H896.0V0.0H0.0ZM310.0 46.0C266.0 -110.0 152.0 -262.0 -37.0 -335.0C-5.0 -357.0 45.0 -400.0 69.0 -427.0C261.0 -340.0 385.0 -171.0 453.0 17.0L310.0 46.0Z"/></g>
<g fill="black" opacity=".8" transform="translate(800 900) scale(0.1 -0.1)"><path d="M0.0 0.0 2.0 -105.0H903.0V0.0H0.0ZM306.0 46.0C259.0 -100.0 154.0 -259.0 -18.0 -338.0C7.0 -359.0 50.0 -400.0 70.0 -427.0C255.0 -333.0 370.0 -160.0 436.0 16.0L306.0 46.0Z"/></g>
<g fill="red" transform="translate(900 900) scale(0.1 -0.1)"><path d="M0.0 0.0V-29.0H455.0V0.0H0.0ZM196.0 105.0C151.0 -43.0 75.0 -176.0 -22.0 -263.0C-14.0 -268.0 -2.0 -278.0 3.0 -283.0C98.0 -192.0 178.0 -56.0 226.0 98.0L196.0 105.0Z"/></g>
<g fill="black" opacity=".8" transform="translate(900 900) scale(0.1 -0.1)"><path d="M0.0 0.0V-31.0H457.0V0.0H0.0ZM197.0 97.0C153.0 -54.0 76.0 -174.0 -13.0 -265.0C-7.0 -269.0 3.0 -278.0 6.0 -284.0C96.0 -188.0 175.0 -66.0 220.0 92.0L197.0 97.0Z"/></g>
<g fill="red" transform="translate(1000 900) scale(0.1 -0.1)"><path d="M0.0 0.0V-118.0H472.0V0.0H0.0ZM155.0 74.0C122.0 -57.0 58.0 -176.0 -29.0 -247.0C-4.0 -271.0 38.0 -323.0 55.0 -348.0C152.0 -258.0 230.0 -113.0 273.0 46.0L155.0 74.0Z"/></g>
<g fill="black" opacity=".8" transform="translate(1000 900) scale(0.1 -0.1)"><path d="M0.0 0.0V-116.0H470.0V0.0H0.0ZM160.0 78.0C127.0 -43.0 56.0 -178.0 -31.0 -254.0C-9.0 -276.0 32.0 -325.0 46.0 -349.0C147.0 -252.0 230.0 -96.0 273.0 54.0L160.0 78.0Z"/></g>
<g fill="red" transform="translate(1100 900) scale(0.1 -0.1)"><path d="M0.0 0.0V-29.0H521.0V0.0H0.0ZM127.0 189.0C126.0 -85.0 118.0 -507.0 -103.0 -694.0C-95.0 -698.0 -84.0 -705.0 -78.0 -709.0C146.0 -513.0 154.0 -96.0 156.0 189.0H127.0Z"/></g>
<g fill="black" opacity=".8" transform="translate(1100 900) scale(0.1 -0.1)"><path d="M0.0 0.0V-28.0H517.0V0.0H0.0ZM131.0 187.0C126.0 -70.0 111.0 -502.0 -99.0 -702.0C-92.0 -705.0 -80.0 -712.0 -75.0 -717.0C138.0 -509.0 153.0 -81.0 159.0 188.0L131.0 187.0Z"/></g>
<g fill="red" transform="translate(1200 900) scale(0.1 -0.1)"><path d="M0.0 0.0V-134.0H559.0V0.0H0.0ZM121.0 153.0C118.0 -135.0 126.0 -486.0 -86.0 -691.0C-44.0 -717.0 0.0 -758.0 27.0 -796.0C250.0 -560.0 258.0 -170.0 261.0 153.0H121.0Z"/></g>
<g fill="black" opacity=".8" transform="translate(1200 900) scale(0.1 -0.1)"><path d="M0.0 0.0V-133.0H564.0V0.0H0.0ZM123.0 156.0C119.0 -151.0 120.0 -489.0 -83.0 -685.0C-45.0 -710.0 -1.0 -753.0 24.0 -789.0C243.0 -562.0 257.0 -188.0 263.0 156.0H123.0Z"/></g>
<g fill="red" transform="translate(1300 900) scale(0.1 -0.1)"><path d="M0.0 0.0V-29.0H345.0V0.0H0.0ZM556.0 208.0C514.0 -44.0 438.0 -257.0 304.0 -393.0C312.0 -397.0 324.0 -408.0 329.0 -414.0C463.0 -270.0 539.0 -58.0 586.0 203.0L556.0 208.0Z"/></g>
<g fill="black" opacity=".8" transform="translate(1300 900) scale(0.1 -0.1)"><path d="M0.0 0.0 2.0 -35.0H350.0V0.0H0.0ZM562.0 192.0C511.0 -49.0 433.0 -265.0 311.0 -392.0C318.0 -396.0 330.0 -407.0 334.0 -414.0C456.0 -279.0 536.0 -65.0 589.0 187.0L562.0 192.0Z"/></g>
<g fill="red" transform="translate(1400 900) scale(0.1 -0.1)"><path d="M0.0 0.0V-133.0H433.0V0.0H0.0ZM573.0 162.0C539.0 -47.0 467.0 -231.0 343.0 -338.0C373.0 -363.0 424.0 -418.0 443.0 -446.0C579.0 -315.0 665.0 -102.0 710.0 140.0L573.0 162.0Z"/></g>
<g fill="black" opacity=".8" transform="translate(1400 900) scale(0.1 -0.1)"><path d="M0.0 0.0 8.0 -127.0H429.0V0.0H0.0ZM582.0 177.0C541.0 -25.0 463.0 -231.0 346.0 -342.0C373.0 -368.0 418.0 -421.0 437.0 -450.0C566.0 -313.0 655.0 -85.0 706.0 154.0L582.0 177.0Z"/></g>
<g fill="red" transform="translate(1500 900) scale(0.1 -0.1)"><path d="M0.0 0.0V-30.0H310.0V0.0H0.0ZM530.0 134.0C460.0 -111.0 331.0 -296.0 139.0 -409.0C147.0 -415.0 159.0 -427.0 164.0 -432.0C354.0 -311.0 484.0 -128.0 560.0 127.0L530.0 134.0Z"/></g>
<g fill="black" opacity=".8" transform="translate(1500 900) scale(0.1 -0.1)"><path d="M0.0 0.0 -1.0 -29.0H311.0V0.0H0.0ZM529.0 125.0C463.0 -115.0 331.0 -300.0 140.0 -406.0C148.0 -412.0 160.0 -423.0 165.0 -431.0C355.0 -318.0 488.0 -131.0 558.0 118.0L529.0 125.0Z"/></g>
<g fill="red" transform="translate(1600 900) scale(0.1 -0.1)"><path d="M0.0 0.0V-126.0H257.0V0.0H0.0ZM444.0 88.0C395.0 -133.0 287.0 -301.0 113.0 -395.0C141.0 -419.0 190.0 -474.0 208.0 -501.0C391.0 -386.0 513.0 -192.0 577.0 63.0L444.0 88.0Z"/></g>
<g fill="black" opacity=".8" transform="translate(1600 900) scale(0.1 -0.1)"><path d="M0.0 0.0 -5.0 -125.0H257.0V0.0H0.0ZM442.0 98.0C394.0 -125.0 287.0 -296.0 114.0 -393.0C142.0 -419.0 189.0 -476.0 206.0 -508.0C395.0 -388.0 514.0 -190.0 575.0 72.0L442.0 98.0Z"/></g>
<g fill="red" transform="translate(100 1000) scale(0.1 -0.1)"><path d="M0.0 0.0V-29.0H574.0V0.0H0.0ZM216.0 190.0C172.0 -117.0 87.0 -344.0 -104.0 -483.0C-97.0 -489.0 -85.0 -499.0 -80.0 -505.0C110.0 -356.0 199.0 -132.0 247.0 186.0L216.0 190.0Z"/></g>
<g fill="black" opacity=".8" transform="translate(100 1000) scale(0.1 -0.1)"><path d="M0.0 0.0V-29.0H566.0V0.0H0.0ZM222.0 194.0C174.0 -112.0 84.0 -345.0 -100.0 -490.0C-92.0 -494.0 -81.0 -504.0 -77.0 -510.0C107.0 -358.0 199.0 -126.0 249.0 189.0L222.0 194.0Z"/></g>
<g fill="red" transform="translate(200 1000) scale(0.1 -0.1)"><path d="M0.0 0.0V-131.0H572.0V0.0H0.0ZM179.0 175.0C151.0 -121.0 80.0 -351.0 -100.0 -478.0C-69.0 -506.0 -14.0 -568.0 5.0 -599.0C202.0 -441.0 289.0 -179.0 328.0 161.0L179.0 175.0Z"/></g>
<g fill="black" opacity=".8" transform="translate(200 1000) scale(0.1 -0.1)"><path d="M0.0 0.0 -1.0 -130.0H580.0V0.0H0.0ZM186.0 174.0C151.0 -125.0 72.0 -352.0 -98.0 -480.0C-70.0 -506.0 -19.0 -561.0 0.0 -592.0C189.0 -437.0 280.0 -180.0 326.0 155.0L186.0 174.0Z"/></g>
<g fill="red" transform="translate(300 1000) scale(0.1 -0.1)"><path d="M0.0 0.0V-29.0H613.0V0.0H0.0ZM229.0 140.0C173.0 -60.0 79.0 -242.0 -38.0 -359.0C-32.0 -366.0 -23.0 -380.0 -19.0 -387.0C102.0 -259.0 198.0 -75.0 257.0 133.0L229.0 140.0Z"/></g>
<g fill="black" opacity=".8" transform="translate(300 1000) scale(0.1 -0.1)"><path d="M0.0 0.0V-28.0H612.0V0.0H0.0ZM232.0 141.0C178.0 -68.0 81.0 -239.0 -49.0 -360.0C-42.0 -366.0 -29.0 -377.0 -25.0 -384.0C106.0 -255.0 204.0 -83.0 261.0 135.0L232.0 141.0Z"/></g>
<g fill="red" transform="translate(400 1000) scale(0.1 -0.1)"><path d="M0.0 0.0V-139.0H614.0V0.0H0.0ZM179.0 116.0C133.0 -82.0 42.0 -259.0 -86.0 -363.0C-57.0 -390.0 -7.0 -451.0 11.0 -481.0C153.0 -353.0 259.0 -143.0 319.0 86.0L179.0 116.0Z"/></g>
<g fill="black" opacity=".8" transform="translate(400 1000) scale(0.1 -0.1)"><path d="M0.0 0.0 -1.0 -136.0H616.0V0.0H0.0ZM170.0 113.0C130.0 -72.0 44.0 -257.0 -78.0 -364.0C-51.0 -392.0 -1.0 -454.0 17.0 -485.0C159.0 -352.0 260.0 -136.0 314.0 85.0L170.0 113.0Z"/></g>
<g fill="red" transform="translate(500 1000) scale(0.1 -0.1)"><path d="M0.0 0.0V-29.0H649.0V0.0H0.0ZM282.0 190.0C233.0 -109.0 144.0 -340.0 -38.0 -483.0C-31.0 -489.0 -19.0 -499.0 -13.0 -505.0C169.0 -352.0 260.0 -124.0 313.0 186.0L282.0 190.0Z"/></g>
<g fill="black" opacity=".8" transform="translate(500 1000) scale(0.1 -0.1)"><path d="M0.0 0.0V-25.0H646.0V0.0H0.0ZM288.0 197.0C236.0 -102.0 137.0 -337.0 -46.0 -484.0C-38.0 -490.0 -25.0 -500.0 -20.0 -507.0C163.0 -352.0 263.0 -117.0 319.0 192.0L288.0 197.0Z"/></g>
<g fill="red" transform="translate(600 1000) scale(0.1 -0.1)"><path d="M0.0 0.0V-131.0H640.0V0.0H0.0ZM239.0 175.0C197.0 -111.0 107.0 -345.0 -68.0 -478.0C-37.0 -506.0 18.0 -567.0 39.0 -597.0C227.0 -436.0 333.0 -168.0 386.0 154.0L239.0 175.0Z"/></g>
<g fill="black" opacity=".8" transform="translate(600 1000) scale(0.1 -0.1)"><path d="M0.0 0.0 -1.0 -132.0H643.0V0.0H0.0ZM233.0 169.0C195.0 -118.0 108.0 -347.0 -60.0 -478.0C-29.0 -504.0 26.0 -562.0 47.0 -594.0C232.0 -437.0 331.0 -178.0 382.0 147.0L233.0 169.0Z"/></g>
<g fill="red" transform="translate(700 1000) scale(0.1 -0.1)"><path d="M0.0 0.0V-30.0H466.0V0.0H0.0ZM132.0 218.0C131.0 -62.0 123.0 -476.0 -45.0 -666.0C-39.0 -669.0 -26.0 -676.0 -20.0 -680.0C148.0 -482.0 157.0 -73.0 159.0 218.0H132.0Z"/></g>
<g fill="black" opacity=".8" transform="translate(700 1000) scale(0.1 -0.1)"><path d="M0.0 0.0 1.0 -29.0H470.0V0.0H0.0ZM129.0 228.0C128.0 -71.0 124.0 -467.0 -48.0 -663.0C-41.0 -667.0 -28.0 -673.0 -23.0 -678.0C151.0 -473.0 155.0 -82.0 156.0 229.0L129.0 228.0Z"/></g>
<g fill="red" transform="translate(800 1000) scale(0.1 -0.1)"><path d="M0.0 0.0V-127.0H489.0V0.0H0.0ZM94.0 201.0C92.0 -159.0 96.0 -468.0 -48.0 -657.0C-12.0 -679.0 30.0 -722.0 54.0 -757.0C207.0 -541.0 214.0 -191.0 215.0 201.0H94.0Z"/></g>
<g fill="black" opacity=".8" transform="translate(800 1000) scale(0.1 -0.1)"><path d="M0.0 0.0V-126.0H485.0V0.0H0.0ZM90.0 189.0C92.0 -155.0 103.0 -474.0 -51.0 -665.0C-16.0 -685.0 33.0 -725.0 56.0 -755.0C223.0 -536.0 223.0 -183.0 219.0 192.0L90.0 189.0Z"/></g>
<g fill="red" transform="translate(900 1000) scale(0.1 -0.1)"><path d="M0.0 0.0V-30.0H486.0V0.0H0.0ZM204.0 -137.0C170.0 -322.0 106.0 -477.0 -1.0 -575.0C7.0 -580.0 19.0 -590.0 22.0 -595.0C129.0 -490.0 197.0 -336.0 233.0 -141.0L204.0 -137.0Z"/></g>
<g fill="black" opacity=".8" transform="translate(900 1000) scale(0.1 -0.1)"><path d="M0.0 0.0 1.0 -31.0H491.0V0.0H0.0ZM207.0 -133.0C169.0 -318.0 100.0 -477.0 -5.0 -575.0C2.0 -579.0 15.0 -589.0 18.0 -594.0C123.0 -491.0 194.0 -332.0 235.0 -137.0L207.0 -133.0Z"/></g>
<g fill="red" transform="translate(1000 1000) scale(0.1 -0.1)"><path d="M0.0 0.0V-124.0H509.0V0.0H0.0ZM159.0 -169.0C138.0 -343.0 84.0 -487.0 -26.0 -570.0C2.0 -592.0 50.0 -643.0 68.0 -668.0C191.0 -564.0 259.0 -395.0 290.0 -185.0L159.0 -169.0Z"/></g>
<g fill="black" opacity=".8" transform="translate(1000 1000) scale(0.1 -0.1)"><path d="M0.0 0.0 2.0 -121.0H505.0V0.0H0.0ZM165.0 -173.0C138.0 -342.0 79.0 -493.0 -22.0 -579.0C6.0 -598.0 58.0 -641.0 78.0 -665.0C185.0 -560.0 255.0 -390.0 291.0 -193.0L165.0 -173.0Z"/></g>
<g fill="red" transform="translate(1100 1000) scale(0.1 -0.1)"><path d="M0.0 0.0V-29.0H411.0V0.0H0.0ZM172.0 185.0C144.0 -98.0 94.0 -338.0 -31.0 -489.0C-23.0 -494.0 -12.0 -505.0 -7.0 -510.0C120.0 -349.0 172.0 -113.0 202.0 182.0L172.0 185.0Z"/></g>
<g fill="black" opacity=".8" transform="translate(1100 1000) scale(0.1 -0.1)"><path d="M0.0 0.0 1.0 -26.0H413.0V0.0H0.0ZM176.0 184.0C141.0 -91.0 87.0 -337.0 -33.0 -489.0C-26.0 -493.0 -13.0 -503.0 -9.0 -509.0C113.0 -348.0 169.0 -105.0 204.0 180.0L176.0 184.0Z"/></g>
<g fill="red" transform="translate(1200 1000) scale(0.1 -0.1)"><path d="M0.0 0.0V-135.0H451.0V0.0H0.0ZM150.0 156.0C128.0 -96.0 82.0 -329.0 -29.0 -469.0C-2.0 -499.0 41.0 -564.0 57.0 -596.0C191.0 -423.0 253.0 -151.0 284.0 142.0L150.0 156.0Z"/></g>
<g fill="black" opacity=".8" transform="translate(1200 1000) scale(0.1 -0.1)"><path d="M0.0 0.0 1.0 -135.0H449.0V0.0H0.0ZM150.0 158.0C126.0 -102.0 79.0 -337.0 -32.0 -476.0C-3.0 -502.0 49.0 -560.0 68.0 -590.0C196.0 -422.0 257.0 -154.0 286.0 142.0L150.0 158.0Z"/></g>
<g fill="red" transform="translate(1300 1000) scale(0.1 -0.1)"><path d="M0.0 0.0V-30.0H466.0V0.0H0.0ZM133.0 218.0C132.0 -62.0 124.0 -476.0 -45.0 -666.0C-39.0 -669.0 -25.0 -676.0 -20.0 -680.0C149.0 -482.0 158.0 -73.0 160.0 218.0H133.0Z"/></g>
<g fill="black" opacity=".8" transform="translate(1300 1000) scale(0.1 -0.1)"><path d="M0.0 0.0 1.0 -30.0H471.0V0.0H0.0ZM130.0 228.0C128.0 -71.0 124.0 -467.0 -48.0 -663.0C-42.0 -666.0 -28.0 -673.0 -23.0 -678.0C151.0 -473.0 156.0 -81.0 157.0 229.0L130.0 228.0Z"/></g>
<g fill="red" transform="translate(1400 1000) scale(0.1 -0.1)"><path d="M0.0 0.0V-127.0H492.0V0.0H0.0ZM94.0 201.0C92.0 -159.0 96.0 -468.0 -49.0 -657.0C-13.0 -679.0 30.0 -722.0 53.0 -757.0C208.0 -541.0 215.0 -191.0 216.0 201.0H94.0Z"/></g>
<g fill="black" opacity=".8" transform="translate(1400 1000) scale(0.1 -0.1)"><path d="M0.0 0.0V-126.0H487.0V0.0H0.0ZM91.0 189.0C93.0 -155.0 104.0 -474.0 -51.0 -665.0C-16.0 -685.0 33.0 -725.0 56.0 -755.0C223.0 -536.0 224.0 -183.0 220.0 192.0L91.0 189.0Z"/></g>
<g fill="red" transform="translate(1500 1000) scale(0.1 -0.1)"><path d="M0.0 0.0V-29.0H360.0V0.0H0.0ZM494.0 447.0C493.0 167.0 484.0 -247.0 313.0 -437.0C318.0 -440.0 332.0 -447.0 337.0 -451.0C511.0 -253.0 519.0 156.0 521.0 447.0H494.0Z"/></g>
<g fill="black" opacity=".8" transform="translate(1500 1000) scale(0.1 -0.1)"><path d="M0.0 0.0 2.0 -27.0H363.0V0.0H0.0ZM500.0 452.0C491.0 158.0 481.0 -245.0 314.0 -439.0C320.0 -442.0 332.0 -448.0 337.0 -453.0C506.0 -250.0 515.0 148.0 523.0 452.0H500.0Z"/></g>
<g fill="red" transform="translate(1600 1000) scale(0.1 -0.1)"><path d="M0.0 0.0V-99.0H381.0V0.0H0.0ZM449.0 427.0C447.0 67.0 451.0 -242.0 306.0 -431.0C343.0 -453.0 385.0 -496.0 409.0 -531.0C564.0 -315.0 571.0 35.0 572.0 427.0H449.0Z"/></g>
<g fill="black" opacity=".8" transform="translate(1600 1000) scale(0.1 -0.1)"><path d="M0.0 0.0 4.0 -103.0H379.0V0.0H0.0ZM457.0 420.0C452.0 80.0 456.0 -247.0 315.0 -440.0C345.0 -460.0 383.0 -498.0 401.0 -527.0C556.0 -305.0 561.0 53.0 564.0 423.0L457.0 420.0Z"/></g>
<g fill="red" transform="translate(100 1100) scale(0.1 -0.1)"><path d="M0.0 0.0V-30.0H292.0V0.0H0.0ZM255.0 -135.0C204.0 -335.0 108.0 -496.0 -33.0 -597.0C-25.0 -602.0 -14.0 -613.0 -9.0 -619.0C131.0 -511.0 230.0 -350.0 285.0 -140.0L255.0 -135.0Z"/></g>
<g fill="black" opacity=".8" transform="translate(100 1100) scale(0.1 -0.1)"><path d="M0.0 0.0V-25.0H303.0V0.0H0.0ZM257.0 -133.0C203.0 -334.0 102.0 -496.0 -44.0 -591.0C-35.0 -597.0 -23.0 -608.0 -19.0 -615.0C126.0 -512.0 230.0 -349.0 286.0 -139.0L257.0 -133.0Z"/></g>
<g fill="red" transform="translate(200 1100) scale(0.1 -0.1)"><path d="M0.0 0.0V-125.0H293.0V0.0H0.0ZM194.0 -167.0C155.0 -356.0 66.0 -507.0 -76.0 -592.0C-47.0 -616.0 4.0 -671.0 23.0 -699.0C173.0 -593.0 276.0 -416.0 330.0 -193.0L194.0 -167.0Z"/></g>
<g fill="black" opacity=".8" transform="translate(200 1100) scale(0.1 -0.1)"><path d="M0.0 0.0 -3.0 -129.0H283.0V0.0H0.0ZM191.0 -170.0C154.0 -356.0 73.0 -507.0 -65.0 -595.0C-36.0 -619.0 14.0 -675.0 33.0 -704.0C184.0 -593.0 278.0 -416.0 326.0 -194.0L191.0 -170.0Z"/></g>
<g fill="red" transform="translate(300 1100) scale(0.1 -0.1)"><path d="M0.0 0.0V-30.0H304.0V0.0H0.0ZM506.0 134.0C436.0 -111.0 307.0 -296.0 115.0 -409.0C123.0 -415.0 135.0 -427.0 140.0 -432.0C330.0 -311.0 460.0 -128.0 536.0 127.0L506.0 134.0Z"/></g>
<g fill="black" opacity=".8" transform="translate(300 1100) scale(0.1 -0.1)"><path d="M0.0 0.0V-30.0H292.0V0.0H0.0ZM509.0 121.0C442.0 -120.0 314.0 -305.0 125.0 -410.0C133.0 -416.0 144.0 -427.0 148.0 -434.0C337.0 -322.0 466.0 -136.0 535.0 115.0L509.0 121.0Z"/></g>
<g fill="red" transform="translate(400 1100) scale(0.1 -0.1)"><path d="M0.0 0.0V-126.0H260.0V0.0H0.0ZM455.0 88.0C407.0 -133.0 300.0 -301.0 127.0 -395.0C155.0 -419.0 203.0 -474.0 221.0 -501.0C403.0 -386.0 524.0 -192.0 587.0 63.0L455.0 88.0Z"/></g>
<g fill="black" opacity=".8" transform="translate(400 1100) scale(0.1 -0.1)"><path d="M0.0 0.0 -2.0 -124.0H273.0V0.0H0.0ZM453.0 102.0C404.0 -120.0 296.0 -294.0 121.0 -389.0C147.0 -416.0 191.0 -474.0 208.0 -505.0C400.0 -385.0 519.0 -186.0 583.0 76.0L453.0 102.0Z"/></g>
<g fill="red" transform="translate(500 1100) scale(0.1 -0.1)"><path d="M0.0 0.0V-30.0H604.0V0.0H0.0ZM234.0 210.0C194.0 -57.0 124.0 -278.0 -20.0 -415.0C-12.0 -420.0 -1.0 -431.0 4.0 -436.0C148.0 -289.0 221.0 -72.0 264.0 206.0L234.0 210.0Z"/></g>
<g fill="black" opacity=".8" transform="translate(500 1100) scale(0.1 -0.1)"><path d="M0.0 0.0V-30.0H606.0V0.0H0.0ZM245.0 212.0C198.0 -55.0 111.0 -272.0 -34.0 -416.0C-26.0 -421.0 -12.0 -431.0 -8.0 -438.0C138.0 -287.0 226.0 -70.0 276.0 207.0L245.0 212.0Z"/></g>
<g fill="red" transform="translate(600 1100) scale(0.1 -0.1)"><path d="M0.0 0.0V-144.0H615.0V0.0H0.0ZM208.0 190.0C168.0 -56.0 83.0 -267.0 -66.0 -388.0C-33.0 -415.0 24.0 -475.0 45.0 -505.0C207.0 -358.0 307.0 -114.0 360.0 167.0L208.0 190.0Z"/></g>
<g fill="black" opacity=".8" transform="translate(600 1100) scale(0.1 -0.1)"><path d="M0.0 0.0 -1.0 -140.0H614.0V0.0H0.0ZM200.0 186.0C165.0 -52.0 87.0 -267.0 -48.0 -391.0C-18.0 -417.0 38.0 -476.0 59.0 -506.0C210.0 -356.0 302.0 -112.0 348.0 163.0L200.0 186.0Z"/></g>
<g fill="red" transform="translate(700 1100) scale(0.1 -0.1)"><path d="M0.0 0.0V-29.0H822.0V0.0H0.0ZM311.0 108.0C269.0 -101.0 172.0 -310.0 -26.0 -432.0C-18.0 -437.0 -6.0 -446.0 -2.0 -451.0C196.0 -327.0 295.0 -113.0 343.0 101.0L311.0 108.0Z"/></g>
<g fill="black" opacity=".8" transform="translate(700 1100) scale(0.1 -0.1)"><path d="M0.0 0.0 1.0 -28.0H835.0V0.0H0.0ZM311.0 100.0C263.0 -98.0 166.0 -310.0 -22.0 -431.0C-15.0 -436.0 -4.0 -444.0 -1.0 -450.0C188.0 -326.0 286.0 -112.0 338.0 94.0L311.0 100.0Z"/></g>
<g fill="red" transform="translate(800 1100) scale(0.1 -0.1)"><path d="M0.0 0.0V-113.0H869.0V0.0H0.0ZM276.0 69.0C241.0 -117.0 152.0 -313.0 -32.0 -412.0C-1.0 -433.0 47.0 -478.0 70.0 -505.0C263.0 -390.0 364.0 -173.0 418.0 45.0L276.0 69.0Z"/></g>
<g fill="black" opacity=".8" transform="translate(800 1100) scale(0.1 -0.1)"><path d="M0.0 0.0 1.0 -115.0H857.0V0.0H0.0ZM284.0 76.0C244.0 -116.0 154.0 -312.0 -28.0 -415.0C1.0 -438.0 46.0 -481.0 68.0 -509.0C264.0 -387.0 364.0 -173.0 421.0 51.0L284.0 76.0Z"/></g>
<g fill="red" transform="translate(900 1100) scale(0.1 -0.1)"><path d="M0.0 0.0V-29.0H363.0V0.0H0.0ZM772.0 138.0C724.0 -113.0 636.0 -313.0 479.0 -438.0C486.0 -444.0 499.0 -454.0 504.0 -460.0C660.0 -328.0 752.0 -129.0 803.0 134.0L772.0 138.0Z"/></g>
<g fill="black" opacity=".8" transform="translate(900 1100) scale(0.1 -0.1)"><path d="M0.0 0.0 1.0 -25.0H364.0V0.0H0.0ZM783.0 140.0C729.0 -102.0 627.0 -321.0 465.0 -434.0C472.0 -439.0 486.0 -450.0 490.0 -456.0C652.0 -337.0 755.0 -118.0 811.0 135.0L783.0 140.0Z"/></g>
<g fill="red" transform="translate(1000 1100) scale(0.1 -0.1)"><path d="M0.0 0.0V-103.0H320.0V0.0H0.0ZM708.0 100.0C668.0 -131.0 581.0 -317.0 429.0 -425.0C453.0 -445.0 496.0 -490.0 512.0 -513.0C673.0 -385.0 771.0 -178.0 821.0 82.0L708.0 100.0Z"/></g>
<g fill="black" opacity=".8" transform="translate(1000 1100) scale(0.1 -0.1)"><path d="M0.0 0.0 3.0 -101.0H320.0V0.0H0.0ZM700.0 99.0C660.0 -135.0 577.0 -321.0 439.0 -425.0C467.0 -444.0 515.0 -487.0 535.0 -513.0C679.0 -389.0 768.0 -186.0 817.0 79.0L700.0 99.0Z"/></g>
<g fill="red" transform="translate(1100 1100) scale(0.1 -0.1)"><path d="M0.0 0.0V-29.0H578.0V0.0H0.0ZM158.0 201.0C157.0 -72.0 150.0 -492.0 -80.0 -677.0C-72.0 -681.0 -60.0 -688.0 -54.0 -693.0C177.0 -499.0 186.0 -83.0 188.0 201.0H158.0Z"/></g>
<g fill="black" opacity=".8" transform="translate(1100 1100) scale(0.1 -0.1)"><path d="M0.0 0.0V-37.0H582.0V0.0H0.0ZM164.0 196.0C159.0 -78.0 140.0 -489.0 -76.0 -680.0C-70.0 -684.0 -58.0 -690.0 -53.0 -694.0C166.0 -496.0 184.0 -88.0 190.0 196.0H164.0Z"/></g>
<g fill="red" transform="translate(1200 1100) scale(0.1 -0.1)"><path d="M0.0 0.0V-134.0H595.0V0.0H0.0ZM110.0 156.0C108.0 -202.0 121.0 -503.0 -84.0 -687.0C-48.0 -710.0 -4.0 -755.0 18.0 -790.0C245.0 -578.0 249.0 -233.0 251.0 156.0H110.0Z"/></g>
<g fill="black" opacity=".8" transform="translate(1200 1100) scale(0.1 -0.1)"><path d="M0.0 0.0V-125.0H592.0V0.0H0.0ZM117.0 158.0C115.0 -185.0 116.0 -509.0 -82.0 -699.0C-47.0 -720.0 -3.0 -756.0 20.0 -787.0C232.0 -570.0 243.0 -213.0 247.0 159.0L117.0 158.0Z"/></g>
</svg>
