<?xml version="1.0" encoding="UTF-8"?>
<svg width="1700" height="300" xmlns="http://www.w3.org/2000/svg">
<rect width="100%" height="100%" fill="white"/>
<g fill="green" transform="translate(100 100) scale(0.1 -0.1)"><path d="M0.0 -0.0 16.0 -566.0 2.0 -550.0V513.0H1001.0V-546.0H483.0V0.0ZM256.0 -246.0C354.0 -242.0 473.0 -249.0 538.0 -269.0L540.0 -241.0C472.0 -221.0 352.0 -212.0 255.0 -222.0ZM698.0 119.0C573.0 -31.0 327.0 -96.0 59.0 -118.0C59.0 -123.0 60.0 -131.0 59.0 -135.0C329.0 -104.0 573.0 -47.0 704.0 113.0Z"/></g>
<g fill="green" transform="translate(200 100) scale(0.1 -0.1)"><path d="M0.0 0.0 74.0 -623.0 302.0 -545.0V450.0H920.0V-504.0H688.0V0.0ZM504.0 -304.0C588.0 -290.0 704.0 -288.0 766.0 -294.0L742.0 -200.0C675.0 -194.0 557.0 -199.0 476.0 -219.0ZM841.0 87.0C723.0 -38.0 487.0 -92.0 229.0 -108.0C231.0 -124.0 229.0 -164.0 224.0 -180.0C498.0 -151.0 743.0 -94.0 885.0 60.0Z"/></g>
<g fill="green" transform="translate(300 100) scale(0.1 -0.1)"><path d="M0.0 -0.0 18.0 -333.0 -169.0 -315.0V576.0H652.0V-341.0H-8.0V0.0ZM-118.0 -234.0C-79.0 -193.0 -26.0 -142.0 8.0 -120.0L-12.0 -109.0C-49.0 -130.0 -102.0 -177.0 -141.0 -224.0ZM299.0 71.0C242.0 68.0 133.0 102.0 36.0 134.0C29.0 135.0 19.0 139.0 14.0 142.0C114.0 113.0 217.0 69.0 277.0 72.0Z"/></g>
<g fill="green" transform="translate(400 100) scale(0.1 -0.1)"><path d="M0.0 0.0 83.0 -349.0 73.0 -262.0V566.0H611.0V-259.0H169.0V0.0ZM116.0 -220.0C149.0 -176.0 203.0 -128.0 238.0 -100.0L117.0 -68.0C80.0 -95.0 25.0 -143.0 -9.0 -192.0ZM474.0 79.0C414.0 69.0 299.0 93.0 208.0 119.0C185.0 128.0 145.0 142.0 126.0 155.0C214.0 126.0 326.0 79.0 394.0 81.0Z"/></g>
<g fill="green" transform="translate(500 100) scale(0.1 -0.1)"><path d="M0.0 -0.0 2.0 -454.0 127.0 -453.0V63.0H835.0V-415.0H1153.0V0.0ZM305.0 109.0C376.0 83.0 454.0 35.0 493.0 -8.0L521.0 13.0C480.0 56.0 401.0 101.0 333.0 125.0ZM583.0 262.0C350.0 31.0 -59.0 -157.0 -416.0 -256.0C-408.0 -266.0 -396.0 -283.0 -392.0 -292.0C-39.0 -182.0 370.0 -1.0 613.0 241.0Z"/></g>
<g fill="green" transform="translate(600 100) scale(0.1 -0.1)"><path d="M0.0 0.0 8.0 -529.0 291.0 -520.0V-58.0H742.0V-511.0H1214.0V0.0ZM459.0 17.0C518.0 -7.0 591.0 -49.0 626.0 -84.0L750.0 -21.0C713.0 12.0 638.0 51.0 588.0 76.0ZM583.0 186.0C372.0 -30.0 -31.0 -190.0 -379.0 -269.0C-353.0 -311.0 -314.0 -407.0 -300.0 -450.0C55.0 -344.0 473.0 -163.0 728.0 96.0Z"/></g>
<g fill="green" transform="translate(700 100) scale(0.1 -0.1)"><path d="M0.0 0.0 23.0 -366.0 642.0 -343.0V911.0H478.0V-194.0H319.0V0.0ZM530.0 -70.0C550.0 -55.0 570.0 -45.0 578.0 -49.0C567.0 -48.0 545.0 -61.0 531.0 -75.0ZM717.0 -181.0C615.0 -273.0 390.0 -290.0 150.0 -270.0C150.0 -274.0 147.0 -281.0 145.0 -287.0C390.0 -301.0 613.0 -289.0 718.0 -188.0Z"/></g>
<g fill="green" transform="translate(800 100) scale(0.1 -0.1)"><path d="M0.0 0.0 105.0 -467.0 925.0 -357.0V943.0H389.0V-143.0H418.0V0.0ZM693.0 -77.0C720.0 -49.0 764.0 -22.0 786.0 -16.0L770.0 8.0C749.0 -5.0 716.0 -35.0 706.0 -53.0ZM845.0 -192.0C741.0 -265.0 530.0 -271.0 277.0 -255.0C279.0 -269.0 268.0 -296.0 262.0 -314.0C533.0 -324.0 738.0 -313.0 859.0 -210.0Z"/></g>
<g fill="green" transform="translate(900 100) scale(0.1 -0.1)"><path d="M0.0 0.0 6.0 -455.0 -39.0 -450.0V138.0H807.0V-463.0H500.0V0.0ZM318.0 -334.0C440.0 -371.0 582.0 -434.0 654.0 -488.0L666.0 -462.0C591.0 -408.0 448.0 -345.0 327.0 -312.0ZM420.0 -109.0C431.0 -240.0 393.0 -286.0 277.0 -308.0C280.0 -312.0 286.0 -320.0 287.0 -324.0C407.0 -295.0 450.0 -248.0 439.0 -105.0Z"/></g>
<g fill="green" transform="translate(1000 100) scale(0.1 -0.1)"><path d="M0.0 0.0 25.0 -495.0 127.0 -468.0V56.0H758.0V-454.0H651.0V0.0ZM376.0 -434.0C470.0 -458.0 593.0 -506.0 653.0 -543.0L700.0 -441.0C633.0 -404.0 506.0 -360.0 413.0 -344.0ZM467.0 -180.0C480.0 -257.0 471.0 -288.0 390.0 -304.0C401.0 -323.0 416.0 -370.0 416.0 -390.0C535.0 -354.0 560.0 -292.0 558.0 -169.0Z"/></g>
<g fill="green" transform="translate(1100 100) scale(0.1 -0.1)"><path d="M0.0 -0.0 5.0 -442.0 -65.0 -437.0V99.0H691.0V-469.0H149.0V0.0ZM373.0 -169.0C473.0 -178.0 601.0 -197.0 674.0 -219.0L688.0 -173.0C614.0 -153.0 485.0 -132.0 386.0 -131.0ZM832.0 364.0C686.0 148.0 437.0 25.0 117.0 -41.0C120.0 -47.0 128.0 -62.0 130.0 -69.0C453.0 8.0 700.0 125.0 856.0 356.0Z"/></g>
<g fill="green" transform="translate(1200 100) scale(0.1 -0.1)"><path d="M0.0 0.0 25.0 -463.0 137.0 -437.0V63.0H644.0V-419.0H368.0V0.0ZM637.0 -224.0C728.0 -225.0 853.0 -239.0 922.0 -251.0L942.0 -128.0C868.0 -115.0 736.0 -103.0 641.0 -114.0ZM929.0 383.0C795.0 184.0 553.0 69.0 221.0 13.0C233.0 -16.0 245.0 -79.0 245.0 -107.0C607.0 -31.0 872.0 108.0 1027.0 343.0Z"/></g>
<g fill="green" transform="translate(1300 100) scale(0.1 -0.1)"><path d="M0.0 0.0 15.0 -574.0 36.0 -557.0V505.0H1013.0V-546.0H530.0V0.0ZM283.0 -222.0C383.0 -228.0 498.0 -249.0 559.0 -277.0L562.0 -250.0C500.0 -221.0 382.0 -199.0 283.0 -198.0ZM702.0 111.0C580.0 -33.0 335.0 -92.0 73.0 -113.0C75.0 -118.0 76.0 -127.0 76.0 -132.0C339.0 -102.0 583.0 -47.0 712.0 104.0Z"/></g>
<g fill="green" transform="translate(1400 100) scale(0.1 -0.1)"><path d="M0.0 0.0 71.0 -637.0 333.0 -562.0V427.0H928.0V-516.0H676.0V0.0ZM477.0 -294.0C565.0 -286.0 681.0 -291.0 741.0 -303.0L709.0 -198.0C645.0 -186.0 527.0 -185.0 443.0 -198.0ZM820.0 73.0C704.0 -31.0 469.0 -69.0 212.0 -71.0C227.0 -78.0 251.0 -94.0 263.0 -107.0C515.0 -100.0 752.0 -80.0 888.0 45.0Z"/></g>
<g fill="red" transform="translate(100 200) scale(0.1 -0.1)"><path d="M0.0 0.0V-29.0H636.0V145.0H-82.0V116.0H607.0V0.0ZM468.0 245.0C448.0 216.0 411.0 171.0 383.0 143.0L406.0 130.0C434.0 157.0 469.0 194.0 495.0 230.0ZM260.0 -148.0C177.0 -242.0 10.0 -324.0 -136.0 -359.0C-128.0 -365.0 -120.0 -376.0 -116.0 -384.0C28.0 -346.0 199.0 -260.0 284.0 -161.0Z"/></g>
<g fill="black" opacity=".8" transform="translate(100 200) scale(0.1 -0.1)"><path d="M0.0 0.0 1.0 -29.0H636.0V146.0H-82.0V116.0H607.0V0.0ZM467.0 246.0C448.0 217.0 410.0 172.0 383.0 142.0L406.0 130.0C433.0 158.0 468.0 194.0 495.0 229.0ZM260.0 -148.0C178.0 -243.0 10.0 -324.0 -135.0 -360.0C-127.0 -365.0 -121.0 -377.0 -117.0 -385.0C29.0 -345.0 200.0 -260.0 285.0 -160.0Z"/></g>
<g fill="red" transform="translate(200 200) scale(0.1 -0.1)"><path d="M0.0 0.0V-106.0H641.0V141.0H-132.0V35.0H496.0V0.0ZM388.0 212.0C376.0 188.0 355.0 157.0 336.0 130.0L463.0 111.0C485.0 132.0 515.0 160.0 544.0 198.0ZM181.0 -191.0C104.0 -268.0 -50.0 -327.0 -206.0 -353.0C-179.0 -379.0 -142.0 -428.0 -125.0 -460.0C38.0 -422.0 191.0 -341.0 284.0 -233.0Z"/></g>
<g fill="black" opacity=".8" transform="translate(200 200) scale(0.1 -0.1)"><path d="M0.0 0.0 -1.0 -106.0H641.0V141.0H-131.0V35.0H495.0V0.0ZM388.0 212.0C376.0 188.0 354.0 157.0 337.0 129.0L462.0 112.0C484.0 132.0 515.0 160.0 545.0 198.0ZM182.0 -191.0C104.0 -268.0 -50.0 -327.0 -205.0 -353.0C-178.0 -379.0 -142.0 -428.0 -124.0 -461.0C38.0 -422.0 191.0 -342.0 284.0 -232.0Z"/></g>
<g fill="red" transform="translate(300 200) scale(0.1 -0.1)"><path d="M0.0 0.0H-14.0L-29.0 -15.0V-512.0H0.0V-29.0H432.0V0.0ZM150.0 117.0C179.0 76.0 211.0 20.0 225.0 -16.0L252.0 -4.0C238.0 31.0 206.0 85.0 178.0 126.0ZM39.0 133.0C-8.0 16.0 -81.0 -99.0 -162.0 -174.0C-155.0 -179.0 -142.0 -189.0 -137.0 -194.0C-58.0 -115.0 18.0 2.0 68.0 126.0Z"/></g>
<g fill="black" opacity=".8" transform="translate(300 200) scale(0.1 -0.1)"><path d="M0.0 0.0 -14.0 -1.0 -29.0 -16.0V-512.0H-1.0V-29.0H431.0V0.0ZM149.0 118.0C179.0 77.0 211.0 20.0 225.0 -17.0L252.0 -4.0C237.0 32.0 205.0 85.0 178.0 125.0ZM39.0 133.0C-7.0 16.0 -80.0 -99.0 -161.0 -175.0C-154.0 -179.0 -143.0 -190.0 -139.0 -195.0C-57.0 -114.0 19.0 2.0 69.0 126.0Z"/></g>
<g fill="red" transform="translate(400 200) scale(0.1 -0.1)"><path d="M0.0 0.0H-65.0L-131.0 -68.0V-567.0H0.0V-114.0H407.0V0.0ZM99.0 61.0C118.0 17.0 137.0 -41.0 143.0 -77.0L284.0 -53.0C276.0 -16.0 253.0 40.0 233.0 82.0ZM-66.0 97.0C-101.0 -12.0 -165.0 -116.0 -237.0 -183.0C-218.0 -214.0 -187.0 -282.0 -178.0 -311.0C-83.0 -222.0 0.0 -77.0 49.0 63.0Z"/></g>
<g fill="black" opacity=".8" transform="translate(400 200) scale(0.1 -0.1)"><path d="M0.0 0.0 -66.0 1.0 -131.0 -68.0V-567.0H0.0V-113.0H407.0V0.0ZM100.0 61.0C118.0 17.0 136.0 -40.0 144.0 -77.0L283.0 -52.0C276.0 -17.0 252.0 41.0 234.0 82.0ZM-65.0 97.0C-101.0 -13.0 -165.0 -117.0 -237.0 -182.0C-217.0 -214.0 -187.0 -282.0 -178.0 -312.0C-84.0 -223.0 -0.0 -77.0 49.0 64.0Z"/></g>
<g fill="red" transform="translate(500 200) scale(0.1 -0.1)"><path d="M0.0 0.0H-14.0L-29.0 -14.0V-508.0H0.0V-29.0H395.0V0.0ZM147.0 125.0C176.0 79.0 204.0 16.0 215.0 -23.0L240.0 -11.0C231.0 28.0 202.0 88.0 173.0 135.0ZM38.0 140.0C-2.0 39.0 -63.0 -61.0 -130.0 -131.0C-122.0 -135.0 -110.0 -145.0 -104.0 -150.0C-40.0 -78.0 25.0 28.0 68.0 133.0Z"/></g>
<g fill="black" opacity=".8" transform="translate(500 200) scale(0.1 -0.1)"><path d="M0.0 0.0 -14.0 -1.0 -30.0 -15.0V-507.0H-1.0V-29.0H394.0V0.0ZM146.0 126.0C176.0 80.0 204.0 16.0 215.0 -24.0L240.0 -11.0C230.0 29.0 201.0 88.0 173.0 134.0ZM38.0 140.0C-1.0 38.0 -62.0 -61.0 -129.0 -131.0C-121.0 -135.0 -111.0 -146.0 -106.0 -151.0C-39.0 -77.0 26.0 28.0 69.0 134.0Z"/></g>
<g fill="red" transform="translate(600 200) scale(0.1 -0.1)"><path d="M0.0 0.0H-65.0L-131.0 -68.0V-571.0H0.0V-114.0H322.0V0.0ZM55.0 62.0C77.0 17.0 96.0 -42.0 101.0 -80.0L219.0 -45.0C213.0 -6.0 190.0 51.0 166.0 94.0ZM-81.0 107.0C-110.0 25.0 -164.0 -56.0 -229.0 -106.0C-199.0 -125.0 -147.0 -164.0 -123.0 -187.0C-57.0 -125.0 8.0 -26.0 46.0 75.0Z"/></g>
<g fill="black" opacity=".8" transform="translate(600 200) scale(0.1 -0.1)"><path d="M0.0 0.0H-66.0L-131.0 -69.0V-571.0H0.0V-114.0H322.0V0.0ZM56.0 62.0C77.0 17.0 96.0 -42.0 102.0 -80.0L218.0 -44.0C213.0 -6.0 189.0 51.0 167.0 94.0ZM-79.0 107.0C-110.0 25.0 -164.0 -57.0 -228.0 -105.0C-199.0 -125.0 -147.0 -164.0 -122.0 -187.0C-58.0 -125.0 8.0 -26.0 46.0 76.0Z"/></g>
<g fill="red" transform="translate(700 200) scale(0.1 -0.1)"><path d="M0.0 0.0V-212.0H234.0V0.0H205.0V-182.0H29.0V0.0ZM532.0 -137.0C602.0 -174.0 686.0 -229.0 728.0 -268.0L747.0 -243.0C705.0 -206.0 620.0 -152.0 551.0 -117.0ZM553.0 1.0C544.0 -144.0 502.0 -209.0 352.0 -244.0C358.0 -249.0 367.0 -261.0 371.0 -268.0C525.0 -227.0 571.0 -157.0 583.0 1.0Z"/></g>
<g fill="black" opacity=".8" transform="translate(700 200) scale(0.1 -0.1)"><path d="M0.0 0.0V-212.0H234.0V0.0H205.0V-182.0H28.0V0.0ZM531.0 -136.0C603.0 -173.0 686.0 -229.0 728.0 -269.0L747.0 -242.0C705.0 -206.0 619.0 -153.0 551.0 -117.0ZM553.0 1.0C545.0 -144.0 503.0 -209.0 353.0 -244.0C358.0 -248.0 367.0 -261.0 370.0 -269.0C526.0 -227.0 572.0 -157.0 583.0 1.0Z"/></g>
<g fill="red" transform="translate(800 200) scale(0.1 -0.1)"><path d="M0.0 0.0V-240.0H304.0V0.0H184.0V-155.0H114.0V0.0ZM562.0 -196.0C626.0 -220.0 710.0 -260.0 750.0 -289.0L818.0 -201.0C774.0 -173.0 689.0 -137.0 626.0 -117.0ZM553.0 1.0C547.0 -103.0 528.0 -154.0 371.0 -182.0C393.0 -204.0 422.0 -247.0 431.0 -274.0C625.0 -231.0 660.0 -145.0 669.0 1.0Z"/></g>
<g fill="black" opacity=".8" transform="translate(800 200) scale(0.1 -0.1)"><path d="M0.0 0.0V-240.0H304.0V-1.0H184.0V-155.0H114.0V0.0ZM562.0 -196.0C626.0 -220.0 710.0 -260.0 751.0 -289.0L818.0 -201.0C774.0 -173.0 688.0 -137.0 626.0 -117.0ZM554.0 1.0C547.0 -103.0 527.0 -155.0 371.0 -181.0C394.0 -204.0 422.0 -247.0 432.0 -274.0C625.0 -231.0 660.0 -145.0 669.0 2.0Z"/></g>
<g fill="red" transform="translate(900 200) scale(0.1 -0.1)"><path d="M0.0 0.0V-310.0H29.0V-29.0H528.0V-307.0H557.0V0.0ZM249.0 76.0C303.0 61.0 367.0 34.0 402.0 11.0L422.0 37.0C387.0 60.0 322.0 86.0 269.0 98.0ZM553.0 340.0C368.0 154.0 61.0 9.0 -232.0 -72.0C-226.0 -79.0 -217.0 -93.0 -213.0 -100.0C77.0 -11.0 383.0 129.0 578.0 324.0Z"/></g>
<g fill="black" opacity=".8" transform="translate(900 200) scale(0.1 -0.1)"><path d="M0.0 0.0V-311.0H29.0V-29.0H527.0V-307.0H556.0V0.0ZM248.0 77.0C303.0 61.0 367.0 35.0 402.0 11.0L422.0 37.0C386.0 60.0 321.0 86.0 269.0 97.0ZM553.0 340.0C368.0 153.0 62.0 9.0 -232.0 -72.0C-226.0 -79.0 -217.0 -93.0 -214.0 -101.0C78.0 -11.0 383.0 129.0 579.0 324.0Z"/></g>
<g fill="red" transform="translate(1000 200) scale(0.1 -0.1)"><path d="M0.0 0.0V-346.0H145.0V-96.0H473.0V-346.0H626.0V0.0ZM405.0 21.0C456.0 8.0 521.0 -16.0 554.0 -34.0L622.0 34.0C586.0 53.0 518.0 74.0 469.0 84.0ZM566.0 324.0C397.0 145.0 90.0 18.0 -214.0 -44.0C-192.0 -72.0 -159.0 -133.0 -145.0 -163.0C161.0 -85.0 481.0 52.0 678.0 255.0Z"/></g>
<g fill="black" opacity=".8" transform="translate(1000 200) scale(0.1 -0.1)"><path d="M0.0 0.0V-346.0H145.0V-96.0H473.0V-346.0H626.0V0.0ZM406.0 21.0C456.0 8.0 520.0 -15.0 555.0 -35.0L621.0 34.0C586.0 53.0 518.0 74.0 470.0 84.0ZM567.0 324.0C398.0 145.0 90.0 18.0 -213.0 -44.0C-192.0 -72.0 -159.0 -133.0 -145.0 -163.0C160.0 -85.0 481.0 52.0 678.0 256.0Z"/></g>
<g fill="red" transform="translate(1100 200) scale(0.1 -0.1)"><path d="M0.0 0.0V-419.0H29.0V-29.0H756.0V-415.0H785.0V0.0ZM349.0 -181.0C460.0 -233.0 584.0 -317.0 643.0 -382.0L665.0 -360.0C605.0 -294.0 480.0 -212.0 369.0 -161.0ZM387.0 -49.0C352.0 -209.0 244.0 -301.0 91.0 -352.0C98.0 -359.0 109.0 -370.0 113.0 -376.0C266.0 -318.0 380.0 -223.0 417.0 -53.0Z"/></g>
<g fill="black" opacity=".8" transform="translate(1100 200) scale(0.1 -0.1)"><path d="M0.0 0.0V-419.0H29.0V-28.0H755.0V-415.0H785.0V0.0ZM349.0 -180.0C460.0 -233.0 584.0 -317.0 643.0 -383.0L665.0 -360.0C604.0 -294.0 479.0 -212.0 369.0 -161.0ZM387.0 -49.0C353.0 -209.0 244.0 -301.0 92.0 -352.0C99.0 -358.0 109.0 -370.0 112.0 -377.0C266.0 -318.0 380.0 -223.0 417.0 -52.0Z"/></g>
<g fill="red" transform="translate(1200 200) scale(0.1 -0.1)"><path d="M0.0 0.0V-470.0H145.0V-139.0H698.0V-465.0H851.0V0.0ZM349.0 -299.0C435.0 -340.0 541.0 -407.0 589.0 -457.0L688.0 -362.0C634.0 -312.0 524.0 -250.0 441.0 -214.0ZM368.0 -139.0C342.0 -242.0 261.0 -307.0 138.0 -341.0C165.0 -365.0 209.0 -421.0 225.0 -450.0C370.0 -396.0 466.0 -305.0 510.0 -155.0Z"/></g>
<g fill="black" opacity=".8" transform="translate(1200 200) scale(0.1 -0.1)"><path d="M0.0 0.0 -1.0 -470.0H145.0V-140.0H699.0V-465.0H851.0V0.0ZM349.0 -299.0C435.0 -340.0 541.0 -407.0 590.0 -457.0L688.0 -362.0C634.0 -312.0 524.0 -250.0 442.0 -214.0ZM369.0 -139.0C342.0 -243.0 261.0 -307.0 139.0 -341.0C165.0 -365.0 209.0 -421.0 225.0 -450.0C370.0 -396.0 466.0 -305.0 510.0 -155.0Z"/></g>
</svg>
