<?xml version="1.0" encoding="UTF-8"?>
<svg width="1700" height="500" xmlns="http://www.w3.org/2000/svg">
<rect width="100%" height="100%" fill="white"/>
<g fill="green" transform="translate(100 100) scale(0.1 -0.1)"><path d="M0.0 -0.0V-27.0H872.0V-0.0ZM776.0 -219.0V-224.0C754.0 -548.0 730.0 -667.0 692.0 -702.0C681.0 -711.0 667.0 -712.0 642.0 -712.0C616.0 -712.0 540.0 -712.0 456.0 -704.0C461.0 -710.0 464.0 -721.0 465.0 -731.0C540.0 -736.0 612.0 -739.0 648.0 -738.0C681.0 -736.0 697.0 -732.0 714.0 -715.0C756.0 -677.0 778.0 -557.0 802.0 -236.0C804.0 -232.0 805.0 -219.0 805.0 -219.0Z"/></g>
<g fill="green" transform="translate(200 100) scale(0.1 -0.1)"><path d="M0.0 0.0V-132.0H969.0V0.0ZM759.0 -251.0V-276.0C747.0 -510.0 730.0 -629.0 701.0 -654.0C687.0 -665.0 674.0 -667.0 654.0 -667.0C623.0 -667.0 558.0 -668.0 493.0 -662.0C523.0 -705.0 547.0 -771.0 548.0 -815.0C614.0 -817.0 681.0 -817.0 722.0 -811.0C769.0 -805.0 806.0 -794.0 841.0 -753.0C882.0 -706.0 900.0 -589.0 917.0 -315.0C918.0 -296.0 919.0 -251.0 919.0 -251.0Z"/></g>
<g fill="green" transform="translate(300 100) scale(0.1 -0.1)"><path d="M0.0 -0.0V4.0H390.0V0.0ZM314.0 -200.0V-197.0C304.0 -138.0 294.0 -124.0 283.0 -129.0C281.0 -127.0 278.0 -126.0 271.0 -127.0C264.0 -127.0 244.0 -127.0 220.0 -124.0C219.0 -122.0 220.0 -120.0 220.0 -120.0C244.0 -121.0 263.0 -123.0 272.0 -123.0C277.0 -122.0 276.0 -123.0 278.0 -124.0C288.0 -124.0 298.0 -129.0 309.0 -195.0C311.0 -197.0 312.0 -200.0 312.0 -200.0Z"/></g>
<g fill="green" transform="translate(400 100) scale(0.1 -0.1)"><path d="M0.0 0.0V7.0H512.0V0.0ZM367.0 -230.0V-228.0C362.0 -136.0 354.0 -123.0 348.0 -120.0C344.0 -119.0 341.0 -117.0 337.0 -117.0C328.0 -117.0 301.0 -118.0 281.0 -116.0C287.0 -120.0 294.0 -125.0 293.0 -128.0C308.0 -129.0 325.0 -129.0 332.0 -130.0C342.0 -131.0 352.0 -132.0 361.0 -129.0C368.0 -128.0 375.0 -149.0 383.0 -232.0C383.0 -231.0 383.0 -230.0 383.0 -230.0Z"/></g>
<g fill="green" transform="translate(500 100) scale(0.1 -0.1)"><path d="M0.0 0.0V-52.0H598.0V0.0ZM516.0 -162.0V-174.0C497.0 -717.0 475.0 -907.0 436.0 -953.0C421.0 -970.0 405.0 -972.0 375.0 -971.0C344.0 -971.0 258.0 -972.0 162.0 -963.0C172.0 -976.0 177.0 -998.0 179.0 -1015.0C260.0 -1021.0 342.0 -1023.0 385.0 -1022.0C430.0 -1020.0 456.0 -1011.0 478.0 -983.0C527.0 -928.0 545.0 -749.0 567.0 -197.0C568.0 -187.0 568.0 -162.0 568.0 -162.0Z"/></g>
<g fill="green" transform="translate(600 100) scale(0.1 -0.1)"><path d="M0.0 0.0V-219.0H599.0V0.0ZM401.0 -185.0V-230.0C391.0 -697.0 379.0 -859.0 354.0 -896.0C339.0 -918.0 324.0 -923.0 302.0 -923.0C274.0 -923.0 229.0 -923.0 180.0 -917.0C217.0 -981.0 243.0 -1081.0 245.0 -1151.0C318.0 -1152.0 382.0 -1150.0 427.0 -1141.0C479.0 -1129.0 518.0 -1112.0 558.0 -1057.0C604.0 -992.0 617.0 -787.0 632.0 -280.0C632.0 -252.0 633.0 -185.0 633.0 -185.0Z"/></g>
<g fill="green" transform="translate(700 100) scale(0.1 -0.1)"><path d="M0.0 -0.0V-57.0H897.0V0.0ZM835.0 -107.0V-119.0C810.0 -501.0 785.0 -642.0 741.0 -683.0C726.0 -697.0 704.0 -699.0 667.0 -699.0C631.0 -699.0 518.0 -699.0 397.0 -687.0C407.0 -702.0 413.0 -725.0 415.0 -743.0C524.0 -751.0 630.0 -754.0 681.0 -752.0C736.0 -750.0 762.0 -742.0 788.0 -717.0C841.0 -668.0 864.0 -523.0 891.0 -143.0C894.0 -131.0 894.0 -107.0 894.0 -107.0Z"/></g>
<g fill="green" transform="translate(800 100) scale(0.1 -0.1)"><path d="M0.0 0.0V-250.0H886.0V0.0ZM704.0 -123.0V-159.0C692.0 -422.0 675.0 -545.0 643.0 -575.0C625.0 -593.0 605.0 -596.0 576.0 -596.0C539.0 -596.0 465.0 -596.0 385.0 -589.0C430.0 -660.0 463.0 -772.0 467.0 -854.0C567.0 -856.0 662.0 -854.0 720.0 -845.0C787.0 -835.0 839.0 -817.0 889.0 -760.0C946.0 -695.0 967.0 -536.0 985.0 -221.0C986.0 -189.0 987.0 -123.0 987.0 -123.0Z"/></g>
<g fill="green" transform="translate(900 100) scale(0.1 -0.1)"><path d="M0.0 0.0V1.0H784.0V0.0ZM747.0 -87.0V-88.0C727.0 -540.0 704.0 -697.0 664.0 -735.0C655.0 -742.0 647.0 -744.0 634.0 -744.0C616.0 -744.0 571.0 -743.0 518.0 -739.0C518.0 -738.0 517.0 -738.0 518.0 -742.0C562.0 -744.0 605.0 -747.0 630.0 -747.0C646.0 -745.0 656.0 -744.0 667.0 -729.0C708.0 -689.0 727.0 -539.0 746.0 -91.0C748.0 -93.0 748.0 -87.0 748.0 -87.0Z"/></g>
<g fill="green" transform="translate(1000 100) scale(0.1 -0.1)"><path d="M0.0 0.0V-42.0H936.0V0.0ZM841.0 -99.0V-120.0C826.0 -475.0 805.0 -670.0 764.0 -701.0C753.0 -709.0 745.0 -711.0 728.0 -711.0C698.0 -712.0 631.0 -713.0 562.0 -708.0C582.0 -730.0 599.0 -761.0 598.0 -772.0C641.0 -774.0 697.0 -777.0 732.0 -772.0C769.0 -767.0 795.0 -759.0 822.0 -721.0C861.0 -673.0 879.0 -544.0 900.0 -144.0C901.0 -136.0 901.0 -99.0 901.0 -99.0Z"/></g>
<g fill="green" transform="translate(1100 100) scale(0.1 -0.1)"><path d="M0.0 0.0V-21.0H897.0V0.0ZM803.0 -220.0V-225.0C784.0 -555.0 761.0 -674.0 726.0 -709.0C716.0 -716.0 704.0 -718.0 682.0 -718.0C659.0 -718.0 592.0 -718.0 518.0 -711.0C522.0 -715.0 524.0 -724.0 526.0 -732.0C591.0 -736.0 654.0 -738.0 686.0 -737.0C715.0 -736.0 729.0 -733.0 743.0 -717.0C782.0 -681.0 801.0 -563.0 824.0 -235.0C825.0 -233.0 826.0 -220.0 826.0 -220.0Z"/></g>
<g fill="green" transform="translate(1200 100) scale(0.1 -0.1)"><path d="M0.0 0.0V-110.0H924.0V0.0ZM732.0 -253.0V-275.0C723.0 -516.0 710.0 -640.0 682.0 -664.0C670.0 -673.0 658.0 -675.0 641.0 -676.0C611.0 -676.0 550.0 -676.0 487.0 -671.0C513.0 -708.0 534.0 -764.0 534.0 -801.0C593.0 -804.0 654.0 -803.0 691.0 -798.0C734.0 -792.0 764.0 -782.0 796.0 -745.0C832.0 -702.0 845.0 -587.0 858.0 -309.0C859.0 -293.0 859.0 -253.0 859.0 -253.0Z"/></g>
<g fill="green" transform="translate(1300 100) scale(0.1 -0.1)"><path d="M0.0 0.0V-38.0H859.0V-0.0ZM759.0 -213.0V-220.0C741.0 -525.0 723.0 -636.0 692.0 -666.0C683.0 -678.0 669.0 -679.0 645.0 -679.0C620.0 -679.0 549.0 -679.0 471.0 -671.0C478.0 -680.0 482.0 -697.0 483.0 -708.0C552.0 -714.0 619.0 -715.0 653.0 -715.0C688.0 -712.0 706.0 -707.0 723.0 -689.0C759.0 -653.0 777.0 -543.0 795.0 -237.0C798.0 -229.0 799.0 -213.0 799.0 -213.0Z"/></g>
<g fill="green" transform="translate(1400 100) scale(0.1 -0.1)"><path d="M0.0 0.0V-164.0H935.0V0.0ZM741.0 -244.0V-271.0C732.0 -539.0 721.0 -651.0 698.0 -677.0C684.0 -690.0 672.0 -693.0 653.0 -692.0C624.0 -692.0 570.0 -693.0 514.0 -688.0C542.0 -731.0 564.0 -798.0 566.0 -845.0C631.0 -846.0 696.0 -846.0 736.0 -840.0C782.0 -834.0 819.0 -822.0 852.0 -782.0C890.0 -735.0 905.0 -614.0 917.0 -312.0C918.0 -290.0 919.0 -244.0 919.0 -244.0Z"/></g>
<g fill="red" transform="translate(100 200) scale(0.1 -0.1)"><path d="M0.0 0.0V-28.0H729.0V0.0ZM711.0 0.0V-9.0C703.0 -549.0 692.0 -729.0 662.0 -765.0C652.0 -778.0 641.0 -781.0 624.0 -780.0C603.0 -780.0 542.0 -780.0 478.0 -775.0C484.0 -783.0 486.0 -795.0 487.0 -805.0C540.0 -809.0 595.0 -810.0 627.0 -809.0C656.0 -809.0 674.0 -802.0 689.0 -780.0C725.0 -735.0 732.0 -568.0 739.0 -24.0C739.0 -18.0 739.0 0.0 739.0 0.0Z"/></g>
<g fill="black" opacity=".8" transform="translate(100 200) scale(0.1 -0.1)"><path d="M0.0 0.0V-26.0H740.0V0.0ZM728.0 3.0V-6.0C712.0 -541.0 694.0 -724.0 657.0 -765.0C647.0 -777.0 635.0 -781.0 617.0 -781.0C595.0 -781.0 535.0 -780.0 469.0 -774.0C474.0 -781.0 475.0 -793.0 478.0 -803.0C532.0 -807.0 587.0 -808.0 618.0 -808.0C649.0 -806.0 668.0 -801.0 683.0 -779.0C726.0 -731.0 739.0 -559.0 754.0 -21.0C756.0 -15.0 756.0 3.0 756.0 3.0Z"/></g>
<g fill="red" transform="translate(200 200) scale(0.1 -0.1)"><path d="M0.0 0.0V-140.0H710.0V0.0ZM669.0 0.0V-30.0C665.0 -478.0 661.0 -696.0 623.0 -733.0C612.0 -746.0 600.0 -751.0 578.0 -751.0C543.0 -751.0 479.0 -751.0 399.0 -746.0C425.0 -785.0 447.0 -846.0 448.0 -884.0C514.0 -886.0 594.0 -888.0 644.0 -880.0C693.0 -872.0 727.0 -855.0 761.0 -804.0C803.0 -743.0 812.0 -571.0 818.0 -73.0C818.0 -54.0 818.0 0.0 818.0 0.0Z"/></g>
<g fill="black" opacity=".8" transform="translate(200 200) scale(0.1 -0.1)"><path d="M0.0 0.0V-141.0H721.0V0.0ZM675.0 3.0V-29.0C665.0 -488.0 653.0 -696.0 616.0 -732.0C604.0 -747.0 593.0 -751.0 573.0 -751.0C542.0 -752.0 486.0 -752.0 420.0 -748.0C446.0 -787.0 465.0 -848.0 466.0 -885.0C525.0 -887.0 591.0 -887.0 634.0 -881.0C680.0 -872.0 710.0 -858.0 744.0 -811.0C788.0 -750.0 800.0 -572.0 814.0 -67.0C814.0 -49.0 814.0 3.0 814.0 3.0Z"/></g>
<g fill="red" transform="translate(300 200) scale(0.1 -0.1)"><path d="M0.0 0.0V-29.0H707.0V0.0ZM698.0 0.0V-8.0C680.0 -528.0 660.0 -708.0 618.0 -750.0C606.0 -763.0 592.0 -765.0 569.0 -765.0C542.0 -765.0 466.0 -764.0 383.0 -757.0C388.0 -765.0 391.0 -777.0 392.0 -788.0C462.0 -792.0 534.0 -795.0 572.0 -794.0C607.0 -793.0 627.0 -787.0 646.0 -765.0C692.0 -715.0 709.0 -540.0 728.0 -23.0C728.0 -17.0 728.0 0.0 728.0 0.0Z"/></g>
<g fill="black" opacity=".8" transform="translate(300 200) scale(0.1 -0.1)"><path d="M0.0 0.0V-26.0H713.0V0.0ZM701.0 1.0V-7.0C680.0 -526.0 658.0 -707.0 615.0 -750.0C603.0 -762.0 589.0 -765.0 567.0 -765.0C541.0 -765.0 469.0 -764.0 388.0 -757.0C393.0 -764.0 395.0 -776.0 397.0 -787.0C465.0 -791.0 533.0 -794.0 570.0 -793.0C604.0 -791.0 623.0 -786.0 641.0 -764.0C689.0 -714.0 707.0 -540.0 728.0 -21.0C730.0 -16.0 729.0 1.0 729.0 1.0Z"/></g>
<g fill="red" transform="translate(400 200) scale(0.1 -0.1)"><path d="M0.0 0.0V-153.0H757.0V0.0ZM683.0 0.0V-30.0C671.0 -436.0 655.0 -636.0 616.0 -673.0C602.0 -687.0 589.0 -691.0 566.0 -691.0C534.0 -691.0 466.0 -692.0 391.0 -686.0C422.0 -731.0 446.0 -804.0 448.0 -848.0C514.0 -850.0 587.0 -851.0 633.0 -843.0C685.0 -834.0 721.0 -819.0 758.0 -768.0C807.0 -705.0 823.0 -533.0 839.0 -73.0C840.0 -54.0 841.0 0.0 841.0 0.0Z"/></g>
<g fill="black" opacity=".8" transform="translate(400 200) scale(0.1 -0.1)"><path d="M0.0 0.0V-145.0H758.0V0.0ZM684.0 1.0V-31.0C670.0 -440.0 651.0 -637.0 611.0 -673.0C597.0 -688.0 584.0 -691.0 561.0 -691.0C529.0 -692.0 463.0 -692.0 390.0 -687.0C422.0 -733.0 445.0 -803.0 446.0 -847.0C513.0 -849.0 586.0 -850.0 633.0 -842.0C684.0 -833.0 720.0 -819.0 757.0 -769.0C807.0 -706.0 825.0 -534.0 845.0 -73.0C846.0 -54.0 846.0 1.0 846.0 1.0Z"/></g>
<g fill="red" transform="translate(500 200) scale(0.1 -0.1)"><path d="M0.0 0.0V-30.0H786.0V0.0ZM777.0 0.0V-8.0C753.0 -434.0 729.0 -588.0 688.0 -627.0C677.0 -639.0 664.0 -641.0 641.0 -641.0C618.0 -641.0 549.0 -640.0 476.0 -633.0C482.0 -642.0 484.0 -654.0 485.0 -663.0C548.0 -667.0 614.0 -670.0 645.0 -669.0C678.0 -668.0 696.0 -664.0 715.0 -643.0C759.0 -597.0 780.0 -450.0 806.0 -22.0C806.0 -16.0 807.0 0.0 807.0 0.0Z"/></g>
<g fill="black" opacity=".8" transform="translate(500 200) scale(0.1 -0.1)"><path d="M0.0 0.0V-29.0H778.0V0.0ZM764.0 -1.0V-10.0C747.0 -441.0 728.0 -592.0 692.0 -629.0C682.0 -639.0 669.0 -642.0 648.0 -642.0C624.0 -642.0 556.0 -642.0 482.0 -635.0C487.0 -642.0 488.0 -655.0 491.0 -665.0C555.0 -670.0 618.0 -671.0 652.0 -670.0C685.0 -669.0 703.0 -664.0 719.0 -644.0C761.0 -602.0 776.0 -456.0 793.0 -24.0C796.0 -18.0 795.0 -1.0 795.0 -1.0Z"/></g>
<g fill="red" transform="translate(600 200) scale(0.1 -0.1)"><path d="M0.0 0.0V-149.0H761.0V0.0ZM700.0 0.0V-28.0C686.0 -381.0 666.0 -540.0 633.0 -573.0C619.0 -586.0 607.0 -590.0 587.0 -590.0C559.0 -590.0 503.0 -590.0 442.0 -585.0C470.0 -627.0 491.0 -693.0 493.0 -736.0C553.0 -738.0 615.0 -738.0 654.0 -731.0C701.0 -724.0 733.0 -711.0 766.0 -668.0C811.0 -613.0 830.0 -460.0 849.0 -67.0C851.0 -48.0 852.0 0.0 852.0 0.0Z"/></g>
<g fill="black" opacity=".8" transform="translate(600 200) scale(0.1 -0.1)"><path d="M0.0 0.0V-149.0H754.0V0.0ZM695.0 -2.0V-29.0C686.0 -372.0 673.0 -542.0 638.0 -573.0C625.0 -585.0 612.0 -588.0 591.0 -589.0C560.0 -590.0 499.0 -589.0 428.0 -584.0C457.0 -627.0 478.0 -691.0 479.0 -734.0C545.0 -737.0 617.0 -736.0 661.0 -730.0C710.0 -722.0 743.0 -709.0 779.0 -664.0C823.0 -608.0 837.0 -459.0 852.0 -70.0C852.0 -51.0 852.0 -2.0 852.0 -2.0Z"/></g>
<g fill="red" transform="translate(700 200) scale(0.1 -0.1)"><path d="M0.0 0.0V-29.0H472.0V0.0ZM458.0 0.0V-8.0C441.0 -516.0 420.0 -692.0 384.0 -732.0C373.0 -744.0 362.0 -747.0 342.0 -746.0C320.0 -746.0 261.0 -746.0 194.0 -741.0C200.0 -749.0 203.0 -761.0 204.0 -771.0C258.0 -775.0 314.0 -777.0 345.0 -776.0C375.0 -775.0 394.0 -769.0 411.0 -748.0C453.0 -699.0 468.0 -536.0 487.0 -23.0C487.0 -17.0 487.0 0.0 487.0 0.0Z"/></g>
<g fill="black" opacity=".8" transform="translate(700 200) scale(0.1 -0.1)"><path d="M0.0 0.0V-33.0H461.0V0.0ZM448.0 -1.0V-10.0C434.0 -522.0 418.0 -697.0 386.0 -736.0C374.0 -749.0 363.0 -752.0 344.0 -751.0C322.0 -751.0 263.0 -752.0 197.0 -746.0C203.0 -754.0 205.0 -769.0 208.0 -781.0C261.0 -784.0 317.0 -785.0 348.0 -785.0C380.0 -784.0 399.0 -777.0 415.0 -754.0C455.0 -708.0 466.0 -545.0 481.0 -27.0C482.0 -20.0 481.0 -1.0 481.0 -1.0Z"/></g>
<g fill="red" transform="translate(800 200) scale(0.1 -0.1)"><path d="M0.0 0.0V-141.0H446.0V0.0ZM382.0 0.0V-33.0C369.0 -477.0 351.0 -660.0 319.0 -697.0C306.0 -713.0 295.0 -718.0 277.0 -718.0C252.0 -718.0 206.0 -718.0 154.0 -713.0C181.0 -756.0 200.0 -822.0 202.0 -864.0C256.0 -865.0 311.0 -866.0 348.0 -858.0C391.0 -849.0 419.0 -835.0 450.0 -790.0C494.0 -732.0 510.0 -553.0 527.0 -70.0C528.0 -51.0 529.0 0.0 529.0 0.0Z"/></g>
<g fill="black" opacity=".8" transform="translate(800 200) scale(0.1 -0.1)"><path d="M0.0 0.0V-155.0H429.0V0.0ZM366.0 -0.0V-35.0C357.0 -477.0 347.0 -651.0 320.0 -685.0C309.0 -702.0 298.0 -706.0 280.0 -706.0C257.0 -707.0 217.0 -706.0 170.0 -702.0C197.0 -747.0 215.0 -816.0 216.0 -862.0C270.0 -864.0 324.0 -863.0 361.0 -856.0C402.0 -846.0 429.0 -832.0 461.0 -787.0C500.0 -731.0 509.0 -552.0 522.0 -72.0C522.0 -53.0 521.0 -0.0 521.0 -0.0Z"/></g>
<g fill="red" transform="translate(900 200) scale(0.1 -0.1)"><path d="M0.0 0.0V-30.0H252.0V0.0ZM244.0 0.0V-7.0C235.0 -190.0 225.0 -256.0 211.0 -273.0C204.0 -280.0 196.0 -281.0 181.0 -281.0C167.0 -281.0 124.0 -281.0 79.0 -277.0C85.0 -285.0 88.0 -296.0 88.0 -305.0C127.0 -308.0 168.0 -309.0 187.0 -308.0C211.0 -308.0 222.0 -303.0 234.0 -292.0C255.0 -269.0 263.0 -206.0 272.0 -20.0C273.0 -13.0 273.0 0.0 273.0 0.0Z"/></g>
<g fill="black" opacity=".8" transform="translate(900 200) scale(0.1 -0.1)"><path d="M0.0 0.0V-28.0H256.0V0.0ZM246.0 1.0V-6.0C238.0 -188.0 229.0 -253.0 213.0 -271.0C206.0 -278.0 197.0 -279.0 182.0 -280.0C167.0 -280.0 121.0 -280.0 71.0 -274.0C76.0 -282.0 79.0 -294.0 81.0 -303.0C124.0 -306.0 167.0 -306.0 188.0 -306.0C214.0 -305.0 226.0 -301.0 236.0 -289.0C259.0 -268.0 265.0 -202.0 274.0 -19.0C276.0 -12.0 275.0 1.0 275.0 1.0Z"/></g>
<g fill="red" transform="translate(1000 200) scale(0.1 -0.1)"><path d="M0.0 0.0V-129.0H212.0V0.0ZM157.0 0.0V-18.0C154.0 -153.0 151.0 -202.0 141.0 -215.0C134.0 -224.0 126.0 -226.0 114.0 -226.0C101.0 -226.0 79.0 -226.0 53.0 -223.0C72.0 -257.0 86.0 -310.0 88.0 -351.0C130.0 -351.0 167.0 -350.0 191.0 -345.0C217.0 -340.0 238.0 -331.0 258.0 -306.0C280.0 -277.0 287.0 -202.0 291.0 -47.0C291.0 -31.0 292.0 0.0 292.0 0.0Z"/></g>
<g fill="black" opacity=".8" transform="translate(1000 200) scale(0.1 -0.1)"><path d="M0.0 0.0V-120.0H213.0V0.0ZM162.0 -0.0V-18.0C158.0 -154.0 154.0 -206.0 142.0 -218.0C136.0 -229.0 127.0 -230.0 115.0 -230.0C102.0 -230.0 79.0 -229.0 52.0 -227.0C71.0 -260.0 83.0 -311.0 85.0 -350.0C126.0 -351.0 163.0 -349.0 186.0 -346.0C214.0 -340.0 233.0 -332.0 255.0 -307.0C279.0 -278.0 284.0 -201.0 291.0 -44.0C291.0 -30.0 290.0 -0.0 290.0 -0.0Z"/></g>
<g fill="red" transform="translate(1100 200) scale(0.1 -0.1)"><path d="M0.0 0.0V-29.0H187.0V0.0ZM176.0 0.0V-7.0C171.0 -208.0 166.0 -278.0 153.0 -294.0C147.0 -302.0 140.0 -303.0 126.0 -303.0C112.0 -303.0 70.0 -303.0 26.0 -299.0C32.0 -307.0 35.0 -319.0 36.0 -327.0C73.0 -330.0 113.0 -330.0 132.0 -330.0C154.0 -329.0 167.0 -324.0 178.0 -313.0C195.0 -291.0 199.0 -225.0 205.0 -20.0C205.0 -13.0 205.0 0.0 205.0 0.0Z"/></g>
<g fill="black" opacity=".8" transform="translate(1100 200) scale(0.1 -0.1)"><path d="M0.0 0.0V-29.0H182.0V0.0ZM172.0 1.0V-6.0C166.0 -209.0 162.0 -279.0 150.0 -295.0C145.0 -303.0 138.0 -304.0 125.0 -305.0C113.0 -305.0 78.0 -305.0 39.0 -300.0C44.0 -308.0 47.0 -321.0 49.0 -330.0C81.0 -333.0 113.0 -332.0 131.0 -332.0C154.0 -331.0 165.0 -327.0 174.0 -314.0C192.0 -294.0 195.0 -228.0 200.0 -19.0C202.0 -12.0 201.0 1.0 201.0 1.0Z"/></g>
<g fill="red" transform="translate(1200 200) scale(0.1 -0.1)"><path d="M0.0 0.0V-117.0H114.0V0.0ZM96.0 0.0V-17.0C94.0 -207.0 92.0 -271.0 84.0 -286.0C78.0 -295.0 72.0 -298.0 62.0 -297.0C52.0 -297.0 38.0 -297.0 18.0 -295.0C32.0 -321.0 42.0 -364.0 44.0 -395.0C74.0 -395.0 103.0 -394.0 122.0 -390.0C144.0 -386.0 161.0 -377.0 177.0 -355.0C195.0 -328.0 199.0 -245.0 201.0 -40.0C201.0 -27.0 202.0 0.0 202.0 0.0Z"/></g>
<g fill="black" opacity=".8" transform="translate(1200 200) scale(0.1 -0.1)"><path d="M0.0 0.0V-118.0H125.0V0.0ZM89.0 1.0V-18.0C87.0 -206.0 86.0 -265.0 79.0 -278.0C73.0 -289.0 67.0 -291.0 58.0 -291.0C48.0 -291.0 36.0 -290.0 19.0 -289.0C34.0 -318.0 44.0 -363.0 45.0 -398.0C78.0 -398.0 106.0 -396.0 125.0 -393.0C147.0 -387.0 162.0 -380.0 180.0 -357.0C199.0 -330.0 200.0 -245.0 204.0 -40.0C204.0 -27.0 203.0 1.0 203.0 1.0Z"/></g>
<g fill="red" transform="translate(1300 200) scale(0.1 -0.1)"><path d="M0.0 0.0V-30.0H266.0V0.0ZM253.0 0.0V-7.0C248.0 -245.0 242.0 -326.0 225.0 -345.0C218.0 -353.0 208.0 -354.0 193.0 -354.0C175.0 -354.0 122.0 -354.0 67.0 -349.0C72.0 -357.0 75.0 -369.0 76.0 -377.0C127.0 -381.0 175.0 -382.0 200.0 -381.0C226.0 -380.0 239.0 -375.0 251.0 -363.0C270.0 -339.0 276.0 -259.0 282.0 -20.0C282.0 -14.0 282.0 0.0 282.0 0.0Z"/></g>
<g fill="black" opacity=".8" transform="translate(1300 200) scale(0.1 -0.1)"><path d="M0.0 0.0V-30.0H269.0V0.0ZM259.0 1.0V-6.0C250.0 -240.0 240.0 -322.0 221.0 -343.0C213.0 -351.0 204.0 -352.0 187.0 -353.0C171.0 -353.0 122.0 -353.0 68.0 -347.0C73.0 -355.0 76.0 -368.0 78.0 -378.0C125.0 -381.0 170.0 -382.0 194.0 -381.0C221.0 -380.0 234.0 -376.0 246.0 -361.0C272.0 -336.0 278.0 -255.0 289.0 -20.0C291.0 -13.0 290.0 1.0 290.0 1.0Z"/></g>
<g fill="red" transform="translate(1400 200) scale(0.1 -0.1)"><path d="M0.0 0.0V-132.0H221.0V0.0ZM166.0 0.0V-21.0C164.0 -203.0 161.0 -269.0 150.0 -285.0C142.0 -295.0 133.0 -298.0 120.0 -298.0C104.0 -298.0 76.0 -297.0 45.0 -294.0C66.0 -330.0 82.0 -387.0 84.0 -430.0C130.0 -430.0 172.0 -429.0 199.0 -424.0C229.0 -418.0 252.0 -408.0 274.0 -379.0C298.0 -347.0 303.0 -255.0 306.0 -51.0C306.0 -35.0 307.0 0.0 307.0 0.0Z"/></g>
<g fill="black" opacity=".8" transform="translate(1400 200) scale(0.1 -0.1)"><path d="M0.0 0.0V-129.0H226.0V0.0ZM170.0 0.0V-21.0C166.0 -202.0 160.0 -271.0 147.0 -286.0C140.0 -298.0 130.0 -299.0 118.0 -299.0C103.0 -300.0 78.0 -299.0 49.0 -296.0C69.0 -332.0 83.0 -388.0 85.0 -430.0C129.0 -431.0 168.0 -429.0 193.0 -425.0C223.0 -418.0 244.0 -409.0 268.0 -381.0C294.0 -348.0 300.0 -254.0 308.0 -49.0C308.0 -34.0 307.0 0.0 307.0 0.0Z"/></g>
<g fill="red" transform="translate(1500 200) scale(0.1 -0.1)"><path d="M0.0 0.0V-29.0H195.0V0.0ZM181.0 0.0V-7.0C176.0 -208.0 171.0 -278.0 158.0 -294.0C153.0 -302.0 145.0 -303.0 131.0 -303.0C117.0 -303.0 75.0 -303.0 31.0 -299.0C37.0 -307.0 40.0 -319.0 41.0 -327.0C78.0 -330.0 118.0 -330.0 137.0 -330.0C159.0 -329.0 172.0 -324.0 183.0 -313.0C201.0 -291.0 205.0 -225.0 210.0 -20.0C210.0 -13.0 210.0 0.0 210.0 0.0Z"/></g>
<g fill="black" opacity=".8" transform="translate(1500 200) scale(0.1 -0.1)"><path d="M0.0 0.0V-30.0H190.0V0.0ZM178.0 1.0V-7.0C173.0 -209.0 168.0 -278.0 156.0 -295.0C150.0 -303.0 143.0 -304.0 130.0 -305.0C116.0 -305.0 80.0 -305.0 39.0 -300.0C44.0 -308.0 47.0 -322.0 49.0 -331.0C83.0 -334.0 117.0 -333.0 136.0 -334.0C160.0 -332.0 172.0 -328.0 181.0 -315.0C200.0 -294.0 202.0 -228.0 208.0 -21.0C210.0 -13.0 209.0 1.0 209.0 1.0Z"/></g>
<g fill="red" transform="translate(1600 200) scale(0.1 -0.1)"><path d="M0.0 0.0V-117.0H127.0V0.0ZM95.0 0.0V-19.0C93.0 -204.0 92.0 -266.0 83.0 -282.0C77.0 -291.0 70.0 -294.0 60.0 -294.0C49.0 -294.0 34.0 -293.0 13.0 -291.0C29.0 -320.0 40.0 -367.0 42.0 -401.0C76.0 -401.0 107.0 -400.0 127.0 -396.0C151.0 -391.0 168.0 -382.0 185.0 -358.0C205.0 -330.0 209.0 -245.0 211.0 -43.0C211.0 -29.0 212.0 0.0 212.0 0.0Z"/></g>
<g fill="black" opacity=".8" transform="translate(1600 200) scale(0.1 -0.1)"><path d="M0.0 0.0V-123.0H130.0V0.0ZM90.0 0.0V-20.0C89.0 -205.0 88.0 -262.0 81.0 -275.0C75.0 -287.0 68.0 -289.0 58.0 -289.0C48.0 -289.0 35.0 -288.0 18.0 -287.0C34.0 -317.0 44.0 -364.0 46.0 -401.0C80.0 -401.0 110.0 -399.0 129.0 -396.0C153.0 -390.0 168.0 -382.0 187.0 -359.0C207.0 -331.0 208.0 -245.0 213.0 -43.0C212.0 -29.0 211.0 0.0 211.0 0.0Z"/></g>
<g fill="red" transform="translate(100 300) scale(0.1 -0.1)"><path d="M0 0.0V-29.0H499.0V0.0ZM489.0 0.0V-8.0C472.0 -516.0 451.0 -692.0 415.0 -732.0C404.0 -744.0 392.0 -747.0 373.0 -746.0C351.0 -746.0 292.0 -746.0 225.0 -741.0C231.0 -749.0 234.0 -761.0 235.0 -771.0C289.0 -775.0 345.0 -777.0 376.0 -776.0C406.0 -775.0 425.0 -769.0 441.0 -748.0C484.0 -699.0 499.0 -536.0 518.0 -23.0C518.0 -17.0 518.0 0.0 518.0 0.0Z"/></g>
<g fill="black" opacity=".8" transform="translate(100 300) scale(0.1 -0.1)"><path d="M0.0 0.0V-31.0H496.0V0.0ZM483.0 0.0V-9.0C469.0 -519.0 451.0 -694.0 417.0 -734.0C406.0 -746.0 394.0 -749.0 375.0 -749.0C352.0 -749.0 292.0 -749.0 224.0 -743.0C229.0 -751.0 231.0 -764.0 234.0 -776.0C290.0 -779.0 347.0 -781.0 378.0 -780.0C410.0 -779.0 429.0 -773.0 445.0 -750.0C487.0 -704.0 499.0 -540.0 514.0 -25.0C516.0 -18.0 515.0 0.0 515.0 0.0Z"/></g>
<g fill="red" transform="translate(200 300) scale(0.1 -0.1)"><path d="M0 0.0V-144.0H478.0V0.0ZM416.0 0.0V-33.0C403.0 -464.0 386.0 -643.0 354.0 -679.0C342.0 -694.0 331.0 -699.0 312.0 -699.0C287.0 -699.0 241.0 -699.0 189.0 -694.0C216.0 -738.0 236.0 -806.0 238.0 -848.0C293.0 -850.0 348.0 -850.0 386.0 -842.0C429.0 -834.0 458.0 -819.0 489.0 -774.0C532.0 -716.0 548.0 -540.0 565.0 -71.0C566.0 -52.0 567.0 0.0 567.0 0.0Z"/></g>
<g fill="black" opacity=".8" transform="translate(200 300) scale(0.1 -0.1)"><path d="M0.0 0.0V-149.0H471.0V0.0ZM407.0 0.0V-34.0C398.0 -463.0 386.0 -640.0 356.0 -673.0C346.0 -689.0 334.0 -693.0 316.0 -693.0C291.0 -694.0 247.0 -693.0 196.0 -689.0C223.0 -734.0 242.0 -803.0 243.0 -848.0C299.0 -849.0 355.0 -848.0 393.0 -842.0C435.0 -832.0 463.0 -818.0 495.0 -773.0C536.0 -716.0 546.0 -540.0 560.0 -71.0C560.0 -52.0 560.0 0.0 560.0 0.0Z"/></g>
<g fill="red" transform="translate(300 300) scale(0.1 -0.1)"><path d="M0.0 0.0V-29.0H363.0V0.0ZM354.0 0.0V-9.0C340.0 -441.0 324.0 -590.0 297.0 -623.0C288.0 -635.0 278.0 -637.0 262.0 -637.0C244.0 -637.0 196.0 -637.0 144.0 -632.0C150.0 -640.0 152.0 -653.0 153.0 -662.0C196.0 -665.0 241.0 -666.0 266.0 -665.0C292.0 -665.0 309.0 -659.0 323.0 -641.0C356.0 -600.0 369.0 -463.0 383.0 -22.0C383.0 -17.0 383.0 0.0 383.0 0.0Z"/></g>
<g fill="black" opacity=".8" transform="translate(300 300) scale(0.1 -0.1)"><path d="M0.0 0.0V-28.0H359.0V0.0ZM348.0 -0.0V-9.0C338.0 -443.0 325.0 -590.0 300.0 -623.0C290.0 -634.0 281.0 -637.0 266.0 -637.0C247.0 -637.0 200.0 -637.0 147.0 -632.0C152.0 -639.0 154.0 -652.0 157.0 -662.0C199.0 -665.0 244.0 -665.0 269.0 -665.0C296.0 -664.0 312.0 -659.0 325.0 -639.0C358.0 -601.0 365.0 -464.0 376.0 -23.0C378.0 -17.0 377.0 -0.0 377.0 -0.0Z"/></g>
<g fill="red" transform="translate(400 300) scale(0.1 -0.1)"><path d="M0.0 0.0V-127.0H293.0V0.0ZM246.0 0.0V-30.0C239.0 -416.0 231.0 -550.0 212.0 -579.0C203.0 -593.0 194.0 -598.0 181.0 -598.0C164.0 -598.0 139.0 -597.0 110.0 -594.0C131.0 -632.0 145.0 -690.0 147.0 -729.0C189.0 -730.0 226.0 -729.0 254.0 -723.0C285.0 -715.0 306.0 -703.0 329.0 -668.0C359.0 -623.0 366.0 -469.0 376.0 -59.0C376.0 -43.0 377.0 0.0 377.0 0.0Z"/></g>
<g fill="black" opacity=".8" transform="translate(400 300) scale(0.1 -0.1)"><path d="M0.0 0.0V-131.0H298.0V0.0ZM248.0 -0.0V-30.0C243.0 -408.0 237.0 -552.0 215.0 -579.0C207.0 -594.0 198.0 -597.0 184.0 -598.0C165.0 -599.0 136.0 -597.0 101.0 -595.0C122.0 -632.0 137.0 -691.0 137.0 -730.0C181.0 -731.0 223.0 -730.0 252.0 -724.0C285.0 -715.0 306.0 -704.0 332.0 -667.0C363.0 -620.0 368.0 -468.0 377.0 -60.0C377.0 -44.0 376.0 -0.0 376.0 -0.0Z"/></g>
<g fill="red" transform="translate(500 300) scale(0.1 -0.1)"><path d="M0.0 0.0V-29.0H266.0V0.0ZM251.0 0.0V-5.0C243.0 -143.0 236.0 -193.0 222.0 -206.0C217.0 -213.0 206.0 -214.0 192.0 -214.0C177.0 -214.0 132.0 -213.0 84.0 -209.0C89.0 -217.0 92.0 -229.0 93.0 -238.0C137.0 -241.0 179.0 -242.0 199.0 -241.0C223.0 -241.0 235.0 -236.0 246.0 -226.0C264.0 -207.0 271.0 -156.0 279.0 -18.0C280.0 -11.0 280.0 0.0 280.0 0.0Z"/></g>
<g fill="black" opacity=".8" transform="translate(500 300) scale(0.1 -0.1)"><path d="M0.0 0.0V-26.0H263.0V0.0ZM253.0 1.0V-4.0C244.0 -141.0 237.0 -191.0 221.0 -206.0C216.0 -212.0 207.0 -213.0 192.0 -214.0C178.0 -214.0 134.0 -214.0 87.0 -208.0C91.0 -216.0 94.0 -227.0 96.0 -235.0C138.0 -238.0 178.0 -239.0 199.0 -239.0C223.0 -238.0 234.0 -234.0 243.0 -223.0C264.0 -206.0 270.0 -153.0 279.0 -16.0C282.0 -9.0 281.0 1.0 281.0 1.0Z"/></g>
<g fill="red" transform="translate(600 300) scale(0.1 -0.1)"><path d="M0.0 0.0V-111.0H244.0V0.0ZM203.0 0.0V-16.0C200.0 -118.0 197.0 -156.0 188.0 -168.0C181.0 -176.0 174.0 -177.0 163.0 -177.0C150.0 -177.0 128.0 -177.0 101.0 -174.0C117.0 -202.0 129.0 -247.0 131.0 -280.0C173.0 -281.0 212.0 -280.0 236.0 -276.0C261.0 -273.0 285.0 -265.0 303.0 -242.0C324.0 -217.0 331.0 -160.0 335.0 -41.0C336.0 -27.0 337.0 0.0 337.0 0.0Z"/></g>
<g fill="black" opacity=".8" transform="translate(600 300) scale(0.1 -0.1)"><path d="M0.0 0.0V-113.0H259.0V0.0ZM209.0 1.0V-15.0C205.0 -114.0 199.0 -155.0 189.0 -165.0C182.0 -175.0 174.0 -175.0 162.0 -175.0C149.0 -175.0 125.0 -175.0 98.0 -173.0C115.0 -203.0 128.0 -250.0 130.0 -286.0C170.0 -286.0 207.0 -284.0 229.0 -282.0C256.0 -277.0 276.0 -270.0 297.0 -247.0C320.0 -221.0 327.0 -159.0 335.0 -39.0C335.0 -26.0 334.0 1.0 334.0 1.0Z"/></g>
<g fill="red" transform="translate(700 300) scale(0.1 -0.1)"><path d="M0.0 0.0V-29.0H363.0V0.0ZM352.0 0.0V-8.0C340.0 -431.0 327.0 -577.0 300.0 -608.0C292.0 -621.0 282.0 -622.0 267.0 -622.0C250.0 -622.0 204.0 -622.0 155.0 -618.0C160.0 -626.0 163.0 -639.0 164.0 -647.0C205.0 -650.0 247.0 -651.0 271.0 -650.0C296.0 -650.0 313.0 -644.0 327.0 -626.0C358.0 -587.0 369.0 -454.0 381.0 -22.0C381.0 -16.0 381.0 0.0 381.0 0.0Z"/></g>
<g fill="black" opacity=".8" transform="translate(700 300) scale(0.1 -0.1)"><path d="M0.0 0.0V-29.0H364.0V0.0ZM352.0 -0.0V-9.0C341.0 -430.0 329.0 -574.0 303.0 -606.0C294.0 -617.0 285.0 -620.0 269.0 -620.0C251.0 -620.0 203.0 -620.0 149.0 -614.0C155.0 -622.0 157.0 -635.0 159.0 -646.0C202.0 -649.0 247.0 -649.0 273.0 -649.0C300.0 -648.0 316.0 -642.0 329.0 -623.0C362.0 -585.0 370.0 -451.0 381.0 -23.0C383.0 -17.0 381.0 -0.0 381.0 -0.0Z"/></g>
<g fill="red" transform="translate(800 300) scale(0.1 -0.1)"><path d="M0.0 0.0V-138.0H343.0V0.0ZM285.0 0.0V-31.0C278.0 -408.0 269.0 -539.0 250.0 -567.0C240.0 -582.0 232.0 -586.0 218.0 -586.0C201.0 -586.0 177.0 -586.0 148.0 -583.0C170.0 -623.0 185.0 -683.0 187.0 -725.0C230.0 -725.0 269.0 -725.0 297.0 -718.0C330.0 -710.0 351.0 -698.0 375.0 -661.0C405.0 -616.0 414.0 -463.0 424.0 -62.0C424.0 -45.0 425.0 0.0 425.0 0.0Z"/></g>
<g fill="black" opacity=".8" transform="translate(800 300) scale(0.1 -0.1)"><path d="M0.0 0.0V-134.0H343.0V0.0ZM291.0 -0.0V-30.0C285.0 -403.0 277.0 -546.0 255.0 -573.0C246.0 -589.0 238.0 -592.0 223.0 -592.0C204.0 -593.0 174.0 -592.0 137.0 -589.0C159.0 -626.0 174.0 -684.0 175.0 -723.0C219.0 -724.0 263.0 -723.0 293.0 -717.0C327.0 -709.0 349.0 -697.0 375.0 -660.0C407.0 -613.0 414.0 -464.0 425.0 -60.0C424.0 -44.0 424.0 -0.0 424.0 -0.0Z"/></g>
<g fill="red" transform="translate(900 300) scale(0.1 -0.1)"><path d="M0.0 0.0V-29.0H187.0V0.0ZM176.0 0.0V-8.0C170.0 -255.0 163.0 -340.0 149.0 -359.0C142.0 -367.0 136.0 -368.0 122.0 -368.0C109.0 -368.0 70.0 -368.0 29.0 -364.0C34.0 -373.0 37.0 -385.0 38.0 -394.0C72.0 -397.0 109.0 -397.0 128.0 -397.0C150.0 -396.0 163.0 -391.0 174.0 -377.0C193.0 -353.0 198.0 -274.0 205.0 -19.0C205.0 -14.0 205.0 0.0 205.0 0.0Z"/></g>
<g fill="black" opacity=".8" transform="translate(900 300) scale(0.1 -0.1)"><path d="M0.0 0.0V-25.0H191.0V0.0ZM183.0 1.0V-6.0C176.0 -251.0 167.0 -336.0 150.0 -357.0C143.0 -364.0 136.0 -366.0 122.0 -366.0C108.0 -366.0 68.0 -366.0 23.0 -362.0C27.0 -369.0 30.0 -380.0 32.0 -388.0C70.0 -391.0 107.0 -391.0 127.0 -391.0C150.0 -390.0 162.0 -386.0 171.0 -372.0C195.0 -348.0 200.0 -267.0 209.0 -18.0C210.0 -12.0 209.0 1.0 209.0 1.0Z"/></g>
<g fill="red" transform="translate(1000 300) scale(0.1 -0.1)"><path d="M0.0 0.0V-117.0H127.0V0.0ZM83.0 0.0V-20.0C81.0 -216.0 80.0 -280.0 71.0 -296.0C65.0 -306.0 57.0 -309.0 47.0 -309.0C37.0 -309.0 24.0 -308.0 5.0 -306.0C23.0 -341.0 34.0 -395.0 36.0 -437.0C70.0 -437.0 98.0 -435.0 118.0 -430.0C142.0 -424.0 157.0 -414.0 175.0 -389.0C196.0 -360.0 199.0 -261.0 202.0 -47.0C202.0 -31.0 202.0 0.0 202.0 0.0Z"/></g>
<g fill="black" opacity=".8" transform="translate(1000 300) scale(0.1 -0.1)"><path d="M0.0 0.0V-110.0H137.0V0.0ZM90.0 1.0V-20.0C87.0 -219.0 83.0 -291.0 71.0 -305.0C65.0 -317.0 58.0 -318.0 47.0 -319.0C36.0 -319.0 17.0 -318.0 -5.0 -316.0C12.0 -347.0 24.0 -397.0 25.0 -433.0C60.0 -433.0 91.0 -431.0 112.0 -428.0C137.0 -421.0 152.0 -413.0 173.0 -388.0C195.0 -358.0 198.0 -263.0 205.0 -43.0C204.0 -30.0 203.0 1.0 203.0 1.0Z"/></g>
<g fill="red" transform="translate(1100 300) scale(0.1 -0.1)"><path d="M0.0 0.0V-29.0H186.0V0.0ZM175.0 0.0V-8.0C169.0 -255.0 163.0 -340.0 149.0 -359.0C142.0 -367.0 135.0 -368.0 121.0 -368.0C109.0 -368.0 69.0 -368.0 28.0 -364.0C33.0 -373.0 36.0 -385.0 37.0 -394.0C71.0 -397.0 109.0 -397.0 127.0 -397.0C150.0 -396.0 163.0 -391.0 173.0 -377.0C193.0 -353.0 198.0 -274.0 205.0 -19.0C205.0 -14.0 205.0 0.0 205.0 0.0Z"/></g>
<g fill="black" opacity=".8" transform="translate(1100 300) scale(0.1 -0.1)"><path d="M0.0 0.0V-27.0H189.0V0.0ZM180.0 1.0V-6.0C173.0 -253.0 165.0 -337.0 149.0 -358.0C142.0 -366.0 135.0 -367.0 121.0 -367.0C107.0 -367.0 68.0 -368.0 25.0 -363.0C29.0 -370.0 32.0 -382.0 34.0 -391.0C70.0 -394.0 107.0 -394.0 127.0 -394.0C150.0 -393.0 162.0 -388.0 172.0 -374.0C194.0 -350.0 198.0 -270.0 206.0 -19.0C208.0 -12.0 207.0 1.0 207.0 1.0Z"/></g>
<g fill="red" transform="translate(1200 300) scale(0.1 -0.1)"><path d="M0.0 0.0V-117.0H127.0V0.0ZM84.0 0.0V-21.0C82.0 -229.0 80.0 -298.0 71.0 -314.0C65.0 -325.0 58.0 -328.0 48.0 -327.0C37.0 -327.0 23.0 -327.0 3.0 -325.0C20.0 -356.0 31.0 -407.0 33.0 -444.0C68.0 -444.0 99.0 -443.0 120.0 -438.0C144.0 -432.0 161.0 -423.0 179.0 -397.0C200.0 -367.0 203.0 -272.0 206.0 -46.0C206.0 -31.0 207.0 0.0 207.0 0.0Z"/></g>
<g fill="black" opacity=".8" transform="translate(1200 300) scale(0.1 -0.1)"><path d="M0.0 0.0V-115.0H134.0V0.0ZM89.0 1.0V-20.0C86.0 -229.0 83.0 -301.0 72.0 -316.0C66.0 -328.0 59.0 -330.0 49.0 -330.0C37.0 -330.0 21.0 -329.0 -0.0 -328.0C17.0 -359.0 28.0 -408.0 29.0 -444.0C64.0 -445.0 95.0 -443.0 115.0 -440.0C140.0 -433.0 156.0 -425.0 176.0 -399.0C197.0 -369.0 200.0 -273.0 206.0 -44.0C206.0 -31.0 205.0 1.0 205.0 1.0Z"/></g>
<g fill="red" transform="translate(1300 300) scale(0.1 -0.1)"><path d="M0.0 0.0V-30.0H186.0V0.0ZM176.0 0.0V-8.0C171.0 -225.0 166.0 -300.0 153.0 -316.0C149.0 -325.0 142.0 -325.0 130.0 -325.0C119.0 -325.0 87.0 -325.0 51.0 -322.0C56.0 -330.0 59.0 -342.0 60.0 -350.0C89.0 -353.0 119.0 -353.0 136.0 -352.0C156.0 -352.0 169.0 -347.0 178.0 -334.0C196.0 -312.0 199.0 -243.0 205.0 -20.0C205.0 -13.0 205.0 0.0 205.0 0.0Z"/></g>
<g fill="black" opacity=".8" transform="translate(1300 300) scale(0.1 -0.1)"><path d="M0.0 0.0V-26.0H188.0V0.0ZM179.0 0.0V-7.0C173.0 -225.0 168.0 -300.0 155.0 -318.0C150.0 -325.0 143.0 -327.0 131.0 -327.0C118.0 -327.0 85.0 -327.0 46.0 -323.0C51.0 -330.0 54.0 -342.0 56.0 -350.0C87.0 -352.0 118.0 -352.0 136.0 -352.0C158.0 -351.0 169.0 -347.0 177.0 -334.0C196.0 -313.0 199.0 -243.0 205.0 -19.0C207.0 -13.0 205.0 0.0 205.0 0.0Z"/></g>
<g fill="red" transform="translate(1400 300) scale(0.1 -0.1)"><path d="M0.0 0.0V-114.0H127.0V0.0ZM82.0 0.0V-18.0C80.0 -213.0 78.0 -278.0 70.0 -293.0C64.0 -303.0 57.0 -305.0 48.0 -305.0C38.0 -305.0 24.0 -305.0 5.0 -302.0C19.0 -330.0 29.0 -374.0 31.0 -406.0C62.0 -407.0 90.0 -406.0 109.0 -401.0C132.0 -397.0 148.0 -388.0 164.0 -366.0C183.0 -338.0 187.0 -252.0 189.0 -41.0C189.0 -28.0 190.0 0.0 190.0 0.0Z"/></g>
<g fill="black" opacity=".8" transform="translate(1400 300) scale(0.1 -0.1)"><path d="M0.0 0.0V-110.0H117.0V0.0ZM81.0 -1.0V-20.0C79.0 -214.0 79.0 -277.0 70.0 -291.0C65.0 -302.0 59.0 -303.0 50.0 -304.0C40.0 -304.0 27.0 -303.0 9.0 -302.0C24.0 -330.0 33.0 -374.0 34.0 -407.0C66.0 -408.0 93.0 -405.0 111.0 -403.0C134.0 -396.0 147.0 -389.0 165.0 -367.0C184.0 -339.0 184.0 -252.0 189.0 -41.0C188.0 -29.0 187.0 -1.0 187.0 -1.0Z"/></g>
<g fill="red" transform="translate(1500 300) scale(0.1 -0.1)"><path d="M0.0 0.0V-29.0H186.0V0.0ZM182.0 0.0V-7.0C177.0 -223.0 171.0 -299.0 158.0 -316.0C152.0 -323.0 144.0 -324.0 130.0 -324.0C116.0 -324.0 74.0 -324.0 30.0 -320.0C35.0 -328.0 38.0 -341.0 39.0 -349.0C77.0 -352.0 116.0 -353.0 136.0 -352.0C160.0 -352.0 172.0 -347.0 182.0 -334.0C201.0 -312.0 206.0 -241.0 212.0 -20.0C212.0 -13.0 212.0 0.0 212.0 0.0Z"/></g>
<g fill="black" opacity=".8" transform="translate(1500 300) scale(0.1 -0.1)"><path d="M0.0 0.0V-30.0H192.0V0.0ZM182.0 0.0V-8.0C176.0 -224.0 169.0 -299.0 156.0 -318.0C150.0 -325.0 142.0 -327.0 128.0 -327.0C114.0 -327.0 75.0 -327.0 31.0 -323.0C36.0 -331.0 39.0 -344.0 41.0 -353.0C78.0 -355.0 114.0 -355.0 134.0 -355.0C158.0 -354.0 171.0 -350.0 180.0 -336.0C201.0 -314.0 204.0 -243.0 211.0 -21.0C213.0 -14.0 212.0 0.0 212.0 0.0Z"/></g>
<g fill="red" transform="translate(1600 300) scale(0.1 -0.1)"><path d="M0.0 0.0V-117.0H127.0V0.0ZM73.0 0.0V-18.0C71.0 -204.0 70.0 -266.0 60.0 -282.0C54.0 -291.0 46.0 -294.0 35.0 -294.0C23.0 -294.0 5.0 -293.0 -18.0 -291.0C0.0 -324.0 12.0 -377.0 14.0 -417.0C50.0 -417.0 81.0 -416.0 102.0 -411.0C127.0 -405.0 143.0 -396.0 161.0 -371.0C182.0 -343.0 185.0 -249.0 188.0 -45.0C188.0 -30.0 188.0 0.0 188.0 0.0Z"/></g>
<g fill="black" opacity=".8" transform="translate(1600 300) scale(0.1 -0.1)"><path d="M0.0 0.0V-123.0H112.0V0.0ZM68.0 -1.0V-21.0C67.0 -207.0 66.0 -266.0 58.0 -280.0C52.0 -291.0 44.0 -293.0 34.0 -293.0C24.0 -294.0 9.0 -292.0 -10.0 -291.0C7.0 -323.0 18.0 -373.0 19.0 -411.0C55.0 -412.0 86.0 -409.0 106.0 -406.0C130.0 -400.0 146.0 -391.0 166.0 -368.0C185.0 -339.0 187.0 -249.0 191.0 -45.0C191.0 -31.0 189.0 -1.0 189.0 -1.0Z"/></g>
<g fill="red" transform="translate(100 400) scale(0.1 -0.1)"><path d="M0.0 0.0V-29.0H445.0V0.0ZM433.0 0.0V-6.0C421.0 -221.0 410.0 -300.0 390.0 -319.0C383.0 -327.0 374.0 -328.0 356.0 -328.0C340.0 -328.0 290.0 -328.0 237.0 -323.0C242.0 -331.0 245.0 -344.0 246.0 -351.0C293.0 -355.0 340.0 -356.0 362.0 -355.0C388.0 -354.0 403.0 -350.0 415.0 -337.0C440.0 -312.0 452.0 -238.0 463.0 -19.0C464.0 -12.0 464.0 0.0 464.0 0.0Z"/></g>
<g fill="black" opacity=".8" transform="translate(100 400) scale(0.1 -0.1)"><path d="M0.0 0.0V-31.0H443.0V0.0ZM429.0 -1.0V-7.0C419.0 -223.0 410.0 -300.0 390.0 -319.0C384.0 -328.0 374.0 -329.0 358.0 -330.0C341.0 -330.0 291.0 -329.0 237.0 -323.0C242.0 -332.0 245.0 -346.0 247.0 -355.0C294.0 -359.0 340.0 -359.0 364.0 -359.0C392.0 -357.0 405.0 -353.0 417.0 -339.0C442.0 -315.0 450.0 -238.0 459.0 -22.0C462.0 -14.0 462.0 -1.0 462.0 -1.0Z"/></g>
<g fill="red" transform="translate(200 400) scale(0.1 -0.1)"><path d="M0.0 0.0V-126.0H446.0V0.0ZM395.0 0.0V-19.0C387.0 -209.0 377.0 -282.0 361.0 -300.0C350.0 -310.0 340.0 -313.0 326.0 -313.0C308.0 -313.0 274.0 -312.0 238.0 -309.0C260.0 -343.0 275.0 -396.0 278.0 -435.0C326.0 -435.0 371.0 -435.0 399.0 -430.0C433.0 -425.0 458.0 -415.0 481.0 -388.0C511.0 -354.0 523.0 -262.0 534.0 -50.0C535.0 -34.0 536.0 0.0 536.0 0.0Z"/></g>
<g fill="black" opacity=".8" transform="translate(200 400) scale(0.1 -0.1)"><path d="M0.0 0.0V-134.0H439.0V0.0ZM391.0 -1.0V-20.0C386.0 -203.0 380.0 -283.0 363.0 -299.0C354.0 -311.0 345.0 -312.0 330.0 -311.0C312.0 -312.0 278.0 -312.0 239.0 -309.0C259.0 -342.0 274.0 -394.0 276.0 -432.0C324.0 -433.0 373.0 -432.0 402.0 -428.0C436.0 -423.0 461.0 -413.0 486.0 -384.0C515.0 -349.0 524.0 -261.0 533.0 -51.0C533.0 -35.0 532.0 -1.0 532.0 -1.0Z"/></g>
<g fill="red" transform="translate(300 400) scale(0.1 -0.1)"><path d="M0.0 0.0V-30.0H860.0V0.0ZM765.0 -213.0V-220.0C746.0 -555.0 725.0 -677.0 691.0 -710.0C681.0 -720.0 668.0 -721.0 645.0 -721.0C621.0 -721.0 550.0 -721.0 473.0 -714.0C479.0 -721.0 482.0 -733.0 483.0 -743.0C551.0 -748.0 618.0 -750.0 651.0 -749.0C683.0 -748.0 700.0 -743.0 716.0 -726.0C754.0 -688.0 773.0 -569.0 794.0 -233.0C795.0 -228.0 796.0 -213.0 796.0 -213.0Z"/></g>
<g fill="black" opacity=".8" transform="translate(300 400) scale(0.1 -0.1)"><path d="M0.0 0.0V-30.0H860.0V0.0ZM765.0 -213.0V-219.0C746.0 -555.0 725.0 -676.0 691.0 -710.0C681.0 -720.0 668.0 -721.0 645.0 -721.0C620.0 -721.0 550.0 -721.0 473.0 -714.0C479.0 -721.0 482.0 -734.0 483.0 -743.0C551.0 -748.0 617.0 -750.0 651.0 -749.0C683.0 -747.0 700.0 -743.0 716.0 -726.0C754.0 -688.0 773.0 -569.0 794.0 -233.0C796.0 -228.0 797.0 -213.0 797.0 -213.0Z"/></g>
<g fill="red" transform="translate(400 400) scale(0.1 -0.1)"><path d="M0.0 0.0V-139.0H905.0V0.0ZM712.0 -245.0V-270.0C703.0 -538.0 691.0 -660.0 665.0 -686.0C652.0 -697.0 640.0 -700.0 621.0 -700.0C592.0 -700.0 534.0 -700.0 475.0 -695.0C502.0 -736.0 524.0 -800.0 526.0 -843.0C588.0 -845.0 651.0 -845.0 690.0 -839.0C735.0 -833.0 769.0 -821.0 801.0 -781.0C839.0 -735.0 853.0 -612.0 865.0 -308.0C866.0 -289.0 867.0 -245.0 867.0 -245.0Z"/></g>
<g fill="black" opacity=".8" transform="translate(400 400) scale(0.1 -0.1)"><path d="M0.0 0.0V-139.0H906.0V0.0ZM712.0 -245.0V-270.0C703.0 -538.0 691.0 -660.0 665.0 -686.0C652.0 -697.0 639.0 -700.0 621.0 -700.0C592.0 -700.0 534.0 -700.0 475.0 -695.0C503.0 -736.0 525.0 -800.0 525.0 -843.0C588.0 -845.0 651.0 -845.0 690.0 -839.0C734.0 -833.0 768.0 -821.0 801.0 -782.0C839.0 -736.0 852.0 -612.0 865.0 -308.0C866.0 -289.0 867.0 -245.0 867.0 -245.0Z"/></g>
<g fill="red" transform="translate(500 400) scale(0.1 -0.1)"><path d="M0.0 0.0V-29.0H129.0V0.0ZM121.0 0.0V-7.0C116.0 -214.0 111.0 -286.0 102.0 -300.0C98.0 -309.0 92.0 -310.0 85.0 -309.0C77.0 -309.0 58.0 -309.0 37.0 -307.0C42.0 -315.0 44.0 -328.0 44.0 -336.0C59.0 -338.0 78.0 -338.0 89.0 -338.0C106.0 -337.0 116.0 -332.0 124.0 -320.0C138.0 -300.0 143.0 -232.0 148.0 -19.0C148.0 -12.0 148.0 0.0 148.0 0.0Z"/></g>
<g fill="black" opacity=".8" transform="translate(500 400) scale(0.1 -0.1)"><path d="M0.0 0.0V-26.0H134.0V0.0ZM122.0 -0.0V-6.0C118.0 -216.0 116.0 -287.0 106.0 -301.0C102.0 -310.0 97.0 -311.0 87.0 -311.0C77.0 -311.0 52.0 -311.0 23.0 -308.0C27.0 -315.0 30.0 -328.0 31.0 -335.0C54.0 -338.0 78.0 -337.0 92.0 -338.0C110.0 -336.0 121.0 -332.0 128.0 -320.0C144.0 -300.0 145.0 -235.0 147.0 -19.0C150.0 -12.0 149.0 -0.0 149.0 -0.0Z"/></g>
<g fill="red" transform="translate(600 400) scale(0.1 -0.1)"><path d="M0.0 0.0V-109.0H135.0V0.0ZM96.0 0.0V-18.0C92.0 -229.0 87.0 -298.0 79.0 -315.0C74.0 -325.0 69.0 -328.0 61.0 -327.0C53.0 -327.0 47.0 -327.0 36.0 -325.0C48.0 -351.0 56.0 -393.0 58.0 -423.0C80.0 -423.0 102.0 -422.0 117.0 -418.0C136.0 -414.0 150.0 -405.0 164.0 -384.0C183.0 -357.0 188.0 -266.0 194.0 -40.0C194.0 -27.0 195.0 0.0 195.0 0.0Z"/></g>
<g fill="black" opacity=".8" transform="translate(600 400) scale(0.1 -0.1)"><path d="M0.0 0.0V-105.0H120.0V0.0ZM91.0 -0.0V-19.0C89.0 -238.0 89.0 -303.0 83.0 -317.0C78.0 -328.0 73.0 -330.0 65.0 -330.0C57.0 -330.0 50.0 -330.0 40.0 -329.0C52.0 -352.0 59.0 -389.0 60.0 -417.0C85.0 -417.0 108.0 -415.0 123.0 -413.0C141.0 -408.0 154.0 -401.0 169.0 -380.0C185.0 -354.0 186.0 -270.0 190.0 -38.0C190.0 -26.0 189.0 -0.0 189.0 -0.0Z"/></g>
<g fill="red" transform="translate(700 400) scale(0.1 -0.1)"><path d="M0.0 0.0V-29.0H204.0V0.0ZM191.0 0.0V-7.0C186.0 -208.0 181.0 -278.0 168.0 -294.0C163.0 -302.0 155.0 -303.0 141.0 -303.0C127.0 -303.0 85.0 -303.0 41.0 -299.0C47.0 -307.0 50.0 -319.0 51.0 -327.0C88.0 -330.0 128.0 -330.0 147.0 -330.0C169.0 -329.0 182.0 -324.0 193.0 -313.0C211.0 -291.0 214.0 -225.0 220.0 -20.0C220.0 -13.0 220.0 0.0 220.0 0.0Z"/></g>
<g fill="black" opacity=".8" transform="translate(700 400) scale(0.1 -0.1)"><path d="M0.0 0.0V-31.0H201.0V0.0ZM191.0 1.0V-7.0C185.0 -209.0 179.0 -279.0 166.0 -296.0C160.0 -304.0 153.0 -306.0 139.0 -306.0C125.0 -306.0 86.0 -306.0 42.0 -301.0C48.0 -310.0 51.0 -323.0 53.0 -332.0C90.0 -335.0 126.0 -335.0 145.0 -335.0C170.0 -334.0 182.0 -329.0 191.0 -316.0C211.0 -295.0 214.0 -228.0 221.0 -21.0C223.0 -13.0 222.0 1.0 222.0 1.0Z"/></g>
<g fill="red" transform="translate(800 400) scale(0.1 -0.1)"><path d="M0.0 0.0V-117.0H129.0V0.0ZM92.0 0.0V-18.0C90.0 -197.0 89.0 -259.0 79.0 -275.0C72.0 -284.0 64.0 -286.0 53.0 -286.0C40.0 -286.0 16.0 -286.0 -11.0 -283.0C6.0 -313.0 18.0 -360.0 21.0 -395.0C60.0 -396.0 96.0 -395.0 119.0 -391.0C147.0 -386.0 166.0 -377.0 185.0 -352.0C205.0 -324.0 210.0 -240.0 213.0 -44.0C213.0 -30.0 213.0 0.0 213.0 0.0Z"/></g>
<g fill="black" opacity=".8" transform="translate(800 400) scale(0.1 -0.1)"><path d="M0.0 0.0V-125.0H126.0V0.0ZM84.0 0.0V-19.0C83.0 -197.0 82.0 -253.0 74.0 -265.0C69.0 -277.0 61.0 -279.0 51.0 -279.0C40.0 -279.0 26.0 -278.0 7.0 -277.0C24.0 -308.0 35.0 -358.0 36.0 -396.0C72.0 -397.0 104.0 -394.0 124.0 -392.0C148.0 -385.0 164.0 -377.0 184.0 -353.0C204.0 -325.0 205.0 -238.0 210.0 -43.0C209.0 -29.0 208.0 0.0 208.0 0.0Z"/></g>
<g fill="red" transform="translate(900 400) scale(0.1 -0.1)"><path d="M0.0 0.0V-30.0H252.0V0.0ZM237.0 0.0V-9.0C232.0 -448.0 225.0 -595.0 206.0 -623.0C198.0 -636.0 192.0 -637.0 178.0 -637.0C162.0 -637.0 123.0 -637.0 80.0 -634.0C86.0 -642.0 88.0 -655.0 89.0 -664.0C123.0 -667.0 160.0 -667.0 182.0 -667.0C204.0 -666.0 220.0 -660.0 233.0 -641.0C257.0 -604.0 261.0 -475.0 266.0 -23.0C266.0 -17.0 266.0 0.0 266.0 0.0Z"/></g>
<g fill="black" opacity=".8" transform="translate(900 400) scale(0.1 -0.1)"><path d="M0.0 0.0V-27.0H252.0V0.0ZM239.0 0.0V-8.0C232.0 -445.0 223.0 -591.0 203.0 -620.0C195.0 -633.0 189.0 -635.0 177.0 -635.0C162.0 -635.0 129.0 -635.0 90.0 -631.0C95.0 -638.0 97.0 -651.0 99.0 -660.0C128.0 -663.0 159.0 -663.0 179.0 -663.0C201.0 -661.0 216.0 -656.0 227.0 -637.0C254.0 -601.0 259.0 -469.0 266.0 -22.0C267.0 -16.0 266.0 0.0 266.0 0.0Z"/></g>
<g fill="red" transform="translate(1000 400) scale(0.1 -0.1)"><path d="M0.0 0.0V-127.0H229.0V0.0ZM197.0 0.0V-30.0C195.0 -459.0 195.0 -595.0 182.0 -623.0C175.0 -638.0 169.0 -643.0 158.0 -642.0C145.0 -643.0 131.0 -642.0 112.0 -640.0C128.0 -670.0 139.0 -718.0 140.0 -749.0C173.0 -749.0 200.0 -749.0 223.0 -743.0C248.0 -736.0 266.0 -725.0 283.0 -692.0C304.0 -650.0 306.0 -504.0 308.0 -55.0C309.0 -40.0 309.0 0.0 309.0 0.0Z"/></g>
<g fill="black" opacity=".8" transform="translate(1000 400) scale(0.1 -0.1)"><path d="M0.0 0.0V-119.0H244.0V0.0ZM207.0 1.0V-30.0C202.0 -450.0 197.0 -598.0 180.0 -626.0C172.0 -642.0 166.0 -646.0 154.0 -645.0C140.0 -646.0 122.0 -646.0 98.0 -644.0C115.0 -675.0 126.0 -722.0 126.0 -753.0C159.0 -753.0 190.0 -753.0 214.0 -748.0C241.0 -740.0 258.0 -729.0 278.0 -696.0C305.0 -651.0 308.0 -500.0 317.0 -54.0C316.0 -40.0 316.0 1.0 316.0 1.0Z"/></g>
<g fill="red" transform="translate(1100 400) scale(0.1 -0.1)"><path d="M0.0 0.0V-30.0H327.0V0.0ZM317.0 0.0V-7.0C313.0 -245.0 307.0 -326.0 292.0 -345.0C286.0 -353.0 277.0 -354.0 266.0 -354.0C251.0 -354.0 212.0 -354.0 169.0 -350.0C174.0 -358.0 177.0 -371.0 178.0 -379.0C216.0 -382.0 252.0 -382.0 271.0 -381.0C294.0 -381.0 307.0 -376.0 317.0 -364.0C335.0 -340.0 341.0 -261.0 347.0 -20.0C347.0 -14.0 347.0 0.0 347.0 0.0Z"/></g>
<g fill="black" opacity=".8" transform="translate(1100 400) scale(0.1 -0.1)"><path d="M0.0 0.0V-27.0H331.0V0.0ZM320.0 1.0V-6.0C314.0 -241.0 307.0 -321.0 292.0 -341.0C286.0 -348.0 279.0 -351.0 266.0 -351.0C252.0 -351.0 214.0 -351.0 171.0 -346.0C176.0 -353.0 178.0 -366.0 181.0 -373.0C216.0 -376.0 251.0 -375.0 270.0 -376.0C294.0 -375.0 306.0 -371.0 314.0 -357.0C336.0 -335.0 340.0 -258.0 347.0 -19.0C349.0 -13.0 348.0 1.0 348.0 1.0Z"/></g>
<g fill="red" transform="translate(1200 400) scale(0.1 -0.1)"><path d="M0.0 0.0V-132.0H239.0V0.0ZM207.0 0.0V-20.0C207.0 -228.0 208.0 -295.0 200.0 -311.0C195.0 -321.0 188.0 -324.0 178.0 -324.0C167.0 -324.0 154.0 -323.0 135.0 -321.0C150.0 -351.0 161.0 -399.0 163.0 -434.0C197.0 -435.0 227.0 -433.0 247.0 -428.0C271.0 -423.0 287.0 -414.0 304.0 -390.0C323.0 -361.0 323.0 -268.0 323.0 -44.0C323.0 -30.0 323.0 0.0 323.0 0.0Z"/></g>
<g fill="black" opacity=".8" transform="translate(1200 400) scale(0.1 -0.1)"><path d="M0.0 0.0V-116.0H251.0V0.0ZM218.0 0.0V-19.0C216.0 -224.0 215.0 -303.0 202.0 -318.0C196.0 -329.0 189.0 -331.0 178.0 -331.0C164.0 -331.0 143.0 -330.0 115.0 -329.0C131.0 -357.0 142.0 -402.0 143.0 -436.0C181.0 -437.0 216.0 -435.0 239.0 -432.0C265.0 -426.0 281.0 -417.0 302.0 -393.0C324.0 -362.0 326.0 -270.0 330.0 -43.0C330.0 -30.0 328.0 0.0 328.0 0.0Z"/></g>
</svg>
