<?xml version="1.0" encoding="UTF-8"?>
<svg width="1700" height="1100" xmlns="http://www.w3.org/2000/svg">
<rect width="100%" height="100%" fill="white"/>
<g fill="green" transform="translate(100 100) scale(0.1 -0.1)"><path d="M0.0 -0.0C-123.0 -25.0 -362.0 -41.0 -552.0 -48.0C-547.0 -55.0 -544.0 -66.0 -544.0 -73.0C-352.0 -68.0 -115.0 -51.0 19.0 -25.0ZM-908.0 -339.0V-471.0C-908.0 -532.0 -924.0 -579.0 -1028.0 -618.0C-1020.0 -623.0 -1012.0 -631.0 -1009.0 -637.0C-901.0 -594.0 -882.0 -541.0 -882.0 -470.0V-339.0Z"/></g>
<g fill="green" transform="translate(200 100) scale(0.1 -0.1)"><path d="M0.0 0.0C-133.0 -27.0 -356.0 -35.0 -558.0 -33.0C-547.0 -58.0 -531.0 -106.0 -529.0 -133.0C-319.0 -136.0 -75.0 -124.0 108.0 -84.0ZM-937.0 -323.0V-442.0C-937.0 -501.0 -950.0 -552.0 -1058.0 -593.0C-1025.0 -615.0 -969.0 -668.0 -946.0 -698.0C-816.0 -638.0 -792.0 -545.0 -792.0 -446.0V-323.0Z"/></g>
<g fill="green" transform="translate(300 100) scale(0.1 -0.1)"><path d="M0.0 0.0C-36.0 9.0 -107.0 25.0 -158.0 40.0C-157.0 41.0 -159.0 41.0 -161.0 41.0C-111.0 27.0 -42.0 11.0 -11.0 0.0ZM-494.0 -250.0V-107.0C-494.0 -24.0 -498.0 116.0 -498.0 216.0C-498.0 215.0 -503.0 217.0 -505.0 218.0C-503.0 118.0 -500.0 -28.0 -500.0 -106.0V-250.0Z"/></g>
<g fill="green" transform="translate(400 100) scale(0.1 -0.1)"><path d="M0.0 0.0C-37.0 12.0 -108.0 38.0 -170.0 60.0C-176.0 67.0 -181.0 75.0 -185.0 83.0C-125.0 63.0 -55.0 44.0 -9.0 35.0ZM-527.0 -230.0V-65.0C-527.0 13.0 -532.0 146.0 -545.0 231.0C-546.0 227.0 -554.0 223.0 -557.0 222.0C-537.0 138.0 -532.0 -4.0 -532.0 -68.0V-230.0Z"/></g>
<g fill="green" transform="translate(500 100) scale(0.1 -0.1)"><path d="M0.0 0.0C-39.0 -23.0 -101.0 -50.0 -158.0 -72.0C-153.0 -77.0 -151.0 -83.0 -149.0 -87.0C-94.0 -68.0 -32.0 -41.0 10.0 -17.0ZM-491.0 -527.0V-800.0C-491.0 -886.0 -501.0 -985.0 -566.0 -1059.0C-560.0 -1063.0 -554.0 -1068.0 -552.0 -1073.0C-484.0 -996.0 -473.0 -889.0 -473.0 -799.0V-527.0Z"/></g>
<g fill="green" transform="translate(600 100) scale(0.1 -0.1)"><path d="M0.0 0.0C-42.0 -28.0 -96.0 -57.0 -152.0 -76.0C-141.0 -97.0 -124.0 -134.0 -119.0 -157.0C-56.0 -139.0 15.0 -113.0 83.0 -80.0ZM-501.0 -545.0V-832.0C-501.0 -912.0 -506.0 -1008.0 -562.0 -1078.0C-541.0 -1092.0 -502.0 -1134.0 -488.0 -1157.0C-415.0 -1074.0 -400.0 -929.0 -400.0 -833.0V-545.0Z"/></g>
<g fill="green" transform="translate(700 100) scale(0.1 -0.1)"><path d="M0.0 -0.0C-257.0 -62.0 -786.0 -101.0 -1201.0 -118.0C-1193.0 -132.0 -1186.0 -154.0 -1184.0 -168.0C-763.0 -153.0 -239.0 -113.0 53.0 -46.0ZM-659.0 176.0V-194.0C-659.0 -375.0 -679.0 -589.0 -833.0 -751.0C-818.0 -758.0 -798.0 -772.0 -790.0 -785.0C-631.0 -616.0 -605.0 -388.0 -605.0 -194.0V176.0Z"/></g>
<g fill="green" transform="translate(800 100) scale(0.1 -0.1)"><path d="M0.0 0.0C-290.0 -60.0 -778.0 -97.0 -1208.0 -107.0C-1187.0 -154.0 -1158.0 -242.0 -1153.0 -294.0C-713.0 -287.0 -197.0 -252.0 181.0 -175.0ZM-644.0 187.0V-217.0C-644.0 -377.0 -660.0 -557.0 -816.0 -688.0C-754.0 -722.0 -646.0 -808.0 -601.0 -857.0C-413.0 -698.0 -381.0 -437.0 -381.0 -222.0V187.0Z"/></g>
<g fill="green" transform="translate(900 100) scale(0.1 -0.1)"><path d="M0.0 0.0C-88.0 -10.0 -265.0 -9.0 -399.0 -3.0C-396.0 -10.0 -394.0 -16.0 -393.0 -22.0C-258.0 -30.0 -83.0 -30.0 14.0 -19.0ZM-960.0 76.0V-284.0C-960.0 -422.0 -962.0 -617.0 -994.0 -760.0C-988.0 -762.0 -978.0 -766.0 -974.0 -770.0C-946.0 -625.0 -940.0 -419.0 -940.0 -283.0V76.0Z"/></g>
<g fill="green" transform="translate(1000 100) scale(0.1 -0.1)"><path d="M0.0 0.0C-100.0 -16.0 -255.0 -11.0 -400.0 2.0C-387.0 -27.0 -374.0 -74.0 -374.0 -104.0C-225.0 -121.0 -52.0 -126.0 80.0 -98.0ZM-1001.0 116.0V-227.0C-1001.0 -376.0 -998.0 -607.0 -1037.0 -765.0C-1012.0 -773.0 -961.0 -806.0 -941.0 -823.0C-898.0 -655.0 -888.0 -376.0 -888.0 -225.0V116.0Z"/></g>
<g fill="green" transform="translate(1100 100) scale(0.1 -0.1)"><path d="M0.0 -0.0C-130.0 -32.0 -372.0 -63.0 -571.0 -82.0C-566.0 -90.0 -563.0 -101.0 -562.0 -109.0C-360.0 -92.0 -119.0 -61.0 24.0 -26.0ZM-930.0 -328.0V-443.0C-930.0 -517.0 -951.0 -569.0 -1108.0 -610.0C-1099.0 -616.0 -1091.0 -627.0 -1088.0 -634.0C-925.0 -587.0 -901.0 -531.0 -901.0 -443.0V-328.0Z"/></g>
<g fill="green" transform="translate(1200 100) scale(0.1 -0.1)"><path d="M0.0 0.0C-116.0 -36.0 -320.0 -58.0 -509.0 -67.0C-495.0 -94.0 -473.0 -150.0 -468.0 -180.0C-261.0 -169.0 -24.0 -142.0 156.0 -87.0ZM-891.0 -308.0V-446.0C-891.0 -509.0 -911.0 -549.0 -1061.0 -578.0C-1021.0 -605.0 -960.0 -660.0 -933.0 -694.0C-758.0 -643.0 -730.0 -562.0 -730.0 -451.0V-308.0Z"/></g>
<g fill="green" transform="translate(1300 100) scale(0.1 -0.1)"><path d="M0.0 -0.0C-118.0 -28.0 -344.0 -46.0 -525.0 -54.0C-518.0 -64.0 -513.0 -79.0 -513.0 -88.0C-329.0 -81.0 -103.0 -62.0 28.0 -33.0ZM-886.0 -343.0V-400.0C-886.0 -477.0 -904.0 -548.0 -1030.0 -608.0C-1019.0 -614.0 -1007.0 -625.0 -1002.0 -633.0C-871.0 -568.0 -850.0 -492.0 -850.0 -399.0V-343.0Z"/></g>
<g fill="green" transform="translate(1400 100) scale(0.1 -0.1)"><path d="M0.0 0.0C-139.0 -33.0 -369.0 -46.0 -575.0 -48.0C-562.0 -81.0 -542.0 -138.0 -539.0 -172.0C-325.0 -173.0 -74.0 -157.0 113.0 -113.0ZM-960.0 -337.0V-467.0C-960.0 -528.0 -979.0 -564.0 -1109.0 -593.0C-1068.0 -622.0 -1001.0 -687.0 -972.0 -726.0C-813.0 -670.0 -786.0 -588.0 -786.0 -473.0V-337.0Z"/></g>
<g fill="green" transform="translate(1500 100) scale(0.1 -0.1)"><path d="M0.0 -0.0C-122.0 -26.0 -361.0 -45.0 -555.0 -55.0C-550.0 -60.0 -548.0 -68.0 -549.0 -74.0C-352.0 -66.0 -116.0 -46.0 20.0 -19.0ZM-908.0 -395.0V-428.0C-908.0 -501.0 -926.0 -582.0 -1029.0 -648.0C-1023.0 -651.0 -1016.0 -659.0 -1014.0 -664.0C-907.0 -595.0 -886.0 -507.0 -886.0 -427.0V-395.0Z"/></g>
<g fill="green" transform="translate(1600 100) scale(0.1 -0.1)"><path d="M0.0 0.0C-132.0 -30.0 -353.0 -40.0 -555.0 -39.0C-544.0 -62.0 -530.0 -108.0 -529.0 -135.0C-319.0 -136.0 -80.0 -122.0 99.0 -78.0ZM-929.0 -381.0V-372.0C-929.0 -449.0 -939.0 -554.0 -1046.0 -626.0C-1015.0 -642.0 -959.0 -686.0 -937.0 -710.0C-819.0 -622.0 -796.0 -490.0 -796.0 -376.0V-381.0Z"/></g>
<g fill="green" transform="translate(100 200) scale(0.1 -0.1)"><path d="M0.0 -0.0C-120.0 -28.0 -350.0 -47.0 -533.0 -56.0C-526.0 -66.0 -521.0 -81.0 -520.0 -90.0C-335.0 -83.0 -105.0 -63.0 26.0 -33.0ZM-887.0 -332.0V-526.0C-887.0 -580.0 -907.0 -603.0 -1043.0 -623.0C-1033.0 -629.0 -1022.0 -640.0 -1018.0 -648.0C-876.0 -624.0 -851.0 -593.0 -851.0 -525.0V-332.0Z"/></g>
<g fill="green" transform="translate(200 200) scale(0.1 -0.1)"><path d="M0.0 0.0C-136.0 -29.0 -366.0 -39.0 -570.0 -40.0C-556.0 -71.0 -536.0 -126.0 -533.0 -158.0C-318.0 -160.0 -64.0 -145.0 124.0 -104.0ZM-947.0 -316.0V-381.0C-947.0 -451.0 -965.0 -513.0 -1107.0 -567.0C-1069.0 -595.0 -1000.0 -663.0 -973.0 -700.0C-804.0 -621.0 -771.0 -508.0 -771.0 -387.0V-316.0Z"/></g>
<g fill="red" transform="translate(100 300) scale(0.1 -0.1)"><path d="M0.0 0.0C-99.0 -37.0 -289.0 -74.0 -450.0 -100.0C-446.0 -107.0 -441.0 -116.0 -439.0 -123.0C-275.0 -100.0 -86.0 -62.0 31.0 -22.0ZM-450.0 -100.0V-352.0C-450.0 -507.0 -466.0 -711.0 -602.0 -860.0C-595.0 -864.0 -583.0 -874.0 -579.0 -881.0C-440.0 -727.0 -421.0 -512.0 -421.0 -353.0V-100.0Z"/></g>
<g fill="black" opacity=".8" transform="translate(100 300) scale(0.1 -0.1)"><path d="M0.0 0.0C-100.0 -37.0 -290.0 -76.0 -451.0 -102.0C-444.0 -111.0 -441.0 -121.0 -438.0 -129.0C-276.0 -104.0 -86.0 -66.0 32.0 -24.0ZM-457.0 -104.0V-354.0C-457.0 -508.0 -472.0 -709.0 -594.0 -858.0C-585.0 -861.0 -573.0 -872.0 -569.0 -880.0C-444.0 -726.0 -426.0 -515.0 -426.0 -355.0V-104.0Z"/></g>
<g fill="red" transform="translate(200 300) scale(0.1 -0.1)"><path d="M0.0 0.0C-101.0 -44.0 -263.0 -84.0 -414.0 -107.0C-396.0 -138.0 -375.0 -194.0 -368.0 -228.0C-206.0 -206.0 -19.0 -168.0 128.0 -112.0ZM-414.0 -108.0V-380.0C-414.0 -522.0 -424.0 -717.0 -542.0 -846.0C-510.0 -863.0 -450.0 -911.0 -427.0 -938.0C-294.0 -793.0 -271.0 -546.0 -271.0 -381.0V-108.0Z"/></g>
<g fill="black" opacity=".8" transform="translate(200 300) scale(0.1 -0.1)"><path d="M0.0 0.0C-100.0 -44.0 -263.0 -84.0 -414.0 -107.0C-397.0 -139.0 -373.0 -198.0 -367.0 -234.0C-201.0 -212.0 -13.0 -176.0 133.0 -120.0ZM-423.0 -106.0V-376.0C-423.0 -520.0 -433.0 -716.0 -543.0 -846.0C-505.0 -864.0 -438.0 -912.0 -411.0 -941.0C-289.0 -793.0 -268.0 -550.0 -268.0 -378.0V-106.0Z"/></g>
<g fill="red" transform="translate(300 300) scale(0.1 -0.1)"><path d="M0.0 0.0C-51.0 -25.0 -148.0 -50.0 -231.0 -68.0C-226.0 -75.0 -221.0 -84.0 -219.0 -91.0C-135.0 -76.0 -36.0 -50.0 28.0 -22.0ZM-234.0 -66.0V-338.0C-234.0 -488.0 -242.0 -695.0 -332.0 -847.0C-324.0 -850.0 -312.0 -858.0 -306.0 -864.0C-217.0 -709.0 -204.0 -492.0 -204.0 -338.0V-66.0Z"/></g>
<g fill="black" opacity=".8" transform="translate(300 300) scale(0.1 -0.1)"><path d="M0.0 0.0C-52.0 -28.0 -150.0 -55.0 -235.0 -74.0C-228.0 -82.0 -224.0 -91.0 -221.0 -98.0C-136.0 -79.0 -37.0 -53.0 28.0 -22.0ZM-238.0 -68.0V-341.0C-238.0 -487.0 -247.0 -696.0 -320.0 -851.0C-312.0 -853.0 -300.0 -860.0 -295.0 -868.0C-221.0 -710.0 -209.0 -491.0 -209.0 -341.0V-68.0Z"/></g>
<g fill="red" transform="translate(400 300) scale(0.1 -0.1)"><path d="M0.0 0.0C-69.0 -32.0 -174.0 -63.0 -270.0 -81.0C-255.0 -111.0 -236.0 -159.0 -231.0 -189.0C-126.0 -174.0 -3.0 -148.0 96.0 -110.0ZM-266.0 -83.0V-336.0C-266.0 -484.0 -271.0 -701.0 -335.0 -851.0C-311.0 -865.0 -257.0 -912.0 -237.0 -937.0C-159.0 -770.0 -144.0 -501.0 -144.0 -336.0V-83.0Z"/></g>
<g fill="black" opacity=".8" transform="translate(400 300) scale(0.1 -0.1)"><path d="M0.0 0.0C-70.0 -35.0 -172.0 -67.0 -265.0 -87.0C-250.0 -118.0 -230.0 -165.0 -226.0 -199.0C-126.0 -183.0 -10.0 -156.0 82.0 -118.0ZM-270.0 -80.0V-336.0C-270.0 -484.0 -274.0 -702.0 -341.0 -850.0C-312.0 -862.0 -254.0 -905.0 -233.0 -928.0C-158.0 -765.0 -143.0 -501.0 -143.0 -338.0V-80.0Z"/></g>
<g fill="red" transform="translate(500 300) scale(0.1 -0.1)"><path d="M0.0 0.0C-71.0 -19.0 -209.0 -34.0 -318.0 -42.0C-315.0 -50.0 -310.0 -60.0 -309.0 -68.0C-196.0 -62.0 -57.0 -46.0 26.0 -23.0ZM-754.0 120.0V-183.0C-754.0 -332.0 -761.0 -534.0 -846.0 -682.0C-839.0 -685.0 -826.0 -694.0 -821.0 -700.0C-736.0 -548.0 -724.0 -335.0 -724.0 -183.0V120.0Z"/></g>
<g fill="black" opacity=".8" transform="translate(500 300) scale(0.1 -0.1)"><path d="M0.0 0.0C-73.0 -18.0 -209.0 -32.0 -319.0 -40.0C-314.0 -49.0 -311.0 -57.0 -308.0 -65.0C-197.0 -58.0 -59.0 -44.0 25.0 -23.0ZM-751.0 121.0V-183.0C-751.0 -332.0 -759.0 -534.0 -847.0 -682.0C-839.0 -684.0 -827.0 -692.0 -822.0 -698.0C-735.0 -547.0 -723.0 -336.0 -723.0 -183.0V121.0Z"/></g>
<g fill="red" transform="translate(600 300) scale(0.1 -0.1)"><path d="M0.0 0.0C-75.0 -25.0 -189.0 -38.0 -297.0 -42.0C-280.0 -76.0 -262.0 -129.0 -258.0 -163.0C-142.0 -163.0 -5.0 -151.0 100.0 -116.0ZM-764.0 152.0V-140.0C-764.0 -296.0 -770.0 -520.0 -856.0 -670.0C-823.0 -684.0 -762.0 -725.0 -737.0 -748.0C-642.0 -583.0 -626.0 -314.0 -626.0 -140.0V152.0Z"/></g>
<g fill="black" opacity=".8" transform="translate(600 300) scale(0.1 -0.1)"><path d="M0.0 0.0C-73.0 -26.0 -189.0 -39.0 -298.0 -42.0C-282.0 -75.0 -262.0 -129.0 -259.0 -164.0C-137.0 -164.0 5.0 -152.0 113.0 -113.0ZM-763.0 152.0V-141.0C-763.0 -296.0 -769.0 -522.0 -855.0 -673.0C-822.0 -687.0 -763.0 -726.0 -738.0 -748.0C-645.0 -582.0 -629.0 -311.0 -629.0 -141.0V152.0Z"/></g>
<g fill="red" transform="translate(700 300) scale(0.1 -0.1)"><path d="M0.0 0.0C-83.0 -35.0 -241.0 -72.0 -376.0 -97.0C-372.0 -104.0 -367.0 -114.0 -365.0 -121.0C-228.0 -97.0 -69.0 -60.0 30.0 -21.0ZM-376.0 -97.0V-351.0C-376.0 -506.0 -388.0 -713.0 -501.0 -866.0C-494.0 -869.0 -482.0 -879.0 -477.0 -885.0C-362.0 -728.0 -346.0 -510.0 -346.0 -352.0V-97.0Z"/></g>
<g fill="black" opacity=".8" transform="translate(700 300) scale(0.1 -0.1)"><path d="M0.0 0.0C-84.0 -35.0 -243.0 -72.0 -378.0 -97.0C-371.0 -106.0 -368.0 -115.0 -365.0 -123.0C-228.0 -99.0 -69.0 -63.0 31.0 -24.0ZM-377.0 -97.0V-351.0C-377.0 -505.0 -390.0 -713.0 -500.0 -867.0C-491.0 -870.0 -479.0 -880.0 -474.0 -887.0C-361.0 -729.0 -345.0 -512.0 -345.0 -352.0V-97.0Z"/></g>
<g fill="red" transform="translate(800 300) scale(0.1 -0.1)"><path d="M0.0 0.0C-91.0 -42.0 -229.0 -82.0 -359.0 -105.0C-342.0 -137.0 -320.0 -192.0 -314.0 -226.0C-173.0 -204.0 -13.0 -169.0 116.0 -118.0ZM-359.0 -105.0V-384.0C-359.0 -528.0 -367.0 -728.0 -468.0 -860.0C-434.0 -877.0 -369.0 -927.0 -343.0 -955.0C-227.0 -806.0 -207.0 -551.0 -207.0 -385.0V-105.0Z"/></g>
<g fill="black" opacity=".8" transform="translate(800 300) scale(0.1 -0.1)"><path d="M0.0 0.0C-89.0 -42.0 -229.0 -82.0 -359.0 -105.0C-342.0 -138.0 -319.0 -194.0 -313.0 -230.0C-170.0 -208.0 -7.0 -173.0 120.0 -121.0ZM-359.0 -104.0V-383.0C-359.0 -528.0 -368.0 -728.0 -467.0 -861.0C-431.0 -878.0 -366.0 -925.0 -340.0 -952.0C-230.0 -802.0 -211.0 -554.0 -211.0 -385.0V-104.0Z"/></g>
<g fill="red" transform="translate(900 300) scale(0.1 -0.1)"><path d="M0.0 0.0C-77.0 -27.0 -222.0 -53.0 -342.0 -71.0C-338.0 -78.0 -333.0 -89.0 -332.0 -96.0C-209.0 -80.0 -63.0 -53.0 26.0 -23.0ZM-342.0 -71.0V-201.0C-342.0 -299.0 -353.0 -408.0 -452.0 -492.0C-444.0 -497.0 -435.0 -506.0 -430.0 -513.0C-326.0 -423.0 -313.0 -310.0 -313.0 -201.0V-71.0Z"/></g>
<g fill="black" opacity=".8" transform="translate(900 300) scale(0.1 -0.1)"><path d="M0.0 0.0C-77.0 -27.0 -221.0 -54.0 -341.0 -71.0C-335.0 -80.0 -331.0 -89.0 -329.0 -97.0C-207.0 -80.0 -62.0 -54.0 27.0 -23.0ZM-339.0 -69.0V-202.0C-339.0 -296.0 -352.0 -409.0 -458.0 -493.0C-449.0 -497.0 -440.0 -506.0 -436.0 -513.0C-326.0 -424.0 -311.0 -308.0 -311.0 -203.0V-69.0Z"/></g>
<g fill="red" transform="translate(1000 300) scale(0.1 -0.1)"><path d="M0.0 0.0C-80.0 -31.0 -214.0 -58.0 -336.0 -72.0C-322.0 -99.0 -304.0 -148.0 -299.0 -177.0C-165.0 -163.0 -8.0 -137.0 112.0 -95.0ZM-336.0 -72.0V-242.0C-336.0 -327.0 -350.0 -414.0 -450.0 -475.0C-418.0 -495.0 -368.0 -540.0 -346.0 -569.0C-227.0 -488.0 -210.0 -365.0 -210.0 -245.0V-72.0Z"/></g>
<g fill="black" opacity=".8" transform="translate(1000 300) scale(0.1 -0.1)"><path d="M0.0 0.0C-81.0 -32.0 -215.0 -60.0 -336.0 -75.0C-324.0 -101.0 -305.0 -146.0 -300.0 -174.0C-168.0 -159.0 -14.0 -133.0 102.0 -93.0ZM-337.0 -71.0V-244.0C-337.0 -327.0 -350.0 -416.0 -449.0 -477.0C-417.0 -496.0 -365.0 -540.0 -343.0 -566.0C-227.0 -488.0 -209.0 -362.0 -209.0 -248.0V-71.0Z"/></g>
<g fill="red" transform="translate(1100 300) scale(0.1 -0.1)"><path d="M0.0 0.0C-63.0 -32.0 -178.0 -66.0 -274.0 -90.0C-269.0 -98.0 -264.0 -108.0 -261.0 -115.0C-166.0 -93.0 -49.0 -60.0 22.0 -25.0ZM-274.0 -90.0V-446.0C-274.0 -578.0 -282.0 -745.0 -364.0 -867.0C-357.0 -871.0 -345.0 -880.0 -340.0 -887.0C-256.0 -761.0 -244.0 -581.0 -244.0 -446.0V-90.0Z"/></g>
<g fill="black" opacity=".8" transform="translate(1100 300) scale(0.1 -0.1)"><path d="M0.0 0.0C-63.0 -30.0 -177.0 -63.0 -275.0 -87.0C-269.0 -96.0 -266.0 -104.0 -262.0 -110.0C-165.0 -88.0 -50.0 -56.0 23.0 -22.0ZM-269.0 -86.0V-446.0C-269.0 -577.0 -279.0 -744.0 -365.0 -866.0C-357.0 -869.0 -347.0 -876.0 -344.0 -884.0C-254.0 -759.0 -243.0 -583.0 -243.0 -446.0V-86.0Z"/></g>
<g fill="red" transform="translate(1200 300) scale(0.1 -0.1)"><path d="M0.0 0.0C-62.0 -35.0 -155.0 -71.0 -242.0 -93.0C-226.0 -123.0 -206.0 -172.0 -199.0 -203.0C-104.0 -183.0 8.0 -154.0 101.0 -113.0ZM-242.0 -93.0V-464.0C-242.0 -591.0 -247.0 -750.0 -317.0 -857.0C-288.0 -872.0 -233.0 -917.0 -211.0 -941.0C-127.0 -819.0 -113.0 -612.0 -113.0 -465.0V-93.0Z"/></g>
<g fill="black" opacity=".8" transform="translate(1200 300) scale(0.1 -0.1)"><path d="M0.0 0.0C-61.0 -35.0 -155.0 -73.0 -243.0 -96.0C-228.0 -124.0 -206.0 -171.0 -200.0 -201.0C-100.0 -179.0 15.0 -146.0 111.0 -104.0ZM-239.0 -94.0V-466.0C-239.0 -590.0 -245.0 -751.0 -320.0 -862.0C-290.0 -877.0 -238.0 -921.0 -218.0 -946.0C-129.0 -820.0 -114.0 -606.0 -114.0 -467.0V-94.0Z"/></g>
<g fill="red" transform="translate(1300 300) scale(0.1 -0.1)"><path d="M0.0 0.0C-91.0 -30.0 -266.0 -60.0 -412.0 -77.0C-408.0 -84.0 -403.0 -95.0 -402.0 -102.0C-252.0 -84.0 -78.0 -56.0 30.0 -22.0ZM-412.0 -77.0V-246.0C-412.0 -341.0 -429.0 -461.0 -537.0 -550.0C-530.0 -553.0 -520.0 -564.0 -516.0 -571.0C-404.0 -478.0 -382.0 -348.0 -382.0 -246.0V-77.0Z"/></g>
<g fill="black" opacity=".8" transform="translate(1300 300) scale(0.1 -0.1)"><path d="M0.0 0.0C-91.0 -30.0 -267.0 -59.0 -412.0 -77.0C-405.0 -86.0 -402.0 -95.0 -400.0 -103.0C-253.0 -85.0 -77.0 -57.0 29.0 -23.0ZM-410.0 -74.0V-247.0C-410.0 -344.0 -426.0 -457.0 -543.0 -541.0C-535.0 -544.0 -525.0 -554.0 -522.0 -561.0C-400.0 -474.0 -381.0 -353.0 -381.0 -248.0V-74.0Z"/></g>
<g fill="red" transform="translate(1400 300) scale(0.1 -0.1)"><path d="M0.0 0.0C-94.0 -35.0 -255.0 -59.0 -403.0 -70.0C-387.0 -99.0 -369.0 -152.0 -364.0 -183.0C-202.0 -174.0 -16.0 -150.0 123.0 -101.0ZM-403.0 -70.0V-180.0C-403.0 -274.0 -414.0 -402.0 -524.0 -493.0C-494.0 -510.0 -435.0 -559.0 -413.0 -584.0C-291.0 -479.0 -265.0 -307.0 -265.0 -183.0V-70.0Z"/></g>
<g fill="black" opacity=".8" transform="translate(1400 300) scale(0.1 -0.1)"><path d="M0.0 0.0C-95.0 -34.0 -257.0 -60.0 -401.0 -74.0C-388.0 -101.0 -368.0 -149.0 -364.0 -179.0C-206.0 -166.0 -24.0 -139.0 112.0 -95.0ZM-402.0 -69.0V-172.0C-402.0 -275.0 -414.0 -410.0 -527.0 -503.0C-494.0 -521.0 -435.0 -567.0 -412.0 -592.0C-287.0 -482.0 -264.0 -311.0 -264.0 -177.0V-69.0Z"/></g>
<g fill="red" transform="translate(1500 300) scale(0.1 -0.1)"><path d="M0.0 0.0C-77.0 -28.0 -222.0 -54.0 -342.0 -72.0C-337.0 -79.0 -333.0 -90.0 -332.0 -97.0C-209.0 -81.0 -63.0 -54.0 26.0 -24.0ZM-342.0 -72.0V-207.0C-342.0 -309.0 -354.0 -422.0 -464.0 -509.0C-456.0 -514.0 -446.0 -523.0 -441.0 -530.0C-327.0 -438.0 -313.0 -320.0 -313.0 -207.0V-72.0Z"/></g>
<g fill="black" opacity=".8" transform="translate(1500 300) scale(0.1 -0.1)"><path d="M0.0 0.0C-77.0 -28.0 -221.0 -54.0 -342.0 -71.0C-335.0 -80.0 -331.0 -91.0 -329.0 -99.0C-207.0 -82.0 -61.0 -57.0 29.0 -25.0ZM-345.0 -71.0V-207.0C-345.0 -306.0 -358.0 -425.0 -465.0 -516.0C-456.0 -519.0 -445.0 -529.0 -441.0 -537.0C-329.0 -442.0 -314.0 -318.0 -314.0 -208.0V-71.0Z"/></g>
<g fill="red" transform="translate(1600 300) scale(0.1 -0.1)"><path d="M0.0 0.0C-83.0 -32.0 -224.0 -59.0 -352.0 -75.0C-339.0 -101.0 -321.0 -149.0 -316.0 -177.0C-176.0 -162.0 -13.0 -135.0 111.0 -93.0ZM-353.0 -75.0V-257.0C-353.0 -349.0 -369.0 -442.0 -480.0 -508.0C-448.0 -530.0 -396.0 -575.0 -373.0 -604.0C-242.0 -519.0 -223.0 -387.0 -223.0 -260.0V-75.0Z"/></g>
<g fill="black" opacity=".8" transform="translate(1600 300) scale(0.1 -0.1)"><path d="M0.0 0.0C-85.0 -33.0 -227.0 -61.0 -352.0 -76.0C-340.0 -105.0 -320.0 -152.0 -315.0 -182.0C-178.0 -168.0 -19.0 -142.0 101.0 -102.0ZM-359.0 -75.0V-261.0C-359.0 -347.0 -373.0 -438.0 -475.0 -501.0C-441.0 -521.0 -385.0 -569.0 -361.0 -598.0C-242.0 -516.0 -222.0 -385.0 -222.0 -266.0V-75.0Z"/></g>
<g fill="red" transform="translate(100 400) scale(0.1 -0.1)"><path d="M0.0 0.0C-66.0 -24.0 -201.0 -41.0 -307.0 -50.0C-302.0 -58.0 -297.0 -69.0 -296.0 -76.0C-188.0 -68.0 -53.0 -50.0 25.0 -24.0ZM-306.0 -49.0V-231.0C-306.0 -327.0 -314.0 -457.0 -377.0 -555.0C-370.0 -558.0 -358.0 -565.0 -353.0 -571.0C-288.0 -472.0 -276.0 -331.0 -276.0 -231.0V-49.0Z"/></g>
<g fill="black" opacity=".8" transform="translate(100 400) scale(0.1 -0.1)"><path d="M0.0 0.0C-68.0 -23.0 -200.0 -42.0 -307.0 -52.0C-301.0 -60.0 -298.0 -70.0 -296.0 -76.0C-188.0 -66.0 -55.0 -48.0 23.0 -22.0ZM-301.0 -50.0V-230.0C-301.0 -328.0 -309.0 -456.0 -378.0 -553.0C-370.0 -556.0 -360.0 -563.0 -356.0 -569.0C-285.0 -470.0 -274.0 -335.0 -274.0 -230.0V-50.0Z"/></g>
<g fill="red" transform="translate(200 400) scale(0.1 -0.1)"><path d="M0.0 0.0C-88.0 -28.0 -221.0 -48.0 -336.0 -58.0C-324.0 -85.0 -310.0 -126.0 -306.0 -153.0C-190.0 -148.0 -49.0 -131.0 55.0 -102.0ZM-338.0 -58.0V-270.0C-338.0 -358.0 -343.0 -467.0 -411.0 -544.0C-383.0 -560.0 -328.0 -603.0 -308.0 -626.0C-226.0 -535.0 -211.0 -385.0 -211.0 -272.0V-58.0Z"/></g>
<g fill="black" opacity=".8" transform="translate(200 400) scale(0.1 -0.1)"><path d="M0.0 0.0C-85.0 -27.0 -219.0 -48.0 -338.0 -59.0C-327.0 -84.0 -311.0 -125.0 -308.0 -152.0C-184.0 -144.0 -37.0 -126.0 73.0 -95.0ZM-334.0 -55.0V-269.0C-334.0 -359.0 -342.0 -470.0 -409.0 -547.0C-382.0 -563.0 -332.0 -604.0 -313.0 -628.0C-232.0 -535.0 -218.0 -384.0 -218.0 -272.0V-55.0Z"/></g>
<g fill="red" transform="translate(300 400) scale(0.1 -0.1)"><path d="M0.0 0.0C-77.0 -28.0 -222.0 -54.0 -342.0 -72.0C-338.0 -79.0 -333.0 -90.0 -332.0 -97.0C-209.0 -81.0 -63.0 -54.0 26.0 -24.0ZM-342.0 -72.0V-181.0C-342.0 -263.0 -355.0 -355.0 -471.0 -422.0C-464.0 -427.0 -454.0 -437.0 -449.0 -443.0C-329.0 -371.0 -313.0 -275.0 -313.0 -181.0V-72.0Z"/></g>
<g fill="black" opacity=".8" transform="translate(300 400) scale(0.1 -0.1)"><path d="M0.0 0.0C-77.0 -27.0 -222.0 -54.0 -342.0 -72.0C-336.0 -80.0 -332.0 -90.0 -330.0 -98.0C-208.0 -80.0 -62.0 -54.0 27.0 -24.0ZM-343.0 -71.0V-175.0C-343.0 -262.0 -357.0 -362.0 -469.0 -437.0C-461.0 -441.0 -451.0 -451.0 -447.0 -458.0C-330.0 -378.0 -314.0 -275.0 -314.0 -175.0V-71.0Z"/></g>
<g fill="red" transform="translate(400 400) scale(0.1 -0.1)"><path d="M0.0 0.0C-79.0 -31.0 -214.0 -57.0 -336.0 -72.0C-323.0 -97.0 -306.0 -143.0 -301.0 -169.0C-168.0 -155.0 -13.0 -129.0 105.0 -89.0ZM-336.0 -72.0V-224.0C-336.0 -302.0 -352.0 -379.0 -462.0 -433.0C-431.0 -454.0 -381.0 -499.0 -360.0 -528.0C-229.0 -456.0 -210.0 -340.0 -210.0 -227.0V-72.0Z"/></g>
<g fill="black" opacity=".8" transform="translate(400 400) scale(0.1 -0.1)"><path d="M0.0 0.0C-80.0 -32.0 -215.0 -60.0 -336.0 -75.0C-324.0 -101.0 -305.0 -146.0 -300.0 -173.0C-167.0 -158.0 -12.0 -132.0 104.0 -92.0ZM-340.0 -72.0V-230.0C-340.0 -303.0 -355.0 -373.0 -461.0 -419.0C-428.0 -440.0 -376.0 -485.0 -353.0 -512.0C-230.0 -447.0 -211.0 -342.0 -211.0 -235.0V-72.0Z"/></g>
<g fill="red" transform="translate(500 400) scale(0.1 -0.1)"><path d="M0.0 0.0C-82.0 -35.0 -241.0 -72.0 -375.0 -97.0C-371.0 -104.0 -366.0 -114.0 -364.0 -121.0C-227.0 -97.0 -68.0 -60.0 31.0 -21.0ZM-375.0 -97.0V-352.0C-375.0 -504.0 -386.0 -712.0 -482.0 -866.0C-475.0 -869.0 -463.0 -878.0 -458.0 -885.0C-359.0 -726.0 -346.0 -508.0 -346.0 -352.0V-97.0Z"/></g>
<g fill="black" opacity=".8" transform="translate(500 400) scale(0.1 -0.1)"><path d="M0.0 0.0C-84.0 -34.0 -244.0 -67.0 -378.0 -91.0C-372.0 -99.0 -368.0 -109.0 -366.0 -116.0C-230.0 -94.0 -70.0 -61.0 29.0 -24.0ZM-376.0 -96.0V-351.0C-376.0 -504.0 -386.0 -709.0 -482.0 -862.0C-473.0 -866.0 -461.0 -875.0 -456.0 -883.0C-358.0 -725.0 -345.0 -511.0 -345.0 -351.0V-96.0Z"/></g>
<g fill="red" transform="translate(600 400) scale(0.1 -0.1)"><path d="M0.0 0.0C-92.0 -42.0 -232.0 -82.0 -364.0 -105.0C-346.0 -137.0 -325.0 -192.0 -318.0 -225.0C-176.0 -204.0 -14.0 -169.0 115.0 -117.0ZM-364.0 -105.0V-467.0C-364.0 -598.0 -370.0 -763.0 -449.0 -873.0C-414.0 -888.0 -350.0 -930.0 -324.0 -954.0C-235.0 -830.0 -221.0 -619.0 -221.0 -468.0V-105.0Z"/></g>
<g fill="black" opacity=".8" transform="translate(600 400) scale(0.1 -0.1)"><path d="M0.0 0.0C-90.0 -41.0 -230.0 -79.0 -360.0 -101.0C-345.0 -133.0 -322.0 -187.0 -316.0 -222.0C-175.0 -202.0 -14.0 -168.0 114.0 -119.0ZM-360.0 -106.0V-464.0C-360.0 -595.0 -368.0 -762.0 -453.0 -872.0C-418.0 -890.0 -358.0 -936.0 -333.0 -965.0C-233.0 -837.0 -218.0 -620.0 -218.0 -466.0V-106.0Z"/></g>
<g fill="red" transform="translate(700 400) scale(0.1 -0.1)"><path d="M0.0 0.0C-107.0 -24.0 -320.0 -41.0 -489.0 -47.0C-485.0 -55.0 -481.0 -65.0 -479.0 -73.0C-308.0 -67.0 -97.0 -51.0 26.0 -24.0ZM-690.0 126.0V-152.0C-690.0 -293.0 -698.0 -485.0 -775.0 -627.0C-768.0 -630.0 -756.0 -638.0 -750.0 -644.0C-672.0 -499.0 -661.0 -296.0 -661.0 -152.0V126.0Z"/></g>
<g fill="black" opacity=".8" transform="translate(700 400) scale(0.1 -0.1)"><path d="M0.0 0.0C-107.0 -24.0 -321.0 -39.0 -490.0 -44.0C-485.0 -53.0 -481.0 -63.0 -480.0 -71.0C-308.0 -66.0 -95.0 -51.0 27.0 -24.0ZM-689.0 125.0V-148.0C-689.0 -291.0 -697.0 -487.0 -779.0 -632.0C-771.0 -634.0 -758.0 -642.0 -754.0 -649.0C-672.0 -501.0 -659.0 -296.0 -659.0 -148.0V125.0Z"/></g>
<g fill="red" transform="translate(800 400) scale(0.1 -0.1)"><path d="M0.0 0.0C-117.0 -33.0 -312.0 -47.0 -491.0 -48.0C-475.0 -80.0 -457.0 -138.0 -453.0 -173.0C-264.0 -175.0 -44.0 -160.0 120.0 -111.0ZM-708.0 148.0V-119.0C-708.0 -265.0 -713.0 -477.0 -787.0 -620.0C-754.0 -634.0 -691.0 -675.0 -665.0 -698.0C-582.0 -540.0 -568.0 -284.0 -568.0 -119.0V148.0Z"/></g>
<g fill="black" opacity=".8" transform="translate(800 400) scale(0.1 -0.1)"><path d="M0.0 0.0C-119.0 -29.0 -312.0 -42.0 -488.0 -43.0C-473.0 -75.0 -454.0 -130.0 -452.0 -165.0C-268.0 -167.0 -54.0 -155.0 106.0 -114.0ZM-705.0 150.0V-120.0C-705.0 -266.0 -711.0 -475.0 -794.0 -616.0C-759.0 -630.0 -696.0 -673.0 -670.0 -697.0C-579.0 -540.0 -562.0 -286.0 -562.0 -122.0V150.0Z"/></g>
<g fill="red" transform="translate(900 400) scale(0.1 -0.1)"><path d="M0.0 0.0C-99.0 -37.0 -289.0 -74.0 -449.0 -100.0C-446.0 -107.0 -441.0 -116.0 -439.0 -123.0C-274.0 -100.0 -86.0 -62.0 32.0 -22.0ZM-449.0 -100.0V-354.0C-449.0 -509.0 -462.0 -716.0 -575.0 -869.0C-568.0 -872.0 -556.0 -882.0 -551.0 -888.0C-436.0 -731.0 -420.0 -513.0 -420.0 -355.0V-100.0Z"/></g>
<g fill="black" opacity=".8" transform="translate(900 400) scale(0.1 -0.1)"><path d="M0.0 0.0C-99.0 -37.0 -289.0 -76.0 -449.0 -103.0C-443.0 -111.0 -440.0 -119.0 -437.0 -127.0C-275.0 -102.0 -86.0 -63.0 30.0 -22.0ZM-447.0 -102.0V-354.0C-447.0 -509.0 -462.0 -715.0 -578.0 -867.0C-569.0 -871.0 -558.0 -880.0 -554.0 -888.0C-435.0 -731.0 -418.0 -516.0 -418.0 -355.0V-102.0Z"/></g>
<g fill="red" transform="translate(1000 400) scale(0.1 -0.1)"><path d="M0.0 0.0C-98.0 -44.0 -255.0 -84.0 -401.0 -107.0C-383.0 -138.0 -361.0 -195.0 -354.0 -230.0C-196.0 -208.0 -13.0 -170.0 131.0 -115.0ZM-401.0 -107.0V-383.0C-401.0 -525.0 -409.0 -723.0 -516.0 -854.0C-482.0 -871.0 -418.0 -921.0 -393.0 -948.0C-272.0 -801.0 -251.0 -549.0 -251.0 -384.0V-107.0Z"/></g>
<g fill="black" opacity=".8" transform="translate(1000 400) scale(0.1 -0.1)"><path d="M0.0 0.0C-97.0 -44.0 -255.0 -84.0 -402.0 -107.0C-385.0 -138.0 -362.0 -195.0 -356.0 -230.0C-194.0 -208.0 -12.0 -171.0 132.0 -115.0ZM-402.0 -103.0V-381.0C-402.0 -526.0 -411.0 -726.0 -514.0 -858.0C-478.0 -875.0 -414.0 -920.0 -387.0 -946.0C-273.0 -798.0 -255.0 -552.0 -255.0 -383.0V-103.0Z"/></g>
<g fill="red" transform="translate(1100 400) scale(0.1 -0.1)"><path d="M0.0 0.0C-77.0 -28.0 -222.0 -54.0 -342.0 -72.0C-337.0 -79.0 -333.0 -89.0 -332.0 -96.0C-209.0 -81.0 -63.0 -54.0 26.0 -24.0ZM-342.0 -72.0V-200.0C-342.0 -298.0 -354.0 -406.0 -466.0 -489.0C-459.0 -494.0 -449.0 -503.0 -444.0 -510.0C-328.0 -422.0 -313.0 -309.0 -313.0 -200.0V-72.0Z"/></g>
<g fill="black" opacity=".8" transform="translate(1100 400) scale(0.1 -0.1)"><path d="M0.0 0.0C-77.0 -28.0 -221.0 -54.0 -341.0 -71.0C-335.0 -80.0 -331.0 -91.0 -329.0 -99.0C-207.0 -82.0 -61.0 -57.0 29.0 -26.0ZM-345.0 -71.0V-201.0C-345.0 -296.0 -358.0 -408.0 -468.0 -494.0C-459.0 -497.0 -448.0 -507.0 -444.0 -515.0C-330.0 -425.0 -314.0 -308.0 -314.0 -201.0V-71.0Z"/></g>
<g fill="red" transform="translate(1200 400) scale(0.1 -0.1)"><path d="M0.0 0.0C-83.0 -32.0 -224.0 -59.0 -352.0 -75.0C-339.0 -101.0 -321.0 -149.0 -316.0 -177.0C-176.0 -162.0 -13.0 -135.0 111.0 -93.0ZM-353.0 -75.0V-246.0C-353.0 -333.0 -369.0 -421.0 -483.0 -482.0C-451.0 -504.0 -401.0 -549.0 -378.0 -578.0C-244.0 -497.0 -225.0 -372.0 -225.0 -249.0V-75.0Z"/></g>
<g fill="black" opacity=".8" transform="translate(1200 400) scale(0.1 -0.1)"><path d="M0.0 0.0C-85.0 -33.0 -227.0 -60.0 -352.0 -75.0C-340.0 -104.0 -320.0 -151.0 -315.0 -180.0C-178.0 -167.0 -18.0 -141.0 102.0 -101.0ZM-360.0 -75.0V-249.0C-360.0 -331.0 -374.0 -417.0 -479.0 -476.0C-445.0 -497.0 -389.0 -545.0 -365.0 -574.0C-243.0 -495.0 -223.0 -371.0 -223.0 -253.0V-75.0Z"/></g>
<g fill="red" transform="translate(1300 400) scale(0.1 -0.1)"><path d="M0.0 0.0C-49.0 -19.0 -143.0 -38.0 -221.0 -50.0C-217.0 -58.0 -212.0 -67.0 -210.0 -73.0C-129.0 -62.0 -35.0 -44.0 28.0 -21.0ZM-221.0 -50.0V-413.0C-221.0 -514.0 -231.0 -714.0 -316.0 -830.0C-308.0 -836.0 -297.0 -844.0 -291.0 -850.0C-205.0 -725.0 -192.0 -512.0 -192.0 -414.0V-50.0Z"/></g>
<g fill="black" opacity=".8" transform="translate(1300 400) scale(0.1 -0.1)"><path d="M0.0 0.0C-50.0 -26.0 -142.0 -53.0 -220.0 -72.0C-214.0 -80.0 -211.0 -88.0 -207.0 -94.0C-130.0 -77.0 -37.0 -51.0 22.0 -22.0ZM-228.0 -57.0V-404.0C-228.0 -534.0 -235.0 -707.0 -301.0 -833.0C-293.0 -836.0 -282.0 -843.0 -278.0 -850.0C-210.0 -720.0 -202.0 -538.0 -202.0 -404.0V-57.0Z"/></g>
<g fill="red" transform="translate(1400 400) scale(0.1 -0.1)"><path d="M0.0 0.0C-55.0 -28.0 -141.0 -57.0 -220.0 -75.0C-204.0 -103.0 -186.0 -150.0 -180.0 -179.0C-91.0 -164.0 15.0 -139.0 102.0 -104.0ZM-221.0 -75.0V-484.0C-221.0 -561.0 -230.0 -722.0 -304.0 -849.0C-275.0 -866.0 -225.0 -900.0 -204.0 -925.0C-129.0 -800.0 -103.0 -511.0 -103.0 -484.0V-75.0Z"/></g>
<g fill="black" opacity=".8" transform="translate(1400 400) scale(0.1 -0.1)"><path d="M0.0 0.0C-58.0 -31.0 -141.0 -64.0 -218.0 -84.0C-204.0 -112.0 -184.0 -156.0 -179.0 -185.0C-93.0 -168.0 7.0 -140.0 90.0 -105.0ZM-229.0 -67.0V-449.0C-229.0 -570.0 -234.0 -729.0 -291.0 -839.0C-264.0 -853.0 -214.0 -895.0 -195.0 -919.0C-124.0 -795.0 -112.0 -582.0 -112.0 -450.0V-67.0Z"/></g>
<g fill="red" transform="translate(1500 400) scale(0.1 -0.1)"><path d="M0.0 0.0C-66.0 -24.0 -201.0 -41.0 -307.0 -50.0C-302.0 -58.0 -297.0 -69.0 -296.0 -76.0C-188.0 -68.0 -53.0 -50.0 25.0 -24.0ZM-307.0 -50.0V-237.0C-307.0 -336.0 -314.0 -472.0 -376.0 -573.0C-369.0 -575.0 -357.0 -582.0 -352.0 -588.0C-289.0 -485.0 -277.0 -340.0 -277.0 -237.0V-50.0Z"/></g>
<g fill="black" opacity=".8" transform="translate(1500 400) scale(0.1 -0.1)"><path d="M0.0 0.0C-68.0 -23.0 -202.0 -42.0 -310.0 -53.0C-304.0 -61.0 -301.0 -69.0 -300.0 -75.0C-190.0 -64.0 -56.0 -46.0 23.0 -20.0ZM-299.0 -52.0V-237.0C-299.0 -336.0 -308.0 -469.0 -374.0 -569.0C-367.0 -571.0 -358.0 -578.0 -354.0 -584.0C-286.0 -482.0 -274.0 -341.0 -274.0 -237.0V-52.0Z"/></g>
<g fill="red" transform="translate(1600 400) scale(0.1 -0.1)"><path d="M0.0 0.0C-88.0 -28.0 -221.0 -48.0 -336.0 -58.0C-324.0 -85.0 -310.0 -126.0 -306.0 -153.0C-190.0 -148.0 -49.0 -131.0 55.0 -102.0ZM-336.0 -60.0V-233.0C-336.0 -328.0 -340.0 -458.0 -394.0 -551.0C-365.0 -564.0 -308.0 -605.0 -286.0 -627.0C-221.0 -520.0 -209.0 -352.0 -209.0 -235.0V-60.0Z"/></g>
<g fill="black" opacity=".8" transform="translate(1600 400) scale(0.1 -0.1)"><path d="M0.0 0.0C-84.0 -27.0 -217.0 -48.0 -336.0 -58.0C-325.0 -82.0 -309.0 -122.0 -307.0 -148.0C-183.0 -140.0 -38.0 -122.0 71.0 -91.0ZM-327.0 -55.0V-231.0C-327.0 -329.0 -333.0 -464.0 -398.0 -558.0C-372.0 -571.0 -323.0 -609.0 -305.0 -630.0C-229.0 -523.0 -215.0 -351.0 -215.0 -233.0V-55.0Z"/></g>
<g fill="red" transform="translate(100 500) scale(0.1 -0.1)"><path d="M0.0 0.0C-97.0 -30.0 -284.0 -57.0 -432.0 -74.0C-428.0 -82.0 -424.0 -93.0 -422.0 -101.0C-273.0 -85.0 -87.0 -57.0 20.0 -25.0ZM-432.0 -74.0V-405.0C-432.0 -571.0 -445.0 -734.0 -549.0 -864.0C-541.0 -869.0 -531.0 -878.0 -526.0 -884.0C-418.0 -744.0 -403.0 -586.0 -403.0 -405.0V-74.0Z"/></g>
<g fill="black" opacity=".8" transform="translate(100 500) scale(0.1 -0.1)"><path d="M0.0 0.0C-96.0 -34.0 -282.0 -65.0 -435.0 -87.0C-429.0 -95.0 -425.0 -104.0 -423.0 -112.0C-269.0 -93.0 -83.0 -61.0 27.0 -24.0ZM-433.0 -82.0V-417.0C-433.0 -556.0 -445.0 -736.0 -541.0 -868.0C-533.0 -871.0 -522.0 -879.0 -518.0 -887.0C-419.0 -751.0 -403.0 -561.0 -403.0 -417.0V-82.0Z"/></g>
<g fill="red" transform="translate(200 500) scale(0.1 -0.1)"><path d="M0.0 0.0C-109.0 -38.0 -264.0 -71.0 -409.0 -90.0C-393.0 -122.0 -374.0 -174.0 -369.0 -208.0C-221.0 -193.0 -50.0 -165.0 86.0 -123.0ZM-409.0 -90.0V-383.0C-409.0 -527.0 -420.0 -696.0 -509.0 -856.0C-470.0 -880.0 -419.0 -918.0 -391.0 -950.0C-283.0 -773.0 -265.0 -569.0 -265.0 -384.0V-90.0Z"/></g>
<g fill="black" opacity=".8" transform="translate(200 500) scale(0.1 -0.1)"><path d="M0.0 0.0C-102.0 -38.0 -265.0 -71.0 -413.0 -89.0C-397.0 -119.0 -376.0 -173.0 -371.0 -206.0C-211.0 -190.0 -26.0 -160.0 118.0 -113.0ZM-414.0 -81.0V-386.0C-414.0 -526.0 -420.0 -718.0 -509.0 -850.0C-476.0 -867.0 -413.0 -915.0 -389.0 -941.0C-288.0 -793.0 -269.0 -547.0 -269.0 -388.0V-81.0Z"/></g>
<g fill="red" transform="translate(300 500) scale(0.1 -0.1)"><path d="M0.0 0.0C-96.0 -35.0 -281.0 -68.0 -433.0 -91.0C-429.0 -99.0 -424.0 -110.0 -423.0 -116.0C-269.0 -95.0 -84.0 -63.0 25.0 -24.0ZM-433.0 -91.0V-441.0C-433.0 -580.0 -445.0 -755.0 -557.0 -881.0C-550.0 -885.0 -539.0 -895.0 -534.0 -900.0C-420.0 -771.0 -404.0 -584.0 -404.0 -441.0V-91.0Z"/></g>
<g fill="black" opacity=".8" transform="translate(300 500) scale(0.1 -0.1)"><path d="M0.0 0.0C-97.0 -35.0 -283.0 -70.0 -437.0 -93.0C-431.0 -102.0 -428.0 -112.0 -425.0 -119.0C-270.0 -98.0 -84.0 -64.0 27.0 -25.0ZM-435.0 -94.0V-441.0C-435.0 -580.0 -447.0 -752.0 -553.0 -879.0C-544.0 -883.0 -533.0 -891.0 -529.0 -899.0C-420.0 -769.0 -405.0 -586.0 -405.0 -441.0V-94.0Z"/></g>
<g fill="red" transform="translate(400 500) scale(0.1 -0.1)"><path d="M0.0 0.0C-98.0 -41.0 -257.0 -77.0 -405.0 -98.0C-388.0 -129.0 -366.0 -185.0 -360.0 -218.0C-199.0 -198.0 -13.0 -163.0 133.0 -110.0ZM-405.0 -98.0V-430.0C-405.0 -564.0 -411.0 -740.0 -497.0 -857.0C-464.0 -875.0 -400.0 -925.0 -375.0 -953.0C-273.0 -819.0 -256.0 -588.0 -256.0 -430.0V-98.0Z"/></g>
<g fill="black" opacity=".8" transform="translate(400 500) scale(0.1 -0.1)"><path d="M0.0 0.0C-98.0 -39.0 -256.0 -75.0 -401.0 -96.0C-385.0 -126.0 -362.0 -181.0 -356.0 -215.0C-198.0 -196.0 -15.0 -163.0 128.0 -113.0ZM-401.0 -94.0V-429.0C-401.0 -563.0 -409.0 -740.0 -505.0 -862.0C-470.0 -880.0 -408.0 -929.0 -383.0 -957.0C-273.0 -819.0 -253.0 -587.0 -253.0 -430.0V-94.0Z"/></g>
<g fill="red" transform="translate(500 500) scale(0.1 -0.1)"><path d="M0.0 0.0C-51.0 -25.0 -148.0 -50.0 -230.0 -68.0C-225.0 -75.0 -220.0 -84.0 -218.0 -90.0C-134.0 -75.0 -36.0 -49.0 30.0 -21.0ZM-232.0 -67.0V-339.0C-232.0 -487.0 -239.0 -695.0 -307.0 -848.0C-300.0 -851.0 -288.0 -858.0 -282.0 -864.0C-212.0 -708.0 -203.0 -490.0 -203.0 -339.0V-67.0Z"/></g>
<g fill="black" opacity=".8" transform="translate(500 500) scale(0.1 -0.1)"><path d="M0.0 0.0C-50.0 -27.0 -145.0 -54.0 -227.0 -74.0C-221.0 -82.0 -218.0 -89.0 -215.0 -95.0C-132.0 -77.0 -36.0 -50.0 26.0 -20.0ZM-231.0 -68.0V-341.0C-231.0 -486.0 -240.0 -696.0 -308.0 -851.0C-301.0 -852.0 -289.0 -860.0 -285.0 -866.0C-215.0 -709.0 -204.0 -489.0 -204.0 -341.0V-68.0Z"/></g>
<g fill="red" transform="translate(600 500) scale(0.1 -0.1)"><path d="M0.0 0.0C-64.0 -30.0 -159.0 -62.0 -246.0 -84.0C-231.0 -112.0 -212.0 -160.0 -206.0 -190.0C-111.0 -172.0 3.0 -145.0 98.0 -111.0ZM-247.0 -83.0V-335.0C-247.0 -483.0 -252.0 -700.0 -316.0 -851.0C-293.0 -864.0 -243.0 -908.0 -225.0 -931.0C-147.0 -764.0 -133.0 -499.0 -133.0 -335.0V-83.0Z"/></g>
<g fill="black" opacity=".8" transform="translate(600 500) scale(0.1 -0.1)"><path d="M0.0 0.0C-65.0 -34.0 -160.0 -67.0 -246.0 -86.0C-231.0 -115.0 -213.0 -161.0 -208.0 -193.0C-114.0 -177.0 -6.0 -150.0 80.0 -112.0ZM-251.0 -79.0V-337.0C-251.0 -483.0 -254.0 -704.0 -316.0 -852.0C-289.0 -863.0 -234.0 -902.0 -214.0 -923.0C-146.0 -761.0 -133.0 -497.0 -133.0 -338.0V-79.0Z"/></g>
<g fill="red" transform="translate(700 500) scale(0.1 -0.1)"><path d="M0.0 0.0C-133.0 -35.0 -398.0 -61.0 -610.0 -76.0C-606.0 -83.0 -602.0 -94.0 -601.0 -101.0C-386.0 -89.0 -124.0 -61.0 25.0 -24.0ZM-610.0 -76.0V-338.0C-610.0 -497.0 -621.0 -714.0 -730.0 -874.0C-722.0 -878.0 -711.0 -885.0 -706.0 -892.0C-595.0 -729.0 -580.0 -501.0 -580.0 -338.0V-76.0Z"/></g>
<g fill="black" opacity=".8" transform="translate(700 500) scale(0.1 -0.1)"><path d="M0.0 0.0C-132.0 -37.0 -398.0 -64.0 -610.0 -79.0C-604.0 -88.0 -599.0 -100.0 -598.0 -108.0C-382.0 -95.0 -119.0 -68.0 33.0 -28.0ZM-618.0 -79.0V-341.0C-618.0 -498.0 -632.0 -710.0 -728.0 -871.0C-718.0 -874.0 -704.0 -884.0 -699.0 -892.0C-601.0 -728.0 -583.0 -503.0 -583.0 -340.0V-79.0Z"/></g>
<g fill="red" transform="translate(800 500) scale(0.1 -0.1)"><path d="M0.0 0.0C-152.0 -48.0 -400.0 -72.0 -631.0 -77.0C-614.0 -112.0 -595.0 -174.0 -591.0 -212.0C-353.0 -209.0 -81.0 -186.0 125.0 -121.0ZM-631.0 -77.0V-351.0C-631.0 -503.0 -639.0 -719.0 -750.0 -862.0C-714.0 -878.0 -647.0 -925.0 -619.0 -952.0C-498.0 -794.0 -477.0 -526.0 -477.0 -352.0V-77.0Z"/></g>
<g fill="black" opacity=".8" transform="translate(800 500) scale(0.1 -0.1)"><path d="M0.0 0.0C-155.0 -42.0 -405.0 -69.0 -630.0 -78.0C-613.0 -114.0 -592.0 -176.0 -589.0 -216.0C-357.0 -210.0 -88.0 -185.0 114.0 -133.0ZM-642.0 -76.0V-348.0C-642.0 -499.0 -649.0 -711.0 -745.0 -857.0C-705.0 -875.0 -631.0 -930.0 -601.0 -961.0C-491.0 -797.0 -471.0 -531.0 -471.0 -350.0V-76.0Z"/></g>
<g fill="red" transform="translate(900 500) scale(0.1 -0.1)"><path d="M0.0 0.0C-136.0 -40.0 -405.0 -74.0 -622.0 -94.0C-619.0 -100.0 -615.0 -111.0 -614.0 -119.0C-392.0 -100.0 -128.0 -67.0 26.0 -25.0ZM-622.0 -94.0V-426.0C-622.0 -565.0 -634.0 -740.0 -744.0 -867.0C-737.0 -871.0 -726.0 -880.0 -721.0 -886.0C-609.0 -756.0 -593.0 -569.0 -593.0 -426.0V-94.0Z"/></g>
<g fill="black" opacity=".8" transform="translate(900 500) scale(0.1 -0.1)"><path d="M0.0 0.0C-135.0 -37.0 -407.0 -65.0 -623.0 -80.0C-617.0 -89.0 -613.0 -102.0 -611.0 -111.0C-392.0 -98.0 -122.0 -70.0 32.0 -30.0ZM-629.0 -89.0V-423.0C-629.0 -565.0 -643.0 -742.0 -745.0 -874.0C-735.0 -879.0 -722.0 -888.0 -717.0 -897.0C-612.0 -760.0 -593.0 -570.0 -593.0 -423.0V-89.0Z"/></g>
<g fill="red" transform="translate(1000 500) scale(0.1 -0.1)"><path d="M0.0 0.0C-159.0 -36.0 -406.0 -63.0 -631.0 -75.0C-616.0 -107.0 -596.0 -169.0 -592.0 -206.0C-361.0 -195.0 -93.0 -171.0 122.0 -125.0ZM-631.0 -75.0V-370.0C-631.0 -518.0 -640.0 -722.0 -755.0 -855.0C-723.0 -874.0 -658.0 -933.0 -634.0 -963.0C-498.0 -811.0 -474.0 -543.0 -474.0 -371.0V-75.0Z"/></g>
<g fill="black" opacity=".8" transform="translate(1000 500) scale(0.1 -0.1)"><path d="M0.0 0.0C-155.0 -40.0 -408.0 -66.0 -634.0 -76.0C-618.0 -111.0 -596.0 -173.0 -592.0 -211.0C-357.0 -204.0 -83.0 -180.0 123.0 -129.0ZM-644.0 -83.0V-373.0C-644.0 -516.0 -652.0 -709.0 -754.0 -846.0C-715.0 -866.0 -640.0 -926.0 -611.0 -958.0C-492.0 -802.0 -468.0 -549.0 -468.0 -375.0V-83.0Z"/></g>
<g fill="red" transform="translate(1100 500) scale(0.1 -0.1)"><path d="M0.0 0.0C-67.0 -35.0 -199.0 -72.0 -310.0 -97.0C-307.0 -104.0 -303.0 -114.0 -302.0 -121.0C-188.0 -97.0 -57.0 -60.0 26.0 -21.0ZM-312.0 -97.0V-352.0C-312.0 -504.0 -321.0 -713.0 -401.0 -866.0C-394.0 -870.0 -382.0 -882.0 -377.0 -889.0C-295.0 -731.0 -282.0 -509.0 -282.0 -353.0V-97.0Z"/></g>
<g fill="black" opacity=".8" transform="translate(1100 500) scale(0.1 -0.1)"><path d="M0.0 0.0C-69.0 -32.0 -200.0 -66.0 -312.0 -90.0C-306.0 -98.0 -303.0 -105.0 -300.0 -112.0C-187.0 -89.0 -56.0 -56.0 27.0 -20.0ZM-307.0 -96.0V-351.0C-307.0 -502.0 -317.0 -713.0 -407.0 -869.0C-400.0 -871.0 -389.0 -880.0 -385.0 -887.0C-293.0 -727.0 -279.0 -507.0 -279.0 -351.0V-96.0Z"/></g>
<g fill="red" transform="translate(1200 500) scale(0.1 -0.1)"><path d="M0.0 0.0C-73.0 -42.0 -185.0 -81.0 -291.0 -105.0C-275.0 -136.0 -258.0 -191.0 -252.0 -225.0C-138.0 -203.0 -7.0 -168.0 97.0 -117.0ZM-288.0 -105.0V-386.0C-288.0 -530.0 -293.0 -733.0 -365.0 -869.0C-335.0 -882.0 -281.0 -920.0 -259.0 -943.0C-181.0 -793.0 -168.0 -550.0 -168.0 -387.0V-105.0Z"/></g>
<g fill="black" opacity=".8" transform="translate(1200 500) scale(0.1 -0.1)"><path d="M0.0 0.0C-74.0 -39.0 -187.0 -77.0 -293.0 -100.0C-278.0 -130.0 -257.0 -180.0 -251.0 -213.0C-134.0 -191.0 -2.0 -158.0 104.0 -111.0ZM-288.0 -105.0V-386.0C-288.0 -529.0 -294.0 -735.0 -373.0 -871.0C-342.0 -884.0 -284.0 -925.0 -262.0 -948.0C-175.0 -797.0 -160.0 -547.0 -160.0 -388.0V-105.0Z"/></g>
<g fill="red" transform="translate(1300 500) scale(0.1 -0.1)"><path d="M0.0 0.0C-80.0 -35.0 -234.0 -72.0 -364.0 -97.0C-360.0 -104.0 -356.0 -114.0 -354.0 -121.0C-220.0 -97.0 -66.0 -60.0 30.0 -21.0ZM-366.0 -97.0V-353.0C-366.0 -504.0 -377.0 -712.0 -470.0 -866.0C-463.0 -869.0 -452.0 -878.0 -448.0 -885.0C-352.0 -726.0 -338.0 -508.0 -338.0 -353.0V-97.0Z"/></g>
<g fill="black" opacity=".8" transform="translate(1300 500) scale(0.1 -0.1)"><path d="M0.0 0.0C-81.0 -34.0 -234.0 -71.0 -366.0 -98.0C-360.0 -105.0 -358.0 -111.0 -355.0 -118.0C-222.0 -93.0 -70.0 -56.0 27.0 -18.0ZM-360.0 -98.0V-349.0C-360.0 -503.0 -372.0 -713.0 -471.0 -869.0C-464.0 -871.0 -454.0 -880.0 -451.0 -886.0C-349.0 -727.0 -335.0 -507.0 -335.0 -350.0V-98.0Z"/></g>
<g fill="red" transform="translate(1400 500) scale(0.1 -0.1)"><path d="M0.0 0.0C-79.0 -42.0 -200.0 -81.0 -314.0 -105.0C-298.0 -136.0 -279.0 -191.0 -272.0 -225.0C-149.0 -203.0 -8.0 -168.0 105.0 -117.0ZM-313.0 -105.0V-386.0C-313.0 -530.0 -319.0 -733.0 -396.0 -869.0C-364.0 -882.0 -306.0 -920.0 -282.0 -943.0C-197.0 -793.0 -184.0 -550.0 -184.0 -387.0V-105.0Z"/></g>
<g fill="black" opacity=".8" transform="translate(1400 500) scale(0.1 -0.1)"><path d="M0.0 0.0C-77.0 -41.0 -199.0 -81.0 -315.0 -105.0C-299.0 -133.0 -278.0 -184.0 -272.0 -217.0C-143.0 -193.0 2.0 -157.0 118.0 -105.0ZM-311.0 -102.0V-387.0C-311.0 -530.0 -317.0 -735.0 -402.0 -869.0C-370.0 -882.0 -313.0 -920.0 -291.0 -942.0C-198.0 -795.0 -183.0 -548.0 -183.0 -388.0V-102.0Z"/></g>
<g fill="red" transform="translate(1500 500) scale(0.1 -0.1)"><path d="M0.0 0.0C-71.0 -30.0 -207.0 -61.0 -321.0 -83.0C-318.0 -90.0 -313.0 -99.0 -311.0 -106.0C-192.0 -86.0 -57.0 -55.0 29.0 -21.0ZM-321.0 -83.0V-388.0C-321.0 -531.0 -331.0 -724.0 -421.0 -864.0C-414.0 -868.0 -402.0 -877.0 -398.0 -883.0C-305.0 -738.0 -292.0 -535.0 -292.0 -388.0V-83.0Z"/></g>
<g fill="black" opacity=".8" transform="translate(1500 500) scale(0.1 -0.1)"><path d="M0.0 0.0C-71.0 -32.0 -203.0 -67.0 -317.0 -91.0C-311.0 -99.0 -308.0 -107.0 -304.0 -114.0C-190.0 -91.0 -58.0 -57.0 27.0 -21.0ZM-320.0 -86.0V-387.0C-320.0 -532.0 -331.0 -727.0 -426.0 -870.0C-418.0 -873.0 -407.0 -881.0 -403.0 -888.0C-306.0 -741.0 -293.0 -537.0 -293.0 -387.0V-86.0Z"/></g>
<g fill="red" transform="translate(1600 500) scale(0.1 -0.1)"><path d="M0.0 0.0C-69.0 -37.0 -180.0 -75.0 -284.0 -98.0C-267.0 -126.0 -247.0 -175.0 -241.0 -204.0C-125.0 -182.0 9.0 -147.0 115.0 -101.0ZM-284.0 -98.0V-398.0C-284.0 -543.0 -293.0 -741.0 -399.0 -874.0C-368.0 -888.0 -313.0 -928.0 -290.0 -950.0C-173.0 -804.0 -155.0 -563.0 -155.0 -398.0V-98.0Z"/></g>
<g fill="black" opacity=".8" transform="translate(1600 500) scale(0.1 -0.1)"><path d="M0.0 0.0C-72.0 -38.0 -183.0 -77.0 -287.0 -99.0C-272.0 -129.0 -250.0 -179.0 -244.0 -212.0C-127.0 -190.0 5.0 -156.0 112.0 -110.0ZM-293.0 -93.0V-402.0C-293.0 -542.0 -299.0 -736.0 -382.0 -866.0C-351.0 -880.0 -293.0 -923.0 -271.0 -947.0C-178.0 -802.0 -162.0 -560.0 -162.0 -404.0V-93.0Z"/></g>
<g fill="red" transform="translate(100 600) scale(0.1 -0.1)"><path d="M0.0 0.0C-65.0 -36.0 -189.0 -73.0 -294.0 -99.0C-289.0 -106.0 -284.0 -117.0 -282.0 -123.0C-175.0 -97.0 -51.0 -61.0 27.0 -23.0ZM-294.0 -99.0V-419.0C-294.0 -561.0 -307.0 -742.0 -421.0 -873.0C-415.0 -877.0 -403.0 -885.0 -398.0 -891.0C-281.0 -757.0 -265.0 -565.0 -265.0 -419.0V-99.0Z"/></g>
<g fill="black" opacity=".8" transform="translate(100 600) scale(0.1 -0.1)"><path d="M0.0 0.0C-67.0 -33.0 -190.0 -70.0 -296.0 -97.0C-289.0 -106.0 -285.0 -115.0 -281.0 -123.0C-175.0 -98.0 -51.0 -62.0 29.0 -24.0ZM-297.0 -102.0V-420.0C-297.0 -559.0 -310.0 -739.0 -420.0 -871.0C-411.0 -875.0 -400.0 -884.0 -395.0 -892.0C-282.0 -757.0 -266.0 -566.0 -266.0 -420.0V-102.0Z"/></g>
<g fill="red" transform="translate(200 600) scale(0.1 -0.1)"><path d="M0.0 0.0C-69.0 -42.0 -176.0 -84.0 -276.0 -111.0C-259.0 -140.0 -238.0 -190.0 -231.0 -221.0C-120.0 -196.0 8.0 -159.0 111.0 -109.0ZM-276.0 -112.0V-396.0C-276.0 -538.0 -284.0 -732.0 -392.0 -863.0C-358.0 -877.0 -297.0 -914.0 -271.0 -936.0C-156.0 -793.0 -137.0 -559.0 -137.0 -397.0V-112.0Z"/></g>
<g fill="black" opacity=".8" transform="translate(200 600) scale(0.1 -0.1)"><path d="M0.0 0.0C-69.0 -39.0 -177.0 -80.0 -276.0 -105.0C-260.0 -136.0 -236.0 -189.0 -230.0 -224.0C-116.0 -200.0 15.0 -164.0 120.0 -116.0ZM-279.0 -110.0V-394.0C-279.0 -534.0 -288.0 -725.0 -386.0 -855.0C-353.0 -873.0 -291.0 -921.0 -267.0 -948.0C-156.0 -801.0 -137.0 -559.0 -137.0 -397.0V-110.0Z"/></g>
<g fill="red" transform="translate(300 600) scale(0.1 -0.1)"><path d="M0.0 0.0C-86.0 -36.0 -252.0 -72.0 -392.0 -98.0C-388.0 -105.0 -383.0 -114.0 -381.0 -121.0C-237.0 -97.0 -72.0 -61.0 31.0 -21.0ZM-392.0 -98.0V-353.0C-392.0 -505.0 -402.0 -713.0 -498.0 -867.0C-492.0 -870.0 -480.0 -879.0 -475.0 -886.0C-376.0 -727.0 -362.0 -509.0 -362.0 -353.0V-98.0Z"/></g>
<g fill="black" opacity=".8" transform="translate(300 600) scale(0.1 -0.1)"><path d="M0.0 0.0C-87.0 -34.0 -254.0 -68.0 -394.0 -91.0C-388.0 -100.0 -384.0 -109.0 -381.0 -117.0C-240.0 -95.0 -72.0 -62.0 31.0 -24.0ZM-390.0 -98.0V-350.0C-390.0 -503.0 -403.0 -712.0 -504.0 -868.0C-495.0 -871.0 -482.0 -880.0 -478.0 -888.0C-374.0 -728.0 -359.0 -509.0 -359.0 -350.0V-98.0Z"/></g>
<g fill="red" transform="translate(400 600) scale(0.1 -0.1)"><path d="M0.0 0.0C-100.0 -44.0 -251.0 -83.0 -393.0 -106.0C-375.0 -139.0 -353.0 -196.0 -346.0 -232.0C-194.0 -211.0 -21.0 -175.0 119.0 -122.0ZM-393.0 -106.0V-388.0C-393.0 -532.0 -399.0 -734.0 -485.0 -870.0C-448.0 -884.0 -380.0 -924.0 -352.0 -948.0C-258.0 -798.0 -243.0 -553.0 -243.0 -388.0V-106.0Z"/></g>
<g fill="black" opacity=".8" transform="translate(400 600) scale(0.1 -0.1)"><path d="M0.0 0.0C-97.0 -41.0 -250.0 -78.0 -390.0 -99.0C-373.0 -132.0 -351.0 -187.0 -346.0 -224.0C-195.0 -205.0 -22.0 -172.0 113.0 -123.0ZM-388.0 -105.0V-386.0C-388.0 -530.0 -395.0 -730.0 -488.0 -864.0C-452.0 -881.0 -387.0 -929.0 -362.0 -956.0C-258.0 -805.0 -240.0 -556.0 -240.0 -388.0V-105.0Z"/></g>
<g fill="red" transform="translate(500 600) scale(0.1 -0.1)"><path d="M0.0 0.0C-77.0 -28.0 -222.0 -54.0 -342.0 -72.0C-338.0 -79.0 -333.0 -90.0 -332.0 -97.0C-209.0 -81.0 -63.0 -54.0 26.0 -24.0ZM-342.0 -72.0V-190.0C-342.0 -280.0 -354.0 -379.0 -469.0 -453.0C-461.0 -458.0 -451.0 -468.0 -446.0 -475.0C-328.0 -395.0 -313.0 -292.0 -313.0 -191.0V-72.0Z"/></g>
<g fill="black" opacity=".8" transform="translate(500 600) scale(0.1 -0.1)"><path d="M0.0 0.0C-77.0 -27.0 -222.0 -54.0 -343.0 -71.0C-337.0 -80.0 -333.0 -89.0 -331.0 -97.0C-209.0 -79.0 -63.0 -54.0 27.0 -23.0ZM-343.0 -70.0V-194.0C-343.0 -280.0 -356.0 -378.0 -467.0 -452.0C-459.0 -455.0 -449.0 -464.0 -445.0 -471.0C-330.0 -394.0 -314.0 -292.0 -314.0 -194.0V-70.0Z"/></g>
<g fill="red" transform="translate(600 600) scale(0.1 -0.1)"><path d="M0.0 0.0C-79.0 -30.0 -214.0 -55.0 -336.0 -70.0C-323.0 -94.0 -306.0 -138.0 -301.0 -164.0C-168.0 -150.0 -13.0 -125.0 105.0 -86.0ZM-336.0 -70.0V-220.0C-336.0 -296.0 -352.0 -373.0 -460.0 -427.0C-428.0 -447.0 -379.0 -491.0 -357.0 -519.0C-228.0 -447.0 -210.0 -334.0 -210.0 -223.0V-70.0Z"/></g>
<g fill="black" opacity=".8" transform="translate(600 600) scale(0.1 -0.1)"><path d="M0.0 0.0C-80.0 -31.0 -215.0 -58.0 -336.0 -73.0C-324.0 -99.0 -305.0 -143.0 -300.0 -170.0C-167.0 -156.0 -12.0 -130.0 104.0 -90.0ZM-339.0 -70.0V-218.0C-339.0 -295.0 -353.0 -375.0 -457.0 -429.0C-425.0 -449.0 -373.0 -493.0 -351.0 -520.0C-230.0 -447.0 -211.0 -332.0 -211.0 -223.0V-70.0Z"/></g>
<g fill="red" transform="translate(700 600) scale(0.1 -0.1)"><path d="M0.0 0.0C-63.0 -32.0 -178.0 -66.0 -273.0 -90.0C-269.0 -98.0 -264.0 -108.0 -261.0 -115.0C-166.0 -93.0 -49.0 -60.0 23.0 -25.0ZM-274.0 -90.0V-446.0C-274.0 -578.0 -283.0 -745.0 -365.0 -867.0C-358.0 -871.0 -346.0 -880.0 -341.0 -887.0C-257.0 -761.0 -245.0 -581.0 -245.0 -446.0V-90.0Z"/></g>
<g fill="black" opacity=".8" transform="translate(700 600) scale(0.1 -0.1)"><path d="M0.0 0.0C-63.0 -30.0 -177.0 -64.0 -275.0 -88.0C-269.0 -96.0 -266.0 -104.0 -263.0 -111.0C-165.0 -88.0 -50.0 -56.0 23.0 -22.0ZM-270.0 -86.0V-446.0C-270.0 -577.0 -279.0 -745.0 -366.0 -866.0C-358.0 -869.0 -348.0 -877.0 -344.0 -884.0C-254.0 -759.0 -243.0 -583.0 -243.0 -446.0V-86.0Z"/></g>
<g fill="red" transform="translate(800 600) scale(0.1 -0.1)"><path d="M0.0 0.0C-62.0 -35.0 -155.0 -71.0 -242.0 -93.0C-226.0 -123.0 -206.0 -172.0 -199.0 -203.0C-104.0 -183.0 8.0 -154.0 101.0 -113.0ZM-243.0 -93.0V-465.0C-243.0 -591.0 -248.0 -750.0 -318.0 -857.0C-289.0 -872.0 -232.0 -918.0 -210.0 -943.0C-125.0 -821.0 -110.0 -613.0 -110.0 -465.0V-93.0Z"/></g>
<g fill="black" opacity=".8" transform="translate(800 600) scale(0.1 -0.1)"><path d="M0.0 0.0C-61.0 -35.0 -155.0 -73.0 -243.0 -96.0C-228.0 -124.0 -206.0 -172.0 -200.0 -202.0C-100.0 -179.0 16.0 -147.0 111.0 -104.0ZM-239.0 -94.0V-466.0C-239.0 -591.0 -245.0 -751.0 -320.0 -862.0C-291.0 -878.0 -239.0 -921.0 -218.0 -946.0C-128.0 -821.0 -113.0 -607.0 -113.0 -467.0V-94.0Z"/></g>
<g fill="red" transform="translate(900 600) scale(0.1 -0.1)"><path d="M0.0 0.0C-65.0 -23.0 -198.0 -41.0 -305.0 -49.0C-301.0 -57.0 -297.0 -67.0 -295.0 -74.0C-184.0 -66.0 -50.0 -48.0 30.0 -22.0ZM-305.0 -49.0V-202.0C-305.0 -285.0 -314.0 -394.0 -377.0 -477.0C-370.0 -480.0 -358.0 -487.0 -352.0 -493.0C-289.0 -409.0 -276.0 -288.0 -276.0 -202.0V-49.0Z"/></g>
<g fill="black" opacity=".8" transform="translate(900 600) scale(0.1 -0.1)"><path d="M0.0 0.0C-67.0 -22.0 -200.0 -41.0 -307.0 -51.0C-301.0 -59.0 -298.0 -67.0 -296.0 -74.0C-188.0 -63.0 -55.0 -46.0 23.0 -21.0ZM-297.0 -50.0V-195.0C-297.0 -283.0 -306.0 -397.0 -379.0 -484.0C-371.0 -486.0 -362.0 -493.0 -358.0 -500.0C-283.0 -410.0 -271.0 -291.0 -271.0 -195.0V-50.0Z"/></g>
<g fill="red" transform="translate(1000 600) scale(0.1 -0.1)"><path d="M0.0 0.0C-88.0 -28.0 -221.0 -48.0 -336.0 -58.0C-324.0 -85.0 -310.0 -126.0 -306.0 -153.0C-190.0 -148.0 -49.0 -131.0 55.0 -102.0ZM-337.0 -58.0V-206.0C-337.0 -289.0 -343.0 -398.0 -408.0 -477.0C-378.0 -491.0 -321.0 -529.0 -298.0 -549.0C-224.0 -459.0 -210.0 -315.0 -210.0 -209.0V-58.0Z"/></g>
<g fill="black" opacity=".8" transform="translate(1000 600) scale(0.1 -0.1)"><path d="M0.0 0.0C-84.0 -26.0 -218.0 -46.0 -337.0 -55.0C-326.0 -79.0 -311.0 -118.0 -308.0 -144.0C-184.0 -137.0 -37.0 -119.0 72.0 -89.0ZM-329.0 -54.0V-207.0C-329.0 -291.0 -337.0 -397.0 -409.0 -471.0C-383.0 -486.0 -334.0 -526.0 -315.0 -548.0C-231.0 -459.0 -216.0 -319.0 -216.0 -211.0V-54.0Z"/></g>
<g fill="red" transform="translate(1100 600) scale(0.1 -0.1)"><path d="M0.0 0.0C-63.0 -35.0 -189.0 -66.0 -296.0 -87.0C-291.0 -95.0 -286.0 -104.0 -284.0 -111.0C-175.0 -91.0 -47.0 -59.0 29.0 -21.0ZM-296.0 -87.0V-478.0C-296.0 -593.0 -302.0 -739.0 -364.0 -843.0C-357.0 -847.0 -345.0 -855.0 -340.0 -862.0C-276.0 -755.0 -267.0 -597.0 -267.0 -477.0V-87.0Z"/></g>
<g fill="black" opacity=".8" transform="translate(1100 600) scale(0.1 -0.1)"><path d="M0.0 0.0C-66.0 -29.0 -191.0 -57.0 -294.0 -77.0C-288.0 -86.0 -284.0 -96.0 -280.0 -103.0C-177.0 -85.0 -52.0 -57.0 25.0 -25.0ZM-289.0 -90.0V-466.0C-289.0 -589.0 -298.0 -746.0 -380.0 -859.0C-372.0 -863.0 -360.0 -871.0 -356.0 -878.0C-272.0 -762.0 -259.0 -594.0 -259.0 -465.0V-90.0Z"/></g>
<g fill="red" transform="translate(1200 600) scale(0.1 -0.1)"><path d="M0.0 0.0C-75.0 -40.0 -194.0 -79.0 -305.0 -103.0C-289.0 -131.0 -269.0 -180.0 -262.0 -210.0C-141.0 -187.0 0.0 -151.0 110.0 -103.0ZM-305.0 -103.0V-404.0C-305.0 -539.0 -309.0 -724.0 -372.0 -850.0C-346.0 -866.0 -289.0 -921.0 -269.0 -948.0C-187.0 -803.0 -171.0 -560.0 -171.0 -404.0V-103.0Z"/></g>
<g fill="black" opacity=".8" transform="translate(1200 600) scale(0.1 -0.1)"><path d="M0.0 0.0C-78.0 -33.0 -197.0 -65.0 -304.0 -83.0C-289.0 -113.0 -268.0 -161.0 -263.0 -193.0C-147.0 -177.0 -9.0 -150.0 99.0 -112.0ZM-300.0 -98.0V-413.0C-300.0 -542.0 -306.0 -718.0 -381.0 -842.0C-352.0 -858.0 -295.0 -908.0 -273.0 -934.0C-183.0 -793.0 -165.0 -561.0 -165.0 -415.0V-98.0Z"/></g>
<g fill="red" transform="translate(1300 600) scale(0.1 -0.1)"><path d="M0.0 0.0C-101.0 -37.0 -297.0 -75.0 -462.0 -100.0C-458.0 -107.0 -453.0 -117.0 -451.0 -124.0C-283.0 -100.0 -89.0 -63.0 32.0 -22.0ZM-462.0 -100.0V-354.0C-462.0 -509.0 -475.0 -716.0 -588.0 -869.0C-581.0 -872.0 -569.0 -882.0 -564.0 -888.0C-449.0 -731.0 -433.0 -513.0 -433.0 -355.0V-100.0Z"/></g>
<g fill="black" opacity=".8" transform="translate(1300 600) scale(0.1 -0.1)"><path d="M0.0 0.0C-102.0 -37.0 -298.0 -75.0 -462.0 -100.0C-455.0 -109.0 -452.0 -118.0 -450.0 -126.0C-283.0 -102.0 -88.0 -65.0 31.0 -24.0ZM-462.0 -102.0V-355.0C-462.0 -509.0 -476.0 -714.0 -592.0 -867.0C-583.0 -870.0 -571.0 -880.0 -567.0 -888.0C-448.0 -731.0 -430.0 -516.0 -430.0 -355.0V-102.0Z"/></g>
<g fill="red" transform="translate(1400 600) scale(0.1 -0.1)"><path d="M0.0 0.0C-104.0 -45.0 -271.0 -84.0 -426.0 -107.0C-409.0 -139.0 -387.0 -196.0 -380.0 -231.0C-213.0 -209.0 -21.0 -172.0 131.0 -115.0ZM-426.0 -107.0V-383.0C-426.0 -526.0 -434.0 -723.0 -545.0 -854.0C-511.0 -871.0 -446.0 -922.0 -421.0 -950.0C-296.0 -803.0 -274.0 -550.0 -274.0 -384.0V-107.0Z"/></g>
<g fill="black" opacity=".8" transform="translate(1400 600) scale(0.1 -0.1)"><path d="M0.0 0.0C-104.0 -44.0 -272.0 -83.0 -427.0 -104.0C-410.0 -137.0 -387.0 -195.0 -381.0 -231.0C-212.0 -210.0 -20.0 -175.0 130.0 -119.0ZM-429.0 -104.0V-380.0C-429.0 -526.0 -438.0 -725.0 -543.0 -857.0C-506.0 -874.0 -439.0 -922.0 -412.0 -950.0C-295.0 -800.0 -276.0 -554.0 -276.0 -383.0V-104.0Z"/></g>
<g fill="red" transform="translate(1500 600) scale(0.1 -0.1)"><path d="M0.0 0.0C-93.0 -39.0 -273.0 -79.0 -426.0 -107.0C-422.0 -113.0 -417.0 -124.0 -415.0 -131.0C-259.0 -104.0 -81.0 -64.0 30.0 -21.0ZM-426.0 -107.0V-406.0C-426.0 -550.0 -439.0 -732.0 -561.0 -863.0C-553.0 -867.0 -542.0 -877.0 -538.0 -884.0C-414.0 -747.0 -396.0 -553.0 -396.0 -407.0V-107.0Z"/></g>
<g fill="black" opacity=".8" transform="translate(1500 600) scale(0.1 -0.1)"><path d="M0.0 0.0C-96.0 -36.0 -278.0 -73.0 -431.0 -98.0C-424.0 -107.0 -420.0 -117.0 -417.0 -125.0C-263.0 -102.0 -81.0 -66.0 31.0 -26.0ZM-428.0 -113.0V-400.0C-428.0 -545.0 -443.0 -733.0 -558.0 -872.0C-550.0 -875.0 -537.0 -885.0 -533.0 -894.0C-414.0 -751.0 -396.0 -553.0 -396.0 -400.0V-113.0Z"/></g>
<g fill="red" transform="translate(1600 600) scale(0.1 -0.1)"><path d="M0.0 0.0C-101.0 -48.0 -263.0 -93.0 -414.0 -120.0C-397.0 -150.0 -375.0 -205.0 -368.0 -238.0C-205.0 -212.0 -19.0 -169.0 126.0 -110.0ZM-414.0 -120.0V-391.0C-414.0 -532.0 -421.0 -731.0 -512.0 -863.0C-478.0 -879.0 -412.0 -928.0 -386.0 -955.0C-282.0 -806.0 -263.0 -556.0 -263.0 -392.0V-120.0Z"/></g>
<g fill="black" opacity=".8" transform="translate(1600 600) scale(0.1 -0.1)"><path d="M0.0 0.0C-100.0 -42.0 -262.0 -80.0 -410.0 -102.0C-393.0 -135.0 -370.0 -192.0 -364.0 -229.0C-202.0 -208.0 -17.0 -173.0 128.0 -121.0ZM-410.0 -116.0V-391.0C-410.0 -533.0 -420.0 -724.0 -526.0 -854.0C-489.0 -873.0 -422.0 -924.0 -395.0 -953.0C-275.0 -805.0 -254.0 -562.0 -254.0 -394.0V-116.0Z"/></g>
<g fill="red" transform="translate(100 700) scale(0.1 -0.1)"><path d="M0.0 0.0C-61.0 -32.0 -172.0 -65.0 -264.0 -90.0C-261.0 -98.0 -255.0 -108.0 -253.0 -115.0C-160.0 -93.0 -47.0 -59.0 23.0 -25.0ZM-264.0 -90.0V-445.0C-264.0 -578.0 -276.0 -743.0 -381.0 -863.0C-373.0 -867.0 -362.0 -877.0 -359.0 -883.0C-250.0 -760.0 -235.0 -582.0 -235.0 -445.0V-90.0Z"/></g>
<g fill="black" opacity=".8" transform="translate(100 700) scale(0.1 -0.1)"><path d="M0.0 0.0C-61.0 -31.0 -173.0 -64.0 -268.0 -88.0C-262.0 -97.0 -258.0 -107.0 -254.0 -114.0C-159.0 -91.0 -46.0 -59.0 26.0 -24.0ZM-268.0 -87.0V-445.0C-268.0 -577.0 -278.0 -744.0 -374.0 -865.0C-365.0 -869.0 -354.0 -877.0 -350.0 -885.0C-252.0 -760.0 -238.0 -583.0 -238.0 -445.0V-87.0Z"/></g>
<g fill="red" transform="translate(200 700) scale(0.1 -0.1)"><path d="M0.0 0.0C-65.0 -35.0 -163.0 -71.0 -254.0 -93.0C-238.0 -123.0 -218.0 -172.0 -211.0 -203.0C-110.0 -184.0 8.0 -153.0 105.0 -111.0ZM-254.0 -93.0V-428.0C-254.0 -562.0 -260.0 -738.0 -344.0 -857.0C-315.0 -872.0 -258.0 -917.0 -236.0 -941.0C-138.0 -808.0 -121.0 -583.0 -121.0 -428.0V-93.0Z"/></g>
<g fill="black" opacity=".8" transform="translate(200 700) scale(0.1 -0.1)"><path d="M0.0 0.0C-64.0 -36.0 -163.0 -73.0 -253.0 -97.0C-238.0 -127.0 -215.0 -177.0 -209.0 -209.0C-106.0 -187.0 14.0 -154.0 112.0 -112.0ZM-255.0 -95.0V-429.0C-255.0 -560.0 -262.0 -733.0 -347.0 -853.0C-316.0 -870.0 -259.0 -918.0 -237.0 -944.0C-138.0 -808.0 -120.0 -580.0 -120.0 -431.0V-95.0Z"/></g>
<g fill="red" transform="translate(300 700) scale(0.1 -0.1)"><path d="M0.0 0.0C-80.0 -29.0 -233.0 -55.0 -359.0 -72.0C-354.0 -80.0 -349.0 -90.0 -348.0 -97.0C-220.0 -81.0 -67.0 -55.0 26.0 -24.0ZM-359.0 -73.0V-226.0C-359.0 -340.0 -371.0 -469.0 -481.0 -570.0C-473.0 -574.0 -463.0 -582.0 -458.0 -589.0C-343.0 -483.0 -330.0 -351.0 -330.0 -226.0V-73.0Z"/></g>
<g fill="black" opacity=".8" transform="translate(300 700) scale(0.1 -0.1)"><path d="M0.0 0.0C-80.0 -29.0 -231.0 -57.0 -356.0 -75.0C-350.0 -84.0 -346.0 -94.0 -344.0 -101.0C-217.0 -83.0 -65.0 -56.0 28.0 -24.0ZM-363.0 -72.0V-226.0C-363.0 -337.0 -375.0 -475.0 -479.0 -579.0C-471.0 -583.0 -460.0 -592.0 -456.0 -599.0C-348.0 -491.0 -333.0 -347.0 -333.0 -227.0V-72.0Z"/></g>
<g fill="red" transform="translate(400 700) scale(0.1 -0.1)"><path d="M0.0 0.0C-83.0 -32.0 -224.0 -59.0 -352.0 -75.0C-339.0 -101.0 -321.0 -149.0 -316.0 -177.0C-176.0 -162.0 -13.0 -135.0 111.0 -93.0ZM-353.0 -75.0V-288.0C-353.0 -395.0 -369.0 -504.0 -483.0 -583.0C-451.0 -602.0 -402.0 -647.0 -378.0 -674.0C-246.0 -575.0 -228.0 -430.0 -228.0 -290.0V-75.0Z"/></g>
<g fill="black" opacity=".8" transform="translate(400 700) scale(0.1 -0.1)"><path d="M0.0 0.0C-86.0 -35.0 -227.0 -64.0 -354.0 -81.0C-341.0 -109.0 -320.0 -157.0 -316.0 -188.0C-178.0 -173.0 -17.0 -145.0 105.0 -103.0ZM-364.0 -75.0V-296.0C-364.0 -391.0 -376.0 -498.0 -473.0 -570.0C-440.0 -590.0 -384.0 -635.0 -360.0 -663.0C-247.0 -572.0 -229.0 -425.0 -229.0 -300.0V-75.0Z"/></g>
<g fill="red" transform="translate(500 700) scale(0.1 -0.1)"><path d="M0.0 0.0C-63.0 -32.0 -178.0 -66.0 -273.0 -90.0C-269.0 -98.0 -264.0 -108.0 -261.0 -115.0C-166.0 -93.0 -49.0 -60.0 23.0 -25.0ZM-274.0 -90.0V-446.0C-274.0 -578.0 -283.0 -745.0 -365.0 -867.0C-358.0 -871.0 -346.0 -880.0 -341.0 -887.0C-257.0 -761.0 -245.0 -581.0 -245.0 -446.0V-90.0Z"/></g>
<g fill="black" opacity=".8" transform="translate(500 700) scale(0.1 -0.1)"><path d="M0.0 0.0C-63.0 -30.0 -178.0 -63.0 -275.0 -87.0C-269.0 -95.0 -266.0 -104.0 -262.0 -111.0C-165.0 -89.0 -49.0 -57.0 24.0 -23.0ZM-270.0 -86.0V-446.0C-270.0 -577.0 -279.0 -744.0 -367.0 -865.0C-359.0 -869.0 -349.0 -877.0 -345.0 -884.0C-254.0 -759.0 -242.0 -583.0 -242.0 -446.0V-86.0Z"/></g>
<g fill="red" transform="translate(600 700) scale(0.1 -0.1)"><path d="M0.0 0.0C-64.0 -35.0 -160.0 -71.0 -249.0 -93.0C-233.0 -123.0 -212.0 -172.0 -205.0 -203.0C-107.0 -183.0 8.0 -154.0 104.0 -113.0ZM-250.0 -93.0V-465.0C-250.0 -591.0 -256.0 -750.0 -328.0 -857.0C-298.0 -872.0 -239.0 -918.0 -216.0 -943.0C-129.0 -821.0 -114.0 -613.0 -114.0 -465.0V-93.0Z"/></g>
<g fill="black" opacity=".8" transform="translate(600 700) scale(0.1 -0.1)"><path d="M0.0 0.0C-63.0 -35.0 -159.0 -73.0 -249.0 -96.0C-234.0 -124.0 -212.0 -172.0 -206.0 -203.0C-104.0 -181.0 14.0 -148.0 111.0 -107.0ZM-245.0 -94.0V-466.0C-245.0 -590.0 -252.0 -750.0 -328.0 -861.0C-299.0 -877.0 -245.0 -922.0 -224.0 -948.0C-133.0 -822.0 -117.0 -607.0 -117.0 -467.0V-94.0Z"/></g>
<g fill="red" transform="translate(700 700) scale(0.1 -0.1)"><path d="M0.0 0.0C-83.0 -35.0 -244.0 -72.0 -380.0 -97.0C-376.0 -104.0 -371.0 -114.0 -369.0 -121.0C-230.0 -97.0 -69.0 -60.0 32.0 -21.0ZM-381.0 -97.0V-352.0C-381.0 -506.0 -394.0 -713.0 -506.0 -866.0C-499.0 -869.0 -488.0 -879.0 -484.0 -885.0C-367.0 -728.0 -351.0 -510.0 -351.0 -352.0V-97.0Z"/></g>
<g fill="black" opacity=".8" transform="translate(700 700) scale(0.1 -0.1)"><path d="M0.0 0.0C-85.0 -35.0 -246.0 -71.0 -382.0 -97.0C-375.0 -105.0 -372.0 -114.0 -369.0 -122.0C-231.0 -98.0 -70.0 -63.0 31.0 -24.0ZM-383.0 -97.0V-352.0C-383.0 -505.0 -396.0 -712.0 -505.0 -865.0C-496.0 -868.0 -484.0 -878.0 -480.0 -886.0C-368.0 -728.0 -351.0 -512.0 -351.0 -353.0V-97.0Z"/></g>
<g fill="red" transform="translate(800 700) scale(0.1 -0.1)"><path d="M0.0 0.0C-91.0 -42.0 -232.0 -81.0 -364.0 -105.0C-345.0 -136.0 -323.0 -191.0 -316.0 -225.0C-173.0 -203.0 -9.0 -168.0 122.0 -116.0ZM-365.0 -105.0V-383.0C-365.0 -526.0 -372.0 -726.0 -469.0 -860.0C-435.0 -876.0 -370.0 -922.0 -345.0 -948.0C-233.0 -798.0 -215.0 -548.0 -215.0 -384.0V-105.0Z"/></g>
<g fill="black" opacity=".8" transform="translate(800 700) scale(0.1 -0.1)"><path d="M0.0 0.0C-89.0 -42.0 -231.0 -81.0 -361.0 -104.0C-344.0 -137.0 -321.0 -192.0 -316.0 -228.0C-172.0 -207.0 -8.0 -171.0 120.0 -120.0ZM-363.0 -103.0V-380.0C-363.0 -525.0 -372.0 -726.0 -470.0 -859.0C-434.0 -876.0 -370.0 -922.0 -344.0 -949.0C-235.0 -799.0 -217.0 -551.0 -217.0 -383.0V-103.0Z"/></g>
<g fill="red" transform="translate(900 700) scale(0.1 -0.1)"><path d="M0.0 0.0C-77.0 -27.0 -222.0 -54.0 -342.0 -71.0C-338.0 -78.0 -333.0 -89.0 -332.0 -96.0C-209.0 -80.0 -63.0 -54.0 26.0 -23.0ZM-342.0 -71.0V-186.0C-342.0 -273.0 -355.0 -369.0 -471.0 -441.0C-464.0 -446.0 -454.0 -455.0 -449.0 -462.0C-328.0 -385.0 -313.0 -284.0 -313.0 -186.0V-71.0Z"/></g>
<g fill="black" opacity=".8" transform="translate(900 700) scale(0.1 -0.1)"><path d="M0.0 0.0C-78.0 -27.0 -223.0 -54.0 -344.0 -72.0C-338.0 -80.0 -334.0 -90.0 -332.0 -97.0C-209.0 -80.0 -63.0 -54.0 27.0 -23.0ZM-342.0 -70.0V-192.0C-342.0 -273.0 -356.0 -363.0 -470.0 -430.0C-462.0 -434.0 -452.0 -443.0 -449.0 -450.0C-330.0 -379.0 -313.0 -285.0 -313.0 -192.0V-70.0Z"/></g>
<g fill="red" transform="translate(1000 700) scale(0.1 -0.1)"><path d="M0.0 0.0C-80.0 -30.0 -214.0 -56.0 -336.0 -70.0C-322.0 -96.0 -304.0 -143.0 -299.0 -171.0C-165.0 -158.0 -8.0 -133.0 112.0 -92.0ZM-336.0 -70.0V-206.0C-336.0 -274.0 -351.0 -343.0 -450.0 -390.0C-419.0 -411.0 -369.0 -455.0 -347.0 -483.0C-227.0 -417.0 -210.0 -312.0 -210.0 -209.0V-70.0Z"/></g>
<g fill="black" opacity=".8" transform="translate(1000 700) scale(0.1 -0.1)"><path d="M0.0 0.0C-79.0 -31.0 -213.0 -58.0 -334.0 -72.0C-322.0 -98.0 -303.0 -141.0 -298.0 -168.0C-165.0 -153.0 -10.0 -127.0 105.0 -88.0ZM-334.0 -69.0V-199.0C-334.0 -273.0 -348.0 -351.0 -456.0 -403.0C-425.0 -423.0 -373.0 -467.0 -351.0 -493.0C-226.0 -422.0 -206.0 -312.0 -206.0 -203.0V-69.0Z"/></g>
<g fill="red" transform="translate(1100 700) scale(0.1 -0.1)"><path d="M0.0 0.0C-82.0 -35.0 -241.0 -72.0 -375.0 -97.0C-371.0 -104.0 -366.0 -114.0 -364.0 -121.0C-227.0 -97.0 -68.0 -60.0 31.0 -21.0ZM-376.0 -97.0V-352.0C-376.0 -504.0 -387.0 -712.0 -483.0 -866.0C-476.0 -869.0 -464.0 -878.0 -459.0 -885.0C-360.0 -726.0 -347.0 -508.0 -347.0 -352.0V-97.0Z"/></g>
<g fill="black" opacity=".8" transform="translate(1100 700) scale(0.1 -0.1)"><path d="M0.0 0.0C-83.0 -34.0 -241.0 -70.0 -374.0 -96.0C-368.0 -104.0 -365.0 -112.0 -362.0 -119.0C-227.0 -95.0 -69.0 -60.0 30.0 -22.0ZM-373.0 -97.0V-351.0C-373.0 -504.0 -385.0 -712.0 -489.0 -866.0C-481.0 -869.0 -469.0 -878.0 -465.0 -885.0C-359.0 -727.0 -343.0 -509.0 -343.0 -351.0V-97.0Z"/></g>
<g fill="red" transform="translate(1200 700) scale(0.1 -0.1)"><path d="M0.0 0.0C-87.0 -42.0 -221.0 -81.0 -347.0 -105.0C-329.0 -136.0 -308.0 -191.0 -301.0 -225.0C-165.0 -203.0 -9.0 -168.0 116.0 -117.0ZM-348.0 -105.0V-383.0C-348.0 -526.0 -355.0 -726.0 -448.0 -860.0C-415.0 -876.0 -353.0 -922.0 -329.0 -948.0C-223.0 -798.0 -205.0 -548.0 -205.0 -384.0V-105.0Z"/></g>
<g fill="black" opacity=".8" transform="translate(1200 700) scale(0.1 -0.1)"><path d="M0.0 0.0C-86.0 -41.0 -221.0 -81.0 -347.0 -103.0C-331.0 -134.0 -309.0 -188.0 -303.0 -223.0C-165.0 -201.0 -7.0 -166.0 117.0 -115.0ZM-347.0 -103.0V-382.0C-347.0 -526.0 -355.0 -728.0 -447.0 -862.0C-413.0 -878.0 -351.0 -921.0 -326.0 -947.0C-224.0 -797.0 -207.0 -549.0 -207.0 -384.0V-103.0Z"/></g>
<g fill="red" transform="translate(1300 700) scale(0.1 -0.1)"><path d="M0.0 0.0C-86.0 -33.0 -249.0 -67.0 -385.0 -89.0C-380.0 -97.0 -375.0 -108.0 -373.0 -114.0C-237.0 -94.0 -73.0 -61.0 25.0 -24.0ZM-385.0 -89.0V-439.0C-385.0 -574.0 -393.0 -750.0 -479.0 -879.0C-471.0 -882.0 -460.0 -892.0 -455.0 -897.0C-367.0 -766.0 -355.0 -578.0 -355.0 -439.0V-89.0Z"/></g>
<g fill="black" opacity=".8" transform="translate(1300 700) scale(0.1 -0.1)"><path d="M0.0 0.0C-86.0 -33.0 -250.0 -64.0 -385.0 -86.0C-379.0 -95.0 -375.0 -105.0 -372.0 -112.0C-236.0 -92.0 -72.0 -61.0 27.0 -25.0ZM-382.0 -90.0V-439.0C-382.0 -575.0 -393.0 -748.0 -487.0 -874.0C-479.0 -878.0 -467.0 -886.0 -463.0 -894.0C-366.0 -764.0 -352.0 -581.0 -352.0 -439.0V-90.0Z"/></g>
<g fill="red" transform="translate(1400 700) scale(0.1 -0.1)"><path d="M0.0 0.0C-89.0 -39.0 -236.0 -76.0 -371.0 -97.0C-355.0 -126.0 -334.0 -180.0 -327.0 -211.0C-179.0 -191.0 -7.0 -156.0 128.0 -105.0ZM-371.0 -97.0V-428.0C-371.0 -563.0 -377.0 -739.0 -463.0 -856.0C-431.0 -873.0 -370.0 -921.0 -346.0 -948.0C-245.0 -814.0 -228.0 -585.0 -228.0 -429.0V-97.0Z"/></g>
<g fill="black" opacity=".8" transform="translate(1400 700) scale(0.1 -0.1)"><path d="M0.0 0.0C-92.0 -37.0 -237.0 -71.0 -370.0 -91.0C-354.0 -121.0 -332.0 -174.0 -327.0 -207.0C-183.0 -190.0 -16.0 -159.0 115.0 -114.0ZM-369.0 -94.0V-428.0C-369.0 -561.0 -376.0 -738.0 -462.0 -861.0C-429.0 -878.0 -369.0 -927.0 -345.0 -955.0C-244.0 -815.0 -226.0 -583.0 -226.0 -430.0V-94.0Z"/></g>
<g fill="red" transform="translate(1500 700) scale(0.1 -0.1)"><path d="M0.0 0.0C-77.0 -27.0 -222.0 -54.0 -342.0 -71.0C-338.0 -78.0 -333.0 -89.0 -332.0 -96.0C-209.0 -80.0 -63.0 -54.0 26.0 -23.0ZM-342.0 -71.0V-159.0C-342.0 -228.0 -355.0 -303.0 -474.0 -353.0C-466.0 -358.0 -457.0 -368.0 -452.0 -375.0C-330.0 -318.0 -314.0 -240.0 -314.0 -159.0V-71.0Z"/></g>
<g fill="black" opacity=".8" transform="translate(1500 700) scale(0.1 -0.1)"><path d="M0.0 0.0C-78.0 -26.0 -223.0 -53.0 -344.0 -69.0C-338.0 -77.0 -335.0 -87.0 -333.0 -94.0C-210.0 -78.0 -64.0 -52.0 26.0 -23.0ZM-342.0 -70.0V-152.0C-342.0 -227.0 -356.0 -307.0 -470.0 -367.0C-462.0 -371.0 -453.0 -380.0 -449.0 -387.0C-330.0 -322.0 -314.0 -240.0 -314.0 -152.0V-70.0Z"/></g>
<g fill="red" transform="translate(1600 700) scale(0.1 -0.1)"><path d="M0.0 0.0C-79.0 -30.0 -214.0 -55.0 -336.0 -70.0C-323.0 -94.0 -306.0 -138.0 -301.0 -164.0C-168.0 -150.0 -13.0 -125.0 105.0 -86.0ZM-336.0 -70.0V-190.0C-336.0 -251.0 -351.0 -313.0 -450.0 -354.0C-419.0 -375.0 -370.0 -419.0 -348.0 -447.0C-228.0 -388.0 -210.0 -291.0 -210.0 -194.0V-70.0Z"/></g>
<g fill="black" opacity=".8" transform="translate(1600 700) scale(0.1 -0.1)"><path d="M0.0 0.0C-78.0 -30.0 -213.0 -56.0 -333.0 -70.0C-322.0 -94.0 -304.0 -137.0 -299.0 -162.0C-166.0 -148.0 -11.0 -123.0 103.0 -84.0ZM-334.0 -69.0V-193.0C-334.0 -256.0 -349.0 -309.0 -457.0 -344.0C-425.0 -365.0 -376.0 -408.0 -354.0 -434.0C-228.0 -380.0 -209.0 -296.0 -209.0 -198.0V-69.0Z"/></g>
<g fill="red" transform="translate(100 800) scale(0.1 -0.1)"><path d="M0.0 0.0C-87.0 -36.0 -256.0 -73.0 -397.0 -98.0C-392.0 -105.0 -387.0 -115.0 -385.0 -122.0C-242.0 -98.0 -74.0 -62.0 28.0 -22.0ZM-397.0 -98.0V-405.0C-397.0 -548.0 -408.0 -735.0 -510.0 -871.0C-503.0 -875.0 -491.0 -884.0 -486.0 -891.0C-382.0 -749.0 -367.0 -551.0 -367.0 -405.0V-98.0Z"/></g>
<g fill="black" opacity=".8" transform="translate(100 800) scale(0.1 -0.1)"><path d="M0.0 0.0C-87.0 -34.0 -255.0 -68.0 -395.0 -91.0C-389.0 -100.0 -385.0 -109.0 -382.0 -116.0C-241.0 -95.0 -73.0 -61.0 29.0 -23.0ZM-397.0 -90.0V-402.0C-397.0 -547.0 -410.0 -739.0 -513.0 -881.0C-505.0 -884.0 -494.0 -893.0 -490.0 -900.0C-384.0 -756.0 -367.0 -552.0 -367.0 -402.0V-90.0Z"/></g>
<g fill="red" transform="translate(200 800) scale(0.1 -0.1)"><path d="M0.0 0.0C-93.0 -36.0 -241.0 -67.0 -379.0 -85.0C-362.0 -116.0 -341.0 -172.0 -335.0 -206.0C-185.0 -191.0 -12.0 -161.0 126.0 -114.0ZM-379.0 -85.0V-330.0C-379.0 -487.0 -387.0 -716.0 -492.0 -870.0C-459.0 -885.0 -397.0 -929.0 -372.0 -954.0C-256.0 -785.0 -237.0 -506.0 -237.0 -330.0V-85.0Z"/></g>
<g fill="black" opacity=".8" transform="translate(200 800) scale(0.1 -0.1)"><path d="M0.0 0.0C-94.0 -39.0 -243.0 -74.0 -380.0 -94.0C-363.0 -126.0 -341.0 -180.0 -336.0 -214.0C-187.0 -196.0 -16.0 -165.0 116.0 -116.0ZM-383.0 -91.0V-334.0C-383.0 -486.0 -390.0 -708.0 -485.0 -859.0C-452.0 -874.0 -387.0 -921.0 -362.0 -946.0C-258.0 -779.0 -238.0 -508.0 -238.0 -336.0V-91.0Z"/></g>
<g fill="red" transform="translate(300 800) scale(0.1 -0.1)"><path d="M0.0 0.0C-68.0 -24.0 -202.0 -46.0 -311.0 -58.0C-306.0 -65.0 -302.0 -76.0 -300.0 -83.0C-190.0 -72.0 -55.0 -51.0 26.0 -23.0ZM-311.0 -58.0V-263.0C-311.0 -389.0 -322.0 -559.0 -405.0 -687.0C-398.0 -690.0 -387.0 -698.0 -382.0 -705.0C-296.0 -574.0 -282.0 -393.0 -282.0 -263.0V-58.0Z"/></g>
<g fill="black" opacity=".8" transform="translate(300 800) scale(0.1 -0.1)"><path d="M0.0 0.0C-69.0 -26.0 -204.0 -51.0 -316.0 -68.0C-309.0 -75.0 -307.0 -83.0 -304.0 -89.0C-192.0 -74.0 -57.0 -49.0 25.0 -20.0ZM-310.0 -49.0V-271.0C-310.0 -391.0 -320.0 -554.0 -398.0 -676.0C-391.0 -678.0 -381.0 -685.0 -377.0 -691.0C-297.0 -567.0 -284.0 -395.0 -284.0 -271.0V-49.0Z"/></g>
<g fill="red" transform="translate(400 800) scale(0.1 -0.1)"><path d="M0.0 0.0C-78.0 -30.0 -208.0 -46.0 -331.0 -52.0C-314.0 -83.0 -295.0 -137.0 -290.0 -170.0C-154.0 -167.0 4.0 -149.0 121.0 -104.0ZM-331.0 -50.0V-260.0C-331.0 -374.0 -334.0 -537.0 -387.0 -650.0C-355.0 -664.0 -293.0 -705.0 -269.0 -728.0C-206.0 -600.0 -194.0 -396.0 -194.0 -261.0V-50.0Z"/></g>
<g fill="black" opacity=".8" transform="translate(400 800) scale(0.1 -0.1)"><path d="M0.0 0.0C-80.0 -31.0 -206.0 -59.0 -320.0 -73.0C-307.0 -100.0 -289.0 -143.0 -285.0 -172.0C-163.0 -160.0 -22.0 -136.0 87.0 -98.0ZM-316.0 -52.0V-253.0C-316.0 -374.0 -322.0 -547.0 -395.0 -664.0C-367.0 -677.0 -314.0 -715.0 -294.0 -736.0C-213.0 -606.0 -197.0 -394.0 -197.0 -256.0V-52.0Z"/></g>
<g fill="red" transform="translate(500 800) scale(0.1 -0.1)"><path d="M0.0 0.0C-99.0 -29.0 -296.0 -51.0 -452.0 -63.0C-448.0 -71.0 -444.0 -82.0 -442.0 -88.0C-283.0 -78.0 -88.0 -55.0 26.0 -24.0ZM-452.0 -63.0V-276.0C-452.0 -407.0 -466.0 -583.0 -573.0 -713.0C-566.0 -717.0 -556.0 -725.0 -551.0 -731.0C-440.0 -598.0 -422.0 -412.0 -422.0 -276.0V-63.0Z"/></g>
<g fill="black" opacity=".8" transform="translate(500 800) scale(0.1 -0.1)"><path d="M0.0 0.0C-100.0 -31.0 -296.0 -61.0 -457.0 -80.0C-451.0 -87.0 -449.0 -94.0 -447.0 -101.0C-284.0 -83.0 -90.0 -54.0 26.0 -19.0ZM-452.0 -58.0V-283.0C-452.0 -410.0 -464.0 -579.0 -559.0 -705.0C-552.0 -707.0 -543.0 -715.0 -539.0 -722.0C-442.0 -593.0 -426.0 -415.0 -426.0 -283.0V-58.0Z"/></g>
<g fill="red" transform="translate(600 800) scale(0.1 -0.1)"><path d="M0.0 0.0C-101.0 -33.0 -271.0 -50.0 -428.0 -54.0C-412.0 -86.0 -394.0 -141.0 -389.0 -174.0C-221.0 -172.0 -26.0 -155.0 118.0 -106.0ZM-428.0 -54.0V-272.0C-428.0 -392.0 -434.0 -560.0 -513.0 -675.0C-478.0 -691.0 -413.0 -737.0 -387.0 -763.0C-296.0 -632.0 -280.0 -418.0 -280.0 -273.0V-54.0Z"/></g>
<g fill="black" opacity=".8" transform="translate(600 800) scale(0.1 -0.1)"><path d="M0.0 0.0C-102.0 -36.0 -269.0 -65.0 -422.0 -79.0C-408.0 -106.0 -389.0 -155.0 -385.0 -185.0C-221.0 -171.0 -33.0 -144.0 111.0 -97.0ZM-420.0 -53.0V-267.0C-420.0 -392.0 -426.0 -570.0 -515.0 -688.0C-483.0 -702.0 -426.0 -741.0 -404.0 -763.0C-307.0 -631.0 -290.0 -415.0 -290.0 -269.0V-53.0Z"/></g>
<g fill="red" transform="translate(700 800) scale(0.1 -0.1)"><path d="M0.0 0.0C-60.0 -25.0 -173.0 -49.0 -267.0 -65.0C-263.0 -73.0 -258.0 -82.0 -256.0 -89.0C-160.0 -75.0 -46.0 -51.0 27.0 -24.0ZM-267.0 -65.0V-264.0C-267.0 -411.0 -277.0 -576.0 -377.0 -712.0C-369.0 -716.0 -359.0 -724.0 -354.0 -731.0C-250.0 -589.0 -238.0 -420.0 -238.0 -263.0V-65.0Z"/></g>
<g fill="black" opacity=".8" transform="translate(700 800) scale(0.1 -0.1)"><path d="M0.0 0.0C-61.0 -26.0 -176.0 -51.0 -273.0 -68.0C-266.0 -76.0 -263.0 -85.0 -260.0 -92.0C-163.0 -76.0 -47.0 -51.0 26.0 -22.0ZM-274.0 -63.0V-286.0C-274.0 -405.0 -283.0 -566.0 -362.0 -686.0C-354.0 -689.0 -343.0 -697.0 -339.0 -704.0C-258.0 -581.0 -246.0 -412.0 -246.0 -286.0V-63.0Z"/></g>
<g fill="red" transform="translate(800 800) scale(0.1 -0.1)"><path d="M0.0 0.0C-74.0 -29.0 -190.0 -54.0 -295.0 -69.0C-281.0 -97.0 -264.0 -142.0 -259.0 -171.0C-146.0 -159.0 -12.0 -137.0 92.0 -102.0ZM-295.0 -69.0V-321.0C-295.0 -440.0 -304.0 -563.0 -368.0 -661.0C-337.0 -677.0 -287.0 -715.0 -263.0 -739.0C-187.0 -622.0 -177.0 -468.0 -177.0 -323.0V-69.0Z"/></g>
<g fill="black" opacity=".8" transform="translate(800 800) scale(0.1 -0.1)"><path d="M0.0 0.0C-74.0 -32.0 -188.0 -61.0 -290.0 -77.0C-277.0 -105.0 -258.0 -150.0 -254.0 -180.0C-143.0 -166.0 -14.0 -141.0 86.0 -105.0ZM-294.0 -71.0V-314.0C-294.0 -427.0 -301.0 -579.0 -375.0 -682.0C-346.0 -697.0 -292.0 -740.0 -271.0 -764.0C-186.0 -645.0 -171.0 -450.0 -171.0 -316.0V-71.0Z"/></g>
<g fill="red" transform="translate(900 800) scale(0.1 -0.1)"><path d="M0.0 0.0C-81.0 -36.0 -236.0 -69.0 -362.0 -91.0C-358.0 -99.0 -354.0 -110.0 -353.0 -117.0C-226.0 -95.0 -72.0 -62.0 19.0 -25.0ZM-362.0 -91.0V-339.0C-362.0 -486.0 -371.0 -687.0 -450.0 -835.0C-444.0 -840.0 -431.0 -851.0 -427.0 -859.0C-344.0 -706.0 -332.0 -491.0 -332.0 -339.0V-91.0Z"/></g>
<g fill="black" opacity=".8" transform="translate(900 800) scale(0.1 -0.1)"><path d="M0.0 0.0C-80.0 -32.0 -235.0 -63.0 -365.0 -84.0C-359.0 -92.0 -355.0 -100.0 -353.0 -107.0C-222.0 -88.0 -67.0 -57.0 28.0 -22.0ZM-358.0 -87.0V-333.0C-358.0 -483.0 -368.0 -693.0 -455.0 -849.0C-447.0 -851.0 -435.0 -859.0 -431.0 -866.0C-342.0 -707.0 -329.0 -488.0 -329.0 -333.0V-87.0Z"/></g>
<g fill="red" transform="translate(1000 800) scale(0.1 -0.1)"><path d="M0.0 0.0C-90.0 -40.0 -228.0 -75.0 -357.0 -95.0C-342.0 -126.0 -326.0 -182.0 -321.0 -217.0C-185.0 -200.0 -29.0 -168.0 94.0 -119.0ZM-357.0 -93.0V-376.0C-357.0 -519.0 -362.0 -722.0 -434.0 -857.0C-400.0 -872.0 -340.0 -914.0 -315.0 -940.0C-236.0 -790.0 -223.0 -542.0 -223.0 -376.0V-93.0Z"/></g>
<g fill="black" opacity=".8" transform="translate(1000 800) scale(0.1 -0.1)"><path d="M0.0 0.0C-90.0 -39.0 -231.0 -74.0 -360.0 -93.0C-345.0 -123.0 -324.0 -175.0 -319.0 -209.0C-181.0 -191.0 -23.0 -161.0 102.0 -115.0ZM-354.0 -95.0V-381.0C-354.0 -521.0 -360.0 -719.0 -438.0 -851.0C-406.0 -865.0 -346.0 -908.0 -323.0 -933.0C-235.0 -785.0 -220.0 -542.0 -220.0 -382.0V-95.0Z"/></g>
<g fill="red" transform="translate(1100 800) scale(0.1 -0.1)"><path d="M0.0 0.0C-46.0 -25.0 -134.0 -50.0 -210.0 -67.0C-205.0 -74.0 -200.0 -84.0 -198.0 -89.0C-120.0 -74.0 -31.0 -49.0 29.0 -21.0ZM-210.0 -67.0V-339.0C-210.0 -485.0 -214.0 -694.0 -266.0 -848.0C-259.0 -851.0 -246.0 -858.0 -241.0 -863.0C-187.0 -706.0 -180.0 -488.0 -180.0 -339.0V-67.0Z"/></g>
<g fill="black" opacity=".8" transform="translate(1100 800) scale(0.1 -0.1)"><path d="M0.0 0.0C-47.0 -26.0 -134.0 -52.0 -208.0 -70.0C-202.0 -78.0 -198.0 -86.0 -195.0 -92.0C-121.0 -75.0 -33.0 -50.0 24.0 -21.0ZM-206.0 -65.0V-343.0C-206.0 -486.0 -212.0 -690.0 -271.0 -842.0C-263.0 -845.0 -251.0 -851.0 -247.0 -858.0C-187.0 -703.0 -180.0 -491.0 -180.0 -343.0V-65.0Z"/></g>
<g fill="red" transform="translate(1200 800) scale(0.1 -0.1)"><path d="M0.0 0.0C-59.0 -29.0 -146.0 -62.0 -225.0 -83.0C-210.0 -112.0 -191.0 -159.0 -185.0 -189.0C-98.0 -172.0 7.0 -145.0 96.0 -112.0ZM-225.0 -83.0V-450.0C-225.0 -575.0 -228.0 -739.0 -277.0 -851.0C-254.0 -866.0 -205.0 -915.0 -187.0 -940.0C-120.0 -810.0 -107.0 -594.0 -107.0 -450.0V-83.0Z"/></g>
<g fill="black" opacity=".8" transform="translate(1200 800) scale(0.1 -0.1)"><path d="M0.0 0.0C-61.0 -33.0 -145.0 -67.0 -224.0 -87.0C-211.0 -116.0 -191.0 -160.0 -186.0 -191.0C-102.0 -174.0 -3.0 -147.0 78.0 -112.0ZM-225.0 -81.0V-449.0C-225.0 -576.0 -228.0 -747.0 -279.0 -863.0C-251.0 -876.0 -201.0 -915.0 -181.0 -939.0C-119.0 -809.0 -109.0 -589.0 -109.0 -450.0V-81.0Z"/></g>
<g fill="red" transform="translate(1300 800) scale(0.1 -0.1)"><path d="M0.0 0.0C-64.0 -32.0 -186.0 -63.0 -286.0 -84.0C-283.0 -92.0 -279.0 -102.0 -277.0 -109.0C-176.0 -89.0 -53.0 -59.0 19.0 -25.0ZM-287.0 -84.0V-333.0C-287.0 -481.0 -296.0 -684.0 -376.0 -833.0C-369.0 -837.0 -357.0 -849.0 -352.0 -856.0C-270.0 -702.0 -257.0 -486.0 -257.0 -334.0V-84.0Z"/></g>
<g fill="black" opacity=".8" transform="translate(1300 800) scale(0.1 -0.1)"><path d="M0.0 0.0C-64.0 -30.0 -186.0 -60.0 -290.0 -81.0C-283.0 -90.0 -280.0 -98.0 -277.0 -105.0C-172.0 -85.0 -50.0 -56.0 28.0 -22.0ZM-284.0 -82.0V-329.0C-284.0 -478.0 -294.0 -689.0 -376.0 -845.0C-368.0 -848.0 -356.0 -856.0 -352.0 -863.0C-267.0 -703.0 -255.0 -484.0 -255.0 -329.0V-82.0Z"/></g>
<g fill="red" transform="translate(1400 800) scale(0.1 -0.1)"><path d="M0.0 0.0C-79.0 -38.0 -192.0 -73.0 -298.0 -93.0C-283.0 -125.0 -267.0 -179.0 -262.0 -214.0C-151.0 -197.0 -24.0 -170.0 79.0 -126.0ZM-298.0 -93.0V-376.0C-298.0 -519.0 -303.0 -722.0 -375.0 -857.0C-342.0 -872.0 -282.0 -914.0 -257.0 -939.0C-178.0 -789.0 -165.0 -542.0 -165.0 -376.0V-93.0Z"/></g>
<g fill="black" opacity=".8" transform="translate(1400 800) scale(0.1 -0.1)"><path d="M0.0 0.0C-78.0 -37.0 -194.0 -73.0 -301.0 -94.0C-286.0 -125.0 -265.0 -175.0 -260.0 -209.0C-145.0 -191.0 -12.0 -161.0 94.0 -118.0ZM-297.0 -94.0V-380.0C-297.0 -520.0 -303.0 -718.0 -377.0 -850.0C-346.0 -865.0 -287.0 -908.0 -264.0 -933.0C-180.0 -785.0 -165.0 -541.0 -165.0 -382.0V-94.0Z"/></g>
<g fill="red" transform="translate(1500 800) scale(0.1 -0.1)"><path d="M0.0 0.0C-62.0 -32.0 -180.0 -64.0 -276.0 -86.0C-273.0 -94.0 -268.0 -104.0 -265.0 -111.0C-167.0 -89.0 -49.0 -58.0 24.0 -25.0ZM-276.0 -86.0V-335.0C-276.0 -479.0 -283.0 -683.0 -354.0 -835.0C-346.0 -838.0 -334.0 -847.0 -329.0 -853.0C-257.0 -697.0 -247.0 -483.0 -247.0 -335.0V-86.0Z"/></g>
<g fill="black" opacity=".8" transform="translate(1500 800) scale(0.1 -0.1)"><path d="M0.0 0.0C-62.0 -29.0 -181.0 -58.0 -280.0 -78.0C-274.0 -86.0 -270.0 -95.0 -267.0 -102.0C-167.0 -84.0 -48.0 -56.0 28.0 -23.0ZM-273.0 -80.0V-332.0C-273.0 -478.0 -281.0 -684.0 -358.0 -838.0C-350.0 -840.0 -337.0 -848.0 -333.0 -856.0C-254.0 -699.0 -243.0 -484.0 -243.0 -332.0V-80.0Z"/></g>
<g fill="red" transform="translate(1600 800) scale(0.1 -0.1)"><path d="M0.0 0.0C-79.0 -36.0 -193.0 -71.0 -300.0 -91.0C-284.0 -123.0 -264.0 -175.0 -258.0 -209.0C-144.0 -192.0 -12.0 -164.0 96.0 -123.0ZM-300.0 -91.0V-418.0C-300.0 -551.0 -304.0 -733.0 -366.0 -855.0C-331.0 -868.0 -267.0 -906.0 -240.0 -929.0C-171.0 -793.0 -159.0 -571.0 -159.0 -418.0V-91.0Z"/></g>
<g fill="black" opacity=".8" transform="translate(1600 800) scale(0.1 -0.1)"><path d="M0.0 0.0C-77.0 -37.0 -192.0 -71.0 -297.0 -92.0C-283.0 -123.0 -262.0 -172.0 -257.0 -206.0C-144.0 -188.0 -14.0 -160.0 90.0 -119.0ZM-291.0 -94.0V-418.0C-291.0 -550.0 -297.0 -729.0 -366.0 -849.0C-335.0 -864.0 -278.0 -908.0 -255.0 -934.0C-174.0 -798.0 -160.0 -571.0 -160.0 -420.0V-94.0Z"/></g>
<g fill="red" transform="translate(100 900) scale(0.1 -0.1)"><path d="M0.0 0.0C-66.0 -24.0 -201.0 -41.0 -306.0 -50.0C-302.0 -58.0 -297.0 -69.0 -296.0 -76.0C-188.0 -68.0 -53.0 -50.0 25.0 -24.0ZM-305.0 -49.0V-208.0C-305.0 -293.0 -315.0 -407.0 -381.0 -493.0C-374.0 -496.0 -361.0 -504.0 -356.0 -510.0C-290.0 -422.0 -276.0 -297.0 -276.0 -208.0V-49.0Z"/></g>
<g fill="black" opacity=".8" transform="translate(100 900) scale(0.1 -0.1)"><path d="M0.0 0.0C-68.0 -23.0 -199.0 -43.0 -306.0 -54.0C-300.0 -62.0 -296.0 -72.0 -295.0 -78.0C-186.0 -67.0 -54.0 -49.0 25.0 -23.0ZM-297.0 -53.0V-206.0C-297.0 -293.0 -308.0 -403.0 -388.0 -487.0C-380.0 -489.0 -370.0 -497.0 -366.0 -504.0C-283.0 -418.0 -269.0 -302.0 -269.0 -206.0V-53.0Z"/></g>
<g fill="red" transform="translate(200 900) scale(0.1 -0.1)"><path d="M0.0 0.0C-88.0 -31.0 -221.0 -52.0 -336.0 -63.0C-324.0 -92.0 -310.0 -136.0 -306.0 -165.0C-190.0 -160.0 -49.0 -142.0 55.0 -110.0ZM-338.0 -63.0V-202.0C-338.0 -282.0 -345.0 -382.0 -421.0 -457.0C-393.0 -473.0 -338.0 -520.0 -317.0 -545.0C-229.0 -457.0 -211.0 -314.0 -211.0 -206.0V-63.0Z"/></g>
<g fill="black" opacity=".8" transform="translate(200 900) scale(0.1 -0.1)"><path d="M0.0 0.0C-84.0 -27.0 -221.0 -47.0 -341.0 -58.0C-330.0 -83.0 -313.0 -124.0 -310.0 -150.0C-184.0 -143.0 -35.0 -124.0 76.0 -93.0ZM-334.0 -56.0V-198.0C-334.0 -284.0 -343.0 -392.0 -424.0 -468.0C-396.0 -484.0 -345.0 -527.0 -324.0 -551.0C-231.0 -459.0 -214.0 -315.0 -214.0 -202.0V-56.0Z"/></g>
<g fill="red" transform="translate(300 900) scale(0.1 -0.1)"><path d="M0.0 0.0C-66.0 -24.0 -201.0 -41.0 -307.0 -50.0C-302.0 -58.0 -297.0 -69.0 -296.0 -76.0C-188.0 -68.0 -53.0 -50.0 25.0 -24.0ZM-306.0 -49.0V-231.0C-306.0 -327.0 -314.0 -457.0 -377.0 -555.0C-370.0 -558.0 -358.0 -565.0 -353.0 -571.0C-288.0 -472.0 -276.0 -331.0 -276.0 -231.0V-49.0Z"/></g>
<g fill="black" opacity=".8" transform="translate(300 900) scale(0.1 -0.1)"><path d="M0.0 0.0C-67.0 -23.0 -199.0 -42.0 -306.0 -53.0C-300.0 -61.0 -297.0 -70.0 -295.0 -77.0C-187.0 -66.0 -54.0 -47.0 24.0 -22.0ZM-300.0 -50.0V-229.0C-300.0 -327.0 -309.0 -458.0 -380.0 -556.0C-372.0 -559.0 -362.0 -566.0 -358.0 -572.0C-285.0 -471.0 -273.0 -334.0 -273.0 -229.0V-50.0Z"/></g>
<g fill="red" transform="translate(400 900) scale(0.1 -0.1)"><path d="M0.0 0.0C-88.0 -28.0 -221.0 -48.0 -336.0 -58.0C-324.0 -85.0 -310.0 -126.0 -306.0 -153.0C-190.0 -148.0 -49.0 -131.0 55.0 -102.0ZM-338.0 -58.0V-230.0C-338.0 -325.0 -345.0 -453.0 -419.0 -544.0C-390.0 -559.0 -335.0 -600.0 -313.0 -623.0C-227.0 -518.0 -211.0 -351.0 -211.0 -232.0V-58.0Z"/></g>
<g fill="black" opacity=".8" transform="translate(400 900) scale(0.1 -0.1)"><path d="M0.0 0.0C-85.0 -27.0 -220.0 -48.0 -340.0 -58.0C-328.0 -84.0 -312.0 -125.0 -310.0 -152.0C-185.0 -145.0 -38.0 -127.0 73.0 -95.0ZM-336.0 -54.0V-230.0C-336.0 -326.0 -343.0 -455.0 -413.0 -544.0C-386.0 -558.0 -336.0 -600.0 -316.0 -622.0C-234.0 -518.0 -219.0 -352.0 -219.0 -233.0V-54.0Z"/></g>
<g fill="red" transform="translate(500 900) scale(0.1 -0.1)"><path d="M0.0 0.0C-155.0 -28.0 -488.0 -38.0 -741.0 -35.0C-738.0 -43.0 -734.0 -55.0 -734.0 -63.0C-474.0 -66.0 -144.0 -56.0 35.0 -23.0ZM-271.0 420.0V274.0C-271.0 194.0 -280.0 88.0 -339.0 9.0C-332.0 6.0 -320.0 -2.0 -315.0 -8.0C-255.0 74.0 -242.0 190.0 -242.0 273.0V420.0Z"/></g>
<g fill="black" opacity=".8" transform="translate(500 900) scale(0.1 -0.1)"><path d="M0.0 0.0C-156.0 -28.0 -487.0 -38.0 -741.0 -37.0C-737.0 -44.0 -735.0 -53.0 -734.0 -61.0C-476.0 -61.0 -149.0 -51.0 28.0 -20.0ZM-267.0 421.0V275.0C-267.0 192.0 -275.0 87.0 -338.0 9.0C-332.0 7.0 -322.0 1.0 -319.0 -5.0C-254.0 76.0 -243.0 186.0 -243.0 274.0V421.0Z"/></g>
<g fill="red" transform="translate(600 900) scale(0.1 -0.1)"><path d="M0.0 0.0C-170.0 -22.0 -473.0 -31.0 -731.0 -27.0C-723.0 -47.0 -713.0 -83.0 -712.0 -105.0C-449.0 -110.0 -137.0 -101.0 80.0 -71.0ZM-244.0 444.0V310.0C-244.0 235.0 -250.0 138.0 -317.0 66.0C-287.0 53.0 -230.0 17.0 -207.0 -2.0C-131.0 79.0 -117.0 210.0 -117.0 308.0V444.0Z"/></g>
<g fill="black" opacity=".8" transform="translate(600 900) scale(0.1 -0.1)"><path d="M0.0 0.0C-172.0 -24.0 -472.0 -32.0 -731.0 -25.0C-723.0 -46.0 -712.0 -84.0 -713.0 -107.0C-448.0 -114.0 -138.0 -107.0 80.0 -73.0ZM-240.0 446.0V312.0C-240.0 233.0 -246.0 133.0 -316.0 63.0C-286.0 50.0 -235.0 18.0 -213.0 0.0C-134.0 80.0 -122.0 209.0 -122.0 309.0V446.0Z"/></g>
<g fill="red" transform="translate(700 900) scale(0.1 -0.1)"><path d="M0.0 0.0C-67.0 -34.0 -199.0 -70.0 -310.0 -95.0C-306.0 -102.0 -301.0 -111.0 -298.0 -118.0C-184.0 -94.0 -54.0 -59.0 30.0 -21.0ZM-310.0 -95.0V-354.0C-310.0 -508.0 -320.0 -720.0 -416.0 -876.0C-409.0 -880.0 -398.0 -889.0 -393.0 -894.0C-294.0 -734.0 -280.0 -512.0 -280.0 -354.0V-95.0Z"/></g>
<g fill="black" opacity=".8" transform="translate(700 900) scale(0.1 -0.1)"><path d="M0.0 0.0C-69.0 -32.0 -200.0 -66.0 -311.0 -91.0C-305.0 -99.0 -301.0 -108.0 -298.0 -115.0C-185.0 -92.0 -55.0 -58.0 29.0 -22.0ZM-310.0 -95.0V-356.0C-310.0 -507.0 -321.0 -717.0 -416.0 -872.0C-408.0 -875.0 -396.0 -883.0 -392.0 -891.0C-294.0 -732.0 -280.0 -513.0 -280.0 -356.0V-95.0Z"/></g>
<g fill="red" transform="translate(800 900) scale(0.1 -0.1)"><path d="M0.0 0.0C-76.0 -42.0 -192.0 -81.0 -302.0 -105.0C-287.0 -136.0 -269.0 -189.0 -262.0 -222.0C-144.0 -200.0 -10.0 -165.0 98.0 -114.0ZM-302.0 -105.0V-384.0C-302.0 -527.0 -309.0 -727.0 -389.0 -860.0C-360.0 -877.0 -302.0 -926.0 -280.0 -953.0C-188.0 -803.0 -171.0 -550.0 -171.0 -385.0V-105.0Z"/></g>
<g fill="black" opacity=".8" transform="translate(800 900) scale(0.1 -0.1)"><path d="M0.0 0.0C-77.0 -40.0 -195.0 -78.0 -304.0 -101.0C-288.0 -132.0 -266.0 -184.0 -260.0 -219.0C-140.0 -198.0 -3.0 -165.0 106.0 -118.0ZM-303.0 -105.0V-381.0C-303.0 -527.0 -310.0 -733.0 -395.0 -870.0C-363.0 -885.0 -302.0 -929.0 -278.0 -954.0C-184.0 -801.0 -167.0 -548.0 -167.0 -384.0V-105.0Z"/></g>
<g fill="red" transform="translate(900 900) scale(0.1 -0.1)"><path d="M0.0 0.0C-82.0 -25.0 -238.0 -47.0 -366.0 -60.0C-362.0 -68.0 -357.0 -79.0 -356.0 -86.0C-227.0 -74.0 -70.0 -51.0 25.0 -24.0ZM-366.0 -60.0V-287.0C-366.0 -412.0 -381.0 -574.0 -487.0 -693.0C-480.0 -697.0 -470.0 -707.0 -466.0 -713.0C-354.0 -590.0 -336.0 -417.0 -336.0 -287.0V-60.0Z"/></g>
<g fill="black" opacity=".8" transform="translate(900 900) scale(0.1 -0.1)"><path d="M0.0 0.0C-81.0 -28.0 -240.0 -51.0 -369.0 -64.0C-362.0 -73.0 -357.0 -85.0 -355.0 -93.0C-225.0 -81.0 -65.0 -59.0 30.0 -28.0ZM-377.0 -61.0V-295.0C-377.0 -413.0 -389.0 -569.0 -477.0 -685.0C-468.0 -689.0 -455.0 -698.0 -450.0 -706.0C-359.0 -586.0 -344.0 -421.0 -344.0 -295.0V-61.0Z"/></g>
<g fill="red" transform="translate(1000 900) scale(0.1 -0.1)"><path d="M0.0 0.0C-105.0 -30.0 -270.0 -53.0 -419.0 -65.0C-405.0 -93.0 -388.0 -141.0 -384.0 -172.0C-230.0 -163.0 -49.0 -142.0 90.0 -106.0ZM-419.0 -65.0V-276.0C-419.0 -396.0 -428.0 -556.0 -534.0 -665.0C-505.0 -681.0 -447.0 -729.0 -425.0 -755.0C-306.0 -631.0 -283.0 -423.0 -283.0 -278.0V-65.0Z"/></g>
<g fill="black" opacity=".8" transform="translate(1000 900) scale(0.1 -0.1)"><path d="M0.0 0.0C-105.0 -33.0 -272.0 -57.0 -418.0 -69.0C-404.0 -101.0 -384.0 -152.0 -381.0 -186.0C-227.0 -178.0 -46.0 -157.0 89.0 -119.0ZM-430.0 -66.0V-271.0C-430.0 -391.0 -439.0 -553.0 -527.0 -666.0C-494.0 -684.0 -431.0 -737.0 -406.0 -765.0C-303.0 -633.0 -283.0 -423.0 -283.0 -275.0V-66.0Z"/></g>
<g fill="red" transform="translate(1100 900) scale(0.1 -0.1)"><path d="M0.0 0.0C-85.0 -35.0 -249.0 -72.0 -389.0 -97.0C-384.0 -104.0 -379.0 -114.0 -377.0 -121.0C-235.0 -97.0 -71.0 -60.0 32.0 -21.0ZM-390.0 -97.0V-352.0C-390.0 -504.0 -401.0 -712.0 -500.0 -866.0C-493.0 -869.0 -481.0 -878.0 -476.0 -885.0C-374.0 -726.0 -359.0 -508.0 -359.0 -352.0V-97.0Z"/></g>
<g fill="black" opacity=".8" transform="translate(1100 900) scale(0.1 -0.1)"><path d="M0.0 0.0C-86.0 -35.0 -250.0 -71.0 -388.0 -96.0C-381.0 -104.0 -378.0 -113.0 -375.0 -121.0C-235.0 -97.0 -72.0 -62.0 31.0 -23.0ZM-387.0 -97.0V-351.0C-387.0 -504.0 -400.0 -711.0 -506.0 -865.0C-498.0 -868.0 -486.0 -878.0 -481.0 -885.0C-372.0 -728.0 -356.0 -511.0 -356.0 -351.0V-97.0Z"/></g>
<g fill="red" transform="translate(1200 900) scale(0.1 -0.1)"><path d="M0.0 0.0C-92.0 -42.0 -235.0 -81.0 -369.0 -105.0C-349.0 -136.0 -327.0 -191.0 -320.0 -225.0C-175.0 -203.0 -10.0 -168.0 123.0 -117.0ZM-370.0 -105.0V-383.0C-370.0 -526.0 -377.0 -726.0 -476.0 -860.0C-441.0 -876.0 -375.0 -922.0 -350.0 -948.0C-237.0 -798.0 -218.0 -548.0 -218.0 -384.0V-105.0Z"/></g>
<g fill="black" opacity=".8" transform="translate(1200 900) scale(0.1 -0.1)"><path d="M0.0 0.0C-91.0 -42.0 -234.0 -81.0 -367.0 -103.0C-351.0 -135.0 -328.0 -190.0 -322.0 -226.0C-177.0 -205.0 -11.0 -170.0 119.0 -119.0ZM-368.0 -103.0V-381.0C-368.0 -526.0 -376.0 -726.0 -472.0 -860.0C-437.0 -876.0 -373.0 -922.0 -347.0 -949.0C-241.0 -798.0 -223.0 -551.0 -223.0 -384.0V-103.0Z"/></g>
<g fill="red" transform="translate(1300 900) scale(0.1 -0.1)"><path d="M0.0 0.0C-65.0 -29.0 -191.0 -57.0 -295.0 -74.0C-291.0 -81.0 -286.0 -92.0 -284.0 -99.0C-178.0 -82.0 -51.0 -55.0 25.0 -22.0ZM-295.0 -74.0V-349.0C-295.0 -501.0 -304.0 -682.0 -374.0 -830.0C-365.0 -834.0 -353.0 -841.0 -347.0 -846.0C-276.0 -694.0 -267.0 -509.0 -267.0 -348.0V-74.0Z"/></g>
<g fill="black" opacity=".8" transform="translate(1300 900) scale(0.1 -0.1)"><path d="M0.0 0.0C-65.0 -28.0 -191.0 -53.0 -295.0 -70.0C-288.0 -79.0 -285.0 -88.0 -282.0 -95.0C-178.0 -79.0 -52.0 -54.0 26.0 -23.0ZM-296.0 -69.0V-354.0C-296.0 -494.0 -304.0 -689.0 -372.0 -834.0C-364.0 -836.0 -352.0 -844.0 -347.0 -851.0C-278.0 -703.0 -268.0 -499.0 -268.0 -354.0V-69.0Z"/></g>
<g fill="red" transform="translate(1400 900) scale(0.1 -0.1)"><path d="M0.0 0.0C-81.0 -33.0 -202.0 -60.0 -313.0 -75.0C-299.0 -103.0 -282.0 -148.0 -277.0 -178.0C-163.0 -166.0 -26.0 -144.0 78.0 -106.0ZM-313.0 -75.0V-398.0C-313.0 -536.0 -319.0 -722.0 -385.0 -834.0C-359.0 -855.0 -318.0 -907.0 -300.0 -937.0C-199.0 -803.0 -189.0 -577.0 -189.0 -399.0V-75.0Z"/></g>
<g fill="black" opacity=".8" transform="translate(1400 900) scale(0.1 -0.1)"><path d="M0.0 0.0C-82.0 -34.0 -204.0 -65.0 -315.0 -82.0C-301.0 -112.0 -282.0 -160.0 -277.0 -192.0C-160.0 -178.0 -23.0 -153.0 86.0 -115.0ZM-320.0 -79.0V-410.0C-320.0 -540.0 -324.0 -719.0 -386.0 -840.0C-357.0 -855.0 -301.0 -899.0 -279.0 -924.0C-205.0 -787.0 -191.0 -558.0 -191.0 -411.0V-79.0Z"/></g>
<g fill="red" transform="translate(1500 900) scale(0.1 -0.1)"><path d="M0.0 0.0C-77.0 -27.0 -222.0 -54.0 -342.0 -71.0C-337.0 -78.0 -332.0 -89.0 -331.0 -96.0C-209.0 -80.0 -63.0 -54.0 26.0 -23.0ZM-689.0 -484.0V-616.0C-689.0 -699.0 -707.0 -801.0 -806.0 -878.0C-799.0 -883.0 -789.0 -894.0 -785.0 -900.0C-681.0 -818.0 -660.0 -704.0 -660.0 -616.0V-484.0Z"/></g>
<g fill="black" opacity=".8" transform="translate(1500 900) scale(0.1 -0.1)"><path d="M0.0 0.0C-78.0 -27.0 -220.0 -56.0 -342.0 -77.0C-336.0 -82.0 -334.0 -89.0 -333.0 -95.0C-210.0 -77.0 -69.0 -48.0 19.0 -19.0ZM-683.0 -483.0V-616.0C-683.0 -702.0 -700.0 -801.0 -805.0 -878.0C-799.0 -881.0 -791.0 -889.0 -789.0 -894.0C-680.0 -815.0 -661.0 -708.0 -661.0 -616.0V-483.0Z"/></g>
<g fill="red" transform="translate(1600 900) scale(0.1 -0.1)"><path d="M0.0 0.0C-79.0 -30.0 -214.0 -55.0 -336.0 -70.0C-323.0 -94.0 -306.0 -138.0 -301.0 -164.0C-168.0 -150.0 -13.0 -125.0 105.0 -86.0ZM-700.0 -489.0V-574.0C-700.0 -659.0 -710.0 -776.0 -804.0 -862.0C-774.0 -879.0 -715.0 -929.0 -693.0 -955.0C-586.0 -853.0 -562.0 -692.0 -562.0 -577.0V-489.0Z"/></g>
<g fill="black" opacity=".8" transform="translate(1600 900) scale(0.1 -0.1)"><path d="M0.0 0.0C-82.0 -33.0 -212.0 -57.0 -335.0 -71.0C-322.0 -95.0 -305.0 -139.0 -301.0 -167.0C-168.0 -154.0 -18.0 -128.0 102.0 -85.0ZM-694.0 -487.0V-570.0C-694.0 -661.0 -703.0 -783.0 -803.0 -868.0C-775.0 -883.0 -722.0 -929.0 -703.0 -953.0C-590.0 -853.0 -568.0 -695.0 -568.0 -574.0V-487.0Z"/></g>
<g fill="red" transform="translate(100 1000) scale(0.1 -0.1)"><path d="M0.0 0.0C-77.0 -27.0 -222.0 -54.0 -342.0 -71.0C-337.0 -78.0 -332.0 -89.0 -331.0 -96.0C-209.0 -80.0 -63.0 -54.0 26.0 -23.0ZM-342.0 -71.0V-178.0C-342.0 -260.0 -355.0 -352.0 -473.0 -417.0C-466.0 -422.0 -456.0 -432.0 -452.0 -439.0C-328.0 -367.0 -313.0 -272.0 -313.0 -178.0V-71.0Z"/></g>
<g fill="black" opacity=".8" transform="translate(100 1000) scale(0.1 -0.1)"><path d="M0.0 0.0C-78.0 -27.0 -223.0 -53.0 -344.0 -70.0C-338.0 -79.0 -335.0 -88.0 -333.0 -96.0C-210.0 -79.0 -63.0 -53.0 26.0 -23.0ZM-342.0 -70.0V-182.0C-342.0 -261.0 -356.0 -346.0 -470.0 -411.0C-462.0 -414.0 -452.0 -423.0 -449.0 -430.0C-331.0 -362.0 -314.0 -273.0 -314.0 -183.0V-70.0Z"/></g>
<g fill="red" transform="translate(200 1000) scale(0.1 -0.1)"><path d="M0.0 0.0C-79.0 -30.0 -214.0 -55.0 -336.0 -70.0C-323.0 -94.0 -306.0 -138.0 -301.0 -164.0C-168.0 -150.0 -13.0 -125.0 105.0 -86.0ZM-336.0 -70.0V-199.0C-336.0 -264.0 -351.0 -330.0 -453.0 -374.0C-421.0 -395.0 -372.0 -439.0 -350.0 -467.0C-228.0 -405.0 -210.0 -303.0 -210.0 -202.0V-70.0Z"/></g>
<g fill="black" opacity=".8" transform="translate(200 1000) scale(0.1 -0.1)"><path d="M0.0 0.0C-79.0 -31.0 -214.0 -57.0 -334.0 -71.0C-322.0 -96.0 -303.0 -139.0 -299.0 -165.0C-166.0 -151.0 -11.0 -125.0 104.0 -86.0ZM-335.0 -69.0V-193.0C-335.0 -264.0 -349.0 -335.0 -457.0 -384.0C-426.0 -404.0 -374.0 -447.0 -352.0 -473.0C-228.0 -407.0 -209.0 -303.0 -209.0 -198.0V-69.0Z"/></g>
<g fill="red" transform="translate(300 1000) scale(0.1 -0.1)"><path d="M0.0 0.0C-79.0 -27.0 -230.0 -52.0 -353.0 -68.0C-349.0 -76.0 -345.0 -86.0 -343.0 -93.0C-217.0 -79.0 -66.0 -54.0 26.0 -25.0ZM-353.0 -68.0V-341.0C-353.0 -478.0 -362.0 -612.0 -440.0 -719.0C-432.0 -723.0 -421.0 -732.0 -417.0 -739.0C-335.0 -625.0 -324.0 -488.0 -324.0 -340.0V-68.0Z"/></g>
<g fill="black" opacity=".8" transform="translate(300 1000) scale(0.1 -0.1)"><path d="M0.0 0.0C-79.0 -28.0 -231.0 -54.0 -354.0 -70.0C-348.0 -78.0 -345.0 -88.0 -342.0 -95.0C-218.0 -80.0 -67.0 -55.0 24.0 -24.0ZM-352.0 -61.0V-355.0C-352.0 -469.0 -361.0 -609.0 -442.0 -713.0C-434.0 -717.0 -424.0 -724.0 -419.0 -731.0C-335.0 -624.0 -324.0 -476.0 -324.0 -355.0V-61.0Z"/></g>
<g fill="red" transform="translate(400 1000) scale(0.1 -0.1)"><path d="M0.0 0.0C-85.0 -28.0 -225.0 -51.0 -353.0 -63.0C-337.0 -92.0 -318.0 -145.0 -312.0 -176.0C-171.0 -167.0 -5.0 -145.0 125.0 -105.0ZM-353.0 -63.0V-384.0C-353.0 -500.0 -362.0 -610.0 -426.0 -691.0C-396.0 -713.0 -349.0 -763.0 -328.0 -794.0C-233.0 -689.0 -221.0 -541.0 -221.0 -385.0V-63.0Z"/></g>
<g fill="black" opacity=".8" transform="translate(400 1000) scale(0.1 -0.1)"><path d="M0.0 0.0C-87.0 -32.0 -224.0 -60.0 -349.0 -75.0C-336.0 -103.0 -316.0 -149.0 -311.0 -179.0C-178.0 -165.0 -21.0 -140.0 100.0 -102.0ZM-350.0 -64.0V-391.0C-350.0 -495.0 -358.0 -618.0 -433.0 -705.0C-403.0 -723.0 -350.0 -769.0 -328.0 -795.0C-235.0 -693.0 -220.0 -518.0 -220.0 -393.0V-64.0Z"/></g>
<g fill="red" transform="translate(500 1000) scale(0.1 -0.1)"><path d="M0.0 0.0C-64.0 -26.0 -195.0 -46.0 -303.0 -58.0C-298.0 -65.0 -293.0 -76.0 -291.0 -83.0C-181.0 -71.0 -49.0 -51.0 30.0 -22.0ZM-302.0 -58.0V-189.0C-302.0 -258.0 -309.0 -352.0 -360.0 -424.0C-353.0 -427.0 -341.0 -435.0 -336.0 -440.0C-283.0 -367.0 -272.0 -262.0 -272.0 -189.0V-58.0Z"/></g>
<g fill="black" opacity=".8" transform="translate(500 1000) scale(0.1 -0.1)"><path d="M0.0 0.0C-67.0 -22.0 -198.0 -38.0 -303.0 -48.0C-297.0 -55.0 -294.0 -64.0 -293.0 -71.0C-186.0 -61.0 -55.0 -44.0 23.0 -21.0ZM-289.0 -55.0V-178.0C-289.0 -257.0 -298.0 -356.0 -370.0 -431.0C-363.0 -434.0 -354.0 -441.0 -351.0 -447.0C-275.0 -369.0 -263.0 -265.0 -263.0 -178.0V-55.0Z"/></g>
<g fill="red" transform="translate(600 1000) scale(0.1 -0.1)"><path d="M0.0 0.0C-88.0 -28.0 -221.0 -48.0 -336.0 -58.0C-324.0 -85.0 -310.0 -126.0 -306.0 -153.0C-190.0 -148.0 -49.0 -131.0 55.0 -102.0ZM-337.0 -58.0V-186.0C-337.0 -257.0 -341.0 -349.0 -395.0 -418.0C-367.0 -432.0 -311.0 -474.0 -290.0 -496.0C-225.0 -413.0 -212.0 -284.0 -212.0 -189.0V-58.0Z"/></g>
<g fill="black" opacity=".8" transform="translate(600 1000) scale(0.1 -0.1)"><path d="M0.0 0.0C-83.0 -25.0 -218.0 -43.0 -336.0 -51.0C-326.0 -74.0 -312.0 -111.0 -309.0 -135.0C-185.0 -129.0 -39.0 -113.0 68.0 -84.0ZM-323.0 -58.0V-186.0C-323.0 -261.0 -332.0 -352.0 -405.0 -416.0C-379.0 -431.0 -332.0 -470.0 -314.0 -492.0C-229.0 -413.0 -213.0 -290.0 -213.0 -190.0V-58.0Z"/></g>
<g fill="red" transform="translate(700 1000) scale(0.1 -0.1)"><path d="M0.0 0.0C-90.0 -36.0 -263.0 -73.0 -408.0 -98.0C-405.0 -106.0 -400.0 -115.0 -398.0 -122.0C-250.0 -99.0 -77.0 -62.0 28.0 -22.0ZM-408.0 -98.0V-405.0C-408.0 -548.0 -419.0 -735.0 -521.0 -871.0C-514.0 -875.0 -503.0 -884.0 -498.0 -891.0C-394.0 -749.0 -379.0 -551.0 -379.0 -405.0V-98.0Z"/></g>
<g fill="black" opacity=".8" transform="translate(700 1000) scale(0.1 -0.1)"><path d="M0.0 0.0C-90.0 -34.0 -262.0 -69.0 -407.0 -93.0C-400.0 -102.0 -397.0 -110.0 -394.0 -117.0C-248.0 -95.0 -76.0 -61.0 29.0 -22.0ZM-407.0 -90.0V-402.0C-407.0 -547.0 -421.0 -740.0 -525.0 -882.0C-517.0 -884.0 -506.0 -893.0 -502.0 -901.0C-395.0 -756.0 -378.0 -551.0 -378.0 -402.0V-90.0Z"/></g>
<g fill="red" transform="translate(800 1000) scale(0.1 -0.1)"><path d="M0.0 0.0C-93.0 -36.0 -241.0 -67.0 -379.0 -85.0C-362.0 -116.0 -341.0 -172.0 -335.0 -206.0C-185.0 -191.0 -12.0 -161.0 126.0 -114.0ZM-379.0 -85.0V-330.0C-379.0 -487.0 -387.0 -716.0 -492.0 -870.0C-459.0 -885.0 -397.0 -929.0 -372.0 -954.0C-256.0 -785.0 -237.0 -506.0 -237.0 -330.0V-85.0Z"/></g>
<g fill="black" opacity=".8" transform="translate(800 1000) scale(0.1 -0.1)"><path d="M0.0 0.0C-93.0 -40.0 -243.0 -75.0 -380.0 -96.0C-364.0 -126.0 -342.0 -180.0 -337.0 -214.0C-186.0 -195.0 -15.0 -163.0 119.0 -113.0ZM-383.0 -90.0V-335.0C-383.0 -486.0 -389.0 -709.0 -484.0 -860.0C-451.0 -874.0 -387.0 -920.0 -363.0 -944.0C-260.0 -778.0 -240.0 -508.0 -240.0 -336.0V-90.0Z"/></g>
<g fill="red" transform="translate(900 1000) scale(0.1 -0.1)"><path d="M0.0 0.0C-82.0 -35.0 -241.0 -72.0 -375.0 -97.0C-371.0 -104.0 -366.0 -114.0 -364.0 -121.0C-227.0 -97.0 -68.0 -60.0 31.0 -21.0ZM-375.0 -97.0V-352.0C-375.0 -504.0 -386.0 -712.0 -482.0 -866.0C-475.0 -869.0 -463.0 -878.0 -458.0 -885.0C-359.0 -726.0 -346.0 -508.0 -346.0 -352.0V-97.0Z"/></g>
<g fill="black" opacity=".8" transform="translate(900 1000) scale(0.1 -0.1)"><path d="M0.0 0.0C-83.0 -34.0 -241.0 -70.0 -375.0 -95.0C-368.0 -103.0 -365.0 -112.0 -362.0 -119.0C-227.0 -95.0 -69.0 -60.0 30.0 -22.0ZM-372.0 -97.0V-351.0C-372.0 -503.0 -385.0 -711.0 -488.0 -866.0C-480.0 -869.0 -468.0 -878.0 -464.0 -885.0C-358.0 -727.0 -342.0 -509.0 -342.0 -351.0V-97.0Z"/></g>
<g fill="red" transform="translate(1000 1000) scale(0.1 -0.1)"><path d="M0.0 0.0C-88.0 -42.0 -224.0 -82.0 -351.0 -105.0C-334.0 -137.0 -312.0 -191.0 -305.0 -225.0C-168.0 -203.0 -10.0 -168.0 116.0 -117.0ZM-351.0 -105.0V-383.0C-351.0 -526.0 -358.0 -726.0 -451.0 -860.0C-418.0 -876.0 -356.0 -922.0 -332.0 -948.0C-226.0 -798.0 -208.0 -548.0 -208.0 -384.0V-105.0Z"/></g>
<g fill="black" opacity=".8" transform="translate(1000 1000) scale(0.1 -0.1)"><path d="M0.0 0.0C-87.0 -41.0 -224.0 -80.0 -351.0 -103.0C-335.0 -134.0 -313.0 -188.0 -307.0 -223.0C-168.0 -202.0 -9.0 -167.0 116.0 -116.0ZM-351.0 -103.0V-382.0C-351.0 -526.0 -358.0 -728.0 -450.0 -862.0C-416.0 -877.0 -354.0 -922.0 -329.0 -948.0C-227.0 -797.0 -209.0 -550.0 -209.0 -384.0V-103.0Z"/></g>
</svg>
