<?xml version="1.0" encoding="UTF-8"?>
<svg width="1700" height="1100" xmlns="http://www.w3.org/2000/svg">
<rect width="100%" height="100%" fill="white"/>
<g fill="green" transform="translate(100 100) scale(0.1 -0.1)"><path d="M-0.0 -0.0 1.0 244.0H-93.0V-0.0ZM-180.0 -293.0C-141.0 -379.0 -64.0 -305.0 29.0 -301.0C27.0 -299.0 25.0 -295.0 25.0 -294.0C-71.0 -296.0 -144.0 -376.0 -186.0 -288.0Z"/></g>
<g fill="green" transform="translate(200 100) scale(0.1 -0.1)"><path d="M0.0 -0.0 5.0 256.0H-22.0V0.0ZM-86.0 -349.0C-43.0 -391.0 22.0 -356.0 124.0 -332.0C112.0 -320.0 112.0 -308.0 104.0 -290.0C-2.0 -315.0 -76.0 -360.0 -131.0 -323.0Z"/></g>
<g fill="green" transform="translate(300 100) scale(0.1 -0.1)"><path d="M0.0 0.0 1.0 195.0H607.0V0.0ZM89.0 -73.0C76.0 -461.0 57.0 -678.0 -44.0 -847.0C-37.0 -851.0 -25.0 -859.0 -19.0 -865.0C80.0 -685.0 104.0 -475.0 119.0 -74.0Z"/></g>
<g fill="green" transform="translate(400 100) scale(0.1 -0.1)"><path d="M0.0 0.0 3.0 85.0H684.0V0.0ZM117.0 -166.0C122.0 -502.0 104.0 -744.0 25.0 -876.0C50.0 -894.0 113.0 -948.0 129.0 -965.0C222.0 -802.0 246.0 -537.0 244.0 -163.0Z"/></g>
<g fill="green" transform="translate(500 100) scale(0.1 -0.1)"><path d="M0.0 -0.0V276.0H227.0V-0.0ZM-251.0 528.0C-245.0 220.0 -235.0 -29.0 -336.0 -184.0C-330.0 -187.0 -318.0 -193.0 -312.0 -197.0C-213.0 -33.0 -219.0 209.0 -224.0 528.0Z"/></g>
<g fill="green" transform="translate(600 100) scale(0.1 -0.1)"><path d="M0.0 0.0 -3.0 194.0H157.0V0.0ZM-274.0 485.0C-261.0 198.0 -248.0 -24.0 -330.0 -152.0C-306.0 -171.0 -260.0 -221.0 -246.0 -241.0C-146.0 -85.0 -148.0 169.0 -162.0 491.0Z"/></g>
<g fill="green" transform="translate(700 100) scale(0.1 -0.1)"><path d="M0.0 0.0 3.0 235.0H440.0V0.0ZM307.0 -331.0C262.0 -316.0 187.0 47.0 305.0 154.0C304.0 153.0 302.0 151.0 302.0 149.0C178.0 39.0 260.0 -320.0 307.0 -337.0Z"/></g>
<g fill="green" transform="translate(800 100) scale(0.1 -0.1)"><path d="M0.0 0.0 17.0 238.0H574.0V0.0ZM436.0 -365.0C403.0 -219.0 302.0 -9.0 415.0 126.0C395.0 122.0 392.0 98.0 380.0 108.0C280.0 -32.0 376.0 -254.0 425.0 -393.0Z"/></g>
<g fill="green" transform="translate(900 100) scale(0.1 -0.1)"><path d="M-0.0 -0.0V-102.0H-700.0V-0.0ZM29.0 123.0C94.0 -153.0 229.0 -309.0 284.0 -425.0C284.0 -423.0 287.0 -420.0 291.0 -420.0C234.0 -295.0 103.0 -153.0 33.0 133.0Z"/></g>
<g fill="green" transform="translate(1000 100) scale(0.1 -0.1)"><path d="M0.0 0.0 2.0 -113.0H-591.0V0.0ZM114.0 88.0C183.0 -185.0 313.0 -360.0 395.0 -469.0C394.0 -467.0 409.0 -479.0 404.0 -473.0C331.0 -341.0 197.0 -147.0 105.0 133.0Z"/></g>
<g fill="green" transform="translate(1100 100) scale(0.1 -0.1)"><path d="M0.0 0.0 1.0 -138.0H-113.0V0.0ZM-52.0 -405.0C-86.0 -465.0 -150.0 -292.0 -139.0 -241.0C-136.0 -244.0 -132.0 -249.0 -132.0 -251.0C-148.0 -300.0 -80.0 -471.0 -43.0 -409.0Z"/></g>
<g fill="green" transform="translate(1200 100) scale(0.1 -0.1)"><path d="M0.0 0.0 5.0 -143.0H-69.0V0.0ZM-11.0 -445.0C-28.0 -436.0 -87.0 -319.0 -61.0 -248.0C-63.0 -251.0 -46.0 -272.0 -47.0 -269.0C-76.0 -343.0 -14.0 -457.0 9.0 -458.0Z"/></g>
<g fill="green" transform="translate(1300 100) scale(0.1 -0.1)"><path d="M-0.0 0.0 -5.0 262.0H-111.0V-0.0ZM-179.0 -411.0C-104.0 -240.0 12.0 -354.0 -27.0 -352.0C-32.0 -348.0 -39.0 -339.0 -41.0 -338.0C0.0 -344.0 -114.0 -227.0 -194.0 -403.0Z"/></g>
<g fill="green" transform="translate(1400 100) scale(0.1 -0.1)"><path d="M0.0 0.0 -24.0 304.0H-47.0V0.0ZM-35.0 -415.0C21.0 -303.0 135.0 -333.0 90.0 -334.0C80.0 -321.0 38.0 -278.0 31.0 -269.0C79.0 -276.0 -38.0 -261.0 -107.0 -380.0Z"/></g>
<g fill="green" transform="translate(1500 100) scale(0.1 -0.1)"><path d="M0.0 -0.0V167.0H-64.0V0.0ZM-216.0 -311.0C-164.0 -321.0 -55.0 -297.0 68.0 -314.0C62.0 -309.0 54.0 -301.0 52.0 -299.0C-69.0 -282.0 -179.0 -313.0 -235.0 -304.0Z"/></g>
<g fill="green" transform="translate(1600 100) scale(0.1 -0.1)"><path d="M0.0 0.0V197.0H34.0V0.0ZM-130.0 -388.0C-70.0 -357.0 33.0 -376.0 170.0 -375.0C154.0 -349.0 144.0 -299.0 136.0 -269.0C-19.0 -278.0 -144.0 -296.0 -220.0 -349.0Z"/></g>
<g fill="green" transform="translate(100 200) scale(0.1 -0.1)"><path d="M0.0 -0.0V262.0H-75.0V-0.0ZM-141.0 -316.0C-105.0 -336.0 -32.0 -278.0 66.0 -263.0C66.0 -262.0 65.0 -260.0 66.0 -259.0C-36.0 -271.0 -104.0 -334.0 -144.0 -312.0Z"/></g>
<g fill="green" transform="translate(200 200) scale(0.1 -0.1)"><path d="M0.0 0.0V256.0H-51.0V0.0ZM-121.0 -361.0C-83.0 -390.0 -12.0 -364.0 86.0 -356.0C77.0 -354.0 73.0 -360.0 64.0 -353.0C-30.0 -355.0 -101.0 -372.0 -152.0 -341.0Z"/></g>
<g fill="green" transform="translate(300 200) scale(0.1 -0.1)"><path d="M0.0 0.0 1.0 242.0H-48.0V-0.0ZM-156.0 -279.0C-122.0 -378.0 -54.0 -329.0 30.0 -328.0C30.0 -326.0 32.0 -323.0 33.0 -321.0C-56.0 -321.0 -120.0 -379.0 -156.0 -275.0Z"/></g>
<g fill="green" transform="translate(400 200) scale(0.1 -0.1)"><path d="M0.0 0.0 5.0 259.0H-66.0V0.0ZM-116.0 -360.0C-72.0 -401.0 -2.0 -343.0 112.0 -314.0C110.0 -296.0 128.0 -273.0 129.0 -251.0C-7.0 -289.0 -89.0 -363.0 -147.0 -336.0Z"/></g>
<g fill="green" transform="translate(500 200) scale(0.1 -0.1)"><path d="M0.0 0.0 2.0 227.0H-97.0V-0.0ZM-174.0 -297.0C-124.0 -402.0 -31.0 -322.0 43.0 -303.0C37.0 -299.0 30.0 -290.0 28.0 -287.0C-47.0 -307.0 -137.0 -393.0 -191.0 -290.0Z"/></g>
<g fill="green" transform="translate(600 200) scale(0.1 -0.1)"><path d="M0.0 0.0 11.0 267.0H-12.0V0.0ZM-77.0 -321.0C-31.0 -417.0 42.0 -373.0 119.0 -342.0C98.0 -321.0 81.0 -287.0 70.0 -264.0C-10.0 -303.0 -99.0 -365.0 -160.0 -286.0Z"/></g>
<g fill="green" transform="translate(700 200) scale(0.1 -0.1)"><path d="M-0.0 0.0 2.0 252.0H-105.0V-0.0ZM-190.0 -306.0C-150.0 -383.0 -67.0 -315.0 51.0 -314.0C51.0 -312.0 50.0 -310.0 51.0 -310.0C-72.0 -307.0 -149.0 -381.0 -193.0 -301.0Z"/></g>
<g fill="green" transform="translate(800 200) scale(0.1 -0.1)"><path d="M0.0 0.0 8.0 245.0H-9.0V0.0ZM-83.0 -339.0C-50.0 -374.0 4.0 -332.0 106.0 -311.0C97.0 -304.0 101.0 -305.0 93.0 -292.0C-11.0 -310.0 -68.0 -351.0 -114.0 -318.0Z"/></g>
<g fill="red" transform="translate(100 300) scale(0.1 -0.1)"><path d="M0.0 0.0V-29.0H672.0V0.0ZM280.0 163.0C217.0 -50.0 112.0 -235.0 -33.0 -352.0C-25.0 -357.0 -12.0 -367.0 -7.0 -372.0C135.0 -248.0 242.0 -65.0 308.0 156.0Z"/></g>
<g fill="black" opacity=".8" transform="translate(100 300) scale(0.1 -0.1)"><path d="M0.0 0.0V-29.0H667.0V0.0ZM277.0 171.0C219.0 -50.0 116.0 -233.0 -31.0 -352.0C-24.0 -357.0 -13.0 -367.0 -7.0 -374.0C139.0 -248.0 245.0 -66.0 307.0 164.0Z"/></g>
<g fill="red" transform="translate(200 300) scale(0.1 -0.1)"><path d="M0.0 0.0V-132.0H662.0V0.0ZM204.0 149.0C162.0 -68.0 76.0 -255.0 -64.0 -363.0C-35.0 -392.0 13.0 -455.0 30.0 -487.0C188.0 -352.0 290.0 -131.0 345.0 123.0Z"/></g>
<g fill="black" opacity=".8" transform="translate(200 300) scale(0.1 -0.1)"><path d="M0.0 0.0V-130.0H664.0V0.0ZM207.0 142.0C163.0 -67.0 71.0 -258.0 -67.0 -367.0C-39.0 -394.0 11.0 -453.0 30.0 -483.0C186.0 -350.0 290.0 -130.0 349.0 114.0Z"/></g>
<g fill="red" transform="translate(300 300) scale(0.1 -0.1)"><path d="M0.0 0.0V-30.0H468.0V0.0ZM83.0 465.0C32.0 138.0 -52.0 -137.0 -223.0 -311.0C-215.0 -316.0 -203.0 -327.0 -197.0 -331.0C-27.0 -148.0 58.0 122.0 113.0 461.0Z"/></g>
<g fill="black" opacity=".8" transform="translate(300 300) scale(0.1 -0.1)"><path d="M0.0 0.0 1.0 -31.0H473.0V0.0ZM68.0 467.0C26.0 146.0 -48.0 -141.0 -222.0 -308.0C-214.0 -313.0 -200.0 -323.0 -194.0 -329.0C-21.0 -153.0 57.0 130.0 102.0 461.0Z"/></g>
<g fill="red" transform="translate(400 300) scale(0.1 -0.1)"><path d="M0.0 0.0V-134.0H415.0V0.0ZM-25.0 443.0C-60.0 138.0 -132.0 -133.0 -282.0 -289.0C-249.0 -315.0 -189.0 -375.0 -168.0 -404.0C-6.0 -217.0 80.0 88.0 124.0 427.0Z"/></g>
<g fill="black" opacity=".8" transform="translate(400 300) scale(0.1 -0.1)"><path d="M0.0 0.0V-138.0H412.0V0.0ZM-30.0 446.0C-62.0 125.0 -126.0 -132.0 -285.0 -284.0C-250.0 -311.0 -191.0 -372.0 -167.0 -405.0C9.0 -223.0 87.0 71.0 127.0 429.0Z"/></g>
<g fill="red" transform="translate(500 300) scale(0.1 -0.1)"><path d="M0.0 0.0V-29.0H663.0V0.0ZM292.0 200.0C248.0 -55.0 159.0 -321.0 -40.0 -483.0C-34.0 -489.0 -25.0 -499.0 -20.0 -504.0C183.0 -338.0 273.0 -67.0 322.0 194.0Z"/></g>
<g fill="black" opacity=".8" transform="translate(500 300) scale(0.1 -0.1)"><path d="M0.0 0.0 -1.0 -33.0H658.0V0.0ZM288.0 207.0C243.0 -41.0 159.0 -326.0 -40.0 -483.0C-33.0 -488.0 -21.0 -497.0 -15.0 -504.0C184.0 -341.0 272.0 -56.0 320.0 202.0Z"/></g>
<g fill="red" transform="translate(600 300) scale(0.1 -0.1)"><path d="M0.0 0.0V-140.0H658.0V0.0ZM240.0 184.0C212.0 -47.0 142.0 -315.0 -34.0 -453.0C-5.0 -481.0 39.0 -536.0 61.0 -569.0C264.0 -402.0 347.0 -109.0 393.0 163.0Z"/></g>
<g fill="black" opacity=".8" transform="translate(600 300) scale(0.1 -0.1)"><path d="M0.0 0.0 -5.0 -135.0H661.0V0.0ZM247.0 179.0C212.0 -65.0 139.0 -316.0 -45.0 -455.0C-11.0 -480.0 41.0 -533.0 65.0 -565.0C265.0 -400.0 351.0 -121.0 398.0 158.0Z"/></g>
<g fill="red" transform="translate(700 300) scale(0.1 -0.1)"><path d="M0.0 0.0V-29.0H384.0V0.0ZM99.0 479.0C51.0 272.0 -37.0 101.0 -171.0 -8.0C-163.0 -13.0 -150.0 -23.0 -145.0 -27.0C-14.0 87.0 76.0 258.0 128.0 473.0Z"/></g>
<g fill="black" opacity=".8" transform="translate(700 300) scale(0.1 -0.1)"><path d="M0.0 0.0V-28.0H380.0V0.0ZM104.0 483.0C54.0 273.0 -36.0 98.0 -172.0 -10.0C-165.0 -14.0 -153.0 -25.0 -147.0 -30.0C-14.0 84.0 80.0 259.0 134.0 476.0Z"/></g>
<g fill="red" transform="translate(800 300) scale(0.1 -0.1)"><path d="M0.0 0.0V-118.0H311.0V0.0ZM8.0 487.0C-31.0 275.0 -114.0 97.0 -254.0 -4.0C-224.0 -31.0 -170.0 -90.0 -150.0 -119.0C3.0 7.0 102.0 215.0 154.0 462.0Z"/></g>
<g fill="black" opacity=".8" transform="translate(800 300) scale(0.1 -0.1)"><path d="M0.0 0.0V-117.0H313.0V0.0ZM11.0 485.0C-31.0 276.0 -113.0 106.0 -242.0 3.0C-216.0 -26.0 -173.0 -92.0 -157.0 -125.0C-4.0 3.0 94.0 213.0 149.0 458.0Z"/></g>
<g fill="red" transform="translate(900 300) scale(0.1 -0.1)"><path d="M0.0 0.0V-29.0H645.0V0.0ZM277.0 95.0C213.0 -67.0 101.0 -205.0 -33.0 -294.0C-25.0 -299.0 -14.0 -308.0 -9.0 -314.0C123.0 -221.0 237.0 -82.0 306.0 88.0Z"/></g>
<g fill="black" opacity=".8" transform="translate(900 300) scale(0.1 -0.1)"><path d="M0.0 0.0V-33.0H647.0V0.0ZM275.0 103.0C213.0 -72.0 101.0 -201.0 -30.0 -295.0C-23.0 -300.0 -12.0 -311.0 -7.0 -317.0C122.0 -218.0 238.0 -87.0 305.0 95.0Z"/></g>
<g fill="red" transform="translate(1000 300) scale(0.1 -0.1)"><path d="M0.0 0.0V-129.0H658.0V0.0ZM227.0 79.0C180.0 -75.0 85.0 -207.0 -41.0 -283.0C-11.0 -308.0 41.0 -363.0 61.0 -391.0C195.0 -296.0 305.0 -139.0 366.0 46.0Z"/></g>
<g fill="black" opacity=".8" transform="translate(1000 300) scale(0.1 -0.1)"><path d="M0.0 0.0 -1.0 -123.0H654.0V0.0ZM235.0 70.0C187.0 -67.0 83.0 -208.0 -38.0 -285.0C-12.0 -309.0 35.0 -365.0 53.0 -391.0C189.0 -295.0 304.0 -131.0 369.0 38.0Z"/></g>
<g fill="red" transform="translate(1100 300) scale(0.1 -0.1)"><path d="M0.0 0.0V-29.0H869.0V0.0ZM308.0 193.0C262.0 -109.0 183.0 -445.0 -18.0 -656.0C-12.0 -662.0 -2.0 -672.0 3.0 -679.0C209.0 -459.0 290.0 -120.0 339.0 188.0Z"/></g>
<g fill="black" opacity=".8" transform="translate(1100 300) scale(0.1 -0.1)"><path d="M0.0 0.0 -1.0 -21.0H855.0V0.0ZM312.0 199.0C268.0 -99.0 188.0 -453.0 -24.0 -657.0C-17.0 -661.0 -6.0 -671.0 0.0 -678.0C215.0 -467.0 297.0 -114.0 345.0 194.0Z"/></g>
<g fill="red" transform="translate(1200 300) scale(0.1 -0.1)"><path d="M0.0 0.0V-140.0H896.0V0.0ZM279.0 161.0C246.0 -131.0 169.0 -488.0 -33.0 -676.0C2.0 -703.0 54.0 -755.0 80.0 -788.0C306.0 -568.0 392.0 -190.0 441.0 144.0Z"/></g>
<g fill="black" opacity=".8" transform="translate(1200 300) scale(0.1 -0.1)"><path d="M0.0 0.0 -6.0 -147.0H908.0V0.0ZM272.0 157.0C239.0 -142.0 168.0 -484.0 -33.0 -670.0C2.0 -697.0 59.0 -753.0 84.0 -788.0C307.0 -568.0 388.0 -200.0 434.0 141.0Z"/></g>
<g fill="red" transform="translate(1300 300) scale(0.1 -0.1)"><path d="M0.0 0.0 -8.0 -30.0H446.0V0.0ZM32.0 377.0C28.0 316.0 8.0 -253.0 -282.0 -479.0C-274.0 -483.0 -261.0 -491.0 -255.0 -496.0C37.0 -261.0 55.0 304.0 61.0 377.0Z"/></g>
<g fill="black" opacity=".8" transform="translate(1300 300) scale(0.1 -0.1)"><path d="M0.0 0.0 -7.0 -31.0H448.0V0.0ZM25.0 379.0C24.0 323.0 7.0 -254.0 -281.0 -479.0C-273.0 -482.0 -261.0 -490.0 -254.0 -498.0C38.0 -266.0 55.0 314.0 57.0 377.0Z"/></g>
<g fill="red" transform="translate(1400 300) scale(0.1 -0.1)"><path d="M0.0 0.0 -42.0 -140.0H374.0V0.0ZM-52.0 367.0C-59.0 227.0 -50.0 -204.0 -335.0 -440.0C-285.0 -469.0 -240.0 -506.0 -210.0 -545.0C77.0 -275.0 92.0 186.0 100.0 367.0Z"/></g>
<g fill="black" opacity=".8" transform="translate(1400 300) scale(0.1 -0.1)"><path d="M0.0 0.0 -38.0 -142.0H372.0V0.0ZM-55.0 372.0C-60.0 216.0 -45.0 -199.0 -327.0 -433.0C-279.0 -463.0 -246.0 -502.0 -217.0 -548.0C85.0 -283.0 92.0 170.0 102.0 367.0Z"/></g>
<g fill="red" transform="translate(1500 300) scale(0.1 -0.1)"><path d="M0.0 0.0V-29.0H860.0V0.0ZM367.0 203.0C308.0 -58.0 194.0 -316.0 -32.0 -472.0C-25.0 -478.0 -16.0 -488.0 -11.0 -495.0C217.0 -334.0 333.0 -73.0 398.0 196.0Z"/></g>
<g fill="black" opacity=".8" transform="translate(1500 300) scale(0.1 -0.1)"><path d="M0.0 0.0 -1.0 -33.0H865.0V0.0ZM365.0 197.0C305.0 -56.0 190.0 -318.0 -31.0 -472.0C-25.0 -477.0 -15.0 -486.0 -9.0 -494.0C214.0 -335.0 330.0 -70.0 395.0 189.0Z"/></g>
<g fill="red" transform="translate(1600 300) scale(0.1 -0.1)"><path d="M0.0 0.0V-142.0H896.0V0.0ZM315.0 162.0C271.0 -77.0 170.0 -346.0 -36.0 -484.0C-6.0 -513.0 39.0 -567.0 60.0 -601.0C291.0 -435.0 403.0 -145.0 468.0 134.0Z"/></g>
<g fill="black" opacity=".8" transform="translate(1600 300) scale(0.1 -0.1)"><path d="M0.0 0.0 -4.0 -139.0H891.0V0.0ZM317.0 169.0C271.0 -81.0 169.0 -346.0 -37.0 -485.0C-6.0 -513.0 41.0 -568.0 63.0 -602.0C294.0 -436.0 406.0 -147.0 471.0 142.0Z"/></g>
<g fill="red" transform="translate(100 400) scale(0.1 -0.1)"><path d="M0.0 0.0V-29.0H561.0V0.0ZM175.0 195.0C152.0 -168.0 112.0 -485.0 -20.0 -687.0C-13.0 -691.0 0.0 -700.0 6.0 -705.0C139.0 -492.0 179.0 -184.0 206.0 193.0Z"/></g>
<g fill="black" opacity=".8" transform="translate(100 400) scale(0.1 -0.1)"><path d="M0.0 0.0 1.0 -26.0H558.0V0.0ZM177.0 195.0C151.0 -165.0 113.0 -488.0 -22.0 -687.0C-15.0 -690.0 -2.0 -700.0 5.0 -706.0C140.0 -496.0 181.0 -181.0 209.0 192.0Z"/></g>
<g fill="red" transform="translate(200 400) scale(0.1 -0.1)"><path d="M0.0 0.0V-142.0H568.0V0.0ZM103.0 131.0C96.0 -214.0 66.0 -531.0 -54.0 -708.0C-18.0 -729.0 53.0 -779.0 76.0 -802.0C201.0 -592.0 238.0 -252.0 251.0 127.0Z"/></g>
<g fill="black" opacity=".8" transform="translate(200 400) scale(0.1 -0.1)"><path d="M0.0 0.0 1.0 -144.0H570.0V0.0ZM104.0 133.0C93.0 -219.0 66.0 -527.0 -50.0 -707.0C-15.0 -727.0 53.0 -778.0 76.0 -804.0C201.0 -592.0 235.0 -255.0 249.0 128.0Z"/></g>
<g fill="red" transform="translate(300 400) scale(0.1 -0.1)"><path d="M0.0 0.0V-596.0H31.0V0.0ZM521.0 112.0C470.0 -203.0 384.0 -468.0 218.0 -635.0C225.0 -640.0 237.0 -651.0 242.0 -656.0C410.0 -480.0 495.0 -219.0 551.0 108.0Z"/></g>
<g fill="black" opacity=".8" transform="translate(300 400) scale(0.1 -0.1)"><path d="M0.0 0.0 -1.0 -595.0H29.0V0.0ZM522.0 112.0C470.0 -203.0 385.0 -469.0 217.0 -636.0C224.0 -640.0 236.0 -650.0 242.0 -657.0C410.0 -481.0 496.0 -218.0 552.0 108.0Z"/></g>
<g fill="red" transform="translate(400 400) scale(0.1 -0.1)"><path d="M0.0 0.0V-684.0H128.0V0.0ZM477.0 92.0C446.0 -222.0 382.0 -505.0 243.0 -669.0C274.0 -694.0 329.0 -750.0 349.0 -778.0C499.0 -583.0 574.0 -268.0 614.0 78.0Z"/></g>
<g fill="black" opacity=".8" transform="translate(400 400) scale(0.1 -0.1)"><path d="M0.0 0.0 -1.0 -684.0H128.0V0.0ZM477.0 92.0C446.0 -223.0 382.0 -505.0 244.0 -669.0C274.0 -693.0 329.0 -749.0 349.0 -778.0C501.0 -583.0 574.0 -268.0 613.0 78.0Z"/></g>
<g fill="red" transform="translate(500 400) scale(0.1 -0.1)"><path d="M0.0 0.0V-29.0H565.0V0.0ZM213.0 137.0C168.0 -59.0 94.0 -243.0 -5.0 -362.0C1.0 -369.0 10.0 -383.0 14.0 -390.0C117.0 -260.0 194.0 -73.0 242.0 131.0Z"/></g>
<g fill="black" opacity=".8" transform="translate(500 400) scale(0.1 -0.1)"><path d="M0.0 0.0V-26.0H559.0V0.0ZM220.0 135.0C173.0 -67.0 95.0 -244.0 -10.0 -366.0C-2.0 -370.0 8.0 -381.0 13.0 -388.0C116.0 -258.0 199.0 -81.0 249.0 129.0Z"/></g>
<g fill="red" transform="translate(600 400) scale(0.1 -0.1)"><path d="M0.0 0.0V-139.0H599.0V0.0ZM177.0 115.0C137.0 -89.0 60.0 -276.0 -57.0 -389.0C-31.0 -420.0 11.0 -489.0 26.0 -522.0C165.0 -380.0 260.0 -152.0 313.0 88.0Z"/></g>
<g fill="black" opacity=".8" transform="translate(600 400) scale(0.1 -0.1)"><path d="M0.0 0.0V-138.0H601.0V0.0ZM174.0 114.0C135.0 -78.0 55.0 -278.0 -57.0 -393.0C-31.0 -423.0 14.0 -490.0 29.0 -522.0C164.0 -376.0 258.0 -141.0 310.0 90.0Z"/></g>
<g fill="red" transform="translate(700 400) scale(0.1 -0.1)"><path d="M0.0 0.0V-30.0H358.0V0.0ZM91.0 347.0C44.0 191.0 -45.0 61.0 -161.0 -22.0C-153.0 -27.0 -140.0 -37.0 -135.0 -42.0C-21.0 45.0 70.0 176.0 121.0 340.0Z"/></g>
<g fill="black" opacity=".8" transform="translate(700 400) scale(0.1 -0.1)"><path d="M0.0 0.0 -1.0 -20.0H349.0V0.0ZM99.0 345.0C51.0 188.0 -40.0 57.0 -164.0 -23.0C-157.0 -27.0 -145.0 -36.0 -140.0 -40.0C-19.0 44.0 74.0 174.0 127.0 338.0Z"/></g>
<g fill="red" transform="translate(800 400) scale(0.1 -0.1)"><path d="M0.0 0.0V-75.0H244.0V0.0ZM21.0 312.0C-10.0 186.0 -78.0 81.0 -178.0 19.0C-153.0 -2.0 -112.0 -49.0 -96.0 -73.0C16.0 6.0 97.0 134.0 139.0 290.0Z"/></g>
<g fill="black" opacity=".8" transform="translate(800 400) scale(0.1 -0.1)"><path d="M0.0 0.0 -4.0 -82.0H250.0V0.0ZM18.0 314.0C-14.0 188.0 -83.0 79.0 -178.0 15.0C-152.0 -4.0 -108.0 -47.0 -89.0 -69.0C13.0 9.0 92.0 139.0 136.0 289.0Z"/></g>
<g fill="red" transform="translate(900 400) scale(0.1 -0.1)"><path d="M0.0 0.0V-30.0H869.0V0.0ZM353.0 154.0C279.0 -103.0 159.0 -323.0 -16.0 -462.0C-8.0 -467.0 5.0 -477.0 10.0 -483.0C182.0 -337.0 303.0 -120.0 381.0 148.0Z"/></g>
<g fill="black" opacity=".8" transform="translate(900 400) scale(0.1 -0.1)"><path d="M0.0 0.0 1.0 -28.0H866.0V0.0ZM348.0 162.0C281.0 -106.0 161.0 -319.0 -15.0 -463.0C-7.0 -467.0 5.0 -479.0 10.0 -486.0C186.0 -336.0 309.0 -123.0 382.0 154.0Z"/></g>
<g fill="red" transform="translate(1000 400) scale(0.1 -0.1)"><path d="M0.0 0.0V-137.0H892.0V0.0ZM317.0 134.0C253.0 -106.0 133.0 -320.0 -29.0 -443.0C6.0 -469.0 69.0 -526.0 94.0 -556.0C259.0 -410.0 392.0 -169.0 471.0 99.0Z"/></g>
<g fill="black" opacity=".8" transform="translate(1000 400) scale(0.1 -0.1)"><path d="M0.0 0.0 2.0 -140.0H894.0V0.0ZM306.0 125.0C254.0 -103.0 137.0 -322.0 -28.0 -440.0C5.0 -466.0 64.0 -524.0 88.0 -555.0C269.0 -412.0 395.0 -171.0 467.0 94.0Z"/></g>
<g fill="red" transform="translate(1100 400) scale(0.1 -0.1)"><path d="M0.0 0.0V-29.0H865.0V0.0ZM362.0 130.0C289.0 -55.0 161.0 -203.0 -1.0 -295.0C7.0 -300.0 19.0 -311.0 23.0 -316.0C182.0 -219.0 314.0 -71.0 390.0 122.0Z"/></g>
<g fill="black" opacity=".8" transform="translate(1100 400) scale(0.1 -0.1)"><path d="M0.0 0.0 1.0 -28.0H868.0V0.0ZM368.0 126.0C294.0 -67.0 158.0 -199.0 0.0 -297.0C6.0 -302.0 16.0 -312.0 20.0 -318.0C178.0 -217.0 316.0 -82.0 396.0 117.0Z"/></g>
<g fill="red" transform="translate(1200 400) scale(0.1 -0.1)"><path d="M0.0 0.0V-124.0H887.0V0.0ZM303.0 96.0C245.0 -85.0 125.0 -228.0 -39.0 -307.0C-8.0 -332.0 46.0 -388.0 68.0 -417.0C236.0 -318.0 371.0 -152.0 446.0 61.0Z"/></g>
<g fill="black" opacity=".8" transform="translate(1200 400) scale(0.1 -0.1)"><path d="M0.0 0.0 2.0 -122.0H881.0V0.0ZM307.0 99.0C248.0 -67.0 121.0 -227.0 -27.0 -311.0C-2.0 -337.0 43.0 -391.0 62.0 -420.0C229.0 -316.0 365.0 -136.0 445.0 62.0Z"/></g>
<g fill="red" transform="translate(1300 400) scale(0.1 -0.1)"><path d="M0.0 0.0V-30.0H566.0V0.0ZM222.0 168.0C174.0 -93.0 92.0 -319.0 -52.0 -461.0C-44.0 -466.0 -31.0 -476.0 -26.0 -480.0C116.0 -331.0 199.0 -109.0 252.0 163.0Z"/></g>
<g fill="black" opacity=".8" transform="translate(1300 400) scale(0.1 -0.1)"><path d="M0.0 0.0V-35.0H579.0V0.0ZM212.0 159.0C169.0 -98.0 92.0 -320.0 -50.0 -459.0C-43.0 -463.0 -31.0 -472.0 -25.0 -478.0C116.0 -332.0 195.0 -113.0 243.0 153.0Z"/></g>
<g fill="red" transform="translate(1400 400) scale(0.1 -0.1)"><path d="M0.0 0.0V-127.0H563.0V0.0ZM142.0 92.0C114.0 -132.0 53.0 -335.0 -58.0 -453.0C-27.0 -469.0 33.0 -507.0 57.0 -527.0C167.0 -391.0 236.0 -172.0 272.0 75.0Z"/></g>
<g fill="black" opacity=".8" transform="translate(1400 400) scale(0.1 -0.1)"><path d="M0.0 0.0 -1.0 -126.0H552.0V0.0ZM141.0 101.0C116.0 -127.0 57.0 -333.0 -56.0 -451.0C-25.0 -468.0 34.0 -511.0 57.0 -533.0C175.0 -395.0 240.0 -170.0 275.0 85.0Z"/></g>
<g fill="red" transform="translate(1500 400) scale(0.1 -0.1)"><path d="M0.0 0.0V-29.0H842.0V0.0ZM312.0 193.0C263.0 -101.0 173.0 -418.0 -38.0 -616.0C-31.0 -621.0 -21.0 -632.0 -16.0 -638.0C198.0 -434.0 289.0 -114.0 343.0 188.0Z"/></g>
<g fill="black" opacity=".8" transform="translate(1500 400) scale(0.1 -0.1)"><path d="M0.0 0.0 -1.0 -25.0H838.0V0.0ZM310.0 193.0C264.0 -96.0 178.0 -425.0 -40.0 -615.0C-33.0 -619.0 -23.0 -628.0 -18.0 -636.0C203.0 -439.0 290.0 -109.0 340.0 187.0Z"/></g>
<g fill="red" transform="translate(1600 400) scale(0.1 -0.1)"><path d="M0.0 0.0V-140.0H896.0V0.0ZM287.0 161.0C250.0 -120.0 165.0 -452.0 -41.0 -626.0C-12.0 -655.0 32.0 -709.0 54.0 -743.0C290.0 -535.0 385.0 -182.0 439.0 142.0Z"/></g>
<g fill="black" opacity=".8" transform="translate(1600 400) scale(0.1 -0.1)"><path d="M0.0 0.0 -5.0 -145.0H899.0V0.0ZM281.0 163.0C245.0 -129.0 165.0 -451.0 -46.0 -624.0C-13.0 -652.0 37.0 -707.0 60.0 -742.0C296.0 -537.0 387.0 -189.0 438.0 145.0Z"/></g>
<g fill="red" transform="translate(100 500) scale(0.1 -0.1)"><path d="M0.0 0.0V-30.0H865.0V0.0ZM356.0 164.0C292.0 -49.0 166.0 -267.0 -24.0 -401.0C-17.0 -406.0 -8.0 -417.0 -3.0 -423.0C191.0 -285.0 315.0 -64.0 386.0 156.0Z"/></g>
<g fill="black" opacity=".8" transform="translate(100 500) scale(0.1 -0.1)"><path d="M0.0 0.0 -1.0 -30.0H864.0V0.0ZM357.0 162.0C292.0 -52.0 170.0 -267.0 -25.0 -401.0C-19.0 -406.0 -9.0 -416.0 -4.0 -423.0C192.0 -284.0 316.0 -67.0 387.0 154.0Z"/></g>
<g fill="red" transform="translate(200 500) scale(0.1 -0.1)"><path d="M0.0 0.0V-139.0H905.0V0.0ZM311.0 139.0C262.0 -70.0 149.0 -307.0 -39.0 -428.0C-13.0 -461.0 25.0 -520.0 43.0 -557.0C263.0 -405.0 388.0 -148.0 462.0 105.0Z"/></g>
<g fill="black" opacity=".8" transform="translate(200 500) scale(0.1 -0.1)"><path d="M0.0 0.0 -3.0 -138.0H905.0V0.0ZM312.0 139.0C260.0 -69.0 147.0 -307.0 -42.0 -431.0C-15.0 -461.0 28.0 -522.0 47.0 -557.0C264.0 -405.0 389.0 -142.0 462.0 108.0Z"/></g>
<g fill="red" transform="translate(300 500) scale(0.1 -0.1)"><path d="M0.0 0.0V-29.0H874.0V0.0ZM363.0 126.0C300.0 -53.0 165.0 -226.0 -17.0 -329.0C-11.0 -335.0 -2.0 -346.0 3.0 -353.0C188.0 -245.0 322.0 -70.0 393.0 117.0Z"/></g>
<g fill="black" opacity=".8" transform="translate(300 500) scale(0.1 -0.1)"><path d="M0.0 0.0V-29.0H874.0V0.0ZM368.0 126.0C297.0 -56.0 165.0 -224.0 -17.0 -332.0C-10.0 -336.0 -1.0 -346.0 4.0 -354.0C185.0 -242.0 320.0 -71.0 396.0 117.0Z"/></g>
<g fill="red" transform="translate(400 500) scale(0.1 -0.1)"><path d="M0.0 0.0V-126.0H901.0V0.0ZM328.0 111.0C273.0 -48.0 146.0 -219.0 -33.0 -308.0C-3.0 -334.0 42.0 -385.0 64.0 -417.0C257.0 -311.0 393.0 -123.0 476.0 71.0Z"/></g>
<g fill="black" opacity=".8" transform="translate(400 500) scale(0.1 -0.1)"><path d="M0.0 0.0 -1.0 -124.0H899.0V0.0ZM333.0 108.0C273.0 -47.0 145.0 -221.0 -31.0 -310.0C-4.0 -335.0 40.0 -386.0 62.0 -417.0C257.0 -309.0 394.0 -117.0 476.0 71.0Z"/></g>
<g fill="red" transform="translate(500 500) scale(0.1 -0.1)"><path d="M0.0 0.0V-29.0H614.0V0.0ZM281.0 161.0C223.0 -50.0 116.0 -215.0 -41.0 -317.0C-33.0 -322.0 -21.0 -333.0 -16.0 -338.0C139.0 -229.0 248.0 -65.0 309.0 155.0Z"/></g>
<g fill="black" opacity=".8" transform="translate(500 500) scale(0.1 -0.1)"><path d="M0.0 0.0V-28.0H610.0V0.0ZM277.0 167.0C219.0 -41.0 112.0 -209.0 -36.0 -317.0C-28.0 -323.0 -17.0 -334.0 -11.0 -340.0C136.0 -225.0 246.0 -56.0 309.0 159.0Z"/></g>
<g fill="red" transform="translate(600 500) scale(0.1 -0.1)"><path d="M0.0 0.0V-134.0H599.0V0.0ZM189.0 150.0C144.0 -57.0 59.0 -243.0 -70.0 -355.0C-47.0 -394.0 -14.0 -480.0 -4.0 -520.0C162.0 -372.0 271.0 -132.0 331.0 120.0Z"/></g>
<g fill="black" opacity=".8" transform="translate(600 500) scale(0.1 -0.1)"><path d="M0.0 0.0 -2.0 -133.0H600.0V0.0ZM193.0 145.0C148.0 -69.0 55.0 -258.0 -86.0 -366.0C-59.0 -399.0 -15.0 -471.0 1.0 -506.0C169.0 -368.0 279.0 -140.0 339.0 116.0Z"/></g>
<g fill="red" transform="translate(700 500) scale(0.1 -0.1)"><path d="M0.0 0.0 -5.0 -29.0H328.0V0.0ZM4.0 382.0C3.0 117.0 -5.0 -309.0 -242.0 -496.0C-234.0 -500.0 -222.0 -507.0 -216.0 -512.0C23.0 -317.0 32.0 107.0 34.0 382.0Z"/></g>
<g fill="black" opacity=".8" transform="translate(700 500) scale(0.1 -0.1)"><path d="M0.0 0.0 -2.0 -31.0H323.0V0.0ZM19.0 378.0C12.0 103.0 -10.0 -308.0 -243.0 -499.0C-237.0 -502.0 -225.0 -508.0 -220.0 -513.0C15.0 -315.0 39.0 93.0 47.0 377.0Z"/></g>
<g fill="red" transform="translate(800 500) scale(0.1 -0.1)"><path d="M0.0 0.0 -26.0 -129.0H262.0V0.0ZM-63.0 363.0C-65.0 2.0 -51.0 -299.0 -276.0 -480.0C-240.0 -503.0 -197.0 -549.0 -175.0 -583.0C72.0 -376.0 76.0 -29.0 78.0 363.0Z"/></g>
<g fill="black" opacity=".8" transform="translate(800 500) scale(0.1 -0.1)"><path d="M0.0 0.0 -13.0 -120.0H262.0V0.0ZM-59.0 361.0C-61.0 27.0 -61.0 -301.0 -272.0 -489.0C-238.0 -511.0 -195.0 -552.0 -172.0 -585.0C57.0 -368.0 70.0 -5.0 74.0 364.0Z"/></g>
<g fill="red" transform="translate(900 500) scale(0.1 -0.1)"><path d="M0.0 0.0V-29.0H596.0V0.0ZM267.0 151.0C210.0 -74.0 108.0 -257.0 -47.0 -372.0C-39.0 -377.0 -26.0 -387.0 -22.0 -392.0C130.0 -270.0 234.0 -89.0 295.0 145.0Z"/></g>
<g fill="black" opacity=".8" transform="translate(900 500) scale(0.1 -0.1)"><path d="M0.0 0.0 1.0 -34.0H598.0V0.0ZM258.0 155.0C208.0 -72.0 113.0 -258.0 -44.0 -371.0C-37.0 -375.0 -26.0 -385.0 -21.0 -391.0C134.0 -273.0 233.0 -86.0 288.0 149.0Z"/></g>
<g fill="red" transform="translate(1000 500) scale(0.1 -0.1)"><path d="M0.0 0.0V-134.0H613.0V0.0ZM218.0 154.0C171.0 -68.0 73.0 -247.0 -85.0 -350.0C-58.0 -375.0 -11.0 -432.0 6.0 -460.0C178.0 -334.0 291.0 -127.0 351.0 129.0Z"/></g>
<g fill="black" opacity=".8" transform="translate(1000 500) scale(0.1 -0.1)"><path d="M0.0 0.0 2.0 -131.0H611.0V0.0ZM216.0 152.0C170.0 -72.0 74.0 -246.0 -86.0 -346.0C-59.0 -372.0 -14.0 -431.0 5.0 -463.0C185.0 -339.0 295.0 -132.0 355.0 125.0Z"/></g>
<g fill="red" transform="translate(1100 500) scale(0.1 -0.1)"><path d="M0.0 0.0V-30.0H578.0V0.0ZM241.0 -145.0C191.0 -341.0 97.0 -498.0 -43.0 -595.0C-35.0 -601.0 -23.0 -612.0 -18.0 -618.0C119.0 -514.0 217.0 -357.0 270.0 -151.0Z"/></g>
<g fill="black" opacity=".8" transform="translate(1100 500) scale(0.1 -0.1)"><path d="M0.0 0.0V-28.0H577.0V0.0ZM237.0 -141.0C189.0 -336.0 97.0 -500.0 -44.0 -596.0C-34.0 -601.0 -22.0 -612.0 -16.0 -618.0C121.0 -516.0 218.0 -351.0 269.0 -148.0Z"/></g>
<g fill="red" transform="translate(1200 500) scale(0.1 -0.1)"><path d="M0.0 0.0V-126.0H586.0V0.0ZM196.0 -168.0C153.0 -348.0 63.0 -499.0 -73.0 -584.0C-42.0 -609.0 12.0 -665.0 33.0 -693.0C177.0 -586.0 282.0 -410.0 339.0 -197.0Z"/></g>
<g fill="black" opacity=".8" transform="translate(1200 500) scale(0.1 -0.1)"><path d="M0.0 0.0 -1.0 -129.0H587.0V0.0ZM194.0 -171.0C153.0 -358.0 68.0 -496.0 -72.0 -579.0C-42.0 -604.0 10.0 -664.0 30.0 -694.0C182.0 -590.0 284.0 -418.0 336.0 -197.0Z"/></g>
<g fill="red" transform="translate(1300 500) scale(0.1 -0.1)"><path d="M0.0 0.0V-29.0H504.0V0.0ZM126.0 492.0C67.0 285.0 -56.0 76.0 -236.0 -53.0C-231.0 -59.0 -222.0 -69.0 -219.0 -76.0C-33.0 57.0 88.0 271.0 154.0 484.0Z"/></g>
<g fill="black" opacity=".8" transform="translate(1300 500) scale(0.1 -0.1)"><path d="M0.0 0.0 -1.0 -31.0H508.0V0.0ZM118.0 488.0C60.0 287.0 -51.0 70.0 -242.0 -51.0C-234.0 -56.0 -221.0 -67.0 -216.0 -73.0C-26.0 53.0 88.0 272.0 151.0 480.0Z"/></g>
<g fill="red" transform="translate(1400 500) scale(0.1 -0.1)"><path d="M0.0 0.0V-120.0H433.0V0.0ZM37.0 479.0C-10.0 295.0 -117.0 84.0 -288.0 -26.0C-259.0 -54.0 -213.0 -106.0 -191.0 -139.0C0.0 -6.0 118.0 223.0 188.0 445.0Z"/></g>
<g fill="black" opacity=".8" transform="translate(1400 500) scale(0.1 -0.1)"><path d="M0.0 0.0 -5.0 -122.0H431.0V0.0ZM32.0 483.0C-15.0 287.0 -111.0 92.0 -287.0 -18.0C-256.0 -48.0 -211.0 -110.0 -190.0 -145.0C9.0 -12.0 121.0 218.0 185.0 452.0Z"/></g>
<g fill="red" transform="translate(1500 500) scale(0.1 -0.1)"><path d="M0.0 0.0V-29.0H473.0V0.0ZM192.0 108.0C149.0 -46.0 76.0 -186.0 -20.0 -277.0C-12.0 -282.0 1.0 -292.0 6.0 -297.0C99.0 -201.0 176.0 -59.0 222.0 102.0Z"/></g>
<g fill="black" opacity=".8" transform="translate(1500 500) scale(0.1 -0.1)"><path d="M0.0 0.0V-30.0H473.0V0.0ZM197.0 107.0C152.0 -53.0 74.0 -183.0 -17.0 -279.0C-10.0 -282.0 -0.0 -292.0 5.0 -298.0C93.0 -197.0 175.0 -66.0 224.0 101.0Z"/></g>
<g fill="red" transform="translate(1600 500) scale(0.1 -0.1)"><path d="M0.0 0.0V-121.0H500.0V0.0ZM166.0 82.0C134.0 -54.0 69.0 -175.0 -23.0 -248.0C0.0 -273.0 40.0 -331.0 54.0 -358.0C165.0 -264.0 245.0 -112.0 289.0 56.0Z"/></g>
<g fill="black" opacity=".8" transform="translate(1600 500) scale(0.1 -0.1)"><path d="M0.0 0.0 -1.0 -116.0H496.0V0.0ZM175.0 80.0C139.0 -44.0 62.0 -181.0 -26.0 -258.0C-3.0 -280.0 41.0 -332.0 56.0 -355.0C157.0 -257.0 245.0 -97.0 293.0 55.0Z"/></g>
<g fill="red" transform="translate(100 600) scale(0.1 -0.1)"><path d="M0.0 0.0V-29.0H583.0V0.0ZM183.0 195.0C153.0 -177.0 103.0 -490.0 -55.0 -687.0C-48.0 -691.0 -34.0 -700.0 -29.0 -705.0C130.0 -498.0 180.0 -194.0 213.0 193.0Z"/></g>
<g fill="black" opacity=".8" transform="translate(100 600) scale(0.1 -0.1)"><path d="M0.0 0.0V-29.0H584.0V0.0ZM179.0 198.0C149.0 -171.0 102.0 -490.0 -53.0 -688.0C-46.0 -691.0 -33.0 -700.0 -26.0 -706.0C129.0 -499.0 179.0 -187.0 212.0 195.0Z"/></g>
<g fill="red" transform="translate(200 600) scale(0.1 -0.1)"><path d="M0.0 0.0V-142.0H590.0V0.0ZM103.0 131.0C95.0 -217.0 62.0 -532.0 -66.0 -708.0C-30.0 -729.0 41.0 -779.0 64.0 -803.0C196.0 -594.0 236.0 -256.0 251.0 127.0Z"/></g>
<g fill="black" opacity=".8" transform="translate(200 600) scale(0.1 -0.1)"><path d="M0.0 0.0V-142.0H588.0V0.0ZM107.0 131.0C95.0 -226.0 63.0 -532.0 -65.0 -708.0C-30.0 -728.0 37.0 -777.0 62.0 -802.0C199.0 -595.0 237.0 -263.0 253.0 126.0Z"/></g>
<g fill="red" transform="translate(300 600) scale(0.1 -0.1)"><path d="M0.0 0.0V-29.0H389.0V0.0ZM105.0 479.0C57.0 272.0 -31.0 101.0 -165.0 -8.0C-157.0 -13.0 -145.0 -23.0 -140.0 -27.0C-8.0 87.0 82.0 258.0 134.0 473.0Z"/></g>
<g fill="black" opacity=".8" transform="translate(300 600) scale(0.1 -0.1)"><path d="M0.0 0.0 1.0 -30.0H393.0V0.0ZM102.0 480.0C54.0 279.0 -33.0 96.0 -163.0 -8.0C-156.0 -12.0 -144.0 -22.0 -138.0 -27.0C-11.0 83.0 80.0 265.0 132.0 473.0Z"/></g>
<g fill="red" transform="translate(400 600) scale(0.1 -0.1)"><path d="M0.0 0.0V-118.0H311.0V0.0ZM-18.0 487.0C-61.0 283.0 -148.0 102.0 -276.0 -4.0C-246.0 -29.0 -193.0 -86.0 -173.0 -114.0C-35.0 15.0 66.0 226.0 121.0 460.0Z"/></g>
<g fill="black" opacity=".8" transform="translate(400 600) scale(0.1 -0.1)"><path d="M0.0 0.0 1.0 -120.0H307.0V0.0ZM-16.0 489.0C-60.0 274.0 -140.0 109.0 -268.0 5.0C-240.0 -24.0 -198.0 -86.0 -180.0 -120.0C-31.0 9.0 65.0 215.0 119.0 462.0Z"/></g>
<g fill="red" transform="translate(500 600) scale(0.1 -0.1)"><path d="M0.0 0.0V-29.0H645.0V0.0ZM224.0 174.0C175.0 -102.0 94.0 -343.0 -49.0 -497.0C-41.0 -501.0 -28.0 -511.0 -23.0 -515.0C119.0 -355.0 201.0 -117.0 255.0 169.0Z"/></g>
<g fill="black" opacity=".8" transform="translate(500 600) scale(0.1 -0.1)"><path d="M0.0 0.0 1.0 -27.0H650.0V0.0ZM223.0 164.0C176.0 -107.0 94.0 -344.0 -51.0 -495.0C-43.0 -499.0 -31.0 -509.0 -25.0 -516.0C119.0 -358.0 204.0 -123.0 255.0 159.0Z"/></g>
<g fill="red" transform="translate(600 600) scale(0.1 -0.1)"><path d="M0.0 0.0V-132.0H662.0V0.0ZM177.0 117.0C131.0 -132.0 44.0 -361.0 -90.0 -494.0C-57.0 -515.0 6.0 -563.0 30.0 -588.0C166.0 -433.0 264.0 -181.0 320.0 93.0Z"/></g>
<g fill="black" opacity=".8" transform="translate(600 600) scale(0.1 -0.1)"><path d="M0.0 0.0 1.0 -137.0H659.0V0.0ZM164.0 126.0C128.0 -126.0 53.0 -355.0 -83.0 -487.0C-51.0 -511.0 7.0 -567.0 29.0 -595.0C179.0 -438.0 265.0 -181.0 312.0 105.0Z"/></g>
<g fill="red" transform="translate(700 600) scale(0.1 -0.1)"><path d="M0.0 0.0V-29.0H425.0V0.0ZM92.0 391.0C37.0 214.0 -58.0 62.0 -185.0 -34.0C-177.0 -39.0 -164.0 -50.0 -160.0 -55.0C-35.0 47.0 63.0 199.0 121.0 385.0Z"/></g>
<g fill="black" opacity=".8" transform="translate(700 600) scale(0.1 -0.1)"><path d="M0.0 0.0V-24.0H422.0V0.0ZM94.0 396.0C42.0 210.0 -55.0 62.0 -185.0 -37.0C-178.0 -41.0 -167.0 -51.0 -162.0 -56.0C-34.0 47.0 66.0 196.0 123.0 389.0Z"/></g>
<g fill="red" transform="translate(800 600) scale(0.1 -0.1)"><path d="M0.0 0.0V-99.0H356.0V0.0ZM18.0 380.0C-20.0 215.0 -102.0 74.0 -223.0 -7.0C-193.0 -30.0 -141.0 -82.0 -121.0 -108.0C8.0 -8.0 103.0 157.0 154.0 353.0Z"/></g>
<g fill="black" opacity=".8" transform="translate(800 600) scale(0.1 -0.1)"><path d="M0.0 0.0 -2.0 -102.0H357.0V0.0ZM21.0 375.0C-18.0 220.0 -102.0 76.0 -216.0 -6.0C-189.0 -29.0 -144.0 -83.0 -126.0 -109.0C2.0 -8.0 98.0 162.0 151.0 348.0Z"/></g>
<g fill="red" transform="translate(900 600) scale(0.1 -0.1)"><path d="M0.0 0.0V-30.0H578.0V0.0ZM231.0 -135.0C186.0 -326.0 100.0 -482.0 -28.0 -580.0C-20.0 -586.0 -8.0 -597.0 -3.0 -602.0C122.0 -497.0 211.0 -340.0 260.0 -140.0Z"/></g>
<g fill="black" opacity=".8" transform="translate(900 600) scale(0.1 -0.1)"><path d="M0.0 0.0V-28.0H573.0V0.0ZM235.0 -132.0C188.0 -326.0 103.0 -484.0 -30.0 -582.0C-22.0 -587.0 -11.0 -597.0 -6.0 -603.0C124.0 -499.0 214.0 -340.0 264.0 -138.0Z"/></g>
<g fill="red" transform="translate(1000 600) scale(0.1 -0.1)"><path d="M0.0 0.0V-125.0H581.0V0.0ZM179.0 -172.0C149.0 -364.0 76.0 -521.0 -54.0 -610.0C-25.0 -633.0 25.0 -686.0 44.0 -712.0C186.0 -602.0 272.0 -420.0 315.0 -192.0Z"/></g>
<g fill="black" opacity=".8" transform="translate(1000 600) scale(0.1 -0.1)"><path d="M0.0 0.0 -3.0 -124.0H584.0V0.0ZM181.0 -173.0C147.0 -364.0 74.0 -517.0 -50.0 -607.0C-23.0 -631.0 26.0 -687.0 43.0 -714.0C180.0 -603.0 267.0 -419.0 312.0 -196.0Z"/></g>
<g fill="red" transform="translate(1100 600) scale(0.1 -0.1)"><path d="M0.0 0.0V-29.0H513.0V0.0ZM187.0 188.0C150.0 -111.0 78.0 -342.0 -90.0 -486.0C-82.0 -491.0 -70.0 -501.0 -64.0 -507.0C102.0 -354.0 177.0 -126.0 218.0 184.0Z"/></g>
<g fill="black" opacity=".8" transform="translate(1100 600) scale(0.1 -0.1)"><path d="M0.0 0.0V-27.0H512.0V0.0ZM194.0 182.0C153.0 -117.0 77.0 -342.0 -92.0 -487.0C-85.0 -492.0 -74.0 -502.0 -68.0 -508.0C101.0 -355.0 181.0 -130.0 224.0 178.0Z"/></g>
<g fill="red" transform="translate(1200 600) scale(0.1 -0.1)"><path d="M0.0 0.0V-131.0H559.0V0.0ZM183.0 158.0C154.0 -131.0 81.0 -356.0 -99.0 -479.0C-68.0 -506.0 -14.0 -569.0 5.0 -599.0C202.0 -446.0 292.0 -190.0 332.0 143.0Z"/></g>
<g fill="black" opacity=".8" transform="translate(1200 600) scale(0.1 -0.1)"><path d="M0.0 0.0V-130.0H559.0V0.0ZM185.0 164.0C153.0 -123.0 77.0 -352.0 -88.0 -479.0C-61.0 -506.0 -13.0 -571.0 4.0 -603.0C195.0 -446.0 285.0 -182.0 329.0 146.0Z"/></g>
<g fill="red" transform="translate(1300 600) scale(0.1 -0.1)"><path d="M0.0 0.0V-29.0H521.0V0.0ZM146.0 195.0C123.0 -168.0 83.0 -485.0 -49.0 -687.0C-42.0 -691.0 -29.0 -700.0 -23.0 -705.0C110.0 -492.0 150.0 -184.0 177.0 193.0Z"/></g>
<g fill="black" opacity=".8" transform="translate(1300 600) scale(0.1 -0.1)"><path d="M0.0 0.0V-27.0H517.0V0.0ZM147.0 198.0C123.0 -169.0 87.0 -484.0 -50.0 -688.0C-43.0 -691.0 -31.0 -700.0 -24.0 -707.0C113.0 -492.0 151.0 -185.0 179.0 196.0Z"/></g>
<g fill="red" transform="translate(1400 600) scale(0.1 -0.1)"><path d="M0.0 0.0V-142.0H552.0V0.0ZM110.0 131.0C104.0 -214.0 75.0 -531.0 -39.0 -708.0C-4.0 -729.0 63.0 -779.0 85.0 -802.0C204.0 -592.0 239.0 -252.0 251.0 127.0Z"/></g>
<g fill="black" opacity=".8" transform="translate(1400 600) scale(0.1 -0.1)"><path d="M0.0 0.0 -1.0 -143.0H554.0V0.0ZM107.0 127.0C100.0 -215.0 75.0 -529.0 -37.0 -707.0C-4.0 -727.0 62.0 -779.0 84.0 -802.0C207.0 -592.0 239.0 -252.0 250.0 125.0Z"/></g>
<g fill="red" transform="translate(1500 600) scale(0.1 -0.1)"><path d="M0.0 0.0V-29.0H310.0V0.0ZM8.0 395.0C7.0 124.0 -3.0 -297.0 -177.0 -489.0C-169.0 -492.0 -156.0 -499.0 -151.0 -503.0C25.0 -303.0 36.0 113.0 38.0 395.0Z"/></g>
<g fill="black" opacity=".8" transform="translate(1500 600) scale(0.1 -0.1)"><path d="M0.0 0.0 -1.0 -24.0H310.0V0.0ZM10.0 393.0C8.0 117.0 4.0 -295.0 -178.0 -490.0C-171.0 -492.0 -160.0 -499.0 -153.0 -503.0C30.0 -300.0 36.0 107.0 39.0 393.0Z"/></g>
<g fill="red" transform="translate(1600 600) scale(0.1 -0.1)"><path d="M0.0 0.0V-121.0H253.0V0.0ZM-90.0 388.0C-92.0 45.0 -81.0 -267.0 -262.0 -459.0C-224.0 -481.0 -181.0 -524.0 -158.0 -558.0C41.0 -336.0 46.0 15.0 49.0 388.0Z"/></g>
<g fill="black" opacity=".8" transform="translate(1600 600) scale(0.1 -0.1)"><path d="M0.0 0.0 -7.0 -124.0H251.0V0.0ZM-85.0 388.0C-90.0 51.0 -85.0 -269.0 -262.0 -462.0C-226.0 -483.0 -178.0 -525.0 -154.0 -557.0C36.0 -335.0 45.0 24.0 47.0 390.0Z"/></g>
<g fill="red" transform="translate(100 700) scale(0.1 -0.1)"><path d="M0.0 0.0V-30.0H390.0V0.0ZM92.0 463.0C40.0 155.0 -48.0 -105.0 -214.0 -268.0C-206.0 -273.0 -195.0 -283.0 -190.0 -289.0C-22.0 -116.0 65.0 139.0 122.0 459.0Z"/></g>
<g fill="black" opacity=".8" transform="translate(100 700) scale(0.1 -0.1)"><path d="M0.0 0.0V-36.0H410.0V0.0ZM65.0 468.0C26.0 162.0 -44.0 -105.0 -207.0 -265.0C-200.0 -270.0 -187.0 -280.0 -181.0 -285.0C-18.0 -116.0 54.0 147.0 97.0 463.0Z"/></g>
<g fill="red" transform="translate(200 700) scale(0.1 -0.1)"><path d="M0.0 0.0V-134.0H376.0V0.0ZM-31.0 444.0C-60.0 153.0 -120.0 -113.0 -250.0 -268.0C-218.0 -294.0 -160.0 -353.0 -139.0 -382.0C1.0 -197.0 75.0 103.0 112.0 429.0Z"/></g>
<g fill="black" opacity=".8" transform="translate(200 700) scale(0.1 -0.1)"><path d="M0.0 0.0 -1.0 -138.0H360.0V0.0ZM-25.0 444.0C-52.0 139.0 -109.0 -115.0 -254.0 -264.0C-222.0 -290.0 -168.0 -352.0 -147.0 -383.0C17.0 -205.0 88.0 86.0 123.0 429.0Z"/></g>
<g fill="red" transform="translate(300 700) scale(0.1 -0.1)"><path d="M0.0 0.0V-29.0H266.0V0.0ZM533.0 425.0C495.0 243.0 429.0 84.0 324.0 -17.0C332.0 -22.0 343.0 -31.0 349.0 -36.0C452.0 70.0 523.0 229.0 563.0 420.0Z"/></g>
<g fill="black" opacity=".8" transform="translate(300 700) scale(0.1 -0.1)"><path d="M0.0 0.0V-28.0H271.0V0.0ZM529.0 423.0C494.0 239.0 431.0 83.0 324.0 -17.0C331.0 -21.0 343.0 -30.0 350.0 -36.0C453.0 70.0 523.0 226.0 560.0 418.0Z"/></g>
<g fill="red" transform="translate(400 700) scale(0.1 -0.1)"><path d="M0.0 0.0V-108.0H307.0V0.0ZM530.0 445.0C493.0 264.0 423.0 99.0 317.0 -1.0C341.0 -34.0 378.0 -108.0 390.0 -141.0C524.0 -11.0 613.0 198.0 663.0 417.0Z"/></g>
<g fill="black" opacity=".8" transform="translate(400 700) scale(0.1 -0.1)"><path d="M0.0 0.0 -1.0 -110.0H301.0V0.0ZM530.0 446.0C494.0 267.0 427.0 103.0 323.0 2.0C344.0 -33.0 375.0 -110.0 386.0 -145.0C528.0 -13.0 613.0 199.0 661.0 419.0Z"/></g>
<g fill="red" transform="translate(500 700) scale(0.1 -0.1)"><path d="M0.0 0.0V-30.0H596.0V0.0ZM240.0 -135.0C194.0 -316.0 106.0 -464.0 -20.0 -556.0C-13.0 -562.0 -1.0 -573.0 3.0 -578.0C128.0 -479.0 220.0 -331.0 270.0 -140.0Z"/></g>
<g fill="black" opacity=".8" transform="translate(500 700) scale(0.1 -0.1)"><path d="M0.0 0.0V-28.0H599.0V0.0ZM241.0 -134.0C193.0 -318.0 104.0 -463.0 -19.0 -558.0C-11.0 -562.0 -1.0 -573.0 4.0 -579.0C125.0 -478.0 218.0 -332.0 270.0 -140.0Z"/></g>
<g fill="red" transform="translate(600 700) scale(0.1 -0.1)"><path d="M0.0 0.0V-125.0H641.0V0.0ZM206.0 -167.0C170.0 -335.0 89.0 -472.0 -36.0 -550.0C-7.0 -575.0 45.0 -629.0 64.0 -657.0C202.0 -558.0 297.0 -394.0 345.0 -192.0Z"/></g>
<g fill="black" opacity=".8" transform="translate(600 700) scale(0.1 -0.1)"><path d="M0.0 0.0 -1.0 -125.0H636.0V0.0ZM215.0 -168.0C176.0 -333.0 91.0 -472.0 -32.0 -552.0C-6.0 -576.0 43.0 -631.0 60.0 -657.0C195.0 -557.0 294.0 -390.0 346.0 -193.0Z"/></g>
<g fill="red" transform="translate(700 700) scale(0.1 -0.1)"><path d="M0.0 0.0V-30.0H381.0V0.0ZM96.0 418.0C45.0 228.0 -50.0 71.0 -182.0 -28.0C-174.0 -33.0 -161.0 -43.0 -156.0 -48.0C-26.0 57.0 71.0 213.0 126.0 412.0Z"/></g>
<g fill="black" opacity=".8" transform="translate(700 700) scale(0.1 -0.1)"><path d="M0.0 0.0V-18.0H377.0V0.0ZM97.0 411.0C46.0 227.0 -47.0 71.0 -183.0 -25.0C-176.0 -30.0 -163.0 -40.0 -158.0 -45.0C-25.0 56.0 73.0 212.0 127.0 404.0Z"/></g>
<g fill="red" transform="translate(800 700) scale(0.1 -0.1)"><path d="M0.0 0.0V-88.0H307.0V0.0ZM37.0 399.0C-6.0 247.0 -91.0 117.0 -206.0 40.0C-185.0 7.0 -153.0 -65.0 -144.0 -98.0C2.0 6.0 106.0 177.0 165.0 368.0Z"/></g>
<g fill="black" opacity=".8" transform="translate(800 700) scale(0.1 -0.1)"><path d="M0.0 0.0 -2.0 -98.0H309.0V0.0ZM31.0 403.0C-10.0 243.0 -95.0 106.0 -219.0 25.0C-192.0 -0.0 -147.0 -58.0 -129.0 -87.0C12.0 14.0 112.0 182.0 166.0 375.0Z"/></g>
<g fill="red" transform="translate(900 700) scale(0.1 -0.1)"><path d="M0.0 0.0V-30.0H319.0V0.0ZM81.0 459.0C41.0 274.0 -32.0 113.0 -142.0 9.0C-134.0 4.0 -121.0 -5.0 -115.0 -9.0C-8.0 100.0 66.0 260.0 110.0 454.0Z"/></g>
<g fill="black" opacity=".8" transform="translate(900 700) scale(0.1 -0.1)"><path d="M0.0 0.0V-29.0H308.0V0.0ZM92.0 462.0C46.0 273.0 -35.0 116.0 -142.0 7.0C-135.0 3.0 -123.0 -8.0 -117.0 -14.0C-12.0 102.0 72.0 258.0 122.0 456.0Z"/></g>
<g fill="red" transform="translate(1000 700) scale(0.1 -0.1)"><path d="M0.0 0.0V-121.0H262.0V0.0ZM34.0 455.0C-1.0 283.0 -70.0 125.0 -173.0 30.0C-148.0 -1.0 -107.0 -70.0 -93.0 -102.0C34.0 21.0 121.0 218.0 169.0 427.0Z"/></g>
<g fill="black" opacity=".8" transform="translate(1000 700) scale(0.1 -0.1)"><path d="M0.0 0.0 -2.0 -117.0H269.0V0.0ZM34.0 450.0C-2.0 287.0 -76.0 122.0 -174.0 25.0C-149.0 -3.0 -106.0 -68.0 -91.0 -98.0C29.0 25.0 118.0 225.0 166.0 424.0Z"/></g>
<g fill="red" transform="translate(1100 700) scale(0.1 -0.1)"><path d="M0.0 0.0V-29.0H534.0V0.0ZM194.0 103.0C150.0 -54.0 74.0 -197.0 -23.0 -290.0C-15.0 -295.0 -2.0 -305.0 3.0 -310.0C98.0 -212.0 176.0 -67.0 223.0 97.0Z"/></g>
<g fill="black" opacity=".8" transform="translate(1100 700) scale(0.1 -0.1)"><path d="M0.0 0.0V-28.0H526.0V0.0ZM202.0 111.0C154.0 -55.0 73.0 -193.0 -19.0 -293.0C-12.0 -297.0 -2.0 -307.0 3.0 -312.0C93.0 -207.0 177.0 -69.0 228.0 105.0Z"/></g>
<g fill="red" transform="translate(1200 700) scale(0.1 -0.1)"><path d="M0.0 0.0V-121.0H536.0V0.0ZM150.0 87.0C120.0 -58.0 61.0 -189.0 -29.0 -268.0C-5.0 -295.0 35.0 -355.0 49.0 -383.0C159.0 -281.0 235.0 -117.0 276.0 62.0Z"/></g>
<g fill="black" opacity=".8" transform="translate(1200 700) scale(0.1 -0.1)"><path d="M0.0 0.0V-116.0H538.0V0.0ZM163.0 76.0C127.0 -54.0 50.0 -199.0 -37.0 -282.0C-12.0 -303.0 34.0 -351.0 51.0 -374.0C147.0 -272.0 234.0 -106.0 281.0 52.0Z"/></g>
<g fill="red" transform="translate(1300 700) scale(0.1 -0.1)"><path d="M0.0 0.0V-29.0H539.0V0.0ZM234.0 161.0C189.0 -45.0 105.0 -214.0 -28.0 -321.0C-20.0 -326.0 -7.0 -337.0 -2.0 -342.0C127.0 -228.0 214.0 -59.0 263.0 156.0Z"/></g>
<g fill="black" opacity=".8" transform="translate(1300 700) scale(0.1 -0.1)"><path d="M0.0 0.0V-31.0H544.0V0.0ZM233.0 156.0C184.0 -45.0 98.0 -210.0 -22.0 -321.0C-15.0 -326.0 -5.0 -336.0 0.0 -342.0C119.0 -224.0 209.0 -59.0 261.0 150.0Z"/></g>
<g fill="red" transform="translate(1400 700) scale(0.1 -0.1)"><path d="M0.0 0.0V-134.0H572.0V0.0ZM176.0 133.0C137.0 -57.0 61.0 -229.0 -50.0 -334.0C-28.0 -368.0 7.0 -441.0 18.0 -475.0C159.0 -339.0 253.0 -122.0 306.0 106.0Z"/></g>
<g fill="black" opacity=".8" transform="translate(1400 700) scale(0.1 -0.1)"><path d="M0.0 0.0V-131.0H565.0V0.0ZM181.0 137.0C141.0 -57.0 60.0 -241.0 -60.0 -346.0C-35.0 -374.0 7.0 -437.0 23.0 -468.0C165.0 -335.0 260.0 -119.0 313.0 112.0Z"/></g>
<g fill="red" transform="translate(1500 700) scale(0.1 -0.1)"><path d="M0.0 0.0V-29.0H304.0V0.0ZM2.0 397.0C2.0 115.0 -6.0 -300.0 -214.0 -486.0C-207.0 -490.0 -194.0 -497.0 -189.0 -501.0C21.0 -306.0 30.0 104.0 32.0 397.0Z"/></g>
<g fill="black" opacity=".8" transform="translate(1500 700) scale(0.1 -0.1)"><path d="M0.0 0.0 -1.0 -28.0H301.0V0.0ZM9.0 399.0C5.0 107.0 -8.0 -295.0 -212.0 -489.0C-206.0 -492.0 -194.0 -498.0 -188.0 -502.0C17.0 -301.0 31.0 96.0 37.0 398.0Z"/></g>
<g fill="red" transform="translate(1600 700) scale(0.1 -0.1)"><path d="M0.0 0.0V-121.0H244.0V0.0ZM-69.0 386.0C-71.0 33.0 -62.0 -270.0 -245.0 -454.0C-209.0 -476.0 -167.0 -519.0 -145.0 -553.0C55.0 -342.0 61.0 2.0 63.0 386.0Z"/></g>
<g fill="black" opacity=".8" transform="translate(1600 700) scale(0.1 -0.1)"><path d="M0.0 0.0 -9.0 -118.0H243.0V0.0ZM-67.0 380.0C-68.0 42.0 -65.0 -276.0 -249.0 -462.0C-215.0 -481.0 -168.0 -519.0 -144.0 -549.0C54.0 -336.0 62.0 16.0 62.0 384.0Z"/></g>
<g fill="red" transform="translate(100 800) scale(0.1 -0.1)"><path d="M0.0 0.0V-29.0H530.0V0.0ZM218.0 -133.0C176.0 -325.0 93.0 -479.0 -36.0 -575.0C-28.0 -581.0 -16.0 -591.0 -12.0 -597.0C115.0 -493.0 203.0 -340.0 249.0 -139.0Z"/></g>
<g fill="black" opacity=".8" transform="translate(100 800) scale(0.1 -0.1)"><path d="M0.0 0.0V-29.0H529.0V0.0ZM218.0 -129.0C174.0 -323.0 94.0 -479.0 -35.0 -576.0C-27.0 -581.0 -15.0 -591.0 -10.0 -597.0C115.0 -493.0 201.0 -337.0 247.0 -134.0Z"/></g>
<g fill="red" transform="translate(200 800) scale(0.1 -0.1)"><path d="M0.0 0.0V-122.0H541.0V0.0ZM172.0 -168.0C143.0 -350.0 77.0 -500.0 -40.0 -585.0C-12.0 -609.0 35.0 -663.0 54.0 -690.0C181.0 -583.0 261.0 -407.0 300.0 -190.0Z"/></g>
<g fill="black" opacity=".8" transform="translate(200 800) scale(0.1 -0.1)"><path d="M0.0 0.0 -3.0 -121.0H541.0V0.0ZM175.0 -173.0C145.0 -356.0 76.0 -501.0 -42.0 -586.0C-15.0 -609.0 34.0 -662.0 52.0 -688.0C181.0 -582.0 262.0 -408.0 303.0 -193.0Z"/></g>
<g fill="red" transform="translate(300 800) scale(0.1 -0.1)"><path d="M0.0 0.0V-29.0H560.0V0.0ZM227.0 143.0C186.0 -74.0 111.0 -257.0 -13.0 -373.0C-5.0 -378.0 7.0 -389.0 12.0 -393.0C134.0 -270.0 211.0 -88.0 257.0 138.0Z"/></g>
<g fill="black" opacity=".8" transform="translate(300 800) scale(0.1 -0.1)"><path d="M0.0 0.0V-34.0H559.0V0.0ZM234.0 137.0C187.0 -73.0 105.0 -259.0 -14.0 -375.0C-6.0 -379.0 6.0 -389.0 11.0 -394.0C128.0 -272.0 213.0 -89.0 264.0 130.0Z"/></g>
<g fill="red" transform="translate(400 800) scale(0.1 -0.1)"><path d="M0.0 0.0V-127.0H505.0V0.0ZM140.0 74.0C110.0 -110.0 49.0 -282.0 -48.0 -384.0C-16.0 -400.0 42.0 -437.0 67.0 -457.0C162.0 -340.0 232.0 -153.0 270.0 53.0Z"/></g>
<g fill="black" opacity=".8" transform="translate(400 800) scale(0.1 -0.1)"><path d="M0.0 0.0 -2.0 -121.0H505.0V0.0ZM137.0 80.0C109.0 -107.0 49.0 -277.0 -42.0 -379.0C-12.0 -397.0 45.0 -441.0 67.0 -463.0C161.0 -343.0 229.0 -152.0 266.0 60.0Z"/></g>
<g fill="red" transform="translate(500 800) scale(0.1 -0.1)"><path d="M0.0 0.0V-29.0H358.0V0.0ZM77.0 476.0C40.0 270.0 -29.0 91.0 -141.0 -23.0C-133.0 -27.0 -121.0 -37.0 -116.0 -42.0C-4.0 78.0 66.0 256.0 108.0 471.0Z"/></g>
<g fill="black" opacity=".8" transform="translate(500 800) scale(0.1 -0.1)"><path d="M0.0 0.0V-27.0H344.0V0.0ZM89.0 484.0C46.0 275.0 -29.0 90.0 -142.0 -26.0C-135.0 -30.0 -123.0 -40.0 -117.0 -45.0C-6.0 78.0 72.0 260.0 119.0 478.0Z"/></g>
<g fill="red" transform="translate(600 800) scale(0.1 -0.1)"><path d="M0.0 0.0V-116.0H262.0V0.0ZM-10.0 475.0C-37.0 274.0 -94.0 94.0 -202.0 -13.0C-174.0 -40.0 -128.0 -101.0 -111.0 -130.0C16.0 3.0 89.0 217.0 126.0 455.0Z"/></g>
<g fill="black" opacity=".8" transform="translate(600 800) scale(0.1 -0.1)"><path d="M0.0 0.0 -1.0 -113.0H271.0V0.0ZM-6.0 468.0C-38.0 271.0 -102.0 93.0 -201.0 -15.0C-174.0 -40.0 -128.0 -98.0 -110.0 -126.0C6.0 6.0 82.0 217.0 124.0 446.0Z"/></g>
<g fill="red" transform="translate(700 800) scale(0.1 -0.1)"><path d="M0.0 0.0V-29.0H384.0V0.0ZM167.0 198.0C137.0 -80.0 85.0 -329.0 -29.0 -488.0C-22.0 -493.0 -9.0 -503.0 -3.0 -507.0C112.0 -339.0 164.0 -95.0 197.0 195.0Z"/></g>
<g fill="black" opacity=".8" transform="translate(700 800) scale(0.1 -0.1)"><path d="M0.0 0.0V-33.0H399.0V0.0ZM162.0 189.0C133.0 -91.0 87.0 -330.0 -29.0 -488.0C-22.0 -492.0 -11.0 -501.0 -5.0 -508.0C111.0 -340.0 160.0 -105.0 192.0 186.0Z"/></g>
<g fill="red" transform="translate(800 800) scale(0.1 -0.1)"><path d="M0.0 0.0V-139.0H442.0V0.0ZM123.0 133.0C105.0 -140.0 61.0 -394.0 -45.0 -541.0C-12.0 -559.0 51.0 -603.0 75.0 -624.0C184.0 -453.0 237.0 -178.0 262.0 122.0Z"/></g>
<g fill="black" opacity=".8" transform="translate(800 800) scale(0.1 -0.1)"><path d="M0.0 0.0 -3.0 -139.0H430.0V0.0ZM122.0 142.0C108.0 -127.0 72.0 -381.0 -29.0 -527.0C-2.0 -552.0 49.0 -613.0 65.0 -640.0C186.0 -462.0 234.0 -174.0 254.0 132.0Z"/></g>
<g fill="red" transform="translate(900 800) scale(0.1 -0.1)"><path d="M0.0 0.0V-29.0H301.0V0.0ZM13.0 397.0C12.0 122.0 2.0 -284.0 -177.0 -470.0C-169.0 -473.0 -156.0 -480.0 -150.0 -485.0C30.0 -291.0 40.0 111.0 43.0 397.0Z"/></g>
<g fill="black" opacity=".8" transform="translate(900 800) scale(0.1 -0.1)"><path d="M0.0 0.0 -1.0 -27.0H303.0V0.0ZM17.0 398.0C13.0 108.0 4.0 -279.0 -174.0 -471.0C-168.0 -474.0 -157.0 -480.0 -151.0 -485.0C29.0 -284.0 38.0 97.0 44.0 398.0Z"/></g>
<g fill="red" transform="translate(1000 800) scale(0.1 -0.1)"><path d="M0.0 0.0V-121.0H263.0V0.0ZM-67.0 386.0C-69.0 31.0 -65.0 -272.0 -225.0 -455.0C-189.0 -478.0 -146.0 -521.0 -123.0 -556.0C49.0 -345.0 56.0 -1.0 57.0 386.0Z"/></g>
<g fill="black" opacity=".8" transform="translate(1000 800) scale(0.1 -0.1)"><path d="M0.0 0.0 -7.0 -121.0H258.0V0.0ZM-67.0 381.0C-68.0 43.0 -63.0 -276.0 -227.0 -464.0C-194.0 -484.0 -148.0 -525.0 -126.0 -554.0C53.0 -336.0 59.0 17.0 59.0 384.0Z"/></g>
<g fill="red" transform="translate(1100 800) scale(0.1 -0.1)"><path d="M0.0 0.0V-29.0H310.0V0.0ZM13.0 395.0C12.0 136.0 3.0 -297.0 -211.0 -488.0C-204.0 -492.0 -192.0 -499.0 -186.0 -503.0C31.0 -303.0 40.0 125.0 42.0 395.0Z"/></g>
<g fill="black" opacity=".8" transform="translate(1100 800) scale(0.1 -0.1)"><path d="M0.0 0.0 -2.0 -27.0H313.0V0.0ZM13.0 394.0C11.0 136.0 2.0 -294.0 -209.0 -491.0C-202.0 -493.0 -191.0 -500.0 -185.0 -505.0C28.0 -300.0 38.0 126.0 41.0 394.0Z"/></g>
<g fill="red" transform="translate(1200 800) scale(0.1 -0.1)"><path d="M0.0 0.0V-120.0H262.0V0.0ZM-75.0 388.0C-77.0 68.0 -65.0 -259.0 -268.0 -459.0C-230.0 -482.0 -186.0 -524.0 -162.0 -559.0C57.0 -329.0 64.0 37.0 67.0 388.0Z"/></g>
<g fill="black" opacity=".8" transform="translate(1200 800) scale(0.1 -0.1)"><path d="M0.0 0.0 -12.0 -122.0H257.0V0.0ZM-67.0 389.0C-71.0 67.0 -66.0 -265.0 -267.0 -460.0C-231.0 -481.0 -187.0 -522.0 -163.0 -556.0C54.0 -332.0 64.0 38.0 67.0 391.0Z"/></g>
<g fill="red" transform="translate(1300 800) scale(0.1 -0.1)"><path d="M0.0 0.0V-30.0H405.0V0.0ZM100.0 378.0C58.0 126.0 -18.0 -87.0 -152.0 -223.0C-144.0 -227.0 -132.0 -238.0 -127.0 -244.0C7.0 -100.0 83.0 112.0 130.0 373.0Z"/></g>
<g fill="black" opacity=".8" transform="translate(1300 800) scale(0.1 -0.1)"><path d="M0.0 0.0 1.0 -36.0H403.0V0.0ZM98.0 376.0C57.0 128.0 -18.0 -88.0 -153.0 -223.0C-145.0 -226.0 -131.0 -237.0 -125.0 -243.0C7.0 -101.0 85.0 112.0 131.0 371.0Z"/></g>
<g fill="red" transform="translate(1400 800) scale(0.1 -0.1)"><path d="M0.0 0.0V-134.0H370.0V0.0ZM57.0 356.0C23.0 147.0 -49.0 -37.0 -173.0 -144.0C-143.0 -169.0 -92.0 -224.0 -73.0 -252.0C63.0 -121.0 149.0 92.0 194.0 334.0Z"/></g>
<g fill="black" opacity=".8" transform="translate(1400 800) scale(0.1 -0.1)"><path d="M0.0 0.0V-128.0H371.0V0.0ZM55.0 357.0C21.0 145.0 -53.0 -39.0 -177.0 -147.0C-146.0 -170.0 -90.0 -224.0 -68.0 -250.0C67.0 -120.0 153.0 93.0 198.0 336.0Z"/></g>
<g fill="red" transform="translate(1500 800) scale(0.1 -0.1)"><path d="M0.0 0.0V-29.0H574.0V0.0ZM216.0 190.0C172.0 -117.0 87.0 -344.0 -104.0 -483.0C-97.0 -489.0 -85.0 -499.0 -80.0 -505.0C110.0 -356.0 199.0 -132.0 247.0 186.0Z"/></g>
<g fill="black" opacity=".8" transform="translate(1500 800) scale(0.1 -0.1)"><path d="M0.0 0.0V-29.0H567.0V0.0ZM219.0 199.0C174.0 -110.0 86.0 -342.0 -103.0 -487.0C-97.0 -492.0 -84.0 -501.0 -79.0 -507.0C110.0 -356.0 201.0 -125.0 251.0 193.0Z"/></g>
<g fill="red" transform="translate(1600 800) scale(0.1 -0.1)"><path d="M0.0 0.0V-131.0H572.0V0.0ZM179.0 175.0C151.0 -121.0 80.0 -351.0 -100.0 -478.0C-69.0 -506.0 -14.0 -568.0 5.0 -599.0C202.0 -441.0 289.0 -179.0 328.0 161.0Z"/></g>
<g fill="black" opacity=".8" transform="translate(1600 800) scale(0.1 -0.1)"><path d="M0.0 0.0V-127.0H577.0V0.0ZM184.0 170.0C152.0 -127.0 74.0 -354.0 -98.0 -479.0C-69.0 -505.0 -17.0 -564.0 3.0 -594.0C196.0 -442.0 286.0 -184.0 331.0 151.0Z"/></g>
<g fill="red" transform="translate(100 900) scale(0.1 -0.1)"><path d="M0.0 0.0V-29.0H613.0V0.0ZM229.0 140.0C173.0 -60.0 79.0 -242.0 -38.0 -359.0C-32.0 -366.0 -23.0 -380.0 -19.0 -387.0C102.0 -259.0 198.0 -75.0 257.0 133.0Z"/></g>
<g fill="black" opacity=".8" transform="translate(100 900) scale(0.1 -0.1)"><path d="M0.0 0.0V-30.0H608.0V0.0ZM230.0 140.0C177.0 -66.0 82.0 -244.0 -44.0 -362.0C-36.0 -366.0 -24.0 -378.0 -19.0 -384.0C106.0 -259.0 204.0 -81.0 261.0 133.0Z"/></g>
<g fill="red" transform="translate(200 900) scale(0.1 -0.1)"><path d="M0.0 0.0V-139.0H614.0V0.0ZM179.0 116.0C133.0 -82.0 42.0 -259.0 -86.0 -363.0C-57.0 -390.0 -7.0 -451.0 11.0 -481.0C153.0 -353.0 259.0 -143.0 319.0 86.0Z"/></g>
<g fill="black" opacity=".8" transform="translate(200 900) scale(0.1 -0.1)"><path d="M0.0 0.0V-136.0H617.0V0.0ZM173.0 114.0C129.0 -74.0 40.0 -257.0 -85.0 -362.0C-56.0 -390.0 -6.0 -453.0 13.0 -483.0C155.0 -352.0 259.0 -138.0 316.0 86.0Z"/></g>
<g fill="red" transform="translate(300 900) scale(0.1 -0.1)"><path d="M0.0 0.0V-29.0H649.0V0.0ZM282.0 190.0C233.0 -109.0 144.0 -340.0 -38.0 -483.0C-31.0 -489.0 -19.0 -499.0 -13.0 -505.0C169.0 -352.0 260.0 -124.0 313.0 186.0Z"/></g>
<g fill="black" opacity=".8" transform="translate(300 900) scale(0.1 -0.1)"><path d="M0.0 0.0 1.0 -27.0H641.0V0.0ZM284.0 194.0C235.0 -102.0 145.0 -341.0 -40.0 -485.0C-32.0 -490.0 -20.0 -500.0 -13.0 -506.0C169.0 -355.0 264.0 -117.0 317.0 188.0Z"/></g>
<g fill="red" transform="translate(400 900) scale(0.1 -0.1)"><path d="M0.0 0.0V-131.0H640.0V0.0ZM239.0 175.0C197.0 -111.0 107.0 -345.0 -68.0 -478.0C-37.0 -506.0 18.0 -567.0 39.0 -597.0C227.0 -436.0 333.0 -168.0 386.0 154.0Z"/></g>
<g fill="black" opacity=".8" transform="translate(400 900) scale(0.1 -0.1)"><path d="M0.0 0.0 1.0 -132.0H647.0V0.0ZM231.0 174.0C192.0 -119.0 107.0 -345.0 -67.0 -474.0C-36.0 -501.0 17.0 -563.0 39.0 -596.0C234.0 -439.0 332.0 -179.0 384.0 152.0Z"/></g>
<g fill="red" transform="translate(500 900) scale(0.1 -0.1)"><path d="M0.0 0.0V-29.0H666.0V0.0ZM284.0 98.0C228.0 -27.0 102.0 -149.0 -38.0 -223.0C-31.0 -229.0 -22.0 -239.0 -18.0 -246.0C126.0 -169.0 250.0 -42.0 314.0 88.0Z"/></g>
<g fill="black" opacity=".8" transform="translate(500 900) scale(0.1 -0.1)"><path d="M0.0 0.0V-30.0H671.0V0.0ZM287.0 93.0C223.0 -32.0 103.0 -150.0 -38.0 -224.0C-31.0 -229.0 -21.0 -239.0 -17.0 -244.0C123.0 -167.0 246.0 -47.0 315.0 85.0Z"/></g>
<g fill="red" transform="translate(600 900) scale(0.1 -0.1)"><path d="M0.0 0.0V-111.0H652.0V0.0ZM220.0 67.0C176.0 -36.0 70.0 -147.0 -60.0 -204.0C-34.0 -227.0 7.0 -272.0 27.0 -300.0C171.0 -229.0 285.0 -104.0 356.0 29.0Z"/></g>
<g fill="black" opacity=".8" transform="translate(600 900) scale(0.1 -0.1)"><path d="M0.0 0.0 -3.0 -109.0H646.0V0.0ZM228.0 68.0C177.0 -32.0 70.0 -145.0 -59.0 -207.0C-34.0 -229.0 8.0 -276.0 27.0 -302.0C168.0 -227.0 286.0 -94.0 355.0 33.0Z"/></g>
<g fill="red" transform="translate(700 900) scale(0.1 -0.1)"><path d="M0.0 0.0V-30.0H842.0V0.0ZM312.0 135.0C255.0 -114.0 150.0 -304.0 -28.0 -421.0C-20.0 -425.0 -7.0 -436.0 -2.0 -441.0C172.0 -317.0 281.0 -129.0 342.0 129.0Z"/></g>
<g fill="black" opacity=".8" transform="translate(700 900) scale(0.1 -0.1)"><path d="M0.0 0.0 1.0 -25.0H844.0V0.0ZM321.0 135.0C258.0 -116.0 143.0 -297.0 -24.0 -426.0C-18.0 -430.0 -8.0 -439.0 -4.0 -446.0C163.0 -313.0 280.0 -131.0 349.0 127.0Z"/></g>
<g fill="red" transform="translate(800 900) scale(0.1 -0.1)"><path d="M0.0 0.0V-119.0H892.0V0.0ZM288.0 99.0C237.0 -117.0 133.0 -299.0 -34.0 -402.0C0.0 -423.0 62.0 -473.0 85.0 -498.0C258.0 -375.0 375.0 -169.0 440.0 75.0Z"/></g>
<g fill="black" opacity=".8" transform="translate(800 900) scale(0.1 -0.1)"><path d="M0.0 0.0 3.0 -121.0H887.0V0.0ZM297.0 101.0C248.0 -107.0 134.0 -302.0 -23.0 -404.0C4.0 -425.0 56.0 -471.0 77.0 -497.0C248.0 -376.0 368.0 -166.0 436.0 73.0Z"/></g>
<g fill="red" transform="translate(900 900) scale(0.1 -0.1)"><path d="M0.0 0.0V-29.0H561.0V0.0ZM175.0 195.0C148.0 -173.0 103.0 -488.0 -44.0 -687.0C-36.0 -691.0 -23.0 -700.0 -17.0 -705.0C130.0 -495.0 175.0 -189.0 205.0 193.0Z"/></g>
<g fill="black" opacity=".8" transform="translate(900 900) scale(0.1 -0.1)"><path d="M0.0 0.0 1.0 -27.0H560.0V0.0ZM177.0 188.0C149.0 -174.0 105.0 -494.0 -48.0 -685.0C-40.0 -689.0 -27.0 -698.0 -21.0 -704.0C132.0 -502.0 179.0 -189.0 209.0 185.0Z"/></g>
<g fill="red" transform="translate(1000 900) scale(0.1 -0.1)"><path d="M0.0 0.0V-142.0H568.0V0.0ZM103.0 131.0C91.0 -227.0 51.0 -537.0 -97.0 -708.0C-61.0 -729.0 9.0 -780.0 33.0 -803.0C185.0 -600.0 233.0 -267.0 251.0 126.0Z"/></g>
<g fill="black" opacity=".8" transform="translate(1000 900) scale(0.1 -0.1)"><path d="M0.0 0.0 1.0 -144.0H568.0V0.0ZM100.0 140.0C85.0 -228.0 50.0 -528.0 -87.0 -705.0C-53.0 -727.0 11.0 -782.0 35.0 -810.0C185.0 -601.0 229.0 -267.0 248.0 134.0Z"/></g>
<g fill="red" transform="translate(1100 900) scale(0.1 -0.1)"><path d="M0.0 0.0V-29.0H402.0V0.0ZM171.0 185.0C144.0 -87.0 94.0 -318.0 -29.0 -465.0C-22.0 -469.0 -9.0 -480.0 -4.0 -486.0C119.0 -330.0 171.0 -102.0 202.0 182.0Z"/></g>
<g fill="black" opacity=".8" transform="translate(1100 900) scale(0.1 -0.1)"><path d="M0.0 0.0V-29.0H402.0V0.0ZM170.0 186.0C141.0 -83.0 92.0 -316.0 -27.0 -466.0C-19.0 -470.0 -7.0 -479.0 -1.0 -486.0C116.0 -327.0 169.0 -97.0 201.0 182.0Z"/></g>
<g fill="red" transform="translate(1200 900) scale(0.1 -0.1)"><path d="M0.0 0.0V-135.0H442.0V0.0ZM150.0 156.0C129.0 -87.0 84.0 -313.0 -23.0 -449.0C3.0 -478.0 47.0 -543.0 62.0 -575.0C193.0 -407.0 254.0 -142.0 284.0 142.0Z"/></g>
<g fill="black" opacity=".8" transform="translate(1200 900) scale(0.1 -0.1)"><path d="M0.0 0.0 -1.0 -134.0H441.0V0.0ZM153.0 156.0C131.0 -94.0 82.0 -323.0 -32.0 -454.0C-4.0 -480.0 48.0 -540.0 65.0 -567.0C197.0 -406.0 259.0 -144.0 288.0 143.0Z"/></g>
<g fill="red" transform="translate(1300 900) scale(0.1 -0.1)"><path d="M0.0 0.0V-30.0H869.0V0.0ZM372.0 -108.0C299.0 -337.0 166.0 -509.0 -25.0 -615.0C-17.0 -620.0 -4.0 -632.0 1.0 -636.0C188.0 -525.0 323.0 -353.0 402.0 -115.0Z"/></g>
<g fill="black" opacity=".8" transform="translate(1300 900) scale(0.1 -0.1)"><path d="M0.0 0.0V-28.0H867.0V0.0ZM373.0 -116.0C303.0 -345.0 167.0 -507.0 -29.0 -613.0C-21.0 -619.0 -9.0 -630.0 -4.0 -638.0C191.0 -527.0 331.0 -361.0 406.0 -125.0Z"/></g>
<g fill="red" transform="translate(1400 900) scale(0.1 -0.1)"><path d="M0.0 0.0V-133.0H896.0V0.0ZM349.0 -159.0C285.0 -373.0 152.0 -535.0 -39.0 -624.0C-8.0 -652.0 45.0 -712.0 66.0 -743.0C264.0 -632.0 413.0 -443.0 496.0 -195.0Z"/></g>
<g fill="black" opacity=".8" transform="translate(1400 900) scale(0.1 -0.1)"><path d="M0.0 0.0 -1.0 -135.0H898.0V0.0ZM333.0 -152.0C277.0 -364.0 152.0 -532.0 -34.0 -622.0C-5.0 -650.0 48.0 -713.0 69.0 -746.0C275.0 -635.0 414.0 -438.0 490.0 -186.0Z"/></g>
<g fill="red" transform="translate(1500 900) scale(0.1 -0.1)"><path d="M0.0 0.0V-29.0H860.0V0.0ZM363.0 138.0C300.0 -71.0 169.0 -281.0 -23.0 -407.0C-17.0 -413.0 -8.0 -424.0 -5.0 -431.0C193.0 -300.0 323.0 -88.0 394.0 129.0Z"/></g>
<g fill="black" opacity=".8" transform="translate(1500 900) scale(0.1 -0.1)"><path d="M0.0 0.0V-33.0H867.0V0.0ZM358.0 141.0C292.0 -70.0 169.0 -279.0 -21.0 -409.0C-14.0 -413.0 -4.0 -424.0 1.0 -431.0C191.0 -297.0 317.0 -85.0 388.0 132.0Z"/></g>
<g fill="red" transform="translate(1600 900) scale(0.1 -0.1)"><path d="M0.0 0.0V-139.0H901.0V0.0ZM300.0 117.0C253.0 -73.0 143.0 -292.0 -35.0 -405.0C-4.0 -433.0 44.0 -488.0 67.0 -522.0C265.0 -385.0 385.0 -148.0 457.0 82.0Z"/></g>
<g fill="black" opacity=".8" transform="translate(1600 900) scale(0.1 -0.1)"><path d="M0.0 0.0 -2.0 -137.0H893.0V0.0ZM312.0 113.0C259.0 -79.0 144.0 -294.0 -36.0 -407.0C-7.0 -434.0 41.0 -489.0 63.0 -521.0C264.0 -385.0 389.0 -148.0 462.0 81.0Z"/></g>
<g fill="red" transform="translate(100 1000) scale(0.1 -0.1)"><path d="M0.0 0.0V-29.0H583.0V0.0ZM182.0 195.0C153.0 -177.0 103.0 -490.0 -55.0 -687.0C-48.0 -691.0 -35.0 -700.0 -30.0 -705.0C129.0 -498.0 179.0 -194.0 212.0 193.0Z"/></g>
<g fill="black" opacity=".8" transform="translate(100 1000) scale(0.1 -0.1)"><path d="M0.0 0.0V-29.0H577.0V0.0ZM180.0 205.0C150.0 -166.0 101.0 -488.0 -54.0 -689.0C-46.0 -693.0 -32.0 -702.0 -25.0 -708.0C129.0 -497.0 180.0 -183.0 214.0 202.0Z"/></g>
<g fill="red" transform="translate(200 1000) scale(0.1 -0.1)"><path d="M0.0 0.0V-142.0H563.0V0.0ZM103.0 131.0C97.0 -210.0 70.0 -529.0 -42.0 -708.0C-7.0 -728.0 64.0 -779.0 88.0 -802.0C205.0 -589.0 239.0 -248.0 251.0 127.0Z"/></g>
<g fill="black" opacity=".8" transform="translate(200 1000) scale(0.1 -0.1)"><path d="M0.0 0.0 -2.0 -141.0H568.0V0.0ZM105.0 123.0C97.0 -225.0 70.0 -532.0 -47.0 -708.0C-11.0 -726.0 60.0 -773.0 86.0 -796.0C209.0 -591.0 241.0 -261.0 253.0 119.0Z"/></g>
<g fill="red" transform="translate(300 1000) scale(0.1 -0.1)"><path d="M0.0 0.0V-30.0H421.0V0.0ZM96.0 465.0C56.0 198.0 -14.0 -23.0 -158.0 -160.0C-150.0 -165.0 -139.0 -176.0 -134.0 -181.0C10.0 -34.0 83.0 183.0 126.0 461.0Z"/></g>
<g fill="black" opacity=".8" transform="translate(300 1000) scale(0.1 -0.1)"><path d="M0.0 0.0 1.0 -37.0H420.0V0.0ZM103.0 461.0C58.0 198.0 -21.0 -23.0 -160.0 -162.0C-152.0 -166.0 -140.0 -177.0 -133.0 -184.0C3.0 -36.0 86.0 183.0 134.0 455.0Z"/></g>
<g fill="red" transform="translate(400 1000) scale(0.1 -0.1)"><path d="M0.0 0.0V-148.0H403.0V0.0ZM48.0 457.0C8.0 211.0 -77.0 0.0 -226.0 -121.0C-193.0 -148.0 -136.0 -208.0 -115.0 -238.0C47.0 -91.0 147.0 153.0 200.0 434.0Z"/></g>
<g fill="black" opacity=".8" transform="translate(400 1000) scale(0.1 -0.1)"><path d="M0.0 0.0 2.0 -140.0H403.0V0.0ZM48.0 462.0C7.0 215.0 -76.0 6.0 -217.0 -117.0C-187.0 -145.0 -137.0 -212.0 -118.0 -244.0C45.0 -93.0 143.0 154.0 196.0 438.0Z"/></g>
<g fill="red" transform="translate(500 1000) scale(0.1 -0.1)"><path d="M0.0 0.0V-29.0H425.0V0.0ZM67.0 233.0C25.0 24.0 -72.0 -185.0 -270.0 -307.0C-262.0 -312.0 -250.0 -321.0 -246.0 -326.0C-48.0 -202.0 51.0 12.0 99.0 226.0Z"/></g>
<g fill="black" opacity=".8" transform="translate(500 1000) scale(0.1 -0.1)"><path d="M0.0 0.0 -1.0 -30.0H434.0V0.0ZM61.0 230.0C18.0 28.0 -71.0 -190.0 -268.0 -305.0C-261.0 -310.0 -249.0 -319.0 -244.0 -326.0C-48.0 -205.0 44.0 15.0 91.0 224.0Z"/></g>
<g fill="red" transform="translate(600 1000) scale(0.1 -0.1)"><path d="M0.0 0.0V-110.0H410.0V0.0ZM27.0 217.0C-8.0 31.0 -97.0 -165.0 -281.0 -264.0C-250.0 -285.0 -202.0 -330.0 -179.0 -357.0C14.0 -242.0 115.0 -25.0 169.0 193.0Z"/></g>
<g fill="black" opacity=".8" transform="translate(600 1000) scale(0.1 -0.1)"><path d="M0.0 0.0 -7.0 -114.0H403.0V0.0ZM29.0 221.0C-8.0 23.0 -87.0 -157.0 -275.0 -254.0C-246.0 -280.0 -204.0 -333.0 -185.0 -364.0C22.0 -246.0 117.0 -36.0 167.0 199.0Z"/></g>
<g fill="red" transform="translate(700 1000) scale(0.1 -0.1)"><path d="M0.0 0.0V-29.0H521.0V0.0ZM211.0 190.0C179.0 -103.0 116.0 -337.0 -35.0 -484.0C-27.0 -489.0 -14.0 -499.0 -9.0 -504.0C142.0 -348.0 206.0 -118.0 242.0 187.0Z"/></g>
<g fill="black" opacity=".8" transform="translate(700 1000) scale(0.1 -0.1)"><path d="M0.0 0.0 1.0 -29.0H522.0V0.0ZM211.0 195.0C176.0 -96.0 115.0 -338.0 -31.0 -486.0C-24.0 -490.0 -13.0 -499.0 -7.0 -505.0C137.0 -348.0 202.0 -109.0 240.0 191.0Z"/></g>
<g fill="red" transform="translate(800 1000) scale(0.1 -0.1)"><path d="M0.0 0.0V-131.0H545.0V0.0ZM152.0 175.0C132.0 -106.0 82.0 -344.0 -63.0 -479.0C-32.0 -505.0 21.0 -564.0 40.0 -593.0C201.0 -428.0 266.0 -160.0 295.0 164.0Z"/></g>
<g fill="black" opacity=".8" transform="translate(800 1000) scale(0.1 -0.1)"><path d="M0.0 0.0 2.0 -130.0H542.0V0.0ZM166.0 173.0C138.0 -116.0 78.0 -348.0 -62.0 -482.0C-33.0 -506.0 18.0 -561.0 37.0 -589.0C194.0 -427.0 265.0 -163.0 301.0 159.0Z"/></g>
<g fill="red" transform="translate(900 1000) scale(0.1 -0.1)"><path d="M0.0 0.0V-30.0H525.0V0.0ZM200.0 168.0C158.0 -101.0 87.0 -338.0 -45.0 -489.0C-37.0 -494.0 -24.0 -504.0 -19.0 -509.0C113.0 -350.0 184.0 -117.0 230.0 164.0Z"/></g>
<g fill="black" opacity=".8" transform="translate(900 1000) scale(0.1 -0.1)"><path d="M0.0 0.0V-33.0H543.0V0.0ZM190.0 157.0C152.0 -110.0 88.0 -340.0 -42.0 -488.0C-36.0 -491.0 -24.0 -500.0 -19.0 -506.0C111.0 -350.0 177.0 -124.0 219.0 153.0Z"/></g>
<g fill="red" transform="translate(1000 1000) scale(0.1 -0.1)"><path d="M0.0 0.0V-127.0H563.0V0.0ZM136.0 92.0C111.0 -148.0 55.0 -370.0 -52.0 -499.0C-20.0 -515.0 41.0 -552.0 64.0 -571.0C171.0 -423.0 234.0 -186.0 266.0 77.0Z"/></g>
<g fill="black" opacity=".8" transform="translate(1000 1000) scale(0.1 -0.1)"><path d="M0.0 0.0 -1.0 -129.0H548.0V0.0ZM137.0 103.0C115.0 -139.0 64.0 -366.0 -45.0 -494.0C-16.0 -513.0 40.0 -558.0 60.0 -581.0C178.0 -429.0 237.0 -182.0 266.0 89.0Z"/></g>
<g fill="red" transform="translate(1100 1000) scale(0.1 -0.1)"><path d="M0.0 0.0 -5.0 -29.0H332.0V0.0ZM4.0 382.0C3.0 109.0 -4.0 -311.0 -234.0 -496.0C-226.0 -500.0 -214.0 -507.0 -208.0 -512.0C23.0 -318.0 32.0 98.0 34.0 382.0Z"/></g>
<g fill="black" opacity=".8" transform="translate(1100 1000) scale(0.1 -0.1)"><path d="M0.0 0.0 -2.0 -31.0H325.0V0.0ZM17.0 385.0C10.0 101.0 -10.0 -307.0 -232.0 -500.0C-226.0 -503.0 -214.0 -510.0 -209.0 -514.0C15.0 -314.0 37.0 91.0 45.0 384.0Z"/></g>
<g fill="red" transform="translate(1200 1000) scale(0.1 -0.1)"><path d="M0.0 0.0 -26.0 -129.0H262.0V0.0ZM-67.0 373.0C-69.0 15.0 -56.0 -286.0 -261.0 -470.0C-225.0 -493.0 -181.0 -538.0 -159.0 -573.0C68.0 -361.0 72.0 -16.0 74.0 373.0Z"/></g>
<g fill="black" opacity=".8" transform="translate(1200 1000) scale(0.1 -0.1)"><path d="M0.0 0.0 -12.0 -120.0H263.0V0.0ZM-61.0 365.0C-63.0 31.0 -63.0 -292.0 -263.0 -479.0C-228.0 -499.0 -182.0 -538.0 -158.0 -570.0C57.0 -355.0 69.0 1.0 72.0 368.0Z"/></g>
</svg>
