<?xml version="1.0" encoding="UTF-8"?>
<svg width="1700" height="1600" xmlns="http://www.w3.org/2000/svg">
<rect width="100%" height="100%" fill="white"/>
<g fill="green" transform="translate(100 100) scale(0.1 -0.1)"><path d="M-0.0 -0.0 1.0 11.0H-72.0V0.0ZM-543.0 274.0C-423.0 -32.0 -197.0 -419.0 -178.0 -604.0C-182.0 -598.0 -181.0 -588.0 -181.0 -583.0C-195.0 -391.0 -425.0 -22.0 -551.0 292.0Z"/></g>
<g fill="green" transform="translate(200 100) scale(0.1 -0.1)"><path d="M0.0 0.0 4.0 22.0H-25.0V0.0ZM-507.0 238.0C-406.0 -163.0 -192.0 -460.0 -165.0 -644.0C-158.0 -628.0 -147.0 -597.0 -145.0 -587.0C-181.0 -387.0 -403.0 -80.0 -537.0 309.0Z"/></g>
<g fill="green" transform="translate(300 100) scale(0.1 -0.1)"><path d="M0.0 0.0 1.0 -23.0H604.0V0.0ZM-217.0 418.0C-141.0 -179.0 1.0 -871.0 -173.0 -1224.0C-168.0 -1224.0 -153.0 -1225.0 -147.0 -1226.0C32.0 -857.0 -112.0 -186.0 -190.0 431.0Z"/></g>
<g fill="green" transform="translate(400 100) scale(0.1 -0.1)"><path d="M0.0 0.0 4.0 -128.0H662.0V0.0ZM-239.0 339.0C-170.0 -358.0 -25.0 -926.0 -179.0 -1265.0C-134.0 -1277.0 -64.0 -1305.0 -38.0 -1329.0C122.0 -945.0 -17.0 -333.0 -107.0 391.0Z"/></g>
<g fill="green" transform="translate(500 100) scale(0.1 -0.1)"><path d="M0.0 0.0 2.0 10.0H-278.0V0.0ZM551.0 314.0C593.0 92.0 674.0 -105.0 643.0 -178.0C639.0 -176.0 637.0 -170.0 636.0 -168.0C670.0 -90.0 586.0 96.0 540.0 323.0Z"/></g>
<g fill="green" transform="translate(600 100) scale(0.1 -0.1)"><path d="M0.0 0.0 7.0 59.0H-245.0V0.0ZM606.0 313.0C637.0 66.0 707.0 -69.0 689.0 -143.0C687.0 -133.0 677.0 -108.0 673.0 -102.0C684.0 -22.0 601.0 107.0 553.0 350.0Z"/></g>
<g fill="green" transform="translate(700 100) scale(0.1 -0.1)"><path d="M0.0 -0.0 1.0 4.0H544.0V0.0ZM-497.0 489.0C-416.0 195.0 -268.0 -173.0 -315.0 -370.0C-318.0 -366.0 -316.0 -360.0 -315.0 -357.0C-261.0 -155.0 -414.0 201.0 -497.0 501.0Z"/></g>
<g fill="green" transform="translate(800 100) scale(0.1 -0.1)"><path d="M0.0 0.0 2.0 -10.0H617.0V0.0ZM-465.0 470.0C-402.0 106.0 -271.0 -206.0 -315.0 -391.0C-303.0 -388.0 -284.0 -379.0 -277.0 -381.0C-231.0 -177.0 -362.0 151.0 -441.0 515.0Z"/></g>
<g fill="green" transform="translate(900 100) scale(0.1 -0.1)"><path d="M0.0 0.0 2.0 18.0H208.0V0.0ZM-467.0 -459.0C-405.0 -518.0 -287.0 -448.0 -173.0 -436.0C-179.0 -431.0 -183.0 -423.0 -187.0 -418.0C-299.0 -432.0 -418.0 -509.0 -482.0 -449.0Z"/></g>
<g fill="green" transform="translate(1000 100) scale(0.1 -0.1)"><path d="M0.0 0.0 6.0 67.0H275.0V0.0ZM-399.0 -487.0C-347.0 -536.0 -255.0 -506.0 -157.0 -486.0C-168.0 -465.0 -168.0 -427.0 -175.0 -400.0C-289.0 -429.0 -392.0 -480.0 -456.0 -454.0Z"/></g>
<g fill="green" transform="translate(1100 100) scale(0.1 -0.1)"><path d="M0.0 0.0 -1.0 -13.0H-151.0V0.0ZM-328.0 320.0C-311.0 -125.0 -279.0 -398.0 -363.0 -568.0C-360.0 -569.0 -352.0 -571.0 -348.0 -572.0C-264.0 -391.0 -296.0 -132.0 -314.0 327.0Z"/></g>
<g fill="green" transform="translate(1200 100) scale(0.1 -0.1)"><path d="M0.0 0.0 -3.0 -86.0H-180.0V0.0ZM-377.0 297.0C-352.0 -157.0 -315.0 -421.0 -370.0 -576.0C-352.0 -583.0 -304.0 -612.0 -293.0 -623.0C-236.0 -440.0 -275.0 -154.0 -311.0 320.0Z"/></g>
<g fill="green" transform="translate(1300 100) scale(0.1 -0.1)"><path d="M-0.0 -0.0V18.0H-69.0V0.0ZM-561.0 173.0C-393.0 125.0 -117.0 -478.0 -240.0 -649.0C-245.0 -640.0 -249.0 -624.0 -249.0 -617.0C-118.0 -447.0 -400.0 146.0 -578.0 195.0Z"/></g>
<g fill="green" transform="translate(1400 100) scale(0.1 -0.1)"><path d="M0.0 0.0 -1.0 67.0H-51.0V0.0ZM-481.0 165.0C-360.0 -124.0 -74.0 -441.0 -205.0 -641.0C-195.0 -623.0 -233.0 -561.0 -231.0 -564.0C-97.0 -357.0 -382.0 -23.0 -543.0 251.0Z"/></g>
<g fill="green" transform="translate(1500 100) scale(0.1 -0.1)"><path d="M0.0 -0.0V5.0H-38.0V0.0ZM-503.0 263.0C-389.0 22.0 -170.0 -379.0 -140.0 -573.0C-143.0 -569.0 -140.0 -561.0 -140.0 -557.0C-164.0 -355.0 -386.0 30.0 -506.0 280.0Z"/></g>
<g fill="green" transform="translate(1600 100) scale(0.1 -0.1)"><path d="M0.0 0.0 1.0 6.0H-57.0V0.0ZM-557.0 208.0C-457.0 -161.0 -235.0 -470.0 -196.0 -674.0C-185.0 -663.0 -172.0 -642.0 -169.0 -638.0C-213.0 -414.0 -435.0 -84.0 -569.0 274.0Z"/></g>
<g fill="green" transform="translate(100 200) scale(0.1 -0.1)"><path d="M0.0 -0.0 2.0 7.0H-118.0V0.0ZM-558.0 261.0C-451.0 7.0 -232.0 -386.0 -192.0 -581.0C-194.0 -576.0 -191.0 -569.0 -191.0 -565.0C-227.0 -362.0 -449.0 15.0 -562.0 277.0Z"/></g>
<g fill="green" transform="translate(200 200) scale(0.1 -0.1)"><path d="M0.0 0.0 8.0 -12.0H9.0V0.0ZM-489.0 216.0C-396.0 -140.0 -186.0 -460.0 -148.0 -659.0C-139.0 -653.0 -129.0 -639.0 -127.0 -636.0C-163.0 -413.0 -374.0 -73.0 -497.0 278.0Z"/></g>
<g fill="green" transform="translate(300 200) scale(0.1 -0.1)"><path d="M-0.0 -0.0 1.0 -4.0H-55.0V0.0ZM-546.0 268.0C-432.0 -17.0 -218.0 -432.0 -179.0 -634.0C-179.0 -630.0 -171.0 -624.0 -168.0 -621.0C-204.0 -411.0 -421.0 -13.0 -540.0 282.0Z"/></g>
<g fill="green" transform="translate(400 200) scale(0.1 -0.1)"><path d="M0.0 0.0 2.0 -35.0H-40.0V0.0ZM-536.0 218.0C-438.0 -124.0 -230.0 -427.0 -175.0 -617.0C-153.0 -602.0 -114.0 -575.0 -99.0 -568.0C-176.0 -364.0 -392.0 -56.0 -522.0 278.0Z"/></g>
<g fill="red" transform="translate(100 300) scale(0.1 -0.1)"><path d="M0.0 0.0V-29.0H672.0V0.0ZM280.0 163.0C217.0 -50.0 112.0 -235.0 -33.0 -352.0C-25.0 -357.0 -12.0 -367.0 -7.0 -372.0C135.0 -248.0 242.0 -65.0 308.0 156.0Z"/></g>
<g fill="black" opacity=".8" transform="translate(100 300) scale(0.1 -0.1)"><path d="M0.0 0.0V-29.0H666.0V0.0ZM276.0 170.0C220.0 -51.0 116.0 -230.0 -31.0 -353.0C-25.0 -360.0 -13.0 -370.0 -9.0 -376.0C139.0 -246.0 245.0 -67.0 306.0 165.0Z"/></g>
<g fill="red" transform="translate(200 300) scale(0.1 -0.1)"><path d="M0.0 0.0V-132.0H662.0V0.0ZM204.0 149.0C162.0 -68.0 76.0 -255.0 -64.0 -363.0C-35.0 -392.0 13.0 -455.0 30.0 -487.0C188.0 -352.0 290.0 -131.0 345.0 123.0Z"/></g>
<g fill="black" opacity=".8" transform="translate(200 300) scale(0.1 -0.1)"><path d="M0.0 0.0 -2.0 -128.0H667.0V0.0ZM206.0 140.0C163.0 -65.0 70.0 -258.0 -68.0 -367.0C-39.0 -395.0 12.0 -452.0 30.0 -482.0C184.0 -347.0 290.0 -128.0 349.0 113.0Z"/></g>
<g fill="red" transform="translate(300 300) scale(0.1 -0.1)"><path d="M0.0 0.0V-30.0H672.0V0.0ZM265.0 210.0C214.0 -117.0 130.0 -392.0 -41.0 -566.0C-33.0 -571.0 -21.0 -582.0 -15.0 -586.0C155.0 -403.0 240.0 -133.0 295.0 206.0Z"/></g>
<g fill="black" opacity=".8" transform="translate(300 300) scale(0.1 -0.1)"><path d="M0.0 0.0V-33.0H669.0V0.0ZM256.0 215.0C215.0 -114.0 133.0 -394.0 -42.0 -563.0C-34.0 -569.0 -20.0 -579.0 -15.0 -584.0C161.0 -407.0 244.0 -130.0 289.0 212.0Z"/></g>
<g fill="red" transform="translate(400 300) scale(0.1 -0.1)"><path d="M0.0 0.0V-137.0H653.0V0.0ZM189.0 176.0C154.0 -129.0 82.0 -400.0 -68.0 -556.0C-35.0 -582.0 25.0 -642.0 46.0 -671.0C208.0 -484.0 294.0 -179.0 338.0 160.0Z"/></g>
<g fill="black" opacity=".8" transform="translate(400 300) scale(0.1 -0.1)"><path d="M0.0 0.0 -2.0 -143.0H657.0V0.0ZM182.0 177.0C152.0 -140.0 83.0 -404.0 -75.0 -555.0C-39.0 -580.0 24.0 -635.0 48.0 -666.0C217.0 -487.0 298.0 -195.0 339.0 159.0Z"/></g>
<g fill="red" transform="translate(500 300) scale(0.1 -0.1)"><path d="M0.0 0.0V-29.0H663.0V0.0ZM292.0 200.0C248.0 -55.0 159.0 -321.0 -40.0 -483.0C-34.0 -489.0 -25.0 -499.0 -20.0 -504.0C183.0 -338.0 273.0 -67.0 322.0 194.0Z"/></g>
<g fill="black" opacity=".8" transform="translate(500 300) scale(0.1 -0.1)"><path d="M0.0 0.0V-32.0H656.0V0.0ZM287.0 208.0C245.0 -42.0 157.0 -331.0 -39.0 -482.0C-31.0 -488.0 -18.0 -498.0 -13.0 -504.0C184.0 -345.0 273.0 -57.0 319.0 204.0Z"/></g>
<g fill="red" transform="translate(600 300) scale(0.1 -0.1)"><path d="M0.0 0.0V-140.0H658.0V0.0ZM240.0 184.0C212.0 -47.0 142.0 -315.0 -34.0 -453.0C-5.0 -481.0 39.0 -536.0 61.0 -569.0C264.0 -402.0 347.0 -109.0 393.0 163.0Z"/></g>
<g fill="black" opacity=".8" transform="translate(600 300) scale(0.1 -0.1)"><path d="M0.0 0.0 -2.0 -140.0H665.0V0.0ZM246.0 181.0C210.0 -69.0 137.0 -314.0 -48.0 -451.0C-12.0 -478.0 40.0 -529.0 64.0 -563.0C263.0 -400.0 350.0 -129.0 398.0 160.0Z"/></g>
<g fill="red" transform="translate(700 300) scale(0.1 -0.1)"><path d="M0.0 0.0V-29.0H645.0V0.0ZM277.0 95.0C213.0 -67.0 101.0 -205.0 -33.0 -294.0C-25.0 -299.0 -14.0 -308.0 -9.0 -314.0C123.0 -221.0 237.0 -82.0 306.0 88.0Z"/></g>
<g fill="black" opacity=".8" transform="translate(700 300) scale(0.1 -0.1)"><path d="M0.0 0.0 1.0 -29.0H641.0V0.0ZM274.0 97.0C214.0 -73.0 101.0 -201.0 -28.0 -296.0C-21.0 -302.0 -10.0 -313.0 -6.0 -319.0C124.0 -219.0 238.0 -89.0 303.0 90.0Z"/></g>
<g fill="red" transform="translate(800 300) scale(0.1 -0.1)"><path d="M0.0 0.0V-129.0H658.0V0.0ZM227.0 79.0C180.0 -75.0 85.0 -207.0 -41.0 -283.0C-11.0 -308.0 41.0 -363.0 61.0 -391.0C195.0 -296.0 305.0 -139.0 366.0 46.0Z"/></g>
<g fill="black" opacity=".8" transform="translate(800 300) scale(0.1 -0.1)"><path d="M0.0 0.0 -1.0 -126.0H662.0V0.0ZM233.0 73.0C185.0 -61.0 81.0 -207.0 -42.0 -285.0C-15.0 -311.0 34.0 -363.0 52.0 -390.0C189.0 -292.0 305.0 -127.0 370.0 40.0Z"/></g>
<g fill="red" transform="translate(900 300) scale(0.1 -0.1)"><path d="M0.0 0.0V-30.0H631.0V0.0ZM254.0 -127.0C201.0 -327.0 103.0 -488.0 -38.0 -589.0C-31.0 -594.0 -19.0 -606.0 -15.0 -611.0C126.0 -503.0 226.0 -342.0 283.0 -132.0Z"/></g>
<g fill="black" opacity=".8" transform="translate(900 300) scale(0.1 -0.1)"><path d="M0.0 0.0V-30.0H630.0V0.0ZM249.0 -120.0C198.0 -327.0 102.0 -486.0 -34.0 -591.0C-27.0 -598.0 -15.0 -608.0 -11.0 -613.0C126.0 -502.0 225.0 -343.0 279.0 -125.0Z"/></g>
<g fill="red" transform="translate(1000 300) scale(0.1 -0.1)"><path d="M0.0 0.0V-126.0H631.0V0.0ZM185.0 -158.0C147.0 -353.0 67.0 -520.0 -62.0 -616.0C-30.0 -639.0 27.0 -691.0 50.0 -718.0C185.0 -601.0 278.0 -409.0 328.0 -183.0Z"/></g>
<g fill="black" opacity=".8" transform="translate(1000 300) scale(0.1 -0.1)"><path d="M0.0 0.0V-129.0H633.0V0.0ZM189.0 -164.0C152.0 -354.0 69.0 -520.0 -63.0 -613.0C-32.0 -638.0 21.0 -690.0 40.0 -716.0C184.0 -601.0 279.0 -412.0 330.0 -189.0Z"/></g>
<g fill="red" transform="translate(1100 300) scale(0.1 -0.1)"><path d="M0.0 0.0V-29.0H860.0V0.0ZM363.0 138.0C300.0 -71.0 169.0 -281.0 -23.0 -407.0C-17.0 -413.0 -8.0 -424.0 -5.0 -431.0C193.0 -300.0 323.0 -88.0 394.0 129.0Z"/></g>
<g fill="black" opacity=".8" transform="translate(1100 300) scale(0.1 -0.1)"><path d="M0.0 0.0 1.0 -32.0H867.0V0.0ZM352.0 141.0C290.0 -70.0 168.0 -279.0 -22.0 -407.0C-15.0 -413.0 -3.0 -425.0 2.0 -431.0C193.0 -298.0 317.0 -86.0 384.0 134.0Z"/></g>
<g fill="red" transform="translate(1200 300) scale(0.1 -0.1)"><path d="M0.0 0.0V-139.0H901.0V0.0ZM300.0 117.0C253.0 -73.0 143.0 -292.0 -35.0 -405.0C-4.0 -433.0 44.0 -488.0 67.0 -522.0C265.0 -385.0 385.0 -148.0 457.0 82.0Z"/></g>
<g fill="black" opacity=".8" transform="translate(1200 300) scale(0.1 -0.1)"><path d="M0.0 0.0 -1.0 -137.0H894.0V0.0ZM308.0 114.0C255.0 -82.0 144.0 -288.0 -41.0 -400.0C-8.0 -431.0 42.0 -490.0 64.0 -525.0C268.0 -388.0 395.0 -155.0 467.0 81.0Z"/></g>
<g fill="red" transform="translate(1300 300) scale(0.1 -0.1)"><path d="M0.0 0.0V-29.0H869.0V0.0ZM308.0 193.0C262.0 -109.0 183.0 -445.0 -18.0 -656.0C-12.0 -662.0 -2.0 -672.0 3.0 -679.0C209.0 -459.0 290.0 -120.0 339.0 188.0Z"/></g>
<g fill="black" opacity=".8" transform="translate(1300 300) scale(0.1 -0.1)"><path d="M0.0 0.0 1.0 -33.0H860.0V0.0ZM303.0 203.0C265.0 -97.0 191.0 -458.0 -25.0 -651.0C-18.0 -657.0 -4.0 -667.0 2.0 -673.0C221.0 -472.0 296.0 -112.0 337.0 200.0Z"/></g>
<g fill="red" transform="translate(1400 300) scale(0.1 -0.1)"><path d="M0.0 0.0V-140.0H896.0V0.0ZM279.0 161.0C246.0 -131.0 169.0 -488.0 -33.0 -676.0C2.0 -703.0 54.0 -755.0 80.0 -788.0C306.0 -568.0 392.0 -190.0 441.0 144.0Z"/></g>
<g fill="black" opacity=".8" transform="translate(1400 300) scale(0.1 -0.1)"><path d="M0.0 0.0 1.0 -151.0H906.0V0.0ZM265.0 161.0C235.0 -163.0 174.0 -480.0 -37.0 -660.0C3.0 -692.0 59.0 -751.0 83.0 -789.0C315.0 -576.0 393.0 -222.0 436.0 144.0Z"/></g>
<g fill="red" transform="translate(1500 300) scale(0.1 -0.1)"><path d="M0.0 0.0V-29.0H856.0V0.0ZM286.0 186.0C282.0 125.0 262.0 -444.0 -28.0 -670.0C-20.0 -674.0 -7.0 -682.0 -1.0 -687.0C291.0 -452.0 309.0 113.0 315.0 186.0Z"/></g>
<g fill="black" opacity=".8" transform="translate(1500 300) scale(0.1 -0.1)"><path d="M0.0 0.0V-37.0H860.0V0.0ZM268.0 194.0C273.0 140.0 260.0 -449.0 -26.0 -666.0C-16.0 -671.0 -1.0 -679.0 6.0 -684.0C296.0 -463.0 309.0 130.0 303.0 193.0Z"/></g>
<g fill="red" transform="translate(1600 300) scale(0.1 -0.1)"><path d="M0.0 0.0V-141.0H878.0V0.0ZM240.0 139.0C233.0 -1.0 242.0 -432.0 -43.0 -668.0C7.0 -697.0 52.0 -734.0 82.0 -773.0C369.0 -503.0 384.0 -42.0 392.0 139.0Z"/></g>
<g fill="black" opacity=".8" transform="translate(1600 300) scale(0.1 -0.1)"><path d="M0.0 0.0 -3.0 -155.0H877.0V0.0ZM231.0 152.0C224.0 -45.0 248.0 -422.0 -42.0 -649.0C10.0 -683.0 41.0 -724.0 73.0 -776.0C390.0 -518.0 394.0 -94.0 405.0 144.0Z"/></g>
<g fill="red" transform="translate(100 400) scale(0.1 -0.1)"><path d="M0.0 0.0V-29.0H860.0V0.0ZM367.0 203.0C308.0 -58.0 194.0 -316.0 -32.0 -472.0C-25.0 -478.0 -16.0 -488.0 -11.0 -495.0C217.0 -334.0 333.0 -73.0 398.0 196.0Z"/></g>
<g fill="black" opacity=".8" transform="translate(100 400) scale(0.1 -0.1)"><path d="M0.0 0.0 1.0 -31.0H862.0V0.0ZM360.0 197.0C302.0 -53.0 189.0 -321.0 -28.0 -471.0C-21.0 -478.0 -9.0 -489.0 -4.0 -494.0C215.0 -337.0 329.0 -69.0 391.0 192.0Z"/></g>
<g fill="red" transform="translate(200 400) scale(0.1 -0.1)"><path d="M0.0 0.0V-142.0H896.0V0.0ZM315.0 162.0C271.0 -77.0 170.0 -346.0 -36.0 -484.0C-6.0 -513.0 39.0 -567.0 60.0 -601.0C291.0 -435.0 403.0 -145.0 468.0 134.0Z"/></g>
<g fill="black" opacity=".8" transform="translate(200 400) scale(0.1 -0.1)"><path d="M0.0 0.0 -1.0 -138.0H894.0V0.0ZM317.0 170.0C268.0 -87.0 168.0 -337.0 -44.0 -475.0C-11.0 -508.0 38.0 -569.0 59.0 -607.0C294.0 -440.0 412.0 -157.0 478.0 142.0Z"/></g>
<g fill="red" transform="translate(300 400) scale(0.1 -0.1)"><path d="M0.0 0.0V-29.0H561.0V0.0ZM175.0 195.0C152.0 -168.0 112.0 -485.0 -20.0 -687.0C-13.0 -691.0 0.0 -700.0 6.0 -705.0C139.0 -492.0 179.0 -184.0 206.0 193.0Z"/></g>
<g fill="black" opacity=".8" transform="translate(300 400) scale(0.1 -0.1)"><path d="M0.0 0.0 1.0 -32.0H561.0V0.0ZM171.0 192.0C150.0 -166.0 114.0 -489.0 -22.0 -684.0C-15.0 -689.0 0.0 -699.0 6.0 -703.0C143.0 -498.0 180.0 -182.0 204.0 192.0Z"/></g>
<g fill="red" transform="translate(400 400) scale(0.1 -0.1)"><path d="M0.0 0.0V-142.0H568.0V0.0ZM103.0 131.0C96.0 -214.0 66.0 -531.0 -54.0 -708.0C-18.0 -729.0 53.0 -779.0 76.0 -802.0C201.0 -592.0 238.0 -252.0 251.0 127.0Z"/></g>
<g fill="black" opacity=".8" transform="translate(400 400) scale(0.1 -0.1)"><path d="M0.0 0.0 1.0 -146.0H569.0V0.0ZM102.0 137.0C92.0 -222.0 67.0 -525.0 -52.0 -704.0C-15.0 -726.0 52.0 -778.0 76.0 -806.0C203.0 -595.0 238.0 -261.0 252.0 131.0Z"/></g>
<g fill="red" transform="translate(500 400) scale(0.1 -0.1)"><path d="M0.0 0.0V-29.0H543.0V0.0ZM222.0 199.0C171.0 -116.0 85.0 -381.0 -81.0 -548.0C-74.0 -553.0 -62.0 -564.0 -57.0 -569.0C111.0 -393.0 196.0 -132.0 252.0 195.0Z"/></g>
<g fill="black" opacity=".8" transform="translate(500 400) scale(0.1 -0.1)"><path d="M0.0 0.0V-29.0H544.0V0.0ZM209.0 199.0C164.0 -116.0 87.0 -381.0 -72.0 -549.0C-65.0 -555.0 -53.0 -565.0 -48.0 -570.0C112.0 -393.0 191.0 -131.0 239.0 196.0Z"/></g>
<g fill="red" transform="translate(600 400) scale(0.1 -0.1)"><path d="M0.0 0.0V-137.0H572.0V0.0ZM146.0 153.0C115.0 -161.0 51.0 -444.0 -88.0 -608.0C-57.0 -633.0 -2.0 -689.0 18.0 -717.0C168.0 -522.0 243.0 -207.0 283.0 139.0Z"/></g>
<g fill="black" opacity=".8" transform="translate(600 400) scale(0.1 -0.1)"><path d="M0.0 0.0V-141.0H571.0V0.0ZM146.0 158.0C116.0 -166.0 53.0 -438.0 -96.0 -595.0C-65.0 -626.0 -12.0 -689.0 6.0 -722.0C176.0 -530.0 254.0 -221.0 294.0 141.0Z"/></g>
<g fill="red" transform="translate(700 400) scale(0.1 -0.1)"><path d="M0.0 0.0V-29.0H565.0V0.0ZM213.0 137.0C168.0 -59.0 94.0 -243.0 -5.0 -362.0C1.0 -369.0 10.0 -383.0 14.0 -390.0C117.0 -260.0 194.0 -73.0 242.0 131.0Z"/></g>
<g fill="black" opacity=".8" transform="translate(700 400) scale(0.1 -0.1)"><path d="M0.0 0.0 1.0 -28.0H567.0V0.0ZM225.0 142.0C175.0 -59.0 91.0 -238.0 -22.0 -364.0C-16.0 -370.0 -4.0 -381.0 -0.0 -386.0C114.0 -253.0 200.0 -74.0 253.0 138.0Z"/></g>
<g fill="red" transform="translate(800 400) scale(0.1 -0.1)"><path d="M0.0 0.0V-139.0H599.0V0.0ZM177.0 115.0C137.0 -89.0 60.0 -276.0 -57.0 -389.0C-31.0 -420.0 11.0 -489.0 26.0 -522.0C165.0 -380.0 260.0 -152.0 313.0 88.0Z"/></g>
<g fill="black" opacity=".8" transform="translate(800 400) scale(0.1 -0.1)"><path d="M0.0 0.0 1.0 -130.0H597.0V0.0ZM167.0 105.0C131.0 -88.0 60.0 -287.0 -48.0 -402.0C-21.0 -430.0 27.0 -487.0 44.0 -515.0C169.0 -373.0 256.0 -146.0 304.0 80.0Z"/></g>
<g fill="red" transform="translate(900 400) scale(0.1 -0.1)"><path d="M0.0 0.0V-30.0H578.0V0.0ZM224.0 -135.0C178.0 -341.0 92.0 -511.0 -41.0 -618.0C-34.0 -623.0 -22.0 -633.0 -18.0 -638.0C115.0 -526.0 204.0 -356.0 254.0 -139.0Z"/></g>
<g fill="black" opacity=".8" transform="translate(900 400) scale(0.1 -0.1)"><path d="M0.0 0.0 1.0 -29.0H575.0V0.0ZM224.0 -129.0C179.0 -340.0 93.0 -511.0 -41.0 -619.0C-34.0 -624.0 -22.0 -634.0 -18.0 -639.0C116.0 -525.0 205.0 -356.0 253.0 -132.0Z"/></g>
<g fill="red" transform="translate(1000 400) scale(0.1 -0.1)"><path d="M0.0 0.0V-125.0H577.0V0.0ZM170.0 -167.0C138.0 -367.0 66.0 -537.0 -61.0 -634.0C-31.0 -657.0 22.0 -712.0 42.0 -739.0C180.0 -619.0 266.0 -423.0 310.0 -189.0Z"/></g>
<g fill="black" opacity=".8" transform="translate(1000 400) scale(0.1 -0.1)"><path d="M0.0 0.0V-128.0H581.0V0.0ZM172.0 -173.0C139.0 -370.0 66.0 -540.0 -63.0 -636.0C-32.0 -659.0 21.0 -708.0 40.0 -734.0C179.0 -616.0 264.0 -424.0 309.0 -195.0Z"/></g>
<g fill="red" transform="translate(1100 400) scale(0.1 -0.1)"><path d="M0.0 0.0V-30.0H869.0V0.0ZM353.0 154.0C279.0 -103.0 159.0 -323.0 -16.0 -462.0C-8.0 -467.0 5.0 -477.0 10.0 -483.0C182.0 -337.0 303.0 -120.0 381.0 148.0Z"/></g>
<g fill="black" opacity=".8" transform="translate(1100 400) scale(0.1 -0.1)"><path d="M0.0 0.0 1.0 -33.0H866.0V0.0ZM343.0 160.0C282.0 -109.0 163.0 -320.0 -17.0 -458.0C-9.0 -465.0 4.0 -477.0 9.0 -483.0C190.0 -337.0 310.0 -127.0 377.0 153.0Z"/></g>
<g fill="red" transform="translate(1200 400) scale(0.1 -0.1)"><path d="M0.0 0.0V-137.0H892.0V0.0ZM317.0 134.0C253.0 -106.0 133.0 -320.0 -29.0 -443.0C6.0 -469.0 69.0 -526.0 94.0 -556.0C259.0 -410.0 392.0 -169.0 471.0 99.0Z"/></g>
<g fill="black" opacity=".8" transform="translate(1200 400) scale(0.1 -0.1)"><path d="M0.0 0.0V-144.0H895.0V0.0ZM302.0 130.0C252.0 -104.0 141.0 -321.0 -31.0 -437.0C4.0 -466.0 64.0 -525.0 88.0 -557.0C273.0 -415.0 398.0 -175.0 466.0 98.0Z"/></g>
<g fill="red" transform="translate(1300 400) scale(0.1 -0.1)"><path d="M0.0 0.0V-29.0H842.0V0.0ZM312.0 193.0C263.0 -101.0 173.0 -418.0 -38.0 -616.0C-31.0 -621.0 -21.0 -632.0 -16.0 -638.0C198.0 -434.0 289.0 -114.0 343.0 188.0Z"/></g>
<g fill="black" opacity=".8" transform="translate(1300 400) scale(0.1 -0.1)"><path d="M0.0 0.0 1.0 -32.0H844.0V0.0ZM304.0 199.0C262.0 -91.0 178.0 -429.0 -44.0 -609.0C-37.0 -615.0 -24.0 -625.0 -19.0 -631.0C206.0 -443.0 290.0 -106.0 336.0 196.0Z"/></g>
<g fill="red" transform="translate(1400 400) scale(0.1 -0.1)"><path d="M0.0 0.0V-140.0H896.0V0.0ZM287.0 161.0C250.0 -120.0 165.0 -452.0 -41.0 -626.0C-12.0 -655.0 32.0 -709.0 54.0 -743.0C290.0 -535.0 385.0 -182.0 439.0 142.0Z"/></g>
<g fill="black" opacity=".8" transform="translate(1400 400) scale(0.1 -0.1)"><path d="M0.0 0.0 1.0 -145.0H896.0V0.0ZM276.0 164.0C240.0 -147.0 169.0 -447.0 -48.0 -615.0C-11.0 -647.0 40.0 -707.0 63.0 -745.0C303.0 -545.0 392.0 -209.0 441.0 145.0Z"/></g>
<g fill="red" transform="translate(1500 400) scale(0.1 -0.1)"><path d="M0.0 0.0V-30.0H865.0V0.0ZM356.0 164.0C292.0 -49.0 166.0 -267.0 -24.0 -401.0C-17.0 -406.0 -8.0 -417.0 -3.0 -423.0C191.0 -285.0 315.0 -64.0 386.0 156.0Z"/></g>
<g fill="black" opacity=".8" transform="translate(1500 400) scale(0.1 -0.1)"><path d="M0.0 0.0 1.0 -30.0H864.0V0.0ZM354.0 165.0C289.0 -48.0 169.0 -266.0 -26.0 -400.0C-19.0 -407.0 -8.0 -418.0 -4.0 -424.0C193.0 -284.0 315.0 -63.0 384.0 159.0Z"/></g>
<g fill="red" transform="translate(1600 400) scale(0.1 -0.1)"><path d="M0.0 0.0V-139.0H905.0V0.0ZM311.0 139.0C262.0 -70.0 149.0 -307.0 -39.0 -428.0C-13.0 -461.0 25.0 -520.0 43.0 -557.0C263.0 -405.0 388.0 -148.0 462.0 105.0Z"/></g>
<g fill="black" opacity=".8" transform="translate(1600 400) scale(0.1 -0.1)"><path d="M0.0 0.0V-134.0H906.0V0.0ZM309.0 137.0C256.0 -78.0 148.0 -301.0 -46.0 -424.0C-15.0 -458.0 29.0 -522.0 48.0 -559.0C267.0 -407.0 394.0 -151.0 466.0 105.0Z"/></g>
<g fill="red" transform="translate(100 500) scale(0.1 -0.1)"><path d="M0.0 0.0V-29.0H874.0V0.0ZM363.0 126.0C300.0 -53.0 165.0 -226.0 -17.0 -329.0C-11.0 -335.0 -2.0 -346.0 3.0 -353.0C188.0 -245.0 322.0 -70.0 393.0 117.0Z"/></g>
<g fill="black" opacity=".8" transform="translate(100 500) scale(0.1 -0.1)"><path d="M0.0 0.0 1.0 -29.0H876.0V0.0ZM362.0 126.0C296.0 -56.0 166.0 -224.0 -19.0 -329.0C-13.0 -336.0 -2.0 -346.0 2.0 -352.0C190.0 -243.0 321.0 -72.0 391.0 119.0Z"/></g>
<g fill="red" transform="translate(200 500) scale(0.1 -0.1)"><path d="M0.0 0.0V-126.0H901.0V0.0ZM328.0 111.0C273.0 -48.0 146.0 -219.0 -33.0 -308.0C-3.0 -334.0 42.0 -385.0 64.0 -417.0C257.0 -311.0 393.0 -123.0 476.0 71.0Z"/></g>
<g fill="black" opacity=".8" transform="translate(200 500) scale(0.1 -0.1)"><path d="M0.0 0.0 -1.0 -125.0H900.0V0.0ZM327.0 108.0C270.0 -49.0 148.0 -217.0 -34.0 -305.0C-4.0 -334.0 43.0 -388.0 63.0 -420.0C262.0 -311.0 398.0 -122.0 476.0 72.0Z"/></g>
<g fill="red" transform="translate(300 500) scale(0.1 -0.1)"><path d="M0.0 0.0V-29.0H513.0V0.0ZM115.0 228.0C114.0 -43.0 104.0 -464.0 -70.0 -656.0C-62.0 -659.0 -50.0 -666.0 -44.0 -670.0C132.0 -470.0 142.0 -54.0 144.0 228.0Z"/></g>
<g fill="black" opacity=".8" transform="translate(300 500) scale(0.1 -0.1)"><path d="M0.0 0.0 1.0 -27.0H502.0V0.0ZM120.0 221.0C119.0 -51.0 112.0 -462.0 -70.0 -658.0C-63.0 -662.0 -51.0 -669.0 -46.0 -672.0C138.0 -468.0 145.0 -61.0 147.0 223.0Z"/></g>
<g fill="red" transform="translate(400 500) scale(0.1 -0.1)"><path d="M0.0 0.0V-127.0H523.0V0.0ZM95.0 180.0C93.0 -163.0 104.0 -475.0 -70.0 -667.0C-34.0 -689.0 8.0 -732.0 30.0 -766.0C222.0 -544.0 227.0 -193.0 230.0 180.0Z"/></g>
<g fill="black" opacity=".8" transform="translate(400 500) scale(0.1 -0.1)"><path d="M0.0 0.0V-127.0H534.0V0.0ZM91.0 181.0C91.0 -150.0 100.0 -476.0 -73.0 -668.0C-37.0 -691.0 8.0 -733.0 29.0 -765.0C218.0 -542.0 223.0 -181.0 224.0 183.0Z"/></g>
<g fill="red" transform="translate(500 500) scale(0.1 -0.1)"><path d="M0.0 0.0V-29.0H614.0V0.0ZM281.0 161.0C223.0 -50.0 116.0 -215.0 -41.0 -317.0C-33.0 -322.0 -21.0 -333.0 -16.0 -338.0C139.0 -229.0 248.0 -65.0 309.0 155.0Z"/></g>
<g fill="black" opacity=".8" transform="translate(500 500) scale(0.1 -0.1)"><path d="M0.0 0.0V-28.0H608.0V0.0ZM285.0 170.0C221.0 -41.0 108.0 -203.0 -35.0 -322.0C-29.0 -329.0 -18.0 -340.0 -15.0 -346.0C131.0 -220.0 245.0 -57.0 313.0 165.0Z"/></g>
<g fill="red" transform="translate(600 500) scale(0.1 -0.1)"><path d="M0.0 0.0V-134.0H599.0V0.0ZM189.0 150.0C144.0 -57.0 59.0 -243.0 -70.0 -355.0C-47.0 -394.0 -14.0 -480.0 -4.0 -520.0C162.0 -372.0 271.0 -132.0 331.0 120.0Z"/></g>
<g fill="black" opacity=".8" transform="translate(600 500) scale(0.1 -0.1)"><path d="M0.0 0.0 -2.0 -127.0H604.0V0.0ZM196.0 139.0C149.0 -70.0 52.0 -261.0 -84.0 -372.0C-58.0 -403.0 -13.0 -466.0 3.0 -498.0C160.0 -359.0 274.0 -135.0 337.0 109.0Z"/></g>
<g fill="red" transform="translate(700 500) scale(0.1 -0.1)"><path d="M0.0 0.0V-29.0H446.0V0.0ZM764.0 162.0C678.0 -79.0 528.0 -269.0 329.0 -386.0C336.0 -392.0 348.0 -404.0 352.0 -409.0C551.0 -285.0 701.0 -97.0 793.0 154.0Z"/></g>
<g fill="black" opacity=".8" transform="translate(700 500) scale(0.1 -0.1)"><path d="M0.0 0.0 1.0 -33.0H443.0V0.0ZM766.0 158.0C684.0 -84.0 529.0 -275.0 322.0 -380.0C330.0 -388.0 342.0 -401.0 347.0 -408.0C554.0 -296.0 711.0 -103.0 797.0 150.0Z"/></g>
<g fill="red" transform="translate(800 500) scale(0.1 -0.1)"><path d="M0.0 0.0V-131.0H437.0V0.0ZM726.0 135.0C655.0 -89.0 512.0 -261.0 312.0 -355.0C343.0 -382.0 395.0 -441.0 416.0 -472.0C622.0 -356.0 780.0 -158.0 869.0 98.0Z"/></g>
<g fill="black" opacity=".8" transform="translate(800 500) scale(0.1 -0.1)"><path d="M0.0 0.0V-131.0H442.0V0.0ZM716.0 138.0C650.0 -77.0 513.0 -256.0 321.0 -350.0C351.0 -382.0 397.0 -443.0 416.0 -479.0C626.0 -360.0 775.0 -157.0 859.0 102.0Z"/></g>
<g fill="red" transform="translate(900 500) scale(0.1 -0.1)"><path d="M0.0 0.0V-29.0H570.0V0.0ZM152.0 188.0C151.0 -77.0 143.0 -503.0 -94.0 -690.0C-86.0 -694.0 -74.0 -701.0 -68.0 -706.0C171.0 -511.0 180.0 -87.0 182.0 188.0Z"/></g>
<g fill="black" opacity=".8" transform="translate(900 500) scale(0.1 -0.1)"><path d="M0.0 0.0V-26.0H573.0V0.0ZM158.0 179.0C153.0 -81.0 132.0 -504.0 -89.0 -694.0C-83.0 -698.0 -72.0 -704.0 -67.0 -708.0C157.0 -511.0 179.0 -91.0 184.0 181.0Z"/></g>
<g fill="red" transform="translate(1000 500) scale(0.1 -0.1)"><path d="M0.0 0.0V-134.0H586.0V0.0ZM108.0 144.0C106.0 -217.0 120.0 -518.0 -105.0 -699.0C-69.0 -722.0 -26.0 -768.0 -4.0 -802.0C243.0 -595.0 247.0 -248.0 249.0 144.0Z"/></g>
<g fill="black" opacity=".8" transform="translate(1000 500) scale(0.1 -0.1)"><path d="M0.0 0.0 -1.0 -120.0H584.0V0.0ZM119.0 143.0C113.0 -193.0 113.0 -516.0 -102.0 -705.0C-66.0 -730.0 -27.0 -772.0 -6.0 -807.0C228.0 -587.0 245.0 -227.0 252.0 144.0Z"/></g>
<g fill="red" transform="translate(1100 500) scale(0.1 -0.1)"><path d="M0.0 0.0V-29.0H596.0V0.0ZM267.0 151.0C210.0 -74.0 108.0 -257.0 -47.0 -372.0C-39.0 -377.0 -26.0 -387.0 -22.0 -392.0C130.0 -270.0 234.0 -89.0 295.0 145.0Z"/></g>
<g fill="black" opacity=".8" transform="translate(1100 500) scale(0.1 -0.1)"><path d="M0.0 0.0V-28.0H606.0V0.0ZM267.0 164.0C212.0 -72.0 105.0 -253.0 -57.0 -369.0C-50.0 -375.0 -39.0 -385.0 -35.0 -390.0C128.0 -268.0 236.0 -87.0 295.0 159.0Z"/></g>
<g fill="red" transform="translate(1200 500) scale(0.1 -0.1)"><path d="M0.0 0.0V-134.0H613.0V0.0ZM218.0 154.0C171.0 -68.0 73.0 -247.0 -85.0 -350.0C-58.0 -375.0 -11.0 -432.0 6.0 -460.0C178.0 -334.0 291.0 -127.0 351.0 129.0Z"/></g>
<g fill="black" opacity=".8" transform="translate(1200 500) scale(0.1 -0.1)"><path d="M0.0 0.0 -2.0 -124.0H604.0V0.0ZM213.0 142.0C170.0 -70.0 73.0 -253.0 -78.0 -353.0C-49.0 -378.0 1.0 -431.0 20.0 -460.0C184.0 -337.0 292.0 -132.0 350.0 116.0Z"/></g>
<g fill="red" transform="translate(1300 500) scale(0.1 -0.1)"><path d="M0.0 0.0V-29.0H578.0V0.0ZM158.0 201.0C157.0 -72.0 150.0 -492.0 -80.0 -677.0C-72.0 -681.0 -60.0 -688.0 -54.0 -693.0C177.0 -499.0 186.0 -83.0 188.0 201.0Z"/></g>
<g fill="black" opacity=".8" transform="translate(1300 500) scale(0.1 -0.1)"><path d="M0.0 0.0V-27.0H580.0V0.0ZM162.0 193.0C157.0 -76.0 137.0 -491.0 -72.0 -682.0C-66.0 -686.0 -54.0 -693.0 -49.0 -696.0C163.0 -497.0 183.0 -86.0 189.0 195.0Z"/></g>
<g fill="red" transform="translate(1400 500) scale(0.1 -0.1)"><path d="M0.0 0.0V-134.0H595.0V0.0ZM110.0 156.0C108.0 -202.0 121.0 -503.0 -84.0 -687.0C-48.0 -710.0 -4.0 -755.0 18.0 -790.0C245.0 -578.0 249.0 -233.0 251.0 156.0Z"/></g>
<g fill="black" opacity=".8" transform="translate(1400 500) scale(0.1 -0.1)"><path d="M0.0 0.0 -1.0 -122.0H593.0V0.0ZM122.0 155.0C117.0 -181.0 116.0 -503.0 -86.0 -692.0C-50.0 -716.0 -8.0 -758.0 13.0 -792.0C233.0 -573.0 249.0 -215.0 256.0 156.0Z"/></g>
<g fill="red" transform="translate(1500 500) scale(0.1 -0.1)"><path d="M0.0 0.0V-30.0H578.0V0.0ZM241.0 -145.0C191.0 -341.0 97.0 -498.0 -43.0 -595.0C-35.0 -601.0 -23.0 -612.0 -18.0 -618.0C119.0 -514.0 217.0 -357.0 270.0 -151.0Z"/></g>
<g fill="black" opacity=".8" transform="translate(1500 500) scale(0.1 -0.1)"><path d="M0.0 0.0V-30.0H584.0V0.0ZM243.0 -137.0C192.0 -340.0 93.0 -496.0 -50.0 -593.0C-42.0 -599.0 -30.0 -610.0 -26.0 -615.0C117.0 -512.0 218.0 -356.0 273.0 -142.0Z"/></g>
<g fill="red" transform="translate(1600 500) scale(0.1 -0.1)"><path d="M0.0 0.0V-126.0H586.0V0.0ZM196.0 -168.0C153.0 -348.0 63.0 -499.0 -73.0 -584.0C-42.0 -609.0 12.0 -665.0 33.0 -693.0C177.0 -586.0 282.0 -410.0 339.0 -197.0Z"/></g>
<g fill="black" opacity=".8" transform="translate(1600 500) scale(0.1 -0.1)"><path d="M0.0 0.0 -1.0 -129.0H582.0V0.0ZM193.0 -176.0C155.0 -354.0 69.0 -507.0 -68.0 -590.0C-37.0 -613.0 17.0 -662.0 38.0 -687.0C184.0 -584.0 280.0 -413.0 332.0 -202.0Z"/></g>
<g fill="red" transform="translate(100 600) scale(0.1 -0.1)"><path d="M0.0 0.0V-29.0H473.0V0.0ZM192.0 108.0C149.0 -46.0 76.0 -186.0 -20.0 -277.0C-12.0 -282.0 1.0 -292.0 6.0 -297.0C99.0 -201.0 176.0 -59.0 222.0 102.0Z"/></g>
<g fill="black" opacity=".8" transform="translate(100 600) scale(0.1 -0.1)"><path d="M0.0 0.0 1.0 -26.0H473.0V0.0ZM198.0 104.0C154.0 -50.0 74.0 -184.0 -21.0 -278.0C-15.0 -283.0 -4.0 -292.0 -0.0 -297.0C95.0 -198.0 176.0 -63.0 224.0 99.0Z"/></g>
<g fill="red" transform="translate(200 600) scale(0.1 -0.1)"><path d="M0.0 0.0V-121.0H500.0V0.0ZM166.0 82.0C134.0 -54.0 69.0 -175.0 -23.0 -248.0C0.0 -273.0 40.0 -331.0 54.0 -358.0C165.0 -264.0 245.0 -112.0 289.0 56.0Z"/></g>
<g fill="black" opacity=".8" transform="translate(200 600) scale(0.1 -0.1)"><path d="M0.0 0.0V-116.0H500.0V0.0ZM170.0 80.0C135.0 -43.0 64.0 -185.0 -26.0 -263.0C-0.0 -285.0 45.0 -328.0 63.0 -351.0C160.0 -254.0 242.0 -96.0 289.0 55.0Z"/></g>
<g fill="red" transform="translate(300 600) scale(0.1 -0.1)"><path d="M0.0 0.0V-29.0H583.0V0.0ZM183.0 195.0C153.0 -177.0 103.0 -490.0 -55.0 -687.0C-48.0 -691.0 -34.0 -700.0 -29.0 -705.0C130.0 -498.0 180.0 -194.0 213.0 193.0Z"/></g>
<g fill="black" opacity=".8" transform="translate(300 600) scale(0.1 -0.1)"><path d="M0.0 0.0V-32.0H582.0V0.0ZM173.0 191.0C147.0 -175.0 102.0 -494.0 -47.0 -686.0C-39.0 -692.0 -25.0 -701.0 -19.0 -706.0C131.0 -503.0 177.0 -190.0 205.0 190.0Z"/></g>
<g fill="red" transform="translate(400 600) scale(0.1 -0.1)"><path d="M0.0 0.0V-142.0H590.0V0.0ZM103.0 131.0C95.0 -217.0 62.0 -532.0 -66.0 -708.0C-30.0 -729.0 41.0 -779.0 64.0 -803.0C196.0 -594.0 236.0 -256.0 251.0 127.0Z"/></g>
<g fill="black" opacity=".8" transform="translate(400 600) scale(0.1 -0.1)"><path d="M0.0 0.0V-146.0H592.0V0.0ZM109.0 140.0C95.0 -224.0 61.0 -526.0 -72.0 -700.0C-35.0 -724.0 31.0 -777.0 54.0 -805.0C197.0 -599.0 241.0 -267.0 260.0 132.0Z"/></g>
<g fill="red" transform="translate(500 600) scale(0.1 -0.1)"><path d="M0.0 0.0V-29.0H645.0V0.0ZM224.0 174.0C175.0 -102.0 94.0 -343.0 -49.0 -497.0C-41.0 -501.0 -28.0 -511.0 -23.0 -515.0C119.0 -355.0 201.0 -117.0 255.0 169.0Z"/></g>
<g fill="black" opacity=".8" transform="translate(500 600) scale(0.1 -0.1)"><path d="M0.0 0.0V-31.0H652.0V0.0ZM222.0 164.0C178.0 -108.0 95.0 -342.0 -56.0 -490.0C-49.0 -496.0 -35.0 -506.0 -30.0 -512.0C121.0 -356.0 205.0 -124.0 253.0 160.0Z"/></g>
<g fill="red" transform="translate(600 600) scale(0.1 -0.1)"><path d="M0.0 0.0V-132.0H662.0V0.0ZM177.0 117.0C131.0 -132.0 44.0 -361.0 -90.0 -494.0C-57.0 -515.0 6.0 -563.0 30.0 -588.0C166.0 -433.0 264.0 -181.0 320.0 93.0Z"/></g>
<g fill="black" opacity=".8" transform="translate(600 600) scale(0.1 -0.1)"><path d="M0.0 0.0 -1.0 -139.0H657.0V0.0ZM161.0 127.0C128.0 -128.0 56.0 -358.0 -82.0 -488.0C-49.0 -514.0 10.0 -568.0 32.0 -597.0C182.0 -440.0 266.0 -185.0 310.0 106.0Z"/></g>
<g fill="red" transform="translate(700 600) scale(0.1 -0.1)"><path d="M0.0 0.0V-30.0H292.0V0.0ZM254.0 -135.0C203.0 -335.0 107.0 -496.0 -34.0 -597.0C-26.0 -602.0 -15.0 -613.0 -10.0 -619.0C130.0 -511.0 229.0 -350.0 284.0 -140.0Z"/></g>
<g fill="black" opacity=".8" transform="translate(700 600) scale(0.1 -0.1)"><path d="M0.0 0.0V-29.0H295.0V0.0ZM255.0 -132.0C202.0 -334.0 104.0 -498.0 -35.0 -596.0C-27.0 -603.0 -16.0 -613.0 -12.0 -618.0C126.0 -513.0 227.0 -349.0 283.0 -136.0Z"/></g>
<g fill="red" transform="translate(800 600) scale(0.1 -0.1)"><path d="M0.0 0.0V-126.0H293.0V0.0ZM187.0 -171.0C152.0 -374.0 74.0 -542.0 -61.0 -637.0C-31.0 -662.0 22.0 -716.0 42.0 -743.0C187.0 -625.0 279.0 -430.0 327.0 -194.0Z"/></g>
<g fill="black" opacity=".8" transform="translate(800 600) scale(0.1 -0.1)"><path d="M0.0 0.0 -1.0 -131.0H291.0V0.0ZM192.0 -173.0C155.0 -376.0 79.0 -540.0 -53.0 -634.0C-25.0 -661.0 20.0 -717.0 37.0 -746.0C186.0 -626.0 275.0 -435.0 322.0 -196.0Z"/></g>
<g fill="red" transform="translate(900 600) scale(0.1 -0.1)"><path d="M0.0 0.0V-30.0H310.0V0.0ZM530.0 134.0C466.0 -107.0 349.0 -294.0 172.0 -410.0C179.0 -415.0 191.0 -427.0 196.0 -431.0C372.0 -309.0 491.0 -123.0 560.0 127.0Z"/></g>
<g fill="black" opacity=".8" transform="translate(900 600) scale(0.1 -0.1)"><path d="M0.0 0.0V-32.0H300.0V0.0ZM527.0 129.0C466.0 -106.0 349.0 -302.0 179.0 -409.0C187.0 -416.0 199.0 -427.0 204.0 -433.0C373.0 -319.0 493.0 -123.0 557.0 123.0Z"/></g>
<g fill="red" transform="translate(1000 600) scale(0.1 -0.1)"><path d="M0.0 0.0V-126.0H257.0V0.0ZM452.0 98.0C411.0 -116.0 322.0 -288.0 170.0 -385.0C199.0 -409.0 248.0 -463.0 266.0 -490.0C428.0 -370.0 532.0 -173.0 585.0 75.0Z"/></g>
<g fill="black" opacity=".8" transform="translate(1000 600) scale(0.1 -0.1)"><path d="M0.0 0.0 -2.0 -127.0H267.0V0.0ZM458.0 104.0C411.0 -111.0 314.0 -285.0 162.0 -382.0C192.0 -407.0 240.0 -460.0 260.0 -490.0C423.0 -371.0 530.0 -175.0 589.0 78.0Z"/></g>
<g fill="red" transform="translate(1100 600) scale(0.1 -0.1)"><path d="M0.0 0.0V-29.0H874.0V0.0ZM351.0 134.0C300.0 -122.0 194.0 -300.0 4.0 -405.0C12.0 -412.0 22.0 -423.0 26.0 -429.0C217.0 -315.0 326.0 -137.0 381.0 129.0Z"/></g>
<g fill="black" opacity=".8" transform="translate(1100 600) scale(0.1 -0.1)"><path d="M0.0 0.0 1.0 -27.0H875.0V0.0ZM357.0 130.0C300.0 -123.0 186.0 -296.0 8.0 -413.0C13.0 -419.0 23.0 -428.0 27.0 -433.0C208.0 -312.0 323.0 -138.0 385.0 125.0Z"/></g>
<g fill="red" transform="translate(1200 600) scale(0.1 -0.1)"><path d="M0.0 0.0V-125.0H887.0V0.0ZM300.0 106.0C261.0 -132.0 162.0 -303.0 -25.0 -393.0C7.0 -417.0 65.0 -471.0 86.0 -498.0C278.0 -385.0 391.0 -191.0 445.0 84.0Z"/></g>
<g fill="black" opacity=".8" transform="translate(1200 600) scale(0.1 -0.1)"><path d="M0.0 0.0 -1.0 -112.0H886.0V0.0ZM311.0 107.0C264.0 -116.0 154.0 -300.0 -17.0 -397.0C11.0 -422.0 62.0 -472.0 81.0 -499.0C265.0 -382.0 386.0 -178.0 452.0 79.0Z"/></g>
<g fill="red" transform="translate(1300 600) scale(0.1 -0.1)"><path d="M0.0 0.0V-30.0H578.0V0.0ZM231.0 -135.0C186.0 -326.0 100.0 -482.0 -28.0 -580.0C-20.0 -586.0 -8.0 -597.0 -3.0 -602.0C122.0 -497.0 211.0 -340.0 260.0 -140.0Z"/></g>
<g fill="black" opacity=".8" transform="translate(1300 600) scale(0.1 -0.1)"><path d="M0.0 0.0 1.0 -28.0H574.0V0.0ZM235.0 -132.0C188.0 -327.0 100.0 -482.0 -28.0 -583.0C-21.0 -589.0 -10.0 -598.0 -6.0 -603.0C122.0 -496.0 212.0 -342.0 263.0 -136.0Z"/></g>
<g fill="red" transform="translate(1400 600) scale(0.1 -0.1)"><path d="M0.0 0.0V-125.0H581.0V0.0ZM179.0 -172.0C149.0 -364.0 76.0 -521.0 -54.0 -610.0C-25.0 -633.0 25.0 -686.0 44.0 -712.0C186.0 -602.0 272.0 -420.0 315.0 -192.0Z"/></g>
<g fill="black" opacity=".8" transform="translate(1400 600) scale(0.1 -0.1)"><path d="M0.0 0.0V-122.0H585.0V0.0ZM182.0 -176.0C148.0 -360.0 73.0 -521.0 -52.0 -612.0C-23.0 -636.0 26.0 -686.0 43.0 -711.0C181.0 -598.0 268.0 -414.0 314.0 -199.0Z"/></g>
<g fill="red" transform="translate(1500 600) scale(0.1 -0.1)"><path d="M0.0 0.0V-29.0H513.0V0.0ZM187.0 188.0C150.0 -111.0 78.0 -342.0 -90.0 -486.0C-82.0 -491.0 -70.0 -501.0 -64.0 -507.0C102.0 -354.0 177.0 -126.0 218.0 184.0Z"/></g>
<g fill="black" opacity=".8" transform="translate(1500 600) scale(0.1 -0.1)"><path d="M0.0 0.0 1.0 -26.0H512.0V0.0ZM202.0 183.0C157.0 -110.0 73.0 -345.0 -96.0 -487.0C-90.0 -492.0 -79.0 -502.0 -74.0 -506.0C96.0 -357.0 181.0 -124.0 229.0 181.0Z"/></g>
<g fill="red" transform="translate(1600 600) scale(0.1 -0.1)"><path d="M0.0 0.0V-131.0H559.0V0.0ZM183.0 158.0C154.0 -131.0 81.0 -356.0 -99.0 -479.0C-68.0 -506.0 -14.0 -569.0 5.0 -599.0C202.0 -446.0 292.0 -190.0 332.0 143.0Z"/></g>
<g fill="black" opacity=".8" transform="translate(1600 600) scale(0.1 -0.1)"><path d="M0.0 0.0 1.0 -128.0H561.0V0.0ZM188.0 160.0C153.0 -125.0 78.0 -358.0 -83.0 -485.0C-55.0 -512.0 -8.0 -568.0 10.0 -598.0C189.0 -441.0 276.0 -181.0 322.0 142.0Z"/></g>
<g fill="red" transform="translate(100 700) scale(0.1 -0.1)"><path d="M0.0 0.0V-29.0H566.0V0.0ZM157.0 228.0C156.0 20.0 143.0 -452.0 -77.0 -655.0C-69.0 -659.0 -56.0 -666.0 -51.0 -669.0C172.0 -459.0 185.0 9.0 187.0 228.0Z"/></g>
<g fill="black" opacity=".8" transform="translate(100 700) scale(0.1 -0.1)"><path d="M0.0 0.0V-28.0H565.0V0.0ZM155.0 219.0C156.0 0.0 145.0 -455.0 -71.0 -654.0C-64.0 -658.0 -52.0 -664.0 -47.0 -668.0C172.0 -462.0 183.0 -10.0 183.0 221.0Z"/></g>
<g fill="red" transform="translate(200 700) scale(0.1 -0.1)"><path d="M0.0 0.0V-127.0H566.0V0.0ZM99.0 180.0C97.0 -166.0 110.0 -478.0 -92.0 -667.0C-54.0 -690.0 -11.0 -733.0 12.0 -766.0C231.0 -548.0 236.0 -195.0 239.0 180.0Z"/></g>
<g fill="black" opacity=".8" transform="translate(200 700) scale(0.1 -0.1)"><path d="M0.0 0.0 -2.0 -126.0H567.0V0.0ZM101.0 180.0C100.0 -133.0 114.0 -470.0 -95.0 -672.0C-57.0 -698.0 -20.0 -740.0 2.0 -777.0C232.0 -544.0 236.0 -166.0 238.0 181.0Z"/></g>
<g fill="red" transform="translate(300 700) scale(0.1 -0.1)"><path d="M0.0 0.0V-29.0H561.0V0.0ZM175.0 195.0C152.0 -168.0 112.0 -485.0 -20.0 -687.0C-13.0 -691.0 0.0 -700.0 6.0 -705.0C139.0 -492.0 179.0 -184.0 206.0 193.0Z"/></g>
<g fill="black" opacity=".8" transform="translate(300 700) scale(0.1 -0.1)"><path d="M0.0 0.0 1.0 -32.0H552.0V0.0ZM172.0 192.0C151.0 -167.0 117.0 -491.0 -18.0 -685.0C-10.0 -691.0 5.0 -700.0 10.0 -705.0C146.0 -499.0 181.0 -183.0 204.0 192.0Z"/></g>
<g fill="red" transform="translate(400 700) scale(0.1 -0.1)"><path d="M0.0 0.0V-142.0H552.0V0.0ZM110.0 131.0C104.0 -214.0 75.0 -531.0 -39.0 -708.0C-4.0 -729.0 63.0 -779.0 85.0 -802.0C204.0 -592.0 239.0 -252.0 251.0 127.0Z"/></g>
<g fill="black" opacity=".8" transform="translate(400 700) scale(0.1 -0.1)"><path d="M0.0 0.0 1.0 -145.0H562.0V0.0ZM105.0 137.0C96.0 -221.0 73.0 -525.0 -46.0 -703.0C-8.0 -725.0 58.0 -776.0 82.0 -803.0C208.0 -594.0 241.0 -261.0 254.0 132.0Z"/></g>
<g fill="red" transform="translate(500 700) scale(0.1 -0.1)"><path d="M0.0 0.0V-29.0H543.0V0.0ZM145.0 228.0C144.0 -43.0 134.0 -464.0 -40.0 -656.0C-32.0 -659.0 -20.0 -666.0 -14.0 -670.0C162.0 -470.0 172.0 -54.0 174.0 228.0Z"/></g>
<g fill="black" opacity=".8" transform="translate(500 700) scale(0.1 -0.1)"><path d="M0.0 0.0V-28.0H542.0V0.0ZM150.0 223.0C148.0 -48.0 137.0 -459.0 -46.0 -657.0C-39.0 -661.0 -26.0 -668.0 -21.0 -672.0C164.0 -466.0 175.0 -59.0 179.0 224.0Z"/></g>
<g fill="red" transform="translate(600 700) scale(0.1 -0.1)"><path d="M0.0 0.0V-136.0H550.0V0.0ZM103.0 180.0C101.0 -163.0 112.0 -475.0 -70.0 -667.0C-33.0 -689.0 11.0 -732.0 33.0 -766.0C233.0 -545.0 238.0 -193.0 241.0 180.0Z"/></g>
<g fill="black" opacity=".8" transform="translate(600 700) scale(0.1 -0.1)"><path d="M0.0 0.0 -1.0 -128.0H552.0V0.0ZM101.0 179.0C99.0 -151.0 107.0 -476.0 -66.0 -670.0C-29.0 -693.0 18.0 -735.0 40.0 -768.0C228.0 -543.0 235.0 -183.0 236.0 180.0Z"/></g>
<g fill="red" transform="translate(700 700) scale(0.1 -0.1)"><path d="M0.0 0.0V-30.0H261.0V0.0ZM-311.0 -162.0C-324.0 -243.0 -342.0 -333.0 -367.0 -397.0C-359.0 -400.0 -344.0 -406.0 -338.0 -409.0C-317.0 -346.0 -295.0 -252.0 -280.0 -168.0Z"/></g>
<g fill="black" opacity=".8" transform="translate(700 700) scale(0.1 -0.1)"><path d="M0.0 0.0V-24.0H259.0V0.0ZM-303.0 -161.0C-318.0 -244.0 -346.0 -331.0 -363.0 -402.0C-357.0 -406.0 -346.0 -413.0 -342.0 -416.0C-326.0 -342.0 -296.0 -254.0 -279.0 -164.0Z"/></g>
<g fill="red" transform="translate(800 700) scale(0.1 -0.1)"><path d="M0.0 0.0V-133.0H235.0V0.0ZM-365.0 -192.0C-369.0 -273.0 -378.0 -362.0 -399.0 -419.0C-373.0 -426.0 -323.0 -442.0 -298.0 -455.0C-278.0 -394.0 -265.0 -299.0 -260.0 -209.0Z"/></g>
<g fill="black" opacity=".8" transform="translate(800 700) scale(0.1 -0.1)"><path d="M0.0 0.0 -3.0 -117.0H237.0V0.0ZM-362.0 -200.0C-368.0 -260.0 -382.0 -351.0 -394.0 -409.0C-370.0 -421.0 -320.0 -451.0 -301.0 -465.0C-291.0 -394.0 -268.0 -292.0 -259.0 -216.0Z"/></g>
<g fill="red" transform="translate(900 700) scale(0.1 -0.1)"><path d="M0.0 0.0V-30.0H525.0V0.0ZM200.0 168.0C158.0 -101.0 87.0 -338.0 -45.0 -489.0C-37.0 -494.0 -24.0 -504.0 -19.0 -509.0C113.0 -350.0 184.0 -117.0 230.0 164.0Z"/></g>
<g fill="black" opacity=".8" transform="translate(900 700) scale(0.1 -0.1)"><path d="M0.0 0.0 1.0 -29.0H536.0V0.0ZM187.0 149.0C151.0 -110.0 88.0 -341.0 -37.0 -486.0C-30.0 -491.0 -18.0 -501.0 -13.0 -505.0C113.0 -353.0 177.0 -125.0 216.0 146.0Z"/></g>
<g fill="red" transform="translate(1000 700) scale(0.1 -0.1)"><path d="M0.0 0.0V-127.0H563.0V0.0ZM136.0 92.0C111.0 -148.0 55.0 -370.0 -52.0 -499.0C-20.0 -515.0 41.0 -552.0 64.0 -571.0C171.0 -423.0 234.0 -186.0 266.0 77.0Z"/></g>
<g fill="black" opacity=".8" transform="translate(1000 700) scale(0.1 -0.1)"><path d="M0.0 0.0V-132.0H554.0V0.0ZM138.0 111.0C113.0 -134.0 60.0 -360.0 -54.0 -488.0C-22.0 -512.0 33.0 -561.0 54.0 -587.0C178.0 -432.0 242.0 -183.0 275.0 94.0Z"/></g>
<g fill="red" transform="translate(1100 700) scale(0.1 -0.1)"><path d="M0.0 0.0V-29.0H521.0V0.0ZM146.0 195.0C123.0 -168.0 83.0 -485.0 -49.0 -687.0C-42.0 -691.0 -29.0 -700.0 -23.0 -705.0C110.0 -492.0 150.0 -184.0 177.0 193.0Z"/></g>
<g fill="black" opacity=".8" transform="translate(1100 700) scale(0.1 -0.1)"><path d="M0.0 0.0 1.0 -30.0H513.0V0.0ZM142.0 190.0C120.0 -169.0 89.0 -492.0 -44.0 -686.0C-37.0 -691.0 -22.0 -700.0 -17.0 -705.0C116.0 -500.0 149.0 -184.0 173.0 190.0Z"/></g>
<g fill="red" transform="translate(1200 700) scale(0.1 -0.1)"><path d="M0.0 0.0V-142.0H552.0V0.0ZM110.0 131.0C104.0 -214.0 75.0 -531.0 -39.0 -708.0C-4.0 -729.0 63.0 -779.0 85.0 -802.0C204.0 -592.0 239.0 -252.0 251.0 127.0Z"/></g>
<g fill="black" opacity=".8" transform="translate(1200 700) scale(0.1 -0.1)"><path d="M0.0 0.0 2.0 -148.0H561.0V0.0ZM108.0 139.0C97.0 -218.0 74.0 -524.0 -45.0 -701.0C-10.0 -725.0 55.0 -777.0 77.0 -805.0C207.0 -595.0 241.0 -258.0 255.0 133.0Z"/></g>
<g fill="red" transform="translate(1300 700) scale(0.1 -0.1)"><path d="M0.0 0.0V-29.0H534.0V0.0ZM125.0 228.0C124.0 -43.0 114.0 -464.0 -60.0 -656.0C-52.0 -659.0 -39.0 -666.0 -34.0 -670.0C142.0 -470.0 153.0 -54.0 155.0 228.0Z"/></g>
<g fill="black" opacity=".8" transform="translate(1300 700) scale(0.1 -0.1)"><path d="M0.0 0.0 1.0 -27.0H533.0V0.0ZM129.0 222.0C127.0 -50.0 119.0 -460.0 -63.0 -657.0C-57.0 -661.0 -44.0 -668.0 -39.0 -671.0C145.0 -466.0 154.0 -60.0 157.0 223.0Z"/></g>
<g fill="red" transform="translate(1400 700) scale(0.1 -0.1)"><path d="M0.0 0.0V-127.0H563.0V0.0ZM99.0 180.0C97.0 -163.0 108.0 -475.0 -73.0 -667.0C-35.0 -689.0 8.0 -732.0 31.0 -766.0C230.0 -544.0 235.0 -193.0 238.0 180.0Z"/></g>
<g fill="black" opacity=".8" transform="translate(1400 700) scale(0.1 -0.1)"><path d="M0.0 0.0V-126.0H565.0V0.0ZM99.0 180.0C98.0 -150.0 106.0 -477.0 -68.0 -669.0C-33.0 -693.0 12.0 -735.0 33.0 -767.0C224.0 -543.0 230.0 -182.0 232.0 182.0Z"/></g>
<g fill="red" transform="translate(1500 700) scale(0.1 -0.1)"><path d="M0.0 0.0V-30.0H283.0V0.0ZM510.0 159.0C456.0 -99.0 343.0 -317.0 170.0 -414.0C178.0 -420.0 188.0 -431.0 194.0 -438.0C368.0 -333.0 482.0 -117.0 539.0 153.0Z"/></g>
<g fill="black" opacity=".8" transform="translate(1500 700) scale(0.1 -0.1)"><path d="M0.0 0.0V-31.0H286.0V0.0ZM509.0 159.0C454.0 -95.0 342.0 -307.0 166.0 -418.0C173.0 -424.0 185.0 -435.0 191.0 -440.0C367.0 -322.0 480.0 -112.0 538.0 154.0Z"/></g>
<g fill="red" transform="translate(1600 700) scale(0.1 -0.1)"><path d="M0.0 0.0V-133.0H253.0V0.0ZM455.0 138.0C410.0 -76.0 316.0 -272.0 160.0 -368.0C189.0 -392.0 229.0 -439.0 249.0 -471.0C419.0 -352.0 514.0 -143.0 570.0 114.0Z"/></g>
<g fill="black" opacity=".8" transform="translate(1600 700) scale(0.1 -0.1)"><path d="M0.0 0.0 -2.0 -124.0H250.0V0.0ZM450.0 138.0C406.0 -92.0 313.0 -271.0 157.0 -368.0C188.0 -391.0 237.0 -439.0 258.0 -469.0C422.0 -350.0 523.0 -152.0 577.0 115.0Z"/></g>
<g fill="red" transform="translate(100 800) scale(0.1 -0.1)"><path d="M0.0 0.0V-29.0H495.0V0.0ZM147.0 195.0C130.0 -160.0 98.0 -481.0 -13.0 -687.0C-7.0 -691.0 7.0 -700.0 13.0 -705.0C126.0 -488.0 156.0 -176.0 179.0 194.0Z"/></g>
<g fill="black" opacity=".8" transform="translate(100 800) scale(0.1 -0.1)"><path d="M0.0 0.0 1.0 -31.0H495.0V0.0ZM150.0 192.0C132.0 -161.0 104.0 -487.0 -23.0 -682.0C-16.0 -687.0 -1.0 -696.0 4.0 -700.0C132.0 -494.0 161.0 -176.0 182.0 192.0Z"/></g>
<g fill="red" transform="translate(200 800) scale(0.1 -0.1)"><path d="M0.0 0.0V-142.0H507.0V0.0ZM97.0 131.0C91.0 -214.0 61.0 -530.0 -55.0 -708.0C-21.0 -728.0 47.0 -778.0 69.0 -801.0C190.0 -590.0 225.0 -252.0 238.0 127.0Z"/></g>
<g fill="black" opacity=".8" transform="translate(200 800) scale(0.1 -0.1)"><path d="M0.0 0.0 1.0 -145.0H509.0V0.0ZM86.0 136.0C79.0 -220.0 63.0 -525.0 -48.0 -705.0C-12.0 -728.0 54.0 -779.0 76.0 -805.0C196.0 -593.0 223.0 -258.0 232.0 132.0Z"/></g>
<g fill="red" transform="translate(300 800) scale(0.1 -0.1)"><path d="M0.0 0.0V-29.0H561.0V0.0ZM175.0 195.0C155.0 -157.0 120.0 -470.0 0.0 -670.0C7.0 -675.0 21.0 -684.0 27.0 -690.0C147.0 -477.0 182.0 -172.0 206.0 193.0Z"/></g>
<g fill="black" opacity=".8" transform="translate(300 800) scale(0.1 -0.1)"><path d="M0.0 0.0 1.0 -32.0H557.0V0.0ZM174.0 193.0C153.0 -154.0 122.0 -474.0 -0.0 -669.0C7.0 -675.0 22.0 -684.0 27.0 -689.0C151.0 -482.0 183.0 -170.0 206.0 193.0Z"/></g>
<g fill="red" transform="translate(400 800) scale(0.1 -0.1)"><path d="M0.0 0.0V-142.0H554.0V0.0ZM95.0 129.0C90.0 -210.0 65.0 -530.0 -42.0 -710.0C-7.0 -730.0 63.0 -780.0 87.0 -803.0C199.0 -589.0 230.0 -247.0 241.0 125.0Z"/></g>
<g fill="black" opacity=".8" transform="translate(400 800) scale(0.1 -0.1)"><path d="M0.0 0.0 1.0 -144.0H559.0V0.0ZM92.0 134.0C84.0 -218.0 65.0 -523.0 -42.0 -704.0C-5.0 -727.0 62.0 -779.0 85.0 -806.0C200.0 -592.0 230.0 -257.0 241.0 128.0Z"/></g>
<g fill="red" transform="translate(500 800) scale(0.1 -0.1)"><path d="M0.0 0.0V-29.0H557.0V0.0ZM159.0 228.0C158.0 -43.0 148.0 -464.0 -26.0 -656.0C-18.0 -659.0 -6.0 -666.0 0.0 -670.0C176.0 -470.0 186.0 -54.0 188.0 228.0Z"/></g>
<g fill="black" opacity=".8" transform="translate(500 800) scale(0.1 -0.1)"><path d="M0.0 0.0V-28.0H556.0V0.0ZM163.0 223.0C162.0 -48.0 152.0 -459.0 -31.0 -657.0C-24.0 -661.0 -12.0 -667.0 -7.0 -671.0C179.0 -466.0 189.0 -59.0 191.0 225.0Z"/></g>
<g fill="red" transform="translate(600 800) scale(0.1 -0.1)"><path d="M0.0 0.0V-127.0H559.0V0.0ZM112.0 180.0C110.0 -163.0 121.0 -475.0 -58.0 -667.0C-21.0 -689.0 22.0 -732.0 45.0 -766.0C242.0 -544.0 247.0 -193.0 250.0 180.0Z"/></g>
<g fill="black" opacity=".8" transform="translate(600 800) scale(0.1 -0.1)"><path d="M0.0 0.0 -1.0 -124.0H561.0V0.0ZM110.0 179.0C110.0 -153.0 118.0 -477.0 -54.0 -670.0C-18.0 -693.0 28.0 -734.0 50.0 -766.0C238.0 -543.0 243.0 -183.0 244.0 181.0Z"/></g>
<g fill="red" transform="translate(700 800) scale(0.1 -0.1)"><path d="M0.0 0.0 -9.0 -30.0H451.0V0.0ZM49.0 273.0C31.0 69.0 -57.0 -199.0 -261.0 -358.0C-254.0 -362.0 -243.0 -370.0 -238.0 -377.0C-32.0 -213.0 58.0 60.0 78.0 270.0Z"/></g>
<g fill="black" opacity=".8" transform="translate(700 800) scale(0.1 -0.1)"><path d="M0.0 0.0 -2.0 -30.0H446.0V0.0ZM61.0 264.0C28.0 75.0 -56.0 -216.0 -264.0 -353.0C-257.0 -358.0 -245.0 -367.0 -240.0 -372.0C-30.0 -230.0 55.0 62.0 90.0 261.0Z"/></g>
<g fill="red" transform="translate(800 800) scale(0.1 -0.1)"><path d="M0.0 0.0 -37.0 -125.0H356.0V0.0ZM-52.0 238.0C-63.0 19.0 -124.0 -189.0 -324.0 -325.0C-290.0 -347.0 -242.0 -403.0 -223.0 -440.0C0.0 -276.0 77.0 -33.0 98.0 227.0Z"/></g>
<g fill="black" opacity=".8" transform="translate(800 800) scale(0.1 -0.1)"><path d="M0.0 0.0 -9.0 -130.0H363.0V0.0ZM-42.0 251.0C-70.0 25.0 -126.0 -196.0 -317.0 -326.0C-284.0 -351.0 -241.0 -399.0 -219.0 -434.0C-14.0 -280.0 58.0 -29.0 95.0 232.0Z"/></g>
<g fill="red" transform="translate(900 800) scale(0.1 -0.1)"><path d="M0.0 0.0V-30.0H869.0V0.0ZM372.0 -108.0C299.0 -337.0 166.0 -509.0 -25.0 -615.0C-17.0 -620.0 -4.0 -632.0 1.0 -636.0C188.0 -525.0 323.0 -353.0 402.0 -115.0Z"/></g>
<g fill="black" opacity=".8" transform="translate(900 800) scale(0.1 -0.1)"><path d="M0.0 0.0 1.0 -31.0H867.0V0.0ZM372.0 -118.0C302.0 -347.0 168.0 -507.0 -26.0 -612.0C-19.0 -619.0 -7.0 -630.0 -3.0 -636.0C191.0 -526.0 328.0 -364.0 403.0 -124.0Z"/></g>
<g fill="red" transform="translate(1000 800) scale(0.1 -0.1)"><path d="M0.0 0.0V-133.0H896.0V0.0ZM349.0 -159.0C285.0 -373.0 152.0 -535.0 -39.0 -624.0C-8.0 -652.0 45.0 -712.0 66.0 -743.0C264.0 -632.0 413.0 -443.0 496.0 -195.0Z"/></g>
<g fill="black" opacity=".8" transform="translate(1000 800) scale(0.1 -0.1)"><path d="M0.0 0.0 1.0 -133.0H899.0V0.0ZM335.0 -153.0C279.0 -360.0 155.0 -534.0 -38.0 -625.0C-7.0 -655.0 44.0 -715.0 64.0 -747.0C276.0 -632.0 416.0 -434.0 493.0 -187.0Z"/></g>
<g fill="red" transform="translate(1100 800) scale(0.1 -0.1)"><path d="M0.0 0.0V-29.0H869.0V0.0ZM314.0 -113.0C268.0 -414.0 176.0 -630.0 -24.0 -758.0C-17.0 -764.0 -6.0 -775.0 -2.0 -781.0C199.0 -643.0 294.0 -430.0 344.0 -116.0Z"/></g>
<g fill="black" opacity=".8" transform="translate(1100 800) scale(0.1 -0.1)"><path d="M0.0 0.0 1.0 -30.0H882.0V0.0ZM306.0 -120.0C261.0 -413.0 166.0 -628.0 -22.0 -757.0C-15.0 -763.0 -3.0 -772.0 2.0 -777.0C190.0 -642.0 287.0 -429.0 337.0 -123.0Z"/></g>
<g fill="red" transform="translate(1200 800) scale(0.1 -0.1)"><path d="M0.0 0.0V-127.0H905.0V0.0ZM258.0 -171.0C225.0 -434.0 143.0 -633.0 -35.0 -741.0C-4.0 -766.0 53.0 -822.0 73.0 -849.0C260.0 -716.0 358.0 -490.0 403.0 -189.0Z"/></g>
<g fill="black" opacity=".8" transform="translate(1200 800) scale(0.1 -0.1)"><path d="M0.0 0.0V-124.0H893.0V0.0ZM266.0 -163.0C230.0 -434.0 141.0 -640.0 -40.0 -750.0C-6.0 -773.0 53.0 -820.0 75.0 -846.0C267.0 -715.0 365.0 -489.0 416.0 -183.0Z"/></g>
<g fill="red" transform="translate(1300 800) scale(0.1 -0.1)"><path d="M0.0 0.0V-30.0H407.0V0.0ZM721.0 75.0C628.0 -104.0 460.0 -234.0 262.0 -313.0C270.0 -319.0 282.0 -330.0 287.0 -336.0C479.0 -252.0 652.0 -122.0 749.0 65.0Z"/></g>
<g fill="black" opacity=".8" transform="translate(1300 800) scale(0.1 -0.1)"><path d="M0.0 0.0 1.0 -31.0H401.0V0.0ZM718.0 90.0C631.0 -106.0 464.0 -240.0 263.0 -311.0C270.0 -319.0 281.0 -331.0 286.0 -337.0C486.0 -261.0 655.0 -124.0 746.0 81.0Z"/></g>
<g fill="red" transform="translate(1400 800) scale(0.1 -0.1)"><path d="M0.0 0.0V-121.0H401.0V0.0ZM689.0 93.0C619.0 -84.0 468.0 -207.0 271.0 -273.0C300.0 -297.0 350.0 -351.0 370.0 -379.0C568.0 -296.0 733.0 -153.0 824.0 56.0Z"/></g>
<g fill="black" opacity=".8" transform="translate(1400 800) scale(0.1 -0.1)"><path d="M0.0 0.0V-121.0H407.0V0.0ZM689.0 80.0C617.0 -76.0 466.0 -203.0 277.0 -262.0C304.0 -292.0 343.0 -350.0 361.0 -383.0C568.0 -303.0 729.0 -158.0 822.0 41.0Z"/></g>
<g fill="red" transform="translate(1500 800) scale(0.1 -0.1)"><path d="M0.0 0.0V-30.0H883.0V0.0ZM363.0 -266.0C297.0 -406.0 151.0 -538.0 -14.0 -616.0C-8.0 -620.0 1.0 -631.0 5.0 -638.0C174.0 -558.0 318.0 -422.0 393.0 -275.0Z"/></g>
<g fill="black" opacity=".8" transform="translate(1500 800) scale(0.1 -0.1)"><path d="M0.0 0.0 1.0 -32.0H883.0V0.0ZM354.0 -269.0C291.0 -413.0 160.0 -537.0 -15.0 -612.0C-8.0 -618.0 4.0 -629.0 8.0 -635.0C183.0 -557.0 317.0 -429.0 386.0 -276.0Z"/></g>
<g fill="red" transform="translate(1600 800) scale(0.1 -0.1)"><path d="M0.0 0.0V-117.0H874.0V0.0ZM304.0 -310.0C250.0 -426.0 124.0 -548.0 -35.0 -610.0C-6.0 -633.0 38.0 -680.0 60.0 -707.0C233.0 -631.0 369.0 -494.0 452.0 -349.0Z"/></g>
<g fill="black" opacity=".8" transform="translate(1600 800) scale(0.1 -0.1)"><path d="M0.0 0.0 -1.0 -124.0H875.0V0.0ZM300.0 -308.0C247.0 -427.0 130.0 -546.0 -46.0 -607.0C-14.0 -633.0 37.0 -681.0 59.0 -710.0C246.0 -633.0 378.0 -497.0 451.0 -343.0Z"/></g>
<g fill="red" transform="translate(100 900) scale(0.1 -0.1)"><path d="M0.0 0.0V-29.0H869.0V0.0ZM475.0 -116.0C466.0 -330.0 440.0 -647.0 248.0 -789.0C255.0 -793.0 266.0 -801.0 271.0 -806.0C466.0 -658.0 494.0 -341.0 506.0 -116.0Z"/></g>
<g fill="black" opacity=".8" transform="translate(100 900) scale(0.1 -0.1)"><path d="M0.0 0.0 2.0 -29.0H862.0V0.0ZM481.0 -116.0C465.0 -314.0 429.0 -644.0 254.0 -798.0C261.0 -803.0 274.0 -810.0 278.0 -815.0C454.0 -655.0 492.0 -326.0 510.0 -118.0Z"/></g>
<g fill="red" transform="translate(200 900) scale(0.1 -0.1)"><path d="M0.0 0.0V-127.0H901.0V0.0ZM449.0 -180.0C442.0 -396.0 440.0 -652.0 253.0 -808.0C289.0 -831.0 329.0 -872.0 349.0 -904.0C558.0 -721.0 580.0 -433.0 590.0 -180.0Z"/></g>
<g fill="black" opacity=".8" transform="translate(200 900) scale(0.1 -0.1)"><path d="M0.0 0.0 4.0 -112.0H908.0V0.0ZM462.0 -175.0C447.0 -404.0 423.0 -660.0 245.0 -807.0C283.0 -829.0 330.0 -864.0 353.0 -892.0C540.0 -723.0 578.0 -443.0 601.0 -184.0Z"/></g>
<g fill="red" transform="translate(300 900) scale(0.1 -0.1)"><path d="M0.0 0.0V-30.0H543.0V0.0ZM223.0 205.0C171.0 -103.0 83.0 -363.0 -83.0 -526.0C-75.0 -531.0 -64.0 -541.0 -59.0 -547.0C109.0 -374.0 196.0 -119.0 253.0 201.0Z"/></g>
<g fill="black" opacity=".8" transform="translate(300 900) scale(0.1 -0.1)"><path d="M0.0 0.0V-31.0H547.0V0.0ZM205.0 212.0C162.0 -99.0 84.0 -362.0 -74.0 -525.0C-67.0 -531.0 -53.0 -541.0 -48.0 -547.0C111.0 -375.0 190.0 -115.0 236.0 209.0Z"/></g>
<g fill="red" transform="translate(400 900) scale(0.1 -0.1)"><path d="M0.0 0.0V-137.0H557.0V0.0ZM134.0 176.0C105.0 -115.0 45.0 -381.0 -85.0 -536.0C-53.0 -562.0 5.0 -621.0 26.0 -650.0C166.0 -465.0 240.0 -165.0 277.0 161.0Z"/></g>
<g fill="black" opacity=".8" transform="translate(400 900) scale(0.1 -0.1)"><path d="M0.0 0.0 -1.0 -145.0H553.0V0.0ZM141.0 175.0C111.0 -128.0 46.0 -384.0 -97.0 -531.0C-64.0 -558.0 -4.0 -616.0 17.0 -646.0C174.0 -469.0 252.0 -183.0 291.0 158.0Z"/></g>
<g fill="red" transform="translate(500 900) scale(0.1 -0.1)"><path d="M0.0 0.0V-29.0H521.0V0.0ZM135.0 228.0C134.0 -43.0 124.0 -464.0 -50.0 -656.0C-42.0 -659.0 -30.0 -666.0 -24.0 -670.0C152.0 -470.0 162.0 -54.0 164.0 228.0Z"/></g>
<g fill="black" opacity=".8" transform="translate(500 900) scale(0.1 -0.1)"><path d="M0.0 0.0V-27.0H519.0V0.0ZM140.0 222.0C138.0 -49.0 129.0 -460.0 -54.0 -657.0C-48.0 -661.0 -35.0 -667.0 -30.0 -671.0C155.0 -466.0 164.0 -60.0 167.0 223.0Z"/></g>
<g fill="red" transform="translate(600 900) scale(0.1 -0.1)"><path d="M0.0 0.0V-127.0H537.0V0.0ZM101.0 180.0C99.0 -163.0 110.0 -475.0 -71.0 -667.0C-33.0 -689.0 10.0 -732.0 33.0 -766.0C232.0 -544.0 238.0 -193.0 241.0 180.0Z"/></g>
<g fill="black" opacity=".8" transform="translate(600 900) scale(0.1 -0.1)"><path d="M0.0 0.0V-126.0H540.0V0.0ZM101.0 180.0C100.0 -151.0 108.0 -477.0 -66.0 -669.0C-30.0 -692.0 15.0 -734.0 36.0 -767.0C226.0 -543.0 232.0 -182.0 234.0 182.0Z"/></g>
<g fill="red" transform="translate(700 900) scale(0.1 -0.1)"><path d="M0.0 0.0V-29.0H526.0V0.0ZM126.0 228.0C125.0 -43.0 115.0 -464.0 -59.0 -656.0C-51.0 -659.0 -39.0 -666.0 -33.0 -670.0C143.0 -470.0 153.0 -54.0 155.0 228.0Z"/></g>
<g fill="black" opacity=".8" transform="translate(700 900) scale(0.1 -0.1)"><path d="M0.0 0.0V-27.0H520.0V0.0ZM131.0 222.0C130.0 -49.0 121.0 -461.0 -62.0 -658.0C-56.0 -661.0 -43.0 -668.0 -38.0 -672.0C148.0 -467.0 157.0 -60.0 159.0 224.0Z"/></g>
<g fill="red" transform="translate(800 900) scale(0.1 -0.1)"><path d="M0.0 0.0V-127.0H527.0V0.0ZM90.0 180.0C88.0 -163.0 99.0 -475.0 -80.0 -667.0C-43.0 -689.0 0.0 -732.0 23.0 -766.0C220.0 -544.0 225.0 -193.0 228.0 180.0Z"/></g>
<g fill="black" opacity=".8" transform="translate(800 900) scale(0.1 -0.1)"><path d="M0.0 0.0 -1.0 -126.0H534.0V0.0ZM87.0 180.0C87.0 -152.0 96.0 -477.0 -78.0 -669.0C-41.0 -692.0 4.0 -733.0 26.0 -766.0C215.0 -543.0 220.0 -183.0 220.0 182.0Z"/></g>
<g fill="red" transform="translate(900 900) scale(0.1 -0.1)"><path d="M0.0 0.0V-29.0H552.0V0.0ZM233.0 -133.0C191.0 -325.0 108.0 -479.0 -20.0 -575.0C-13.0 -581.0 -1.0 -591.0 3.0 -597.0C131.0 -493.0 218.0 -340.0 264.0 -139.0Z"/></g>
<g fill="black" opacity=".8" transform="translate(900 900) scale(0.1 -0.1)"><path d="M0.0 0.0 1.0 -28.0H549.0V0.0ZM237.0 -130.0C191.0 -325.0 106.0 -479.0 -17.0 -578.0C-11.0 -584.0 1.0 -594.0 4.0 -598.0C128.0 -493.0 215.0 -340.0 264.0 -134.0Z"/></g>
<g fill="red" transform="translate(1000 900) scale(0.1 -0.1)"><path d="M0.0 0.0V-122.0H552.0V0.0ZM178.0 -168.0C149.0 -355.0 81.0 -509.0 -39.0 -597.0C-10.0 -621.0 40.0 -675.0 58.0 -702.0C190.0 -592.0 272.0 -411.0 311.0 -189.0Z"/></g>
<g fill="black" opacity=".8" transform="translate(1000 900) scale(0.1 -0.1)"><path d="M0.0 0.0V-121.0H555.0V0.0ZM183.0 -173.0C151.0 -354.0 79.0 -513.0 -41.0 -602.0C-12.0 -625.0 37.0 -672.0 55.0 -697.0C186.0 -586.0 269.0 -407.0 314.0 -195.0Z"/></g>
<g fill="red" transform="translate(1100 900) scale(0.1 -0.1)"><path d="M0.0 0.0V-30.0H596.0V0.0ZM240.0 -135.0C194.0 -316.0 106.0 -464.0 -20.0 -556.0C-13.0 -562.0 -1.0 -573.0 3.0 -578.0C128.0 -479.0 220.0 -331.0 270.0 -140.0Z"/></g>
<g fill="black" opacity=".8" transform="translate(1100 900) scale(0.1 -0.1)"><path d="M0.0 0.0 1.0 -28.0H605.0V0.0ZM242.0 -132.0C193.0 -318.0 101.0 -461.0 -25.0 -556.0C-18.0 -561.0 -6.0 -571.0 -2.0 -576.0C123.0 -476.0 217.0 -333.0 270.0 -137.0Z"/></g>
<g fill="red" transform="translate(1200 900) scale(0.1 -0.1)"><path d="M0.0 0.0V-125.0H641.0V0.0ZM206.0 -167.0C170.0 -335.0 89.0 -472.0 -36.0 -550.0C-7.0 -575.0 45.0 -629.0 64.0 -657.0C202.0 -558.0 297.0 -394.0 345.0 -192.0Z"/></g>
<g fill="black" opacity=".8" transform="translate(1200 900) scale(0.1 -0.1)"><path d="M0.0 0.0 1.0 -124.0H633.0V0.0ZM211.0 -171.0C174.0 -330.0 93.0 -479.0 -31.0 -559.0C-2.0 -582.0 49.0 -629.0 68.0 -654.0C201.0 -554.0 294.0 -387.0 345.0 -197.0Z"/></g>
<g fill="red" transform="translate(1300 900) scale(0.1 -0.1)"><path d="M0.0 0.0V-30.0H243.0V0.0ZM466.0 159.0C411.0 -91.0 298.0 -305.0 126.0 -397.0C134.0 -403.0 144.0 -414.0 150.0 -423.0C322.0 -321.0 437.0 -109.0 494.0 153.0Z"/></g>
<g fill="black" opacity=".8" transform="translate(1300 900) scale(0.1 -0.1)"><path d="M0.0 0.0V-30.0H246.0V0.0ZM464.0 158.0C408.0 -89.0 297.0 -294.0 125.0 -403.0C132.0 -409.0 144.0 -420.0 149.0 -425.0C320.0 -309.0 433.0 -105.0 492.0 153.0Z"/></g>
<g fill="red" transform="translate(1400 900) scale(0.1 -0.1)"><path d="M0.0 0.0V-133.0H234.0V0.0ZM423.0 138.0C378.0 -75.0 282.0 -272.0 130.0 -368.0C158.0 -392.0 198.0 -439.0 218.0 -470.0C386.0 -351.0 480.0 -142.0 537.0 114.0Z"/></g>
<g fill="black" opacity=".8" transform="translate(1400 900) scale(0.1 -0.1)"><path d="M0.0 0.0 -1.0 -125.0H232.0V0.0ZM419.0 139.0C375.0 -88.0 282.0 -267.0 127.0 -365.0C156.0 -390.0 202.0 -441.0 221.0 -471.0C388.0 -350.0 489.0 -149.0 544.0 115.0Z"/></g>
<g fill="red" transform="translate(1500 900) scale(0.1 -0.1)"><path d="M0.0 0.0V-30.0H504.0V0.0ZM148.0 218.0C147.0 -63.0 138.0 -478.0 -56.0 -666.0C-48.0 -669.0 -35.0 -676.0 -29.0 -680.0C167.0 -483.0 176.0 -74.0 178.0 218.0Z"/></g>
<g fill="black" opacity=".8" transform="translate(1500 900) scale(0.1 -0.1)"><path d="M0.0 0.0V-27.0H512.0V0.0ZM151.0 225.0C151.0 -65.0 136.0 -474.0 -64.0 -664.0C-57.0 -668.0 -45.0 -674.0 -40.0 -677.0C162.0 -480.0 177.0 -75.0 178.0 227.0Z"/></g>
<g fill="red" transform="translate(1600 900) scale(0.1 -0.1)"><path d="M0.0 0.0V-127.0H500.0V0.0ZM98.0 201.0C96.0 -159.0 102.0 -462.0 -92.0 -640.0C-56.0 -663.0 -15.0 -706.0 7.0 -741.0C215.0 -536.0 220.0 -192.0 222.0 201.0Z"/></g>
<g fill="black" opacity=".8" transform="translate(1600 900) scale(0.1 -0.1)"><path d="M0.0 0.0 -3.0 -117.0H493.0V0.0ZM96.0 189.0C95.0 -156.0 99.0 -468.0 -87.0 -652.0C-50.0 -672.0 -4.0 -708.0 18.0 -739.0C215.0 -528.0 223.0 -184.0 223.0 192.0Z"/></g>
<g fill="red" transform="translate(100 1000) scale(0.1 -0.1)"><path d="M0.0 0.0V-29.0H534.0V0.0ZM194.0 103.0C150.0 -54.0 74.0 -197.0 -23.0 -290.0C-15.0 -295.0 -2.0 -305.0 3.0 -310.0C98.0 -212.0 176.0 -67.0 223.0 97.0Z"/></g>
<g fill="black" opacity=".8" transform="translate(100 1000) scale(0.1 -0.1)"><path d="M0.0 0.0 1.0 -26.0H527.0V0.0ZM198.0 106.0C154.0 -55.0 75.0 -194.0 -20.0 -293.0C-15.0 -298.0 -3.0 -308.0 1.0 -312.0C97.0 -209.0 177.0 -69.0 224.0 101.0Z"/></g>
<g fill="red" transform="translate(200 1000) scale(0.1 -0.1)"><path d="M0.0 0.0V-121.0H536.0V0.0ZM150.0 87.0C120.0 -58.0 61.0 -189.0 -29.0 -268.0C-5.0 -295.0 35.0 -355.0 49.0 -383.0C159.0 -281.0 235.0 -117.0 276.0 62.0Z"/></g>
<g fill="black" opacity=".8" transform="translate(200 1000) scale(0.1 -0.1)"><path d="M0.0 0.0V-116.0H542.0V0.0ZM156.0 79.0C123.0 -52.0 52.0 -201.0 -37.0 -283.0C-11.0 -305.0 37.0 -348.0 55.0 -371.0C152.0 -269.0 233.0 -105.0 278.0 54.0Z"/></g>
<g fill="red" transform="translate(300 1000) scale(0.1 -0.1)"><path d="M0.0 0.0V-30.0H534.0V0.0ZM229.0 -120.0C185.0 -313.0 105.0 -478.0 -15.0 -583.0C-7.0 -587.0 6.0 -598.0 10.0 -604.0C128.0 -492.0 211.0 -328.0 259.0 -126.0Z"/></g>
<g fill="black" opacity=".8" transform="translate(300 1000) scale(0.1 -0.1)"><path d="M0.0 0.0 1.0 -29.0H527.0V0.0ZM231.0 -122.0C186.0 -315.0 105.0 -478.0 -10.0 -585.0C-3.0 -591.0 10.0 -601.0 13.0 -606.0C128.0 -493.0 211.0 -331.0 260.0 -126.0Z"/></g>
<g fill="red" transform="translate(400 1000) scale(0.1 -0.1)"><path d="M0.0 0.0V-125.0H541.0V0.0ZM180.0 -168.0C150.0 -355.0 84.0 -521.0 -25.0 -618.0C5.0 -641.0 58.0 -694.0 78.0 -721.0C198.0 -602.0 276.0 -409.0 318.0 -191.0Z"/></g>
<g fill="black" opacity=".8" transform="translate(400 1000) scale(0.1 -0.1)"><path d="M0.0 0.0 1.0 -128.0H549.0V0.0ZM183.0 -169.0C151.0 -351.0 84.0 -521.0 -28.0 -618.0C1.0 -642.0 52.0 -693.0 70.0 -718.0C194.0 -598.0 274.0 -405.0 317.0 -191.0Z"/></g>
<g fill="red" transform="translate(500 1000) scale(0.1 -0.1)"><path d="M0.0 0.0V-29.0H539.0V0.0ZM234.0 161.0C189.0 -45.0 105.0 -214.0 -28.0 -321.0C-20.0 -326.0 -7.0 -337.0 -2.0 -342.0C127.0 -228.0 214.0 -59.0 263.0 156.0Z"/></g>
<g fill="black" opacity=".8" transform="translate(500 1000) scale(0.1 -0.1)"><path d="M0.0 0.0V-27.0H547.0V0.0ZM239.0 161.0C186.0 -41.0 93.0 -205.0 -28.0 -322.0C-22.0 -328.0 -11.0 -338.0 -8.0 -343.0C115.0 -220.0 209.0 -55.0 266.0 156.0Z"/></g>
<g fill="red" transform="translate(600 1000) scale(0.1 -0.1)"><path d="M0.0 0.0V-134.0H572.0V0.0ZM176.0 133.0C137.0 -57.0 61.0 -229.0 -50.0 -334.0C-28.0 -368.0 7.0 -441.0 18.0 -475.0C159.0 -339.0 253.0 -122.0 306.0 106.0Z"/></g>
<g fill="black" opacity=".8" transform="translate(600 1000) scale(0.1 -0.1)"><path d="M0.0 0.0V-124.0H565.0V0.0ZM179.0 130.0C139.0 -60.0 59.0 -245.0 -56.0 -351.0C-30.0 -379.0 15.0 -435.0 32.0 -463.0C164.0 -331.0 259.0 -119.0 311.0 104.0Z"/></g>
<g fill="red" transform="translate(700 1000) scale(0.1 -0.1)"><path d="M0.0 0.0V-30.0H508.0V0.0ZM144.0 218.0C144.0 -64.0 136.0 -479.0 -72.0 -665.0C-65.0 -669.0 -52.0 -676.0 -47.0 -680.0C163.0 -485.0 172.0 -75.0 174.0 218.0Z"/></g>
<g fill="black" opacity=".8" transform="translate(700 1000) scale(0.1 -0.1)"><path d="M0.0 0.0V-27.0H507.0V0.0ZM145.0 224.0C144.0 -65.0 131.0 -477.0 -69.0 -668.0C-62.0 -672.0 -50.0 -678.0 -44.0 -681.0C157.0 -483.0 171.0 -75.0 172.0 226.0Z"/></g>
<g fill="red" transform="translate(800 1000) scale(0.1 -0.1)"><path d="M0.0 0.0V-127.0H518.0V0.0ZM114.0 201.0C112.0 -152.0 121.0 -455.0 -62.0 -639.0C-26.0 -661.0 16.0 -704.0 38.0 -738.0C238.0 -527.0 244.0 -183.0 246.0 201.0Z"/></g>
<g fill="black" opacity=".8" transform="translate(800 1000) scale(0.1 -0.1)"><path d="M0.0 0.0 -1.0 -122.0H519.0V0.0ZM119.0 191.0C117.0 -147.0 119.0 -462.0 -68.0 -644.0C-32.0 -665.0 14.0 -701.0 37.0 -733.0C237.0 -522.0 246.0 -177.0 248.0 193.0Z"/></g>
<g fill="red" transform="translate(900 1000) scale(0.1 -0.1)"><path d="M0.0 0.0V-29.0H530.0V0.0ZM218.0 -133.0C176.0 -325.0 93.0 -479.0 -36.0 -575.0C-28.0 -581.0 -16.0 -591.0 -12.0 -597.0C115.0 -493.0 203.0 -340.0 249.0 -139.0Z"/></g>
<g fill="black" opacity=".8" transform="translate(900 1000) scale(0.1 -0.1)"><path d="M0.0 0.0 1.0 -28.0H528.0V0.0ZM219.0 -131.0C174.0 -326.0 91.0 -479.0 -32.0 -577.0C-25.0 -583.0 -13.0 -592.0 -10.0 -597.0C113.0 -493.0 199.0 -340.0 246.0 -135.0Z"/></g>
<g fill="red" transform="translate(1000 1000) scale(0.1 -0.1)"><path d="M0.0 0.0V-122.0H541.0V0.0ZM172.0 -168.0C143.0 -350.0 77.0 -500.0 -40.0 -585.0C-12.0 -609.0 35.0 -663.0 54.0 -690.0C181.0 -583.0 261.0 -407.0 300.0 -190.0Z"/></g>
<g fill="black" opacity=".8" transform="translate(1000 1000) scale(0.1 -0.1)"><path d="M0.0 0.0V-121.0H543.0V0.0ZM177.0 -172.0C145.0 -349.0 74.0 -505.0 -45.0 -591.0C-17.0 -614.0 33.0 -660.0 51.0 -684.0C180.0 -577.0 262.0 -402.0 306.0 -194.0Z"/></g>
<g fill="red" transform="translate(1100 1000) scale(0.1 -0.1)"><path d="M0.0 0.0V-29.0H560.0V0.0ZM229.0 122.0C188.0 -57.0 109.0 -206.0 -7.0 -299.0C1.0 -305.0 12.0 -316.0 16.0 -321.0C133.0 -221.0 214.0 -72.0 258.0 117.0Z"/></g>
<g fill="black" opacity=".8" transform="translate(1100 1000) scale(0.1 -0.1)"><path d="M0.0 0.0V-27.0H552.0V0.0ZM237.0 111.0C193.0 -62.0 109.0 -206.0 -2.0 -305.0C3.0 -311.0 14.0 -320.0 17.0 -324.0C130.0 -220.0 216.0 -76.0 263.0 107.0Z"/></g>
<g fill="red" transform="translate(1200 1000) scale(0.1 -0.1)"><path d="M0.0 0.0V-106.0H505.0V0.0ZM153.0 75.0C117.0 -86.0 43.0 -231.0 -62.0 -317.0C-32.0 -333.0 23.0 -369.0 47.0 -389.0C149.0 -290.0 231.0 -130.0 277.0 51.0Z"/></g>
<g fill="black" opacity=".8" transform="translate(1200 1000) scale(0.1 -0.1)"><path d="M0.0 0.0 -3.0 -108.0H514.0V0.0ZM149.0 81.0C116.0 -74.0 45.0 -223.0 -55.0 -309.0C-29.0 -329.0 18.0 -372.0 36.0 -396.0C143.0 -291.0 226.0 -124.0 270.0 59.0Z"/></g>
<g fill="red" transform="translate(1300 1000) scale(0.1 -0.1)"><path d="M0.0 0.0V-29.0H560.0V0.0ZM227.0 143.0C186.0 -74.0 111.0 -257.0 -13.0 -373.0C-5.0 -378.0 7.0 -389.0 12.0 -393.0C134.0 -270.0 211.0 -88.0 257.0 138.0Z"/></g>
<g fill="black" opacity=".8" transform="translate(1300 1000) scale(0.1 -0.1)"><path d="M0.0 0.0V-30.0H550.0V0.0ZM228.0 125.0C187.0 -79.0 108.0 -258.0 -3.0 -377.0C4.0 -383.0 16.0 -393.0 21.0 -398.0C133.0 -273.0 213.0 -94.0 257.0 121.0Z"/></g>
<g fill="red" transform="translate(1400 1000) scale(0.1 -0.1)"><path d="M0.0 0.0V-127.0H505.0V0.0ZM140.0 74.0C110.0 -110.0 49.0 -282.0 -48.0 -384.0C-16.0 -400.0 42.0 -437.0 67.0 -457.0C162.0 -340.0 232.0 -153.0 270.0 53.0Z"/></g>
<g fill="black" opacity=".8" transform="translate(1400 1000) scale(0.1 -0.1)"><path d="M0.0 0.0 -3.0 -124.0H515.0V0.0ZM139.0 88.0C110.0 -94.0 45.0 -271.0 -53.0 -375.0C-22.0 -396.0 33.0 -441.0 54.0 -466.0C157.0 -342.0 232.0 -145.0 272.0 67.0Z"/></g>
<g fill="red" transform="translate(1500 1000) scale(0.1 -0.1)"><path d="M0.0 0.0V-29.0H384.0V0.0ZM167.0 198.0C137.0 -80.0 85.0 -329.0 -29.0 -488.0C-22.0 -493.0 -9.0 -503.0 -3.0 -507.0C112.0 -339.0 164.0 -95.0 197.0 195.0Z"/></g>
<g fill="black" opacity=".8" transform="translate(1500 1000) scale(0.1 -0.1)"><path d="M0.0 0.0 1.0 -28.0H390.0V0.0ZM169.0 187.0C133.0 -84.0 82.0 -331.0 -27.0 -489.0C-20.0 -494.0 -7.0 -504.0 -3.0 -509.0C106.0 -342.0 159.0 -99.0 197.0 185.0Z"/></g>
<g fill="red" transform="translate(1600 1000) scale(0.1 -0.1)"><path d="M0.0 0.0V-139.0H442.0V0.0ZM123.0 133.0C105.0 -140.0 61.0 -394.0 -45.0 -541.0C-12.0 -559.0 51.0 -603.0 75.0 -624.0C184.0 -453.0 237.0 -178.0 262.0 122.0Z"/></g>
<g fill="black" opacity=".8" transform="translate(1600 1000) scale(0.1 -0.1)"><path d="M0.0 0.0 2.0 -138.0H438.0V0.0ZM127.0 143.0C105.0 -128.0 66.0 -381.0 -34.0 -528.0C-4.0 -555.0 47.0 -611.0 65.0 -639.0C181.0 -460.0 234.0 -176.0 261.0 130.0Z"/></g>
<g fill="red" transform="translate(100 1100) scale(0.1 -0.1)"><path d="M0.0 0.0V-29.0H296.0V0.0ZM11.0 397.0C10.0 116.0 1.0 -299.0 -193.0 -487.0C-185.0 -490.0 -172.0 -497.0 -166.0 -501.0C30.0 -304.0 39.0 105.0 40.0 397.0Z"/></g>
<g fill="black" opacity=".8" transform="translate(100 1100) scale(0.1 -0.1)"><path d="M0.0 0.0 -1.0 -26.0H298.0V0.0ZM11.0 400.0C12.0 111.0 -1.0 -297.0 -191.0 -487.0C-185.0 -490.0 -173.0 -496.0 -167.0 -500.0C25.0 -301.0 38.0 101.0 37.0 401.0Z"/></g>
<g fill="red" transform="translate(200 1100) scale(0.1 -0.1)"><path d="M0.0 0.0V-120.0H271.0V0.0ZM-42.0 387.0C-44.0 37.0 -40.0 -261.0 -202.0 -441.0C-166.0 -464.0 -124.0 -507.0 -101.0 -542.0C74.0 -335.0 80.0 4.0 83.0 387.0Z"/></g>
<g fill="black" opacity=".8" transform="translate(200 1100) scale(0.1 -0.1)"><path d="M0.0 0.0 -5.0 -124.0H270.0V0.0ZM-41.0 380.0C-41.0 41.0 -34.0 -268.0 -204.0 -449.0C-170.0 -469.0 -125.0 -506.0 -103.0 -538.0C78.0 -328.0 82.0 12.0 80.0 383.0Z"/></g>
<g fill="red" transform="translate(300 1100) scale(0.1 -0.1)"><path d="M0.0 0.0V-30.0H495.0V0.0ZM133.0 218.0C132.0 -57.0 122.0 -463.0 -57.0 -649.0C-49.0 -652.0 -36.0 -659.0 -30.0 -664.0C150.0 -470.0 160.0 -68.0 163.0 218.0Z"/></g>
<g fill="black" opacity=".8" transform="translate(300 1100) scale(0.1 -0.1)"><path d="M0.0 0.0V-27.0H493.0V0.0ZM134.0 227.0C133.0 -62.0 123.0 -459.0 -55.0 -651.0C-49.0 -655.0 -37.0 -661.0 -31.0 -665.0C149.0 -464.0 159.0 -73.0 161.0 228.0Z"/></g>
<g fill="red" transform="translate(400 1100) scale(0.1 -0.1)"><path d="M0.0 0.0V-127.0H500.0V0.0ZM96.0 201.0C94.0 -154.0 98.0 -457.0 -62.0 -640.0C-26.0 -663.0 17.0 -706.0 40.0 -741.0C212.0 -530.0 219.0 -186.0 220.0 201.0Z"/></g>
<g fill="black" opacity=".8" transform="translate(400 1100) scale(0.1 -0.1)"><path d="M0.0 0.0 -1.0 -123.0H502.0V0.0ZM94.0 188.0C93.0 -149.0 99.0 -462.0 -67.0 -646.0C-31.0 -667.0 17.0 -706.0 39.0 -736.0C217.0 -523.0 222.0 -178.0 223.0 190.0Z"/></g>
<g fill="red" transform="translate(500 1100) scale(0.1 -0.1)"><path d="M0.0 0.0V-30.0H269.0V0.0ZM775.0 43.0C715.0 -207.0 588.0 -430.0 398.0 -513.0C406.0 -520.0 415.0 -531.0 421.0 -539.0C611.0 -448.0 738.0 -225.0 800.0 37.0Z"/></g>
<g fill="black" opacity=".8" transform="translate(500 1100) scale(0.1 -0.1)"><path d="M0.0 0.0 1.0 -29.0H275.0V0.0ZM766.0 40.0C705.0 -207.0 590.0 -418.0 402.0 -519.0C409.0 -526.0 421.0 -536.0 425.0 -542.0C611.0 -433.0 730.0 -223.0 793.0 36.0Z"/></g>
<g fill="red" transform="translate(600 1100) scale(0.1 -0.1)"><path d="M0.0 0.0V-105.0H275.0V0.0ZM724.0 10.0C677.0 -207.0 577.0 -402.0 416.0 -496.0C443.0 -520.0 482.0 -568.0 502.0 -599.0C678.0 -482.0 777.0 -275.0 836.0 -15.0Z"/></g>
<g fill="black" opacity=".8" transform="translate(600 1100) scale(0.1 -0.1)"><path d="M0.0 0.0 2.0 -110.0H270.0V0.0ZM727.0 12.0C679.0 -223.0 582.0 -399.0 409.0 -494.0C438.0 -519.0 478.0 -567.0 496.0 -598.0C681.0 -480.0 787.0 -283.0 846.0 -10.0Z"/></g>
<g fill="red" transform="translate(700 1100) scale(0.1 -0.1)"><path d="M0.0 0.0V-29.0H874.0V0.0ZM300.0 66.0C257.0 -98.0 152.0 -262.0 -17.0 -357.0C-9.0 -362.0 3.0 -370.0 9.0 -376.0C176.0 -279.0 282.0 -112.0 332.0 59.0Z"/></g>
<g fill="black" opacity=".8" transform="translate(700 1100) scale(0.1 -0.1)"><path d="M0.0 0.0 1.0 -25.0H866.0V0.0ZM318.0 62.0C265.0 -103.0 156.0 -265.0 -19.0 -359.0C-14.0 -364.0 -5.0 -373.0 -1.0 -378.0C176.0 -280.0 285.0 -116.0 343.0 56.0Z"/></g>
<g fill="red" transform="translate(800 1100) scale(0.1 -0.1)"><path d="M0.0 0.0V-102.0H896.0V0.0ZM310.0 46.0C266.0 -110.0 152.0 -262.0 -37.0 -335.0C-5.0 -357.0 45.0 -400.0 69.0 -427.0C261.0 -340.0 385.0 -171.0 453.0 17.0Z"/></g>
<g fill="black" opacity=".8" transform="translate(800 1100) scale(0.1 -0.1)"><path d="M0.0 0.0V-105.0H905.0V0.0ZM307.0 46.0C259.0 -100.0 154.0 -255.0 -21.0 -334.0C6.0 -358.0 45.0 -403.0 63.0 -431.0C254.0 -334.0 371.0 -162.0 438.0 17.0Z"/></g>
<g fill="red" transform="translate(900 1100) scale(0.1 -0.1)"><path d="M0.0 0.0V-29.0H874.0V0.0ZM310.0 83.0C266.0 -88.0 162.0 -260.0 -13.0 -360.0C-4.0 -365.0 7.0 -373.0 13.0 -378.0C187.0 -277.0 292.0 -102.0 342.0 76.0Z"/></g>
<g fill="black" opacity=".8" transform="translate(900 1100) scale(0.1 -0.1)"><path d="M0.0 0.0 1.0 -25.0H872.0V0.0ZM318.0 82.0C268.0 -90.0 163.0 -262.0 -9.0 -362.0C-4.0 -367.0 5.0 -376.0 9.0 -381.0C184.0 -277.0 289.0 -103.0 344.0 76.0Z"/></g>
<g fill="red" transform="translate(1000 1100) scale(0.1 -0.1)"><path d="M0.0 0.0V-102.0H896.0V0.0ZM289.0 64.0C250.0 -96.0 148.0 -258.0 -30.0 -338.0C1.0 -359.0 52.0 -402.0 76.0 -429.0C259.0 -334.0 371.0 -153.0 432.0 37.0Z"/></g>
<g fill="black" opacity=".8" transform="translate(1000 1100) scale(0.1 -0.1)"><path d="M0.0 0.0 -1.0 -105.0H898.0V0.0ZM295.0 63.0C249.0 -91.0 150.0 -253.0 -21.0 -336.0C7.0 -360.0 49.0 -404.0 67.0 -431.0C252.0 -330.0 364.0 -151.0 427.0 35.0Z"/></g>
<g fill="red" transform="translate(1100 1100) scale(0.1 -0.1)"><path d="M0.0 0.0V-29.0H455.0V0.0ZM196.0 105.0C151.0 -43.0 75.0 -176.0 -22.0 -263.0C-14.0 -268.0 -2.0 -278.0 3.0 -283.0C98.0 -192.0 178.0 -56.0 226.0 98.0Z"/></g>
<g fill="black" opacity=".8" transform="translate(1100 1100) scale(0.1 -0.1)"><path d="M0.0 0.0 1.0 -26.0H455.0V0.0ZM199.0 99.0C154.0 -48.0 73.0 -175.0 -18.0 -265.0C-13.0 -270.0 -2.0 -279.0 2.0 -284.0C93.0 -189.0 176.0 -61.0 224.0 93.0Z"/></g>
<g fill="red" transform="translate(1200 1100) scale(0.1 -0.1)"><path d="M0.0 0.0V-118.0H472.0V0.0ZM155.0 74.0C122.0 -57.0 58.0 -176.0 -29.0 -247.0C-4.0 -271.0 38.0 -323.0 55.0 -348.0C152.0 -258.0 230.0 -113.0 273.0 46.0Z"/></g>
<g fill="black" opacity=".8" transform="translate(1200 1100) scale(0.1 -0.1)"><path d="M0.0 0.0V-114.0H472.0V0.0ZM160.0 73.0C125.0 -44.0 53.0 -181.0 -32.0 -257.0C-7.0 -279.0 38.0 -323.0 55.0 -345.0C148.0 -250.0 231.0 -97.0 277.0 48.0Z"/></g>
<g fill="red" transform="translate(1300 1100) scale(0.1 -0.1)"><path d="M0.0 0.0V-29.0H552.0V0.0ZM149.0 228.0C148.0 -31.0 139.0 -464.0 -75.0 -655.0C-68.0 -659.0 -56.0 -666.0 -50.0 -670.0C167.0 -470.0 176.0 -42.0 178.0 228.0Z"/></g>
<g fill="black" opacity=".8" transform="translate(1300 1100) scale(0.1 -0.1)"><path d="M0.0 0.0V-28.0H547.0V0.0ZM153.0 223.0C151.0 -28.0 136.0 -462.0 -73.0 -659.0C-67.0 -663.0 -54.0 -670.0 -49.0 -674.0C163.0 -469.0 178.0 -38.0 181.0 224.0Z"/></g>
<g fill="red" transform="translate(1400 1100) scale(0.1 -0.1)"><path d="M0.0 0.0V-127.0H536.0V0.0ZM97.0 180.0C95.0 -140.0 107.0 -467.0 -96.0 -667.0C-58.0 -690.0 -14.0 -732.0 10.0 -767.0C229.0 -537.0 236.0 -171.0 239.0 180.0Z"/></g>
<g fill="black" opacity=".8" transform="translate(1400 1100) scale(0.1 -0.1)"><path d="M0.0 0.0 -2.0 -127.0H542.0V0.0ZM99.0 184.0C96.0 -141.0 103.0 -469.0 -96.0 -664.0C-58.0 -688.0 -15.0 -729.0 8.0 -765.0C224.0 -539.0 232.0 -174.0 236.0 185.0Z"/></g>
<g fill="red" transform="translate(1500 1100) scale(0.1 -0.1)"><path d="M0.0 0.0V-29.0H556.0V0.0ZM152.0 228.0C151.0 -44.0 142.0 -465.0 -41.0 -656.0C-33.0 -659.0 -20.0 -666.0 -14.0 -670.0C170.0 -470.0 180.0 -55.0 182.0 228.0Z"/></g>
<g fill="black" opacity=".8" transform="translate(1500 1100) scale(0.1 -0.1)"><path d="M0.0 0.0V-27.0H559.0V0.0ZM156.0 222.0C153.0 -49.0 143.0 -460.0 -44.0 -657.0C-38.0 -661.0 -25.0 -667.0 -20.0 -671.0C169.0 -466.0 180.0 -59.0 183.0 224.0Z"/></g>
<g fill="red" transform="translate(1600 1100) scale(0.1 -0.1)"><path d="M0.0 0.0V-127.0H577.0V0.0ZM110.0 180.0C108.0 -163.0 119.0 -475.0 -65.0 -667.0C-29.0 -690.0 15.0 -732.0 37.0 -766.0C240.0 -546.0 245.0 -194.0 248.0 180.0Z"/></g>
<g fill="black" opacity=".8" transform="translate(1600 1100) scale(0.1 -0.1)"><path d="M0.0 0.0V-123.0H575.0V0.0ZM112.0 180.0C110.0 -152.0 117.0 -478.0 -61.0 -670.0C-25.0 -694.0 20.0 -735.0 41.0 -768.0C235.0 -544.0 243.0 -184.0 245.0 182.0Z"/></g>
<g fill="red" transform="translate(100 1200) scale(0.1 -0.1)"><path d="M0.0 0.0V-29.0H345.0V0.0ZM556.0 208.0C514.0 -44.0 438.0 -257.0 304.0 -393.0C312.0 -397.0 324.0 -408.0 329.0 -414.0C463.0 -270.0 539.0 -58.0 586.0 203.0Z"/></g>
<g fill="black" opacity=".8" transform="translate(100 1200) scale(0.1 -0.1)"><path d="M0.0 0.0 2.0 -29.0H350.0V0.0ZM563.0 198.0C513.0 -44.0 430.0 -264.0 302.0 -390.0C310.0 -395.0 323.0 -406.0 328.0 -411.0C454.0 -278.0 538.0 -60.0 591.0 192.0Z"/></g>
<g fill="red" transform="translate(200 1200) scale(0.1 -0.1)"><path d="M0.0 0.0V-133.0H433.0V0.0ZM573.0 162.0C539.0 -47.0 467.0 -231.0 343.0 -338.0C373.0 -363.0 424.0 -418.0 443.0 -446.0C579.0 -315.0 665.0 -102.0 710.0 140.0Z"/></g>
<g fill="black" opacity=".8" transform="translate(200 1200) scale(0.1 -0.1)"><path d="M0.0 0.0 5.0 -129.0H430.0V0.0ZM581.0 169.0C542.0 -32.0 465.0 -237.0 347.0 -346.0C378.0 -371.0 427.0 -418.0 447.0 -446.0C574.0 -312.0 658.0 -91.0 708.0 147.0Z"/></g>
<g fill="red" transform="translate(300 1200) scale(0.1 -0.1)"><path d="M0.0 0.0V-30.0H310.0V0.0ZM530.0 134.0C460.0 -111.0 331.0 -296.0 139.0 -409.0C147.0 -415.0 159.0 -427.0 164.0 -432.0C354.0 -311.0 484.0 -128.0 560.0 127.0Z"/></g>
<g fill="black" opacity=".8" transform="translate(300 1200) scale(0.1 -0.1)"><path d="M0.0 0.0V-31.0H308.0V0.0ZM528.0 122.0C461.0 -113.0 330.0 -303.0 141.0 -406.0C149.0 -413.0 160.0 -424.0 165.0 -430.0C353.0 -320.0 487.0 -130.0 558.0 117.0Z"/></g>
<g fill="red" transform="translate(400 1200) scale(0.1 -0.1)"><path d="M0.0 0.0V-126.0H257.0V0.0ZM444.0 88.0C395.0 -133.0 287.0 -301.0 113.0 -395.0C141.0 -419.0 190.0 -474.0 208.0 -501.0C391.0 -386.0 513.0 -192.0 577.0 63.0Z"/></g>
<g fill="black" opacity=".8" transform="translate(400 1200) scale(0.1 -0.1)"><path d="M0.0 0.0 -3.0 -126.0H260.0V0.0ZM444.0 100.0C392.0 -125.0 284.0 -296.0 113.0 -391.0C143.0 -419.0 188.0 -475.0 206.0 -508.0C391.0 -389.0 512.0 -192.0 577.0 72.0Z"/></g>
<g fill="red" transform="translate(500 1200) scale(0.1 -0.1)"><path d="M0.0 0.0V-29.0H574.0V0.0ZM216.0 190.0C172.0 -117.0 87.0 -344.0 -104.0 -483.0C-97.0 -489.0 -85.0 -499.0 -80.0 -505.0C110.0 -356.0 199.0 -132.0 247.0 186.0Z"/></g>
<g fill="black" opacity=".8" transform="translate(500 1200) scale(0.1 -0.1)"><path d="M0.0 0.0V-27.0H561.0V0.0ZM223.0 194.0C176.0 -111.0 84.0 -347.0 -98.0 -490.0C-92.0 -495.0 -81.0 -505.0 -76.0 -510.0C107.0 -360.0 200.0 -125.0 251.0 191.0Z"/></g>
<g fill="red" transform="translate(600 1200) scale(0.1 -0.1)"><path d="M0.0 0.0V-131.0H572.0V0.0ZM179.0 175.0C151.0 -121.0 80.0 -351.0 -100.0 -478.0C-69.0 -506.0 -14.0 -568.0 5.0 -599.0C202.0 -441.0 289.0 -179.0 328.0 161.0Z"/></g>
<g fill="black" opacity=".8" transform="translate(600 1200) scale(0.1 -0.1)"><path d="M0.0 0.0 -1.0 -129.0H584.0V0.0ZM190.0 172.0C153.0 -122.0 70.0 -353.0 -100.0 -480.0C-70.0 -506.0 -20.0 -561.0 -1.0 -591.0C186.0 -437.0 279.0 -179.0 329.0 153.0Z"/></g>
<g fill="red" transform="translate(700 1200) scale(0.1 -0.1)"><path d="M0.0 0.0V-29.0H613.0V0.0ZM229.0 140.0C173.0 -60.0 79.0 -242.0 -38.0 -359.0C-32.0 -366.0 -23.0 -380.0 -19.0 -387.0C102.0 -259.0 198.0 -75.0 257.0 133.0Z"/></g>
<g fill="black" opacity=".8" transform="translate(700 1200) scale(0.1 -0.1)"><path d="M0.0 0.0V-30.0H611.0V0.0ZM233.0 142.0C179.0 -64.0 81.0 -240.0 -50.0 -360.0C-44.0 -367.0 -31.0 -377.0 -27.0 -383.0C105.0 -256.0 205.0 -80.0 263.0 136.0Z"/></g>
<g fill="red" transform="translate(800 1200) scale(0.1 -0.1)"><path d="M0.0 0.0V-139.0H614.0V0.0ZM179.0 116.0C133.0 -82.0 42.0 -259.0 -86.0 -363.0C-57.0 -390.0 -7.0 -451.0 11.0 -481.0C153.0 -353.0 259.0 -143.0 319.0 86.0Z"/></g>
<g fill="black" opacity=".8" transform="translate(800 1200) scale(0.1 -0.1)"><path d="M0.0 0.0 -1.0 -134.0H617.0V0.0ZM168.0 110.0C128.0 -76.0 42.0 -263.0 -81.0 -369.0C-51.0 -396.0 1.0 -451.0 21.0 -480.0C157.0 -349.0 257.0 -138.0 311.0 82.0Z"/></g>
<g fill="red" transform="translate(900 1200) scale(0.1 -0.1)"><path d="M0.0 0.0V-29.0H649.0V0.0ZM282.0 190.0C233.0 -109.0 144.0 -340.0 -38.0 -483.0C-31.0 -489.0 -19.0 -499.0 -13.0 -505.0C169.0 -352.0 260.0 -124.0 313.0 186.0Z"/></g>
<g fill="black" opacity=".8" transform="translate(900 1200) scale(0.1 -0.1)"><path d="M0.0 0.0V-29.0H644.0V0.0ZM290.0 197.0C239.0 -103.0 141.0 -340.0 -42.0 -485.0C-36.0 -491.0 -24.0 -501.0 -19.0 -506.0C165.0 -354.0 265.0 -119.0 319.0 193.0Z"/></g>
<g fill="red" transform="translate(1000 1200) scale(0.1 -0.1)"><path d="M0.0 0.0V-131.0H640.0V0.0ZM239.0 175.0C197.0 -111.0 107.0 -345.0 -68.0 -478.0C-37.0 -506.0 18.0 -567.0 39.0 -597.0C227.0 -436.0 333.0 -168.0 386.0 154.0Z"/></g>
<g fill="black" opacity=".8" transform="translate(1000 1200) scale(0.1 -0.1)"><path d="M0.0 0.0 -1.0 -130.0H646.0V0.0ZM234.0 170.0C195.0 -118.0 107.0 -350.0 -63.0 -478.0C-32.0 -505.0 22.0 -561.0 42.0 -591.0C227.0 -436.0 326.0 -177.0 379.0 148.0Z"/></g>
<g fill="red" transform="translate(1100 1200) scale(0.1 -0.1)"><path d="M0.0 0.0V-29.0H666.0V0.0ZM284.0 98.0C228.0 -27.0 102.0 -149.0 -38.0 -223.0C-31.0 -229.0 -22.0 -239.0 -18.0 -246.0C126.0 -169.0 250.0 -42.0 314.0 88.0Z"/></g>
<g fill="black" opacity=".8" transform="translate(1100 1200) scale(0.1 -0.1)"><path d="M0.0 0.0V-27.0H665.0V0.0ZM284.0 87.0C224.0 -35.0 106.0 -148.0 -34.0 -225.0C-28.0 -231.0 -18.0 -241.0 -14.0 -246.0C126.0 -166.0 247.0 -49.0 311.0 80.0Z"/></g>
<g fill="red" transform="translate(1200 1200) scale(0.1 -0.1)"><path d="M0.0 0.0V-111.0H652.0V0.0ZM220.0 67.0C176.0 -36.0 70.0 -147.0 -60.0 -204.0C-34.0 -227.0 7.0 -272.0 27.0 -300.0C171.0 -229.0 285.0 -104.0 356.0 29.0Z"/></g>
<g fill="black" opacity=".8" transform="translate(1200 1200) scale(0.1 -0.1)"><path d="M0.0 0.0 -3.0 -112.0H653.0V0.0ZM227.0 70.0C177.0 -25.0 70.0 -143.0 -65.0 -206.0C-39.0 -230.0 3.0 -277.0 22.0 -304.0C168.0 -225.0 288.0 -90.0 356.0 36.0Z"/></g>
<g fill="red" transform="translate(1300 1200) scale(0.1 -0.1)"><path d="M0.0 0.0V-30.0H842.0V0.0ZM312.0 135.0C255.0 -114.0 150.0 -304.0 -28.0 -421.0C-20.0 -425.0 -7.0 -436.0 -2.0 -441.0C172.0 -317.0 281.0 -129.0 342.0 129.0Z"/></g>
<g fill="black" opacity=".8" transform="translate(1300 1200) scale(0.1 -0.1)"><path d="M0.0 0.0 1.0 -28.0H846.0V0.0ZM310.0 129.0C255.0 -117.0 146.0 -301.0 -24.0 -422.0C-18.0 -428.0 -7.0 -438.0 -2.0 -443.0C169.0 -316.0 279.0 -132.0 339.0 123.0Z"/></g>
<g fill="red" transform="translate(1400 1200) scale(0.1 -0.1)"><path d="M0.0 0.0V-119.0H892.0V0.0ZM288.0 99.0C237.0 -117.0 133.0 -299.0 -34.0 -402.0C0.0 -423.0 62.0 -473.0 85.0 -498.0C258.0 -375.0 375.0 -169.0 440.0 75.0Z"/></g>
<g fill="black" opacity=".8" transform="translate(1400 1200) scale(0.1 -0.1)"><path d="M0.0 0.0V-124.0H889.0V0.0ZM291.0 106.0C244.0 -105.0 139.0 -297.0 -26.0 -397.0C4.0 -423.0 56.0 -474.0 76.0 -502.0C255.0 -381.0 372.0 -169.0 437.0 78.0Z"/></g>
<g fill="red" transform="translate(1500 1200) scale(0.1 -0.1)"><path d="M0.0 0.0V-30.0H261.0V0.0ZM478.0 159.0C413.0 -102.0 277.0 -330.0 71.0 -414.0C79.0 -420.0 89.0 -431.0 94.0 -439.0C301.0 -346.0 437.0 -120.0 503.0 153.0Z"/></g>
<g fill="black" opacity=".8" transform="translate(1500 1200) scale(0.1 -0.1)"><path d="M0.0 0.0V-31.0H258.0V0.0ZM467.0 155.0C406.0 -102.0 281.0 -316.0 78.0 -422.0C86.0 -429.0 97.0 -439.0 103.0 -445.0C305.0 -332.0 432.0 -119.0 496.0 149.0Z"/></g>
<g fill="red" transform="translate(1600 1200) scale(0.1 -0.1)"><path d="M0.0 0.0V-133.0H235.0V0.0ZM432.0 138.0C381.0 -80.0 275.0 -275.0 103.0 -368.0C132.0 -392.0 171.0 -440.0 191.0 -472.0C378.0 -356.0 484.0 -148.0 547.0 113.0Z"/></g>
<g fill="black" opacity=".8" transform="translate(1600 1200) scale(0.1 -0.1)"><path d="M0.0 0.0 -3.0 -129.0H238.0V0.0ZM430.0 143.0C380.0 -91.0 273.0 -269.0 89.0 -362.0C119.0 -387.0 165.0 -439.0 186.0 -472.0C382.0 -356.0 498.0 -158.0 560.0 117.0Z"/></g>
<g fill="red" transform="translate(100 1300) scale(0.1 -0.1)"><path d="M0.0 0.0V-29.0H481.0V0.0ZM143.0 195.0C120.0 -168.0 80.0 -485.0 -52.0 -687.0C-45.0 -691.0 -31.0 -700.0 -26.0 -705.0C108.0 -492.0 147.0 -184.0 174.0 193.0Z"/></g>
<g fill="black" opacity=".8" transform="translate(100 1300) scale(0.1 -0.1)"><path d="M0.0 0.0 1.0 -31.0H479.0V0.0ZM137.0 192.0C116.0 -171.0 84.0 -492.0 -47.0 -686.0C-40.0 -691.0 -25.0 -700.0 -20.0 -705.0C112.0 -500.0 145.0 -186.0 168.0 192.0Z"/></g>
<g fill="red" transform="translate(200 1300) scale(0.1 -0.1)"><path d="M0.0 0.0V-142.0H500.0V0.0ZM86.0 133.0C79.0 -225.0 48.0 -549.0 -64.0 -726.0C-29.0 -740.0 48.0 -779.0 73.0 -796.0C180.0 -591.0 213.0 -252.0 225.0 129.0Z"/></g>
<g fill="black" opacity=".8" transform="translate(200 1300) scale(0.1 -0.1)"><path d="M0.0 0.0 1.0 -146.0H503.0V0.0ZM82.0 139.0C73.0 -225.0 52.0 -530.0 -63.0 -708.0C-27.0 -731.0 37.0 -783.0 60.0 -811.0C185.0 -599.0 216.0 -264.0 228.0 134.0Z"/></g>
<g fill="red" transform="translate(300 1300) scale(0.1 -0.1)"><path d="M0.0 0.0V-30.0H466.0V0.0ZM132.0 218.0C131.0 -62.0 123.0 -476.0 -45.0 -666.0C-39.0 -669.0 -26.0 -676.0 -20.0 -680.0C148.0 -482.0 157.0 -73.0 159.0 218.0Z"/></g>
<g fill="black" opacity=".8" transform="translate(300 1300) scale(0.1 -0.1)"><path d="M0.0 0.0V-27.0H470.0V0.0ZM127.0 229.0C128.0 -69.0 123.0 -469.0 -46.0 -666.0C-40.0 -669.0 -27.0 -676.0 -22.0 -679.0C150.0 -474.0 154.0 -80.0 155.0 230.0Z"/></g>
<g fill="red" transform="translate(400 1300) scale(0.1 -0.1)"><path d="M0.0 0.0V-127.0H489.0V0.0ZM94.0 201.0C92.0 -159.0 96.0 -468.0 -48.0 -657.0C-12.0 -679.0 30.0 -722.0 54.0 -757.0C207.0 -541.0 214.0 -191.0 215.0 201.0Z"/></g>
<g fill="black" opacity=".8" transform="translate(400 1300) scale(0.1 -0.1)"><path d="M0.0 0.0V-125.0H485.0V0.0ZM90.0 187.0C92.0 -156.0 102.0 -476.0 -55.0 -664.0C-19.0 -684.0 31.0 -723.0 53.0 -752.0C221.0 -535.0 222.0 -184.0 219.0 190.0Z"/></g>
<g fill="red" transform="translate(500 1300) scale(0.1 -0.1)"><path d="M0.0 0.0V-30.0H486.0V0.0ZM204.0 -137.0C170.0 -322.0 106.0 -477.0 -1.0 -575.0C7.0 -580.0 19.0 -590.0 22.0 -595.0C129.0 -490.0 197.0 -336.0 233.0 -141.0Z"/></g>
<g fill="black" opacity=".8" transform="translate(500 1300) scale(0.1 -0.1)"><path d="M0.0 0.0 1.0 -27.0H493.0V0.0ZM208.0 -132.0C171.0 -320.0 101.0 -476.0 -7.0 -574.0C-0.0 -580.0 12.0 -589.0 16.0 -593.0C123.0 -489.0 195.0 -334.0 235.0 -135.0Z"/></g>
<g fill="red" transform="translate(600 1300) scale(0.1 -0.1)"><path d="M0.0 0.0V-124.0H509.0V0.0ZM159.0 -169.0C138.0 -343.0 84.0 -487.0 -26.0 -570.0C2.0 -592.0 50.0 -643.0 68.0 -668.0C191.0 -564.0 259.0 -395.0 290.0 -185.0Z"/></g>
<g fill="black" opacity=".8" transform="translate(600 1300) scale(0.1 -0.1)"><path d="M0.0 0.0 1.0 -118.0H503.0V0.0ZM167.0 -175.0C140.0 -343.0 82.0 -495.0 -21.0 -580.0C8.0 -600.0 59.0 -641.0 77.0 -663.0C186.0 -559.0 255.0 -390.0 290.0 -194.0Z"/></g>
<g fill="red" transform="translate(700 1300) scale(0.1 -0.1)"><path d="M0.0 0.0V-30.0H323.0V0.0ZM94.0 465.0C47.0 191.0 -32.0 -44.0 -178.0 -192.0C-170.0 -198.0 -159.0 -208.0 -153.0 -214.0C-8.0 -56.0 74.0 175.0 125.0 460.0Z"/></g>
<g fill="black" opacity=".8" transform="translate(700 1300) scale(0.1 -0.1)"><path d="M0.0 0.0 -1.0 -28.0H336.0V0.0ZM83.0 465.0C38.0 194.0 -39.0 -39.0 -170.0 -195.0C-163.0 -201.0 -152.0 -210.0 -147.0 -215.0C-15.0 -51.0 63.0 179.0 111.0 462.0Z"/></g>
<g fill="red" transform="translate(800 1300) scale(0.1 -0.1)"><path d="M0.0 0.0V-134.0H324.0V0.0ZM-29.0 444.0C-54.0 175.0 -106.0 -73.0 -216.0 -218.0C-185.0 -244.0 -132.0 -304.0 -113.0 -334.0C8.0 -159.0 73.0 124.0 106.0 428.0Z"/></g>
<g fill="black" opacity=".8" transform="translate(800 1300) scale(0.1 -0.1)"><path d="M0.0 0.0 -4.0 -136.0H312.0V0.0ZM-14.0 445.0C-44.0 171.0 -105.0 -72.0 -215.0 -216.0C-188.0 -244.0 -139.0 -305.0 -122.0 -336.0C6.0 -160.0 81.0 117.0 119.0 426.0Z"/></g>
<g fill="red" transform="translate(900 1300) scale(0.1 -0.1)"><path d="M0.0 0.0V-29.0H561.0V0.0ZM175.0 195.0C148.0 -173.0 103.0 -488.0 -44.0 -687.0C-36.0 -691.0 -23.0 -700.0 -17.0 -705.0C130.0 -495.0 175.0 -189.0 205.0 193.0Z"/></g>
<g fill="black" opacity=".8" transform="translate(900 1300) scale(0.1 -0.1)"><path d="M0.0 0.0V-31.0H566.0V0.0ZM175.0 189.0C149.0 -173.0 103.0 -492.0 -51.0 -682.0C-44.0 -688.0 -30.0 -697.0 -24.0 -702.0C131.0 -501.0 178.0 -188.0 206.0 189.0Z"/></g>
<g fill="red" transform="translate(1000 1300) scale(0.1 -0.1)"><path d="M0.0 0.0V-142.0H568.0V0.0ZM103.0 131.0C91.0 -227.0 51.0 -537.0 -97.0 -708.0C-61.0 -729.0 9.0 -780.0 33.0 -803.0C185.0 -600.0 233.0 -267.0 251.0 126.0Z"/></g>
<g fill="black" opacity=".8" transform="translate(1000 1300) scale(0.1 -0.1)"><path d="M0.0 0.0V-142.0H564.0V0.0ZM99.0 138.0C85.0 -230.0 52.0 -530.0 -85.0 -705.0C-49.0 -729.0 15.0 -782.0 37.0 -811.0C185.0 -603.0 230.0 -272.0 248.0 132.0Z"/></g>
<g fill="red" transform="translate(1100 1300) scale(0.1 -0.1)"><path d="M0.0 0.0V-29.0H402.0V0.0ZM171.0 185.0C144.0 -87.0 94.0 -318.0 -29.0 -465.0C-22.0 -469.0 -9.0 -480.0 -4.0 -486.0C119.0 -330.0 171.0 -102.0 202.0 182.0Z"/></g>
<g fill="black" opacity=".8" transform="translate(1100 1300) scale(0.1 -0.1)"><path d="M0.0 0.0 1.0 -28.0H403.0V0.0ZM179.0 188.0C145.0 -79.0 88.0 -318.0 -33.0 -465.0C-26.0 -470.0 -13.0 -479.0 -8.0 -484.0C112.0 -329.0 170.0 -93.0 206.0 186.0Z"/></g>
<g fill="red" transform="translate(1200 1300) scale(0.1 -0.1)"><path d="M0.0 0.0V-135.0H442.0V0.0ZM150.0 156.0C129.0 -87.0 84.0 -313.0 -23.0 -449.0C3.0 -478.0 47.0 -543.0 62.0 -575.0C193.0 -407.0 254.0 -142.0 284.0 142.0Z"/></g>
<g fill="black" opacity=".8" transform="translate(1200 1300) scale(0.1 -0.1)"><path d="M0.0 0.0 1.0 -133.0H442.0V0.0ZM152.0 154.0C129.0 -99.0 81.0 -330.0 -28.0 -461.0C2.0 -485.0 55.0 -534.0 75.0 -560.0C195.0 -402.0 253.0 -146.0 283.0 140.0Z"/></g>
<g fill="red" transform="translate(1300 1300) scale(0.1 -0.1)"><path d="M0.0 0.0V-30.0H290.0V0.0ZM489.0 349.0C488.0 69.0 480.0 -345.0 311.0 -535.0C317.0 -538.0 331.0 -545.0 336.0 -549.0C505.0 -351.0 514.0 58.0 516.0 349.0Z"/></g>
<g fill="black" opacity=".8" transform="translate(1300 1300) scale(0.1 -0.1)"><path d="M0.0 0.0V-27.0H301.0V0.0ZM490.0 367.0C486.0 70.0 474.0 -341.0 304.0 -533.0C310.0 -537.0 323.0 -544.0 328.0 -548.0C500.0 -346.0 512.0 58.0 516.0 368.0Z"/></g>
<g fill="red" transform="translate(1400 1300) scale(0.1 -0.1)"><path d="M0.0 0.0V-105.0H275.0V0.0ZM410.0 347.0C408.0 -13.0 412.0 -322.0 267.0 -511.0C303.0 -533.0 346.0 -576.0 369.0 -611.0C524.0 -395.0 531.0 -45.0 532.0 347.0Z"/></g>
<g fill="black" opacity=".8" transform="translate(1400 1300) scale(0.1 -0.1)"><path d="M0.0 0.0 -1.0 -106.0H265.0V0.0ZM415.0 326.0C413.0 -19.0 421.0 -333.0 273.0 -521.0C308.0 -540.0 352.0 -574.0 373.0 -604.0C529.0 -387.0 530.0 -44.0 527.0 331.0Z"/></g>
<g fill="red" transform="translate(1500 1300) scale(0.1 -0.1)"><path d="M0.0 0.0V-30.0H495.0V0.0ZM848.0 15.0C766.0 -45.0 619.0 -94.0 493.0 -121.0C500.0 -128.0 508.0 -138.0 513.0 -145.0C641.0 -116.0 789.0 -63.0 874.0 1.0Z"/></g>
<g fill="black" opacity=".8" transform="translate(1500 1300) scale(0.1 -0.1)"><path d="M0.0 0.0 1.0 -23.0H496.0V0.0ZM847.0 9.0C770.0 -57.0 626.0 -97.0 497.0 -122.0C501.0 -129.0 509.0 -139.0 511.0 -144.0C641.0 -116.0 786.0 -71.0 867.0 1.0Z"/></g>
<g fill="red" transform="translate(1600 1300) scale(0.1 -0.1)"><path d="M0.0 0.0V-69.0H500.0V0.0ZM802.0 -2.0C739.0 -52.0 611.0 -84.0 484.0 -98.0C506.0 -120.0 531.0 -157.0 544.0 -184.0C691.0 -159.0 825.0 -118.0 905.0 -41.0Z"/></g>
<g fill="black" opacity=".8" transform="translate(1600 1300) scale(0.1 -0.1)"><path d="M0.0 0.0 2.0 -72.0H499.0V0.0ZM811.0 -5.0C745.0 -32.0 612.0 -82.0 485.0 -101.0C504.0 -124.0 528.0 -163.0 540.0 -187.0C678.0 -157.0 821.0 -99.0 906.0 -43.0Z"/></g>
<g fill="red" transform="translate(100 1400) scale(0.1 -0.1)"><path d="M0.0 0.0V-29.0H360.0V0.0ZM494.0 447.0C493.0 167.0 484.0 -247.0 313.0 -437.0C318.0 -440.0 332.0 -447.0 337.0 -451.0C511.0 -253.0 519.0 156.0 521.0 447.0Z"/></g>
<g fill="black" opacity=".8" transform="translate(100 1400) scale(0.1 -0.1)"><path d="M0.0 0.0 1.0 -25.0H360.0V0.0ZM499.0 451.0C491.0 160.0 481.0 -244.0 317.0 -440.0C322.0 -444.0 334.0 -450.0 338.0 -454.0C505.0 -249.0 515.0 149.0 522.0 452.0Z"/></g>
<g fill="red" transform="translate(200 1400) scale(0.1 -0.1)"><path d="M0.0 0.0V-99.0H381.0V0.0ZM449.0 427.0C447.0 67.0 451.0 -242.0 306.0 -431.0C343.0 -453.0 385.0 -496.0 409.0 -531.0C564.0 -315.0 571.0 35.0 572.0 427.0Z"/></g>
<g fill="black" opacity=".8" transform="translate(200 1400) scale(0.1 -0.1)"><path d="M0.0 0.0 2.0 -102.0H381.0V0.0ZM459.0 416.0C454.0 79.0 457.0 -246.0 309.0 -438.0C341.0 -459.0 379.0 -497.0 398.0 -527.0C559.0 -305.0 565.0 51.0 569.0 420.0Z"/></g>
<g fill="red" transform="translate(300 1400) scale(0.1 -0.1)"><path d="M0.0 0.0V-29.0H583.0V0.0ZM182.0 195.0C153.0 -177.0 103.0 -490.0 -55.0 -687.0C-48.0 -691.0 -35.0 -700.0 -30.0 -705.0C129.0 -498.0 179.0 -194.0 212.0 193.0Z"/></g>
<g fill="black" opacity=".8" transform="translate(300 1400) scale(0.1 -0.1)"><path d="M0.0 0.0 1.0 -33.0H567.0V0.0ZM171.0 192.0C147.0 -173.0 105.0 -496.0 -38.0 -690.0C-31.0 -695.0 -16.0 -705.0 -10.0 -710.0C134.0 -505.0 177.0 -190.0 204.0 191.0Z"/></g>
<g fill="red" transform="translate(400 1400) scale(0.1 -0.1)"><path d="M0.0 0.0V-142.0H563.0V0.0ZM103.0 131.0C97.0 -210.0 70.0 -529.0 -42.0 -708.0C-7.0 -728.0 64.0 -779.0 88.0 -802.0C205.0 -589.0 239.0 -248.0 251.0 127.0Z"/></g>
<g fill="black" opacity=".8" transform="translate(400 1400) scale(0.1 -0.1)"><path d="M0.0 0.0V-149.0H578.0V0.0ZM109.0 140.0C96.0 -220.0 65.0 -522.0 -61.0 -697.0C-23.0 -720.0 45.0 -772.0 70.0 -800.0C204.0 -593.0 245.0 -262.0 262.0 133.0Z"/></g>
<g fill="red" transform="translate(500 1400) scale(0.1 -0.1)"><path d="M0.0 0.0V-30.0H292.0V0.0ZM255.0 -135.0C204.0 -335.0 108.0 -496.0 -33.0 -597.0C-25.0 -602.0 -14.0 -613.0 -9.0 -619.0C131.0 -511.0 230.0 -350.0 285.0 -140.0Z"/></g>
<g fill="black" opacity=".8" transform="translate(500 1400) scale(0.1 -0.1)"><path d="M0.0 0.0V-30.0H306.0V0.0ZM257.0 -133.0C205.0 -334.0 104.0 -498.0 -45.0 -590.0C-37.0 -596.0 -25.0 -606.0 -21.0 -612.0C126.0 -513.0 231.0 -350.0 285.0 -137.0Z"/></g>
<g fill="red" transform="translate(600 1400) scale(0.1 -0.1)"><path d="M0.0 0.0V-125.0H293.0V0.0ZM194.0 -167.0C155.0 -356.0 66.0 -507.0 -76.0 -592.0C-47.0 -616.0 4.0 -671.0 23.0 -699.0C173.0 -593.0 276.0 -416.0 330.0 -193.0Z"/></g>
<g fill="black" opacity=".8" transform="translate(600 1400) scale(0.1 -0.1)"><path d="M0.0 0.0 -2.0 -130.0H281.0V0.0ZM191.0 -169.0C154.0 -362.0 75.0 -512.0 -63.0 -597.0C-34.0 -621.0 14.0 -672.0 32.0 -700.0C183.0 -593.0 274.0 -420.0 321.0 -192.0Z"/></g>
<g fill="red" transform="translate(700 1400) scale(0.1 -0.1)"><path d="M0.0 0.0V-30.0H304.0V0.0ZM506.0 134.0C436.0 -111.0 307.0 -296.0 115.0 -409.0C123.0 -415.0 135.0 -427.0 140.0 -432.0C330.0 -311.0 460.0 -128.0 536.0 127.0Z"/></g>
<g fill="black" opacity=".8" transform="translate(700 1400) scale(0.1 -0.1)"><path d="M0.0 0.0V-30.0H288.0V0.0ZM507.0 120.0C440.0 -115.0 311.0 -306.0 124.0 -409.0C131.0 -416.0 143.0 -427.0 148.0 -433.0C334.0 -323.0 465.0 -132.0 535.0 115.0Z"/></g>
<g fill="red" transform="translate(800 1400) scale(0.1 -0.1)"><path d="M0.0 0.0V-126.0H260.0V0.0ZM455.0 88.0C407.0 -133.0 300.0 -301.0 127.0 -395.0C155.0 -419.0 203.0 -474.0 221.0 -501.0C403.0 -386.0 524.0 -192.0 587.0 63.0Z"/></g>
<g fill="black" opacity=".8" transform="translate(800 1400) scale(0.1 -0.1)"><path d="M0.0 0.0 -1.0 -129.0H276.0V0.0ZM454.0 101.0C402.0 -120.0 293.0 -294.0 121.0 -388.0C150.0 -416.0 193.0 -473.0 211.0 -507.0C400.0 -387.0 520.0 -188.0 586.0 73.0Z"/></g>
<g fill="red" transform="translate(900 1400) scale(0.1 -0.1)"><path d="M0.0 0.0V-30.0H604.0V0.0ZM234.0 210.0C194.0 -57.0 124.0 -278.0 -20.0 -415.0C-12.0 -420.0 -1.0 -431.0 4.0 -436.0C148.0 -289.0 221.0 -72.0 264.0 206.0Z"/></g>
<g fill="black" opacity=".8" transform="translate(900 1400) scale(0.1 -0.1)"><path d="M0.0 0.0V-31.0H605.0V0.0ZM250.0 214.0C203.0 -53.0 115.0 -274.0 -35.0 -415.0C-28.0 -421.0 -15.0 -431.0 -10.0 -436.0C140.0 -289.0 230.0 -69.0 280.0 209.0Z"/></g>
<g fill="red" transform="translate(1000 1400) scale(0.1 -0.1)"><path d="M0.0 0.0V-144.0H615.0V0.0ZM208.0 190.0C168.0 -56.0 83.0 -267.0 -66.0 -388.0C-33.0 -415.0 24.0 -475.0 45.0 -505.0C207.0 -358.0 307.0 -114.0 360.0 167.0Z"/></g>
<g fill="black" opacity=".8" transform="translate(1000 1400) scale(0.1 -0.1)"><path d="M0.0 0.0 -1.0 -135.0H615.0V0.0ZM200.0 185.0C164.0 -56.0 85.0 -274.0 -51.0 -395.0C-19.0 -420.0 38.0 -472.0 60.0 -501.0C206.0 -355.0 296.0 -114.0 344.0 162.0Z"/></g>
<g fill="red" transform="translate(1100 1400) scale(0.1 -0.1)"><path d="M0.0 0.0V-29.0H822.0V0.0ZM311.0 108.0C269.0 -101.0 172.0 -310.0 -26.0 -432.0C-18.0 -437.0 -6.0 -446.0 -2.0 -451.0C196.0 -327.0 295.0 -113.0 343.0 101.0Z"/></g>
<g fill="black" opacity=".8" transform="translate(1100 1400) scale(0.1 -0.1)"><path d="M0.0 0.0 1.0 -27.0H832.0V0.0ZM310.0 99.0C263.0 -100.0 165.0 -313.0 -20.0 -431.0C-14.0 -436.0 -4.0 -445.0 -0.0 -450.0C188.0 -328.0 286.0 -113.0 337.0 94.0Z"/></g>
<g fill="red" transform="translate(1200 1400) scale(0.1 -0.1)"><path d="M0.0 0.0V-113.0H869.0V0.0ZM276.0 69.0C241.0 -117.0 152.0 -313.0 -32.0 -412.0C-1.0 -433.0 47.0 -478.0 70.0 -505.0C263.0 -390.0 364.0 -173.0 418.0 45.0Z"/></g>
<g fill="black" opacity=".8" transform="translate(1200 1400) scale(0.1 -0.1)"><path d="M0.0 0.0 -1.0 -114.0H860.0V0.0ZM286.0 77.0C244.0 -115.0 154.0 -307.0 -29.0 -410.0C1.0 -436.0 45.0 -482.0 64.0 -512.0C263.0 -388.0 366.0 -174.0 424.0 52.0Z"/></g>
<g fill="red" transform="translate(1300 1400) scale(0.1 -0.1)"><path d="M0.0 0.0V-29.0H521.0V0.0ZM211.0 190.0C179.0 -103.0 116.0 -337.0 -35.0 -484.0C-27.0 -489.0 -14.0 -499.0 -9.0 -504.0C142.0 -348.0 206.0 -118.0 242.0 187.0Z"/></g>
<g fill="black" opacity=".8" transform="translate(1300 1400) scale(0.1 -0.1)"><path d="M0.0 0.0V-28.0H529.0V0.0ZM215.0 200.0C178.0 -94.0 109.0 -336.0 -38.0 -485.0C-32.0 -491.0 -20.0 -500.0 -15.0 -504.0C133.0 -347.0 203.0 -108.0 243.0 198.0Z"/></g>
<g fill="red" transform="translate(1400 1400) scale(0.1 -0.1)"><path d="M0.0 0.0V-131.0H545.0V0.0ZM152.0 175.0C132.0 -106.0 82.0 -344.0 -63.0 -479.0C-32.0 -505.0 21.0 -564.0 40.0 -593.0C201.0 -428.0 266.0 -160.0 295.0 164.0Z"/></g>
<g fill="black" opacity=".8" transform="translate(1400 1400) scale(0.1 -0.1)"><path d="M0.0 0.0 -1.0 -126.0H538.0V0.0ZM164.0 167.0C137.0 -116.0 78.0 -352.0 -56.0 -486.0C-26.0 -509.0 28.0 -559.0 47.0 -586.0C193.0 -426.0 262.0 -165.0 297.0 153.0Z"/></g>
<g fill="red" transform="translate(1500 1400) scale(0.1 -0.1)"><path d="M0.0 0.0V-30.0H513.0V0.0ZM172.0 131.0C139.0 -131.0 81.0 -362.0 -36.0 -511.0C-28.0 -515.0 -15.0 -525.0 -9.0 -529.0C106.0 -373.0 165.0 -144.0 202.0 127.0Z"/></g>
<g fill="black" opacity=".8" transform="translate(1500 1400) scale(0.1 -0.1)"><path d="M0.0 0.0 1.0 -29.0H521.0V0.0ZM165.0 140.0C135.0 -129.0 81.0 -363.0 -35.0 -510.0C-29.0 -515.0 -16.0 -524.0 -11.0 -528.0C106.0 -374.0 161.0 -143.0 194.0 137.0Z"/></g>
<g fill="red" transform="translate(1600 1400) scale(0.1 -0.1)"><path d="M0.0 0.0V-130.0H533.0V0.0ZM106.0 105.0C87.0 -148.0 42.0 -381.0 -61.0 -515.0C-29.0 -531.0 34.0 -571.0 57.0 -592.0C161.0 -436.0 214.0 -186.0 240.0 92.0Z"/></g>
<g fill="black" opacity=".8" transform="translate(1600 1400) scale(0.1 -0.1)"><path d="M0.0 0.0V-130.0H526.0V0.0ZM109.0 99.0C90.0 -152.0 45.0 -377.0 -58.0 -507.0C-26.0 -527.0 33.0 -573.0 54.0 -597.0C164.0 -443.0 217.0 -196.0 244.0 85.0Z"/></g>
<g fill="red" transform="translate(100 1500) scale(0.1 -0.1)"><path d="M0.0 0.0V-29.0H363.0V0.0ZM772.0 138.0C724.0 -113.0 636.0 -313.0 479.0 -438.0C486.0 -444.0 499.0 -454.0 504.0 -460.0C660.0 -328.0 752.0 -129.0 803.0 134.0Z"/></g>
<g fill="black" opacity=".8" transform="translate(100 1500) scale(0.1 -0.1)"><path d="M0.0 0.0V-28.0H364.0V0.0ZM783.0 137.0C731.0 -108.0 632.0 -322.0 471.0 -434.0C477.0 -441.0 489.0 -450.0 493.0 -456.0C654.0 -336.0 755.0 -124.0 809.0 133.0Z"/></g>
<g fill="red" transform="translate(200 1500) scale(0.1 -0.1)"><path d="M0.0 0.0V-103.0H320.0V0.0ZM708.0 100.0C668.0 -131.0 581.0 -317.0 429.0 -425.0C453.0 -445.0 496.0 -490.0 512.0 -513.0C673.0 -385.0 771.0 -178.0 821.0 82.0Z"/></g>
<g fill="black" opacity=".8" transform="translate(200 1500) scale(0.1 -0.1)"><path d="M0.0 0.0V-98.0H320.0V0.0ZM700.0 102.0C660.0 -134.0 579.0 -318.0 436.0 -423.0C465.0 -445.0 508.0 -488.0 525.0 -516.0C676.0 -389.0 765.0 -185.0 814.0 84.0Z"/></g>
</svg>
