<?xml version="1.0" encoding="UTF-8"?>
<svg width="1700" height="1100" xmlns="http://www.w3.org/2000/svg">
<rect width="100%" height="100%" fill="white"/>
<g fill="green" transform="translate(100 100) scale(0.1 -0.1)"><path d="M0.0 -0.0C-44.0 -31.0 -127.0 -65.0 -199.0 -90.0C-196.0 -97.0 -191.0 -104.0 -189.0 -111.0C-115.0 -87.0 -30.0 -55.0 25.0 -19.0L0.0 -0.0ZM-95.0 -64.0V-331.0C-95.0 -421.0 -98.0 -546.0 -94.0 -644.0C-88.0 -646.0 -76.0 -653.0 -72.0 -658.0C-76.0 -559.0 -69.0 -420.0 -69.0 -331.0V-64.0H-95.0Z"/></g>
<g fill="green" transform="translate(200 100) scale(0.1 -0.1)"><path d="M0.0 0.0C-49.0 -27.0 -120.0 -56.0 -186.0 -73.0C-172.0 -99.0 -155.0 -141.0 -149.0 -167.0C-72.0 -152.0 15.0 -127.0 91.0 -95.0L0.0 0.0ZM-74.0 -28.0V-187.0C-74.0 -288.0 -67.0 -451.0 -58.0 -581.0C-31.0 -587.0 33.0 -618.0 57.0 -633.0C48.0 -497.0 49.0 -291.0 49.0 -187.0V-28.0H-74.0Z"/></g>
<g fill="green" transform="translate(300 100) scale(0.1 -0.1)"><path d="M0.0 -0.0C-106.0 -56.0 -311.0 -113.0 -483.0 -153.0C-476.0 -166.0 -467.0 -181.0 -464.0 -194.0C-289.0 -156.0 -82.0 -101.0 45.0 -37.0L0.0 0.0ZM-391.0 -126.0V-597.0C-391.0 -794.0 -403.0 -1057.0 -472.0 -1258.0C-461.0 -1263.0 -439.0 -1277.0 -432.0 -1287.0C-360.0 -1082.0 -342.0 -797.0 -342.0 -597.0V-126.0H-391.0Z"/></g>
<g fill="green" transform="translate(400 100) scale(0.1 -0.1)"><path d="M0.0 0.0C-120.0 -54.0 -301.0 -105.0 -469.0 -134.0C-443.0 -184.0 -412.0 -266.0 -402.0 -316.0C-218.0 -292.0 -6.0 -247.0 166.0 -182.0L0.0 0.0ZM-370.0 -89.0V-462.0C-370.0 -665.0 -369.0 -967.0 -429.0 -1191.0C-378.0 -1209.0 -271.0 -1274.0 -229.0 -1308.0C-159.0 -1067.0 -145.0 -688.0 -145.0 -462.0V-89.0H-370.0Z"/></g>
<g fill="green" transform="translate(500 100) scale(0.1 -0.1)"><path d="M0.0 0.0C-91.0 -27.0 -278.0 -46.0 -426.0 -56.0C-423.0 -63.0 -419.0 -71.0 -419.0 -78.0C-267.0 -68.0 -80.0 -50.0 25.0 -19.0L0.0 0.0ZM-469.0 -4.0V-87.0C-469.0 -132.0 -477.0 -197.0 -515.0 -244.0C-510.0 -246.0 -499.0 -253.0 -495.0 -258.0C-457.0 -211.0 -443.0 -134.0 -443.0 -88.0V-4.0H-469.0Z"/></g>
<g fill="green" transform="translate(600 100) scale(0.1 -0.1)"><path d="M0.0 0.0C-112.0 -21.0 -286.0 -28.0 -444.0 -27.0C-430.0 -54.0 -413.0 -100.0 -409.0 -128.0C-242.0 -132.0 -48.0 -122.0 103.0 -92.0L0.0 0.0ZM-491.0 42.0V130.0C-491.0 71.0 -490.0 -47.0 -516.0 -144.0C-483.0 -151.0 -412.0 -178.0 -384.0 -192.0C-360.0 -88.0 -351.0 61.0 -351.0 128.0V42.0H-491.0Z"/></g>
<g fill="green" transform="translate(700 100) scale(0.1 -0.1)"><path d="M0.0 0.0C22.0 -6.0 79.0 -22.0 118.0 -37.0C117.0 -42.0 121.0 -43.0 123.0 -48.0C85.0 -34.0 31.0 -18.0 12.0 -8.0L0.0 0.0ZM-183.0 67.0V-324.0C-183.0 -420.0 -174.0 -571.0 -143.0 -675.0C-140.0 -676.0 -132.0 -680.0 -131.0 -681.0C-165.0 -575.0 -170.0 -414.0 -170.0 -322.0V67.0H-183.0Z"/></g>
<g fill="green" transform="translate(800 100) scale(0.1 -0.1)"><path d="M0.0 0.0C34.0 -5.0 107.0 -17.0 168.0 -26.0C176.0 -44.0 185.0 -66.0 189.0 -81.0C134.0 -76.0 68.0 -69.0 31.0 -65.0L0.0 0.0ZM-155.0 96.0V-223.0C-155.0 -339.0 -144.0 -526.0 -109.0 -654.0C-100.0 -654.0 -73.0 -666.0 -63.0 -670.0C-102.0 -539.0 -106.0 -325.0 -106.0 -219.0V96.0H-155.0Z"/></g>
<g fill="green" transform="translate(900 100) scale(0.1 -0.1)"><path d="M0.0 0.0C-40.0 -26.0 -98.0 -67.0 -159.0 -99.0C-154.0 -108.0 -148.0 -117.0 -145.0 -125.0C-82.0 -94.0 -23.0 -55.0 32.0 -24.0L0.0 0.0ZM-82.0 -203.0V-444.0C-82.0 -479.0 -84.0 -514.0 -140.0 -525.0C-132.0 -531.0 -122.0 -542.0 -119.0 -551.0C-57.0 -531.0 -50.0 -487.0 -50.0 -443.0V-203.0H-82.0Z"/></g>
<g fill="green" transform="translate(1000 100) scale(0.1 -0.1)"><path d="M0.0 0.0C-48.0 -22.0 -110.0 -59.0 -162.0 -86.0C-151.0 -111.0 -133.0 -153.0 -125.0 -178.0C-63.0 -155.0 9.0 -125.0 81.0 -105.0L0.0 0.0ZM-82.0 -228.0V-468.0C-82.0 -485.0 -87.0 -462.0 -117.0 -449.0C-93.0 -470.0 -47.0 -518.0 -30.0 -545.0C26.0 -538.0 38.0 -525.0 38.0 -471.0V-228.0H-82.0Z"/></g>
<g fill="green" transform="translate(1100 100) scale(0.1 -0.1)"><path d="M0.0 0.0C-37.0 -23.0 -119.0 -39.0 -183.0 -49.0C-181.0 -54.0 -177.0 -60.0 -176.0 -65.0C-111.0 -56.0 -28.0 -41.0 16.0 -15.0L0.0 -0.0ZM-54.0 -46.0V-327.0C-54.0 -418.0 -56.0 -540.0 -37.0 -639.0C-32.0 -640.0 -23.0 -644.0 -19.0 -646.0C-39.0 -548.0 -35.0 -416.0 -35.0 -326.0V-46.0H-54.0Z"/></g>
<g fill="green" transform="translate(1200 100) scale(0.1 -0.1)"><path d="M0.0 0.0C-68.0 -15.0 -154.0 -23.0 -230.0 -25.0C-223.0 -47.0 -215.0 -77.0 -214.0 -98.0C-139.0 -101.0 -52.0 -97.0 19.0 -84.0L0.0 0.0ZM-92.0 -11.0V-207.0C-92.0 -311.0 -84.0 -486.0 -71.0 -610.0C-55.0 -613.0 -13.0 -635.0 2.0 -643.0C-12.0 -516.0 -13.0 -311.0 -13.0 -207.0V-11.0H-92.0Z"/></g>
<g fill="green" transform="translate(1300 100) scale(0.1 -0.1)"><path d="M0.0 -0.0C-42.0 -31.0 -115.0 -70.0 -184.0 -99.0C-179.0 -109.0 -172.0 -119.0 -169.0 -128.0C-98.0 -100.0 -22.0 -63.0 37.0 -26.0L0.0 0.0ZM-87.0 -46.0V-251.0C-87.0 -358.0 -91.0 -510.0 -86.0 -638.0C-77.0 -641.0 -61.0 -650.0 -55.0 -658.0C-59.0 -529.0 -51.0 -360.0 -51.0 -251.0V-46.0H-87.0Z"/></g>
<g fill="green" transform="translate(1400 100) scale(0.1 -0.1)"><path d="M0.0 0.0C-51.0 -36.0 -130.0 -78.0 -200.0 -105.0C-184.0 -136.0 -164.0 -188.0 -156.0 -220.0C-73.0 -196.0 23.0 -160.0 104.0 -119.0L0.0 0.0ZM-95.0 -22.0V-209.0C-95.0 -313.0 -91.0 -459.0 -91.0 -582.0C-56.0 -595.0 22.0 -643.0 52.0 -668.0C58.0 -534.0 61.0 -331.0 61.0 -212.0V-22.0H-95.0Z"/></g>
<g fill="green" transform="translate(1500 100) scale(0.1 -0.1)"><path d="M0.0 0.0C-42.0 -33.0 -129.0 -68.0 -204.0 -93.0C-203.0 -96.0 -200.0 -98.0 -199.0 -102.0C-123.0 -76.0 -37.0 -44.0 14.0 -7.0L0.0 0.0ZM-90.0 -115.0V-266.0C-90.0 -365.0 -91.0 -532.0 -108.0 -652.0C-106.0 -652.0 -99.0 -654.0 -97.0 -656.0C-82.0 -537.0 -77.0 -360.0 -77.0 -267.0V-115.0H-90.0Z"/></g>
<g fill="green" transform="translate(1600 100) scale(0.1 -0.1)"><path d="M0.0 0.0C-41.0 -31.0 -103.0 -63.0 -165.0 -81.0C-155.0 -98.0 -141.0 -128.0 -136.0 -146.0C-64.0 -127.0 13.0 -97.0 79.0 -59.0L0.0 0.0ZM-42.0 -104.0V-158.0C-42.0 -274.0 -36.0 -490.0 -40.0 -649.0C-23.0 -645.0 17.0 -648.0 33.0 -650.0C23.0 -494.0 24.0 -255.0 24.0 -155.0V-104.0H-42.0Z"/></g>
<g fill="green" transform="translate(100 200) scale(0.1 -0.1)"><path d="M0.0 -0.0C-50.0 -33.0 -152.0 -61.0 -232.0 -81.0C-230.0 -87.0 -226.0 -92.0 -225.0 -98.0C-144.0 -79.0 -41.0 -52.0 14.0 -17.0L0.0 0.0ZM-112.0 -33.0V-318.0C-112.0 -410.0 -115.0 -514.0 -103.0 -604.0C-98.0 -606.0 -87.0 -611.0 -84.0 -615.0C-97.0 -524.0 -92.0 -411.0 -92.0 -318.0V-33.0H-112.0Z"/></g>
<g fill="green" transform="translate(200 200) scale(0.1 -0.1)"><path d="M0.0 0.0C-44.0 -28.0 -113.0 -53.0 -178.0 -67.0C-165.0 -89.0 -148.0 -125.0 -143.0 -148.0C-68.0 -135.0 18.0 -113.0 89.0 -79.0L0.0 0.0ZM-48.0 10.0V-232.0C-48.0 -335.0 -42.0 -490.0 -26.0 -610.0C-2.0 -614.0 50.0 -635.0 72.0 -648.0C59.0 -522.0 56.0 -336.0 56.0 -231.0V10.0H-48.0Z"/></g>
<g fill="green" transform="translate(300 200) scale(0.1 -0.1)"><path d="M0.0 0.0C-45.0 -27.0 -129.0 -55.0 -200.0 -75.0C-197.0 -82.0 -192.0 -89.0 -190.0 -96.0C-118.0 -77.0 -31.0 -51.0 24.0 -20.0L0.0 0.0ZM-74.0 -47.0V-320.0C-74.0 -424.0 -85.0 -551.0 -133.0 -652.0C-127.0 -655.0 -117.0 -663.0 -113.0 -668.0C-62.0 -566.0 -49.0 -425.0 -49.0 -320.0V-47.0H-74.0Z"/></g>
<g fill="green" transform="translate(400 200) scale(0.1 -0.1)"><path d="M0.0 0.0C-42.0 -26.0 -116.0 -52.0 -185.0 -67.0C-172.0 -91.0 -157.0 -131.0 -151.0 -155.0C-69.0 -140.0 25.0 -116.0 100.0 -80.0L0.0 0.0ZM-49.0 -17.0V-179.0C-49.0 -287.0 -50.0 -438.0 -100.0 -561.0C-73.0 -573.0 -12.0 -617.0 11.0 -639.0C67.0 -507.0 79.0 -300.0 79.0 -180.0V-17.0H-49.0Z"/></g>
<g fill="red" transform="translate(100 300) scale(0.1 -0.1)"><path d="M0.0 0.0C-71.0 -19.0 -209.0 -34.0 -318.0 -42.0C-315.0 -50.0 -310.0 -60.0 -309.0 -68.0C-196.0 -62.0 -57.0 -46.0 26.0 -23.0L0.0 0.0ZM-754.0 120.0V-183.0C-754.0 -332.0 -761.0 -534.0 -846.0 -682.0C-839.0 -685.0 -826.0 -694.0 -821.0 -700.0C-736.0 -548.0 -724.0 -335.0 -724.0 -183.0V120.0H-754.0Z"/></g>
<g fill="black" opacity=".8" transform="translate(100 300) scale(0.1 -0.1)"><path d="M0.0 0.0C-71.0 -18.0 -209.0 -31.0 -318.0 -37.0C-316.0 -48.0 -309.0 -56.0 -309.0 -65.0C-197.0 -59.0 -58.0 -45.0 26.0 -24.0L0.0 0.0ZM-755.0 121.0V-181.0C-755.0 -331.0 -762.0 -533.0 -846.0 -682.0C-839.0 -686.0 -825.0 -695.0 -821.0 -701.0C-736.0 -549.0 -724.0 -335.0 -724.0 -180.0V121.0H-755.0Z"/></g>
<g fill="red" transform="translate(200 300) scale(0.1 -0.1)"><path d="M0.0 0.0C-75.0 -25.0 -189.0 -38.0 -297.0 -42.0C-280.0 -76.0 -262.0 -129.0 -258.0 -163.0C-142.0 -163.0 -5.0 -151.0 100.0 -116.0L0.0 0.0ZM-764.0 152.0V-140.0C-764.0 -296.0 -770.0 -520.0 -856.0 -670.0C-823.0 -684.0 -762.0 -725.0 -737.0 -748.0C-642.0 -583.0 -626.0 -314.0 -626.0 -140.0V152.0H-764.0Z"/></g>
<g fill="black" opacity=".8" transform="translate(200 300) scale(0.1 -0.1)"><path d="M0.0 0.0C-75.0 -25.0 -189.0 -35.0 -297.0 -38.0C-281.0 -72.0 -262.0 -127.0 -257.0 -161.0C-141.0 -164.0 -3.0 -153.0 101.0 -119.0L0.0 0.0ZM-766.0 150.0V-140.0C-766.0 -296.0 -772.0 -519.0 -855.0 -668.0C-821.0 -683.0 -760.0 -724.0 -732.0 -749.0C-641.0 -584.0 -623.0 -316.0 -623.0 -140.0V150.0H-766.0Z"/></g>
<g fill="red" transform="translate(300 300) scale(0.1 -0.1)"><path d="M0.0 0.0C-93.0 -38.0 -278.0 -72.0 -433.0 -95.0C-428.0 -102.0 -423.0 -112.0 -422.0 -119.0C-264.0 -97.0 -80.0 -63.0 31.0 -21.0L0.0 0.0ZM-433.0 -95.0V-365.0C-433.0 -520.0 -444.0 -733.0 -544.0 -889.0C-537.0 -892.0 -524.0 -898.0 -518.0 -904.0C-417.0 -747.0 -404.0 -524.0 -404.0 -365.0V-95.0H-433.0Z"/></g>
<g fill="black" opacity=".8" transform="translate(300 300) scale(0.1 -0.1)"><path d="M0.0 0.0C-92.0 -37.0 -279.0 -68.0 -430.0 -86.0C-426.0 -95.0 -419.0 -105.0 -418.0 -113.0C-266.0 -95.0 -79.0 -65.0 28.0 -24.0L0.0 0.0ZM-436.0 -94.0V-362.0C-436.0 -519.0 -447.0 -731.0 -548.0 -888.0C-541.0 -892.0 -528.0 -900.0 -523.0 -906.0C-420.0 -747.0 -404.0 -523.0 -404.0 -362.0V-94.0H-436.0Z"/></g>
<g fill="red" transform="translate(400 300) scale(0.1 -0.1)"><path d="M0.0 0.0C-113.0 -37.0 -287.0 -69.0 -447.0 -86.0C-431.0 -118.0 -411.0 -173.0 -405.0 -208.0C-237.0 -192.0 -43.0 -163.0 112.0 -118.0L0.0 0.0ZM-447.0 -86.0V-347.0C-447.0 -505.0 -455.0 -732.0 -556.0 -887.0C-526.0 -900.0 -471.0 -933.0 -448.0 -954.0C-341.0 -787.0 -323.0 -521.0 -323.0 -347.0V-86.0H-447.0Z"/></g>
<g fill="black" opacity=".8" transform="translate(400 300) scale(0.1 -0.1)"><path d="M0.0 0.0C-114.0 -38.0 -287.0 -65.0 -445.0 -79.0C-431.0 -113.0 -412.0 -168.0 -407.0 -203.0C-243.0 -194.0 -51.0 -169.0 95.0 -123.0L0.0 0.0ZM-452.0 -92.0V-346.0C-452.0 -501.0 -459.0 -728.0 -554.0 -882.0C-521.0 -896.0 -462.0 -938.0 -437.0 -961.0C-333.0 -795.0 -315.0 -522.0 -315.0 -347.0V-92.0H-452.0Z"/></g>
<g fill="red" transform="translate(500 300) scale(0.1 -0.1)"><path d="M0.0 0.0C-92.0 -43.0 -289.0 -70.0 -439.0 -84.0C-436.0 -91.0 -431.0 -102.0 -430.0 -109.0C-278.0 -96.0 -80.0 -70.0 19.0 -24.0L0.0 0.0ZM-439.0 -84.0V-390.0C-439.0 -534.0 -451.0 -721.0 -561.0 -857.0C-554.0 -860.0 -542.0 -868.0 -537.0 -874.0C-426.0 -736.0 -410.0 -538.0 -410.0 -391.0V-84.0H-439.0Z"/></g>
<g fill="black" opacity=".8" transform="translate(500 300) scale(0.1 -0.1)"><path d="M0.0 0.0C-94.0 -38.0 -289.0 -66.0 -442.0 -82.0C-439.0 -90.0 -434.0 -98.0 -433.0 -105.0C-279.0 -89.0 -85.0 -62.0 21.0 -22.0L0.0 0.0ZM-440.0 -82.0V-387.0C-440.0 -535.0 -452.0 -723.0 -552.0 -861.0C-546.0 -864.0 -535.0 -872.0 -531.0 -877.0C-429.0 -736.0 -414.0 -539.0 -414.0 -387.0V-82.0H-440.0Z"/></g>
<g fill="red" transform="translate(600 300) scale(0.1 -0.1)"><path d="M0.0 0.0C-103.0 -39.0 -271.0 -60.0 -424.0 -67.0C-409.0 -97.0 -392.0 -145.0 -388.0 -176.0C-230.0 -172.0 -43.0 -153.0 89.0 -103.0L0.0 0.0ZM-424.0 -67.0V-331.0C-424.0 -486.0 -431.0 -711.0 -518.0 -864.0C-486.0 -877.0 -427.0 -912.0 -402.0 -933.0C-308.0 -767.0 -293.0 -502.0 -293.0 -331.0V-67.0H-424.0Z"/></g>
<g fill="black" opacity=".8" transform="translate(600 300) scale(0.1 -0.1)"><path d="M0.0 0.0C-106.0 -35.0 -271.0 -58.0 -423.0 -67.0C-409.0 -98.0 -390.0 -149.0 -386.0 -181.0C-226.0 -174.0 -41.0 -153.0 101.0 -108.0L0.0 0.0ZM-421.0 -69.0V-334.0C-421.0 -486.0 -428.0 -710.0 -518.0 -861.0C-488.0 -873.0 -434.0 -908.0 -410.0 -929.0C-311.0 -766.0 -294.0 -502.0 -294.0 -334.0V-69.0H-421.0Z"/></g>
<g fill="red" transform="translate(700 300) scale(0.1 -0.1)"><path d="M0.0 0.0C-82.0 -35.0 -241.0 -72.0 -375.0 -97.0C-371.0 -104.0 -366.0 -114.0 -364.0 -121.0C-227.0 -97.0 -68.0 -60.0 31.0 -21.0L0.0 0.0ZM-376.0 -97.0V-352.0C-376.0 -504.0 -387.0 -712.0 -483.0 -866.0C-476.0 -869.0 -464.0 -878.0 -459.0 -885.0C-360.0 -726.0 -347.0 -508.0 -347.0 -352.0V-97.0H-376.0Z"/></g>
<g fill="black" opacity=".8" transform="translate(700 300) scale(0.1 -0.1)"><path d="M0.0 0.0C-81.0 -38.0 -241.0 -75.0 -374.0 -101.0C-369.0 -110.0 -363.0 -118.0 -361.0 -127.0C-228.0 -102.0 -68.0 -66.0 28.0 -24.0L0.0 0.0ZM-374.0 -98.0V-354.0C-374.0 -507.0 -385.0 -710.0 -486.0 -861.0C-479.0 -865.0 -465.0 -874.0 -461.0 -881.0C-357.0 -727.0 -343.0 -512.0 -343.0 -355.0V-98.0H-374.0Z"/></g>
<g fill="red" transform="translate(800 300) scale(0.1 -0.1)"><path d="M0.0 0.0C-87.0 -42.0 -221.0 -81.0 -347.0 -105.0C-329.0 -136.0 -308.0 -191.0 -301.0 -225.0C-165.0 -203.0 -9.0 -168.0 116.0 -117.0L0.0 0.0ZM-348.0 -105.0V-383.0C-348.0 -526.0 -355.0 -726.0 -448.0 -860.0C-415.0 -876.0 -353.0 -922.0 -329.0 -948.0C-223.0 -798.0 -205.0 -548.0 -205.0 -384.0V-105.0H-348.0Z"/></g>
<g fill="black" opacity=".8" transform="translate(800 300) scale(0.1 -0.1)"><path d="M0.0 0.0C-84.0 -43.0 -221.0 -81.0 -347.0 -104.0C-332.0 -136.0 -310.0 -191.0 -302.0 -224.0C-164.0 -204.0 -4.0 -168.0 120.0 -115.0L0.0 0.0ZM-348.0 -103.0V-380.0C-348.0 -526.0 -356.0 -726.0 -448.0 -865.0C-414.0 -881.0 -355.0 -924.0 -328.0 -951.0C-225.0 -797.0 -207.0 -549.0 -207.0 -381.0V-103.0H-348.0Z"/></g>
<g fill="red" transform="translate(900 300) scale(0.1 -0.1)"><path d="M0.0 0.0C-97.0 -40.0 -286.0 -77.0 -440.0 -101.0C-436.0 -108.0 -431.0 -119.0 -430.0 -127.0C-273.0 -105.0 -85.0 -69.0 24.0 -25.0L0.0 0.0ZM-440.0 -101.0V-349.0C-440.0 -509.0 -451.0 -727.0 -554.0 -886.0C-547.0 -890.0 -535.0 -898.0 -529.0 -904.0C-423.0 -742.0 -409.0 -513.0 -409.0 -350.0V-101.0H-440.0Z"/></g>
<g fill="black" opacity=".8" transform="translate(900 300) scale(0.1 -0.1)"><path d="M0.0 0.0C-94.0 -39.0 -284.0 -74.0 -439.0 -95.0C-435.0 -104.0 -428.0 -113.0 -427.0 -122.0C-271.0 -100.0 -82.0 -67.0 28.0 -24.0L0.0 0.0ZM-442.0 -103.0V-352.0C-442.0 -509.0 -453.0 -723.0 -554.0 -882.0C-547.0 -886.0 -534.0 -894.0 -529.0 -900.0C-425.0 -739.0 -410.0 -513.0 -410.0 -353.0V-103.0H-442.0Z"/></g>
<g fill="red" transform="translate(1000 300) scale(0.1 -0.1)"><path d="M0.0 0.0C-112.0 -41.0 -283.0 -78.0 -440.0 -99.0C-425.0 -131.0 -404.0 -187.0 -400.0 -221.0C-233.0 -202.0 -43.0 -168.0 109.0 -119.0L0.0 0.0ZM-440.0 -99.0V-355.0C-440.0 -509.0 -448.0 -732.0 -540.0 -884.0C-509.0 -896.0 -454.0 -932.0 -431.0 -953.0C-331.0 -789.0 -315.0 -526.0 -315.0 -355.0V-99.0H-440.0Z"/></g>
<g fill="black" opacity=".8" transform="translate(1000 300) scale(0.1 -0.1)"><path d="M0.0 0.0C-112.0 -41.0 -284.0 -74.0 -441.0 -90.0C-426.0 -124.0 -406.0 -181.0 -400.0 -216.0C-234.0 -203.0 -42.0 -173.0 106.0 -123.0L0.0 0.0ZM-445.0 -104.0V-351.0C-445.0 -505.0 -452.0 -731.0 -545.0 -885.0C-511.0 -899.0 -450.0 -939.0 -424.0 -963.0C-323.0 -796.0 -305.0 -525.0 -305.0 -351.0V-104.0H-445.0Z"/></g>
<g fill="red" transform="translate(1100 300) scale(0.1 -0.1)"><path d="M0.0 0.0C-47.0 -31.0 -143.0 -59.0 -221.0 -77.0C-216.0 -84.0 -211.0 -94.0 -209.0 -102.0C-129.0 -85.0 -32.0 -58.0 24.0 -23.0L0.0 0.0ZM-222.0 -77.0V-383.0C-222.0 -519.0 -230.0 -700.0 -305.0 -833.0C-297.0 -837.0 -286.0 -846.0 -281.0 -852.0C-203.0 -715.0 -193.0 -522.0 -193.0 -383.0V-77.0H-222.0Z"/></g>
<g fill="black" opacity=".8" transform="translate(1100 300) scale(0.1 -0.1)"><path d="M0.0 0.0C-49.0 -25.0 -142.0 -50.0 -220.0 -66.0C-217.0 -75.0 -210.0 -83.0 -208.0 -91.0C-130.0 -75.0 -36.0 -51.0 25.0 -23.0L0.0 0.0ZM-222.0 -72.0V-379.0C-222.0 -520.0 -230.0 -700.0 -306.0 -837.0C-299.0 -841.0 -287.0 -849.0 -283.0 -855.0C-203.0 -715.0 -194.0 -525.0 -194.0 -377.0V-72.0H-222.0Z"/></g>
<g fill="red" transform="translate(1200 300) scale(0.1 -0.1)"><path d="M0.0 0.0C-61.0 -30.0 -154.0 -58.0 -237.0 -74.0C-227.0 -100.0 -216.0 -143.0 -212.0 -170.0C-126.0 -157.0 -24.0 -134.0 54.0 -100.0L0.0 0.0ZM-238.0 -74.0V-440.0C-238.0 -573.0 -245.0 -733.0 -332.0 -838.0C-309.0 -856.0 -267.0 -908.0 -251.0 -935.0C-150.0 -815.0 -134.0 -599.0 -134.0 -441.0V-74.0H-238.0Z"/></g>
<g fill="black" opacity=".8" transform="translate(1200 300) scale(0.1 -0.1)"><path d="M0.0 0.0C-64.0 -29.0 -157.0 -55.0 -240.0 -72.0C-230.0 -100.0 -216.0 -143.0 -211.0 -171.0C-124.0 -159.0 -20.0 -137.0 60.0 -106.0L0.0 0.0ZM-242.0 -81.0V-443.0C-242.0 -574.0 -249.0 -734.0 -328.0 -839.0C-304.0 -857.0 -261.0 -903.0 -243.0 -929.0C-148.0 -809.0 -131.0 -602.0 -131.0 -444.0V-81.0H-242.0Z"/></g>
<g fill="red" transform="translate(1300 300) scale(0.1 -0.1)"><path d="M0.0 0.0C-71.0 -30.0 -207.0 -61.0 -321.0 -83.0C-318.0 -90.0 -313.0 -99.0 -311.0 -106.0C-192.0 -86.0 -57.0 -55.0 29.0 -21.0L0.0 0.0ZM-321.0 -83.0V-388.0C-321.0 -531.0 -331.0 -724.0 -421.0 -864.0C-414.0 -868.0 -402.0 -877.0 -398.0 -883.0C-305.0 -738.0 -292.0 -535.0 -292.0 -388.0V-83.0H-321.0Z"/></g>
<g fill="black" opacity=".8" transform="translate(1300 300) scale(0.1 -0.1)"><path d="M0.0 0.0C-70.0 -34.0 -205.0 -67.0 -318.0 -90.0C-314.0 -98.0 -308.0 -105.0 -306.0 -114.0C-194.0 -91.0 -58.0 -59.0 24.0 -22.0L0.0 0.0ZM-318.0 -88.0V-381.0C-318.0 -531.0 -328.0 -724.0 -430.0 -867.0C-423.0 -871.0 -412.0 -880.0 -408.0 -886.0C-303.0 -739.0 -290.0 -536.0 -290.0 -381.0V-88.0H-318.0Z"/></g>
<g fill="red" transform="translate(1400 300) scale(0.1 -0.1)"><path d="M0.0 0.0C-69.0 -37.0 -180.0 -75.0 -284.0 -98.0C-267.0 -126.0 -247.0 -175.0 -241.0 -204.0C-125.0 -182.0 9.0 -147.0 115.0 -101.0L0.0 0.0ZM-284.0 -98.0V-398.0C-284.0 -543.0 -293.0 -741.0 -399.0 -874.0C-368.0 -888.0 -313.0 -928.0 -290.0 -950.0C-173.0 -804.0 -155.0 -563.0 -155.0 -398.0V-98.0H-284.0Z"/></g>
<g fill="black" opacity=".8" transform="translate(1400 300) scale(0.1 -0.1)"><path d="M0.0 0.0C-68.0 -38.0 -180.0 -72.0 -284.0 -93.0C-271.0 -121.0 -251.0 -171.0 -244.0 -200.0C-129.0 -182.0 4.0 -150.0 108.0 -102.0L0.0 0.0ZM-284.0 -92.0V-401.0C-284.0 -545.0 -293.0 -736.0 -387.0 -868.0C-358.0 -884.0 -307.0 -926.0 -284.0 -952.0C-177.0 -806.0 -158.0 -567.0 -158.0 -401.0V-92.0H-284.0Z"/></g>
<g fill="red" transform="translate(1500 300) scale(0.1 -0.1)"><path d="M0.0 0.0C-80.0 -29.0 -233.0 -55.0 -359.0 -72.0C-354.0 -80.0 -349.0 -90.0 -348.0 -97.0C-220.0 -81.0 -67.0 -55.0 26.0 -24.0L0.0 0.0ZM-359.0 -73.0V-226.0C-359.0 -340.0 -371.0 -469.0 -481.0 -570.0C-473.0 -574.0 -463.0 -582.0 -458.0 -589.0C-343.0 -483.0 -330.0 -351.0 -330.0 -226.0V-73.0H-359.0Z"/></g>
<g fill="black" opacity=".8" transform="translate(1500 300) scale(0.1 -0.1)"><path d="M0.0 0.0C-78.0 -29.0 -233.0 -53.0 -358.0 -68.0C-354.0 -76.0 -348.0 -84.0 -347.0 -92.0C-221.0 -77.0 -67.0 -53.0 24.0 -23.0L0.0 0.0ZM-359.0 -67.0V-223.0C-359.0 -337.0 -372.0 -472.0 -483.0 -575.0C-477.0 -580.0 -466.0 -588.0 -462.0 -595.0C-346.0 -488.0 -331.0 -345.0 -331.0 -223.0V-67.0H-359.0Z"/></g>
<g fill="red" transform="translate(1600 300) scale(0.1 -0.1)"><path d="M0.0 0.0C-83.0 -32.0 -224.0 -59.0 -352.0 -75.0C-339.0 -101.0 -321.0 -149.0 -316.0 -177.0C-176.0 -162.0 -13.0 -135.0 111.0 -93.0L0.0 0.0ZM-353.0 -75.0V-288.0C-353.0 -395.0 -369.0 -504.0 -483.0 -583.0C-451.0 -602.0 -402.0 -647.0 -378.0 -674.0C-246.0 -575.0 -228.0 -430.0 -228.0 -290.0V-75.0H-353.0Z"/></g>
<g fill="black" opacity=".8" transform="translate(1600 300) scale(0.1 -0.1)"><path d="M0.0 0.0C-84.0 -34.0 -225.0 -62.0 -352.0 -78.0C-340.0 -104.0 -323.0 -150.0 -317.0 -178.0C-180.0 -164.0 -20.0 -137.0 100.0 -93.0L0.0 0.0ZM-353.0 -79.0V-295.0C-353.0 -394.0 -367.0 -502.0 -474.0 -576.0C-444.0 -596.0 -396.0 -640.0 -374.0 -669.0C-249.0 -578.0 -227.0 -428.0 -227.0 -298.0V-79.0H-353.0Z"/></g>
<g fill="red" transform="translate(100 400) scale(0.1 -0.1)"><path d="M0.0 0.0C-52.0 -32.0 -158.0 -60.0 -245.0 -78.0C-240.0 -85.0 -235.0 -95.0 -233.0 -102.0C-145.0 -86.0 -36.0 -59.0 25.0 -24.0L0.0 0.0ZM-245.0 -78.0V-384.0C-245.0 -520.0 -252.0 -701.0 -328.0 -834.0C-320.0 -838.0 -308.0 -847.0 -303.0 -853.0C-226.0 -716.0 -215.0 -523.0 -215.0 -384.0V-78.0H-245.0Z"/></g>
<g fill="black" opacity=".8" transform="translate(100 400) scale(0.1 -0.1)"><path d="M0.0 0.0C-54.0 -29.0 -158.0 -56.0 -243.0 -75.0C-240.0 -84.0 -234.0 -91.0 -233.0 -98.0C-147.0 -80.0 -43.0 -53.0 21.0 -22.0L0.0 0.0ZM-241.0 -70.0V-389.0C-241.0 -530.0 -249.0 -699.0 -326.0 -829.0C-319.0 -834.0 -308.0 -841.0 -304.0 -847.0C-225.0 -713.0 -215.0 -535.0 -215.0 -388.0V-70.0H-241.0Z"/></g>
<g fill="red" transform="translate(200 400) scale(0.1 -0.1)"><path d="M0.0 0.0C-56.0 -27.0 -142.0 -54.0 -220.0 -71.0C-206.0 -97.0 -190.0 -139.0 -185.0 -165.0C-101.0 -152.0 -1.0 -130.0 80.0 -98.0L0.0 0.0ZM-220.0 -71.0V-467.0C-220.0 -595.0 -226.0 -751.0 -303.0 -856.0C-277.0 -870.0 -227.0 -911.0 -208.0 -933.0C-117.0 -815.0 -102.0 -614.0 -102.0 -468.0V-71.0H-220.0Z"/></g>
<g fill="black" opacity=".8" transform="translate(200 400) scale(0.1 -0.1)"><path d="M0.0 0.0C-55.0 -32.0 -141.0 -62.0 -219.0 -81.0C-208.0 -107.0 -191.0 -150.0 -186.0 -177.0C-100.0 -161.0 1.0 -135.0 80.0 -98.0L0.0 0.0ZM-217.0 -75.0V-460.0C-217.0 -592.0 -224.0 -751.0 -298.0 -856.0C-274.0 -872.0 -232.0 -913.0 -213.0 -938.0C-123.0 -817.0 -108.0 -616.0 -108.0 -461.0V-75.0H-217.0Z"/></g>
<g fill="red" transform="translate(300 400) scale(0.1 -0.1)"><path d="M0.0 0.0C-83.0 -35.0 -244.0 -72.0 -380.0 -97.0C-376.0 -104.0 -371.0 -114.0 -369.0 -121.0C-230.0 -97.0 -69.0 -60.0 32.0 -21.0L0.0 0.0ZM-381.0 -97.0V-352.0C-381.0 -506.0 -394.0 -713.0 -506.0 -866.0C-499.0 -869.0 -488.0 -879.0 -484.0 -885.0C-367.0 -728.0 -351.0 -510.0 -351.0 -352.0V-97.0H-381.0Z"/></g>
<g fill="black" opacity=".8" transform="translate(300 400) scale(0.1 -0.1)"><path d="M0.0 0.0C-83.0 -38.0 -246.0 -74.0 -382.0 -99.0C-377.0 -108.0 -370.0 -117.0 -369.0 -126.0C-233.0 -102.0 -70.0 -66.0 29.0 -25.0L0.0 0.0ZM-382.0 -98.0V-353.0C-382.0 -508.0 -394.0 -711.0 -503.0 -863.0C-496.0 -868.0 -483.0 -877.0 -478.0 -884.0C-365.0 -729.0 -350.0 -513.0 -350.0 -353.0V-98.0H-382.0Z"/></g>
<g fill="red" transform="translate(400 400) scale(0.1 -0.1)"><path d="M0.0 0.0C-91.0 -42.0 -232.0 -81.0 -364.0 -105.0C-345.0 -136.0 -323.0 -191.0 -316.0 -225.0C-173.0 -203.0 -9.0 -168.0 122.0 -116.0L0.0 0.0ZM-365.0 -105.0V-383.0C-365.0 -526.0 -372.0 -726.0 -469.0 -860.0C-435.0 -876.0 -370.0 -922.0 -345.0 -948.0C-233.0 -798.0 -215.0 -548.0 -215.0 -384.0V-105.0H-365.0Z"/></g>
<g fill="black" opacity=".8" transform="translate(400 400) scale(0.1 -0.1)"><path d="M0.0 0.0C-87.0 -43.0 -229.0 -81.0 -361.0 -104.0C-345.0 -136.0 -323.0 -192.0 -316.0 -226.0C-173.0 -206.0 -7.0 -170.0 121.0 -116.0L0.0 0.0ZM-361.0 -104.0V-380.0C-361.0 -526.0 -371.0 -723.0 -472.0 -860.0C-438.0 -877.0 -377.0 -923.0 -350.0 -952.0C-237.0 -799.0 -216.0 -552.0 -216.0 -380.0V-104.0H-361.0Z"/></g>
<g fill="red" transform="translate(500 400) scale(0.1 -0.1)"><path d="M0.0 0.0C-98.0 -44.0 -309.0 -70.0 -468.0 -82.0C-464.0 -88.0 -460.0 -99.0 -459.0 -107.0C-298.0 -96.0 -86.0 -71.0 19.0 -25.0L0.0 0.0ZM-469.0 -82.0V-331.0C-469.0 -489.0 -483.0 -700.0 -602.0 -855.0C-594.0 -858.0 -583.0 -866.0 -578.0 -871.0C-459.0 -715.0 -441.0 -494.0 -441.0 -332.0V-82.0H-469.0Z"/></g>
<g fill="black" opacity=".8" transform="translate(500 400) scale(0.1 -0.1)"><path d="M0.0 0.0C-99.0 -38.0 -307.0 -64.0 -470.0 -79.0C-467.0 -86.0 -461.0 -94.0 -461.0 -102.0C-297.0 -87.0 -90.0 -62.0 22.0 -22.0L0.0 0.0ZM-467.0 -76.0V-334.0C-467.0 -493.0 -481.0 -700.0 -597.0 -854.0C-591.0 -858.0 -580.0 -865.0 -576.0 -870.0C-458.0 -714.0 -441.0 -497.0 -441.0 -334.0V-76.0H-467.0Z"/></g>
<g fill="red" transform="translate(600 400) scale(0.1 -0.1)"><path d="M0.0 0.0C-110.0 -44.0 -295.0 -62.0 -462.0 -65.0C-447.0 -95.0 -432.0 -145.0 -430.0 -176.0C-259.0 -176.0 -55.0 -158.0 85.0 -103.0L0.0 0.0ZM-462.0 -65.0V-294.0C-462.0 -454.0 -471.0 -691.0 -578.0 -850.0C-547.0 -864.0 -489.0 -908.0 -466.0 -933.0C-350.0 -760.0 -330.0 -473.0 -330.0 -294.0V-65.0H-462.0Z"/></g>
<g fill="black" opacity=".8" transform="translate(600 400) scale(0.1 -0.1)"><path d="M0.0 0.0C-115.0 -38.0 -296.0 -60.0 -464.0 -70.0C-450.0 -101.0 -432.0 -153.0 -427.0 -185.0C-253.0 -179.0 -50.0 -156.0 102.0 -107.0L0.0 0.0ZM-461.0 -68.0V-295.0C-461.0 -455.0 -470.0 -694.0 -579.0 -856.0C-548.0 -869.0 -493.0 -905.0 -469.0 -927.0C-353.0 -754.0 -332.0 -472.0 -332.0 -294.0V-68.0H-461.0Z"/></g>
<g fill="red" transform="translate(700 400) scale(0.1 -0.1)"><path d="M0.0 0.0C-81.0 -35.0 -240.0 -72.0 -374.0 -97.0C-370.0 -104.0 -365.0 -114.0 -363.0 -121.0C-226.0 -97.0 -67.0 -60.0 31.0 -21.0L0.0 0.0ZM-374.0 -97.0V-352.0C-374.0 -504.0 -384.0 -712.0 -480.0 -866.0C-473.0 -869.0 -461.0 -878.0 -457.0 -885.0C-359.0 -726.0 -345.0 -508.0 -345.0 -352.0V-97.0H-374.0Z"/></g>
<g fill="black" opacity=".8" transform="translate(700 400) scale(0.1 -0.1)"><path d="M0.0 0.0C-81.0 -36.0 -241.0 -70.0 -375.0 -93.0C-370.0 -102.0 -363.0 -112.0 -361.0 -121.0C-227.0 -99.0 -67.0 -66.0 31.0 -26.0L0.0 0.0ZM-376.0 -100.0V-350.0C-376.0 -502.0 -386.0 -710.0 -481.0 -866.0C-474.0 -870.0 -460.0 -879.0 -455.0 -886.0C-356.0 -728.0 -342.0 -508.0 -342.0 -349.0V-100.0H-376.0Z"/></g>
<g fill="red" transform="translate(800 400) scale(0.1 -0.1)"><path d="M0.0 0.0C-103.0 -43.0 -250.0 -83.0 -388.0 -106.0C-372.0 -138.0 -352.0 -189.0 -346.0 -223.0C-203.0 -203.0 -41.0 -170.0 89.0 -122.0L0.0 0.0ZM-389.0 -106.0V-386.0C-389.0 -529.0 -396.0 -730.0 -489.0 -865.0C-457.0 -881.0 -396.0 -927.0 -371.0 -952.0C-266.0 -801.0 -248.0 -550.0 -248.0 -386.0V-106.0H-389.0Z"/></g>
<g fill="black" opacity=".8" transform="translate(800 400) scale(0.1 -0.1)"><path d="M0.0 0.0C-99.0 -40.0 -250.0 -75.0 -388.0 -95.0C-373.0 -129.0 -353.0 -185.0 -347.0 -220.0C-201.0 -204.0 -32.0 -173.0 99.0 -125.0L0.0 0.0ZM-390.0 -107.0V-384.0C-390.0 -529.0 -398.0 -728.0 -488.0 -863.0C-454.0 -881.0 -394.0 -927.0 -368.0 -954.0C-266.0 -803.0 -248.0 -556.0 -248.0 -386.0V-107.0H-390.0Z"/></g>
<g fill="red" transform="translate(900 400) scale(0.1 -0.1)"><path d="M0.0 0.0C-99.0 -42.0 -308.0 -75.0 -474.0 -92.0C-469.0 -100.0 -465.0 -111.0 -463.0 -118.0C-294.0 -100.0 -87.0 -69.0 25.0 -23.0L0.0 0.0ZM-474.0 -92.0V-313.0C-474.0 -421.0 -485.0 -563.0 -570.0 -668.0C-563.0 -672.0 -551.0 -681.0 -547.0 -688.0C-459.0 -578.0 -444.0 -426.0 -444.0 -313.0V-92.0H-474.0Z"/></g>
<g fill="black" opacity=".8" transform="translate(900 400) scale(0.1 -0.1)"><path d="M0.0 0.0C-101.0 -37.0 -305.0 -67.0 -469.0 -85.0C-464.0 -94.0 -459.0 -103.0 -458.0 -112.0C-293.0 -94.0 -89.0 -65.0 26.0 -25.0L0.0 0.0ZM-472.0 -93.0V-313.0C-472.0 -425.0 -483.0 -561.0 -579.0 -660.0C-572.0 -665.0 -560.0 -673.0 -556.0 -680.0C-456.0 -578.0 -441.0 -433.0 -441.0 -314.0V-93.0H-472.0Z"/></g>
<g fill="red" transform="translate(1000 400) scale(0.1 -0.1)"><path d="M0.0 0.0C-117.0 -34.0 -295.0 -63.0 -459.0 -80.0C-443.0 -108.0 -423.0 -161.0 -417.0 -192.0C-245.0 -178.0 -46.0 -151.0 113.0 -110.0L0.0 0.0ZM-459.0 -81.0V-300.0C-459.0 -406.0 -467.0 -545.0 -557.0 -641.0C-528.0 -655.0 -472.0 -698.0 -451.0 -720.0C-346.0 -611.0 -327.0 -429.0 -327.0 -301.0V-81.0H-459.0Z"/></g>
<g fill="black" opacity=".8" transform="translate(1000 400) scale(0.1 -0.1)"><path d="M0.0 0.0C-116.0 -35.0 -297.0 -60.0 -461.0 -73.0C-447.0 -104.0 -426.0 -159.0 -420.0 -192.0C-247.0 -184.0 -45.0 -159.0 110.0 -116.0L0.0 0.0ZM-466.0 -86.0V-294.0C-466.0 -402.0 -474.0 -547.0 -556.0 -647.0C-522.0 -663.0 -462.0 -703.0 -435.0 -728.0C-339.0 -613.0 -322.0 -430.0 -322.0 -295.0V-86.0H-466.0Z"/></g>
<g fill="red" transform="translate(1100 400) scale(0.1 -0.1)"><path d="M0.0 0.0C-73.0 -19.0 -211.0 -35.0 -320.0 -42.0C-316.0 -50.0 -311.0 -61.0 -309.0 -68.0C-199.0 -62.0 -61.0 -46.0 21.0 -26.0L0.0 0.0ZM-320.0 -42.0V-310.0C-320.0 -420.0 -329.0 -563.0 -404.0 -668.0C-397.0 -671.0 -387.0 -680.0 -382.0 -687.0C-302.0 -579.0 -291.0 -425.0 -291.0 -310.0V-42.0H-320.0Z"/></g>
<g fill="black" opacity=".8" transform="translate(1100 400) scale(0.1 -0.1)"><path d="M0.0 0.0C-69.0 -26.0 -208.0 -47.0 -319.0 -59.0C-315.0 -67.0 -309.0 -76.0 -308.0 -83.0C-197.0 -72.0 -57.0 -52.0 23.0 -23.0L0.0 0.0ZM-315.0 -49.0V-309.0C-315.0 -425.0 -326.0 -561.0 -405.0 -666.0C-398.0 -670.0 -387.0 -678.0 -383.0 -684.0C-300.0 -576.0 -287.0 -432.0 -287.0 -308.0V-49.0H-315.0Z"/></g>
<g fill="red" transform="translate(1200 400) scale(0.1 -0.1)"><path d="M0.0 0.0C-90.0 -24.0 -218.0 -43.0 -332.0 -53.0C-319.0 -84.0 -303.0 -130.0 -300.0 -161.0C-184.0 -156.0 -46.0 -142.0 63.0 -116.0L0.0 0.0ZM-332.0 -53.0V-314.0C-332.0 -420.0 -338.0 -553.0 -417.0 -644.0C-390.0 -661.0 -337.0 -712.0 -318.0 -738.0C-220.0 -630.0 -202.0 -446.0 -202.0 -315.0V-53.0H-332.0Z"/></g>
<g fill="black" opacity=".8" transform="translate(1200 400) scale(0.1 -0.1)"><path d="M0.0 0.0C-85.0 -27.0 -217.0 -45.0 -334.0 -55.0C-323.0 -83.0 -308.0 -127.0 -304.0 -156.0C-181.0 -150.0 -36.0 -134.0 75.0 -102.0L0.0 0.0ZM-331.0 -42.0V-312.0C-331.0 -422.0 -339.0 -556.0 -418.0 -647.0C-391.0 -665.0 -341.0 -710.0 -320.0 -735.0C-225.0 -628.0 -208.0 -451.0 -208.0 -314.0V-42.0H-331.0Z"/></g>
<g fill="red" transform="translate(1300 400) scale(0.1 -0.1)"><path d="M0.0 0.0C-57.0 -20.0 -168.0 -35.0 -259.0 -44.0C-254.0 -52.0 -249.0 -62.0 -247.0 -69.0C-155.0 -62.0 -43.0 -45.0 26.0 -23.0L0.0 0.0ZM-260.0 -44.0V-277.0C-260.0 -438.0 -269.0 -640.0 -339.0 -808.0C-330.0 -812.0 -319.0 -818.0 -313.0 -823.0C-241.0 -652.0 -231.0 -447.0 -231.0 -276.0V-44.0H-260.0Z"/></g>
<g fill="black" opacity=".8" transform="translate(1300 400) scale(0.1 -0.1)"><path d="M0.0 0.0C-54.0 -28.0 -165.0 -50.0 -255.0 -64.0C-252.0 -71.0 -247.0 -77.0 -246.0 -84.0C-157.0 -69.0 -46.0 -47.0 19.0 -18.0L0.0 0.0ZM-257.0 -52.0V-285.0C-257.0 -438.0 -264.0 -643.0 -333.0 -803.0C-327.0 -806.0 -317.0 -811.0 -313.0 -815.0C-243.0 -654.0 -234.0 -442.0 -234.0 -285.0V-52.0H-257.0Z"/></g>
<g fill="red" transform="translate(1400 400) scale(0.1 -0.1)"><path d="M0.0 0.0C-66.0 -31.0 -169.0 -57.0 -262.0 -73.0C-249.0 -99.0 -234.0 -140.0 -229.0 -166.0C-131.0 -154.0 -14.0 -132.0 74.0 -96.0L0.0 0.0ZM-263.0 -73.0V-390.0C-263.0 -532.0 -271.0 -730.0 -332.0 -863.0C-309.0 -874.0 -273.0 -900.0 -255.0 -917.0C-181.0 -770.0 -171.0 -554.0 -171.0 -390.0V-73.0H-263.0Z"/></g>
<g fill="black" opacity=".8" transform="translate(1400 400) scale(0.1 -0.1)"><path d="M0.0 0.0C-65.0 -34.0 -166.0 -61.0 -258.0 -77.0C-249.0 -101.0 -235.0 -141.0 -231.0 -166.0C-136.0 -154.0 -24.0 -130.0 59.0 -91.0L0.0 0.0ZM-259.0 -62.0V-386.0C-259.0 -532.0 -266.0 -731.0 -339.0 -861.0C-317.0 -873.0 -282.0 -905.0 -265.0 -924.0C-182.0 -783.0 -170.0 -548.0 -170.0 -386.0V-62.0H-259.0Z"/></g>
<g fill="red" transform="translate(1500 400) scale(0.1 -0.1)"><path d="M0.0 0.0C-47.0 -31.0 -142.0 -59.0 -220.0 -77.0C-215.0 -84.0 -210.0 -94.0 -208.0 -102.0C-128.0 -85.0 -31.0 -58.0 25.0 -23.0L0.0 0.0ZM-221.0 -77.0V-383.0C-221.0 -519.0 -229.0 -700.0 -305.0 -833.0C-297.0 -837.0 -285.0 -846.0 -280.0 -852.0C-203.0 -715.0 -192.0 -522.0 -192.0 -383.0V-77.0H-221.0Z"/></g>
<g fill="black" opacity=".8" transform="translate(1500 400) scale(0.1 -0.1)"><path d="M0.0 0.0C-48.0 -25.0 -141.0 -50.0 -219.0 -67.0C-216.0 -76.0 -209.0 -84.0 -207.0 -91.0C-129.0 -75.0 -36.0 -51.0 24.0 -23.0L0.0 0.0ZM-219.0 -71.0V-379.0C-219.0 -521.0 -228.0 -700.0 -306.0 -836.0C-299.0 -841.0 -288.0 -849.0 -284.0 -855.0C-202.0 -715.0 -192.0 -526.0 -192.0 -378.0V-71.0H-219.0Z"/></g>
<g fill="red" transform="translate(1600 400) scale(0.1 -0.1)"><path d="M0.0 0.0C-59.0 -30.0 -148.0 -57.0 -228.0 -74.0C-218.0 -100.0 -207.0 -142.0 -204.0 -169.0C-121.0 -157.0 -21.0 -134.0 54.0 -100.0L0.0 0.0ZM-228.0 -74.0V-440.0C-228.0 -573.0 -235.0 -733.0 -325.0 -838.0C-303.0 -856.0 -261.0 -908.0 -245.0 -936.0C-140.0 -816.0 -123.0 -600.0 -123.0 -441.0V-74.0H-228.0Z"/></g>
<g fill="black" opacity=".8" transform="translate(1600 400) scale(0.1 -0.1)"><path d="M0.0 0.0C-61.0 -29.0 -151.0 -56.0 -232.0 -73.0C-222.0 -101.0 -207.0 -144.0 -202.0 -171.0C-117.0 -159.0 -15.0 -136.0 64.0 -103.0L0.0 0.0ZM-232.0 -80.0V-443.0C-232.0 -574.0 -240.0 -734.0 -320.0 -840.0C-297.0 -857.0 -255.0 -904.0 -236.0 -930.0C-139.0 -809.0 -123.0 -602.0 -123.0 -444.0V-80.0H-232.0Z"/></g>
<g fill="red" transform="translate(100 500) scale(0.1 -0.1)"><path d="M0.0 0.0C-87.0 -36.0 -256.0 -73.0 -397.0 -98.0C-392.0 -105.0 -387.0 -115.0 -385.0 -122.0C-242.0 -98.0 -74.0 -62.0 28.0 -22.0L0.0 0.0ZM-397.0 -98.0V-405.0C-397.0 -548.0 -408.0 -735.0 -510.0 -871.0C-503.0 -875.0 -491.0 -884.0 -486.0 -891.0C-382.0 -749.0 -367.0 -551.0 -367.0 -405.0V-98.0H-397.0Z"/></g>
<g fill="black" opacity=".8" transform="translate(100 500) scale(0.1 -0.1)"><path d="M0.0 0.0C-86.0 -37.0 -257.0 -71.0 -397.0 -93.0C-393.0 -101.0 -387.0 -110.0 -386.0 -118.0C-245.0 -97.0 -74.0 -65.0 26.0 -23.0L0.0 0.0ZM-398.0 -94.0V-392.0C-398.0 -542.0 -410.0 -740.0 -514.0 -884.0C-508.0 -889.0 -495.0 -897.0 -491.0 -904.0C-383.0 -756.0 -368.0 -546.0 -368.0 -392.0V-94.0H-398.0Z"/></g>
<g fill="red" transform="translate(200 500) scale(0.1 -0.1)"><path d="M0.0 0.0C-93.0 -36.0 -241.0 -67.0 -379.0 -85.0C-362.0 -116.0 -341.0 -172.0 -335.0 -206.0C-185.0 -191.0 -12.0 -161.0 126.0 -114.0L0.0 0.0ZM-379.0 -85.0V-330.0C-379.0 -487.0 -387.0 -716.0 -492.0 -870.0C-459.0 -885.0 -397.0 -929.0 -372.0 -954.0C-256.0 -785.0 -237.0 -506.0 -237.0 -330.0V-85.0H-379.0Z"/></g>
<g fill="black" opacity=".8" transform="translate(200 500) scale(0.1 -0.1)"><path d="M0.0 0.0C-94.0 -38.0 -241.0 -68.0 -378.0 -84.0C-363.0 -116.0 -343.0 -171.0 -336.0 -203.0C-189.0 -190.0 -19.0 -161.0 114.0 -113.0L0.0 0.0ZM-379.0 -87.0V-342.0C-379.0 -493.0 -386.0 -710.0 -481.0 -860.0C-449.0 -875.0 -388.0 -917.0 -362.0 -942.0C-258.0 -777.0 -239.0 -512.0 -239.0 -342.0V-87.0H-379.0Z"/></g>
<g fill="red" transform="translate(300 500) scale(0.1 -0.1)"><path d="M0.0 0.0C-92.0 -26.0 -270.0 -51.0 -416.0 -65.0C-412.0 -72.0 -407.0 -83.0 -406.0 -90.0C-257.0 -77.0 -81.0 -52.0 27.0 -23.0L0.0 0.0ZM-677.0 -164.0V-440.0C-677.0 -570.0 -685.0 -755.0 -860.0 -861.0C-853.0 -867.0 -844.0 -877.0 -840.0 -884.0C-660.0 -768.0 -647.0 -578.0 -647.0 -439.0V-164.0H-677.0Z"/></g>
<g fill="black" opacity=".8" transform="translate(300 500) scale(0.1 -0.1)"><path d="M0.0 0.0C-91.0 -28.0 -269.0 -56.0 -417.0 -73.0C-413.0 -82.0 -407.0 -90.0 -406.0 -98.0C-257.0 -80.0 -82.0 -53.0 25.0 -21.0L0.0 0.0ZM-675.0 -163.0V-443.0C-675.0 -573.0 -683.0 -755.0 -857.0 -859.0C-852.0 -866.0 -843.0 -875.0 -841.0 -882.0C-660.0 -769.0 -646.0 -581.0 -646.0 -442.0V-163.0H-675.0Z"/></g>
<g fill="red" transform="translate(400 500) scale(0.1 -0.1)"><path d="M0.0 0.0C-115.0 -26.0 -276.0 -44.0 -424.0 -52.0C-410.0 -85.0 -393.0 -137.0 -389.0 -171.0C-239.0 -168.0 -63.0 -153.0 77.0 -124.0L0.0 0.0ZM-706.0 -216.0V-522.0C-706.0 -638.0 -723.0 -790.0 -863.0 -862.0C-837.0 -883.0 -802.0 -924.0 -787.0 -949.0C-624.0 -852.0 -594.0 -676.0 -594.0 -522.0V-216.0H-706.0Z"/></g>
<g fill="black" opacity=".8" transform="translate(400 500) scale(0.1 -0.1)"><path d="M0.0 0.0C-114.0 -28.0 -275.0 -48.0 -422.0 -60.0C-412.0 -91.0 -394.0 -143.0 -389.0 -174.0C-239.0 -170.0 -65.0 -151.0 74.0 -120.0L0.0 0.0ZM-703.0 -211.0V-522.0C-703.0 -639.0 -720.0 -789.0 -863.0 -864.0C-839.0 -885.0 -809.0 -923.0 -793.0 -947.0C-629.0 -852.0 -599.0 -675.0 -599.0 -521.0V-211.0H-703.0Z"/></g>
<g fill="red" transform="translate(500 500) scale(0.1 -0.1)"><path d="M0.0 0.0C-68.0 -24.0 -202.0 -46.0 -311.0 -58.0C-306.0 -65.0 -302.0 -76.0 -300.0 -83.0C-190.0 -72.0 -55.0 -51.0 26.0 -23.0L0.0 0.0ZM-311.0 -58.0V-263.0C-311.0 -389.0 -322.0 -559.0 -405.0 -687.0C-398.0 -690.0 -387.0 -698.0 -382.0 -705.0C-296.0 -574.0 -282.0 -393.0 -282.0 -263.0V-58.0H-311.0Z"/></g>
<g fill="black" opacity=".8" transform="translate(500 500) scale(0.1 -0.1)"><path d="M0.0 0.0C-68.0 -29.0 -203.0 -56.0 -313.0 -73.0C-309.0 -81.0 -304.0 -89.0 -302.0 -97.0C-190.0 -80.0 -55.0 -55.0 26.0 -22.0L0.0 0.0ZM-313.0 -54.0V-273.0C-313.0 -396.0 -323.0 -557.0 -396.0 -680.0C-389.0 -684.0 -377.0 -692.0 -373.0 -698.0C-297.0 -573.0 -285.0 -400.0 -285.0 -273.0V-54.0H-313.0Z"/></g>
<g fill="red" transform="translate(600 500) scale(0.1 -0.1)"><path d="M0.0 0.0C-78.0 -30.0 -208.0 -46.0 -331.0 -52.0C-314.0 -83.0 -295.0 -137.0 -290.0 -170.0C-154.0 -167.0 4.0 -149.0 121.0 -104.0L0.0 0.0ZM-331.0 -50.0V-260.0C-331.0 -374.0 -334.0 -537.0 -387.0 -650.0C-355.0 -664.0 -293.0 -705.0 -269.0 -728.0C-206.0 -600.0 -194.0 -396.0 -194.0 -261.0V-50.0H-331.0Z"/></g>
<g fill="black" opacity=".8" transform="translate(600 500) scale(0.1 -0.1)"><path d="M0.0 0.0C-80.0 -32.0 -207.0 -57.0 -321.0 -72.0C-308.0 -100.0 -292.0 -148.0 -286.0 -177.0C-163.0 -166.0 -20.0 -142.0 90.0 -103.0L0.0 0.0ZM-321.0 -47.0V-252.0C-321.0 -371.0 -327.0 -536.0 -398.0 -653.0C-369.0 -668.0 -312.0 -709.0 -289.0 -733.0C-208.0 -602.0 -193.0 -393.0 -193.0 -254.0V-47.0H-321.0Z"/></g>
<g fill="red" transform="translate(700 500) scale(0.1 -0.1)"><path d="M0.0 0.0C-81.0 -36.0 -236.0 -69.0 -362.0 -91.0C-358.0 -99.0 -354.0 -110.0 -353.0 -117.0C-226.0 -95.0 -72.0 -62.0 19.0 -25.0L0.0 0.0ZM-362.0 -91.0V-339.0C-362.0 -486.0 -371.0 -687.0 -450.0 -835.0C-444.0 -840.0 -431.0 -851.0 -427.0 -859.0C-344.0 -706.0 -332.0 -491.0 -332.0 -339.0V-91.0H-362.0Z"/></g>
<g fill="black" opacity=".8" transform="translate(700 500) scale(0.1 -0.1)"><path d="M0.0 0.0C-79.0 -37.0 -236.0 -71.0 -365.0 -94.0C-361.0 -103.0 -355.0 -111.0 -353.0 -120.0C-223.0 -97.0 -66.0 -64.0 27.0 -24.0L0.0 0.0ZM-362.0 -90.0V-339.0C-362.0 -487.0 -370.0 -687.0 -449.0 -839.0C-441.0 -843.0 -428.0 -851.0 -423.0 -858.0C-343.0 -703.0 -331.0 -492.0 -331.0 -339.0V-90.0H-362.0Z"/></g>
<g fill="red" transform="translate(800 500) scale(0.1 -0.1)"><path d="M0.0 0.0C-90.0 -40.0 -228.0 -75.0 -357.0 -95.0C-342.0 -126.0 -326.0 -182.0 -321.0 -217.0C-185.0 -200.0 -29.0 -168.0 94.0 -119.0L0.0 0.0ZM-357.0 -93.0V-376.0C-357.0 -519.0 -362.0 -722.0 -434.0 -857.0C-400.0 -872.0 -340.0 -914.0 -315.0 -940.0C-236.0 -790.0 -223.0 -542.0 -223.0 -376.0V-93.0H-357.0Z"/></g>
<g fill="black" opacity=".8" transform="translate(800 500) scale(0.1 -0.1)"><path d="M0.0 0.0C-91.0 -40.0 -231.0 -75.0 -359.0 -96.0C-345.0 -127.0 -324.0 -181.0 -318.0 -214.0C-182.0 -197.0 -23.0 -166.0 100.0 -118.0L0.0 0.0ZM-356.0 -92.0V-378.0C-356.0 -521.0 -362.0 -722.0 -433.0 -859.0C-402.0 -873.0 -345.0 -912.0 -319.0 -936.0C-238.0 -785.0 -223.0 -542.0 -223.0 -378.0V-92.0H-356.0Z"/></g>
<g fill="red" transform="translate(900 500) scale(0.1 -0.1)"><path d="M0.0 0.0C-77.0 -28.0 -222.0 -54.0 -342.0 -72.0C-337.0 -79.0 -333.0 -90.0 -332.0 -96.0C-209.0 -81.0 -63.0 -54.0 26.0 -24.0L0.0 0.0ZM-342.0 -72.0V-168.0C-342.0 -241.0 -354.0 -321.0 -466.0 -378.0C-459.0 -383.0 -449.0 -392.0 -444.0 -400.0C-328.0 -338.0 -313.0 -252.0 -313.0 -168.0V-72.0H-342.0Z"/></g>
<g fill="black" opacity=".8" transform="translate(900 500) scale(0.1 -0.1)"><path d="M0.0 0.0C-76.0 -26.0 -223.0 -51.0 -344.0 -67.0C-340.0 -76.0 -335.0 -83.0 -334.0 -91.0C-212.0 -75.0 -65.0 -51.0 25.0 -22.0L0.0 0.0ZM-345.0 -69.0V-164.0C-345.0 -239.0 -357.0 -323.0 -457.0 -385.0C-450.0 -390.0 -440.0 -398.0 -437.0 -406.0C-332.0 -339.0 -318.0 -248.0 -318.0 -164.0V-69.0H-345.0Z"/></g>
<g fill="red" transform="translate(1000 500) scale(0.1 -0.1)"><path d="M0.0 0.0C-79.0 -31.0 -214.0 -57.0 -336.0 -72.0C-323.0 -97.0 -306.0 -142.0 -301.0 -169.0C-168.0 -155.0 -13.0 -129.0 105.0 -89.0L0.0 0.0ZM-336.0 -72.0V-194.0C-336.0 -254.0 -349.0 -316.0 -433.0 -358.0C-403.0 -378.0 -355.0 -422.0 -334.0 -451.0C-230.0 -390.0 -214.0 -294.0 -214.0 -197.0V-72.0H-336.0Z"/></g>
<g fill="black" opacity=".8" transform="translate(1000 500) scale(0.1 -0.1)"><path d="M0.0 0.0C-79.0 -31.0 -214.0 -57.0 -335.0 -73.0C-323.0 -97.0 -305.0 -141.0 -299.0 -167.0C-166.0 -152.0 -11.0 -126.0 107.0 -85.0L0.0 0.0ZM-336.0 -77.0V-199.0C-336.0 -259.0 -349.0 -313.0 -438.0 -355.0C-408.0 -374.0 -357.0 -417.0 -335.0 -444.0C-227.0 -385.0 -208.0 -294.0 -208.0 -202.0V-77.0H-336.0Z"/></g>
<g fill="red" transform="translate(1100 500) scale(0.1 -0.1)"><path d="M0.0 0.0C-92.0 -26.0 -270.0 -51.0 -416.0 -65.0C-412.0 -72.0 -407.0 -83.0 -406.0 -90.0C-257.0 -77.0 -80.0 -52.0 27.0 -23.0L0.0 0.0ZM-417.0 -65.0V-418.0C-417.0 -572.0 -428.0 -739.0 -519.0 -871.0C-511.0 -876.0 -500.0 -883.0 -494.0 -888.0C-400.0 -751.0 -387.0 -583.0 -387.0 -417.0V-65.0H-417.0Z"/></g>
<g fill="black" opacity=".8" transform="translate(1100 500) scale(0.1 -0.1)"><path d="M0.0 0.0C-89.0 -32.0 -273.0 -53.0 -417.0 -64.0C-413.0 -73.0 -406.0 -84.0 -405.0 -93.0C-261.0 -83.0 -76.0 -62.0 25.0 -27.0L0.0 0.0ZM-418.0 -64.0V-419.0C-418.0 -567.0 -430.0 -740.0 -520.0 -873.0C-512.0 -878.0 -499.0 -887.0 -494.0 -893.0C-400.0 -756.0 -386.0 -574.0 -386.0 -418.0V-64.0H-418.0Z"/></g>
<g fill="red" transform="translate(1200 500) scale(0.1 -0.1)"><path d="M0.0 0.0C-124.0 -27.0 -296.0 -45.0 -454.0 -53.0C-439.0 -87.0 -422.0 -141.0 -418.0 -177.0C-258.0 -173.0 -72.0 -159.0 77.0 -128.0L0.0 0.0ZM-454.0 -53.0V-418.0C-454.0 -556.0 -464.0 -759.0 -555.0 -877.0C-522.0 -895.0 -468.0 -937.0 -444.0 -962.0C-332.0 -825.0 -316.0 -592.0 -316.0 -419.0V-53.0H-454.0Z"/></g>
<g fill="black" opacity=".8" transform="translate(1200 500) scale(0.1 -0.1)"><path d="M0.0 0.0C-119.0 -30.0 -295.0 -45.0 -451.0 -51.0C-439.0 -85.0 -423.0 -138.0 -419.0 -173.0C-261.0 -173.0 -74.0 -161.0 68.0 -128.0L0.0 0.0ZM-454.0 -53.0V-419.0C-454.0 -562.0 -461.0 -750.0 -551.0 -870.0C-521.0 -889.0 -467.0 -938.0 -443.0 -965.0C-335.0 -827.0 -317.0 -594.0 -317.0 -420.0V-53.0H-454.0Z"/></g>
<g fill="red" transform="translate(1300 500) scale(0.1 -0.1)"><path d="M0.0 0.0C-62.0 -32.0 -180.0 -64.0 -276.0 -86.0C-273.0 -94.0 -268.0 -104.0 -265.0 -111.0C-167.0 -89.0 -49.0 -58.0 24.0 -25.0L0.0 0.0ZM-276.0 -86.0V-335.0C-276.0 -479.0 -283.0 -683.0 -354.0 -835.0C-346.0 -838.0 -334.0 -847.0 -329.0 -853.0C-257.0 -697.0 -247.0 -483.0 -247.0 -335.0V-86.0H-276.0Z"/></g>
<g fill="black" opacity=".8" transform="translate(1300 500) scale(0.1 -0.1)"><path d="M0.0 0.0C-61.0 -32.0 -180.0 -66.0 -281.0 -89.0C-276.0 -98.0 -269.0 -107.0 -267.0 -116.0C-165.0 -93.0 -47.0 -61.0 30.0 -25.0L0.0 0.0ZM-279.0 -83.0V-338.0C-279.0 -483.0 -286.0 -681.0 -350.0 -833.0C-342.0 -837.0 -328.0 -846.0 -323.0 -853.0C-256.0 -698.0 -246.0 -488.0 -246.0 -337.0V-83.0H-279.0Z"/></g>
<g fill="red" transform="translate(1400 500) scale(0.1 -0.1)"><path d="M0.0 0.0C-79.0 -36.0 -193.0 -71.0 -300.0 -91.0C-284.0 -123.0 -264.0 -175.0 -258.0 -209.0C-144.0 -192.0 -12.0 -164.0 96.0 -123.0L0.0 0.0ZM-300.0 -91.0V-418.0C-300.0 -551.0 -304.0 -733.0 -366.0 -855.0C-331.0 -868.0 -267.0 -906.0 -240.0 -929.0C-171.0 -793.0 -159.0 -571.0 -159.0 -418.0V-91.0H-300.0Z"/></g>
<g fill="black" opacity=".8" transform="translate(1400 500) scale(0.1 -0.1)"><path d="M0.0 0.0C-77.0 -38.0 -192.0 -74.0 -295.0 -97.0C-282.0 -129.0 -263.0 -181.0 -257.0 -213.0C-147.0 -195.0 -17.0 -164.0 84.0 -122.0L0.0 0.0ZM-293.0 -91.0V-413.0C-293.0 -549.0 -299.0 -726.0 -362.0 -848.0C-332.0 -865.0 -276.0 -910.0 -253.0 -936.0C-176.0 -799.0 -163.0 -574.0 -163.0 -415.0V-91.0H-293.0Z"/></g>
<g fill="red" transform="translate(1500 500) scale(0.1 -0.1)"><path d="M0.0 0.0C-91.0 -41.0 -289.0 -67.0 -439.0 -80.0C-434.0 -87.0 -430.0 -98.0 -429.0 -105.0C-277.0 -94.0 -79.0 -69.0 20.0 -24.0L0.0 0.0ZM-439.0 -80.0V-329.0C-439.0 -485.0 -451.0 -697.0 -560.0 -853.0C-554.0 -856.0 -542.0 -864.0 -536.0 -869.0C-425.0 -711.0 -410.0 -489.0 -410.0 -330.0V-80.0H-439.0Z"/></g>
<g fill="black" opacity=".8" transform="translate(1500 500) scale(0.1 -0.1)"><path d="M0.0 0.0C-93.0 -37.0 -286.0 -65.0 -440.0 -81.0C-436.0 -89.0 -431.0 -97.0 -430.0 -105.0C-276.0 -89.0 -83.0 -62.0 24.0 -22.0L0.0 0.0ZM-437.0 -73.0V-322.0C-437.0 -485.0 -451.0 -700.0 -561.0 -862.0C-555.0 -866.0 -543.0 -873.0 -539.0 -879.0C-426.0 -715.0 -410.0 -489.0 -410.0 -323.0V-73.0H-437.0Z"/></g>
<g fill="red" transform="translate(1600 500) scale(0.1 -0.1)"><path d="M0.0 0.0C-108.0 -40.0 -278.0 -61.0 -437.0 -68.0C-420.0 -101.0 -402.0 -155.0 -398.0 -190.0C-233.0 -187.0 -42.0 -167.0 99.0 -116.0L0.0 0.0ZM-437.0 -68.0V-300.0C-437.0 -464.0 -446.0 -710.0 -560.0 -874.0C-527.0 -888.0 -465.0 -932.0 -440.0 -956.0C-317.0 -777.0 -296.0 -483.0 -296.0 -300.0V-68.0H-437.0Z"/></g>
<g fill="black" opacity=".8" transform="translate(1600 500) scale(0.1 -0.1)"><path d="M0.0 0.0C-108.0 -39.0 -279.0 -65.0 -437.0 -78.0C-423.0 -109.0 -405.0 -161.0 -400.0 -194.0C-235.0 -185.0 -42.0 -159.0 101.0 -109.0L0.0 0.0ZM-434.0 -68.0V-308.0C-434.0 -470.0 -443.0 -707.0 -550.0 -868.0C-518.0 -882.0 -463.0 -920.0 -438.0 -943.0C-324.0 -770.0 -304.0 -488.0 -304.0 -308.0V-68.0H-434.0Z"/></g>
<g fill="red" transform="translate(100 600) scale(0.1 -0.1)"><path d="M0.0 0.0C-78.0 -35.0 -227.0 -72.0 -355.0 -97.0C-351.0 -104.0 -346.0 -114.0 -344.0 -121.0C-215.0 -97.0 -65.0 -60.0 28.0 -21.0L0.0 0.0ZM-358.0 -97.0V-352.0C-358.0 -504.0 -368.0 -712.0 -459.0 -866.0C-452.0 -869.0 -441.0 -878.0 -436.0 -885.0C-343.0 -726.0 -329.0 -508.0 -329.0 -352.0V-97.0H-358.0Z"/></g>
<g fill="black" opacity=".8" transform="translate(100 600) scale(0.1 -0.1)"><path d="M0.0 0.0C-77.0 -38.0 -229.0 -76.0 -356.0 -102.0C-351.0 -111.0 -345.0 -119.0 -344.0 -128.0C-216.0 -101.0 -65.0 -65.0 27.0 -23.0L0.0 0.0ZM-357.0 -99.0V-357.0C-357.0 -507.0 -366.0 -709.0 -456.0 -860.0C-450.0 -864.0 -437.0 -872.0 -433.0 -879.0C-339.0 -725.0 -327.0 -511.0 -327.0 -357.0V-99.0H-357.0Z"/></g>
<g fill="red" transform="translate(200 600) scale(0.1 -0.1)"><path d="M0.0 0.0C-81.0 -42.0 -206.0 -81.0 -323.0 -105.0C-306.0 -136.0 -287.0 -191.0 -280.0 -225.0C-154.0 -203.0 -8.0 -168.0 108.0 -117.0L0.0 0.0ZM-323.0 -105.0V-386.0C-323.0 -530.0 -328.0 -733.0 -409.0 -869.0C-375.0 -882.0 -315.0 -920.0 -290.0 -943.0C-204.0 -793.0 -190.0 -550.0 -190.0 -387.0V-105.0H-323.0Z"/></g>
<g fill="black" opacity=".8" transform="translate(200 600) scale(0.1 -0.1)"><path d="M0.0 0.0C-79.0 -42.0 -205.0 -82.0 -323.0 -105.0C-308.0 -136.0 -286.0 -190.0 -279.0 -222.0C-149.0 -201.0 0.0 -164.0 117.0 -112.0L0.0 0.0ZM-324.0 -103.0V-383.0C-324.0 -529.0 -331.0 -731.0 -411.0 -872.0C-379.0 -887.0 -321.0 -926.0 -296.0 -950.0C-206.0 -795.0 -190.0 -548.0 -190.0 -383.0V-103.0H-324.0Z"/></g>
<g fill="red" transform="translate(300 600) scale(0.1 -0.1)"><path d="M0.0 0.0C-71.0 -36.0 -208.0 -73.0 -318.0 -100.0C-313.0 -107.0 -308.0 -117.0 -306.0 -124.0C-194.0 -100.0 -59.0 -63.0 23.0 -24.0L0.0 0.0ZM-318.0 -100.0V-324.0C-318.0 -432.0 -329.0 -574.0 -406.0 -679.0C-400.0 -683.0 -389.0 -692.0 -384.0 -699.0C-303.0 -590.0 -289.0 -437.0 -289.0 -324.0V-100.0H-318.0Z"/></g>
<g fill="black" opacity=".8" transform="translate(300 600) scale(0.1 -0.1)"><path d="M0.0 0.0C-71.0 -32.0 -207.0 -63.0 -321.0 -85.0C-316.0 -94.0 -310.0 -103.0 -308.0 -111.0C-193.0 -90.0 -57.0 -60.0 28.0 -25.0L0.0 0.0ZM-324.0 -94.0V-324.0C-324.0 -435.0 -331.0 -573.0 -402.0 -677.0C-394.0 -682.0 -381.0 -690.0 -377.0 -698.0C-303.0 -590.0 -292.0 -442.0 -292.0 -324.0V-94.0H-324.0Z"/></g>
<g fill="red" transform="translate(400 600) scale(0.1 -0.1)"><path d="M0.0 0.0C-83.0 -35.0 -209.0 -68.0 -325.0 -87.0C-310.0 -115.0 -292.0 -162.0 -287.0 -192.0C-165.0 -176.0 -22.0 -148.0 90.0 -107.0L0.0 0.0ZM-325.0 -87.0V-380.0C-325.0 -478.0 -330.0 -597.0 -392.0 -678.0C-364.0 -693.0 -310.0 -733.0 -289.0 -754.0C-214.0 -660.0 -201.0 -501.0 -201.0 -381.0V-87.0H-325.0Z"/></g>
<g fill="black" opacity=".8" transform="translate(400 600) scale(0.1 -0.1)"><path d="M0.0 0.0C-83.0 -34.0 -210.0 -65.0 -323.0 -84.0C-309.0 -114.0 -290.0 -164.0 -284.0 -195.0C-163.0 -180.0 -21.0 -152.0 91.0 -114.0L0.0 0.0ZM-326.0 -99.0V-374.0C-326.0 -474.0 -333.0 -594.0 -395.0 -675.0C-365.0 -693.0 -311.0 -736.0 -288.0 -762.0C-209.0 -664.0 -195.0 -505.0 -195.0 -376.0V-99.0H-326.0Z"/></g>
<g fill="red" transform="translate(500 600) scale(0.1 -0.1)"><path d="M0.0 0.0C-61.0 -32.0 -172.0 -65.0 -264.0 -90.0C-261.0 -98.0 -255.0 -108.0 -253.0 -115.0C-160.0 -93.0 -47.0 -59.0 23.0 -25.0L0.0 0.0ZM-264.0 -90.0V-445.0C-264.0 -578.0 -276.0 -743.0 -381.0 -863.0C-373.0 -867.0 -362.0 -877.0 -359.0 -883.0C-250.0 -760.0 -235.0 -582.0 -235.0 -445.0V-90.0H-264.0Z"/></g>
<g fill="black" opacity=".8" transform="translate(500 600) scale(0.1 -0.1)"><path d="M0.0 0.0C-61.0 -31.0 -173.0 -65.0 -269.0 -88.0C-265.0 -97.0 -259.0 -106.0 -257.0 -115.0C-160.0 -92.0 -46.0 -60.0 27.0 -25.0L0.0 0.0ZM-271.0 -93.0V-434.0C-271.0 -573.0 -280.0 -746.0 -373.0 -873.0C-365.0 -878.0 -353.0 -888.0 -349.0 -894.0C-253.0 -763.0 -240.0 -578.0 -240.0 -433.0V-93.0H-271.0Z"/></g>
<g fill="red" transform="translate(600 600) scale(0.1 -0.1)"><path d="M0.0 0.0C-65.0 -35.0 -163.0 -71.0 -254.0 -93.0C-238.0 -123.0 -218.0 -172.0 -211.0 -203.0C-110.0 -184.0 8.0 -153.0 105.0 -111.0L0.0 0.0ZM-254.0 -93.0V-428.0C-254.0 -562.0 -260.0 -738.0 -344.0 -857.0C-315.0 -872.0 -258.0 -917.0 -236.0 -941.0C-138.0 -808.0 -121.0 -583.0 -121.0 -428.0V-93.0H-254.0Z"/></g>
<g fill="black" opacity=".8" transform="translate(600 600) scale(0.1 -0.1)"><path d="M0.0 0.0C-63.0 -33.0 -160.0 -66.0 -250.0 -86.0C-236.0 -117.0 -217.0 -167.0 -210.0 -197.0C-110.0 -180.0 7.0 -151.0 101.0 -110.0L0.0 0.0ZM-252.0 -94.0V-433.0C-252.0 -565.0 -259.0 -729.0 -344.0 -843.0C-315.0 -861.0 -261.0 -911.0 -238.0 -939.0C-136.0 -809.0 -118.0 -592.0 -118.0 -434.0V-94.0H-252.0Z"/></g>
<g fill="red" transform="translate(700 600) scale(0.1 -0.1)"><path d="M0.0 0.0C-100.0 -45.0 -317.0 -72.0 -480.0 -85.0C-476.0 -92.0 -472.0 -103.0 -471.0 -111.0C-305.0 -98.0 -88.0 -72.0 20.0 -24.0L0.0 0.0ZM-480.0 -85.0V-391.0C-480.0 -536.0 -493.0 -722.0 -608.0 -858.0C-601.0 -861.0 -589.0 -869.0 -584.0 -875.0C-468.0 -738.0 -451.0 -540.0 -451.0 -392.0V-85.0H-480.0Z"/></g>
<g fill="black" opacity=".8" transform="translate(700 600) scale(0.1 -0.1)"><path d="M0.0 0.0C-103.0 -40.0 -316.0 -67.0 -483.0 -83.0C-479.0 -91.0 -473.0 -100.0 -473.0 -109.0C-305.0 -93.0 -93.0 -66.0 21.0 -25.0L0.0 0.0ZM-482.0 -83.0V-396.0C-482.0 -544.0 -494.0 -719.0 -598.0 -850.0C-592.0 -854.0 -579.0 -863.0 -575.0 -869.0C-468.0 -734.0 -453.0 -550.0 -453.0 -396.0V-83.0H-482.0Z"/></g>
<g fill="red" transform="translate(800 600) scale(0.1 -0.1)"><path d="M0.0 0.0C-114.0 -41.0 -298.0 -62.0 -466.0 -68.0C-451.0 -100.0 -434.0 -151.0 -430.0 -184.0C-257.0 -181.0 -54.0 -161.0 92.0 -110.0L0.0 0.0ZM-466.0 -68.0V-399.0C-466.0 -542.0 -473.0 -736.0 -560.0 -865.0C-528.0 -879.0 -469.0 -919.0 -444.0 -942.0C-347.0 -798.0 -331.0 -561.0 -331.0 -399.0V-68.0H-466.0Z"/></g>
<g fill="black" opacity=".8" transform="translate(800 600) scale(0.1 -0.1)"><path d="M0.0 0.0C-117.0 -37.0 -299.0 -60.0 -465.0 -70.0C-450.0 -103.0 -430.0 -157.0 -425.0 -191.0C-253.0 -184.0 -51.0 -163.0 102.0 -117.0L0.0 0.0ZM-464.0 -72.0V-391.0C-464.0 -537.0 -473.0 -737.0 -567.0 -869.0C-535.0 -885.0 -480.0 -924.0 -455.0 -949.0C-346.0 -801.0 -328.0 -562.0 -328.0 -391.0V-72.0H-464.0Z"/></g>
<g fill="red" transform="translate(900 600) scale(0.1 -0.1)"><path d="M0.0 0.0C-65.0 -23.0 -198.0 -41.0 -305.0 -49.0C-301.0 -57.0 -297.0 -67.0 -295.0 -74.0C-184.0 -66.0 -50.0 -48.0 30.0 -22.0L0.0 0.0ZM-305.0 -49.0V-195.0C-305.0 -275.0 -314.0 -381.0 -373.0 -460.0C-366.0 -463.0 -354.0 -471.0 -349.0 -477.0C-289.0 -395.0 -276.0 -279.0 -276.0 -196.0V-49.0H-305.0Z"/></g>
<g fill="black" opacity=".8" transform="translate(900 600) scale(0.1 -0.1)"><path d="M0.0 0.0C-66.0 -24.0 -197.0 -44.0 -304.0 -56.0C-301.0 -64.0 -295.0 -72.0 -294.0 -79.0C-186.0 -67.0 -54.0 -48.0 25.0 -21.0L0.0 0.0ZM-302.0 -53.0V-194.0C-302.0 -276.0 -310.0 -381.0 -373.0 -461.0C-366.0 -464.0 -356.0 -472.0 -352.0 -478.0C-286.0 -395.0 -275.0 -282.0 -275.0 -193.0V-53.0H-302.0Z"/></g>
<g fill="red" transform="translate(1000 600) scale(0.1 -0.1)"><path d="M0.0 0.0C-88.0 -27.0 -221.0 -45.0 -336.0 -55.0C-324.0 -80.0 -310.0 -119.0 -306.0 -144.0C-190.0 -139.0 -49.0 -123.0 55.0 -96.0L0.0 0.0ZM-337.0 -55.0V-189.0C-337.0 -264.0 -343.0 -361.0 -410.0 -433.0C-380.0 -446.0 -323.0 -482.0 -300.0 -501.0C-224.0 -420.0 -210.0 -289.0 -210.0 -191.0V-55.0H-337.0Z"/></g>
<g fill="black" opacity=".8" transform="translate(1000 600) scale(0.1 -0.1)"><path d="M0.0 0.0C-87.0 -25.0 -220.0 -43.0 -337.0 -53.0C-327.0 -78.0 -313.0 -120.0 -309.0 -146.0C-186.0 -140.0 -41.0 -123.0 71.0 -94.0L0.0 0.0ZM-335.0 -49.0V-189.0C-335.0 -265.0 -341.0 -360.0 -401.0 -427.0C-375.0 -443.0 -325.0 -482.0 -304.0 -504.0C-232.0 -423.0 -218.0 -292.0 -218.0 -192.0V-49.0H-335.0Z"/></g>
<g fill="red" transform="translate(1100 600) scale(0.1 -0.1)"><path d="M0.0 0.0C-67.0 -34.0 -199.0 -70.0 -310.0 -95.0C-306.0 -102.0 -301.0 -111.0 -298.0 -118.0C-184.0 -94.0 -54.0 -59.0 30.0 -21.0L0.0 0.0ZM-310.0 -95.0V-354.0C-310.0 -508.0 -320.0 -720.0 -416.0 -876.0C-409.0 -880.0 -398.0 -889.0 -393.0 -894.0C-294.0 -734.0 -280.0 -512.0 -280.0 -354.0V-95.0H-310.0Z"/></g>
<g fill="black" opacity=".8" transform="translate(1100 600) scale(0.1 -0.1)"><path d="M0.0 0.0C-68.0 -35.0 -199.0 -71.0 -311.0 -96.0C-306.0 -105.0 -300.0 -114.0 -298.0 -122.0C-185.0 -97.0 -54.0 -62.0 30.0 -24.0L0.0 0.0ZM-311.0 -97.0V-356.0C-311.0 -508.0 -321.0 -718.0 -413.0 -873.0C-405.0 -878.0 -392.0 -886.0 -388.0 -893.0C-293.0 -734.0 -280.0 -512.0 -280.0 -356.0V-97.0H-311.0Z"/></g>
<g fill="red" transform="translate(1200 600) scale(0.1 -0.1)"><path d="M0.0 0.0C-76.0 -42.0 -192.0 -81.0 -302.0 -105.0C-287.0 -136.0 -269.0 -189.0 -262.0 -222.0C-144.0 -200.0 -10.0 -165.0 98.0 -114.0L0.0 0.0ZM-302.0 -105.0V-384.0C-302.0 -527.0 -309.0 -727.0 -389.0 -860.0C-360.0 -877.0 -302.0 -926.0 -280.0 -953.0C-188.0 -803.0 -171.0 -550.0 -171.0 -385.0V-105.0H-302.0Z"/></g>
<g fill="black" opacity=".8" transform="translate(1200 600) scale(0.1 -0.1)"><path d="M0.0 0.0C-75.0 -40.0 -193.0 -79.0 -302.0 -102.0C-288.0 -133.0 -268.0 -186.0 -261.0 -218.0C-141.0 -198.0 -3.0 -163.0 106.0 -114.0L0.0 0.0ZM-303.0 -105.0V-383.0C-303.0 -528.0 -310.0 -727.0 -396.0 -866.0C-365.0 -882.0 -307.0 -927.0 -282.0 -953.0C-185.0 -800.0 -168.0 -550.0 -168.0 -384.0V-105.0H-303.0Z"/></g>
<g fill="red" transform="translate(1300 600) scale(0.1 -0.1)"><path d="M0.0 0.0C-82.0 -25.0 -238.0 -47.0 -366.0 -60.0C-362.0 -68.0 -357.0 -79.0 -356.0 -86.0C-227.0 -74.0 -70.0 -51.0 25.0 -24.0L0.0 0.0ZM-366.0 -60.0V-287.0C-366.0 -412.0 -381.0 -574.0 -487.0 -693.0C-480.0 -697.0 -470.0 -707.0 -466.0 -713.0C-354.0 -590.0 -336.0 -417.0 -336.0 -287.0V-60.0H-366.0Z"/></g>
<g fill="black" opacity=".8" transform="translate(1300 600) scale(0.1 -0.1)"><path d="M0.0 0.0C-79.0 -27.0 -239.0 -48.0 -368.0 -60.0C-364.0 -69.0 -358.0 -79.0 -356.0 -87.0C-226.0 -76.0 -66.0 -55.0 29.0 -25.0L0.0 0.0ZM-369.0 -63.0V-281.0C-369.0 -410.0 -383.0 -574.0 -487.0 -697.0C-480.0 -702.0 -468.0 -711.0 -463.0 -717.0C-354.0 -591.0 -338.0 -416.0 -338.0 -281.0V-63.0H-369.0Z"/></g>
<g fill="red" transform="translate(1400 600) scale(0.1 -0.1)"><path d="M0.0 0.0C-105.0 -30.0 -270.0 -53.0 -419.0 -65.0C-405.0 -93.0 -388.0 -141.0 -384.0 -172.0C-230.0 -163.0 -49.0 -142.0 90.0 -106.0L0.0 0.0ZM-419.0 -65.0V-276.0C-419.0 -396.0 -428.0 -556.0 -534.0 -665.0C-505.0 -681.0 -447.0 -729.0 -425.0 -755.0C-306.0 -631.0 -283.0 -423.0 -283.0 -278.0V-65.0H-419.0Z"/></g>
<g fill="black" opacity=".8" transform="translate(1400 600) scale(0.1 -0.1)"><path d="M0.0 0.0C-106.0 -29.0 -269.0 -49.0 -415.0 -58.0C-403.0 -89.0 -388.0 -138.0 -384.0 -170.0C-234.0 -165.0 -56.0 -147.0 77.0 -111.0L0.0 0.0ZM-417.0 -64.0V-277.0C-417.0 -396.0 -427.0 -552.0 -533.0 -657.0C-503.0 -676.0 -448.0 -727.0 -425.0 -755.0C-304.0 -634.0 -282.0 -429.0 -282.0 -280.0V-64.0H-417.0Z"/></g>
<g fill="red" transform="translate(1500 600) scale(0.1 -0.1)"><path d="M0.0 0.0C-97.0 -40.0 -286.0 -77.0 -440.0 -101.0C-436.0 -108.0 -431.0 -119.0 -430.0 -127.0C-273.0 -105.0 -85.0 -69.0 24.0 -25.0L0.0 0.0ZM-441.0 -101.0V-349.0C-441.0 -509.0 -452.0 -727.0 -555.0 -886.0C-548.0 -890.0 -536.0 -898.0 -530.0 -904.0C-424.0 -742.0 -410.0 -513.0 -410.0 -350.0V-101.0H-441.0Z"/></g>
<g fill="black" opacity=".8" transform="translate(1500 600) scale(0.1 -0.1)"><path d="M0.0 0.0C-94.0 -39.0 -284.0 -74.0 -439.0 -95.0C-435.0 -104.0 -428.0 -113.0 -427.0 -122.0C-271.0 -100.0 -82.0 -67.0 28.0 -24.0L0.0 0.0ZM-443.0 -103.0V-352.0C-443.0 -509.0 -454.0 -723.0 -555.0 -882.0C-548.0 -886.0 -535.0 -894.0 -530.0 -900.0C-426.0 -739.0 -411.0 -513.0 -411.0 -353.0V-103.0H-443.0Z"/></g>
<g fill="red" transform="translate(1600 600) scale(0.1 -0.1)"><path d="M0.0 0.0C-112.0 -41.0 -283.0 -78.0 -440.0 -99.0C-425.0 -131.0 -405.0 -187.0 -400.0 -221.0C-233.0 -202.0 -43.0 -168.0 109.0 -119.0L0.0 0.0ZM-441.0 -99.0V-355.0C-441.0 -509.0 -449.0 -732.0 -541.0 -884.0C-510.0 -896.0 -455.0 -932.0 -432.0 -953.0C-332.0 -789.0 -316.0 -526.0 -316.0 -355.0V-99.0H-441.0Z"/></g>
<g fill="black" opacity=".8" transform="translate(1600 600) scale(0.1 -0.1)"><path d="M0.0 0.0C-112.0 -41.0 -284.0 -73.0 -441.0 -90.0C-426.0 -124.0 -406.0 -181.0 -400.0 -216.0C-234.0 -203.0 -42.0 -173.0 106.0 -123.0L0.0 0.0ZM-446.0 -104.0V-351.0C-446.0 -505.0 -453.0 -731.0 -546.0 -885.0C-512.0 -899.0 -451.0 -939.0 -425.0 -963.0C-324.0 -796.0 -306.0 -525.0 -306.0 -351.0V-104.0H-446.0Z"/></g>
<g fill="red" transform="translate(100 700) scale(0.1 -0.1)"><path d="M0.0 0.0C-85.0 -35.0 -249.0 -72.0 -389.0 -97.0C-384.0 -104.0 -379.0 -114.0 -377.0 -121.0C-235.0 -97.0 -71.0 -60.0 32.0 -21.0L0.0 0.0ZM-390.0 -97.0V-352.0C-390.0 -504.0 -401.0 -712.0 -500.0 -866.0C-493.0 -869.0 -481.0 -878.0 -476.0 -885.0C-374.0 -726.0 -359.0 -508.0 -359.0 -352.0V-97.0H-390.0Z"/></g>
<g fill="black" opacity=".8" transform="translate(100 700) scale(0.1 -0.1)"><path d="M0.0 0.0C-84.0 -38.0 -250.0 -75.0 -387.0 -100.0C-383.0 -109.0 -376.0 -118.0 -375.0 -127.0C-236.0 -103.0 -71.0 -67.0 29.0 -25.0L0.0 0.0ZM-388.0 -98.0V-353.0C-388.0 -507.0 -399.0 -710.0 -504.0 -861.0C-497.0 -866.0 -483.0 -875.0 -479.0 -883.0C-371.0 -727.0 -356.0 -512.0 -356.0 -353.0V-98.0H-388.0Z"/></g>
<g fill="red" transform="translate(200 700) scale(0.1 -0.1)"><path d="M0.0 0.0C-92.0 -42.0 -235.0 -81.0 -369.0 -105.0C-349.0 -136.0 -327.0 -191.0 -320.0 -225.0C-175.0 -203.0 -10.0 -168.0 123.0 -117.0L0.0 0.0ZM-370.0 -105.0V-383.0C-370.0 -526.0 -377.0 -726.0 -476.0 -860.0C-441.0 -876.0 -375.0 -922.0 -350.0 -948.0C-237.0 -798.0 -218.0 -548.0 -218.0 -384.0V-105.0H-370.0Z"/></g>
<g fill="black" opacity=".8" transform="translate(200 700) scale(0.1 -0.1)"><path d="M0.0 0.0C-89.0 -43.0 -234.0 -81.0 -367.0 -104.0C-351.0 -136.0 -329.0 -193.0 -322.0 -227.0C-177.0 -207.0 -9.0 -171.0 120.0 -118.0L0.0 0.0ZM-368.0 -102.0V-380.0C-368.0 -526.0 -377.0 -724.0 -473.0 -862.0C-438.0 -879.0 -377.0 -924.0 -350.0 -952.0C-241.0 -798.0 -222.0 -551.0 -222.0 -380.0V-102.0H-368.0Z"/></g>
<g fill="red" transform="translate(300 700) scale(0.1 -0.1)"><path d="M0.0 0.0C-65.0 -29.0 -191.0 -57.0 -295.0 -74.0C-291.0 -81.0 -286.0 -92.0 -284.0 -99.0C-178.0 -82.0 -51.0 -55.0 25.0 -22.0L0.0 0.0ZM-295.0 -74.0V-349.0C-295.0 -501.0 -304.0 -682.0 -374.0 -830.0C-365.0 -834.0 -353.0 -841.0 -347.0 -846.0C-276.0 -694.0 -267.0 -509.0 -267.0 -348.0V-74.0H-295.0Z"/></g>
<g fill="black" opacity=".8" transform="translate(300 700) scale(0.1 -0.1)"><path d="M0.0 0.0C-63.0 -30.0 -191.0 -56.0 -295.0 -72.0C-291.0 -81.0 -285.0 -89.0 -283.0 -97.0C-179.0 -81.0 -52.0 -55.0 24.0 -23.0L0.0 0.0ZM-295.0 -70.0V-350.0C-295.0 -496.0 -303.0 -686.0 -375.0 -832.0C-368.0 -836.0 -356.0 -844.0 -351.0 -849.0C-277.0 -701.0 -266.0 -501.0 -266.0 -349.0V-70.0H-295.0Z"/></g>
<g fill="red" transform="translate(400 700) scale(0.1 -0.1)"><path d="M0.0 0.0C-81.0 -33.0 -202.0 -60.0 -313.0 -75.0C-299.0 -103.0 -282.0 -148.0 -277.0 -178.0C-163.0 -166.0 -26.0 -144.0 78.0 -106.0L0.0 0.0ZM-313.0 -74.0V-402.0C-313.0 -545.0 -319.0 -733.0 -385.0 -849.0C-359.0 -869.0 -322.0 -917.0 -305.0 -946.0C-207.0 -808.0 -197.0 -584.0 -197.0 -403.0V-74.0H-313.0Z"/></g>
<g fill="black" opacity=".8" transform="translate(400 700) scale(0.1 -0.1)"><path d="M0.0 0.0C-81.0 -33.0 -202.0 -60.0 -310.0 -75.0C-299.0 -105.0 -283.0 -151.0 -279.0 -181.0C-166.0 -171.0 -34.0 -148.0 68.0 -111.0L0.0 0.0ZM-311.0 -74.0V-411.0C-311.0 -550.0 -317.0 -734.0 -390.0 -855.0C-364.0 -870.0 -317.0 -911.0 -297.0 -935.0C-210.0 -800.0 -196.0 -574.0 -196.0 -412.0V-74.0H-311.0Z"/></g>
<g fill="red" transform="translate(500 700) scale(0.1 -0.1)"><path d="M0.0 0.0C-77.0 -27.0 -222.0 -54.0 -342.0 -71.0C-337.0 -78.0 -332.0 -89.0 -331.0 -96.0C-209.0 -80.0 -63.0 -54.0 26.0 -23.0L0.0 0.0ZM-342.0 -71.0V-178.0C-342.0 -260.0 -355.0 -352.0 -473.0 -417.0C-466.0 -422.0 -456.0 -432.0 -452.0 -439.0C-328.0 -367.0 -313.0 -272.0 -313.0 -178.0V-71.0H-342.0Z"/></g>
<g fill="black" opacity=".8" transform="translate(500 700) scale(0.1 -0.1)"><path d="M0.0 0.0C-76.0 -26.0 -222.0 -50.0 -342.0 -65.0C-338.0 -73.0 -333.0 -81.0 -332.0 -89.0C-210.0 -74.0 -64.0 -50.0 26.0 -23.0L0.0 0.0ZM-343.0 -67.0V-179.0C-343.0 -260.0 -356.0 -351.0 -468.0 -418.0C-462.0 -423.0 -452.0 -432.0 -448.0 -439.0C-331.0 -369.0 -315.0 -269.0 -315.0 -179.0V-67.0H-343.0Z"/></g>
<g fill="red" transform="translate(600 700) scale(0.1 -0.1)"><path d="M0.0 0.0C-79.0 -30.0 -214.0 -55.0 -336.0 -70.0C-323.0 -94.0 -306.0 -138.0 -301.0 -164.0C-168.0 -150.0 -13.0 -125.0 105.0 -86.0L0.0 0.0ZM-336.0 -70.0V-199.0C-336.0 -264.0 -351.0 -330.0 -453.0 -374.0C-421.0 -395.0 -372.0 -439.0 -350.0 -467.0C-228.0 -405.0 -210.0 -303.0 -210.0 -202.0V-70.0H-336.0Z"/></g>
<g fill="black" opacity=".8" transform="translate(600 700) scale(0.1 -0.1)"><path d="M0.0 0.0C-78.0 -30.0 -214.0 -56.0 -336.0 -71.0C-324.0 -95.0 -307.0 -139.0 -300.0 -165.0C-167.0 -151.0 -10.0 -125.0 109.0 -85.0L0.0 0.0ZM-337.0 -75.0V-199.0C-337.0 -266.0 -351.0 -326.0 -454.0 -373.0C-424.0 -394.0 -372.0 -440.0 -349.0 -469.0C-228.0 -405.0 -206.0 -302.0 -206.0 -203.0V-75.0H-337.0Z"/></g>
<g fill="red" transform="translate(700 700) scale(0.1 -0.1)"><path d="M0.0 0.0C-63.0 -32.0 -178.0 -66.0 -273.0 -90.0C-269.0 -98.0 -264.0 -108.0 -261.0 -115.0C-166.0 -93.0 -49.0 -60.0 23.0 -25.0L0.0 0.0ZM-274.0 -90.0V-446.0C-274.0 -578.0 -283.0 -745.0 -365.0 -867.0C-358.0 -871.0 -346.0 -880.0 -341.0 -887.0C-257.0 -761.0 -245.0 -581.0 -245.0 -446.0V-90.0H-274.0Z"/></g>
<g fill="black" opacity=".8" transform="translate(700 700) scale(0.1 -0.1)"><path d="M0.0 0.0C-62.0 -33.0 -177.0 -68.0 -274.0 -93.0C-270.0 -102.0 -264.0 -110.0 -262.0 -119.0C-164.0 -95.0 -48.0 -61.0 26.0 -25.0L0.0 0.0ZM-275.0 -93.0V-445.0C-275.0 -580.0 -283.0 -744.0 -363.0 -865.0C-355.0 -870.0 -343.0 -879.0 -339.0 -886.0C-256.0 -760.0 -245.0 -586.0 -245.0 -444.0V-93.0H-275.0Z"/></g>
<g fill="red" transform="translate(800 700) scale(0.1 -0.1)"><path d="M0.0 0.0C-62.0 -35.0 -155.0 -71.0 -242.0 -93.0C-226.0 -123.0 -206.0 -172.0 -199.0 -203.0C-104.0 -183.0 8.0 -154.0 101.0 -113.0L0.0 0.0ZM-243.0 -93.0V-465.0C-243.0 -591.0 -248.0 -750.0 -318.0 -857.0C-289.0 -872.0 -232.0 -918.0 -210.0 -943.0C-125.0 -821.0 -110.0 -613.0 -110.0 -465.0V-93.0H-243.0Z"/></g>
<g fill="black" opacity=".8" transform="translate(800 700) scale(0.1 -0.1)"><path d="M0.0 0.0C-61.0 -34.0 -155.0 -69.0 -241.0 -90.0C-227.0 -121.0 -207.0 -171.0 -199.0 -201.0C-102.0 -183.0 11.0 -153.0 103.0 -112.0L0.0 0.0ZM-242.0 -92.0V-462.0C-242.0 -591.0 -249.0 -747.0 -319.0 -855.0C-289.0 -873.0 -236.0 -920.0 -213.0 -947.0C-125.0 -822.0 -110.0 -617.0 -110.0 -463.0V-92.0H-242.0Z"/></g>
<g fill="red" transform="translate(900 700) scale(0.1 -0.1)"><path d="M0.0 0.0C-47.0 -31.0 -143.0 -59.0 -221.0 -77.0C-216.0 -84.0 -211.0 -94.0 -209.0 -102.0C-129.0 -85.0 -32.0 -58.0 24.0 -23.0L0.0 0.0ZM-222.0 -77.0V-383.0C-222.0 -519.0 -230.0 -700.0 -305.0 -833.0C-297.0 -837.0 -286.0 -846.0 -281.0 -852.0C-203.0 -715.0 -193.0 -522.0 -193.0 -383.0V-77.0H-222.0Z"/></g>
<g fill="black" opacity=".8" transform="translate(900 700) scale(0.1 -0.1)"><path d="M0.0 0.0C-48.0 -26.0 -142.0 -51.0 -220.0 -68.0C-216.0 -76.0 -210.0 -84.0 -208.0 -91.0C-130.0 -75.0 -36.0 -51.0 24.0 -22.0L0.0 0.0ZM-221.0 -72.0V-380.0C-221.0 -521.0 -229.0 -700.0 -304.0 -836.0C-297.0 -840.0 -286.0 -848.0 -282.0 -853.0C-203.0 -714.0 -194.0 -526.0 -194.0 -379.0V-72.0H-221.0Z"/></g>
<g fill="red" transform="translate(1000 700) scale(0.1 -0.1)"><path d="M0.0 0.0C-59.0 -30.0 -147.0 -58.0 -227.0 -74.0C-217.0 -100.0 -207.0 -143.0 -203.0 -170.0C-121.0 -157.0 -23.0 -134.0 51.0 -100.0L0.0 0.0ZM-228.0 -74.0V-440.0C-228.0 -573.0 -235.0 -733.0 -318.0 -838.0C-296.0 -856.0 -256.0 -908.0 -240.0 -935.0C-144.0 -815.0 -129.0 -599.0 -129.0 -441.0V-74.0H-228.0Z"/></g>
<g fill="black" opacity=".8" transform="translate(1000 700) scale(0.1 -0.1)"><path d="M0.0 0.0C-61.0 -29.0 -151.0 -56.0 -231.0 -73.0C-221.0 -100.0 -207.0 -143.0 -202.0 -170.0C-117.0 -158.0 -16.0 -135.0 63.0 -103.0L0.0 0.0ZM-233.0 -81.0V-443.0C-233.0 -574.0 -240.0 -736.0 -316.0 -842.0C-293.0 -859.0 -251.0 -904.0 -233.0 -929.0C-141.0 -807.0 -125.0 -600.0 -125.0 -444.0V-81.0H-233.0Z"/></g>
<g fill="red" transform="translate(1100 700) scale(0.1 -0.1)"><path d="M0.0 0.0C-77.0 -27.0 -222.0 -54.0 -342.0 -71.0C-337.0 -78.0 -332.0 -89.0 -331.0 -96.0C-209.0 -80.0 -63.0 -54.0 26.0 -23.0L0.0 0.0ZM-342.0 -71.0V-170.0C-342.0 -242.0 -350.0 -321.0 -417.0 -381.0C-409.0 -386.0 -399.0 -396.0 -394.0 -403.0C-323.0 -337.0 -313.0 -253.0 -313.0 -170.0V-71.0H-342.0Z"/></g>
<g fill="black" opacity=".8" transform="translate(1100 700) scale(0.1 -0.1)"><path d="M0.0 0.0C-74.0 -27.0 -220.0 -52.0 -339.0 -68.0C-335.0 -76.0 -329.0 -84.0 -328.0 -92.0C-208.0 -75.0 -63.0 -51.0 25.0 -22.0L0.0 0.0ZM-338.0 -67.0V-167.0C-338.0 -240.0 -348.0 -323.0 -427.0 -387.0C-420.0 -392.0 -409.0 -400.0 -406.0 -407.0C-323.0 -339.0 -310.0 -248.0 -310.0 -167.0V-67.0H-338.0Z"/></g>
<g fill="red" transform="translate(1200 700) scale(0.1 -0.1)"><path d="M0.0 0.0C-79.0 -30.0 -214.0 -55.0 -336.0 -70.0C-323.0 -94.0 -306.0 -138.0 -301.0 -164.0C-168.0 -150.0 -13.0 -125.0 105.0 -86.0L0.0 0.0ZM-336.0 -70.0V-197.0C-336.0 -258.0 -348.0 -322.0 -428.0 -366.0C-397.0 -386.0 -347.0 -430.0 -324.0 -459.0C-225.0 -395.0 -210.0 -297.0 -210.0 -200.0V-70.0H-336.0Z"/></g>
<g fill="black" opacity=".8" transform="translate(1200 700) scale(0.1 -0.1)"><path d="M0.0 0.0C-82.0 -30.0 -217.0 -56.0 -338.0 -71.0C-326.0 -96.0 -308.0 -140.0 -302.0 -166.0C-172.0 -153.0 -19.0 -128.0 98.0 -91.0L0.0 0.0ZM-338.0 -71.0V-203.0C-338.0 -263.0 -348.0 -322.0 -417.0 -367.0C-387.0 -384.0 -336.0 -424.0 -313.0 -450.0C-227.0 -388.0 -212.0 -295.0 -212.0 -206.0V-71.0H-338.0Z"/></g>
<g fill="red" transform="translate(1300 700) scale(0.1 -0.1)"><path d="M0.0 0.0C-63.0 -32.0 -178.0 -66.0 -273.0 -90.0C-269.0 -98.0 -264.0 -108.0 -261.0 -115.0C-166.0 -93.0 -49.0 -60.0 23.0 -25.0L0.0 0.0ZM-274.0 -90.0V-446.0C-274.0 -578.0 -283.0 -745.0 -365.0 -867.0C-358.0 -871.0 -346.0 -880.0 -341.0 -887.0C-257.0 -761.0 -245.0 -581.0 -245.0 -446.0V-90.0H-274.0Z"/></g>
<g fill="black" opacity=".8" transform="translate(1300 700) scale(0.1 -0.1)"><path d="M0.0 0.0C-62.0 -34.0 -177.0 -68.0 -274.0 -94.0C-270.0 -103.0 -264.0 -111.0 -262.0 -119.0C-164.0 -95.0 -48.0 -61.0 25.0 -24.0L0.0 0.0ZM-274.0 -93.0V-446.0C-274.0 -580.0 -282.0 -743.0 -362.0 -864.0C-354.0 -869.0 -342.0 -878.0 -338.0 -885.0C-255.0 -759.0 -245.0 -586.0 -245.0 -445.0V-93.0H-274.0Z"/></g>
<g fill="red" transform="translate(1400 700) scale(0.1 -0.1)"><path d="M0.0 0.0C-60.0 -35.0 -151.0 -71.0 -235.0 -93.0C-220.0 -123.0 -200.0 -172.0 -194.0 -203.0C-101.0 -183.0 8.0 -154.0 98.0 -113.0L0.0 0.0ZM-236.0 -93.0V-465.0C-236.0 -591.0 -240.0 -750.0 -308.0 -857.0C-280.0 -872.0 -225.0 -918.0 -204.0 -943.0C-121.0 -821.0 -106.0 -613.0 -106.0 -465.0V-93.0H-236.0Z"/></g>
<g fill="black" opacity=".8" transform="translate(1400 700) scale(0.1 -0.1)"><path d="M0.0 0.0C-59.0 -34.0 -151.0 -69.0 -235.0 -91.0C-221.0 -121.0 -201.0 -170.0 -194.0 -200.0C-98.0 -182.0 14.0 -151.0 104.0 -110.0L0.0 0.0ZM-236.0 -91.0V-462.0C-236.0 -591.0 -242.0 -748.0 -311.0 -858.0C-282.0 -875.0 -229.0 -920.0 -206.0 -947.0C-120.0 -821.0 -105.0 -616.0 -105.0 -462.0V-91.0H-236.0Z"/></g>
<g fill="red" transform="translate(1500 700) scale(0.1 -0.1)"><path d="M0.0 0.0C-85.0 -25.0 -249.0 -47.0 -382.0 -61.0C-378.0 -68.0 -374.0 -79.0 -373.0 -86.0C-237.0 -74.0 -74.0 -52.0 25.0 -24.0L0.0 0.0ZM-383.0 -62.0V-279.0C-383.0 -399.0 -400.0 -553.0 -515.0 -667.0C-508.0 -671.0 -497.0 -680.0 -492.0 -686.0C-374.0 -570.0 -354.0 -404.0 -354.0 -279.0V-62.0H-383.0Z"/></g>
<g fill="black" opacity=".8" transform="translate(1500 700) scale(0.1 -0.1)"><path d="M0.0 0.0C-83.0 -29.0 -250.0 -51.0 -384.0 -63.0C-380.0 -72.0 -374.0 -81.0 -373.0 -90.0C-238.0 -77.0 -71.0 -56.0 26.0 -25.0L0.0 0.0ZM-384.0 -63.0V-283.0C-384.0 -405.0 -398.0 -550.0 -509.0 -659.0C-502.0 -664.0 -491.0 -673.0 -486.0 -680.0C-370.0 -567.0 -354.0 -413.0 -354.0 -282.0V-63.0H-384.0Z"/></g>
<g fill="red" transform="translate(1600 700) scale(0.1 -0.1)"><path d="M0.0 0.0C-102.0 -30.0 -261.0 -53.0 -404.0 -64.0C-390.0 -93.0 -374.0 -141.0 -370.0 -171.0C-221.0 -163.0 -46.0 -142.0 88.0 -106.0L0.0 0.0ZM-403.0 -64.0V-305.0C-403.0 -411.0 -412.0 -541.0 -514.0 -630.0C-485.0 -648.0 -431.0 -698.0 -411.0 -725.0C-292.0 -621.0 -269.0 -441.0 -269.0 -307.0V-64.0H-403.0Z"/></g>
<g fill="black" opacity=".8" transform="translate(1600 700) scale(0.1 -0.1)"><path d="M0.0 0.0C-100.0 -31.0 -259.0 -52.0 -402.0 -63.0C-390.0 -92.0 -373.0 -141.0 -368.0 -171.0C-218.0 -164.0 -42.0 -144.0 90.0 -105.0L0.0 0.0ZM-402.0 -64.0V-297.0C-402.0 -408.0 -414.0 -543.0 -523.0 -634.0C-492.0 -654.0 -439.0 -703.0 -416.0 -732.0C-290.0 -624.0 -267.0 -443.0 -267.0 -300.0V-64.0H-402.0Z"/></g>
<g fill="red" transform="translate(100 800) scale(0.1 -0.1)"><path d="M0.0 0.0C-94.0 -26.0 -276.0 -49.0 -423.0 -62.0C-419.0 -70.0 -415.0 -81.0 -413.0 -88.0C-263.0 -76.0 -83.0 -53.0 26.0 -25.0L0.0 0.0ZM-423.0 -62.0V-279.0C-423.0 -399.0 -440.0 -553.0 -554.0 -667.0C-548.0 -671.0 -537.0 -680.0 -532.0 -686.0C-413.0 -570.0 -394.0 -404.0 -394.0 -279.0V-62.0H-423.0Z"/></g>
<g fill="black" opacity=".8" transform="translate(100 800) scale(0.1 -0.1)"><path d="M0.0 0.0C-91.0 -30.0 -275.0 -51.0 -421.0 -62.0C-417.0 -71.0 -411.0 -81.0 -410.0 -89.0C-263.0 -77.0 -79.0 -57.0 26.0 -25.0L0.0 0.0ZM-421.0 -65.0V-276.0C-421.0 -401.0 -437.0 -552.0 -559.0 -664.0C-552.0 -669.0 -541.0 -678.0 -537.0 -684.0C-410.0 -569.0 -392.0 -409.0 -392.0 -276.0V-65.0H-421.0Z"/></g>
<g fill="red" transform="translate(200 800) scale(0.1 -0.1)"><path d="M0.0 0.0C-112.0 -30.0 -284.0 -54.0 -440.0 -65.0C-426.0 -94.0 -409.0 -142.0 -405.0 -173.0C-245.0 -164.0 -56.0 -143.0 88.0 -106.0L0.0 0.0ZM-440.0 -65.0V-263.0C-440.0 -377.0 -452.0 -526.0 -578.0 -627.0C-548.0 -645.0 -493.0 -694.0 -472.0 -720.0C-330.0 -605.0 -304.0 -408.0 -304.0 -265.0V-65.0H-440.0Z"/></g>
<g fill="black" opacity=".8" transform="translate(200 800) scale(0.1 -0.1)"><path d="M0.0 0.0C-109.0 -31.0 -284.0 -50.0 -442.0 -59.0C-430.0 -89.0 -413.0 -139.0 -408.0 -170.0C-244.0 -164.0 -50.0 -145.0 95.0 -104.0L0.0 0.0ZM-443.0 -64.0V-261.0C-443.0 -378.0 -456.0 -526.0 -575.0 -627.0C-543.0 -647.0 -488.0 -696.0 -464.0 -724.0C-329.0 -606.0 -305.0 -411.0 -305.0 -264.0V-64.0H-443.0Z"/></g>
<g fill="red" transform="translate(300 800) scale(0.1 -0.1)"><path d="M0.0 0.0C-77.0 -28.0 -222.0 -54.0 -342.0 -72.0C-337.0 -79.0 -332.0 -90.0 -331.0 -96.0C-209.0 -81.0 -63.0 -54.0 26.0 -24.0L0.0 0.0ZM-342.0 -72.0V-255.0C-342.0 -393.0 -354.0 -547.0 -466.0 -672.0C-458.0 -676.0 -448.0 -684.0 -443.0 -691.0C-327.0 -561.0 -313.0 -403.0 -313.0 -255.0V-72.0H-342.0Z"/></g>
<g fill="black" opacity=".8" transform="translate(300 800) scale(0.1 -0.1)"><path d="M0.0 0.0C-75.0 -29.0 -221.0 -57.0 -342.0 -75.0C-337.0 -85.0 -330.0 -95.0 -329.0 -103.0C-206.0 -85.0 -61.0 -58.0 31.0 -26.0L0.0 0.0ZM-343.0 -76.0V-271.0C-343.0 -392.0 -356.0 -542.0 -465.0 -656.0C-457.0 -661.0 -445.0 -671.0 -440.0 -678.0C-326.0 -561.0 -310.0 -399.0 -310.0 -271.0V-76.0H-343.0Z"/></g>
<g fill="red" transform="translate(400 800) scale(0.1 -0.1)"><path d="M0.0 0.0C-84.0 -35.0 -228.0 -66.0 -357.0 -84.0C-344.0 -113.0 -328.0 -165.0 -323.0 -196.0C-183.0 -180.0 -19.0 -150.0 105.0 -102.0L0.0 0.0ZM-357.0 -85.0V-305.0C-357.0 -413.0 -370.0 -524.0 -469.0 -608.0C-434.0 -628.0 -379.0 -673.0 -353.0 -702.0C-237.0 -597.0 -222.0 -448.0 -222.0 -307.0V-85.0H-357.0Z"/></g>
<g fill="black" opacity=".8" transform="translate(400 800) scale(0.1 -0.1)"><path d="M0.0 0.0C-87.0 -34.0 -229.0 -64.0 -357.0 -81.0C-344.0 -111.0 -326.0 -163.0 -319.0 -194.0C-182.0 -179.0 -20.0 -151.0 103.0 -109.0L0.0 0.0ZM-359.0 -84.0V-296.0C-359.0 -402.0 -371.0 -526.0 -476.0 -614.0C-443.0 -636.0 -385.0 -689.0 -360.0 -720.0C-237.0 -614.0 -214.0 -438.0 -214.0 -299.0V-84.0H-359.0Z"/></g>
<g fill="red" transform="translate(500 800) scale(0.1 -0.1)"><path d="M0.0 0.0C-90.0 -39.0 -265.0 -76.0 -410.0 -100.0C-406.0 -108.0 -400.0 -118.0 -399.0 -126.0C-252.0 -104.0 -77.0 -68.0 27.0 -25.0L0.0 0.0ZM-411.0 -100.0V-366.0C-411.0 -517.0 -419.0 -727.0 -496.0 -881.0C-489.0 -884.0 -475.0 -892.0 -470.0 -897.0C-392.0 -742.0 -381.0 -521.0 -381.0 -366.0V-100.0H-411.0Z"/></g>
<g fill="black" opacity=".8" transform="translate(500 800) scale(0.1 -0.1)"><path d="M0.0 0.0C-87.0 -40.0 -265.0 -74.0 -409.0 -95.0C-405.0 -103.0 -399.0 -112.0 -398.0 -120.0C-253.0 -98.0 -76.0 -65.0 25.0 -22.0L0.0 0.0ZM-412.0 -96.0V-371.0C-412.0 -519.0 -420.0 -726.0 -493.0 -878.0C-487.0 -881.0 -474.0 -888.0 -470.0 -894.0C-395.0 -740.0 -383.0 -522.0 -383.0 -371.0V-96.0H-412.0Z"/></g>
<g fill="red" transform="translate(600 800) scale(0.1 -0.1)"><path d="M0.0 0.0C-101.0 -35.0 -257.0 -65.0 -400.0 -81.0C-384.0 -113.0 -365.0 -169.0 -360.0 -203.0C-208.0 -189.0 -31.0 -162.0 110.0 -119.0L0.0 0.0ZM-401.0 -81.0V-343.0C-401.0 -498.0 -405.0 -729.0 -465.0 -887.0C-435.0 -897.0 -380.0 -929.0 -356.0 -948.0C-293.0 -777.0 -282.0 -512.0 -282.0 -343.0V-81.0H-401.0Z"/></g>
<g fill="black" opacity=".8" transform="translate(600 800) scale(0.1 -0.1)"><path d="M0.0 0.0C-103.0 -39.0 -257.0 -69.0 -400.0 -84.0C-385.0 -117.0 -365.0 -171.0 -359.0 -204.0C-209.0 -192.0 -37.0 -165.0 99.0 -119.0L0.0 0.0ZM-404.0 -87.0V-342.0C-404.0 -495.0 -407.0 -730.0 -469.0 -890.0C-438.0 -900.0 -380.0 -932.0 -355.0 -951.0C-287.0 -780.0 -275.0 -507.0 -275.0 -341.0V-87.0H-404.0Z"/></g>
<g fill="red" transform="translate(700 800) scale(0.1 -0.1)"><path d="M0.0 0.0C-79.0 -27.0 -230.0 -52.0 -353.0 -68.0C-349.0 -76.0 -345.0 -86.0 -343.0 -93.0C-217.0 -79.0 -66.0 -54.0 26.0 -25.0L0.0 0.0ZM-353.0 -68.0V-341.0C-353.0 -478.0 -362.0 -612.0 -440.0 -719.0C-432.0 -723.0 -421.0 -732.0 -417.0 -739.0C-335.0 -625.0 -324.0 -488.0 -324.0 -340.0V-68.0H-353.0Z"/></g>
<g fill="black" opacity=".8" transform="translate(700 800) scale(0.1 -0.1)"><path d="M0.0 0.0C-77.0 -31.0 -229.0 -57.0 -351.0 -73.0C-347.0 -83.0 -340.0 -92.0 -339.0 -101.0C-216.0 -85.0 -64.0 -59.0 25.0 -26.0L0.0 0.0ZM-353.0 -67.0V-357.0C-353.0 -475.0 -363.0 -607.0 -445.0 -709.0C-437.0 -714.0 -425.0 -724.0 -421.0 -731.0C-334.0 -624.0 -322.0 -483.0 -322.0 -356.0V-67.0H-353.0Z"/></g>
<g fill="red" transform="translate(800 800) scale(0.1 -0.1)"><path d="M0.0 0.0C-85.0 -28.0 -225.0 -51.0 -353.0 -63.0C-337.0 -92.0 -318.0 -145.0 -312.0 -176.0C-171.0 -167.0 -5.0 -145.0 125.0 -105.0L0.0 0.0ZM-353.0 -63.0V-384.0C-353.0 -500.0 -362.0 -610.0 -426.0 -691.0C-396.0 -713.0 -349.0 -763.0 -328.0 -794.0C-233.0 -689.0 -221.0 -541.0 -221.0 -385.0V-63.0H-353.0Z"/></g>
<g fill="black" opacity=".8" transform="translate(800 800) scale(0.1 -0.1)"><path d="M0.0 0.0C-89.0 -31.0 -226.0 -55.0 -348.0 -69.0C-335.0 -99.0 -317.0 -149.0 -311.0 -181.0C-181.0 -171.0 -28.0 -150.0 91.0 -113.0L0.0 0.0ZM-351.0 -61.0V-382.0C-351.0 -491.0 -359.0 -617.0 -436.0 -702.0C-405.0 -721.0 -351.0 -769.0 -328.0 -797.0C-231.0 -694.0 -215.0 -525.0 -215.0 -384.0V-61.0H-351.0Z"/></g>
<g fill="red" transform="translate(900 800) scale(0.1 -0.1)"><path d="M0.0 0.0C-54.0 -21.0 -166.0 -39.0 -255.0 -48.0C-251.0 -56.0 -246.0 -65.0 -245.0 -72.0C-152.0 -64.0 -39.0 -48.0 28.0 -22.0L0.0 0.0ZM-255.0 -48.0V-234.0C-255.0 -315.0 -261.0 -423.0 -310.0 -503.0C-303.0 -507.0 -292.0 -516.0 -287.0 -522.0C-235.0 -438.0 -226.0 -319.0 -226.0 -234.0V-48.0H-255.0Z"/></g>
<g fill="black" opacity=".8" transform="translate(900 800) scale(0.1 -0.1)"><path d="M0.0 0.0C-56.0 -22.0 -163.0 -43.0 -252.0 -57.0C-249.0 -65.0 -244.0 -73.0 -242.0 -80.0C-151.0 -67.0 -42.0 -47.0 26.0 -21.0L0.0 0.0ZM-250.0 -47.0V-250.0C-250.0 -325.0 -257.0 -419.0 -308.0 -488.0C-302.0 -492.0 -292.0 -500.0 -288.0 -506.0C-234.0 -434.0 -222.0 -328.0 -222.0 -249.0V-47.0H-250.0Z"/></g>
<g fill="red" transform="translate(1000 800) scale(0.1 -0.1)"><path d="M0.0 0.0C-74.0 -17.0 -181.0 -29.0 -278.0 -34.0C-266.0 -61.0 -254.0 -104.0 -251.0 -131.0C-149.0 -130.0 -31.0 -121.0 65.0 -100.0L0.0 0.0ZM-278.0 -33.0V-175.0C-278.0 -244.0 -281.0 -335.0 -325.0 -399.0C-296.0 -414.0 -239.0 -454.0 -216.0 -475.0C-162.0 -398.0 -154.0 -270.0 -154.0 -177.0V-33.0H-278.0Z"/></g>
<g fill="black" opacity=".8" transform="translate(1000 800) scale(0.1 -0.1)"><path d="M0.0 0.0C-73.0 -20.0 -183.0 -36.0 -280.0 -44.0C-269.0 -70.0 -255.0 -111.0 -251.0 -137.0C-147.0 -132.0 -24.0 -118.0 73.0 -94.0L0.0 0.0ZM-278.0 -31.0V-165.0C-278.0 -239.0 -281.0 -337.0 -328.0 -411.0C-302.0 -426.0 -247.0 -467.0 -226.0 -489.0C-168.0 -402.0 -156.0 -262.0 -156.0 -168.0V-31.0H-278.0Z"/></g>
<g fill="red" transform="translate(1100 800) scale(0.1 -0.1)"><path d="M0.0 0.0C-64.0 -26.0 -195.0 -46.0 -303.0 -58.0C-298.0 -65.0 -293.0 -76.0 -291.0 -83.0C-181.0 -71.0 -49.0 -51.0 30.0 -22.0L0.0 0.0ZM-302.0 -58.0V-189.0C-302.0 -258.0 -309.0 -352.0 -360.0 -424.0C-353.0 -427.0 -341.0 -435.0 -336.0 -440.0C-283.0 -367.0 -272.0 -262.0 -272.0 -189.0V-58.0H-302.0Z"/></g>
<g fill="black" opacity=".8" transform="translate(1100 800) scale(0.1 -0.1)"><path d="M0.0 0.0C-65.0 -24.0 -196.0 -46.0 -303.0 -60.0C-299.0 -68.0 -294.0 -76.0 -293.0 -83.0C-184.0 -70.0 -54.0 -49.0 26.0 -21.0L0.0 0.0ZM-301.0 -57.0V-179.0C-301.0 -256.0 -307.0 -356.0 -358.0 -433.0C-352.0 -437.0 -341.0 -444.0 -336.0 -450.0C-283.0 -371.0 -273.0 -262.0 -273.0 -179.0V-57.0H-301.0Z"/></g>
<g fill="red" transform="translate(1200 800) scale(0.1 -0.1)"><path d="M0.0 0.0C-88.0 -28.0 -221.0 -48.0 -336.0 -58.0C-324.0 -85.0 -310.0 -126.0 -306.0 -153.0C-190.0 -148.0 -49.0 -131.0 55.0 -102.0L0.0 0.0ZM-337.0 -58.0V-186.0C-337.0 -257.0 -341.0 -349.0 -395.0 -418.0C-367.0 -432.0 -311.0 -474.0 -290.0 -496.0C-225.0 -413.0 -212.0 -284.0 -212.0 -189.0V-58.0H-337.0Z"/></g>
<g fill="black" opacity=".8" transform="translate(1200 800) scale(0.1 -0.1)"><path d="M0.0 0.0C-88.0 -26.0 -220.0 -46.0 -337.0 -58.0C-327.0 -83.0 -312.0 -126.0 -308.0 -152.0C-186.0 -145.0 -42.0 -127.0 70.0 -98.0L0.0 0.0ZM-336.0 -56.0V-194.0C-336.0 -262.0 -341.0 -349.0 -388.0 -411.0C-361.0 -425.0 -310.0 -462.0 -289.0 -484.0C-230.0 -409.0 -218.0 -289.0 -218.0 -197.0V-56.0H-336.0Z"/></g>
<g fill="red" transform="translate(1300 800) scale(0.1 -0.1)"><path d="M0.0 0.0C-92.0 -27.0 -270.0 -51.0 -416.0 -66.0C-412.0 -73.0 -407.0 -84.0 -406.0 -91.0C-257.0 -78.0 -81.0 -53.0 27.0 -24.0L0.0 0.0ZM-416.0 -66.0V-413.0C-416.0 -563.0 -427.0 -727.0 -506.0 -857.0C-498.0 -861.0 -487.0 -868.0 -482.0 -874.0C-398.0 -738.0 -386.0 -573.0 -386.0 -412.0V-66.0H-416.0Z"/></g>
<g fill="black" opacity=".8" transform="translate(1300 800) scale(0.1 -0.1)"><path d="M0.0 0.0C-88.0 -35.0 -273.0 -57.0 -416.0 -69.0C-412.0 -77.0 -407.0 -86.0 -406.0 -94.0C-262.0 -82.0 -78.0 -60.0 20.0 -23.0L0.0 0.0ZM-414.0 -66.0V-414.0C-414.0 -558.0 -425.0 -730.0 -504.0 -860.0C-497.0 -864.0 -485.0 -872.0 -481.0 -877.0C-400.0 -744.0 -387.0 -563.0 -387.0 -413.0V-66.0H-414.0Z"/></g>
<g fill="red" transform="translate(1400 800) scale(0.1 -0.1)"><path d="M0.0 0.0C-113.0 -26.0 -274.0 -44.0 -420.0 -52.0C-406.0 -84.0 -390.0 -134.0 -386.0 -168.0C-237.0 -164.0 -63.0 -149.0 75.0 -120.0L0.0 0.0ZM-420.0 -52.0V-383.0C-420.0 -526.0 -428.0 -743.0 -500.0 -875.0C-469.0 -891.0 -419.0 -927.0 -395.0 -949.0C-306.0 -798.0 -294.0 -556.0 -294.0 -383.0V-52.0H-420.0Z"/></g>
<g fill="black" opacity=".8" transform="translate(1400 800) scale(0.1 -0.1)"><path d="M0.0 0.0C-110.0 -30.0 -272.0 -46.0 -420.0 -52.0C-407.0 -84.0 -390.0 -133.0 -387.0 -165.0C-237.0 -165.0 -60.0 -151.0 75.0 -115.0L0.0 0.0ZM-419.0 -49.0V-387.0C-419.0 -533.0 -424.0 -739.0 -498.0 -873.0C-470.0 -886.0 -420.0 -924.0 -398.0 -945.0C-311.0 -797.0 -296.0 -554.0 -296.0 -387.0V-49.0H-419.0Z"/></g>
<g fill="red" transform="translate(1500 800) scale(0.1 -0.1)"><path d="M0.0 0.0C-50.0 -24.0 -143.0 -50.0 -222.0 -67.0C-217.0 -74.0 -213.0 -84.0 -211.0 -91.0C-128.0 -75.0 -34.0 -50.0 29.0 -22.0L0.0 0.0ZM-222.0 -67.0V-207.0C-222.0 -287.0 -231.0 -393.0 -288.0 -474.0C-281.0 -477.0 -270.0 -486.0 -265.0 -493.0C-205.0 -408.0 -193.0 -292.0 -193.0 -207.0V-67.0H-222.0Z"/></g>
<g fill="black" opacity=".8" transform="translate(1500 800) scale(0.1 -0.1)"><path d="M0.0 0.0C-49.0 -22.0 -141.0 -48.0 -220.0 -66.0C-217.0 -73.0 -212.0 -80.0 -210.0 -86.0C-129.0 -68.0 -37.0 -44.0 25.0 -18.0L0.0 0.0ZM-219.0 -62.0V-214.0C-219.0 -290.0 -226.0 -394.0 -287.0 -469.0C-282.0 -473.0 -272.0 -480.0 -269.0 -486.0C-205.0 -408.0 -194.0 -294.0 -194.0 -214.0V-62.0H-219.0Z"/></g>
<g fill="red" transform="translate(1600 800) scale(0.1 -0.1)"><path d="M0.0 0.0C-53.0 -22.0 -142.0 -44.0 -222.0 -57.0C-210.0 -79.0 -196.0 -116.0 -191.0 -138.0C-100.0 -127.0 7.0 -107.0 91.0 -77.0L0.0 0.0ZM-222.0 -57.0V-168.0C-222.0 -237.0 -227.0 -330.0 -276.0 -401.0C-253.0 -414.0 -204.0 -458.0 -187.0 -480.0C-122.0 -394.0 -109.0 -264.0 -109.0 -170.0V-57.0H-222.0Z"/></g>
<g fill="black" opacity=".8" transform="translate(1600 800) scale(0.1 -0.1)"><path d="M0.0 0.0C-55.0 -24.0 -142.0 -48.0 -222.0 -63.0C-211.0 -86.0 -196.0 -124.0 -191.0 -148.0C-101.0 -134.0 3.0 -112.0 86.0 -81.0L0.0 0.0ZM-221.0 -59.0V-165.0C-221.0 -238.0 -226.0 -333.0 -280.0 -408.0C-255.0 -421.0 -205.0 -458.0 -185.0 -478.0C-122.0 -393.0 -109.0 -258.0 -109.0 -167.0V-59.0H-221.0Z"/></g>
<g fill="red" transform="translate(100 900) scale(0.1 -0.1)"><path d="M0.0 0.0C-55.0 -31.0 -157.0 -64.0 -240.0 -89.0C-235.0 -97.0 -230.0 -107.0 -228.0 -114.0C-143.0 -92.0 -41.0 -59.0 22.0 -25.0L0.0 0.0ZM-240.0 -89.0V-446.0C-240.0 -573.0 -244.0 -742.0 -295.0 -866.0C-287.0 -870.0 -275.0 -879.0 -271.0 -885.0C-218.0 -756.0 -211.0 -576.0 -211.0 -446.0V-89.0H-240.0Z"/></g>
<g fill="black" opacity=".8" transform="translate(100 900) scale(0.1 -0.1)"><path d="M0.0 0.0C-53.0 -32.0 -152.0 -67.0 -236.0 -92.0C-232.0 -101.0 -226.0 -110.0 -224.0 -118.0C-138.0 -94.0 -39.0 -60.0 26.0 -24.0L0.0 0.0ZM-240.0 -92.0V-443.0C-240.0 -575.0 -245.0 -741.0 -301.0 -864.0C-294.0 -869.0 -281.0 -877.0 -277.0 -884.0C-218.0 -756.0 -210.0 -579.0 -210.0 -442.0V-92.0H-240.0Z"/></g>
<g fill="red" transform="translate(200 900) scale(0.1 -0.1)"><path d="M0.0 0.0C-55.0 -34.0 -137.0 -70.0 -213.0 -92.0C-197.0 -122.0 -177.0 -171.0 -171.0 -201.0C-86.0 -183.0 13.0 -154.0 97.0 -116.0L0.0 0.0ZM-215.0 -92.0V-467.0C-215.0 -593.0 -219.0 -754.0 -274.0 -864.0C-246.0 -877.0 -194.0 -918.0 -174.0 -940.0C-107.0 -816.0 -96.0 -610.0 -96.0 -467.0V-92.0H-215.0Z"/></g>
<g fill="black" opacity=".8" transform="translate(200 900) scale(0.1 -0.1)"><path d="M0.0 0.0C-57.0 -33.0 -139.0 -67.0 -214.0 -89.0C-200.0 -119.0 -181.0 -167.0 -174.0 -198.0C-90.0 -180.0 7.0 -151.0 89.0 -114.0L0.0 0.0ZM-218.0 -90.0V-465.0C-218.0 -591.0 -221.0 -752.0 -269.0 -862.0C-241.0 -878.0 -189.0 -920.0 -167.0 -945.0C-104.0 -819.0 -93.0 -614.0 -93.0 -465.0V-90.0H-218.0Z"/></g>
<g fill="red" transform="translate(300 900) scale(0.1 -0.1)"><path d="M0.0 0.0C-47.0 -31.0 -142.0 -59.0 -220.0 -77.0C-215.0 -84.0 -210.0 -94.0 -208.0 -102.0C-128.0 -85.0 -31.0 -58.0 25.0 -23.0L0.0 0.0ZM-221.0 -77.0V-383.0C-221.0 -519.0 -229.0 -700.0 -304.0 -833.0C-297.0 -837.0 -285.0 -846.0 -280.0 -852.0C-202.0 -715.0 -192.0 -522.0 -192.0 -383.0V-77.0H-221.0Z"/></g>
<g fill="black" opacity=".8" transform="translate(300 900) scale(0.1 -0.1)"><path d="M0.0 0.0C-48.0 -26.0 -141.0 -51.0 -218.0 -68.0C-215.0 -76.0 -208.0 -84.0 -207.0 -91.0C-129.0 -75.0 -36.0 -51.0 24.0 -22.0L0.0 0.0ZM-219.0 -71.0V-379.0C-219.0 -521.0 -228.0 -700.0 -306.0 -836.0C-299.0 -840.0 -288.0 -848.0 -284.0 -854.0C-202.0 -715.0 -192.0 -526.0 -192.0 -378.0V-71.0H-219.0Z"/></g>
<g fill="red" transform="translate(400 900) scale(0.1 -0.1)"><path d="M0.0 0.0C-57.0 -30.0 -144.0 -57.0 -222.0 -74.0C-213.0 -100.0 -201.0 -142.0 -199.0 -169.0C-117.0 -157.0 -20.0 -134.0 53.0 -100.0L0.0 0.0ZM-224.0 -74.0V-440.0C-224.0 -573.0 -231.0 -733.0 -320.0 -838.0C-298.0 -856.0 -257.0 -908.0 -241.0 -936.0C-139.0 -816.0 -122.0 -600.0 -122.0 -441.0V-74.0H-224.0Z"/></g>
<g fill="black" opacity=".8" transform="translate(400 900) scale(0.1 -0.1)"><path d="M0.0 0.0C-59.0 -29.0 -148.0 -57.0 -227.0 -74.0C-217.0 -101.0 -203.0 -144.0 -198.0 -171.0C-113.0 -158.0 -13.0 -135.0 64.0 -102.0L0.0 0.0ZM-229.0 -80.0V-443.0C-229.0 -574.0 -236.0 -735.0 -316.0 -841.0C-292.0 -859.0 -251.0 -904.0 -233.0 -929.0C-136.0 -808.0 -120.0 -601.0 -120.0 -444.0V-80.0H-229.0Z"/></g>
<g fill="red" transform="translate(500 900) scale(0.1 -0.1)"><path d="M0.0 0.0C-64.0 -26.0 -195.0 -46.0 -303.0 -58.0C-298.0 -65.0 -293.0 -76.0 -291.0 -83.0C-181.0 -71.0 -49.0 -51.0 30.0 -22.0L0.0 0.0ZM-303.0 -58.0V-153.0C-303.0 -206.0 -309.0 -275.0 -349.0 -329.0C-341.0 -332.0 -329.0 -339.0 -324.0 -346.0C-282.0 -289.0 -273.0 -210.0 -273.0 -154.0V-58.0H-303.0Z"/></g>
<g fill="black" opacity=".8" transform="translate(500 900) scale(0.1 -0.1)"><path d="M0.0 0.0C-66.0 -24.0 -197.0 -46.0 -304.0 -60.0C-300.0 -68.0 -295.0 -76.0 -294.0 -83.0C-185.0 -69.0 -54.0 -48.0 26.0 -21.0L0.0 0.0ZM-301.0 -56.0V-139.0C-301.0 -201.0 -306.0 -280.0 -347.0 -343.0C-340.0 -347.0 -329.0 -354.0 -325.0 -360.0C-282.0 -295.0 -274.0 -208.0 -274.0 -139.0V-56.0H-301.0Z"/></g>
<g fill="red" transform="translate(600 900) scale(0.1 -0.1)"><path d="M0.0 0.0C-88.0 -28.0 -221.0 -48.0 -336.0 -58.0C-324.0 -85.0 -310.0 -126.0 -306.0 -153.0C-190.0 -148.0 -49.0 -131.0 55.0 -102.0L0.0 0.0ZM-336.0 -58.0V-159.0C-336.0 -214.0 -339.0 -284.0 -383.0 -339.0C-355.0 -353.0 -299.0 -395.0 -277.0 -417.0C-222.0 -349.0 -211.0 -243.0 -211.0 -162.0V-58.0H-336.0Z"/></g>
<g fill="black" opacity=".8" transform="translate(600 900) scale(0.1 -0.1)"><path d="M0.0 0.0C-88.0 -26.0 -221.0 -47.0 -337.0 -59.0C-327.0 -83.0 -311.0 -125.0 -307.0 -151.0C-185.0 -143.0 -42.0 -124.0 70.0 -96.0L0.0 0.0ZM-335.0 -55.0V-170.0C-335.0 -223.0 -339.0 -284.0 -374.0 -329.0C-347.0 -343.0 -297.0 -378.0 -275.0 -398.0C-228.0 -340.0 -219.0 -250.0 -219.0 -174.0V-55.0H-335.0Z"/></g>
<g fill="red" transform="translate(700 900) scale(0.1 -0.1)"><path d="M0.0 0.0C-103.0 -44.0 -326.0 -70.0 -493.0 -82.0C-489.0 -88.0 -484.0 -99.0 -483.0 -107.0C-314.0 -96.0 -91.0 -71.0 19.0 -25.0L0.0 0.0ZM-493.0 -82.0V-331.0C-493.0 -487.0 -505.0 -699.0 -615.0 -855.0C-608.0 -858.0 -596.0 -866.0 -590.0 -871.0C-479.0 -713.0 -464.0 -491.0 -464.0 -332.0V-82.0H-493.0Z"/></g>
<g fill="black" opacity=".8" transform="translate(700 900) scale(0.1 -0.1)"><path d="M0.0 0.0C-104.0 -39.0 -322.0 -66.0 -493.0 -81.0C-489.0 -89.0 -484.0 -97.0 -484.0 -105.0C-311.0 -90.0 -95.0 -64.0 22.0 -22.0L0.0 0.0ZM-488.0 -75.0V-335.0C-488.0 -493.0 -502.0 -699.0 -616.0 -852.0C-610.0 -856.0 -598.0 -863.0 -594.0 -868.0C-477.0 -713.0 -460.0 -497.0 -460.0 -335.0V-75.0H-488.0Z"/></g>
<g fill="red" transform="translate(800 900) scale(0.1 -0.1)"><path d="M0.0 0.0C-123.0 -37.0 -309.0 -57.0 -482.0 -64.0C-466.0 -96.0 -449.0 -148.0 -446.0 -182.0C-271.0 -179.0 -67.0 -160.0 85.0 -115.0L0.0 0.0ZM-481.0 -64.0V-294.0C-481.0 -454.0 -490.0 -691.0 -601.0 -849.0C-568.0 -864.0 -505.0 -909.0 -480.0 -935.0C-359.0 -762.0 -338.0 -474.0 -338.0 -294.0V-64.0H-481.0Z"/></g>
<g fill="black" opacity=".8" transform="translate(800 900) scale(0.1 -0.1)"><path d="M0.0 0.0C-120.0 -39.0 -311.0 -62.0 -486.0 -71.0C-472.0 -103.0 -452.0 -157.0 -448.0 -190.0C-265.0 -184.0 -53.0 -161.0 105.0 -110.0L0.0 0.0ZM-480.0 -65.0V-295.0C-480.0 -455.0 -489.0 -695.0 -596.0 -857.0C-564.0 -870.0 -506.0 -906.0 -481.0 -929.0C-367.0 -755.0 -347.0 -473.0 -347.0 -294.0V-65.0H-480.0Z"/></g>
<g fill="red" transform="translate(900 900) scale(0.1 -0.1)"><path d="M0.0 0.0C-90.0 -36.0 -263.0 -73.0 -408.0 -98.0C-405.0 -106.0 -400.0 -115.0 -398.0 -122.0C-250.0 -99.0 -77.0 -62.0 28.0 -22.0L0.0 0.0ZM-408.0 -98.0V-405.0C-408.0 -548.0 -419.0 -735.0 -521.0 -871.0C-514.0 -875.0 -503.0 -884.0 -498.0 -891.0C-394.0 -749.0 -379.0 -551.0 -379.0 -405.0V-98.0H-408.0Z"/></g>
<g fill="black" opacity=".8" transform="translate(900 900) scale(0.1 -0.1)"><path d="M0.0 0.0C-88.0 -39.0 -265.0 -73.0 -408.0 -95.0C-404.0 -103.0 -399.0 -111.0 -397.0 -120.0C-253.0 -98.0 -77.0 -65.0 25.0 -23.0L0.0 0.0ZM-408.0 -94.0V-393.0C-408.0 -543.0 -420.0 -740.0 -526.0 -883.0C-520.0 -887.0 -507.0 -895.0 -504.0 -901.0C-394.0 -755.0 -378.0 -547.0 -378.0 -393.0V-94.0H-408.0Z"/></g>
<g fill="red" transform="translate(1000 900) scale(0.1 -0.1)"><path d="M0.0 0.0C-93.0 -36.0 -241.0 -67.0 -379.0 -85.0C-362.0 -116.0 -341.0 -172.0 -335.0 -206.0C-185.0 -191.0 -12.0 -161.0 126.0 -114.0L0.0 0.0ZM-379.0 -85.0V-330.0C-379.0 -487.0 -387.0 -716.0 -492.0 -870.0C-459.0 -885.0 -397.0 -929.0 -372.0 -954.0C-256.0 -785.0 -237.0 -506.0 -237.0 -330.0V-85.0H-379.0Z"/></g>
<g fill="black" opacity=".8" transform="translate(1000 900) scale(0.1 -0.1)"><path d="M0.0 0.0C-93.0 -38.0 -241.0 -69.0 -380.0 -85.0C-364.0 -117.0 -343.0 -171.0 -337.0 -204.0C-188.0 -190.0 -15.0 -161.0 118.0 -111.0L0.0 0.0ZM-379.0 -86.0V-341.0C-379.0 -493.0 -387.0 -711.0 -481.0 -863.0C-449.0 -877.0 -389.0 -918.0 -363.0 -942.0C-259.0 -777.0 -240.0 -511.0 -240.0 -341.0V-86.0H-379.0Z"/></g>
<g fill="red" transform="translate(1100 900) scale(0.1 -0.1)"><path d="M0.0 0.0C-72.0 -33.0 -211.0 -65.0 -326.0 -87.0C-322.0 -95.0 -317.0 -105.0 -315.0 -112.0C-198.0 -91.0 -58.0 -59.0 25.0 -23.0L0.0 0.0ZM-327.0 -88.0V-416.0C-327.0 -580.0 -339.0 -741.0 -438.0 -870.0C-431.0 -875.0 -421.0 -884.0 -416.0 -888.0C-313.0 -751.0 -297.0 -594.0 -297.0 -416.0V-88.0H-327.0Z"/></g>
<g fill="black" opacity=".8" transform="translate(1100 900) scale(0.1 -0.1)"><path d="M0.0 0.0C-72.0 -35.0 -213.0 -70.0 -329.0 -94.0C-325.0 -103.0 -319.0 -111.0 -318.0 -120.0C-200.0 -96.0 -59.0 -63.0 26.0 -24.0L0.0 0.0ZM-331.0 -99.0V-415.0C-331.0 -559.0 -341.0 -745.0 -435.0 -881.0C-428.0 -885.0 -415.0 -894.0 -411.0 -901.0C-314.0 -761.0 -301.0 -564.0 -301.0 -415.0V-99.0H-331.0Z"/></g>
<g fill="red" transform="translate(1200 900) scale(0.1 -0.1)"><path d="M0.0 0.0C-76.0 -41.0 -196.0 -82.0 -309.0 -108.0C-293.0 -136.0 -272.0 -185.0 -266.0 -215.0C-142.0 -191.0 1.0 -153.0 113.0 -103.0L0.0 0.0ZM-309.0 -108.0V-399.0C-309.0 -546.0 -318.0 -718.0 -394.0 -882.0C-359.0 -903.0 -312.0 -937.0 -287.0 -966.0C-194.0 -786.0 -178.0 -584.0 -178.0 -400.0V-108.0H-309.0Z"/></g>
<g fill="black" opacity=".8" transform="translate(1200 900) scale(0.1 -0.1)"><path d="M0.0 0.0C-76.0 -37.0 -195.0 -70.0 -305.0 -90.0C-290.0 -121.0 -270.0 -173.0 -263.0 -205.0C-143.0 -188.0 -3.0 -157.0 107.0 -112.0L0.0 0.0ZM-307.0 -99.0V-409.0C-307.0 -549.0 -314.0 -737.0 -398.0 -867.0C-367.0 -883.0 -311.0 -927.0 -287.0 -953.0C-190.0 -808.0 -173.0 -572.0 -173.0 -409.0V-99.0H-307.0Z"/></g>
<g fill="red" transform="translate(1300 900) scale(0.1 -0.1)"><path d="M0.0 0.0C-128.0 -34.0 -398.0 -53.0 -605.0 -60.0C-601.0 -67.0 -597.0 -79.0 -596.0 -85.0C-386.0 -80.0 -118.0 -61.0 25.0 -24.0L0.0 0.0ZM-605.0 -60.0V-236.0C-605.0 -365.0 -627.0 -530.0 -766.0 -652.0C-759.0 -656.0 -748.0 -665.0 -743.0 -671.0C-601.0 -546.0 -576.0 -371.0 -576.0 -237.0V-60.0H-605.0Z"/></g>
<g fill="black" opacity=".8" transform="translate(1300 900) scale(0.1 -0.1)"><path d="M0.0 0.0C-128.0 -37.0 -397.0 -57.0 -607.0 -64.0C-602.0 -73.0 -596.0 -84.0 -597.0 -93.0C-385.0 -85.0 -118.0 -66.0 26.0 -27.0L0.0 0.0ZM-609.0 -66.0V-232.0C-609.0 -366.0 -628.0 -528.0 -763.0 -650.0C-756.0 -655.0 -744.0 -664.0 -739.0 -670.0C-599.0 -546.0 -577.0 -374.0 -577.0 -233.0V-66.0H-609.0Z"/></g>
<g fill="red" transform="translate(1400 900) scale(0.1 -0.1)"><path d="M0.0 0.0C-158.0 -36.0 -415.0 -55.0 -647.0 -59.0C-633.0 -92.0 -615.0 -152.0 -611.0 -188.0C-372.0 -186.0 -93.0 -168.0 121.0 -117.0L0.0 0.0ZM-647.0 -59.0V-208.0C-647.0 -334.0 -658.0 -514.0 -787.0 -638.0C-751.0 -653.0 -688.0 -694.0 -662.0 -718.0C-528.0 -583.0 -503.0 -361.0 -503.0 -210.0V-59.0H-647.0Z"/></g>
<g fill="black" opacity=".8" transform="translate(1400 900) scale(0.1 -0.1)"><path d="M0.0 0.0C-161.0 -37.0 -415.0 -50.0 -644.0 -52.0C-631.0 -87.0 -612.0 -145.0 -608.0 -181.0C-375.0 -183.0 -100.0 -167.0 103.0 -120.0L0.0 0.0ZM-648.0 -58.0V-204.0C-648.0 -332.0 -662.0 -513.0 -792.0 -634.0C-755.0 -652.0 -692.0 -697.0 -664.0 -725.0C-520.0 -588.0 -495.0 -365.0 -495.0 -207.0V-58.0H-648.0Z"/></g>
<g fill="red" transform="translate(1500 900) scale(0.1 -0.1)"><path d="M0.0 0.0C-50.0 -24.0 -143.0 -50.0 -222.0 -67.0C-217.0 -74.0 -213.0 -84.0 -211.0 -91.0C-128.0 -75.0 -34.0 -50.0 29.0 -22.0L0.0 0.0ZM-223.0 -67.0V-207.0C-223.0 -287.0 -232.0 -393.0 -289.0 -474.0C-282.0 -477.0 -271.0 -486.0 -266.0 -493.0C-206.0 -408.0 -194.0 -292.0 -194.0 -207.0V-67.0H-223.0Z"/></g>
<g fill="black" opacity=".8" transform="translate(1500 900) scale(0.1 -0.1)"><path d="M0.0 0.0C-49.0 -23.0 -143.0 -48.0 -223.0 -65.0C-220.0 -71.0 -215.0 -77.0 -214.0 -84.0C-133.0 -67.0 -39.0 -43.0 23.0 -17.0L0.0 0.0ZM-221.0 -59.0V-206.0C-221.0 -288.0 -227.0 -398.0 -285.0 -480.0C-280.0 -483.0 -271.0 -490.0 -268.0 -495.0C-207.0 -411.0 -198.0 -291.0 -198.0 -206.0V-59.0H-221.0Z"/></g>
<g fill="red" transform="translate(1600 900) scale(0.1 -0.1)"><path d="M0.0 0.0C-53.0 -21.0 -142.0 -43.0 -222.0 -55.0C-210.0 -77.0 -196.0 -113.0 -191.0 -134.0C-100.0 -123.0 7.0 -104.0 91.0 -75.0L0.0 0.0ZM-222.0 -56.0V-180.0C-222.0 -258.0 -226.0 -364.0 -274.0 -443.0C-251.0 -457.0 -201.0 -499.0 -184.0 -519.0C-121.0 -425.0 -109.0 -282.0 -109.0 -182.0V-56.0H-222.0Z"/></g>
<g fill="black" opacity=".8" transform="translate(1600 900) scale(0.1 -0.1)"><path d="M0.0 0.0C-54.0 -25.0 -141.0 -50.0 -220.0 -65.0C-209.0 -86.0 -195.0 -123.0 -190.0 -146.0C-102.0 -132.0 0.0 -110.0 81.0 -78.0L0.0 0.0ZM-217.0 -58.0V-185.0C-217.0 -262.0 -222.0 -365.0 -274.0 -443.0C-250.0 -455.0 -204.0 -488.0 -185.0 -507.0C-126.0 -419.0 -113.0 -280.0 -113.0 -186.0V-58.0H-217.0Z"/></g>
<g fill="red" transform="translate(100 1000) scale(0.1 -0.1)"><path d="M0.0 0.0C-82.0 -35.0 -241.0 -72.0 -375.0 -97.0C-371.0 -104.0 -366.0 -114.0 -364.0 -121.0C-227.0 -97.0 -68.0 -60.0 31.0 -21.0L0.0 0.0ZM-375.0 -97.0V-352.0C-375.0 -504.0 -386.0 -712.0 -482.0 -866.0C-475.0 -869.0 -463.0 -878.0 -458.0 -885.0C-359.0 -726.0 -346.0 -508.0 -346.0 -352.0V-97.0H-375.0Z"/></g>
<g fill="black" opacity=".8" transform="translate(100 1000) scale(0.1 -0.1)"><path d="M0.0 0.0C-81.0 -38.0 -241.0 -75.0 -374.0 -100.0C-369.0 -109.0 -363.0 -118.0 -361.0 -127.0C-228.0 -102.0 -68.0 -66.0 28.0 -24.0L0.0 0.0ZM-374.0 -98.0V-354.0C-374.0 -506.0 -384.0 -710.0 -485.0 -861.0C-478.0 -866.0 -464.0 -874.0 -460.0 -882.0C-356.0 -727.0 -342.0 -512.0 -342.0 -354.0V-98.0H-374.0Z"/></g>
<g fill="red" transform="translate(200 1000) scale(0.1 -0.1)"><path d="M0.0 0.0C-88.0 -42.0 -224.0 -82.0 -351.0 -105.0C-334.0 -137.0 -312.0 -191.0 -305.0 -225.0C-168.0 -203.0 -10.0 -168.0 116.0 -117.0L0.0 0.0ZM-351.0 -105.0V-383.0C-351.0 -526.0 -358.0 -726.0 -451.0 -860.0C-418.0 -876.0 -356.0 -922.0 -332.0 -948.0C-226.0 -798.0 -208.0 -548.0 -208.0 -384.0V-105.0H-351.0Z"/></g>
<g fill="black" opacity=".8" transform="translate(200 1000) scale(0.1 -0.1)"><path d="M0.0 0.0C-86.0 -43.0 -224.0 -81.0 -351.0 -104.0C-336.0 -136.0 -314.0 -191.0 -307.0 -224.0C-168.0 -204.0 -7.0 -168.0 118.0 -116.0L0.0 0.0ZM-351.0 -103.0V-380.0C-351.0 -526.0 -359.0 -725.0 -451.0 -864.0C-417.0 -880.0 -357.0 -924.0 -331.0 -951.0C-228.0 -797.0 -210.0 -550.0 -210.0 -381.0V-103.0H-351.0Z"/></g>
</svg>
