<?xml version="1.0" encoding="UTF-8"?>
<svg width="1700" height="1000" xmlns="http://www.w3.org/2000/svg">
<rect width="100%" height="100%" fill="white"/>
<g fill="green" transform="translate(100 100) scale(0.1 -0.1)"><path d="M-0.0 -0.0C-83.0 -151.0 -221.0 -307.0 -353.0 -407.0C-348.0 -413.0 -344.0 -428.0 -342.0 -434.0C-206.0 -322.0 -70.0 -168.0 22.0 -9.0ZM251.0 -525.0 252.0 -539.0 979.0 -394.0 973.0 -380.0Z"/></g>
<g fill="green" transform="translate(200 100) scale(0.1 -0.1)"><path d="M0.0 0.0C-66.0 -91.0 -174.0 -182.0 -268.0 -245.0C-256.0 -291.0 -248.0 -392.0 -250.0 -436.0C-117.0 -337.0 19.0 -183.0 107.0 -53.0ZM373.0 -464.0 379.0 -559.0 1062.0 -429.0 1036.0 -335.0Z"/></g>
<g fill="green" transform="translate(300 100) scale(0.1 -0.1)"><path d="M0.0 0.0C-47.0 -23.0 -125.0 -56.0 -183.0 -73.0C-186.0 -75.0 -194.0 -82.0 -197.0 -83.0C-133.0 -56.0 -59.0 -28.0 -6.0 -3.0ZM358.0 -154.0 359.0 -123.0 621.0 3.0 616.0 -28.0Z"/></g>
<g fill="green" transform="translate(400 100) scale(0.1 -0.1)"><path d="M0.0 0.0C-35.0 24.0 -84.0 49.0 -107.0 56.0C-126.0 30.0 -172.0 -24.0 -197.0 -44.0C-139.0 -30.0 -73.0 -14.0 -27.0 -21.0ZM432.0 -109.0 437.0 -66.0 670.0 47.0 647.0 4.0Z"/></g>
<g fill="green" transform="translate(500 100) scale(0.1 -0.1)"><path d="M0.0 0.0C-73.0 -136.0 -190.0 -280.0 -303.0 -375.0C-295.0 -381.0 -287.0 -394.0 -283.0 -399.0C-171.0 -297.0 -53.0 -152.0 26.0 -10.0ZM-350.0 -767.0 -340.0 -1230.0 -48.0 -1055.0 -56.0 -592.0Z"/></g>
<g fill="green" transform="translate(600 100) scale(0.1 -0.1)"><path d="M0.0 0.0C-60.0 -86.0 -163.0 -177.0 -251.0 -235.0C-222.0 -263.0 -176.0 -322.0 -156.0 -354.0C-62.0 -279.0 58.0 -159.0 134.0 -53.0ZM-288.0 -760.0 -247.0 -1235.0 21.0 -1078.0 -11.0 -605.0Z"/></g>
<g fill="green" transform="translate(700 100) scale(0.1 -0.1)"><path d="M0.0 -0.0C-102.0 -286.0 -273.0 -559.0 -464.0 -735.0C-453.0 -743.0 -440.0 -765.0 -435.0 -774.0C-242.0 -583.0 -72.0 -311.0 42.0 -12.0ZM250.0 -39.0 245.0 -327.0 684.0 -210.0 679.0 77.0Z"/></g>
<g fill="green" transform="translate(800 100) scale(0.1 -0.1)"><path d="M0.0 0.0C-76.0 -215.0 -205.0 -422.0 -348.0 -554.0C-317.0 -618.0 -274.0 -760.0 -264.0 -822.0C-72.0 -637.0 95.0 -342.0 198.0 -65.0ZM407.0 18.0 391.0 -377.0 785.0 -272.0 765.0 122.0Z"/></g>
<g fill="green" transform="translate(900 100) scale(0.1 -0.1)"><path d="M-0.0 0.0C-62.0 -147.0 -168.0 -297.0 -289.0 -395.0C-281.0 -400.0 -275.0 -412.0 -271.0 -418.0C-149.0 -310.0 -42.0 -162.0 27.0 -7.0ZM-108.0 -461.0 -103.0 -526.0 1086.0 -332.0 1078.0 -267.0Z"/></g>
<g fill="green" transform="translate(1000 100) scale(0.1 -0.1)"><path d="M0.0 0.0C-44.0 -106.0 -120.0 -211.0 -208.0 -280.0C-182.0 -311.0 -144.0 -381.0 -130.0 -417.0C-20.0 -321.0 72.0 -178.0 132.0 -37.0ZM12.0 -351.0 31.0 -503.0 1282.0 -329.0 1247.0 -178.0Z"/></g>
<g fill="green" transform="translate(1100 100) scale(0.1 -0.1)"><path d="M0.0 0.0C-65.0 -176.0 -177.0 -351.0 -295.0 -463.0C-288.0 -469.0 -279.0 -484.0 -274.0 -489.0C-155.0 -367.0 -44.0 -195.0 29.0 -9.0ZM226.0 -776.0 235.0 -347.0 974.0 -102.0 964.0 -530.0Z"/></g>
<g fill="green" transform="translate(1200 100) scale(0.1 -0.1)"><path d="M0.0 0.0C-50.0 -118.0 -137.0 -233.0 -227.0 -307.0C-204.0 -346.0 -171.0 -432.0 -160.0 -473.0C-42.0 -368.0 69.0 -203.0 136.0 -47.0ZM342.0 -701.0 380.0 -465.0 962.0 -244.0 918.0 -481.0Z"/></g>
<g fill="green" transform="translate(1300 100) scale(0.1 -0.1)"><path d="M-0.0 0.0C-53.0 -157.0 -143.0 -317.0 -240.0 -422.0C-235.0 -427.0 -229.0 -439.0 -227.0 -444.0C-126.0 -329.0 -37.0 -170.0 23.0 -6.0ZM320.0 -467.0 313.0 -559.0 939.0 -508.0 938.0 -416.0Z"/></g>
<g fill="green" transform="translate(1400 100) scale(0.1 -0.1)"><path d="M0.0 0.0C-31.0 -108.0 -84.0 -211.0 -146.0 -282.0C-139.0 -326.0 -136.0 -423.0 -143.0 -463.0C-33.0 -352.0 48.0 -183.0 96.0 -30.0ZM455.0 -400.0 439.0 -567.0 1098.0 -521.0 1090.0 -354.0Z"/></g>
<g fill="green" transform="translate(1500 100) scale(0.1 -0.1)"><path d="M0.0 -0.0C-91.0 -147.0 -238.0 -302.0 -378.0 -404.0C-372.0 -409.0 -367.0 -422.0 -365.0 -429.0C-221.0 -317.0 -76.0 -164.0 23.0 -9.0ZM226.0 -418.0 217.0 -360.0 985.0 -463.0 990.0 -522.0Z"/></g>
<g fill="green" transform="translate(1600 100) scale(0.1 -0.1)"><path d="M0.0 0.0C-72.0 -93.0 -191.0 -190.0 -295.0 -255.0C-277.0 -297.0 -254.0 -388.0 -249.0 -430.0C-115.0 -333.0 30.0 -182.0 124.0 -55.0ZM362.0 -390.0 326.0 -432.0 1024.0 -526.0 1043.0 -482.0Z"/></g>
<g fill="green" transform="translate(100 200) scale(0.1 -0.1)"><path d="M-0.0 0.0C-85.0 -134.0 -225.0 -270.0 -347.0 -354.0C-343.0 -360.0 -341.0 -375.0 -340.0 -380.0C-214.0 -285.0 -77.0 -149.0 17.0 -10.0ZM241.0 -526.0V-527.0L943.0 -378.0L938.0 -377.0Z"/></g>
<g fill="green" transform="translate(200 200) scale(0.1 -0.1)"><path d="M0.0 0.0C-69.0 -112.0 -180.0 -226.0 -267.0 -302.0C-262.0 -347.0 -263.0 -448.0 -271.0 -488.0C-146.0 -378.0 -6.0 -198.0 83.0 -53.0ZM384.0 -486.0V-563.0L1089.0 -426.0L1063.0 -348.0Z"/></g>
<g fill="green" transform="translate(300 200) scale(0.1 -0.1)"><path d="M-0.0 0.0C-80.0 -146.0 -213.0 -292.0 -344.0 -387.0C-336.0 -394.0 -328.0 -410.0 -324.0 -416.0C-192.0 -311.0 -59.0 -164.0 29.0 -10.0ZM285.0 -497.0 289.0 -532.0 1030.0 -379.0 1023.0 -344.0Z"/></g>
<g fill="green" transform="translate(400 200) scale(0.1 -0.1)"><path d="M0.0 0.0C-72.0 -97.0 -192.0 -196.0 -300.0 -262.0C-275.0 -305.0 -243.0 -397.0 -231.0 -441.0C-98.0 -345.0 47.0 -194.0 141.0 -62.0ZM339.0 -472.0 355.0 -595.0 1024.0 -460.0 996.0 -339.0Z"/></g>
<g fill="green" transform="translate(500 200) scale(0.1 -0.1)"><path d="M-0.0 0.0C-76.0 -153.0 -203.0 -310.0 -327.0 -412.0C-321.0 -418.0 -316.0 -433.0 -314.0 -439.0C-187.0 -326.0 -61.0 -169.0 23.0 -9.0ZM258.0 -535.0 256.0 -547.0 981.0 -409.0 975.0 -396.0Z"/></g>
<g fill="green" transform="translate(600 200) scale(0.1 -0.1)"><path d="M0.0 0.0C-71.0 -86.0 -187.0 -171.0 -286.0 -234.0C-277.0 -286.0 -279.0 -401.0 -286.0 -449.0C-140.0 -348.0 8.0 -189.0 104.0 -58.0ZM364.0 -452.0 362.0 -540.0 1059.0 -415.0 1034.0 -329.0Z"/></g>
<g fill="red" transform="translate(100 300) scale(0.1 -0.1)"><path d="M0.0 0.0C-55.0 -136.0 -147.0 -262.0 -250.0 -344.0C-242.0 -349.0 -229.0 -359.0 -223.0 -364.0C-123.0 -278.0 -30.0 -150.0 30.0 -8.0ZM-108.0 -337.0V-366.0H414.0V-337.0Z"/></g>
<g fill="black" opacity=".8" transform="translate(100 300) scale(0.1 -0.1)"><path d="M0.0 0.0C-58.0 -133.0 -151.0 -260.0 -252.0 -344.0C-241.0 -349.0 -230.0 -360.0 -224.0 -365.0C-127.0 -277.0 -32.0 -147.0 30.0 -9.0ZM-102.0 -338.0V-370.0H412.0V-338.0Z"/></g>
<g fill="red" transform="translate(200 300) scale(0.1 -0.1)"><path d="M0.0 0.0C-55.0 -126.0 -152.0 -253.0 -252.0 -328.0C-216.0 -353.0 -154.0 -406.0 -126.0 -435.0C-26.0 -344.0 84.0 -194.0 153.0 -48.0ZM-57.0 -346.0V-485.0H398.0V-346.0Z"/></g>
<g fill="black" opacity=".8" transform="translate(200 300) scale(0.1 -0.1)"><path d="M0.0 0.0C-56.0 -124.0 -153.0 -252.0 -251.0 -331.0C-215.0 -355.0 -151.0 -406.0 -123.0 -435.0C-28.0 -344.0 84.0 -193.0 153.0 -50.0ZM-62.0 -348.0 -63.0 -479.0 398.0 -480.0V-347.0Z"/></g>
<g fill="red" transform="translate(300 300) scale(0.1 -0.1)"><path d="M0.0 0.0C-62.0 -161.0 -162.0 -319.0 -268.0 -422.0C-262.0 -427.0 -251.0 -440.0 -247.0 -446.0C-139.0 -336.0 -38.0 -177.0 29.0 -8.0ZM131.0 -362.0V-392.0H520.0V-362.0Z"/></g>
<g fill="black" opacity=".8" transform="translate(300 300) scale(0.1 -0.1)"><path d="M0.0 0.0C-61.0 -163.0 -160.0 -320.0 -266.0 -423.0C-257.0 -428.0 -246.0 -442.0 -242.0 -446.0C-137.0 -337.0 -37.0 -178.0 30.0 -9.0ZM126.0 -357.0 122.0 -386.0 514.0 -385.0 515.0 -356.0Z"/></g>
<g fill="red" transform="translate(400 300) scale(0.1 -0.1)"><path d="M0.0 0.0C-48.0 -138.0 -131.0 -276.0 -217.0 -363.0C-193.0 -399.0 -154.0 -480.0 -141.0 -516.0C-32.0 -400.0 73.0 -214.0 137.0 -43.0ZM195.0 -348.0V-482.0H529.0V-348.0Z"/></g>
<g fill="black" opacity=".8" transform="translate(400 300) scale(0.1 -0.1)"><path d="M0.0 0.0C-50.0 -138.0 -136.0 -276.0 -226.0 -362.0C-200.0 -398.0 -157.0 -474.0 -142.0 -511.0C-33.0 -398.0 76.0 -215.0 141.0 -46.0ZM208.0 -354.0 197.0 -490.0 533.0 -488.0 534.0 -351.0Z"/></g>
<g fill="red" transform="translate(500 300) scale(0.1 -0.1)"><path d="M0.0 0.0C-56.0 -159.0 -146.0 -315.0 -244.0 -417.0C-237.0 -423.0 -225.0 -436.0 -221.0 -442.0C-123.0 -332.0 -32.0 -174.0 29.0 -8.0ZM1.0 -474.0V-503.0H668.0V-474.0Z"/></g>
<g fill="black" opacity=".8" transform="translate(500 300) scale(0.1 -0.1)"><path d="M0.0 0.0C-56.0 -158.0 -149.0 -312.0 -251.0 -415.0C-240.0 -420.0 -229.0 -432.0 -224.0 -438.0C-124.0 -330.0 -30.0 -172.0 31.0 -9.0ZM11.0 -483.0 6.0 -511.0H662.0L663.0 -483.0Z"/></g>
<g fill="red" transform="translate(600 300) scale(0.1 -0.1)"><path d="M0.0 0.0C-52.0 -138.0 -142.0 -276.0 -234.0 -363.0C-210.0 -399.0 -172.0 -479.0 -160.0 -514.0C-45.0 -400.0 67.0 -214.0 135.0 -44.0ZM92.0 -455.0V-596.0H732.0V-455.0Z"/></g>
<g fill="black" opacity=".8" transform="translate(600 300) scale(0.1 -0.1)"><path d="M0.0 0.0C-52.0 -137.0 -144.0 -275.0 -239.0 -363.0C-212.0 -400.0 -168.0 -480.0 -152.0 -517.0C-38.0 -403.0 77.0 -219.0 146.0 -48.0ZM95.0 -451.0 80.0 -586.0 733.0 -585.0 734.0 -449.0Z"/></g>
<g fill="red" transform="translate(700 300) scale(0.1 -0.1)"><path d="M0.0 0.0C-42.0 -120.0 -110.0 -238.0 -189.0 -316.0C-181.0 -320.0 -168.0 -330.0 -163.0 -335.0C-87.0 -253.0 -16.0 -134.0 30.0 -7.0ZM-97.0 -349.0V-378.0H252.0V-349.0Z"/></g>
<g fill="black" opacity=".8" transform="translate(700 300) scale(0.1 -0.1)"><path d="M0.0 0.0C-42.0 -121.0 -109.0 -239.0 -188.0 -317.0C-179.0 -321.0 -168.0 -331.0 -162.0 -334.0C-86.0 -253.0 -17.0 -134.0 28.0 -7.0ZM-100.0 -349.0 -99.0 -382.0 255.0 -383.0 256.0 -350.0Z"/></g>
<g fill="red" transform="translate(800 300) scale(0.1 -0.1)"><path d="M0.0 0.0C-33.0 -105.0 -94.0 -214.0 -163.0 -279.0C-128.0 -299.0 -66.0 -343.0 -38.0 -368.0C32.0 -290.0 104.0 -162.0 147.0 -37.0ZM-66.0 -366.0V-499.0H236.0V-366.0Z"/></g>
<g fill="black" opacity=".8" transform="translate(800 300) scale(0.1 -0.1)"><path d="M0.0 0.0C-33.0 -110.0 -94.0 -222.0 -166.0 -289.0C-132.0 -305.0 -67.0 -337.0 -38.0 -360.0C29.0 -283.0 99.0 -160.0 140.0 -34.0ZM-66.0 -366.0 -59.0 -495.0 232.0 -496.0V-366.0Z"/></g>
<g fill="red" transform="translate(900 300) scale(0.1 -0.1)"><path d="M0.0 0.0C-44.0 -139.0 -114.0 -270.0 -201.0 -357.0C-194.0 -361.0 -182.0 -370.0 -177.0 -375.0C-92.0 -285.0 -18.0 -153.0 28.0 -7.0ZM-216.0 -469.0V-499.0H667.0V-469.0Z"/></g>
<g fill="black" opacity=".8" transform="translate(900 300) scale(0.1 -0.1)"><path d="M0.0 0.0C-44.0 -134.0 -116.0 -265.0 -207.0 -354.0C-194.0 -359.0 -181.0 -369.0 -175.0 -374.0C-88.0 -282.0 -12.0 -147.0 34.0 -8.0ZM-220.0 -473.0V-504.0H663.0L664.0 -474.0Z"/></g>
<g fill="red" transform="translate(1000 300) scale(0.1 -0.1)"><path d="M0.0 0.0C-38.0 -134.0 -111.0 -270.0 -195.0 -349.0C-157.0 -369.0 -88.0 -413.0 -57.0 -438.0C25.0 -344.0 107.0 -191.0 156.0 -37.0ZM-176.0 -451.0V-598.0H734.0V-451.0Z"/></g>
<g fill="black" opacity=".8" transform="translate(1000 300) scale(0.1 -0.1)"><path d="M0.0 0.0C-40.0 -132.0 -114.0 -267.0 -204.0 -350.0C-162.0 -370.0 -87.0 -412.0 -53.0 -440.0C33.0 -345.0 117.0 -194.0 168.0 -40.0ZM-169.0 -448.0V-592.0L734.0 -593.0V-447.0Z"/></g>
<g fill="red" transform="translate(1100 300) scale(0.1 -0.1)"><path d="M0.0 0.0C-35.0 -136.0 -93.0 -266.0 -168.0 -353.0C-160.0 -357.0 -147.0 -367.0 -141.0 -372.0C-68.0 -282.0 -8.0 -149.0 31.0 -6.0ZM-75.0 -366.0V-395.0H300.0V-366.0Z"/></g>
<g fill="black" opacity=".8" transform="translate(1100 300) scale(0.1 -0.1)"><path d="M0.0 0.0C-36.0 -135.0 -94.0 -265.0 -170.0 -353.0C-159.0 -357.0 -147.0 -367.0 -141.0 -371.0C-69.0 -280.0 -8.0 -147.0 30.0 -7.0ZM-75.0 -364.0 -76.0 -396.0 300.0 -397.0 301.0 -364.0Z"/></g>
<g fill="red" transform="translate(1200 300) scale(0.1 -0.1)"><path d="M0.0 0.0C-36.0 -118.0 -103.0 -234.0 -183.0 -304.0C-150.0 -326.0 -92.0 -374.0 -66.0 -400.0C17.0 -314.0 96.0 -176.0 143.0 -35.0ZM-46.0 -352.0V-486.0H288.0V-352.0Z"/></g>
<g fill="black" opacity=".8" transform="translate(1200 300) scale(0.1 -0.1)"><path d="M0.0 0.0C-36.0 -115.0 -102.0 -230.0 -180.0 -302.0C-148.0 -326.0 -91.0 -376.0 -67.0 -404.0C16.0 -317.0 96.0 -177.0 143.0 -38.0ZM-46.0 -354.0V-484.0L286.0 -485.0V-354.0Z"/></g>
<g fill="red" transform="translate(1300 300) scale(0.1 -0.1)"><path d="M0.0 0.0C-32.0 -158.0 -84.0 -307.0 -161.0 -406.0C-152.0 -409.0 -139.0 -416.0 -133.0 -421.0C-59.0 -319.0 -4.0 -169.0 30.0 -5.0ZM-437.0 -131.0V-727.0H-407.0V-131.0Z"/></g>
<g fill="black" opacity=".8" transform="translate(1300 300) scale(0.1 -0.1)"><path d="M0.0 0.0C-34.0 -156.0 -87.0 -303.0 -166.0 -403.0C-154.0 -407.0 -141.0 -416.0 -135.0 -420.0C-62.0 -318.0 -4.0 -166.0 32.0 -7.0ZM-437.0 -120.0 -439.0 -745.0 -403.0 -746.0 -402.0 -122.0Z"/></g>
<g fill="red" transform="translate(1400 300) scale(0.1 -0.1)"><path d="M0.0 0.0C-21.0 -150.0 -68.0 -295.0 -144.0 -379.0C-108.0 -393.0 -39.0 -426.0 -9.0 -445.0C62.0 -349.0 117.0 -192.0 145.0 -22.0ZM-398.0 -114.0V-776.0H-277.0V-114.0Z"/></g>
<g fill="black" opacity=".8" transform="translate(1400 300) scale(0.1 -0.1)"><path d="M0.0 0.0C-23.0 -145.0 -69.0 -289.0 -139.0 -376.0C-103.0 -394.0 -34.0 -432.0 -5.0 -455.0C63.0 -355.0 120.0 -194.0 150.0 -27.0ZM-397.0 -128.0 -398.0 -755.0H-283.0V-128.0Z"/></g>
<g fill="red" transform="translate(1500 300) scale(0.1 -0.1)"><path d="M0.0 0.0C-63.0 -156.0 -161.0 -307.0 -272.0 -406.0C-263.0 -409.0 -249.0 -418.0 -244.0 -423.0C-138.0 -321.0 -39.0 -170.0 29.0 -8.0ZM-86.0 -184.0V-213.0H595.0V-184.0Z"/></g>
<g fill="black" opacity=".8" transform="translate(1500 300) scale(0.1 -0.1)"><path d="M0.0 0.0C-60.0 -155.0 -158.0 -304.0 -272.0 -401.0C-262.0 -406.0 -252.0 -418.0 -247.0 -423.0C-135.0 -320.0 -35.0 -170.0 30.0 -8.0ZM-97.0 -178.0 -100.0 -213.0H603.0L604.0 -179.0Z"/></g>
<g fill="red" transform="translate(1600 300) scale(0.1 -0.1)"><path d="M0.0 0.0C-51.0 -145.0 -143.0 -291.0 -244.0 -378.0C-206.0 -399.0 -139.0 -446.0 -109.0 -473.0C-12.0 -372.0 90.0 -206.0 154.0 -42.0ZM-29.0 -144.0V-287.0H678.0V-144.0Z"/></g>
<g fill="black" opacity=".8" transform="translate(1600 300) scale(0.1 -0.1)"><path d="M0.0 0.0C-50.0 -140.0 -137.0 -281.0 -235.0 -368.0C-201.0 -395.0 -141.0 -454.0 -116.0 -486.0C-11.0 -380.0 91.0 -210.0 154.0 -43.0ZM-13.0 -149.0 -25.0 -289.0H669.0L670.0 -147.0Z"/></g>
<g fill="red" transform="translate(100 400) scale(0.1 -0.1)"><path d="M0.0 0.0C-37.0 -140.0 -96.0 -277.0 -169.0 -369.0C-162.0 -373.0 -149.0 -383.0 -143.0 -388.0C-71.0 -292.0 -11.0 -153.0 30.0 -6.0ZM-91.0 -357.0V-387.0H254.0V-357.0Z"/></g>
<g fill="black" opacity=".8" transform="translate(100 400) scale(0.1 -0.1)"><path d="M0.0 0.0C-36.0 -140.0 -96.0 -275.0 -175.0 -366.0C-165.0 -370.0 -153.0 -379.0 -147.0 -383.0C-72.0 -289.0 -10.0 -152.0 30.0 -7.0ZM-88.0 -367.0 -89.0 -393.0H256.0V-367.0Z"/></g>
<g fill="red" transform="translate(200 400) scale(0.1 -0.1)"><path d="M0.0 0.0C-30.0 -114.0 -87.0 -230.0 -156.0 -300.0C-124.0 -320.0 -65.0 -362.0 -39.0 -386.0C32.0 -302.0 100.0 -167.0 140.0 -33.0ZM-40.0 -367.0V-494.0H253.0V-367.0Z"/></g>
<g fill="black" opacity=".8" transform="translate(200 400) scale(0.1 -0.1)"><path d="M0.0 0.0C-29.0 -115.0 -83.0 -230.0 -155.0 -300.0C-123.0 -321.0 -63.0 -364.0 -38.0 -390.0C37.0 -305.0 104.0 -170.0 142.0 -32.0ZM-42.0 -358.0 -40.0 -487.0 248.0 -488.0 249.0 -358.0Z"/></g>
<g fill="red" transform="translate(300 400) scale(0.1 -0.1)"><path d="M0.0 0.0C-41.0 -137.0 -107.0 -266.0 -190.0 -353.0C-181.0 -357.0 -168.0 -367.0 -163.0 -371.0C-83.0 -282.0 -14.0 -150.0 29.0 -7.0ZM-85.0 -366.0V-396.0H304.0V-366.0Z"/></g>
<g fill="black" opacity=".8" transform="translate(300 400) scale(0.1 -0.1)"><path d="M0.0 0.0C-41.0 -136.0 -107.0 -266.0 -189.0 -354.0C-179.0 -359.0 -167.0 -369.0 -161.0 -372.0C-83.0 -281.0 -14.0 -148.0 30.0 -7.0ZM-85.0 -361.0V-394.0H301.0V-361.0Z"/></g>
<g fill="red" transform="translate(400 400) scale(0.1 -0.1)"><path d="M0.0 0.0C-35.0 -118.0 -103.0 -234.0 -183.0 -304.0C-149.0 -326.0 -90.0 -375.0 -65.0 -401.0C19.0 -316.0 98.0 -177.0 145.0 -36.0ZM-46.0 -352.0V-486.0H288.0V-352.0Z"/></g>
<g fill="black" opacity=".8" transform="translate(400 400) scale(0.1 -0.1)"><path d="M0.0 0.0C-37.0 -116.0 -104.0 -232.0 -183.0 -304.0C-150.0 -326.0 -91.0 -373.0 -66.0 -401.0C15.0 -314.0 96.0 -176.0 143.0 -38.0ZM-46.0 -357.0V-488.0H290.0V-356.0Z"/></g>
<g fill="red" transform="translate(500 400) scale(0.1 -0.1)"><path d="M0.0 0.0C-35.0 -125.0 -94.0 -247.0 -165.0 -328.0C-157.0 -333.0 -145.0 -342.0 -140.0 -347.0C-70.0 -262.0 -9.0 -137.0 29.0 -6.0ZM-173.0 -453.0V-482.0H423.0V-453.0Z"/></g>
<g fill="black" opacity=".8" transform="translate(500 400) scale(0.1 -0.1)"><path d="M0.0 0.0C-36.0 -124.0 -95.0 -246.0 -170.0 -328.0C-159.0 -332.0 -148.0 -341.0 -142.0 -344.0C-71.0 -260.0 -10.0 -136.0 29.0 -7.0ZM-169.0 -456.0V-488.0L425.0 -489.0L426.0 -457.0Z"/></g>
<g fill="red" transform="translate(600 400) scale(0.1 -0.1)"><path d="M0.0 0.0C-28.0 -120.0 -82.0 -244.0 -150.0 -317.0C-114.0 -333.0 -48.0 -368.0 -18.0 -390.0C46.0 -305.0 109.0 -168.0 145.0 -31.0ZM-105.0 -448.0V-589.0H490.0V-448.0Z"/></g>
<g fill="black" opacity=".8" transform="translate(600 400) scale(0.1 -0.1)"><path d="M0.0 0.0C-26.0 -122.0 -77.0 -245.0 -146.0 -319.0C-111.0 -335.0 -47.0 -370.0 -19.0 -392.0C47.0 -306.0 108.0 -169.0 141.0 -29.0ZM-110.0 -446.0 -108.0 -582.0H485.0L486.0 -446.0Z"/></g>
<g fill="red" transform="translate(700 400) scale(0.1 -0.1)"><path d="M0.0 0.0C-42.0 -134.0 -111.0 -263.0 -192.0 -349.0C-185.0 -354.0 -171.0 -364.0 -165.0 -369.0C-86.0 -280.0 -14.0 -148.0 31.0 -7.0ZM-94.0 -363.0V-393.0H307.0V-363.0Z"/></g>
<g fill="black" opacity=".8" transform="translate(700 400) scale(0.1 -0.1)"><path d="M0.0 0.0C-42.0 -135.0 -111.0 -264.0 -193.0 -350.0C-182.0 -354.0 -170.0 -365.0 -164.0 -368.0C-86.0 -279.0 -15.0 -148.0 31.0 -8.0ZM-93.0 -362.0V-392.0H303.0L304.0 -363.0Z"/></g>
<g fill="red" transform="translate(800 400) scale(0.1 -0.1)"><path d="M0.0 0.0C-37.0 -126.0 -105.0 -253.0 -185.0 -329.0C-150.0 -350.0 -87.0 -397.0 -60.0 -423.0C21.0 -332.0 101.0 -184.0 149.0 -37.0ZM-56.0 -369.0V-503.0H291.0V-369.0Z"/></g>
<g fill="black" opacity=".8" transform="translate(800 400) scale(0.1 -0.1)"><path d="M0.0 0.0C-38.0 -126.0 -107.0 -253.0 -188.0 -330.0C-152.0 -351.0 -88.0 -394.0 -60.0 -421.0C19.0 -331.0 102.0 -185.0 149.0 -39.0ZM-57.0 -370.0 -55.0 -504.0H292.0L293.0 -369.0Z"/></g>
<g fill="red" transform="translate(900 400) scale(0.1 -0.1)"><path d="M0.0 0.0C-35.0 -133.0 -94.0 -260.0 -168.0 -345.0C-160.0 -349.0 -146.0 -358.0 -142.0 -363.0C-69.0 -275.0 -8.0 -146.0 29.0 -6.0ZM-153.0 -544.0 -143.0 -568.0 369.0 -364.0 358.0 -339.0Z"/></g>
<g fill="black" opacity=".8" transform="translate(900 400) scale(0.1 -0.1)"><path d="M0.0 0.0C-34.0 -133.0 -93.0 -259.0 -169.0 -343.0C-159.0 -348.0 -146.0 -359.0 -140.0 -363.0C-68.0 -275.0 -6.0 -146.0 31.0 -8.0ZM-153.0 -541.0 -143.0 -563.0 362.0 -364.0 354.0 -342.0Z"/></g>
<g fill="red" transform="translate(1000 400) scale(0.1 -0.1)"><path d="M0.0 0.0C-31.0 -116.0 -91.0 -231.0 -165.0 -300.0C-132.0 -320.0 -72.0 -364.0 -46.0 -389.0C30.0 -305.0 101.0 -170.0 142.0 -33.0ZM-136.0 -509.0 -95.0 -633.0 368.0 -461.0 328.0 -339.0Z"/></g>
<g fill="black" opacity=".8" transform="translate(1000 400) scale(0.1 -0.1)"><path d="M0.0 0.0C-33.0 -114.0 -94.0 -228.0 -170.0 -298.0C-135.0 -319.0 -73.0 -362.0 -44.0 -388.0C31.0 -306.0 104.0 -174.0 146.0 -37.0ZM-135.0 -513.0 -93.0 -639.0 370.0 -460.0 334.0 -336.0Z"/></g>
<g fill="red" transform="translate(1100 400) scale(0.1 -0.1)"><path d="M0.0 0.0C-30.0 -113.0 -81.0 -222.0 -146.0 -296.0C-138.0 -300.0 -125.0 -309.0 -119.0 -313.0C-58.0 -237.0 -3.0 -124.0 30.0 -6.0ZM-158.0 -506.0V-536.0H455.0V-506.0Z"/></g>
<g fill="black" opacity=".8" transform="translate(1100 400) scale(0.1 -0.1)"><path d="M0.0 0.0C-30.0 -112.0 -80.0 -223.0 -145.0 -299.0C-134.0 -303.0 -124.0 -311.0 -118.0 -314.0C-58.0 -236.0 -5.0 -122.0 27.0 -6.0ZM-158.0 -500.0 -159.0 -532.0H455.0L456.0 -500.0Z"/></g>
<g fill="red" transform="translate(1200 400) scale(0.1 -0.1)"><path d="M0.0 0.0C-29.0 -103.0 -86.0 -205.0 -157.0 -267.0C-126.0 -287.0 -72.0 -331.0 -48.0 -354.0C28.0 -278.0 96.0 -155.0 136.0 -30.0ZM-115.0 -466.0V-587.0H512.0V-466.0Z"/></g>
<g fill="black" opacity=".8" transform="translate(1200 400) scale(0.1 -0.1)"><path d="M0.0 0.0C-30.0 -101.0 -86.0 -203.0 -153.0 -268.0C-124.0 -287.0 -73.0 -329.0 -51.0 -354.0C20.0 -277.0 89.0 -154.0 128.0 -32.0ZM-115.0 -471.0 -116.0 -592.0H511.0V-470.0Z"/></g>
<g fill="red" transform="translate(1300 400) scale(0.1 -0.1)"><path d="M0.0 0.0C-31.0 -144.0 -80.0 -284.0 -150.0 -377.0C-142.0 -380.0 -128.0 -388.0 -122.0 -392.0C-55.0 -297.0 -3.0 -156.0 30.0 -6.0ZM-420.0 -374.0V-404.0H-195.0V-374.0Z"/></g>
<g fill="black" opacity=".8" transform="translate(1300 400) scale(0.1 -0.1)"><path d="M0.0 0.0C-30.0 -146.0 -78.0 -285.0 -149.0 -378.0C-138.0 -381.0 -125.0 -389.0 -120.0 -392.0C-55.0 -298.0 -3.0 -157.0 28.0 -7.0ZM-422.0 -372.0 -421.0 -396.0 -199.0 -398.0 -198.0 -374.0Z"/></g>
<g fill="red" transform="translate(1400 400) scale(0.1 -0.1)"><path d="M0.0 0.0C-25.0 -129.0 -73.0 -262.0 -135.0 -342.0C-100.0 -358.0 -34.0 -393.0 -4.0 -414.0C56.0 -323.0 113.0 -175.0 145.0 -29.0ZM-350.0 -350.0V-476.0H-165.0V-350.0Z"/></g>
<g fill="black" opacity=".8" transform="translate(1400 400) scale(0.1 -0.1)"><path d="M0.0 0.0C-24.0 -133.0 -72.0 -265.0 -140.0 -345.0C-105.0 -358.0 -37.0 -387.0 -8.0 -407.0C54.0 -320.0 111.0 -177.0 140.0 -27.0ZM-351.0 -351.0 -346.0 -484.0 -163.0 -483.0V-348.0Z"/></g>
<g fill="red" transform="translate(1500 400) scale(0.1 -0.1)"><path d="M0.0 0.0C-40.0 -137.0 -107.0 -266.0 -188.0 -353.0C-181.0 -357.0 -168.0 -366.0 -163.0 -371.0C-83.0 -281.0 -14.0 -150.0 29.0 -6.0ZM-84.0 -366.0V-396.0H305.0V-366.0Z"/></g>
<g fill="black" opacity=".8" transform="translate(1500 400) scale(0.1 -0.1)"><path d="M0.0 0.0C-41.0 -135.0 -107.0 -266.0 -189.0 -353.0C-178.0 -357.0 -167.0 -367.0 -161.0 -371.0C-83.0 -280.0 -14.0 -148.0 29.0 -7.0ZM-86.0 -362.0 -87.0 -395.0 304.0 -396.0 305.0 -362.0Z"/></g>
<g fill="red" transform="translate(1600 400) scale(0.1 -0.1)"><path d="M0.0 0.0C-36.0 -118.0 -103.0 -234.0 -183.0 -304.0C-150.0 -326.0 -92.0 -373.0 -67.0 -399.0C16.0 -314.0 95.0 -175.0 142.0 -35.0ZM-47.0 -352.0V-486.0H300.0V-352.0Z"/></g>
<g fill="black" opacity=".8" transform="translate(1600 400) scale(0.1 -0.1)"><path d="M0.0 0.0C-37.0 -115.0 -104.0 -231.0 -182.0 -303.0C-150.0 -326.0 -93.0 -373.0 -68.0 -401.0C13.0 -314.0 94.0 -175.0 141.0 -37.0ZM-45.0 -356.0V-487.0H299.0V-355.0Z"/></g>
<g fill="red" transform="translate(100 500) scale(0.1 -0.1)"><path d="M0.0 0.0C-34.0 -127.0 -89.0 -253.0 -157.0 -336.0C-150.0 -340.0 -136.0 -349.0 -131.0 -353.0C-64.0 -267.0 -8.0 -139.0 30.0 -6.0ZM-169.0 -455.0V-485.0H471.0V-455.0Z"/></g>
<g fill="black" opacity=".8" transform="translate(100 500) scale(0.1 -0.1)"><path d="M0.0 0.0C-34.0 -127.0 -89.0 -250.0 -162.0 -334.0C-151.0 -338.0 -137.0 -347.0 -131.0 -351.0C-62.0 -266.0 -3.0 -139.0 32.0 -7.0ZM-168.0 -461.0V-490.0L468.0 -491.0L469.0 -461.0Z"/></g>
<g fill="red" transform="translate(200 500) scale(0.1 -0.1)"><path d="M0.0 0.0C-33.0 -120.0 -92.0 -250.0 -154.0 -329.0C-118.0 -349.0 -52.0 -392.0 -23.0 -417.0C40.0 -325.0 109.0 -175.0 152.0 -39.0ZM-130.0 -456.0V-596.0H510.0V-456.0Z"/></g>
<g fill="black" opacity=".8" transform="translate(200 500) scale(0.1 -0.1)"><path d="M0.0 0.0C-30.0 -127.0 -87.0 -255.0 -163.0 -334.0C-125.0 -351.0 -54.0 -388.0 -23.0 -412.0C48.0 -323.0 116.0 -180.0 154.0 -34.0ZM-130.0 -452.0 -127.0 -590.0H509.0L510.0 -451.0Z"/></g>
<g fill="red" transform="translate(300 500) scale(0.1 -0.1)"><path d="M0.0 0.0C-36.0 -132.0 -98.0 -258.0 -175.0 -340.0C-167.0 -345.0 -155.0 -355.0 -149.0 -359.0C-74.0 -272.0 -10.0 -145.0 30.0 -6.0ZM-180.0 -534.0 -169.0 -558.0 378.0 -348.0 368.0 -323.0Z"/></g>
<g fill="black" opacity=".8" transform="translate(300 500) scale(0.1 -0.1)"><path d="M0.0 0.0C-36.0 -132.0 -98.0 -258.0 -175.0 -341.0C-165.0 -346.0 -155.0 -357.0 -149.0 -360.0C-76.0 -273.0 -11.0 -145.0 29.0 -8.0ZM-178.0 -534.0 -168.0 -558.0 379.0 -346.0 370.0 -321.0Z"/></g>
<g fill="red" transform="translate(400 500) scale(0.1 -0.1)"><path d="M0.0 0.0C-31.0 -121.0 -91.0 -241.0 -167.0 -313.0C-134.0 -334.0 -77.0 -383.0 -52.0 -409.0C28.0 -321.0 101.0 -178.0 142.0 -33.0ZM-133.0 -497.0 -93.0 -621.0 440.0 -426.0 401.0 -304.0Z"/></g>
<g fill="black" opacity=".8" transform="translate(400 500) scale(0.1 -0.1)"><path d="M0.0 0.0C-32.0 -121.0 -91.0 -241.0 -163.0 -315.0C-132.0 -336.0 -76.0 -381.0 -52.0 -407.0C22.0 -320.0 93.0 -178.0 134.0 -35.0ZM-135.0 -497.0 -96.0 -621.0 438.0 -429.0 399.0 -306.0Z"/></g>
<g fill="red" transform="translate(500 500) scale(0.1 -0.1)"><path d="M0.0 0.0C-24.0 -122.0 -62.0 -245.0 -116.0 -328.0C-108.0 -331.0 -93.0 -337.0 -87.0 -340.0C-37.0 -257.0 3.0 -132.0 29.0 -5.0ZM-110.0 -446.0V-475.0H319.0V-446.0Z"/></g>
<g fill="black" opacity=".8" transform="translate(500 500) scale(0.1 -0.1)"><path d="M0.0 0.0C-22.0 -124.0 -60.0 -243.0 -117.0 -324.0C-107.0 -328.0 -94.0 -336.0 -88.0 -339.0C-36.0 -256.0 5.0 -134.0 29.0 -6.0ZM-114.0 -446.0 -115.0 -478.0 318.0 -479.0 319.0 -446.0Z"/></g>
<g fill="red" transform="translate(600 500) scale(0.1 -0.1)"><path d="M0.0 0.0C-19.0 -120.0 -59.0 -240.0 -116.0 -313.0C-85.0 -329.0 -30.0 -365.0 -5.0 -386.0C54.0 -300.0 103.0 -163.0 128.0 -24.0ZM-82.0 -434.0V-570.0H356.0V-434.0Z"/></g>
<g fill="black" opacity=".8" transform="translate(600 500) scale(0.1 -0.1)"><path d="M0.0 0.0C-19.0 -119.0 -59.0 -237.0 -119.0 -310.0C-88.0 -328.0 -30.0 -366.0 -5.0 -388.0C57.0 -303.0 108.0 -167.0 134.0 -26.0ZM-77.0 -435.0 -76.0 -567.0H354.0L355.0 -434.0Z"/></g>
<g fill="red" transform="translate(700 500) scale(0.1 -0.1)"><path d="M0.0 0.0C-25.0 -122.0 -62.0 -245.0 -116.0 -328.0C-108.0 -331.0 -93.0 -337.0 -87.0 -341.0C-37.0 -258.0 3.0 -133.0 30.0 -6.0ZM-110.0 -446.0V-475.0H279.0V-446.0Z"/></g>
<g fill="black" opacity=".8" transform="translate(700 500) scale(0.1 -0.1)"><path d="M0.0 0.0C-22.0 -125.0 -59.0 -245.0 -115.0 -326.0C-105.0 -330.0 -93.0 -338.0 -88.0 -340.0C-36.0 -258.0 4.0 -135.0 28.0 -6.0ZM-111.0 -441.0 -112.0 -473.0 275.0 -474.0 276.0 -442.0Z"/></g>
<g fill="red" transform="translate(800 500) scale(0.1 -0.1)"><path d="M0.0 0.0C-17.0 -121.0 -52.0 -243.0 -104.0 -318.0C-75.0 -333.0 -21.0 -367.0 3.0 -387.0C57.0 -300.0 100.0 -162.0 123.0 -23.0ZM-64.0 -424.0V-559.0H323.0V-424.0Z"/></g>
<g fill="black" opacity=".8" transform="translate(800 500) scale(0.1 -0.1)"><path d="M0.0 0.0C-16.0 -120.0 -51.0 -239.0 -106.0 -312.0C-77.0 -330.0 -23.0 -367.0 -0.0 -389.0C58.0 -303.0 105.0 -165.0 127.0 -23.0ZM-62.0 -430.0 -61.0 -560.0H325.0V-428.0Z"/></g>
<g fill="red" transform="translate(900 500) scale(0.1 -0.1)"><path d="M0.0 0.0C-45.0 -134.0 -119.0 -263.0 -205.0 -349.0C-196.0 -354.0 -183.0 -364.0 -178.0 -369.0C-93.0 -280.0 -18.0 -149.0 31.0 -8.0ZM-89.0 -363.0V-393.0H312.0V-363.0Z"/></g>
<g fill="black" opacity=".8" transform="translate(900 500) scale(0.1 -0.1)"><path d="M0.0 0.0C-45.0 -135.0 -119.0 -264.0 -205.0 -350.0C-194.0 -354.0 -182.0 -365.0 -177.0 -369.0C-95.0 -280.0 -19.0 -148.0 30.0 -8.0ZM-89.0 -362.0V-392.0H310.0L311.0 -362.0Z"/></g>
<g fill="red" transform="translate(1000 500) scale(0.1 -0.1)"><path d="M0.0 0.0C-40.0 -126.0 -113.0 -253.0 -197.0 -329.0C-162.0 -350.0 -100.0 -397.0 -72.0 -424.0C13.0 -333.0 98.0 -185.0 149.0 -38.0ZM-48.0 -369.0V-503.0H299.0V-369.0Z"/></g>
<g fill="black" opacity=".8" transform="translate(1000 500) scale(0.1 -0.1)"><path d="M0.0 0.0C-41.0 -125.0 -114.0 -252.0 -197.0 -329.0C-163.0 -351.0 -99.0 -396.0 -72.0 -423.0C10.0 -333.0 97.0 -185.0 147.0 -40.0ZM-49.0 -371.0 -48.0 -504.0H299.0L300.0 -370.0Z"/></g>
<g fill="red" transform="translate(1100 500) scale(0.1 -0.1)"><path d="M0.0 0.0C-34.0 -111.0 -87.0 -218.0 -152.0 -292.0C-144.0 -296.0 -131.0 -306.0 -127.0 -310.0C-65.0 -235.0 -9.0 -122.0 28.0 -7.0ZM-344.0 -85.0V-711.0H-316.0V-85.0Z"/></g>
<g fill="black" opacity=".8" transform="translate(1100 500) scale(0.1 -0.1)"><path d="M0.0 0.0C-33.0 -113.0 -83.0 -221.0 -151.0 -294.0C-140.0 -298.0 -130.0 -306.0 -125.0 -309.0C-63.0 -234.0 -8.0 -122.0 26.0 -6.0ZM-342.0 -97.0 -343.0 -693.0 -323.0 -692.0V-97.0Z"/></g>
<g fill="red" transform="translate(1200 500) scale(0.1 -0.1)"><path d="M0.0 0.0C-31.0 -101.0 -86.0 -209.0 -144.0 -275.0C-112.0 -294.0 -57.0 -334.0 -32.0 -358.0C26.0 -280.0 91.0 -153.0 131.0 -36.0ZM-340.0 -137.0V-673.0H-261.0V-137.0Z"/></g>
<g fill="black" opacity=".8" transform="translate(1200 500) scale(0.1 -0.1)"><path d="M0.0 0.0C-30.0 -106.0 -85.0 -213.0 -151.0 -279.0C-119.0 -295.0 -62.0 -327.0 -37.0 -347.0C24.0 -273.0 88.0 -153.0 125.0 -31.0ZM-341.0 -122.0 -339.0 -696.0 -256.0 -695.0V-121.0Z"/></g>
<g fill="red" transform="translate(1300 500) scale(0.1 -0.1)"><path d="M0.0 0.0C-33.0 -118.0 -87.0 -232.0 -156.0 -308.0C-147.0 -312.0 -134.0 -320.0 -129.0 -325.0C-65.0 -245.0 -8.0 -130.0 29.0 -6.0ZM-50.0 -290.0V-320.0H330.0V-290.0Z"/></g>
<g fill="black" opacity=".8" transform="translate(1300 500) scale(0.1 -0.1)"><path d="M0.0 0.0C-32.0 -117.0 -85.0 -230.0 -157.0 -307.0C-147.0 -311.0 -136.0 -320.0 -131.0 -323.0C-63.0 -243.0 -7.0 -128.0 27.0 -6.0ZM-56.0 -286.0 -57.0 -322.0H338.0V-285.0Z"/></g>
<g fill="red" transform="translate(1400 500) scale(0.1 -0.1)"><path d="M0.0 0.0C-35.0 -89.0 -103.0 -177.0 -179.0 -230.0C-146.0 -247.0 -89.0 -286.0 -62.0 -309.0C12.0 -246.0 89.0 -143.0 134.0 -35.0ZM-48.0 -263.0V-384.0H313.0V-263.0Z"/></g>
<g fill="black" opacity=".8" transform="translate(1400 500) scale(0.1 -0.1)"><path d="M0.0 0.0C-34.0 -86.0 -96.0 -171.0 -170.0 -226.0C-140.0 -247.0 -90.0 -291.0 -68.0 -318.0C10.0 -250.0 84.0 -144.0 129.0 -35.0ZM-44.0 -266.0V-382.0L305.0 -384.0L304.0 -267.0Z"/></g>
<g fill="red" transform="translate(1500 500) scale(0.1 -0.1)"><path d="M0.0 0.0C-27.0 -75.0 -79.0 -176.0 -152.0 -251.0C-144.0 -254.0 -135.0 -262.0 -129.0 -268.0C-52.0 -188.0 -1.0 -86.0 31.0 -3.0ZM-168.0 -390.0V-419.0H525.0V-390.0Z"/></g>
<g fill="black" opacity=".8" transform="translate(1500 500) scale(0.1 -0.1)"><path d="M0.0 0.0C-31.0 -92.0 -81.0 -186.0 -148.0 -251.0C-139.0 -254.0 -131.0 -261.0 -127.0 -264.0C-63.0 -196.0 -10.0 -101.0 23.0 -5.0ZM-158.0 -388.0V-415.0H520.0V-388.0Z"/></g>
<g fill="red" transform="translate(1600 500) scale(0.1 -0.1)"><path d="M0.0 0.0C-24.0 -61.0 -68.0 -131.0 -136.0 -185.0C-106.0 -201.0 -62.0 -238.0 -40.0 -265.0C38.0 -194.0 88.0 -111.0 126.0 -21.0ZM-106.0 -348.0V-446.0H565.0V-348.0Z"/></g>
<g fill="black" opacity=".8" transform="translate(1600 500) scale(0.1 -0.1)"><path d="M0.0 0.0C-26.0 -70.0 -73.0 -141.0 -133.0 -186.0C-106.0 -201.0 -58.0 -230.0 -37.0 -251.0C24.0 -195.0 79.0 -113.0 113.0 -26.0ZM-117.0 -350.0 -115.0 -450.0 569.0 -451.0V-351.0Z"/></g>
<g fill="red" transform="translate(100 600) scale(0.1 -0.1)"><path d="M0.0 0.0C-41.0 -145.0 -109.0 -284.0 -191.0 -377.0C-183.0 -381.0 -170.0 -391.0 -165.0 -396.0C-84.0 -300.0 -16.0 -158.0 29.0 -7.0ZM-91.0 -360.0V-390.0H266.0V-360.0Z"/></g>
<g fill="black" opacity=".8" transform="translate(100 600) scale(0.1 -0.1)"><path d="M0.0 0.0C-42.0 -145.0 -111.0 -283.0 -195.0 -375.0C-184.0 -379.0 -172.0 -390.0 -166.0 -394.0C-86.0 -298.0 -15.0 -158.0 31.0 -8.0ZM-84.0 -366.0 -85.0 -387.0H257.0L258.0 -366.0Z"/></g>
<g fill="red" transform="translate(200 600) scale(0.1 -0.1)"><path d="M0.0 0.0C-36.0 -133.0 -102.0 -266.0 -182.0 -346.0C-149.0 -365.0 -89.0 -408.0 -63.0 -431.0C17.0 -337.0 94.0 -185.0 140.0 -33.0ZM-33.0 -373.0V-496.0H242.0V-373.0Z"/></g>
<g fill="black" opacity=".8" transform="translate(200 600) scale(0.1 -0.1)"><path d="M0.0 0.0C-36.0 -130.0 -103.0 -259.0 -184.0 -339.0C-150.0 -361.0 -87.0 -409.0 -61.0 -437.0C21.0 -343.0 102.0 -190.0 148.0 -38.0ZM-38.0 -369.0 -37.0 -498.0H247.0L248.0 -368.0Z"/></g>
<g fill="red" transform="translate(300 600) scale(0.1 -0.1)"><path d="M0.0 0.0C-38.0 -140.0 -96.0 -277.0 -170.0 -369.0C-162.0 -373.0 -149.0 -382.0 -144.0 -387.0C-73.0 -292.0 -12.0 -152.0 29.0 -6.0ZM-86.0 -357.0V-387.0H259.0V-357.0Z"/></g>
<g fill="black" opacity=".8" transform="translate(300 600) scale(0.1 -0.1)"><path d="M0.0 0.0C-36.0 -140.0 -96.0 -275.0 -174.0 -365.0C-163.0 -370.0 -151.0 -380.0 -145.0 -383.0C-72.0 -290.0 -9.0 -153.0 30.0 -7.0ZM-85.0 -368.0 -86.0 -393.0 257.0 -394.0 258.0 -369.0Z"/></g>
<g fill="red" transform="translate(400 600) scale(0.1 -0.1)"><path d="M0.0 0.0C-34.0 -115.0 -97.0 -230.0 -171.0 -300.0C-142.0 -328.0 -94.0 -389.0 -75.0 -418.0C11.0 -327.0 91.0 -180.0 138.0 -36.0ZM-53.0 -367.0V-490.0H246.0V-367.0Z"/></g>
<g fill="black" opacity=".8" transform="translate(400 600) scale(0.1 -0.1)"><path d="M0.0 0.0C-36.0 -118.0 -101.0 -236.0 -180.0 -309.0C-148.0 -334.0 -92.0 -384.0 -68.0 -413.0C16.0 -324.0 96.0 -181.0 143.0 -38.0ZM-49.0 -357.0 -50.0 -483.0H244.0V-356.0Z"/></g>
<g fill="red" transform="translate(500 600) scale(0.1 -0.1)"><path d="M0.0 0.0C-32.0 -132.0 -86.0 -258.0 -155.0 -340.0C-147.0 -345.0 -136.0 -356.0 -130.0 -360.0C-65.0 -273.0 -8.0 -145.0 28.0 -7.0ZM-160.0 -534.0 -150.0 -558.0 331.0 -348.0 323.0 -323.0Z"/></g>
<g fill="black" opacity=".8" transform="translate(500 600) scale(0.1 -0.1)"><path d="M0.0 0.0C-31.0 -132.0 -86.0 -258.0 -157.0 -340.0C-147.0 -345.0 -136.0 -355.0 -130.0 -358.0C-64.0 -272.0 -7.0 -144.0 28.0 -7.0ZM-160.0 -535.0 -152.0 -560.0 333.0 -349.0 324.0 -323.0Z"/></g>
<g fill="red" transform="translate(600 600) scale(0.1 -0.1)"><path d="M0.0 0.0C-28.0 -121.0 -82.0 -241.0 -150.0 -313.0C-120.0 -334.0 -69.0 -383.0 -47.0 -409.0C25.0 -321.0 91.0 -178.0 128.0 -33.0ZM-117.0 -497.0 -81.0 -621.0 399.0 -426.0 363.0 -304.0Z"/></g>
<g fill="black" opacity=".8" transform="translate(600 600) scale(0.1 -0.1)"><path d="M0.0 0.0C-28.0 -121.0 -82.0 -240.0 -148.0 -314.0C-120.0 -336.0 -69.0 -383.0 -48.0 -409.0C24.0 -321.0 90.0 -177.0 127.0 -33.0ZM-116.0 -496.0 -79.0 -619.0 397.0 -427.0 359.0 -304.0Z"/></g>
<g fill="red" transform="translate(700 600) scale(0.1 -0.1)"><path d="M0.0 0.0C-31.0 -127.0 -83.0 -247.0 -153.0 -328.0C-145.0 -332.0 -131.0 -339.0 -125.0 -343.0C-59.0 -261.0 -5.0 -138.0 29.0 -6.0ZM-39.0 -169.0 -54.0 -199.0H380.0V-169.0Z"/></g>
<g fill="black" opacity=".8" transform="translate(700 600) scale(0.1 -0.1)"><path d="M0.0 0.0C-31.0 -128.0 -82.0 -248.0 -152.0 -327.0C-142.0 -331.0 -132.0 -340.0 -127.0 -343.0C-60.0 -261.0 -6.0 -138.0 27.0 -6.0ZM-46.0 -165.0 -50.0 -201.0 384.0 -206.0 386.0 -169.0Z"/></g>
<g fill="red" transform="translate(800 600) scale(0.1 -0.1)"><path d="M0.0 0.0C-29.0 -123.0 -86.0 -243.0 -158.0 -317.0C-129.0 -341.0 -79.0 -394.0 -58.0 -420.0C23.0 -328.0 93.0 -180.0 134.0 -31.0ZM25.0 -142.0 -39.0 -273.0H438.0V-142.0Z"/></g>
<g fill="black" opacity=".8" transform="translate(800 600) scale(0.1 -0.1)"><path d="M0.0 0.0C-29.0 -123.0 -83.0 -245.0 -154.0 -322.0C-127.0 -345.0 -79.0 -394.0 -61.0 -420.0C18.0 -327.0 86.0 -179.0 124.0 -30.0ZM-1.0 -143.0 -12.0 -268.0 431.0 -271.0 433.0 -144.0Z"/></g>
<g fill="red" transform="translate(900 600) scale(0.1 -0.1)"><path d="M0.0 0.0C-36.0 -140.0 -95.0 -277.0 -167.0 -369.0C-160.0 -373.0 -147.0 -383.0 -141.0 -388.0C-71.0 -292.0 -11.0 -153.0 29.0 -6.0ZM-90.0 -357.0V-387.0H250.0V-357.0Z"/></g>
<g fill="black" opacity=".8" transform="translate(900 600) scale(0.1 -0.1)"><path d="M0.0 0.0C-36.0 -140.0 -96.0 -275.0 -173.0 -366.0C-164.0 -370.0 -152.0 -379.0 -147.0 -383.0C-72.0 -289.0 -10.0 -152.0 29.0 -6.0ZM-85.0 -368.0 -86.0 -393.0 254.0 -394.0 255.0 -369.0Z"/></g>
<g fill="red" transform="translate(1000 600) scale(0.1 -0.1)"><path d="M0.0 0.0C-30.0 -114.0 -87.0 -230.0 -156.0 -300.0C-124.0 -320.0 -65.0 -362.0 -39.0 -386.0C32.0 -302.0 100.0 -167.0 140.0 -33.0ZM-28.0 -367.0V-490.0H265.0V-367.0Z"/></g>
<g fill="black" opacity=".8" transform="translate(1000 600) scale(0.1 -0.1)"><path d="M0.0 0.0C-28.0 -116.0 -80.0 -230.0 -150.0 -300.0C-119.0 -322.0 -63.0 -366.0 -39.0 -392.0C35.0 -306.0 101.0 -170.0 138.0 -31.0ZM-33.0 -357.0 -31.0 -483.0 258.0 -484.0 259.0 -357.0Z"/></g>
<g fill="red" transform="translate(1100 600) scale(0.1 -0.1)"><path d="M0.0 0.0C-33.0 -135.0 -87.0 -262.0 -160.0 -349.0C-151.0 -353.0 -139.0 -361.0 -133.0 -365.0C-62.0 -277.0 -6.0 -147.0 29.0 -6.0ZM-144.0 -455.0V-485.0H386.0V-455.0Z"/></g>
<g fill="black" opacity=".8" transform="translate(1100 600) scale(0.1 -0.1)"><path d="M0.0 0.0C-34.0 -133.0 -89.0 -261.0 -161.0 -347.0C-151.0 -352.0 -138.0 -361.0 -133.0 -364.0C-64.0 -275.0 -6.0 -144.0 30.0 -7.0ZM-146.0 -458.0 -147.0 -488.0 389.0 -489.0 390.0 -459.0Z"/></g>
<g fill="red" transform="translate(1200 600) scale(0.1 -0.1)"><path d="M0.0 0.0C-25.0 -129.0 -76.0 -260.0 -144.0 -338.0C-109.0 -356.0 -45.0 -396.0 -16.0 -419.0C52.0 -327.0 112.0 -178.0 146.0 -29.0ZM-92.0 -452.0V-590.0H449.0V-452.0Z"/></g>
<g fill="black" opacity=".8" transform="translate(1200 600) scale(0.1 -0.1)"><path d="M0.0 0.0C-25.0 -130.0 -74.0 -260.0 -143.0 -340.0C-109.0 -358.0 -44.0 -396.0 -17.0 -420.0C51.0 -328.0 112.0 -180.0 145.0 -29.0ZM-90.0 -449.0 -88.0 -587.0 444.0 -588.0 445.0 -448.0Z"/></g>
<g fill="red" transform="translate(1300 600) scale(0.1 -0.1)"><path d="M0.0 0.0C-35.0 -111.0 -89.0 -218.0 -155.0 -292.0C-147.0 -296.0 -134.0 -306.0 -129.0 -310.0C-66.0 -235.0 -9.0 -122.0 29.0 -7.0ZM-153.0 -488.0V-517.0H413.0V-488.0Z"/></g>
<g fill="black" opacity=".8" transform="translate(1300 600) scale(0.1 -0.1)"><path d="M0.0 0.0C-34.0 -111.0 -88.0 -219.0 -155.0 -293.0C-145.0 -297.0 -134.0 -305.0 -129.0 -308.0C-66.0 -233.0 -9.0 -121.0 27.0 -7.0ZM-158.0 -488.0V-515.0L416.0 -516.0L417.0 -489.0Z"/></g>
<g fill="red" transform="translate(1400 600) scale(0.1 -0.1)"><path d="M0.0 0.0C-35.0 -104.0 -98.0 -215.0 -163.0 -283.0C-131.0 -302.0 -75.0 -343.0 -50.0 -366.0C15.0 -287.0 88.0 -158.0 133.0 -37.0ZM-120.0 -475.0V-588.0H469.0V-475.0Z"/></g>
<g fill="black" opacity=".8" transform="translate(1400 600) scale(0.1 -0.1)"><path d="M0.0 0.0C-33.0 -106.0 -93.0 -215.0 -162.0 -283.0C-132.0 -302.0 -78.0 -342.0 -55.0 -366.0C15.0 -287.0 87.0 -159.0 129.0 -34.0ZM-115.0 -474.0V-591.0H464.0L465.0 -472.0Z"/></g>
<g fill="red" transform="translate(1500 600) scale(0.1 -0.1)"><path d="M0.0 0.0C-41.0 -137.0 -107.0 -266.0 -190.0 -353.0C-181.0 -357.0 -168.0 -367.0 -163.0 -371.0C-83.0 -282.0 -13.0 -150.0 30.0 -7.0ZM-85.0 -366.0V-396.0H306.0V-366.0Z"/></g>
<g fill="black" opacity=".8" transform="translate(1500 600) scale(0.1 -0.1)"><path d="M0.0 0.0C-41.0 -136.0 -108.0 -266.0 -190.0 -354.0C-179.0 -359.0 -168.0 -369.0 -162.0 -372.0C-84.0 -281.0 -15.0 -148.0 29.0 -7.0ZM-82.0 -362.0 -83.0 -394.0H303.0L304.0 -362.0Z"/></g>
<g fill="red" transform="translate(1600 600) scale(0.1 -0.1)"><path d="M0.0 0.0C-35.0 -118.0 -103.0 -234.0 -183.0 -304.0C-149.0 -326.0 -90.0 -375.0 -65.0 -401.0C19.0 -316.0 98.0 -177.0 145.0 -36.0ZM-38.0 -352.0V-486.0H296.0V-352.0Z"/></g>
<g fill="black" opacity=".8" transform="translate(1600 600) scale(0.1 -0.1)"><path d="M0.0 0.0C-36.0 -116.0 -103.0 -232.0 -181.0 -304.0C-149.0 -327.0 -91.0 -374.0 -66.0 -401.0C15.0 -315.0 95.0 -176.0 142.0 -37.0ZM-41.0 -357.0 -40.0 -487.0 297.0 -488.0V-356.0Z"/></g>
<g fill="red" transform="translate(100 700) scale(0.1 -0.1)"><path d="M0.0 0.0C-29.0 -137.0 -78.0 -266.0 -147.0 -353.0C-139.0 -357.0 -126.0 -363.0 -120.0 -367.0C-53.0 -279.0 -2.0 -148.0 29.0 -5.0ZM-152.0 -486.0V-515.0H440.0V-486.0Z"/></g>
<g fill="black" opacity=".8" transform="translate(100 700) scale(0.1 -0.1)"><path d="M0.0 0.0C-29.0 -134.0 -78.0 -264.0 -147.0 -353.0C-136.0 -357.0 -124.0 -365.0 -118.0 -369.0C-52.0 -278.0 -1.0 -145.0 31.0 -6.0ZM-159.0 -482.0V-511.0L440.0 -512.0L442.0 -483.0Z"/></g>
<g fill="red" transform="translate(200 700) scale(0.1 -0.1)"><path d="M0.0 0.0C-17.0 -137.0 -56.0 -272.0 -121.0 -350.0C-85.0 -364.0 -16.0 -396.0 14.0 -416.0C75.0 -324.0 122.0 -177.0 144.0 -21.0ZM-100.0 -463.0V-603.0H522.0V-463.0Z"/></g>
<g fill="black" opacity=".8" transform="translate(200 700) scale(0.1 -0.1)"><path d="M0.0 0.0C-18.0 -133.0 -56.0 -265.0 -119.0 -346.0C-84.0 -362.0 -18.0 -397.0 10.0 -420.0C73.0 -326.0 122.0 -179.0 146.0 -25.0ZM-94.0 -466.0 -92.0 -608.0H520.0L521.0 -464.0Z"/></g>
<g fill="red" transform="translate(300 700) scale(0.1 -0.1)"><path d="M0.0 0.0C-30.0 -113.0 -80.0 -222.0 -142.0 -296.0C-134.0 -300.0 -122.0 -309.0 -117.0 -313.0C-56.0 -237.0 -3.0 -124.0 29.0 -6.0ZM-154.0 -506.0V-536.0H442.0V-506.0Z"/></g>
<g fill="black" opacity=".8" transform="translate(300 700) scale(0.1 -0.1)"><path d="M0.0 0.0C-29.0 -112.0 -78.0 -223.0 -141.0 -299.0C-131.0 -303.0 -121.0 -311.0 -116.0 -314.0C-56.0 -236.0 -5.0 -122.0 27.0 -6.0ZM-155.0 -500.0 -157.0 -533.0 444.0 -534.0 445.0 -501.0Z"/></g>
<g fill="red" transform="translate(400 700) scale(0.1 -0.1)"><path d="M0.0 0.0C-28.0 -103.0 -82.0 -205.0 -149.0 -267.0C-119.0 -288.0 -65.0 -334.0 -42.0 -358.0C30.0 -281.0 96.0 -157.0 134.0 -32.0ZM-107.0 -466.0V-587.0H515.0V-466.0Z"/></g>
<g fill="black" opacity=".8" transform="translate(400 700) scale(0.1 -0.1)"><path d="M0.0 0.0C-28.0 -102.0 -80.0 -205.0 -145.0 -271.0C-117.0 -290.0 -67.0 -332.0 -47.0 -356.0C23.0 -278.0 87.0 -154.0 124.0 -30.0ZM-106.0 -471.0 -108.0 -591.0H511.0L512.0 -469.0Z"/></g>
<g fill="red" transform="translate(500 700) scale(0.1 -0.1)"><path d="M0.0 0.0C-42.0 -119.0 -109.0 -235.0 -189.0 -311.0C-180.0 -316.0 -167.0 -325.0 -161.0 -329.0C-86.0 -250.0 -16.0 -132.0 30.0 -7.0ZM-60.0 -304.0V-333.0H325.0V-304.0Z"/></g>
<g fill="black" opacity=".8" transform="translate(500 700) scale(0.1 -0.1)"><path d="M0.0 0.0C-41.0 -121.0 -108.0 -237.0 -186.0 -314.0C-177.0 -318.0 -166.0 -328.0 -161.0 -331.0C-86.0 -251.0 -17.0 -133.0 27.0 -7.0ZM-58.0 -297.0V-327.0H321.0L322.0 -297.0Z"/></g>
<g fill="red" transform="translate(600 700) scale(0.1 -0.1)"><path d="M0.0 0.0C-36.0 -111.0 -103.0 -221.0 -181.0 -288.0C-148.0 -308.0 -91.0 -352.0 -66.0 -376.0C13.0 -296.0 92.0 -166.0 138.0 -35.0ZM-20.0 -294.0V-415.0H309.0V-294.0Z"/></g>
<g fill="black" opacity=".8" transform="translate(600 700) scale(0.1 -0.1)"><path d="M0.0 0.0C-37.0 -109.0 -103.0 -219.0 -178.0 -287.0C-148.0 -308.0 -93.0 -350.0 -69.0 -375.0C6.0 -294.0 85.0 -165.0 131.0 -36.0ZM-23.0 -301.0V-421.0H311.0L312.0 -300.0Z"/></g>
<g fill="red" transform="translate(700 700) scale(0.1 -0.1)"><path d="M0.0 0.0C-39.0 -125.0 -102.0 -247.0 -178.0 -328.0C-169.0 -332.0 -156.0 -341.0 -150.0 -346.0C-78.0 -262.0 -13.0 -137.0 30.0 -7.0ZM-176.0 -426.0V-456.0H473.0V-426.0Z"/></g>
<g fill="black" opacity=".8" transform="translate(700 700) scale(0.1 -0.1)"><path d="M0.0 0.0C-37.0 -124.0 -97.0 -248.0 -177.0 -332.0C-167.0 -335.0 -156.0 -344.0 -150.0 -348.0C-74.0 -260.0 -11.0 -136.0 29.0 -6.0ZM-175.0 -421.0 -174.0 -452.0H466.0L467.0 -421.0Z"/></g>
<g fill="red" transform="translate(800 700) scale(0.1 -0.1)"><path d="M0.0 0.0C-25.0 -107.0 -75.0 -212.0 -142.0 -276.0C-108.0 -294.0 -46.0 -334.0 -19.0 -358.0C49.0 -282.0 110.0 -158.0 144.0 -30.0ZM-116.0 -392.0V-523.0H510.0V-392.0Z"/></g>
<g fill="black" opacity=".8" transform="translate(800 700) scale(0.1 -0.1)"><path d="M0.0 0.0C-26.0 -106.0 -77.0 -214.0 -147.0 -280.0C-113.0 -296.0 -49.0 -329.0 -21.0 -353.0C48.0 -275.0 108.0 -155.0 142.0 -29.0ZM-119.0 -397.0 -115.0 -527.0H515.0V-396.0Z"/></g>
<g fill="red" transform="translate(900 700) scale(0.1 -0.1)"><path d="M0.0 0.0C-37.0 -115.0 -98.0 -226.0 -172.0 -300.0C-164.0 -305.0 -151.0 -314.0 -145.0 -318.0C-75.0 -242.0 -11.0 -128.0 29.0 -7.0ZM-166.0 -447.0 -158.0 -473.0 385.0 -333.0 378.0 -307.0Z"/></g>
<g fill="black" opacity=".8" transform="translate(900 700) scale(0.1 -0.1)"><path d="M0.0 0.0C-36.0 -113.0 -97.0 -224.0 -174.0 -298.0C-164.0 -303.0 -154.0 -312.0 -148.0 -316.0C-75.0 -238.0 -11.0 -125.0 27.0 -7.0ZM-168.0 -447.0 -161.0 -476.0 387.0 -340.0 381.0 -310.0Z"/></g>
<g fill="red" transform="translate(1000 700) scale(0.1 -0.1)"><path d="M0.0 0.0C-42.0 -80.0 -113.0 -167.0 -181.0 -221.0C-148.0 -238.0 -92.0 -275.0 -64.0 -298.0C0.0 -236.0 79.0 -134.0 131.0 -42.0ZM-157.0 -408.0 -129.0 -525.0 386.0 -406.0 358.0 -293.0Z"/></g>
<g fill="black" opacity=".8" transform="translate(1000 700) scale(0.1 -0.1)"><path d="M0.0 0.0C-37.0 -82.0 -105.0 -165.0 -181.0 -218.0C-148.0 -237.0 -94.0 -277.0 -69.0 -303.0C7.0 -239.0 84.0 -140.0 132.0 -38.0ZM-155.0 -410.0 -126.0 -521.0 380.0 -400.0 355.0 -290.0Z"/></g>
<g fill="red" transform="translate(1100 700) scale(0.1 -0.1)"><path d="M0.0 0.0C-40.0 -137.0 -107.0 -266.0 -189.0 -353.0C-180.0 -357.0 -168.0 -367.0 -163.0 -371.0C-82.0 -282.0 -14.0 -150.0 29.0 -7.0ZM-84.0 -366.0V-396.0H305.0V-366.0Z"/></g>
<g fill="black" opacity=".8" transform="translate(1100 700) scale(0.1 -0.1)"><path d="M0.0 0.0C-40.0 -136.0 -107.0 -266.0 -189.0 -354.0C-178.0 -359.0 -166.0 -369.0 -161.0 -372.0C-83.0 -281.0 -14.0 -148.0 30.0 -7.0ZM-84.0 -361.0 -85.0 -394.0H302.0V-361.0Z"/></g>
<g fill="red" transform="translate(1200 700) scale(0.1 -0.1)"><path d="M0.0 0.0C-35.0 -118.0 -103.0 -234.0 -183.0 -304.0C-149.0 -326.0 -90.0 -375.0 -65.0 -401.0C19.0 -316.0 98.0 -177.0 145.0 -36.0ZM-46.0 -352.0V-486.0H288.0V-352.0Z"/></g>
<g fill="black" opacity=".8" transform="translate(1200 700) scale(0.1 -0.1)"><path d="M0.0 0.0C-37.0 -116.0 -104.0 -232.0 -183.0 -304.0C-150.0 -326.0 -91.0 -373.0 -66.0 -401.0C15.0 -314.0 97.0 -176.0 144.0 -38.0ZM-46.0 -357.0 -45.0 -488.0H290.0V-356.0Z"/></g>
<g fill="red" transform="translate(1300 700) scale(0.1 -0.1)"><path d="M0.0 0.0C-32.0 -132.0 -88.0 -258.0 -158.0 -340.0C-150.0 -345.0 -137.0 -356.0 -133.0 -360.0C-64.0 -274.0 -7.0 -146.0 29.0 -7.0ZM-162.0 -534.0 -153.0 -558.0 339.0 -348.0 331.0 -323.0Z"/></g>
<g fill="black" opacity=".8" transform="translate(1300 700) scale(0.1 -0.1)"><path d="M0.0 0.0C-32.0 -133.0 -87.0 -258.0 -159.0 -340.0C-149.0 -345.0 -138.0 -356.0 -132.0 -359.0C-65.0 -273.0 -7.0 -145.0 28.0 -7.0ZM-161.0 -535.0 -152.0 -559.0 338.0 -348.0 330.0 -323.0Z"/></g>
<g fill="red" transform="translate(1400 700) scale(0.1 -0.1)"><path d="M0.0 0.0C-28.0 -121.0 -82.0 -241.0 -150.0 -313.0C-120.0 -334.0 -69.0 -383.0 -47.0 -409.0C25.0 -321.0 91.0 -178.0 128.0 -33.0ZM-117.0 -497.0 -81.0 -621.0 399.0 -426.0 363.0 -304.0Z"/></g>
<g fill="black" opacity=".8" transform="translate(1400 700) scale(0.1 -0.1)"><path d="M0.0 0.0C-29.0 -121.0 -83.0 -240.0 -150.0 -314.0C-121.0 -336.0 -70.0 -383.0 -48.0 -408.0C24.0 -320.0 91.0 -177.0 128.0 -33.0ZM-118.0 -496.0 -80.0 -619.0 400.0 -427.0 362.0 -305.0Z"/></g>
<g fill="red" transform="translate(1500 700) scale(0.1 -0.1)"><path d="M0.0 0.0C-34.0 -119.0 -89.0 -237.0 -156.0 -316.0C-148.0 -320.0 -135.0 -330.0 -130.0 -335.0C-66.0 -253.0 -8.0 -131.0 29.0 -7.0ZM-80.0 -323.0V-352.0H207.0V-323.0Z"/></g>
<g fill="black" opacity=".8" transform="translate(1500 700) scale(0.1 -0.1)"><path d="M0.0 0.0C-34.0 -123.0 -89.0 -239.0 -157.0 -315.0C-147.0 -319.0 -135.0 -329.0 -130.0 -332.0C-67.0 -253.0 -9.0 -134.0 27.0 -7.0ZM-79.0 -321.0 -81.0 -355.0 208.0 -356.0 209.0 -322.0Z"/></g>
<g fill="red" transform="translate(1600 700) scale(0.1 -0.1)"><path d="M0.0 0.0C-35.0 -121.0 -98.0 -245.0 -171.0 -321.0C-141.0 -343.0 -89.0 -391.0 -66.0 -416.0C11.0 -324.0 87.0 -176.0 132.0 -34.0ZM-50.0 -325.0V-458.0H212.0V-325.0Z"/></g>
<g fill="black" opacity=".8" transform="translate(1600 700) scale(0.1 -0.1)"><path d="M0.0 0.0C-35.0 -123.0 -98.0 -246.0 -170.0 -323.0C-141.0 -344.0 -88.0 -389.0 -66.0 -414.0C8.0 -325.0 85.0 -179.0 129.0 -36.0ZM-48.0 -329.0 -51.0 -455.0 209.0 -454.0 210.0 -327.0Z"/></g>
<g fill="red" transform="translate(100 800) scale(0.1 -0.1)"><path d="M0.0 0.0C-37.0 -137.0 -99.0 -266.0 -175.0 -353.0C-167.0 -357.0 -155.0 -367.0 -150.0 -371.0C-77.0 -282.0 -13.0 -150.0 26.0 -7.0ZM-79.0 -366.0V-396.0H280.0V-366.0Z"/></g>
<g fill="black" opacity=".8" transform="translate(100 800) scale(0.1 -0.1)"><path d="M0.0 0.0C-38.0 -135.0 -99.0 -266.0 -177.0 -353.0C-167.0 -357.0 -155.0 -367.0 -149.0 -371.0C-75.0 -280.0 -11.0 -148.0 29.0 -7.0ZM-82.0 -363.0 -83.0 -397.0 283.0 -398.0 284.0 -364.0Z"/></g>
<g fill="red" transform="translate(200 800) scale(0.1 -0.1)"><path d="M0.0 0.0C-34.0 -118.0 -101.0 -234.0 -181.0 -304.0C-147.0 -326.0 -89.0 -375.0 -64.0 -401.0C19.0 -316.0 97.0 -177.0 144.0 -36.0ZM-46.0 -352.0V-486.0H284.0V-352.0Z"/></g>
<g fill="black" opacity=".8" transform="translate(200 800) scale(0.1 -0.1)"><path d="M0.0 0.0C-35.0 -116.0 -100.0 -232.0 -176.0 -304.0C-145.0 -327.0 -89.0 -376.0 -66.0 -403.0C15.0 -316.0 94.0 -176.0 139.0 -37.0ZM-43.0 -354.0 -44.0 -485.0 279.0 -486.0 280.0 -354.0Z"/></g>
<g fill="red" transform="translate(300 800) scale(0.1 -0.1)"><path d="M0.0 0.0C-29.0 -146.0 -77.0 -285.0 -150.0 -377.0C-141.0 -381.0 -127.0 -388.0 -121.0 -392.0C-53.0 -298.0 -2.0 -158.0 31.0 -5.0ZM-144.0 -486.0V-515.0H417.0V-486.0Z"/></g>
<g fill="black" opacity=".8" transform="translate(300 800) scale(0.1 -0.1)"><path d="M0.0 0.0C-30.0 -142.0 -80.0 -281.0 -152.0 -376.0C-142.0 -380.0 -129.0 -388.0 -123.0 -392.0C-54.0 -295.0 -1.0 -154.0 32.0 -6.0ZM-143.0 -487.0 -144.0 -514.0 418.0 -515.0 419.0 -488.0Z"/></g>
<g fill="red" transform="translate(400 800) scale(0.1 -0.1)"><path d="M0.0 0.0C-19.0 -135.0 -63.0 -266.0 -132.0 -342.0C-96.0 -356.0 -28.0 -388.0 2.0 -409.0C68.0 -320.0 119.0 -177.0 145.0 -22.0ZM-76.0 -463.0V-603.0H487.0V-463.0Z"/></g>
<g fill="black" opacity=".8" transform="translate(400 800) scale(0.1 -0.1)"><path d="M0.0 0.0C-19.0 -129.0 -60.0 -256.0 -125.0 -335.0C-91.0 -354.0 -27.0 -395.0 -1.0 -420.0C69.0 -326.0 121.0 -179.0 147.0 -26.0ZM-78.0 -462.0 -76.0 -603.0H484.0L485.0 -461.0Z"/></g>
<g fill="red" transform="translate(500 800) scale(0.1 -0.1)"><path d="M0.0 0.0C-30.0 -113.0 -80.0 -222.0 -142.0 -296.0C-134.0 -300.0 -122.0 -309.0 -117.0 -313.0C-56.0 -237.0 -3.0 -124.0 29.0 -6.0ZM-154.0 -506.0V-536.0H442.0V-506.0Z"/></g>
<g fill="black" opacity=".8" transform="translate(500 800) scale(0.1 -0.1)"><path d="M0.0 0.0C-29.0 -112.0 -78.0 -223.0 -141.0 -299.0C-131.0 -303.0 -120.0 -311.0 -115.0 -314.0C-56.0 -236.0 -4.0 -122.0 27.0 -6.0ZM-152.0 -500.0 -153.0 -531.0H437.0V-500.0Z"/></g>
<g fill="red" transform="translate(600 800) scale(0.1 -0.1)"><path d="M0.0 0.0C-28.0 -103.0 -82.0 -205.0 -149.0 -267.0C-120.0 -287.0 -68.0 -331.0 -46.0 -354.0C26.0 -278.0 91.0 -155.0 129.0 -30.0ZM-109.0 -466.0V-587.0H486.0V-466.0Z"/></g>
<g fill="black" opacity=".8" transform="translate(600 800) scale(0.1 -0.1)"><path d="M0.0 0.0C-29.0 -100.0 -84.0 -202.0 -150.0 -267.0C-121.0 -287.0 -70.0 -329.0 -48.0 -353.0C22.0 -276.0 89.0 -154.0 127.0 -32.0ZM-110.0 -473.0 -111.0 -592.0H489.0L490.0 -471.0Z"/></g>
<g fill="red" transform="translate(700 800) scale(0.1 -0.1)"><path d="M0.0 0.0C-30.0 -181.0 -81.0 -349.0 -162.0 -459.0C-154.0 -464.0 -141.0 -473.0 -136.0 -478.0C-55.0 -362.0 -3.0 -193.0 30.0 -5.0ZM284.0 -84.0 272.0 -113.0H673.0V-84.0Z"/></g>
<g fill="black" opacity=".8" transform="translate(700 800) scale(0.1 -0.1)"><path d="M0.0 0.0C-29.0 -180.0 -81.0 -348.0 -161.0 -459.0C-152.0 -464.0 -140.0 -475.0 -135.0 -480.0C-56.0 -362.0 -2.0 -192.0 31.0 -5.0ZM282.0 -83.0 272.0 -112.0 672.0 -113.0 673.0 -83.0Z"/></g>
<g fill="red" transform="translate(800 800) scale(0.1 -0.1)"><path d="M0.0 0.0C-23.0 -144.0 -64.0 -282.0 -132.0 -372.0C-113.0 -415.0 -89.0 -510.0 -85.0 -549.0C26.0 -423.0 92.0 -221.0 131.0 -30.0ZM359.0 -23.0 333.0 -155.0H751.0V-23.0Z"/></g>
<g fill="black" opacity=".8" transform="translate(800 800) scale(0.1 -0.1)"><path d="M0.0 0.0C-22.0 -147.0 -64.0 -285.0 -135.0 -376.0C-116.0 -417.0 -90.0 -506.0 -86.0 -545.0C23.0 -419.0 91.0 -222.0 127.0 -28.0ZM362.0 -24.0 334.0 -157.0H750.0L751.0 -23.0Z"/></g>
<g fill="red" transform="translate(900 800) scale(0.1 -0.1)"><path d="M0.0 0.0C-29.0 -108.0 -75.0 -215.0 -133.0 -288.0C-124.0 -292.0 -111.0 -300.0 -106.0 -305.0C-49.0 -231.0 -1.0 -120.0 29.0 -5.0ZM-46.0 -170.0V-200.0H326.0V-170.0Z"/></g>
<g fill="black" opacity=".8" transform="translate(900 800) scale(0.1 -0.1)"><path d="M0.0 0.0C-28.0 -114.0 -73.0 -219.0 -133.0 -288.0C-124.0 -291.0 -114.0 -300.0 -110.0 -302.0C-54.0 -231.0 -6.0 -123.0 24.0 -6.0ZM-38.0 -168.0 -42.0 -197.0 326.0 -199.0 327.0 -169.0Z"/></g>
<g fill="red" transform="translate(1000 800) scale(0.1 -0.1)"><path d="M0.0 0.0C-28.0 -123.0 -81.0 -250.0 -144.0 -330.0C-117.0 -348.0 -68.0 -388.0 -47.0 -409.0C19.0 -317.0 81.0 -169.0 119.0 -28.0ZM9.0 -158.0V-271.0H386.0V-158.0Z"/></g>
<g fill="black" opacity=".8" transform="translate(1000 800) scale(0.1 -0.1)"><path d="M0.0 0.0C-26.0 -125.0 -74.0 -248.0 -136.0 -325.0C-112.0 -346.0 -68.0 -389.0 -52.0 -411.0C16.0 -321.0 77.0 -173.0 110.0 -28.0ZM7.0 -161.0 -4.0 -274.0 383.0 -273.0 385.0 -158.0Z"/></g>
<g fill="red" transform="translate(1100 800) scale(0.1 -0.1)"><path d="M0.0 0.0C-11.0 -164.0 -35.0 -307.0 -103.0 -401.0C-95.0 -405.0 -82.0 -414.0 -77.0 -419.0C-11.0 -319.0 17.0 -176.0 31.0 -2.0ZM-56.0 304.0V275.0H311.0V304.0Z"/></g>
<g fill="black" opacity=".8" transform="translate(1100 800) scale(0.1 -0.1)"><path d="M0.0 0.0C-12.0 -163.0 -36.0 -307.0 -105.0 -403.0C-94.0 -406.0 -81.0 -414.0 -75.0 -417.0C-11.0 -318.0 17.0 -173.0 31.0 -3.0ZM-49.0 299.0 -54.0 277.0 303.0 278.0 304.0 300.0Z"/></g>
<g fill="red" transform="translate(1200 800) scale(0.1 -0.1)"><path d="M0.0 0.0C1.0 -157.0 -6.0 -303.0 -66.0 -389.0C-35.0 -406.0 25.0 -450.0 48.0 -472.0C118.0 -365.0 134.0 -197.0 137.0 -6.0ZM-2.0 343.0V216.0H359.0V343.0Z"/></g>
<g fill="black" opacity=".8" transform="translate(1200 800) scale(0.1 -0.1)"><path d="M0.0 0.0C-1.0 -157.0 -11.0 -303.0 -73.0 -392.0C-39.0 -409.0 26.0 -445.0 52.0 -467.0C118.0 -361.0 137.0 -197.0 141.0 -10.0ZM3.0 345.0 -11.0 213.0 363.0 214.0 364.0 348.0Z"/></g>
<g fill="red" transform="translate(1300 800) scale(0.1 -0.1)"><path d="M0.0 0.0C-61.0 -161.0 -161.0 -319.0 -268.0 -422.0C-261.0 -427.0 -251.0 -440.0 -247.0 -446.0C-139.0 -336.0 -38.0 -177.0 29.0 -8.0ZM-27.0 -494.0V-523.0H671.0V-494.0Z"/></g>
<g fill="black" opacity=".8" transform="translate(1300 800) scale(0.1 -0.1)"><path d="M0.0 0.0C-61.0 -159.0 -162.0 -317.0 -270.0 -422.0C-261.0 -427.0 -250.0 -439.0 -246.0 -444.0C-139.0 -334.0 -37.0 -174.0 30.0 -9.0ZM-23.0 -503.0 -27.0 -522.0H665.0L666.0 -503.0Z"/></g>
<g fill="red" transform="translate(1400 800) scale(0.1 -0.1)"><path d="M0.0 0.0C-48.0 -138.0 -131.0 -276.0 -217.0 -363.0C-193.0 -399.0 -154.0 -480.0 -141.0 -516.0C-32.0 -400.0 73.0 -214.0 137.0 -43.0ZM79.0 -478.0V-600.0H759.0V-478.0Z"/></g>
<g fill="black" opacity=".8" transform="translate(1400 800) scale(0.1 -0.1)"><path d="M0.0 0.0C-49.0 -139.0 -135.0 -279.0 -226.0 -368.0C-199.0 -401.0 -153.0 -476.0 -137.0 -511.0C-28.0 -397.0 79.0 -215.0 144.0 -44.0ZM86.0 -471.0 74.0 -602.0 762.0 -601.0V-468.0Z"/></g>
<g fill="red" transform="translate(1500 800) scale(0.1 -0.1)"><path d="M0.0 0.0C-37.0 -114.0 -93.0 -225.0 -163.0 -300.0C-155.0 -304.0 -142.0 -312.0 -137.0 -316.0C-70.0 -240.0 -10.0 -125.0 28.0 -7.0ZM-216.0 -504.0V-534.0H447.0V-504.0Z"/></g>
<g fill="black" opacity=".8" transform="translate(1500 800) scale(0.1 -0.1)"><path d="M0.0 0.0C-35.0 -113.0 -92.0 -225.0 -164.0 -302.0C-154.0 -306.0 -143.0 -314.0 -138.0 -317.0C-70.0 -238.0 -10.0 -123.0 28.0 -6.0ZM-210.0 -504.0V-533.0L443.0 -534.0L444.0 -504.0Z"/></g>
<g fill="red" transform="translate(1600 800) scale(0.1 -0.1)"><path d="M0.0 0.0C-30.0 -102.0 -88.0 -205.0 -157.0 -267.0C-125.0 -286.0 -67.0 -327.0 -41.0 -351.0C29.0 -276.0 98.0 -155.0 138.0 -33.0ZM-153.0 -479.0V-603.0H500.0V-479.0Z"/></g>
<g fill="black" opacity=".8" transform="translate(1600 800) scale(0.1 -0.1)"><path d="M0.0 0.0C-31.0 -102.0 -88.0 -207.0 -158.0 -272.0C-125.0 -289.0 -67.0 -324.0 -41.0 -347.0C27.0 -272.0 94.0 -153.0 134.0 -32.0ZM-160.0 -480.0 -157.0 -603.0H501.0L502.0 -479.0Z"/></g>
<g fill="red" transform="translate(100 900) scale(0.1 -0.1)"><path d="M0.0 0.0C-31.0 -120.0 -82.0 -237.0 -148.0 -316.0C-140.0 -320.0 -125.0 -329.0 -120.0 -333.0C-56.0 -253.0 -3.0 -132.0 31.0 -6.0ZM-30.0 -277.0V-307.0H262.0V-277.0Z"/></g>
<g fill="black" opacity=".8" transform="translate(100 900) scale(0.1 -0.1)"><path d="M0.0 0.0C-30.0 -124.0 -80.0 -241.0 -145.0 -318.0C-137.0 -322.0 -127.0 -331.0 -122.0 -333.0C-60.0 -253.0 -8.0 -134.0 25.0 -6.0ZM-28.0 -274.0 -29.0 -303.0 267.0 -304.0 268.0 -276.0Z"/></g>
<g fill="red" transform="translate(200 900) scale(0.1 -0.1)"><path d="M0.0 0.0C-22.0 -116.0 -64.0 -233.0 -123.0 -305.0C-92.0 -323.0 -35.0 -364.0 -10.0 -387.0C53.0 -301.0 106.0 -164.0 135.0 -27.0ZM31.0 -275.0V-391.0H306.0V-275.0Z"/></g>
<g fill="black" opacity=".8" transform="translate(200 900) scale(0.1 -0.1)"><path d="M0.0 0.0C-19.0 -119.0 -57.0 -236.0 -113.0 -307.0C-87.0 -326.0 -37.0 -363.0 -17.0 -384.0C43.0 -299.0 93.0 -162.0 118.0 -23.0ZM27.0 -276.0 26.0 -397.0H300.0L301.0 -275.0Z"/></g>
<g fill="red" transform="translate(300 900) scale(0.1 -0.1)"><path d="M0.0 0.0C-35.0 -130.0 -92.0 -259.0 -164.0 -345.0C-155.0 -349.0 -140.0 -357.0 -135.0 -362.0C-67.0 -274.0 -8.0 -143.0 31.0 -7.0ZM-181.0 -500.0V-529.0H494.0V-500.0Z"/></g>
<g fill="black" opacity=".8" transform="translate(300 900) scale(0.1 -0.1)"><path d="M0.0 0.0C-34.0 -130.0 -91.0 -257.0 -165.0 -343.0C-154.0 -347.0 -142.0 -356.0 -136.0 -360.0C-66.0 -272.0 -6.0 -141.0 31.0 -7.0ZM-181.0 -506.0 -183.0 -529.0 493.0 -530.0 494.0 -507.0Z"/></g>
<g fill="red" transform="translate(400 900) scale(0.1 -0.1)"><path d="M0.0 0.0C-31.0 -123.0 -91.0 -244.0 -167.0 -317.0C-135.0 -338.0 -78.0 -386.0 -54.0 -412.0C27.0 -323.0 99.0 -178.0 141.0 -32.0ZM-130.0 -481.0V-602.0H564.0V-481.0Z"/></g>
<g fill="black" opacity=".8" transform="translate(400 900) scale(0.1 -0.1)"><path d="M0.0 0.0C-32.0 -120.0 -93.0 -242.0 -169.0 -319.0C-136.0 -340.0 -77.0 -386.0 -52.0 -413.0C27.0 -323.0 102.0 -179.0 144.0 -35.0ZM-126.0 -475.0 -129.0 -602.0H562.0V-474.0Z"/></g>
<g fill="red" transform="translate(500 900) scale(0.1 -0.1)"><path d="M0.0 0.0C-61.0 -161.0 -161.0 -319.0 -268.0 -422.0C-261.0 -427.0 -251.0 -440.0 -247.0 -446.0C-139.0 -336.0 -38.0 -177.0 29.0 -8.0ZM137.0 -203.0 126.0 -232.0H654.0V-203.0Z"/></g>
<g fill="black" opacity=".8" transform="translate(500 900) scale(0.1 -0.1)"><path d="M0.0 0.0C-60.0 -163.0 -160.0 -320.0 -269.0 -423.0C-261.0 -427.0 -252.0 -440.0 -249.0 -445.0C-139.0 -335.0 -39.0 -177.0 27.0 -8.0ZM136.0 -199.0 130.0 -231.0 656.0 -234.0 657.0 -203.0Z"/></g>
<g fill="red" transform="translate(600 900) scale(0.1 -0.1)"><path d="M0.0 0.0C-48.0 -138.0 -131.0 -276.0 -217.0 -363.0C-193.0 -399.0 -154.0 -480.0 -141.0 -516.0C-32.0 -400.0 73.0 -214.0 137.0 -43.0ZM261.0 -168.0 207.0 -302.0H739.0V-168.0Z"/></g>
<g fill="black" opacity=".8" transform="translate(600 900) scale(0.1 -0.1)"><path d="M0.0 0.0C-46.0 -139.0 -125.0 -276.0 -212.0 -364.0C-191.0 -400.0 -156.0 -480.0 -146.0 -517.0C-34.0 -400.0 68.0 -214.0 129.0 -40.0ZM242.0 -170.0 221.0 -301.0 736.0 -302.0 737.0 -170.0Z"/></g>
</svg>
