<?xml version="1.0" encoding="UTF-8"?>
<svg width="1700" height="1400" xmlns="http://www.w3.org/2000/svg">
<rect width="100%" height="100%" fill="white"/>
<g fill="green" transform="translate(100 100) scale(0.1 -0.1)"><path d="M-0.0 -0.0C-50.0 -170.0 -136.0 -321.0 -234.0 -415.0C-227.0 -418.0 -212.0 -427.0 -206.0 -432.0C-113.0 -337.0 -23.0 -184.0 27.0 -9.0ZM-21.0 -237.0 -45.0 -267.0H-511.0V-237.0Z"/></g>
<g fill="green" transform="translate(200 100) scale(0.1 -0.1)"><path d="M0.0 0.0C-38.0 -136.0 -113.0 -265.0 -187.0 -339.0C-162.0 -361.0 -118.0 -402.0 -100.0 -424.0C-19.0 -339.0 65.0 -186.0 110.0 -36.0ZM41.0 -253.0 -76.0 -371.0H-536.0V-253.0Z"/></g>
<g fill="green" transform="translate(300 100) scale(0.1 -0.1)"><path d="M0.0 -0.0C-79.0 -270.0 -213.0 -518.0 -371.0 -678.0C-357.0 -684.0 -332.0 -700.0 -322.0 -709.0C-171.0 -546.0 -31.0 -294.0 51.0 -14.0ZM-81.0 -340.0 -108.0 -394.0H-214.0V-340.0Z"/></g>
<g fill="green" transform="translate(400 100) scale(0.1 -0.1)"><path d="M0.0 0.0C-63.0 -228.0 -185.0 -450.0 -317.0 -580.0C-266.0 -618.0 -177.0 -694.0 -139.0 -736.0C2.0 -583.0 142.0 -321.0 220.0 -62.0ZM25.0 -333.0 -106.0 -554.0H-198.0V-333.0Z"/></g>
<g fill="green" transform="translate(500 100) scale(0.1 -0.1)"><path d="M0.0 -0.0C-80.0 -94.0 -222.0 -173.0 -357.0 -216.0C-354.0 -218.0 -348.0 -224.0 -344.0 -229.0C-212.0 -185.0 -68.0 -106.0 14.0 -10.0ZM457.0 157.0 432.0 140.0H271.0V157.0Z"/></g>
<g fill="green" transform="translate(600 100) scale(0.1 -0.1)"><path d="M0.0 0.0C-71.0 -62.0 -207.0 -106.0 -322.0 -127.0C-302.0 -145.0 -279.0 -166.0 -267.0 -186.0C-147.0 -161.0 -13.0 -112.0 71.0 -42.0ZM530.0 143.0 411.0 85.0H268.0V143.0Z"/></g>
<g fill="green" transform="translate(700 100) scale(0.1 -0.1)"><path d="M0.0 0.0C-73.0 -181.0 -204.0 -341.0 -344.0 -441.0C-334.0 -446.0 -315.0 -460.0 -308.0 -468.0C-172.0 -366.0 -36.0 -200.0 39.0 -13.0ZM-501.0 26.0 -522.0 -16.0H-513.0V26.0Z"/></g>
<g fill="green" transform="translate(800 100) scale(0.1 -0.1)"><path d="M0.0 0.0C-61.0 -141.0 -185.0 -263.0 -306.0 -334.0C-272.0 -365.0 -219.0 -423.0 -197.0 -456.0C-62.0 -371.0 71.0 -220.0 146.0 -52.0ZM-474.0 41.0 -574.0 -114.0H-544.0V41.0Z"/></g>
<g fill="green" transform="translate(900 100) scale(0.1 -0.1)"><path d="M0.0 0.0C22.0 -144.0 74.0 -289.0 95.0 -393.0C101.0 -394.0 117.0 -398.0 123.0 -400.0C96.0 -295.0 46.0 -149.0 25.0 0.0ZM-249.0 -297.0 -271.0 -320.0H-229.0V-297.0Z"/></g>
<g fill="green" transform="translate(1000 100) scale(0.1 -0.1)"><path d="M0.0 0.0C39.0 -112.0 116.0 -248.0 160.0 -336.0C185.0 -338.0 247.0 -355.0 273.0 -360.0C219.0 -267.0 157.0 -114.0 109.0 1.0ZM-183.0 -266.0 -287.0 -377.0H-227.0V-266.0Z"/></g>
<g fill="green" transform="translate(1100 100) scale(0.1 -0.1)"><path d="M0.0 -0.0C-65.0 -134.0 -181.0 -245.0 -302.0 -311.0C-297.0 -315.0 -288.0 -325.0 -284.0 -331.0C-165.0 -260.0 -46.0 -148.0 20.0 -9.0ZM-129.0 -362.0 -149.0 -386.0H-416.0V-362.0Z"/></g>
<g fill="green" transform="translate(1200 100) scale(0.1 -0.1)"><path d="M0.0 0.0C-60.0 -92.0 -172.0 -171.0 -273.0 -214.0C-249.0 -238.0 -213.0 -281.0 -198.0 -305.0C-89.0 -251.0 30.0 -152.0 103.0 -45.0ZM-95.0 -407.0 -190.0 -501.0H-456.0V-407.0Z"/></g>
<g fill="green" transform="translate(1300 100) scale(0.1 -0.1)"><path d="M0.0 -0.0C-52.0 -142.0 -144.0 -271.0 -243.0 -349.0C-236.0 -352.0 -222.0 -361.0 -217.0 -366.0C-122.0 -287.0 -26.0 -156.0 26.0 -9.0ZM-38.0 -226.0 -61.0 -254.0H-524.0V-226.0Z"/></g>
<g fill="green" transform="translate(1400 100) scale(0.1 -0.1)"><path d="M0.0 0.0C-35.0 -154.0 -106.0 -308.0 -176.0 -397.0C-152.0 -421.0 -111.0 -464.0 -94.0 -488.0C-13.0 -385.0 66.0 -204.0 110.0 -35.0ZM47.0 -270.0 -63.0 -378.0H-519.0V-270.0Z"/></g>
<g fill="green" transform="translate(1500 100) scale(0.1 -0.1)"><path d="M0.0 0.0C-43.0 -171.0 -112.0 -319.0 -192.0 -412.0C-185.0 -415.0 -171.0 -423.0 -165.0 -428.0C-92.0 -335.0 -18.0 -184.0 24.0 -8.0ZM2.0 -239.0 -25.0 -267.0H-491.0V-239.0Z"/></g>
<g fill="green" transform="translate(1600 100) scale(0.1 -0.1)"><path d="M0.0 0.0C-46.0 -137.0 -130.0 -264.0 -203.0 -337.0C-186.0 -367.0 -158.0 -425.0 -150.0 -449.0C-64.0 -360.0 35.0 -196.0 89.0 -42.0ZM23.0 -254.0 -106.0 -369.0H-548.0V-254.0Z"/></g>
<g fill="green" transform="translate(100 200) scale(0.1 -0.1)"><path d="M-0.0 -0.0C-45.0 -159.0 -129.0 -313.0 -229.0 -411.0C-219.0 -415.0 -200.0 -427.0 -192.0 -434.0C-95.0 -335.0 -5.0 -176.0 40.0 -11.0ZM-43.0 -231.0 -55.0 -273.0H-516.0V-231.0Z"/></g>
<g fill="green" transform="translate(200 200) scale(0.1 -0.1)"><path d="M0.0 0.0C-40.0 -126.0 -123.0 -251.0 -211.0 -326.0C-179.0 -353.0 -129.0 -404.0 -106.0 -434.0C-3.0 -344.0 90.0 -192.0 142.0 -42.0ZM29.0 -234.0 -25.0 -388.0H-535.0V-234.0Z"/></g>
<g fill="green" transform="translate(300 200) scale(0.1 -0.1)"><path d="M-0.0 0.0C-51.0 -178.0 -138.0 -327.0 -233.0 -417.0C-227.0 -419.0 -214.0 -426.0 -209.0 -429.0C-120.0 -340.0 -31.0 -190.0 20.0 -8.0ZM-32.0 -246.0 -30.0 -269.0H-507.0V-246.0Z"/></g>
<g fill="green" transform="translate(400 200) scale(0.1 -0.1)"><path d="M0.0 0.0C-36.0 -149.0 -110.0 -282.0 -182.0 -352.0C-160.0 -368.0 -117.0 -396.0 -100.0 -412.0C-29.0 -335.0 51.0 -186.0 89.0 -31.0ZM-16.0 -254.0 -25.0 -360.0H-538.0V-254.0Z"/></g>
<g fill="green" transform="translate(500 200) scale(0.1 -0.1)"><path d="M-0.0 0.0C-48.0 -173.0 -132.0 -323.0 -231.0 -416.0C-224.0 -418.0 -209.0 -427.0 -203.0 -432.0C-109.0 -337.0 -21.0 -186.0 26.0 -8.0ZM-26.0 -249.0 -52.0 -279.0H-539.0V-249.0Z"/></g>
<g fill="green" transform="translate(600 200) scale(0.1 -0.1)"><path d="M0.0 0.0C-35.0 -142.0 -108.0 -267.0 -189.0 -339.0C-167.0 -360.0 -127.0 -401.0 -112.0 -421.0C-22.0 -337.0 59.0 -189.0 101.0 -29.0ZM51.0 -244.0 -77.0 -358.0H-509.0V-244.0Z"/></g>
<g fill="red" transform="translate(100 300) scale(0.1 -0.1)"><path d="M0.0 0.0C-55.0 -136.0 -147.0 -262.0 -250.0 -344.0C-242.0 -349.0 -229.0 -359.0 -223.0 -364.0C-123.0 -278.0 -30.0 -150.0 30.0 -8.0ZM-64.0 -138.0 -78.0 -167.0H625.0V-138.0Z"/></g>
<g fill="black" opacity=".8" transform="translate(100 300) scale(0.1 -0.1)"><path d="M0.0 0.0C-56.0 -135.0 -147.0 -261.0 -250.0 -346.0C-242.0 -350.0 -230.0 -360.0 -224.0 -368.0C-125.0 -277.0 -31.0 -149.0 30.0 -7.0ZM-60.0 -136.0 -75.0 -166.0H623.0V-136.0Z"/></g>
<g fill="red" transform="translate(200 300) scale(0.1 -0.1)"><path d="M0.0 0.0C-55.0 -126.0 -152.0 -253.0 -252.0 -328.0C-216.0 -353.0 -154.0 -406.0 -126.0 -435.0C-26.0 -344.0 84.0 -194.0 153.0 -48.0ZM4.0 -118.0 -68.0 -261.0H666.0V-118.0Z"/></g>
<g fill="black" opacity=".8" transform="translate(200 300) scale(0.1 -0.1)"><path d="M0.0 0.0C-54.0 -125.0 -149.0 -248.0 -250.0 -322.0C-213.0 -351.0 -154.0 -408.0 -129.0 -439.0C-24.0 -346.0 86.0 -196.0 155.0 -48.0ZM-3.0 -123.0 -68.0 -258.0H668.0V-123.0Z"/></g>
<g fill="red" transform="translate(300 300) scale(0.1 -0.1)"><path d="M0.0 0.0C-38.0 -135.0 -101.0 -263.0 -181.0 -349.0C-173.0 -353.0 -160.0 -362.0 -155.0 -367.0C-78.0 -278.0 -13.0 -147.0 28.0 -6.0ZM-59.0 -167.0V-197.0H431.0V-167.0Z"/></g>
<g fill="black" opacity=".8" transform="translate(300 300) scale(0.1 -0.1)"><path d="M0.0 0.0C-39.0 -136.0 -102.0 -264.0 -180.0 -350.0C-172.0 -353.0 -159.0 -362.0 -153.0 -368.0C-79.0 -278.0 -14.0 -148.0 29.0 -6.0ZM-63.0 -166.0V-195.0H431.0V-166.0Z"/></g>
<g fill="red" transform="translate(400 300) scale(0.1 -0.1)"><path d="M0.0 0.0C-36.0 -118.0 -103.0 -234.0 -182.0 -304.0C-150.0 -326.0 -93.0 -373.0 -68.0 -398.0C15.0 -313.0 94.0 -175.0 140.0 -35.0ZM-27.0 -132.0V-267.0H473.0V-132.0Z"/></g>
<g fill="black" opacity=".8" transform="translate(400 300) scale(0.1 -0.1)"><path d="M0.0 0.0C-37.0 -119.0 -104.0 -235.0 -183.0 -304.0C-150.0 -326.0 -93.0 -372.0 -68.0 -396.0C12.0 -312.0 92.0 -175.0 139.0 -37.0ZM-24.0 -134.0V-267.0H473.0V-134.0Z"/></g>
<g fill="red" transform="translate(500 300) scale(0.1 -0.1)"><path d="M0.0 0.0C-40.0 -137.0 -103.0 -269.0 -181.0 -357.0C-174.0 -361.0 -161.0 -370.0 -155.0 -375.0C-80.0 -284.0 -14.0 -149.0 28.0 -6.0ZM-44.0 -161.0 -56.0 -190.0H450.0V-161.0Z"/></g>
<g fill="black" opacity=".8" transform="translate(500 300) scale(0.1 -0.1)"><path d="M0.0 0.0C-40.0 -135.0 -104.0 -268.0 -184.0 -359.0C-175.0 -362.0 -161.0 -372.0 -155.0 -378.0C-79.0 -284.0 -12.0 -148.0 32.0 -7.0ZM-40.0 -156.0 -47.0 -187.0H444.0V-156.0Z"/></g>
<g fill="red" transform="translate(600 300) scale(0.1 -0.1)"><path d="M0.0 0.0C-32.0 -134.0 -94.0 -270.0 -171.0 -350.0C-134.0 -371.0 -68.0 -419.0 -39.0 -446.0C40.0 -350.0 114.0 -192.0 156.0 -35.0ZM39.0 -136.0 -3.0 -275.0H481.0V-136.0Z"/></g>
<g fill="black" opacity=".8" transform="translate(600 300) scale(0.1 -0.1)"><path d="M0.0 0.0C-34.0 -129.0 -94.0 -266.0 -168.0 -349.0C-131.0 -372.0 -67.0 -420.0 -39.0 -448.0C37.0 -348.0 111.0 -188.0 155.0 -39.0ZM28.0 -139.0 -6.0 -280.0H487.0V-139.0Z"/></g>
<g fill="red" transform="translate(700 300) scale(0.1 -0.1)"><path d="M0.0 0.0C-39.0 -122.0 -102.0 -241.0 -177.0 -320.0C-170.0 -324.0 -156.0 -333.0 -150.0 -337.0C-78.0 -256.0 -13.0 -134.0 29.0 -7.0ZM-44.0 -126.0V-156.0H463.0V-126.0Z"/></g>
<g fill="black" opacity=".8" transform="translate(700 300) scale(0.1 -0.1)"><path d="M0.0 0.0C-38.0 -123.0 -100.0 -241.0 -177.0 -321.0C-169.0 -324.0 -157.0 -332.0 -151.0 -338.0C-78.0 -254.0 -14.0 -134.0 28.0 -5.0ZM-45.0 -128.0V-155.0H465.0V-128.0Z"/></g>
<g fill="red" transform="translate(800 300) scale(0.1 -0.1)"><path d="M0.0 0.0C-33.0 -108.0 -93.0 -222.0 -159.0 -292.0C-125.0 -309.0 -66.0 -347.0 -39.0 -370.0C25.0 -289.0 94.0 -159.0 137.0 -35.0ZM11.0 -95.0V-224.0H525.0V-95.0Z"/></g>
<g fill="black" opacity=".8" transform="translate(800 300) scale(0.1 -0.1)"><path d="M0.0 0.0C-31.0 -112.0 -88.0 -224.0 -161.0 -291.0C-127.0 -309.0 -69.0 -346.0 -42.0 -369.0C30.0 -289.0 98.0 -161.0 137.0 -32.0ZM11.0 -96.0V-222.0H523.0V-96.0Z"/></g>
<g fill="red" transform="translate(900 300) scale(0.1 -0.1)"><path d="M0.0 0.0C-42.0 -120.0 -110.0 -238.0 -189.0 -316.0C-181.0 -320.0 -168.0 -330.0 -163.0 -335.0C-87.0 -253.0 -16.0 -134.0 30.0 -7.0ZM-63.0 -158.0V-188.0H321.0V-158.0Z"/></g>
<g fill="black" opacity=".8" transform="translate(900 300) scale(0.1 -0.1)"><path d="M0.0 0.0C-40.0 -120.0 -108.0 -239.0 -188.0 -318.0C-181.0 -321.0 -168.0 -330.0 -162.0 -336.0C-84.0 -254.0 -14.0 -133.0 30.0 -7.0ZM-72.0 -158.0 -73.0 -187.0H325.0V-158.0Z"/></g>
<g fill="red" transform="translate(1000 300) scale(0.1 -0.1)"><path d="M0.0 0.0C-33.0 -105.0 -94.0 -214.0 -163.0 -279.0C-128.0 -299.0 -66.0 -343.0 -38.0 -368.0C32.0 -290.0 104.0 -162.0 147.0 -37.0ZM-25.0 -141.0V-278.0H354.0V-141.0Z"/></g>
<g fill="black" opacity=".8" transform="translate(1000 300) scale(0.1 -0.1)"><path d="M0.0 0.0C-33.0 -106.0 -93.0 -217.0 -165.0 -284.0C-129.0 -303.0 -69.0 -341.0 -41.0 -365.0C31.0 -286.0 102.0 -158.0 144.0 -36.0ZM-15.0 -146.0 -20.0 -274.0H351.0V-146.0Z"/></g>
<g fill="red" transform="translate(1100 300) scale(0.1 -0.1)"><path d="M0.0 0.0C-44.0 -139.0 -114.0 -270.0 -201.0 -357.0C-194.0 -361.0 -182.0 -370.0 -177.0 -375.0C-92.0 -285.0 -18.0 -153.0 28.0 -7.0ZM-36.0 -145.0 -50.0 -174.0H592.0V-145.0Z"/></g>
<g fill="black" opacity=".8" transform="translate(1100 300) scale(0.1 -0.1)"><path d="M0.0 0.0C-45.0 -137.0 -117.0 -269.0 -205.0 -359.0C-196.0 -362.0 -183.0 -371.0 -177.0 -378.0C-94.0 -284.0 -19.0 -150.0 31.0 -6.0ZM-34.0 -147.0 -49.0 -177.0H592.0V-147.0Z"/></g>
<g fill="red" transform="translate(1200 300) scale(0.1 -0.1)"><path d="M0.0 0.0C-38.0 -134.0 -111.0 -270.0 -195.0 -349.0C-157.0 -369.0 -88.0 -413.0 -57.0 -438.0C25.0 -344.0 107.0 -191.0 156.0 -37.0ZM46.0 -125.0 -26.0 -268.0H654.0V-125.0Z"/></g>
<g fill="black" opacity=".8" transform="translate(1200 300) scale(0.1 -0.1)"><path d="M0.0 0.0C-39.0 -129.0 -107.0 -262.0 -189.0 -343.0C-152.0 -367.0 -88.0 -418.0 -60.0 -446.0C24.0 -347.0 106.0 -190.0 157.0 -40.0ZM41.0 -125.0 -25.0 -263.0H654.0V-125.0Z"/></g>
<g fill="red" transform="translate(1300 300) scale(0.1 -0.1)"><path d="M0.0 0.0C-35.0 -136.0 -93.0 -266.0 -168.0 -353.0C-160.0 -357.0 -147.0 -367.0 -141.0 -372.0C-68.0 -282.0 -8.0 -149.0 31.0 -6.0ZM-51.0 -167.0V-197.0H400.0V-167.0Z"/></g>
<g fill="black" opacity=".8" transform="translate(1300 300) scale(0.1 -0.1)"><path d="M0.0 0.0C-36.0 -137.0 -94.0 -267.0 -168.0 -355.0C-159.0 -358.0 -146.0 -367.0 -140.0 -373.0C-70.0 -282.0 -10.0 -149.0 30.0 -6.0ZM-58.0 -166.0V-196.0H401.0V-166.0Z"/></g>
<g fill="red" transform="translate(1400 300) scale(0.1 -0.1)"><path d="M0.0 0.0C-36.0 -118.0 -103.0 -234.0 -183.0 -304.0C-150.0 -326.0 -92.0 -374.0 -66.0 -400.0C17.0 -314.0 96.0 -176.0 143.0 -35.0ZM-27.0 -133.0V-268.0H437.0V-133.0Z"/></g>
<g fill="black" opacity=".8" transform="translate(1400 300) scale(0.1 -0.1)"><path d="M0.0 0.0C-36.0 -118.0 -103.0 -233.0 -181.0 -303.0C-148.0 -326.0 -92.0 -374.0 -68.0 -400.0C12.0 -314.0 92.0 -175.0 138.0 -37.0ZM-21.0 -133.0 -22.0 -270.0H436.0V-133.0Z"/></g>
<g fill="red" transform="translate(1500 300) scale(0.1 -0.1)"><path d="M0.0 0.0C-32.0 -158.0 -84.0 -307.0 -161.0 -406.0C-152.0 -409.0 -139.0 -416.0 -133.0 -421.0C-59.0 -319.0 -4.0 -169.0 30.0 -5.0ZM-39.0 -182.0V-211.0H390.0V-182.0Z"/></g>
<g fill="black" opacity=".8" transform="translate(1500 300) scale(0.1 -0.1)"><path d="M0.0 0.0C-34.0 -159.0 -88.0 -308.0 -161.0 -407.0C-153.0 -409.0 -138.0 -417.0 -131.0 -422.0C-63.0 -320.0 -8.0 -171.0 30.0 -5.0ZM-45.0 -181.0 -43.0 -211.0H390.0V-181.0Z"/></g>
<g fill="red" transform="translate(1600 300) scale(0.1 -0.1)"><path d="M0.0 0.0C-21.0 -150.0 -68.0 -295.0 -144.0 -379.0C-108.0 -393.0 -39.0 -426.0 -9.0 -445.0C62.0 -349.0 117.0 -192.0 145.0 -22.0ZM14.0 -131.0V-271.0H474.0V-131.0Z"/></g>
<g fill="black" opacity=".8" transform="translate(1600 300) scale(0.1 -0.1)"><path d="M0.0 0.0C-23.0 -147.0 -69.0 -289.0 -138.0 -374.0C-104.0 -390.0 -38.0 -429.0 -11.0 -450.0C56.0 -352.0 114.0 -192.0 142.0 -27.0ZM17.0 -131.0 19.0 -271.0H474.0V-131.0Z"/></g>
<g fill="red" transform="translate(100 400) scale(0.1 -0.1)"><path d="M0.0 0.0C-30.0 -123.0 -76.0 -248.0 -137.0 -332.0C-128.0 -336.0 -114.0 -343.0 -109.0 -347.0C-52.0 -261.0 -3.0 -135.0 31.0 -6.0ZM-27.0 -139.0V-168.0H362.0V-139.0Z"/></g>
<g fill="black" opacity=".8" transform="translate(100 400) scale(0.1 -0.1)"><path d="M0.0 0.0C-28.0 -124.0 -73.0 -247.0 -135.0 -330.0C-127.0 -333.0 -114.0 -341.0 -107.0 -347.0C-48.0 -260.0 -0.0 -135.0 30.0 -5.0ZM-21.0 -141.0 -22.0 -171.0H362.0V-141.0Z"/></g>
<g fill="red" transform="translate(200 400) scale(0.1 -0.1)"><path d="M0.0 0.0C-21.0 -104.0 -63.0 -204.0 -121.0 -268.0C-95.0 -292.0 -51.0 -348.0 -34.0 -374.0C40.0 -292.0 96.0 -160.0 127.0 -28.0ZM37.0 -106.0V-237.0H409.0V-106.0Z"/></g>
<g fill="black" opacity=".8" transform="translate(200 400) scale(0.1 -0.1)"><path d="M0.0 0.0C-25.0 -106.0 -72.0 -215.0 -136.0 -282.0C-104.0 -301.0 -49.0 -341.0 -24.0 -364.0C42.0 -283.0 101.0 -156.0 134.0 -30.0ZM34.0 -104.0 29.0 -235.0H408.0V-104.0Z"/></g>
<g fill="red" transform="translate(300 400) scale(0.1 -0.1)"><path d="M0.0 0.0C-31.0 -68.0 -89.0 -157.0 -171.0 -222.0C-163.0 -226.0 -152.0 -234.0 -146.0 -241.0C-63.0 -169.0 -4.0 -80.0 33.0 -5.0ZM-34.0 -85.0 -49.0 -114.0H473.0V-85.0Z"/></g>
<g fill="black" opacity=".8" transform="translate(300 400) scale(0.1 -0.1)"><path d="M0.0 0.0C-34.0 -78.0 -94.0 -161.0 -167.0 -220.0C-160.0 -223.0 -149.0 -232.0 -143.0 -239.0C-71.0 -175.0 -8.0 -89.0 29.0 -5.0ZM-40.0 -82.0 -53.0 -110.0H471.0V-82.0Z"/></g>
<g fill="red" transform="translate(400 400) scale(0.1 -0.1)"><path d="M0.0 0.0C-34.0 -68.0 -93.0 -146.0 -176.0 -206.0C-145.0 -224.0 -99.0 -264.0 -77.0 -293.0C18.0 -214.0 83.0 -124.0 135.0 -25.0ZM35.0 -61.0 -15.0 -161.0H544.0V-61.0Z"/></g>
<g fill="black" opacity=".8" transform="translate(400 400) scale(0.1 -0.1)"><path d="M0.0 0.0C-34.0 -73.0 -96.0 -148.0 -173.0 -199.0C-143.0 -220.0 -97.0 -263.0 -75.0 -289.0C11.0 -223.0 83.0 -129.0 130.0 -32.0ZM40.0 -58.0 -12.0 -170.0H545.0V-58.0Z"/></g>
<g fill="red" transform="translate(500 400) scale(0.1 -0.1)"><path d="M0.0 0.0C-63.0 -156.0 -161.0 -307.0 -272.0 -406.0C-263.0 -409.0 -249.0 -418.0 -244.0 -423.0C-138.0 -321.0 -39.0 -170.0 29.0 -8.0ZM-86.0 -184.0V-213.0H595.0V-184.0Z"/></g>
<g fill="black" opacity=".8" transform="translate(500 400) scale(0.1 -0.1)"><path d="M0.0 0.0C-60.0 -163.0 -159.0 -308.0 -271.0 -404.0C-262.0 -407.0 -250.0 -416.0 -244.0 -423.0C-137.0 -323.0 -37.0 -177.0 28.0 -7.0ZM-84.0 -182.0 -82.0 -211.0H594.0V-182.0Z"/></g>
<g fill="red" transform="translate(600 400) scale(0.1 -0.1)"><path d="M0.0 0.0C-51.0 -145.0 -143.0 -291.0 -244.0 -378.0C-206.0 -399.0 -139.0 -446.0 -109.0 -473.0C-12.0 -372.0 90.0 -206.0 154.0 -42.0ZM-29.0 -144.0V-287.0H678.0V-144.0Z"/></g>
<g fill="black" opacity=".8" transform="translate(600 400) scale(0.1 -0.1)"><path d="M0.0 0.0C-49.0 -153.0 -141.0 -294.0 -247.0 -375.0C-209.0 -397.0 -140.0 -443.0 -111.0 -470.0C-7.0 -373.0 96.0 -214.0 156.0 -41.0ZM-32.0 -147.0V-288.0H679.0V-147.0Z"/></g>
<g fill="red" transform="translate(700 400) scale(0.1 -0.1)"><path d="M0.0 0.0C-37.0 -140.0 -96.0 -277.0 -169.0 -369.0C-162.0 -373.0 -149.0 -383.0 -143.0 -388.0C-71.0 -292.0 -11.0 -153.0 30.0 -6.0ZM-42.0 -167.0 -57.0 -197.0H360.0V-167.0Z"/></g>
<g fill="black" opacity=".8" transform="translate(700 400) scale(0.1 -0.1)"><path d="M0.0 0.0C-37.0 -142.0 -95.0 -277.0 -171.0 -369.0C-163.0 -372.0 -150.0 -381.0 -143.0 -387.0C-71.0 -291.0 -11.0 -154.0 29.0 -6.0ZM-41.0 -170.0 -54.0 -200.0H361.0V-170.0Z"/></g>
<g fill="red" transform="translate(800 400) scale(0.1 -0.1)"><path d="M0.0 0.0C-30.0 -114.0 -87.0 -230.0 -156.0 -300.0C-124.0 -320.0 -65.0 -362.0 -39.0 -386.0C32.0 -302.0 100.0 -167.0 140.0 -33.0ZM27.0 -143.0 -36.0 -269.0H410.0V-143.0Z"/></g>
<g fill="black" opacity=".8" transform="translate(800 400) scale(0.1 -0.1)"><path d="M0.0 0.0C-31.0 -115.0 -86.0 -230.0 -157.0 -300.0C-124.0 -320.0 -64.0 -363.0 -38.0 -386.0C33.0 -302.0 101.0 -167.0 140.0 -33.0ZM25.0 -138.0 -39.0 -269.0H408.0V-138.0Z"/></g>
<g fill="red" transform="translate(900 400) scale(0.1 -0.1)"><path d="M0.0 0.0C-41.0 -137.0 -107.0 -266.0 -190.0 -353.0C-181.0 -357.0 -168.0 -367.0 -163.0 -371.0C-83.0 -282.0 -14.0 -150.0 29.0 -7.0ZM-59.0 -167.0V-197.0H418.0V-167.0Z"/></g>
<g fill="black" opacity=".8" transform="translate(900 400) scale(0.1 -0.1)"><path d="M0.0 0.0C-41.0 -137.0 -108.0 -267.0 -188.0 -355.0C-180.0 -358.0 -167.0 -367.0 -161.0 -373.0C-84.0 -282.0 -16.0 -150.0 29.0 -6.0ZM-62.0 -166.0V-195.0H417.0V-166.0Z"/></g>
<g fill="red" transform="translate(1000 400) scale(0.1 -0.1)"><path d="M0.0 0.0C-35.0 -118.0 -103.0 -234.0 -183.0 -304.0C-149.0 -326.0 -90.0 -375.0 -65.0 -401.0C19.0 -316.0 98.0 -177.0 145.0 -36.0ZM-27.0 -142.0V-277.0H437.0V-142.0Z"/></g>
<g fill="black" opacity=".8" transform="translate(1000 400) scale(0.1 -0.1)"><path d="M0.0 0.0C-38.0 -117.0 -107.0 -236.0 -184.0 -306.0C-150.0 -328.0 -90.0 -373.0 -63.0 -399.0C15.0 -314.0 96.0 -174.0 144.0 -39.0ZM-25.0 -143.0V-279.0H438.0V-143.0Z"/></g>
<g fill="red" transform="translate(1100 400) scale(0.1 -0.1)"><path d="M0.0 0.0C-35.0 -125.0 -94.0 -247.0 -165.0 -328.0C-157.0 -333.0 -145.0 -342.0 -140.0 -347.0C-70.0 -262.0 -9.0 -137.0 29.0 -6.0ZM-45.0 -161.0 -56.0 -190.0H397.0V-161.0Z"/></g>
<g fill="black" opacity=".8" transform="translate(1100 400) scale(0.1 -0.1)"><path d="M0.0 0.0C-35.0 -123.0 -94.0 -246.0 -169.0 -330.0C-161.0 -333.0 -147.0 -342.0 -141.0 -348.0C-69.0 -260.0 -8.0 -135.0 31.0 -6.0ZM-41.0 -163.0 -50.0 -193.0H397.0V-163.0Z"/></g>
<g fill="red" transform="translate(1200 400) scale(0.1 -0.1)"><path d="M0.0 0.0C-28.0 -120.0 -82.0 -244.0 -150.0 -317.0C-114.0 -333.0 -48.0 -368.0 -18.0 -390.0C46.0 -305.0 109.0 -168.0 145.0 -31.0ZM45.0 -141.0 3.0 -280.0H455.0V-141.0Z"/></g>
<g fill="black" opacity=".8" transform="translate(1200 400) scale(0.1 -0.1)"><path d="M0.0 0.0C-27.0 -115.0 -78.0 -237.0 -146.0 -312.0C-110.0 -332.0 -49.0 -373.0 -21.0 -397.0C49.0 -308.0 111.0 -167.0 148.0 -33.0ZM37.0 -142.0 1.0 -274.0H455.0V-142.0Z"/></g>
<g fill="red" transform="translate(1300 400) scale(0.1 -0.1)"><path d="M0.0 0.0C-37.0 -115.0 -93.0 -225.0 -163.0 -300.0C-155.0 -304.0 -142.0 -313.0 -137.0 -317.0C-70.0 -240.0 -10.0 -125.0 28.0 -7.0ZM-40.0 -134.0 -55.0 -164.0H414.0V-134.0Z"/></g>
<g fill="black" opacity=".8" transform="translate(1300 400) scale(0.1 -0.1)"><path d="M0.0 0.0C-34.0 -114.0 -90.0 -225.0 -164.0 -302.0C-156.0 -305.0 -144.0 -313.0 -138.0 -320.0C-68.0 -238.0 -8.0 -125.0 29.0 -5.0ZM-42.0 -134.0 -56.0 -163.0H415.0V-134.0Z"/></g>
<g fill="red" transform="translate(1400 400) scale(0.1 -0.1)"><path d="M0.0 0.0C-30.0 -98.0 -88.0 -195.0 -156.0 -255.0C-124.0 -273.0 -68.0 -313.0 -43.0 -336.0C26.0 -265.0 94.0 -149.0 134.0 -33.0ZM36.0 -98.0 -27.0 -225.0H487.0V-98.0Z"/></g>
<g fill="black" opacity=".8" transform="translate(1400 400) scale(0.1 -0.1)"><path d="M0.0 0.0C-29.0 -97.0 -84.0 -193.0 -156.0 -255.0C-124.0 -274.0 -70.0 -315.0 -47.0 -338.0C29.0 -263.0 94.0 -148.0 134.0 -30.0ZM35.0 -101.0 -26.0 -222.0H486.0V-101.0Z"/></g>
<g fill="red" transform="translate(1500 400) scale(0.1 -0.1)"><path d="M0.0 0.0C-29.0 -139.0 -73.0 -277.0 -137.0 -369.0C-129.0 -372.0 -114.0 -380.0 -108.0 -384.0C-47.0 -290.0 0.0 -151.0 30.0 -6.0ZM-27.0 -162.0 -32.0 -192.0H186.0V-162.0Z"/></g>
<g fill="black" opacity=".8" transform="translate(1500 400) scale(0.1 -0.1)"><path d="M0.0 0.0C-29.0 -144.0 -71.0 -280.0 -130.0 -371.0C-122.0 -373.0 -107.0 -380.0 -102.0 -384.0C-49.0 -292.0 -4.0 -154.0 27.0 -5.0ZM-28.0 -152.0 -35.0 -179.0H179.0V-152.0Z"/></g>
<g fill="red" transform="translate(1600 400) scale(0.1 -0.1)"><path d="M0.0 0.0C-12.0 -150.0 -35.0 -305.0 -79.0 -405.0C-53.0 -429.0 -7.0 -484.0 10.0 -510.0C68.0 -389.0 105.0 -198.0 126.0 -22.0ZM39.0 -126.0 3.0 -246.0H229.0V-126.0Z"/></g>
<g fill="black" opacity=".8" transform="translate(1600 400) scale(0.1 -0.1)"><path d="M0.0 0.0C-15.0 -157.0 -45.0 -319.0 -92.0 -415.0C-63.0 -434.0 -6.0 -473.0 17.0 -493.0C64.0 -382.0 106.0 -197.0 126.0 -25.0ZM41.0 -135.0 3.0 -259.0H237.0V-135.0Z"/></g>
<g fill="red" transform="translate(100 500) scale(0.1 -0.1)"><path d="M0.0 0.0C-42.0 -134.0 -111.0 -263.0 -192.0 -349.0C-185.0 -354.0 -171.0 -364.0 -165.0 -369.0C-86.0 -280.0 -14.0 -148.0 31.0 -7.0ZM-64.0 -169.0V-199.0H431.0V-169.0Z"/></g>
<g fill="black" opacity=".8" transform="translate(100 500) scale(0.1 -0.1)"><path d="M0.0 0.0C-42.0 -135.0 -110.0 -264.0 -193.0 -351.0C-185.0 -354.0 -172.0 -363.0 -165.0 -369.0C-87.0 -279.0 -16.0 -148.0 30.0 -6.0ZM-65.0 -170.0 -64.0 -200.0H432.0V-170.0Z"/></g>
<g fill="red" transform="translate(200 500) scale(0.1 -0.1)"><path d="M0.0 0.0C-37.0 -126.0 -105.0 -253.0 -185.0 -329.0C-150.0 -350.0 -87.0 -397.0 -60.0 -423.0C21.0 -332.0 101.0 -184.0 149.0 -37.0ZM-15.0 -152.0V-287.0H472.0V-152.0Z"/></g>
<g fill="black" opacity=".8" transform="translate(200 500) scale(0.1 -0.1)"><path d="M0.0 0.0C-37.0 -125.0 -105.0 -253.0 -184.0 -329.0C-149.0 -351.0 -88.0 -397.0 -60.0 -424.0C20.0 -332.0 101.0 -183.0 148.0 -39.0ZM-16.0 -150.0 -15.0 -287.0H471.0V-150.0Z"/></g>
<g fill="red" transform="translate(300 500) scale(0.1 -0.1)"><path d="M0.0 0.0C-35.0 -133.0 -94.0 -260.0 -168.0 -345.0C-160.0 -349.0 -146.0 -358.0 -142.0 -363.0C-69.0 -275.0 -8.0 -146.0 29.0 -6.0ZM-48.0 -154.0V-183.0H429.0V-154.0Z"/></g>
<g fill="black" opacity=".8" transform="translate(300 500) scale(0.1 -0.1)"><path d="M0.0 0.0C-36.0 -133.0 -94.0 -260.0 -168.0 -347.0C-160.0 -350.0 -147.0 -358.0 -140.0 -364.0C-70.0 -275.0 -10.0 -145.0 30.0 -6.0ZM-48.0 -152.0 -47.0 -182.0H427.0V-152.0Z"/></g>
<g fill="red" transform="translate(400 500) scale(0.1 -0.1)"><path d="M0.0 0.0C-31.0 -116.0 -91.0 -231.0 -165.0 -300.0C-132.0 -320.0 -72.0 -364.0 -46.0 -389.0C30.0 -305.0 101.0 -170.0 142.0 -33.0ZM2.0 -119.0V-249.0H471.0V-119.0Z"/></g>
<g fill="black" opacity=".8" transform="translate(400 500) scale(0.1 -0.1)"><path d="M0.0 0.0C-32.0 -116.0 -91.0 -231.0 -165.0 -301.0C-131.0 -321.0 -72.0 -363.0 -46.0 -387.0C29.0 -304.0 100.0 -169.0 141.0 -34.0ZM-0.0 -118.0 1.0 -252.0H472.0V-118.0Z"/></g>
<g fill="red" transform="translate(500 500) scale(0.1 -0.1)"><path d="M0.0 0.0C-30.0 -113.0 -81.0 -222.0 -146.0 -296.0C-138.0 -300.0 -125.0 -309.0 -119.0 -313.0C-58.0 -237.0 -3.0 -124.0 30.0 -6.0ZM-37.0 -122.0V-152.0H430.0V-122.0Z"/></g>
<g fill="black" opacity=".8" transform="translate(500 500) scale(0.1 -0.1)"><path d="M0.0 0.0C-30.0 -110.0 -81.0 -221.0 -148.0 -297.0C-140.0 -300.0 -127.0 -308.0 -121.0 -315.0C-56.0 -235.0 -3.0 -121.0 31.0 -5.0ZM-34.0 -124.0V-155.0H431.0V-124.0Z"/></g>
<g fill="red" transform="translate(600 500) scale(0.1 -0.1)"><path d="M0.0 0.0C-29.0 -103.0 -86.0 -205.0 -157.0 -267.0C-126.0 -287.0 -72.0 -331.0 -48.0 -354.0C28.0 -278.0 96.0 -155.0 136.0 -30.0ZM30.0 -92.0V-217.0H496.0V-92.0Z"/></g>
<g fill="black" opacity=".8" transform="translate(600 500) scale(0.1 -0.1)"><path d="M0.0 0.0C-29.0 -101.0 -84.0 -204.0 -157.0 -268.0C-125.0 -288.0 -72.0 -331.0 -48.0 -356.0C30.0 -277.0 96.0 -155.0 136.0 -31.0ZM25.0 -87.0 27.0 -217.0H495.0V-87.0Z"/></g>
<g fill="red" transform="translate(700 500) scale(0.1 -0.1)"><path d="M0.0 0.0C-20.0 -83.0 -62.0 -187.0 -117.0 -255.0C-110.0 -259.0 -99.0 -268.0 -94.0 -273.0C-37.0 -202.0 7.0 -94.0 30.0 -6.0ZM-26.0 -98.0V-127.0H222.0V-98.0Z"/></g>
<g fill="black" opacity=".8" transform="translate(700 500) scale(0.1 -0.1)"><path d="M0.0 0.0C-23.0 -89.0 -65.0 -186.0 -120.0 -253.0C-112.0 -255.0 -99.0 -263.0 -93.0 -269.0C-40.0 -200.0 4.0 -100.0 30.0 -5.0ZM-28.0 -109.0 -30.0 -138.0H230.0V-109.0Z"/></g>
<g fill="red" transform="translate(800 500) scale(0.1 -0.1)"><path d="M0.0 0.0C-16.0 -85.0 -52.0 -195.0 -108.0 -261.0C-80.0 -276.0 -34.0 -307.0 -9.0 -328.0C53.0 -253.0 97.0 -130.0 125.0 -25.0ZM38.0 -104.0V-217.0H286.0V-104.0Z"/></g>
<g fill="black" opacity=".8" transform="translate(800 500) scale(0.1 -0.1)"><path d="M0.0 0.0C-18.0 -92.0 -55.0 -193.0 -108.0 -257.0C-78.0 -275.0 -29.0 -310.0 -6.0 -333.0C53.0 -255.0 99.0 -137.0 126.0 -27.0ZM44.0 -92.0 38.0 -209.0H277.0V-92.0Z"/></g>
<g fill="red" transform="translate(900 500) scale(0.1 -0.1)"><path d="M0.0 0.0C-31.0 -114.0 -81.0 -225.0 -146.0 -300.0C-138.0 -304.0 -124.0 -312.0 -118.0 -317.0C-56.0 -240.0 -3.0 -126.0 31.0 -6.0ZM-36.0 -125.0V-155.0H340.0V-125.0Z"/></g>
<g fill="black" opacity=".8" transform="translate(900 500) scale(0.1 -0.1)"><path d="M0.0 0.0C-30.0 -113.0 -79.0 -226.0 -145.0 -302.0C-137.0 -305.0 -124.0 -313.0 -118.0 -318.0C-55.0 -239.0 -3.0 -124.0 29.0 -5.0ZM-43.0 -126.0 -44.0 -155.0H344.0V-126.0Z"/></g>
<g fill="red" transform="translate(1000 500) scale(0.1 -0.1)"><path d="M0.0 0.0C-22.0 -116.0 -64.0 -233.0 -123.0 -305.0C-92.0 -323.0 -35.0 -364.0 -10.0 -387.0C53.0 -301.0 106.0 -164.0 135.0 -27.0ZM23.0 -94.0V-218.0H429.0V-94.0Z"/></g>
<g fill="black" opacity=".8" transform="translate(1000 500) scale(0.1 -0.1)"><path d="M0.0 0.0C-21.0 -117.0 -62.0 -236.0 -125.0 -309.0C-93.0 -326.0 -38.0 -362.0 -13.0 -384.0C53.0 -297.0 104.0 -162.0 132.0 -25.0ZM31.0 -94.0 27.0 -217.0H426.0V-94.0Z"/></g>
<g fill="red" transform="translate(1100 500) scale(0.1 -0.1)"><path d="M0.0 0.0C-33.0 -124.0 -89.0 -242.0 -161.0 -320.0C-153.0 -324.0 -140.0 -334.0 -135.0 -339.0C-65.0 -258.0 -6.0 -137.0 29.0 -6.0ZM-402.0 -370.0V-400.0H-212.0V-370.0Z"/></g>
<g fill="black" opacity=".8" transform="translate(1100 500) scale(0.1 -0.1)"><path d="M0.0 0.0C-32.0 -125.0 -90.0 -242.0 -165.0 -320.0C-157.0 -324.0 -143.0 -335.0 -137.0 -341.0C-64.0 -259.0 -2.0 -138.0 32.0 -6.0ZM-393.0 -366.0 -390.0 -399.0H-219.0V-366.0Z"/></g>
<g fill="red" transform="translate(1200 500) scale(0.1 -0.1)"><path d="M0.0 0.0C-28.0 -123.0 -86.0 -239.0 -167.0 -309.0C-135.0 -328.0 -78.0 -372.0 -54.0 -396.0C29.0 -311.0 99.0 -175.0 137.0 -28.0ZM-341.0 -363.0V-494.0H-194.0V-363.0Z"/></g>
<g fill="black" opacity=".8" transform="translate(1200 500) scale(0.1 -0.1)"><path d="M0.0 0.0C-29.0 -117.0 -86.0 -232.0 -159.0 -302.0C-129.0 -325.0 -77.0 -376.0 -54.0 -402.0C29.0 -315.0 98.0 -175.0 138.0 -34.0ZM-358.0 -363.0 -345.0 -499.0H-188.0V-363.0Z"/></g>
<g fill="red" transform="translate(1300 500) scale(0.1 -0.1)"><path d="M0.0 0.0C-31.0 -144.0 -80.0 -284.0 -150.0 -377.0C-142.0 -380.0 -128.0 -388.0 -122.0 -392.0C-55.0 -297.0 -3.0 -156.0 30.0 -6.0ZM-38.0 -162.0V-192.0H387.0V-162.0Z"/></g>
<g fill="black" opacity=".8" transform="translate(1300 500) scale(0.1 -0.1)"><path d="M0.0 0.0C-32.0 -142.0 -83.0 -281.0 -154.0 -375.0C-145.0 -378.0 -130.0 -386.0 -124.0 -392.0C-57.0 -295.0 -4.0 -154.0 32.0 -6.0ZM-32.0 -171.0V-202.0H392.0V-171.0Z"/></g>
<g fill="red" transform="translate(1400 500) scale(0.1 -0.1)"><path d="M0.0 0.0C-25.0 -129.0 -73.0 -262.0 -135.0 -342.0C-100.0 -358.0 -34.0 -393.0 -4.0 -414.0C56.0 -323.0 113.0 -175.0 145.0 -29.0ZM40.0 -143.0V-280.0H459.0V-143.0Z"/></g>
<g fill="black" opacity=".8" transform="translate(1400 500) scale(0.1 -0.1)"><path d="M0.0 0.0C-23.0 -129.0 -68.0 -260.0 -134.0 -339.0C-98.0 -357.0 -33.0 -396.0 -4.0 -419.0C61.0 -326.0 118.0 -177.0 148.0 -30.0ZM34.0 -132.0V-273.0H454.0V-132.0Z"/></g>
<g fill="red" transform="translate(1500 500) scale(0.1 -0.1)"><path d="M0.0 0.0C-30.0 -113.0 -80.0 -222.0 -142.0 -296.0C-134.0 -300.0 -122.0 -309.0 -117.0 -313.0C-56.0 -237.0 -3.0 -124.0 29.0 -6.0ZM-36.0 -122.0V-152.0H418.0V-122.0Z"/></g>
<g fill="black" opacity=".8" transform="translate(1500 500) scale(0.1 -0.1)"><path d="M0.0 0.0C-30.0 -111.0 -79.0 -222.0 -144.0 -297.0C-136.0 -300.0 -123.0 -308.0 -117.0 -314.0C-55.0 -235.0 -3.0 -122.0 29.0 -5.0ZM-31.0 -124.0V-153.0H417.0V-124.0Z"/></g>
<g fill="red" transform="translate(1600 500) scale(0.1 -0.1)"><path d="M0.0 0.0C-28.0 -103.0 -82.0 -205.0 -149.0 -267.0C-120.0 -287.0 -68.0 -331.0 -46.0 -354.0C26.0 -278.0 91.0 -155.0 129.0 -30.0ZM28.0 -92.0V-217.0H470.0V-92.0Z"/></g>
<g fill="black" opacity=".8" transform="translate(1600 500) scale(0.1 -0.1)"><path d="M0.0 0.0C-29.0 -102.0 -82.0 -205.0 -151.0 -269.0C-120.0 -289.0 -68.0 -331.0 -45.0 -354.0C28.0 -276.0 93.0 -153.0 132.0 -31.0ZM21.0 -90.0 24.0 -216.0H470.0V-90.0Z"/></g>
<g fill="red" transform="translate(100 600) scale(0.1 -0.1)"><path d="M0.0 0.0C-40.0 -137.0 -107.0 -266.0 -188.0 -353.0C-181.0 -357.0 -168.0 -366.0 -163.0 -371.0C-83.0 -281.0 -14.0 -150.0 29.0 -6.0ZM-59.0 -167.0V-197.0H445.0V-167.0Z"/></g>
<g fill="black" opacity=".8" transform="translate(100 600) scale(0.1 -0.1)"><path d="M0.0 0.0C-41.0 -137.0 -107.0 -267.0 -188.0 -354.0C-180.0 -357.0 -167.0 -366.0 -161.0 -372.0C-84.0 -281.0 -15.0 -150.0 29.0 -6.0ZM-57.0 -165.0V-194.0H442.0V-165.0Z"/></g>
<g fill="red" transform="translate(200 600) scale(0.1 -0.1)"><path d="M0.0 0.0C-36.0 -118.0 -103.0 -234.0 -183.0 -304.0C-150.0 -326.0 -92.0 -373.0 -67.0 -399.0C16.0 -314.0 95.0 -175.0 142.0 -35.0ZM-11.0 -132.0V-267.0H480.0V-132.0Z"/></g>
<g fill="black" opacity=".8" transform="translate(200 600) scale(0.1 -0.1)"><path d="M0.0 0.0C-37.0 -119.0 -105.0 -236.0 -186.0 -306.0C-151.0 -327.0 -92.0 -371.0 -66.0 -396.0C16.0 -312.0 96.0 -175.0 143.0 -37.0ZM-15.0 -134.0 -13.0 -269.0H483.0V-134.0Z"/></g>
<g fill="red" transform="translate(300 600) scale(0.1 -0.1)"><path d="M0.0 0.0C-34.0 -127.0 -89.0 -253.0 -157.0 -336.0C-150.0 -340.0 -136.0 -349.0 -131.0 -353.0C-64.0 -267.0 -8.0 -139.0 30.0 -6.0ZM-40.0 -153.0V-182.0H437.0V-153.0Z"/></g>
<g fill="black" opacity=".8" transform="translate(300 600) scale(0.1 -0.1)"><path d="M0.0 0.0C-34.0 -126.0 -89.0 -251.0 -160.0 -337.0C-151.0 -340.0 -137.0 -349.0 -131.0 -355.0C-64.0 -267.0 -7.0 -138.0 31.0 -6.0ZM-44.0 -155.0 -45.0 -186.0H442.0V-155.0Z"/></g>
<g fill="red" transform="translate(400 600) scale(0.1 -0.1)"><path d="M0.0 0.0C-33.0 -120.0 -92.0 -250.0 -154.0 -329.0C-118.0 -349.0 -52.0 -392.0 -23.0 -417.0C40.0 -325.0 109.0 -175.0 152.0 -39.0ZM7.0 -136.0V-275.0H485.0V-136.0Z"/></g>
<g fill="black" opacity=".8" transform="translate(400 600) scale(0.1 -0.1)"><path d="M0.0 0.0C-30.0 -121.0 -84.0 -249.0 -151.0 -327.0C-116.0 -349.0 -55.0 -393.0 -28.0 -419.0C41.0 -326.0 109.0 -176.0 148.0 -36.0ZM11.0 -134.0 10.0 -271.0H481.0V-134.0Z"/></g>
<g fill="red" transform="translate(500 600) scale(0.1 -0.1)"><path d="M0.0 0.0C-36.0 -132.0 -98.0 -258.0 -175.0 -340.0C-167.0 -345.0 -155.0 -355.0 -149.0 -359.0C-74.0 -272.0 -10.0 -145.0 30.0 -6.0ZM-47.0 -148.0V-177.0H461.0V-148.0Z"/></g>
<g fill="black" opacity=".8" transform="translate(500 600) scale(0.1 -0.1)"><path d="M0.0 0.0C-37.0 -131.0 -98.0 -257.0 -175.0 -343.0C-167.0 -345.0 -153.0 -354.0 -147.0 -360.0C-74.0 -271.0 -11.0 -143.0 30.0 -6.0ZM-46.0 -146.0V-176.0H460.0V-146.0Z"/></g>
<g fill="red" transform="translate(600 600) scale(0.1 -0.1)"><path d="M0.0 0.0C-31.0 -121.0 -91.0 -241.0 -167.0 -313.0C-134.0 -334.0 -77.0 -383.0 -52.0 -409.0C28.0 -321.0 101.0 -178.0 142.0 -33.0ZM11.0 -113.0V-243.0H520.0V-113.0Z"/></g>
<g fill="black" opacity=".8" transform="translate(600 600) scale(0.1 -0.1)"><path d="M0.0 0.0C-32.0 -122.0 -93.0 -243.0 -170.0 -317.0C-136.0 -337.0 -77.0 -381.0 -51.0 -405.0C28.0 -317.0 100.0 -176.0 142.0 -34.0ZM9.0 -112.0V-246.0H521.0V-112.0Z"/></g>
<g fill="red" transform="translate(700 600) scale(0.1 -0.1)"><path d="M0.0 0.0C-24.0 -122.0 -62.0 -245.0 -116.0 -328.0C-108.0 -331.0 -93.0 -337.0 -87.0 -340.0C-37.0 -257.0 3.0 -132.0 29.0 -5.0ZM-24.0 -157.0V-186.0H294.0V-157.0Z"/></g>
<g fill="black" opacity=".8" transform="translate(700 600) scale(0.1 -0.1)"><path d="M0.0 0.0C-24.0 -122.0 -62.0 -244.0 -118.0 -327.0C-109.0 -329.0 -96.0 -337.0 -89.0 -342.0C-38.0 -257.0 3.0 -133.0 30.0 -5.0ZM-20.0 -160.0 -19.0 -189.0H294.0V-160.0Z"/></g>
<g fill="red" transform="translate(800 600) scale(0.1 -0.1)"><path d="M0.0 0.0C-19.0 -120.0 -59.0 -240.0 -116.0 -313.0C-85.0 -329.0 -30.0 -365.0 -5.0 -386.0C54.0 -300.0 103.0 -163.0 128.0 -24.0ZM42.0 -133.0V-266.0H336.0V-133.0Z"/></g>
<g fill="black" opacity=".8" transform="translate(800 600) scale(0.1 -0.1)"><path d="M0.0 0.0C-20.0 -115.0 -59.0 -236.0 -114.0 -310.0C-83.0 -328.0 -28.0 -368.0 -4.0 -391.0C54.0 -303.0 105.0 -161.0 132.0 -29.0ZM35.0 -131.0 40.0 -261.0H336.0V-131.0Z"/></g>
<g fill="red" transform="translate(900 600) scale(0.1 -0.1)"><path d="M0.0 0.0C-39.0 -122.0 -102.0 -241.0 -177.0 -320.0C-170.0 -324.0 -156.0 -333.0 -150.0 -337.0C-78.0 -256.0 -13.0 -134.0 29.0 -7.0ZM-44.0 -126.0V-156.0H477.0V-126.0Z"/></g>
<g fill="black" opacity=".8" transform="translate(900 600) scale(0.1 -0.1)"><path d="M0.0 0.0C-38.0 -122.0 -100.0 -241.0 -177.0 -322.0C-169.0 -325.0 -156.0 -333.0 -150.0 -339.0C-77.0 -255.0 -13.0 -134.0 29.0 -6.0ZM-44.0 -125.0V-153.0H477.0V-125.0Z"/></g>
<g fill="red" transform="translate(1000 600) scale(0.1 -0.1)"><path d="M0.0 0.0C-32.0 -108.0 -91.0 -222.0 -155.0 -292.0C-121.0 -310.0 -59.0 -349.0 -31.0 -372.0C32.0 -291.0 100.0 -160.0 141.0 -36.0ZM13.0 -95.0V-224.0H527.0V-95.0Z"/></g>
<g fill="black" opacity=".8" transform="translate(1000 600) scale(0.1 -0.1)"><path d="M0.0 0.0C-30.0 -111.0 -86.0 -224.0 -157.0 -293.0C-123.0 -310.0 -62.0 -347.0 -34.0 -370.0C36.0 -289.0 102.0 -160.0 141.0 -33.0ZM12.0 -98.0 13.0 -225.0H527.0V-98.0Z"/></g>
<g fill="red" transform="translate(1100 600) scale(0.1 -0.1)"><path d="M0.0 0.0C-32.0 -124.0 -84.0 -249.0 -150.0 -332.0C-141.0 -336.0 -126.0 -343.0 -121.0 -347.0C-60.0 -262.0 -6.0 -136.0 29.0 -6.0ZM-32.0 -150.0 -41.0 -179.0H246.0V-150.0Z"/></g>
<g fill="black" opacity=".8" transform="translate(1100 600) scale(0.1 -0.1)"><path d="M0.0 0.0C-32.0 -123.0 -83.0 -247.0 -149.0 -332.0C-140.0 -335.0 -125.0 -344.0 -119.0 -350.0C-57.0 -263.0 -2.0 -135.0 33.0 -6.0ZM-31.0 -145.0 -41.0 -177.0H246.0V-145.0Z"/></g>
<g fill="red" transform="translate(1200 600) scale(0.1 -0.1)"><path d="M0.0 0.0C-28.0 -127.0 -78.0 -266.0 -128.0 -354.0C-96.0 -382.0 -41.0 -444.0 -18.0 -474.0C42.0 -365.0 108.0 -189.0 148.0 -39.0ZM43.0 -139.0 6.0 -266.0H287.0V-139.0Z"/></g>
<g fill="black" opacity=".8" transform="translate(1200 600) scale(0.1 -0.1)"><path d="M0.0 0.0C-26.0 -132.0 -73.0 -276.0 -133.0 -364.0C-101.0 -388.0 -45.0 -437.0 -20.0 -464.0C47.0 -358.0 108.0 -188.0 143.0 -35.0ZM44.0 -138.0 3.0 -273.0H287.0V-138.0Z"/></g>
<g fill="red" transform="translate(1300 600) scale(0.1 -0.1)"><path d="M0.0 0.0C-25.0 -122.0 -62.0 -245.0 -116.0 -328.0C-108.0 -331.0 -93.0 -337.0 -87.0 -341.0C-37.0 -258.0 3.0 -133.0 30.0 -6.0ZM-25.0 -157.0V-186.0H262.0V-157.0Z"/></g>
<g fill="black" opacity=".8" transform="translate(1300 600) scale(0.1 -0.1)"><path d="M0.0 0.0C-24.0 -124.0 -61.0 -245.0 -115.0 -328.0C-107.0 -330.0 -94.0 -337.0 -88.0 -342.0C-39.0 -258.0 1.0 -134.0 28.0 -5.0ZM-31.0 -161.0 -30.0 -188.0H265.0V-161.0Z"/></g>
<g fill="red" transform="translate(1400 600) scale(0.1 -0.1)"><path d="M0.0 0.0C-17.0 -121.0 -52.0 -243.0 -104.0 -318.0C-75.0 -333.0 -21.0 -367.0 3.0 -387.0C57.0 -300.0 100.0 -162.0 123.0 -23.0ZM16.0 -133.0V-266.0H310.0V-133.0Z"/></g>
<g fill="black" opacity=".8" transform="translate(1400 600) scale(0.1 -0.1)"><path d="M0.0 0.0C-18.0 -118.0 -53.0 -241.0 -104.0 -315.0C-74.0 -333.0 -21.0 -370.0 3.0 -390.0C55.0 -303.0 101.0 -160.0 125.0 -27.0ZM21.0 -135.0 20.0 -258.0H307.0V-135.0Z"/></g>
<g fill="red" transform="translate(1500 600) scale(0.1 -0.1)"><path d="M0.0 0.0C-45.0 -134.0 -119.0 -263.0 -205.0 -349.0C-196.0 -354.0 -183.0 -364.0 -178.0 -369.0C-93.0 -280.0 -18.0 -149.0 31.0 -8.0ZM-65.0 -169.0V-199.0H443.0V-169.0Z"/></g>
<g fill="black" opacity=".8" transform="translate(1500 600) scale(0.1 -0.1)"><path d="M0.0 0.0C-45.0 -135.0 -118.0 -264.0 -206.0 -350.0C-197.0 -354.0 -184.0 -363.0 -178.0 -369.0C-94.0 -279.0 -18.0 -148.0 31.0 -7.0ZM-61.0 -169.0 -60.0 -200.0H442.0V-169.0Z"/></g>
<g fill="red" transform="translate(1600 600) scale(0.1 -0.1)"><path d="M0.0 0.0C-40.0 -126.0 -113.0 -253.0 -197.0 -329.0C-162.0 -350.0 -100.0 -397.0 -72.0 -424.0C13.0 -333.0 98.0 -185.0 149.0 -38.0ZM-5.0 -152.0V-287.0H482.0V-152.0Z"/></g>
<g fill="black" opacity=".8" transform="translate(1600 600) scale(0.1 -0.1)"><path d="M0.0 0.0C-40.0 -126.0 -113.0 -252.0 -197.0 -328.0C-161.0 -351.0 -99.0 -397.0 -72.0 -425.0C14.0 -333.0 100.0 -185.0 150.0 -40.0ZM-11.0 -150.0 -8.0 -288.0H483.0V-150.0Z"/></g>
<g fill="red" transform="translate(100 700) scale(0.1 -0.1)"><path d="M0.0 0.0C-34.0 -111.0 -87.0 -218.0 -152.0 -292.0C-144.0 -296.0 -131.0 -306.0 -127.0 -310.0C-65.0 -235.0 -9.0 -122.0 28.0 -7.0ZM-36.0 -111.0V-141.0H384.0V-111.0Z"/></g>
<g fill="black" opacity=".8" transform="translate(100 700) scale(0.1 -0.1)"><path d="M0.0 0.0C-32.0 -110.0 -85.0 -220.0 -153.0 -294.0C-145.0 -297.0 -133.0 -305.0 -127.0 -310.0C-63.0 -233.0 -7.0 -121.0 28.0 -5.0ZM-37.0 -113.0 -38.0 -141.0H387.0V-113.0Z"/></g>
<g fill="red" transform="translate(200 700) scale(0.1 -0.1)"><path d="M0.0 0.0C-31.0 -101.0 -86.0 -209.0 -144.0 -275.0C-112.0 -294.0 -57.0 -334.0 -32.0 -358.0C26.0 -280.0 91.0 -153.0 131.0 -36.0ZM16.0 -87.0V-213.0H436.0V-87.0Z"/></g>
<g fill="black" opacity=".8" transform="translate(200 700) scale(0.1 -0.1)"><path d="M0.0 0.0C-28.0 -104.0 -80.0 -211.0 -145.0 -277.0C-114.0 -295.0 -61.0 -334.0 -37.0 -357.0C32.0 -278.0 94.0 -153.0 131.0 -31.0ZM17.0 -88.0 16.0 -210.0H433.0V-88.0Z"/></g>
<g fill="red" transform="translate(300 700) scale(0.1 -0.1)"><path d="M0.0 0.0C-33.0 -118.0 -87.0 -232.0 -156.0 -308.0C-147.0 -312.0 -134.0 -320.0 -129.0 -325.0C-65.0 -245.0 -8.0 -130.0 29.0 -6.0ZM-212.0 47.0V17.0H499.0V47.0Z"/></g>
<g fill="black" opacity=".8" transform="translate(300 700) scale(0.1 -0.1)"><path d="M0.0 0.0C-34.0 -118.0 -88.0 -232.0 -157.0 -310.0C-148.0 -313.0 -135.0 -322.0 -129.0 -328.0C-64.0 -246.0 -7.0 -129.0 30.0 -6.0ZM-212.0 52.0 -211.0 22.0H496.0V52.0Z"/></g>
<g fill="red" transform="translate(400 700) scale(0.1 -0.1)"><path d="M0.0 0.0C-35.0 -89.0 -103.0 -177.0 -179.0 -230.0C-146.0 -247.0 -89.0 -286.0 -62.0 -309.0C12.0 -246.0 89.0 -143.0 134.0 -35.0ZM-192.0 117.0V-10.0H524.0V117.0Z"/></g>
<g fill="black" opacity=".8" transform="translate(400 700) scale(0.1 -0.1)"><path d="M0.0 0.0C-34.0 -90.0 -98.0 -173.0 -174.0 -225.0C-143.0 -245.0 -90.0 -287.0 -67.0 -310.0C12.0 -246.0 87.0 -144.0 130.0 -34.0ZM-196.0 114.0 -190.0 -16.0H527.0V114.0Z"/></g>
<g fill="red" transform="translate(500 700) scale(0.1 -0.1)"><path d="M0.0 0.0C-27.0 -75.0 -79.0 -176.0 -152.0 -251.0C-144.0 -254.0 -135.0 -262.0 -129.0 -268.0C-52.0 -188.0 -1.0 -86.0 31.0 -3.0ZM-211.0 54.0V25.0H526.0V54.0Z"/></g>
<g fill="black" opacity=".8" transform="translate(500 700) scale(0.1 -0.1)"><path d="M0.0 0.0C-31.0 -88.0 -83.0 -180.0 -149.0 -246.0C-141.0 -248.0 -129.0 -257.0 -123.0 -263.0C-59.0 -194.0 -5.0 -99.0 30.0 -5.0ZM-204.0 57.0 -205.0 29.0H520.0V57.0Z"/></g>
<g fill="red" transform="translate(600 700) scale(0.1 -0.1)"><path d="M0.0 0.0C-24.0 -61.0 -68.0 -131.0 -136.0 -185.0C-106.0 -201.0 -62.0 -238.0 -40.0 -265.0C38.0 -194.0 88.0 -111.0 126.0 -21.0ZM-153.0 108.0V-4.0H563.0V108.0Z"/></g>
<g fill="black" opacity=".8" transform="translate(600 700) scale(0.1 -0.1)"><path d="M0.0 0.0C-26.0 -69.0 -77.0 -138.0 -144.0 -185.0C-111.0 -200.0 -57.0 -233.0 -31.0 -255.0C38.0 -199.0 97.0 -117.0 132.0 -29.0ZM-160.0 108.0V-10.0H568.0V108.0Z"/></g>
<g fill="red" transform="translate(700 700) scale(0.1 -0.1)"><path d="M0.0 0.0C-42.0 -154.0 -113.0 -296.0 -205.0 -389.0C-197.0 -394.0 -184.0 -404.0 -179.0 -407.0C-89.0 -310.0 -16.0 -166.0 29.0 -6.0ZM-31.0 -146.0 -38.0 -175.0H300.0V-146.0Z"/></g>
<g fill="black" opacity=".8" transform="translate(700 700) scale(0.1 -0.1)"><path d="M0.0 0.0C-44.0 -153.0 -116.0 -296.0 -204.0 -390.0C-196.0 -393.0 -182.0 -402.0 -176.0 -407.0C-93.0 -309.0 -19.0 -166.0 29.0 -6.0ZM-33.0 -150.0 -46.0 -180.0H304.0V-150.0Z"/></g>
<g fill="red" transform="translate(800 700) scale(0.1 -0.1)"><path d="M0.0 0.0C-28.0 -138.0 -83.0 -273.0 -158.0 -354.0C-125.0 -374.0 -65.0 -417.0 -40.0 -441.0C39.0 -344.0 104.0 -188.0 141.0 -28.0ZM38.0 -128.0 -21.0 -259.0H372.0V-128.0Z"/></g>
<g fill="black" opacity=".8" transform="translate(800 700) scale(0.1 -0.1)"><path d="M0.0 0.0C-30.0 -139.0 -88.0 -276.0 -161.0 -358.0C-127.0 -377.0 -64.0 -415.0 -37.0 -438.0C36.0 -343.0 104.0 -188.0 142.0 -31.0ZM45.0 -124.0 -19.0 -254.0H368.0V-124.0Z"/></g>
<g fill="red" transform="translate(900 700) scale(0.1 -0.1)"><path d="M0.0 0.0C-41.0 -145.0 -109.0 -284.0 -191.0 -377.0C-183.0 -381.0 -170.0 -391.0 -165.0 -396.0C-84.0 -300.0 -16.0 -158.0 29.0 -7.0ZM-38.0 -167.0 -53.0 -197.0H372.0V-167.0Z"/></g>
<g fill="black" opacity=".8" transform="translate(900 700) scale(0.1 -0.1)"><path d="M0.0 0.0C-42.0 -148.0 -109.0 -286.0 -192.0 -378.0C-184.0 -381.0 -171.0 -389.0 -165.0 -395.0C-87.0 -300.0 -18.0 -161.0 28.0 -6.0ZM-38.0 -169.0 -51.0 -198.0H372.0V-169.0Z"/></g>
<g fill="red" transform="translate(1000 700) scale(0.1 -0.1)"><path d="M0.0 0.0C-36.0 -133.0 -102.0 -266.0 -182.0 -346.0C-149.0 -365.0 -89.0 -408.0 -63.0 -431.0C17.0 -337.0 94.0 -185.0 140.0 -33.0ZM23.0 -149.0 -39.0 -274.0H420.0V-149.0Z"/></g>
<g fill="black" opacity=".8" transform="translate(1000 700) scale(0.1 -0.1)"><path d="M0.0 0.0C-36.0 -132.0 -101.0 -262.0 -178.0 -340.0C-146.0 -363.0 -88.0 -410.0 -63.0 -434.0C15.0 -341.0 94.0 -187.0 139.0 -36.0ZM21.0 -145.0 -39.0 -276.0H420.0V-145.0Z"/></g>
<g fill="red" transform="translate(1100 700) scale(0.1 -0.1)"><path d="M0.0 0.0C-38.0 -140.0 -96.0 -277.0 -170.0 -369.0C-162.0 -373.0 -149.0 -382.0 -144.0 -387.0C-73.0 -292.0 -12.0 -152.0 29.0 -6.0ZM-37.0 -167.0 -51.0 -197.0H374.0V-167.0Z"/></g>
<g fill="black" opacity=".8" transform="translate(1100 700) scale(0.1 -0.1)"><path d="M0.0 0.0C-37.0 -142.0 -95.0 -276.0 -171.0 -368.0C-162.0 -371.0 -149.0 -380.0 -142.0 -386.0C-71.0 -291.0 -10.0 -154.0 30.0 -6.0ZM-33.0 -168.0 -48.0 -199.0H374.0V-168.0Z"/></g>
<g fill="red" transform="translate(1200 700) scale(0.1 -0.1)"><path d="M0.0 0.0C-34.0 -115.0 -97.0 -230.0 -171.0 -300.0C-142.0 -328.0 -94.0 -389.0 -75.0 -418.0C11.0 -327.0 91.0 -180.0 138.0 -36.0ZM26.0 -143.0 -36.0 -269.0H420.0V-143.0Z"/></g>
<g fill="black" opacity=".8" transform="translate(1200 700) scale(0.1 -0.1)"><path d="M0.0 0.0C-36.0 -119.0 -101.0 -236.0 -179.0 -309.0C-147.0 -333.0 -92.0 -385.0 -70.0 -411.0C12.0 -322.0 92.0 -178.0 139.0 -37.0ZM25.0 -137.0 -42.0 -272.0H419.0V-137.0Z"/></g>
<g fill="red" transform="translate(1300 700) scale(0.1 -0.1)"><path d="M0.0 0.0C-21.0 -81.0 -63.0 -184.0 -116.0 -251.0C-109.0 -255.0 -98.0 -264.0 -93.0 -269.0C-38.0 -200.0 6.0 -93.0 30.0 -7.0ZM-23.0 -101.0V-130.0H199.0V-101.0Z"/></g>
<g fill="black" opacity=".8" transform="translate(1300 700) scale(0.1 -0.1)"><path d="M0.0 0.0C-23.0 -89.0 -64.0 -185.0 -117.0 -251.0C-110.0 -253.0 -97.0 -261.0 -91.0 -266.0C-40.0 -199.0 4.0 -99.0 29.0 -5.0ZM-23.0 -103.0 -24.0 -131.0H200.0V-103.0Z"/></g>
<g fill="red" transform="translate(1400 700) scale(0.1 -0.1)"><path d="M0.0 0.0C-13.0 -90.0 -45.0 -210.0 -97.0 -281.0C-69.0 -296.0 -25.0 -326.0 0.0 -346.0C59.0 -265.0 98.0 -132.0 123.0 -23.0ZM48.0 -96.0V-207.0H242.0V-96.0Z"/></g>
<g fill="black" opacity=".8" transform="translate(1400 700) scale(0.1 -0.1)"><path d="M0.0 0.0C-16.0 -98.0 -50.0 -207.0 -97.0 -276.0C-68.0 -293.0 -19.0 -327.0 4.0 -348.0C57.0 -267.0 99.0 -141.0 124.0 -26.0ZM48.0 -93.0V-207.0H241.0V-93.0Z"/></g>
<g fill="red" transform="translate(1500 700) scale(0.1 -0.1)"><path d="M0.0 0.0C-28.0 -108.0 -75.0 -214.0 -132.0 -288.0C-124.0 -292.0 -112.0 -302.0 -107.0 -305.0C-51.0 -231.0 -2.0 -119.0 29.0 -6.0ZM-532.0 113.0V84.0H351.0V113.0Z"/></g>
<g fill="black" opacity=".8" transform="translate(1500 700) scale(0.1 -0.1)"><path d="M0.0 0.0C-29.0 -108.0 -75.0 -214.0 -136.0 -288.0C-128.0 -291.0 -113.0 -301.0 -108.0 -307.0C-50.0 -229.0 -2.0 -119.0 32.0 -5.0ZM-527.0 111.0V81.0H351.0V111.0Z"/></g>
<g fill="red" transform="translate(1600 700) scale(0.1 -0.1)"><path d="M0.0 0.0C-21.0 -101.0 -66.0 -199.0 -128.0 -259.0C-95.0 -277.0 -37.0 -315.0 -11.0 -337.0C53.0 -265.0 107.0 -149.0 136.0 -27.0ZM-508.0 165.0V45.0H393.0V165.0Z"/></g>
<g fill="black" opacity=".8" transform="translate(1600 700) scale(0.1 -0.1)"><path d="M0.0 0.0C-21.0 -99.0 -64.0 -196.0 -125.0 -258.0C-92.0 -276.0 -35.0 -317.0 -10.0 -339.0C53.0 -265.0 107.0 -150.0 135.0 -29.0ZM-514.0 172.0 -511.0 42.0H393.0V172.0Z"/></g>
<g fill="red" transform="translate(100 800) scale(0.1 -0.1)"><path d="M0.0 0.0C-32.0 -132.0 -86.0 -258.0 -155.0 -340.0C-147.0 -345.0 -136.0 -356.0 -130.0 -360.0C-65.0 -273.0 -8.0 -145.0 28.0 -7.0ZM-43.0 -148.0V-177.0H404.0V-148.0Z"/></g>
<g fill="black" opacity=".8" transform="translate(100 800) scale(0.1 -0.1)"><path d="M0.0 0.0C-33.0 -133.0 -86.0 -258.0 -156.0 -343.0C-147.0 -345.0 -134.0 -353.0 -128.0 -359.0C-63.0 -271.0 -8.0 -144.0 28.0 -5.0ZM-41.0 -150.0V-178.0H405.0V-150.0Z"/></g>
<g fill="red" transform="translate(200 800) scale(0.1 -0.1)"><path d="M0.0 0.0C-28.0 -121.0 -82.0 -241.0 -150.0 -313.0C-120.0 -334.0 -69.0 -383.0 -47.0 -409.0C25.0 -321.0 91.0 -178.0 128.0 -33.0ZM10.0 -113.0V-243.0H468.0V-113.0Z"/></g>
<g fill="black" opacity=".8" transform="translate(200 800) scale(0.1 -0.1)"><path d="M0.0 0.0C-29.0 -124.0 -84.0 -245.0 -155.0 -318.0C-124.0 -338.0 -69.0 -381.0 -46.0 -404.0C28.0 -316.0 95.0 -174.0 132.0 -31.0ZM8.0 -112.0 7.0 -241.0H467.0V-112.0Z"/></g>
<g fill="red" transform="translate(300 800) scale(0.1 -0.1)"><path d="M0.0 0.0C-31.0 -127.0 -83.0 -247.0 -153.0 -328.0C-145.0 -332.0 -131.0 -339.0 -125.0 -343.0C-59.0 -261.0 -5.0 -138.0 29.0 -6.0ZM-39.0 -169.0 -54.0 -199.0H380.0V-169.0Z"/></g>
<g fill="black" opacity=".8" transform="translate(300 800) scale(0.1 -0.1)"><path d="M0.0 0.0C-33.0 -125.0 -84.0 -246.0 -152.0 -329.0C-143.0 -332.0 -130.0 -341.0 -124.0 -347.0C-61.0 -260.0 -6.0 -137.0 29.0 -5.0ZM-41.0 -169.0 -55.0 -198.0H379.0V-169.0Z"/></g>
<g fill="red" transform="translate(400 800) scale(0.1 -0.1)"><path d="M0.0 0.0C-29.0 -123.0 -86.0 -243.0 -158.0 -317.0C-129.0 -341.0 -79.0 -394.0 -58.0 -420.0C23.0 -328.0 93.0 -180.0 134.0 -31.0ZM25.0 -142.0 -39.0 -273.0H438.0V-142.0Z"/></g>
<g fill="black" opacity=".8" transform="translate(400 800) scale(0.1 -0.1)"><path d="M0.0 0.0C-32.0 -120.0 -88.0 -242.0 -159.0 -318.0C-129.0 -342.0 -78.0 -394.0 -57.0 -420.0C21.0 -326.0 92.0 -177.0 134.0 -34.0ZM24.0 -144.0 -38.0 -272.0H439.0V-144.0Z"/></g>
<g fill="red" transform="translate(500 800) scale(0.1 -0.1)"><path d="M0.0 0.0C-28.0 -125.0 -73.0 -251.0 -133.0 -336.0C-124.0 -340.0 -110.0 -347.0 -104.0 -350.0C-49.0 -264.0 -2.0 -137.0 31.0 -5.0ZM-34.0 -148.0 -43.0 -177.0H223.0V-148.0Z"/></g>
<g fill="black" opacity=".8" transform="translate(500 800) scale(0.1 -0.1)"><path d="M0.0 0.0C-27.0 -126.0 -70.0 -251.0 -130.0 -336.0C-121.0 -339.0 -107.0 -347.0 -101.0 -352.0C-45.0 -265.0 1.0 -137.0 31.0 -5.0ZM-29.0 -140.0 -37.0 -170.0H218.0V-140.0Z"/></g>
<g fill="red" transform="translate(600 800) scale(0.1 -0.1)"><path d="M0.0 0.0C-20.0 -124.0 -54.0 -257.0 -97.0 -342.0C-69.0 -369.0 -22.0 -430.0 -3.0 -457.0C53.0 -351.0 104.0 -181.0 134.0 -32.0ZM52.0 -116.0 16.0 -237.0H269.0V-116.0Z"/></g>
<g fill="black" opacity=".8" transform="translate(600 800) scale(0.1 -0.1)"><path d="M0.0 0.0C-19.0 -132.0 -56.0 -271.0 -109.0 -356.0C-79.0 -376.0 -24.0 -419.0 -0.0 -442.0C58.0 -341.0 107.0 -179.0 134.0 -28.0ZM47.0 -119.0 9.0 -249.0H274.0V-119.0Z"/></g>
<g fill="red" transform="translate(700 800) scale(0.1 -0.1)"><path d="M0.0 0.0C-36.0 -140.0 -95.0 -277.0 -167.0 -369.0C-160.0 -373.0 -147.0 -383.0 -141.0 -388.0C-71.0 -292.0 -11.0 -153.0 29.0 -6.0ZM-41.0 -167.0 -56.0 -197.0H354.0V-167.0Z"/></g>
<g fill="black" opacity=".8" transform="translate(700 800) scale(0.1 -0.1)"><path d="M0.0 0.0C-36.0 -142.0 -94.0 -277.0 -170.0 -369.0C-162.0 -372.0 -148.0 -381.0 -142.0 -387.0C-70.0 -291.0 -10.0 -154.0 29.0 -6.0ZM-40.0 -170.0 -54.0 -200.0H356.0V-170.0Z"/></g>
<g fill="red" transform="translate(800 800) scale(0.1 -0.1)"><path d="M0.0 0.0C-30.0 -114.0 -87.0 -230.0 -156.0 -300.0C-124.0 -320.0 -65.0 -362.0 -39.0 -386.0C32.0 -302.0 100.0 -167.0 140.0 -33.0ZM27.0 -143.0 -36.0 -269.0H410.0V-143.0Z"/></g>
<g fill="black" opacity=".8" transform="translate(800 800) scale(0.1 -0.1)"><path d="M0.0 0.0C-30.0 -115.0 -85.0 -230.0 -157.0 -300.0C-123.0 -320.0 -64.0 -363.0 -39.0 -386.0C33.0 -302.0 101.0 -167.0 140.0 -32.0ZM27.0 -137.0 -38.0 -268.0H407.0V-137.0Z"/></g>
<g fill="red" transform="translate(900 800) scale(0.1 -0.1)"><path d="M0.0 0.0C-33.0 -135.0 -87.0 -262.0 -160.0 -349.0C-151.0 -353.0 -139.0 -361.0 -133.0 -365.0C-62.0 -277.0 -6.0 -147.0 29.0 -6.0ZM-37.0 -161.0V-190.0H365.0V-161.0Z"/></g>
<g fill="black" opacity=".8" transform="translate(900 800) scale(0.1 -0.1)"><path d="M0.0 0.0C-34.0 -133.0 -89.0 -262.0 -161.0 -350.0C-153.0 -353.0 -139.0 -361.0 -132.0 -367.0C-64.0 -277.0 -6.0 -145.0 31.0 -6.0ZM-39.0 -162.0 -38.0 -192.0H366.0V-162.0Z"/></g>
<g fill="red" transform="translate(1000 800) scale(0.1 -0.1)"><path d="M0.0 0.0C-25.0 -129.0 -76.0 -260.0 -144.0 -338.0C-109.0 -356.0 -45.0 -396.0 -16.0 -419.0C52.0 -327.0 112.0 -178.0 146.0 -29.0ZM26.0 -137.0V-269.0H427.0V-137.0Z"/></g>
<g fill="black" opacity=".8" transform="translate(1000 800) scale(0.1 -0.1)"><path d="M0.0 0.0C-26.0 -128.0 -74.0 -259.0 -141.0 -338.0C-107.0 -357.0 -45.0 -397.0 -18.0 -420.0C50.0 -327.0 110.0 -177.0 144.0 -31.0ZM26.0 -134.0 27.0 -269.0H426.0V-134.0Z"/></g>
<g fill="red" transform="translate(1100 800) scale(0.1 -0.1)"><path d="M0.0 0.0C-35.0 -111.0 -89.0 -218.0 -155.0 -292.0C-147.0 -296.0 -134.0 -306.0 -129.0 -310.0C-66.0 -235.0 -9.0 -122.0 29.0 -7.0ZM-36.0 -111.0V-141.0H391.0V-111.0Z"/></g>
<g fill="black" opacity=".8" transform="translate(1100 800) scale(0.1 -0.1)"><path d="M0.0 0.0C-33.0 -110.0 -88.0 -219.0 -157.0 -294.0C-149.0 -296.0 -136.0 -305.0 -130.0 -311.0C-65.0 -234.0 -7.0 -121.0 29.0 -6.0ZM-36.0 -113.0V-141.0H393.0V-113.0Z"/></g>
<g fill="red" transform="translate(1200 800) scale(0.1 -0.1)"><path d="M0.0 0.0C-35.0 -104.0 -98.0 -215.0 -163.0 -283.0C-131.0 -302.0 -75.0 -343.0 -50.0 -366.0C15.0 -287.0 88.0 -158.0 133.0 -37.0ZM17.0 -87.0V-213.0H443.0V-87.0Z"/></g>
<g fill="black" opacity=".8" transform="translate(1200 800) scale(0.1 -0.1)"><path d="M0.0 0.0C-31.0 -106.0 -90.0 -214.0 -161.0 -280.0C-130.0 -301.0 -79.0 -344.0 -56.0 -369.0C20.0 -288.0 90.0 -159.0 131.0 -33.0ZM15.0 -86.0 17.0 -211.0H441.0V-86.0Z"/></g>
<g fill="red" transform="translate(1300 800) scale(0.1 -0.1)"><path d="M0.0 0.0C-41.0 -137.0 -107.0 -266.0 -190.0 -353.0C-181.0 -357.0 -168.0 -367.0 -163.0 -371.0C-83.0 -282.0 -13.0 -150.0 30.0 -7.0ZM-59.0 -167.0V-197.0H406.0V-167.0Z"/></g>
<g fill="black" opacity=".8" transform="translate(1300 800) scale(0.1 -0.1)"><path d="M0.0 0.0C-40.0 -138.0 -106.0 -268.0 -188.0 -355.0C-180.0 -358.0 -166.0 -367.0 -160.0 -373.0C-83.0 -283.0 -14.0 -150.0 30.0 -6.0ZM-62.0 -161.0V-191.0H403.0V-161.0Z"/></g>
<g fill="red" transform="translate(1400 800) scale(0.1 -0.1)"><path d="M0.0 0.0C-35.0 -118.0 -103.0 -234.0 -183.0 -304.0C-149.0 -326.0 -90.0 -375.0 -65.0 -401.0C19.0 -316.0 98.0 -177.0 145.0 -36.0ZM-18.0 -124.0V-259.0H446.0V-124.0Z"/></g>
<g fill="black" opacity=".8" transform="translate(1400 800) scale(0.1 -0.1)"><path d="M0.0 0.0C-36.0 -120.0 -104.0 -237.0 -185.0 -307.0C-151.0 -328.0 -92.0 -372.0 -66.0 -397.0C17.0 -312.0 96.0 -176.0 142.0 -36.0ZM-17.0 -129.0 -16.0 -264.0H449.0V-129.0Z"/></g>
<g fill="red" transform="translate(1500 800) scale(0.1 -0.1)"><path d="M0.0 0.0C-29.0 -137.0 -78.0 -266.0 -147.0 -353.0C-139.0 -357.0 -126.0 -363.0 -120.0 -367.0C-53.0 -279.0 -2.0 -148.0 29.0 -5.0ZM-37.0 -182.0V-211.0H405.0V-182.0Z"/></g>
<g fill="black" opacity=".8" transform="translate(1500 800) scale(0.1 -0.1)"><path d="M0.0 0.0C-31.0 -137.0 -79.0 -268.0 -146.0 -357.0C-137.0 -359.0 -124.0 -366.0 -118.0 -372.0C-55.0 -280.0 -5.0 -147.0 29.0 -5.0ZM-48.0 -178.0 -47.0 -206.0H404.0V-178.0Z"/></g>
<g fill="red" transform="translate(1600 800) scale(0.1 -0.1)"><path d="M0.0 0.0C-17.0 -137.0 -56.0 -272.0 -121.0 -350.0C-85.0 -364.0 -16.0 -396.0 14.0 -416.0C75.0 -324.0 122.0 -177.0 144.0 -21.0ZM14.0 -131.0V-271.0H483.0V-131.0Z"/></g>
<g fill="black" opacity=".8" transform="translate(1600 800) scale(0.1 -0.1)"><path d="M0.0 0.0C-19.0 -133.0 -56.0 -267.0 -116.0 -347.0C-82.0 -363.0 -18.0 -397.0 10.0 -418.0C68.0 -324.0 116.0 -175.0 140.0 -25.0ZM21.0 -140.0 24.0 -270.0H485.0V-140.0Z"/></g>
<g fill="red" transform="translate(100 900) scale(0.1 -0.1)"><path d="M0.0 0.0C-30.0 -113.0 -80.0 -222.0 -142.0 -296.0C-134.0 -300.0 -122.0 -309.0 -117.0 -313.0C-56.0 -237.0 -3.0 -124.0 29.0 -6.0ZM-36.0 -122.0V-152.0H418.0V-122.0Z"/></g>
<g fill="black" opacity=".8" transform="translate(100 900) scale(0.1 -0.1)"><path d="M0.0 0.0C-29.0 -110.0 -79.0 -220.0 -146.0 -297.0C-137.0 -299.0 -124.0 -308.0 -118.0 -314.0C-54.0 -234.0 -1.0 -121.0 31.0 -5.0ZM-31.0 -126.0V-157.0H420.0V-126.0Z"/></g>
<g fill="red" transform="translate(200 900) scale(0.1 -0.1)"><path d="M0.0 0.0C-28.0 -103.0 -82.0 -205.0 -149.0 -267.0C-119.0 -288.0 -65.0 -334.0 -42.0 -358.0C30.0 -281.0 96.0 -157.0 134.0 -32.0ZM42.0 -92.0V-217.0H502.0V-92.0Z"/></g>
<g fill="black" opacity=".8" transform="translate(200 900) scale(0.1 -0.1)"><path d="M0.0 0.0C-27.0 -103.0 -79.0 -206.0 -152.0 -271.0C-120.0 -291.0 -66.0 -334.0 -42.0 -358.0C36.0 -277.0 99.0 -155.0 136.0 -29.0ZM37.0 -85.0 36.0 -215.0H499.0V-85.0Z"/></g>
<g fill="red" transform="translate(300 900) scale(0.1 -0.1)"><path d="M0.0 0.0C-42.0 -119.0 -109.0 -235.0 -189.0 -311.0C-180.0 -316.0 -167.0 -325.0 -161.0 -329.0C-86.0 -250.0 -16.0 -132.0 30.0 -7.0ZM-49.0 -136.0V-165.0H432.0V-136.0Z"/></g>
<g fill="black" opacity=".8" transform="translate(300 900) scale(0.1 -0.1)"><path d="M0.0 0.0C-40.0 -121.0 -107.0 -236.0 -187.0 -313.0C-179.0 -316.0 -167.0 -325.0 -161.0 -331.0C-85.0 -250.0 -16.0 -133.0 28.0 -6.0ZM-60.0 -137.0V-164.0H436.0V-137.0Z"/></g>
<g fill="red" transform="translate(400 900) scale(0.1 -0.1)"><path d="M0.0 0.0C-36.0 -111.0 -103.0 -221.0 -181.0 -288.0C-148.0 -308.0 -91.0 -352.0 -66.0 -376.0C13.0 -296.0 92.0 -166.0 138.0 -35.0ZM-19.0 -105.0V-236.0H499.0V-105.0Z"/></g>
<g fill="black" opacity=".8" transform="translate(400 900) scale(0.1 -0.1)"><path d="M0.0 0.0C-35.0 -113.0 -101.0 -222.0 -181.0 -289.0C-149.0 -309.0 -94.0 -351.0 -70.0 -375.0C12.0 -294.0 89.0 -166.0 134.0 -34.0ZM-8.0 -108.0 -12.0 -233.0H495.0V-108.0Z"/></g>
<g fill="red" transform="translate(500 900) scale(0.1 -0.1)"><path d="M0.0 0.0C-39.0 -125.0 -102.0 -247.0 -178.0 -328.0C-169.0 -332.0 -156.0 -341.0 -150.0 -346.0C-78.0 -262.0 -13.0 -137.0 30.0 -7.0ZM-54.0 -145.0V-174.0H436.0V-145.0Z"/></g>
<g fill="black" opacity=".8" transform="translate(500 900) scale(0.1 -0.1)"><path d="M0.0 0.0C-37.0 -124.0 -100.0 -246.0 -177.0 -329.0C-170.0 -332.0 -156.0 -341.0 -150.0 -347.0C-75.0 -260.0 -11.0 -136.0 30.0 -6.0ZM-49.0 -144.0 -48.0 -174.0H433.0V-144.0Z"/></g>
<g fill="red" transform="translate(600 900) scale(0.1 -0.1)"><path d="M0.0 0.0C-25.0 -107.0 -75.0 -212.0 -142.0 -276.0C-108.0 -294.0 -46.0 -334.0 -19.0 -358.0C49.0 -282.0 110.0 -158.0 144.0 -30.0ZM23.0 -117.0V-248.0H478.0V-117.0Z"/></g>
<g fill="black" opacity=".8" transform="translate(600 900) scale(0.1 -0.1)"><path d="M0.0 0.0C-27.0 -106.0 -79.0 -216.0 -148.0 -283.0C-111.0 -299.0 -46.0 -332.0 -15.0 -355.0C51.0 -276.0 112.0 -153.0 148.0 -32.0ZM16.0 -117.0 18.0 -248.0H480.0V-117.0Z"/></g>
<g fill="red" transform="translate(700 900) scale(0.1 -0.1)"><path d="M0.0 0.0C-37.0 -115.0 -98.0 -226.0 -172.0 -300.0C-164.0 -305.0 -151.0 -314.0 -145.0 -318.0C-75.0 -242.0 -11.0 -128.0 29.0 -7.0ZM-45.0 -123.0V-153.0H480.0V-123.0Z"/></g>
<g fill="black" opacity=".8" transform="translate(700 900) scale(0.1 -0.1)"><path d="M0.0 0.0C-37.0 -115.0 -98.0 -226.0 -171.0 -302.0C-164.0 -306.0 -152.0 -314.0 -147.0 -320.0C-77.0 -240.0 -14.0 -126.0 27.0 -6.0ZM-42.0 -123.0 -41.0 -150.0H479.0V-123.0Z"/></g>
<g fill="red" transform="translate(800 900) scale(0.1 -0.1)"><path d="M0.0 0.0C-42.0 -80.0 -113.0 -167.0 -181.0 -221.0C-148.0 -238.0 -92.0 -275.0 -64.0 -298.0C0.0 -236.0 79.0 -134.0 131.0 -42.0ZM-9.0 -96.0V-220.0H482.0V-96.0Z"/></g>
<g fill="black" opacity=".8" transform="translate(800 900) scale(0.1 -0.1)"><path d="M0.0 0.0C-38.0 -82.0 -106.0 -166.0 -181.0 -217.0C-148.0 -236.0 -94.0 -276.0 -69.0 -300.0C5.0 -237.0 84.0 -137.0 132.0 -38.0ZM-15.0 -98.0 -11.0 -220.0H483.0V-98.0Z"/></g>
<g fill="red" transform="translate(900 900) scale(0.1 -0.1)"><path d="M0.0 0.0C-22.0 -114.0 -62.0 -219.0 -120.0 -292.0C-113.0 -296.0 -100.0 -304.0 -94.0 -309.0C-37.0 -234.0 5.0 -124.0 29.0 -5.0ZM-406.0 -145.0V-174.0H-78.0V-145.0Z"/></g>
<g fill="black" opacity=".8" transform="translate(900 900) scale(0.1 -0.1)"><path d="M0.0 0.0C-24.0 -113.0 -64.0 -219.0 -118.0 -292.0C-111.0 -295.0 -98.0 -304.0 -93.0 -309.0C-42.0 -234.0 1.0 -123.0 27.0 -5.0ZM-414.0 -150.0 -415.0 -177.0H-71.0V-150.0Z"/></g>
<g fill="red" transform="translate(1000 900) scale(0.1 -0.1)"><path d="M0.0 0.0C-24.0 -79.0 -66.0 -166.0 -108.0 -222.0C-80.0 -240.0 -32.0 -279.0 -10.0 -300.0C35.0 -234.0 87.0 -127.0 119.0 -34.0ZM-420.0 -132.0V-250.0H-82.0V-132.0Z"/></g>
<g fill="black" opacity=".8" transform="translate(1000 900) scale(0.1 -0.1)"><path d="M0.0 0.0C-21.0 -84.0 -61.0 -170.0 -110.0 -223.0C-83.0 -240.0 -35.0 -278.0 -14.0 -298.0C38.0 -234.0 89.0 -130.0 116.0 -29.0ZM-409.0 -130.0 -416.0 -246.0H-89.0V-130.0Z"/></g>
<g fill="red" transform="translate(1100 900) scale(0.1 -0.1)"><path d="M0.0 0.0C-96.0 -95.0 -278.0 -170.0 -460.0 -209.0C-453.0 -214.0 -445.0 -225.0 -441.0 -232.0C-259.0 -191.0 -73.0 -112.0 25.0 -14.0ZM50.0 177.0V147.0H425.0V177.0Z"/></g>
<g fill="black" opacity=".8" transform="translate(1100 900) scale(0.1 -0.1)"><path d="M0.0 0.0C-99.0 -91.0 -283.0 -169.0 -460.0 -211.0C-452.0 -215.0 -443.0 -227.0 -438.0 -236.0C-262.0 -190.0 -75.0 -109.0 28.0 -13.0ZM55.0 180.0 57.0 149.0H420.0V180.0Z"/></g>
<g fill="red" transform="translate(1200 900) scale(0.1 -0.1)"><path d="M0.0 0.0C-99.0 -92.0 -294.0 -148.0 -473.0 -176.0C-443.0 -208.0 -411.0 -257.0 -396.0 -293.0C-200.0 -251.0 -6.0 -180.0 118.0 -60.0ZM107.0 197.0V77.0H468.0V197.0Z"/></g>
<g fill="black" opacity=".8" transform="translate(1200 900) scale(0.1 -0.1)"><path d="M0.0 0.0C-99.0 -88.0 -294.0 -145.0 -474.0 -174.0C-443.0 -207.0 -411.0 -259.0 -395.0 -295.0C-197.0 -251.0 -2.0 -178.0 122.0 -61.0ZM97.0 190.0 105.0 80.0H472.0V190.0Z"/></g>
<g fill="red" transform="translate(1300 900) scale(0.1 -0.1)"><path d="M0.0 0.0C-106.0 -87.0 -300.0 -160.0 -476.0 -198.0C-469.0 -204.0 -462.0 -216.0 -457.0 -223.0C-280.0 -182.0 -84.0 -105.0 26.0 -14.0ZM73.0 229.0V199.0H378.0V229.0Z"/></g>
<g fill="black" opacity=".8" transform="translate(1300 900) scale(0.1 -0.1)"><path d="M0.0 0.0C-105.0 -90.0 -297.0 -162.0 -477.0 -198.0C-471.0 -202.0 -463.0 -214.0 -459.0 -222.0C-280.0 -182.0 -84.0 -107.0 24.0 -13.0ZM70.0 224.0 69.0 197.0H382.0V224.0Z"/></g>
<g fill="red" transform="translate(1400 900) scale(0.1 -0.1)"><path d="M0.0 0.0C-103.0 -79.0 -305.0 -127.0 -485.0 -149.0C-457.0 -180.0 -428.0 -228.0 -414.0 -263.0C-218.0 -228.0 -16.0 -167.0 110.0 -60.0ZM91.0 215.0V130.0H407.0V215.0Z"/></g>
<g fill="black" opacity=".8" transform="translate(1400 900) scale(0.1 -0.1)"><path d="M0.0 0.0C-103.0 -80.0 -305.0 -128.0 -483.0 -150.0C-455.0 -181.0 -428.0 -228.0 -414.0 -262.0C-220.0 -228.0 -19.0 -166.0 108.0 -62.0ZM96.0 224.0 92.0 128.0H403.0V224.0Z"/></g>
<g fill="red" transform="translate(1500 900) scale(0.1 -0.1)"><path d="M0.0 0.0C-21.0 -115.0 -58.0 -225.0 -114.0 -300.0C-105.0 -304.0 -92.0 -312.0 -87.0 -316.0C-33.0 -239.0 6.0 -126.0 30.0 -5.0ZM-374.0 -175.0V-205.0H-100.0V-175.0Z"/></g>
<g fill="black" opacity=".8" transform="translate(1500 900) scale(0.1 -0.1)"><path d="M0.0 0.0C-21.0 -117.0 -58.0 -227.0 -112.0 -301.0C-105.0 -303.0 -91.0 -312.0 -86.0 -317.0C-35.0 -240.0 5.0 -127.0 28.0 -5.0ZM-377.0 -173.0 -376.0 -201.0H-101.0V-173.0Z"/></g>
<g fill="red" transform="translate(1600 900) scale(0.1 -0.1)"><path d="M0.0 0.0C-18.0 -100.0 -56.0 -198.0 -110.0 -260.0C-85.0 -277.0 -38.0 -315.0 -19.0 -335.0C42.0 -261.0 89.0 -143.0 114.0 -23.0ZM-354.0 -135.0V-252.0H-64.0V-135.0Z"/></g>
<g fill="black" opacity=".8" transform="translate(1600 900) scale(0.1 -0.1)"><path d="M0.0 0.0C-17.0 -102.0 -54.0 -198.0 -110.0 -258.0C-85.0 -275.0 -39.0 -315.0 -20.0 -334.0C41.0 -262.0 89.0 -146.0 113.0 -23.0ZM-354.0 -137.0 -352.0 -255.0H-63.0V-137.0Z"/></g>
<g fill="red" transform="translate(100 1000) scale(0.1 -0.1)"><path d="M0.0 0.0C-22.0 -106.0 -55.0 -211.0 -103.0 -284.0C-95.0 -287.0 -82.0 -294.0 -76.0 -297.0C-31.0 -225.0 6.0 -116.0 29.0 -6.0ZM-52.0 72.0 -64.0 43.0H235.0V72.0Z"/></g>
<g fill="black" opacity=".8" transform="translate(100 1000) scale(0.1 -0.1)"><path d="M0.0 0.0C-21.0 -106.0 -55.0 -212.0 -104.0 -286.0C-97.0 -287.0 -83.0 -294.0 -77.0 -300.0C-32.0 -225.0 5.0 -115.0 28.0 -5.0ZM-57.0 73.0 -67.0 44.0H235.0V73.0Z"/></g>
<g fill="red" transform="translate(200 1000) scale(0.1 -0.1)"><path d="M0.0 0.0C-21.0 -78.0 -63.0 -153.0 -121.0 -202.0C-95.0 -215.0 -49.0 -244.0 -29.0 -262.0C28.0 -205.0 78.0 -117.0 106.0 -22.0ZM-18.0 133.0 -65.0 15.0H263.0V133.0Z"/></g>
<g fill="black" opacity=".8" transform="translate(200 1000) scale(0.1 -0.1)"><path d="M0.0 0.0C-21.0 -76.0 -62.0 -149.0 -115.0 -196.0C-91.0 -213.0 -51.0 -247.0 -33.0 -265.0C27.0 -208.0 77.0 -118.0 104.0 -24.0ZM-16.0 130.0 -60.0 17.0H262.0V130.0Z"/></g>
<g fill="red" transform="translate(300 1000) scale(0.1 -0.1)"><path d="M0.0 0.0C-40.0 -137.0 -107.0 -266.0 -189.0 -353.0C-180.0 -357.0 -168.0 -367.0 -163.0 -371.0C-82.0 -282.0 -14.0 -150.0 29.0 -7.0ZM-59.0 -167.0V-197.0H396.0V-167.0Z"/></g>
<g fill="black" opacity=".8" transform="translate(300 1000) scale(0.1 -0.1)"><path d="M0.0 0.0C-41.0 -137.0 -107.0 -267.0 -188.0 -354.0C-180.0 -357.0 -167.0 -366.0 -161.0 -372.0C-83.0 -282.0 -15.0 -150.0 30.0 -6.0ZM-65.0 -168.0V-198.0H398.0V-168.0Z"/></g>
<g fill="red" transform="translate(400 1000) scale(0.1 -0.1)"><path d="M0.0 0.0C-35.0 -118.0 -103.0 -234.0 -183.0 -304.0C-149.0 -326.0 -90.0 -375.0 -65.0 -401.0C19.0 -316.0 98.0 -177.0 145.0 -36.0ZM-27.0 -142.0V-277.0H437.0V-142.0Z"/></g>
<g fill="black" opacity=".8" transform="translate(400 1000) scale(0.1 -0.1)"><path d="M0.0 0.0C-37.0 -119.0 -105.0 -237.0 -184.0 -307.0C-150.0 -329.0 -91.0 -373.0 -65.0 -399.0C16.0 -314.0 96.0 -175.0 143.0 -37.0ZM-21.0 -141.0 -24.0 -276.0H435.0V-141.0Z"/></g>
<g fill="red" transform="translate(500 1000) scale(0.1 -0.1)"><path d="M0.0 0.0C-32.0 -132.0 -88.0 -258.0 -158.0 -340.0C-150.0 -345.0 -137.0 -356.0 -133.0 -360.0C-64.0 -274.0 -7.0 -146.0 29.0 -7.0ZM-44.0 -148.0V-177.0H413.0V-148.0Z"/></g>
<g fill="black" opacity=".8" transform="translate(500 1000) scale(0.1 -0.1)"><path d="M0.0 0.0C-34.0 -133.0 -88.0 -258.0 -157.0 -343.0C-149.0 -346.0 -136.0 -354.0 -130.0 -359.0C-65.0 -272.0 -9.0 -144.0 28.0 -5.0ZM-41.0 -148.0V-177.0H412.0V-148.0Z"/></g>
<g fill="red" transform="translate(600 1000) scale(0.1 -0.1)"><path d="M0.0 0.0C-28.0 -121.0 -82.0 -241.0 -150.0 -313.0C-120.0 -334.0 -69.0 -383.0 -47.0 -409.0C25.0 -321.0 91.0 -178.0 128.0 -33.0ZM10.0 -113.0V-243.0H468.0V-113.0Z"/></g>
<g fill="black" opacity=".8" transform="translate(600 1000) scale(0.1 -0.1)"><path d="M0.0 0.0C-30.0 -123.0 -85.0 -245.0 -156.0 -318.0C-125.0 -338.0 -69.0 -381.0 -45.0 -404.0C27.0 -316.0 95.0 -174.0 133.0 -32.0ZM7.0 -113.0 6.0 -243.0H469.0V-113.0Z"/></g>
<g fill="red" transform="translate(700 1000) scale(0.1 -0.1)"><path d="M0.0 0.0C-30.0 -119.0 -82.0 -232.0 -151.0 -308.0C-143.0 -311.0 -129.0 -319.0 -123.0 -323.0C-58.0 -246.0 -4.0 -131.0 30.0 -6.0ZM-39.0 -145.0V-174.0H394.0V-145.0Z"/></g>
<g fill="black" opacity=".8" transform="translate(700 1000) scale(0.1 -0.1)"><path d="M0.0 0.0C-31.0 -116.0 -81.0 -232.0 -148.0 -310.0C-141.0 -313.0 -128.0 -321.0 -122.0 -326.0C-58.0 -244.0 -6.0 -127.0 28.0 -5.0ZM-44.0 -145.0V-173.0H397.0V-145.0Z"/></g>
<g fill="red" transform="translate(800 1000) scale(0.1 -0.1)"><path d="M0.0 0.0C-24.0 -101.0 -68.0 -209.0 -119.0 -276.0C-86.0 -292.0 -27.0 -328.0 0.0 -350.0C51.0 -273.0 104.0 -148.0 136.0 -32.0ZM17.0 -108.0V-242.0H459.0V-108.0Z"/></g>
<g fill="black" opacity=".8" transform="translate(800 1000) scale(0.1 -0.1)"><path d="M0.0 0.0C-22.0 -104.0 -63.0 -213.0 -124.0 -279.0C-91.0 -294.0 -31.0 -326.0 -4.0 -347.0C56.0 -269.0 107.0 -148.0 136.0 -27.0ZM22.0 -114.0 20.0 -237.0H456.0V-114.0Z"/></g>
<g fill="red" transform="translate(900 1000) scale(0.1 -0.1)"><path d="M0.0 0.0C-51.0 -152.0 -132.0 -298.0 -229.0 -393.0C-221.0 -398.0 -208.0 -408.0 -203.0 -414.0C-109.0 -314.0 -24.0 -167.0 31.0 -7.0ZM-54.0 -160.0 -68.0 -190.0H392.0V-160.0Z"/></g>
<g fill="black" opacity=".8" transform="translate(900 1000) scale(0.1 -0.1)"><path d="M0.0 0.0C-51.0 -156.0 -133.0 -299.0 -229.0 -393.0C-220.0 -397.0 -207.0 -406.0 -201.0 -413.0C-110.0 -314.0 -26.0 -170.0 29.0 -7.0ZM-63.0 -165.0 -79.0 -195.0H399.0V-165.0Z"/></g>
<g fill="red" transform="translate(1000 1000) scale(0.1 -0.1)"><path d="M0.0 0.0C-43.0 -144.0 -122.0 -291.0 -210.0 -379.0C-177.0 -404.0 -117.0 -460.0 -92.0 -488.0C2.0 -381.0 94.0 -207.0 150.0 -39.0ZM-12.0 -153.0 -81.0 -291.0H457.0V-153.0Z"/></g>
<g fill="black" opacity=".8" transform="translate(1000 1000) scale(0.1 -0.1)"><path d="M0.0 0.0C-44.0 -148.0 -123.0 -293.0 -211.0 -379.0C-177.0 -405.0 -117.0 -459.0 -92.0 -487.0C-1.0 -383.0 93.0 -210.0 148.0 -42.0ZM0.0 -149.0 -76.0 -285.0H450.0V-149.0Z"/></g>
<g fill="red" transform="translate(1100 1000) scale(0.1 -0.1)"><path d="M0.0 0.0C-20.0 -79.0 -51.0 -158.0 -92.0 -214.0C-84.0 -218.0 -72.0 -228.0 -66.0 -232.0C-27.0 -175.0 9.0 -90.0 30.0 -6.0ZM-408.0 117.0V87.0H191.0V117.0Z"/></g>
<g fill="black" opacity=".8" transform="translate(1100 1000) scale(0.1 -0.1)"><path d="M0.0 0.0C-19.0 -77.0 -50.0 -159.0 -92.0 -217.0C-85.0 -220.0 -72.0 -228.0 -66.0 -234.0C-26.0 -174.0 8.0 -87.0 29.0 -5.0ZM-411.0 115.0 -412.0 87.0H193.0V115.0Z"/></g>
<g fill="red" transform="translate(1200 1000) scale(0.1 -0.1)"><path d="M0.0 0.0C-17.0 -89.0 -52.0 -176.0 -100.0 -230.0C-76.0 -250.0 -34.0 -292.0 -15.0 -315.0C40.0 -248.0 85.0 -139.0 109.0 -27.0ZM-395.0 161.0V43.0H229.0V161.0Z"/></g>
<g fill="black" opacity=".8" transform="translate(1200 1000) scale(0.1 -0.1)"><path d="M0.0 0.0C-17.0 -86.0 -51.0 -175.0 -100.0 -233.0C-75.0 -252.0 -35.0 -294.0 -18.0 -316.0C40.0 -244.0 86.0 -134.0 111.0 -26.0ZM-393.0 159.0 -392.0 46.0H227.0V159.0Z"/></g>
<g fill="red" transform="translate(1300 1000) scale(0.1 -0.1)"><path d="M0.0 0.0C-40.0 -124.0 -107.0 -240.0 -190.0 -316.0C-182.0 -320.0 -169.0 -330.0 -164.0 -335.0C-84.0 -256.0 -13.0 -138.0 29.0 -7.0ZM-38.0 -114.0 -45.0 -144.0H311.0V-114.0Z"/></g>
<g fill="black" opacity=".8" transform="translate(1300 1000) scale(0.1 -0.1)"><path d="M0.0 0.0C-39.0 -122.0 -107.0 -240.0 -190.0 -319.0C-182.0 -321.0 -169.0 -330.0 -163.0 -336.0C-83.0 -253.0 -13.0 -134.0 29.0 -6.0ZM-33.0 -113.0 -45.0 -143.0H310.0V-113.0Z"/></g>
<g fill="red" transform="translate(1400 1000) scale(0.1 -0.1)"><path d="M0.0 0.0C-31.0 -99.0 -93.0 -193.0 -169.0 -251.0C-138.0 -269.0 -85.0 -311.0 -61.0 -334.0C17.0 -264.0 89.0 -151.0 130.0 -31.0ZM46.0 -79.0 -8.0 -200.0H375.0V-79.0Z"/></g>
<g fill="black" opacity=".8" transform="translate(1400 1000) scale(0.1 -0.1)"><path d="M0.0 0.0C-32.0 -100.0 -93.0 -195.0 -172.0 -254.0C-140.0 -272.0 -86.0 -309.0 -61.0 -332.0C20.0 -260.0 90.0 -150.0 132.0 -30.0ZM42.0 -79.0 -10.0 -200.0H375.0V-79.0Z"/></g>
<g fill="red" transform="translate(1500 1000) scale(0.1 -0.1)"><path d="M0.0 0.0C-30.0 -120.0 -77.0 -239.0 -137.0 -320.0C-130.0 -323.0 -116.0 -331.0 -110.0 -335.0C-54.0 -252.0 -5.0 -131.0 27.0 -6.0ZM-27.0 -150.0 -36.0 -179.0H230.0V-150.0Z"/></g>
<g fill="black" opacity=".8" transform="translate(1500 1000) scale(0.1 -0.1)"><path d="M0.0 0.0C-29.0 -122.0 -76.0 -240.0 -138.0 -319.0C-131.0 -321.0 -118.0 -329.0 -112.0 -333.0C-55.0 -252.0 -5.0 -132.0 27.0 -5.0ZM-17.0 -153.0 -22.0 -179.0H228.0V-153.0Z"/></g>
<g fill="red" transform="translate(1600 1000) scale(0.1 -0.1)"><path d="M0.0 0.0C-22.0 -124.0 -62.0 -259.0 -108.0 -342.0C-79.0 -357.0 -28.0 -389.0 -5.0 -409.0C40.0 -316.0 87.0 -166.0 115.0 -28.0ZM67.0 -136.0 35.0 -257.0H284.0V-136.0Z"/></g>
<g fill="black" opacity=".8" transform="translate(1600 1000) scale(0.1 -0.1)"><path d="M0.0 0.0C-19.0 -127.0 -57.0 -258.0 -110.0 -337.0C-81.0 -355.0 -28.0 -391.0 -5.0 -412.0C50.0 -319.0 98.0 -169.0 124.0 -26.0ZM53.0 -136.0 26.0 -253.0H286.0V-136.0Z"/></g>
<g fill="red" transform="translate(100 1100) scale(0.1 -0.1)"><path d="M0.0 0.0C-28.0 -139.0 -73.0 -277.0 -137.0 -369.0C-128.0 -372.0 -114.0 -380.0 -108.0 -384.0C-47.0 -290.0 0.0 -151.0 30.0 -6.0ZM-26.0 -162.0 -32.0 -192.0H199.0V-162.0Z"/></g>
<g fill="black" opacity=".8" transform="translate(100 1100) scale(0.1 -0.1)"><path d="M0.0 0.0C-29.0 -143.0 -75.0 -279.0 -137.0 -370.0C-129.0 -372.0 -115.0 -379.0 -108.0 -384.0C-51.0 -292.0 -3.0 -154.0 28.0 -5.0ZM-22.0 -159.0 -28.0 -188.0H194.0V-159.0Z"/></g>
<g fill="red" transform="translate(200 1100) scale(0.1 -0.1)"><path d="M0.0 0.0C-25.0 -133.0 -72.0 -268.0 -135.0 -350.0C-105.0 -365.0 -49.0 -399.0 -24.0 -419.0C39.0 -324.0 94.0 -174.0 126.0 -25.0ZM39.0 -126.0 2.0 -250.0H233.0V-126.0Z"/></g>
<g fill="black" opacity=".8" transform="translate(200 1100) scale(0.1 -0.1)"><path d="M0.0 0.0C-24.0 -131.0 -69.0 -262.0 -129.0 -340.0C-100.0 -360.0 -48.0 -402.0 -26.0 -423.0C37.0 -331.0 95.0 -178.0 125.0 -29.0ZM31.0 -127.0 2.0 -256.0H238.0V-127.0Z"/></g>
<g fill="red" transform="translate(300 1100) scale(0.1 -0.1)"><path d="M0.0 0.0C-34.0 -119.0 -89.0 -237.0 -156.0 -316.0C-148.0 -320.0 -135.0 -330.0 -130.0 -335.0C-66.0 -253.0 -8.0 -131.0 29.0 -7.0ZM-43.0 -147.0V-176.0H288.0V-147.0Z"/></g>
<g fill="black" opacity=".8" transform="translate(300 1100) scale(0.1 -0.1)"><path d="M0.0 0.0C-34.0 -122.0 -88.0 -239.0 -157.0 -317.0C-149.0 -320.0 -136.0 -329.0 -130.0 -334.0C-65.0 -253.0 -7.0 -133.0 29.0 -6.0ZM-55.0 -151.0 -56.0 -180.0H296.0V-151.0Z"/></g>
<g fill="red" transform="translate(400 1100) scale(0.1 -0.1)"><path d="M0.0 0.0C-35.0 -121.0 -98.0 -245.0 -171.0 -321.0C-141.0 -343.0 -89.0 -391.0 -66.0 -416.0C11.0 -324.0 87.0 -176.0 132.0 -34.0ZM-25.0 -130.0V-267.0H345.0V-130.0Z"/></g>
<g fill="black" opacity=".8" transform="translate(400 1100) scale(0.1 -0.1)"><path d="M0.0 0.0C-34.0 -122.0 -96.0 -244.0 -168.0 -318.0C-139.0 -342.0 -91.0 -392.0 -70.0 -418.0C9.0 -327.0 85.0 -179.0 128.0 -35.0ZM-12.0 -130.0 -17.0 -259.0H338.0V-130.0Z"/></g>
<g fill="red" transform="translate(500 1100) scale(0.1 -0.1)"><path d="M0.0 0.0C-28.0 -95.0 -78.0 -181.0 -140.0 -239.0C-133.0 -244.0 -121.0 -255.0 -117.0 -260.0C-54.0 -198.0 0.0 -107.0 29.0 -6.0ZM-451.0 -181.0V-211.0H-131.0V-181.0Z"/></g>
<g fill="black" opacity=".8" transform="translate(500 1100) scale(0.1 -0.1)"><path d="M0.0 0.0C-27.0 -94.0 -75.0 -182.0 -136.0 -242.0C-129.0 -245.0 -117.0 -255.0 -112.0 -261.0C-53.0 -197.0 -1.0 -105.0 27.0 -5.0ZM-459.0 -180.0 -461.0 -208.0H-128.0V-180.0Z"/></g>
<g fill="red" transform="translate(600 1100) scale(0.1 -0.1)"><path d="M0.0 0.0C-28.0 -80.0 -82.0 -154.0 -142.0 -201.0C-123.0 -229.0 -92.0 -293.0 -82.0 -320.0C-2.0 -254.0 67.0 -145.0 107.0 -34.0ZM-461.0 -155.0V-282.0H-107.0V-155.0Z"/></g>
<g fill="black" opacity=".8" transform="translate(600 1100) scale(0.1 -0.1)"><path d="M0.0 0.0C-30.0 -84.0 -87.0 -163.0 -155.0 -213.0C-132.0 -237.0 -95.0 -286.0 -80.0 -310.0C0.0 -244.0 69.0 -140.0 110.0 -32.0ZM-450.0 -164.0 -457.0 -276.0H-110.0V-164.0Z"/></g>
<g fill="red" transform="translate(700 1100) scale(0.1 -0.1)"><path d="M0.0 0.0C-37.0 -137.0 -99.0 -266.0 -175.0 -353.0C-167.0 -357.0 -155.0 -367.0 -150.0 -371.0C-77.0 -282.0 -13.0 -150.0 26.0 -7.0ZM-54.0 -167.0V-197.0H386.0V-167.0Z"/></g>
<g fill="black" opacity=".8" transform="translate(700 1100) scale(0.1 -0.1)"><path d="M0.0 0.0C-38.0 -137.0 -99.0 -267.0 -177.0 -354.0C-168.0 -357.0 -155.0 -366.0 -149.0 -372.0C-76.0 -281.0 -12.0 -149.0 30.0 -6.0ZM-61.0 -170.0V-200.0H390.0V-170.0Z"/></g>
<g fill="red" transform="translate(800 1100) scale(0.1 -0.1)"><path d="M0.0 0.0C-34.0 -118.0 -101.0 -234.0 -181.0 -304.0C-147.0 -326.0 -89.0 -375.0 -64.0 -401.0C19.0 -316.0 97.0 -177.0 144.0 -36.0ZM-26.0 -142.0V-277.0H433.0V-142.0Z"/></g>
<g fill="black" opacity=".8" transform="translate(800 1100) scale(0.1 -0.1)"><path d="M0.0 0.0C-36.0 -119.0 -102.0 -236.0 -180.0 -306.0C-147.0 -328.0 -90.0 -374.0 -65.0 -400.0C16.0 -314.0 94.0 -175.0 140.0 -37.0ZM-18.0 -139.0 -23.0 -275.0H429.0V-139.0Z"/></g>
<g fill="red" transform="translate(900 1100) scale(0.1 -0.1)"><path d="M0.0 0.0C-29.0 -146.0 -77.0 -285.0 -150.0 -377.0C-141.0 -381.0 -127.0 -388.0 -121.0 -392.0C-53.0 -298.0 -2.0 -158.0 31.0 -5.0ZM-38.0 -182.0V-211.0H381.0V-182.0Z"/></g>
<g fill="black" opacity=".8" transform="translate(900 1100) scale(0.1 -0.1)"><path d="M0.0 0.0C-31.0 -146.0 -80.0 -285.0 -149.0 -379.0C-141.0 -381.0 -126.0 -390.0 -120.0 -395.0C-55.0 -298.0 -4.0 -157.0 30.0 -5.0ZM-47.0 -181.0 -45.0 -211.0H382.0V-181.0Z"/></g>
<g fill="red" transform="translate(1000 1100) scale(0.1 -0.1)"><path d="M0.0 0.0C-19.0 -135.0 -63.0 -266.0 -132.0 -342.0C-96.0 -356.0 -28.0 -388.0 2.0 -409.0C68.0 -320.0 119.0 -177.0 145.0 -22.0ZM14.0 -131.0V-271.0H465.0V-131.0Z"/></g>
<g fill="black" opacity=".8" transform="translate(1000 1100) scale(0.1 -0.1)"><path d="M0.0 0.0C-21.0 -132.0 -62.0 -261.0 -127.0 -339.0C-93.0 -355.0 -29.0 -391.0 -1.0 -412.0C63.0 -321.0 115.0 -176.0 141.0 -26.0ZM20.0 -133.0 21.0 -269.0H464.0V-133.0Z"/></g>
<g fill="red" transform="translate(1100 1100) scale(0.1 -0.1)"><path d="M0.0 0.0C-24.0 -116.0 -64.0 -228.0 -122.0 -304.0C-114.0 -308.0 -100.0 -316.0 -95.0 -320.0C-40.0 -243.0 4.0 -127.0 30.0 -6.0ZM-35.0 -149.0V-178.0H284.0V-149.0Z"/></g>
<g fill="black" opacity=".8" transform="translate(1100 1100) scale(0.1 -0.1)"><path d="M0.0 0.0C-25.0 -114.0 -66.0 -230.0 -123.0 -308.0C-115.0 -311.0 -101.0 -319.0 -95.0 -325.0C-41.0 -244.0 3.0 -125.0 31.0 -5.0ZM-39.0 -142.0 -37.0 -172.0H279.0V-142.0Z"/></g>
<g fill="red" transform="translate(1200 1100) scale(0.1 -0.1)"><path d="M0.0 0.0C-24.0 -119.0 -72.0 -235.0 -140.0 -305.0C-107.0 -320.0 -47.0 -355.0 -21.0 -376.0C46.0 -294.0 104.0 -163.0 134.0 -25.0ZM15.0 -106.0V-243.0H313.0V-106.0Z"/></g>
<g fill="black" opacity=".8" transform="translate(1200 1100) scale(0.1 -0.1)"><path d="M0.0 0.0C-24.0 -110.0 -69.0 -225.0 -130.0 -296.0C-100.0 -317.0 -49.0 -360.0 -26.0 -384.0C40.0 -298.0 98.0 -161.0 130.0 -31.0ZM11.0 -115.0 22.0 -245.0H318.0V-115.0Z"/></g>
<g fill="red" transform="translate(1300 1100) scale(0.1 -0.1)"><path d="M0.0 0.0C-26.0 -118.0 -69.0 -229.0 -131.0 -304.0C-123.0 -308.0 -109.0 -316.0 -103.0 -321.0C-45.0 -244.0 2.0 -129.0 30.0 -6.0ZM-406.0 -175.0V-205.0H-105.0V-175.0Z"/></g>
<g fill="black" opacity=".8" transform="translate(1300 1100) scale(0.1 -0.1)"><path d="M0.0 0.0C-26.0 -120.0 -70.0 -231.0 -128.0 -306.0C-121.0 -309.0 -108.0 -318.0 -102.0 -323.0C-47.0 -246.0 -1.0 -131.0 27.0 -5.0ZM-411.0 -170.0 -410.0 -198.0H-109.0V-170.0Z"/></g>
<g fill="red" transform="translate(1400 1100) scale(0.1 -0.1)"><path d="M0.0 0.0C-21.0 -107.0 -64.0 -211.0 -124.0 -276.0C-97.0 -294.0 -49.0 -334.0 -29.0 -356.0C38.0 -278.0 91.0 -153.0 120.0 -24.0ZM-403.0 -142.0V-260.0H-101.0V-142.0Z"/></g>
<g fill="black" opacity=".8" transform="translate(1400 1100) scale(0.1 -0.1)"><path d="M0.0 0.0C-22.0 -107.0 -65.0 -210.0 -122.0 -273.0C-96.0 -292.0 -49.0 -334.0 -29.0 -355.0C32.0 -279.0 87.0 -154.0 116.0 -28.0ZM-401.0 -147.0 -398.0 -267.0H-97.0V-147.0Z"/></g>
<g fill="red" transform="translate(1500 1100) scale(0.1 -0.1)"><path d="M0.0 0.0C-21.0 -106.0 -55.0 -211.0 -103.0 -284.0C-95.0 -287.0 -80.0 -294.0 -74.0 -298.0C-30.0 -225.0 6.0 -116.0 31.0 -6.0ZM-42.0 72.0 -54.0 43.0H263.0V72.0Z"/></g>
<g fill="black" opacity=".8" transform="translate(1500 1100) scale(0.1 -0.1)"><path d="M0.0 0.0C-21.0 -106.0 -54.0 -213.0 -101.0 -287.0C-94.0 -289.0 -80.0 -296.0 -74.0 -301.0C-31.0 -226.0 4.0 -115.0 28.0 -5.0ZM-48.0 76.0 -58.0 49.0H260.0V76.0Z"/></g>
<g fill="red" transform="translate(1600 1100) scale(0.1 -0.1)"><path d="M0.0 0.0C-19.0 -81.0 -56.0 -159.0 -108.0 -210.0C-82.0 -223.0 -36.0 -253.0 -15.0 -271.0C38.0 -212.0 84.0 -119.0 108.0 -22.0ZM-11.0 133.0 -58.0 15.0H269.0V133.0Z"/></g>
<g fill="black" opacity=".8" transform="translate(1600 1100) scale(0.1 -0.1)"><path d="M0.0 0.0C-19.0 -77.0 -57.0 -156.0 -105.0 -206.0C-79.0 -222.0 -37.0 -254.0 -17.0 -273.0C34.0 -213.0 81.0 -118.0 106.0 -25.0ZM-9.0 125.0 -52.0 14.0H272.0V125.0Z"/></g>
<g fill="red" transform="translate(100 1200) scale(0.1 -0.1)"><path d="M0.0 0.0C-29.0 -139.0 -73.0 -277.0 -137.0 -369.0C-129.0 -372.0 -114.0 -380.0 -108.0 -384.0C-47.0 -290.0 0.0 -151.0 30.0 -6.0ZM-27.0 -162.0 -33.0 -192.0H186.0V-162.0Z"/></g>
<g fill="black" opacity=".8" transform="translate(100 1200) scale(0.1 -0.1)"><path d="M0.0 0.0C-29.0 -143.0 -75.0 -279.0 -138.0 -369.0C-130.0 -371.0 -115.0 -379.0 -109.0 -384.0C-51.0 -292.0 -2.0 -154.0 29.0 -5.0ZM-24.0 -160.0 -30.0 -189.0H182.0V-160.0Z"/></g>
<g fill="red" transform="translate(200 1200) scale(0.1 -0.1)"><path d="M0.0 0.0C-25.0 -133.0 -72.0 -268.0 -135.0 -350.0C-105.0 -365.0 -49.0 -399.0 -24.0 -419.0C39.0 -324.0 94.0 -174.0 126.0 -25.0ZM39.0 -126.0 2.0 -250.0H229.0V-126.0Z"/></g>
<g fill="black" opacity=".8" transform="translate(200 1200) scale(0.1 -0.1)"><path d="M0.0 0.0C-23.0 -132.0 -68.0 -262.0 -129.0 -340.0C-101.0 -360.0 -48.0 -402.0 -26.0 -423.0C38.0 -331.0 95.0 -178.0 124.0 -28.0ZM32.0 -126.0 2.0 -255.0H233.0V-126.0Z"/></g>
<g fill="red" transform="translate(300 1200) scale(0.1 -0.1)"><path d="M0.0 0.0C-24.0 -118.0 -68.0 -227.0 -134.0 -299.0C-125.0 -303.0 -113.0 -312.0 -107.0 -317.0C-44.0 -241.0 3.0 -130.0 30.0 -4.0ZM-40.0 -148.0 -52.0 -177.0H349.0V-148.0Z"/></g>
<g fill="black" opacity=".8" transform="translate(300 1200) scale(0.1 -0.1)"><path d="M0.0 0.0C-28.0 -113.0 -72.0 -226.0 -132.0 -304.0C-124.0 -307.0 -111.0 -315.0 -105.0 -320.0C-49.0 -239.0 -2.0 -124.0 29.0 -5.0ZM-51.0 -148.0 -57.0 -176.0H350.0V-148.0Z"/></g>
<g fill="red" transform="translate(400 1200) scale(0.1 -0.1)"><path d="M0.0 0.0C-21.0 -115.0 -63.0 -233.0 -119.0 -305.0C-86.0 -321.0 -27.0 -358.0 -1.0 -379.0C57.0 -295.0 107.0 -160.0 135.0 -27.0ZM9.0 -123.0 -17.0 -255.0H401.0V-123.0Z"/></g>
<g fill="black" opacity=".8" transform="translate(400 1200) scale(0.1 -0.1)"><path d="M0.0 0.0C-21.0 -111.0 -61.0 -229.0 -116.0 -302.0C-84.0 -321.0 -29.0 -360.0 -4.0 -383.0C53.0 -295.0 104.0 -157.0 134.0 -29.0ZM15.0 -128.0 -10.0 -251.0H400.0V-128.0Z"/></g>
<g fill="red" transform="translate(500 1200) scale(0.1 -0.1)"><path d="M0.0 0.0C-29.0 -120.0 -75.0 -239.0 -134.0 -320.0C-127.0 -323.0 -113.0 -331.0 -108.0 -335.0C-53.0 -252.0 -5.0 -131.0 27.0 -6.0ZM-26.0 -150.0 -34.0 -179.0H227.0V-150.0Z"/></g>
<g fill="black" opacity=".8" transform="translate(500 1200) scale(0.1 -0.1)"><path d="M0.0 0.0C-29.0 -122.0 -75.0 -240.0 -136.0 -319.0C-128.0 -321.0 -116.0 -328.0 -110.0 -333.0C-53.0 -252.0 -5.0 -132.0 27.0 -5.0ZM-15.0 -155.0 -21.0 -181.0H226.0V-155.0Z"/></g>
<g fill="red" transform="translate(600 1200) scale(0.1 -0.1)"><path d="M0.0 0.0C-25.0 -114.0 -68.0 -237.0 -117.0 -313.0C-89.0 -328.0 -40.0 -361.0 -17.0 -381.0C30.0 -296.0 81.0 -158.0 112.0 -31.0ZM58.0 -136.0 27.0 -257.0H270.0V-136.0Z"/></g>
<g fill="black" opacity=".8" transform="translate(600 1200) scale(0.1 -0.1)"><path d="M0.0 0.0C-22.0 -117.0 -64.0 -236.0 -119.0 -308.0C-91.0 -326.0 -40.0 -364.0 -18.0 -384.0C40.0 -299.0 93.0 -160.0 121.0 -27.0ZM44.0 -135.0 18.0 -252.0H270.0V-135.0Z"/></g>
<g fill="red" transform="translate(700 1200) scale(0.1 -0.1)"><path d="M0.0 0.0C-33.0 -65.0 -94.0 -148.0 -177.0 -209.0C-169.0 -213.0 -160.0 -221.0 -154.0 -228.0C-67.0 -161.0 -6.0 -77.0 34.0 -5.0ZM-30.0 -71.0V-101.0H680.0V-71.0Z"/></g>
<g fill="black" opacity=".8" transform="translate(700 1200) scale(0.1 -0.1)"><path d="M0.0 0.0C-36.0 -72.0 -97.0 -152.0 -171.0 -209.0C-164.0 -212.0 -154.0 -220.0 -149.0 -227.0C-76.0 -165.0 -12.0 -83.0 28.0 -5.0ZM-33.0 -65.0 -34.0 -91.0H673.0V-65.0Z"/></g>
<g fill="red" transform="translate(800 1200) scale(0.1 -0.1)"><path d="M0.0 0.0C-29.0 -64.0 -82.0 -134.0 -164.0 -188.0C-131.0 -205.0 -83.0 -243.0 -59.0 -270.0C34.0 -198.0 94.0 -115.0 141.0 -21.0ZM32.0 -39.0V-141.0H730.0V-39.0Z"/></g>
<g fill="black" opacity=".8" transform="translate(800 1200) scale(0.1 -0.1)"><path d="M0.0 0.0C-33.0 -66.0 -93.0 -139.0 -166.0 -186.0C-132.0 -203.0 -78.0 -238.0 -52.0 -262.0C25.0 -202.0 93.0 -118.0 138.0 -33.0ZM34.0 -41.0 35.0 -152.0H736.0V-41.0Z"/></g>
<g fill="red" transform="translate(900 1200) scale(0.1 -0.1)"><path d="M0.0 0.0C-29.0 -108.0 -75.0 -215.0 -133.0 -288.0C-124.0 -292.0 -111.0 -300.0 -106.0 -305.0C-49.0 -231.0 -1.0 -120.0 29.0 -5.0ZM-46.0 -170.0V-200.0H326.0V-170.0Z"/></g>
<g fill="black" opacity=".8" transform="translate(900 1200) scale(0.1 -0.1)"><path d="M0.0 0.0C-28.0 -111.0 -74.0 -217.0 -133.0 -289.0C-125.0 -291.0 -113.0 -299.0 -108.0 -304.0C-53.0 -230.0 -5.0 -121.0 26.0 -4.0ZM-44.0 -173.0 -43.0 -199.0H326.0V-173.0Z"/></g>
<g fill="red" transform="translate(1000 1200) scale(0.1 -0.1)"><path d="M0.0 0.0C-28.0 -123.0 -81.0 -250.0 -144.0 -330.0C-117.0 -348.0 -68.0 -388.0 -47.0 -409.0C19.0 -317.0 81.0 -169.0 119.0 -28.0ZM9.0 -158.0V-271.0H386.0V-158.0Z"/></g>
<g fill="black" opacity=".8" transform="translate(1000 1200) scale(0.1 -0.1)"><path d="M0.0 0.0C-27.0 -123.0 -77.0 -247.0 -141.0 -322.0C-114.0 -344.0 -68.0 -390.0 -49.0 -414.0C21.0 -322.0 84.0 -173.0 120.0 -30.0ZM4.0 -154.0 8.0 -272.0H386.0V-154.0Z"/></g>
<g fill="red" transform="translate(1100 1200) scale(0.1 -0.1)"><path d="M0.0 0.0C-22.0 -120.0 -59.0 -237.0 -114.0 -316.0C-106.0 -320.0 -93.0 -328.0 -88.0 -333.0C-34.0 -252.0 6.0 -131.0 31.0 -5.0ZM-359.0 -173.0V-203.0H-72.0V-173.0Z"/></g>
<g fill="black" opacity=".8" transform="translate(1100 1200) scale(0.1 -0.1)"><path d="M0.0 0.0C-23.0 -121.0 -62.0 -237.0 -116.0 -315.0C-108.0 -318.0 -94.0 -327.0 -89.0 -332.0C-37.0 -251.0 4.0 -132.0 29.0 -5.0ZM-351.0 -177.0 -350.0 -206.0H-74.0V-177.0Z"/></g>
<g fill="red" transform="translate(1200 1200) scale(0.1 -0.1)"><path d="M0.0 0.0C-14.0 -119.0 -46.0 -235.0 -101.0 -305.0C-73.0 -321.0 -21.0 -357.0 2.0 -377.0C59.0 -293.0 99.0 -160.0 119.0 -20.0ZM-311.0 -163.0V-279.0H-52.0V-163.0Z"/></g>
<g fill="black" opacity=".8" transform="translate(1200 1200) scale(0.1 -0.1)"><path d="M0.0 0.0C-16.0 -115.0 -48.0 -231.0 -98.0 -302.0C-70.0 -320.0 -18.0 -360.0 5.0 -381.0C58.0 -297.0 102.0 -159.0 124.0 -26.0ZM-322.0 -155.0 -317.0 -280.0H-50.0V-155.0Z"/></g>
<g fill="red" transform="translate(1300 1200) scale(0.1 -0.1)"><path d="M0.0 0.0C-51.0 -105.0 -134.0 -204.0 -222.0 -271.0C-214.0 -275.0 -201.0 -285.0 -197.0 -290.0C-112.0 -221.0 -26.0 -118.0 29.0 -7.0ZM-213.0 112.0V83.0H656.0V112.0Z"/></g>
<g fill="black" opacity=".8" transform="translate(1300 1200) scale(0.1 -0.1)"><path d="M0.0 0.0C-49.0 -104.0 -131.0 -205.0 -222.0 -274.0C-214.0 -277.0 -202.0 -286.0 -197.0 -292.0C-109.0 -220.0 -25.0 -116.0 29.0 -6.0ZM-216.0 113.0 -215.0 85.0H656.0V113.0Z"/></g>
<g fill="red" transform="translate(1400 1200) scale(0.1 -0.1)"><path d="M0.0 0.0C-38.0 -105.0 -111.0 -206.0 -196.0 -267.0C-161.0 -286.0 -100.0 -327.0 -72.0 -351.0C10.0 -279.0 93.0 -161.0 142.0 -36.0ZM-171.0 159.0V35.0H725.0V159.0Z"/></g>
<g fill="black" opacity=".8" transform="translate(1400 1200) scale(0.1 -0.1)"><path d="M0.0 0.0C-38.0 -105.0 -111.0 -207.0 -197.0 -270.0C-161.0 -288.0 -102.0 -325.0 -75.0 -350.0C12.0 -276.0 92.0 -160.0 141.0 -35.0ZM-170.0 156.0 -169.0 35.0H725.0V156.0Z"/></g>
<g fill="red" transform="translate(1500 1200) scale(0.1 -0.1)"><path d="M0.0 0.0C-35.0 -108.0 -91.0 -212.0 -157.0 -283.0C-149.0 -288.0 -135.0 -296.0 -130.0 -301.0C-66.0 -227.0 -9.0 -119.0 30.0 -7.0ZM-528.0 111.0V82.0H355.0V111.0Z"/></g>
<g fill="black" opacity=".8" transform="translate(1500 1200) scale(0.1 -0.1)"><path d="M0.0 0.0C-33.0 -106.0 -90.0 -210.0 -160.0 -283.0C-152.0 -286.0 -138.0 -295.0 -132.0 -302.0C-64.0 -225.0 -6.0 -117.0 32.0 -5.0ZM-523.0 105.0V75.0H359.0V105.0Z"/></g>
<g fill="red" transform="translate(1600 1200) scale(0.1 -0.1)"><path d="M0.0 0.0C-23.0 -105.0 -71.0 -207.0 -134.0 -270.0C-102.0 -287.0 -43.0 -326.0 -18.0 -350.0C47.0 -276.0 105.0 -155.0 137.0 -30.0ZM-488.0 158.0V31.0H431.0V158.0Z"/></g>
<g fill="black" opacity=".8" transform="translate(1600 1200) scale(0.1 -0.1)"><path d="M0.0 0.0C-22.0 -105.0 -68.0 -207.0 -136.0 -272.0C-102.0 -289.0 -43.0 -328.0 -17.0 -351.0C53.0 -274.0 109.0 -156.0 140.0 -28.0ZM-493.0 165.0V36.0H427.0V165.0Z"/></g>
<g fill="red" transform="translate(100 1300) scale(0.1 -0.1)"><path d="M0.0 0.0C-34.0 -102.0 -91.0 -200.0 -156.0 -267.0C-148.0 -271.0 -135.0 -281.0 -129.0 -286.0C-67.0 -216.0 -8.0 -113.0 29.0 -7.0ZM-42.0 -116.0V-146.0H329.0V-116.0Z"/></g>
<g fill="black" opacity=".8" transform="translate(100 1300) scale(0.1 -0.1)"><path d="M0.0 0.0C-31.0 -100.0 -86.0 -202.0 -155.0 -272.0C-148.0 -274.0 -136.0 -282.0 -130.0 -288.0C-62.0 -215.0 -6.0 -111.0 29.0 -5.0ZM-45.0 -110.0 -44.0 -138.0H326.0V-110.0Z"/></g>
<g fill="red" transform="translate(200 1300) scale(0.1 -0.1)"><path d="M0.0 0.0C-23.0 -93.0 -67.0 -187.0 -123.0 -245.0C-90.0 -260.0 -30.0 -292.0 -2.0 -312.0C54.0 -244.0 107.0 -135.0 136.0 -26.0ZM32.0 -76.0V-191.0H393.0V-76.0Z"/></g>
<g fill="black" opacity=".8" transform="translate(200 1300) scale(0.1 -0.1)"><path d="M0.0 0.0C-20.0 -93.0 -61.0 -189.0 -123.0 -248.0C-91.0 -262.0 -34.0 -289.0 -7.0 -309.0C55.0 -239.0 103.0 -133.0 131.0 -24.0ZM32.0 -82.0 34.0 -197.0H396.0V-82.0Z"/></g>
<g fill="red" transform="translate(300 1300) scale(0.1 -0.1)"><path d="M0.0 0.0C-32.0 -113.0 -88.0 -215.0 -159.0 -283.0C-151.0 -288.0 -138.0 -298.0 -135.0 -303.0C-64.0 -231.0 -4.0 -125.0 28.0 -6.0ZM-44.0 -144.0 -59.0 -173.0H319.0V-144.0Z"/></g>
<g fill="black" opacity=".8" transform="translate(300 1300) scale(0.1 -0.1)"><path d="M0.0 0.0C-33.0 -108.0 -88.0 -215.0 -159.0 -289.0C-151.0 -292.0 -139.0 -300.0 -133.0 -307.0C-64.0 -229.0 -6.0 -119.0 29.0 -5.0ZM-56.0 -143.0 -70.0 -172.0H323.0V-143.0Z"/></g>
<g fill="red" transform="translate(400 1300) scale(0.1 -0.1)"><path d="M0.0 0.0C-30.0 -107.0 -87.0 -214.0 -155.0 -280.0C-122.0 -299.0 -63.0 -342.0 -37.0 -366.0C33.0 -287.0 100.0 -160.0 140.0 -33.0ZM18.0 -116.0 -45.0 -242.0H401.0V-116.0Z"/></g>
<g fill="black" opacity=".8" transform="translate(400 1300) scale(0.1 -0.1)"><path d="M0.0 0.0C-28.0 -104.0 -80.0 -211.0 -149.0 -279.0C-119.0 -300.0 -68.0 -344.0 -45.0 -368.0C31.0 -285.0 94.0 -157.0 133.0 -30.0ZM28.0 -120.0 -36.0 -240.0H398.0V-120.0Z"/></g>
<g fill="red" transform="translate(500 1300) scale(0.1 -0.1)"><path d="M0.0 0.0C-43.0 -115.0 -110.0 -228.0 -188.0 -304.0C-179.0 -308.0 -165.0 -317.0 -160.0 -321.0C-87.0 -244.0 -16.0 -128.0 31.0 -8.0ZM-47.0 -131.0 -61.0 -161.0H470.0V-131.0Z"/></g>
<g fill="black" opacity=".8" transform="translate(500 1300) scale(0.1 -0.1)"><path d="M0.0 0.0C-41.0 -115.0 -107.0 -229.0 -186.0 -306.0C-178.0 -309.0 -166.0 -318.0 -161.0 -324.0C-85.0 -243.0 -16.0 -128.0 28.0 -6.0ZM-45.0 -128.0 -59.0 -156.0H467.0V-128.0Z"/></g>
<g fill="red" transform="translate(600 1300) scale(0.1 -0.1)"><path d="M0.0 0.0C-36.0 -112.0 -101.0 -226.0 -173.0 -296.0C-141.0 -318.0 -86.0 -368.0 -62.0 -394.0C15.0 -309.0 92.0 -170.0 139.0 -37.0ZM28.0 -110.0 -34.0 -235.0H515.0V-110.0Z"/></g>
<g fill="black" opacity=".8" transform="translate(600 1300) scale(0.1 -0.1)"><path d="M0.0 0.0C-36.0 -111.0 -100.0 -226.0 -175.0 -297.0C-142.0 -320.0 -87.0 -367.0 -63.0 -393.0C16.0 -306.0 93.0 -168.0 140.0 -37.0ZM23.0 -114.0 -35.0 -237.0H518.0V-114.0Z"/></g>
<g fill="red" transform="translate(700 1300) scale(0.1 -0.1)"><path d="M0.0 0.0C-37.0 -114.0 -93.0 -225.0 -163.0 -300.0C-155.0 -304.0 -142.0 -312.0 -137.0 -316.0C-70.0 -240.0 -10.0 -125.0 28.0 -7.0ZM-40.0 -134.0 -55.0 -163.0H428.0V-134.0Z"/></g>
<g fill="black" opacity=".8" transform="translate(700 1300) scale(0.1 -0.1)"><path d="M0.0 0.0C-34.0 -112.0 -91.0 -225.0 -164.0 -302.0C-156.0 -305.0 -144.0 -313.0 -138.0 -320.0C-68.0 -238.0 -9.0 -124.0 29.0 -5.0ZM-41.0 -133.0 -55.0 -162.0H427.0V-133.0Z"/></g>
<g fill="red" transform="translate(800 1300) scale(0.1 -0.1)"><path d="M0.0 0.0C-30.0 -102.0 -88.0 -205.0 -157.0 -267.0C-125.0 -286.0 -67.0 -327.0 -41.0 -351.0C29.0 -276.0 98.0 -155.0 138.0 -33.0ZM36.0 -103.0 -29.0 -233.0H487.0V-103.0Z"/></g>
<g fill="black" opacity=".8" transform="translate(800 1300) scale(0.1 -0.1)"><path d="M0.0 0.0C-30.0 -99.0 -85.0 -201.0 -155.0 -266.0C-123.0 -286.0 -69.0 -330.0 -44.0 -354.0C30.0 -274.0 97.0 -152.0 138.0 -32.0ZM34.0 -107.0 -27.0 -230.0H487.0V-107.0Z"/></g>
<g fill="red" transform="translate(900 1300) scale(0.1 -0.1)"><path d="M0.0 0.0C-31.0 -120.0 -82.0 -237.0 -148.0 -316.0C-140.0 -320.0 -125.0 -329.0 -120.0 -333.0C-56.0 -253.0 -3.0 -132.0 31.0 -6.0ZM-36.0 -132.0V-161.0H340.0V-132.0Z"/></g>
<g fill="black" opacity=".8" transform="translate(900 1300) scale(0.1 -0.1)"><path d="M0.0 0.0C-30.0 -120.0 -80.0 -238.0 -147.0 -318.0C-139.0 -320.0 -125.0 -328.0 -119.0 -334.0C-56.0 -251.0 -4.0 -131.0 29.0 -5.0ZM-43.0 -134.0 -44.0 -163.0H345.0V-134.0Z"/></g>
<g fill="red" transform="translate(1000 1300) scale(0.1 -0.1)"><path d="M0.0 0.0C-22.0 -116.0 -64.0 -233.0 -123.0 -305.0C-92.0 -323.0 -35.0 -364.0 -10.0 -387.0C53.0 -301.0 106.0 -164.0 135.0 -27.0ZM18.0 -103.0V-227.0H424.0V-103.0Z"/></g>
<g fill="black" opacity=".8" transform="translate(1000 1300) scale(0.1 -0.1)"><path d="M0.0 0.0C-21.0 -118.0 -63.0 -237.0 -126.0 -310.0C-94.0 -326.0 -37.0 -362.0 -11.0 -383.0C53.0 -298.0 105.0 -162.0 133.0 -26.0ZM27.0 -101.0 21.0 -225.0H419.0V-101.0Z"/></g>
<g fill="red" transform="translate(1100 1300) scale(0.1 -0.1)"><path d="M0.0 0.0C-35.0 -130.0 -92.0 -259.0 -164.0 -345.0C-155.0 -349.0 -140.0 -357.0 -135.0 -362.0C-67.0 -274.0 -8.0 -143.0 31.0 -7.0ZM-38.0 -136.0V-165.0H492.0V-136.0Z"/></g>
<g fill="black" opacity=".8" transform="translate(1100 1300) scale(0.1 -0.1)"><path d="M0.0 0.0C-35.0 -132.0 -92.0 -258.0 -164.0 -345.0C-155.0 -348.0 -142.0 -356.0 -136.0 -362.0C-68.0 -273.0 -9.0 -143.0 30.0 -6.0ZM-36.0 -138.0V-168.0H492.0V-138.0Z"/></g>
<g fill="red" transform="translate(1200 1300) scale(0.1 -0.1)"><path d="M0.0 0.0C-31.0 -123.0 -91.0 -244.0 -167.0 -317.0C-135.0 -338.0 -78.0 -386.0 -54.0 -412.0C27.0 -323.0 99.0 -178.0 141.0 -32.0ZM14.0 -110.0V-239.0H541.0V-110.0Z"/></g>
<g fill="black" opacity=".8" transform="translate(1200 1300) scale(0.1 -0.1)"><path d="M0.0 0.0C-33.0 -122.0 -94.0 -244.0 -168.0 -318.0C-134.0 -340.0 -76.0 -386.0 -51.0 -412.0C25.0 -322.0 99.0 -177.0 142.0 -36.0ZM11.0 -104.0V-240.0H541.0V-104.0Z"/></g>
<g fill="red" transform="translate(1300 1300) scale(0.1 -0.1)"><path d="M0.0 0.0C-30.0 -115.0 -78.0 -230.0 -139.0 -307.0C-130.0 -312.0 -117.0 -322.0 -112.0 -327.0C-53.0 -247.0 -2.0 -128.0 31.0 -6.0ZM-34.0 -122.0V-152.0H240.0V-122.0Z"/></g>
<g fill="black" opacity=".8" transform="translate(1300 1300) scale(0.1 -0.1)"><path d="M0.0 0.0C-28.0 -118.0 -74.0 -231.0 -136.0 -308.0C-128.0 -311.0 -115.0 -319.0 -109.0 -325.0C-51.0 -246.0 -1.0 -129.0 29.0 -5.0ZM-33.0 -121.0 -34.0 -151.0H242.0V-121.0Z"/></g>
<g fill="red" transform="translate(1400 1300) scale(0.1 -0.1)"><path d="M0.0 0.0C-37.0 -84.0 -100.0 -170.0 -161.0 -226.0C-140.0 -254.0 -106.0 -317.0 -95.0 -343.0C-19.0 -268.0 62.0 -148.0 111.0 -39.0ZM-7.0 -80.0V-206.0H273.0V-80.0Z"/></g>
<g fill="black" opacity=".8" transform="translate(1400 1300) scale(0.1 -0.1)"><path d="M0.0 0.0C-35.0 -94.0 -100.0 -182.0 -175.0 -236.0C-150.0 -259.0 -110.0 -308.0 -93.0 -332.0C-9.0 -262.0 69.0 -150.0 114.0 -34.0ZM-5.0 -81.0 -12.0 -205.0H270.0V-81.0Z"/></g>
<g fill="red" transform="translate(1500 1300) scale(0.1 -0.1)"><path d="M0.0 0.0C-39.0 -157.0 -102.0 -306.0 -185.0 -405.0C-177.0 -409.0 -164.0 -419.0 -159.0 -424.0C-78.0 -320.0 -13.0 -169.0 30.0 -6.0ZM-52.0 -205.0 -63.0 -234.0H465.0V-205.0Z"/></g>
<g fill="black" opacity=".8" transform="translate(1500 1300) scale(0.1 -0.1)"><path d="M0.0 0.0C-41.0 -158.0 -104.0 -305.0 -186.0 -405.0C-178.0 -408.0 -164.0 -417.0 -157.0 -424.0C-79.0 -319.0 -14.0 -170.0 31.0 -6.0ZM-40.0 -202.0 -50.0 -234.0H459.0V-202.0Z"/></g>
<g fill="red" transform="translate(1600 1300) scale(0.1 -0.1)"><path d="M0.0 0.0C-33.0 -134.0 -95.0 -269.0 -170.0 -350.0C-137.0 -372.0 -76.0 -422.0 -51.0 -448.0C30.0 -350.0 104.0 -191.0 147.0 -34.0ZM40.0 -169.0 -14.0 -303.0H518.0V-169.0Z"/></g>
<g fill="black" opacity=".8" transform="translate(1600 1300) scale(0.1 -0.1)"><path d="M0.0 0.0C-34.0 -136.0 -96.0 -270.0 -175.0 -351.0C-139.0 -373.0 -74.0 -420.0 -46.0 -446.0C33.0 -349.0 108.0 -192.0 152.0 -36.0ZM26.0 -166.0 -24.0 -308.0H523.0V-166.0Z"/></g>
</svg>
