<?xml version="1.0" encoding="UTF-8"?>
<svg width="1700" height="300" xmlns="http://www.w3.org/2000/svg">
<rect width="100%" height="100%" fill="white"/>
<g fill="green" transform="translate(100 100) scale(0.1 -0.1)"><path d="M-0.0 0.0C-39.0 -89.0 -112.0 -221.0 -166.0 -299.0L-126.0 -321.0C-70.0 -243.0 -3.0 -123.0 49.0 -25.0ZM-781.0 -83.0C-732.0 -154.0 -686.0 -248.0 -672.0 -310.0L-625.0 -291.0C-642.0 -231.0 -687.0 -137.0 -737.0 -67.0ZM-448.0 -63.0C-401.0 -136.0 -358.0 -232.0 -342.0 -296.0L-295.0 -277.0C-311.0 -217.0 -356.0 -120.0 -403.0 -49.0Z"/></g>
<g fill="green" transform="translate(200 100) scale(0.1 -0.1)"><path d="M0.0 0.0C-29.0 -80.0 -82.0 -186.0 -124.0 -253.0L55.0 -331.0C99.0 -269.0 152.0 -176.0 205.0 -83.0ZM-739.0 -164.0C-700.0 -218.0 -659.0 -294.0 -646.0 -343.0L-444.0 -259.0C-462.0 -210.0 -505.0 -140.0 -548.0 -90.0ZM-441.0 -136.0C-405.0 -189.0 -371.0 -264.0 -360.0 -311.0L-157.0 -235.0C-171.0 -187.0 -211.0 -118.0 -250.0 -69.0Z"/></g>
<g fill="green" transform="translate(300 100) scale(0.1 -0.1)"><path d="M0.0 0.0C-22.0 -53.0 -63.0 -132.0 -93.0 -177.0L-66.0 -193.0C-35.0 -147.0 3.0 -77.0 33.0 -18.0ZM-431.0 -60.0C-404.0 -103.0 -380.0 -157.0 -375.0 -193.0L-343.0 -181.0C-351.0 -146.0 -373.0 -91.0 -400.0 -50.0ZM-244.0 -54.0C-213.0 -96.0 -186.0 -150.0 -176.0 -187.0L-145.0 -173.0C-155.0 -140.0 -183.0 -84.0 -214.0 -44.0Z"/></g>
<g fill="green" transform="translate(400 100) scale(0.1 -0.1)"><path d="M0.0 0.0C-17.0 -45.0 -47.0 -106.0 -69.0 -144.0L44.0 -196.0C68.0 -161.0 95.0 -108.0 125.0 -55.0ZM-418.0 -118.0C-399.0 -145.0 -378.0 -183.0 -371.0 -208.0L-241.0 -156.0C-250.0 -131.0 -272.0 -96.0 -294.0 -72.0ZM-254.0 -104.0C-233.0 -129.0 -215.0 -165.0 -208.0 -188.0L-78.0 -138.0C-86.0 -115.0 -109.0 -82.0 -132.0 -61.0Z"/></g>
<g fill="green" transform="translate(500 100) scale(0.1 -0.1)"><path d="M0.0 0.0C-37.0 -71.0 -103.0 -175.0 -154.0 -238.0L-123.0 -253.0C-71.0 -188.0 -11.0 -93.0 36.0 -15.0ZM-818.0 -51.0C-772.0 -110.0 -727.0 -188.0 -713.0 -242.0L-680.0 -228.0C-696.0 -175.0 -740.0 -96.0 -790.0 -38.0ZM-466.0 -25.0C-431.0 -90.0 -402.0 -175.0 -392.0 -232.0L-359.0 -220.0C-369.0 -165.0 -400.0 -81.0 -435.0 -17.0Z"/></g>
<g fill="green" transform="translate(600 100) scale(0.1 -0.1)"><path d="M0.0 0.0C-27.0 -69.0 -76.0 -156.0 -117.0 -214.0L25.0 -270.0C69.0 -220.0 124.0 -141.0 178.0 -62.0ZM-721.0 -111.0C-683.0 -160.0 -645.0 -230.0 -633.0 -277.0L-470.0 -206.0C-486.0 -159.0 -523.0 -96.0 -566.0 -50.0ZM-418.0 -81.0C-389.0 -135.0 -363.0 -210.0 -357.0 -258.0L-188.0 -204.0C-197.0 -155.0 -225.0 -86.0 -258.0 -35.0Z"/></g>
<g fill="green" transform="translate(700 100) scale(0.1 -0.1)"><path d="M-0.0 0.0C-42.0 -99.0 -121.0 -246.0 -180.0 -335.0L-147.0 -352.0C-85.0 -265.0 -12.0 -130.0 42.0 -21.0ZM-770.0 -67.0C-715.0 -144.0 -660.0 -249.0 -636.0 -315.0L-594.0 -297.0C-619.0 -232.0 -675.0 -129.0 -730.0 -52.0ZM-457.0 -35.0C-411.0 -115.0 -365.0 -222.0 -345.0 -293.0L-302.0 -275.0C-322.0 -209.0 -370.0 -101.0 -416.0 -21.0Z"/></g>
<g fill="green" transform="translate(800 100) scale(0.1 -0.1)"><path d="M0.0 0.0C-30.0 -93.0 -86.0 -213.0 -133.0 -291.0L39.0 -362.0C87.0 -290.0 145.0 -181.0 198.0 -74.0ZM-748.0 -125.0C-699.0 -198.0 -646.0 -298.0 -629.0 -362.0L-449.0 -283.0C-473.0 -219.0 -528.0 -125.0 -580.0 -55.0ZM-444.0 -92.0C-401.0 -163.0 -356.0 -261.0 -340.0 -323.0L-159.0 -248.0C-179.0 -185.0 -230.0 -94.0 -275.0 -24.0Z"/></g>
<g fill="red" transform="translate(100 200) scale(0.1 -0.1)"><path d="M0.0 0.0C-40.0 -81.0 -113.0 -200.0 -168.0 -273.0L-144.0 -284.0C-87.0 -211.0 -19.0 -99.0 29.0 -11.0ZM-807.0 -35.0C-755.0 -99.0 -701.0 -189.0 -677.0 -247.0L-649.0 -234.0C-672.0 -176.0 -728.0 -88.0 -782.0 -23.0ZM-475.0 3.0C-442.0 -69.0 -408.0 -165.0 -396.0 -228.0L-366.0 -219.0C-380.0 -157.0 -414.0 -62.0 -448.0 11.0Z"/></g>
<g fill="black" opacity=".8" transform="translate(100 200) scale(0.1 -0.1)"><path d="M0.0 0.0C-40.0 -81.0 -112.0 -200.0 -168.0 -274.0L-144.0 -284.0C-86.0 -210.0 -20.0 -100.0 29.0 -11.0ZM-807.0 -35.0C-755.0 -100.0 -701.0 -189.0 -677.0 -247.0L-649.0 -234.0C-673.0 -176.0 -728.0 -88.0 -783.0 -23.0ZM-475.0 3.0C-441.0 -69.0 -409.0 -165.0 -395.0 -229.0L-366.0 -218.0C-380.0 -157.0 -414.0 -62.0 -448.0 11.0Z"/></g>
<g fill="red" transform="translate(200 200) scale(0.1 -0.1)"><path d="M0.0 0.0C-28.0 -82.0 -80.0 -183.0 -127.0 -252.0L9.0 -301.0C57.0 -240.0 118.0 -146.0 171.0 -53.0ZM-730.0 -72.0C-682.0 -140.0 -633.0 -234.0 -616.0 -296.0L-475.0 -229.0C-497.0 -168.0 -547.0 -80.0 -598.0 -15.0ZM-421.0 -37.0C-385.0 -109.0 -348.0 -207.0 -337.0 -270.0L-190.0 -216.0C-206.0 -153.0 -244.0 -61.0 -283.0 10.0Z"/></g>
<g fill="black" opacity=".8" transform="translate(200 200) scale(0.1 -0.1)"><path d="M0.0 0.0C-28.0 -82.0 -80.0 -183.0 -126.0 -252.0L9.0 -301.0C57.0 -241.0 117.0 -146.0 171.0 -53.0ZM-730.0 -72.0C-682.0 -140.0 -632.0 -234.0 -616.0 -296.0L-475.0 -230.0C-497.0 -168.0 -546.0 -81.0 -598.0 -15.0ZM-421.0 -37.0C-385.0 -109.0 -348.0 -207.0 -337.0 -270.0L-190.0 -217.0C-205.0 -153.0 -244.0 -62.0 -283.0 10.0Z"/></g>
<g fill="red" transform="translate(300 200) scale(0.1 -0.1)"><path d="M0.0 0.0C-30.0 -59.0 -84.0 -146.0 -125.0 -198.0L-97.0 -212.0C-56.0 -159.0 -6.0 -79.0 32.0 -14.0ZM-655.0 -48.0C-618.0 -97.0 -583.0 -162.0 -573.0 -206.0L-543.0 -194.0C-555.0 -151.0 -590.0 -85.0 -629.0 -37.0ZM-372.0 -30.0C-342.0 -83.0 -316.0 -152.0 -308.0 -198.0L-278.0 -188.0C-287.0 -143.0 -314.0 -74.0 -344.0 -22.0Z"/></g>
<g fill="black" opacity=".8" transform="translate(300 200) scale(0.1 -0.1)"><path d="M0.0 0.0C-30.0 -59.0 -84.0 -146.0 -125.0 -198.0L-97.0 -212.0C-55.0 -158.0 -7.0 -80.0 32.0 -14.0ZM-655.0 -48.0C-618.0 -98.0 -583.0 -162.0 -573.0 -206.0L-543.0 -194.0C-556.0 -150.0 -590.0 -85.0 -630.0 -37.0ZM-372.0 -30.0C-341.0 -83.0 -316.0 -152.0 -307.0 -199.0L-278.0 -187.0C-287.0 -143.0 -314.0 -74.0 -344.0 -22.0Z"/></g>
<g fill="red" transform="translate(400 200) scale(0.1 -0.1)"><path d="M0.0 0.0C-22.0 -56.0 -62.0 -128.0 -95.0 -175.0L27.0 -225.0C62.0 -183.0 106.0 -119.0 149.0 -55.0ZM-584.0 -103.0C-554.0 -141.0 -525.0 -196.0 -515.0 -233.0L-374.0 -172.0C-387.0 -136.0 -417.0 -86.0 -450.0 -51.0ZM-341.0 -80.0C-317.0 -121.0 -296.0 -179.0 -291.0 -216.0L-146.0 -168.0C-154.0 -131.0 -177.0 -77.0 -204.0 -39.0Z"/></g>
<g fill="black" opacity=".8" transform="translate(400 200) scale(0.1 -0.1)"><path d="M0.0 0.0C-22.0 -56.0 -62.0 -128.0 -94.0 -175.0L27.0 -225.0C62.0 -184.0 105.0 -119.0 149.0 -55.0ZM-584.0 -103.0C-554.0 -141.0 -525.0 -196.0 -515.0 -233.0L-375.0 -173.0C-387.0 -136.0 -416.0 -87.0 -450.0 -51.0ZM-341.0 -80.0C-317.0 -121.0 -296.0 -179.0 -291.0 -216.0L-146.0 -168.0C-154.0 -131.0 -177.0 -78.0 -204.0 -39.0Z"/></g>
<g fill="red" transform="translate(500 200) scale(0.1 -0.1)"><path d="M0.0 0.0C-24.0 -60.0 -70.0 -149.0 -103.0 -202.0L-81.0 -215.0C-46.0 -163.0 -3.0 -81.0 28.0 -15.0ZM-423.0 -49.0C-392.0 -95.0 -362.0 -158.0 -349.0 -197.0L-321.0 -185.0C-334.0 -147.0 -365.0 -86.0 -395.0 -40.0ZM-250.0 -34.0C-221.0 -81.0 -191.0 -143.0 -179.0 -184.0L-150.0 -172.0C-162.0 -134.0 -193.0 -71.0 -223.0 -25.0Z"/></g>
<g fill="black" opacity=".8" transform="translate(500 200) scale(0.1 -0.1)"><path d="M0.0 0.0C-24.0 -60.0 -69.0 -150.0 -103.0 -202.0L-81.0 -215.0C-46.0 -163.0 -3.0 -82.0 28.0 -15.0ZM-423.0 -49.0C-392.0 -96.0 -362.0 -158.0 -350.0 -197.0L-321.0 -185.0C-335.0 -147.0 -365.0 -85.0 -395.0 -39.0ZM-250.0 -34.0C-220.0 -81.0 -191.0 -143.0 -178.0 -185.0L-150.0 -172.0C-163.0 -134.0 -193.0 -71.0 -223.0 -24.0Z"/></g>
<g fill="red" transform="translate(600 200) scale(0.1 -0.1)"><path d="M0.0 0.0C-17.0 -54.0 -50.0 -126.0 -76.0 -171.0L33.0 -218.0C59.0 -175.0 91.0 -112.0 120.0 -49.0ZM-425.0 -91.0C-398.0 -131.0 -369.0 -186.0 -359.0 -221.0L-244.0 -172.0C-257.0 -137.0 -289.0 -85.0 -317.0 -47.0ZM-256.0 -73.0C-231.0 -111.0 -204.0 -163.0 -194.0 -196.0L-80.0 -147.0C-92.0 -114.0 -123.0 -65.0 -149.0 -29.0Z"/></g>
<g fill="black" opacity=".8" transform="translate(600 200) scale(0.1 -0.1)"><path d="M0.0 0.0C-18.0 -54.0 -50.0 -125.0 -75.0 -171.0L33.0 -218.0C60.0 -176.0 90.0 -112.0 120.0 -49.0ZM-424.0 -91.0C-398.0 -131.0 -369.0 -186.0 -359.0 -221.0L-245.0 -173.0C-258.0 -137.0 -288.0 -85.0 -317.0 -47.0ZM-256.0 -73.0C-230.0 -111.0 -204.0 -163.0 -194.0 -196.0L-79.0 -147.0C-92.0 -114.0 -122.0 -65.0 -150.0 -29.0Z"/></g>
</svg>
