<?xml version="1.0" encoding="UTF-8"?>
<svg width="1700" height="1800" xmlns="http://www.w3.org/2000/svg">
<rect width="100%" height="100%" fill="white"/>
<g fill="green" transform="translate(100 100) scale(0.1 -0.1)"><path d="M-0.0 0.0 -112.0 423.0 -16.0 516.0 97.0 95.0ZM525.0 155.0 576.0 -116.0 304.0 -169.0 252.0 102.0Z"/></g>
<g fill="green" transform="translate(200 100) scale(0.1 -0.1)"><path d="M0.0 -0.0 -78.0 318.0 73.0 384.0 152.0 71.0ZM526.0 61.0 562.0 -150.0 316.0 -190.0 280.0 20.0Z"/></g>
<g fill="green" transform="translate(300 100) scale(0.1 -0.1)"><path d="M0.0 0.0 -101.0 -156.0 40.0 -71.0 142.0 86.0ZM716.0 -59.0 770.0 -377.0 888.0 -433.0 833.0 -115.0Z"/></g>
<g fill="green" transform="translate(400 100) scale(0.1 -0.1)"><path d="M0.0 0.0 -70.0 -286.0 277.0 -226.0 348.0 64.0ZM795.0 -91.0 833.0 -480.0 993.0 -522.0 955.0 -134.0Z"/></g>
<g fill="green" transform="translate(500 100) scale(0.1 -0.1)"><path d="M0.0 0.0 -192.0 -211.0 -69.0 -53.0 124.0 161.0ZM-282.0 -188.0 -225.0 -465.0 -319.0 -524.0 -377.0 -248.0Z"/></g>
<g fill="green" transform="translate(600 100) scale(0.1 -0.1)"><path d="M0.0 0.0 -136.0 -331.0 173.0 -220.0 310.0 121.0ZM-233.0 -253.0 -193.0 -570.0 -251.0 -614.0 -292.0 -299.0Z"/></g>
<g fill="green" transform="translate(700 100) scale(0.1 -0.1)"><path d="M0.0 0.0 -178.0 35.0 -73.0 190.0 107.0 154.0ZM555.0 447.0 602.0 196.0 225.0 147.0 176.0 398.0Z"/></g>
<g fill="green" transform="translate(800 100) scale(0.1 -0.1)"><path d="M0.0 0.0 -124.0 -41.0 2.0 80.0 128.0 116.0ZM571.0 359.0 605.0 224.0 235.0 187.0 201.0 320.0Z"/></g>
<g fill="green" transform="translate(900 100) scale(0.1 -0.1)"><path d="M-0.0 0.0 -120.0 497.0 5.0 600.0 126.0 105.0ZM244.0 227.0 271.0 -56.0 460.0 -85.0 431.0 197.0Z"/></g>
<g fill="green" transform="translate(1000 100) scale(0.1 -0.1)"><path d="M0.0 0.0 -83.0 375.0 203.0 450.0 287.0 79.0ZM300.0 192.0 320.0 -121.0 528.0 -143.0 508.0 169.0Z"/></g>
<g fill="green" transform="translate(1100 100) scale(0.1 -0.1)"><path d="M-0.0 0.0 92.0 485.0 314.0 408.0 223.0 -75.0ZM521.0 218.0 671.0 -67.0 341.0 -221.0 190.0 64.0Z"/></g>
<g fill="green" transform="translate(1200 100) scale(0.1 -0.1)"><path d="M0.0 -0.0 68.0 377.0 302.0 315.0 235.0 -56.0ZM472.0 148.0 576.0 -93.0 284.0 -210.0 180.0 30.0Z"/></g>
<g fill="green" transform="translate(1300 100) scale(0.1 -0.1)"><path d="M0.0 0.0 154.0 443.0 -31.0 308.0 -185.0 -133.0ZM596.0 -17.0 461.0 -203.0 310.0 -66.0 444.0 120.0Z"/></g>
<g fill="green" transform="translate(1400 100) scale(0.1 -0.1)"><path d="M0.0 0.0 110.0 423.0 -133.0 318.0 -242.0 -101.0ZM476.0 -2.0 384.0 -165.0 256.0 -61.0 349.0 102.0Z"/></g>
<g fill="green" transform="translate(1500 100) scale(0.1 -0.1)"><path d="M0.0 0.0 -133.0 432.0 31.0 543.0 165.0 112.0ZM437.0 75.0H587.0L451.0 -79.0L299.0 -80.0Z"/></g>
<g fill="green" transform="translate(1600 100) scale(0.1 -0.1)"><path d="M0.0 -0.0 -93.0 284.0 0.0 365.0 95.0 84.0ZM460.0 -83.0 564.0 25.0 335.0 -92.0 230.0 -201.0Z"/></g>
<g fill="green" transform="translate(100 200) scale(0.1 -0.1)"><path d="M0.0 0.0 -125.0 357.0 -26.0 460.0 100.0 105.0ZM519.0 122.0 575.0 -137.0 322.0 -195.0 266.0 65.0Z"/></g>
<g fill="green" transform="translate(200 200) scale(0.1 -0.1)"><path d="M0.0 0.0 -88.0 379.0 84.0 453.0 173.0 78.0ZM529.0 84.0 568.0 -121.0 303.0 -165.0 264.0 39.0Z"/></g>
<g fill="green" transform="translate(300 200) scale(0.1 -0.1)"><path d="M-0.0 0.0 -98.0 430.0 -26.0 507.0 73.0 79.0ZM483.0 132.0 522.0 -97.0 270.0 -138.0 230.0 90.0Z"/></g>
<g fill="green" transform="translate(400 200) scale(0.1 -0.1)"><path d="M0.0 0.0 -69.0 328.0 102.0 381.0 172.0 59.0ZM591.0 47.0 619.0 -150.0 325.0 -182.0 297.0 14.0Z"/></g>
<g fill="green" transform="translate(500 200) scale(0.1 -0.1)"><path d="M0.0 0.0 -106.0 407.0 -22.0 494.0 85.0 88.0ZM522.0 183.0 596.0 -106.0 274.0 -183.0 199.0 107.0Z"/></g>
<g fill="green" transform="translate(600 200) scale(0.1 -0.1)"><path d="M0.0 0.0 -76.0 338.0 62.0 401.0 139.0 66.0ZM503.0 50.0 555.0 -135.0 371.0 -193.0 319.0 -8.0Z"/></g>
<g fill="green" transform="translate(700 200) scale(0.1 -0.1)"><path d="M-0.0 0.0 -114.0 436.0 -10.0 532.0 104.0 99.0ZM534.0 121.0 581.0 -128.0 285.0 -178.0 236.0 71.0Z"/></g>
<g fill="green" transform="translate(800 200) scale(0.1 -0.1)"><path d="M0.0 0.0 -79.0 304.0 70.0 371.0 150.0 74.0ZM523.0 81.0 557.0 -133.0 330.0 -171.0 296.0 43.0Z"/></g>
<g fill="green" transform="translate(900 200) scale(0.1 -0.1)"><path d="M-0.0 0.0 -114.0 408.0 -1.0 510.0 115.0 103.0ZM565.0 127.0 584.0 -95.0 276.0 -116.0 256.0 107.0Z"/></g>
<g fill="green" transform="translate(1000 200) scale(0.1 -0.1)"><path d="M0.0 0.0 -78.0 325.0 92.0 399.0 171.0 78.0ZM520.0 37.0 534.0 -175.0 311.0 -190.0 297.0 20.0Z"/></g>
<g fill="red" transform="translate(100 300) scale(0.1 -0.1)"><path d="M0.0 0.0V-821.0H29.0V0.0ZM18.0 -330.0V-359.0H424.0V-330.0Z"/></g>
<g fill="black" opacity=".8" transform="translate(100 300) scale(0.1 -0.1)"><path d="M0.0 0.0 2.0 -819.0 21.0 -821.0V-3.0ZM20.0 -331.0 21.0 -355.0 426.0 -357.0 423.0 -334.0Z"/></g>
<g fill="red" transform="translate(200 300) scale(0.1 -0.1)"><path d="M0.0 0.0V-824.0H157.0V0.0ZM82.0 -276.0V-423.0H501.0V-276.0Z"/></g>
<g fill="black" opacity=".8" transform="translate(200 300) scale(0.1 -0.1)"><path d="M0.0 0.0V-825.0L160.0 -826.0L162.0 -2.0ZM79.0 -275.0 80.0 -422.0 501.0 -424.0 498.0 -277.0Z"/></g>
<g fill="red" transform="translate(300 300) scale(0.1 -0.1)"><path d="M0.0 0.0V-476.0H29.0V0.0ZM11.0 -214.0V-244.0H285.0V-214.0Z"/></g>
<g fill="black" opacity=".8" transform="translate(300 300) scale(0.1 -0.1)"><path d="M0.0 0.0V-478.0L34.0 -477.0L35.0 1.0ZM9.0 -214.0 8.0 -240.0 285.0 -241.0 283.0 -216.0Z"/></g>
<g fill="red" transform="translate(400 300) scale(0.1 -0.1)"><path d="M0.0 0.0V-540.0H139.0V0.0ZM55.0 -147.0V-274.0H330.0V-147.0Z"/></g>
<g fill="black" opacity=".8" transform="translate(400 300) scale(0.1 -0.1)"><path d="M0.0 0.0V-539.0H131.0L133.0 1.0ZM57.0 -143.0 58.0 -278.0 331.0 -279.0 330.0 -145.0Z"/></g>
<g fill="red" transform="translate(500 300) scale(0.1 -0.1)"><path d="M0.0 0.0V-384.0H29.0V0.0ZM10.0 -148.0V-177.0H385.0V-148.0Z"/></g>
<g fill="black" opacity=".8" transform="translate(500 300) scale(0.1 -0.1)"><path d="M0.0 0.0 1.0 -383.0 25.0 -384.0V-2.0ZM12.0 -148.0 10.0 -177.0H385.0V-149.0Z"/></g>
<g fill="red" transform="translate(600 300) scale(0.1 -0.1)"><path d="M0.0 0.0V-392.0H150.0V0.0ZM85.0 -103.0V-234.0H477.0V-103.0Z"/></g>
<g fill="black" opacity=".8" transform="translate(600 300) scale(0.1 -0.1)"><path d="M0.0 0.0V-393.0H152.0L154.0 -1.0ZM84.0 -104.0V-231.0L476.0 -232.0V-105.0Z"/></g>
<g fill="red" transform="translate(700 300) scale(0.1 -0.1)"><path d="M0.0 0.0V-851.0H29.0V0.0ZM18.0 -339.0V-368.0H301.0V-339.0Z"/></g>
<g fill="black" opacity=".8" transform="translate(700 300) scale(0.1 -0.1)"><path d="M0.0 0.0 1.0 -852.0 29.0 -851.0V-1.0ZM18.0 -340.0 17.0 -365.0 301.0 -366.0 300.0 -341.0Z"/></g>
<g fill="red" transform="translate(800 300) scale(0.1 -0.1)"><path d="M0.0 0.0V-837.0H150.0V0.0ZM37.0 -294.0V-434.0H362.0V-294.0Z"/></g>
<g fill="black" opacity=".8" transform="translate(800 300) scale(0.1 -0.1)"><path d="M0.0 0.0 1.0 -838.0 148.0 -837.0 150.0 -0.0ZM37.0 -293.0V-435.0H362.0L361.0 -294.0Z"/></g>
<g fill="red" transform="translate(900 300) scale(0.1 -0.1)"><path d="M0.0 0.0V-494.0H29.0V0.0ZM16.0 -221.0V-251.0H352.0V-221.0Z"/></g>
<g fill="black" opacity=".8" transform="translate(900 300) scale(0.1 -0.1)"><path d="M0.0 0.0V-495.0L31.0 -494.0L32.0 -0.0ZM16.0 -221.0 13.0 -251.0 351.0 -250.0V-221.0Z"/></g>
<g fill="red" transform="translate(1000 300) scale(0.1 -0.1)"><path d="M0.0 0.0V-554.0H147.0V0.0ZM73.0 -181.0V-320.0H398.0V-181.0Z"/></g>
<g fill="black" opacity=".8" transform="translate(1000 300) scale(0.1 -0.1)"><path d="M0.0 0.0V-554.0H144.0L146.0 0.0ZM74.0 -181.0V-320.0H398.0V-182.0Z"/></g>
<g fill="red" transform="translate(1100 300) scale(0.1 -0.1)"><path d="M0.0 0.0V-300.0H30.0V0.0ZM9.0 -96.0V-125.0H323.0V-96.0Z"/></g>
<g fill="black" opacity=".8" transform="translate(1100 300) scale(0.1 -0.1)"><path d="M0.0 0.0 2.0 -298.0 24.0 -299.0V-2.0ZM13.0 -95.0 9.0 -129.0 322.0 -127.0 324.0 -94.0Z"/></g>
<g fill="red" transform="translate(1200 300) scale(0.1 -0.1)"><path d="M0.0 0.0V-293.0H141.0V0.0ZM87.0 -69.0V-199.0H416.0V-69.0Z"/></g>
<g fill="black" opacity=".8" transform="translate(1200 300) scale(0.1 -0.1)"><path d="M0.0 0.0 1.0 -295.0H147.0L148.0 -1.0ZM86.0 -75.0 84.0 -192.0 414.0 -191.0 415.0 -74.0Z"/></g>
<g fill="red" transform="translate(1300 300) scale(0.1 -0.1)"><path d="M0.0 0.0V-370.0H30.0V0.0ZM12.0 -141.0V-170.0H180.0V-141.0Z"/></g>
<g fill="black" opacity=".8" transform="translate(1300 300) scale(0.1 -0.1)"><path d="M0.0 0.0V-371.0L33.0 -370.0L34.0 0.0ZM12.0 -140.0 8.0 -172.0 178.0 -170.0 180.0 -139.0Z"/></g>
<g fill="red" transform="translate(1400 300) scale(0.1 -0.1)"><path d="M0.0 0.0V-383.0H138.0V0.0ZM67.0 -95.0V-220.0H239.0V-95.0Z"/></g>
<g fill="black" opacity=".8" transform="translate(1400 300) scale(0.1 -0.1)"><path d="M0.0 0.0V-383.0H135.0L137.0 1.0ZM69.0 -97.0 68.0 -219.0 239.0 -218.0V-97.0Z"/></g>
<g fill="red" transform="translate(1500 300) scale(0.1 -0.1)"><path d="M0.0 0.0V-273.0H29.0V0.0ZM11.0 -105.0V-135.0H157.0V-105.0Z"/></g>
<g fill="black" opacity=".8" transform="translate(1500 300) scale(0.1 -0.1)"><path d="M0.0 0.0 1.0 -273.0H28.0L29.0 -0.0ZM12.0 -105.0 10.0 -135.0H157.0V-105.0Z"/></g>
<g fill="red" transform="translate(1600 300) scale(0.1 -0.1)"><path d="M0.0 0.0V-248.0H97.0V0.0ZM39.0 -60.0V-155.0H157.0V-60.0Z"/></g>
<g fill="black" opacity=".8" transform="translate(1600 300) scale(0.1 -0.1)"><path d="M0.0 0.0 1.0 -248.0H97.0L98.0 0.0ZM39.0 -61.0V-154.0L157.0 -153.0L156.0 -62.0Z"/></g>
<g fill="red" transform="translate(100 400) scale(0.1 -0.1)"><path d="M0.0 0.0V-481.0H29.0V0.0ZM12.0 -208.0V-237.0H450.0V-208.0Z"/></g>
<g fill="black" opacity=".8" transform="translate(100 400) scale(0.1 -0.1)"><path d="M0.0 0.0 1.0 -481.0H28.0L27.0 -1.0ZM13.0 -208.0 11.0 -235.0 450.0 -236.0 449.0 -210.0Z"/></g>
<g fill="red" transform="translate(200 400) scale(0.1 -0.1)"><path d="M0.0 0.0V-513.0H151.0V0.0ZM63.0 -156.0V-292.0H527.0V-156.0Z"/></g>
<g fill="black" opacity=".8" transform="translate(200 400) scale(0.1 -0.1)"><path d="M0.0 0.0V-514.0L150.0 -513.0L152.0 -0.0ZM62.0 -155.0 63.0 -292.0 527.0 -293.0 526.0 -156.0Z"/></g>
<g fill="red" transform="translate(300 400) scale(0.1 -0.1)"><path d="M0.0 0.0V-397.0H29.0V0.0ZM11.0 -166.0V-196.0H365.0V-166.0Z"/></g>
<g fill="black" opacity=".8" transform="translate(300 400) scale(0.1 -0.1)"><path d="M0.0 0.0 1.0 -396.0 24.0 -397.0 23.0 -2.0ZM14.0 -166.0 12.0 -195.0H365.0V-167.0Z"/></g>
<g fill="red" transform="translate(400 400) scale(0.1 -0.1)"><path d="M0.0 0.0V-414.0H155.0V0.0ZM103.0 -105.0V-244.0H477.0V-105.0Z"/></g>
<g fill="black" opacity=".8" transform="translate(400 400) scale(0.1 -0.1)"><path d="M0.0 0.0V-415.0L158.0 -416.0L160.0 -1.0ZM101.0 -106.0 102.0 -241.0 476.0 -242.0 475.0 -107.0Z"/></g>
<g fill="red" transform="translate(500 400) scale(0.1 -0.1)"><path d="M0.0 0.0V-278.0H31.0V0.0ZM15.0 -110.0V-139.0H452.0V-110.0Z"/></g>
<g fill="black" opacity=".8" transform="translate(500 400) scale(0.1 -0.1)"><path d="M0.0 0.0 2.0 -277.0 28.0 -278.0V-1.0ZM17.0 -110.0 14.0 -140.0 452.0 -139.0V-109.0Z"/></g>
<g fill="red" transform="translate(600 400) scale(0.1 -0.1)"><path d="M0.0 0.0V-288.0H147.0V0.0ZM80.0 -72.0V-201.0H522.0V-72.0Z"/></g>
<g fill="black" opacity=".8" transform="translate(600 400) scale(0.1 -0.1)"><path d="M0.0 0.0 1.0 -289.0H149.0L150.0 -0.0ZM79.0 -74.0V-198.0L521.0 -197.0V-75.0Z"/></g>
<g fill="red" transform="translate(700 400) scale(0.1 -0.1)"><path d="M0.0 0.0V-361.0H29.0V0.0ZM15.0 -143.0V-172.0H219.0V-143.0Z"/></g>
<g fill="black" opacity=".8" transform="translate(700 400) scale(0.1 -0.1)"><path d="M0.0 0.0V-360.0L26.0 -361.0V-2.0ZM18.0 -143.0 14.0 -173.0 218.0 -172.0 219.0 -143.0Z"/></g>
<g fill="red" transform="translate(800 400) scale(0.1 -0.1)"><path d="M0.0 0.0V-392.0H141.0V0.0ZM112.0 -97.0V-228.0H306.0V-97.0Z"/></g>
<g fill="black" opacity=".8" transform="translate(800 400) scale(0.1 -0.1)"><path d="M0.0 0.0V-392.0L143.0 -394.0L145.0 -1.0ZM111.0 -99.0V-225.0L305.0 -224.0V-100.0Z"/></g>
<g fill="red" transform="translate(900 400) scale(0.1 -0.1)"><path d="M0.0 0.0V-481.0H30.0V0.0ZM18.0 -211.0V-241.0H323.0V-211.0Z"/></g>
<g fill="black" opacity=".8" transform="translate(900 400) scale(0.1 -0.1)"><path d="M0.0 0.0V-482.0L34.0 -481.0L35.0 0.0ZM17.0 -211.0 14.0 -241.0 322.0 -240.0V-210.0Z"/></g>
<g fill="red" transform="translate(1000 400) scale(0.1 -0.1)"><path d="M0.0 0.0V-527.0H150.0V0.0ZM66.0 -174.0V-311.0H373.0V-174.0Z"/></g>
<g fill="black" opacity=".8" transform="translate(1000 400) scale(0.1 -0.1)"><path d="M0.0 0.0V-527.0L146.0 -526.0L147.0 1.0ZM68.0 -174.0 67.0 -312.0 373.0 -311.0V-174.0Z"/></g>
<g fill="red" transform="translate(1100 400) scale(0.1 -0.1)"><path d="M0.0 0.0V-265.0H29.0V0.0ZM16.0 -103.0V-133.0H162.0V-103.0Z"/></g>
<g fill="black" opacity=".8" transform="translate(1100 400) scale(0.1 -0.1)"><path d="M0.0 0.0 1.0 -265.0H28.0V-0.0ZM17.0 -103.0 15.0 -133.0 162.0 -132.0V-103.0Z"/></g>
<g fill="red" transform="translate(1200 400) scale(0.1 -0.1)"><path d="M0.0 0.0V-221.0H101.0V0.0ZM46.0 -51.0V-146.0H165.0V-51.0Z"/></g>
<g fill="black" opacity=".8" transform="translate(1200 400) scale(0.1 -0.1)"><path d="M0.0 0.0 1.0 -222.0 101.0 -221.0 102.0 0.0ZM46.0 -51.0V-145.0H165.0L164.0 -53.0Z"/></g>
<g fill="red" transform="translate(1300 400) scale(0.1 -0.1)"><path d="M0.0 0.0V-194.0H29.0V0.0ZM16.0 -74.0V-104.0H197.0V-74.0Z"/></g>
<g fill="black" opacity=".8" transform="translate(1300 400) scale(0.1 -0.1)"><path d="M0.0 0.0V-196.0L33.0 -195.0L34.0 0.0ZM14.0 -75.0 13.0 -99.0 197.0 -101.0 195.0 -77.0Z"/></g>
<g fill="red" transform="translate(1400 400) scale(0.1 -0.1)"><path d="M0.0 0.0V-194.0H127.0V0.0ZM74.0 -39.0V-127.0H228.0V-39.0Z"/></g>
<g fill="black" opacity=".8" transform="translate(1400 400) scale(0.1 -0.1)"><path d="M0.0 0.0V-193.0H120.0L122.0 1.0ZM75.0 -34.0 76.0 -131.0 229.0 -133.0 227.0 -37.0Z"/></g>
<g fill="red" transform="translate(1500 400) scale(0.1 -0.1)"><path d="M0.0 0.0V-327.0H316.0V0.0ZM27.0 -29.0H290.0V-298.0H27.0Z"/></g>
<g fill="black" opacity=".8" transform="translate(1500 400) scale(0.1 -0.1)"><path d="M0.0 0.0 1.0 -328.0 318.0 -326.0 319.0 0.0ZM27.0 -29.0 287.0 -31.0 288.0 -298.0 26.0 -296.0Z"/></g>
<g fill="red" transform="translate(1600 400) scale(0.1 -0.1)"><path d="M0.0 0.0V-394.0H356.0V0.0ZM85.0 -95.0H267.0V-299.0H85.0Z"/></g>
<g fill="black" opacity=".8" transform="translate(1600 400) scale(0.1 -0.1)"><path d="M0.0 0.0 1.0 -395.0 354.0 -394.0 356.0 1.0ZM87.0 -97.0 267.0 -93.0 266.0 -296.0 85.0 -301.0Z"/></g>
<g fill="red" transform="translate(100 500) scale(0.1 -0.1)"><path d="M0.0 0.0V-635.0H30.0V0.0ZM453.0 -68.0V-98.0H723.0V-68.0Z"/></g>
<g fill="black" opacity=".8" transform="translate(100 500) scale(0.1 -0.1)"><path d="M0.0 0.0 1.0 -636.0 29.0 -634.0V-1.0ZM453.0 -68.0 452.0 -95.0 723.0 -96.0 722.0 -70.0Z"/></g>
<g fill="red" transform="translate(200 500) scale(0.1 -0.1)"><path d="M0.0 0.0V-671.0H135.0V0.0ZM548.0 -38.0V-143.0H814.0V-38.0Z"/></g>
<g fill="black" opacity=".8" transform="translate(200 500) scale(0.1 -0.1)"><path d="M0.0 0.0 1.0 -674.0 134.0 -669.0 135.0 -0.0ZM547.0 -36.0 548.0 -144.0 814.0 -145.0 813.0 -38.0Z"/></g>
<g fill="red" transform="translate(300 500) scale(0.1 -0.1)"><path d="M0.0 0.0V-670.0H29.0V0.0ZM441.0 -63.0V-93.0H702.0V-63.0Z"/></g>
<g fill="black" opacity=".8" transform="translate(300 500) scale(0.1 -0.1)"><path d="M0.0 0.0 2.0 -671.0 29.0 -669.0V-1.0ZM441.0 -64.0 440.0 -90.0 702.0 -91.0 700.0 -65.0Z"/></g>
<g fill="red" transform="translate(400 500) scale(0.1 -0.1)"><path d="M0.0 0.0V-671.0H135.0V0.0ZM518.0 -31.0V-129.0H802.0V-31.0Z"/></g>
<g fill="black" opacity=".8" transform="translate(400 500) scale(0.1 -0.1)"><path d="M0.0 0.0 1.0 -674.0 132.0 -668.0 134.0 -0.0ZM517.0 -29.0 519.0 -130.0 802.0 -132.0 801.0 -31.0Z"/></g>
<g fill="red" transform="translate(500 500) scale(0.1 -0.1)"><path d="M0.0 0.0V-305.0H29.0V0.0ZM16.0 -111.0V-140.0H223.0V-111.0Z"/></g>
<g fill="black" opacity=".8" transform="translate(500 500) scale(0.1 -0.1)"><path d="M0.0 0.0 1.0 -305.0H30.0V-1.0ZM17.0 -111.0 13.0 -142.0 222.0 -141.0 223.0 -109.0Z"/></g>
<g fill="red" transform="translate(600 500) scale(0.1 -0.1)"><path d="M0.0 0.0V-252.0H135.0V0.0ZM70.0 -40.0V-161.0H278.0V-40.0Z"/></g>
<g fill="black" opacity=".8" transform="translate(600 500) scale(0.1 -0.1)"><path d="M0.0 0.0V-253.0L134.0 -252.0L136.0 0.0ZM71.0 -43.0 70.0 -158.0 278.0 -157.0V-43.0Z"/></g>
<g fill="red" transform="translate(700 500) scale(0.1 -0.1)"><path d="M0.0 0.0V-423.0H30.0V0.0ZM13.0 -176.0V-206.0H385.0V-176.0Z"/></g>
<g fill="black" opacity=".8" transform="translate(700 500) scale(0.1 -0.1)"><path d="M0.0 0.0 1.0 -422.0 27.0 -423.0 26.0 -1.0ZM15.0 -176.0 13.0 -206.0H385.0V-176.0Z"/></g>
<g fill="red" transform="translate(800 500) scale(0.1 -0.1)"><path d="M0.0 0.0V-414.0H150.0V0.0ZM74.0 -121.0V-258.0H462.0V-121.0Z"/></g>
<g fill="black" opacity=".8" transform="translate(800 500) scale(0.1 -0.1)"><path d="M0.0 0.0V-415.0H152.0L153.0 -1.0ZM73.0 -123.0V-255.0H461.0V-123.0Z"/></g>
<g fill="red" transform="translate(900 500) scale(0.1 -0.1)"><path d="M0.0 0.0V-194.0H30.0V0.0ZM16.0 -73.0V-103.0H180.0V-73.0Z"/></g>
<g fill="black" opacity=".8" transform="translate(900 500) scale(0.1 -0.1)"><path d="M0.0 0.0 1.0 -194.0H26.0V-1.0ZM17.0 -74.0 16.0 -99.0 181.0 -101.0 179.0 -76.0Z"/></g>
<g fill="red" transform="translate(1000 500) scale(0.1 -0.1)"><path d="M0.0 0.0V-198.0H108.0V0.0ZM68.0 -46.0V-133.0H249.0V-46.0Z"/></g>
<g fill="black" opacity=".8" transform="translate(1000 500) scale(0.1 -0.1)"><path d="M0.0 0.0 1.0 -199.0H108.0L110.0 -0.0ZM66.0 -44.0 68.0 -133.0 249.0 -135.0 247.0 -46.0Z"/></g>
<g fill="red" transform="translate(1100 500) scale(0.1 -0.1)"><path d="M0.0 0.0V-458.0H29.0V0.0ZM13.0 -210.0V-240.0H300.0V-210.0Z"/></g>
<g fill="black" opacity=".8" transform="translate(1100 500) scale(0.1 -0.1)"><path d="M0.0 0.0V-456.0L24.0 -459.0V-2.0ZM15.0 -210.0 14.0 -238.0H301.0L299.0 -212.0Z"/></g>
<g fill="red" transform="translate(1200 500) scale(0.1 -0.1)"><path d="M0.0 0.0V-504.0H141.0V0.0ZM113.0 -152.0V-286.0H352.0V-152.0Z"/></g>
<g fill="black" opacity=".8" transform="translate(1200 500) scale(0.1 -0.1)"><path d="M0.0 0.0V-503.0L143.0 -506.0L145.0 -1.0ZM111.0 -151.0 112.0 -285.0 352.0 -286.0 350.0 -153.0Z"/></g>
<g fill="red" transform="translate(1300 500) scale(0.1 -0.1)"><path d="M0.0 0.0V-243.0H29.0V0.0ZM8.0 -104.0V-133.0H269.0V-104.0Z"/></g>
<g fill="black" opacity=".8" transform="translate(1300 500) scale(0.1 -0.1)"><path d="M0.0 0.0V-243.0H31.0V-0.0ZM9.0 -103.0 4.0 -136.0 267.0 -134.0 269.0 -102.0Z"/></g>
<g fill="red" transform="translate(1400 500) scale(0.1 -0.1)"><path d="M0.0 0.0V-293.0H141.0V0.0ZM85.0 -62.0V-192.0H342.0V-62.0Z"/></g>
<g fill="black" opacity=".8" transform="translate(1400 500) scale(0.1 -0.1)"><path d="M0.0 0.0V-293.0H140.0L141.0 0.0ZM86.0 -65.0 85.0 -189.0 341.0 -188.0 342.0 -64.0Z"/></g>
<g fill="red" transform="translate(1500 500) scale(0.1 -0.1)"><path d="M0.0 0.0V-361.0H29.0V0.0ZM15.0 -144.0V-173.0H373.0V-144.0Z"/></g>
<g fill="black" opacity=".8" transform="translate(1500 500) scale(0.1 -0.1)"><path d="M0.0 0.0 1.0 -362.0 32.0 -361.0V0.0ZM15.0 -144.0 12.0 -173.0 372.0 -172.0V-144.0Z"/></g>
<g fill="red" transform="translate(1600 500) scale(0.1 -0.1)"><path d="M0.0 0.0V-374.0H151.0V0.0ZM69.0 -80.0V-211.0H448.0V-80.0Z"/></g>
<g fill="black" opacity=".8" transform="translate(1600 500) scale(0.1 -0.1)"><path d="M0.0 0.0V-374.0L147.0 -373.0L149.0 1.0ZM70.0 -80.0V-211.0H448.0V-80.0Z"/></g>
<g fill="red" transform="translate(100 600) scale(0.1 -0.1)"><path d="M0.0 0.0V-402.0H29.0V0.0ZM13.0 -167.0V-197.0H398.0V-167.0Z"/></g>
<g fill="black" opacity=".8" transform="translate(100 600) scale(0.1 -0.1)"><path d="M0.0 0.0 1.0 -402.0H28.0V-1.0ZM13.0 -167.0 12.0 -195.0 398.0 -196.0 397.0 -168.0Z"/></g>
<g fill="red" transform="translate(200 600) scale(0.1 -0.1)"><path d="M0.0 0.0V-405.0H149.0V0.0ZM69.0 -123.0V-249.0H461.0V-123.0Z"/></g>
<g fill="black" opacity=".8" transform="translate(200 600) scale(0.1 -0.1)"><path d="M0.0 0.0V-406.0L147.0 -405.0L149.0 -0.0ZM69.0 -122.0V-249.0H461.0L460.0 -123.0Z"/></g>
<g fill="red" transform="translate(300 600) scale(0.1 -0.1)"><path d="M0.0 0.0V-494.0H29.0V0.0ZM13.0 -215.0V-245.0H327.0V-215.0Z"/></g>
<g fill="black" opacity=".8" transform="translate(300 600) scale(0.1 -0.1)"><path d="M0.0 0.0 1.0 -495.0 33.0 -494.0V0.0ZM13.0 -214.0 9.0 -247.0 326.0 -245.0 327.0 -213.0Z"/></g>
<g fill="red" transform="translate(400 600) scale(0.1 -0.1)"><path d="M0.0 0.0V-549.0H150.0V0.0ZM57.0 -178.0V-321.0H395.0V-178.0Z"/></g>
<g fill="black" opacity=".8" transform="translate(400 600) scale(0.1 -0.1)"><path d="M0.0 0.0 1.0 -549.0 147.0 -548.0 148.0 1.0ZM59.0 -180.0 58.0 -321.0 395.0 -319.0V-179.0Z"/></g>
<g fill="red" transform="translate(500 600) scale(0.1 -0.1)"><path d="M0.0 0.0V-361.0H29.0V0.0ZM16.0 -142.0V-171.0H267.0V-142.0Z"/></g>
<g fill="black" opacity=".8" transform="translate(500 600) scale(0.1 -0.1)"><path d="M0.0 0.0 1.0 -362.0 31.0 -361.0V-0.0ZM16.0 -142.0 13.0 -173.0 266.0 -171.0 267.0 -141.0Z"/></g>
<g fill="red" transform="translate(600 600) scale(0.1 -0.1)"><path d="M0.0 0.0V-338.0H141.0V0.0ZM69.0 -75.0V-202.0H317.0V-75.0Z"/></g>
<g fill="black" opacity=".8" transform="translate(600 600) scale(0.1 -0.1)"><path d="M0.0 0.0V-338.0H139.0L141.0 0.0ZM70.0 -77.0 69.0 -200.0H317.0V-77.0Z"/></g>
<g fill="red" transform="translate(700 600) scale(0.1 -0.1)"><path d="M0.0 0.0V-274.0H30.0V0.0ZM14.0 -101.0V-130.0H191.0V-101.0Z"/></g>
<g fill="black" opacity=".8" transform="translate(700 600) scale(0.1 -0.1)"><path d="M0.0 0.0 1.0 -275.0 31.0 -274.0V-0.0ZM14.0 -101.0 12.0 -129.0H190.0V-102.0Z"/></g>
<g fill="red" transform="translate(800 600) scale(0.1 -0.1)"><path d="M0.0 0.0V-243.0H122.0V0.0ZM58.0 -54.0V-154.0H225.0V-54.0Z"/></g>
<g fill="black" opacity=".8" transform="translate(800 600) scale(0.1 -0.1)"><path d="M0.0 0.0V-243.0H119.0L121.0 0.0ZM58.0 -53.0 59.0 -154.0H225.0L224.0 -55.0Z"/></g>
<g fill="red" transform="translate(900 600) scale(0.1 -0.1)"><path d="M0.0 0.0V-203.0H29.0V0.0ZM16.0 -74.0V-104.0H264.0V-74.0Z"/></g>
<g fill="black" opacity=".8" transform="translate(900 600) scale(0.1 -0.1)"><path d="M0.0 0.0 1.0 -205.0 32.0 -204.0V-0.0ZM14.0 -75.0V-100.0L264.0 -101.0L262.0 -77.0Z"/></g>
<g fill="red" transform="translate(1000 600) scale(0.1 -0.1)"><path d="M0.0 0.0V-194.0H134.0V0.0ZM64.0 -48.0V-139.0H326.0V-48.0Z"/></g>
<g fill="black" opacity=".8" transform="translate(1000 600) scale(0.1 -0.1)"><path d="M0.0 0.0V-194.0L128.0 -193.0L130.0 1.0ZM65.0 -44.0 66.0 -142.0 327.0 -144.0 325.0 -46.0Z"/></g>
<g fill="red" transform="translate(1100 600) scale(0.1 -0.1)"><path d="M0.0 0.0V-190.0H30.0V0.0ZM14.0 -78.0V-108.0H253.0V-78.0Z"/></g>
<g fill="black" opacity=".8" transform="translate(1100 600) scale(0.1 -0.1)"><path d="M0.0 0.0V-192.0L34.0 -191.0V0.0ZM12.0 -78.0 11.0 -105.0H253.0L251.0 -80.0Z"/></g>
<g fill="red" transform="translate(1200 600) scale(0.1 -0.1)"><path d="M0.0 0.0V-221.0H134.0V0.0ZM71.0 -53.0V-151.0H310.0V-53.0Z"/></g>
<g fill="black" opacity=".8" transform="translate(1200 600) scale(0.1 -0.1)"><path d="M0.0 0.0V-220.0H128.0L129.0 1.0ZM72.0 -49.0 73.0 -154.0 311.0 -155.0 309.0 -51.0Z"/></g>
<g fill="red" transform="translate(1300 600) scale(0.1 -0.1)"><path d="M0.0 0.0V-190.0H29.0V0.0ZM14.0 -73.0V-103.0H248.0V-73.0Z"/></g>
<g fill="black" opacity=".8" transform="translate(1300 600) scale(0.1 -0.1)"><path d="M0.0 0.0 1.0 -192.0 31.0 -191.0V-0.0ZM12.0 -74.0V-97.0L248.0 -100.0L246.0 -77.0Z"/></g>
<g fill="red" transform="translate(1400 600) scale(0.1 -0.1)"><path d="M0.0 0.0V-194.0H134.0V0.0ZM66.0 -44.0V-134.0H337.0V-44.0Z"/></g>
<g fill="black" opacity=".8" transform="translate(1400 600) scale(0.1 -0.1)"><path d="M0.0 0.0V-194.0L128.0 -193.0L130.0 1.0ZM66.0 -39.0 68.0 -138.0 338.0 -140.0 336.0 -42.0Z"/></g>
<g fill="red" transform="translate(1500 600) scale(0.1 -0.1)"><path d="M0.0 0.0V-494.0H30.0V0.0ZM22.0 -211.0V-241.0H323.0V-211.0Z"/></g>
<g fill="black" opacity=".8" transform="translate(1500 600) scale(0.1 -0.1)"><path d="M0.0 0.0 1.0 -496.0 35.0 -494.0V1.0ZM21.0 -211.0 18.0 -241.0 322.0 -240.0V-211.0Z"/></g>
<g fill="red" transform="translate(1600 600) scale(0.1 -0.1)"><path d="M0.0 0.0V-527.0H150.0V0.0ZM57.0 -162.0V-299.0H391.0V-162.0Z"/></g>
<g fill="black" opacity=".8" transform="translate(1600 600) scale(0.1 -0.1)"><path d="M0.0 0.0 1.0 -527.0 145.0 -526.0 147.0 1.0ZM59.0 -162.0V-300.0L391.0 -299.0V-162.0Z"/></g>
<g fill="red" transform="translate(100 700) scale(0.1 -0.1)"><path d="M0.0 0.0V-361.0H30.0V0.0ZM16.0 -142.0V-171.0H285.0V-142.0Z"/></g>
<g fill="black" opacity=".8" transform="translate(100 700) scale(0.1 -0.1)"><path d="M0.0 0.0V-362.0L32.0 -361.0L33.0 -0.0ZM16.0 -142.0 13.0 -173.0 284.0 -171.0 285.0 -141.0Z"/></g>
<g fill="red" transform="translate(200 700) scale(0.1 -0.1)"><path d="M0.0 0.0V-338.0H141.0V0.0ZM69.0 -75.0V-202.0H317.0V-75.0Z"/></g>
<g fill="black" opacity=".8" transform="translate(200 700) scale(0.1 -0.1)"><path d="M0.0 0.0V-338.0H139.0L140.0 0.0ZM70.0 -77.0 69.0 -201.0 317.0 -200.0V-77.0Z"/></g>
<g fill="red" transform="translate(300 700) scale(0.1 -0.1)"><path d="M0.0 0.0V-370.0H30.0V0.0ZM12.0 -160.0V-189.0H163.0V-160.0Z"/></g>
<g fill="black" opacity=".8" transform="translate(300 700) scale(0.1 -0.1)"><path d="M0.0 0.0 1.0 -372.0 35.0 -370.0V1.0ZM11.0 -160.0 8.0 -190.0 162.0 -189.0 163.0 -159.0Z"/></g>
<g fill="red" transform="translate(400 700) scale(0.1 -0.1)"><path d="M0.0 0.0V-383.0H128.0V0.0ZM29.0 -149.0V-262.0H223.0V-149.0Z"/></g>
<g fill="black" opacity=".8" transform="translate(400 700) scale(0.1 -0.1)"><path d="M0.0 0.0 1.0 -383.0 124.0 -382.0 125.0 1.0ZM31.0 -150.0 30.0 -262.0 223.0 -261.0V-150.0Z"/></g>
<g fill="red" transform="translate(500 700) scale(0.1 -0.1)"><path d="M0.0 0.0V-273.0H29.0V0.0ZM11.0 -105.0V-135.0H157.0V-105.0Z"/></g>
<g fill="black" opacity=".8" transform="translate(500 700) scale(0.1 -0.1)"><path d="M0.0 0.0 1.0 -273.0H28.0L29.0 -0.0ZM12.0 -105.0 10.0 -135.0H156.0L157.0 -105.0Z"/></g>
<g fill="red" transform="translate(600 700) scale(0.1 -0.1)"><path d="M0.0 0.0V-248.0H96.0V0.0ZM38.0 -60.0V-155.0H155.0V-60.0Z"/></g>
<g fill="black" opacity=".8" transform="translate(600 700) scale(0.1 -0.1)"><path d="M0.0 0.0 1.0 -248.0H96.0L97.0 0.0ZM38.0 -61.0V-153.0H155.0L154.0 -62.0Z"/></g>
<g fill="red" transform="translate(700 700) scale(0.1 -0.1)"><path d="M0.0 0.0V-379.0H30.0V0.0ZM13.0 -156.0V-185.0H441.0V-156.0Z"/></g>
<g fill="black" opacity=".8" transform="translate(700 700) scale(0.1 -0.1)"><path d="M0.0 0.0 1.0 -379.0H29.0V-1.0ZM14.0 -156.0 11.0 -186.0 440.0 -185.0 441.0 -156.0Z"/></g>
<g fill="red" transform="translate(800 700) scale(0.1 -0.1)"><path d="M0.0 0.0V-405.0H158.0V0.0ZM81.0 -104.0V-245.0H532.0V-104.0Z"/></g>
<g fill="black" opacity=".8" transform="translate(800 700) scale(0.1 -0.1)"><path d="M0.0 0.0V-406.0L158.0 -405.0L160.0 -0.0ZM81.0 -106.0V-243.0L532.0 -242.0L531.0 -106.0Z"/></g>
<g fill="red" transform="translate(900 700) scale(0.1 -0.1)"><path d="M0.0 0.0V-450.0H30.0V0.0ZM440.0 -159.0V-189.0H714.0V-159.0Z"/></g>
<g fill="black" opacity=".8" transform="translate(900 700) scale(0.1 -0.1)"><path d="M0.0 0.0V-451.0L32.0 -450.0V-0.0ZM440.0 -159.0 438.0 -189.0H713.0V-158.0Z"/></g>
<g fill="red" transform="translate(1000 700) scale(0.1 -0.1)"><path d="M0.0 0.0V-495.0H139.0V0.0ZM517.0 -119.0V-248.0H783.0V-119.0Z"/></g>
<g fill="black" opacity=".8" transform="translate(1000 700) scale(0.1 -0.1)"><path d="M0.0 0.0 1.0 -496.0 137.0 -494.0 138.0 -0.0ZM517.0 -120.0V-247.0H783.0V-120.0Z"/></g>
<g fill="red" transform="translate(1100 700) scale(0.1 -0.1)"><path d="M0.0 0.0V-388.0H29.0V0.0ZM-414.0 -204.0V-233.0H-188.0V-204.0Z"/></g>
<g fill="black" opacity=".8" transform="translate(1100 700) scale(0.1 -0.1)"><path d="M0.0 0.0V-388.0L29.0 -389.0L30.0 -0.0ZM-413.0 -204.0 -416.0 -233.0 -189.0 -232.0V-204.0Z"/></g>
<g fill="red" transform="translate(1200 700) scale(0.1 -0.1)"><path d="M0.0 0.0V-410.0H142.0V0.0ZM-369.0 -152.0V-283.0H-139.0V-152.0Z"/></g>
<g fill="black" opacity=".8" transform="translate(1200 700) scale(0.1 -0.1)"><path d="M0.0 0.0V-409.0L140.0 -412.0L142.0 0.0ZM-369.0 -152.0V-282.0H-139.0L-140.0 -153.0Z"/></g>
<g fill="red" transform="translate(1300 700) scale(0.1 -0.1)"><path d="M0.0 0.0V-357.0H29.0V0.0ZM441.0 -150.0V-180.0H693.0V-150.0Z"/></g>
<g fill="black" opacity=".8" transform="translate(1300 700) scale(0.1 -0.1)"><path d="M0.0 0.0 1.0 -357.0 30.0 -356.0 31.0 -1.0ZM442.0 -150.0 438.0 -183.0 692.0 -181.0 693.0 -148.0Z"/></g>
<g fill="red" transform="translate(1400 700) scale(0.1 -0.1)"><path d="M0.0 0.0V-383.0H134.0V0.0ZM515.0 -119.0V-248.0H754.0V-119.0Z"/></g>
<g fill="black" opacity=".8" transform="translate(1400 700) scale(0.1 -0.1)"><path d="M0.0 0.0 1.0 -384.0 134.0 -383.0 135.0 -0.0ZM515.0 -122.0 514.0 -245.0 753.0 -244.0 754.0 -122.0Z"/></g>
<g fill="red" transform="translate(1500 700) scale(0.1 -0.1)"><path d="M0.0 0.0V-388.0H30.0V0.0ZM-425.0 -158.0V-187.0H-221.0V-158.0Z"/></g>
<g fill="black" opacity=".8" transform="translate(1500 700) scale(0.1 -0.1)"><path d="M0.0 0.0 1.0 -386.0 22.0 -388.0V-3.0ZM-421.0 -158.0 -424.0 -186.0H-221.0V-159.0Z"/></g>
<g fill="red" transform="translate(1600 700) scale(0.1 -0.1)"><path d="M0.0 0.0V-410.0H142.0V0.0ZM-335.0 -120.0V-247.0H-136.0V-120.0Z"/></g>
<g fill="black" opacity=".8" transform="translate(1600 700) scale(0.1 -0.1)"><path d="M0.0 0.0V-410.0L146.0 -413.0L149.0 -1.0ZM-338.0 -121.0 -337.0 -243.0 -137.0 -244.0 -138.0 -123.0Z"/></g>
<g fill="red" transform="translate(100 800) scale(0.1 -0.1)"><path d="M0.0 0.0V-225.0H30.0V0.0ZM421.0 -165.0V-195.0H651.0V-165.0Z"/></g>
<g fill="black" opacity=".8" transform="translate(100 800) scale(0.1 -0.1)"><path d="M0.0 0.0V-226.0L33.0 -225.0V0.0ZM421.0 -165.0 418.0 -196.0 650.0 -195.0 651.0 -164.0Z"/></g>
<g fill="red" transform="translate(200 800) scale(0.1 -0.1)"><path d="M0.0 0.0V-238.0H140.0V0.0ZM477.0 -120.0V-249.0H740.0V-120.0Z"/></g>
<g fill="black" opacity=".8" transform="translate(200 800) scale(0.1 -0.1)"><path d="M0.0 0.0V-238.0H137.0L139.0 0.0ZM478.0 -121.0V-248.0H740.0V-121.0Z"/></g>
<g fill="red" transform="translate(300 800) scale(0.1 -0.1)"><path d="M0.0 0.0V-190.0H29.0V0.0ZM13.0 -78.0V-108.0H247.0V-78.0Z"/></g>
<g fill="black" opacity=".8" transform="translate(300 800) scale(0.1 -0.1)"><path d="M0.0 0.0 1.0 -191.0H31.0V-0.0ZM12.0 -78.0 11.0 -105.0 247.0 -106.0 246.0 -80.0Z"/></g>
<g fill="red" transform="translate(400 800) scale(0.1 -0.1)"><path d="M0.0 0.0V-203.0H134.0V0.0ZM75.0 -54.0V-152.0H314.0V-54.0Z"/></g>
<g fill="black" opacity=".8" transform="translate(400 800) scale(0.1 -0.1)"><path d="M0.0 0.0V-203.0L130.0 -202.0L131.0 0.0ZM75.0 -51.0 76.0 -154.0 315.0 -155.0 313.0 -53.0Z"/></g>
<g fill="red" transform="translate(500 800) scale(0.1 -0.1)"><path d="M0.0 0.0V-317.0H30.0V0.0ZM13.0 -124.0V-153.0H406.0V-124.0Z"/></g>
<g fill="black" opacity=".8" transform="translate(500 800) scale(0.1 -0.1)"><path d="M0.0 0.0 1.0 -318.0 35.0 -317.0 36.0 1.0ZM12.0 -123.0 8.0 -155.0 404.0 -153.0 405.0 -122.0Z"/></g>
<g fill="red" transform="translate(600 800) scale(0.1 -0.1)"><path d="M0.0 0.0V-383.0H147.0V0.0ZM62.0 -95.0V-225.0H459.0V-95.0Z"/></g>
<g fill="black" opacity=".8" transform="translate(600 800) scale(0.1 -0.1)"><path d="M0.0 0.0 1.0 -383.0 143.0 -382.0 144.0 1.0ZM64.0 -96.0 63.0 -225.0 459.0 -223.0V-96.0Z"/></g>
<g fill="red" transform="translate(700 800) scale(0.1 -0.1)"><path d="M0.0 0.0V-494.0H30.0V0.0ZM20.0 -230.0V-259.0H369.0V-230.0Z"/></g>
<g fill="black" opacity=".8" transform="translate(700 800) scale(0.1 -0.1)"><path d="M0.0 0.0 1.0 -494.0H29.0V-1.0ZM21.0 -230.0 19.0 -258.0H369.0L368.0 -231.0Z"/></g>
<g fill="red" transform="translate(800 800) scale(0.1 -0.1)"><path d="M0.0 0.0V-527.0H150.0V0.0ZM85.0 -173.0V-313.0H428.0V-173.0Z"/></g>
<g fill="black" opacity=".8" transform="translate(800 800) scale(0.1 -0.1)"><path d="M0.0 0.0V-527.0L149.0 -528.0L151.0 -0.0ZM84.0 -173.0 85.0 -313.0H428.0L427.0 -174.0Z"/></g>
<g fill="red" transform="translate(900 800) scale(0.1 -0.1)"><path d="M0.0 0.0V-357.0H29.0V0.0ZM12.0 -142.0V-171.0H175.0V-142.0Z"/></g>
<g fill="black" opacity=".8" transform="translate(900 800) scale(0.1 -0.1)"><path d="M0.0 0.0 1.0 -357.0H30.0L31.0 -0.0ZM14.0 -141.0 9.0 -175.0 173.0 -172.0 176.0 -139.0Z"/></g>
<g fill="red" transform="translate(1000 800) scale(0.1 -0.1)"><path d="M0.0 0.0V-369.0H132.0V0.0ZM64.0 -103.0V-232.0H245.0V-103.0Z"/></g>
<g fill="black" opacity=".8" transform="translate(1000 800) scale(0.1 -0.1)"><path d="M0.0 0.0V-370.0H132.0L133.0 1.0ZM65.0 -107.0 63.0 -228.0 244.0 -226.0 245.0 -106.0Z"/></g>
<g fill="red" transform="translate(1100 800) scale(0.1 -0.1)"><path d="M0.0 0.0V-300.0H30.0V0.0ZM12.0 -132.0V-162.0H167.0V-132.0Z"/></g>
<g fill="black" opacity=".8" transform="translate(1100 800) scale(0.1 -0.1)"><path d="M0.0 0.0 1.0 -302.0 35.0 -300.0V1.0ZM11.0 -132.0 8.0 -161.0H166.0V-132.0Z"/></g>
<g fill="red" transform="translate(1200 800) scale(0.1 -0.1)"><path d="M0.0 0.0V-279.0H122.0V0.0ZM29.0 -70.0V-179.0H214.0V-70.0Z"/></g>
<g fill="black" opacity=".8" transform="translate(1200 800) scale(0.1 -0.1)"><path d="M0.0 0.0 1.0 -279.0 117.0 -278.0 118.0 1.0ZM31.0 -69.0V-180.0H214.0V-70.0Z"/></g>
<g fill="red" transform="translate(1300 800) scale(0.1 -0.1)"><path d="M0.0 0.0V-591.0L29.0 -580.0V0.0ZM440.0 30.0V1.0H736.0V30.0Z"/></g>
<g fill="black" opacity=".8" transform="translate(1300 800) scale(0.1 -0.1)"><path d="M0.0 0.0 -2.0 -590.0 32.0 -583.0 35.0 4.0ZM440.0 30.0 436.0 -1.0 734.0 1.0 736.0 33.0Z"/></g>
<g fill="red" transform="translate(1400 800) scale(0.1 -0.1)"><path d="M0.0 0.0V-587.0L131.0 -554.0V0.0ZM506.0 75.0V-26.0H808.0V75.0Z"/></g>
<g fill="black" opacity=".8" transform="translate(1400 800) scale(0.1 -0.1)"><path d="M0.0 0.0 -1.0 -576.0 127.0 -565.0 130.0 3.0ZM507.0 73.0 506.0 -25.0 808.0 -23.0 809.0 73.0Z"/></g>
<g fill="red" transform="translate(1500 800) scale(0.1 -0.1)"><path d="M0.0 0.0 4.0 -28.0 161.0 -13.0 158.0 15.0ZM168.0 224.0V194.0H429.0V224.0Z"/></g>
<g fill="black" opacity=".8" transform="translate(1500 800) scale(0.1 -0.1)"><path d="M0.0 0.0 7.0 -22.0 138.0 -13.0 133.0 8.0ZM175.0 222.0 179.0 206.0 434.0 199.0 426.0 214.0Z"/></g>
<g fill="red" transform="translate(1600 800) scale(0.1 -0.1)"><path d="M0.0 0.0 11.0 -102.0 161.0 -87.0 151.0 13.0ZM155.0 273.0V175.0H439.0V273.0Z"/></g>
<g fill="black" opacity=".8" transform="translate(1600 800) scale(0.1 -0.1)"><path d="M0.0 0.0 9.0 -104.0 172.0 -91.0 166.0 8.0ZM146.0 280.0 151.0 176.0 437.0 171.0 432.0 273.0Z"/></g>
<g fill="red" transform="translate(100 900) scale(0.1 -0.1)"><path d="M0.0 0.0V-393.0H29.0V0.0ZM16.0 -170.0V-199.0H361.0V-170.0Z"/></g>
<g fill="black" opacity=".8" transform="translate(100 900) scale(0.1 -0.1)"><path d="M0.0 0.0 1.0 -394.0H29.0V-0.0ZM16.0 -170.0 15.0 -197.0H361.0L360.0 -172.0Z"/></g>
<g fill="red" transform="translate(200 900) scale(0.1 -0.1)"><path d="M0.0 0.0V-378.0H142.0V0.0ZM66.0 -83.0V-209.0H418.0V-83.0Z"/></g>
<g fill="black" opacity=".8" transform="translate(200 900) scale(0.1 -0.1)"><path d="M0.0 0.0V-378.0H139.0L141.0 -0.0ZM66.0 -82.0 67.0 -210.0 418.0 -211.0 417.0 -83.0Z"/></g>
<g fill="red" transform="translate(300 900) scale(0.1 -0.1)"><path d="M0.0 0.0V-190.0H29.0V0.0ZM9.0 -77.0V-107.0H216.0V-77.0Z"/></g>
<g fill="black" opacity=".8" transform="translate(300 900) scale(0.1 -0.1)"><path d="M0.0 0.0 1.0 -191.0H31.0V-0.0ZM7.0 -78.0V-102.0L216.0 -104.0L214.0 -80.0Z"/></g>
<g fill="red" transform="translate(400 900) scale(0.1 -0.1)"><path d="M0.0 0.0V-203.0H125.0V0.0ZM59.0 -54.0V-141.0H276.0V-54.0Z"/></g>
<g fill="black" opacity=".8" transform="translate(400 900) scale(0.1 -0.1)"><path d="M0.0 0.0V-203.0L119.0 -202.0L121.0 1.0ZM59.0 -49.0 61.0 -144.0 277.0 -146.0 275.0 -52.0Z"/></g>
<g fill="red" transform="translate(500 900) scale(0.1 -0.1)"><path d="M0.0 0.0V-296.0H29.0V0.0ZM9.0 -104.0V-133.0H278.0V-104.0Z"/></g>
<g fill="black" opacity=".8" transform="translate(500 900) scale(0.1 -0.1)"><path d="M0.0 0.0 1.0 -295.0 28.0 -296.0V-1.0ZM11.0 -103.0 7.0 -136.0 277.0 -134.0 279.0 -102.0Z"/></g>
<g fill="red" transform="translate(600 900) scale(0.1 -0.1)"><path d="M0.0 0.0V-293.0H141.0V0.0ZM77.0 -55.0V-185.0H366.0V-55.0Z"/></g>
<g fill="black" opacity=".8" transform="translate(600 900) scale(0.1 -0.1)"><path d="M0.0 0.0V-294.0H143.0L144.0 -0.0ZM77.0 -59.0 76.0 -181.0 365.0 -179.0 366.0 -59.0Z"/></g>
<g fill="red" transform="translate(700 900) scale(0.1 -0.1)"><path d="M0.0 0.0V-274.0H29.0V0.0ZM12.0 -106.0V-136.0H149.0V-106.0Z"/></g>
<g fill="black" opacity=".8" transform="translate(700 900) scale(0.1 -0.1)"><path d="M0.0 0.0 1.0 -274.0H28.0L29.0 -0.0ZM13.0 -106.0 11.0 -136.0 149.0 -135.0V-106.0Z"/></g>
<g fill="red" transform="translate(800 900) scale(0.1 -0.1)"><path d="M0.0 0.0V-248.0H97.0V0.0ZM39.0 -55.0V-150.0H156.0V-55.0Z"/></g>
<g fill="black" opacity=".8" transform="translate(800 900) scale(0.1 -0.1)"><path d="M0.0 0.0 1.0 -248.0H96.0L98.0 0.0ZM39.0 -55.0V-149.0H156.0L155.0 -56.0Z"/></g>
<g fill="red" transform="translate(900 900) scale(0.1 -0.1)"><path d="M0.0 0.0V-494.0H30.0V0.0ZM16.0 -211.0V-241.0H312.0V-211.0Z"/></g>
<g fill="black" opacity=".8" transform="translate(900 900) scale(0.1 -0.1)"><path d="M0.0 0.0 1.0 -497.0 38.0 -494.0V2.0ZM14.0 -211.0 11.0 -242.0 310.0 -240.0 311.0 -210.0Z"/></g>
<g fill="red" transform="translate(1000 900) scale(0.1 -0.1)"><path d="M0.0 0.0V-527.0H150.0V0.0ZM32.0 -162.0V-299.0H375.0V-162.0Z"/></g>
<g fill="black" opacity=".8" transform="translate(1000 900) scale(0.1 -0.1)"><path d="M0.0 0.0 1.0 -527.0 143.0 -525.0 144.0 2.0ZM35.0 -162.0 34.0 -301.0 376.0 -299.0V-162.0Z"/></g>
<g fill="red" transform="translate(1100 900) scale(0.1 -0.1)"><path d="M0.0 0.0V-185.0H29.0V0.0ZM13.0 -72.0V-102.0H252.0V-72.0Z"/></g>
<g fill="black" opacity=".8" transform="translate(1100 900) scale(0.1 -0.1)"><path d="M0.0 0.0 1.0 -187.0 32.0 -186.0V0.0ZM11.0 -73.0 10.0 -97.0 252.0 -99.0 250.0 -75.0Z"/></g>
<g fill="red" transform="translate(1200 900) scale(0.1 -0.1)"><path d="M0.0 0.0V-225.0H131.0V0.0ZM66.0 -45.0V-139.0H332.0V-45.0Z"/></g>
<g fill="black" opacity=".8" transform="translate(1200 900) scale(0.1 -0.1)"><path d="M0.0 0.0V-225.0L124.0 -224.0L126.0 1.0ZM67.0 -40.0 68.0 -143.0 333.0 -144.0 331.0 -43.0Z"/></g>
<g fill="red" transform="translate(1300 900) scale(0.1 -0.1)"><path d="M0.0 0.0V-243.0H29.0V0.0ZM260.0 -102.0V-131.0H679.0V-102.0Z"/></g>
<g fill="black" opacity=".8" transform="translate(1300 900) scale(0.1 -0.1)"><path d="M0.0 0.0 1.0 -245.0 36.0 -242.0V1.0ZM260.0 -101.0 254.0 -136.0 676.0 -132.0 679.0 -98.0Z"/></g>
<g fill="red" transform="translate(1400 900) scale(0.1 -0.1)"><path d="M0.0 0.0V-275.0H144.0V0.0ZM297.0 -73.0V-205.0H730.0V-73.0Z"/></g>
<g fill="black" opacity=".8" transform="translate(1400 900) scale(0.1 -0.1)"><path d="M0.0 0.0 1.0 -276.0 140.0 -273.0 141.0 1.0ZM300.0 -77.0 298.0 -203.0 729.0 -200.0 731.0 -75.0Z"/></g>
<g fill="red" transform="translate(1500 900) scale(0.1 -0.1)"><path d="M0.0 0.0V-234.0H29.0V0.0ZM186.0 -307.0V-336.0H517.0V-307.0Z"/></g>
<g fill="black" opacity=".8" transform="translate(1500 900) scale(0.1 -0.1)"><path d="M0.0 0.0V-233.0L24.0 -235.0V-2.0ZM187.0 -308.0 188.0 -330.0 519.0 -333.0 515.0 -312.0Z"/></g>
<g fill="red" transform="translate(1600 900) scale(0.1 -0.1)"><path d="M0.0 0.0V-266.0H142.0V0.0ZM248.0 -283.0V-410.0H582.0V-283.0Z"/></g>
<g fill="black" opacity=".8" transform="translate(1600 900) scale(0.1 -0.1)"><path d="M0.0 0.0V-264.0L142.0 -269.0L144.0 -1.0ZM245.0 -279.0 248.0 -412.0 582.0 -415.0 579.0 -282.0Z"/></g>
<g fill="red" transform="translate(100 1000) scale(0.1 -0.1)"><path d="M0.0 0.0V-199.0H29.0V0.0ZM338.0 0.0V-199.0H367.0V0.0Z"/></g>
<g fill="black" opacity=".8" transform="translate(100 1000) scale(0.1 -0.1)"><path d="M0.0 0.0 1.0 -200.0H30.0L31.0 0.0ZM337.0 -1.0 336.0 -195.0 367.0 -197.0 365.0 -2.0Z"/></g>
<g fill="red" transform="translate(200 1000) scale(0.1 -0.1)"><path d="M0.0 0.0V-221.0H144.0V0.0ZM340.0 0.0V-225.0H485.0V0.0Z"/></g>
<g fill="black" opacity=".8" transform="translate(200 1000) scale(0.1 -0.1)"><path d="M0.0 0.0V-221.0L140.0 -220.0L141.0 0.0ZM340.0 3.0 342.0 -227.0 486.0 -228.0 484.0 1.0Z"/></g>
<g fill="red" transform="translate(300 1000) scale(0.1 -0.1)"><path d="M0.0 0.0V-203.0H31.0V0.0ZM237.0 -81.0V-111.0H647.0V-81.0Z"/></g>
<g fill="black" opacity=".8" transform="translate(300 1000) scale(0.1 -0.1)"><path d="M0.0 0.0 2.0 -203.0 29.0 -202.0V-1.0ZM239.0 -81.0 236.0 -112.0 646.0 -111.0 647.0 -80.0Z"/></g>
<g fill="red" transform="translate(400 1000) scale(0.1 -0.1)"><path d="M0.0 0.0V-221.0H141.0V0.0ZM305.0 -50.0V-173.0H729.0V-50.0Z"/></g>
<g fill="black" opacity=".8" transform="translate(400 1000) scale(0.1 -0.1)"><path d="M0.0 0.0 1.0 -223.0 142.0 -221.0 144.0 -0.0ZM305.0 -52.0 304.0 -170.0H728.0V-52.0Z"/></g>
<g fill="red" transform="translate(500 1000) scale(0.1 -0.1)"><path d="M0.0 0.0V-199.0H29.0V0.0ZM206.0 -89.0V-118.0H621.0V-89.0Z"/></g>
<g fill="black" opacity=".8" transform="translate(500 1000) scale(0.1 -0.1)"><path d="M0.0 0.0 1.0 -200.0 33.0 -199.0V0.0ZM206.0 -89.0 202.0 -119.0 620.0 -118.0V-88.0Z"/></g>
<g fill="red" transform="translate(600 1000) scale(0.1 -0.1)"><path d="M0.0 0.0V-212.0H144.0V0.0ZM253.0 -49.0V-169.0H690.0V-49.0Z"/></g>
<g fill="black" opacity=".8" transform="translate(600 1000) scale(0.1 -0.1)"><path d="M0.0 0.0 1.0 -213.0 140.0 -211.0 142.0 1.0ZM255.0 -50.0 254.0 -169.0 690.0 -168.0V-50.0Z"/></g>
<g fill="red" transform="translate(700 1000) scale(0.1 -0.1)"><path d="M0.0 0.0V-203.0H29.0V0.0ZM308.0 -261.0V-291.0H564.0V-261.0Z"/></g>
<g fill="black" opacity=".8" transform="translate(700 1000) scale(0.1 -0.1)"><path d="M0.0 0.0V-204.0H31.0L33.0 -0.0ZM306.0 -262.0V-287.0L564.0 -289.0L563.0 -264.0Z"/></g>
<g fill="red" transform="translate(800 1000) scale(0.1 -0.1)"><path d="M0.0 0.0V-221.0H144.0V0.0ZM357.0 -260.0V-378.0H604.0V-260.0Z"/></g>
<g fill="black" opacity=".8" transform="translate(800 1000) scale(0.1 -0.1)"><path d="M0.0 0.0V-219.0L139.0 -221.0L141.0 -0.0ZM357.0 -256.0 358.0 -381.0 604.0 -382.0 603.0 -259.0Z"/></g>
<g fill="red" transform="translate(900 1000) scale(0.1 -0.1)"><path d="M0.0 0.0V-502.0H29.0V0.0ZM13.0 -215.0V-245.0H292.0V-215.0Z"/></g>
<g fill="black" opacity=".8" transform="translate(900 1000) scale(0.1 -0.1)"><path d="M0.0 0.0 1.0 -502.0H28.0V-1.0ZM14.0 -215.0 12.0 -245.0H292.0V-215.0Z"/></g>
<g fill="red" transform="translate(1000 1000) scale(0.1 -0.1)"><path d="M0.0 0.0V-527.0H143.0V0.0ZM67.0 -184.0V-318.0H360.0V-184.0Z"/></g>
<g fill="black" opacity=".8" transform="translate(1000 1000) scale(0.1 -0.1)"><path d="M0.0 0.0V-528.0H143.0L145.0 -0.0ZM67.0 -185.0V-317.0L360.0 -316.0L359.0 -186.0Z"/></g>
<g fill="red" transform="translate(1100 1000) scale(0.1 -0.1)"><path d="M0.0 0.0V-446.0H29.0V0.0ZM10.0 -187.0V-215.0H235.0V-187.0Z"/></g>
<g fill="black" opacity=".8" transform="translate(1100 1000) scale(0.1 -0.1)"><path d="M0.0 0.0 1.0 -447.0 32.0 -446.0V0.0ZM10.0 -187.0 7.0 -215.0 234.0 -214.0V-187.0Z"/></g>
<g fill="red" transform="translate(1200 1000) scale(0.1 -0.1)"><path d="M0.0 0.0V-459.0H138.0V0.0ZM54.0 -143.0V-267.0H289.0V-143.0Z"/></g>
<g fill="black" opacity=".8" transform="translate(1200 1000) scale(0.1 -0.1)"><path d="M0.0 0.0V-459.0H135.0L136.0 1.0ZM55.0 -143.0V-267.0H289.0V-144.0Z"/></g>
<g fill="red" transform="translate(1300 1000) scale(0.1 -0.1)"><path d="M0.0 0.0V-384.0H30.0V0.0ZM14.0 -160.0V-189.0H147.0V-160.0Z"/></g>
<g fill="black" opacity=".8" transform="translate(1300 1000) scale(0.1 -0.1)"><path d="M0.0 0.0 1.0 -385.0 31.0 -384.0V0.0ZM14.0 -160.0 11.0 -189.0H146.0L147.0 -160.0Z"/></g>
<g fill="red" transform="translate(1400 1000) scale(0.1 -0.1)"><path d="M0.0 0.0V-387.0H122.0V0.0ZM48.0 -107.0V-224.0H209.0V-107.0Z"/></g>
<g fill="black" opacity=".8" transform="translate(1400 1000) scale(0.1 -0.1)"><path d="M0.0 0.0 1.0 -387.0H120.0L121.0 1.0ZM49.0 -108.0 48.0 -223.0H209.0V-108.0Z"/></g>
<g fill="red" transform="translate(1500 1000) scale(0.1 -0.1)"><path d="M0.0 0.0V-851.0H29.0V0.0ZM17.0 -339.0V-368.0H252.0V-339.0Z"/></g>
<g fill="black" opacity=".8" transform="translate(1500 1000) scale(0.1 -0.1)"><path d="M0.0 0.0 2.0 -851.0H26.0L25.0 -1.0ZM17.0 -340.0V-364.0L253.0 -366.0L251.0 -342.0Z"/></g>
<g fill="red" transform="translate(1600 1000) scale(0.1 -0.1)"><path d="M0.0 0.0V-837.0H150.0V0.0ZM37.0 -296.0V-436.0H366.0V-296.0Z"/></g>
<g fill="black" opacity=".8" transform="translate(1600 1000) scale(0.1 -0.1)"><path d="M0.0 0.0V-838.0L150.0 -837.0L152.0 -0.0ZM36.0 -295.0 37.0 -436.0 366.0 -437.0 364.0 -297.0Z"/></g>
<g fill="red" transform="translate(100 1100) scale(0.1 -0.1)"><path d="M0.0 0.0V-287.0H31.0V0.0ZM9.0 -109.0V-138.0H442.0V-109.0Z"/></g>
<g fill="black" opacity=".8" transform="translate(100 1100) scale(0.1 -0.1)"><path d="M0.0 0.0 1.0 -287.0H30.0L29.0 -1.0ZM10.0 -109.0 8.0 -137.0H442.0L441.0 -110.0Z"/></g>
<g fill="red" transform="translate(200 1100) scale(0.1 -0.1)"><path d="M0.0 0.0V-320.0H150.0V0.0ZM83.0 -63.0V-190.0H516.0V-63.0Z"/></g>
<g fill="black" opacity=".8" transform="translate(200 1100) scale(0.1 -0.1)"><path d="M0.0 0.0 1.0 -321.0 150.0 -320.0 151.0 -0.0ZM82.0 -63.0 83.0 -189.0H516.0L515.0 -64.0Z"/></g>
<g fill="red" transform="translate(300 1100) scale(0.1 -0.1)"><path d="M0.0 0.0V-502.0H29.0V0.0ZM13.0 -215.0V-245.0H291.0V-215.0Z"/></g>
<g fill="black" opacity=".8" transform="translate(300 1100) scale(0.1 -0.1)"><path d="M0.0 0.0 1.0 -501.0 25.0 -502.0V-1.0ZM15.0 -215.0 13.0 -245.0H291.0V-215.0Z"/></g>
<g fill="red" transform="translate(400 1100) scale(0.1 -0.1)"><path d="M0.0 0.0V-527.0H135.0V0.0ZM72.0 -176.0V-310.0H354.0V-176.0Z"/></g>
<g fill="black" opacity=".8" transform="translate(400 1100) scale(0.1 -0.1)"><path d="M0.0 0.0 1.0 -528.0H137.0L139.0 -1.0ZM71.0 -178.0V-307.0H353.0V-179.0Z"/></g>
<g fill="red" transform="translate(500 1100) scale(0.1 -0.1)"><path d="M0.0 0.0V-335.0H29.0V0.0ZM414.0 -105.0V-134.0H675.0V-105.0Z"/></g>
<g fill="black" opacity=".8" transform="translate(500 1100) scale(0.1 -0.1)"><path d="M0.0 0.0 1.0 -335.0 31.0 -334.0V-0.0ZM416.0 -104.0 411.0 -138.0 673.0 -135.0 675.0 -102.0Z"/></g>
<g fill="red" transform="translate(600 1100) scale(0.1 -0.1)"><path d="M0.0 0.0V-383.0H131.0V0.0ZM493.0 -65.0V-195.0H750.0V-65.0Z"/></g>
<g fill="black" opacity=".8" transform="translate(600 1100) scale(0.1 -0.1)"><path d="M0.0 0.0 1.0 -384.0 131.0 -383.0 132.0 0.0ZM494.0 -69.0 492.0 -191.0 749.0 -190.0 750.0 -68.0Z"/></g>
<g fill="red" transform="translate(700 1100) scale(0.1 -0.1)"><path d="M0.0 0.0V-353.0H29.0V0.0ZM434.0 -188.0V-217.0H691.0V-188.0Z"/></g>
<g fill="black" opacity=".8" transform="translate(700 1100) scale(0.1 -0.1)"><path d="M0.0 0.0 1.0 -353.0H29.0V-0.0ZM435.0 -188.0 433.0 -216.0H691.0L690.0 -189.0Z"/></g>
<g fill="red" transform="translate(800 1100) scale(0.1 -0.1)"><path d="M0.0 0.0V-356.0H133.0V0.0ZM496.0 -121.0V-248.0H771.0V-121.0Z"/></g>
<g fill="black" opacity=".8" transform="translate(800 1100) scale(0.1 -0.1)"><path d="M0.0 0.0V-357.0H132.0L133.0 -0.0ZM496.0 -121.0V-247.0L771.0 -248.0L770.0 -122.0Z"/></g>
<g fill="red" transform="translate(900 1100) scale(0.1 -0.1)"><path d="M0.0 0.0V-393.0H30.0V0.0ZM11.0 -173.0V-203.0H245.0V-173.0Z"/></g>
<g fill="black" opacity=".8" transform="translate(900 1100) scale(0.1 -0.1)"><path d="M0.0 0.0 1.0 -393.0H30.0L29.0 -0.0ZM12.0 -173.0 10.0 -201.0 245.0 -202.0 244.0 -174.0Z"/></g>
<g fill="red" transform="translate(1000 1100) scale(0.1 -0.1)"><path d="M0.0 0.0V-414.0H137.0V0.0ZM68.0 -108.0V-234.0H325.0V-108.0Z"/></g>
<g fill="black" opacity=".8" transform="translate(1000 1100) scale(0.1 -0.1)"><path d="M0.0 0.0V-414.0L135.0 -415.0L137.0 0.0ZM68.0 -107.0V-234.0L325.0 -235.0L324.0 -108.0Z"/></g>
<g fill="red" transform="translate(1100 1100) scale(0.1 -0.1)"><path d="M0.0 0.0V-194.0H29.0V0.0ZM384.0 -176.0V-205.0H632.0V-176.0Z"/></g>
<g fill="black" opacity=".8" transform="translate(1100 1100) scale(0.1 -0.1)"><path d="M0.0 0.0 1.0 -192.0 24.0 -193.0 23.0 -1.0ZM388.0 -175.0 384.0 -209.0 631.0 -207.0 633.0 -174.0Z"/></g>
<g fill="red" transform="translate(1200 1100) scale(0.1 -0.1)"><path d="M0.0 0.0V-257.0H96.0V0.0ZM436.0 -143.0V-272.0H684.0V-143.0Z"/></g>
<g fill="black" opacity=".8" transform="translate(1200 1100) scale(0.1 -0.1)"><path d="M0.0 0.0 1.0 -258.0 103.0 -260.0V-1.0ZM434.0 -149.0 433.0 -266.0 682.0 -264.0 683.0 -148.0Z"/></g>
<g fill="red" transform="translate(1300 1100) scale(0.1 -0.1)"><path d="M0.0 0.0V-502.0H29.0V0.0ZM18.0 -215.0V-245.0H297.0V-215.0Z"/></g>
<g fill="black" opacity=".8" transform="translate(1300 1100) scale(0.1 -0.1)"><path d="M0.0 0.0 1.0 -501.0 26.0 -502.0V-1.0ZM20.0 -215.0 17.0 -244.0H297.0V-216.0Z"/></g>
<g fill="red" transform="translate(1400 1100) scale(0.1 -0.1)"><path d="M0.0 0.0V-527.0H145.0V0.0ZM82.0 -184.0V-318.0H379.0V-184.0Z"/></g>
<g fill="black" opacity=".8" transform="translate(1400 1100) scale(0.1 -0.1)"><path d="M0.0 0.0V-528.0H146.0L148.0 -1.0ZM81.0 -185.0V-316.0H378.0V-186.0Z"/></g>
<g fill="red" transform="translate(1500 1100) scale(0.1 -0.1)"><path d="M0.0 0.0V-481.0H30.0V0.0ZM19.0 -217.0V-247.0H329.0V-217.0Z"/></g>
<g fill="black" opacity=".8" transform="translate(1500 1100) scale(0.1 -0.1)"><path d="M0.0 0.0 1.0 -481.0H30.0L31.0 -0.0ZM20.0 -217.0 17.0 -247.0 328.0 -246.0V-217.0Z"/></g>
<g fill="red" transform="translate(1600 1100) scale(0.1 -0.1)"><path d="M0.0 0.0V-527.0H144.0V0.0ZM74.0 -180.0V-317.0H385.0V-180.0Z"/></g>
<g fill="black" opacity=".8" transform="translate(1600 1100) scale(0.1 -0.1)"><path d="M0.0 0.0 1.0 -527.0H143.0L144.0 0.0ZM74.0 -181.0V-316.0H385.0L384.0 -181.0Z"/></g>
<g fill="red" transform="translate(100 1200) scale(0.1 -0.1)"><path d="M0.0 0.0V-194.0H31.0V0.0ZM17.0 -73.0V-103.0H191.0V-73.0Z"/></g>
<g fill="black" opacity=".8" transform="translate(100 1200) scale(0.1 -0.1)"><path d="M0.0 0.0 1.0 -194.0 30.0 -195.0V-1.0ZM17.0 -74.0 16.0 -99.0 191.0 -101.0 190.0 -76.0Z"/></g>
<g fill="red" transform="translate(200 1200) scale(0.1 -0.1)"><path d="M0.0 0.0V-198.0H114.0V0.0ZM72.0 -46.0V-133.0H229.0V-46.0Z"/></g>
<g fill="black" opacity=".8" transform="translate(200 1200) scale(0.1 -0.1)"><path d="M0.0 0.0 1.0 -198.0H112.0L113.0 0.0ZM71.0 -43.0 73.0 -134.0 229.0 -136.0 228.0 -45.0Z"/></g>
<g fill="red" transform="translate(300 1200) scale(0.1 -0.1)"><path d="M0.0 0.0V-450.0H30.0V0.0ZM11.0 -197.0V-226.0H237.0V-197.0Z"/></g>
<g fill="black" opacity=".8" transform="translate(300 1200) scale(0.1 -0.1)"><path d="M0.0 0.0V-451.0L34.0 -450.0V1.0ZM11.0 -197.0 7.0 -227.0 236.0 -225.0V-196.0Z"/></g>
<g fill="red" transform="translate(400 1200) scale(0.1 -0.1)"><path d="M0.0 0.0V-495.0H139.0V0.0ZM54.0 -152.0V-284.0H293.0V-152.0Z"/></g>
<g fill="black" opacity=".8" transform="translate(400 1200) scale(0.1 -0.1)"><path d="M0.0 0.0 1.0 -495.0H135.0L137.0 1.0ZM56.0 -153.0 55.0 -284.0 293.0 -283.0V-153.0Z"/></g>
<g fill="red" transform="translate(500 1200) scale(0.1 -0.1)"><path d="M0.0 0.0V-273.0H30.0V0.0ZM12.0 -106.0V-135.0H132.0V-106.0Z"/></g>
<g fill="black" opacity=".8" transform="translate(500 1200) scale(0.1 -0.1)"><path d="M0.0 0.0 1.0 -272.0 26.0 -273.0V-1.0ZM14.0 -106.0 13.0 -133.0 132.0 -134.0 131.0 -108.0Z"/></g>
<g fill="red" transform="translate(600 1200) scale(0.1 -0.1)"><path d="M0.0 0.0V-234.0H89.0V0.0ZM47.0 -57.0V-143.0H129.0V-57.0Z"/></g>
<g fill="black" opacity=".8" transform="translate(600 1200) scale(0.1 -0.1)"><path d="M0.0 0.0 1.0 -235.0H91.0L92.0 -1.0ZM45.0 -56.0 46.0 -141.0 129.0 -143.0 127.0 -59.0Z"/></g>
<g fill="red" transform="translate(700 1200) scale(0.1 -0.1)"><path d="M0.0 0.0V-269.0H30.0V0.0ZM277.0 -216.0V-246.0H613.0V-216.0Z"/></g>
<g fill="black" opacity=".8" transform="translate(700 1200) scale(0.1 -0.1)"><path d="M0.0 0.0V-267.0L19.0 -271.0L20.0 -3.0ZM277.0 -219.0 283.0 -230.0 618.0 -239.0 609.0 -228.0Z"/></g>
<g fill="red" transform="translate(800 1200) scale(0.1 -0.1)"><path d="M0.0 0.0V-324.0H133.0V0.0ZM397.0 -202.0V-289.0H668.0V-202.0Z"/></g>
<g fill="black" opacity=".8" transform="translate(800 1200) scale(0.1 -0.1)"><path d="M0.0 0.0V-322.0L132.0 -326.0L135.0 -3.0ZM391.0 -190.0 397.0 -296.0 669.0 -303.0 663.0 -197.0Z"/></g>
<g fill="red" transform="translate(900 1200) scale(0.1 -0.1)"><path d="M0.0 0.0V-282.0H29.0V0.0ZM14.0 -105.0V-134.0H227.0V-105.0Z"/></g>
<g fill="black" opacity=".8" transform="translate(900 1200) scale(0.1 -0.1)"><path d="M0.0 0.0 1.0 -282.0H29.0L30.0 -0.0ZM15.0 -104.0 12.0 -136.0 226.0 -134.0 227.0 -103.0Z"/></g>
<g fill="red" transform="translate(1000 1200) scale(0.1 -0.1)"><path d="M0.0 0.0V-306.0H128.0V0.0ZM76.0 -72.0V-190.0H289.0V-72.0Z"/></g>
<g fill="black" opacity=".8" transform="translate(1000 1200) scale(0.1 -0.1)"><path d="M0.0 0.0 1.0 -307.0 128.0 -306.0 129.0 0.0ZM76.0 -74.0V-187.0L288.0 -186.0L289.0 -74.0Z"/></g>
<g fill="red" transform="translate(1100 1200) scale(0.1 -0.1)"><path d="M0.0 0.0H307.0V-266.0H0.0ZM587.0 -159.0V-188.0H835.0V-159.0Z"/></g>
<g fill="black" opacity=".8" transform="translate(1100 1200) scale(0.1 -0.1)"><path d="M0.0 0.0H313.0L308.0 -266.0H-5.0ZM588.0 -159.0 586.0 -188.0H835.0L834.0 -159.0Z"/></g>
<g fill="red" transform="translate(1200 1200) scale(0.1 -0.1)"><path d="M0.0 0.0H225.0V-205.0H0.0ZM569.0 -79.0V-213.0H808.0V-79.0Z"/></g>
<g fill="black" opacity=".8" transform="translate(1200 1200) scale(0.1 -0.1)"><path d="M0.0 0.0 223.0 -3.0 225.0 -204.0 4.0 -200.0ZM568.0 -80.0V-211.0H807.0V-81.0Z"/></g>
<g fill="red" transform="translate(1300 1200) scale(0.1 -0.1)"><path d="M0.0 0.0V-662.0H30.0V0.0ZM7.0 -314.0V-343.0H317.0V-314.0Z"/></g>
<g fill="black" opacity=".8" transform="translate(1300 1200) scale(0.1 -0.1)"><path d="M0.0 0.0 1.0 -663.0H29.0V-1.0ZM6.0 -315.0 7.0 -337.0 318.0 -339.0 315.0 -319.0Z"/></g>
<g fill="red" transform="translate(1400 1200) scale(0.1 -0.1)"><path d="M0.0 0.0V-693.0H150.0V0.0ZM54.0 -262.0V-395.0H374.0V-262.0Z"/></g>
<g fill="black" opacity=".8" transform="translate(1400 1200) scale(0.1 -0.1)"><path d="M0.0 0.0V-692.0L146.0 -694.0L148.0 -0.0ZM53.0 -257.0 55.0 -399.0 375.0 -401.0 372.0 -260.0Z"/></g>
<g fill="red" transform="translate(1500 1200) scale(0.1 -0.1)"><path d="M0.0 0.0V-423.0H29.0V0.0ZM13.0 -176.0V-206.0H344.0V-176.0Z"/></g>
<g fill="black" opacity=".8" transform="translate(1500 1200) scale(0.1 -0.1)"><path d="M0.0 0.0 1.0 -422.0 26.0 -423.0V-1.0ZM15.0 -176.0 12.0 -208.0 343.0 -207.0 344.0 -175.0Z"/></g>
<g fill="red" transform="translate(1600 1200) scale(0.1 -0.1)"><path d="M0.0 0.0V-414.0H142.0V0.0ZM70.0 -121.0V-258.0H412.0V-121.0Z"/></g>
<g fill="black" opacity=".8" transform="translate(1600 1200) scale(0.1 -0.1)"><path d="M0.0 0.0V-415.0H144.0L146.0 -1.0ZM69.0 -124.0V-254.0L411.0 -253.0V-124.0Z"/></g>
<g fill="red" transform="translate(100 1300) scale(0.1 -0.1)"><path d="M0.0 0.0V-458.0H30.0V0.0ZM11.0 -190.0V-219.0H272.0V-190.0Z"/></g>
<g fill="black" opacity=".8" transform="translate(100 1300) scale(0.1 -0.1)"><path d="M0.0 0.0 1.0 -459.0 33.0 -458.0V0.0ZM11.0 -189.0 7.0 -221.0 271.0 -219.0 272.0 -188.0Z"/></g>
<g fill="red" transform="translate(200 1300) scale(0.1 -0.1)"><path d="M0.0 0.0V-527.0H147.0V0.0ZM63.0 -165.0V-303.0H356.0V-165.0Z"/></g>
<g fill="black" opacity=".8" transform="translate(200 1300) scale(0.1 -0.1)"><path d="M0.0 0.0 1.0 -527.0H144.0L146.0 1.0ZM65.0 -167.0 64.0 -302.0 356.0 -301.0V-167.0Z"/></g>
<g fill="red" transform="translate(300 1300) scale(0.1 -0.1)"><path d="M0.0 0.0V-191.0H29.0V0.0ZM17.0 -60.0V-90.0H185.0V-60.0Z"/></g>
<g fill="black" opacity=".8" transform="translate(300 1300) scale(0.1 -0.1)"><path d="M0.0 0.0 1.0 -193.0 32.0 -192.0V0.0ZM15.0 -61.0 14.0 -87.0 185.0 -88.0 184.0 -62.0Z"/></g>
<g fill="red" transform="translate(400 1300) scale(0.1 -0.1)"><path d="M0.0 0.0V-167.0H115.0V0.0ZM48.0 -30.0V-112.0H224.0V-30.0Z"/></g>
<g fill="black" opacity=".8" transform="translate(400 1300) scale(0.1 -0.1)"><path d="M0.0 0.0 1.0 -167.0 110.0 -166.0 111.0 1.0ZM49.0 -26.0 50.0 -114.0 225.0 -116.0 223.0 -29.0Z"/></g>
<g fill="red" transform="translate(500 1300) scale(0.1 -0.1)"><path d="M0.0 0.0V-670.0H30.0V0.0ZM438.0 -82.0V-111.0H737.0V-82.0Z"/></g>
<g fill="black" opacity=".8" transform="translate(500 1300) scale(0.1 -0.1)"><path d="M0.0 0.0 1.0 -672.0 34.0 -670.0V-0.0ZM436.0 -83.0 435.0 -108.0 737.0 -109.0 735.0 -84.0Z"/></g>
<g fill="red" transform="translate(600 1300) scale(0.1 -0.1)"><path d="M0.0 0.0V-671.0H139.0V0.0ZM504.0 -43.0V-144.0H799.0V-43.0Z"/></g>
<g fill="black" opacity=".8" transform="translate(600 1300) scale(0.1 -0.1)"><path d="M0.0 0.0 1.0 -674.0 134.0 -667.0 135.0 0.0ZM505.0 -40.0 506.0 -147.0 800.0 -148.0 799.0 -42.0Z"/></g>
<g fill="red" transform="translate(700 1300) scale(0.1 -0.1)"><path d="M0.0 0.0V-635.0H30.0V0.0ZM432.0 -73.0V-102.0H699.0V-73.0Z"/></g>
<g fill="black" opacity=".8" transform="translate(700 1300) scale(0.1 -0.1)"><path d="M0.0 0.0 2.0 -635.0H25.0V-2.0ZM433.0 -74.0V-96.0L700.0 -99.0L697.0 -77.0Z"/></g>
<g fill="red" transform="translate(800 1300) scale(0.1 -0.1)"><path d="M0.0 0.0V-653.0H132.0V0.0ZM535.0 -30.0V-128.0H807.0V-30.0Z"/></g>
<g fill="black" opacity=".8" transform="translate(800 1300) scale(0.1 -0.1)"><path d="M0.0 0.0 1.0 -656.0 132.0 -651.0 134.0 -1.0ZM532.0 -26.0 535.0 -129.0 807.0 -132.0 805.0 -30.0Z"/></g>
<g fill="red" transform="translate(900 1300) scale(0.1 -0.1)"><path d="M0.0 0.0V-679.0H29.0V0.0ZM335.0 -65.0V-95.0H509.0V-65.0Z"/></g>
<g fill="black" opacity=".8" transform="translate(900 1300) scale(0.1 -0.1)"><path d="M0.0 0.0 2.0 -678.0H22.0L21.0 -3.0ZM337.0 -66.0V-90.0L510.0 -93.0L508.0 -69.0Z"/></g>
<g fill="red" transform="translate(1000 1300) scale(0.1 -0.1)"><path d="M0.0 0.0V-671.0H112.0V0.0ZM430.0 -31.0V-118.0H587.0V-31.0Z"/></g>
<g fill="black" opacity=".8" transform="translate(1000 1300) scale(0.1 -0.1)"><path d="M0.0 0.0 1.0 -674.0 115.0 -670.0 116.0 -2.0ZM426.0 -29.0 428.0 -117.0 587.0 -120.0 584.0 -32.0Z"/></g>
<g fill="red" transform="translate(1100 1300) scale(0.1 -0.1)"><path d="M0.0 0.0V-693.0H30.0V0.0ZM21.0 -300.0V-329.0H396.0V-300.0Z"/></g>
<g fill="black" opacity=".8" transform="translate(1100 1300) scale(0.1 -0.1)"><path d="M0.0 0.0 1.0 -691.0 21.0 -693.0 20.0 -3.0ZM23.0 -302.0 25.0 -322.0 398.0 -326.0 394.0 -306.0Z"/></g>
<g fill="red" transform="translate(1200 1300) scale(0.1 -0.1)"><path d="M0.0 0.0V-635.0H157.0V0.0ZM94.0 -221.0V-356.0H461.0V-221.0Z"/></g>
<g fill="black" opacity=".8" transform="translate(1200 1300) scale(0.1 -0.1)"><path d="M0.0 0.0V-636.0L160.0 -637.0L162.0 -2.0ZM90.0 -217.0 92.0 -356.0 461.0 -359.0 458.0 -221.0Z"/></g>
<g fill="red" transform="translate(1300 1300) scale(0.1 -0.1)"><path d="M0.0 0.0V-361.0H30.0V0.0ZM11.0 -160.0V-190.0H303.0V-160.0Z"/></g>
<g fill="black" opacity=".8" transform="translate(1300 1300) scale(0.1 -0.1)"><path d="M0.0 0.0 1.0 -361.0H30.0V-1.0ZM12.0 -160.0 9.0 -191.0 302.0 -190.0 303.0 -160.0Z"/></g>
<g fill="red" transform="translate(1400 1300) scale(0.1 -0.1)"><path d="M0.0 0.0V-414.0H138.0V0.0ZM73.0 -127.0V-257.0H372.0V-127.0Z"/></g>
<g fill="black" opacity=".8" transform="translate(1400 1300) scale(0.1 -0.1)"><path d="M0.0 0.0 1.0 -414.0 138.0 -415.0 139.0 0.0ZM73.0 -128.0V-255.0H372.0L371.0 -129.0Z"/></g>
<g fill="red" transform="translate(1500 1300) scale(0.1 -0.1)"><path d="M0.0 0.0V-458.0H29.0V0.0ZM10.0 -190.0V-219.0H250.0V-190.0Z"/></g>
<g fill="black" opacity=".8" transform="translate(1500 1300) scale(0.1 -0.1)"><path d="M0.0 0.0 1.0 -459.0 31.0 -458.0V0.0ZM11.0 -189.0 7.0 -221.0 249.0 -219.0 250.0 -188.0Z"/></g>
<g fill="red" transform="translate(1600 1300) scale(0.1 -0.1)"><path d="M0.0 0.0V-527.0H143.0V0.0ZM61.0 -165.0V-303.0H347.0V-165.0Z"/></g>
<g fill="black" opacity=".8" transform="translate(1600 1300) scale(0.1 -0.1)"><path d="M0.0 0.0 1.0 -527.0H141.0L143.0 1.0ZM62.0 -168.0 61.0 -301.0 347.0 -300.0V-167.0Z"/></g>
<g fill="red" transform="translate(100 1400) scale(0.1 -0.1)"><path d="M0.0 0.0V-190.0H29.0V0.0ZM13.0 -72.0V-102.0H234.0V-72.0Z"/></g>
<g fill="black" opacity=".8" transform="translate(100 1400) scale(0.1 -0.1)"><path d="M0.0 0.0 1.0 -190.0H30.0V-0.0ZM13.0 -72.0 11.0 -103.0 233.0 -102.0 234.0 -71.0Z"/></g>
<g fill="red" transform="translate(200 1400) scale(0.1 -0.1)"><path d="M0.0 0.0V-203.0H112.0V0.0ZM61.0 -54.0V-152.0H247.0V-54.0Z"/></g>
<g fill="black" opacity=".8" transform="translate(200 1400) scale(0.1 -0.1)"><path d="M0.0 0.0 1.0 -203.0H111.0L112.0 0.0ZM62.0 -55.0 61.0 -151.0 247.0 -150.0V-55.0Z"/></g>
<g fill="red" transform="translate(300 1400) scale(0.1 -0.1)"><path d="M0.0 0.0V-366.0H30.0V0.0ZM15.0 -168.0V-198.0H249.0V-168.0Z"/></g>
<g fill="black" opacity=".8" transform="translate(300 1400) scale(0.1 -0.1)"><path d="M0.0 0.0V-367.0L33.0 -366.0V0.0ZM15.0 -167.0 12.0 -199.0 248.0 -197.0V-167.0Z"/></g>
<g fill="red" transform="translate(400 1400) scale(0.1 -0.1)"><path d="M0.0 0.0V-446.0H132.0V0.0ZM67.0 -137.0V-266.0H311.0V-137.0Z"/></g>
<g fill="black" opacity=".8" transform="translate(400 1400) scale(0.1 -0.1)"><path d="M0.0 0.0 1.0 -446.0H129.0L131.0 1.0ZM68.0 -138.0V-266.0L311.0 -265.0V-138.0Z"/></g>
<g fill="red" transform="translate(500 1400) scale(0.1 -0.1)"><path d="M0.0 0.0V-361.0H30.0V0.0ZM11.0 -160.0V-190.0H254.0V-160.0Z"/></g>
<g fill="black" opacity=".8" transform="translate(500 1400) scale(0.1 -0.1)"><path d="M0.0 0.0V-362.0L32.0 -361.0V0.0ZM11.0 -160.0 8.0 -190.0 253.0 -189.0V-160.0Z"/></g>
<g fill="red" transform="translate(600 1400) scale(0.1 -0.1)"><path d="M0.0 0.0V-414.0H138.0V0.0ZM73.0 -104.0V-234.0H324.0V-104.0Z"/></g>
<g fill="black" opacity=".8" transform="translate(600 1400) scale(0.1 -0.1)"><path d="M0.0 0.0V-414.0H135.0L137.0 1.0ZM74.0 -104.0V-234.0H324.0V-105.0Z"/></g>
<g fill="red" transform="translate(700 1400) scale(0.1 -0.1)"><path d="M0.0 0.0V-379.0H29.0V0.0ZM10.0 -166.0V-196.0H240.0V-166.0Z"/></g>
<g fill="black" opacity=".8" transform="translate(700 1400) scale(0.1 -0.1)"><path d="M0.0 0.0 1.0 -380.0 31.0 -379.0V0.0ZM10.0 -166.0 7.0 -196.0H239.0L240.0 -166.0Z"/></g>
<g fill="red" transform="translate(800 1400) scale(0.1 -0.1)"><path d="M0.0 0.0V-405.0H141.0V0.0ZM59.0 -120.0V-249.0H325.0V-120.0Z"/></g>
<g fill="black" opacity=".8" transform="translate(800 1400) scale(0.1 -0.1)"><path d="M0.0 0.0V-405.0H138.0L140.0 1.0ZM60.0 -121.0V-248.0H325.0V-121.0Z"/></g>
<g fill="red" transform="translate(900 1400) scale(0.1 -0.1)"><path d="M0.0 0.0V-393.0H29.0V0.0ZM11.0 -173.0V-203.0H227.0V-173.0Z"/></g>
<g fill="black" opacity=".8" transform="translate(900 1400) scale(0.1 -0.1)"><path d="M0.0 0.0 1.0 -393.0H29.0V0.0ZM12.0 -173.0 9.0 -203.0H226.0L227.0 -173.0Z"/></g>
<g fill="red" transform="translate(1000 1400) scale(0.1 -0.1)"><path d="M0.0 0.0V-414.0H130.0V0.0ZM56.0 -104.0V-234.0H306.0V-104.0Z"/></g>
<g fill="black" opacity=".8" transform="translate(1000 1400) scale(0.1 -0.1)"><path d="M0.0 0.0V-414.0L129.0 -415.0L130.0 1.0ZM56.0 -105.0V-232.0H306.0L305.0 -106.0Z"/></g>
<g fill="red" transform="translate(1100 1400) scale(0.1 -0.1)"><path d="M0.0 0.0V-190.0H30.0V0.0ZM438.0 -167.0V-197.0H651.0V-167.0Z"/></g>
<g fill="black" opacity=".8" transform="translate(1100 1400) scale(0.1 -0.1)"><path d="M0.0 0.0 1.0 -190.0H30.0V0.0ZM438.0 -167.0 437.0 -196.0H651.0L650.0 -168.0Z"/></g>
<g fill="red" transform="translate(1200 1400) scale(0.1 -0.1)"><path d="M0.0 0.0V-203.0H125.0V0.0ZM488.0 -127.0V-243.0H732.0V-127.0Z"/></g>
<g fill="black" opacity=".8" transform="translate(1200 1400) scale(0.1 -0.1)"><path d="M0.0 0.0 1.0 -203.0 123.0 -204.0 125.0 0.0ZM488.0 -127.0V-243.0L732.0 -244.0L731.0 -128.0Z"/></g>
<g fill="red" transform="translate(1300 1400) scale(0.1 -0.1)"><path d="M0.0 0.0V-393.0H29.0V0.0ZM-414.0 -77.0V-107.0H-189.0V-77.0Z"/></g>
<g fill="black" opacity=".8" transform="translate(1300 1400) scale(0.1 -0.1)"><path d="M0.0 0.0 1.0 -395.0 32.0 -394.0V0.0ZM-416.0 -77.0V-102.0L-189.0 -103.0L-191.0 -80.0Z"/></g>
<g fill="red" transform="translate(1400 1400) scale(0.1 -0.1)"><path d="M0.0 0.0V-414.0H126.0V0.0ZM-383.0 -53.0V-140.0H-148.0V-53.0Z"/></g>
<g fill="black" opacity=".8" transform="translate(1400 1400) scale(0.1 -0.1)"><path d="M0.0 0.0V-414.0L119.0 -412.0L121.0 1.0ZM-382.0 -48.0 -381.0 -144.0 -147.0 -145.0 -149.0 -51.0Z"/></g>
<g fill="red" transform="translate(1500 1400) scale(0.1 -0.1)"><path d="M0.0 0.0V-384.0H30.0V0.0ZM12.0 -173.0V-203.0H202.0V-173.0Z"/></g>
<g fill="black" opacity=".8" transform="translate(1500 1400) scale(0.1 -0.1)"><path d="M0.0 0.0 1.0 -386.0 34.0 -384.0V1.0ZM11.0 -173.0 8.0 -203.0 201.0 -202.0V-173.0Z"/></g>
<g fill="red" transform="translate(1600 1400) scale(0.1 -0.1)"><path d="M0.0 0.0V-405.0H131.0V0.0ZM30.0 -118.0V-242.0H287.0V-118.0Z"/></g>
<g fill="black" opacity=".8" transform="translate(1600 1400) scale(0.1 -0.1)"><path d="M0.0 0.0 1.0 -405.0 126.0 -404.0 128.0 2.0ZM32.0 -118.0V-242.0H287.0V-118.0Z"/></g>
<g fill="red" transform="translate(100 1500) scale(0.1 -0.1)"><path d="M0.0 0.0V-379.0H29.0V0.0ZM14.0 -162.0V-192.0H385.0V-162.0Z"/></g>
<g fill="black" opacity=".8" transform="translate(100 1500) scale(0.1 -0.1)"><path d="M0.0 0.0 1.0 -379.0H28.0L27.0 -1.0ZM14.0 -162.0 13.0 -189.0 385.0 -190.0 384.0 -164.0Z"/></g>
<g fill="red" transform="translate(200 1500) scale(0.1 -0.1)"><path d="M0.0 0.0V-378.0H150.0V0.0ZM75.0 -103.0V-229.0H467.0V-103.0Z"/></g>
<g fill="black" opacity=".8" transform="translate(200 1500) scale(0.1 -0.1)"><path d="M0.0 0.0V-379.0L148.0 -378.0L150.0 -0.0ZM74.0 -102.0 75.0 -229.0 467.0 -230.0 466.0 -103.0Z"/></g>
<g fill="red" transform="translate(300 1500) scale(0.1 -0.1)"><path d="M0.0 0.0V-190.0H30.0V0.0ZM14.0 -73.0V-103.0H236.0V-73.0Z"/></g>
<g fill="black" opacity=".8" transform="translate(300 1500) scale(0.1 -0.1)"><path d="M0.0 0.0 1.0 -191.0 30.0 -190.0V-0.0ZM14.0 -73.0 13.0 -100.0 236.0 -101.0 235.0 -75.0Z"/></g>
<g fill="red" transform="translate(400 1500) scale(0.1 -0.1)"><path d="M0.0 0.0V-194.0H117.0V0.0ZM54.0 -44.0V-137.0H293.0V-44.0Z"/></g>
<g fill="black" opacity=".8" transform="translate(400 1500) scale(0.1 -0.1)"><path d="M0.0 0.0 1.0 -194.0H114.0L116.0 1.0ZM54.0 -42.0 55.0 -138.0 293.0 -139.0 292.0 -44.0Z"/></g>
<g fill="red" transform="translate(500 1500) scale(0.1 -0.1)"><path d="M0.0 0.0H325.0V-268.0H0.0ZM569.0 -69.0V-98.0H803.0V-69.0Z"/></g>
<g fill="black" opacity=".8" transform="translate(500 1500) scale(0.1 -0.1)"><path d="M0.0 0.0 319.0 -1.0 325.0 -269.0 6.0 -268.0ZM568.0 -69.0 566.0 -96.0H802.0V-70.0Z"/></g>
<g fill="red" transform="translate(600 1500) scale(0.1 -0.1)"><path d="M0.0 0.0H225.0V-196.0H0.0ZM507.0 23.0V-96.0H801.0V23.0Z"/></g>
<g fill="black" opacity=".8" transform="translate(600 1500) scale(0.1 -0.1)"><path d="M0.0 0.0 228.0 2.0 222.0 -198.0 -4.0 -201.0ZM508.0 24.0V-97.0L801.0 -98.0V24.0Z"/></g>
<g fill="red" transform="translate(700 1500) scale(0.1 -0.1)"><path d="M0.0 0.0V-194.0H31.0V0.0ZM17.0 -73.0V-103.0H191.0V-73.0Z"/></g>
<g fill="black" opacity=".8" transform="translate(700 1500) scale(0.1 -0.1)"><path d="M0.0 0.0 1.0 -194.0 30.0 -195.0V-1.0ZM17.0 -74.0 16.0 -99.0 191.0 -100.0 189.0 -76.0Z"/></g>
<g fill="red" transform="translate(800 1500) scale(0.1 -0.1)"><path d="M0.0 0.0V-198.0H117.0V0.0ZM75.0 -46.0V-133.0H237.0V-46.0Z"/></g>
<g fill="black" opacity=".8" transform="translate(800 1500) scale(0.1 -0.1)"><path d="M0.0 0.0V-198.0H114.0L116.0 0.0ZM74.0 -42.0 76.0 -135.0 237.0 -137.0 235.0 -45.0Z"/></g>
<g fill="red" transform="translate(900 1500) scale(0.1 -0.1)"><path d="M0.0 0.0V-635.0L30.0 -625.0V0.0ZM414.0 13.0V-16.0H722.0V13.0Z"/></g>
<g fill="black" opacity=".8" transform="translate(900 1500) scale(0.1 -0.1)"><path d="M0.0 0.0V-633.0L28.0 -628.0L30.0 2.0ZM415.0 13.0 413.0 -15.0H722.0L721.0 13.0Z"/></g>
<g fill="red" transform="translate(1000 1500) scale(0.1 -0.1)"><path d="M0.0 0.0V-632.0L132.0 -611.0V0.0ZM497.0 60.0V-38.0H815.0V60.0Z"/></g>
<g fill="black" opacity=".8" transform="translate(1000 1500) scale(0.1 -0.1)"><path d="M0.0 0.0V-627.0L131.0 -617.0L133.0 2.0ZM496.0 60.0 497.0 -37.0H815.0L814.0 59.0Z"/></g>
<g fill="red" transform="translate(1100 1500) scale(0.1 -0.1)"><path d="M0.0 0.0V-300.0H29.0V0.0ZM18.0 -118.0V-147.0H169.0V-118.0Z"/></g>
<g fill="black" opacity=".8" transform="translate(1100 1500) scale(0.1 -0.1)"><path d="M0.0 0.0 1.0 -300.0H31.0V-0.0ZM19.0 -117.0 15.0 -149.0 168.0 -147.0 169.0 -116.0Z"/></g>
<g fill="red" transform="translate(1200 1500) scale(0.1 -0.1)"><path d="M0.0 0.0V-306.0H121.0V0.0ZM68.0 -74.0V-188.0H211.0V-74.0Z"/></g>
<g fill="black" opacity=".8" transform="translate(1200 1500) scale(0.1 -0.1)"><path d="M0.0 0.0 1.0 -306.0H119.0L121.0 1.0ZM69.0 -76.0 68.0 -186.0 211.0 -185.0V-76.0Z"/></g>
<g fill="red" transform="translate(1300 1500) scale(0.1 -0.1)"><path d="M0.0 0.0V-494.0H30.0V0.0ZM10.0 -230.0V-259.0H313.0V-230.0Z"/></g>
<g fill="black" opacity=".8" transform="translate(1300 1500) scale(0.1 -0.1)"><path d="M0.0 0.0 1.0 -493.0 28.0 -494.0 27.0 -1.0ZM12.0 -230.0 9.0 -259.0H313.0V-230.0Z"/></g>
<g fill="red" transform="translate(1400 1500) scale(0.1 -0.1)"><path d="M0.0 0.0V-527.0H139.0V0.0ZM64.0 -173.0V-313.0H383.0V-173.0Z"/></g>
<g fill="black" opacity=".8" transform="translate(1400 1500) scale(0.1 -0.1)"><path d="M0.0 0.0 1.0 -527.0 140.0 -528.0 142.0 -0.0ZM63.0 -174.0V-311.0H383.0L382.0 -175.0Z"/></g>
<g fill="red" transform="translate(1500 1500) scale(0.1 -0.1)"><path d="M0.0 0.0V-269.0H29.0V0.0ZM336.0 0.0V-269.0H365.0V0.0Z"/></g>
<g fill="black" opacity=".8" transform="translate(1500 1500) scale(0.1 -0.1)"><path d="M0.0 0.0 1.0 -268.0 23.0 -269.0V-2.0ZM337.0 -1.0 338.0 -265.0 366.0 -267.0 364.0 -3.0Z"/></g>
<g fill="red" transform="translate(1600 1500) scale(0.1 -0.1)"><path d="M0.0 0.0V-284.0H144.0V0.0ZM333.0 0.0V-284.0H478.0V0.0Z"/></g>
<g fill="black" opacity=".8" transform="translate(1600 1500) scale(0.1 -0.1)"><path d="M0.0 0.0V-284.0L146.0 -286.0L148.0 -1.0ZM330.0 2.0 332.0 -284.0 478.0 -285.0 476.0 0.0Z"/></g>
<g fill="red" transform="translate(100 1600) scale(0.1 -0.1)"><path d="M0.0 0.0V-273.0H28.0V0.0ZM12.0 -105.0V-135.0H142.0V-105.0Z"/></g>
<g fill="black" opacity=".8" transform="translate(100 1600) scale(0.1 -0.1)"><path d="M0.0 0.0 1.0 -273.0H27.0L26.0 -0.0ZM13.0 -105.0 11.0 -136.0 141.0 -135.0 142.0 -104.0Z"/></g>
<g fill="red" transform="translate(200 1600) scale(0.1 -0.1)"><path d="M0.0 0.0V-248.0H91.0V0.0ZM37.0 -60.0V-155.0H148.0V-60.0Z"/></g>
<g fill="black" opacity=".8" transform="translate(200 1600) scale(0.1 -0.1)"><path d="M0.0 0.0 1.0 -249.0H92.0L93.0 0.0ZM37.0 -61.0 36.0 -153.0 147.0 -152.0V-62.0Z"/></g>
<g fill="red" transform="translate(300 1600) scale(0.1 -0.1)"><path d="M0.0 0.0V-361.0H30.0V0.0ZM16.0 -140.0V-169.0H259.0V-140.0Z"/></g>
<g fill="black" opacity=".8" transform="translate(300 1600) scale(0.1 -0.1)"><path d="M0.0 0.0 1.0 -361.0H31.0V-0.0ZM17.0 -140.0 13.0 -170.0 258.0 -169.0 259.0 -139.0Z"/></g>
<g fill="red" transform="translate(400 1600) scale(0.1 -0.1)"><path d="M0.0 0.0V-338.0H141.0V0.0ZM69.0 -75.0V-202.0H317.0V-75.0Z"/></g>
<g fill="black" opacity=".8" transform="translate(400 1600) scale(0.1 -0.1)"><path d="M0.0 0.0V-339.0L139.0 -338.0L141.0 0.0ZM70.0 -77.0 69.0 -200.0 317.0 -199.0V-77.0Z"/></g>
<g fill="red" transform="translate(500 1600) scale(0.1 -0.1)"><path d="M0.0 0.0V-190.0H29.0V0.0ZM9.0 -75.0V-105.0H248.0V-75.0Z"/></g>
<g fill="black" opacity=".8" transform="translate(500 1600) scale(0.1 -0.1)"><path d="M0.0 0.0 1.0 -191.0H30.0V-0.0ZM8.0 -76.0V-100.0L249.0 -102.0L246.0 -79.0Z"/></g>
<g fill="red" transform="translate(600 1600) scale(0.1 -0.1)"><path d="M0.0 0.0V-203.0H125.0V0.0ZM59.0 -54.0V-141.0H312.0V-54.0Z"/></g>
<g fill="black" opacity=".8" transform="translate(600 1600) scale(0.1 -0.1)"><path d="M0.0 0.0V-203.0L120.0 -202.0L122.0 0.0ZM59.0 -49.0 61.0 -144.0 313.0 -146.0 311.0 -52.0Z"/></g>
<g fill="red" transform="translate(700 1600) scale(0.1 -0.1)"><path d="M0.0 0.0V-357.0H29.0V0.0ZM13.0 -147.0V-176.0H239.0V-147.0Z"/></g>
<g fill="black" opacity=".8" transform="translate(700 1600) scale(0.1 -0.1)"><path d="M0.0 0.0 1.0 -356.0 27.0 -357.0 28.0 -1.0ZM15.0 -146.0 11.0 -179.0 238.0 -177.0 239.0 -145.0Z"/></g>
<g fill="red" transform="translate(800 1600) scale(0.1 -0.1)"><path d="M0.0 0.0V-383.0H134.0V0.0ZM86.0 -120.0V-247.0H294.0V-120.0Z"/></g>
<g fill="black" opacity=".8" transform="translate(800 1600) scale(0.1 -0.1)"><path d="M0.0 0.0V-383.0L135.0 -384.0L137.0 -0.0ZM86.0 -123.0 85.0 -243.0 293.0 -242.0V-123.0Z"/></g>
<g fill="red" transform="translate(900 1600) scale(0.1 -0.1)"><path d="M0.0 0.0V-238.0H29.0V0.0ZM99.0 157.0V127.0H421.0V157.0Z"/></g>
<g fill="black" opacity=".8" transform="translate(900 1600) scale(0.1 -0.1)"><path d="M0.0 0.0V-242.0L41.0 -239.0L43.0 2.0ZM96.0 158.0 91.0 124.0 418.0 128.0 420.0 160.0Z"/></g>
<g fill="red" transform="translate(1000 1600) scale(0.1 -0.1)"><path d="M0.0 0.0V-234.0H137.0V0.0ZM184.0 225.0V138.0H419.0V225.0Z"/></g>
<g fill="black" opacity=".8" transform="translate(1000 1600) scale(0.1 -0.1)"><path d="M0.0 0.0 1.0 -236.0 126.0 -228.0 128.0 2.0ZM189.0 225.0 187.0 136.0 420.0 138.0 421.0 226.0Z"/></g>
<g fill="red" transform="translate(1100 1600) scale(0.1 -0.1)"><path d="M0.0 0.0V-499.0H30.0V0.0ZM17.0 -229.0V-258.0H265.0V-229.0Z"/></g>
<g fill="black" opacity=".8" transform="translate(1100 1600) scale(0.1 -0.1)"><path d="M0.0 0.0 1.0 -499.0H30.0V-1.0ZM17.0 -229.0 15.0 -257.0H265.0L264.0 -230.0Z"/></g>
<g fill="red" transform="translate(1200 1600) scale(0.1 -0.1)"><path d="M0.0 0.0V-545.0H139.0V0.0ZM70.0 -205.0V-334.0H318.0V-205.0Z"/></g>
<g fill="black" opacity=".8" transform="translate(1200 1600) scale(0.1 -0.1)"><path d="M0.0 0.0 1.0 -545.0H137.0L139.0 0.0ZM70.0 -205.0V-334.0H318.0L317.0 -206.0Z"/></g>
<g fill="red" transform="translate(1300 1600) scale(0.1 -0.1)"><path d="M0.0 0.0V-460.0H29.0V0.0ZM438.0 -43.0V-72.0H679.0V-43.0Z"/></g>
<g fill="black" opacity=".8" transform="translate(1300 1600) scale(0.1 -0.1)"><path d="M0.0 0.0 1.0 -462.0 36.0 -459.0 35.0 2.0ZM439.0 -42.0 432.0 -79.0 676.0 -75.0 680.0 -37.0Z"/></g>
<g fill="red" transform="translate(1400 1600) scale(0.1 -0.1)"><path d="M0.0 0.0V-450.0H108.0V0.0ZM464.0 67.0V-59.0H723.0V67.0Z"/></g>
<g fill="black" opacity=".8" transform="translate(1400 1600) scale(0.1 -0.1)"><path d="M0.0 0.0 2.0 -453.0 106.0 -447.0V2.0ZM467.0 60.0 464.0 -55.0 722.0 -52.0 725.0 63.0Z"/></g>
<g fill="red" transform="translate(1500 1600) scale(0.1 -0.1)"><path d="M0.0 0.0V-291.0H30.0V0.0ZM23.0 -109.0V-138.0H284.0V-109.0Z"/></g>
<g fill="black" opacity=".8" transform="translate(1500 1600) scale(0.1 -0.1)"><path d="M0.0 0.0 1.0 -293.0 36.0 -291.0 35.0 1.0ZM22.0 -109.0 18.0 -139.0 282.0 -138.0 283.0 -108.0Z"/></g>
<g fill="red" transform="translate(1600 1600) scale(0.1 -0.1)"><path d="M0.0 0.0V-320.0H144.0V0.0ZM52.0 -62.0V-187.0H399.0V-62.0Z"/></g>
<g fill="black" opacity=".8" transform="translate(1600 1600) scale(0.1 -0.1)"><path d="M0.0 0.0 1.0 -321.0 139.0 -319.0 140.0 2.0ZM55.0 -63.0 54.0 -187.0 399.0 -186.0 400.0 -63.0Z"/></g>
<g fill="red" transform="translate(100 1700) scale(0.1 -0.1)"><path d="M0.0 0.0V-202.0H30.0V0.0ZM8.0 -69.0V-99.0H154.0V-69.0Z"/></g>
<g fill="black" opacity=".8" transform="translate(100 1700) scale(0.1 -0.1)"><path d="M0.0 0.0 1.0 -202.0H32.0V0.0ZM9.0 -68.0 5.0 -101.0 153.0 -99.0 154.0 -67.0Z"/></g>
<g fill="red" transform="translate(200 1700) scale(0.1 -0.1)"><path d="M0.0 0.0V-194.0H110.0V0.0ZM41.0 -45.0V-145.0H186.0V-45.0Z"/></g>
<g fill="black" opacity=".8" transform="translate(200 1700) scale(0.1 -0.1)"><path d="M0.0 0.0 1.0 -195.0 109.0 -194.0 110.0 1.0ZM42.0 -47.0 41.0 -143.0 185.0 -142.0 186.0 -47.0Z"/></g>
<g fill="red" transform="translate(300 1700) scale(0.1 -0.1)"><path d="M0.0 0.0V-490.0H29.0V0.0ZM16.0 -215.0V-245.0H291.0V-215.0Z"/></g>
<g fill="black" opacity=".8" transform="translate(300 1700) scale(0.1 -0.1)"><path d="M0.0 0.0V-490.0H30.0L31.0 -1.0ZM16.0 -215.0 13.0 -246.0 290.0 -244.0 291.0 -214.0Z"/></g>
<g fill="red" transform="translate(400 1700) scale(0.1 -0.1)"><path d="M0.0 0.0V-527.0H150.0V0.0ZM85.0 -179.0V-317.0H338.0V-179.0Z"/></g>
<g fill="black" opacity=".8" transform="translate(400 1700) scale(0.1 -0.1)"><path d="M0.0 0.0V-527.0H148.0L150.0 -0.0ZM86.0 -180.0 85.0 -316.0H338.0V-180.0Z"/></g>
</svg>
