<?xml version="1.0" encoding="UTF-8"?>
<svg width="1700" height="600" xmlns="http://www.w3.org/2000/svg">
<rect width="100%" height="100%" fill="white"/>
<g fill="green" transform="translate(100 100) scale(0.1 -0.1)"><path d="M0.0 -0.0 -19.0 -37.0H285.0V-0.0ZM170.0 214.0V-242.0C170.0 -416.0 154.0 -632.0 8.0 -787.0C16.0 -791.0 30.0 -801.0 36.0 -809.0C186.0 -652.0 207.0 -421.0 207.0 -242.0V214.0ZM814.0 214.0V-735.0C814.0 -753.0 806.0 -760.0 786.0 -760.0C769.0 -761.0 708.0 -762.0 630.0 -760.0C636.0 -770.0 642.0 -785.0 646.0 -794.0C744.0 -796.0 791.0 -795.0 815.0 -789.0C840.0 -781.0 851.0 -767.0 851.0 -734.0V214.0Z"/></g>
<g fill="green" transform="translate(200 100) scale(0.1 -0.1)"><path d="M0.0 0.0 -67.0 -109.0H228.0V0.0ZM138.0 222.0V-298.0C138.0 -463.0 130.0 -662.0 27.0 -795.0C62.0 -811.0 127.0 -856.0 154.0 -881.0C270.0 -733.0 286.0 -485.0 286.0 -298.0V222.0ZM731.0 222.0V-710.0C731.0 -727.0 725.0 -733.0 708.0 -732.0C693.0 -734.0 642.0 -734.0 601.0 -731.0C622.0 -769.0 644.0 -838.0 649.0 -879.0C730.0 -879.0 786.0 -876.0 830.0 -850.0C873.0 -824.0 885.0 -783.0 885.0 -713.0V222.0Z"/></g>
<g fill="green" transform="translate(300 100) scale(0.1 -0.1)"><path d="M0.0 0.0 -19.0 -27.0H139.0V0.0ZM179.0 196.0V-136.0C179.0 -259.0 167.0 -410.0 55.0 -518.0C60.0 -521.0 70.0 -528.0 74.0 -534.0C189.0 -425.0 206.0 -263.0 206.0 -136.0V196.0ZM657.0 196.0V-481.0C657.0 -493.0 651.0 -499.0 636.0 -498.0C625.0 -499.0 583.0 -500.0 527.0 -499.0C532.0 -505.0 536.0 -516.0 539.0 -522.0C610.0 -524.0 642.0 -523.0 658.0 -519.0C676.0 -513.0 683.0 -503.0 683.0 -480.0V196.0Z"/></g>
<g fill="green" transform="translate(400 100) scale(0.1 -0.1)"><path d="M0.0 0.0 -66.0 -69.0H99.0V0.0ZM166.0 201.0V-185.0C166.0 -301.0 160.0 -436.0 85.0 -527.0C109.0 -538.0 155.0 -569.0 174.0 -586.0C258.0 -485.0 270.0 -317.0 270.0 -185.0V201.0ZM606.0 201.0V-467.0C606.0 -479.0 602.0 -483.0 590.0 -482.0C580.0 -484.0 544.0 -484.0 517.0 -482.0C532.0 -508.0 547.0 -556.0 551.0 -585.0C607.0 -585.0 646.0 -583.0 677.0 -565.0C707.0 -546.0 715.0 -518.0 715.0 -469.0V201.0Z"/></g>
<g fill="green" transform="translate(500 100) scale(0.1 -0.1)"><path d="M0.0 0.0 -6.0 -47.0H212.0V0.0ZM-116.0 413.0V-212.0C-116.0 -441.0 -135.0 -728.0 -313.0 -931.0C-303.0 -935.0 -284.0 -946.0 -276.0 -955.0C-93.0 -751.0 -69.0 -447.0 -69.0 -212.0V413.0ZM544.0 413.0V-860.0C544.0 -882.0 535.0 -890.0 511.0 -891.0C489.0 -892.0 412.0 -893.0 319.0 -890.0C326.0 -904.0 335.0 -924.0 338.0 -935.0C453.0 -937.0 515.0 -936.0 545.0 -929.0C577.0 -919.0 591.0 -900.0 591.0 -858.0V413.0Z"/></g>
<g fill="green" transform="translate(600 100) scale(0.1 -0.1)"><path d="M0.0 0.0 -24.0 -130.0H116.0V0.0ZM-186.0 462.0V-206.0C-186.0 -430.0 -197.0 -711.0 -330.0 -899.0C-289.0 -919.0 -213.0 -983.0 -184.0 -1016.0C-30.0 -806.0 -8.0 -455.0 -8.0 -205.0V462.0ZM397.0 462.0V-789.0C397.0 -809.0 390.0 -817.0 371.0 -816.0C352.0 -818.0 295.0 -818.0 243.0 -814.0C270.0 -866.0 298.0 -959.0 303.0 -1013.0C401.0 -1013.0 467.0 -1008.0 519.0 -974.0C572.0 -939.0 584.0 -882.0 584.0 -794.0V462.0Z"/></g>
<g fill="green" transform="translate(700 100) scale(0.1 -0.1)"><path d="M0.0 -0.0 -21.0 -27.0H173.0V-0.0ZM309.0 8.0V-397.0C309.0 -534.0 302.0 -709.0 222.0 -834.0C229.0 -837.0 241.0 -844.0 246.0 -849.0C327.0 -723.0 337.0 -536.0 337.0 -396.0V8.0ZM656.0 8.0V-791.0C656.0 -806.0 650.0 -811.0 635.0 -811.0C622.0 -811.0 576.0 -812.0 521.0 -811.0C526.0 -819.0 529.0 -832.0 532.0 -839.0C601.0 -841.0 638.0 -840.0 657.0 -835.0C676.0 -829.0 684.0 -817.0 684.0 -791.0V8.0Z"/></g>
<g fill="green" transform="translate(800 100) scale(0.1 -0.1)"><path d="M0.0 0.0 -75.0 -108.0H156.0V0.0ZM318.0 -15.0V-429.0C318.0 -570.0 314.0 -753.0 256.0 -876.0C282.0 -886.0 329.0 -917.0 350.0 -934.0C415.0 -799.0 424.0 -581.0 424.0 -428.0V-15.0ZM622.0 -15.0V-793.0C622.0 -806.0 618.0 -810.0 606.0 -809.0C595.0 -810.0 564.0 -810.0 534.0 -808.0C551.0 -839.0 567.0 -899.0 570.0 -932.0C625.0 -932.0 663.0 -928.0 695.0 -906.0C725.0 -885.0 732.0 -848.0 732.0 -796.0V-15.0Z"/></g>
<g fill="green" transform="translate(900 100) scale(0.1 -0.1)"><path d="M0.0 0.0 -5.0 -29.0H723.0V0.0ZM81.0 -62.0V-310.0C81.0 -447.0 63.0 -618.0 -78.0 -744.0C-72.0 -746.0 -62.0 -756.0 -58.0 -762.0C88.0 -635.0 110.0 -452.0 110.0 -311.0V-62.0ZM798.0 -62.0V-709.0C798.0 -723.0 792.0 -729.0 775.0 -729.0C762.0 -730.0 711.0 -731.0 645.0 -729.0C649.0 -737.0 655.0 -748.0 658.0 -756.0C740.0 -757.0 777.0 -757.0 798.0 -751.0C818.0 -745.0 826.0 -734.0 826.0 -708.0V-62.0Z"/></g>
<g fill="green" transform="translate(1000 100) scale(0.1 -0.1)"><path d="M0.0 0.0 -17.0 -123.0H696.0V0.0ZM32.0 -76.0V-438.0C32.0 -555.0 23.0 -684.0 -87.0 -769.0C-53.0 -785.0 7.0 -825.0 32.0 -848.0C152.0 -751.0 170.0 -579.0 170.0 -439.0V-76.0ZM732.0 -76.0V-711.0C732.0 -726.0 725.0 -732.0 709.0 -731.0C694.0 -732.0 637.0 -732.0 597.0 -729.0C614.0 -759.0 633.0 -808.0 640.0 -840.0C717.0 -840.0 773.0 -839.0 814.0 -820.0C855.0 -801.0 868.0 -773.0 868.0 -711.0V-76.0Z"/></g>
<g fill="green" transform="translate(1100 100) scale(0.1 -0.1)"><path d="M0.0 -0.0 -19.0 -39.0H297.0V0.0ZM180.0 194.0V-172.0C180.0 -362.0 167.0 -616.0 40.0 -804.0C48.0 -809.0 63.0 -821.0 69.0 -829.0C200.0 -636.0 219.0 -367.0 219.0 -172.0V194.0ZM810.0 194.0V-758.0C810.0 -779.0 802.0 -787.0 779.0 -787.0C759.0 -788.0 686.0 -788.0 596.0 -787.0C603.0 -797.0 609.0 -814.0 614.0 -823.0C725.0 -825.0 781.0 -824.0 809.0 -818.0C837.0 -810.0 849.0 -795.0 849.0 -757.0V194.0Z"/></g>
<g fill="green" transform="translate(1200 100) scale(0.1 -0.1)"><path d="M0.0 0.0 -66.0 -130.0H268.0V0.0ZM114.0 199.0V-194.0C114.0 -368.0 109.0 -609.0 26.0 -772.0C66.0 -790.0 145.0 -845.0 177.0 -874.0C274.0 -692.0 289.0 -393.0 289.0 -194.0V199.0ZM730.0 199.0V-706.0C730.0 -723.0 725.0 -729.0 707.0 -728.0C693.0 -730.0 640.0 -729.0 604.0 -727.0C625.0 -768.0 644.0 -837.0 649.0 -881.0C737.0 -880.0 801.0 -879.0 849.0 -852.0C896.0 -825.0 910.0 -786.0 910.0 -708.0V199.0Z"/></g>
<g fill="green" transform="translate(1300 100) scale(0.1 -0.1)"><path d="M0.0 0.0 -19.0 -37.0H323.0V0.0ZM166.0 220.0V-286.0C166.0 -446.0 156.0 -647.0 53.0 -793.0C61.0 -798.0 75.0 -809.0 80.0 -818.0C188.0 -667.0 204.0 -450.0 204.0 -285.0V220.0ZM840.0 220.0V-736.0C840.0 -756.0 832.0 -764.0 810.0 -764.0C790.0 -765.0 719.0 -766.0 632.0 -764.0C639.0 -775.0 644.0 -791.0 648.0 -801.0C754.0 -803.0 811.0 -802.0 838.0 -795.0C866.0 -787.0 877.0 -772.0 877.0 -736.0V220.0Z"/></g>
<g fill="green" transform="translate(1400 100) scale(0.1 -0.1)"><path d="M0.0 0.0 -66.0 -99.0H216.0V0.0ZM119.0 229.0V-292.0C119.0 -455.0 114.0 -656.0 37.0 -792.0C75.0 -806.0 144.0 -846.0 174.0 -870.0C259.0 -720.0 271.0 -476.0 271.0 -292.0V229.0ZM716.0 229.0V-696.0C716.0 -715.0 710.0 -722.0 690.0 -720.0C674.0 -722.0 614.0 -723.0 567.0 -719.0C588.0 -758.0 611.0 -827.0 617.0 -869.0C707.0 -870.0 769.0 -866.0 817.0 -840.0C862.0 -815.0 877.0 -773.0 877.0 -699.0V229.0Z"/></g>
<g fill="red" transform="translate(100 200) scale(0.1 -0.1)"><path d="M0.0 0.0V-29.0H314.0V0.0ZM-10.0 0.0V-278.0C-10.0 -438.0 -17.0 -661.0 -100.0 -826.0C-93.0 -830.0 -80.0 -838.0 -75.0 -843.0C9.0 -675.0 20.0 -442.0 20.0 -278.0V0.0ZM297.0 0.0V-785.0C297.0 -802.0 292.0 -807.0 276.0 -808.0C258.0 -809.0 198.0 -809.0 131.0 -808.0C136.0 -818.0 141.0 -833.0 143.0 -841.0C219.0 -841.0 271.0 -841.0 294.0 -836.0C318.0 -830.0 327.0 -816.0 327.0 -785.0V0.0Z"/></g>
<g fill="black" opacity=".8" transform="translate(100 200) scale(0.1 -0.1)"><path d="M0.0 0.0 1.0 -29.0H314.0V0.0ZM-19.0 3.0V-286.0C-19.0 -444.0 -25.0 -666.0 -97.0 -829.0C-91.0 -832.0 -77.0 -840.0 -73.0 -844.0C2.0 -678.0 11.0 -446.0 11.0 -285.0V3.0ZM291.0 3.0V-792.0C291.0 -808.0 286.0 -814.0 269.0 -815.0C254.0 -815.0 196.0 -815.0 132.0 -814.0C138.0 -823.0 143.0 -838.0 145.0 -845.0C220.0 -846.0 267.0 -846.0 290.0 -841.0C312.0 -835.0 320.0 -821.0 320.0 -791.0V3.0Z"/></g>
<g fill="red" transform="translate(200 200) scale(0.1 -0.1)"><path d="M0.0 0.0V-137.0H311.0V0.0ZM-83.0 0.0V-258.0C-83.0 -414.0 -88.0 -648.0 -158.0 -806.0C-128.0 -821.0 -65.0 -872.0 -41.0 -899.0C43.0 -723.0 58.0 -432.0 58.0 -258.0V0.0ZM222.0 0.0V-747.0C222.0 -760.0 218.0 -764.0 205.0 -765.0C192.0 -765.0 151.0 -765.0 119.0 -763.0C135.0 -799.0 148.0 -858.0 151.0 -895.0C224.0 -895.0 276.0 -893.0 313.0 -871.0C351.0 -849.0 361.0 -814.0 361.0 -748.0V0.0Z"/></g>
<g fill="black" opacity=".8" transform="translate(200 200) scale(0.1 -0.1)"><path d="M0.0 0.0 1.0 -138.0H314.0V0.0ZM-83.0 3.0V-263.0C-83.0 -417.0 -86.0 -647.0 -144.0 -803.0C-114.0 -816.0 -54.0 -866.0 -32.0 -889.0C38.0 -715.0 51.0 -432.0 51.0 -262.0V3.0ZM223.0 3.0V-743.0C223.0 -756.0 220.0 -761.0 208.0 -760.0C196.0 -760.0 161.0 -759.0 133.0 -758.0C150.0 -794.0 164.0 -855.0 168.0 -892.0C231.0 -891.0 279.0 -889.0 314.0 -866.0C350.0 -843.0 358.0 -807.0 358.0 -745.0V3.0Z"/></g>
<g fill="red" transform="translate(300 200) scale(0.1 -0.1)"><path d="M0.0 0.0V-29.0H530.0V0.0ZM-18.0 0.0V-375.0C-18.0 -518.0 -28.0 -699.0 -129.0 -831.0C-122.0 -835.0 -110.0 -844.0 -106.0 -850.0C-2.0 -715.0 11.0 -522.0 11.0 -375.0V0.0ZM512.0 0.0V-785.0C512.0 -802.0 506.0 -807.0 490.0 -808.0C473.0 -809.0 415.0 -810.0 347.0 -808.0C352.0 -818.0 357.0 -832.0 359.0 -841.0C437.0 -841.0 486.0 -841.0 509.0 -835.0C533.0 -829.0 542.0 -815.0 542.0 -785.0V0.0Z"/></g>
<g fill="black" opacity=".8" transform="translate(300 200) scale(0.1 -0.1)"><path d="M0.0 0.0 1.0 -30.0H539.0V0.0ZM-28.0 5.0V-381.0C-28.0 -520.0 -37.0 -702.0 -122.0 -834.0C-115.0 -836.0 -103.0 -845.0 -99.0 -851.0C-10.0 -717.0 3.0 -523.0 3.0 -380.0V5.0ZM508.0 5.0V-787.0C508.0 -803.0 503.0 -809.0 484.0 -810.0C468.0 -810.0 408.0 -811.0 339.0 -809.0C344.0 -819.0 350.0 -834.0 351.0 -842.0C433.0 -843.0 482.0 -843.0 506.0 -837.0C529.0 -830.0 537.0 -817.0 537.0 -786.0V5.0Z"/></g>
<g fill="red" transform="translate(400 200) scale(0.1 -0.1)"><path d="M0.0 0.0V-118.0H460.0V0.0ZM-92.0 0.0V-392.0C-92.0 -534.0 -98.0 -717.0 -177.0 -839.0C-144.0 -853.0 -84.0 -890.0 -59.0 -913.0C29.0 -778.0 42.0 -552.0 42.0 -392.0V0.0ZM396.0 0.0V-759.0C396.0 -776.0 390.0 -782.0 373.0 -782.0C356.0 -782.0 298.0 -783.0 250.0 -780.0C268.0 -814.0 287.0 -873.0 292.0 -909.0C376.0 -910.0 433.0 -907.0 474.0 -885.0C515.0 -864.0 527.0 -828.0 527.0 -761.0V0.0Z"/></g>
<g fill="black" opacity=".8" transform="translate(400 200) scale(0.1 -0.1)"><path d="M0.0 0.0 2.0 -120.0H466.0V0.0ZM-87.0 6.0V-396.0C-87.0 -538.0 -93.0 -718.0 -170.0 -839.0C-137.0 -852.0 -78.0 -892.0 -54.0 -914.0C31.0 -778.0 45.0 -556.0 45.0 -396.0V6.0ZM395.0 6.0V-757.0C395.0 -772.0 389.0 -779.0 373.0 -777.0C358.0 -778.0 305.0 -779.0 261.0 -775.0C279.0 -811.0 299.0 -871.0 305.0 -907.0C383.0 -908.0 437.0 -904.0 478.0 -882.0C518.0 -861.0 530.0 -823.0 530.0 -758.0V6.0Z"/></g>
<g fill="red" transform="translate(500 200) scale(0.1 -0.1)"><path d="M0.0 0.0V-29.0H539.0V0.0ZM-18.0 0.0V-375.0C-18.0 -518.0 -27.0 -699.0 -128.0 -831.0C-122.0 -835.0 -110.0 -844.0 -106.0 -850.0C-2.0 -715.0 12.0 -522.0 12.0 -375.0V0.0ZM524.0 0.0V-785.0C524.0 -802.0 518.0 -807.0 502.0 -808.0C485.0 -809.0 427.0 -810.0 359.0 -808.0C364.0 -818.0 369.0 -832.0 371.0 -841.0C449.0 -841.0 498.0 -841.0 521.0 -835.0C545.0 -829.0 554.0 -815.0 554.0 -785.0V0.0Z"/></g>
<g fill="black" opacity=".8" transform="translate(500 200) scale(0.1 -0.1)"><path d="M0.0 0.0V-30.0H537.0V0.0ZM-19.0 5.0V-370.0C-19.0 -513.0 -29.0 -698.0 -124.0 -832.0C-117.0 -834.0 -105.0 -844.0 -101.0 -849.0C-2.0 -713.0 12.0 -516.0 12.0 -370.0V5.0ZM524.0 5.0V-786.0C524.0 -802.0 518.0 -808.0 500.0 -809.0C485.0 -809.0 426.0 -810.0 359.0 -808.0C364.0 -818.0 369.0 -832.0 371.0 -841.0C452.0 -842.0 499.0 -842.0 522.0 -835.0C545.0 -829.0 553.0 -815.0 553.0 -786.0V5.0Z"/></g>
<g fill="red" transform="translate(600 200) scale(0.1 -0.1)"><path d="M0.0 0.0V-118.0H460.0V0.0ZM-73.0 0.0V-392.0C-73.0 -535.0 -80.0 -718.0 -171.0 -839.0C-138.0 -854.0 -79.0 -892.0 -55.0 -914.0C46.0 -780.0 61.0 -554.0 61.0 -392.0V0.0ZM427.0 0.0V-759.0C427.0 -776.0 421.0 -782.0 404.0 -782.0C387.0 -782.0 329.0 -783.0 281.0 -780.0C299.0 -814.0 318.0 -873.0 323.0 -909.0C407.0 -910.0 464.0 -907.0 505.0 -885.0C546.0 -864.0 558.0 -828.0 558.0 -761.0V0.0Z"/></g>
<g fill="black" opacity=".8" transform="translate(600 200) scale(0.1 -0.1)"><path d="M0.0 0.0V-122.0H475.0V0.0ZM-74.0 5.0V-399.0C-74.0 -541.0 -81.0 -720.0 -164.0 -840.0C-131.0 -853.0 -73.0 -894.0 -49.0 -916.0C43.0 -782.0 58.0 -559.0 58.0 -399.0V5.0ZM420.0 5.0V-760.0C420.0 -775.0 414.0 -782.0 398.0 -780.0C383.0 -781.0 331.0 -781.0 288.0 -778.0C307.0 -813.0 326.0 -873.0 332.0 -910.0C409.0 -910.0 462.0 -907.0 503.0 -885.0C543.0 -863.0 554.0 -826.0 554.0 -761.0V5.0Z"/></g>
<g fill="red" transform="translate(700 200) scale(0.1 -0.1)"><path d="M0.0 0.0V-29.0H654.0V0.0ZM-16.0 0.0V-300.0C-16.0 -462.0 -28.0 -679.0 -142.0 -839.0C-135.0 -843.0 -124.0 -853.0 -119.0 -859.0C-2.0 -695.0 13.0 -466.0 13.0 -300.0V0.0ZM643.0 0.0V-796.0C643.0 -814.0 636.0 -820.0 617.0 -821.0C599.0 -822.0 535.0 -823.0 457.0 -821.0C462.0 -830.0 468.0 -844.0 470.0 -851.0C563.0 -851.0 613.0 -851.0 637.0 -846.0C662.0 -840.0 673.0 -827.0 673.0 -795.0V0.0Z"/></g>
<g fill="black" opacity=".8" transform="translate(700 200) scale(0.1 -0.1)"><path d="M0.0 0.0V-33.0H653.0V0.0ZM-13.0 -4.0V-293.0C-13.0 -456.0 -27.0 -672.0 -152.0 -832.0C-145.0 -835.0 -132.0 -846.0 -128.0 -852.0C2.0 -690.0 21.0 -461.0 21.0 -294.0V-4.0ZM647.0 -4.0V-792.0C647.0 -809.0 641.0 -816.0 621.0 -816.0C604.0 -817.0 539.0 -818.0 462.0 -816.0C467.0 -826.0 474.0 -840.0 477.0 -849.0C570.0 -850.0 620.0 -850.0 645.0 -843.0C670.0 -837.0 679.0 -823.0 679.0 -791.0V-4.0Z"/></g>
<g fill="red" transform="translate(800 200) scale(0.1 -0.1)"><path d="M0.0 0.0V-134.0H622.0V0.0ZM-88.0 0.0V-362.0C-88.0 -504.0 -95.0 -691.0 -186.0 -814.0C-154.0 -831.0 -92.0 -879.0 -68.0 -906.0C39.0 -766.0 56.0 -526.0 56.0 -362.0V0.0ZM566.0 0.0V-759.0C566.0 -776.0 560.0 -782.0 542.0 -782.0C526.0 -783.0 467.0 -783.0 424.0 -780.0C443.0 -812.0 463.0 -868.0 470.0 -903.0C553.0 -903.0 612.0 -901.0 655.0 -880.0C697.0 -859.0 712.0 -828.0 712.0 -760.0V0.0Z"/></g>
<g fill="black" opacity=".8" transform="translate(800 200) scale(0.1 -0.1)"><path d="M0.0 0.0 -1.0 -141.0H620.0V0.0ZM-91.0 -5.0V-355.0C-91.0 -502.0 -98.0 -693.0 -197.0 -821.0C-159.0 -839.0 -89.0 -889.0 -60.0 -917.0C51.0 -772.0 68.0 -527.0 68.0 -356.0V-5.0ZM554.0 -5.0V-759.0C554.0 -775.0 547.0 -782.0 530.0 -780.0C515.0 -781.0 456.0 -781.0 415.0 -778.0C434.0 -815.0 454.0 -875.0 460.0 -914.0C546.0 -913.0 608.0 -912.0 654.0 -889.0C699.0 -866.0 713.0 -832.0 713.0 -759.0V-5.0Z"/></g>
<g fill="red" transform="translate(900 200) scale(0.1 -0.1)"><path d="M0.0 0.0V-29.0H477.0V0.0ZM-17.0 0.0V-357.0C-17.0 -507.0 -30.0 -696.0 -159.0 -831.0C-152.0 -834.0 -140.0 -841.0 -135.0 -847.0C-4.0 -711.0 13.0 -512.0 13.0 -357.0V0.0ZM464.0 0.0V-788.0C464.0 -803.0 458.0 -807.0 442.0 -808.0C428.0 -809.0 377.0 -810.0 317.0 -808.0C321.0 -817.0 327.0 -830.0 329.0 -839.0C403.0 -839.0 443.0 -839.0 464.0 -833.0C485.0 -827.0 494.0 -815.0 494.0 -787.0V0.0Z"/></g>
<g fill="black" opacity=".8" transform="translate(900 200) scale(0.1 -0.1)"><path d="M0.0 0.0 1.0 -29.0H478.0V0.0ZM-23.0 3.0V-352.0C-23.0 -500.0 -35.0 -691.0 -147.0 -828.0C-141.0 -830.0 -128.0 -838.0 -124.0 -843.0C-8.0 -706.0 7.0 -504.0 7.0 -352.0V3.0ZM462.0 3.0V-785.0C462.0 -799.0 456.0 -805.0 440.0 -805.0C426.0 -806.0 375.0 -807.0 314.0 -805.0C319.0 -814.0 324.0 -827.0 326.0 -835.0C399.0 -836.0 440.0 -836.0 462.0 -830.0C483.0 -824.0 491.0 -811.0 491.0 -784.0V3.0Z"/></g>
<g fill="red" transform="translate(1000 200) scale(0.1 -0.1)"><path d="M0.0 0.0V-126.0H437.0V0.0ZM-62.0 0.0V-394.0C-62.0 -536.0 -70.0 -713.0 -173.0 -831.0C-146.0 -846.0 -94.0 -889.0 -73.0 -913.0C44.0 -781.0 63.0 -555.0 63.0 -394.0V0.0ZM377.0 0.0V-763.0C377.0 -777.0 372.0 -782.0 359.0 -782.0C345.0 -782.0 303.0 -782.0 266.0 -780.0C284.0 -814.0 303.0 -874.0 307.0 -910.0C375.0 -910.0 422.0 -907.0 458.0 -885.0C495.0 -863.0 504.0 -826.0 504.0 -765.0V0.0Z"/></g>
<g fill="black" opacity=".8" transform="translate(1000 200) scale(0.1 -0.1)"><path d="M0.0 0.0V-126.0H443.0V0.0ZM-67.0 3.0V-398.0C-67.0 -541.0 -75.0 -721.0 -168.0 -841.0C-137.0 -855.0 -84.0 -897.0 -63.0 -920.0C42.0 -785.0 58.0 -559.0 58.0 -397.0V3.0ZM381.0 3.0V-766.0C381.0 -780.0 375.0 -785.0 362.0 -784.0C348.0 -785.0 303.0 -785.0 265.0 -782.0C283.0 -817.0 302.0 -877.0 307.0 -912.0C375.0 -912.0 424.0 -909.0 461.0 -887.0C498.0 -865.0 507.0 -828.0 507.0 -767.0V3.0Z"/></g>
<g fill="red" transform="translate(1100 200) scale(0.1 -0.1)"><path d="M0.0 0.0V-30.0H610.0V0.0ZM-15.0 0.0V-216.0C-15.0 -337.0 -30.0 -493.0 -140.0 -609.0C-133.0 -613.0 -123.0 -624.0 -119.0 -630.0C-4.0 -510.0 15.0 -342.0 15.0 -217.0V0.0ZM593.0 0.0V-573.0C593.0 -587.0 588.0 -592.0 572.0 -592.0C557.0 -593.0 504.0 -594.0 438.0 -592.0C443.0 -601.0 448.0 -613.0 451.0 -621.0C529.0 -622.0 572.0 -622.0 594.0 -616.0C615.0 -610.0 622.0 -598.0 622.0 -573.0V0.0Z"/></g>
<g fill="black" opacity=".8" transform="translate(1100 200) scale(0.1 -0.1)"><path d="M0.0 0.0V-26.0H606.0V0.0ZM-17.0 -4.0V-221.0C-17.0 -342.0 -31.0 -498.0 -145.0 -614.0C-140.0 -616.0 -131.0 -625.0 -128.0 -630.0C-9.0 -513.0 10.0 -347.0 10.0 -221.0V-4.0ZM595.0 -4.0V-583.0C595.0 -595.0 590.0 -601.0 574.0 -601.0C561.0 -602.0 513.0 -603.0 452.0 -601.0C456.0 -608.0 461.0 -619.0 463.0 -626.0C538.0 -627.0 574.0 -627.0 593.0 -622.0C613.0 -616.0 619.0 -606.0 619.0 -582.0V-4.0Z"/></g>
<g fill="red" transform="translate(1200 200) scale(0.1 -0.1)"><path d="M0.0 0.0V-114.0H581.0V0.0ZM-90.0 0.0V-308.0C-90.0 -414.0 -96.0 -540.0 -178.0 -625.0C-144.0 -641.0 -79.0 -680.0 -53.0 -703.0C38.0 -607.0 52.0 -440.0 52.0 -310.0V0.0ZM516.0 0.0V-564.0C516.0 -578.0 511.0 -583.0 495.0 -583.0C481.0 -584.0 426.0 -584.0 389.0 -581.0C405.0 -610.0 423.0 -655.0 429.0 -686.0C505.0 -686.0 562.0 -686.0 603.0 -669.0C644.0 -651.0 658.0 -625.0 658.0 -564.0V0.0Z"/></g>
<g fill="black" opacity=".8" transform="translate(1200 200) scale(0.1 -0.1)"><path d="M0.0 0.0V-105.0H570.0V0.0ZM-78.0 -6.0V-301.0C-78.0 -407.0 -85.0 -531.0 -175.0 -614.0C-145.0 -628.0 -90.0 -666.0 -68.0 -687.0C31.0 -592.0 47.0 -428.0 47.0 -301.0V-6.0ZM518.0 -6.0V-566.0C518.0 -579.0 512.0 -584.0 498.0 -583.0C485.0 -584.0 433.0 -584.0 399.0 -581.0C414.0 -609.0 429.0 -652.0 436.0 -682.0C506.0 -682.0 557.0 -681.0 593.0 -664.0C630.0 -647.0 642.0 -622.0 642.0 -565.0V-6.0Z"/></g>
<g fill="red" transform="translate(1300 200) scale(0.1 -0.1)"><path d="M0.0 0.0V-29.0H459.0V0.0ZM-16.0 0.0V-397.0C-16.0 -532.0 -21.0 -710.0 -82.0 -839.0C-75.0 -843.0 -63.0 -851.0 -58.0 -857.0C6.0 -724.0 13.0 -535.0 13.0 -396.0V0.0ZM444.0 0.0V-797.0C444.0 -815.0 439.0 -820.0 420.0 -821.0C402.0 -822.0 336.0 -823.0 263.0 -820.0C268.0 -831.0 273.0 -846.0 275.0 -854.0C357.0 -854.0 414.0 -854.0 440.0 -848.0C464.0 -843.0 473.0 -829.0 473.0 -796.0V0.0Z"/></g>
<g fill="black" opacity=".8" transform="translate(1300 200) scale(0.1 -0.1)"><path d="M0.0 0.0V-29.0H457.0V0.0ZM-9.0 -2.0V-390.0C-9.0 -527.0 -15.0 -709.0 -80.0 -841.0C-73.0 -844.0 -61.0 -853.0 -57.0 -858.0C12.0 -723.0 22.0 -529.0 22.0 -389.0V-2.0ZM443.0 -2.0V-795.0C443.0 -811.0 438.0 -818.0 420.0 -818.0C404.0 -818.0 344.0 -819.0 278.0 -818.0C283.0 -827.0 287.0 -842.0 289.0 -850.0C367.0 -851.0 417.0 -851.0 440.0 -845.0C463.0 -839.0 471.0 -825.0 471.0 -795.0V-2.0Z"/></g>
<g fill="red" transform="translate(1400 200) scale(0.1 -0.1)"><path d="M0.0 0.0V-118.0H392.0V0.0ZM-58.0 0.0V-388.0C-58.0 -526.0 -62.0 -708.0 -122.0 -831.0C-94.0 -845.0 -39.0 -889.0 -18.0 -913.0C56.0 -774.0 68.0 -544.0 68.0 -387.0V0.0ZM339.0 0.0V-756.0C339.0 -771.0 334.0 -777.0 318.0 -777.0C302.0 -778.0 253.0 -778.0 208.0 -775.0C228.0 -809.0 251.0 -873.0 257.0 -910.0C329.0 -910.0 381.0 -906.0 421.0 -883.0C460.0 -861.0 472.0 -822.0 472.0 -759.0V0.0Z"/></g>
<g fill="black" opacity=".8" transform="translate(1400 200) scale(0.1 -0.1)"><path d="M0.0 0.0 -1.0 -119.0H390.0V0.0ZM-64.0 -3.0V-381.0C-64.0 -524.0 -68.0 -714.0 -131.0 -843.0C-98.0 -855.0 -42.0 -894.0 -19.0 -915.0C51.0 -771.0 63.0 -539.0 63.0 -380.0V-3.0ZM335.0 -3.0V-761.0C335.0 -776.0 330.0 -782.0 315.0 -780.0C300.0 -781.0 252.0 -781.0 212.0 -778.0C229.0 -814.0 248.0 -874.0 253.0 -910.0C326.0 -911.0 377.0 -907.0 416.0 -885.0C454.0 -863.0 465.0 -826.0 465.0 -763.0V-3.0Z"/></g>
<g fill="red" transform="translate(1500 200) scale(0.1 -0.1)"><path d="M0.0 0.0V-29.0H477.0V0.0ZM-19.0 0.0V-357.0C-19.0 -504.0 -29.0 -694.0 -132.0 -831.0C-125.0 -834.0 -112.0 -841.0 -107.0 -846.0C-3.0 -709.0 11.0 -508.0 11.0 -357.0V0.0ZM455.0 0.0V-788.0C455.0 -803.0 449.0 -807.0 433.0 -808.0C419.0 -809.0 368.0 -810.0 308.0 -808.0C312.0 -817.0 318.0 -830.0 320.0 -839.0C394.0 -839.0 434.0 -839.0 455.0 -833.0C476.0 -827.0 485.0 -815.0 485.0 -787.0V0.0Z"/></g>
<g fill="black" opacity=".8" transform="translate(1500 200) scale(0.1 -0.1)"><path d="M0.0 0.0V-29.0H471.0V0.0ZM-17.0 -2.0V-356.0C-17.0 -504.0 -29.0 -695.0 -138.0 -833.0C-131.0 -834.0 -119.0 -843.0 -114.0 -847.0C-2.0 -710.0 13.0 -507.0 13.0 -356.0V-2.0ZM457.0 -2.0V-790.0C457.0 -804.0 452.0 -810.0 436.0 -810.0C422.0 -811.0 370.0 -812.0 310.0 -810.0C314.0 -819.0 320.0 -832.0 322.0 -840.0C395.0 -841.0 436.0 -841.0 457.0 -835.0C478.0 -829.0 486.0 -816.0 486.0 -789.0V-2.0Z"/></g>
<g fill="red" transform="translate(1600 200) scale(0.1 -0.1)"><path d="M0.0 0.0V-126.0H437.0V0.0ZM-62.0 0.0V-400.0C-62.0 -542.0 -69.0 -723.0 -156.0 -843.0C-128.0 -858.0 -75.0 -900.0 -54.0 -924.0C47.0 -789.0 63.0 -561.0 63.0 -400.0V0.0ZM377.0 0.0V-771.0C377.0 -785.0 372.0 -790.0 359.0 -790.0C345.0 -791.0 303.0 -791.0 266.0 -788.0C284.0 -823.0 303.0 -885.0 307.0 -922.0C376.0 -922.0 424.0 -918.0 460.0 -896.0C497.0 -873.0 507.0 -835.0 507.0 -774.0V0.0Z"/></g>
<g fill="black" opacity=".8" transform="translate(1600 200) scale(0.1 -0.1)"><path d="M0.0 0.0V-126.0H438.0V0.0ZM-61.0 -3.0V-399.0C-61.0 -543.0 -68.0 -724.0 -159.0 -845.0C-129.0 -859.0 -75.0 -902.0 -54.0 -924.0C49.0 -788.0 65.0 -560.0 65.0 -398.0V-3.0ZM378.0 -3.0V-770.0C378.0 -784.0 372.0 -790.0 359.0 -789.0C345.0 -789.0 301.0 -789.0 263.0 -787.0C281.0 -821.0 300.0 -881.0 305.0 -917.0C373.0 -917.0 421.0 -914.0 458.0 -892.0C495.0 -870.0 504.0 -833.0 504.0 -772.0V-3.0Z"/></g>
<g fill="red" transform="translate(100 300) scale(0.1 -0.1)"><path d="M0.0 0.0V-29.0H481.0V0.0ZM-14.0 0.0V-357.0C-14.0 -504.0 -23.0 -694.0 -124.0 -831.0C-117.0 -834.0 -105.0 -841.0 -100.0 -846.0C2.0 -709.0 16.0 -508.0 16.0 -357.0V0.0ZM473.0 0.0V-791.0C473.0 -807.0 468.0 -812.0 452.0 -813.0C436.0 -813.0 384.0 -814.0 322.0 -812.0C326.0 -821.0 331.0 -834.0 334.0 -841.0C411.0 -842.0 452.0 -841.0 472.0 -837.0C494.0 -831.0 503.0 -819.0 503.0 -791.0V0.0Z"/></g>
<g fill="black" opacity=".8" transform="translate(100 300) scale(0.1 -0.1)"><path d="M0.0 0.0V-30.0H487.0V0.0ZM-22.0 9.0V-357.0C-22.0 -502.0 -31.0 -694.0 -118.0 -833.0C-112.0 -835.0 -99.0 -844.0 -95.0 -850.0C-4.0 -708.0 9.0 -505.0 9.0 -357.0V9.0ZM471.0 9.0V-788.0C471.0 -804.0 466.0 -810.0 448.0 -811.0C432.0 -811.0 373.0 -812.0 306.0 -810.0C311.0 -820.0 316.0 -835.0 318.0 -843.0C398.0 -844.0 446.0 -844.0 469.0 -838.0C492.0 -831.0 500.0 -818.0 500.0 -787.0V9.0Z"/></g>
<g fill="red" transform="translate(200 300) scale(0.1 -0.1)"><path d="M0.0 0.0V-132.0H415.0V0.0ZM-83.0 0.0V-357.0C-83.0 -507.0 -90.0 -709.0 -179.0 -843.0C-146.0 -857.0 -86.0 -893.0 -61.0 -915.0C36.0 -768.0 51.0 -525.0 51.0 -357.0V0.0ZM361.0 0.0V-750.0C361.0 -764.0 356.0 -769.0 343.0 -769.0C329.0 -769.0 286.0 -769.0 249.0 -766.0C267.0 -805.0 286.0 -874.0 289.0 -915.0C361.0 -915.0 411.0 -911.0 450.0 -886.0C488.0 -862.0 498.0 -819.0 498.0 -753.0V0.0Z"/></g>
<g fill="black" opacity=".8" transform="translate(200 300) scale(0.1 -0.1)"><path d="M0.0 0.0V-124.0H433.0V0.0ZM-80.0 10.0V-370.0C-80.0 -515.0 -86.0 -705.0 -162.0 -833.0C-129.0 -846.0 -71.0 -888.0 -47.0 -911.0C38.0 -768.0 52.0 -532.0 52.0 -370.0V10.0ZM370.0 10.0V-756.0C370.0 -771.0 365.0 -777.0 350.0 -775.0C335.0 -776.0 286.0 -776.0 246.0 -773.0C264.0 -809.0 283.0 -870.0 288.0 -906.0C363.0 -907.0 415.0 -903.0 455.0 -881.0C494.0 -859.0 505.0 -822.0 505.0 -757.0V10.0Z"/></g>
<g fill="red" transform="translate(300 300) scale(0.1 -0.1)"><path d="M0.0 0.0V-30.0H301.0V0.0ZM-99.0 172.0V-185.0C-99.0 -335.0 -113.0 -524.0 -241.0 -659.0C-234.0 -662.0 -222.0 -669.0 -217.0 -675.0C-86.0 -539.0 -69.0 -340.0 -69.0 -185.0V172.0ZM374.0 172.0V-616.0C374.0 -631.0 368.0 -635.0 352.0 -636.0C338.0 -637.0 288.0 -638.0 227.0 -636.0C231.0 -645.0 237.0 -658.0 239.0 -666.0C313.0 -666.0 353.0 -666.0 374.0 -660.0C394.0 -655.0 403.0 -642.0 403.0 -615.0V172.0Z"/></g>
<g fill="black" opacity=".8" transform="translate(300 300) scale(0.1 -0.1)"><path d="M0.0 0.0V-30.0H304.0V0.0ZM-102.0 175.0V-184.0C-102.0 -334.0 -116.0 -524.0 -238.0 -660.0C-232.0 -662.0 -220.0 -670.0 -215.0 -675.0C-89.0 -539.0 -72.0 -338.0 -72.0 -185.0V175.0ZM372.0 175.0V-617.0C372.0 -630.0 366.0 -636.0 350.0 -636.0C336.0 -637.0 286.0 -638.0 225.0 -636.0C230.0 -645.0 236.0 -658.0 237.0 -665.0C312.0 -667.0 352.0 -666.0 372.0 -662.0C393.0 -655.0 401.0 -642.0 401.0 -615.0V175.0Z"/></g>
<g fill="red" transform="translate(400 300) scale(0.1 -0.1)"><path d="M0.0 0.0V-100.0H249.0V0.0ZM-156.0 195.0V-203.0C-156.0 -346.0 -164.0 -525.0 -267.0 -644.0C-239.0 -659.0 -187.0 -703.0 -167.0 -726.0C-49.0 -593.0 -31.0 -365.0 -31.0 -203.0V195.0ZM279.0 195.0V-576.0C279.0 -590.0 274.0 -595.0 261.0 -595.0C247.0 -596.0 205.0 -596.0 168.0 -593.0C186.0 -627.0 205.0 -688.0 209.0 -724.0C277.0 -724.0 324.0 -721.0 360.0 -699.0C397.0 -676.0 406.0 -639.0 406.0 -579.0V195.0Z"/></g>
<g fill="black" opacity=".8" transform="translate(400 300) scale(0.1 -0.1)"><path d="M0.0 0.0V-101.0H255.0V0.0ZM-156.0 198.0V-206.0C-156.0 -348.0 -164.0 -526.0 -259.0 -645.0C-231.0 -659.0 -179.0 -703.0 -159.0 -726.0C-51.0 -592.0 -33.0 -367.0 -33.0 -205.0V198.0ZM280.0 198.0V-578.0C280.0 -591.0 275.0 -596.0 262.0 -595.0C249.0 -596.0 207.0 -596.0 173.0 -594.0C190.0 -628.0 208.0 -686.0 213.0 -721.0C279.0 -721.0 325.0 -718.0 361.0 -697.0C397.0 -674.0 405.0 -639.0 405.0 -580.0V198.0Z"/></g>
<g fill="red" transform="translate(500 300) scale(0.1 -0.1)"><path d="M0.0 0.0V-29.0H530.0V0.0ZM-18.0 0.0V-375.0C-18.0 -518.0 -28.0 -699.0 -129.0 -831.0C-122.0 -835.0 -110.0 -844.0 -106.0 -850.0C-2.0 -715.0 11.0 -522.0 11.0 -375.0V0.0ZM512.0 0.0V-785.0C512.0 -802.0 506.0 -807.0 490.0 -808.0C473.0 -809.0 415.0 -810.0 347.0 -808.0C352.0 -818.0 357.0 -832.0 359.0 -841.0C437.0 -841.0 486.0 -841.0 509.0 -835.0C533.0 -829.0 542.0 -815.0 542.0 -785.0V0.0Z"/></g>
<g fill="black" opacity=".8" transform="translate(500 300) scale(0.1 -0.1)"><path d="M0.0 0.0 1.0 -30.0H532.0V0.0ZM-25.0 4.0V-381.0C-25.0 -521.0 -34.0 -702.0 -121.0 -833.0C-114.0 -835.0 -102.0 -844.0 -98.0 -850.0C-7.0 -717.0 6.0 -524.0 6.0 -381.0V4.0ZM507.0 4.0V-786.0C507.0 -802.0 501.0 -809.0 483.0 -809.0C467.0 -809.0 408.0 -810.0 341.0 -809.0C346.0 -818.0 351.0 -832.0 353.0 -841.0C433.0 -842.0 481.0 -842.0 504.0 -836.0C528.0 -829.0 536.0 -816.0 536.0 -786.0V4.0Z"/></g>
<g fill="red" transform="translate(600 300) scale(0.1 -0.1)"><path d="M0.0 0.0V-108.0H460.0V0.0ZM-73.0 0.0V-392.0C-73.0 -536.0 -81.0 -718.0 -180.0 -839.0C-148.0 -854.0 -89.0 -893.0 -65.0 -916.0C45.0 -782.0 61.0 -556.0 61.0 -392.0V0.0ZM396.0 0.0V-759.0C396.0 -776.0 390.0 -782.0 373.0 -782.0C356.0 -782.0 298.0 -783.0 250.0 -780.0C268.0 -814.0 287.0 -873.0 292.0 -909.0C376.0 -910.0 433.0 -907.0 474.0 -885.0C515.0 -864.0 527.0 -828.0 527.0 -761.0V0.0Z"/></g>
<g fill="black" opacity=".8" transform="translate(600 300) scale(0.1 -0.1)"><path d="M0.0 0.0 1.0 -120.0H462.0V0.0ZM-81.0 5.0V-401.0C-81.0 -542.0 -87.0 -720.0 -166.0 -841.0C-132.0 -853.0 -75.0 -893.0 -51.0 -915.0C36.0 -781.0 50.0 -560.0 50.0 -400.0V5.0ZM397.0 5.0V-758.0C397.0 -774.0 391.0 -780.0 375.0 -779.0C360.0 -779.0 308.0 -780.0 265.0 -776.0C283.0 -812.0 303.0 -872.0 309.0 -908.0C385.0 -909.0 439.0 -905.0 479.0 -883.0C519.0 -862.0 530.0 -824.0 530.0 -760.0V5.0Z"/></g>
<g fill="red" transform="translate(700 300) scale(0.1 -0.1)"><path d="M0.0 0.0V-30.0H289.0V0.0ZM-95.0 172.0V-185.0C-95.0 -335.0 -109.0 -524.0 -231.0 -659.0C-226.0 -662.0 -214.0 -669.0 -209.0 -675.0C-83.0 -539.0 -67.0 -340.0 -67.0 -185.0V172.0ZM358.0 172.0V-616.0C358.0 -631.0 353.0 -635.0 338.0 -636.0C324.0 -637.0 276.0 -638.0 217.0 -636.0C221.0 -645.0 227.0 -658.0 229.0 -666.0C300.0 -666.0 339.0 -666.0 358.0 -660.0C378.0 -655.0 387.0 -642.0 387.0 -615.0V172.0Z"/></g>
<g fill="black" opacity=".8" transform="translate(700 300) scale(0.1 -0.1)"><path d="M0.0 0.0V-30.0H289.0V0.0ZM-99.0 173.0V-186.0C-99.0 -334.0 -113.0 -525.0 -233.0 -660.0C-227.0 -662.0 -215.0 -669.0 -211.0 -675.0C-86.0 -539.0 -69.0 -339.0 -69.0 -186.0V173.0ZM358.0 173.0V-617.0C358.0 -630.0 353.0 -636.0 336.0 -636.0C323.0 -637.0 273.0 -638.0 214.0 -636.0C218.0 -645.0 224.0 -658.0 226.0 -665.0C299.0 -667.0 339.0 -666.0 358.0 -661.0C379.0 -655.0 387.0 -642.0 387.0 -615.0V173.0Z"/></g>
<g fill="red" transform="translate(800 300) scale(0.1 -0.1)"><path d="M0.0 0.0V-100.0H240.0V0.0ZM-151.0 195.0V-203.0C-151.0 -346.0 -159.0 -525.0 -259.0 -644.0C-232.0 -659.0 -181.0 -703.0 -162.0 -726.0C-48.0 -593.0 -31.0 -365.0 -31.0 -203.0V195.0ZM269.0 195.0V-576.0C269.0 -590.0 264.0 -595.0 252.0 -595.0C238.0 -596.0 198.0 -596.0 162.0 -593.0C179.0 -627.0 198.0 -688.0 202.0 -724.0C267.0 -724.0 313.0 -721.0 348.0 -699.0C383.0 -676.0 392.0 -639.0 392.0 -579.0V195.0Z"/></g>
<g fill="black" opacity=".8" transform="translate(800 300) scale(0.1 -0.1)"><path d="M0.0 0.0V-101.0H242.0V0.0ZM-151.0 196.0V-205.0C-151.0 -347.0 -159.0 -526.0 -253.0 -645.0C-225.0 -659.0 -174.0 -703.0 -155.0 -725.0C-47.0 -591.0 -31.0 -365.0 -31.0 -204.0V196.0ZM269.0 196.0V-578.0C269.0 -591.0 264.0 -596.0 251.0 -595.0C239.0 -597.0 198.0 -596.0 164.0 -594.0C182.0 -628.0 199.0 -686.0 204.0 -721.0C269.0 -721.0 314.0 -718.0 349.0 -697.0C385.0 -674.0 392.0 -639.0 392.0 -580.0V196.0Z"/></g>
<g fill="red" transform="translate(900 300) scale(0.1 -0.1)"><path d="M0.0 0.0V-29.0H468.0V0.0ZM-17.0 0.0V-357.0C-17.0 -505.0 -28.0 -695.0 -134.0 -831.0C-126.0 -834.0 -114.0 -841.0 -108.0 -846.0C-1.0 -709.0 12.0 -508.0 12.0 -357.0V0.0ZM455.0 0.0V-788.0C455.0 -803.0 450.0 -807.0 434.0 -808.0C420.0 -809.0 370.0 -810.0 308.0 -808.0C313.0 -817.0 319.0 -830.0 321.0 -838.0C395.0 -838.0 435.0 -838.0 455.0 -832.0C476.0 -827.0 485.0 -814.0 485.0 -787.0V0.0Z"/></g>
<g fill="black" opacity=".8" transform="translate(900 300) scale(0.1 -0.1)"><path d="M0.0 0.0V-29.0H462.0V0.0ZM-11.0 -3.0V-358.0C-11.0 -505.0 -23.0 -695.0 -130.0 -831.0C-124.0 -832.0 -111.0 -841.0 -107.0 -845.0C4.0 -709.0 19.0 -509.0 19.0 -358.0V-3.0ZM455.0 -3.0V-788.0C455.0 -802.0 450.0 -808.0 434.0 -808.0C420.0 -809.0 369.0 -810.0 310.0 -808.0C314.0 -817.0 319.0 -830.0 321.0 -838.0C393.0 -839.0 434.0 -839.0 455.0 -833.0C476.0 -827.0 484.0 -814.0 484.0 -787.0V-3.0Z"/></g>
<g fill="red" transform="translate(1000 300) scale(0.1 -0.1)"><path d="M0.0 0.0V-126.0H437.0V0.0ZM-49.0 0.0V-400.0C-49.0 -541.0 -55.0 -722.0 -134.0 -843.0C-106.0 -857.0 -55.0 -898.0 -34.0 -921.0C58.0 -785.0 72.0 -558.0 72.0 -400.0V0.0ZM374.0 0.0V-772.0C374.0 -785.0 370.0 -790.0 357.0 -790.0C344.0 -791.0 304.0 -791.0 269.0 -789.0C286.0 -821.0 304.0 -880.0 308.0 -915.0C373.0 -915.0 418.0 -911.0 453.0 -890.0C488.0 -868.0 497.0 -832.0 497.0 -774.0V0.0Z"/></g>
<g fill="black" opacity=".8" transform="translate(1000 300) scale(0.1 -0.1)"><path d="M0.0 0.0 -2.0 -125.0H429.0V0.0ZM-53.0 -5.0V-401.0C-53.0 -544.0 -60.0 -724.0 -150.0 -845.0C-120.0 -858.0 -67.0 -900.0 -46.0 -922.0C55.0 -787.0 71.0 -560.0 71.0 -400.0V-5.0ZM377.0 -5.0V-769.0C377.0 -783.0 372.0 -789.0 358.0 -788.0C344.0 -788.0 301.0 -788.0 264.0 -786.0C282.0 -820.0 300.0 -880.0 305.0 -915.0C372.0 -915.0 419.0 -912.0 456.0 -890.0C493.0 -868.0 501.0 -831.0 501.0 -771.0V-5.0Z"/></g>
<g fill="red" transform="translate(1100 300) scale(0.1 -0.1)"><path d="M0.0 0.0V-29.0H464.0V0.0ZM-18.0 0.0V-357.0C-18.0 -505.0 -29.0 -695.0 -135.0 -831.0C-127.0 -834.0 -115.0 -841.0 -109.0 -846.0C-3.0 -709.0 11.0 -508.0 11.0 -357.0V0.0ZM454.0 0.0V-788.0C454.0 -803.0 448.0 -807.0 433.0 -808.0C419.0 -809.0 369.0 -810.0 307.0 -808.0C312.0 -817.0 318.0 -830.0 320.0 -838.0C393.0 -838.0 434.0 -838.0 454.0 -832.0C475.0 -827.0 484.0 -814.0 484.0 -787.0V0.0Z"/></g>
<g fill="black" opacity=".8" transform="translate(1100 300) scale(0.1 -0.1)"><path d="M0.0 0.0V-29.0H459.0V0.0ZM-10.0 -3.0V-357.0C-10.0 -505.0 -22.0 -695.0 -131.0 -831.0C-124.0 -833.0 -112.0 -841.0 -107.0 -845.0C5.0 -709.0 20.0 -508.0 20.0 -357.0V-3.0ZM454.0 -3.0V-788.0C454.0 -802.0 449.0 -808.0 433.0 -808.0C419.0 -809.0 368.0 -810.0 309.0 -808.0C313.0 -817.0 319.0 -830.0 321.0 -838.0C393.0 -839.0 433.0 -839.0 454.0 -833.0C475.0 -827.0 482.0 -814.0 482.0 -787.0V-3.0Z"/></g>
<g fill="red" transform="translate(1200 300) scale(0.1 -0.1)"><path d="M0.0 0.0V-126.0H437.0V0.0ZM-49.0 0.0V-400.0C-49.0 -542.0 -55.0 -722.0 -134.0 -843.0C-105.0 -858.0 -51.0 -900.0 -30.0 -924.0C63.0 -788.0 77.0 -560.0 77.0 -400.0V0.0ZM374.0 0.0V-772.0C374.0 -785.0 370.0 -790.0 357.0 -790.0C344.0 -791.0 304.0 -791.0 269.0 -789.0C286.0 -821.0 304.0 -880.0 308.0 -915.0C373.0 -915.0 418.0 -911.0 453.0 -890.0C488.0 -868.0 497.0 -832.0 497.0 -774.0V0.0Z"/></g>
<g fill="black" opacity=".8" transform="translate(1200 300) scale(0.1 -0.1)"><path d="M0.0 0.0 -2.0 -125.0H427.0V0.0ZM-51.0 -5.0V-401.0C-51.0 -544.0 -59.0 -725.0 -149.0 -845.0C-119.0 -859.0 -67.0 -901.0 -46.0 -923.0C56.0 -788.0 72.0 -561.0 72.0 -401.0V-5.0ZM377.0 -5.0V-770.0C377.0 -784.0 372.0 -789.0 358.0 -788.0C345.0 -789.0 302.0 -789.0 264.0 -786.0C282.0 -821.0 300.0 -881.0 305.0 -916.0C372.0 -916.0 419.0 -912.0 456.0 -891.0C493.0 -869.0 501.0 -832.0 501.0 -772.0V-5.0Z"/></g>
<g fill="red" transform="translate(1300 300) scale(0.1 -0.1)"><path d="M0.0 0.0V-30.0H287.0V0.0ZM-96.0 172.0V-185.0C-96.0 -335.0 -109.0 -524.0 -237.0 -659.0C-230.0 -662.0 -218.0 -669.0 -213.0 -675.0C-83.0 -539.0 -66.0 -340.0 -66.0 -185.0V172.0ZM355.0 172.0V-620.0C355.0 -635.0 349.0 -640.0 335.0 -641.0C321.0 -641.0 271.0 -642.0 209.0 -640.0C214.0 -649.0 220.0 -662.0 222.0 -669.0C295.0 -670.0 336.0 -669.0 355.0 -665.0C376.0 -659.0 385.0 -647.0 385.0 -619.0V172.0Z"/></g>
<g fill="black" opacity=".8" transform="translate(1300 300) scale(0.1 -0.1)"><path d="M0.0 0.0V-30.0H286.0V0.0ZM-99.0 173.0V-186.0C-99.0 -334.0 -112.0 -525.0 -229.0 -661.0C-223.0 -663.0 -211.0 -670.0 -206.0 -676.0C-86.0 -539.0 -69.0 -338.0 -69.0 -186.0V173.0ZM355.0 173.0V-618.0C355.0 -631.0 349.0 -637.0 333.0 -637.0C319.0 -638.0 269.0 -639.0 208.0 -637.0C213.0 -646.0 219.0 -659.0 220.0 -666.0C294.0 -668.0 335.0 -667.0 355.0 -662.0C376.0 -656.0 383.0 -643.0 383.0 -616.0V173.0Z"/></g>
<g fill="red" transform="translate(1400 300) scale(0.1 -0.1)"><path d="M0.0 0.0V-100.0H233.0V0.0ZM-153.0 195.0V-201.0C-153.0 -342.0 -160.0 -521.0 -250.0 -640.0C-223.0 -654.0 -172.0 -696.0 -152.0 -719.0C-47.0 -586.0 -31.0 -360.0 -31.0 -201.0V195.0ZM266.0 195.0V-576.0C266.0 -590.0 262.0 -595.0 248.0 -595.0C235.0 -596.0 193.0 -596.0 155.0 -594.0C172.0 -626.0 190.0 -683.0 194.0 -717.0C261.0 -717.0 307.0 -714.0 341.0 -693.0C376.0 -672.0 385.0 -637.0 385.0 -579.0V195.0Z"/></g>
<g fill="black" opacity=".8" transform="translate(1400 300) scale(0.1 -0.1)"><path d="M0.0 0.0V-101.0H238.0V0.0ZM-153.0 196.0V-200.0C-153.0 -343.0 -160.0 -523.0 -252.0 -644.0C-224.0 -658.0 -172.0 -702.0 -152.0 -724.0C-48.0 -588.0 -31.0 -360.0 -31.0 -199.0V196.0ZM263.0 196.0V-577.0C263.0 -590.0 258.0 -595.0 246.0 -594.0C233.0 -595.0 192.0 -595.0 159.0 -593.0C176.0 -627.0 193.0 -685.0 198.0 -720.0C263.0 -720.0 309.0 -717.0 344.0 -696.0C380.0 -673.0 388.0 -638.0 388.0 -579.0V196.0Z"/></g>
<g fill="red" transform="translate(1500 300) scale(0.1 -0.1)"><path d="M0.0 0.0V-29.0H477.0V0.0ZM-14.0 0.0V-357.0C-14.0 -505.0 -25.0 -695.0 -133.0 -831.0C-125.0 -834.0 -113.0 -841.0 -107.0 -846.0C2.0 -709.0 15.0 -509.0 15.0 -357.0V0.0ZM458.0 0.0V-788.0C458.0 -803.0 452.0 -807.0 437.0 -808.0C423.0 -809.0 373.0 -810.0 311.0 -808.0C316.0 -817.0 322.0 -830.0 324.0 -838.0C397.0 -838.0 438.0 -838.0 458.0 -832.0C479.0 -827.0 488.0 -814.0 488.0 -787.0V0.0Z"/></g>
<g fill="black" opacity=".8" transform="translate(1500 300) scale(0.1 -0.1)"><path d="M0.0 0.0 1.0 -29.0H474.0V0.0ZM-19.0 -1.0V-359.0C-19.0 -506.0 -31.0 -696.0 -138.0 -832.0C-131.0 -834.0 -119.0 -842.0 -115.0 -847.0C-4.0 -710.0 11.0 -509.0 11.0 -359.0V-1.0ZM458.0 -1.0V-789.0C458.0 -803.0 452.0 -809.0 436.0 -809.0C422.0 -810.0 370.0 -811.0 309.0 -809.0C314.0 -818.0 319.0 -832.0 321.0 -839.0C394.0 -841.0 436.0 -840.0 457.0 -835.0C478.0 -829.0 486.0 -815.0 486.0 -788.0V-1.0Z"/></g>
<g fill="red" transform="translate(1600 300) scale(0.1 -0.1)"><path d="M0.0 0.0V-126.0H437.0V0.0ZM-62.0 0.0V-398.0C-62.0 -541.0 -70.0 -720.0 -173.0 -839.0C-145.0 -854.0 -93.0 -898.0 -73.0 -921.0C45.0 -788.0 63.0 -560.0 63.0 -398.0V0.0ZM371.0 0.0V-771.0C371.0 -785.0 366.0 -790.0 353.0 -790.0C339.0 -791.0 297.0 -791.0 260.0 -788.0C278.0 -822.0 297.0 -883.0 301.0 -919.0C369.0 -919.0 416.0 -916.0 452.0 -894.0C489.0 -871.0 498.0 -834.0 498.0 -774.0V0.0Z"/></g>
<g fill="black" opacity=".8" transform="translate(1600 300) scale(0.1 -0.1)"><path d="M0.0 0.0V-125.0H437.0V0.0ZM-64.0 -1.0V-400.0C-64.0 -543.0 -72.0 -724.0 -161.0 -845.0C-131.0 -858.0 -77.0 -900.0 -56.0 -922.0C45.0 -787.0 61.0 -560.0 61.0 -399.0V-1.0ZM375.0 -1.0V-769.0C375.0 -783.0 370.0 -788.0 356.0 -787.0C342.0 -788.0 297.0 -788.0 259.0 -785.0C277.0 -820.0 296.0 -880.0 301.0 -916.0C369.0 -916.0 418.0 -912.0 455.0 -890.0C492.0 -868.0 501.0 -831.0 501.0 -770.0V-1.0Z"/></g>
<g fill="red" transform="translate(100 400) scale(0.1 -0.1)"><path d="M0.0 0.0V-29.0H451.0V0.0ZM-10.0 0.0V-358.0C-10.0 -501.0 -18.0 -694.0 -98.0 -831.0C-91.0 -833.0 -79.0 -841.0 -73.0 -845.0C9.0 -707.0 19.0 -505.0 19.0 -357.0V0.0ZM438.0 0.0V-788.0C438.0 -803.0 432.0 -807.0 416.0 -808.0C403.0 -809.0 353.0 -810.0 291.0 -808.0C296.0 -817.0 302.0 -830.0 304.0 -838.0C377.0 -838.0 417.0 -838.0 438.0 -832.0C458.0 -827.0 467.0 -814.0 467.0 -787.0V0.0Z"/></g>
<g fill="black" opacity=".8" transform="translate(100 400) scale(0.1 -0.1)"><path d="M0.0 0.0V-28.0H451.0V0.0ZM-15.0 -0.0V-380.0C-15.0 -521.0 -24.0 -703.0 -110.0 -834.0C-104.0 -836.0 -91.0 -844.0 -87.0 -849.0C3.0 -717.0 15.0 -523.0 15.0 -380.0V-0.0ZM435.0 -0.0V-788.0C435.0 -804.0 430.0 -809.0 413.0 -810.0C399.0 -810.0 344.0 -811.0 283.0 -809.0C288.0 -819.0 293.0 -832.0 294.0 -840.0C368.0 -842.0 412.0 -841.0 434.0 -835.0C455.0 -830.0 463.0 -816.0 463.0 -788.0V-0.0Z"/></g>
<g fill="red" transform="translate(200 400) scale(0.1 -0.1)"><path d="M0.0 0.0V-126.0H397.0V0.0ZM-67.0 0.0V-403.0C-67.0 -545.0 -72.0 -728.0 -140.0 -852.0C-114.0 -865.0 -64.0 -903.0 -44.0 -924.0C36.0 -787.0 48.0 -560.0 48.0 -403.0V0.0ZM334.0 0.0V-772.0C334.0 -786.0 330.0 -790.0 318.0 -790.0C305.0 -791.0 267.0 -791.0 232.0 -789.0C248.0 -820.0 264.0 -876.0 268.0 -909.0C331.0 -909.0 376.0 -906.0 409.0 -886.0C442.0 -865.0 451.0 -831.0 451.0 -775.0V0.0Z"/></g>
<g fill="black" opacity=".8" transform="translate(200 400) scale(0.1 -0.1)"><path d="M0.0 0.0 -1.0 -120.0H398.0V0.0ZM-61.0 -1.0V-397.0C-61.0 -540.0 -67.0 -722.0 -143.0 -845.0C-113.0 -857.0 -60.0 -896.0 -38.0 -917.0C47.0 -780.0 61.0 -555.0 61.0 -396.0V-1.0ZM342.0 -1.0V-764.0C342.0 -778.0 336.0 -784.0 322.0 -783.0C308.0 -783.0 263.0 -784.0 224.0 -780.0C242.0 -815.0 260.0 -875.0 265.0 -911.0C334.0 -911.0 382.0 -907.0 420.0 -886.0C456.0 -864.0 465.0 -826.0 465.0 -766.0V-1.0Z"/></g>
<g fill="red" transform="translate(300 400) scale(0.1 -0.1)"><path d="M0.0 0.0V-30.0H301.0V0.0ZM-108.0 172.0V-185.0C-108.0 -332.0 -118.0 -522.0 -217.0 -659.0C-210.0 -662.0 -197.0 -669.0 -192.0 -673.0C-91.0 -536.0 -78.0 -335.0 -78.0 -185.0V172.0ZM383.0 172.0V-620.0C383.0 -635.0 377.0 -640.0 362.0 -641.0C348.0 -641.0 298.0 -642.0 236.0 -640.0C241.0 -649.0 247.0 -662.0 249.0 -669.0C322.0 -670.0 363.0 -669.0 383.0 -665.0C404.0 -659.0 413.0 -647.0 413.0 -619.0V172.0Z"/></g>
<g fill="black" opacity=".8" transform="translate(300 400) scale(0.1 -0.1)"><path d="M0.0 0.0V-31.0H312.0V0.0ZM-99.0 176.0V-190.0C-99.0 -338.0 -111.0 -527.0 -224.0 -663.0C-218.0 -665.0 -206.0 -673.0 -201.0 -679.0C-85.0 -542.0 -68.0 -342.0 -68.0 -190.0V176.0ZM383.0 176.0V-619.0C383.0 -633.0 378.0 -639.0 360.0 -639.0C346.0 -640.0 293.0 -641.0 229.0 -639.0C234.0 -648.0 240.0 -662.0 242.0 -669.0C319.0 -671.0 362.0 -670.0 382.0 -665.0C404.0 -659.0 412.0 -645.0 412.0 -617.0V176.0Z"/></g>
<g fill="red" transform="translate(400 400) scale(0.1 -0.1)"><path d="M0.0 0.0V-100.0H249.0V0.0ZM-162.0 195.0V-203.0C-162.0 -344.0 -168.0 -524.0 -248.0 -644.0C-220.0 -659.0 -167.0 -701.0 -146.0 -724.0C-52.0 -589.0 -37.0 -362.0 -37.0 -203.0V195.0ZM283.0 195.0V-576.0C283.0 -590.0 278.0 -595.0 265.0 -595.0C251.0 -596.0 209.0 -596.0 172.0 -593.0C190.0 -627.0 209.0 -688.0 213.0 -724.0C281.0 -724.0 328.0 -721.0 364.0 -699.0C401.0 -676.0 410.0 -639.0 410.0 -579.0V195.0Z"/></g>
<g fill="black" opacity=".8" transform="translate(400 400) scale(0.1 -0.1)"><path d="M0.0 0.0 -1.0 -100.0H254.0V0.0ZM-157.0 199.0V-200.0C-157.0 -343.0 -165.0 -523.0 -253.0 -644.0C-224.0 -658.0 -170.0 -702.0 -150.0 -724.0C-48.0 -588.0 -32.0 -361.0 -32.0 -200.0V199.0ZM283.0 199.0V-575.0C283.0 -589.0 278.0 -595.0 264.0 -593.0C251.0 -595.0 207.0 -595.0 172.0 -592.0C190.0 -626.0 207.0 -685.0 212.0 -720.0C281.0 -720.0 329.0 -718.0 365.0 -696.0C403.0 -674.0 411.0 -638.0 411.0 -577.0V199.0Z"/></g>
<g fill="red" transform="translate(500 400) scale(0.1 -0.1)"><path d="M0.0 0.0V-29.0H286.0V0.0ZM-89.0 166.0V-232.0C-89.0 -372.0 -98.0 -550.0 -193.0 -677.0C-184.0 -681.0 -172.0 -689.0 -168.0 -695.0C-71.0 -564.0 -59.0 -375.0 -59.0 -232.0V166.0ZM346.0 166.0V-634.0C346.0 -650.0 339.0 -655.0 322.0 -656.0C306.0 -656.0 251.0 -657.0 184.0 -655.0C188.0 -664.0 194.0 -676.0 196.0 -683.0C279.0 -684.0 323.0 -684.0 344.0 -678.0C366.0 -673.0 376.0 -661.0 376.0 -634.0V166.0Z"/></g>
<g fill="black" opacity=".8" transform="translate(500 400) scale(0.1 -0.1)"><path d="M0.0 0.0V-29.0H283.0V0.0ZM-89.0 164.0V-224.0C-89.0 -364.0 -98.0 -545.0 -185.0 -676.0C-179.0 -678.0 -167.0 -686.0 -163.0 -692.0C-72.0 -560.0 -59.0 -367.0 -59.0 -223.0V164.0ZM348.0 164.0V-630.0C348.0 -645.0 343.0 -651.0 326.0 -651.0C311.0 -652.0 256.0 -653.0 192.0 -651.0C197.0 -660.0 202.0 -674.0 204.0 -682.0C280.0 -683.0 326.0 -683.0 347.0 -677.0C369.0 -671.0 377.0 -658.0 377.0 -629.0V164.0Z"/></g>
<g fill="red" transform="translate(600 400) scale(0.1 -0.1)"><path d="M0.0 0.0V-91.0H219.0V0.0ZM-148.0 192.0V-208.0C-148.0 -349.0 -153.0 -534.0 -218.0 -660.0C-188.0 -671.0 -134.0 -702.0 -111.0 -720.0C-39.0 -584.0 -28.0 -363.0 -28.0 -208.0V192.0ZM240.0 192.0V-580.0C240.0 -594.0 235.0 -598.0 223.0 -598.0C209.0 -599.0 169.0 -599.0 133.0 -597.0C151.0 -629.0 169.0 -686.0 173.0 -720.0C240.0 -720.0 286.0 -716.0 322.0 -695.0C357.0 -674.0 366.0 -639.0 366.0 -583.0V192.0Z"/></g>
<g fill="black" opacity=".8" transform="translate(600 400) scale(0.1 -0.1)"><path d="M0.0 0.0 -1.0 -96.0H212.0V0.0ZM-147.0 185.0V-206.0C-147.0 -347.0 -153.0 -531.0 -225.0 -656.0C-196.0 -668.0 -143.0 -709.0 -123.0 -730.0C-40.0 -591.0 -26.0 -363.0 -26.0 -205.0V185.0ZM238.0 185.0V-582.0C238.0 -596.0 234.0 -602.0 220.0 -600.0C207.0 -601.0 164.0 -602.0 127.0 -599.0C145.0 -633.0 162.0 -692.0 167.0 -727.0C235.0 -727.0 283.0 -724.0 319.0 -703.0C355.0 -681.0 364.0 -645.0 364.0 -584.0V185.0Z"/></g>
<g fill="red" transform="translate(700 400) scale(0.1 -0.1)"><path d="M0.0 0.0V-29.0H486.0V0.0ZM-15.0 0.0V-260.0C-15.0 -390.0 -22.0 -567.0 -89.0 -699.0C-82.0 -702.0 -70.0 -711.0 -65.0 -717.0C4.0 -581.0 14.0 -394.0 14.0 -260.0V0.0ZM474.0 0.0V-674.0C474.0 -689.0 468.0 -694.0 452.0 -694.0C439.0 -695.0 388.0 -696.0 324.0 -694.0C329.0 -702.0 335.0 -714.0 337.0 -722.0C414.0 -722.0 454.0 -722.0 475.0 -716.0C494.0 -711.0 503.0 -700.0 503.0 -673.0V0.0Z"/></g>
<g fill="black" opacity=".8" transform="translate(700 400) scale(0.1 -0.1)"><path d="M0.0 0.0 -1.0 -27.0H485.0V0.0ZM-7.0 1.0V-257.0C-7.0 -387.0 -13.0 -566.0 -79.0 -700.0C-74.0 -703.0 -63.0 -712.0 -60.0 -717.0C10.0 -580.0 22.0 -390.0 22.0 -257.0V1.0ZM478.0 1.0V-665.0C478.0 -680.0 474.0 -687.0 455.0 -687.0C440.0 -688.0 381.0 -688.0 313.0 -687.0C318.0 -695.0 323.0 -709.0 325.0 -716.0C405.0 -717.0 452.0 -717.0 475.0 -711.0C497.0 -706.0 504.0 -693.0 504.0 -664.0V1.0Z"/></g>
<g fill="red" transform="translate(800 400) scale(0.1 -0.1)"><path d="M0.0 0.0V-116.0H442.0V0.0ZM-80.0 0.0V-259.0C-80.0 -381.0 -82.0 -555.0 -125.0 -675.0C-92.0 -687.0 -32.0 -721.0 -6.0 -741.0C43.0 -608.0 51.0 -399.0 51.0 -259.0V0.0ZM379.0 0.0V-618.0C379.0 -630.0 375.0 -635.0 363.0 -635.0C351.0 -635.0 313.0 -635.0 283.0 -633.0C299.0 -666.0 315.0 -719.0 319.0 -754.0C383.0 -754.0 431.0 -752.0 466.0 -732.0C502.0 -711.0 512.0 -679.0 512.0 -620.0V0.0Z"/></g>
<g fill="black" opacity=".8" transform="translate(800 400) scale(0.1 -0.1)"><path d="M0.0 0.0 -2.0 -114.0H442.0V0.0ZM-80.0 -1.0V-259.0C-80.0 -383.0 -84.0 -558.0 -140.0 -678.0C-107.0 -690.0 -47.0 -731.0 -23.0 -753.0C41.0 -619.0 53.0 -402.0 53.0 -259.0V-1.0ZM385.0 -1.0V-623.0C385.0 -636.0 381.0 -642.0 366.0 -640.0C354.0 -641.0 305.0 -641.0 271.0 -638.0C287.0 -670.0 302.0 -720.0 308.0 -753.0C379.0 -753.0 432.0 -752.0 471.0 -733.0C508.0 -714.0 520.0 -684.0 520.0 -623.0V-1.0Z"/></g>
<g fill="red" transform="translate(900 400) scale(0.1 -0.1)"><path d="M0.0 0.0V-30.0H274.0V0.0ZM-84.0 172.0V-225.0C-84.0 -360.0 -89.0 -538.0 -150.0 -667.0C-143.0 -671.0 -131.0 -679.0 -126.0 -685.0C-63.0 -552.0 -55.0 -363.0 -55.0 -224.0V172.0ZM332.0 172.0V-615.0C332.0 -631.0 327.0 -635.0 312.0 -636.0C296.0 -637.0 240.0 -637.0 178.0 -636.0C184.0 -646.0 189.0 -661.0 191.0 -669.0C262.0 -669.0 310.0 -669.0 332.0 -663.0C354.0 -657.0 362.0 -644.0 362.0 -614.0V172.0Z"/></g>
<g fill="black" opacity=".8" transform="translate(900 400) scale(0.1 -0.1)"><path d="M0.0 0.0V-29.0H269.0V0.0ZM-84.0 165.0V-224.0C-84.0 -359.0 -90.0 -537.0 -165.0 -665.0C-159.0 -668.0 -147.0 -676.0 -143.0 -681.0C-65.0 -551.0 -54.0 -362.0 -54.0 -223.0V165.0ZM339.0 165.0V-620.0C339.0 -635.0 334.0 -641.0 316.0 -641.0C301.0 -642.0 244.0 -642.0 180.0 -641.0C185.0 -650.0 190.0 -664.0 191.0 -672.0C268.0 -673.0 315.0 -673.0 337.0 -667.0C360.0 -661.0 367.0 -648.0 367.0 -619.0V165.0Z"/></g>
<g fill="red" transform="translate(1000 400) scale(0.1 -0.1)"><path d="M0.0 0.0V-98.0H202.0V0.0ZM-149.0 193.0V-195.0C-149.0 -333.0 -153.0 -515.0 -210.0 -638.0C-184.0 -652.0 -131.0 -696.0 -111.0 -720.0C-41.0 -581.0 -30.0 -351.0 -30.0 -194.0V193.0ZM229.0 193.0V-569.0C229.0 -583.0 225.0 -589.0 210.0 -589.0C197.0 -589.0 152.0 -590.0 116.0 -587.0C132.0 -620.0 149.0 -678.0 153.0 -713.0C224.0 -713.0 272.0 -710.0 307.0 -689.0C344.0 -668.0 354.0 -633.0 354.0 -571.0V193.0Z"/></g>
<g fill="black" opacity=".8" transform="translate(1000 400) scale(0.1 -0.1)"><path d="M0.0 0.0 -2.0 -93.0H191.0V0.0ZM-144.0 185.0V-191.0C-144.0 -331.0 -149.0 -516.0 -212.0 -642.0C-183.0 -653.0 -130.0 -692.0 -109.0 -713.0C-37.0 -573.0 -25.0 -346.0 -25.0 -190.0V185.0ZM224.0 185.0V-568.0C224.0 -581.0 220.0 -587.0 206.0 -586.0C193.0 -587.0 149.0 -587.0 113.0 -584.0C131.0 -618.0 147.0 -676.0 152.0 -711.0C220.0 -712.0 268.0 -708.0 304.0 -687.0C340.0 -665.0 349.0 -630.0 349.0 -570.0V185.0Z"/></g>
<g fill="red" transform="translate(1100 400) scale(0.1 -0.1)"><path d="M0 0.0V-29.0H354.0V0.0ZM-16.0 0.0V-393.0C-16.0 -527.0 -21.0 -703.0 -84.0 -831.0C-77.0 -834.0 -64.0 -842.0 -59.0 -848.0C6.0 -718.0 13.0 -530.0 13.0 -392.0V0.0ZM334.0 0.0V-785.0C334.0 -800.0 330.0 -803.0 316.0 -804.0C302.0 -804.0 255.0 -805.0 201.0 -803.0C206.0 -813.0 210.0 -828.0 212.0 -836.0C275.0 -837.0 316.0 -836.0 337.0 -830.0C356.0 -824.0 363.0 -812.0 363.0 -785.0V0.0Z"/></g>
<g fill="black" opacity=".8" transform="translate(1100 400) scale(0.1 -0.1)"><path d="M0.0 0.0V-27.0H357.0V0.0ZM-4.0 -8.0V-380.0C-4.0 -519.0 -12.0 -699.0 -96.0 -827.0C-89.0 -829.0 -77.0 -836.0 -73.0 -840.0C13.0 -711.0 24.0 -521.0 24.0 -379.0V-8.0ZM349.0 -8.0V-784.0C349.0 -798.0 344.0 -803.0 329.0 -804.0C316.0 -804.0 268.0 -805.0 215.0 -803.0C219.0 -812.0 224.0 -825.0 225.0 -832.0C289.0 -834.0 329.0 -833.0 349.0 -828.0C368.0 -822.0 376.0 -809.0 376.0 -783.0V-8.0Z"/></g>
<g fill="red" transform="translate(1200 400) scale(0.1 -0.1)"><path d="M0 0.0V-121.0H334.0V0.0ZM-53.0 0.0V-410.0C-53.0 -547.0 -55.0 -729.0 -98.0 -852.0C-69.0 -862.0 -16.0 -890.0 7.0 -908.0C55.0 -774.0 62.0 -560.0 62.0 -410.0V0.0ZM289.0 0.0V-754.0C289.0 -768.0 285.0 -773.0 272.0 -773.0C258.0 -773.0 218.0 -774.0 178.0 -771.0C197.0 -804.0 219.0 -865.0 224.0 -900.0C284.0 -900.0 328.0 -895.0 363.0 -874.0C398.0 -852.0 407.0 -813.0 407.0 -757.0V0.0Z"/></g>
<g fill="black" opacity=".8" transform="translate(1200 400) scale(0.1 -0.1)"><path d="M0.0 0.0 -2.0 -119.0H323.0V0.0ZM-36.0 -10.0V-393.0C-36.0 -535.0 -42.0 -719.0 -116.0 -843.0C-89.0 -854.0 -42.0 -893.0 -23.0 -912.0C60.0 -774.0 74.0 -547.0 74.0 -392.0V-10.0ZM274.0 -10.0V-764.0C274.0 -777.0 270.0 -782.0 258.0 -781.0C245.0 -781.0 209.0 -782.0 174.0 -779.0C191.0 -812.0 208.0 -872.0 212.0 -906.0C272.0 -906.0 313.0 -902.0 346.0 -881.0C379.0 -859.0 386.0 -822.0 386.0 -767.0V-10.0Z"/></g>
<g fill="red" transform="translate(1300 400) scale(0.1 -0.1)"><path d="M0.0 0.0V-30.0H305.0V0.0ZM-85.0 172.0V-225.0C-85.0 -360.0 -90.0 -538.0 -151.0 -667.0C-144.0 -671.0 -132.0 -679.0 -127.0 -685.0C-64.0 -552.0 -56.0 -363.0 -56.0 -224.0V172.0ZM361.0 172.0V-613.0C361.0 -630.0 356.0 -635.0 338.0 -636.0C321.0 -637.0 259.0 -638.0 189.0 -636.0C195.0 -646.0 200.0 -661.0 202.0 -669.0C281.0 -669.0 334.0 -670.0 358.0 -664.0C381.0 -657.0 390.0 -644.0 390.0 -612.0V172.0Z"/></g>
<g fill="black" opacity=".8" transform="translate(1300 400) scale(0.1 -0.1)"><path d="M0.0 0.0V-29.0H294.0V0.0ZM-86.0 167.0V-232.0C-86.0 -365.0 -92.0 -540.0 -160.0 -666.0C-154.0 -669.0 -142.0 -678.0 -139.0 -683.0C-66.0 -554.0 -56.0 -368.0 -56.0 -231.0V167.0ZM361.0 167.0V-620.0C361.0 -635.0 355.0 -642.0 337.0 -642.0C321.0 -642.0 262.0 -643.0 194.0 -642.0C200.0 -651.0 205.0 -665.0 206.0 -673.0C286.0 -675.0 335.0 -674.0 358.0 -669.0C381.0 -662.0 389.0 -649.0 389.0 -619.0V167.0Z"/></g>
<g fill="red" transform="translate(1400 400) scale(0.1 -0.1)"><path d="M0.0 0.0V-98.0H207.0V0.0ZM-152.0 193.0V-195.0C-152.0 -333.0 -156.0 -515.0 -214.0 -638.0C-187.0 -652.0 -133.0 -696.0 -113.0 -720.0C-41.0 -581.0 -29.0 -351.0 -29.0 -194.0V193.0ZM235.0 193.0V-569.0C235.0 -583.0 231.0 -589.0 216.0 -589.0C202.0 -589.0 157.0 -590.0 119.0 -587.0C136.0 -620.0 154.0 -678.0 157.0 -713.0C230.0 -713.0 279.0 -710.0 315.0 -689.0C352.0 -668.0 363.0 -633.0 363.0 -571.0V193.0Z"/></g>
<g fill="black" opacity=".8" transform="translate(1400 400) scale(0.1 -0.1)"><path d="M0.0 0.0 -2.0 -91.0H204.0V0.0ZM-151.0 188.0V-192.0C-151.0 -332.0 -156.0 -516.0 -215.0 -641.0C-185.0 -652.0 -131.0 -691.0 -109.0 -711.0C-41.0 -572.0 -29.0 -347.0 -29.0 -191.0V188.0ZM235.0 188.0V-565.0C235.0 -579.0 231.0 -585.0 216.0 -583.0C203.0 -584.0 156.0 -585.0 118.0 -582.0C135.0 -616.0 153.0 -674.0 158.0 -709.0C229.0 -710.0 279.0 -706.0 317.0 -685.0C353.0 -664.0 364.0 -628.0 364.0 -567.0V188.0Z"/></g>
<g fill="red" transform="translate(1500 400) scale(0.1 -0.1)"><path d="M0.0 0.0 -21.0 -29.0H195.0V0.0ZM273.0 61.0V-338.0C273.0 -476.0 267.0 -654.0 187.0 -782.0C194.0 -786.0 206.0 -794.0 211.0 -800.0C292.0 -669.0 303.0 -479.0 303.0 -337.0V61.0ZM684.0 61.0V-739.0C684.0 -755.0 678.0 -760.0 662.0 -760.0C647.0 -761.0 595.0 -762.0 532.0 -760.0C537.0 -769.0 541.0 -782.0 544.0 -790.0C621.0 -791.0 664.0 -790.0 684.0 -785.0C705.0 -779.0 714.0 -767.0 714.0 -739.0V61.0Z"/></g>
<g fill="black" opacity=".8" transform="translate(1500 400) scale(0.1 -0.1)"><path d="M0.0 0.0 -20.0 -29.0H195.0V0.0ZM272.0 62.0V-339.0C272.0 -477.0 265.0 -654.0 188.0 -783.0C195.0 -786.0 207.0 -794.0 212.0 -800.0C291.0 -669.0 301.0 -479.0 301.0 -338.0V62.0ZM683.0 62.0V-739.0C683.0 -755.0 677.0 -761.0 660.0 -761.0C646.0 -761.0 593.0 -762.0 531.0 -761.0C536.0 -769.0 539.0 -783.0 543.0 -790.0C620.0 -792.0 662.0 -791.0 683.0 -786.0C704.0 -779.0 712.0 -767.0 712.0 -739.0V62.0Z"/></g>
<g fill="red" transform="translate(1600 400) scale(0.1 -0.1)"><path d="M0.0 0.0 -72.0 -102.0H157.0V0.0ZM262.0 46.0V-354.0C262.0 -495.0 258.0 -681.0 201.0 -806.0C229.0 -817.0 282.0 -849.0 305.0 -868.0C370.0 -731.0 379.0 -509.0 379.0 -354.0V46.0ZM627.0 46.0V-726.0C627.0 -740.0 623.0 -744.0 610.0 -744.0C598.0 -745.0 560.0 -745.0 527.0 -743.0C544.0 -775.0 561.0 -834.0 564.0 -868.0C628.0 -868.0 672.0 -865.0 707.0 -843.0C740.0 -822.0 749.0 -786.0 749.0 -729.0V46.0Z"/></g>
<g fill="black" opacity=".8" transform="translate(1600 400) scale(0.1 -0.1)"><path d="M0.0 0.0 -72.0 -102.0H159.0V0.0ZM262.0 47.0V-355.0C262.0 -496.0 258.0 -681.0 204.0 -806.0C232.0 -817.0 285.0 -849.0 308.0 -868.0C369.0 -730.0 378.0 -510.0 378.0 -355.0V47.0ZM628.0 47.0V-726.0C628.0 -740.0 624.0 -744.0 610.0 -743.0C599.0 -744.0 561.0 -745.0 529.0 -742.0C547.0 -774.0 563.0 -833.0 567.0 -868.0C629.0 -868.0 673.0 -864.0 708.0 -842.0C741.0 -821.0 750.0 -785.0 750.0 -729.0V47.0Z"/></g>
<g fill="red" transform="translate(100 500) scale(0.1 -0.1)"><path d="M0.0 0.0V-30.0H301.0V0.0ZM-99.0 172.0V-185.0C-99.0 -335.0 -113.0 -524.0 -241.0 -659.0C-234.0 -662.0 -223.0 -669.0 -218.0 -675.0C-86.0 -539.0 -70.0 -340.0 -70.0 -185.0V172.0ZM373.0 172.0V-616.0C373.0 -631.0 367.0 -635.0 352.0 -636.0C338.0 -637.0 288.0 -638.0 226.0 -636.0C231.0 -645.0 237.0 -658.0 239.0 -666.0C313.0 -666.0 353.0 -666.0 373.0 -660.0C394.0 -655.0 403.0 -642.0 403.0 -615.0V172.0Z"/></g>
<g fill="black" opacity=".8" transform="translate(100 500) scale(0.1 -0.1)"><path d="M0.0 0.0V-30.0H301.0V0.0ZM-102.0 176.0V-190.0C-102.0 -338.0 -115.0 -526.0 -234.0 -660.0C-228.0 -662.0 -216.0 -670.0 -211.0 -675.0C-89.0 -541.0 -71.0 -342.0 -71.0 -191.0V176.0ZM369.0 176.0V-616.0C369.0 -630.0 363.0 -636.0 347.0 -636.0C333.0 -637.0 282.0 -638.0 222.0 -636.0C226.0 -645.0 232.0 -658.0 234.0 -665.0C308.0 -667.0 349.0 -666.0 369.0 -661.0C390.0 -655.0 398.0 -642.0 398.0 -615.0V176.0Z"/></g>
<g fill="red" transform="translate(200 500) scale(0.1 -0.1)"><path d="M0.0 0.0V-100.0H242.0V0.0ZM-151.0 195.0V-203.0C-151.0 -346.0 -159.0 -525.0 -258.0 -644.0C-231.0 -659.0 -181.0 -703.0 -161.0 -726.0C-47.0 -593.0 -30.0 -365.0 -30.0 -203.0V195.0ZM270.0 195.0V-576.0C270.0 -590.0 265.0 -595.0 252.0 -595.0C239.0 -596.0 198.0 -596.0 162.0 -593.0C179.0 -627.0 198.0 -688.0 202.0 -724.0C268.0 -724.0 313.0 -721.0 348.0 -699.0C384.0 -676.0 393.0 -639.0 393.0 -579.0V195.0Z"/></g>
<g fill="black" opacity=".8" transform="translate(200 500) scale(0.1 -0.1)"><path d="M0.0 0.0V-100.0H248.0V0.0ZM-155.0 199.0V-208.0C-155.0 -350.0 -163.0 -527.0 -256.0 -646.0C-228.0 -659.0 -176.0 -703.0 -157.0 -725.0C-51.0 -591.0 -34.0 -368.0 -34.0 -207.0V199.0ZM274.0 199.0V-577.0C274.0 -590.0 269.0 -596.0 256.0 -594.0C243.0 -596.0 201.0 -596.0 166.0 -593.0C184.0 -627.0 202.0 -685.0 206.0 -720.0C273.0 -720.0 319.0 -717.0 354.0 -696.0C391.0 -674.0 399.0 -638.0 399.0 -579.0V199.0Z"/></g>
<g fill="red" transform="translate(300 500) scale(0.1 -0.1)"><path d="M0.0 0.0V-29.0H291.0V0.0ZM-96.0 166.0V-232.0C-96.0 -372.0 -105.0 -550.0 -202.0 -677.0C-193.0 -681.0 -181.0 -689.0 -177.0 -695.0C-77.0 -565.0 -64.0 -376.0 -64.0 -232.0V166.0ZM358.0 166.0V-634.0C358.0 -650.0 353.0 -655.0 335.0 -655.0C318.0 -656.0 262.0 -657.0 195.0 -655.0C200.0 -664.0 205.0 -677.0 207.0 -685.0C291.0 -686.0 337.0 -685.0 358.0 -680.0C381.0 -674.0 392.0 -662.0 392.0 -634.0V166.0Z"/></g>
<g fill="black" opacity=".8" transform="translate(300 500) scale(0.1 -0.1)"><path d="M0.0 0.0V-30.0H294.0V0.0ZM-92.0 168.0V-224.0C-92.0 -364.0 -100.0 -546.0 -189.0 -677.0C-184.0 -679.0 -171.0 -687.0 -167.0 -693.0C-74.0 -560.0 -61.0 -368.0 -61.0 -223.0V168.0ZM360.0 168.0V-631.0C360.0 -645.0 354.0 -652.0 337.0 -652.0C322.0 -653.0 266.0 -653.0 201.0 -652.0C207.0 -661.0 212.0 -675.0 213.0 -682.0C291.0 -684.0 337.0 -683.0 358.0 -678.0C381.0 -672.0 388.0 -658.0 388.0 -630.0V168.0Z"/></g>
<g fill="red" transform="translate(400 500) scale(0.1 -0.1)"><path d="M0.0 0.0V-91.0H223.0V0.0ZM-152.0 192.0V-208.0C-152.0 -349.0 -156.0 -535.0 -223.0 -660.0C-192.0 -671.0 -135.0 -703.0 -111.0 -722.0C-37.0 -586.0 -26.0 -364.0 -26.0 -208.0V192.0ZM246.0 192.0V-580.0C246.0 -594.0 241.0 -598.0 227.0 -598.0C214.0 -599.0 173.0 -599.0 137.0 -597.0C155.0 -629.0 174.0 -688.0 178.0 -722.0C247.0 -722.0 294.0 -719.0 332.0 -697.0C369.0 -676.0 379.0 -640.0 379.0 -583.0V192.0Z"/></g>
<g fill="black" opacity=".8" transform="translate(400 500) scale(0.1 -0.1)"><path d="M0.0 0.0 -1.0 -96.0H220.0V0.0ZM-151.0 189.0V-207.0C-151.0 -349.0 -157.0 -533.0 -230.0 -657.0C-201.0 -669.0 -148.0 -710.0 -127.0 -731.0C-43.0 -593.0 -29.0 -365.0 -29.0 -206.0V189.0ZM247.0 189.0V-582.0C247.0 -596.0 243.0 -602.0 229.0 -601.0C215.0 -602.0 171.0 -602.0 134.0 -599.0C152.0 -634.0 169.0 -692.0 174.0 -728.0C243.0 -729.0 292.0 -725.0 328.0 -704.0C365.0 -682.0 374.0 -645.0 374.0 -585.0V189.0Z"/></g>
</svg>
