<?xml version="1.0" encoding="UTF-8"?>
<svg width="1700" height="1600" xmlns="http://www.w3.org/2000/svg">
<rect width="100%" height="100%" fill="white"/>
<g fill="green" transform="translate(100 100) scale(0.1 -0.1)"><path d="M-0.0 0.0 -108.0 445.0 119.0 534.0 227.0 91.0ZM427.0 116.0 632.0 98.0 453.0 -112.0 248.0 -94.0Z"/></g>
<g fill="green" transform="translate(200 100) scale(0.1 -0.1)"><path d="M-0.0 -0.0 -77.0 308.0 108.0 372.0 184.0 68.0ZM439.0 -76.0 581.0 16.0 365.0 -143.0 223.0 -235.0Z"/></g>
<g fill="green" transform="translate(300 100) scale(0.1 -0.1)"><path d="M0.0 0.0 -97.0 -125.0 174.0 -46.0 271.0 81.0ZM610.0 -106.0 818.0 -171.0 1025.0 -384.0 817.0 -320.0Z"/></g>
<g fill="green" transform="translate(400 100) scale(0.1 -0.1)"><path d="M0.0 0.0 -69.0 -288.0 308.0 -230.0 376.0 61.0ZM697.0 -236.0 841.0 -322.0 1028.0 -483.0 884.0 -398.0Z"/></g>
<g fill="green" transform="translate(500 100) scale(0.1 -0.1)"><path d="M0.0 0.0 -195.0 -217.0 71.0 -56.0 266.0 165.0ZM-401.0 -189.0 -190.0 -212.0 -181.0 -428.0 -393.0 -405.0Z"/></g>
<g fill="green" transform="translate(600 100) scale(0.1 -0.1)"><path d="M0.0 0.0 -139.0 -372.0 214.0 -257.0 352.0 123.0ZM-341.0 -348.0 -195.0 -360.0 -215.0 -524.0 -362.0 -512.0Z"/></g>
<g fill="green" transform="translate(700 100) scale(0.1 -0.1)"><path d="M0.0 0.0 -180.0 44.0 33.0 200.0 212.0 152.0ZM531.0 394.0 733.0 400.0 356.0 194.0 155.0 187.0Z"/></g>
<g fill="green" transform="translate(800 100) scale(0.1 -0.1)"><path d="M0.0 0.0 -129.0 -54.0 -8.0 71.0 119.0 114.0ZM545.0 196.0 685.0 390.0 267.0 233.0 127.0 40.0Z"/></g>
<g fill="green" transform="translate(900 100) scale(0.1 -0.1)"><path d="M-0.0 0.0 -132.0 472.0 62.0 583.0 194.0 112.0ZM186.0 173.0 344.0 164.0 583.0 2.0 425.0 11.0Z"/></g>
<g fill="green" transform="translate(1000 100) scale(0.1 -0.1)"><path d="M-0.0 0.0 -95.0 342.0 145.0 424.0 239.0 84.0ZM253.0 32.0 362.0 65.0 561.0 -58.0 452.0 -90.0Z"/></g>
<g fill="green" transform="translate(1100 100) scale(0.1 -0.1)"><path d="M-0.0 0.0 154.0 510.0 456.0 379.0 302.0 -130.0ZM396.0 170.0 675.0 157.0 513.0 -130.0 233.0 -117.0Z"/></g>
<g fill="green" transform="translate(1200 100) scale(0.1 -0.1)"><path d="M-0.0 0.0 109.0 394.0 321.0 293.0 211.0 -97.0ZM347.0 25.0 540.0 96.0 356.0 -121.0 163.0 -192.0Z"/></g>
<g fill="green" transform="translate(1300 100) scale(0.1 -0.1)"><path d="M0.0 0.0 82.0 450.0 19.0 377.0 -63.0 -70.0ZM557.0 -83.0 543.0 -35.0 411.0 -21.0 424.0 -69.0Z"/></g>
<g fill="green" transform="translate(1400 100) scale(0.1 -0.1)"><path d="M0.0 0.0 59.0 377.0 -156.0 318.0 -216.0 -53.0ZM451.0 -181.0 441.0 -52.0 265.0 -41.0 275.0 -170.0Z"/></g>
<g fill="green" transform="translate(1500 100) scale(0.1 -0.1)"><path d="M-0.0 0.0 -91.0 437.0 80.0 511.0 171.0 77.0ZM503.0 205.0 625.0 -78.0 318.0 -203.0 196.0 80.0Z"/></g>
<g fill="green" transform="translate(1600 100) scale(0.1 -0.1)"><path d="M-0.0 0.0 -65.0 340.0 185.0 392.0 249.0 57.0ZM491.0 69.0 576.0 -145.0 358.0 -240.0 274.0 -25.0Z"/></g>
<g fill="green" transform="translate(100 200) scale(0.1 -0.1)"><path d="M0.0 0.0 -124.0 378.0 113.0 481.0 237.0 104.0ZM430.0 81.0 636.0 73.0 473.0 -138.0 267.0 -130.0Z"/></g>
<g fill="green" transform="translate(200 200) scale(0.1 -0.1)"><path d="M-0.0 0.0 -88.0 367.0 114.0 441.0 202.0 78.0ZM436.0 -53.0 578.0 42.0 348.0 -118.0 205.0 -212.0Z"/></g>
<g fill="green" transform="translate(300 200) scale(0.1 -0.1)"><path d="M-0.0 0.0 -98.0 450.0 118.0 531.0 216.0 82.0ZM393.0 72.0 575.0 110.0 422.0 -76.0 240.0 -115.0Z"/></g>
<g fill="green" transform="translate(400 200) scale(0.1 -0.1)"><path d="M0.0 0.0 -70.0 313.0 138.0 370.0 207.0 61.0ZM509.0 -81.0 635.0 11.0 359.0 -130.0 233.0 -222.0Z"/></g>
<g fill="green" transform="translate(500 200) scale(0.1 -0.1)"><path d="M0.0 0.0 -103.0 425.0 121.0 511.0 223.0 87.0ZM430.0 126.0 641.0 111.0 413.0 -105.0 202.0 -90.0Z"/></g>
<g fill="green" transform="translate(600 200) scale(0.1 -0.1)"><path d="M0.0 0.0 -74.0 331.0 104.0 393.0 177.0 65.0ZM431.0 -97.0 577.0 21.0 410.0 -143.0 264.0 -261.0Z"/></g>
<g fill="green" transform="translate(700 200) scale(0.1 -0.1)"><path d="M-0.0 0.0 -109.0 462.0 120.0 551.0 229.0 92.0ZM429.0 90.0 640.0 81.0 439.0 -135.0 228.0 -126.0Z"/></g>
<g fill="green" transform="translate(800 200) scale(0.1 -0.1)"><path d="M0.0 0.0 -78.0 294.0 100.0 356.0 177.0 70.0ZM432.0 -51.0 578.0 40.0 384.0 -124.0 238.0 -215.0Z"/></g>
<g fill="red" transform="translate(100 300) scale(0.1 -0.1)"><path d="M0.0 0.0V-821.0H29.0V0.0ZM18.0 -330.0V-359.0H424.0V-330.0Z"/></g>
<g fill="black" opacity=".8" transform="translate(100 300) scale(0.1 -0.1)"><path d="M0.0 0.0 -1.0 -819.0H27.0V0.0ZM29.0 -336.0 24.0 -355.0 421.0 -350.0 425.0 -333.0Z"/></g>
<g fill="red" transform="translate(200 300) scale(0.1 -0.1)"><path d="M0.0 0.0V-824.0H157.0V0.0ZM82.0 -276.0V-423.0H501.0V-276.0Z"/></g>
<g fill="black" opacity=".8" transform="translate(200 300) scale(0.1 -0.1)"><path d="M0.0 0.0 -1.0 -826.0 165.0 -825.0V0.0ZM78.0 -278.0 73.0 -426.0 499.0 -423.0 502.0 -274.0Z"/></g>
<g fill="red" transform="translate(300 300) scale(0.1 -0.1)"><path d="M0.0 0.0V-476.0H29.0V0.0ZM11.0 -214.0V-244.0H285.0V-214.0Z"/></g>
<g fill="black" opacity=".8" transform="translate(300 300) scale(0.1 -0.1)"><path d="M0.0 0.0V-476.0L31.0 -477.0V0.0ZM9.0 -213.0 11.0 -241.0 286.0 -243.0 283.0 -217.0Z"/></g>
<g fill="red" transform="translate(400 300) scale(0.1 -0.1)"><path d="M0.0 0.0V-540.0H139.0V0.0ZM55.0 -147.0V-274.0H330.0V-147.0Z"/></g>
<g fill="black" opacity=".8" transform="translate(400 300) scale(0.1 -0.1)"><path d="M0.0 0.0 -1.0 -538.0 135.0 -541.0V1.0ZM56.0 -143.0V-277.0L331.0 -280.0L329.0 -145.0Z"/></g>
<g fill="red" transform="translate(500 300) scale(0.1 -0.1)"><path d="M0.0 0.0V-384.0H29.0V0.0ZM10.0 -148.0V-177.0H385.0V-148.0Z"/></g>
<g fill="black" opacity=".8" transform="translate(500 300) scale(0.1 -0.1)"><path d="M0.0 0.0V-383.0L28.0 -382.0V-0.0ZM16.0 -150.0 13.0 -177.0 383.0 -173.0 385.0 -149.0Z"/></g>
<g fill="red" transform="translate(600 300) scale(0.1 -0.1)"><path d="M0.0 0.0V-392.0H150.0V0.0ZM85.0 -103.0V-234.0H477.0V-103.0Z"/></g>
<g fill="black" opacity=".8" transform="translate(600 300) scale(0.1 -0.1)"><path d="M0.0 0.0 -1.0 -393.0H154.0L155.0 0.0ZM83.0 -105.0 80.0 -235.0 475.0 -233.0 478.0 -102.0Z"/></g>
<g fill="red" transform="translate(700 300) scale(0.1 -0.1)"><path d="M0.0 0.0V-851.0H29.0V0.0ZM18.0 -339.0V-368.0H301.0V-339.0Z"/></g>
<g fill="black" opacity=".8" transform="translate(700 300) scale(0.1 -0.1)"><path d="M0.0 0.0V-851.0H30.0L29.0 -1.0ZM17.0 -336.0 18.0 -370.0 302.0 -371.0 300.0 -338.0Z"/></g>
<g fill="red" transform="translate(800 300) scale(0.1 -0.1)"><path d="M0.0 0.0V-837.0H150.0V0.0ZM37.0 -294.0V-434.0H362.0V-294.0Z"/></g>
<g fill="black" opacity=".8" transform="translate(800 300) scale(0.1 -0.1)"><path d="M0.0 0.0V-837.0L149.0 -838.0L148.0 -0.0ZM39.0 -294.0 38.0 -433.0 362.0 -435.0 361.0 -295.0Z"/></g>
<g fill="red" transform="translate(900 300) scale(0.1 -0.1)"><path d="M0.0 0.0V-494.0H29.0V0.0ZM16.0 -221.0V-251.0H352.0V-221.0Z"/></g>
<g fill="black" opacity=".8" transform="translate(900 300) scale(0.1 -0.1)"><path d="M0.0 0.0V-493.0L30.0 -494.0V0.0ZM18.0 -221.0 17.0 -251.0 352.0 -250.0 351.0 -221.0Z"/></g>
<g fill="red" transform="translate(1000 300) scale(0.1 -0.1)"><path d="M0.0 0.0V-554.0H147.0V0.0ZM73.0 -181.0V-320.0H398.0V-181.0Z"/></g>
<g fill="black" opacity=".8" transform="translate(1000 300) scale(0.1 -0.1)"><path d="M0.0 0.0 -1.0 -554.0 147.0 -555.0V0.0ZM73.0 -181.0 72.0 -321.0H397.0L398.0 -181.0Z"/></g>
<g fill="red" transform="translate(1100 300) scale(0.1 -0.1)"><path d="M0.0 0.0V-300.0H30.0V0.0ZM9.0 -96.0V-125.0H323.0V-96.0Z"/></g>
<g fill="black" opacity=".8" transform="translate(1100 300) scale(0.1 -0.1)"><path d="M0.0 0.0 1.0 -299.0 28.0 -298.0 26.0 -1.0ZM14.0 -96.0 11.0 -130.0 322.0 -126.0 324.0 -93.0Z"/></g>
<g fill="red" transform="translate(1200 300) scale(0.1 -0.1)"><path d="M0.0 0.0V-293.0H141.0V0.0ZM87.0 -69.0V-199.0H416.0V-69.0Z"/></g>
<g fill="black" opacity=".8" transform="translate(1200 300) scale(0.1 -0.1)"><path d="M0.0 0.0 -1.0 -295.0H148.0L147.0 -1.0ZM86.0 -75.0 83.0 -195.0 414.0 -193.0 417.0 -72.0Z"/></g>
<g fill="red" transform="translate(1300 300) scale(0.1 -0.1)"><path d="M0.0 0.0V-370.0H30.0V0.0ZM12.0 -141.0V-170.0H180.0V-141.0Z"/></g>
<g fill="black" opacity=".8" transform="translate(1300 300) scale(0.1 -0.1)"><path d="M0.0 0.0V-370.0H33.0L32.0 -1.0ZM7.0 -135.0 9.0 -174.0 182.0 -176.0 179.0 -139.0Z"/></g>
<g fill="red" transform="translate(1400 300) scale(0.1 -0.1)"><path d="M0.0 0.0V-383.0H138.0V0.0ZM67.0 -95.0V-220.0H239.0V-95.0Z"/></g>
<g fill="black" opacity=".8" transform="translate(1400 300) scale(0.1 -0.1)"><path d="M0.0 0.0 -1.0 -383.0 134.0 -384.0V-0.0ZM70.0 -96.0V-218.0L240.0 -220.0L238.0 -96.0Z"/></g>
<g fill="red" transform="translate(1500 300) scale(0.1 -0.1)"><path d="M0.0 0.0V-273.0H29.0V0.0ZM11.0 -105.0V-135.0H157.0V-105.0Z"/></g>
<g fill="black" opacity=".8" transform="translate(1500 300) scale(0.1 -0.1)"><path d="M0.0 0.0 1.0 -272.0 27.0 -273.0 26.0 -1.0ZM10.0 -102.0 11.0 -136.0 158.0 -138.0 156.0 -105.0Z"/></g>
<g fill="red" transform="translate(1600 300) scale(0.1 -0.1)"><path d="M0.0 0.0V-248.0H97.0V0.0ZM39.0 -60.0V-155.0H157.0V-60.0Z"/></g>
<g fill="black" opacity=".8" transform="translate(1600 300) scale(0.1 -0.1)"><path d="M0.0 0.0V-248.0L98.0 -249.0L97.0 -1.0ZM40.0 -61.0V-153.0L157.0 -155.0L156.0 -61.0Z"/></g>
<g fill="red" transform="translate(100 400) scale(0.1 -0.1)"><path d="M0.0 0.0V-481.0H29.0V0.0ZM12.0 -208.0V-237.0H450.0V-208.0Z"/></g>
<g fill="black" opacity=".8" transform="translate(100 400) scale(0.1 -0.1)"><path d="M0.0 0.0V-480.0H28.0V-0.0ZM17.0 -210.0 15.0 -235.0 449.0 -233.0 450.0 -210.0Z"/></g>
<g fill="red" transform="translate(200 400) scale(0.1 -0.1)"><path d="M0.0 0.0V-513.0H151.0V0.0ZM63.0 -156.0V-292.0H527.0V-156.0Z"/></g>
<g fill="black" opacity=".8" transform="translate(200 400) scale(0.1 -0.1)"><path d="M0.0 0.0 -1.0 -513.0 154.0 -514.0V1.0ZM62.0 -156.0 60.0 -294.0H526.0L527.0 -155.0Z"/></g>
<g fill="red" transform="translate(300 400) scale(0.1 -0.1)"><path d="M0.0 0.0V-397.0H29.0V0.0ZM11.0 -166.0V-196.0H365.0V-166.0Z"/></g>
<g fill="black" opacity=".8" transform="translate(300 400) scale(0.1 -0.1)"><path d="M0.0 0.0V-396.0L29.0 -395.0L28.0 0.0ZM20.0 -171.0 15.0 -195.0 362.0 -190.0 366.0 -167.0Z"/></g>
<g fill="red" transform="translate(400 400) scale(0.1 -0.1)"><path d="M0.0 0.0V-414.0H155.0V0.0ZM103.0 -105.0V-244.0H477.0V-105.0Z"/></g>
<g fill="black" opacity=".8" transform="translate(400 400) scale(0.1 -0.1)"><path d="M0.0 0.0 -1.0 -415.0 161.0 -416.0V1.0ZM100.0 -107.0 96.0 -246.0 475.0 -244.0 479.0 -104.0Z"/></g>
<g fill="red" transform="translate(500 400) scale(0.1 -0.1)"><path d="M0.0 0.0V-278.0H31.0V0.0ZM15.0 -110.0V-139.0H452.0V-110.0Z"/></g>
<g fill="black" opacity=".8" transform="translate(500 400) scale(0.1 -0.1)"><path d="M0.0 0.0V-277.0H29.0L28.0 -0.0ZM20.0 -111.0 18.0 -139.0 451.0 -137.0 452.0 -110.0Z"/></g>
<g fill="red" transform="translate(600 400) scale(0.1 -0.1)"><path d="M0.0 0.0V-288.0H147.0V0.0ZM80.0 -72.0V-201.0H522.0V-72.0Z"/></g>
<g fill="black" opacity=".8" transform="translate(600 400) scale(0.1 -0.1)"><path d="M0.0 0.0 -1.0 -289.0H152.0V0.0ZM79.0 -75.0 76.0 -200.0 520.0 -199.0 522.0 -72.0Z"/></g>
<g fill="red" transform="translate(700 400) scale(0.1 -0.1)"><path d="M0.0 0.0V-361.0H29.0V0.0ZM15.0 -143.0V-172.0H219.0V-143.0Z"/></g>
<g fill="black" opacity=".8" transform="translate(700 400) scale(0.1 -0.1)"><path d="M0.0 0.0V-360.0H29.0V-0.0ZM20.0 -144.0 17.0 -173.0 217.0 -170.0 219.0 -143.0Z"/></g>
<g fill="red" transform="translate(800 400) scale(0.1 -0.1)"><path d="M0.0 0.0V-392.0H141.0V0.0ZM112.0 -97.0V-228.0H306.0V-97.0Z"/></g>
<g fill="black" opacity=".8" transform="translate(800 400) scale(0.1 -0.1)"><path d="M0.0 0.0 -1.0 -393.0 145.0 -394.0V0.0ZM111.0 -100.0 108.0 -228.0 305.0 -226.0 307.0 -97.0Z"/></g>
<g fill="red" transform="translate(900 400) scale(0.1 -0.1)"><path d="M0.0 0.0V-481.0H30.0V0.0ZM18.0 -211.0V-241.0H323.0V-211.0Z"/></g>
<g fill="black" opacity=".8" transform="translate(900 400) scale(0.1 -0.1)"><path d="M0.0 0.0V-481.0H32.0V-0.0ZM16.0 -208.0 17.0 -243.0 324.0 -244.0 322.0 -210.0Z"/></g>
<g fill="red" transform="translate(1000 400) scale(0.1 -0.1)"><path d="M0.0 0.0V-527.0H150.0V0.0ZM66.0 -174.0V-311.0H373.0V-174.0Z"/></g>
<g fill="black" opacity=".8" transform="translate(1000 400) scale(0.1 -0.1)"><path d="M0.0 0.0 -1.0 -526.0 147.0 -528.0V0.0ZM68.0 -174.0V-311.0L373.0 -312.0V-174.0Z"/></g>
<g fill="red" transform="translate(1100 400) scale(0.1 -0.1)"><path d="M0.0 0.0V-265.0H29.0V0.0ZM16.0 -103.0V-133.0H162.0V-103.0Z"/></g>
<g fill="black" opacity=".8" transform="translate(1100 400) scale(0.1 -0.1)"><path d="M0.0 0.0V-265.0H28.0L27.0 -1.0ZM15.0 -100.0 16.0 -134.0 163.0 -135.0 161.0 -103.0Z"/></g>
<g fill="red" transform="translate(1200 400) scale(0.1 -0.1)"><path d="M0.0 0.0V-221.0H101.0V0.0ZM46.0 -51.0V-146.0H165.0V-51.0Z"/></g>
<g fill="black" opacity=".8" transform="translate(1200 400) scale(0.1 -0.1)"><path d="M0.0 0.0V-221.0L101.0 -222.0V-1.0ZM47.0 -51.0 46.0 -145.0 165.0 -147.0 164.0 -51.0Z"/></g>
<g fill="red" transform="translate(1300 400) scale(0.1 -0.1)"><path d="M0.0 0.0V-327.0H316.0V0.0ZM27.0 -29.0H290.0V-298.0H27.0Z"/></g>
<g fill="black" opacity=".8" transform="translate(1300 400) scale(0.1 -0.1)"><path d="M0.0 0.0V-326.0H316.0L315.0 -0.0ZM33.0 -32.0 293.0 -28.0 288.0 -294.0 27.0 -299.0Z"/></g>
<g fill="red" transform="translate(1400 400) scale(0.1 -0.1)"><path d="M0.0 0.0V-394.0H356.0V0.0ZM85.0 -95.0H267.0V-299.0H85.0Z"/></g>
<g fill="black" opacity=".8" transform="translate(1400 400) scale(0.1 -0.1)"><path d="M0.0 0.0 -1.0 -394.0 360.0 -395.0V1.0ZM83.0 -97.0 263.0 -96.0 266.0 -299.0H86.0Z"/></g>
<g fill="red" transform="translate(1500 400) scale(0.1 -0.1)"><path d="M0.0 0.0V-635.0H30.0V0.0ZM453.0 -68.0V-98.0H723.0V-68.0Z"/></g>
<g fill="black" opacity=".8" transform="translate(1500 400) scale(0.1 -0.1)"><path d="M0.0 0.0V-636.0L31.0 -633.0L29.0 -1.0ZM456.0 -69.0V-95.0L723.0 -94.0L722.0 -71.0Z"/></g>
<g fill="red" transform="translate(1600 400) scale(0.1 -0.1)"><path d="M0.0 0.0V-671.0H135.0V0.0ZM548.0 -38.0V-143.0H814.0V-38.0Z"/></g>
<g fill="black" opacity=".8" transform="translate(1600 400) scale(0.1 -0.1)"><path d="M0.0 0.0 -1.0 -675.0 136.0 -668.0 135.0 -0.0ZM546.0 -36.0V-146.0H814.0V-36.0Z"/></g>
<g fill="red" transform="translate(100 500) scale(0.1 -0.1)"><path d="M0.0 0.0V-305.0H29.0V0.0ZM16.0 -111.0V-140.0H223.0V-111.0Z"/></g>
<g fill="black" opacity=".8" transform="translate(100 500) scale(0.1 -0.1)"><path d="M0.0 0.0V-305.0L31.0 -304.0V-0.0ZM16.0 -108.0 15.0 -144.0 223.0 -143.0V-109.0Z"/></g>
<g fill="red" transform="translate(200 500) scale(0.1 -0.1)"><path d="M0.0 0.0V-252.0H135.0V0.0ZM70.0 -40.0V-161.0H278.0V-40.0Z"/></g>
<g fill="black" opacity=".8" transform="translate(200 500) scale(0.1 -0.1)"><path d="M0.0 0.0 -1.0 -252.0 134.0 -253.0V0.0ZM72.0 -42.0 70.0 -159.0 278.0 -160.0V-41.0Z"/></g>
<g fill="red" transform="translate(300 500) scale(0.1 -0.1)"><path d="M0.0 0.0V-423.0H30.0V0.0ZM13.0 -176.0V-206.0H385.0V-176.0Z"/></g>
<g fill="black" opacity=".8" transform="translate(300 500) scale(0.1 -0.1)"><path d="M0.0 0.0V-422.0H29.0V-0.0ZM18.0 -177.0 15.0 -207.0 384.0 -204.0 385.0 -176.0Z"/></g>
<g fill="red" transform="translate(400 500) scale(0.1 -0.1)"><path d="M0.0 0.0V-414.0H150.0V0.0ZM74.0 -121.0V-258.0H462.0V-121.0Z"/></g>
<g fill="black" opacity=".8" transform="translate(400 500) scale(0.1 -0.1)"><path d="M0.0 0.0 -1.0 -415.0H154.0V0.0ZM73.0 -124.0 70.0 -258.0 461.0 -257.0 463.0 -121.0Z"/></g>
<g fill="red" transform="translate(500 500) scale(0.1 -0.1)"><path d="M0.0 0.0V-458.0H29.0V0.0ZM13.0 -210.0V-240.0H300.0V-210.0Z"/></g>
<g fill="black" opacity=".8" transform="translate(500 500) scale(0.1 -0.1)"><path d="M0.0 0.0 -1.0 -457.0 28.0 -456.0 29.0 0.0ZM25.0 -217.0 19.0 -236.0 296.0 -230.0 301.0 -213.0Z"/></g>
<g fill="red" transform="translate(600 500) scale(0.1 -0.1)"><path d="M0.0 0.0V-504.0H141.0V0.0ZM113.0 -152.0V-286.0H352.0V-152.0Z"/></g>
<g fill="black" opacity=".8" transform="translate(600 500) scale(0.1 -0.1)"><path d="M0.0 0.0 -1.0 -504.0 148.0 -506.0V1.0ZM109.0 -154.0 104.0 -290.0 350.0 -287.0 354.0 -149.0Z"/></g>
<g fill="red" transform="translate(700 500) scale(0.1 -0.1)"><path d="M0.0 0.0V-243.0H29.0V0.0ZM8.0 -104.0V-133.0H269.0V-104.0Z"/></g>
<g fill="black" opacity=".8" transform="translate(700 500) scale(0.1 -0.1)"><path d="M0.0 0.0V-242.0H30.0V-0.0ZM9.0 -102.0 8.0 -136.0 269.0 -135.0V-102.0Z"/></g>
<g fill="red" transform="translate(800 500) scale(0.1 -0.1)"><path d="M0.0 0.0V-293.0H141.0V0.0ZM85.0 -62.0V-192.0H342.0V-62.0Z"/></g>
<g fill="black" opacity=".8" transform="translate(800 500) scale(0.1 -0.1)"><path d="M0.0 0.0 -1.0 -293.0 141.0 -294.0V0.0ZM86.0 -64.0 85.0 -191.0H341.0L342.0 -63.0Z"/></g>
<g fill="red" transform="translate(900 500) scale(0.1 -0.1)"><path d="M0.0 0.0V-361.0H29.0V0.0ZM15.0 -144.0V-173.0H373.0V-144.0Z"/></g>
<g fill="black" opacity=".8" transform="translate(900 500) scale(0.1 -0.1)"><path d="M0.0 0.0V-361.0L31.0 -360.0V-0.0ZM15.0 -143.0V-174.0L373.0 -173.0L372.0 -144.0Z"/></g>
<g fill="red" transform="translate(1000 500) scale(0.1 -0.1)"><path d="M0.0 0.0V-374.0H151.0V0.0ZM69.0 -80.0V-211.0H448.0V-80.0Z"/></g>
<g fill="black" opacity=".8" transform="translate(1000 500) scale(0.1 -0.1)"><path d="M0.0 0.0 -1.0 -374.0 149.0 -375.0 150.0 1.0ZM70.0 -80.0 69.0 -212.0 448.0 -213.0V-79.0Z"/></g>
<g fill="red" transform="translate(1100 500) scale(0.1 -0.1)"><path d="M0.0 0.0V-402.0H29.0V0.0ZM13.0 -167.0V-197.0H398.0V-167.0Z"/></g>
<g fill="black" opacity=".8" transform="translate(1100 500) scale(0.1 -0.1)"><path d="M0.0 0.0V-402.0L30.0 -401.0L29.0 0.0ZM16.0 -168.0 15.0 -196.0 397.0 -194.0 398.0 -168.0Z"/></g>
<g fill="red" transform="translate(1200 500) scale(0.1 -0.1)"><path d="M0.0 0.0V-405.0H149.0V0.0ZM69.0 -123.0V-249.0H461.0V-123.0Z"/></g>
<g fill="black" opacity=".8" transform="translate(1200 500) scale(0.1 -0.1)"><path d="M0.0 0.0 -1.0 -405.0 150.0 -406.0V0.0ZM68.0 -123.0 66.0 -251.0H460.0L461.0 -121.0Z"/></g>
<g fill="red" transform="translate(1300 500) scale(0.1 -0.1)"><path d="M0.0 0.0V-494.0H29.0V0.0ZM13.0 -215.0V-245.0H327.0V-215.0Z"/></g>
<g fill="black" opacity=".8" transform="translate(1300 500) scale(0.1 -0.1)"><path d="M0.0 0.0V-493.0L31.0 -494.0L30.0 -0.0ZM10.0 -211.0 11.0 -249.0H328.0L326.0 -213.0Z"/></g>
<g fill="red" transform="translate(1400 500) scale(0.1 -0.1)"><path d="M0.0 0.0V-549.0H150.0V0.0ZM57.0 -178.0V-321.0H395.0V-178.0Z"/></g>
<g fill="black" opacity=".8" transform="translate(1400 500) scale(0.1 -0.1)"><path d="M0.0 0.0 -1.0 -548.0 148.0 -550.0 147.0 0.0ZM59.0 -179.0V-319.0L395.0 -321.0V-180.0Z"/></g>
<g fill="red" transform="translate(1500 500) scale(0.1 -0.1)"><path d="M0.0 0.0V-361.0H29.0V0.0ZM16.0 -142.0V-171.0H267.0V-142.0Z"/></g>
<g fill="black" opacity=".8" transform="translate(1500 500) scale(0.1 -0.1)"><path d="M0.0 0.0V-361.0L32.0 -360.0L31.0 -0.0ZM16.0 -140.0 15.0 -174.0 267.0 -173.0V-140.0Z"/></g>
<g fill="red" transform="translate(1600 500) scale(0.1 -0.1)"><path d="M0.0 0.0V-338.0H141.0V0.0ZM69.0 -75.0V-202.0H317.0V-75.0Z"/></g>
<g fill="black" opacity=".8" transform="translate(1600 500) scale(0.1 -0.1)"><path d="M0.0 0.0 -1.0 -338.0 139.0 -339.0 140.0 0.0ZM71.0 -76.0 69.0 -201.0 317.0 -202.0V-75.0Z"/></g>
<g fill="red" transform="translate(100 600) scale(0.1 -0.1)"><path d="M0.0 0.0V-274.0H30.0V0.0ZM14.0 -101.0V-130.0H191.0V-101.0Z"/></g>
<g fill="black" opacity=".8" transform="translate(100 600) scale(0.1 -0.1)"><path d="M0.0 0.0V-274.0H31.0L30.0 -1.0ZM11.0 -98.0 13.0 -131.0 193.0 -133.0 189.0 -101.0Z"/></g>
<g fill="red" transform="translate(200 600) scale(0.1 -0.1)"><path d="M0.0 0.0V-243.0H122.0V0.0ZM58.0 -54.0V-154.0H225.0V-54.0Z"/></g>
<g fill="black" opacity=".8" transform="translate(200 600) scale(0.1 -0.1)"><path d="M0.0 0.0 -1.0 -243.0 119.0 -244.0V-0.0ZM59.0 -53.0 60.0 -154.0 226.0 -157.0 224.0 -53.0Z"/></g>
<g fill="red" transform="translate(300 600) scale(0.1 -0.1)"><path d="M0.0 0.0V-494.0H30.0V0.0ZM22.0 -211.0V-241.0H323.0V-211.0Z"/></g>
<g fill="black" opacity=".8" transform="translate(300 600) scale(0.1 -0.1)"><path d="M0.0 0.0V-494.0H32.0L31.0 -0.0ZM17.0 -206.0 20.0 -244.0 325.0 -246.0 321.0 -210.0Z"/></g>
<g fill="red" transform="translate(400 600) scale(0.1 -0.1)"><path d="M0.0 0.0V-527.0H150.0V0.0ZM57.0 -162.0V-299.0H391.0V-162.0Z"/></g>
<g fill="black" opacity=".8" transform="translate(400 600) scale(0.1 -0.1)"><path d="M0.0 0.0 -1.0 -526.0 146.0 -528.0 145.0 0.0ZM60.0 -161.0 61.0 -298.0 392.0 -301.0 390.0 -163.0Z"/></g>
<g fill="red" transform="translate(500 600) scale(0.1 -0.1)"><path d="M0.0 0.0V-361.0H30.0V0.0ZM16.0 -142.0V-171.0H285.0V-142.0Z"/></g>
<g fill="black" opacity=".8" transform="translate(500 600) scale(0.1 -0.1)"><path d="M0.0 0.0V-361.0L32.0 -360.0V-0.0ZM16.0 -140.0 15.0 -173.0 285.0 -172.0V-141.0Z"/></g>
<g fill="red" transform="translate(600 600) scale(0.1 -0.1)"><path d="M0.0 0.0V-338.0H141.0V0.0ZM69.0 -75.0V-202.0H317.0V-75.0Z"/></g>
<g fill="black" opacity=".8" transform="translate(600 600) scale(0.1 -0.1)"><path d="M0.0 0.0 -1.0 -338.0 140.0 -339.0V0.0ZM70.0 -76.0 69.0 -202.0H316.0L317.0 -75.0Z"/></g>
<g fill="red" transform="translate(700 600) scale(0.1 -0.1)"><path d="M0.0 0.0V-370.0H30.0V0.0ZM12.0 -160.0V-189.0H163.0V-160.0Z"/></g>
<g fill="black" opacity=".8" transform="translate(700 600) scale(0.1 -0.1)"><path d="M0.0 0.0 1.0 -370.0 32.0 -371.0 30.0 -1.0ZM0.0 -149.0 7.0 -195.0 168.0 -202.0 160.0 -156.0Z"/></g>
<g fill="red" transform="translate(800 600) scale(0.1 -0.1)"><path d="M0.0 0.0V-383.0H128.0V0.0ZM29.0 -149.0V-262.0H223.0V-149.0Z"/></g>
<g fill="black" opacity=".8" transform="translate(800 600) scale(0.1 -0.1)"><path d="M0.0 0.0V-382.0L121.0 -384.0L119.0 -1.0ZM34.0 -148.0 38.0 -257.0 225.0 -263.0 221.0 -152.0Z"/></g>
<g fill="red" transform="translate(900 600) scale(0.1 -0.1)"><path d="M0.0 0.0V-273.0H29.0V0.0ZM11.0 -105.0V-135.0H157.0V-105.0Z"/></g>
<g fill="black" opacity=".8" transform="translate(900 600) scale(0.1 -0.1)"><path d="M0.0 0.0 1.0 -272.0 27.0 -273.0 26.0 -1.0ZM10.0 -102.0 11.0 -136.0 158.0 -138.0 156.0 -105.0Z"/></g>
<g fill="red" transform="translate(1000 600) scale(0.1 -0.1)"><path d="M0.0 0.0V-248.0H96.0V0.0ZM38.0 -60.0V-155.0H155.0V-60.0Z"/></g>
<g fill="black" opacity=".8" transform="translate(1000 600) scale(0.1 -0.1)"><path d="M0.0 0.0V-248.0L97.0 -249.0L96.0 -1.0ZM39.0 -61.0V-153.0L155.0 -155.0L154.0 -61.0Z"/></g>
<g fill="red" transform="translate(1100 600) scale(0.1 -0.1)"><path d="M0.0 0.0V-379.0H30.0V0.0ZM13.0 -156.0V-185.0H441.0V-156.0Z"/></g>
<g fill="black" opacity=".8" transform="translate(1100 600) scale(0.1 -0.1)"><path d="M0.0 0.0V-378.0H30.0L29.0 -0.0ZM17.0 -157.0 15.0 -186.0 440.0 -183.0 441.0 -156.0Z"/></g>
<g fill="red" transform="translate(1200 600) scale(0.1 -0.1)"><path d="M0.0 0.0V-405.0H158.0V0.0ZM81.0 -104.0V-245.0H532.0V-104.0Z"/></g>
<g fill="black" opacity=".8" transform="translate(1200 600) scale(0.1 -0.1)"><path d="M0.0 0.0 -1.0 -405.0 161.0 -406.0V1.0ZM80.0 -106.0 78.0 -245.0 531.0 -244.0 533.0 -104.0Z"/></g>
<g fill="red" transform="translate(1300 600) scale(0.1 -0.1)"><path d="M0.0 0.0V-450.0H30.0V0.0ZM440.0 -159.0V-189.0H714.0V-159.0Z"/></g>
<g fill="black" opacity=".8" transform="translate(1300 600) scale(0.1 -0.1)"><path d="M0.0 0.0V-450.0H31.0V-1.0ZM439.0 -156.0 440.0 -191.0H714.0L713.0 -158.0Z"/></g>
<g fill="red" transform="translate(1400 600) scale(0.1 -0.1)"><path d="M0.0 0.0V-495.0H139.0V0.0ZM517.0 -119.0V-248.0H783.0V-119.0Z"/></g>
<g fill="black" opacity=".8" transform="translate(1400 600) scale(0.1 -0.1)"><path d="M0.0 0.0 -1.0 -496.0 138.0 -495.0V-0.0ZM518.0 -119.0V-248.0H783.0V-119.0Z"/></g>
<g fill="red" transform="translate(1500 600) scale(0.1 -0.1)"><path d="M0.0 0.0V-388.0H29.0V0.0ZM-414.0 -204.0V-233.0H-188.0V-204.0Z"/></g>
<g fill="black" opacity=".8" transform="translate(1500 600) scale(0.1 -0.1)"><path d="M0.0 0.0V-387.0L30.0 -388.0L29.0 0.0ZM-413.0 -203.0V-234.0L-188.0 -233.0L-189.0 -204.0Z"/></g>
<g fill="red" transform="translate(1600 600) scale(0.1 -0.1)"><path d="M0.0 0.0V-410.0H142.0V0.0ZM-369.0 -152.0V-283.0H-139.0V-152.0Z"/></g>
<g fill="black" opacity=".8" transform="translate(1600 600) scale(0.1 -0.1)"><path d="M0.0 0.0 -1.0 -408.0 142.0 -413.0V0.0ZM-369.0 -153.0 -370.0 -283.0 -139.0 -284.0V-152.0Z"/></g>
<g fill="red" transform="translate(100 700) scale(0.1 -0.1)"><path d="M0.0 0.0V-357.0H29.0V0.0ZM441.0 -150.0V-180.0H693.0V-150.0Z"/></g>
<g fill="black" opacity=".8" transform="translate(100 700) scale(0.1 -0.1)"><path d="M0.0 0.0V-357.0H30.0V-1.0ZM440.0 -146.0V-185.0L693.0 -184.0V-147.0Z"/></g>
<g fill="red" transform="translate(200 700) scale(0.1 -0.1)"><path d="M0.0 0.0V-383.0H134.0V0.0ZM515.0 -119.0V-248.0H754.0V-119.0Z"/></g>
<g fill="black" opacity=".8" transform="translate(200 700) scale(0.1 -0.1)"><path d="M0.0 0.0 -1.0 -384.0 134.0 -383.0 133.0 -0.0ZM517.0 -121.0 516.0 -245.0 753.0 -246.0 754.0 -121.0Z"/></g>
<g fill="red" transform="translate(300 700) scale(0.1 -0.1)"><path d="M0.0 0.0V-388.0H30.0V0.0ZM-425.0 -158.0V-187.0H-221.0V-158.0Z"/></g>
<g fill="black" opacity=".8" transform="translate(300 700) scale(0.1 -0.1)"><path d="M0.0 0.0V-386.0H28.0L27.0 0.0ZM-416.0 -163.0 -420.0 -186.0 -223.0 -181.0 -221.0 -159.0Z"/></g>
<g fill="red" transform="translate(400 700) scale(0.1 -0.1)"><path d="M0.0 0.0V-410.0H142.0V0.0ZM-335.0 -120.0V-247.0H-136.0V-120.0Z"/></g>
<g fill="black" opacity=".8" transform="translate(400 700) scale(0.1 -0.1)"><path d="M0.0 0.0 -1.0 -410.0 149.0 -413.0V-0.0ZM-339.0 -123.0 -342.0 -248.0 -138.0 -246.0 -135.0 -119.0Z"/></g>
<g fill="red" transform="translate(500 700) scale(0.1 -0.1)"><path d="M0.0 0.0V-225.0H30.0V0.0ZM421.0 -165.0V-195.0H651.0V-165.0Z"/></g>
<g fill="black" opacity=".8" transform="translate(500 700) scale(0.1 -0.1)"><path d="M0.0 0.0V-225.0L32.0 -226.0V-1.0ZM414.0 -157.0 417.0 -200.0 654.0 -203.0 649.0 -162.0Z"/></g>
<g fill="red" transform="translate(600 700) scale(0.1 -0.1)"><path d="M0.0 0.0V-238.0H140.0V0.0ZM477.0 -120.0V-249.0H740.0V-120.0Z"/></g>
<g fill="black" opacity=".8" transform="translate(600 700) scale(0.1 -0.1)"><path d="M0.0 0.0 -1.0 -237.0 134.0 -239.0V-0.0ZM481.0 -120.0 482.0 -246.0 741.0 -250.0 739.0 -122.0Z"/></g>
<g fill="red" transform="translate(700 700) scale(0.1 -0.1)"><path d="M0.0 0.0V-190.0H29.0V0.0ZM13.0 -78.0V-108.0H247.0V-78.0Z"/></g>
<g fill="black" opacity=".8" transform="translate(700 700) scale(0.1 -0.1)"><path d="M0.0 0.0V-191.0L31.0 -190.0L30.0 -0.0ZM10.0 -76.0 13.0 -106.0 249.0 -109.0 245.0 -80.0Z"/></g>
<g fill="red" transform="translate(800 700) scale(0.1 -0.1)"><path d="M0.0 0.0V-203.0H134.0V0.0ZM75.0 -54.0V-152.0H314.0V-54.0Z"/></g>
<g fill="black" opacity=".8" transform="translate(800 700) scale(0.1 -0.1)"><path d="M0.0 0.0 -1.0 -202.0 129.0 -203.0V-0.0ZM76.0 -50.0 77.0 -155.0 315.0 -158.0 313.0 -52.0Z"/></g>
<g fill="red" transform="translate(900 700) scale(0.1 -0.1)"><path d="M0.0 0.0V-317.0H30.0V0.0ZM13.0 -124.0V-153.0H406.0V-124.0Z"/></g>
<g fill="black" opacity=".8" transform="translate(900 700) scale(0.1 -0.1)"><path d="M0.0 0.0V-317.0H31.0L30.0 -0.0ZM11.0 -121.0 12.0 -155.0 407.0 -156.0 405.0 -123.0Z"/></g>
<g fill="red" transform="translate(1000 700) scale(0.1 -0.1)"><path d="M0.0 0.0V-383.0H147.0V0.0ZM62.0 -95.0V-225.0H459.0V-95.0Z"/></g>
<g fill="black" opacity=".8" transform="translate(1000 700) scale(0.1 -0.1)"><path d="M0.0 0.0 -1.0 -383.0H145.0L144.0 0.0ZM64.0 -95.0V-224.0L459.0 -226.0L458.0 -95.0Z"/></g>
<g fill="red" transform="translate(1100 700) scale(0.1 -0.1)"><path d="M0.0 0.0V-494.0H30.0V0.0ZM20.0 -230.0V-259.0H369.0V-230.0Z"/></g>
<g fill="black" opacity=".8" transform="translate(1100 700) scale(0.1 -0.1)"><path d="M0.0 0.0 -1.0 -493.0H30.0V0.0ZM25.0 -232.0 23.0 -258.0 368.0 -255.0 369.0 -231.0Z"/></g>
<g fill="red" transform="translate(1200 700) scale(0.1 -0.1)"><path d="M0.0 0.0V-527.0H150.0V0.0ZM85.0 -173.0V-313.0H428.0V-173.0Z"/></g>
<g fill="black" opacity=".8" transform="translate(1200 700) scale(0.1 -0.1)"><path d="M0.0 0.0 -1.0 -527.0 153.0 -529.0V0.0ZM84.0 -174.0 81.0 -315.0 427.0 -314.0 429.0 -172.0Z"/></g>
<g fill="red" transform="translate(1300 700) scale(0.1 -0.1)"><path d="M0.0 0.0V-357.0H29.0V0.0ZM12.0 -142.0V-171.0H175.0V-142.0Z"/></g>
<g fill="black" opacity=".8" transform="translate(1300 700) scale(0.1 -0.1)"><path d="M0.0 0.0 1.0 -356.0 30.0 -357.0 29.0 -1.0ZM8.0 -136.0 9.0 -178.0 176.0 -179.0 174.0 -138.0Z"/></g>
<g fill="red" transform="translate(1400 700) scale(0.1 -0.1)"><path d="M0.0 0.0V-369.0H132.0V0.0ZM64.0 -103.0V-232.0H245.0V-103.0Z"/></g>
<g fill="black" opacity=".8" transform="translate(1400 700) scale(0.1 -0.1)"><path d="M0.0 0.0V-369.0L131.0 -370.0L130.0 -1.0ZM67.0 -106.0V-227.0L245.0 -229.0V-106.0Z"/></g>
<g fill="red" transform="translate(1500 700) scale(0.1 -0.1)"><path d="M0.0 0.0V-300.0H30.0V0.0ZM12.0 -132.0V-162.0H167.0V-132.0Z"/></g>
<g fill="black" opacity=".8" transform="translate(1500 700) scale(0.1 -0.1)"><path d="M0.0 0.0 1.0 -300.0 32.0 -301.0 30.0 -1.0ZM3.0 -124.0 9.0 -165.0 171.0 -170.0 164.0 -130.0Z"/></g>
<g fill="red" transform="translate(1600 700) scale(0.1 -0.1)"><path d="M0.0 0.0V-279.0H122.0V0.0ZM29.0 -70.0V-179.0H214.0V-70.0Z"/></g>
<g fill="black" opacity=".8" transform="translate(1600 700) scale(0.1 -0.1)"><path d="M0.0 0.0V-277.0L115.0 -280.0V-0.0ZM33.0 -68.0 35.0 -177.0 216.0 -182.0 212.0 -71.0Z"/></g>
<g fill="red" transform="translate(100 800) scale(0.1 -0.1)"><path d="M0.0 0.0V-591.0L29.0 -580.0V0.0ZM440.0 30.0V1.0H736.0V30.0Z"/></g>
<g fill="black" opacity=".8" transform="translate(100 800) scale(0.1 -0.1)"><path d="M0.0 0.0 -3.0 -588.0 29.0 -582.0 30.0 2.0ZM438.0 34.0 439.0 -1.0 737.0 -2.0 735.0 31.0Z"/></g>
<g fill="red" transform="translate(200 800) scale(0.1 -0.1)"><path d="M0.0 0.0V-587.0L131.0 -554.0V0.0ZM506.0 75.0V-26.0H808.0V75.0Z"/></g>
<g fill="black" opacity=".8" transform="translate(200 800) scale(0.1 -0.1)"><path d="M0.0 0.0 -3.0 -577.0 128.0 -565.0 130.0 2.0ZM508.0 75.0V-25.0L808.0 -27.0L807.0 75.0Z"/></g>
<g fill="red" transform="translate(300 800) scale(0.1 -0.1)"><path d="M0.0 0.0V-393.0H29.0V0.0ZM16.0 -170.0V-199.0H361.0V-170.0Z"/></g>
<g fill="black" opacity=".8" transform="translate(300 800) scale(0.1 -0.1)"><path d="M0.0 0.0V-392.0H30.0V0.0ZM20.0 -172.0 18.0 -197.0 360.0 -195.0V-172.0Z"/></g>
<g fill="red" transform="translate(400 800) scale(0.1 -0.1)"><path d="M0.0 0.0V-378.0H142.0V0.0ZM66.0 -83.0V-209.0H418.0V-83.0Z"/></g>
<g fill="black" opacity=".8" transform="translate(400 800) scale(0.1 -0.1)"><path d="M0.0 0.0 -1.0 -378.0 142.0 -379.0 143.0 1.0ZM65.0 -82.0 63.0 -212.0H417.0L418.0 -81.0Z"/></g>
<g fill="red" transform="translate(500 800) scale(0.1 -0.1)"><path d="M0.0 0.0V-190.0H29.0V0.0ZM9.0 -77.0V-107.0H216.0V-77.0Z"/></g>
<g fill="black" opacity=".8" transform="translate(500 800) scale(0.1 -0.1)"><path d="M0.0 0.0V-191.0H31.0L30.0 -0.0ZM4.0 -74.0 9.0 -103.0 219.0 -108.0 213.0 -80.0Z"/></g>
<g fill="red" transform="translate(600 800) scale(0.1 -0.1)"><path d="M0.0 0.0V-203.0H125.0V0.0ZM59.0 -54.0V-141.0H276.0V-54.0Z"/></g>
<g fill="black" opacity=".8" transform="translate(600 800) scale(0.1 -0.1)"><path d="M0.0 0.0 -1.0 -202.0 119.0 -203.0V-0.0ZM60.0 -48.0 62.0 -145.0 278.0 -149.0 275.0 -51.0Z"/></g>
<g fill="red" transform="translate(700 800) scale(0.1 -0.1)"><path d="M0.0 0.0V-296.0H29.0V0.0ZM9.0 -104.0V-133.0H278.0V-104.0Z"/></g>
<g fill="black" opacity=".8" transform="translate(700 800) scale(0.1 -0.1)"><path d="M0.0 0.0V-295.0H30.0L28.0 -0.0ZM11.0 -102.0 9.0 -138.0 278.0 -135.0V-101.0Z"/></g>
<g fill="red" transform="translate(800 800) scale(0.1 -0.1)"><path d="M0.0 0.0V-293.0H141.0V0.0ZM77.0 -55.0V-185.0H366.0V-55.0Z"/></g>
<g fill="black" opacity=".8" transform="translate(800 800) scale(0.1 -0.1)"><path d="M0.0 0.0 -1.0 -294.0H143.0V-0.0ZM78.0 -59.0 76.0 -182.0H365.0L367.0 -57.0Z"/></g>
<g fill="red" transform="translate(900 800) scale(0.1 -0.1)"><path d="M0.0 0.0V-274.0H29.0V0.0ZM12.0 -106.0V-136.0H149.0V-106.0Z"/></g>
<g fill="black" opacity=".8" transform="translate(900 800) scale(0.1 -0.1)"><path d="M0.0 0.0 1.0 -273.0 27.0 -274.0 26.0 -1.0ZM11.0 -103.0 12.0 -137.0 150.0 -139.0 148.0 -106.0Z"/></g>
<g fill="red" transform="translate(1000 800) scale(0.1 -0.1)"><path d="M0.0 0.0V-248.0H97.0V0.0ZM39.0 -55.0V-150.0H156.0V-55.0Z"/></g>
<g fill="black" opacity=".8" transform="translate(1000 800) scale(0.1 -0.1)"><path d="M0.0 0.0V-248.0L97.0 -249.0V-1.0ZM40.0 -55.0V-149.0L156.0 -151.0L155.0 -56.0Z"/></g>
<g fill="red" transform="translate(1100 800) scale(0.1 -0.1)"><path d="M0.0 0.0V-494.0H30.0V0.0ZM16.0 -211.0V-241.0H312.0V-211.0Z"/></g>
<g fill="black" opacity=".8" transform="translate(1100 800) scale(0.1 -0.1)"><path d="M0.0 0.0V-494.0L33.0 -495.0L32.0 -1.0ZM7.0 -203.0 12.0 -245.0 316.0 -250.0 310.0 -209.0Z"/></g>
<g fill="red" transform="translate(1200 800) scale(0.1 -0.1)"><path d="M0.0 0.0V-527.0H150.0V0.0ZM32.0 -162.0V-299.0H375.0V-162.0Z"/></g>
<g fill="black" opacity=".8" transform="translate(1200 800) scale(0.1 -0.1)"><path d="M0.0 0.0V-525.0L143.0 -527.0L142.0 0.0ZM37.0 -160.0 39.0 -297.0 377.0 -301.0 374.0 -164.0Z"/></g>
<g fill="red" transform="translate(1300 800) scale(0.1 -0.1)"><path d="M0.0 0.0V-243.0H29.0V0.0ZM260.0 -102.0V-131.0H679.0V-102.0Z"/></g>
<g fill="black" opacity=".8" transform="translate(1300 800) scale(0.1 -0.1)"><path d="M0.0 0.0V-243.0H31.0L30.0 -1.0ZM255.0 -95.0 257.0 -137.0 681.0 -139.0 678.0 -98.0Z"/></g>
<g fill="red" transform="translate(1400 800) scale(0.1 -0.1)"><path d="M0.0 0.0V-275.0H144.0V0.0ZM297.0 -73.0V-205.0H730.0V-73.0Z"/></g>
<g fill="black" opacity=".8" transform="translate(1400 800) scale(0.1 -0.1)"><path d="M0.0 0.0V-275.0H141.0L140.0 -0.0ZM301.0 -75.0V-201.0L730.0 -203.0L729.0 -76.0Z"/></g>
<g fill="red" transform="translate(1500 800) scale(0.1 -0.1)"><path d="M0.0 0.0V-234.0H29.0V0.0ZM186.0 -307.0V-336.0H517.0V-307.0Z"/></g>
<g fill="black" opacity=".8" transform="translate(1500 800) scale(0.1 -0.1)"><path d="M0.0 0.0 -1.0 -233.0 28.0 -235.0 29.0 0.0ZM189.0 -308.0V-332.0L517.0 -333.0L516.0 -310.0Z"/></g>
<g fill="red" transform="translate(1600 800) scale(0.1 -0.1)"><path d="M0.0 0.0V-266.0H142.0V0.0ZM248.0 -283.0V-410.0H582.0V-283.0Z"/></g>
<g fill="black" opacity=".8" transform="translate(1600 800) scale(0.1 -0.1)"><path d="M0.0 0.0 -1.0 -263.0 143.0 -270.0V0.0ZM247.0 -281.0 246.0 -413.0 582.0 -414.0V-281.0Z"/></g>
<g fill="red" transform="translate(100 900) scale(0.1 -0.1)"><path d="M0.0 0.0V-199.0H29.0V0.0ZM338.0 0.0V-199.0H367.0V0.0Z"/></g>
<g fill="black" opacity=".8" transform="translate(100 900) scale(0.1 -0.1)"><path d="M0.0 0.0 -1.0 -199.0H30.0V1.0ZM341.0 -2.0V-195.0H367.0L366.0 -3.0Z"/></g>
<g fill="red" transform="translate(200 900) scale(0.1 -0.1)"><path d="M0.0 0.0V-221.0H144.0V0.0ZM340.0 0.0V-225.0H485.0V0.0Z"/></g>
<g fill="black" opacity=".8" transform="translate(200 900) scale(0.1 -0.1)"><path d="M0.0 0.0 -1.0 -221.0H143.0L144.0 1.0ZM338.0 2.0V-229.0L485.0 -230.0V3.0Z"/></g>
<g fill="red" transform="translate(300 900) scale(0.1 -0.1)"><path d="M0.0 0.0V-203.0H31.0V0.0ZM237.0 -81.0V-111.0H647.0V-81.0Z"/></g>
<g fill="black" opacity=".8" transform="translate(300 900) scale(0.1 -0.1)"><path d="M0.0 0.0V-202.0H29.0L28.0 -1.0ZM239.0 -80.0V-112.0H647.0V-81.0Z"/></g>
<g fill="red" transform="translate(400 900) scale(0.1 -0.1)"><path d="M0.0 0.0V-221.0H141.0V0.0ZM305.0 -50.0V-173.0H729.0V-50.0Z"/></g>
<g fill="black" opacity=".8" transform="translate(400 900) scale(0.1 -0.1)"><path d="M0.0 0.0 -1.0 -222.0 144.0 -221.0V-0.0ZM305.0 -52.0 303.0 -172.0H728.0L729.0 -51.0Z"/></g>
<g fill="red" transform="translate(500 900) scale(0.1 -0.1)"><path d="M0.0 0.0V-199.0H29.0V0.0ZM206.0 -89.0V-118.0H621.0V-89.0Z"/></g>
<g fill="black" opacity=".8" transform="translate(500 900) scale(0.1 -0.1)"><path d="M0.0 0.0V-199.0H31.0L30.0 -0.0ZM204.0 -85.0 205.0 -120.0 622.0 -121.0 620.0 -88.0Z"/></g>
<g fill="red" transform="translate(600 900) scale(0.1 -0.1)"><path d="M0.0 0.0V-212.0H144.0V0.0ZM253.0 -49.0V-169.0H690.0V-49.0Z"/></g>
<g fill="black" opacity=".8" transform="translate(600 900) scale(0.1 -0.1)"><path d="M0.0 0.0 -1.0 -212.0H141.0V0.0ZM255.0 -48.0V-169.0L690.0 -171.0V-49.0Z"/></g>
<g fill="red" transform="translate(700 900) scale(0.1 -0.1)"><path d="M0.0 0.0V-203.0H29.0V0.0ZM308.0 -261.0V-291.0H564.0V-261.0Z"/></g>
<g fill="black" opacity=".8" transform="translate(700 900) scale(0.1 -0.1)"><path d="M0.0 0.0 -1.0 -203.0 32.0 -205.0 33.0 0.0ZM301.0 -255.0 305.0 -292.0 567.0 -296.0 562.0 -261.0Z"/></g>
<g fill="red" transform="translate(800 900) scale(0.1 -0.1)"><path d="M0.0 0.0V-221.0H144.0V0.0ZM357.0 -260.0V-378.0H604.0V-260.0Z"/></g>
<g fill="black" opacity=".8" transform="translate(800 900) scale(0.1 -0.1)"><path d="M0.0 0.0 -1.0 -218.0 136.0 -223.0V-0.0ZM360.0 -256.0 362.0 -379.0 606.0 -383.0 603.0 -259.0Z"/></g>
<g fill="red" transform="translate(900 900) scale(0.1 -0.1)"><path d="M0.0 0.0V-502.0H29.0V0.0ZM13.0 -215.0V-245.0H292.0V-215.0Z"/></g>
<g fill="black" opacity=".8" transform="translate(900 900) scale(0.1 -0.1)"><path d="M0.0 0.0V-501.0L29.0 -502.0L28.0 -0.0ZM14.0 -213.0V-247.0L292.0 -246.0V-214.0Z"/></g>
<g fill="red" transform="translate(1000 900) scale(0.1 -0.1)"><path d="M0.0 0.0V-527.0H143.0V0.0ZM67.0 -184.0V-318.0H360.0V-184.0Z"/></g>
<g fill="black" opacity=".8" transform="translate(1000 900) scale(0.1 -0.1)"><path d="M0.0 0.0 -1.0 -527.0 144.0 -528.0V-0.0ZM68.0 -186.0 66.0 -317.0H359.0L360.0 -185.0Z"/></g>
<g fill="red" transform="translate(1100 900) scale(0.1 -0.1)"><path d="M0.0 0.0V-446.0H29.0V0.0ZM10.0 -187.0V-215.0H235.0V-187.0Z"/></g>
<g fill="black" opacity=".8" transform="translate(1100 900) scale(0.1 -0.1)"><path d="M0.0 0.0V-446.0H31.0L30.0 -0.0ZM7.0 -183.0 9.0 -217.0 236.0 -219.0 234.0 -186.0Z"/></g>
<g fill="red" transform="translate(1200 900) scale(0.1 -0.1)"><path d="M0.0 0.0V-459.0H138.0V0.0ZM54.0 -143.0V-267.0H289.0V-143.0Z"/></g>
<g fill="black" opacity=".8" transform="translate(1200 900) scale(0.1 -0.1)"><path d="M0.0 0.0 -1.0 -458.0 135.0 -460.0V-0.0ZM56.0 -143.0V-266.0L289.0 -268.0L288.0 -144.0Z"/></g>
<g fill="red" transform="translate(1300 900) scale(0.1 -0.1)"><path d="M0.0 0.0V-384.0H30.0V0.0ZM14.0 -160.0V-189.0H147.0V-160.0Z"/></g>
<g fill="black" opacity=".8" transform="translate(1300 900) scale(0.1 -0.1)"><path d="M0.0 0.0 1.0 -384.0H30.0L29.0 -1.0ZM8.0 -154.0 12.0 -193.0 150.0 -196.0 145.0 -158.0Z"/></g>
<g fill="red" transform="translate(1400 900) scale(0.1 -0.1)"><path d="M0.0 0.0V-387.0H122.0V0.0ZM48.0 -107.0V-224.0H209.0V-107.0Z"/></g>
<g fill="black" opacity=".8" transform="translate(1400 900) scale(0.1 -0.1)"><path d="M0.0 0.0V-386.0L119.0 -388.0L118.0 -0.0ZM51.0 -107.0 52.0 -221.0 210.0 -225.0 208.0 -109.0Z"/></g>
<g fill="red" transform="translate(1500 900) scale(0.1 -0.1)"><path d="M0.0 0.0V-851.0H29.0V0.0ZM17.0 -339.0V-368.0H252.0V-339.0Z"/></g>
<g fill="black" opacity=".8" transform="translate(1500 900) scale(0.1 -0.1)"><path d="M0.0 0.0V-850.0L29.0 -851.0L27.0 -1.0ZM14.0 -334.0 16.0 -371.0 254.0 -373.0 250.0 -338.0Z"/></g>
<g fill="red" transform="translate(1600 900) scale(0.1 -0.1)"><path d="M0.0 0.0V-837.0H150.0V0.0ZM37.0 -296.0V-436.0H366.0V-296.0Z"/></g>
<g fill="black" opacity=".8" transform="translate(1600 900) scale(0.1 -0.1)"><path d="M0.0 0.0V-837.0L149.0 -838.0L148.0 -0.0ZM39.0 -296.0 40.0 -434.0 367.0 -437.0 365.0 -298.0Z"/></g>
<g fill="red" transform="translate(100 1000) scale(0.1 -0.1)"><path d="M0.0 0.0V-287.0H31.0V0.0ZM9.0 -109.0V-138.0H442.0V-109.0Z"/></g>
<g fill="black" opacity=".8" transform="translate(100 1000) scale(0.1 -0.1)"><path d="M0.0 0.0V-286.0H30.0L29.0 -0.0ZM15.0 -112.0 13.0 -136.0 441.0 -134.0 442.0 -111.0Z"/></g>
<g fill="red" transform="translate(200 1000) scale(0.1 -0.1)"><path d="M0.0 0.0V-320.0H150.0V0.0ZM83.0 -63.0V-190.0H516.0V-63.0Z"/></g>
<g fill="black" opacity=".8" transform="translate(200 1000) scale(0.1 -0.1)"><path d="M0.0 0.0 -1.0 -320.0 154.0 -321.0V0.0ZM81.0 -63.0 79.0 -192.0 515.0 -191.0 517.0 -61.0Z"/></g>
<g fill="red" transform="translate(300 1000) scale(0.1 -0.1)"><path d="M0.0 0.0V-502.0H29.0V0.0ZM13.0 -215.0V-245.0H291.0V-215.0Z"/></g>
<g fill="black" opacity=".8" transform="translate(300 1000) scale(0.1 -0.1)"><path d="M0.0 0.0V-501.0H27.0L26.0 -0.0ZM18.0 -215.0 15.0 -246.0 290.0 -244.0 291.0 -214.0Z"/></g>
<g fill="red" transform="translate(400 1000) scale(0.1 -0.1)"><path d="M0.0 0.0V-527.0H135.0V0.0ZM72.0 -176.0V-310.0H354.0V-176.0Z"/></g>
<g fill="black" opacity=".8" transform="translate(400 1000) scale(0.1 -0.1)"><path d="M0.0 0.0 -1.0 -527.0 140.0 -529.0 139.0 -0.0ZM71.0 -179.0 69.0 -309.0 353.0 -308.0 354.0 -177.0Z"/></g>
<g fill="red" transform="translate(500 1000) scale(0.1 -0.1)"><path d="M0.0 0.0V-335.0H29.0V0.0ZM414.0 -105.0V-134.0H675.0V-105.0Z"/></g>
<g fill="black" opacity=".8" transform="translate(500 1000) scale(0.1 -0.1)"><path d="M0.0 0.0V-334.0H30.0L29.0 -1.0ZM414.0 -101.0 413.0 -139.0 675.0 -138.0V-102.0Z"/></g>
<g fill="red" transform="translate(600 1000) scale(0.1 -0.1)"><path d="M0.0 0.0V-383.0H131.0V0.0ZM493.0 -65.0V-195.0H750.0V-65.0Z"/></g>
<g fill="black" opacity=".8" transform="translate(600 1000) scale(0.1 -0.1)"><path d="M0.0 0.0 -1.0 -384.0 132.0 -383.0 131.0 -0.0ZM494.0 -68.0 493.0 -192.0H749.0L750.0 -67.0Z"/></g>
<g fill="red" transform="translate(700 1000) scale(0.1 -0.1)"><path d="M0.0 0.0V-353.0H29.0V0.0ZM434.0 -188.0V-217.0H691.0V-188.0Z"/></g>
<g fill="black" opacity=".8" transform="translate(700 1000) scale(0.1 -0.1)"><path d="M0.0 0.0V-352.0L30.0 -353.0L29.0 -1.0ZM433.0 -185.0 434.0 -219.0H691.0L690.0 -187.0Z"/></g>
<g fill="red" transform="translate(800 1000) scale(0.1 -0.1)"><path d="M0.0 0.0V-356.0H133.0V0.0ZM496.0 -121.0V-248.0H771.0V-121.0Z"/></g>
<g fill="black" opacity=".8" transform="translate(800 1000) scale(0.1 -0.1)"><path d="M0.0 0.0 -1.0 -355.0 132.0 -357.0V0.0ZM497.0 -121.0 496.0 -248.0 771.0 -249.0V-121.0Z"/></g>
<g fill="red" transform="translate(900 1000) scale(0.1 -0.1)"><path d="M0.0 0.0V-393.0H30.0V0.0ZM11.0 -173.0V-203.0H245.0V-173.0Z"/></g>
<g fill="black" opacity=".8" transform="translate(900 1000) scale(0.1 -0.1)"><path d="M0.0 0.0V-392.0L30.0 -393.0L29.0 -0.0ZM11.0 -172.0 12.0 -203.0H246.0L244.0 -174.0Z"/></g>
<g fill="red" transform="translate(1000 1000) scale(0.1 -0.1)"><path d="M0.0 0.0V-414.0H137.0V0.0ZM68.0 -108.0V-234.0H325.0V-108.0Z"/></g>
<g fill="black" opacity=".8" transform="translate(1000 1000) scale(0.1 -0.1)"><path d="M0.0 0.0 -1.0 -413.0 137.0 -415.0 136.0 0.0ZM68.0 -107.0V-235.0L325.0 -236.0V-108.0Z"/></g>
<g fill="red" transform="translate(1100 1000) scale(0.1 -0.1)"><path d="M0.0 0.0V-194.0H29.0V0.0ZM384.0 -176.0V-205.0H632.0V-176.0Z"/></g>
<g fill="black" opacity=".8" transform="translate(1100 1000) scale(0.1 -0.1)"><path d="M0.0 0.0 1.0 -191.0 22.0 -194.0 21.0 -1.0ZM387.0 -173.0 386.0 -211.0 632.0 -209.0V-173.0Z"/></g>
<g fill="red" transform="translate(1200 1000) scale(0.1 -0.1)"><path d="M0.0 0.0V-257.0H96.0V0.0ZM436.0 -143.0V-272.0H684.0V-143.0Z"/></g>
<g fill="black" opacity=".8" transform="translate(1200 1000) scale(0.1 -0.1)"><path d="M0.0 0.0V-256.0L105.0 -261.0L104.0 -1.0ZM436.0 -149.0 434.0 -265.0H682.0L684.0 -148.0Z"/></g>
<g fill="red" transform="translate(1300 1000) scale(0.1 -0.1)"><path d="M0.0 0.0V-502.0H29.0V0.0ZM18.0 -215.0V-245.0H297.0V-215.0Z"/></g>
<g fill="black" opacity=".8" transform="translate(1300 1000) scale(0.1 -0.1)"><path d="M0.0 0.0V-501.0H29.0L28.0 -0.0ZM21.0 -215.0 20.0 -246.0 297.0 -245.0V-215.0Z"/></g>
<g fill="red" transform="translate(1400 1000) scale(0.1 -0.1)"><path d="M0.0 0.0V-527.0H145.0V0.0ZM82.0 -184.0V-318.0H379.0V-184.0Z"/></g>
<g fill="black" opacity=".8" transform="translate(1400 1000) scale(0.1 -0.1)"><path d="M0.0 0.0 -1.0 -527.0 147.0 -528.0V-0.0ZM82.0 -186.0 80.0 -317.0H378.0L379.0 -185.0Z"/></g>
<g fill="red" transform="translate(1500 1000) scale(0.1 -0.1)"><path d="M0.0 0.0V-481.0H30.0V0.0ZM19.0 -217.0V-247.0H329.0V-217.0Z"/></g>
<g fill="black" opacity=".8" transform="translate(1500 1000) scale(0.1 -0.1)"><path d="M0.0 0.0V-480.0L30.0 -481.0L29.0 -0.0ZM20.0 -216.0V-248.0L329.0 -247.0L328.0 -217.0Z"/></g>
<g fill="red" transform="translate(1600 1000) scale(0.1 -0.1)"><path d="M0.0 0.0V-527.0H144.0V0.0ZM74.0 -180.0V-317.0H385.0V-180.0Z"/></g>
<g fill="black" opacity=".8" transform="translate(1600 1000) scale(0.1 -0.1)"><path d="M0.0 0.0 -1.0 -527.0 145.0 -528.0V-0.0ZM74.0 -181.0 73.0 -316.0 384.0 -317.0 385.0 -180.0Z"/></g>
<g fill="red" transform="translate(100 1100) scale(0.1 -0.1)"><path d="M0.0 0.0V-450.0H30.0V0.0ZM11.0 -197.0V-226.0H237.0V-197.0Z"/></g>
<g fill="black" opacity=".8" transform="translate(100 1100) scale(0.1 -0.1)"><path d="M0.0 0.0V-450.0H32.0L31.0 -1.0ZM7.0 -192.0 9.0 -229.0 239.0 -231.0 235.0 -195.0Z"/></g>
<g fill="red" transform="translate(200 1100) scale(0.1 -0.1)"><path d="M0.0 0.0V-495.0H139.0V0.0ZM54.0 -152.0V-284.0H293.0V-152.0Z"/></g>
<g fill="black" opacity=".8" transform="translate(200 1100) scale(0.1 -0.1)"><path d="M0.0 0.0 -1.0 -494.0 136.0 -496.0 135.0 -0.0ZM57.0 -152.0V-282.0L294.0 -285.0L292.0 -153.0Z"/></g>
<g fill="red" transform="translate(300 1100) scale(0.1 -0.1)"><path d="M0.0 0.0V-273.0H30.0V0.0ZM12.0 -106.0V-135.0H132.0V-106.0Z"/></g>
<g fill="black" opacity=".8" transform="translate(300 1100) scale(0.1 -0.1)"><path d="M0.0 0.0 1.0 -272.0H26.0L25.0 -1.0ZM14.0 -105.0 15.0 -134.0H133.0L131.0 -107.0Z"/></g>
<g fill="red" transform="translate(400 1100) scale(0.1 -0.1)"><path d="M0.0 0.0V-234.0H89.0V0.0ZM47.0 -57.0V-143.0H129.0V-57.0Z"/></g>
<g fill="black" opacity=".8" transform="translate(400 1100) scale(0.1 -0.1)"><path d="M0.0 0.0V-234.0L92.0 -236.0V-1.0ZM46.0 -57.0 45.0 -143.0 129.0 -144.0 128.0 -57.0Z"/></g>
<g fill="red" transform="translate(500 1100) scale(0.1 -0.1)"><path d="M0.0 0.0V-269.0H30.0V0.0ZM277.0 -216.0V-246.0H613.0V-216.0Z"/></g>
<g fill="black" opacity=".8" transform="translate(500 1100) scale(0.1 -0.1)"><path d="M0.0 0.0 -2.0 -269.0H27.0L29.0 1.0ZM290.0 -229.0 288.0 -228.0 610.0 -226.0 611.0 -229.0Z"/></g>
<g fill="red" transform="translate(600 1100) scale(0.1 -0.1)"><path d="M0.0 0.0V-324.0H133.0V0.0ZM397.0 -202.0V-289.0H668.0V-202.0Z"/></g>
<g fill="black" opacity=".8" transform="translate(600 1100) scale(0.1 -0.1)"><path d="M0.0 0.0 -2.0 -323.0 137.0 -325.0 138.0 1.0ZM389.0 -193.0 387.0 -303.0 667.0 -302.0 669.0 -192.0Z"/></g>
<g fill="red" transform="translate(700 1100) scale(0.1 -0.1)"><path d="M0.0 0.0V-282.0H29.0V0.0ZM14.0 -105.0V-134.0H227.0V-105.0Z"/></g>
<g fill="black" opacity=".8" transform="translate(700 1100) scale(0.1 -0.1)"><path d="M0.0 0.0V-281.0H29.0L28.0 -1.0ZM13.0 -102.0 14.0 -137.0H228.0L226.0 -103.0Z"/></g>
<g fill="red" transform="translate(800 1100) scale(0.1 -0.1)"><path d="M0.0 0.0V-306.0H128.0V0.0ZM76.0 -72.0V-190.0H289.0V-72.0Z"/></g>
<g fill="black" opacity=".8" transform="translate(800 1100) scale(0.1 -0.1)"><path d="M0.0 0.0 -1.0 -306.0 128.0 -307.0V-0.0ZM77.0 -74.0 76.0 -188.0 289.0 -189.0V-73.0Z"/></g>
<g fill="red" transform="translate(900 1100) scale(0.1 -0.1)"><path d="M0.0 0.0H307.0V-266.0H0.0ZM587.0 -159.0V-188.0H835.0V-159.0Z"/></g>
<g fill="black" opacity=".8" transform="translate(900 1100) scale(0.1 -0.1)"><path d="M0.0 0.0 312.0 1.0 310.0 -264.0 -2.0 -265.0ZM594.0 -162.0 589.0 -188.0 832.0 -183.0 836.0 -159.0Z"/></g>
<g fill="red" transform="translate(1000 1100) scale(0.1 -0.1)"><path d="M0.0 0.0H225.0V-205.0H0.0ZM569.0 -79.0V-213.0H808.0V-79.0Z"/></g>
<g fill="black" opacity=".8" transform="translate(1000 1100) scale(0.1 -0.1)"><path d="M0.0 0.0 222.0 -3.0 228.0 -204.0 5.0 -198.0ZM568.0 -82.0 563.0 -214.0 805.0 -211.0 810.0 -78.0Z"/></g>
<g fill="red" transform="translate(1100 1100) scale(0.1 -0.1)"><path d="M0.0 0.0V-662.0H30.0V0.0ZM7.0 -314.0V-343.0H317.0V-314.0Z"/></g>
<g fill="black" opacity=".8" transform="translate(1100 1100) scale(0.1 -0.1)"><path d="M0.0 0.0 -1.0 -661.0 30.0 -662.0V0.0ZM9.0 -315.0 10.0 -339.0H317.0L315.0 -317.0Z"/></g>
<g fill="red" transform="translate(1200 1100) scale(0.1 -0.1)"><path d="M0.0 0.0V-693.0H150.0V0.0ZM54.0 -262.0V-395.0H374.0V-262.0Z"/></g>
<g fill="black" opacity=".8" transform="translate(1200 1100) scale(0.1 -0.1)"><path d="M0.0 0.0 -1.0 -692.0 149.0 -694.0V0.0ZM53.0 -259.0V-399.0L374.0 -400.0V-259.0Z"/></g>
<g fill="red" transform="translate(1300 1100) scale(0.1 -0.1)"><path d="M0.0 0.0V-423.0H29.0V0.0ZM13.0 -176.0V-206.0H344.0V-176.0Z"/></g>
<g fill="black" opacity=".8" transform="translate(1300 1100) scale(0.1 -0.1)"><path d="M0.0 0.0V-422.0H28.0L27.0 -0.0ZM18.0 -176.0 15.0 -209.0 343.0 -205.0 345.0 -174.0Z"/></g>
<g fill="red" transform="translate(1400 1100) scale(0.1 -0.1)"><path d="M0.0 0.0V-414.0H142.0V0.0ZM70.0 -121.0V-258.0H412.0V-121.0Z"/></g>
<g fill="black" opacity=".8" transform="translate(1400 1100) scale(0.1 -0.1)"><path d="M0.0 0.0 -1.0 -415.0 147.0 -416.0V0.0ZM69.0 -125.0 66.0 -256.0 410.0 -255.0 413.0 -122.0Z"/></g>
<g fill="red" transform="translate(1500 1100) scale(0.1 -0.1)"><path d="M0.0 0.0V-458.0H30.0V0.0ZM11.0 -190.0V-219.0H272.0V-190.0Z"/></g>
<g fill="black" opacity=".8" transform="translate(1500 1100) scale(0.1 -0.1)"><path d="M0.0 0.0 1.0 -457.0 31.0 -458.0 30.0 -1.0ZM7.0 -184.0 9.0 -223.0 274.0 -225.0 271.0 -188.0Z"/></g>
<g fill="red" transform="translate(1600 1100) scale(0.1 -0.1)"><path d="M0.0 0.0V-527.0H147.0V0.0ZM63.0 -165.0V-303.0H356.0V-165.0Z"/></g>
<g fill="black" opacity=".8" transform="translate(1600 1100) scale(0.1 -0.1)"><path d="M0.0 0.0 -1.0 -526.0 145.0 -528.0 144.0 -0.0ZM66.0 -166.0V-300.0L357.0 -303.0L355.0 -167.0Z"/></g>
<g fill="red" transform="translate(100 1200) scale(0.1 -0.1)"><path d="M0.0 0.0V-191.0H29.0V0.0ZM17.0 -60.0V-90.0H185.0V-60.0Z"/></g>
<g fill="black" opacity=".8" transform="translate(100 1200) scale(0.1 -0.1)"><path d="M0.0 0.0 1.0 -192.0H31.0L29.0 -1.0ZM10.0 -55.0 16.0 -89.0 188.0 -94.0 182.0 -61.0Z"/></g>
<g fill="red" transform="translate(200 1200) scale(0.1 -0.1)"><path d="M0.0 0.0V-167.0H115.0V0.0ZM48.0 -30.0V-112.0H224.0V-30.0Z"/></g>
<g fill="black" opacity=".8" transform="translate(200 1200) scale(0.1 -0.1)"><path d="M0.0 0.0 -1.0 -166.0 108.0 -167.0V-0.0ZM50.0 -25.0 53.0 -113.0 226.0 -119.0 222.0 -29.0Z"/></g>
<g fill="red" transform="translate(300 1200) scale(0.1 -0.1)"><path d="M0.0 0.0V-670.0H30.0V0.0ZM438.0 -82.0V-111.0H737.0V-82.0Z"/></g>
<g fill="black" opacity=".8" transform="translate(300 1200) scale(0.1 -0.1)"><path d="M0.0 0.0V-671.0L33.0 -669.0L32.0 -1.0ZM436.0 -80.0 439.0 -108.0 738.0 -110.0 735.0 -84.0Z"/></g>
<g fill="red" transform="translate(400 1200) scale(0.1 -0.1)"><path d="M0.0 0.0V-671.0H139.0V0.0ZM504.0 -43.0V-144.0H799.0V-43.0Z"/></g>
<g fill="black" opacity=".8" transform="translate(400 1200) scale(0.1 -0.1)"><path d="M0.0 0.0 -1.0 -674.0 135.0 -667.0V-0.0ZM505.0 -39.0V-147.0L799.0 -150.0L798.0 -40.0Z"/></g>
<g fill="red" transform="translate(500 1200) scale(0.1 -0.1)"><path d="M0.0 0.0V-635.0H30.0V0.0ZM432.0 -73.0V-102.0H699.0V-73.0Z"/></g>
<g fill="black" opacity=".8" transform="translate(500 1200) scale(0.1 -0.1)"><path d="M0.0 0.0V-635.0L29.0 -633.0L27.0 -1.0ZM438.0 -77.0V-96.0L698.0 -94.0V-78.0Z"/></g>
<g fill="red" transform="translate(600 1200) scale(0.1 -0.1)"><path d="M0.0 0.0V-653.0H132.0V0.0ZM535.0 -30.0V-128.0H807.0V-30.0Z"/></g>
<g fill="black" opacity=".8" transform="translate(600 1200) scale(0.1 -0.1)"><path d="M0.0 0.0 -1.0 -657.0 136.0 -650.0 135.0 0.0ZM531.0 -27.0 530.0 -133.0H806.0L807.0 -26.0Z"/></g>
<g fill="red" transform="translate(700 1200) scale(0.1 -0.1)"><path d="M0.0 0.0V-693.0H30.0V0.0ZM21.0 -300.0V-329.0H396.0V-300.0Z"/></g>
<g fill="black" opacity=".8" transform="translate(700 1200) scale(0.1 -0.1)"><path d="M0.0 0.0 -2.0 -692.0 29.0 -691.0 30.0 0.0ZM34.0 -309.0 28.0 -323.0 392.0 -316.0 397.0 -304.0Z"/></g>
<g fill="red" transform="translate(800 1200) scale(0.1 -0.1)"><path d="M0.0 0.0V-635.0H157.0V0.0ZM94.0 -221.0V-356.0H461.0V-221.0Z"/></g>
<g fill="black" opacity=".8" transform="translate(800 1200) scale(0.1 -0.1)"><path d="M0.0 0.0 -2.0 -636.0 164.0 -637.0 165.0 1.0ZM89.0 -222.0 84.0 -362.0 459.0 -359.0 463.0 -217.0Z"/></g>
<g fill="red" transform="translate(900 1200) scale(0.1 -0.1)"><path d="M0.0 0.0V-361.0H30.0V0.0ZM11.0 -160.0V-190.0H303.0V-160.0Z"/></g>
<g fill="black" opacity=".8" transform="translate(900 1200) scale(0.1 -0.1)"><path d="M0.0 0.0V-360.0L29.0 -361.0L28.0 -0.0ZM12.0 -159.0V-191.0H303.0L302.0 -160.0Z"/></g>
<g fill="red" transform="translate(1000 1200) scale(0.1 -0.1)"><path d="M0.0 0.0V-414.0H138.0V0.0ZM73.0 -127.0V-257.0H372.0V-127.0Z"/></g>
<g fill="black" opacity=".8" transform="translate(1000 1200) scale(0.1 -0.1)"><path d="M0.0 0.0 -1.0 -414.0 140.0 -415.0 139.0 -0.0ZM73.0 -128.0 72.0 -256.0 371.0 -257.0 372.0 -128.0Z"/></g>
<g fill="red" transform="translate(1100 1200) scale(0.1 -0.1)"><path d="M0.0 0.0V-458.0H29.0V0.0ZM10.0 -190.0V-219.0H250.0V-190.0Z"/></g>
<g fill="black" opacity=".8" transform="translate(1100 1200) scale(0.1 -0.1)"><path d="M0.0 0.0 1.0 -457.0 30.0 -458.0 28.0 -1.0ZM6.0 -184.0 8.0 -224.0 252.0 -226.0 249.0 -187.0Z"/></g>
<g fill="red" transform="translate(1200 1200) scale(0.1 -0.1)"><path d="M0.0 0.0V-527.0H143.0V0.0ZM61.0 -165.0V-303.0H347.0V-165.0Z"/></g>
<g fill="black" opacity=".8" transform="translate(1200 1200) scale(0.1 -0.1)"><path d="M0.0 0.0V-526.0L141.0 -528.0L140.0 -0.0ZM64.0 -166.0V-299.0L347.0 -302.0L346.0 -168.0Z"/></g>
<g fill="red" transform="translate(1300 1200) scale(0.1 -0.1)"><path d="M0.0 0.0V-366.0H30.0V0.0ZM15.0 -168.0V-198.0H249.0V-168.0Z"/></g>
<g fill="black" opacity=".8" transform="translate(1300 1200) scale(0.1 -0.1)"><path d="M0.0 0.0 1.0 -365.0 30.0 -366.0 29.0 -1.0ZM12.0 -164.0 14.0 -200.0 251.0 -202.0 247.0 -167.0Z"/></g>
<g fill="red" transform="translate(1400 1200) scale(0.1 -0.1)"><path d="M0.0 0.0V-446.0H132.0V0.0ZM67.0 -137.0V-266.0H311.0V-137.0Z"/></g>
<g fill="black" opacity=".8" transform="translate(1400 1200) scale(0.1 -0.1)"><path d="M0.0 0.0V-445.0L131.0 -447.0L130.0 -0.0ZM68.0 -137.0 69.0 -264.0 311.0 -267.0 310.0 -139.0Z"/></g>
<g fill="red" transform="translate(1500 1200) scale(0.1 -0.1)"><path d="M0.0 0.0V-361.0H30.0V0.0ZM11.0 -160.0V-190.0H254.0V-160.0Z"/></g>
<g fill="black" opacity=".8" transform="translate(1500 1200) scale(0.1 -0.1)"><path d="M0.0 0.0V-360.0L31.0 -361.0L30.0 -0.0ZM11.0 -158.0V-191.0H255.0L253.0 -160.0Z"/></g>
<g fill="red" transform="translate(1600 1200) scale(0.1 -0.1)"><path d="M0.0 0.0V-414.0H138.0V0.0ZM73.0 -104.0V-234.0H324.0V-104.0Z"/></g>
<g fill="black" opacity=".8" transform="translate(1600 1200) scale(0.1 -0.1)"><path d="M0.0 0.0 -1.0 -413.0 137.0 -415.0V0.0ZM74.0 -104.0 73.0 -234.0 324.0 -236.0V-104.0Z"/></g>
<g fill="red" transform="translate(100 1300) scale(0.1 -0.1)"><path d="M0.0 0.0V-379.0H29.0V0.0ZM10.0 -166.0V-196.0H240.0V-166.0Z"/></g>
<g fill="black" opacity=".8" transform="translate(100 1300) scale(0.1 -0.1)"><path d="M0.0 0.0V-379.0H31.0L29.0 -0.0ZM7.0 -161.0 8.0 -199.0 242.0 -201.0 239.0 -165.0Z"/></g>
<g fill="red" transform="translate(200 1300) scale(0.1 -0.1)"><path d="M0.0 0.0V-405.0H141.0V0.0ZM59.0 -120.0V-249.0H325.0V-120.0Z"/></g>
<g fill="black" opacity=".8" transform="translate(200 1300) scale(0.1 -0.1)"><path d="M0.0 0.0 -1.0 -404.0 138.0 -406.0V0.0ZM61.0 -120.0 62.0 -247.0 326.0 -250.0 325.0 -121.0Z"/></g>
<g fill="red" transform="translate(300 1300) scale(0.1 -0.1)"><path d="M0.0 0.0V-393.0H29.0V0.0ZM11.0 -173.0V-203.0H227.0V-173.0Z"/></g>
<g fill="black" opacity=".8" transform="translate(300 1300) scale(0.1 -0.1)"><path d="M0.0 0.0V-392.0L29.0 -393.0L27.0 -1.0ZM10.0 -170.0 11.0 -206.0H228.0L226.0 -172.0Z"/></g>
<g fill="red" transform="translate(400 1300) scale(0.1 -0.1)"><path d="M0.0 0.0V-414.0H130.0V0.0ZM56.0 -104.0V-234.0H306.0V-104.0Z"/></g>
<g fill="black" opacity=".8" transform="translate(400 1300) scale(0.1 -0.1)"><path d="M0.0 0.0 -1.0 -413.0 130.0 -416.0V0.0ZM57.0 -105.0V-232.0L306.0 -234.0V-105.0Z"/></g>
<g fill="red" transform="translate(500 1300) scale(0.1 -0.1)"><path d="M0.0 0.0V-190.0H30.0V0.0ZM438.0 -167.0V-197.0H651.0V-167.0Z"/></g>
<g fill="black" opacity=".8" transform="translate(500 1300) scale(0.1 -0.1)"><path d="M0.0 0.0V-190.0L30.0 -191.0L29.0 -1.0ZM432.0 -161.0 436.0 -200.0 654.0 -204.0 649.0 -166.0Z"/></g>
<g fill="red" transform="translate(600 1300) scale(0.1 -0.1)"><path d="M0.0 0.0V-203.0H125.0V0.0ZM488.0 -127.0V-243.0H732.0V-127.0Z"/></g>
<g fill="black" opacity=".8" transform="translate(600 1300) scale(0.1 -0.1)"><path d="M0.0 0.0V-201.0L121.0 -204.0V-0.0ZM491.0 -126.0 493.0 -241.0 733.0 -245.0 731.0 -129.0Z"/></g>
<g fill="red" transform="translate(700 1300) scale(0.1 -0.1)"><path d="M0.0 0.0V-393.0H29.0V0.0ZM-414.0 -77.0V-107.0H-189.0V-77.0Z"/></g>
<g fill="black" opacity=".8" transform="translate(700 1300) scale(0.1 -0.1)"><path d="M0.0 0.0 1.0 -394.0 30.0 -393.0 28.0 -0.0ZM-416.0 -76.0 -412.0 -102.0 -187.0 -106.0 -192.0 -81.0Z"/></g>
<g fill="red" transform="translate(800 1300) scale(0.1 -0.1)"><path d="M0.0 0.0V-414.0H126.0V0.0ZM-383.0 -53.0V-140.0H-148.0V-53.0Z"/></g>
<g fill="black" opacity=".8" transform="translate(800 1300) scale(0.1 -0.1)"><path d="M0.0 0.0 -1.0 -413.0H122.0L121.0 -0.0ZM-383.0 -47.0 -381.0 -144.0 -147.0 -149.0 -150.0 -50.0Z"/></g>
<g fill="red" transform="translate(900 1300) scale(0.1 -0.1)"><path d="M0.0 0.0V-384.0H30.0V0.0ZM12.0 -173.0V-203.0H202.0V-173.0Z"/></g>
<g fill="black" opacity=".8" transform="translate(900 1300) scale(0.1 -0.1)"><path d="M0.0 0.0 1.0 -384.0 31.0 -385.0 29.0 -1.0ZM3.0 -164.0 8.0 -208.0 206.0 -213.0 199.0 -171.0Z"/></g>
<g fill="red" transform="translate(1000 1300) scale(0.1 -0.1)"><path d="M0.0 0.0V-405.0H131.0V0.0ZM30.0 -118.0V-242.0H287.0V-118.0Z"/></g>
<g fill="black" opacity=".8" transform="translate(1000 1300) scale(0.1 -0.1)"><path d="M0.0 0.0V-403.0L125.0 -406.0L124.0 -0.0ZM34.0 -116.0 37.0 -239.0 289.0 -244.0 285.0 -121.0Z"/></g>
<g fill="red" transform="translate(1100 1300) scale(0.1 -0.1)"><path d="M0.0 0.0V-379.0H29.0V0.0ZM14.0 -162.0V-192.0H385.0V-162.0Z"/></g>
<g fill="black" opacity=".8" transform="translate(1100 1300) scale(0.1 -0.1)"><path d="M0.0 0.0V-379.0L30.0 -378.0L29.0 0.0ZM18.0 -164.0 17.0 -190.0 384.0 -188.0V-164.0Z"/></g>
<g fill="red" transform="translate(1200 1300) scale(0.1 -0.1)"><path d="M0.0 0.0V-378.0H150.0V0.0ZM75.0 -103.0V-229.0H467.0V-103.0Z"/></g>
<g fill="black" opacity=".8" transform="translate(1200 1300) scale(0.1 -0.1)"><path d="M0.0 0.0 -1.0 -378.0 151.0 -379.0V1.0ZM74.0 -102.0 72.0 -232.0H466.0L467.0 -101.0Z"/></g>
<g fill="red" transform="translate(1300 1300) scale(0.1 -0.1)"><path d="M0.0 0.0V-190.0H30.0V0.0ZM14.0 -73.0V-103.0H236.0V-73.0Z"/></g>
<g fill="black" opacity=".8" transform="translate(1300 1300) scale(0.1 -0.1)"><path d="M0.0 0.0 1.0 -190.0H29.0L27.0 -1.0ZM11.0 -69.0 15.0 -102.0 239.0 -106.0 234.0 -75.0Z"/></g>
<g fill="red" transform="translate(1400 1300) scale(0.1 -0.1)"><path d="M0.0 0.0V-194.0H117.0V0.0ZM54.0 -44.0V-137.0H293.0V-44.0Z"/></g>
<g fill="black" opacity=".8" transform="translate(1400 1300) scale(0.1 -0.1)"><path d="M0.0 0.0V-193.0L114.0 -194.0V-0.0ZM55.0 -41.0 57.0 -137.0 294.0 -142.0 292.0 -44.0Z"/></g>
<g fill="red" transform="translate(1500 1300) scale(0.1 -0.1)"><path d="M0.0 0.0H325.0V-268.0H0.0ZM569.0 -69.0V-98.0H803.0V-69.0Z"/></g>
<g fill="black" opacity=".8" transform="translate(1500 1300) scale(0.1 -0.1)"><path d="M0.0 0.0 320.0 1.0 321.0 -269.0 1.0 -270.0ZM564.0 -63.0 568.0 -99.0 806.0 -103.0 801.0 -69.0Z"/></g>
<g fill="red" transform="translate(1600 1300) scale(0.1 -0.1)"><path d="M0.0 0.0H225.0V-196.0H0.0ZM507.0 23.0V-96.0H801.0V23.0Z"/></g>
<g fill="black" opacity=".8" transform="translate(1600 1300) scale(0.1 -0.1)"><path d="M0.0 0.0 227.0 4.0 222.0 -199.0 -6.0 -202.0ZM509.0 25.0 511.0 -95.0 802.0 -99.0 800.0 22.0Z"/></g>
<g fill="red" transform="translate(100 1400) scale(0.1 -0.1)"><path d="M0.0 0.0V-635.0L30.0 -625.0V0.0ZM414.0 13.0V-16.0H722.0V13.0Z"/></g>
<g fill="black" opacity=".8" transform="translate(100 1400) scale(0.1 -0.1)"><path d="M0.0 0.0 -2.0 -632.0 29.0 -627.0V1.0ZM417.0 13.0V-14.0L722.0 -13.0L721.0 11.0Z"/></g>
<g fill="red" transform="translate(200 1400) scale(0.1 -0.1)"><path d="M0.0 0.0V-632.0L132.0 -611.0V0.0ZM497.0 60.0V-38.0H815.0V60.0Z"/></g>
<g fill="black" opacity=".8" transform="translate(200 1400) scale(0.1 -0.1)"><path d="M0.0 0.0 -2.0 -627.0 133.0 -616.0 134.0 1.0ZM496.0 61.0 495.0 -39.0 814.0 -40.0 815.0 61.0Z"/></g>
<g fill="red" transform="translate(300 1400) scale(0.1 -0.1)"><path d="M0.0 0.0V-300.0H29.0V0.0ZM18.0 -118.0V-147.0H169.0V-118.0Z"/></g>
<g fill="black" opacity=".8" transform="translate(300 1400) scale(0.1 -0.1)"><path d="M0.0 0.0V-300.0H30.0L29.0 -1.0ZM15.0 -113.0 16.0 -151.0 170.0 -152.0 168.0 -116.0Z"/></g>
<g fill="red" transform="translate(400 1400) scale(0.1 -0.1)"><path d="M0.0 0.0V-306.0H121.0V0.0ZM68.0 -74.0V-188.0H211.0V-74.0Z"/></g>
<g fill="black" opacity=".8" transform="translate(400 1400) scale(0.1 -0.1)"><path d="M0.0 0.0 -1.0 -306.0 119.0 -307.0V-0.0ZM70.0 -75.0V-186.0L211.0 -188.0L210.0 -75.0Z"/></g>
<g fill="red" transform="translate(500 1400) scale(0.1 -0.1)"><path d="M0.0 0.0V-494.0H30.0V0.0ZM10.0 -230.0V-259.0H313.0V-230.0Z"/></g>
<g fill="black" opacity=".8" transform="translate(500 1400) scale(0.1 -0.1)"><path d="M0.0 0.0V-492.0L28.0 -493.0L27.0 -0.0ZM14.0 -230.0 12.0 -260.0 312.0 -258.0 313.0 -230.0Z"/></g>
<g fill="red" transform="translate(600 1400) scale(0.1 -0.1)"><path d="M0.0 0.0V-527.0H139.0V0.0ZM64.0 -173.0V-313.0H383.0V-173.0Z"/></g>
<g fill="black" opacity=".8" transform="translate(600 1400) scale(0.1 -0.1)"><path d="M0.0 0.0 -1.0 -527.0 143.0 -529.0V0.0ZM63.0 -175.0 61.0 -312.0H382.0L383.0 -174.0Z"/></g>
<g fill="red" transform="translate(700 1400) scale(0.1 -0.1)"><path d="M0.0 0.0V-269.0H29.0V0.0ZM336.0 0.0V-269.0H365.0V0.0Z"/></g>
<g fill="black" opacity=".8" transform="translate(700 1400) scale(0.1 -0.1)"><path d="M0.0 0.0 -2.0 -267.0H26.0L27.0 1.0ZM354.0 -13.0 346.0 -261.0 359.0 -252.0 367.0 -5.0Z"/></g>
<g fill="red" transform="translate(800 1400) scale(0.1 -0.1)"><path d="M0.0 0.0V-284.0H144.0V0.0ZM333.0 0.0V-284.0H478.0V0.0Z"/></g>
<g fill="black" opacity=".8" transform="translate(800 1400) scale(0.1 -0.1)"><path d="M0.0 0.0 -2.0 -286.0H156.0L157.0 1.0ZM325.0 -2.0 319.0 -291.0 474.0 -285.0 480.0 5.0Z"/></g>
<g fill="red" transform="translate(900 1400) scale(0.1 -0.1)"><path d="M0.0 0.0V-273.0H28.0V0.0ZM12.0 -105.0V-135.0H142.0V-105.0Z"/></g>
<g fill="black" opacity=".8" transform="translate(900 1400) scale(0.1 -0.1)"><path d="M0.0 0.0 1.0 -272.0 25.0 -273.0 24.0 -1.0ZM11.0 -102.0 13.0 -137.0 143.0 -138.0 141.0 -104.0Z"/></g>
<g fill="red" transform="translate(1000 1400) scale(0.1 -0.1)"><path d="M0.0 0.0V-248.0H91.0V0.0ZM37.0 -60.0V-155.0H148.0V-60.0Z"/></g>
<g fill="black" opacity=".8" transform="translate(1000 1400) scale(0.1 -0.1)"><path d="M0.0 0.0V-248.0L93.0 -250.0L92.0 -1.0ZM38.0 -62.0 37.0 -152.0 148.0 -154.0 147.0 -62.0Z"/></g>
<g fill="red" transform="translate(1100 1400) scale(0.1 -0.1)"><path d="M0.0 0.0V-361.0H30.0V0.0ZM16.0 -140.0V-169.0H259.0V-140.0Z"/></g>
<g fill="black" opacity=".8" transform="translate(1100 1400) scale(0.1 -0.1)"><path d="M0.0 0.0V-361.0L32.0 -360.0L31.0 -0.0ZM15.0 -137.0V-172.0H259.0L258.0 -138.0Z"/></g>
<g fill="red" transform="translate(1200 1400) scale(0.1 -0.1)"><path d="M0.0 0.0V-338.0H141.0V0.0ZM69.0 -75.0V-202.0H317.0V-75.0Z"/></g>
<g fill="black" opacity=".8" transform="translate(1200 1400) scale(0.1 -0.1)"><path d="M0.0 0.0 -1.0 -338.0 140.0 -339.0V0.0ZM71.0 -76.0 69.0 -201.0 317.0 -202.0V-76.0Z"/></g>
<g fill="red" transform="translate(1300 1400) scale(0.1 -0.1)"><path d="M0.0 0.0V-190.0H29.0V0.0ZM9.0 -75.0V-105.0H248.0V-75.0Z"/></g>
<g fill="black" opacity=".8" transform="translate(1300 1400) scale(0.1 -0.1)"><path d="M0.0 0.0V-191.0L30.0 -190.0L29.0 -0.0ZM6.0 -73.0 10.0 -101.0 251.0 -105.0 245.0 -79.0Z"/></g>
<g fill="red" transform="translate(1400 1400) scale(0.1 -0.1)"><path d="M0.0 0.0V-203.0H125.0V0.0ZM59.0 -54.0V-141.0H312.0V-54.0Z"/></g>
<g fill="black" opacity=".8" transform="translate(1400 1400) scale(0.1 -0.1)"><path d="M0.0 0.0 -1.0 -202.0 120.0 -203.0V-0.0ZM59.0 -48.0 61.0 -145.0 313.0 -149.0 311.0 -51.0Z"/></g>
<g fill="red" transform="translate(1500 1400) scale(0.1 -0.1)"><path d="M0.0 0.0V-499.0H30.0V0.0ZM17.0 -229.0V-258.0H265.0V-229.0Z"/></g>
<g fill="black" opacity=".8" transform="translate(1500 1400) scale(0.1 -0.1)"><path d="M0.0 0.0V-498.0L30.0 -499.0L29.0 -0.0ZM16.0 -227.0 17.0 -259.0 266.0 -260.0 264.0 -229.0Z"/></g>
<g fill="red" transform="translate(1600 1400) scale(0.1 -0.1)"><path d="M0.0 0.0V-545.0H139.0V0.0ZM70.0 -205.0V-334.0H318.0V-205.0Z"/></g>
<g fill="black" opacity=".8" transform="translate(1600 1400) scale(0.1 -0.1)"><path d="M0.0 0.0 -1.0 -544.0 139.0 -546.0 138.0 -0.0ZM71.0 -205.0V-333.0L318.0 -335.0L317.0 -205.0Z"/></g>
<g fill="red" transform="translate(100 1500) scale(0.1 -0.1)"><path d="M0.0 0.0V-460.0H29.0V0.0ZM438.0 -43.0V-72.0H679.0V-43.0Z"/></g>
<g fill="black" opacity=".8" transform="translate(100 1500) scale(0.1 -0.1)"><path d="M0.0 0.0 1.0 -459.0H29.0L27.0 -2.0ZM434.0 -36.0 435.0 -80.0 680.0 -81.0 679.0 -38.0Z"/></g>
<g fill="red" transform="translate(200 1500) scale(0.1 -0.1)"><path d="M0.0 0.0V-450.0H108.0V0.0ZM464.0 67.0V-59.0H723.0V67.0Z"/></g>
<g fill="black" opacity=".8" transform="translate(200 1500) scale(0.1 -0.1)"><path d="M0.0 0.0V-452.0L108.0 -449.0L107.0 0.0ZM467.0 63.0V-53.0L723.0 -55.0V63.0Z"/></g>
<g fill="red" transform="translate(300 1500) scale(0.1 -0.1)"><path d="M0.0 0.0V-291.0H30.0V0.0ZM23.0 -109.0V-138.0H284.0V-109.0Z"/></g>
<g fill="black" opacity=".8" transform="translate(300 1500) scale(0.1 -0.1)"><path d="M0.0 0.0 1.0 -291.0 32.0 -292.0 30.0 -1.0ZM13.0 -99.0 19.0 -143.0 288.0 -149.0 281.0 -106.0Z"/></g>
<g fill="red" transform="translate(400 1500) scale(0.1 -0.1)"><path d="M0.0 0.0V-320.0H144.0V0.0ZM52.0 -62.0V-187.0H399.0V-62.0Z"/></g>
<g fill="black" opacity=".8" transform="translate(400 1500) scale(0.1 -0.1)"><path d="M0.0 0.0V-318.0L137.0 -320.0L136.0 -0.0ZM57.0 -60.0 60.0 -183.0 401.0 -189.0 397.0 -65.0Z"/></g>
<g fill="red" transform="translate(500 1500) scale(0.1 -0.1)"><path d="M0.0 0.0V-202.0H30.0V0.0ZM8.0 -69.0V-99.0H154.0V-69.0Z"/></g>
<g fill="black" opacity=".8" transform="translate(500 1500) scale(0.1 -0.1)"><path d="M0.0 0.0 1.0 -202.0H30.0L28.0 -1.0ZM2.0 -62.0 6.0 -104.0 157.0 -107.0 152.0 -67.0Z"/></g>
<g fill="red" transform="translate(600 1500) scale(0.1 -0.1)"><path d="M0.0 0.0V-194.0H110.0V0.0ZM41.0 -45.0V-145.0H186.0V-45.0Z"/></g>
<g fill="black" opacity=".8" transform="translate(600 1500) scale(0.1 -0.1)"><path d="M0.0 0.0V-194.0L108.0 -195.0L107.0 -1.0ZM44.0 -46.0 45.0 -141.0 187.0 -145.0 185.0 -48.0Z"/></g>
<g fill="red" transform="translate(700 1500) scale(0.1 -0.1)"><path d="M0.0 0.0V-490.0H29.0V0.0ZM16.0 -215.0V-245.0H291.0V-215.0Z"/></g>
<g fill="black" opacity=".8" transform="translate(700 1500) scale(0.1 -0.1)"><path d="M0.0 0.0 -1.0 -489.0 31.0 -490.0V0.0ZM18.0 -215.0 16.0 -246.0 290.0 -244.0 291.0 -214.0Z"/></g>
<g fill="red" transform="translate(800 1500) scale(0.1 -0.1)"><path d="M0.0 0.0V-527.0H150.0V0.0ZM85.0 -179.0V-317.0H338.0V-179.0Z"/></g>
<g fill="black" opacity=".8" transform="translate(800 1500) scale(0.1 -0.1)"><path d="M0.0 0.0 -1.0 -527.0 150.0 -528.0V0.0ZM86.0 -180.0 84.0 -317.0H337.0L338.0 -179.0Z"/></g>
</svg>
