<?xml version="1.0" encoding="UTF-8"?>
<svg width="1700" height="400" xmlns="http://www.w3.org/2000/svg">
<rect width="100%" height="100%" fill="white"/>
<g fill="green" transform="translate(100 100) scale(0.1 -0.1)"><path d="M-0.0 0.0V-41.0H679.0V-0.0ZM781.0 203.0C791.0 -344.0 803.0 -665.0 981.0 -661.0C1046.0 -660.0 1060.0 -608.0 1067.0 -425.0C1057.0 -422.0 1038.0 -415.0 1030.0 -407.0C1027.0 -534.0 1018.0 -624.0 983.0 -624.0C842.0 -625.0 827.0 -258.0 821.0 203.0Z"/></g>
<g fill="green" transform="translate(200 100) scale(0.1 -0.1)"><path d="M0.0 0.0V-176.0H657.0V0.0ZM725.0 223.0C724.0 -331.0 731.0 -750.0 981.0 -745.0C1092.0 -743.0 1130.0 -666.0 1145.0 -491.0C1106.0 -460.0 1057.0 -404.0 1021.0 -354.0C1019.0 -471.0 1013.0 -537.0 995.0 -538.0C929.0 -540.0 926.0 -215.0 933.0 223.0Z"/></g>
<g fill="green" transform="translate(300 100) scale(0.1 -0.1)"><path d="M0.0 0.0V-30.0H466.0V0.0ZM578.0 203.0C586.0 -171.0 597.0 -371.0 730.0 -362.0C779.0 -359.0 788.0 -322.0 793.0 -194.0C786.0 -192.0 772.0 -187.0 766.0 -181.0C765.0 -272.0 759.0 -336.0 730.0 -337.0C624.0 -341.0 611.0 -98.0 606.0 203.0Z"/></g>
<g fill="green" transform="translate(400 100) scale(0.1 -0.1)"><path d="M0.0 0.0V-125.0H446.0V0.0ZM545.0 224.0C543.0 -181.0 551.0 -438.0 744.0 -423.0C826.0 -415.0 846.0 -357.0 856.0 -240.0C826.0 -217.0 790.0 -180.0 763.0 -145.0C762.0 -231.0 758.0 -273.0 743.0 -274.0C694.0 -279.0 693.0 -100.0 697.0 224.0Z"/></g>
<g fill="green" transform="translate(500 100) scale(0.1 -0.1)"><path d="M-0.0 0.0V-47.0H409.0V0.0ZM523.0 174.0C525.0 -567.0 513.0 -1039.0 654.0 -1067.0C707.0 -1081.0 730.0 -1035.0 740.0 -819.0C729.0 -815.0 709.0 -808.0 698.0 -799.0C694.0 -922.0 682.0 -1023.0 665.0 -1020.0C563.0 -999.0 572.0 -562.0 571.0 174.0Z"/></g>
<g fill="green" transform="translate(600 100) scale(0.1 -0.1)"><path d="M0.0 0.0V-213.0H349.0V0.0ZM425.0 197.0C424.0 -454.0 407.0 -1102.0 573.0 -1169.0C677.0 -1212.0 766.0 -1170.0 794.0 -957.0C763.0 -919.0 711.0 -827.0 683.0 -767.0C678.0 -854.0 673.0 -945.0 663.0 -944.0C630.0 -929.0 632.0 -295.0 649.0 197.0Z"/></g>
<g fill="green" transform="translate(700 100) scale(0.1 -0.1)"><path d="M0.0 0.0V-36.0H936.0V0.0ZM768.0 -177.0C771.0 -474.0 781.0 -599.0 965.0 -613.0C1021.0 -618.0 1034.0 -576.0 1040.0 -425.0C1031.0 -423.0 1016.0 -417.0 1007.0 -410.0C1004.0 -516.0 995.0 -580.0 967.0 -579.0C815.0 -570.0 807.0 -479.0 803.0 -177.0Z"/></g>
<g fill="green" transform="translate(800 100) scale(0.1 -0.1)"><path d="M0.0 0.0V-151.0H962.0V0.0ZM691.0 -202.0C695.0 -557.0 709.0 -668.0 949.0 -684.0C1052.0 -694.0 1092.0 -638.0 1106.0 -524.0C1074.0 -503.0 1030.0 -456.0 1001.0 -422.0C997.0 -476.0 990.0 -531.0 970.0 -531.0C872.0 -526.0 865.0 -451.0 868.0 -202.0Z"/></g>
<g fill="green" transform="translate(900 100) scale(0.1 -0.1)"><path d="M-0.0 0.0V-34.0H710.0V0.0ZM784.0 207.0C796.0 -318.0 810.0 -676.0 968.0 -670.0C1024.0 -666.0 1034.0 -613.0 1040.0 -444.0C1031.0 -442.0 1017.0 -437.0 1011.0 -430.0C1007.0 -553.0 998.0 -638.0 968.0 -638.0C844.0 -641.0 823.0 -206.0 817.0 207.0Z"/></g>
<g fill="green" transform="translate(1000 100) scale(0.1 -0.1)"><path d="M0.0 0.0V-142.0H733.0V0.0ZM766.0 221.0C764.0 -216.0 772.0 -748.0 989.0 -740.0C1081.0 -735.0 1115.0 -652.0 1124.0 -465.0C1091.0 -441.0 1052.0 -400.0 1018.0 -354.0C1017.0 -495.0 1011.0 -552.0 998.0 -553.0C940.0 -555.0 931.0 -133.0 936.0 221.0Z"/></g>
<g fill="green" transform="translate(1100 100) scale(0.1 -0.1)"><path d="M0.0 0.0V-36.0H674.0V-0.0ZM789.0 186.0C804.0 -335.0 827.0 -695.0 995.0 -674.0C1059.0 -666.0 1069.0 -614.0 1074.0 -452.0C1065.0 -450.0 1048.0 -442.0 1042.0 -435.0C1039.0 -557.0 1034.0 -642.0 995.0 -643.0C861.0 -655.0 832.0 -191.0 823.0 186.0Z"/></g>
<g fill="green" transform="translate(1200 100) scale(0.1 -0.1)"><path d="M0.0 0.0V-158.0H631.0V0.0ZM731.0 209.0C730.0 -366.0 741.0 -777.0 999.0 -736.0C1105.0 -712.0 1115.0 -617.0 1120.0 -445.0C1082.0 -418.0 1036.0 -376.0 998.0 -329.0C998.0 -467.0 992.0 -535.0 976.0 -537.0C919.0 -547.0 914.0 -264.0 919.0 209.0Z"/></g>
<g fill="red" transform="translate(100 200) scale(0.1 -0.1)"><path d="M0.0 0.0V-29.0H684.0V0.0ZM667.0 0.0C676.0 -492.0 685.0 -844.0 816.0 -844.0C863.0 -843.0 872.0 -797.0 878.0 -648.0C870.0 -646.0 858.0 -640.0 851.0 -635.0C848.0 -740.0 841.0 -815.0 819.0 -815.0C716.0 -815.0 700.0 -400.0 696.0 0.0Z"/></g>
<g fill="black" opacity=".8" transform="translate(100 200) scale(0.1 -0.1)"><path d="M0.0 0.0V-31.0H694.0V0.0ZM663.0 5.0C672.0 -477.0 682.0 -845.0 819.0 -848.0C865.0 -848.0 876.0 -803.0 881.0 -649.0C873.0 -648.0 861.0 -643.0 855.0 -636.0C851.0 -744.0 844.0 -818.0 822.0 -817.0C715.0 -814.0 698.0 -398.0 693.0 5.0Z"/></g>
<g fill="red" transform="translate(200 200) scale(0.1 -0.1)"><path d="M0.0 0.0V-135.0H694.0V0.0ZM623.0 0.0C622.0 -413.0 623.0 -904.0 800.0 -904.0C878.0 -904.0 910.0 -832.0 919.0 -666.0C892.0 -644.0 858.0 -604.0 829.0 -563.0C829.0 -679.0 822.0 -739.0 815.0 -739.0C771.0 -739.0 764.0 -331.0 771.0 0.0Z"/></g>
<g fill="black" opacity=".8" transform="translate(200 200) scale(0.1 -0.1)"><path d="M0.0 0.0V-135.0H700.0V0.0ZM611.0 2.0C611.0 -415.0 614.0 -897.0 796.0 -903.0C878.0 -907.0 914.0 -835.0 921.0 -662.0C896.0 -642.0 859.0 -599.0 830.0 -558.0C829.0 -671.0 823.0 -737.0 814.0 -738.0C763.0 -735.0 754.0 -326.0 760.0 2.0Z"/></g>
<g fill="red" transform="translate(300 200) scale(0.1 -0.1)"><path d="M0.0 0.0V-29.0H684.0V0.0ZM667.0 0.0C676.0 -492.0 685.0 -844.0 816.0 -844.0C863.0 -843.0 872.0 -797.0 878.0 -648.0C870.0 -646.0 858.0 -640.0 851.0 -635.0C848.0 -740.0 841.0 -815.0 819.0 -815.0C716.0 -815.0 700.0 -400.0 696.0 0.0Z"/></g>
<g fill="black" opacity=".8" transform="translate(300 200) scale(0.1 -0.1)"><path d="M0.0 0.0V-31.0H694.0V0.0ZM664.0 5.0C673.0 -477.0 683.0 -844.0 820.0 -847.0C867.0 -848.0 878.0 -802.0 883.0 -648.0C875.0 -647.0 863.0 -641.0 857.0 -635.0C853.0 -743.0 845.0 -818.0 823.0 -817.0C716.0 -813.0 699.0 -400.0 694.0 5.0Z"/></g>
<g fill="red" transform="translate(400 200) scale(0.1 -0.1)"><path d="M0.0 0.0V-135.0H694.0V0.0ZM618.0 0.0C617.0 -414.0 623.0 -904.0 805.0 -904.0C884.0 -904.0 918.0 -833.0 927.0 -665.0C899.0 -643.0 864.0 -603.0 835.0 -562.0C835.0 -678.0 828.0 -738.0 819.0 -738.0C771.0 -739.0 760.0 -333.0 767.0 0.0Z"/></g>
<g fill="black" opacity=".8" transform="translate(400 200) scale(0.1 -0.1)"><path d="M0.0 0.0V-137.0H700.0V0.0ZM611.0 3.0C611.0 -417.0 614.0 -897.0 797.0 -903.0C880.0 -907.0 917.0 -836.0 924.0 -663.0C898.0 -643.0 861.0 -599.0 832.0 -558.0C831.0 -671.0 825.0 -737.0 816.0 -737.0C765.0 -735.0 755.0 -327.0 762.0 3.0Z"/></g>
<g fill="red" transform="translate(500 200) scale(0.1 -0.1)"><path d="M0.0 0.0V-30.0H556.0V0.0ZM622.0 210.0C631.0 -280.0 640.0 -630.0 769.0 -630.0C816.0 -629.0 825.0 -584.0 830.0 -434.0C823.0 -432.0 810.0 -428.0 804.0 -422.0C801.0 -527.0 793.0 -601.0 772.0 -601.0C671.0 -601.0 655.0 -188.0 651.0 210.0Z"/></g>
<g fill="black" opacity=".8" transform="translate(500 200) scale(0.1 -0.1)"><path d="M0.0 0.0V-29.0H539.0V0.0ZM624.0 196.0C634.0 -286.0 644.0 -629.0 770.0 -624.0C815.0 -622.0 824.0 -578.0 829.0 -431.0C822.0 -430.0 810.0 -425.0 805.0 -419.0C802.0 -523.0 794.0 -597.0 771.0 -597.0C674.0 -598.0 657.0 -189.0 652.0 196.0Z"/></g>
<g fill="red" transform="translate(600 200) scale(0.1 -0.1)"><path d="M0.0 0.0V-125.0H559.0V0.0ZM594.0 221.0C593.0 -192.0 596.0 -683.0 776.0 -683.0C855.0 -683.0 888.0 -612.0 897.0 -445.0C869.0 -423.0 834.0 -382.0 806.0 -341.0C805.0 -457.0 799.0 -517.0 790.0 -517.0C745.0 -517.0 736.0 -111.0 743.0 221.0Z"/></g>
<g fill="black" opacity=".8" transform="translate(600 200) scale(0.1 -0.1)"><path d="M0.0 0.0V-123.0H548.0V0.0ZM606.0 212.0C603.0 -183.0 607.0 -686.0 778.0 -684.0C854.0 -682.0 886.0 -613.0 894.0 -446.0C867.0 -425.0 834.0 -387.0 806.0 -347.0C805.0 -469.0 800.0 -521.0 791.0 -522.0C751.0 -523.0 744.0 -108.0 749.0 212.0Z"/></g>
<g fill="red" transform="translate(700 200) scale(0.1 -0.1)"><path d="M0.0 0.0V-30.0H442.0V0.0ZM432.0 0.0C437.0 -417.0 442.0 -800.0 538.0 -824.0C572.0 -833.0 588.0 -801.0 593.0 -672.0C586.0 -670.0 575.0 -665.0 568.0 -660.0C563.0 -739.0 557.0 -795.0 547.0 -793.0C475.0 -778.0 465.0 -426.0 462.0 0.0Z"/></g>
<g fill="black" opacity=".8" transform="translate(700 200) scale(0.1 -0.1)"><path d="M0.0 0.0V-29.0H438.0V0.0ZM435.0 5.0C440.0 -460.0 440.0 -810.0 539.0 -823.0C574.0 -828.0 586.0 -794.0 592.0 -657.0C585.0 -656.0 574.0 -651.0 568.0 -645.0C564.0 -731.0 558.0 -796.0 545.0 -794.0C472.0 -784.0 466.0 -425.0 463.0 5.0Z"/></g>
<g fill="red" transform="translate(800 200) scale(0.1 -0.1)"><path d="M0.0 0.0V-134.0H406.0V0.0ZM363.0 0.0C364.0 -399.0 357.0 -828.0 477.0 -872.0C553.0 -902.0 611.0 -861.0 622.0 -688.0C602.0 -670.0 566.0 -616.0 544.0 -581.0C542.0 -655.0 537.0 -736.0 532.0 -734.0C495.0 -723.0 490.0 -287.0 500.0 0.0Z"/></g>
<g fill="black" opacity=".8" transform="translate(800 200) scale(0.1 -0.1)"><path d="M0.0 0.0V-129.0H415.0V0.0ZM371.0 8.0C371.0 -396.0 365.0 -848.0 488.0 -875.0C555.0 -893.0 601.0 -848.0 611.0 -696.0C592.0 -676.0 560.0 -626.0 539.0 -589.0C536.0 -667.0 532.0 -731.0 527.0 -731.0C499.0 -724.0 494.0 -302.0 504.0 8.0Z"/></g>
<g fill="red" transform="translate(900 200) scale(0.1 -0.1)"><path d="M0.0 0.0V-29.0H451.0V0.0ZM438.0 0.0C438.0 -503.0 426.0 -812.0 538.0 -840.0C575.0 -852.0 589.0 -816.0 596.0 -642.0C589.0 -640.0 576.0 -637.0 568.0 -632.0C565.0 -730.0 556.0 -811.0 546.0 -808.0C459.0 -789.0 468.0 -515.0 468.0 0.0Z"/></g>
<g fill="black" opacity=".8" transform="translate(900 200) scale(0.1 -0.1)"><path d="M0.0 0.0V-33.0H455.0V0.0ZM435.0 -0.0C436.0 -485.0 429.0 -806.0 538.0 -831.0C574.0 -842.0 590.0 -808.0 597.0 -654.0C589.0 -652.0 577.0 -647.0 568.0 -641.0C565.0 -731.0 556.0 -800.0 545.0 -797.0C464.0 -779.0 469.0 -494.0 468.0 -0.0Z"/></g>
<g fill="red" transform="translate(1000 200) scale(0.1 -0.1)"><path d="M0.0 0.0V-136.0H442.0V0.0ZM368.0 0.0C369.0 -398.0 362.0 -845.0 483.0 -894.0C555.0 -925.0 618.0 -892.0 636.0 -742.0C616.0 -720.0 581.0 -661.0 561.0 -622.0C558.0 -683.0 552.0 -748.0 547.0 -747.0C510.0 -735.0 504.0 -290.0 515.0 0.0Z"/></g>
<g fill="black" opacity=".8" transform="translate(1000 200) scale(0.1 -0.1)"><path d="M0.0 0.0V-145.0H444.0V0.0ZM366.0 -1.0C366.0 -402.0 358.0 -846.0 480.0 -899.0C553.0 -933.0 619.0 -901.0 637.0 -748.0C616.0 -725.0 581.0 -663.0 561.0 -623.0C557.0 -684.0 552.0 -749.0 545.0 -748.0C509.0 -735.0 506.0 -293.0 517.0 -1.0Z"/></g>
<g fill="red" transform="translate(1100 200) scale(0.1 -0.1)"><path d="M0.0 0.0V-29.0H613.0V0.0ZM598.0 0.0C604.0 -243.0 620.0 -375.0 758.0 -375.0C805.0 -375.0 815.0 -342.0 820.0 -236.0C813.0 -234.0 800.0 -228.0 794.0 -223.0C792.0 -302.0 786.0 -350.0 759.0 -350.0C646.0 -350.0 631.0 -219.0 626.0 0.0Z"/></g>
<g fill="black" opacity=".8" transform="translate(1100 200) scale(0.1 -0.1)"><path d="M0.0 0.0V-29.0H624.0V0.0ZM601.0 11.0C606.0 -260.0 617.0 -382.0 759.0 -382.0C806.0 -381.0 814.0 -347.0 819.0 -229.0C812.0 -228.0 800.0 -223.0 793.0 -217.0C792.0 -302.0 786.0 -357.0 759.0 -357.0C643.0 -357.0 632.0 -225.0 628.0 11.0Z"/></g>
<g fill="red" transform="translate(1200 200) scale(0.1 -0.1)"><path d="M0.0 0.0V-121.0H617.0V0.0ZM559.0 0.0C559.0 -314.0 571.0 -441.0 762.0 -441.0C844.0 -441.0 869.0 -391.0 879.0 -287.0C851.0 -269.0 816.0 -236.0 790.0 -207.0C789.0 -272.0 785.0 -314.0 768.0 -314.0C700.0 -315.0 698.0 -234.0 700.0 0.0Z"/></g>
<g fill="black" opacity=".8" transform="translate(1200 200) scale(0.1 -0.1)"><path d="M0.0 0.0V-118.0H626.0V0.0ZM554.0 10.0C555.0 -319.0 566.0 -444.0 763.0 -437.0C845.0 -434.0 866.0 -383.0 875.0 -288.0C848.0 -269.0 813.0 -235.0 788.0 -206.0C786.0 -267.0 781.0 -307.0 765.0 -308.0C698.0 -310.0 695.0 -239.0 697.0 10.0Z"/></g>
<g fill="red" transform="translate(1300 200) scale(0.1 -0.1)"><path d="M0.0 0.0V-29.0H406.0V0.0ZM393.0 0.0C393.0 -478.0 384.0 -790.0 486.0 -814.0C518.0 -824.0 533.0 -792.0 539.0 -656.0C533.0 -653.0 521.0 -649.0 513.0 -644.0C509.0 -724.0 500.0 -785.0 493.0 -784.0C416.0 -768.0 422.0 -483.0 423.0 0.0Z"/></g>
<g fill="black" opacity=".8" transform="translate(1300 200) scale(0.1 -0.1)"><path d="M0.0 0.0V-31.0H401.0V0.0ZM388.0 -3.0C389.0 -477.0 381.0 -798.0 481.0 -822.0C514.0 -833.0 529.0 -802.0 535.0 -656.0C528.0 -654.0 517.0 -649.0 508.0 -643.0C505.0 -727.0 497.0 -793.0 488.0 -791.0C415.0 -773.0 420.0 -485.0 419.0 -3.0Z"/></g>
<g fill="red" transform="translate(1400 200) scale(0.1 -0.1)"><path d="M0.0 0.0V-138.0H383.0V0.0ZM316.0 0.0C316.0 -397.0 305.0 -845.0 412.0 -894.0C482.0 -925.0 544.0 -894.0 562.0 -744.0C542.0 -721.0 508.0 -662.0 489.0 -623.0C486.0 -683.0 482.0 -750.0 477.0 -748.0C452.0 -737.0 449.0 -287.0 461.0 0.0Z"/></g>
<g fill="black" opacity=".8" transform="translate(1400 200) scale(0.1 -0.1)"><path d="M0.0 0.0V-140.0H383.0V0.0ZM318.0 -2.0C318.0 -398.0 308.0 -834.0 418.0 -886.0C486.0 -920.0 550.0 -890.0 566.0 -743.0C548.0 -720.0 514.0 -660.0 496.0 -622.0C492.0 -679.0 488.0 -743.0 482.0 -742.0C452.0 -729.0 450.0 -292.0 460.0 -2.0Z"/></g>
<g fill="red" transform="translate(1500 200) scale(0.1 -0.1)"><path d="M0.0 0.0V-29.0H451.0V0.0ZM438.0 0.0C438.0 -503.0 426.0 -812.0 538.0 -840.0C575.0 -852.0 589.0 -816.0 596.0 -642.0C589.0 -640.0 576.0 -637.0 568.0 -632.0C565.0 -730.0 556.0 -811.0 546.0 -808.0C459.0 -789.0 468.0 -515.0 468.0 0.0Z"/></g>
<g fill="black" opacity=".8" transform="translate(1500 200) scale(0.1 -0.1)"><path d="M0.0 0.0V-33.0H454.0V0.0ZM434.0 -1.0C435.0 -485.0 428.0 -806.0 537.0 -831.0C573.0 -842.0 588.0 -808.0 595.0 -654.0C587.0 -652.0 575.0 -648.0 567.0 -641.0C564.0 -731.0 555.0 -800.0 544.0 -797.0C463.0 -779.0 468.0 -494.0 467.0 -1.0Z"/></g>
<g fill="red" transform="translate(1600 200) scale(0.1 -0.1)"><path d="M0.0 0.0V-136.0H442.0V0.0ZM365.0 0.0C366.0 -398.0 359.0 -845.0 480.0 -894.0C552.0 -925.0 615.0 -892.0 633.0 -742.0C613.0 -720.0 578.0 -661.0 558.0 -622.0C555.0 -683.0 549.0 -748.0 544.0 -747.0C507.0 -735.0 501.0 -290.0 512.0 0.0Z"/></g>
<g fill="black" opacity=".8" transform="translate(1600 200) scale(0.1 -0.1)"><path d="M0.0 0.0V-145.0H443.0V0.0ZM365.0 -1.0C365.0 -403.0 356.0 -846.0 479.0 -899.0C552.0 -933.0 617.0 -900.0 635.0 -748.0C615.0 -725.0 579.0 -663.0 559.0 -623.0C555.0 -684.0 551.0 -749.0 544.0 -748.0C508.0 -735.0 505.0 -295.0 515.0 -1.0Z"/></g>
<g fill="red" transform="translate(100 300) scale(0.1 -0.1)"><path d="M0.0 0.0V-29.0H386.0V0.0ZM371.0 0.0C371.0 -477.0 363.0 -790.0 461.0 -814.0C493.0 -824.0 506.0 -792.0 513.0 -655.0C506.0 -653.0 495.0 -647.0 487.0 -641.0C484.0 -721.0 475.0 -783.0 468.0 -781.0C396.0 -765.0 402.0 -478.0 402.0 0.0Z"/></g>
<g fill="black" opacity=".8" transform="translate(100 300) scale(0.1 -0.1)"><path d="M0.0 0.0V-31.0H380.0V0.0ZM368.0 -4.0C369.0 -474.0 361.0 -796.0 456.0 -821.0C488.0 -831.0 503.0 -801.0 509.0 -658.0C502.0 -656.0 491.0 -651.0 483.0 -645.0C480.0 -727.0 472.0 -791.0 463.0 -789.0C394.0 -771.0 399.0 -484.0 399.0 -4.0Z"/></g>
<g fill="red" transform="translate(200 300) scale(0.1 -0.1)"><path d="M0.0 0.0V-138.0H361.0V0.0ZM298.0 0.0C298.0 -397.0 288.0 -845.0 389.0 -894.0C455.0 -925.0 513.0 -894.0 530.0 -744.0C511.0 -721.0 479.0 -662.0 461.0 -623.0C459.0 -683.0 455.0 -750.0 450.0 -748.0C426.0 -737.0 424.0 -287.0 435.0 0.0Z"/></g>
<g fill="black" opacity=".8" transform="translate(200 300) scale(0.1 -0.1)"><path d="M0.0 0.0V-137.0H359.0V0.0ZM298.0 -3.0C298.0 -395.0 287.0 -830.0 392.0 -883.0C458.0 -916.0 521.0 -888.0 537.0 -743.0C520.0 -721.0 486.0 -661.0 469.0 -623.0C465.0 -678.0 461.0 -742.0 455.0 -741.0C428.0 -728.0 426.0 -290.0 437.0 -3.0Z"/></g>
<g fill="red" transform="translate(300 300) scale(0.1 -0.1)"><path d="M0.0 0.0V-29.0H486.0V0.0ZM466.0 0.0C471.0 -441.0 472.0 -702.0 575.0 -702.0C618.0 -702.0 625.0 -667.0 630.0 -539.0C623.0 -536.0 610.0 -531.0 603.0 -525.0C602.0 -610.0 597.0 -674.0 579.0 -674.0C502.0 -674.0 496.0 -366.0 495.0 0.0Z"/></g>
<g fill="black" opacity=".8" transform="translate(300 300) scale(0.1 -0.1)"><path d="M0.0 0.0V-28.0H467.0V0.0ZM461.0 -20.0C466.0 -413.0 472.0 -689.0 583.0 -694.0C622.0 -697.0 633.0 -665.0 638.0 -539.0C631.0 -538.0 620.0 -532.0 613.0 -527.0C611.0 -608.0 606.0 -668.0 587.0 -667.0C501.0 -662.0 492.0 -374.0 488.0 -20.0Z"/></g>
<g fill="red" transform="translate(400 300) scale(0.1 -0.1)"><path d="M0.0 0.0V-130.0H442.0V0.0ZM383.0 0.0C383.0 -441.0 380.0 -734.0 546.0 -734.0C614.0 -734.0 639.0 -685.0 653.0 -592.0C627.0 -566.0 595.0 -518.0 574.0 -481.0C572.0 -535.0 565.0 -584.0 557.0 -584.0C522.0 -584.0 522.0 -366.0 529.0 0.0Z"/></g>
<g fill="black" opacity=".8" transform="translate(400 300) scale(0.1 -0.1)"><path d="M0.0 0.0V-128.0H429.0V0.0ZM387.0 -17.0C387.0 -433.0 387.0 -733.0 539.0 -742.0C612.0 -749.0 643.0 -701.0 651.0 -576.0C630.0 -556.0 595.0 -511.0 573.0 -477.0C570.0 -543.0 566.0 -604.0 557.0 -604.0C520.0 -601.0 517.0 -338.0 524.0 -17.0Z"/></g>
<g fill="red" transform="translate(500 300) scale(0.1 -0.1)"><path d="M0.0 0.0V-30.0H399.0V0.0ZM389.0 0.0C394.0 -408.0 403.0 -781.0 507.0 -804.0C543.0 -814.0 559.0 -782.0 565.0 -655.0C558.0 -652.0 546.0 -648.0 539.0 -642.0C534.0 -721.0 527.0 -776.0 517.0 -774.0C438.0 -758.0 425.0 -415.0 421.0 0.0Z"/></g>
<g fill="black" opacity=".8" transform="translate(500 300) scale(0.1 -0.1)"><path d="M0.0 0.0V-29.0H409.0V0.0ZM410.0 7.0C413.0 -452.0 412.0 -791.0 508.0 -805.0C542.0 -811.0 554.0 -779.0 560.0 -643.0C553.0 -642.0 543.0 -637.0 536.0 -631.0C533.0 -714.0 526.0 -778.0 514.0 -776.0C443.0 -765.0 440.0 -426.0 437.0 7.0Z"/></g>
<g fill="red" transform="translate(600 300) scale(0.1 -0.1)"><path d="M0.0 0.0V-134.0H387.0V0.0ZM335.0 0.0C337.0 -395.0 332.0 -818.0 454.0 -863.0C528.0 -892.0 582.0 -849.0 593.0 -678.0C574.0 -660.0 539.0 -608.0 518.0 -573.0C515.0 -647.0 511.0 -726.0 505.0 -725.0C464.0 -713.0 457.0 -286.0 466.0 0.0Z"/></g>
<g fill="black" opacity=".8" transform="translate(600 300) scale(0.1 -0.1)"><path d="M0.0 0.0V-129.0H384.0V0.0ZM344.0 10.0C344.0 -390.0 337.0 -827.0 455.0 -858.0C521.0 -878.0 568.0 -837.0 579.0 -690.0C561.0 -670.0 529.0 -619.0 509.0 -582.0C506.0 -654.0 502.0 -717.0 497.0 -716.0C470.0 -709.0 467.0 -295.0 476.0 10.0Z"/></g>
<g fill="red" transform="translate(700 300) scale(0.1 -0.1)"><path d="M0.0 0.0V-30.0H336.0V0.0ZM317.0 0.0C317.0 -432.0 310.0 -729.0 373.0 -749.0C402.0 -758.0 415.0 -730.0 422.0 -616.0C415.0 -613.0 405.0 -609.0 397.0 -603.0C394.0 -669.0 386.0 -720.0 381.0 -719.0C343.0 -706.0 347.0 -432.0 348.0 0.0Z"/></g>
<g fill="black" opacity=".8" transform="translate(700 300) scale(0.1 -0.1)"><path d="M0.0 0.0V-27.0H342.0V0.0ZM317.0 3.0C315.0 -430.0 303.0 -725.0 384.0 -754.0C409.0 -766.0 423.0 -739.0 429.0 -605.0C423.0 -603.0 414.0 -601.0 406.0 -595.0C403.0 -669.0 394.0 -727.0 391.0 -725.0C334.0 -704.0 343.0 -457.0 344.0 3.0Z"/></g>
<g fill="red" transform="translate(800 300) scale(0.1 -0.1)"><path d="M0.0 0.0V-128.0H341.0V0.0ZM275.0 0.0C273.0 -299.0 257.0 -746.0 335.0 -810.0C382.0 -848.0 450.0 -834.0 474.0 -718.0C457.0 -693.0 433.0 -636.0 419.0 -600.0C416.0 -642.0 411.0 -681.0 407.0 -679.0C387.0 -664.0 392.0 -240.0 401.0 0.0Z"/></g>
<g fill="black" opacity=".8" transform="translate(800 300) scale(0.1 -0.1)"><path d="M0.0 0.0V-120.0H346.0V0.0ZM266.0 1.0C266.0 -304.0 254.0 -751.0 329.0 -815.0C383.0 -854.0 451.0 -836.0 468.0 -698.0C455.0 -679.0 427.0 -623.0 413.0 -589.0C409.0 -638.0 406.0 -692.0 402.0 -690.0C379.0 -675.0 376.0 -214.0 386.0 1.0Z"/></g>
<g fill="red" transform="translate(900 300) scale(0.1 -0.1)"><path d="M0.0 0.0V-30.0H869.0V0.0ZM665.0 -179.0C667.0 -512.0 674.0 -751.0 823.0 -775.0C866.0 -783.0 877.0 -742.0 883.0 -599.0C875.0 -597.0 864.0 -593.0 856.0 -587.0C852.0 -686.0 843.0 -745.0 828.0 -743.0C706.0 -729.0 697.0 -517.0 695.0 -179.0Z"/></g>
<g fill="black" opacity=".8" transform="translate(900 300) scale(0.1 -0.1)"><path d="M0.0 0.0V-29.0H856.0V0.0ZM668.0 -189.0C672.0 -525.0 678.0 -752.0 823.0 -771.0C865.0 -777.0 876.0 -736.0 881.0 -595.0C873.0 -594.0 864.0 -589.0 856.0 -583.0C852.0 -681.0 843.0 -742.0 826.0 -740.0C709.0 -728.0 700.0 -518.0 697.0 -189.0Z"/></g>
<g fill="red" transform="translate(1000 300) scale(0.1 -0.1)"><path d="M0.0 0.0V-126.0H914.0V0.0ZM602.0 -212.0C606.0 -503.0 613.0 -794.0 796.0 -828.0C879.0 -848.0 928.0 -793.0 939.0 -651.0C915.0 -635.0 879.0 -592.0 854.0 -559.0C851.0 -626.0 843.0 -691.0 832.0 -690.0C752.0 -680.0 739.0 -410.0 744.0 -212.0Z"/></g>
<g fill="black" opacity=".8" transform="translate(1000 300) scale(0.1 -0.1)"><path d="M0.0 0.0V-124.0H906.0V0.0ZM613.0 -218.0C616.0 -494.0 623.0 -798.0 799.0 -828.0C878.0 -845.0 924.0 -792.0 934.0 -654.0C912.0 -639.0 878.0 -598.0 854.0 -565.0C850.0 -637.0 844.0 -692.0 833.0 -692.0C758.0 -683.0 747.0 -410.0 751.0 -218.0Z"/></g>
<g fill="red" transform="translate(1100 300) scale(0.1 -0.1)"><path d="M0.0 0.0V-29.0H684.0V0.0ZM669.0 0.0C679.0 -490.0 692.0 -844.0 831.0 -844.0C880.0 -843.0 889.0 -794.0 894.0 -634.0C888.0 -632.0 875.0 -626.0 868.0 -620.0C865.0 -735.0 857.0 -814.0 834.0 -814.0C723.0 -814.0 704.0 -404.0 699.0 0.0Z"/></g>
<g fill="black" opacity=".8" transform="translate(1100 300) scale(0.1 -0.1)"><path d="M0.0 0.0V-31.0H690.0V0.0ZM664.0 5.0C673.0 -478.0 685.0 -843.0 823.0 -845.0C871.0 -846.0 882.0 -800.0 887.0 -646.0C879.0 -645.0 867.0 -639.0 860.0 -633.0C856.0 -741.0 849.0 -815.0 826.0 -814.0C718.0 -812.0 700.0 -399.0 695.0 5.0Z"/></g>
<g fill="red" transform="translate(1200 300) scale(0.1 -0.1)"><path d="M0.0 0.0V-129.0H685.0V0.0ZM613.0 0.0C612.0 -413.0 614.0 -904.0 793.0 -904.0C872.0 -904.0 905.0 -833.0 914.0 -666.0C887.0 -644.0 852.0 -604.0 823.0 -562.0C822.0 -678.0 816.0 -738.0 808.0 -738.0C763.0 -738.0 755.0 -331.0 762.0 0.0Z"/></g>
<g fill="black" opacity=".8" transform="translate(1200 300) scale(0.1 -0.1)"><path d="M0.0 0.0V-139.0H690.0V0.0ZM608.0 4.0C608.0 -430.0 612.0 -897.0 799.0 -901.0C883.0 -904.0 918.0 -832.0 925.0 -660.0C898.0 -640.0 861.0 -595.0 832.0 -554.0C830.0 -666.0 824.0 -733.0 814.0 -734.0C764.0 -732.0 755.0 -337.0 761.0 4.0Z"/></g>
</svg>
