<?xml version="1.0" encoding="UTF-8"?>
<svg width="1700" height="1100" xmlns="http://www.w3.org/2000/svg">
<rect width="100%" height="100%" fill="white"/>
<g fill="green" transform="translate(100 100) scale(0.1 -0.1)"><path d="M-0.0 0.0V-334.0H59.0V0.0ZM117.0 786.0 364.0 236.0 767.0 156.0 520.0 706.0Z"/></g>
<g fill="green" transform="translate(200 100) scale(0.1 -0.1)"><path d="M0.0 0.0V-315.0H283.0V0.0ZM165.0 763.0 273.0 161.0 932.0 129.0 824.0 731.0Z"/></g>
<g fill="green" transform="translate(300 100) scale(0.1 -0.1)"><path d="M0.0 0.0V-1073.0H104.0V0.0ZM57.0 380.0 310.0 -279.0 1304.0 -360.0 1052.0 298.0Z"/></g>
<g fill="green" transform="translate(400 100) scale(0.1 -0.1)"><path d="M0.0 0.0V-1083.0H492.0V0.0ZM177.0 412.0 287.0 -435.0 1565.0 -468.0 1455.0 379.0Z"/></g>
<g fill="green" transform="translate(500 100) scale(0.1 -0.1)"><path d="M0.0 0.0V-48.0H54.0V0.0ZM-928.0 -8.0 -665.0 -181.0 310.0 -266.0 47.0 -93.0Z"/></g>
<g fill="green" transform="translate(600 100) scale(0.1 -0.1)"><path d="M0.0 0.0V48.0H272.0V0.0ZM-846.0 36.0 -731.0 -235.0 401.0 -269.0 286.0 2.0Z"/></g>
<g fill="green" transform="translate(700 100) scale(0.1 -0.1)"><path d="M0.0 0.0V-185.0H36.0V0.0ZM699.0 499.0 1008.0 -124.0 492.0 -224.0 184.0 400.0Z"/></g>
<g fill="green" transform="translate(800 100) scale(0.1 -0.1)"><path d="M0.0 0.0V-195.0H147.0V0.0ZM744.0 367.0 879.0 -162.0 589.0 -202.0 454.0 327.0Z"/></g>
<g fill="green" transform="translate(900 100) scale(0.1 -0.1)"><path d="M0.0 0.0V-698.0H60.0V0.0ZM80.0 852.0 334.0 314.0 394.0 232.0 139.0 769.0Z"/></g>
<g fill="green" transform="translate(1000 100) scale(0.1 -0.1)"><path d="M0.0 0.0V-713.0H288.0V0.0ZM141.0 848.0 252.0 244.0 569.0 211.0 458.0 816.0Z"/></g>
<g fill="green" transform="translate(1100 100) scale(0.1 -0.1)"><path d="M0.0 0.0V-394.0H40.0V0.0ZM119.0 470.0 370.0 511.0 853.0 430.0 602.0 389.0Z"/></g>
<g fill="green" transform="translate(1200 100) scale(0.1 -0.1)"><path d="M0.0 0.0V-352.0H218.0V0.0ZM257.0 526.0 367.0 483.0 960.0 451.0 850.0 494.0Z"/></g>
<g fill="green" transform="translate(1300 100) scale(0.1 -0.1)"><path d="M0.0 0.0V-363.0H8.0V0.0ZM251.0 803.0 332.0 165.0 727.0 139.0 646.0 777.0Z"/></g>
<g fill="green" transform="translate(1400 100) scale(0.1 -0.1)"><path d="M0.0 0.0V-331.0H51.0V0.0ZM117.0 724.0 153.0 168.0 888.0 157.0 852.0 713.0Z"/></g>
<g fill="green" transform="translate(1500 100) scale(0.1 -0.1)"><path d="M-0.0 0.0V-335.0H77.0V0.0ZM200.0 702.0 222.0 214.0 665.0 207.0 642.0 695.0Z"/></g>
<g fill="green" transform="translate(1600 100) scale(0.1 -0.1)"><path d="M0.0 0.0V-300.0H342.0V0.0ZM264.0 795.0 274.0 124.0 855.0 121.0 845.0 792.0Z"/></g>
<g fill="green" transform="translate(100 200) scale(0.1 -0.1)"><path d="M-0.0 0.0V-277.0H55.0V0.0ZM140.0 815.0 361.0 287.0 739.0 215.0 519.0 743.0Z"/></g>
<g fill="green" transform="translate(200 200) scale(0.1 -0.1)"><path d="M0.0 0.0V-369.0H296.0V0.0ZM158.0 711.0 255.0 121.0 940.0 93.0 844.0 683.0Z"/></g>
<g fill="green" transform="translate(300 200) scale(0.1 -0.1)"><path d="M-0.0 0.0V-317.0H66.0V0.0ZM133.0 780.0 400.0 246.0 857.0 160.0 590.0 693.0Z"/></g>
<g fill="green" transform="translate(400 200) scale(0.1 -0.1)"><path d="M0.0 0.0V-335.0H299.0V0.0ZM134.0 777.0 251.0 153.0 859.0 119.0 742.0 742.0Z"/></g>
<g fill="green" transform="translate(500 200) scale(0.1 -0.1)"><path d="M-0.0 0.0V-323.0H60.0V0.0ZM77.0 799.0 331.0 230.0 783.0 148.0 529.0 716.0Z"/></g>
<g fill="green" transform="translate(600 200) scale(0.1 -0.1)"><path d="M0.0 0.0V-327.0H266.0V0.0ZM196.0 760.0 307.0 162.0 924.0 129.0 813.0 727.0Z"/></g>
<g fill="red" transform="translate(100 300) scale(0.1 -0.1)"><path d="M0.0 0.0V-821.0H29.0V0.0ZM-392.0 -808.0V-837.0H491.0V-808.0Z"/></g>
<g fill="black" opacity=".8" transform="translate(100 300) scale(0.1 -0.1)"><path d="M0.0 0.0V-826.0H34.0V0.0ZM-392.0 -805.0 -393.0 -837.0 492.0 -834.0 494.0 -804.0Z"/></g>
<g fill="red" transform="translate(200 300) scale(0.1 -0.1)"><path d="M0.0 0.0V-824.0H157.0V0.0ZM-351.0 -742.0V-889.0H572.0V-742.0Z"/></g>
<g fill="black" opacity=".8" transform="translate(200 300) scale(0.1 -0.1)"><path d="M0.0 0.0V-821.0H157.0V0.0ZM-351.0 -747.0V-889.0H570.0L571.0 -747.0Z"/></g>
<g fill="red" transform="translate(300 300) scale(0.1 -0.1)"><path d="M0.0 0.0V-476.0H29.0V0.0ZM11.0 -214.0V-244.0H285.0V-214.0Z"/></g>
<g fill="black" opacity=".8" transform="translate(300 300) scale(0.1 -0.1)"><path d="M0.0 0.0V-493.0H31.0V0.0ZM7.0 -205.0 8.0 -231.0 290.0 -230.0V-205.0Z"/></g>
<g fill="red" transform="translate(400 300) scale(0.1 -0.1)"><path d="M0.0 0.0V-540.0H139.0V0.0ZM55.0 -147.0V-274.0H330.0V-147.0Z"/></g>
<g fill="black" opacity=".8" transform="translate(400 300) scale(0.1 -0.1)"><path d="M0.0 0.0V-526.0H138.0V0.0ZM57.0 -157.0 59.0 -286.0H325.0V-157.0Z"/></g>
<g fill="red" transform="translate(500 300) scale(0.1 -0.1)"><path d="M0.0 0.0V-384.0H29.0V0.0ZM-377.0 -361.0V-391.0H465.0V-361.0Z"/></g>
<g fill="black" opacity=".8" transform="translate(500 300) scale(0.1 -0.1)"><path d="M0.0 0.0V-388.0H29.0V0.0ZM-378.0 -359.0V-389.0L467.0 -388.0L468.0 -358.0Z"/></g>
<g fill="red" transform="translate(600 300) scale(0.1 -0.1)"><path d="M0.0 0.0V-392.0H150.0V0.0ZM-357.0 -324.0V-458.0H562.0V-324.0Z"/></g>
<g fill="black" opacity=".8" transform="translate(600 300) scale(0.1 -0.1)"><path d="M0.0 0.0V-389.0H150.0V0.0ZM-356.0 -327.0V-459.0H561.0V-327.0Z"/></g>
<g fill="red" transform="translate(700 300) scale(0.1 -0.1)"><path d="M0.0 0.0V-851.0H29.0V0.0ZM-267.0 -834.0V-863.0H329.0V-834.0Z"/></g>
<g fill="black" opacity=".8" transform="translate(700 300) scale(0.1 -0.1)"><path d="M0.0 0.0V-852.0H33.0V0.0ZM-267.0 -834.0 -268.0 -866.0 329.0 -863.0 331.0 -833.0Z"/></g>
<g fill="red" transform="translate(800 300) scale(0.1 -0.1)"><path d="M0.0 0.0V-837.0H150.0V0.0ZM-228.0 -766.0V-909.0H412.0V-766.0Z"/></g>
<g fill="black" opacity=".8" transform="translate(800 300) scale(0.1 -0.1)"><path d="M0.0 0.0V-838.0H150.0V0.0ZM-228.0 -768.0V-906.0H411.0L412.0 -768.0Z"/></g>
<g fill="red" transform="translate(900 300) scale(0.1 -0.1)"><path d="M0.0 0.0V-494.0H29.0V0.0ZM16.0 -221.0V-251.0H352.0V-221.0Z"/></g>
<g fill="black" opacity=".8" transform="translate(900 300) scale(0.1 -0.1)"><path d="M0.0 0.0V-499.0H32.0V0.0ZM15.0 -218.0V-249.0L353.0 -248.0L355.0 -218.0Z"/></g>
<g fill="red" transform="translate(1000 300) scale(0.1 -0.1)"><path d="M0.0 0.0V-554.0H147.0V0.0ZM73.0 -181.0V-320.0H398.0V-181.0Z"/></g>
<g fill="black" opacity=".8" transform="translate(1000 300) scale(0.1 -0.1)"><path d="M0.0 0.0V-551.0H147.0V0.0ZM73.0 -185.0 74.0 -322.0 397.0 -321.0V-185.0Z"/></g>
<g fill="red" transform="translate(1100 300) scale(0.1 -0.1)"><path d="M0.0 0.0V-300.0H30.0V0.0ZM9.0 -96.0V-125.0H323.0V-96.0Z"/></g>
<g fill="black" opacity=".8" transform="translate(1100 300) scale(0.1 -0.1)"><path d="M0.0 0.0V-292.0H30.0V0.0ZM11.0 -101.0 9.0 -134.0 321.0 -133.0 323.0 -100.0Z"/></g>
<g fill="red" transform="translate(1200 300) scale(0.1 -0.1)"><path d="M0.0 0.0V-293.0H141.0V0.0ZM87.0 -69.0V-199.0H416.0V-69.0Z"/></g>
<g fill="black" opacity=".8" transform="translate(1200 300) scale(0.1 -0.1)"><path d="M0.0 0.0V-302.0H142.0V0.0ZM86.0 -66.0V-191.0L418.0 -190.0L419.0 -65.0Z"/></g>
<g fill="red" transform="translate(1300 300) scale(0.1 -0.1)"><path d="M0.0 0.0V-370.0H30.0V0.0ZM-184.0 -352.0V-382.0H205.0V-352.0Z"/></g>
<g fill="black" opacity=".8" transform="translate(1300 300) scale(0.1 -0.1)"><path d="M0.0 0.0V-371.0H31.0V0.0ZM-184.0 -352.0 -185.0 -383.0 205.0 -382.0 207.0 -351.0Z"/></g>
<g fill="red" transform="translate(1400 300) scale(0.1 -0.1)"><path d="M0.0 0.0V-383.0H138.0V0.0ZM-119.0 -309.0V-439.0H260.0V-309.0Z"/></g>
<g fill="black" opacity=".8" transform="translate(1400 300) scale(0.1 -0.1)"><path d="M0.0 0.0V-383.0H138.0V0.0ZM-119.0 -311.0V-438.0L260.0 -437.0V-310.0Z"/></g>
<g fill="red" transform="translate(1500 300) scale(0.1 -0.1)"><path d="M0.0 0.0V-273.0H29.0V0.0ZM-133.0 -259.0V-289.0H181.0V-259.0Z"/></g>
<g fill="black" opacity=".8" transform="translate(1500 300) scale(0.1 -0.1)"><path d="M0.0 0.0V-274.0H27.0V0.0ZM-133.0 -260.0 -134.0 -289.0 181.0 -288.0 182.0 -260.0Z"/></g>
<g fill="red" transform="translate(1600 300) scale(0.1 -0.1)"><path d="M0.0 0.0V-248.0H97.0V0.0ZM-69.0 -193.0V-296.0H175.0V-193.0Z"/></g>
<g fill="black" opacity=".8" transform="translate(1600 300) scale(0.1 -0.1)"><path d="M0.0 0.0V-249.0H97.0V0.0ZM-69.0 -193.0 -68.0 -296.0H175.0V-193.0Z"/></g>
<g fill="red" transform="translate(100 400) scale(0.1 -0.1)"><path d="M0.0 0.0V-481.0H29.0V0.0ZM12.0 -208.0V-237.0H450.0V-208.0Z"/></g>
<g fill="black" opacity=".8" transform="translate(100 400) scale(0.1 -0.1)"><path d="M0.0 0.0V-487.0H32.0V0.0ZM11.0 -205.0V-234.0L452.0 -232.0L453.0 -204.0Z"/></g>
<g fill="red" transform="translate(200 400) scale(0.1 -0.1)"><path d="M0.0 0.0V-513.0H151.0V0.0ZM63.0 -156.0V-292.0H527.0V-156.0Z"/></g>
<g fill="black" opacity=".8" transform="translate(200 400) scale(0.1 -0.1)"><path d="M0.0 0.0V-509.0H151.0V0.0ZM64.0 -161.0V-295.0L525.0 -294.0V-160.0Z"/></g>
<g fill="red" transform="translate(300 400) scale(0.1 -0.1)"><path d="M0.0 0.0V-494.0H29.0V0.0ZM-410.0 24.0V-5.0H473.0V24.0Z"/></g>
<g fill="black" opacity=".8" transform="translate(300 400) scale(0.1 -0.1)"><path d="M0.0 0.0V-499.0H31.0V0.0ZM-411.0 26.0 -412.0 -3.0 475.0 -1.0V26.0Z"/></g>
<g fill="red" transform="translate(400 400) scale(0.1 -0.1)"><path d="M0.0 0.0V-513.0H155.0V0.0ZM-357.0 91.0V-53.0H562.0V91.0Z"/></g>
<g fill="black" opacity=".8" transform="translate(400 400) scale(0.1 -0.1)"><path d="M0.0 0.0V-510.0H155.0V0.0ZM-356.0 88.0V-56.0L561.0 -55.0V88.0Z"/></g>
<g fill="red" transform="translate(500 400) scale(0.1 -0.1)"><path d="M0.0 0.0V-278.0H31.0V0.0ZM15.0 -110.0V-139.0H452.0V-110.0Z"/></g>
<g fill="black" opacity=".8" transform="translate(500 400) scale(0.1 -0.1)"><path d="M0.0 0.0V-278.0H32.0V0.0ZM15.0 -111.0 14.0 -140.0 452.0 -139.0 453.0 -110.0Z"/></g>
<g fill="red" transform="translate(600 400) scale(0.1 -0.1)"><path d="M0.0 0.0V-288.0H147.0V0.0ZM80.0 -72.0V-201.0H522.0V-72.0Z"/></g>
<g fill="black" opacity=".8" transform="translate(600 400) scale(0.1 -0.1)"><path d="M0.0 0.0V-289.0H147.0V0.0ZM80.0 -72.0V-200.0H522.0V-72.0Z"/></g>
<g fill="red" transform="translate(700 400) scale(0.1 -0.1)"><path d="M0.0 0.0V-361.0H29.0V0.0ZM-209.0 -348.0V-377.0H272.0V-348.0Z"/></g>
<g fill="black" opacity=".8" transform="translate(700 400) scale(0.1 -0.1)"><path d="M0.0 0.0V-366.0H30.0V0.0ZM-209.0 -344.0 -211.0 -377.0 273.0 -375.0 275.0 -344.0Z"/></g>
<g fill="red" transform="translate(800 400) scale(0.1 -0.1)"><path d="M0.0 0.0V-392.0H141.0V0.0ZM-151.0 -312.0V-445.0H349.0V-312.0Z"/></g>
<g fill="black" opacity=".8" transform="translate(800 400) scale(0.1 -0.1)"><path d="M0.0 0.0V-389.0H142.0V0.0ZM-150.0 -318.0V-445.0L347.0 -444.0L348.0 -317.0Z"/></g>
<g fill="red" transform="translate(900 400) scale(0.1 -0.1)"><path d="M0.0 0.0V-604.0H29.0V0.0ZM543.0 110.0V-371.0H573.0V110.0Z"/></g>
<g fill="black" opacity=".8" transform="translate(900 400) scale(0.1 -0.1)"><path d="M0.0 0.0V-610.0H35.0V0.0ZM544.0 116.0 541.0 -372.0 574.0 -370.0 577.0 118.0Z"/></g>
<g fill="red" transform="translate(1000 400) scale(0.1 -0.1)"><path d="M0.0 0.0V-671.0H136.0V0.0ZM539.0 85.0V-442.0H689.0V85.0Z"/></g>
<g fill="black" opacity=".8" transform="translate(1000 400) scale(0.1 -0.1)"><path d="M0.0 0.0V-667.0H139.0V0.0ZM539.0 76.0V-440.0L686.0 -439.0L688.0 76.0Z"/></g>
<g fill="red" transform="translate(1100 400) scale(0.1 -0.1)"><path d="M0.0 0.0V-666.0H30.0V0.0ZM430.0 -119.0V-384.0H459.0V-119.0Z"/></g>
<g fill="black" opacity=".8" transform="translate(1100 400) scale(0.1 -0.1)"><path d="M0.0 0.0V-665.0H23.0V0.0ZM424.0 -134.0 432.0 -369.0 461.0 -370.0 453.0 -136.0Z"/></g>
<g fill="red" transform="translate(1200 400) scale(0.1 -0.1)"><path d="M0.0 0.0V-734.0H109.0V0.0ZM463.0 -192.0V-413.0H564.0V-192.0Z"/></g>
<g fill="black" opacity=".8" transform="translate(1200 400) scale(0.1 -0.1)"><path d="M0.0 0.0V-737.0H96.0V0.0ZM463.0 -174.0 467.0 -429.0 569.0 -430.0 565.0 -175.0Z"/></g>
<g fill="red" transform="translate(1300 400) scale(0.1 -0.1)"><path d="M0.0 0.0V-305.0H29.0V0.0ZM-208.0 -287.0V-317.0H265.0V-287.0Z"/></g>
<g fill="black" opacity=".8" transform="translate(1300 400) scale(0.1 -0.1)"><path d="M0.0 0.0V-305.0H30.0V0.0ZM-208.0 -290.0V-316.0L265.0 -315.0V-289.0Z"/></g>
<g fill="red" transform="translate(1400 400) scale(0.1 -0.1)"><path d="M0.0 0.0V-252.0H135.0V0.0ZM-183.0 -209.0V-334.0H308.0V-209.0Z"/></g>
<g fill="black" opacity=".8" transform="translate(1400 400) scale(0.1 -0.1)"><path d="M0.0 0.0V-253.0H133.0V0.0ZM-183.0 -207.0 -182.0 -335.0H309.0L308.0 -207.0Z"/></g>
<g fill="red" transform="translate(1500 400) scale(0.1 -0.1)"><path d="M0.0 0.0V-423.0H30.0V0.0ZM-418.0 -405.0V-434.0H451.0V-405.0Z"/></g>
<g fill="black" opacity=".8" transform="translate(1500 400) scale(0.1 -0.1)"><path d="M0.0 0.0V-426.0H31.0V0.0ZM-418.0 -403.0 -419.0 -434.0 452.0 -433.0 454.0 -403.0Z"/></g>
<g fill="red" transform="translate(1600 400) scale(0.1 -0.1)"><path d="M0.0 0.0V-414.0H150.0V0.0ZM-378.0 -351.0V-489.0H536.0V-351.0Z"/></g>
<g fill="black" opacity=".8" transform="translate(1600 400) scale(0.1 -0.1)"><path d="M0.0 0.0V-412.0H151.0V0.0ZM-378.0 -354.0 -377.0 -489.0 535.0 -488.0V-354.0Z"/></g>
<g fill="red" transform="translate(100 500) scale(0.1 -0.1)"><path d="M0.0 0.0V-899.0H29.0V0.0ZM431.0 -210.0V-240.0H718.0V-210.0Z"/></g>
<g fill="black" opacity=".8" transform="translate(100 500) scale(0.1 -0.1)"><path d="M0.0 0.0V-900.0H33.0V0.0ZM432.0 -208.0 430.0 -244.0 718.0 -242.0 721.0 -207.0Z"/></g>
<g fill="red" transform="translate(200 500) scale(0.1 -0.1)"><path d="M0.0 0.0V-950.0H134.0V0.0ZM554.0 -153.0V-287.0H793.0V-153.0Z"/></g>
<g fill="black" opacity=".8" transform="translate(200 500) scale(0.1 -0.1)"><path d="M0.0 0.0V-951.0H136.0V0.0ZM554.0 -157.0 553.0 -283.0H792.0L793.0 -157.0Z"/></g>
<g fill="red" transform="translate(300 500) scale(0.1 -0.1)"><path d="M0.0 0.0V-899.0H29.0V0.0ZM450.0 -103.0V-132.0H711.0V-103.0Z"/></g>
<g fill="black" opacity=".8" transform="translate(300 500) scale(0.1 -0.1)"><path d="M0.0 0.0V-894.0H27.0V0.0ZM452.0 -105.0 449.0 -141.0 709.0 -138.0 712.0 -104.0Z"/></g>
<g fill="red" transform="translate(400 500) scale(0.1 -0.1)"><path d="M0.0 0.0V-950.0H119.0V0.0ZM516.0 -65.0V-195.0H773.0V-65.0Z"/></g>
<g fill="black" opacity=".8" transform="translate(400 500) scale(0.1 -0.1)"><path d="M0.0 0.0V-956.0H122.0V0.0ZM515.0 -65.0 514.0 -187.0 774.0 -186.0 775.0 -65.0Z"/></g>
<g fill="red" transform="translate(500 500) scale(0.1 -0.1)"><path d="M0.0 0.0V-361.0H29.0V0.0ZM15.0 -144.0V-173.0H373.0V-144.0Z"/></g>
<g fill="black" opacity=".8" transform="translate(500 500) scale(0.1 -0.1)"><path d="M0.0 0.0V-369.0H32.0V0.0ZM13.0 -141.0 14.0 -167.0 376.0 -166.0V-140.0Z"/></g>
<g fill="red" transform="translate(600 500) scale(0.1 -0.1)"><path d="M0.0 0.0V-374.0H151.0V0.0ZM69.0 -80.0V-211.0H448.0V-80.0Z"/></g>
<g fill="black" opacity=".8" transform="translate(600 500) scale(0.1 -0.1)"><path d="M0.0 0.0V-368.0H149.0V0.0ZM70.0 -84.0 71.0 -216.0H446.0V-84.0Z"/></g>
<g fill="red" transform="translate(700 500) scale(0.1 -0.1)"><path d="M0.0 0.0V-402.0H29.0V0.0ZM-399.0 -379.0V-408.0H466.0V-379.0Z"/></g>
<g fill="black" opacity=".8" transform="translate(700 500) scale(0.1 -0.1)"><path d="M0.0 0.0V-402.0H31.0V0.0ZM-399.0 -380.0 -400.0 -409.0 466.0 -407.0 467.0 -380.0Z"/></g>
<g fill="red" transform="translate(800 500) scale(0.1 -0.1)"><path d="M0.0 0.0V-405.0H149.0V0.0ZM-343.0 -343.0V-472.0H544.0V-343.0Z"/></g>
<g fill="black" opacity=".8" transform="translate(800 500) scale(0.1 -0.1)"><path d="M0.0 0.0V-406.0H148.0V0.0ZM-343.0 -343.0 -342.0 -471.0H544.0V-343.0Z"/></g>
<g fill="red" transform="translate(900 500) scale(0.1 -0.1)"><path d="M0.0 0.0V-494.0H29.0V0.0ZM13.0 -215.0V-245.0H327.0V-215.0Z"/></g>
<g fill="black" opacity=".8" transform="translate(900 500) scale(0.1 -0.1)"><path d="M0.0 0.0V-498.0H32.0V0.0ZM13.0 -212.0 12.0 -244.0 328.0 -243.0 330.0 -212.0Z"/></g>
<g fill="red" transform="translate(1000 500) scale(0.1 -0.1)"><path d="M0.0 0.0V-549.0H150.0V0.0ZM57.0 -178.0V-321.0H395.0V-178.0Z"/></g>
<g fill="black" opacity=".8" transform="translate(1000 500) scale(0.1 -0.1)"><path d="M0.0 0.0V-547.0H151.0V0.0ZM57.0 -182.0 58.0 -321.0H394.0V-182.0Z"/></g>
<g fill="red" transform="translate(1100 500) scale(0.1 -0.1)"><path d="M0.0 0.0V-361.0H29.0V0.0ZM16.0 -142.0V-171.0H267.0V-142.0Z"/></g>
<g fill="black" opacity=".8" transform="translate(1100 500) scale(0.1 -0.1)"><path d="M0.0 0.0V-359.0H32.0V0.0ZM16.0 -145.0V-172.0L267.0 -171.0V-145.0Z"/></g>
<g fill="red" transform="translate(1200 500) scale(0.1 -0.1)"><path d="M0.0 0.0V-338.0H141.0V0.0ZM69.0 -75.0V-202.0H317.0V-75.0Z"/></g>
<g fill="black" opacity=".8" transform="translate(1200 500) scale(0.1 -0.1)"><path d="M0.0 0.0V-341.0H139.0V0.0ZM69.0 -73.0V-202.0L318.0 -201.0V-72.0Z"/></g>
<g fill="red" transform="translate(1300 500) scale(0.1 -0.1)"><path d="M0.0 0.0V-274.0H30.0V0.0ZM-185.0 -258.0V-287.0H240.0V-258.0Z"/></g>
<g fill="black" opacity=".8" transform="translate(1300 500) scale(0.1 -0.1)"><path d="M0.0 0.0V-273.0H31.0V0.0ZM-186.0 -261.0V-287.0L240.0 -286.0V-261.0Z"/></g>
<g fill="red" transform="translate(1400 500) scale(0.1 -0.1)"><path d="M0.0 0.0V-243.0H122.0V0.0ZM-108.0 -190.0V-302.0H253.0V-190.0Z"/></g>
<g fill="black" opacity=".8" transform="translate(1400 500) scale(0.1 -0.1)"><path d="M0.0 0.0V-245.0H120.0V0.0ZM-108.0 -188.0 -107.0 -303.0H254.0V-188.0Z"/></g>
<g fill="red" transform="translate(1500 500) scale(0.1 -0.1)"><path d="M0.0 0.0V-494.0H30.0V0.0ZM22.0 -211.0V-241.0H323.0V-211.0Z"/></g>
<g fill="black" opacity=".8" transform="translate(1500 500) scale(0.1 -0.1)"><path d="M0.0 0.0V-498.0H31.0V0.0ZM21.0 -210.0V-238.0L324.0 -237.0L325.0 -209.0Z"/></g>
<g fill="red" transform="translate(1600 500) scale(0.1 -0.1)"><path d="M0.0 0.0V-527.0H150.0V0.0ZM57.0 -162.0V-299.0H391.0V-162.0Z"/></g>
<g fill="black" opacity=".8" transform="translate(1600 500) scale(0.1 -0.1)"><path d="M0.0 0.0V-524.0H149.0V0.0ZM57.0 -165.0 58.0 -301.0H390.0V-164.0Z"/></g>
<g fill="red" transform="translate(100 600) scale(0.1 -0.1)"><path d="M0.0 0.0V-361.0H30.0V0.0ZM16.0 -142.0V-171.0H285.0V-142.0Z"/></g>
<g fill="black" opacity=".8" transform="translate(100 600) scale(0.1 -0.1)"><path d="M0.0 0.0V-358.0H32.0V0.0ZM16.0 -147.0V-172.0L284.0 -171.0V-146.0Z"/></g>
<g fill="red" transform="translate(200 600) scale(0.1 -0.1)"><path d="M0.0 0.0V-338.0H141.0V0.0ZM69.0 -75.0V-202.0H317.0V-75.0Z"/></g>
<g fill="black" opacity=".8" transform="translate(200 600) scale(0.1 -0.1)"><path d="M0.0 0.0V-342.0H138.0V0.0ZM68.0 -71.0 69.0 -201.0H319.0L318.0 -71.0Z"/></g>
<g fill="red" transform="translate(300 600) scale(0.1 -0.1)"><path d="M0.0 0.0V-370.0H30.0V0.0ZM-126.0 -355.0V-384.0H192.0V-355.0Z"/></g>
<g fill="black" opacity=".8" transform="translate(300 600) scale(0.1 -0.1)"><path d="M0.0 0.0V-360.0H28.0V0.0ZM-124.0 -362.0 -126.0 -394.0 189.0 -393.0 191.0 -361.0Z"/></g>
<g fill="red" transform="translate(400 600) scale(0.1 -0.1)"><path d="M0.0 0.0V-383.0H128.0V0.0ZM-86.0 -349.0V-474.0H240.0V-349.0Z"/></g>
<g fill="black" opacity=".8" transform="translate(400 600) scale(0.1 -0.1)"><path d="M0.0 0.0V-394.0H129.0V0.0ZM-88.0 -344.0V-465.0L243.0 -464.0V-343.0Z"/></g>
<g fill="red" transform="translate(500 600) scale(0.1 -0.1)"><path d="M0.0 0.0V-273.0H29.0V0.0ZM-133.0 -259.0V-289.0H181.0V-259.0Z"/></g>
<g fill="black" opacity=".8" transform="translate(500 600) scale(0.1 -0.1)"><path d="M0.0 0.0V-273.0H27.0V0.0ZM-133.0 -260.0 -134.0 -290.0 181.0 -288.0 182.0 -260.0Z"/></g>
<g fill="red" transform="translate(600 600) scale(0.1 -0.1)"><path d="M0.0 0.0V-248.0H96.0V0.0ZM-68.0 -193.0V-296.0H174.0V-193.0Z"/></g>
<g fill="black" opacity=".8" transform="translate(600 600) scale(0.1 -0.1)"><path d="M0.0 0.0V-249.0H96.0V0.0ZM-68.0 -193.0 -67.0 -296.0H174.0V-193.0Z"/></g>
<g fill="red" transform="translate(700 600) scale(0.1 -0.1)"><path d="M0.0 0.0V-379.0H30.0V0.0ZM-363.0 -364.0V-394.0H294.0V-364.0Z"/></g>
<g fill="black" opacity=".8" transform="translate(700 600) scale(0.1 -0.1)"><path d="M0.0 0.0V-378.0H34.0V0.0ZM-363.0 -365.0 -364.0 -397.0 294.0 -395.0 295.0 -365.0Z"/></g>
<g fill="red" transform="translate(800 600) scale(0.1 -0.1)"><path d="M0.0 0.0V-405.0H158.0V0.0ZM-296.0 -330.0V-475.0H344.0V-330.0Z"/></g>
<g fill="black" opacity=".8" transform="translate(800 600) scale(0.1 -0.1)"><path d="M0.0 0.0V-408.0H158.0V0.0ZM-296.0 -330.0V-473.0L345.0 -472.0V-330.0Z"/></g>
<g fill="red" transform="translate(900 600) scale(0.1 -0.1)"><path d="M0.0 0.0V-450.0H30.0V0.0ZM11.0 -202.0V-231.0H237.0V-202.0Z"/></g>
<g fill="black" opacity=".8" transform="translate(900 600) scale(0.1 -0.1)"><path d="M0.0 0.0V-457.0H31.0V0.0ZM10.0 -199.0 9.0 -227.0 239.0 -226.0 240.0 -199.0Z"/></g>
<g fill="red" transform="translate(1000 600) scale(0.1 -0.1)"><path d="M0.0 0.0V-495.0H139.0V0.0ZM54.0 -152.0V-283.0H284.0V-152.0Z"/></g>
<g fill="black" opacity=".8" transform="translate(1000 600) scale(0.1 -0.1)"><path d="M0.0 0.0V-490.0H139.0V0.0ZM55.0 -156.0 56.0 -287.0 282.0 -286.0V-156.0Z"/></g>
<g fill="red" transform="translate(1100 600) scale(0.1 -0.1)"><path d="M0.0 0.0V-419.0H30.0V0.0ZM564.0 439.0V51.0H593.0V439.0Z"/></g>
<g fill="black" opacity=".8" transform="translate(1100 600) scale(0.1 -0.1)"><path d="M0.0 0.0V-422.0H31.0V0.0ZM561.0 435.0 564.0 59.0H595.0L592.0 435.0Z"/></g>
<g fill="red" transform="translate(1200 600) scale(0.1 -0.1)"><path d="M0.0 0.0V-477.0H139.0V0.0ZM534.0 412.0V2.0H676.0V412.0Z"/></g>
<g fill="black" opacity=".8" transform="translate(1200 600) scale(0.1 -0.1)"><path d="M0.0 0.0V-475.0H133.0V0.0ZM534.0 416.0 536.0 -6.0H677.0L676.0 416.0Z"/></g>
<g fill="red" transform="translate(1300 600) scale(0.1 -0.1)"><path d="M0.0 0.0V-357.0H29.0V0.0ZM-192.0 -346.0V-375.0H232.0V-346.0Z"/></g>
<g fill="black" opacity=".8" transform="translate(1300 600) scale(0.1 -0.1)"><path d="M0.0 0.0V-357.0H28.0V0.0ZM-192.0 -347.0 -193.0 -377.0 232.0 -376.0 233.0 -347.0Z"/></g>
<g fill="red" transform="translate(1400 600) scale(0.1 -0.1)"><path d="M0.0 0.0V-383.0H134.0V0.0ZM-178.0 -322.0V-451.0H277.0V-322.0Z"/></g>
<g fill="black" opacity=".8" transform="translate(1400 600) scale(0.1 -0.1)"><path d="M0.0 0.0V-385.0H134.0V0.0ZM-178.0 -322.0V-449.0H277.0V-322.0Z"/></g>
<g fill="red" transform="translate(1500 600) scale(0.1 -0.1)"><path d="M0.0 0.0V-388.0H30.0V0.0ZM-425.0 -158.0V-187.0H-221.0V-158.0Z"/></g>
<g fill="black" opacity=".8" transform="translate(1500 600) scale(0.1 -0.1)"><path d="M0.0 0.0V-385.0H31.0V0.0ZM-425.0 -162.0 -426.0 -189.0 -221.0 -188.0V-162.0Z"/></g>
<g fill="red" transform="translate(1600 600) scale(0.1 -0.1)"><path d="M0.0 0.0V-410.0H142.0V0.0ZM-335.0 -120.0V-247.0H-136.0V-120.0Z"/></g>
<g fill="black" opacity=".8" transform="translate(1600 600) scale(0.1 -0.1)"><path d="M0.0 0.0V-414.0H141.0V0.0ZM-335.0 -117.0V-245.0H-135.0L-134.0 -116.0Z"/></g>
<g fill="red" transform="translate(100 700) scale(0.1 -0.1)"><path d="M0.0 0.0V-225.0H30.0V0.0ZM-155.0 -338.0H176.0V-445.0H-155.0Z"/></g>
<g fill="black" opacity=".8" transform="translate(100 700) scale(0.1 -0.1)"><path d="M0.0 0.0V-226.0H31.0V0.0ZM-155.0 -337.0 175.0 -339.0 176.0 -446.0 -154.0 -444.0Z"/></g>
<g fill="red" transform="translate(200 700) scale(0.1 -0.1)"><path d="M0.0 0.0V-238.0H140.0V0.0ZM-3.0 -378.0H141.0V-421.0H-3.0Z"/></g>
<g fill="black" opacity=".8" transform="translate(200 700) scale(0.1 -0.1)"><path d="M0.0 0.0V-238.0H141.0V0.0ZM-3.0 -380.0 141.0 -376.0V-419.0L-3.0 -422.0Z"/></g>
<g fill="red" transform="translate(300 700) scale(0.1 -0.1)"><path d="M0.0 0.0V-317.0H30.0V0.0ZM-156.0 -302.0V-332.0H357.0V-302.0Z"/></g>
<g fill="black" opacity=".8" transform="translate(300 700) scale(0.1 -0.1)"><path d="M0.0 0.0V-313.0H29.0V0.0ZM-157.0 -308.0 -155.0 -332.0H356.0V-309.0Z"/></g>
<g fill="red" transform="translate(400 700) scale(0.1 -0.1)"><path d="M0.0 0.0V-383.0H147.0V0.0ZM-192.0 -300.0V-437.0H313.0V-300.0Z"/></g>
<g fill="black" opacity=".8" transform="translate(400 700) scale(0.1 -0.1)"><path d="M0.0 0.0V-387.0H144.0V0.0ZM-193.0 -294.0 -191.0 -438.0 315.0 -437.0 314.0 -294.0Z"/></g>
<g fill="red" transform="translate(500 700) scale(0.1 -0.1)"><path d="M0.0 0.0V-494.0H30.0V0.0ZM20.0 -230.0V-259.0H369.0V-230.0Z"/></g>
<g fill="black" opacity=".8" transform="translate(500 700) scale(0.1 -0.1)"><path d="M0.0 0.0V-499.0H34.0V0.0ZM19.0 -227.0V-257.0L370.0 -256.0L372.0 -227.0Z"/></g>
<g fill="red" transform="translate(600 700) scale(0.1 -0.1)"><path d="M0.0 0.0V-527.0H150.0V0.0ZM85.0 -173.0V-313.0H428.0V-173.0Z"/></g>
<g fill="black" opacity=".8" transform="translate(600 700) scale(0.1 -0.1)"><path d="M0.0 0.0V-524.0H150.0V0.0ZM85.0 -177.0 86.0 -314.0H427.0V-177.0Z"/></g>
<g fill="red" transform="translate(700 700) scale(0.1 -0.1)"><path d="M0.0 0.0V-357.0H29.0V0.0ZM-178.0 -342.0V-371.0H215.0V-342.0Z"/></g>
<g fill="black" opacity=".8" transform="translate(700 700) scale(0.1 -0.1)"><path d="M0.0 0.0V-360.0H30.0V0.0ZM-178.0 -339.0 -180.0 -373.0 216.0 -371.0 218.0 -338.0Z"/></g>
<g fill="red" transform="translate(800 700) scale(0.1 -0.1)"><path d="M0.0 0.0V-369.0H132.0V0.0ZM-119.0 -293.0V-426.0H273.0V-293.0Z"/></g>
<g fill="black" opacity=".8" transform="translate(800 700) scale(0.1 -0.1)"><path d="M0.0 0.0V-368.0H134.0V0.0ZM-119.0 -298.0V-424.0H272.0V-297.0Z"/></g>
<g fill="red" transform="translate(900 700) scale(0.1 -0.1)"><path d="M0.0 0.0V-300.0H30.0V0.0ZM-163.0 -278.0V-308.0H213.0V-278.0Z"/></g>
<g fill="black" opacity=".8" transform="translate(900 700) scale(0.1 -0.1)"><path d="M0.0 0.0V-302.0H27.0V0.0ZM-164.0 -279.0V-307.0L214.0 -306.0V-278.0Z"/></g>
<g fill="red" transform="translate(1000 700) scale(0.1 -0.1)"><path d="M0.0 0.0V-279.0H122.0V0.0ZM-134.0 -220.0V-338.0H258.0V-220.0Z"/></g>
<g fill="black" opacity=".8" transform="translate(1000 700) scale(0.1 -0.1)"><path d="M0.0 0.0V-279.0H122.0V0.0ZM-134.0 -221.0 -133.0 -339.0 258.0 -338.0 257.0 -220.0Z"/></g>
<g fill="red" transform="translate(1100 700) scale(0.1 -0.1)"><path d="M0.0 0.0V-393.0H29.0V0.0ZM16.0 -170.0V-199.0H361.0V-170.0Z"/></g>
<g fill="black" opacity=".8" transform="translate(1100 700) scale(0.1 -0.1)"><path d="M0.0 0.0V-401.0H32.0V0.0ZM14.0 -167.0 15.0 -192.0 364.0 -191.0 363.0 -167.0Z"/></g>
<g fill="red" transform="translate(1200 700) scale(0.1 -0.1)"><path d="M0.0 0.0V-378.0H142.0V0.0ZM66.0 -83.0V-209.0H418.0V-83.0Z"/></g>
<g fill="black" opacity=".8" transform="translate(1200 700) scale(0.1 -0.1)"><path d="M0.0 0.0V-372.0H140.0V0.0ZM67.0 -87.0 68.0 -215.0H416.0V-87.0Z"/></g>
<g fill="red" transform="translate(1300 700) scale(0.1 -0.1)"><path d="M0.0 0.0V-296.0H29.0V0.0ZM9.0 -104.0V-133.0H278.0V-104.0Z"/></g>
<g fill="black" opacity=".8" transform="translate(1300 700) scale(0.1 -0.1)"><path d="M0.0 0.0V-296.0H31.0V0.0ZM9.0 -104.0 8.0 -135.0 278.0 -134.0 279.0 -103.0Z"/></g>
<g fill="red" transform="translate(1400 700) scale(0.1 -0.1)"><path d="M0.0 0.0V-293.0H141.0V0.0ZM77.0 -55.0V-185.0H366.0V-55.0Z"/></g>
<g fill="black" opacity=".8" transform="translate(1400 700) scale(0.1 -0.1)"><path d="M0.0 0.0V-294.0H141.0V0.0ZM77.0 -57.0V-183.0L366.0 -182.0V-56.0Z"/></g>
<g fill="red" transform="translate(1500 700) scale(0.1 -0.1)"><path d="M0.0 0.0V-502.0H29.0V0.0ZM13.0 -215.0V-245.0H292.0V-215.0Z"/></g>
<g fill="black" opacity=".8" transform="translate(1500 700) scale(0.1 -0.1)"><path d="M0.0 0.0V-498.0H31.0V0.0ZM14.0 -218.0 13.0 -250.0 291.0 -248.0 292.0 -218.0Z"/></g>
<g fill="red" transform="translate(1600 700) scale(0.1 -0.1)"><path d="M0.0 0.0V-527.0H143.0V0.0ZM67.0 -184.0V-318.0H360.0V-184.0Z"/></g>
<g fill="black" opacity=".8" transform="translate(1600 700) scale(0.1 -0.1)"><path d="M0.0 0.0V-532.0H143.0V0.0ZM66.0 -182.0V-314.0L361.0 -313.0L362.0 -181.0Z"/></g>
<g fill="red" transform="translate(100 800) scale(0.1 -0.1)"><path d="M0.0 0.0V-446.0H29.0V0.0ZM10.0 -187.0V-215.0H235.0V-187.0Z"/></g>
<g fill="black" opacity=".8" transform="translate(100 800) scale(0.1 -0.1)"><path d="M0.0 0.0V-444.0H30.0V0.0ZM10.0 -190.0V-216.0L235.0 -215.0V-190.0Z"/></g>
<g fill="red" transform="translate(200 800) scale(0.1 -0.1)"><path d="M0.0 0.0V-459.0H138.0V0.0ZM54.0 -143.0V-267.0H289.0V-143.0Z"/></g>
<g fill="black" opacity=".8" transform="translate(200 800) scale(0.1 -0.1)"><path d="M0.0 0.0V-462.0H136.0V0.0ZM53.0 -141.0 54.0 -267.0 290.0 -266.0V-140.0Z"/></g>
<g fill="red" transform="translate(300 800) scale(0.1 -0.1)"><path d="M0.0 0.0V-384.0H30.0V0.0ZM-146.0 -367.0V-397.0H181.0V-367.0Z"/></g>
<g fill="black" opacity=".8" transform="translate(300 800) scale(0.1 -0.1)"><path d="M0.0 0.0V-392.0H28.0V0.0ZM-148.0 -363.0V-392.0L184.0 -391.0V-362.0Z"/></g>
<g fill="red" transform="translate(400 800) scale(0.1 -0.1)"><path d="M0.0 0.0V-387.0H122.0V0.0ZM-97.0 -303.0V-421.0H237.0V-303.0Z"/></g>
<g fill="black" opacity=".8" transform="translate(400 800) scale(0.1 -0.1)"><path d="M0.0 0.0V-381.0H122.0V0.0ZM-96.0 -309.0 -95.0 -425.0H234.0V-309.0Z"/></g>
<g fill="red" transform="translate(500 800) scale(0.1 -0.1)"><path d="M0.0 0.0V-851.0H29.0V0.0ZM-253.0 -833.0V-862.0H334.0V-833.0Z"/></g>
<g fill="black" opacity=".8" transform="translate(500 800) scale(0.1 -0.1)"><path d="M0.0 0.0V-852.0H32.0V0.0ZM-253.0 -833.0 -254.0 -865.0 334.0 -862.0 336.0 -832.0Z"/></g>
<g fill="red" transform="translate(600 800) scale(0.1 -0.1)"><path d="M0.0 0.0V-837.0H150.0V0.0ZM-224.0 -768.0V-911.0H425.0V-768.0Z"/></g>
<g fill="black" opacity=".8" transform="translate(600 800) scale(0.1 -0.1)"><path d="M0.0 0.0V-838.0H150.0V0.0ZM-224.0 -771.0V-908.0H424.0L425.0 -770.0Z"/></g>
<g fill="red" transform="translate(700 800) scale(0.1 -0.1)"><path d="M0.0 0.0V-287.0H31.0V0.0ZM9.0 -109.0V-138.0H442.0V-109.0Z"/></g>
<g fill="black" opacity=".8" transform="translate(700 800) scale(0.1 -0.1)"><path d="M0.0 0.0V-295.0H33.0V0.0ZM7.0 -105.0V-132.0H445.0V-105.0Z"/></g>
<g fill="red" transform="translate(800 800) scale(0.1 -0.1)"><path d="M0.0 0.0V-320.0H150.0V0.0ZM83.0 -63.0V-190.0H516.0V-63.0Z"/></g>
<g fill="black" opacity=".8" transform="translate(800 800) scale(0.1 -0.1)"><path d="M0.0 0.0V-314.0H149.0V0.0ZM84.0 -68.0 85.0 -195.0H514.0V-67.0Z"/></g>
<g fill="red" transform="translate(900 800) scale(0.1 -0.1)"><path d="M0.0 0.0V-502.0H29.0V0.0ZM13.0 -215.0V-245.0H291.0V-215.0Z"/></g>
<g fill="black" opacity=".8" transform="translate(900 800) scale(0.1 -0.1)"><path d="M0.0 0.0V-500.0H30.0V0.0ZM14.0 -216.0 12.0 -250.0 290.0 -248.0 292.0 -215.0Z"/></g>
<g fill="red" transform="translate(1000 800) scale(0.1 -0.1)"><path d="M0.0 0.0V-527.0H135.0V0.0ZM72.0 -176.0V-310.0H354.0V-176.0Z"/></g>
<g fill="black" opacity=".8" transform="translate(1000 800) scale(0.1 -0.1)"><path d="M0.0 0.0V-530.0H136.0V0.0ZM71.0 -177.0V-306.0L354.0 -305.0L355.0 -176.0Z"/></g>
<g fill="red" transform="translate(1100 800) scale(0.1 -0.1)"><path d="M0.0 0.0V-353.0H29.0V0.0ZM-195.0 -339.0V-368.0H229.0V-339.0Z"/></g>
<g fill="black" opacity=".8" transform="translate(1100 800) scale(0.1 -0.1)"><path d="M0.0 0.0V-357.0H29.0V0.0ZM-196.0 -338.0V-367.0L230.0 -366.0L231.0 -337.0Z"/></g>
<g fill="red" transform="translate(1200 800) scale(0.1 -0.1)"><path d="M0.0 0.0V-356.0H133.0V0.0ZM-160.0 -287.0V-414.0H282.0V-287.0Z"/></g>
<g fill="black" opacity=".8" transform="translate(1200 800) scale(0.1 -0.1)"><path d="M0.0 0.0V-354.0H133.0V0.0ZM-160.0 -290.0 -159.0 -415.0H281.0V-290.0Z"/></g>
<g fill="red" transform="translate(1300 800) scale(0.1 -0.1)"><path d="M0.0 0.0V-502.0H29.0V0.0ZM18.0 -215.0V-245.0H297.0V-215.0Z"/></g>
<g fill="black" opacity=".8" transform="translate(1300 800) scale(0.1 -0.1)"><path d="M0.0 0.0V-498.0H31.0V0.0ZM19.0 -218.0 18.0 -250.0 296.0 -248.0 297.0 -217.0Z"/></g>
<g fill="red" transform="translate(1400 800) scale(0.1 -0.1)"><path d="M0.0 0.0V-527.0H145.0V0.0ZM82.0 -184.0V-318.0H379.0V-184.0Z"/></g>
<g fill="black" opacity=".8" transform="translate(1400 800) scale(0.1 -0.1)"><path d="M0.0 0.0V-532.0H145.0V0.0ZM81.0 -183.0V-314.0L380.0 -313.0V-182.0Z"/></g>
<g fill="red" transform="translate(1500 800) scale(0.1 -0.1)"><path d="M0.0 0.0V-481.0H30.0V0.0ZM19.0 -217.0V-247.0H329.0V-217.0Z"/></g>
<g fill="black" opacity=".8" transform="translate(1500 800) scale(0.1 -0.1)"><path d="M0.0 0.0V-483.0H31.0V0.0ZM19.0 -216.0 18.0 -248.0 330.0 -246.0 331.0 -216.0Z"/></g>
<g fill="red" transform="translate(1600 800) scale(0.1 -0.1)"><path d="M0.0 0.0V-527.0H144.0V0.0ZM74.0 -180.0V-317.0H385.0V-180.0Z"/></g>
<g fill="black" opacity=".8" transform="translate(1600 800) scale(0.1 -0.1)"><path d="M0.0 0.0V-527.0H144.0V0.0ZM74.0 -182.0V-316.0H384.0L385.0 -182.0Z"/></g>
<g fill="red" transform="translate(100 900) scale(0.1 -0.1)"><path d="M0.0 0.0V-419.0H30.0V0.0ZM139.0 433.0V-17.0H169.0V433.0Z"/></g>
<g fill="black" opacity=".8" transform="translate(100 900) scale(0.1 -0.1)"><path d="M0.0 0.0V-419.0H33.0V0.0ZM139.0 432.0 138.0 -17.0 169.0 -16.0V431.0Z"/></g>
<g fill="red" transform="translate(200 900) scale(0.1 -0.1)"><path d="M0.0 0.0V-477.0H139.0V0.0ZM111.0 412.0V-83.0H250.0V412.0Z"/></g>
<g fill="black" opacity=".8" transform="translate(200 900) scale(0.1 -0.1)"><path d="M0.0 0.0V-478.0H137.0V0.0ZM111.0 413.0V-83.0H251.0V413.0Z"/></g>
<g fill="red" transform="translate(300 900) scale(0.1 -0.1)"><path d="M0.0 0.0V-273.0H30.0V0.0ZM-120.0 -260.0V-289.0H158.0V-260.0Z"/></g>
<g fill="black" opacity=".8" transform="translate(300 900) scale(0.1 -0.1)"><path d="M0.0 0.0V-274.0H27.0V0.0ZM-121.0 -262.0V-289.0L159.0 -287.0V-261.0Z"/></g>
<g fill="red" transform="translate(400 900) scale(0.1 -0.1)"><path d="M0.0 0.0V-234.0H89.0V0.0ZM-39.0 -181.0V-277.0H137.0V-181.0Z"/></g>
<g fill="black" opacity=".8" transform="translate(400 900) scale(0.1 -0.1)"><path d="M0.0 0.0V-235.0H88.0V0.0ZM-39.0 -180.0 -38.0 -278.0 137.0 -277.0V-180.0Z"/></g>
<g fill="red" transform="translate(500 900) scale(0.1 -0.1)"><path d="M0.0 0.0V-423.0H29.0V0.0ZM-274.0 -403.0V-432.0H380.0V-403.0Z"/></g>
<g fill="black" opacity=".8" transform="translate(500 900) scale(0.1 -0.1)"><path d="M0.0 0.0V-424.0H31.0V0.0ZM-273.0 -402.0 -275.0 -435.0 380.0 -433.0 382.0 -401.0Z"/></g>
<g fill="red" transform="translate(600 900) scale(0.1 -0.1)"><path d="M0.0 0.0V-414.0H142.0V0.0ZM-229.0 -351.0V-489.0H453.0V-351.0Z"/></g>
<g fill="black" opacity=".8" transform="translate(600 900) scale(0.1 -0.1)"><path d="M0.0 0.0V-415.0H143.0V0.0ZM-229.0 -354.0V-486.0L452.0 -485.0L453.0 -354.0Z"/></g>
<g fill="red" transform="translate(700 900) scale(0.1 -0.1)"><path d="M0.0 0.0V-458.0H30.0V0.0ZM11.0 -190.0V-219.0H272.0V-190.0Z"/></g>
<g fill="black" opacity=".8" transform="translate(700 900) scale(0.1 -0.1)"><path d="M0.0 0.0V-463.0H30.0V0.0ZM11.0 -186.0 9.0 -218.0 273.0 -217.0 275.0 -186.0Z"/></g>
<g fill="red" transform="translate(800 900) scale(0.1 -0.1)"><path d="M0.0 0.0V-527.0H147.0V0.0ZM63.0 -165.0V-303.0H356.0V-165.0Z"/></g>
<g fill="black" opacity=".8" transform="translate(800 900) scale(0.1 -0.1)"><path d="M0.0 0.0V-524.0H149.0V0.0ZM63.0 -171.0 64.0 -304.0 354.0 -303.0 355.0 -170.0Z"/></g>
<g fill="red" transform="translate(900 900) scale(0.1 -0.1)"><path d="M0.0 0.0V-191.0H29.0V0.0ZM-163.0 -173.0V-202.0H221.0V-173.0Z"/></g>
<g fill="black" opacity=".8" transform="translate(900 900) scale(0.1 -0.1)"><path d="M0.0 0.0V-189.0H25.0V0.0ZM-164.0 -179.0 -163.0 -200.0H221.0L220.0 -179.0Z"/></g>
<g fill="red" transform="translate(1000 900) scale(0.1 -0.1)"><path d="M0.0 0.0V-167.0H115.0V0.0ZM-133.0 -136.0V-231.0H259.0V-136.0Z"/></g>
<g fill="black" opacity=".8" transform="translate(1000 900) scale(0.1 -0.1)"><path d="M0.0 0.0V-170.0H112.0V0.0ZM-133.0 -130.0 -132.0 -233.0H261.0L260.0 -130.0Z"/></g>
<g fill="red" transform="translate(1100 900) scale(0.1 -0.1)"><path d="M0.0 0.0V-693.0H30.0V0.0ZM-327.0 14.0V-15.0H445.0V14.0Z"/></g>
<g fill="black" opacity=".8" transform="translate(1100 900) scale(0.1 -0.1)"><path d="M0.0 0.0V-681.0H30.0V0.0ZM-327.0 1.0 -326.0 -20.0 442.0 -19.0 440.0 1.0Z"/></g>
<g fill="red" transform="translate(1200 900) scale(0.1 -0.1)"><path d="M0.0 0.0V-635.0H157.0V0.0ZM-313.0 95.0V-40.0H518.0V95.0Z"/></g>
<g fill="black" opacity=".8" transform="translate(1200 900) scale(0.1 -0.1)"><path d="M0.0 0.0V-647.0H152.0V0.0ZM-315.0 108.0 -314.0 -37.0H523.0L522.0 108.0Z"/></g>
<g fill="red" transform="translate(1300 900) scale(0.1 -0.1)"><path d="M0.0 0.0V-361.0H30.0V0.0ZM-232.0 -352.0V-381.0H237.0V-352.0Z"/></g>
<g fill="black" opacity=".8" transform="translate(1300 900) scale(0.1 -0.1)"><path d="M0.0 0.0V-362.0H31.0V0.0ZM-232.0 -352.0 -233.0 -383.0 237.0 -381.0 239.0 -352.0Z"/></g>
<g fill="red" transform="translate(1400 900) scale(0.1 -0.1)"><path d="M0.0 0.0V-414.0H138.0V0.0ZM-186.0 -333.0V-466.0H262.0V-333.0Z"/></g>
<g fill="black" opacity=".8" transform="translate(1400 900) scale(0.1 -0.1)"><path d="M0.0 0.0V-415.0H139.0V0.0ZM-186.0 -334.0V-465.0L262.0 -464.0V-334.0Z"/></g>
<g fill="red" transform="translate(1500 900) scale(0.1 -0.1)"><path d="M0.0 0.0V-458.0H29.0V0.0ZM10.0 -190.0V-219.0H250.0V-190.0Z"/></g>
<g fill="black" opacity=".8" transform="translate(1500 900) scale(0.1 -0.1)"><path d="M0.0 0.0V-464.0H29.0V0.0ZM10.0 -185.0 8.0 -219.0 252.0 -217.0 254.0 -184.0Z"/></g>
<g fill="red" transform="translate(1600 900) scale(0.1 -0.1)"><path d="M0.0 0.0V-527.0H143.0V0.0ZM61.0 -165.0V-303.0H347.0V-165.0Z"/></g>
<g fill="black" opacity=".8" transform="translate(1600 900) scale(0.1 -0.1)"><path d="M0.0 0.0V-523.0H146.0V0.0ZM62.0 -172.0V-303.0L345.0 -302.0V-171.0Z"/></g>
<g fill="red" transform="translate(100 1000) scale(0.1 -0.1)"><path d="M0.0 0.0V-420.0H29.0V0.0ZM577.0 269.0V-97.0H607.0V269.0Z"/></g>
<g fill="black" opacity=".8" transform="translate(100 1000) scale(0.1 -0.1)"><path d="M0.0 0.0V-411.0H29.0V0.0ZM583.0 271.0 576.0 -117.0 603.0 -114.0 610.0 274.0Z"/></g>
<g fill="red" transform="translate(200 1000) scale(0.1 -0.1)"><path d="M0.0 0.0V-446.0H112.0V0.0ZM566.0 249.0V-197.0H698.0V249.0Z"/></g>
<g fill="black" opacity=".8" transform="translate(200 1000) scale(0.1 -0.1)"><path d="M0.0 0.0V-456.0H122.0V0.0ZM564.0 243.0 562.0 -177.0 698.0 -176.0 701.0 244.0Z"/></g>
<g fill="red" transform="translate(300 1000) scale(0.1 -0.1)"><path d="M0.0 0.0V-379.0H29.0V0.0ZM-254.0 -657.0V-687.0H342.0V-657.0Z"/></g>
<g fill="black" opacity=".8" transform="translate(300 1000) scale(0.1 -0.1)"><path d="M0.0 0.0V-369.0H36.0V0.0ZM-254.0 -668.0 -252.0 -690.0 339.0 -689.0V-668.0Z"/></g>
<g fill="red" transform="translate(400 1000) scale(0.1 -0.1)"><path d="M0.0 0.0V-378.0H150.0V0.0ZM-157.0 -645.0V-756.0H348.0V-645.0Z"/></g>
<g fill="black" opacity=".8" transform="translate(400 1000) scale(0.1 -0.1)"><path d="M0.0 0.0V-388.0H144.0V0.0ZM-159.0 -634.0 -157.0 -754.0H353.0L352.0 -634.0Z"/></g>
<g fill="red" transform="translate(500 1000) scale(0.1 -0.1)"><path d="M0.0 0.0V-300.0H29.0V0.0ZM-148.0 -292.0V-321.0H210.0V-292.0Z"/></g>
<g fill="black" opacity=".8" transform="translate(500 1000) scale(0.1 -0.1)"><path d="M0.0 0.0V-301.0H29.0V0.0ZM-148.0 -293.0 -149.0 -321.0 210.0 -320.0 211.0 -292.0Z"/></g>
<g fill="red" transform="translate(600 1000) scale(0.1 -0.1)"><path d="M0.0 0.0V-306.0H121.0V0.0ZM-92.0 -247.0V-364.0H233.0V-247.0Z"/></g>
<g fill="black" opacity=".8" transform="translate(600 1000) scale(0.1 -0.1)"><path d="M0.0 0.0V-307.0H121.0V0.0ZM-92.0 -247.0 -91.0 -364.0 233.0 -363.0V-247.0Z"/></g>
<g fill="red" transform="translate(700 1000) scale(0.1 -0.1)"><path d="M0.0 0.0V-755.0H30.0V0.0ZM513.0 66.0V-428.0H543.0V66.0Z"/></g>
<g fill="black" opacity=".8" transform="translate(700 1000) scale(0.1 -0.1)"><path d="M0.0 0.0V-763.0H32.0V0.0ZM513.0 74.0 510.0 -428.0 545.0 -426.0 548.0 75.0Z"/></g>
<g fill="red" transform="translate(800 1000) scale(0.1 -0.1)"><path d="M0.0 0.0V-819.0H113.0V0.0ZM509.0 54.0V-473.0H648.0V54.0Z"/></g>
<g fill="black" opacity=".8" transform="translate(800 1000) scale(0.1 -0.1)"><path d="M0.0 0.0V-813.0H117.0V0.0ZM510.0 44.0 509.0 -472.0H645.0L646.0 44.0Z"/></g>
<g fill="red" transform="translate(900 1000) scale(0.1 -0.1)"><path d="M0.0 0.0V-273.0H28.0V0.0ZM-129.0 -259.0V-289.0H165.0V-259.0Z"/></g>
<g fill="black" opacity=".8" transform="translate(900 1000) scale(0.1 -0.1)"><path d="M0.0 0.0V-274.0H26.0V0.0ZM-129.0 -259.0 -130.0 -290.0 166.0 -289.0 167.0 -258.0Z"/></g>
<g fill="red" transform="translate(1000 1000) scale(0.1 -0.1)"><path d="M0.0 0.0V-248.0H91.0V0.0ZM-65.0 -193.0V-296.0H165.0V-193.0Z"/></g>
<g fill="black" opacity=".8" transform="translate(1000 1000) scale(0.1 -0.1)"><path d="M0.0 0.0V-248.0H92.0V0.0ZM-65.0 -194.0 -64.0 -295.0H165.0V-194.0Z"/></g>
<g fill="red" transform="translate(1100 1000) scale(0.1 -0.1)"><path d="M0.0 0.0V-361.0H30.0V0.0ZM16.0 -140.0V-169.0H259.0V-140.0Z"/></g>
<g fill="black" opacity=".8" transform="translate(1100 1000) scale(0.1 -0.1)"><path d="M0.0 0.0V-359.0H32.0V0.0ZM16.0 -143.0V-170.0L259.0 -169.0V-143.0Z"/></g>
<g fill="red" transform="translate(1200 1000) scale(0.1 -0.1)"><path d="M0.0 0.0V-338.0H141.0V0.0ZM69.0 -75.0V-202.0H317.0V-75.0Z"/></g>
<g fill="black" opacity=".8" transform="translate(1200 1000) scale(0.1 -0.1)"><path d="M0.0 0.0V-341.0H139.0V0.0ZM69.0 -73.0V-201.0H318.0V-72.0Z"/></g>
<g fill="red" transform="translate(1300 1000) scale(0.1 -0.1)"><path d="M0.0 0.0V-631.0H30.0V0.0ZM557.0 -104.0V-465.0H587.0V-104.0Z"/></g>
<g fill="black" opacity=".8" transform="translate(1300 1000) scale(0.1 -0.1)"><path d="M0.0 0.0V-626.0H27.0V0.0ZM554.0 -116.0 559.0 -459.0 587.0 -460.0 583.0 -116.0Z"/></g>
<g fill="red" transform="translate(1400 1000) scale(0.1 -0.1)"><path d="M0.0 0.0V-693.0H125.0V0.0ZM585.0 -192.0V-530.0H726.0V-192.0Z"/></g>
<g fill="black" opacity=".8" transform="translate(1400 1000) scale(0.1 -0.1)"><path d="M0.0 0.0V-699.0H117.0V0.0ZM584.0 -179.0 586.0 -536.0 730.0 -537.0 728.0 -179.0Z"/></g>
<g fill="red" transform="translate(1500 1000) scale(0.1 -0.1)"><path d="M0.0 0.0V-490.0H29.0V0.0ZM16.0 -215.0V-245.0H291.0V-215.0Z"/></g>
<g fill="black" opacity=".8" transform="translate(1500 1000) scale(0.1 -0.1)"><path d="M0.0 0.0V-487.0H33.0V0.0ZM16.0 -218.0V-248.0L290.0 -247.0L291.0 -217.0Z"/></g>
<g fill="red" transform="translate(1600 1000) scale(0.1 -0.1)"><path d="M0.0 0.0V-527.0H150.0V0.0ZM85.0 -179.0V-317.0H338.0V-179.0Z"/></g>
<g fill="black" opacity=".8" transform="translate(1600 1000) scale(0.1 -0.1)"><path d="M0.0 0.0V-531.0H149.0V0.0ZM84.0 -178.0 85.0 -315.0 339.0 -314.0V-177.0Z"/></g>
</svg>
