<?xml version="1.0" encoding="UTF-8"?>
<svg width="1700" height="300" xmlns="http://www.w3.org/2000/svg">
<rect width="100%" height="100%" fill="white"/>
<g fill="green" transform="translate(100 100) scale(0.1 -0.1)"><path d="M0.0 0.0C-177.0 0.0 -354.0 60.0 -354.0 167.0C-354.0 274.0 -177.0 336.0 0.0 336.0C176.0 336.0 359.0 284.0 353.0 167.0C349.0 52.0 176.0 0.0 0.0 0.0ZM-1.0 23.0C161.0 23.0 327.0 66.0 329.0 167.0C333.0 271.0 152.0 309.0 -2.0 309.0C-156.0 309.0 -324.0 262.0 -327.0 166.0C-329.0 72.0 -163.0 23.0 -1.0 23.0Z"/></g>
<g fill="green" transform="translate(200 100) scale(0.1 -0.1)"><path d="M0.0 0.0C-213.0 -2.0 -403.0 82.0 -401.0 216.0C-399.0 350.0 -203.0 412.0 -3.0 412.0C197.0 412.0 396.0 367.0 394.0 216.0C393.0 65.0 213.0 2.0 0.0 0.0ZM35.0 134.0C180.0 134.0 248.0 173.0 245.0 217.0C243.0 260.0 152.0 285.0 17.0 287.0C-119.0 289.0 -227.0 273.0 -230.0 209.0C-233.0 144.0 -110.0 134.0 35.0 134.0Z"/></g>
<g fill="green" transform="translate(300 100) scale(0.1 -0.1)"><path d="M0.0 0.0C-177.0 0.0 -354.0 60.0 -354.0 167.0C-354.0 274.0 -177.0 336.0 0.0 336.0C176.0 336.0 359.0 284.0 353.0 167.0C349.0 52.0 176.0 0.0 0.0 0.0ZM-1.0 23.0C161.0 23.0 327.0 66.0 329.0 167.0C333.0 271.0 152.0 309.0 -2.0 309.0C-156.0 309.0 -324.0 262.0 -327.0 166.0C-329.0 72.0 -163.0 23.0 -1.0 23.0Z"/></g>
<g fill="green" transform="translate(400 100) scale(0.1 -0.1)"><path d="M0.0 0.0C-213.0 -2.0 -403.0 82.0 -401.0 216.0C-399.0 350.0 -203.0 412.0 -3.0 412.0C197.0 412.0 396.0 367.0 394.0 216.0C393.0 65.0 213.0 2.0 0.0 0.0ZM35.0 134.0C180.0 134.0 248.0 173.0 245.0 217.0C243.0 260.0 152.0 285.0 17.0 287.0C-119.0 289.0 -227.0 273.0 -230.0 209.0C-233.0 144.0 -110.0 134.0 35.0 134.0Z"/></g>
<g fill="red" transform="translate(100 200) scale(0.1 -0.1)"><path d="M0.0 0.0C-177.0 0.0 -354.0 60.0 -354.0 167.0C-354.0 274.0 -177.0 336.0 0.0 336.0C176.0 336.0 359.0 284.0 353.0 167.0C349.0 52.0 176.0 0.0 0.0 0.0ZM-1.0 23.0C161.0 23.0 327.0 66.0 329.0 167.0C333.0 271.0 152.0 309.0 -2.0 309.0C-156.0 309.0 -324.0 262.0 -327.0 166.0C-329.0 72.0 -163.0 23.0 -1.0 23.0Z"/></g>
<g fill="black" opacity=".8" transform="translate(100 200) scale(0.1 -0.1)"><path d="M0.0 0.0C-177.0 0.0 -354.0 60.0 -354.0 167.0C-354.0 274.0 -177.0 336.0 0.0 336.0C176.0 336.0 359.0 284.0 353.0 167.0C349.0 52.0 176.0 0.0 0.0 0.0ZM-1.0 23.0C161.0 23.0 327.0 66.0 329.0 167.0C333.0 271.0 152.0 309.0 -2.0 309.0C-156.0 309.0 -324.0 262.0 -327.0 166.0C-329.0 72.0 -163.0 23.0 -1.0 23.0Z"/></g>
<g fill="red" transform="translate(200 200) scale(0.1 -0.1)"><path d="M0.0 0.0C-213.0 -2.0 -403.0 82.0 -401.0 216.0C-399.0 350.0 -203.0 412.0 -3.0 412.0C197.0 412.0 396.0 367.0 394.0 216.0C393.0 65.0 213.0 2.0 0.0 0.0ZM35.0 134.0C180.0 134.0 248.0 173.0 245.0 217.0C243.0 260.0 152.0 285.0 17.0 287.0C-119.0 289.0 -227.0 273.0 -230.0 209.0C-233.0 144.0 -110.0 134.0 35.0 134.0Z"/></g>
<g fill="black" opacity=".8" transform="translate(200 200) scale(0.1 -0.1)"><path d="M0.0 0.0C-213.0 -2.0 -403.0 82.0 -401.0 216.0C-399.0 350.0 -203.0 412.0 -3.0 412.0C197.0 412.0 396.0 367.0 394.0 216.0C393.0 65.0 213.0 2.0 0.0 0.0ZM35.0 134.0C180.0 134.0 248.0 173.0 245.0 217.0C243.0 260.0 152.0 285.0 17.0 287.0C-119.0 289.0 -227.0 273.0 -230.0 209.0C-233.0 144.0 -110.0 134.0 35.0 134.0Z"/></g>
</svg>
