<?xml version="1.0" encoding="UTF-8"?>
<svg width="1700" height="300" xmlns="http://www.w3.org/2000/svg">
<rect width="100%" height="100%" fill="white"/>
<g fill="green" transform="translate(100 100) scale(0.1 -0.1)"><path d="M0.0 0.0C-52.0 -47.0 -132.0 -93.0 -206.0 -124.0C-198.0 -129.0 -185.0 -140.0 -180.0 -144.0C-110.0 -111.0 -27.0 -59.0 28.0 -9.0ZM218.0 -15.0C281.0 -53.0 365.0 -108.0 410.0 -143.0L430.0 -120.0C386.0 -88.0 302.0 -33.0 238.0 4.0ZM-106.0 -235.0V-541.0H-76.0V-263.0H297.0V-538.0H326.0V-235.0ZM-92.0 -462.0V-492.0H315.0V-462.0ZM-115.0 78.0V48.0H345.0V78.0ZM108.0 286.0V256.0H413.0V286.0ZM-205.0 175.0V40.0H-175.0V145.0H401.0V40.0H430.0V175.0ZM92.0 352.0V162.0H122.0V352.0ZM108.0 -22.0C38.0 -129.0 -96.0 -224.0 -236.0 -275.0C-228.0 -281.0 -220.0 -291.0 -215.0 -298.0C-73.0 -244.0 62.0 -145.0 134.0 -34.0ZM119.0 -51.0 93.0 -63.0C173.0 -158.0 326.0 -251.0 451.0 -295.0C456.0 -287.0 465.0 -276.0 472.0 -270.0C346.0 -231.0 195.0 -143.0 119.0 -51.0Z"/></g>
<g fill="green" transform="translate(200 100) scale(0.1 -0.1)"><path d="M0.0 0.0C-37.0 -40.0 -106.0 -77.0 -172.0 -101.0C-151.0 -121.0 -116.0 -164.0 -103.0 -183.0C-27.0 -149.0 55.0 -90.0 103.0 -31.0ZM307.0 -56.0C365.0 -91.0 444.0 -144.0 486.0 -177.0L558.0 -107.0C516.0 -77.0 438.0 -27.0 378.0 6.0ZM-38.0 -231.0V-577.0H94.0V-343.0H285.0V-567.0H422.0V-231.0ZM47.0 -431.0V-538.0H354.0V-431.0ZM19.0 90.0V-1.0H359.0V90.0ZM165.0 321.0V231.0H496.0V321.0ZM-140.0 205.0V20.0H-11.0V110.0H394.0V20.0H530.0V205.0ZM83.0 372.0V169.0H227.0V372.0ZM172.0 -10.0C101.0 -112.0 -36.0 -196.0 -168.0 -244.0C-135.0 -271.0 -97.0 -313.0 -77.0 -344.0C68.0 -279.0 205.0 -181.0 294.0 -55.0ZM263.0 -73.0 143.0 -128.0C229.0 -204.0 367.0 -296.0 467.0 -349.0C489.0 -320.0 534.0 -274.0 565.0 -250.0C465.0 -208.0 331.0 -135.0 263.0 -73.0Z"/></g>
<g fill="green" transform="translate(300 100) scale(0.1 -0.1)"><path d="M0.0 0.0C-52.0 -47.0 -132.0 -93.0 -206.0 -124.0C-198.0 -129.0 -185.0 -140.0 -180.0 -144.0C-110.0 -111.0 -27.0 -59.0 28.0 -9.0ZM218.0 -15.0C281.0 -53.0 365.0 -108.0 410.0 -143.0L430.0 -120.0C386.0 -88.0 302.0 -33.0 238.0 4.0ZM-106.0 -235.0V-541.0H-76.0V-263.0H297.0V-538.0H326.0V-235.0ZM-92.0 -462.0V-492.0H315.0V-462.0ZM-115.0 78.0V48.0H345.0V78.0ZM108.0 286.0V256.0H413.0V286.0ZM-205.0 175.0V40.0H-175.0V145.0H401.0V40.0H430.0V175.0ZM92.0 352.0V162.0H122.0V352.0ZM108.0 -22.0C38.0 -129.0 -96.0 -224.0 -236.0 -275.0C-228.0 -281.0 -220.0 -291.0 -215.0 -298.0C-73.0 -244.0 62.0 -145.0 134.0 -34.0ZM119.0 -51.0 93.0 -63.0C173.0 -158.0 326.0 -251.0 451.0 -295.0C456.0 -287.0 465.0 -276.0 472.0 -270.0C346.0 -231.0 195.0 -143.0 119.0 -51.0Z"/></g>
<g fill="green" transform="translate(400 100) scale(0.1 -0.1)"><path d="M0.0 0.0C-37.0 -40.0 -106.0 -77.0 -172.0 -101.0C-151.0 -121.0 -116.0 -164.0 -103.0 -183.0C-27.0 -149.0 55.0 -90.0 103.0 -31.0ZM307.0 -56.0C365.0 -91.0 444.0 -144.0 486.0 -177.0L558.0 -107.0C516.0 -77.0 438.0 -27.0 378.0 6.0ZM-38.0 -231.0V-577.0H94.0V-343.0H285.0V-567.0H422.0V-231.0ZM47.0 -431.0V-538.0H354.0V-431.0ZM19.0 90.0V-1.0H359.0V90.0ZM165.0 321.0V231.0H496.0V321.0ZM-140.0 205.0V20.0H-11.0V110.0H394.0V20.0H530.0V205.0ZM83.0 372.0V169.0H227.0V372.0ZM172.0 -10.0C101.0 -112.0 -36.0 -196.0 -168.0 -244.0C-135.0 -271.0 -97.0 -313.0 -77.0 -344.0C68.0 -279.0 205.0 -181.0 294.0 -55.0ZM263.0 -73.0 143.0 -128.0C229.0 -204.0 367.0 -296.0 467.0 -349.0C489.0 -320.0 534.0 -274.0 565.0 -250.0C465.0 -208.0 331.0 -135.0 263.0 -73.0Z"/></g>
<g fill="red" transform="translate(100 200) scale(0.1 -0.1)"><path d="M0.0 0.0C-52.0 -47.0 -132.0 -93.0 -206.0 -124.0C-198.0 -129.0 -185.0 -140.0 -180.0 -144.0C-110.0 -111.0 -27.0 -59.0 28.0 -9.0ZM218.0 -15.0C281.0 -53.0 365.0 -108.0 410.0 -143.0L430.0 -120.0C386.0 -88.0 302.0 -33.0 238.0 4.0ZM-106.0 -235.0V-541.0H-76.0V-263.0H297.0V-538.0H326.0V-235.0ZM-92.0 -462.0V-492.0H315.0V-462.0ZM-115.0 78.0V48.0H345.0V78.0ZM108.0 286.0V256.0H413.0V286.0ZM-205.0 175.0V40.0H-175.0V145.0H401.0V40.0H430.0V175.0ZM92.0 352.0V162.0H122.0V352.0ZM108.0 -22.0C38.0 -129.0 -96.0 -224.0 -236.0 -275.0C-228.0 -281.0 -220.0 -291.0 -215.0 -298.0C-73.0 -244.0 62.0 -145.0 134.0 -34.0ZM119.0 -51.0 93.0 -63.0C173.0 -158.0 326.0 -251.0 451.0 -295.0C456.0 -287.0 465.0 -276.0 472.0 -270.0C346.0 -231.0 195.0 -143.0 119.0 -51.0Z"/></g>
<g fill="black" opacity=".8" transform="translate(100 200) scale(0.1 -0.1)"><path d="M0.0 0.0C-52.0 -47.0 -132.0 -93.0 -206.0 -124.0C-198.0 -129.0 -185.0 -140.0 -180.0 -144.0C-110.0 -111.0 -27.0 -59.0 28.0 -9.0ZM218.0 -15.0C281.0 -53.0 365.0 -108.0 410.0 -143.0L430.0 -120.0C386.0 -88.0 302.0 -33.0 238.0 4.0ZM-106.0 -235.0V-541.0H-76.0V-263.0H297.0V-538.0H326.0V-235.0ZM-92.0 -462.0V-492.0H315.0V-462.0ZM-115.0 78.0V48.0H345.0V78.0ZM108.0 286.0V256.0H413.0V286.0ZM-205.0 175.0V40.0H-175.0V145.0H401.0V40.0H430.0V175.0ZM92.0 352.0V162.0H122.0V352.0ZM108.0 -22.0C38.0 -129.0 -96.0 -224.0 -236.0 -275.0C-228.0 -281.0 -220.0 -291.0 -215.0 -298.0C-73.0 -244.0 62.0 -145.0 134.0 -34.0ZM119.0 -51.0 93.0 -63.0C173.0 -158.0 326.0 -251.0 451.0 -295.0C456.0 -287.0 465.0 -276.0 472.0 -270.0C346.0 -231.0 195.0 -143.0 119.0 -51.0Z"/></g>
<g fill="red" transform="translate(200 200) scale(0.1 -0.1)"><path d="M0.0 0.0C-37.0 -40.0 -106.0 -77.0 -172.0 -101.0C-151.0 -121.0 -116.0 -164.0 -103.0 -183.0C-27.0 -149.0 55.0 -90.0 103.0 -31.0ZM307.0 -56.0C365.0 -91.0 444.0 -144.0 486.0 -177.0L558.0 -107.0C516.0 -77.0 438.0 -27.0 378.0 6.0ZM-38.0 -231.0V-577.0H94.0V-343.0H285.0V-567.0H422.0V-231.0ZM47.0 -431.0V-538.0H354.0V-431.0ZM19.0 90.0V-1.0H359.0V90.0ZM165.0 321.0V231.0H496.0V321.0ZM-140.0 205.0V20.0H-11.0V110.0H394.0V20.0H530.0V205.0ZM83.0 372.0V169.0H227.0V372.0ZM172.0 -10.0C101.0 -112.0 -36.0 -196.0 -168.0 -244.0C-135.0 -271.0 -97.0 -313.0 -77.0 -344.0C68.0 -279.0 205.0 -181.0 294.0 -55.0ZM263.0 -73.0 143.0 -128.0C229.0 -204.0 367.0 -296.0 467.0 -349.0C489.0 -320.0 534.0 -274.0 565.0 -250.0C465.0 -208.0 331.0 -135.0 263.0 -73.0Z"/></g>
<g fill="black" opacity=".8" transform="translate(200 200) scale(0.1 -0.1)"><path d="M0.0 0.0C-37.0 -40.0 -106.0 -77.0 -172.0 -101.0C-151.0 -121.0 -116.0 -164.0 -103.0 -183.0C-27.0 -149.0 55.0 -90.0 103.0 -31.0ZM307.0 -56.0C365.0 -91.0 444.0 -144.0 486.0 -177.0L558.0 -107.0C516.0 -77.0 438.0 -27.0 378.0 6.0ZM-38.0 -231.0V-577.0H94.0V-343.0H285.0V-567.0H422.0V-231.0ZM47.0 -431.0V-538.0H354.0V-431.0ZM19.0 90.0V-1.0H359.0V90.0ZM165.0 321.0V231.0H496.0V321.0ZM-140.0 205.0V20.0H-11.0V110.0H394.0V20.0H530.0V205.0ZM83.0 372.0V169.0H227.0V372.0ZM172.0 -10.0C101.0 -112.0 -36.0 -196.0 -168.0 -244.0C-135.0 -271.0 -97.0 -313.0 -77.0 -344.0C68.0 -279.0 205.0 -181.0 294.0 -55.0ZM263.0 -73.0 143.0 -128.0C229.0 -204.0 367.0 -296.0 467.0 -349.0C489.0 -320.0 534.0 -274.0 565.0 -250.0C465.0 -208.0 331.0 -135.0 263.0 -73.0Z"/></g>
</svg>
