<?xml version="1.0" encoding="UTF-8"?>
<svg width="1700" height="900" xmlns="http://www.w3.org/2000/svg">
<rect width="100%" height="100%" fill="white"/>
<g fill="green" transform="translate(100 100) scale(0.1 -0.1)"><path d="M-0.0 -0.0V19.0C0.0 -61.0 29.0 -198.0 112.0 -333.0C113.0 -329.0 115.0 -325.0 117.0 -323.0C27.0 -188.0 -4.0 -57.0 -4.0 20.0V0.0Z"/></g>
<g fill="green" transform="translate(200 100) scale(0.1 -0.1)"><path d="M0.0 0.0V-52.0C0.0 -114.0 21.0 -236.0 135.0 -349.0C137.0 -339.0 139.0 -314.0 145.0 -306.0C1.0 -188.0 -30.0 -89.0 -30.0 -47.0V0.0Z"/></g>
<g fill="green" transform="translate(300 100) scale(0.1 -0.1)"><path d="M0.0 0.0V-186.0C0.0 -417.0 17.0 -744.0 -118.0 -1018.0C-111.0 -1018.0 -101.0 -1022.0 -94.0 -1026.0C37.0 -748.0 22.0 -421.0 22.0 -185.0V0.0Z"/></g>
<g fill="green" transform="translate(400 100) scale(0.1 -0.1)"><path d="M0.0 0.0V-287.0C0.0 -479.0 5.0 -764.0 -62.0 -983.0C-31.0 -994.0 13.0 -1012.0 37.0 -1030.0C90.0 -785.0 91.0 -487.0 91.0 -284.0V0.0Z"/></g>
<g fill="green" transform="translate(500 100) scale(0.1 -0.1)"><path d="M0.0 0.0V134.0C0.0 49.0 7.0 -145.0 -268.0 -300.0C-265.0 -301.0 -261.0 -304.0 -259.0 -306.0C12.0 -148.0 8.0 48.0 8.0 135.0V0.0Z"/></g>
<g fill="green" transform="translate(600 100) scale(0.1 -0.1)"><path d="M0.0 0.0V111.0C0.0 43.0 -11.0 -141.0 -260.0 -269.0C-243.0 -280.0 -225.0 -293.0 -216.0 -306.0C17.0 -162.0 59.0 33.0 59.0 112.0V0.0Z"/></g>
<g fill="green" transform="translate(700 100) scale(0.1 -0.1)"><path d="M0.0 0.0V-165.0C0.0 -187.0 32.0 -213.0 90.0 -219.0C86.0 -215.0 79.0 -210.0 77.0 -205.0C14.0 -199.0 -19.0 -180.0 -19.0 -164.0V0.0Z"/></g>
<g fill="green" transform="translate(800 100) scale(0.1 -0.1)"><path d="M0.0 0.0V-228.0C0.0 -265.0 14.0 -291.0 84.0 -297.0C69.0 -285.0 40.0 -253.0 30.0 -235.0C-66.0 -233.0 -82.0 -240.0 -82.0 -222.0V0.0Z"/></g>
<g fill="green" transform="translate(900 100) scale(0.1 -0.1)"><path d="M0.0 0.0V-77.0C0.0 -166.0 9.0 -275.0 79.0 -386.0C85.0 -385.0 93.0 -388.0 97.0 -392.0C25.0 -278.0 16.0 -170.0 16.0 -76.0V0.0Z"/></g>
<g fill="green" transform="translate(1000 100) scale(0.1 -0.1)"><path d="M0.0 0.0V-18.0C0.0 -59.0 16.0 -128.0 143.0 -222.0C161.0 -222.0 192.0 -224.0 209.0 -231.0C66.0 -127.0 41.0 -59.0 41.0 -18.0V0.0Z"/></g>
<g fill="green" transform="translate(1100 100) scale(0.1 -0.1)"><path d="M-0.0 -0.0V68.0C0.0 -19.0 15.0 -172.0 81.0 -324.0C87.0 -323.0 94.0 -322.0 99.0 -324.0C28.0 -170.0 12.0 -22.0 12.0 69.0V0.0Z"/></g>
<g fill="green" transform="translate(1200 100) scale(0.1 -0.1)"><path d="M0.0 0.0V-116.0C0.0 -165.0 15.0 -235.0 142.0 -312.0C156.0 -310.0 178.0 -304.0 192.0 -308.0C50.0 -222.0 26.0 -163.0 26.0 -115.0V0.0Z"/></g>
<g fill="green" transform="translate(1300 100) scale(0.1 -0.1)"><path d="M-0.0 0.0V-4.0C0.0 -86.0 2.0 -182.0 127.0 -292.0C131.0 -289.0 134.0 -287.0 137.0 -287.0C9.0 -179.0 4.0 -84.0 4.0 -3.0V0.0Z"/></g>
<g fill="green" transform="translate(1400 100) scale(0.1 -0.1)"><path d="M0.0 0.0V-17.0C0.0 -98.0 12.0 -238.0 118.0 -362.0C124.0 -356.0 141.0 -354.0 150.0 -357.0C49.0 -226.0 13.0 -84.0 13.0 -14.0V0.0Z"/></g>
<g fill="red" transform="translate(100 200) scale(0.1 -0.1)"><path d="M0.0 0.0V-244.0C0.0 -428.0 -32.0 -646.0 -329.0 -798.0C-321.0 -805.0 -312.0 -814.0 -307.0 -820.0C-6.0 -664.0 29.0 -442.0 29.0 -245.0V0.0Z"/></g>
<g fill="black" opacity=".8" transform="translate(100 200) scale(0.1 -0.1)"><path d="M0.0 0.0V-248.0C0.0 -423.0 -16.0 -646.0 -316.0 -803.0C-307.0 -808.0 -298.0 -819.0 -293.0 -827.0C10.0 -664.0 32.0 -433.0 32.0 -247.0V0.0Z"/></g>
<g fill="red" transform="translate(200 200) scale(0.1 -0.1)"><path d="M0.0 0.0V-251.0C0.0 -402.0 -32.0 -588.0 -264.0 -725.0C-226.0 -753.0 -177.0 -797.0 -151.0 -831.0C103.0 -679.0 145.0 -449.0 145.0 -252.0V0.0Z"/></g>
<g fill="black" opacity=".8" transform="translate(200 200) scale(0.1 -0.1)"><path d="M0.0 0.0V-254.0C0.0 -402.0 -22.0 -593.0 -275.0 -716.0C-239.0 -742.0 -187.0 -797.0 -166.0 -830.0C105.0 -682.0 153.0 -447.0 153.0 -257.0V0.0Z"/></g>
<g fill="red" transform="translate(300 200) scale(0.1 -0.1)"><path d="M0.0 0.0V-155.0C0.0 -277.0 -13.0 -417.0 -135.0 -524.0C-128.0 -528.0 -117.0 -537.0 -113.0 -544.0C15.0 -431.0 30.0 -288.0 30.0 -155.0V0.0Z"/></g>
<g fill="black" opacity=".8" transform="translate(300 200) scale(0.1 -0.1)"><path d="M0.0 0.0V-156.0C0.0 -275.0 -13.0 -416.0 -129.0 -528.0C-120.0 -531.0 -111.0 -539.0 -105.0 -547.0C13.0 -430.0 29.0 -284.0 29.0 -155.0V0.0Z"/></g>
<g fill="red" transform="translate(400 200) scale(0.1 -0.1)"><path d="M0.0 0.0V-155.0C0.0 -238.0 -8.0 -330.0 -61.0 -401.0C-33.0 -419.0 10.0 -458.0 29.0 -483.0C102.0 -392.0 112.0 -269.0 112.0 -158.0V0.0Z"/></g>
<g fill="black" opacity=".8" transform="translate(400 200) scale(0.1 -0.1)"><path d="M0.0 0.0V-159.0C0.0 -238.0 -8.0 -327.0 -70.0 -402.0C-41.0 -418.0 5.0 -456.0 25.0 -481.0C101.0 -388.0 116.0 -271.0 116.0 -162.0V0.0Z"/></g>
<g fill="red" transform="translate(500 200) scale(0.1 -0.1)"><path d="M0.0 0.0V-284.0C0.0 -469.0 -6.0 -709.0 -339.0 -873.0C-333.0 -879.0 -324.0 -890.0 -320.0 -896.0C17.0 -725.0 29.0 -478.0 29.0 -284.0V0.0Z"/></g>
<g fill="black" opacity=".8" transform="translate(500 200) scale(0.1 -0.1)"><path d="M0.0 0.0V-283.0C0.0 -468.0 -11.0 -711.0 -335.0 -875.0C-327.0 -880.0 -320.0 -891.0 -314.0 -898.0C13.0 -727.0 30.0 -478.0 30.0 -282.0V0.0Z"/></g>
<g fill="red" transform="translate(600 200) scale(0.1 -0.1)"><path d="M0.0 0.0V-369.0C0.0 -535.0 -23.0 -728.0 -288.0 -835.0C-254.0 -863.0 -207.0 -918.0 -188.0 -948.0C95.0 -811.0 144.0 -577.0 144.0 -371.0V0.0Z"/></g>
<g fill="black" opacity=".8" transform="translate(600 200) scale(0.1 -0.1)"><path d="M0.0 0.0V-371.0C0.0 -534.0 -23.0 -726.0 -292.0 -835.0C-258.0 -862.0 -212.0 -914.0 -193.0 -947.0C94.0 -811.0 146.0 -580.0 146.0 -373.0V0.0Z"/></g>
<g fill="red" transform="translate(700 200) scale(0.1 -0.1)"><path d="M0.0 0.0V-328.0C0.0 -518.0 -23.0 -703.0 -231.0 -842.0C-223.0 -847.0 -214.0 -856.0 -209.0 -862.0C5.0 -718.0 29.0 -528.0 29.0 -328.0V0.0Z"/></g>
<g fill="black" opacity=".8" transform="translate(700 200) scale(0.1 -0.1)"><path d="M0.0 0.0V-335.0C0.0 -514.0 -21.0 -705.0 -238.0 -838.0C-229.0 -842.0 -222.0 -852.0 -216.0 -860.0C5.0 -722.0 30.0 -523.0 30.0 -334.0V0.0Z"/></g>
<g fill="red" transform="translate(800 200) scale(0.1 -0.1)"><path d="M0.0 0.0V-318.0C0.0 -483.0 -24.0 -673.0 -221.0 -790.0C-189.0 -816.0 -139.0 -873.0 -118.0 -908.0C117.0 -764.0 146.0 -528.0 146.0 -319.0V0.0Z"/></g>
<g fill="black" opacity=".8" transform="translate(800 200) scale(0.1 -0.1)"><path d="M0.0 0.0V-317.0C0.0 -482.0 -20.0 -675.0 -214.0 -797.0C-182.0 -820.0 -131.0 -876.0 -112.0 -909.0C114.0 -762.0 146.0 -523.0 146.0 -319.0V0.0Z"/></g>
<g fill="red" transform="translate(900 200) scale(0.1 -0.1)"><path d="M0.0 0.0V-207.0C0.0 -391.0 -21.0 -603.0 -259.0 -767.0C-251.0 -772.0 -241.0 -780.0 -237.0 -787.0C6.0 -619.0 29.0 -401.0 29.0 -207.0V0.0Z"/></g>
<g fill="black" opacity=".8" transform="translate(900 200) scale(0.1 -0.1)"><path d="M0.0 0.0V-216.0C0.0 -388.0 -20.0 -603.0 -268.0 -762.0C-259.0 -767.0 -250.0 -777.0 -244.0 -785.0C8.0 -620.0 32.0 -398.0 32.0 -215.0V0.0Z"/></g>
<g fill="red" transform="translate(1000 200) scale(0.1 -0.1)"><path d="M0.0 0.0V-241.0C0.0 -392.0 -26.0 -585.0 -240.0 -701.0C-206.0 -728.0 -156.0 -787.0 -134.0 -823.0C120.0 -679.0 153.0 -437.0 153.0 -243.0V0.0Z"/></g>
<g fill="black" opacity=".8" transform="translate(1000 200) scale(0.1 -0.1)"><path d="M0.0 0.0V-241.0C0.0 -391.0 -20.0 -584.0 -235.0 -711.0C-200.0 -735.0 -146.0 -790.0 -125.0 -824.0C115.0 -671.0 153.0 -433.0 153.0 -244.0V0.0Z"/></g>
<g fill="red" transform="translate(1100 200) scale(0.1 -0.1)"><path d="M0.0 0.0V-116.0C0.0 -214.0 -24.0 -341.0 -146.0 -435.0C-139.0 -440.0 -130.0 -450.0 -126.0 -457.0C2.0 -358.0 30.0 -221.0 30.0 -116.0V0.0Z"/></g>
<g fill="black" opacity=".8" transform="translate(1100 200) scale(0.1 -0.1)"><path d="M0.0 0.0V-112.0C0.0 -219.0 -26.0 -338.0 -149.0 -436.0C-139.0 -440.0 -130.0 -449.0 -124.0 -457.0C2.0 -355.0 31.0 -229.0 31.0 -111.0V0.0Z"/></g>
<g fill="red" transform="translate(1200 200) scale(0.1 -0.1)"><path d="M0.0 0.0V-77.0C0.0 -155.0 -11.0 -258.0 -111.0 -335.0C-85.0 -353.0 -30.0 -408.0 -11.0 -435.0C107.0 -340.0 134.0 -191.0 134.0 -80.0V0.0Z"/></g>
<g fill="black" opacity=".8" transform="translate(1200 200) scale(0.1 -0.1)"><path d="M0.0 0.0V-77.0C0.0 -156.0 -14.0 -258.0 -113.0 -339.0C-83.0 -357.0 -32.0 -404.0 -12.0 -434.0C114.0 -334.0 133.0 -193.0 133.0 -82.0V0.0Z"/></g>
<g fill="red" transform="translate(1300 200) scale(0.1 -0.1)"><path d="M0.0 0.0V-141.0C0.0 -363.0 -20.0 -654.0 -374.0 -881.0C-367.0 -886.0 -357.0 -895.0 -353.0 -902.0C6.0 -671.0 30.0 -370.0 30.0 -141.0V0.0Z"/></g>
<g fill="black" opacity=".8" transform="translate(1300 200) scale(0.1 -0.1)"><path d="M0.0 0.0V-150.0C0.0 -354.0 -12.0 -654.0 -373.0 -881.0C-364.0 -885.0 -354.0 -895.0 -347.0 -903.0C15.0 -671.0 33.0 -364.0 33.0 -149.0V0.0Z"/></g>
<g fill="red" transform="translate(1400 200) scale(0.1 -0.1)"><path d="M0.0 0.0V-225.0C0.0 -410.0 -30.0 -683.0 -329.0 -835.0C-293.0 -861.0 -238.0 -918.0 -214.0 -954.0C120.0 -773.0 155.0 -451.0 155.0 -225.0V0.0Z"/></g>
<g fill="black" opacity=".8" transform="translate(1400 200) scale(0.1 -0.1)"><path d="M0.0 0.0V-232.0C0.0 -408.0 -24.0 -670.0 -335.0 -840.0C-295.0 -868.0 -240.0 -923.0 -217.0 -958.0C109.0 -757.0 163.0 -451.0 163.0 -233.0V0.0Z"/></g>
<g fill="red" transform="translate(1500 200) scale(0.1 -0.1)"><path d="M0.0 0.0V-217.0C0.0 -336.0 -13.0 -452.0 -122.0 -540.0C-114.0 -545.0 -104.0 -554.0 -99.0 -561.0C14.0 -467.0 29.0 -345.0 29.0 -217.0V0.0Z"/></g>
<g fill="black" opacity=".8" transform="translate(1500 200) scale(0.1 -0.1)"><path d="M0.0 0.0V-219.0C0.0 -334.0 -13.0 -453.0 -121.0 -542.0C-113.0 -545.0 -105.0 -553.0 -100.0 -560.0C10.0 -467.0 27.0 -343.0 27.0 -218.0V0.0Z"/></g>
<g fill="red" transform="translate(1600 200) scale(0.1 -0.1)"><path d="M0.0 0.0V-169.0C0.0 -252.0 -9.0 -340.0 -71.0 -405.0C-43.0 -421.0 1.0 -457.0 21.0 -480.0C96.0 -397.0 107.0 -282.0 107.0 -172.0V0.0Z"/></g>
<g fill="black" opacity=".8" transform="translate(1600 200) scale(0.1 -0.1)"><path d="M0.0 0.0V-171.0C0.0 -252.0 -8.0 -336.0 -69.0 -406.0C-42.0 -421.0 1.0 -459.0 19.0 -482.0C94.0 -395.0 109.0 -283.0 109.0 -173.0V0.0Z"/></g>
<g fill="red" transform="translate(100 300) scale(0.1 -0.1)"><path d="M0.0 0.0V-322.0C0.0 -504.0 -6.0 -731.0 -328.0 -877.0C-321.0 -883.0 -312.0 -894.0 -308.0 -900.0C17.0 -748.0 29.0 -512.0 29.0 -322.0V0.0Z"/></g>
<g fill="black" opacity=".8" transform="translate(100 300) scale(0.1 -0.1)"><path d="M0.0 0.0V-322.0C0.0 -505.0 -14.0 -730.0 -329.0 -878.0C-322.0 -883.0 -316.0 -893.0 -310.0 -900.0C9.0 -746.0 28.0 -514.0 28.0 -321.0V0.0Z"/></g>
<g fill="red" transform="translate(200 300) scale(0.1 -0.1)"><path d="M0.0 0.0V-348.0C0.0 -516.0 -21.0 -718.0 -307.0 -839.0C-273.0 -866.0 -226.0 -920.0 -206.0 -950.0C90.0 -800.0 144.0 -556.0 144.0 -350.0V0.0Z"/></g>
<g fill="black" opacity=".8" transform="translate(200 300) scale(0.1 -0.1)"><path d="M0.0 0.0V-346.0C0.0 -515.0 -24.0 -720.0 -301.0 -838.0C-269.0 -864.0 -225.0 -918.0 -207.0 -950.0C91.0 -805.0 142.0 -558.0 142.0 -348.0V0.0Z"/></g>
<g fill="red" transform="translate(300 300) scale(0.1 -0.1)"><path d="M0.0 0.0V-37.0C0.0 -161.0 -13.0 -341.0 -252.0 -477.0C-244.0 -482.0 -234.0 -490.0 -229.0 -497.0C12.0 -356.0 30.0 -172.0 30.0 -36.0V0.0Z"/></g>
<g fill="black" opacity=".8" transform="translate(300 300) scale(0.1 -0.1)"><path d="M0.0 0.0V-39.0C0.0 -159.0 -19.0 -338.0 -251.0 -478.0C-241.0 -483.0 -232.0 -492.0 -226.0 -499.0C7.0 -354.0 31.0 -170.0 31.0 -38.0V0.0Z"/></g>
<g fill="red" transform="translate(400 300) scale(0.1 -0.1)"><path d="M0.0 0.0V-87.0C0.0 -181.0 -21.0 -311.0 -204.0 -397.0C-172.0 -421.0 -125.0 -469.0 -105.0 -500.0C109.0 -391.0 136.0 -217.0 136.0 -91.0V0.0Z"/></g>
<g fill="black" opacity=".8" transform="translate(400 300) scale(0.1 -0.1)"><path d="M0.0 0.0V-90.0C0.0 -178.0 -18.0 -309.0 -207.0 -400.0C-175.0 -422.0 -126.0 -469.0 -106.0 -499.0C101.0 -386.0 139.0 -219.0 139.0 -94.0V0.0Z"/></g>
<g fill="red" transform="translate(500 300) scale(0.1 -0.1)"><path d="M0.0 0.0V-33.0C0.0 -120.0 -17.0 -244.0 -269.0 -326.0C-262.0 -332.0 -252.0 -340.0 -248.0 -348.0C9.0 -261.0 29.0 -133.0 29.0 -33.0V0.0Z"/></g>
<g fill="black" opacity=".8" transform="translate(500 300) scale(0.1 -0.1)"><path d="M0.0 0.0V-36.0C0.0 -120.0 -27.0 -241.0 -271.0 -327.0C-262.0 -332.0 -255.0 -341.0 -250.0 -349.0C-3.0 -259.0 28.0 -130.0 28.0 -35.0V0.0Z"/></g>
<g fill="red" transform="translate(600 300) scale(0.1 -0.1)"><path d="M0.0 0.0V-51.0C0.0 -115.0 -27.0 -205.0 -247.0 -256.0C-217.0 -280.0 -175.0 -329.0 -158.0 -361.0C100.0 -291.0 135.0 -154.0 135.0 -57.0V0.0Z"/></g>
<g fill="black" opacity=".8" transform="translate(600 300) scale(0.1 -0.1)"><path d="M0.0 0.0V-51.0C0.0 -114.0 -24.0 -204.0 -244.0 -258.0C-216.0 -280.0 -172.0 -331.0 -157.0 -361.0C90.0 -289.0 136.0 -159.0 136.0 -55.0V0.0Z"/></g>
<g fill="red" transform="translate(700 300) scale(0.1 -0.1)"><path d="M0.0 0.0V-304.0C0.0 -521.0 -39.0 -735.0 -426.0 -881.0C-419.0 -887.0 -411.0 -898.0 -408.0 -905.0C-12.0 -755.0 30.0 -531.0 30.0 -304.0V0.0Z"/></g>
<g fill="black" opacity=".8" transform="translate(700 300) scale(0.1 -0.1)"><path d="M0.0 0.0V-323.0C0.0 -505.0 -19.0 -736.0 -426.0 -879.0C-418.0 -884.0 -412.0 -897.0 -407.0 -905.0C4.0 -755.0 30.0 -515.0 30.0 -322.0V0.0Z"/></g>
<g fill="red" transform="translate(800 300) scale(0.1 -0.1)"><path d="M0.0 0.0V-322.0C0.0 -506.0 -43.0 -723.0 -397.0 -818.0C-366.0 -848.0 -321.0 -911.0 -304.0 -947.0C100.0 -830.0 153.0 -559.0 153.0 -323.0V0.0Z"/></g>
<g fill="black" opacity=".8" transform="translate(800 300) scale(0.1 -0.1)"><path d="M0.0 0.0V-331.0C0.0 -500.0 -33.0 -711.0 -401.0 -824.0C-366.0 -856.0 -319.0 -919.0 -301.0 -956.0C92.0 -814.0 162.0 -553.0 162.0 -333.0V0.0Z"/></g>
<g fill="red" transform="translate(900 300) scale(0.1 -0.1)"><path d="M0.0 0.0V-123.0C0.0 -309.0 -17.0 -549.0 -292.0 -739.0C-284.0 -743.0 -274.0 -752.0 -269.0 -758.0C8.0 -564.0 30.0 -317.0 30.0 -123.0V0.0Z"/></g>
<g fill="black" opacity=".8" transform="translate(900 300) scale(0.1 -0.1)"><path d="M0.0 0.0V-127.0C0.0 -303.0 -13.0 -550.0 -283.0 -743.0C-275.0 -747.0 -266.0 -755.0 -261.0 -761.0C10.0 -564.0 27.0 -310.0 27.0 -126.0V0.0Z"/></g>
<g fill="red" transform="translate(1000 300) scale(0.1 -0.1)"><path d="M0.0 0.0V-121.0C0.0 -283.0 -23.0 -541.0 -254.0 -709.0C-224.0 -731.0 -177.0 -777.0 -157.0 -807.0C102.0 -610.0 129.0 -313.0 129.0 -122.0V0.0Z"/></g>
<g fill="black" opacity=".8" transform="translate(1000 300) scale(0.1 -0.1)"><path d="M0.0 0.0V-126.0C0.0 -283.0 -18.0 -535.0 -265.0 -709.0C-232.0 -730.0 -184.0 -776.0 -163.0 -806.0C99.0 -606.0 136.0 -314.0 136.0 -127.0V0.0Z"/></g>
<g fill="red" transform="translate(1100 300) scale(0.1 -0.1)"><path d="M0.0 0.0V-50.0C0.0 -242.0 -14.0 -522.0 -269.0 -739.0C-260.0 -742.0 -249.0 -750.0 -243.0 -755.0C13.0 -536.0 29.0 -249.0 29.0 -49.0V0.0Z"/></g>
<g fill="black" opacity=".8" transform="translate(1100 300) scale(0.1 -0.1)"><path d="M0.0 0.0V-55.0C0.0 -240.0 -7.0 -516.0 -263.0 -744.0C-255.0 -746.0 -245.0 -753.0 -239.0 -759.0C15.0 -528.0 26.0 -246.0 26.0 -54.0V0.0Z"/></g>
<g fill="red" transform="translate(1200 300) scale(0.1 -0.1)"><path d="M0.0 0.0V-91.0C0.0 -259.0 -19.0 -532.0 -233.0 -721.0C-202.0 -741.0 -155.0 -784.0 -134.0 -813.0C101.0 -594.0 124.0 -284.0 124.0 -92.0V0.0Z"/></g>
<g fill="black" opacity=".8" transform="translate(1200 300) scale(0.1 -0.1)"><path d="M0.0 0.0V-97.0C0.0 -257.0 -14.0 -529.0 -240.0 -724.0C-207.0 -743.0 -158.0 -783.0 -136.0 -811.0C99.0 -590.0 131.0 -283.0 131.0 -97.0V0.0Z"/></g>
<g fill="red" transform="translate(1300 300) scale(0.1 -0.1)"><path d="M0.0 0.0V-247.0C0.0 -425.0 -11.0 -622.0 -124.0 -786.0C-116.0 -790.0 -105.0 -797.0 -100.0 -804.0C17.0 -635.0 29.0 -434.0 29.0 -247.0V0.0Z"/></g>
<g fill="black" opacity=".8" transform="translate(1300 300) scale(0.1 -0.1)"><path d="M0.0 0.0V-252.0C0.0 -425.0 -12.0 -622.0 -134.0 -781.0C-125.0 -784.0 -114.0 -793.0 -108.0 -801.0C16.0 -637.0 32.0 -434.0 32.0 -251.0V0.0Z"/></g>
<g fill="red" transform="translate(1400 300) scale(0.1 -0.1)"><path d="M0.0 0.0V-218.0C0.0 -356.0 -9.0 -523.0 -88.0 -656.0C-55.0 -677.0 -4.0 -725.0 19.0 -755.0C122.0 -593.0 134.0 -388.0 134.0 -219.0V0.0Z"/></g>
<g fill="black" opacity=".8" transform="translate(1400 300) scale(0.1 -0.1)"><path d="M0.0 0.0V-217.0C0.0 -353.0 -7.0 -527.0 -82.0 -665.0C-48.0 -683.0 6.0 -725.0 30.0 -754.0C121.0 -592.0 131.0 -384.0 131.0 -218.0V0.0Z"/></g>
<g fill="red" transform="translate(1500 300) scale(0.1 -0.1)"><path d="M0.0 0.0V-229.0C0.0 -390.0 -8.0 -626.0 -264.0 -786.0C-257.0 -792.0 -247.0 -802.0 -242.0 -808.0C17.0 -639.0 29.0 -399.0 29.0 -229.0V0.0Z"/></g>
<g fill="black" opacity=".8" transform="translate(1500 300) scale(0.1 -0.1)"><path d="M0.0 0.0V-225.0C0.0 -398.0 -12.0 -623.0 -267.0 -787.0C-258.0 -791.0 -250.0 -800.0 -244.0 -808.0C13.0 -638.0 29.0 -407.0 29.0 -224.0V0.0Z"/></g>
<g fill="red" transform="translate(1600 300) scale(0.1 -0.1)"><path d="M0.0 0.0V-259.0C0.0 -398.0 -16.0 -594.0 -228.0 -717.0C-193.0 -742.0 -146.0 -791.0 -125.0 -820.0C99.0 -668.0 141.0 -437.0 141.0 -260.0V0.0Z"/></g>
<g fill="black" opacity=".8" transform="translate(1600 300) scale(0.1 -0.1)"><path d="M0.0 0.0V-256.0C0.0 -402.0 -17.0 -593.0 -225.0 -719.0C-192.0 -742.0 -144.0 -790.0 -123.0 -820.0C100.0 -668.0 138.0 -440.0 138.0 -257.0V0.0Z"/></g>
<g fill="red" transform="translate(100 400) scale(0.1 -0.1)"><path d="M0.0 0.0V-295.0C0.0 -478.0 -5.0 -719.0 -315.0 -881.0C-308.0 -887.0 -299.0 -897.0 -295.0 -904.0C19.0 -735.0 30.0 -487.0 30.0 -295.0V0.0Z"/></g>
<g fill="black" opacity=".8" transform="translate(100 400) scale(0.1 -0.1)"><path d="M0.0 0.0V-292.0C0.0 -479.0 -9.0 -720.0 -308.0 -885.0C-300.0 -890.0 -293.0 -899.0 -288.0 -906.0C14.0 -735.0 28.0 -487.0 28.0 -291.0V0.0Z"/></g>
<g fill="red" transform="translate(200 400) scale(0.1 -0.1)"><path d="M0.0 0.0V-368.0C0.0 -535.0 -16.0 -737.0 -262.0 -851.0C-230.0 -876.0 -185.0 -926.0 -166.0 -955.0C87.0 -811.0 134.0 -573.0 134.0 -369.0V0.0Z"/></g>
<g fill="black" opacity=".8" transform="translate(200 400) scale(0.1 -0.1)"><path d="M0.0 0.0V-370.0C0.0 -536.0 -21.0 -733.0 -268.0 -849.0C-235.0 -874.0 -192.0 -923.0 -173.0 -953.0C89.0 -810.0 136.0 -577.0 136.0 -371.0V0.0Z"/></g>
<g fill="red" transform="translate(300 400) scale(0.1 -0.1)"><path d="M0.0 0.0V-333.0C0.0 -512.0 -5.0 -737.0 -320.0 -877.0C-313.0 -884.0 -304.0 -894.0 -300.0 -900.0C18.0 -752.0 30.0 -521.0 30.0 -332.0V0.0Z"/></g>
<g fill="black" opacity=".8" transform="translate(300 400) scale(0.1 -0.1)"><path d="M0.0 0.0V-329.0C0.0 -512.0 -14.0 -735.0 -312.0 -882.0C-303.0 -887.0 -296.0 -898.0 -291.0 -905.0C11.0 -752.0 30.0 -522.0 30.0 -328.0V0.0Z"/></g>
<g fill="red" transform="translate(400 400) scale(0.1 -0.1)"><path d="M0.0 0.0V-378.0C0.0 -542.0 -19.0 -732.0 -264.0 -835.0C-230.0 -862.0 -183.0 -918.0 -163.0 -948.0C92.0 -814.0 145.0 -585.0 145.0 -380.0V0.0Z"/></g>
<g fill="black" opacity=".8" transform="translate(400 400) scale(0.1 -0.1)"><path d="M0.0 0.0V-381.0C0.0 -544.0 -23.0 -727.0 -271.0 -833.0C-238.0 -859.0 -191.0 -913.0 -173.0 -945.0C98.0 -814.0 145.0 -590.0 145.0 -383.0V0.0Z"/></g>
<g fill="red" transform="translate(500 400) scale(0.1 -0.1)"><path d="M0.0 0.0V-185.0C0.0 -310.0 -13.0 -442.0 -134.0 -544.0C-126.0 -549.0 -116.0 -558.0 -111.0 -565.0C13.0 -457.0 29.0 -320.0 29.0 -185.0V0.0Z"/></g>
<g fill="black" opacity=".8" transform="translate(500 400) scale(0.1 -0.1)"><path d="M0.0 0.0V-189.0C0.0 -307.0 -11.0 -442.0 -134.0 -545.0C-126.0 -548.0 -117.0 -557.0 -113.0 -564.0C12.0 -456.0 27.0 -316.0 27.0 -188.0V0.0Z"/></g>
<g fill="red" transform="translate(600 400) scale(0.1 -0.1)"><path d="M0.0 0.0V-155.0C0.0 -241.0 -10.0 -335.0 -80.0 -405.0C-52.0 -421.0 -8.0 -457.0 12.0 -480.0C96.0 -392.0 108.0 -270.0 108.0 -158.0V0.0Z"/></g>
<g fill="black" opacity=".8" transform="translate(600 400) scale(0.1 -0.1)"><path d="M0.0 0.0V-158.0C0.0 -239.0 -7.0 -331.0 -79.0 -407.0C-51.0 -423.0 -7.0 -459.0 12.0 -483.0C94.0 -389.0 110.0 -270.0 110.0 -160.0V0.0Z"/></g>
<g fill="red" transform="translate(700 400) scale(0.1 -0.1)"><path d="M0.0 0.0V-206.0C0.0 -387.0 -17.0 -598.0 -204.0 -767.0C-197.0 -771.0 -187.0 -779.0 -182.0 -786.0C10.0 -613.0 29.0 -397.0 29.0 -205.0V0.0Z"/></g>
<g fill="black" opacity=".8" transform="translate(700 400) scale(0.1 -0.1)"><path d="M0.0 0.0V-210.0C0.0 -385.0 -17.0 -599.0 -208.0 -766.0C-198.0 -769.0 -189.0 -778.0 -183.0 -786.0C10.0 -614.0 31.0 -394.0 31.0 -209.0V0.0Z"/></g>
<g fill="red" transform="translate(800 400) scale(0.1 -0.1)"><path d="M0.0 0.0V-224.0C0.0 -379.0 -17.0 -574.0 -177.0 -713.0C-142.0 -735.0 -89.0 -785.0 -65.0 -816.0C121.0 -650.0 142.0 -414.0 142.0 -225.0V0.0Z"/></g>
<g fill="black" opacity=".8" transform="translate(800 400) scale(0.1 -0.1)"><path d="M0.0 0.0V-225.0C0.0 -376.0 -15.0 -575.0 -174.0 -715.0C-140.0 -736.0 -87.0 -785.0 -64.0 -817.0C118.0 -651.0 142.0 -411.0 142.0 -227.0V0.0Z"/></g>
<g fill="red" transform="translate(900 400) scale(0.1 -0.1)"><path d="M0.0 0.0V-228.0C0.0 -413.0 -31.0 -639.0 -329.0 -798.0C-321.0 -805.0 -311.0 -814.0 -306.0 -819.0C-5.0 -656.0 30.0 -426.0 30.0 -228.0V0.0Z"/></g>
<g fill="black" opacity=".8" transform="translate(900 400) scale(0.1 -0.1)"><path d="M0.0 0.0V-232.0C0.0 -408.0 -15.0 -638.0 -319.0 -802.0C-310.0 -807.0 -302.0 -817.0 -296.0 -825.0C11.0 -656.0 32.0 -418.0 32.0 -231.0V0.0Z"/></g>
<g fill="red" transform="translate(1000 400) scale(0.1 -0.1)"><path d="M0.0 0.0V-250.0C0.0 -402.0 -33.0 -589.0 -269.0 -725.0C-231.0 -753.0 -182.0 -797.0 -156.0 -832.0C102.0 -680.0 145.0 -449.0 145.0 -252.0V0.0Z"/></g>
<g fill="black" opacity=".8" transform="translate(1000 400) scale(0.1 -0.1)"><path d="M0.0 0.0V-254.0C0.0 -401.0 -22.0 -595.0 -276.0 -718.0C-240.0 -744.0 -189.0 -798.0 -168.0 -832.0C104.0 -681.0 152.0 -446.0 152.0 -256.0V0.0Z"/></g>
<g fill="red" transform="translate(1100 400) scale(0.1 -0.1)"><path d="M0.0 0.0V-322.0C0.0 -502.0 -5.0 -731.0 -317.0 -877.0C-311.0 -883.0 -302.0 -894.0 -297.0 -900.0C18.0 -747.0 30.0 -511.0 30.0 -322.0V0.0Z"/></g>
<g fill="black" opacity=".8" transform="translate(1100 400) scale(0.1 -0.1)"><path d="M0.0 0.0V-321.0C0.0 -504.0 -14.0 -730.0 -317.0 -879.0C-309.0 -884.0 -302.0 -894.0 -297.0 -901.0C10.0 -746.0 29.0 -513.0 29.0 -320.0V0.0Z"/></g>
<g fill="red" transform="translate(1200 400) scale(0.1 -0.1)"><path d="M0.0 0.0V-373.0C0.0 -539.0 -23.0 -733.0 -283.0 -839.0C-249.0 -867.0 -203.0 -921.0 -184.0 -952.0C98.0 -816.0 143.0 -581.0 143.0 -374.0V0.0Z"/></g>
<g fill="black" opacity=".8" transform="translate(1200 400) scale(0.1 -0.1)"><path d="M0.0 0.0V-373.0C0.0 -539.0 -23.0 -731.0 -282.0 -840.0C-249.0 -866.0 -204.0 -920.0 -186.0 -952.0C94.0 -816.0 143.0 -584.0 143.0 -375.0V0.0Z"/></g>
<g fill="red" transform="translate(1300 400) scale(0.1 -0.1)"><path d="M0.0 0.0V-331.0C0.0 -507.0 -6.0 -733.0 -299.0 -873.0C-292.0 -879.0 -283.0 -890.0 -279.0 -896.0C18.0 -748.0 30.0 -516.0 30.0 -331.0V0.0Z"/></g>
<g fill="black" opacity=".8" transform="translate(1300 400) scale(0.1 -0.1)"><path d="M0.0 0.0V-329.0C0.0 -511.0 -14.0 -730.0 -301.0 -875.0C-293.0 -879.0 -286.0 -889.0 -281.0 -896.0C10.0 -745.0 29.0 -520.0 29.0 -328.0V0.0Z"/></g>
<g fill="red" transform="translate(1400 400) scale(0.1 -0.1)"><path d="M0.0 0.0V-367.0C0.0 -530.0 -21.0 -724.0 -271.0 -831.0C-237.0 -858.0 -192.0 -912.0 -172.0 -942.0C95.0 -805.0 142.0 -572.0 142.0 -368.0V0.0Z"/></g>
<g fill="black" opacity=".8" transform="translate(1400 400) scale(0.1 -0.1)"><path d="M0.0 0.0V-366.0C0.0 -531.0 -22.0 -722.0 -267.0 -833.0C-235.0 -858.0 -190.0 -911.0 -172.0 -942.0C95.0 -805.0 140.0 -574.0 140.0 -368.0V0.0Z"/></g>
<g fill="red" transform="translate(1500 400) scale(0.1 -0.1)"><path d="M0.0 0.0V-209.0C0.0 -380.0 -8.0 -622.0 -312.0 -798.0C-306.0 -804.0 -297.0 -814.0 -292.0 -820.0C17.0 -637.0 30.0 -388.0 30.0 -209.0V0.0Z"/></g>
<g fill="black" opacity=".8" transform="translate(1500 400) scale(0.1 -0.1)"><path d="M0.0 0.0V-207.0C0.0 -383.0 -11.0 -622.0 -318.0 -797.0C-309.0 -801.0 -300.0 -812.0 -294.0 -820.0C14.0 -639.0 31.0 -393.0 31.0 -206.0V0.0Z"/></g>
<g fill="red" transform="translate(1600 400) scale(0.1 -0.1)"><path d="M0.0 0.0V-186.0C0.0 -321.0 -15.0 -529.0 -278.0 -677.0C-240.0 -702.0 -189.0 -752.0 -166.0 -783.0C104.0 -607.0 151.0 -359.0 151.0 -188.0V0.0Z"/></g>
<g fill="black" opacity=".8" transform="translate(1600 400) scale(0.1 -0.1)"><path d="M0.0 0.0V-180.0C0.0 -323.0 -19.0 -532.0 -273.0 -676.0C-237.0 -701.0 -185.0 -751.0 -163.0 -783.0C101.0 -612.0 148.0 -363.0 148.0 -182.0V0.0Z"/></g>
<g fill="red" transform="translate(100 500) scale(0.1 -0.1)"><path d="M0.0 0.0V-284.0C0.0 -468.0 -6.0 -708.0 -322.0 -873.0C-316.0 -879.0 -307.0 -890.0 -303.0 -896.0C18.0 -724.0 29.0 -476.0 29.0 -284.0V0.0Z"/></g>
<g fill="black" opacity=".8" transform="translate(100 500) scale(0.1 -0.1)"><path d="M0.0 0.0V-283.0C0.0 -468.0 -11.0 -710.0 -322.0 -874.0C-313.0 -879.0 -306.0 -889.0 -300.0 -896.0C13.0 -725.0 30.0 -478.0 30.0 -282.0V0.0Z"/></g>
<g fill="red" transform="translate(200 500) scale(0.1 -0.1)"><path d="M0.0 0.0V-369.0C0.0 -534.0 -22.0 -728.0 -278.0 -835.0C-244.0 -863.0 -198.0 -917.0 -178.0 -948.0C96.0 -810.0 144.0 -576.0 144.0 -371.0V0.0Z"/></g>
<g fill="black" opacity=".8" transform="translate(200 500) scale(0.1 -0.1)"><path d="M0.0 0.0V-370.0C0.0 -534.0 -22.0 -726.0 -279.0 -837.0C-245.0 -863.0 -199.0 -915.0 -180.0 -947.0C95.0 -809.0 144.0 -578.0 144.0 -372.0V0.0Z"/></g>
<g fill="red" transform="translate(300 500) scale(0.1 -0.1)"><path d="M0.0 0.0V-237.0C0.0 -437.0 -17.0 -686.0 -210.0 -879.0C-201.0 -884.0 -190.0 -890.0 -184.0 -896.0C10.0 -698.0 30.0 -445.0 30.0 -237.0V0.0Z"/></g>
<g fill="black" opacity=".8" transform="translate(300 500) scale(0.1 -0.1)"><path d="M0.0 0.0V-242.0C0.0 -434.0 -5.0 -687.0 -211.0 -878.0C-202.0 -881.0 -194.0 -888.0 -187.0 -895.0C20.0 -699.0 29.0 -443.0 29.0 -241.0V0.0Z"/></g>
<g fill="red" transform="translate(400 500) scale(0.1 -0.1)"><path d="M0.0 0.0V-371.0C0.0 -524.0 -17.0 -733.0 -162.0 -856.0C-132.0 -874.0 -83.0 -914.0 -61.0 -939.0C102.0 -798.0 126.0 -561.0 126.0 -371.0V0.0Z"/></g>
<g fill="black" opacity=".8" transform="translate(400 500) scale(0.1 -0.1)"><path d="M0.0 0.0V-367.0C0.0 -531.0 -12.0 -727.0 -160.0 -856.0C-128.0 -876.0 -81.0 -918.0 -60.0 -945.0C101.0 -791.0 127.0 -565.0 127.0 -368.0V0.0Z"/></g>
<g fill="red" transform="translate(500 500) scale(0.1 -0.1)"><path d="M0.0 0.0V-239.0C0.0 -371.0 -16.0 -502.0 -145.0 -600.0C-138.0 -605.0 -128.0 -614.0 -124.0 -621.0C11.0 -517.0 29.0 -382.0 29.0 -239.0V0.0Z"/></g>
<g fill="black" opacity=".8" transform="translate(500 500) scale(0.1 -0.1)"><path d="M0.0 0.0V-243.0C0.0 -368.0 -12.0 -503.0 -145.0 -600.0C-137.0 -604.0 -128.0 -613.0 -123.0 -621.0C13.0 -518.0 29.0 -378.0 29.0 -242.0V0.0Z"/></g>
<g fill="red" transform="translate(600 500) scale(0.1 -0.1)"><path d="M0.0 0.0V-206.0C0.0 -293.0 -11.0 -379.0 -83.0 -442.0C-54.0 -459.0 -8.0 -497.0 12.0 -522.0C100.0 -442.0 113.0 -325.0 113.0 -208.0V0.0Z"/></g>
<g fill="black" opacity=".8" transform="translate(600 500) scale(0.1 -0.1)"><path d="M0.0 0.0V-207.0C0.0 -292.0 -8.0 -375.0 -83.0 -443.0C-53.0 -461.0 -8.0 -500.0 11.0 -524.0C97.0 -438.0 116.0 -327.0 116.0 -210.0V0.0Z"/></g>
<g fill="red" transform="translate(700 500) scale(0.1 -0.1)"><path d="M0.0 0.0V-327.0C0.0 -530.0 -30.0 -727.0 -309.0 -869.0C-301.0 -875.0 -293.0 -885.0 -289.0 -891.0C-3.0 -744.0 29.0 -540.0 29.0 -327.0V0.0Z"/></g>
<g fill="black" opacity=".8" transform="translate(700 500) scale(0.1 -0.1)"><path d="M0.0 0.0V-335.0C0.0 -517.0 -18.0 -730.0 -299.0 -872.0C-290.0 -877.0 -282.0 -888.0 -277.0 -896.0C8.0 -748.0 32.0 -528.0 32.0 -334.0V0.0Z"/></g>
<g fill="red" transform="translate(800 500) scale(0.1 -0.1)"><path d="M0.0 0.0V-365.0C0.0 -541.0 -26.0 -722.0 -252.0 -831.0C-220.0 -855.0 -170.0 -911.0 -149.0 -944.0C111.0 -812.0 143.0 -584.0 143.0 -366.0V0.0Z"/></g>
<g fill="black" opacity=".8" transform="translate(800 500) scale(0.1 -0.1)"><path d="M0.0 0.0V-371.0C0.0 -536.0 -23.0 -720.0 -263.0 -826.0C-228.0 -853.0 -179.0 -910.0 -160.0 -944.0C107.0 -811.0 152.0 -583.0 152.0 -374.0V0.0Z"/></g>
<g fill="red" transform="translate(900 500) scale(0.1 -0.1)"><path d="M0.0 0.0V-298.0C0.0 -477.0 -6.0 -713.0 -299.0 -869.0C-292.0 -875.0 -283.0 -885.0 -278.0 -892.0C17.0 -728.0 29.0 -486.0 29.0 -298.0V0.0Z"/></g>
<g fill="black" opacity=".8" transform="translate(900 500) scale(0.1 -0.1)"><path d="M0.0 0.0V-292.0C0.0 -478.0 -11.0 -712.0 -287.0 -876.0C-279.0 -880.0 -271.0 -890.0 -265.0 -897.0C14.0 -728.0 30.0 -488.0 30.0 -291.0V0.0Z"/></g>
<g fill="red" transform="translate(1000 500) scale(0.1 -0.1)"><path d="M0.0 0.0V-358.0C0.0 -518.0 -15.0 -716.0 -228.0 -827.0C-195.0 -852.0 -149.0 -904.0 -129.0 -933.0C95.0 -791.0 139.0 -559.0 139.0 -359.0V0.0Z"/></g>
<g fill="black" opacity=".8" transform="translate(1000 500) scale(0.1 -0.1)"><path d="M0.0 0.0V-361.0C0.0 -522.0 -19.0 -709.0 -241.0 -823.0C-207.0 -848.0 -160.0 -898.0 -140.0 -929.0C99.0 -789.0 142.0 -565.0 142.0 -363.0V0.0Z"/></g>
<g fill="red" transform="translate(1100 500) scale(0.1 -0.1)"><path d="M0.0 0.0V-351.0C0.0 -533.0 -28.0 -735.0 -291.0 -876.0C-284.0 -881.0 -275.0 -892.0 -272.0 -899.0C-4.0 -754.0 29.0 -538.0 29.0 -352.0V0.0Z"/></g>
<g fill="black" opacity=".8" transform="translate(1100 500) scale(0.1 -0.1)"><path d="M0.0 0.0V-352.0C0.0 -534.0 -18.0 -739.0 -294.0 -874.0C-286.0 -878.0 -280.0 -888.0 -275.0 -895.0C5.0 -755.0 28.0 -542.0 28.0 -351.0V0.0Z"/></g>
<g fill="red" transform="translate(1200 500) scale(0.1 -0.1)"><path d="M0.0 0.0V-348.0C0.0 -514.0 -21.0 -714.0 -271.0 -839.0C-247.0 -862.0 -204.0 -926.0 -190.0 -958.0C96.0 -817.0 141.0 -542.0 141.0 -350.0V0.0Z"/></g>
<g fill="black" opacity=".8" transform="translate(1200 500) scale(0.1 -0.1)"><path d="M0.0 0.0V-341.0C0.0 -514.0 -23.0 -721.0 -275.0 -843.0C-244.0 -868.0 -199.0 -923.0 -182.0 -955.0C98.0 -807.0 141.0 -556.0 141.0 -343.0V0.0Z"/></g>
<g fill="red" transform="translate(1300 500) scale(0.1 -0.1)"><path d="M0.0 0.0V-166.0C0.0 -339.0 -6.0 -591.0 -282.0 -786.0C-275.0 -791.0 -264.0 -800.0 -259.0 -807.0C19.0 -604.0 30.0 -346.0 30.0 -166.0V0.0Z"/></g>
<g fill="black" opacity=".8" transform="translate(1300 500) scale(0.1 -0.1)"><path d="M0.0 0.0V-164.0C0.0 -342.0 -9.0 -593.0 -288.0 -784.0C-280.0 -788.0 -271.0 -797.0 -265.0 -804.0C15.0 -608.0 29.0 -351.0 29.0 -163.0V0.0Z"/></g>
<g fill="red" transform="translate(1400 500) scale(0.1 -0.1)"><path d="M0.0 0.0V-202.0C0.0 -348.0 -9.0 -559.0 -255.0 -713.0C-220.0 -736.0 -168.0 -785.0 -146.0 -814.0C87.0 -636.0 144.0 -384.0 144.0 -203.0V0.0Z"/></g>
<g fill="black" opacity=".8" transform="translate(1400 500) scale(0.1 -0.1)"><path d="M0.0 0.0V-199.0C0.0 -348.0 -17.0 -566.0 -248.0 -715.0C-213.0 -738.0 -164.0 -783.0 -143.0 -813.0C98.0 -638.0 138.0 -383.0 138.0 -200.0V0.0Z"/></g>
<g fill="red" transform="translate(1500 500) scale(0.1 -0.1)"><path d="M0.0 0.0V-331.0C0.0 -505.0 -6.0 -733.0 -284.0 -873.0C-278.0 -879.0 -270.0 -890.0 -266.0 -896.0C18.0 -747.0 29.0 -514.0 29.0 -331.0V0.0Z"/></g>
<g fill="black" opacity=".8" transform="translate(1500 500) scale(0.1 -0.1)"><path d="M0.0 0.0V-331.0C0.0 -512.0 -12.0 -729.0 -291.0 -873.0C-284.0 -877.0 -278.0 -887.0 -272.0 -894.0C10.0 -744.0 27.0 -520.0 27.0 -330.0V0.0Z"/></g>
<g fill="red" transform="translate(1600 500) scale(0.1 -0.1)"><path d="M0.0 0.0V-367.0C0.0 -531.0 -21.0 -724.0 -268.0 -831.0C-236.0 -858.0 -192.0 -912.0 -173.0 -942.0C91.0 -805.0 137.0 -573.0 137.0 -368.0V0.0Z"/></g>
<g fill="black" opacity=".8" transform="translate(1600 500) scale(0.1 -0.1)"><path d="M0.0 0.0V-366.0C0.0 -531.0 -21.0 -724.0 -260.0 -837.0C-229.0 -861.0 -186.0 -912.0 -169.0 -942.0C91.0 -804.0 134.0 -572.0 134.0 -367.0V0.0Z"/></g>
<g fill="red" transform="translate(100 600) scale(0.1 -0.1)"><path d="M0.0 0.0V-166.0C0.0 -339.0 -7.0 -591.0 -283.0 -786.0C-276.0 -791.0 -265.0 -800.0 -260.0 -807.0C18.0 -604.0 29.0 -346.0 29.0 -166.0V0.0Z"/></g>
<g fill="black" opacity=".8" transform="translate(100 600) scale(0.1 -0.1)"><path d="M0.0 0.0V-163.0C0.0 -342.0 -10.0 -593.0 -288.0 -785.0C-279.0 -788.0 -270.0 -797.0 -264.0 -805.0C15.0 -608.0 30.0 -351.0 30.0 -162.0V0.0Z"/></g>
<g fill="red" transform="translate(200 600) scale(0.1 -0.1)"><path d="M0.0 0.0V-203.0C0.0 -350.0 -9.0 -563.0 -253.0 -717.0C-218.0 -741.0 -165.0 -790.0 -141.0 -820.0C90.0 -641.0 148.0 -387.0 148.0 -205.0V0.0Z"/></g>
<g fill="black" opacity=".8" transform="translate(200 600) scale(0.1 -0.1)"><path d="M0.0 0.0V-200.0C0.0 -351.0 -17.0 -569.0 -247.0 -718.0C-212.0 -741.0 -162.0 -788.0 -140.0 -819.0C102.0 -643.0 142.0 -387.0 142.0 -202.0V0.0Z"/></g>
<g fill="red" transform="translate(300 600) scale(0.1 -0.1)"><path d="M0.0 0.0V-331.0C0.0 -505.0 -6.0 -733.0 -284.0 -873.0C-278.0 -879.0 -270.0 -890.0 -266.0 -896.0C18.0 -747.0 29.0 -514.0 29.0 -331.0V0.0Z"/></g>
<g fill="black" opacity=".8" transform="translate(300 600) scale(0.1 -0.1)"><path d="M0.0 0.0V-332.0C0.0 -512.0 -12.0 -729.0 -295.0 -871.0C-288.0 -876.0 -282.0 -885.0 -277.0 -892.0C9.0 -743.0 26.0 -520.0 26.0 -331.0V0.0Z"/></g>
<g fill="red" transform="translate(400 600) scale(0.1 -0.1)"><path d="M0.0 0.0V-367.0C0.0 -532.0 -23.0 -724.0 -279.0 -831.0C-247.0 -858.0 -204.0 -912.0 -185.0 -942.0C88.0 -806.0 136.0 -574.0 136.0 -369.0V0.0Z"/></g>
<g fill="black" opacity=".8" transform="translate(400 600) scale(0.1 -0.1)"><path d="M0.0 0.0V-365.0C0.0 -531.0 -21.0 -726.0 -266.0 -839.0C-236.0 -863.0 -194.0 -913.0 -177.0 -942.0C88.0 -805.0 132.0 -572.0 132.0 -366.0V0.0Z"/></g>
<g fill="red" transform="translate(500 600) scale(0.1 -0.1)"><path d="M0.0 0.0V-114.0C0.0 -222.0 -22.0 -368.0 -389.0 -468.0C-382.0 -475.0 -374.0 -487.0 -370.0 -494.0C4.0 -387.0 31.0 -233.0 31.0 -114.0V0.0Z"/></g>
<g fill="black" opacity=".8" transform="translate(500 600) scale(0.1 -0.1)"><path d="M0.0 0.0V-115.0C0.0 -220.0 -25.0 -373.0 -393.0 -466.0C-385.0 -472.0 -378.0 -484.0 -374.0 -492.0C-2.0 -393.0 30.0 -231.0 30.0 -114.0V0.0Z"/></g>
<g fill="red" transform="translate(600 600) scale(0.1 -0.1)"><path d="M0.0 0.0V-101.0C0.0 -178.0 -32.0 -288.0 -373.0 -365.0C-337.0 -393.0 -291.0 -447.0 -272.0 -478.0C94.0 -379.0 153.0 -225.0 153.0 -105.0V0.0Z"/></g>
<g fill="black" opacity=".8" transform="translate(600 600) scale(0.1 -0.1)"><path d="M0.0 0.0V-93.0C0.0 -176.0 -31.0 -296.0 -363.0 -359.0C-331.0 -387.0 -287.0 -445.0 -272.0 -480.0C83.0 -395.0 152.0 -229.0 152.0 -98.0V0.0Z"/></g>
<g fill="red" transform="translate(700 600) scale(0.1 -0.1)"><path d="M0.0 0.0V-240.0C0.0 -447.0 -13.0 -686.0 -159.0 -886.0C-151.0 -889.0 -141.0 -896.0 -136.0 -902.0C14.0 -698.0 29.0 -454.0 29.0 -240.0V0.0Z"/></g>
<g fill="black" opacity=".8" transform="translate(700 600) scale(0.1 -0.1)"><path d="M0.0 0.0V-245.0C0.0 -445.0 -12.0 -687.0 -169.0 -882.0C-159.0 -885.0 -149.0 -892.0 -142.0 -899.0C16.0 -701.0 31.0 -453.0 31.0 -244.0V0.0Z"/></g>
<g fill="red" transform="translate(800 600) scale(0.1 -0.1)"><path d="M0.0 0.0V-298.0C0.0 -481.0 -13.0 -691.0 -143.0 -855.0C-106.0 -874.0 -49.0 -918.0 -22.0 -947.0C125.0 -758.0 139.0 -509.0 139.0 -298.0V0.0Z"/></g>
<g fill="black" opacity=".8" transform="translate(800 600) scale(0.1 -0.1)"><path d="M0.0 0.0V-298.0C0.0 -473.0 -10.0 -696.0 -130.0 -856.0C-96.0 -875.0 -42.0 -921.0 -19.0 -950.0C122.0 -764.0 137.0 -504.0 137.0 -299.0V0.0Z"/></g>
<g fill="red" transform="translate(900 600) scale(0.1 -0.1)"><path d="M0.0 0.0V-72.0C0.0 -222.0 -9.0 -423.0 -119.0 -588.0C-111.0 -591.0 -99.0 -599.0 -94.0 -605.0C18.0 -435.0 29.0 -230.0 29.0 -72.0V0.0Z"/></g>
<g fill="black" opacity=".8" transform="translate(900 600) scale(0.1 -0.1)"><path d="M0.0 0.0V-82.0C0.0 -219.0 -1.0 -420.0 -126.0 -586.0C-117.0 -589.0 -106.0 -596.0 -100.0 -602.0C24.0 -430.0 28.0 -228.0 28.0 -81.0V0.0Z"/></g>
<g fill="red" transform="translate(1000 600) scale(0.1 -0.1)"><path d="M0.0 0.0V-184.0C0.0 -282.0 -7.0 -389.0 -54.0 -474.0C-26.0 -489.0 18.0 -522.0 39.0 -544.0C97.0 -441.0 105.0 -308.0 105.0 -186.0V0.0Z"/></g>
<g fill="black" opacity=".8" transform="translate(1000 600) scale(0.1 -0.1)"><path d="M0.0 0.0V-187.0C0.0 -276.0 -3.0 -388.0 -51.0 -482.0C-20.0 -496.0 25.0 -525.0 46.0 -547.0C94.0 -434.0 107.0 -304.0 107.0 -189.0V0.0Z"/></g>
<g fill="red" transform="translate(1100 600) scale(0.1 -0.1)"><path d="M0.0 0.0V-331.0C0.0 -503.0 -6.0 -733.0 -264.0 -873.0C-257.0 -879.0 -248.0 -890.0 -244.0 -896.0C18.0 -746.0 29.0 -511.0 29.0 -331.0V0.0Z"/></g>
<g fill="black" opacity=".8" transform="translate(1100 600) scale(0.1 -0.1)"><path d="M0.0 0.0V-330.0C0.0 -512.0 -14.0 -727.0 -275.0 -872.0C-267.0 -876.0 -260.0 -885.0 -255.0 -892.0C9.0 -742.0 28.0 -521.0 28.0 -329.0V0.0Z"/></g>
<g fill="red" transform="translate(1200 600) scale(0.1 -0.1)"><path d="M0.0 0.0V-367.0C0.0 -529.0 -20.0 -724.0 -257.0 -831.0C-223.0 -858.0 -177.0 -911.0 -157.0 -941.0C98.0 -804.0 142.0 -571.0 142.0 -368.0V0.0Z"/></g>
<g fill="black" opacity=".8" transform="translate(1200 600) scale(0.1 -0.1)"><path d="M0.0 0.0V-363.0C0.0 -530.0 -20.0 -723.0 -244.0 -838.0C-212.0 -862.0 -168.0 -913.0 -149.0 -943.0C96.0 -803.0 137.0 -571.0 137.0 -365.0V0.0Z"/></g>
<g fill="red" transform="translate(1300 600) scale(0.1 -0.1)"><path d="M0.0 0.0V-306.0C0.0 -484.0 -4.0 -722.0 -272.0 -877.0C-266.0 -883.0 -256.0 -894.0 -252.0 -899.0C19.0 -737.0 30.0 -492.0 30.0 -306.0V0.0Z"/></g>
<g fill="black" opacity=".8" transform="translate(1300 600) scale(0.1 -0.1)"><path d="M0.0 0.0V-299.0C0.0 -489.0 -14.0 -718.0 -266.0 -883.0C-258.0 -887.0 -250.0 -897.0 -244.0 -904.0C11.0 -734.0 30.0 -498.0 30.0 -298.0V0.0Z"/></g>
<g fill="red" transform="translate(1400 600) scale(0.1 -0.1)"><path d="M0.0 0.0V-309.0C0.0 -467.0 -14.0 -693.0 -228.0 -831.0C-192.0 -856.0 -143.0 -906.0 -122.0 -936.0C107.0 -766.0 142.0 -507.0 142.0 -309.0V0.0Z"/></g>
<g fill="black" opacity=".8" transform="translate(1400 600) scale(0.1 -0.1)"><path d="M0.0 0.0V-306.0C0.0 -475.0 -18.0 -689.0 -233.0 -828.0C-199.0 -851.0 -150.0 -902.0 -129.0 -933.0C106.0 -768.0 142.0 -514.0 142.0 -307.0V0.0Z"/></g>
<g fill="red" transform="translate(1500 600) scale(0.1 -0.1)"><path d="M0.0 0.0V-206.0C0.0 -387.0 -15.0 -598.0 -192.0 -767.0C-184.0 -772.0 -174.0 -780.0 -169.0 -787.0C11.0 -613.0 29.0 -397.0 29.0 -206.0V0.0Z"/></g>
<g fill="black" opacity=".8" transform="translate(1500 600) scale(0.1 -0.1)"><path d="M0.0 0.0V-213.0C0.0 -386.0 -16.0 -599.0 -202.0 -764.0C-193.0 -767.0 -184.0 -776.0 -177.0 -783.0C11.0 -613.0 30.0 -395.0 30.0 -212.0V0.0Z"/></g>
<g fill="red" transform="translate(1600 600) scale(0.1 -0.1)"><path d="M0.0 0.0V-240.0C0.0 -395.0 -18.0 -581.0 -177.0 -713.0C-143.0 -736.0 -92.0 -786.0 -69.0 -818.0C117.0 -660.0 138.0 -431.0 138.0 -241.0V0.0Z"/></g>
<g fill="black" opacity=".8" transform="translate(1600 600) scale(0.1 -0.1)"><path d="M0.0 0.0V-240.0C0.0 -390.0 -14.0 -585.0 -167.0 -721.0C-134.0 -741.0 -83.0 -788.0 -62.0 -819.0C113.0 -658.0 137.0 -425.0 137.0 -242.0V0.0Z"/></g>
<g fill="red" transform="translate(100 700) scale(0.1 -0.1)"><path d="M0.0 0.0V-209.0C0.0 -372.0 -8.0 -615.0 -283.0 -786.0C-276.0 -792.0 -266.0 -802.0 -261.0 -807.0C17.0 -628.0 29.0 -381.0 29.0 -209.0V0.0Z"/></g>
<g fill="black" opacity=".8" transform="translate(100 700) scale(0.1 -0.1)"><path d="M0.0 0.0V-204.0C0.0 -378.0 -11.0 -614.0 -284.0 -787.0C-275.0 -791.0 -266.0 -800.0 -260.0 -808.0C14.0 -629.0 30.0 -388.0 30.0 -203.0V0.0Z"/></g>
<g fill="red" transform="translate(200 700) scale(0.1 -0.1)"><path d="M0.0 0.0V-259.0C0.0 -399.0 -17.0 -594.0 -237.0 -717.0C-203.0 -742.0 -155.0 -792.0 -134.0 -822.0C99.0 -670.0 143.0 -439.0 143.0 -260.0V0.0Z"/></g>
<g fill="black" opacity=".8" transform="translate(200 700) scale(0.1 -0.1)"><path d="M0.0 0.0V-257.0C0.0 -402.0 -18.0 -593.0 -238.0 -718.0C-204.0 -742.0 -155.0 -790.0 -134.0 -821.0C100.0 -670.0 141.0 -442.0 141.0 -259.0V0.0Z"/></g>
<g fill="red" transform="translate(300 700) scale(0.1 -0.1)"><path d="M0.0 0.0V-204.0C0.0 -386.0 -17.0 -595.0 -214.0 -763.0C-206.0 -767.0 -196.0 -776.0 -191.0 -782.0C10.0 -610.0 29.0 -395.0 29.0 -204.0V0.0Z"/></g>
<g fill="black" opacity=".8" transform="translate(300 700) scale(0.1 -0.1)"><path d="M0.0 0.0V-207.0C0.0 -381.0 -17.0 -597.0 -211.0 -764.0C-202.0 -768.0 -192.0 -777.0 -186.0 -784.0C11.0 -612.0 31.0 -390.0 31.0 -206.0V0.0Z"/></g>
<g fill="red" transform="translate(400 700) scale(0.1 -0.1)"><path d="M0.0 0.0V-224.0C0.0 -380.0 -17.0 -573.0 -172.0 -713.0C-138.0 -735.0 -86.0 -783.0 -62.0 -814.0C119.0 -648.0 139.0 -413.0 139.0 -225.0V0.0Z"/></g>
<g fill="black" opacity=".8" transform="translate(400 700) scale(0.1 -0.1)"><path d="M0.0 0.0V-227.0C0.0 -376.0 -15.0 -573.0 -175.0 -712.0C-141.0 -733.0 -89.0 -782.0 -66.0 -813.0C116.0 -650.0 142.0 -412.0 142.0 -229.0V0.0Z"/></g>
<g fill="red" transform="translate(500 700) scale(0.1 -0.1)"><path d="M0.0 0.0V-58.0C0.0 -119.0 -57.0 -174.0 -270.0 -208.0C-264.0 -214.0 -257.0 -226.0 -254.0 -234.0C-32.0 -196.0 29.0 -132.0 29.0 -59.0V0.0Z"/></g>
<g fill="black" opacity=".8" transform="translate(500 700) scale(0.1 -0.1)"><path d="M0.0 0.0V-64.0C0.0 -118.0 -39.0 -176.0 -277.0 -205.0C-267.0 -211.0 -261.0 -221.0 -257.0 -230.0C-13.0 -197.0 30.0 -129.0 30.0 -63.0V0.0Z"/></g>
<g fill="red" transform="translate(600 700) scale(0.1 -0.1)"><path d="M0.0 0.0V-42.0C0.0 -91.0 -26.0 -109.0 -257.0 -125.0C-233.0 -152.0 -193.0 -219.0 -182.0 -253.0C79.0 -224.0 145.0 -156.0 145.0 -49.0V0.0Z"/></g>
<g fill="black" opacity=".8" transform="translate(600 700) scale(0.1 -0.1)"><path d="M0.0 0.0V-47.0C0.0 -87.0 -30.0 -124.0 -258.0 -132.0C-231.0 -156.0 -188.0 -216.0 -174.0 -249.0C94.0 -224.0 145.0 -140.0 145.0 -54.0V0.0Z"/></g>
<g fill="red" transform="translate(700 700) scale(0.1 -0.1)"><path d="M0.0 0.0V-207.0C0.0 -378.0 -9.0 -616.0 -337.0 -790.0C-330.0 -796.0 -320.0 -806.0 -315.0 -812.0C16.0 -632.0 30.0 -387.0 30.0 -207.0V0.0Z"/></g>
<g fill="black" opacity=".8" transform="translate(700 700) scale(0.1 -0.1)"><path d="M0.0 0.0V-202.0C0.0 -378.0 -12.0 -618.0 -331.0 -793.0C-322.0 -797.0 -312.0 -808.0 -307.0 -816.0C14.0 -635.0 32.0 -388.0 32.0 -201.0V0.0Z"/></g>
<g fill="red" transform="translate(800 700) scale(0.1 -0.1)"><path d="M0.0 0.0V-186.0C0.0 -321.0 -15.0 -529.0 -278.0 -677.0C-240.0 -702.0 -189.0 -752.0 -166.0 -783.0C104.0 -607.0 151.0 -359.0 151.0 -188.0V0.0Z"/></g>
<g fill="black" opacity=".8" transform="translate(800 700) scale(0.1 -0.1)"><path d="M0.0 0.0V-183.0C0.0 -324.0 -20.0 -530.0 -284.0 -670.0C-247.0 -696.0 -195.0 -748.0 -173.0 -781.0C102.0 -613.0 151.0 -366.0 151.0 -185.0V0.0Z"/></g>
<g fill="red" transform="translate(900 700) scale(0.1 -0.1)"><path d="M0.0 0.0V-164.0C0.0 -334.0 -7.0 -583.0 -282.0 -774.0C-275.0 -779.0 -265.0 -789.0 -260.0 -795.0C18.0 -595.0 29.0 -341.0 29.0 -164.0V0.0Z"/></g>
<g fill="black" opacity=".8" transform="translate(900 700) scale(0.1 -0.1)"><path d="M0.0 0.0V-158.0C0.0 -336.0 -11.0 -585.0 -279.0 -776.0C-270.0 -780.0 -260.0 -789.0 -254.0 -796.0C15.0 -600.0 30.0 -345.0 30.0 -157.0V0.0Z"/></g>
<g fill="red" transform="translate(1000 700) scale(0.1 -0.1)"><path d="M0.0 0.0V-201.0C0.0 -345.0 -8.0 -557.0 -230.0 -709.0C-196.0 -732.0 -144.0 -780.0 -121.0 -809.0C92.0 -634.0 146.0 -381.0 146.0 -202.0V0.0Z"/></g>
<g fill="black" opacity=".8" transform="translate(1000 700) scale(0.1 -0.1)"><path d="M0.0 0.0V-200.0C0.0 -348.0 -17.0 -560.0 -235.0 -706.0C-200.0 -729.0 -149.0 -776.0 -127.0 -807.0C104.0 -634.0 143.0 -384.0 143.0 -202.0V0.0Z"/></g>
<g fill="red" transform="translate(1100 700) scale(0.1 -0.1)"><path d="M0.0 0.0V-236.0C0.0 -442.0 -10.0 -682.0 -131.0 -886.0C-122.0 -889.0 -111.0 -896.0 -105.0 -901.0C18.0 -694.0 30.0 -450.0 30.0 -235.0V0.0Z"/></g>
<g fill="black" opacity=".8" transform="translate(1100 700) scale(0.1 -0.1)"><path d="M0.0 0.0V-243.0C0.0 -438.0 -7.0 -685.0 -141.0 -880.0C-131.0 -884.0 -120.0 -891.0 -112.0 -898.0C23.0 -698.0 32.0 -448.0 32.0 -242.0V0.0Z"/></g>
<g fill="red" transform="translate(1200 700) scale(0.1 -0.1)"><path d="M0.0 0.0V-419.0C0.0 -580.0 -9.0 -735.0 -83.0 -855.0C-50.0 -875.0 3.0 -920.0 28.0 -950.0C122.0 -805.0 132.0 -613.0 132.0 -420.0V0.0Z"/></g>
<g fill="black" opacity=".8" transform="translate(1200 700) scale(0.1 -0.1)"><path d="M0.0 0.0V-416.0C0.0 -576.0 -8.0 -744.0 -74.0 -861.0C-40.0 -879.0 11.0 -920.0 35.0 -948.0C119.0 -807.0 131.0 -611.0 131.0 -417.0V0.0Z"/></g>
<g fill="red" transform="translate(1300 700) scale(0.1 -0.1)"><path d="M0.0 0.0V-166.0C0.0 -339.0 -7.0 -591.0 -282.0 -786.0C-275.0 -791.0 -265.0 -800.0 -260.0 -807.0C19.0 -604.0 29.0 -346.0 29.0 -166.0V0.0Z"/></g>
<g fill="black" opacity=".8" transform="translate(1300 700) scale(0.1 -0.1)"><path d="M0.0 0.0V-168.0C0.0 -345.0 -9.0 -593.0 -302.0 -779.0C-294.0 -782.0 -285.0 -791.0 -280.0 -798.0C14.0 -607.0 27.0 -352.0 27.0 -167.0V0.0Z"/></g>
<g fill="red" transform="translate(1400 700) scale(0.1 -0.1)"><path d="M0.0 0.0V-202.0C0.0 -349.0 -10.0 -559.0 -291.0 -713.0C-256.0 -737.0 -204.0 -786.0 -182.0 -815.0C82.0 -636.0 146.0 -385.0 146.0 -203.0V0.0Z"/></g>
<g fill="black" opacity=".8" transform="translate(1400 700) scale(0.1 -0.1)"><path d="M0.0 0.0V-195.0C0.0 -346.0 -18.0 -570.0 -268.0 -720.0C-235.0 -743.0 -188.0 -788.0 -168.0 -817.0C92.0 -641.0 135.0 -381.0 135.0 -196.0V0.0Z"/></g>
<g fill="red" transform="translate(1500 700) scale(0.1 -0.1)"><path d="M0.0 0.0V-269.0C0.0 -467.0 -20.0 -681.0 -235.0 -849.0C-228.0 -854.0 -218.0 -863.0 -213.0 -869.0C7.0 -696.0 29.0 -476.0 29.0 -268.0V0.0Z"/></g>
<g fill="black" opacity=".8" transform="translate(1500 700) scale(0.1 -0.1)"><path d="M0.0 0.0V-270.0C0.0 -460.0 -17.0 -684.0 -225.0 -854.0C-216.0 -857.0 -208.0 -866.0 -202.0 -873.0C9.0 -700.0 30.0 -468.0 30.0 -269.0V0.0Z"/></g>
<g fill="red" transform="translate(1600 700) scale(0.1 -0.1)"><path d="M0.0 0.0V-277.0C0.0 -456.0 -18.0 -679.0 -192.0 -835.0C-158.0 -856.0 -107.0 -906.0 -84.0 -937.0C116.0 -753.0 137.0 -490.0 137.0 -277.0V0.0Z"/></g>
<g fill="black" opacity=".8" transform="translate(1600 700) scale(0.1 -0.1)"><path d="M0.0 0.0V-281.0C0.0 -454.0 -17.0 -679.0 -201.0 -830.0C-168.0 -851.0 -116.0 -903.0 -95.0 -934.0C115.0 -757.0 143.0 -490.0 143.0 -282.0V0.0Z"/></g>
<g fill="red" transform="translate(100 800) scale(0.1 -0.1)"><path d="M0.0 0.0V-64.0C0.0 -143.0 -16.0 -257.0 -104.0 -345.0C-95.0 -349.0 -83.0 -356.0 -76.0 -362.0C13.0 -272.0 32.0 -151.0 32.0 -64.0V0.0Z"/></g>
<g fill="black" opacity=".8" transform="translate(100 800) scale(0.1 -0.1)"><path d="M0.0 0.0V-54.0C0.0 -149.0 -27.0 -255.0 -95.0 -350.0C-85.0 -354.0 -76.0 -361.0 -71.0 -368.0C0.0 -269.0 29.0 -158.0 29.0 -53.0V0.0Z"/></g>
<g fill="red" transform="translate(200 800) scale(0.1 -0.1)"><path d="M0.0 0.0V-87.0C0.0 -145.0 -7.0 -258.0 -66.0 -325.0C-35.0 -339.0 16.0 -371.0 39.0 -391.0C114.0 -309.0 125.0 -166.0 125.0 -91.0V0.0Z"/></g>
<g fill="black" opacity=".8" transform="translate(200 800) scale(0.1 -0.1)"><path d="M0.0 0.0V-81.0C0.0 -154.0 -12.0 -243.0 -67.0 -314.0C-40.0 -329.0 7.0 -372.0 25.0 -399.0C112.0 -311.0 122.0 -187.0 122.0 -85.0V0.0Z"/></g>
<g fill="red" transform="translate(300 800) scale(0.1 -0.1)"><path d="M0.0 0.0V-125.0C0.0 -276.0 -8.0 -505.0 -249.0 -683.0C-242.0 -688.0 -231.0 -698.0 -227.0 -704.0C17.0 -517.0 29.0 -283.0 29.0 -126.0V0.0Z"/></g>
<g fill="black" opacity=".8" transform="translate(300 800) scale(0.1 -0.1)"><path d="M0.0 0.0V-118.0C0.0 -281.0 -16.0 -508.0 -249.0 -685.0C-240.0 -689.0 -231.0 -696.0 -225.0 -703.0C9.0 -522.0 29.0 -289.0 29.0 -117.0V0.0Z"/></g>
<g fill="red" transform="translate(400 800) scale(0.1 -0.1)"><path d="M0.0 0.0V-204.0C0.0 -338.0 -12.0 -541.0 -223.0 -681.0C-188.0 -704.0 -139.0 -751.0 -118.0 -780.0C100.0 -614.0 141.0 -374.0 141.0 -205.0V0.0Z"/></g>
<g fill="black" opacity=".8" transform="translate(400 800) scale(0.1 -0.1)"><path d="M0.0 0.0V-199.0C0.0 -343.0 -18.0 -545.0 -221.0 -679.0C-189.0 -700.0 -141.0 -747.0 -121.0 -777.0C104.0 -619.0 137.0 -379.0 137.0 -201.0V0.0Z"/></g>
<g fill="red" transform="translate(500 800) scale(0.1 -0.1)"><path d="M0.0 0.0V-131.0C0.0 -250.0 -15.0 -425.0 -301.0 -548.0C-295.0 -554.0 -285.0 -564.0 -281.0 -571.0C11.0 -441.0 29.0 -260.0 29.0 -132.0V0.0Z"/></g>
<g fill="black" opacity=".8" transform="translate(500 800) scale(0.1 -0.1)"><path d="M0.0 0.0V-132.0C0.0 -254.0 -17.0 -427.0 -311.0 -544.0C-303.0 -549.0 -296.0 -559.0 -291.0 -566.0C5.0 -443.0 28.0 -264.0 28.0 -131.0V0.0Z"/></g>
<g fill="red" transform="translate(600 800) scale(0.1 -0.1)"><path d="M0.0 0.0V-172.0C0.0 -265.0 -29.0 -385.0 -283.0 -460.0C-252.0 -488.0 -210.0 -540.0 -192.0 -571.0C78.0 -472.0 141.0 -313.0 141.0 -175.0V0.0Z"/></g>
<g fill="black" opacity=".8" transform="translate(600 800) scale(0.1 -0.1)"><path d="M0.0 0.0V-168.0C0.0 -265.0 -23.0 -393.0 -273.0 -466.0C-243.0 -490.0 -200.0 -539.0 -184.0 -570.0C84.0 -474.0 136.0 -310.0 136.0 -171.0V0.0Z"/></g>
<g fill="red" transform="translate(700 800) scale(0.1 -0.1)"><path d="M0.0 0.0V-287.0C0.0 -482.0 -15.0 -702.0 -150.0 -881.0C-142.0 -886.0 -132.0 -894.0 -126.0 -899.0C12.0 -712.0 29.0 -496.0 29.0 -287.0V0.0Z"/></g>
<g fill="black" opacity=".8" transform="translate(700 800) scale(0.1 -0.1)"><path d="M0.0 0.0V-287.0C0.0 -478.0 -4.0 -708.0 -139.0 -886.0C-130.0 -889.0 -122.0 -896.0 -115.0 -902.0C20.0 -719.0 27.0 -486.0 27.0 -286.0V0.0Z"/></g>
<g fill="red" transform="translate(800 800) scale(0.1 -0.1)"><path d="M0.0 0.0V-372.0C0.0 -535.0 -8.0 -705.0 -75.0 -867.0C-45.0 -886.0 -8.0 -915.0 14.0 -940.0C97.0 -764.0 112.0 -571.0 112.0 -373.0V0.0Z"/></g>
<g fill="black" opacity=".8" transform="translate(800 800) scale(0.1 -0.1)"><path d="M0.0 0.0V-372.0C0.0 -536.0 -7.0 -724.0 -89.0 -855.0C-59.0 -872.0 -13.0 -909.0 8.0 -934.0C104.0 -779.0 115.0 -564.0 115.0 -373.0V0.0Z"/></g>
<g fill="red" transform="translate(900 800) scale(0.1 -0.1)"><path d="M0.0 0.0V-138.0C0.0 -212.0 -16.0 -300.0 -112.0 -365.0C-105.0 -369.0 -96.0 -379.0 -91.0 -386.0C9.0 -316.0 30.0 -218.0 30.0 -139.0V0.0Z"/></g>
<g fill="black" opacity=".8" transform="translate(900 800) scale(0.1 -0.1)"><path d="M0.0 0.0V-131.0C0.0 -216.0 -21.0 -302.0 -107.0 -369.0C-98.0 -372.0 -90.0 -380.0 -86.0 -387.0C3.0 -316.0 26.0 -225.0 26.0 -130.0V0.0Z"/></g>
<g fill="red" transform="translate(1000 800) scale(0.1 -0.1)"><path d="M0.0 0.0V-110.0C0.0 -163.0 -5.0 -224.0 -60.0 -272.0C-38.0 -286.0 7.0 -328.0 22.0 -349.0C93.0 -288.0 107.0 -191.0 107.0 -113.0V0.0Z"/></g>
<g fill="black" opacity=".8" transform="translate(1000 800) scale(0.1 -0.1)"><path d="M0.0 0.0V-109.0C0.0 -167.0 -10.0 -223.0 -66.0 -270.0C-41.0 -285.0 -0.0 -323.0 16.0 -347.0C94.0 -285.0 108.0 -199.0 108.0 -113.0V0.0Z"/></g>
</svg>
