<?xml version="1.0" encoding="UTF-8"?>
<svg width="1700" height="300" xmlns="http://www.w3.org/2000/svg">
<rect width="100%" height="100%" fill="white"/>
<g fill="green" transform="translate(100 100) scale(0.1 -0.1)"><path d="M-0.0 0.0V-39.0H530.0V0.0H0.0ZM41.0 243.0V204.0H501.0V243.0H41.0ZM112.0 -234.0V-272.0H481.0V-234.0H112.0ZM465.0 -234.0V-241.0C424.0 -323.0 341.0 -482.0 274.0 -594.0L312.0 -607.0C377.0 -493.0 459.0 -340.0 506.0 -242.0L480.0 -230.0L472.0 -234.0H465.0ZM117.0 -447.0C222.0 -548.0 349.0 -688.0 413.0 -766.0L442.0 -740.0C380.0 -663.0 249.0 -526.0 144.0 -425.0L117.0 -447.0ZM237.0 410.0C199.0 204.0 134.0 -103.0 88.0 -272.0H129.0C172.0 -107.0 239.0 196.0 277.0 404.0L237.0 410.0Z"/></g>
<g fill="green" transform="translate(200 100) scale(0.1 -0.1)"><path d="M0.0 0.0V-173.0H532.0V0.0H0.0ZM33.0 247.0V75.0H482.0V247.0H33.0ZM55.0 -245.0V-422.0H370.0V-245.0H55.0ZM351.0 -245.0V-263.0C322.0 -352.0 257.0 -511.0 201.0 -632.0L366.0 -681.0C416.0 -557.0 475.0 -407.0 520.0 -274.0L400.0 -238.0L374.0 -245.0H351.0ZM47.0 -569.0C137.0 -658.0 242.0 -783.0 287.0 -864.0L409.0 -751.0C358.0 -671.0 251.0 -555.0 158.0 -471.0L47.0 -569.0ZM186.0 365.0C153.0 109.0 94.0 -220.0 45.0 -422.0H225.0C267.0 -231.0 323.0 89.0 363.0 348.0L186.0 365.0Z"/></g>
<g fill="green" transform="translate(300 100) scale(0.1 -0.1)"><path d="M0.0 0.0V-30.0H357.0V0.0H0.0ZM28.0 184.0V155.0H338.0V184.0H28.0ZM72.0 -177.0V-206.0H335.0V-177.0H72.0ZM322.0 -177.0V-183.0C294.0 -245.0 238.0 -368.0 192.0 -454.0L222.0 -463.0C266.0 -376.0 322.0 -258.0 352.0 -183.0L333.0 -174.0L327.0 -177.0H322.0ZM73.0 -334.0C151.0 -415.0 245.0 -525.0 292.0 -585.0L314.0 -566.0C268.0 -507.0 171.0 -399.0 94.0 -318.0L73.0 -334.0ZM158.0 312.0C132.0 155.0 87.0 -78.0 55.0 -206.0H86.0C116.0 -81.0 163.0 149.0 189.0 307.0L158.0 312.0Z"/></g>
<g fill="green" transform="translate(400 100) scale(0.1 -0.1)"><path d="M0.0 0.0V-132.0H354.0V0.0H0.0ZM21.0 189.0V58.0H317.0V189.0H21.0ZM15.0 -186.0V-321.0H229.0V-186.0H15.0ZM221.0 -186.0V-199.0C207.0 -267.0 171.0 -389.0 139.0 -481.0L265.0 -511.0C291.0 -417.0 322.0 -303.0 345.0 -201.0L257.0 -181.0L237.0 -186.0H221.0ZM23.0 -429.0C81.0 -499.0 147.0 -594.0 173.0 -656.0L267.0 -579.0C236.0 -517.0 167.0 -427.0 107.0 -361.0L23.0 -429.0ZM121.0 278.0C100.0 84.0 62.0 -167.0 29.0 -321.0H163.0C191.0 -175.0 228.0 70.0 253.0 267.0L121.0 278.0Z"/></g>
<g fill="green" transform="translate(500 100) scale(0.1 -0.1)"><path d="M0.0 0.0V-30.0H648.0V0.0H0.0ZM43.0 195.0V166.0H618.0V195.0H43.0ZM133.0 -188.0V-217.0H569.0V-188.0H133.0ZM558.0 -188.0V-192.0C509.0 -253.0 413.0 -364.0 336.0 -446.0L364.0 -461.0C441.0 -377.0 535.0 -268.0 592.0 -197.0L572.0 -185.0L566.0 -188.0H558.0ZM192.0 -356.0C294.0 -425.0 423.0 -526.0 491.0 -583.0L514.0 -555.0C449.0 -502.0 316.0 -404.0 212.0 -333.0L192.0 -356.0ZM284.0 322.0C238.0 160.0 161.0 -83.0 110.0 -217.0H143.0C191.0 -87.0 268.0 152.0 315.0 316.0L284.0 322.0Z"/></g>
<g fill="green" transform="translate(600 100) scale(0.1 -0.1)"><path d="M0.0 0.0V-135.0H677.0V0.0H0.0ZM53.0 185.0V53.0H615.0V185.0H53.0ZM138.0 -196.0V-332.0H540.0V-196.0H138.0ZM513.0 -196.0V-211.0C463.0 -281.0 359.0 -401.0 272.0 -493.0L400.0 -569.0C483.0 -469.0 580.0 -352.0 658.0 -250.0L559.0 -189.0L537.0 -196.0H513.0ZM128.0 -482.0C230.0 -537.0 355.0 -619.0 416.0 -671.0L496.0 -538.0C429.0 -490.0 311.0 -423.0 205.0 -374.0L128.0 -482.0ZM250.0 261.0C204.0 67.0 129.0 -178.0 73.0 -332.0H238.0C284.0 -190.0 350.0 45.0 402.0 241.0L250.0 261.0Z"/></g>
<g fill="green" transform="translate(700 100) scale(0.1 -0.1)"><path d="M0.0 0.0V-39.0H535.0V0.0H0.0ZM56.0 238.0V199.0H496.0V238.0H56.0ZM150.0 -230.0V-268.0H459.0V-230.0H150.0ZM444.0 -230.0V-238.0C404.0 -321.0 320.0 -485.0 253.0 -600.0L288.0 -613.0C354.0 -495.0 437.0 -338.0 486.0 -238.0L459.0 -226.0L451.0 -230.0H444.0ZM125.0 -469.0C218.0 -559.0 321.0 -686.0 368.0 -764.0L401.0 -744.0C353.0 -664.0 249.0 -542.0 157.0 -452.0L125.0 -469.0ZM261.0 406.0C227.0 202.0 167.0 -101.0 124.0 -268.0H164.0C203.0 -105.0 264.0 195.0 298.0 401.0L261.0 406.0Z"/></g>
<g fill="green" transform="translate(800 100) scale(0.1 -0.1)"><path d="M0.0 0.0V-172.0H531.0V0.0H0.0ZM39.0 248.0V77.0H489.0V248.0H39.0ZM116.0 -248.0V-425.0H396.0V-248.0H116.0ZM354.0 -247.0V-265.0C316.0 -354.0 239.0 -512.0 173.0 -633.0L328.0 -682.0C394.0 -559.0 470.0 -409.0 526.0 -281.0L404.0 -241.0L377.0 -247.0H354.0ZM63.0 -546.0C153.0 -642.0 257.0 -774.0 300.0 -861.0L444.0 -772.0C395.0 -684.0 288.0 -558.0 197.0 -469.0L63.0 -546.0ZM179.0 376.0C149.0 116.0 97.0 -219.0 51.0 -424.0H220.0C261.0 -229.0 313.0 99.0 349.0 361.0L179.0 376.0Z"/></g>
<g fill="green" transform="translate(900 100) scale(0.1 -0.1)"><path d="M0.0 0.0V-39.0H544.0V0.0H0.0ZM33.0 244.0V205.0H514.0V244.0H33.0ZM98.0 -237.0V-276.0H471.0V-237.0H98.0ZM456.0 -237.0V-244.0C410.0 -327.0 319.0 -485.0 245.0 -598.0L282.0 -612.0C355.0 -497.0 445.0 -344.0 498.0 -246.0L472.0 -233.0L464.0 -237.0H456.0ZM81.0 -453.0C193.0 -552.0 326.0 -690.0 393.0 -770.0L419.0 -742.0C354.0 -663.0 216.0 -528.0 104.0 -428.0L81.0 -453.0ZM235.0 414.0C192.0 206.0 122.0 -104.0 72.0 -276.0H114.0C161.0 -109.0 234.0 198.0 276.0 408.0L235.0 414.0Z"/></g>
<g fill="green" transform="translate(1000 100) scale(0.1 -0.1)"><path d="M0.0 0.0V-175.0H550.0V0.0H0.0ZM13.0 248.0V75.0H518.0V248.0H13.0ZM48.0 -239.0V-417.0H383.0V-239.0H48.0ZM358.0 -238.0V-257.0C321.0 -347.0 242.0 -507.0 175.0 -628.0L350.0 -681.0C414.0 -555.0 486.0 -404.0 542.0 -271.0L412.0 -231.0L384.0 -238.0H358.0ZM-17.0 -568.0C117.0 -660.0 277.0 -793.0 353.0 -880.0L461.0 -728.0C380.0 -645.0 220.0 -526.0 83.0 -441.0L-17.0 -568.0ZM211.0 381.0C162.0 122.0 81.0 -212.0 17.0 -417.0H205.0C259.0 -225.0 335.0 98.0 391.0 360.0L211.0 381.0Z"/></g>
<g fill="red" transform="translate(100 200) scale(0.1 -0.1)"><path d="M0.0 0.0V-30.0H654.0V0.0H0.0ZM57.0 191.0V161.0H614.0V191.0H57.0ZM172.0 -184.0V-213.0H547.0V-184.0H172.0ZM538.0 -184.0V-189.0C489.0 -251.0 393.0 -367.0 316.0 -452.0L341.0 -466.0C419.0 -379.0 513.0 -267.0 573.0 -193.0L551.0 -181.0L545.0 -184.0H538.0ZM199.0 -377.0C289.0 -435.0 395.0 -524.0 447.0 -581.0L473.0 -559.0C422.0 -503.0 316.0 -419.0 224.0 -359.0L199.0 -377.0ZM308.0 318.0C266.0 158.0 195.0 -81.0 146.0 -213.0H179.0C223.0 -85.0 293.0 151.0 336.0 313.0L308.0 318.0Z"/></g>
<g fill="black" opacity=".8" transform="translate(100 200) scale(0.1 -0.1)"><path d="M0.0 0.0V-30.0H653.0V0.0H0.0ZM58.0 190.0V161.0H613.0V190.0H58.0ZM171.0 -184.0V-213.0H547.0V-184.0H171.0ZM537.0 -184.0V-189.0C489.0 -251.0 392.0 -367.0 315.0 -452.0L340.0 -467.0C418.0 -379.0 513.0 -266.0 572.0 -193.0L551.0 -181.0L545.0 -184.0H537.0ZM200.0 -378.0C290.0 -436.0 395.0 -524.0 446.0 -581.0L473.0 -559.0C422.0 -503.0 316.0 -420.0 225.0 -360.0L200.0 -378.0ZM308.0 318.0C266.0 158.0 194.0 -81.0 146.0 -213.0H178.0C222.0 -85.0 293.0 151.0 336.0 313.0L308.0 318.0Z"/></g>
<g fill="red" transform="translate(200 200) scale(0.1 -0.1)"><path d="M0.0 0.0V-134.0H676.0V0.0H0.0ZM58.0 186.0V54.0H621.0V186.0H58.0ZM200.0 -199.0V-334.0H565.0V-199.0H200.0ZM516.0 -199.0V-213.0C457.0 -283.0 341.0 -402.0 243.0 -494.0L361.0 -570.0C461.0 -471.0 575.0 -354.0 663.0 -257.0L562.0 -192.0L540.0 -199.0H516.0ZM144.0 -460.0C246.0 -520.0 370.0 -610.0 429.0 -668.0L531.0 -559.0C467.0 -503.0 348.0 -426.0 244.0 -372.0L144.0 -460.0ZM242.0 272.0C200.0 74.0 132.0 -178.0 79.0 -334.0H233.0C278.0 -188.0 340.0 55.0 387.0 254.0L242.0 272.0Z"/></g>
<g fill="black" opacity=".8" transform="translate(200 200) scale(0.1 -0.1)"><path d="M0.0 0.0V-134.0H676.0V0.0H0.0ZM59.0 186.0V55.0H622.0V186.0H59.0ZM199.0 -199.0V-335.0H566.0V-199.0H199.0ZM516.0 -198.0V-213.0C457.0 -283.0 341.0 -402.0 244.0 -494.0L362.0 -570.0C461.0 -471.0 575.0 -354.0 664.0 -257.0L563.0 -192.0L540.0 -198.0H516.0ZM144.0 -459.0C246.0 -521.0 370.0 -610.0 429.0 -668.0L531.0 -559.0C466.0 -503.0 348.0 -426.0 244.0 -372.0L144.0 -459.0ZM243.0 272.0C200.0 74.0 132.0 -177.0 79.0 -334.0H233.0C278.0 -188.0 340.0 55.0 388.0 254.0L243.0 272.0Z"/></g>
<g fill="red" transform="translate(300 200) scale(0.1 -0.1)"><path d="M0.0 0.0V-30.0H367.0V0.0H0.0ZM36.0 181.0V151.0H340.0V181.0H36.0ZM100.0 -175.0V-204.0H313.0V-175.0H100.0ZM302.0 -175.0V-181.0C273.0 -245.0 214.0 -372.0 166.0 -460.0L193.0 -469.0C240.0 -379.0 299.0 -258.0 334.0 -181.0L313.0 -172.0L307.0 -175.0H302.0ZM67.0 -353.0C137.0 -424.0 214.0 -524.0 249.0 -585.0L273.0 -570.0C237.0 -508.0 160.0 -411.0 90.0 -340.0L67.0 -353.0ZM178.0 310.0C154.0 154.0 112.0 -77.0 81.0 -204.0H112.0C140.0 -80.0 183.0 149.0 207.0 306.0L178.0 310.0Z"/></g>
<g fill="black" opacity=".8" transform="translate(300 200) scale(0.1 -0.1)"><path d="M0.0 0.0V-30.0H366.0V0.0H0.0ZM38.0 180.0V151.0H338.0V180.0H38.0ZM99.0 -175.0V-204.0H313.0V-175.0H99.0ZM301.0 -175.0V-181.0C273.0 -245.0 213.0 -371.0 165.0 -460.0L192.0 -470.0C240.0 -379.0 299.0 -258.0 333.0 -181.0L313.0 -172.0L307.0 -175.0H301.0ZM68.0 -354.0C138.0 -426.0 214.0 -524.0 248.0 -585.0L272.0 -570.0C237.0 -508.0 160.0 -413.0 92.0 -342.0L68.0 -354.0ZM177.0 310.0C153.0 154.0 111.0 -77.0 80.0 -204.0H110.0C138.0 -80.0 182.0 149.0 206.0 306.0L177.0 310.0Z"/></g>
<g fill="red" transform="translate(400 200) scale(0.1 -0.1)"><path d="M0.0 0.0V-131.0H359.0V0.0H0.0ZM19.0 190.0V59.0H334.0V190.0H19.0ZM65.0 -186.0V-321.0H255.0V-186.0H65.0ZM226.0 -186.0V-199.0C201.0 -267.0 150.0 -388.0 106.0 -481.0L227.0 -512.0C271.0 -418.0 321.0 -304.0 357.0 -206.0L263.0 -181.0L243.0 -186.0H226.0ZM16.0 -410.0C88.0 -485.0 171.0 -590.0 205.0 -659.0L313.0 -590.0C275.0 -520.0 188.0 -420.0 116.0 -349.0L16.0 -410.0ZM122.0 293.0C100.0 94.0 60.0 -164.0 25.0 -321.0H152.0C183.0 -171.0 223.0 81.0 250.0 282.0L122.0 293.0Z"/></g>
<g fill="black" opacity=".8" transform="translate(400 200) scale(0.1 -0.1)"><path d="M0.0 0.0V-132.0H359.0V0.0H0.0ZM20.0 190.0V60.0H335.0V190.0H20.0ZM64.0 -187.0V-322.0H255.0V-187.0H64.0ZM226.0 -185.0V-199.0C202.0 -267.0 151.0 -389.0 107.0 -481.0L228.0 -512.0C272.0 -418.0 321.0 -304.0 357.0 -206.0L264.0 -181.0L243.0 -185.0H226.0ZM16.0 -409.0C88.0 -486.0 171.0 -590.0 205.0 -659.0L313.0 -589.0C274.0 -519.0 188.0 -420.0 115.0 -350.0L16.0 -409.0ZM123.0 292.0C100.0 94.0 60.0 -164.0 25.0 -321.0H152.0C183.0 -171.0 224.0 81.0 250.0 282.0L123.0 292.0Z"/></g>
<g fill="red" transform="translate(500 200) scale(0.1 -0.1)"><path d="M0.0 0.0V-30.0H605.0V0.0H0.0ZM42.0 189.0V159.0H568.0V189.0H42.0ZM137.0 -184.0V-213.0H491.0V-184.0H137.0ZM482.0 -184.0V-189.0C433.0 -251.0 337.0 -367.0 260.0 -452.0L285.0 -466.0C363.0 -379.0 457.0 -267.0 517.0 -193.0L495.0 -181.0L489.0 -184.0H482.0ZM136.0 -370.0C230.0 -430.0 339.0 -521.0 393.0 -580.0L415.0 -557.0C362.0 -499.0 252.0 -412.0 156.0 -350.0L136.0 -370.0ZM274.0 318.0C231.0 158.0 161.0 -81.0 112.0 -213.0H145.0C190.0 -85.0 260.0 151.0 304.0 313.0L274.0 318.0Z"/></g>
<g fill="black" opacity=".8" transform="translate(500 200) scale(0.1 -0.1)"><path d="M0.0 0.0V-30.0H603.0V0.0H0.0ZM44.0 188.0V159.0H567.0V188.0H44.0ZM136.0 -184.0V-213.0H490.0V-184.0H136.0ZM481.0 -184.0V-189.0C432.0 -251.0 336.0 -367.0 259.0 -452.0L284.0 -467.0C362.0 -379.0 457.0 -266.0 516.0 -193.0L495.0 -181.0L489.0 -184.0H481.0ZM138.0 -372.0C231.0 -432.0 339.0 -521.0 392.0 -580.0L414.0 -557.0C362.0 -499.0 252.0 -414.0 158.0 -351.0L138.0 -372.0ZM274.0 318.0C231.0 158.0 160.0 -81.0 111.0 -213.0H144.0C189.0 -85.0 260.0 151.0 303.0 313.0L274.0 318.0Z"/></g>
<g fill="red" transform="translate(600 200) scale(0.1 -0.1)"><path d="M0.0 0.0V-134.0H625.0V0.0H0.0ZM30.0 186.0V54.0H592.0V186.0H30.0ZM156.0 -188.0V-323.0H508.0V-188.0H156.0ZM461.0 -188.0V-202.0C403.0 -272.0 289.0 -391.0 194.0 -483.0L322.0 -553.0C421.0 -454.0 531.0 -338.0 617.0 -241.0L509.0 -181.0L486.0 -188.0H461.0ZM56.0 -448.0C192.0 -512.0 358.0 -611.0 441.0 -675.0L527.0 -535.0C440.0 -475.0 279.0 -393.0 141.0 -336.0L56.0 -448.0ZM241.0 287.0C188.0 88.0 104.0 -166.0 41.0 -323.0H197.0C250.0 -178.0 327.0 66.0 385.0 266.0L241.0 287.0Z"/></g>
<g fill="black" opacity=".8" transform="translate(600 200) scale(0.1 -0.1)"><path d="M0.0 0.0V-134.0H625.0V0.0H0.0ZM31.0 186.0V55.0H593.0V186.0H31.0ZM155.0 -189.0V-324.0H508.0V-189.0H155.0ZM461.0 -187.0V-202.0C403.0 -272.0 290.0 -392.0 195.0 -483.0L323.0 -553.0C421.0 -454.0 531.0 -338.0 618.0 -241.0L510.0 -181.0L486.0 -187.0H461.0ZM56.0 -447.0C192.0 -513.0 358.0 -611.0 441.0 -675.0L527.0 -535.0C439.0 -475.0 279.0 -393.0 141.0 -336.0L56.0 -447.0ZM242.0 286.0C188.0 88.0 104.0 -165.0 41.0 -323.0H197.0C250.0 -178.0 327.0 66.0 386.0 266.0L242.0 286.0Z"/></g>
<g fill="red" transform="translate(700 200) scale(0.1 -0.1)"><path d="M0.0 0.0V-30.0H540.0V0.0H0.0ZM47.0 191.0V161.0H507.0V191.0H47.0ZM113.0 -184.0V-213.0H471.0V-184.0H113.0ZM461.0 -184.0V-189.0C418.0 -250.0 333.0 -365.0 264.0 -448.0L292.0 -461.0C360.0 -376.0 443.0 -265.0 494.0 -192.0L474.0 -181.0L468.0 -184.0H461.0ZM148.0 -375.0C234.0 -437.0 340.0 -528.0 396.0 -579.0L417.0 -554.0C364.0 -504.0 255.0 -417.0 168.0 -353.0L148.0 -375.0ZM239.0 318.0C199.0 158.0 132.0 -81.0 86.0 -213.0H119.0C162.0 -85.0 229.0 151.0 270.0 313.0L239.0 318.0Z"/></g>
<g fill="black" opacity=".8" transform="translate(700 200) scale(0.1 -0.1)"><path d="M0.0 0.0V-30.0H549.0V0.0H0.0ZM38.0 190.0V161.0H520.0V190.0H38.0ZM115.0 -184.0V-213.0H475.0V-184.0H115.0ZM464.0 -184.0V-189.0C421.0 -251.0 336.0 -367.0 268.0 -451.0L295.0 -464.0C364.0 -378.0 447.0 -265.0 497.0 -192.0L477.0 -181.0L471.0 -184.0H464.0ZM137.0 -355.0C230.0 -425.0 343.0 -525.0 400.0 -584.0L423.0 -560.0C367.0 -503.0 251.0 -406.0 157.0 -335.0L137.0 -355.0ZM243.0 318.0C204.0 158.0 138.0 -81.0 93.0 -213.0H125.0C167.0 -85.0 234.0 151.0 274.0 313.0L243.0 318.0Z"/></g>
<g fill="red" transform="translate(800 200) scale(0.1 -0.1)"><path d="M0.0 0.0V-134.0H572.0V0.0H0.0ZM42.0 186.0V54.0H529.0V186.0H42.0ZM100.0 -190.0V-325.0H440.0V-190.0H100.0ZM416.0 -190.0V-204.0C374.0 -273.0 287.0 -393.0 214.0 -485.0L343.0 -547.0C414.0 -449.0 494.0 -333.0 558.0 -232.0L459.0 -183.0L438.0 -190.0H416.0ZM72.0 -460.0C174.0 -520.0 297.0 -610.0 357.0 -668.0L438.0 -543.0C374.0 -489.0 254.0 -412.0 149.0 -357.0L72.0 -460.0ZM213.0 272.0C171.0 77.0 102.0 -171.0 49.0 -325.0H204.0C248.0 -182.0 311.0 57.0 358.0 254.0L213.0 272.0Z"/></g>
<g fill="black" opacity=".8" transform="translate(800 200) scale(0.1 -0.1)"><path d="M0.0 0.0V-134.0H566.0V0.0H0.0ZM35.0 187.0V55.0H522.0V187.0H35.0ZM106.0 -191.0V-326.0H439.0V-191.0H106.0ZM411.0 -190.0V-205.0C369.0 -274.0 281.0 -395.0 207.0 -487.0L336.0 -547.0C407.0 -449.0 489.0 -333.0 554.0 -233.0L455.0 -184.0L433.0 -190.0H411.0ZM70.0 -456.0C172.0 -519.0 297.0 -611.0 356.0 -670.0L441.0 -548.0C376.0 -492.0 256.0 -414.0 151.0 -357.0L70.0 -456.0ZM211.0 275.0C169.0 80.0 101.0 -171.0 48.0 -326.0H202.0C246.0 -182.0 308.0 60.0 355.0 258.0L211.0 275.0Z"/></g>
<g fill="red" transform="translate(900 200) scale(0.1 -0.1)"><path d="M0.0 0.0V-30.0H562.0V0.0H0.0ZM28.0 191.0V161.0H538.0V191.0H28.0ZM110.0 -184.0V-213.0H490.0V-184.0H110.0ZM479.0 -184.0V-189.0C435.0 -250.0 350.0 -365.0 282.0 -448.0L310.0 -461.0C378.0 -376.0 461.0 -265.0 512.0 -192.0L491.0 -181.0L485.0 -184.0H479.0ZM133.0 -334.0C233.0 -411.0 358.0 -521.0 422.0 -584.0L443.0 -559.0C382.0 -499.0 254.0 -391.0 152.0 -314.0L133.0 -334.0ZM244.0 318.0C204.0 158.0 137.0 -81.0 91.0 -213.0H124.0C167.0 -85.0 234.0 151.0 275.0 313.0L244.0 318.0Z"/></g>
<g fill="black" opacity=".8" transform="translate(900 200) scale(0.1 -0.1)"><path d="M0.0 0.0V-30.0H555.0V0.0H0.0ZM35.0 190.0V162.0H529.0V190.0H35.0ZM108.0 -184.0V-213.0H487.0V-184.0H108.0ZM476.0 -184.0V-189.0C432.0 -250.0 347.0 -364.0 278.0 -447.0L307.0 -460.0C375.0 -375.0 459.0 -264.0 509.0 -192.0L489.0 -181.0L483.0 -184.0H476.0ZM141.0 -348.0C237.0 -420.0 356.0 -523.0 418.0 -581.0L439.0 -555.0C380.0 -500.0 257.0 -400.0 160.0 -327.0L141.0 -348.0ZM241.0 318.0C200.0 158.0 132.0 -81.0 86.0 -213.0H119.0C162.0 -85.0 231.0 151.0 272.0 312.0L241.0 318.0Z"/></g>
<g fill="red" transform="translate(1000 200) scale(0.1 -0.1)"><path d="M0.0 0.0V-134.0H572.0V0.0H0.0ZM31.0 186.0V54.0H522.0V186.0H31.0ZM100.0 -189.0V-324.0H440.0V-189.0H100.0ZM416.0 -190.0V-204.0C374.0 -273.0 287.0 -393.0 214.0 -485.0L343.0 -547.0C414.0 -449.0 494.0 -333.0 558.0 -232.0L459.0 -183.0L438.0 -190.0H416.0ZM72.0 -460.0C174.0 -520.0 297.0 -610.0 357.0 -668.0L438.0 -543.0C374.0 -489.0 254.0 -412.0 149.0 -357.0L72.0 -460.0ZM213.0 272.0C171.0 77.0 102.0 -171.0 49.0 -325.0H204.0C248.0 -182.0 311.0 57.0 358.0 254.0L213.0 272.0Z"/></g>
<g fill="black" opacity=".8" transform="translate(1000 200) scale(0.1 -0.1)"><path d="M0.0 0.0V-134.0H575.0V0.0H0.0ZM36.0 185.0V54.0H527.0V185.0H36.0ZM95.0 -189.0V-324.0H441.0V-189.0H95.0ZM419.0 -189.0V-204.0C378.0 -273.0 292.0 -393.0 219.0 -484.0L349.0 -546.0C418.0 -448.0 497.0 -333.0 561.0 -232.0L463.0 -183.0L441.0 -189.0H419.0ZM73.0 -461.0C174.0 -522.0 298.0 -610.0 357.0 -667.0L436.0 -540.0C372.0 -487.0 253.0 -412.0 148.0 -357.0L73.0 -461.0ZM215.0 270.0C172.0 76.0 103.0 -171.0 49.0 -324.0H206.0C250.0 -182.0 313.0 56.0 361.0 251.0L215.0 270.0Z"/></g>
</svg>
