<?xml version="1.0" encoding="UTF-8"?>
<svg width="1700" height="1600" xmlns="http://www.w3.org/2000/svg">
<rect width="100%" height="100%" fill="white"/>
<g fill="green" transform="translate(100 100) scale(0.1 -0.1)"><path d="M0.0 -0.0V-31.0H426.0V0.0Z"/></g>
<g fill="green" transform="translate(200 100) scale(0.1 -0.1)"><path d="M0.0 0.0V-138.0H390.0V0.0Z"/></g>
<g fill="green" transform="translate(300 100) scale(0.1 -0.1)"><path d="M0.0 -0.0V-803.0H464.0V0.0Z"/></g>
<g fill="green" transform="translate(400 100) scale(0.1 -0.1)"><path d="M0.0 0.0V-931.0H566.0V0.0Z"/></g>
<g fill="green" transform="translate(500 100) scale(0.1 -0.1)"><path d="M0.0 0.0V-104.0H112.0V0.0Z"/></g>
<g fill="green" transform="translate(600 100) scale(0.1 -0.1)"><path d="M0.0 0.0V-197.0H-132.0V0.0Z"/></g>
<g fill="green" transform="translate(700 100) scale(0.1 -0.1)"><path d="M0.0 0.0V-123.0H276.0V0.0Z"/></g>
<g fill="green" transform="translate(800 100) scale(0.1 -0.1)"><path d="M0.0 0.0V-36.0H481.0V0.0Z"/></g>
<g fill="green" transform="translate(900 100) scale(0.1 -0.1)"><path d="M0.0 0.0V31.0H369.0V0.0Z"/></g>
<g fill="green" transform="translate(1000 100) scale(0.1 -0.1)"><path d="M0.0 0.0V-194.0H422.0V0.0Z"/></g>
<g fill="red" transform="translate(100 200) scale(0.1 -0.1)"><path d="M0.0 0.0V-617.0H30.0V0.0Z"/></g>
<g fill="black" opacity=".8" transform="translate(100 200) scale(0.1 -0.1)"><path d="M0.0 0.0V-617.0H30.0V0.0Z"/></g>
<g fill="red" transform="translate(200 200) scale(0.1 -0.1)"><path d="M0.0 0.0V-639.0H152.0V0.0Z"/></g>
<g fill="black" opacity=".8" transform="translate(200 200) scale(0.1 -0.1)"><path d="M0.0 0.0V-639.0H152.0V0.0Z"/></g>
<g fill="red" transform="translate(300 200) scale(0.1 -0.1)"><path d="M0.0 0.0V-852.0H31.0V0.0Z"/></g>
<g fill="black" opacity=".8" transform="translate(300 200) scale(0.1 -0.1)"><path d="M0.0 0.0V-852.0H31.0V0.0Z"/></g>
<g fill="red" transform="translate(400 200) scale(0.1 -0.1)"><path d="M0.0 0.0V-873.0H157.0V0.0Z"/></g>
<g fill="black" opacity=".8" transform="translate(400 200) scale(0.1 -0.1)"><path d="M0.0 0.0V-873.0H157.0V0.0Z"/></g>
<g fill="red" transform="translate(500 200) scale(0.1 -0.1)"><path d="M0.0 0.0V-803.0H30.0V0.0Z"/></g>
<g fill="black" opacity=".8" transform="translate(500 200) scale(0.1 -0.1)"><path d="M0.0 0.0V-803.0H30.0V0.0Z"/></g>
<g fill="red" transform="translate(600 200) scale(0.1 -0.1)"><path d="M0.0 0.0V-819.0H157.0V0.0Z"/></g>
<g fill="black" opacity=".8" transform="translate(600 200) scale(0.1 -0.1)"><path d="M0.0 0.0V-819.0H157.0V0.0Z"/></g>
<g fill="red" transform="translate(700 200) scale(0.1 -0.1)"><path d="M0.0 0.0V-793.0H30.0V0.0Z"/></g>
<g fill="black" opacity=".8" transform="translate(700 200) scale(0.1 -0.1)"><path d="M0.0 0.0V-793.0H30.0V0.0Z"/></g>
<g fill="red" transform="translate(800 200) scale(0.1 -0.1)"><path d="M0.0 0.0V-774.0H160.0V0.0Z"/></g>
<g fill="black" opacity=".8" transform="translate(800 200) scale(0.1 -0.1)"><path d="M0.0 0.0V-774.0H160.0V0.0Z"/></g>
<g fill="red" transform="translate(900 200) scale(0.1 -0.1)"><path d="M0.0 0.0V-886.0H29.0V0.0Z"/></g>
<g fill="black" opacity=".8" transform="translate(900 200) scale(0.1 -0.1)"><path d="M0.0 0.0V-886.0H29.0V0.0Z"/></g>
<g fill="red" transform="translate(1000 200) scale(0.1 -0.1)"><path d="M0.0 0.0V-918.0H148.0V0.0Z"/></g>
<g fill="black" opacity=".8" transform="translate(1000 200) scale(0.1 -0.1)"><path d="M0.0 0.0V-918.0H148.0V0.0Z"/></g>
<g fill="red" transform="translate(1100 200) scale(0.1 -0.1)"><path d="M0.0 0.0V-635.0H30.0V0.0Z"/></g>
<g fill="black" opacity=".8" transform="translate(1100 200) scale(0.1 -0.1)"><path d="M0.0 0.0V-635.0H30.0V0.0Z"/></g>
<g fill="red" transform="translate(1200 200) scale(0.1 -0.1)"><path d="M0.0 0.0V-608.0H152.0V0.0Z"/></g>
<g fill="black" opacity=".8" transform="translate(1200 200) scale(0.1 -0.1)"><path d="M0.0 0.0V-608.0H152.0V0.0Z"/></g>
<g fill="red" transform="translate(1300 200) scale(0.1 -0.1)"><path d="M0.0 0.0V-573.0H31.0V0.0Z"/></g>
<g fill="black" opacity=".8" transform="translate(1300 200) scale(0.1 -0.1)"><path d="M0.0 0.0V-573.0H31.0V0.0Z"/></g>
<g fill="red" transform="translate(1400 200) scale(0.1 -0.1)"><path d="M0.0 0.0V-617.0H155.0V0.0Z"/></g>
<g fill="black" opacity=".8" transform="translate(1400 200) scale(0.1 -0.1)"><path d="M0.0 0.0V-617.0H155.0V0.0Z"/></g>
<g fill="red" transform="translate(1500 200) scale(0.1 -0.1)"><path d="M0.0 0.0V-899.0H30.0V0.0Z"/></g>
<g fill="black" opacity=".8" transform="translate(1500 200) scale(0.1 -0.1)"><path d="M0.0 0.0V-899.0H30.0V0.0Z"/></g>
<g fill="red" transform="translate(1600 200) scale(0.1 -0.1)"><path d="M0.0 0.0V-950.0H154.0V0.0Z"/></g>
<g fill="black" opacity=".8" transform="translate(1600 200) scale(0.1 -0.1)"><path d="M0.0 0.0V-950.0H154.0V0.0Z"/></g>
<g fill="red" transform="translate(100 300) scale(0.1 -0.1)"><path d="M0.0 0.0V-890.0H29.0V0.0Z"/></g>
<g fill="black" opacity=".8" transform="translate(100 300) scale(0.1 -0.1)"><path d="M0.0 0.0V-890.0H29.0V0.0Z"/></g>
<g fill="red" transform="translate(200 300) scale(0.1 -0.1)"><path d="M0.0 0.0V-936.0H145.0V0.0Z"/></g>
<g fill="black" opacity=".8" transform="translate(200 300) scale(0.1 -0.1)"><path d="M0.0 0.0V-936.0H145.0V0.0Z"/></g>
<g fill="red" transform="translate(300 300) scale(0.1 -0.1)"><path d="M0.0 0.0V-825.0H30.0V0.0Z"/></g>
<g fill="black" opacity=".8" transform="translate(300 300) scale(0.1 -0.1)"><path d="M0.0 0.0V-825.0H30.0V0.0Z"/></g>
<g fill="red" transform="translate(400 300) scale(0.1 -0.1)"><path d="M0.0 0.0V-873.0H149.0V0.0Z"/></g>
<g fill="black" opacity=".8" transform="translate(400 300) scale(0.1 -0.1)"><path d="M0.0 0.0V-873.0H149.0V0.0Z"/></g>
<g fill="red" transform="translate(500 300) scale(0.1 -0.1)"><path d="M0.0 0.0V-555.0H29.0V0.0Z"/></g>
<g fill="black" opacity=".8" transform="translate(500 300) scale(0.1 -0.1)"><path d="M0.0 0.0V-555.0H29.0V0.0Z"/></g>
<g fill="red" transform="translate(600 300) scale(0.1 -0.1)"><path d="M0.0 0.0V-522.0H147.0V0.0Z"/></g>
<g fill="black" opacity=".8" transform="translate(600 300) scale(0.1 -0.1)"><path d="M0.0 0.0V-522.0H147.0V0.0Z"/></g>
<g fill="red" transform="translate(700 300) scale(0.1 -0.1)"><path d="M0.0 0.0V-596.0H30.0V0.0Z"/></g>
<g fill="black" opacity=".8" transform="translate(700 300) scale(0.1 -0.1)"><path d="M0.0 0.0V-596.0H30.0V0.0Z"/></g>
<g fill="red" transform="translate(800 300) scale(0.1 -0.1)"><path d="M0.0 0.0V-603.0H118.0V0.0Z"/></g>
<g fill="black" opacity=".8" transform="translate(800 300) scale(0.1 -0.1)"><path d="M0.0 0.0V-603.0H118.0V0.0Z"/></g>
<g fill="red" transform="translate(900 300) scale(0.1 -0.1)"><path d="M0.0 0.0V-344.0H30.0V0.0Z"/></g>
<g fill="black" opacity=".8" transform="translate(900 300) scale(0.1 -0.1)"><path d="M0.0 0.0V-344.0H30.0V0.0Z"/></g>
<g fill="red" transform="translate(1000 300) scale(0.1 -0.1)"><path d="M0.0 0.0V-374.0H144.0V0.0Z"/></g>
<g fill="black" opacity=".8" transform="translate(1000 300) scale(0.1 -0.1)"><path d="M0.0 0.0V-374.0H144.0V0.0Z"/></g>
<g fill="red" transform="translate(1100 300) scale(0.1 -0.1)"><path d="M0.0 0.0V-899.0H29.0V0.0Z"/></g>
<g fill="black" opacity=".8" transform="translate(1100 300) scale(0.1 -0.1)"><path d="M0.0 0.0V-899.0H29.0V0.0Z"/></g>
<g fill="red" transform="translate(1200 300) scale(0.1 -0.1)"><path d="M0.0 0.0V-950.0H147.0V0.0Z"/></g>
<g fill="black" opacity=".8" transform="translate(1200 300) scale(0.1 -0.1)"><path d="M0.0 0.0V-950.0H147.0V0.0Z"/></g>
<g fill="red" transform="translate(1300 300) scale(0.1 -0.1)"><path d="M0.0 0.0V-203.0H30.0V0.0Z"/></g>
<g fill="black" opacity=".8" transform="translate(1300 300) scale(0.1 -0.1)"><path d="M0.0 0.0V-203.0H30.0V0.0Z"/></g>
<g fill="red" transform="translate(1400 300) scale(0.1 -0.1)"><path d="M0.0 0.0V-266.0H147.0V0.0Z"/></g>
<g fill="black" opacity=".8" transform="translate(1400 300) scale(0.1 -0.1)"><path d="M0.0 0.0V-266.0H147.0V0.0Z"/></g>
<g fill="red" transform="translate(1500 300) scale(0.1 -0.1)"><path d="M0.0 0.0V-547.0H30.0V0.0Z"/></g>
<g fill="black" opacity=".8" transform="translate(1500 300) scale(0.1 -0.1)"><path d="M0.0 0.0V-547.0H30.0V0.0Z"/></g>
<g fill="red" transform="translate(1600 300) scale(0.1 -0.1)"><path d="M0.0 0.0V-567.0H139.0V0.0Z"/></g>
<g fill="black" opacity=".8" transform="translate(1600 300) scale(0.1 -0.1)"><path d="M0.0 0.0V-567.0H139.0V0.0Z"/></g>
<g fill="red" transform="translate(100 400) scale(0.1 -0.1)"><path d="M0.0 0.0V-878.0H29.0V0.0Z"/></g>
<g fill="black" opacity=".8" transform="translate(100 400) scale(0.1 -0.1)"><path d="M0.0 0.0V-878.0H29.0V0.0Z"/></g>
<g fill="red" transform="translate(200 400) scale(0.1 -0.1)"><path d="M0.0 0.0V-941.0H137.0V0.0Z"/></g>
<g fill="black" opacity=".8" transform="translate(200 400) scale(0.1 -0.1)"><path d="M0.0 0.0V-941.0H137.0V0.0Z"/></g>
<g fill="red" transform="translate(300 400) scale(0.1 -0.1)"><path d="M0.0 0.0V-441.0H30.0V0.0Z"/></g>
<g fill="black" opacity=".8" transform="translate(300 400) scale(0.1 -0.1)"><path d="M0.0 0.0V-441.0H30.0V0.0Z"/></g>
<g fill="red" transform="translate(400 400) scale(0.1 -0.1)"><path d="M0.0 0.0V-446.0H133.0V0.0Z"/></g>
<g fill="black" opacity=".8" transform="translate(400 400) scale(0.1 -0.1)"><path d="M0.0 0.0V-446.0H133.0V0.0Z"/></g>
<g fill="red" transform="translate(500 400) scale(0.1 -0.1)"><path d="M0.0 0.0V-300.0H30.0V0.0Z"/></g>
<g fill="black" opacity=".8" transform="translate(500 400) scale(0.1 -0.1)"><path d="M0.0 0.0V-300.0H30.0V0.0Z"/></g>
<g fill="red" transform="translate(600 400) scale(0.1 -0.1)"><path d="M0.0 0.0V-270.0H144.0V0.0Z"/></g>
<g fill="black" opacity=".8" transform="translate(600 400) scale(0.1 -0.1)"><path d="M0.0 0.0V-270.0H144.0V0.0Z"/></g>
<g fill="red" transform="translate(700 400) scale(0.1 -0.1)"><path d="M0.0 0.0V-543.0H30.0V0.0Z"/></g>
<g fill="black" opacity=".8" transform="translate(700 400) scale(0.1 -0.1)"><path d="M0.0 0.0V-543.0H30.0V0.0Z"/></g>
<g fill="red" transform="translate(800 400) scale(0.1 -0.1)"><path d="M0.0 0.0V-576.0H150.0V0.0Z"/></g>
<g fill="black" opacity=".8" transform="translate(800 400) scale(0.1 -0.1)"><path d="M0.0 0.0V-576.0H150.0V0.0Z"/></g>
<g fill="red" transform="translate(900 400) scale(0.1 -0.1)"><path d="M0.0 0.0V-555.0H29.0V0.0Z"/></g>
<g fill="black" opacity=".8" transform="translate(900 400) scale(0.1 -0.1)"><path d="M0.0 0.0V-555.0H29.0V0.0Z"/></g>
<g fill="red" transform="translate(1000 400) scale(0.1 -0.1)"><path d="M0.0 0.0V-522.0H150.0V0.0Z"/></g>
<g fill="black" opacity=".8" transform="translate(1000 400) scale(0.1 -0.1)"><path d="M0.0 0.0V-522.0H150.0V0.0Z"/></g>
<g fill="red" transform="translate(1100 400) scale(0.1 -0.1)"><path d="M0.0 0.0V-870.0H29.0V0.0Z"/></g>
<g fill="black" opacity=".8" transform="translate(1100 400) scale(0.1 -0.1)"><path d="M0.0 0.0V-870.0H29.0V0.0Z"/></g>
<g fill="red" transform="translate(1200 400) scale(0.1 -0.1)"><path d="M0.0 0.0V-918.0H137.0V0.0Z"/></g>
<g fill="black" opacity=".8" transform="translate(1200 400) scale(0.1 -0.1)"><path d="M0.0 0.0V-918.0H137.0V0.0Z"/></g>
<g fill="red" transform="translate(1300 400) scale(0.1 -0.1)"><path d="M0.0 0.0V-287.0H30.0V0.0Z"/></g>
<g fill="black" opacity=".8" transform="translate(1300 400) scale(0.1 -0.1)"><path d="M0.0 0.0V-287.0H30.0V0.0Z"/></g>
<g fill="red" transform="translate(1400 400) scale(0.1 -0.1)"><path d="M0.0 0.0V-297.0H139.0V0.0Z"/></g>
<g fill="black" opacity=".8" transform="translate(1400 400) scale(0.1 -0.1)"><path d="M0.0 0.0V-297.0H139.0V0.0Z"/></g>
<g fill="red" transform="translate(1500 400) scale(0.1 -0.1)"><path d="M0.0 0.0V-551.0H29.0V0.0Z"/></g>
<g fill="black" opacity=".8" transform="translate(1500 400) scale(0.1 -0.1)"><path d="M0.0 0.0V-551.0H29.0V0.0Z"/></g>
<g fill="red" transform="translate(1600 400) scale(0.1 -0.1)"><path d="M0.0 0.0V-545.0H126.0V0.0Z"/></g>
<g fill="black" opacity=".8" transform="translate(1600 400) scale(0.1 -0.1)"><path d="M0.0 0.0V-545.0H126.0V0.0Z"/></g>
<g fill="red" transform="translate(100 500) scale(0.1 -0.1)"><path d="M0.0 0.0V-375.0H29.0V0.0Z"/></g>
<g fill="black" opacity=".8" transform="translate(100 500) scale(0.1 -0.1)"><path d="M0.0 0.0V-375.0H29.0V0.0Z"/></g>
<g fill="red" transform="translate(200 500) scale(0.1 -0.1)"><path d="M0.0 0.0V-401.0H139.0V0.0Z"/></g>
<g fill="black" opacity=".8" transform="translate(200 500) scale(0.1 -0.1)"><path d="M0.0 0.0V-401.0H139.0V0.0Z"/></g>
<g fill="red" transform="translate(300 500) scale(0.1 -0.1)"><path d="M0.0 0.0V-344.0H29.0V0.0Z"/></g>
<g fill="black" opacity=".8" transform="translate(300 500) scale(0.1 -0.1)"><path d="M0.0 0.0V-344.0H29.0V0.0Z"/></g>
<g fill="red" transform="translate(400 500) scale(0.1 -0.1)"><path d="M0.0 0.0V-329.0H142.0V0.0Z"/></g>
<g fill="black" opacity=".8" transform="translate(400 500) scale(0.1 -0.1)"><path d="M0.0 0.0V-329.0H142.0V0.0Z"/></g>
<g fill="red" transform="translate(500 500) scale(0.1 -0.1)"><path d="M0.0 0.0V-313.0H29.0V0.0Z"/></g>
<g fill="black" opacity=".8" transform="translate(500 500) scale(0.1 -0.1)"><path d="M0.0 0.0V-313.0H29.0V0.0Z"/></g>
<g fill="red" transform="translate(600 500) scale(0.1 -0.1)"><path d="M0.0 0.0V-311.0H143.0V0.0Z"/></g>
<g fill="black" opacity=".8" transform="translate(600 500) scale(0.1 -0.1)"><path d="M0.0 0.0V-311.0H143.0V0.0Z"/></g>
<g fill="red" transform="translate(700 500) scale(0.1 -0.1)"><path d="M0.0 0.0V-352.0H30.0V0.0Z"/></g>
<g fill="black" opacity=".8" transform="translate(700 500) scale(0.1 -0.1)"><path d="M0.0 0.0V-352.0H30.0V0.0Z"/></g>
<g fill="red" transform="translate(800 500) scale(0.1 -0.1)"><path d="M0.0 0.0V-338.0H133.0V0.0Z"/></g>
<g fill="black" opacity=".8" transform="translate(800 500) scale(0.1 -0.1)"><path d="M0.0 0.0V-338.0H133.0V0.0Z"/></g>
<g fill="red" transform="translate(900 500) scale(0.1 -0.1)"><path d="M0.0 0.0V-252.0H29.0V0.0Z"/></g>
<g fill="black" opacity=".8" transform="translate(900 500) scale(0.1 -0.1)"><path d="M0.0 0.0V-252.0H29.0V0.0Z"/></g>
<g fill="red" transform="translate(1000 500) scale(0.1 -0.1)"><path d="M0.0 0.0V-285.0H139.0V0.0Z"/></g>
<g fill="black" opacity=".8" transform="translate(1000 500) scale(0.1 -0.1)"><path d="M0.0 0.0V-285.0H139.0V0.0Z"/></g>
<g fill="red" transform="translate(1100 500) scale(0.1 -0.1)"><path d="M0.0 0.0V-296.0H30.0V0.0Z"/></g>
<g fill="black" opacity=".8" transform="translate(1100 500) scale(0.1 -0.1)"><path d="M0.0 0.0V-296.0H30.0V0.0Z"/></g>
<g fill="red" transform="translate(1200 500) scale(0.1 -0.1)"><path d="M0.0 0.0V-261.0H148.0V0.0Z"/></g>
<g fill="black" opacity=".8" transform="translate(1200 500) scale(0.1 -0.1)"><path d="M0.0 0.0V-261.0H148.0V0.0Z"/></g>
<g fill="red" transform="translate(1300 500) scale(0.1 -0.1)"><path d="M0.0 0.0V-393.0H29.0V0.0Z"/></g>
<g fill="black" opacity=".8" transform="translate(1300 500) scale(0.1 -0.1)"><path d="M0.0 0.0V-393.0H29.0V0.0Z"/></g>
<g fill="red" transform="translate(1400 500) scale(0.1 -0.1)"><path d="M0.0 0.0V-410.0H139.0V0.0Z"/></g>
<g fill="black" opacity=".8" transform="translate(1400 500) scale(0.1 -0.1)"><path d="M0.0 0.0V-410.0H139.0V0.0Z"/></g>
<g fill="red" transform="translate(1500 500) scale(0.1 -0.1)"><path d="M0.0 0.0V-291.0H30.0V0.0Z"/></g>
<g fill="black" opacity=".8" transform="translate(1500 500) scale(0.1 -0.1)"><path d="M0.0 0.0V-291.0H30.0V0.0Z"/></g>
<g fill="red" transform="translate(1600 500) scale(0.1 -0.1)"><path d="M0.0 0.0V-243.0H134.0V0.0Z"/></g>
<g fill="black" opacity=".8" transform="translate(1600 500) scale(0.1 -0.1)"><path d="M0.0 0.0V-243.0H134.0V0.0Z"/></g>
<g fill="red" transform="translate(100 600) scale(0.1 -0.1)"><path d="M0.0 0.0V-825.0H30.0V0.0Z"/></g>
<g fill="black" opacity=".8" transform="translate(100 600) scale(0.1 -0.1)"><path d="M0.0 0.0V-825.0H30.0V0.0Z"/></g>
<g fill="red" transform="translate(200 600) scale(0.1 -0.1)"><path d="M0.0 0.0V-855.0H149.0V0.0Z"/></g>
<g fill="black" opacity=".8" transform="translate(200 600) scale(0.1 -0.1)"><path d="M0.0 0.0V-855.0H149.0V0.0Z"/></g>
<g fill="red" transform="translate(300 600) scale(0.1 -0.1)"><path d="M0.0 0.0V-895.0H29.0V0.0Z"/></g>
<g fill="black" opacity=".8" transform="translate(300 600) scale(0.1 -0.1)"><path d="M0.0 0.0V-895.0H29.0V0.0Z"/></g>
<g fill="red" transform="translate(400 600) scale(0.1 -0.1)"><path d="M0.0 0.0V-932.0H147.0V0.0Z"/></g>
<g fill="black" opacity=".8" transform="translate(400 600) scale(0.1 -0.1)"><path d="M0.0 0.0V-932.0H147.0V0.0Z"/></g>
<g fill="red" transform="translate(500 600) scale(0.1 -0.1)"><path d="M0.0 0.0V-344.0H30.0V0.0Z"/></g>
<g fill="black" opacity=".8" transform="translate(500 600) scale(0.1 -0.1)"><path d="M0.0 0.0V-344.0H30.0V0.0Z"/></g>
<g fill="red" transform="translate(600 600) scale(0.1 -0.1)"><path d="M0.0 0.0V-374.0H142.0V0.0Z"/></g>
<g fill="black" opacity=".8" transform="translate(600 600) scale(0.1 -0.1)"><path d="M0.0 0.0V-374.0H142.0V0.0Z"/></g>
<g fill="red" transform="translate(700 600) scale(0.1 -0.1)"><path d="M0.0 0.0V-899.0H30.0V0.0Z"/></g>
<g fill="black" opacity=".8" transform="translate(700 600) scale(0.1 -0.1)"><path d="M0.0 0.0V-899.0H30.0V0.0Z"/></g>
<g fill="red" transform="translate(800 600) scale(0.1 -0.1)"><path d="M0.0 0.0V-950.0H143.0V0.0Z"/></g>
<g fill="black" opacity=".8" transform="translate(800 600) scale(0.1 -0.1)"><path d="M0.0 0.0V-950.0H143.0V0.0Z"/></g>
<g fill="red" transform="translate(900 600) scale(0.1 -0.1)"><path d="M0.0 0.0V-555.0H29.0V0.0Z"/></g>
<g fill="black" opacity=".8" transform="translate(900 600) scale(0.1 -0.1)"><path d="M0.0 0.0V-555.0H29.0V0.0Z"/></g>
<g fill="red" transform="translate(1000 600) scale(0.1 -0.1)"><path d="M0.0 0.0V-531.0H150.0V0.0Z"/></g>
<g fill="black" opacity=".8" transform="translate(1000 600) scale(0.1 -0.1)"><path d="M0.0 0.0V-531.0H150.0V0.0Z"/></g>
<g fill="red" transform="translate(1100 600) scale(0.1 -0.1)"><path d="M0.0 0.0V-300.0H29.0V0.0Z"/></g>
<g fill="black" opacity=".8" transform="translate(1100 600) scale(0.1 -0.1)"><path d="M0.0 0.0V-300.0H29.0V0.0Z"/></g>
<g fill="red" transform="translate(1200 600) scale(0.1 -0.1)"><path d="M0.0 0.0V-297.0H147.0V0.0Z"/></g>
<g fill="black" opacity=".8" transform="translate(1200 600) scale(0.1 -0.1)"><path d="M0.0 0.0V-297.0H147.0V0.0Z"/></g>
<g fill="red" transform="translate(1300 600) scale(0.1 -0.1)"><path d="M0.0 0.0V-361.0H29.0V0.0Z"/></g>
<g fill="black" opacity=".8" transform="translate(1300 600) scale(0.1 -0.1)"><path d="M0.0 0.0V-361.0H29.0V0.0Z"/></g>
<g fill="red" transform="translate(1400 600) scale(0.1 -0.1)"><path d="M0.0 0.0V-374.0H141.0V0.0Z"/></g>
<g fill="black" opacity=".8" transform="translate(1400 600) scale(0.1 -0.1)"><path d="M0.0 0.0V-374.0H141.0V0.0Z"/></g>
<g fill="red" transform="translate(1500 600) scale(0.1 -0.1)"><path d="M0.0 0.0V-512.0H29.0V0.0Z"/></g>
<g fill="black" opacity=".8" transform="translate(1500 600) scale(0.1 -0.1)"><path d="M0.0 0.0V-512.0H29.0V0.0Z"/></g>
<g fill="red" transform="translate(1600 600) scale(0.1 -0.1)"><path d="M0.0 0.0V-423.0H116.0V0.0Z"/></g>
<g fill="black" opacity=".8" transform="translate(1600 600) scale(0.1 -0.1)"><path d="M0.0 0.0V-423.0H116.0V0.0Z"/></g>
<g fill="red" transform="translate(100 700) scale(0.1 -0.1)"><path d="M0.0 0.0V-340.0H30.0V0.0Z"/></g>
<g fill="black" opacity=".8" transform="translate(100 700) scale(0.1 -0.1)"><path d="M0.0 0.0V-340.0H30.0V0.0Z"/></g>
<g fill="red" transform="translate(200 700) scale(0.1 -0.1)"><path d="M0.0 0.0V-365.0H133.0V0.0Z"/></g>
<g fill="black" opacity=".8" transform="translate(200 700) scale(0.1 -0.1)"><path d="M0.0 0.0V-365.0H133.0V0.0Z"/></g>
<g fill="red" transform="translate(300 700) scale(0.1 -0.1)"><path d="M0.0 0.0V-543.0H30.0V0.0Z"/></g>
<g fill="black" opacity=".8" transform="translate(300 700) scale(0.1 -0.1)"><path d="M0.0 0.0V-543.0H30.0V0.0Z"/></g>
<g fill="red" transform="translate(400 700) scale(0.1 -0.1)"><path d="M0.0 0.0V-540.0H144.0V0.0Z"/></g>
<g fill="black" opacity=".8" transform="translate(400 700) scale(0.1 -0.1)"><path d="M0.0 0.0V-540.0H144.0V0.0Z"/></g>
<g fill="red" transform="translate(500 700) scale(0.1 -0.1)"><path d="M0.0 0.0V-551.0H29.0V0.0Z"/></g>
<g fill="black" opacity=".8" transform="translate(500 700) scale(0.1 -0.1)"><path d="M0.0 0.0V-551.0H29.0V0.0Z"/></g>
<g fill="red" transform="translate(600 700) scale(0.1 -0.1)"><path d="M0.0 0.0V-563.0H145.0V0.0Z"/></g>
<g fill="black" opacity=".8" transform="translate(600 700) scale(0.1 -0.1)"><path d="M0.0 0.0V-563.0H145.0V0.0Z"/></g>
<g fill="red" transform="translate(700 700) scale(0.1 -0.1)"><path d="M0.0 0.0V-596.0H29.0V0.0Z"/></g>
<g fill="black" opacity=".8" transform="translate(700 700) scale(0.1 -0.1)"><path d="M0.0 0.0V-596.0H29.0V0.0Z"/></g>
<g fill="red" transform="translate(800 700) scale(0.1 -0.1)"><path d="M0.0 0.0V-603.0H112.0V0.0Z"/></g>
<g fill="black" opacity=".8" transform="translate(800 700) scale(0.1 -0.1)"><path d="M0.0 0.0V-603.0H112.0V0.0Z"/></g>
<g fill="red" transform="translate(900 700) scale(0.1 -0.1)"><path d="M0.0 0.0V-520.0H30.0V0.0Z"/></g>
<g fill="black" opacity=".8" transform="translate(900 700) scale(0.1 -0.1)"><path d="M0.0 0.0V-520.0H30.0V0.0Z"/></g>
<g fill="red" transform="translate(1000 700) scale(0.1 -0.1)"><path d="M0.0 0.0V-531.0H160.0V0.0Z"/></g>
<g fill="black" opacity=".8" transform="translate(1000 700) scale(0.1 -0.1)"><path d="M0.0 0.0V-531.0H160.0V0.0Z"/></g>
<g fill="red" transform="translate(1100 700) scale(0.1 -0.1)"><path d="M0.0 0.0V-560.0H31.0V0.0Z"/></g>
<g fill="black" opacity=".8" transform="translate(1100 700) scale(0.1 -0.1)"><path d="M0.0 0.0V-560.0H31.0V0.0Z"/></g>
<g fill="red" transform="translate(1200 700) scale(0.1 -0.1)"><path d="M0.0 0.0V-558.0H153.0V0.0Z"/></g>
<g fill="black" opacity=".8" transform="translate(1200 700) scale(0.1 -0.1)"><path d="M0.0 0.0V-558.0H153.0V0.0Z"/></g>
<g fill="red" transform="translate(1300 700) scale(0.1 -0.1)"><path d="M0.0 0.0V-555.0H29.0V0.0Z"/></g>
<g fill="black" opacity=".8" transform="translate(1300 700) scale(0.1 -0.1)"><path d="M0.0 0.0V-555.0H29.0V0.0Z"/></g>
<g fill="red" transform="translate(1400 700) scale(0.1 -0.1)"><path d="M0.0 0.0V-522.0H133.0V0.0Z"/></g>
<g fill="black" opacity=".8" transform="translate(1400 700) scale(0.1 -0.1)"><path d="M0.0 0.0V-522.0H133.0V0.0Z"/></g>
<g fill="red" transform="translate(1500 700) scale(0.1 -0.1)"><path d="M0.0 0.0V-29.0H424.0V0.0Z"/></g>
<g fill="black" opacity=".8" transform="translate(1500 700) scale(0.1 -0.1)"><path d="M0.0 0.0V-29.0H424.0V0.0Z"/></g>
<g fill="red" transform="translate(1600 700) scale(0.1 -0.1)"><path d="M0.0 0.0V-140.0H391.0V0.0Z"/></g>
<g fill="black" opacity=".8" transform="translate(1600 700) scale(0.1 -0.1)"><path d="M0.0 0.0V-140.0H391.0V0.0Z"/></g>
<g fill="red" transform="translate(100 800) scale(0.1 -0.1)"><path d="M0.0 0.0V-555.0H30.0V0.0Z"/></g>
<g fill="black" opacity=".8" transform="translate(100 800) scale(0.1 -0.1)"><path d="M0.0 0.0V-555.0H30.0V0.0Z"/></g>
<g fill="red" transform="translate(200 800) scale(0.1 -0.1)"><path d="M0.0 0.0V-563.0H126.0V0.0Z"/></g>
<g fill="black" opacity=".8" transform="translate(200 800) scale(0.1 -0.1)"><path d="M0.0 0.0V-563.0H126.0V0.0Z"/></g>
<g fill="red" transform="translate(300 800) scale(0.1 -0.1)"><path d="M0.0 0.0V-551.0H29.0V0.0Z"/></g>
<g fill="black" opacity=".8" transform="translate(300 800) scale(0.1 -0.1)"><path d="M0.0 0.0V-551.0H29.0V0.0Z"/></g>
<g fill="red" transform="translate(400 800) scale(0.1 -0.1)"><path d="M0.0 0.0V-563.0H136.0V0.0Z"/></g>
<g fill="black" opacity=".8" transform="translate(400 800) scale(0.1 -0.1)"><path d="M0.0 0.0V-563.0H136.0V0.0Z"/></g>
<g fill="red" transform="translate(500 800) scale(0.1 -0.1)"><path d="M0.0 0.0V-349.0H29.0V0.0Z"/></g>
<g fill="black" opacity=".8" transform="translate(500 800) scale(0.1 -0.1)"><path d="M0.0 0.0V-349.0H29.0V0.0Z"/></g>
<g fill="red" transform="translate(600 800) scale(0.1 -0.1)"><path d="M0.0 0.0V-365.0H131.0V0.0Z"/></g>
<g fill="black" opacity=".8" transform="translate(600 800) scale(0.1 -0.1)"><path d="M0.0 0.0V-365.0H131.0V0.0Z"/></g>
<g fill="red" transform="translate(700 800) scale(0.1 -0.1)"><path d="M0.0 0.0V-855.0H31.0V0.0Z"/></g>
<g fill="black" opacity=".8" transform="translate(700 800) scale(0.1 -0.1)"><path d="M0.0 0.0V-855.0H31.0V0.0Z"/></g>
<g fill="red" transform="translate(800 800) scale(0.1 -0.1)"><path d="M0.0 0.0V-918.0H154.0V0.0Z"/></g>
<g fill="black" opacity=".8" transform="translate(800 800) scale(0.1 -0.1)"><path d="M0.0 0.0V-918.0H154.0V0.0Z"/></g>
<g fill="red" transform="translate(900 800) scale(0.1 -0.1)"><path d="M0.0 0.0V-353.0H29.0V0.0Z"/></g>
<g fill="black" opacity=".8" transform="translate(900 800) scale(0.1 -0.1)"><path d="M0.0 0.0V-353.0H29.0V0.0Z"/></g>
<g fill="red" transform="translate(1000 800) scale(0.1 -0.1)"><path d="M0.0 0.0V-401.0H152.0V0.0Z"/></g>
<g fill="black" opacity=".8" transform="translate(1000 800) scale(0.1 -0.1)"><path d="M0.0 0.0V-401.0H152.0V0.0Z"/></g>
<g fill="red" transform="translate(1100 800) scale(0.1 -0.1)"><path d="M0.0 0.0V-555.0H29.0V0.0Z"/></g>
<g fill="black" opacity=".8" transform="translate(1100 800) scale(0.1 -0.1)"><path d="M0.0 0.0V-555.0H29.0V0.0Z"/></g>
<g fill="red" transform="translate(1200 800) scale(0.1 -0.1)"><path d="M0.0 0.0V-536.0H149.0V0.0Z"/></g>
<g fill="black" opacity=".8" transform="translate(1200 800) scale(0.1 -0.1)"><path d="M0.0 0.0V-536.0H149.0V0.0Z"/></g>
<g fill="red" transform="translate(1300 800) scale(0.1 -0.1)"><path d="M0.0 0.0V-264.0H30.0V0.0Z"/></g>
<g fill="black" opacity=".8" transform="translate(1300 800) scale(0.1 -0.1)"><path d="M0.0 0.0V-264.0H30.0V0.0Z"/></g>
<g fill="red" transform="translate(1400 800) scale(0.1 -0.1)"><path d="M0.0 0.0V-275.0H139.0V0.0Z"/></g>
<g fill="black" opacity=".8" transform="translate(1400 800) scale(0.1 -0.1)"><path d="M0.0 0.0V-275.0H139.0V0.0Z"/></g>
<g fill="red" transform="translate(1500 800) scale(0.1 -0.1)"><path d="M0.0 0.0V-551.0H29.0V0.0Z"/></g>
<g fill="black" opacity=".8" transform="translate(1500 800) scale(0.1 -0.1)"><path d="M0.0 0.0V-551.0H29.0V0.0Z"/></g>
<g fill="red" transform="translate(1600 800) scale(0.1 -0.1)"><path d="M0.0 0.0V-545.0H128.0V0.0Z"/></g>
<g fill="black" opacity=".8" transform="translate(1600 800) scale(0.1 -0.1)"><path d="M0.0 0.0V-545.0H128.0V0.0Z"/></g>
<g fill="red" transform="translate(100 900) scale(0.1 -0.1)"><path d="M0.0 0.0V-269.0H30.0V0.0Z"/></g>
<g fill="black" opacity=".8" transform="translate(100 900) scale(0.1 -0.1)"><path d="M0.0 0.0V-269.0H30.0V0.0Z"/></g>
<g fill="red" transform="translate(200 900) scale(0.1 -0.1)"><path d="M0.0 0.0V-275.0H129.0V0.0Z"/></g>
<g fill="black" opacity=".8" transform="translate(200 900) scale(0.1 -0.1)"><path d="M0.0 0.0V-275.0H129.0V0.0Z"/></g>
<g fill="red" transform="translate(300 900) scale(0.1 -0.1)"><path d="M0.0 0.0V-543.0H29.0V0.0Z"/></g>
<g fill="black" opacity=".8" transform="translate(300 900) scale(0.1 -0.1)"><path d="M0.0 0.0V-543.0H29.0V0.0Z"/></g>
<g fill="red" transform="translate(400 900) scale(0.1 -0.1)"><path d="M0.0 0.0V-549.0H138.0V0.0Z"/></g>
<g fill="black" opacity=".8" transform="translate(400 900) scale(0.1 -0.1)"><path d="M0.0 0.0V-549.0H138.0V0.0Z"/></g>
<g fill="red" transform="translate(500 900) scale(0.1 -0.1)"><path d="M0.0 0.0V-555.0H29.0V0.0Z"/></g>
<g fill="black" opacity=".8" transform="translate(500 900) scale(0.1 -0.1)"><path d="M0.0 0.0V-555.0H29.0V0.0Z"/></g>
<g fill="red" transform="translate(600 900) scale(0.1 -0.1)"><path d="M0.0 0.0V-531.0H152.0V0.0Z"/></g>
<g fill="black" opacity=".8" transform="translate(600 900) scale(0.1 -0.1)"><path d="M0.0 0.0V-531.0H152.0V0.0Z"/></g>
<g fill="red" transform="translate(700 900) scale(0.1 -0.1)"><path d="M0.0 0.0V-899.0H30.0V0.0Z"/></g>
<g fill="black" opacity=".8" transform="translate(700 900) scale(0.1 -0.1)"><path d="M0.0 0.0V-899.0H30.0V0.0Z"/></g>
<g fill="red" transform="translate(800 900) scale(0.1 -0.1)"><path d="M0.0 0.0V-941.0H146.0V0.0Z"/></g>
<g fill="black" opacity=".8" transform="translate(800 900) scale(0.1 -0.1)"><path d="M0.0 0.0V-941.0H146.0V0.0Z"/></g>
<g fill="red" transform="translate(900 900) scale(0.1 -0.1)"><path d="M0.0 0.0V-560.0H29.0V0.0Z"/></g>
<g fill="black" opacity=".8" transform="translate(900 900) scale(0.1 -0.1)"><path d="M0.0 0.0V-560.0H29.0V0.0Z"/></g>
<g fill="red" transform="translate(1000 900) scale(0.1 -0.1)"><path d="M0.0 0.0V-563.0H146.0V0.0Z"/></g>
<g fill="black" opacity=".8" transform="translate(1000 900) scale(0.1 -0.1)"><path d="M0.0 0.0V-563.0H146.0V0.0Z"/></g>
<g fill="red" transform="translate(1100 900) scale(0.1 -0.1)"><path d="M0.0 0.0V-560.0H29.0V0.0Z"/></g>
<g fill="black" opacity=".8" transform="translate(1100 900) scale(0.1 -0.1)"><path d="M0.0 0.0V-560.0H29.0V0.0Z"/></g>
<g fill="red" transform="translate(1200 900) scale(0.1 -0.1)"><path d="M0.0 0.0V-545.0H133.0V0.0Z"/></g>
<g fill="black" opacity=".8" transform="translate(1200 900) scale(0.1 -0.1)"><path d="M0.0 0.0V-545.0H133.0V0.0Z"/></g>
<g fill="red" transform="translate(1300 900) scale(0.1 -0.1)"><path d="M0.0 0.0V-899.0H29.0V0.0Z"/></g>
<g fill="black" opacity=".8" transform="translate(1300 900) scale(0.1 -0.1)"><path d="M0.0 0.0V-899.0H29.0V0.0Z"/></g>
<g fill="red" transform="translate(1400 900) scale(0.1 -0.1)"><path d="M0.0 0.0V-950.0H121.0V0.0Z"/></g>
<g fill="black" opacity=".8" transform="translate(1400 900) scale(0.1 -0.1)"><path d="M0.0 0.0V-950.0H121.0V0.0Z"/></g>
<g fill="red" transform="translate(1500 900) scale(0.1 -0.1)"><path d="M0.0 0.0V-344.0H29.0V0.0Z"/></g>
<g fill="black" opacity=".8" transform="translate(1500 900) scale(0.1 -0.1)"><path d="M0.0 0.0V-344.0H29.0V0.0Z"/></g>
<g fill="red" transform="translate(1600 900) scale(0.1 -0.1)"><path d="M0.0 0.0V-351.0H143.0V0.0Z"/></g>
<g fill="black" opacity=".8" transform="translate(1600 900) scale(0.1 -0.1)"><path d="M0.0 0.0V-351.0H143.0V0.0Z"/></g>
<g fill="red" transform="translate(100 1000) scale(0.1 -0.1)"><path d="M0.0 0.0V-899.0H30.0V0.0Z"/></g>
<g fill="black" opacity=".8" transform="translate(100 1000) scale(0.1 -0.1)"><path d="M0.0 0.0V-899.0H30.0V0.0Z"/></g>
<g fill="red" transform="translate(200 1000) scale(0.1 -0.1)"><path d="M0.0 0.0V-950.0H147.0V0.0Z"/></g>
<g fill="black" opacity=".8" transform="translate(200 1000) scale(0.1 -0.1)"><path d="M0.0 0.0V-950.0H147.0V0.0Z"/></g>
<g fill="red" transform="translate(300 1000) scale(0.1 -0.1)"><path d="M0.0 0.0V-551.0H29.0V0.0Z"/></g>
<g fill="black" opacity=".8" transform="translate(300 1000) scale(0.1 -0.1)"><path d="M0.0 0.0V-551.0H29.0V0.0Z"/></g>
<g fill="red" transform="translate(400 1000) scale(0.1 -0.1)"><path d="M0.0 0.0V-545.0H131.0V0.0Z"/></g>
<g fill="black" opacity=".8" transform="translate(400 1000) scale(0.1 -0.1)"><path d="M0.0 0.0V-545.0H131.0V0.0Z"/></g>
<g fill="red" transform="translate(500 1000) scale(0.1 -0.1)"><path d="M0.0 0.0V-516.0H30.0V0.0Z"/></g>
<g fill="black" opacity=".8" transform="translate(500 1000) scale(0.1 -0.1)"><path d="M0.0 0.0V-516.0H30.0V0.0Z"/></g>
<g fill="red" transform="translate(600 1000) scale(0.1 -0.1)"><path d="M0.0 0.0V-576.0H150.0V0.0Z"/></g>
<g fill="black" opacity=".8" transform="translate(600 1000) scale(0.1 -0.1)"><path d="M0.0 0.0V-576.0H150.0V0.0Z"/></g>
<g fill="red" transform="translate(700 1000) scale(0.1 -0.1)"><path d="M0.0 0.0V-296.0H29.0V0.0Z"/></g>
<g fill="black" opacity=".8" transform="translate(700 1000) scale(0.1 -0.1)"><path d="M0.0 0.0V-296.0H29.0V0.0Z"/></g>
<g fill="red" transform="translate(800 1000) scale(0.1 -0.1)"><path d="M0.0 0.0V-243.0H134.0V0.0Z"/></g>
<g fill="black" opacity=".8" transform="translate(800 1000) scale(0.1 -0.1)"><path d="M0.0 0.0V-243.0H134.0V0.0Z"/></g>
<g fill="red" transform="translate(900 1000) scale(0.1 -0.1)"><path d="M0.0 0.0V-397.0H29.0V0.0Z"/></g>
<g fill="black" opacity=".8" transform="translate(900 1000) scale(0.1 -0.1)"><path d="M0.0 0.0V-397.0H29.0V0.0Z"/></g>
<g fill="red" transform="translate(1000 1000) scale(0.1 -0.1)"><path d="M0.0 0.0V-446.0H133.0V0.0Z"/></g>
<g fill="black" opacity=".8" transform="translate(1000 1000) scale(0.1 -0.1)"><path d="M0.0 0.0V-446.0H133.0V0.0Z"/></g>
<g fill="red" transform="translate(1100 1000) scale(0.1 -0.1)"><path d="M0.0 0.0V-468.0H30.0V0.0Z"/></g>
<g fill="black" opacity=".8" transform="translate(1100 1000) scale(0.1 -0.1)"><path d="M0.0 0.0V-468.0H30.0V0.0Z"/></g>
<g fill="red" transform="translate(1200 1000) scale(0.1 -0.1)"><path d="M0.0 0.0V-504.0H149.0V0.0Z"/></g>
<g fill="black" opacity=".8" transform="translate(1200 1000) scale(0.1 -0.1)"><path d="M0.0 0.0V-504.0H149.0V0.0Z"/></g>
<g fill="red" transform="translate(1300 1000) scale(0.1 -0.1)"><path d="M0.0 0.0V-555.0H29.0V0.0Z"/></g>
<g fill="black" opacity=".8" transform="translate(1300 1000) scale(0.1 -0.1)"><path d="M0.0 0.0V-555.0H29.0V0.0Z"/></g>
<g fill="red" transform="translate(1400 1000) scale(0.1 -0.1)"><path d="M0.0 0.0V-522.0H154.0V0.0Z"/></g>
<g fill="black" opacity=".8" transform="translate(1400 1000) scale(0.1 -0.1)"><path d="M0.0 0.0V-522.0H154.0V0.0Z"/></g>
<g fill="red" transform="translate(1500 1000) scale(0.1 -0.1)"><path d="M0.0 0.0V-899.0H29.0V0.0Z"/></g>
<g fill="black" opacity=".8" transform="translate(1500 1000) scale(0.1 -0.1)"><path d="M0.0 0.0V-899.0H29.0V0.0Z"/></g>
<g fill="red" transform="translate(1600 1000) scale(0.1 -0.1)"><path d="M0.0 0.0V-945.0H146.0V0.0Z"/></g>
<g fill="black" opacity=".8" transform="translate(1600 1000) scale(0.1 -0.1)"><path d="M0.0 0.0V-945.0H146.0V0.0Z"/></g>
<g fill="red" transform="translate(100 1100) scale(0.1 -0.1)"><path d="M0.0 0.0V-411.0H30.0V0.0Z"/></g>
<g fill="black" opacity=".8" transform="translate(100 1100) scale(0.1 -0.1)"><path d="M0.0 0.0V-411.0H30.0V0.0Z"/></g>
<g fill="red" transform="translate(200 1100) scale(0.1 -0.1)"><path d="M0.0 0.0V-396.0H142.0V0.0Z"/></g>
<g fill="black" opacity=".8" transform="translate(200 1100) scale(0.1 -0.1)"><path d="M0.0 0.0V-396.0H142.0V0.0Z"/></g>
<g fill="red" transform="translate(300 1100) scale(0.1 -0.1)"><path d="M0.0 0.0V-899.0H29.0V0.0Z"/></g>
<g fill="black" opacity=".8" transform="translate(300 1100) scale(0.1 -0.1)"><path d="M0.0 0.0V-899.0H29.0V0.0Z"/></g>
<g fill="red" transform="translate(400 1100) scale(0.1 -0.1)"><path d="M0.0 0.0V-941.0H146.0V0.0Z"/></g>
<g fill="black" opacity=".8" transform="translate(400 1100) scale(0.1 -0.1)"><path d="M0.0 0.0V-941.0H146.0V0.0Z"/></g>
<g fill="red" transform="translate(500 1100) scale(0.1 -0.1)"><path d="M0.0 0.0V-551.0H29.0V0.0Z"/></g>
<g fill="black" opacity=".8" transform="translate(500 1100) scale(0.1 -0.1)"><path d="M0.0 0.0V-551.0H29.0V0.0Z"/></g>
<g fill="red" transform="translate(600 1100) scale(0.1 -0.1)"><path d="M0.0 0.0V-563.0H138.0V0.0Z"/></g>
<g fill="black" opacity=".8" transform="translate(600 1100) scale(0.1 -0.1)"><path d="M0.0 0.0V-563.0H138.0V0.0Z"/></g>
<g fill="red" transform="translate(700 1100) scale(0.1 -0.1)"><path d="M0.0 0.0V-217.0H28.0V0.0Z"/></g>
<g fill="black" opacity=".8" transform="translate(700 1100) scale(0.1 -0.1)"><path d="M0.0 0.0V-217.0H28.0V0.0Z"/></g>
<g fill="red" transform="translate(800 1100) scale(0.1 -0.1)"><path d="M0.0 0.0V-216.0H138.0V0.0Z"/></g>
<g fill="black" opacity=".8" transform="translate(800 1100) scale(0.1 -0.1)"><path d="M0.0 0.0V-216.0H138.0V0.0Z"/></g>
<g fill="red" transform="translate(900 1100) scale(0.1 -0.1)"><path d="M0.0 0.0V-361.0H29.0V0.0Z"/></g>
<g fill="black" opacity=".8" transform="translate(900 1100) scale(0.1 -0.1)"><path d="M0.0 0.0V-361.0H29.0V0.0Z"/></g>
<g fill="red" transform="translate(1000 1100) scale(0.1 -0.1)"><path d="M0.0 0.0V-374.0H131.0V0.0Z"/></g>
<g fill="black" opacity=".8" transform="translate(1000 1100) scale(0.1 -0.1)"><path d="M0.0 0.0V-374.0H131.0V0.0Z"/></g>
<g fill="red" transform="translate(1100 1100) scale(0.1 -0.1)"><path d="M0.0 0.0V-560.0H29.0V0.0Z"/></g>
<g fill="black" opacity=".8" transform="translate(1100 1100) scale(0.1 -0.1)"><path d="M0.0 0.0V-560.0H29.0V0.0Z"/></g>
<g fill="red" transform="translate(1200 1100) scale(0.1 -0.1)"><path d="M0.0 0.0V-567.0H139.0V0.0Z"/></g>
<g fill="black" opacity=".8" transform="translate(1200 1100) scale(0.1 -0.1)"><path d="M0.0 0.0V-567.0H139.0V0.0Z"/></g>
<g fill="red" transform="translate(1300 1100) scale(0.1 -0.1)"><path d="M0.0 0.0V-455.0H30.0V0.0Z"/></g>
<g fill="black" opacity=".8" transform="translate(1300 1100) scale(0.1 -0.1)"><path d="M0.0 0.0V-455.0H30.0V0.0Z"/></g>
<g fill="red" transform="translate(1400 1100) scale(0.1 -0.1)"><path d="M0.0 0.0V-410.0H129.0V0.0Z"/></g>
<g fill="black" opacity=".8" transform="translate(1400 1100) scale(0.1 -0.1)"><path d="M0.0 0.0V-410.0H129.0V0.0Z"/></g>
<g fill="red" transform="translate(1500 1100) scale(0.1 -0.1)"><path d="M0.0 0.0V-308.0H30.0V0.0Z"/></g>
<g fill="black" opacity=".8" transform="translate(1500 1100) scale(0.1 -0.1)"><path d="M0.0 0.0V-308.0H30.0V0.0Z"/></g>
<g fill="red" transform="translate(1600 1100) scale(0.1 -0.1)"><path d="M0.0 0.0V-338.0H126.0V0.0Z"/></g>
<g fill="black" opacity=".8" transform="translate(1600 1100) scale(0.1 -0.1)"><path d="M0.0 0.0V-338.0H126.0V0.0Z"/></g>
<g fill="red" transform="translate(100 1200) scale(0.1 -0.1)"><path d="M0.0 0.0V-455.0H29.0V0.0Z"/></g>
<g fill="black" opacity=".8" transform="translate(100 1200) scale(0.1 -0.1)"><path d="M0.0 0.0V-455.0H29.0V0.0Z"/></g>
<g fill="red" transform="translate(200 1200) scale(0.1 -0.1)"><path d="M0.0 0.0V-437.0H149.0V0.0Z"/></g>
<g fill="black" opacity=".8" transform="translate(200 1200) scale(0.1 -0.1)"><path d="M0.0 0.0V-437.0H149.0V0.0Z"/></g>
<g fill="red" transform="translate(300 1200) scale(0.1 -0.1)"><path d="M0.0 0.0V-464.0H29.0V0.0Z"/></g>
<g fill="black" opacity=".8" transform="translate(300 1200) scale(0.1 -0.1)"><path d="M0.0 0.0V-464.0H29.0V0.0Z"/></g>
<g fill="red" transform="translate(400 1200) scale(0.1 -0.1)"><path d="M0.0 0.0V-455.0H123.0V0.0Z"/></g>
<g fill="black" opacity=".8" transform="translate(400 1200) scale(0.1 -0.1)"><path d="M0.0 0.0V-455.0H123.0V0.0Z"/></g>
<g fill="red" transform="translate(500 1200) scale(0.1 -0.1)"><path d="M0.0 0.0V-572.0H29.0V0.0Z"/></g>
<g fill="black" opacity=".8" transform="translate(500 1200) scale(0.1 -0.1)"><path d="M0.0 0.0V-572.0H29.0V0.0Z"/></g>
<g fill="red" transform="translate(600 1200) scale(0.1 -0.1)"><path d="M0.0 0.0V-536.0H132.0V0.0Z"/></g>
<g fill="black" opacity=".8" transform="translate(600 1200) scale(0.1 -0.1)"><path d="M0.0 0.0V-536.0H132.0V0.0Z"/></g>
<g fill="red" transform="translate(700 1200) scale(0.1 -0.1)"><path d="M0.0 0.0V-899.0H29.0V0.0Z"/></g>
<g fill="black" opacity=".8" transform="translate(700 1200) scale(0.1 -0.1)"><path d="M0.0 0.0V-899.0H29.0V0.0Z"/></g>
<g fill="red" transform="translate(800 1200) scale(0.1 -0.1)"><path d="M0.0 0.0V-950.0H143.0V0.0Z"/></g>
<g fill="black" opacity=".8" transform="translate(800 1200) scale(0.1 -0.1)"><path d="M0.0 0.0V-950.0H143.0V0.0Z"/></g>
<g fill="red" transform="translate(900 1200) scale(0.1 -0.1)"><path d="M0.0 0.0V-361.0H29.0V0.0Z"/></g>
<g fill="black" opacity=".8" transform="translate(900 1200) scale(0.1 -0.1)"><path d="M0.0 0.0V-361.0H29.0V0.0Z"/></g>
<g fill="red" transform="translate(1000 1200) scale(0.1 -0.1)"><path d="M0.0 0.0V-396.0H131.0V0.0Z"/></g>
<g fill="black" opacity=".8" transform="translate(1000 1200) scale(0.1 -0.1)"><path d="M0.0 0.0V-396.0H131.0V0.0Z"/></g>
<g fill="red" transform="translate(1100 1200) scale(0.1 -0.1)"><path d="M0.0 0.0V-572.0H29.0V0.0Z"/></g>
<g fill="black" opacity=".8" transform="translate(1100 1200) scale(0.1 -0.1)"><path d="M0.0 0.0V-572.0H29.0V0.0Z"/></g>
<g fill="red" transform="translate(1200 1200) scale(0.1 -0.1)"><path d="M0.0 0.0V-563.0H134.0V0.0Z"/></g>
<g fill="black" opacity=".8" transform="translate(1200 1200) scale(0.1 -0.1)"><path d="M0.0 0.0V-563.0H134.0V0.0Z"/></g>
<g fill="red" transform="translate(1300 1200) scale(0.1 -0.1)"><path d="M0.0 0.0V-534.0H29.0V0.0Z"/></g>
<g fill="black" opacity=".8" transform="translate(1300 1200) scale(0.1 -0.1)"><path d="M0.0 0.0V-534.0H29.0V0.0Z"/></g>
<g fill="red" transform="translate(1400 1200) scale(0.1 -0.1)"><path d="M0.0 0.0V-554.0H136.0V0.0Z"/></g>
<g fill="black" opacity=".8" transform="translate(1400 1200) scale(0.1 -0.1)"><path d="M0.0 0.0V-554.0H136.0V0.0Z"/></g>
<g fill="red" transform="translate(1500 1200) scale(0.1 -0.1)"><path d="M0.0 0.0V-370.0H30.0V0.0Z"/></g>
<g fill="black" opacity=".8" transform="translate(1500 1200) scale(0.1 -0.1)"><path d="M0.0 0.0V-370.0H30.0V0.0Z"/></g>
<g fill="red" transform="translate(1600 1200) scale(0.1 -0.1)"><path d="M0.0 0.0V-410.0H146.0V0.0Z"/></g>
<g fill="black" opacity=".8" transform="translate(1600 1200) scale(0.1 -0.1)"><path d="M0.0 0.0V-410.0H146.0V0.0Z"/></g>
<g fill="red" transform="translate(100 1300) scale(0.1 -0.1)"><path d="M0.0 0.0V-899.0H30.0V0.0Z"/></g>
<g fill="black" opacity=".8" transform="translate(100 1300) scale(0.1 -0.1)"><path d="M0.0 0.0V-898.0H30.0V0.0Z"/></g>
<g fill="red" transform="translate(200 1300) scale(0.1 -0.1)"><path d="M0.0 0.0V-950.0H121.0V0.0Z"/></g>
<g fill="black" opacity=".8" transform="translate(200 1300) scale(0.1 -0.1)"><path d="M0.0 0.0V-950.0H121.0V0.0Z"/></g>
<g fill="red" transform="translate(300 1300) scale(0.1 -0.1)"><path d="M0.0 0.0V-300.0H30.0V0.0Z"/></g>
<g fill="black" opacity=".8" transform="translate(300 1300) scale(0.1 -0.1)"><path d="M0.0 0.0V-300.0H30.0V0.0Z"/></g>
<g fill="red" transform="translate(400 1300) scale(0.1 -0.1)"><path d="M0.0 0.0V-284.0H129.0V0.0Z"/></g>
<g fill="black" opacity=".8" transform="translate(400 1300) scale(0.1 -0.1)"><path d="M0.0 0.0V-284.0H129.0V0.0Z"/></g>
<g fill="red" transform="translate(500 1300) scale(0.1 -0.1)"><path d="M0.0 0.0V-265.0H29.0V0.0Z"/></g>
<g fill="black" opacity=".8" transform="translate(500 1300) scale(0.1 -0.1)"><path d="M0.0 0.0V-265.0H29.0V0.0Z"/></g>
<g fill="red" transform="translate(600 1300) scale(0.1 -0.1)"><path d="M0.0 0.0V-280.0H152.0V0.0Z"/></g>
<g fill="black" opacity=".8" transform="translate(600 1300) scale(0.1 -0.1)"><path d="M0.0 0.0V-280.0H152.0V0.0Z"/></g>
<g fill="red" transform="translate(700 1300) scale(0.1 -0.1)"><path d="M0.0 0.0V-352.0H29.0V0.0Z"/></g>
<g fill="black" opacity=".8" transform="translate(700 1300) scale(0.1 -0.1)"><path d="M0.0 0.0V-352.0H29.0V0.0Z"/></g>
<g fill="red" transform="translate(800 1300) scale(0.1 -0.1)"><path d="M0.0 0.0V-338.0H133.0V0.0Z"/></g>
<g fill="black" opacity=".8" transform="translate(800 1300) scale(0.1 -0.1)"><path d="M0.0 0.0V-338.0H133.0V0.0Z"/></g>
<g fill="red" transform="translate(900 1300) scale(0.1 -0.1)"><path d="M0.0 0.0V-234.0H30.0V0.0Z"/></g>
<g fill="black" opacity=".8" transform="translate(900 1300) scale(0.1 -0.1)"><path d="M0.0 0.0V-234.0H30.0V0.0Z"/></g>
<g fill="red" transform="translate(1000 1300) scale(0.1 -0.1)"><path d="M0.0 0.0V-259.0H129.0V0.0Z"/></g>
<g fill="black" opacity=".8" transform="translate(1000 1300) scale(0.1 -0.1)"><path d="M0.0 0.0V-259.0H129.0V0.0Z"/></g>
<g fill="red" transform="translate(1100 1300) scale(0.1 -0.1)"><path d="M0.0 0.0V-555.0H30.0V0.0Z"/></g>
<g fill="black" opacity=".8" transform="translate(1100 1300) scale(0.1 -0.1)"><path d="M0.0 0.0V-555.0H30.0V0.0Z"/></g>
<g fill="red" transform="translate(1200 1300) scale(0.1 -0.1)"><path d="M0.0 0.0V-513.0H134.0V0.0Z"/></g>
<g fill="black" opacity=".8" transform="translate(1200 1300) scale(0.1 -0.1)"><path d="M0.0 0.0V-513.0H134.0V0.0Z"/></g>
<g fill="red" transform="translate(1300 1300) scale(0.1 -0.1)"><path d="M0.0 0.0V-446.0H31.0V0.0Z"/></g>
<g fill="black" opacity=".8" transform="translate(1300 1300) scale(0.1 -0.1)"><path d="M0.0 0.0V-446.0H31.0V0.0Z"/></g>
<g fill="red" transform="translate(1400 1300) scale(0.1 -0.1)"><path d="M0.0 0.0V-432.0H143.0V0.0Z"/></g>
<g fill="black" opacity=".8" transform="translate(1400 1300) scale(0.1 -0.1)"><path d="M0.0 0.0V-432.0H143.0V0.0Z"/></g>
<g fill="red" transform="translate(1500 1300) scale(0.1 -0.1)"><path d="M0.0 0.0V-393.0H29.0V0.0Z"/></g>
<g fill="black" opacity=".8" transform="translate(1500 1300) scale(0.1 -0.1)"><path d="M0.0 0.0V-393.0H29.0V0.0Z"/></g>
<g fill="red" transform="translate(1600 1300) scale(0.1 -0.1)"><path d="M0.0 0.0V-410.0H135.0V0.0Z"/></g>
<g fill="black" opacity=".8" transform="translate(1600 1300) scale(0.1 -0.1)"><path d="M0.0 0.0V-410.0H135.0V0.0Z"/></g>
<g fill="red" transform="translate(100 1400) scale(0.1 -0.1)"><path d="M0.0 0.0V-361.0H29.0V0.0Z"/></g>
<g fill="black" opacity=".8" transform="translate(100 1400) scale(0.1 -0.1)"><path d="M0.0 0.0V-361.0H29.0V0.0Z"/></g>
<g fill="red" transform="translate(200 1400) scale(0.1 -0.1)"><path d="M0.0 0.0V-374.0H145.0V0.0Z"/></g>
<g fill="black" opacity=".8" transform="translate(200 1400) scale(0.1 -0.1)"><path d="M0.0 0.0V-374.0H145.0V0.0Z"/></g>
<g fill="red" transform="translate(300 1400) scale(0.1 -0.1)"><path d="M0.0 0.0V-899.0H30.0V0.0Z"/></g>
<g fill="black" opacity=".8" transform="translate(300 1400) scale(0.1 -0.1)"><path d="M0.0 0.0V-899.0H30.0V0.0Z"/></g>
<g fill="red" transform="translate(400 1400) scale(0.1 -0.1)"><path d="M0.0 0.0V-950.0H115.0V0.0Z"/></g>
<g fill="black" opacity=".8" transform="translate(400 1400) scale(0.1 -0.1)"><path d="M0.0 0.0V-950.0H115.0V0.0Z"/></g>
<g fill="red" transform="translate(500 1400) scale(0.1 -0.1)"><path d="M0.0 0.0V-555.0H30.0V0.0Z"/></g>
<g fill="black" opacity=".8" transform="translate(500 1400) scale(0.1 -0.1)"><path d="M0.0 0.0V-555.0H30.0V0.0Z"/></g>
<g fill="red" transform="translate(600 1400) scale(0.1 -0.1)"><path d="M0.0 0.0V-522.0H156.0V0.0Z"/></g>
<g fill="black" opacity=".8" transform="translate(600 1400) scale(0.1 -0.1)"><path d="M0.0 0.0V-522.0H156.0V0.0Z"/></g>
<g fill="red" transform="translate(700 1400) scale(0.1 -0.1)"><path d="M0.0 0.0V-582.0H30.0V0.0Z"/></g>
<g fill="black" opacity=".8" transform="translate(700 1400) scale(0.1 -0.1)"><path d="M0.0 0.0V-582.0H30.0V0.0Z"/></g>
<g fill="red" transform="translate(800 1400) scale(0.1 -0.1)"><path d="M0.0 0.0V-558.0H112.0V0.0Z"/></g>
<g fill="black" opacity=".8" transform="translate(800 1400) scale(0.1 -0.1)"><path d="M0.0 0.0V-558.0H112.0V0.0Z"/></g>
<g fill="red" transform="translate(900 1400) scale(0.1 -0.1)"><path d="M0.0 0.0V-203.0H30.0V0.0Z"/></g>
<g fill="black" opacity=".8" transform="translate(900 1400) scale(0.1 -0.1)"><path d="M0.0 0.0V-203.0H30.0V0.0Z"/></g>
<g fill="red" transform="translate(1000 1400) scale(0.1 -0.1)"><path d="M0.0 0.0V-216.0H141.0V0.0Z"/></g>
<g fill="black" opacity=".8" transform="translate(1000 1400) scale(0.1 -0.1)"><path d="M0.0 0.0V-216.0H141.0V0.0Z"/></g>
<g fill="red" transform="translate(1100 1400) scale(0.1 -0.1)"><path d="M0.0 0.0V-234.0H29.0V0.0Z"/></g>
<g fill="black" opacity=".8" transform="translate(1100 1400) scale(0.1 -0.1)"><path d="M0.0 0.0V-234.0H29.0V0.0Z"/></g>
<g fill="red" transform="translate(1200 1400) scale(0.1 -0.1)"><path d="M0.0 0.0V-230.0H134.0V0.0Z"/></g>
<g fill="black" opacity=".8" transform="translate(1200 1400) scale(0.1 -0.1)"><path d="M0.0 0.0V-230.0H134.0V0.0Z"/></g>
<g fill="red" transform="translate(1300 1400) scale(0.1 -0.1)"><path d="M0.0 0.0V-825.0H30.0V0.0Z"/></g>
<g fill="black" opacity=".8" transform="translate(1300 1400) scale(0.1 -0.1)"><path d="M0.0 0.0V-825.0H30.0V0.0Z"/></g>
<g fill="red" transform="translate(1400 1400) scale(0.1 -0.1)"><path d="M0.0 0.0V-846.0H141.0V0.0Z"/></g>
<g fill="black" opacity=".8" transform="translate(1400 1400) scale(0.1 -0.1)"><path d="M0.0 0.0V-846.0H141.0V0.0Z"/></g>
<g fill="red" transform="translate(1500 1400) scale(0.1 -0.1)"><path d="M0.0 0.0V-490.0H30.0V0.0Z"/></g>
<g fill="black" opacity=".8" transform="translate(1500 1400) scale(0.1 -0.1)"><path d="M0.0 0.0V-490.0H30.0V0.0Z"/></g>
<g fill="red" transform="translate(1600 1400) scale(0.1 -0.1)"><path d="M0.0 0.0V-459.0H137.0V0.0Z"/></g>
<g fill="black" opacity=".8" transform="translate(1600 1400) scale(0.1 -0.1)"><path d="M0.0 0.0V-459.0H137.0V0.0Z"/></g>
<g fill="red" transform="translate(100 1500) scale(0.1 -0.1)"><path d="M0.0 0.0V-256.0H29.0V0.0Z"/></g>
<g fill="black" opacity=".8" transform="translate(100 1500) scale(0.1 -0.1)"><path d="M0.0 0.0V-256.0H29.0V0.0Z"/></g>
<g fill="red" transform="translate(200 1500) scale(0.1 -0.1)"><path d="M0.0 0.0V-266.0H127.0V0.0Z"/></g>
<g fill="black" opacity=".8" transform="translate(200 1500) scale(0.1 -0.1)"><path d="M0.0 0.0V-266.0H127.0V0.0Z"/></g>
<g fill="red" transform="translate(300 1500) scale(0.1 -0.1)"><path d="M0.0 0.0V-899.0H30.0V0.0Z"/></g>
<g fill="black" opacity=".8" transform="translate(300 1500) scale(0.1 -0.1)"><path d="M0.0 0.0V-899.0H30.0V0.0Z"/></g>
<g fill="red" transform="translate(400 1500) scale(0.1 -0.1)"><path d="M0.0 0.0V-941.0H144.0V0.0Z"/></g>
<g fill="black" opacity=".8" transform="translate(400 1500) scale(0.1 -0.1)"><path d="M0.0 0.0V-941.0H144.0V0.0Z"/></g>
<g fill="red" transform="translate(500 1500) scale(0.1 -0.1)"><path d="M0.0 0.0V-349.0H30.0V0.0Z"/></g>
<g fill="black" opacity=".8" transform="translate(500 1500) scale(0.1 -0.1)"><path d="M0.0 0.0V-349.0H30.0V0.0Z"/></g>
<g fill="red" transform="translate(600 1500) scale(0.1 -0.1)"><path d="M0.0 0.0V-365.0H131.0V0.0Z"/></g>
<g fill="black" opacity=".8" transform="translate(600 1500) scale(0.1 -0.1)"><path d="M0.0 0.0V-365.0H131.0V0.0Z"/></g>
<g fill="red" transform="translate(700 1500) scale(0.1 -0.1)"><path d="M0.0 0.0V-870.0H30.0V0.0Z"/></g>
<g fill="black" opacity=".8" transform="translate(700 1500) scale(0.1 -0.1)"><path d="M0.0 0.0V-870.0H30.0V0.0Z"/></g>
<g fill="red" transform="translate(800 1500) scale(0.1 -0.1)"><path d="M0.0 0.0V-918.0H137.0V0.0Z"/></g>
<g fill="black" opacity=".8" transform="translate(800 1500) scale(0.1 -0.1)"><path d="M0.0 0.0V-918.0H137.0V0.0Z"/></g>
<g fill="red" transform="translate(900 1500) scale(0.1 -0.1)"><path d="M0.0 0.0V-560.0H30.0V0.0Z"/></g>
<g fill="black" opacity=".8" transform="translate(900 1500) scale(0.1 -0.1)"><path d="M0.0 0.0V-560.0H30.0V0.0Z"/></g>
<g fill="red" transform="translate(1000 1500) scale(0.1 -0.1)"><path d="M0.0 0.0V-567.0H139.0V0.0Z"/></g>
<g fill="black" opacity=".8" transform="translate(1000 1500) scale(0.1 -0.1)"><path d="M0.0 0.0V-567.0H139.0V0.0Z"/></g>
<g fill="red" transform="translate(1100 1500) scale(0.1 -0.1)"><path d="M0.0 0.0V-441.0H29.0V0.0Z"/></g>
<g fill="black" opacity=".8" transform="translate(1100 1500) scale(0.1 -0.1)"><path d="M0.0 0.0V-441.0H29.0V0.0Z"/></g>
<g fill="red" transform="translate(1200 1500) scale(0.1 -0.1)"><path d="M0.0 0.0V-477.0H141.0V0.0Z"/></g>
<g fill="black" opacity=".8" transform="translate(1200 1500) scale(0.1 -0.1)"><path d="M0.0 0.0V-477.0H141.0V0.0Z"/></g>
</svg>
