<?xml version="1.0" encoding="UTF-8"?>
<svg width="1700" height="300" xmlns="http://www.w3.org/2000/svg">
<rect width="100%" height="100%" fill="white"/>
<g fill="green" transform="translate(100 100) scale(0.1 -0.1)"><path d="M0.0 0.0V-7.0C-69.0 -163.0 -252.0 -262.0 -417.0 -302.0C-412.0 -308.0 -404.0 -318.0 -400.0 -325.0C-229.0 -280.0 -46.0 -179.0 30.0 -9.0L13.0 2.0L7.0 0.0H0.0ZM-244.0 0.0 -265.0 -29.0H13.0V0.0H-244.0ZM-91.0 201.0V131.0C-91.0 85.0 -83.0 72.0 -45.0 72.0C-34.0 72.0 41.0 72.0 58.0 72.0C75.0 72.0 94.0 72.0 104.0 75.0C103.0 81.0 101.0 95.0 100.0 103.0C88.0 100.0 69.0 100.0 57.0 100.0C42.0 100.0 -29.0 100.0 -45.0 100.0C-60.0 100.0 -62.0 105.0 -62.0 130.0V201.0H-91.0ZM-279.0 -55.0 -307.0 -66.0C-230.0 -192.0 -68.0 -284.0 105.0 -322.0C110.0 -314.0 119.0 -302.0 126.0 -295.0C-47.0 -262.0 -207.0 -174.0 -279.0 -55.0ZM-200.0 83.0C-241.0 16.0 -318.0 -69.0 -420.0 -131.0C-412.0 -135.0 -402.0 -143.0 -397.0 -150.0C-292.0 -83.0 -215.0 3.0 -167.0 77.0L-200.0 83.0ZM-216.0 196.0C-232.0 120.0 -284.0 82.0 -399.0 62.0C-393.0 57.0 -384.0 46.0 -380.0 39.0C-261.0 65.0 -205.0 107.0 -187.0 196.0H-216.0ZM-30.0 442.0C-98.0 373.0 -208.0 308.0 -304.0 265.0C-296.0 259.0 -284.0 246.0 -279.0 239.0C-185.0 286.0 -73.0 358.0 -1.0 430.0L-30.0 442.0ZM-284.0 406.0C-186.0 366.0 -67.0 301.0 -6.0 255.0L13.0 279.0C-49.0 325.0 -167.0 388.0 -265.0 426.0L-284.0 406.0ZM-158.0 579.0C-171.0 552.0 -199.0 509.0 -220.0 481.0L-195.0 472.0C-173.0 497.0 -147.0 534.0 -125.0 567.0L-158.0 579.0ZM-329.0 465.0H39.0V214.0H-329.0V465.0ZM-359.0 494.0V184.0H69.0V494.0H-359.0ZM-400.0 579.0C-439.0 407.0 -501.0 233.0 -574.0 116.0C-568.0 109.0 -559.0 95.0 -556.0 88.0C-477.0 217.0 -414.0 392.0 -371.0 573.0L-400.0 579.0ZM-467.0 330.0V-318.0H-438.0V357.0L-439.0 359.0L-467.0 330.0Z"/></g>
<g fill="green" transform="translate(200 100) scale(0.1 -0.1)"><path d="M0.0 0.0V-15.0C-49.0 -159.0 -188.0 -235.0 -372.0 -262.0C-351.0 -286.0 -326.0 -330.0 -315.0 -359.0C-102.0 -316.0 53.0 -226.0 119.0 -24.0L45.0 4.0L23.0 0.0H0.0ZM-161.0 0.0 -227.0 -94.0H42.0V0.0H-161.0ZM-92.0 210.0V148.0C-92.0 62.0 -73.0 28.0 19.0 28.0C34.0 28.0 70.0 28.0 84.0 28.0C106.0 28.0 131.0 29.0 145.0 35.0C142.0 60.0 140.0 99.0 138.0 125.0C124.0 121.0 97.0 119.0 81.0 119.0C70.0 119.0 38.0 119.0 28.0 119.0C14.0 119.0 12.0 127.0 12.0 147.0V210.0H-92.0ZM-197.0 -73.0 -295.0 -104.0C-214.0 -235.0 -79.0 -322.0 98.0 -361.0C113.0 -331.0 144.0 -287.0 169.0 -263.0C4.0 -237.0 -132.0 -170.0 -197.0 -73.0ZM-175.0 62.0C-215.0 -3.0 -285.0 -79.0 -380.0 -135.0C-353.0 -152.0 -315.0 -190.0 -297.0 -216.0C-190.0 -142.0 -114.0 -56.0 -54.0 38.0L-175.0 62.0ZM-227.0 211.0C-236.0 142.0 -261.0 101.0 -381.0 77.0C-359.0 58.0 -332.0 18.0 -322.0 -7.0C-170.0 33.0 -132.0 102.0 -119.0 211.0H-227.0ZM-44.0 414.0C-88.0 370.0 -162.0 328.0 -230.0 300.0C-213.0 285.0 -184.0 252.0 -171.0 236.0C-101.0 271.0 -18.0 329.0 35.0 385.0L-44.0 414.0ZM-226.0 354.0C-158.0 323.0 -71.0 274.0 -27.0 242.0L31.0 300.0C-16.0 332.0 -105.0 378.0 -171.0 406.0L-226.0 354.0ZM-158.0 582.0C-171.0 546.0 -194.0 498.0 -216.0 462.0L-113.0 436.0C-86.0 466.0 -48.0 511.0 -14.0 558.0L-158.0 582.0ZM-219.0 410.0H22.0V247.0H-219.0V410.0ZM-324.0 498.0V159.0H132.0V498.0H-324.0ZM-428.0 584.0C-456.0 440.0 -504.0 293.0 -564.0 196.0C-542.0 160.0 -508.0 81.0 -497.0 47.0C-413.0 174.0 -344.0 375.0 -302.0 551.0L-428.0 584.0ZM-475.0 295.0V-363.0H-356.0V409.0L-359.0 411.0L-475.0 295.0Z"/></g>
<g fill="green" transform="translate(300 100) scale(0.1 -0.1)"><path d="M0.0 0.0V-7.0C-69.0 -163.0 -252.0 -262.0 -417.0 -302.0C-412.0 -308.0 -404.0 -318.0 -400.0 -325.0C-229.0 -280.0 -46.0 -179.0 30.0 -9.0L13.0 2.0L7.0 0.0H0.0ZM-244.0 0.0 -265.0 -29.0H13.0V0.0H-244.0ZM-91.0 201.0V131.0C-91.0 85.0 -83.0 72.0 -45.0 72.0C-34.0 72.0 41.0 72.0 58.0 72.0C75.0 72.0 94.0 72.0 104.0 75.0C103.0 81.0 101.0 95.0 100.0 103.0C88.0 100.0 69.0 100.0 57.0 100.0C42.0 100.0 -29.0 100.0 -45.0 100.0C-60.0 100.0 -62.0 105.0 -62.0 130.0V201.0H-91.0ZM-279.0 -55.0 -307.0 -66.0C-230.0 -192.0 -68.0 -284.0 105.0 -322.0C110.0 -314.0 119.0 -302.0 126.0 -295.0C-47.0 -262.0 -207.0 -174.0 -279.0 -55.0ZM-200.0 83.0C-241.0 16.0 -318.0 -69.0 -420.0 -131.0C-412.0 -135.0 -402.0 -143.0 -397.0 -150.0C-292.0 -83.0 -215.0 3.0 -167.0 77.0L-200.0 83.0ZM-216.0 196.0C-232.0 120.0 -284.0 82.0 -399.0 62.0C-393.0 57.0 -384.0 46.0 -380.0 39.0C-261.0 65.0 -205.0 107.0 -187.0 196.0H-216.0ZM-30.0 442.0C-98.0 373.0 -208.0 308.0 -304.0 265.0C-296.0 259.0 -284.0 246.0 -279.0 239.0C-185.0 286.0 -73.0 358.0 -1.0 430.0L-30.0 442.0ZM-284.0 406.0C-186.0 366.0 -67.0 301.0 -6.0 255.0L13.0 279.0C-49.0 325.0 -167.0 388.0 -265.0 426.0L-284.0 406.0ZM-158.0 579.0C-171.0 552.0 -199.0 509.0 -220.0 481.0L-195.0 472.0C-173.0 497.0 -147.0 534.0 -125.0 567.0L-158.0 579.0ZM-329.0 465.0H39.0V214.0H-329.0V465.0ZM-359.0 494.0V184.0H69.0V494.0H-359.0ZM-400.0 579.0C-439.0 407.0 -501.0 233.0 -574.0 116.0C-568.0 109.0 -559.0 95.0 -556.0 88.0C-477.0 217.0 -414.0 392.0 -371.0 573.0L-400.0 579.0ZM-467.0 330.0V-318.0H-438.0V357.0L-439.0 359.0L-467.0 330.0Z"/></g>
<g fill="green" transform="translate(400 100) scale(0.1 -0.1)"><path d="M0.0 0.0V-15.0C-49.0 -159.0 -188.0 -235.0 -372.0 -262.0C-351.0 -286.0 -326.0 -330.0 -315.0 -359.0C-102.0 -316.0 53.0 -226.0 119.0 -24.0L45.0 4.0L23.0 0.0H0.0ZM-161.0 0.0 -227.0 -94.0H42.0V0.0H-161.0ZM-92.0 210.0V148.0C-92.0 62.0 -73.0 28.0 19.0 28.0C34.0 28.0 70.0 28.0 84.0 28.0C106.0 28.0 131.0 29.0 145.0 35.0C142.0 60.0 140.0 99.0 138.0 125.0C124.0 121.0 97.0 119.0 81.0 119.0C70.0 119.0 38.0 119.0 28.0 119.0C14.0 119.0 12.0 127.0 12.0 147.0V210.0H-92.0ZM-197.0 -73.0 -295.0 -104.0C-214.0 -235.0 -79.0 -322.0 98.0 -361.0C113.0 -331.0 144.0 -287.0 169.0 -263.0C4.0 -237.0 -132.0 -170.0 -197.0 -73.0ZM-175.0 62.0C-215.0 -3.0 -285.0 -79.0 -380.0 -135.0C-353.0 -152.0 -315.0 -190.0 -297.0 -216.0C-190.0 -142.0 -114.0 -56.0 -54.0 38.0L-175.0 62.0ZM-227.0 211.0C-236.0 142.0 -261.0 101.0 -381.0 77.0C-359.0 58.0 -332.0 18.0 -322.0 -7.0C-170.0 33.0 -132.0 102.0 -119.0 211.0H-227.0ZM-44.0 414.0C-88.0 370.0 -162.0 328.0 -230.0 300.0C-213.0 285.0 -184.0 252.0 -171.0 236.0C-101.0 271.0 -18.0 329.0 35.0 385.0L-44.0 414.0ZM-226.0 354.0C-158.0 323.0 -71.0 274.0 -27.0 242.0L31.0 300.0C-16.0 332.0 -105.0 378.0 -171.0 406.0L-226.0 354.0ZM-158.0 582.0C-171.0 546.0 -194.0 498.0 -216.0 462.0L-113.0 436.0C-86.0 466.0 -48.0 511.0 -14.0 558.0L-158.0 582.0ZM-219.0 410.0H22.0V247.0H-219.0V410.0ZM-324.0 498.0V159.0H132.0V498.0H-324.0ZM-428.0 584.0C-456.0 440.0 -504.0 293.0 -564.0 196.0C-542.0 160.0 -508.0 81.0 -497.0 47.0C-413.0 174.0 -344.0 375.0 -302.0 551.0L-428.0 584.0ZM-475.0 295.0V-363.0H-356.0V409.0L-359.0 411.0L-475.0 295.0Z"/></g>
<g fill="red" transform="translate(100 200) scale(0.1 -0.1)"><path d="M0.0 0.0V-7.0C-69.0 -163.0 -252.0 -262.0 -417.0 -302.0C-412.0 -308.0 -404.0 -318.0 -400.0 -325.0C-229.0 -280.0 -46.0 -179.0 30.0 -9.0L13.0 2.0L7.0 0.0H0.0ZM-244.0 0.0 -265.0 -29.0H13.0V0.0H-244.0ZM-91.0 201.0V131.0C-91.0 85.0 -83.0 72.0 -45.0 72.0C-34.0 72.0 41.0 72.0 58.0 72.0C75.0 72.0 94.0 72.0 104.0 75.0C103.0 81.0 101.0 95.0 100.0 103.0C88.0 100.0 69.0 100.0 57.0 100.0C42.0 100.0 -29.0 100.0 -45.0 100.0C-60.0 100.0 -62.0 105.0 -62.0 130.0V201.0H-91.0ZM-279.0 -55.0 -307.0 -66.0C-230.0 -192.0 -68.0 -284.0 105.0 -322.0C110.0 -314.0 119.0 -302.0 126.0 -295.0C-47.0 -262.0 -207.0 -174.0 -279.0 -55.0ZM-200.0 83.0C-241.0 16.0 -318.0 -69.0 -420.0 -131.0C-412.0 -135.0 -402.0 -143.0 -397.0 -150.0C-292.0 -83.0 -215.0 3.0 -167.0 77.0L-200.0 83.0ZM-216.0 196.0C-232.0 120.0 -284.0 82.0 -399.0 62.0C-393.0 57.0 -384.0 46.0 -380.0 39.0C-261.0 65.0 -205.0 107.0 -187.0 196.0H-216.0ZM-30.0 442.0C-98.0 373.0 -208.0 308.0 -304.0 265.0C-296.0 259.0 -284.0 246.0 -279.0 239.0C-185.0 286.0 -73.0 358.0 -1.0 430.0L-30.0 442.0ZM-284.0 406.0C-186.0 366.0 -67.0 301.0 -6.0 255.0L13.0 279.0C-49.0 325.0 -167.0 388.0 -265.0 426.0L-284.0 406.0ZM-158.0 579.0C-171.0 552.0 -199.0 509.0 -220.0 481.0L-195.0 472.0C-173.0 497.0 -147.0 534.0 -125.0 567.0L-158.0 579.0ZM-329.0 465.0H39.0V214.0H-329.0V465.0ZM-359.0 494.0V184.0H69.0V494.0H-359.0ZM-400.0 579.0C-439.0 407.0 -501.0 233.0 -574.0 116.0C-568.0 109.0 -559.0 95.0 -556.0 88.0C-477.0 217.0 -414.0 392.0 -371.0 573.0L-400.0 579.0ZM-467.0 330.0V-318.0H-438.0V357.0L-439.0 359.0L-467.0 330.0Z"/></g>
<g fill="black" opacity=".8" transform="translate(100 200) scale(0.1 -0.1)"><path d="M0.0 0.0V-7.0C-69.0 -163.0 -252.0 -262.0 -417.0 -302.0C-412.0 -308.0 -404.0 -318.0 -400.0 -325.0C-229.0 -280.0 -46.0 -179.0 30.0 -9.0L13.0 2.0L7.0 0.0H0.0ZM-244.0 0.0 -265.0 -29.0H13.0V0.0H-244.0ZM-91.0 201.0V131.0C-91.0 85.0 -83.0 72.0 -45.0 72.0C-34.0 72.0 41.0 72.0 58.0 72.0C75.0 72.0 94.0 72.0 104.0 75.0C103.0 81.0 101.0 95.0 100.0 103.0C88.0 100.0 69.0 100.0 57.0 100.0C42.0 100.0 -29.0 100.0 -45.0 100.0C-60.0 100.0 -62.0 105.0 -62.0 130.0V201.0H-91.0ZM-279.0 -55.0 -307.0 -66.0C-230.0 -192.0 -68.0 -284.0 105.0 -322.0C110.0 -314.0 119.0 -302.0 126.0 -295.0C-47.0 -262.0 -207.0 -174.0 -279.0 -55.0ZM-200.0 83.0C-241.0 16.0 -318.0 -69.0 -420.0 -131.0C-412.0 -135.0 -402.0 -143.0 -397.0 -150.0C-292.0 -83.0 -215.0 3.0 -167.0 77.0L-200.0 83.0ZM-216.0 196.0C-232.0 120.0 -284.0 82.0 -399.0 62.0C-393.0 57.0 -384.0 46.0 -380.0 39.0C-261.0 65.0 -205.0 107.0 -187.0 196.0H-216.0ZM-30.0 442.0C-98.0 373.0 -208.0 308.0 -304.0 265.0C-296.0 259.0 -284.0 246.0 -279.0 239.0C-185.0 286.0 -73.0 358.0 -1.0 430.0L-30.0 442.0ZM-284.0 406.0C-186.0 366.0 -67.0 301.0 -6.0 255.0L13.0 279.0C-49.0 325.0 -167.0 388.0 -265.0 426.0L-284.0 406.0ZM-158.0 579.0C-171.0 552.0 -199.0 509.0 -220.0 481.0L-195.0 472.0C-173.0 497.0 -147.0 534.0 -125.0 567.0L-158.0 579.0ZM-329.0 465.0H39.0V214.0H-329.0V465.0ZM-359.0 494.0V184.0H69.0V494.0H-359.0ZM-400.0 579.0C-439.0 407.0 -501.0 233.0 -574.0 116.0C-568.0 109.0 -559.0 95.0 -556.0 88.0C-477.0 217.0 -414.0 392.0 -371.0 573.0L-400.0 579.0ZM-467.0 330.0V-318.0H-438.0V357.0L-439.0 359.0L-467.0 330.0Z"/></g>
<g fill="red" transform="translate(200 200) scale(0.1 -0.1)"><path d="M0.0 0.0V-15.0C-49.0 -159.0 -188.0 -235.0 -372.0 -262.0C-351.0 -286.0 -326.0 -330.0 -315.0 -359.0C-102.0 -316.0 53.0 -226.0 119.0 -24.0L45.0 4.0L23.0 0.0H0.0ZM-161.0 0.0 -227.0 -94.0H42.0V0.0H-161.0ZM-92.0 210.0V148.0C-92.0 62.0 -73.0 28.0 19.0 28.0C34.0 28.0 70.0 28.0 84.0 28.0C106.0 28.0 131.0 29.0 145.0 35.0C142.0 60.0 140.0 99.0 138.0 125.0C124.0 121.0 97.0 119.0 81.0 119.0C70.0 119.0 38.0 119.0 28.0 119.0C14.0 119.0 12.0 127.0 12.0 147.0V210.0H-92.0ZM-197.0 -73.0 -295.0 -104.0C-214.0 -235.0 -79.0 -322.0 98.0 -361.0C113.0 -331.0 144.0 -287.0 169.0 -263.0C4.0 -237.0 -132.0 -170.0 -197.0 -73.0ZM-175.0 62.0C-215.0 -3.0 -285.0 -79.0 -380.0 -135.0C-353.0 -152.0 -315.0 -190.0 -297.0 -216.0C-190.0 -142.0 -114.0 -56.0 -54.0 38.0L-175.0 62.0ZM-227.0 211.0C-236.0 142.0 -261.0 101.0 -381.0 77.0C-359.0 58.0 -332.0 18.0 -322.0 -7.0C-170.0 33.0 -132.0 102.0 -119.0 211.0H-227.0ZM-44.0 414.0C-88.0 370.0 -162.0 328.0 -230.0 300.0C-213.0 285.0 -184.0 252.0 -171.0 236.0C-101.0 271.0 -18.0 329.0 35.0 385.0L-44.0 414.0ZM-226.0 354.0C-158.0 323.0 -71.0 274.0 -27.0 242.0L31.0 300.0C-16.0 332.0 -105.0 378.0 -171.0 406.0L-226.0 354.0ZM-158.0 582.0C-171.0 546.0 -194.0 498.0 -216.0 462.0L-113.0 436.0C-86.0 466.0 -48.0 511.0 -14.0 558.0L-158.0 582.0ZM-219.0 410.0H22.0V247.0H-219.0V410.0ZM-324.0 498.0V159.0H132.0V498.0H-324.0ZM-428.0 584.0C-456.0 440.0 -504.0 293.0 -564.0 196.0C-542.0 160.0 -508.0 81.0 -497.0 47.0C-413.0 174.0 -344.0 375.0 -302.0 551.0L-428.0 584.0ZM-475.0 295.0V-363.0H-356.0V409.0L-359.0 411.0L-475.0 295.0Z"/></g>
<g fill="black" opacity=".8" transform="translate(200 200) scale(0.1 -0.1)"><path d="M0.0 0.0V-15.0C-49.0 -159.0 -188.0 -235.0 -372.0 -262.0C-351.0 -286.0 -326.0 -330.0 -315.0 -359.0C-102.0 -316.0 53.0 -226.0 119.0 -24.0L45.0 4.0L23.0 0.0H0.0ZM-161.0 0.0 -227.0 -94.0H42.0V0.0H-161.0ZM-92.0 210.0V148.0C-92.0 62.0 -73.0 28.0 19.0 28.0C34.0 28.0 70.0 28.0 84.0 28.0C106.0 28.0 131.0 29.0 145.0 35.0C142.0 60.0 140.0 99.0 138.0 125.0C124.0 121.0 97.0 119.0 81.0 119.0C70.0 119.0 38.0 119.0 28.0 119.0C14.0 119.0 12.0 127.0 12.0 147.0V210.0H-92.0ZM-197.0 -73.0 -295.0 -104.0C-214.0 -235.0 -79.0 -322.0 98.0 -361.0C113.0 -331.0 144.0 -287.0 169.0 -263.0C4.0 -237.0 -132.0 -170.0 -197.0 -73.0ZM-175.0 62.0C-215.0 -3.0 -285.0 -79.0 -380.0 -135.0C-353.0 -152.0 -315.0 -190.0 -297.0 -216.0C-190.0 -142.0 -114.0 -56.0 -54.0 38.0L-175.0 62.0ZM-227.0 211.0C-236.0 142.0 -261.0 101.0 -381.0 77.0C-359.0 58.0 -332.0 18.0 -322.0 -7.0C-170.0 33.0 -132.0 102.0 -119.0 211.0H-227.0ZM-44.0 414.0C-88.0 370.0 -162.0 328.0 -230.0 300.0C-213.0 285.0 -184.0 252.0 -171.0 236.0C-101.0 271.0 -18.0 329.0 35.0 385.0L-44.0 414.0ZM-226.0 354.0C-158.0 323.0 -71.0 274.0 -27.0 242.0L31.0 300.0C-16.0 332.0 -105.0 378.0 -171.0 406.0L-226.0 354.0ZM-158.0 582.0C-171.0 546.0 -194.0 498.0 -216.0 462.0L-113.0 436.0C-86.0 466.0 -48.0 511.0 -14.0 558.0L-158.0 582.0ZM-219.0 410.0H22.0V247.0H-219.0V410.0ZM-324.0 498.0V159.0H132.0V498.0H-324.0ZM-428.0 584.0C-456.0 440.0 -504.0 293.0 -564.0 196.0C-542.0 160.0 -508.0 81.0 -497.0 47.0C-413.0 174.0 -344.0 375.0 -302.0 551.0L-428.0 584.0ZM-475.0 295.0V-363.0H-356.0V409.0L-359.0 411.0L-475.0 295.0Z"/></g>
</svg>
