<?xml version="1.0" encoding="UTF-8"?>
<svg width="1700" height="400" xmlns="http://www.w3.org/2000/svg">
<rect width="100%" height="100%" fill="white"/>
<g fill="green" transform="translate(100 100) scale(0.1 -0.1)"><path d="M0.0 0.0V-336.0C-0.0 -408.0 37.0 -422.0 161.0 -422.0C188.0 -422.0 548.0 -422.0 577.0 -422.0C688.0 -422.0 706.0 -392.0 716.0 -284.0C708.0 -283.0 697.0 -278.0 688.0 -273.0C681.0 -373.0 667.0 -396.0 581.0 -396.0C510.0 -396.0 204.0 -396.0 152.0 -396.0C46.0 -396.0 24.0 -380.0 24.0 -337.0V0.0ZM-335.0 48.0V22.0H217.0V48.0ZM309.0 144.0 296.0 116.0H676.0V144.0ZM-160.0 14.0C-162.0 -185.0 -186.0 -326.0 -291.0 -401.0C-284.0 -405.0 -274.0 -413.0 -271.0 -416.0C-164.0 -335.0 -138.0 -195.0 -134.0 15.0ZM-209.0 347.0C-229.0 243.0 -264.0 141.0 -314.0 73.0C-306.0 69.0 -296.0 61.0 -292.0 59.0C-244.0 129.0 -207.0 234.0 -183.0 343.0ZM-59.0 438.0V52.0H-35.0V438.0Z"/></g>
<g fill="green" transform="translate(200 100) scale(0.1 -0.1)"><path d="M0.0 0.0V-191.0C0.0 -306.0 53.0 -338.0 243.0 -338.0C285.0 -338.0 508.0 -338.0 552.0 -338.0C705.0 -338.0 743.0 -307.0 762.0 -176.0C730.0 -170.0 679.0 -155.0 651.0 -138.0C641.0 -221.0 628.0 -234.0 547.0 -234.0C486.0 -234.0 289.0 -234.0 240.0 -234.0C133.0 -234.0 115.0 -228.0 115.0 -190.0V0.0ZM-340.0 162.0V39.0H258.0V162.0ZM383.0 276.0 322.0 166.0H697.0V276.0ZM-205.0 -10.0C-203.0 -151.0 -212.0 -224.0 -315.0 -269.0C-291.0 -291.0 -255.0 -339.0 -242.0 -368.0C-110.0 -305.0 -88.0 -194.0 -87.0 -9.0ZM-229.0 466.0C-242.0 378.0 -267.0 282.0 -297.0 221.0C-268.0 211.0 -214.0 189.0 -189.0 174.0C-161.0 240.0 -132.0 345.0 -115.0 441.0ZM-78.0 542.0V128.0H38.0V542.0Z"/></g>
<g fill="green" transform="translate(300 100) scale(0.1 -0.1)"><path d="M0.0 0.0V-187.0C0.0 -236.0 29.0 -245.0 124.0 -245.0C144.0 -245.0 444.0 -245.0 466.0 -245.0C549.0 -245.0 562.0 -230.0 570.0 -179.0C566.0 -179.0 560.0 -176.0 555.0 -174.0C550.0 -218.0 539.0 -233.0 470.0 -233.0C412.0 -233.0 158.0 -233.0 115.0 -233.0C29.0 -233.0 11.0 -220.0 11.0 -188.0V0.0ZM-155.0 52.0V40.0H107.0V52.0ZM410.0 42.0 399.0 28.0H557.0V42.0ZM-74.0 20.0C-67.0 -91.0 -66.0 -176.0 -90.0 -223.0C-86.0 -224.0 -81.0 -228.0 -79.0 -228.0C-55.0 -177.0 -56.0 -95.0 -62.0 22.0ZM-97.0 182.0C-105.0 126.0 -120.0 71.0 -143.0 35.0C-139.0 33.0 -135.0 28.0 -134.0 28.0C-111.0 66.0 -95.0 122.0 -85.0 181.0ZM-18.0 280.0V73.0H-7.0V280.0Z"/></g>
<g fill="green" transform="translate(400 100) scale(0.1 -0.1)"><path d="M0.0 0.0V-94.0C0.0 -155.0 41.0 -168.0 177.0 -168.0C209.0 -168.0 410.0 -168.0 443.0 -168.0C555.0 -168.0 576.0 -155.0 589.0 -91.0C574.0 -89.0 550.0 -84.0 535.0 -77.0C526.0 -115.0 516.0 -122.0 445.0 -122.0C389.0 -122.0 208.0 -122.0 164.0 -122.0C68.0 -122.0 52.0 -117.0 52.0 -94.0V0.0ZM-177.0 134.0V68.0H126.0V134.0ZM457.0 136.0 403.0 83.0H555.0V136.0ZM-114.0 0.0C-104.0 -86.0 -98.0 -119.0 -127.0 -140.0C-116.0 -150.0 -98.0 -173.0 -92.0 -186.0C-49.0 -158.0 -50.0 -105.0 -59.0 3.0ZM-112.0 276.0C-116.0 232.0 -122.0 180.0 -127.0 145.0C-114.0 143.0 -87.0 137.0 -74.0 132.0C-72.0 167.0 -65.0 220.0 -61.0 264.0ZM-34.0 367.0V137.0H17.0V367.0Z"/></g>
<g fill="green" transform="translate(500 100) scale(0.1 -0.1)"><path d="M0.0 0.0V-192.0C-0.0 -262.0 31.0 -272.0 141.0 -272.0C164.0 -272.0 442.0 -272.0 466.0 -272.0C559.0 -272.0 578.0 -244.0 587.0 -123.0C575.0 -121.0 562.0 -116.0 551.0 -107.0C545.0 -221.0 533.0 -236.0 465.0 -236.0C409.0 -236.0 176.0 -236.0 136.0 -236.0C52.0 -236.0 36.0 -226.0 36.0 -192.0V0.0ZM-543.0 -329.0V-364.0H136.0V-329.0ZM-156.0 176.0 -173.0 139.0H487.0V176.0ZM-223.0 -172.0C-345.0 -277.0 -579.0 -381.0 -796.0 -432.0C-787.0 -441.0 -777.0 -454.0 -772.0 -461.0C-556.0 -405.0 -318.0 -298.0 -190.0 -187.0ZM-324.0 292.0C-360.0 208.0 -416.0 121.0 -482.0 62.0C-470.0 57.0 -455.0 47.0 -449.0 42.0C-389.0 103.0 -327.0 194.0 -288.0 285.0ZM-225.0 -294.0V-643.0H-190.0V-294.0Z"/></g>
<g fill="green" transform="translate(600 100) scale(0.1 -0.1)"><path d="M0.0 0.0V-81.0C0.0 -205.0 44.0 -248.0 231.0 -248.0C270.0 -248.0 401.0 -248.0 440.0 -248.0C584.0 -248.0 632.0 -214.0 654.0 -65.0C607.0 -55.0 529.0 -36.0 494.0 -14.0C487.0 -104.0 477.0 -114.0 424.0 -114.0C388.0 -114.0 280.0 -114.0 251.0 -114.0C187.0 -114.0 175.0 -111.0 175.0 -79.0V0.0ZM-583.0 -318.0V-423.0H173.0V-318.0ZM-96.0 266.0 -170.0 134.0H533.0V266.0ZM-256.0 -206.0C-369.0 -304.0 -602.0 -334.0 -837.0 -344.0C-806.0 -380.0 -769.0 -436.0 -754.0 -475.0C-494.0 -454.0 -257.0 -404.0 -116.0 -267.0ZM-368.0 359.0C-394.0 299.0 -443.0 232.0 -495.0 188.0C-453.0 171.0 -378.0 135.0 -341.0 111.0C-290.0 162.0 -231.0 244.0 -196.0 318.0ZM-290.0 -331.0V-608.0H-119.0V-331.0Z"/></g>
<g fill="green" transform="translate(700 100) scale(0.1 -0.1)"><path d="M0.0 0.0V-380.0C0.0 -436.0 23.0 -448.0 105.0 -448.0C124.0 -448.0 329.0 -448.0 350.0 -448.0C428.0 -448.0 441.0 -414.0 447.0 -289.0C439.0 -286.0 428.0 -281.0 419.0 -277.0C415.0 -398.0 406.0 -421.0 351.0 -421.0C308.0 -421.0 132.0 -421.0 101.0 -421.0C38.0 -421.0 24.0 -411.0 24.0 -380.0V0.0ZM-471.0 180.0V154.0H433.0V180.0ZM-216.0 246.0 -234.0 218.0H349.0V246.0ZM-217.0 80.0C-190.0 -147.0 -180.0 -288.0 -352.0 -359.0C-346.0 -363.0 -337.0 -374.0 -334.0 -376.0C-159.0 -299.0 -163.0 -158.0 -188.0 87.0ZM-292.0 399.0C-318.0 284.0 -363.0 170.0 -420.0 94.0C-413.0 90.0 -403.0 81.0 -398.0 78.0C-343.0 156.0 -296.0 273.0 -265.0 394.0ZM-31.0 718.0V290.0H-6.0V718.0Z"/></g>
<g fill="green" transform="translate(800 100) scale(0.1 -0.1)"><path d="M0.0 0.0V-201.0C0.0 -320.0 35.0 -360.0 167.0 -360.0C193.0 -360.0 293.0 -360.0 321.0 -360.0C433.0 -360.0 464.0 -316.0 478.0 -148.0C446.0 -138.0 392.0 -118.0 366.0 -97.0C361.0 -220.0 354.0 -238.0 311.0 -238.0C284.0 -238.0 203.0 -238.0 179.0 -238.0C131.0 -238.0 122.0 -233.0 122.0 -200.0V0.0ZM-442.0 322.0V181.0H466.0V322.0ZM-124.0 384.0 -203.0 258.0H367.0V384.0ZM-264.0 57.0C-231.0 -74.0 -179.0 -153.0 -337.0 -199.0C-313.0 -220.0 -274.0 -275.0 -261.0 -304.0C-60.0 -235.0 -85.0 -111.0 -119.0 79.0ZM-288.0 529.0C-311.0 418.0 -357.0 305.0 -413.0 237.0C-380.0 223.0 -321.0 190.0 -293.0 169.0C-239.0 247.0 -187.0 373.0 -158.0 499.0ZM-40.0 848.0V398.0H84.0V848.0Z"/></g>
<g fill="green" transform="translate(900 100) scale(0.1 -0.1)"><path d="M0.0 0.0V-417.0C-0.0 -484.0 31.0 -498.0 133.0 -498.0C156.0 -498.0 439.0 -498.0 462.0 -498.0C560.0 -498.0 574.0 -464.0 583.0 -338.0C575.0 -337.0 565.0 -332.0 557.0 -328.0C550.0 -446.0 538.0 -473.0 467.0 -473.0C411.0 -473.0 168.0 -473.0 126.0 -473.0C41.0 -473.0 24.0 -458.0 24.0 -418.0V0.0ZM-222.0 -11.0V-37.0H74.0V-11.0ZM357.0 174.0 360.0 146.0H596.0V174.0ZM-129.0 -11.0C-133.0 -265.0 -154.0 -418.0 -231.0 -508.0C-223.0 -512.0 -212.0 -518.0 -209.0 -522.0C-130.0 -425.0 -109.0 -273.0 -105.0 -13.0ZM-141.0 421.0C-156.0 287.0 -185.0 158.0 -239.0 74.0C-230.0 70.0 -219.0 65.0 -214.0 64.0C-164.0 150.0 -134.0 278.0 -113.0 418.0ZM-71.0 389.0V-45.0H-49.0V389.0Z"/></g>
<g fill="green" transform="translate(1000 100) scale(0.1 -0.1)"><path d="M0.0 0.0V-326.0C0.0 -435.0 46.0 -465.0 209.0 -465.0C246.0 -465.0 433.0 -465.0 470.0 -465.0C605.0 -465.0 639.0 -428.0 654.0 -292.0C624.0 -287.0 578.0 -272.0 551.0 -256.0C542.0 -354.0 531.0 -373.0 464.0 -373.0C415.0 -373.0 251.0 -373.0 211.0 -373.0C124.0 -373.0 109.0 -366.0 109.0 -326.0V0.0ZM-188.0 74.0V-55.0H137.0V74.0ZM412.0 280.0 422.0 159.0H642.0V280.0ZM-140.0 -56.0C-148.0 -239.0 -183.0 -357.0 -243.0 -428.0C-217.0 -449.0 -177.0 -493.0 -160.0 -519.0C-87.0 -429.0 -48.0 -281.0 -33.0 -65.0ZM-155.0 514.0C-160.0 390.0 -174.0 261.0 -206.0 182.0C-179.0 170.0 -129.0 144.0 -108.0 130.0C-73.0 219.0 -54.0 362.0 -45.0 500.0ZM-64.0 493.0V-24.0H48.0V493.0Z"/></g>
<g fill="green" transform="translate(1100 100) scale(0.1 -0.1)"><path d="M0.0 0.0V-320.0C0.0 -402.0 40.0 -417.0 170.0 -417.0C197.0 -417.0 551.0 -417.0 580.0 -417.0C693.0 -417.0 714.0 -386.0 724.0 -266.0C712.0 -264.0 696.0 -258.0 686.0 -250.0C678.0 -360.0 665.0 -380.0 581.0 -380.0C511.0 -380.0 212.0 -380.0 162.0 -380.0C56.0 -380.0 35.0 -365.0 35.0 -322.0V0.0ZM-370.0 59.0V23.0H260.0V59.0ZM292.0 123.0 275.0 86.0H682.0V123.0ZM-161.0 16.0C-164.0 -179.0 -199.0 -317.0 -310.0 -395.0C-300.0 -401.0 -286.0 -413.0 -282.0 -419.0C-167.0 -333.0 -130.0 -194.0 -124.0 18.0ZM-223.0 329.0C-252.0 227.0 -300.0 128.0 -361.0 58.0C-349.0 54.0 -335.0 42.0 -329.0 38.0C-271.0 109.0 -220.0 215.0 -188.0 321.0ZM-62.0 437.0V68.0H-26.0V437.0Z"/></g>
<g fill="green" transform="translate(1200 100) scale(0.1 -0.1)"><path d="M0.0 0.0V-193.0C0.0 -333.0 52.0 -375.0 256.0 -375.0C300.0 -375.0 505.0 -375.0 551.0 -375.0C704.0 -375.0 750.0 -343.0 774.0 -212.0C731.0 -204.0 669.0 -184.0 637.0 -163.0C627.0 -230.0 613.0 -240.0 539.0 -240.0C485.0 -240.0 305.0 -240.0 261.0 -240.0C162.0 -240.0 146.0 -234.0 146.0 -192.0V0.0ZM-323.0 173.0V33.0H284.0V173.0ZM391.0 250.0 325.0 125.0H729.0V250.0ZM-199.0 21.0C-194.0 -128.0 -200.0 -214.0 -282.0 -268.0C-250.0 -296.0 -201.0 -359.0 -184.0 -396.0C-67.0 -314.0 -47.0 -180.0 -50.0 24.0ZM-229.0 415.0C-246.0 341.0 -276.0 258.0 -308.0 201.0C-274.0 188.0 -211.0 161.0 -181.0 143.0C-152.0 203.0 -115.0 299.0 -93.0 382.0ZM-68.0 511.0V105.0H86.0V511.0Z"/></g>
<g fill="green" transform="translate(1300 100) scale(0.1 -0.1)"><path d="M0.0 0.0V-351.0C-0.0 -424.0 37.0 -438.0 163.0 -438.0C189.0 -438.0 549.0 -438.0 578.0 -438.0C689.0 -438.0 707.0 -409.0 717.0 -301.0C708.0 -300.0 696.0 -296.0 688.0 -289.0C681.0 -390.0 667.0 -411.0 581.0 -411.0C512.0 -411.0 205.0 -411.0 154.0 -411.0C48.0 -411.0 26.0 -396.0 26.0 -352.0V0.0ZM-336.0 41.0V13.0H215.0V41.0ZM314.0 142.0 307.0 113.0H681.0V142.0ZM-157.0 10.0C-161.0 -186.0 -184.0 -337.0 -295.0 -414.0C-288.0 -418.0 -278.0 -426.0 -274.0 -430.0C-162.0 -347.0 -137.0 -195.0 -130.0 11.0ZM-201.0 340.0C-218.0 247.0 -246.0 153.0 -288.0 89.0C-279.0 85.0 -268.0 77.0 -264.0 75.0C-224.0 141.0 -193.0 237.0 -174.0 337.0ZM-56.0 437.0V40.0H-29.0V437.0Z"/></g>
<g fill="green" transform="translate(1400 100) scale(0.1 -0.1)"><path d="M0.0 0.0V-175.0C0.0 -301.0 51.0 -338.0 247.0 -338.0C290.0 -338.0 503.0 -338.0 548.0 -338.0C699.0 -338.0 741.0 -310.0 763.0 -184.0C726.0 -178.0 669.0 -160.0 640.0 -141.0C630.0 -209.0 617.0 -219.0 541.0 -219.0C482.0 -219.0 294.0 -219.0 248.0 -219.0C145.0 -219.0 128.0 -213.0 128.0 -175.0V0.0ZM-363.0 150.0V27.0H265.0V150.0ZM363.0 277.0 323.0 168.0H701.0V277.0ZM-199.0 8.0C-200.0 -114.0 -206.0 -190.0 -310.0 -240.0C-282.0 -266.0 -244.0 -320.0 -229.0 -354.0C-93.0 -281.0 -72.0 -160.0 -69.0 10.0ZM-244.0 448.0C-258.0 371.0 -285.0 280.0 -309.0 222.0C-278.0 211.0 -222.0 188.0 -195.0 172.0C-173.0 235.0 -142.0 335.0 -123.0 419.0ZM-82.0 527.0V125.0H44.0V527.0Z"/></g>
<g fill="green" transform="translate(1500 100) scale(0.1 -0.1)"><path d="M0.0 0.0V-331.0C-0.0 -402.0 36.0 -414.0 157.0 -414.0C183.0 -414.0 539.0 -414.0 568.0 -414.0C678.0 -414.0 695.0 -385.0 704.0 -278.0C697.0 -276.0 687.0 -272.0 678.0 -268.0C671.0 -368.0 658.0 -390.0 573.0 -390.0C502.0 -390.0 200.0 -390.0 148.0 -390.0C43.0 -390.0 22.0 -375.0 22.0 -333.0V0.0ZM-305.0 50.0V26.0H178.0V50.0ZM327.0 154.0 321.0 129.0H676.0V154.0ZM-170.0 11.0C-170.0 -184.0 -177.0 -325.0 -309.0 -392.0C-303.0 -395.0 -295.0 -401.0 -293.0 -405.0C-155.0 -337.0 -148.0 -193.0 -146.0 13.0ZM-212.0 356.0C-232.0 250.0 -269.0 152.0 -324.0 87.0C-317.0 83.0 -306.0 76.0 -303.0 74.0C-250.0 141.0 -211.0 243.0 -189.0 352.0ZM-58.0 469.0V62.0H-35.0V469.0Z"/></g>
<g fill="green" transform="translate(1600 100) scale(0.1 -0.1)"><path d="M0.0 0.0V-195.0C0.0 -311.0 52.0 -343.0 244.0 -343.0C287.0 -343.0 511.0 -343.0 555.0 -343.0C708.0 -343.0 747.0 -314.0 766.0 -187.0C734.0 -182.0 682.0 -167.0 655.0 -149.0C644.0 -226.0 631.0 -239.0 551.0 -239.0C489.0 -239.0 290.0 -239.0 242.0 -239.0C134.0 -239.0 116.0 -233.0 116.0 -194.0V0.0ZM-318.0 167.0V43.0H243.0V167.0ZM387.0 270.0 351.0 162.0H707.0V270.0ZM-211.0 4.0C-208.0 -134.0 -188.0 -209.0 -342.0 -260.0C-316.0 -284.0 -290.0 -329.0 -280.0 -364.0C-85.0 -295.0 -87.0 -170.0 -95.0 11.0ZM-241.0 449.0C-252.0 362.0 -276.0 273.0 -313.0 218.0C-285.0 208.0 -233.0 185.0 -207.0 170.0C-173.0 232.0 -144.0 330.0 -129.0 428.0ZM-77.0 545.0V118.0H39.0V545.0Z"/></g>
<g fill="red" transform="translate(100 200) scale(0.1 -0.1)"><path d="M0.0 0.0V-391.0C0.0 -441.0 16.0 -452.0 73.0 -452.0C87.0 -452.0 192.0 -452.0 206.0 -452.0C265.0 -452.0 274.0 -417.0 278.0 -277.0C269.0 -274.0 257.0 -269.0 249.0 -263.0C246.0 -400.0 240.0 -422.0 205.0 -422.0C182.0 -422.0 90.0 -422.0 73.0 -422.0C37.0 -422.0 30.0 -416.0 30.0 -391.0V0.0ZM-410.0 14.0V-16.0H270.0V14.0ZM-287.0 259.0V229.0H208.0V259.0ZM-186.0 3.0C-197.0 -228.0 -255.0 -364.0 -416.0 -443.0C-408.0 -449.0 -397.0 -460.0 -393.0 -466.0C-232.0 -377.0 -167.0 -242.0 -155.0 1.0ZM-249.0 419.0C-279.0 295.0 -326.0 173.0 -390.0 90.0C-381.0 86.0 -367.0 79.0 -361.0 76.0C-302.0 159.0 -252.0 283.0 -218.0 413.0ZM-86.0 434.0V-3.0H-57.0V434.0Z"/></g>
<g fill="black" opacity=".8" transform="translate(100 200) scale(0.1 -0.1)"><path d="M0.0 0.0V-389.0C0.0 -442.0 16.0 -453.0 75.0 -453.0C88.0 -453.0 193.0 -453.0 206.0 -453.0C265.0 -453.0 276.0 -418.0 280.0 -275.0C270.0 -271.0 257.0 -266.0 249.0 -261.0C245.0 -399.0 239.0 -420.0 205.0 -420.0C182.0 -420.0 91.0 -420.0 74.0 -420.0C38.0 -420.0 31.0 -414.0 31.0 -389.0V0.0ZM-413.0 15.0V-16.0H273.0V15.0ZM-279.0 256.0 -283.0 223.0H220.0V256.0ZM-192.0 1.0C-203.0 -234.0 -253.0 -369.0 -422.0 -446.0C-414.0 -452.0 -403.0 -464.0 -399.0 -469.0C-227.0 -385.0 -172.0 -248.0 -160.0 1.0ZM-248.0 418.0C-276.0 291.0 -322.0 167.0 -387.0 83.0C-376.0 79.0 -362.0 71.0 -355.0 67.0C-296.0 153.0 -247.0 278.0 -214.0 412.0ZM-86.0 429.0V-2.0H-55.0V429.0Z"/></g>
<g fill="red" transform="translate(200 200) scale(0.1 -0.1)"><path d="M0.0 0.0V-279.0C0.0 -400.0 25.0 -443.0 133.0 -443.0C153.0 -443.0 186.0 -443.0 207.0 -443.0C295.0 -443.0 329.0 -396.0 340.0 -234.0C304.0 -224.0 244.0 -201.0 216.0 -178.0C213.0 -296.0 209.0 -316.0 192.0 -316.0C185.0 -316.0 166.0 -316.0 159.0 -316.0C144.0 -316.0 142.0 -312.0 142.0 -278.0V0.0ZM-347.0 89.0V-49.0H320.0V89.0ZM-214.0 347.0V211.0H282.0V347.0ZM-198.0 -18.0C-207.0 -175.0 -253.0 -288.0 -373.0 -349.0C-343.0 -373.0 -291.0 -431.0 -272.0 -460.0C-130.0 -374.0 -70.0 -233.0 -49.0 -25.0ZM-239.0 480.0C-260.0 366.0 -305.0 252.0 -367.0 184.0C-333.0 164.0 -273.0 122.0 -247.0 98.0C-181.0 181.0 -126.0 315.0 -96.0 452.0ZM-73.0 494.0V17.0H70.0V494.0Z"/></g>
<g fill="black" opacity=".8" transform="translate(200 200) scale(0.1 -0.1)"><path d="M0.0 0.0V-278.0C0.0 -401.0 24.0 -446.0 133.0 -446.0C154.0 -446.0 184.0 -446.0 205.0 -446.0C293.0 -446.0 326.0 -398.0 339.0 -232.0C301.0 -222.0 241.0 -199.0 213.0 -177.0C210.0 -297.0 206.0 -316.0 188.0 -316.0C183.0 -316.0 166.0 -316.0 159.0 -316.0C146.0 -316.0 143.0 -312.0 143.0 -278.0V0.0ZM-343.0 94.0V-47.0H317.0V94.0ZM-208.0 351.0 -220.0 210.0H277.0V351.0ZM-200.0 -25.0C-209.0 -174.0 -243.0 -284.0 -378.0 -346.0C-347.0 -372.0 -301.0 -431.0 -282.0 -462.0C-119.0 -374.0 -69.0 -228.0 -51.0 -29.0ZM-245.0 487.0C-265.0 367.0 -307.0 245.0 -367.0 172.0C-331.0 153.0 -269.0 113.0 -240.0 90.0C-179.0 177.0 -127.0 318.0 -100.0 460.0ZM-80.0 498.0V25.0H67.0V498.0Z"/></g>
<g fill="red" transform="translate(300 200) scale(0.1 -0.1)"><path d="M0.0 0.0V-373.0C0.0 -422.0 15.0 -432.0 68.0 -432.0C81.0 -432.0 177.0 -432.0 190.0 -432.0C247.0 -432.0 256.0 -397.0 259.0 -257.0C250.0 -254.0 238.0 -249.0 230.0 -244.0C227.0 -381.0 222.0 -402.0 189.0 -402.0C167.0 -402.0 85.0 -402.0 69.0 -402.0C35.0 -402.0 29.0 -397.0 29.0 -373.0V0.0ZM-394.0 12.0V-17.0H246.0V12.0ZM-300.0 277.0V247.0H204.0V277.0ZM-205.0 -5.0C-217.0 -229.0 -258.0 -361.0 -459.0 -427.0C-452.0 -432.0 -443.0 -442.0 -439.0 -449.0C-232.0 -379.0 -187.0 -243.0 -174.0 -5.0ZM-264.0 432.0C-293.0 304.0 -343.0 184.0 -413.0 103.0C-405.0 99.0 -390.0 92.0 -384.0 88.0C-319.0 170.0 -266.0 293.0 -233.0 426.0ZM-91.0 452.0V-2.0H-62.0V452.0Z"/></g>
<g fill="black" opacity=".8" transform="translate(300 200) scale(0.1 -0.1)"><path d="M0.0 0.0V-375.0C0.0 -425.0 15.0 -433.0 69.0 -433.0C81.0 -433.0 179.0 -433.0 193.0 -433.0C250.0 -433.0 259.0 -399.0 262.0 -259.0C253.0 -254.0 243.0 -250.0 234.0 -246.0C230.0 -383.0 225.0 -404.0 193.0 -404.0C170.0 -404.0 85.0 -404.0 68.0 -404.0C34.0 -404.0 28.0 -399.0 28.0 -376.0V0.0ZM-398.0 14.0V-14.0H244.0V14.0ZM-298.0 272.0 -297.0 243.0H206.0V272.0ZM-210.0 -3.0C-220.0 -231.0 -258.0 -362.0 -460.0 -428.0C-453.0 -433.0 -444.0 -442.0 -441.0 -448.0C-233.0 -380.0 -192.0 -243.0 -180.0 -2.0ZM-263.0 427.0C-291.0 298.0 -341.0 176.0 -412.0 96.0C-403.0 92.0 -389.0 85.0 -383.0 81.0C-318.0 163.0 -265.0 287.0 -233.0 421.0ZM-89.0 452.0V2.0H-61.0V452.0Z"/></g>
<g fill="red" transform="translate(400 200) scale(0.1 -0.1)"><path d="M0.0 0.0V-271.0C0.0 -393.0 24.0 -435.0 133.0 -435.0C153.0 -435.0 184.0 -435.0 205.0 -435.0C293.0 -435.0 327.0 -389.0 338.0 -226.0C302.0 -216.0 242.0 -193.0 214.0 -170.0C211.0 -289.0 207.0 -308.0 190.0 -308.0C183.0 -308.0 165.0 -308.0 159.0 -308.0C144.0 -308.0 142.0 -304.0 142.0 -270.0V0.0ZM-335.0 94.0V-47.0H314.0V94.0ZM-233.0 352.0V213.0H276.0V352.0ZM-214.0 -17.0C-223.0 -168.0 -237.0 -275.0 -430.0 -338.0C-399.0 -365.0 -362.0 -418.0 -347.0 -454.0C-114.0 -368.0 -81.0 -218.0 -68.0 -17.0ZM-267.0 482.0C-285.0 363.0 -326.0 251.0 -396.0 185.0C-362.0 167.0 -301.0 125.0 -274.0 101.0C-201.0 183.0 -148.0 314.0 -123.0 459.0ZM-81.0 495.0V18.0H64.0V495.0Z"/></g>
<g fill="black" opacity=".8" transform="translate(400 200) scale(0.1 -0.1)"><path d="M0.0 0.0V-275.0C0.0 -394.0 23.0 -436.0 130.0 -436.0C152.0 -436.0 183.0 -436.0 203.0 -436.0C291.0 -436.0 323.0 -390.0 336.0 -225.0C299.0 -215.0 240.0 -194.0 214.0 -171.0C210.0 -292.0 205.0 -313.0 188.0 -313.0C181.0 -313.0 163.0 -313.0 156.0 -313.0C143.0 -313.0 139.0 -308.0 139.0 -275.0V0.0ZM-340.0 97.0V-42.0H311.0V97.0ZM-236.0 352.0 -233.0 214.0H269.0V352.0ZM-216.0 -20.0C-226.0 -166.0 -236.0 -272.0 -434.0 -335.0C-403.0 -362.0 -368.0 -415.0 -354.0 -451.0C-116.0 -364.0 -85.0 -214.0 -74.0 -20.0ZM-265.0 478.0C-284.0 356.0 -326.0 241.0 -395.0 173.0C-361.0 155.0 -302.0 114.0 -272.0 91.0C-202.0 174.0 -149.0 309.0 -123.0 456.0ZM-86.0 497.0V15.0H56.0V497.0Z"/></g>
<g fill="red" transform="translate(500 200) scale(0.1 -0.1)"><path d="M0.0 0.0V-274.0C0.0 -326.0 20.0 -335.0 93.0 -335.0C109.0 -335.0 274.0 -335.0 292.0 -335.0C359.0 -335.0 371.0 -306.0 376.0 -185.0C367.0 -182.0 355.0 -177.0 346.0 -171.0C343.0 -289.0 336.0 -305.0 290.0 -305.0C255.0 -305.0 116.0 -305.0 91.0 -305.0C39.0 -305.0 29.0 -299.0 29.0 -274.0V0.0ZM-503.0 21.0V-8.0H353.0V21.0ZM-343.0 217.0 -357.0 188.0H271.0V217.0ZM-225.0 0.0C-247.0 -161.0 -315.0 -272.0 -525.0 -323.0C-519.0 -329.0 -510.0 -340.0 -507.0 -345.0C-293.0 -291.0 -220.0 -176.0 -194.0 0.0ZM-308.0 322.0C-343.0 229.0 -398.0 138.0 -462.0 75.0C-454.0 71.0 -441.0 61.0 -437.0 57.0C-376.0 121.0 -317.0 217.0 -280.0 315.0ZM-91.0 369.0V2.0H-61.0V369.0Z"/></g>
<g fill="black" opacity=".8" transform="translate(500 200) scale(0.1 -0.1)"><path d="M0.0 0.0V-272.0C0.0 -327.0 20.0 -336.0 94.0 -336.0C110.0 -336.0 272.0 -336.0 290.0 -336.0C357.0 -336.0 370.0 -307.0 375.0 -186.0C365.0 -182.0 352.0 -178.0 343.0 -172.0C339.0 -288.0 333.0 -304.0 288.0 -304.0C253.0 -304.0 116.0 -304.0 92.0 -304.0C40.0 -304.0 30.0 -298.0 30.0 -273.0V0.0ZM-504.0 20.0V-10.0H355.0V20.0ZM-344.0 223.0 -360.0 192.0H269.0V223.0ZM-224.0 -2.0C-247.0 -162.0 -316.0 -274.0 -528.0 -325.0C-521.0 -331.0 -513.0 -344.0 -509.0 -349.0C-292.0 -294.0 -218.0 -178.0 -192.0 -1.0ZM-314.0 329.0C-348.0 235.0 -402.0 144.0 -466.0 81.0C-457.0 77.0 -444.0 67.0 -439.0 62.0C-378.0 127.0 -320.0 223.0 -284.0 322.0ZM-93.0 373.0V1.0H-61.0V373.0Z"/></g>
<g fill="red" transform="translate(600 200) scale(0.1 -0.1)"><path d="M0.0 0.0V-138.0C0.0 -260.0 29.0 -303.0 158.0 -303.0C182.0 -303.0 240.0 -303.0 266.0 -303.0C367.0 -303.0 404.0 -264.0 419.0 -108.0C381.0 -98.0 317.0 -76.0 289.0 -53.0C285.0 -156.0 280.0 -169.0 252.0 -169.0C236.0 -169.0 193.0 -169.0 180.0 -169.0C150.0 -169.0 145.0 -166.0 145.0 -136.0V0.0ZM-489.0 112.0V-14.0H385.0V112.0ZM-273.0 322.0 -335.0 198.0H304.0V322.0ZM-260.0 -6.0C-274.0 -102.0 -299.0 -163.0 -509.0 -198.0C-481.0 -226.0 -446.0 -282.0 -433.0 -318.0C-178.0 -262.0 -129.0 -159.0 -110.0 -6.0ZM-319.0 397.0C-348.0 316.0 -403.0 234.0 -467.0 184.0C-431.0 167.0 -367.0 130.0 -336.0 106.0C-275.0 166.0 -210.0 263.0 -173.0 361.0ZM-117.0 415.0V55.0H28.0V415.0Z"/></g>
<g fill="black" opacity=".8" transform="translate(600 200) scale(0.1 -0.1)"><path d="M0.0 0.0V-133.0C0.0 -256.0 29.0 -300.0 159.0 -300.0C184.0 -300.0 241.0 -300.0 266.0 -300.0C367.0 -300.0 404.0 -261.0 420.0 -107.0C381.0 -96.0 316.0 -75.0 289.0 -52.0C284.0 -152.0 278.0 -165.0 251.0 -165.0C236.0 -165.0 194.0 -165.0 181.0 -165.0C153.0 -165.0 147.0 -162.0 147.0 -132.0V0.0ZM-478.0 111.0V-16.0H388.0V111.0ZM-264.0 323.0 -332.0 197.0H310.0V323.0ZM-259.0 -3.0C-273.0 -105.0 -296.0 -163.0 -507.0 -197.0C-478.0 -225.0 -442.0 -282.0 -430.0 -319.0C-173.0 -263.0 -126.0 -160.0 -108.0 -4.0ZM-321.0 400.0C-348.0 321.0 -399.0 242.0 -461.0 193.0C-425.0 177.0 -361.0 140.0 -328.0 116.0C-269.0 175.0 -208.0 269.0 -174.0 365.0ZM-115.0 407.0V58.0H34.0V407.0Z"/></g>
<g fill="red" transform="translate(700 200) scale(0.1 -0.1)"><path d="M0.0 0.0V-392.0C0.0 -442.0 16.0 -452.0 70.0 -452.0C82.0 -452.0 180.0 -452.0 194.0 -452.0C251.0 -452.0 259.0 -417.0 263.0 -277.0C254.0 -274.0 242.0 -269.0 234.0 -263.0C231.0 -401.0 225.0 -422.0 192.0 -422.0C171.0 -422.0 86.0 -422.0 70.0 -422.0C35.0 -422.0 29.0 -416.0 29.0 -392.0V0.0ZM-404.0 14.0V-16.0H254.0V14.0ZM-281.0 259.0V229.0H218.0V259.0ZM-204.0 0.0C-214.0 -240.0 -248.0 -376.0 -440.0 -446.0C-433.0 -451.0 -423.0 -461.0 -419.0 -467.0C-222.0 -393.0 -185.0 -252.0 -173.0 0.0ZM-246.0 419.0C-272.0 291.0 -317.0 169.0 -379.0 86.0C-370.0 82.0 -357.0 75.0 -351.0 72.0C-291.0 156.0 -245.0 280.0 -216.0 413.0ZM-86.0 434.0V-3.0H-57.0V434.0Z"/></g>
<g fill="black" opacity=".8" transform="translate(700 200) scale(0.1 -0.1)"><path d="M0.0 0.0V-390.0C0.0 -441.0 15.0 -451.0 70.0 -451.0C82.0 -451.0 179.0 -451.0 192.0 -451.0C249.0 -451.0 259.0 -416.0 263.0 -275.0C253.0 -271.0 241.0 -267.0 233.0 -262.0C229.0 -400.0 224.0 -420.0 192.0 -420.0C170.0 -420.0 85.0 -420.0 69.0 -420.0C36.0 -420.0 29.0 -415.0 29.0 -391.0V0.0ZM-398.0 11.0V-19.0H251.0V11.0ZM-286.0 265.0 -285.0 234.0H208.0V265.0ZM-198.0 -2.0C-208.0 -235.0 -251.0 -372.0 -436.0 -444.0C-428.0 -449.0 -418.0 -460.0 -415.0 -466.0C-226.0 -389.0 -180.0 -248.0 -167.0 -2.0ZM-248.0 423.0C-275.0 298.0 -319.0 176.0 -384.0 95.0C-374.0 91.0 -360.0 84.0 -354.0 80.0C-294.0 163.0 -247.0 285.0 -216.0 418.0ZM-86.0 439.0V-6.0H-57.0V439.0Z"/></g>
<g fill="red" transform="translate(800 200) scale(0.1 -0.1)"><path d="M0.0 0.0V-279.0C0.0 -401.0 23.0 -443.0 129.0 -443.0C148.0 -443.0 175.0 -443.0 195.0 -443.0C281.0 -443.0 314.0 -396.0 325.0 -234.0C288.0 -225.0 229.0 -201.0 201.0 -178.0C198.0 -296.0 195.0 -316.0 180.0 -316.0C174.0 -316.0 161.0 -316.0 156.0 -316.0C144.0 -316.0 142.0 -312.0 142.0 -278.0V0.0ZM-344.0 92.0V-46.0H305.0V92.0ZM-227.0 350.0V214.0H260.0V350.0ZM-204.0 -27.0C-215.0 -159.0 -231.0 -269.0 -405.0 -335.0C-373.0 -362.0 -335.0 -417.0 -319.0 -453.0C-109.0 -362.0 -74.0 -210.0 -59.0 -27.0ZM-259.0 483.0C-277.0 358.0 -317.0 232.0 -377.0 157.0C-342.0 140.0 -279.0 99.0 -251.0 76.0C-188.0 165.0 -138.0 310.0 -113.0 457.0ZM-87.0 497.0V20.0H58.0V497.0Z"/></g>
<g fill="black" opacity=".8" transform="translate(800 200) scale(0.1 -0.1)"><path d="M0.0 0.0V-277.0C0.0 -399.0 22.0 -443.0 130.0 -443.0C150.0 -443.0 177.0 -443.0 197.0 -443.0C283.0 -443.0 316.0 -397.0 329.0 -233.0C291.0 -223.0 230.0 -201.0 204.0 -178.0C200.0 -295.0 196.0 -315.0 181.0 -315.0C176.0 -315.0 162.0 -315.0 157.0 -315.0C145.0 -315.0 142.0 -310.0 142.0 -277.0V0.0ZM-342.0 89.0V-50.0H310.0V89.0ZM-229.0 352.0 -224.0 214.0H267.0V352.0ZM-203.0 -19.0C-213.0 -162.0 -235.0 -272.0 -399.0 -336.0C-368.0 -364.0 -327.0 -420.0 -309.0 -455.0C-112.0 -364.0 -71.0 -213.0 -56.0 -22.0ZM-256.0 481.0C-274.0 361.0 -317.0 242.0 -379.0 172.0C-344.0 153.0 -283.0 112.0 -254.0 89.0C-190.0 175.0 -138.0 313.0 -111.0 455.0ZM-83.0 494.0V17.0H62.0V494.0Z"/></g>
<g fill="red" transform="translate(900 200) scale(0.1 -0.1)"><path d="M0.0 0.0V-393.0C0.0 -442.0 14.0 -452.0 67.0 -452.0C79.0 -452.0 171.0 -452.0 184.0 -452.0C240.0 -452.0 248.0 -417.0 252.0 -277.0C242.0 -274.0 231.0 -269.0 222.0 -263.0C219.0 -401.0 214.0 -422.0 182.0 -422.0C162.0 -422.0 83.0 -422.0 67.0 -422.0C35.0 -422.0 29.0 -417.0 29.0 -393.0V0.0ZM-382.0 14.0V-16.0H237.0V14.0ZM-270.0 259.0V229.0H203.0V259.0ZM-196.0 0.0C-205.0 -237.0 -237.0 -375.0 -419.0 -446.0C-412.0 -451.0 -402.0 -460.0 -398.0 -467.0C-212.0 -391.0 -177.0 -249.0 -166.0 0.0ZM-235.0 419.0C-259.0 292.0 -299.0 169.0 -359.0 86.0C-351.0 82.0 -336.0 76.0 -331.0 72.0C-275.0 156.0 -232.0 280.0 -204.0 414.0ZM-84.0 434.0V-3.0H-54.0V434.0Z"/></g>
<g fill="black" opacity=".8" transform="translate(900 200) scale(0.1 -0.1)"><path d="M0.0 0.0V-392.0C0.0 -441.0 14.0 -450.0 66.0 -450.0C78.0 -450.0 168.0 -450.0 181.0 -450.0C235.0 -450.0 244.0 -416.0 248.0 -278.0C238.0 -274.0 228.0 -270.0 220.0 -265.0C216.0 -400.0 211.0 -421.0 180.0 -421.0C160.0 -421.0 80.0 -421.0 65.0 -421.0C34.0 -421.0 28.0 -416.0 28.0 -392.0V0.0ZM-379.0 11.0V-18.0H236.0V11.0ZM-274.0 263.0 -271.0 234.0H198.0V263.0ZM-190.0 -1.0C-199.0 -235.0 -238.0 -371.0 -414.0 -443.0C-407.0 -448.0 -398.0 -457.0 -394.0 -463.0C-214.0 -386.0 -172.0 -246.0 -162.0 -1.0ZM-236.0 421.0C-260.0 296.0 -301.0 175.0 -362.0 95.0C-353.0 91.0 -340.0 84.0 -333.0 82.0C-278.0 164.0 -233.0 284.0 -205.0 416.0ZM-82.0 436.0V-5.0H-55.0V436.0Z"/></g>
<g fill="red" transform="translate(1000 200) scale(0.1 -0.1)"><path d="M0.0 0.0V-280.0C0.0 -399.0 22.0 -441.0 122.0 -441.0C140.0 -441.0 164.0 -441.0 183.0 -441.0C264.0 -441.0 297.0 -396.0 308.0 -231.0C273.0 -222.0 215.0 -199.0 189.0 -177.0C186.0 -298.0 183.0 -315.0 168.0 -315.0C163.0 -315.0 151.0 -315.0 146.0 -315.0C135.0 -315.0 133.0 -311.0 133.0 -279.0V0.0ZM-327.0 92.0V-46.0H290.0V92.0ZM-216.0 350.0V214.0H244.0V350.0ZM-194.0 -27.0C-204.0 -158.0 -221.0 -269.0 -386.0 -335.0C-356.0 -361.0 -319.0 -413.0 -303.0 -448.0C-104.0 -357.0 -69.0 -207.0 -55.0 -27.0ZM-246.0 483.0C-264.0 358.0 -301.0 233.0 -359.0 157.0C-326.0 140.0 -265.0 102.0 -239.0 80.0C-178.0 169.0 -131.0 313.0 -106.0 459.0ZM-84.0 497.0V20.0H53.0V497.0Z"/></g>
<g fill="black" opacity=".8" transform="translate(1000 200) scale(0.1 -0.1)"><path d="M0.0 0.0V-279.0C0.0 -396.0 22.0 -439.0 123.0 -439.0C143.0 -439.0 168.0 -439.0 186.0 -439.0C269.0 -439.0 300.0 -394.0 313.0 -233.0C276.0 -223.0 219.0 -201.0 193.0 -180.0C190.0 -297.0 186.0 -316.0 171.0 -316.0C166.0 -316.0 154.0 -316.0 149.0 -316.0C139.0 -316.0 136.0 -311.0 136.0 -280.0V0.0ZM-327.0 86.0V-49.0H297.0V86.0ZM-223.0 349.0 -213.0 215.0H253.0V349.0ZM-194.0 -22.0C-204.0 -163.0 -226.0 -272.0 -382.0 -337.0C-351.0 -363.0 -312.0 -417.0 -295.0 -449.0C-108.0 -360.0 -69.0 -212.0 -53.0 -25.0ZM-244.0 480.0C-262.0 360.0 -302.0 239.0 -362.0 168.0C-328.0 151.0 -270.0 110.0 -242.0 89.0C-180.0 175.0 -131.0 314.0 -106.0 457.0ZM-79.0 495.0V20.0H59.0V495.0Z"/></g>
<g fill="red" transform="translate(1100 200) scale(0.1 -0.1)"><path d="M0.0 0.0V-311.0C0.0 -357.0 15.0 -366.0 69.0 -366.0C80.0 -366.0 178.0 -366.0 190.0 -366.0C242.0 -366.0 251.0 -337.0 255.0 -217.0C245.0 -214.0 233.0 -210.0 226.0 -203.0C224.0 -321.0 219.0 -336.0 187.0 -336.0C167.0 -336.0 83.0 -336.0 69.0 -336.0C35.0 -336.0 30.0 -333.0 30.0 -311.0V0.0ZM-366.0 7.0V-23.0H252.0V7.0ZM-254.0 212.0V183.0H210.0V212.0ZM-170.0 -8.0C-185.0 -181.0 -231.0 -298.0 -400.0 -356.0C-394.0 -361.0 -384.0 -371.0 -380.0 -378.0C-207.0 -315.0 -157.0 -194.0 -140.0 -8.0ZM-219.0 335.0C-245.0 244.0 -286.0 155.0 -339.0 92.0C-331.0 89.0 -316.0 81.0 -311.0 77.0C-262.0 140.0 -217.0 233.0 -190.0 329.0ZM-74.0 362.0V-13.0H-43.0V362.0Z"/></g>
<g fill="black" opacity=".8" transform="translate(1100 200) scale(0.1 -0.1)"><path d="M0.0 0.0V-315.0C0.0 -363.0 15.0 -371.0 70.0 -371.0C81.0 -371.0 182.0 -371.0 195.0 -371.0C247.0 -371.0 257.0 -343.0 261.0 -224.0C251.0 -220.0 239.0 -217.0 232.0 -211.0C229.0 -327.0 224.0 -342.0 193.0 -342.0C172.0 -342.0 84.0 -342.0 69.0 -342.0C35.0 -342.0 29.0 -338.0 29.0 -316.0V0.0ZM-376.0 11.0V-17.0H248.0V11.0ZM-256.0 214.0V185.0H203.0V214.0ZM-177.0 -3.0C-189.0 -184.0 -232.0 -302.0 -406.0 -361.0C-399.0 -366.0 -390.0 -376.0 -386.0 -382.0C-209.0 -320.0 -163.0 -196.0 -148.0 -2.0ZM-229.0 336.0C-253.0 242.0 -292.0 151.0 -345.0 87.0C-335.0 84.0 -322.0 76.0 -317.0 73.0C-268.0 137.0 -225.0 231.0 -200.0 331.0ZM-74.0 369.0V-4.0H-44.0V369.0Z"/></g>
<g fill="red" transform="translate(1200 200) scale(0.1 -0.1)"><path d="M0.0 0.0V-193.0C0.0 -315.0 21.0 -358.0 129.0 -358.0C149.0 -358.0 171.0 -358.0 192.0 -358.0C271.0 -358.0 307.0 -322.0 321.0 -184.0C282.0 -175.0 221.0 -152.0 195.0 -129.0C192.0 -213.0 188.0 -225.0 176.0 -225.0C171.0 -225.0 160.0 -225.0 156.0 -225.0C144.0 -225.0 143.0 -222.0 143.0 -192.0V0.0ZM-346.0 76.0V-48.0H303.0V76.0ZM-225.0 297.0V176.0H262.0V297.0ZM-183.0 7.0C-194.0 -98.0 -211.0 -188.0 -363.0 -243.0C-331.0 -271.0 -292.0 -327.0 -276.0 -364.0C-87.0 -283.0 -52.0 -150.0 -37.0 7.0ZM-253.0 384.0C-275.0 298.0 -318.0 211.0 -373.0 158.0C-340.0 141.0 -282.0 103.0 -255.0 80.0C-199.0 145.0 -145.0 249.0 -116.0 354.0ZM-78.0 409.0V31.0H66.0V409.0Z"/></g>
<g fill="black" opacity=".8" transform="translate(1200 200) scale(0.1 -0.1)"><path d="M0.0 0.0V-193.0C0.0 -311.0 20.0 -354.0 125.0 -354.0C146.0 -354.0 168.0 -354.0 188.0 -354.0C266.0 -354.0 299.0 -318.0 314.0 -182.0C276.0 -173.0 216.0 -151.0 192.0 -129.0C189.0 -214.0 184.0 -227.0 172.0 -227.0C167.0 -227.0 156.0 -227.0 152.0 -227.0C141.0 -227.0 138.0 -222.0 138.0 -194.0V0.0ZM-341.0 80.0V-41.0H297.0V80.0ZM-214.0 294.0V175.0H254.0V294.0ZM-186.0 6.0C-196.0 -96.0 -210.0 -182.0 -364.0 -235.0C-333.0 -263.0 -296.0 -319.0 -281.0 -354.0C-91.0 -275.0 -58.0 -144.0 -44.0 6.0ZM-248.0 375.0C-268.0 291.0 -308.0 204.0 -359.0 152.0C-326.0 135.0 -270.0 99.0 -242.0 78.0C-191.0 142.0 -141.0 245.0 -115.0 347.0ZM-80.0 396.0V23.0H59.0V396.0Z"/></g>
<g fill="red" transform="translate(1300 200) scale(0.1 -0.1)"><path d="M0.0 0.0V-159.0C0.0 -203.0 15.0 -209.0 69.0 -209.0C80.0 -209.0 181.0 -209.0 192.0 -209.0C240.0 -209.0 250.0 -187.0 254.0 -85.0C244.0 -83.0 234.0 -79.0 226.0 -72.0C223.0 -170.0 218.0 -180.0 189.0 -180.0C168.0 -180.0 84.0 -180.0 69.0 -180.0C35.0 -180.0 30.0 -177.0 30.0 -159.0V0.0ZM-367.0 -317.0V-346.0H21.0V-317.0ZM-249.0 159.0V130.0H202.0V159.0ZM-158.0 -163.0C-264.0 -251.0 -457.0 -325.0 -635.0 -363.0C-628.0 -370.0 -620.0 -380.0 -615.0 -388.0C-437.0 -347.0 -242.0 -268.0 -132.0 -177.0ZM-219.0 240.0C-247.0 169.0 -290.0 99.0 -343.0 50.0C-334.0 46.0 -319.0 40.0 -314.0 36.0C-266.0 85.0 -219.0 158.0 -190.0 234.0ZM-192.0 -328.0V-603.0H-162.0V-328.0Z"/></g>
<g fill="black" opacity=".8" transform="translate(1300 200) scale(0.1 -0.1)"><path d="M0.0 0.0V-158.0C0.0 -204.0 15.0 -209.0 69.0 -209.0C80.0 -209.0 181.0 -209.0 192.0 -209.0C240.0 -209.0 250.0 -188.0 255.0 -85.0C244.0 -82.0 234.0 -79.0 227.0 -72.0C223.0 -171.0 218.0 -180.0 189.0 -180.0C168.0 -180.0 84.0 -180.0 69.0 -180.0C35.0 -180.0 30.0 -177.0 30.0 -159.0V0.0ZM-367.0 -318.0V-346.0H20.0V-318.0ZM-248.0 159.0V130.0H202.0V159.0ZM-158.0 -163.0C-264.0 -251.0 -458.0 -325.0 -635.0 -363.0C-627.0 -370.0 -620.0 -380.0 -615.0 -387.0C-438.0 -347.0 -242.0 -267.0 -133.0 -177.0ZM-220.0 240.0C-247.0 169.0 -290.0 98.0 -344.0 50.0C-333.0 47.0 -320.0 40.0 -314.0 36.0C-266.0 86.0 -218.0 157.0 -190.0 234.0ZM-191.0 -328.0V-603.0H-162.0V-328.0Z"/></g>
<g fill="red" transform="translate(1400 200) scale(0.1 -0.1)"><path d="M0.0 0.0V-115.0C0.0 -210.0 21.0 -245.0 130.0 -245.0C151.0 -245.0 174.0 -245.0 195.0 -245.0C274.0 -245.0 310.0 -217.0 324.0 -106.0C286.0 -98.0 224.0 -80.0 198.0 -62.0C195.0 -130.0 191.0 -138.0 178.0 -138.0C173.0 -138.0 161.0 -138.0 157.0 -138.0C145.0 -138.0 143.0 -137.0 143.0 -114.0V0.0ZM-368.0 -345.0V-425.0H63.0V-345.0ZM-224.0 191.0V84.0H263.0V191.0ZM-154.0 -181.0C-256.0 -259.0 -458.0 -306.0 -640.0 -328.0C-612.0 -358.0 -582.0 -401.0 -568.0 -434.0C-371.0 -400.0 -170.0 -340.0 -44.0 -236.0ZM-254.0 241.0C-272.0 187.0 -308.0 131.0 -355.0 96.0C-322.0 80.0 -265.0 46.0 -238.0 26.0C-189.0 70.0 -142.0 142.0 -116.0 213.0ZM-226.0 -399.0V-630.0H-85.0V-399.0Z"/></g>
<g fill="black" opacity=".8" transform="translate(1400 200) scale(0.1 -0.1)"><path d="M0.0 0.0V-115.0C0.0 -210.0 20.0 -246.0 129.0 -246.0C151.0 -246.0 175.0 -246.0 194.0 -246.0C275.0 -246.0 309.0 -217.0 324.0 -105.0C285.0 -97.0 224.0 -81.0 199.0 -62.0C195.0 -130.0 191.0 -140.0 178.0 -140.0C172.0 -140.0 161.0 -140.0 157.0 -140.0C146.0 -140.0 143.0 -137.0 143.0 -115.0V0.0ZM-368.0 -344.0V-425.0H64.0V-344.0ZM-225.0 192.0 -224.0 84.0H264.0V192.0ZM-155.0 -181.0C-257.0 -260.0 -458.0 -305.0 -640.0 -327.0C-611.0 -358.0 -583.0 -401.0 -569.0 -434.0C-371.0 -400.0 -170.0 -339.0 -45.0 -236.0ZM-254.0 240.0C-272.0 186.0 -308.0 131.0 -355.0 95.0C-323.0 79.0 -266.0 45.0 -237.0 26.0C-189.0 70.0 -142.0 142.0 -117.0 213.0ZM-226.0 -399.0V-630.0H-86.0V-399.0Z"/></g>
<g fill="red" transform="translate(1500 200) scale(0.1 -0.1)"><path d="M0.0 0.0V-309.0C0.0 -357.0 16.0 -366.0 73.0 -366.0C85.0 -366.0 192.0 -366.0 206.0 -366.0C260.0 -366.0 270.0 -337.0 273.0 -217.0C264.0 -214.0 252.0 -210.0 244.0 -203.0C241.0 -321.0 236.0 -336.0 203.0 -336.0C181.0 -336.0 89.0 -336.0 72.0 -336.0C36.0 -336.0 30.0 -332.0 30.0 -310.0V0.0ZM-408.0 11.0V-18.0H258.0V11.0ZM-292.0 219.0V190.0H194.0V219.0ZM-191.0 -2.0C-206.0 -182.0 -257.0 -300.0 -446.0 -358.0C-439.0 -363.0 -430.0 -374.0 -426.0 -381.0C-234.0 -318.0 -179.0 -195.0 -160.0 -2.0ZM-257.0 335.0C-286.0 240.0 -330.0 148.0 -387.0 84.0C-378.0 80.0 -364.0 73.0 -358.0 69.0C-305.0 134.0 -258.0 229.0 -228.0 329.0ZM-82.0 368.0V-7.0H-51.0V368.0Z"/></g>
<g fill="black" opacity=".8" transform="translate(1500 200) scale(0.1 -0.1)"><path d="M0.0 0.0V-303.0C0.0 -354.0 16.0 -361.0 73.0 -361.0C84.0 -361.0 188.0 -361.0 201.0 -361.0C255.0 -361.0 266.0 -333.0 269.0 -210.0C259.0 -206.0 246.0 -203.0 238.0 -196.0C235.0 -316.0 230.0 -330.0 199.0 -330.0C177.0 -330.0 88.0 -330.0 73.0 -330.0C37.0 -330.0 31.0 -326.0 31.0 -304.0V0.0ZM-402.0 7.0V-24.0H263.0V7.0ZM-286.0 216.0 -287.0 186.0H206.0V216.0ZM-188.0 -7.0C-205.0 -183.0 -256.0 -299.0 -445.0 -356.0C-438.0 -361.0 -429.0 -372.0 -425.0 -379.0C-230.0 -320.0 -177.0 -197.0 -157.0 -6.0ZM-249.0 335.0C-277.0 240.0 -323.0 149.0 -382.0 86.0C-371.0 82.0 -357.0 73.0 -351.0 69.0C-297.0 134.0 -247.0 228.0 -218.0 328.0ZM-82.0 361.0V-14.0H-49.0V361.0Z"/></g>
<g fill="red" transform="translate(1600 200) scale(0.1 -0.1)"><path d="M0.0 0.0V-189.0C0.0 -309.0 21.0 -352.0 129.0 -352.0C149.0 -352.0 171.0 -352.0 192.0 -352.0C271.0 -352.0 307.0 -316.0 321.0 -181.0C282.0 -172.0 221.0 -149.0 195.0 -126.0C192.0 -209.0 188.0 -221.0 176.0 -221.0C171.0 -221.0 160.0 -221.0 156.0 -221.0C144.0 -221.0 143.0 -218.0 143.0 -188.0V0.0ZM-356.0 78.0V-44.0H306.0V78.0ZM-228.0 287.0V169.0H259.0V287.0ZM-199.0 11.0C-211.0 -92.0 -230.0 -179.0 -395.0 -231.0C-364.0 -258.0 -325.0 -314.0 -310.0 -351.0C-108.0 -272.0 -69.0 -144.0 -53.0 11.0ZM-256.0 353.0C-277.0 277.0 -320.0 199.0 -374.0 152.0C-341.0 134.0 -283.0 97.0 -256.0 75.0C-201.0 133.0 -148.0 228.0 -119.0 323.0ZM-85.0 361.0V-10.0H59.0V361.0Z"/></g>
<g fill="black" opacity=".8" transform="translate(1600 200) scale(0.1 -0.1)"><path d="M0.0 0.0V-187.0C0.0 -311.0 20.0 -357.0 132.0 -357.0C153.0 -357.0 174.0 -357.0 194.0 -357.0C275.0 -357.0 311.0 -320.0 327.0 -181.0C286.0 -171.0 222.0 -148.0 197.0 -125.0C193.0 -209.0 189.0 -221.0 177.0 -221.0C173.0 -221.0 164.0 -221.0 160.0 -221.0C150.0 -221.0 148.0 -217.0 148.0 -188.0V0.0ZM-357.0 77.0V-49.0H312.0V77.0ZM-235.0 293.0 -241.0 169.0H264.0V293.0ZM-198.0 9.0C-211.0 -95.0 -225.0 -180.0 -397.0 -234.0C-364.0 -264.0 -327.0 -322.0 -311.0 -361.0C-97.0 -280.0 -63.0 -146.0 -48.0 9.0ZM-265.0 365.0C-286.0 284.0 -330.0 202.0 -385.0 152.0C-351.0 135.0 -291.0 96.0 -260.0 74.0C-206.0 135.0 -152.0 235.0 -123.0 335.0ZM-87.0 374.0V3.0H63.0V374.0Z"/></g>
<g fill="red" transform="translate(100 300) scale(0.1 -0.1)"><path d="M0.0 0.0V-311.0C0.0 -364.0 20.0 -374.0 93.0 -374.0C109.0 -374.0 274.0 -374.0 292.0 -374.0C359.0 -374.0 371.0 -344.0 376.0 -223.0C367.0 -221.0 355.0 -216.0 346.0 -210.0C343.0 -327.0 336.0 -344.0 290.0 -344.0C256.0 -344.0 116.0 -344.0 91.0 -344.0C39.0 -344.0 29.0 -338.0 29.0 -311.0V0.0ZM-503.0 21.0V-8.0H353.0V21.0ZM-343.0 246.0 -357.0 216.0H271.0V246.0ZM-225.0 0.0C-246.0 -176.0 -308.0 -302.0 -523.0 -360.0C-517.0 -365.0 -508.0 -376.0 -504.0 -382.0C-286.0 -320.0 -218.0 -190.0 -194.0 0.0ZM-312.0 357.0C-340.0 262.0 -384.0 167.0 -438.0 102.0C-430.0 98.0 -417.0 89.0 -412.0 85.0C-360.0 152.0 -313.0 251.0 -283.0 352.0ZM-91.0 404.0V2.0H-61.0V404.0Z"/></g>
<g fill="black" opacity=".8" transform="translate(100 300) scale(0.1 -0.1)"><path d="M0.0 0.0V-312.0C0.0 -364.0 19.0 -373.0 93.0 -373.0C108.0 -373.0 274.0 -373.0 292.0 -373.0C360.0 -373.0 372.0 -343.0 377.0 -222.0C368.0 -219.0 357.0 -215.0 348.0 -209.0C345.0 -328.0 337.0 -345.0 291.0 -345.0C257.0 -345.0 115.0 -345.0 90.0 -345.0C38.0 -345.0 27.0 -338.0 27.0 -312.0V0.0ZM-501.0 20.0V-8.0H351.0V20.0ZM-342.0 241.0 -354.0 212.0H273.0V241.0ZM-225.0 0.0C-245.0 -175.0 -308.0 -300.0 -519.0 -357.0C-513.0 -362.0 -505.0 -374.0 -501.0 -378.0C-288.0 -317.0 -220.0 -188.0 -196.0 1.0ZM-307.0 352.0C-335.0 258.0 -380.0 163.0 -435.0 98.0C-427.0 94.0 -415.0 85.0 -410.0 82.0C-358.0 148.0 -309.0 246.0 -279.0 347.0ZM-89.0 403.0V2.0H-60.0V403.0Z"/></g>
<g fill="red" transform="translate(200 300) scale(0.1 -0.1)"><path d="M0.0 0.0V-138.0C0.0 -260.0 29.0 -303.0 158.0 -303.0C182.0 -303.0 240.0 -303.0 266.0 -303.0C367.0 -303.0 404.0 -264.0 419.0 -108.0C381.0 -98.0 317.0 -76.0 289.0 -53.0C285.0 -156.0 280.0 -169.0 252.0 -169.0C236.0 -169.0 193.0 -169.0 180.0 -169.0C150.0 -169.0 145.0 -166.0 145.0 -136.0V0.0ZM-497.0 112.0V-14.0H395.0V112.0ZM-273.0 351.0 -335.0 227.0H304.0V351.0ZM-260.0 -6.0C-274.0 -102.0 -299.0 -163.0 -509.0 -198.0C-481.0 -226.0 -446.0 -282.0 -433.0 -318.0C-178.0 -262.0 -129.0 -159.0 -110.0 -6.0ZM-332.0 442.0C-356.0 357.0 -404.0 269.0 -460.0 216.0C-424.0 200.0 -359.0 164.0 -329.0 140.0C-273.0 204.0 -217.0 306.0 -185.0 408.0ZM-117.0 448.0V88.0H28.0V448.0Z"/></g>
<g fill="black" opacity=".8" transform="translate(200 300) scale(0.1 -0.1)"><path d="M0.0 0.0V-141.0C0.0 -262.0 29.0 -307.0 157.0 -307.0C182.0 -307.0 241.0 -307.0 266.0 -307.0C368.0 -307.0 403.0 -267.0 420.0 -109.0C381.0 -98.0 317.0 -77.0 290.0 -54.0C286.0 -159.0 280.0 -173.0 252.0 -173.0C236.0 -173.0 193.0 -173.0 179.0 -173.0C150.0 -173.0 144.0 -170.0 144.0 -141.0V0.0ZM-505.0 112.0V-13.0H395.0V112.0ZM-283.0 352.0 -339.0 228.0H301.0V352.0ZM-261.0 -7.0C-275.0 -102.0 -301.0 -163.0 -511.0 -198.0C-483.0 -226.0 -448.0 -283.0 -435.0 -318.0C-181.0 -261.0 -132.0 -157.0 -112.0 -7.0ZM-331.0 440.0C-356.0 353.0 -408.0 263.0 -466.0 209.0C-430.0 193.0 -367.0 156.0 -335.0 133.0C-278.0 198.0 -219.0 302.0 -185.0 405.0ZM-119.0 455.0V86.0H22.0V455.0Z"/></g>
<g fill="red" transform="translate(300 300) scale(0.1 -0.1)"><path d="M0.0 0.0V-382.0C0.0 -454.0 34.0 -468.0 147.0 -468.0C171.0 -468.0 480.0 -468.0 506.0 -468.0C610.0 -468.0 626.0 -435.0 635.0 -313.0C625.0 -311.0 613.0 -306.0 604.0 -300.0C597.0 -415.0 585.0 -438.0 509.0 -438.0C448.0 -438.0 185.0 -438.0 140.0 -438.0C47.0 -438.0 29.0 -425.0 29.0 -383.0V0.0ZM-268.0 16.0V-14.0H130.0V16.0ZM342.0 157.0V126.0H634.0V157.0ZM-146.0 -3.0C-150.0 -230.0 -167.0 -381.0 -275.0 -463.0C-267.0 -467.0 -256.0 -475.0 -252.0 -481.0C-139.0 -394.0 -122.0 -240.0 -117.0 -3.0ZM-173.0 385.0C-193.0 268.0 -228.0 157.0 -283.0 81.0C-274.0 77.0 -260.0 70.0 -255.0 67.0C-203.0 144.0 -166.0 258.0 -143.0 380.0ZM-66.0 424.0V1.0H-37.0V424.0Z"/></g>
<g fill="black" opacity=".8" transform="translate(300 300) scale(0.1 -0.1)"><path d="M0.0 0.0V-381.0C0.0 -454.0 34.0 -468.0 147.0 -468.0C171.0 -468.0 480.0 -468.0 506.0 -468.0C610.0 -468.0 626.0 -436.0 635.0 -313.0C625.0 -311.0 613.0 -306.0 604.0 -300.0C597.0 -415.0 585.0 -438.0 509.0 -438.0C448.0 -438.0 184.0 -438.0 140.0 -438.0C47.0 -438.0 29.0 -424.0 29.0 -383.0V0.0ZM-268.0 16.0V-14.0H129.0V16.0ZM342.0 157.0 343.0 126.0H633.0V157.0ZM-146.0 -3.0C-149.0 -230.0 -167.0 -381.0 -275.0 -463.0C-267.0 -467.0 -255.0 -475.0 -252.0 -480.0C-140.0 -394.0 -122.0 -240.0 -117.0 -3.0ZM-173.0 385.0C-192.0 268.0 -227.0 157.0 -284.0 82.0C-273.0 78.0 -260.0 70.0 -255.0 68.0C-203.0 144.0 -165.0 258.0 -143.0 380.0ZM-66.0 424.0V1.0H-37.0V424.0Z"/></g>
<g fill="red" transform="translate(400 300) scale(0.1 -0.1)"><path d="M0.0 0.0V-267.0C0.0 -395.0 48.0 -431.0 231.0 -431.0C271.0 -431.0 461.0 -431.0 503.0 -431.0C644.0 -431.0 686.0 -399.0 705.0 -270.0C668.0 -264.0 612.0 -245.0 582.0 -226.0C573.0 -301.0 561.0 -314.0 494.0 -314.0C443.0 -314.0 276.0 -314.0 236.0 -314.0C145.0 -314.0 131.0 -308.0 131.0 -266.0V0.0ZM-241.0 112.0V-23.0H192.0V112.0ZM398.0 264.0V143.0H685.0V264.0ZM-164.0 -9.0C-167.0 -167.0 -174.0 -276.0 -270.0 -346.0C-239.0 -372.0 -199.0 -425.0 -183.0 -461.0C-57.0 -366.0 -39.0 -212.0 -35.0 -9.0ZM-198.0 456.0C-208.0 358.0 -228.0 254.0 -261.0 188.0C-231.0 175.0 -175.0 148.0 -150.0 131.0C-116.0 205.0 -89.0 322.0 -75.0 434.0ZM-66.0 494.0V21.0H68.0V494.0Z"/></g>
<g fill="black" opacity=".8" transform="translate(400 300) scale(0.1 -0.1)"><path d="M0.0 0.0V-267.0C0.0 -394.0 47.0 -432.0 231.0 -432.0C272.0 -432.0 462.0 -432.0 503.0 -432.0C644.0 -432.0 686.0 -399.0 706.0 -270.0C668.0 -264.0 612.0 -245.0 583.0 -226.0C573.0 -301.0 561.0 -315.0 494.0 -315.0C443.0 -315.0 276.0 -315.0 236.0 -315.0C146.0 -315.0 131.0 -308.0 131.0 -267.0V0.0ZM-241.0 112.0V-22.0H193.0V112.0ZM397.0 264.0 398.0 143.0H685.0V264.0ZM-164.0 -9.0C-168.0 -168.0 -174.0 -276.0 -270.0 -345.0C-239.0 -372.0 -199.0 -425.0 -183.0 -461.0C-57.0 -366.0 -39.0 -212.0 -35.0 -9.0ZM-198.0 455.0C-208.0 358.0 -229.0 254.0 -262.0 188.0C-231.0 175.0 -176.0 148.0 -150.0 132.0C-117.0 205.0 -89.0 323.0 -75.0 434.0ZM-67.0 495.0V21.0H68.0V495.0Z"/></g>
<g fill="red" transform="translate(500 300) scale(0.1 -0.1)"><path d="M0.0 0.0V-195.0C0.0 -237.0 14.0 -245.0 62.0 -245.0C72.0 -245.0 155.0 -245.0 165.0 -245.0C208.0 -245.0 218.0 -223.0 221.0 -131.0C211.0 -128.0 199.0 -124.0 192.0 -118.0C189.0 -205.0 185.0 -215.0 161.0 -215.0C143.0 -215.0 75.0 -215.0 62.0 -215.0C33.0 -215.0 29.0 -212.0 29.0 -195.0V0.0ZM-329.0 12.0V-17.0H240.0V12.0ZM-220.0 143.0 -235.0 114.0H169.0V143.0ZM-140.0 -4.0C-155.0 -127.0 -201.0 -204.0 -337.0 -245.0C-330.0 -250.0 -320.0 -261.0 -316.0 -268.0C-176.0 -222.0 -126.0 -141.0 -110.0 -4.0ZM-197.0 230.0C-221.0 160.0 -261.0 92.0 -307.0 43.0C-299.0 40.0 -286.0 31.0 -281.0 26.0C-237.0 76.0 -195.0 150.0 -168.0 223.0ZM-65.0 238.0V-5.0H-35.0V238.0Z"/></g>
<g fill="black" opacity=".8" transform="translate(500 300) scale(0.1 -0.1)"><path d="M0.0 0.0V-197.0C0.0 -239.0 14.0 -245.0 61.0 -245.0C70.0 -245.0 157.0 -245.0 167.0 -245.0C209.0 -245.0 219.0 -225.0 222.0 -133.0C212.0 -130.0 201.0 -126.0 195.0 -121.0C192.0 -208.0 189.0 -218.0 164.0 -218.0C145.0 -218.0 73.0 -218.0 60.0 -218.0C31.0 -218.0 26.0 -215.0 26.0 -198.0V0.0ZM-329.0 11.0V-14.0H235.0V11.0ZM-224.0 141.0 -234.0 115.0H162.0V141.0ZM-137.0 -2.0C-151.0 -123.0 -203.0 -199.0 -331.0 -242.0C-324.0 -247.0 -316.0 -258.0 -312.0 -263.0C-181.0 -215.0 -127.0 -136.0 -110.0 -1.0ZM-195.0 226.0C-221.0 157.0 -262.0 91.0 -309.0 43.0C-300.0 41.0 -289.0 32.0 -284.0 28.0C-240.0 77.0 -196.0 147.0 -169.0 220.0ZM-63.0 241.0V-4.0H-35.0V241.0Z"/></g>
<g fill="red" transform="translate(600 300) scale(0.1 -0.1)"><path d="M0.0 0.0V-121.0C0.0 -218.0 17.0 -252.0 104.0 -252.0C120.0 -252.0 136.0 -252.0 153.0 -252.0C214.0 -252.0 243.0 -224.0 255.0 -119.0C223.0 -111.0 175.0 -93.0 154.0 -75.0C152.0 -138.0 149.0 -145.0 138.0 -145.0C135.0 -145.0 128.0 -145.0 125.0 -145.0C116.0 -145.0 115.0 -143.0 115.0 -120.0V0.0ZM-262.0 68.0V-31.0H247.0V68.0ZM-149.0 205.0 -198.0 107.0H207.0V205.0ZM-148.0 1.0C-156.0 -79.0 -174.0 -136.0 -283.0 -170.0C-258.0 -192.0 -226.0 -238.0 -214.0 -267.0C-73.0 -212.0 -42.0 -122.0 -31.0 1.0ZM-195.0 264.0C-211.0 207.0 -241.0 148.0 -279.0 108.0C-252.0 96.0 -202.0 69.0 -179.0 52.0C-141.0 97.0 -103.0 169.0 -83.0 239.0ZM-65.0 257.0V14.0H59.0V257.0Z"/></g>
<g fill="black" opacity=".8" transform="translate(600 300) scale(0.1 -0.1)"><path d="M0.0 0.0V-125.0C0.0 -218.0 16.0 -252.0 102.0 -252.0C119.0 -252.0 138.0 -252.0 153.0 -252.0C216.0 -252.0 242.0 -224.0 256.0 -120.0C224.0 -112.0 176.0 -95.0 157.0 -78.0C154.0 -141.0 150.0 -150.0 139.0 -150.0C136.0 -150.0 127.0 -150.0 123.0 -150.0C114.0 -150.0 112.0 -147.0 112.0 -125.0V0.0ZM-270.0 66.0V-30.0H247.0V66.0ZM-160.0 204.0 -195.0 109.0H207.0V204.0ZM-150.0 4.0C-157.0 -79.0 -181.0 -137.0 -282.0 -170.0C-257.0 -191.0 -224.0 -237.0 -211.0 -264.0C-83.0 -210.0 -47.0 -121.0 -34.0 2.0ZM-189.0 255.0C-207.0 201.0 -241.0 145.0 -281.0 108.0C-255.0 96.0 -209.0 67.0 -184.0 50.0C-146.0 94.0 -103.0 163.0 -81.0 230.0ZM-63.0 258.0V5.0H54.0V258.0Z"/></g>
</svg>
