<?xml version="1.0" encoding="UTF-8"?>
<svg width="1700" height="400" xmlns="http://www.w3.org/2000/svg">
<rect width="100%" height="100%" fill="white"/>
<g fill="green" transform="translate(100 100) scale(0.1 -0.1)"><path d="M-0.0 0.0V-46.0H245.0V0.0ZM-201.0 10.0C-277.0 -257.0 -424.0 -507.0 -642.0 -662.0C-630.0 -669.0 -612.0 -684.0 -605.0 -692.0C-388.0 -533.0 -238.0 -278.0 -154.0 -1.0ZM197.0 0.0V-34.0H220.0C305.0 -319.0 475.0 -574.0 658.0 -702.0C667.0 -691.0 683.0 -678.0 696.0 -671.0C513.0 -546.0 338.0 -288.0 255.0 0.0Z"/></g>
<g fill="green" transform="translate(200 100) scale(0.1 -0.1)"><path d="M0.0 0.0V-221.0H259.0V0.0ZM-274.0 14.0C-345.0 -220.0 -490.0 -459.0 -690.0 -592.0C-632.0 -625.0 -536.0 -697.0 -491.0 -738.0C-292.0 -585.0 -130.0 -313.0 -35.0 -45.0ZM84.0 0.0V-114.0H126.0C191.0 -355.0 332.0 -606.0 556.0 -760.0C597.0 -701.0 687.0 -611.0 744.0 -569.0C527.0 -452.0 393.0 -227.0 339.0 0.0Z"/></g>
<g fill="green" transform="translate(300 100) scale(0.1 -0.1)"><path d="M0.0 0.0V-28.0H167.0V0.0ZM-124.0 26.0C-185.0 -118.0 -302.0 -219.0 -439.0 -286.0C-431.0 -290.0 -420.0 -299.0 -416.0 -304.0C-281.0 -235.0 -163.0 -131.0 -96.0 18.0ZM136.0 0.0V-21.0H150.0C218.0 -141.0 350.0 -259.0 468.0 -317.0C473.0 -310.0 482.0 -302.0 490.0 -298.0C373.0 -240.0 236.0 -122.0 170.0 0.0Z"/></g>
<g fill="green" transform="translate(400 100) scale(0.1 -0.1)"><path d="M0.0 0.0V-138.0H166.0V0.0ZM-157.0 32.0C-217.0 -85.0 -336.0 -172.0 -469.0 -227.0C-431.0 -247.0 -369.0 -289.0 -339.0 -313.0C-217.0 -251.0 -87.0 -150.0 -10.0 -14.0ZM65.0 0.0V-72.0H93.0C147.0 -172.0 262.0 -278.0 421.0 -338.0C443.0 -299.0 497.0 -240.0 531.0 -212.0C377.0 -172.0 268.0 -89.0 224.0 0.0Z"/></g>
<g fill="green" transform="translate(500 100) scale(0.1 -0.1)"><path d="M-0.0 0.0V-32.0H113.0V0.0ZM-47.0 92.0C-58.0 -207.0 -96.0 -593.0 -312.0 -814.0C-305.0 -818.0 -294.0 -828.0 -290.0 -834.0C-68.0 -614.0 -26.0 -220.0 -12.0 90.0ZM83.0 0.0V-24.0H99.0C137.0 -413.0 224.0 -717.0 395.0 -866.0C402.0 -859.0 414.0 -850.0 423.0 -845.0C252.0 -701.0 164.0 -393.0 127.0 0.0Z"/></g>
<g fill="green" transform="translate(600 100) scale(0.1 -0.1)"><path d="M0.0 0.0V-164.0H167.0V0.0ZM-91.0 73.0C-89.0 -209.0 -114.0 -611.0 -295.0 -811.0C-248.0 -825.0 -170.0 -859.0 -129.0 -886.0C61.0 -665.0 89.0 -234.0 98.0 79.0ZM40.0 0.0V-82.0H67.0C92.0 -414.0 149.0 -745.0 318.0 -953.0C358.0 -918.0 434.0 -869.0 483.0 -846.0C313.0 -668.0 251.0 -329.0 229.0 0.0Z"/></g>
<g fill="green" transform="translate(700 100) scale(0.1 -0.1)"><path d="M-0.0 0.0V-36.0H148.0V0.0ZM-384.0 -164.0C-443.0 -352.0 -558.0 -562.0 -762.0 -686.0C-753.0 -692.0 -739.0 -706.0 -734.0 -714.0C-532.0 -587.0 -412.0 -369.0 -346.0 -171.0ZM108.0 0.0V-27.0H125.0C178.0 -307.0 288.0 -549.0 434.0 -670.0C441.0 -662.0 454.0 -651.0 465.0 -645.0C319.0 -528.0 206.0 -284.0 154.0 0.0Z"/></g>
<g fill="green" transform="translate(800 100) scale(0.1 -0.1)"><path d="M0.0 0.0V-167.0H188.0V0.0ZM-398.0 -189.0C-457.0 -340.0 -576.0 -534.0 -763.0 -641.0C-731.0 -675.0 -677.0 -757.0 -654.0 -794.0C-451.0 -661.0 -311.0 -421.0 -228.0 -226.0ZM42.0 0.0V-85.0H73.0C108.0 -331.0 192.0 -576.0 359.0 -727.0C395.0 -686.0 471.0 -625.0 518.0 -597.0C354.0 -474.0 270.0 -238.0 240.0 0.0Z"/></g>
<g fill="green" transform="translate(900 100) scale(0.1 -0.1)"><path d="M0.0 0.0V-46.0H322.0V0.0ZM-183.0 -36.0C-262.0 -283.0 -398.0 -514.0 -553.0 -661.0C-542.0 -668.0 -523.0 -681.0 -516.0 -689.0C-364.0 -535.0 -226.0 -304.0 -139.0 -50.0ZM280.0 0.0V-33.0H302.0C372.0 -304.0 507.0 -555.0 654.0 -685.0C665.0 -673.0 681.0 -662.0 694.0 -655.0C546.0 -530.0 405.0 -275.0 336.0 0.0Z"/></g>
<g fill="green" transform="translate(1000 100) scale(0.1 -0.1)"><path d="M0.0 0.0V-221.0H284.0V0.0ZM-329.0 -3.0C-403.0 -245.0 -536.0 -479.0 -678.0 -608.0C-621.0 -649.0 -530.0 -735.0 -491.0 -780.0C-341.0 -626.0 -187.0 -352.0 -94.0 -85.0ZM102.0 0.0V-116.0H143.0C209.0 -335.0 330.0 -593.0 504.0 -767.0C544.0 -705.0 630.0 -610.0 684.0 -565.0C519.0 -434.0 405.0 -206.0 351.0 0.0Z"/></g>
<g fill="green" transform="translate(1100 100) scale(0.1 -0.1)"><path d="M-0.0 0.0V-56.0H236.0V0.0ZM-193.0 11.0C-273.0 -274.0 -431.0 -520.0 -639.0 -676.0C-624.0 -684.0 -603.0 -704.0 -594.0 -713.0C-385.0 -550.0 -223.0 -300.0 -136.0 -3.0ZM180.0 0.0V-41.0H208.0C299.0 -320.0 482.0 -586.0 658.0 -724.0C669.0 -711.0 688.0 -694.0 704.0 -685.0C528.0 -552.0 339.0 -282.0 249.0 0.0Z"/></g>
<g fill="green" transform="translate(1200 100) scale(0.1 -0.1)"><path d="M0.0 0.0V-240.0H274.0V0.0ZM-284.0 20.0C-360.0 -226.0 -514.0 -444.0 -700.0 -575.0C-635.0 -610.0 -530.0 -686.0 -480.0 -730.0C-294.0 -579.0 -119.0 -332.0 -18.0 -50.0ZM64.0 0.0V-122.0H110.0C165.0 -368.0 311.0 -609.0 539.0 -751.0C579.0 -684.0 676.0 -574.0 736.0 -525.0C523.0 -426.0 394.0 -225.0 349.0 0.0Z"/></g>
<g fill="red" transform="translate(100 200) scale(0.1 -0.1)"><path d="M0.0 0.0V-30.0H125.0V0.0ZM-113.0 -17.0C-123.0 -267.0 -145.0 -609.0 -298.0 -806.0C-293.0 -811.0 -282.0 -820.0 -277.0 -826.0C-119.0 -627.0 -94.0 -279.0 -82.0 -20.0ZM101.0 0.0V-21.0H115.0C134.0 -386.0 177.0 -677.0 301.0 -824.0C309.0 -817.0 320.0 -810.0 329.0 -805.0C203.0 -664.0 159.0 -368.0 142.0 0.0Z"/></g>
<g fill="black" opacity=".8" transform="translate(100 200) scale(0.1 -0.1)"><path d="M0.0 0.0V-30.0H128.0V0.0ZM-112.0 -18.0C-121.0 -267.0 -142.0 -611.0 -301.0 -808.0C-295.0 -812.0 -284.0 -821.0 -281.0 -827.0C-118.0 -629.0 -92.0 -279.0 -81.0 -21.0ZM104.0 0.0V-22.0H118.0C133.0 -387.0 173.0 -679.0 299.0 -825.0C307.0 -818.0 318.0 -811.0 327.0 -806.0C201.0 -667.0 159.0 -371.0 143.0 0.0Z"/></g>
<g fill="red" transform="translate(200 200) scale(0.1 -0.1)"><path d="M0.0 0.0V-147.0H158.0V0.0ZM-189.0 -22.0C-188.0 -271.0 -197.0 -638.0 -322.0 -817.0C-288.0 -839.0 -231.0 -892.0 -206.0 -922.0C-54.0 -715.0 -36.0 -306.0 -30.0 -27.0ZM29.0 0.0V-73.0H51.0C62.0 -385.0 85.0 -709.0 195.0 -923.0C232.0 -891.0 300.0 -846.0 343.0 -825.0C233.0 -642.0 205.0 -310.0 195.0 0.0Z"/></g>
<g fill="black" opacity=".8" transform="translate(200 200) scale(0.1 -0.1)"><path d="M0.0 0.0V-144.0H158.0V0.0ZM-188.0 -26.0C-186.0 -275.0 -197.0 -639.0 -325.0 -819.0C-288.0 -840.0 -230.0 -890.0 -202.0 -918.0C-52.0 -711.0 -33.0 -309.0 -27.0 -31.0ZM32.0 0.0V-72.0H54.0C66.0 -383.0 87.0 -707.0 195.0 -920.0C232.0 -889.0 300.0 -844.0 342.0 -823.0C234.0 -641.0 208.0 -309.0 197.0 0.0Z"/></g>
<g fill="red" transform="translate(300 200) scale(0.1 -0.1)"><path d="M0.0 0.0V-30.0H182.0V0.0ZM-100.0 -15.0C-133.0 -180.0 -204.0 -340.0 -289.0 -437.0C-281.0 -442.0 -271.0 -449.0 -265.0 -454.0C-178.0 -352.0 -108.0 -193.0 -69.0 -26.0ZM158.0 0.0V-21.0H172.0C205.0 -198.0 269.0 -365.0 343.0 -454.0C350.0 -447.0 361.0 -439.0 370.0 -434.0C295.0 -349.0 228.0 -179.0 195.0 0.0Z"/></g>
<g fill="black" opacity=".8" transform="translate(300 200) scale(0.1 -0.1)"><path d="M0.0 0.0V-30.0H177.0V0.0ZM-94.0 -28.0C-133.0 -184.0 -200.0 -341.0 -279.0 -439.0C-272.0 -443.0 -261.0 -452.0 -257.0 -457.0C-177.0 -355.0 -108.0 -198.0 -66.0 -37.0ZM152.0 0.0V-22.0H166.0C200.0 -199.0 265.0 -365.0 342.0 -453.0C349.0 -445.0 359.0 -438.0 368.0 -433.0C291.0 -350.0 222.0 -181.0 188.0 0.0Z"/></g>
<g fill="red" transform="translate(400 200) scale(0.1 -0.1)"><path d="M0.0 0.0V-131.0H167.0V0.0ZM-203.0 12.0C-233.0 -165.0 -292.0 -327.0 -360.0 -410.0C-322.0 -432.0 -269.0 -475.0 -245.0 -501.0C-166.0 -408.0 -95.0 -229.0 -54.0 -44.0ZM40.0 0.0V-68.0H64.0C89.0 -218.0 143.0 -385.0 229.0 -497.0C254.0 -461.0 308.0 -403.0 341.0 -377.0C262.0 -291.0 213.0 -142.0 192.0 0.0Z"/></g>
<g fill="black" opacity=".8" transform="translate(400 200) scale(0.1 -0.1)"><path d="M0.0 0.0V-131.0H165.0V0.0ZM-195.0 -7.0C-230.0 -164.0 -293.0 -320.0 -361.0 -408.0C-326.0 -432.0 -273.0 -483.0 -249.0 -510.0C-172.0 -406.0 -96.0 -227.0 -52.0 -54.0ZM46.0 0.0V-68.0H69.0C96.0 -217.0 152.0 -384.0 241.0 -497.0C263.0 -460.0 316.0 -400.0 348.0 -372.0C268.0 -288.0 219.0 -139.0 197.0 0.0Z"/></g>
<g fill="red" transform="translate(500 200) scale(0.1 -0.1)"><path d="M0.0 0.0V-30.0H230.0V0.0ZM-103.0 -10.0C-167.0 -170.0 -272.0 -319.0 -390.0 -416.0C-382.0 -421.0 -369.0 -430.0 -364.0 -435.0C-249.0 -334.0 -144.0 -184.0 -74.0 -18.0ZM198.0 0.0V-22.0H213.0C267.0 -199.0 374.0 -358.0 485.0 -439.0C492.0 -431.0 503.0 -424.0 511.0 -419.0C398.0 -340.0 288.0 -179.0 235.0 0.0Z"/></g>
<g fill="black" opacity=".8" transform="translate(500 200) scale(0.1 -0.1)"><path d="M0.0 0.0V-31.0H230.0V0.0ZM-114.0 -2.0C-173.0 -171.0 -277.0 -319.0 -391.0 -414.0C-383.0 -419.0 -370.0 -427.0 -365.0 -433.0C-254.0 -334.0 -149.0 -186.0 -84.0 -12.0ZM201.0 0.0V-23.0H216.0C272.0 -194.0 378.0 -355.0 487.0 -438.0C494.0 -429.0 505.0 -422.0 514.0 -417.0C405.0 -337.0 293.0 -174.0 238.0 0.0Z"/></g>
<g fill="red" transform="translate(600 200) scale(0.1 -0.1)"><path d="M0.0 0.0V-150.0H203.0V0.0ZM-204.0 5.0C-264.0 -136.0 -369.0 -282.0 -473.0 -369.0C-436.0 -398.0 -371.0 -462.0 -343.0 -495.0C-236.0 -389.0 -115.0 -212.0 -40.0 -48.0ZM88.0 0.0V-79.0H117.0C169.0 -221.0 265.0 -384.0 402.0 -490.0C426.0 -444.0 479.0 -373.0 512.0 -340.0C386.0 -266.0 299.0 -130.0 258.0 0.0Z"/></g>
<g fill="black" opacity=".8" transform="translate(600 200) scale(0.1 -0.1)"><path d="M0.0 0.0V-155.0H200.0V0.0ZM-209.0 22.0C-265.0 -142.0 -367.0 -290.0 -474.0 -373.0C-433.0 -401.0 -367.0 -457.0 -337.0 -487.0C-230.0 -389.0 -114.0 -216.0 -44.0 -37.0ZM78.0 0.0V-82.0H108.0C161.0 -218.0 258.0 -382.0 392.0 -491.0C418.0 -447.0 478.0 -380.0 516.0 -348.0C388.0 -268.0 295.0 -127.0 252.0 0.0Z"/></g>
<g fill="red" transform="translate(700 200) scale(0.1 -0.1)"><path d="M0.0 0.0V-29.0H125.0V0.0ZM-108.0 -17.0C-118.0 -277.0 -138.0 -636.0 -297.0 -842.0C-291.0 -847.0 -281.0 -858.0 -276.0 -863.0C-112.0 -655.0 -89.0 -291.0 -77.0 -20.0ZM101.0 0.0V-21.0H115.0C133.0 -407.0 173.0 -714.0 301.0 -869.0C309.0 -862.0 320.0 -854.0 329.0 -850.0C200.0 -701.0 159.0 -387.0 142.0 0.0Z"/></g>
<g fill="black" opacity=".8" transform="translate(700 200) scale(0.1 -0.1)"><path d="M0.0 0.0V-34.0H120.0V0.0ZM-105.0 -10.0C-113.0 -274.0 -138.0 -628.0 -299.0 -832.0C-292.0 -836.0 -280.0 -848.0 -275.0 -854.0C-109.0 -648.0 -80.0 -289.0 -69.0 -14.0ZM92.0 0.0V-25.0H108.0C127.0 -398.0 174.0 -701.0 300.0 -855.0C309.0 -847.0 322.0 -838.0 332.0 -832.0C204.0 -686.0 156.0 -379.0 137.0 0.0Z"/></g>
<g fill="red" transform="translate(800 200) scale(0.1 -0.1)"><path d="M0.0 0.0V-147.0H158.0V0.0ZM-177.0 -22.0C-176.0 -271.0 -185.0 -638.0 -310.0 -817.0C-276.0 -839.0 -219.0 -892.0 -194.0 -922.0C-42.0 -715.0 -24.0 -306.0 -18.0 -27.0ZM29.0 0.0V-73.0H51.0C62.0 -385.0 85.0 -709.0 195.0 -923.0C232.0 -891.0 300.0 -846.0 343.0 -825.0C233.0 -642.0 205.0 -310.0 195.0 0.0Z"/></g>
<g fill="black" opacity=".8" transform="translate(800 200) scale(0.1 -0.1)"><path d="M0.0 0.0V-154.0H164.0V0.0ZM-186.0 -18.0C-184.0 -279.0 -196.0 -646.0 -323.0 -831.0C-283.0 -852.0 -220.0 -903.0 -189.0 -933.0C-39.0 -720.0 -17.0 -317.0 -11.0 -26.0ZM22.0 0.0V-77.0H47.0C54.0 -399.0 77.0 -726.0 191.0 -939.0C228.0 -904.0 300.0 -851.0 344.0 -827.0C234.0 -648.0 209.0 -318.0 203.0 0.0Z"/></g>
<g fill="red" transform="translate(900 200) scale(0.1 -0.1)"><path d="M0.0 0.0V-29.0H93.0V0.0ZM-118.0 -5.0C-165.0 -149.0 -251.0 -270.0 -359.0 -349.0C-351.0 -354.0 -339.0 -365.0 -335.0 -369.0C-228.0 -287.0 -139.0 -163.0 -89.0 -12.0ZM65.0 0.0V-21.0H80.0C135.0 -168.0 241.0 -301.0 342.0 -370.0C347.0 -363.0 357.0 -354.0 365.0 -349.0C264.0 -283.0 154.0 -147.0 102.0 0.0Z"/></g>
<g fill="black" opacity=".8" transform="translate(900 200) scale(0.1 -0.1)"><path d="M0.0 0.0V-31.0H102.0V0.0ZM-124.0 -4.0C-167.0 -149.0 -254.0 -271.0 -371.0 -347.0C-363.0 -351.0 -352.0 -363.0 -348.0 -368.0C-229.0 -288.0 -139.0 -164.0 -93.0 -11.0ZM71.0 0.0V-23.0H86.0C136.0 -163.0 237.0 -301.0 332.0 -372.0C338.0 -365.0 348.0 -355.0 357.0 -350.0C263.0 -282.0 158.0 -143.0 108.0 0.0Z"/></g>
<g fill="red" transform="translate(1000 200) scale(0.1 -0.1)"><path d="M0.0 0.0V-124.0H131.0V0.0ZM-148.0 4.0C-197.0 -111.0 -288.0 -216.0 -392.0 -279.0C-365.0 -300.0 -318.0 -346.0 -298.0 -369.0C-190.0 -292.0 -86.0 -166.0 -25.0 -29.0ZM20.0 0.0V-62.0H42.0C64.0 -192.0 145.0 -308.0 277.0 -373.0C299.0 -341.0 352.0 -288.0 385.0 -265.0C255.0 -220.0 184.0 -119.0 167.0 0.0Z"/></g>
<g fill="black" opacity=".8" transform="translate(1000 200) scale(0.1 -0.1)"><path d="M0.0 0.0V-125.0H137.0V0.0ZM-156.0 -5.0C-197.0 -124.0 -283.0 -223.0 -389.0 -287.0C-355.0 -304.0 -302.0 -344.0 -275.0 -366.0C-171.0 -293.0 -73.0 -180.0 -18.0 -39.0ZM24.0 0.0V-63.0H48.0C74.0 -192.0 152.0 -309.0 279.0 -374.0C299.0 -339.0 351.0 -281.0 382.0 -255.0C265.0 -212.0 196.0 -116.0 176.0 0.0Z"/></g>
<g fill="red" transform="translate(1100 200) scale(0.1 -0.1)"><path d="M0.0 0.0V-29.0H93.0V0.0ZM-87.0 -17.0C-101.0 -207.0 -139.0 -452.0 -267.0 -594.0C-260.0 -599.0 -250.0 -609.0 -245.0 -614.0C-113.0 -469.0 -73.0 -218.0 -55.0 -21.0ZM65.0 0.0V-21.0H79.0C101.0 -283.0 154.0 -501.0 251.0 -613.0C257.0 -606.0 268.0 -598.0 276.0 -593.0C178.0 -486.0 124.0 -265.0 104.0 0.0Z"/></g>
<g fill="black" opacity=".8" transform="translate(1100 200) scale(0.1 -0.1)"><path d="M0.0 0.0V-28.0H96.0V0.0ZM-97.0 -13.0C-111.0 -208.0 -144.0 -455.0 -268.0 -598.0C-262.0 -602.0 -252.0 -611.0 -248.0 -617.0C-120.0 -471.0 -84.0 -220.0 -68.0 -18.0ZM73.0 0.0V-20.0H86.0C107.0 -285.0 155.0 -504.0 253.0 -616.0C260.0 -610.0 270.0 -602.0 279.0 -597.0C181.0 -491.0 130.0 -268.0 108.0 0.0Z"/></g>
<g fill="red" transform="translate(1200 200) scale(0.1 -0.1)"><path d="M0.0 0.0V-124.0H131.0V0.0ZM-158.0 -33.0C-166.0 -212.0 -194.0 -464.0 -293.0 -597.0C-261.0 -612.0 -206.0 -649.0 -179.0 -672.0C-69.0 -523.0 -34.0 -246.0 -16.0 -44.0ZM20.0 0.0V-63.0H41.0C50.0 -298.0 81.0 -522.0 178.0 -665.0C206.0 -636.0 264.0 -591.0 299.0 -572.0C206.0 -453.0 176.0 -228.0 167.0 0.0Z"/></g>
<g fill="black" opacity=".8" transform="translate(1200 200) scale(0.1 -0.1)"><path d="M0.0 0.0V-122.0H132.0V0.0ZM-155.0 -18.0C-163.0 -206.0 -187.0 -456.0 -288.0 -586.0C-256.0 -603.0 -206.0 -643.0 -182.0 -667.0C-67.0 -518.0 -32.0 -242.0 -17.0 -31.0ZM18.0 0.0V-61.0H38.0C47.0 -291.0 76.0 -521.0 173.0 -669.0C199.0 -640.0 256.0 -594.0 290.0 -574.0C199.0 -452.0 170.0 -224.0 163.0 0.0Z"/></g>
<g fill="red" transform="translate(1300 200) scale(0.1 -0.1)"><path d="M0.0 0.0V-30.0H172.0V0.0ZM-319.0 -200.0C-376.0 -310.0 -470.0 -417.0 -564.0 -487.0C-556.0 -493.0 -544.0 -504.0 -539.0 -510.0C-448.0 -434.0 -353.0 -325.0 -290.0 -209.0ZM143.0 0.0V-21.0H157.0C190.0 -198.0 254.0 -365.0 328.0 -454.0C335.0 -447.0 346.0 -439.0 355.0 -434.0C280.0 -349.0 213.0 -179.0 180.0 0.0Z"/></g>
<g fill="black" opacity=".8" transform="translate(1300 200) scale(0.1 -0.1)"><path d="M0.0 0.0V-31.0H173.0V0.0ZM-321.0 -198.0C-377.0 -309.0 -470.0 -417.0 -566.0 -486.0C-558.0 -491.0 -546.0 -502.0 -541.0 -509.0C-449.0 -434.0 -352.0 -324.0 -291.0 -208.0ZM145.0 0.0V-22.0H158.0C191.0 -196.0 253.0 -365.0 326.0 -454.0C334.0 -446.0 345.0 -438.0 354.0 -433.0C281.0 -348.0 214.0 -178.0 181.0 0.0Z"/></g>
<g fill="red" transform="translate(1400 200) scale(0.1 -0.1)"><path d="M0.0 0.0V-131.0H167.0V0.0ZM-389.0 -196.0C-448.0 -290.0 -547.0 -386.0 -634.0 -446.0C-613.0 -482.0 -578.0 -565.0 -568.0 -598.0C-460.0 -514.0 -338.0 -375.0 -262.0 -250.0ZM40.0 0.0V-68.0H64.0C89.0 -218.0 143.0 -385.0 229.0 -497.0C254.0 -461.0 308.0 -403.0 341.0 -377.0C262.0 -291.0 213.0 -142.0 192.0 0.0Z"/></g>
<g fill="black" opacity=".8" transform="translate(1400 200) scale(0.1 -0.1)"><path d="M0.0 0.0V-131.0H168.0V0.0ZM-391.0 -192.0C-449.0 -293.0 -547.0 -388.0 -636.0 -448.0C-612.0 -483.0 -577.0 -564.0 -565.0 -597.0C-457.0 -514.0 -336.0 -378.0 -262.0 -249.0ZM39.0 0.0V-68.0H63.0C88.0 -218.0 141.0 -386.0 228.0 -498.0C252.0 -462.0 308.0 -403.0 341.0 -376.0C262.0 -291.0 213.0 -142.0 193.0 0.0Z"/></g>
<g fill="red" transform="translate(1500 200) scale(0.1 -0.1)"><path d="M0.0 0.0V-30.0H154.0V0.0ZM-100.0 -15.0C-131.0 -179.0 -194.0 -339.0 -274.0 -437.0C-266.0 -441.0 -255.0 -449.0 -249.0 -454.0C-169.0 -351.0 -105.0 -192.0 -70.0 -25.0ZM127.0 0.0V-21.0H141.0C174.0 -198.0 238.0 -365.0 312.0 -454.0C319.0 -447.0 330.0 -439.0 339.0 -434.0C264.0 -349.0 197.0 -179.0 164.0 0.0Z"/></g>
<g fill="black" opacity=".8" transform="translate(1500 200) scale(0.1 -0.1)"><path d="M0.0 0.0V-29.0H152.0V0.0ZM-87.0 -16.0C-121.0 -175.0 -183.0 -339.0 -271.0 -439.0C-264.0 -443.0 -253.0 -452.0 -249.0 -457.0C-160.0 -352.0 -96.0 -188.0 -59.0 -24.0ZM128.0 0.0V-21.0H141.0C174.0 -202.0 240.0 -369.0 320.0 -457.0C327.0 -449.0 337.0 -442.0 346.0 -437.0C266.0 -354.0 196.0 -185.0 163.0 0.0Z"/></g>
<g fill="red" transform="translate(1600 200) scale(0.1 -0.1)"><path d="M0.0 0.0V-131.0H167.0V0.0ZM-170.0 12.0C-200.0 -165.0 -259.0 -327.0 -327.0 -410.0C-289.0 -432.0 -236.0 -475.0 -212.0 -501.0C-133.0 -408.0 -62.0 -229.0 -21.0 -44.0ZM40.0 0.0V-68.0H64.0C89.0 -218.0 143.0 -385.0 229.0 -497.0C254.0 -461.0 308.0 -403.0 341.0 -377.0C262.0 -291.0 213.0 -142.0 192.0 0.0Z"/></g>
<g fill="black" opacity=".8" transform="translate(1600 200) scale(0.1 -0.1)"><path d="M0.0 0.0V-126.0H153.0V0.0ZM-173.0 -1.0C-203.0 -157.0 -260.0 -318.0 -335.0 -408.0C-301.0 -429.0 -249.0 -475.0 -225.0 -500.0C-142.0 -395.0 -73.0 -212.0 -33.0 -40.0ZM38.0 0.0V-65.0H61.0C84.0 -219.0 138.0 -386.0 230.0 -495.0C252.0 -460.0 304.0 -404.0 336.0 -378.0C251.0 -296.0 204.0 -146.0 186.0 0.0Z"/></g>
<g fill="red" transform="translate(100 300) scale(0.1 -0.1)"><path d="M0.0 0.0V-30.0H125.0V0.0ZM-108.0 -17.0C-118.0 -267.0 -140.0 -609.0 -294.0 -806.0C-288.0 -811.0 -277.0 -820.0 -272.0 -826.0C-114.0 -627.0 -89.0 -279.0 -77.0 -20.0ZM101.0 0.0V-21.0H115.0C134.0 -386.0 177.0 -677.0 301.0 -824.0C309.0 -817.0 320.0 -810.0 329.0 -805.0C203.0 -664.0 159.0 -368.0 142.0 0.0Z"/></g>
<g fill="black" opacity=".8" transform="translate(100 300) scale(0.1 -0.1)"><path d="M0.0 0.0V-30.0H129.0V0.0ZM-110.0 -17.0C-118.0 -267.0 -140.0 -611.0 -297.0 -808.0C-291.0 -812.0 -281.0 -821.0 -277.0 -827.0C-115.0 -629.0 -90.0 -279.0 -79.0 -20.0ZM105.0 0.0V-22.0H119.0C134.0 -387.0 174.0 -679.0 299.0 -826.0C307.0 -819.0 318.0 -811.0 327.0 -806.0C202.0 -667.0 161.0 -371.0 145.0 0.0Z"/></g>
<g fill="red" transform="translate(200 300) scale(0.1 -0.1)"><path d="M0.0 0.0V-147.0H158.0V0.0ZM-189.0 -22.0C-188.0 -271.0 -197.0 -638.0 -322.0 -817.0C-288.0 -839.0 -231.0 -892.0 -206.0 -922.0C-54.0 -715.0 -36.0 -306.0 -30.0 -27.0ZM29.0 0.0V-73.0H51.0C62.0 -385.0 85.0 -709.0 195.0 -923.0C232.0 -891.0 300.0 -846.0 343.0 -825.0C233.0 -642.0 205.0 -310.0 195.0 0.0Z"/></g>
<g fill="black" opacity=".8" transform="translate(200 300) scale(0.1 -0.1)"><path d="M0.0 0.0V-145.0H159.0V0.0ZM-188.0 -24.0C-186.0 -275.0 -196.0 -638.0 -322.0 -819.0C-286.0 -840.0 -228.0 -890.0 -200.0 -918.0C-51.0 -711.0 -32.0 -309.0 -26.0 -31.0ZM32.0 0.0V-73.0H54.0C66.0 -383.0 87.0 -707.0 194.0 -920.0C231.0 -889.0 298.0 -843.0 341.0 -822.0C234.0 -640.0 208.0 -309.0 198.0 0.0Z"/></g>
<g fill="red" transform="translate(300 300) scale(0.1 -0.1)"><path d="M0.0 0.0V-30.0H124.0V0.0ZM-114.0 -17.0C-125.0 -269.0 -149.0 -607.0 -307.0 -802.0C-300.0 -807.0 -290.0 -816.0 -285.0 -822.0C-124.0 -624.0 -96.0 -281.0 -83.0 -20.0ZM101.0 0.0V-21.0H114.0C131.0 -389.0 175.0 -671.0 309.0 -813.0C316.0 -806.0 328.0 -797.0 336.0 -793.0C202.0 -658.0 157.0 -371.0 141.0 0.0Z"/></g>
<g fill="black" opacity=".8" transform="translate(300 300) scale(0.1 -0.1)"><path d="M0.0 0.0V-30.0H129.0V0.0ZM-118.0 -21.0C-128.0 -268.0 -151.0 -609.0 -310.0 -804.0C-305.0 -808.0 -294.0 -817.0 -291.0 -823.0C-127.0 -627.0 -100.0 -281.0 -88.0 -25.0ZM105.0 0.0V-22.0H119.0C135.0 -385.0 176.0 -675.0 302.0 -821.0C310.0 -814.0 321.0 -806.0 330.0 -801.0C203.0 -663.0 161.0 -369.0 144.0 0.0Z"/></g>
<g fill="red" transform="translate(400 300) scale(0.1 -0.1)"><path d="M0.0 0.0V-147.0H158.0V0.0ZM-189.0 -22.0C-193.0 -275.0 -214.0 -634.0 -341.0 -818.0C-306.0 -839.0 -248.0 -888.0 -222.0 -917.0C-72.0 -707.0 -43.0 -313.0 -29.0 -29.0ZM29.0 0.0V-73.0H51.0C62.0 -385.0 85.0 -709.0 195.0 -923.0C232.0 -891.0 300.0 -846.0 343.0 -825.0C233.0 -642.0 205.0 -310.0 195.0 0.0Z"/></g>
<g fill="black" opacity=".8" transform="translate(400 300) scale(0.1 -0.1)"><path d="M0.0 0.0V-144.0H158.0V0.0ZM-193.0 -30.0C-192.0 -276.0 -205.0 -636.0 -334.0 -815.0C-298.0 -836.0 -240.0 -887.0 -213.0 -915.0C-61.0 -710.0 -40.0 -311.0 -32.0 -36.0ZM33.0 0.0V-72.0H55.0C68.0 -381.0 90.0 -703.0 199.0 -916.0C235.0 -884.0 303.0 -839.0 346.0 -818.0C237.0 -637.0 209.0 -308.0 198.0 0.0Z"/></g>
<g fill="red" transform="translate(500 300) scale(0.1 -0.1)"><path d="M0.0 0.0V-29.0H94.0V0.0ZM-133.0 -17.0C-150.0 -212.0 -193.0 -454.0 -334.0 -594.0C-327.0 -599.0 -317.0 -609.0 -312.0 -614.0C-167.0 -472.0 -121.0 -224.0 -101.0 -21.0ZM66.0 0.0V-21.0H80.0C111.0 -284.0 183.0 -503.0 300.0 -613.0C307.0 -607.0 317.0 -598.0 326.0 -593.0C207.0 -487.0 135.0 -266.0 104.0 0.0Z"/></g>
<g fill="black" opacity=".8" transform="translate(500 300) scale(0.1 -0.1)"><path d="M0.0 0.0V-29.0H95.0V0.0ZM-122.0 -16.0C-142.0 -213.0 -187.0 -457.0 -328.0 -598.0C-321.0 -601.0 -311.0 -612.0 -307.0 -617.0C-163.0 -474.0 -114.0 -226.0 -92.0 -20.0ZM68.0 0.0V-21.0H82.0C110.0 -285.0 173.0 -505.0 282.0 -617.0C288.0 -610.0 299.0 -601.0 307.0 -597.0C199.0 -490.0 134.0 -268.0 105.0 0.0Z"/></g>
<g fill="red" transform="translate(600 300) scale(0.1 -0.1)"><path d="M0.0 0.0V-124.0H138.0V0.0ZM-167.0 -28.0C-179.0 -210.0 -215.0 -455.0 -335.0 -584.0C-300.0 -599.0 -242.0 -637.0 -213.0 -660.0C-85.0 -516.0 -40.0 -246.0 -17.0 -40.0ZM21.0 0.0V-63.0H43.0C53.0 -298.0 85.0 -522.0 188.0 -665.0C217.0 -636.0 278.0 -591.0 315.0 -572.0C217.0 -453.0 185.0 -228.0 176.0 0.0Z"/></g>
<g fill="black" opacity=".8" transform="translate(600 300) scale(0.1 -0.1)"><path d="M0.0 0.0V-128.0H136.0V0.0ZM-167.0 -26.0C-181.0 -209.0 -219.0 -451.0 -337.0 -578.0C-304.0 -595.0 -252.0 -638.0 -226.0 -662.0C-96.0 -517.0 -48.0 -249.0 -24.0 -39.0ZM20.0 0.0V-64.0H42.0C55.0 -295.0 95.0 -522.0 208.0 -665.0C236.0 -635.0 295.0 -587.0 331.0 -566.0C223.0 -449.0 183.0 -225.0 173.0 0.0Z"/></g>
<g fill="red" transform="translate(700 300) scale(0.1 -0.1)"><path d="M0.0 0.0V-29.0H93.0V0.0ZM-114.0 -17.0C-132.0 -216.0 -179.0 -456.0 -327.0 -594.0C-320.0 -599.0 -310.0 -609.0 -305.0 -614.0C-153.0 -474.0 -104.0 -228.0 -83.0 -21.0ZM65.0 0.0V-21.0H79.0C101.0 -284.0 157.0 -502.0 258.0 -613.0C265.0 -607.0 276.0 -598.0 284.0 -593.0C182.0 -487.0 125.0 -266.0 103.0 0.0Z"/></g>
<g fill="black" opacity=".8" transform="translate(700 300) scale(0.1 -0.1)"><path d="M0.0 0.0V-28.0H89.0V0.0ZM-122.0 -19.0C-139.0 -214.0 -180.0 -458.0 -318.0 -599.0C-312.0 -602.0 -302.0 -612.0 -298.0 -618.0C-156.0 -475.0 -112.0 -226.0 -93.0 -23.0ZM64.0 0.0V-21.0H77.0C103.0 -285.0 160.0 -505.0 266.0 -616.0C273.0 -610.0 283.0 -601.0 291.0 -597.0C185.0 -491.0 126.0 -269.0 100.0 0.0Z"/></g>
<g fill="red" transform="translate(800 300) scale(0.1 -0.1)"><path d="M0.0 0.0V-124.0H139.0V0.0ZM-167.0 -33.0C-178.0 -215.0 -214.0 -460.0 -334.0 -589.0C-299.0 -604.0 -241.0 -642.0 -213.0 -665.0C-84.0 -521.0 -39.0 -251.0 -17.0 -45.0ZM21.0 0.0V-63.0H43.0C52.0 -298.0 85.0 -522.0 187.0 -665.0C217.0 -636.0 278.0 -591.0 315.0 -572.0C217.0 -453.0 185.0 -228.0 176.0 0.0Z"/></g>
<g fill="black" opacity=".8" transform="translate(800 300) scale(0.1 -0.1)"><path d="M0.0 0.0V-124.0H131.0V0.0ZM-166.0 -30.0C-177.0 -211.0 -211.0 -455.0 -326.0 -582.0C-294.0 -599.0 -244.0 -641.0 -219.0 -664.0C-91.0 -519.0 -47.0 -248.0 -27.0 -41.0ZM18.0 0.0V-62.0H39.0C50.0 -293.0 86.0 -522.0 194.0 -666.0C221.0 -636.0 279.0 -591.0 314.0 -571.0C210.0 -452.0 175.0 -226.0 166.0 0.0Z"/></g>
<g fill="red" transform="translate(900 300) scale(0.1 -0.1)"><path d="M0.0 0.0V-29.0H125.0V0.0ZM-193.0 -17.0C-227.0 -215.0 -308.0 -423.0 -481.0 -545.0C-474.0 -550.0 -464.0 -560.0 -459.0 -565.0C-284.0 -441.0 -201.0 -228.0 -161.0 -23.0ZM96.0 0.0V-21.0H110.0C158.0 -257.0 254.0 -462.0 380.0 -564.0C386.0 -558.0 396.0 -549.0 404.0 -545.0C279.0 -445.0 180.0 -237.0 134.0 0.0Z"/></g>
<g fill="black" opacity=".8" transform="translate(900 300) scale(0.1 -0.1)"><path d="M0.0 0.0V-29.0H121.0V0.0ZM-182.0 -23.0C-222.0 -211.0 -303.0 -421.0 -475.0 -544.0C-468.0 -548.0 -458.0 -558.0 -454.0 -564.0C-281.0 -440.0 -196.0 -224.0 -152.0 -28.0ZM91.0 0.0V-22.0H105.0C153.0 -261.0 252.0 -463.0 384.0 -562.0C389.0 -555.0 400.0 -547.0 408.0 -542.0C276.0 -446.0 175.0 -243.0 128.0 0.0Z"/></g>
<g fill="red" transform="translate(1000 300) scale(0.1 -0.1)"><path d="M0.0 0.0V-146.0H149.0V0.0ZM-212.0 -33.0C-239.0 -208.0 -312.0 -411.0 -467.0 -514.0C-430.0 -532.0 -370.0 -573.0 -341.0 -598.0C-183.0 -481.0 -103.0 -258.0 -58.0 -55.0ZM35.0 0.0V-74.0H62.0C101.0 -271.0 180.0 -480.0 324.0 -609.0C356.0 -576.0 420.0 -528.0 461.0 -505.0C317.0 -396.0 234.0 -194.0 199.0 0.0Z"/></g>
<g fill="black" opacity=".8" transform="translate(1000 300) scale(0.1 -0.1)"><path d="M0.0 0.0V-140.0H154.0V0.0ZM-203.0 -38.0C-238.0 -199.0 -319.0 -403.0 -474.0 -512.0C-439.0 -532.0 -382.0 -580.0 -355.0 -607.0C-195.0 -482.0 -104.0 -251.0 -53.0 -59.0ZM42.0 0.0V-71.0H67.0C100.0 -278.0 177.0 -485.0 327.0 -610.0C357.0 -576.0 419.0 -526.0 458.0 -503.0C310.0 -400.0 233.0 -201.0 205.0 0.0Z"/></g>
<g fill="red" transform="translate(1100 300) scale(0.1 -0.1)"><path d="M0.0 0.0V-29.0H94.0V0.0ZM-131.0 -17.0C-146.0 -207.0 -183.0 -452.0 -311.0 -594.0C-304.0 -599.0 -295.0 -609.0 -290.0 -614.0C-157.0 -469.0 -117.0 -218.0 -100.0 -21.0ZM66.0 0.0V-21.0H80.0C101.0 -283.0 154.0 -501.0 251.0 -613.0C258.0 -606.0 269.0 -598.0 277.0 -593.0C179.0 -486.0 125.0 -265.0 104.0 0.0Z"/></g>
<g fill="black" opacity=".8" transform="translate(1100 300) scale(0.1 -0.1)"><path d="M0.0 0.0V-27.0H89.0V0.0ZM-123.0 -21.0C-140.0 -213.0 -179.0 -455.0 -316.0 -595.0C-310.0 -599.0 -301.0 -608.0 -297.0 -614.0C-156.0 -472.0 -114.0 -225.0 -95.0 -25.0ZM64.0 0.0V-20.0H77.0C102.0 -284.0 157.0 -501.0 262.0 -611.0C268.0 -605.0 278.0 -597.0 286.0 -592.0C182.0 -488.0 124.0 -267.0 99.0 0.0Z"/></g>
<g fill="red" transform="translate(1200 300) scale(0.1 -0.1)"><path d="M0.0 0.0V-124.0H131.0V0.0ZM-158.0 -33.0C-173.0 -215.0 -215.0 -454.0 -336.0 -580.0C-303.0 -596.0 -247.0 -633.0 -221.0 -656.0C-92.0 -515.0 -42.0 -253.0 -16.0 -47.0ZM20.0 0.0V-63.0H41.0C52.0 -300.0 86.0 -525.0 192.0 -666.0C221.0 -636.0 278.0 -592.0 314.0 -572.0C211.0 -455.0 177.0 -230.0 167.0 0.0Z"/></g>
<g fill="black" opacity=".8" transform="translate(1200 300) scale(0.1 -0.1)"><path d="M0.0 0.0V-122.0H129.0V0.0ZM-166.0 -32.0C-176.0 -211.0 -209.0 -455.0 -324.0 -581.0C-293.0 -598.0 -244.0 -639.0 -220.0 -663.0C-92.0 -518.0 -50.0 -247.0 -30.0 -42.0ZM19.0 0.0V-61.0H39.0C50.0 -291.0 85.0 -519.0 191.0 -663.0C218.0 -634.0 275.0 -591.0 310.0 -571.0C207.0 -452.0 173.0 -225.0 163.0 0.0Z"/></g>
<g fill="red" transform="translate(1300 300) scale(0.1 -0.1)"><path d="M0.0 0.0V-30.0H142.0V0.0ZM-59.0 -5.0C-88.0 -171.0 -137.0 -331.0 -209.0 -435.0C-202.0 -440.0 -190.0 -451.0 -185.0 -456.0C-112.0 -345.0 -60.0 -184.0 -28.0 -10.0ZM120.0 0.0V-21.0H134.0C165.0 -198.0 226.0 -365.0 297.0 -454.0C304.0 -447.0 315.0 -439.0 323.0 -434.0C252.0 -349.0 187.0 -178.0 157.0 0.0Z"/></g>
<g fill="black" opacity=".8" transform="translate(1300 300) scale(0.1 -0.1)"><path d="M0.0 0.0V-30.0H145.0V0.0ZM-56.0 -5.0C-85.0 -166.0 -138.0 -333.0 -213.0 -435.0C-205.0 -439.0 -194.0 -448.0 -190.0 -454.0C-114.0 -346.0 -59.0 -179.0 -27.0 -13.0ZM121.0 0.0V-22.0H135.0C164.0 -201.0 222.0 -368.0 293.0 -456.0C301.0 -449.0 311.0 -441.0 320.0 -436.0C249.0 -352.0 187.0 -183.0 157.0 0.0Z"/></g>
<g fill="red" transform="translate(1400 300) scale(0.1 -0.1)"><path d="M0.0 0.0V-131.0H136.0V0.0ZM-154.0 3.0C-177.0 -152.0 -222.0 -311.0 -288.0 -405.0C-255.0 -423.0 -194.0 -463.0 -169.0 -485.0C-100.0 -374.0 -46.0 -197.0 -16.0 -21.0ZM24.0 0.0V-66.0H47.0C69.0 -215.0 117.0 -381.0 194.0 -493.0C218.0 -458.0 270.0 -402.0 303.0 -377.0C233.0 -291.0 190.0 -142.0 171.0 0.0Z"/></g>
<g fill="black" opacity=".8" transform="translate(1400 300) scale(0.1 -0.1)"><path d="M0.0 0.0V-124.0H149.0V0.0ZM-152.0 14.0C-177.0 -147.0 -223.0 -311.0 -283.0 -403.0C-248.0 -423.0 -196.0 -466.0 -171.0 -490.0C-103.0 -383.0 -44.0 -201.0 -13.0 -24.0ZM31.0 0.0V-63.0H53.0C70.0 -217.0 116.0 -381.0 198.0 -489.0C219.0 -454.0 269.0 -396.0 300.0 -370.0C228.0 -290.0 190.0 -144.0 177.0 0.0Z"/></g>
<g fill="red" transform="translate(1500 300) scale(0.1 -0.1)"><path d="M0.0 0.0V-29.0H80.0V0.0ZM-105.0 -17.0C-121.0 -212.0 -165.0 -454.0 -306.0 -594.0C-299.0 -599.0 -289.0 -609.0 -284.0 -614.0C-139.0 -472.0 -93.0 -224.0 -73.0 -21.0ZM52.0 0.0V-21.0H66.0C87.0 -283.0 140.0 -501.0 237.0 -613.0C244.0 -606.0 255.0 -598.0 263.0 -593.0C165.0 -486.0 111.0 -265.0 90.0 0.0Z"/></g>
<g fill="black" opacity=".8" transform="translate(1500 300) scale(0.1 -0.1)"><path d="M0.0 0.0V-30.0H78.0V0.0ZM-113.0 -18.0C-128.0 -213.0 -167.0 -454.0 -298.0 -594.0C-291.0 -597.0 -281.0 -609.0 -277.0 -614.0C-141.0 -472.0 -99.0 -226.0 -82.0 -22.0ZM52.0 0.0V-22.0H66.0C90.0 -282.0 147.0 -501.0 247.0 -613.0C254.0 -606.0 264.0 -597.0 273.0 -592.0C173.0 -486.0 115.0 -264.0 89.0 0.0Z"/></g>
<g fill="red" transform="translate(1600 300) scale(0.1 -0.1)"><path d="M0.0 0.0V-124.0H138.0V0.0ZM-167.0 -33.0C-175.0 -205.0 -200.0 -437.0 -293.0 -563.0C-265.0 -586.0 -219.0 -635.0 -198.0 -664.0C-78.0 -515.0 -38.0 -254.0 -17.0 -46.0ZM18.0 0.0V-58.0H39.0C46.0 -291.0 83.0 -526.0 192.0 -662.0C212.0 -625.0 257.0 -562.0 283.0 -535.0C191.0 -431.0 167.0 -223.0 162.0 0.0Z"/></g>
<g fill="black" opacity=".8" transform="translate(1600 300) scale(0.1 -0.1)"><path d="M0.0 0.0V-124.0H128.0V0.0ZM-159.0 -28.0C-169.0 -209.0 -200.0 -445.0 -307.0 -570.0C-274.0 -587.0 -224.0 -628.0 -198.0 -651.0C-78.0 -508.0 -37.0 -247.0 -18.0 -39.0ZM9.0 0.0V-61.0H30.0C35.0 -292.0 68.0 -514.0 172.0 -653.0C198.0 -623.0 256.0 -574.0 291.0 -553.0C194.0 -441.0 164.0 -223.0 159.0 0.0Z"/></g>
</svg>
