<?xml version="1.0" encoding="UTF-8"?>
<svg width="1700" height="300" xmlns="http://www.w3.org/2000/svg">
<rect width="100%" height="100%" fill="white"/>
<g fill="green" transform="translate(100 100) scale(0.1 -0.1)"><path d="M0.0 -0.0V-464.0H29.0V-29.0H587.0V0.0H0.0ZM575.0 0.0V-415.0C575.0 -429.0 571.0 -433.0 555.0 -434.0C538.0 -435.0 486.0 -436.0 415.0 -434.0C420.0 -444.0 425.0 -456.0 427.0 -464.0C505.0 -464.0 552.0 -465.0 576.0 -458.0C599.0 -453.0 605.0 -441.0 605.0 -414.0V0.0H575.0ZM16.0 -197.0V-226.0H592.0V-197.0H16.0ZM280.0 -9.0V-212.0H310.0V-9.0H280.0Z"/></g>
<g fill="green" transform="translate(200 100) scale(0.1 -0.1)"><path d="M0.0 0.0V-494.0H148.0V-114.0H585.0V0.0H0.0ZM528.0 0.0V-348.0C528.0 -362.0 521.0 -366.0 504.0 -366.0C487.0 -367.0 414.0 -367.0 368.0 -364.0C387.0 -400.0 405.0 -458.0 411.0 -498.0C497.0 -498.0 564.0 -497.0 613.0 -477.0C662.0 -457.0 677.0 -421.0 677.0 -351.0V0.0H528.0ZM97.0 -177.0V-290.0H561.0V-177.0H97.0ZM255.0 -40.0V-236.0H397.0V-40.0H255.0Z"/></g>
<g fill="green" transform="translate(300 100) scale(0.1 -0.1)"><path d="M0.0 -0.0V-363.0H23.0V-23.0H479.0V0.0H0.0ZM470.0 0.0V-324.0C470.0 -335.0 467.0 -338.0 454.0 -339.0C441.0 -340.0 400.0 -341.0 343.0 -339.0C347.0 -347.0 351.0 -356.0 352.0 -363.0C414.0 -363.0 451.0 -364.0 471.0 -358.0C489.0 -354.0 494.0 -345.0 494.0 -323.0V0.0H470.0ZM13.0 -153.0V-176.0H484.0V-153.0H13.0ZM229.0 -7.0V-165.0H252.0V-7.0H229.0Z"/></g>
<g fill="green" transform="translate(400 100) scale(0.1 -0.1)"><path d="M0.0 0.0V-384.0H117.0V-90.0H482.0V0.0H0.0ZM436.0 0.0V-269.0C436.0 -280.0 430.0 -283.0 416.0 -283.0C402.0 -284.0 342.0 -284.0 304.0 -282.0C320.0 -310.0 334.0 -356.0 338.0 -388.0C408.0 -388.0 462.0 -387.0 502.0 -371.0C541.0 -356.0 553.0 -327.0 553.0 -271.0V0.0H436.0ZM79.0 -137.0V-225.0H459.0V-137.0H79.0ZM209.0 -31.0V-181.0H322.0V-31.0H209.0Z"/></g>
<g fill="green" transform="translate(500 100) scale(0.1 -0.1)"><path d="M0.0 0.0V-563.0H36.0V-36.0H514.0V0.0H0.0ZM497.0 0.0V-507.0C497.0 -522.0 491.0 -527.0 473.0 -528.0C457.0 -529.0 398.0 -529.0 323.0 -528.0C329.0 -539.0 335.0 -553.0 338.0 -562.0C427.0 -562.0 475.0 -562.0 501.0 -556.0C526.0 -549.0 533.0 -535.0 533.0 -506.0V0.0H497.0ZM13.0 -249.0V-285.0H512.0V-249.0H13.0ZM242.0 -15.0V-266.0H278.0V-15.0H242.0Z"/></g>
<g fill="green" transform="translate(600 100) scale(0.1 -0.1)"><path d="M0.0 0.0V-621.0H169.0V-130.0H469.0V0.0H0.0ZM418.0 0.0V-452.0C418.0 -466.0 413.0 -471.0 397.0 -471.0C382.0 -471.0 324.0 -472.0 284.0 -469.0C304.0 -510.0 326.0 -574.0 332.0 -619.0C415.0 -619.0 477.0 -617.0 526.0 -593.0C575.0 -570.0 589.0 -530.0 589.0 -455.0V0.0H418.0ZM87.0 -232.0V-369.0H483.0V-232.0H87.0ZM210.0 -52.0V-324.0H367.0V-52.0H210.0Z"/></g>
<g fill="red" transform="translate(100 200) scale(0.1 -0.1)"><path d="M0.0 0.0V-449.0H30.0V-29.0H461.0V0.0H0.0ZM444.0 0.0V-404.0C444.0 -417.0 439.0 -421.0 424.0 -422.0C409.0 -423.0 357.0 -424.0 289.0 -422.0C294.0 -431.0 299.0 -442.0 302.0 -449.0C381.0 -449.0 424.0 -449.0 446.0 -444.0C467.0 -439.0 473.0 -428.0 473.0 -403.0V0.0H444.0ZM12.0 -192.0V-221.0H458.0V-192.0H12.0ZM217.0 -9.0V-208.0H246.0V-9.0H217.0Z"/></g>
<g fill="black" opacity=".8" transform="translate(100 200) scale(0.1 -0.1)"><path d="M0.0 0.0V-454.0H29.0V-29.0H451.0V0.0H0.0ZM438.0 0.0V-408.0C438.0 -420.0 434.0 -424.0 419.0 -425.0C405.0 -426.0 357.0 -426.0 294.0 -425.0C299.0 -434.0 304.0 -445.0 306.0 -453.0C379.0 -453.0 419.0 -454.0 441.0 -448.0C462.0 -442.0 468.0 -431.0 468.0 -407.0V0.0H438.0ZM12.0 -199.0V-228.0H452.0V-199.0H12.0ZM214.0 -12.0V-213.0H242.0V-12.0H214.0Z"/></g>
<g fill="red" transform="translate(200 200) scale(0.1 -0.1)"><path d="M0.0 0.0V-500.0H137.0V-110.0H412.0V0.0H0.0ZM374.0 0.0V-359.0C374.0 -371.0 369.0 -375.0 355.0 -375.0C342.0 -375.0 290.0 -376.0 254.0 -373.0C271.0 -408.0 289.0 -463.0 295.0 -501.0C366.0 -501.0 420.0 -500.0 462.0 -480.0C505.0 -459.0 517.0 -425.0 517.0 -362.0V0.0H374.0ZM79.0 -189.0V-296.0H431.0V-189.0H79.0ZM190.0 -37.0V-258.0H318.0V-37.0H190.0Z"/></g>
<g fill="black" opacity=".8" transform="translate(200 200) scale(0.1 -0.1)"><path d="M0.0 0.0V-496.0H138.0V-106.0H423.0V0.0H0.0ZM379.0 0.0V-359.0C379.0 -370.0 374.0 -374.0 360.0 -374.0C347.0 -375.0 295.0 -375.0 259.0 -373.0C277.0 -406.0 294.0 -459.0 299.0 -496.0C370.0 -496.0 423.0 -495.0 465.0 -475.0C506.0 -457.0 518.0 -423.0 518.0 -361.0V0.0H379.0ZM76.0 -184.0V-294.0H427.0V-184.0H76.0ZM188.0 -41.0V-254.0H317.0V-41.0H188.0Z"/></g>
<g fill="red" transform="translate(300 200) scale(0.1 -0.1)"><path d="M0.0 0.0V-466.0H29.0V-29.0H584.0V0.0H0.0ZM573.0 0.0V-416.0C573.0 -430.0 570.0 -434.0 554.0 -435.0C537.0 -436.0 486.0 -437.0 416.0 -435.0C421.0 -445.0 426.0 -457.0 428.0 -465.0C504.0 -465.0 551.0 -466.0 574.0 -459.0C597.0 -454.0 603.0 -442.0 603.0 -415.0V0.0H573.0ZM16.0 -199.0V-228.0H590.0V-199.0H16.0ZM279.0 -10.0V-213.0H309.0V-10.0H279.0Z"/></g>
<g fill="black" opacity=".8" transform="translate(300 200) scale(0.1 -0.1)"><path d="M0.0 0.0V-464.0H29.0V-29.0H587.0V0.0H0.0ZM575.0 0.0V-415.0C575.0 -429.0 571.0 -433.0 555.0 -434.0C538.0 -435.0 486.0 -436.0 415.0 -434.0C420.0 -444.0 425.0 -456.0 427.0 -464.0C505.0 -464.0 552.0 -465.0 576.0 -458.0C599.0 -453.0 605.0 -441.0 605.0 -414.0V0.0H575.0ZM16.0 -197.0V-226.0H592.0V-197.0H16.0ZM280.0 -9.0V-212.0H310.0V-9.0H280.0Z"/></g>
<g fill="red" transform="translate(400 200) scale(0.1 -0.1)"><path d="M0.0 0.0V-493.0H148.0V-113.0H588.0V0.0H0.0ZM529.0 0.0V-348.0C529.0 -362.0 522.0 -366.0 505.0 -366.0C488.0 -367.0 416.0 -367.0 370.0 -364.0C388.0 -400.0 406.0 -457.0 412.0 -496.0C498.0 -496.0 565.0 -496.0 614.0 -476.0C663.0 -456.0 678.0 -420.0 678.0 -351.0V0.0H529.0ZM96.0 -175.0V-290.0H560.0V-175.0H96.0ZM255.0 -41.0V-235.0H397.0V-41.0H255.0Z"/></g>
<g fill="black" opacity=".8" transform="translate(400 200) scale(0.1 -0.1)"><path d="M0.0 0.0V-494.0H148.0V-114.0H585.0V0.0H0.0ZM528.0 0.0V-348.0C528.0 -362.0 521.0 -366.0 504.0 -366.0C487.0 -367.0 414.0 -367.0 368.0 -364.0C387.0 -400.0 405.0 -458.0 411.0 -498.0C497.0 -498.0 564.0 -497.0 613.0 -477.0C662.0 -457.0 677.0 -421.0 677.0 -351.0V0.0H528.0ZM97.0 -177.0V-290.0H561.0V-177.0H97.0ZM255.0 -40.0V-236.0H397.0V-40.0H255.0Z"/></g>
<g fill="red" transform="translate(500 200) scale(0.1 -0.1)"><path d="M0.0 0.0V-466.0H29.0V-29.0H399.0V0.0H0.0ZM388.0 0.0V-418.0C388.0 -431.0 384.0 -435.0 370.0 -435.0C357.0 -436.0 312.0 -436.0 254.0 -435.0C259.0 -444.0 264.0 -456.0 266.0 -463.0C334.0 -463.0 372.0 -463.0 392.0 -458.0C412.0 -452.0 417.0 -441.0 417.0 -418.0V0.0H388.0ZM10.0 -210.0V-239.0H399.0V-210.0H10.0ZM188.0 -15.0V-222.0H218.0V-15.0H188.0Z"/></g>
<g fill="black" opacity=".8" transform="translate(500 200) scale(0.1 -0.1)"><path d="M0.0 0.0V-462.0H30.0V-30.0H406.0V0.0H0.0ZM392.0 0.0V-416.0C392.0 -428.0 387.0 -432.0 372.0 -433.0C360.0 -434.0 312.0 -434.0 251.0 -433.0C256.0 -442.0 261.0 -453.0 263.0 -461.0C336.0 -461.0 374.0 -461.0 396.0 -456.0C416.0 -450.0 422.0 -439.0 422.0 -415.0V0.0H392.0ZM10.0 -205.0V-235.0H404.0V-205.0H10.0ZM191.0 -13.0V-219.0H220.0V-13.0H191.0Z"/></g>
<g fill="red" transform="translate(600 200) scale(0.1 -0.1)"><path d="M0.0 0.0V-508.0H138.0V-103.0H374.0V0.0H0.0ZM329.0 0.0V-373.0C329.0 -384.0 325.0 -388.0 312.0 -388.0C300.0 -388.0 256.0 -389.0 225.0 -387.0C240.0 -419.0 257.0 -470.0 262.0 -505.0C328.0 -505.0 378.0 -504.0 417.0 -485.0C456.0 -466.0 467.0 -434.0 467.0 -375.0V0.0H329.0ZM67.0 -187.0V-303.0H378.0V-187.0H67.0ZM164.0 -45.0V-266.0H292.0V-45.0H164.0Z"/></g>
<g fill="black" opacity=".8" transform="translate(600 200) scale(0.1 -0.1)"><path d="M0.0 0.0V-511.0H138.0V-106.0H366.0V0.0H0.0ZM326.0 0.0V-373.0C326.0 -384.0 322.0 -388.0 309.0 -388.0C297.0 -388.0 252.0 -389.0 220.0 -387.0C237.0 -420.0 255.0 -472.0 259.0 -509.0C326.0 -509.0 375.0 -507.0 415.0 -487.0C454.0 -469.0 465.0 -436.0 465.0 -375.0V0.0H326.0ZM69.0 -192.0V-304.0H381.0V-192.0H69.0ZM164.0 -43.0V-269.0H292.0V-43.0H164.0Z"/></g>
</svg>
