<?xml version="1.0" encoding="UTF-8"?>
<svg width="1700" height="1200" xmlns="http://www.w3.org/2000/svg">
<rect width="100%" height="100%" fill="white"/>
<g fill="green" transform="translate(100 100) scale(0.1 -0.1)"><path d="M0.0 -0.0V-19.0H629.0V0.0ZM-203.0 336.0V27.0C-203.0 -85.0 -205.0 -232.0 -255.0 -338.0C-249.0 -340.0 -241.0 -346.0 -238.0 -349.0C-188.0 -241.0 -183.0 -86.0 -183.0 27.0V336.0Z"/></g>
<g fill="green" transform="translate(200 100) scale(0.1 -0.1)"><path d="M0.0 0.0V-75.0H644.0V0.0ZM-241.0 367.0V-0.0C-241.0 -105.0 -244.0 -234.0 -298.0 -316.0C-271.0 -327.0 -223.0 -353.0 -203.0 -370.0C-142.0 -279.0 -135.0 -117.0 -135.0 1.0V367.0Z"/></g>
<g fill="green" transform="translate(300 100) scale(0.1 -0.1)"><path d="M0.0 -0.0V-38.0H1039.0V0.0ZM-224.0 345.0V-143.0C-224.0 -349.0 -233.0 -624.0 -341.0 -824.0C-330.0 -828.0 -315.0 -840.0 -308.0 -846.0C-198.0 -642.0 -185.0 -352.0 -185.0 -143.0V345.0Z"/></g>
<g fill="green" transform="translate(400 100) scale(0.1 -0.1)"><path d="M0.0 0.0V-158.0H1051.0V0.0ZM-299.0 377.0V-177.0C-299.0 -376.0 -306.0 -637.0 -414.0 -808.0C-366.0 -828.0 -278.0 -880.0 -242.0 -912.0C-121.0 -723.0 -104.0 -401.0 -104.0 -176.0V377.0Z"/></g>
<g fill="green" transform="translate(500 100) scale(0.1 -0.1)"><path d="M0.0 -0.0V-3.0H533.0V0.0ZM26.0 -218.0V-299.0C26.0 -298.0 29.0 -292.0 43.0 -287.0C44.0 -287.0 45.0 -289.0 45.0 -290.0C30.0 -294.0 29.0 -298.0 29.0 -299.0V-218.0Z"/></g>
<g fill="green" transform="translate(600 100) scale(0.1 -0.1)"><path d="M0.0 0.0V-12.0H610.0V0.0ZM81.0 -232.0V-361.0C81.0 -353.0 82.0 -319.0 78.0 -293.0C82.0 -298.0 93.0 -311.0 95.0 -318.0C105.0 -341.0 106.0 -360.0 106.0 -361.0V-232.0Z"/></g>
<g fill="green" transform="translate(700 100) scale(0.1 -0.1)"><path d="M0.0 -0.0V-23.0H147.0V0.0ZM-249.0 314.0V-78.0C-249.0 -198.0 -254.0 -345.0 -329.0 -448.0C-323.0 -451.0 -314.0 -458.0 -310.0 -462.0C-233.0 -357.0 -225.0 -200.0 -225.0 -78.0V314.0Z"/></g>
<g fill="green" transform="translate(800 100) scale(0.1 -0.1)"><path d="M0.0 0.0V-80.0H121.0V0.0ZM-294.0 363.0V-94.0C-294.0 -206.0 -298.0 -326.0 -369.0 -402.0C-343.0 -415.0 -296.0 -445.0 -277.0 -464.0C-195.0 -380.0 -186.0 -222.0 -186.0 -94.0V363.0Z"/></g>
<g fill="green" transform="translate(900 100) scale(0.1 -0.1)"><path d="M0.0 0.0V-14.0H586.0V0.0ZM-130.0 511.0V61.0C-130.0 -74.0 -125.0 -251.0 -164.0 -374.0C-159.0 -375.0 -152.0 -379.0 -149.0 -381.0C-112.0 -256.0 -115.0 -73.0 -115.0 62.0V511.0Z"/></g>
<g fill="green" transform="translate(1000 100) scale(0.1 -0.1)"><path d="M0.0 0.0V-71.0H596.0V0.0ZM-171.0 537.0V44.0C-171.0 -92.0 -172.0 -263.0 -216.0 -371.0C-193.0 -377.0 -157.0 -390.0 -141.0 -401.0C-95.0 -288.0 -93.0 -91.0 -93.0 47.0V537.0Z"/></g>
<g fill="green" transform="translate(1100 100) scale(0.1 -0.1)"><path d="M0.0 -0.0V-33.0H585.0V0.0ZM-207.0 276.0V70.0C-207.0 -65.0 -221.0 -248.0 -316.0 -386.0C-306.0 -389.0 -294.0 -399.0 -288.0 -404.0C-192.0 -264.0 -174.0 -69.0 -174.0 69.0V276.0Z"/></g>
<g fill="green" transform="translate(1200 100) scale(0.1 -0.1)"><path d="M0.0 0.0V-121.0H642.0V0.0ZM-204.0 295.0V163.0C-204.0 24.0 -212.0 -191.0 -312.0 -341.0C-272.0 -355.0 -198.0 -395.0 -167.0 -419.0C-63.0 -255.0 -43.0 -1.0 -43.0 162.0V295.0Z"/></g>
<g fill="green" transform="translate(1300 100) scale(0.1 -0.1)"><path d="M0.0 -0.0V-15.0H659.0V0.0ZM-169.0 298.0V21.0C-169.0 -92.0 -168.0 -245.0 -207.0 -355.0C-202.0 -357.0 -196.0 -361.0 -193.0 -363.0C-155.0 -251.0 -153.0 -91.0 -153.0 21.0V298.0Z"/></g>
<g fill="green" transform="translate(1400 100) scale(0.1 -0.1)"><path d="M0.0 0.0V-60.0H613.0V0.0ZM-275.0 344.0V48.0C-275.0 -67.0 -277.0 -231.0 -318.0 -336.0C-293.0 -343.0 -251.0 -357.0 -232.0 -369.0C-189.0 -258.0 -186.0 -71.0 -186.0 50.0V344.0Z"/></g>
<g fill="green" transform="translate(1500 100) scale(0.1 -0.1)"><path d="M0.0 0.0V-25.0H659.0V0.0ZM-166.0 342.0V69.0C-166.0 -54.0 -177.0 -211.0 -277.0 -324.0C-270.0 -327.0 -260.0 -336.0 -257.0 -341.0C-156.0 -224.0 -141.0 -57.0 -141.0 69.0V342.0Z"/></g>
<g fill="green" transform="translate(1600 100) scale(0.1 -0.1)"><path d="M0.0 0.0V-109.0H609.0V0.0ZM-242.0 353.0V-27.0C-242.0 -127.0 -250.0 -231.0 -351.0 -296.0C-322.0 -315.0 -264.0 -367.0 -245.0 -394.0C-124.0 -314.0 -105.0 -153.0 -105.0 -28.0V353.0Z"/></g>
<g fill="green" transform="translate(100 200) scale(0.1 -0.1)"><path d="M0.0 -0.0V-19.0H609.0V0.0ZM-209.0 322.0V82.0C-209.0 -38.0 -210.0 -205.0 -247.0 -330.0C-240.0 -333.0 -232.0 -339.0 -229.0 -342.0C-192.0 -214.0 -188.0 -39.0 -188.0 81.0V322.0Z"/></g>
<g fill="green" transform="translate(200 200) scale(0.1 -0.1)"><path d="M0.0 0.0V-78.0H650.0V0.0ZM-254.0 347.0V-8.0C-254.0 -118.0 -254.0 -263.0 -272.0 -358.0C-244.0 -366.0 -196.0 -385.0 -174.0 -398.0C-153.0 -295.0 -153.0 -125.0 -153.0 -7.0V347.0Z"/></g>
<g fill="red" transform="translate(100 300) scale(0.1 -0.1)"><path d="M0.0 0.0V-29.0H772.0V0.0ZM20.0 -238.0V-372.0C20.0 -481.0 8.0 -633.0 -72.0 -748.0C-65.0 -751.0 -53.0 -760.0 -48.0 -766.0C34.0 -648.0 50.0 -486.0 50.0 -373.0V-238.0Z"/></g>
<g fill="black" opacity=".8" transform="translate(100 300) scale(0.1 -0.1)"><path d="M0.0 0.0V-31.0H777.0V0.0ZM22.0 -249.0V-369.0C22.0 -480.0 8.0 -632.0 -79.0 -749.0C-70.0 -752.0 -60.0 -763.0 -55.0 -769.0C34.0 -648.0 52.0 -484.0 52.0 -370.0V-249.0Z"/></g>
<g fill="red" transform="translate(200 300) scale(0.1 -0.1)"><path d="M0.0 0.0V-138.0H824.0V0.0ZM5.0 -284.0V-424.0C5.0 -525.0 -1.0 -667.0 -80.0 -766.0C-48.0 -785.0 18.0 -842.0 42.0 -871.0C138.0 -752.0 158.0 -557.0 158.0 -427.0V-284.0Z"/></g>
<g fill="black" opacity=".8" transform="translate(200 300) scale(0.1 -0.1)"><path d="M0.0 0.0V-130.0H820.0V0.0ZM11.0 -274.0V-425.0C11.0 -528.0 4.0 -671.0 -78.0 -772.0C-46.0 -788.0 19.0 -839.0 42.0 -865.0C137.0 -749.0 156.0 -556.0 156.0 -427.0V-274.0Z"/></g>
<g fill="red" transform="translate(300 300) scale(0.1 -0.1)"><path d="M0.0 0.0V-30.0H768.0V0.0ZM-14.0 0.0V-294.0C-14.0 -447.0 -24.0 -655.0 -117.0 -806.0C-110.0 -810.0 -98.0 -819.0 -93.0 -824.0C3.0 -669.0 16.0 -451.0 16.0 -294.0V0.0Z"/></g>
<g fill="black" opacity=".8" transform="translate(300 300) scale(0.1 -0.1)"><path d="M0.0 0.0V-30.0H769.0V0.0ZM-16.0 -1.0V-290.0C-16.0 -445.0 -25.0 -656.0 -116.0 -811.0C-107.0 -814.0 -96.0 -824.0 -90.0 -829.0C2.0 -670.0 15.0 -447.0 15.0 -290.0V-1.0Z"/></g>
<g fill="red" transform="translate(400 300) scale(0.1 -0.1)"><path d="M0.0 0.0V-140.0H766.0V0.0ZM-85.0 0.0V-311.0C-85.0 -466.0 -91.0 -688.0 -173.0 -835.0C-136.0 -848.0 -71.0 -885.0 -43.0 -908.0C46.0 -746.0 61.0 -484.0 61.0 -311.0V0.0Z"/></g>
<g fill="black" opacity=".8" transform="translate(400 300) scale(0.1 -0.1)"><path d="M0.0 0.0V-134.0H765.0V0.0ZM-83.0 -2.0V-312.0C-83.0 -466.0 -88.0 -683.0 -172.0 -830.0C-137.0 -844.0 -72.0 -885.0 -47.0 -909.0C46.0 -749.0 61.0 -485.0 61.0 -312.0V-2.0Z"/></g>
<g fill="red" transform="translate(500 300) scale(0.1 -0.1)"><path d="M0.0 0.0V-29.0H548.0V0.0ZM-16.0 0.0V-302.0C-16.0 -461.0 -27.0 -678.0 -133.0 -835.0C-125.0 -838.0 -112.0 -844.0 -107.0 -849.0C-1.0 -691.0 13.0 -465.0 13.0 -302.0V0.0Z"/></g>
<g fill="black" opacity=".8" transform="translate(500 300) scale(0.1 -0.1)"><path d="M0.0 0.0V-32.0H545.0V0.0ZM-17.0 -1.0V-313.0C-17.0 -468.0 -28.0 -672.0 -130.0 -820.0C-122.0 -824.0 -111.0 -834.0 -104.0 -839.0C-0.0 -687.0 14.0 -470.0 14.0 -314.0V-1.0Z"/></g>
<g fill="red" transform="translate(600 300) scale(0.1 -0.1)"><path d="M0.0 0.0V-131.0H518.0V0.0ZM-78.0 0.0V-304.0C-78.0 -455.0 -85.0 -668.0 -178.0 -810.0C-146.0 -824.0 -86.0 -865.0 -62.0 -889.0C41.0 -732.0 58.0 -474.0 58.0 -304.0V0.0Z"/></g>
<g fill="black" opacity=".8" transform="translate(600 300) scale(0.1 -0.1)"><path d="M0.0 0.0V-134.0H521.0V0.0ZM-80.0 3.0V-297.0C-80.0 -453.0 -87.0 -671.0 -184.0 -819.0C-151.0 -833.0 -88.0 -876.0 -64.0 -900.0C44.0 -739.0 61.0 -474.0 61.0 -298.0V3.0Z"/></g>
<g fill="red" transform="translate(700 300) scale(0.1 -0.1)"><path d="M0.0 0.0V-29.0H574.0V0.0ZM8.0 -204.0V-376.0C8.0 -490.0 -5.0 -646.0 -92.0 -763.0C-84.0 -767.0 -73.0 -776.0 -68.0 -782.0C21.0 -661.0 37.0 -495.0 37.0 -376.0V-204.0Z"/></g>
<g fill="black" opacity=".8" transform="translate(700 300) scale(0.1 -0.1)"><path d="M0.0 0.0V-30.0H578.0V0.0ZM6.0 -198.0V-379.0C6.0 -493.0 -6.0 -646.0 -90.0 -760.0C-82.0 -764.0 -72.0 -774.0 -66.0 -779.0C20.0 -661.0 36.0 -497.0 36.0 -380.0V-198.0Z"/></g>
<g fill="red" transform="translate(800 300) scale(0.1 -0.1)"><path d="M0.0 0.0V-116.0H623.0V0.0ZM7.0 -207.0V-393.0C7.0 -505.0 0.0 -663.0 -83.0 -773.0C-53.0 -786.0 6.0 -824.0 30.0 -845.0C121.0 -722.0 139.0 -528.0 139.0 -394.0V-207.0Z"/></g>
<g fill="black" opacity=".8" transform="translate(800 300) scale(0.1 -0.1)"><path d="M0.0 0.0V-122.0H620.0V0.0ZM5.0 -212.0V-391.0C5.0 -503.0 -1.0 -660.0 -81.0 -771.0C-51.0 -785.0 9.0 -828.0 31.0 -852.0C122.0 -729.0 139.0 -527.0 139.0 -392.0V-212.0Z"/></g>
<g fill="red" transform="translate(900 300) scale(0.1 -0.1)"><path d="M0.0 0.0V-29.0H742.0V0.0ZM-12.0 0.0V-185.0C-12.0 -310.0 -29.0 -474.0 -140.0 -596.0C-133.0 -600.0 -122.0 -610.0 -118.0 -617.0C-3.0 -490.0 17.0 -315.0 17.0 -185.0V0.0Z"/></g>
<g fill="black" opacity=".8" transform="translate(900 300) scale(0.1 -0.1)"><path d="M0.0 0.0V-30.0H750.0V0.0ZM-14.0 4.0V-182.0C-14.0 -309.0 -29.0 -477.0 -139.0 -601.0C-131.0 -605.0 -121.0 -615.0 -115.0 -621.0C-4.0 -492.0 15.0 -313.0 15.0 -183.0V4.0Z"/></g>
<g fill="red" transform="translate(1000 300) scale(0.1 -0.1)"><path d="M0.0 0.0V-131.0H725.0V0.0ZM-71.0 0.0V-176.0C-71.0 -299.0 -81.0 -470.0 -201.0 -587.0C-171.0 -605.0 -111.0 -657.0 -89.0 -685.0C47.0 -552.0 73.0 -328.0 73.0 -178.0V0.0Z"/></g>
<g fill="black" opacity=".8" transform="translate(1000 300) scale(0.1 -0.1)"><path d="M0.0 0.0V-131.0H718.0V0.0ZM-76.0 -5.0V-179.0C-76.0 -299.0 -85.0 -468.0 -201.0 -583.0C-169.0 -600.0 -103.0 -654.0 -80.0 -682.0C51.0 -551.0 75.0 -328.0 75.0 -181.0V-5.0Z"/></g>
<g fill="red" transform="translate(1100 300) scale(0.1 -0.1)"><path d="M0.0 0.0V-29.0H763.0V0.0ZM-14.0 0.0V-298.0C-14.0 -453.0 -24.0 -664.0 -117.0 -818.0C-110.0 -821.0 -98.0 -830.0 -93.0 -835.0C3.0 -678.0 15.0 -457.0 15.0 -298.0V0.0Z"/></g>
<g fill="black" opacity=".8" transform="translate(1100 300) scale(0.1 -0.1)"><path d="M0.0 0.0V-32.0H755.0V0.0ZM-10.0 -1.0V-290.0C-10.0 -451.0 -21.0 -669.0 -122.0 -828.0C-113.0 -832.0 -102.0 -843.0 -95.0 -848.0C7.0 -684.0 21.0 -454.0 21.0 -291.0V-1.0Z"/></g>
<g fill="red" transform="translate(1200 300) scale(0.1 -0.1)"><path d="M0.0 0.0V-140.0H721.0V0.0ZM-89.0 0.0V-295.0C-89.0 -460.0 -97.0 -698.0 -200.0 -856.0C-162.0 -870.0 -95.0 -907.0 -66.0 -931.0C43.0 -759.0 61.0 -478.0 61.0 -295.0V0.0Z"/></g>
<g fill="black" opacity=".8" transform="translate(1200 300) scale(0.1 -0.1)"><path d="M0.0 0.0V-140.0H730.0V0.0ZM-93.0 -1.0V-300.0C-93.0 -460.0 -100.0 -688.0 -193.0 -842.0C-158.0 -857.0 -90.0 -901.0 -64.0 -926.0C39.0 -758.0 56.0 -481.0 56.0 -301.0V-1.0Z"/></g>
<g fill="red" transform="translate(1300 300) scale(0.1 -0.1)"><path d="M0.0 0.0V-30.0H799.0V0.0ZM-14.0 0.0V-303.0C-14.0 -452.0 -21.0 -654.0 -106.0 -802.0C-99.0 -805.0 -86.0 -814.0 -81.0 -820.0C4.0 -668.0 16.0 -455.0 16.0 -303.0V0.0Z"/></g>
<g fill="black" opacity=".8" transform="translate(1300 300) scale(0.1 -0.1)"><path d="M0.0 0.0V-29.0H792.0V0.0ZM-9.0 6.0V-308.0C-9.0 -456.0 -18.0 -653.0 -112.0 -796.0C-103.0 -800.0 -93.0 -810.0 -87.0 -815.0C7.0 -667.0 20.0 -459.0 20.0 -308.0V6.0Z"/></g>
<g fill="red" transform="translate(1400 300) scale(0.1 -0.1)"><path d="M0.0 0.0V-139.0H779.0V0.0ZM-68.0 0.0V-401.0C-68.0 -536.0 -74.0 -704.0 -160.0 -814.0C-127.0 -831.0 -64.0 -880.0 -40.0 -907.0C62.0 -780.0 78.0 -559.0 78.0 -401.0V0.0Z"/></g>
<g fill="black" opacity=".8" transform="translate(1400 300) scale(0.1 -0.1)"><path d="M0.0 0.0V-135.0H787.0V0.0ZM-67.0 -4.0V-398.0C-67.0 -535.0 -73.0 -706.0 -160.0 -819.0C-128.0 -835.0 -66.0 -884.0 -44.0 -910.0C59.0 -783.0 75.0 -557.0 75.0 -398.0V-4.0Z"/></g>
<g fill="red" transform="translate(1500 300) scale(0.1 -0.1)"><path d="M0.0 0.0V-30.0H768.0V0.0ZM-14.0 0.0V-287.0C-14.0 -436.0 -24.0 -638.0 -119.0 -785.0C-112.0 -789.0 -100.0 -798.0 -95.0 -804.0C3.0 -652.0 16.0 -440.0 16.0 -287.0V0.0Z"/></g>
<g fill="black" opacity=".8" transform="translate(1500 300) scale(0.1 -0.1)"><path d="M0.0 0.0V-30.0H769.0V0.0ZM-14.0 -3.0V-279.0C-14.0 -433.0 -24.0 -641.0 -119.0 -793.0C-110.0 -797.0 -100.0 -807.0 -94.0 -812.0C2.0 -655.0 16.0 -435.0 16.0 -279.0V-3.0Z"/></g>
<g fill="red" transform="translate(1600 300) scale(0.1 -0.1)"><path d="M0.0 0.0V-138.0H743.0V0.0ZM-100.0 0.0V-278.0C-100.0 -432.0 -106.0 -656.0 -192.0 -806.0C-158.0 -821.0 -93.0 -866.0 -67.0 -892.0C30.0 -726.0 47.0 -451.0 47.0 -278.0V0.0Z"/></g>
<g fill="black" opacity=".8" transform="translate(1600 300) scale(0.1 -0.1)"><path d="M0.0 0.0V-133.0H743.0V0.0ZM-97.0 -0.0V-281.0C-97.0 -435.0 -104.0 -655.0 -193.0 -803.0C-159.0 -818.0 -94.0 -860.0 -69.0 -884.0C31.0 -722.0 47.0 -454.0 47.0 -281.0V-0.0Z"/></g>
<g fill="red" transform="translate(100 400) scale(0.1 -0.1)"><path d="M0.0 0.0V-30.0H768.0V0.0ZM-16.0 0.0V-281.0C-16.0 -438.0 -26.0 -655.0 -119.0 -815.0C-112.0 -818.0 -100.0 -827.0 -95.0 -832.0C1.0 -669.0 14.0 -442.0 14.0 -282.0V0.0Z"/></g>
<g fill="black" opacity=".8" transform="translate(100 400) scale(0.1 -0.1)"><path d="M0.0 0.0V-31.0H769.0V0.0ZM-18.0 -0.0V-282.0C-18.0 -440.0 -28.0 -655.0 -117.0 -814.0C-108.0 -817.0 -97.0 -827.0 -91.0 -833.0C-0.0 -669.0 13.0 -442.0 13.0 -282.0V-0.0Z"/></g>
<g fill="red" transform="translate(200 400) scale(0.1 -0.1)"><path d="M0.0 0.0V-131.0H770.0V0.0ZM-86.0 0.0V-302.0C-86.0 -460.0 -92.0 -687.0 -172.0 -839.0C-136.0 -852.0 -71.0 -887.0 -43.0 -910.0C43.0 -744.0 57.0 -477.0 57.0 -302.0V0.0Z"/></g>
<g fill="black" opacity=".8" transform="translate(200 400) scale(0.1 -0.1)"><path d="M0.0 0.0V-135.0H768.0V0.0ZM-86.0 -1.0V-301.0C-86.0 -459.0 -91.0 -684.0 -171.0 -837.0C-136.0 -850.0 -71.0 -891.0 -45.0 -914.0C44.0 -748.0 58.0 -477.0 58.0 -301.0V-1.0Z"/></g>
<g fill="red" transform="translate(300 400) scale(0.1 -0.1)"><path d="M0.0 0.0V-29.0H636.0V0.0ZM-129.0 351.0V31.0C-129.0 -121.0 -136.0 -328.0 -213.0 -480.0C-205.0 -483.0 -193.0 -492.0 -187.0 -497.0C-110.0 -342.0 -100.0 -124.0 -100.0 31.0V351.0Z"/></g>
<g fill="black" opacity=".8" transform="translate(300 400) scale(0.1 -0.1)"><path d="M0.0 0.0V-28.0H637.0V0.0ZM-125.0 336.0V39.0C-125.0 -118.0 -133.0 -331.0 -221.0 -488.0C-212.0 -491.0 -201.0 -501.0 -196.0 -505.0C-108.0 -344.0 -96.0 -121.0 -96.0 38.0V336.0Z"/></g>
<g fill="red" transform="translate(400 400) scale(0.1 -0.1)"><path d="M0.0 0.0V-138.0H662.0V0.0ZM-164.0 327.0V-2.0C-164.0 -152.0 -169.0 -363.0 -247.0 -504.0C-214.0 -518.0 -153.0 -560.0 -128.0 -584.0C-41.0 -427.0 -26.0 -170.0 -26.0 -1.0V327.0Z"/></g>
<g fill="black" opacity=".8" transform="translate(400 400) scale(0.1 -0.1)"><path d="M0.0 0.0V-126.0H661.0V0.0ZM-165.0 340.0V-5.0C-165.0 -156.0 -170.0 -362.0 -245.0 -502.0C-211.0 -515.0 -148.0 -552.0 -122.0 -573.0C-39.0 -421.0 -26.0 -172.0 -26.0 -5.0V340.0Z"/></g>
<g fill="red" transform="translate(500 400) scale(0.1 -0.1)"><path d="M0.0 0.0V-30.0H799.0V0.0ZM-14.0 0.0V-303.0C-14.0 -452.0 -21.0 -654.0 -106.0 -802.0C-99.0 -805.0 -86.0 -814.0 -81.0 -820.0C4.0 -668.0 16.0 -455.0 16.0 -303.0V0.0Z"/></g>
<g fill="black" opacity=".8" transform="translate(500 400) scale(0.1 -0.1)"><path d="M0.0 0.0V-30.0H788.0V0.0ZM-10.0 -0.0V-295.0C-10.0 -449.0 -19.0 -658.0 -109.0 -811.0C-100.0 -815.0 -89.0 -824.0 -83.0 -830.0C8.0 -672.0 21.0 -452.0 21.0 -296.0V-0.0Z"/></g>
<g fill="red" transform="translate(600 400) scale(0.1 -0.1)"><path d="M0.0 0.0V-139.0H779.0V0.0ZM-68.0 0.0V-296.0C-68.0 -453.0 -74.0 -680.0 -160.0 -831.0C-126.0 -845.0 -61.0 -888.0 -35.0 -912.0C61.0 -746.0 77.0 -471.0 77.0 -296.0V0.0Z"/></g>
<g fill="black" opacity=".8" transform="translate(600 400) scale(0.1 -0.1)"><path d="M0.0 0.0V-134.0H790.0V0.0ZM-69.0 -2.0V-300.0C-69.0 -455.0 -75.0 -676.0 -161.0 -825.0C-127.0 -839.0 -62.0 -880.0 -37.0 -904.0C59.0 -741.0 75.0 -474.0 75.0 -300.0V-2.0Z"/></g>
<g fill="red" transform="translate(700 400) scale(0.1 -0.1)"><path d="M0.0 0.0V-29.0H768.0V0.0ZM-18.0 0.0V-301.0C-18.0 -458.0 -27.0 -670.0 -120.0 -826.0C-112.0 -830.0 -100.0 -838.0 -95.0 -844.0C0.0 -685.0 12.0 -461.0 12.0 -301.0V0.0Z"/></g>
<g fill="black" opacity=".8" transform="translate(700 400) scale(0.1 -0.1)"><path d="M0.0 0.0V-31.0H767.0V0.0ZM-21.0 -1.0V-301.0C-21.0 -457.0 -29.0 -670.0 -115.0 -826.0C-106.0 -829.0 -95.0 -839.0 -89.0 -844.0C-2.0 -684.0 10.0 -460.0 10.0 -302.0V-1.0Z"/></g>
<g fill="red" transform="translate(800 400) scale(0.1 -0.1)"><path d="M0.0 0.0V-131.0H784.0V0.0ZM-71.0 0.0V-289.0C-71.0 -448.0 -76.0 -683.0 -154.0 -839.0C-117.0 -852.0 -51.0 -886.0 -23.0 -909.0C60.0 -738.0 73.0 -465.0 73.0 -288.0V0.0Z"/></g>
<g fill="black" opacity=".8" transform="translate(800 400) scale(0.1 -0.1)"><path d="M0.0 0.0V-133.0H784.0V0.0ZM-69.0 -0.0V-288.0C-69.0 -448.0 -74.0 -681.0 -156.0 -839.0C-121.0 -852.0 -55.0 -890.0 -29.0 -912.0C60.0 -742.0 75.0 -466.0 75.0 -287.0V-0.0Z"/></g>
<g fill="red" transform="translate(900 400) scale(0.1 -0.1)"><path d="M0.0 0.0V-30.0H799.0V0.0ZM-14.0 0.0V-303.0C-14.0 -452.0 -21.0 -654.0 -106.0 -802.0C-99.0 -805.0 -86.0 -814.0 -81.0 -820.0C4.0 -668.0 16.0 -455.0 16.0 -303.0V0.0Z"/></g>
<g fill="black" opacity=".8" transform="translate(900 400) scale(0.1 -0.1)"><path d="M0.0 0.0V-30.0H790.0V0.0ZM-10.0 -1.0V-299.0C-10.0 -451.0 -19.0 -657.0 -107.0 -808.0C-98.0 -811.0 -88.0 -821.0 -82.0 -826.0C7.0 -671.0 19.0 -453.0 19.0 -299.0V-1.0Z"/></g>
<g fill="red" transform="translate(1000 400) scale(0.1 -0.1)"><path d="M0.0 0.0V-133.0H779.0V0.0ZM-68.0 0.0V-292.0C-68.0 -448.0 -74.0 -672.0 -160.0 -822.0C-127.0 -836.0 -65.0 -877.0 -40.0 -901.0C55.0 -736.0 71.0 -466.0 71.0 -292.0V0.0Z"/></g>
<g fill="black" opacity=".8" transform="translate(1000 400) scale(0.1 -0.1)"><path d="M0.0 0.0V-131.0H788.0V0.0ZM-71.0 -0.0V-295.0C-71.0 -449.0 -77.0 -669.0 -163.0 -818.0C-129.0 -832.0 -65.0 -872.0 -40.0 -895.0C55.0 -734.0 70.0 -468.0 70.0 -295.0V-0.0Z"/></g>
<g fill="red" transform="translate(1100 400) scale(0.1 -0.1)"><path d="M0.0 0.0V-29.0H569.0V0.0ZM-146.0 183.0V-120.0C-146.0 -277.0 -155.0 -491.0 -249.0 -648.0C-242.0 -651.0 -230.0 -659.0 -225.0 -665.0C-129.0 -505.0 -117.0 -281.0 -117.0 -120.0V183.0Z"/></g>
<g fill="black" opacity=".8" transform="translate(1100 400) scale(0.1 -0.1)"><path d="M0.0 0.0V-31.0H576.0V0.0ZM-149.0 179.0V-121.0C-149.0 -278.0 -159.0 -490.0 -249.0 -647.0C-240.0 -650.0 -228.0 -660.0 -222.0 -665.0C-131.0 -505.0 -117.0 -280.0 -117.0 -121.0V179.0Z"/></g>
<g fill="red" transform="translate(1200 400) scale(0.1 -0.1)"><path d="M0.0 0.0V-119.0H586.0V0.0ZM-209.0 201.0V-87.0C-209.0 -246.0 -215.0 -479.0 -297.0 -634.0C-260.0 -647.0 -193.0 -683.0 -164.0 -706.0C-76.0 -536.0 -62.0 -263.0 -62.0 -86.0V201.0Z"/></g>
<g fill="black" opacity=".8" transform="translate(1200 400) scale(0.1 -0.1)"><path d="M0.0 0.0V-124.0H579.0V0.0ZM-209.0 204.0V-86.0C-209.0 -246.0 -214.0 -478.0 -296.0 -636.0C-259.0 -649.0 -190.0 -684.0 -162.0 -706.0C-74.0 -536.0 -61.0 -264.0 -61.0 -86.0V204.0Z"/></g>
<g fill="red" transform="translate(1300 400) scale(0.1 -0.1)"><path d="M0.0 0.0V-29.0H781.0V0.0ZM-12.0 0.0V-282.0C-12.0 -440.0 -21.0 -657.0 -110.0 -818.0C-102.0 -821.0 -90.0 -830.0 -85.0 -836.0C6.0 -671.0 18.0 -444.0 18.0 -282.0V0.0Z"/></g>
<g fill="black" opacity=".8" transform="translate(1300 400) scale(0.1 -0.1)"><path d="M0.0 0.0V-29.0H783.0V0.0ZM-15.0 -3.0V-284.0C-15.0 -441.0 -23.0 -656.0 -104.0 -814.0C-95.0 -818.0 -85.0 -827.0 -79.0 -832.0C3.0 -669.0 14.0 -442.0 14.0 -284.0V-3.0Z"/></g>
<g fill="red" transform="translate(1400 400) scale(0.1 -0.1)"><path d="M0.0 0.0V-127.0H770.0V0.0ZM-105.0 0.0V-313.0C-105.0 -468.0 -109.0 -692.0 -172.0 -843.0C-138.0 -855.0 -76.0 -888.0 -49.0 -908.0C19.0 -744.0 30.0 -483.0 30.0 -313.0V0.0Z"/></g>
<g fill="black" opacity=".8" transform="translate(1400 400) scale(0.1 -0.1)"><path d="M0.0 0.0V-128.0H768.0V0.0ZM-102.0 1.0V-311.0C-102.0 -468.0 -107.0 -693.0 -176.0 -845.0C-142.0 -857.0 -80.0 -893.0 -55.0 -914.0C22.0 -750.0 33.0 -483.0 33.0 -310.0V1.0Z"/></g>
<g fill="red" transform="translate(1500 400) scale(0.1 -0.1)"><path d="M0.0 0.0V-29.0H795.0V0.0ZM-14.0 0.0V-284.0C-14.0 -441.0 -21.0 -660.0 -100.0 -822.0C-93.0 -825.0 -80.0 -834.0 -75.0 -839.0C5.0 -674.0 16.0 -444.0 16.0 -284.0V0.0Z"/></g>
<g fill="black" opacity=".8" transform="translate(1500 400) scale(0.1 -0.1)"><path d="M0.0 0.0V-29.0H794.0V0.0ZM-13.0 -1.0V-285.0C-13.0 -443.0 -20.0 -660.0 -100.0 -820.0C-91.0 -824.0 -81.0 -833.0 -75.0 -838.0C5.0 -673.0 16.0 -444.0 16.0 -285.0V-1.0Z"/></g>
<g fill="red" transform="translate(1600 400) scale(0.1 -0.1)"><path d="M0.0 0.0V-130.0H788.0V0.0ZM-91.0 0.0V-318.0C-91.0 -475.0 -96.0 -703.0 -164.0 -856.0C-130.0 -868.0 -69.0 -900.0 -43.0 -920.0C31.0 -754.0 42.0 -490.0 42.0 -317.0V0.0Z"/></g>
<g fill="black" opacity=".8" transform="translate(1600 400) scale(0.1 -0.1)"><path d="M0.0 0.0V-129.0H789.0V0.0ZM-93.0 1.0V-317.0C-93.0 -475.0 -97.0 -702.0 -164.0 -855.0C-130.0 -867.0 -68.0 -902.0 -42.0 -923.0C32.0 -758.0 43.0 -490.0 43.0 -316.0V1.0Z"/></g>
<g fill="red" transform="translate(100 500) scale(0.1 -0.1)"><path d="M0.0 0.0V-30.0H799.0V0.0ZM-14.0 0.0V-303.0C-14.0 -452.0 -21.0 -654.0 -106.0 -802.0C-99.0 -805.0 -86.0 -814.0 -81.0 -820.0C4.0 -668.0 16.0 -455.0 16.0 -303.0V0.0Z"/></g>
<g fill="black" opacity=".8" transform="translate(100 500) scale(0.1 -0.1)"><path d="M0.0 0.0V-29.0H790.0V0.0ZM-11.0 -1.0V-303.0C-11.0 -453.0 -19.0 -655.0 -107.0 -802.0C-98.0 -806.0 -88.0 -815.0 -82.0 -820.0C6.0 -669.0 19.0 -455.0 19.0 -303.0V-1.0Z"/></g>
<g fill="red" transform="translate(200 500) scale(0.1 -0.1)"><path d="M0.0 0.0V-133.0H779.0V0.0ZM-68.0 0.0V-287.0C-68.0 -439.0 -74.0 -659.0 -160.0 -806.0C-127.0 -820.0 -66.0 -861.0 -40.0 -885.0C55.0 -722.0 71.0 -458.0 71.0 -287.0V0.0Z"/></g>
<g fill="black" opacity=".8" transform="translate(200 500) scale(0.1 -0.1)"><path d="M0.0 0.0V-129.0H787.0V0.0ZM-70.0 1.0V-287.0C-70.0 -440.0 -76.0 -659.0 -165.0 -807.0C-131.0 -820.0 -67.0 -860.0 -42.0 -883.0C55.0 -723.0 71.0 -459.0 71.0 -287.0V1.0Z"/></g>
<g fill="red" transform="translate(300 500) scale(0.1 -0.1)"><path d="M0.0 0.0V-30.0H768.0V0.0ZM-14.0 0.0V-291.0C-14.0 -443.0 -24.0 -648.0 -117.0 -798.0C-110.0 -802.0 -98.0 -810.0 -93.0 -817.0C3.0 -662.0 15.0 -446.0 15.0 -291.0V0.0Z"/></g>
<g fill="black" opacity=".8" transform="translate(300 500) scale(0.1 -0.1)"><path d="M0.0 0.0V-30.0H770.0V0.0ZM-16.0 -0.0V-285.0C-16.0 -440.0 -26.0 -650.0 -115.0 -805.0C-107.0 -809.0 -96.0 -819.0 -90.0 -824.0C1.0 -665.0 14.0 -442.0 14.0 -285.0V-0.0Z"/></g>
<g fill="red" transform="translate(400 500) scale(0.1 -0.1)"><path d="M0.0 0.0V-135.0H770.0V0.0ZM-85.0 0.0V-311.0C-85.0 -466.0 -91.0 -688.0 -173.0 -835.0C-136.0 -848.0 -71.0 -885.0 -43.0 -908.0C46.0 -746.0 61.0 -484.0 61.0 -311.0V0.0Z"/></g>
<g fill="black" opacity=".8" transform="translate(400 500) scale(0.1 -0.1)"><path d="M0.0 0.0V-134.0H768.0V0.0ZM-83.0 -2.0V-314.0C-83.0 -467.0 -88.0 -682.0 -170.0 -827.0C-135.0 -841.0 -70.0 -883.0 -45.0 -906.0C46.0 -748.0 60.0 -486.0 60.0 -314.0V-2.0Z"/></g>
<g fill="red" transform="translate(500 500) scale(0.1 -0.1)"><path d="M0.0 0.0V-30.0H768.0V0.0ZM-18.0 0.0V-293.0C-18.0 -445.0 -27.0 -651.0 -118.0 -802.0C-110.0 -806.0 -98.0 -814.0 -93.0 -821.0C-1.0 -665.0 12.0 -448.0 12.0 -293.0V0.0Z"/></g>
<g fill="black" opacity=".8" transform="translate(500 500) scale(0.1 -0.1)"><path d="M0.0 0.0V-30.0H769.0V0.0ZM-19.0 -1.0V-287.0C-19.0 -442.0 -28.0 -654.0 -116.0 -809.0C-107.0 -813.0 -96.0 -823.0 -90.0 -828.0C-2.0 -668.0 11.0 -445.0 11.0 -288.0V-1.0Z"/></g>
<g fill="red" transform="translate(600 500) scale(0.1 -0.1)"><path d="M0.0 0.0V-130.0H770.0V0.0ZM-87.0 0.0V-313.0C-87.0 -468.0 -92.0 -691.0 -172.0 -839.0C-135.0 -853.0 -69.0 -889.0 -40.0 -912.0C45.0 -749.0 59.0 -486.0 59.0 -312.0V0.0Z"/></g>
<g fill="black" opacity=".8" transform="translate(600 500) scale(0.1 -0.1)"><path d="M0.0 0.0V-133.0H769.0V0.0ZM-85.0 -2.0V-315.0C-85.0 -469.0 -90.0 -686.0 -168.0 -832.0C-134.0 -846.0 -69.0 -886.0 -44.0 -909.0C44.0 -750.0 57.0 -487.0 57.0 -315.0V-2.0Z"/></g>
<g fill="red" transform="translate(700 500) scale(0.1 -0.1)"><path d="M0.0 0.0V-29.0H340.0V0.0ZM-13.0 205.0V-4.0C-13.0 -130.0 -25.0 -304.0 -111.0 -432.0C-104.0 -436.0 -93.0 -445.0 -88.0 -451.0C1.0 -318.0 16.0 -135.0 16.0 -4.0V205.0Z"/></g>
<g fill="black" opacity=".8" transform="translate(700 500) scale(0.1 -0.1)"><path d="M0.0 0.0V-25.0H332.0V0.0ZM-9.0 200.0V-3.0C-9.0 -131.0 -20.0 -302.0 -115.0 -427.0C-108.0 -431.0 -99.0 -439.0 -94.0 -443.0C0.0 -314.0 15.0 -133.0 15.0 -3.0V200.0Z"/></g>
<g fill="red" transform="translate(800 500) scale(0.1 -0.1)"><path d="M0.0 0.0V-131.0H302.0V0.0ZM-78.0 187.0V-27.0C-78.0 -144.0 -82.0 -310.0 -142.0 -425.0C-110.0 -439.0 -49.0 -481.0 -25.0 -504.0C45.0 -373.0 57.0 -166.0 57.0 -28.0V187.0Z"/></g>
<g fill="black" opacity=".8" transform="translate(800 500) scale(0.1 -0.1)"><path d="M0.0 0.0V-114.0H311.0V0.0ZM-57.0 188.0V-23.0C-57.0 -146.0 -63.0 -320.0 -145.0 -441.0C-119.0 -451.0 -71.0 -487.0 -54.0 -505.0C36.0 -375.0 52.0 -162.0 52.0 -24.0V188.0Z"/></g>
<g fill="red" transform="translate(900 500) scale(0.1 -0.1)"><path d="M0.0 0.0V-29.0H763.0V0.0ZM-14.0 0.0V-280.0C-14.0 -438.0 -24.0 -654.0 -117.0 -814.0C-110.0 -817.0 -98.0 -826.0 -93.0 -832.0C3.0 -668.0 16.0 -442.0 16.0 -281.0V0.0Z"/></g>
<g fill="black" opacity=".8" transform="translate(900 500) scale(0.1 -0.1)"><path d="M0.0 0.0V-30.0H766.0V0.0ZM-17.0 0.0V-280.0C-17.0 -438.0 -26.0 -655.0 -114.0 -814.0C-105.0 -818.0 -94.0 -828.0 -88.0 -833.0C1.0 -669.0 13.0 -440.0 13.0 -280.0V0.0Z"/></g>
<g fill="red" transform="translate(1000 500) scale(0.1 -0.1)"><path d="M0.0 0.0V-131.0H770.0V0.0ZM-86.0 0.0V-315.0C-86.0 -472.0 -91.0 -697.0 -167.0 -848.0C-131.0 -860.0 -67.0 -895.0 -39.0 -917.0C42.0 -753.0 55.0 -488.0 55.0 -315.0V0.0Z"/></g>
<g fill="black" opacity=".8" transform="translate(1000 500) scale(0.1 -0.1)"><path d="M0.0 0.0V-135.0H767.0V0.0ZM-86.0 -2.0V-315.0C-86.0 -471.0 -91.0 -694.0 -166.0 -844.0C-132.0 -857.0 -66.0 -897.0 -41.0 -920.0C43.0 -756.0 56.0 -489.0 56.0 -315.0V-2.0Z"/></g>
<g fill="red" transform="translate(1100 500) scale(0.1 -0.1)"><path d="M0.0 0.0V-30.0H790.0V0.0ZM-15.0 0.0V-303.0C-15.0 -454.0 -21.0 -664.0 -91.0 -819.0C-83.0 -822.0 -71.0 -829.0 -65.0 -835.0C5.0 -678.0 14.0 -457.0 14.0 -303.0V0.0Z"/></g>
<g fill="black" opacity=".8" transform="translate(1100 500) scale(0.1 -0.1)"><path d="M0.0 0.0V-28.0H791.0V0.0ZM-11.0 -3.0V-309.0C-11.0 -459.0 -18.0 -662.0 -99.0 -810.0C-91.0 -813.0 -81.0 -822.0 -75.0 -826.0C7.0 -675.0 18.0 -460.0 18.0 -309.0V-3.0Z"/></g>
<g fill="red" transform="translate(1200 500) scale(0.1 -0.1)"><path d="M0.0 0.0V-134.0H788.0V0.0ZM-77.0 0.0V-279.0C-77.0 -432.0 -83.0 -653.0 -162.0 -801.0C-128.0 -815.0 -64.0 -857.0 -38.0 -881.0C50.0 -717.0 65.0 -450.0 65.0 -279.0V0.0Z"/></g>
<g fill="black" opacity=".8" transform="translate(1200 500) scale(0.1 -0.1)"><path d="M0.0 0.0V-123.0H788.0V0.0ZM-73.0 3.0V-275.0C-73.0 -432.0 -79.0 -660.0 -161.0 -814.0C-128.0 -826.0 -66.0 -862.0 -41.0 -883.0C48.0 -718.0 63.0 -448.0 63.0 -275.0V3.0Z"/></g>
<g fill="red" transform="translate(1300 500) scale(0.1 -0.1)"><path d="M0.0 0.0V-29.0H807.0V0.0ZM-14.0 0.0V-402.0C-14.0 -536.0 -21.0 -710.0 -97.0 -835.0C-90.0 -838.0 -78.0 -847.0 -73.0 -852.0C5.0 -725.0 15.0 -540.0 15.0 -401.0V0.0Z"/></g>
<g fill="black" opacity=".8" transform="translate(1300 500) scale(0.1 -0.1)"><path d="M0.0 0.0V-25.0H805.0V0.0ZM-16.0 -1.0V-398.0C-16.0 -535.0 -20.0 -711.0 -91.0 -837.0C-84.0 -839.0 -75.0 -848.0 -70.0 -853.0C3.0 -724.0 10.0 -536.0 10.0 -398.0V-1.0Z"/></g>
<g fill="red" transform="translate(1400 500) scale(0.1 -0.1)"><path d="M0.0 0.0V-121.0H824.0V0.0ZM-49.0 0.0V-459.0C-49.0 -589.0 -54.0 -742.0 -122.0 -843.0C-91.0 -858.0 -32.0 -897.0 -9.0 -920.0C71.0 -806.0 82.0 -607.0 82.0 -458.0V0.0Z"/></g>
<g fill="black" opacity=".8" transform="translate(1400 500) scale(0.1 -0.1)"><path d="M0.0 0.0V-115.0H826.0V0.0ZM-42.0 -2.0V-458.0C-42.0 -589.0 -46.0 -743.0 -125.0 -843.0C-97.0 -858.0 -42.0 -899.0 -22.0 -922.0C70.0 -811.0 83.0 -607.0 83.0 -457.0V-2.0Z"/></g>
<g fill="red" transform="translate(1500 500) scale(0.1 -0.1)"><path d="M0.0 0.0V-29.0H781.0V0.0ZM-12.0 0.0V-283.0C-12.0 -442.0 -21.0 -660.0 -108.0 -822.0C-100.0 -826.0 -88.0 -834.0 -83.0 -840.0C6.0 -674.0 18.0 -446.0 18.0 -284.0V0.0Z"/></g>
<g fill="black" opacity=".8" transform="translate(1500 500) scale(0.1 -0.1)"><path d="M0.0 0.0V-29.0H786.0V0.0ZM-14.0 3.0V-293.0C-14.0 -447.0 -22.0 -658.0 -105.0 -812.0C-96.0 -816.0 -86.0 -825.0 -80.0 -831.0C4.0 -671.0 15.0 -449.0 15.0 -293.0V3.0Z"/></g>
<g fill="red" transform="translate(1600 500) scale(0.1 -0.1)"><path d="M0.0 0.0V-113.0H793.0V0.0ZM-83.0 0.0V-367.0C-83.0 -511.0 -87.0 -705.0 -150.0 -835.0C-121.0 -850.0 -61.0 -899.0 -38.0 -925.0C41.0 -778.0 54.0 -530.0 54.0 -367.0V0.0Z"/></g>
<g fill="black" opacity=".8" transform="translate(1600 500) scale(0.1 -0.1)"><path d="M0.0 0.0V-131.0H788.0V0.0ZM-82.0 -1.0V-362.0C-82.0 -511.0 -86.0 -713.0 -156.0 -848.0C-123.0 -862.0 -61.0 -902.0 -37.0 -925.0C43.0 -776.0 55.0 -528.0 55.0 -362.0V-1.0Z"/></g>
<g fill="red" transform="translate(100 600) scale(0.1 -0.1)"><path d="M0.0 0.0V-29.0H513.0V0.0ZM-11.0 0.0V-316.0C-11.0 -474.0 -24.0 -681.0 -143.0 -831.0C-136.0 -834.0 -124.0 -842.0 -119.0 -848.0C2.0 -695.0 18.0 -478.0 18.0 -317.0V0.0Z"/></g>
<g fill="black" opacity=".8" transform="translate(100 600) scale(0.1 -0.1)"><path d="M0.0 0.0V-32.0H512.0V0.0ZM-15.0 1.0V-317.0C-15.0 -474.0 -27.0 -680.0 -136.0 -830.0C-127.0 -834.0 -116.0 -845.0 -110.0 -851.0C1.0 -696.0 16.0 -477.0 16.0 -318.0V1.0Z"/></g>
<g fill="red" transform="translate(200 600) scale(0.1 -0.1)"><path d="M0.0 0.0V-129.0H469.0V0.0ZM-93.0 0.0V-388.0C-93.0 -535.0 -100.0 -725.0 -191.0 -852.0C-161.0 -867.0 -103.0 -913.0 -81.0 -938.0C25.0 -796.0 42.0 -554.0 42.0 -388.0V0.0Z"/></g>
<g fill="black" opacity=".8" transform="translate(200 600) scale(0.1 -0.1)"><path d="M0.0 0.0V-140.0H470.0V0.0ZM-96.0 -1.0V-387.0C-96.0 -535.0 -102.0 -722.0 -196.0 -848.0C-164.0 -865.0 -102.0 -913.0 -80.0 -938.0C28.0 -799.0 45.0 -557.0 45.0 -388.0V-1.0Z"/></g>
<g fill="red" transform="translate(300 600) scale(0.1 -0.1)"><path d="M0.0 0.0V-29.0H429.0V0.0ZM-86.0 177.0V-139.0C-86.0 -295.0 -99.0 -496.0 -223.0 -642.0C-215.0 -646.0 -203.0 -655.0 -199.0 -660.0C-73.0 -511.0 -56.0 -299.0 -56.0 -139.0V177.0Z"/></g>
<g fill="black" opacity=".8" transform="translate(300 600) scale(0.1 -0.1)"><path d="M0.0 0.0V-32.0H445.0V0.0ZM-87.0 180.0V-145.0C-87.0 -299.0 -101.0 -498.0 -225.0 -640.0C-217.0 -644.0 -205.0 -654.0 -199.0 -660.0C-74.0 -513.0 -56.0 -302.0 -56.0 -145.0V180.0Z"/></g>
<g fill="red" transform="translate(400 600) scale(0.1 -0.1)"><path d="M0.0 0.0V-117.0H388.0V0.0ZM-164.0 194.0V-139.0C-164.0 -290.0 -175.0 -486.0 -315.0 -616.0C-284.0 -632.0 -228.0 -677.0 -206.0 -702.0C-52.0 -559.0 -28.0 -312.0 -28.0 -139.0V194.0Z"/></g>
<g fill="black" opacity=".8" transform="translate(400 600) scale(0.1 -0.1)"><path d="M0.0 0.0V-134.0H374.0V0.0ZM-176.0 194.0V-139.0C-176.0 -287.0 -185.0 -480.0 -306.0 -610.0C-272.0 -628.0 -208.0 -678.0 -185.0 -705.0C-49.0 -561.0 -27.0 -312.0 -27.0 -140.0V194.0Z"/></g>
<g fill="red" transform="translate(500 600) scale(0.1 -0.1)"><path d="M0.0 0.0V-29.0H552.0V0.0ZM-13.0 0.0V-332.0C-13.0 -480.0 -21.0 -676.0 -111.0 -818.0C-103.0 -821.0 -91.0 -829.0 -86.0 -835.0C5.0 -690.0 17.0 -483.0 17.0 -332.0V0.0Z"/></g>
<g fill="black" opacity=".8" transform="translate(500 600) scale(0.1 -0.1)"><path d="M0.0 0.0V-30.0H563.0V0.0ZM-11.0 3.0V-338.0C-11.0 -484.0 -21.0 -675.0 -117.0 -813.0C-109.0 -816.0 -98.0 -826.0 -92.0 -832.0C6.0 -690.0 19.0 -487.0 19.0 -338.0V3.0Z"/></g>
<g fill="red" transform="translate(600 600) scale(0.1 -0.1)"><path d="M0.0 0.0V-131.0H568.0V0.0ZM-45.0 0.0V-376.0C-45.0 -517.0 -53.0 -695.0 -152.0 -814.0C-125.0 -830.0 -73.0 -878.0 -53.0 -904.0C64.0 -769.0 83.0 -538.0 83.0 -377.0V0.0Z"/></g>
<g fill="black" opacity=".8" transform="translate(600 600) scale(0.1 -0.1)"><path d="M0.0 0.0V-131.0H558.0V0.0ZM-51.0 -1.0V-374.0C-51.0 -516.0 -57.0 -697.0 -150.0 -819.0C-119.0 -834.0 -60.0 -879.0 -38.0 -903.0C67.0 -769.0 84.0 -537.0 84.0 -374.0V-1.0Z"/></g>
<g fill="red" transform="translate(700 600) scale(0.1 -0.1)"><path d="M0.0 0.0V-29.0H627.0V0.0ZM-101.0 344.0V53.0C-101.0 -99.0 -111.0 -304.0 -204.0 -454.0C-197.0 -458.0 -185.0 -466.0 -180.0 -472.0C-84.0 -318.0 -72.0 -102.0 -72.0 53.0V344.0Z"/></g>
<g fill="black" opacity=".8" transform="translate(700 600) scale(0.1 -0.1)"><path d="M0.0 0.0V-28.0H629.0V0.0ZM-100.0 347.0V65.0C-100.0 -94.0 -110.0 -309.0 -208.0 -467.0C-199.0 -470.0 -188.0 -479.0 -183.0 -484.0C-85.0 -322.0 -72.0 -96.0 -72.0 64.0V347.0Z"/></g>
<g fill="red" transform="translate(800 600) scale(0.1 -0.1)"><path d="M0.0 0.0V-137.0H617.0V0.0ZM-171.0 361.0V73.0C-171.0 -87.0 -178.0 -319.0 -269.0 -474.0C-231.0 -487.0 -165.0 -524.0 -137.0 -547.0C-40.0 -378.0 -24.0 -104.0 -24.0 74.0V361.0Z"/></g>
<g fill="black" opacity=".8" transform="translate(800 600) scale(0.1 -0.1)"><path d="M0.0 0.0V-127.0H616.0V0.0ZM-167.0 354.0V68.0C-167.0 -89.0 -173.0 -314.0 -263.0 -467.0C-229.0 -479.0 -166.0 -517.0 -141.0 -538.0C-43.0 -373.0 -27.0 -105.0 -27.0 68.0V354.0Z"/></g>
<g fill="red" transform="translate(900 600) scale(0.1 -0.1)"><path d="M0.0 0.0V-29.0H265.0V0.0ZM-139.0 139.0V-77.0C-139.0 -199.0 -151.0 -361.0 -239.0 -482.0C-231.0 -486.0 -221.0 -494.0 -215.0 -500.0C-125.0 -376.0 -110.0 -202.0 -110.0 -77.0V139.0Z"/></g>
<g fill="black" opacity=".8" transform="translate(900 600) scale(0.1 -0.1)"><path d="M0.0 0.0V-27.0H261.0V0.0ZM-138.0 141.0V-70.0C-138.0 -196.0 -149.0 -363.0 -239.0 -486.0C-231.0 -490.0 -222.0 -498.0 -217.0 -503.0C-125.0 -376.0 -111.0 -198.0 -111.0 -71.0V141.0Z"/></g>
<g fill="red" transform="translate(1000 600) scale(0.1 -0.1)"><path d="M0.0 0.0V-120.0H208.0V0.0ZM-230.0 172.0V-66.0C-230.0 -186.0 -235.0 -357.0 -299.0 -474.0C-266.0 -486.0 -205.0 -518.0 -179.0 -538.0C-109.0 -409.0 -98.0 -206.0 -98.0 -66.0V172.0Z"/></g>
<g fill="black" opacity=".8" transform="translate(1000 600) scale(0.1 -0.1)"><path d="M0.0 0.0V-102.0H213.0V0.0ZM-220.0 166.0V-66.0C-220.0 -188.0 -226.0 -358.0 -299.0 -474.0C-270.0 -485.0 -216.0 -519.0 -195.0 -538.0C-113.0 -412.0 -100.0 -206.0 -100.0 -67.0V166.0Z"/></g>
<g fill="red" transform="translate(1100 600) scale(0.1 -0.1)"><path d="M0.0 0.0V-29.0H345.0V0.0ZM-87.0 179.0V-99.0C-87.0 -260.0 -98.0 -478.0 -202.0 -639.0C-194.0 -642.0 -182.0 -651.0 -177.0 -657.0C-71.0 -492.0 -58.0 -264.0 -58.0 -100.0V179.0Z"/></g>
<g fill="black" opacity=".8" transform="translate(1100 600) scale(0.1 -0.1)"><path d="M0.0 0.0V-30.0H347.0V0.0ZM-91.0 182.0V-103.0C-91.0 -262.0 -100.0 -477.0 -196.0 -636.0C-187.0 -640.0 -176.0 -649.0 -170.0 -654.0C-74.0 -492.0 -60.0 -265.0 -60.0 -104.0V182.0Z"/></g>
<g fill="red" transform="translate(1200 600) scale(0.1 -0.1)"><path d="M0.0 0.0V-117.0H334.0V0.0ZM-156.0 197.0V-121.0C-156.0 -278.0 -161.0 -502.0 -233.0 -655.0C-202.0 -666.0 -147.0 -695.0 -123.0 -714.0C-46.0 -550.0 -34.0 -292.0 -34.0 -121.0V197.0Z"/></g>
<g fill="black" opacity=".8" transform="translate(1200 600) scale(0.1 -0.1)"><path d="M0.0 0.0V-126.0H331.0V0.0ZM-160.0 194.0V-119.0C-160.0 -277.0 -165.0 -501.0 -237.0 -654.0C-204.0 -665.0 -144.0 -699.0 -120.0 -718.0C-41.0 -554.0 -30.0 -292.0 -30.0 -119.0V194.0Z"/></g>
<g fill="red" transform="translate(1300 600) scale(0.1 -0.1)"><path d="M0.0 0.0V-30.0H786.0V0.0ZM36.0 -209.0V-356.0C36.0 -477.0 22.0 -643.0 -69.0 -768.0C-62.0 -772.0 -50.0 -780.0 -45.0 -786.0C48.0 -658.0 66.0 -482.0 66.0 -357.0V-209.0Z"/></g>
<g fill="black" opacity=".8" transform="translate(1300 600) scale(0.1 -0.1)"><path d="M0.0 0.0V-30.0H792.0V0.0ZM32.0 -204.0V-356.0C32.0 -477.0 20.0 -642.0 -65.0 -767.0C-56.0 -770.0 -47.0 -780.0 -41.0 -785.0C45.0 -657.0 61.0 -480.0 61.0 -357.0V-204.0Z"/></g>
<g fill="red" transform="translate(1400 600) scale(0.1 -0.1)"><path d="M0.0 0.0V-124.0H815.0V0.0ZM-11.0 -215.0V-376.0C-11.0 -491.0 -16.0 -660.0 -88.0 -777.0C-57.0 -793.0 6.0 -846.0 30.0 -873.0C116.0 -737.0 133.0 -518.0 133.0 -377.0V-215.0Z"/></g>
<g fill="black" opacity=".8" transform="translate(1400 600) scale(0.1 -0.1)"><path d="M0.0 0.0V-126.0H810.0V0.0ZM-5.0 -221.0V-375.0C-5.0 -492.0 -11.0 -665.0 -93.0 -785.0C-62.0 -800.0 2.0 -845.0 25.0 -869.0C117.0 -735.0 134.0 -517.0 134.0 -376.0V-221.0Z"/></g>
<g fill="red" transform="translate(1500 600) scale(0.1 -0.1)"><path d="M0.0 0.0V-29.0H283.0V0.0ZM-151.0 137.0V-77.0C-151.0 -199.0 -164.0 -360.0 -256.0 -480.0C-249.0 -484.0 -238.0 -493.0 -233.0 -498.0C-138.0 -375.0 -122.0 -203.0 -122.0 -78.0V137.0Z"/></g>
<g fill="black" opacity=".8" transform="translate(1500 600) scale(0.1 -0.1)"><path d="M0.0 0.0V-28.0H274.0V0.0ZM-146.0 134.0V-74.0C-146.0 -198.0 -159.0 -361.0 -260.0 -481.0C-253.0 -485.0 -243.0 -494.0 -238.0 -499.0C-135.0 -376.0 -118.0 -201.0 -118.0 -75.0V134.0Z"/></g>
<g fill="red" transform="translate(1600 600) scale(0.1 -0.1)"><path d="M0.0 0.0V-120.0H208.0V0.0ZM-232.0 158.0V-64.0C-232.0 -180.0 -239.0 -340.0 -320.0 -450.0C-290.0 -466.0 -232.0 -511.0 -209.0 -536.0C-114.0 -411.0 -97.0 -205.0 -97.0 -65.0V158.0Z"/></g>
<g fill="black" opacity=".8" transform="translate(1600 600) scale(0.1 -0.1)"><path d="M0.0 0.0V-107.0H218.0V0.0ZM-229.0 159.0V-64.0C-229.0 -183.0 -236.0 -344.0 -325.0 -454.0C-295.0 -469.0 -237.0 -508.0 -215.0 -530.0C-115.0 -409.0 -98.0 -205.0 -98.0 -66.0V159.0Z"/></g>
<g fill="red" transform="translate(100 700) scale(0.1 -0.1)"><path d="M0.0 0.0V-29.0H534.0V0.0ZM-18.0 0.0V-324.0C-18.0 -475.0 -27.0 -676.0 -124.0 -822.0C-117.0 -826.0 -106.0 -835.0 -101.0 -840.0C-1.0 -690.0 12.0 -479.0 12.0 -324.0V0.0Z"/></g>
<g fill="black" opacity=".8" transform="translate(100 700) scale(0.1 -0.1)"><path d="M0.0 0.0V-31.0H535.0V0.0ZM-19.0 4.0V-326.0C-19.0 -477.0 -28.0 -677.0 -122.0 -822.0C-114.0 -826.0 -103.0 -836.0 -97.0 -842.0C-1.0 -692.0 12.0 -480.0 12.0 -327.0V4.0Z"/></g>
<g fill="red" transform="translate(200 700) scale(0.1 -0.1)"><path d="M0.0 0.0V-127.0H554.0V0.0ZM-39.0 0.0V-384.0C-39.0 -531.0 -46.0 -723.0 -137.0 -852.0C-106.0 -865.0 -51.0 -900.0 -27.0 -921.0C72.0 -780.0 87.0 -548.0 87.0 -384.0V0.0Z"/></g>
<g fill="black" opacity=".8" transform="translate(200 700) scale(0.1 -0.1)"><path d="M0.0 0.0V-135.0H553.0V0.0ZM-47.0 -3.0V-383.0C-47.0 -529.0 -52.0 -717.0 -135.0 -844.0C-103.0 -859.0 -43.0 -902.0 -20.0 -926.0C74.0 -786.0 89.0 -549.0 89.0 -384.0V-3.0Z"/></g>
<g fill="red" transform="translate(300 700) scale(0.1 -0.1)"><path d="M0.0 0.0V-29.0H513.0V0.0ZM-11.0 0.0V-348.0C-11.0 -497.0 -21.0 -691.0 -122.0 -831.0C-115.0 -834.0 -103.0 -842.0 -99.0 -848.0C4.0 -705.0 18.0 -499.0 18.0 -348.0V0.0Z"/></g>
<g fill="black" opacity=".8" transform="translate(300 700) scale(0.1 -0.1)"><path d="M0.0 0.0V-30.0H514.0V0.0ZM-11.0 -3.0V-342.0C-11.0 -494.0 -21.0 -694.0 -122.0 -837.0C-115.0 -841.0 -104.0 -850.0 -98.0 -856.0C5.0 -708.0 18.0 -497.0 18.0 -342.0V-3.0Z"/></g>
<g fill="red" transform="translate(400 700) scale(0.1 -0.1)"><path d="M0.0 0.0V-129.0H469.0V0.0ZM-93.0 0.0V-388.0C-93.0 -535.0 -100.0 -725.0 -191.0 -852.0C-161.0 -867.0 -103.0 -913.0 -81.0 -938.0C25.0 -796.0 42.0 -554.0 42.0 -388.0V0.0Z"/></g>
<g fill="black" opacity=".8" transform="translate(400 700) scale(0.1 -0.1)"><path d="M0.0 0.0V-131.0H468.0V0.0ZM-92.0 1.0V-390.0C-92.0 -536.0 -98.0 -723.0 -189.0 -847.0C-159.0 -863.0 -101.0 -907.0 -80.0 -931.0C25.0 -794.0 40.0 -557.0 40.0 -391.0V1.0Z"/></g>
<g fill="red" transform="translate(500 700) scale(0.1 -0.1)"><path d="M0.0 0.0V-29.0H433.0V0.0ZM-93.0 186.0V-145.0C-93.0 -298.0 -101.0 -504.0 -194.0 -653.0C-187.0 -656.0 -174.0 -664.0 -169.0 -668.0C-75.0 -517.0 -63.0 -301.0 -63.0 -144.0V186.0Z"/></g>
<g fill="black" opacity=".8" transform="translate(500 700) scale(0.1 -0.1)"><path d="M0.0 0.0V-29.0H426.0V0.0ZM-89.0 187.0V-147.0C-89.0 -301.0 -99.0 -503.0 -196.0 -650.0C-188.0 -653.0 -177.0 -662.0 -171.0 -667.0C-73.0 -517.0 -60.0 -303.0 -60.0 -147.0V187.0Z"/></g>
<g fill="red" transform="translate(600 700) scale(0.1 -0.1)"><path d="M0.0 0.0V-114.0H388.0V0.0ZM-159.0 207.0V-126.0C-159.0 -280.0 -166.0 -494.0 -255.0 -636.0C-221.0 -650.0 -160.0 -685.0 -134.0 -707.0C-38.0 -551.0 -23.0 -298.0 -23.0 -126.0V207.0Z"/></g>
<g fill="black" opacity=".8" transform="translate(600 700) scale(0.1 -0.1)"><path d="M0.0 0.0V-121.0H395.0V0.0ZM-158.0 206.0V-125.0C-158.0 -280.0 -164.0 -494.0 -254.0 -638.0C-222.0 -651.0 -163.0 -687.0 -139.0 -708.0C-41.0 -553.0 -27.0 -297.0 -27.0 -125.0V206.0Z"/></g>
<g fill="red" transform="translate(700 700) scale(0.1 -0.1)"><path d="M0.0 0.0V-29.0H578.0V0.0ZM-6.0 0.0V-135.0C-6.0 -259.0 -20.0 -439.0 -104.0 -575.0C-97.0 -578.0 -85.0 -585.0 -79.0 -590.0C8.0 -451.0 23.0 -263.0 23.0 -135.0V0.0Z"/></g>
<g fill="black" opacity=".8" transform="translate(700 700) scale(0.1 -0.1)"><path d="M0.0 0.0V-28.0H577.0V0.0ZM-5.0 3.0V-139.0C-5.0 -264.0 -17.0 -438.0 -103.0 -569.0C-95.0 -572.0 -86.0 -581.0 -80.0 -585.0C7.0 -451.0 22.0 -267.0 22.0 -140.0V3.0Z"/></g>
<g fill="red" transform="translate(800 700) scale(0.1 -0.1)"><path d="M0.0 0.0V-112.0H586.0V0.0ZM-42.0 0.0V-87.0C-42.0 -217.0 -50.0 -423.0 -130.0 -570.0C-101.0 -581.0 -44.0 -616.0 -22.0 -636.0C65.0 -474.0 83.0 -235.0 83.0 -88.0V0.0Z"/></g>
<g fill="black" opacity=".8" transform="translate(800 700) scale(0.1 -0.1)"><path d="M0.0 0.0V-118.0H586.0V0.0ZM-45.0 -3.0V-84.0C-45.0 -216.0 -51.0 -426.0 -133.0 -573.0C-102.0 -584.0 -42.0 -619.0 -19.0 -638.0C67.0 -479.0 83.0 -234.0 83.0 -85.0V-3.0Z"/></g>
<g fill="red" transform="translate(900 700) scale(0.1 -0.1)"><path d="M0.0 0.0V-30.0H578.0V0.0ZM-3.0 -211.0V-357.0C-3.0 -477.0 -18.0 -641.0 -108.0 -766.0C-101.0 -770.0 -89.0 -778.0 -84.0 -784.0C9.0 -656.0 26.0 -482.0 26.0 -358.0V-211.0Z"/></g>
<g fill="black" opacity=".8" transform="translate(900 700) scale(0.1 -0.1)"><path d="M0.0 0.0V-33.0H575.0V0.0ZM-2.0 -210.0V-353.0C-2.0 -476.0 -17.0 -645.0 -109.0 -774.0C-100.0 -778.0 -89.0 -788.0 -83.0 -794.0C12.0 -662.0 30.0 -480.0 30.0 -354.0V-210.0Z"/></g>
<g fill="red" transform="translate(1000 700) scale(0.1 -0.1)"><path d="M0.0 0.0V-121.0H604.0V0.0ZM-12.0 -221.0V-341.0C-12.0 -467.0 -20.0 -665.0 -114.0 -800.0C-83.0 -811.0 -22.0 -851.0 3.0 -871.0C105.0 -723.0 126.0 -483.0 126.0 -341.0V-221.0Z"/></g>
<g fill="black" opacity=".8" transform="translate(1000 700) scale(0.1 -0.1)"><path d="M0.0 0.0V-131.0H607.0V0.0ZM-21.0 -222.0V-343.0C-21.0 -467.0 -27.0 -654.0 -111.0 -786.0C-77.0 -800.0 -11.0 -844.0 14.0 -868.0C106.0 -722.0 124.0 -492.0 124.0 -345.0V-222.0Z"/></g>
<g fill="red" transform="translate(1100 700) scale(0.1 -0.1)"><path d="M0.0 0.0V-29.0H455.0V0.0ZM-102.0 184.0V-109.0C-102.0 -273.0 -114.0 -494.0 -227.0 -655.0C-221.0 -658.0 -208.0 -666.0 -203.0 -670.0C-87.0 -508.0 -73.0 -276.0 -73.0 -109.0V184.0Z"/></g>
<g fill="black" opacity=".8" transform="translate(1100 700) scale(0.1 -0.1)"><path d="M0.0 0.0V-32.0H446.0V0.0ZM-103.0 180.0V-114.0C-103.0 -276.0 -115.0 -492.0 -222.0 -650.0C-213.0 -654.0 -202.0 -664.0 -195.0 -669.0C-87.0 -507.0 -71.0 -278.0 -71.0 -115.0V180.0Z"/></g>
<g fill="red" transform="translate(1200 700) scale(0.1 -0.1)"><path d="M0.0 0.0V-114.0H401.0V0.0ZM-178.0 197.0V-66.0C-178.0 -231.0 -185.0 -474.0 -283.0 -638.0C-248.0 -650.0 -187.0 -683.0 -160.0 -705.0C-57.0 -528.0 -41.0 -247.0 -41.0 -66.0V197.0Z"/></g>
<g fill="black" opacity=".8" transform="translate(1200 700) scale(0.1 -0.1)"><path d="M0.0 0.0V-130.0H409.0V0.0ZM-184.0 201.0V-65.0C-184.0 -230.0 -191.0 -471.0 -288.0 -636.0C-252.0 -649.0 -186.0 -687.0 -160.0 -709.0C-55.0 -533.0 -38.0 -249.0 -38.0 -65.0V201.0Z"/></g>
<g fill="red" transform="translate(1300 700) scale(0.1 -0.1)"><path d="M0.0 0.0V-29.0H543.0V0.0ZM-13.0 0.0V-332.0C-13.0 -485.0 -24.0 -683.0 -134.0 -826.0C-127.0 -830.0 -115.0 -837.0 -111.0 -843.0C2.0 -697.0 17.0 -488.0 17.0 -332.0V0.0Z"/></g>
<g fill="black" opacity=".8" transform="translate(1300 700) scale(0.1 -0.1)"><path d="M0.0 0.0V-32.0H544.0V0.0ZM-18.0 -3.0V-327.0C-18.0 -481.0 -28.0 -685.0 -127.0 -833.0C-118.0 -836.0 -107.0 -846.0 -100.0 -852.0C0.0 -700.0 14.0 -483.0 14.0 -327.0V-3.0Z"/></g>
<g fill="red" transform="translate(1400 700) scale(0.1 -0.1)"><path d="M0.0 0.0V-131.0H554.0V0.0ZM-48.0 0.0V-270.0C-48.0 -433.0 -55.0 -673.0 -153.0 -835.0C-119.0 -847.0 -58.0 -880.0 -31.0 -902.0C71.0 -728.0 88.0 -450.0 88.0 -269.0V0.0Z"/></g>
<g fill="black" opacity=".8" transform="translate(1400 700) scale(0.1 -0.1)"><path d="M0.0 0.0V-134.0H552.0V0.0ZM-51.0 1.0V-272.0C-51.0 -434.0 -57.0 -666.0 -156.0 -825.0C-121.0 -838.0 -57.0 -878.0 -31.0 -901.0C74.0 -730.0 92.0 -454.0 92.0 -272.0V1.0Z"/></g>
<g fill="red" transform="translate(1500 700) scale(0.1 -0.1)"><path d="M0.0 0.0V-30.0H763.0V0.0ZM-19.0 0.0V-150.0C-19.0 -270.0 -30.0 -439.0 -111.0 -568.0C-104.0 -571.0 -92.0 -580.0 -87.0 -585.0C-4.0 -454.0 11.0 -275.0 11.0 -150.0V0.0Z"/></g>
<g fill="black" opacity=".8" transform="translate(1500 700) scale(0.1 -0.1)"><path d="M0.0 0.0V-28.0H766.0V0.0ZM-16.0 4.0V-145.0C-16.0 -270.0 -27.0 -443.0 -116.0 -573.0C-108.0 -576.0 -98.0 -585.0 -93.0 -590.0C-4.0 -456.0 12.0 -273.0 12.0 -146.0V4.0Z"/></g>
<g fill="red" transform="translate(1600 700) scale(0.1 -0.1)"><path d="M0.0 0.0V-124.0H757.0V0.0ZM-81.0 0.0V-166.0C-81.0 -286.0 -88.0 -462.0 -171.0 -583.0C-142.0 -599.0 -81.0 -650.0 -59.0 -676.0C39.0 -537.0 58.0 -312.0 58.0 -167.0V0.0Z"/></g>
<g fill="black" opacity=".8" transform="translate(1600 700) scale(0.1 -0.1)"><path d="M0.0 0.0V-121.0H755.0V0.0ZM-80.0 -6.0V-169.0C-80.0 -289.0 -87.0 -465.0 -170.0 -585.0C-139.0 -599.0 -77.0 -642.0 -55.0 -665.0C38.0 -531.0 55.0 -310.0 55.0 -170.0V-6.0Z"/></g>
<g fill="red" transform="translate(100 800) scale(0.1 -0.1)"><path d="M0.0 0.0V-29.0H393.0V0.0ZM-88.0 188.0V-158.0C-88.0 -310.0 -100.0 -506.0 -212.0 -647.0C-205.0 -650.0 -193.0 -659.0 -188.0 -664.0C-74.0 -520.0 -59.0 -314.0 -59.0 -158.0V188.0Z"/></g>
<g fill="black" opacity=".8" transform="translate(100 800) scale(0.1 -0.1)"><path d="M0.0 0.0V-30.0H403.0V0.0ZM-93.0 192.0V-157.0C-93.0 -310.0 -103.0 -508.0 -207.0 -651.0C-199.0 -654.0 -188.0 -663.0 -182.0 -669.0C-77.0 -522.0 -63.0 -312.0 -63.0 -157.0V192.0Z"/></g>
<g fill="red" transform="translate(200 800) scale(0.1 -0.1)"><path d="M0.0 0.0V-109.0H379.0V0.0ZM-152.0 215.0V-123.0C-152.0 -279.0 -160.0 -491.0 -267.0 -633.0C-234.0 -646.0 -175.0 -682.0 -150.0 -705.0C-36.0 -551.0 -18.0 -297.0 -18.0 -123.0V215.0Z"/></g>
<g fill="black" opacity=".8" transform="translate(200 800) scale(0.1 -0.1)"><path d="M0.0 0.0V-123.0H370.0V0.0ZM-154.0 210.0V-124.0C-154.0 -278.0 -161.0 -487.0 -262.0 -627.0C-230.0 -641.0 -169.0 -681.0 -146.0 -704.0C-35.0 -552.0 -18.0 -298.0 -18.0 -125.0V210.0Z"/></g>
<g fill="red" transform="translate(300 800) scale(0.1 -0.1)"><path d="M0.0 0.0V-29.0H499.0V0.0ZM-14.0 -168.0V-284.0C-14.0 -373.0 -30.0 -493.0 -112.0 -583.0C-104.0 -587.0 -93.0 -595.0 -88.0 -601.0C-3.0 -507.0 16.0 -378.0 16.0 -285.0V-168.0Z"/></g>
<g fill="black" opacity=".8" transform="translate(300 800) scale(0.1 -0.1)"><path d="M0.0 0.0V-28.0H496.0V0.0ZM-11.0 -178.0V-290.0C-11.0 -376.0 -26.0 -489.0 -113.0 -574.0C-106.0 -577.0 -96.0 -587.0 -92.0 -593.0C-3.0 -504.0 16.0 -381.0 16.0 -291.0V-178.0Z"/></g>
<g fill="red" transform="translate(400 800) scale(0.1 -0.1)"><path d="M0.0 0.0V-115.0H536.0V0.0ZM4.0 -210.0V-328.0C4.0 -402.0 -4.0 -497.0 -88.0 -566.0C-57.0 -581.0 3.0 -623.0 26.0 -646.0C120.0 -565.0 138.0 -433.0 138.0 -331.0V-210.0Z"/></g>
<g fill="black" opacity=".8" transform="translate(400 800) scale(0.1 -0.1)"><path d="M0.0 0.0V-112.0H540.0V0.0ZM9.0 -200.0V-324.0C9.0 -400.0 2.0 -499.0 -86.0 -569.0C-59.0 -585.0 -3.0 -634.0 15.0 -659.0C117.0 -575.0 137.0 -430.0 137.0 -326.0V-200.0Z"/></g>
<g fill="red" transform="translate(500 800) scale(0.1 -0.1)"><path d="M0.0 0.0V-30.0H240.0V0.0ZM-129.0 146.0V-120.0C-129.0 -230.0 -139.0 -372.0 -221.0 -475.0C-214.0 -479.0 -202.0 -488.0 -198.0 -494.0C-113.0 -388.0 -99.0 -235.0 -99.0 -120.0V146.0Z"/></g>
<g fill="black" opacity=".8" transform="translate(500 800) scale(0.1 -0.1)"><path d="M0.0 0.0V-24.0H235.0V0.0ZM-125.0 134.0V-108.0C-125.0 -225.0 -134.0 -375.0 -223.0 -483.0C-216.0 -487.0 -208.0 -494.0 -204.0 -499.0C-114.0 -387.0 -100.0 -227.0 -100.0 -109.0V134.0Z"/></g>
<g fill="red" transform="translate(600 800) scale(0.1 -0.1)"><path d="M0.0 0.0V-121.0H168.0V0.0ZM-220.0 152.0V-120.0C-220.0 -228.0 -225.0 -368.0 -289.0 -465.0C-259.0 -478.0 -202.0 -513.0 -178.0 -534.0C-105.0 -425.0 -93.0 -249.0 -93.0 -121.0V152.0Z"/></g>
<g fill="black" opacity=".8" transform="translate(600 800) scale(0.1 -0.1)"><path d="M0.0 0.0V-95.0H174.0V0.0ZM-207.0 159.0V-122.0C-207.0 -231.0 -212.0 -370.0 -289.0 -464.0C-264.0 -476.0 -215.0 -511.0 -197.0 -530.0C-108.0 -428.0 -95.0 -249.0 -95.0 -123.0V159.0Z"/></g>
<g fill="red" transform="translate(700 800) scale(0.1 -0.1)"><path d="M0.0 0.0V-29.0H270.0V0.0ZM-139.0 139.0V-77.0C-139.0 -199.0 -151.0 -361.0 -239.0 -482.0C-231.0 -486.0 -220.0 -494.0 -215.0 -500.0C-124.0 -376.0 -110.0 -202.0 -110.0 -77.0V139.0Z"/></g>
<g fill="black" opacity=".8" transform="translate(700 800) scale(0.1 -0.1)"><path d="M0.0 0.0V-27.0H271.0V0.0ZM-137.0 140.0V-73.0C-137.0 -198.0 -148.0 -362.0 -242.0 -482.0C-235.0 -486.0 -226.0 -495.0 -221.0 -499.0C-125.0 -375.0 -110.0 -200.0 -110.0 -74.0V140.0Z"/></g>
<g fill="red" transform="translate(800 800) scale(0.1 -0.1)"><path d="M0.0 0.0V-120.0H208.0V0.0ZM-236.0 172.0V-59.0C-236.0 -179.0 -242.0 -344.0 -317.0 -457.0C-285.0 -471.0 -226.0 -508.0 -202.0 -530.0C-118.0 -404.0 -104.0 -201.0 -104.0 -60.0V172.0Z"/></g>
<g fill="black" opacity=".8" transform="translate(800 800) scale(0.1 -0.1)"><path d="M0.0 0.0V-102.0H208.0V0.0ZM-228.0 168.0V-59.0C-228.0 -180.0 -235.0 -347.0 -316.0 -461.0C-287.0 -474.0 -232.0 -509.0 -211.0 -529.0C-120.0 -405.0 -106.0 -199.0 -106.0 -60.0V168.0Z"/></g>
<g fill="red" transform="translate(900 800) scale(0.1 -0.1)"><path d="M0.0 0.0V-29.0H557.0V0.0ZM-5.0 -204.0V-377.0C-5.0 -494.0 -21.0 -651.0 -126.0 -768.0C-119.0 -771.0 -108.0 -780.0 -104.0 -786.0C5.0 -667.0 25.0 -500.0 25.0 -378.0V-204.0Z"/></g>
<g fill="black" opacity=".8" transform="translate(900 800) scale(0.1 -0.1)"><path d="M0.0 0.0V-32.0H553.0V0.0ZM-11.0 -195.0V-378.0C-11.0 -495.0 -25.0 -651.0 -115.0 -768.0C-106.0 -772.0 -95.0 -783.0 -89.0 -788.0C3.0 -667.0 21.0 -499.0 21.0 -379.0V-195.0Z"/></g>
<g fill="red" transform="translate(1000 800) scale(0.1 -0.1)"><path d="M0.0 0.0V-116.0H607.0V0.0ZM6.0 -201.0V-392.0C6.0 -507.0 -1.0 -668.0 -82.0 -780.0C-50.0 -794.0 12.0 -835.0 36.0 -859.0C127.0 -733.0 144.0 -532.0 144.0 -394.0V-201.0Z"/></g>
<g fill="black" opacity=".8" transform="translate(1000 800) scale(0.1 -0.1)"><path d="M0.0 0.0V-129.0H610.0V0.0ZM4.0 -211.0V-392.0C4.0 -506.0 -2.0 -664.0 -88.0 -775.0C-57.0 -790.0 8.0 -837.0 31.0 -862.0C129.0 -737.0 147.0 -533.0 147.0 -394.0V-211.0Z"/></g>
<g fill="red" transform="translate(1100 800) scale(0.1 -0.1)"><path d="M0.0 0.0V-30.0H490.0V0.0ZM8.0 -211.0V-371.0C8.0 -485.0 -4.0 -645.0 -82.0 -766.0C-75.0 -770.0 -64.0 -778.0 -59.0 -784.0C23.0 -660.0 37.0 -490.0 37.0 -371.0V-211.0Z"/></g>
<g fill="black" opacity=".8" transform="translate(1100 800) scale(0.1 -0.1)"><path d="M0.0 0.0V-30.0H500.0V0.0ZM10.0 -220.0V-378.0C10.0 -491.0 -3.0 -643.0 -91.0 -757.0C-83.0 -761.0 -73.0 -771.0 -67.0 -776.0C23.0 -658.0 40.0 -494.0 40.0 -379.0V-220.0Z"/></g>
<g fill="red" transform="translate(1200 800) scale(0.1 -0.1)"><path d="M0.0 0.0V-120.0H526.0V0.0ZM-11.0 -242.0V-397.0C-11.0 -505.0 -18.0 -661.0 -108.0 -766.0C-77.0 -779.0 -19.0 -817.0 5.0 -838.0C103.0 -721.0 121.0 -527.0 121.0 -399.0V-242.0Z"/></g>
<g fill="black" opacity=".8" transform="translate(1200 800) scale(0.1 -0.1)"><path d="M0.0 0.0V-121.0H517.0V0.0ZM-12.0 -231.0V-392.0C-12.0 -503.0 -18.0 -659.0 -98.0 -769.0C-69.0 -783.0 -10.0 -826.0 12.0 -849.0C102.0 -727.0 119.0 -527.0 119.0 -394.0V-231.0Z"/></g>
<g fill="red" transform="translate(1300 800) scale(0.1 -0.1)"><path d="M0.0 0.0V-29.0H504.0V0.0ZM-12.0 0.0V-316.0C-12.0 -474.0 -24.0 -681.0 -138.0 -831.0C-131.0 -834.0 -119.0 -842.0 -114.0 -848.0C2.0 -695.0 17.0 -478.0 17.0 -317.0V0.0Z"/></g>
<g fill="black" opacity=".8" transform="translate(1300 800) scale(0.1 -0.1)"><path d="M0.0 0.0V-31.0H506.0V0.0ZM-14.0 1.0V-328.0C-14.0 -480.0 -26.0 -676.0 -135.0 -818.0C-127.0 -822.0 -116.0 -832.0 -110.0 -838.0C1.0 -692.0 17.0 -483.0 17.0 -328.0V1.0Z"/></g>
<g fill="red" transform="translate(1400 800) scale(0.1 -0.1)"><path d="M0.0 0.0V-129.0H469.0V0.0ZM-76.0 0.0V-370.0C-76.0 -512.0 -84.0 -693.0 -185.0 -814.0C-156.0 -830.0 -101.0 -874.0 -80.0 -899.0C36.0 -764.0 55.0 -533.0 55.0 -370.0V0.0Z"/></g>
<g fill="black" opacity=".8" transform="translate(1400 800) scale(0.1 -0.1)"><path d="M0.0 0.0V-136.0H468.0V0.0ZM-81.0 1.0V-364.0C-81.0 -509.0 -88.0 -695.0 -190.0 -820.0C-159.0 -836.0 -98.0 -884.0 -76.0 -910.0C41.0 -772.0 59.0 -532.0 59.0 -365.0V1.0Z"/></g>
<g fill="red" transform="translate(1500 800) scale(0.1 -0.1)"><path d="M0.0 0.0V-29.0H781.0V0.0ZM-12.0 0.0V-283.0C-12.0 -442.0 -21.0 -660.0 -108.0 -822.0C-100.0 -826.0 -88.0 -834.0 -83.0 -839.0C6.0 -674.0 18.0 -445.0 18.0 -284.0V0.0Z"/></g>
<g fill="black" opacity=".8" transform="translate(1500 800) scale(0.1 -0.1)"><path d="M0.0 0.0V-29.0H783.0V0.0ZM-13.0 -1.0V-284.0C-13.0 -443.0 -21.0 -660.0 -106.0 -820.0C-97.0 -824.0 -87.0 -833.0 -81.0 -838.0C5.0 -674.0 16.0 -444.0 16.0 -285.0V-1.0Z"/></g>
<g fill="red" transform="translate(1600 800) scale(0.1 -0.1)"><path d="M0.0 0.0V-134.0H770.0V0.0ZM-98.0 0.0V-316.0C-98.0 -474.0 -103.0 -700.0 -175.0 -852.0C-140.0 -864.0 -79.0 -897.0 -52.0 -918.0C26.0 -753.0 38.0 -489.0 38.0 -316.0V0.0Z"/></g>
<g fill="black" opacity=".8" transform="translate(1600 800) scale(0.1 -0.1)"><path d="M0.0 0.0V-131.0H768.0V0.0ZM-98.0 1.0V-315.0C-98.0 -473.0 -103.0 -699.0 -175.0 -851.0C-142.0 -863.0 -78.0 -901.0 -53.0 -923.0C28.0 -758.0 40.0 -489.0 40.0 -315.0V1.0Z"/></g>
<g fill="red" transform="translate(100 900) scale(0.1 -0.1)"><path d="M0.0 0.0V-30.0H424.0V0.0ZM22.0 -214.0V-426.0C22.0 -519.0 17.0 -643.0 -34.0 -736.0C-28.0 -739.0 -16.0 -748.0 -11.0 -755.0C43.0 -658.0 52.0 -523.0 52.0 -426.0V-214.0Z"/></g>
<g fill="black" opacity=".8" transform="translate(100 900) scale(0.1 -0.1)"><path d="M0.0 0.0V-24.0H420.0V0.0ZM31.0 -207.0V-415.0C31.0 -516.0 23.0 -648.0 -44.0 -745.0C-38.0 -748.0 -30.0 -756.0 -25.0 -761.0C44.0 -660.0 55.0 -519.0 55.0 -416.0V-207.0Z"/></g>
<g fill="red" transform="translate(200 900) scale(0.1 -0.1)"><path d="M0.0 0.0V-118.0H446.0V0.0ZM16.0 -207.0V-429.0C16.0 -528.0 13.0 -659.0 -38.0 -752.0C-12.0 -768.0 43.0 -816.0 63.0 -841.0C130.0 -731.0 144.0 -553.0 144.0 -430.0V-207.0Z"/></g>
<g fill="black" opacity=".8" transform="translate(200 900) scale(0.1 -0.1)"><path d="M0.0 0.0V-101.0H452.0V0.0ZM30.0 -218.0V-432.0C30.0 -533.0 26.0 -667.0 -36.0 -760.0C-13.0 -771.0 34.0 -805.0 51.0 -823.0C122.0 -721.0 134.0 -550.0 134.0 -433.0V-218.0Z"/></g>
<g fill="red" transform="translate(300 900) scale(0.1 -0.1)"><path d="M0.0 0.0V-29.0H613.0V0.0ZM-126.0 188.0V-95.0C-126.0 -254.0 -135.0 -472.0 -222.0 -634.0C-214.0 -638.0 -202.0 -646.0 -197.0 -651.0C-108.0 -486.0 -96.0 -257.0 -96.0 -96.0V188.0Z"/></g>
<g fill="black" opacity=".8" transform="translate(300 900) scale(0.1 -0.1)"><path d="M0.0 0.0V-30.0H612.0V0.0ZM-126.0 190.0V-97.0C-126.0 -255.0 -135.0 -472.0 -221.0 -632.0C-212.0 -636.0 -201.0 -646.0 -195.0 -651.0C-108.0 -486.0 -95.0 -258.0 -95.0 -97.0V190.0Z"/></g>
<g fill="red" transform="translate(400 900) scale(0.1 -0.1)"><path d="M0.0 0.0V-129.0H622.0V0.0ZM-182.0 208.0V-108.0C-182.0 -266.0 -187.0 -492.0 -259.0 -644.0C-224.0 -656.0 -163.0 -689.0 -136.0 -710.0C-58.0 -545.0 -46.0 -281.0 -46.0 -108.0V208.0Z"/></g>
<g fill="black" opacity=".8" transform="translate(400 900) scale(0.1 -0.1)"><path d="M0.0 0.0V-126.0H623.0V0.0ZM-186.0 206.0V-107.0C-186.0 -265.0 -191.0 -491.0 -262.0 -644.0C-226.0 -656.0 -160.0 -691.0 -132.0 -712.0C-55.0 -547.0 -43.0 -282.0 -43.0 -107.0V206.0Z"/></g>
<g fill="red" transform="translate(500 900) scale(0.1 -0.1)"><path d="M0.0 0.0V-29.0H763.0V0.0ZM-12.0 0.0V-283.0C-12.0 -442.0 -21.0 -660.0 -108.0 -822.0C-100.0 -826.0 -88.0 -834.0 -83.0 -839.0C6.0 -674.0 18.0 -445.0 18.0 -284.0V0.0Z"/></g>
<g fill="black" opacity=".8" transform="translate(500 900) scale(0.1 -0.1)"><path d="M0.0 0.0V-29.0H763.0V0.0ZM-13.0 -1.0V-284.0C-13.0 -443.0 -21.0 -660.0 -106.0 -820.0C-98.0 -824.0 -87.0 -833.0 -81.0 -838.0C5.0 -674.0 17.0 -445.0 17.0 -285.0V-1.0Z"/></g>
<g fill="red" transform="translate(600 900) scale(0.1 -0.1)"><path d="M0.0 0.0V-134.0H748.0V0.0ZM-98.0 0.0V-316.0C-98.0 -474.0 -103.0 -700.0 -175.0 -852.0C-140.0 -864.0 -79.0 -897.0 -52.0 -918.0C26.0 -753.0 38.0 -489.0 38.0 -316.0V0.0Z"/></g>
<g fill="black" opacity=".8" transform="translate(600 900) scale(0.1 -0.1)"><path d="M0.0 0.0V-131.0H748.0V0.0ZM-98.0 1.0V-315.0C-98.0 -473.0 -103.0 -699.0 -175.0 -851.0C-142.0 -863.0 -78.0 -901.0 -53.0 -923.0C27.0 -758.0 40.0 -489.0 40.0 -315.0V1.0Z"/></g>
<g fill="red" transform="translate(700 900) scale(0.1 -0.1)"><path d="M0.0 0.0V-29.0H675.0V0.0ZM-101.0 226.0V-57.0C-101.0 -216.0 -110.0 -434.0 -197.0 -596.0C-189.0 -600.0 -177.0 -608.0 -172.0 -613.0C-83.0 -448.0 -71.0 -219.0 -71.0 -58.0V226.0Z"/></g>
<g fill="black" opacity=".8" transform="translate(700 900) scale(0.1 -0.1)"><path d="M0.0 0.0V-29.0H678.0V0.0ZM-103.0 231.0V-58.0C-103.0 -217.0 -111.0 -434.0 -196.0 -595.0C-186.0 -598.0 -175.0 -607.0 -170.0 -612.0C-84.0 -448.0 -73.0 -219.0 -73.0 -59.0V231.0Z"/></g>
<g fill="red" transform="translate(800 900) scale(0.1 -0.1)"><path d="M0.0 0.0V-133.0H703.0V0.0ZM-150.0 243.0V-73.0C-150.0 -231.0 -155.0 -457.0 -227.0 -609.0C-192.0 -621.0 -131.0 -654.0 -104.0 -675.0C-26.0 -510.0 -14.0 -246.0 -14.0 -73.0V243.0Z"/></g>
<g fill="black" opacity=".8" transform="translate(800 900) scale(0.1 -0.1)"><path d="M0.0 0.0V-127.0H700.0V0.0ZM-151.0 238.0V-72.0C-151.0 -230.0 -156.0 -456.0 -230.0 -610.0C-194.0 -622.0 -129.0 -657.0 -102.0 -678.0C-23.0 -512.0 -11.0 -246.0 -11.0 -72.0V238.0Z"/></g>
<g fill="red" transform="translate(900 900) scale(0.1 -0.1)"><path d="M0.0 0.0V-29.0H786.0V0.0ZM-14.0 0.0V-282.0C-14.0 -439.0 -22.0 -657.0 -106.0 -818.0C-99.0 -821.0 -86.0 -830.0 -81.0 -836.0C5.0 -671.0 16.0 -443.0 16.0 -282.0V0.0Z"/></g>
<g fill="black" opacity=".8" transform="translate(900 900) scale(0.1 -0.1)"><path d="M0.0 0.0V-29.0H784.0V0.0ZM-13.0 -1.0V-281.0C-13.0 -440.0 -21.0 -658.0 -106.0 -818.0C-98.0 -822.0 -87.0 -831.0 -81.0 -836.0C5.0 -671.0 16.0 -442.0 16.0 -282.0V-1.0Z"/></g>
<g fill="red" transform="translate(1000 900) scale(0.1 -0.1)"><path d="M0.0 0.0V-133.0H770.0V0.0ZM-98.0 0.0V-317.0C-98.0 -474.0 -103.0 -700.0 -175.0 -852.0C-139.0 -864.0 -75.0 -899.0 -47.0 -921.0C31.0 -755.0 43.0 -490.0 43.0 -316.0V0.0Z"/></g>
<g fill="black" opacity=".8" transform="translate(1000 900) scale(0.1 -0.1)"><path d="M0.0 0.0V-132.0H772.0V0.0ZM-97.0 -0.0V-316.0C-97.0 -474.0 -101.0 -698.0 -174.0 -850.0C-140.0 -863.0 -76.0 -901.0 -51.0 -923.0C30.0 -759.0 42.0 -490.0 42.0 -316.0V-0.0Z"/></g>
<g fill="red" transform="translate(1100 900) scale(0.1 -0.1)"><path d="M0.0 0.0V-29.0H808.0V0.0ZM-12.0 0.0V-325.0C-12.0 -478.0 -19.0 -689.0 -94.0 -843.0C-86.0 -847.0 -74.0 -855.0 -68.0 -860.0C7.0 -703.0 17.0 -482.0 17.0 -325.0V0.0Z"/></g>
<g fill="black" opacity=".8" transform="translate(1100 900) scale(0.1 -0.1)"><path d="M0.0 0.0V-28.0H806.0V0.0ZM-9.0 -3.0V-331.0C-9.0 -483.0 -16.0 -687.0 -97.0 -835.0C-89.0 -838.0 -80.0 -846.0 -73.0 -851.0C9.0 -700.0 19.0 -484.0 19.0 -332.0V-3.0Z"/></g>
<g fill="red" transform="translate(1200 900) scale(0.1 -0.1)"><path d="M0.0 0.0V-126.0H788.0V0.0ZM-85.0 0.0V-329.0C-85.0 -479.0 -90.0 -690.0 -168.0 -831.0C-135.0 -845.0 -74.0 -887.0 -49.0 -911.0C38.0 -754.0 53.0 -497.0 53.0 -328.0V0.0Z"/></g>
<g fill="black" opacity=".8" transform="translate(1200 900) scale(0.1 -0.1)"><path d="M0.0 0.0V-123.0H791.0V0.0ZM-83.0 4.0V-324.0C-83.0 -479.0 -88.0 -697.0 -170.0 -842.0C-138.0 -855.0 -76.0 -892.0 -53.0 -914.0C38.0 -757.0 52.0 -495.0 52.0 -324.0V4.0Z"/></g>
<g fill="red" transform="translate(1300 900) scale(0.1 -0.1)"><path d="M0.0 0.0V-29.0H760.0V0.0ZM-12.0 0.0V-283.0C-12.0 -442.0 -21.0 -660.0 -108.0 -822.0C-100.0 -826.0 -88.0 -834.0 -83.0 -839.0C6.0 -674.0 18.0 -445.0 18.0 -284.0V0.0Z"/></g>
<g fill="black" opacity=".8" transform="translate(1300 900) scale(0.1 -0.1)"><path d="M0.0 0.0V-29.0H766.0V0.0ZM-14.0 -2.0V-283.0C-14.0 -442.0 -22.0 -660.0 -107.0 -820.0C-98.0 -824.0 -88.0 -834.0 -82.0 -839.0C4.0 -674.0 16.0 -444.0 16.0 -284.0V-2.0Z"/></g>
<g fill="red" transform="translate(1400 900) scale(0.1 -0.1)"><path d="M0.0 0.0V-134.0H748.0V0.0ZM-108.0 0.0V-316.0C-108.0 -474.0 -113.0 -700.0 -185.0 -852.0C-150.0 -864.0 -89.0 -897.0 -62.0 -918.0C16.0 -753.0 28.0 -489.0 28.0 -316.0V0.0Z"/></g>
<g fill="black" opacity=".8" transform="translate(1400 900) scale(0.1 -0.1)"><path d="M0.0 0.0V-130.0H743.0V0.0ZM-107.0 1.0V-315.0C-107.0 -473.0 -112.0 -699.0 -183.0 -851.0C-150.0 -864.0 -87.0 -901.0 -62.0 -922.0C18.0 -758.0 30.0 -489.0 30.0 -315.0V1.0Z"/></g>
<g fill="red" transform="translate(1500 900) scale(0.1 -0.1)"><path d="M0.0 0.0V-30.0H437.0V0.0ZM-196.0 316.0V33.0C-196.0 -126.0 -205.0 -344.0 -292.0 -506.0C-284.0 -510.0 -272.0 -518.0 -267.0 -523.0C-178.0 -358.0 -166.0 -129.0 -166.0 32.0V316.0Z"/></g>
<g fill="black" opacity=".8" transform="translate(1500 900) scale(0.1 -0.1)"><path d="M0.0 0.0V-30.0H438.0V0.0ZM-196.0 318.0V32.0C-196.0 -128.0 -205.0 -344.0 -294.0 -505.0C-284.0 -509.0 -273.0 -518.0 -267.0 -523.0C-177.0 -359.0 -164.0 -130.0 -164.0 31.0V318.0Z"/></g>
<g fill="red" transform="translate(1600 900) scale(0.1 -0.1)"><path d="M0.0 0.0V-117.0H442.0V0.0ZM-256.0 348.0V32.0C-256.0 -126.0 -261.0 -352.0 -333.0 -504.0C-298.0 -516.0 -237.0 -549.0 -210.0 -570.0C-132.0 -405.0 -120.0 -141.0 -120.0 32.0V348.0Z"/></g>
<g fill="black" opacity=".8" transform="translate(1600 900) scale(0.1 -0.1)"><path d="M0.0 0.0V-119.0H441.0V0.0ZM-260.0 346.0V32.0C-260.0 -126.0 -264.0 -352.0 -334.0 -505.0C-297.0 -517.0 -232.0 -548.0 -204.0 -568.0C-130.0 -404.0 -119.0 -141.0 -119.0 32.0V346.0Z"/></g>
<g fill="red" transform="translate(100 1000) scale(0.1 -0.1)"><path d="M0.0 0.0V-29.0H516.0V0.0ZM-159.0 147.0V-136.0C-159.0 -295.0 -168.0 -513.0 -255.0 -675.0C-247.0 -679.0 -235.0 -687.0 -230.0 -692.0C-141.0 -527.0 -129.0 -298.0 -129.0 -137.0V147.0Z"/></g>
<g fill="black" opacity=".8" transform="translate(100 1000) scale(0.1 -0.1)"><path d="M0.0 0.0V-30.0H521.0V0.0ZM-161.0 153.0V-143.0C-161.0 -300.0 -169.0 -512.0 -253.0 -668.0C-244.0 -673.0 -233.0 -681.0 -227.0 -686.0C-142.0 -526.0 -130.0 -302.0 -130.0 -144.0V153.0Z"/></g>
<g fill="red" transform="translate(200 1000) scale(0.1 -0.1)"><path d="M0.0 0.0V-100.0H514.0V0.0ZM-236.0 191.0V-125.0C-236.0 -283.0 -241.0 -509.0 -313.0 -661.0C-278.0 -673.0 -217.0 -706.0 -190.0 -727.0C-112.0 -562.0 -100.0 -298.0 -100.0 -125.0V191.0Z"/></g>
<g fill="black" opacity=".8" transform="translate(200 1000) scale(0.1 -0.1)"><path d="M0.0 0.0V-117.0H510.0V0.0ZM-240.0 186.0V-123.0C-240.0 -281.0 -244.0 -511.0 -313.0 -666.0C-277.0 -677.0 -212.0 -709.0 -183.0 -729.0C-110.0 -563.0 -99.0 -297.0 -99.0 -123.0V186.0Z"/></g>
<g fill="red" transform="translate(300 1000) scale(0.1 -0.1)"><path d="M0.0 0.0V-29.0H676.0V0.0ZM-89.0 139.0V-144.0C-89.0 -303.0 -98.0 -521.0 -185.0 -683.0C-177.0 -687.0 -165.0 -695.0 -160.0 -700.0C-71.0 -535.0 -59.0 -306.0 -59.0 -145.0V139.0Z"/></g>
<g fill="black" opacity=".8" transform="translate(300 1000) scale(0.1 -0.1)"><path d="M0.0 0.0V-28.0H679.0V0.0ZM-87.0 150.0V-156.0C-87.0 -312.0 -96.0 -520.0 -187.0 -673.0C-179.0 -677.0 -168.0 -686.0 -163.0 -691.0C-71.0 -534.0 -58.0 -314.0 -58.0 -157.0V150.0Z"/></g>
<g fill="red" transform="translate(400 1000) scale(0.1 -0.1)"><path d="M0.0 0.0V-92.0H642.0V0.0ZM-182.0 173.0V-196.0C-182.0 -343.0 -188.0 -537.0 -270.0 -666.0C-240.0 -683.0 -180.0 -734.0 -157.0 -761.0C-57.0 -615.0 -40.0 -363.0 -40.0 -196.0V173.0Z"/></g>
<g fill="black" opacity=".8" transform="translate(400 1000) scale(0.1 -0.1)"><path d="M0.0 0.0V-123.0H640.0V0.0ZM-184.0 165.0V-192.0C-184.0 -342.0 -189.0 -545.0 -270.0 -680.0C-237.0 -694.0 -174.0 -734.0 -150.0 -756.0C-59.0 -609.0 -45.0 -360.0 -45.0 -192.0V165.0Z"/></g>
<g fill="red" transform="translate(500 1000) scale(0.1 -0.1)"><path d="M0.0 0.0V-30.0H296.0V0.0ZM20.0 -214.0V-426.0C20.0 -521.0 10.0 -644.0 -64.0 -736.0C-58.0 -739.0 -47.0 -749.0 -42.0 -756.0C35.0 -660.0 49.0 -526.0 49.0 -426.0V-214.0Z"/></g>
<g fill="black" opacity=".8" transform="translate(500 1000) scale(0.1 -0.1)"><path d="M0.0 0.0V-26.0H294.0V0.0ZM23.0 -210.0V-413.0C23.0 -517.0 13.0 -651.0 -65.0 -749.0C-58.0 -752.0 -50.0 -761.0 -45.0 -766.0C35.0 -664.0 49.0 -519.0 49.0 -414.0V-210.0Z"/></g>
<g fill="red" transform="translate(600 1000) scale(0.1 -0.1)"><path d="M0.0 0.0V-118.0H293.0V0.0ZM1.0 -211.0V-433.0C1.0 -535.0 -3.0 -666.0 -64.0 -756.0C-43.0 -774.0 -1.0 -826.0 14.0 -853.0C89.0 -745.0 103.0 -564.0 103.0 -435.0V-211.0Z"/></g>
<g fill="black" opacity=".8" transform="translate(600 1000) scale(0.1 -0.1)"><path d="M0.0 0.0V-104.0H296.0V0.0ZM1.0 -218.0V-441.0C1.0 -542.0 -3.0 -672.0 -71.0 -762.0C-48.0 -774.0 -2.0 -811.0 15.0 -830.0C93.0 -730.0 106.0 -561.0 106.0 -443.0V-218.0Z"/></g>
<g fill="red" transform="translate(700 1000) scale(0.1 -0.1)"><path d="M0.0 0.0V-30.0H587.0V0.0ZM-11.0 0.0V-136.0C-11.0 -261.0 -24.0 -440.0 -107.0 -575.0C-99.0 -578.0 -87.0 -587.0 -82.0 -593.0C3.0 -454.0 19.0 -265.0 19.0 -136.0V0.0Z"/></g>
<g fill="black" opacity=".8" transform="translate(700 1000) scale(0.1 -0.1)"><path d="M0.0 0.0V-28.0H582.0V0.0ZM-9.0 3.0V-141.0C-9.0 -266.0 -21.0 -439.0 -105.0 -569.0C-96.0 -573.0 -87.0 -581.0 -81.0 -586.0C3.0 -452.0 18.0 -268.0 18.0 -142.0V3.0Z"/></g>
<g fill="red" transform="translate(800 1000) scale(0.1 -0.1)"><path d="M0.0 0.0V-113.0H590.0V0.0ZM-44.0 0.0V-87.0C-44.0 -217.0 -51.0 -421.0 -125.0 -566.0C-97.0 -578.0 -42.0 -616.0 -20.0 -638.0C61.0 -477.0 77.0 -236.0 77.0 -88.0V0.0Z"/></g>
<g fill="black" opacity=".8" transform="translate(800 1000) scale(0.1 -0.1)"><path d="M0.0 0.0V-116.0H594.0V0.0ZM-47.0 -3.0V-85.0C-47.0 -216.0 -54.0 -427.0 -133.0 -574.0C-102.0 -584.0 -43.0 -618.0 -19.0 -637.0C64.0 -479.0 80.0 -234.0 80.0 -86.0V-3.0Z"/></g>
<g fill="red" transform="translate(900 1000) scale(0.1 -0.1)"><path d="M0.0 0.0V-29.0H583.0V0.0ZM-11.0 0.0V-294.0C-11.0 -451.0 -26.0 -656.0 -155.0 -805.0C-148.0 -809.0 -136.0 -819.0 -132.0 -825.0C1.0 -672.0 18.0 -455.0 18.0 -294.0V0.0Z"/></g>
<g fill="black" opacity=".8" transform="translate(900 1000) scale(0.1 -0.1)"><path d="M0.0 0.0V-34.0H590.0V0.0ZM-18.0 0.0V-293.0C-18.0 -450.0 -32.0 -656.0 -149.0 -807.0C-140.0 -811.0 -128.0 -822.0 -121.0 -828.0C-3.0 -673.0 15.0 -453.0 15.0 -294.0V0.0Z"/></g>
<g fill="red" transform="translate(1000 1000) scale(0.1 -0.1)"><path d="M0.0 0.0V-140.0H562.0V0.0ZM-84.0 0.0V-300.0C-84.0 -453.0 -93.0 -665.0 -204.0 -806.0C-172.0 -822.0 -111.0 -872.0 -87.0 -899.0C39.0 -743.0 60.0 -474.0 60.0 -300.0V0.0Z"/></g>
<g fill="black" opacity=".8" transform="translate(1000 1000) scale(0.1 -0.1)"><path d="M0.0 0.0V-145.0H555.0V0.0ZM-89.0 -1.0V-300.0C-89.0 -453.0 -97.0 -661.0 -208.0 -803.0C-174.0 -820.0 -105.0 -871.0 -81.0 -899.0C45.0 -742.0 66.0 -479.0 66.0 -301.0V-1.0Z"/></g>
<g fill="red" transform="translate(1100 1000) scale(0.1 -0.1)"><path d="M0.0 0.0V-30.0H499.0V0.0ZM-10.0 0.0V-203.0C-10.0 -324.0 -20.0 -489.0 -94.0 -613.0C-86.0 -616.0 -74.0 -624.0 -69.0 -630.0C6.0 -503.0 19.0 -327.0 19.0 -203.0V0.0Z"/></g>
<g fill="black" opacity=".8" transform="translate(1100 1000) scale(0.1 -0.1)"><path d="M0.0 0.0V-25.0H503.0V0.0ZM-11.0 -1.0V-209.0C-11.0 -327.0 -19.0 -485.0 -92.0 -602.0C-85.0 -604.0 -76.0 -612.0 -71.0 -616.0C2.0 -497.0 14.0 -328.0 14.0 -210.0V-1.0Z"/></g>
<g fill="red" transform="translate(1200 1000) scale(0.1 -0.1)"><path d="M0.0 0.0V-112.0H523.0V0.0ZM-47.0 0.0V-157.0C-47.0 -275.0 -51.0 -453.0 -107.0 -579.0C-78.0 -591.0 -22.0 -629.0 1.0 -650.0C64.0 -509.0 77.0 -295.0 77.0 -158.0V0.0Z"/></g>
<g fill="black" opacity=".8" transform="translate(1200 1000) scale(0.1 -0.1)"><path d="M0.0 0.0V-103.0H519.0V0.0ZM-35.0 -1.0V-150.0C-35.0 -276.0 -40.0 -466.0 -114.0 -598.0C-86.0 -608.0 -34.0 -637.0 -13.0 -654.0C64.0 -513.0 78.0 -290.0 78.0 -151.0V-1.0Z"/></g>
<g fill="red" transform="translate(1300 1000) scale(0.1 -0.1)"><path d="M0.0 0.0V-29.0H433.0V0.0ZM-93.0 186.0V-145.0C-93.0 -298.0 -101.0 -504.0 -194.0 -653.0C-187.0 -656.0 -174.0 -664.0 -169.0 -668.0C-75.0 -517.0 -63.0 -301.0 -63.0 -144.0V186.0Z"/></g>
<g fill="black" opacity=".8" transform="translate(1300 1000) scale(0.1 -0.1)"><path d="M0.0 0.0V-28.0H432.0V0.0ZM-93.0 187.0V-147.0C-93.0 -300.0 -101.0 -502.0 -193.0 -649.0C-185.0 -652.0 -174.0 -661.0 -168.0 -666.0C-76.0 -516.0 -64.0 -302.0 -64.0 -147.0V187.0Z"/></g>
<g fill="red" transform="translate(1400 1000) scale(0.1 -0.1)"><path d="M0.0 0.0V-114.0H410.0V0.0ZM-161.0 207.0V-126.0C-161.0 -279.0 -166.0 -493.0 -244.0 -636.0C-209.0 -649.0 -148.0 -684.0 -122.0 -705.0C-38.0 -549.0 -25.0 -296.0 -25.0 -126.0V207.0Z"/></g>
<g fill="black" opacity=".8" transform="translate(1400 1000) scale(0.1 -0.1)"><path d="M0.0 0.0V-118.0H412.0V0.0ZM-156.0 205.0V-124.0C-156.0 -279.0 -161.0 -495.0 -244.0 -642.0C-212.0 -653.0 -154.0 -687.0 -130.0 -707.0C-40.0 -551.0 -27.0 -295.0 -27.0 -124.0V205.0Z"/></g>
<g fill="red" transform="translate(1500 1000) scale(0.1 -0.1)"><path d="M0.0 0.0V-29.0H569.0V0.0ZM-17.0 0.0V-327.0C-17.0 -474.0 -25.0 -670.0 -107.0 -814.0C-100.0 -817.0 -88.0 -827.0 -84.0 -833.0C2.0 -685.0 12.0 -477.0 12.0 -327.0V0.0Z"/></g>
<g fill="black" opacity=".8" transform="translate(1500 1000) scale(0.1 -0.1)"><path d="M0.0 0.0V-28.0H563.0V0.0ZM-14.0 1.0V-333.0C-14.0 -478.0 -22.0 -669.0 -107.0 -808.0C-100.0 -811.0 -90.0 -820.0 -84.0 -825.0C3.0 -683.0 14.0 -480.0 14.0 -333.0V1.0Z"/></g>
<g fill="red" transform="translate(1600 1000) scale(0.1 -0.1)"><path d="M0.0 0.0V-126.0H554.0V0.0ZM-59.0 0.0V-376.0C-59.0 -513.0 -64.0 -693.0 -134.0 -814.0C-109.0 -829.0 -60.0 -875.0 -41.0 -899.0C45.0 -761.0 60.0 -531.0 60.0 -376.0V0.0Z"/></g>
<g fill="black" opacity=".8" transform="translate(1600 1000) scale(0.1 -0.1)"><path d="M0.0 0.0V-123.0H560.0V0.0ZM-63.0 1.0V-372.0C-63.0 -514.0 -67.0 -700.0 -145.0 -824.0C-116.0 -837.0 -59.0 -876.0 -38.0 -898.0C50.0 -762.0 63.0 -532.0 63.0 -372.0V1.0Z"/></g>
<g fill="red" transform="translate(100 1100) scale(0.1 -0.1)"><path d="M0.0 0.0V-29.0H508.0V0.0ZM-13.0 0.0V-363.0C-13.0 -502.0 -17.0 -690.0 -77.0 -826.0C-69.0 -830.0 -58.0 -838.0 -52.0 -843.0C9.0 -703.0 17.0 -505.0 17.0 -363.0V0.0Z"/></g>
<g fill="black" opacity=".8" transform="translate(100 1100) scale(0.1 -0.1)"><path d="M0.0 0.0V-27.0H514.0V0.0ZM-8.0 -8.0V-349.0C-8.0 -497.0 -13.0 -696.0 -87.0 -840.0C-79.0 -843.0 -70.0 -851.0 -63.0 -855.0C11.0 -708.0 19.0 -499.0 19.0 -349.0V-8.0Z"/></g>
<g fill="red" transform="translate(200 1100) scale(0.1 -0.1)"><path d="M0.0 0.0V-131.0H527.0V0.0ZM-57.0 0.0V-291.0C-57.0 -453.0 -62.0 -691.0 -134.0 -852.0C-101.0 -863.0 -42.0 -893.0 -16.0 -913.0C60.0 -739.0 72.0 -467.0 72.0 -291.0V0.0Z"/></g>
<g fill="black" opacity=".8" transform="translate(200 1100) scale(0.1 -0.1)"><path d="M0.0 0.0V-114.0H523.0V0.0ZM-51.0 3.0V-297.0C-51.0 -457.0 -55.0 -690.0 -124.0 -848.0C-94.0 -857.0 -39.0 -883.0 -16.0 -900.0C56.0 -734.0 66.0 -468.0 66.0 -296.0V3.0Z"/></g>
<g fill="red" transform="translate(300 1100) scale(0.1 -0.1)"><path d="M0.0 0.0V-29.0H495.0V0.0ZM-9.0 0.0V-301.0C-9.0 -455.0 -15.0 -669.0 -84.0 -826.0C-77.0 -830.0 -65.0 -838.0 -59.0 -843.0C12.0 -682.0 20.0 -458.0 20.0 -301.0V0.0Z"/></g>
<g fill="black" opacity=".8" transform="translate(300 1100) scale(0.1 -0.1)"><path d="M0.0 0.0V-29.0H506.0V0.0ZM-5.0 -1.0V-301.0C-5.0 -458.0 -13.0 -670.0 -96.0 -826.0C-88.0 -830.0 -78.0 -839.0 -71.0 -844.0C13.0 -684.0 24.0 -460.0 24.0 -302.0V-1.0Z"/></g>
<g fill="red" transform="translate(400 1100) scale(0.1 -0.1)"><path d="M0.0 0.0V-131.0H523.0V0.0ZM-57.0 0.0V-291.0C-57.0 -454.0 -63.0 -691.0 -143.0 -852.0C-110.0 -863.0 -52.0 -894.0 -26.0 -914.0C59.0 -741.0 72.0 -468.0 72.0 -291.0V0.0Z"/></g>
<g fill="black" opacity=".8" transform="translate(400 1100) scale(0.1 -0.1)"><path d="M0.0 0.0V-127.0H513.0V0.0ZM-58.0 2.0V-291.0C-58.0 -454.0 -62.0 -691.0 -131.0 -853.0C-99.0 -863.0 -40.0 -894.0 -16.0 -912.0C57.0 -740.0 68.0 -467.0 68.0 -291.0V2.0Z"/></g>
</svg>
