<?xml version="1.0" encoding="UTF-8"?>
<svg width="1700" height="300" xmlns="http://www.w3.org/2000/svg">
<rect width="100%" height="100%" fill="white"/>
<g fill="green" transform="translate(100 100) scale(0.1 -0.1)"><path d="M0.0 0.0 -28.0 -10.0C52.0 -222.0 210.0 -392.0 404.0 -470.0C409.0 -461.0 419.0 -450.0 426.0 -443.0C233.0 -374.0 75.0 -205.0 0.0 0.0ZM-98.0 260.0V231.0H273.0V260.0ZM337.0 7.0V0.0C267.0 -221.0 77.0 -375.0 -97.0 -436.0C-91.0 -442.0 -83.0 -453.0 -79.0 -461.0C101.0 -392.0 292.0 -238.0 367.0 0.0L349.0 9.0L343.0 7.0ZM263.0 260.0V254.0C251.0 195.0 227.0 73.0 204.0 -8.0L234.0 -13.0C255.0 70.0 280.0 183.0 294.0 258.0L273.0 263.0L267.0 260.0ZM-100.0 7.0V-22.0H346.0V7.0ZM-113.0 260.0V31.0C-113.0 -100.0 -126.0 -276.0 -226.0 -406.0C-219.0 -409.0 -207.0 -419.0 -203.0 -426.0C-99.0 -291.0 -84.0 -104.0 -84.0 31.0V260.0Z"/></g>
<g fill="green" transform="translate(200 100) scale(0.1 -0.1)"><path d="M0.0 0.0 -124.0 -31.0C-50.0 -230.0 67.0 -368.0 268.0 -435.0C287.0 -398.0 328.0 -343.0 358.0 -315.0C175.0 -266.0 57.0 -152.0 0.0 0.0ZM-186.0 311.0V184.0H125.0V311.0ZM171.0 83.0V62.0C134.0 -129.0 15.0 -270.0 -158.0 -329.0C-131.0 -356.0 -96.0 -410.0 -79.0 -444.0C125.0 -359.0 257.0 -206.0 310.0 58.0L221.0 87.0L197.0 83.0ZM78.0 311.0V296.0C69.0 236.0 50.0 130.0 30.0 45.0L170.0 28.0C189.0 109.0 210.0 207.0 223.0 302.0L117.0 316.0L94.0 311.0ZM-145.0 83.0V-43.0H211.0V83.0ZM-237.0 311.0V75.0C-237.0 -51.0 -243.0 -225.0 -327.0 -343.0C-296.0 -359.0 -234.0 -407.0 -210.0 -432.0C-113.0 -298.0 -95.0 -75.0 -95.0 74.0V311.0Z"/></g>
<g fill="green" transform="translate(300 100) scale(0.1 -0.1)"><path d="M0.0 0.0 -28.0 -10.0C52.0 -222.0 210.0 -392.0 404.0 -470.0C409.0 -461.0 419.0 -450.0 426.0 -443.0C233.0 -374.0 75.0 -205.0 0.0 0.0ZM-98.0 260.0V231.0H273.0V260.0ZM337.0 7.0V0.0C267.0 -221.0 77.0 -375.0 -97.0 -436.0C-91.0 -442.0 -83.0 -453.0 -79.0 -461.0C101.0 -392.0 292.0 -238.0 367.0 0.0L349.0 9.0L343.0 7.0ZM263.0 260.0V254.0C251.0 195.0 227.0 73.0 204.0 -8.0L234.0 -13.0C255.0 70.0 280.0 183.0 294.0 258.0L273.0 263.0L267.0 260.0ZM-100.0 7.0V-22.0H346.0V7.0ZM-113.0 260.0V31.0C-113.0 -100.0 -126.0 -276.0 -226.0 -406.0C-219.0 -409.0 -207.0 -419.0 -203.0 -426.0C-99.0 -291.0 -84.0 -104.0 -84.0 31.0V260.0Z"/></g>
<g fill="green" transform="translate(400 100) scale(0.1 -0.1)"><path d="M0.0 0.0 -124.0 -31.0C-50.0 -230.0 67.0 -368.0 268.0 -435.0C287.0 -398.0 328.0 -343.0 358.0 -315.0C175.0 -266.0 57.0 -152.0 0.0 0.0ZM-186.0 311.0V184.0H125.0V311.0ZM171.0 83.0V62.0C134.0 -129.0 15.0 -270.0 -158.0 -329.0C-131.0 -356.0 -96.0 -410.0 -79.0 -444.0C125.0 -359.0 257.0 -206.0 310.0 58.0L221.0 87.0L197.0 83.0ZM78.0 311.0V296.0C69.0 236.0 50.0 130.0 30.0 45.0L170.0 28.0C189.0 109.0 210.0 207.0 223.0 302.0L117.0 316.0L94.0 311.0ZM-145.0 83.0V-43.0H211.0V83.0ZM-237.0 311.0V75.0C-237.0 -51.0 -243.0 -225.0 -327.0 -343.0C-296.0 -359.0 -234.0 -407.0 -210.0 -432.0C-113.0 -298.0 -95.0 -75.0 -95.0 74.0V311.0Z"/></g>
<g fill="red" transform="translate(100 200) scale(0.1 -0.1)"><path d="M0.0 0.0 -28.0 -10.0C52.0 -222.0 210.0 -392.0 404.0 -470.0C409.0 -461.0 419.0 -450.0 426.0 -443.0C233.0 -374.0 75.0 -205.0 0.0 0.0ZM-98.0 260.0V231.0H273.0V260.0ZM337.0 7.0V0.0C267.0 -221.0 77.0 -375.0 -97.0 -436.0C-91.0 -442.0 -83.0 -453.0 -79.0 -461.0C101.0 -392.0 292.0 -238.0 367.0 0.0L349.0 9.0L343.0 7.0ZM263.0 260.0V254.0C251.0 195.0 227.0 73.0 204.0 -8.0L234.0 -13.0C255.0 70.0 280.0 183.0 294.0 258.0L273.0 263.0L267.0 260.0ZM-100.0 7.0V-22.0H346.0V7.0ZM-113.0 260.0V31.0C-113.0 -100.0 -126.0 -276.0 -226.0 -406.0C-219.0 -409.0 -207.0 -419.0 -203.0 -426.0C-99.0 -291.0 -84.0 -104.0 -84.0 31.0V260.0Z"/></g>
<g fill="black" opacity=".8" transform="translate(100 200) scale(0.1 -0.1)"><path d="M0.0 0.0 -28.0 -10.0C52.0 -222.0 210.0 -392.0 404.0 -470.0C409.0 -461.0 419.0 -450.0 426.0 -443.0C233.0 -374.0 75.0 -205.0 0.0 0.0ZM-98.0 260.0V231.0H273.0V260.0ZM337.0 7.0V0.0C267.0 -221.0 77.0 -375.0 -97.0 -436.0C-91.0 -442.0 -83.0 -453.0 -79.0 -461.0C101.0 -392.0 292.0 -238.0 367.0 0.0L349.0 9.0L343.0 7.0ZM263.0 260.0V254.0C251.0 195.0 227.0 73.0 204.0 -8.0L234.0 -13.0C255.0 70.0 280.0 183.0 294.0 258.0L273.0 263.0L267.0 260.0ZM-100.0 7.0V-22.0H346.0V7.0ZM-113.0 260.0V31.0C-113.0 -100.0 -126.0 -276.0 -226.0 -406.0C-219.0 -409.0 -207.0 -419.0 -203.0 -426.0C-99.0 -291.0 -84.0 -104.0 -84.0 31.0V260.0Z"/></g>
<g fill="red" transform="translate(200 200) scale(0.1 -0.1)"><path d="M0.0 0.0 -124.0 -31.0C-50.0 -230.0 67.0 -368.0 268.0 -435.0C287.0 -398.0 328.0 -343.0 358.0 -315.0C175.0 -266.0 57.0 -152.0 0.0 0.0ZM-186.0 311.0V184.0H125.0V311.0ZM171.0 83.0V62.0C134.0 -129.0 15.0 -270.0 -158.0 -329.0C-131.0 -356.0 -96.0 -410.0 -79.0 -444.0C125.0 -359.0 257.0 -206.0 310.0 58.0L221.0 87.0L197.0 83.0ZM78.0 311.0V296.0C69.0 236.0 50.0 130.0 30.0 45.0L170.0 28.0C189.0 109.0 210.0 207.0 223.0 302.0L117.0 316.0L94.0 311.0ZM-145.0 83.0V-43.0H211.0V83.0ZM-237.0 311.0V75.0C-237.0 -51.0 -243.0 -225.0 -327.0 -343.0C-296.0 -359.0 -234.0 -407.0 -210.0 -432.0C-113.0 -298.0 -95.0 -75.0 -95.0 74.0V311.0Z"/></g>
<g fill="black" opacity=".8" transform="translate(200 200) scale(0.1 -0.1)"><path d="M0.0 0.0 -124.0 -31.0C-50.0 -230.0 67.0 -368.0 268.0 -435.0C287.0 -398.0 328.0 -343.0 358.0 -315.0C175.0 -266.0 57.0 -152.0 0.0 0.0ZM-186.0 311.0V184.0H125.0V311.0ZM171.0 83.0V62.0C134.0 -129.0 15.0 -270.0 -158.0 -329.0C-131.0 -356.0 -96.0 -410.0 -79.0 -444.0C125.0 -359.0 257.0 -206.0 310.0 58.0L221.0 87.0L197.0 83.0ZM78.0 311.0V296.0C69.0 236.0 50.0 130.0 30.0 45.0L170.0 28.0C189.0 109.0 210.0 207.0 223.0 302.0L117.0 316.0L94.0 311.0ZM-145.0 83.0V-43.0H211.0V83.0ZM-237.0 311.0V75.0C-237.0 -51.0 -243.0 -225.0 -327.0 -343.0C-296.0 -359.0 -234.0 -407.0 -210.0 -432.0C-113.0 -298.0 -95.0 -75.0 -95.0 74.0V311.0Z"/></g>
</svg>
