<?xml version="1.0" encoding="UTF-8"?>
<svg width="1700" height="300" xmlns="http://www.w3.org/2000/svg">
<rect width="100%" height="100%" fill="white"/>
<g fill="green" transform="translate(100 100) scale(0.1 -0.1)"><path d="M-0.0 -0.0V-375.0C-0.0 -559.0 -5.0 -807.0 -281.0 -953.0C-273.0 -960.0 -263.0 -970.0 -259.0 -978.0C21.0 -822.0 32.0 -568.0 32.0 -375.0V0.0ZM-178.0 -324.0 340.0 -318.0 203.0 -596.0 -315.0 -602.0ZM-224.0 -251.0V-550.0H249.0V-251.0ZM-168.0 -598.0 -196.0 -610.0C-104.0 -783.0 92.0 -916.0 292.0 -972.0C298.0 -964.0 307.0 -952.0 314.0 -946.0C113.0 -895.0 -80.0 -763.0 -168.0 -598.0Z"/></g>
<g fill="green" transform="translate(200 100) scale(0.1 -0.1)"><path d="M0.0 0.0V-477.0C0.0 -652.0 -19.0 -835.0 -254.0 -913.0C-223.0 -941.0 -177.0 -998.0 -158.0 -1029.0C91.0 -916.0 143.0 -697.0 143.0 -478.0V0.0ZM-6.0 -446.0 279.0 -418.0 144.0 -522.0 -142.0 -551.0ZM-173.0 -249.0V-602.0H322.0V-249.0ZM-62.0 -622.0 -188.0 -661.0C-89.0 -837.0 62.0 -964.0 283.0 -1020.0C304.0 -982.0 347.0 -920.0 381.0 -889.0C174.0 -850.0 14.0 -749.0 -62.0 -622.0Z"/></g>
<g fill="green" transform="translate(300 100) scale(0.1 -0.1)"><path d="M0.0 -0.0V-337.0C-0.0 -503.0 -4.0 -729.0 -248.0 -863.0C-241.0 -869.0 -231.0 -878.0 -228.0 -886.0C19.0 -743.0 29.0 -511.0 29.0 -337.0V0.0ZM-154.0 -302.0 327.0 -295.0 175.0 -556.0 -306.0 -563.0ZM-198.0 -228.0V-498.0H220.0V-228.0ZM-148.0 -542.0 -174.0 -553.0C-91.0 -707.0 84.0 -829.0 259.0 -880.0C265.0 -873.0 273.0 -862.0 279.0 -857.0C103.0 -810.0 -70.0 -689.0 -148.0 -542.0Z"/></g>
<g fill="green" transform="translate(400 100) scale(0.1 -0.1)"><path d="M0.0 0.0V-431.0C0.0 -589.0 -16.0 -756.0 -224.0 -828.0C-196.0 -853.0 -155.0 -905.0 -137.0 -932.0C83.0 -829.0 129.0 -629.0 129.0 -432.0V0.0ZM6.0 -418.0 267.0 -387.0 117.0 -483.0 -145.0 -516.0ZM-152.0 -226.0V-545.0H285.0V-226.0ZM-53.0 -564.0 -166.0 -599.0C-79.0 -755.0 55.0 -872.0 249.0 -923.0C268.0 -889.0 308.0 -834.0 338.0 -806.0C156.0 -769.0 14.0 -676.0 -53.0 -564.0Z"/></g>
<g fill="green" transform="translate(500 100) scale(0.1 -0.1)"><path d="M0.0 -0.0V-399.0C0.0 -584.0 -5.0 -840.0 -256.0 -986.0C-249.0 -992.0 -238.0 -1003.0 -234.0 -1011.0C22.0 -855.0 32.0 -593.0 32.0 -400.0V0.0ZM-234.0 -175.0 -299.0 -204.0 260.0 -234.0 325.0 -205.0ZM-206.0 -310.0V-600.0H232.0V-310.0ZM-178.0 -641.0 -209.0 -655.0C-118.0 -803.0 82.0 -946.0 242.0 -1004.0C249.0 -995.0 259.0 -983.0 267.0 -977.0C104.0 -925.0 -94.0 -782.0 -178.0 -641.0Z"/></g>
<g fill="green" transform="translate(600 100) scale(0.1 -0.1)"><path d="M0.0 0.0V-489.0C0.0 -665.0 -17.0 -859.0 -213.0 -941.0C-179.0 -970.0 -127.0 -1029.0 -107.0 -1062.0C113.0 -942.0 154.0 -714.0 154.0 -489.0V0.0ZM-146.0 -159.0 -255.0 -284.0 311.0 -282.0 419.0 -158.0ZM-138.0 -312.0V-642.0H299.0V-312.0ZM-48.0 -661.0 -178.0 -692.0C-92.0 -850.0 30.0 -989.0 234.0 -1048.0C260.0 -1012.0 307.0 -949.0 344.0 -918.0C157.0 -876.0 11.0 -764.0 -48.0 -661.0Z"/></g>
<g fill="green" transform="translate(700 100) scale(0.1 -0.1)"><path d="M0.0 -0.0V-398.0C-0.0 -586.0 -9.0 -774.0 -428.0 -877.0C-422.0 -885.0 -414.0 -894.0 -410.0 -902.0C13.0 -793.0 30.0 -597.0 30.0 -398.0V0.0ZM-300.0 -370.0H311.0L329.0 -525.0L-282.0 -524.0ZM-328.0 -342.0V-558.0H357.0V-342.0ZM-239.0 -595.0 -262.0 -607.0C-141.0 -807.0 106.0 -871.0 460.0 -893.0C464.0 -884.0 470.0 -871.0 476.0 -865.0C123.0 -844.0 -119.0 -787.0 -239.0 -595.0Z"/></g>
<g fill="green" transform="translate(800 100) scale(0.1 -0.1)"><path d="M0.0 0.0V-457.0C0.0 -630.0 -38.0 -769.0 -383.0 -824.0C-353.0 -855.0 -313.0 -915.0 -297.0 -947.0C56.0 -864.0 143.0 -676.0 143.0 -459.0V0.0ZM-159.0 -475.0 289.0 -477.0 304.0 -502.0 -144.0 -501.0ZM-292.0 -358.0V-628.0H446.0V-358.0ZM-157.0 -608.0 -283.0 -660.0C-129.0 -885.0 127.0 -933.0 473.0 -945.0C483.0 -898.0 513.0 -835.0 541.0 -802.0C208.0 -804.0 -23.0 -780.0 -157.0 -608.0Z"/></g>
<g fill="green" transform="translate(900 100) scale(0.1 -0.1)"><path d="M0.0 0.0V-453.0C-0.0 -630.0 -6.0 -849.0 -282.0 -954.0C-274.0 -961.0 -265.0 -973.0 -262.0 -980.0C19.0 -865.0 32.0 -641.0 32.0 -454.0V0.0ZM-187.0 -249.0 380.0 -241.0 233.0 -571.0 -334.0 -579.0ZM-237.0 -169.0V-509.0H281.0V-169.0ZM-192.0 -549.0 -221.0 -558.0C-141.0 -790.0 38.0 -928.0 302.0 -983.0C307.0 -974.0 315.0 -962.0 322.0 -955.0C59.0 -906.0 -116.0 -771.0 -192.0 -549.0Z"/></g>
<g fill="green" transform="translate(1000 100) scale(0.1 -0.1)"><path d="M0.0 0.0V-506.0C0.0 -679.0 -22.0 -845.0 -251.0 -904.0C-221.0 -933.0 -177.0 -992.0 -159.0 -1024.0C87.0 -930.0 143.0 -726.0 143.0 -507.0V0.0ZM-19.0 -358.0 310.0 -323.0 158.0 -487.0 -171.0 -522.0ZM-200.0 -146.0V-556.0H350.0V-146.0ZM-68.0 -583.0 -197.0 -615.0C-108.0 -840.0 38.0 -968.0 294.0 -1023.0C312.0 -981.0 352.0 -919.0 385.0 -886.0C148.0 -852.0 4.0 -753.0 -68.0 -583.0Z"/></g>
<g fill="green" transform="translate(1100 100) scale(0.1 -0.1)"><path d="M0.0 0.0V-288.0C0.0 -489.0 -4.0 -773.0 -317.0 -971.0C-309.0 -978.0 -298.0 -988.0 -293.0 -995.0C21.0 -787.0 32.0 -496.0 32.0 -287.0V0.0ZM-182.0 -274.0 349.0 -269.0 198.0 -570.0 -334.0 -574.0ZM-229.0 -202.0V-532.0H246.0V-202.0ZM-150.0 -610.0 -178.0 -625.0C-71.0 -759.0 141.0 -917.0 276.0 -988.0C283.0 -981.0 292.0 -969.0 301.0 -963.0C160.0 -897.0 -47.0 -741.0 -150.0 -610.0Z"/></g>
<g fill="green" transform="translate(1200 100) scale(0.1 -0.1)"><path d="M0.0 0.0V-465.0C0.0 -646.0 -23.0 -834.0 -310.0 -923.0C-277.0 -953.0 -227.0 -1014.0 -207.0 -1047.0C89.0 -922.0 155.0 -692.0 155.0 -466.0V0.0ZM-15.0 -397.0 303.0 -372.0 163.0 -503.0 -156.0 -529.0ZM-173.0 -203.0V-591.0H333.0V-203.0ZM-57.0 -620.0 -187.0 -671.0C-71.0 -821.0 98.0 -973.0 294.0 -1045.0C320.0 -1008.0 370.0 -945.0 407.0 -913.0C218.0 -856.0 30.0 -728.0 -57.0 -620.0Z"/></g>
<g fill="red" transform="translate(100 200) scale(0.1 -0.1)"><path d="M0.0 0.0V-428.0C0.0 -601.0 -8.0 -790.0 -334.0 -881.0C-329.0 -888.0 -322.0 -899.0 -318.0 -906.0C14.0 -808.0 29.0 -611.0 29.0 -428.0V0.0ZM-303.0 -122.0V-152.0H342.0V-122.0ZM-266.0 -277.0V-537.0H303.0V-277.0ZM-235.0 -567.0 -262.0 -579.0C-159.0 -757.0 66.0 -865.0 326.0 -904.0C331.0 -894.0 339.0 -883.0 346.0 -876.0C84.0 -842.0 -137.0 -737.0 -235.0 -567.0Z"/></g>
<g fill="black" opacity=".8" transform="translate(100 200) scale(0.1 -0.1)"><path d="M0.0 0.0V-426.0C0.0 -599.0 -7.0 -788.0 -331.0 -879.0C-326.0 -885.0 -317.0 -896.0 -314.0 -903.0C14.0 -805.0 29.0 -610.0 29.0 -428.0V0.0ZM-300.0 -120.0 -294.0 -150.0 339.0 -137.0 333.0 -105.0ZM-262.0 -277.0V-533.0H301.0V-277.0ZM-222.0 -564.0 -249.0 -576.0C-152.0 -763.0 55.0 -865.0 326.0 -901.0C331.0 -892.0 338.0 -880.0 345.0 -874.0C72.0 -841.0 -131.0 -745.0 -222.0 -564.0Z"/></g>
<g fill="red" transform="translate(200 200) scale(0.1 -0.1)"><path d="M0.0 0.0V-463.0C0.0 -625.0 -30.0 -768.0 -283.0 -819.0C-252.0 -849.0 -209.0 -908.0 -192.0 -940.0C82.0 -858.0 144.0 -674.0 144.0 -464.0V0.0ZM-238.0 -83.0V-214.0H397.0V-83.0ZM-221.0 -269.0V-573.0H374.0V-269.0ZM-109.0 -578.0 -227.0 -613.0C-116.0 -804.0 58.0 -903.0 331.0 -939.0C349.0 -900.0 386.0 -841.0 416.0 -810.0C158.0 -789.0 -22.0 -715.0 -109.0 -578.0Z"/></g>
<g fill="black" opacity=".8" transform="translate(200 200) scale(0.1 -0.1)"><path d="M0.0 0.0V-463.0C0.0 -625.0 -30.0 -769.0 -281.0 -821.0C-250.0 -850.0 -206.0 -910.0 -189.0 -942.0C82.0 -859.0 147.0 -673.0 147.0 -464.0V0.0ZM-243.0 -79.0 -229.0 -216.0 405.0 -211.0 391.0 -75.0ZM-217.0 -274.0V-580.0H372.0V-274.0ZM-104.0 -581.0 -227.0 -614.0C-120.0 -820.0 55.0 -909.0 337.0 -940.0C354.0 -898.0 390.0 -840.0 420.0 -808.0C155.0 -792.0 -16.0 -729.0 -104.0 -581.0Z"/></g>
<g fill="red" transform="translate(300 200) scale(0.1 -0.1)"><path d="M0.0 0.0V-436.0C0.0 -622.0 -10.0 -796.0 -431.0 -881.0C-426.0 -889.0 -419.0 -900.0 -415.0 -907.0C12.0 -816.0 30.0 -634.0 30.0 -436.0V0.0ZM-307.0 -294.0H352.0V-489.0H-307.0ZM-337.0 -264.0V-518.0H382.0V-264.0ZM-248.0 -554.0 -271.0 -564.0C-159.0 -810.0 67.0 -879.0 465.0 -904.0C467.0 -895.0 473.0 -882.0 479.0 -875.0C84.0 -852.0 -137.0 -791.0 -248.0 -554.0Z"/></g>
<g fill="black" opacity=".8" transform="translate(300 200) scale(0.1 -0.1)"><path d="M0.0 0.0V-439.0C0.0 -625.0 -10.0 -799.0 -439.0 -883.0C-433.0 -891.0 -425.0 -901.0 -422.0 -908.0C11.0 -819.0 30.0 -638.0 30.0 -439.0V0.0ZM-308.0 -295.0 346.0 -294.0 352.0 -497.0 -303.0 -498.0ZM-340.0 -261.0V-519.0H382.0V-261.0ZM-254.0 -558.0 -278.0 -568.0C-162.0 -806.0 75.0 -881.0 464.0 -906.0C467.0 -897.0 473.0 -884.0 479.0 -877.0C91.0 -854.0 -140.0 -788.0 -254.0 -558.0Z"/></g>
<g fill="red" transform="translate(400 200) scale(0.1 -0.1)"><path d="M0.0 0.0V-480.0C0.0 -653.0 -41.0 -780.0 -396.0 -823.0C-366.0 -855.0 -326.0 -918.0 -310.0 -950.0C52.0 -879.0 147.0 -701.0 147.0 -483.0V0.0ZM-176.0 -388.0H326.0V-467.0H-176.0ZM-313.0 -264.0V-591.0H472.0V-264.0ZM-161.0 -577.0 -293.0 -626.0C-143.0 -893.0 115.0 -941.0 490.0 -954.0C498.0 -904.0 527.0 -840.0 554.0 -805.0C196.0 -808.0 -25.0 -787.0 -161.0 -577.0Z"/></g>
<g fill="black" opacity=".8" transform="translate(400 200) scale(0.1 -0.1)"><path d="M0.0 0.0V-478.0C0.0 -651.0 -42.0 -777.0 -396.0 -819.0C-366.0 -852.0 -326.0 -914.0 -311.0 -948.0C52.0 -877.0 146.0 -698.0 146.0 -480.0V0.0ZM-172.0 -390.0 321.0 -387.0V-468.0L-172.0 -471.0ZM-314.0 -261.0V-587.0H472.0V-261.0ZM-161.0 -575.0 -290.0 -625.0C-140.0 -883.0 117.0 -939.0 485.0 -954.0C494.0 -904.0 523.0 -841.0 551.0 -806.0C199.0 -807.0 -27.0 -778.0 -161.0 -575.0Z"/></g>
<g fill="red" transform="translate(500 200) scale(0.1 -0.1)"><path d="M0.0 0.0V-429.0C0.0 -589.0 -6.0 -787.0 -252.0 -877.0C-245.0 -884.0 -237.0 -895.0 -234.0 -902.0C18.0 -802.0 30.0 -599.0 30.0 -429.0V0.0ZM-179.0 -191.0H219.0V-442.0H-179.0ZM-209.0 -161.0V-471.0H248.0V-161.0ZM-169.0 -511.0 -196.0 -519.0C-129.0 -729.0 27.0 -853.0 260.0 -903.0C264.0 -895.0 272.0 -884.0 279.0 -877.0C47.0 -834.0 -106.0 -711.0 -169.0 -511.0Z"/></g>
<g fill="black" opacity=".8" transform="translate(500 200) scale(0.1 -0.1)"><path d="M0.0 0.0V-424.0C0.0 -584.0 -5.0 -785.0 -245.0 -879.0C-239.0 -884.0 -229.0 -896.0 -227.0 -903.0C17.0 -800.0 29.0 -594.0 29.0 -425.0V0.0ZM-178.0 -193.0H216.0L221.0 -448.0H-173.0ZM-209.0 -162.0V-473.0H250.0V-162.0ZM-176.0 -507.0 -204.0 -516.0C-132.0 -724.0 28.0 -855.0 260.0 -905.0C265.0 -897.0 272.0 -886.0 278.0 -880.0C48.0 -834.0 -110.0 -707.0 -176.0 -507.0Z"/></g>
<g fill="red" transform="translate(600 200) scale(0.1 -0.1)"><path d="M0.0 0.0V-462.0C0.0 -618.0 -18.0 -774.0 -211.0 -831.0C-182.0 -857.0 -140.0 -912.0 -122.0 -941.0C87.0 -851.0 134.0 -663.0 134.0 -463.0V0.0ZM-42.0 -263.0H175.0V-393.0H-42.0ZM-168.0 -142.0V-514.0H309.0V-142.0ZM-46.0 -543.0 -167.0 -567.0C-95.0 -772.0 21.0 -892.0 252.0 -942.0C270.0 -904.0 308.0 -846.0 338.0 -816.0C128.0 -785.0 10.0 -693.0 -46.0 -543.0Z"/></g>
<g fill="black" opacity=".8" transform="translate(600 200) scale(0.1 -0.1)"><path d="M0.0 0.0V-466.0C0.0 -624.0 -19.0 -778.0 -213.0 -832.0C-186.0 -858.0 -145.0 -913.0 -127.0 -942.0C85.0 -856.0 133.0 -667.0 133.0 -467.0V0.0ZM-41.0 -264.0 172.0 -262.0 173.0 -394.0 -40.0 -396.0ZM-172.0 -140.0V-513.0H310.0V-140.0ZM-56.0 -539.0 -174.0 -565.0C-99.0 -767.0 24.0 -889.0 251.0 -940.0C268.0 -902.0 306.0 -846.0 336.0 -816.0C127.0 -783.0 3.0 -689.0 -56.0 -539.0Z"/></g>
<g fill="red" transform="translate(700 200) scale(0.1 -0.1)"><path d="M0.0 0.0V-346.0C0.0 -516.0 -5.0 -743.0 -252.0 -877.0C-245.0 -883.0 -237.0 -894.0 -233.0 -900.0C18.0 -756.0 29.0 -524.0 29.0 -346.0V0.0ZM-180.0 -191.0H218.0V-442.0H-180.0ZM-209.0 -161.0V-471.0H247.0V-161.0ZM-170.0 -511.0 -196.0 -522.0C-111.0 -701.0 63.0 -842.0 257.0 -902.0C262.0 -894.0 270.0 -884.0 277.0 -877.0C83.0 -822.0 -89.0 -685.0 -170.0 -511.0Z"/></g>
<g fill="black" opacity=".8" transform="translate(700 200) scale(0.1 -0.1)"><path d="M0.0 0.0V-357.0C0.0 -527.0 -4.0 -749.0 -270.0 -877.0C-263.0 -883.0 -253.0 -893.0 -250.0 -900.0C17.0 -763.0 29.0 -535.0 29.0 -357.0V0.0ZM-182.0 -187.0H218.0L214.0 -439.0L-186.0 -438.0ZM-212.0 -157.0V-469.0H244.0V-157.0ZM-162.0 -520.0 -190.0 -531.0C-107.0 -705.0 67.0 -843.0 255.0 -900.0C261.0 -893.0 269.0 -882.0 276.0 -876.0C85.0 -824.0 -85.0 -689.0 -162.0 -520.0Z"/></g>
<g fill="red" transform="translate(800 200) scale(0.1 -0.1)"><path d="M0.0 0.0V-457.0C0.0 -618.0 -22.0 -775.0 -254.0 -835.0C-225.0 -862.0 -184.0 -916.0 -167.0 -946.0C79.0 -853.0 134.0 -662.0 134.0 -458.0V0.0ZM-49.0 -263.0H183.0V-393.0H-49.0ZM-175.0 -142.0V-514.0H317.0V-142.0ZM-72.0 -537.0 -188.0 -575.0C-94.0 -754.0 55.0 -880.0 265.0 -939.0C284.0 -903.0 324.0 -847.0 354.0 -818.0C156.0 -775.0 3.0 -673.0 -72.0 -537.0Z"/></g>
<g fill="black" opacity=".8" transform="translate(800 200) scale(0.1 -0.1)"><path d="M0.0 0.0V-448.0C0.0 -608.0 -21.0 -765.0 -249.0 -828.0C-220.0 -855.0 -177.0 -912.0 -159.0 -941.0C82.0 -846.0 138.0 -651.0 138.0 -449.0V0.0ZM-48.0 -262.0 185.0 -263.0 183.0 -392.0H-50.0ZM-171.0 -142.0V-514.0H313.0V-142.0ZM-57.0 -541.0 -175.0 -576.0C-87.0 -754.0 52.0 -884.0 262.0 -941.0C282.0 -905.0 323.0 -849.0 355.0 -819.0C158.0 -777.0 12.0 -673.0 -57.0 -541.0Z"/></g>
<g fill="red" transform="translate(900 200) scale(0.1 -0.1)"><path d="M0.0 0.0V-338.0C0.0 -516.0 -6.0 -740.0 -316.0 -877.0C-309.0 -884.0 -301.0 -893.0 -296.0 -900.0C17.0 -755.0 29.0 -525.0 29.0 -338.0V0.0ZM-213.0 -291.0H244.0V-492.0H-213.0ZM-242.0 -261.0V-521.0H273.0V-261.0ZM-176.0 -571.0 -201.0 -583.0C-98.0 -737.0 114.0 -847.0 327.0 -893.0C332.0 -885.0 340.0 -874.0 347.0 -868.0C132.0 -826.0 -77.0 -718.0 -176.0 -571.0Z"/></g>
<g fill="black" opacity=".8" transform="translate(900 200) scale(0.1 -0.1)"><path d="M0.0 0.0V-333.0C0.0 -512.0 -6.0 -736.0 -323.0 -875.0C-316.0 -882.0 -307.0 -891.0 -303.0 -899.0C17.0 -752.0 29.0 -521.0 29.0 -333.0V0.0ZM-216.0 -291.0H242.0L237.0 -488.0L-221.0 -487.0ZM-245.0 -261.0V-519.0H267.0V-261.0ZM-177.0 -569.0 -202.0 -582.0C-100.0 -736.0 107.0 -846.0 321.0 -891.0C327.0 -884.0 334.0 -872.0 341.0 -867.0C125.0 -824.0 -79.0 -718.0 -177.0 -569.0Z"/></g>
<g fill="red" transform="translate(1000 200) scale(0.1 -0.1)"><path d="M0.0 0.0V-437.0C0.0 -601.0 -24.0 -761.0 -295.0 -831.0C-266.0 -858.0 -225.0 -912.0 -208.0 -941.0C73.0 -842.0 134.0 -644.0 134.0 -438.0V0.0ZM-75.0 -386.0H211.0V-453.0H-75.0ZM-201.0 -265.0V-574.0H345.0V-265.0ZM-84.0 -583.0 -198.0 -631.0C-78.0 -784.0 109.0 -889.0 331.0 -937.0C350.0 -901.0 389.0 -844.0 419.0 -815.0C203.0 -781.0 12.0 -697.0 -84.0 -583.0Z"/></g>
<g fill="black" opacity=".8" transform="translate(1000 200) scale(0.1 -0.1)"><path d="M0.0 0.0V-437.0C0.0 -602.0 -25.0 -761.0 -296.0 -831.0C-266.0 -858.0 -223.0 -915.0 -206.0 -945.0C75.0 -844.0 139.0 -645.0 139.0 -438.0V0.0ZM-76.0 -385.0 214.0 -387.0V-452.0H-77.0ZM-199.0 -267.0V-576.0H345.0V-267.0ZM-88.0 -583.0 -207.0 -627.0C-92.0 -797.0 89.0 -898.0 329.0 -940.0C347.0 -902.0 386.0 -844.0 416.0 -813.0C187.0 -785.0 5.0 -707.0 -88.0 -583.0Z"/></g>
<g fill="red" transform="translate(1100 200) scale(0.1 -0.1)"><path d="M0.0 0.0V-346.0C0.0 -529.0 -7.0 -745.0 -361.0 -877.0C-354.0 -884.0 -346.0 -895.0 -342.0 -901.0C15.0 -761.0 29.0 -538.0 29.0 -345.0V0.0ZM-234.0 -189.0H263.0V-440.0H-234.0ZM-264.0 -160.0V-469.0H293.0V-160.0ZM-189.0 -536.0 -215.0 -548.0C-112.0 -720.0 100.0 -846.0 322.0 -899.0C326.0 -891.0 334.0 -880.0 342.0 -873.0C117.0 -826.0 -90.0 -702.0 -189.0 -536.0Z"/></g>
<g fill="black" opacity=".8" transform="translate(1100 200) scale(0.1 -0.1)"><path d="M0.0 0.0V-339.0C0.0 -522.0 -6.0 -741.0 -350.0 -877.0C-344.0 -883.0 -334.0 -894.0 -331.0 -900.0C15.0 -757.0 29.0 -531.0 29.0 -339.0V0.0ZM-231.0 -190.0H266.0L263.0 -435.0L-235.0 -433.0ZM-261.0 -161.0V-468.0H294.0V-161.0ZM-186.0 -531.0 -212.0 -543.0C-110.0 -720.0 93.0 -847.0 322.0 -899.0C327.0 -892.0 334.0 -880.0 342.0 -874.0C109.0 -825.0 -89.0 -704.0 -186.0 -531.0Z"/></g>
<g fill="red" transform="translate(1200 200) scale(0.1 -0.1)"><path d="M0.0 0.0V-443.0C0.0 -608.0 -31.0 -754.0 -331.0 -815.0C-300.0 -845.0 -257.0 -905.0 -239.0 -937.0C70.0 -845.0 146.0 -655.0 146.0 -445.0V0.0ZM-98.0 -271.0H242.0V-401.0H-98.0ZM-224.0 -150.0V-522.0H376.0V-150.0ZM-87.0 -544.0 -209.0 -589.0C-90.0 -776.0 93.0 -896.0 345.0 -948.0C365.0 -909.0 406.0 -849.0 437.0 -817.0C196.0 -780.0 7.0 -684.0 -87.0 -544.0Z"/></g>
<g fill="black" opacity=".8" transform="translate(1200 200) scale(0.1 -0.1)"><path d="M0.0 0.0V-448.0C0.0 -614.0 -31.0 -759.0 -332.0 -818.0C-302.0 -848.0 -259.0 -908.0 -242.0 -940.0C68.0 -850.0 146.0 -659.0 146.0 -450.0V0.0ZM-101.0 -270.0 245.0 -272.0 246.0 -399.0 -101.0 -398.0ZM-224.0 -152.0V-525.0H377.0V-152.0ZM-93.0 -542.0 -216.0 -589.0C-97.0 -783.0 94.0 -897.0 349.0 -947.0C367.0 -906.0 408.0 -848.0 439.0 -815.0C194.0 -781.0 6.0 -691.0 -93.0 -542.0Z"/></g>
<g fill="red" transform="translate(1300 200) scale(0.1 -0.1)"><path d="M0.0 0.0V-338.0C0.0 -518.0 -6.0 -740.0 -334.0 -877.0C-328.0 -884.0 -319.0 -894.0 -315.0 -901.0C17.0 -756.0 30.0 -527.0 30.0 -337.0V0.0ZM-223.0 -291.0H234.0V-492.0H-223.0ZM-252.0 -261.0V-521.0H263.0V-261.0ZM-186.0 -571.0 -211.0 -583.0C-108.0 -737.0 104.0 -847.0 317.0 -893.0C322.0 -885.0 330.0 -874.0 337.0 -868.0C122.0 -826.0 -87.0 -718.0 -186.0 -571.0Z"/></g>
<g fill="black" opacity=".8" transform="translate(1300 200) scale(0.1 -0.1)"><path d="M0.0 0.0V-340.0C0.0 -519.0 -6.0 -742.0 -322.0 -878.0C-315.0 -885.0 -306.0 -894.0 -302.0 -901.0C17.0 -757.0 29.0 -528.0 29.0 -340.0V0.0ZM-217.0 -290.0 241.0 -291.0 239.0 -488.0 -219.0 -487.0ZM-246.0 -261.0V-520.0H269.0V-261.0ZM-179.0 -569.0 -204.0 -581.0C-103.0 -740.0 103.0 -849.0 322.0 -894.0C328.0 -887.0 335.0 -875.0 342.0 -869.0C121.0 -828.0 -82.0 -722.0 -179.0 -569.0Z"/></g>
<g fill="red" transform="translate(1400 200) scale(0.1 -0.1)"><path d="M0.0 0.0V-437.0C0.0 -603.0 -26.0 -762.0 -295.0 -831.0C-264.0 -860.0 -220.0 -918.0 -202.0 -949.0C78.0 -847.0 143.0 -648.0 143.0 -439.0V0.0ZM-74.0 -386.0H212.0V-453.0H-74.0ZM-200.0 -265.0V-574.0H346.0V-265.0ZM-92.0 -583.0 -215.0 -623.0C-103.0 -804.0 67.0 -906.0 322.0 -946.0C341.0 -907.0 380.0 -846.0 411.0 -815.0C171.0 -789.0 -5.0 -713.0 -92.0 -583.0Z"/></g>
<g fill="black" opacity=".8" transform="translate(1400 200) scale(0.1 -0.1)"><path d="M0.0 0.0V-440.0C0.0 -605.0 -25.0 -764.0 -294.0 -833.0C-264.0 -861.0 -222.0 -917.0 -204.0 -947.0C75.0 -848.0 139.0 -648.0 139.0 -441.0V0.0ZM-77.0 -384.0 213.0 -386.0 214.0 -452.0 -76.0 -451.0ZM-200.0 -266.0V-576.0H346.0V-266.0ZM-88.0 -583.0 -208.0 -627.0C-93.0 -800.0 87.0 -901.0 329.0 -942.0C347.0 -904.0 386.0 -846.0 416.0 -815.0C185.0 -787.0 4.0 -710.0 -88.0 -583.0Z"/></g>
<g fill="red" transform="translate(1500 200) scale(0.1 -0.1)"><path d="M0.0 0.0V-338.0C0.0 -514.0 -6.0 -739.0 -294.0 -877.0C-289.0 -883.0 -280.0 -893.0 -275.0 -900.0C17.0 -754.0 29.0 -522.0 29.0 -338.0V0.0ZM-253.0 -121.0V-151.0H277.0V-121.0ZM-222.0 -261.0V-521.0H249.0V-261.0ZM-165.0 -571.0 -191.0 -583.0C-102.0 -731.0 80.0 -844.0 266.0 -893.0C271.0 -885.0 279.0 -874.0 286.0 -868.0C98.0 -824.0 -81.0 -714.0 -165.0 -571.0Z"/></g>
<g fill="black" opacity=".8" transform="translate(1500 200) scale(0.1 -0.1)"><path d="M0.0 0.0V-339.0C0.0 -516.0 -5.0 -742.0 -299.0 -880.0C-294.0 -885.0 -283.0 -895.0 -280.0 -903.0C17.0 -757.0 28.0 -524.0 28.0 -340.0V0.0ZM-255.0 -124.0 -264.0 -152.0 280.0 -168.0 287.0 -139.0ZM-225.0 -259.0V-524.0H251.0V-259.0ZM-179.0 -574.0 -207.0 -588.0C-109.0 -723.0 93.0 -847.0 265.0 -897.0C271.0 -889.0 279.0 -877.0 287.0 -872.0C110.0 -826.0 -88.0 -705.0 -179.0 -574.0Z"/></g>
<g fill="red" transform="translate(1600 200) scale(0.1 -0.1)"><path d="M0.0 0.0V-438.0C0.0 -599.0 -23.0 -761.0 -263.0 -831.0C-231.0 -859.0 -183.0 -917.0 -164.0 -948.0C90.0 -845.0 149.0 -645.0 149.0 -439.0V0.0ZM-195.0 -99.0V-226.0H355.0V-99.0ZM-165.0 -269.0V-578.0H323.0V-269.0ZM-65.0 -587.0 -193.0 -623.0C-94.0 -795.0 57.0 -899.0 289.0 -943.0C309.0 -905.0 351.0 -845.0 383.0 -815.0C167.0 -786.0 12.0 -708.0 -65.0 -587.0Z"/></g>
<g fill="black" opacity=".8" transform="translate(1600 200) scale(0.1 -0.1)"><path d="M0.0 0.0V-438.0C0.0 -599.0 -24.0 -759.0 -265.0 -827.0C-234.0 -856.0 -187.0 -914.0 -169.0 -945.0C89.0 -844.0 147.0 -645.0 147.0 -438.0V0.0ZM-189.0 -101.0 -205.0 -224.0 346.0 -229.0 362.0 -108.0ZM-170.0 -262.0V-571.0H323.0V-262.0ZM-72.0 -583.0 -193.0 -620.0C-91.0 -776.0 63.0 -893.0 281.0 -941.0C303.0 -905.0 345.0 -848.0 377.0 -818.0C171.0 -783.0 5.0 -690.0 -72.0 -583.0Z"/></g>
</svg>
