<?xml version="1.0" encoding="UTF-8"?>
<svg width="1700" height="300" xmlns="http://www.w3.org/2000/svg">
<rect width="100%" height="100%" fill="white"/>
<g fill="green" transform="translate(100 100) scale(0.1 -0.1)"><path d="M0.0 0.0V-34.0H166.0V0.0ZM318.0 -88.0 304.0 -121.0H506.0V-88.0ZM16.0 -240.0V-274.0H183.0V-240.0ZM16.0 -362.0V-395.0H183.0V-362.0ZM-48.0 -119.0V-153.0H246.0V-119.0ZM-3.0 -132.0V-519.0L30.0 -514.0V-132.0ZM167.0 -132.0V-632.0H200.0V-132.0ZM-69.0 -509.0 -62.0 -545.0C26.0 -534.0 140.0 -518.0 253.0 -504.0L252.0 -470.0C132.0 -486.0 13.0 -502.0 -69.0 -509.0ZM321.0 55.0C305.0 -82.0 279.0 -215.0 230.0 -304.0C238.0 -309.0 250.0 -322.0 256.0 -328.0C305.0 -232.0 337.0 -95.0 354.0 50.0ZM432.0 -100.0C412.0 -325.0 364.0 -499.0 246.0 -611.0C254.0 -616.0 269.0 -626.0 275.0 -633.0C394.0 -512.0 444.0 -339.0 466.0 -102.0ZM313.0 -146.0 289.0 -180.0C303.0 -303.0 350.0 -515.0 479.0 -632.0C485.0 -624.0 497.0 -610.0 504.0 -603.0C372.0 -495.0 329.0 -280.0 313.0 -146.0ZM-76.0 102.0V68.0H505.0V102.0ZM-86.0 102.0V-148.0C-86.0 -279.0 -91.0 -467.0 -143.0 -610.0C-134.0 -614.0 -122.0 -625.0 -117.0 -632.0C-62.0 -483.0 -53.0 -284.0 -53.0 -148.0V102.0ZM-41.0 335.0H138.0V200.0H-41.0ZM-74.0 368.0V167.0H171.0V368.0ZM262.0 335.0H443.0V200.0H262.0ZM229.0 368.0V167.0H477.0V368.0ZM157.0 0.0V-7.0C150.0 -42.0 138.0 -97.0 124.0 -138.0L152.0 -142.0C165.0 -101.0 178.0 -53.0 188.0 -3.0L168.0 2.0L161.0 0.0Z"/></g>
<g fill="green" transform="translate(200 100) scale(0.1 -0.1)"><path d="M0.0 0.0V-96.0H135.0V0.0ZM325.0 -76.0 285.0 -179.0H484.0V-76.0ZM38.0 -251.0V-331.0H206.0V-251.0ZM38.0 -366.0V-446.0H206.0V-366.0ZM-35.0 -125.0V-217.0H237.0V-125.0ZM-11.0 -156.0V-538.0L90.0 -513.0V-156.0ZM119.0 -164.0V-655.0H220.0V-164.0ZM-49.0 -494.0 -29.0 -601.0C57.0 -584.0 158.0 -562.0 258.0 -539.0L252.0 -448.0C139.0 -467.0 30.0 -484.0 -49.0 -494.0ZM280.0 28.0C269.0 -86.0 251.0 -199.0 214.0 -274.0C226.0 -302.0 244.0 -364.0 247.0 -389.0C311.0 -290.0 347.0 -136.0 367.0 8.0ZM366.0 -115.0C364.0 -332.0 336.0 -493.0 218.0 -585.0C237.0 -602.0 271.0 -642.0 283.0 -661.0C419.0 -547.0 455.0 -369.0 463.0 -116.0ZM331.0 -178.0 260.0 -238.0C273.0 -354.0 315.0 -560.0 426.0 -661.0C440.0 -632.0 475.0 -589.0 496.0 -568.0C382.0 -484.0 344.0 -301.0 331.0 -178.0ZM-78.0 142.0V23.0H483.0V142.0ZM-144.0 142.0V-151.0C-144.0 -282.0 -147.0 -464.0 -195.0 -591.0C-166.0 -603.0 -111.0 -638.0 -88.0 -658.0C-32.0 -518.0 -22.0 -300.0 -22.0 -152.0V142.0ZM-9.0 313.0H35.0V272.0H-9.0ZM-123.0 413.0V171.0H157.0V413.0ZM299.0 313.0H349.0V272.0H299.0ZM186.0 413.0V171.0H468.0V413.0ZM120.0 0.0V-13.0C109.0 -47.0 89.0 -100.0 70.0 -145.0L174.0 -173.0C191.0 -127.0 206.0 -77.0 222.0 -15.0L150.0 5.0L133.0 0.0Z"/></g>
<g fill="green" transform="translate(300 100) scale(0.1 -0.1)"><path d="M0.0 0.0V-29.0H134.0V0.0ZM265.0 -76.0 253.0 -104.0H419.0V-76.0ZM11.0 -206.0V-236.0H150.0V-206.0ZM11.0 -312.0V-340.0H150.0V-312.0ZM-40.0 -102.0V-131.0H202.0V-102.0ZM-5.0 -113.0V-447.0L23.0 -443.0V-113.0ZM137.0 -113.0V-545.0H165.0V-113.0ZM-60.0 -439.0 -54.0 -469.0C20.0 -460.0 115.0 -446.0 209.0 -434.0L208.0 -405.0C108.0 -419.0 8.0 -433.0 -60.0 -439.0ZM266.0 48.0C253.0 -70.0 232.0 -185.0 191.0 -261.0C198.0 -265.0 208.0 -277.0 213.0 -282.0C255.0 -199.0 281.0 -81.0 295.0 44.0ZM356.0 -86.0C341.0 -279.0 304.0 -429.0 207.0 -527.0C214.0 -531.0 227.0 -539.0 232.0 -546.0C330.0 -440.0 368.0 -290.0 385.0 -88.0ZM261.0 -126.0 241.0 -156.0C250.0 -258.0 286.0 -442.0 394.0 -544.0C399.0 -538.0 409.0 -526.0 415.0 -520.0C305.0 -425.0 273.0 -238.0 261.0 -126.0ZM-65.0 88.0V59.0H418.0V88.0ZM-73.0 88.0V-128.0C-73.0 -240.0 -77.0 -403.0 -119.0 -526.0C-111.0 -529.0 -101.0 -539.0 -97.0 -545.0C-52.0 -416.0 -45.0 -245.0 -45.0 -128.0V88.0ZM-36.0 290.0H113.0V172.0H-36.0ZM-64.0 318.0V143.0H141.0V318.0ZM217.0 290.0H367.0V172.0H217.0ZM188.0 318.0V143.0H396.0V318.0ZM127.0 0.0V-6.0C121.0 -36.0 112.0 -84.0 100.0 -119.0L124.0 -122.0C134.0 -87.0 145.0 -45.0 153.0 -2.0L136.0 2.0L130.0 0.0Z"/></g>
<g fill="green" transform="translate(400 100) scale(0.1 -0.1)"><path d="M0.0 0.0V-83.0H106.0V0.0ZM270.0 -66.0 236.0 -153.0H399.0V-66.0ZM32.0 -216.0V-285.0H173.0V-216.0ZM32.0 -315.0V-384.0H173.0V-315.0ZM-30.0 -108.0V-187.0H194.0V-108.0ZM-10.0 -134.0V-464.0L75.0 -442.0V-134.0ZM97.0 -142.0V-564.0H182.0V-142.0ZM-41.0 -426.0 -24.0 -518.0C48.0 -502.0 132.0 -482.0 214.0 -462.0L209.0 -384.0C115.0 -401.0 25.0 -417.0 -41.0 -426.0ZM231.0 24.0C222.0 -74.0 207.0 -171.0 177.0 -235.0C186.0 -259.0 199.0 -313.0 201.0 -335.0C255.0 -249.0 285.0 -116.0 302.0 7.0ZM300.0 -98.0C300.0 -286.0 279.0 -426.0 181.0 -506.0C196.0 -520.0 225.0 -554.0 235.0 -570.0C349.0 -470.0 376.0 -316.0 381.0 -98.0ZM274.0 -152.0 215.0 -205.0C224.0 -302.0 258.0 -482.0 350.0 -570.0C362.0 -545.0 392.0 -509.0 409.0 -492.0C314.0 -418.0 284.0 -257.0 274.0 -152.0ZM-67.0 122.0V19.0H398.0V122.0ZM-122.0 122.0V-136.0C-122.0 -248.0 -124.0 -404.0 -163.0 -512.0C-138.0 -522.0 -91.0 -551.0 -71.0 -567.0C-27.0 -448.0 -19.0 -263.0 -19.0 -137.0V122.0ZM-8.0 271.0H26.0V235.0H-8.0ZM-105.0 358.0V147.0H129.0V358.0ZM248.0 271.0H289.0V235.0H248.0ZM153.0 358.0V147.0H389.0V358.0ZM96.0 0.0V-11.0C87.0 -40.0 71.0 -86.0 56.0 -125.0L144.0 -148.0C158.0 -109.0 169.0 -66.0 182.0 -12.0L121.0 4.0L107.0 0.0Z"/></g>
<g fill="green" transform="translate(500 100) scale(0.1 -0.1)"><path d="M0.0 0.0V-29.0H236.0V0.0ZM406.0 -94.0 394.0 -123.0H698.0V-94.0ZM-1.0 -192.0V-221.0H235.0V-192.0ZM-1.0 -284.0V-312.0H235.0V-284.0ZM-57.0 -99.0V-128.0H324.0V-99.0ZM-12.0 -110.0V-404.0L16.0 -402.0V-110.0ZM225.0 -111.0V-477.0H253.0V-111.0ZM-103.0 -389.0 -99.0 -420.0C13.0 -417.0 176.0 -407.0 331.0 -402.0L332.0 -374.0C170.0 -382.0 3.0 -387.0 -103.0 -389.0ZM431.0 32.0C402.0 -70.0 355.0 -169.0 294.0 -235.0C303.0 -238.0 315.0 -248.0 321.0 -252.0C377.0 -183.0 428.0 -81.0 459.0 26.0ZM611.0 -102.0C575.0 -291.0 467.0 -397.0 292.0 -457.0C298.0 -462.0 310.0 -471.0 315.0 -479.0C487.0 -411.0 602.0 -304.0 640.0 -106.0ZM405.0 -116.0 382.0 -128.0C427.0 -283.0 530.0 -418.0 686.0 -479.0C690.0 -472.0 698.0 -462.0 705.0 -456.0C549.0 -401.0 449.0 -267.0 405.0 -116.0ZM-115.0 74.0V46.0H696.0V74.0ZM-126.0 74.0V-140.0C-126.0 -236.0 -137.0 -364.0 -215.0 -457.0C-206.0 -460.0 -197.0 -469.0 -192.0 -476.0C-112.0 -378.0 -98.0 -241.0 -98.0 -140.0V74.0ZM-77.0 223.0H204.0V150.0H-77.0ZM-106.0 252.0V122.0H232.0V252.0ZM327.0 223.0H613.0V150.0H327.0ZM300.0 252.0V122.0H641.0V252.0ZM221.0 0.0V-6.0C210.0 -32.0 194.0 -74.0 175.0 -106.0L201.0 -113.0C219.0 -80.0 236.0 -44.0 252.0 -5.0L232.0 3.0L226.0 0.0Z"/></g>
<g fill="green" transform="translate(600 100) scale(0.1 -0.1)"><path d="M0.0 0.0V-72.0H210.0V0.0ZM423.0 -48.0 382.0 -147.0H702.0V-48.0ZM51.0 -194.0V-253.0H265.0V-194.0ZM51.0 -281.0V-340.0H265.0V-281.0ZM-49.0 -96.0V-169.0H343.0V-96.0ZM-5.0 -124.0V-401.0L113.0 -391.0V-124.0ZM185.0 -119.0V-487.0H303.0V-119.0ZM-65.0 -377.0 -52.0 -470.0C58.0 -459.0 210.0 -443.0 352.0 -427.0L350.0 -340.0C197.0 -356.0 40.0 -370.0 -65.0 -377.0ZM409.0 30.0C391.0 -49.0 354.0 -124.0 305.0 -172.0C325.0 -194.0 362.0 -241.0 376.0 -263.0C439.0 -200.0 489.0 -97.0 516.0 6.0ZM553.0 -75.0C534.0 -245.0 454.0 -347.0 297.0 -399.0C318.0 -420.0 357.0 -467.0 369.0 -490.0C544.0 -417.0 636.0 -295.0 670.0 -83.0ZM470.0 -112.0 374.0 -140.0C418.0 -295.0 498.0 -430.0 651.0 -493.0C667.0 -460.0 704.0 -411.0 730.0 -386.0C586.0 -343.0 506.0 -234.0 470.0 -112.0ZM-92.0 113.0V22.0H702.0V113.0ZM-167.0 113.0V-119.0C-167.0 -210.0 -173.0 -326.0 -237.0 -405.0C-211.0 -422.0 -159.0 -468.0 -141.0 -493.0C-59.0 -397.0 -43.0 -236.0 -43.0 -121.0V113.0ZM-19.0 219.0H98.0V192.0H-19.0ZM-142.0 276.0V134.0H231.0V276.0ZM407.0 219.0H521.0V192.0H407.0ZM282.0 276.0V134.0H651.0V276.0ZM184.0 0.0V-10.0C167.0 -37.0 137.0 -79.0 110.0 -114.0L211.0 -142.0C241.0 -105.0 269.0 -65.0 295.0 -17.0L217.0 4.0L199.0 0.0Z"/></g>
<g fill="green" transform="translate(700 100) scale(0.1 -0.1)"><path d="M0.0 0.0V-33.0H175.0V0.0ZM316.0 -88.0 303.0 -119.0H503.0V-88.0ZM28.0 -241.0V-273.0H202.0V-241.0ZM28.0 -364.0V-395.0H202.0V-364.0ZM-37.0 -120.0V-152.0H259.0V-120.0ZM12.0 -131.0V-526.0L43.0 -520.0V-131.0ZM184.0 -132.0V-630.0H216.0V-132.0ZM-49.0 -514.0 -40.0 -550.0C48.0 -536.0 159.0 -517.0 269.0 -502.0L267.0 -470.0C151.0 -488.0 33.0 -507.0 -49.0 -514.0ZM320.0 61.0C308.0 -78.0 287.0 -217.0 245.0 -309.0C251.0 -314.0 263.0 -326.0 268.0 -332.0C312.0 -233.0 339.0 -91.0 352.0 56.0ZM429.0 -101.0C409.0 -320.0 366.0 -494.0 255.0 -607.0C264.0 -612.0 278.0 -622.0 284.0 -629.0C395.0 -506.0 439.0 -333.0 463.0 -103.0ZM314.0 -137.0 291.0 -176.0C300.0 -288.0 341.0 -508.0 476.0 -630.0C483.0 -622.0 494.0 -608.0 501.0 -601.0C361.0 -488.0 326.0 -264.0 314.0 -137.0ZM-54.0 96.0V63.0H512.0V96.0ZM-63.0 96.0V-147.0C-63.0 -278.0 -72.0 -462.0 -147.0 -601.0C-139.0 -605.0 -128.0 -616.0 -123.0 -622.0C-44.0 -478.0 -32.0 -283.0 -32.0 -147.0V96.0ZM-9.0 345.0H159.0V199.0H-9.0ZM-42.0 376.0V167.0H191.0V376.0ZM277.0 345.0H446.0V199.0H277.0ZM245.0 376.0V167.0H479.0V376.0ZM164.0 0.0V-7.0C158.0 -42.0 149.0 -96.0 137.0 -137.0L164.0 -139.0C175.0 -99.0 185.0 -51.0 192.0 -2.0L174.0 2.0L168.0 0.0Z"/></g>
<g fill="green" transform="translate(800 100) scale(0.1 -0.1)"><path d="M0.0 0.0V-97.0H150.0V0.0ZM314.0 -75.0 274.0 -175.0H471.0V-75.0ZM41.0 -253.0V-333.0H212.0V-253.0ZM41.0 -370.0V-450.0H212.0V-370.0ZM-25.0 -127.0V-218.0H236.0V-127.0ZM-8.0 -147.0V-531.0L95.0 -503.0V-147.0ZM120.0 -161.0V-657.0H223.0V-161.0ZM-45.0 -499.0 -22.0 -606.0C63.0 -590.0 164.0 -570.0 261.0 -548.0L255.0 -452.0C143.0 -471.0 35.0 -489.0 -45.0 -499.0ZM282.0 29.0C272.0 -71.0 256.0 -170.0 221.0 -236.0C232.0 -269.0 245.0 -341.0 245.0 -368.0C313.0 -276.0 350.0 -129.0 373.0 7.0ZM359.0 -106.0C361.0 -328.0 342.0 -492.0 223.0 -585.0C242.0 -601.0 276.0 -641.0 287.0 -659.0C427.0 -544.0 454.0 -364.0 456.0 -104.0ZM331.0 -173.0 261.0 -239.0C266.0 -345.0 297.0 -562.0 411.0 -664.0C424.0 -635.0 460.0 -591.0 481.0 -570.0C361.0 -485.0 337.0 -293.0 331.0 -173.0ZM-76.0 140.0V22.0H472.0V140.0ZM-135.0 140.0V-143.0C-135.0 -276.0 -140.0 -463.0 -202.0 -591.0C-170.0 -603.0 -113.0 -635.0 -89.0 -655.0C-21.0 -514.0 -9.0 -293.0 -9.0 -143.0V140.0ZM19.0 317.0H39.0V275.0H19.0ZM-98.0 423.0V169.0H163.0V423.0ZM304.0 317.0H333.0V275.0H304.0ZM189.0 423.0V169.0H453.0V423.0ZM133.0 0.0V-14.0C126.0 -47.0 109.0 -98.0 94.0 -143.0L204.0 -171.0C216.0 -126.0 226.0 -77.0 238.0 -15.0L164.0 6.0L147.0 0.0Z"/></g>
<g fill="green" transform="translate(900 100) scale(0.1 -0.1)"><path d="M0.0 0.0V-35.0H183.0V0.0ZM315.0 -75.0 301.0 -110.0H506.0V-75.0ZM36.0 -237.0V-273.0H189.0V-237.0ZM36.0 -358.0V-393.0H189.0V-358.0ZM-53.0 -117.0V-152.0H257.0V-117.0ZM13.0 -132.0V-508.0L48.0 -504.0V-132.0ZM173.0 -131.0V-631.0H207.0V-131.0ZM-49.0 -502.0 -42.0 -538.0C40.0 -525.0 145.0 -511.0 253.0 -494.0L251.0 -460.0C137.0 -477.0 28.0 -493.0 -49.0 -502.0ZM319.0 50.0C303.0 -86.0 274.0 -216.0 225.0 -304.0C233.0 -310.0 247.0 -322.0 253.0 -328.0C303.0 -234.0 335.0 -98.0 354.0 44.0ZM437.0 -85.0C413.0 -317.0 355.0 -497.0 229.0 -611.0C238.0 -617.0 252.0 -627.0 259.0 -634.0C385.0 -511.0 446.0 -333.0 471.0 -88.0ZM307.0 -147.0 282.0 -177.0C303.0 -314.0 361.0 -521.0 493.0 -632.0C499.0 -624.0 511.0 -610.0 518.0 -603.0C386.0 -501.0 329.0 -293.0 307.0 -147.0ZM-65.0 108.0V73.0H496.0V108.0ZM-78.0 108.0V-131.0C-78.0 -267.0 -82.0 -463.0 -125.0 -613.0C-117.0 -617.0 -103.0 -628.0 -97.0 -636.0C-51.0 -479.0 -44.0 -272.0 -44.0 -131.0V108.0ZM-31.0 331.0H130.0V208.0H-31.0ZM-65.0 365.0V173.0H165.0V365.0ZM271.0 331.0H435.0V208.0H271.0ZM236.0 365.0V173.0H470.0V365.0ZM176.0 0.0V-7.0C168.0 -42.0 152.0 -97.0 136.0 -139.0L166.0 -144.0C181.0 -102.0 196.0 -54.0 209.0 -4.0L187.0 2.0L180.0 0.0Z"/></g>
<g fill="green" transform="translate(1000 100) scale(0.1 -0.1)"><path d="M0.0 0.0V-90.0H162.0V0.0ZM336.0 -78.0 295.0 -184.0H485.0V-78.0ZM33.0 -248.0V-327.0H184.0V-248.0ZM33.0 -361.0V-440.0H184.0V-361.0ZM-34.0 -123.0V-216.0H247.0V-123.0ZM-9.0 -165.0V-543.0L91.0 -521.0V-165.0ZM120.0 -166.0V-657.0H220.0V-166.0ZM-47.0 -486.0 -32.0 -591.0C54.0 -579.0 150.0 -564.0 252.0 -547.0L249.0 -461.0C138.0 -472.0 31.0 -481.0 -47.0 -486.0ZM277.0 25.0C267.0 -106.0 248.0 -237.0 207.0 -323.0C224.0 -345.0 254.0 -397.0 263.0 -421.0C323.0 -315.0 356.0 -151.0 373.0 6.0ZM370.0 -134.0C363.0 -339.0 327.0 -496.0 214.0 -586.0C234.0 -604.0 268.0 -645.0 281.0 -665.0C412.0 -554.0 457.0 -380.0 471.0 -139.0ZM323.0 -202.0 253.0 -256.0C272.0 -375.0 320.0 -562.0 424.0 -658.0C438.0 -630.0 472.0 -588.0 493.0 -567.0C388.0 -488.0 342.0 -322.0 323.0 -202.0ZM-67.0 145.0V24.0H484.0V145.0ZM-138.0 145.0V-97.0C-138.0 -238.0 -141.0 -443.0 -196.0 -588.0C-168.0 -601.0 -114.0 -637.0 -91.0 -658.0C-30.0 -497.0 -18.0 -256.0 -18.0 -98.0V145.0ZM-14.0 308.0H34.0V269.0H-14.0ZM-124.0 402.0V174.0H151.0V402.0ZM291.0 308.0H342.0V269.0H291.0ZM179.0 402.0V174.0H462.0V402.0ZM130.0 0.0V-12.0C116.0 -46.0 91.0 -101.0 68.0 -146.0L169.0 -175.0C191.0 -128.0 212.0 -77.0 232.0 -16.0L160.0 4.0L143.0 0.0Z"/></g>
<g fill="red" transform="translate(100 200) scale(0.1 -0.1)"><path d="M0.0 0.0V-30.0H213.0V0.0ZM339.0 -85.0 328.0 -114.0H565.0V-85.0ZM26.0 -210.0V-240.0H221.0V-210.0ZM26.0 -316.0V-345.0H221.0V-316.0ZM-31.0 -106.0V-136.0H288.0V-106.0ZM11.0 -117.0V-452.0L41.0 -448.0V-117.0ZM208.0 -117.0V-545.0H238.0V-117.0ZM-59.0 -441.0 -49.0 -473.0C47.0 -463.0 172.0 -451.0 294.0 -438.0V-412.0C164.0 -424.0 32.0 -436.0 -59.0 -441.0ZM357.0 48.0C338.0 -65.0 305.0 -179.0 260.0 -256.0C268.0 -261.0 280.0 -272.0 285.0 -277.0C330.0 -196.0 365.0 -76.0 387.0 42.0ZM499.0 -92.0C469.0 -294.0 393.0 -437.0 254.0 -526.0C262.0 -531.0 275.0 -540.0 280.0 -546.0C417.0 -450.0 496.0 -308.0 530.0 -96.0ZM338.0 -109.0 315.0 -136.0C341.0 -269.0 410.0 -454.0 560.0 -549.0C565.0 -541.0 575.0 -530.0 582.0 -524.0C430.0 -436.0 363.0 -251.0 338.0 -109.0ZM-66.0 86.0V56.0H570.0V86.0ZM-82.0 86.0V-98.0C-82.0 -219.0 -91.0 -387.0 -155.0 -514.0C-149.0 -518.0 -137.0 -528.0 -132.0 -535.0C-63.0 -401.0 -53.0 -223.0 -53.0 -99.0V86.0ZM-21.0 281.0H177.0V171.0H-21.0ZM-51.0 310.0V142.0H206.0V310.0ZM300.0 281.0H501.0V171.0H300.0ZM271.0 310.0V142.0H531.0V310.0ZM200.0 0.0V-6.0C193.0 -36.0 180.0 -84.0 166.0 -119.0L191.0 -124.0C205.0 -88.0 218.0 -47.0 229.0 -3.0L210.0 2.0L204.0 0.0Z"/></g>
<g fill="black" opacity=".8" transform="translate(100 200) scale(0.1 -0.1)"><path d="M0.0 0.0V-30.0H210.0V0.0ZM338.0 -77.0 327.0 -107.0H564.0V-77.0ZM34.0 -209.0V-240.0H220.0V-209.0ZM34.0 -314.0V-343.0H220.0V-314.0ZM-43.0 -105.0V-135.0H289.0V-105.0ZM19.0 -117.0V-449.0L48.0 -445.0V-117.0ZM205.0 -117.0V-540.0H234.0V-117.0ZM-47.0 -438.0 -40.0 -471.0C50.0 -459.0 171.0 -445.0 290.0 -432.0L289.0 -404.0C164.0 -419.0 38.0 -432.0 -47.0 -438.0ZM352.0 45.0C335.0 -73.0 303.0 -190.0 258.0 -268.0C264.0 -273.0 277.0 -282.0 282.0 -287.0C328.0 -205.0 362.0 -84.0 382.0 39.0ZM491.0 -86.0C462.0 -288.0 388.0 -431.0 251.0 -519.0C260.0 -525.0 271.0 -534.0 277.0 -541.0C412.0 -444.0 490.0 -301.0 522.0 -90.0ZM336.0 -120.0 313.0 -145.0C340.0 -277.0 412.0 -453.0 555.0 -541.0C561.0 -534.0 570.0 -523.0 576.0 -516.0C432.0 -435.0 364.0 -259.0 336.0 -120.0ZM-61.0 85.0V55.0H565.0V85.0ZM-72.0 85.0V-125.0C-72.0 -240.0 -82.0 -398.0 -158.0 -516.0C-151.0 -520.0 -140.0 -529.0 -134.0 -536.0C-56.0 -413.0 -44.0 -245.0 -44.0 -125.0V85.0ZM-17.0 281.0H173.0V177.0H-17.0ZM-48.0 310.0V146.0H204.0V310.0ZM300.0 281.0H494.0V177.0H300.0ZM270.0 310.0V146.0H523.0V310.0ZM198.0 0.0V-6.0C190.0 -36.0 177.0 -83.0 161.0 -119.0L188.0 -123.0C202.0 -87.0 215.0 -46.0 227.0 -3.0L208.0 2.0L203.0 0.0Z"/></g>
<g fill="red" transform="translate(200 200) scale(0.1 -0.1)"><path d="M0.0 0.0V-83.0H203.0V0.0ZM355.0 -61.0 316.0 -157.0H540.0V-61.0ZM37.0 -218.0V-287.0H200.0V-218.0ZM37.0 -317.0V-386.0H200.0V-317.0ZM-29.0 -108.0V-189.0H272.0V-108.0ZM-2.0 -134.0V-460.0L100.0 -442.0V-134.0ZM142.0 -138.0V-561.0H245.0V-138.0ZM-45.0 -428.0 -28.0 -523.0C58.0 -512.0 167.0 -498.0 273.0 -484.0L269.0 -396.0C153.0 -409.0 36.0 -421.0 -45.0 -428.0ZM316.0 28.0C303.0 -70.0 279.0 -168.0 237.0 -232.0C257.0 -253.0 290.0 -300.0 302.0 -322.0C359.0 -242.0 396.0 -116.0 417.0 7.0ZM422.0 -113.0C413.0 -294.0 368.0 -417.0 242.0 -485.0C261.0 -502.0 292.0 -541.0 303.0 -560.0C445.0 -473.0 502.0 -333.0 518.0 -116.0ZM370.0 -141.0 297.0 -193.0C315.0 -313.0 361.0 -486.0 489.0 -565.0C502.0 -536.0 534.0 -490.0 556.0 -469.0C428.0 -406.0 386.0 -259.0 370.0 -141.0ZM-78.0 125.0V22.0H544.0V125.0ZM-136.0 125.0V-77.0C-136.0 -195.0 -141.0 -364.0 -202.0 -483.0C-173.0 -495.0 -119.0 -532.0 -97.0 -553.0C-28.0 -420.0 -15.0 -214.0 -15.0 -77.0V125.0ZM9.0 266.0H58.0V232.0H9.0ZM-105.0 348.0V150.0H179.0V348.0ZM333.0 266.0H385.0V232.0H333.0ZM219.0 348.0V150.0H506.0V348.0ZM169.0 0.0V-11.0C158.0 -41.0 136.0 -87.0 116.0 -126.0L216.0 -153.0C235.0 -113.0 253.0 -69.0 271.0 -16.0L199.0 5.0L183.0 0.0Z"/></g>
<g fill="black" opacity=".8" transform="translate(200 200) scale(0.1 -0.1)"><path d="M0.0 0.0V-79.0H195.0V0.0ZM352.0 -62.0 312.0 -159.0H545.0V-62.0ZM41.0 -217.0V-284.0H211.0V-217.0ZM41.0 -316.0V-383.0H211.0V-316.0ZM-30.0 -108.0V-189.0H279.0V-108.0ZM-4.0 -135.0V-457.0L102.0 -439.0V-135.0ZM144.0 -138.0V-563.0H249.0V-138.0ZM-49.0 -424.0 -33.0 -520.0C58.0 -511.0 173.0 -499.0 285.0 -486.0L284.0 -399.0C161.0 -410.0 39.0 -420.0 -49.0 -424.0ZM323.0 26.0C311.0 -69.0 287.0 -162.0 245.0 -223.0C263.0 -247.0 292.0 -302.0 302.0 -326.0C363.0 -247.0 402.0 -119.0 425.0 4.0ZM427.0 -100.0C417.0 -284.0 371.0 -414.0 244.0 -485.0C264.0 -503.0 299.0 -545.0 310.0 -565.0C457.0 -474.0 514.0 -327.0 531.0 -104.0ZM370.0 -157.0 293.0 -202.0C316.0 -323.0 367.0 -487.0 488.0 -566.0C502.0 -537.0 536.0 -493.0 558.0 -471.0C438.0 -410.0 391.0 -270.0 370.0 -157.0ZM-71.0 125.0V21.0H546.0V125.0ZM-135.0 125.0V-83.0C-135.0 -202.0 -141.0 -372.0 -212.0 -488.0C-184.0 -502.0 -131.0 -539.0 -110.0 -561.0C-31.0 -428.0 -15.0 -222.0 -15.0 -84.0V125.0ZM9.0 261.0H63.0V228.0H9.0ZM-104.0 340.0V149.0H183.0V340.0ZM331.0 261.0H388.0V228.0H331.0ZM216.0 340.0V149.0H508.0V340.0ZM162.0 0.0V-11.0C150.0 -40.0 125.0 -86.0 105.0 -125.0L206.0 -153.0C228.0 -113.0 247.0 -69.0 266.0 -16.0L192.0 4.0L176.0 0.0Z"/></g>
<g fill="red" transform="translate(300 200) scale(0.1 -0.1)"><path d="M0.0 0.0V-30.0H195.0V0.0ZM319.0 -72.0 307.0 -101.0H527.0V-72.0ZM40.0 -210.0V-240.0H208.0V-210.0ZM40.0 -316.0V-345.0H208.0V-316.0ZM-46.0 -106.0V-136.0H273.0V-106.0ZM24.0 -117.0V-452.0L53.0 -448.0V-117.0ZM192.0 -117.0V-545.0H221.0V-117.0ZM-37.0 -443.0 -30.0 -475.0C53.0 -463.0 163.0 -447.0 273.0 -432.0L272.0 -404.0C156.0 -419.0 42.0 -435.0 -37.0 -443.0ZM329.0 45.0C313.0 -76.0 287.0 -196.0 243.0 -276.0C249.0 -281.0 262.0 -291.0 266.0 -295.0C311.0 -211.0 341.0 -87.0 358.0 40.0ZM453.0 -82.0C428.0 -283.0 365.0 -431.0 240.0 -524.0C248.0 -529.0 260.0 -539.0 265.0 -544.0C390.0 -443.0 455.0 -296.0 484.0 -86.0ZM316.0 -126.0 294.0 -152.0C317.0 -276.0 380.0 -453.0 513.0 -545.0C518.0 -538.0 528.0 -526.0 535.0 -520.0C399.0 -435.0 340.0 -257.0 316.0 -126.0ZM-51.0 86.0V56.0H527.0V86.0ZM-65.0 86.0V-136.0C-65.0 -251.0 -75.0 -406.0 -151.0 -523.0C-144.0 -527.0 -134.0 -537.0 -129.0 -543.0C-48.0 -422.0 -36.0 -255.0 -36.0 -136.0V86.0ZM-10.0 290.0H161.0V180.0H-10.0ZM-40.0 319.0V150.0H191.0V319.0ZM285.0 290.0H459.0V180.0H285.0ZM255.0 319.0V150.0H489.0V319.0ZM185.0 0.0V-6.0C178.0 -36.0 164.0 -84.0 150.0 -119.0L176.0 -124.0C190.0 -88.0 202.0 -47.0 213.0 -3.0L195.0 2.0L189.0 0.0Z"/></g>
<g fill="black" opacity=".8" transform="translate(300 200) scale(0.1 -0.1)"><path d="M0.0 0.0V-30.0H196.0V0.0ZM319.0 -75.0 307.0 -105.0H526.0V-75.0ZM35.0 -210.0V-241.0H208.0V-210.0ZM35.0 -317.0V-346.0H208.0V-317.0ZM-40.0 -106.0V-135.0H273.0V-106.0ZM20.0 -117.0V-454.0L49.0 -450.0V-117.0ZM193.0 -117.0V-547.0H223.0V-117.0ZM-41.0 -444.0 -34.0 -476.0C51.0 -464.0 163.0 -449.0 274.0 -435.0L272.0 -407.0C156.0 -423.0 39.0 -437.0 -41.0 -444.0ZM330.0 47.0C315.0 -73.0 287.0 -192.0 245.0 -271.0C250.0 -275.0 263.0 -285.0 268.0 -290.0C312.0 -206.0 342.0 -83.0 360.0 42.0ZM456.0 -85.0C430.0 -285.0 366.0 -433.0 240.0 -526.0C249.0 -532.0 261.0 -541.0 267.0 -548.0C391.0 -446.0 458.0 -298.0 487.0 -88.0ZM316.0 -121.0 294.0 -148.0C316.0 -272.0 378.0 -454.0 515.0 -548.0C521.0 -541.0 530.0 -529.0 536.0 -523.0C398.0 -436.0 340.0 -253.0 316.0 -121.0ZM-54.0 86.0V57.0H528.0V86.0ZM-64.0 86.0V-124.0C-64.0 -240.0 -74.0 -402.0 -146.0 -523.0C-139.0 -526.0 -128.0 -536.0 -123.0 -543.0C-47.0 -416.0 -36.0 -245.0 -36.0 -124.0V86.0ZM-11.0 290.0H162.0V178.0H-11.0ZM-42.0 318.0V148.0H192.0V318.0ZM285.0 290.0H461.0V178.0H285.0ZM255.0 318.0V148.0H491.0V318.0ZM185.0 0.0V-6.0C178.0 -37.0 166.0 -84.0 151.0 -120.0L178.0 -124.0C190.0 -88.0 202.0 -46.0 213.0 -3.0L194.0 2.0L189.0 0.0Z"/></g>
<g fill="red" transform="translate(400 200) scale(0.1 -0.1)"><path d="M0.0 0.0V-78.0H177.0V0.0ZM327.0 -64.0 289.0 -159.0H505.0V-64.0ZM41.0 -219.0V-288.0H206.0V-219.0ZM41.0 -318.0V-387.0H206.0V-318.0ZM-26.0 -109.0V-190.0H261.0V-109.0ZM-4.0 -135.0V-461.0L96.0 -442.0V-135.0ZM133.0 -139.0V-571.0H234.0V-139.0ZM-46.0 -429.0 -31.0 -525.0C56.0 -515.0 165.0 -503.0 272.0 -490.0L270.0 -404.0C153.0 -414.0 36.0 -424.0 -46.0 -429.0ZM302.0 25.0C290.0 -69.0 269.0 -161.0 231.0 -222.0C247.0 -249.0 270.0 -310.0 276.0 -334.0C339.0 -252.0 376.0 -121.0 399.0 3.0ZM394.0 -96.0C387.0 -285.0 350.0 -421.0 229.0 -497.0C250.0 -515.0 285.0 -556.0 296.0 -576.0C435.0 -480.0 483.0 -326.0 497.0 -99.0ZM343.0 -169.0 269.0 -215.0C288.0 -327.0 335.0 -494.0 445.0 -574.0C459.0 -547.0 492.0 -504.0 513.0 -484.0C404.0 -420.0 360.0 -276.0 343.0 -169.0ZM-64.0 125.0V21.0H505.0V125.0ZM-128.0 125.0V-90.0C-128.0 -212.0 -134.0 -384.0 -205.0 -504.0C-178.0 -516.0 -127.0 -551.0 -106.0 -571.0C-27.0 -438.0 -11.0 -230.0 -11.0 -91.0V125.0ZM12.0 266.0H55.0V232.0H12.0ZM-97.0 348.0V150.0H171.0V348.0ZM309.0 266.0H355.0V232.0H309.0ZM199.0 348.0V150.0H471.0V348.0ZM146.0 0.0V-11.0C135.0 -41.0 113.0 -87.0 93.0 -126.0L194.0 -153.0C213.0 -113.0 231.0 -69.0 249.0 -16.0L176.0 5.0L160.0 0.0Z"/></g>
<g fill="black" opacity=".8" transform="translate(400 200) scale(0.1 -0.1)"><path d="M0.0 0.0V-80.0H181.0V0.0ZM330.0 -64.0 291.0 -159.0H504.0V-64.0ZM39.0 -219.0V-288.0H200.0V-219.0ZM39.0 -320.0V-388.0H200.0V-320.0ZM-27.0 -110.0V-191.0H258.0V-110.0ZM-4.0 -135.0V-463.0L97.0 -443.0V-135.0ZM132.0 -140.0V-571.0H233.0V-140.0ZM-45.0 -430.0 -29.0 -525.0C57.0 -515.0 163.0 -503.0 267.0 -489.0L265.0 -403.0C150.0 -414.0 37.0 -425.0 -45.0 -430.0ZM299.0 26.0C288.0 -70.0 267.0 -165.0 228.0 -226.0C244.0 -251.0 270.0 -308.0 277.0 -332.0C338.0 -251.0 374.0 -120.0 396.0 5.0ZM392.0 -101.0C386.0 -288.0 348.0 -423.0 229.0 -497.0C248.0 -514.0 281.0 -555.0 292.0 -573.0C431.0 -479.0 478.0 -328.0 492.0 -104.0ZM344.0 -160.0 272.0 -209.0C289.0 -322.0 333.0 -492.0 447.0 -574.0C460.0 -546.0 494.0 -504.0 515.0 -483.0C400.0 -419.0 360.0 -271.0 344.0 -160.0ZM-68.0 125.0V21.0H505.0V125.0ZM-129.0 125.0V-87.0C-129.0 -208.0 -134.0 -381.0 -202.0 -500.0C-174.0 -514.0 -122.0 -548.0 -100.0 -568.0C-26.0 -434.0 -11.0 -226.0 -11.0 -88.0V125.0ZM12.0 268.0H54.0V234.0H12.0ZM-98.0 351.0V150.0H169.0V351.0ZM310.0 268.0H356.0V234.0H310.0ZM199.0 351.0V150.0H472.0V351.0ZM150.0 0.0V-12.0C139.0 -40.0 117.0 -87.0 98.0 -126.0L199.0 -153.0C217.0 -113.0 234.0 -69.0 251.0 -15.0L180.0 5.0L164.0 0.0Z"/></g>
<g fill="red" transform="translate(500 200) scale(0.1 -0.1)"><path d="M0.0 0.0V-30.0H177.0V0.0ZM324.0 -85.0 312.0 -114.0H532.0V-85.0ZM10.0 -210.0V-240.0H188.0V-210.0ZM10.0 -316.0V-345.0H188.0V-316.0ZM-46.0 -106.0V-136.0H254.0V-106.0ZM-5.0 -117.0V-452.0L24.0 -448.0V-117.0ZM175.0 -117.0V-545.0H204.0V-117.0ZM-75.0 -441.0 -69.0 -473.0C21.0 -465.0 143.0 -452.0 262.0 -441.0V-412.0C136.0 -424.0 10.0 -436.0 -75.0 -441.0ZM334.0 45.0C315.0 -72.0 285.0 -187.0 236.0 -264.0C244.0 -268.0 255.0 -279.0 260.0 -284.0C308.0 -202.0 343.0 -84.0 363.0 40.0ZM458.0 -95.0C435.0 -294.0 373.0 -436.0 246.0 -525.0C253.0 -530.0 266.0 -539.0 271.0 -545.0C398.0 -448.0 463.0 -307.0 489.0 -98.0ZM321.0 -126.0 299.0 -152.0C321.0 -275.0 381.0 -452.0 510.0 -545.0C515.0 -538.0 525.0 -526.0 532.0 -520.0C400.0 -434.0 344.0 -256.0 321.0 -126.0ZM-82.0 86.0V56.0H532.0V86.0ZM-91.0 86.0V-136.0C-91.0 -248.0 -98.0 -405.0 -156.0 -523.0C-148.0 -527.0 -138.0 -537.0 -133.0 -543.0C-72.0 -420.0 -62.0 -253.0 -62.0 -136.0V86.0ZM-47.0 281.0H151.0V171.0H-47.0ZM-77.0 310.0V142.0H180.0V310.0ZM266.0 281.0H467.0V171.0H266.0ZM237.0 310.0V142.0H497.0V310.0ZM166.0 0.0V-6.0C159.0 -36.0 146.0 -84.0 132.0 -119.0L157.0 -124.0C171.0 -88.0 184.0 -47.0 195.0 -3.0L176.0 2.0L170.0 0.0Z"/></g>
<g fill="black" opacity=".8" transform="translate(500 200) scale(0.1 -0.1)"><path d="M0.0 0.0V-30.0H176.0V0.0ZM324.0 -85.0 312.0 -114.0H531.0V-85.0ZM10.0 -210.0V-241.0H188.0V-210.0ZM10.0 -316.0V-345.0H188.0V-316.0ZM-46.0 -105.0V-135.0H254.0V-105.0ZM-5.0 -117.0V-452.0L24.0 -448.0V-117.0ZM175.0 -117.0V-544.0H204.0V-117.0ZM-74.0 -441.0 -68.0 -473.0C22.0 -465.0 143.0 -451.0 262.0 -441.0L261.0 -411.0C136.0 -424.0 10.0 -436.0 -74.0 -441.0ZM333.0 45.0C315.0 -73.0 285.0 -188.0 236.0 -264.0C244.0 -268.0 255.0 -279.0 260.0 -284.0C308.0 -202.0 343.0 -84.0 363.0 40.0ZM458.0 -95.0C435.0 -294.0 372.0 -436.0 245.0 -525.0C253.0 -529.0 266.0 -538.0 271.0 -546.0C397.0 -448.0 463.0 -306.0 488.0 -97.0ZM321.0 -127.0 299.0 -152.0C321.0 -276.0 380.0 -452.0 510.0 -545.0C515.0 -538.0 525.0 -526.0 531.0 -520.0C400.0 -434.0 344.0 -256.0 321.0 -127.0ZM-81.0 86.0V56.0H531.0V86.0ZM-91.0 86.0V-137.0C-91.0 -248.0 -98.0 -406.0 -157.0 -524.0C-148.0 -527.0 -138.0 -537.0 -134.0 -543.0C-72.0 -420.0 -62.0 -253.0 -62.0 -137.0V86.0ZM-47.0 281.0H151.0V172.0H-47.0ZM-76.0 310.0V142.0H180.0V310.0ZM266.0 281.0H466.0V172.0H266.0ZM237.0 310.0V142.0H496.0V310.0ZM166.0 0.0V-6.0C158.0 -36.0 146.0 -84.0 132.0 -119.0L157.0 -124.0C171.0 -88.0 184.0 -46.0 194.0 -3.0L176.0 2.0L170.0 0.0Z"/></g>
<g fill="red" transform="translate(600 200) scale(0.1 -0.1)"><path d="M0.0 0.0V-83.0H149.0V0.0ZM332.0 -62.0 294.0 -157.0H517.0V-62.0ZM40.0 -218.0V-287.0H212.0V-218.0ZM40.0 -317.0V-386.0H212.0V-317.0ZM-36.0 -108.0V-189.0H253.0V-108.0ZM-8.0 -135.0V-461.0L91.0 -442.0V-135.0ZM131.0 -139.0V-562.0H231.0V-139.0ZM-50.0 -428.0 -33.0 -524.0C54.0 -509.0 164.0 -490.0 270.0 -471.0L265.0 -386.0C148.0 -403.0 31.0 -419.0 -50.0 -428.0ZM301.0 27.0C288.0 -67.0 266.0 -159.0 228.0 -220.0C242.0 -245.0 263.0 -300.0 269.0 -322.0C329.0 -241.0 367.0 -114.0 388.0 7.0ZM398.0 -94.0C391.0 -284.0 351.0 -417.0 228.0 -491.0C247.0 -508.0 280.0 -547.0 291.0 -566.0C430.0 -472.0 480.0 -322.0 494.0 -97.0ZM352.0 -145.0 278.0 -192.0C298.0 -311.0 348.0 -485.0 465.0 -568.0C479.0 -540.0 512.0 -497.0 533.0 -477.0C417.0 -410.0 370.0 -259.0 352.0 -145.0ZM-78.0 124.0V21.0H517.0V124.0ZM-141.0 124.0V-134.0C-141.0 -244.0 -145.0 -393.0 -195.0 -497.0C-169.0 -509.0 -118.0 -545.0 -98.0 -565.0C-37.0 -449.0 -26.0 -263.0 -26.0 -135.0V124.0ZM-9.0 265.0H52.0V231.0H-9.0ZM-119.0 347.0V149.0H170.0V347.0ZM313.0 265.0H377.0V231.0H313.0ZM204.0 347.0V149.0H492.0V347.0ZM132.0 0.0V-11.0C121.0 -41.0 100.0 -87.0 80.0 -126.0L177.0 -152.0C196.0 -112.0 213.0 -68.0 231.0 -15.0L161.0 5.0L145.0 0.0Z"/></g>
<g fill="black" opacity=".8" transform="translate(600 200) scale(0.1 -0.1)"><path d="M0.0 0.0V-83.0H149.0V0.0ZM332.0 -63.0 295.0 -157.0H517.0V-63.0ZM40.0 -218.0V-286.0H212.0V-218.0ZM40.0 -317.0V-386.0H212.0V-317.0ZM-36.0 -109.0V-189.0H253.0V-109.0ZM-8.0 -135.0V-461.0L92.0 -442.0V-135.0ZM131.0 -140.0V-562.0H231.0V-140.0ZM-50.0 -428.0 -34.0 -524.0C54.0 -509.0 165.0 -490.0 270.0 -471.0L266.0 -386.0C148.0 -403.0 32.0 -419.0 -50.0 -428.0ZM301.0 27.0C289.0 -67.0 266.0 -159.0 229.0 -220.0C242.0 -245.0 263.0 -300.0 269.0 -323.0C329.0 -242.0 367.0 -114.0 389.0 7.0ZM398.0 -94.0C392.0 -284.0 351.0 -417.0 229.0 -491.0C247.0 -508.0 280.0 -548.0 291.0 -567.0C431.0 -472.0 480.0 -322.0 495.0 -96.0ZM352.0 -145.0 278.0 -192.0C299.0 -312.0 348.0 -485.0 465.0 -568.0C479.0 -540.0 513.0 -497.0 534.0 -477.0C417.0 -410.0 370.0 -260.0 352.0 -145.0ZM-78.0 124.0V21.0H517.0V124.0ZM-141.0 124.0V-133.0C-141.0 -243.0 -145.0 -394.0 -196.0 -497.0C-169.0 -510.0 -118.0 -545.0 -98.0 -565.0C-37.0 -449.0 -26.0 -263.0 -26.0 -135.0V124.0ZM-9.0 265.0H52.0V231.0H-9.0ZM-119.0 346.0V149.0H170.0V346.0ZM313.0 265.0H378.0V231.0H313.0ZM204.0 346.0V149.0H492.0V346.0ZM132.0 0.0V-11.0C121.0 -41.0 99.0 -87.0 80.0 -126.0L177.0 -152.0C196.0 -112.0 213.0 -68.0 231.0 -14.0L161.0 4.0L145.0 0.0Z"/></g>
<g fill="red" transform="translate(700 200) scale(0.1 -0.1)"><path d="M0.0 0.0V-30.0H195.0V0.0ZM319.0 -72.0 307.0 -101.0H527.0V-72.0ZM40.0 -210.0V-240.0H208.0V-210.0ZM40.0 -316.0V-345.0H208.0V-316.0ZM-46.0 -106.0V-136.0H273.0V-106.0ZM24.0 -117.0V-452.0L53.0 -448.0V-117.0ZM192.0 -117.0V-545.0H221.0V-117.0ZM-37.0 -443.0 -30.0 -475.0C53.0 -463.0 163.0 -447.0 273.0 -432.0L272.0 -404.0C156.0 -419.0 42.0 -435.0 -37.0 -443.0ZM329.0 45.0C313.0 -76.0 287.0 -196.0 243.0 -276.0C249.0 -281.0 262.0 -291.0 266.0 -295.0C311.0 -211.0 341.0 -87.0 358.0 40.0ZM453.0 -82.0C428.0 -283.0 365.0 -431.0 240.0 -524.0C248.0 -529.0 260.0 -539.0 265.0 -544.0C390.0 -443.0 455.0 -296.0 484.0 -86.0ZM316.0 -126.0 294.0 -152.0C317.0 -276.0 380.0 -453.0 513.0 -545.0C518.0 -538.0 528.0 -526.0 535.0 -520.0C399.0 -435.0 340.0 -257.0 316.0 -126.0ZM-51.0 86.0V56.0H527.0V86.0ZM-55.0 86.0V-136.0C-55.0 -251.0 -65.0 -406.0 -142.0 -523.0C-135.0 -527.0 -124.0 -537.0 -119.0 -543.0C-39.0 -422.0 -26.0 -255.0 -26.0 -136.0V86.0ZM-10.0 290.0H161.0V180.0H-10.0ZM-40.0 319.0V150.0H191.0V319.0ZM285.0 290.0H459.0V180.0H285.0ZM255.0 319.0V150.0H489.0V319.0ZM185.0 0.0V-6.0C178.0 -36.0 164.0 -84.0 150.0 -119.0L176.0 -124.0C190.0 -88.0 202.0 -47.0 213.0 -3.0L195.0 2.0L189.0 0.0Z"/></g>
<g fill="black" opacity=".8" transform="translate(700 200) scale(0.1 -0.1)"><path d="M0.0 0.0V-30.0H197.0V0.0ZM320.0 -75.0 309.0 -105.0H528.0V-75.0ZM36.0 -211.0V-241.0H210.0V-211.0ZM36.0 -317.0V-346.0H210.0V-317.0ZM-40.0 -106.0V-135.0H274.0V-106.0ZM21.0 -117.0V-454.0L50.0 -450.0V-117.0ZM195.0 -117.0V-547.0H224.0V-117.0ZM-41.0 -444.0 -33.0 -476.0C52.0 -464.0 164.0 -449.0 276.0 -435.0L274.0 -407.0C157.0 -423.0 39.0 -437.0 -41.0 -444.0ZM331.0 47.0C316.0 -73.0 288.0 -192.0 246.0 -271.0C252.0 -276.0 264.0 -285.0 269.0 -290.0C313.0 -206.0 344.0 -83.0 361.0 42.0ZM459.0 -85.0C433.0 -285.0 368.0 -433.0 241.0 -526.0C250.0 -532.0 261.0 -541.0 267.0 -548.0C392.0 -446.0 460.0 -298.0 489.0 -88.0ZM318.0 -121.0 296.0 -148.0C318.0 -273.0 380.0 -454.0 518.0 -548.0C524.0 -541.0 533.0 -529.0 539.0 -523.0C400.0 -436.0 341.0 -253.0 318.0 -121.0ZM-53.0 86.0V56.0H530.0V86.0ZM-64.0 86.0V-124.0C-64.0 -240.0 -74.0 -402.0 -146.0 -523.0C-139.0 -526.0 -129.0 -536.0 -123.0 -543.0C-47.0 -416.0 -36.0 -245.0 -36.0 -124.0V86.0ZM-11.0 290.0H164.0V179.0H-11.0ZM-41.0 318.0V148.0H194.0V318.0ZM286.0 290.0H463.0V179.0H286.0ZM256.0 318.0V148.0H493.0V318.0ZM187.0 0.0V-6.0C179.0 -37.0 167.0 -84.0 153.0 -120.0L179.0 -124.0C192.0 -88.0 204.0 -46.0 214.0 -3.0L196.0 2.0L191.0 0.0Z"/></g>
<g fill="red" transform="translate(800 200) scale(0.1 -0.1)"><path d="M0.0 0.0V-78.0H180.0V0.0ZM330.0 -64.0 291.0 -159.0H510.0V-64.0ZM41.0 -219.0V-288.0H208.0V-219.0ZM41.0 -318.0V-387.0H208.0V-318.0ZM-27.0 -109.0V-190.0H264.0V-109.0ZM-4.0 -135.0V-461.0L97.0 -442.0V-135.0ZM134.0 -139.0V-571.0H236.0V-139.0ZM-46.0 -429.0 -30.0 -525.0C58.0 -515.0 169.0 -503.0 277.0 -490.0L275.0 -404.0C156.0 -414.0 37.0 -424.0 -46.0 -429.0ZM305.0 25.0C293.0 -69.0 272.0 -161.0 233.0 -222.0C250.0 -249.0 273.0 -310.0 280.0 -334.0C343.0 -252.0 381.0 -121.0 404.0 3.0ZM398.0 -96.0C390.0 -285.0 353.0 -421.0 230.0 -497.0C252.0 -515.0 287.0 -556.0 298.0 -576.0C440.0 -480.0 488.0 -326.0 502.0 -99.0ZM347.0 -169.0 272.0 -215.0C291.0 -327.0 339.0 -494.0 451.0 -574.0C465.0 -547.0 498.0 -504.0 519.0 -484.0C409.0 -420.0 365.0 -276.0 347.0 -169.0ZM-66.0 125.0V21.0H511.0V125.0ZM-130.0 125.0V-90.0C-130.0 -212.0 -136.0 -384.0 -209.0 -504.0C-181.0 -516.0 -129.0 -551.0 -108.0 -571.0C-27.0 -438.0 -12.0 -230.0 -12.0 -91.0V125.0ZM12.0 266.0H56.0V232.0H12.0ZM-99.0 348.0V150.0H174.0V348.0ZM312.0 266.0H360.0V232.0H312.0ZM201.0 348.0V150.0H477.0V348.0ZM148.0 0.0V-11.0C137.0 -41.0 114.0 -87.0 94.0 -126.0L196.0 -153.0C216.0 -113.0 234.0 -69.0 253.0 -16.0L179.0 5.0L163.0 0.0Z"/></g>
<g fill="black" opacity=".8" transform="translate(800 200) scale(0.1 -0.1)"><path d="M0.0 0.0V-80.0H183.0V0.0ZM331.0 -64.0 293.0 -159.0H506.0V-64.0ZM39.0 -219.0V-288.0H201.0V-219.0ZM39.0 -320.0V-388.0H201.0V-320.0ZM-27.0 -110.0V-191.0H260.0V-110.0ZM-4.0 -135.0V-463.0L97.0 -443.0V-135.0ZM133.0 -140.0V-571.0H234.0V-140.0ZM-45.0 -430.0 -29.0 -525.0C57.0 -515.0 164.0 -503.0 268.0 -489.0L266.0 -403.0C151.0 -415.0 37.0 -425.0 -45.0 -430.0ZM301.0 26.0C290.0 -70.0 268.0 -165.0 229.0 -227.0C246.0 -252.0 272.0 -308.0 279.0 -332.0C340.0 -251.0 377.0 -121.0 398.0 4.0ZM394.0 -101.0C388.0 -288.0 349.0 -423.0 230.0 -497.0C249.0 -514.0 282.0 -555.0 293.0 -573.0C433.0 -479.0 481.0 -329.0 494.0 -104.0ZM346.0 -161.0 273.0 -209.0C291.0 -322.0 335.0 -493.0 449.0 -574.0C462.0 -546.0 496.0 -504.0 517.0 -483.0C402.0 -419.0 362.0 -271.0 346.0 -161.0ZM-68.0 125.0V21.0H507.0V125.0ZM-129.0 125.0V-86.0C-129.0 -207.0 -134.0 -381.0 -203.0 -500.0C-175.0 -514.0 -122.0 -547.0 -101.0 -568.0C-26.0 -433.0 -11.0 -225.0 -11.0 -86.0V125.0ZM12.0 268.0H54.0V233.0H12.0ZM-98.0 351.0V150.0H170.0V351.0ZM311.0 268.0H357.0V233.0H311.0ZM200.0 351.0V150.0H474.0V351.0ZM151.0 0.0V-12.0C141.0 -40.0 118.0 -87.0 99.0 -126.0L200.0 -153.0C219.0 -113.0 236.0 -69.0 253.0 -15.0L181.0 5.0L165.0 0.0Z"/></g>
<g fill="red" transform="translate(900 200) scale(0.1 -0.1)"><path d="M0.0 0.0V-30.0H154.0V0.0ZM266.0 -64.0 254.0 -94.0H426.0V-64.0ZM31.0 -204.0V-234.0H159.0V-204.0ZM31.0 -308.0V-338.0H159.0V-308.0ZM-45.0 -101.0V-131.0H216.0V-101.0ZM11.0 -113.0V-437.0L41.0 -433.0V-113.0ZM145.0 -112.0V-544.0H174.0V-112.0ZM-42.0 -432.0 -36.0 -463.0C34.0 -452.0 122.0 -440.0 213.0 -425.0L212.0 -396.0C115.0 -410.0 24.0 -424.0 -42.0 -432.0ZM269.0 43.0C255.0 -73.0 231.0 -185.0 189.0 -261.0C196.0 -266.0 208.0 -277.0 213.0 -282.0C256.0 -201.0 283.0 -84.0 299.0 38.0ZM367.0 -72.0C347.0 -272.0 300.0 -428.0 194.0 -527.0C201.0 -532.0 214.0 -541.0 219.0 -546.0C326.0 -440.0 376.0 -286.0 397.0 -75.0ZM259.0 -126.0 237.0 -152.0C255.0 -269.0 303.0 -448.0 414.0 -545.0C419.0 -538.0 430.0 -526.0 436.0 -520.0C324.0 -431.0 277.0 -251.0 259.0 -126.0ZM-54.0 93.0V63.0H418.0V93.0ZM-69.0 93.0V-111.0C-69.0 -229.0 -72.0 -398.0 -109.0 -528.0C-101.0 -532.0 -90.0 -541.0 -85.0 -548.0C-46.0 -412.0 -40.0 -233.0 -40.0 -111.0V93.0ZM-30.0 286.0H109.0V179.0H-30.0ZM-59.0 315.0V149.0H139.0V315.0ZM230.0 286.0H372.0V179.0H230.0ZM200.0 315.0V149.0H401.0V315.0ZM149.0 0.0V-6.0C142.0 -36.0 128.0 -84.0 114.0 -119.0L140.0 -124.0C153.0 -88.0 166.0 -47.0 177.0 -3.0L158.0 2.0L152.0 0.0Z"/></g>
<g fill="black" opacity=".8" transform="translate(900 200) scale(0.1 -0.1)"><path d="M0.0 0.0V-30.0H155.0V0.0ZM270.0 -65.0 257.0 -95.0H433.0V-65.0ZM30.0 -204.0V-236.0H160.0V-204.0ZM30.0 -308.0V-339.0H160.0V-308.0ZM-46.0 -100.0V-131.0H219.0V-100.0ZM10.0 -113.0V-437.0L40.0 -434.0V-113.0ZM147.0 -113.0V-544.0H176.0V-113.0ZM-43.0 -432.0 -37.0 -463.0C33.0 -452.0 123.0 -440.0 215.0 -425.0L213.0 -396.0C116.0 -411.0 22.0 -425.0 -43.0 -432.0ZM273.0 43.0C259.0 -74.0 234.0 -186.0 192.0 -261.0C199.0 -266.0 211.0 -277.0 216.0 -282.0C260.0 -201.0 287.0 -84.0 303.0 38.0ZM374.0 -73.0C354.0 -273.0 304.0 -428.0 195.0 -527.0C203.0 -532.0 215.0 -540.0 221.0 -547.0C330.0 -440.0 382.0 -286.0 403.0 -76.0ZM263.0 -127.0 242.0 -153.0C259.0 -271.0 308.0 -449.0 422.0 -544.0C427.0 -538.0 437.0 -526.0 443.0 -520.0C330.0 -432.0 282.0 -253.0 263.0 -127.0ZM-57.0 94.0V64.0H423.0V94.0ZM-68.0 94.0V-113.0C-68.0 -230.0 -71.0 -399.0 -106.0 -529.0C-99.0 -532.0 -87.0 -542.0 -82.0 -549.0C-44.0 -413.0 -39.0 -235.0 -39.0 -113.0V94.0ZM-28.0 285.0H110.0V180.0H-28.0ZM-57.0 314.0V149.0H140.0V314.0ZM231.0 285.0H372.0V180.0H231.0ZM201.0 314.0V149.0H402.0V314.0ZM150.0 0.0V-6.0C143.0 -36.0 130.0 -84.0 115.0 -120.0L141.0 -124.0C154.0 -88.0 167.0 -46.0 178.0 -3.0L159.0 2.0L153.0 0.0Z"/></g>
<g fill="red" transform="translate(1000 200) scale(0.1 -0.1)"><path d="M0.0 0.0V-78.0H140.0V0.0ZM293.0 -67.0 257.0 -158.0H420.0V-67.0ZM28.0 -213.0V-282.0H159.0V-213.0ZM28.0 -310.0V-379.0H159.0V-310.0ZM-29.0 -105.0V-186.0H215.0V-105.0ZM-7.0 -142.0V-468.0L80.0 -449.0V-142.0ZM104.0 -143.0V-566.0H191.0V-143.0ZM-40.0 -419.0 -26.0 -509.0C48.0 -498.0 131.0 -485.0 219.0 -470.0L216.0 -397.0C120.0 -406.0 27.0 -414.0 -40.0 -419.0ZM239.0 21.0C230.0 -92.0 214.0 -206.0 178.0 -281.0C194.0 -300.0 219.0 -344.0 228.0 -364.0C280.0 -272.0 308.0 -130.0 323.0 5.0ZM320.0 -117.0C313.0 -293.0 284.0 -428.0 185.0 -506.0C203.0 -521.0 233.0 -556.0 244.0 -573.0C357.0 -477.0 396.0 -327.0 407.0 -121.0ZM279.0 -175.0 218.0 -222.0C234.0 -322.0 275.0 -484.0 365.0 -567.0C378.0 -543.0 407.0 -507.0 425.0 -490.0C335.0 -421.0 295.0 -277.0 279.0 -175.0ZM-58.0 125.0V21.0H420.0V125.0ZM-120.0 125.0V-83.0C-120.0 -205.0 -123.0 -382.0 -170.0 -508.0C-146.0 -518.0 -98.0 -549.0 -78.0 -566.0C-25.0 -428.0 -15.0 -220.0 -15.0 -84.0V125.0ZM-12.0 266.0H28.0V232.0H-12.0ZM-109.0 348.0V150.0H131.0V348.0ZM253.0 266.0H296.0V232.0H253.0ZM155.0 348.0V150.0H401.0V348.0ZM112.0 0.0V-10.0C100.0 -40.0 79.0 -87.0 58.0 -126.0L147.0 -150.0C166.0 -110.0 184.0 -66.0 202.0 -14.0L139.0 4.0L124.0 0.0Z"/></g>
<g fill="black" opacity=".8" transform="translate(1000 200) scale(0.1 -0.1)"><path d="M0.0 0.0V-77.0H137.0V0.0ZM288.0 -67.0 253.0 -158.0H415.0V-67.0ZM28.0 -213.0V-281.0H157.0V-213.0ZM28.0 -310.0V-378.0H157.0V-310.0ZM-30.0 -106.0V-186.0H211.0V-106.0ZM-8.0 -143.0V-468.0L78.0 -450.0V-143.0ZM102.0 -144.0V-565.0H188.0V-144.0ZM-40.0 -418.0 -28.0 -509.0C46.0 -498.0 128.0 -485.0 215.0 -470.0L213.0 -397.0C118.0 -406.0 27.0 -414.0 -40.0 -418.0ZM237.0 21.0C228.0 -92.0 211.0 -206.0 177.0 -280.0C191.0 -299.0 217.0 -343.0 225.0 -364.0C276.0 -272.0 304.0 -130.0 318.0 5.0ZM316.0 -116.0C311.0 -292.0 279.0 -428.0 183.0 -505.0C199.0 -520.0 229.0 -556.0 240.0 -573.0C352.0 -477.0 391.0 -327.0 403.0 -120.0ZM276.0 -174.0 216.0 -221.0C232.0 -323.0 274.0 -484.0 363.0 -567.0C375.0 -542.0 404.0 -506.0 422.0 -489.0C333.0 -421.0 293.0 -277.0 276.0 -174.0ZM-58.0 125.0V20.0H414.0V125.0ZM-119.0 125.0V-84.0C-119.0 -205.0 -121.0 -382.0 -168.0 -507.0C-144.0 -518.0 -97.0 -549.0 -77.0 -567.0C-27.0 -428.0 -16.0 -221.0 -16.0 -85.0V125.0ZM-13.0 265.0H28.0V231.0H-13.0ZM-108.0 346.0V150.0H128.0V346.0ZM248.0 265.0H294.0V231.0H248.0ZM153.0 346.0V150.0H396.0V346.0ZM110.0 0.0V-10.0C98.0 -39.0 76.0 -87.0 57.0 -126.0L143.0 -150.0C162.0 -110.0 180.0 -66.0 197.0 -13.0L135.0 3.0L121.0 0.0Z"/></g>
<g fill="red" transform="translate(1100 200) scale(0.1 -0.1)"><path d="M0.0 0.0V-30.0H252.0V0.0ZM403.0 -81.0 391.0 -111.0H699.0V-81.0ZM20.0 -189.0V-219.0H241.0V-189.0ZM20.0 -280.0V-310.0H241.0V-280.0ZM-63.0 -98.0V-128.0H334.0V-98.0ZM5.0 -110.0V-393.0L35.0 -392.0V-110.0ZM230.0 -110.0V-476.0H259.0V-110.0ZM-83.0 -382.0 -79.0 -413.0C27.0 -408.0 181.0 -400.0 331.0 -391.0L332.0 -364.0C175.0 -372.0 19.0 -378.0 -83.0 -382.0ZM429.0 26.0C399.0 -74.0 350.0 -171.0 289.0 -237.0C298.0 -241.0 312.0 -250.0 317.0 -254.0C375.0 -186.0 426.0 -85.0 458.0 20.0ZM614.0 -87.0C575.0 -283.0 459.0 -394.0 276.0 -456.0C283.0 -462.0 294.0 -472.0 299.0 -478.0C479.0 -409.0 603.0 -298.0 644.0 -92.0ZM399.0 -118.0 375.0 -126.0C427.0 -294.0 541.0 -423.0 698.0 -478.0C702.0 -471.0 711.0 -461.0 718.0 -455.0C562.0 -406.0 449.0 -280.0 399.0 -118.0ZM-103.0 79.0V50.0H687.0V79.0ZM-116.0 79.0V-128.0C-116.0 -228.0 -126.0 -361.0 -198.0 -459.0C-190.0 -463.0 -179.0 -472.0 -174.0 -479.0C-100.0 -376.0 -87.0 -233.0 -87.0 -128.0V79.0ZM-66.0 220.0H196.0V158.0H-66.0ZM-96.0 250.0V128.0H226.0V250.0ZM336.0 220.0H605.0V158.0H336.0ZM307.0 250.0V128.0H634.0V250.0ZM239.0 0.0V-6.0C228.0 -32.0 207.0 -74.0 186.0 -106.0L214.0 -115.0C234.0 -81.0 253.0 -46.0 272.0 -6.0L250.0 3.0L244.0 0.0Z"/></g>
<g fill="black" opacity=".8" transform="translate(1100 200) scale(0.1 -0.1)"><path d="M0.0 0.0V-30.0H252.0V0.0ZM403.0 -82.0 391.0 -112.0H698.0V-82.0ZM18.0 -189.0V-220.0H241.0V-189.0ZM18.0 -280.0V-310.0H241.0V-280.0ZM-61.0 -97.0V-127.0H335.0V-97.0ZM4.0 -110.0V-394.0L33.0 -393.0V-110.0ZM231.0 -110.0V-476.0H260.0V-110.0ZM-83.0 -382.0 -79.0 -413.0C27.0 -409.0 181.0 -400.0 331.0 -392.0L332.0 -364.0C175.0 -374.0 18.0 -379.0 -83.0 -382.0ZM429.0 27.0C400.0 -74.0 350.0 -170.0 290.0 -235.0C299.0 -239.0 313.0 -248.0 319.0 -252.0C375.0 -185.0 426.0 -84.0 459.0 20.0ZM616.0 -88.0C576.0 -283.0 459.0 -395.0 276.0 -457.0C283.0 -463.0 294.0 -472.0 300.0 -480.0C478.0 -410.0 604.0 -298.0 645.0 -93.0ZM399.0 -117.0 375.0 -125.0C427.0 -293.0 540.0 -423.0 699.0 -479.0C703.0 -472.0 711.0 -462.0 718.0 -456.0C562.0 -406.0 449.0 -279.0 399.0 -117.0ZM-104.0 80.0V51.0H688.0V80.0ZM-118.0 80.0V-124.0C-118.0 -225.0 -128.0 -360.0 -198.0 -460.0C-190.0 -463.0 -179.0 -472.0 -173.0 -480.0C-101.0 -374.0 -89.0 -230.0 -89.0 -124.0V80.0ZM-67.0 219.0H197.0V158.0H-67.0ZM-96.0 249.0V128.0H227.0V249.0ZM336.0 219.0H605.0V158.0H336.0ZM307.0 249.0V128.0H634.0V249.0ZM239.0 0.0V-6.0C227.0 -32.0 208.0 -74.0 187.0 -107.0L215.0 -115.0C235.0 -81.0 253.0 -45.0 272.0 -6.0L250.0 3.0L244.0 0.0Z"/></g>
<g fill="red" transform="translate(1200 200) scale(0.1 -0.1)"><path d="M0.0 0.0V-66.0H235.0V0.0ZM432.0 -49.0 390.0 -152.0H703.0V-49.0ZM47.0 -191.0V-250.0H246.0V-191.0ZM47.0 -275.0V-334.0H246.0V-275.0ZM-47.0 -93.0V-168.0H354.0V-93.0ZM-3.0 -132.0V-405.0L114.0 -398.0V-132.0ZM186.0 -120.0V-489.0H304.0V-120.0ZM-63.0 -370.0 -55.0 -461.0C55.0 -454.0 204.0 -445.0 348.0 -435.0L349.0 -353.0C197.0 -360.0 41.0 -367.0 -63.0 -370.0ZM407.0 27.0C389.0 -67.0 352.0 -158.0 299.0 -216.0C325.0 -233.0 371.0 -272.0 391.0 -293.0C451.0 -223.0 498.0 -111.0 523.0 3.0ZM558.0 -91.0C533.0 -251.0 447.0 -349.0 293.0 -400.0C316.0 -422.0 356.0 -470.0 369.0 -495.0C539.0 -424.0 640.0 -304.0 679.0 -103.0ZM462.0 -138.0 366.0 -159.0C416.0 -316.0 503.0 -433.0 648.0 -490.0C665.0 -458.0 700.0 -410.0 726.0 -386.0C593.0 -347.0 504.0 -255.0 462.0 -138.0ZM-81.0 116.0V23.0H703.0V116.0ZM-161.0 116.0V-69.0C-161.0 -170.0 -167.0 -307.0 -240.0 -404.0C-215.0 -420.0 -164.0 -468.0 -146.0 -493.0C-57.0 -379.0 -39.0 -196.0 -39.0 -71.0V116.0ZM-23.0 214.0H98.0V189.0H-23.0ZM-143.0 266.0V137.0H226.0V266.0ZM399.0 214.0H514.0V189.0H399.0ZM276.0 266.0V137.0H645.0V266.0ZM192.0 0.0V-9.0C173.0 -36.0 139.0 -80.0 107.0 -115.0L206.0 -143.0C240.0 -106.0 274.0 -65.0 305.0 -19.0L226.0 4.0L208.0 0.0Z"/></g>
<g fill="black" opacity=".8" transform="translate(1200 200) scale(0.1 -0.1)"><path d="M0.0 0.0V-66.0H236.0V0.0ZM433.0 -50.0 391.0 -152.0H703.0V-50.0ZM46.0 -191.0V-249.0H244.0V-191.0ZM46.0 -276.0V-334.0H244.0V-276.0ZM-48.0 -94.0V-168.0H352.0V-94.0ZM-3.0 -132.0V-406.0L114.0 -398.0V-132.0ZM186.0 -121.0V-489.0H303.0V-121.0ZM-63.0 -370.0 -55.0 -461.0C55.0 -454.0 203.0 -445.0 346.0 -435.0L347.0 -352.0C196.0 -361.0 41.0 -367.0 -63.0 -370.0ZM406.0 27.0C389.0 -68.0 351.0 -159.0 299.0 -217.0C323.0 -234.0 372.0 -272.0 391.0 -293.0C450.0 -223.0 498.0 -111.0 522.0 4.0ZM557.0 -93.0C533.0 -252.0 446.0 -350.0 293.0 -400.0C315.0 -422.0 354.0 -470.0 367.0 -494.0C538.0 -424.0 638.0 -305.0 677.0 -104.0ZM462.0 -135.0 367.0 -157.0C417.0 -315.0 502.0 -432.0 649.0 -490.0C665.0 -458.0 701.0 -410.0 727.0 -385.0C591.0 -347.0 504.0 -254.0 462.0 -135.0ZM-81.0 116.0V23.0H703.0V116.0ZM-161.0 116.0V-67.0C-161.0 -168.0 -167.0 -306.0 -238.0 -402.0C-213.0 -420.0 -162.0 -467.0 -144.0 -493.0C-57.0 -377.0 -39.0 -194.0 -39.0 -69.0V116.0ZM-23.0 214.0H97.0V189.0H-23.0ZM-142.0 266.0V137.0H225.0V266.0ZM400.0 214.0H514.0V189.0H400.0ZM275.0 266.0V137.0H645.0V266.0ZM194.0 0.0V-9.0C174.0 -36.0 140.0 -80.0 109.0 -115.0L207.0 -144.0C242.0 -106.0 275.0 -65.0 305.0 -18.0L227.0 3.0L209.0 0.0Z"/></g>
<g fill="red" transform="translate(1300 200) scale(0.1 -0.1)"><path d="M0.0 0.0V-30.0H154.0V0.0ZM266.0 -64.0 254.0 -94.0H426.0V-64.0ZM31.0 -204.0V-234.0H159.0V-204.0ZM31.0 -308.0V-338.0H159.0V-308.0ZM-45.0 -101.0V-131.0H216.0V-101.0ZM11.0 -113.0V-437.0L41.0 -433.0V-113.0ZM145.0 -112.0V-544.0H174.0V-112.0ZM-42.0 -432.0 -36.0 -463.0C34.0 -452.0 122.0 -440.0 213.0 -425.0L212.0 -396.0C115.0 -410.0 24.0 -424.0 -42.0 -432.0ZM269.0 43.0C255.0 -73.0 231.0 -185.0 189.0 -261.0C196.0 -266.0 208.0 -277.0 213.0 -282.0C256.0 -201.0 283.0 -84.0 299.0 38.0ZM367.0 -72.0C347.0 -272.0 300.0 -428.0 194.0 -527.0C201.0 -532.0 214.0 -541.0 219.0 -546.0C326.0 -440.0 376.0 -286.0 397.0 -75.0ZM259.0 -126.0 237.0 -152.0C255.0 -269.0 303.0 -448.0 414.0 -545.0C419.0 -538.0 430.0 -526.0 436.0 -520.0C324.0 -431.0 277.0 -251.0 259.0 -126.0ZM-56.0 93.0V63.0H416.0V93.0ZM-63.0 93.0V-111.0C-63.0 -228.0 -66.0 -398.0 -99.0 -528.0C-93.0 -532.0 -80.0 -541.0 -75.0 -548.0C-39.0 -412.0 -34.0 -232.0 -34.0 -111.0V93.0ZM-23.0 286.0H107.0V179.0H-23.0ZM-52.0 315.0V149.0H137.0V315.0ZM228.0 286.0H361.0V179.0H228.0ZM198.0 315.0V149.0H391.0V315.0ZM148.0 0.0V-6.0C142.0 -36.0 128.0 -84.0 114.0 -119.0L140.0 -124.0C153.0 -88.0 166.0 -47.0 177.0 -3.0L158.0 2.0L152.0 0.0Z"/></g>
<g fill="black" opacity=".8" transform="translate(1300 200) scale(0.1 -0.1)"><path d="M0.0 0.0V-30.0H152.0V0.0ZM262.0 -63.0 250.0 -93.0H419.0V-63.0ZM32.0 -203.0V-235.0H157.0V-203.0ZM32.0 -308.0V-338.0H157.0V-308.0ZM-44.0 -100.0V-130.0H214.0V-100.0ZM12.0 -113.0V-437.0L42.0 -433.0V-113.0ZM144.0 -112.0V-544.0H173.0V-112.0ZM-39.0 -432.0 -32.0 -462.0C36.0 -451.0 121.0 -439.0 210.0 -424.0L208.0 -395.0C114.0 -410.0 24.0 -424.0 -39.0 -432.0ZM264.0 43.0C251.0 -74.0 228.0 -186.0 187.0 -261.0C194.0 -266.0 206.0 -277.0 211.0 -282.0C254.0 -201.0 279.0 -84.0 295.0 38.0ZM361.0 -71.0C342.0 -271.0 295.0 -427.0 191.0 -527.0C199.0 -532.0 211.0 -540.0 217.0 -547.0C321.0 -439.0 370.0 -284.0 390.0 -74.0ZM255.0 -126.0 234.0 -153.0C250.0 -268.0 296.0 -447.0 408.0 -544.0C413.0 -538.0 423.0 -526.0 429.0 -520.0C318.0 -430.0 273.0 -250.0 255.0 -126.0ZM-52.0 94.0V64.0H410.0V94.0ZM-63.0 94.0V-111.0C-63.0 -228.0 -67.0 -399.0 -101.0 -528.0C-94.0 -531.0 -82.0 -541.0 -77.0 -548.0C-40.0 -412.0 -34.0 -233.0 -34.0 -111.0V94.0ZM-24.0 287.0H107.0V180.0H-24.0ZM-53.0 316.0V149.0H136.0V316.0ZM227.0 287.0H359.0V180.0H227.0ZM196.0 316.0V149.0H389.0V316.0ZM147.0 0.0V-6.0C140.0 -36.0 127.0 -84.0 113.0 -120.0L139.0 -124.0C151.0 -88.0 164.0 -46.0 174.0 -3.0L155.0 2.0L150.0 0.0Z"/></g>
<g fill="red" transform="translate(1400 200) scale(0.1 -0.1)"><path d="M0.0 0.0V-78.0H132.0V0.0ZM275.0 -67.0 241.0 -158.0H394.0V-67.0ZM27.0 -213.0V-282.0H150.0V-213.0ZM27.0 -310.0V-379.0H150.0V-310.0ZM-28.0 -105.0V-186.0H201.0V-105.0ZM-8.0 -142.0V-468.0L73.0 -449.0V-142.0ZM97.0 -143.0V-566.0H179.0V-143.0ZM-39.0 -419.0 -26.0 -509.0C43.0 -498.0 121.0 -485.0 204.0 -470.0L201.0 -397.0C111.0 -406.0 24.0 -414.0 -39.0 -419.0ZM225.0 21.0C216.0 -92.0 201.0 -206.0 167.0 -281.0C182.0 -300.0 206.0 -344.0 214.0 -364.0C263.0 -272.0 290.0 -130.0 304.0 5.0ZM301.0 -117.0C295.0 -293.0 267.0 -428.0 174.0 -506.0C191.0 -521.0 219.0 -556.0 230.0 -573.0C336.0 -477.0 373.0 -327.0 383.0 -121.0ZM263.0 -175.0 206.0 -222.0C221.0 -322.0 260.0 -484.0 344.0 -567.0C356.0 -543.0 384.0 -507.0 401.0 -490.0C316.0 -421.0 278.0 -277.0 263.0 -175.0ZM-56.0 125.0V21.0H393.0V125.0ZM-114.0 125.0V-83.0C-114.0 -205.0 -117.0 -382.0 -161.0 -508.0C-138.0 -518.0 -93.0 -549.0 -74.0 -566.0C-25.0 -428.0 -15.0 -220.0 -15.0 -84.0V125.0ZM-13.0 266.0H25.0V232.0H-13.0ZM-104.0 348.0V150.0H121.0V348.0ZM237.0 266.0H277.0V232.0H237.0ZM145.0 348.0V150.0H376.0V348.0ZM105.0 0.0V-10.0C94.0 -40.0 74.0 -87.0 54.0 -126.0L138.0 -150.0C156.0 -110.0 173.0 -66.0 190.0 -14.0L130.0 4.0L116.0 0.0Z"/></g>
<g fill="black" opacity=".8" transform="translate(1400 200) scale(0.1 -0.1)"><path d="M0.0 0.0V-77.0H134.0V0.0ZM280.0 -68.0 245.0 -158.0H399.0V-68.0ZM27.0 -213.0V-281.0H151.0V-213.0ZM27.0 -310.0V-378.0H151.0V-310.0ZM-28.0 -106.0V-186.0H204.0V-106.0ZM-8.0 -142.0V-468.0L76.0 -449.0V-142.0ZM98.0 -144.0V-566.0H182.0V-144.0ZM-39.0 -418.0 -26.0 -508.0C45.0 -497.0 124.0 -485.0 208.0 -471.0L206.0 -397.0C114.0 -406.0 26.0 -414.0 -39.0 -418.0ZM228.0 21.0C220.0 -93.0 204.0 -207.0 171.0 -281.0C184.0 -300.0 209.0 -344.0 217.0 -365.0C267.0 -273.0 294.0 -130.0 308.0 5.0ZM303.0 -116.0C299.0 -293.0 270.0 -429.0 177.0 -507.0C193.0 -522.0 222.0 -557.0 233.0 -574.0C343.0 -477.0 378.0 -327.0 388.0 -120.0ZM266.0 -176.0 208.0 -223.0C222.0 -322.0 262.0 -484.0 347.0 -567.0C359.0 -543.0 388.0 -508.0 405.0 -491.0C318.0 -422.0 281.0 -277.0 266.0 -176.0ZM-56.0 125.0V20.0H398.0V125.0ZM-115.0 125.0V-81.0C-115.0 -204.0 -117.0 -383.0 -165.0 -509.0C-140.0 -520.0 -94.0 -550.0 -74.0 -567.0C-24.0 -427.0 -14.0 -218.0 -14.0 -82.0V125.0ZM-11.0 266.0H25.0V232.0H-11.0ZM-104.0 348.0V150.0H123.0V348.0ZM240.0 266.0H281.0V232.0H240.0ZM146.0 348.0V150.0H382.0V348.0ZM107.0 0.0V-10.0C95.0 -39.0 74.0 -87.0 56.0 -126.0L141.0 -150.0C160.0 -110.0 176.0 -66.0 193.0 -13.0L132.0 3.0L118.0 0.0Z"/></g>
</svg>
