<?xml version="1.0" encoding="UTF-8"?>
<svg width="1700" height="300" xmlns="http://www.w3.org/2000/svg">
<rect width="100%" height="100%" fill="white"/>
<g fill="green" transform="translate(100 100) scale(0.1 -0.1)"><path d="M0.0 -0.0V-34.0H248.0V0.0H0.0ZM324.0 -104.0 310.0 -138.0H533.0V-104.0H324.0ZM42.0 -237.0V-271.0H198.0V-237.0H42.0ZM42.0 -358.0V-392.0H198.0V-358.0H42.0ZM-41.0 -118.0V-152.0H276.0V-118.0H-41.0ZM102.0 -11.0V-131.0H135.0V-11.0H102.0ZM21.0 -131.0V-507.0L55.0 -503.0V-131.0H21.0ZM186.0 -130.0V-638.0H220.0V-130.0H186.0ZM-45.0 -501.0 -38.0 -537.0C37.0 -525.0 131.0 -511.0 230.0 -496.0L228.0 -462.0C123.0 -477.0 26.0 -492.0 -45.0 -501.0ZM335.0 41.0C318.0 -92.0 288.0 -220.0 238.0 -307.0C246.0 -313.0 260.0 -326.0 266.0 -331.0C317.0 -239.0 350.0 -105.0 369.0 36.0L335.0 41.0ZM451.0 -113.0C426.0 -337.0 367.0 -509.0 241.0 -617.0C249.0 -623.0 264.0 -634.0 270.0 -639.0C396.0 -522.0 459.0 -351.0 486.0 -118.0L451.0 -113.0ZM323.0 -155.0 297.0 -185.0C320.0 -322.0 380.0 -528.0 514.0 -639.0C520.0 -631.0 532.0 -617.0 539.0 -610.0C403.0 -508.0 346.0 -301.0 323.0 -155.0ZM-57.0 100.0V65.0H522.0V100.0H-57.0ZM-75.0 100.0V-140.0C-75.0 -279.0 -82.0 -474.0 -148.0 -622.0C-139.0 -626.0 -126.0 -637.0 -120.0 -644.0C-51.0 -491.0 -40.0 -284.0 -40.0 -140.0V100.0H-75.0ZM-14.0 324.0H145.0V199.0H-14.0V324.0ZM-48.0 358.0V165.0H180.0V358.0H-48.0ZM294.0 324.0H458.0V199.0H294.0V324.0ZM260.0 358.0V165.0H492.0V358.0H260.0Z"/></g>
<g fill="green" transform="translate(200 100) scale(0.1 -0.1)"><path d="M0.0 0.0V-90.0H247.0V0.0H0.0ZM351.0 -82.0 309.0 -188.0H518.0V-82.0H351.0ZM45.0 -248.0V-327.0H201.0V-248.0H45.0ZM45.0 -360.0V-440.0H201.0V-360.0H45.0ZM-18.0 -122.0V-216.0H270.0V-122.0H-18.0ZM70.0 -38.0V-179.0H172.0V-38.0H70.0ZM4.0 -156.0V-535.0L103.0 -513.0V-156.0H4.0ZM141.0 -165.0V-660.0H241.0V-165.0H141.0ZM-39.0 -487.0 -22.0 -592.0C55.0 -580.0 142.0 -567.0 233.0 -550.0L229.0 -464.0C128.0 -473.0 32.0 -482.0 -39.0 -487.0ZM296.0 23.0C286.0 -104.0 270.0 -232.0 229.0 -316.0C248.0 -339.0 277.0 -392.0 287.0 -415.0C347.0 -311.0 379.0 -150.0 396.0 4.0L296.0 23.0ZM388.0 -132.0C377.0 -332.0 339.0 -490.0 228.0 -583.0C249.0 -601.0 285.0 -643.0 298.0 -663.0C425.0 -550.0 474.0 -372.0 492.0 -138.0L388.0 -132.0ZM350.0 -203.0 272.0 -252.0C294.0 -375.0 348.0 -565.0 457.0 -662.0C471.0 -634.0 506.0 -591.0 528.0 -571.0C423.0 -491.0 371.0 -322.0 350.0 -203.0ZM-60.0 144.0V23.0H516.0V144.0H-60.0ZM-130.0 144.0V-105.0C-130.0 -247.0 -136.0 -448.0 -206.0 -591.0C-178.0 -603.0 -124.0 -639.0 -102.0 -660.0C-24.0 -504.0 -10.0 -266.0 -10.0 -107.0V144.0H-130.0ZM-4.0 306.0H51.0V267.0H-4.0V306.0ZM-117.0 400.0V172.0H171.0V400.0H-117.0ZM312.0 306.0H370.0V267.0H312.0V306.0ZM198.0 400.0V172.0H492.0V400.0H198.0Z"/></g>
<g fill="green" transform="translate(300 100) scale(0.1 -0.1)"><path d="M0.0 -0.0V-29.0H204.0V0.0H0.0ZM268.0 -90.0 256.0 -119.0H441.0V-90.0H268.0ZM35.0 -203.0V-232.0H162.0V-203.0H35.0ZM35.0 -307.0V-336.0H162.0V-307.0H35.0ZM-35.0 -101.0V-130.0H228.0V-101.0H-35.0ZM83.0 -9.0V-112.0H111.0V-9.0H83.0ZM17.0 -112.0V-434.0L46.0 -431.0V-112.0H17.0ZM152.0 -111.0V-549.0H181.0V-111.0H152.0ZM-39.0 -429.0 -33.0 -460.0C30.0 -449.0 109.0 -437.0 193.0 -424.0L191.0 -395.0C102.0 -408.0 21.0 -421.0 -39.0 -429.0ZM277.0 34.0C263.0 -80.0 238.0 -190.0 196.0 -264.0C203.0 -269.0 214.0 -281.0 220.0 -285.0C263.0 -206.0 290.0 -91.0 306.0 30.0L277.0 34.0ZM371.0 -98.0C350.0 -289.0 303.0 -437.0 199.0 -531.0C206.0 -536.0 219.0 -545.0 224.0 -549.0C328.0 -448.0 379.0 -301.0 401.0 -102.0L371.0 -98.0ZM267.0 -135.0 245.0 -161.0C263.0 -276.0 312.0 -453.0 423.0 -549.0C429.0 -542.0 439.0 -530.0 445.0 -524.0C332.0 -436.0 286.0 -258.0 267.0 -135.0ZM-48.0 86.0V56.0H431.0V86.0H-48.0ZM-64.0 86.0V-121.0C-64.0 -240.0 -69.0 -408.0 -125.0 -536.0C-117.0 -539.0 -106.0 -549.0 -100.0 -555.0C-43.0 -423.0 -34.0 -245.0 -34.0 -121.0V86.0H-64.0ZM-12.0 279.0H117.0V171.0H-12.0V279.0ZM-41.0 308.0V142.0H147.0V308.0H-41.0ZM244.0 279.0H378.0V171.0H244.0V279.0ZM215.0 308.0V142.0H407.0V308.0H215.0Z"/></g>
<g fill="green" transform="translate(400 100) scale(0.1 -0.1)"><path d="M0.0 0.0V-77.0H204.0V0.0H0.0ZM294.0 -73.0 258.0 -163.0H430.0V-73.0H294.0ZM38.0 -212.0V-280.0H167.0V-212.0H38.0ZM38.0 -308.0V-377.0H167.0V-308.0H38.0ZM-14.0 -104.0V-185.0H225.0V-104.0H-14.0ZM58.0 -33.0V-153.0H143.0V-33.0H58.0ZM3.0 -134.0V-459.0L86.0 -440.0V-134.0H3.0ZM117.0 -142.0V-567.0H201.0V-142.0H117.0ZM-32.0 -417.0 -18.0 -507.0C47.0 -496.0 120.0 -485.0 197.0 -470.0L193.0 -397.0C108.0 -405.0 28.0 -413.0 -32.0 -417.0ZM245.0 19.0C237.0 -91.0 224.0 -202.0 190.0 -275.0C206.0 -294.0 229.0 -340.0 237.0 -359.0C288.0 -269.0 315.0 -130.0 329.0 3.0L245.0 19.0ZM320.0 -116.0C311.0 -286.0 281.0 -422.0 189.0 -502.0C207.0 -517.0 237.0 -553.0 248.0 -569.0C354.0 -472.0 393.0 -319.0 407.0 -120.0L320.0 -116.0ZM290.0 -178.0 225.0 -220.0C243.0 -323.0 288.0 -485.0 378.0 -569.0C390.0 -545.0 419.0 -509.0 438.0 -493.0C351.0 -424.0 308.0 -278.0 290.0 -178.0ZM-49.0 124.0V20.0H428.0V124.0H-49.0ZM-109.0 124.0V-90.0C-109.0 -213.0 -114.0 -386.0 -173.0 -510.0C-150.0 -520.0 -104.0 -550.0 -85.0 -568.0C-20.0 -433.0 -8.0 -229.0 -8.0 -92.0V124.0H-109.0ZM-4.0 263.0H41.0V230.0H-4.0V263.0ZM-99.0 345.0V148.0H142.0V345.0H-99.0ZM259.0 263.0H307.0V230.0H259.0V263.0ZM163.0 345.0V148.0H410.0V345.0H163.0Z"/></g>
<g fill="green" transform="translate(500 100) scale(0.1 -0.1)"><path d="M0.0 0.0V-29.0H341.0V0.0H0.0ZM440.0 -78.0 428.0 -109.0H738.0V-78.0H440.0ZM56.0 -183.0V-213.0H273.0V-183.0H56.0ZM56.0 -273.0V-303.0H273.0V-273.0H56.0ZM-25.0 -92.0V-122.0H369.0V-92.0H-25.0ZM149.0 -6.0V-102.0H177.0V-6.0H149.0ZM41.0 -104.0V-384.0L71.0 -383.0V-104.0H41.0ZM264.0 -104.0V-473.0H293.0V-104.0H264.0ZM-40.0 -382.0 -35.0 -414.0C46.0 -405.0 159.0 -393.0 274.0 -383.0L273.0 -354.0C154.0 -364.0 38.0 -375.0 -40.0 -382.0ZM466.0 26.0C436.0 -73.0 385.0 -168.0 323.0 -233.0C331.0 -238.0 346.0 -247.0 351.0 -250.0C411.0 -184.0 463.0 -84.0 495.0 21.0L466.0 26.0ZM650.0 -84.0C610.0 -281.0 493.0 -392.0 310.0 -452.0C316.0 -459.0 327.0 -469.0 332.0 -475.0C513.0 -406.0 638.0 -296.0 679.0 -90.0L650.0 -84.0ZM436.0 -118.0 411.0 -125.0C465.0 -294.0 580.0 -421.0 734.0 -475.0C738.0 -468.0 747.0 -458.0 754.0 -452.0C601.0 -404.0 487.0 -281.0 436.0 -118.0ZM-68.0 83.0V54.0H723.0V83.0H-68.0ZM-81.0 83.0V-129.0C-81.0 -229.0 -91.0 -361.0 -161.0 -459.0C-153.0 -463.0 -142.0 -472.0 -137.0 -478.0C-65.0 -377.0 -51.0 -234.0 -51.0 -129.0V83.0H-81.0ZM-31.0 219.0H230.0V156.0H-31.0V219.0ZM-61.0 249.0V127.0H261.0V249.0H-61.0ZM372.0 219.0H642.0V156.0H372.0V219.0ZM344.0 249.0V127.0H671.0V249.0H344.0Z"/></g>
<g fill="green" transform="translate(600 100) scale(0.1 -0.1)"><path d="M0.0 0.0V-73.0H341.0V0.0H0.0ZM444.0 -56.0 402.0 -160.0H716.0V-56.0H444.0ZM58.0 -193.0V-251.0H254.0V-193.0H58.0ZM58.0 -277.0V-336.0H254.0V-277.0H58.0ZM-34.0 -94.0V-169.0H365.0V-94.0H-34.0ZM110.0 -7.0V-134.0H229.0V-7.0H110.0ZM8.0 -135.0V-407.0L123.0 -401.0V-135.0H8.0ZM199.0 -123.0V-491.0H315.0V-123.0H199.0ZM-52.0 -370.0 -45.0 -460.0C44.0 -454.0 159.0 -447.0 273.0 -437.0L272.0 -356.0C152.0 -362.0 31.0 -366.0 -52.0 -370.0ZM418.0 23.0C399.0 -72.0 362.0 -165.0 308.0 -223.0C335.0 -240.0 380.0 -278.0 400.0 -299.0C461.0 -229.0 508.0 -116.0 533.0 0.0L418.0 23.0ZM569.0 -99.0C544.0 -257.0 456.0 -353.0 303.0 -402.0C326.0 -424.0 366.0 -472.0 378.0 -497.0C548.0 -428.0 650.0 -310.0 690.0 -111.0L569.0 -99.0ZM470.0 -146.0 375.0 -166.0C428.0 -324.0 517.0 -437.0 662.0 -492.0C678.0 -461.0 714.0 -413.0 739.0 -390.0C607.0 -351.0 514.0 -262.0 470.0 -146.0ZM-68.0 114.0V20.0H717.0V114.0H-68.0ZM-150.0 114.0V-73.0C-150.0 -175.0 -156.0 -310.0 -233.0 -407.0C-208.0 -423.0 -159.0 -471.0 -141.0 -497.0C-49.0 -383.0 -30.0 -201.0 -30.0 -76.0V114.0H-150.0ZM-18.0 210.0H110.0V186.0H-18.0V210.0ZM-137.0 260.0V134.0H237.0V260.0H-137.0ZM407.0 210.0H528.0V186.0H407.0V210.0ZM286.0 260.0V134.0H659.0V260.0H286.0Z"/></g>
<g fill="green" transform="translate(700 100) scale(0.1 -0.1)"><path d="M0.0 -0.0V-33.0H266.0V0.0H0.0ZM336.0 -100.0 323.0 -133.0H545.0V-100.0H336.0ZM35.0 -240.0V-273.0H216.0V-240.0H35.0ZM35.0 -362.0V-396.0H216.0V-362.0H35.0ZM-36.0 -121.0V-153.0H283.0V-121.0H-36.0ZM110.0 -11.0V-136.0H142.0V-11.0H110.0ZM18.0 -132.0V-518.0L51.0 -514.0V-132.0H18.0ZM206.0 -132.0V-643.0H239.0V-132.0H206.0ZM-55.0 -509.0 -48.0 -543.0C31.0 -534.0 128.0 -523.0 230.0 -513.0V-481.0C121.0 -492.0 19.0 -502.0 -55.0 -509.0ZM351.0 45.0C335.0 -87.0 306.0 -214.0 257.0 -299.0C265.0 -305.0 278.0 -318.0 284.0 -324.0C334.0 -233.0 366.0 -100.0 384.0 40.0L351.0 45.0ZM475.0 -108.0C449.0 -335.0 391.0 -511.0 266.0 -621.0C274.0 -627.0 289.0 -638.0 294.0 -643.0C420.0 -523.0 480.0 -349.0 509.0 -113.0L475.0 -108.0ZM342.0 -128.0 317.0 -164.0C335.0 -298.0 386.0 -523.0 529.0 -646.0C535.0 -638.0 546.0 -624.0 554.0 -617.0C408.0 -504.0 360.0 -277.0 342.0 -128.0ZM-61.0 97.0V63.0H543.0V97.0H-61.0ZM-78.0 97.0V-118.0C-78.0 -261.0 -87.0 -464.0 -154.0 -618.0C-147.0 -622.0 -133.0 -633.0 -127.0 -640.0C-56.0 -480.0 -45.0 -265.0 -45.0 -118.0V97.0H-78.0ZM-7.0 321.0H166.0V187.0H-7.0V321.0ZM-40.0 354.0V155.0H199.0V354.0H-40.0ZM308.0 321.0H486.0V187.0H308.0V321.0ZM275.0 354.0V155.0H519.0V354.0H275.0Z"/></g>
<g fill="green" transform="translate(800 100) scale(0.1 -0.1)"><path d="M0.0 0.0V-89.0H237.0V0.0H0.0ZM324.0 -69.0 282.0 -174.0H489.0V-69.0H324.0ZM36.0 -250.0V-329.0H197.0V-250.0H36.0ZM36.0 -363.0V-444.0H197.0V-363.0H36.0ZM-8.0 -123.0V-216.0H245.0V-123.0H-8.0ZM64.0 -45.0V-181.0H168.0V-45.0H64.0ZM8.0 -151.0V-546.0L93.0 -521.0V-151.0H8.0ZM139.0 -161.0V-667.0H225.0V-161.0H139.0ZM-39.0 -494.0 -20.0 -601.0C47.0 -591.0 121.0 -581.0 197.0 -568.0L193.0 -474.0C105.0 -481.0 23.0 -490.0 -39.0 -494.0ZM272.0 18.0C265.0 -100.0 253.0 -216.0 214.0 -292.0C232.0 -314.0 262.0 -361.0 271.0 -382.0C328.0 -288.0 355.0 -142.0 368.0 2.0L272.0 18.0ZM365.0 -119.0C357.0 -327.0 329.0 -496.0 226.0 -598.0C247.0 -614.0 282.0 -655.0 295.0 -674.0C413.0 -553.0 451.0 -364.0 464.0 -123.0L365.0 -119.0ZM331.0 -151.0 265.0 -218.0C278.0 -340.0 319.0 -560.0 436.0 -669.0C449.0 -641.0 484.0 -597.0 504.0 -578.0C383.0 -485.0 344.0 -285.0 331.0 -151.0ZM-91.0 136.0V19.0H491.0V136.0H-91.0ZM-132.0 136.0V-143.0C-132.0 -276.0 -138.0 -458.0 -206.0 -587.0C-176.0 -598.0 -122.0 -634.0 -99.0 -656.0C-22.0 -515.0 -9.0 -295.0 -9.0 -144.0V136.0H-132.0ZM-11.0 302.0H39.0V261.0H-11.0V302.0ZM-122.0 398.0V164.0H158.0V398.0H-122.0ZM305.0 302.0H357.0V261.0H305.0V302.0ZM194.0 398.0V164.0H476.0V398.0H194.0Z"/></g>
<g fill="green" transform="translate(900 100) scale(0.1 -0.1)"><path d="M0.0 -0.0V-34.0H256.0V0.0H0.0ZM320.0 -99.0 307.0 -132.0H524.0V-99.0H320.0ZM45.0 -242.0V-275.0H209.0V-242.0H45.0ZM45.0 -364.0V-397.0H209.0V-364.0H45.0ZM-52.0 -121.0V-155.0H281.0V-121.0H-52.0ZM108.0 -12.0V-138.0H141.0V-12.0H108.0ZM24.0 -134.0V-520.0L57.0 -515.0V-134.0H24.0ZM191.0 -133.0V-632.0H225.0V-133.0H191.0ZM-32.0 -510.0 -22.0 -546.0C51.0 -534.0 137.0 -520.0 226.0 -505.0L224.0 -474.0C127.0 -489.0 37.0 -502.0 -32.0 -510.0ZM330.0 54.0C315.0 -80.0 287.0 -213.0 245.0 -305.0C253.0 -311.0 266.0 -324.0 272.0 -329.0C316.0 -233.0 345.0 -92.0 363.0 48.0L330.0 54.0ZM448.0 -108.0C423.0 -330.0 366.0 -502.0 243.0 -611.0C252.0 -617.0 267.0 -627.0 273.0 -632.0C394.0 -515.0 455.0 -344.0 483.0 -113.0L448.0 -108.0ZM317.0 -148.0 291.0 -181.0C311.0 -311.0 370.0 -521.0 512.0 -633.0C519.0 -625.0 530.0 -611.0 537.0 -604.0C391.0 -500.0 337.0 -289.0 317.0 -148.0ZM-47.0 99.0V64.0H522.0V99.0H-47.0ZM-66.0 99.0V-127.0C-66.0 -267.0 -74.0 -459.0 -144.0 -607.0C-137.0 -611.0 -124.0 -622.0 -118.0 -629.0C-43.0 -477.0 -32.0 -272.0 -32.0 -128.0V99.0H-66.0ZM-2.0 340.0H151.0V205.0H-2.0V340.0ZM-36.0 373.0V173.0H186.0V373.0H-36.0ZM293.0 340.0H450.0V205.0H293.0V340.0ZM261.0 373.0V173.0H484.0V373.0H261.0Z"/></g>
<g fill="green" transform="translate(1000 100) scale(0.1 -0.1)"><path d="M0.0 0.0V-89.0H260.0V0.0H0.0ZM352.0 -63.0 310.0 -168.0H516.0V-63.0H352.0ZM44.0 -252.0V-331.0H208.0V-252.0H44.0ZM44.0 -365.0V-446.0H208.0V-365.0H44.0ZM-29.0 -125.0V-218.0H274.0V-125.0H-29.0ZM70.0 -45.0V-182.0H175.0V-45.0H70.0ZM-1.0 -153.0V-528.0L109.0 -505.0V-153.0H-1.0ZM132.0 -163.0V-656.0H244.0V-163.0H132.0ZM-43.0 -494.0 -22.0 -601.0C56.0 -589.0 146.0 -576.0 238.0 -561.0L234.0 -468.0C130.0 -478.0 30.0 -488.0 -43.0 -494.0ZM302.0 33.0C292.0 -89.0 277.0 -212.0 242.0 -295.0C260.0 -321.0 288.0 -382.0 297.0 -407.0C355.0 -302.0 388.0 -140.0 406.0 11.0L302.0 33.0ZM393.0 -110.0C381.0 -317.0 345.0 -480.0 230.0 -575.0C251.0 -594.0 289.0 -638.0 303.0 -659.0C434.0 -543.0 483.0 -358.0 501.0 -117.0L393.0 -110.0ZM364.0 -195.0 280.0 -243.0C296.0 -362.0 344.0 -560.0 450.0 -658.0C465.0 -629.0 500.0 -584.0 523.0 -562.0C422.0 -483.0 381.0 -310.0 364.0 -195.0ZM-58.0 147.0V25.0H512.0V147.0H-58.0ZM-133.0 147.0V-80.0C-133.0 -225.0 -138.0 -438.0 -203.0 -588.0C-172.0 -599.0 -114.0 -634.0 -89.0 -656.0C-20.0 -492.0 -6.0 -243.0 -6.0 -81.0V147.0H-133.0ZM22.0 317.0H51.0V277.0H22.0V317.0ZM-97.0 417.0V176.0H177.0V417.0H-97.0ZM322.0 317.0H357.0V277.0H322.0V317.0ZM203.0 417.0V176.0H483.0V417.0H203.0Z"/></g>
<g fill="red" transform="translate(100 200) scale(0.1 -0.1)"><path d="M0.0 0.0V-30.0H287.0V0.0H0.0ZM354.0 -85.0 343.0 -114.0H580.0V-85.0H354.0ZM41.0 -210.0V-240.0H236.0V-210.0H41.0ZM41.0 -316.0V-345.0H236.0V-316.0H41.0ZM-42.0 -106.0V-136.0H306.0V-106.0H-42.0ZM125.0 -10.0V-121.0H155.0V-10.0H125.0ZM26.0 -117.0V-452.0L56.0 -448.0V-117.0H26.0ZM223.0 -117.0V-545.0H253.0V-117.0H223.0ZM-38.0 -443.0 -27.0 -475.0C50.0 -467.0 143.0 -457.0 238.0 -445.0V-421.0C135.0 -430.0 36.0 -439.0 -38.0 -443.0ZM372.0 48.0C353.0 -65.0 320.0 -179.0 275.0 -256.0C283.0 -261.0 295.0 -272.0 300.0 -277.0C345.0 -196.0 380.0 -76.0 402.0 42.0L372.0 48.0ZM514.0 -92.0C484.0 -294.0 408.0 -437.0 269.0 -526.0C277.0 -531.0 290.0 -540.0 295.0 -546.0C432.0 -450.0 511.0 -308.0 545.0 -96.0L514.0 -92.0ZM353.0 -109.0 330.0 -136.0C356.0 -269.0 425.0 -454.0 575.0 -549.0C580.0 -541.0 590.0 -530.0 597.0 -524.0C445.0 -436.0 378.0 -251.0 353.0 -109.0ZM-51.0 86.0V56.0H585.0V86.0H-51.0ZM-67.0 86.0V-98.0C-67.0 -219.0 -76.0 -387.0 -140.0 -514.0C-134.0 -518.0 -122.0 -528.0 -117.0 -535.0C-48.0 -401.0 -38.0 -223.0 -38.0 -99.0V86.0H-67.0ZM-6.0 281.0H192.0V171.0H-6.0V281.0ZM-36.0 310.0V142.0H221.0V310.0H-36.0ZM315.0 281.0H516.0V171.0H315.0V281.0ZM286.0 310.0V142.0H546.0V310.0H286.0Z"/></g>
<g fill="black" opacity=".8" transform="translate(100 200) scale(0.1 -0.1)"><path d="M0.0 0.0V-30.0H289.0V0.0H0.0ZM353.0 -81.0 342.0 -111.0H578.0V-81.0H353.0ZM43.0 -211.0V-240.0H238.0V-211.0H43.0ZM43.0 -316.0V-346.0H238.0V-316.0H43.0ZM-40.0 -107.0V-136.0H305.0V-107.0H-40.0ZM125.0 -9.0V-124.0H154.0V-9.0H125.0ZM28.0 -118.0V-455.0L57.0 -451.0V-118.0H28.0ZM223.0 -118.0V-541.0H253.0V-118.0H223.0ZM-35.0 -445.0 -26.0 -476.0C48.0 -467.0 138.0 -457.0 230.0 -448.0V-422.0C130.0 -432.0 35.0 -439.0 -35.0 -445.0ZM371.0 49.0C353.0 -65.0 319.0 -178.0 276.0 -256.0C284.0 -261.0 295.0 -272.0 301.0 -277.0C345.0 -196.0 378.0 -75.0 400.0 43.0L371.0 49.0ZM513.0 -88.0C483.0 -290.0 409.0 -433.0 272.0 -520.0C280.0 -526.0 293.0 -535.0 297.0 -540.0C432.0 -445.0 510.0 -304.0 543.0 -93.0L513.0 -88.0ZM354.0 -108.0 330.0 -135.0C357.0 -267.0 427.0 -450.0 575.0 -543.0C581.0 -536.0 589.0 -524.0 597.0 -518.0C445.0 -432.0 380.0 -249.0 354.0 -108.0ZM-51.0 85.0V55.0H582.0V85.0H-51.0ZM-67.0 85.0V-100.0C-67.0 -221.0 -76.0 -385.0 -145.0 -511.0C-140.0 -515.0 -128.0 -525.0 -122.0 -531.0C-49.0 -401.0 -38.0 -226.0 -38.0 -101.0V85.0H-67.0ZM-3.0 282.0H189.0V170.0H-3.0V282.0ZM-33.0 311.0V143.0H219.0V311.0H-33.0ZM315.0 282.0H512.0V170.0H315.0V282.0ZM288.0 311.0V143.0H541.0V311.0H288.0Z"/></g>
<g fill="red" transform="translate(200 200) scale(0.1 -0.1)"><path d="M0.0 0.0V-78.0H266.0V0.0H0.0ZM355.0 -38.0 316.0 -134.0H540.0V-38.0H355.0ZM37.0 -218.0V-287.0H200.0V-218.0H37.0ZM37.0 -317.0V-386.0H200.0V-317.0H37.0ZM-34.0 -108.0V-189.0H273.0V-108.0H-34.0ZM75.0 -35.0V-157.0H182.0V-35.0H75.0ZM-2.0 -134.0V-460.0L100.0 -442.0V-134.0H-2.0ZM142.0 -138.0V-561.0H245.0V-138.0H142.0ZM-45.0 -428.0 -29.0 -524.0C44.0 -516.0 129.0 -506.0 214.0 -496.0L212.0 -408.0C116.0 -416.0 23.0 -424.0 -45.0 -428.0ZM316.0 28.0C305.0 -67.0 284.0 -161.0 246.0 -224.0C266.0 -245.0 299.0 -292.0 311.0 -313.0C365.0 -235.0 399.0 -112.0 417.0 7.0L316.0 28.0ZM422.0 -90.0C407.0 -273.0 359.0 -409.0 239.0 -487.0C260.0 -505.0 296.0 -547.0 308.0 -567.0C443.0 -470.0 503.0 -315.0 525.0 -98.0L422.0 -90.0ZM375.0 -118.0 298.0 -166.0C318.0 -291.0 367.0 -473.0 486.0 -561.0C501.0 -532.0 534.0 -487.0 556.0 -466.0C438.0 -396.0 393.0 -238.0 375.0 -118.0ZM-78.0 125.0V22.0H544.0V125.0H-78.0ZM-136.0 125.0V-77.0C-136.0 -195.0 -141.0 -364.0 -202.0 -483.0C-173.0 -495.0 -119.0 -532.0 -97.0 -553.0C-28.0 -420.0 -15.0 -214.0 -15.0 -77.0V125.0H-136.0ZM9.0 266.0H58.0V232.0H9.0V266.0ZM-105.0 348.0V150.0H179.0V348.0H-105.0ZM333.0 266.0H385.0V232.0H333.0V266.0ZM219.0 348.0V150.0H506.0V348.0H219.0Z"/></g>
<g fill="black" opacity=".8" transform="translate(200 200) scale(0.1 -0.1)"><path d="M0.0 0.0V-77.0H274.0V0.0H0.0ZM348.0 -41.0 308.0 -138.0H540.0V-41.0H348.0ZM40.0 -220.0V-287.0H213.0V-220.0H40.0ZM40.0 -317.0V-387.0H213.0V-317.0H40.0ZM-27.0 -109.0V-189.0H277.0V-109.0H-27.0ZM77.0 -36.0V-157.0H184.0V-36.0H77.0ZM3.0 -134.0V-460.0L104.0 -442.0V-134.0H3.0ZM144.0 -136.0V-563.0H247.0V-136.0H144.0ZM-45.0 -429.0 -28.0 -527.0C43.0 -519.0 130.0 -511.0 215.0 -502.0L212.0 -410.0C116.0 -417.0 22.0 -425.0 -45.0 -429.0ZM314.0 28.0C303.0 -69.0 284.0 -164.0 248.0 -228.0C267.0 -249.0 300.0 -298.0 311.0 -319.0C364.0 -239.0 398.0 -114.0 415.0 8.0L314.0 28.0ZM422.0 -82.0C407.0 -268.0 362.0 -408.0 243.0 -488.0C264.0 -506.0 301.0 -549.0 314.0 -570.0C447.0 -471.0 505.0 -310.0 527.0 -90.0L422.0 -82.0ZM375.0 -127.0 298.0 -175.0C318.0 -299.0 367.0 -479.0 486.0 -565.0C500.0 -536.0 533.0 -491.0 555.0 -470.0C438.0 -401.0 394.0 -245.0 375.0 -127.0ZM-79.0 123.0V20.0H540.0V123.0H-79.0ZM-135.0 123.0V-89.0C-135.0 -206.0 -139.0 -370.0 -202.0 -486.0C-172.0 -497.0 -119.0 -534.0 -96.0 -558.0C-27.0 -428.0 -12.0 -226.0 -12.0 -90.0V123.0H-135.0ZM12.0 262.0H62.0V229.0H12.0V262.0ZM-102.0 342.0V147.0H183.0V342.0H-102.0ZM335.0 262.0H386.0V229.0H335.0V262.0ZM221.0 342.0V147.0H506.0V342.0H221.0Z"/></g>
<g fill="red" transform="translate(300 200) scale(0.1 -0.1)"><path d="M0.0 0.0V-29.0H225.0V0.0H0.0ZM297.0 -98.0 285.0 -127.0H492.0V-98.0H297.0ZM32.0 -204.0V-233.0H178.0V-204.0H32.0ZM32.0 -308.0V-337.0H178.0V-308.0H32.0ZM-42.0 -101.0V-130.0H254.0V-101.0H-42.0ZM93.0 -10.0V-112.0H122.0V-10.0H93.0ZM16.0 -112.0V-436.0L46.0 -432.0V-112.0H16.0ZM172.0 -112.0V-557.0H202.0V-112.0H172.0ZM-44.0 -431.0 -37.0 -462.0C26.0 -453.0 103.0 -441.0 184.0 -428.0L182.0 -400.0C96.0 -412.0 16.0 -424.0 -44.0 -431.0ZM307.0 29.0C291.0 -84.0 263.0 -193.0 218.0 -267.0C226.0 -272.0 238.0 -283.0 243.0 -288.0C288.0 -210.0 318.0 -95.0 337.0 24.0L307.0 29.0ZM412.0 -106.0C389.0 -301.0 330.0 -448.0 212.0 -540.0C220.0 -545.0 233.0 -554.0 238.0 -559.0C355.0 -460.0 416.0 -314.0 443.0 -110.0L412.0 -106.0ZM294.0 -140.0 271.0 -166.0C293.0 -287.0 350.0 -465.0 474.0 -559.0C479.0 -552.0 489.0 -540.0 496.0 -534.0C369.0 -447.0 315.0 -268.0 294.0 -140.0ZM-52.0 79.0V49.0H487.0V79.0H-52.0ZM-67.0 79.0V-125.0C-67.0 -245.0 -73.0 -414.0 -128.0 -542.0C-120.0 -546.0 -109.0 -555.0 -104.0 -562.0C-46.0 -428.0 -37.0 -249.0 -37.0 -125.0V79.0H-67.0ZM-3.0 272.0H142.0V165.0H-3.0V272.0ZM-33.0 301.0V135.0H171.0V301.0H-33.0ZM273.0 272.0H421.0V165.0H273.0V272.0ZM244.0 301.0V135.0H451.0V301.0H244.0Z"/></g>
<g fill="black" opacity=".8" transform="translate(300 200) scale(0.1 -0.1)"><path d="M0.0 0.0V-29.0H228.0V0.0H0.0ZM296.0 -89.0 284.0 -119.0H488.0V-89.0H296.0ZM38.0 -205.0V-234.0H182.0V-205.0H38.0ZM38.0 -309.0V-339.0H182.0V-309.0H38.0ZM-35.0 -102.0V-132.0H252.0V-102.0H-35.0ZM95.0 -9.0V-114.0H123.0V-9.0H95.0ZM20.0 -113.0V-438.0L50.0 -435.0V-113.0H20.0ZM172.0 -113.0V-549.0H202.0V-113.0H172.0ZM-40.0 -433.0 -34.0 -464.0C33.0 -454.0 118.0 -442.0 207.0 -429.0L205.0 -400.0C111.0 -413.0 24.0 -425.0 -40.0 -433.0ZM308.0 35.0C292.0 -79.0 263.0 -189.0 219.0 -264.0C226.0 -269.0 238.0 -281.0 244.0 -285.0C289.0 -206.0 319.0 -90.0 337.0 31.0L308.0 35.0ZM416.0 -97.0C392.0 -292.0 336.0 -439.0 220.0 -531.0C227.0 -536.0 240.0 -545.0 245.0 -550.0C361.0 -450.0 421.0 -305.0 447.0 -101.0L416.0 -97.0ZM295.0 -131.0 273.0 -156.0C295.0 -280.0 352.0 -456.0 472.0 -550.0C478.0 -543.0 488.0 -531.0 495.0 -525.0C372.0 -439.0 318.0 -262.0 295.0 -131.0ZM-51.0 87.0V56.0H479.0V87.0H-51.0ZM-67.0 87.0V-120.0C-67.0 -240.0 -73.0 -407.0 -132.0 -534.0C-125.0 -538.0 -113.0 -547.0 -107.0 -554.0C-47.0 -422.0 -37.0 -245.0 -37.0 -121.0V87.0H-67.0ZM-13.0 277.0H137.0V171.0H-13.0V277.0ZM-42.0 307.0V142.0H167.0V307.0H-42.0ZM267.0 277.0H422.0V171.0H267.0V277.0ZM237.0 307.0V142.0H451.0V307.0H237.0Z"/></g>
<g fill="red" transform="translate(400 200) scale(0.1 -0.1)"><path d="M0.0 0.0V-78.0H221.0V0.0H0.0ZM316.0 -67.0 280.0 -157.0H474.0V-67.0H316.0ZM40.0 -213.0V-282.0H171.0V-213.0H40.0ZM40.0 -310.0V-379.0H171.0V-310.0H40.0ZM-18.0 -105.0V-186.0H244.0V-105.0H-18.0ZM66.0 -32.0V-154.0H156.0V-32.0H66.0ZM2.0 -134.0V-460.0L90.0 -441.0V-134.0H2.0ZM131.0 -143.0V-566.0H220.0V-143.0H131.0ZM-35.0 -419.0 -21.0 -510.0C43.0 -499.0 113.0 -487.0 188.0 -473.0L185.0 -400.0C102.0 -408.0 24.0 -415.0 -35.0 -419.0ZM272.0 20.0C263.0 -82.0 248.0 -185.0 213.0 -253.0C230.0 -273.0 257.0 -320.0 265.0 -340.0C317.0 -255.0 345.0 -124.0 361.0 2.0L272.0 20.0ZM356.0 -113.0C345.0 -286.0 307.0 -420.0 205.0 -498.0C224.0 -514.0 256.0 -551.0 267.0 -569.0C383.0 -473.0 431.0 -322.0 448.0 -119.0L356.0 -113.0ZM321.0 -162.0 252.0 -205.0C273.0 -314.0 323.0 -480.0 420.0 -566.0C433.0 -541.0 464.0 -503.0 484.0 -485.0C389.0 -415.0 341.0 -267.0 321.0 -162.0ZM-52.0 125.0V21.0H475.0V125.0H-52.0ZM-115.0 125.0V-81.0C-115.0 -205.0 -122.0 -380.0 -194.0 -504.0C-169.0 -515.0 -123.0 -546.0 -105.0 -564.0C-25.0 -429.0 -11.0 -222.0 -11.0 -82.0V125.0H-115.0ZM0.0 266.0H52.0V232.0H0.0V266.0ZM-100.0 348.0V150.0H157.0V348.0H-100.0ZM283.0 266.0H338.0V232.0H283.0V266.0ZM182.0 348.0V150.0H445.0V348.0H182.0Z"/></g>
<g fill="black" opacity=".8" transform="translate(400 200) scale(0.1 -0.1)"><path d="M0.0 0.0V-78.0H225.0V0.0H0.0ZM316.0 -69.0 278.0 -162.0H471.0V-69.0H316.0ZM40.0 -214.0V-282.0H181.0V-214.0H40.0ZM40.0 -311.0V-380.0H181.0V-311.0H40.0ZM-17.0 -105.0V-187.0H244.0V-105.0H-17.0ZM65.0 -32.0V-154.0H156.0V-32.0H65.0ZM4.0 -136.0V-462.0L92.0 -443.0V-136.0H4.0ZM129.0 -142.0V-568.0H218.0V-142.0H129.0ZM-36.0 -420.0 -22.0 -512.0C47.0 -502.0 125.0 -492.0 206.0 -478.0L203.0 -401.0C113.0 -408.0 28.0 -416.0 -36.0 -420.0ZM269.0 20.0C260.0 -88.0 244.0 -197.0 208.0 -269.0C225.0 -288.0 252.0 -334.0 261.0 -353.0C314.0 -265.0 343.0 -129.0 359.0 3.0L269.0 20.0ZM356.0 -112.0C345.0 -286.0 308.0 -421.0 207.0 -500.0C226.0 -516.0 258.0 -554.0 269.0 -571.0C385.0 -475.0 431.0 -322.0 448.0 -117.0L356.0 -112.0ZM317.0 -170.0 248.0 -212.0C269.0 -324.0 319.0 -487.0 418.0 -570.0C431.0 -545.0 462.0 -506.0 481.0 -489.0C385.0 -421.0 338.0 -276.0 317.0 -170.0ZM-56.0 124.0V20.0H470.0V124.0H-56.0ZM-117.0 124.0V-92.0C-117.0 -214.0 -122.0 -384.0 -184.0 -505.0C-159.0 -516.0 -112.0 -549.0 -92.0 -569.0C-23.0 -435.0 -10.0 -231.0 -10.0 -94.0V124.0H-117.0ZM-4.0 262.0H49.0V229.0H-4.0V262.0ZM-105.0 342.0V148.0H156.0V342.0H-105.0ZM283.0 262.0H338.0V229.0H283.0V262.0ZM182.0 342.0V148.0H447.0V342.0H182.0Z"/></g>
<g fill="red" transform="translate(500 200) scale(0.1 -0.1)"><path d="M0.0 0.0V-30.0H260.0V0.0H0.0ZM321.0 -82.0 309.0 -111.0H529.0V-82.0H321.0ZM42.0 -210.0V-240.0H210.0V-210.0H42.0ZM42.0 -316.0V-345.0H210.0V-316.0H42.0ZM-44.0 -106.0V-136.0H275.0V-106.0H-44.0ZM107.0 -10.0V-121.0H137.0V-10.0H107.0ZM26.0 -117.0V-452.0L55.0 -448.0V-117.0H26.0ZM194.0 -117.0V-545.0H223.0V-117.0H194.0ZM-30.0 -443.0 -23.0 -475.0C44.0 -465.0 126.0 -453.0 210.0 -441.0L209.0 -413.0C118.0 -425.0 33.0 -437.0 -30.0 -443.0ZM331.0 45.0C315.0 -76.0 289.0 -196.0 245.0 -276.0C251.0 -281.0 264.0 -291.0 268.0 -295.0C313.0 -211.0 343.0 -87.0 360.0 40.0L331.0 45.0ZM455.0 -92.0C430.0 -289.0 367.0 -435.0 243.0 -526.0C250.0 -531.0 263.0 -540.0 268.0 -545.0C391.0 -447.0 457.0 -302.0 486.0 -96.0L455.0 -92.0ZM318.0 -126.0 296.0 -152.0C319.0 -276.0 382.0 -453.0 515.0 -545.0C520.0 -538.0 530.0 -526.0 537.0 -520.0C401.0 -435.0 342.0 -257.0 318.0 -126.0ZM-49.0 86.0V56.0H529.0V86.0H-49.0ZM-63.0 86.0V-136.0C-63.0 -251.0 -73.0 -406.0 -149.0 -523.0C-142.0 -527.0 -132.0 -537.0 -127.0 -543.0C-46.0 -422.0 -34.0 -255.0 -34.0 -136.0V86.0H-63.0ZM-8.0 290.0H163.0V180.0H-8.0V290.0ZM-38.0 319.0V150.0H193.0V319.0H-38.0ZM287.0 290.0H461.0V180.0H287.0V290.0ZM257.0 319.0V150.0H491.0V319.0H257.0Z"/></g>
<g fill="black" opacity=".8" transform="translate(500 200) scale(0.1 -0.1)"><path d="M0.0 0.0V-30.0H255.0V0.0H0.0ZM319.0 -86.0 308.0 -116.0H525.0V-86.0H319.0ZM42.0 -211.0V-240.0H207.0V-211.0H42.0ZM42.0 -317.0V-346.0H207.0V-317.0H42.0ZM-41.0 -106.0V-136.0H276.0V-106.0H-41.0ZM108.0 -9.0V-120.0H137.0V-9.0H108.0ZM25.0 -117.0V-452.0L54.0 -448.0V-117.0H25.0ZM193.0 -116.0V-550.0H223.0V-116.0H193.0ZM-34.0 -444.0 -26.0 -476.0C44.0 -465.0 129.0 -454.0 217.0 -442.0L216.0 -414.0C121.0 -426.0 32.0 -437.0 -34.0 -444.0ZM333.0 44.0C316.0 -72.0 286.0 -186.0 243.0 -264.0C251.0 -269.0 263.0 -281.0 268.0 -285.0C312.0 -203.0 343.0 -83.0 362.0 39.0L333.0 44.0ZM455.0 -94.0C429.0 -293.0 365.0 -440.0 241.0 -530.0C248.0 -536.0 261.0 -545.0 266.0 -550.0C389.0 -451.0 458.0 -306.0 486.0 -98.0L455.0 -94.0ZM318.0 -125.0 295.0 -151.0C319.0 -278.0 382.0 -458.0 516.0 -551.0C522.0 -544.0 531.0 -532.0 538.0 -526.0C402.0 -439.0 342.0 -259.0 318.0 -125.0ZM-49.0 87.0V57.0H522.0V87.0H-49.0ZM-65.0 87.0V-113.0C-65.0 -234.0 -73.0 -400.0 -137.0 -528.0C-131.0 -531.0 -119.0 -541.0 -113.0 -547.0C-45.0 -417.0 -35.0 -239.0 -35.0 -114.0V87.0H-65.0ZM-7.0 287.0H158.0V176.0H-7.0V287.0ZM-37.0 316.0V147.0H189.0V316.0H-37.0ZM287.0 287.0H457.0V176.0H287.0V287.0ZM258.0 316.0V147.0H486.0V316.0H258.0Z"/></g>
<g fill="red" transform="translate(600 200) scale(0.1 -0.1)"><path d="M0.0 0.0V-78.0H257.0V0.0H0.0ZM328.0 -58.0 290.0 -153.0H504.0V-58.0H328.0ZM44.0 -219.0V-288.0H207.0V-219.0H44.0ZM44.0 -318.0V-387.0H207.0V-318.0H44.0ZM-22.0 -109.0V-190.0H267.0V-109.0H-22.0ZM71.0 -36.0V-158.0H171.0V-36.0H71.0ZM5.0 -135.0V-461.0L104.0 -442.0V-135.0H5.0ZM135.0 -139.0V-571.0H235.0V-139.0H135.0ZM-42.0 -429.0 -27.0 -525.0C46.0 -516.0 131.0 -506.0 217.0 -495.0L215.0 -409.0C119.0 -417.0 26.0 -425.0 -42.0 -429.0ZM292.0 27.0C283.0 -78.0 267.0 -184.0 232.0 -254.0C250.0 -276.0 279.0 -328.0 289.0 -350.0C342.0 -261.0 372.0 -123.0 389.0 8.0L292.0 27.0ZM384.0 -90.0C372.0 -273.0 332.0 -414.0 222.0 -495.0C242.0 -513.0 277.0 -554.0 290.0 -574.0C414.0 -473.0 466.0 -313.0 485.0 -97.0L384.0 -90.0ZM351.0 -169.0 272.0 -208.0C292.0 -323.0 342.0 -490.0 446.0 -573.0C460.0 -546.0 492.0 -504.0 514.0 -484.0C415.0 -419.0 370.0 -274.0 351.0 -169.0ZM-60.0 125.0V21.0H503.0V125.0H-60.0ZM-123.0 125.0V-90.0C-123.0 -212.0 -129.0 -384.0 -200.0 -504.0C-173.0 -516.0 -122.0 -551.0 -102.0 -571.0C-23.0 -438.0 -8.0 -230.0 -8.0 -91.0V125.0H-123.0ZM15.0 266.0H58.0V232.0H15.0V266.0ZM-93.0 348.0V150.0H173.0V348.0H-93.0ZM310.0 266.0H356.0V232.0H310.0V266.0ZM201.0 348.0V150.0H471.0V348.0H201.0Z"/></g>
<g fill="black" opacity=".8" transform="translate(600 200) scale(0.1 -0.1)"><path d="M0.0 0.0V-78.0H251.0V0.0H0.0ZM335.0 -55.0 297.0 -151.0H506.0V-55.0H335.0ZM41.0 -219.0V-288.0H198.0V-219.0H41.0ZM41.0 -318.0V-388.0H198.0V-318.0H41.0ZM-25.0 -108.0V-190.0H264.0V-108.0H-25.0ZM71.0 -35.0V-157.0H170.0V-35.0H71.0ZM2.0 -136.0V-463.0L100.0 -445.0V-136.0H2.0ZM134.0 -141.0V-571.0H234.0V-141.0H134.0ZM-41.0 -429.0 -25.0 -525.0C47.0 -515.0 132.0 -505.0 218.0 -493.0L214.0 -409.0C119.0 -417.0 26.0 -425.0 -41.0 -429.0ZM294.0 27.0C284.0 -79.0 267.0 -183.0 231.0 -253.0C249.0 -274.0 278.0 -324.0 288.0 -346.0C342.0 -258.0 374.0 -123.0 391.0 7.0L294.0 27.0ZM390.0 -98.0C377.0 -279.0 336.0 -417.0 225.0 -497.0C244.0 -514.0 279.0 -555.0 292.0 -575.0C417.0 -476.0 470.0 -318.0 490.0 -104.0L390.0 -98.0ZM350.0 -159.0 273.0 -202.0C294.0 -318.0 344.0 -489.0 450.0 -573.0C464.0 -545.0 496.0 -503.0 517.0 -484.0C415.0 -417.0 370.0 -268.0 350.0 -159.0ZM-62.0 127.0V21.0H505.0V127.0H-62.0ZM-126.0 127.0V-81.0C-126.0 -204.0 -130.0 -379.0 -192.0 -503.0C-165.0 -514.0 -114.0 -549.0 -92.0 -570.0C-24.0 -433.0 -10.0 -222.0 -10.0 -82.0V127.0H-126.0ZM9.0 268.0H56.0V234.0H9.0V268.0ZM-99.0 350.0V151.0H171.0V350.0H-99.0ZM310.0 268.0H359.0V234.0H310.0V268.0ZM201.0 350.0V151.0H475.0V350.0H201.0Z"/></g>
<g fill="red" transform="translate(700 200) scale(0.1 -0.1)"><path d="M0.0 0.0V-29.0H270.0V0.0H0.0ZM337.0 -84.0 325.0 -113.0H550.0V-84.0H337.0ZM37.0 -209.0V-239.0H219.0V-209.0H37.0ZM37.0 -315.0V-345.0H219.0V-315.0H37.0ZM-26.0 -106.0V-135.0H283.0V-106.0H-26.0ZM113.0 -9.0V-120.0H142.0V-9.0H113.0ZM23.0 -116.0V-451.0L52.0 -448.0V-116.0H23.0ZM210.0 -116.0V-553.0H239.0V-116.0H210.0ZM-49.0 -443.0 -44.0 -472.0C29.0 -466.0 124.0 -457.0 222.0 -449.0V-420.0C118.0 -429.0 21.0 -438.0 -49.0 -443.0ZM355.0 39.0C337.0 -74.0 307.0 -184.0 259.0 -257.0C266.0 -262.0 278.0 -273.0 283.0 -278.0C331.0 -200.0 365.0 -86.0 385.0 34.0L355.0 39.0ZM486.0 -91.0C459.0 -293.0 394.0 -441.0 265.0 -533.0C272.0 -538.0 285.0 -548.0 290.0 -553.0C418.0 -453.0 487.0 -306.0 516.0 -95.0L486.0 -91.0ZM344.0 -107.0 321.0 -134.0C345.0 -266.0 405.0 -455.0 541.0 -555.0C546.0 -548.0 556.0 -536.0 563.0 -530.0C425.0 -438.0 367.0 -248.0 344.0 -107.0ZM-59.0 87.0V57.0H546.0V87.0H-59.0ZM-74.0 87.0V-104.0C-74.0 -226.0 -83.0 -400.0 -148.0 -530.0C-141.0 -534.0 -129.0 -544.0 -124.0 -550.0C-56.0 -414.0 -45.0 -230.0 -45.0 -104.0V87.0H-74.0ZM-10.0 272.0H171.0V162.0H-10.0V272.0ZM-39.0 301.0V133.0H200.0V301.0H-39.0ZM304.0 272.0H490.0V162.0H304.0V272.0ZM274.0 301.0V133.0H519.0V301.0H274.0Z"/></g>
<g fill="black" opacity=".8" transform="translate(700 200) scale(0.1 -0.1)"><path d="M0.0 0.0V-29.0H268.0V0.0H0.0ZM338.0 -86.0 327.0 -116.0H552.0V-86.0H338.0ZM35.0 -209.0V-239.0H218.0V-209.0H35.0ZM35.0 -315.0V-345.0H218.0V-315.0H35.0ZM-29.0 -106.0V-134.0H283.0V-106.0H-29.0ZM113.0 -9.0V-119.0H141.0V-9.0H113.0ZM21.0 -116.0V-450.0L51.0 -447.0V-116.0H21.0ZM209.0 -116.0V-556.0H239.0V-116.0H209.0ZM-51.0 -442.0 -45.0 -473.0C30.0 -465.0 124.0 -456.0 223.0 -448.0V-420.0C119.0 -428.0 20.0 -436.0 -51.0 -442.0ZM356.0 38.0C338.0 -76.0 306.0 -186.0 258.0 -258.0C266.0 -264.0 277.0 -275.0 283.0 -280.0C332.0 -202.0 365.0 -88.0 385.0 33.0L356.0 38.0ZM487.0 -93.0C459.0 -297.0 392.0 -445.0 263.0 -536.0C270.0 -541.0 283.0 -551.0 287.0 -556.0C417.0 -456.0 487.0 -310.0 517.0 -98.0L487.0 -93.0ZM343.0 -108.0 321.0 -137.0C344.0 -268.0 404.0 -458.0 541.0 -559.0C546.0 -552.0 556.0 -540.0 563.0 -533.0C424.0 -441.0 367.0 -250.0 343.0 -108.0ZM-59.0 86.0V56.0H550.0V86.0H-59.0ZM-74.0 86.0V-106.0C-74.0 -229.0 -83.0 -402.0 -146.0 -533.0C-140.0 -537.0 -127.0 -547.0 -121.0 -553.0C-56.0 -417.0 -45.0 -233.0 -45.0 -106.0V86.0H-74.0ZM-10.0 271.0H174.0V162.0H-10.0V271.0ZM-40.0 301.0V134.0H204.0V301.0H-40.0ZM303.0 271.0H494.0V162.0H303.0V271.0ZM274.0 301.0V134.0H523.0V301.0H274.0Z"/></g>
<g fill="red" transform="translate(800 200) scale(0.1 -0.1)"><path d="M0.0 0.0V-78.0H244.0V0.0H0.0ZM316.0 -60.0 277.0 -156.0H497.0V-60.0H316.0ZM38.0 -218.0V-287.0H201.0V-218.0H38.0ZM38.0 -317.0V-386.0H201.0V-317.0H38.0ZM-8.0 -108.0V-189.0H249.0V-108.0H-8.0ZM68.0 -35.0V-157.0H170.0V-35.0H68.0ZM11.0 -134.0V-476.0L92.0 -457.0V-134.0H11.0ZM143.0 -138.0V-579.0H225.0V-138.0H143.0ZM-40.0 -430.0 -23.0 -526.0C42.0 -519.0 117.0 -511.0 192.0 -502.0L190.0 -414.0C103.0 -420.0 21.0 -427.0 -40.0 -430.0ZM277.0 16.0C269.0 -87.0 254.0 -187.0 214.0 -252.0C233.0 -270.0 265.0 -310.0 276.0 -328.0C329.0 -249.0 356.0 -125.0 369.0 1.0L277.0 16.0ZM379.0 -98.0C369.0 -282.0 333.0 -427.0 229.0 -512.0C249.0 -528.0 282.0 -567.0 294.0 -586.0C412.0 -482.0 458.0 -320.0 474.0 -104.0L379.0 -98.0ZM333.0 -129.0 268.0 -184.0C286.0 -305.0 332.0 -490.0 450.0 -581.0C463.0 -555.0 494.0 -513.0 514.0 -494.0C395.0 -418.0 350.0 -253.0 333.0 -129.0ZM-90.0 117.0V16.0H496.0V117.0H-90.0ZM-126.0 117.0V-135.0C-126.0 -246.0 -131.0 -395.0 -193.0 -500.0C-167.0 -512.0 -117.0 -548.0 -98.0 -569.0C-25.0 -452.0 -12.0 -266.0 -12.0 -136.0V117.0H-126.0ZM-14.0 253.0H50.0V219.0H-14.0V253.0ZM-118.0 331.0V141.0H161.0V331.0H-118.0ZM304.0 253.0H368.0V219.0H304.0V253.0ZM200.0 331.0V141.0H479.0V331.0H200.0Z"/></g>
<g fill="black" opacity=".8" transform="translate(800 200) scale(0.1 -0.1)"><path d="M0.0 0.0V-78.0H240.0V0.0H0.0ZM320.0 -58.0 281.0 -154.0H497.0V-58.0H320.0ZM36.0 -218.0V-286.0H194.0V-218.0H36.0ZM36.0 -316.0V-386.0H194.0V-316.0H36.0ZM-10.0 -107.0V-188.0H247.0V-107.0H-10.0ZM68.0 -34.0V-156.0H168.0V-34.0H68.0ZM9.0 -135.0V-475.0L90.0 -456.0V-135.0H9.0ZM142.0 -139.0V-577.0H224.0V-139.0H142.0ZM-39.0 -429.0 -24.0 -525.0C40.0 -517.0 114.0 -509.0 189.0 -499.0L186.0 -413.0C101.0 -418.0 21.0 -426.0 -39.0 -429.0ZM278.0 16.0C270.0 -85.0 254.0 -184.0 215.0 -248.0C234.0 -266.0 265.0 -306.0 275.0 -324.0C328.0 -246.0 357.0 -123.0 370.0 0.0L278.0 16.0ZM378.0 -102.0C368.0 -285.0 331.0 -427.0 226.0 -511.0C246.0 -526.0 279.0 -566.0 291.0 -584.0C410.0 -483.0 456.0 -322.0 473.0 -107.0L378.0 -102.0ZM332.0 -124.0 268.0 -180.0C287.0 -301.0 333.0 -487.0 450.0 -579.0C462.0 -552.0 495.0 -510.0 514.0 -492.0C395.0 -415.0 350.0 -248.0 332.0 -124.0ZM-88.0 118.0V17.0H499.0V118.0H-88.0ZM-127.0 118.0V-127.0C-127.0 -240.0 -132.0 -391.0 -197.0 -499.0C-170.0 -510.0 -121.0 -546.0 -101.0 -568.0C-26.0 -448.0 -13.0 -260.0 -13.0 -129.0V118.0H-127.0ZM-15.0 256.0H49.0V222.0H-15.0V256.0ZM-118.0 334.0V142.0H161.0V334.0H-118.0ZM303.0 256.0H367.0V222.0H303.0V256.0ZM199.0 334.0V142.0H479.0V334.0H199.0Z"/></g>
<g fill="red" transform="translate(900 200) scale(0.1 -0.1)"><path d="M0.0 0.0V-29.0H248.0V0.0H0.0ZM310.0 -85.0 298.0 -114.0H509.0V-85.0H310.0ZM44.0 -210.0V-240.0H204.0V-210.0H44.0ZM44.0 -316.0V-345.0H204.0V-316.0H44.0ZM-38.0 -106.0V-136.0H272.0V-106.0H-38.0ZM107.0 -10.0V-121.0H136.0V-10.0H107.0ZM26.0 -117.0V-452.0L55.0 -448.0V-117.0H26.0ZM189.0 -117.0V-545.0H219.0V-117.0H189.0ZM-30.0 -443.0 -23.0 -473.0C40.0 -464.0 120.0 -453.0 202.0 -442.0L201.0 -414.0C112.0 -426.0 31.0 -437.0 -30.0 -443.0ZM323.0 45.0C306.0 -66.0 278.0 -178.0 238.0 -255.0C246.0 -260.0 258.0 -271.0 263.0 -276.0C303.0 -195.0 333.0 -77.0 353.0 39.0L323.0 45.0ZM440.0 -92.0C416.0 -288.0 356.0 -434.0 235.0 -526.0C243.0 -531.0 256.0 -540.0 262.0 -545.0C380.0 -446.0 444.0 -301.0 471.0 -96.0L440.0 -92.0ZM310.0 -126.0 287.0 -152.0C311.0 -276.0 374.0 -453.0 507.0 -545.0C512.0 -538.0 522.0 -526.0 528.0 -520.0C393.0 -435.0 333.0 -257.0 310.0 -126.0ZM-45.0 86.0V56.0H503.0V86.0H-45.0ZM-63.0 86.0V-101.0C-63.0 -222.0 -70.0 -393.0 -132.0 -523.0C-125.0 -527.0 -114.0 -537.0 -109.0 -543.0C-44.0 -408.0 -33.0 -227.0 -33.0 -101.0V86.0H-63.0ZM1.0 286.0H146.0V173.0H1.0V286.0ZM-28.0 315.0V144.0H176.0V315.0H-28.0ZM285.0 286.0H433.0V173.0H285.0V286.0ZM256.0 315.0V144.0H463.0V315.0H256.0Z"/></g>
<g fill="black" opacity=".8" transform="translate(900 200) scale(0.1 -0.1)"><path d="M0.0 0.0V-30.0H249.0V0.0H0.0ZM312.0 -86.0 301.0 -115.0H514.0V-86.0H312.0ZM42.0 -210.0V-239.0H203.0V-210.0H42.0ZM42.0 -315.0V-345.0H203.0V-315.0H42.0ZM-43.0 -105.0V-135.0H271.0V-105.0H-43.0ZM106.0 -10.0V-120.0H135.0V-10.0H106.0ZM25.0 -117.0V-450.0L54.0 -446.0V-117.0H25.0ZM188.0 -116.0V-546.0H218.0V-116.0H188.0ZM-31.0 -442.0 -22.0 -474.0C46.0 -463.0 128.0 -451.0 214.0 -439.0L212.0 -412.0C120.0 -424.0 34.0 -435.0 -31.0 -442.0ZM325.0 45.0C309.0 -70.0 279.0 -185.0 238.0 -263.0C246.0 -269.0 257.0 -280.0 263.0 -284.0C305.0 -202.0 335.0 -81.0 354.0 40.0L325.0 45.0ZM444.0 -93.0C418.0 -291.0 356.0 -436.0 234.0 -527.0C242.0 -532.0 255.0 -541.0 260.0 -546.0C380.0 -448.0 447.0 -304.0 475.0 -98.0L444.0 -93.0ZM310.0 -127.0 286.0 -153.0C310.0 -277.0 373.0 -455.0 505.0 -547.0C511.0 -540.0 520.0 -528.0 527.0 -522.0C392.0 -436.0 333.0 -258.0 310.0 -127.0ZM-46.0 87.0V56.0H511.0V87.0H-46.0ZM-62.0 87.0V-113.0C-62.0 -233.0 -70.0 -397.0 -134.0 -524.0C-128.0 -527.0 -116.0 -537.0 -111.0 -543.0C-43.0 -414.0 -32.0 -238.0 -32.0 -114.0V87.0H-62.0ZM-5.0 289.0H153.0V177.0H-5.0V289.0ZM-36.0 318.0V149.0H184.0V318.0H-36.0ZM281.0 289.0H444.0V177.0H281.0V289.0ZM253.0 318.0V149.0H474.0V318.0H253.0Z"/></g>
<g fill="red" transform="translate(1000 200) scale(0.1 -0.1)"><path d="M0.0 0.0V-78.0H257.0V0.0H0.0ZM328.0 -57.0 290.0 -152.0H504.0V-57.0H328.0ZM44.0 -219.0V-288.0H207.0V-219.0H44.0ZM44.0 -318.0V-387.0H207.0V-318.0H44.0ZM-22.0 -109.0V-190.0H267.0V-109.0H-22.0ZM71.0 -36.0V-158.0H171.0V-36.0H71.0ZM5.0 -135.0V-461.0L104.0 -442.0V-135.0H5.0ZM135.0 -139.0V-571.0H235.0V-139.0H135.0ZM-42.0 -429.0 -21.0 -525.0C50.0 -516.0 134.0 -506.0 217.0 -495.0L215.0 -409.0C119.0 -417.0 26.0 -425.0 -42.0 -429.0ZM292.0 27.0C283.0 -78.0 267.0 -184.0 232.0 -254.0C250.0 -276.0 279.0 -328.0 289.0 -350.0C342.0 -261.0 372.0 -123.0 389.0 8.0L292.0 27.0ZM391.0 -90.0C379.0 -273.0 339.0 -414.0 229.0 -495.0C249.0 -513.0 284.0 -554.0 297.0 -574.0C421.0 -473.0 473.0 -313.0 492.0 -97.0L391.0 -90.0ZM351.0 -169.0 272.0 -208.0C292.0 -323.0 342.0 -490.0 446.0 -573.0C460.0 -546.0 492.0 -504.0 514.0 -484.0C415.0 -419.0 370.0 -274.0 351.0 -169.0ZM-60.0 125.0V21.0H494.0V125.0H-60.0ZM-123.0 125.0V-83.0C-123.0 -204.0 -127.0 -380.0 -183.0 -504.0C-156.0 -515.0 -104.0 -549.0 -83.0 -569.0C-20.0 -432.0 -8.0 -222.0 -8.0 -83.0V125.0H-123.0ZM15.0 266.0H58.0V232.0H15.0V266.0ZM-93.0 348.0V150.0H173.0V348.0H-93.0ZM310.0 266.0H356.0V232.0H310.0V266.0ZM201.0 348.0V150.0H471.0V348.0H201.0Z"/></g>
<g fill="black" opacity=".8" transform="translate(1000 200) scale(0.1 -0.1)"><path d="M0.0 0.0V-78.0H250.0V0.0H0.0ZM334.0 -54.0 296.0 -149.0H501.0V-54.0H334.0ZM42.0 -219.0V-287.0H197.0V-219.0H42.0ZM42.0 -316.0V-386.0H197.0V-316.0H42.0ZM-27.0 -108.0V-189.0H263.0V-108.0H-27.0ZM70.0 -35.0V-157.0H168.0V-35.0H70.0ZM0.0 -135.0V-458.0L101.0 -440.0V-135.0H0.0ZM131.0 -140.0V-567.0H233.0V-140.0H131.0ZM-41.0 -428.0 -24.0 -522.0C48.0 -512.0 133.0 -502.0 220.0 -490.0L217.0 -406.0C120.0 -414.0 27.0 -423.0 -41.0 -428.0ZM293.0 28.0C283.0 -77.0 265.0 -182.0 231.0 -252.0C249.0 -274.0 277.0 -326.0 287.0 -347.0C340.0 -259.0 372.0 -122.0 390.0 8.0L293.0 28.0ZM386.0 -96.0C373.0 -276.0 332.0 -413.0 222.0 -492.0C241.0 -510.0 276.0 -551.0 288.0 -570.0C414.0 -473.0 467.0 -315.0 486.0 -102.0L386.0 -96.0ZM349.0 -164.0 271.0 -204.0C291.0 -319.0 340.0 -486.0 444.0 -569.0C458.0 -542.0 489.0 -500.0 511.0 -480.0C413.0 -415.0 368.0 -269.0 349.0 -164.0ZM-57.0 127.0V22.0H499.0V127.0H-57.0ZM-124.0 127.0V-72.0C-124.0 -196.0 -129.0 -375.0 -189.0 -502.0C-162.0 -512.0 -111.0 -546.0 -89.0 -567.0C-23.0 -428.0 -9.0 -214.0 -9.0 -74.0V127.0H-124.0ZM14.0 269.0H56.0V236.0H14.0V269.0ZM-94.0 352.0V152.0H171.0V352.0H-94.0ZM307.0 269.0H353.0V236.0H307.0V269.0ZM199.0 352.0V152.0H468.0V352.0H199.0Z"/></g>
<g fill="red" transform="translate(1100 200) scale(0.1 -0.1)"><path d="M0.0 0.0V-30.0H207.0V0.0H0.0ZM267.0 -84.0 255.0 -113.0H436.0V-84.0H267.0ZM39.0 -204.0V-234.0H167.0V-204.0H39.0ZM39.0 -308.0V-338.0H167.0V-308.0H39.0ZM-32.0 -101.0V-131.0H229.0V-101.0H-32.0ZM86.0 -10.0V-112.0H115.0V-10.0H86.0ZM19.0 -113.0V-437.0L49.0 -433.0V-113.0H19.0ZM153.0 -112.0V-544.0H182.0V-112.0H153.0ZM-34.0 -432.0 -28.0 -463.0C42.0 -452.0 130.0 -440.0 221.0 -425.0L220.0 -396.0C123.0 -410.0 32.0 -424.0 -34.0 -432.0ZM277.0 43.0C263.0 -73.0 239.0 -185.0 197.0 -261.0C204.0 -266.0 216.0 -277.0 221.0 -282.0C264.0 -201.0 291.0 -84.0 307.0 38.0L277.0 43.0ZM375.0 -92.0C355.0 -283.0 308.0 -431.0 204.0 -526.0C211.0 -531.0 224.0 -540.0 229.0 -545.0C333.0 -443.0 384.0 -295.0 405.0 -95.0L375.0 -92.0ZM267.0 -126.0 245.0 -152.0C263.0 -269.0 311.0 -448.0 422.0 -545.0C427.0 -538.0 438.0 -526.0 444.0 -520.0C332.0 -431.0 285.0 -251.0 267.0 -126.0ZM-46.0 93.0V63.0H426.0V93.0H-46.0ZM-61.0 93.0V-111.0C-61.0 -231.0 -67.0 -400.0 -122.0 -528.0C-114.0 -532.0 -103.0 -541.0 -98.0 -548.0C-40.0 -414.0 -32.0 -235.0 -32.0 -111.0V93.0H-61.0ZM-22.0 286.0H117.0V179.0H-22.0V286.0ZM-51.0 315.0V149.0H147.0V315.0H-51.0ZM238.0 286.0H380.0V179.0H238.0V286.0ZM208.0 315.0V149.0H409.0V315.0H208.0Z"/></g>
<g fill="black" opacity=".8" transform="translate(1100 200) scale(0.1 -0.1)"><path d="M0.0 0.0V-29.0H206.0V0.0H0.0ZM267.0 -89.0 255.0 -118.0H439.0V-89.0H267.0ZM36.0 -204.0V-233.0H164.0V-204.0H36.0ZM36.0 -308.0V-337.0H164.0V-308.0H36.0ZM-37.0 -102.0V-131.0H229.0V-102.0H-37.0ZM84.0 -9.0V-114.0H112.0V-9.0H84.0ZM18.0 -113.0V-437.0L46.0 -434.0V-113.0H18.0ZM153.0 -112.0V-548.0H182.0V-112.0H153.0ZM-36.0 -431.0 -29.0 -462.0C33.0 -451.0 110.0 -439.0 192.0 -426.0L190.0 -398.0C103.0 -411.0 23.0 -423.0 -36.0 -431.0ZM276.0 37.0C262.0 -77.0 238.0 -188.0 198.0 -264.0C205.0 -269.0 215.0 -281.0 221.0 -285.0C263.0 -205.0 289.0 -88.0 305.0 33.0L276.0 37.0ZM370.0 -97.0C349.0 -287.0 303.0 -435.0 199.0 -530.0C207.0 -535.0 220.0 -543.0 225.0 -547.0C328.0 -446.0 378.0 -299.0 400.0 -101.0L370.0 -97.0ZM266.0 -133.0 244.0 -160.0C261.0 -274.0 310.0 -451.0 423.0 -548.0C429.0 -541.0 439.0 -529.0 445.0 -523.0C329.0 -434.0 284.0 -255.0 266.0 -133.0ZM-46.0 86.0V56.0H431.0V86.0H-46.0ZM-62.0 86.0V-118.0C-62.0 -237.0 -67.0 -405.0 -124.0 -533.0C-117.0 -536.0 -106.0 -546.0 -100.0 -552.0C-41.0 -420.0 -32.0 -242.0 -32.0 -118.0V86.0H-62.0ZM-9.0 283.0H118.0V172.0H-9.0V283.0ZM-38.0 311.0V144.0H148.0V311.0H-38.0ZM244.0 283.0H376.0V172.0H244.0V283.0ZM215.0 311.0V144.0H405.0V311.0H215.0Z"/></g>
<g fill="red" transform="translate(1200 200) scale(0.1 -0.1)"><path d="M0.0 0.0V-78.0H203.0V0.0H0.0ZM300.0 -67.0 264.0 -158.0H427.0V-67.0H300.0ZM35.0 -213.0V-282.0H166.0V-213.0H35.0ZM35.0 -310.0V-379.0H166.0V-310.0H35.0ZM-22.0 -105.0V-186.0H222.0V-105.0H-22.0ZM55.0 -32.0V-154.0H142.0V-32.0H55.0ZM-1.0 -134.0V-460.0L86.0 -441.0V-134.0H-1.0ZM111.0 -143.0V-566.0H198.0V-143.0H111.0ZM-33.0 -419.0 -19.0 -509.0C52.0 -498.0 131.0 -486.0 214.0 -471.0L211.0 -398.0C119.0 -406.0 32.0 -415.0 -33.0 -419.0ZM247.0 21.0C238.0 -92.0 222.0 -206.0 186.0 -281.0C202.0 -300.0 227.0 -344.0 236.0 -364.0C288.0 -272.0 316.0 -130.0 331.0 5.0L247.0 21.0ZM321.0 -117.0C312.0 -287.0 281.0 -422.0 187.0 -502.0C205.0 -517.0 235.0 -552.0 246.0 -569.0C353.0 -472.0 394.0 -321.0 408.0 -123.0L321.0 -117.0ZM290.0 -175.0 223.0 -216.0C240.0 -321.0 283.0 -485.0 376.0 -568.0C388.0 -544.0 417.0 -507.0 436.0 -490.0C346.0 -422.0 306.0 -277.0 290.0 -175.0ZM-51.0 125.0V21.0H427.0V125.0H-51.0ZM-113.0 125.0V-83.0C-113.0 -205.0 -116.0 -382.0 -163.0 -508.0C-139.0 -518.0 -91.0 -549.0 -71.0 -566.0C-18.0 -428.0 -8.0 -220.0 -8.0 -84.0V125.0H-113.0ZM-5.0 266.0H35.0V232.0H-5.0V266.0ZM-102.0 348.0V150.0H138.0V348.0H-102.0ZM260.0 266.0H303.0V232.0H260.0V266.0ZM162.0 348.0V150.0H408.0V348.0H162.0Z"/></g>
<g fill="black" opacity=".8" transform="translate(1200 200) scale(0.1 -0.1)"><path d="M0.0 0.0V-77.0H207.0V0.0H0.0ZM294.0 -69.0 258.0 -159.0H430.0V-69.0H294.0ZM38.0 -213.0V-281.0H169.0V-213.0H38.0ZM38.0 -309.0V-378.0H169.0V-309.0H38.0ZM-16.0 -105.0V-185.0H226.0V-105.0H-16.0ZM58.0 -35.0V-154.0H144.0V-35.0H58.0ZM2.0 -133.0V-457.0L87.0 -438.0V-133.0H2.0ZM115.0 -142.0V-566.0H202.0V-142.0H115.0ZM-33.0 -419.0 -18.0 -509.0C47.0 -498.0 121.0 -487.0 198.0 -472.0L194.0 -398.0C108.0 -406.0 28.0 -414.0 -33.0 -419.0ZM246.0 21.0C238.0 -88.0 226.0 -198.0 193.0 -270.0C209.0 -290.0 231.0 -338.0 239.0 -357.0C290.0 -267.0 317.0 -128.0 331.0 5.0L246.0 21.0ZM321.0 -111.0C312.0 -283.0 282.0 -420.0 189.0 -500.0C207.0 -515.0 238.0 -552.0 249.0 -568.0C356.0 -470.0 395.0 -316.0 409.0 -115.0L321.0 -111.0ZM293.0 -176.0 227.0 -218.0C243.0 -320.0 287.0 -484.0 376.0 -568.0C389.0 -544.0 418.0 -507.0 437.0 -491.0C351.0 -422.0 310.0 -275.0 293.0 -176.0ZM-49.0 125.0V20.0H427.0V125.0H-49.0ZM-110.0 125.0V-84.0C-110.0 -208.0 -114.0 -384.0 -172.0 -509.0C-149.0 -519.0 -102.0 -549.0 -82.0 -567.0C-19.0 -430.0 -7.0 -224.0 -7.0 -86.0V125.0H-110.0ZM2.0 265.0H41.0V232.0H2.0V265.0ZM-95.0 349.0V149.0H143.0V349.0H-95.0ZM261.0 265.0H304.0V232.0H261.0V265.0ZM164.0 349.0V149.0H408.0V349.0H164.0Z"/></g>
<g fill="red" transform="translate(1300 200) scale(0.1 -0.1)"><path d="M0.0 0.0V-29.0H345.0V0.0H0.0ZM440.0 -76.0 428.0 -106.0H736.0V-76.0H440.0ZM57.0 -184.0V-214.0H278.0V-184.0H57.0ZM57.0 -275.0V-305.0H278.0V-275.0H57.0ZM-26.0 -93.0V-123.0H371.0V-93.0H-26.0ZM151.0 -7.0V-104.0H180.0V-7.0H151.0ZM42.0 -105.0V-388.0L72.0 -387.0V-105.0H42.0ZM267.0 -105.0V-471.0H296.0V-105.0H267.0ZM-37.0 -385.0 -32.0 -416.0C50.0 -408.0 163.0 -397.0 276.0 -386.0V-358.0C157.0 -368.0 42.0 -379.0 -37.0 -385.0ZM466.0 31.0C436.0 -69.0 387.0 -166.0 326.0 -232.0C335.0 -236.0 349.0 -245.0 354.0 -249.0C412.0 -181.0 463.0 -80.0 495.0 25.0L466.0 31.0ZM651.0 -82.0C612.0 -278.0 496.0 -389.0 313.0 -451.0C320.0 -457.0 331.0 -467.0 336.0 -473.0C516.0 -404.0 640.0 -293.0 681.0 -87.0L651.0 -82.0ZM436.0 -113.0 412.0 -121.0C464.0 -289.0 578.0 -418.0 735.0 -473.0C739.0 -466.0 748.0 -456.0 755.0 -450.0C599.0 -401.0 486.0 -275.0 436.0 -113.0ZM-66.0 84.0V55.0H724.0V84.0H-66.0ZM-79.0 84.0V-123.0C-79.0 -223.0 -89.0 -356.0 -161.0 -454.0C-153.0 -458.0 -142.0 -467.0 -137.0 -474.0C-63.0 -371.0 -50.0 -228.0 -50.0 -123.0V84.0H-79.0ZM-29.0 223.0H233.0V158.0H-29.0V223.0ZM-59.0 253.0V128.0H263.0V253.0H-59.0ZM373.0 223.0H642.0V158.0H373.0V223.0ZM344.0 253.0V128.0H671.0V253.0H344.0Z"/></g>
<g fill="black" opacity=".8" transform="translate(1300 200) scale(0.1 -0.1)"><path d="M0.0 0.0V-29.0H344.0V0.0H0.0ZM440.0 -76.0 428.0 -107.0H737.0V-76.0H440.0ZM56.0 -184.0V-214.0H277.0V-184.0H56.0ZM56.0 -275.0V-305.0H277.0V-275.0H56.0ZM-27.0 -93.0V-123.0H371.0V-93.0H-27.0ZM151.0 -6.0V-104.0H179.0V-6.0H151.0ZM41.0 -105.0V-388.0L71.0 -387.0V-105.0H41.0ZM267.0 -105.0V-472.0H296.0V-105.0H267.0ZM-38.0 -385.0 -32.0 -417.0C49.0 -408.0 160.0 -396.0 273.0 -387.0L272.0 -359.0C155.0 -368.0 40.0 -378.0 -38.0 -385.0ZM466.0 30.0C437.0 -70.0 386.0 -166.0 326.0 -232.0C334.0 -237.0 349.0 -246.0 354.0 -249.0C412.0 -182.0 463.0 -80.0 495.0 24.0L466.0 30.0ZM651.0 -82.0C611.0 -279.0 495.0 -390.0 313.0 -451.0C319.0 -458.0 330.0 -468.0 335.0 -474.0C515.0 -404.0 639.0 -294.0 680.0 -88.0L651.0 -82.0ZM436.0 -114.0 411.0 -122.0C464.0 -289.0 578.0 -419.0 735.0 -474.0C739.0 -467.0 748.0 -457.0 755.0 -451.0C598.0 -402.0 486.0 -276.0 436.0 -114.0ZM-66.0 83.0V54.0H725.0V83.0H-66.0ZM-79.0 83.0V-124.0C-79.0 -225.0 -89.0 -356.0 -161.0 -455.0C-153.0 -459.0 -142.0 -468.0 -137.0 -474.0C-63.0 -373.0 -49.0 -229.0 -49.0 -124.0V83.0H-79.0ZM-27.0 223.0H233.0V156.0H-27.0V223.0ZM-57.0 252.0V128.0H264.0V252.0H-57.0ZM373.0 223.0H642.0V156.0H373.0V223.0ZM346.0 252.0V128.0H671.0V252.0H346.0Z"/></g>
<g fill="red" transform="translate(1400 200) scale(0.1 -0.1)"><path d="M0.0 0.0V-73.0H343.0V0.0H0.0ZM442.0 -51.0 400.0 -154.0H713.0V-51.0H442.0ZM57.0 -194.0V-253.0H256.0V-194.0H57.0ZM57.0 -279.0V-338.0H256.0V-279.0H57.0ZM-37.0 -95.0V-170.0H364.0V-95.0H-37.0ZM109.0 -9.0V-135.0H230.0V-9.0H109.0ZM7.0 -134.0V-407.0L124.0 -400.0V-134.0H7.0ZM196.0 -122.0V-491.0H314.0V-122.0H196.0ZM-53.0 -372.0 -45.0 -463.0C45.0 -457.0 160.0 -450.0 273.0 -441.0V-358.0C152.0 -364.0 31.0 -369.0 -53.0 -372.0ZM417.0 25.0C399.0 -69.0 362.0 -160.0 309.0 -218.0C335.0 -235.0 381.0 -274.0 401.0 -295.0C461.0 -225.0 508.0 -113.0 533.0 1.0L417.0 25.0ZM568.0 -93.0C543.0 -253.0 457.0 -351.0 303.0 -402.0C326.0 -424.0 366.0 -472.0 379.0 -497.0C549.0 -426.0 650.0 -306.0 689.0 -105.0L568.0 -93.0ZM472.0 -140.0 376.0 -161.0C426.0 -318.0 513.0 -435.0 658.0 -492.0C675.0 -460.0 710.0 -412.0 736.0 -388.0C603.0 -349.0 514.0 -257.0 472.0 -140.0ZM-71.0 114.0V21.0H713.0V114.0H-71.0ZM-151.0 114.0V-71.0C-151.0 -172.0 -157.0 -309.0 -230.0 -406.0C-205.0 -422.0 -154.0 -470.0 -136.0 -495.0C-47.0 -381.0 -29.0 -198.0 -29.0 -73.0V114.0H-151.0ZM-13.0 212.0H108.0V187.0H-13.0V212.0ZM-133.0 264.0V135.0H236.0V264.0H-133.0ZM409.0 212.0H524.0V187.0H409.0V212.0ZM286.0 264.0V135.0H655.0V264.0H286.0Z"/></g>
<g fill="black" opacity=".8" transform="translate(1400 200) scale(0.1 -0.1)"><path d="M0.0 0.0V-73.0H343.0V0.0H0.0ZM442.0 -50.0 400.0 -154.0H713.0V-50.0H442.0ZM57.0 -194.0V-252.0H255.0V-194.0H57.0ZM57.0 -278.0V-338.0H255.0V-278.0H57.0ZM-36.0 -95.0V-169.0H364.0V-95.0H-36.0ZM109.0 -9.0V-135.0H229.0V-9.0H109.0ZM7.0 -134.0V-406.0L124.0 -400.0V-134.0H7.0ZM197.0 -122.0V-491.0H314.0V-122.0H197.0ZM-53.0 -372.0 -45.0 -463.0C44.0 -457.0 158.0 -450.0 271.0 -441.0L270.0 -358.0C151.0 -364.0 30.0 -368.0 -53.0 -372.0ZM417.0 25.0C399.0 -68.0 362.0 -159.0 310.0 -216.0C337.0 -233.0 381.0 -273.0 401.0 -294.0C461.0 -225.0 508.0 -113.0 533.0 2.0L417.0 25.0ZM568.0 -93.0C543.0 -253.0 457.0 -351.0 303.0 -401.0C326.0 -423.0 367.0 -472.0 379.0 -497.0C549.0 -427.0 650.0 -306.0 690.0 -105.0L568.0 -93.0ZM472.0 -140.0 376.0 -161.0C427.0 -318.0 514.0 -435.0 659.0 -492.0C675.0 -460.0 711.0 -412.0 736.0 -388.0C603.0 -349.0 514.0 -256.0 472.0 -140.0ZM-70.0 114.0V20.0H714.0V114.0H-70.0ZM-151.0 114.0V-70.0C-151.0 -172.0 -157.0 -308.0 -232.0 -406.0C-206.0 -422.0 -156.0 -469.0 -138.0 -496.0C-48.0 -381.0 -29.0 -198.0 -29.0 -73.0V114.0H-151.0ZM-12.0 212.0H109.0V188.0H-12.0V212.0ZM-133.0 264.0V134.0H237.0V264.0H-133.0ZM409.0 212.0H524.0V188.0H409.0V212.0ZM287.0 264.0V134.0H655.0V264.0H287.0Z"/></g>
</svg>
