<?xml version="1.0" encoding="UTF-8"?>
<svg width="1700" height="400" xmlns="http://www.w3.org/2000/svg">
<rect width="100%" height="100%" fill="white"/>
<g fill="green" transform="translate(100 100) scale(0.1 -0.1)"><path d="M0.0 -0.0V-40.0H786.0V0.0ZM76.0 172.0V133.0H720.0V172.0ZM383.0 317.0V-19.0H424.0V317.0ZM385.0 814.0V606.0H425.0V814.0ZM35.0 628.0V448.0H75.0V590.0H730.0V448.0H769.0V628.0ZM188.0 450.0H614.0V328.0H188.0ZM149.0 488.0V290.0H653.0V488.0ZM122.0 773.0C161.0 726.0 206.0 662.0 226.0 621.0L261.0 641.0C241.0 681.0 196.0 743.0 155.0 789.0ZM642.0 792.0C615.0 746.0 565.0 675.0 527.0 633.0L559.0 617.0C597.0 657.0 644.0 719.0 680.0 773.0Z"/></g>
<g fill="green" transform="translate(200 100) scale(0.1 -0.1)"><path d="M0.0 0.0V-128.0H740.0V0.0ZM57.0 172.0V45.0H681.0V172.0ZM287.0 269.0V-60.0H452.0V269.0ZM286.0 772.0V575.0H447.0V772.0ZM-15.0 633.0V401.0H127.0V504.0H603.0V405.0H753.0V633.0ZM257.0 359.0H479.0V321.0H257.0ZM120.0 464.0V216.0H625.0V464.0ZM36.0 724.0C62.0 682.0 90.0 621.0 100.0 581.0L238.0 634.0C226.0 675.0 197.0 728.0 169.0 765.0ZM539.0 763.0C527.0 718.0 504.0 656.0 485.0 613.0L613.0 576.0C633.0 612.0 658.0 663.0 686.0 724.0Z"/></g>
<g fill="green" transform="translate(300 100) scale(0.1 -0.1)"><path d="M0.0 0.0V-29.0H562.0V0.0ZM53.0 104.0V76.0H517.0V104.0ZM275.0 203.0V-14.0H305.0V203.0ZM278.0 509.0V375.0H307.0V509.0ZM26.0 391.0V268.0H55.0V364.0H524.0V268.0H552.0V391.0ZM135.0 273.0H439.0V207.0H135.0ZM107.0 300.0V180.0H467.0V300.0ZM92.0 481.0C120.0 449.0 152.0 407.0 166.0 379.0L191.0 394.0C177.0 420.0 145.0 462.0 117.0 492.0ZM455.0 494.0C436.0 463.0 400.0 415.0 373.0 387.0L396.0 375.0C423.0 402.0 457.0 444.0 483.0 480.0Z"/></g>
<g fill="green" transform="translate(400 100) scale(0.1 -0.1)"><path d="M0.0 0.0V-85.0H510.0V0.0ZM36.0 110.0V25.0H470.0V110.0ZM197.0 181.0V-37.0H311.0V181.0ZM196.0 479.0V363.0H308.0V479.0ZM-20.0 401.0V240.0H75.0V315.0H427.0V244.0H528.0V401.0ZM178.0 224.0H330.0V204.0H178.0ZM88.0 292.0V136.0H426.0V292.0ZM24.0 452.0C39.0 425.0 57.0 385.0 63.0 359.0L158.0 392.0C151.0 420.0 133.0 453.0 116.0 476.0ZM367.0 474.0C360.0 445.0 346.0 404.0 335.0 375.0L423.0 352.0C434.0 376.0 449.0 409.0 466.0 451.0Z"/></g>
<g fill="green" transform="translate(500 100) scale(0.1 -0.1)"><path d="M0.0 -0.0V-31.0H575.0V0.0ZM53.0 204.0V172.0H515.0V204.0ZM272.0 347.0V-15.0H305.0V347.0ZM275.0 934.0V680.0H306.0V934.0ZM24.0 698.0V535.0H56.0V668.0H520.0V535.0H552.0V698.0ZM138.0 526.0H437.0V364.0H138.0ZM107.0 556.0V333.0H469.0V556.0ZM63.0 896.0C104.0 845.0 147.0 775.0 166.0 729.0L193.0 744.0C175.0 789.0 131.0 859.0 88.0 908.0ZM487.0 906.0C462.0 856.0 417.0 780.0 381.0 734.0L409.0 726.0C444.0 770.0 487.0 839.0 520.0 897.0Z"/></g>
<g fill="green" transform="translate(600 100) scale(0.1 -0.1)"><path d="M0.0 0.0V-123.0H603.0V0.0ZM41.0 181.0V59.0H553.0V181.0ZM231.0 291.0V-59.0H369.0V291.0ZM232.0 892.0V651.0H365.0V892.0ZM13.0 669.0V442.0H152.0V535.0H433.0V441.0H579.0V669.0ZM195.0 387.0H380.0V335.0H195.0ZM66.0 493.0V229.0H517.0V493.0ZM12.0 829.0C46.0 781.0 84.0 713.0 97.0 669.0L217.0 727.0C200.0 770.0 163.0 832.0 127.0 878.0ZM452.0 867.0C437.0 816.0 406.0 747.0 382.0 702.0L507.0 668.0C532.0 708.0 565.0 768.0 597.0 831.0Z"/></g>
<g fill="green" transform="translate(700 100) scale(0.1 -0.1)"><path d="M0.0 0.0V-35.0H767.0V0.0ZM86.0 175.0V140.0H707.0V175.0ZM375.0 298.0V-15.0H411.0V298.0ZM372.0 786.0V618.0H408.0V786.0ZM33.0 639.0V469.0H67.0V605.0H721.0V469.0H755.0V639.0ZM180.0 463.0H615.0V319.0H180.0ZM145.0 498.0V286.0H650.0V498.0ZM123.0 749.0C150.0 709.0 183.0 657.0 198.0 625.0L229.0 641.0C214.0 674.0 180.0 724.0 151.0 763.0ZM631.0 771.0C609.0 734.0 569.0 679.0 541.0 645.0L566.0 626.0C595.0 658.0 631.0 703.0 659.0 748.0Z"/></g>
<g fill="green" transform="translate(800 100) scale(0.1 -0.1)"><path d="M0.0 0.0V-123.0H748.0V0.0ZM78.0 171.0V52.0H688.0V171.0ZM300.0 217.0V-69.0H460.0V217.0ZM296.0 756.0V548.0H453.0V756.0ZM6.0 646.0V457.0H138.0V533.0H620.0V460.0H759.0V646.0ZM271.0 374.0H499.0V332.0H271.0ZM133.0 481.0V224.0H647.0V481.0ZM61.0 702.0C84.0 665.0 107.0 611.0 114.0 576.0L245.0 630.0C237.0 665.0 211.0 713.0 186.0 746.0ZM557.0 760.0C544.0 722.0 520.0 670.0 502.0 636.0L613.0 587.0C633.0 616.0 660.0 658.0 687.0 706.0Z"/></g>
<g fill="red" transform="translate(100 200) scale(0.1 -0.1)"><path d="M0.0 0.0V-29.0H614.0V0.0ZM63.0 187.0V157.0H567.0V187.0ZM301.0 309.0V-8.0H331.0V309.0ZM296.0 843.0V644.0H326.0V843.0ZM35.0 660.0V504.0H64.0V631.0H570.0V504.0H599.0V660.0ZM147.0 495.0H489.0V330.0H147.0ZM118.0 525.0V300.0H519.0V525.0ZM85.0 802.0C115.0 761.0 148.0 705.0 163.0 669.0L189.0 683.0C174.0 719.0 140.0 774.0 108.0 815.0ZM511.0 818.0C491.0 779.0 454.0 719.0 427.0 682.0L449.0 668.0C478.0 703.0 511.0 755.0 537.0 802.0Z"/></g>
<g fill="black" opacity=".8" transform="translate(100 200) scale(0.1 -0.1)"><path d="M0.0 0.0V-29.0H620.0V0.0ZM70.0 190.0V160.0H565.0V190.0ZM298.0 309.0V-12.0H328.0V309.0ZM296.0 841.0V648.0H326.0V841.0ZM26.0 666.0V510.0H54.0V638.0H575.0V510.0H604.0V666.0ZM145.0 498.0H492.0V333.0H145.0ZM116.0 527.0V305.0H522.0V527.0ZM84.0 807.0C112.0 765.0 143.0 710.0 157.0 676.0L182.0 688.0C169.0 724.0 136.0 778.0 106.0 818.0ZM521.0 822.0C501.0 784.0 465.0 727.0 438.0 691.0L460.0 677.0C487.0 711.0 520.0 760.0 546.0 806.0Z"/></g>
<g fill="red" transform="translate(200 200) scale(0.1 -0.1)"><path d="M0.0 0.0V-116.0H644.0V0.0ZM56.0 176.0V63.0H601.0V176.0ZM259.0 239.0V-58.0H403.0V239.0ZM254.0 815.0V581.0H398.0V815.0ZM28.0 660.0V479.0H162.0V544.0H501.0V479.0H641.0V660.0ZM227.0 391.0H428.0V339.0H227.0ZM93.0 496.0V233.0H570.0V496.0ZM31.0 753.0C62.0 711.0 92.0 652.0 103.0 614.0L224.0 673.0C211.0 711.0 179.0 765.0 146.0 805.0ZM491.0 810.0C477.0 768.0 448.0 711.0 426.0 673.0L539.0 630.0C564.0 663.0 597.0 712.0 630.0 762.0Z"/></g>
<g fill="black" opacity=".8" transform="translate(200 200) scale(0.1 -0.1)"><path d="M0.0 0.0V-117.0H646.0V0.0ZM66.0 172.0V59.0H593.0V172.0ZM258.0 226.0V-66.0H398.0V226.0ZM256.0 811.0V582.0H392.0V811.0ZM23.0 652.0V470.0H150.0V538.0H501.0V470.0H634.0V652.0ZM226.0 382.0H426.0V332.0H226.0ZM96.0 487.0V226.0H565.0V487.0ZM44.0 750.0C72.0 710.0 100.0 653.0 109.0 616.0L226.0 672.0C215.0 707.0 185.0 760.0 155.0 797.0ZM490.0 805.0C475.0 764.0 447.0 709.0 426.0 675.0L533.0 629.0C556.0 660.0 587.0 706.0 616.0 755.0Z"/></g>
<g fill="red" transform="translate(300 200) scale(0.1 -0.1)"><path d="M0.0 0.0V-29.0H605.0V0.0ZM63.0 187.0V157.0H558.0V187.0ZM296.0 312.0V-19.0H326.0V312.0ZM291.0 843.0V644.0H321.0V843.0ZM35.0 660.0V504.0H64.0V631.0H563.0V504.0H592.0V660.0ZM147.0 495.0H483.0V330.0H147.0ZM118.0 525.0V300.0H513.0V525.0ZM80.0 802.0C110.0 761.0 143.0 705.0 158.0 669.0L184.0 683.0C169.0 719.0 135.0 774.0 103.0 815.0ZM506.0 818.0C486.0 779.0 449.0 719.0 422.0 682.0L444.0 668.0C473.0 703.0 506.0 755.0 532.0 802.0Z"/></g>
<g fill="black" opacity=".8" transform="translate(300 200) scale(0.1 -0.1)"><path d="M0.0 0.0V-29.0H611.0V0.0ZM68.0 187.0V158.0H557.0V187.0ZM294.0 307.0V-12.0H324.0V307.0ZM292.0 832.0V638.0H322.0V832.0ZM25.0 656.0V502.0H54.0V628.0H567.0V502.0H596.0V656.0ZM144.0 490.0H484.0V330.0H144.0ZM114.0 519.0V302.0H513.0V519.0ZM82.0 798.0C111.0 756.0 143.0 701.0 157.0 666.0L182.0 679.0C169.0 715.0 135.0 769.0 105.0 809.0ZM514.0 813.0C493.0 774.0 457.0 717.0 430.0 681.0L452.0 667.0C479.0 702.0 513.0 751.0 539.0 798.0Z"/></g>
<g fill="red" transform="translate(400 200) scale(0.1 -0.1)"><path d="M0.0 0.0V-122.0H644.0V0.0ZM52.0 159.0V39.0H593.0V159.0ZM257.0 235.0V-62.0H396.0V235.0ZM255.0 801.0V567.0H390.0V801.0ZM31.0 640.0V459.0H159.0V524.0H491.0V459.0H625.0V640.0ZM212.0 371.0H426.0V319.0H212.0ZM84.0 476.0V213.0H562.0V476.0ZM41.0 733.0C70.0 691.0 99.0 632.0 110.0 594.0L226.0 653.0C213.0 691.0 182.0 745.0 151.0 785.0ZM481.0 790.0C467.0 748.0 440.0 691.0 418.0 653.0L527.0 610.0C551.0 643.0 582.0 692.0 614.0 742.0Z"/></g>
<g fill="black" opacity=".8" transform="translate(400 200) scale(0.1 -0.1)"><path d="M0.0 0.0V-116.0H635.0V0.0ZM63.0 170.0V58.0H583.0V170.0ZM253.0 228.0V-65.0H391.0V228.0ZM251.0 802.0V576.0H385.0V802.0ZM20.0 642.0V458.0H147.0V528.0H491.0V458.0H623.0V642.0ZM221.0 375.0H417.0V327.0H221.0ZM94.0 478.0V222.0H554.0V478.0ZM41.0 742.0C69.0 702.0 97.0 645.0 106.0 608.0L222.0 663.0C211.0 699.0 181.0 751.0 151.0 788.0ZM481.0 795.0C467.0 754.0 439.0 698.0 418.0 663.0L525.0 619.0C547.0 651.0 578.0 697.0 606.0 746.0Z"/></g>
<g fill="red" transform="translate(500 200) scale(0.1 -0.1)"><path d="M0.0 0.0V-30.0H619.0V0.0ZM69.0 182.0V152.0H568.0V182.0ZM302.0 306.0V-11.0H332.0V306.0ZM302.0 848.0V637.0H332.0V848.0ZM29.0 660.0V504.0H58.0V631.0H579.0V504.0H608.0V660.0ZM147.0 491.0H492.0V326.0H147.0ZM118.0 521.0V296.0H522.0V521.0ZM84.0 813.0C114.0 769.0 147.0 709.0 163.0 671.0L189.0 685.0C174.0 722.0 140.0 781.0 108.0 825.0ZM532.0 827.0C511.0 785.0 472.0 721.0 442.0 683.0L466.0 668.0C495.0 706.0 531.0 762.0 558.0 811.0Z"/></g>
<g fill="black" opacity=".8" transform="translate(500 200) scale(0.1 -0.1)"><path d="M0.0 0.0V-30.0H625.0V0.0ZM67.0 188.0V157.0H569.0V188.0ZM301.0 313.0V-13.0H332.0V313.0ZM300.0 843.0V641.0H331.0V843.0ZM26.0 659.0V501.0H56.0V630.0H578.0V501.0H608.0V659.0ZM147.0 491.0H492.0V334.0H147.0ZM117.0 521.0V305.0H523.0V521.0ZM84.0 808.0C115.0 765.0 149.0 707.0 165.0 670.0L191.0 684.0C176.0 721.0 141.0 778.0 108.0 820.0ZM524.0 823.0C502.0 782.0 464.0 721.0 435.0 683.0L459.0 671.0C488.0 706.0 523.0 759.0 551.0 808.0Z"/></g>
<g fill="red" transform="translate(600 200) scale(0.1 -0.1)"><path d="M0.0 0.0V-120.0H635.0V0.0ZM56.0 179.0V61.0H588.0V179.0ZM252.0 239.0V-67.0H390.0V239.0ZM252.0 809.0V593.0H390.0V809.0ZM11.0 646.0V453.0H136.0V536.0H494.0V453.0H625.0V646.0ZM212.0 383.0H423.0V334.0H212.0ZM84.0 486.0V231.0H559.0V486.0ZM39.0 747.0C69.0 705.0 99.0 646.0 111.0 608.0L227.0 665.0C213.0 703.0 182.0 757.0 150.0 797.0ZM484.0 799.0C470.0 756.0 443.0 696.0 421.0 658.0L530.0 616.0C553.0 650.0 582.0 701.0 612.0 753.0Z"/></g>
<g fill="black" opacity=".8" transform="translate(600 200) scale(0.1 -0.1)"><path d="M0.0 0.0V-118.0H643.0V0.0ZM60.0 172.0V57.0H590.0V172.0ZM254.0 239.0V-64.0H395.0V239.0ZM253.0 811.0V586.0H390.0V811.0ZM16.0 645.0V452.0H146.0V528.0H496.0V452.0H632.0V645.0ZM222.0 376.0H420.0V328.0H222.0ZM93.0 480.0V223.0H558.0V480.0ZM38.0 751.0C66.0 710.0 95.0 651.0 105.0 614.0L224.0 669.0C212.0 706.0 181.0 759.0 151.0 798.0ZM484.0 801.0C470.0 759.0 442.0 701.0 421.0 664.0L533.0 622.0C555.0 655.0 585.0 703.0 614.0 755.0Z"/></g>
<g fill="red" transform="translate(700 200) scale(0.1 -0.1)"><path d="M0.0 0.0V-29.0H645.0V0.0ZM70.0 192.0V163.0H583.0V192.0ZM308.0 314.0V-12.0H337.0V314.0ZM308.0 843.0V649.0H337.0V843.0ZM19.0 670.0V509.0H48.0V640.0H595.0V509.0H624.0V670.0ZM148.0 497.0H508.0V340.0H148.0ZM119.0 527.0V311.0H537.0V527.0ZM89.0 811.0C118.0 770.0 150.0 714.0 164.0 678.0L190.0 692.0C175.0 728.0 143.0 782.0 113.0 824.0ZM538.0 828.0C518.0 789.0 481.0 731.0 454.0 696.0L476.0 682.0C505.0 716.0 538.0 766.0 564.0 812.0Z"/></g>
<g fill="black" opacity=".8" transform="translate(700 200) scale(0.1 -0.1)"><path d="M0.0 0.0V-30.0H637.0V0.0ZM69.0 190.0V159.0H580.0V190.0ZM306.0 315.0V-13.0H338.0V315.0ZM305.0 850.0V649.0H336.0V850.0ZM27.0 668.0V508.0H57.0V638.0H590.0V508.0H620.0V668.0ZM150.0 498.0H503.0V337.0H150.0ZM119.0 528.0V308.0H534.0V528.0ZM87.0 815.0C117.0 772.0 151.0 714.0 166.0 678.0L193.0 692.0C178.0 729.0 143.0 785.0 111.0 827.0ZM534.0 831.0C512.0 790.0 473.0 729.0 445.0 692.0L469.0 678.0C497.0 714.0 533.0 766.0 560.0 815.0Z"/></g>
<g fill="red" transform="translate(800 200) scale(0.1 -0.1)"><path d="M0.0 0.0V-116.0H653.0V0.0ZM67.0 174.0V61.0H590.0V174.0ZM258.0 227.0V-70.0H396.0V227.0ZM256.0 819.0V594.0H390.0V819.0ZM9.0 654.0V465.0H134.0V538.0H507.0V465.0H638.0V654.0ZM228.0 378.0H424.0V332.0H228.0ZM100.0 483.0V226.0H560.0V483.0ZM44.0 762.0C69.0 722.0 95.0 666.0 103.0 629.0L221.0 680.0C210.0 716.0 183.0 768.0 156.0 806.0ZM488.0 811.0C475.0 770.0 449.0 714.0 429.0 679.0L537.0 634.0C558.0 666.0 585.0 713.0 613.0 762.0Z"/></g>
<g fill="black" opacity=".8" transform="translate(800 200) scale(0.1 -0.1)"><path d="M0.0 0.0V-119.0H655.0V0.0ZM63.0 174.0V58.0H602.0V174.0ZM260.0 238.0V-65.0H403.0V238.0ZM258.0 818.0V590.0H397.0V818.0ZM18.0 655.0V462.0H148.0V537.0H508.0V462.0H645.0V655.0ZM228.0 382.0H430.0V333.0H228.0ZM97.0 487.0V227.0H570.0V487.0ZM41.0 758.0C69.0 717.0 98.0 658.0 108.0 620.0L228.0 676.0C216.0 713.0 185.0 766.0 155.0 805.0ZM494.0 810.0C480.0 768.0 452.0 710.0 431.0 674.0L542.0 630.0C565.0 662.0 596.0 711.0 625.0 762.0Z"/></g>
<g fill="red" transform="translate(900 200) scale(0.1 -0.1)"><path d="M0.0 0.0V-29.0H587.0V0.0ZM55.0 184.0V154.0H527.0V184.0ZM283.0 317.0V-14.0H314.0V317.0ZM285.0 846.0V617.0H315.0V846.0ZM23.0 635.0V480.0H54.0V606.0H539.0V480.0H569.0V635.0ZM142.0 474.0H452.0V332.0H142.0ZM113.0 503.0V302.0H481.0V503.0ZM73.0 810.0C111.0 764.0 151.0 700.0 169.0 658.0L195.0 673.0C177.0 714.0 137.0 777.0 98.0 823.0ZM490.0 821.0C467.0 776.0 425.0 706.0 392.0 665.0L418.0 656.0C452.0 696.0 491.0 759.0 522.0 811.0Z"/></g>
<g fill="black" opacity=".8" transform="translate(900 200) scale(0.1 -0.1)"><path d="M0.0 0.0V-31.0H596.0V0.0ZM58.0 184.0V153.0H538.0V184.0ZM285.0 316.0V-15.0H317.0V316.0ZM287.0 844.0V623.0H318.0V844.0ZM25.0 641.0V484.0H57.0V611.0H545.0V484.0H576.0V641.0ZM142.0 477.0H460.0V332.0H142.0ZM111.0 507.0V302.0H491.0V507.0ZM75.0 808.0C112.0 762.0 151.0 699.0 168.0 659.0L195.0 674.0C178.0 714.0 138.0 776.0 100.0 820.0ZM499.0 820.0C476.0 775.0 433.0 708.0 401.0 667.0L427.0 656.0C459.0 696.0 499.0 756.0 530.0 808.0Z"/></g>
<g fill="red" transform="translate(1000 200) scale(0.1 -0.1)"><path d="M0.0 0.0V-114.0H621.0V0.0ZM50.0 165.0V52.0H569.0V165.0ZM246.0 265.0V-55.0H377.0V265.0ZM245.0 809.0V593.0H376.0V809.0ZM8.0 617.0V407.0H142.0V493.0H458.0V407.0H599.0V617.0ZM206.0 354.0H397.0V308.0H206.0ZM81.0 452.0V210.0H530.0V452.0ZM26.0 754.0C57.0 710.0 90.0 648.0 102.0 608.0L221.0 660.0C206.0 700.0 173.0 756.0 140.0 798.0ZM460.0 787.0C447.0 741.0 421.0 679.0 399.0 637.0L521.0 606.0C544.0 643.0 573.0 697.0 603.0 755.0Z"/></g>
<g fill="black" opacity=".8" transform="translate(1000 200) scale(0.1 -0.1)"><path d="M0.0 0.0V-116.0H606.0V0.0ZM46.0 168.0V53.0H557.0V168.0ZM235.0 260.0V-57.0H371.0V260.0ZM235.0 806.0V589.0H367.0V806.0ZM8.0 623.0V414.0H138.0V500.0H456.0V414.0H593.0V623.0ZM203.0 360.0H388.0V314.0H203.0ZM79.0 460.0V214.0H520.0V460.0ZM22.0 750.0C51.0 707.0 84.0 646.0 94.0 606.0L211.0 660.0C197.0 699.0 165.0 754.0 134.0 794.0ZM452.0 789.0C439.0 744.0 411.0 682.0 390.0 641.0L506.0 607.0C529.0 642.0 558.0 695.0 587.0 752.0Z"/></g>
<g fill="red" transform="translate(1100 200) scale(0.1 -0.1)"><path d="M0.0 0.0V-29.0H588.0V0.0ZM55.0 184.0V154.0H525.0V184.0ZM283.0 317.0V-14.0H313.0V317.0ZM285.0 846.0V617.0H314.0V846.0ZM33.0 635.0V480.0H64.0V606.0H530.0V480.0H560.0V635.0ZM142.0 474.0H452.0V332.0H142.0ZM113.0 503.0V302.0H481.0V503.0ZM73.0 810.0C111.0 764.0 151.0 700.0 168.0 658.0L195.0 673.0C177.0 714.0 137.0 777.0 98.0 823.0ZM490.0 821.0C467.0 776.0 425.0 706.0 392.0 665.0L418.0 656.0C452.0 696.0 491.0 759.0 522.0 811.0Z"/></g>
<g fill="black" opacity=".8" transform="translate(1100 200) scale(0.1 -0.1)"><path d="M0.0 0.0V-31.0H590.0V0.0ZM57.0 184.0V153.0H533.0V184.0ZM282.0 316.0V-15.0H314.0V316.0ZM284.0 845.0V622.0H315.0V845.0ZM25.0 640.0V484.0H56.0V610.0H539.0V484.0H571.0V640.0ZM141.0 477.0H454.0V332.0H141.0ZM110.0 507.0V302.0H486.0V507.0ZM74.0 809.0C111.0 762.0 150.0 700.0 167.0 659.0L194.0 674.0C177.0 714.0 137.0 776.0 99.0 821.0ZM495.0 821.0C471.0 776.0 429.0 707.0 396.0 666.0L422.0 656.0C455.0 696.0 495.0 757.0 526.0 809.0Z"/></g>
<g fill="red" transform="translate(1200 200) scale(0.1 -0.1)"><path d="M0.0 0.0V-114.0H608.0V0.0ZM49.0 165.0V52.0H558.0V165.0ZM240.0 265.0V-55.0H373.0V265.0ZM241.0 809.0V593.0H370.0V809.0ZM20.0 617.0V407.0H152.0V493.0H451.0V407.0H589.0V617.0ZM202.0 354.0H389.0V308.0H202.0ZM79.0 452.0V210.0H520.0V452.0ZM26.0 754.0C56.0 710.0 88.0 648.0 100.0 608.0L217.0 660.0C202.0 700.0 170.0 756.0 137.0 798.0ZM452.0 787.0C440.0 741.0 414.0 679.0 393.0 637.0L512.0 606.0C535.0 643.0 563.0 697.0 593.0 755.0Z"/></g>
<g fill="black" opacity=".8" transform="translate(1200 200) scale(0.1 -0.1)"><path d="M0.0 0.0V-116.0H601.0V0.0ZM45.0 168.0V53.0H552.0V168.0ZM232.0 262.0V-57.0H368.0V262.0ZM232.0 807.0V590.0H364.0V807.0ZM8.0 621.0V412.0H138.0V498.0H451.0V412.0H588.0V621.0ZM200.0 358.0H384.0V313.0H200.0ZM77.0 458.0V213.0H515.0V458.0ZM20.0 750.0C50.0 707.0 83.0 646.0 94.0 606.0L210.0 659.0C196.0 699.0 163.0 754.0 132.0 795.0ZM448.0 789.0C435.0 743.0 407.0 681.0 386.0 640.0L503.0 606.0C525.0 642.0 554.0 695.0 583.0 752.0Z"/></g>
<g fill="red" transform="translate(1300 200) scale(0.1 -0.1)"><path d="M0.0 0.0V-29.0H559.0V0.0ZM46.0 184.0V154.0H517.0V184.0ZM269.0 317.0V-14.0H299.0V317.0ZM271.0 846.0V617.0H300.0V846.0ZM25.0 635.0V480.0H55.0V606.0H509.0V480.0H540.0V635.0ZM133.0 474.0H431.0V332.0H133.0ZM104.0 503.0V302.0H461.0V503.0ZM70.0 810.0C107.0 764.0 147.0 700.0 165.0 658.0L191.0 673.0C174.0 714.0 133.0 777.0 94.0 823.0ZM474.0 821.0C451.0 776.0 409.0 706.0 376.0 665.0L402.0 656.0C435.0 696.0 475.0 759.0 506.0 811.0Z"/></g>
<g fill="black" opacity=".8" transform="translate(1300 200) scale(0.1 -0.1)"><path d="M0.0 0.0V-30.0H561.0V0.0ZM52.0 184.0V153.0H505.0V184.0ZM267.0 317.0V-15.0H299.0V317.0ZM270.0 848.0V618.0H300.0V848.0ZM24.0 635.0V482.0H55.0V606.0H510.0V482.0H541.0V635.0ZM135.0 475.0H428.0V332.0H135.0ZM105.0 504.0V302.0H459.0V504.0ZM66.0 812.0C105.0 765.0 145.0 701.0 163.0 659.0L189.0 673.0C172.0 715.0 131.0 779.0 91.0 824.0ZM472.0 822.0C449.0 776.0 406.0 706.0 372.0 664.0L399.0 655.0C432.0 696.0 473.0 759.0 504.0 813.0Z"/></g>
<g fill="red" transform="translate(1400 200) scale(0.1 -0.1)"><path d="M0.0 0.0V-114.0H572.0V0.0ZM33.0 165.0V52.0H524.0V165.0ZM218.0 265.0V-55.0H351.0V265.0ZM219.0 809.0V593.0H344.0V809.0ZM6.0 617.0V407.0H133.0V493.0H423.0V407.0H557.0V617.0ZM182.0 354.0H364.0V308.0H182.0ZM63.0 452.0V210.0H490.0V452.0ZM12.0 754.0C41.0 710.0 73.0 648.0 84.0 608.0L197.0 660.0C183.0 700.0 151.0 756.0 120.0 798.0ZM423.0 787.0C411.0 741.0 386.0 679.0 365.0 637.0L481.0 606.0C503.0 643.0 530.0 697.0 559.0 755.0Z"/></g>
<g fill="black" opacity=".8" transform="translate(1400 200) scale(0.1 -0.1)"><path d="M0.0 0.0V-115.0H576.0V0.0ZM39.0 166.0V52.0H529.0V166.0ZM221.0 268.0V-54.0H352.0V268.0ZM221.0 809.0V592.0H348.0V809.0ZM7.0 613.0V400.0H137.0V489.0H423.0V400.0H559.0V613.0ZM188.0 353.0H364.0V307.0H188.0ZM68.0 451.0V210.0H492.0V451.0ZM13.0 753.0C44.0 709.0 78.0 647.0 89.0 606.0L203.0 659.0C188.0 699.0 155.0 755.0 122.0 797.0ZM429.0 787.0C416.0 741.0 388.0 677.0 367.0 636.0L483.0 604.0C506.0 641.0 535.0 696.0 564.0 754.0Z"/></g>
<g fill="red" transform="translate(1500 200) scale(0.1 -0.1)"><path d="M0.0 0.0V-30.0H565.0V0.0ZM58.0 104.0V75.0H517.0V104.0ZM274.0 202.0V-14.0H304.0V202.0ZM274.0 503.0V384.0H304.0V503.0ZM23.0 398.0V276.0H53.0V369.0H529.0V276.0H558.0V398.0ZM134.0 279.0H441.0V207.0H134.0ZM105.0 308.0V178.0H470.0V308.0ZM91.0 474.0C117.0 445.0 147.0 405.0 161.0 379.0L187.0 394.0C173.0 419.0 143.0 457.0 116.0 486.0ZM454.0 491.0C435.0 461.0 400.0 416.0 374.0 389.0L396.0 375.0C422.0 400.0 455.0 439.0 480.0 474.0Z"/></g>
<g fill="black" opacity=".8" transform="translate(1500 200) scale(0.1 -0.1)"><path d="M0.0 0.0V-28.0H559.0V0.0ZM55.0 105.0V77.0H515.0V105.0ZM274.0 200.0V-13.0H303.0V200.0ZM276.0 504.0V377.0H304.0V504.0ZM26.0 393.0V272.0H54.0V367.0H522.0V272.0H550.0V393.0ZM134.0 275.0H439.0V205.0H134.0ZM106.0 302.0V179.0H466.0V302.0ZM92.0 477.0C118.0 446.0 148.0 406.0 161.0 380.0L185.0 394.0C172.0 419.0 142.0 459.0 116.0 488.0ZM453.0 490.0C435.0 461.0 401.0 416.0 375.0 389.0L397.0 377.0C423.0 402.0 455.0 441.0 479.0 476.0Z"/></g>
<g fill="red" transform="translate(1600 200) scale(0.1 -0.1)"><path d="M0.0 0.0V-88.0H505.0V0.0ZM39.0 113.0V25.0H467.0V113.0ZM191.0 173.0V-39.0H309.0V173.0ZM190.0 473.0V351.0H307.0V473.0ZM-20.0 406.0V252.0H73.0V323.0H431.0V256.0H530.0V406.0ZM183.0 232.0H327.0V210.0H183.0ZM91.0 301.0V141.0H425.0V301.0ZM21.0 444.0C37.0 419.0 53.0 381.0 60.0 356.0L155.0 392.0C147.0 418.0 130.0 450.0 113.0 471.0ZM368.0 475.0C359.0 447.0 343.0 408.0 330.0 380.0L412.0 352.0C426.0 375.0 442.0 406.0 461.0 446.0Z"/></g>
<g fill="black" opacity=".8" transform="translate(1600 200) scale(0.1 -0.1)"><path d="M0.0 0.0V-84.0H511.0V0.0ZM40.0 110.0V26.0H471.0V110.0ZM199.0 172.0V-39.0H312.0V172.0ZM198.0 476.0V358.0H309.0V476.0ZM-16.0 403.0V250.0H77.0V320.0H430.0V253.0H529.0V403.0ZM180.0 227.0H333.0V206.0H180.0ZM90.0 295.0V137.0H430.0V295.0ZM28.0 448.0C43.0 422.0 60.0 383.0 65.0 358.0L159.0 391.0C153.0 418.0 135.0 450.0 119.0 473.0ZM370.0 473.0C363.0 446.0 349.0 406.0 338.0 379.0L423.0 354.0C434.0 377.0 449.0 408.0 466.0 448.0Z"/></g>
<g fill="red" transform="translate(100 300) scale(0.1 -0.1)"><path d="M0.0 0.0V-29.0H636.0V0.0ZM70.0 192.0V163.0H583.0V192.0ZM307.0 314.0V-12.0H337.0V314.0ZM307.0 843.0V649.0H337.0V843.0ZM25.0 670.0V509.0H55.0V640.0H594.0V509.0H623.0V670.0ZM148.0 497.0H507.0V340.0H148.0ZM118.0 527.0V311.0H537.0V527.0ZM89.0 811.0C117.0 770.0 150.0 714.0 163.0 678.0L190.0 692.0C175.0 728.0 143.0 782.0 112.0 824.0ZM538.0 828.0C518.0 789.0 481.0 731.0 454.0 696.0L476.0 682.0C504.0 716.0 538.0 766.0 564.0 812.0Z"/></g>
<g fill="black" opacity=".8" transform="translate(100 300) scale(0.1 -0.1)"><path d="M0.0 0.0V-30.0H630.0V0.0ZM68.0 190.0V159.0H574.0V190.0ZM303.0 314.0V-13.0H335.0V314.0ZM302.0 848.0V647.0H333.0V848.0ZM26.0 666.0V507.0H56.0V637.0H584.0V507.0H614.0V666.0ZM148.0 496.0H497.0V336.0H148.0ZM118.0 527.0V307.0H528.0V527.0ZM85.0 813.0C115.0 770.0 149.0 713.0 164.0 676.0L191.0 690.0C176.0 727.0 141.0 783.0 109.0 825.0ZM529.0 828.0C507.0 788.0 469.0 728.0 440.0 690.0L464.0 677.0C492.0 712.0 528.0 764.0 555.0 813.0Z"/></g>
<g fill="red" transform="translate(200 300) scale(0.1 -0.1)"><path d="M0.0 0.0V-116.0H635.0V0.0ZM67.0 174.0V61.0H581.0V174.0ZM251.0 227.0V-70.0H389.0V227.0ZM249.0 809.0V584.0H383.0V809.0ZM18.0 654.0V465.0H143.0V538.0H494.0V465.0H625.0V654.0ZM221.0 378.0H417.0V332.0H221.0ZM93.0 483.0V226.0H553.0V483.0ZM49.0 754.0C73.0 716.0 97.0 662.0 106.0 628.0L223.0 679.0C212.0 713.0 187.0 762.0 161.0 798.0ZM478.0 805.0C465.0 767.0 439.0 715.0 419.0 681.0L527.0 636.0C548.0 666.0 575.0 710.0 603.0 756.0Z"/></g>
<g fill="black" opacity=".8" transform="translate(200 300) scale(0.1 -0.1)"><path d="M0.0 0.0V-119.0H650.0V0.0ZM62.0 173.0V58.0H597.0V173.0ZM258.0 237.0V-65.0H400.0V237.0ZM256.0 816.0V588.0H394.0V816.0ZM18.0 652.0V460.0H148.0V535.0H503.0V461.0H639.0V652.0ZM226.0 380.0H426.0V332.0H226.0ZM95.0 485.0V226.0H565.0V485.0ZM40.0 756.0C68.0 715.0 98.0 656.0 107.0 618.0L226.0 674.0C214.0 711.0 184.0 764.0 154.0 803.0ZM490.0 808.0C476.0 766.0 448.0 708.0 427.0 672.0L538.0 628.0C560.0 660.0 591.0 709.0 620.0 760.0Z"/></g>
<g fill="red" transform="translate(300 300) scale(0.1 -0.1)"><path d="M0.0 0.0V-29.0H525.0V0.0ZM63.0 189.0V159.0H461.0V189.0ZM240.0 313.0V-13.0H269.0V313.0ZM240.0 844.0V645.0H269.0V844.0ZM11.0 660.0V516.0H41.0V631.0H481.0V516.0H510.0V660.0ZM120.0 499.0H400.0V334.0H120.0ZM91.0 529.0V304.0H430.0V529.0ZM53.0 810.0C85.0 769.0 118.0 712.0 133.0 674.0L158.0 687.0C144.0 725.0 109.0 781.0 76.0 822.0ZM441.0 826.0C420.0 784.0 381.0 724.0 352.0 686.0L374.0 673.0C403.0 709.0 439.0 763.0 466.0 811.0Z"/></g>
<g fill="black" opacity=".8" transform="translate(300 300) scale(0.1 -0.1)"><path d="M0.0 0.0V-26.0H512.0V0.0ZM54.0 190.0V163.0H461.0V190.0ZM242.0 310.0V-12.0H270.0V310.0ZM243.0 847.0V634.0H269.0V847.0ZM21.0 650.0V506.0H47.0V625.0H467.0V506.0H494.0V650.0ZM121.0 493.0H397.0V331.0H121.0ZM95.0 519.0V305.0H424.0V519.0ZM57.0 815.0C88.0 771.0 121.0 713.0 136.0 676.0L158.0 687.0C144.0 725.0 110.0 783.0 77.0 824.0ZM437.0 825.0C417.0 784.0 381.0 722.0 354.0 684.0L376.0 675.0C403.0 712.0 436.0 766.0 462.0 815.0Z"/></g>
<g fill="red" transform="translate(400 300) scale(0.1 -0.1)"><path d="M0.0 0.0V-115.0H545.0V0.0ZM53.0 173.0V59.0H499.0V173.0ZM203.0 241.0V-61.0H334.0V241.0ZM203.0 809.0V575.0H334.0V809.0ZM14.0 625.0V436.0H135.0V512.0H407.0V436.0H534.0V625.0ZM194.0 371.0H345.0V322.0H194.0ZM74.0 471.0V222.0H473.0V471.0ZM14.0 747.0C44.0 707.0 76.0 651.0 88.0 614.0L196.0 671.0C181.0 706.0 149.0 758.0 117.0 796.0ZM422.0 801.0C404.0 759.0 369.0 701.0 343.0 665.0L444.0 620.0C471.0 653.0 505.0 703.0 537.0 753.0Z"/></g>
<g fill="black" opacity=".8" transform="translate(400 300) scale(0.1 -0.1)"><path d="M0.0 0.0V-110.0H555.0V0.0ZM48.0 166.0V58.0H508.0V166.0ZM218.0 240.0V-59.0H341.0V240.0ZM217.0 815.0V586.0H336.0V815.0ZM24.0 623.0V438.0H146.0V508.0H402.0V436.0H531.0V623.0ZM185.0 365.0H357.0V314.0H185.0ZM66.0 463.0V215.0H484.0V463.0ZM24.0 753.0C54.0 712.0 86.0 653.0 97.0 615.0L203.0 669.0C189.0 705.0 156.0 760.0 125.0 800.0ZM423.0 799.0C408.0 755.0 379.0 697.0 357.0 661.0L463.0 623.0C486.0 656.0 518.0 706.0 547.0 757.0Z"/></g>
<g fill="red" transform="translate(500 300) scale(0.1 -0.1)"><path d="M0.0 0.0V-29.0H658.0V0.0ZM73.0 192.0V163.0H596.0V192.0ZM314.0 314.0V-12.0H343.0V314.0ZM314.0 843.0V649.0H344.0V843.0ZM20.0 670.0V509.0H49.0V640.0H607.0V509.0H636.0V670.0ZM151.0 497.0H518.0V340.0H151.0ZM122.0 527.0V311.0H548.0V527.0ZM91.0 811.0C120.0 770.0 153.0 714.0 167.0 678.0L194.0 692.0C179.0 728.0 146.0 782.0 115.0 824.0ZM549.0 828.0C529.0 789.0 491.0 731.0 463.0 696.0L486.0 682.0C515.0 716.0 549.0 766.0 576.0 812.0Z"/></g>
<g fill="black" opacity=".8" transform="translate(500 300) scale(0.1 -0.1)"><path d="M0.0 0.0V-31.0H662.0V0.0ZM75.0 191.0V159.0H605.0V191.0ZM320.0 313.0V-13.0H352.0V313.0ZM317.0 846.0V655.0H349.0V846.0ZM28.0 674.0V512.0H58.0V644.0H616.0V512.0H647.0V674.0ZM155.0 501.0H527.0V337.0H155.0ZM124.0 532.0V307.0H558.0V532.0ZM94.0 810.0C122.0 768.0 154.0 713.0 168.0 679.0L195.0 692.0C181.0 728.0 148.0 782.0 118.0 822.0ZM554.0 828.0C533.0 789.0 495.0 731.0 468.0 695.0L491.0 680.0C519.0 714.0 553.0 763.0 579.0 810.0Z"/></g>
<g fill="red" transform="translate(600 300) scale(0.1 -0.1)"><path d="M0.0 0.0V-116.0H695.0V0.0ZM81.0 174.0V61.0H630.0V174.0ZM281.0 227.0V-70.0H426.0V227.0ZM279.0 819.0V594.0H419.0V819.0ZM20.0 654.0V465.0H151.0V538.0H543.0V465.0H680.0V654.0ZM250.0 378.0H456.0V332.0H250.0ZM116.0 483.0V226.0H599.0V483.0ZM56.0 762.0C83.0 722.0 110.0 666.0 118.0 629.0L242.0 680.0C231.0 716.0 202.0 768.0 174.0 806.0ZM522.0 811.0C508.0 770.0 481.0 714.0 460.0 679.0L573.0 634.0C595.0 666.0 624.0 713.0 653.0 762.0Z"/></g>
<g fill="black" opacity=".8" transform="translate(600 300) scale(0.1 -0.1)"><path d="M0.0 0.0V-121.0H680.0V0.0ZM70.0 175.0V59.0H624.0V175.0ZM272.0 228.0V-69.0H419.0V228.0ZM269.0 816.0V586.0H412.0V816.0ZM20.0 664.0V477.0H150.0V548.0H535.0V478.0H672.0V664.0ZM240.0 388.0H450.0V339.0H240.0ZM106.0 495.0V230.0H593.0V495.0ZM49.0 754.0C76.0 714.0 104.0 657.0 113.0 620.0L235.0 676.0C224.0 712.0 194.0 765.0 165.0 802.0ZM514.0 812.0C499.0 771.0 471.0 715.0 451.0 680.0L560.0 633.0C583.0 664.0 614.0 710.0 643.0 759.0Z"/></g>
</svg>
