<?xml version="1.0" encoding="UTF-8"?>
<svg width="1700" height="300" xmlns="http://www.w3.org/2000/svg">
<rect width="100%" height="100%" fill="white"/>
<g fill="green" transform="translate(100 100) scale(0.1 -0.1)"><path d="M0.0 0.0 -18.0 -29.0H186.0V0.0H0.0ZM-243.0 106.0V8.0H-214.0V76.0H174.0V8.0H203.0V106.0H-243.0ZM-226.0 4.0V-26.0H-44.0V4.0H-226.0ZM-226.0 -90.0V-120.0H-53.0V-90.0H-226.0ZM-36.0 -88.0V-118.0H195.0V-88.0H-36.0ZM-245.0 -200.0 -241.0 -230.0C-184.0 -225.0 -117.0 -221.0 -44.0 -215.0V-185.0C-122.0 -191.0 -190.0 -197.0 -245.0 -200.0ZM-153.0 -15.0V-210.0L-124.0 -207.0V-15.0H-153.0ZM25.0 53.0C7.0 15.0 -23.0 -29.0 -64.0 -66.0C-56.0 -69.0 -46.0 -75.0 -41.0 -81.0C4.0 -41.0 34.0 4.0 56.0 49.0L25.0 53.0ZM60.0 -11.0V-214.0H90.0V-11.0H60.0ZM231.0 90.0V-391.0H261.0V90.0H231.0ZM-33.0 -141.0V-229.0H187.0V-141.0H157.0V-200.0H-3.0V-141.0H-33.0ZM-173.0 -396.0H124.0V-461.0H-173.0V-396.0ZM-173.0 -490.0H124.0V-556.0H-173.0V-490.0ZM-173.0 -304.0H124.0V-367.0H-173.0V-304.0ZM-202.0 -274.0V-585.0H154.0V-274.0H-202.0ZM299.0 -485.0C311.0 -539.0 321.0 -608.0 322.0 -652.0L350.0 -648.0C350.0 -603.0 340.0 -534.0 325.0 -481.0L299.0 -485.0ZM-95.0 -600.0C-133.0 -633.0 -210.0 -670.0 -273.0 -693.0C-267.0 -699.0 -257.0 -711.0 -253.0 -717.0C-191.0 -694.0 -115.0 -656.0 -62.0 -615.0L-95.0 -600.0Z"/></g>
<g fill="green" transform="translate(200 100) scale(0.1 -0.1)"><path d="M0.0 0.0 -32.0 -69.0H160.0V0.0H0.0ZM-292.0 138.0V-17.0H-180.0V33.0H70.0V-17.0H188.0V138.0H-292.0ZM-264.0 7.0V-71.0H-70.0V7.0H-264.0ZM-254.0 -92.0V-160.0H-83.0V-92.0H-254.0ZM-75.0 -88.0V-157.0H168.0V-88.0H-75.0ZM-279.0 -188.0 -271.0 -281.0C-213.0 -277.0 -144.0 -272.0 -75.0 -267.0V-179.0C-152.0 -183.0 -225.0 -186.0 -279.0 -188.0ZM-210.0 -25.0V-220.0L-122.0 -209.0V-25.0H-210.0ZM-33.0 40.0C-46.0 6.0 -67.0 -31.0 -97.0 -60.0C-78.0 -71.0 -51.0 -96.0 -37.0 -116.0C-1.0 -75.0 21.0 -31.0 40.0 24.0L-33.0 40.0ZM4.0 -30.0V-224.0H92.0V-30.0H4.0ZM199.0 100.0V-422.0H322.0V100.0H199.0ZM-70.0 -169.0V-274.0H168.0V-169.0H102.0V-205.0H-7.0V-169.0H-70.0ZM-143.0 -445.0H25.0V-466.0H-143.0V-445.0ZM-143.0 -533.0H25.0V-554.0H-143.0V-533.0ZM-143.0 -358.0H25.0V-378.0H-143.0V-358.0ZM-263.0 -286.0V-626.0H152.0V-286.0H-263.0ZM267.0 -534.0C276.0 -585.0 281.0 -652.0 279.0 -695.0L353.0 -682.0C353.0 -639.0 347.0 -573.0 336.0 -523.0L267.0 -534.0ZM-157.0 -588.0C-193.0 -619.0 -261.0 -657.0 -316.0 -676.0C-294.0 -699.0 -263.0 -735.0 -246.0 -758.0C-190.0 -737.0 -116.0 -697.0 -70.0 -659.0L-157.0 -588.0Z"/></g>
<g fill="green" transform="translate(300 100) scale(0.1 -0.1)"><path d="M0.0 0.0 -18.0 -29.0H186.0V0.0H0.0ZM-243.0 106.0V8.0H-214.0V76.0H174.0V8.0H203.0V106.0H-243.0ZM-226.0 4.0V-26.0H-44.0V4.0H-226.0ZM-226.0 -90.0V-120.0H-53.0V-90.0H-226.0ZM-36.0 -88.0V-118.0H195.0V-88.0H-36.0ZM-245.0 -200.0 -241.0 -230.0C-184.0 -225.0 -117.0 -221.0 -44.0 -215.0V-185.0C-122.0 -191.0 -190.0 -197.0 -245.0 -200.0ZM-153.0 -15.0V-210.0L-124.0 -207.0V-15.0H-153.0ZM25.0 53.0C7.0 15.0 -23.0 -29.0 -64.0 -66.0C-56.0 -69.0 -46.0 -75.0 -41.0 -81.0C4.0 -41.0 34.0 4.0 56.0 49.0L25.0 53.0ZM60.0 -11.0V-214.0H90.0V-11.0H60.0ZM231.0 90.0V-391.0H261.0V90.0H231.0ZM-33.0 -141.0V-229.0H187.0V-141.0H157.0V-200.0H-3.0V-141.0H-33.0ZM-173.0 -396.0H124.0V-461.0H-173.0V-396.0ZM-173.0 -490.0H124.0V-556.0H-173.0V-490.0ZM-173.0 -304.0H124.0V-367.0H-173.0V-304.0ZM-202.0 -274.0V-585.0H154.0V-274.0H-202.0ZM299.0 -485.0C311.0 -539.0 321.0 -608.0 322.0 -652.0L350.0 -648.0C350.0 -603.0 340.0 -534.0 325.0 -481.0L299.0 -485.0ZM-95.0 -600.0C-133.0 -633.0 -210.0 -670.0 -273.0 -693.0C-267.0 -699.0 -257.0 -711.0 -253.0 -717.0C-191.0 -694.0 -115.0 -656.0 -62.0 -615.0L-95.0 -600.0Z"/></g>
<g fill="green" transform="translate(400 100) scale(0.1 -0.1)"><path d="M0.0 0.0 -32.0 -69.0H160.0V0.0H0.0ZM-292.0 138.0V-17.0H-180.0V33.0H70.0V-17.0H188.0V138.0H-292.0ZM-264.0 7.0V-71.0H-70.0V7.0H-264.0ZM-254.0 -92.0V-160.0H-83.0V-92.0H-254.0ZM-75.0 -88.0V-157.0H168.0V-88.0H-75.0ZM-279.0 -188.0 -271.0 -281.0C-213.0 -277.0 -144.0 -272.0 -75.0 -267.0V-179.0C-152.0 -183.0 -225.0 -186.0 -279.0 -188.0ZM-210.0 -25.0V-220.0L-122.0 -209.0V-25.0H-210.0ZM-33.0 40.0C-46.0 6.0 -67.0 -31.0 -97.0 -60.0C-78.0 -71.0 -51.0 -96.0 -37.0 -116.0C-1.0 -75.0 21.0 -31.0 40.0 24.0L-33.0 40.0ZM4.0 -30.0V-224.0H92.0V-30.0H4.0ZM199.0 100.0V-422.0H322.0V100.0H199.0ZM-70.0 -169.0V-274.0H168.0V-169.0H102.0V-205.0H-7.0V-169.0H-70.0ZM-143.0 -445.0H25.0V-466.0H-143.0V-445.0ZM-143.0 -533.0H25.0V-554.0H-143.0V-533.0ZM-143.0 -358.0H25.0V-378.0H-143.0V-358.0ZM-263.0 -286.0V-626.0H152.0V-286.0H-263.0ZM267.0 -534.0C276.0 -585.0 281.0 -652.0 279.0 -695.0L353.0 -682.0C353.0 -639.0 347.0 -573.0 336.0 -523.0L267.0 -534.0ZM-157.0 -588.0C-193.0 -619.0 -261.0 -657.0 -316.0 -676.0C-294.0 -699.0 -263.0 -735.0 -246.0 -758.0C-190.0 -737.0 -116.0 -697.0 -70.0 -659.0L-157.0 -588.0Z"/></g>
<g fill="red" transform="translate(100 200) scale(0.1 -0.1)"><path d="M0.0 0.0 -18.0 -29.0H186.0V0.0H0.0ZM-243.0 106.0V8.0H-214.0V76.0H174.0V8.0H203.0V106.0H-243.0ZM-226.0 4.0V-26.0H-44.0V4.0H-226.0ZM-226.0 -90.0V-120.0H-53.0V-90.0H-226.0ZM-36.0 -88.0V-118.0H195.0V-88.0H-36.0ZM-245.0 -200.0 -241.0 -230.0C-184.0 -225.0 -117.0 -221.0 -44.0 -215.0V-185.0C-122.0 -191.0 -190.0 -197.0 -245.0 -200.0ZM-153.0 -15.0V-210.0L-124.0 -207.0V-15.0H-153.0ZM25.0 53.0C7.0 15.0 -23.0 -29.0 -64.0 -66.0C-56.0 -69.0 -46.0 -75.0 -41.0 -81.0C4.0 -41.0 34.0 4.0 56.0 49.0L25.0 53.0ZM60.0 -11.0V-214.0H90.0V-11.0H60.0ZM231.0 90.0V-391.0H261.0V90.0H231.0ZM-33.0 -141.0V-229.0H187.0V-141.0H157.0V-200.0H-3.0V-141.0H-33.0ZM-173.0 -396.0H124.0V-461.0H-173.0V-396.0ZM-173.0 -490.0H124.0V-556.0H-173.0V-490.0ZM-173.0 -304.0H124.0V-367.0H-173.0V-304.0ZM-202.0 -274.0V-585.0H154.0V-274.0H-202.0ZM299.0 -485.0C311.0 -539.0 321.0 -608.0 322.0 -652.0L350.0 -648.0C350.0 -603.0 340.0 -534.0 325.0 -481.0L299.0 -485.0ZM-95.0 -600.0C-133.0 -633.0 -210.0 -670.0 -273.0 -693.0C-267.0 -699.0 -257.0 -711.0 -253.0 -717.0C-191.0 -694.0 -115.0 -656.0 -62.0 -615.0L-95.0 -600.0Z"/></g>
<g fill="black" opacity=".8" transform="translate(100 200) scale(0.1 -0.1)"><path d="M0.0 0.0 -18.0 -29.0H186.0V0.0H0.0ZM-243.0 106.0V8.0H-214.0V76.0H174.0V8.0H203.0V106.0H-243.0ZM-226.0 4.0V-26.0H-44.0V4.0H-226.0ZM-226.0 -90.0V-120.0H-53.0V-90.0H-226.0ZM-36.0 -88.0V-118.0H195.0V-88.0H-36.0ZM-245.0 -200.0 -241.0 -230.0C-184.0 -225.0 -117.0 -221.0 -44.0 -215.0V-185.0C-122.0 -191.0 -190.0 -197.0 -245.0 -200.0ZM-153.0 -15.0V-210.0L-124.0 -207.0V-15.0H-153.0ZM25.0 53.0C7.0 15.0 -23.0 -29.0 -64.0 -66.0C-56.0 -69.0 -46.0 -75.0 -41.0 -81.0C4.0 -41.0 34.0 4.0 56.0 49.0L25.0 53.0ZM60.0 -11.0V-214.0H90.0V-11.0H60.0ZM231.0 90.0V-391.0H261.0V90.0H231.0ZM-33.0 -141.0V-229.0H187.0V-141.0H157.0V-200.0H-3.0V-141.0H-33.0ZM-173.0 -396.0H124.0V-461.0H-173.0V-396.0ZM-173.0 -490.0H124.0V-556.0H-173.0V-490.0ZM-173.0 -304.0H124.0V-367.0H-173.0V-304.0ZM-202.0 -274.0V-585.0H154.0V-274.0H-202.0ZM299.0 -485.0C311.0 -539.0 321.0 -608.0 322.0 -652.0L350.0 -648.0C350.0 -603.0 340.0 -534.0 325.0 -481.0L299.0 -485.0ZM-95.0 -600.0C-133.0 -633.0 -210.0 -670.0 -273.0 -693.0C-267.0 -699.0 -257.0 -711.0 -253.0 -717.0C-191.0 -694.0 -115.0 -656.0 -62.0 -615.0L-95.0 -600.0Z"/></g>
<g fill="red" transform="translate(200 200) scale(0.1 -0.1)"><path d="M0.0 0.0 -32.0 -69.0H160.0V0.0H0.0ZM-292.0 138.0V-17.0H-180.0V33.0H70.0V-17.0H188.0V138.0H-292.0ZM-264.0 7.0V-71.0H-70.0V7.0H-264.0ZM-254.0 -92.0V-160.0H-83.0V-92.0H-254.0ZM-75.0 -88.0V-157.0H168.0V-88.0H-75.0ZM-279.0 -188.0 -271.0 -281.0C-213.0 -277.0 -144.0 -272.0 -75.0 -267.0V-179.0C-152.0 -183.0 -225.0 -186.0 -279.0 -188.0ZM-210.0 -25.0V-220.0L-122.0 -209.0V-25.0H-210.0ZM-33.0 40.0C-46.0 6.0 -67.0 -31.0 -97.0 -60.0C-78.0 -71.0 -51.0 -96.0 -37.0 -116.0C-1.0 -75.0 21.0 -31.0 40.0 24.0L-33.0 40.0ZM4.0 -30.0V-224.0H92.0V-30.0H4.0ZM199.0 100.0V-422.0H322.0V100.0H199.0ZM-70.0 -169.0V-274.0H168.0V-169.0H102.0V-205.0H-7.0V-169.0H-70.0ZM-143.0 -445.0H25.0V-466.0H-143.0V-445.0ZM-143.0 -533.0H25.0V-554.0H-143.0V-533.0ZM-143.0 -358.0H25.0V-378.0H-143.0V-358.0ZM-263.0 -286.0V-626.0H152.0V-286.0H-263.0ZM267.0 -534.0C276.0 -585.0 281.0 -652.0 279.0 -695.0L353.0 -682.0C353.0 -639.0 347.0 -573.0 336.0 -523.0L267.0 -534.0ZM-157.0 -588.0C-193.0 -619.0 -261.0 -657.0 -316.0 -676.0C-294.0 -699.0 -263.0 -735.0 -246.0 -758.0C-190.0 -737.0 -116.0 -697.0 -70.0 -659.0L-157.0 -588.0Z"/></g>
<g fill="black" opacity=".8" transform="translate(200 200) scale(0.1 -0.1)"><path d="M0.0 0.0 -32.0 -69.0H160.0V0.0H0.0ZM-292.0 138.0V-17.0H-180.0V33.0H70.0V-17.0H188.0V138.0H-292.0ZM-264.0 7.0V-71.0H-70.0V7.0H-264.0ZM-254.0 -92.0V-160.0H-83.0V-92.0H-254.0ZM-75.0 -88.0V-157.0H168.0V-88.0H-75.0ZM-279.0 -188.0 -271.0 -281.0C-213.0 -277.0 -144.0 -272.0 -75.0 -267.0V-179.0C-152.0 -183.0 -225.0 -186.0 -279.0 -188.0ZM-210.0 -25.0V-220.0L-122.0 -209.0V-25.0H-210.0ZM-33.0 40.0C-46.0 6.0 -67.0 -31.0 -97.0 -60.0C-78.0 -71.0 -51.0 -96.0 -37.0 -116.0C-1.0 -75.0 21.0 -31.0 40.0 24.0L-33.0 40.0ZM4.0 -30.0V-224.0H92.0V-30.0H4.0ZM199.0 100.0V-422.0H322.0V100.0H199.0ZM-70.0 -169.0V-274.0H168.0V-169.0H102.0V-205.0H-7.0V-169.0H-70.0ZM-143.0 -445.0H25.0V-466.0H-143.0V-445.0ZM-143.0 -533.0H25.0V-554.0H-143.0V-533.0ZM-143.0 -358.0H25.0V-378.0H-143.0V-358.0ZM-263.0 -286.0V-626.0H152.0V-286.0H-263.0ZM267.0 -534.0C276.0 -585.0 281.0 -652.0 279.0 -695.0L353.0 -682.0C353.0 -639.0 347.0 -573.0 336.0 -523.0L267.0 -534.0ZM-157.0 -588.0C-193.0 -619.0 -261.0 -657.0 -316.0 -676.0C-294.0 -699.0 -263.0 -735.0 -246.0 -758.0C-190.0 -737.0 -116.0 -697.0 -70.0 -659.0L-157.0 -588.0Z"/></g>
</svg>
