<?xml version="1.0" encoding="UTF-8"?>
<svg width="1700" height="1000" xmlns="http://www.w3.org/2000/svg">
<rect width="100%" height="100%" fill="white"/>
<g fill="green" transform="translate(100 100) scale(0.1 -0.1)"><path d="M0.0 0.0V-420.0H11.0V-0.0ZM134.0 69.0V-328.0H144.0V69.0ZM75.0 15.0V-308.0H206.0V-298.0H85.0V15.0Z"/></g>
<g fill="green" transform="translate(200 100) scale(0.1 -0.1)"><path d="M0.0 0.0V-410.0H52.0V0.0ZM118.0 87.0V-339.0H166.0V87.0ZM103.0 16.0V-322.0H208.0V-274.0H157.0V16.0Z"/></g>
<g fill="green" transform="translate(300 100) scale(0.1 -0.1)"><path d="M0.0 0.0V-926.0H32.0V0.0ZM252.0 -63.0V-883.0H283.0V-63.0ZM-45.0 -109.0V-829.0H327.0V-797.0H-13.0V-109.0Z"/></g>
<g fill="green" transform="translate(400 100) scale(0.1 -0.1)"><path d="M0.0 0.0V-931.0H141.0V0.0ZM241.0 -39.0V-946.0H369.0V-39.0ZM-10.0 -102.0V-894.0H360.0V-754.0H122.0V-102.0Z"/></g>
<g fill="green" transform="translate(500 100) scale(0.1 -0.1)"><path d="M0.0 0.0V-291.0H23.0V0.0ZM391.0 -30.0V-327.0H413.0V-30.0ZM-274.0 -48.0V-252.0H420.0V-230.0H-253.0V-48.0Z"/></g>
<g fill="green" transform="translate(600 100) scale(0.1 -0.1)"><path d="M0.0 0.0V-236.0H129.0V0.0ZM336.0 -14.0V-267.0H483.0V-14.0ZM-231.0 -38.0V-232.0H410.0V-129.0H-87.0V-38.0Z"/></g>
<g fill="green" transform="translate(700 100) scale(0.1 -0.1)"><path d="M0.0 0.0V-244.0H7.0V0.0ZM-275.0 -83.0V-364.0H-268.0V-83.0ZM-297.0 -279.0V-404.0H-16.0V-397.0H-291.0V-279.0Z"/></g>
<g fill="green" transform="translate(800 100) scale(0.1 -0.1)"><path d="M0.0 0.0V-235.0H39.0V0.0ZM-334.0 -48.0V-393.0H-305.0V-48.0ZM-291.0 -298.0V-412.0H-40.0V-377.0H-238.0V-298.0Z"/></g>
<g fill="green" transform="translate(900 100) scale(0.1 -0.1)"><path d="M0.0 0.0V-332.0H-5.0V0.0ZM256.0 -299.0V-358.0H250.0V-299.0ZM185.0 -45.0V-277.0H-61.0V-283.0H179.0V-45.0Z"/></g>
<g fill="green" transform="translate(1000 100) scale(0.1 -0.1)"><path d="M0.0 0.0V-352.0H-33.0V0.0ZM251.0 -366.0V-351.0H256.0V-366.0ZM198.0 -59.0V-297.0H-76.0V-318.0H169.0V-59.0Z"/></g>
<g fill="green" transform="translate(1100 100) scale(0.1 -0.1)"><path d="M0.0 0.0V-395.0H19.0V0.0ZM109.0 79.0V-312.0H128.0V79.0ZM71.0 53.0V-303.0H148.0V-283.0H91.0V53.0Z"/></g>
<g fill="green" transform="translate(1200 100) scale(0.1 -0.1)"><path d="M0.0 0.0V-415.0H73.0V0.0ZM149.0 101.0V-375.0H196.0V101.0ZM74.0 71.0V-353.0H200.0V-275.0H125.0V71.0Z"/></g>
<g fill="red" transform="translate(100 200) scale(0.1 -0.1)"><path d="M0.0 0.0V-803.0H30.0V0.0ZM258.0 -215.0V-885.0H288.0V-215.0ZM-250.0 -216.0V-817.0H282.0V-787.0H-221.0V-216.0Z"/></g>
<g fill="black" opacity=".8" transform="translate(100 200) scale(0.1 -0.1)"><path d="M0.0 0.0V-806.0H32.0V0.0ZM256.0 -214.0V-892.0H288.0V-214.0ZM-249.0 -220.0V-823.0H284.0V-790.0H-217.0V-220.0Z"/></g>
<g fill="red" transform="translate(200 200) scale(0.1 -0.1)"><path d="M0.0 0.0V-810.0H146.0V0.0ZM224.0 -210.0V-930.0H370.0V-210.0ZM-217.0 -218.0V-879.0H317.0V-745.0H-74.0V-218.0Z"/></g>
<g fill="black" opacity=".8" transform="translate(200 200) scale(0.1 -0.1)"><path d="M0.0 0.0V-803.0H148.0V0.0ZM225.0 -204.0V-933.0H374.0V-204.0ZM-219.0 -218.0V-877.0H305.0V-734.0H-73.0V-218.0Z"/></g>
<g fill="red" transform="translate(300 200) scale(0.1 -0.1)"><path d="M0.0 0.0V-587.0H30.0V0.0ZM325.0 -157.0V-682.0H354.0V-157.0ZM-321.0 -157.0V-607.0H335.0V-578.0H-291.0V-157.0Z"/></g>
<g fill="black" opacity=".8" transform="translate(300 200) scale(0.1 -0.1)"><path d="M0.0 0.0V-582.0H35.0V0.0ZM325.0 -159.0V-680.0H360.0V-159.0ZM-330.0 -156.0V-607.0H338.0V-571.0H-294.0V-156.0Z"/></g>
<g fill="red" transform="translate(400 200) scale(0.1 -0.1)"><path d="M0.0 0.0V-567.0H144.0V0.0ZM323.0 -140.0V-698.0H465.0V-140.0ZM-307.0 -142.0V-634.0H382.0V-501.0H-166.0V-142.0Z"/></g>
<g fill="black" opacity=".8" transform="translate(400 200) scale(0.1 -0.1)"><path d="M0.0 0.0V-568.0H166.0V0.0ZM306.0 -144.0V-699.0H471.0V-144.0ZM-305.0 -141.0V-647.0H371.0V-493.0H-145.0V-141.0Z"/></g>
<g fill="red" transform="translate(500 200) scale(0.1 -0.1)"><path d="M0.0 0.0V-706.0H30.0V0.0ZM144.0 -160.0V-769.0H174.0V-160.0ZM-151.0 -154.0V-721.0H159.0V-691.0H-121.0V-154.0Z"/></g>
<g fill="black" opacity=".8" transform="translate(500 200) scale(0.1 -0.1)"><path d="M0.0 0.0V-707.0H30.0V0.0ZM145.0 -165.0V-763.0H175.0V-165.0ZM-145.0 -158.0V-722.0H156.0V-690.0H-114.0V-158.0Z"/></g>
<g fill="red" transform="translate(600 200) scale(0.1 -0.1)"><path d="M0.0 0.0V-725.0H137.0V0.0ZM165.0 -148.0V-840.0H272.0V-148.0ZM-131.0 -151.0V-802.0H190.0V-678.0H-29.0V-151.0Z"/></g>
<g fill="black" opacity=".8" transform="translate(600 200) scale(0.1 -0.1)"><path d="M0.0 0.0V-733.0H123.0V0.0ZM161.0 -154.0V-846.0H267.0V-154.0ZM-139.0 -148.0V-798.0H207.0V-669.0H-35.0V-148.0Z"/></g>
<g fill="red" transform="translate(700 200) scale(0.1 -0.1)"><path d="M0.0 0.0V-712.0H28.0V0.0ZM132.0 -158.0V-763.0H160.0V-158.0ZM-133.0 -160.0V-727.0H152.0V-697.0H-104.0V-160.0Z"/></g>
<g fill="black" opacity=".8" transform="translate(700 200) scale(0.1 -0.1)"><path d="M0.0 0.0V-716.0H30.0V0.0ZM134.0 -161.0V-767.0H163.0V-161.0ZM-132.0 -158.0V-729.0H148.0V-698.0H-102.0V-158.0Z"/></g>
<g fill="red" transform="translate(800 200) scale(0.1 -0.1)"><path d="M0.0 0.0V-758.0H129.0V0.0ZM153.0 -150.0V-852.0H256.0V-150.0ZM-126.0 -153.0V-804.0H193.0V-680.0H-26.0V-153.0Z"/></g>
<g fill="black" opacity=".8" transform="translate(800 200) scale(0.1 -0.1)"><path d="M0.0 0.0V-744.0H120.0V0.0ZM150.0 -149.0V-854.0H252.0V-149.0ZM-126.0 -148.0V-807.0H200.0V-679.0H-26.0V-148.0Z"/></g>
<g fill="red" transform="translate(900 200) scale(0.1 -0.1)"><path d="M0.0 0.0V-706.0H30.0V0.0ZM146.0 -160.0V-756.0H176.0V-160.0ZM-154.0 -154.0V-721.0H163.0V-691.0H-124.0V-154.0Z"/></g>
<g fill="black" opacity=".8" transform="translate(900 200) scale(0.1 -0.1)"><path d="M0.0 0.0V-708.0H30.0V0.0ZM146.0 -160.0V-764.0H176.0V-160.0ZM-152.0 -160.0V-724.0H163.0V-692.0H-121.0V-160.0Z"/></g>
<g fill="red" transform="translate(1000 200) scale(0.1 -0.1)"><path d="M0.0 0.0V-725.0H126.0V0.0ZM154.0 -150.0V-852.0H272.0V-150.0ZM-145.0 -153.0V-804.0H221.0V-680.0H-29.0V-153.0Z"/></g>
<g fill="black" opacity=".8" transform="translate(1000 200) scale(0.1 -0.1)"><path d="M0.0 0.0V-733.0H125.0V0.0ZM160.0 -147.0V-847.0H268.0V-147.0ZM-145.0 -149.0V-800.0H214.0V-669.0H-39.0V-149.0Z"/></g>
<g fill="red" transform="translate(1100 200) scale(0.1 -0.1)"><path d="M0.0 0.0V-706.0H29.0V0.0ZM132.0 -160.0V-756.0H161.0V-160.0ZM-133.0 -154.0V-721.0H153.0V-691.0H-103.0V-154.0Z"/></g>
<g fill="black" opacity=".8" transform="translate(1100 200) scale(0.1 -0.1)"><path d="M0.0 0.0V-708.0H29.0V0.0ZM134.0 -162.0V-760.0H163.0V-162.0ZM-134.0 -157.0V-722.0H146.0V-691.0H-103.0V-157.0Z"/></g>
<g fill="red" transform="translate(1200 200) scale(0.1 -0.1)"><path d="M0.0 0.0V-725.0H128.0V0.0ZM153.0 -150.0V-852.0H256.0V-150.0ZM-126.0 -153.0V-804.0H193.0V-680.0H-26.0V-153.0Z"/></g>
<g fill="black" opacity=".8" transform="translate(1200 200) scale(0.1 -0.1)"><path d="M0.0 0.0V-736.0H120.0V0.0ZM151.0 -151.0V-847.0H253.0V-151.0ZM-129.0 -147.0V-800.0H198.0V-673.0H-29.0V-147.0Z"/></g>
<g fill="red" transform="translate(1300 200) scale(0.1 -0.1)"><path d="M0.0 0.0V-803.0H31.0V0.0ZM204.0 -220.0V-886.0H234.0V-220.0ZM-198.0 -221.0V-822.0H222.0V-792.0H-168.0V-221.0Z"/></g>
<g fill="black" opacity=".8" transform="translate(1300 200) scale(0.1 -0.1)"><path d="M0.0 0.0V-803.0H28.0V0.0ZM201.0 -221.0V-879.0H228.0V-221.0ZM-192.0 -223.0V-818.0H222.0V-790.0H-164.0V-223.0Z"/></g>
<g fill="red" transform="translate(1400 200) scale(0.1 -0.1)"><path d="M0.0 0.0V-810.0H125.0V0.0ZM168.0 -210.0V-930.0H295.0V-210.0ZM-163.0 -218.0V-872.0H226.0V-738.0H-40.0V-218.0Z"/></g>
<g fill="black" opacity=".8" transform="translate(1400 200) scale(0.1 -0.1)"><path d="M0.0 0.0V-807.0H125.0V0.0ZM172.0 -215.0V-927.0H298.0V-215.0ZM-165.0 -225.0V-875.0H239.0V-750.0H-42.0V-225.0Z"/></g>
<g fill="red" transform="translate(1500 200) scale(0.1 -0.1)"><path d="M0.0 0.0V-714.0H28.0V0.0ZM130.0 -166.0V-762.0H159.0V-166.0ZM-131.0 -160.0V-727.0H147.0V-697.0H-102.0V-160.0Z"/></g>
<g fill="black" opacity=".8" transform="translate(1500 200) scale(0.1 -0.1)"><path d="M0.0 0.0V-707.0H29.0V0.0ZM130.0 -155.0V-756.0H159.0V-155.0ZM-128.0 -153.0V-719.0H146.0V-688.0H-97.0V-153.0Z"/></g>
<g fill="red" transform="translate(1600 200) scale(0.1 -0.1)"><path d="M0.0 0.0V-761.0H122.0V0.0ZM150.0 -127.0V-829.0H252.0V-127.0ZM-128.0 -128.0V-779.0H170.0V-655.0H-28.0V-128.0Z"/></g>
<g fill="black" opacity=".8" transform="translate(1600 200) scale(0.1 -0.1)"><path d="M0.0 0.0V-736.0H119.0V0.0ZM148.0 -143.0V-843.0H248.0V-143.0ZM-122.0 -143.0V-796.0H197.0V-670.0H-23.0V-143.0Z"/></g>
<g fill="red" transform="translate(100 300) scale(0.1 -0.1)"><path d="M0.0 0.0V-712.0H28.0V0.0ZM132.0 -160.0V-762.0H161.0V-160.0ZM-133.0 -160.0V-727.0H152.0V-697.0H-104.0V-160.0Z"/></g>
<g fill="black" opacity=".8" transform="translate(100 300) scale(0.1 -0.1)"><path d="M0.0 0.0V-716.0H30.0V0.0ZM134.0 -161.0V-767.0H164.0V-161.0ZM-132.0 -158.0V-729.0H148.0V-698.0H-102.0V-158.0Z"/></g>
<g fill="red" transform="translate(200 300) scale(0.1 -0.1)"><path d="M0.0 0.0V-758.0H129.0V0.0ZM153.0 -150.0V-852.0H256.0V-150.0ZM-126.0 -153.0V-804.0H193.0V-680.0H-26.0V-153.0Z"/></g>
<g fill="black" opacity=".8" transform="translate(200 300) scale(0.1 -0.1)"><path d="M0.0 0.0V-744.0H120.0V0.0ZM151.0 -150.0V-854.0H253.0V-150.0ZM-126.0 -148.0V-807.0H199.0V-679.0H-26.0V-148.0Z"/></g>
<g fill="red" transform="translate(300 300) scale(0.1 -0.1)"><path d="M0.0 0.0V-701.0H29.0V0.0ZM129.0 -186.0V-768.0H159.0V-186.0ZM-126.0 -184.0V-712.0H150.0V-683.0H-96.0V-184.0Z"/></g>
<g fill="black" opacity=".8" transform="translate(300 300) scale(0.1 -0.1)"><path d="M0.0 0.0V-685.0H24.0V0.0ZM141.0 -177.0V-741.0H165.0V-177.0ZM-133.0 -175.0V-697.0H154.0V-672.0H-108.0V-175.0Z"/></g>
<g fill="red" transform="translate(400 300) scale(0.1 -0.1)"><path d="M0.0 0.0V-675.0H109.0V0.0ZM133.0 -163.0V-807.0H239.0V-163.0ZM-127.0 -161.0V-736.0H180.0V-618.0H-22.0V-161.0Z"/></g>
<g fill="black" opacity=".8" transform="translate(400 300) scale(0.1 -0.1)"><path d="M0.0 0.0V-699.0H104.0V0.0ZM133.0 -171.0V-800.0H230.0V-171.0ZM-118.0 -173.0V-756.0H182.0V-649.0H-22.0V-173.0Z"/></g>
<g fill="red" transform="translate(500 300) scale(0.1 -0.1)"><path d="M0.0 0.0V-712.0H27.0V0.0ZM127.0 -166.0V-762.0H156.0V-166.0ZM-131.0 -160.0V-727.0H147.0V-697.0H-102.0V-160.0Z"/></g>
<g fill="black" opacity=".8" transform="translate(500 300) scale(0.1 -0.1)"><path d="M0.0 0.0V-715.0H30.0V0.0ZM131.0 -163.0V-767.0H161.0V-163.0ZM-131.0 -158.0V-729.0H144.0V-697.0H-100.0V-158.0Z"/></g>
<g fill="red" transform="translate(600 300) scale(0.1 -0.1)"><path d="M0.0 0.0V-758.0H129.0V0.0ZM153.0 -150.0V-852.0H256.0V-150.0ZM-126.0 -153.0V-804.0H193.0V-680.0H-26.0V-153.0Z"/></g>
<g fill="black" opacity=".8" transform="translate(600 300) scale(0.1 -0.1)"><path d="M0.0 0.0V-744.0H120.0V0.0ZM150.0 -151.0V-855.0H251.0V-151.0ZM-126.0 -148.0V-808.0H196.0V-680.0H-26.0V-148.0Z"/></g>
<g fill="red" transform="translate(700 300) scale(0.1 -0.1)"><path d="M0.0 0.0V-706.0H29.0V0.0ZM126.0 -155.0V-755.0H155.0V-155.0ZM-138.0 -157.0V-724.0H138.0V-694.0H-108.0V-157.0Z"/></g>
<g fill="black" opacity=".8" transform="translate(700 300) scale(0.1 -0.1)"><path d="M0.0 0.0V-708.0H30.0V0.0ZM125.0 -160.0V-761.0H155.0V-160.0ZM-134.0 -158.0V-724.0H140.0V-693.0H-103.0V-158.0Z"/></g>
<g fill="red" transform="translate(800 300) scale(0.1 -0.1)"><path d="M0.0 0.0V-743.0H118.0V0.0ZM145.0 -150.0V-843.0H248.0V-150.0ZM-129.0 -148.0V-806.0H192.0V-682.0H-27.0V-148.0Z"/></g>
<g fill="black" opacity=".8" transform="translate(800 300) scale(0.1 -0.1)"><path d="M0.0 0.0V-737.0H120.0V0.0ZM145.0 -148.0V-850.0H245.0V-148.0ZM-130.0 -147.0V-803.0H194.0V-676.0H-31.0V-147.0Z"/></g>
<g fill="red" transform="translate(900 300) scale(0.1 -0.1)"><path d="M0.0 0.0V-712.0H28.0V0.0ZM132.0 -166.0V-762.0H160.0V-166.0ZM-133.0 -160.0V-727.0H152.0V-697.0H-104.0V-160.0Z"/></g>
<g fill="black" opacity=".8" transform="translate(900 300) scale(0.1 -0.1)"><path d="M0.0 0.0V-716.0H29.0V0.0ZM134.0 -163.0V-768.0H164.0V-163.0ZM-133.0 -159.0V-729.0H147.0V-698.0H-102.0V-159.0Z"/></g>
<g fill="red" transform="translate(1000 300) scale(0.1 -0.1)"><path d="M0.0 0.0V-758.0H129.0V0.0ZM153.0 -150.0V-852.0H256.0V-150.0ZM-126.0 -153.0V-804.0H193.0V-680.0H-26.0V-153.0Z"/></g>
<g fill="black" opacity=".8" transform="translate(1000 300) scale(0.1 -0.1)"><path d="M0.0 0.0V-744.0H120.0V0.0ZM151.0 -152.0V-854.0H253.0V-152.0ZM-126.0 -149.0V-807.0H198.0V-680.0H-26.0V-149.0Z"/></g>
<g fill="red" transform="translate(1100 300) scale(0.1 -0.1)"><path d="M0.0 0.0V-706.0H29.0V0.0ZM125.0 -156.0V-756.0H155.0V-156.0ZM-132.0 -158.0V-725.0H137.0V-695.0H-102.0V-158.0Z"/></g>
<g fill="black" opacity=".8" transform="translate(1100 300) scale(0.1 -0.1)"><path d="M0.0 0.0V-710.0H29.0V0.0ZM123.0 -160.0V-761.0H153.0V-160.0ZM-129.0 -157.0V-725.0H138.0V-694.0H-99.0V-157.0Z"/></g>
<g fill="red" transform="translate(1200 300) scale(0.1 -0.1)"><path d="M0.0 0.0V-743.0H118.0V0.0ZM145.0 -150.0V-852.0H238.0V-150.0ZM-122.0 -148.0V-806.0H193.0V-682.0H-26.0V-148.0Z"/></g>
<g fill="black" opacity=".8" transform="translate(1200 300) scale(0.1 -0.1)"><path d="M0.0 0.0V-740.0H119.0V0.0ZM143.0 -148.0V-851.0H242.0V-148.0ZM-125.0 -147.0V-805.0H191.0V-678.0H-27.0V-147.0Z"/></g>
<g fill="red" transform="translate(1300 300) scale(0.1 -0.1)"><path d="M0.0 0.0V-706.0H29.0V0.0ZM132.0 -160.0V-756.0H161.0V-160.0ZM-133.0 -154.0V-721.0H153.0V-691.0H-103.0V-154.0Z"/></g>
<g fill="black" opacity=".8" transform="translate(1300 300) scale(0.1 -0.1)"><path d="M0.0 0.0V-710.0H29.0V0.0ZM130.0 -160.0V-760.0H159.0V-160.0ZM-132.0 -160.0V-722.0H148.0V-692.0H-102.0V-160.0Z"/></g>
<g fill="red" transform="translate(1400 300) scale(0.1 -0.1)"><path d="M0.0 0.0V-725.0H119.0V0.0ZM141.0 -150.0V-852.0H243.0V-150.0ZM-120.0 -153.0V-804.0H197.0V-680.0H-22.0V-153.0Z"/></g>
<g fill="black" opacity=".8" transform="translate(1400 300) scale(0.1 -0.1)"><path d="M0.0 0.0V-736.0H118.0V0.0ZM144.0 -149.0V-844.0H244.0V-149.0ZM-124.0 -151.0V-798.0H196.0V-674.0H-25.0V-151.0Z"/></g>
<g fill="red" transform="translate(1500 300) scale(0.1 -0.1)"><path d="M0.0 0.0V-706.0H29.0V0.0ZM122.0 -160.0V-756.0H152.0V-160.0ZM-132.0 -154.0V-721.0H140.0V-691.0H-102.0V-154.0Z"/></g>
<g fill="black" opacity=".8" transform="translate(1500 300) scale(0.1 -0.1)"><path d="M0.0 0.0V-707.0H29.0V0.0ZM126.0 -160.0V-759.0H156.0V-160.0ZM-130.0 -156.0V-722.0H140.0V-691.0H-100.0V-156.0Z"/></g>
<g fill="red" transform="translate(1600 300) scale(0.1 -0.1)"><path d="M0.0 0.0V-725.0H124.0V0.0ZM145.0 -150.0V-852.0H252.0V-150.0ZM-120.0 -153.0V-804.0H198.0V-680.0H-21.0V-153.0Z"/></g>
<g fill="black" opacity=".8" transform="translate(1600 300) scale(0.1 -0.1)"><path d="M0.0 0.0V-736.0H119.0V0.0ZM145.0 -149.0V-847.0H245.0V-149.0ZM-126.0 -146.0V-801.0H193.0V-674.0H-28.0V-146.0Z"/></g>
<g fill="red" transform="translate(100 400) scale(0.1 -0.1)"><path d="M0.0 0.0V-706.0H29.0V0.0ZM132.0 -160.0V-756.0H161.0V-160.0ZM-133.0 -154.0V-721.0H153.0V-691.0H-103.0V-154.0Z"/></g>
<g fill="black" opacity=".8" transform="translate(100 400) scale(0.1 -0.1)"><path d="M0.0 0.0V-709.0H29.0V0.0ZM131.0 -161.0V-760.0H160.0V-161.0ZM-133.0 -159.0V-722.0H147.0V-692.0H-102.0V-159.0Z"/></g>
<g fill="red" transform="translate(200 400) scale(0.1 -0.1)"><path d="M0.0 0.0V-725.0H122.0V0.0ZM143.0 -150.0V-852.0H246.0V-150.0ZM-123.0 -153.0V-804.0H196.0V-680.0H-23.0V-153.0Z"/></g>
<g fill="black" opacity=".8" transform="translate(200 400) scale(0.1 -0.1)"><path d="M0.0 0.0V-736.0H118.0V0.0ZM146.0 -149.0V-845.0H246.0V-149.0ZM-126.0 -150.0V-798.0H196.0V-673.0H-26.0V-150.0Z"/></g>
<g fill="red" transform="translate(300 400) scale(0.1 -0.1)"><path d="M0.0 0.0V-706.0H29.0V0.0ZM118.0 -155.0V-755.0H147.0V-155.0ZM-119.0 -157.0V-724.0H139.0V-694.0H-89.0V-157.0Z"/></g>
<g fill="black" opacity=".8" transform="translate(300 400) scale(0.1 -0.1)"><path d="M0.0 0.0V-711.0H29.0V0.0ZM120.0 -157.0V-758.0H149.0V-157.0ZM-122.0 -156.0V-723.0H137.0V-692.0H-92.0V-156.0Z"/></g>
<g fill="red" transform="translate(400 400) scale(0.1 -0.1)"><path d="M0.0 0.0V-743.0H118.0V0.0ZM142.0 -150.0V-839.0H235.0V-150.0ZM-119.0 -148.0V-806.0H196.0V-682.0H-23.0V-148.0Z"/></g>
<g fill="black" opacity=".8" transform="translate(400 400) scale(0.1 -0.1)"><path d="M0.0 0.0V-740.0H116.0V0.0ZM139.0 -145.0V-847.0H236.0V-145.0ZM-117.0 -146.0V-801.0H189.0V-677.0H-21.0V-146.0Z"/></g>
<g fill="red" transform="translate(500 400) scale(0.1 -0.1)"><path d="M0.0 0.0V-712.0H28.0V0.0ZM135.0 -166.0V-762.0H164.0V-166.0ZM-137.0 -160.0V-727.0H152.0V-697.0H-108.0V-160.0Z"/></g>
<g fill="black" opacity=".8" transform="translate(500 400) scale(0.1 -0.1)"><path d="M0.0 0.0V-714.0H29.0V0.0ZM134.0 -167.0V-768.0H163.0V-167.0ZM-132.0 -161.0V-729.0H144.0V-698.0H-102.0V-161.0Z"/></g>
<g fill="red" transform="translate(600 400) scale(0.1 -0.1)"><path d="M0.0 0.0V-758.0H125.0V0.0ZM151.0 -152.0V-854.0H253.0V-152.0ZM-126.0 -153.0V-804.0H172.0V-680.0H-26.0V-153.0Z"/></g>
<g fill="black" opacity=".8" transform="translate(600 400) scale(0.1 -0.1)"><path d="M0.0 0.0V-742.0H119.0V0.0ZM150.0 -157.0V-854.0H251.0V-157.0ZM-126.0 -152.0V-806.0H194.0V-681.0H-27.0V-152.0Z"/></g>
<g fill="red" transform="translate(700 400) scale(0.1 -0.1)"><path d="M0.0 0.0V-327.0H30.0V0.0ZM343.0 -75.0V-392.0H373.0V-75.0ZM-331.0 -89.0V-340.0H358.0V-310.0H-302.0V-89.0Z"/></g>
<g fill="black" opacity=".8" transform="translate(700 400) scale(0.1 -0.1)"><path d="M0.0 0.0V-317.0H30.0V0.0ZM342.0 -76.0V-399.0H372.0V-76.0ZM-337.0 -79.0V-332.0H356.0V-301.0H-307.0V-79.0Z"/></g>
<g fill="red" transform="translate(800 400) scale(0.1 -0.1)"><path d="M0.0 0.0V-261.0H148.0V0.0ZM331.0 -51.0V-384.0H473.0V-51.0ZM-314.0 -54.0V-349.0H379.0V-217.0H-173.0V-54.0Z"/></g>
<g fill="black" opacity=".8" transform="translate(800 400) scale(0.1 -0.1)"><path d="M0.0 0.0V-287.0H151.0V0.0ZM322.0 -58.0V-384.0H475.0V-58.0ZM-314.0 -60.0V-344.0H381.0V-212.0H-165.0V-60.0Z"/></g>
<g fill="red" transform="translate(900 400) scale(0.1 -0.1)"><path d="M0.0 0.0V-724.0H29.0V0.0ZM140.0 -160.0V-786.0H169.0V-160.0ZM-133.0 -154.0V-734.0H153.0V-705.0H-103.0V-154.0Z"/></g>
<g fill="black" opacity=".8" transform="translate(900 400) scale(0.1 -0.1)"><path d="M0.0 0.0V-723.0H30.0V0.0ZM139.0 -165.0V-776.0H169.0V-165.0ZM-134.0 -158.0V-736.0H150.0V-704.0H-103.0V-158.0Z"/></g>
<g fill="red" transform="translate(1000 400) scale(0.1 -0.1)"><path d="M0.0 0.0V-743.0H128.0V0.0ZM160.0 -148.0V-860.0H263.0V-148.0ZM-127.0 -151.0V-816.0H190.0V-692.0H-29.0V-151.0Z"/></g>
<g fill="black" opacity=".8" transform="translate(1000 400) scale(0.1 -0.1)"><path d="M0.0 0.0V-752.0H122.0V0.0ZM157.0 -154.0V-864.0H261.0V-154.0ZM-128.0 -148.0V-815.0H202.0V-686.0H-26.0V-148.0Z"/></g>
<g fill="red" transform="translate(1100 400) scale(0.1 -0.1)"><path d="M0.0 0.0V-706.0H29.0V0.0ZM118.0 -155.0V-755.0H147.0V-155.0ZM-119.0 -157.0V-724.0H139.0V-694.0H-89.0V-157.0Z"/></g>
<g fill="black" opacity=".8" transform="translate(1100 400) scale(0.1 -0.1)"><path d="M0.0 0.0V-711.0H29.0V0.0ZM120.0 -157.0V-760.0H149.0V-157.0ZM-122.0 -155.0V-724.0H136.0V-694.0H-92.0V-155.0Z"/></g>
<g fill="red" transform="translate(1200 400) scale(0.1 -0.1)"><path d="M0.0 0.0V-743.0H118.0V0.0ZM142.0 -150.0V-852.0H235.0V-150.0ZM-119.0 -148.0V-806.0H196.0V-682.0H-23.0V-148.0Z"/></g>
<g fill="black" opacity=".8" transform="translate(1200 400) scale(0.1 -0.1)"><path d="M0.0 0.0V-742.0H117.0V0.0ZM139.0 -145.0V-850.0H237.0V-145.0ZM-118.0 -145.0V-804.0H189.0V-679.0H-22.0V-145.0Z"/></g>
<g fill="red" transform="translate(1300 400) scale(0.1 -0.1)"><path d="M0.0 0.0V-717.0H28.0V0.0ZM123.0 -160.0V-760.0H153.0V-160.0ZM-125.0 -163.0V-730.0H132.0V-700.0H-96.0V-163.0Z"/></g>
<g fill="black" opacity=".8" transform="translate(1300 400) scale(0.1 -0.1)"><path d="M0.0 0.0V-715.0H29.0V0.0ZM122.0 -161.0V-765.0H151.0V-161.0ZM-125.0 -159.0V-729.0H138.0V-698.0H-95.0V-159.0Z"/></g>
<g fill="red" transform="translate(1400 400) scale(0.1 -0.1)"><path d="M0.0 0.0V-748.0H119.0V0.0ZM142.0 -150.0V-852.0H235.0V-150.0ZM-119.0 -149.0V-807.0H196.0V-683.0H-23.0V-149.0Z"/></g>
<g fill="black" opacity=".8" transform="translate(1400 400) scale(0.1 -0.1)"><path d="M0.0 0.0V-745.0H117.0V0.0ZM140.0 -149.0V-854.0H238.0V-149.0ZM-120.0 -149.0V-808.0H189.0V-683.0H-22.0V-149.0Z"/></g>
<g fill="red" transform="translate(1500 400) scale(0.1 -0.1)"><path d="M0.0 0.0V-706.0H29.0V0.0ZM124.0 -155.0V-755.0H154.0V-155.0ZM-125.0 -157.0V-724.0H133.0V-694.0H-95.0V-157.0Z"/></g>
<g fill="black" opacity=".8" transform="translate(1500 400) scale(0.1 -0.1)"><path d="M0.0 0.0V-711.0H29.0V0.0ZM122.0 -159.0V-760.0H151.0V-159.0ZM-125.0 -156.0V-724.0H136.0V-694.0H-94.0V-156.0Z"/></g>
<g fill="red" transform="translate(1600 400) scale(0.1 -0.1)"><path d="M0.0 0.0V-743.0H118.0V0.0ZM142.0 -150.0V-852.0H235.0V-150.0ZM-119.0 -148.0V-806.0H196.0V-682.0H-23.0V-148.0Z"/></g>
<g fill="black" opacity=".8" transform="translate(1600 400) scale(0.1 -0.1)"><path d="M0.0 0.0V-741.0H118.0V0.0ZM141.0 -147.0V-850.0H240.0V-147.0ZM-120.0 -146.0V-804.0H189.0V-678.0H-23.0V-146.0Z"/></g>
<g fill="red" transform="translate(100 500) scale(0.1 -0.1)"><path d="M0.0 0.0V-729.0H29.0V0.0ZM116.0 -160.0V-791.0H145.0V-160.0ZM-120.0 -154.0V-737.0H135.0V-708.0H-90.0V-154.0Z"/></g>
<g fill="black" opacity=".8" transform="translate(100 500) scale(0.1 -0.1)"><path d="M0.0 0.0V-724.0H30.0V0.0ZM123.0 -161.0V-774.0H153.0V-161.0ZM-124.0 -157.0V-738.0H137.0V-706.0H-93.0V-157.0Z"/></g>
<g fill="red" transform="translate(200 500) scale(0.1 -0.1)"><path d="M0.0 0.0V-743.0H124.0V0.0ZM148.0 -148.0V-860.0H251.0V-148.0ZM-122.0 -151.0V-816.0H195.0V-692.0H-24.0V-151.0Z"/></g>
<g fill="black" opacity=".8" transform="translate(200 500) scale(0.1 -0.1)"><path d="M0.0 0.0V-755.0H120.0V0.0ZM144.0 -149.0V-867.0H243.0V-149.0ZM-120.0 -147.0V-819.0H192.0V-691.0H-22.0V-147.0Z"/></g>
<g fill="red" transform="translate(300 500) scale(0.1 -0.1)"><path d="M0.0 0.0V-723.0H29.0V0.0ZM135.0 -175.0V-771.0H164.0V-175.0ZM-137.0 -169.0V-736.0H152.0V-706.0H-108.0V-169.0Z"/></g>
<g fill="black" opacity=".8" transform="translate(300 500) scale(0.1 -0.1)"><path d="M0.0 0.0V-719.0H28.0V0.0ZM132.0 -176.0V-776.0H160.0V-176.0ZM-135.0 -171.0V-736.0H143.0V-706.0H-106.0V-171.0Z"/></g>
<g fill="red" transform="translate(400 500) scale(0.1 -0.1)"><path d="M0.0 0.0V-738.0H117.0V0.0ZM145.0 -161.0V-863.0H238.0V-161.0ZM-127.0 -162.0V-813.0H171.0V-689.0H-27.0V-162.0Z"/></g>
<g fill="black" opacity=".8" transform="translate(400 500) scale(0.1 -0.1)"><path d="M0.0 0.0V-744.0H115.0V0.0ZM142.0 -167.0V-857.0H242.0V-167.0ZM-127.0 -164.0V-810.0H188.0V-688.0H-28.0V-164.0Z"/></g>
<g fill="red" transform="translate(500 500) scale(0.1 -0.1)"><path d="M0.0 0.0V-706.0H29.0V0.0ZM129.0 -155.0V-755.0H158.0V-155.0ZM-136.0 -157.0V-724.0H140.0V-694.0H-106.0V-157.0Z"/></g>
<g fill="black" opacity=".8" transform="translate(500 500) scale(0.1 -0.1)"><path d="M0.0 0.0V-710.0H29.0V0.0ZM125.0 -160.0V-762.0H154.0V-160.0ZM-131.0 -158.0V-725.0H141.0V-694.0H-101.0V-158.0Z"/></g>
<g fill="red" transform="translate(600 500) scale(0.1 -0.1)"><path d="M0.0 0.0V-743.0H118.0V0.0ZM143.0 -150.0V-852.0H236.0V-150.0ZM-122.0 -148.0V-806.0H193.0V-682.0H-26.0V-148.0Z"/></g>
<g fill="black" opacity=".8" transform="translate(600 500) scale(0.1 -0.1)"><path d="M0.0 0.0V-739.0H119.0V0.0ZM142.0 -148.0V-850.0H242.0V-148.0ZM-126.0 -149.0V-803.0H193.0V-677.0H-28.0V-149.0Z"/></g>
<g fill="red" transform="translate(700 500) scale(0.1 -0.1)"><path d="M0.0 0.0V-717.0H28.0V0.0ZM117.0 -160.0V-760.0H145.0V-160.0ZM-120.0 -163.0V-730.0H134.0V-700.0H-91.0V-163.0Z"/></g>
<g fill="black" opacity=".8" transform="translate(700 500) scale(0.1 -0.1)"><path d="M0.0 0.0V-716.0H29.0V0.0ZM119.0 -159.0V-765.0H149.0V-159.0ZM-123.0 -158.0V-729.0H136.0V-698.0H-92.0V-158.0Z"/></g>
<g fill="red" transform="translate(800 500) scale(0.1 -0.1)"><path d="M0.0 0.0V-748.0H119.0V0.0ZM142.0 -150.0V-852.0H235.0V-150.0ZM-119.0 -149.0V-807.0H196.0V-683.0H-23.0V-149.0Z"/></g>
<g fill="black" opacity=".8" transform="translate(800 500) scale(0.1 -0.1)"><path d="M0.0 0.0V-745.0H117.0V0.0ZM138.0 -148.0V-854.0H236.0V-148.0ZM-118.0 -148.0V-808.0H188.0V-683.0H-21.0V-148.0Z"/></g>
<g fill="red" transform="translate(900 500) scale(0.1 -0.1)"><path d="M0.0 0.0V-706.0H29.0V0.0ZM145.0 -160.0V-769.0H174.0V-160.0ZM-135.0 -154.0V-721.0H161.0V-691.0H-105.0V-154.0Z"/></g>
<g fill="black" opacity=".8" transform="translate(900 500) scale(0.1 -0.1)"><path d="M0.0 0.0V-708.0H29.0V0.0ZM141.0 -164.0V-762.0H170.0V-164.0ZM-137.0 -160.0V-721.0H153.0V-691.0H-107.0V-160.0Z"/></g>
<g fill="red" transform="translate(1000 500) scale(0.1 -0.1)"><path d="M0.0 0.0V-725.0H124.0V0.0ZM154.0 -148.0V-840.0H257.0V-148.0ZM-131.0 -151.0V-802.0H186.0V-678.0H-33.0V-151.0Z"/></g>
<g fill="black" opacity=".8" transform="translate(1000 500) scale(0.1 -0.1)"><path d="M0.0 0.0V-734.0H119.0V0.0ZM154.0 -154.0V-844.0H257.0V-154.0ZM-130.0 -150.0V-796.0H201.0V-671.0H-28.0V-150.0Z"/></g>
<g fill="red" transform="translate(1100 500) scale(0.1 -0.1)"><path d="M0.0 0.0V-717.0H28.0V0.0ZM450.0 -397.0V-891.0H479.0V-397.0ZM-123.0 -163.0V-730.0H131.0V-700.0H-94.0V-163.0Z"/></g>
<g fill="black" opacity=".8" transform="translate(1100 500) scale(0.1 -0.1)"><path d="M0.0 0.0V-728.0H30.0V0.0ZM438.0 -406.0V-856.0H467.0V-406.0ZM-128.0 -158.0V-738.0H144.0V-707.0H-98.0V-158.0Z"/></g>
<g fill="red" transform="translate(1200 500) scale(0.1 -0.1)"><path d="M0.0 0.0V-748.0H119.0V0.0ZM450.0 -435.0V-935.0H594.0V-435.0ZM-120.0 -149.0V-807.0H195.0V-683.0H-24.0V-149.0Z"/></g>
<g fill="black" opacity=".8" transform="translate(1200 500) scale(0.1 -0.1)"><path d="M0.0 0.0V-761.0H118.0V0.0ZM463.0 -450.0V-911.0H596.0V-450.0ZM-121.0 -145.0V-818.0H196.0V-691.0H-23.0V-145.0Z"/></g>
<g fill="red" transform="translate(1300 500) scale(0.1 -0.1)"><path d="M0.0 0.0V-706.0H30.0V0.0ZM118.0 -155.0V-755.0H147.0V-155.0ZM-118.0 -157.0V-724.0H139.0V-694.0H-89.0V-157.0Z"/></g>
<g fill="black" opacity=".8" transform="translate(1300 500) scale(0.1 -0.1)"><path d="M0.0 0.0V-711.0H28.0V0.0ZM114.0 -160.0V-759.0H142.0V-160.0ZM-119.0 -159.0V-724.0H131.0V-695.0H-89.0V-159.0Z"/></g>
<g fill="red" transform="translate(1400 500) scale(0.1 -0.1)"><path d="M0.0 0.0V-743.0H109.0V0.0ZM129.0 -150.0V-852.0H221.0V-150.0ZM-116.0 -148.0V-806.0H172.0V-682.0H-22.0V-148.0Z"/></g>
<g fill="black" opacity=".8" transform="translate(1400 500) scale(0.1 -0.1)"><path d="M0.0 0.0V-740.0H114.0V0.0ZM131.0 -149.0V-848.0H226.0V-149.0ZM-113.0 -151.0V-802.0H181.0V-681.0H-19.0V-151.0Z"/></g>
<g fill="red" transform="translate(1500 500) scale(0.1 -0.1)"><path d="M0.0 0.0V-711.0H30.0V0.0ZM104.0 -157.0V-757.0H134.0V-157.0ZM-108.0 -159.0V-726.0H120.0V-696.0H-78.0V-159.0Z"/></g>
<g fill="black" opacity=".8" transform="translate(1500 500) scale(0.1 -0.1)"><path d="M0.0 0.0V-710.0H28.0V0.0ZM104.0 -159.0V-757.0H132.0V-159.0ZM-111.0 -158.0V-724.0H120.0V-695.0H-82.0V-158.0Z"/></g>
<g fill="red" transform="translate(1600 500) scale(0.1 -0.1)"><path d="M0.0 0.0V-743.0H102.0V0.0ZM125.0 -150.0V-852.0H212.0V-150.0ZM-112.0 -148.0V-802.0H176.0V-678.0H-22.0V-148.0Z"/></g>
<g fill="black" opacity=".8" transform="translate(1600 500) scale(0.1 -0.1)"><path d="M0.0 0.0V-742.0H112.0V0.0ZM124.0 -148.0V-849.0H216.0V-148.0ZM-108.0 -149.0V-804.0H172.0V-683.0H-16.0V-149.0Z"/></g>
<g fill="red" transform="translate(100 600) scale(0.1 -0.1)"><path d="M0.0 0.0V-344.0H29.0V0.0ZM118.0 -365.0V-660.0H148.0V-365.0ZM-550.0 -363.0V-609.0H141.0V-577.0H-520.0V-363.0Z"/></g>
<g fill="black" opacity=".8" transform="translate(100 600) scale(0.1 -0.1)"><path d="M0.0 0.0V-382.0H28.0V0.0ZM123.0 -366.0V-661.0H151.0V-366.0ZM-565.0 -356.0V-604.0H132.0V-575.0H-538.0V-356.0Z"/></g>
<g fill="red" transform="translate(200 600) scale(0.1 -0.1)"><path d="M0.0 0.0V-351.0H143.0V0.0ZM76.0 -375.0V-690.0H218.0V-375.0ZM-556.0 -371.0V-649.0H173.0V-516.0H-417.0V-371.0Z"/></g>
<g fill="black" opacity=".8" transform="translate(200 600) scale(0.1 -0.1)"><path d="M0.0 0.0V-371.0H134.0V0.0ZM76.0 -365.0V-674.0H221.0V-365.0ZM-559.0 -357.0V-634.0H140.0V-510.0H-420.0V-357.0Z"/></g>
<g fill="red" transform="translate(300 600) scale(0.1 -0.1)"><path d="M0.0 0.0V-706.0H29.0V0.0ZM121.0 -155.0V-755.0H151.0V-155.0ZM-128.0 -157.0V-724.0H137.0V-694.0H-98.0V-157.0Z"/></g>
<g fill="black" opacity=".8" transform="translate(300 600) scale(0.1 -0.1)"><path d="M0.0 0.0V-711.0H29.0V0.0ZM122.0 -158.0V-760.0H151.0V-158.0ZM-126.0 -156.0V-725.0H137.0V-694.0H-96.0V-156.0Z"/></g>
<g fill="red" transform="translate(400 600) scale(0.1 -0.1)"><path d="M0.0 0.0V-743.0H118.0V0.0ZM143.0 -150.0V-852.0H239.0V-150.0ZM-119.0 -148.0V-806.0H196.0V-682.0H-23.0V-148.0Z"/></g>
<g fill="black" opacity=".8" transform="translate(400 600) scale(0.1 -0.1)"><path d="M0.0 0.0V-741.0H118.0V0.0ZM141.0 -146.0V-850.0H240.0V-146.0ZM-122.0 -146.0V-804.0H191.0V-678.0H-25.0V-146.0Z"/></g>
<g fill="red" transform="translate(500 600) scale(0.1 -0.1)"><path d="M0.0 0.0V-721.0H28.0V0.0ZM123.0 -160.0V-762.0H153.0V-160.0ZM-124.0 -163.0V-730.0H134.0V-700.0H-94.0V-163.0Z"/></g>
<g fill="black" opacity=".8" transform="translate(500 600) scale(0.1 -0.1)"><path d="M0.0 0.0V-718.0H29.0V0.0ZM120.0 -161.0V-767.0H149.0V-161.0ZM-125.0 -161.0V-731.0H139.0V-701.0H-95.0V-161.0Z"/></g>
<g fill="red" transform="translate(600 600) scale(0.1 -0.1)"><path d="M0.0 0.0V-758.0H106.0V0.0ZM130.0 -150.0V-852.0H232.0V-150.0ZM-125.0 -149.0V-807.0H192.0V-683.0H-27.0V-149.0Z"/></g>
<g fill="black" opacity=".8" transform="translate(600 600) scale(0.1 -0.1)"><path d="M0.0 0.0V-746.0H116.0V0.0ZM136.0 -149.0V-855.0H234.0V-149.0ZM-119.0 -152.0V-809.0H188.0V-685.0H-22.0V-152.0Z"/></g>
<g fill="red" transform="translate(700 600) scale(0.1 -0.1)"><path d="M0.0 0.0V-711.0H29.0V0.0ZM482.0 -474.0V-827.0H511.0V-474.0ZM-134.0 -159.0V-726.0H135.0V-696.0H-104.0V-159.0Z"/></g>
<g fill="black" opacity=".8" transform="translate(700 600) scale(0.1 -0.1)"><path d="M0.0 0.0V-701.0H27.0V0.0ZM492.0 -469.0V-853.0H519.0V-469.0ZM-128.0 -165.0V-718.0H127.0V-689.0H-100.0V-165.0Z"/></g>
<g fill="red" transform="translate(800 600) scale(0.1 -0.1)"><path d="M0.0 0.0V-743.0H109.0V0.0ZM522.0 -540.0V-873.0H648.0V-540.0ZM-121.0 -148.0V-802.0H173.0V-678.0H-25.0V-148.0Z"/></g>
<g fill="black" opacity=".8" transform="translate(800 600) scale(0.1 -0.1)"><path d="M0.0 0.0V-733.0H109.0V0.0ZM513.0 -528.0V-894.0H647.0V-528.0ZM-120.0 -154.0V-793.0H173.0V-675.0H-28.0V-154.0Z"/></g>
<g fill="red" transform="translate(900 600) scale(0.1 -0.1)"><path d="M0.0 0.0V-706.0H29.0V0.0ZM117.0 -155.0V-769.0H146.0V-155.0ZM-124.0 -157.0V-724.0H131.0V-694.0H-94.0V-157.0Z"/></g>
<g fill="black" opacity=".8" transform="translate(900 600) scale(0.1 -0.1)"><path d="M0.0 0.0V-712.0H29.0V0.0ZM117.0 -156.0V-761.0H146.0V-156.0ZM-125.0 -158.0V-726.0H137.0V-695.0H-94.0V-158.0Z"/></g>
<g fill="red" transform="translate(1000 600) scale(0.1 -0.1)"><path d="M0.0 0.0V-743.0H110.0V0.0ZM131.0 -144.0V-846.0H233.0V-144.0ZM-122.0 -148.0V-806.0H199.0V-682.0H-20.0V-148.0Z"/></g>
<g fill="black" opacity=".8" transform="translate(1000 600) scale(0.1 -0.1)"><path d="M0.0 0.0V-741.0H117.0V0.0ZM135.0 -144.0V-850.0H232.0V-144.0ZM-120.0 -148.0V-804.0H189.0V-680.0H-23.0V-148.0Z"/></g>
<g fill="red" transform="translate(1100 600) scale(0.1 -0.1)"><path d="M0.0 0.0V-717.0H28.0V0.0ZM118.0 -160.0V-760.0H147.0V-160.0ZM-122.0 -163.0V-730.0H132.0V-700.0H-93.0V-163.0Z"/></g>
<g fill="black" opacity=".8" transform="translate(1100 600) scale(0.1 -0.1)"><path d="M0.0 0.0V-715.0H29.0V0.0ZM119.0 -160.0V-765.0H149.0V-160.0ZM-125.0 -158.0V-729.0H136.0V-698.0H-94.0V-158.0Z"/></g>
<g fill="red" transform="translate(1200 600) scale(0.1 -0.1)"><path d="M0.0 0.0V-748.0H119.0V0.0ZM138.0 -150.0V-852.0H237.0V-150.0ZM-123.0 -149.0V-807.0H196.0V-683.0H-23.0V-149.0Z"/></g>
<g fill="black" opacity=".8" transform="translate(1200 600) scale(0.1 -0.1)"><path d="M0.0 0.0V-745.0H117.0V0.0ZM138.0 -148.0V-855.0H236.0V-148.0ZM-120.0 -149.0V-808.0H188.0V-683.0H-23.0V-149.0Z"/></g>
<g fill="red" transform="translate(1300 600) scale(0.1 -0.1)"><path d="M0.0 0.0V-714.0H30.0V0.0ZM111.0 -162.0V-767.0H140.0V-162.0ZM-115.0 -164.0V-731.0H126.0V-701.0H-86.0V-164.0Z"/></g>
<g fill="black" opacity=".8" transform="translate(1300 600) scale(0.1 -0.1)"><path d="M0.0 0.0V-708.0H28.0V0.0ZM112.0 -163.0V-758.0H140.0V-163.0ZM-118.0 -162.0V-722.0H129.0V-694.0H-89.0V-162.0Z"/></g>
<g fill="red" transform="translate(1400 600) scale(0.1 -0.1)"><path d="M0.0 0.0V-716.0H108.0V0.0ZM131.0 -150.0V-839.0H218.0V-150.0ZM-111.0 -149.0V-800.0H178.0V-676.0H-23.0V-149.0Z"/></g>
<g fill="black" opacity=".8" transform="translate(1400 600) scale(0.1 -0.1)"><path d="M0.0 0.0V-736.0H111.0V0.0ZM126.0 -153.0V-843.0H220.0V-153.0ZM-112.0 -155.0V-798.0H176.0V-680.0H-19.0V-155.0Z"/></g>
<g fill="red" transform="translate(1500 600) scale(0.1 -0.1)"><path d="M0.0 0.0V-717.0H28.0V0.0ZM111.0 -160.0V-760.0H140.0V-160.0ZM-115.0 -163.0V-730.0H128.0V-700.0H-86.0V-163.0Z"/></g>
<g fill="black" opacity=".8" transform="translate(1500 600) scale(0.1 -0.1)"><path d="M0.0 0.0V-716.0H28.0V0.0ZM111.0 -158.0V-763.0H139.0V-158.0ZM-118.0 -161.0V-729.0H133.0V-699.0H-89.0V-161.0Z"/></g>
<g fill="red" transform="translate(1600 600) scale(0.1 -0.1)"><path d="M0.0 0.0V-748.0H101.0V0.0ZM124.0 -150.0V-852.0H217.0V-150.0ZM-117.0 -149.0V-807.0H198.0V-683.0H-21.0V-149.0Z"/></g>
<g fill="black" opacity=".8" transform="translate(1600 600) scale(0.1 -0.1)"><path d="M0.0 0.0V-745.0H114.0V0.0ZM126.0 -146.0V-851.0H221.0V-146.0ZM-112.0 -153.0V-807.0H182.0V-685.0H-18.0V-153.0Z"/></g>
<g fill="red" transform="translate(100 700) scale(0.1 -0.1)"><path d="M0.0 0.0V-711.0H30.0V0.0ZM113.0 -157.0V-757.0H142.0V-157.0ZM-115.0 -159.0V-726.0H127.0V-696.0H-85.0V-159.0Z"/></g>
<g fill="black" opacity=".8" transform="translate(100 700) scale(0.1 -0.1)"><path d="M0.0 0.0V-711.0H28.0V0.0ZM111.0 -160.0V-759.0H139.0V-160.0ZM-115.0 -158.0V-724.0H127.0V-695.0H-86.0V-158.0Z"/></g>
<g fill="red" transform="translate(200 700) scale(0.1 -0.1)"><path d="M0.0 0.0V-743.0H109.0V0.0ZM130.0 -150.0V-852.0H217.0V-150.0ZM-112.0 -148.0V-802.0H176.0V-678.0H-22.0V-148.0Z"/></g>
<g fill="black" opacity=".8" transform="translate(200 700) scale(0.1 -0.1)"><path d="M0.0 0.0V-741.0H113.0V0.0ZM129.0 -149.0V-848.0H223.0V-149.0ZM-111.0 -150.0V-803.0H177.0V-682.0H-18.0V-150.0Z"/></g>
<g fill="red" transform="translate(300 700) scale(0.1 -0.1)"><path d="M0.0 0.0V-717.0H27.0V0.0ZM117.0 -160.0V-760.0H148.0V-160.0ZM-120.0 -163.0V-730.0H134.0V-700.0H-91.0V-163.0Z"/></g>
<g fill="black" opacity=".8" transform="translate(300 700) scale(0.1 -0.1)"><path d="M0.0 0.0V-716.0H29.0V0.0ZM120.0 -159.0V-765.0H149.0V-159.0ZM-123.0 -158.0V-729.0H136.0V-698.0H-92.0V-158.0Z"/></g>
<g fill="red" transform="translate(400 700) scale(0.1 -0.1)"><path d="M0.0 0.0V-748.0H119.0V0.0ZM142.0 -150.0V-852.0H235.0V-150.0ZM-119.0 -149.0V-807.0H196.0V-683.0H-23.0V-149.0Z"/></g>
<g fill="black" opacity=".8" transform="translate(400 700) scale(0.1 -0.1)"><path d="M0.0 0.0V-745.0H117.0V0.0ZM138.0 -148.0V-854.0H236.0V-148.0ZM-118.0 -148.0V-808.0H188.0V-683.0H-21.0V-148.0Z"/></g>
<g fill="red" transform="translate(500 700) scale(0.1 -0.1)"><path d="M0.0 0.0V-717.0H29.0V0.0ZM111.0 -160.0V-760.0H140.0V-160.0ZM-115.0 -163.0V-730.0H129.0V-700.0H-86.0V-163.0Z"/></g>
<g fill="black" opacity=".8" transform="translate(500 700) scale(0.1 -0.1)"><path d="M0.0 0.0V-716.0H28.0V0.0ZM111.0 -157.0V-764.0H139.0V-157.0ZM-118.0 -161.0V-729.0H133.0V-700.0H-89.0V-161.0Z"/></g>
<g fill="red" transform="translate(600 700) scale(0.1 -0.1)"><path d="M0.0 0.0V-748.0H101.0V0.0ZM124.0 -150.0V-852.0H217.0V-150.0ZM-117.0 -149.0V-807.0H198.0V-683.0H-21.0V-149.0Z"/></g>
<g fill="black" opacity=".8" transform="translate(600 700) scale(0.1 -0.1)"><path d="M0.0 0.0V-745.0H114.0V0.0ZM126.0 -146.0V-851.0H221.0V-146.0ZM-112.0 -153.0V-807.0H182.0V-685.0H-18.0V-153.0Z"/></g>
<g fill="red" transform="translate(700 700) scale(0.1 -0.1)"><path d="M0.0 0.0V-706.0H30.0V0.0ZM104.0 -155.0V-755.0H133.0V-155.0ZM-111.0 -157.0V-724.0H124.0V-694.0H-81.0V-157.0Z"/></g>
<g fill="black" opacity=".8" transform="translate(700 700) scale(0.1 -0.1)"><path d="M0.0 0.0V-709.0H29.0V0.0ZM111.0 -156.0V-757.0H141.0V-156.0ZM-118.0 -152.0V-724.0H124.0V-693.0H-87.0V-152.0Z"/></g>
<g fill="red" transform="translate(800 700) scale(0.1 -0.1)"><path d="M0.0 0.0V-743.0H118.0V0.0ZM142.0 -150.0V-852.0H235.0V-150.0ZM-119.0 -148.0V-806.0H196.0V-682.0H-23.0V-148.0Z"/></g>
<g fill="black" opacity=".8" transform="translate(800 700) scale(0.1 -0.1)"><path d="M0.0 0.0V-743.0H117.0V0.0ZM136.0 -144.0V-853.0H231.0V-144.0ZM-116.0 -141.0V-807.0H182.0V-681.0H-22.0V-141.0Z"/></g>
<g fill="red" transform="translate(900 700) scale(0.1 -0.1)"><path d="M0.0 0.0V-714.0H29.0V0.0ZM109.0 -162.0V-767.0H138.0V-162.0ZM-110.0 -164.0V-731.0H131.0V-701.0H-81.0V-164.0Z"/></g>
<g fill="black" opacity=".8" transform="translate(900 700) scale(0.1 -0.1)"><path d="M0.0 0.0V-712.0H27.0V0.0ZM108.0 -160.0V-758.0H134.0V-160.0ZM-113.0 -165.0V-723.0H132.0V-695.0H-86.0V-165.0Z"/></g>
<g fill="red" transform="translate(1000 700) scale(0.1 -0.1)"><path d="M0.0 0.0V-716.0H100.0V0.0ZM117.0 -150.0V-839.0H200.0V-150.0ZM-103.0 -149.0V-800.0H183.0V-676.0H-18.0V-149.0Z"/></g>
<g fill="black" opacity=".8" transform="translate(1000 700) scale(0.1 -0.1)"><path d="M0.0 0.0V-737.0H108.0V0.0ZM116.0 -150.0V-839.0H209.0V-150.0ZM-104.0 -160.0V-795.0H174.0V-681.0H-12.0V-160.0Z"/></g>
<g fill="red" transform="translate(1100 700) scale(0.1 -0.1)"><path d="M0.0 0.0V-717.0H28.0V0.0ZM111.0 -160.0V-760.0H140.0V-160.0ZM-115.0 -163.0V-730.0H128.0V-700.0H-86.0V-163.0Z"/></g>
<g fill="black" opacity=".8" transform="translate(1100 700) scale(0.1 -0.1)"><path d="M0.0 0.0V-718.0H28.0V0.0ZM112.0 -156.0V-764.0H140.0V-156.0ZM-117.0 -160.0V-729.0H135.0V-700.0H-88.0V-160.0Z"/></g>
<g fill="red" transform="translate(1200 700) scale(0.1 -0.1)"><path d="M0.0 0.0V-748.0H108.0V0.0ZM125.0 -150.0V-852.0H218.0V-150.0ZM-112.0 -149.0V-807.0H203.0V-683.0H-16.0V-149.0Z"/></g>
<g fill="black" opacity=".8" transform="translate(1200 700) scale(0.1 -0.1)"><path d="M0.0 0.0V-746.0H114.0V0.0ZM127.0 -145.0V-851.0H222.0V-145.0ZM-111.0 -152.0V-806.0H183.0V-685.0H-16.0V-152.0Z"/></g>
<g fill="red" transform="translate(1300 700) scale(0.1 -0.1)"><path d="M0.0 0.0V-291.0H30.0V0.0ZM233.0 -45.0V-362.0H262.0V-45.0ZM-226.0 -48.0V-302.0H248.0V-272.0H-197.0V-48.0Z"/></g>
<g fill="black" opacity=".8" transform="translate(1300 700) scale(0.1 -0.1)"><path d="M0.0 0.0V-289.0H25.0V0.0ZM234.0 -42.0V-334.0H258.0V-42.0ZM-219.0 -49.0V-290.0H251.0V-265.0H-194.0V-49.0Z"/></g>
<g fill="red" transform="translate(1400 700) scale(0.1 -0.1)"><path d="M0.0 0.0V-257.0H135.0V0.0ZM221.0 -17.0V-350.0H350.0V-17.0ZM-206.0 -19.0V-309.0H263.0V-178.0H-78.0V-19.0Z"/></g>
<g fill="black" opacity=".8" transform="translate(1400 700) scale(0.1 -0.1)"><path d="M0.0 0.0V-276.0H116.0V0.0ZM233.0 -25.0V-344.0H343.0V-25.0ZM-207.0 -31.0V-313.0H283.0V-207.0H-98.0V-31.0Z"/></g>
<g fill="red" transform="translate(1500 700) scale(0.1 -0.1)"><path d="M0.0 0.0V-803.0H30.0V0.0ZM264.0 -215.0V-885.0H294.0V-215.0ZM-256.0 -216.0V-817.0H287.0V-787.0H-227.0V-216.0Z"/></g>
<g fill="black" opacity=".8" transform="translate(1500 700) scale(0.1 -0.1)"><path d="M0.0 0.0V-808.0H32.0V0.0ZM259.0 -222.0V-898.0H291.0V-222.0ZM-255.0 -225.0V-828.0H283.0V-795.0H-223.0V-225.0Z"/></g>
<g fill="red" transform="translate(1600 700) scale(0.1 -0.1)"><path d="M0.0 0.0V-810.0H146.0V0.0ZM225.0 -222.0V-942.0H372.0V-222.0ZM-224.0 -230.0V-891.0H310.0V-757.0H-81.0V-230.0Z"/></g>
<g fill="black" opacity=".8" transform="translate(1600 700) scale(0.1 -0.1)"><path d="M0.0 0.0V-805.0H149.0V0.0ZM228.0 -213.0V-939.0H378.0V-213.0ZM-226.0 -223.0V-882.0H304.0V-738.0H-79.0V-223.0Z"/></g>
<g fill="red" transform="translate(100 800) scale(0.1 -0.1)"><path d="M0.0 0.0V-803.0H30.0V0.0ZM215.0 -220.0V-886.0H245.0V-220.0ZM-209.0 -221.0V-822.0H234.0V-792.0H-180.0V-221.0Z"/></g>
<g fill="black" opacity=".8" transform="translate(100 800) scale(0.1 -0.1)"><path d="M0.0 0.0V-803.0H29.0V0.0ZM215.0 -220.0V-882.0H243.0V-220.0ZM-205.0 -221.0V-820.0H235.0V-790.0H-176.0V-221.0Z"/></g>
<g fill="red" transform="translate(200 800) scale(0.1 -0.1)"><path d="M0.0 0.0V-810.0H138.0V0.0ZM184.0 -210.0V-930.0H322.0V-210.0ZM-179.0 -218.0V-875.0H247.0V-741.0H-45.0V-218.0Z"/></g>
<g fill="black" opacity=".8" transform="translate(200 800) scale(0.1 -0.1)"><path d="M0.0 0.0V-807.0H132.0V0.0ZM188.0 -213.0V-931.0H319.0V-213.0ZM-179.0 -221.0V-877.0H255.0V-747.0H-50.0V-221.0Z"/></g>
<g fill="red" transform="translate(300 800) scale(0.1 -0.1)"><path d="M0.0 0.0V-803.0H30.0V0.0ZM230.0 -220.0V-886.0H259.0V-220.0ZM-227.0 -221.0V-822.0H244.0V-792.0H-197.0V-221.0Z"/></g>
<g fill="black" opacity=".8" transform="translate(300 800) scale(0.1 -0.1)"><path d="M0.0 0.0V-803.0H31.0V0.0ZM229.0 -227.0V-889.0H259.0V-227.0ZM-223.0 -222.0V-824.0H243.0V-793.0H-192.0V-222.0Z"/></g>
<g fill="red" transform="translate(400 800) scale(0.1 -0.1)"><path d="M0.0 0.0V-810.0H147.0V0.0ZM205.0 -219.0V-939.0H347.0V-219.0ZM-197.0 -227.0V-884.0H253.0V-750.0H-57.0V-227.0Z"/></g>
<g fill="black" opacity=".8" transform="translate(400 800) scale(0.1 -0.1)"><path d="M0.0 0.0V-807.0H138.0V0.0ZM204.0 -220.0V-939.0H342.0V-220.0ZM-197.0 -220.0V-883.0H266.0V-747.0H-64.0V-220.0Z"/></g>
<g fill="red" transform="translate(500 800) scale(0.1 -0.1)"><path d="M0.0 0.0V-494.0H30.0V0.0ZM315.0 -144.0V-558.0H344.0V-144.0ZM-316.0 -147.0V-504.0H340.0V-474.0H-286.0V-147.0Z"/></g>
<g fill="black" opacity=".8" transform="translate(500 800) scale(0.1 -0.1)"><path d="M0.0 0.0V-488.0H32.0V0.0ZM325.0 -139.0V-582.0H357.0V-139.0ZM-327.0 -135.0V-511.0H334.0V-478.0H-295.0V-135.0Z"/></g>
<g fill="red" transform="translate(600 800) scale(0.1 -0.1)"><path d="M0.0 0.0V-498.0H144.0V0.0ZM321.0 -129.0V-571.0H463.0V-129.0ZM-312.0 -130.0V-539.0H377.0V-413.0H-171.0V-130.0Z"/></g>
<g fill="black" opacity=".8" transform="translate(600 800) scale(0.1 -0.1)"><path d="M0.0 0.0V-468.0H156.0V0.0ZM303.0 -124.0V-588.0H460.0V-124.0ZM-303.0 -120.0V-540.0H361.0V-398.0H-150.0V-120.0Z"/></g>
<g fill="red" transform="translate(700 800) scale(0.1 -0.1)"><path d="M0.0 0.0V-719.0H29.0V0.0ZM129.0 -164.0V-757.0H159.0V-164.0ZM-123.0 -163.0V-730.0H147.0V-700.0H-95.0V-163.0Z"/></g>
<g fill="black" opacity=".8" transform="translate(700 800) scale(0.1 -0.1)"><path d="M0.0 0.0V-715.0H28.0V0.0ZM128.0 -160.0V-764.0H156.0V-160.0ZM-128.0 -161.0V-726.0H148.0V-697.0H-98.0V-161.0Z"/></g>
<g fill="red" transform="translate(800 800) scale(0.1 -0.1)"><path d="M0.0 0.0V-738.0H114.0V0.0ZM140.0 -142.0V-841.0H239.0V-142.0ZM-125.0 -154.0V-805.0H194.0V-681.0H-25.0V-154.0Z"/></g>
<g fill="black" opacity=".8" transform="translate(800 800) scale(0.1 -0.1)"><path d="M0.0 0.0V-741.0H116.0V0.0ZM140.0 -148.0V-847.0H239.0V-148.0ZM-120.0 -153.0V-801.0H194.0V-678.0H-21.0V-153.0Z"/></g>
<g fill="red" transform="translate(900 800) scale(0.1 -0.1)"><path d="M0.0 0.0V-261.0H30.0V0.0ZM333.0 -35.0V-326.0H362.0V-35.0ZM-335.0 -40.0V-274.0H354.0V-244.0H-306.0V-40.0Z"/></g>
<g fill="black" opacity=".8" transform="translate(900 800) scale(0.1 -0.1)"><path d="M0.0 0.0V-276.0H32.0V0.0ZM325.0 -46.0V-349.0H357.0V-46.0ZM-330.0 -54.0V-290.0H345.0V-257.0H-298.0V-54.0Z"/></g>
<g fill="red" transform="translate(1000 800) scale(0.1 -0.1)"><path d="M0.0 0.0V-291.0H140.0V0.0ZM318.0 -37.0V-345.0H459.0V-37.0ZM-311.0 -42.0V-314.0H381.0V-193.0H-174.0V-42.0Z"/></g>
<g fill="black" opacity=".8" transform="translate(1000 800) scale(0.1 -0.1)"><path d="M0.0 0.0V-251.0H153.0V0.0ZM319.0 -24.0V-345.0H468.0V-24.0ZM-313.0 -30.0V-307.0H382.0V-171.0H-167.0V-30.0Z"/></g>
<g fill="red" transform="translate(1100 800) scale(0.1 -0.1)"><path d="M0.0 0.0V-352.0H29.0V0.0ZM35.0 -374.0V-643.0H65.0V-374.0ZM-632.0 -376.0V-595.0H54.0V-566.0H-603.0V-376.0Z"/></g>
<g fill="black" opacity=".8" transform="translate(1100 800) scale(0.1 -0.1)"><path d="M0.0 0.0V-323.0H29.0V0.0ZM31.0 -375.0V-636.0H62.0V-375.0ZM-619.0 -382.0V-597.0H63.0V-565.0H-589.0V-382.0Z"/></g>
<g fill="red" transform="translate(1200 800) scale(0.1 -0.1)"><path d="M0.0 0.0V-338.0H133.0V0.0ZM-1.0 -360.0V-662.0H140.0V-360.0ZM-630.0 -365.0V-626.0H58.0V-500.0H-493.0V-365.0Z"/></g>
<g fill="black" opacity=".8" transform="translate(1200 800) scale(0.1 -0.1)"><path d="M0.0 0.0V-325.0H136.0V0.0ZM1.0 -369.0V-674.0H138.0V-369.0ZM-627.0 -379.0V-640.0H87.0V-509.0H-494.0V-379.0Z"/></g>
<g fill="red" transform="translate(1300 800) scale(0.1 -0.1)"><path d="M0.0 0.0V-803.0H30.0V0.0ZM222.0 -220.0V-886.0H251.0V-220.0ZM-215.0 -221.0V-822.0H232.0V-792.0H-185.0V-221.0Z"/></g>
<g fill="black" opacity=".8" transform="translate(1300 800) scale(0.1 -0.1)"><path d="M0.0 0.0V-801.0H30.0V0.0ZM218.0 -224.0V-883.0H247.0V-224.0ZM-210.0 -221.0V-820.0H234.0V-789.0H-181.0V-221.0Z"/></g>
<g fill="red" transform="translate(1400 800) scale(0.1 -0.1)"><path d="M0.0 0.0V-810.0H137.0V0.0ZM191.0 -210.0V-930.0H329.0V-210.0ZM-187.0 -218.0V-875.0H239.0V-741.0H-52.0V-218.0Z"/></g>
<g fill="black" opacity=".8" transform="translate(1400 800) scale(0.1 -0.1)"><path d="M0.0 0.0V-805.0H133.0V0.0ZM193.0 -217.0V-933.0H326.0V-217.0ZM-185.0 -220.0V-878.0H256.0V-746.0H-55.0V-220.0Z"/></g>
<g fill="red" transform="translate(1500 800) scale(0.1 -0.1)"><path d="M0.0 0.0V-291.0H29.0V0.0ZM261.0 -45.0V-362.0H290.0V-45.0ZM-254.0 -48.0V-302.0H271.0V-272.0H-224.0V-48.0Z"/></g>
<g fill="black" opacity=".8" transform="translate(1500 800) scale(0.1 -0.1)"><path d="M0.0 0.0V-287.0H27.0V0.0ZM258.0 -43.0V-340.0H285.0V-43.0ZM-249.0 -50.0V-292.0H277.0V-265.0H-222.0V-50.0Z"/></g>
<g fill="red" transform="translate(1600 800) scale(0.1 -0.1)"><path d="M0.0 0.0V-257.0H135.0V0.0ZM248.0 -17.0V-350.0H377.0V-17.0ZM-234.0 -19.0V-309.0H298.0V-178.0H-106.0V-19.0Z"/></g>
<g fill="black" opacity=".8" transform="translate(1600 800) scale(0.1 -0.1)"><path d="M0.0 0.0V-272.0H126.0V0.0ZM256.0 -25.0V-346.0H377.0V-25.0ZM-235.0 -31.0V-313.0H310.0V-199.0H-116.0V-31.0Z"/></g>
<g fill="red" transform="translate(100 900) scale(0.1 -0.1)"><path d="M0.0 0.0V-803.0H30.0V0.0ZM220.0 -220.0V-886.0H250.0V-220.0ZM-220.0 -221.0V-822.0H237.0V-792.0H-190.0V-221.0Z"/></g>
<g fill="black" opacity=".8" transform="translate(100 900) scale(0.1 -0.1)"><path d="M0.0 0.0V-803.0H29.0V0.0ZM217.0 -221.0V-884.0H246.0V-221.0ZM-211.0 -223.0V-820.0H240.0V-791.0H-181.0V-223.0Z"/></g>
<g fill="red" transform="translate(200 900) scale(0.1 -0.1)"><path d="M0.0 0.0V-810.0H137.0V0.0ZM184.0 -210.0V-930.0H322.0V-210.0ZM-179.0 -218.0V-875.0H247.0V-741.0H-45.0V-218.0Z"/></g>
<g fill="black" opacity=".8" transform="translate(200 900) scale(0.1 -0.1)"><path d="M0.0 0.0V-806.0H132.0V0.0ZM188.0 -214.0V-930.0H321.0V-214.0ZM-183.0 -223.0V-876.0H258.0V-746.0H-53.0V-223.0Z"/></g>
<g fill="red" transform="translate(300 900) scale(0.1 -0.1)"><path d="M0.0 0.0V-711.0H30.0V0.0ZM113.0 -157.0V-757.0H142.0V-157.0ZM-115.0 -159.0V-726.0H127.0V-696.0H-85.0V-159.0Z"/></g>
<g fill="black" opacity=".8" transform="translate(300 900) scale(0.1 -0.1)"><path d="M0.0 0.0V-710.0H28.0V0.0ZM106.0 -162.0V-758.0H133.0V-162.0ZM-113.0 -162.0V-724.0H123.0V-695.0H-85.0V-162.0Z"/></g>
<g fill="red" transform="translate(400 900) scale(0.1 -0.1)"><path d="M0.0 0.0V-743.0H101.0V0.0ZM123.0 -150.0V-852.0H202.0V-150.0ZM-112.0 -148.0V-802.0H158.0V-678.0H-22.0V-148.0Z"/></g>
<g fill="black" opacity=".8" transform="translate(400 900) scale(0.1 -0.1)"><path d="M0.0 0.0V-740.0H110.0V0.0ZM122.0 -152.0V-847.0H214.0V-152.0ZM-108.0 -154.0V-802.0H171.0V-683.0H-17.0V-154.0Z"/></g>
<g fill="red" transform="translate(500 900) scale(0.1 -0.1)"><path d="M0.0 0.0V-711.0H30.0V0.0ZM125.0 -157.0V-801.0H154.0V-157.0ZM-127.0 -159.0V-725.0H137.0V-696.0H-98.0V-159.0Z"/></g>
<g fill="black" opacity=".8" transform="translate(500 900) scale(0.1 -0.1)"><path d="M0.0 0.0V-717.0H28.0V0.0ZM121.0 -164.0V-767.0H149.0V-164.0ZM-123.0 -164.0V-730.0H139.0V-701.0H-94.0V-164.0Z"/></g>
<g fill="red" transform="translate(600 900) scale(0.1 -0.1)"><path d="M0.0 0.0V-743.0H109.0V0.0ZM132.0 -150.0V-852.0H224.0V-150.0ZM-112.0 -148.0V-802.0H176.0V-678.0H-22.0V-148.0Z"/></g>
<g fill="black" opacity=".8" transform="translate(600 900) scale(0.1 -0.1)"><path d="M0.0 0.0V-744.0H114.0V0.0ZM133.0 -154.0V-851.0H231.0V-154.0ZM-116.0 -157.0V-806.0H185.0V-685.0H-20.0V-157.0Z"/></g>
<g fill="red" transform="translate(700 900) scale(0.1 -0.1)"><path d="M0.0 0.0V-803.0H31.0V0.0ZM160.0 -215.0V-885.0H190.0V-215.0ZM-167.0 -216.0V-817.0H177.0V-787.0H-138.0V-216.0Z"/></g>
<g fill="black" opacity=".8" transform="translate(700 900) scale(0.1 -0.1)"><path d="M0.0 0.0V-797.0H29.0V0.0ZM173.0 -211.0V-869.0H202.0V-211.0ZM-175.0 -208.0V-817.0H190.0V-786.0H-145.0V-208.0Z"/></g>
<g fill="red" transform="translate(800 900) scale(0.1 -0.1)"><path d="M0.0 0.0V-810.0H130.0V0.0ZM163.0 -210.0V-930.0H292.0V-210.0ZM-164.0 -208.0V-879.0H249.0V-745.0H-36.0V-208.0Z"/></g>
<g fill="black" opacity=".8" transform="translate(800 900) scale(0.1 -0.1)"><path d="M0.0 0.0V-813.0H126.0V0.0ZM163.0 -203.0V-938.0H282.0V-203.0ZM-157.0 -206.0V-885.0H222.0V-756.0H-40.0V-206.0Z"/></g>
<g fill="red" transform="translate(900 900) scale(0.1 -0.1)"><path d="M0.0 0.0V-291.0H29.0V0.0ZM172.0 -45.0V-362.0H202.0V-45.0ZM-177.0 -48.0V-302.0H188.0V-272.0H-147.0V-48.0Z"/></g>
<g fill="black" opacity=".8" transform="translate(900 900) scale(0.1 -0.1)"><path d="M0.0 0.0V-291.0H22.0V0.0ZM181.0 -36.0V-324.0H203.0V-36.0ZM-171.0 -47.0V-290.0H204.0V-268.0H-149.0V-47.0Z"/></g>
<g fill="red" transform="translate(1000 900) scale(0.1 -0.1)"><path d="M0.0 0.0V-257.0H127.0V0.0ZM159.0 -22.0V-351.0H288.0V-22.0ZM-162.0 -21.0V-311.0H245.0V-187.0H-34.0V-21.0Z"/></g>
<g fill="black" opacity=".8" transform="translate(1000 900) scale(0.1 -0.1)"><path d="M0.0 0.0V-285.0H99.0V0.0ZM184.0 -20.0V-342.0H275.0V-20.0ZM-161.0 -33.0V-315.0H234.0V-223.0H-70.0V-33.0Z"/></g>
</svg>
