<?xml version="1.0" encoding="UTF-8"?>
<svg width="1700" height="1000" xmlns="http://www.w3.org/2000/svg">
<rect width="100%" height="100%" fill="white"/>
<g fill="green" transform="translate(100 100) scale(0.1 -0.1)"><path d="M-0.0 -0.0V-523.0H51.0V0.0ZM390.0 173.0V-346.0H382.0V173.0ZM-149.0 59.0V121.0H562.0V259.0H235.0V59.0Z"/></g>
<g fill="green" transform="translate(200 100) scale(0.1 -0.1)"><path d="M0.0 0.0V-600.0H202.0V0.0ZM339.0 183.0V-379.0H538.0V183.0ZM-200.0 68.0V114.0H618.0V283.0H337.0V68.0Z"/></g>
<g fill="green" transform="translate(300 100) scale(0.1 -0.1)"><path d="M-0.0 0.0V-1039.0H80.0V0.0ZM610.0 -40.0V-987.0H640.0V-40.0ZM-347.0 -159.0V-488.0H768.0V-299.0H87.0V-159.0Z"/></g>
<g fill="green" transform="translate(400 100) scale(0.1 -0.1)"><path d="M0.0 0.0V-1124.0H331.0V0.0ZM547.0 -31.0V-1064.0H871.0V-31.0ZM-385.0 -151.0V-543.0H865.0V-247.0H291.0V-151.0Z"/></g>
<g fill="green" transform="translate(500 100) scale(0.1 -0.1)"><path d="M-0.0 0.0V-545.0H25.0V0.0ZM-77.0 -100.0V-486.0H-78.0V-100.0ZM496.0 -230.0V-78.0H26.0V54.0H917.0V-230.0Z"/></g>
<g fill="green" transform="translate(600 100) scale(0.1 -0.1)"><path d="M0.0 0.0V-680.0H63.0V0.0ZM-95.0 -148.0V-595.0H-45.0V-148.0ZM408.0 -277.0V-91.0H84.0V-98.0H852.0V-277.0Z"/></g>
<g fill="green" transform="translate(700 100) scale(0.1 -0.1)"><path d="M-0.0 0.0V170.0H42.0V0.0ZM288.0 -447.0V-275.0H364.0V-447.0ZM-474.0 -442.0V94.0H526.0V157.0H-213.0V-442.0Z"/></g>
<g fill="green" transform="translate(800 100) scale(0.1 -0.1)"><path d="M0.0 0.0V116.0H212.0V0.0ZM245.0 -503.0V-346.0H454.0V-503.0ZM-504.0 -498.0V70.0H582.0V150.0H-81.0V-498.0Z"/></g>
<g fill="green" transform="translate(900 100) scale(0.1 -0.1)"><path d="M0.0 0.0V-658.0H34.0V0.0ZM1.0 361.0V-490.0H-50.0V361.0ZM-406.0 288.0V122.0H405.0V54.0H-238.0V288.0Z"/></g>
<g fill="green" transform="translate(1000 100) scale(0.1 -0.1)"><path d="M0.0 0.0V-742.0H117.0V0.0ZM-20.0 406.0V-526.0H92.0V406.0ZM-434.0 326.0V98.0H403.0V163.0H-155.0V326.0Z"/></g>
<g fill="green" transform="translate(1100 100) scale(0.1 -0.1)"><path d="M-0.0 -0.0V-515.0H63.0V0.0ZM499.0 314.0V-129.0H548.0V314.0ZM-356.0 0.0V-231.0H-57.0V345.0H265.0V0.0Z"/></g>
<g fill="green" transform="translate(1200 100) scale(0.1 -0.1)"><path d="M0.0 0.0V-574.0H230.0V0.0ZM505.0 367.0V-113.0H753.0V367.0ZM-418.0 64.0V-237.0H78.0V273.0H333.0V64.0Z"/></g>
<g fill="green" transform="translate(1300 100) scale(0.1 -0.1)"><path d="M-0.0 0.0V-467.0H42.0V0.0ZM512.0 326.0V-190.0H433.0V326.0ZM113.0 43.0V161.0H604.0V-67.0H84.0V43.0Z"/></g>
<g fill="green" transform="translate(1400 100) scale(0.1 -0.1)"><path d="M0.0 0.0V-562.0H202.0V0.0ZM414.0 282.0V-189.0H589.0V282.0ZM19.0 16.0V149.0H598.0V-34.0H147.0V16.0Z"/></g>
<g fill="green" transform="translate(1500 100) scale(0.1 -0.1)"><path d="M0.0 0.0V-295.0H63.0V0.0ZM317.0 231.0V-461.0H407.0V231.0ZM-143.0 207.0V48.0H520.0V192.0H268.0V207.0Z"/></g>
<g fill="green" transform="translate(1600 100) scale(0.1 -0.1)"><path d="M0.0 0.0V-376.0H252.0V0.0ZM350.0 264.0V-521.0H613.0V264.0ZM-163.0 231.0V61.0H675.0V222.0H430.0V231.0Z"/></g>
<g fill="green" transform="translate(100 200) scale(0.1 -0.1)"><path d="M-0.0 0.0V-563.0H43.0V0.0ZM401.0 -42.0V-267.0H461.0V-42.0ZM-78.0 280.0V83.0H559.0V277.0H183.0V280.0Z"/></g>
<g fill="green" transform="translate(200 200) scale(0.1 -0.1)"><path d="M0.0 0.0V-640.0H152.0V0.0ZM361.0 -27.0V-330.0H534.0V-27.0ZM-126.0 282.0V41.0H566.0V290.0H273.0V282.0Z"/></g>
<g fill="green" transform="translate(300 200) scale(0.1 -0.1)"><path d="M0.0 0.0V-486.0H34.0V0.0ZM398.0 207.0V-286.0H356.0V207.0ZM-171.0 58.0V86.0H624.0V301.0H256.0V58.0Z"/></g>
<g fill="green" transform="translate(400 200) scale(0.1 -0.1)"><path d="M0.0 0.0V-597.0H117.0V0.0ZM370.0 204.0V-382.0H469.0V204.0ZM-175.0 56.0V-6.0H665.0V281.0H323.0V56.0Z"/></g>
<g fill="green" transform="translate(500 200) scale(0.1 -0.1)"><path d="M0.0 -0.0V-618.0H48.0V0.0ZM365.0 130.0V-339.0H355.0V130.0ZM-188.0 28.0V16.0H586.0V180.0H227.0V28.0Z"/></g>
<g fill="green" transform="translate(600 200) scale(0.1 -0.1)"><path d="M0.0 0.0V-511.0H213.0V0.0ZM308.0 214.0V-266.0H516.0V214.0ZM-182.0 102.0V122.0H680.0V327.0H394.0V102.0Z"/></g>
<g fill="green" transform="translate(700 200) scale(0.1 -0.1)"><path d="M-0.0 0.0V-521.0H43.0V0.0ZM447.0 177.0V-412.0H389.0V177.0ZM-136.0 55.0V108.0H576.0V257.0H212.0V55.0Z"/></g>
<g fill="green" transform="translate(800 200) scale(0.1 -0.1)"><path d="M0.0 0.0V-577.0H160.0V0.0ZM344.0 191.0V-383.0H519.0V191.0ZM-171.0 64.0V122.0H569.0V331.0H329.0V64.0Z"/></g>
<g fill="red" transform="translate(100 300) scale(0.1 -0.1)"><path d="M0.0 0.0V-803.0H30.0V0.0ZM258.0 -215.0V-885.0H288.0V-215.0ZM-250.0 -216.0V-817.0H282.0V-787.0H-221.0V-216.0Z"/></g>
<g fill="black" opacity=".8" transform="translate(100 300) scale(0.1 -0.1)"><path d="M0.0 0.0V-803.0H34.0V0.0ZM253.0 -218.0V-883.0H281.0V-218.0ZM-241.0 -222.0V-818.0H282.0V-791.0H-215.0V-222.0Z"/></g>
<g fill="red" transform="translate(200 300) scale(0.1 -0.1)"><path d="M0.0 0.0V-810.0H146.0V0.0ZM224.0 -210.0V-930.0H370.0V-210.0ZM-217.0 -218.0V-879.0H317.0V-745.0H-74.0V-218.0Z"/></g>
<g fill="black" opacity=".8" transform="translate(200 300) scale(0.1 -0.1)"><path d="M0.0 0.0V-807.0H150.0V0.0ZM233.0 -209.0V-936.0H375.0V-209.0ZM-219.0 -215.0V-883.0H317.0V-731.0H-86.0V-215.0Z"/></g>
<g fill="red" transform="translate(300 300) scale(0.1 -0.1)"><path d="M0.0 0.0V-587.0H30.0V0.0ZM325.0 -157.0V-682.0H354.0V-157.0ZM-321.0 -157.0V-607.0H335.0V-578.0H-291.0V-157.0Z"/></g>
<g fill="black" opacity=".8" transform="translate(300 300) scale(0.1 -0.1)"><path d="M0.0 0.0V-580.0H35.0V0.0ZM331.0 -154.0V-677.0H360.0V-154.0ZM-322.0 -156.0V-605.0H345.0V-576.0H-302.0V-156.0Z"/></g>
<g fill="red" transform="translate(400 300) scale(0.1 -0.1)"><path d="M0.0 0.0V-567.0H144.0V0.0ZM323.0 -140.0V-698.0H465.0V-140.0ZM-307.0 -142.0V-634.0H382.0V-501.0H-166.0V-142.0Z"/></g>
<g fill="black" opacity=".8" transform="translate(400 300) scale(0.1 -0.1)"><path d="M0.0 0.0V-571.0H163.0V0.0ZM302.0 -141.0V-697.0H463.0V-141.0ZM-301.0 -144.0V-648.0H375.0V-494.0H-156.0V-144.0Z"/></g>
<g fill="red" transform="translate(500 300) scale(0.1 -0.1)"><path d="M0.0 0.0V-279.0H29.0V0.0ZM323.0 -95.0V-342.0H352.0V-95.0ZM-312.0 -92.0V-291.0H340.0V-262.0H-283.0V-92.0Z"/></g>
<g fill="black" opacity=".8" transform="translate(500 300) scale(0.1 -0.1)"><path d="M0.0 0.0V-281.0H29.0V0.0ZM318.0 -100.0V-335.0H347.0V-100.0ZM-313.0 -86.0V-290.0H352.0V-265.0H-285.0V-86.0Z"/></g>
<g fill="red" transform="translate(600 300) scale(0.1 -0.1)"><path d="M0.0 0.0V-243.0H139.0V0.0ZM289.0 -83.0V-317.0H429.0V-83.0ZM-293.0 -61.0V-292.0H396.0V-182.0H-155.0V-61.0Z"/></g>
<g fill="black" opacity=".8" transform="translate(600 300) scale(0.1 -0.1)"><path d="M0.0 0.0V-240.0H144.0V0.0ZM291.0 -80.0V-323.0H435.0V-80.0ZM-292.0 -68.0V-295.0H384.0V-176.0H-151.0V-68.0Z"/></g>
<g fill="red" transform="translate(700 300) scale(0.1 -0.1)"><path d="M0.0 0.0V-520.0H30.0V0.0ZM315.0 -111.0V-604.0H344.0V-111.0ZM-316.0 -114.0V-543.0H340.0V-513.0H-286.0V-114.0Z"/></g>
<g fill="black" opacity=".8" transform="translate(700 300) scale(0.1 -0.1)"><path d="M0.0 0.0V-513.0H34.0V0.0ZM319.0 -115.0V-599.0H355.0V-115.0ZM-319.0 -119.0V-542.0H340.0V-513.0H-294.0V-119.0Z"/></g>
<g fill="red" transform="translate(800 300) scale(0.1 -0.1)"><path d="M0.0 0.0V-527.0H144.0V0.0ZM322.0 -116.0V-643.0H464.0V-116.0ZM-311.0 -116.0V-601.0H378.0V-468.0H-170.0V-116.0Z"/></g>
<g fill="black" opacity=".8" transform="translate(800 300) scale(0.1 -0.1)"><path d="M0.0 0.0V-533.0H156.0V0.0ZM308.0 -111.0V-647.0H458.0V-111.0ZM-302.0 -114.0V-608.0H378.0V-460.0H-166.0V-114.0Z"/></g>
<g fill="red" transform="translate(900 300) scale(0.1 -0.1)"><path d="M0.0 0.0V-252.0H30.0V0.0ZM262.0 -40.0V-301.0H292.0V-40.0ZM-247.0 -43.0V-270.0H275.0V-240.0H-218.0V-43.0Z"/></g>
<g fill="black" opacity=".8" transform="translate(900 300) scale(0.1 -0.1)"><path d="M0.0 0.0V-245.0H26.0V0.0ZM259.0 -48.0V-309.0H292.0V-48.0ZM-251.0 -47.0V-272.0H267.0V-239.0H-215.0V-47.0Z"/></g>
<g fill="red" transform="translate(1000 300) scale(0.1 -0.1)"><path d="M0.0 0.0V-230.0H133.0V0.0ZM244.0 -38.0V-326.0H375.0V-38.0ZM-238.0 -40.0V-300.0H298.0V-182.0H-107.0V-40.0Z"/></g>
<g fill="black" opacity=".8" transform="translate(1000 300) scale(0.1 -0.1)"><path d="M0.0 0.0V-237.0H123.0V0.0ZM252.0 -35.0V-320.0H375.0V-35.0ZM-237.0 -36.0V-293.0H305.0V-185.0H-109.0V-36.0Z"/></g>
<g fill="red" transform="translate(1100 300) scale(0.1 -0.1)"><path d="M0.0 0.0V-340.0H30.0V0.0ZM325.0 -91.0V-408.0H354.0V-91.0ZM-321.0 -92.0V-350.0H341.0V-320.0H-292.0V-92.0Z"/></g>
<g fill="black" opacity=".8" transform="translate(1100 300) scale(0.1 -0.1)"><path d="M0.0 0.0V-332.0H31.0V0.0ZM327.0 -95.0V-412.0H362.0V-95.0ZM-319.0 -96.0V-355.0H346.0V-320.0H-282.0V-96.0Z"/></g>
<g fill="red" transform="translate(1200 300) scale(0.1 -0.1)"><path d="M0.0 0.0V-347.0H144.0V0.0ZM319.0 -98.0V-454.0H461.0V-98.0ZM-301.0 -102.0V-411.0H381.0V-275.0H-160.0V-102.0Z"/></g>
<g fill="black" opacity=".8" transform="translate(1200 300) scale(0.1 -0.1)"><path d="M0.0 0.0V-351.0H146.0V0.0ZM313.0 -96.0V-449.0H455.0V-96.0ZM-308.0 -96.0V-410.0H380.0V-276.0H-165.0V-96.0Z"/></g>
<g fill="red" transform="translate(1300 300) scale(0.1 -0.1)"><path d="M0.0 0.0V-327.0H30.0V0.0ZM343.0 -75.0V-392.0H373.0V-75.0ZM-331.0 -89.0V-340.0H358.0V-310.0H-302.0V-89.0Z"/></g>
<g fill="black" opacity=".8" transform="translate(1300 300) scale(0.1 -0.1)"><path d="M0.0 0.0V-313.0H31.0V0.0ZM349.0 -76.0V-395.0H374.0V-76.0ZM-335.0 -81.0V-345.0H355.0V-311.0H-310.0V-81.0Z"/></g>
<g fill="red" transform="translate(1400 300) scale(0.1 -0.1)"><path d="M0.0 0.0V-261.0H148.0V0.0ZM331.0 -51.0V-384.0H473.0V-51.0ZM-314.0 -54.0V-349.0H379.0V-217.0H-173.0V-54.0Z"/></g>
<g fill="black" opacity=".8" transform="translate(1400 300) scale(0.1 -0.1)"><path d="M0.0 0.0V-275.0H151.0V0.0ZM318.0 -53.0V-376.0H472.0V-53.0ZM-311.0 -61.0V-351.0H385.0V-213.0H-164.0V-61.0Z"/></g>
<g fill="red" transform="translate(1500 300) scale(0.1 -0.1)"><path d="M0.0 0.0V-490.0H31.0V0.0ZM334.0 -99.0V-549.0H366.0V-99.0ZM-339.0 -100.0V-497.0H356.0V-465.0H-308.0V-100.0Z"/></g>
<g fill="black" opacity=".8" transform="translate(1500 300) scale(0.1 -0.1)"><path d="M0.0 0.0V-472.0H32.0V0.0ZM338.0 -113.0V-546.0H359.0V-113.0ZM-341.0 -116.0V-492.0H372.0V-466.0H-319.0V-116.0Z"/></g>
<g fill="red" transform="translate(1600 300) scale(0.1 -0.1)"><path d="M0.0 0.0V-392.0H144.0V0.0ZM315.0 -88.0V-525.0H458.0V-88.0ZM-308.0 -100.0V-479.0H421.0V-347.0H-169.0V-100.0Z"/></g>
<g fill="black" opacity=".8" transform="translate(1600 300) scale(0.1 -0.1)"><path d="M0.0 0.0V-408.0H159.0V0.0ZM304.0 -78.0V-521.0H463.0V-78.0ZM-304.0 -85.0V-491.0H408.0V-342.0H-155.0V-85.0Z"/></g>
<g fill="red" transform="translate(100 400) scale(0.1 -0.1)"><path d="M0.0 0.0V-314.0H30.0V0.0ZM337.0 -54.0V-386.0H367.0V-54.0ZM-330.0 -53.0V-332.0H359.0V-302.0H-301.0V-53.0Z"/></g>
<g fill="black" opacity=".8" transform="translate(100 400) scale(0.1 -0.1)"><path d="M0.0 0.0V-306.0H30.0V0.0ZM335.0 -56.0V-389.0H365.0V-56.0ZM-327.0 -58.0V-334.0H355.0V-304.0H-302.0V-58.0Z"/></g>
<g fill="red" transform="translate(200 400) scale(0.1 -0.1)"><path d="M0.0 0.0V-306.0H140.0V0.0ZM318.0 -48.0V-413.0H459.0V-48.0ZM-311.0 -53.0V-377.0H381.0V-251.0H-174.0V-53.0Z"/></g>
<g fill="black" opacity=".8" transform="translate(200 400) scale(0.1 -0.1)"><path d="M0.0 0.0V-313.0H142.0V0.0ZM320.0 -49.0V-411.0H460.0V-49.0ZM-309.0 -50.0V-379.0H386.0V-242.0H-177.0V-50.0Z"/></g>
<g fill="red" transform="translate(300 400) scale(0.1 -0.1)"><path d="M0.0 0.0V-520.0H30.0V0.0ZM425.0 -589.0V-774.0H454.0V-589.0ZM-81.0 -595.0V-739.0H441.0V-710.0H-52.0V-595.0Z"/></g>
<g fill="black" opacity=".8" transform="translate(300 400) scale(0.1 -0.1)"><path d="M0.0 0.0V-522.0H28.0V0.0ZM427.0 -580.0V-774.0H448.0V-580.0ZM-90.0 -583.0V-738.0H443.0V-709.0H-58.0V-583.0Z"/></g>
<g fill="red" transform="translate(400 400) scale(0.1 -0.1)"><path d="M0.0 0.0V-549.0H144.0V0.0ZM347.0 -637.0V-853.0H478.0V-637.0ZM-90.0 -637.0V-827.0H446.0V-719.0H41.0V-637.0Z"/></g>
<g fill="black" opacity=".8" transform="translate(400 400) scale(0.1 -0.1)"><path d="M0.0 0.0V-546.0H146.0V0.0ZM349.0 -648.0V-851.0H480.0V-648.0ZM-85.0 -646.0V-826.0H443.0V-721.0H51.0V-646.0Z"/></g>
<g fill="red" transform="translate(500 400) scale(0.1 -0.1)"><path d="M0.0 0.0V-273.0H30.0V0.0ZM339.0 -49.0V-309.0H369.0V-49.0ZM-333.0 -46.0V-279.0H353.0V-250.0H-304.0V-46.0Z"/></g>
<g fill="black" opacity=".8" transform="translate(500 400) scale(0.1 -0.1)"><path d="M0.0 0.0V-269.0H30.0V0.0ZM335.0 -47.0V-319.0H366.0V-47.0ZM-329.0 -44.0V-280.0H353.0V-248.0H-301.0V-44.0Z"/></g>
<g fill="red" transform="translate(600 400) scale(0.1 -0.1)"><path d="M0.0 0.0V-252.0H144.0V0.0ZM317.0 -27.0V-333.0H459.0V-27.0ZM-307.0 -27.0V-302.0H385.0V-176.0H-170.0V-27.0Z"/></g>
<g fill="black" opacity=".8" transform="translate(600 400) scale(0.1 -0.1)"><path d="M0.0 0.0V-254.0H144.0V0.0ZM318.0 -32.0V-323.0H462.0V-32.0ZM-310.0 -29.0V-306.0H388.0V-174.0H-173.0V-29.0Z"/></g>
<g fill="red" transform="translate(700 400) scale(0.1 -0.1)"><path d="M0.0 0.0V-344.0H29.0V0.0ZM118.0 -365.0V-660.0H148.0V-365.0ZM-550.0 -363.0V-609.0H141.0V-577.0H-520.0V-363.0Z"/></g>
<g fill="black" opacity=".8" transform="translate(700 400) scale(0.1 -0.1)"><path d="M0.0 0.0V-352.0H28.0V0.0ZM100.0 -369.0V-658.0H152.0V-369.0ZM-558.0 -369.0V-601.0H141.0V-571.0H-534.0V-369.0Z"/></g>
<g fill="red" transform="translate(800 400) scale(0.1 -0.1)"><path d="M0.0 0.0V-351.0H143.0V0.0ZM76.0 -375.0V-690.0H218.0V-375.0ZM-556.0 -371.0V-649.0H173.0V-516.0H-417.0V-371.0Z"/></g>
<g fill="black" opacity=".8" transform="translate(800 400) scale(0.1 -0.1)"><path d="M0.0 0.0V-345.0H138.0V0.0ZM89.0 -371.0V-698.0H225.0V-371.0ZM-539.0 -372.0V-650.0H167.0V-515.0H-411.0V-372.0Z"/></g>
<g fill="red" transform="translate(900 400) scale(0.1 -0.1)"><path d="M0.0 0.0V-238.0H30.0V0.0ZM343.0 -65.0V-303.0H373.0V-65.0ZM-327.0 -58.0V-259.0H361.0V-228.0H-297.0V-58.0Z"/></g>
<g fill="black" opacity=".8" transform="translate(900 400) scale(0.1 -0.1)"><path d="M0.0 0.0V-249.0H30.0V0.0ZM341.0 -54.0V-303.0H375.0V-54.0ZM-329.0 -49.0V-256.0H371.0V-225.0H-293.0V-49.0Z"/></g>
<g fill="red" transform="translate(1000 400) scale(0.1 -0.1)"><path d="M0.0 0.0V-248.0H148.0V0.0ZM328.0 -28.0V-312.0H470.0V-28.0ZM-307.0 -30.0V-278.0H420.0V-151.0H-166.0V-30.0Z"/></g>
<g fill="black" opacity=".8" transform="translate(1000 400) scale(0.1 -0.1)"><path d="M0.0 0.0V-235.0H149.0V0.0ZM325.0 -40.0V-312.0H472.0V-40.0ZM-312.0 -36.0V-282.0H411.0V-155.0H-164.0V-36.0Z"/></g>
<g fill="red" transform="translate(1100 400) scale(0.1 -0.1)"><path d="M0.0 0.0V-287.0H29.0V0.0ZM168.0 -84.0V-362.0H197.0V-84.0ZM-169.0 -87.0V-300.0H181.0V-270.0H-140.0V-87.0Z"/></g>
<g fill="black" opacity=".8" transform="translate(1100 400) scale(0.1 -0.1)"><path d="M0.0 0.0V-301.0H23.0V0.0ZM175.0 -78.0V-360.0H203.0V-78.0ZM-174.0 -76.0V-299.0H184.0V-269.0H-127.0V-76.0Z"/></g>
<g fill="red" transform="translate(1200 400) scale(0.1 -0.1)"><path d="M0.0 0.0V-311.0H117.0V0.0ZM166.0 -59.0V-365.0H277.0V-59.0ZM-155.0 -62.0V-320.0H221.0V-211.0H-43.0V-62.0Z"/></g>
<g fill="black" opacity=".8" transform="translate(1200 400) scale(0.1 -0.1)"><path d="M0.0 0.0V-294.0H106.0V0.0ZM165.0 -67.0V-370.0H271.0V-67.0ZM-168.0 -66.0V-311.0H216.0V-226.0H-42.0V-66.0Z"/></g>
<g fill="red" transform="translate(1300 400) scale(0.1 -0.1)"><path d="M0.0 0.0V-287.0H29.0V0.0ZM183.0 -84.0V-362.0H213.0V-84.0ZM-176.0 -87.0V-307.0H208.0V-277.0H-148.0V-87.0Z"/></g>
<g fill="black" opacity=".8" transform="translate(1300 400) scale(0.1 -0.1)"><path d="M0.0 0.0V-304.0H22.0V0.0ZM188.0 -80.0V-365.0H210.0V-80.0ZM-177.0 -77.0V-303.0H199.0V-273.0H-138.0V-77.0Z"/></g>
<g fill="red" transform="translate(1400 400) scale(0.1 -0.1)"><path d="M0.0 0.0V-311.0H117.0V0.0ZM164.0 -59.0V-365.0H275.0V-59.0ZM-158.0 -62.0V-320.0H218.0V-211.0H-46.0V-62.0Z"/></g>
<g fill="black" opacity=".8" transform="translate(1400 400) scale(0.1 -0.1)"><path d="M0.0 0.0V-293.0H101.0V0.0ZM172.0 -68.0V-369.0H275.0V-68.0ZM-168.0 -67.0V-313.0H224.0V-223.0H-49.0V-67.0Z"/></g>
<g fill="red" transform="translate(1500 400) scale(0.1 -0.1)"><path d="M0.0 0.0V-243.0H30.0V0.0ZM343.0 -38.0V-307.0H373.0V-38.0ZM-333.0 -38.0V-257.0H357.0V-228.0H-303.0V-38.0Z"/></g>
<g fill="black" opacity=".8" transform="translate(1500 400) scale(0.1 -0.1)"><path d="M0.0 0.0V-242.0H29.0V0.0ZM333.0 -38.0V-319.0H365.0V-38.0ZM-323.0 -37.0V-262.0H352.0V-228.0H-292.0V-37.0Z"/></g>
<g fill="red" transform="translate(1600 400) scale(0.1 -0.1)"><path d="M0.0 0.0V-261.0H148.0V0.0ZM308.0 -31.0V-355.0H450.0V-31.0ZM-301.0 -32.0V-315.0H375.0V-184.0H-162.0V-32.0Z"/></g>
<g fill="black" opacity=".8" transform="translate(1600 400) scale(0.1 -0.1)"><path d="M0.0 0.0V-261.0H137.0V0.0ZM322.0 -35.0V-347.0H457.0V-35.0ZM-310.0 -33.0V-312.0H383.0V-179.0H-176.0V-33.0Z"/></g>
<g fill="red" transform="translate(100 500) scale(0.1 -0.1)"><path d="M0.0 0.0V-371.0H30.0V0.0ZM306.0 -4.0V-313.0H335.0V-4.0ZM-86.0 -381.0V-632.0H-57.0V-411.0H164.0V-381.0Z"/></g>
<g fill="black" opacity=".8" transform="translate(100 500) scale(0.1 -0.1)"><path d="M0.0 0.0V-377.0H30.0V0.0ZM307.0 -5.0V-308.0H328.0V-5.0ZM-86.0 -384.0V-631.0H-68.0V-407.0H151.0V-384.0Z"/></g>
<g fill="red" transform="translate(200 500) scale(0.1 -0.1)"><path d="M0.0 0.0V-351.0H140.0V0.0ZM309.0 4.0V-302.0H448.0V4.0ZM-87.0 -358.0V-647.0H54.0V-463.0H199.0V-358.0Z"/></g>
<g fill="black" opacity=".8" transform="translate(200 500) scale(0.1 -0.1)"><path d="M0.0 0.0V-346.0H145.0V0.0ZM325.0 3.0V-313.0H444.0V3.0ZM-79.0 -359.0V-646.0H59.0V-458.0H204.0V-359.0Z"/></g>
<g fill="red" transform="translate(300 500) scale(0.1 -0.1)"><path d="M0.0 0.0V-225.0H30.0V0.0ZM184.0 -41.0V-270.0H213.0V-41.0ZM-191.0 -39.0V-238.0H205.0V-208.0H-160.0V-39.0Z"/></g>
<g fill="black" opacity=".8" transform="translate(300 500) scale(0.1 -0.1)"><path d="M0.0 0.0V-216.0H20.0V0.0ZM181.0 -56.0V-280.0H209.0V-56.0ZM-189.0 -49.0V-242.0H200.0V-209.0H-146.0V-49.0Z"/></g>
<g fill="red" transform="translate(400 500) scale(0.1 -0.1)"><path d="M0.0 0.0V-185.0H115.0V0.0ZM161.0 -46.0V-285.0H272.0V-46.0ZM-160.0 -46.0V-258.0H228.0V-149.0H-47.0V-46.0Z"/></g>
<g fill="black" opacity=".8" transform="translate(400 500) scale(0.1 -0.1)"><path d="M0.0 0.0V-192.0H97.0V0.0ZM175.0 -38.0V-279.0H273.0V-38.0ZM-171.0 -34.0V-245.0H234.0V-155.0H-56.0V-34.0Z"/></g>
<g fill="red" transform="translate(500 500) scale(0.1 -0.1)"><path d="M0.0 0.0V-291.0H30.0V0.0ZM233.0 -45.0V-362.0H262.0V-45.0ZM-226.0 -48.0V-302.0H248.0V-272.0H-197.0V-48.0Z"/></g>
<g fill="black" opacity=".8" transform="translate(500 500) scale(0.1 -0.1)"><path d="M0.0 0.0V-290.0H26.0V0.0ZM239.0 -46.0V-367.0H265.0V-46.0ZM-231.0 -43.0V-305.0H239.0V-269.0H-193.0V-43.0Z"/></g>
<g fill="red" transform="translate(600 500) scale(0.1 -0.1)"><path d="M0.0 0.0V-257.0H135.0V0.0ZM221.0 -17.0V-350.0H350.0V-17.0ZM-206.0 -19.0V-309.0H263.0V-178.0H-78.0V-19.0Z"/></g>
<g fill="black" opacity=".8" transform="translate(600 500) scale(0.1 -0.1)"><path d="M0.0 0.0V-257.0H120.0V0.0ZM221.0 -20.0V-347.0H347.0V-20.0ZM-212.0 -20.0V-299.0H271.0V-188.0H-76.0V-20.0Z"/></g>
<g fill="red" transform="translate(700 500) scale(0.1 -0.1)"><path d="M0.0 0.0V-490.0H29.0V0.0ZM326.0 -545.0V-739.0H356.0V-545.0ZM-60.0 -546.0V-707.0H336.0V-678.0H-29.0V-546.0Z"/></g>
<g fill="black" opacity=".8" transform="translate(700 500) scale(0.1 -0.1)"><path d="M0.0 0.0V-483.0H25.0V0.0ZM331.0 -551.0V-742.0H357.0V-551.0ZM-63.0 -551.0V-710.0H331.0V-676.0H-28.0V-551.0Z"/></g>
<g fill="red" transform="translate(800 500) scale(0.1 -0.1)"><path d="M0.0 0.0V-522.0H131.0V0.0ZM269.0 -622.0V-834.0H382.0V-622.0ZM-60.0 -623.0V-812.0H326.0V-705.0H51.0V-623.0Z"/></g>
<g fill="black" opacity=".8" transform="translate(800 500) scale(0.1 -0.1)"><path d="M0.0 0.0V-527.0H122.0V0.0ZM270.0 -620.0V-831.0H378.0V-620.0ZM-64.0 -616.0V-804.0H331.0V-712.0H54.0V-616.0Z"/></g>
<g fill="red" transform="translate(900 500) scale(0.1 -0.1)"><path d="M0.0 0.0V-803.0H30.0V0.0ZM264.0 -215.0V-885.0H294.0V-215.0ZM-256.0 -216.0V-817.0H287.0V-787.0H-227.0V-216.0Z"/></g>
<g fill="black" opacity=".8" transform="translate(900 500) scale(0.1 -0.1)"><path d="M0.0 0.0V-798.0H34.0V0.0ZM258.0 -222.0V-886.0H285.0V-222.0ZM-244.0 -227.0V-820.0H282.0V-792.0H-221.0V-227.0Z"/></g>
<g fill="red" transform="translate(1000 500) scale(0.1 -0.1)"><path d="M0.0 0.0V-810.0H146.0V0.0ZM225.0 -222.0V-942.0H372.0V-222.0ZM-224.0 -230.0V-891.0H310.0V-757.0H-81.0V-230.0Z"/></g>
<g fill="black" opacity=".8" transform="translate(1000 500) scale(0.1 -0.1)"><path d="M0.0 0.0V-813.0H149.0V0.0ZM238.0 -218.0V-946.0H378.0V-218.0ZM-225.0 -224.0V-893.0H314.0V-740.0H-96.0V-224.0Z"/></g>
<g fill="red" transform="translate(1100 500) scale(0.1 -0.1)"><path d="M0.0 0.0V-803.0H31.0V0.0ZM204.0 -220.0V-886.0H234.0V-220.0ZM-198.0 -221.0V-822.0H222.0V-792.0H-168.0V-221.0Z"/></g>
<g fill="black" opacity=".8" transform="translate(1100 500) scale(0.1 -0.1)"><path d="M0.0 0.0V-807.0H31.0V0.0ZM198.0 -223.0V-886.0H222.0V-223.0ZM-192.0 -224.0V-820.0H230.0V-792.0H-161.0V-224.0Z"/></g>
<g fill="red" transform="translate(1200 500) scale(0.1 -0.1)"><path d="M0.0 0.0V-810.0H133.0V0.0ZM168.0 -210.0V-930.0H296.0V-210.0ZM-163.0 -218.0V-872.0H274.0V-738.0H-36.0V-218.0Z"/></g>
<g fill="black" opacity=".8" transform="translate(1200 500) scale(0.1 -0.1)"><path d="M0.0 0.0V-803.0H133.0V0.0ZM180.0 -210.0V-933.0H305.0V-210.0ZM-169.0 -214.0V-874.0H265.0V-734.0H-43.0V-214.0Z"/></g>
<g fill="red" transform="translate(1300 500) scale(0.1 -0.1)"><path d="M0.0 0.0V-238.0H29.0V0.0ZM215.0 -414.0V-899.0H245.0V-414.0ZM-296.0 -413.0V-846.0H230.0V-816.0H-266.0V-413.0Z"/></g>
<g fill="black" opacity=".8" transform="translate(1300 500) scale(0.1 -0.1)"><path d="M0.0 0.0V-252.0H28.0V0.0ZM193.0 -411.0V-894.0H274.0V-411.0ZM-299.0 -414.0V-844.0H236.0V-810.0H-269.0V-414.0Z"/></g>
<g fill="red" transform="translate(1400 500) scale(0.1 -0.1)"><path d="M0.0 0.0V-261.0H145.0V0.0ZM211.0 -429.0V-947.0H352.0V-429.0ZM-240.0 -427.0V-902.0H323.0V-768.0H-99.0V-427.0Z"/></g>
<g fill="black" opacity=".8" transform="translate(1400 500) scale(0.1 -0.1)"><path d="M0.0 0.0V-248.0H140.0V0.0ZM209.0 -426.0V-959.0H351.0V-426.0ZM-230.0 -434.0V-902.0H314.0V-766.0H-102.0V-434.0Z"/></g>
<g fill="red" transform="translate(1500 500) scale(0.1 -0.1)"><path d="M0.0 0.0V-155.0H30.0V0.0ZM89.0 -610.0V-640.0H235.0V-610.0ZM-208.0 -610.0V-892.0H-179.0V-640.0H-53.0V-610.0Z"/></g>
<g fill="black" opacity=".8" transform="translate(1500 500) scale(0.1 -0.1)"><path d="M0.0 0.0V-146.0H27.0V0.0ZM97.0 -610.0V-645.0H236.0V-610.0ZM-210.0 -607.0V-889.0H-177.0V-649.0H-40.0V-607.0Z"/></g>
<g fill="red" transform="translate(1600 500) scale(0.1 -0.1)"><path d="M0.0 0.0V-153.0H126.0V0.0ZM151.0 -641.0V-746.0H273.0V-641.0ZM-179.0 -641.0V-948.0H-68.0V-746.0H35.0V-641.0Z"/></g>
<g fill="black" opacity=".8" transform="translate(1600 500) scale(0.1 -0.1)"><path d="M0.0 0.0V-158.0H125.0V0.0ZM142.0 -645.0V-737.0H270.0V-645.0ZM-190.0 -639.0V-952.0H-67.0V-744.0H34.0V-639.0Z"/></g>
<g fill="red" transform="translate(100 600) scale(0.1 -0.1)"><path d="M0.0 0.0V-803.0H30.0V0.0ZM215.0 -220.0V-886.0H245.0V-220.0ZM-209.0 -221.0V-822.0H234.0V-792.0H-180.0V-221.0Z"/></g>
<g fill="black" opacity=".8" transform="translate(100 600) scale(0.1 -0.1)"><path d="M0.0 0.0V-805.0H32.0V0.0ZM215.0 -222.0V-889.0H239.0V-222.0ZM-201.0 -224.0V-822.0H225.0V-791.0H-175.0V-224.0Z"/></g>
<g fill="red" transform="translate(200 600) scale(0.1 -0.1)"><path d="M0.0 0.0V-810.0H138.0V0.0ZM184.0 -210.0V-930.0H322.0V-210.0ZM-179.0 -218.0V-875.0H247.0V-741.0H-45.0V-218.0Z"/></g>
<g fill="black" opacity=".8" transform="translate(200 600) scale(0.1 -0.1)"><path d="M0.0 0.0V-806.0H137.0V0.0ZM192.0 -211.0V-932.0H324.0V-211.0ZM-182.0 -216.0V-876.0H255.0V-733.0H-56.0V-216.0Z"/></g>
<g fill="red" transform="translate(300 600) scale(0.1 -0.1)"><path d="M0.0 0.0V-803.0H30.0V0.0ZM230.0 -220.0V-886.0H259.0V-220.0ZM-227.0 -221.0V-822.0H244.0V-792.0H-197.0V-221.0Z"/></g>
<g fill="black" opacity=".8" transform="translate(300 600) scale(0.1 -0.1)"><path d="M0.0 0.0V-801.0H34.0V0.0ZM230.0 -224.0V-890.0H258.0V-224.0ZM-216.0 -228.0V-824.0H233.0V-792.0H-191.0V-228.0Z"/></g>
<g fill="red" transform="translate(400 600) scale(0.1 -0.1)"><path d="M0.0 0.0V-810.0H147.0V0.0ZM205.0 -219.0V-939.0H347.0V-219.0ZM-197.0 -227.0V-884.0H253.0V-750.0H-57.0V-227.0Z"/></g>
<g fill="black" opacity=".8" transform="translate(400 600) scale(0.1 -0.1)"><path d="M0.0 0.0V-810.0H145.0V0.0ZM209.0 -217.0V-940.0H348.0V-217.0ZM-201.0 -223.0V-885.0H264.0V-740.0H-71.0V-223.0Z"/></g>
<g fill="red" transform="translate(500 600) scale(0.1 -0.1)"><path d="M0.0 0.0V-803.0H30.0V0.0ZM192.0 -220.0V-886.0H222.0V-220.0ZM-182.0 -221.0V-822.0H213.0V-792.0H-153.0V-221.0Z"/></g>
<g fill="black" opacity=".8" transform="translate(500 600) scale(0.1 -0.1)"><path d="M0.0 0.0V-806.0H30.0V0.0ZM192.0 -222.0V-888.0H213.0V-222.0ZM-178.0 -224.0V-820.0H208.0V-790.0H-152.0V-224.0Z"/></g>
<g fill="red" transform="translate(600 600) scale(0.1 -0.1)"><path d="M0.0 0.0V-810.0H126.0V0.0ZM161.0 -210.0V-930.0H288.0V-210.0ZM-156.0 -218.0V-872.0H233.0V-738.0H-33.0V-218.0Z"/></g>
<g fill="black" opacity=".8" transform="translate(600 600) scale(0.1 -0.1)"><path d="M0.0 0.0V-805.0H127.0V0.0ZM170.0 -212.0V-932.0H291.0V-212.0ZM-157.0 -216.0V-874.0H236.0V-734.0H-38.0V-216.0Z"/></g>
<g fill="red" transform="translate(700 600) scale(0.1 -0.1)"><path d="M0.0 0.0V-322.0H29.0V0.0ZM204.0 76.0V-259.0H233.0V76.0ZM414.0 0.0V-242.0H14.0V-271.0H444.0V0.0Z"/></g>
<g fill="black" opacity=".8" transform="translate(700 600) scale(0.1 -0.1)"><path d="M0.0 0.0V-328.0H28.0V0.0ZM192.0 80.0V-264.0H224.0V80.0ZM410.0 -1.0V-235.0H3.0V-267.0H432.0V-1.0Z"/></g>
<g fill="red" transform="translate(800 600) scale(0.1 -0.1)"><path d="M0.0 0.0V-347.0H121.0V0.0ZM163.0 79.0V-245.0H294.0V79.0ZM337.0 0.0V-180.0H59.0V-301.0H458.0V0.0Z"/></g>
<g fill="black" opacity=".8" transform="translate(800 600) scale(0.1 -0.1)"><path d="M0.0 0.0V-345.0H121.0V0.0ZM179.0 73.0V-245.0H303.0V73.0ZM354.0 -4.0V-185.0H65.0V-292.0H458.0V-4.0Z"/></g>
<g fill="red" transform="translate(900 600) scale(0.1 -0.1)"><path d="M0.0 0.0V-155.0H30.0V0.0ZM97.0 -610.0V-640.0H300.0V-610.0ZM-257.0 -610.0V-892.0H-227.0V-640.0H-67.0V-610.0Z"/></g>
<g fill="black" opacity=".8" transform="translate(900 600) scale(0.1 -0.1)"><path d="M0.0 0.0V-142.0H35.0V0.0ZM113.0 -612.0V-646.0H277.0V-612.0ZM-248.0 -608.0V-900.0H-222.0V-639.0H-56.0V-608.0Z"/></g>
<g fill="red" transform="translate(1000 600) scale(0.1 -0.1)"><path d="M0.0 0.0V-153.0H156.0V0.0ZM175.0 -641.0V-746.0H325.0V-641.0ZM-232.0 -641.0V-948.0H-95.0V-746.0H33.0V-641.0Z"/></g>
<g fill="black" opacity=".8" transform="translate(1000 600) scale(0.1 -0.1)"><path d="M0.0 0.0V-160.0H162.0V0.0ZM165.0 -645.0V-735.0H334.0V-645.0ZM-245.0 -637.0V-953.0H-93.0V-743.0H27.0V-637.0Z"/></g>
<g fill="red" transform="translate(1100 600) scale(0.1 -0.1)"><path d="M0.0 0.0V-379.0H30.0V0.0ZM330.0 -59.0V-452.0H359.0V-59.0ZM-318.0 -58.0V-385.0H349.0V-355.0H-288.0V-58.0Z"/></g>
<g fill="black" opacity=".8" transform="translate(1100 600) scale(0.1 -0.1)"><path d="M0.0 0.0V-379.0H32.0V0.0ZM337.0 -57.0V-446.0H366.0V-57.0ZM-325.0 -60.0V-381.0H340.0V-351.0H-303.0V-60.0Z"/></g>
<g fill="red" transform="translate(1200 600) scale(0.1 -0.1)"><path d="M0.0 0.0V-387.0H144.0V0.0ZM328.0 -45.0V-457.0H470.0V-45.0ZM-326.0 -50.0V-419.0H363.0V-290.0H-185.0V-50.0Z"/></g>
<g fill="black" opacity=".8" transform="translate(1200 600) scale(0.1 -0.1)"><path d="M0.0 0.0V-388.0H150.0V0.0ZM317.0 -47.0V-464.0H467.0V-47.0ZM-312.0 -51.0V-424.0H369.0V-286.0H-176.0V-51.0Z"/></g>
<g fill="red" transform="translate(1300 600) scale(0.1 -0.1)"><path d="M0.0 0.0V-494.0H30.0V0.0ZM315.0 -144.0V-558.0H344.0V-144.0ZM-316.0 -147.0V-504.0H340.0V-474.0H-286.0V-147.0Z"/></g>
<g fill="black" opacity=".8" transform="translate(1300 600) scale(0.1 -0.1)"><path d="M0.0 0.0V-496.0H34.0V0.0ZM325.0 -139.0V-550.0H356.0V-139.0ZM-320.0 -143.0V-501.0H342.0V-473.0H-294.0V-143.0Z"/></g>
<g fill="red" transform="translate(1400 600) scale(0.1 -0.1)"><path d="M0.0 0.0V-498.0H144.0V0.0ZM321.0 -129.0V-571.0H463.0V-129.0ZM-312.0 -130.0V-539.0H377.0V-413.0H-171.0V-130.0Z"/></g>
<g fill="black" opacity=".8" transform="translate(1400 600) scale(0.1 -0.1)"><path d="M0.0 0.0V-494.0H158.0V0.0ZM302.0 -132.0V-578.0H455.0V-132.0ZM-306.0 -135.0V-548.0H375.0V-409.0H-164.0V-135.0Z"/></g>
<g fill="red" transform="translate(1500 600) scale(0.1 -0.1)"><path d="M0.0 0.0V-261.0H30.0V0.0ZM333.0 -35.0V-326.0H362.0V-35.0ZM-335.0 -40.0V-274.0H354.0V-244.0H-306.0V-40.0Z"/></g>
<g fill="black" opacity=".8" transform="translate(1500 600) scale(0.1 -0.1)"><path d="M0.0 0.0V-268.0H30.0V0.0ZM334.0 -39.0V-325.0H363.0V-39.0ZM-327.0 -44.0V-271.0H352.0V-242.0H-300.0V-44.0Z"/></g>
<g fill="red" transform="translate(1600 600) scale(0.1 -0.1)"><path d="M0.0 0.0V-291.0H140.0V0.0ZM318.0 -37.0V-345.0H459.0V-37.0ZM-311.0 -42.0V-314.0H381.0V-193.0H-174.0V-42.0Z"/></g>
<g fill="black" opacity=".8" transform="translate(1600 600) scale(0.1 -0.1)"><path d="M0.0 0.0V-282.0H141.0V0.0ZM320.0 -35.0V-351.0H458.0V-35.0ZM-316.0 -39.0V-318.0H383.0V-189.0H-183.0V-39.0Z"/></g>
<g fill="red" transform="translate(100 700) scale(0.1 -0.1)"><path d="M0.0 0.0V-352.0H29.0V0.0ZM35.0 -374.0V-643.0H65.0V-374.0ZM-632.0 -376.0V-595.0H54.0V-566.0H-603.0V-376.0Z"/></g>
<g fill="black" opacity=".8" transform="translate(100 700) scale(0.1 -0.1)"><path d="M0.0 0.0V-357.0H27.0V0.0ZM21.0 -371.0V-645.0H71.0V-371.0ZM-633.0 -378.0V-594.0H44.0V-562.0H-612.0V-378.0Z"/></g>
<g fill="red" transform="translate(200 700) scale(0.1 -0.1)"><path d="M0.0 0.0V-338.0H133.0V0.0ZM-1.0 -360.0V-662.0H140.0V-360.0ZM-630.0 -365.0V-626.0H58.0V-500.0H-493.0V-365.0Z"/></g>
<g fill="black" opacity=".8" transform="translate(200 700) scale(0.1 -0.1)"><path d="M0.0 0.0V-335.0H131.0V0.0ZM10.0 -363.0V-667.0H142.0V-363.0ZM-618.0 -370.0V-626.0H64.0V-493.0H-495.0V-370.0Z"/></g>
<g fill="red" transform="translate(300 700) scale(0.1 -0.1)"><path d="M0.0 0.0V-235.0H29.0V0.0ZM343.0 -45.0V-292.0H372.0V-45.0ZM-325.0 -42.0V-236.0H366.0V-205.0H-295.0V-42.0Z"/></g>
<g fill="black" opacity=".8" transform="translate(300 700) scale(0.1 -0.1)"><path d="M0.0 0.0V-228.0H30.0V0.0ZM341.0 -54.0V-288.0H374.0V-54.0ZM-323.0 -50.0V-235.0H374.0V-211.0H-292.0V-50.0Z"/></g>
<g fill="red" transform="translate(400 700) scale(0.1 -0.1)"><path d="M0.0 0.0V-210.0H148.0V0.0ZM326.0 -50.0V-292.0H468.0V-50.0ZM-304.0 -46.0V-255.0H418.0V-146.0H-165.0V-46.0Z"/></g>
<g fill="black" opacity=".8" transform="translate(400 700) scale(0.1 -0.1)"><path d="M0.0 0.0V-215.0H148.0V0.0ZM323.0 -43.0V-295.0H470.0V-43.0ZM-308.0 -39.0V-258.0H411.0V-140.0H-164.0V-39.0Z"/></g>
<g fill="red" transform="translate(500 700) scale(0.1 -0.1)"><path d="M0.0 0.0V-190.0H29.0V0.0ZM343.0 -41.0V-257.0H373.0V-41.0ZM-328.0 -39.0V-205.0H363.0V-174.0H-298.0V-39.0Z"/></g>
<g fill="black" opacity=".8" transform="translate(500 700) scale(0.1 -0.1)"><path d="M0.0 0.0V-200.0H30.0V0.0ZM336.0 -38.0V-251.0H375.0V-38.0ZM-325.0 -35.0V-207.0H371.0V-178.0H-288.0V-35.0Z"/></g>
<g fill="red" transform="translate(600 700) scale(0.1 -0.1)"><path d="M0.0 0.0V-231.0H148.0V0.0ZM326.0 -34.0V-278.0H468.0V-34.0ZM-308.0 -29.0V-259.0H421.0V-142.0H-169.0V-29.0Z"/></g>
<g fill="black" opacity=".8" transform="translate(600 700) scale(0.1 -0.1)"><path d="M0.0 0.0V-218.0H144.0V0.0ZM331.0 -38.0V-287.0H470.0V-38.0ZM-316.0 -33.0V-257.0H412.0V-138.0H-176.0V-33.0Z"/></g>
<g fill="red" transform="translate(700 700) scale(0.1 -0.1)"><path d="M0.0 0.0V-717.0H28.0V0.0ZM106.0 -160.0V-760.0H136.0V-160.0ZM249.0 -172.0V-446.0H279.0V-201.0H710.0V-172.0Z"/></g>
<g fill="black" opacity=".8" transform="translate(700 700) scale(0.1 -0.1)"><path d="M0.0 0.0V-714.0H31.0V0.0ZM106.0 -161.0V-761.0H136.0V-161.0ZM252.0 -174.0V-445.0H279.0V-201.0H708.0V-174.0Z"/></g>
<g fill="red" transform="translate(800 700) scale(0.1 -0.1)"><path d="M0.0 0.0V-748.0H90.0V0.0ZM112.0 -150.0V-852.0H195.0V-150.0ZM261.0 -175.0V-458.0H376.0V-250.0H770.0V-175.0Z"/></g>
<g fill="black" opacity=".8" transform="translate(800 700) scale(0.1 -0.1)"><path d="M0.0 0.0V-750.0H95.0V0.0ZM109.0 -150.0V-852.0H197.0V-150.0ZM264.0 -174.0V-464.0H377.0V-243.0H768.0V-174.0Z"/></g>
<g fill="red" transform="translate(900 700) scale(0.1 -0.1)"><path d="M0.0 0.0V-803.0H30.0V0.0ZM222.0 -220.0V-886.0H251.0V-220.0ZM-215.0 -221.0V-822.0H232.0V-792.0H-185.0V-221.0Z"/></g>
<g fill="black" opacity=".8" transform="translate(900 700) scale(0.1 -0.1)"><path d="M0.0 0.0V-804.0H33.0V0.0ZM222.0 -221.0V-890.0H246.0V-221.0ZM-206.0 -224.0V-823.0H222.0V-790.0H-183.0V-224.0Z"/></g>
<g fill="red" transform="translate(1000 700) scale(0.1 -0.1)"><path d="M0.0 0.0V-810.0H137.0V0.0ZM191.0 -210.0V-930.0H329.0V-210.0ZM-187.0 -218.0V-875.0H239.0V-741.0H-52.0V-218.0Z"/></g>
<g fill="black" opacity=".8" transform="translate(1000 700) scale(0.1 -0.1)"><path d="M0.0 0.0V-807.0H138.0V0.0ZM197.0 -212.0V-931.0H331.0V-212.0ZM-188.0 -217.0V-878.0H249.0V-732.0H-63.0V-217.0Z"/></g>
<g fill="red" transform="translate(1100 700) scale(0.1 -0.1)"><path d="M0.0 0.0V-291.0H29.0V0.0ZM261.0 -45.0V-362.0H290.0V-45.0ZM-254.0 -48.0V-302.0H271.0V-272.0H-224.0V-48.0Z"/></g>
<g fill="black" opacity=".8" transform="translate(1100 700) scale(0.1 -0.1)"><path d="M0.0 0.0V-289.0H27.0V0.0ZM265.0 -45.0V-365.0H291.0V-45.0ZM-258.0 -43.0V-304.0H269.0V-269.0H-223.0V-43.0Z"/></g>
<g fill="red" transform="translate(1200 700) scale(0.1 -0.1)"><path d="M0.0 0.0V-257.0H135.0V0.0ZM248.0 -17.0V-350.0H377.0V-17.0ZM-234.0 -19.0V-309.0H298.0V-178.0H-106.0V-19.0Z"/></g>
<g fill="black" opacity=".8" transform="translate(1200 700) scale(0.1 -0.1)"><path d="M0.0 0.0V-258.0H126.0V0.0ZM245.0 -20.0V-347.0H377.0V-20.0ZM-238.0 -21.0V-303.0H300.0V-185.0H-101.0V-21.0Z"/></g>
<g fill="red" transform="translate(1300 700) scale(0.1 -0.1)"><path d="M0.0 0.0V-494.0H29.0V0.0ZM126.0 -501.0V-712.0H155.0V-501.0ZM320.0 -550.0V-692.0H-45.0V-721.0H350.0V-550.0Z"/></g>
<g fill="black" opacity=".8" transform="translate(1300 700) scale(0.1 -0.1)"><path d="M0.0 0.0V-493.0H29.0V0.0ZM118.0 -507.0V-704.0H180.0V-507.0ZM323.0 -557.0V-696.0H-32.0V-721.0H354.0V-557.0Z"/></g>
<g fill="red" transform="translate(1400 700) scale(0.1 -0.1)"><path d="M0.0 0.0V-549.0H138.0V0.0ZM97.0 -594.0V-770.0H213.0V-594.0ZM263.0 -625.0V-721.0H27.0V-824.0H372.0V-625.0Z"/></g>
<g fill="black" opacity=".8" transform="translate(1400 700) scale(0.1 -0.1)"><path d="M0.0 0.0V-546.0H136.0V0.0ZM84.0 -582.0V-778.0H208.0V-582.0ZM257.0 -623.0V-719.0H16.0V-823.0H369.0V-623.0Z"/></g>
<g fill="red" transform="translate(1500 700) scale(0.1 -0.1)"><path d="M0.0 0.0V-803.0H30.0V0.0ZM220.0 -220.0V-886.0H250.0V-220.0ZM-220.0 -221.0V-822.0H237.0V-792.0H-190.0V-221.0Z"/></g>
<g fill="black" opacity=".8" transform="translate(1500 700) scale(0.1 -0.1)"><path d="M0.0 0.0V-806.0H32.0V0.0ZM218.0 -222.0V-890.0H241.0V-222.0ZM-206.0 -225.0V-823.0H228.0V-792.0H-182.0V-225.0Z"/></g>
<g fill="red" transform="translate(1600 700) scale(0.1 -0.1)"><path d="M0.0 0.0V-810.0H137.0V0.0ZM184.0 -210.0V-930.0H322.0V-210.0ZM-179.0 -218.0V-875.0H247.0V-741.0H-45.0V-218.0Z"/></g>
<g fill="black" opacity=".8" transform="translate(1600 700) scale(0.1 -0.1)"><path d="M0.0 0.0V-805.0H137.0V0.0ZM194.0 -211.0V-932.0H326.0V-211.0ZM-186.0 -216.0V-877.0H256.0V-731.0H-61.0V-216.0Z"/></g>
<g fill="red" transform="translate(100 800) scale(0.1 -0.1)"><path d="M0.0 0.0V-706.0H29.0V0.0ZM118.0 -155.0V-755.0H147.0V-155.0ZM-119.0 -157.0V-724.0H139.0V-694.0H-89.0V-157.0Z"/></g>
<g fill="black" opacity=".8" transform="translate(100 800) scale(0.1 -0.1)"><path d="M0.0 0.0V-704.0H28.0V0.0ZM117.0 -153.0V-758.0H158.0V-153.0ZM-129.0 -152.0V-722.0H142.0V-693.0H-90.0V-152.0Z"/></g>
<g fill="red" transform="translate(200 800) scale(0.1 -0.1)"><path d="M0.0 0.0V-743.0H118.0V0.0ZM142.0 -150.0V-852.0H235.0V-150.0ZM-119.0 -148.0V-806.0H196.0V-682.0H-23.0V-148.0Z"/></g>
<g fill="black" opacity=".8" transform="translate(200 800) scale(0.1 -0.1)"><path d="M0.0 0.0V-744.0H111.0V0.0ZM135.0 -152.0V-848.0H233.0V-152.0ZM-118.0 -151.0V-803.0H193.0V-690.0H-15.0V-151.0Z"/></g>
<g fill="red" transform="translate(300 800) scale(0.1 -0.1)"><path d="M0.0 0.0V-711.0H30.0V0.0ZM113.0 -157.0V-757.0H142.0V-157.0ZM-115.0 -159.0V-726.0H127.0V-696.0H-85.0V-159.0Z"/></g>
<g fill="black" opacity=".8" transform="translate(300 800) scale(0.1 -0.1)"><path d="M0.0 0.0V-708.0H26.0V0.0ZM112.0 -155.0V-762.0H147.0V-155.0ZM-123.0 -154.0V-724.0H130.0V-693.0H-88.0V-154.0Z"/></g>
<g fill="red" transform="translate(400 800) scale(0.1 -0.1)"><path d="M0.0 0.0V-743.0H109.0V0.0ZM130.0 -150.0V-852.0H217.0V-150.0ZM-112.0 -148.0V-802.0H176.0V-678.0H-22.0V-148.0Z"/></g>
<g fill="black" opacity=".8" transform="translate(400 800) scale(0.1 -0.1)"><path d="M0.0 0.0V-745.0H104.0V0.0ZM125.0 -153.0V-845.0H218.0V-153.0ZM-111.0 -152.0V-801.0H174.0V-685.0H-13.0V-152.0Z"/></g>
<g fill="red" transform="translate(500 800) scale(0.1 -0.1)"><path d="M0.0 0.0V-711.0H30.0V0.0ZM113.0 -157.0V-757.0H142.0V-157.0ZM-115.0 -159.0V-726.0H127.0V-696.0H-85.0V-159.0Z"/></g>
<g fill="black" opacity=".8" transform="translate(500 800) scale(0.1 -0.1)"><path d="M0.0 0.0V-708.0H25.0V0.0ZM111.0 -156.0V-765.0H141.0V-156.0ZM-121.0 -154.0V-725.0H125.0V-691.0H-89.0V-154.0Z"/></g>
<g fill="red" transform="translate(600 800) scale(0.1 -0.1)"><path d="M0.0 0.0V-743.0H101.0V0.0ZM123.0 -150.0V-852.0H202.0V-150.0ZM-112.0 -148.0V-802.0H158.0V-678.0H-22.0V-148.0Z"/></g>
<g fill="black" opacity=".8" transform="translate(600 800) scale(0.1 -0.1)"><path d="M0.0 0.0V-746.0H97.0V0.0ZM120.0 -154.0V-844.0H207.0V-154.0ZM-108.0 -153.0V-803.0H161.0V-682.0H-17.0V-153.0Z"/></g>
<g fill="red" transform="translate(700 800) scale(0.1 -0.1)"><path d="M0.0 0.0V-711.0H30.0V0.0ZM125.0 -157.0V-801.0H154.0V-157.0ZM-127.0 -159.0V-725.0H137.0V-696.0H-98.0V-159.0Z"/></g>
<g fill="black" opacity=".8" transform="translate(700 800) scale(0.1 -0.1)"><path d="M0.0 0.0V-711.0H27.0V0.0ZM127.0 -156.0V-793.0H156.0V-156.0ZM-129.0 -154.0V-729.0H139.0V-699.0H-100.0V-154.0Z"/></g>
<g fill="red" transform="translate(800 800) scale(0.1 -0.1)"><path d="M0.0 0.0V-743.0H109.0V0.0ZM132.0 -150.0V-852.0H224.0V-150.0ZM-112.0 -148.0V-802.0H176.0V-678.0H-22.0V-148.0Z"/></g>
<g fill="black" opacity=".8" transform="translate(800 800) scale(0.1 -0.1)"><path d="M0.0 0.0V-742.0H104.0V0.0ZM128.0 -152.0V-859.0H226.0V-152.0ZM-115.0 -152.0V-797.0H173.0V-676.0H-16.0V-152.0Z"/></g>
<g fill="red" transform="translate(900 800) scale(0.1 -0.1)"><path d="M0.0 0.0V-468.0H30.0V0.0ZM425.0 -540.0V-725.0H454.0V-540.0ZM-81.0 -546.0V-690.0H441.0V-661.0H-52.0V-546.0Z"/></g>
<g fill="black" opacity=".8" transform="translate(900 800) scale(0.1 -0.1)"><path d="M0.0 0.0V-470.0H28.0V0.0ZM423.0 -543.0V-728.0H448.0V-543.0ZM-87.0 -545.0V-686.0H441.0V-658.0H-54.0V-545.0Z"/></g>
<g fill="red" transform="translate(1000 800) scale(0.1 -0.1)"><path d="M0.0 0.0V-524.0H144.0V0.0ZM347.0 -618.0V-825.0H478.0V-618.0ZM-90.0 -614.0V-793.0H446.0V-686.0H41.0V-614.0Z"/></g>
<g fill="black" opacity=".8" transform="translate(1000 800) scale(0.1 -0.1)"><path d="M0.0 0.0V-521.0H141.0V0.0ZM356.0 -618.0V-824.0H481.0V-618.0ZM-86.0 -615.0V-792.0H444.0V-690.0H44.0V-615.0Z"/></g>
<g fill="red" transform="translate(1100 800) scale(0.1 -0.1)"><path d="M0.0 0.0V-711.0H29.0V0.0ZM118.0 -157.0V-766.0H147.0V-157.0ZM-120.0 -159.0V-726.0H122.0V-696.0H-90.0V-159.0Z"/></g>
<g fill="black" opacity=".8" transform="translate(1100 800) scale(0.1 -0.1)"><path d="M0.0 0.0V-708.0H28.0V0.0ZM117.0 -155.0V-766.0H156.0V-155.0ZM-130.0 -154.0V-726.0H133.0V-695.0H-92.0V-154.0Z"/></g>
<g fill="red" transform="translate(1200 800) scale(0.1 -0.1)"><path d="M0.0 0.0V-743.0H113.0V0.0ZM139.0 -150.0V-852.0H233.0V-150.0ZM-118.0 -148.0V-802.0H191.0V-678.0H-25.0V-148.0Z"/></g>
<g fill="black" opacity=".8" transform="translate(1200 800) scale(0.1 -0.1)"><path d="M0.0 0.0V-744.0H111.0V0.0ZM131.0 -152.0V-848.0H231.0V-152.0ZM-119.0 -151.0V-800.0H181.0V-686.0H-14.0V-151.0Z"/></g>
<g fill="red" transform="translate(1300 800) scale(0.1 -0.1)"><path d="M0.0 0.0V-711.0H30.0V0.0ZM118.0 -157.0V-783.0H147.0V-157.0ZM-119.0 -159.0V-726.0H122.0V-696.0H-90.0V-159.0Z"/></g>
<g fill="black" opacity=".8" transform="translate(1300 800) scale(0.1 -0.1)"><path d="M0.0 0.0V-709.0H27.0V0.0ZM120.0 -156.0V-779.0H153.0V-156.0ZM-126.0 -154.0V-728.0H129.0V-696.0H-92.0V-154.0Z"/></g>
<g fill="red" transform="translate(1400 800) scale(0.1 -0.1)"><path d="M0.0 0.0V-743.0H109.0V0.0ZM135.0 -150.0V-852.0H226.0V-150.0ZM-112.0 -148.0V-802.0H176.0V-678.0H-22.0V-148.0Z"/></g>
<g fill="black" opacity=".8" transform="translate(1400 800) scale(0.1 -0.1)"><path d="M0.0 0.0V-743.0H107.0V0.0ZM127.0 -152.0V-853.0H225.0V-152.0ZM-114.0 -151.0V-799.0H169.0V-682.0H-13.0V-151.0Z"/></g>
<g fill="red" transform="translate(1500 800) scale(0.1 -0.1)"><path d="M0.0 0.0V-600.0H29.0V0.0ZM97.0 126.0V-729.0H126.0V126.0ZM-227.0 -2.0V-569.0H14.0V-539.0H-198.0V-2.0Z"/></g>
<g fill="black" opacity=".8" transform="translate(1500 800) scale(0.1 -0.1)"><path d="M0.0 0.0V-594.0H30.0V0.0ZM109.0 125.0V-726.0H113.0V125.0ZM-233.0 1.0V-568.0H21.0V-540.0H-203.0V1.0Z"/></g>
<g fill="red" transform="translate(1600 800) scale(0.1 -0.1)"><path d="M0.0 0.0V-702.0H87.0V0.0ZM110.0 129.0V-785.0H229.0V129.0ZM-242.0 2.0V-652.0H46.0V-528.0H-152.0V2.0Z"/></g>
<g fill="black" opacity=".8" transform="translate(1600 800) scale(0.1 -0.1)"><path d="M0.0 0.0V-705.0H100.0V0.0ZM116.0 125.0V-785.0H222.0V125.0ZM-245.0 4.0V-653.0H37.0V-532.0H-138.0V4.0Z"/></g>
<g fill="red" transform="translate(100 900) scale(0.1 -0.1)"><path d="M0.0 0.0V-711.0H30.0V0.0ZM113.0 -157.0V-757.0H142.0V-157.0ZM-114.0 -159.0V-726.0H127.0V-696.0H-85.0V-159.0Z"/></g>
<g fill="black" opacity=".8" transform="translate(100 900) scale(0.1 -0.1)"><path d="M0.0 0.0V-708.0H26.0V0.0ZM112.0 -155.0V-762.0H147.0V-155.0ZM-123.0 -153.0V-724.0H130.0V-693.0H-88.0V-153.0Z"/></g>
<g fill="red" transform="translate(200 900) scale(0.1 -0.1)"><path d="M0.0 0.0V-743.0H109.0V0.0ZM130.0 -150.0V-852.0H217.0V-150.0ZM-112.0 -148.0V-802.0H176.0V-678.0H-22.0V-148.0Z"/></g>
<g fill="black" opacity=".8" transform="translate(200 900) scale(0.1 -0.1)"><path d="M0.0 0.0V-745.0H104.0V0.0ZM125.0 -153.0V-845.0H218.0V-153.0ZM-111.0 -152.0V-801.0H174.0V-686.0H-13.0V-152.0Z"/></g>
<g fill="red" transform="translate(300 900) scale(0.1 -0.1)"><path d="M0.0 0.0V-605.0H31.0V0.0ZM241.0 -286.0V-674.0H271.0V-286.0ZM-237.0 -279.0V-619.0H265.0V-589.0H-207.0V-279.0Z"/></g>
<g fill="black" opacity=".8" transform="translate(300 900) scale(0.1 -0.1)"><path d="M0.0 0.0V-599.0H31.0V0.0ZM253.0 -275.0V-677.0H278.0V-275.0ZM-248.0 -264.0V-621.0H280.0V-589.0H-203.0V-264.0Z"/></g>
<g fill="red" transform="translate(400 900) scale(0.1 -0.1)"><path d="M0.0 0.0V-513.0H146.0V0.0ZM222.0 -232.0V-660.0H369.0V-232.0ZM-212.0 -233.0V-600.0H322.0V-466.0H-69.0V-233.0Z"/></g>
<g fill="black" opacity=".8" transform="translate(400 900) scale(0.1 -0.1)"><path d="M0.0 0.0V-515.0H154.0V0.0ZM205.0 -245.0V-648.0H359.0V-245.0ZM-222.0 -239.0V-600.0H312.0V-477.0H-55.0V-239.0Z"/></g>
<g fill="red" transform="translate(500 900) scale(0.1 -0.1)"><path d="M0.0 0.0V-150.0H29.0V0.0ZM119.0 -643.0V-672.0H297.0V-643.0ZM-214.0 -265.0V-595.0H322.0V-565.0H-185.0V-265.0Z"/></g>
<g fill="black" opacity=".8" transform="translate(500 900) scale(0.1 -0.1)"><path d="M0.0 0.0V-157.0H30.0V0.0ZM118.0 -645.0V-665.0H289.0V-645.0ZM-215.0 -269.0V-591.0H311.0V-561.0H-203.0V-269.0Z"/></g>
<g fill="red" transform="translate(600 900) scale(0.1 -0.1)"><path d="M0.0 0.0V-153.0H139.0V0.0ZM138.0 -661.0V-764.0H319.0V-661.0ZM-190.0 -301.0V-640.0H391.0V-555.0H-62.0V-301.0Z"/></g>
<g fill="black" opacity=".8" transform="translate(600 900) scale(0.1 -0.1)"><path d="M0.0 0.0V-148.0H148.0V0.0ZM158.0 -662.0V-777.0H314.0V-662.0ZM-176.0 -301.0V-641.0H394.0V-548.0H-55.0V-301.0Z"/></g>
<g fill="red" transform="translate(700 900) scale(0.1 -0.1)"><path d="M0.0 0.0V-803.0H31.0V0.0ZM160.0 -215.0V-885.0H190.0V-215.0ZM-167.0 -216.0V-817.0H177.0V-787.0H-138.0V-216.0Z"/></g>
<g fill="black" opacity=".8" transform="translate(700 900) scale(0.1 -0.1)"><path d="M0.0 0.0V-802.0H32.0V0.0ZM162.0 -218.0V-876.0H200.0V-218.0ZM-177.0 -216.0V-818.0H189.0V-788.0H-138.0V-216.0Z"/></g>
<g fill="red" transform="translate(800 900) scale(0.1 -0.1)"><path d="M0.0 0.0V-810.0H130.0V0.0ZM163.0 -210.0V-930.0H292.0V-210.0ZM-164.0 -208.0V-879.0H249.0V-745.0H-36.0V-208.0Z"/></g>
<g fill="black" opacity=".8" transform="translate(800 900) scale(0.1 -0.1)"><path d="M0.0 0.0V-809.0H137.0V0.0ZM158.0 -207.0V-938.0H286.0V-207.0ZM-161.0 -207.0V-876.0H236.0V-748.0H-30.0V-207.0Z"/></g>
<g fill="red" transform="translate(900 900) scale(0.1 -0.1)"><path d="M0.0 0.0V-291.0H29.0V0.0ZM172.0 -45.0V-362.0H202.0V-45.0ZM-177.0 -48.0V-302.0H188.0V-272.0H-147.0V-48.0Z"/></g>
<g fill="black" opacity=".8" transform="translate(900 900) scale(0.1 -0.1)"><path d="M0.0 0.0V-292.0H24.0V0.0ZM173.0 -50.0V-362.0H206.0V-50.0ZM-189.0 -44.0V-306.0H193.0V-273.0H-136.0V-44.0Z"/></g>
<g fill="red" transform="translate(1000 900) scale(0.1 -0.1)"><path d="M0.0 0.0V-257.0H127.0V0.0ZM159.0 -22.0V-351.0H288.0V-22.0ZM-162.0 -21.0V-311.0H245.0V-187.0H-34.0V-21.0Z"/></g>
<g fill="black" opacity=".8" transform="translate(1000 900) scale(0.1 -0.1)"><path d="M0.0 0.0V-255.0H112.0V0.0ZM168.0 -22.0V-352.0H283.0V-22.0ZM-169.0 -19.0V-294.0H239.0V-202.0H-31.0V-19.0Z"/></g>
<g fill="red" transform="translate(1100 900) scale(0.1 -0.1)"><path d="M0.0 0.0V-455.0H31.0V0.0ZM434.0 63.0V-166.0H464.0V63.0ZM-148.0 17.0V-477.0H-118.0V-12.0H163.0V17.0Z"/></g>
<g fill="black" opacity=".8" transform="translate(1100 900) scale(0.1 -0.1)"><path d="M0.0 0.0V-459.0H31.0V0.0ZM427.0 60.0V-156.0H471.0V60.0ZM-150.0 16.0V-478.0H-113.0V-12.0H157.0V16.0Z"/></g>
<g fill="red" transform="translate(1200 900) scale(0.1 -0.1)"><path d="M0.0 0.0V-450.0H100.0V0.0ZM418.0 104.0V-108.0H548.0V104.0ZM-157.0 69.0V-500.0H-52.0V-47.0H206.0V69.0Z"/></g>
<g fill="black" opacity=".8" transform="translate(1200 900) scale(0.1 -0.1)"><path d="M0.0 0.0V-446.0H99.0V0.0ZM422.0 108.0V-120.0H548.0V108.0ZM-152.0 66.0V-497.0H-60.0V-43.0H210.0V66.0Z"/></g>
<g fill="red" transform="translate(1300 900) scale(0.1 -0.1)"><path d="M0.0 0.0V-455.0H31.0V0.0ZM424.0 63.0V-104.0H453.0V63.0ZM-146.0 17.0V-477.0H-116.0V-12.0H158.0V17.0Z"/></g>
<g fill="black" opacity=".8" transform="translate(1300 900) scale(0.1 -0.1)"><path d="M0.0 0.0V-460.0H29.0V0.0ZM416.0 65.0V-109.0H464.0V65.0ZM-150.0 16.0V-473.0H-115.0V-7.0H158.0V16.0Z"/></g>
<g fill="red" transform="translate(1400 900) scale(0.1 -0.1)"><path d="M0.0 0.0V-450.0H99.0V0.0ZM421.0 115.0V-88.0H539.0V115.0ZM-155.0 69.0V-500.0H-52.0V-47.0H203.0V69.0Z"/></g>
<g fill="black" opacity=".8" transform="translate(1400 900) scale(0.1 -0.1)"><path d="M0.0 0.0V-446.0H96.0V0.0ZM422.0 113.0V-86.0H538.0V113.0ZM-151.0 68.0V-501.0H-53.0V-50.0H202.0V68.0Z"/></g>
</svg>
