<?xml version="1.0" encoding="UTF-8"?>
<svg width="1700" height="1800" xmlns="http://www.w3.org/2000/svg">
<rect width="100%" height="100%" fill="white"/>
<g fill="green" transform="translate(100 100) scale(0.1 -0.1)"><path d="M-0.0 -0.0V-31.0H6.0V-0.0ZM-574.0 -421.0V-210.0H-415.0V-421.0ZM-357.0 -475.0V-685.0H-735.0V-195.0H31.0V-475.0Z"/></g>
<g fill="green" transform="translate(200 100) scale(0.1 -0.1)"><path d="M0.0 0.0V33.0H1.0V0.0ZM-450.0 -347.0V-313.0H-471.0V-347.0ZM-321.0 -438.0V-687.0H-599.0V-311.0H22.0V-438.0Z"/></g>
<g fill="green" transform="translate(300 100) scale(0.1 -0.1)"><path d="M0.0 0.0V-594.0H31.0V0.0ZM-429.0 -591.0V-843.0H-241.0V-591.0ZM-486.0 -641.0V-1291.0H-601.0V-766.0H-64.0V-641.0Z"/></g>
<g fill="green" transform="translate(400 100) scale(0.1 -0.1)"><path d="M0.0 0.0V-547.0H105.0V0.0ZM-299.0 -514.0V-1007.0H-227.0V-514.0ZM-444.0 -599.0V-1351.0H-423.0V-865.0H-2.0V-599.0Z"/></g>
<g fill="green" transform="translate(500 100) scale(0.1 -0.1)"><path d="M0.0 0.0V224.0H24.0V-0.0ZM-132.0 -585.0V-135.0H58.0V-585.0ZM-847.0 -606.0V-640.0H-400.0V-87.0H-441.0V-606.0Z"/></g>
<g fill="green" transform="translate(600 100) scale(0.1 -0.1)"><path d="M0.0 0.0V353.0H118.0V0.0ZM-66.0 -525.0V-159.0H54.0V-525.0ZM-778.0 -573.0V-622.0H-271.0V-121.0H-310.0V-573.0Z"/></g>
<g fill="green" transform="translate(700 100) scale(0.1 -0.1)"><path d="M0.0 0.0V-544.0H16.0V0.0ZM-453.0 181.0V-237.0H-376.0V181.0ZM-471.0 122.0V-526.0H-426.0V-105.0H-134.0V122.0Z"/></g>
<g fill="green" transform="translate(800 100) scale(0.1 -0.1)"><path d="M0.0 0.0V-471.0H21.0V0.0ZM-332.0 340.0V-300.0H-333.0V340.0ZM-424.0 235.0V-530.0H-312.0V-79.0H-98.0V235.0Z"/></g>
<g fill="green" transform="translate(900 100) scale(0.1 -0.1)"><path d="M-0.0 0.0V-195.0H24.0V-0.0ZM-11.0 -482.0V-103.0H155.0V-482.0ZM185.0 -537.0V-679.0H-635.0V82.0H883.0V-537.0Z"/></g>
<g fill="green" transform="translate(1000 100) scale(0.1 -0.1)"><path d="M0.0 0.0V-141.0H63.0V0.0ZM69.0 -456.0V-148.0H135.0V-456.0ZM184.0 -514.0V-644.0H-444.0V-140.0H860.0V-514.0Z"/></g>
<g fill="green" transform="translate(1100 100) scale(0.1 -0.1)"><path d="M0.0 -0.0V-16.0H-5.0V0.0ZM-651.0 -561.0V-414.0H-572.0V-561.0ZM-159.0 -546.0V-347.0H-84.0V-274.0H12.0V-546.0Z"/></g>
<g fill="green" transform="translate(1200 100) scale(0.1 -0.1)"><path d="M0.0 0.0V43.0H-13.0V0.0ZM-611.0 -534.0V-559.0H-678.0V-534.0ZM-115.0 -576.0V-343.0H-38.0V-298.0H47.0V-576.0Z"/></g>
<g fill="green" transform="translate(1300 100) scale(0.1 -0.1)"><path d="M-0.0 0.0V-116.0H-19.0V0.0ZM-448.0 -644.0V-153.0H-359.0V-644.0ZM-155.0 -262.0V-516.0H-812.0V-351.0H-135.0V-262.0Z"/></g>
<g fill="green" transform="translate(1400 100) scale(0.1 -0.1)"><path d="M0.0 0.0V-106.0H-119.0V0.0ZM-324.0 -665.0V-213.0H-441.0V-665.0ZM-147.0 -238.0V-562.0H-775.0V-450.0H-240.0V-238.0Z"/></g>
<g fill="green" transform="translate(1500 100) scale(0.1 -0.1)"><path d="M0.0 -0.0V91.0H11.0V0.0ZM-528.0 -204.0V-39.0H-382.0V-204.0ZM-177.0 -533.0V-744.0H-648.0V-478.0H-46.0V-533.0Z"/></g>
<g fill="green" transform="translate(1600 100) scale(0.1 -0.1)"><path d="M0.0 0.0V156.0H58.0V0.0ZM-432.0 -140.0V-137.0H-428.0V-140.0ZM-170.0 -520.0V-746.0H-512.0V-593.0H-55.0V-520.0Z"/></g>
<g fill="green" transform="translate(100 200) scale(0.1 -0.1)"><path d="M-0.0 0.0V170.0H11.0V0.0ZM-593.0 -388.0V-391.0H-380.0V-388.0ZM-323.0 -336.0V-669.0H-810.0V-232.0H44.0V-336.0Z"/></g>
<g fill="green" transform="translate(200 200) scale(0.1 -0.1)"><path d="M0.0 0.0V220.0H27.0V0.0ZM-401.0 -315.0V-516.0H-387.0V-315.0ZM-278.0 -291.0V-659.0H-610.0V-346.0H58.0V-291.0Z"/></g>
<g fill="green" transform="translate(300 200) scale(0.1 -0.1)"><path d="M0.0 0.0V-60.0H9.0V-0.0ZM-537.0 -368.0V-304.0H-405.0V-368.0ZM-343.0 -550.0V-617.0H-786.0V-222.0H16.0V-550.0Z"/></g>
<g fill="green" transform="translate(400 200) scale(0.1 -0.1)"><path d="M0.0 0.0H33.0ZM-466.0 -303.0V-321.0H-425.0V-303.0ZM-343.0 -521.0V-554.0H-680.0V-317.0H6.0V-521.0Z"/></g>
<g fill="green" transform="translate(500 200) scale(0.1 -0.1)"><path d="M-0.0 -0.0V44.0V0.0ZM-555.0 -365.0V-169.0H-417.0V-365.0ZM-336.0 -478.0V-616.0H-728.0V-112.0H45.0V-478.0Z"/></g>
<g fill="green" transform="translate(600 200) scale(0.1 -0.1)"><path d="M0.0 0.0V-42.0H-35.0V0.0ZM-411.0 -345.0V-397.0H-480.0V-345.0ZM-323.0 -492.0V-748.0H-615.0V-344.0H-38.0V-492.0Z"/></g>
<g fill="green" transform="translate(700 200) scale(0.1 -0.1)"><path d="M0.0 -0.0V-28.0H-7.0V0.0ZM-515.0 -411.0V-260.0H-400.0V-411.0ZM-352.0 -485.0V-717.0H-699.0V-192.0H24.0V-485.0Z"/></g>
<g fill="green" transform="translate(800 200) scale(0.1 -0.1)"><path d="M0.0 0.0V58.0H-72.0V0.0ZM-451.0 -325.0V-301.0H-518.0V-325.0ZM-292.0 -443.0V-706.0H-636.0V-273.0H6.0V-443.0Z"/></g>
<g fill="red" transform="translate(100 300) scale(0.1 -0.1)"><path d="M0.0 0.0V-803.0H30.0V0.0ZM258.0 -215.0V-885.0H288.0V-215.0ZM-250.0 -216.0V-817.0H282.0V-787.0H-221.0V-216.0Z"/></g>
<g fill="black" opacity=".8" transform="translate(100 300) scale(0.1 -0.1)"><path d="M0.0 0.0V-805.0H34.0V0.0ZM255.0 -219.0V-884.0H277.0V-219.0ZM-237.0 -225.0V-819.0H283.0V-793.0H-213.0V-225.0Z"/></g>
<g fill="red" transform="translate(200 300) scale(0.1 -0.1)"><path d="M0.0 0.0V-810.0H146.0V0.0ZM224.0 -210.0V-930.0H370.0V-210.0ZM-217.0 -218.0V-879.0H317.0V-745.0H-74.0V-218.0Z"/></g>
<g fill="black" opacity=".8" transform="translate(200 300) scale(0.1 -0.1)"><path d="M0.0 0.0V-805.0H150.0V0.0ZM235.0 -206.0V-934.0H375.0V-206.0ZM-221.0 -213.0V-882.0H318.0V-731.0H-91.0V-213.0Z"/></g>
<g fill="red" transform="translate(300 300) scale(0.1 -0.1)"><path d="M0.0 0.0V-587.0H30.0V0.0ZM325.0 -157.0V-682.0H354.0V-157.0ZM-321.0 -157.0V-607.0H335.0V-578.0H-291.0V-157.0Z"/></g>
<g fill="black" opacity=".8" transform="translate(300 300) scale(0.1 -0.1)"><path d="M0.0 0.0V-583.0H34.0V0.0ZM334.0 -156.0V-681.0H358.0V-156.0ZM-321.0 -154.0V-601.0H342.0V-578.0H-300.0V-154.0Z"/></g>
<g fill="red" transform="translate(400 300) scale(0.1 -0.1)"><path d="M0.0 0.0V-567.0H144.0V0.0ZM323.0 -140.0V-698.0H465.0V-140.0ZM-307.0 -142.0V-634.0H382.0V-501.0H-166.0V-142.0Z"/></g>
<g fill="black" opacity=".8" transform="translate(400 300) scale(0.1 -0.1)"><path d="M0.0 0.0V-569.0H159.0V0.0ZM308.0 -143.0V-699.0H465.0V-143.0ZM-300.0 -140.0V-644.0H373.0V-497.0H-160.0V-140.0Z"/></g>
<g fill="red" transform="translate(500 300) scale(0.1 -0.1)"><path d="M0.0 0.0V-279.0H29.0V0.0ZM323.0 -95.0V-342.0H352.0V-95.0ZM-312.0 -92.0V-291.0H340.0V-262.0H-283.0V-92.0Z"/></g>
<g fill="black" opacity=".8" transform="translate(500 300) scale(0.1 -0.1)"><path d="M0.0 0.0V-282.0H28.0V0.0ZM321.0 -96.0V-337.0H345.0V-96.0ZM-314.0 -83.0V-289.0H352.0V-266.0H-287.0V-83.0Z"/></g>
<g fill="red" transform="translate(600 300) scale(0.1 -0.1)"><path d="M0.0 0.0V-243.0H139.0V0.0ZM289.0 -83.0V-317.0H429.0V-83.0ZM-293.0 -61.0V-292.0H396.0V-182.0H-155.0V-61.0Z"/></g>
<g fill="black" opacity=".8" transform="translate(600 300) scale(0.1 -0.1)"><path d="M0.0 0.0V-238.0H143.0V0.0ZM293.0 -82.0V-322.0H434.0V-82.0ZM-290.0 -69.0V-294.0H381.0V-179.0H-149.0V-69.0Z"/></g>
<g fill="red" transform="translate(700 300) scale(0.1 -0.1)"><path d="M0.0 0.0V-706.0H30.0V0.0ZM144.0 -160.0V-769.0H174.0V-160.0ZM-151.0 -154.0V-721.0H159.0V-691.0H-121.0V-154.0Z"/></g>
<g fill="black" opacity=".8" transform="translate(700 300) scale(0.1 -0.1)"><path d="M0.0 0.0V-703.0H30.0V0.0ZM146.0 -159.0V-766.0H178.0V-159.0ZM-145.0 -158.0V-725.0H149.0V-697.0H-116.0V-158.0Z"/></g>
<g fill="red" transform="translate(800 300) scale(0.1 -0.1)"><path d="M0.0 0.0V-725.0H137.0V0.0ZM165.0 -148.0V-840.0H272.0V-148.0ZM-131.0 -151.0V-802.0H190.0V-678.0H-29.0V-151.0Z"/></g>
<g fill="black" opacity=".8" transform="translate(800 300) scale(0.1 -0.1)"><path d="M0.0 0.0V-727.0H125.0V0.0ZM163.0 -148.0V-844.0H270.0V-148.0ZM-139.0 -147.0V-796.0H203.0V-675.0H-34.0V-147.0Z"/></g>
<g fill="red" transform="translate(900 300) scale(0.1 -0.1)"><path d="M0.0 0.0V-712.0H28.0V0.0ZM132.0 -158.0V-763.0H160.0V-158.0ZM-133.0 -160.0V-727.0H152.0V-697.0H-104.0V-160.0Z"/></g>
<g fill="black" opacity=".8" transform="translate(900 300) scale(0.1 -0.1)"><path d="M0.0 0.0V-717.0H29.0V0.0ZM133.0 -157.0V-763.0H163.0V-157.0ZM-132.0 -160.0V-723.0H146.0V-697.0H-102.0V-160.0Z"/></g>
<g fill="red" transform="translate(1000 300) scale(0.1 -0.1)"><path d="M0.0 0.0V-758.0H129.0V0.0ZM153.0 -150.0V-852.0H256.0V-150.0ZM-126.0 -153.0V-804.0H193.0V-680.0H-26.0V-153.0Z"/></g>
<g fill="black" opacity=".8" transform="translate(1000 300) scale(0.1 -0.1)"><path d="M0.0 0.0V-752.0H121.0V0.0ZM153.0 -150.0V-853.0H254.0V-150.0ZM-129.0 -153.0V-804.0H200.0V-684.0H-28.0V-153.0Z"/></g>
<g fill="red" transform="translate(1100 300) scale(0.1 -0.1)"><path d="M0.0 0.0V-706.0H30.0V0.0ZM146.0 -160.0V-756.0H176.0V-160.0ZM-154.0 -154.0V-721.0H163.0V-691.0H-124.0V-154.0Z"/></g>
<g fill="black" opacity=".8" transform="translate(1100 300) scale(0.1 -0.1)"><path d="M0.0 0.0V-701.0H30.0V0.0ZM141.0 -160.0V-759.0H176.0V-160.0ZM-152.0 -158.0V-724.0H164.0V-694.0H-120.0V-158.0Z"/></g>
<g fill="red" transform="translate(1200 300) scale(0.1 -0.1)"><path d="M0.0 0.0V-725.0H126.0V0.0ZM154.0 -150.0V-852.0H272.0V-150.0ZM-145.0 -153.0V-804.0H221.0V-680.0H-29.0V-153.0Z"/></g>
<g fill="black" opacity=".8" transform="translate(1200 300) scale(0.1 -0.1)"><path d="M0.0 0.0V-729.0H128.0V0.0ZM162.0 -150.0V-849.0H269.0V-150.0ZM-145.0 -149.0V-803.0H223.0V-676.0H-36.0V-149.0Z"/></g>
<g fill="red" transform="translate(1300 300) scale(0.1 -0.1)"><path d="M0.0 0.0V-706.0H29.0V0.0ZM132.0 -160.0V-756.0H161.0V-160.0ZM-133.0 -154.0V-721.0H153.0V-691.0H-103.0V-154.0Z"/></g>
<g fill="black" opacity=".8" transform="translate(1300 300) scale(0.1 -0.1)"><path d="M0.0 0.0V-699.0H29.0V0.0ZM132.0 -159.0V-759.0H164.0V-159.0ZM-133.0 -158.0V-722.0H146.0V-694.0H-103.0V-158.0Z"/></g>
<g fill="red" transform="translate(1400 300) scale(0.1 -0.1)"><path d="M0.0 0.0V-725.0H128.0V0.0ZM153.0 -150.0V-852.0H256.0V-150.0ZM-126.0 -153.0V-804.0H193.0V-680.0H-26.0V-153.0Z"/></g>
<g fill="black" opacity=".8" transform="translate(1400 300) scale(0.1 -0.1)"><path d="M0.0 0.0V-731.0H121.0V0.0ZM153.0 -151.0V-849.0H254.0V-151.0ZM-128.0 -149.0V-802.0H202.0V-680.0H-27.0V-149.0Z"/></g>
<g fill="red" transform="translate(1500 300) scale(0.1 -0.1)"><path d="M0.0 0.0V-803.0H31.0V0.0ZM204.0 -220.0V-886.0H234.0V-220.0ZM-198.0 -221.0V-822.0H222.0V-792.0H-168.0V-221.0Z"/></g>
<g fill="black" opacity=".8" transform="translate(1500 300) scale(0.1 -0.1)"><path d="M0.0 0.0V-807.0H29.0V0.0ZM205.0 -223.0V-891.0H220.0V-223.0ZM-186.0 -229.0V-823.0H214.0V-792.0H-159.0V-229.0Z"/></g>
<g fill="red" transform="translate(1600 300) scale(0.1 -0.1)"><path d="M0.0 0.0V-810.0H125.0V0.0ZM168.0 -210.0V-930.0H295.0V-210.0ZM-163.0 -218.0V-872.0H226.0V-738.0H-40.0V-218.0Z"/></g>
<g fill="black" opacity=".8" transform="translate(1600 300) scale(0.1 -0.1)"><path d="M0.0 0.0V-803.0H122.0V0.0ZM181.0 -206.0V-928.0H298.0V-206.0ZM-170.0 -214.0V-875.0H238.0V-733.0H-56.0V-214.0Z"/></g>
<g fill="red" transform="translate(100 400) scale(0.1 -0.1)"><path d="M0.0 0.0V-714.0H28.0V0.0ZM130.0 -166.0V-762.0H159.0V-166.0ZM-131.0 -160.0V-727.0H147.0V-697.0H-102.0V-160.0Z"/></g>
<g fill="black" opacity=".8" transform="translate(100 400) scale(0.1 -0.1)"><path d="M0.0 0.0V-729.0H28.0V0.0ZM137.0 -153.0V-764.0H161.0V-153.0ZM-133.0 -151.0V-720.0H135.0V-692.0H-104.0V-151.0Z"/></g>
<g fill="red" transform="translate(200 400) scale(0.1 -0.1)"><path d="M0.0 0.0V-761.0H122.0V0.0ZM150.0 -127.0V-829.0H252.0V-127.0ZM-128.0 -128.0V-779.0H170.0V-655.0H-28.0V-128.0Z"/></g>
<g fill="black" opacity=".8" transform="translate(200 400) scale(0.1 -0.1)"><path d="M0.0 0.0V-746.0H115.0V0.0ZM146.0 -138.0V-829.0H248.0V-138.0ZM-128.0 -136.0V-782.0H181.0V-663.0H-27.0V-136.0Z"/></g>
<g fill="red" transform="translate(300 400) scale(0.1 -0.1)"><path d="M0.0 0.0V-712.0H28.0V0.0ZM132.0 -160.0V-762.0H161.0V-160.0ZM-133.0 -160.0V-727.0H152.0V-697.0H-104.0V-160.0Z"/></g>
<g fill="black" opacity=".8" transform="translate(300 400) scale(0.1 -0.1)"><path d="M0.0 0.0V-717.0H29.0V0.0ZM133.0 -158.0V-762.0H163.0V-158.0ZM-132.0 -160.0V-724.0H146.0V-697.0H-102.0V-160.0Z"/></g>
<g fill="red" transform="translate(400 400) scale(0.1 -0.1)"><path d="M0.0 0.0V-758.0H129.0V0.0ZM153.0 -150.0V-852.0H256.0V-150.0ZM-126.0 -153.0V-804.0H193.0V-680.0H-26.0V-153.0Z"/></g>
<g fill="black" opacity=".8" transform="translate(400 400) scale(0.1 -0.1)"><path d="M0.0 0.0V-752.0H121.0V0.0ZM153.0 -151.0V-853.0H254.0V-151.0ZM-129.0 -153.0V-804.0H200.0V-684.0H-28.0V-153.0Z"/></g>
<g fill="red" transform="translate(500 400) scale(0.1 -0.1)"><path d="M0.0 0.0V-701.0H29.0V0.0ZM129.0 -186.0V-768.0H159.0V-186.0ZM-126.0 -184.0V-712.0H150.0V-683.0H-96.0V-184.0Z"/></g>
<g fill="black" opacity=".8" transform="translate(500 400) scale(0.1 -0.1)"><path d="M0.0 0.0V-694.0H26.0V0.0ZM137.0 -186.0V-772.0H160.0V-186.0ZM-136.0 -180.0V-707.0H147.0V-681.0H-102.0V-180.0Z"/></g>
<g fill="red" transform="translate(600 400) scale(0.1 -0.1)"><path d="M0.0 0.0V-675.0H109.0V0.0ZM133.0 -163.0V-807.0H239.0V-163.0ZM-127.0 -161.0V-736.0H180.0V-618.0H-22.0V-161.0Z"/></g>
<g fill="black" opacity=".8" transform="translate(600 400) scale(0.1 -0.1)"><path d="M0.0 0.0V-680.0H110.0V0.0ZM129.0 -164.0V-802.0H234.0V-164.0ZM-123.0 -161.0V-737.0H183.0V-627.0H-11.0V-161.0Z"/></g>
<g fill="red" transform="translate(700 400) scale(0.1 -0.1)"><path d="M0.0 0.0V-706.0H29.0V0.0ZM120.0 -160.0V-756.0H150.0V-160.0ZM-133.0 -154.0V-721.0H139.0V-691.0H-103.0V-154.0Z"/></g>
<g fill="black" opacity=".8" transform="translate(700 400) scale(0.1 -0.1)"><path d="M0.0 0.0V-699.0H28.0V0.0ZM119.0 -161.0V-758.0H151.0V-161.0ZM-130.0 -157.0V-723.0H141.0V-693.0H-101.0V-157.0Z"/></g>
<g fill="red" transform="translate(800 400) scale(0.1 -0.1)"><path d="M0.0 0.0V-725.0H115.0V0.0ZM139.0 -150.0V-852.0H237.0V-150.0ZM-119.0 -153.0V-804.0H194.0V-680.0H-25.0V-153.0Z"/></g>
<g fill="black" opacity=".8" transform="translate(800 400) scale(0.1 -0.1)"><path d="M0.0 0.0V-730.0H115.0V0.0ZM140.0 -151.0V-849.0H235.0V-151.0ZM-123.0 -148.0V-803.0H195.0V-679.0H-27.0V-148.0Z"/></g>
<g fill="red" transform="translate(900 400) scale(0.1 -0.1)"><path d="M0.0 0.0V-712.0H27.0V0.0ZM127.0 -166.0V-762.0H156.0V-166.0ZM-131.0 -160.0V-727.0H147.0V-697.0H-102.0V-160.0Z"/></g>
<g fill="black" opacity=".8" transform="translate(900 400) scale(0.1 -0.1)"><path d="M0.0 0.0V-717.0H30.0V0.0ZM129.0 -161.0V-761.0H161.0V-161.0ZM-131.0 -160.0V-723.0H142.0V-697.0H-101.0V-160.0Z"/></g>
<g fill="red" transform="translate(1000 400) scale(0.1 -0.1)"><path d="M0.0 0.0V-758.0H129.0V0.0ZM153.0 -150.0V-852.0H256.0V-150.0ZM-126.0 -153.0V-804.0H193.0V-680.0H-26.0V-153.0Z"/></g>
<g fill="black" opacity=".8" transform="translate(1000 400) scale(0.1 -0.1)"><path d="M0.0 0.0V-752.0H123.0V0.0ZM151.0 -154.0V-853.0H253.0V-154.0ZM-129.0 -152.0V-804.0H198.0V-685.0H-26.0V-152.0Z"/></g>
<g fill="red" transform="translate(1100 400) scale(0.1 -0.1)"><path d="M0.0 0.0V-706.0H29.0V0.0ZM126.0 -155.0V-755.0H155.0V-155.0ZM-138.0 -157.0V-724.0H138.0V-694.0H-108.0V-157.0Z"/></g>
<g fill="black" opacity=".8" transform="translate(1100 400) scale(0.1 -0.1)"><path d="M0.0 0.0V-708.0H29.0V0.0ZM126.0 -157.0V-754.0H157.0V-157.0ZM-135.0 -157.0V-725.0H138.0V-694.0H-106.0V-157.0Z"/></g>
<g fill="red" transform="translate(1200 400) scale(0.1 -0.1)"><path d="M0.0 0.0V-743.0H118.0V0.0ZM145.0 -150.0V-843.0H248.0V-150.0ZM-129.0 -148.0V-806.0H192.0V-682.0H-27.0V-148.0Z"/></g>
<g fill="black" opacity=".8" transform="translate(1200 400) scale(0.1 -0.1)"><path d="M0.0 0.0V-740.0H119.0V0.0ZM147.0 -148.0V-845.0H246.0V-148.0ZM-131.0 -148.0V-805.0H193.0V-682.0H-32.0V-148.0Z"/></g>
<g fill="red" transform="translate(1300 400) scale(0.1 -0.1)"><path d="M0.0 0.0V-252.0H30.0V0.0ZM262.0 -40.0V-301.0H292.0V-40.0ZM-247.0 -43.0V-270.0H275.0V-240.0H-218.0V-43.0Z"/></g>
<g fill="black" opacity=".8" transform="translate(1300 400) scale(0.1 -0.1)"><path d="M0.0 0.0V-248.0H25.0V0.0ZM260.0 -44.0V-306.0H288.0V-44.0ZM-250.0 -48.0V-272.0H268.0V-238.0H-217.0V-48.0Z"/></g>
<g fill="red" transform="translate(1400 400) scale(0.1 -0.1)"><path d="M0.0 0.0V-230.0H133.0V0.0ZM244.0 -38.0V-326.0H375.0V-38.0ZM-238.0 -40.0V-300.0H298.0V-182.0H-107.0V-40.0Z"/></g>
<g fill="black" opacity=".8" transform="translate(1400 400) scale(0.1 -0.1)"><path d="M0.0 0.0V-233.0H126.0V0.0ZM254.0 -33.0V-321.0H374.0V-33.0ZM-235.0 -38.0V-296.0H307.0V-187.0H-109.0V-38.0Z"/></g>
<g fill="red" transform="translate(1500 400) scale(0.1 -0.1)"><path d="M0.0 0.0V-712.0H28.0V0.0ZM132.0 -166.0V-762.0H160.0V-166.0ZM-133.0 -160.0V-727.0H152.0V-697.0H-104.0V-160.0Z"/></g>
<g fill="black" opacity=".8" transform="translate(1500 400) scale(0.1 -0.1)"><path d="M0.0 0.0V-718.0H29.0V0.0ZM133.0 -161.0V-762.0H163.0V-161.0ZM-132.0 -160.0V-724.0H146.0V-697.0H-102.0V-160.0Z"/></g>
<g fill="red" transform="translate(1600 400) scale(0.1 -0.1)"><path d="M0.0 0.0V-758.0H129.0V0.0ZM153.0 -150.0V-852.0H256.0V-150.0ZM-126.0 -153.0V-804.0H193.0V-680.0H-26.0V-153.0Z"/></g>
<g fill="black" opacity=".8" transform="translate(1600 400) scale(0.1 -0.1)"><path d="M0.0 0.0V-752.0H121.0V0.0ZM153.0 -154.0V-853.0H254.0V-154.0ZM-129.0 -153.0V-804.0H200.0V-684.0H-28.0V-153.0Z"/></g>
<g fill="red" transform="translate(100 500) scale(0.1 -0.1)"><path d="M0.0 0.0V-706.0H29.0V0.0ZM125.0 -156.0V-756.0H155.0V-156.0ZM-132.0 -158.0V-725.0H137.0V-695.0H-102.0V-158.0Z"/></g>
<g fill="black" opacity=".8" transform="translate(100 500) scale(0.1 -0.1)"><path d="M0.0 0.0V-707.0H28.0V0.0ZM123.0 -158.0V-758.0H154.0V-158.0ZM-129.0 -156.0V-725.0H139.0V-694.0H-101.0V-156.0Z"/></g>
<g fill="red" transform="translate(200 500) scale(0.1 -0.1)"><path d="M0.0 0.0V-743.0H118.0V0.0ZM145.0 -150.0V-852.0H238.0V-150.0ZM-122.0 -148.0V-806.0H193.0V-682.0H-26.0V-148.0Z"/></g>
<g fill="black" opacity=".8" transform="translate(200 500) scale(0.1 -0.1)"><path d="M0.0 0.0V-741.0H116.0V0.0ZM145.0 -149.0V-851.0H241.0V-149.0ZM-125.0 -149.0V-807.0H193.0V-683.0H-28.0V-149.0Z"/></g>
<g fill="red" transform="translate(300 500) scale(0.1 -0.1)"><path d="M0.0 0.0V-706.0H29.0V0.0ZM132.0 -160.0V-756.0H161.0V-160.0ZM-133.0 -154.0V-721.0H153.0V-691.0H-103.0V-154.0Z"/></g>
<g fill="black" opacity=".8" transform="translate(300 500) scale(0.1 -0.1)"><path d="M0.0 0.0V-700.0H28.0V0.0ZM129.0 -160.0V-760.0H159.0V-160.0ZM-130.0 -158.0V-724.0H151.0V-694.0H-101.0V-158.0Z"/></g>
<g fill="red" transform="translate(400 500) scale(0.1 -0.1)"><path d="M0.0 0.0V-725.0H119.0V0.0ZM141.0 -150.0V-852.0H243.0V-150.0ZM-120.0 -153.0V-804.0H197.0V-680.0H-22.0V-153.0Z"/></g>
<g fill="black" opacity=".8" transform="translate(400 500) scale(0.1 -0.1)"><path d="M0.0 0.0V-729.0H115.0V0.0ZM147.0 -150.0V-848.0H243.0V-150.0ZM-123.0 -150.0V-802.0H202.0V-677.0H-25.0V-150.0Z"/></g>
<g fill="red" transform="translate(500 500) scale(0.1 -0.1)"><path d="M0.0 0.0V-706.0H29.0V0.0ZM122.0 -160.0V-756.0H152.0V-160.0ZM-132.0 -154.0V-721.0H140.0V-691.0H-102.0V-154.0Z"/></g>
<g fill="black" opacity=".8" transform="translate(500 500) scale(0.1 -0.1)"><path d="M0.0 0.0V-699.0H29.0V0.0ZM122.0 -160.0V-757.0H157.0V-160.0ZM-130.0 -157.0V-723.0H140.0V-694.0H-99.0V-157.0Z"/></g>
<g fill="red" transform="translate(600 500) scale(0.1 -0.1)"><path d="M0.0 0.0V-725.0H124.0V0.0ZM145.0 -150.0V-852.0H252.0V-150.0ZM-120.0 -153.0V-804.0H198.0V-680.0H-21.0V-153.0Z"/></g>
<g fill="black" opacity=".8" transform="translate(600 500) scale(0.1 -0.1)"><path d="M0.0 0.0V-730.0H123.0V0.0ZM146.0 -151.0V-850.0H247.0V-151.0ZM-126.0 -148.0V-801.0H200.0V-681.0H-22.0V-148.0Z"/></g>
<g fill="red" transform="translate(700 500) scale(0.1 -0.1)"><path d="M0.0 0.0V-706.0H29.0V0.0ZM132.0 -160.0V-756.0H161.0V-160.0ZM-133.0 -154.0V-721.0H153.0V-691.0H-103.0V-154.0Z"/></g>
<g fill="black" opacity=".8" transform="translate(700 500) scale(0.1 -0.1)"><path d="M0.0 0.0V-700.0H28.0V0.0ZM129.0 -160.0V-760.0H160.0V-160.0ZM-131.0 -158.0V-723.0H149.0V-694.0H-102.0V-158.0Z"/></g>
<g fill="red" transform="translate(800 500) scale(0.1 -0.1)"><path d="M0.0 0.0V-725.0H122.0V0.0ZM143.0 -150.0V-852.0H246.0V-150.0ZM-123.0 -153.0V-804.0H196.0V-680.0H-23.0V-153.0Z"/></g>
<g fill="black" opacity=".8" transform="translate(800 500) scale(0.1 -0.1)"><path d="M0.0 0.0V-730.0H117.0V0.0ZM148.0 -150.0V-848.0H246.0V-150.0ZM-124.0 -150.0V-802.0H202.0V-678.0H-26.0V-150.0Z"/></g>
<g fill="red" transform="translate(900 500) scale(0.1 -0.1)"><path d="M0.0 0.0V-706.0H29.0V0.0ZM118.0 -155.0V-755.0H147.0V-155.0ZM-119.0 -157.0V-724.0H139.0V-694.0H-89.0V-157.0Z"/></g>
<g fill="black" opacity=".8" transform="translate(900 500) scale(0.1 -0.1)"><path d="M0.0 0.0V-708.0H28.0V0.0ZM119.0 -157.0V-750.0H150.0V-157.0ZM-121.0 -156.0V-723.0H140.0V-694.0H-93.0V-156.0Z"/></g>
<g fill="red" transform="translate(1000 500) scale(0.1 -0.1)"><path d="M0.0 0.0V-743.0H118.0V0.0ZM142.0 -150.0V-839.0H235.0V-150.0ZM-119.0 -148.0V-806.0H196.0V-682.0H-23.0V-148.0Z"/></g>
<g fill="black" opacity=".8" transform="translate(1000 500) scale(0.1 -0.1)"><path d="M0.0 0.0V-741.0H116.0V0.0ZM141.0 -148.0V-844.0H235.0V-148.0ZM-116.0 -148.0V-805.0H194.0V-683.0H-21.0V-148.0Z"/></g>
<g fill="red" transform="translate(1100 500) scale(0.1 -0.1)"><path d="M0.0 0.0V-712.0H28.0V0.0ZM135.0 -166.0V-762.0H164.0V-166.0ZM-137.0 -160.0V-727.0H152.0V-697.0H-108.0V-160.0Z"/></g>
<g fill="black" opacity=".8" transform="translate(1100 500) scale(0.1 -0.1)"><path d="M0.0 0.0V-718.0H28.0V0.0ZM137.0 -162.0V-766.0H164.0V-162.0ZM-133.0 -161.0V-725.0H139.0V-696.0H-105.0V-161.0Z"/></g>
<g fill="red" transform="translate(1200 500) scale(0.1 -0.1)"><path d="M0.0 0.0V-758.0H125.0V0.0ZM151.0 -152.0V-854.0H253.0V-152.0ZM-126.0 -153.0V-804.0H172.0V-680.0H-26.0V-153.0Z"/></g>
<g fill="black" opacity=".8" transform="translate(1200 500) scale(0.1 -0.1)"><path d="M0.0 0.0V-752.0H116.0V0.0ZM153.0 -155.0V-852.0H251.0V-155.0ZM-130.0 -154.0V-805.0H187.0V-682.0H-33.0V-154.0Z"/></g>
<g fill="red" transform="translate(1300 500) scale(0.1 -0.1)"><path d="M0.0 0.0V-711.0H30.0V0.0ZM113.0 -157.0V-757.0H142.0V-157.0ZM-115.0 -159.0V-726.0H127.0V-696.0H-85.0V-159.0Z"/></g>
<g fill="black" opacity=".8" transform="translate(1300 500) scale(0.1 -0.1)"><path d="M0.0 0.0V-710.0H27.0V0.0ZM112.0 -159.0V-760.0H139.0V-159.0ZM-116.0 -157.0V-724.0H128.0V-694.0H-88.0V-157.0Z"/></g>
<g fill="red" transform="translate(1400 500) scale(0.1 -0.1)"><path d="M0.0 0.0V-743.0H109.0V0.0ZM130.0 -150.0V-852.0H217.0V-150.0ZM-112.0 -148.0V-802.0H176.0V-678.0H-22.0V-148.0Z"/></g>
<g fill="black" opacity=".8" transform="translate(1400 500) scale(0.1 -0.1)"><path d="M0.0 0.0V-743.0H107.0V0.0ZM131.0 -149.0V-849.0H219.0V-149.0ZM-111.0 -149.0V-804.0H176.0V-682.0H-20.0V-149.0Z"/></g>
<g fill="red" transform="translate(1500 500) scale(0.1 -0.1)"><path d="M0.0 0.0V-340.0H30.0V0.0ZM325.0 -91.0V-408.0H354.0V-91.0ZM-321.0 -92.0V-350.0H341.0V-320.0H-292.0V-92.0Z"/></g>
<g fill="black" opacity=".8" transform="translate(1500 500) scale(0.1 -0.1)"><path d="M0.0 0.0V-336.0H30.0V0.0ZM327.0 -94.0V-410.0H355.0V-94.0ZM-318.0 -95.0V-352.0H343.0V-320.0H-286.0V-95.0Z"/></g>
<g fill="red" transform="translate(1600 500) scale(0.1 -0.1)"><path d="M0.0 0.0V-347.0H144.0V0.0ZM319.0 -98.0V-454.0H461.0V-98.0ZM-301.0 -102.0V-411.0H381.0V-275.0H-160.0V-102.0Z"/></g>
<g fill="black" opacity=".8" transform="translate(1600 500) scale(0.1 -0.1)"><path d="M0.0 0.0V-348.0H149.0V0.0ZM318.0 -97.0V-453.0H458.0V-97.0ZM-304.0 -96.0V-410.0H381.0V-276.0H-167.0V-96.0Z"/></g>
<g fill="red" transform="translate(100 600) scale(0.1 -0.1)"><path d="M0.0 0.0V-327.0H30.0V0.0ZM343.0 -75.0V-392.0H373.0V-75.0ZM-331.0 -89.0V-340.0H358.0V-310.0H-302.0V-89.0Z"/></g>
<g fill="black" opacity=".8" transform="translate(100 600) scale(0.1 -0.1)"><path d="M0.0 0.0V-314.0H30.0V0.0ZM351.0 -73.0V-397.0H375.0V-73.0ZM-336.0 -77.0V-342.0H354.0V-311.0H-309.0V-77.0Z"/></g>
<g fill="red" transform="translate(200 600) scale(0.1 -0.1)"><path d="M0.0 0.0V-261.0H148.0V0.0ZM331.0 -51.0V-384.0H473.0V-51.0ZM-314.0 -54.0V-349.0H379.0V-217.0H-173.0V-54.0Z"/></g>
<g fill="black" opacity=".8" transform="translate(200 600) scale(0.1 -0.1)"><path d="M0.0 0.0V-272.0H149.0V0.0ZM320.0 -55.0V-377.0H472.0V-55.0ZM-310.0 -60.0V-349.0H383.0V-218.0H-165.0V-60.0Z"/></g>
<g fill="red" transform="translate(300 600) scale(0.1 -0.1)"><path d="M0.0 0.0V-724.0H29.0V0.0ZM140.0 -160.0V-786.0H169.0V-160.0ZM-133.0 -154.0V-734.0H153.0V-705.0H-103.0V-154.0Z"/></g>
<g fill="black" opacity=".8" transform="translate(300 600) scale(0.1 -0.1)"><path d="M0.0 0.0V-719.0H29.0V0.0ZM142.0 -159.0V-782.0H172.0V-159.0ZM-133.0 -158.0V-737.0H146.0V-710.0H-106.0V-158.0Z"/></g>
<g fill="red" transform="translate(400 600) scale(0.1 -0.1)"><path d="M0.0 0.0V-743.0H128.0V0.0ZM160.0 -148.0V-860.0H263.0V-148.0ZM-127.0 -151.0V-816.0H190.0V-692.0H-29.0V-151.0Z"/></g>
<g fill="black" opacity=".8" transform="translate(400 600) scale(0.1 -0.1)"><path d="M0.0 0.0V-747.0H120.0V0.0ZM158.0 -149.0V-863.0H262.0V-149.0ZM-127.0 -148.0V-811.0H198.0V-690.0H-27.0V-148.0Z"/></g>
<g fill="red" transform="translate(500 600) scale(0.1 -0.1)"><path d="M0.0 0.0V-706.0H29.0V0.0ZM118.0 -155.0V-755.0H147.0V-155.0ZM-119.0 -157.0V-724.0H139.0V-694.0H-89.0V-157.0Z"/></g>
<g fill="black" opacity=".8" transform="translate(500 600) scale(0.1 -0.1)"><path d="M0.0 0.0V-706.0H28.0V0.0ZM118.0 -157.0V-755.0H149.0V-157.0ZM-121.0 -155.0V-722.0H140.0V-693.0H-92.0V-155.0Z"/></g>
<g fill="red" transform="translate(600 600) scale(0.1 -0.1)"><path d="M0.0 0.0V-743.0H118.0V0.0ZM142.0 -150.0V-852.0H235.0V-150.0ZM-119.0 -148.0V-806.0H196.0V-682.0H-23.0V-148.0Z"/></g>
<g fill="black" opacity=".8" transform="translate(600 600) scale(0.1 -0.1)"><path d="M0.0 0.0V-742.0H116.0V0.0ZM141.0 -149.0V-852.0H235.0V-149.0ZM-117.0 -149.0V-806.0H195.0V-685.0H-21.0V-149.0Z"/></g>
<g fill="red" transform="translate(700 600) scale(0.1 -0.1)"><path d="M0.0 0.0V-717.0H28.0V0.0ZM123.0 -160.0V-760.0H153.0V-160.0ZM-125.0 -163.0V-730.0H132.0V-700.0H-96.0V-163.0Z"/></g>
<g fill="black" opacity=".8" transform="translate(700 600) scale(0.1 -0.1)"><path d="M0.0 0.0V-716.0H29.0V0.0ZM121.0 -160.0V-761.0H152.0V-160.0ZM-125.0 -159.0V-729.0H138.0V-700.0H-96.0V-159.0Z"/></g>
<g fill="red" transform="translate(800 600) scale(0.1 -0.1)"><path d="M0.0 0.0V-748.0H119.0V0.0ZM142.0 -150.0V-852.0H235.0V-150.0ZM-119.0 -149.0V-807.0H196.0V-683.0H-23.0V-149.0Z"/></g>
<g fill="black" opacity=".8" transform="translate(800 600) scale(0.1 -0.1)"><path d="M0.0 0.0V-747.0H117.0V0.0ZM141.0 -151.0V-850.0H238.0V-151.0ZM-121.0 -150.0V-808.0H192.0V-686.0H-22.0V-150.0Z"/></g>
<g fill="red" transform="translate(900 600) scale(0.1 -0.1)"><path d="M0.0 0.0V-490.0H31.0V0.0ZM334.0 -99.0V-549.0H366.0V-99.0ZM-339.0 -100.0V-497.0H356.0V-465.0H-308.0V-100.0Z"/></g>
<g fill="black" opacity=".8" transform="translate(900 600) scale(0.1 -0.1)"><path d="M0.0 0.0V-471.0H32.0V0.0ZM341.0 -112.0V-550.0H364.0V-112.0ZM-339.0 -110.0V-490.0H374.0V-466.0H-318.0V-110.0Z"/></g>
<g fill="red" transform="translate(1000 600) scale(0.1 -0.1)"><path d="M0.0 0.0V-392.0H144.0V0.0ZM315.0 -88.0V-525.0H458.0V-88.0ZM-308.0 -100.0V-479.0H421.0V-347.0H-169.0V-100.0Z"/></g>
<g fill="black" opacity=".8" transform="translate(1000 600) scale(0.1 -0.1)"><path d="M0.0 0.0V-407.0H158.0V0.0ZM302.0 -80.0V-521.0H463.0V-80.0ZM-307.0 -83.0V-488.0H403.0V-348.0H-156.0V-83.0Z"/></g>
<g fill="red" transform="translate(1100 600) scale(0.1 -0.1)"><path d="M0.0 0.0V-706.0H29.0V0.0ZM124.0 -155.0V-755.0H154.0V-155.0ZM-125.0 -157.0V-724.0H133.0V-694.0H-95.0V-157.0Z"/></g>
<g fill="black" opacity=".8" transform="translate(1100 600) scale(0.1 -0.1)"><path d="M0.0 0.0V-706.0H28.0V0.0ZM121.0 -157.0V-756.0H152.0V-157.0ZM-124.0 -156.0V-723.0H138.0V-694.0H-95.0V-156.0Z"/></g>
<g fill="red" transform="translate(1200 600) scale(0.1 -0.1)"><path d="M0.0 0.0V-743.0H118.0V0.0ZM142.0 -150.0V-852.0H235.0V-150.0ZM-119.0 -148.0V-806.0H196.0V-682.0H-23.0V-148.0Z"/></g>
<g fill="black" opacity=".8" transform="translate(1200 600) scale(0.1 -0.1)"><path d="M0.0 0.0V-742.0H116.0V0.0ZM144.0 -149.0V-851.0H239.0V-149.0ZM-120.0 -148.0V-807.0H193.0V-684.0H-24.0V-148.0Z"/></g>
<g fill="red" transform="translate(1300 600) scale(0.1 -0.1)"><path d="M0.0 0.0V-729.0H29.0V0.0ZM116.0 -160.0V-791.0H145.0V-160.0ZM-120.0 -154.0V-737.0H135.0V-708.0H-90.0V-154.0Z"/></g>
<g fill="black" opacity=".8" transform="translate(1300 600) scale(0.1 -0.1)"><path d="M0.0 0.0V-723.0H30.0V0.0ZM121.0 -160.0V-783.0H154.0V-160.0ZM-125.0 -157.0V-738.0H136.0V-713.0H-95.0V-157.0Z"/></g>
<g fill="red" transform="translate(1400 600) scale(0.1 -0.1)"><path d="M0.0 0.0V-743.0H124.0V0.0ZM148.0 -148.0V-860.0H251.0V-148.0ZM-122.0 -151.0V-816.0H195.0V-692.0H-24.0V-151.0Z"/></g>
<g fill="black" opacity=".8" transform="translate(1400 600) scale(0.1 -0.1)"><path d="M0.0 0.0V-748.0H122.0V0.0ZM142.0 -148.0V-867.0H245.0V-148.0ZM-120.0 -146.0V-810.0H193.0V-694.0H-16.0V-146.0Z"/></g>
<g fill="red" transform="translate(1500 600) scale(0.1 -0.1)"><path d="M0.0 0.0V-723.0H29.0V0.0ZM135.0 -175.0V-771.0H164.0V-175.0ZM-137.0 -169.0V-736.0H152.0V-706.0H-108.0V-169.0Z"/></g>
<g fill="black" opacity=".8" transform="translate(1500 600) scale(0.1 -0.1)"><path d="M0.0 0.0V-717.0H27.0V0.0ZM135.0 -173.0V-778.0H161.0V-173.0ZM-134.0 -171.0V-739.0H142.0V-707.0H-107.0V-171.0Z"/></g>
<g fill="red" transform="translate(1600 600) scale(0.1 -0.1)"><path d="M0.0 0.0V-738.0H117.0V0.0ZM145.0 -161.0V-863.0H238.0V-161.0ZM-127.0 -162.0V-813.0H171.0V-689.0H-27.0V-162.0Z"/></g>
<g fill="black" opacity=".8" transform="translate(1600 600) scale(0.1 -0.1)"><path d="M0.0 0.0V-743.0H110.0V0.0ZM146.0 -163.0V-856.0H240.0V-163.0ZM-127.0 -161.0V-813.0H185.0V-686.0H-32.0V-161.0Z"/></g>
<g fill="red" transform="translate(100 700) scale(0.1 -0.1)"><path d="M0.0 0.0V-706.0H29.0V0.0ZM120.0 -160.0V-756.0H150.0V-160.0ZM-126.0 -154.0V-721.0H136.0V-691.0H-96.0V-154.0Z"/></g>
<g fill="black" opacity=".8" transform="translate(100 700) scale(0.1 -0.1)"><path d="M0.0 0.0V-699.0H28.0V0.0ZM119.0 -162.0V-761.0H151.0V-162.0ZM-126.0 -158.0V-723.0H132.0V-692.0H-96.0V-158.0Z"/></g>
<g fill="red" transform="translate(200 700) scale(0.1 -0.1)"><path d="M0.0 0.0V-725.0H113.0V0.0ZM134.0 -154.0V-855.0H241.0V-154.0ZM-122.0 -153.0V-804.0H179.0V-680.0H-22.0V-153.0Z"/></g>
<g fill="black" opacity=".8" transform="translate(200 700) scale(0.1 -0.1)"><path d="M0.0 0.0V-731.0H114.0V0.0ZM140.0 -153.0V-851.0H235.0V-153.0ZM-121.0 -149.0V-802.0H185.0V-680.0H-24.0V-149.0Z"/></g>
<g fill="red" transform="translate(300 700) scale(0.1 -0.1)"><path d="M0.0 0.0V-706.0H29.0V0.0ZM132.0 -160.0V-756.0H161.0V-160.0ZM-133.0 -154.0V-721.0H153.0V-691.0H-103.0V-154.0Z"/></g>
<g fill="black" opacity=".8" transform="translate(300 700) scale(0.1 -0.1)"><path d="M0.0 0.0V-700.0H29.0V0.0ZM131.0 -159.0V-759.0H162.0V-159.0ZM-133.0 -158.0V-723.0H147.0V-693.0H-104.0V-158.0Z"/></g>
<g fill="red" transform="translate(400 700) scale(0.1 -0.1)"><path d="M0.0 0.0V-725.0H124.0V0.0ZM148.0 -150.0V-852.0H251.0V-150.0ZM-127.0 -153.0V-804.0H192.0V-680.0H-27.0V-153.0Z"/></g>
<g fill="black" opacity=".8" transform="translate(400 700) scale(0.1 -0.1)"><path d="M0.0 0.0V-731.0H118.0V0.0ZM151.0 -151.0V-849.0H249.0V-151.0ZM-127.0 -150.0V-802.0H200.0V-679.0H-28.0V-150.0Z"/></g>
<g fill="red" transform="translate(500 700) scale(0.1 -0.1)"><path d="M0.0 0.0V-717.0H28.0V0.0ZM119.0 -160.0V-760.0H149.0V-160.0ZM-130.0 -163.0V-730.0H131.0V-700.0H-101.0V-163.0Z"/></g>
<g fill="black" opacity=".8" transform="translate(500 700) scale(0.1 -0.1)"><path d="M0.0 0.0V-717.0H29.0V0.0ZM118.0 -161.0V-761.0H150.0V-161.0ZM-128.0 -159.0V-729.0H137.0V-700.0H-98.0V-159.0Z"/></g>
<g fill="red" transform="translate(600 700) scale(0.1 -0.1)"><path d="M0.0 0.0V-748.0H119.0V0.0ZM142.0 -150.0V-852.0H235.0V-150.0ZM-119.0 -149.0V-807.0H196.0V-683.0H-23.0V-149.0Z"/></g>
<g fill="black" opacity=".8" transform="translate(600 700) scale(0.1 -0.1)"><path d="M0.0 0.0V-746.0H118.0V0.0ZM140.0 -150.0V-851.0H237.0V-150.0ZM-124.0 -150.0V-808.0H192.0V-686.0H-24.0V-150.0Z"/></g>
<g fill="red" transform="translate(700 700) scale(0.1 -0.1)"><path d="M0.0 0.0V-706.0H29.0V0.0ZM129.0 -155.0V-755.0H158.0V-155.0ZM-136.0 -157.0V-724.0H140.0V-694.0H-106.0V-157.0Z"/></g>
<g fill="black" opacity=".8" transform="translate(700 700) scale(0.1 -0.1)"><path d="M0.0 0.0V-707.0H28.0V0.0ZM125.0 -157.0V-758.0H155.0V-157.0ZM-131.0 -156.0V-724.0H142.0V-694.0H-103.0V-156.0Z"/></g>
<g fill="red" transform="translate(800 700) scale(0.1 -0.1)"><path d="M0.0 0.0V-743.0H118.0V0.0ZM143.0 -150.0V-852.0H236.0V-150.0ZM-122.0 -148.0V-806.0H193.0V-682.0H-26.0V-148.0Z"/></g>
<g fill="black" opacity=".8" transform="translate(800 700) scale(0.1 -0.1)"><path d="M0.0 0.0V-741.0H115.0V0.0ZM146.0 -148.0V-850.0H240.0V-148.0ZM-126.0 -149.0V-807.0H194.0V-682.0H-31.0V-149.0Z"/></g>
<g fill="red" transform="translate(900 700) scale(0.1 -0.1)"><path d="M0.0 0.0V-717.0H28.0V0.0ZM117.0 -160.0V-760.0H145.0V-160.0ZM-120.0 -163.0V-730.0H134.0V-700.0H-91.0V-163.0Z"/></g>
<g fill="black" opacity=".8" transform="translate(900 700) scale(0.1 -0.1)"><path d="M0.0 0.0V-716.0H29.0V0.0ZM117.0 -160.0V-760.0H148.0V-160.0ZM-123.0 -159.0V-728.0H138.0V-700.0H-93.0V-159.0Z"/></g>
<g fill="red" transform="translate(1000 700) scale(0.1 -0.1)"><path d="M0.0 0.0V-748.0H119.0V0.0ZM142.0 -150.0V-852.0H235.0V-150.0ZM-119.0 -149.0V-807.0H196.0V-683.0H-23.0V-149.0Z"/></g>
<g fill="black" opacity=".8" transform="translate(1000 700) scale(0.1 -0.1)"><path d="M0.0 0.0V-748.0H118.0V0.0ZM139.0 -151.0V-852.0H235.0V-151.0ZM-119.0 -150.0V-807.0H193.0V-687.0H-20.0V-150.0Z"/></g>
<g fill="red" transform="translate(1100 700) scale(0.1 -0.1)"><path d="M0.0 0.0V-314.0H30.0V0.0ZM337.0 -54.0V-386.0H367.0V-54.0ZM-330.0 -53.0V-332.0H359.0V-302.0H-301.0V-53.0Z"/></g>
<g fill="black" opacity=".8" transform="translate(1100 700) scale(0.1 -0.1)"><path d="M0.0 0.0V-311.0H29.0V0.0ZM337.0 -54.0V-388.0H361.0V-54.0ZM-326.0 -58.0V-334.0H354.0V-303.0H-305.0V-58.0Z"/></g>
<g fill="red" transform="translate(1200 700) scale(0.1 -0.1)"><path d="M0.0 0.0V-306.0H140.0V0.0ZM318.0 -48.0V-413.0H459.0V-48.0ZM-311.0 -53.0V-377.0H381.0V-251.0H-174.0V-53.0Z"/></g>
<g fill="black" opacity=".8" transform="translate(1200 700) scale(0.1 -0.1)"><path d="M0.0 0.0V-308.0H143.0V0.0ZM323.0 -47.0V-413.0H461.0V-47.0ZM-305.0 -51.0V-380.0H386.0V-242.0H-179.0V-51.0Z"/></g>
<g fill="red" transform="translate(1300 700) scale(0.1 -0.1)"><path d="M0.0 0.0V-706.0H29.0V0.0ZM145.0 -160.0V-769.0H174.0V-160.0ZM-135.0 -154.0V-721.0H161.0V-691.0H-105.0V-154.0Z"/></g>
<g fill="black" opacity=".8" transform="translate(1300 700) scale(0.1 -0.1)"><path d="M0.0 0.0V-703.0H28.0V0.0ZM146.0 -158.0V-767.0H173.0V-158.0ZM-135.0 -159.0V-724.0H151.0V-695.0H-110.0V-159.0Z"/></g>
<g fill="red" transform="translate(1400 700) scale(0.1 -0.1)"><path d="M0.0 0.0V-725.0H124.0V0.0ZM154.0 -148.0V-840.0H257.0V-148.0ZM-131.0 -151.0V-802.0H186.0V-678.0H-33.0V-151.0Z"/></g>
<g fill="black" opacity=".8" transform="translate(1400 700) scale(0.1 -0.1)"><path d="M0.0 0.0V-729.0H114.0V0.0ZM158.0 -148.0V-843.0H257.0V-148.0ZM-128.0 -149.0V-798.0H197.0V-674.0H-32.0V-149.0Z"/></g>
<g fill="red" transform="translate(1500 700) scale(0.1 -0.1)"><path d="M0.0 0.0V-717.0H28.0V0.0ZM450.0 -397.0V-891.0H479.0V-397.0ZM-123.0 -163.0V-730.0H131.0V-700.0H-94.0V-163.0Z"/></g>
<g fill="black" opacity=".8" transform="translate(1500 700) scale(0.1 -0.1)"><path d="M0.0 0.0V-708.0H30.0V0.0ZM444.0 -394.0V-897.0H480.0V-394.0ZM-122.0 -155.0V-732.0H145.0V-699.0H-99.0V-155.0Z"/></g>
<g fill="red" transform="translate(1600 700) scale(0.1 -0.1)"><path d="M0.0 0.0V-748.0H119.0V0.0ZM450.0 -435.0V-935.0H594.0V-435.0ZM-120.0 -149.0V-807.0H195.0V-683.0H-24.0V-149.0Z"/></g>
<g fill="black" opacity=".8" transform="translate(1600 700) scale(0.1 -0.1)"><path d="M0.0 0.0V-754.0H122.0V0.0ZM451.0 -440.0V-928.0H596.0V-440.0ZM-122.0 -152.0V-808.0H184.0V-685.0H-16.0V-152.0Z"/></g>
<g fill="red" transform="translate(100 800) scale(0.1 -0.1)"><path d="M0.0 0.0V-706.0H30.0V0.0ZM118.0 -155.0V-755.0H147.0V-155.0ZM-118.0 -157.0V-724.0H139.0V-694.0H-89.0V-157.0Z"/></g>
<g fill="black" opacity=".8" transform="translate(100 800) scale(0.1 -0.1)"><path d="M0.0 0.0V-707.0H27.0V0.0ZM117.0 -156.0V-759.0H143.0V-156.0ZM-118.0 -157.0V-724.0H133.0V-692.0H-91.0V-157.0Z"/></g>
<g fill="red" transform="translate(200 800) scale(0.1 -0.1)"><path d="M0.0 0.0V-743.0H109.0V0.0ZM129.0 -150.0V-852.0H221.0V-150.0ZM-116.0 -148.0V-806.0H172.0V-682.0H-22.0V-148.0Z"/></g>
<g fill="black" opacity=".8" transform="translate(200 800) scale(0.1 -0.1)"><path d="M0.0 0.0V-742.0H106.0V0.0ZM135.0 -148.0V-849.0H222.0V-148.0ZM-112.0 -150.0V-807.0H179.0V-682.0H-25.0V-150.0Z"/></g>
<g fill="red" transform="translate(300 800) scale(0.1 -0.1)"><path d="M0.0 0.0V-520.0H30.0V0.0ZM425.0 -589.0V-774.0H454.0V-589.0ZM-81.0 -595.0V-739.0H441.0V-710.0H-52.0V-595.0Z"/></g>
<g fill="black" opacity=".8" transform="translate(300 800) scale(0.1 -0.1)"><path d="M0.0 0.0V-519.0H28.0V0.0ZM429.0 -577.0V-776.0H449.0V-577.0ZM-95.0 -581.0V-737.0H446.0V-712.0H-55.0V-581.0Z"/></g>
<g fill="red" transform="translate(400 800) scale(0.1 -0.1)"><path d="M0.0 0.0V-549.0H144.0V0.0ZM347.0 -637.0V-853.0H478.0V-637.0ZM-90.0 -637.0V-827.0H446.0V-719.0H41.0V-637.0Z"/></g>
<g fill="black" opacity=".8" transform="translate(400 800) scale(0.1 -0.1)"><path d="M0.0 0.0V-548.0H141.0V0.0ZM348.0 -648.0V-849.0H477.0V-648.0ZM-87.0 -645.0V-826.0H442.0V-727.0H53.0V-645.0Z"/></g>
<g fill="red" transform="translate(500 800) scale(0.1 -0.1)"><path d="M0.0 0.0V-711.0H30.0V0.0ZM104.0 -157.0V-757.0H134.0V-157.0ZM-108.0 -159.0V-726.0H120.0V-696.0H-78.0V-159.0Z"/></g>
<g fill="black" opacity=".8" transform="translate(500 800) scale(0.1 -0.1)"><path d="M0.0 0.0V-710.0H27.0V0.0ZM105.0 -159.0V-759.0H133.0V-159.0ZM-112.0 -157.0V-724.0H124.0V-693.0H-83.0V-157.0Z"/></g>
<g fill="red" transform="translate(600 800) scale(0.1 -0.1)"><path d="M0.0 0.0V-743.0H102.0V0.0ZM125.0 -150.0V-852.0H212.0V-150.0ZM-112.0 -148.0V-802.0H176.0V-678.0H-22.0V-148.0Z"/></g>
<g fill="black" opacity=".8" transform="translate(600 800) scale(0.1 -0.1)"><path d="M0.0 0.0V-743.0H106.0V0.0ZM125.0 -149.0V-850.0H212.0V-149.0ZM-107.0 -148.0V-804.0H172.0V-682.0H-17.0V-148.0Z"/></g>
<g fill="red" transform="translate(700 800) scale(0.1 -0.1)"><path d="M0.0 0.0V-344.0H29.0V0.0ZM118.0 -365.0V-660.0H148.0V-365.0ZM-550.0 -363.0V-609.0H141.0V-577.0H-520.0V-363.0Z"/></g>
<g fill="black" opacity=".8" transform="translate(700 800) scale(0.1 -0.1)"><path d="M0.0 0.0V-355.0H26.0V0.0ZM100.0 -369.0V-656.0H153.0V-369.0ZM-558.0 -369.0V-604.0H144.0V-571.0H-538.0V-369.0Z"/></g>
<g fill="red" transform="translate(800 800) scale(0.1 -0.1)"><path d="M0.0 0.0V-351.0H143.0V0.0ZM76.0 -375.0V-690.0H218.0V-375.0ZM-556.0 -371.0V-649.0H173.0V-516.0H-417.0V-371.0Z"/></g>
<g fill="black" opacity=".8" transform="translate(800 800) scale(0.1 -0.1)"><path d="M0.0 0.0V-344.0H138.0V0.0ZM88.0 -368.0V-697.0H224.0V-368.0ZM-535.0 -375.0V-651.0H166.0V-517.0H-411.0V-375.0Z"/></g>
<g fill="red" transform="translate(900 800) scale(0.1 -0.1)"><path d="M0.0 0.0V-706.0H29.0V0.0ZM121.0 -155.0V-755.0H151.0V-155.0ZM-128.0 -157.0V-724.0H137.0V-694.0H-98.0V-157.0Z"/></g>
<g fill="black" opacity=".8" transform="translate(900 800) scale(0.1 -0.1)"><path d="M0.0 0.0V-706.0H29.0V0.0ZM120.0 -157.0V-756.0H152.0V-157.0ZM-126.0 -155.0V-723.0H140.0V-694.0H-97.0V-155.0Z"/></g>
<g fill="red" transform="translate(1000 800) scale(0.1 -0.1)"><path d="M0.0 0.0V-743.0H118.0V0.0ZM143.0 -150.0V-852.0H239.0V-150.0ZM-119.0 -148.0V-806.0H196.0V-682.0H-23.0V-148.0Z"/></g>
<g fill="black" opacity=".8" transform="translate(1000 800) scale(0.1 -0.1)"><path d="M0.0 0.0V-741.0H117.0V0.0ZM143.0 -149.0V-851.0H239.0V-149.0ZM-122.0 -148.0V-806.0H195.0V-684.0H-25.0V-148.0Z"/></g>
<g fill="red" transform="translate(1100 800) scale(0.1 -0.1)"><path d="M0.0 0.0V-721.0H28.0V0.0ZM123.0 -160.0V-762.0H153.0V-160.0ZM-124.0 -163.0V-730.0H134.0V-700.0H-94.0V-163.0Z"/></g>
<g fill="black" opacity=".8" transform="translate(1100 800) scale(0.1 -0.1)"><path d="M0.0 0.0V-723.0H28.0V0.0ZM122.0 -160.0V-764.0H148.0V-160.0ZM-126.0 -160.0V-729.0H139.0V-698.0H-97.0V-160.0Z"/></g>
<g fill="red" transform="translate(1200 800) scale(0.1 -0.1)"><path d="M0.0 0.0V-758.0H106.0V0.0ZM130.0 -150.0V-852.0H232.0V-150.0ZM-125.0 -149.0V-807.0H192.0V-683.0H-27.0V-149.0Z"/></g>
<g fill="black" opacity=".8" transform="translate(1200 800) scale(0.1 -0.1)"><path d="M0.0 0.0V-755.0H112.0V0.0ZM138.0 -150.0V-851.0H231.0V-150.0ZM-121.0 -152.0V-809.0H187.0V-684.0H-26.0V-152.0Z"/></g>
<g fill="red" transform="translate(1300 800) scale(0.1 -0.1)"><path d="M0.0 0.0V-711.0H29.0V0.0ZM482.0 -474.0V-827.0H511.0V-474.0ZM-134.0 -159.0V-726.0H135.0V-696.0H-104.0V-159.0Z"/></g>
<g fill="black" opacity=".8" transform="translate(1300 800) scale(0.1 -0.1)"><path d="M0.0 0.0V-707.0H30.0V0.0ZM485.0 -479.0V-835.0H529.0V-479.0ZM-122.0 -152.0V-726.0H133.0V-687.0H-109.0V-152.0Z"/></g>
<g fill="red" transform="translate(1400 800) scale(0.1 -0.1)"><path d="M0.0 0.0V-743.0H109.0V0.0ZM522.0 -540.0V-873.0H648.0V-540.0ZM-121.0 -148.0V-802.0H173.0V-678.0H-25.0V-148.0Z"/></g>
<g fill="black" opacity=".8" transform="translate(1400 800) scale(0.1 -0.1)"><path d="M0.0 0.0V-747.0H121.0V0.0ZM502.0 -538.0V-868.0H643.0V-538.0ZM-122.0 -149.0V-809.0H177.0V-679.0H-29.0V-149.0Z"/></g>
<g fill="red" transform="translate(1500 800) scale(0.1 -0.1)"><path d="M0.0 0.0V-706.0H29.0V0.0ZM117.0 -155.0V-769.0H146.0V-155.0ZM-124.0 -157.0V-724.0H131.0V-694.0H-94.0V-157.0Z"/></g>
<g fill="black" opacity=".8" transform="translate(1500 800) scale(0.1 -0.1)"><path d="M0.0 0.0V-709.0H28.0V0.0ZM116.0 -155.0V-763.0H146.0V-155.0ZM-125.0 -157.0V-726.0H138.0V-696.0H-94.0V-157.0Z"/></g>
<g fill="red" transform="translate(1600 800) scale(0.1 -0.1)"><path d="M0.0 0.0V-743.0H110.0V0.0ZM131.0 -144.0V-846.0H233.0V-144.0ZM-122.0 -148.0V-806.0H199.0V-682.0H-20.0V-148.0Z"/></g>
<g fill="black" opacity=".8" transform="translate(1600 800) scale(0.1 -0.1)"><path d="M0.0 0.0V-739.0H115.0V0.0ZM136.0 -144.0V-853.0H231.0V-144.0ZM-120.0 -148.0V-804.0H191.0V-681.0H-21.0V-148.0Z"/></g>
<g fill="red" transform="translate(100 900) scale(0.1 -0.1)"><path d="M0.0 0.0V-717.0H28.0V0.0ZM118.0 -160.0V-760.0H147.0V-160.0ZM-122.0 -163.0V-730.0H132.0V-700.0H-93.0V-163.0Z"/></g>
<g fill="black" opacity=".8" transform="translate(100 900) scale(0.1 -0.1)"><path d="M0.0 0.0V-717.0H29.0V0.0ZM117.0 -160.0V-760.0H149.0V-160.0ZM-125.0 -159.0V-729.0H136.0V-700.0H-94.0V-159.0Z"/></g>
<g fill="red" transform="translate(200 900) scale(0.1 -0.1)"><path d="M0.0 0.0V-748.0H119.0V0.0ZM138.0 -150.0V-852.0H237.0V-150.0ZM-123.0 -149.0V-807.0H196.0V-683.0H-23.0V-149.0Z"/></g>
<g fill="black" opacity=".8" transform="translate(200 900) scale(0.1 -0.1)"><path d="M0.0 0.0V-747.0H119.0V0.0ZM139.0 -150.0V-851.0H237.0V-150.0ZM-121.0 -150.0V-807.0H192.0V-687.0H-21.0V-150.0Z"/></g>
<g fill="red" transform="translate(300 900) scale(0.1 -0.1)"><path d="M0.0 0.0V-714.0H30.0V0.0ZM111.0 -162.0V-767.0H140.0V-162.0ZM-115.0 -164.0V-731.0H126.0V-701.0H-86.0V-164.0Z"/></g>
<g fill="black" opacity=".8" transform="translate(300 900) scale(0.1 -0.1)"><path d="M0.0 0.0V-706.0H27.0V0.0ZM114.0 -164.0V-766.0H141.0V-164.0ZM-118.0 -161.0V-733.0H129.0V-703.0H-91.0V-161.0Z"/></g>
<g fill="red" transform="translate(400 900) scale(0.1 -0.1)"><path d="M0.0 0.0V-716.0H108.0V0.0ZM131.0 -150.0V-839.0H218.0V-150.0ZM-111.0 -149.0V-800.0H178.0V-676.0H-23.0V-149.0Z"/></g>
<g fill="black" opacity=".8" transform="translate(400 900) scale(0.1 -0.1)"><path d="M0.0 0.0V-723.0H108.0V0.0ZM127.0 -149.0V-839.0H218.0V-149.0ZM-109.0 -149.0V-798.0H176.0V-678.0H-16.0V-149.0Z"/></g>
<g fill="red" transform="translate(500 900) scale(0.1 -0.1)"><path d="M0.0 0.0V-717.0H28.0V0.0ZM111.0 -160.0V-760.0H140.0V-160.0ZM-115.0 -163.0V-730.0H128.0V-700.0H-86.0V-163.0Z"/></g>
<g fill="black" opacity=".8" transform="translate(500 900) scale(0.1 -0.1)"><path d="M0.0 0.0V-717.0H27.0V0.0ZM109.0 -161.0V-761.0H137.0V-161.0ZM-118.0 -159.0V-729.0H138.0V-698.0H-89.0V-159.0Z"/></g>
<g fill="red" transform="translate(600 900) scale(0.1 -0.1)"><path d="M0.0 0.0V-748.0H101.0V0.0ZM124.0 -150.0V-852.0H217.0V-150.0ZM-117.0 -149.0V-807.0H198.0V-683.0H-21.0V-149.0Z"/></g>
<g fill="black" opacity=".8" transform="translate(600 900) scale(0.1 -0.1)"><path d="M0.0 0.0V-747.0H110.0V0.0ZM128.0 -150.0V-852.0H217.0V-150.0ZM-112.0 -151.0V-809.0H188.0V-684.0H-19.0V-151.0Z"/></g>
<g fill="red" transform="translate(700 900) scale(0.1 -0.1)"><path d="M0.0 0.0V-706.0H30.0V0.0ZM443.0 -311.0V-840.0H472.0V-311.0ZM-113.0 -157.0V-724.0H124.0V-694.0H-84.0V-157.0Z"/></g>
<g fill="black" opacity=".8" transform="translate(700 900) scale(0.1 -0.1)"><path d="M0.0 0.0V-704.0H31.0V0.0ZM447.0 -314.0V-825.0H476.0V-314.0ZM-111.0 -154.0V-732.0H140.0V-694.0H-96.0V-154.0Z"/></g>
<g fill="red" transform="translate(800 900) scale(0.1 -0.1)"><path d="M0.0 0.0V-743.0H118.0V0.0ZM452.0 -351.0V-828.0H591.0V-351.0ZM-119.0 -148.0V-806.0H196.0V-682.0H-23.0V-148.0Z"/></g>
<g fill="black" opacity=".8" transform="translate(800 900) scale(0.1 -0.1)"><path d="M0.0 0.0V-743.0H128.0V0.0ZM444.0 -350.0V-844.0H592.0V-350.0ZM-115.0 -148.0V-801.0H177.0V-679.0H-15.0V-148.0Z"/></g>
<g fill="red" transform="translate(900 900) scale(0.1 -0.1)"><path d="M0.0 0.0V-712.0H28.0V0.0ZM127.0 -166.0V-762.0H154.0V-166.0ZM-133.0 -160.0V-727.0H149.0V-697.0H-104.0V-160.0Z"/></g>
<g fill="black" opacity=".8" transform="translate(900 900) scale(0.1 -0.1)"><path d="M0.0 0.0V-718.0H30.0V0.0ZM129.0 -161.0V-761.0H160.0V-161.0ZM-132.0 -160.0V-723.0H144.0V-697.0H-102.0V-160.0Z"/></g>
<g fill="red" transform="translate(1000 900) scale(0.1 -0.1)"><path d="M0.0 0.0V-758.0H129.0V0.0ZM153.0 -150.0V-852.0H256.0V-150.0ZM-126.0 -153.0V-804.0H193.0V-680.0H-26.0V-153.0Z"/></g>
<g fill="black" opacity=".8" transform="translate(1000 900) scale(0.1 -0.1)"><path d="M0.0 0.0V-752.0H123.0V0.0ZM150.0 -154.0V-853.0H252.0V-154.0ZM-130.0 -152.0V-804.0H199.0V-685.0H-27.0V-152.0Z"/></g>
<g fill="red" transform="translate(1100 900) scale(0.1 -0.1)"><path d="M0.0 0.0V-710.0H29.0V0.0ZM114.0 -163.0V-763.0H143.0V-163.0ZM-123.0 -166.0V-733.0H121.0V-703.0H-94.0V-166.0Z"/></g>
<g fill="black" opacity=".8" transform="translate(1100 900) scale(0.1 -0.1)"><path d="M0.0 0.0V-711.0H28.0V0.0ZM110.0 -163.0V-763.0H142.0V-163.0ZM-125.0 -161.0V-733.0H134.0V-702.0H-93.0V-161.0Z"/></g>
<g fill="red" transform="translate(1200 900) scale(0.1 -0.1)"><path d="M0.0 0.0V-738.0H109.0V0.0ZM127.0 -149.0V-851.0H225.0V-149.0ZM-119.0 -148.0V-806.0H202.0V-682.0H-17.0V-148.0Z"/></g>
<g fill="black" opacity=".8" transform="translate(1200 900) scale(0.1 -0.1)"><path d="M0.0 0.0V-735.0H116.0V0.0ZM130.0 -150.0V-850.0H226.0V-150.0ZM-118.0 -150.0V-807.0H190.0V-684.0H-17.0V-150.0Z"/></g>
<g fill="red" transform="translate(1300 900) scale(0.1 -0.1)"><path d="M0.0 0.0V-717.0H27.0V0.0ZM117.0 -160.0V-760.0H148.0V-160.0ZM-120.0 -163.0V-730.0H134.0V-700.0H-91.0V-163.0Z"/></g>
<g fill="black" opacity=".8" transform="translate(1300 900) scale(0.1 -0.1)"><path d="M0.0 0.0V-716.0H29.0V0.0ZM118.0 -160.0V-760.0H149.0V-160.0ZM-123.0 -159.0V-728.0H138.0V-700.0H-93.0V-159.0Z"/></g>
<g fill="red" transform="translate(1400 900) scale(0.1 -0.1)"><path d="M0.0 0.0V-748.0H119.0V0.0ZM142.0 -150.0V-852.0H235.0V-150.0ZM-119.0 -149.0V-807.0H196.0V-683.0H-23.0V-149.0Z"/></g>
<g fill="black" opacity=".8" transform="translate(1400 900) scale(0.1 -0.1)"><path d="M0.0 0.0V-747.0H118.0V0.0ZM139.0 -151.0V-852.0H236.0V-151.0ZM-119.0 -150.0V-807.0H193.0V-687.0H-20.0V-150.0Z"/></g>
<g fill="red" transform="translate(1500 900) scale(0.1 -0.1)"><path d="M0.0 0.0V-717.0H29.0V0.0ZM108.0 -160.0V-760.0H137.0V-160.0ZM-115.0 -163.0V-730.0H126.0V-700.0H-86.0V-163.0Z"/></g>
<g fill="black" opacity=".8" transform="translate(1500 900) scale(0.1 -0.1)"><path d="M0.0 0.0V-716.0H29.0V0.0ZM110.0 -160.0V-758.0H144.0V-160.0ZM-120.0 -158.0V-727.0H131.0V-700.0H-89.0V-158.0Z"/></g>
<g fill="red" transform="translate(1600 900) scale(0.1 -0.1)"><path d="M0.0 0.0V-748.0H119.0V0.0ZM142.0 -150.0V-852.0H235.0V-150.0ZM-119.0 -149.0V-807.0H196.0V-683.0H-23.0V-149.0Z"/></g>
<g fill="black" opacity=".8" transform="translate(1600 900) scale(0.1 -0.1)"><path d="M0.0 0.0V-748.0H120.0V0.0ZM135.0 -151.0V-853.0H233.0V-151.0ZM-117.0 -150.0V-807.0H190.0V-689.0H-17.0V-150.0Z"/></g>
<g fill="red" transform="translate(100 1000) scale(0.1 -0.1)"><path d="M0.0 0.0V-717.0H28.0V0.0ZM109.0 -160.0V-760.0H137.0V-160.0ZM-119.0 -163.0V-730.0H125.0V-700.0H-90.0V-163.0Z"/></g>
<g fill="black" opacity=".8" transform="translate(100 1000) scale(0.1 -0.1)"><path d="M0.0 0.0V-717.0H29.0V0.0ZM108.0 -161.0V-759.0H140.0V-161.0ZM-122.0 -159.0V-728.0H133.0V-700.0H-91.0V-159.0Z"/></g>
<g fill="red" transform="translate(200 1000) scale(0.1 -0.1)"><path d="M0.0 0.0V-748.0H116.0V0.0ZM134.0 -150.0V-852.0H227.0V-150.0ZM-117.0 -149.0V-807.0H198.0V-683.0H-21.0V-149.0Z"/></g>
<g fill="black" opacity=".8" transform="translate(200 1000) scale(0.1 -0.1)"><path d="M0.0 0.0V-747.0H118.0V0.0ZM132.0 -150.0V-852.0H227.0V-150.0ZM-117.0 -150.0V-807.0H190.0V-687.0H-18.0V-150.0Z"/></g>
<g fill="red" transform="translate(300 1000) scale(0.1 -0.1)"><path d="M0.0 0.0V-717.0H28.0V0.0ZM117.0 -160.0V-760.0H145.0V-160.0ZM-120.0 -163.0V-730.0H134.0V-700.0H-91.0V-163.0Z"/></g>
<g fill="black" opacity=".8" transform="translate(300 1000) scale(0.1 -0.1)"><path d="M0.0 0.0V-719.0H29.0V0.0ZM119.0 -161.0V-754.0H149.0V-161.0ZM-122.0 -160.0V-730.0H138.0V-701.0H-94.0V-160.0Z"/></g>
<g fill="red" transform="translate(400 1000) scale(0.1 -0.1)"><path d="M0.0 0.0V-748.0H119.0V0.0ZM142.0 -150.0V-834.0H235.0V-150.0ZM-119.0 -149.0V-807.0H196.0V-683.0H-23.0V-149.0Z"/></g>
<g fill="black" opacity=".8" transform="translate(400 1000) scale(0.1 -0.1)"><path d="M0.0 0.0V-745.0H118.0V0.0ZM138.0 -150.0V-840.0H235.0V-150.0ZM-118.0 -150.0V-805.0H192.0V-685.0H-20.0V-150.0Z"/></g>
<g fill="red" transform="translate(500 1000) scale(0.1 -0.1)"><path d="M0.0 0.0V-719.0H29.0V0.0ZM99.0 -162.0V-767.0H128.0V-162.0ZM-106.0 -164.0V-731.0H114.0V-701.0H-77.0V-164.0Z"/></g>
<g fill="black" opacity=".8" transform="translate(500 1000) scale(0.1 -0.1)"><path d="M0.0 0.0V-709.0H25.0V0.0ZM100.0 -166.0V-766.0H125.0V-166.0ZM-111.0 -161.0V-734.0H126.0V-702.0H-84.0V-161.0Z"/></g>
<g fill="red" transform="translate(600 1000) scale(0.1 -0.1)"><path d="M0.0 0.0V-716.0H90.0V0.0ZM112.0 -150.0V-839.0H195.0V-150.0ZM-107.0 -149.0V-800.0H181.0V-676.0H-20.0V-149.0Z"/></g>
<g fill="black" opacity=".8" transform="translate(600 1000) scale(0.1 -0.1)"><path d="M0.0 0.0V-724.0H100.0V0.0ZM112.0 -149.0V-839.0H196.0V-149.0ZM-101.0 -148.0V-799.0H169.0V-676.0H-12.0V-148.0Z"/></g>
<g fill="red" transform="translate(700 1000) scale(0.1 -0.1)"><path d="M0.0 0.0V-706.0H30.0V0.0ZM104.0 -155.0V-755.0H133.0V-155.0ZM-111.0 -157.0V-724.0H124.0V-694.0H-81.0V-157.0Z"/></g>
<g fill="black" opacity=".8" transform="translate(700 1000) scale(0.1 -0.1)"><path d="M0.0 0.0V-706.0H28.0V0.0ZM104.0 -157.0V-754.0H135.0V-157.0ZM-116.0 -155.0V-722.0H132.0V-692.0H-86.0V-155.0Z"/></g>
<g fill="red" transform="translate(800 1000) scale(0.1 -0.1)"><path d="M0.0 0.0V-743.0H105.0V0.0ZM129.0 -150.0V-852.0H222.0V-150.0ZM-118.0 -148.0V-806.0H197.0V-682.0H-22.0V-148.0Z"/></g>
<g fill="black" opacity=".8" transform="translate(800 1000) scale(0.1 -0.1)"><path d="M0.0 0.0V-743.0H113.0V0.0ZM129.0 -149.0V-854.0H219.0V-149.0ZM-112.0 -148.0V-807.0H188.0V-685.0H-18.0V-148.0Z"/></g>
<g fill="red" transform="translate(900 1000) scale(0.1 -0.1)"><path d="M0.0 0.0V-717.0H29.0V0.0ZM111.0 -160.0V-760.0H140.0V-160.0ZM-115.0 -163.0V-730.0H129.0V-700.0H-86.0V-163.0Z"/></g>
<g fill="black" opacity=".8" transform="translate(900 1000) scale(0.1 -0.1)"><path d="M0.0 0.0V-717.0H27.0V0.0ZM109.0 -161.0V-761.0H137.0V-161.0ZM-118.0 -159.0V-729.0H139.0V-698.0H-89.0V-159.0Z"/></g>
<g fill="red" transform="translate(1000 1000) scale(0.1 -0.1)"><path d="M0.0 0.0V-748.0H101.0V0.0ZM124.0 -150.0V-852.0H217.0V-150.0ZM-117.0 -149.0V-807.0H198.0V-683.0H-21.0V-149.0Z"/></g>
<g fill="black" opacity=".8" transform="translate(1000 1000) scale(0.1 -0.1)"><path d="M0.0 0.0V-747.0H109.0V0.0ZM128.0 -150.0V-852.0H217.0V-150.0ZM-112.0 -151.0V-809.0H188.0V-684.0H-19.0V-151.0Z"/></g>
<g fill="red" transform="translate(1100 1000) scale(0.1 -0.1)"><path d="M0.0 0.0V-706.0H29.0V0.0ZM115.0 -155.0V-755.0H144.0V-155.0ZM-124.0 -157.0V-724.0H124.0V-694.0H-94.0V-157.0Z"/></g>
<g fill="black" opacity=".8" transform="translate(1100 1000) scale(0.1 -0.1)"><path d="M0.0 0.0V-715.0H26.0V0.0ZM122.0 -149.0V-755.0H143.0V-149.0ZM-127.0 -146.0V-719.0H122.0V-688.0H-101.0V-146.0Z"/></g>
<g fill="red" transform="translate(1200 1000) scale(0.1 -0.1)"><path d="M0.0 0.0V-725.0H106.0V0.0ZM134.0 -120.0V-800.0H216.0V-120.0ZM-118.0 -118.0V-762.0H159.0V-638.0H-29.0V-118.0Z"/></g>
<g fill="black" opacity=".8" transform="translate(1200 1000) scale(0.1 -0.1)"><path d="M0.0 0.0V-715.0H103.0V0.0ZM125.0 -126.0V-801.0H219.0V-126.0ZM-116.0 -126.0V-766.0H160.0V-646.0H-22.0V-126.0Z"/></g>
<g fill="red" transform="translate(1300 1000) scale(0.1 -0.1)"><path d="M0.0 0.0V-719.0H29.0V0.0ZM99.0 -162.0V-767.0H128.0V-162.0ZM-106.0 -164.0V-731.0H114.0V-701.0H-77.0V-164.0Z"/></g>
<g fill="black" opacity=".8" transform="translate(1300 1000) scale(0.1 -0.1)"><path d="M0.0 0.0V-709.0H26.0V0.0ZM99.0 -166.0V-765.0H127.0V-166.0ZM-111.0 -161.0V-733.0H126.0V-703.0H-82.0V-161.0Z"/></g>
<g fill="red" transform="translate(1400 1000) scale(0.1 -0.1)"><path d="M0.0 0.0V-716.0H101.0V0.0ZM116.0 -150.0V-839.0H199.0V-150.0ZM-103.0 -149.0V-800.0H185.0V-676.0H-16.0V-149.0Z"/></g>
<g fill="black" opacity=".8" transform="translate(1400 1000) scale(0.1 -0.1)"><path d="M0.0 0.0V-724.0H105.0V0.0ZM113.0 -149.0V-839.0H201.0V-149.0ZM-101.0 -148.0V-798.0H174.0V-678.0H-8.0V-148.0Z"/></g>
<g fill="red" transform="translate(1500 1000) scale(0.1 -0.1)"><path d="M0.0 0.0V-711.0H30.0V0.0ZM113.0 -157.0V-757.0H142.0V-157.0ZM-115.0 -159.0V-726.0H127.0V-696.0H-85.0V-159.0Z"/></g>
<g fill="black" opacity=".8" transform="translate(1500 1000) scale(0.1 -0.1)"><path d="M0.0 0.0V-710.0H27.0V0.0ZM113.0 -159.0V-760.0H141.0V-159.0ZM-118.0 -157.0V-724.0H128.0V-694.0H-88.0V-157.0Z"/></g>
<g fill="red" transform="translate(1600 1000) scale(0.1 -0.1)"><path d="M0.0 0.0V-743.0H109.0V0.0ZM129.0 -150.0V-852.0H225.0V-150.0ZM-116.0 -148.0V-802.0H178.0V-678.0H-20.0V-148.0Z"/></g>
<g fill="black" opacity=".8" transform="translate(1600 1000) scale(0.1 -0.1)"><path d="M0.0 0.0V-743.0H110.0V0.0ZM132.0 -149.0V-849.0H224.0V-149.0ZM-113.0 -149.0V-803.0H178.0V-682.0H-19.0V-149.0Z"/></g>
<g fill="red" transform="translate(100 1100) scale(0.1 -0.1)"><path d="M0.0 0.0V-243.0H30.0V0.0ZM343.0 -38.0V-307.0H373.0V-38.0ZM-333.0 -38.0V-257.0H357.0V-228.0H-303.0V-38.0Z"/></g>
<g fill="black" opacity=".8" transform="translate(100 1100) scale(0.1 -0.1)"><path d="M0.0 0.0V-248.0H28.0V0.0ZM334.0 -34.0V-315.0H358.0V-34.0ZM-323.0 -39.0V-263.0H351.0V-227.0H-295.0V-39.0Z"/></g>
<g fill="red" transform="translate(200 1100) scale(0.1 -0.1)"><path d="M0.0 0.0V-261.0H148.0V0.0ZM308.0 -31.0V-355.0H450.0V-31.0ZM-301.0 -32.0V-315.0H375.0V-184.0H-162.0V-32.0Z"/></g>
<g fill="black" opacity=".8" transform="translate(200 1100) scale(0.1 -0.1)"><path d="M0.0 0.0V-255.0H139.0V0.0ZM325.0 -32.0V-349.0H458.0V-32.0ZM-305.0 -36.0V-315.0H385.0V-178.0H-177.0V-36.0Z"/></g>
<g fill="red" transform="translate(300 1100) scale(0.1 -0.1)"><path d="M0.0 0.0V-706.0H30.0V0.0ZM106.0 -155.0V-755.0H135.0V-155.0ZM-115.0 -157.0V-724.0H120.0V-694.0H-85.0V-157.0Z"/></g>
<g fill="black" opacity=".8" transform="translate(300 1100) scale(0.1 -0.1)"><path d="M0.0 0.0V-706.0H28.0V0.0ZM107.0 -157.0V-755.0H138.0V-157.0ZM-118.0 -155.0V-723.0H123.0V-692.0H-87.0V-155.0Z"/></g>
<g fill="red" transform="translate(400 1100) scale(0.1 -0.1)"><path d="M0.0 0.0V-743.0H109.0V0.0ZM132.0 -150.0V-852.0H225.0V-150.0ZM-117.0 -148.0V-806.0H180.0V-682.0H-21.0V-148.0Z"/></g>
<g fill="black" opacity=".8" transform="translate(400 1100) scale(0.1 -0.1)"><path d="M0.0 0.0V-743.0H112.0V0.0ZM131.0 -149.0V-852.0H223.0V-149.0ZM-114.0 -148.0V-806.0H178.0V-685.0H-20.0V-148.0Z"/></g>
<g fill="red" transform="translate(500 1100) scale(0.1 -0.1)"><path d="M0.0 0.0V-706.0H30.0V0.0ZM104.0 -155.0V-755.0H133.0V-155.0ZM-111.0 -157.0V-724.0H124.0V-694.0H-81.0V-157.0Z"/></g>
<g fill="black" opacity=".8" transform="translate(500 1100) scale(0.1 -0.1)"><path d="M0.0 0.0V-705.0H29.0V0.0ZM106.0 -157.0V-752.0H141.0V-157.0ZM-117.0 -154.0V-721.0H129.0V-693.0H-86.0V-154.0Z"/></g>
<g fill="red" transform="translate(600 1100) scale(0.1 -0.1)"><path d="M0.0 0.0V-743.0H118.0V0.0ZM142.0 -150.0V-852.0H235.0V-150.0ZM-119.0 -148.0V-806.0H196.0V-682.0H-23.0V-148.0Z"/></g>
<g fill="black" opacity=".8" transform="translate(600 1100) scale(0.1 -0.1)"><path d="M0.0 0.0V-743.0H120.0V0.0ZM136.0 -149.0V-854.0H232.0V-149.0ZM-115.0 -147.0V-806.0H190.0V-688.0H-16.0V-147.0Z"/></g>
<g fill="red" transform="translate(700 1100) scale(0.1 -0.1)"><path d="M0.0 0.0V-717.0H29.0V0.0ZM105.0 -160.0V-760.0H135.0V-160.0ZM-109.0 -163.0V-730.0H125.0V-700.0H-80.0V-163.0Z"/></g>
<g fill="black" opacity=".8" transform="translate(700 1100) scale(0.1 -0.1)"><path d="M0.0 0.0V-716.0H27.0V0.0ZM105.0 -161.0V-759.0H134.0V-161.0ZM-115.0 -159.0V-728.0H135.0V-698.0H-85.0V-159.0Z"/></g>
<g fill="red" transform="translate(800 1100) scale(0.1 -0.1)"><path d="M0.0 0.0V-748.0H101.0V0.0ZM124.0 -150.0V-852.0H217.0V-150.0ZM-117.0 -149.0V-807.0H198.0V-683.0H-21.0V-149.0Z"/></g>
<g fill="black" opacity=".8" transform="translate(800 1100) scale(0.1 -0.1)"><path d="M0.0 0.0V-748.0H111.0V0.0ZM126.0 -150.0V-853.0H215.0V-150.0ZM-110.0 -150.0V-809.0H187.0V-686.0H-16.0V-150.0Z"/></g>
<g fill="red" transform="translate(900 1100) scale(0.1 -0.1)"><path d="M0.0 0.0V-717.0H28.0V0.0ZM116.0 -160.0V-760.0H147.0V-160.0ZM-117.0 -163.0V-730.0H137.0V-700.0H-88.0V-163.0Z"/></g>
<g fill="black" opacity=".8" transform="translate(900 1100) scale(0.1 -0.1)"><path d="M0.0 0.0V-717.0H28.0V0.0ZM116.0 -160.0V-761.0H144.0V-160.0ZM-120.0 -160.0V-729.0H141.0V-699.0H-92.0V-160.0Z"/></g>
<g fill="red" transform="translate(1000 1100) scale(0.1 -0.1)"><path d="M0.0 0.0V-748.0H109.0V0.0ZM132.0 -150.0V-852.0H225.0V-150.0ZM-119.0 -149.0V-807.0H196.0V-683.0H-23.0V-149.0Z"/></g>
<g fill="black" opacity=".8" transform="translate(1000 1100) scale(0.1 -0.1)"><path d="M0.0 0.0V-747.0H112.0V0.0ZM134.0 -150.0V-851.0H226.0V-150.0ZM-115.0 -151.0V-808.0H192.0V-685.0H-20.0V-151.0Z"/></g>
<g fill="red" transform="translate(1100 1100) scale(0.1 -0.1)"><path d="M0.0 0.0V-714.0H29.0V0.0ZM109.0 -162.0V-767.0H138.0V-162.0ZM-110.0 -164.0V-731.0H131.0V-701.0H-81.0V-164.0Z"/></g>
<g fill="black" opacity=".8" transform="translate(1100 1100) scale(0.1 -0.1)"><path d="M0.0 0.0V-707.0H25.0V0.0ZM109.0 -165.0V-767.0H133.0V-165.0ZM-112.0 -162.0V-733.0H136.0V-703.0H-87.0V-162.0Z"/></g>
<g fill="red" transform="translate(1200 1100) scale(0.1 -0.1)"><path d="M0.0 0.0V-716.0H100.0V0.0ZM117.0 -150.0V-839.0H200.0V-150.0ZM-103.0 -149.0V-800.0H183.0V-676.0H-18.0V-149.0Z"/></g>
<g fill="black" opacity=".8" transform="translate(1200 1100) scale(0.1 -0.1)"><path d="M0.0 0.0V-721.0H101.0V0.0ZM118.0 -148.0V-838.0H203.0V-148.0ZM-100.0 -149.0V-799.0H178.0V-675.0H-13.0V-149.0Z"/></g>
<g fill="red" transform="translate(1300 1100) scale(0.1 -0.1)"><path d="M0.0 0.0V-711.0H29.0V0.0ZM98.0 -157.0V-757.0H127.0V-157.0ZM-103.0 -159.0V-726.0H110.0V-696.0H-74.0V-159.0Z"/></g>
<g fill="black" opacity=".8" transform="translate(1300 1100) scale(0.1 -0.1)"><path d="M0.0 0.0V-709.0H26.0V0.0ZM98.0 -159.0V-758.0H126.0V-159.0ZM-106.0 -156.0V-724.0H121.0V-694.0H-77.0V-156.0Z"/></g>
<g fill="red" transform="translate(1400 1100) scale(0.1 -0.1)"><path d="M0.0 0.0V-743.0H99.0V0.0ZM119.0 -150.0V-852.0H204.0V-150.0ZM-101.0 -148.0V-802.0H180.0V-678.0H-18.0V-148.0Z"/></g>
<g fill="black" opacity=".8" transform="translate(1400 1100) scale(0.1 -0.1)"><path d="M0.0 0.0V-743.0H105.0V0.0ZM119.0 -149.0V-850.0H204.0V-149.0ZM-101.0 -147.0V-804.0H170.0V-684.0H-12.0V-147.0Z"/></g>
<g fill="red" transform="translate(1500 1100) scale(0.1 -0.1)"><path d="M0.0 0.0V-371.0H30.0V0.0ZM306.0 -4.0V-313.0H335.0V-4.0ZM-86.0 -381.0V-632.0H-57.0V-411.0H164.0V-381.0Z"/></g>
<g fill="black" opacity=".8" transform="translate(1500 1100) scale(0.1 -0.1)"><path d="M0.0 0.0V-362.0H37.0V0.0ZM307.0 -11.0V-312.0H362.0V-11.0ZM-60.0 -365.0V-646.0H-42.0V-394.0H139.0V-365.0Z"/></g>
<g fill="red" transform="translate(1600 1100) scale(0.1 -0.1)"><path d="M0.0 0.0V-351.0H140.0V0.0ZM309.0 4.0V-302.0H448.0V4.0ZM-87.0 -358.0V-647.0H54.0V-463.0H199.0V-358.0Z"/></g>
<g fill="black" opacity=".8" transform="translate(1600 1100) scale(0.1 -0.1)"><path d="M0.0 0.0V-360.0H172.0V0.0ZM275.0 6.0V-306.0H447.0V6.0ZM-85.0 -365.0V-652.0H37.0V-455.0H202.0V-365.0Z"/></g>
<g fill="red" transform="translate(100 1200) scale(0.1 -0.1)"><path d="M0.0 0.0V-717.0H28.0V0.0ZM111.0 -160.0V-760.0H140.0V-160.0ZM-115.0 -163.0V-730.0H128.0V-700.0H-86.0V-163.0Z"/></g>
<g fill="black" opacity=".8" transform="translate(100 1200) scale(0.1 -0.1)"><path d="M0.0 0.0V-717.0H28.0V0.0ZM108.0 -161.0V-760.0H138.0V-161.0ZM-117.0 -159.0V-729.0H139.0V-699.0H-87.0V-159.0Z"/></g>
<g fill="red" transform="translate(200 1200) scale(0.1 -0.1)"><path d="M0.0 0.0V-748.0H108.0V0.0ZM125.0 -150.0V-852.0H218.0V-150.0ZM-112.0 -149.0V-807.0H203.0V-683.0H-16.0V-149.0Z"/></g>
<g fill="black" opacity=".8" transform="translate(200 1200) scale(0.1 -0.1)"><path d="M0.0 0.0V-746.0H113.0V0.0ZM128.0 -150.0V-852.0H220.0V-150.0ZM-111.0 -150.0V-808.0H192.0V-685.0H-14.0V-150.0Z"/></g>
<g fill="red" transform="translate(300 1200) scale(0.1 -0.1)"><path d="M0.0 0.0V-710.0H29.0V0.0ZM114.0 -162.0V-762.0H143.0V-162.0ZM-119.0 -164.0V-731.0H123.0V-701.0H-89.0V-164.0Z"/></g>
<g fill="black" opacity=".8" transform="translate(300 1200) scale(0.1 -0.1)"><path d="M0.0 0.0V-711.0H27.0V0.0ZM113.0 -162.0V-765.0H140.0V-162.0ZM-119.0 -160.0V-729.0H127.0V-698.0H-90.0V-160.0Z"/></g>
<g fill="red" transform="translate(400 1200) scale(0.1 -0.1)"><path d="M0.0 0.0V-743.0H109.0V0.0ZM130.0 -150.0V-852.0H217.0V-150.0ZM-112.0 -148.0V-802.0H176.0V-678.0H-22.0V-148.0Z"/></g>
<g fill="black" opacity=".8" transform="translate(400 1200) scale(0.1 -0.1)"><path d="M0.0 0.0V-740.0H108.0V0.0ZM130.0 -151.0V-849.0H220.0V-151.0ZM-113.0 -150.0V-804.0H174.0V-682.0H-21.0V-150.0Z"/></g>
<g fill="red" transform="translate(500 1200) scale(0.1 -0.1)"><path d="M0.0 0.0V-719.0H27.0V0.0ZM99.0 -162.0V-767.0H127.0V-162.0ZM-106.0 -164.0V-731.0H114.0V-701.0H-77.0V-164.0Z"/></g>
<g fill="black" opacity=".8" transform="translate(500 1200) scale(0.1 -0.1)"><path d="M0.0 0.0V-709.0H25.0V0.0ZM100.0 -166.0V-766.0H125.0V-166.0ZM-111.0 -161.0V-734.0H126.0V-702.0H-84.0V-161.0Z"/></g>
<g fill="red" transform="translate(600 1200) scale(0.1 -0.1)"><path d="M0.0 0.0V-716.0H90.0V0.0ZM112.0 -150.0V-839.0H195.0V-150.0ZM-107.0 -149.0V-800.0H181.0V-676.0H-20.0V-149.0Z"/></g>
<g fill="black" opacity=".8" transform="translate(600 1200) scale(0.1 -0.1)"><path d="M0.0 0.0V-724.0H100.0V0.0ZM111.0 -149.0V-839.0H195.0V-149.0ZM-101.0 -148.0V-799.0H169.0V-676.0H-12.0V-148.0Z"/></g>
<g fill="red" transform="translate(700 1200) scale(0.1 -0.1)"><path d="M0.0 0.0V-711.0H30.0V0.0ZM97.0 -157.0V-757.0H126.0V-157.0ZM-97.0 -159.0V-726.0H110.0V-696.0H-67.0V-159.0Z"/></g>
<g fill="black" opacity=".8" transform="translate(700 1200) scale(0.1 -0.1)"><path d="M0.0 0.0V-709.0H25.0V0.0ZM100.0 -158.0V-761.0H123.0V-158.0ZM-100.0 -157.0V-724.0H108.0V-692.0H-74.0V-157.0Z"/></g>
<g fill="red" transform="translate(800 1200) scale(0.1 -0.1)"><path d="M0.0 0.0V-743.0H95.0V0.0ZM117.0 -150.0V-852.0H194.0V-150.0ZM-99.0 -148.0V-802.0H146.0V-678.0H-21.0V-148.0Z"/></g>
<g fill="black" opacity=".8" transform="translate(800 1200) scale(0.1 -0.1)"><path d="M0.0 0.0V-745.0H95.0V0.0ZM116.0 -150.0V-848.0H195.0V-150.0ZM-95.0 -149.0V-804.0H149.0V-683.0H-15.0V-149.0Z"/></g>
<g fill="red" transform="translate(900 1200) scale(0.1 -0.1)"><path d="M0.0 0.0V-706.0H29.0V0.0ZM124.0 -160.0V-756.0H154.0V-160.0ZM-133.0 -154.0V-721.0H139.0V-691.0H-103.0V-154.0Z"/></g>
<g fill="black" opacity=".8" transform="translate(900 1200) scale(0.1 -0.1)"><path d="M0.0 0.0V-699.0H27.0V0.0ZM123.0 -160.0V-761.0H150.0V-160.0ZM-127.0 -158.0V-724.0H135.0V-693.0H-101.0V-158.0Z"/></g>
<g fill="red" transform="translate(1000 1200) scale(0.1 -0.1)"><path d="M0.0 0.0V-725.0H113.0V0.0ZM135.0 -150.0V-852.0H229.0V-150.0ZM-116.0 -153.0V-804.0H174.0V-680.0H-25.0V-153.0Z"/></g>
<g fill="black" opacity=".8" transform="translate(1000 1200) scale(0.1 -0.1)"><path d="M0.0 0.0V-730.0H108.0V0.0ZM139.0 -150.0V-847.0H230.0V-150.0ZM-121.0 -149.0V-803.0H182.0V-678.0H-30.0V-149.0Z"/></g>
<g fill="red" transform="translate(1100 1200) scale(0.1 -0.1)"><path d="M0.0 0.0V-714.0H31.0V0.0ZM102.0 -161.0V-766.0H133.0V-161.0ZM-104.0 -162.0V-729.0H117.0V-699.0H-74.0V-162.0Z"/></g>
<g fill="black" opacity=".8" transform="translate(1100 1200) scale(0.1 -0.1)"><path d="M0.0 0.0V-705.0H25.0V0.0ZM104.0 -164.0V-766.0H127.0V-164.0ZM-107.0 -161.0V-732.0H121.0V-699.0H-82.0V-161.0Z"/></g>
<g fill="red" transform="translate(1200 1200) scale(0.1 -0.1)"><path d="M0.0 0.0V-716.0H96.0V0.0ZM117.0 -151.0V-840.0H191.0V-151.0ZM-102.0 -149.0V-800.0H164.0V-676.0H-20.0V-149.0Z"/></g>
<g fill="black" opacity=".8" transform="translate(1200 1200) scale(0.1 -0.1)"><path d="M0.0 0.0V-724.0H96.0V0.0ZM114.0 -149.0V-839.0H196.0V-149.0ZM-97.0 -148.0V-799.0H161.0V-676.0H-13.0V-148.0Z"/></g>
<g fill="red" transform="translate(1300 1200) scale(0.1 -0.1)"><path d="M0.0 0.0V-225.0H30.0V0.0ZM184.0 -41.0V-270.0H213.0V-41.0ZM-191.0 -39.0V-238.0H205.0V-208.0H-160.0V-39.0Z"/></g>
<g fill="black" opacity=".8" transform="translate(1300 1200) scale(0.1 -0.1)"><path d="M0.0 0.0V-218.0H20.0V0.0ZM180.0 -52.0V-275.0H206.0V-52.0ZM-188.0 -50.0V-243.0H201.0V-208.0H-147.0V-50.0Z"/></g>
<g fill="red" transform="translate(1400 1200) scale(0.1 -0.1)"><path d="M0.0 0.0V-185.0H115.0V0.0ZM161.0 -46.0V-285.0H272.0V-46.0ZM-160.0 -46.0V-258.0H228.0V-149.0H-47.0V-46.0Z"/></g>
<g fill="black" opacity=".8" transform="translate(1400 1200) scale(0.1 -0.1)"><path d="M0.0 0.0V-190.0H100.0V0.0ZM176.0 -35.0V-279.0H272.0V-35.0ZM-172.0 -36.0V-248.0H238.0V-158.0H-55.0V-36.0Z"/></g>
<g fill="red" transform="translate(1500 1200) scale(0.1 -0.1)"><path d="M0.0 0.0V-291.0H30.0V0.0ZM233.0 -45.0V-362.0H262.0V-45.0ZM-226.0 -48.0V-302.0H248.0V-272.0H-197.0V-48.0Z"/></g>
<g fill="black" opacity=".8" transform="translate(1500 1200) scale(0.1 -0.1)"><path d="M0.0 0.0V-293.0H24.0V0.0ZM238.0 -43.0V-364.0H263.0V-43.0ZM-232.0 -43.0V-304.0H239.0V-269.0H-190.0V-43.0Z"/></g>
<g fill="red" transform="translate(1600 1200) scale(0.1 -0.1)"><path d="M0.0 0.0V-257.0H135.0V0.0ZM221.0 -17.0V-350.0H350.0V-17.0ZM-206.0 -19.0V-309.0H263.0V-178.0H-78.0V-19.0Z"/></g>
<g fill="black" opacity=".8" transform="translate(1600 1200) scale(0.1 -0.1)"><path d="M0.0 0.0V-253.0H119.0V0.0ZM224.0 -18.0V-347.0H345.0V-18.0ZM-212.0 -21.0V-299.0H275.0V-194.0H-77.0V-21.0Z"/></g>
<g fill="red" transform="translate(100 1300) scale(0.1 -0.1)"><path d="M0.0 0.0V-490.0H29.0V0.0ZM326.0 -545.0V-739.0H356.0V-545.0ZM-60.0 -546.0V-707.0H336.0V-678.0H-29.0V-546.0Z"/></g>
<g fill="black" opacity=".8" transform="translate(100 1300) scale(0.1 -0.1)"><path d="M0.0 0.0V-482.0H24.0V0.0ZM331.0 -549.0V-741.0H355.0V-549.0ZM-67.0 -552.0V-708.0H332.0V-679.0H-25.0V-552.0Z"/></g>
<g fill="red" transform="translate(200 1300) scale(0.1 -0.1)"><path d="M0.0 0.0V-522.0H131.0V0.0ZM269.0 -622.0V-834.0H382.0V-622.0ZM-60.0 -623.0V-812.0H326.0V-705.0H51.0V-623.0Z"/></g>
<g fill="black" opacity=".8" transform="translate(200 1300) scale(0.1 -0.1)"><path d="M0.0 0.0V-528.0H119.0V0.0ZM272.0 -619.0V-830.0H377.0V-619.0ZM-66.0 -615.0V-804.0H334.0V-717.0H55.0V-615.0Z"/></g>
<g fill="red" transform="translate(300 1300) scale(0.1 -0.1)"><path d="M0.0 0.0V-803.0H30.0V0.0ZM264.0 -215.0V-885.0H294.0V-215.0ZM-256.0 -216.0V-817.0H287.0V-787.0H-227.0V-216.0Z"/></g>
<g fill="black" opacity=".8" transform="translate(300 1300) scale(0.1 -0.1)"><path d="M0.0 0.0V-801.0H34.0V0.0ZM259.0 -223.0V-886.0H281.0V-223.0ZM-241.0 -231.0V-821.0H283.0V-794.0H-219.0V-231.0Z"/></g>
<g fill="red" transform="translate(400 1300) scale(0.1 -0.1)"><path d="M0.0 0.0V-810.0H146.0V0.0ZM225.0 -222.0V-942.0H372.0V-222.0ZM-224.0 -230.0V-891.0H310.0V-757.0H-81.0V-230.0Z"/></g>
<g fill="black" opacity=".8" transform="translate(400 1300) scale(0.1 -0.1)"><path d="M0.0 0.0V-810.0H148.0V0.0ZM240.0 -214.0V-944.0H377.0V-214.0ZM-226.0 -223.0V-893.0H316.0V-739.0H-101.0V-223.0Z"/></g>
<g fill="red" transform="translate(500 1300) scale(0.1 -0.1)"><path d="M0.0 0.0V-238.0H29.0V0.0ZM215.0 -414.0V-899.0H245.0V-414.0ZM-296.0 -413.0V-846.0H230.0V-816.0H-266.0V-413.0Z"/></g>
<g fill="black" opacity=".8" transform="translate(500 1300) scale(0.1 -0.1)"><path d="M0.0 0.0V-265.0H28.0V0.0ZM187.0 -416.0V-889.0H275.0V-416.0ZM-296.0 -418.0V-843.0H227.0V-802.0H-286.0V-418.0Z"/></g>
<g fill="red" transform="translate(600 1300) scale(0.1 -0.1)"><path d="M0.0 0.0V-261.0H145.0V0.0ZM179.0 -427.0V-945.0H320.0V-427.0ZM-272.0 -425.0V-900.0H291.0V-766.0H-131.0V-425.0Z"/></g>
<g fill="black" opacity=".8" transform="translate(600 1300) scale(0.1 -0.1)"><path d="M0.0 0.0V-242.0H142.0V0.0ZM187.0 -418.0V-963.0H319.0V-418.0ZM-246.0 -434.0V-899.0H287.0V-764.0H-136.0V-434.0Z"/></g>
<g fill="red" transform="translate(700 1300) scale(0.1 -0.1)"><path d="M0.0 0.0V-155.0H30.0V0.0ZM89.0 -610.0V-640.0H235.0V-610.0ZM-208.0 -610.0V-892.0H-179.0V-640.0H-53.0V-610.0Z"/></g>
<g fill="black" opacity=".8" transform="translate(700 1300) scale(0.1 -0.1)"><path d="M0.0 0.0V-150.0H27.0V0.0ZM99.0 -610.0V-641.0H239.0V-610.0ZM-208.0 -608.0V-886.0H-179.0V-650.0H-41.0V-608.0Z"/></g>
<g fill="red" transform="translate(800 1300) scale(0.1 -0.1)"><path d="M0.0 0.0V-153.0H126.0V0.0ZM151.0 -641.0V-746.0H273.0V-641.0ZM-179.0 -641.0V-948.0H-68.0V-746.0H35.0V-641.0Z"/></g>
<g fill="black" opacity=".8" transform="translate(800 1300) scale(0.1 -0.1)"><path d="M0.0 0.0V-154.0H130.0V0.0ZM146.0 -643.0V-744.0H265.0V-643.0ZM-191.0 -637.0V-950.0H-67.0V-746.0H33.0V-637.0Z"/></g>
<g fill="red" transform="translate(900 1300) scale(0.1 -0.1)"><path d="M0.0 0.0V-803.0H30.0V0.0ZM215.0 -220.0V-886.0H245.0V-220.0ZM-209.0 -221.0V-822.0H234.0V-792.0H-180.0V-221.0Z"/></g>
<g fill="black" opacity=".8" transform="translate(900 1300) scale(0.1 -0.1)"><path d="M0.0 0.0V-807.0H32.0V0.0ZM215.0 -223.0V-889.0H235.0V-223.0ZM-199.0 -229.0V-823.0H226.0V-794.0H-170.0V-229.0Z"/></g>
<g fill="red" transform="translate(1000 1300) scale(0.1 -0.1)"><path d="M0.0 0.0V-810.0H138.0V0.0ZM184.0 -210.0V-930.0H322.0V-210.0ZM-179.0 -218.0V-875.0H247.0V-741.0H-45.0V-218.0Z"/></g>
<g fill="black" opacity=".8" transform="translate(1000 1300) scale(0.1 -0.1)"><path d="M0.0 0.0V-804.0H135.0V0.0ZM195.0 -206.0V-930.0H323.0V-206.0ZM-185.0 -214.0V-876.0H258.0V-735.0H-61.0V-214.0Z"/></g>
<g fill="red" transform="translate(1100 1300) scale(0.1 -0.1)"><path d="M0.0 0.0V-803.0H30.0V0.0ZM230.0 -220.0V-886.0H259.0V-220.0ZM-227.0 -221.0V-822.0H244.0V-792.0H-197.0V-221.0Z"/></g>
<g fill="black" opacity=".8" transform="translate(1100 1300) scale(0.1 -0.1)"><path d="M0.0 0.0V-804.0H33.0V0.0ZM230.0 -225.0V-889.0H253.0V-225.0ZM-215.0 -232.0V-824.0H233.0V-795.0H-187.0V-232.0Z"/></g>
<g fill="red" transform="translate(1200 1300) scale(0.1 -0.1)"><path d="M0.0 0.0V-810.0H147.0V0.0ZM205.0 -219.0V-939.0H347.0V-219.0ZM-197.0 -227.0V-884.0H253.0V-750.0H-57.0V-227.0Z"/></g>
<g fill="black" opacity=".8" transform="translate(1200 1300) scale(0.1 -0.1)"><path d="M0.0 0.0V-808.0H142.0V0.0ZM213.0 -213.0V-939.0H348.0V-213.0ZM-203.0 -221.0V-885.0H268.0V-742.0H-75.0V-221.0Z"/></g>
<g fill="red" transform="translate(1300 1300) scale(0.1 -0.1)"><path d="M0.0 0.0V-803.0H30.0V0.0ZM192.0 -220.0V-886.0H222.0V-220.0ZM-182.0 -221.0V-822.0H213.0V-792.0H-153.0V-221.0Z"/></g>
<g fill="black" opacity=".8" transform="translate(1300 1300) scale(0.1 -0.1)"><path d="M0.0 0.0V-807.0H30.0V0.0ZM193.0 -224.0V-888.0H210.0V-224.0ZM-175.0 -228.0V-821.0H210.0V-793.0H-146.0V-228.0Z"/></g>
<g fill="red" transform="translate(1400 1300) scale(0.1 -0.1)"><path d="M0.0 0.0V-810.0H126.0V0.0ZM161.0 -210.0V-930.0H288.0V-210.0ZM-156.0 -218.0V-872.0H233.0V-738.0H-33.0V-218.0Z"/></g>
<g fill="black" opacity=".8" transform="translate(1400 1300) scale(0.1 -0.1)"><path d="M0.0 0.0V-804.0H124.0V0.0ZM173.0 -206.0V-930.0H290.0V-206.0ZM-160.0 -214.0V-873.0H238.0V-736.0H-44.0V-214.0Z"/></g>
<g fill="red" transform="translate(1500 1300) scale(0.1 -0.1)"><path d="M0.0 0.0V-322.0H29.0V0.0ZM204.0 76.0V-259.0H233.0V76.0ZM414.0 0.0V-242.0H14.0V-271.0H444.0V0.0Z"/></g>
<g fill="black" opacity=".8" transform="translate(1500 1300) scale(0.1 -0.1)"><path d="M0.0 0.0V-334.0H22.0V0.0ZM193.0 84.0V-267.0H211.0V84.0ZM402.0 -10.0V-233.0H-2.0V-272.0H440.0V-10.0Z"/></g>
<g fill="red" transform="translate(1600 1300) scale(0.1 -0.1)"><path d="M0.0 0.0V-347.0H121.0V0.0ZM163.0 79.0V-245.0H294.0V79.0ZM337.0 0.0V-180.0H59.0V-301.0H458.0V0.0Z"/></g>
<g fill="black" opacity=".8" transform="translate(1600 1300) scale(0.1 -0.1)"><path d="M0.0 0.0V-337.0H106.0V0.0ZM196.0 78.0V-240.0H301.0V78.0ZM357.0 -4.0V-185.0H74.0V-296.0H454.0V-4.0Z"/></g>
<g fill="red" transform="translate(100 1400) scale(0.1 -0.1)"><path d="M0.0 0.0V-155.0H30.0V0.0ZM97.0 -610.0V-640.0H300.0V-610.0ZM-257.0 -610.0V-892.0H-227.0V-640.0H-67.0V-610.0Z"/></g>
<g fill="black" opacity=".8" transform="translate(100 1400) scale(0.1 -0.1)"><path d="M0.0 0.0V-150.0H33.0V0.0ZM116.0 -611.0V-644.0H273.0V-611.0ZM-250.0 -611.0V-896.0H-228.0V-642.0H-58.0V-611.0Z"/></g>
<g fill="red" transform="translate(200 1400) scale(0.1 -0.1)"><path d="M0.0 0.0V-153.0H156.0V0.0ZM175.0 -641.0V-746.0H325.0V-641.0ZM-232.0 -641.0V-948.0H-95.0V-746.0H33.0V-641.0Z"/></g>
<g fill="black" opacity=".8" transform="translate(200 1400) scale(0.1 -0.1)"><path d="M0.0 0.0V-153.0H162.0V0.0ZM177.0 -644.0V-742.0H329.0V-644.0ZM-241.0 -635.0V-950.0H-91.0V-744.0H26.0V-635.0Z"/></g>
<g fill="red" transform="translate(300 1400) scale(0.1 -0.1)"><path d="M0.0 0.0V-494.0H30.0V0.0ZM315.0 -144.0V-558.0H344.0V-144.0ZM-316.0 -147.0V-504.0H340.0V-474.0H-286.0V-147.0Z"/></g>
<g fill="black" opacity=".8" transform="translate(300 1400) scale(0.1 -0.1)"><path d="M0.0 0.0V-499.0H33.0V0.0ZM327.0 -139.0V-552.0H351.0V-139.0ZM-318.0 -140.0V-498.0H339.0V-474.0H-296.0V-140.0Z"/></g>
<g fill="red" transform="translate(400 1400) scale(0.1 -0.1)"><path d="M0.0 0.0V-498.0H144.0V0.0ZM321.0 -129.0V-571.0H463.0V-129.0ZM-312.0 -130.0V-539.0H377.0V-413.0H-171.0V-130.0Z"/></g>
<g fill="black" opacity=".8" transform="translate(400 1400) scale(0.1 -0.1)"><path d="M0.0 0.0V-493.0H158.0V0.0ZM307.0 -134.0V-579.0H457.0V-134.0ZM-304.0 -133.0V-546.0H373.0V-410.0H-165.0V-133.0Z"/></g>
<g fill="red" transform="translate(500 1400) scale(0.1 -0.1)"><path d="M0.0 0.0V-719.0H29.0V0.0ZM129.0 -164.0V-757.0H159.0V-164.0ZM-123.0 -163.0V-730.0H147.0V-700.0H-95.0V-163.0Z"/></g>
<g fill="black" opacity=".8" transform="translate(500 1400) scale(0.1 -0.1)"><path d="M0.0 0.0V-716.0H28.0V0.0ZM129.0 -159.0V-759.0H156.0V-159.0ZM-127.0 -163.0V-731.0H147.0V-701.0H-99.0V-163.0Z"/></g>
<g fill="red" transform="translate(600 1400) scale(0.1 -0.1)"><path d="M0.0 0.0V-738.0H114.0V0.0ZM140.0 -142.0V-841.0H239.0V-142.0ZM-125.0 -154.0V-805.0H194.0V-681.0H-25.0V-154.0Z"/></g>
<g fill="black" opacity=".8" transform="translate(600 1400) scale(0.1 -0.1)"><path d="M0.0 0.0V-740.0H115.0V0.0ZM143.0 -147.0V-839.0H239.0V-147.0ZM-120.0 -153.0V-805.0H195.0V-680.0H-23.0V-153.0Z"/></g>
<g fill="red" transform="translate(700 1400) scale(0.1 -0.1)"><path d="M0.0 0.0V-261.0H30.0V0.0ZM333.0 -35.0V-326.0H362.0V-35.0ZM-335.0 -40.0V-274.0H354.0V-244.0H-306.0V-40.0Z"/></g>
<g fill="black" opacity=".8" transform="translate(700 1400) scale(0.1 -0.1)"><path d="M0.0 0.0V-273.0H28.0V0.0ZM335.0 -36.0V-324.0H357.0V-36.0ZM-327.0 -44.0V-270.0H351.0V-242.0H-303.0V-44.0Z"/></g>
<g fill="red" transform="translate(800 1400) scale(0.1 -0.1)"><path d="M0.0 0.0V-291.0H140.0V0.0ZM318.0 -37.0V-345.0H459.0V-37.0ZM-311.0 -42.0V-314.0H381.0V-193.0H-174.0V-42.0Z"/></g>
<g fill="black" opacity=".8" transform="translate(800 1400) scale(0.1 -0.1)"><path d="M0.0 0.0V-278.0H143.0V0.0ZM323.0 -34.0V-351.0H460.0V-34.0ZM-311.0 -41.0V-319.0H383.0V-189.0H-184.0V-41.0Z"/></g>
<g fill="red" transform="translate(900 1400) scale(0.1 -0.1)"><path d="M0.0 0.0V-352.0H29.0V0.0ZM35.0 -374.0V-643.0H65.0V-374.0ZM-632.0 -376.0V-595.0H54.0V-566.0H-603.0V-376.0Z"/></g>
<g fill="black" opacity=".8" transform="translate(900 1400) scale(0.1 -0.1)"><path d="M0.0 0.0V-358.0H24.0V0.0ZM20.0 -371.0V-645.0H72.0V-371.0ZM-635.0 -376.0V-597.0H48.0V-562.0H-615.0V-376.0Z"/></g>
<g fill="red" transform="translate(1000 1400) scale(0.1 -0.1)"><path d="M0.0 0.0V-338.0H133.0V0.0ZM-1.0 -360.0V-662.0H140.0V-360.0ZM-630.0 -365.0V-626.0H58.0V-500.0H-493.0V-365.0Z"/></g>
<g fill="black" opacity=".8" transform="translate(1000 1400) scale(0.1 -0.1)"><path d="M0.0 0.0V-335.0H128.0V0.0ZM9.0 -360.0V-664.0H142.0V-360.0ZM-614.0 -373.0V-625.0H62.0V-496.0H-494.0V-373.0Z"/></g>
<g fill="red" transform="translate(1100 1400) scale(0.1 -0.1)"><path d="M0.0 0.0V-235.0H29.0V0.0ZM343.0 -45.0V-292.0H372.0V-45.0ZM-325.0 -42.0V-236.0H366.0V-205.0H-295.0V-42.0Z"/></g>
<g fill="black" opacity=".8" transform="translate(1100 1400) scale(0.1 -0.1)"><path d="M0.0 0.0V-231.0H29.0V0.0ZM343.0 -51.0V-288.0H370.0V-51.0ZM-323.0 -47.0V-233.0H373.0V-211.0H-296.0V-47.0Z"/></g>
<g fill="red" transform="translate(1200 1400) scale(0.1 -0.1)"><path d="M0.0 0.0V-210.0H148.0V0.0ZM326.0 -50.0V-292.0H468.0V-50.0ZM-304.0 -46.0V-255.0H418.0V-146.0H-165.0V-46.0Z"/></g>
<g fill="black" opacity=".8" transform="translate(1200 1400) scale(0.1 -0.1)"><path d="M0.0 0.0V-212.0H150.0V0.0ZM326.0 -44.0V-296.0H471.0V-44.0ZM-304.0 -40.0V-258.0H410.0V-141.0H-163.0V-40.0Z"/></g>
<g fill="red" transform="translate(1300 1400) scale(0.1 -0.1)"><path d="M0.0 0.0V-717.0H29.0V0.0ZM309.0 -316.0V-533.0H338.0V-316.0ZM-114.0 -160.0V-727.0H127.0V-697.0H-85.0V-160.0Z"/></g>
<g fill="black" opacity=".8" transform="translate(1300 1400) scale(0.1 -0.1)"><path d="M0.0 0.0V-742.0H27.0V0.0ZM298.0 -330.0V-524.0H329.0V-330.0ZM-94.0 -177.0V-735.0H116.0V-680.0H-107.0V-177.0Z"/></g>
<g fill="red" transform="translate(1400 1400) scale(0.1 -0.1)"><path d="M0.0 0.0V-748.0H97.0V0.0ZM285.0 -365.0V-545.0H394.0V-365.0ZM-116.0 -155.0V-806.0H155.0V-682.0H-22.0V-155.0Z"/></g>
<g fill="black" opacity=".8" transform="translate(1400 1400) scale(0.1 -0.1)"><path d="M0.0 0.0V-730.0H109.0V0.0ZM308.0 -345.0V-566.0H399.0V-345.0ZM-91.0 -159.0V-808.0H160.0V-664.0H-41.0V-159.0Z"/></g>
<g fill="red" transform="translate(1500 1400) scale(0.1 -0.1)"><path d="M0.0 0.0V-717.0H28.0V0.0ZM106.0 -160.0V-760.0H136.0V-160.0ZM249.0 -172.0V-446.0H279.0V-201.0H710.0V-172.0Z"/></g>
<g fill="black" opacity=".8" transform="translate(1500 1400) scale(0.1 -0.1)"><path d="M0.0 0.0V-723.0H30.0V0.0ZM104.0 -166.0V-757.0H137.0V-166.0ZM265.0 -175.0V-451.0H277.0V-192.0H695.0V-175.0Z"/></g>
<g fill="red" transform="translate(1600 1400) scale(0.1 -0.1)"><path d="M0.0 0.0V-748.0H90.0V0.0ZM112.0 -150.0V-852.0H195.0V-150.0ZM261.0 -175.0V-458.0H376.0V-250.0H770.0V-175.0Z"/></g>
<g fill="black" opacity=".8" transform="translate(1600 1400) scale(0.1 -0.1)"><path d="M0.0 0.0V-743.0H105.0V0.0ZM110.0 -143.0V-861.0H198.0V-143.0ZM272.0 -177.0V-463.0H375.0V-235.0H762.0V-177.0Z"/></g>
<g fill="red" transform="translate(100 1500) scale(0.1 -0.1)"><path d="M0.0 0.0V-803.0H30.0V0.0ZM222.0 -220.0V-886.0H251.0V-220.0ZM-215.0 -221.0V-822.0H232.0V-792.0H-185.0V-221.0Z"/></g>
<g fill="black" opacity=".8" transform="translate(100 1500) scale(0.1 -0.1)"><path d="M0.0 0.0V-807.0H32.0V0.0ZM222.0 -222.0V-890.0H242.0V-222.0ZM-205.0 -229.0V-823.0H222.0V-793.0H-177.0V-229.0Z"/></g>
<g fill="red" transform="translate(200 1500) scale(0.1 -0.1)"><path d="M0.0 0.0V-810.0H137.0V0.0ZM191.0 -210.0V-930.0H329.0V-210.0ZM-187.0 -218.0V-875.0H239.0V-741.0H-52.0V-218.0Z"/></g>
<g fill="black" opacity=".8" transform="translate(200 1500) scale(0.1 -0.1)"><path d="M0.0 0.0V-805.0H134.0V0.0ZM201.0 -207.0V-929.0H330.0V-207.0ZM-191.0 -215.0V-877.0H252.0V-734.0H-68.0V-215.0Z"/></g>
<g fill="red" transform="translate(300 1500) scale(0.1 -0.1)"><path d="M0.0 0.0V-291.0H29.0V0.0ZM261.0 -45.0V-362.0H290.0V-45.0ZM-254.0 -48.0V-302.0H271.0V-272.0H-224.0V-48.0Z"/></g>
<g fill="black" opacity=".8" transform="translate(300 1500) scale(0.1 -0.1)"><path d="M0.0 0.0V-292.0H25.0V0.0ZM265.0 -42.0V-363.0H289.0V-42.0ZM-259.0 -42.0V-303.0H269.0V-269.0H-222.0V-42.0Z"/></g>
<g fill="red" transform="translate(400 1500) scale(0.1 -0.1)"><path d="M0.0 0.0V-257.0H135.0V0.0ZM248.0 -17.0V-350.0H377.0V-17.0ZM-234.0 -19.0V-309.0H298.0V-178.0H-106.0V-19.0Z"/></g>
<g fill="black" opacity=".8" transform="translate(400 1500) scale(0.1 -0.1)"><path d="M0.0 0.0V-254.0H125.0V0.0ZM248.0 -19.0V-348.0H376.0V-19.0ZM-238.0 -21.0V-303.0H302.0V-191.0H-102.0V-21.0Z"/></g>
<g fill="red" transform="translate(500 1500) scale(0.1 -0.1)"><path d="M0.0 0.0V-494.0H29.0V0.0ZM126.0 -501.0V-712.0H155.0V-501.0ZM320.0 -550.0V-692.0H-45.0V-721.0H350.0V-550.0Z"/></g>
<g fill="black" opacity=".8" transform="translate(500 1500) scale(0.1 -0.1)"><path d="M0.0 0.0V-496.0H24.0V0.0ZM116.0 -509.0V-706.0H167.0V-509.0ZM313.0 -559.0V-688.0H-40.0V-728.0H360.0V-559.0Z"/></g>
<g fill="red" transform="translate(600 1500) scale(0.1 -0.1)"><path d="M0.0 0.0V-549.0H138.0V0.0ZM97.0 -594.0V-770.0H213.0V-594.0ZM263.0 -625.0V-721.0H27.0V-824.0H372.0V-625.0Z"/></g>
<g fill="black" opacity=".8" transform="translate(600 1500) scale(0.1 -0.1)"><path d="M0.0 0.0V-547.0H125.0V0.0ZM103.0 -585.0V-776.0H212.0V-585.0ZM260.0 -618.0V-714.0H24.0V-829.0H368.0V-618.0Z"/></g>
<g fill="red" transform="translate(700 1500) scale(0.1 -0.1)"><path d="M0.0 0.0V-803.0H30.0V0.0ZM220.0 -220.0V-886.0H250.0V-220.0ZM-220.0 -221.0V-822.0H237.0V-792.0H-190.0V-221.0Z"/></g>
<g fill="black" opacity=".8" transform="translate(700 1500) scale(0.1 -0.1)"><path d="M0.0 0.0V-808.0H31.0V0.0ZM219.0 -223.0V-890.0H238.0V-223.0ZM-205.0 -229.0V-824.0H229.0V-794.0H-177.0V-229.0Z"/></g>
<g fill="red" transform="translate(800 1500) scale(0.1 -0.1)"><path d="M0.0 0.0V-810.0H137.0V0.0ZM184.0 -210.0V-930.0H322.0V-210.0ZM-179.0 -218.0V-875.0H247.0V-741.0H-45.0V-218.0Z"/></g>
<g fill="black" opacity=".8" transform="translate(800 1500) scale(0.1 -0.1)"><path d="M0.0 0.0V-803.0H134.0V0.0ZM197.0 -206.0V-929.0H325.0V-206.0ZM-189.0 -214.0V-877.0H259.0V-733.0H-65.0V-214.0Z"/></g>
<g fill="red" transform="translate(900 1500) scale(0.1 -0.1)"><path d="M0.0 0.0V-711.0H30.0V0.0ZM113.0 -157.0V-757.0H142.0V-157.0ZM-115.0 -159.0V-726.0H127.0V-696.0H-85.0V-159.0Z"/></g>
<g fill="black" opacity=".8" transform="translate(900 1500) scale(0.1 -0.1)"><path d="M0.0 0.0V-710.0H25.0V0.0ZM112.0 -159.0V-763.0H134.0V-159.0ZM-114.0 -158.0V-726.0H123.0V-692.0H-88.0V-158.0Z"/></g>
<g fill="red" transform="translate(1000 1500) scale(0.1 -0.1)"><path d="M0.0 0.0V-743.0H101.0V0.0ZM123.0 -150.0V-852.0H202.0V-150.0ZM-112.0 -148.0V-802.0H158.0V-678.0H-22.0V-148.0Z"/></g>
<g fill="black" opacity=".8" transform="translate(1000 1500) scale(0.1 -0.1)"><path d="M0.0 0.0V-743.0H98.0V0.0ZM125.0 -149.0V-847.0H208.0V-149.0ZM-108.0 -150.0V-805.0H164.0V-679.0H-24.0V-150.0Z"/></g>
<g fill="red" transform="translate(1100 1500) scale(0.1 -0.1)"><path d="M0.0 0.0V-711.0H30.0V0.0ZM125.0 -157.0V-801.0H154.0V-157.0ZM-127.0 -159.0V-725.0H137.0V-696.0H-98.0V-159.0Z"/></g>
<g fill="black" opacity=".8" transform="translate(1100 1500) scale(0.1 -0.1)"><path d="M0.0 0.0V-714.0H26.0V0.0ZM128.0 -160.0V-792.0H149.0V-160.0ZM-124.0 -159.0V-729.0H137.0V-701.0H-97.0V-159.0Z"/></g>
<g fill="red" transform="translate(1200 1500) scale(0.1 -0.1)"><path d="M0.0 0.0V-743.0H109.0V0.0ZM132.0 -150.0V-852.0H224.0V-150.0ZM-112.0 -148.0V-802.0H176.0V-678.0H-22.0V-148.0Z"/></g>
<g fill="black" opacity=".8" transform="translate(1200 1500) scale(0.1 -0.1)"><path d="M0.0 0.0V-738.0H103.0V0.0ZM135.0 -147.0V-862.0H227.0V-147.0ZM-116.0 -149.0V-797.0H176.0V-675.0H-24.0V-149.0Z"/></g>
<g fill="red" transform="translate(1300 1500) scale(0.1 -0.1)"><path d="M0.0 0.0V-468.0H30.0V0.0ZM425.0 -540.0V-725.0H454.0V-540.0ZM-81.0 -546.0V-690.0H441.0V-661.0H-52.0V-546.0Z"/></g>
<g fill="black" opacity=".8" transform="translate(1300 1500) scale(0.1 -0.1)"><path d="M0.0 0.0V-470.0H27.0V0.0ZM424.0 -540.0V-728.0H447.0V-540.0ZM-91.0 -546.0V-685.0H443.0V-661.0H-52.0V-546.0Z"/></g>
<g fill="red" transform="translate(1400 1500) scale(0.1 -0.1)"><path d="M0.0 0.0V-524.0H144.0V0.0ZM347.0 -618.0V-825.0H478.0V-618.0ZM-90.0 -614.0V-793.0H446.0V-686.0H41.0V-614.0Z"/></g>
<g fill="black" opacity=".8" transform="translate(1400 1500) scale(0.1 -0.1)"><path d="M0.0 0.0V-521.0H139.0V0.0ZM356.0 -617.0V-822.0H479.0V-617.0ZM-86.0 -614.0V-793.0H445.0V-694.0H45.0V-614.0Z"/></g>
<g fill="red" transform="translate(1500 1500) scale(0.1 -0.1)"><path d="M0.0 0.0V-711.0H29.0V0.0ZM118.0 -157.0V-766.0H147.0V-157.0ZM-120.0 -159.0V-726.0H122.0V-696.0H-90.0V-159.0Z"/></g>
<g fill="black" opacity=".8" transform="translate(1500 1500) scale(0.1 -0.1)"><path d="M0.0 0.0V-710.0H28.0V0.0ZM118.0 -159.0V-765.0H148.0V-159.0ZM-122.0 -156.0V-724.0H130.0V-696.0H-92.0V-156.0Z"/></g>
<g fill="red" transform="translate(1600 1500) scale(0.1 -0.1)"><path d="M0.0 0.0V-743.0H113.0V0.0ZM139.0 -150.0V-852.0H233.0V-150.0ZM-118.0 -148.0V-802.0H191.0V-678.0H-25.0V-148.0Z"/></g>
<g fill="black" opacity=".8" transform="translate(1600 1500) scale(0.1 -0.1)"><path d="M0.0 0.0V-742.0H114.0V0.0ZM138.0 -149.0V-853.0H234.0V-149.0ZM-118.0 -148.0V-802.0H183.0V-682.0H-21.0V-148.0Z"/></g>
<g fill="red" transform="translate(100 1600) scale(0.1 -0.1)"><path d="M0.0 0.0V-711.0H30.0V0.0ZM118.0 -157.0V-783.0H147.0V-157.0ZM-119.0 -159.0V-726.0H122.0V-696.0H-90.0V-159.0Z"/></g>
<g fill="black" opacity=".8" transform="translate(100 1600) scale(0.1 -0.1)"><path d="M0.0 0.0V-712.0H27.0V0.0ZM120.0 -159.0V-778.0H146.0V-159.0ZM-119.0 -158.0V-727.0H126.0V-698.0H-91.0V-158.0Z"/></g>
<g fill="red" transform="translate(200 1600) scale(0.1 -0.1)"><path d="M0.0 0.0V-743.0H109.0V0.0ZM135.0 -150.0V-852.0H226.0V-150.0ZM-112.0 -148.0V-802.0H176.0V-678.0H-22.0V-148.0Z"/></g>
<g fill="black" opacity=".8" transform="translate(200 1600) scale(0.1 -0.1)"><path d="M0.0 0.0V-741.0H108.0V0.0ZM134.0 -148.0V-857.0H227.0V-148.0ZM-114.0 -148.0V-800.0H172.0V-680.0H-20.0V-148.0Z"/></g>
<g fill="red" transform="translate(300 1600) scale(0.1 -0.1)"><path d="M0.0 0.0V-600.0H29.0V0.0ZM97.0 126.0V-729.0H126.0V126.0ZM-227.0 -2.0V-569.0H14.0V-539.0H-198.0V-2.0Z"/></g>
<g fill="black" opacity=".8" transform="translate(300 1600) scale(0.1 -0.1)"><path d="M0.0 0.0V-605.0H25.0V0.0ZM106.0 116.0V-726.0H110.0V116.0ZM-227.0 -8.0V-569.0H16.0V-535.0H-197.0V-8.0Z"/></g>
<g fill="red" transform="translate(400 1600) scale(0.1 -0.1)"><path d="M0.0 0.0V-702.0H87.0V0.0ZM110.0 129.0V-785.0H229.0V129.0ZM-242.0 2.0V-652.0H46.0V-528.0H-152.0V2.0Z"/></g>
<g fill="black" opacity=".8" transform="translate(400 1600) scale(0.1 -0.1)"><path d="M0.0 0.0V-695.0H95.0V0.0ZM123.0 138.0V-791.0H227.0V138.0ZM-238.0 6.0V-651.0H43.0V-531.0H-156.0V6.0Z"/></g>
<g fill="red" transform="translate(500 1600) scale(0.1 -0.1)"><path d="M0.0 0.0V-711.0H30.0V0.0ZM113.0 -157.0V-757.0H142.0V-157.0ZM-114.0 -159.0V-726.0H127.0V-696.0H-85.0V-159.0Z"/></g>
<g fill="black" opacity=".8" transform="translate(500 1600) scale(0.1 -0.1)"><path d="M0.0 0.0V-710.0H27.0V0.0ZM112.0 -159.0V-760.0H139.0V-159.0ZM-115.0 -157.0V-724.0H128.0V-694.0H-88.0V-157.0Z"/></g>
<g fill="red" transform="translate(600 1600) scale(0.1 -0.1)"><path d="M0.0 0.0V-743.0H109.0V0.0ZM130.0 -150.0V-852.0H217.0V-150.0ZM-112.0 -148.0V-802.0H176.0V-678.0H-22.0V-148.0Z"/></g>
<g fill="black" opacity=".8" transform="translate(600 1600) scale(0.1 -0.1)"><path d="M0.0 0.0V-743.0H107.0V0.0ZM131.0 -149.0V-849.0H219.0V-149.0ZM-110.0 -149.0V-804.0H176.0V-682.0H-20.0V-149.0Z"/></g>
<g fill="red" transform="translate(700 1600) scale(0.1 -0.1)"><path d="M0.0 0.0V-605.0H31.0V0.0ZM241.0 -286.0V-674.0H271.0V-286.0ZM-237.0 -279.0V-619.0H265.0V-589.0H-207.0V-279.0Z"/></g>
<g fill="black" opacity=".8" transform="translate(700 1600) scale(0.1 -0.1)"><path d="M0.0 0.0V-593.0H31.0V0.0ZM252.0 -273.0V-680.0H280.0V-273.0ZM-250.0 -257.0V-617.0H281.0V-590.0H-199.0V-257.0Z"/></g>
<g fill="red" transform="translate(800 1600) scale(0.1 -0.1)"><path d="M0.0 0.0V-513.0H146.0V0.0ZM222.0 -232.0V-660.0H369.0V-232.0ZM-212.0 -233.0V-600.0H322.0V-466.0H-69.0V-233.0Z"/></g>
<g fill="black" opacity=".8" transform="translate(800 1600) scale(0.1 -0.1)"><path d="M0.0 0.0V-518.0H150.0V0.0ZM206.0 -249.0V-648.0H359.0V-249.0ZM-227.0 -236.0V-597.0H310.0V-488.0H-53.0V-236.0Z"/></g>
<g fill="red" transform="translate(900 1600) scale(0.1 -0.1)"><path d="M0.0 0.0V-155.0H30.0V0.0ZM107.0 -610.0V-640.0H278.0V-610.0ZM-253.0 -610.0V-892.0H-222.0V-640.0H-66.0V-610.0Z"/></g>
<g fill="black" opacity=".8" transform="translate(900 1600) scale(0.1 -0.1)"><path d="M0.0 0.0V-150.0H30.0V0.0ZM110.0 -610.0V-646.0H258.0V-610.0ZM-250.0 -614.0V-893.0H-225.0V-642.0H-68.0V-614.0Z"/></g>
<g fill="red" transform="translate(1000 1600) scale(0.1 -0.1)"><path d="M0.0 0.0V-153.0H146.0V0.0ZM152.0 -641.0V-746.0H293.0V-641.0ZM-239.0 -641.0V-948.0H-111.0V-746.0H9.0V-641.0Z"/></g>
<g fill="black" opacity=".8" transform="translate(1000 1600) scale(0.1 -0.1)"><path d="M0.0 0.0V-156.0H144.0V0.0ZM162.0 -642.0V-740.0H300.0V-642.0ZM-238.0 -639.0V-951.0H-105.0V-741.0H8.0V-639.0Z"/></g>
<g fill="red" transform="translate(1100 1600) scale(0.1 -0.1)"><path d="M0.0 0.0V-803.0H31.0V0.0ZM160.0 -215.0V-885.0H190.0V-215.0ZM-167.0 -216.0V-817.0H177.0V-787.0H-138.0V-216.0Z"/></g>
<g fill="black" opacity=".8" transform="translate(1100 1600) scale(0.1 -0.1)"><path d="M0.0 0.0V-803.0H32.0V0.0ZM163.0 -221.0V-876.0H194.0V-221.0ZM-172.0 -218.0V-816.0H188.0V-790.0H-137.0V-218.0Z"/></g>
<g fill="red" transform="translate(1200 1600) scale(0.1 -0.1)"><path d="M0.0 0.0V-810.0H130.0V0.0ZM163.0 -210.0V-930.0H292.0V-210.0ZM-164.0 -208.0V-879.0H249.0V-745.0H-36.0V-208.0Z"/></g>
<g fill="black" opacity=".8" transform="translate(1200 1600) scale(0.1 -0.1)"><path d="M0.0 0.0V-808.0H138.0V0.0ZM164.0 -205.0V-940.0H287.0V-205.0ZM-162.0 -204.0V-876.0H237.0V-747.0H-35.0V-204.0Z"/></g>
<g fill="red" transform="translate(1300 1600) scale(0.1 -0.1)"><path d="M0.0 0.0V-291.0H29.0V0.0ZM172.0 -45.0V-362.0H202.0V-45.0ZM-177.0 -48.0V-302.0H188.0V-272.0H-147.0V-48.0Z"/></g>
<g fill="black" opacity=".8" transform="translate(1300 1600) scale(0.1 -0.1)"><path d="M0.0 0.0V-294.0H24.0V0.0ZM171.0 -47.0V-358.0H203.0V-47.0ZM-187.0 -44.0V-306.0H194.0V-271.0H-136.0V-44.0Z"/></g>
<g fill="red" transform="translate(1400 1600) scale(0.1 -0.1)"><path d="M0.0 0.0V-257.0H127.0V0.0ZM159.0 -22.0V-351.0H288.0V-22.0ZM-162.0 -21.0V-311.0H245.0V-187.0H-34.0V-21.0Z"/></g>
<g fill="black" opacity=".8" transform="translate(1400 1600) scale(0.1 -0.1)"><path d="M0.0 0.0V-252.0H115.0V0.0ZM170.0 -19.0V-353.0H282.0V-19.0ZM-170.0 -21.0V-297.0H242.0V-206.0H-32.0V-21.0Z"/></g>
<g fill="red" transform="translate(1500 1600) scale(0.1 -0.1)"><path d="M0.0 0.0V-455.0H31.0V0.0ZM434.0 63.0V-166.0H464.0V63.0ZM-148.0 17.0V-477.0H-118.0V-12.0H163.0V17.0Z"/></g>
<g fill="black" opacity=".8" transform="translate(1500 1600) scale(0.1 -0.1)"><path d="M0.0 0.0V-460.0H27.0V0.0ZM427.0 64.0V-159.0H465.0V64.0ZM-163.0 12.0V-473.0H-118.0V-20.0H168.0V12.0Z"/></g>
<g fill="red" transform="translate(1600 1600) scale(0.1 -0.1)"><path d="M0.0 0.0V-450.0H100.0V0.0ZM418.0 104.0V-108.0H548.0V104.0ZM-157.0 69.0V-500.0H-52.0V-47.0H206.0V69.0Z"/></g>
<g fill="black" opacity=".8" transform="translate(1600 1600) scale(0.1 -0.1)"><path d="M0.0 0.0V-446.0H83.0V0.0ZM432.0 108.0V-114.0H547.0V108.0ZM-154.0 70.0V-492.0H-53.0V-54.0H211.0V70.0Z"/></g>
<g fill="red" transform="translate(100 1700) scale(0.1 -0.1)"><path d="M0.0 0.0V-455.0H31.0V0.0ZM424.0 63.0V-104.0H453.0V63.0ZM-146.0 17.0V-477.0H-116.0V-12.0H158.0V17.0Z"/></g>
<g fill="black" opacity=".8" transform="translate(100 1700) scale(0.1 -0.1)"><path d="M0.0 0.0V-457.0H28.0V0.0ZM416.0 69.0V-110.0H456.0V69.0ZM-160.0 15.0V-469.0H-118.0V-14.0H166.0V15.0Z"/></g>
<g fill="red" transform="translate(200 1700) scale(0.1 -0.1)"><path d="M0.0 0.0V-450.0H99.0V0.0ZM421.0 115.0V-88.0H539.0V115.0ZM-155.0 69.0V-500.0H-52.0V-47.0H203.0V69.0Z"/></g>
<g fill="black" opacity=".8" transform="translate(200 1700) scale(0.1 -0.1)"><path d="M0.0 0.0V-447.0H85.0V0.0ZM429.0 112.0V-81.0H538.0V112.0ZM-152.0 70.0V-499.0H-47.0V-58.0H204.0V70.0Z"/></g>
</svg>
