<?xml version="1.0" encoding="UTF-8"?>
<svg width="1700" height="1100" xmlns="http://www.w3.org/2000/svg">
<rect width="100%" height="100%" fill="white"/>
<g fill="green" transform="translate(100 100) scale(0.1 -0.1)"><path d="M0.0 -0.0V-643.0H-42.0V0.0ZM35.0 -630.0V-1126.0H130.0V-630.0ZM-672.0 -333.0V-747.0H391.0V-711.0H-638.0V-333.0Z"/></g>
<g fill="green" transform="translate(200 100) scale(0.1 -0.1)"><path d="M0.0 0.0V-607.0H135.0V0.0ZM-41.0 -620.0V-1131.0H175.0V-620.0ZM-605.0 -339.0V-749.0H404.0V-581.0H-380.0V-339.0Z"/></g>
<g fill="green" transform="translate(300 100) scale(0.1 -0.1)"><path d="M0.0 0.0V-183.0H-65.0V0.0ZM-90.0 -506.0V-624.0H-16.0V-506.0ZM-549.0 -210.0V-254.0H283.0V-239.0H-535.0V-210.0Z"/></g>
<g fill="green" transform="translate(400 100) scale(0.1 -0.1)"><path d="M0.0 0.0V-132.0H49.0V0.0ZM-169.0 -500.0V-584.0H-31.0V-500.0ZM-487.0 -221.0V-209.0H267.0V-128.0H-336.0V-221.0Z"/></g>
<g fill="green" transform="translate(500 100) scale(0.1 -0.1)"><path d="M0.0 0.0V-1096.0H-132.0V0.0ZM66.0 -290.0V-956.0H149.0V-290.0ZM-150.0 -106.0V-729.0H388.0V-703.0H-126.0V-106.0Z"/></g>
<g fill="green" transform="translate(600 100) scale(0.1 -0.1)"><path d="M0.0 0.0V-1089.0H16.0V0.0ZM46.0 -274.0V-1021.0H186.0V-274.0ZM-74.0 -121.0V-773.0H440.0V-651.0H71.0V-121.0Z"/></g>
<g fill="green" transform="translate(700 100) scale(0.1 -0.1)"><path d="M0.0 -0.0V-627.0H-23.0V0.0ZM453.0 -564.0V-865.0H557.0V-564.0ZM-757.0 -357.0V-749.0H523.0V-708.0H-719.0V-357.0Z"/></g>
<g fill="green" transform="translate(800 100) scale(0.1 -0.1)"><path d="M0.0 0.0V-596.0H174.0V0.0ZM366.0 -576.0V-809.0H654.0V-576.0ZM-686.0 -370.0V-753.0H540.0V-565.0H-430.0V-370.0Z"/></g>
<g fill="green" transform="translate(900 100) scale(0.1 -0.1)"><path d="M0.0 0.0V-780.0H-106.0V0.0ZM6.0 -684.0V-943.0H150.0V-684.0ZM-774.0 -107.0V-840.0H-170.0V-802.0H-738.0V-107.0Z"/></g>
<g fill="green" transform="translate(1000 100) scale(0.1 -0.1)"><path d="M0.0 0.0V-767.0H61.0V0.0ZM-15.0 -689.0V-927.0H215.0V-689.0ZM-746.0 -54.0V-854.0H-138.0V-687.0H-581.0V-54.0Z"/></g>
<g fill="green" transform="translate(1100 100) scale(0.1 -0.1)"><path d="M0.0 -0.0V-457.0H56.0V0.0ZM66.0 -724.0V-1045.0H148.0V-724.0ZM-492.0 -550.0V-874.0H253.0V-841.0H-460.0V-550.0Z"/></g>
<g fill="green" transform="translate(1200 100) scale(0.1 -0.1)"><path d="M0.0 0.0V-428.0H167.0V0.0ZM-19.0 -726.0V-1040.0H171.0V-726.0ZM-452.0 -562.0V-889.0H260.0V-733.0H-267.0V-562.0Z"/></g>
<g fill="green" transform="translate(1300 100) scale(0.1 -0.1)"><path d="M0.0 0.0V-601.0H-19.0V0.0ZM44.0 -353.0V-1126.0H53.0V-353.0ZM-722.0 -399.0V-803.0H366.0V-766.0H-687.0V-399.0Z"/></g>
<g fill="green" transform="translate(1400 100) scale(0.1 -0.1)"><path d="M0.0 0.0V-534.0H168.0V0.0ZM-37.0 -319.0V-1135.0H144.0V-319.0ZM-662.0 -398.0V-805.0H357.0V-636.0H-444.0V-398.0Z"/></g>
<g fill="green" transform="translate(1500 100) scale(0.1 -0.1)"><path d="M0.0 0.0V-561.0H28.0V0.0ZM105.0 -607.0V-1270.0H159.0V-607.0ZM-625.0 -254.0V-721.0H341.0V-685.0H-589.0V-254.0Z"/></g>
<g fill="green" transform="translate(1600 100) scale(0.1 -0.1)"><path d="M0.0 0.0V-524.0H187.0V0.0ZM46.0 -609.0V-1264.0H233.0V-609.0ZM-579.0 -236.0V-718.0H335.0V-554.0H-365.0V-236.0Z"/></g>
<g fill="green" transform="translate(100 200) scale(0.1 -0.1)"><path d="M0.0 -0.0V-583.0H192.0V0.0ZM7.0 -622.0V-1013.0H155.0V-622.0ZM-649.0 -252.0V-726.0H452.0V-688.0H-613.0V-252.0Z"/></g>
<g fill="green" transform="translate(200 200) scale(0.1 -0.1)"><path d="M0.0 0.0V-698.0H277.0V0.0ZM-99.0 -636.0V-1137.0H128.0V-636.0ZM-648.0 -302.0V-811.0H430.0V-640.0H-433.0V-302.0Z"/></g>
<g fill="green" transform="translate(300 200) scale(0.1 -0.1)"><path d="M0.0 -0.0V-612.0H-72.0V0.0ZM-8.0 -636.0V-1099.0H112.0V-636.0ZM-669.0 -320.0V-755.0H372.0V-710.0H-626.0V-320.0Z"/></g>
<g fill="green" transform="translate(400 200) scale(0.1 -0.1)"><path d="M0.0 0.0V-592.0H133.0V0.0ZM-22.0 -615.0V-1148.0H204.0V-615.0ZM-612.0 -311.0V-786.0H453.0V-588.0H-381.0V-311.0Z"/></g>
<g fill="red" transform="translate(100 300) scale(0.1 -0.1)"><path d="M0.0 0.0V-803.0H30.0V0.0ZM258.0 -215.0V-885.0H288.0V-215.0ZM-250.0 -216.0V-817.0H282.0V-787.0H-221.0V-216.0Z"/></g>
<g fill="black" opacity=".8" transform="translate(100 300) scale(0.1 -0.1)"><path d="M0.0 0.0V-806.0H32.0V0.0ZM253.0 -215.0V-883.0H285.0V-215.0ZM-247.0 -224.0V-815.0H282.0V-782.0H-215.0V-224.0Z"/></g>
<g fill="red" transform="translate(200 300) scale(0.1 -0.1)"><path d="M0.0 0.0V-810.0H146.0V0.0ZM224.0 -210.0V-930.0H370.0V-210.0ZM-217.0 -218.0V-879.0H317.0V-745.0H-74.0V-218.0Z"/></g>
<g fill="black" opacity=".8" transform="translate(200 300) scale(0.1 -0.1)"><path d="M0.0 0.0V-816.0H147.0V0.0ZM232.0 -210.0V-936.0H376.0V-210.0ZM-221.0 -225.0V-879.0H311.0V-736.0H-80.0V-225.0Z"/></g>
<g fill="red" transform="translate(300 300) scale(0.1 -0.1)"><path d="M0.0 0.0V-587.0H30.0V0.0ZM325.0 -157.0V-682.0H354.0V-157.0ZM-321.0 -157.0V-607.0H335.0V-578.0H-291.0V-157.0Z"/></g>
<g fill="black" opacity=".8" transform="translate(300 300) scale(0.1 -0.1)"><path d="M0.0 0.0V-577.0H21.0V0.0ZM328.0 -149.0V-680.0H354.0V-149.0ZM-328.0 -158.0V-595.0H334.0V-563.0H-297.0V-158.0Z"/></g>
<g fill="red" transform="translate(400 300) scale(0.1 -0.1)"><path d="M0.0 0.0V-567.0H144.0V0.0ZM323.0 -140.0V-698.0H465.0V-140.0ZM-307.0 -142.0V-634.0H382.0V-501.0H-166.0V-142.0Z"/></g>
<g fill="black" opacity=".8" transform="translate(400 300) scale(0.1 -0.1)"><path d="M0.0 0.0V-580.0H148.0V0.0ZM321.0 -146.0V-707.0H471.0V-146.0ZM-303.0 -153.0V-642.0H371.0V-506.0H-155.0V-153.0Z"/></g>
<g fill="red" transform="translate(500 300) scale(0.1 -0.1)"><path d="M0.0 0.0V-706.0H30.0V0.0ZM144.0 -160.0V-769.0H174.0V-160.0ZM-151.0 -154.0V-721.0H159.0V-691.0H-121.0V-154.0Z"/></g>
<g fill="black" opacity=".8" transform="translate(500 300) scale(0.1 -0.1)"><path d="M0.0 0.0V-703.0H34.0V0.0ZM151.0 -157.0V-767.0H178.0V-157.0ZM-145.0 -159.0V-724.0H152.0V-694.0H-115.0V-159.0Z"/></g>
<g fill="red" transform="translate(600 300) scale(0.1 -0.1)"><path d="M0.0 0.0V-725.0H137.0V0.0ZM165.0 -148.0V-840.0H272.0V-148.0ZM-131.0 -151.0V-802.0H190.0V-678.0H-29.0V-151.0Z"/></g>
<g fill="black" opacity=".8" transform="translate(600 300) scale(0.1 -0.1)"><path d="M0.0 0.0V-728.0H124.0V0.0ZM163.0 -149.0V-845.0H267.0V-149.0ZM-138.0 -149.0V-798.0H197.0V-674.0H-36.0V-149.0Z"/></g>
<g fill="red" transform="translate(700 300) scale(0.1 -0.1)"><path d="M0.0 0.0V-712.0H28.0V0.0ZM132.0 -158.0V-763.0H160.0V-158.0ZM-133.0 -160.0V-727.0H152.0V-697.0H-104.0V-160.0Z"/></g>
<g fill="black" opacity=".8" transform="translate(700 300) scale(0.1 -0.1)"><path d="M0.0 0.0V-718.0H33.0V0.0ZM135.0 -158.0V-765.0H167.0V-158.0ZM-132.0 -157.0V-729.0H151.0V-699.0H-103.0V-157.0Z"/></g>
<g fill="red" transform="translate(800 300) scale(0.1 -0.1)"><path d="M0.0 0.0V-758.0H129.0V0.0ZM153.0 -150.0V-852.0H256.0V-150.0ZM-126.0 -153.0V-804.0H193.0V-680.0H-26.0V-153.0Z"/></g>
<g fill="black" opacity=".8" transform="translate(800 300) scale(0.1 -0.1)"><path d="M0.0 0.0V-747.0H121.0V0.0ZM149.0 -149.0V-850.0H251.0V-149.0ZM-126.0 -148.0V-807.0H199.0V-683.0H-27.0V-148.0Z"/></g>
<g fill="red" transform="translate(900 300) scale(0.1 -0.1)"><path d="M0.0 0.0V-706.0H30.0V0.0ZM146.0 -160.0V-756.0H176.0V-160.0ZM-154.0 -154.0V-721.0H163.0V-691.0H-124.0V-154.0Z"/></g>
<g fill="black" opacity=".8" transform="translate(900 300) scale(0.1 -0.1)"><path d="M0.0 0.0V-702.0H30.0V0.0ZM142.0 -160.0V-761.0H176.0V-160.0ZM-150.0 -161.0V-724.0H165.0V-693.0H-120.0V-161.0Z"/></g>
<g fill="red" transform="translate(1000 300) scale(0.1 -0.1)"><path d="M0.0 0.0V-725.0H126.0V0.0ZM154.0 -150.0V-852.0H272.0V-150.0ZM-145.0 -153.0V-804.0H221.0V-680.0H-29.0V-153.0Z"/></g>
<g fill="black" opacity=".8" transform="translate(1000 300) scale(0.1 -0.1)"><path d="M0.0 0.0V-731.0H125.0V0.0ZM161.0 -150.0V-848.0H269.0V-150.0ZM-144.0 -151.0V-803.0H220.0V-674.0H-39.0V-151.0Z"/></g>
<g fill="red" transform="translate(1100 300) scale(0.1 -0.1)"><path d="M0.0 0.0V-706.0H29.0V0.0ZM132.0 -160.0V-756.0H161.0V-160.0ZM-133.0 -154.0V-721.0H153.0V-691.0H-103.0V-154.0Z"/></g>
<g fill="black" opacity=".8" transform="translate(1100 300) scale(0.1 -0.1)"><path d="M0.0 0.0V-701.0H33.0V0.0ZM134.0 -159.0V-762.0H165.0V-159.0ZM-132.0 -159.0V-724.0H148.0V-694.0H-102.0V-159.0Z"/></g>
<g fill="red" transform="translate(1200 300) scale(0.1 -0.1)"><path d="M0.0 0.0V-725.0H128.0V0.0ZM153.0 -150.0V-852.0H256.0V-150.0ZM-126.0 -153.0V-804.0H193.0V-680.0H-26.0V-153.0Z"/></g>
<g fill="black" opacity=".8" transform="translate(1200 300) scale(0.1 -0.1)"><path d="M0.0 0.0V-729.0H122.0V0.0ZM152.0 -149.0V-848.0H253.0V-149.0ZM-127.0 -149.0V-802.0H199.0V-677.0H-27.0V-149.0Z"/></g>
<g fill="red" transform="translate(1300 300) scale(0.1 -0.1)"><path d="M0.0 0.0V-803.0H31.0V0.0ZM204.0 -220.0V-886.0H234.0V-220.0ZM-198.0 -221.0V-822.0H222.0V-792.0H-168.0V-221.0Z"/></g>
<g fill="black" opacity=".8" transform="translate(1300 300) scale(0.1 -0.1)"><path d="M0.0 0.0V-809.0H31.0V0.0ZM205.0 -218.0V-887.0H227.0V-218.0ZM-193.0 -225.0V-814.0H216.0V-786.0H-166.0V-225.0Z"/></g>
<g fill="red" transform="translate(1400 300) scale(0.1 -0.1)"><path d="M0.0 0.0V-810.0H125.0V0.0ZM168.0 -210.0V-930.0H295.0V-210.0ZM-163.0 -218.0V-872.0H226.0V-738.0H-40.0V-218.0Z"/></g>
<g fill="black" opacity=".8" transform="translate(1400 300) scale(0.1 -0.1)"><path d="M0.0 0.0V-812.0H128.0V0.0ZM175.0 -214.0V-931.0H297.0V-214.0ZM-168.0 -225.0V-869.0H228.0V-744.0H-46.0V-225.0Z"/></g>
<g fill="red" transform="translate(1500 300) scale(0.1 -0.1)"><path d="M0.0 0.0V-712.0H28.0V0.0ZM132.0 -160.0V-762.0H161.0V-160.0ZM-133.0 -160.0V-727.0H152.0V-697.0H-104.0V-160.0Z"/></g>
<g fill="black" opacity=".8" transform="translate(1500 300) scale(0.1 -0.1)"><path d="M0.0 0.0V-718.0H33.0V0.0ZM135.0 -159.0V-764.0H167.0V-159.0ZM-132.0 -157.0V-729.0H151.0V-699.0H-103.0V-157.0Z"/></g>
<g fill="red" transform="translate(1600 300) scale(0.1 -0.1)"><path d="M0.0 0.0V-758.0H129.0V0.0ZM153.0 -150.0V-852.0H256.0V-150.0ZM-126.0 -153.0V-804.0H193.0V-680.0H-26.0V-153.0Z"/></g>
<g fill="black" opacity=".8" transform="translate(1600 300) scale(0.1 -0.1)"><path d="M0.0 0.0V-747.0H121.0V0.0ZM149.0 -150.0V-849.0H252.0V-150.0ZM-126.0 -148.0V-807.0H199.0V-683.0H-27.0V-148.0Z"/></g>
<g fill="red" transform="translate(100 400) scale(0.1 -0.1)"><path d="M0.0 0.0V-701.0H29.0V0.0ZM129.0 -186.0V-768.0H159.0V-186.0ZM-126.0 -184.0V-712.0H150.0V-683.0H-96.0V-184.0Z"/></g>
<g fill="black" opacity=".8" transform="translate(100 400) scale(0.1 -0.1)"><path d="M0.0 0.0V-684.0H16.0V0.0ZM142.0 -177.0V-766.0H160.0V-177.0ZM-133.0 -178.0V-694.0H149.0V-669.0H-108.0V-178.0Z"/></g>
<g fill="red" transform="translate(200 400) scale(0.1 -0.1)"><path d="M0.0 0.0V-675.0H109.0V0.0ZM133.0 -163.0V-807.0H239.0V-163.0ZM-127.0 -161.0V-736.0H180.0V-618.0H-22.0V-161.0Z"/></g>
<g fill="black" opacity=".8" transform="translate(200 400) scale(0.1 -0.1)"><path d="M0.0 0.0V-686.0H101.0V0.0ZM136.0 -170.0V-816.0H231.0V-170.0ZM-115.0 -170.0V-747.0H176.0V-638.0H-18.0V-170.0Z"/></g>
<g fill="red" transform="translate(300 400) scale(0.1 -0.1)"><path d="M0.0 0.0V-712.0H27.0V0.0ZM443.0 11.0V-395.0H472.0V11.0ZM-131.0 -160.0V-727.0H147.0V-697.0H-102.0V-160.0Z"/></g>
<g fill="black" opacity=".8" transform="translate(300 400) scale(0.1 -0.1)"><path d="M0.0 0.0V-719.0H32.0V0.0ZM445.0 14.0V-395.0H470.0V14.0ZM-128.0 -160.0V-721.0H146.0V-692.0H-100.0V-160.0Z"/></g>
<g fill="red" transform="translate(400 400) scale(0.1 -0.1)"><path d="M0.0 0.0V-758.0H129.0V0.0ZM451.0 15.0V-431.0H593.0V15.0ZM-126.0 -153.0V-804.0H193.0V-680.0H-26.0V-153.0Z"/></g>
<g fill="black" opacity=".8" transform="translate(400 400) scale(0.1 -0.1)"><path d="M0.0 0.0V-753.0H118.0V0.0ZM456.0 12.0V-434.0H591.0V12.0ZM-125.0 -156.0V-807.0H195.0V-685.0H-36.0V-156.0Z"/></g>
<g fill="red" transform="translate(500 400) scale(0.1 -0.1)"><path d="M0.0 0.0V-706.0H29.0V0.0ZM126.0 -155.0V-755.0H155.0V-155.0ZM-138.0 -157.0V-724.0H138.0V-694.0H-108.0V-157.0Z"/></g>
<g fill="black" opacity=".8" transform="translate(500 400) scale(0.1 -0.1)"><path d="M0.0 0.0V-709.0H29.0V0.0ZM126.0 -158.0V-755.0H159.0V-158.0ZM-135.0 -157.0V-726.0H140.0V-696.0H-105.0V-157.0Z"/></g>
<g fill="red" transform="translate(600 400) scale(0.1 -0.1)"><path d="M0.0 0.0V-743.0H118.0V0.0ZM145.0 -150.0V-843.0H248.0V-150.0ZM-129.0 -148.0V-806.0H192.0V-682.0H-27.0V-148.0Z"/></g>
<g fill="black" opacity=".8" transform="translate(600 400) scale(0.1 -0.1)"><path d="M0.0 0.0V-738.0H118.0V0.0ZM144.0 -147.0V-843.0H246.0V-147.0ZM-130.0 -146.0V-806.0H192.0V-680.0H-31.0V-146.0Z"/></g>
<g fill="red" transform="translate(700 400) scale(0.1 -0.1)"><path d="M0.0 0.0V-712.0H28.0V0.0ZM132.0 -166.0V-762.0H160.0V-166.0ZM-133.0 -160.0V-727.0H152.0V-697.0H-104.0V-160.0Z"/></g>
<g fill="black" opacity=".8" transform="translate(700 400) scale(0.1 -0.1)"><path d="M0.0 0.0V-717.0H33.0V0.0ZM134.0 -162.0V-764.0H167.0V-162.0ZM-133.0 -157.0V-729.0H150.0V-699.0H-103.0V-157.0Z"/></g>
<g fill="red" transform="translate(800 400) scale(0.1 -0.1)"><path d="M0.0 0.0V-758.0H129.0V0.0ZM153.0 -150.0V-852.0H256.0V-150.0ZM-126.0 -153.0V-804.0H193.0V-680.0H-26.0V-153.0Z"/></g>
<g fill="black" opacity=".8" transform="translate(800 400) scale(0.1 -0.1)"><path d="M0.0 0.0V-747.0H121.0V0.0ZM148.0 -153.0V-849.0H252.0V-153.0ZM-126.0 -148.0V-807.0H199.0V-682.0H-27.0V-148.0Z"/></g>
<g fill="red" transform="translate(900 400) scale(0.1 -0.1)"><path d="M0.0 0.0V-706.0H29.0V0.0ZM125.0 -156.0V-756.0H155.0V-156.0ZM-132.0 -158.0V-725.0H137.0V-695.0H-102.0V-158.0Z"/></g>
<g fill="black" opacity=".8" transform="translate(900 400) scale(0.1 -0.1)"><path d="M0.0 0.0V-709.0H30.0V0.0ZM123.0 -158.0V-760.0H155.0V-158.0ZM-129.0 -157.0V-727.0H140.0V-697.0H-100.0V-157.0Z"/></g>
<g fill="red" transform="translate(1000 400) scale(0.1 -0.1)"><path d="M0.0 0.0V-743.0H118.0V0.0ZM145.0 -150.0V-852.0H238.0V-150.0ZM-122.0 -148.0V-806.0H193.0V-682.0H-26.0V-148.0Z"/></g>
<g fill="black" opacity=".8" transform="translate(1000 400) scale(0.1 -0.1)"><path d="M0.0 0.0V-738.0H119.0V0.0ZM142.0 -148.0V-848.0H242.0V-148.0ZM-124.0 -147.0V-806.0H192.0V-681.0H-27.0V-147.0Z"/></g>
<g fill="red" transform="translate(1100 400) scale(0.1 -0.1)"><path d="M0.0 0.0V-706.0H29.0V0.0ZM132.0 -160.0V-756.0H161.0V-160.0ZM-133.0 -154.0V-721.0H153.0V-691.0H-103.0V-154.0Z"/></g>
<g fill="black" opacity=".8" transform="translate(1100 400) scale(0.1 -0.1)"><path d="M0.0 0.0V-704.0H32.0V0.0ZM129.0 -160.0V-762.0H160.0V-160.0ZM-130.0 -161.0V-722.0H150.0V-693.0H-100.0V-161.0Z"/></g>
<g fill="red" transform="translate(1200 400) scale(0.1 -0.1)"><path d="M0.0 0.0V-725.0H119.0V0.0ZM141.0 -150.0V-852.0H243.0V-150.0ZM-120.0 -153.0V-804.0H197.0V-680.0H-22.0V-153.0Z"/></g>
<g fill="black" opacity=".8" transform="translate(1200 400) scale(0.1 -0.1)"><path d="M0.0 0.0V-731.0H120.0V0.0ZM144.0 -150.0V-847.0H245.0V-150.0ZM-123.0 -152.0V-800.0H199.0V-676.0H-25.0V-152.0Z"/></g>
<g fill="red" transform="translate(1300 400) scale(0.1 -0.1)"><path d="M0.0 0.0V-706.0H29.0V0.0ZM122.0 -160.0V-756.0H152.0V-160.0ZM-132.0 -154.0V-721.0H140.0V-691.0H-102.0V-154.0Z"/></g>
<g fill="black" opacity=".8" transform="translate(1300 400) scale(0.1 -0.1)"><path d="M0.0 0.0V-700.0H28.0V0.0ZM123.0 -160.0V-760.0H156.0V-160.0ZM-128.0 -159.0V-724.0H142.0V-694.0H-98.0V-159.0Z"/></g>
<g fill="red" transform="translate(1400 400) scale(0.1 -0.1)"><path d="M0.0 0.0V-725.0H124.0V0.0ZM145.0 -150.0V-852.0H252.0V-150.0ZM-120.0 -153.0V-804.0H198.0V-680.0H-21.0V-153.0Z"/></g>
<g fill="black" opacity=".8" transform="translate(1400 400) scale(0.1 -0.1)"><path d="M0.0 0.0V-729.0H119.0V0.0ZM146.0 -149.0V-849.0H247.0V-149.0ZM-124.0 -147.0V-804.0H199.0V-677.0H-25.0V-147.0Z"/></g>
<g fill="red" transform="translate(1500 400) scale(0.1 -0.1)"><path d="M0.0 0.0V-706.0H29.0V0.0ZM132.0 -160.0V-756.0H161.0V-160.0ZM-133.0 -154.0V-721.0H153.0V-691.0H-103.0V-154.0Z"/></g>
<g fill="black" opacity=".8" transform="translate(1500 400) scale(0.1 -0.1)"><path d="M0.0 0.0V-703.0H33.0V0.0ZM130.0 -159.0V-762.0H161.0V-159.0ZM-131.0 -161.0V-722.0H149.0V-693.0H-101.0V-161.0Z"/></g>
<g fill="red" transform="translate(1600 400) scale(0.1 -0.1)"><path d="M0.0 0.0V-725.0H122.0V0.0ZM143.0 -150.0V-852.0H246.0V-150.0ZM-123.0 -153.0V-804.0H196.0V-680.0H-23.0V-153.0Z"/></g>
<g fill="black" opacity=".8" transform="translate(1600 400) scale(0.1 -0.1)"><path d="M0.0 0.0V-731.0H121.0V0.0ZM146.0 -149.0V-847.0H247.0V-149.0ZM-125.0 -151.0V-800.0H199.0V-676.0H-26.0V-151.0Z"/></g>
<g fill="red" transform="translate(100 500) scale(0.1 -0.1)"><path d="M0.0 0.0V-706.0H29.0V0.0ZM118.0 -155.0V-755.0H147.0V-155.0ZM-119.0 -157.0V-724.0H139.0V-694.0H-89.0V-157.0Z"/></g>
<g fill="black" opacity=".8" transform="translate(100 500) scale(0.1 -0.1)"><path d="M0.0 0.0V-708.0H30.0V0.0ZM117.0 -157.0V-752.0H152.0V-157.0ZM-121.0 -157.0V-724.0H139.0V-695.0H-91.0V-157.0Z"/></g>
<g fill="red" transform="translate(200 500) scale(0.1 -0.1)"><path d="M0.0 0.0V-743.0H118.0V0.0ZM142.0 -150.0V-839.0H235.0V-150.0ZM-119.0 -148.0V-806.0H196.0V-682.0H-23.0V-148.0Z"/></g>
<g fill="black" opacity=".8" transform="translate(200 500) scale(0.1 -0.1)"><path d="M0.0 0.0V-739.0H118.0V0.0ZM138.0 -146.0V-843.0H237.0V-146.0ZM-116.0 -147.0V-806.0H194.0V-681.0H-20.0V-147.0Z"/></g>
<g fill="red" transform="translate(300 500) scale(0.1 -0.1)"><path d="M0.0 0.0V-712.0H28.0V0.0ZM135.0 -166.0V-762.0H164.0V-166.0ZM-137.0 -160.0V-727.0H152.0V-697.0H-108.0V-160.0Z"/></g>
<g fill="black" opacity=".8" transform="translate(300 500) scale(0.1 -0.1)"><path d="M0.0 0.0V-720.0H35.0V0.0ZM139.0 -163.0V-768.0H168.0V-163.0ZM-134.0 -157.0V-729.0H144.0V-701.0H-106.0V-157.0Z"/></g>
<g fill="red" transform="translate(400 500) scale(0.1 -0.1)"><path d="M0.0 0.0V-758.0H125.0V0.0ZM151.0 -152.0V-854.0H253.0V-152.0ZM-126.0 -153.0V-804.0H172.0V-680.0H-26.0V-153.0Z"/></g>
<g fill="black" opacity=".8" transform="translate(400 500) scale(0.1 -0.1)"><path d="M0.0 0.0V-747.0H120.0V0.0ZM147.0 -155.0V-847.0H248.0V-155.0ZM-128.0 -149.0V-804.0H185.0V-683.0H-29.0V-149.0Z"/></g>
<g fill="red" transform="translate(500 500) scale(0.1 -0.1)"><path d="M0.0 0.0V-252.0H30.0V0.0ZM152.0 -331.0V-648.0H182.0V-331.0ZM-522.0 -345.0V-596.0H167.0V-566.0H-493.0V-345.0Z"/></g>
<g fill="black" opacity=".8" transform="translate(500 500) scale(0.1 -0.1)"><path d="M0.0 0.0V-256.0H35.0V0.0ZM151.0 -349.0V-660.0H187.0V-349.0ZM-518.0 -352.0V-619.0H167.0V-585.0H-485.0V-352.0Z"/></g>
<g fill="red" transform="translate(600 500) scale(0.1 -0.1)"><path d="M0.0 0.0V-243.0H144.0V0.0ZM149.0 -355.0V-688.0H291.0V-355.0ZM-496.0 -358.0V-653.0H197.0V-521.0H-355.0V-358.0Z"/></g>
<g fill="black" opacity=".8" transform="translate(600 500) scale(0.1 -0.1)"><path d="M0.0 0.0V-235.0H159.0V0.0ZM133.0 -337.0V-668.0H292.0V-337.0ZM-504.0 -336.0V-647.0H206.0V-501.0H-351.0V-336.0Z"/></g>
<g fill="red" transform="translate(700 500) scale(0.1 -0.1)"><path d="M0.0 0.0V-724.0H29.0V0.0ZM451.0 17.0V-499.0H481.0V17.0ZM-133.0 -154.0V-734.0H153.0V-705.0H-103.0V-154.0Z"/></g>
<g fill="black" opacity=".8" transform="translate(700 500) scale(0.1 -0.1)"><path d="M0.0 0.0V-725.0H35.0V0.0ZM460.0 11.0V-506.0H466.0V11.0ZM-132.0 -156.0V-739.0H153.0V-709.0H-103.0V-156.0Z"/></g>
<g fill="red" transform="translate(800 500) scale(0.1 -0.1)"><path d="M0.0 0.0V-743.0H128.0V0.0ZM461.0 7.0V-547.0H612.0V7.0ZM-127.0 -151.0V-816.0H190.0V-692.0H-29.0V-151.0Z"/></g>
<g fill="black" opacity=".8" transform="translate(800 500) scale(0.1 -0.1)"><path d="M0.0 0.0V-743.0H129.0V0.0ZM474.0 9.0V-535.0H602.0V9.0ZM-127.0 -143.0V-816.0H197.0V-691.0H-32.0V-143.0Z"/></g>
<g fill="red" transform="translate(900 500) scale(0.1 -0.1)"><path d="M0.0 0.0V-706.0H29.0V0.0ZM118.0 -155.0V-755.0H147.0V-155.0ZM-119.0 -157.0V-724.0H139.0V-694.0H-89.0V-157.0Z"/></g>
<g fill="black" opacity=".8" transform="translate(900 500) scale(0.1 -0.1)"><path d="M0.0 0.0V-707.0H31.0V0.0ZM116.0 -158.0V-757.0H150.0V-158.0ZM-121.0 -156.0V-725.0H140.0V-695.0H-91.0V-156.0Z"/></g>
<g fill="red" transform="translate(1000 500) scale(0.1 -0.1)"><path d="M0.0 0.0V-743.0H118.0V0.0ZM142.0 -150.0V-852.0H235.0V-150.0ZM-119.0 -148.0V-806.0H196.0V-682.0H-23.0V-148.0Z"/></g>
<g fill="black" opacity=".8" transform="translate(1000 500) scale(0.1 -0.1)"><path d="M0.0 0.0V-739.0H119.0V0.0ZM138.0 -146.0V-850.0H237.0V-146.0ZM-117.0 -146.0V-807.0H196.0V-682.0H-20.0V-146.0Z"/></g>
<g fill="red" transform="translate(1100 500) scale(0.1 -0.1)"><path d="M0.0 0.0V-706.0H29.0V0.0ZM124.0 -155.0V-755.0H154.0V-155.0ZM-125.0 -157.0V-724.0H133.0V-694.0H-95.0V-157.0Z"/></g>
<g fill="black" opacity=".8" transform="translate(1100 500) scale(0.1 -0.1)"><path d="M0.0 0.0V-708.0H31.0V0.0ZM120.0 -158.0V-758.0H153.0V-158.0ZM-124.0 -156.0V-726.0H139.0V-696.0H-94.0V-156.0Z"/></g>
<g fill="red" transform="translate(1200 500) scale(0.1 -0.1)"><path d="M0.0 0.0V-743.0H118.0V0.0ZM142.0 -150.0V-852.0H235.0V-150.0ZM-119.0 -148.0V-806.0H196.0V-682.0H-23.0V-148.0Z"/></g>
<g fill="black" opacity=".8" transform="translate(1200 500) scale(0.1 -0.1)"><path d="M0.0 0.0V-739.0H119.0V0.0ZM140.0 -147.0V-848.0H240.0V-147.0ZM-119.0 -146.0V-806.0H192.0V-682.0H-22.0V-146.0Z"/></g>
<g fill="red" transform="translate(1300 500) scale(0.1 -0.1)"><path d="M0.0 0.0V-729.0H29.0V0.0ZM116.0 -160.0V-791.0H145.0V-160.0ZM-120.0 -154.0V-737.0H135.0V-708.0H-90.0V-154.0Z"/></g>
<g fill="black" opacity=".8" transform="translate(1300 500) scale(0.1 -0.1)"><path d="M0.0 0.0V-721.0H26.0V0.0ZM123.0 -159.0V-783.0H153.0V-159.0ZM-124.0 -159.0V-739.0H137.0V-708.0H-94.0V-159.0Z"/></g>
<g fill="red" transform="translate(1400 500) scale(0.1 -0.1)"><path d="M0.0 0.0V-743.0H124.0V0.0ZM148.0 -148.0V-860.0H251.0V-148.0ZM-122.0 -151.0V-816.0H195.0V-692.0H-24.0V-151.0Z"/></g>
<g fill="black" opacity=".8" transform="translate(1400 500) scale(0.1 -0.1)"><path d="M0.0 0.0V-746.0H118.0V0.0ZM145.0 -147.0V-871.0H245.0V-147.0ZM-118.0 -145.0V-818.0H192.0V-691.0H-20.0V-145.0Z"/></g>
<g fill="red" transform="translate(1500 500) scale(0.1 -0.1)"><path d="M0.0 0.0V-723.0H29.0V0.0ZM135.0 -175.0V-771.0H164.0V-175.0ZM-137.0 -169.0V-736.0H152.0V-706.0H-108.0V-169.0Z"/></g>
<g fill="black" opacity=".8" transform="translate(1500 500) scale(0.1 -0.1)"><path d="M0.0 0.0V-720.0H33.0V0.0ZM136.0 -171.0V-780.0H163.0V-171.0ZM-136.0 -170.0V-737.0H142.0V-709.0H-108.0V-170.0Z"/></g>
<g fill="red" transform="translate(1600 500) scale(0.1 -0.1)"><path d="M0.0 0.0V-738.0H117.0V0.0ZM145.0 -161.0V-863.0H238.0V-161.0ZM-127.0 -162.0V-813.0H171.0V-689.0H-27.0V-162.0Z"/></g>
<g fill="black" opacity=".8" transform="translate(1600 500) scale(0.1 -0.1)"><path d="M0.0 0.0V-742.0H118.0V0.0ZM140.0 -163.0V-855.0H241.0V-163.0ZM-127.0 -162.0V-808.0H180.0V-688.0H-28.0V-162.0Z"/></g>
<g fill="red" transform="translate(100 600) scale(0.1 -0.1)"><path d="M0.0 0.0V-706.0H29.0V0.0ZM129.0 -155.0V-755.0H158.0V-155.0ZM-136.0 -157.0V-724.0H140.0V-694.0H-106.0V-157.0Z"/></g>
<g fill="black" opacity=".8" transform="translate(100 600) scale(0.1 -0.1)"><path d="M0.0 0.0V-710.0H32.0V0.0ZM125.0 -158.0V-760.0H157.0V-158.0ZM-132.0 -157.0V-726.0H142.0V-696.0H-102.0V-157.0Z"/></g>
<g fill="red" transform="translate(200 600) scale(0.1 -0.1)"><path d="M0.0 0.0V-743.0H118.0V0.0ZM143.0 -150.0V-852.0H236.0V-150.0ZM-122.0 -148.0V-806.0H193.0V-682.0H-26.0V-148.0Z"/></g>
<g fill="black" opacity=".8" transform="translate(200 600) scale(0.1 -0.1)"><path d="M0.0 0.0V-739.0H119.0V0.0ZM141.0 -147.0V-847.0H242.0V-147.0ZM-126.0 -148.0V-804.0H192.0V-680.0H-28.0V-148.0Z"/></g>
<g fill="red" transform="translate(300 600) scale(0.1 -0.1)"><path d="M0.0 0.0V-717.0H28.0V0.0ZM117.0 -160.0V-760.0H145.0V-160.0ZM-120.0 -163.0V-730.0H134.0V-700.0H-91.0V-163.0Z"/></g>
<g fill="black" opacity=".8" transform="translate(300 600) scale(0.1 -0.1)"><path d="M0.0 0.0V-715.0H27.0V0.0ZM116.0 -160.0V-761.0H150.0V-160.0ZM-122.0 -159.0V-730.0H138.0V-700.0H-92.0V-159.0Z"/></g>
<g fill="red" transform="translate(400 600) scale(0.1 -0.1)"><path d="M0.0 0.0V-748.0H119.0V0.0ZM142.0 -150.0V-852.0H235.0V-150.0ZM-119.0 -149.0V-807.0H196.0V-683.0H-23.0V-149.0Z"/></g>
<g fill="black" opacity=".8" transform="translate(400 600) scale(0.1 -0.1)"><path d="M0.0 0.0V-744.0H116.0V0.0ZM137.0 -149.0V-851.0H237.0V-149.0ZM-117.0 -148.0V-810.0H193.0V-685.0H-20.0V-148.0Z"/></g>
<g fill="red" transform="translate(500 600) scale(0.1 -0.1)"><path d="M0.0 0.0V-706.0H29.0V0.0ZM145.0 -160.0V-769.0H174.0V-160.0ZM-135.0 -154.0V-721.0H161.0V-691.0H-105.0V-154.0Z"/></g>
<g fill="black" opacity=".8" transform="translate(500 600) scale(0.1 -0.1)"><path d="M0.0 0.0V-705.0H36.0V0.0ZM147.0 -158.0V-767.0H173.0V-158.0ZM-137.0 -160.0V-722.0H151.0V-694.0H-108.0V-160.0Z"/></g>
<g fill="red" transform="translate(600 600) scale(0.1 -0.1)"><path d="M0.0 0.0V-725.0H124.0V0.0ZM154.0 -148.0V-840.0H257.0V-148.0ZM-131.0 -151.0V-802.0H186.0V-678.0H-33.0V-151.0Z"/></g>
<g fill="black" opacity=".8" transform="translate(600 600) scale(0.1 -0.1)"><path d="M0.0 0.0V-730.0H122.0V0.0ZM156.0 -149.0V-844.0H257.0V-149.0ZM-129.0 -151.0V-795.0H192.0V-674.0H-30.0V-151.0Z"/></g>
<g fill="red" transform="translate(700 600) scale(0.1 -0.1)"><path d="M0.0 0.0V-706.0H30.0V0.0ZM118.0 -155.0V-755.0H147.0V-155.0ZM-118.0 -157.0V-724.0H139.0V-694.0H-89.0V-157.0Z"/></g>
<g fill="black" opacity=".8" transform="translate(700 600) scale(0.1 -0.1)"><path d="M0.0 0.0V-711.0H34.0V0.0ZM115.0 -157.0V-760.0H145.0V-157.0ZM-119.0 -157.0V-725.0H132.0V-696.0H-91.0V-157.0Z"/></g>
<g fill="red" transform="translate(800 600) scale(0.1 -0.1)"><path d="M0.0 0.0V-743.0H109.0V0.0ZM129.0 -150.0V-852.0H221.0V-150.0ZM-116.0 -148.0V-806.0H172.0V-682.0H-22.0V-148.0Z"/></g>
<g fill="black" opacity=".8" transform="translate(800 600) scale(0.1 -0.1)"><path d="M0.0 0.0V-740.0H117.0V0.0ZM128.0 -148.0V-846.0H225.0V-148.0ZM-114.0 -148.0V-802.0H177.0V-682.0H-20.0V-148.0Z"/></g>
<g fill="red" transform="translate(900 600) scale(0.1 -0.1)"><path d="M0.0 0.0V-711.0H30.0V0.0ZM104.0 -157.0V-757.0H134.0V-157.0ZM-108.0 -159.0V-726.0H120.0V-696.0H-78.0V-159.0Z"/></g>
<g fill="black" opacity=".8" transform="translate(900 600) scale(0.1 -0.1)"><path d="M0.0 0.0V-712.0H27.0V0.0ZM103.0 -159.0V-760.0H134.0V-159.0ZM-112.0 -157.0V-725.0H123.0V-696.0H-83.0V-157.0Z"/></g>
<g fill="red" transform="translate(1000 600) scale(0.1 -0.1)"><path d="M0.0 0.0V-743.0H102.0V0.0ZM125.0 -150.0V-852.0H212.0V-150.0ZM-112.0 -148.0V-802.0H176.0V-678.0H-22.0V-148.0Z"/></g>
<g fill="black" opacity=".8" transform="translate(1000 600) scale(0.1 -0.1)"><path d="M0.0 0.0V-739.0H111.0V0.0ZM121.0 -148.0V-848.0H216.0V-148.0ZM-107.0 -146.0V-803.0H173.0V-682.0H-14.0V-146.0Z"/></g>
<g fill="red" transform="translate(1100 600) scale(0.1 -0.1)"><path d="M0.0 0.0V-344.0H29.0V0.0ZM118.0 -365.0V-660.0H148.0V-365.0ZM-550.0 -363.0V-609.0H141.0V-577.0H-520.0V-363.0Z"/></g>
<g fill="black" opacity=".8" transform="translate(1100 600) scale(0.1 -0.1)"><path d="M0.0 0.0V-342.0H32.0V0.0ZM111.0 -374.0V-668.0H158.0V-374.0ZM-564.0 -343.0V-633.0H166.0V-604.0H-536.0V-343.0Z"/></g>
<g fill="red" transform="translate(1200 600) scale(0.1 -0.1)"><path d="M0.0 0.0V-351.0H143.0V0.0ZM76.0 -375.0V-690.0H218.0V-375.0ZM-556.0 -371.0V-649.0H173.0V-516.0H-417.0V-371.0Z"/></g>
<g fill="black" opacity=".8" transform="translate(1200 600) scale(0.1 -0.1)"><path d="M0.0 0.0V-324.0H146.0V0.0ZM54.0 -366.0V-667.0H220.0V-366.0ZM-542.0 -342.0V-652.0H170.0V-518.0H-389.0V-342.0Z"/></g>
<g fill="red" transform="translate(1300 600) scale(0.1 -0.1)"><path d="M0.0 0.0V-706.0H29.0V0.0ZM489.0 -245.0V-603.0H518.0V-245.0ZM-128.0 -157.0V-724.0H137.0V-694.0H-98.0V-157.0Z"/></g>
<g fill="black" opacity=".8" transform="translate(1300 600) scale(0.1 -0.1)"><path d="M0.0 0.0V-707.0H34.0V0.0ZM478.0 -257.0V-619.0H532.0V-257.0ZM-129.0 -150.0V-742.0H146.0V-711.0H-98.0V-150.0Z"/></g>
<g fill="red" transform="translate(1400 600) scale(0.1 -0.1)"><path d="M0.0 0.0V-743.0H118.0V0.0ZM512.0 -295.0V-646.0H642.0V-295.0ZM-119.0 -148.0V-806.0H196.0V-682.0H-23.0V-148.0Z"/></g>
<g fill="black" opacity=".8" transform="translate(1400 600) scale(0.1 -0.1)"><path d="M0.0 0.0V-729.0H124.0V0.0ZM493.0 -280.0V-623.0H648.0V-280.0ZM-120.0 -131.0V-805.0H198.0V-675.0H-11.0V-131.0Z"/></g>
<g fill="red" transform="translate(1500 600) scale(0.1 -0.1)"><path d="M0.0 0.0V-721.0H28.0V0.0ZM123.0 -160.0V-762.0H153.0V-160.0ZM-124.0 -163.0V-730.0H134.0V-700.0H-94.0V-163.0Z"/></g>
<g fill="black" opacity=".8" transform="translate(1500 600) scale(0.1 -0.1)"><path d="M0.0 0.0V-725.0H26.0V0.0ZM119.0 -161.0V-763.0H151.0V-161.0ZM-127.0 -158.0V-730.0H139.0V-701.0H-98.0V-158.0Z"/></g>
<g fill="red" transform="translate(1600 600) scale(0.1 -0.1)"><path d="M0.0 0.0V-758.0H106.0V0.0ZM130.0 -150.0V-852.0H232.0V-150.0ZM-125.0 -149.0V-807.0H192.0V-683.0H-27.0V-149.0Z"/></g>
<g fill="black" opacity=".8" transform="translate(1600 600) scale(0.1 -0.1)"><path d="M0.0 0.0V-752.0H114.0V0.0ZM133.0 -150.0V-849.0H233.0V-150.0ZM-120.0 -149.0V-808.0H188.0V-685.0H-23.0V-149.0Z"/></g>
<g fill="red" transform="translate(100 700) scale(0.1 -0.1)"><path d="M0.0 0.0V-317.0H29.0V0.0ZM0.0 -377.0V-730.0H29.0V-377.0ZM-616.0 -62.0V-629.0H-347.0V-599.0H-586.0V-62.0Z"/></g>
<g fill="black" opacity=".8" transform="translate(100 700) scale(0.1 -0.1)"><path d="M0.0 0.0V-316.0H27.0V0.0ZM-2.0 -372.0V-727.0H29.0V-372.0ZM-615.0 -66.0V-618.0H-352.0V-589.0H-585.0V-66.0Z"/></g>
<g fill="red" transform="translate(200 700) scale(0.1 -0.1)"><path d="M0.0 0.0V-293.0H124.0V0.0ZM0.0 -370.0V-703.0H126.0V-370.0ZM-643.0 22.0V-632.0H-349.0V-508.0H-547.0V22.0Z"/></g>
<g fill="black" opacity=".8" transform="translate(200 700) scale(0.1 -0.1)"><path d="M0.0 0.0V-301.0H121.0V0.0ZM8.0 -374.0V-713.0H128.0V-374.0ZM-641.0 10.0V-632.0H-352.0V-511.0H-552.0V10.0Z"/></g>
<g fill="red" transform="translate(300 700) scale(0.1 -0.1)"><path d="M0.0 0.0V-706.0H29.0V0.0ZM117.0 -155.0V-769.0H146.0V-155.0ZM-124.0 -157.0V-724.0H131.0V-694.0H-94.0V-157.0Z"/></g>
<g fill="black" opacity=".8" transform="translate(300 700) scale(0.1 -0.1)"><path d="M0.0 0.0V-711.0H26.0V0.0ZM114.0 -156.0V-763.0H146.0V-156.0ZM-124.0 -158.0V-726.0H138.0V-696.0H-95.0V-158.0Z"/></g>
<g fill="red" transform="translate(400 700) scale(0.1 -0.1)"><path d="M0.0 0.0V-743.0H110.0V0.0ZM131.0 -144.0V-846.0H233.0V-144.0ZM-122.0 -148.0V-806.0H199.0V-682.0H-20.0V-148.0Z"/></g>
<g fill="black" opacity=".8" transform="translate(400 700) scale(0.1 -0.1)"><path d="M0.0 0.0V-738.0H115.0V0.0ZM135.0 -144.0V-851.0H233.0V-144.0ZM-118.0 -147.0V-805.0H192.0V-680.0H-21.0V-147.0Z"/></g>
<g fill="red" transform="translate(500 700) scale(0.1 -0.1)"><path d="M0.0 0.0V-717.0H28.0V0.0ZM118.0 -160.0V-760.0H147.0V-160.0ZM-122.0 -163.0V-730.0H132.0V-700.0H-93.0V-163.0Z"/></g>
<g fill="black" opacity=".8" transform="translate(500 700) scale(0.1 -0.1)"><path d="M0.0 0.0V-715.0H27.0V0.0ZM117.0 -160.0V-761.0H150.0V-160.0ZM-124.0 -159.0V-730.0H138.0V-700.0H-95.0V-159.0Z"/></g>
<g fill="red" transform="translate(600 700) scale(0.1 -0.1)"><path d="M0.0 0.0V-748.0H119.0V0.0ZM138.0 -150.0V-852.0H237.0V-150.0ZM-123.0 -149.0V-807.0H196.0V-683.0H-23.0V-149.0Z"/></g>
<g fill="black" opacity=".8" transform="translate(600 700) scale(0.1 -0.1)"><path d="M0.0 0.0V-745.0H116.0V0.0ZM137.0 -149.0V-851.0H237.0V-149.0ZM-119.0 -148.0V-810.0H192.0V-685.0H-22.0V-148.0Z"/></g>
<g fill="red" transform="translate(700 700) scale(0.1 -0.1)"><path d="M0.0 0.0V-714.0H30.0V0.0ZM111.0 -162.0V-767.0H140.0V-162.0ZM-115.0 -164.0V-731.0H126.0V-701.0H-86.0V-164.0Z"/></g>
<g fill="black" opacity=".8" transform="translate(700 700) scale(0.1 -0.1)"><path d="M0.0 0.0V-705.0H24.0V0.0ZM113.0 -161.0V-765.0H140.0V-161.0ZM-118.0 -166.0V-726.0H125.0V-697.0H-89.0V-166.0Z"/></g>
<g fill="red" transform="translate(800 700) scale(0.1 -0.1)"><path d="M0.0 0.0V-716.0H108.0V0.0ZM131.0 -150.0V-839.0H218.0V-150.0ZM-111.0 -149.0V-800.0H178.0V-676.0H-23.0V-149.0Z"/></g>
<g fill="black" opacity=".8" transform="translate(800 700) scale(0.1 -0.1)"><path d="M0.0 0.0V-726.0H110.0V0.0ZM128.0 -150.0V-845.0H223.0V-150.0ZM-110.0 -154.0V-799.0H173.0V-679.0H-16.0V-154.0Z"/></g>
<g fill="red" transform="translate(900 700) scale(0.1 -0.1)"><path d="M0.0 0.0V-717.0H28.0V0.0ZM111.0 -160.0V-760.0H140.0V-160.0ZM-115.0 -163.0V-730.0H128.0V-700.0H-86.0V-163.0Z"/></g>
<g fill="black" opacity=".8" transform="translate(900 700) scale(0.1 -0.1)"><path d="M0.0 0.0V-718.0H23.0V0.0ZM105.0 -161.0V-761.0H139.0V-161.0ZM-118.0 -160.0V-729.0H135.0V-699.0H-89.0V-160.0Z"/></g>
<g fill="red" transform="translate(1000 700) scale(0.1 -0.1)"><path d="M0.0 0.0V-748.0H101.0V0.0ZM124.0 -150.0V-852.0H217.0V-150.0ZM-117.0 -149.0V-807.0H198.0V-683.0H-21.0V-149.0Z"/></g>
<g fill="black" opacity=".8" transform="translate(1000 700) scale(0.1 -0.1)"><path d="M0.0 0.0V-746.0H112.0V0.0ZM125.0 -149.0V-851.0H223.0V-149.0ZM-112.0 -151.0V-808.0H190.0V-685.0H-16.0V-151.0Z"/></g>
<g fill="red" transform="translate(1100 700) scale(0.1 -0.1)"><path d="M0.0 0.0V-717.0H27.0V0.0ZM117.0 -160.0V-760.0H148.0V-160.0ZM-120.0 -163.0V-730.0H134.0V-700.0H-91.0V-163.0Z"/></g>
<g fill="black" opacity=".8" transform="translate(1100 700) scale(0.1 -0.1)"><path d="M0.0 0.0V-716.0H27.0V0.0ZM117.0 -160.0V-761.0H151.0V-160.0ZM-122.0 -159.0V-730.0H138.0V-700.0H-93.0V-159.0Z"/></g>
<g fill="red" transform="translate(1200 700) scale(0.1 -0.1)"><path d="M0.0 0.0V-748.0H119.0V0.0ZM142.0 -150.0V-852.0H235.0V-150.0ZM-119.0 -149.0V-807.0H196.0V-683.0H-23.0V-149.0Z"/></g>
<g fill="black" opacity=".8" transform="translate(1200 700) scale(0.1 -0.1)"><path d="M0.0 0.0V-745.0H116.0V0.0ZM137.0 -149.0V-851.0H237.0V-149.0ZM-117.0 -148.0V-810.0H193.0V-685.0H-20.0V-148.0Z"/></g>
<g fill="red" transform="translate(1300 700) scale(0.1 -0.1)"><path d="M0.0 0.0V-717.0H29.0V0.0ZM111.0 -160.0V-760.0H140.0V-160.0ZM-115.0 -163.0V-730.0H129.0V-700.0H-86.0V-163.0Z"/></g>
<g fill="black" opacity=".8" transform="translate(1300 700) scale(0.1 -0.1)"><path d="M0.0 0.0V-718.0H24.0V0.0ZM105.0 -161.0V-761.0H139.0V-161.0ZM-118.0 -160.0V-729.0H136.0V-699.0H-89.0V-160.0Z"/></g>
<g fill="red" transform="translate(1400 700) scale(0.1 -0.1)"><path d="M0.0 0.0V-748.0H101.0V0.0ZM124.0 -150.0V-852.0H217.0V-150.0ZM-117.0 -149.0V-807.0H198.0V-683.0H-21.0V-149.0Z"/></g>
<g fill="black" opacity=".8" transform="translate(1400 700) scale(0.1 -0.1)"><path d="M0.0 0.0V-746.0H112.0V0.0ZM124.0 -149.0V-851.0H223.0V-149.0ZM-112.0 -151.0V-808.0H190.0V-685.0H-16.0V-151.0Z"/></g>
<g fill="red" transform="translate(1500 700) scale(0.1 -0.1)"><path d="M0.0 0.0V-706.0H30.0V0.0ZM486.0 -170.0V-611.0H516.0V-170.0ZM-111.0 -157.0V-724.0H124.0V-694.0H-81.0V-157.0Z"/></g>
<g fill="black" opacity=".8" transform="translate(1500 700) scale(0.1 -0.1)"><path d="M0.0 0.0V-709.0H31.0V0.0ZM486.0 -175.0V-610.0H519.0V-175.0ZM-119.0 -149.0V-743.0H141.0V-713.0H-88.0V-149.0Z"/></g>
<g fill="red" transform="translate(1600 700) scale(0.1 -0.1)"><path d="M0.0 0.0V-743.0H118.0V0.0ZM521.0 -197.0V-625.0H648.0V-197.0ZM-119.0 -148.0V-806.0H196.0V-682.0H-23.0V-148.0Z"/></g>
<g fill="black" opacity=".8" transform="translate(1600 700) scale(0.1 -0.1)"><path d="M0.0 0.0V-723.0H125.0V0.0ZM506.0 -193.0V-615.0H649.0V-193.0ZM-110.0 -126.0V-807.0H192.0V-679.0H-7.0V-126.0Z"/></g>
<g fill="red" transform="translate(100 800) scale(0.1 -0.1)"><path d="M0.0 0.0V-711.0H30.0V0.0ZM437.0 15.0V-417.0H467.0V15.0ZM-115.0 -159.0V-726.0H127.0V-696.0H-85.0V-159.0Z"/></g>
<g fill="black" opacity=".8" transform="translate(100 800) scale(0.1 -0.1)"><path d="M0.0 0.0V-715.0H28.0V0.0ZM441.0 16.0V-420.0H458.0V16.0ZM-114.0 -158.0V-722.0H128.0V-693.0H-86.0V-158.0Z"/></g>
<g fill="red" transform="translate(200 800) scale(0.1 -0.1)"><path d="M0.0 0.0V-743.0H109.0V0.0ZM450.0 16.0V-457.0H582.0V16.0ZM-112.0 -148.0V-802.0H176.0V-678.0H-22.0V-148.0Z"/></g>
<g fill="black" opacity=".8" transform="translate(200 800) scale(0.1 -0.1)"><path d="M0.0 0.0V-741.0H114.0V0.0ZM455.0 13.0V-454.0H582.0V13.0ZM-110.0 -149.0V-803.0H176.0V-684.0H-25.0V-149.0Z"/></g>
<g fill="red" transform="translate(300 800) scale(0.1 -0.1)"><path d="M0.0 0.0V-714.0H29.0V0.0ZM446.0 -105.0V-357.0H476.0V-105.0ZM-110.0 -164.0V-731.0H131.0V-701.0H-81.0V-164.0Z"/></g>
<g fill="black" opacity=".8" transform="translate(300 800) scale(0.1 -0.1)"><path d="M0.0 0.0V-702.0H21.0V0.0ZM437.0 -92.0V-346.0H492.0V-92.0ZM-109.0 -175.0V-712.0H117.0V-684.0H-82.0V-175.0Z"/></g>
<g fill="red" transform="translate(400 800) scale(0.1 -0.1)"><path d="M0.0 0.0V-716.0H100.0V0.0ZM444.0 -98.0V-346.0H581.0V-98.0ZM-103.0 -149.0V-800.0H183.0V-676.0H-18.0V-149.0Z"/></g>
<g fill="black" opacity=".8" transform="translate(400 800) scale(0.1 -0.1)"><path d="M0.0 0.0V-740.0H97.0V0.0ZM445.0 -102.0V-375.0H591.0V-102.0ZM-104.0 -174.0V-794.0H173.0V-677.0H-19.0V-174.0Z"/></g>
<g fill="red" transform="translate(500 800) scale(0.1 -0.1)"><path d="M0.0 0.0V-600.0H29.0V0.0ZM110.0 -367.0V-396.0H286.0V-367.0ZM-226.0 -3.0V-570.0H17.0V-540.0H-197.0V-3.0Z"/></g>
<g fill="black" opacity=".8" transform="translate(500 800) scale(0.1 -0.1)"><path d="M0.0 0.0V-603.0H31.0V0.0ZM121.0 -364.0V-395.0H271.0V-364.0ZM-221.0 -10.0V-559.0H10.0V-531.0H-193.0V-10.0Z"/></g>
<g fill="red" transform="translate(600 800) scale(0.1 -0.1)"><path d="M0.0 0.0V-702.0H93.0V0.0ZM132.0 -375.0V-483.0H312.0V-375.0ZM-237.0 1.0V-657.0H78.0V-533.0H-141.0V1.0Z"/></g>
<g fill="black" opacity=".8" transform="translate(600 800) scale(0.1 -0.1)"><path d="M0.0 0.0V-707.0H89.0V0.0ZM148.0 -383.0V-487.0H305.0V-383.0ZM-238.0 -6.0V-657.0H83.0V-538.0H-154.0V-6.0Z"/></g>
<g fill="red" transform="translate(700 800) scale(0.1 -0.1)"><path d="M0.0 0.0V-238.0H30.0V0.0ZM123.0 -331.0V-648.0H152.0V-331.0ZM-336.0 -334.0V-588.0H138.0V-558.0H-307.0V-334.0Z"/></g>
<g fill="black" opacity=".8" transform="translate(700 800) scale(0.1 -0.1)"><path d="M0.0 0.0V-240.0H27.0V0.0ZM133.0 -323.0V-646.0H151.0V-323.0ZM-327.0 -337.0V-575.0H130.0V-547.0H-298.0V-337.0Z"/></g>
<g fill="red" transform="translate(800 800) scale(0.1 -0.1)"><path d="M0.0 0.0V-203.0H138.0V0.0ZM123.0 -305.0V-638.0H252.0V-305.0ZM-304.0 -307.0V-597.0H165.0V-466.0H-176.0V-307.0Z"/></g>
<g fill="black" opacity=".8" transform="translate(800 800) scale(0.1 -0.1)"><path d="M0.0 0.0V-207.0H127.0V0.0ZM130.0 -314.0V-647.0H246.0V-314.0ZM-311.0 -318.0V-597.0H171.0V-475.0H-192.0V-318.0Z"/></g>
<g fill="red" transform="translate(900 800) scale(0.1 -0.1)"><path d="M0.0 0.0V-803.0H30.0V0.0ZM264.0 -215.0V-885.0H294.0V-215.0ZM-256.0 -216.0V-817.0H287.0V-787.0H-227.0V-216.0Z"/></g>
<g fill="black" opacity=".8" transform="translate(900 800) scale(0.1 -0.1)"><path d="M0.0 0.0V-806.0H37.0V0.0ZM257.0 -221.0V-887.0H289.0V-221.0ZM-253.0 -229.0V-821.0H283.0V-788.0H-221.0V-229.0Z"/></g>
<g fill="red" transform="translate(1000 800) scale(0.1 -0.1)"><path d="M0.0 0.0V-810.0H146.0V0.0ZM225.0 -222.0V-942.0H372.0V-222.0ZM-224.0 -230.0V-891.0H310.0V-757.0H-81.0V-230.0Z"/></g>
<g fill="black" opacity=".8" transform="translate(1000 800) scale(0.1 -0.1)"><path d="M0.0 0.0V-818.0H151.0V0.0ZM232.0 -216.0V-940.0H378.0V-216.0ZM-228.0 -230.0V-885.0H309.0V-743.0H-85.0V-230.0Z"/></g>
<g fill="red" transform="translate(1100 800) scale(0.1 -0.1)"><path d="M0.0 0.0V-803.0H30.0V0.0ZM215.0 -220.0V-886.0H245.0V-220.0ZM-209.0 -221.0V-822.0H234.0V-792.0H-180.0V-221.0Z"/></g>
<g fill="black" opacity=".8" transform="translate(1100 800) scale(0.1 -0.1)"><path d="M0.0 0.0V-806.0H31.0V0.0ZM217.0 -217.0V-885.0H242.0V-217.0ZM-205.0 -224.0V-816.0H230.0V-786.0H-176.0V-224.0Z"/></g>
<g fill="red" transform="translate(1200 800) scale(0.1 -0.1)"><path d="M0.0 0.0V-810.0H138.0V0.0ZM184.0 -210.0V-930.0H322.0V-210.0ZM-179.0 -218.0V-875.0H247.0V-741.0H-45.0V-218.0Z"/></g>
<g fill="black" opacity=".8" transform="translate(1200 800) scale(0.1 -0.1)"><path d="M0.0 0.0V-812.0H133.0V0.0ZM192.0 -213.0V-934.0H320.0V-213.0ZM-181.0 -223.0V-875.0H249.0V-744.0H-54.0V-223.0Z"/></g>
<g fill="red" transform="translate(1300 800) scale(0.1 -0.1)"><path d="M0.0 0.0V-803.0H30.0V0.0ZM230.0 -220.0V-886.0H259.0V-220.0ZM-227.0 -221.0V-822.0H244.0V-792.0H-197.0V-221.0Z"/></g>
<g fill="black" opacity=".8" transform="translate(1300 800) scale(0.1 -0.1)"><path d="M0.0 0.0V-804.0H35.0V0.0ZM233.0 -221.0V-889.0H260.0V-221.0ZM-223.0 -227.0V-822.0H238.0V-792.0H-192.0V-227.0Z"/></g>
<g fill="red" transform="translate(1400 800) scale(0.1 -0.1)"><path d="M0.0 0.0V-810.0H147.0V0.0ZM205.0 -219.0V-939.0H347.0V-219.0ZM-197.0 -227.0V-884.0H253.0V-750.0H-57.0V-227.0Z"/></g>
<g fill="black" opacity=".8" transform="translate(1400 800) scale(0.1 -0.1)"><path d="M0.0 0.0V-811.0H140.0V0.0ZM209.0 -217.0V-938.0H342.0V-217.0ZM-199.0 -225.0V-883.0H260.0V-748.0H-67.0V-225.0Z"/></g>
<g fill="red" transform="translate(1500 800) scale(0.1 -0.1)"><path d="M0.0 0.0V-494.0H30.0V0.0ZM315.0 -144.0V-558.0H344.0V-144.0ZM-316.0 -147.0V-504.0H340.0V-474.0H-286.0V-147.0Z"/></g>
<g fill="black" opacity=".8" transform="translate(1500 800) scale(0.1 -0.1)"><path d="M0.0 0.0V-486.0H24.0V0.0ZM320.0 -135.0V-554.0H354.0V-135.0ZM-324.0 -137.0V-500.0H339.0V-470.0H-296.0V-137.0Z"/></g>
<g fill="red" transform="translate(1600 800) scale(0.1 -0.1)"><path d="M0.0 0.0V-498.0H144.0V0.0ZM321.0 -129.0V-571.0H463.0V-129.0ZM-312.0 -130.0V-539.0H377.0V-413.0H-171.0V-130.0Z"/></g>
<g fill="black" opacity=".8" transform="translate(1600 800) scale(0.1 -0.1)"><path d="M0.0 0.0V-498.0H141.0V0.0ZM313.0 -134.0V-580.0H460.0V-134.0ZM-302.0 -137.0V-545.0H375.0V-420.0H-162.0V-137.0Z"/></g>
<g fill="red" transform="translate(100 900) scale(0.1 -0.1)"><path d="M0.0 0.0V-719.0H29.0V0.0ZM129.0 -164.0V-757.0H159.0V-164.0ZM-123.0 -163.0V-730.0H147.0V-700.0H-95.0V-163.0Z"/></g>
<g fill="black" opacity=".8" transform="translate(100 900) scale(0.1 -0.1)"><path d="M0.0 0.0V-716.0H28.0V0.0ZM128.0 -158.0V-758.0H158.0V-158.0ZM-127.0 -164.0V-728.0H145.0V-699.0H-98.0V-164.0Z"/></g>
<g fill="red" transform="translate(200 900) scale(0.1 -0.1)"><path d="M0.0 0.0V-738.0H114.0V0.0ZM140.0 -142.0V-841.0H239.0V-142.0ZM-125.0 -154.0V-805.0H194.0V-681.0H-25.0V-154.0Z"/></g>
<g fill="black" opacity=".8" transform="translate(200 900) scale(0.1 -0.1)"><path d="M0.0 0.0V-742.0H116.0V0.0ZM141.0 -147.0V-841.0H241.0V-147.0ZM-120.0 -156.0V-804.0H193.0V-682.0H-22.0V-156.0Z"/></g>
<g fill="red" transform="translate(300 900) scale(0.1 -0.1)"><path d="M0.0 0.0V-261.0H30.0V0.0ZM333.0 -35.0V-326.0H362.0V-35.0ZM-335.0 -40.0V-274.0H354.0V-244.0H-306.0V-40.0Z"/></g>
<g fill="black" opacity=".8" transform="translate(300 900) scale(0.1 -0.1)"><path d="M0.0 0.0V-270.0H36.0V0.0ZM329.0 -36.0V-327.0H355.0V-36.0ZM-326.0 -47.0V-266.0H351.0V-242.0H-302.0V-47.0Z"/></g>
<g fill="red" transform="translate(400 900) scale(0.1 -0.1)"><path d="M0.0 0.0V-291.0H140.0V0.0ZM318.0 -37.0V-345.0H459.0V-37.0ZM-311.0 -42.0V-314.0H381.0V-193.0H-174.0V-42.0Z"/></g>
<g fill="black" opacity=".8" transform="translate(400 900) scale(0.1 -0.1)"><path d="M0.0 0.0V-291.0H138.0V0.0ZM331.0 -38.0V-347.0H460.0V-38.0ZM-313.0 -47.0V-304.0H383.0V-201.0H-189.0V-47.0Z"/></g>
<g fill="red" transform="translate(500 900) scale(0.1 -0.1)"><path d="M0.0 0.0V-29.0H363.0V0.0ZM230.0 -388.0V-657.0H260.0V-388.0ZM-437.0 -390.0V-609.0H249.0V-580.0H-408.0V-390.0Z"/></g>
<g fill="black" opacity=".8" transform="translate(500 900) scale(0.1 -0.1)"><path d="M0.0 0.0V-27.0H360.0V0.0ZM231.0 -387.0V-657.0H262.0V-387.0ZM-438.0 -390.0V-607.0H251.0V-578.0H-409.0V-390.0Z"/></g>
<g fill="red" transform="translate(600 900) scale(0.1 -0.1)"><path d="M0.0 0.0V-121.0H352.0V0.0ZM135.0 -415.0V-717.0H276.0V-415.0ZM-494.0 -420.0V-681.0H194.0V-555.0H-357.0V-420.0Z"/></g>
<g fill="black" opacity=".8" transform="translate(600 900) scale(0.1 -0.1)"><path d="M0.0 0.0V-122.0H352.0V0.0ZM134.0 -416.0V-720.0H277.0V-416.0ZM-491.0 -422.0V-683.0H191.0V-557.0H-356.0V-422.0Z"/></g>
<g fill="red" transform="translate(700 900) scale(0.1 -0.1)"><path d="M0.0 0.0V-803.0H30.0V0.0ZM222.0 -220.0V-886.0H251.0V-220.0ZM-215.0 -221.0V-822.0H232.0V-792.0H-185.0V-221.0Z"/></g>
<g fill="black" opacity=".8" transform="translate(700 900) scale(0.1 -0.1)"><path d="M0.0 0.0V-806.0H32.0V0.0ZM225.0 -217.0V-887.0H248.0V-217.0ZM-212.0 -223.0V-817.0H226.0V-788.0H-183.0V-223.0Z"/></g>
<g fill="red" transform="translate(800 900) scale(0.1 -0.1)"><path d="M0.0 0.0V-810.0H137.0V0.0ZM191.0 -210.0V-930.0H329.0V-210.0ZM-187.0 -218.0V-875.0H239.0V-741.0H-52.0V-218.0Z"/></g>
<g fill="black" opacity=".8" transform="translate(800 900) scale(0.1 -0.1)"><path d="M0.0 0.0V-811.0H134.0V0.0ZM197.0 -213.0V-932.0H326.0V-213.0ZM-187.0 -222.0V-874.0H243.0V-744.0H-60.0V-222.0Z"/></g>
<g fill="red" transform="translate(900 900) scale(0.1 -0.1)"><path d="M0.0 0.0V-238.0H29.0V0.0ZM151.0 -331.0V-648.0H180.0V-331.0ZM-364.0 -334.0V-588.0H161.0V-558.0H-334.0V-334.0Z"/></g>
<g fill="black" opacity=".8" transform="translate(900 900) scale(0.1 -0.1)"><path d="M0.0 0.0V-240.0H27.0V0.0ZM156.0 -322.0V-647.0H176.0V-322.0ZM-358.0 -338.0V-576.0H155.0V-547.0H-328.0V-338.0Z"/></g>
<g fill="red" transform="translate(1000 900) scale(0.1 -0.1)"><path d="M0.0 0.0V-203.0H138.0V0.0ZM148.0 -305.0V-638.0H277.0V-305.0ZM-334.0 -307.0V-597.0H198.0V-466.0H-206.0V-307.0Z"/></g>
<g fill="black" opacity=".8" transform="translate(1000 900) scale(0.1 -0.1)"><path d="M0.0 0.0V-208.0H134.0V0.0ZM153.0 -313.0V-647.0H278.0V-313.0ZM-341.0 -319.0V-598.0H198.0V-471.0H-214.0V-319.0Z"/></g>
<g fill="red" transform="translate(1100 900) scale(0.1 -0.1)"><path d="M0.0 0.0V-803.0H30.0V0.0ZM220.0 -220.0V-886.0H250.0V-220.0ZM-220.0 -221.0V-822.0H237.0V-792.0H-190.0V-221.0Z"/></g>
<g fill="black" opacity=".8" transform="translate(1100 900) scale(0.1 -0.1)"><path d="M0.0 0.0V-808.0H31.0V0.0ZM221.0 -217.0V-887.0H245.0V-217.0ZM-211.0 -225.0V-816.0H233.0V-787.0H-183.0V-225.0Z"/></g>
<g fill="red" transform="translate(1200 900) scale(0.1 -0.1)"><path d="M0.0 0.0V-810.0H137.0V0.0ZM184.0 -210.0V-930.0H322.0V-210.0ZM-179.0 -218.0V-875.0H247.0V-741.0H-45.0V-218.0Z"/></g>
<g fill="black" opacity=".8" transform="translate(1200 900) scale(0.1 -0.1)"><path d="M0.0 0.0V-812.0H133.0V0.0ZM193.0 -213.0V-933.0H322.0V-213.0ZM-186.0 -225.0V-873.0H249.0V-743.0H-58.0V-225.0Z"/></g>
<g fill="red" transform="translate(1300 900) scale(0.1 -0.1)"><path d="M0.0 0.0V-711.0H30.0V0.0ZM113.0 -157.0V-757.0H142.0V-157.0ZM-115.0 -159.0V-726.0H127.0V-696.0H-85.0V-159.0Z"/></g>
<g fill="black" opacity=".8" transform="translate(1300 900) scale(0.1 -0.1)"><path d="M0.0 0.0V-712.0H30.0V0.0ZM111.0 -158.0V-761.0H141.0V-158.0ZM-116.0 -157.0V-725.0H128.0V-696.0H-88.0V-157.0Z"/></g>
<g fill="red" transform="translate(1400 900) scale(0.1 -0.1)"><path d="M0.0 0.0V-743.0H109.0V0.0ZM130.0 -150.0V-852.0H217.0V-150.0ZM-112.0 -148.0V-802.0H176.0V-678.0H-22.0V-148.0Z"/></g>
<g fill="black" opacity=".8" transform="translate(1400 900) scale(0.1 -0.1)"><path d="M0.0 0.0V-740.0H114.0V0.0ZM126.0 -148.0V-847.0H222.0V-148.0ZM-111.0 -147.0V-802.0H175.0V-682.0H-17.0V-147.0Z"/></g>
<g fill="red" transform="translate(1500 900) scale(0.1 -0.1)"><path d="M0.0 0.0V-711.0H30.0V0.0ZM113.0 -157.0V-757.0H142.0V-157.0ZM-115.0 -159.0V-726.0H127.0V-696.0H-85.0V-159.0Z"/></g>
<g fill="black" opacity=".8" transform="translate(1500 900) scale(0.1 -0.1)"><path d="M0.0 0.0V-716.0H32.0V0.0ZM110.0 -158.0V-764.0H137.0V-158.0ZM-116.0 -158.0V-724.0H122.0V-697.0H-88.0V-158.0Z"/></g>
<g fill="red" transform="translate(1600 900) scale(0.1 -0.1)"><path d="M0.0 0.0V-743.0H101.0V0.0ZM123.0 -150.0V-852.0H202.0V-150.0ZM-112.0 -148.0V-802.0H158.0V-678.0H-22.0V-148.0Z"/></g>
<g fill="black" opacity=".8" transform="translate(1600 900) scale(0.1 -0.1)"><path d="M0.0 0.0V-740.0H112.0V0.0ZM118.0 -149.0V-844.0H212.0V-149.0ZM-109.0 -149.0V-798.0H161.0V-682.0H-18.0V-149.0Z"/></g>
<g fill="red" transform="translate(100 1000) scale(0.1 -0.1)"><path d="M0.0 0.0V-711.0H30.0V0.0ZM125.0 -157.0V-801.0H154.0V-157.0ZM-127.0 -159.0V-725.0H137.0V-696.0H-98.0V-159.0Z"/></g>
<g fill="black" opacity=".8" transform="translate(100 1000) scale(0.1 -0.1)"><path d="M0.0 0.0V-719.0H30.0V0.0ZM128.0 -159.0V-790.0H149.0V-159.0ZM-125.0 -160.0V-726.0H137.0V-699.0H-98.0V-160.0Z"/></g>
<g fill="red" transform="translate(200 1000) scale(0.1 -0.1)"><path d="M0.0 0.0V-743.0H109.0V0.0ZM132.0 -150.0V-852.0H224.0V-150.0ZM-112.0 -148.0V-802.0H176.0V-678.0H-22.0V-148.0Z"/></g>
<g fill="black" opacity=".8" transform="translate(200 1000) scale(0.1 -0.1)"><path d="M0.0 0.0V-737.0H114.0V0.0ZM133.0 -150.0V-862.0H228.0V-150.0ZM-115.0 -150.0V-794.0H173.0V-678.0H-20.0V-150.0Z"/></g>
<g fill="red" transform="translate(300 1000) scale(0.1 -0.1)"><path d="M0.0 0.0V-803.0H31.0V0.0ZM160.0 -215.0V-885.0H190.0V-215.0ZM-167.0 -216.0V-817.0H177.0V-787.0H-138.0V-216.0Z"/></g>
<g fill="black" opacity=".8" transform="translate(300 1000) scale(0.1 -0.1)"><path d="M0.0 0.0V-795.0H20.0V0.0ZM164.0 -217.0V-873.0H198.0V-217.0ZM-173.0 -213.0V-815.0H192.0V-784.0H-142.0V-213.0Z"/></g>
<g fill="red" transform="translate(400 1000) scale(0.1 -0.1)"><path d="M0.0 0.0V-810.0H130.0V0.0ZM163.0 -210.0V-930.0H292.0V-210.0ZM-164.0 -208.0V-879.0H249.0V-745.0H-36.0V-208.0Z"/></g>
<g fill="black" opacity=".8" transform="translate(400 1000) scale(0.1 -0.1)"><path d="M0.0 0.0V-809.0H124.0V0.0ZM164.0 -208.0V-944.0H285.0V-208.0ZM-154.0 -206.0V-886.0H235.0V-751.0H-35.0V-206.0Z"/></g>
<g fill="red" transform="translate(500 1000) scale(0.1 -0.1)"><path d="M0.0 0.0V-238.0H29.0V0.0ZM126.0 -331.0V-648.0H156.0V-331.0ZM-223.0 -334.0V-588.0H142.0V-558.0H-193.0V-334.0Z"/></g>
<g fill="black" opacity=".8" transform="translate(500 1000) scale(0.1 -0.1)"><path d="M0.0 0.0V-242.0H35.0V0.0ZM123.0 -325.0V-642.0H140.0V-325.0ZM-226.0 -341.0V-568.0H134.0V-543.0H-200.0V-341.0Z"/></g>
<g fill="red" transform="translate(600 1000) scale(0.1 -0.1)"><path d="M0.0 0.0V-203.0H124.0V0.0ZM96.0 -308.0V-637.0H225.0V-308.0ZM-225.0 -307.0V-597.0H182.0V-473.0H-97.0V-307.0Z"/></g>
<g fill="black" opacity=".8" transform="translate(600 1000) scale(0.1 -0.1)"><path d="M0.0 0.0V-215.0H120.0V0.0ZM125.0 -318.0V-651.0H225.0V-318.0ZM-213.0 -325.0V-595.0H179.0V-482.0H-107.0V-325.0Z"/></g>
</svg>
