<?xml version="1.0" encoding="UTF-8"?>
<svg width="1700" height="300" xmlns="http://www.w3.org/2000/svg">
<rect width="100%" height="100%" fill="white"/>
<g fill="green" transform="translate(100 100) scale(0.1 -0.1)"><path d="M-0.0 -0.0V-308.0H29.0V0.0ZM-239.0 8.0V-63.0C-239.0 -138.0 -264.0 -232.0 -440.0 -302.0C-433.0 -308.0 -425.0 -316.0 -419.0 -323.0C-241.0 -249.0 -211.0 -149.0 -211.0 -63.0V8.0ZM-404.0 283.0V253.0H462.0V283.0ZM-65.0 388.0C-25.0 348.0 24.0 292.0 49.0 258.0L72.0 277.0C48.0 310.0 -2.0 364.0 -43.0 405.0ZM246.0 5.0V-250.0C246.0 -302.0 257.0 -317.0 299.0 -317.0C310.0 -317.0 396.0 -317.0 416.0 -317.0C436.0 -317.0 456.0 -316.0 465.0 -315.0C464.0 -308.0 462.0 -293.0 461.0 -285.0C449.0 -287.0 427.0 -288.0 414.0 -288.0C396.0 -288.0 316.0 -288.0 297.0 -288.0C278.0 -288.0 274.0 -280.0 274.0 -251.0V5.0ZM-264.0 268.0V143.0C-264.0 87.0 -241.0 65.0 -169.0 65.0C-145.0 65.0 197.0 65.0 253.0 65.0C308.0 65.0 361.0 66.0 379.0 69.0C378.0 76.0 375.0 91.0 374.0 101.0C348.0 96.0 285.0 96.0 251.0 96.0C198.0 96.0 -118.0 96.0 -172.0 96.0C-223.0 96.0 -236.0 106.0 -236.0 142.0V268.0Z"/></g>
<g fill="green" transform="translate(200 100) scale(0.1 -0.1)"><path d="M0.0 0.0V-318.0H140.0V0.0ZM-233.0 5.0V-81.0C-233.0 -133.0 -254.0 -214.0 -405.0 -258.0C-374.0 -280.0 -324.0 -327.0 -303.0 -355.0C-119.0 -293.0 -90.0 -169.0 -90.0 -87.0V5.0ZM-355.0 325.0V209.0H511.0V325.0ZM-6.0 379.0C9.0 345.0 25.0 299.0 29.0 269.0L173.0 307.0C166.0 337.0 148.0 380.0 130.0 412.0ZM228.0 7.0V-183.0C228.0 -293.0 254.0 -339.0 371.0 -339.0C391.0 -339.0 439.0 -339.0 458.0 -339.0C485.0 -339.0 518.0 -338.0 537.0 -330.0C533.0 -299.0 529.0 -253.0 527.0 -219.0C510.0 -224.0 476.0 -226.0 454.0 -226.0C438.0 -226.0 398.0 -226.0 384.0 -226.0C365.0 -226.0 363.0 -215.0 363.0 -186.0V7.0ZM-255.0 253.0V190.0C-255.0 76.0 -206.0 35.0 -38.0 35.0C9.0 35.0 215.0 35.0 266.0 35.0C336.0 35.0 430.0 37.0 466.0 46.0C461.0 77.0 456.0 122.0 451.0 166.0C412.0 158.0 309.0 152.0 244.0 152.0C189.0 152.0 7.0 152.0 -39.0 152.0C-95.0 152.0 -104.0 162.0 -104.0 188.0V253.0Z"/></g>
<g fill="green" transform="translate(300 100) scale(0.1 -0.1)"><path d="M-0.0 -0.0V-244.0H23.0V0.0ZM-200.0 7.0V-49.0C-200.0 -108.0 -222.0 -183.0 -371.0 -237.0C-366.0 -242.0 -360.0 -249.0 -355.0 -254.0C-204.0 -196.0 -178.0 -117.0 -178.0 -49.0V7.0ZM-341.0 227.0V203.0H388.0V227.0ZM-61.0 314.0C-26.0 281.0 17.0 234.0 39.0 206.0L57.0 223.0C36.0 250.0 -8.0 295.0 -44.0 329.0ZM206.0 4.0V-197.0C206.0 -238.0 215.0 -250.0 249.0 -250.0C258.0 -250.0 331.0 -250.0 348.0 -250.0C364.0 -250.0 381.0 -249.0 388.0 -249.0C387.0 -243.0 386.0 -231.0 385.0 -225.0C375.0 -226.0 357.0 -227.0 346.0 -227.0C331.0 -227.0 263.0 -227.0 247.0 -227.0C231.0 -227.0 228.0 -221.0 228.0 -197.0V4.0ZM-222.0 214.0V115.0C-222.0 69.0 -203.0 52.0 -144.0 52.0C-124.0 52.0 165.0 52.0 211.0 52.0C257.0 52.0 302.0 52.0 316.0 55.0C316.0 60.0 313.0 72.0 312.0 81.0C291.0 76.0 238.0 76.0 210.0 76.0C165.0 76.0 -101.0 76.0 -146.0 76.0C-189.0 76.0 -200.0 84.0 -200.0 114.0V214.0Z"/></g>
<g fill="green" transform="translate(400 100) scale(0.1 -0.1)"><path d="M0.0 0.0V-249.0H114.0V0.0ZM-196.0 4.0V-65.0C-196.0 -105.0 -214.0 -169.0 -343.0 -201.0C-318.0 -219.0 -278.0 -257.0 -262.0 -280.0C-104.0 -233.0 -79.0 -134.0 -79.0 -71.0V4.0ZM-302.0 262.0V170.0H425.0V262.0ZM-7.0 307.0C5.0 281.0 18.0 245.0 21.0 222.0L137.0 252.0C132.0 276.0 118.0 309.0 103.0 334.0ZM191.0 6.0V-141.0C191.0 -231.0 212.0 -267.0 307.0 -267.0C324.0 -267.0 366.0 -267.0 381.0 -267.0C404.0 -267.0 431.0 -266.0 446.0 -260.0C443.0 -235.0 440.0 -197.0 438.0 -170.0C424.0 -174.0 396.0 -176.0 378.0 -176.0C364.0 -176.0 329.0 -176.0 317.0 -176.0C301.0 -176.0 299.0 -167.0 299.0 -144.0V6.0ZM-216.0 205.0V155.0C-216.0 62.0 -174.0 29.0 -36.0 29.0C4.0 29.0 177.0 29.0 219.0 29.0C278.0 29.0 357.0 30.0 387.0 38.0C383.0 63.0 379.0 99.0 375.0 136.0C342.0 129.0 256.0 124.0 201.0 124.0C154.0 124.0 1.0 124.0 -38.0 124.0C-85.0 124.0 -93.0 132.0 -93.0 153.0V205.0Z"/></g>
<g fill="green" transform="translate(500 100) scale(0.1 -0.1)"><path d="M0.0 0.0V-386.0H34.0V0.0ZM-200.0 5.0V-96.0C-200.0 -191.0 -213.0 -306.0 -357.0 -390.0C-350.0 -396.0 -339.0 -405.0 -333.0 -415.0C-183.0 -324.0 -166.0 -205.0 -166.0 -96.0V5.0ZM-302.0 325.0V290.0H385.0V325.0ZM-43.0 424.0C-9.0 385.0 33.0 332.0 54.0 296.0L80.0 319.0C60.0 351.0 18.0 401.0 -19.0 443.0ZM209.0 6.0V-330.0C209.0 -391.0 220.0 -406.0 262.0 -406.0C273.0 -406.0 325.0 -406.0 340.0 -406.0C355.0 -406.0 373.0 -405.0 383.0 -404.0C382.0 -396.0 380.0 -378.0 378.0 -369.0C366.0 -371.0 348.0 -371.0 338.0 -371.0C325.0 -371.0 274.0 -371.0 261.0 -371.0C245.0 -371.0 243.0 -363.0 243.0 -331.0V6.0ZM-219.0 311.0V150.0C-219.0 87.0 -198.0 64.0 -128.0 64.0C-104.0 64.0 177.0 64.0 225.0 64.0C274.0 64.0 320.0 65.0 338.0 69.0C338.0 77.0 334.0 94.0 333.0 105.0C308.0 100.0 254.0 100.0 223.0 100.0C178.0 100.0 -84.0 100.0 -129.0 100.0C-174.0 100.0 -185.0 111.0 -185.0 150.0V311.0Z"/></g>
<g fill="green" transform="translate(600 100) scale(0.1 -0.1)"><path d="M0.0 0.0V-391.0H148.0V0.0ZM-187.0 4.0V-105.0C-187.0 -186.0 -200.0 -277.0 -295.0 -345.0C-257.0 -368.0 -198.0 -415.0 -170.0 -448.0C-56.0 -356.0 -42.0 -225.0 -42.0 -111.0V4.0ZM-230.0 357.0V228.0H434.0V357.0ZM18.0 401.0C33.0 359.0 51.0 302.0 56.0 267.0L212.0 315.0C203.0 349.0 183.0 402.0 165.0 441.0ZM193.0 4.0V-262.0C193.0 -375.0 215.0 -430.0 331.0 -430.0C349.0 -430.0 368.0 -430.0 384.0 -430.0C407.0 -430.0 433.0 -429.0 450.0 -420.0C446.0 -386.0 443.0 -343.0 441.0 -306.0C426.0 -311.0 398.0 -312.0 381.0 -312.0C373.0 -312.0 365.0 -312.0 356.0 -312.0C342.0 -312.0 342.0 -298.0 342.0 -265.0V4.0ZM-180.0 285.0V210.0C-180.0 92.0 -139.0 43.0 18.0 43.0C56.0 43.0 216.0 43.0 259.0 43.0C316.0 43.0 389.0 46.0 420.0 54.0C414.0 91.0 411.0 138.0 407.0 182.0C375.0 174.0 293.0 169.0 244.0 169.0C204.0 169.0 67.0 169.0 32.0 169.0C-12.0 169.0 -18.0 181.0 -18.0 208.0V285.0Z"/></g>
<g fill="green" transform="translate(700 100) scale(0.1 -0.1)"><path d="M0.0 0.0V-303.0H31.0V0.0ZM-238.0 8.0V-52.0C-238.0 -128.0 -261.0 -227.0 -411.0 -306.0C-402.0 -313.0 -393.0 -321.0 -387.0 -328.0C-237.0 -245.0 -208.0 -138.0 -208.0 -52.0V8.0ZM-408.0 285.0V256.0H448.0V285.0ZM-9.0 387.0C15.0 348.0 41.0 295.0 53.0 264.0L83.0 273.0C69.0 304.0 41.0 356.0 18.0 393.0ZM241.0 7.0V-245.0C241.0 -299.0 253.0 -316.0 296.0 -316.0C308.0 -316.0 402.0 -316.0 423.0 -316.0C445.0 -316.0 466.0 -315.0 476.0 -313.0C475.0 -305.0 472.0 -290.0 471.0 -281.0C459.0 -284.0 436.0 -285.0 422.0 -285.0C402.0 -285.0 315.0 -285.0 295.0 -285.0C275.0 -285.0 270.0 -277.0 270.0 -247.0V7.0ZM-251.0 276.0V160.0C-251.0 105.0 -230.0 83.0 -160.0 83.0C-137.0 83.0 185.0 83.0 238.0 83.0C291.0 83.0 342.0 84.0 359.0 87.0C358.0 94.0 356.0 109.0 354.0 119.0C329.0 114.0 270.0 114.0 237.0 114.0C186.0 114.0 -111.0 114.0 -162.0 114.0C-210.0 114.0 -222.0 123.0 -222.0 159.0V276.0Z"/></g>
<g fill="green" transform="translate(800 100) scale(0.1 -0.1)"><path d="M0.0 0.0V-356.0H138.0V0.0ZM-232.0 5.0V-63.0C-232.0 -118.0 -253.0 -213.0 -407.0 -267.0C-376.0 -289.0 -327.0 -336.0 -306.0 -364.0C-118.0 -292.0 -87.0 -151.0 -87.0 -69.0V5.0ZM-369.0 328.0V205.0H524.0V328.0ZM-10.0 384.0C6.0 344.0 23.0 289.0 28.0 256.0L174.0 291.0C166.0 325.0 145.0 377.0 126.0 415.0ZM222.0 5.0V-184.0C222.0 -299.0 250.0 -347.0 374.0 -347.0C396.0 -347.0 451.0 -347.0 470.0 -347.0C500.0 -347.0 536.0 -346.0 557.0 -338.0C552.0 -305.0 548.0 -256.0 546.0 -220.0C528.0 -225.0 490.0 -229.0 467.0 -229.0C449.0 -229.0 402.0 -229.0 387.0 -229.0C366.0 -229.0 363.0 -216.0 363.0 -187.0V5.0ZM-265.0 244.0V177.0C-265.0 64.0 -217.0 24.0 -52.0 24.0C-5.0 24.0 204.0 24.0 255.0 24.0C324.0 24.0 418.0 26.0 453.0 34.0C448.0 66.0 443.0 110.0 438.0 152.0C400.0 144.0 298.0 139.0 234.0 139.0C178.0 139.0 -7.0 139.0 -52.0 139.0C-109.0 139.0 -117.0 149.0 -117.0 175.0V244.0Z"/></g>
<g fill="red" transform="translate(100 200) scale(0.1 -0.1)"><path d="M0.0 0.0V-331.0H29.0V0.0ZM-180.0 5.0V-81.0C-180.0 -163.0 -193.0 -261.0 -325.0 -333.0C-319.0 -338.0 -309.0 -346.0 -304.0 -354.0C-167.0 -277.0 -151.0 -175.0 -151.0 -81.0V5.0ZM-276.0 281.0V251.0H347.0V281.0ZM-44.0 368.0C-12.0 334.0 27.0 287.0 47.0 256.0L69.0 276.0C50.0 304.0 11.0 349.0 -23.0 385.0ZM188.0 5.0V-282.0C188.0 -334.0 197.0 -347.0 234.0 -347.0C244.0 -347.0 293.0 -347.0 306.0 -347.0C320.0 -347.0 336.0 -346.0 345.0 -345.0C344.0 -338.0 342.0 -323.0 341.0 -315.0C330.0 -317.0 314.0 -317.0 305.0 -317.0C293.0 -317.0 245.0 -317.0 233.0 -317.0C219.0 -317.0 217.0 -310.0 217.0 -282.0V5.0ZM-198.0 268.0V130.0C-198.0 75.0 -179.0 55.0 -117.0 55.0C-97.0 55.0 158.0 55.0 202.0 55.0C245.0 55.0 287.0 56.0 303.0 59.0C302.0 66.0 299.0 81.0 298.0 90.0C276.0 86.0 227.0 86.0 200.0 86.0C159.0 86.0 -78.0 86.0 -119.0 86.0C-159.0 86.0 -169.0 96.0 -169.0 130.0V268.0Z"/></g>
<g fill="black" opacity=".8" transform="translate(100 200) scale(0.1 -0.1)"><path d="M0.0 0.0V-331.0H29.0V0.0ZM-180.0 5.0V-81.0C-180.0 -162.0 -193.0 -261.0 -324.0 -332.0C-318.0 -338.0 -309.0 -346.0 -304.0 -354.0C-168.0 -276.0 -151.0 -175.0 -151.0 -81.0V5.0ZM-276.0 281.0V251.0H348.0V281.0ZM-44.0 369.0C-12.0 334.0 27.0 287.0 46.0 255.0L69.0 276.0C50.0 304.0 11.0 349.0 -24.0 386.0ZM188.0 5.0V-282.0C188.0 -334.0 198.0 -347.0 234.0 -347.0C244.0 -347.0 293.0 -347.0 307.0 -347.0C320.0 -347.0 336.0 -346.0 345.0 -345.0C344.0 -338.0 342.0 -323.0 340.0 -315.0C330.0 -317.0 314.0 -317.0 305.0 -317.0C293.0 -317.0 245.0 -317.0 233.0 -317.0C219.0 -317.0 217.0 -310.0 217.0 -282.0V5.0ZM-198.0 268.0V130.0C-198.0 75.0 -179.0 55.0 -118.0 55.0C-97.0 55.0 159.0 55.0 201.0 55.0C245.0 55.0 287.0 56.0 302.0 60.0C303.0 66.0 299.0 81.0 298.0 91.0C276.0 86.0 227.0 86.0 200.0 86.0C159.0 86.0 -78.0 86.0 -118.0 86.0C-159.0 86.0 -169.0 95.0 -169.0 130.0V268.0Z"/></g>
<g fill="red" transform="translate(200 200) scale(0.1 -0.1)"><path d="M0.0 0.0V-333.0H129.0V0.0ZM-169.0 3.0V-91.0C-169.0 -158.0 -181.0 -236.0 -271.0 -293.0C-238.0 -313.0 -187.0 -355.0 -164.0 -383.0C-56.0 -306.0 -42.0 -193.0 -42.0 -96.0V3.0ZM-215.0 310.0V198.0H389.0V310.0ZM13.0 349.0C26.0 314.0 42.0 266.0 47.0 236.0L182.0 277.0C174.0 306.0 157.0 351.0 142.0 384.0ZM174.0 4.0V-222.0C174.0 -320.0 193.0 -367.0 295.0 -367.0C311.0 -367.0 330.0 -367.0 345.0 -367.0C365.0 -367.0 389.0 -366.0 404.0 -359.0C400.0 -329.0 397.0 -291.0 395.0 -259.0C382.0 -264.0 357.0 -265.0 342.0 -265.0C334.0 -265.0 324.0 -265.0 316.0 -265.0C303.0 -265.0 302.0 -253.0 302.0 -224.0V4.0ZM-165.0 247.0V183.0C-165.0 80.0 -129.0 38.0 10.0 38.0C45.0 38.0 190.0 38.0 229.0 38.0C281.0 38.0 347.0 40.0 375.0 48.0C370.0 79.0 367.0 120.0 363.0 159.0C334.0 152.0 260.0 148.0 215.0 148.0C178.0 148.0 53.0 148.0 21.0 148.0C-19.0 148.0 -25.0 158.0 -25.0 181.0V247.0Z"/></g>
<g fill="black" opacity=".8" transform="translate(200 200) scale(0.1 -0.1)"><path d="M0.0 0.0V-333.0H129.0V0.0ZM-170.0 3.0V-90.0C-170.0 -159.0 -182.0 -237.0 -271.0 -293.0C-238.0 -313.0 -187.0 -354.0 -164.0 -383.0C-56.0 -306.0 -42.0 -193.0 -42.0 -96.0V3.0ZM-215.0 310.0V199.0H389.0V310.0ZM13.0 349.0C26.0 314.0 42.0 265.0 46.0 236.0L182.0 277.0C174.0 306.0 157.0 351.0 141.0 384.0ZM174.0 4.0V-221.0C174.0 -320.0 193.0 -367.0 295.0 -367.0C311.0 -367.0 330.0 -367.0 344.0 -367.0C365.0 -367.0 388.0 -366.0 403.0 -359.0C400.0 -329.0 397.0 -291.0 395.0 -259.0C382.0 -264.0 357.0 -265.0 342.0 -265.0C334.0 -265.0 324.0 -265.0 316.0 -265.0C303.0 -265.0 302.0 -253.0 302.0 -224.0V4.0ZM-166.0 248.0V183.0C-166.0 80.0 -128.0 38.0 10.0 38.0C45.0 38.0 190.0 38.0 229.0 38.0C280.0 38.0 347.0 40.0 374.0 47.0C369.0 79.0 367.0 120.0 363.0 159.0C334.0 152.0 260.0 148.0 215.0 148.0C178.0 148.0 53.0 148.0 21.0 148.0C-19.0 148.0 -24.0 158.0 -24.0 181.0V248.0Z"/></g>
<g fill="red" transform="translate(300 200) scale(0.1 -0.1)"><path d="M0.0 0.0V-305.0H30.0V0.0ZM-239.0 8.0V-56.0C-239.0 -132.0 -262.0 -229.0 -422.0 -305.0C-414.0 -311.0 -405.0 -319.0 -399.0 -326.0C-238.0 -247.0 -209.0 -142.0 -209.0 -56.0V8.0ZM-407.0 284.0V255.0H453.0V284.0ZM-30.0 387.0C0.0 348.0 35.0 294.0 52.0 262.0L79.0 275.0C61.0 306.0 25.0 359.0 -4.0 397.0ZM243.0 6.0V-247.0C243.0 -300.0 254.0 -316.0 297.0 -316.0C309.0 -316.0 400.0 -316.0 420.0 -316.0C441.0 -316.0 462.0 -315.0 472.0 -313.0C471.0 -306.0 469.0 -291.0 468.0 -283.0C455.0 -285.0 433.0 -286.0 419.0 -286.0C400.0 -286.0 315.0 -286.0 296.0 -286.0C276.0 -286.0 272.0 -278.0 272.0 -248.0V6.0ZM-256.0 273.0V154.0C-256.0 98.0 -234.0 76.0 -163.0 76.0C-140.0 76.0 189.0 76.0 244.0 76.0C297.0 76.0 349.0 77.0 367.0 80.0C365.0 87.0 363.0 102.0 361.0 112.0C336.0 107.0 275.0 107.0 242.0 107.0C190.0 107.0 -114.0 107.0 -166.0 107.0C-215.0 107.0 -227.0 117.0 -227.0 153.0V273.0Z"/></g>
<g fill="black" opacity=".8" transform="translate(300 200) scale(0.1 -0.1)"><path d="M0.0 0.0V-305.0H30.0V0.0ZM-238.0 8.0V-56.0C-238.0 -132.0 -262.0 -229.0 -422.0 -305.0C-413.0 -311.0 -405.0 -319.0 -399.0 -326.0C-238.0 -246.0 -209.0 -142.0 -209.0 -56.0V8.0ZM-407.0 284.0V255.0H453.0V284.0ZM-30.0 387.0C0.0 348.0 35.0 294.0 52.0 262.0L79.0 274.0C61.0 306.0 25.0 359.0 -4.0 397.0ZM243.0 6.0V-247.0C243.0 -300.0 254.0 -316.0 297.0 -316.0C309.0 -316.0 400.0 -316.0 420.0 -316.0C442.0 -316.0 462.0 -315.0 472.0 -314.0C471.0 -306.0 468.0 -291.0 467.0 -282.0C455.0 -285.0 433.0 -286.0 419.0 -286.0C400.0 -286.0 315.0 -286.0 296.0 -286.0C276.0 -286.0 271.0 -278.0 271.0 -248.0V6.0ZM-256.0 273.0V154.0C-256.0 98.0 -234.0 76.0 -163.0 76.0C-140.0 76.0 189.0 76.0 244.0 76.0C297.0 76.0 349.0 77.0 366.0 80.0C365.0 87.0 363.0 102.0 361.0 112.0C336.0 107.0 276.0 107.0 242.0 107.0C190.0 107.0 -114.0 107.0 -166.0 107.0C-215.0 107.0 -227.0 117.0 -227.0 153.0V273.0Z"/></g>
<g fill="red" transform="translate(400 200) scale(0.1 -0.1)"><path d="M0.0 0.0V-342.0H139.0V0.0ZM-232.0 5.0V-70.0C-232.0 -123.0 -253.0 -213.0 -406.0 -264.0C-375.0 -286.0 -326.0 -333.0 -305.0 -361.0C-118.0 -292.0 -88.0 -158.0 -88.0 -75.0V5.0ZM-364.0 327.0V206.0H519.0V327.0ZM-9.0 382.0C7.0 344.0 24.0 293.0 29.0 261.0L174.0 297.0C166.0 330.0 146.0 378.0 128.0 414.0ZM224.0 6.0V-184.0C224.0 -297.0 251.0 -344.0 373.0 -344.0C394.0 -344.0 446.0 -344.0 466.0 -344.0C495.0 -344.0 530.0 -343.0 550.0 -335.0C545.0 -303.0 541.0 -255.0 539.0 -220.0C521.0 -225.0 485.0 -228.0 462.0 -228.0C445.0 -228.0 401.0 -228.0 386.0 -228.0C366.0 -228.0 363.0 -216.0 363.0 -187.0V6.0ZM-261.0 247.0V182.0C-261.0 69.0 -213.0 28.0 -47.0 28.0C0.0 28.0 208.0 28.0 259.0 28.0C329.0 28.0 422.0 30.0 458.0 39.0C453.0 70.0 448.0 114.0 443.0 157.0C404.0 149.0 302.0 144.0 238.0 144.0C182.0 144.0 -2.0 144.0 -47.0 144.0C-104.0 144.0 -113.0 154.0 -113.0 180.0V247.0Z"/></g>
<g fill="black" opacity=".8" transform="translate(400 200) scale(0.1 -0.1)"><path d="M0.0 0.0V-342.0H139.0V0.0ZM-232.0 5.0V-70.0C-232.0 -124.0 -253.0 -213.0 -406.0 -264.0C-375.0 -286.0 -326.0 -333.0 -305.0 -361.0C-118.0 -292.0 -88.0 -158.0 -88.0 -76.0V5.0ZM-364.0 327.0V206.0H519.0V327.0ZM-9.0 382.0C7.0 344.0 24.0 293.0 28.0 261.0L174.0 297.0C166.0 329.0 146.0 378.0 127.0 414.0ZM224.0 6.0V-184.0C224.0 -297.0 251.0 -344.0 373.0 -344.0C394.0 -344.0 447.0 -344.0 466.0 -344.0C494.0 -344.0 529.0 -343.0 550.0 -335.0C545.0 -303.0 541.0 -255.0 539.0 -220.0C521.0 -225.0 485.0 -228.0 462.0 -228.0C445.0 -228.0 401.0 -228.0 386.0 -228.0C366.0 -228.0 363.0 -216.0 363.0 -187.0V6.0ZM-261.0 247.0V182.0C-261.0 68.0 -213.0 28.0 -47.0 28.0C0.0 28.0 208.0 28.0 259.0 28.0C328.0 28.0 422.0 30.0 458.0 38.0C453.0 70.0 448.0 114.0 443.0 157.0C404.0 149.0 302.0 144.0 238.0 144.0C182.0 144.0 -2.0 144.0 -47.0 144.0C-104.0 144.0 -112.0 154.0 -112.0 180.0V247.0Z"/></g>
<g fill="red" transform="translate(500 200) scale(0.1 -0.1)"><path d="M0.0 0.0V-318.0H30.0V0.0ZM-160.0 4.0V-71.0C-160.0 -152.0 -168.0 -252.0 -260.0 -330.0C-253.0 -335.0 -242.0 -343.0 -237.0 -351.0C-141.0 -268.0 -130.0 -162.0 -130.0 -71.0V4.0ZM-243.0 271.0V243.0H296.0V271.0ZM17.0 348.0C30.0 318.0 43.0 277.0 49.0 251.0L76.0 261.0C69.0 285.0 55.0 324.0 42.0 354.0ZM164.0 7.0V-272.0C164.0 -324.0 173.0 -338.0 209.0 -338.0C219.0 -338.0 266.0 -338.0 278.0 -338.0C292.0 -338.0 308.0 -337.0 317.0 -335.0C316.0 -328.0 314.0 -313.0 313.0 -305.0C302.0 -307.0 287.0 -307.0 278.0 -307.0C266.0 -307.0 220.0 -307.0 209.0 -307.0C195.0 -307.0 193.0 -301.0 193.0 -273.0V7.0ZM-164.0 265.0V139.0C-164.0 87.0 -149.0 68.0 -93.0 68.0C-75.0 68.0 132.0 68.0 169.0 68.0C206.0 68.0 242.0 69.0 256.0 72.0C255.0 79.0 253.0 93.0 251.0 102.0C232.0 98.0 191.0 98.0 168.0 98.0C133.0 98.0 -60.0 98.0 -94.0 98.0C-127.0 98.0 -135.0 107.0 -135.0 139.0V265.0Z"/></g>
<g fill="black" opacity=".8" transform="translate(500 200) scale(0.1 -0.1)"><path d="M0.0 0.0V-317.0H30.0V0.0ZM-160.0 4.0V-71.0C-160.0 -151.0 -168.0 -252.0 -259.0 -329.0C-252.0 -335.0 -242.0 -343.0 -237.0 -351.0C-142.0 -267.0 -130.0 -162.0 -130.0 -71.0V4.0ZM-243.0 271.0V243.0H297.0V271.0ZM17.0 349.0C30.0 318.0 43.0 277.0 48.0 250.0L76.0 261.0C69.0 285.0 55.0 324.0 41.0 355.0ZM164.0 7.0V-272.0C164.0 -324.0 174.0 -338.0 209.0 -338.0C219.0 -338.0 266.0 -338.0 279.0 -338.0C292.0 -338.0 308.0 -337.0 317.0 -336.0C316.0 -328.0 314.0 -313.0 312.0 -305.0C302.0 -307.0 287.0 -307.0 278.0 -307.0C266.0 -307.0 220.0 -307.0 209.0 -307.0C195.0 -307.0 193.0 -301.0 193.0 -273.0V7.0ZM-164.0 265.0V139.0C-164.0 87.0 -149.0 69.0 -94.0 69.0C-75.0 69.0 133.0 69.0 168.0 69.0C206.0 69.0 242.0 69.0 255.0 73.0C256.0 79.0 253.0 93.0 251.0 103.0C232.0 98.0 192.0 98.0 168.0 98.0C133.0 98.0 -60.0 98.0 -93.0 98.0C-127.0 98.0 -135.0 106.0 -135.0 139.0V265.0Z"/></g>
<g fill="red" transform="translate(600 200) scale(0.1 -0.1)"><path d="M0.0 0.0V-360.0H120.0V0.0ZM-148.0 3.0V-72.0C-148.0 -142.0 -158.0 -230.0 -235.0 -297.0C-203.0 -316.0 -155.0 -355.0 -132.0 -382.0C-40.0 -295.0 -28.0 -173.0 -28.0 -76.0V3.0ZM-191.0 297.0V184.0H361.0V297.0ZM12.0 334.0C26.0 294.0 42.0 239.0 48.0 207.0L178.0 244.0C169.0 276.0 150.0 328.0 135.0 366.0ZM150.0 1.0V-222.0C150.0 -319.0 169.0 -366.0 271.0 -366.0C287.0 -366.0 306.0 -366.0 320.0 -366.0C341.0 -366.0 365.0 -365.0 380.0 -358.0C376.0 -328.0 373.0 -290.0 371.0 -258.0C358.0 -263.0 332.0 -265.0 318.0 -265.0C310.0 -265.0 300.0 -265.0 292.0 -265.0C279.0 -265.0 278.0 -252.0 278.0 -224.0V1.0ZM-150.0 227.0V162.0C-150.0 66.0 -119.0 26.0 6.0 26.0C37.0 26.0 167.0 26.0 202.0 26.0C247.0 26.0 304.0 28.0 329.0 35.0C324.0 65.0 321.0 103.0 318.0 138.0C293.0 131.0 229.0 128.0 191.0 128.0C158.0 128.0 47.0 128.0 20.0 128.0C-16.0 128.0 -21.0 138.0 -21.0 160.0V227.0Z"/></g>
<g fill="black" opacity=".8" transform="translate(600 200) scale(0.1 -0.1)"><path d="M0.0 0.0V-360.0H120.0V0.0ZM-149.0 3.0V-71.0C-149.0 -143.0 -159.0 -231.0 -235.0 -297.0C-203.0 -316.0 -155.0 -354.0 -132.0 -382.0C-40.0 -295.0 -28.0 -172.0 -28.0 -77.0V3.0ZM-191.0 297.0V185.0H361.0V297.0ZM13.0 334.0C26.0 294.0 42.0 238.0 47.0 207.0L177.0 244.0C169.0 276.0 150.0 328.0 134.0 366.0ZM150.0 1.0V-221.0C150.0 -319.0 169.0 -366.0 270.0 -366.0C287.0 -366.0 307.0 -366.0 319.0 -366.0C341.0 -366.0 364.0 -365.0 379.0 -358.0C375.0 -328.0 373.0 -290.0 371.0 -258.0C358.0 -262.0 332.0 -265.0 318.0 -265.0C310.0 -265.0 300.0 -265.0 292.0 -265.0C279.0 -265.0 278.0 -251.0 278.0 -224.0V1.0ZM-151.0 228.0V162.0C-151.0 66.0 -118.0 26.0 6.0 26.0C37.0 26.0 167.0 26.0 201.0 26.0C246.0 26.0 304.0 28.0 328.0 34.0C323.0 66.0 321.0 103.0 318.0 138.0C293.0 131.0 229.0 128.0 191.0 128.0C158.0 128.0 47.0 128.0 20.0 128.0C-16.0 128.0 -20.0 138.0 -20.0 160.0V228.0Z"/></g>
</svg>
