<?xml version="1.0" encoding="UTF-8"?>
<svg width="1700" height="1100" xmlns="http://www.w3.org/2000/svg">
<rect width="100%" height="100%" fill="white"/>
<g fill="green" transform="translate(100 100) scale(0.1 -0.1)"><path d="M0.0 -0.0V-242.0H66.0V0.0ZM-929.0 41.0V-487.0H-340.0V-112.0H120.0V41.0ZM718.0 -317.0V-775.0C718.0 -804.0 710.0 -814.0 672.0 -816.0C630.0 -818.0 505.0 -819.0 326.0 -816.0C338.0 -837.0 348.0 -858.0 353.0 -878.0C552.0 -878.0 665.0 -879.0 718.0 -866.0C770.0 -852.0 783.0 -827.0 783.0 -775.0V-317.0Z"/></g>
<g fill="green" transform="translate(200 100) scale(0.1 -0.1)"><path d="M0.0 0.0V-181.0H301.0V0.0ZM-924.0 140.0V-495.0H-95.0V-105.0H223.0V140.0ZM625.0 -209.0V-588.0C625.0 -613.0 612.0 -621.0 578.0 -621.0C546.0 -622.0 416.0 -622.0 328.0 -616.0C367.0 -692.0 413.0 -809.0 429.0 -894.0C595.0 -894.0 729.0 -894.0 834.0 -853.0C941.0 -809.0 971.0 -737.0 971.0 -594.0V-209.0Z"/></g>
<g fill="green" transform="translate(300 100) scale(0.1 -0.1)"><path d="M0.0 -0.0V284.0H45.0V0.0ZM-794.0 161.0V-59.0H-235.0V34.0H-23.0V161.0ZM581.0 -196.0V-374.0C581.0 -396.0 575.0 -404.0 545.0 -405.0C511.0 -407.0 411.0 -408.0 265.0 -406.0C273.0 -420.0 279.0 -433.0 283.0 -447.0C445.0 -447.0 535.0 -448.0 576.0 -439.0C616.0 -429.0 625.0 -412.0 625.0 -374.0V-196.0Z"/></g>
<g fill="green" transform="translate(400 100) scale(0.1 -0.1)"><path d="M0.0 0.0V360.0H211.0V0.0ZM-799.0 243.0V-47.0H-62.0V90.0H57.0V243.0ZM494.0 -106.0V-229.0C494.0 -248.0 483.0 -254.0 454.0 -254.0C428.0 -255.0 315.0 -255.0 241.0 -249.0C268.0 -302.0 304.0 -381.0 318.0 -440.0C452.0 -440.0 561.0 -442.0 645.0 -416.0C731.0 -386.0 756.0 -340.0 756.0 -233.0V-106.0Z"/></g>
<g fill="green" transform="translate(500 100) scale(0.1 -0.1)"><path d="M0.0 0.0V-390.0H50.0V0.0ZM-911.0 -32.0V-756.0H-417.0V-152.0H-633.0V-32.0ZM-144.0 -391.0V-1001.0C-144.0 -1014.0 -148.0 -1019.0 -165.0 -1020.0C-185.0 -1020.0 -236.0 -1021.0 -310.0 -1019.0C-301.0 -1035.0 -292.0 -1055.0 -288.0 -1070.0C-206.0 -1070.0 -155.0 -1070.0 -129.0 -1060.0C-101.0 -1049.0 -94.0 -1032.0 -94.0 -1000.0V-391.0Z"/></g>
<g fill="green" transform="translate(600 100) scale(0.1 -0.1)"><path d="M0.0 0.0V-454.0H222.0V0.0ZM-925.0 3.0V-840.0H-311.0V-187.0H-511.0V3.0ZM-161.0 -358.0V-919.0C-161.0 -933.0 -167.0 -938.0 -179.0 -937.0C-192.0 -938.0 -231.0 -938.0 -264.0 -936.0C-237.0 -993.0 -211.0 -1086.0 -207.0 -1147.0C-132.0 -1147.0 -77.0 -1142.0 -25.0 -1107.0C27.0 -1071.0 37.0 -1008.0 37.0 -927.0V-358.0Z"/></g>
<g fill="green" transform="translate(700 100) scale(0.1 -0.1)"><path d="M0.0 0.0V-746.0H48.0V0.0ZM-35.0 241.0V-227.0H917.0V-156.0H27.0V241.0ZM671.0 -320.0V-784.0C671.0 -799.0 667.0 -805.0 647.0 -806.0C624.0 -806.0 559.0 -807.0 467.0 -806.0C476.0 -821.0 483.0 -839.0 487.0 -853.0C591.0 -853.0 651.0 -854.0 682.0 -844.0C711.0 -833.0 719.0 -816.0 719.0 -784.0V-320.0Z"/></g>
<g fill="green" transform="translate(800 100) scale(0.1 -0.1)"><path d="M0.0 0.0V-774.0H175.0V0.0ZM-28.0 277.0V-291.0H1021.0V-50.0H210.0V277.0ZM631.0 -267.0V-685.0C631.0 -700.0 624.0 -705.0 607.0 -705.0C590.0 -706.0 527.0 -706.0 481.0 -703.0C507.0 -755.0 535.0 -839.0 542.0 -896.0C633.0 -896.0 702.0 -893.0 762.0 -864.0C822.0 -831.0 836.0 -776.0 836.0 -690.0V-267.0Z"/></g>
<g fill="green" transform="translate(900 100) scale(0.1 -0.1)"><path d="M0.0 -0.0V-217.0H43.0V0.0ZM-480.0 -406.0V-835.0H-522.0V-363.0H708.0V-406.0ZM683.0 -487.0V-675.0C683.0 -695.0 678.0 -701.0 650.0 -703.0C622.0 -704.0 533.0 -705.0 406.0 -703.0C413.0 -716.0 420.0 -728.0 423.0 -741.0C567.0 -741.0 646.0 -742.0 682.0 -733.0C717.0 -724.0 725.0 -708.0 725.0 -675.0V-487.0Z"/></g>
<g fill="green" transform="translate(1000 100) scale(0.1 -0.1)"><path d="M0.0 0.0V-214.0H169.0V0.0ZM-507.0 -358.0V-875.0H-350.0V-485.0H676.0V-358.0ZM577.0 -462.0V-595.0C577.0 -612.0 568.0 -617.0 545.0 -617.0C523.0 -618.0 430.0 -618.0 369.0 -614.0C396.0 -664.0 430.0 -741.0 443.0 -798.0C553.0 -798.0 644.0 -799.0 716.0 -771.0C790.0 -743.0 811.0 -695.0 811.0 -599.0V-462.0Z"/></g>
<g fill="green" transform="translate(1100 100) scale(0.1 -0.1)"><path d="M0.0 0.0V-772.0H68.0V0.0ZM-964.0 81.0V-546.0H-563.0V57.0H123.0V81.0ZM686.0 -205.0V-708.0C686.0 -735.0 678.0 -745.0 643.0 -746.0C604.0 -749.0 489.0 -750.0 324.0 -747.0C336.0 -768.0 346.0 -790.0 351.0 -811.0C534.0 -811.0 639.0 -811.0 690.0 -798.0C740.0 -784.0 752.0 -759.0 752.0 -707.0V-205.0Z"/></g>
<g fill="green" transform="translate(1200 100) scale(0.1 -0.1)"><path d="M0.0 0.0V-689.0H328.0V0.0ZM-937.0 207.0V-527.0H-286.0V33.0H214.0V207.0ZM628.0 -77.0V-494.0C628.0 -517.0 617.0 -525.0 586.0 -524.0C558.0 -525.0 447.0 -525.0 370.0 -520.0C408.0 -598.0 451.0 -717.0 465.0 -803.0C618.0 -803.0 742.0 -802.0 841.0 -760.0C941.0 -714.0 968.0 -640.0 968.0 -500.0V-77.0Z"/></g>
<g fill="green" transform="translate(1300 100) scale(0.1 -0.1)"><path d="M0.0 -0.0V-157.0H67.0V0.0ZM-768.0 15.0V-563.0H-386.0V-93.0H175.0V15.0ZM714.0 148.0V-821.0C714.0 -852.0 704.0 -864.0 666.0 -865.0C626.0 -867.0 498.0 -868.0 330.0 -865.0C342.0 -886.0 352.0 -912.0 358.0 -931.0C547.0 -932.0 659.0 -932.0 712.0 -919.0C763.0 -906.0 779.0 -878.0 779.0 -820.0V148.0Z"/></g>
<g fill="green" transform="translate(1400 100) scale(0.1 -0.1)"><path d="M0.0 0.0V-59.0H272.0V0.0ZM-755.0 127.0V-525.0H-156.0V-102.0H237.0V127.0ZM625.0 325.0V-602.0C625.0 -630.0 613.0 -640.0 579.0 -641.0C548.0 -642.0 429.0 -642.0 343.0 -636.0C379.0 -708.0 421.0 -824.0 434.0 -904.0C603.0 -904.0 730.0 -902.0 826.0 -860.0C924.0 -817.0 952.0 -748.0 952.0 -606.0V325.0Z"/></g>
<g fill="green" transform="translate(1500 100) scale(0.1 -0.1)"><path d="M0.0 -0.0V-311.0H85.0V0.0ZM-1034.0 123.0V-509.0H-292.0V-258.0H344.0V123.0ZM683.0 -315.0V-794.0C683.0 -831.0 673.0 -843.0 627.0 -846.0C575.0 -848.0 421.0 -850.0 199.0 -845.0C214.0 -872.0 228.0 -898.0 234.0 -923.0C480.0 -923.0 620.0 -925.0 686.0 -907.0C751.0 -890.0 767.0 -859.0 767.0 -795.0V-315.0Z"/></g>
<g fill="green" transform="translate(1600 100) scale(0.1 -0.1)"><path d="M0.0 0.0V-164.0H417.0V0.0ZM-986.0 286.0V-458.0H66.0V-189.0H505.0V286.0ZM578.0 -146.0V-500.0C578.0 -529.0 562.0 -539.0 521.0 -538.0C483.0 -540.0 333.0 -540.0 230.0 -533.0C280.0 -630.0 338.0 -775.0 358.0 -884.0C559.0 -884.0 724.0 -884.0 855.0 -832.0C988.0 -776.0 1024.0 -686.0 1024.0 -507.0V-146.0Z"/></g>
<g fill="green" transform="translate(100 200) scale(0.1 -0.1)"><path d="M0.0 -0.0V-228.0H62.0V0.0ZM-963.0 48.0V-404.0H-335.0V-148.0H119.0V48.0ZM719.0 -258.0V-739.0C719.0 -770.0 711.0 -780.0 670.0 -782.0C626.0 -784.0 493.0 -785.0 302.0 -782.0C313.0 -802.0 323.0 -822.0 328.0 -841.0C538.0 -841.0 657.0 -842.0 712.0 -830.0C765.0 -817.0 780.0 -792.0 780.0 -739.0V-258.0Z"/></g>
<g fill="green" transform="translate(200 200) scale(0.1 -0.1)"><path d="M0.0 0.0V-241.0H306.0V0.0ZM-953.0 90.0V-471.0H-93.0V-176.0H246.0V90.0ZM649.0 -193.0V-623.0C649.0 -649.0 634.0 -658.0 596.0 -658.0C560.0 -659.0 408.0 -659.0 307.0 -652.0C345.0 -726.0 392.0 -841.0 408.0 -924.0C588.0 -924.0 733.0 -924.0 843.0 -885.0C954.0 -843.0 988.0 -773.0 988.0 -628.0V-193.0Z"/></g>
<g fill="green" transform="translate(300 200) scale(0.1 -0.1)"><path d="M0.0 0.0V-294.0H62.0V0.0ZM-945.0 -42.0V-465.0H-343.0V-198.0H69.0V-42.0ZM727.0 -319.0V-796.0C727.0 -827.0 718.0 -837.0 679.0 -841.0C636.0 -843.0 507.0 -843.0 324.0 -840.0C336.0 -860.0 345.0 -880.0 350.0 -899.0C551.0 -899.0 668.0 -900.0 722.0 -888.0C775.0 -875.0 787.0 -851.0 787.0 -796.0V-319.0Z"/></g>
<g fill="green" transform="translate(400 200) scale(0.1 -0.1)"><path d="M0.0 0.0V-179.0H299.0V0.0ZM-922.0 59.0V-420.0H-84.0V-175.0H161.0V59.0ZM630.0 -193.0V-559.0C630.0 -585.0 617.0 -593.0 582.0 -593.0C549.0 -594.0 415.0 -594.0 326.0 -588.0C363.0 -663.0 408.0 -778.0 423.0 -861.0C595.0 -861.0 733.0 -862.0 839.0 -822.0C948.0 -779.0 978.0 -710.0 978.0 -565.0V-193.0Z"/></g>
<g fill="red" transform="translate(100 300) scale(0.1 -0.1)"><path d="M0.0 0.0V-657.0H30.0V0.0ZM-227.0 -147.0V-531.0H-198.0V-176.0H257.0V-147.0ZM241.0 -147.0V-468.0C241.0 -480.0 239.0 -484.0 225.0 -485.0C210.0 -486.0 167.0 -486.0 106.0 -484.0C111.0 -494.0 117.0 -506.0 118.0 -514.0C185.0 -514.0 225.0 -514.0 245.0 -508.0C266.0 -503.0 271.0 -491.0 271.0 -468.0V-147.0Z"/></g>
<g fill="black" opacity=".8" transform="translate(100 300) scale(0.1 -0.1)"><path d="M0.0 0.0V-661.0H29.0V0.0ZM-222.0 -143.0V-523.0H-192.0V-174.0H248.0V-143.0ZM235.0 -145.0V-474.0C235.0 -484.0 232.0 -488.0 219.0 -489.0C206.0 -490.0 166.0 -490.0 111.0 -489.0C115.0 -497.0 120.0 -508.0 123.0 -517.0C184.0 -517.0 221.0 -517.0 240.0 -511.0C258.0 -505.0 262.0 -495.0 262.0 -473.0V-145.0Z"/></g>
<g fill="red" transform="translate(200 300) scale(0.1 -0.1)"><path d="M0.0 0.0V-653.0H142.0V0.0ZM-196.0 -100.0V-530.0H-61.0V-230.0H252.0V-100.0ZM210.0 -100.0V-390.0C210.0 -399.0 207.0 -401.0 198.0 -402.0C189.0 -402.0 163.0 -402.0 143.0 -401.0C159.0 -436.0 174.0 -489.0 178.0 -527.0C230.0 -527.0 272.0 -526.0 306.0 -505.0C341.0 -484.0 349.0 -450.0 349.0 -392.0V-100.0Z"/></g>
<g fill="black" opacity=".8" transform="translate(200 300) scale(0.1 -0.1)"><path d="M0.0 0.0V-647.0H133.0V0.0ZM-204.0 -104.0V-524.0H-74.0V-227.0H273.0V-104.0ZM219.0 -104.0V-391.0C219.0 -399.0 215.0 -403.0 205.0 -402.0C197.0 -403.0 168.0 -403.0 145.0 -401.0C159.0 -435.0 177.0 -487.0 180.0 -523.0C232.0 -523.0 271.0 -521.0 306.0 -502.0C341.0 -481.0 348.0 -447.0 348.0 -394.0V-104.0Z"/></g>
<g fill="red" transform="translate(300 300) scale(0.1 -0.1)"><path d="M0.0 0.0V-490.0H30.0V0.0ZM-208.0 -106.0V-401.0H-178.0V-136.0H242.0V-106.0ZM231.0 -106.0V-362.0C231.0 -372.0 229.0 -376.0 216.0 -376.0C202.0 -378.0 165.0 -378.0 108.0 -376.0C114.0 -386.0 119.0 -396.0 121.0 -405.0C181.0 -405.0 218.0 -405.0 236.0 -399.0C255.0 -393.0 260.0 -383.0 260.0 -361.0V-106.0Z"/></g>
<g fill="black" opacity=".8" transform="translate(300 300) scale(0.1 -0.1)"><path d="M0.0 0.0V-490.0H26.0V0.0ZM-208.0 -102.0V-405.0H-172.0V-139.0H246.0V-102.0ZM228.0 -105.0V-367.0C228.0 -376.0 225.0 -380.0 213.0 -380.0C200.0 -381.0 161.0 -382.0 107.0 -381.0C111.0 -388.0 115.0 -397.0 118.0 -405.0C178.0 -405.0 214.0 -405.0 232.0 -399.0C248.0 -394.0 252.0 -386.0 252.0 -365.0V-105.0Z"/></g>
<g fill="red" transform="translate(400 300) scale(0.1 -0.1)"><path d="M0.0 0.0V-464.0H137.0V0.0ZM-186.0 -58.0V-405.0H-53.0V-183.0H261.0V-58.0ZM195.0 -58.0V-279.0C195.0 -288.0 192.0 -290.0 184.0 -290.0C176.0 -290.0 153.0 -290.0 135.0 -290.0C150.0 -323.0 164.0 -373.0 168.0 -409.0C216.0 -409.0 255.0 -408.0 288.0 -389.0C321.0 -369.0 328.0 -336.0 328.0 -282.0V-58.0Z"/></g>
<g fill="black" opacity=".8" transform="translate(400 300) scale(0.1 -0.1)"><path d="M0.0 0.0V-463.0H120.0V0.0ZM-191.0 -59.0V-396.0H-61.0V-174.0H267.0V-59.0ZM208.0 -61.0V-283.0C208.0 -291.0 205.0 -295.0 194.0 -293.0C187.0 -295.0 156.0 -295.0 133.0 -293.0C146.0 -323.0 162.0 -369.0 166.0 -400.0C216.0 -400.0 254.0 -399.0 288.0 -383.0C322.0 -364.0 329.0 -335.0 329.0 -286.0V-61.0Z"/></g>
<g fill="red" transform="translate(500 300) scale(0.1 -0.1)"><path d="M0.0 0.0V-635.0H30.0V0.0ZM-248.0 -147.0V-535.0H-218.0V-176.0H271.0V-147.0ZM256.0 -147.0V-481.0C256.0 -493.0 253.0 -497.0 239.0 -498.0C224.0 -499.0 180.0 -499.0 118.0 -497.0C123.0 -507.0 129.0 -517.0 131.0 -526.0C198.0 -526.0 240.0 -526.0 260.0 -520.0C281.0 -514.0 286.0 -504.0 286.0 -481.0V-147.0Z"/></g>
<g fill="black" opacity=".8" transform="translate(500 300) scale(0.1 -0.1)"><path d="M0.0 0.0V-620.0H32.0V0.0ZM-251.0 -145.0V-536.0H-221.0V-177.0H275.0V-145.0ZM260.0 -146.0V-481.0C260.0 -492.0 256.0 -496.0 242.0 -497.0C228.0 -498.0 183.0 -499.0 122.0 -498.0C127.0 -506.0 132.0 -518.0 135.0 -528.0C204.0 -528.0 245.0 -528.0 266.0 -521.0C286.0 -515.0 290.0 -504.0 290.0 -480.0V-146.0Z"/></g>
<g fill="red" transform="translate(600 300) scale(0.1 -0.1)"><path d="M0.0 0.0V-558.0H141.0V0.0ZM-232.0 -85.0V-505.0H-93.0V-209.0H305.0V-85.0ZM240.0 -85.0V-369.0C240.0 -379.0 236.0 -382.0 225.0 -382.0C215.0 -382.0 180.0 -382.0 155.0 -381.0C171.0 -415.0 189.0 -467.0 195.0 -505.0C251.0 -505.0 297.0 -503.0 334.0 -483.0C371.0 -463.0 381.0 -430.0 381.0 -372.0V-85.0Z"/></g>
<g fill="black" opacity=".8" transform="translate(600 300) scale(0.1 -0.1)"><path d="M0.0 0.0V-573.0H144.0V0.0ZM-231.0 -84.0V-512.0H-87.0V-216.0H294.0V-84.0ZM232.0 -83.0V-364.0C232.0 -374.0 229.0 -378.0 218.0 -376.0C209.0 -378.0 178.0 -378.0 154.0 -376.0C170.0 -413.0 189.0 -469.0 193.0 -508.0C250.0 -508.0 293.0 -506.0 332.0 -485.0C371.0 -463.0 378.0 -427.0 378.0 -368.0V-83.0Z"/></g>
<g fill="red" transform="translate(700 300) scale(0.1 -0.1)"><path d="M0.0 0.0V-608.0H30.0V0.0ZM-175.0 -125.0V-496.0H-146.0V-155.0H189.0V-125.0ZM176.0 -125.0V-451.0C176.0 -460.0 173.0 -462.0 163.0 -463.0C152.0 -463.0 119.0 -464.0 77.0 -463.0C82.0 -471.0 86.0 -482.0 88.0 -489.0C140.0 -489.0 169.0 -489.0 184.0 -484.0C200.0 -478.0 205.0 -469.0 205.0 -451.0V-125.0Z"/></g>
<g fill="black" opacity=".8" transform="translate(700 300) scale(0.1 -0.1)"><path d="M0.0 0.0V-598.0H26.0V0.0ZM-166.0 -127.0V-496.0H-139.0V-155.0H187.0V-127.0ZM175.0 -126.0V-455.0C175.0 -463.0 172.0 -466.0 162.0 -466.0C152.0 -467.0 122.0 -468.0 81.0 -467.0C85.0 -474.0 89.0 -484.0 92.0 -492.0C138.0 -492.0 167.0 -492.0 182.0 -486.0C196.0 -481.0 199.0 -472.0 199.0 -454.0V-126.0Z"/></g>
<g fill="red" transform="translate(800 300) scale(0.1 -0.1)"><path d="M0.0 0.0V-576.0H117.0V0.0ZM-140.0 -87.0V-501.0H-37.0V-205.0H199.0V-87.0ZM154.0 -87.0V-379.0C154.0 -387.0 152.0 -389.0 146.0 -389.0C141.0 -389.0 129.0 -389.0 117.0 -388.0C132.0 -419.0 147.0 -467.0 150.0 -500.0C185.0 -500.0 212.0 -498.0 237.0 -478.0C263.0 -459.0 268.0 -427.0 268.0 -382.0V-87.0Z"/></g>
<g fill="black" opacity=".8" transform="translate(800 300) scale(0.1 -0.1)"><path d="M0.0 0.0V-586.0H111.0V0.0ZM-153.0 -88.0V-497.0H-44.0V-198.0H209.0V-88.0ZM161.0 -86.0V-379.0C161.0 -386.0 159.0 -389.0 152.0 -388.0C146.0 -389.0 128.0 -389.0 113.0 -388.0C125.0 -417.0 139.0 -463.0 141.0 -494.0C181.0 -494.0 209.0 -492.0 237.0 -475.0C264.0 -456.0 268.0 -426.0 268.0 -382.0V-86.0Z"/></g>
<g fill="red" transform="translate(900 300) scale(0.1 -0.1)"><path d="M0.0 0.0V-657.0H29.0V0.0ZM-188.0 -125.0V-538.0H-159.0V-156.0H217.0V-125.0ZM202.0 -125.0V-499.0C202.0 -506.0 200.0 -509.0 191.0 -509.0C181.0 -510.0 155.0 -510.0 119.0 -509.0C124.0 -518.0 130.0 -530.0 132.0 -538.0C173.0 -538.0 198.0 -538.0 213.0 -532.0C227.0 -526.0 231.0 -516.0 231.0 -498.0V-125.0Z"/></g>
<g fill="black" opacity=".8" transform="translate(900 300) scale(0.1 -0.1)"><path d="M0.0 0.0V-660.0H29.0V0.0ZM-188.0 -125.0V-545.0H-160.0V-152.0H217.0V-125.0ZM204.0 -128.0V-498.0C204.0 -506.0 202.0 -510.0 190.0 -510.0C179.0 -511.0 145.0 -512.0 98.0 -511.0C102.0 -518.0 107.0 -530.0 110.0 -539.0C163.0 -539.0 195.0 -538.0 212.0 -532.0C228.0 -527.0 232.0 -517.0 232.0 -497.0V-128.0Z"/></g>
<g fill="red" transform="translate(1000 300) scale(0.1 -0.1)"><path d="M0.0 0.0V-680.0H131.0V0.0ZM-186.0 -92.0V-575.0H-57.0V-219.0H246.0V-92.0ZM183.0 -92.0V-434.0C183.0 -443.0 181.0 -445.0 173.0 -445.0C166.0 -446.0 146.0 -446.0 129.0 -445.0C145.0 -480.0 159.0 -534.0 162.0 -571.0C207.0 -571.0 242.0 -569.0 273.0 -548.0C304.0 -526.0 310.0 -490.0 310.0 -438.0V-92.0Z"/></g>
<g fill="black" opacity=".8" transform="translate(1000 300) scale(0.1 -0.1)"><path d="M0.0 0.0V-674.0H123.0V0.0ZM-177.0 -93.0V-569.0H-60.0V-213.0H246.0V-93.0ZM194.0 -95.0V-438.0C194.0 -446.0 191.0 -450.0 183.0 -449.0C176.0 -450.0 153.0 -450.0 133.0 -448.0C147.0 -481.0 163.0 -532.0 166.0 -566.0C211.0 -566.0 244.0 -563.0 274.0 -544.0C305.0 -524.0 310.0 -490.0 310.0 -441.0V-95.0Z"/></g>
<g fill="red" transform="translate(1100 300) scale(0.1 -0.1)"><path d="M0.0 0.0V-904.0H30.0V0.0ZM-315.0 -348.0V-766.0H-286.0V-377.0H344.0V-348.0ZM331.0 -348.0V-703.0C331.0 -718.0 327.0 -722.0 309.0 -724.0C290.0 -725.0 235.0 -725.0 155.0 -723.0C161.0 -733.0 166.0 -744.0 168.0 -753.0C254.0 -753.0 305.0 -753.0 330.0 -748.0C354.0 -742.0 360.0 -730.0 360.0 -703.0V-348.0Z"/></g>
<g fill="black" opacity=".8" transform="translate(1100 300) scale(0.1 -0.1)"><path d="M0.0 0.0V-893.0H31.0V0.0ZM-309.0 -345.0V-769.0H-282.0V-375.0H342.0V-345.0ZM324.0 -346.0V-706.0C324.0 -720.0 320.0 -724.0 302.0 -726.0C285.0 -727.0 231.0 -727.0 155.0 -726.0C160.0 -735.0 166.0 -746.0 169.0 -756.0C251.0 -756.0 301.0 -756.0 325.0 -749.0C347.0 -743.0 353.0 -732.0 353.0 -705.0V-346.0Z"/></g>
<g fill="red" transform="translate(1200 300) scale(0.1 -0.1)"><path d="M0.0 0.0V-950.0H152.0V0.0ZM-290.0 -356.0V-832.0H-143.0V-498.0H370.0V-356.0ZM303.0 -356.0V-677.0C303.0 -689.0 298.0 -692.0 283.0 -692.0C269.0 -692.0 215.0 -692.0 179.0 -690.0C198.0 -728.0 220.0 -790.0 226.0 -832.0C296.0 -832.0 352.0 -830.0 397.0 -808.0C442.0 -786.0 455.0 -746.0 455.0 -680.0V-356.0Z"/></g>
<g fill="black" opacity=".8" transform="translate(1200 300) scale(0.1 -0.1)"><path d="M0.0 0.0V-956.0H155.0V0.0ZM-294.0 -359.0V-834.0H-148.0V-502.0H371.0V-359.0ZM310.0 -360.0V-672.0C310.0 -684.0 304.0 -688.0 290.0 -687.0C276.0 -688.0 222.0 -688.0 185.0 -686.0C203.0 -726.0 225.0 -790.0 229.0 -832.0C300.0 -832.0 356.0 -830.0 402.0 -807.0C448.0 -784.0 460.0 -742.0 460.0 -676.0V-360.0Z"/></g>
<g fill="red" transform="translate(1300 300) scale(0.1 -0.1)"><path d="M0.0 0.0V-816.0H30.0V0.0ZM-317.0 -190.0V-688.0H-288.0V-220.0H342.0V-190.0ZM330.0 -190.0V-629.0C330.0 -645.0 326.0 -650.0 307.0 -651.0C288.0 -652.0 229.0 -653.0 149.0 -651.0C154.0 -661.0 160.0 -672.0 162.0 -681.0C248.0 -681.0 302.0 -681.0 328.0 -675.0C352.0 -669.0 359.0 -657.0 359.0 -629.0V-190.0Z"/></g>
<g fill="black" opacity=".8" transform="translate(1300 300) scale(0.1 -0.1)"><path d="M0.0 0.0V-802.0H39.0V0.0ZM-315.0 -194.0V-698.0H-288.0V-223.0H337.0V-194.0ZM321.0 -191.0V-625.0C321.0 -639.0 316.0 -644.0 299.0 -645.0C281.0 -646.0 227.0 -647.0 152.0 -645.0C158.0 -656.0 164.0 -671.0 168.0 -682.0C252.0 -682.0 302.0 -682.0 327.0 -674.0C352.0 -666.0 358.0 -653.0 358.0 -624.0V-191.0Z"/></g>
<g fill="red" transform="translate(1400 300) scale(0.1 -0.1)"><path d="M0.0 0.0V-779.0H152.0V0.0ZM-294.0 -141.0V-687.0H-144.0V-283.0H383.0V-141.0ZM304.0 -141.0V-526.0C304.0 -538.0 299.0 -542.0 284.0 -542.0C270.0 -542.0 217.0 -542.0 180.0 -540.0C200.0 -579.0 222.0 -644.0 228.0 -687.0C299.0 -687.0 355.0 -685.0 399.0 -661.0C445.0 -638.0 457.0 -597.0 457.0 -530.0V-141.0Z"/></g>
<g fill="black" opacity=".8" transform="translate(1400 300) scale(0.1 -0.1)"><path d="M0.0 0.0V-787.0H175.0V0.0ZM-296.0 -140.0V-704.0H-134.0V-297.0H365.0V-140.0ZM295.0 -136.0V-519.0C295.0 -531.0 290.0 -536.0 276.0 -534.0C265.0 -536.0 223.0 -536.0 191.0 -534.0C211.0 -578.0 234.0 -648.0 239.0 -696.0C310.0 -696.0 364.0 -693.0 411.0 -667.0C457.0 -640.0 468.0 -595.0 468.0 -523.0V-136.0Z"/></g>
<g fill="red" transform="translate(1500 300) scale(0.1 -0.1)"><path d="M0.0 0.0V-737.0H30.0V0.0ZM-313.0 -182.0V-607.0H-284.0V-211.0H342.0V-182.0ZM329.0 -182.0V-549.0C329.0 -564.0 325.0 -569.0 306.0 -571.0C286.0 -572.0 225.0 -572.0 139.0 -570.0C143.0 -580.0 149.0 -590.0 151.0 -600.0C244.0 -600.0 299.0 -600.0 326.0 -594.0C351.0 -588.0 358.0 -576.0 358.0 -548.0V-182.0Z"/></g>
<g fill="black" opacity=".8" transform="translate(1500 300) scale(0.1 -0.1)"><path d="M0.0 0.0V-725.0H35.0V0.0ZM-323.0 -181.0V-608.0H-292.0V-209.0H333.0V-181.0ZM329.0 -176.0V-549.0C329.0 -562.0 325.0 -567.0 307.0 -568.0C289.0 -569.0 234.0 -570.0 157.0 -568.0C162.0 -578.0 168.0 -591.0 171.0 -602.0C257.0 -602.0 307.0 -602.0 332.0 -594.0C356.0 -588.0 362.0 -575.0 362.0 -548.0V-176.0Z"/></g>
<g fill="red" transform="translate(1600 300) scale(0.1 -0.1)"><path d="M0.0 0.0V-711.0H152.0V0.0ZM-304.0 -138.0V-621.0H-157.0V-280.0H356.0V-138.0ZM324.0 -138.0V-467.0C324.0 -479.0 318.0 -483.0 302.0 -483.0C288.0 -483.0 229.0 -483.0 189.0 -480.0C209.0 -519.0 231.0 -581.0 237.0 -623.0C311.0 -623.0 369.0 -621.0 416.0 -599.0C462.0 -577.0 476.0 -537.0 476.0 -470.0V-138.0Z"/></g>
<g fill="black" opacity=".8" transform="translate(1600 300) scale(0.1 -0.1)"><path d="M0.0 0.0V-723.0H166.0V0.0ZM-304.0 -144.0V-624.0H-143.0V-287.0H362.0V-144.0ZM307.0 -136.0V-463.0C307.0 -475.0 302.0 -480.0 287.0 -478.0C275.0 -480.0 226.0 -480.0 191.0 -477.0C210.0 -519.0 232.0 -583.0 237.0 -627.0C309.0 -627.0 366.0 -625.0 413.0 -602.0C460.0 -577.0 471.0 -536.0 471.0 -467.0V-136.0Z"/></g>
<g fill="red" transform="translate(100 400) scale(0.1 -0.1)"><path d="M0.0 0.0V-648.0H30.0V0.0ZM-296.0 -154.0V-549.0H-267.0V-184.0H329.0V-154.0ZM315.0 -154.0V-489.0C315.0 -504.0 310.0 -508.0 292.0 -509.0C274.0 -510.0 212.0 -511.0 130.0 -509.0C136.0 -518.0 141.0 -528.0 143.0 -536.0C239.0 -537.0 291.0 -537.0 314.0 -531.0C338.0 -525.0 344.0 -513.0 344.0 -489.0V-154.0Z"/></g>
<g fill="black" opacity=".8" transform="translate(100 400) scale(0.1 -0.1)"><path d="M0.0 0.0V-647.0H33.0V0.0ZM-297.0 -151.0V-550.0H-268.0V-183.0H321.0V-151.0ZM301.0 -150.0V-489.0C301.0 -502.0 297.0 -507.0 281.0 -507.0C264.0 -508.0 213.0 -509.0 141.0 -508.0C146.0 -517.0 151.0 -529.0 154.0 -539.0C235.0 -539.0 282.0 -539.0 305.0 -532.0C327.0 -526.0 333.0 -514.0 333.0 -488.0V-150.0Z"/></g>
<g fill="red" transform="translate(200 400) scale(0.1 -0.1)"><path d="M0.0 0.0V-644.0H147.0V0.0ZM-274.0 -104.0V-558.0H-128.0V-241.0H343.0V-104.0ZM280.0 -104.0V-407.0C280.0 -419.0 275.0 -423.0 260.0 -423.0C247.0 -423.0 195.0 -423.0 159.0 -421.0C177.0 -457.0 198.0 -513.0 204.0 -553.0C273.0 -553.0 328.0 -551.0 371.0 -531.0C415.0 -510.0 428.0 -474.0 428.0 -410.0V-104.0Z"/></g>
<g fill="black" opacity=".8" transform="translate(200 400) scale(0.1 -0.1)"><path d="M0.0 0.0V-638.0H156.0V0.0ZM-278.0 -109.0V-560.0H-126.0V-249.0H349.0V-109.0ZM280.0 -107.0V-405.0C280.0 -415.0 275.0 -420.0 261.0 -419.0C250.0 -420.0 206.0 -420.0 173.0 -418.0C191.0 -456.0 212.0 -516.0 217.0 -557.0C284.0 -557.0 336.0 -556.0 380.0 -534.0C424.0 -510.0 434.0 -473.0 434.0 -408.0V-107.0Z"/></g>
<g fill="red" transform="translate(300 400) scale(0.1 -0.1)"><path d="M0.0 0.0V-899.0H30.0V0.0ZM-153.0 -184.0V-685.0H-124.0V-213.0H170.0V-184.0ZM158.0 -184.0V-632.0C158.0 -642.0 155.0 -645.0 145.0 -645.0C135.0 -646.0 103.0 -646.0 62.0 -645.0C67.0 -653.0 73.0 -666.0 75.0 -674.0C122.0 -674.0 150.0 -674.0 167.0 -668.0C183.0 -662.0 188.0 -651.0 188.0 -631.0V-184.0Z"/></g>
<g fill="black" opacity=".8" transform="translate(300 400) scale(0.1 -0.1)"><path d="M0.0 0.0V-896.0H29.0V0.0ZM-157.0 -184.0V-679.0H-124.0V-216.0H168.0V-184.0ZM153.0 -186.0V-636.0C153.0 -643.0 151.0 -646.0 141.0 -647.0C132.0 -647.0 104.0 -648.0 67.0 -647.0C71.0 -655.0 76.0 -667.0 79.0 -676.0C121.0 -676.0 148.0 -676.0 163.0 -670.0C177.0 -664.0 181.0 -654.0 181.0 -634.0V-186.0Z"/></g>
<g fill="red" transform="translate(400 400) scale(0.1 -0.1)"><path d="M0.0 0.0V-945.0H124.0V0.0ZM-142.0 -175.0V-735.0H-29.0V-302.0H194.0V-175.0ZM157.0 -175.0V-590.0C157.0 -599.0 155.0 -602.0 147.0 -602.0C139.0 -602.0 119.0 -602.0 98.0 -601.0C115.0 -637.0 132.0 -696.0 134.0 -733.0C176.0 -733.0 206.0 -729.0 234.0 -706.0C263.0 -684.0 268.0 -643.0 268.0 -595.0V-175.0Z"/></g>
<g fill="black" opacity=".8" transform="translate(400 400) scale(0.1 -0.1)"><path d="M0.0 0.0V-945.0H124.0V0.0ZM-146.0 -173.0V-728.0H-33.0V-301.0H206.0V-173.0ZM158.0 -173.0V-594.0C158.0 -602.0 155.0 -606.0 149.0 -604.0C143.0 -606.0 128.0 -606.0 113.0 -605.0C127.0 -638.0 142.0 -692.0 143.0 -727.0C181.0 -727.0 207.0 -723.0 234.0 -702.0C259.0 -681.0 263.0 -644.0 263.0 -598.0V-173.0Z"/></g>
<g fill="red" transform="translate(500 400) scale(0.1 -0.1)"><path d="M0.0 0.0V-899.0H29.0V0.0ZM-145.0 -196.0V-697.0H-116.0V-225.0H164.0V-196.0ZM145.0 -196.0V-650.0C145.0 -657.0 143.0 -660.0 133.0 -660.0C124.0 -661.0 98.0 -661.0 62.0 -660.0C67.0 -669.0 73.0 -682.0 75.0 -690.0C115.0 -690.0 141.0 -690.0 155.0 -684.0C170.0 -678.0 174.0 -668.0 174.0 -649.0V-196.0Z"/></g>
<g fill="black" opacity=".8" transform="translate(500 400) scale(0.1 -0.1)"><path d="M0.0 0.0V-905.0H29.0V0.0ZM-145.0 -197.0V-697.0H-118.0V-225.0H163.0V-197.0ZM146.0 -197.0V-649.0C146.0 -657.0 143.0 -659.0 134.0 -660.0C126.0 -660.0 99.0 -661.0 65.0 -660.0C69.0 -668.0 74.0 -681.0 77.0 -689.0C116.0 -690.0 142.0 -689.0 156.0 -683.0C170.0 -677.0 174.0 -667.0 174.0 -648.0V-197.0Z"/></g>
<g fill="red" transform="translate(600 400) scale(0.1 -0.1)"><path d="M0.0 0.0V-950.0H121.0V0.0ZM-132.0 -180.0V-740.0H-29.0V-307.0H194.0V-180.0ZM150.0 -180.0V-597.0C150.0 -605.0 148.0 -607.0 142.0 -607.0C137.0 -607.0 124.0 -607.0 109.0 -607.0C125.0 -640.0 140.0 -695.0 141.0 -729.0C177.0 -729.0 200.0 -725.0 225.0 -704.0C249.0 -682.0 253.0 -644.0 253.0 -601.0V-180.0Z"/></g>
<g fill="black" opacity=".8" transform="translate(600 400) scale(0.1 -0.1)"><path d="M0.0 0.0V-944.0H121.0V0.0ZM-133.0 -180.0V-737.0H-28.0V-306.0H197.0V-180.0ZM148.0 -179.0V-598.0C148.0 -606.0 145.0 -609.0 140.0 -608.0C135.0 -609.0 124.0 -609.0 111.0 -608.0C125.0 -641.0 139.0 -695.0 139.0 -730.0C175.0 -730.0 199.0 -726.0 224.0 -705.0C249.0 -683.0 252.0 -647.0 252.0 -602.0V-179.0Z"/></g>
<g fill="red" transform="translate(700 400) scale(0.1 -0.1)"><path d="M0.0 0.0V-458.0H30.0V0.0ZM-316.0 -90.0V-396.0H-287.0V-119.0H350.0V-90.0ZM332.0 -90.0V-339.0C332.0 -351.0 328.0 -355.0 313.0 -355.0C296.0 -356.0 245.0 -357.0 176.0 -355.0C181.0 -364.0 186.0 -374.0 188.0 -383.0C269.0 -383.0 313.0 -383.0 335.0 -377.0C356.0 -371.0 361.0 -360.0 361.0 -339.0V-90.0Z"/></g>
<g fill="black" opacity=".8" transform="translate(700 400) scale(0.1 -0.1)"><path d="M0.0 0.0V-459.0H29.0V0.0ZM-308.0 -97.0V-396.0H-289.0V-122.0H352.0V-97.0ZM332.0 -97.0V-337.0C332.0 -349.0 328.0 -354.0 311.0 -354.0C294.0 -355.0 240.0 -357.0 163.0 -355.0C167.0 -363.0 172.0 -373.0 175.0 -382.0C260.0 -382.0 309.0 -382.0 332.0 -376.0C354.0 -370.0 360.0 -360.0 360.0 -336.0V-97.0Z"/></g>
<g fill="red" transform="translate(800 400) scale(0.1 -0.1)"><path d="M0.0 0.0V-455.0H144.0V0.0ZM-291.0 -65.0V-410.0H-150.0V-188.0H380.0V-65.0ZM309.0 -65.0V-266.0C309.0 -277.0 303.0 -280.0 288.0 -280.0C274.0 -280.0 216.0 -280.0 175.0 -278.0C194.0 -314.0 216.0 -371.0 223.0 -411.0C292.0 -411.0 348.0 -410.0 393.0 -389.0C439.0 -368.0 452.0 -331.0 452.0 -269.0V-65.0Z"/></g>
<g fill="black" opacity=".8" transform="translate(800 400) scale(0.1 -0.1)"><path d="M0.0 0.0V-451.0H146.0V0.0ZM-292.0 -61.0V-409.0H-151.0V-182.0H375.0V-61.0ZM309.0 -61.0V-270.0C309.0 -280.0 303.0 -285.0 288.0 -284.0C276.0 -285.0 223.0 -285.0 186.0 -282.0C202.0 -317.0 223.0 -369.0 229.0 -406.0C299.0 -406.0 355.0 -406.0 400.0 -388.0C445.0 -367.0 458.0 -335.0 458.0 -273.0V-61.0Z"/></g>
<g fill="red" transform="translate(900 400) scale(0.1 -0.1)"><path d="M0.0 0.0V-502.0H29.0V0.0ZM-283.0 -114.0V-437.0H-253.0V-144.0H318.0V-114.0ZM304.0 -114.0V-383.0C304.0 -397.0 300.0 -400.0 284.0 -401.0C267.0 -402.0 213.0 -402.0 139.0 -401.0C144.0 -410.0 149.0 -420.0 151.0 -429.0C236.0 -429.0 283.0 -429.0 305.0 -423.0C328.0 -417.0 334.0 -406.0 334.0 -383.0V-114.0Z"/></g>
<g fill="black" opacity=".8" transform="translate(900 400) scale(0.1 -0.1)"><path d="M0.0 0.0V-505.0H29.0V0.0ZM-278.0 -116.0V-438.0H-250.0V-146.0H315.0V-116.0ZM296.0 -117.0V-384.0C296.0 -396.0 292.0 -401.0 277.0 -401.0C261.0 -402.0 212.0 -403.0 142.0 -402.0C147.0 -410.0 151.0 -420.0 154.0 -429.0C231.0 -429.0 276.0 -429.0 298.0 -423.0C319.0 -417.0 323.0 -407.0 323.0 -383.0V-117.0Z"/></g>
<g fill="red" transform="translate(1000 400) scale(0.1 -0.1)"><path d="M0.0 0.0V-491.0H141.0V0.0ZM-255.0 -74.0V-444.0H-111.0V-200.0H329.0V-74.0ZM265.0 -74.0V-301.0C265.0 -312.0 260.0 -315.0 248.0 -315.0C236.0 -315.0 192.0 -315.0 162.0 -313.0C179.0 -347.0 198.0 -399.0 204.0 -437.0C267.0 -437.0 317.0 -436.0 358.0 -417.0C399.0 -397.0 411.0 -364.0 411.0 -303.0V-74.0Z"/></g>
<g fill="black" opacity=".8" transform="translate(1000 400) scale(0.1 -0.1)"><path d="M0.0 0.0V-484.0H141.0V0.0ZM-260.0 -73.0V-438.0H-118.0V-197.0H336.0V-73.0ZM272.0 -73.0V-302.0C272.0 -312.0 267.0 -316.0 254.0 -315.0C243.0 -316.0 199.0 -316.0 168.0 -314.0C183.0 -348.0 203.0 -401.0 208.0 -437.0C272.0 -437.0 322.0 -436.0 364.0 -418.0C405.0 -397.0 416.0 -364.0 416.0 -305.0V-73.0Z"/></g>
<g fill="red" transform="translate(1100 400) scale(0.1 -0.1)"><path d="M0.0 0.0V-899.0H29.0V0.0ZM-138.0 -194.0V-695.0H-109.0V-223.0H151.0V-194.0ZM140.0 -194.0V-648.0C140.0 -656.0 138.0 -658.0 130.0 -659.0C121.0 -659.0 98.0 -659.0 66.0 -658.0C72.0 -667.0 78.0 -680.0 80.0 -688.0C115.0 -688.0 138.0 -688.0 152.0 -682.0C165.0 -676.0 169.0 -666.0 169.0 -648.0V-194.0Z"/></g>
<g fill="black" opacity=".8" transform="translate(1100 400) scale(0.1 -0.1)"><path d="M0.0 0.0V-907.0H29.0V0.0ZM-142.0 -194.0V-691.0H-112.0V-222.0H160.0V-194.0ZM152.0 -195.0V-648.0C152.0 -655.0 149.0 -658.0 140.0 -658.0C131.0 -659.0 105.0 -659.0 70.0 -658.0C75.0 -666.0 80.0 -679.0 82.0 -688.0C121.0 -688.0 147.0 -687.0 161.0 -681.0C175.0 -675.0 179.0 -666.0 179.0 -646.0V-195.0Z"/></g>
<g fill="red" transform="translate(1200 400) scale(0.1 -0.1)"><path d="M0.0 0.0V-950.0H138.0V0.0ZM-130.0 -181.0V-741.0H-26.0V-308.0H197.0V-181.0ZM164.0 -181.0V-598.0C164.0 -606.0 162.0 -608.0 157.0 -608.0C151.0 -608.0 139.0 -608.0 126.0 -608.0C142.0 -640.0 156.0 -694.0 157.0 -728.0C191.0 -728.0 214.0 -724.0 238.0 -703.0C261.0 -682.0 265.0 -644.0 265.0 -602.0V-181.0Z"/></g>
<g fill="black" opacity=".8" transform="translate(1200 400) scale(0.1 -0.1)"><path d="M0.0 0.0V-949.0H120.0V0.0ZM-131.0 -179.0V-734.0H-24.0V-303.0H196.0V-179.0ZM154.0 -178.0V-599.0C154.0 -607.0 152.0 -610.0 146.0 -609.0C141.0 -610.0 129.0 -610.0 116.0 -609.0C130.0 -642.0 144.0 -696.0 144.0 -730.0C180.0 -730.0 204.0 -726.0 229.0 -706.0C254.0 -684.0 257.0 -648.0 257.0 -603.0V-178.0Z"/></g>
<g fill="red" transform="translate(1300 400) scale(0.1 -0.1)"><path d="M0.0 0.0V-899.0H30.0V0.0ZM-128.0 -194.0V-695.0H-99.0V-223.0H133.0V-194.0ZM122.0 -194.0V-648.0C122.0 -655.0 120.0 -658.0 110.0 -658.0C101.0 -659.0 75.0 -659.0 39.0 -658.0C44.0 -667.0 50.0 -680.0 52.0 -688.0C92.0 -688.0 118.0 -688.0 132.0 -682.0C147.0 -676.0 151.0 -666.0 151.0 -647.0V-194.0Z"/></g>
<g fill="black" opacity=".8" transform="translate(1300 400) scale(0.1 -0.1)"><path d="M0.0 0.0V-900.0H29.0V0.0ZM-141.0 -187.0V-688.0H-103.0V-225.0H150.0V-187.0ZM132.0 -190.0V-649.0C132.0 -656.0 130.0 -659.0 121.0 -659.0C112.0 -659.0 86.0 -660.0 53.0 -659.0C57.0 -667.0 63.0 -680.0 65.0 -688.0C103.0 -688.0 128.0 -688.0 142.0 -682.0C156.0 -676.0 159.0 -667.0 159.0 -647.0V-190.0Z"/></g>
<g fill="red" transform="translate(1400 400) scale(0.1 -0.1)"><path d="M0.0 0.0V-950.0H124.0V0.0ZM-132.0 -181.0V-744.0H-23.0V-308.0H199.0V-181.0ZM149.0 -181.0V-611.0C149.0 -619.0 147.0 -621.0 142.0 -621.0C137.0 -621.0 124.0 -621.0 111.0 -621.0C125.0 -653.0 137.0 -707.0 138.0 -741.0C174.0 -741.0 199.0 -738.0 224.0 -717.0C249.0 -696.0 252.0 -659.0 252.0 -615.0V-181.0Z"/></g>
<g fill="black" opacity=".8" transform="translate(1400 400) scale(0.1 -0.1)"><path d="M0.0 0.0V-955.0H119.0V0.0ZM-130.0 -179.0V-741.0H-19.0V-310.0H190.0V-179.0ZM138.0 -180.0V-612.0C138.0 -619.0 136.0 -623.0 130.0 -621.0C126.0 -623.0 114.0 -623.0 100.0 -622.0C114.0 -654.0 128.0 -708.0 128.0 -741.0C163.0 -741.0 187.0 -738.0 211.0 -717.0C235.0 -696.0 238.0 -659.0 238.0 -616.0V-180.0Z"/></g>
<g fill="red" transform="translate(1500 400) scale(0.1 -0.1)"><path d="M0.0 0.0V-899.0H29.0V0.0ZM-134.0 -194.0V-695.0H-105.0V-223.0H151.0V-194.0ZM137.0 -194.0V-649.0C137.0 -656.0 135.0 -658.0 127.0 -659.0C119.0 -659.0 97.0 -659.0 68.0 -658.0C73.0 -667.0 79.0 -680.0 81.0 -688.0C115.0 -688.0 136.0 -688.0 150.0 -682.0C163.0 -676.0 166.0 -666.0 166.0 -648.0V-194.0Z"/></g>
<g fill="black" opacity=".8" transform="translate(1500 400) scale(0.1 -0.1)"><path d="M0.0 0.0V-908.0H28.0V0.0ZM-130.0 -201.0V-697.0H-108.0V-224.0H150.0V-201.0ZM136.0 -200.0V-648.0C136.0 -654.0 134.0 -657.0 126.0 -658.0C118.0 -658.0 94.0 -659.0 63.0 -658.0C68.0 -666.0 73.0 -678.0 75.0 -686.0C110.0 -687.0 134.0 -686.0 147.0 -680.0C160.0 -674.0 163.0 -665.0 163.0 -646.0V-200.0Z"/></g>
<g fill="red" transform="translate(1600 400) scale(0.1 -0.1)"><path d="M0.0 0.0V-950.0H113.0V0.0ZM-121.0 -181.0V-737.0H-20.0V-308.0H178.0V-181.0ZM134.0 -181.0V-585.0C134.0 -593.0 133.0 -595.0 128.0 -595.0C124.0 -595.0 116.0 -595.0 107.0 -595.0C123.0 -628.0 136.0 -682.0 137.0 -716.0C167.0 -716.0 186.0 -712.0 208.0 -691.0C230.0 -669.0 233.0 -631.0 233.0 -590.0V-181.0Z"/></g>
<g fill="black" opacity=".8" transform="translate(1600 400) scale(0.1 -0.1)"><path d="M0.0 0.0V-939.0H116.0V0.0ZM-118.0 -180.0V-728.0H-22.0V-299.0H181.0V-180.0ZM137.0 -179.0V-589.0C137.0 -596.0 135.0 -599.0 131.0 -598.0C127.0 -599.0 119.0 -599.0 109.0 -599.0C122.0 -631.0 136.0 -684.0 136.0 -717.0C168.0 -717.0 189.0 -713.0 212.0 -693.0C234.0 -671.0 237.0 -635.0 237.0 -593.0V-179.0Z"/></g>
<g fill="red" transform="translate(100 500) scale(0.1 -0.1)"><path d="M0.0 0.0V-899.0H29.0V0.0ZM-132.0 -194.0V-695.0H-103.0V-223.0H157.0V-194.0ZM139.0 -194.0V-648.0C139.0 -656.0 137.0 -658.0 129.0 -659.0C120.0 -659.0 97.0 -659.0 65.0 -658.0C71.0 -667.0 77.0 -680.0 79.0 -688.0C114.0 -688.0 137.0 -688.0 151.0 -682.0C164.0 -676.0 168.0 -666.0 168.0 -648.0V-194.0Z"/></g>
<g fill="black" opacity=".8" transform="translate(100 500) scale(0.1 -0.1)"><path d="M0.0 0.0V-904.0H29.0V0.0ZM-136.0 -195.0V-695.0H-109.0V-224.0H160.0V-195.0ZM143.0 -196.0V-648.0C143.0 -655.0 140.0 -657.0 131.0 -658.0C123.0 -658.0 98.0 -659.0 65.0 -658.0C69.0 -666.0 74.0 -679.0 77.0 -687.0C114.0 -687.0 139.0 -687.0 153.0 -681.0C167.0 -675.0 170.0 -665.0 170.0 -646.0V-196.0Z"/></g>
<g fill="red" transform="translate(200 500) scale(0.1 -0.1)"><path d="M0.0 0.0V-950.0H121.0V0.0ZM-130.0 -181.0V-741.0H-26.0V-308.0H197.0V-181.0ZM148.0 -181.0V-598.0C148.0 -606.0 146.0 -608.0 141.0 -608.0C135.0 -608.0 123.0 -608.0 110.0 -608.0C126.0 -640.0 140.0 -694.0 141.0 -728.0C175.0 -728.0 198.0 -724.0 222.0 -703.0C245.0 -682.0 249.0 -644.0 249.0 -602.0V-181.0Z"/></g>
<g fill="black" opacity=".8" transform="translate(200 500) scale(0.1 -0.1)"><path d="M0.0 0.0V-946.0H118.0V0.0ZM-125.0 -180.0V-737.0H-22.0V-304.0H195.0V-180.0ZM145.0 -180.0V-600.0C145.0 -607.0 143.0 -610.0 138.0 -609.0C133.0 -610.0 123.0 -610.0 111.0 -610.0C124.0 -642.0 138.0 -695.0 138.0 -729.0C173.0 -729.0 196.0 -725.0 220.0 -705.0C244.0 -683.0 247.0 -647.0 247.0 -603.0V-180.0Z"/></g>
<g fill="red" transform="translate(300 500) scale(0.1 -0.1)"><path d="M0.0 0.0V-899.0H29.0V0.0ZM-142.0 -194.0V-695.0H-113.0V-223.0H167.0V-194.0ZM150.0 -194.0V-648.0C150.0 -655.0 148.0 -658.0 138.0 -658.0C129.0 -659.0 103.0 -659.0 67.0 -658.0C72.0 -667.0 78.0 -680.0 80.0 -688.0C120.0 -688.0 146.0 -688.0 160.0 -682.0C175.0 -676.0 179.0 -666.0 179.0 -647.0V-194.0Z"/></g>
<g fill="black" opacity=".8" transform="translate(300 500) scale(0.1 -0.1)"><path d="M0.0 0.0V-899.0H29.0V0.0ZM-150.0 -189.0V-693.0H-116.0V-222.0H176.0V-189.0ZM158.0 -192.0V-648.0C158.0 -656.0 156.0 -659.0 146.0 -659.0C137.0 -659.0 109.0 -660.0 72.0 -659.0C76.0 -667.0 82.0 -680.0 84.0 -689.0C126.0 -689.0 153.0 -688.0 168.0 -682.0C182.0 -676.0 186.0 -666.0 186.0 -647.0V-192.0Z"/></g>
<g fill="red" transform="translate(400 500) scale(0.1 -0.1)"><path d="M0.0 0.0V-950.0H134.0V0.0ZM-141.0 -181.0V-744.0H-33.0V-308.0H221.0V-181.0ZM167.0 -181.0V-611.0C167.0 -619.0 165.0 -621.0 160.0 -621.0C154.0 -621.0 142.0 -621.0 129.0 -621.0C144.0 -655.0 156.0 -711.0 157.0 -746.0C194.0 -746.0 220.0 -743.0 246.0 -721.0C271.0 -699.0 275.0 -661.0 275.0 -615.0V-181.0Z"/></g>
<g fill="black" opacity=".8" transform="translate(400 500) scale(0.1 -0.1)"><path d="M0.0 0.0V-954.0H123.0V0.0ZM-139.0 -180.0V-747.0H-28.0V-310.0H214.0V-180.0ZM162.0 -181.0V-611.0C162.0 -619.0 160.0 -622.0 154.0 -621.0C148.0 -622.0 133.0 -622.0 118.0 -621.0C132.0 -655.0 146.0 -709.0 147.0 -744.0C185.0 -744.0 211.0 -740.0 238.0 -720.0C264.0 -698.0 268.0 -660.0 268.0 -615.0V-181.0Z"/></g>
<g fill="red" transform="translate(500 500) scale(0.1 -0.1)"><path d="M0.0 0.0V-458.0H29.0V0.0ZM-560.0 -194.0V-695.0H-531.0V-223.0H-251.0V-194.0ZM-268.0 -194.0V-648.0C-268.0 -655.0 -270.0 -658.0 -280.0 -658.0C-289.0 -659.0 -315.0 -659.0 -351.0 -658.0C-346.0 -667.0 -340.0 -680.0 -338.0 -688.0C-298.0 -688.0 -272.0 -688.0 -258.0 -682.0C-243.0 -676.0 -239.0 -666.0 -239.0 -647.0V-194.0Z"/></g>
<g fill="black" opacity=".8" transform="translate(500 500) scale(0.1 -0.1)"><path d="M0.0 0.0V-450.0H28.0V0.0ZM-570.0 -193.0V-698.0H-546.0V-218.0H-261.0V-193.0ZM-276.0 -193.0V-649.0C-276.0 -657.0 -278.0 -659.0 -287.0 -660.0C-297.0 -660.0 -322.0 -661.0 -356.0 -659.0C-352.0 -667.0 -346.0 -680.0 -343.0 -688.0C-306.0 -689.0 -280.0 -688.0 -267.0 -682.0C-252.0 -677.0 -248.0 -667.0 -248.0 -648.0V-193.0Z"/></g>
<g fill="red" transform="translate(600 500) scale(0.1 -0.1)"><path d="M0.0 0.0V-504.0H141.0V0.0ZM-582.0 -180.0V-743.0H-474.0V-307.0H-220.0V-180.0ZM-274.0 -180.0V-610.0C-274.0 -618.0 -276.0 -620.0 -281.0 -620.0C-287.0 -620.0 -299.0 -620.0 -312.0 -620.0C-297.0 -654.0 -285.0 -710.0 -284.0 -745.0C-247.0 -745.0 -221.0 -742.0 -195.0 -720.0C-170.0 -698.0 -166.0 -660.0 -166.0 -614.0V-180.0Z"/></g>
<g fill="black" opacity=".8" transform="translate(600 500) scale(0.1 -0.1)"><path d="M0.0 0.0V-502.0H146.0V0.0ZM-563.0 -184.0V-749.0H-461.0V-308.0H-216.0V-184.0ZM-264.0 -184.0V-609.0C-264.0 -617.0 -267.0 -620.0 -273.0 -618.0C-278.0 -620.0 -290.0 -620.0 -303.0 -619.0C-289.0 -653.0 -275.0 -708.0 -275.0 -743.0C-238.0 -743.0 -213.0 -739.0 -187.0 -718.0C-162.0 -696.0 -159.0 -658.0 -159.0 -614.0V-184.0Z"/></g>
<g fill="red" transform="translate(700 500) scale(0.1 -0.1)"><path d="M0.0 0.0V-899.0H29.0V0.0ZM-142.0 -194.0V-695.0H-113.0V-223.0H167.0V-194.0ZM150.0 -194.0V-648.0C150.0 -655.0 148.0 -658.0 138.0 -658.0C129.0 -659.0 103.0 -659.0 67.0 -658.0C72.0 -667.0 78.0 -680.0 80.0 -688.0C120.0 -688.0 146.0 -688.0 160.0 -682.0C175.0 -676.0 179.0 -666.0 179.0 -647.0V-194.0Z"/></g>
<g fill="black" opacity=".8" transform="translate(700 500) scale(0.1 -0.1)"><path d="M0.0 0.0V-903.0H29.0V0.0ZM-140.0 -196.0V-696.0H-115.0V-224.0H165.0V-196.0ZM148.0 -197.0V-647.0C148.0 -655.0 145.0 -658.0 136.0 -658.0C127.0 -658.0 101.0 -659.0 67.0 -658.0C72.0 -666.0 77.0 -679.0 80.0 -687.0C118.0 -688.0 143.0 -687.0 158.0 -681.0C172.0 -675.0 175.0 -665.0 175.0 -646.0V-197.0Z"/></g>
<g fill="red" transform="translate(800 500) scale(0.1 -0.1)"><path d="M0.0 0.0V-950.0H121.0V0.0ZM-130.0 -181.0V-741.0H-26.0V-308.0H197.0V-181.0ZM148.0 -181.0V-598.0C148.0 -606.0 146.0 -608.0 141.0 -608.0C135.0 -608.0 123.0 -608.0 110.0 -608.0C126.0 -640.0 140.0 -694.0 141.0 -728.0C175.0 -728.0 198.0 -724.0 222.0 -703.0C245.0 -682.0 249.0 -644.0 249.0 -602.0V-181.0Z"/></g>
<g fill="black" opacity=".8" transform="translate(800 500) scale(0.1 -0.1)"><path d="M0.0 0.0V-944.0H119.0V0.0ZM-129.0 -180.0V-738.0H-27.0V-305.0H199.0V-180.0ZM149.0 -180.0V-599.0C149.0 -606.0 147.0 -609.0 142.0 -608.0C137.0 -609.0 126.0 -609.0 113.0 -609.0C127.0 -641.0 141.0 -695.0 141.0 -729.0C177.0 -729.0 200.0 -725.0 225.0 -705.0C249.0 -683.0 252.0 -647.0 252.0 -602.0V-180.0Z"/></g>
<g fill="red" transform="translate(900 500) scale(0.1 -0.1)"><path d="M0.0 0.0V-899.0H29.0V0.0ZM-143.0 -194.0V-695.0H-113.0V-223.0H156.0V-194.0ZM140.0 -194.0V-649.0C140.0 -656.0 138.0 -658.0 130.0 -659.0C122.0 -659.0 100.0 -659.0 71.0 -658.0C76.0 -667.0 82.0 -680.0 84.0 -688.0C117.0 -688.0 139.0 -688.0 152.0 -682.0C165.0 -676.0 169.0 -666.0 169.0 -648.0V-194.0Z"/></g>
<g fill="black" opacity=".8" transform="translate(900 500) scale(0.1 -0.1)"><path d="M0.0 0.0V-907.0H29.0V0.0ZM-136.0 -201.0V-697.0H-114.0V-223.0H152.0V-201.0ZM139.0 -200.0V-647.0C139.0 -654.0 137.0 -657.0 128.0 -658.0C120.0 -658.0 96.0 -659.0 64.0 -658.0C68.0 -666.0 73.0 -678.0 76.0 -686.0C112.0 -687.0 136.0 -686.0 150.0 -680.0C163.0 -674.0 166.0 -665.0 166.0 -646.0V-200.0Z"/></g>
<g fill="red" transform="translate(1000 500) scale(0.1 -0.1)"><path d="M0.0 0.0V-950.0H113.0V0.0ZM-126.0 -181.0V-737.0H-25.0V-308.0H180.0V-181.0ZM138.0 -181.0V-590.0C138.0 -598.0 136.0 -599.0 132.0 -599.0C127.0 -599.0 118.0 -599.0 107.0 -599.0C123.0 -632.0 136.0 -685.0 137.0 -719.0C168.0 -719.0 188.0 -715.0 210.0 -694.0C232.0 -673.0 236.0 -635.0 236.0 -594.0V-181.0Z"/></g>
<g fill="black" opacity=".8" transform="translate(1000 500) scale(0.1 -0.1)"><path d="M0.0 0.0V-940.0H117.0V0.0ZM-124.0 -181.0V-731.0H-28.0V-300.0H184.0V-181.0ZM140.0 -179.0V-592.0C140.0 -599.0 138.0 -602.0 134.0 -601.0C129.0 -602.0 121.0 -602.0 110.0 -602.0C123.0 -634.0 137.0 -687.0 137.0 -720.0C170.0 -720.0 192.0 -716.0 215.0 -696.0C238.0 -675.0 241.0 -639.0 241.0 -596.0V-179.0Z"/></g>
<g fill="red" transform="translate(1100 500) scale(0.1 -0.1)"><path d="M0.0 0.0V-899.0H29.0V0.0ZM-134.0 -194.0V-695.0H-105.0V-223.0H137.0V-194.0ZM121.0 -194.0V-649.0C121.0 -656.0 119.0 -658.0 111.0 -659.0C104.0 -659.0 82.0 -659.0 54.0 -658.0C59.0 -667.0 64.0 -680.0 66.0 -688.0C100.0 -688.0 120.0 -688.0 134.0 -682.0C147.0 -676.0 151.0 -666.0 151.0 -649.0V-194.0Z"/></g>
<g fill="black" opacity=".8" transform="translate(1100 500) scale(0.1 -0.1)"><path d="M0.0 0.0V-899.0H28.0V0.0ZM-136.0 -193.0V-692.0H-107.0V-222.0H141.0V-193.0ZM129.0 -192.0V-649.0C129.0 -656.0 126.0 -659.0 118.0 -659.0C110.0 -659.0 85.0 -660.0 54.0 -659.0C58.0 -667.0 64.0 -680.0 66.0 -688.0C102.0 -688.0 125.0 -688.0 139.0 -682.0C152.0 -676.0 155.0 -667.0 155.0 -648.0V-192.0Z"/></g>
<g fill="red" transform="translate(1200 500) scale(0.1 -0.1)"><path d="M0.0 0.0V-950.0H111.0V0.0ZM-126.0 -181.0V-744.0H-26.0V-308.0H179.0V-181.0ZM140.0 -181.0V-611.0C140.0 -619.0 138.0 -621.0 133.0 -621.0C128.0 -621.0 115.0 -621.0 102.0 -621.0C116.0 -652.0 127.0 -703.0 129.0 -735.0C163.0 -735.0 188.0 -733.0 212.0 -713.0C235.0 -693.0 239.0 -658.0 239.0 -614.0V-181.0Z"/></g>
<g fill="black" opacity=".8" transform="translate(1200 500) scale(0.1 -0.1)"><path d="M0.0 0.0V-951.0H115.0V0.0ZM-126.0 -183.0V-742.0H-25.0V-306.0H178.0V-183.0ZM134.0 -181.0V-611.0C134.0 -618.0 132.0 -621.0 127.0 -620.0C123.0 -621.0 113.0 -621.0 101.0 -621.0C114.0 -652.0 127.0 -705.0 127.0 -738.0C161.0 -738.0 182.0 -734.0 206.0 -714.0C228.0 -693.0 231.0 -657.0 231.0 -615.0V-181.0Z"/></g>
<g fill="red" transform="translate(1300 500) scale(0.1 -0.1)"><path d="M0.0 0.0V-485.0H30.0V0.0ZM-259.0 -128.0V-433.0H-230.0V-157.0H284.0V-128.0ZM270.0 -128.0V-385.0C270.0 -397.0 266.0 -401.0 251.0 -402.0C237.0 -403.0 187.0 -403.0 119.0 -402.0C124.0 -410.0 130.0 -421.0 132.0 -429.0C209.0 -429.0 252.0 -430.0 273.0 -424.0C294.0 -418.0 299.0 -407.0 299.0 -385.0V-128.0Z"/></g>
<g fill="black" opacity=".8" transform="translate(1300 500) scale(0.1 -0.1)"><path d="M0.0 0.0V-501.0H29.0V0.0ZM-262.0 -127.0V-430.0H-224.0V-171.0H306.0V-127.0ZM276.0 -132.0V-382.0C276.0 -394.0 272.0 -398.0 258.0 -399.0C242.0 -400.0 194.0 -401.0 127.0 -399.0C131.0 -407.0 136.0 -417.0 138.0 -425.0C213.0 -426.0 257.0 -426.0 278.0 -419.0C299.0 -414.0 303.0 -404.0 303.0 -381.0V-132.0Z"/></g>
<g fill="red" transform="translate(1400 500) scale(0.1 -0.1)"><path d="M0.0 0.0V-473.0H143.0V0.0ZM-230.0 -91.0V-408.0H-89.0V-206.0H350.0V-91.0ZM257.0 -91.0V-280.0C257.0 -290.0 252.0 -293.0 240.0 -293.0C228.0 -293.0 183.0 -293.0 152.0 -291.0C169.0 -326.0 188.0 -378.0 194.0 -416.0C257.0 -416.0 307.0 -415.0 347.0 -396.0C389.0 -376.0 400.0 -342.0 400.0 -282.0V-91.0Z"/></g>
<g fill="black" opacity=".8" transform="translate(1400 500) scale(0.1 -0.1)"><path d="M0.0 0.0V-462.0H139.0V0.0ZM-241.0 -78.0V-414.0H-90.0V-210.0H327.0V-78.0ZM250.0 -82.0V-284.0C250.0 -293.0 245.0 -297.0 233.0 -296.0C222.0 -298.0 181.0 -298.0 152.0 -295.0C167.0 -329.0 186.0 -380.0 191.0 -417.0C252.0 -417.0 301.0 -416.0 342.0 -397.0C383.0 -377.0 392.0 -345.0 392.0 -287.0V-82.0Z"/></g>
<g fill="red" transform="translate(1500 500) scale(0.1 -0.1)"><path d="M0.0 0.0V-243.0H29.0V0.0ZM-581.0 -195.0V-696.0H-551.0V-224.0H-285.0V-195.0ZM-298.0 -195.0V-649.0C-298.0 -657.0 -300.0 -659.0 -308.0 -660.0C-317.0 -660.0 -340.0 -660.0 -372.0 -659.0C-366.0 -668.0 -360.0 -681.0 -358.0 -689.0C-323.0 -689.0 -300.0 -689.0 -287.0 -683.0C-273.0 -677.0 -269.0 -667.0 -269.0 -649.0V-195.0Z"/></g>
<g fill="black" opacity=".8" transform="translate(1500 500) scale(0.1 -0.1)"><path d="M0.0 0.0V-254.0H29.0V0.0ZM-573.0 -195.0V-693.0H-543.0V-226.0H-275.0V-195.0ZM-289.0 -195.0V-649.0C-289.0 -656.0 -292.0 -659.0 -300.0 -660.0C-310.0 -659.0 -335.0 -661.0 -369.0 -659.0C-365.0 -667.0 -359.0 -680.0 -356.0 -688.0C-318.0 -689.0 -293.0 -688.0 -279.0 -682.0C-265.0 -676.0 -261.0 -667.0 -261.0 -648.0V-195.0Z"/></g>
<g fill="red" transform="translate(1600 500) scale(0.1 -0.1)"><path d="M0.0 0.0V-293.0H141.0V0.0ZM-561.0 -178.0V-738.0H-458.0V-305.0H-236.0V-178.0ZM-285.0 -178.0V-595.0C-285.0 -603.0 -287.0 -605.0 -292.0 -605.0C-298.0 -605.0 -309.0 -605.0 -322.0 -605.0C-305.0 -638.0 -291.0 -694.0 -290.0 -730.0C-255.0 -730.0 -232.0 -726.0 -208.0 -704.0C-184.0 -682.0 -180.0 -643.0 -180.0 -600.0V-178.0Z"/></g>
<g fill="black" opacity=".8" transform="translate(1600 500) scale(0.1 -0.1)"><path d="M0.0 0.0V-289.0H135.0V0.0ZM-575.0 -176.0V-732.0H-468.0V-301.0H-238.0V-176.0ZM-292.0 -175.0V-598.0C-292.0 -605.0 -295.0 -609.0 -301.0 -607.0C-306.0 -609.0 -316.0 -609.0 -329.0 -608.0C-315.0 -641.0 -300.0 -695.0 -299.0 -729.0C-263.0 -729.0 -240.0 -726.0 -214.0 -704.0C-189.0 -683.0 -186.0 -646.0 -186.0 -603.0V-175.0Z"/></g>
<g fill="red" transform="translate(100 600) scale(0.1 -0.1)"><path d="M0.0 0.0V-899.0H29.0V0.0ZM-134.0 -194.0V-695.0H-105.0V-223.0H155.0V-194.0ZM137.0 -194.0V-648.0C137.0 -656.0 135.0 -658.0 127.0 -659.0C118.0 -659.0 95.0 -659.0 64.0 -658.0C69.0 -667.0 75.0 -680.0 77.0 -688.0C113.0 -688.0 135.0 -688.0 149.0 -682.0C163.0 -676.0 166.0 -666.0 166.0 -648.0V-194.0Z"/></g>
<g fill="black" opacity=".8" transform="translate(100 600) scale(0.1 -0.1)"><path d="M0.0 0.0V-904.0H29.0V0.0ZM-135.0 -195.0V-695.0H-108.0V-225.0H161.0V-195.0ZM141.0 -196.0V-648.0C141.0 -655.0 139.0 -658.0 130.0 -658.0C121.0 -658.0 96.0 -659.0 63.0 -658.0C68.0 -666.0 73.0 -679.0 75.0 -687.0C113.0 -687.0 138.0 -687.0 152.0 -681.0C165.0 -675.0 169.0 -665.0 169.0 -646.0V-196.0Z"/></g>
<g fill="red" transform="translate(200 600) scale(0.1 -0.1)"><path d="M0.0 0.0V-950.0H124.0V0.0ZM-124.0 -181.0V-741.0H-22.0V-308.0H200.0V-181.0ZM147.0 -181.0V-598.0C147.0 -606.0 145.0 -608.0 140.0 -608.0C134.0 -608.0 122.0 -608.0 109.0 -608.0C125.0 -640.0 139.0 -694.0 140.0 -728.0C174.0 -728.0 197.0 -724.0 221.0 -703.0C244.0 -682.0 248.0 -644.0 248.0 -602.0V-181.0Z"/></g>
<g fill="black" opacity=".8" transform="translate(200 600) scale(0.1 -0.1)"><path d="M0.0 0.0V-946.0H118.0V0.0ZM-124.0 -179.0V-737.0H-21.0V-305.0H196.0V-179.0ZM144.0 -179.0V-600.0C144.0 -607.0 142.0 -610.0 136.0 -609.0C132.0 -610.0 122.0 -610.0 110.0 -609.0C123.0 -642.0 137.0 -695.0 137.0 -729.0C172.0 -729.0 194.0 -725.0 219.0 -705.0C242.0 -683.0 245.0 -647.0 245.0 -603.0V-179.0Z"/></g>
<g fill="red" transform="translate(300 600) scale(0.1 -0.1)"><path d="M0.0 0.0V-899.0H29.0V0.0ZM-131.0 -194.0V-695.0H-102.0V-223.0H137.0V-194.0ZM128.0 -194.0V-649.0C128.0 -656.0 126.0 -658.0 120.0 -659.0C113.0 -659.0 93.0 -659.0 68.0 -658.0C73.0 -667.0 78.0 -680.0 80.0 -688.0C110.0 -688.0 129.0 -688.0 142.0 -682.0C154.0 -676.0 158.0 -666.0 158.0 -648.0V-194.0Z"/></g>
<g fill="black" opacity=".8" transform="translate(300 600) scale(0.1 -0.1)"><path d="M0.0 0.0V-898.0H28.0V0.0ZM-124.0 -195.0V-697.0H-99.0V-223.0H147.0V-195.0ZM126.0 -195.0V-649.0C126.0 -656.0 123.0 -658.0 115.0 -659.0C107.0 -659.0 84.0 -660.0 55.0 -659.0C59.0 -666.0 64.0 -679.0 67.0 -687.0C101.0 -687.0 123.0 -687.0 136.0 -681.0C149.0 -675.0 152.0 -666.0 152.0 -648.0V-195.0Z"/></g>
<g fill="red" transform="translate(400 600) scale(0.1 -0.1)"><path d="M0.0 0.0V-950.0H107.0V0.0ZM-108.0 -181.0V-735.0H-19.0V-303.0H198.0V-181.0ZM124.0 -181.0V-606.0C124.0 -615.0 122.0 -616.0 117.0 -616.0C112.0 -617.0 101.0 -617.0 87.0 -616.0C103.0 -648.0 115.0 -701.0 117.0 -734.0C150.0 -734.0 172.0 -730.0 194.0 -709.0C217.0 -689.0 221.0 -652.0 221.0 -611.0V-181.0Z"/></g>
<g fill="black" opacity=".8" transform="translate(400 600) scale(0.1 -0.1)"><path d="M0.0 0.0V-945.0H113.0V0.0ZM-114.0 -182.0V-742.0H-18.0V-304.0H182.0V-182.0ZM130.0 -182.0V-607.0C130.0 -613.0 128.0 -617.0 123.0 -615.0C119.0 -617.0 111.0 -617.0 101.0 -616.0C114.0 -648.0 127.0 -700.0 127.0 -732.0C158.0 -732.0 179.0 -728.0 201.0 -708.0C223.0 -687.0 226.0 -652.0 226.0 -610.0V-182.0Z"/></g>
<g fill="red" transform="translate(500 600) scale(0.1 -0.1)"><path d="M0.0 0.0V-899.0H29.0V0.0ZM-131.0 -194.0V-695.0H-102.0V-223.0H140.0V-194.0ZM127.0 -194.0V-648.0C127.0 -656.0 125.0 -658.0 118.0 -659.0C109.0 -659.0 85.0 -659.0 54.0 -658.0C60.0 -667.0 66.0 -680.0 68.0 -688.0C103.0 -688.0 125.0 -688.0 139.0 -682.0C153.0 -676.0 157.0 -666.0 157.0 -648.0V-194.0Z"/></g>
<g fill="black" opacity=".8" transform="translate(500 600) scale(0.1 -0.1)"><path d="M0.0 0.0V-900.0H28.0V0.0ZM-129.0 -194.0V-691.0H-100.0V-220.0H135.0V-194.0ZM126.0 -194.0V-650.0C126.0 -656.0 123.0 -659.0 115.0 -659.0C107.0 -659.0 84.0 -660.0 55.0 -659.0C59.0 -667.0 64.0 -679.0 66.0 -688.0C100.0 -688.0 123.0 -687.0 136.0 -681.0C149.0 -676.0 152.0 -667.0 152.0 -648.0V-194.0Z"/></g>
<g fill="red" transform="translate(600 600) scale(0.1 -0.1)"><path d="M0.0 0.0V-950.0H105.0V0.0ZM-115.0 -181.0V-727.0H-19.0V-294.0H168.0V-181.0ZM129.0 -181.0V-607.0C129.0 -615.0 127.0 -616.0 122.0 -616.0C116.0 -617.0 105.0 -617.0 91.0 -616.0C106.0 -648.0 120.0 -700.0 122.0 -732.0C155.0 -732.0 177.0 -728.0 200.0 -708.0C223.0 -688.0 227.0 -651.0 227.0 -611.0V-181.0Z"/></g>
<g fill="black" opacity=".8" transform="translate(600 600) scale(0.1 -0.1)"><path d="M0.0 0.0V-946.0H113.0V0.0ZM-119.0 -181.0V-736.0H-19.0V-301.0H170.0V-181.0ZM130.0 -180.0V-606.0C130.0 -613.0 128.0 -616.0 124.0 -614.0C120.0 -616.0 112.0 -616.0 101.0 -615.0C114.0 -647.0 127.0 -699.0 127.0 -731.0C159.0 -731.0 179.0 -727.0 202.0 -707.0C223.0 -686.0 226.0 -651.0 226.0 -609.0V-180.0Z"/></g>
<g fill="red" transform="translate(700 600) scale(0.1 -0.1)"><path d="M0.0 0.0V-899.0H29.0V0.0ZM-130.0 -194.0V-695.0H-103.0V-223.0H145.0V-194.0ZM128.0 -194.0V-647.0C128.0 -655.0 126.0 -658.0 117.0 -658.0C110.0 -659.0 85.0 -659.0 53.0 -658.0C58.0 -667.0 63.0 -680.0 65.0 -689.0C102.0 -689.0 125.0 -689.0 138.0 -683.0C152.0 -676.0 157.0 -666.0 157.0 -647.0V-194.0Z"/></g>
<g fill="black" opacity=".8" transform="translate(700 600) scale(0.1 -0.1)"><path d="M0.0 0.0V-898.0H28.0V0.0ZM-131.0 -193.0V-694.0H-104.0V-221.0H148.0V-193.0ZM131.0 -191.0V-650.0C131.0 -656.0 129.0 -659.0 120.0 -659.0C112.0 -659.0 88.0 -660.0 57.0 -660.0C61.0 -667.0 66.0 -680.0 69.0 -688.0C104.0 -688.0 128.0 -688.0 141.0 -682.0C154.0 -676.0 158.0 -667.0 158.0 -648.0V-191.0Z"/></g>
<g fill="red" transform="translate(800 600) scale(0.1 -0.1)"><path d="M0.0 0.0V-950.0H113.0V0.0ZM-119.0 -181.0V-744.0H-28.0V-308.0H187.0V-181.0ZM142.0 -181.0V-611.0C142.0 -619.0 140.0 -621.0 136.0 -621.0C131.0 -621.0 120.0 -621.0 109.0 -621.0C122.0 -655.0 132.0 -711.0 133.0 -746.0C164.0 -746.0 186.0 -743.0 208.0 -721.0C230.0 -699.0 233.0 -661.0 233.0 -615.0V-181.0Z"/></g>
<g fill="black" opacity=".8" transform="translate(800 600) scale(0.1 -0.1)"><path d="M0.0 0.0V-952.0H115.0V0.0ZM-122.0 -184.0V-747.0H-24.0V-307.0H185.0V-184.0ZM137.0 -181.0V-614.0C137.0 -621.0 135.0 -624.0 130.0 -623.0C125.0 -624.0 115.0 -624.0 103.0 -624.0C116.0 -655.0 130.0 -708.0 130.0 -740.0C163.0 -740.0 184.0 -737.0 208.0 -716.0C230.0 -695.0 233.0 -659.0 233.0 -617.0V-181.0Z"/></g>
<g fill="red" transform="translate(900 600) scale(0.1 -0.1)"><path d="M0.0 0.0V-899.0H29.0V0.0ZM-142.0 -194.0V-695.0H-113.0V-223.0H156.0V-194.0ZM141.0 -194.0V-648.0C141.0 -656.0 139.0 -658.0 130.0 -658.0C122.0 -659.0 98.0 -659.0 66.0 -658.0C71.0 -667.0 77.0 -680.0 79.0 -688.0C115.0 -688.0 139.0 -688.0 153.0 -682.0C166.0 -676.0 170.0 -666.0 170.0 -648.0V-194.0Z"/></g>
<g fill="black" opacity=".8" transform="translate(900 600) scale(0.1 -0.1)"><path d="M0.0 0.0V-904.0H29.0V0.0ZM-141.0 -196.0V-695.0H-114.0V-223.0H160.0V-196.0ZM144.0 -196.0V-648.0C144.0 -655.0 141.0 -658.0 132.0 -658.0C124.0 -658.0 98.0 -659.0 64.0 -658.0C69.0 -666.0 74.0 -679.0 77.0 -687.0C115.0 -687.0 140.0 -687.0 154.0 -681.0C168.0 -675.0 171.0 -665.0 171.0 -646.0V-196.0Z"/></g>
<g fill="red" transform="translate(1000 600) scale(0.1 -0.1)"><path d="M0.0 0.0V-950.0H121.0V0.0ZM-130.0 -181.0V-741.0H-26.0V-308.0H197.0V-181.0ZM148.0 -181.0V-598.0C148.0 -606.0 146.0 -608.0 141.0 -608.0C135.0 -608.0 123.0 -608.0 110.0 -608.0C126.0 -640.0 140.0 -694.0 141.0 -728.0C175.0 -728.0 198.0 -724.0 222.0 -703.0C245.0 -682.0 249.0 -644.0 249.0 -602.0V-181.0Z"/></g>
<g fill="black" opacity=".8" transform="translate(1000 600) scale(0.1 -0.1)"><path d="M0.0 0.0V-945.0H119.0V0.0ZM-130.0 -180.0V-737.0H-27.0V-305.0H195.0V-180.0ZM146.0 -180.0V-599.0C146.0 -606.0 144.0 -610.0 139.0 -608.0C134.0 -610.0 123.0 -610.0 111.0 -609.0C124.0 -642.0 138.0 -695.0 139.0 -729.0C173.0 -729.0 197.0 -725.0 221.0 -705.0C245.0 -683.0 248.0 -647.0 248.0 -603.0V-180.0Z"/></g>
<g fill="red" transform="translate(1100 600) scale(0.1 -0.1)"><path d="M0.0 0.0V-899.0H29.0V0.0ZM270.0 -27.0V-466.0H713.0V-437.0H300.0V-27.0ZM139.0 -194.0V-648.0C139.0 -656.0 137.0 -658.0 129.0 -659.0C120.0 -659.0 97.0 -659.0 65.0 -658.0C71.0 -667.0 77.0 -680.0 79.0 -688.0C114.0 -688.0 137.0 -688.0 151.0 -682.0C164.0 -676.0 168.0 -666.0 168.0 -648.0V-194.0Z"/></g>
<g fill="black" opacity=".8" transform="translate(1100 600) scale(0.1 -0.1)"><path d="M0.0 0.0V-899.0H31.0V0.0ZM271.0 -29.0V-468.0H711.0V-434.0H296.0V-29.0ZM139.0 -196.0V-647.0C139.0 -655.0 137.0 -657.0 128.0 -658.0C120.0 -657.0 94.0 -659.0 61.0 -657.0C66.0 -666.0 72.0 -680.0 75.0 -688.0C113.0 -688.0 137.0 -689.0 152.0 -681.0C164.0 -675.0 169.0 -665.0 169.0 -647.0V-196.0Z"/></g>
<g fill="red" transform="translate(1200 600) scale(0.1 -0.1)"><path d="M0.0 0.0V-950.0H121.0V0.0ZM305.0 -27.0V-518.0H790.0V-407.0H427.0V-27.0ZM148.0 -181.0V-598.0C148.0 -606.0 146.0 -608.0 141.0 -608.0C135.0 -608.0 123.0 -608.0 110.0 -608.0C126.0 -640.0 140.0 -694.0 141.0 -728.0C175.0 -728.0 198.0 -724.0 222.0 -703.0C245.0 -682.0 249.0 -644.0 249.0 -602.0V-181.0Z"/></g>
<g fill="black" opacity=".8" transform="translate(1200 600) scale(0.1 -0.1)"><path d="M0.0 0.0V-948.0H124.0V0.0ZM307.0 -29.0V-520.0H792.0V-406.0H427.0V-29.0ZM148.0 -180.0V-598.0C148.0 -604.0 145.0 -608.0 139.0 -606.0C134.0 -608.0 124.0 -608.0 112.0 -608.0C126.0 -641.0 141.0 -694.0 141.0 -729.0C176.0 -729.0 199.0 -725.0 225.0 -704.0C249.0 -682.0 251.0 -644.0 251.0 -601.0V-180.0Z"/></g>
<g fill="red" transform="translate(1300 600) scale(0.1 -0.1)"><path d="M0.0 0.0V-485.0H30.0V0.0ZM-186.0 -112.0V-407.0H-157.0V-141.0H213.0V-112.0ZM196.0 -112.0V-362.0C196.0 -371.0 194.0 -373.0 185.0 -374.0C175.0 -375.0 146.0 -375.0 108.0 -374.0C113.0 -381.0 119.0 -393.0 120.0 -401.0C164.0 -401.0 191.0 -401.0 207.0 -395.0C222.0 -389.0 226.0 -381.0 226.0 -362.0V-112.0Z"/></g>
<g fill="black" opacity=".8" transform="translate(1300 600) scale(0.1 -0.1)"><path d="M0.0 0.0V-493.0H24.0V0.0ZM-185.0 -110.0V-405.0H-156.0V-143.0H227.0V-110.0ZM206.0 -116.0V-365.0C206.0 -374.0 203.0 -377.0 192.0 -377.0C181.0 -378.0 146.0 -379.0 98.0 -378.0C101.0 -384.0 105.0 -393.0 107.0 -400.0C161.0 -401.0 193.0 -400.0 209.0 -395.0C225.0 -390.0 228.0 -383.0 228.0 -364.0V-116.0Z"/></g>
<g fill="red" transform="translate(1400 600) scale(0.1 -0.1)"><path d="M0.0 0.0V-482.0H129.0V0.0ZM-173.0 -80.0V-417.0H-47.0V-195.0H249.0V-80.0ZM178.0 -80.0V-290.0C178.0 -298.0 176.0 -299.0 169.0 -299.0C162.0 -299.0 145.0 -299.0 130.0 -299.0C145.0 -330.0 161.0 -376.0 166.0 -411.0C207.0 -411.0 241.0 -409.0 270.0 -391.0C300.0 -371.0 306.0 -341.0 306.0 -292.0V-80.0Z"/></g>
<g fill="black" opacity=".8" transform="translate(1400 600) scale(0.1 -0.1)"><path d="M0.0 0.0V-477.0H110.0V0.0ZM-171.0 -76.0V-404.0H-56.0V-182.0H247.0V-76.0ZM190.0 -81.0V-295.0C190.0 -302.0 186.0 -306.0 177.0 -304.0C170.0 -306.0 143.0 -306.0 123.0 -304.0C134.0 -332.0 149.0 -375.0 152.0 -404.0C198.0 -404.0 232.0 -402.0 262.0 -387.0C292.0 -369.0 298.0 -342.0 298.0 -298.0V-81.0Z"/></g>
<g fill="red" transform="translate(1500 600) scale(0.1 -0.1)"><path d="M0.0 0.0V-182.0H29.0V0.0ZM-38.0 -303.0V-584.0H-9.0V-333.0H624.0V-303.0ZM611.0 -303.0V-534.0C611.0 -547.0 607.0 -551.0 589.0 -552.0C571.0 -553.0 514.0 -553.0 434.0 -552.0C439.0 -561.0 444.0 -571.0 446.0 -579.0C538.0 -579.0 588.0 -580.0 612.0 -574.0C634.0 -568.0 640.0 -556.0 640.0 -534.0V-303.0Z"/></g>
<g fill="black" opacity=".8" transform="translate(1500 600) scale(0.1 -0.1)"><path d="M0.0 0.0V-184.0H27.0V0.0ZM-43.0 -302.0V-582.0H-15.0V-331.0H625.0V-302.0ZM611.0 -302.0V-535.0C611.0 -548.0 608.0 -552.0 590.0 -554.0C572.0 -554.0 514.0 -555.0 435.0 -554.0C440.0 -562.0 444.0 -571.0 446.0 -579.0C537.0 -579.0 588.0 -580.0 611.0 -573.0C632.0 -568.0 638.0 -557.0 638.0 -535.0V-302.0Z"/></g>
<g fill="red" transform="translate(1600 600) scale(0.1 -0.1)"><path d="M0.0 0.0V-198.0H79.0V0.0ZM-72.0 -282.0V-621.0H69.0V-402.0H599.0V-282.0ZM530.0 -282.0V-490.0C530.0 -502.0 524.0 -505.0 509.0 -506.0C495.0 -506.0 435.0 -506.0 395.0 -504.0C413.0 -536.0 434.0 -587.0 442.0 -623.0C513.0 -623.0 569.0 -623.0 614.0 -604.0C659.0 -586.0 673.0 -553.0 673.0 -492.0V-282.0Z"/></g>
<g fill="black" opacity=".8" transform="translate(1600 600) scale(0.1 -0.1)"><path d="M0.0 0.0V-195.0H77.0V0.0ZM-68.0 -283.0V-618.0H73.0V-400.0H602.0V-283.0ZM530.0 -284.0V-492.0C530.0 -504.0 524.0 -508.0 509.0 -508.0C495.0 -509.0 436.0 -509.0 396.0 -506.0C412.0 -537.0 434.0 -586.0 442.0 -620.0C513.0 -620.0 569.0 -620.0 613.0 -602.0C659.0 -585.0 671.0 -555.0 671.0 -495.0V-284.0Z"/></g>
<g fill="red" transform="translate(100 700) scale(0.1 -0.1)"><path d="M0.0 0.0V-657.0H29.0V0.0ZM-214.0 -141.0V-511.0H-184.0V-170.0H236.0V-141.0ZM225.0 -141.0V-459.0C225.0 -470.0 222.0 -474.0 210.0 -474.0C197.0 -475.0 159.0 -475.0 103.0 -474.0C109.0 -484.0 114.0 -495.0 115.0 -504.0C175.0 -504.0 212.0 -505.0 231.0 -498.0C250.0 -492.0 255.0 -481.0 255.0 -459.0V-141.0Z"/></g>
<g fill="black" opacity=".8" transform="translate(100 700) scale(0.1 -0.1)"><path d="M0.0 0.0V-658.0H29.0V0.0ZM-217.0 -134.0V-509.0H-185.0V-164.0H238.0V-134.0ZM229.0 -136.0V-464.0C229.0 -474.0 226.0 -477.0 213.0 -478.0C200.0 -479.0 162.0 -480.0 108.0 -478.0C113.0 -486.0 117.0 -497.0 120.0 -506.0C180.0 -506.0 216.0 -506.0 234.0 -500.0C252.0 -494.0 256.0 -484.0 256.0 -463.0V-136.0Z"/></g>
<g fill="red" transform="translate(200 700) scale(0.1 -0.1)"><path d="M0.0 0.0V-635.0H140.0V0.0ZM-197.0 -84.0V-516.0H-63.0V-213.0H251.0V-84.0ZM212.0 -84.0V-370.0C212.0 -379.0 209.0 -381.0 201.0 -381.0C193.0 -381.0 169.0 -381.0 149.0 -380.0C165.0 -417.0 180.0 -472.0 183.0 -511.0C233.0 -511.0 273.0 -510.0 307.0 -488.0C341.0 -466.0 348.0 -430.0 348.0 -373.0V-84.0Z"/></g>
<g fill="black" opacity=".8" transform="translate(200 700) scale(0.1 -0.1)"><path d="M0.0 0.0V-636.0H132.0V0.0ZM-198.0 -89.0V-504.0H-66.0V-211.0H262.0V-89.0ZM213.0 -90.0V-373.0C213.0 -382.0 209.0 -385.0 200.0 -384.0C192.0 -385.0 165.0 -385.0 143.0 -384.0C157.0 -417.0 174.0 -469.0 177.0 -504.0C228.0 -504.0 266.0 -502.0 300.0 -483.0C334.0 -462.0 341.0 -429.0 341.0 -376.0V-90.0Z"/></g>
<g fill="red" transform="translate(300 700) scale(0.1 -0.1)"><path d="M0.0 0.0V-657.0H29.0V0.0ZM-214.0 -141.0V-511.0H-185.0V-170.0H236.0V-141.0ZM225.0 -141.0V-459.0C225.0 -470.0 222.0 -474.0 209.0 -474.0C197.0 -475.0 158.0 -475.0 102.0 -474.0C108.0 -484.0 113.0 -495.0 115.0 -504.0C175.0 -504.0 211.0 -505.0 231.0 -498.0C249.0 -492.0 254.0 -481.0 254.0 -459.0V-141.0Z"/></g>
<g fill="black" opacity=".8" transform="translate(300 700) scale(0.1 -0.1)"><path d="M0.0 0.0V-653.0H29.0V0.0ZM-211.0 -132.0V-513.0H-179.0V-166.0H238.0V-132.0ZM216.0 -136.0V-464.0C216.0 -474.0 213.0 -478.0 201.0 -478.0C189.0 -479.0 151.0 -480.0 99.0 -479.0C103.0 -487.0 108.0 -498.0 111.0 -506.0C169.0 -506.0 204.0 -506.0 223.0 -500.0C240.0 -494.0 244.0 -485.0 244.0 -463.0V-136.0Z"/></g>
<g fill="red" transform="translate(400 700) scale(0.1 -0.1)"><path d="M0.0 0.0V-635.0H131.0V0.0ZM-187.0 -83.0V-512.0H-53.0V-209.0H261.0V-83.0ZM188.0 -83.0V-373.0C188.0 -382.0 185.0 -384.0 177.0 -385.0C169.0 -385.0 145.0 -385.0 125.0 -384.0C141.0 -420.0 156.0 -476.0 159.0 -515.0C210.0 -515.0 249.0 -514.0 283.0 -492.0C318.0 -470.0 325.0 -433.0 325.0 -376.0V-83.0Z"/></g>
<g fill="black" opacity=".8" transform="translate(400 700) scale(0.1 -0.1)"><path d="M0.0 0.0V-633.0H132.0V0.0ZM-192.0 -87.0V-509.0H-62.0V-213.0H264.0V-87.0ZM201.0 -91.0V-375.0C201.0 -383.0 198.0 -387.0 188.0 -386.0C181.0 -387.0 155.0 -387.0 134.0 -386.0C148.0 -419.0 165.0 -471.0 168.0 -506.0C217.0 -506.0 254.0 -504.0 288.0 -485.0C321.0 -463.0 327.0 -430.0 327.0 -378.0V-91.0Z"/></g>
<g fill="red" transform="translate(500 700) scale(0.1 -0.1)"><path d="M0.0 0.0V-490.0H29.0V0.0ZM-165.0 -86.0V-405.0H-135.0V-115.0H189.0V-86.0ZM173.0 -86.0V-352.0C173.0 -361.0 170.0 -364.0 160.0 -364.0C149.0 -365.0 116.0 -365.0 74.0 -364.0C78.0 -372.0 83.0 -383.0 85.0 -389.0C137.0 -389.0 167.0 -389.0 182.0 -385.0C198.0 -380.0 202.0 -370.0 202.0 -352.0V-86.0Z"/></g>
<g fill="black" opacity=".8" transform="translate(500 700) scale(0.1 -0.1)"><path d="M0.0 0.0V-498.0H24.0V0.0ZM-169.0 -86.0V-392.0H-139.0V-116.0H189.0V-86.0ZM179.0 -88.0V-357.0C179.0 -364.0 176.0 -368.0 166.0 -368.0C156.0 -368.0 125.0 -369.0 83.0 -368.0C86.0 -375.0 90.0 -384.0 92.0 -391.0C140.0 -391.0 169.0 -391.0 184.0 -386.0C198.0 -381.0 201.0 -373.0 201.0 -355.0V-88.0Z"/></g>
<g fill="red" transform="translate(600 700) scale(0.1 -0.1)"><path d="M0.0 0.0V-473.0H121.0V0.0ZM-154.0 -43.0V-389.0H-39.0V-156.0H191.0V-43.0ZM161.0 -43.0V-270.0C161.0 -278.0 159.0 -280.0 153.0 -280.0C147.0 -280.0 133.0 -280.0 119.0 -279.0C133.0 -308.0 148.0 -352.0 152.0 -384.0C189.0 -384.0 219.0 -382.0 245.0 -365.0C272.0 -347.0 278.0 -318.0 278.0 -272.0V-43.0Z"/></g>
<g fill="black" opacity=".8" transform="translate(600 700) scale(0.1 -0.1)"><path d="M0.0 0.0V-469.0H107.0V0.0ZM-153.0 -42.0V-379.0H-43.0V-144.0H209.0V-42.0ZM164.0 -42.0V-274.0C164.0 -281.0 161.0 -284.0 153.0 -283.0C148.0 -284.0 128.0 -284.0 111.0 -283.0C122.0 -310.0 136.0 -352.0 139.0 -380.0C179.0 -380.0 208.0 -378.0 236.0 -363.0C263.0 -346.0 268.0 -319.0 268.0 -277.0V-42.0Z"/></g>
<g fill="red" transform="translate(700 700) scale(0.1 -0.1)"><path d="M0.0 0.0V-904.0H29.0V0.0ZM-244.0 -343.0V-772.0H-215.0V-372.0H267.0V-343.0ZM253.0 -343.0V-720.0C253.0 -732.0 250.0 -735.0 236.0 -736.0C222.0 -737.0 179.0 -737.0 122.0 -736.0C127.0 -745.0 133.0 -756.0 135.0 -764.0C200.0 -764.0 238.0 -764.0 258.0 -758.0C277.0 -752.0 282.0 -742.0 282.0 -719.0V-343.0Z"/></g>
<g fill="black" opacity=".8" transform="translate(700 700) scale(0.1 -0.1)"><path d="M0.0 0.0V-906.0H29.0V0.0ZM-242.0 -342.0V-771.0H-206.0V-376.0H266.0V-342.0ZM254.0 -345.0V-722.0C254.0 -733.0 251.0 -736.0 236.0 -739.0C223.0 -739.0 180.0 -739.0 120.0 -738.0C125.0 -746.0 130.0 -758.0 133.0 -766.0C197.0 -766.0 238.0 -766.0 258.0 -760.0C277.0 -755.0 281.0 -745.0 281.0 -721.0V-345.0Z"/></g>
<g fill="red" transform="translate(800 700) scale(0.1 -0.1)"><path d="M0.0 0.0V-950.0H150.0V0.0ZM-220.0 -349.0V-820.0H-77.0V-489.0H282.0V-349.0ZM232.0 -349.0V-668.0C232.0 -678.0 229.0 -681.0 219.0 -681.0C209.0 -681.0 178.0 -681.0 155.0 -680.0C172.0 -719.0 188.0 -779.0 192.0 -821.0C249.0 -821.0 294.0 -819.0 331.0 -796.0C370.0 -773.0 378.0 -734.0 378.0 -672.0V-349.0Z"/></g>
<g fill="black" opacity=".8" transform="translate(800 700) scale(0.1 -0.1)"><path d="M0.0 0.0V-948.0H137.0V0.0ZM-226.0 -347.0V-816.0H-90.0V-483.0H292.0V-347.0ZM241.0 -348.0V-670.0C241.0 -680.0 237.0 -683.0 226.0 -682.0C216.0 -683.0 178.0 -683.0 152.0 -682.0C167.0 -719.0 186.0 -778.0 188.0 -817.0C246.0 -817.0 289.0 -814.0 327.0 -793.0C364.0 -770.0 373.0 -731.0 373.0 -674.0V-348.0Z"/></g>
<g fill="red" transform="translate(900 700) scale(0.1 -0.1)"><path d="M0.0 0.0V-834.0H29.0V0.0ZM-222.0 -179.0V-693.0H-193.0V-208.0H238.0V-179.0ZM223.0 -179.0V-637.0C223.0 -648.0 221.0 -652.0 208.0 -652.0C196.0 -653.0 158.0 -653.0 108.0 -652.0C113.0 -661.0 119.0 -673.0 121.0 -681.0C178.0 -681.0 212.0 -681.0 229.0 -675.0C248.0 -670.0 253.0 -659.0 253.0 -637.0V-179.0Z"/></g>
<g fill="black" opacity=".8" transform="translate(900 700) scale(0.1 -0.1)"><path d="M0.0 0.0V-826.0H34.0V0.0ZM-220.0 -182.0V-691.0H-191.0V-207.0H230.0V-182.0ZM225.0 -181.0V-636.0C225.0 -646.0 222.0 -650.0 209.0 -650.0C196.0 -651.0 158.0 -652.0 106.0 -651.0C111.0 -660.0 117.0 -674.0 120.0 -684.0C179.0 -684.0 215.0 -684.0 234.0 -676.0C252.0 -670.0 257.0 -658.0 257.0 -635.0V-181.0Z"/></g>
<g fill="red" transform="translate(1000 700) scale(0.1 -0.1)"><path d="M0.0 0.0V-842.0H136.0V0.0ZM-210.0 -152.0V-710.0H-79.0V-281.0H263.0V-152.0ZM215.0 -152.0V-575.0C215.0 -585.0 212.0 -588.0 203.0 -588.0C195.0 -588.0 170.0 -588.0 149.0 -587.0C165.0 -620.0 182.0 -674.0 186.0 -711.0C236.0 -711.0 275.0 -709.0 308.0 -688.0C341.0 -667.0 349.0 -633.0 349.0 -578.0V-152.0Z"/></g>
<g fill="black" opacity=".8" transform="translate(1000 700) scale(0.1 -0.1)"><path d="M0.0 0.0V-849.0H141.0V0.0ZM-209.0 -151.0V-723.0H-78.0V-286.0H262.0V-151.0ZM214.0 -149.0V-568.0C214.0 -577.0 211.0 -582.0 202.0 -580.0C194.0 -582.0 169.0 -582.0 148.0 -580.0C165.0 -618.0 182.0 -679.0 185.0 -719.0C236.0 -719.0 272.0 -715.0 307.0 -692.0C341.0 -668.0 347.0 -628.0 347.0 -572.0V-149.0Z"/></g>
<g fill="red" transform="translate(1100 700) scale(0.1 -0.1)"><path d="M0.0 0.0V-750.0H29.0V0.0ZM-236.0 -173.0V-626.0H-207.0V-202.0H259.0V-173.0ZM245.0 -173.0V-580.0C245.0 -591.0 242.0 -594.0 229.0 -595.0C214.0 -596.0 173.0 -596.0 116.0 -595.0C121.0 -605.0 126.0 -617.0 128.0 -626.0C190.0 -626.0 229.0 -626.0 250.0 -620.0C269.0 -614.0 274.0 -602.0 274.0 -579.0V-173.0Z"/></g>
<g fill="black" opacity=".8" transform="translate(1100 700) scale(0.1 -0.1)"><path d="M0.0 0.0V-733.0H33.0V0.0ZM-236.0 -186.0V-630.0H-207.0V-212.0H251.0V-186.0ZM247.0 -181.0V-575.0C247.0 -586.0 244.0 -590.0 230.0 -592.0C217.0 -592.0 175.0 -593.0 118.0 -592.0C123.0 -601.0 129.0 -614.0 132.0 -623.0C195.0 -624.0 235.0 -624.0 255.0 -616.0C275.0 -610.0 279.0 -599.0 279.0 -574.0V-181.0Z"/></g>
<g fill="red" transform="translate(1200 700) scale(0.1 -0.1)"><path d="M0.0 0.0V-675.0H132.0V0.0ZM-213.0 -133.0V-592.0H-85.0V-257.0H281.0V-133.0ZM234.0 -133.0V-461.0C234.0 -471.0 230.0 -473.0 220.0 -473.0C210.0 -474.0 177.0 -474.0 151.0 -472.0C167.0 -506.0 183.0 -559.0 188.0 -595.0C243.0 -595.0 285.0 -594.0 320.0 -573.0C356.0 -553.0 364.0 -519.0 364.0 -464.0V-133.0Z"/></g>
<g fill="black" opacity=".8" transform="translate(1200 700) scale(0.1 -0.1)"><path d="M0.0 0.0V-692.0H144.0V0.0ZM-217.0 -126.0V-609.0H-77.0V-260.0H271.0V-126.0ZM221.0 -119.0V-454.0C221.0 -464.0 218.0 -468.0 208.0 -467.0C200.0 -468.0 175.0 -468.0 154.0 -467.0C170.0 -505.0 189.0 -564.0 192.0 -604.0C246.0 -604.0 286.0 -602.0 322.0 -580.0C359.0 -556.0 366.0 -517.0 366.0 -458.0V-119.0Z"/></g>
<g fill="red" transform="translate(1300 700) scale(0.1 -0.1)"><path d="M0.0 0.0V-490.0H30.0V0.0ZM-175.0 -91.0V-413.0H-146.0V-120.0H203.0V-91.0ZM190.0 -91.0V-361.0C190.0 -370.0 187.0 -373.0 177.0 -374.0C166.0 -374.0 133.0 -374.0 91.0 -373.0C95.0 -381.0 100.0 -391.0 102.0 -399.0C154.0 -399.0 184.0 -399.0 199.0 -393.0C215.0 -388.0 219.0 -380.0 219.0 -361.0V-91.0Z"/></g>
<g fill="black" opacity=".8" transform="translate(1300 700) scale(0.1 -0.1)"><path d="M0.0 0.0V-499.0H24.0V0.0ZM-177.0 -91.0V-401.0H-147.0V-121.0H206.0V-91.0ZM193.0 -93.0V-364.0C193.0 -372.0 190.0 -376.0 180.0 -376.0C169.0 -377.0 136.0 -378.0 91.0 -377.0C95.0 -383.0 98.0 -392.0 101.0 -400.0C152.0 -400.0 182.0 -400.0 198.0 -394.0C213.0 -389.0 216.0 -381.0 216.0 -363.0V-93.0Z"/></g>
<g fill="red" transform="translate(1400 700) scale(0.1 -0.1)"><path d="M0.0 0.0V-491.0H121.0V0.0ZM-161.0 -53.0V-399.0H-46.0V-166.0H219.0V-53.0ZM174.0 -53.0V-288.0C174.0 -296.0 172.0 -298.0 164.0 -298.0C157.0 -298.0 137.0 -298.0 118.0 -298.0C133.0 -327.0 148.0 -373.0 152.0 -406.0C194.0 -406.0 227.0 -404.0 256.0 -386.0C285.0 -368.0 291.0 -338.0 291.0 -290.0V-53.0Z"/></g>
<g fill="black" opacity=".8" transform="translate(1400 700) scale(0.1 -0.1)"><path d="M0.0 0.0V-482.0H109.0V0.0ZM-163.0 -53.0V-398.0H-50.0V-157.0H228.0V-53.0ZM179.0 -52.0V-292.0C179.0 -299.0 176.0 -303.0 167.0 -301.0C161.0 -302.0 137.0 -302.0 119.0 -301.0C130.0 -329.0 145.0 -371.0 148.0 -400.0C190.0 -400.0 222.0 -399.0 251.0 -383.0C280.0 -365.0 286.0 -338.0 286.0 -295.0V-52.0Z"/></g>
<g fill="red" transform="translate(1500 700) scale(0.1 -0.1)"><path d="M0.0 0.0V-657.0H30.0V0.0ZM-183.0 -141.0V-511.0H-154.0V-170.0H223.0V-141.0ZM204.0 -141.0V-459.0C204.0 -470.0 201.0 -474.0 188.0 -474.0C176.0 -475.0 137.0 -475.0 82.0 -474.0C87.0 -484.0 92.0 -495.0 94.0 -504.0C154.0 -504.0 190.0 -505.0 210.0 -498.0C229.0 -492.0 233.0 -481.0 233.0 -459.0V-141.0Z"/></g>
<g fill="black" opacity=".8" transform="translate(1500 700) scale(0.1 -0.1)"><path d="M0.0 0.0V-637.0H28.0V0.0ZM-194.0 -118.0V-511.0H-157.0V-155.0H220.0V-118.0ZM201.0 -124.0V-470.0C201.0 -479.0 198.0 -482.0 186.0 -482.0C175.0 -483.0 139.0 -484.0 91.0 -483.0C95.0 -490.0 100.0 -501.0 102.0 -510.0C157.0 -510.0 190.0 -510.0 207.0 -503.0C223.0 -498.0 227.0 -489.0 227.0 -468.0V-124.0Z"/></g>
<g fill="red" transform="translate(1600 700) scale(0.1 -0.1)"><path d="M0.0 0.0V-635.0H129.0V0.0ZM-186.0 -77.0V-540.0H-56.0V-199.0H240.0V-77.0ZM187.0 -77.0V-415.0C187.0 -424.0 184.0 -426.0 176.0 -426.0C168.0 -426.0 146.0 -426.0 126.0 -425.0C141.0 -460.0 154.0 -514.0 157.0 -550.0C205.0 -550.0 242.0 -548.0 274.0 -528.0C306.0 -507.0 312.0 -471.0 312.0 -418.0V-77.0Z"/></g>
<g fill="black" opacity=".8" transform="translate(1600 700) scale(0.1 -0.1)"><path d="M0.0 0.0V-651.0H124.0V0.0ZM-181.0 -90.0V-536.0H-55.0V-213.0H251.0V-90.0ZM192.0 -94.0V-413.0C192.0 -421.0 189.0 -425.0 180.0 -423.0C172.0 -425.0 147.0 -425.0 126.0 -423.0C139.0 -455.0 155.0 -505.0 158.0 -538.0C205.0 -538.0 239.0 -536.0 271.0 -517.0C302.0 -497.0 308.0 -464.0 308.0 -416.0V-94.0Z"/></g>
<g fill="red" transform="translate(100 800) scale(0.1 -0.1)"><path d="M0.0 0.0V-745.0H28.0V0.0ZM-204.0 -183.0V-598.0H-176.0V-212.0H243.0V-183.0ZM225.0 -183.0V-545.0C225.0 -554.0 222.0 -558.0 210.0 -559.0C199.0 -560.0 160.0 -560.0 109.0 -558.0C114.0 -568.0 119.0 -580.0 121.0 -588.0C178.0 -588.0 213.0 -589.0 231.0 -582.0C250.0 -576.0 253.0 -566.0 253.0 -544.0V-183.0Z"/></g>
<g fill="black" opacity=".8" transform="translate(100 800) scale(0.1 -0.1)"><path d="M0.0 0.0V-748.0H32.0V0.0ZM-205.0 -171.0V-602.0H-178.0V-201.0H239.0V-171.0ZM221.0 -174.0V-545.0C221.0 -555.0 217.0 -559.0 205.0 -560.0C193.0 -560.0 155.0 -561.0 104.0 -560.0C109.0 -569.0 115.0 -581.0 117.0 -590.0C174.0 -590.0 210.0 -590.0 229.0 -583.0C247.0 -577.0 250.0 -567.0 250.0 -544.0V-174.0Z"/></g>
<g fill="red" transform="translate(200 800) scale(0.1 -0.1)"><path d="M0.0 0.0V-716.0H135.0V0.0ZM-190.0 -104.0V-572.0H-57.0V-234.0H263.0V-104.0ZM194.0 -104.0V-430.0C194.0 -439.0 192.0 -441.0 184.0 -441.0C177.0 -442.0 157.0 -442.0 142.0 -441.0C157.0 -477.0 171.0 -533.0 174.0 -571.0C221.0 -571.0 257.0 -570.0 289.0 -548.0C321.0 -526.0 328.0 -489.0 328.0 -434.0V-104.0Z"/></g>
<g fill="black" opacity=".8" transform="translate(200 800) scale(0.1 -0.1)"><path d="M0.0 0.0V-708.0H138.0V0.0ZM-184.0 -113.0V-580.0H-54.0V-244.0H260.0V-113.0ZM199.0 -115.0V-428.0C199.0 -437.0 196.0 -441.0 188.0 -439.0C181.0 -440.0 161.0 -440.0 143.0 -439.0C158.0 -475.0 175.0 -531.0 178.0 -569.0C226.0 -569.0 261.0 -567.0 295.0 -546.0C328.0 -523.0 334.0 -486.0 334.0 -432.0V-115.0Z"/></g>
<g fill="red" transform="translate(300 800) scale(0.1 -0.1)"><path d="M0.0 0.0V-535.0H30.0V0.0ZM-206.0 -126.0V-448.0H-176.0V-155.0H214.0V-126.0ZM379.0 245.0V-523.0C379.0 -540.0 373.0 -546.0 355.0 -547.0C337.0 -548.0 276.0 -548.0 203.0 -546.0C209.0 -556.0 214.0 -571.0 217.0 -579.0C298.0 -580.0 350.0 -579.0 375.0 -574.0C399.0 -568.0 408.0 -554.0 408.0 -522.0V245.0Z"/></g>
<g fill="black" opacity=".8" transform="translate(300 800) scale(0.1 -0.1)"><path d="M0.0 0.0V-535.0H30.0V0.0ZM-205.0 -125.0V-449.0H-176.0V-154.0H215.0V-125.0ZM379.0 245.0V-524.0C379.0 -540.0 373.0 -546.0 354.0 -547.0C337.0 -548.0 275.0 -549.0 202.0 -547.0C207.0 -556.0 211.0 -571.0 215.0 -579.0C297.0 -580.0 349.0 -579.0 375.0 -574.0C398.0 -569.0 406.0 -555.0 406.0 -522.0V245.0Z"/></g>
<g fill="red" transform="translate(400 800) scale(0.1 -0.1)"><path d="M0.0 0.0V-509.0H128.0V0.0ZM-175.0 -100.0V-429.0H-57.0V-214.0H232.0V-100.0ZM363.0 334.0V-423.0C363.0 -438.0 358.0 -443.0 342.0 -444.0C327.0 -444.0 274.0 -444.0 234.0 -442.0C250.0 -476.0 267.0 -534.0 270.0 -570.0C352.0 -570.0 409.0 -568.0 450.0 -547.0C491.0 -526.0 503.0 -492.0 503.0 -424.0V334.0Z"/></g>
<g fill="black" opacity=".8" transform="translate(400 800) scale(0.1 -0.1)"><path d="M0.0 0.0V-507.0H127.0V0.0ZM-176.0 -101.0V-429.0H-57.0V-214.0H231.0V-101.0ZM365.0 334.0V-423.0C365.0 -438.0 360.0 -444.0 343.0 -444.0C329.0 -445.0 276.0 -445.0 236.0 -442.0C250.0 -476.0 268.0 -534.0 270.0 -569.0C353.0 -569.0 410.0 -567.0 451.0 -546.0C493.0 -525.0 504.0 -491.0 504.0 -424.0V334.0Z"/></g>
<g fill="red" transform="translate(500 800) scale(0.1 -0.1)"><path d="M0.0 0.0V-500.0H31.0V0.0ZM-279.0 272.0V28.0H384.0V57.0H-250.0V272.0ZM338.0 -114.0V-389.0C338.0 -400.0 335.0 -404.0 321.0 -405.0C304.0 -406.0 258.0 -406.0 190.0 -405.0C196.0 -415.0 201.0 -426.0 203.0 -436.0C277.0 -436.0 320.0 -436.0 342.0 -430.0C364.0 -423.0 369.0 -412.0 369.0 -389.0V-114.0Z"/></g>
<g fill="black" opacity=".8" transform="translate(500 800) scale(0.1 -0.1)"><path d="M0.0 0.0V-500.0H30.0V0.0ZM-279.0 273.0V28.0H384.0V57.0H-248.0V273.0ZM338.0 -114.0V-390.0C338.0 -400.0 335.0 -405.0 321.0 -405.0C304.0 -406.0 258.0 -407.0 191.0 -406.0C196.0 -415.0 200.0 -426.0 204.0 -436.0C277.0 -436.0 320.0 -436.0 342.0 -430.0C363.0 -423.0 367.0 -413.0 367.0 -389.0V-114.0Z"/></g>
<g fill="red" transform="translate(600 800) scale(0.1 -0.1)"><path d="M0.0 0.0V-492.0H147.0V0.0ZM-256.0 306.0V11.0H476.0V140.0H-111.0V306.0ZM333.0 -64.0V-299.0C333.0 -310.0 328.0 -313.0 315.0 -313.0C302.0 -313.0 254.0 -313.0 220.0 -311.0C237.0 -347.0 255.0 -403.0 260.0 -442.0C327.0 -442.0 380.0 -441.0 423.0 -422.0C466.0 -400.0 477.0 -364.0 477.0 -303.0V-64.0Z"/></g>
<g fill="black" opacity=".8" transform="translate(600 800) scale(0.1 -0.1)"><path d="M0.0 0.0V-491.0H146.0V0.0ZM-257.0 306.0V11.0H476.0V141.0H-112.0V306.0ZM334.0 -64.0V-300.0C334.0 -310.0 328.0 -314.0 315.0 -313.0C303.0 -314.0 255.0 -314.0 222.0 -311.0C237.0 -347.0 256.0 -403.0 260.0 -441.0C328.0 -441.0 379.0 -439.0 423.0 -422.0C467.0 -399.0 477.0 -364.0 477.0 -304.0V-64.0Z"/></g>
<g fill="red" transform="translate(700 800) scale(0.1 -0.1)"><path d="M0.0 0.0V-481.0H30.0V0.0ZM-300.0 -94.0V-417.0H-269.0V-124.0H325.0V-94.0ZM308.0 -94.0V-368.0C308.0 -381.0 305.0 -384.0 289.0 -385.0C273.0 -386.0 225.0 -387.0 153.0 -385.0C159.0 -395.0 164.0 -406.0 166.0 -415.0C242.0 -415.0 287.0 -416.0 310.0 -409.0C332.0 -403.0 338.0 -391.0 338.0 -368.0V-94.0Z"/></g>
<g fill="black" opacity=".8" transform="translate(700 800) scale(0.1 -0.1)"><path d="M0.0 0.0V-475.0H29.0V0.0ZM-305.0 -96.0V-416.0H-271.0V-129.0H330.0V-96.0ZM316.0 -97.0V-369.0C316.0 -382.0 313.0 -386.0 296.0 -386.0C279.0 -387.0 226.0 -388.0 151.0 -387.0C154.0 -395.0 159.0 -405.0 162.0 -414.0C246.0 -414.0 293.0 -414.0 316.0 -408.0C337.0 -402.0 343.0 -391.0 343.0 -368.0V-97.0Z"/></g>
<g fill="red" transform="translate(800 800) scale(0.1 -0.1)"><path d="M0.0 0.0V-500.0H147.0V0.0ZM-293.0 -86.0V-459.0H-150.0V-212.0H367.0V-86.0ZM305.0 -86.0V-334.0C305.0 -345.0 300.0 -348.0 285.0 -349.0C271.0 -349.0 215.0 -349.0 177.0 -347.0C195.0 -384.0 213.0 -440.0 218.0 -480.0C290.0 -481.0 347.0 -480.0 391.0 -459.0C436.0 -438.0 448.0 -401.0 448.0 -337.0V-86.0Z"/></g>
<g fill="black" opacity=".8" transform="translate(800 800) scale(0.1 -0.1)"><path d="M0.0 0.0V-508.0H143.0V0.0ZM-293.0 -82.0V-463.0H-145.0V-207.0H362.0V-82.0ZM302.0 -81.0V-338.0C302.0 -348.0 296.0 -353.0 281.0 -352.0C268.0 -353.0 213.0 -353.0 174.0 -350.0C190.0 -384.0 211.0 -437.0 216.0 -473.0C286.0 -473.0 342.0 -472.0 386.0 -454.0C430.0 -434.0 443.0 -401.0 443.0 -340.0V-81.0Z"/></g>
<g fill="red" transform="translate(900 800) scale(0.1 -0.1)"><path d="M0.0 0.0V-899.0H29.0V0.0ZM-142.0 -194.0V-695.0H-113.0V-223.0H167.0V-194.0ZM150.0 -194.0V-648.0C150.0 -655.0 148.0 -658.0 138.0 -658.0C129.0 -659.0 103.0 -659.0 67.0 -658.0C72.0 -667.0 78.0 -680.0 80.0 -688.0C120.0 -688.0 146.0 -688.0 160.0 -682.0C175.0 -676.0 179.0 -666.0 179.0 -647.0V-194.0Z"/></g>
<g fill="black" opacity=".8" transform="translate(900 800) scale(0.1 -0.1)"><path d="M0.0 0.0V-897.0H29.0V0.0ZM-141.0 -192.0V-695.0H-113.0V-222.0H168.0V-192.0ZM150.0 -193.0V-649.0C150.0 -656.0 148.0 -659.0 139.0 -659.0C130.0 -660.0 103.0 -660.0 69.0 -660.0C73.0 -668.0 78.0 -680.0 81.0 -689.0C120.0 -689.0 146.0 -688.0 160.0 -682.0C174.0 -676.0 178.0 -667.0 178.0 -647.0V-193.0Z"/></g>
<g fill="red" transform="translate(1000 800) scale(0.1 -0.1)"><path d="M0.0 0.0V-950.0H123.0V0.0ZM-128.0 -181.0V-744.0H-29.0V-308.0H205.0V-181.0ZM154.0 -181.0V-611.0C154.0 -619.0 152.0 -621.0 148.0 -621.0C142.0 -621.0 131.0 -621.0 119.0 -621.0C133.0 -655.0 144.0 -711.0 145.0 -746.0C179.0 -746.0 203.0 -743.0 227.0 -721.0C250.0 -699.0 254.0 -661.0 254.0 -615.0V-181.0Z"/></g>
<g fill="black" opacity=".8" transform="translate(1000 800) scale(0.1 -0.1)"><path d="M0.0 0.0V-951.0H119.0V0.0ZM-131.0 -182.0V-748.0H-27.0V-308.0H204.0V-182.0ZM154.0 -182.0V-612.0C154.0 -619.0 152.0 -623.0 146.0 -621.0C141.0 -622.0 128.0 -622.0 115.0 -622.0C128.0 -654.0 142.0 -708.0 143.0 -742.0C179.0 -742.0 203.0 -738.0 228.0 -718.0C252.0 -696.0 256.0 -659.0 256.0 -615.0V-182.0Z"/></g>
<g fill="red" transform="translate(1100 800) scale(0.1 -0.1)"><path d="M0.0 0.0V-899.0H29.0V0.0ZM-132.0 -194.0V-695.0H-103.0V-223.0H157.0V-194.0ZM139.0 -194.0V-648.0C139.0 -656.0 137.0 -658.0 129.0 -659.0C120.0 -659.0 97.0 -659.0 66.0 -658.0C71.0 -667.0 77.0 -680.0 79.0 -688.0C115.0 -688.0 137.0 -688.0 151.0 -682.0C164.0 -676.0 168.0 -666.0 168.0 -648.0V-194.0Z"/></g>
<g fill="black" opacity=".8" transform="translate(1100 800) scale(0.1 -0.1)"><path d="M0.0 0.0V-903.0H29.0V0.0ZM-133.0 -196.0V-696.0H-108.0V-223.0H157.0V-196.0ZM140.0 -197.0V-648.0C140.0 -655.0 137.0 -658.0 129.0 -658.0C120.0 -658.0 96.0 -659.0 64.0 -658.0C68.0 -666.0 73.0 -679.0 76.0 -687.0C112.0 -687.0 136.0 -687.0 150.0 -681.0C163.0 -675.0 167.0 -665.0 167.0 -646.0V-197.0Z"/></g>
<g fill="red" transform="translate(1200 800) scale(0.1 -0.1)"><path d="M0.0 0.0V-950.0H118.0V0.0ZM-126.0 -181.0V-741.0H-25.0V-308.0H191.0V-181.0ZM143.0 -181.0V-598.0C143.0 -606.0 141.0 -608.0 136.0 -608.0C130.0 -608.0 119.0 -608.0 106.0 -608.0C122.0 -640.0 135.0 -694.0 136.0 -728.0C169.0 -728.0 191.0 -724.0 214.0 -703.0C237.0 -682.0 241.0 -644.0 241.0 -602.0V-181.0Z"/></g>
<g fill="black" opacity=".8" transform="translate(1200 800) scale(0.1 -0.1)"><path d="M0.0 0.0V-945.0H117.0V0.0ZM-122.0 -181.0V-737.0H-23.0V-304.0H191.0V-181.0ZM142.0 -180.0V-600.0C142.0 -607.0 140.0 -610.0 135.0 -609.0C131.0 -610.0 121.0 -610.0 110.0 -610.0C123.0 -642.0 136.0 -695.0 137.0 -728.0C170.0 -728.0 192.0 -725.0 216.0 -704.0C239.0 -683.0 242.0 -647.0 242.0 -604.0V-180.0Z"/></g>
<g fill="red" transform="translate(1300 800) scale(0.1 -0.1)"><path d="M0.0 0.0V-428.0H31.0V0.0ZM-316.0 -97.0V-369.0H-287.0V-127.0H350.0V-97.0ZM337.0 -97.0V-315.0C337.0 -328.0 334.0 -332.0 316.0 -333.0C298.0 -334.0 240.0 -334.0 161.0 -333.0C166.0 -342.0 171.0 -352.0 173.0 -360.0C265.0 -360.0 315.0 -361.0 338.0 -355.0C361.0 -349.0 367.0 -337.0 367.0 -315.0V-97.0Z"/></g>
<g fill="black" opacity=".8" transform="translate(1300 800) scale(0.1 -0.1)"><path d="M0.0 0.0V-433.0H28.0V0.0ZM-313.0 -97.0V-367.0H-287.0V-126.0H355.0V-97.0ZM340.0 -98.0V-316.0C340.0 -329.0 336.0 -333.0 319.0 -333.0C301.0 -334.0 246.0 -336.0 167.0 -334.0C171.0 -342.0 175.0 -351.0 178.0 -359.0C265.0 -360.0 315.0 -360.0 338.0 -354.0C360.0 -348.0 365.0 -338.0 365.0 -315.0V-98.0Z"/></g>
<g fill="red" transform="translate(1400 800) scale(0.1 -0.1)"><path d="M0.0 0.0V-446.0H144.0V0.0ZM-292.0 -75.0V-400.0H-151.0V-195.0H379.0V-75.0ZM323.0 -75.0V-266.0C323.0 -278.0 317.0 -281.0 302.0 -281.0C288.0 -282.0 228.0 -282.0 188.0 -279.0C206.0 -312.0 227.0 -362.0 235.0 -399.0C305.0 -399.0 362.0 -398.0 407.0 -380.0C452.0 -361.0 466.0 -329.0 466.0 -268.0V-75.0Z"/></g>
<g fill="black" opacity=".8" transform="translate(1400 800) scale(0.1 -0.1)"><path d="M0.0 0.0V-442.0H143.0V0.0ZM-297.0 -75.0V-393.0H-153.0V-193.0H380.0V-75.0ZM320.0 -73.0V-268.0C320.0 -278.0 314.0 -283.0 298.0 -282.0C285.0 -283.0 227.0 -283.0 187.0 -280.0C202.0 -313.0 224.0 -364.0 230.0 -400.0C302.0 -400.0 360.0 -399.0 406.0 -382.0C452.0 -362.0 465.0 -332.0 465.0 -270.0V-73.0Z"/></g>
<g fill="red" transform="translate(1500 800) scale(0.1 -0.1)"><path d="M0.0 0.0V-457.0H30.0V0.0ZM-332.0 -112.0V-407.0H-302.0V-142.0H355.0V-112.0ZM340.0 -112.0V-357.0C340.0 -369.0 337.0 -373.0 323.0 -374.0C306.0 -375.0 261.0 -375.0 192.0 -373.0C197.0 -383.0 203.0 -394.0 205.0 -403.0C279.0 -403.0 322.0 -403.0 343.0 -397.0C365.0 -391.0 370.0 -380.0 370.0 -357.0V-112.0Z"/></g>
<g fill="black" opacity=".8" transform="translate(1500 800) scale(0.1 -0.1)"><path d="M0.0 0.0V-476.0H29.0V0.0ZM-327.0 -122.0V-409.0H-312.0V-132.0H346.0V-122.0ZM355.0 -118.0V-352.0C355.0 -365.0 351.0 -370.0 333.0 -370.0C316.0 -372.0 260.0 -373.0 181.0 -371.0C185.0 -379.0 190.0 -389.0 193.0 -398.0C280.0 -398.0 330.0 -398.0 354.0 -392.0C377.0 -386.0 382.0 -376.0 382.0 -351.0V-118.0Z"/></g>
<g fill="red" transform="translate(1600 800) scale(0.1 -0.1)"><path d="M0.0 0.0V-471.0H146.0V0.0ZM-323.0 -80.0V-407.0H-181.0V-198.0H363.0V-80.0ZM333.0 -80.0V-272.0C333.0 -282.0 328.0 -285.0 315.0 -285.0C303.0 -285.0 254.0 -285.0 220.0 -283.0C237.0 -316.0 255.0 -367.0 259.0 -402.0C327.0 -402.0 380.0 -402.0 422.0 -384.0C465.0 -365.0 476.0 -332.0 476.0 -276.0V-80.0Z"/></g>
<g fill="black" opacity=".8" transform="translate(1600 800) scale(0.1 -0.1)"><path d="M0.0 0.0V-454.0H147.0V0.0ZM-310.0 -83.0V-410.0H-170.0V-190.0H363.0V-83.0ZM327.0 -77.0V-272.0C327.0 -283.0 322.0 -287.0 306.0 -286.0C294.0 -287.0 239.0 -287.0 202.0 -284.0C218.0 -319.0 239.0 -372.0 245.0 -410.0C317.0 -410.0 375.0 -410.0 421.0 -391.0C468.0 -371.0 480.0 -338.0 480.0 -274.0V-77.0Z"/></g>
<g fill="red" transform="translate(100 900) scale(0.1 -0.1)"><path d="M0.0 0.0V-899.0H29.0V0.0ZM-126.0 -194.0V-695.0H-97.0V-223.0H149.0V-194.0ZM133.0 -194.0V-648.0C133.0 -655.0 131.0 -658.0 122.0 -658.0C113.0 -659.0 86.0 -659.0 51.0 -658.0C56.0 -667.0 62.0 -680.0 64.0 -688.0C104.0 -688.0 129.0 -688.0 144.0 -682.0C159.0 -676.0 163.0 -666.0 163.0 -647.0V-194.0Z"/></g>
<g fill="black" opacity=".8" transform="translate(100 900) scale(0.1 -0.1)"><path d="M0.0 0.0V-897.0H28.0V0.0ZM-130.0 -192.0V-694.0H-102.0V-222.0H150.0V-192.0ZM133.0 -192.0V-650.0C133.0 -656.0 131.0 -659.0 122.0 -659.0C114.0 -660.0 90.0 -660.0 59.0 -660.0C63.0 -667.0 68.0 -680.0 71.0 -688.0C107.0 -688.0 130.0 -688.0 144.0 -682.0C157.0 -676.0 160.0 -667.0 160.0 -648.0V-192.0Z"/></g>
<g fill="red" transform="translate(200 900) scale(0.1 -0.1)"><path d="M0.0 0.0V-950.0H113.0V0.0ZM-121.0 -181.0V-744.0H-29.0V-308.0H186.0V-181.0ZM142.0 -181.0V-611.0C142.0 -619.0 140.0 -621.0 136.0 -621.0C131.0 -621.0 121.0 -621.0 110.0 -621.0C122.0 -655.0 133.0 -711.0 133.0 -746.0C165.0 -746.0 187.0 -743.0 209.0 -721.0C230.0 -699.0 234.0 -661.0 234.0 -615.0V-181.0Z"/></g>
<g fill="black" opacity=".8" transform="translate(200 900) scale(0.1 -0.1)"><path d="M0.0 0.0V-952.0H115.0V0.0ZM-121.0 -184.0V-746.0H-22.0V-307.0H187.0V-184.0ZM139.0 -181.0V-614.0C139.0 -621.0 137.0 -624.0 132.0 -623.0C127.0 -624.0 117.0 -624.0 105.0 -624.0C118.0 -655.0 131.0 -708.0 132.0 -741.0C165.0 -741.0 186.0 -737.0 210.0 -717.0C232.0 -696.0 235.0 -660.0 235.0 -617.0V-181.0Z"/></g>
<g fill="red" transform="translate(300 900) scale(0.1 -0.1)"><path d="M0.0 0.0V-899.0H29.0V0.0ZM-132.0 -194.0V-695.0H-103.0V-223.0H157.0V-194.0ZM139.0 -194.0V-648.0C139.0 -656.0 137.0 -658.0 129.0 -659.0C120.0 -659.0 97.0 -659.0 65.0 -658.0C71.0 -667.0 77.0 -680.0 79.0 -688.0C114.0 -688.0 137.0 -688.0 151.0 -682.0C164.0 -676.0 168.0 -666.0 168.0 -648.0V-194.0Z"/></g>
<g fill="black" opacity=".8" transform="translate(300 900) scale(0.1 -0.1)"><path d="M0.0 0.0V-903.0H29.0V0.0ZM-133.0 -196.0V-696.0H-108.0V-223.0H158.0V-196.0ZM140.0 -196.0V-648.0C140.0 -655.0 138.0 -658.0 129.0 -658.0C121.0 -658.0 96.0 -659.0 64.0 -658.0C68.0 -666.0 73.0 -678.0 76.0 -687.0C112.0 -687.0 137.0 -687.0 151.0 -680.0C164.0 -675.0 167.0 -665.0 167.0 -646.0V-196.0Z"/></g>
<g fill="red" transform="translate(400 900) scale(0.1 -0.1)"><path d="M0.0 0.0V-950.0H117.0V0.0ZM-126.0 -181.0V-741.0H-25.0V-308.0H192.0V-181.0ZM144.0 -181.0V-598.0C144.0 -606.0 142.0 -608.0 137.0 -608.0C131.0 -608.0 119.0 -608.0 107.0 -608.0C122.0 -640.0 136.0 -694.0 137.0 -728.0C170.0 -728.0 192.0 -724.0 216.0 -703.0C238.0 -682.0 242.0 -644.0 242.0 -602.0V-181.0Z"/></g>
<g fill="black" opacity=".8" transform="translate(400 900) scale(0.1 -0.1)"><path d="M0.0 0.0V-945.0H117.0V0.0ZM-122.0 -181.0V-737.0H-22.0V-304.0H192.0V-181.0ZM143.0 -180.0V-600.0C143.0 -607.0 141.0 -610.0 136.0 -609.0C131.0 -610.0 121.0 -610.0 110.0 -610.0C123.0 -642.0 137.0 -695.0 137.0 -728.0C171.0 -728.0 193.0 -725.0 217.0 -704.0C240.0 -683.0 243.0 -647.0 243.0 -604.0V-180.0Z"/></g>
<g fill="red" transform="translate(500 900) scale(0.1 -0.1)"><path d="M0.0 0.0V-899.0H30.0V0.0ZM-121.0 -194.0V-695.0H-92.0V-223.0H154.0V-194.0ZM129.0 -194.0V-648.0C129.0 -655.0 127.0 -658.0 117.0 -658.0C108.0 -659.0 82.0 -659.0 46.0 -658.0C51.0 -667.0 57.0 -680.0 59.0 -688.0C99.0 -688.0 125.0 -688.0 139.0 -682.0C154.0 -676.0 158.0 -666.0 158.0 -647.0V-194.0Z"/></g>
<g fill="black" opacity=".8" transform="translate(500 900) scale(0.1 -0.1)"><path d="M0.0 0.0V-895.0H28.0V0.0ZM-120.0 -194.0V-697.0H-97.0V-222.0H144.0V-194.0ZM123.0 -192.0V-650.0C123.0 -656.0 121.0 -659.0 113.0 -659.0C105.0 -659.0 83.0 -660.0 54.0 -659.0C58.0 -667.0 63.0 -679.0 65.0 -688.0C99.0 -688.0 121.0 -687.0 134.0 -681.0C146.0 -676.0 150.0 -667.0 150.0 -648.0V-192.0Z"/></g>
<g fill="red" transform="translate(600 900) scale(0.1 -0.1)"><path d="M0.0 0.0V-950.0H104.0V0.0ZM-110.0 -181.0V-744.0H-26.0V-308.0H172.0V-181.0ZM130.0 -181.0V-611.0C130.0 -619.0 128.0 -621.0 124.0 -621.0C120.0 -621.0 110.0 -621.0 100.0 -621.0C112.0 -655.0 121.0 -711.0 122.0 -746.0C151.0 -746.0 171.0 -743.0 191.0 -721.0C211.0 -699.0 214.0 -661.0 214.0 -615.0V-181.0Z"/></g>
<g fill="black" opacity=".8" transform="translate(600 900) scale(0.1 -0.1)"><path d="M0.0 0.0V-950.0H112.0V0.0ZM-112.0 -185.0V-748.0H-19.0V-307.0H180.0V-185.0ZM129.0 -182.0V-614.0C129.0 -621.0 127.0 -625.0 122.0 -623.0C118.0 -624.0 110.0 -624.0 100.0 -624.0C113.0 -655.0 125.0 -707.0 125.0 -739.0C156.0 -739.0 176.0 -735.0 199.0 -715.0C220.0 -694.0 222.0 -659.0 222.0 -618.0V-182.0Z"/></g>
<g fill="red" transform="translate(700 900) scale(0.1 -0.1)"><path d="M0.0 0.0V-899.0H32.0V0.0ZM-120.0 -194.0V-695.0H-90.0V-223.0H151.0V-194.0ZM128.0 -194.0V-647.0C128.0 -655.0 126.0 -658.0 118.0 -658.0C110.0 -659.0 86.0 -659.0 57.0 -658.0C61.0 -668.0 67.0 -683.0 69.0 -692.0C104.0 -693.0 126.0 -692.0 139.0 -686.0C153.0 -679.0 157.0 -668.0 157.0 -647.0V-194.0Z"/></g>
<g fill="black" opacity=".8" transform="translate(700 900) scale(0.1 -0.1)"><path d="M0.0 0.0V-897.0H28.0V0.0ZM-122.0 -193.0V-696.0H-97.0V-222.0H148.0V-193.0ZM129.0 -192.0V-651.0C129.0 -657.0 127.0 -660.0 118.0 -660.0C111.0 -661.0 87.0 -661.0 58.0 -661.0C62.0 -668.0 67.0 -681.0 69.0 -689.0C104.0 -689.0 126.0 -689.0 140.0 -683.0C152.0 -677.0 156.0 -668.0 156.0 -649.0V-192.0Z"/></g>
<g fill="red" transform="translate(800 900) scale(0.1 -0.1)"><path d="M0.0 0.0V-950.0H110.0V0.0ZM-116.0 -181.0V-744.0H-27.0V-308.0H182.0V-181.0ZM137.0 -181.0V-611.0C137.0 -619.0 135.0 -621.0 131.0 -621.0C126.0 -621.0 117.0 -621.0 106.0 -621.0C118.0 -655.0 128.0 -711.0 129.0 -746.0C159.0 -746.0 181.0 -743.0 202.0 -721.0C222.0 -699.0 226.0 -661.0 226.0 -615.0V-181.0Z"/></g>
<g fill="black" opacity=".8" transform="translate(800 900) scale(0.1 -0.1)"><path d="M0.0 0.0V-950.0H113.0V0.0ZM-114.0 -184.0V-748.0H-18.0V-306.0H183.0V-184.0ZM134.0 -182.0V-614.0C134.0 -621.0 132.0 -625.0 127.0 -623.0C123.0 -625.0 115.0 -625.0 104.0 -624.0C116.0 -655.0 130.0 -708.0 130.0 -740.0C161.0 -740.0 182.0 -736.0 205.0 -716.0C226.0 -695.0 229.0 -659.0 229.0 -618.0V-182.0Z"/></g>
<g fill="red" transform="translate(900 900) scale(0.1 -0.1)"><path d="M0.0 0.0V-899.0H29.0V0.0ZM-131.0 -194.0V-695.0H-101.0V-223.0H145.0V-194.0ZM129.0 -194.0V-648.0C129.0 -656.0 127.0 -658.0 119.0 -659.0C110.0 -659.0 87.0 -659.0 56.0 -658.0C61.0 -667.0 67.0 -680.0 69.0 -688.0C105.0 -688.0 127.0 -688.0 141.0 -682.0C155.0 -676.0 158.0 -666.0 158.0 -648.0V-194.0Z"/></g>
<g fill="black" opacity=".8" transform="translate(900 900) scale(0.1 -0.1)"><path d="M0.0 0.0V-904.0H29.0V0.0ZM-133.0 -194.0V-694.0H-105.0V-225.0H154.0V-194.0ZM134.0 -195.0V-648.0C134.0 -655.0 132.0 -657.0 123.0 -658.0C115.0 -658.0 90.0 -659.0 58.0 -658.0C62.0 -666.0 68.0 -678.0 70.0 -687.0C107.0 -687.0 131.0 -687.0 145.0 -680.0C158.0 -675.0 161.0 -665.0 161.0 -646.0V-195.0Z"/></g>
<g fill="red" transform="translate(1000 900) scale(0.1 -0.1)"><path d="M0.0 0.0V-950.0H117.0V0.0ZM-123.0 -181.0V-741.0H-22.0V-308.0H195.0V-181.0ZM143.0 -181.0V-598.0C143.0 -606.0 141.0 -608.0 136.0 -608.0C130.0 -608.0 118.0 -608.0 106.0 -608.0C121.0 -640.0 135.0 -694.0 136.0 -728.0C169.0 -728.0 191.0 -724.0 215.0 -703.0C237.0 -682.0 241.0 -644.0 241.0 -602.0V-181.0Z"/></g>
<g fill="black" opacity=".8" transform="translate(1000 900) scale(0.1 -0.1)"><path d="M0.0 0.0V-947.0H117.0V0.0ZM-122.0 -179.0V-736.0H-20.0V-305.0H189.0V-179.0ZM137.0 -179.0V-600.0C137.0 -607.0 135.0 -611.0 130.0 -609.0C126.0 -611.0 116.0 -611.0 105.0 -610.0C118.0 -642.0 132.0 -695.0 132.0 -729.0C165.0 -729.0 187.0 -725.0 211.0 -705.0C234.0 -683.0 237.0 -647.0 237.0 -604.0V-179.0Z"/></g>
<g fill="red" transform="translate(1100 900) scale(0.1 -0.1)"><path d="M0.0 0.0V-899.0H30.0V0.0ZM-217.0 -186.0V-739.0H-188.0V-215.0H239.0V-186.0ZM229.0 -186.0V-685.0C229.0 -698.0 226.0 -701.0 213.0 -701.0C198.0 -702.0 155.0 -703.0 98.0 -701.0C103.0 -711.0 108.0 -724.0 110.0 -732.0C174.0 -732.0 214.0 -732.0 233.0 -726.0C253.0 -720.0 259.0 -709.0 259.0 -685.0V-186.0Z"/></g>
<g fill="black" opacity=".8" transform="translate(1100 900) scale(0.1 -0.1)"><path d="M0.0 0.0V-897.0H36.0V0.0ZM-213.0 -181.0V-742.0H-177.0V-218.0H243.0V-181.0ZM223.0 -182.0V-686.0C223.0 -696.0 219.0 -700.0 206.0 -700.0C194.0 -700.0 155.0 -702.0 102.0 -700.0C108.0 -710.0 114.0 -725.0 117.0 -735.0C177.0 -736.0 213.0 -735.0 232.0 -728.0C251.0 -721.0 257.0 -708.0 257.0 -684.0V-182.0Z"/></g>
<g fill="red" transform="translate(1200 900) scale(0.1 -0.1)"><path d="M0.0 0.0V-950.0H150.0V0.0ZM-194.0 -159.0V-794.0H-58.0V-306.0H292.0V-159.0ZM213.0 -159.0V-647.0C213.0 -656.0 210.0 -660.0 201.0 -660.0C192.0 -660.0 169.0 -660.0 150.0 -659.0C167.0 -693.0 185.0 -751.0 190.0 -789.0C240.0 -789.0 278.0 -786.0 311.0 -764.0C345.0 -742.0 353.0 -706.0 353.0 -649.0V-159.0Z"/></g>
<g fill="black" opacity=".8" transform="translate(1200 900) scale(0.1 -0.1)"><path d="M0.0 0.0V-950.0H148.0V0.0ZM-204.0 -160.0V-799.0H-65.0V-312.0H285.0V-160.0ZM218.0 -161.0V-639.0C218.0 -649.0 215.0 -653.0 206.0 -652.0C198.0 -653.0 172.0 -653.0 149.0 -652.0C167.0 -691.0 185.0 -755.0 188.0 -797.0C240.0 -797.0 277.0 -793.0 312.0 -769.0C346.0 -744.0 353.0 -701.0 353.0 -643.0V-161.0Z"/></g>
<g fill="red" transform="translate(1300 900) scale(0.1 -0.1)"><path d="M0.0 0.0V-608.0H30.0V0.0ZM-175.0 -125.0V-496.0H-146.0V-155.0H190.0V-125.0ZM176.0 -125.0V-451.0C176.0 -460.0 173.0 -462.0 163.0 -463.0C152.0 -463.0 119.0 -464.0 77.0 -463.0C82.0 -471.0 87.0 -482.0 89.0 -489.0C141.0 -489.0 169.0 -489.0 185.0 -484.0C200.0 -478.0 205.0 -469.0 205.0 -451.0V-125.0Z"/></g>
<g fill="black" opacity=".8" transform="translate(1300 900) scale(0.1 -0.1)"><path d="M0.0 0.0V-595.0H26.0V0.0ZM-161.0 -128.0V-498.0H-135.0V-157.0H188.0V-128.0ZM171.0 -127.0V-456.0C171.0 -463.0 168.0 -466.0 158.0 -467.0C148.0 -467.0 119.0 -468.0 79.0 -467.0C82.0 -474.0 86.0 -484.0 89.0 -492.0C135.0 -492.0 163.0 -492.0 178.0 -486.0C192.0 -481.0 195.0 -473.0 195.0 -454.0V-127.0Z"/></g>
<g fill="red" transform="translate(1400 900) scale(0.1 -0.1)"><path d="M0.0 0.0V-576.0H115.0V0.0ZM-131.0 -90.0V-504.0H-30.0V-208.0H202.0V-90.0ZM146.0 -90.0V-382.0C146.0 -390.0 144.0 -392.0 138.0 -392.0C134.0 -392.0 122.0 -392.0 110.0 -391.0C125.0 -422.0 139.0 -470.0 142.0 -503.0C177.0 -503.0 203.0 -501.0 228.0 -481.0C253.0 -462.0 258.0 -430.0 258.0 -385.0V-90.0Z"/></g>
<g fill="black" opacity=".8" transform="translate(1400 900) scale(0.1 -0.1)"><path d="M0.0 0.0V-586.0H110.0V0.0ZM-148.0 -90.0V-500.0H-42.0V-201.0H210.0V-90.0ZM158.0 -89.0V-382.0C158.0 -389.0 155.0 -392.0 148.0 -391.0C143.0 -392.0 125.0 -392.0 110.0 -391.0C122.0 -420.0 136.0 -466.0 138.0 -496.0C177.0 -496.0 205.0 -494.0 232.0 -477.0C258.0 -458.0 263.0 -428.0 263.0 -385.0V-89.0Z"/></g>
<g fill="red" transform="translate(1500 900) scale(0.1 -0.1)"><path d="M0.0 0.0V-657.0H30.0V0.0ZM-215.0 -125.0V-538.0H-186.0V-156.0H241.0V-125.0ZM222.0 -125.0V-499.0C222.0 -506.0 220.0 -509.0 211.0 -509.0C201.0 -510.0 175.0 -510.0 139.0 -509.0C144.0 -518.0 150.0 -530.0 152.0 -538.0C193.0 -538.0 218.0 -538.0 233.0 -532.0C247.0 -526.0 251.0 -516.0 251.0 -498.0V-125.0Z"/></g>
<g fill="black" opacity=".8" transform="translate(1500 900) scale(0.1 -0.1)"><path d="M0.0 0.0V-661.0H29.0V0.0ZM-207.0 -131.0V-548.0H-185.0V-150.0H224.0V-131.0ZM220.0 -132.0V-497.0C220.0 -506.0 217.0 -510.0 205.0 -510.0C193.0 -511.0 157.0 -512.0 108.0 -511.0C112.0 -519.0 117.0 -530.0 120.0 -539.0C176.0 -539.0 209.0 -539.0 227.0 -532.0C244.0 -527.0 248.0 -517.0 248.0 -496.0V-132.0Z"/></g>
<g fill="red" transform="translate(1600 900) scale(0.1 -0.1)"><path d="M0.0 0.0V-680.0H133.0V0.0ZM-207.0 -94.0V-577.0H-71.0V-221.0H233.0V-94.0ZM192.0 -94.0V-427.0C192.0 -436.0 189.0 -439.0 181.0 -439.0C173.0 -439.0 149.0 -439.0 129.0 -438.0C146.0 -473.0 161.0 -529.0 164.0 -567.0C213.0 -567.0 250.0 -565.0 282.0 -543.0C315.0 -522.0 321.0 -485.0 321.0 -431.0V-94.0Z"/></g>
<g fill="black" opacity=".8" transform="translate(1600 900) scale(0.1 -0.1)"><path d="M0.0 0.0V-668.0H126.0V0.0ZM-196.0 -96.0V-567.0H-80.0V-211.0H250.0V-96.0ZM208.0 -97.0V-432.0C208.0 -440.0 204.0 -444.0 195.0 -442.0C188.0 -444.0 163.0 -444.0 142.0 -442.0C156.0 -475.0 173.0 -527.0 176.0 -562.0C223.0 -562.0 258.0 -560.0 290.0 -540.0C322.0 -519.0 328.0 -485.0 328.0 -435.0V-97.0Z"/></g>
<g fill="red" transform="translate(100 1000) scale(0.1 -0.1)"><path d="M0.0 0.0V-414.0H29.0V0.0ZM-229.0 -88.0V-376.0H-200.0V-117.0H259.0V-88.0ZM245.0 -88.0V-327.0C245.0 -340.0 241.0 -344.0 225.0 -345.0C208.0 -347.0 155.0 -347.0 79.0 -345.0C84.0 -355.0 90.0 -364.0 92.0 -373.0C176.0 -373.0 223.0 -374.0 247.0 -367.0C269.0 -361.0 275.0 -351.0 275.0 -327.0V-88.0Z"/></g>
<g fill="black" opacity=".8" transform="translate(100 1000) scale(0.1 -0.1)"><path d="M0.0 0.0V-421.0H26.0V0.0ZM-241.0 -91.0V-368.0H-202.0V-131.0H258.0V-91.0ZM242.0 -92.0V-330.0C242.0 -341.0 239.0 -345.0 226.0 -345.0C212.0 -346.0 169.0 -347.0 109.0 -346.0C113.0 -353.0 117.0 -362.0 120.0 -370.0C186.0 -370.0 226.0 -370.0 245.0 -364.0C263.0 -359.0 267.0 -350.0 267.0 -329.0V-92.0Z"/></g>
<g fill="red" transform="translate(200 1000) scale(0.1 -0.1)"><path d="M0.0 0.0V-378.0H128.0V0.0ZM-212.0 -48.0V-352.0H-80.0V-159.0H262.0V-48.0ZM224.0 -48.0V-229.0C224.0 -238.0 219.0 -241.0 208.0 -241.0C198.0 -242.0 157.0 -242.0 129.0 -240.0C145.0 -269.0 162.0 -315.0 168.0 -347.0C225.0 -347.0 272.0 -347.0 309.0 -330.0C348.0 -313.0 358.0 -284.0 358.0 -231.0V-48.0Z"/></g>
<g fill="black" opacity=".8" transform="translate(200 1000) scale(0.1 -0.1)"><path d="M0.0 0.0V-374.0H126.0V0.0ZM-221.0 -39.0V-344.0H-81.0V-156.0H276.0V-39.0ZM217.0 -37.0V-232.0C217.0 -240.0 213.0 -244.0 202.0 -242.0C193.0 -244.0 158.0 -244.0 132.0 -242.0C145.0 -273.0 163.0 -319.0 167.0 -351.0C222.0 -351.0 265.0 -351.0 302.0 -334.0C338.0 -315.0 347.0 -287.0 347.0 -234.0V-37.0Z"/></g>
<g fill="red" transform="translate(300 1000) scale(0.1 -0.1)"><path d="M0.0 0.0V-582.0H29.0V0.0ZM-294.0 -161.0V-490.0H-264.0V-190.0H328.0V-161.0ZM314.0 -161.0V-432.0C314.0 -443.0 311.0 -447.0 297.0 -448.0C285.0 -449.0 243.0 -449.0 184.0 -448.0C189.0 -457.0 195.0 -468.0 196.0 -476.0C262.0 -476.0 300.0 -476.0 320.0 -470.0C339.0 -464.0 343.0 -454.0 343.0 -432.0V-161.0Z"/></g>
<g fill="black" opacity=".8" transform="translate(300 1000) scale(0.1 -0.1)"><path d="M0.0 0.0V-584.0H32.0V0.0ZM-296.0 -155.0V-492.0H-276.0V-178.0H341.0V-155.0ZM326.0 -153.0V-428.0C326.0 -441.0 322.0 -446.0 305.0 -447.0C288.0 -448.0 236.0 -449.0 162.0 -447.0C167.0 -456.0 172.0 -467.0 175.0 -476.0C257.0 -476.0 305.0 -476.0 328.0 -470.0C351.0 -464.0 355.0 -453.0 355.0 -427.0V-153.0Z"/></g>
<g fill="red" transform="translate(400 1000) scale(0.1 -0.1)"><path d="M0.0 0.0V-540.0H144.0V0.0ZM-288.0 -87.0V-460.0H-145.0V-227.0H382.0V-87.0ZM302.0 -87.0V-315.0C302.0 -325.0 297.0 -328.0 284.0 -328.0C272.0 -328.0 225.0 -328.0 192.0 -326.0C209.0 -365.0 227.0 -424.0 231.0 -466.0C298.0 -466.0 351.0 -465.0 394.0 -443.0C437.0 -421.0 448.0 -382.0 448.0 -319.0V-87.0Z"/></g>
<g fill="black" opacity=".8" transform="translate(400 1000) scale(0.1 -0.1)"><path d="M0.0 0.0V-537.0H152.0V0.0ZM-273.0 -99.0V-470.0H-128.0V-226.0H357.0V-99.0ZM295.0 -97.0V-316.0C295.0 -326.0 290.0 -331.0 276.0 -329.0C265.0 -331.0 221.0 -331.0 189.0 -328.0C205.0 -366.0 226.0 -422.0 232.0 -462.0C299.0 -462.0 352.0 -461.0 397.0 -441.0C441.0 -418.0 452.0 -383.0 452.0 -319.0V-97.0Z"/></g>
<g fill="red" transform="translate(500 1000) scale(0.1 -0.1)"><path d="M0.0 0.0V-899.0H29.0V0.0ZM-208.0 -186.0V-739.0H-179.0V-215.0H232.0V-186.0ZM212.0 -186.0V-685.0C212.0 -698.0 209.0 -701.0 196.0 -701.0C181.0 -702.0 138.0 -703.0 81.0 -701.0C86.0 -711.0 91.0 -724.0 93.0 -732.0C157.0 -732.0 197.0 -732.0 216.0 -726.0C236.0 -720.0 242.0 -709.0 242.0 -685.0V-186.0Z"/></g>
<g fill="black" opacity=".8" transform="translate(500 1000) scale(0.1 -0.1)"><path d="M0.0 0.0V-896.0H35.0V0.0ZM-204.0 -180.0V-741.0H-168.0V-218.0H232.0V-180.0ZM207.0 -180.0V-686.0C207.0 -696.0 204.0 -700.0 191.0 -700.0C179.0 -700.0 142.0 -701.0 92.0 -700.0C97.0 -710.0 104.0 -724.0 107.0 -735.0C163.0 -735.0 198.0 -735.0 217.0 -727.0C235.0 -720.0 241.0 -708.0 241.0 -685.0V-180.0Z"/></g>
<g fill="red" transform="translate(600 1000) scale(0.1 -0.1)"><path d="M0.0 0.0V-950.0H138.0V0.0ZM-185.0 -159.0V-794.0H-54.0V-306.0H280.0V-159.0ZM204.0 -159.0V-651.0C204.0 -661.0 201.0 -664.0 193.0 -664.0C184.0 -664.0 162.0 -664.0 144.0 -663.0C160.0 -697.0 177.0 -753.0 181.0 -791.0C228.0 -791.0 264.0 -788.0 295.0 -766.0C327.0 -744.0 335.0 -709.0 335.0 -653.0V-159.0Z"/></g>
<g fill="black" opacity=".8" transform="translate(600 1000) scale(0.1 -0.1)"><path d="M0.0 0.0V-953.0H145.0V0.0ZM-195.0 -161.0V-802.0H-61.0V-313.0H274.0V-161.0ZM205.0 -161.0V-643.0C205.0 -653.0 201.0 -657.0 193.0 -656.0C185.0 -657.0 161.0 -657.0 139.0 -656.0C157.0 -694.0 175.0 -758.0 177.0 -799.0C226.0 -799.0 262.0 -795.0 296.0 -771.0C328.0 -746.0 335.0 -703.0 335.0 -647.0V-161.0Z"/></g>
<g fill="red" transform="translate(700 1000) scale(0.1 -0.1)"><path d="M0.0 0.0V-899.0H29.0V0.0ZM-212.0 -192.0V-734.0H-183.0V-221.0H235.0V-192.0ZM221.0 -192.0V-680.0C221.0 -692.0 218.0 -695.0 205.0 -696.0C194.0 -696.0 156.0 -696.0 106.0 -695.0C110.0 -703.0 116.0 -716.0 118.0 -724.0C175.0 -724.0 209.0 -724.0 227.0 -718.0C245.0 -712.0 251.0 -701.0 251.0 -680.0V-192.0Z"/></g>
<g fill="black" opacity=".8" transform="translate(700 1000) scale(0.1 -0.1)"><path d="M0.0 0.0V-898.0H33.0V0.0ZM-203.0 -201.0V-734.0H-173.0V-229.0H223.0V-201.0ZM213.0 -202.0V-679.0C213.0 -689.0 209.0 -692.0 197.0 -693.0C185.0 -693.0 149.0 -694.0 101.0 -693.0C106.0 -702.0 112.0 -716.0 114.0 -726.0C169.0 -726.0 203.0 -726.0 222.0 -719.0C239.0 -712.0 244.0 -701.0 244.0 -678.0V-202.0Z"/></g>
<g fill="red" transform="translate(800 1000) scale(0.1 -0.1)"><path d="M0.0 0.0V-950.0H138.0V0.0ZM-188.0 -191.0V-777.0H-55.0V-324.0H255.0V-191.0ZM196.0 -191.0V-636.0C196.0 -645.0 193.0 -648.0 185.0 -648.0C178.0 -648.0 157.0 -648.0 140.0 -647.0C156.0 -681.0 172.0 -736.0 176.0 -773.0C223.0 -773.0 260.0 -770.0 292.0 -749.0C324.0 -728.0 331.0 -693.0 331.0 -639.0V-191.0Z"/></g>
<g fill="black" opacity=".8" transform="translate(800 1000) scale(0.1 -0.1)"><path d="M0.0 0.0V-946.0H139.0V0.0ZM-193.0 -184.0V-785.0H-67.0V-322.0H260.0V-184.0ZM208.0 -183.0V-631.0C208.0 -640.0 205.0 -644.0 197.0 -642.0C189.0 -644.0 166.0 -644.0 145.0 -643.0C162.0 -680.0 179.0 -741.0 181.0 -781.0C229.0 -781.0 264.0 -777.0 297.0 -754.0C329.0 -730.0 335.0 -689.0 335.0 -634.0V-183.0Z"/></g>
</svg>
