<?xml version="1.0" encoding="UTF-8"?>
<svg width="1700" height="300" xmlns="http://www.w3.org/2000/svg">
<rect width="100%" height="100%" fill="white"/>
<g fill="green" transform="translate(100 100) scale(0.1 -0.1)"><path d="M-0.0 0.0V-32.0H523.0V0.0ZM-54.0 271.0V238.0H502.0V-84.0H534.0V271.0ZM-14.0 0.0V-340.0C-14.0 -412.0 21.0 -425.0 136.0 -425.0C160.0 -425.0 455.0 -425.0 482.0 -425.0C600.0 -425.0 619.0 -381.0 629.0 -206.0C619.0 -204.0 606.0 -198.0 595.0 -191.0C588.0 -361.0 574.0 -393.0 484.0 -393.0C423.0 -393.0 173.0 -393.0 129.0 -393.0C37.0 -393.0 18.0 -381.0 18.0 -340.0V0.0Z"/></g>
<g fill="green" transform="translate(200 100) scale(0.1 -0.1)"><path d="M0.0 0.0V-139.0H429.0V0.0ZM-83.0 267.0V128.0H339.0V-181.0H500.0V267.0ZM-67.0 0.0V-293.0C-67.0 -442.0 -16.0 -483.0 162.0 -483.0C200.0 -483.0 349.0 -483.0 390.0 -483.0C535.0 -483.0 581.0 -442.0 602.0 -289.0C558.0 -280.0 492.0 -257.0 458.0 -234.0C450.0 -326.0 439.0 -340.0 378.0 -340.0C337.0 -340.0 209.0 -340.0 175.0 -340.0C99.0 -340.0 88.0 -334.0 88.0 -290.0V0.0Z"/></g>
<g fill="green" transform="translate(300 100) scale(0.1 -0.1)"><path d="M0.0 0.0V-28.0H473.0V0.0ZM-50.0 231.0V202.0H454.0V-74.0H483.0V231.0ZM-12.0 0.0V-291.0C-12.0 -355.0 19.0 -366.0 123.0 -366.0C144.0 -366.0 412.0 -366.0 436.0 -366.0C542.0 -366.0 559.0 -327.0 569.0 -171.0C560.0 -169.0 548.0 -164.0 538.0 -158.0C532.0 -309.0 519.0 -338.0 438.0 -338.0C382.0 -338.0 156.0 -338.0 116.0 -338.0C33.0 -338.0 16.0 -327.0 16.0 -291.0V0.0Z"/></g>
<g fill="green" transform="translate(400 100) scale(0.1 -0.1)"><path d="M0.0 0.0V-122.0H385.0V0.0ZM-74.0 229.0V107.0H305.0V-158.0H447.0V229.0ZM-60.0 0.0V-248.0C-60.0 -379.0 -14.0 -415.0 146.0 -415.0C180.0 -415.0 316.0 -415.0 353.0 -415.0C482.0 -415.0 523.0 -380.0 542.0 -249.0C503.0 -241.0 445.0 -221.0 415.0 -201.0C408.0 -277.0 398.0 -289.0 342.0 -289.0C305.0 -289.0 188.0 -289.0 156.0 -289.0C87.0 -289.0 77.0 -284.0 77.0 -245.0V0.0Z"/></g>
<g fill="green" transform="translate(500 100) scale(0.1 -0.1)"><path d="M0.0 0.0V-30.0H353.0V0.0ZM-21.0 368.0V338.0H339.0V-91.0H367.0V368.0ZM-13.0 0.0V-438.0C-13.0 -502.0 12.0 -517.0 96.0 -517.0C114.0 -517.0 308.0 -517.0 328.0 -517.0C415.0 -517.0 428.0 -475.0 436.0 -319.0C426.0 -317.0 414.0 -312.0 406.0 -305.0C400.0 -457.0 391.0 -486.0 330.0 -486.0C288.0 -486.0 122.0 -486.0 92.0 -486.0C30.0 -486.0 17.0 -476.0 17.0 -438.0V0.0Z"/></g>
<g fill="green" transform="translate(600 100) scale(0.1 -0.1)"><path d="M0.0 0.0V-141.0H343.0V0.0ZM-68.0 353.0V207.0H252.0V-189.0H400.0V353.0ZM-60.0 0.0V-414.0C-60.0 -564.0 -15.0 -606.0 120.0 -606.0C147.0 -606.0 232.0 -606.0 261.0 -606.0C389.0 -606.0 429.0 -549.0 445.0 -361.0C404.0 -350.0 339.0 -325.0 306.0 -299.0C299.0 -441.0 292.0 -466.0 249.0 -466.0C228.0 -466.0 161.0 -466.0 142.0 -466.0C99.0 -466.0 94.0 -460.0 94.0 -413.0V0.0Z"/></g>
<g fill="green" transform="translate(700 100) scale(0.1 -0.1)"><path d="M-0.0 0.0V-32.0H526.0V0.0ZM-61.0 259.0V226.0H501.0V-71.0H535.0V259.0ZM-17.0 0.0V-345.0C-17.0 -416.0 18.0 -428.0 134.0 -428.0C158.0 -428.0 462.0 -428.0 489.0 -428.0C600.0 -428.0 618.0 -392.0 627.0 -243.0C617.0 -240.0 603.0 -235.0 592.0 -227.0C585.0 -370.0 572.0 -394.0 490.0 -394.0C428.0 -394.0 172.0 -394.0 127.0 -394.0C36.0 -394.0 17.0 -384.0 17.0 -346.0V0.0Z"/></g>
<g fill="green" transform="translate(800 100) scale(0.1 -0.1)"><path d="M0.0 0.0V-138.0H390.0V0.0ZM-80.0 234.0V94.0H337.0V-188.0H502.0V234.0ZM-67.0 0.0V-293.0C-67.0 -442.0 -16.0 -483.0 163.0 -483.0C201.0 -483.0 355.0 -483.0 395.0 -483.0C540.0 -483.0 585.0 -440.0 606.0 -278.0C562.0 -270.0 496.0 -246.0 462.0 -224.0C455.0 -324.0 443.0 -339.0 383.0 -339.0C341.0 -339.0 210.0 -339.0 176.0 -339.0C98.0 -339.0 87.0 -333.0 87.0 -289.0V0.0Z"/></g>
<g fill="red" transform="translate(100 200) scale(0.1 -0.1)"><path d="M0.0 0.0V-29.0H336.0V0.0ZM-26.0 342.0V313.0H319.0V-73.0H348.0V342.0ZM-15.0 0.0V-424.0C-15.0 -484.0 9.0 -496.0 88.0 -496.0C106.0 -496.0 298.0 -496.0 317.0 -496.0C392.0 -496.0 404.0 -464.0 410.0 -343.0C400.0 -340.0 388.0 -336.0 380.0 -329.0C375.0 -446.0 368.0 -466.0 317.0 -466.0C277.0 -466.0 114.0 -466.0 85.0 -466.0C27.0 -466.0 15.0 -458.0 15.0 -425.0V0.0Z"/></g>
<g fill="black" opacity=".8" transform="translate(100 200) scale(0.1 -0.1)"><path d="M0.0 0.0V-28.0H336.0V0.0ZM-26.0 340.0V312.0H319.0V-74.0H348.0V340.0ZM-15.0 0.0V-424.0C-15.0 -483.0 8.0 -497.0 89.0 -497.0C106.0 -497.0 298.0 -497.0 317.0 -497.0C392.0 -497.0 403.0 -465.0 410.0 -342.0C401.0 -339.0 388.0 -335.0 380.0 -328.0C375.0 -445.0 367.0 -465.0 318.0 -465.0C277.0 -465.0 114.0 -465.0 85.0 -465.0C27.0 -465.0 15.0 -458.0 15.0 -425.0V0.0Z"/></g>
<g fill="red" transform="translate(200 200) scale(0.1 -0.1)"><path d="M0.0 0.0V-133.0H289.0V0.0ZM-63.0 305.0V165.0H237.0V-187.0H381.0V305.0ZM-56.0 0.0V-395.0C-56.0 -538.0 -14.0 -579.0 114.0 -579.0C140.0 -579.0 224.0 -579.0 251.0 -579.0C372.0 -579.0 409.0 -522.0 424.0 -332.0C386.0 -323.0 324.0 -298.0 292.0 -274.0C286.0 -419.0 279.0 -445.0 239.0 -445.0C219.0 -445.0 153.0 -445.0 135.0 -445.0C94.0 -445.0 88.0 -439.0 88.0 -394.0V0.0Z"/></g>
<g fill="black" opacity=".8" transform="translate(200 200) scale(0.1 -0.1)"><path d="M0.0 0.0V-133.0H287.0V0.0ZM-61.0 305.0V165.0H236.0V-187.0H381.0V305.0ZM-57.0 0.0V-396.0C-57.0 -539.0 -14.0 -579.0 115.0 -579.0C140.0 -579.0 225.0 -579.0 251.0 -579.0C373.0 -579.0 410.0 -522.0 425.0 -334.0C386.0 -325.0 324.0 -300.0 293.0 -276.0C287.0 -420.0 280.0 -445.0 240.0 -445.0C219.0 -445.0 154.0 -445.0 135.0 -445.0C93.0 -445.0 89.0 -439.0 89.0 -394.0V0.0Z"/></g>
<g fill="red" transform="translate(300 200) scale(0.1 -0.1)"><path d="M0.0 0.0V-30.0H428.0V0.0ZM-24.0 334.0V304.0H414.0V-85.0H443.0V334.0ZM-14.0 0.0V-397.0C-14.0 -464.0 16.0 -478.0 111.0 -478.0C132.0 -478.0 370.0 -478.0 393.0 -478.0C491.0 -478.0 506.0 -437.0 515.0 -284.0C505.0 -282.0 493.0 -277.0 484.0 -270.0C477.0 -420.0 467.0 -448.0 395.0 -448.0C345.0 -448.0 142.0 -448.0 106.0 -448.0C31.0 -448.0 16.0 -437.0 16.0 -398.0V0.0Z"/></g>
<g fill="black" opacity=".8" transform="translate(300 200) scale(0.1 -0.1)"><path d="M0.0 0.0V-31.0H422.0V0.0ZM-35.0 327.0V296.0H405.0V-87.0H435.0V327.0ZM-14.0 0.0V-399.0C-14.0 -466.0 15.0 -480.0 112.0 -480.0C132.0 -480.0 368.0 -480.0 391.0 -480.0C490.0 -480.0 505.0 -438.0 514.0 -277.0C504.0 -275.0 491.0 -270.0 482.0 -263.0C476.0 -419.0 465.0 -448.0 393.0 -448.0C343.0 -448.0 143.0 -448.0 107.0 -448.0C33.0 -448.0 17.0 -438.0 17.0 -399.0V0.0Z"/></g>
<g fill="red" transform="translate(400 200) scale(0.1 -0.1)"><path d="M0.0 0.0V-133.0H365.0V0.0ZM-71.0 319.0V185.0H288.0V-174.0H435.0V319.0ZM-60.0 0.0V-366.0C-60.0 -513.0 -13.0 -554.0 135.0 -554.0C166.0 -554.0 278.0 -554.0 312.0 -554.0C446.0 -554.0 487.0 -502.0 505.0 -323.0C465.0 -314.0 401.0 -290.0 369.0 -266.0C361.0 -395.0 353.0 -417.0 300.0 -417.0C271.0 -417.0 177.0 -417.0 152.0 -417.0C96.0 -417.0 87.0 -411.0 87.0 -365.0V0.0Z"/></g>
<g fill="black" opacity=".8" transform="translate(400 200) scale(0.1 -0.1)"><path d="M0.0 0.0V-140.0H373.0V0.0ZM-74.0 314.0V171.0H287.0V-187.0H441.0V314.0ZM-63.0 0.0V-365.0C-63.0 -515.0 -15.0 -556.0 137.0 -556.0C169.0 -556.0 280.0 -556.0 314.0 -556.0C449.0 -556.0 491.0 -505.0 509.0 -331.0C467.0 -320.0 401.0 -296.0 368.0 -272.0C361.0 -394.0 352.0 -415.0 302.0 -415.0C273.0 -415.0 181.0 -415.0 155.0 -415.0C99.0 -415.0 91.0 -409.0 91.0 -363.0V0.0Z"/></g>
<g fill="red" transform="translate(500 200) scale(0.1 -0.1)"><path d="M0.0 0.0V-30.0H371.0V0.0ZM-31.0 334.0V304.0H355.0V-85.0H384.0V334.0ZM-14.0 0.0V-402.0C-14.0 -465.0 12.0 -478.0 98.0 -478.0C118.0 -478.0 323.0 -478.0 345.0 -478.0C434.0 -478.0 448.0 -437.0 455.0 -284.0C446.0 -282.0 434.0 -277.0 425.0 -270.0C420.0 -420.0 410.0 -448.0 346.0 -448.0C302.0 -448.0 126.0 -448.0 95.0 -448.0C29.0 -448.0 16.0 -438.0 16.0 -402.0V0.0Z"/></g>
<g fill="black" opacity=".8" transform="translate(500 200) scale(0.1 -0.1)"><path d="M0.0 0.0V-29.0H372.0V0.0ZM-27.0 332.0V303.0H357.0V-86.0H385.0V332.0ZM-12.0 0.0V-399.0C-12.0 -461.0 13.0 -475.0 100.0 -475.0C118.0 -475.0 325.0 -475.0 345.0 -475.0C435.0 -475.0 448.0 -435.0 457.0 -281.0C447.0 -279.0 435.0 -275.0 427.0 -268.0C421.0 -417.0 411.0 -446.0 347.0 -446.0C303.0 -446.0 127.0 -446.0 95.0 -446.0C30.0 -446.0 16.0 -435.0 16.0 -399.0V0.0Z"/></g>
<g fill="red" transform="translate(600 200) scale(0.1 -0.1)"><path d="M0.0 0.0V-137.0H365.0V0.0ZM-73.0 319.0V175.0H255.0V-184.0H404.0V319.0ZM-60.0 0.0V-367.0C-60.0 -511.0 -16.0 -553.0 124.0 -553.0C152.0 -553.0 245.0 -553.0 275.0 -553.0C401.0 -553.0 441.0 -500.0 457.0 -325.0C417.0 -316.0 354.0 -291.0 321.0 -266.0C314.0 -394.0 307.0 -417.0 263.0 -417.0C239.0 -417.0 165.0 -417.0 144.0 -417.0C98.0 -417.0 91.0 -411.0 91.0 -366.0V0.0Z"/></g>
<g fill="black" opacity=".8" transform="translate(600 200) scale(0.1 -0.1)"><path d="M0.0 0.0V-134.0H346.0V0.0ZM-68.0 320.0V182.0H259.0V-179.0H403.0V320.0ZM-59.0 0.0V-371.0C-59.0 -514.0 -14.0 -554.0 123.0 -554.0C151.0 -554.0 246.0 -554.0 276.0 -554.0C402.0 -554.0 441.0 -503.0 458.0 -331.0C418.0 -320.0 356.0 -297.0 324.0 -273.0C317.0 -398.0 309.0 -420.0 264.0 -420.0C240.0 -420.0 164.0 -420.0 142.0 -420.0C95.0 -420.0 89.0 -414.0 89.0 -370.0V0.0Z"/></g>
<g fill="red" transform="translate(700 200) scale(0.1 -0.1)"><path d="M0.0 0.0V-29.0H348.0V0.0ZM-31.0 331.0V302.0H332.0V-87.0H361.0V331.0ZM-10.0 0.0V-406.0C-10.0 -468.0 14.0 -481.0 96.0 -481.0C114.0 -481.0 303.0 -481.0 323.0 -481.0C409.0 -481.0 422.0 -441.0 429.0 -283.0C419.0 -281.0 408.0 -276.0 399.0 -269.0C394.0 -423.0 385.0 -452.0 324.0 -452.0C284.0 -452.0 122.0 -452.0 93.0 -452.0C32.0 -452.0 19.0 -443.0 19.0 -407.0V0.0Z"/></g>
<g fill="black" opacity=".8" transform="translate(700 200) scale(0.1 -0.1)"><path d="M0.0 0.0V-29.0H351.0V0.0ZM-23.0 342.0V313.0H337.0V-86.0H364.0V342.0ZM-12.0 0.0V-409.0C-12.0 -471.0 12.0 -485.0 95.0 -485.0C112.0 -485.0 306.0 -485.0 326.0 -485.0C411.0 -485.0 424.0 -445.0 432.0 -295.0C422.0 -293.0 411.0 -289.0 403.0 -282.0C397.0 -427.0 388.0 -455.0 328.0 -455.0C286.0 -455.0 120.0 -455.0 91.0 -455.0C29.0 -455.0 16.0 -445.0 16.0 -409.0V0.0Z"/></g>
<g fill="red" transform="translate(800 200) scale(0.1 -0.1)"><path d="M0.0 0.0V-137.0H320.0V0.0ZM-56.0 322.0V184.0H244.0V-185.0H390.0V322.0ZM-58.0 0.0V-387.0C-58.0 -533.0 -16.0 -574.0 120.0 -574.0C148.0 -574.0 237.0 -574.0 267.0 -574.0C388.0 -574.0 427.0 -523.0 444.0 -354.0C404.0 -345.0 341.0 -320.0 310.0 -297.0C303.0 -415.0 296.0 -437.0 255.0 -437.0C232.0 -437.0 160.0 -437.0 140.0 -437.0C96.0 -437.0 89.0 -431.0 89.0 -386.0V0.0Z"/></g>
<g fill="black" opacity=".8" transform="translate(800 200) scale(0.1 -0.1)"><path d="M0.0 0.0V-134.0H333.0V0.0ZM-66.0 328.0V189.0H247.0V-180.0H390.0V328.0ZM-58.0 0.0V-384.0C-58.0 -527.0 -14.0 -567.0 118.0 -567.0C145.0 -567.0 231.0 -567.0 260.0 -567.0C383.0 -567.0 422.0 -514.0 438.0 -338.0C398.0 -327.0 336.0 -304.0 305.0 -279.0C298.0 -410.0 291.0 -433.0 248.0 -433.0C227.0 -433.0 158.0 -433.0 138.0 -433.0C94.0 -433.0 89.0 -428.0 89.0 -383.0V0.0Z"/></g>
<g fill="red" transform="translate(900 200) scale(0.1 -0.1)"><path d="M0.0 0.0V-30.0H402.0V0.0ZM-31.0 334.0V304.0H386.0V-85.0H415.0V334.0ZM-14.0 0.0V-399.0C-14.0 -464.0 15.0 -478.0 107.0 -478.0C127.0 -478.0 356.0 -478.0 378.0 -478.0C473.0 -478.0 488.0 -437.0 496.0 -284.0C486.0 -282.0 474.0 -277.0 465.0 -270.0C460.0 -420.0 449.0 -448.0 379.0 -448.0C331.0 -448.0 137.0 -448.0 103.0 -448.0C31.0 -448.0 16.0 -437.0 16.0 -400.0V0.0Z"/></g>
<g fill="black" opacity=".8" transform="translate(900 200) scale(0.1 -0.1)"><path d="M0.0 0.0V-30.0H404.0V0.0ZM-32.0 328.0V297.0H388.0V-86.0H417.0V328.0ZM-13.0 0.0V-398.0C-13.0 -463.0 14.0 -477.0 108.0 -477.0C127.0 -477.0 353.0 -477.0 375.0 -477.0C470.0 -477.0 485.0 -436.0 493.0 -279.0C483.0 -277.0 471.0 -272.0 462.0 -265.0C456.0 -418.0 446.0 -446.0 377.0 -446.0C329.0 -446.0 137.0 -446.0 103.0 -446.0C32.0 -446.0 17.0 -436.0 17.0 -398.0V0.0Z"/></g>
<g fill="red" transform="translate(1000 200) scale(0.1 -0.1)"><path d="M0.0 0.0V-137.0H365.0V0.0ZM-82.0 319.0V175.0H284.0V-184.0H431.0V319.0ZM-60.0 0.0V-363.0C-60.0 -511.0 -14.0 -552.0 131.0 -552.0C162.0 -552.0 264.0 -552.0 296.0 -552.0C428.0 -552.0 469.0 -500.0 486.0 -321.0C445.0 -311.0 381.0 -287.0 348.0 -262.0C341.0 -391.0 333.0 -413.0 284.0 -413.0C258.0 -413.0 173.0 -413.0 149.0 -413.0C97.0 -413.0 90.0 -407.0 90.0 -362.0V0.0Z"/></g>
<g fill="black" opacity=".8" transform="translate(1000 200) scale(0.1 -0.1)"><path d="M0.0 0.0V-138.0H362.0V0.0ZM-72.0 314.0V173.0H277.0V-184.0H427.0V314.0ZM-61.0 0.0V-366.0C-61.0 -513.0 -15.0 -554.0 132.0 -554.0C162.0 -554.0 268.0 -554.0 300.0 -554.0C432.0 -554.0 473.0 -503.0 491.0 -329.0C449.0 -319.0 385.0 -295.0 352.0 -271.0C345.0 -394.0 337.0 -415.0 289.0 -415.0C261.0 -415.0 175.0 -415.0 151.0 -415.0C97.0 -415.0 90.0 -409.0 90.0 -364.0V0.0Z"/></g>
<g fill="red" transform="translate(1100 200) scale(0.1 -0.1)"><path d="M0.0 0.0V-29.0H473.0V0.0ZM-58.0 221.0V191.0H451.0V-67.0H481.0V221.0ZM-13.0 0.0V-293.0C-13.0 -357.0 18.0 -367.0 122.0 -367.0C144.0 -367.0 414.0 -367.0 438.0 -367.0C541.0 -367.0 558.0 -332.0 566.0 -186.0C557.0 -184.0 545.0 -179.0 535.0 -172.0C529.0 -313.0 517.0 -338.0 439.0 -338.0C384.0 -338.0 156.0 -338.0 116.0 -338.0C33.0 -338.0 16.0 -329.0 16.0 -294.0V0.0Z"/></g>
<g fill="black" opacity=".8" transform="translate(1100 200) scale(0.1 -0.1)"><path d="M0.0 0.0V-28.0H475.0V0.0ZM-54.0 225.0V196.0H453.0V-67.0H484.0V225.0ZM-14.0 0.0V-294.0C-14.0 -357.0 17.0 -368.0 122.0 -368.0C143.0 -368.0 416.0 -368.0 440.0 -368.0C542.0 -368.0 558.0 -333.0 568.0 -191.0C559.0 -188.0 546.0 -184.0 536.0 -177.0C530.0 -314.0 518.0 -339.0 441.0 -339.0C385.0 -339.0 155.0 -339.0 115.0 -339.0C32.0 -339.0 15.0 -329.0 15.0 -294.0V0.0Z"/></g>
<g fill="red" transform="translate(1200 200) scale(0.1 -0.1)"><path d="M0.0 0.0V-124.0H365.0V0.0ZM-71.0 209.0V85.0H302.0V-166.0H449.0V209.0ZM-60.0 0.0V-248.0C-60.0 -380.0 -15.0 -417.0 147.0 -417.0C182.0 -417.0 321.0 -417.0 358.0 -417.0C486.0 -417.0 527.0 -382.0 546.0 -248.0C507.0 -241.0 448.0 -220.0 418.0 -200.0C411.0 -277.0 401.0 -289.0 347.0 -289.0C309.0 -289.0 189.0 -289.0 158.0 -289.0C88.0 -289.0 77.0 -284.0 77.0 -245.0V0.0Z"/></g>
<g fill="black" opacity=".8" transform="translate(1200 200) scale(0.1 -0.1)"><path d="M0.0 0.0V-121.0H364.0V0.0ZM-72.0 211.0V89.0H304.0V-162.0H448.0V211.0ZM-60.0 0.0V-248.0C-60.0 -379.0 -14.0 -415.0 147.0 -415.0C181.0 -415.0 319.0 -415.0 356.0 -415.0C485.0 -415.0 525.0 -379.0 544.0 -243.0C505.0 -236.0 447.0 -215.0 417.0 -196.0C411.0 -276.0 400.0 -288.0 345.0 -288.0C307.0 -288.0 189.0 -288.0 157.0 -288.0C86.0 -288.0 76.0 -283.0 76.0 -244.0V0.0Z"/></g>
</svg>
