<?xml version="1.0" encoding="UTF-8"?>
<svg width="1700" height="300" xmlns="http://www.w3.org/2000/svg">
<rect width="100%" height="100%" fill="white"/>
<g fill="green" transform="translate(100 100) scale(0.1 -0.1)"><path d="M-0.0 0.0V-383.0H35.0V0.0ZM-203.0 6.0V-83.0C-203.0 -179.0 -214.0 -295.0 -326.0 -386.0C-318.0 -391.0 -305.0 -401.0 -299.0 -410.0C-183.0 -313.0 -169.0 -190.0 -169.0 -83.0V6.0ZM206.0 8.0V-308.0C206.0 -366.0 208.0 -380.0 221.0 -390.0C233.0 -399.0 252.0 -402.0 268.0 -402.0C276.0 -402.0 307.0 -402.0 317.0 -402.0C330.0 -402.0 348.0 -399.0 358.0 -394.0C369.0 -389.0 379.0 -378.0 384.0 -362.0C388.0 -347.0 390.0 -295.0 390.0 -251.0C380.0 -248.0 368.0 -242.0 360.0 -236.0C359.0 -285.0 357.0 -322.0 355.0 -340.0C353.0 -353.0 349.0 -362.0 340.0 -365.0C335.0 -370.0 323.0 -371.0 311.0 -371.0C298.0 -371.0 280.0 -371.0 270.0 -371.0C260.0 -371.0 252.0 -369.0 246.0 -366.0C240.0 -361.0 239.0 -347.0 239.0 -323.0V8.0ZM-284.0 320.0V287.0H383.0V320.0ZM11.0 413.0C35.0 377.0 56.0 329.0 65.0 296.0L95.0 311.0C87.0 342.0 63.0 389.0 39.0 424.0ZM-197.0 305.0V86.0H322.0V119.0H-162.0V305.0Z"/></g>
<g fill="green" transform="translate(200 100) scale(0.1 -0.1)"><path d="M0.0 0.0V-412.0H141.0V0.0ZM-186.0 6.0V-85.0C-186.0 -162.0 -195.0 -255.0 -267.0 -328.0C-230.0 -352.0 -173.0 -401.0 -146.0 -435.0C-57.0 -337.0 -44.0 -202.0 -44.0 -91.0V6.0ZM191.0 4.0V-255.0C191.0 -340.0 198.0 -368.0 218.0 -391.0C238.0 -415.0 270.0 -426.0 299.0 -426.0C316.0 -426.0 335.0 -426.0 354.0 -426.0C373.0 -426.0 398.0 -421.0 414.0 -411.0C433.0 -401.0 445.0 -384.0 455.0 -363.0C463.0 -343.0 468.0 -295.0 472.0 -248.0C436.0 -235.0 390.0 -209.0 365.0 -186.0C365.0 -224.0 363.0 -255.0 361.0 -268.0C360.0 -281.0 357.0 -288.0 355.0 -290.0C353.0 -293.0 351.0 -294.0 348.0 -294.0C345.0 -294.0 345.0 -294.0 343.0 -294.0C339.0 -294.0 338.0 -291.0 336.0 -287.0C335.0 -283.0 335.0 -273.0 335.0 -258.0V4.0ZM-236.0 361.0V229.0H436.0V361.0ZM50.0 413.0C61.0 361.0 67.0 291.0 66.0 247.0L212.0 278.0C212.0 321.0 202.0 389.0 188.0 439.0ZM-173.0 332.0V42.0H393.0V175.0H-19.0V332.0Z"/></g>
<g fill="green" transform="translate(300 100) scale(0.1 -0.1)"><path d="M0.0 0.0V-317.0H29.0V0.0ZM-172.0 5.0V-71.0C-172.0 -150.0 -181.0 -245.0 -272.0 -320.0C-265.0 -324.0 -254.0 -332.0 -249.0 -340.0C-155.0 -260.0 -144.0 -159.0 -144.0 -71.0V5.0ZM175.0 7.0V-254.0C175.0 -302.0 176.0 -314.0 187.0 -323.0C197.0 -330.0 213.0 -333.0 227.0 -333.0C233.0 -333.0 259.0 -333.0 268.0 -333.0C278.0 -333.0 293.0 -330.0 302.0 -326.0C311.0 -322.0 320.0 -313.0 324.0 -300.0C327.0 -288.0 329.0 -245.0 329.0 -209.0C320.0 -206.0 310.0 -201.0 304.0 -196.0C303.0 -236.0 301.0 -267.0 299.0 -281.0C298.0 -292.0 295.0 -299.0 287.0 -302.0C283.0 -306.0 273.0 -307.0 263.0 -307.0C252.0 -307.0 237.0 -307.0 228.0 -307.0C220.0 -307.0 213.0 -305.0 208.0 -303.0C203.0 -298.0 202.0 -287.0 202.0 -267.0V7.0ZM-237.0 264.0V236.0H323.0V264.0ZM13.0 341.0C33.0 311.0 50.0 271.0 57.0 244.0L82.0 256.0C76.0 282.0 56.0 321.0 36.0 350.0ZM-165.0 251.0V73.0H272.0V101.0H-136.0V251.0Z"/></g>
<g fill="green" transform="translate(400 100) scale(0.1 -0.1)"><path d="M0.0 0.0V-341.0H118.0V0.0ZM-157.0 5.0V-73.0C-157.0 -135.0 -164.0 -209.0 -218.0 -268.0C-187.0 -289.0 -139.0 -330.0 -116.0 -359.0C-48.0 -279.0 -38.0 -170.0 -38.0 -78.0V5.0ZM162.0 3.0V-206.0C162.0 -279.0 167.0 -303.0 184.0 -322.0C201.0 -343.0 228.0 -352.0 252.0 -352.0C266.0 -352.0 282.0 -352.0 298.0 -352.0C313.0 -352.0 334.0 -348.0 347.0 -340.0C363.0 -332.0 373.0 -318.0 382.0 -301.0C389.0 -285.0 393.0 -247.0 397.0 -208.0C366.0 -197.0 327.0 -174.0 306.0 -155.0C306.0 -185.0 304.0 -209.0 303.0 -219.0C302.0 -229.0 299.0 -235.0 298.0 -237.0C296.0 -239.0 295.0 -240.0 292.0 -240.0C290.0 -240.0 290.0 -240.0 289.0 -240.0C285.0 -240.0 285.0 -237.0 283.0 -234.0C282.0 -231.0 282.0 -222.0 282.0 -209.0V3.0ZM-198.0 298.0V188.0H366.0V298.0ZM50.0 342.0C58.0 297.0 61.0 237.0 58.0 200.0L181.0 223.0C182.0 260.0 176.0 318.0 166.0 361.0ZM-145.0 280.0V34.0H331.0V145.0H-15.0V280.0Z"/></g>
<g fill="green" transform="translate(500 100) scale(0.1 -0.1)"><path d="M-0.0 0.0V-417.0H29.0V0.0ZM-151.0 6.0V-51.0C-151.0 -157.0 -161.0 -297.0 -289.0 -409.0C-282.0 -414.0 -271.0 -423.0 -265.0 -430.0C-136.0 -312.0 -123.0 -165.0 -123.0 -49.0V6.0ZM149.0 7.0V-354.0C149.0 -411.0 151.0 -423.0 164.0 -432.0C176.0 -440.0 195.0 -443.0 209.0 -443.0C216.0 -443.0 247.0 -443.0 256.0 -443.0C271.0 -443.0 289.0 -440.0 301.0 -432.0C311.0 -426.0 317.0 -414.0 322.0 -394.0C325.0 -374.0 327.0 -308.0 326.0 -255.0C318.0 -252.0 308.0 -247.0 302.0 -241.0C302.0 -304.0 301.0 -353.0 299.0 -374.0C296.0 -395.0 292.0 -405.0 284.0 -409.0C277.0 -415.0 264.0 -415.0 253.0 -415.0C240.0 -415.0 219.0 -415.0 210.0 -415.0C200.0 -415.0 191.0 -415.0 185.0 -412.0C179.0 -407.0 177.0 -393.0 177.0 -367.0V7.0ZM-244.0 355.0V325.0H335.0V355.0ZM-18.0 457.0C11.0 418.0 38.0 368.0 49.0 333.0L76.0 347.0C65.0 380.0 36.0 430.0 6.0 467.0ZM-148.0 345.0V79.0H279.0V107.0H-120.0V345.0Z"/></g>
<g fill="green" transform="translate(600 100) scale(0.1 -0.1)"><path d="M0.0 0.0V-443.0H119.0V0.0ZM-161.0 11.0V-35.0C-161.0 -126.0 -169.0 -267.0 -257.0 -377.0C-226.0 -396.0 -181.0 -437.0 -160.0 -465.0C-51.0 -328.0 -37.0 -150.0 -37.0 -39.0V11.0ZM160.0 10.0V-327.0C160.0 -396.0 167.0 -418.0 184.0 -436.0C202.0 -454.0 229.0 -463.0 254.0 -463.0C269.0 -463.0 289.0 -463.0 306.0 -463.0C326.0 -463.0 348.0 -459.0 364.0 -446.0C381.0 -436.0 391.0 -420.0 398.0 -396.0C404.0 -372.0 407.0 -313.0 410.0 -264.0C379.0 -253.0 341.0 -234.0 319.0 -215.0C319.0 -265.0 317.0 -307.0 316.0 -326.0C315.0 -343.0 313.0 -352.0 310.0 -355.0C308.0 -359.0 305.0 -359.0 302.0 -359.0C298.0 -359.0 295.0 -359.0 292.0 -359.0C288.0 -359.0 286.0 -358.0 284.0 -354.0C282.0 -351.0 282.0 -343.0 282.0 -327.0V10.0ZM-180.0 404.0V278.0H387.0V404.0ZM17.0 480.0C31.0 432.0 46.0 365.0 51.0 323.0L193.0 351.0C186.0 393.0 170.0 455.0 153.0 504.0ZM-123.0 331.0V39.0H347.0V168.0H4.0V331.0Z"/></g>
<g fill="green" transform="translate(700 100) scale(0.1 -0.1)"><path d="M-0.0 0.0V-398.0H33.0V0.0ZM-206.0 6.0V-82.0C-206.0 -177.0 -220.0 -292.0 -367.0 -378.0C-360.0 -383.0 -349.0 -392.0 -343.0 -401.0C-192.0 -309.0 -174.0 -189.0 -174.0 -82.0V6.0ZM205.0 6.0V-309.0C205.0 -361.0 207.0 -374.0 219.0 -382.0C233.0 -391.0 250.0 -394.0 265.0 -394.0C273.0 -394.0 307.0 -394.0 316.0 -394.0C330.0 -394.0 348.0 -391.0 358.0 -386.0C368.0 -380.0 376.0 -370.0 381.0 -354.0C385.0 -338.0 387.0 -286.0 387.0 -244.0C378.0 -241.0 368.0 -236.0 360.0 -231.0C360.0 -279.0 358.0 -317.0 356.0 -333.0C354.0 -348.0 349.0 -357.0 342.0 -360.0C336.0 -364.0 322.0 -365.0 310.0 -365.0C298.0 -365.0 278.0 -365.0 268.0 -365.0C258.0 -365.0 250.0 -364.0 244.0 -361.0C238.0 -356.0 237.0 -343.0 237.0 -321.0V6.0ZM-317.0 322.0V289.0H395.0V322.0ZM-46.0 421.0C-8.0 384.0 32.0 333.0 52.0 297.0L77.0 317.0C59.0 350.0 17.0 400.0 -23.0 438.0ZM-215.0 306.0V72.0H347.0V104.0H-181.0V306.0Z"/></g>
<g fill="green" transform="translate(800 100) scale(0.1 -0.1)"><path d="M0.0 0.0V-409.0H141.0V0.0ZM-193.0 6.0V-94.0C-193.0 -170.0 -205.0 -261.0 -301.0 -330.0C-265.0 -353.0 -210.0 -401.0 -185.0 -433.0C-68.0 -341.0 -52.0 -209.0 -52.0 -99.0V6.0ZM191.0 4.0V-263.0C191.0 -340.0 198.0 -366.0 217.0 -387.0C236.0 -408.0 267.0 -418.0 295.0 -418.0C312.0 -418.0 331.0 -418.0 350.0 -418.0C369.0 -418.0 393.0 -415.0 409.0 -404.0C428.0 -395.0 439.0 -378.0 449.0 -358.0C456.0 -338.0 461.0 -291.0 464.0 -247.0C430.0 -235.0 384.0 -211.0 360.0 -189.0C360.0 -227.0 358.0 -258.0 356.0 -272.0C355.0 -285.0 353.0 -293.0 351.0 -294.0C348.0 -297.0 346.0 -298.0 343.0 -298.0C340.0 -298.0 339.0 -298.0 337.0 -298.0C333.0 -298.0 332.0 -296.0 330.0 -292.0C329.0 -289.0 329.0 -280.0 329.0 -265.0V4.0ZM-257.0 354.0V229.0H445.0V354.0ZM28.0 414.0C38.0 370.0 49.0 310.0 51.0 272.0L202.0 297.0C197.0 333.0 185.0 391.0 174.0 434.0ZM-182.0 300.0V34.0H416.0V163.0H-28.0V300.0Z"/></g>
<g fill="green" transform="translate(900 100) scale(0.1 -0.1)"><path d="M0.0 0.0V-371.0H36.0V0.0ZM-201.0 4.0V-87.0C-201.0 -184.0 -211.0 -301.0 -318.0 -393.0C-309.0 -398.0 -295.0 -409.0 -289.0 -418.0C-177.0 -320.0 -163.0 -195.0 -163.0 -87.0V4.0ZM209.0 6.0V-301.0C209.0 -363.0 210.0 -376.0 223.0 -387.0C235.0 -397.0 253.0 -400.0 270.0 -400.0C278.0 -400.0 306.0 -400.0 316.0 -400.0C329.0 -400.0 347.0 -397.0 355.0 -392.0C367.0 -388.0 378.0 -378.0 383.0 -361.0C387.0 -348.0 389.0 -298.0 390.0 -255.0C379.0 -252.0 366.0 -246.0 355.0 -239.0C354.0 -286.0 353.0 -320.0 352.0 -337.0C349.0 -349.0 345.0 -359.0 337.0 -362.0C332.0 -367.0 322.0 -368.0 309.0 -368.0C297.0 -368.0 282.0 -368.0 272.0 -368.0C263.0 -368.0 256.0 -365.0 250.0 -362.0C245.0 -357.0 244.0 -342.0 244.0 -318.0V6.0ZM-281.0 319.0V285.0H361.0V319.0ZM28.0 410.0C43.0 374.0 54.0 328.0 57.0 297.0L90.0 309.0C88.0 339.0 75.0 384.0 60.0 418.0ZM-204.0 305.0V85.0H294.0V120.0H-166.0V305.0Z"/></g>
<g fill="green" transform="translate(1000 100) scale(0.1 -0.1)"><path d="M0.0 0.0V-416.0H147.0V0.0ZM-178.0 3.0V-91.0C-178.0 -171.0 -191.0 -270.0 -293.0 -343.0C-254.0 -365.0 -195.0 -413.0 -167.0 -445.0C-47.0 -349.0 -32.0 -212.0 -32.0 -96.0V3.0ZM186.0 3.0V-262.0C186.0 -345.0 194.0 -373.0 216.0 -395.0C236.0 -419.0 269.0 -429.0 300.0 -429.0C316.0 -429.0 337.0 -429.0 356.0 -429.0C377.0 -429.0 404.0 -424.0 422.0 -412.0C440.0 -400.0 453.0 -382.0 462.0 -358.0C469.0 -335.0 474.0 -278.0 478.0 -226.0C443.0 -213.0 397.0 -189.0 373.0 -168.0C373.0 -214.0 371.0 -250.0 369.0 -265.0C368.0 -282.0 365.0 -290.0 363.0 -293.0C361.0 -296.0 358.0 -297.0 355.0 -297.0C352.0 -297.0 351.0 -297.0 348.0 -297.0C344.0 -297.0 342.0 -294.0 340.0 -291.0C339.0 -286.0 338.0 -277.0 338.0 -262.0V3.0ZM-242.0 362.0V226.0H432.0V362.0ZM4.0 392.0C27.0 345.0 47.0 281.0 53.0 241.0L190.0 301.0C183.0 339.0 158.0 401.0 133.0 445.0ZM-187.0 315.0V56.0H374.0V189.0H-34.0V315.0Z"/></g>
<g fill="red" transform="translate(100 200) scale(0.1 -0.1)"><path d="M0.0 0.0V-352.0H30.0V0.0ZM-180.0 5.0V-81.0C-180.0 -163.0 -193.0 -261.0 -325.0 -333.0C-319.0 -338.0 -309.0 -346.0 -304.0 -354.0C-167.0 -277.0 -151.0 -175.0 -151.0 -81.0V5.0ZM187.0 3.0V-268.0C187.0 -315.0 189.0 -326.0 200.0 -334.0C210.0 -342.0 225.0 -344.0 238.0 -344.0C245.0 -344.0 272.0 -344.0 280.0 -344.0C292.0 -344.0 307.0 -342.0 314.0 -338.0C323.0 -333.0 330.0 -324.0 334.0 -310.0C337.0 -297.0 339.0 -253.0 340.0 -218.0C332.0 -216.0 323.0 -212.0 316.0 -206.0C315.0 -247.0 314.0 -278.0 312.0 -292.0C310.0 -303.0 306.0 -311.0 301.0 -314.0C296.0 -317.0 285.0 -318.0 275.0 -318.0C265.0 -318.0 249.0 -318.0 241.0 -318.0C233.0 -318.0 226.0 -317.0 222.0 -314.0C217.0 -310.0 216.0 -299.0 216.0 -279.0V3.0ZM-282.0 281.0V251.0H345.0V281.0ZM-44.0 368.0C-9.0 336.0 29.0 289.0 47.0 257.0L70.0 276.0C52.0 306.0 14.0 351.0 -24.0 385.0ZM-200.0 266.0V56.0H302.0V86.0H-171.0V266.0Z"/></g>
<g fill="black" opacity=".8" transform="translate(100 200) scale(0.1 -0.1)"><path d="M0.0 0.0V-346.0H29.0V0.0ZM-183.0 5.0V-75.0C-183.0 -158.0 -195.0 -258.0 -325.0 -333.0C-318.0 -337.0 -309.0 -345.0 -303.0 -353.0C-170.0 -273.0 -154.0 -168.0 -154.0 -75.0V5.0ZM184.0 5.0V-267.0C184.0 -314.0 185.0 -325.0 195.0 -332.0C208.0 -340.0 222.0 -343.0 236.0 -343.0C243.0 -343.0 272.0 -343.0 280.0 -343.0C292.0 -343.0 308.0 -340.0 316.0 -336.0C325.0 -331.0 333.0 -323.0 337.0 -309.0C340.0 -296.0 342.0 -251.0 343.0 -215.0C334.0 -212.0 325.0 -208.0 318.0 -203.0C318.0 -244.0 316.0 -276.0 314.0 -289.0C313.0 -302.0 308.0 -310.0 303.0 -313.0C297.0 -317.0 285.0 -318.0 275.0 -318.0C264.0 -318.0 248.0 -318.0 238.0 -318.0C230.0 -318.0 223.0 -316.0 218.0 -314.0C213.0 -309.0 212.0 -298.0 212.0 -279.0V5.0ZM-282.0 281.0V251.0H344.0V281.0ZM-39.0 368.0C-7.0 335.0 27.0 291.0 43.0 260.0L66.0 276.0C51.0 305.0 16.0 349.0 -18.0 382.0ZM-194.0 267.0V62.0H301.0V91.0H-164.0V267.0Z"/></g>
<g fill="red" transform="translate(200 200) scale(0.1 -0.1)"><path d="M0.0 0.0V-360.0H129.0V0.0ZM-169.0 3.0V-91.0C-169.0 -158.0 -181.0 -236.0 -271.0 -293.0C-238.0 -313.0 -187.0 -355.0 -164.0 -383.0C-56.0 -306.0 -42.0 -193.0 -42.0 -96.0V3.0ZM169.0 2.0V-230.0C169.0 -297.0 176.0 -320.0 193.0 -339.0C210.0 -358.0 238.0 -367.0 262.0 -367.0C277.0 -367.0 293.0 -367.0 309.0 -367.0C326.0 -367.0 348.0 -363.0 362.0 -354.0C378.0 -345.0 389.0 -330.0 396.0 -311.0C402.0 -293.0 407.0 -249.0 409.0 -209.0C379.0 -199.0 338.0 -178.0 317.0 -159.0C317.0 -194.0 316.0 -222.0 314.0 -235.0C313.0 -248.0 312.0 -254.0 310.0 -256.0C308.0 -258.0 307.0 -259.0 304.0 -259.0C303.0 -259.0 303.0 -259.0 302.0 -259.0C299.0 -259.0 298.0 -257.0 297.0 -254.0C296.0 -251.0 297.0 -243.0 297.0 -230.0V2.0ZM-215.0 305.0V193.0H389.0V305.0ZM13.0 349.0C26.0 314.0 42.0 266.0 47.0 236.0L172.0 267.0C165.0 296.0 149.0 341.0 134.0 374.0ZM-164.0 248.0V34.0H365.0V148.0H-25.0V248.0Z"/></g>
<g fill="black" opacity=".8" transform="translate(200 200) scale(0.1 -0.1)"><path d="M0.0 0.0V-359.0H126.0V0.0ZM-169.0 4.0V-87.0C-169.0 -154.0 -181.0 -233.0 -275.0 -292.0C-242.0 -312.0 -193.0 -354.0 -171.0 -381.0C-58.0 -303.0 -43.0 -189.0 -43.0 -91.0V4.0ZM168.0 3.0V-230.0C168.0 -298.0 174.0 -321.0 192.0 -338.0C208.0 -357.0 236.0 -365.0 261.0 -365.0C276.0 -365.0 293.0 -365.0 310.0 -365.0C327.0 -365.0 349.0 -363.0 363.0 -353.0C380.0 -345.0 390.0 -329.0 399.0 -311.0C405.0 -293.0 409.0 -250.0 412.0 -210.0C382.0 -200.0 341.0 -179.0 320.0 -160.0C320.0 -195.0 318.0 -223.0 317.0 -235.0C316.0 -248.0 314.0 -255.0 313.0 -257.0C310.0 -259.0 308.0 -260.0 305.0 -260.0C303.0 -260.0 301.0 -260.0 300.0 -260.0C296.0 -260.0 295.0 -258.0 293.0 -255.0C292.0 -252.0 292.0 -244.0 292.0 -231.0V3.0ZM-232.0 309.0V198.0H393.0V309.0ZM12.0 355.0C24.0 318.0 38.0 267.0 41.0 236.0L172.0 265.0C165.0 295.0 151.0 344.0 139.0 380.0ZM-167.0 256.0V33.0H364.0V146.0H-30.0V256.0Z"/></g>
<g fill="red" transform="translate(300 200) scale(0.1 -0.1)"><path d="M0.0 0.0V-318.0H30.0V0.0ZM-160.0 4.0V-71.0C-160.0 -152.0 -168.0 -252.0 -260.0 -330.0C-253.0 -335.0 -242.0 -343.0 -237.0 -351.0C-141.0 -268.0 -130.0 -162.0 -130.0 -71.0V4.0ZM167.0 5.0V-257.0C167.0 -308.0 169.0 -319.0 180.0 -328.0C188.0 -336.0 204.0 -338.0 217.0 -338.0C224.0 -338.0 247.0 -338.0 255.0 -338.0C266.0 -338.0 280.0 -336.0 287.0 -332.0C297.0 -328.0 305.0 -319.0 309.0 -305.0C312.0 -293.0 314.0 -250.0 315.0 -213.0C306.0 -211.0 296.0 -206.0 288.0 -200.0C287.0 -241.0 286.0 -271.0 284.0 -286.0C282.0 -296.0 279.0 -304.0 273.0 -307.0C269.0 -311.0 260.0 -312.0 250.0 -312.0C240.0 -312.0 227.0 -312.0 219.0 -312.0C211.0 -312.0 205.0 -310.0 201.0 -307.0C196.0 -303.0 195.0 -291.0 195.0 -270.0V5.0ZM-224.0 271.0V243.0H296.0V271.0ZM17.0 348.0C33.0 318.0 45.0 278.0 49.0 251.0L76.0 262.0C72.0 288.0 58.0 327.0 42.0 356.0ZM-162.0 259.0V70.0H242.0V99.0H-133.0V259.0Z"/></g>
<g fill="black" opacity=".8" transform="translate(300 200) scale(0.1 -0.1)"><path d="M0.0 0.0V-315.0H29.0V0.0ZM-162.0 4.0V-69.0C-162.0 -150.0 -170.0 -251.0 -261.0 -330.0C-253.0 -334.0 -241.0 -343.0 -236.0 -350.0C-143.0 -266.0 -132.0 -159.0 -132.0 -68.0V4.0ZM168.0 5.0V-257.0C168.0 -308.0 168.0 -319.0 179.0 -329.0C189.0 -337.0 204.0 -340.0 219.0 -340.0C225.0 -340.0 248.0 -340.0 257.0 -340.0C268.0 -340.0 283.0 -337.0 291.0 -332.0C300.0 -329.0 309.0 -320.0 313.0 -306.0C316.0 -294.0 318.0 -250.0 319.0 -213.0C309.0 -210.0 299.0 -205.0 291.0 -200.0C290.0 -241.0 289.0 -272.0 288.0 -285.0C286.0 -297.0 283.0 -305.0 276.0 -308.0C271.0 -312.0 263.0 -313.0 252.0 -313.0C242.0 -313.0 228.0 -313.0 220.0 -313.0C212.0 -313.0 206.0 -311.0 201.0 -309.0C197.0 -304.0 195.0 -292.0 195.0 -272.0V5.0ZM-229.0 270.0V242.0H299.0V270.0ZM20.0 347.0C35.0 317.0 45.0 278.0 48.0 252.0L75.0 262.0C73.0 287.0 60.0 325.0 46.0 354.0ZM-162.0 259.0V71.0H244.0V100.0H-132.0V259.0Z"/></g>
<g fill="red" transform="translate(400 200) scale(0.1 -0.1)"><path d="M0.0 0.0V-351.0H120.0V0.0ZM-148.0 3.0V-70.0C-148.0 -138.0 -158.0 -224.0 -235.0 -289.0C-203.0 -308.0 -155.0 -347.0 -132.0 -374.0C-40.0 -289.0 -28.0 -170.0 -28.0 -75.0V3.0ZM155.0 3.0V-225.0C155.0 -293.0 162.0 -316.0 180.0 -335.0C196.0 -354.0 223.0 -363.0 248.0 -363.0C262.0 -363.0 278.0 -363.0 294.0 -363.0C311.0 -363.0 333.0 -358.0 347.0 -349.0C362.0 -339.0 373.0 -324.0 380.0 -304.0C386.0 -285.0 390.0 -238.0 393.0 -195.0C364.0 -185.0 326.0 -165.0 306.0 -147.0C306.0 -185.0 305.0 -215.0 303.0 -228.0C302.0 -242.0 300.0 -248.0 298.0 -251.0C297.0 -253.0 295.0 -254.0 292.0 -254.0C290.0 -254.0 289.0 -254.0 287.0 -254.0C284.0 -254.0 282.0 -252.0 281.0 -249.0C280.0 -245.0 280.0 -237.0 280.0 -225.0V3.0ZM-191.0 306.0V193.0H361.0V306.0ZM12.0 338.0C29.0 298.0 44.0 244.0 48.0 210.0L162.0 254.0C157.0 287.0 139.0 338.0 120.0 376.0ZM-147.0 265.0V44.0H313.0V155.0H-21.0V265.0Z"/></g>
<g fill="black" opacity=".8" transform="translate(400 200) scale(0.1 -0.1)"><path d="M0.0 0.0V-350.0H119.0V0.0ZM-147.0 4.0V-69.0C-147.0 -136.0 -157.0 -223.0 -237.0 -289.0C-205.0 -307.0 -158.0 -346.0 -135.0 -373.0C-40.0 -287.0 -28.0 -169.0 -28.0 -73.0V4.0ZM153.0 3.0V-225.0C153.0 -293.0 159.0 -316.0 177.0 -334.0C194.0 -354.0 221.0 -362.0 246.0 -362.0C258.0 -362.0 276.0 -362.0 292.0 -362.0C309.0 -362.0 331.0 -358.0 345.0 -348.0C360.0 -338.0 371.0 -324.0 378.0 -304.0C384.0 -285.0 388.0 -238.0 392.0 -195.0C362.0 -184.0 325.0 -164.0 305.0 -147.0C305.0 -185.0 303.0 -215.0 302.0 -228.0C301.0 -241.0 298.0 -248.0 297.0 -251.0C295.0 -254.0 293.0 -254.0 290.0 -254.0C288.0 -254.0 287.0 -254.0 285.0 -254.0C281.0 -254.0 280.0 -252.0 278.0 -249.0C276.0 -246.0 276.0 -238.0 276.0 -225.0V3.0ZM-193.0 307.0V195.0H355.0V307.0ZM9.0 339.0C27.0 298.0 42.0 243.0 46.0 210.0L161.0 254.0C156.0 287.0 138.0 340.0 119.0 378.0ZM-147.0 268.0V44.0H310.0V155.0H-22.0V268.0Z"/></g>
<g fill="red" transform="translate(500 200) scale(0.1 -0.1)"><path d="M0.0 0.0V-318.0H30.0V0.0ZM-178.0 4.0V-71.0C-178.0 -152.0 -189.0 -252.0 -288.0 -330.0C-279.0 -334.0 -269.0 -343.0 -264.0 -350.0C-160.0 -268.0 -147.0 -162.0 -147.0 -71.0V4.0ZM174.0 5.0V-257.0C174.0 -308.0 176.0 -319.0 187.0 -328.0C198.0 -336.0 213.0 -338.0 228.0 -338.0C235.0 -338.0 260.0 -338.0 269.0 -338.0C281.0 -338.0 297.0 -336.0 304.0 -332.0C314.0 -328.0 323.0 -319.0 327.0 -305.0C331.0 -293.0 333.0 -250.0 334.0 -213.0C324.0 -211.0 313.0 -206.0 305.0 -200.0C304.0 -241.0 303.0 -271.0 301.0 -286.0C299.0 -296.0 295.0 -304.0 288.0 -307.0C284.0 -311.0 274.0 -312.0 263.0 -312.0C253.0 -312.0 238.0 -312.0 230.0 -312.0C221.0 -312.0 215.0 -310.0 210.0 -307.0C205.0 -303.0 204.0 -291.0 204.0 -270.0V5.0ZM-264.0 271.0V243.0H315.0V271.0ZM-3.0 350.0C12.0 320.0 27.0 280.0 31.0 253.0L59.0 264.0C55.0 290.0 40.0 329.0 24.0 358.0ZM-181.0 259.0V70.0H270.0V99.0H-149.0V259.0Z"/></g>
<g fill="black" opacity=".8" transform="translate(500 200) scale(0.1 -0.1)"><path d="M0.0 0.0V-323.0H30.0V0.0ZM-176.0 3.0V-76.0C-176.0 -158.0 -186.0 -256.0 -296.0 -331.0C-289.0 -335.0 -278.0 -344.0 -273.0 -352.0C-158.0 -272.0 -144.0 -168.0 -144.0 -76.0V3.0ZM181.0 4.0V-255.0C181.0 -305.0 182.0 -315.0 192.0 -324.0C204.0 -333.0 218.0 -336.0 233.0 -336.0C239.0 -336.0 264.0 -336.0 273.0 -336.0C284.0 -336.0 299.0 -333.0 306.0 -329.0C316.0 -325.0 325.0 -317.0 329.0 -303.0C332.0 -292.0 334.0 -249.0 335.0 -214.0C326.0 -211.0 316.0 -207.0 306.0 -201.0C306.0 -240.0 305.0 -270.0 304.0 -282.0C302.0 -293.0 298.0 -302.0 292.0 -305.0C287.0 -308.0 278.0 -309.0 267.0 -309.0C257.0 -309.0 243.0 -309.0 234.0 -309.0C227.0 -309.0 221.0 -307.0 216.0 -305.0C212.0 -300.0 211.0 -288.0 211.0 -269.0V4.0ZM-260.0 272.0V242.0H316.0V272.0ZM-5.0 353.0C15.0 321.0 34.0 280.0 42.0 253.0L68.0 265.0C61.0 292.0 41.0 332.0 19.0 363.0ZM-187.0 259.0V65.0H266.0V95.0H-155.0V259.0Z"/></g>
<g fill="red" transform="translate(600 200) scale(0.1 -0.1)"><path d="M0.0 0.0V-351.0H128.0V0.0ZM-158.0 3.0V-89.0C-158.0 -155.0 -173.0 -231.0 -282.0 -285.0C-250.0 -305.0 -200.0 -348.0 -178.0 -376.0C-49.0 -303.0 -33.0 -191.0 -33.0 -93.0V3.0ZM158.0 3.0V-221.0C158.0 -289.0 166.0 -312.0 184.0 -331.0C201.0 -350.0 230.0 -358.0 257.0 -358.0C271.0 -358.0 290.0 -358.0 307.0 -358.0C325.0 -358.0 349.0 -354.0 363.0 -345.0C380.0 -335.0 391.0 -320.0 399.0 -300.0C406.0 -281.0 411.0 -234.0 413.0 -191.0C384.0 -181.0 344.0 -161.0 324.0 -143.0C323.0 -181.0 322.0 -211.0 320.0 -224.0C319.0 -238.0 317.0 -244.0 314.0 -247.0C311.0 -249.0 308.0 -250.0 305.0 -250.0C302.0 -250.0 298.0 -250.0 295.0 -250.0C292.0 -250.0 289.0 -248.0 287.0 -244.0C286.0 -241.0 286.0 -233.0 286.0 -221.0V3.0ZM-247.0 306.0V193.0H385.0V306.0ZM-8.0 338.0C7.0 298.0 23.0 244.0 29.0 211.0L159.0 258.0C151.0 290.0 132.0 342.0 115.0 380.0ZM-176.0 265.0V44.0H337.0V155.0H-46.0V265.0Z"/></g>
<g fill="black" opacity=".8" transform="translate(600 200) scale(0.1 -0.1)"><path d="M0.0 0.0V-353.0H127.0V0.0ZM-157.0 2.0V-86.0C-157.0 -152.0 -170.0 -234.0 -271.0 -293.0C-238.0 -311.0 -188.0 -352.0 -165.0 -378.0C-46.0 -301.0 -32.0 -188.0 -32.0 -89.0V2.0ZM161.0 2.0V-225.0C161.0 -293.0 167.0 -316.0 186.0 -333.0C203.0 -353.0 231.0 -360.0 257.0 -360.0C270.0 -360.0 289.0 -360.0 305.0 -360.0C323.0 -360.0 345.0 -357.0 361.0 -347.0C376.0 -337.0 387.0 -321.0 395.0 -301.0C401.0 -282.0 405.0 -234.0 408.0 -191.0C379.0 -180.0 339.0 -160.0 319.0 -143.0C319.0 -182.0 317.0 -212.0 316.0 -225.0C315.0 -240.0 312.0 -247.0 311.0 -250.0C309.0 -252.0 306.0 -253.0 303.0 -253.0C301.0 -253.0 300.0 -253.0 297.0 -253.0C293.0 -253.0 292.0 -251.0 290.0 -249.0C289.0 -245.0 288.0 -237.0 288.0 -224.0V2.0ZM-222.0 303.0V191.0H377.0V303.0ZM-10.0 332.0C10.0 295.0 31.0 246.0 37.0 216.0L157.0 265.0C148.0 294.0 125.0 341.0 105.0 375.0ZM-168.0 251.0V44.0H334.0V156.0H-36.0V251.0Z"/></g>
<g fill="red" transform="translate(700 200) scale(0.1 -0.1)"><path d="M0.0 0.0V-406.0H30.0V0.0ZM-142.0 4.0V-58.0C-142.0 -160.0 -153.0 -295.0 -282.0 -401.0C-274.0 -406.0 -264.0 -415.0 -258.0 -422.0C-126.0 -310.0 -112.0 -170.0 -112.0 -57.0V4.0ZM148.0 2.0V-344.0C148.0 -401.0 151.0 -412.0 163.0 -421.0C173.0 -430.0 189.0 -432.0 204.0 -432.0C211.0 -432.0 236.0 -432.0 245.0 -432.0C260.0 -432.0 276.0 -430.0 285.0 -423.0C295.0 -416.0 301.0 -405.0 305.0 -385.0C308.0 -367.0 310.0 -305.0 311.0 -254.0C302.0 -252.0 292.0 -247.0 285.0 -240.0C285.0 -300.0 284.0 -345.0 282.0 -366.0C279.0 -384.0 275.0 -395.0 269.0 -399.0C263.0 -404.0 252.0 -405.0 241.0 -405.0C231.0 -405.0 214.0 -405.0 206.0 -405.0C197.0 -405.0 189.0 -404.0 185.0 -401.0C179.0 -396.0 178.0 -383.0 178.0 -357.0V2.0ZM-253.0 343.0V313.0H313.0V343.0ZM-31.0 442.0C-3.0 405.0 25.0 355.0 36.0 321.0L63.0 335.0C52.0 368.0 24.0 417.0 -6.0 453.0ZM-165.0 333.0V61.0H264.0V91.0H-136.0V333.0Z"/></g>
<g fill="black" opacity=".8" transform="translate(700 200) scale(0.1 -0.1)"><path d="M0.0 0.0V-401.0H28.0V0.0ZM-145.0 4.0V-52.0C-145.0 -155.0 -155.0 -292.0 -289.0 -400.0C-281.0 -405.0 -271.0 -414.0 -265.0 -421.0C-129.0 -307.0 -115.0 -163.0 -115.0 -50.0V4.0ZM146.0 4.0V-339.0C146.0 -395.0 147.0 -406.0 159.0 -414.0C171.0 -423.0 188.0 -426.0 202.0 -426.0C209.0 -426.0 238.0 -426.0 246.0 -426.0C261.0 -426.0 278.0 -423.0 289.0 -415.0C299.0 -410.0 305.0 -399.0 309.0 -379.0C312.0 -361.0 314.0 -298.0 314.0 -248.0C306.0 -245.0 296.0 -241.0 288.0 -235.0C288.0 -294.0 288.0 -340.0 287.0 -358.0C283.0 -379.0 279.0 -389.0 273.0 -393.0C266.0 -399.0 254.0 -399.0 242.0 -399.0C231.0 -399.0 212.0 -399.0 204.0 -399.0C195.0 -399.0 187.0 -398.0 181.0 -395.0C176.0 -390.0 174.0 -377.0 174.0 -352.0V4.0ZM-246.0 345.0V315.0H310.0V345.0ZM-25.0 445.0C1.0 407.0 26.0 358.0 36.0 325.0L62.0 338.0C53.0 370.0 27.0 418.0 -1.0 454.0ZM-155.0 336.0V70.0H256.0V99.0H-126.0V336.0Z"/></g>
<g fill="red" transform="translate(800 200) scale(0.1 -0.1)"><path d="M0.0 0.0V-431.0H125.0V0.0ZM-152.0 7.0V-50.0C-152.0 -140.0 -166.0 -276.0 -288.0 -377.0C-256.0 -395.0 -209.0 -433.0 -188.0 -459.0C-43.0 -334.0 -26.0 -164.0 -26.0 -53.0V7.0ZM150.0 8.0V-324.0C150.0 -386.0 158.0 -407.0 175.0 -424.0C192.0 -440.0 220.0 -448.0 245.0 -448.0C259.0 -448.0 278.0 -448.0 295.0 -448.0C315.0 -448.0 339.0 -444.0 355.0 -431.0C370.0 -419.0 381.0 -402.0 386.0 -377.0C391.0 -351.0 395.0 -286.0 396.0 -236.0C368.0 -226.0 330.0 -210.0 309.0 -193.0C309.0 -248.0 308.0 -292.0 307.0 -313.0C306.0 -333.0 305.0 -342.0 302.0 -346.0C301.0 -350.0 298.0 -350.0 294.0 -350.0C292.0 -350.0 288.0 -350.0 286.0 -350.0C283.0 -350.0 280.0 -349.0 279.0 -346.0C277.0 -343.0 277.0 -335.0 277.0 -321.0V8.0ZM-173.0 386.0V262.0H372.0V386.0ZM-32.0 442.0C-8.0 403.0 24.0 349.0 37.0 315.0L168.0 368.0C152.0 401.0 121.0 449.0 94.0 487.0ZM-134.0 289.0V49.0H330.0V172.0H-8.0V289.0Z"/></g>
<g fill="black" opacity=".8" transform="translate(800 200) scale(0.1 -0.1)"><path d="M0.0 0.0V-433.0H120.0V0.0ZM-152.0 8.0V-42.0C-152.0 -132.0 -164.0 -274.0 -284.0 -380.0C-253.0 -397.0 -209.0 -435.0 -188.0 -459.0C-45.0 -330.0 -29.0 -156.0 -29.0 -44.0V8.0ZM151.0 9.0V-328.0C151.0 -390.0 158.0 -410.0 176.0 -426.0C193.0 -442.0 220.0 -449.0 245.0 -449.0C259.0 -449.0 280.0 -449.0 296.0 -449.0C317.0 -449.0 340.0 -446.0 357.0 -432.0C373.0 -421.0 383.0 -404.0 389.0 -379.0C393.0 -353.0 396.0 -288.0 399.0 -237.0C370.0 -227.0 334.0 -211.0 314.0 -195.0C314.0 -251.0 312.0 -296.0 311.0 -316.0C310.0 -336.0 308.0 -346.0 305.0 -350.0C303.0 -354.0 299.0 -354.0 296.0 -354.0C292.0 -354.0 288.0 -354.0 284.0 -354.0C280.0 -354.0 278.0 -353.0 276.0 -350.0C274.0 -347.0 273.0 -340.0 273.0 -325.0V9.0ZM-187.0 391.0V268.0H375.0V391.0ZM-32.0 450.0C-8.0 410.0 21.0 354.0 32.0 319.0L165.0 369.0C150.0 403.0 121.0 454.0 96.0 493.0ZM-134.0 295.0V47.0H329.0V170.0H-12.0V295.0Z"/></g>
<g fill="red" transform="translate(900 200) scale(0.1 -0.1)"><path d="M0.0 0.0V-318.0H30.0V0.0ZM-160.0 4.0V-71.0C-160.0 -152.0 -168.0 -252.0 -260.0 -330.0C-253.0 -335.0 -242.0 -343.0 -237.0 -351.0C-141.0 -268.0 -130.0 -162.0 -130.0 -71.0V4.0ZM167.0 5.0V-257.0C167.0 -308.0 169.0 -319.0 180.0 -328.0C188.0 -336.0 204.0 -338.0 217.0 -338.0C224.0 -338.0 247.0 -338.0 255.0 -338.0C266.0 -338.0 280.0 -336.0 287.0 -332.0C297.0 -328.0 305.0 -319.0 309.0 -305.0C312.0 -293.0 314.0 -250.0 315.0 -213.0C306.0 -211.0 296.0 -206.0 288.0 -200.0C287.0 -241.0 286.0 -271.0 284.0 -286.0C282.0 -296.0 279.0 -304.0 273.0 -307.0C269.0 -311.0 260.0 -312.0 250.0 -312.0C240.0 -312.0 227.0 -312.0 219.0 -312.0C211.0 -312.0 205.0 -310.0 201.0 -307.0C196.0 -303.0 195.0 -291.0 195.0 -270.0V5.0ZM-224.0 271.0V243.0H296.0V271.0ZM17.0 348.0C33.0 318.0 45.0 278.0 49.0 251.0L76.0 262.0C72.0 288.0 58.0 327.0 42.0 356.0ZM-162.0 259.0V70.0H242.0V99.0H-133.0V259.0Z"/></g>
<g fill="black" opacity=".8" transform="translate(900 200) scale(0.1 -0.1)"><path d="M0.0 0.0V-315.0H29.0V0.0ZM-161.0 4.0V-68.0C-161.0 -150.0 -169.0 -250.0 -259.0 -330.0C-252.0 -334.0 -240.0 -342.0 -235.0 -350.0C-142.0 -265.0 -131.0 -158.0 -131.0 -68.0V4.0ZM166.0 5.0V-258.0C166.0 -308.0 167.0 -319.0 178.0 -329.0C188.0 -336.0 203.0 -339.0 217.0 -339.0C223.0 -339.0 247.0 -339.0 256.0 -339.0C266.0 -339.0 281.0 -336.0 289.0 -332.0C299.0 -328.0 308.0 -320.0 312.0 -305.0C314.0 -294.0 316.0 -250.0 317.0 -213.0C308.0 -210.0 297.0 -205.0 289.0 -199.0C289.0 -240.0 287.0 -271.0 286.0 -285.0C284.0 -297.0 281.0 -305.0 274.0 -308.0C270.0 -312.0 261.0 -313.0 251.0 -313.0C240.0 -313.0 227.0 -313.0 218.0 -313.0C211.0 -313.0 204.0 -311.0 199.0 -309.0C195.0 -304.0 194.0 -292.0 194.0 -272.0V5.0ZM-227.0 270.0V242.0H298.0V270.0ZM20.0 347.0C34.0 317.0 45.0 278.0 48.0 252.0L75.0 261.0C73.0 287.0 60.0 325.0 45.0 354.0ZM-161.0 259.0V71.0H243.0V99.0H-131.0V259.0Z"/></g>
<g fill="red" transform="translate(1000 200) scale(0.1 -0.1)"><path d="M0.0 0.0V-351.0H119.0V0.0ZM-146.0 3.0V-70.0C-146.0 -138.0 -156.0 -224.0 -232.0 -289.0C-201.0 -308.0 -153.0 -347.0 -130.0 -374.0C-39.0 -289.0 -28.0 -170.0 -28.0 -75.0V3.0ZM154.0 3.0V-225.0C154.0 -293.0 161.0 -316.0 178.0 -335.0C194.0 -354.0 221.0 -363.0 246.0 -363.0C259.0 -363.0 275.0 -363.0 291.0 -363.0C308.0 -363.0 330.0 -358.0 343.0 -349.0C358.0 -339.0 369.0 -324.0 376.0 -304.0C382.0 -285.0 386.0 -238.0 389.0 -195.0C360.0 -185.0 323.0 -165.0 303.0 -147.0C303.0 -185.0 302.0 -215.0 300.0 -228.0C299.0 -242.0 297.0 -248.0 295.0 -251.0C294.0 -253.0 292.0 -254.0 289.0 -254.0C287.0 -254.0 286.0 -254.0 284.0 -254.0C281.0 -254.0 279.0 -252.0 278.0 -249.0C277.0 -245.0 277.0 -237.0 277.0 -225.0V3.0ZM-188.0 306.0V193.0H349.0V306.0ZM12.0 338.0C29.0 298.0 44.0 244.0 48.0 210.0L160.0 254.0C156.0 287.0 138.0 338.0 118.0 376.0ZM-145.0 265.0V44.0H309.0V155.0H-20.0V265.0Z"/></g>
<g fill="black" opacity=".8" transform="translate(1000 200) scale(0.1 -0.1)"><path d="M0.0 0.0V-350.0H118.0V0.0ZM-146.0 4.0V-68.0C-146.0 -135.0 -156.0 -222.0 -235.0 -288.0C-204.0 -307.0 -157.0 -346.0 -134.0 -372.0C-39.0 -286.0 -28.0 -168.0 -28.0 -72.0V4.0ZM152.0 3.0V-225.0C152.0 -293.0 158.0 -316.0 176.0 -333.0C193.0 -353.0 220.0 -361.0 244.0 -361.0C257.0 -361.0 275.0 -361.0 290.0 -361.0C307.0 -361.0 329.0 -357.0 343.0 -347.0C358.0 -338.0 369.0 -323.0 376.0 -304.0C382.0 -285.0 386.0 -238.0 390.0 -195.0C360.0 -184.0 323.0 -164.0 303.0 -147.0C303.0 -185.0 301.0 -215.0 300.0 -228.0C299.0 -241.0 297.0 -249.0 295.0 -252.0C293.0 -254.0 291.0 -255.0 288.0 -255.0C286.0 -255.0 285.0 -255.0 283.0 -255.0C279.0 -255.0 278.0 -252.0 276.0 -250.0C275.0 -246.0 274.0 -238.0 274.0 -225.0V3.0ZM-192.0 307.0V195.0H354.0V307.0ZM10.0 339.0C27.0 299.0 42.0 244.0 46.0 210.0L161.0 254.0C156.0 287.0 137.0 339.0 119.0 378.0ZM-146.0 267.0V44.0H308.0V154.0H-22.0V267.0Z"/></g>
<g fill="red" transform="translate(1100 200) scale(0.1 -0.1)"><path d="M0.0 0.0V-406.0H30.0V0.0ZM-170.0 6.0V-56.0C-170.0 -158.0 -181.0 -293.0 -311.0 -399.0C-303.0 -404.0 -293.0 -413.0 -287.0 -420.0C-155.0 -308.0 -141.0 -168.0 -141.0 -55.0V6.0ZM162.0 8.0V-339.0C162.0 -395.0 165.0 -407.0 178.0 -416.0C190.0 -424.0 209.0 -426.0 225.0 -426.0C232.0 -426.0 264.0 -426.0 274.0 -426.0C289.0 -426.0 308.0 -424.0 319.0 -417.0C329.0 -411.0 337.0 -399.0 341.0 -380.0C345.0 -361.0 347.0 -299.0 347.0 -248.0C338.0 -246.0 328.0 -241.0 322.0 -235.0C321.0 -295.0 320.0 -340.0 317.0 -361.0C315.0 -379.0 310.0 -389.0 302.0 -393.0C296.0 -398.0 282.0 -399.0 270.0 -399.0C257.0 -399.0 235.0 -399.0 226.0 -399.0C215.0 -399.0 206.0 -398.0 200.0 -395.0C193.0 -390.0 191.0 -377.0 191.0 -351.0V8.0ZM-266.0 345.0V315.0H352.0V345.0ZM-21.0 444.0C7.0 407.0 34.0 357.0 45.0 323.0L73.0 337.0C62.0 370.0 33.0 419.0 4.0 455.0ZM-162.0 334.0V83.0H299.0V112.0H-132.0V334.0Z"/></g>
<g fill="black" opacity=".8" transform="translate(1100 200) scale(0.1 -0.1)"><path d="M0.0 0.0V-410.0H30.0V0.0ZM-168.0 6.0V-61.0C-168.0 -163.0 -179.0 -296.0 -312.0 -399.0C-305.0 -404.0 -294.0 -413.0 -288.0 -421.0C-153.0 -311.0 -139.0 -173.0 -139.0 -60.0V6.0ZM167.0 7.0V-340.0C167.0 -395.0 169.0 -408.0 182.0 -416.0C194.0 -425.0 213.0 -428.0 227.0 -428.0C234.0 -428.0 266.0 -428.0 275.0 -428.0C290.0 -428.0 308.0 -425.0 319.0 -418.0C329.0 -412.0 336.0 -400.0 341.0 -382.0C344.0 -363.0 346.0 -301.0 345.0 -252.0C337.0 -249.0 327.0 -244.0 320.0 -238.0C320.0 -296.0 319.0 -342.0 317.0 -361.0C314.0 -380.0 310.0 -390.0 302.0 -394.0C296.0 -399.0 282.0 -399.0 271.0 -399.0C258.0 -399.0 238.0 -399.0 228.0 -399.0C218.0 -399.0 210.0 -399.0 204.0 -396.0C198.0 -391.0 196.0 -377.0 196.0 -352.0V7.0ZM-266.0 344.0V314.0H354.0V344.0ZM-25.0 445.0C7.0 407.0 37.0 357.0 50.0 322.0L77.0 337.0C64.0 370.0 32.0 420.0 -1.0 457.0ZM-169.0 333.0V77.0H300.0V107.0H-139.0V333.0Z"/></g>
<g fill="red" transform="translate(1200 200) scale(0.1 -0.1)"><path d="M0.0 0.0V-432.0H125.0V0.0ZM-171.0 10.0V-52.0C-171.0 -138.0 -181.0 -262.0 -273.0 -359.0C-242.0 -380.0 -194.0 -424.0 -173.0 -454.0C-58.0 -331.0 -43.0 -166.0 -43.0 -56.0V10.0ZM168.0 9.0V-306.0C168.0 -378.0 176.0 -401.0 194.0 -420.0C212.0 -439.0 241.0 -448.0 267.0 -448.0C283.0 -448.0 304.0 -448.0 322.0 -448.0C341.0 -448.0 365.0 -444.0 380.0 -433.0C398.0 -423.0 409.0 -407.0 417.0 -384.0C424.0 -361.0 428.0 -307.0 430.0 -259.0C399.0 -248.0 358.0 -227.0 336.0 -207.0C335.0 -254.0 334.0 -292.0 332.0 -309.0C331.0 -325.0 329.0 -333.0 326.0 -336.0C323.0 -339.0 320.0 -340.0 316.0 -340.0C312.0 -340.0 308.0 -340.0 305.0 -340.0C301.0 -340.0 298.0 -338.0 296.0 -334.0C294.0 -331.0 294.0 -322.0 294.0 -307.0V9.0ZM-221.0 392.0V266.0H410.0V392.0ZM22.0 466.0C32.0 416.0 43.0 348.0 46.0 305.0L196.0 330.0C191.0 373.0 179.0 437.0 166.0 487.0ZM-145.0 331.0V37.0H368.0V165.0H-12.0V331.0Z"/></g>
<g fill="black" opacity=".8" transform="translate(1200 200) scale(0.1 -0.1)"><path d="M0.0 0.0V-432.0H126.0V0.0ZM-171.0 9.0V-53.0C-171.0 -140.0 -180.0 -265.0 -270.0 -362.0C-237.0 -382.0 -189.0 -426.0 -167.0 -455.0C-56.0 -332.0 -41.0 -168.0 -41.0 -58.0V9.0ZM170.0 8.0V-306.0C170.0 -378.0 177.0 -402.0 195.0 -421.0C213.0 -440.0 241.0 -449.0 267.0 -449.0C283.0 -449.0 302.0 -449.0 320.0 -449.0C340.0 -449.0 362.0 -445.0 378.0 -433.0C396.0 -423.0 406.0 -407.0 414.0 -384.0C421.0 -361.0 424.0 -306.0 427.0 -259.0C395.0 -247.0 355.0 -227.0 332.0 -207.0C332.0 -253.0 330.0 -291.0 329.0 -309.0C328.0 -324.0 326.0 -333.0 323.0 -336.0C321.0 -339.0 318.0 -340.0 315.0 -340.0C312.0 -340.0 309.0 -340.0 306.0 -340.0C302.0 -340.0 301.0 -338.0 299.0 -334.0C297.0 -331.0 297.0 -323.0 297.0 -307.0V8.0ZM-204.0 388.0V262.0H405.0V388.0ZM21.0 459.0C34.0 412.0 48.0 347.0 52.0 306.0L196.0 333.0C190.0 374.0 175.0 435.0 160.0 482.0ZM-141.0 322.0V38.0H368.0V167.0H-6.0V322.0Z"/></g>
<g fill="red" transform="translate(1300 200) scale(0.1 -0.1)"><path d="M0.0 0.0V-318.0H30.0V0.0ZM-172.0 4.0V-71.0C-172.0 -152.0 -183.0 -252.0 -282.0 -330.0C-273.0 -334.0 -263.0 -343.0 -258.0 -350.0C-154.0 -268.0 -141.0 -162.0 -141.0 -71.0V4.0ZM180.0 5.0V-257.0C180.0 -308.0 182.0 -319.0 193.0 -328.0C204.0 -336.0 219.0 -338.0 234.0 -338.0C241.0 -338.0 266.0 -338.0 275.0 -338.0C287.0 -338.0 303.0 -336.0 310.0 -332.0C320.0 -328.0 329.0 -319.0 333.0 -305.0C337.0 -293.0 339.0 -250.0 340.0 -213.0C330.0 -211.0 319.0 -206.0 311.0 -200.0C310.0 -241.0 309.0 -271.0 307.0 -286.0C305.0 -296.0 301.0 -304.0 294.0 -307.0C290.0 -311.0 280.0 -312.0 269.0 -312.0C259.0 -312.0 244.0 -312.0 236.0 -312.0C227.0 -312.0 221.0 -310.0 216.0 -307.0C211.0 -303.0 210.0 -291.0 210.0 -270.0V5.0ZM-251.0 271.0V243.0H322.0V271.0ZM18.0 348.0C35.0 318.0 50.0 278.0 54.0 251.0L82.0 262.0C78.0 288.0 62.0 327.0 46.0 356.0ZM-175.0 259.0V70.0H262.0V99.0H-143.0V259.0Z"/></g>
<g fill="black" opacity=".8" transform="translate(1300 200) scale(0.1 -0.1)"><path d="M0.0 0.0V-320.0H30.0V0.0ZM-172.0 4.0V-73.0C-172.0 -155.0 -181.0 -254.0 -277.0 -331.0C-269.0 -335.0 -258.0 -344.0 -253.0 -352.0C-153.0 -269.0 -141.0 -164.0 -141.0 -73.0V4.0ZM177.0 5.0V-257.0C177.0 -308.0 178.0 -319.0 189.0 -329.0C199.0 -336.0 215.0 -339.0 229.0 -339.0C235.0 -339.0 260.0 -339.0 269.0 -339.0C280.0 -339.0 295.0 -336.0 303.0 -332.0C313.0 -328.0 322.0 -320.0 326.0 -306.0C329.0 -295.0 331.0 -251.0 332.0 -215.0C322.0 -212.0 312.0 -207.0 304.0 -201.0C303.0 -242.0 301.0 -272.0 300.0 -286.0C298.0 -297.0 295.0 -305.0 288.0 -308.0C284.0 -312.0 274.0 -313.0 264.0 -313.0C253.0 -313.0 239.0 -313.0 230.0 -313.0C223.0 -313.0 216.0 -310.0 211.0 -308.0C207.0 -303.0 206.0 -291.0 206.0 -271.0V5.0ZM-243.0 271.0V242.0H314.0V271.0ZM14.0 350.0C31.0 319.0 45.0 279.0 50.0 252.0L76.0 263.0C72.0 289.0 56.0 328.0 39.0 358.0ZM-173.0 259.0V71.0H260.0V101.0H-142.0V259.0Z"/></g>
<g fill="red" transform="translate(1400 200) scale(0.1 -0.1)"><path d="M0.0 0.0V-351.0H123.0V0.0ZM-153.0 3.0V-70.0C-153.0 -138.0 -162.0 -224.0 -241.0 -289.0C-209.0 -308.0 -159.0 -347.0 -136.0 -374.0C-42.0 -289.0 -30.0 -170.0 -30.0 -75.0V3.0ZM156.0 3.0V-225.0C156.0 -293.0 163.0 -316.0 180.0 -335.0C197.0 -354.0 225.0 -363.0 250.0 -363.0C264.0 -363.0 281.0 -363.0 297.0 -363.0C314.0 -363.0 337.0 -358.0 351.0 -349.0C367.0 -339.0 377.0 -324.0 384.0 -304.0C391.0 -285.0 395.0 -238.0 398.0 -195.0C369.0 -185.0 330.0 -165.0 309.0 -147.0C309.0 -185.0 308.0 -215.0 306.0 -228.0C306.0 -242.0 304.0 -248.0 302.0 -251.0C300.0 -253.0 298.0 -254.0 295.0 -254.0C293.0 -254.0 292.0 -254.0 290.0 -254.0C287.0 -254.0 285.0 -252.0 284.0 -249.0C283.0 -245.0 283.0 -237.0 283.0 -225.0V3.0ZM-196.0 306.0V193.0H361.0V306.0ZM12.0 338.0C29.0 298.0 44.0 244.0 48.0 210.0L165.0 254.0C160.0 287.0 141.0 338.0 121.0 376.0ZM-152.0 265.0V44.0H317.0V155.0H-23.0V265.0Z"/></g>
<g fill="black" opacity=".8" transform="translate(1400 200) scale(0.1 -0.1)"><path d="M0.0 0.0V-352.0H123.0V0.0ZM-155.0 3.0V-77.0C-155.0 -143.0 -165.0 -225.0 -245.0 -287.0C-212.0 -306.0 -163.0 -347.0 -140.0 -374.0C-44.0 -293.0 -32.0 -178.0 -32.0 -81.0V3.0ZM160.0 3.0V-220.0C160.0 -291.0 166.0 -315.0 184.0 -333.0C201.0 -354.0 229.0 -362.0 255.0 -362.0C268.0 -362.0 286.0 -362.0 302.0 -362.0C319.0 -362.0 341.0 -358.0 356.0 -348.0C371.0 -339.0 382.0 -324.0 390.0 -305.0C396.0 -286.0 400.0 -241.0 404.0 -198.0C374.0 -187.0 335.0 -166.0 314.0 -148.0C314.0 -185.0 312.0 -213.0 311.0 -225.0C310.0 -239.0 307.0 -246.0 306.0 -248.0C304.0 -250.0 302.0 -251.0 299.0 -251.0C297.0 -251.0 296.0 -251.0 294.0 -251.0C290.0 -251.0 290.0 -248.0 288.0 -246.0C286.0 -242.0 286.0 -234.0 286.0 -221.0V3.0ZM-206.0 306.0V193.0H369.0V306.0ZM15.0 339.0C31.0 298.0 45.0 242.0 47.0 208.0L167.0 250.0C162.0 283.0 145.0 337.0 128.0 375.0ZM-156.0 269.0V43.0H326.0V155.0H-26.0V269.0Z"/></g>
<g fill="red" transform="translate(1500 200) scale(0.1 -0.1)"><path d="M0.0 0.0V-397.0H29.0V0.0ZM-162.0 4.0V-57.0C-162.0 -158.0 -174.0 -293.0 -324.0 -397.0C-316.0 -402.0 -306.0 -411.0 -301.0 -418.0C-147.0 -309.0 -132.0 -169.0 -132.0 -56.0V4.0ZM162.0 5.0V-324.0C162.0 -379.0 164.0 -389.0 177.0 -398.0C188.0 -406.0 207.0 -408.0 221.0 -408.0C229.0 -408.0 260.0 -408.0 268.0 -408.0C284.0 -408.0 302.0 -406.0 311.0 -400.0C322.0 -394.0 329.0 -384.0 333.0 -365.0C337.0 -347.0 339.0 -289.0 340.0 -241.0C330.0 -239.0 321.0 -235.0 313.0 -229.0C312.0 -285.0 312.0 -327.0 310.0 -345.0C307.0 -362.0 302.0 -373.0 296.0 -377.0C290.0 -381.0 277.0 -382.0 264.0 -382.0C253.0 -382.0 232.0 -382.0 223.0 -382.0C213.0 -382.0 205.0 -381.0 199.0 -378.0C193.0 -373.0 191.0 -360.0 191.0 -335.0V5.0ZM-265.0 343.0V313.0H327.0V343.0ZM-29.0 442.0C0.0 405.0 27.0 355.0 38.0 321.0L66.0 335.0C55.0 368.0 26.0 417.0 -3.0 453.0ZM-169.0 333.0V75.0H267.0V105.0H-139.0V333.0Z"/></g>
<g fill="black" opacity=".8" transform="translate(1500 200) scale(0.1 -0.1)"><path d="M0.0 0.0V-399.0H30.0V0.0ZM-162.0 4.0V-61.0C-162.0 -163.0 -173.0 -295.0 -314.0 -397.0C-307.0 -402.0 -296.0 -411.0 -290.0 -418.0C-146.0 -310.0 -130.0 -172.0 -130.0 -60.0V4.0ZM163.0 4.0V-330.0C163.0 -385.0 164.0 -396.0 176.0 -405.0C189.0 -414.0 205.0 -417.0 220.0 -417.0C227.0 -417.0 257.0 -417.0 265.0 -417.0C280.0 -417.0 298.0 -414.0 307.0 -407.0C317.0 -401.0 324.0 -392.0 329.0 -372.0C332.0 -355.0 334.0 -296.0 334.0 -248.0C325.0 -245.0 316.0 -241.0 306.0 -235.0C307.0 -290.0 306.0 -333.0 305.0 -351.0C302.0 -370.0 297.0 -380.0 292.0 -384.0C284.0 -389.0 272.0 -389.0 260.0 -389.0C249.0 -389.0 231.0 -389.0 222.0 -389.0C213.0 -389.0 205.0 -388.0 200.0 -385.0C195.0 -380.0 193.0 -366.0 193.0 -343.0V4.0ZM-270.0 340.0V309.0H328.0V340.0ZM-34.0 440.0C-5.0 402.0 23.0 353.0 35.0 319.0L62.0 334.0C51.0 366.0 22.0 414.0 -9.0 451.0ZM-177.0 329.0V68.0H275.0V99.0H-146.0V329.0Z"/></g>
<g fill="red" transform="translate(1600 200) scale(0.1 -0.1)"><path d="M0.0 0.0V-431.0H125.0V0.0ZM-160.0 7.0V-50.0C-160.0 -140.0 -174.0 -276.0 -296.0 -377.0C-264.0 -395.0 -217.0 -433.0 -196.0 -459.0C-51.0 -334.0 -34.0 -164.0 -34.0 -53.0V7.0ZM160.0 8.0V-321.0C160.0 -383.0 169.0 -404.0 187.0 -421.0C204.0 -437.0 232.0 -445.0 258.0 -445.0C273.0 -445.0 295.0 -445.0 312.0 -445.0C333.0 -445.0 358.0 -441.0 374.0 -428.0C391.0 -417.0 401.0 -399.0 407.0 -374.0C413.0 -348.0 416.0 -284.0 418.0 -232.0C390.0 -223.0 351.0 -206.0 330.0 -190.0C330.0 -245.0 329.0 -290.0 328.0 -310.0C327.0 -330.0 326.0 -339.0 322.0 -343.0C319.0 -346.0 316.0 -347.0 312.0 -347.0C308.0 -347.0 303.0 -347.0 299.0 -347.0C295.0 -347.0 291.0 -346.0 289.0 -343.0C287.0 -339.0 287.0 -332.0 287.0 -318.0V8.0ZM-216.0 386.0V262.0H393.0V386.0ZM-34.0 442.0C-11.0 403.0 17.0 349.0 29.0 315.0L162.0 365.0C147.0 398.0 119.0 447.0 94.0 485.0ZM-150.0 287.0V46.0H345.0V170.0H-24.0V287.0Z"/></g>
<g fill="black" opacity=".8" transform="translate(1600 200) scale(0.1 -0.1)"><path d="M0.0 0.0V-429.0H128.0V0.0ZM-162.0 7.0V-59.0C-162.0 -147.0 -176.0 -278.0 -304.0 -374.0C-271.0 -391.0 -223.0 -431.0 -201.0 -457.0C-50.0 -339.0 -32.0 -175.0 -32.0 -62.0V7.0ZM160.0 7.0V-315.0C160.0 -379.0 168.0 -401.0 187.0 -418.0C204.0 -435.0 232.0 -442.0 259.0 -442.0C273.0 -442.0 295.0 -442.0 312.0 -442.0C333.0 -442.0 357.0 -440.0 374.0 -425.0C390.0 -414.0 401.0 -397.0 408.0 -372.0C412.0 -346.0 416.0 -283.0 418.0 -233.0C389.0 -222.0 350.0 -205.0 329.0 -188.0C329.0 -242.0 327.0 -285.0 326.0 -305.0C325.0 -325.0 323.0 -335.0 321.0 -338.0C318.0 -341.0 314.0 -342.0 311.0 -342.0C308.0 -342.0 304.0 -342.0 300.0 -342.0C296.0 -342.0 294.0 -341.0 292.0 -338.0C290.0 -334.0 289.0 -328.0 289.0 -312.0V7.0ZM-212.0 382.0V257.0H395.0V382.0ZM-35.0 434.0C-11.0 397.0 18.0 343.0 31.0 309.0L166.0 362.0C150.0 393.0 120.0 443.0 96.0 480.0ZM-153.0 286.0V47.0H350.0V172.0H-23.0V286.0Z"/></g>
</svg>
