<?xml version="1.0" encoding="UTF-8"?>
<svg width="1700" height="300" xmlns="http://www.w3.org/2000/svg">
<rect width="100%" height="100%" fill="white"/>
<g fill="green" transform="translate(100 100) scale(0.1 -0.1)"><path d="M0.0 0.0V-27.0H431.0V0.0ZM-6.0 373.0V345.0H416.0V-103.0H444.0V373.0ZM-16.0 373.0V-381.0C-16.0 -463.0 13.0 -482.0 110.0 -482.0C132.0 -482.0 378.0 -482.0 401.0 -482.0C498.0 -482.0 511.0 -440.0 519.0 -309.0C511.0 -307.0 500.0 -303.0 490.0 -297.0C484.0 -424.0 474.0 -459.0 405.0 -459.0C354.0 -459.0 143.0 -459.0 106.0 -459.0C29.0 -459.0 11.0 -440.0 11.0 -383.0V373.0Z"/></g>
<g fill="green" transform="translate(200 100) scale(0.1 -0.1)"><path d="M0.0 0.0V-130.0H368.0V0.0ZM-1.0 372.0V243.0H291.0V-197.0H432.0V372.0ZM-78.0 372.0V-382.0C-78.0 -550.0 -32.0 -591.0 110.0 -591.0C142.0 -591.0 263.0 -591.0 299.0 -591.0C435.0 -591.0 475.0 -525.0 493.0 -352.0C454.0 -344.0 397.0 -318.0 364.0 -295.0C353.0 -431.0 342.0 -462.0 285.0 -462.0C261.0 -462.0 152.0 -462.0 124.0 -462.0C67.0 -462.0 61.0 -454.0 61.0 -385.0V372.0Z"/></g>
<g fill="green" transform="translate(300 100) scale(0.1 -0.1)"><path d="M0.0 0.0V-16.0H280.0V0.0ZM-5.0 259.0V242.0H270.0V-71.0H287.0V259.0ZM-10.0 259.0V-261.0C-10.0 -316.0 9.0 -329.0 72.0 -329.0C87.0 -329.0 248.0 -329.0 263.0 -329.0C327.0 -329.0 336.0 -301.0 341.0 -215.0C336.0 -214.0 329.0 -212.0 322.0 -208.0C319.0 -291.0 312.0 -315.0 266.0 -315.0C232.0 -315.0 94.0 -315.0 70.0 -315.0C19.0 -315.0 7.0 -302.0 7.0 -263.0V259.0Z"/></g>
<g fill="green" transform="translate(400 100) scale(0.1 -0.1)"><path d="M0.0 0.0V-84.0H243.0V0.0ZM-1.0 264.0V181.0H190.0V-133.0H280.0V264.0ZM-53.0 264.0V-269.0C-53.0 -380.0 -22.0 -407.0 69.0 -407.0C89.0 -407.0 170.0 -407.0 193.0 -407.0C285.0 -407.0 310.0 -360.0 321.0 -243.0C297.0 -238.0 261.0 -221.0 239.0 -206.0C231.0 -303.0 224.0 -326.0 185.0 -326.0C169.0 -326.0 96.0 -326.0 77.0 -326.0C39.0 -326.0 35.0 -320.0 35.0 -272.0V264.0Z"/></g>
<g fill="green" transform="translate(500 100) scale(0.1 -0.1)"><path d="M0.0 0.0V-34.0H527.0V0.0ZM-5.0 338.0V303.0H508.0V-98.0H544.0V338.0ZM-20.0 338.0V-320.0C-20.0 -405.0 15.0 -422.0 129.0 -422.0C156.0 -422.0 454.0 -422.0 481.0 -422.0C588.0 -422.0 604.0 -383.0 613.0 -250.0C602.0 -248.0 587.0 -242.0 577.0 -235.0C570.0 -363.0 558.0 -391.0 484.0 -391.0C423.0 -391.0 167.0 -391.0 125.0 -391.0C34.0 -391.0 15.0 -374.0 15.0 -321.0V338.0Z"/></g>
<g fill="green" transform="translate(600 100) scale(0.1 -0.1)"><path d="M0.0 0.0V-147.0H420.0V0.0ZM-5.0 315.0V169.0H351.0V-198.0H515.0V315.0ZM-103.0 315.0V-321.0C-103.0 -500.0 -51.0 -546.0 123.0 -546.0C162.0 -546.0 309.0 -546.0 353.0 -546.0C503.0 -546.0 552.0 -488.0 573.0 -315.0C528.0 -305.0 460.0 -278.0 424.0 -253.0C413.0 -372.0 399.0 -395.0 337.0 -395.0C303.0 -395.0 172.0 -395.0 139.0 -395.0C67.0 -395.0 59.0 -388.0 59.0 -321.0V315.0Z"/></g>
<g fill="green" transform="translate(700 100) scale(0.1 -0.1)"><path d="M0.0 0.0V-21.0H419.0V0.0ZM-8.0 357.0V334.0H408.0V-100.0H431.0V357.0ZM-15.0 357.0V-393.0C-15.0 -475.0 13.0 -496.0 104.0 -496.0C125.0 -496.0 357.0 -496.0 378.0 -496.0C478.0 -496.0 490.0 -450.0 500.0 -314.0C492.0 -313.0 484.0 -309.0 475.0 -303.0C467.0 -437.0 457.0 -476.0 384.0 -476.0C334.0 -476.0 137.0 -476.0 100.0 -476.0C26.0 -476.0 7.0 -457.0 7.0 -396.0V357.0Z"/></g>
<g fill="green" transform="translate(800 100) scale(0.1 -0.1)"><path d="M0.0 0.0V-115.0H391.0V0.0ZM-5.0 362.0V249.0H321.0V-189.0H445.0V362.0ZM-34.0 362.0V-379.0C-34.0 -532.0 9.0 -568.0 141.0 -568.0C171.0 -568.0 295.0 -568.0 329.0 -568.0C462.0 -568.0 498.0 -503.0 514.0 -339.0C480.0 -331.0 431.0 -307.0 401.0 -288.0C389.0 -426.0 378.0 -458.0 317.0 -458.0C294.0 -458.0 179.0 -458.0 149.0 -458.0C91.0 -458.0 85.0 -450.0 85.0 -381.0V362.0Z"/></g>
<g fill="green" transform="translate(900 100) scale(0.1 -0.1)"><path d="M0.0 0.0V-34.0H436.0V0.0ZM-3.0 369.0V335.0H419.0V-101.0H453.0V369.0ZM-19.0 369.0V-397.0C-19.0 -483.0 10.0 -502.0 110.0 -502.0C133.0 -502.0 380.0 -502.0 404.0 -502.0C500.0 -502.0 514.0 -457.0 522.0 -312.0C510.0 -309.0 498.0 -305.0 489.0 -298.0C481.0 -436.0 473.0 -470.0 406.0 -470.0C355.0 -470.0 144.0 -470.0 107.0 -470.0C29.0 -470.0 13.0 -453.0 13.0 -398.0V369.0Z"/></g>
<g fill="green" transform="translate(1000 100) scale(0.1 -0.1)"><path d="M0.0 0.0V-149.0H354.0V0.0ZM3.0 352.0V203.0H271.0V-200.0H434.0V352.0ZM-83.0 352.0V-367.0C-83.0 -550.0 -36.0 -596.0 116.0 -596.0C150.0 -596.0 260.0 -596.0 295.0 -596.0C429.0 -596.0 473.0 -534.0 493.0 -358.0C446.0 -349.0 381.0 -319.0 344.0 -294.0C335.0 -414.0 326.0 -442.0 278.0 -442.0C255.0 -442.0 163.0 -442.0 139.0 -442.0C87.0 -442.0 81.0 -433.0 81.0 -368.0V352.0Z"/></g>
<g fill="red" transform="translate(100 200) scale(0.1 -0.1)"><path d="M0.0 0.0V-30.0H380.0V0.0ZM0.0 218.0V189.0H365.0V-63.0H395.0V218.0ZM-17.0 218.0V-217.0C-17.0 -278.0 8.0 -290.0 92.0 -290.0C111.0 -290.0 323.0 -290.0 343.0 -290.0C417.0 -290.0 429.0 -262.0 435.0 -160.0C425.0 -158.0 413.0 -153.0 406.0 -147.0C401.0 -243.0 393.0 -260.0 344.0 -260.0C301.0 -260.0 119.0 -260.0 89.0 -260.0C24.0 -260.0 13.0 -251.0 13.0 -217.0V218.0Z"/></g>
<g fill="black" opacity=".8" transform="translate(100 200) scale(0.1 -0.1)"><path d="M0.0 0.0V-29.0H380.0V0.0ZM-1.0 218.0V189.0H364.0V-64.0H395.0V218.0ZM-17.0 218.0V-217.0C-17.0 -279.0 8.0 -290.0 90.0 -290.0C111.0 -290.0 324.0 -290.0 344.0 -290.0C417.0 -290.0 430.0 -262.0 436.0 -160.0C424.0 -158.0 412.0 -154.0 406.0 -148.0C400.0 -243.0 393.0 -260.0 344.0 -260.0C300.0 -260.0 118.0 -260.0 89.0 -260.0C24.0 -260.0 13.0 -251.0 13.0 -217.0V218.0Z"/></g>
<g fill="red" transform="translate(200 200) scale(0.1 -0.1)"><path d="M0.0 0.0V-118.0H284.0V0.0ZM0.0 186.0V68.0H233.0V-137.0H366.0V186.0ZM-79.0 186.0V-193.0C-79.0 -328.0 -41.0 -365.0 91.0 -365.0C120.0 -365.0 216.0 -365.0 246.0 -365.0C349.0 -365.0 388.0 -330.0 404.0 -211.0C366.0 -203.0 311.0 -182.0 282.0 -162.0C277.0 -226.0 269.0 -238.0 233.0 -238.0C209.0 -238.0 129.0 -238.0 109.0 -238.0C62.0 -238.0 56.0 -233.0 56.0 -191.0V186.0Z"/></g>
<g fill="black" opacity=".8" transform="translate(200 200) scale(0.1 -0.1)"><path d="M0.0 0.0V-118.0H283.0V0.0ZM-1.0 186.0V68.0H233.0V-136.0H366.0V186.0ZM-78.0 186.0V-193.0C-78.0 -328.0 -41.0 -365.0 91.0 -365.0C120.0 -365.0 216.0 -365.0 246.0 -365.0C350.0 -365.0 387.0 -330.0 403.0 -211.0C366.0 -203.0 312.0 -181.0 283.0 -162.0C277.0 -226.0 269.0 -239.0 233.0 -239.0C208.0 -239.0 130.0 -239.0 110.0 -239.0C61.0 -239.0 55.0 -233.0 55.0 -191.0V186.0Z"/></g>
<g fill="red" transform="translate(300 200) scale(0.1 -0.1)"><path d="M0.0 0.0V-29.0H454.0V0.0ZM-5.0 342.0V313.0H440.0V-97.0H469.0V342.0ZM-19.0 342.0V-386.0C-19.0 -472.0 11.0 -492.0 111.0 -492.0C133.0 -492.0 382.0 -492.0 405.0 -492.0C508.0 -492.0 521.0 -445.0 531.0 -298.0C521.0 -296.0 510.0 -291.0 501.0 -284.0C493.0 -427.0 483.0 -463.0 410.0 -463.0C357.0 -463.0 145.0 -463.0 106.0 -463.0C27.0 -463.0 10.0 -447.0 10.0 -388.0V342.0Z"/></g>
<g fill="black" opacity=".8" transform="translate(300 200) scale(0.1 -0.1)"><path d="M0.0 0.0V-29.0H453.0V0.0ZM-5.0 343.0V313.0H439.0V-97.0H469.0V343.0ZM-19.0 343.0V-386.0C-19.0 -472.0 11.0 -492.0 110.0 -492.0C133.0 -492.0 382.0 -492.0 405.0 -492.0C508.0 -492.0 522.0 -445.0 532.0 -298.0C520.0 -296.0 510.0 -291.0 502.0 -284.0C492.0 -427.0 483.0 -463.0 410.0 -463.0C357.0 -463.0 145.0 -463.0 107.0 -463.0C28.0 -463.0 10.0 -446.0 10.0 -388.0V343.0Z"/></g>
<g fill="red" transform="translate(400 200) scale(0.1 -0.1)"><path d="M0.0 0.0V-135.0H397.0V0.0ZM-3.0 329.0V195.0H325.0V-192.0H472.0V329.0ZM-46.0 329.0V-348.0C-46.0 -515.0 0.0 -558.0 149.0 -558.0C183.0 -558.0 307.0 -558.0 343.0 -558.0C478.0 -558.0 521.0 -497.0 539.0 -331.0C498.0 -322.0 438.0 -296.0 404.0 -273.0C394.0 -394.0 384.0 -421.0 328.0 -421.0C303.0 -421.0 193.0 -421.0 165.0 -421.0C106.0 -421.0 100.0 -414.0 100.0 -348.0V329.0Z"/></g>
<g fill="black" opacity=".8" transform="translate(400 200) scale(0.1 -0.1)"><path d="M0.0 0.0V-135.0H397.0V0.0ZM-3.0 329.0V195.0H325.0V-192.0H473.0V329.0ZM-46.0 329.0V-348.0C-46.0 -516.0 -0.0 -558.0 150.0 -558.0C183.0 -558.0 307.0 -558.0 343.0 -558.0C479.0 -558.0 521.0 -498.0 539.0 -332.0C497.0 -323.0 439.0 -295.0 405.0 -274.0C394.0 -394.0 384.0 -422.0 328.0 -422.0C303.0 -422.0 194.0 -422.0 165.0 -422.0C106.0 -422.0 100.0 -413.0 100.0 -348.0V329.0Z"/></g>
<g fill="red" transform="translate(500 200) scale(0.1 -0.1)"><path d="M0.0 0.0V-30.0H389.0V0.0ZM-1.0 336.0V307.0H376.0V-89.0H405.0V336.0ZM-16.0 336.0V-358.0C-16.0 -434.0 10.0 -451.0 100.0 -451.0C120.0 -451.0 340.0 -451.0 362.0 -451.0C448.0 -451.0 460.0 -412.0 467.0 -284.0C458.0 -281.0 447.0 -277.0 438.0 -271.0C432.0 -393.0 424.0 -424.0 365.0 -424.0C319.0 -424.0 130.0 -424.0 96.0 -424.0C27.0 -424.0 13.0 -409.0 13.0 -359.0V336.0Z"/></g>
<g fill="black" opacity=".8" transform="translate(500 200) scale(0.1 -0.1)"><path d="M0.0 0.0V-29.0H390.0V0.0ZM-3.0 336.0V306.0H375.0V-92.0H404.0V336.0ZM-17.0 336.0V-359.0C-17.0 -436.0 9.0 -453.0 99.0 -453.0C119.0 -453.0 341.0 -453.0 362.0 -453.0C449.0 -453.0 461.0 -413.0 468.0 -284.0C458.0 -281.0 448.0 -278.0 439.0 -272.0C433.0 -395.0 425.0 -426.0 364.0 -426.0C318.0 -426.0 129.0 -426.0 96.0 -426.0C26.0 -426.0 11.0 -410.0 11.0 -360.0V336.0Z"/></g>
<g fill="red" transform="translate(600 200) scale(0.1 -0.1)"><path d="M0.0 0.0V-131.0H320.0V0.0ZM7.0 325.0V194.0H244.0V-176.0H387.0V325.0ZM-73.0 325.0V-337.0C-73.0 -500.0 -30.0 -542.0 105.0 -542.0C135.0 -542.0 235.0 -542.0 267.0 -542.0C387.0 -542.0 428.0 -485.0 445.0 -329.0C404.0 -321.0 345.0 -295.0 312.0 -272.0C304.0 -380.0 296.0 -405.0 252.0 -405.0C232.0 -405.0 147.0 -405.0 125.0 -405.0C78.0 -405.0 73.0 -398.0 73.0 -338.0V325.0Z"/></g>
<g fill="black" opacity=".8" transform="translate(600 200) scale(0.1 -0.1)"><path d="M0.0 0.0V-131.0H321.0V0.0ZM2.0 324.0V193.0H246.0V-180.0H389.0V324.0ZM-73.0 324.0V-337.0C-73.0 -499.0 -31.0 -540.0 103.0 -540.0C133.0 -540.0 234.0 -540.0 265.0 -540.0C387.0 -540.0 425.0 -483.0 443.0 -324.0C402.0 -316.0 345.0 -290.0 312.0 -268.0C304.0 -380.0 296.0 -406.0 251.0 -406.0C230.0 -406.0 145.0 -406.0 123.0 -406.0C75.0 -406.0 70.0 -398.0 70.0 -338.0V324.0Z"/></g>
<g fill="red" transform="translate(700 200) scale(0.1 -0.1)"><path d="M0.0 0.0V-30.0H484.0V0.0ZM-5.0 342.0V312.0H468.0V-97.0H499.0V342.0ZM-18.0 342.0V-340.0C-18.0 -423.0 14.0 -441.0 120.0 -441.0C144.0 -441.0 416.0 -441.0 441.0 -441.0C544.0 -441.0 558.0 -401.0 567.0 -269.0C558.0 -267.0 545.0 -262.0 535.0 -255.0C529.0 -383.0 517.0 -414.0 445.0 -414.0C389.0 -414.0 155.0 -414.0 115.0 -414.0C31.0 -414.0 13.0 -397.0 13.0 -342.0V342.0Z"/></g>
<g fill="black" opacity=".8" transform="translate(700 200) scale(0.1 -0.1)"><path d="M0.0 0.0V-30.0H484.0V0.0ZM-6.0 342.0V311.0H467.0V-98.0H499.0V342.0ZM-18.0 342.0V-341.0C-18.0 -424.0 14.0 -442.0 119.0 -442.0C144.0 -442.0 416.0 -442.0 441.0 -442.0C544.0 -442.0 559.0 -401.0 568.0 -269.0C558.0 -267.0 545.0 -262.0 536.0 -256.0C528.0 -383.0 517.0 -415.0 445.0 -415.0C388.0 -415.0 155.0 -415.0 115.0 -415.0C31.0 -415.0 12.0 -397.0 12.0 -342.0V342.0Z"/></g>
<g fill="red" transform="translate(800 200) scale(0.1 -0.1)"><path d="M0.0 0.0V-135.0H403.0V0.0ZM-3.0 329.0V195.0H333.0V-192.0H482.0V329.0ZM-82.0 329.0V-338.0C-82.0 -507.0 -33.0 -550.0 125.0 -550.0C161.0 -550.0 298.0 -550.0 338.0 -550.0C480.0 -550.0 525.0 -490.0 544.0 -322.0C503.0 -313.0 441.0 -288.0 407.0 -264.0C396.0 -387.0 384.0 -413.0 323.0 -413.0C294.0 -413.0 170.0 -413.0 139.0 -413.0C73.0 -413.0 66.0 -406.0 66.0 -339.0V329.0Z"/></g>
<g fill="black" opacity=".8" transform="translate(800 200) scale(0.1 -0.1)"><path d="M0.0 0.0V-135.0H403.0V0.0ZM-5.0 329.0V195.0H334.0V-193.0H483.0V329.0ZM-82.0 329.0V-338.0C-82.0 -507.0 -33.0 -549.0 125.0 -549.0C160.0 -549.0 297.0 -549.0 337.0 -549.0C480.0 -549.0 524.0 -490.0 543.0 -321.0C502.0 -312.0 441.0 -286.0 407.0 -263.0C396.0 -387.0 384.0 -413.0 323.0 -413.0C293.0 -413.0 170.0 -413.0 138.0 -413.0C72.0 -413.0 65.0 -406.0 65.0 -339.0V329.0Z"/></g>
<g fill="red" transform="translate(900 200) scale(0.1 -0.1)"><path d="M0.0 0.0V-30.0H419.0V0.0ZM-5.0 342.0V312.0H402.0V-97.0H431.0V342.0ZM-19.0 342.0V-359.0C-19.0 -439.0 10.0 -457.0 105.0 -457.0C125.0 -457.0 364.0 -457.0 386.0 -457.0C478.0 -457.0 491.0 -416.0 499.0 -285.0C490.0 -283.0 478.0 -278.0 469.0 -271.0C463.0 -398.0 454.0 -430.0 389.0 -430.0C340.0 -430.0 136.0 -430.0 101.0 -430.0C26.0 -430.0 11.0 -414.0 11.0 -360.0V342.0Z"/></g>
<g fill="black" opacity=".8" transform="translate(900 200) scale(0.1 -0.1)"><path d="M0.0 0.0V-30.0H417.0V0.0ZM-4.0 343.0V312.0H402.0V-95.0H432.0V343.0ZM-17.0 343.0V-359.0C-17.0 -438.0 11.0 -456.0 105.0 -456.0C127.0 -456.0 364.0 -456.0 386.0 -456.0C478.0 -456.0 491.0 -415.0 498.0 -284.0C488.0 -282.0 477.0 -278.0 468.0 -271.0C461.0 -396.0 453.0 -428.0 389.0 -428.0C340.0 -428.0 137.0 -428.0 102.0 -428.0C28.0 -428.0 12.0 -411.0 12.0 -360.0V343.0Z"/></g>
<g fill="red" transform="translate(1000 200) scale(0.1 -0.1)"><path d="M0.0 0.0V-135.0H343.0V0.0ZM-3.0 329.0V195.0H269.0V-192.0H416.0V329.0ZM-81.0 329.0V-342.0C-81.0 -507.0 -37.0 -550.0 105.0 -550.0C137.0 -550.0 247.0 -550.0 281.0 -550.0C409.0 -550.0 450.0 -489.0 468.0 -323.0C427.0 -315.0 368.0 -289.0 334.0 -265.0C325.0 -386.0 316.0 -413.0 266.0 -413.0C243.0 -413.0 147.0 -413.0 123.0 -413.0C71.0 -413.0 65.0 -406.0 65.0 -343.0V329.0Z"/></g>
<g fill="black" opacity=".8" transform="translate(1000 200) scale(0.1 -0.1)"><path d="M0.0 0.0V-135.0H342.0V0.0ZM1.0 330.0V195.0H267.0V-186.0H414.0V330.0ZM-80.0 330.0V-342.0C-80.0 -509.0 -35.0 -551.0 107.0 -551.0C139.0 -551.0 249.0 -551.0 283.0 -551.0C411.0 -551.0 452.0 -493.0 470.0 -329.0C428.0 -321.0 369.0 -294.0 335.0 -271.0C326.0 -387.0 316.0 -413.0 268.0 -413.0C245.0 -413.0 150.0 -413.0 126.0 -413.0C74.0 -413.0 68.0 -405.0 68.0 -343.0V330.0Z"/></g>
</svg>
