<?xml version="1.0" encoding="UTF-8"?>
<svg width="1700" height="1000" xmlns="http://www.w3.org/2000/svg">
<rect width="100%" height="100%" fill="white"/>
<g fill="green" transform="translate(100 100) scale(0.1 -0.1)"><path d="M0.0 -0.0V-766.0H54.0V0.0ZM-489.0 -199.0V-788.0H-509.0V-232.0H703.0V-199.0ZM606.0 -154.0V-639.0C606.0 -663.0 600.0 -670.0 571.0 -671.0C540.0 -673.0 446.0 -674.0 314.0 -671.0C323.0 -688.0 332.0 -706.0 336.0 -722.0C485.0 -722.0 569.0 -723.0 609.0 -711.0C649.0 -701.0 660.0 -680.0 660.0 -639.0V-154.0Z"/></g>
<g fill="green" transform="translate(200 100) scale(0.1 -0.1)"><path d="M-0.0 0.0V-742.0H251.0V0.0ZM-468.0 -118.0V-803.0H-274.0V-339.0H726.0V-118.0ZM554.0 -75.0V-509.0C554.0 -529.0 545.0 -535.0 520.0 -535.0C498.0 -536.0 409.0 -536.0 346.0 -532.0C378.0 -594.0 414.0 -689.0 425.0 -758.0C546.0 -758.0 643.0 -757.0 720.0 -721.0C798.0 -685.0 820.0 -625.0 820.0 -513.0V-75.0Z"/></g>
<g fill="green" transform="translate(300 100) scale(0.1 -0.1)"><path d="M0.0 -0.0V-235.0H34.0V0.0ZM-357.0 -78.0V-361.0H-402.0V-90.0H553.0V-78.0ZM461.0 -30.0V-243.0C461.0 -260.0 457.0 -265.0 436.0 -265.0C413.0 -267.0 344.0 -268.0 245.0 -266.0C250.0 -276.0 255.0 -286.0 258.0 -296.0C370.0 -296.0 431.0 -297.0 459.0 -289.0C487.0 -283.0 495.0 -270.0 495.0 -243.0V-30.0Z"/></g>
<g fill="green" transform="translate(400 100) scale(0.1 -0.1)"><path d="M0.0 0.0V-196.0H162.0V0.0ZM-346.0 -15.0V-356.0H-239.0V-147.0H554.0V-15.0ZM415.0 31.0V-155.0C415.0 -168.0 408.0 -173.0 389.0 -173.0C372.0 -174.0 300.0 -174.0 251.0 -170.0C272.0 -209.0 297.0 -266.0 306.0 -310.0C395.0 -310.0 468.0 -311.0 524.0 -289.0C581.0 -268.0 598.0 -233.0 598.0 -156.0V31.0Z"/></g>
<g fill="green" transform="translate(500 100) scale(0.1 -0.1)"><path d="M0.0 0.0V-1091.0H37.0V0.0ZM-194.0 -226.0V-903.0H-293.0V-224.0H295.0V-226.0ZM143.0 -143.0V-743.0C143.0 -754.0 141.0 -757.0 130.0 -757.0C119.0 -757.0 87.0 -758.0 45.0 -756.0C51.0 -768.0 58.0 -784.0 61.0 -795.0C110.0 -795.0 140.0 -795.0 157.0 -786.0C175.0 -779.0 181.0 -766.0 181.0 -743.0V-143.0Z"/></g>
<g fill="green" transform="translate(600 100) scale(0.1 -0.1)"><path d="M-0.0 0.0V-1162.0H154.0V0.0ZM-183.0 -201.0V-972.0H-181.0V-353.0H326.0V-201.0ZM154.0 -122.0V-705.0C154.0 -716.0 152.0 -719.0 145.0 -719.0C139.0 -719.0 125.0 -719.0 108.0 -719.0C127.0 -760.0 144.0 -828.0 146.0 -871.0C189.0 -871.0 218.0 -867.0 247.0 -839.0C276.0 -812.0 281.0 -766.0 281.0 -710.0V-122.0Z"/></g>
<g fill="green" transform="translate(700 100) scale(0.1 -0.1)"><path d="M0.0 0.0V-892.0H65.0V0.0ZM-530.0 245.0V-372.0H140.0V3.0H133.0V245.0ZM678.0 -125.0V-715.0C678.0 -739.0 672.0 -747.0 642.0 -748.0C608.0 -750.0 511.0 -751.0 372.0 -748.0C383.0 -769.0 394.0 -791.0 398.0 -811.0C554.0 -811.0 643.0 -812.0 687.0 -798.0C731.0 -785.0 743.0 -761.0 743.0 -715.0V-125.0Z"/></g>
<g fill="green" transform="translate(800 100) scale(0.1 -0.1)"><path d="M0.0 0.0V-872.0H292.0V0.0ZM-502.0 339.0V-400.0H357.0V41.0H291.0V339.0ZM647.0 -15.0V-550.0C647.0 -572.0 637.0 -579.0 611.0 -579.0C586.0 -580.0 493.0 -580.0 424.0 -575.0C460.0 -648.0 499.0 -760.0 510.0 -839.0C643.0 -839.0 748.0 -837.0 834.0 -796.0C920.0 -752.0 943.0 -681.0 943.0 -556.0V-15.0Z"/></g>
<g fill="green" transform="translate(900 100) scale(0.1 -0.1)"><path d="M0.0 -0.0V-342.0H34.0V0.0ZM-82.0 -369.0V-778.0H-131.0V-380.0H754.0V-369.0ZM658.0 -318.0V-659.0C658.0 -675.0 654.0 -679.0 633.0 -680.0C612.0 -681.0 547.0 -681.0 455.0 -680.0C461.0 -691.0 466.0 -702.0 470.0 -712.0C575.0 -712.0 632.0 -713.0 659.0 -706.0C684.0 -699.0 692.0 -684.0 692.0 -659.0V-318.0Z"/></g>
<g fill="green" transform="translate(1000 100) scale(0.1 -0.1)"><path d="M-0.0 0.0V-407.0H103.0V0.0ZM-120.0 -363.0V-862.0H-35.0V-504.0H729.0V-363.0ZM580.0 -314.0V-649.0C580.0 -664.0 573.0 -668.0 555.0 -668.0C539.0 -669.0 469.0 -669.0 422.0 -666.0C443.0 -705.0 468.0 -767.0 477.0 -810.0C559.0 -810.0 624.0 -809.0 675.0 -785.0C727.0 -763.0 743.0 -724.0 743.0 -651.0V-314.0Z"/></g>
<g fill="green" transform="translate(1100 100) scale(0.1 -0.1)"><path d="M0.0 0.0V-766.0H44.0V0.0ZM-606.0 -242.0V-672.0H-536.0V-293.0H609.0V-242.0ZM614.0 -258.0V-604.0C614.0 -629.0 608.0 -636.0 577.0 -638.0C544.0 -640.0 443.0 -641.0 298.0 -638.0C306.0 -652.0 314.0 -665.0 317.0 -679.0C476.0 -679.0 566.0 -680.0 607.0 -671.0C647.0 -662.0 658.0 -644.0 658.0 -604.0V-258.0Z"/></g>
<g fill="green" transform="translate(1200 100) scale(0.1 -0.1)"><path d="M-0.0 0.0V-804.0H247.0V0.0ZM-575.0 -228.0V-738.0H-302.0V-428.0H654.0V-228.0ZM581.0 -243.0V-541.0C581.0 -561.0 571.0 -567.0 541.0 -567.0C515.0 -567.0 399.0 -567.0 323.0 -562.0C353.0 -620.0 389.0 -707.0 400.0 -771.0C534.0 -771.0 643.0 -771.0 726.0 -741.0C809.0 -709.0 835.0 -655.0 835.0 -544.0V-243.0Z"/></g>
<g fill="green" transform="translate(1300 100) scale(0.1 -0.1)"><path d="M0.0 -0.0V-815.0H57.0V0.0ZM-501.0 -255.0V-818.0H-500.0V-296.0H685.0V-255.0ZM607.0 -221.0V-678.0C607.0 -702.0 600.0 -710.0 571.0 -711.0C540.0 -713.0 444.0 -714.0 311.0 -711.0C321.0 -729.0 330.0 -747.0 334.0 -763.0C485.0 -763.0 570.0 -764.0 612.0 -752.0C653.0 -742.0 664.0 -721.0 664.0 -677.0V-221.0Z"/></g>
<g fill="green" transform="translate(1400 100) scale(0.1 -0.1)"><path d="M0.0 0.0V-702.0H264.0V0.0ZM-463.0 -136.0V-755.0H-236.0V-367.0H697.0V-136.0ZM535.0 -104.0V-458.0C535.0 -478.0 527.0 -483.0 503.0 -483.0C482.0 -485.0 403.0 -485.0 345.0 -481.0C378.0 -546.0 414.0 -643.0 426.0 -715.0C546.0 -715.0 643.0 -715.0 721.0 -677.0C800.0 -640.0 822.0 -579.0 822.0 -462.0V-104.0Z"/></g>
<g fill="red" transform="translate(100 200) scale(0.1 -0.1)"><path d="M0.0 0.0V-657.0H30.0V0.0ZM-227.0 -147.0V-531.0H-198.0V-176.0H257.0V-147.0ZM241.0 -147.0V-468.0C241.0 -480.0 239.0 -484.0 225.0 -485.0C210.0 -486.0 167.0 -486.0 106.0 -484.0C111.0 -494.0 117.0 -506.0 118.0 -514.0C185.0 -514.0 225.0 -514.0 245.0 -508.0C266.0 -503.0 271.0 -491.0 271.0 -468.0V-147.0Z"/></g>
<g fill="black" opacity=".8" transform="translate(100 200) scale(0.1 -0.1)"><path d="M0.0 0.0V-648.0H30.0V0.0ZM-229.0 -141.0V-524.0H-196.0V-173.0H244.0V-141.0ZM232.0 -144.0V-477.0C232.0 -488.0 230.0 -491.0 217.0 -491.0C204.0 -492.0 164.0 -493.0 109.0 -491.0C114.0 -501.0 119.0 -511.0 121.0 -520.0C184.0 -520.0 220.0 -520.0 239.0 -513.0C257.0 -508.0 263.0 -498.0 263.0 -476.0V-144.0Z"/></g>
<g fill="red" transform="translate(200 200) scale(0.1 -0.1)"><path d="M0.0 0.0V-653.0H142.0V0.0ZM-196.0 -100.0V-530.0H-61.0V-230.0H252.0V-100.0ZM210.0 -100.0V-390.0C210.0 -399.0 207.0 -401.0 198.0 -402.0C189.0 -402.0 163.0 -402.0 143.0 -401.0C159.0 -436.0 174.0 -489.0 178.0 -527.0C230.0 -527.0 272.0 -526.0 306.0 -505.0C341.0 -484.0 349.0 -450.0 349.0 -392.0V-100.0Z"/></g>
<g fill="black" opacity=".8" transform="translate(200 200) scale(0.1 -0.1)"><path d="M0.0 0.0V-635.0H135.0V0.0ZM-210.0 -101.0V-526.0H-78.0V-226.0H269.0V-101.0ZM216.0 -103.0V-391.0C216.0 -401.0 213.0 -403.0 204.0 -403.0C195.0 -404.0 166.0 -404.0 142.0 -402.0C158.0 -437.0 175.0 -490.0 179.0 -526.0C231.0 -526.0 271.0 -525.0 305.0 -504.0C339.0 -483.0 348.0 -449.0 348.0 -394.0V-103.0Z"/></g>
<g fill="red" transform="translate(300 200) scale(0.1 -0.1)"><path d="M0.0 0.0V-490.0H30.0V0.0ZM-208.0 -106.0V-401.0H-178.0V-136.0H242.0V-106.0ZM231.0 -106.0V-362.0C231.0 -372.0 229.0 -376.0 216.0 -376.0C202.0 -378.0 165.0 -378.0 108.0 -376.0C114.0 -386.0 119.0 -396.0 121.0 -405.0C181.0 -405.0 218.0 -405.0 236.0 -399.0C255.0 -393.0 260.0 -383.0 260.0 -361.0V-106.0Z"/></g>
<g fill="black" opacity=".8" transform="translate(300 200) scale(0.1 -0.1)"><path d="M0.0 0.0V-486.0H26.0V0.0ZM-207.0 -104.0V-410.0H-178.0V-132.0H237.0V-104.0ZM227.0 -106.0V-368.0C227.0 -378.0 224.0 -382.0 213.0 -381.0C200.0 -382.0 163.0 -383.0 111.0 -382.0C116.0 -390.0 120.0 -398.0 122.0 -406.0C182.0 -406.0 215.0 -406.0 232.0 -400.0C248.0 -396.0 254.0 -387.0 254.0 -368.0V-106.0Z"/></g>
<g fill="red" transform="translate(400 200) scale(0.1 -0.1)"><path d="M0.0 0.0V-464.0H137.0V0.0ZM-186.0 -58.0V-405.0H-53.0V-183.0H261.0V-58.0ZM195.0 -58.0V-279.0C195.0 -288.0 192.0 -290.0 184.0 -290.0C176.0 -290.0 153.0 -290.0 135.0 -290.0C150.0 -323.0 164.0 -373.0 168.0 -409.0C216.0 -409.0 255.0 -408.0 288.0 -389.0C321.0 -369.0 328.0 -336.0 328.0 -282.0V-58.0Z"/></g>
<g fill="black" opacity=".8" transform="translate(400 200) scale(0.1 -0.1)"><path d="M0.0 0.0V-459.0H118.0V0.0ZM-191.0 -61.0V-399.0H-71.0V-169.0H255.0V-61.0ZM207.0 -63.0V-283.0C207.0 -291.0 204.0 -294.0 195.0 -294.0C186.0 -295.0 158.0 -295.0 135.0 -293.0C150.0 -323.0 165.0 -368.0 170.0 -400.0C218.0 -400.0 255.0 -400.0 287.0 -381.0C319.0 -364.0 327.0 -335.0 327.0 -285.0V-63.0Z"/></g>
<g fill="red" transform="translate(500 200) scale(0.1 -0.1)"><path d="M0.0 0.0V-635.0H30.0V0.0ZM-248.0 -147.0V-535.0H-218.0V-176.0H271.0V-147.0ZM256.0 -147.0V-481.0C256.0 -493.0 253.0 -497.0 239.0 -498.0C224.0 -499.0 180.0 -499.0 118.0 -497.0C123.0 -507.0 129.0 -517.0 131.0 -526.0C198.0 -526.0 240.0 -526.0 260.0 -520.0C281.0 -514.0 286.0 -504.0 286.0 -481.0V-147.0Z"/></g>
<g fill="black" opacity=".8" transform="translate(500 200) scale(0.1 -0.1)"><path d="M0.0 0.0V-636.0H33.0V0.0ZM-242.0 -147.0V-534.0H-215.0V-178.0H279.0V-147.0ZM259.0 -144.0V-477.0C259.0 -488.0 256.0 -493.0 242.0 -493.0C228.0 -493.0 185.0 -494.0 124.0 -493.0C130.0 -503.0 135.0 -514.0 138.0 -523.0C207.0 -523.0 245.0 -523.0 266.0 -516.0C286.0 -510.0 292.0 -500.0 292.0 -476.0V-144.0Z"/></g>
<g fill="red" transform="translate(600 200) scale(0.1 -0.1)"><path d="M0.0 0.0V-558.0H141.0V0.0ZM-232.0 -85.0V-505.0H-93.0V-209.0H305.0V-85.0ZM240.0 -85.0V-369.0C240.0 -379.0 236.0 -382.0 225.0 -382.0C215.0 -382.0 180.0 -382.0 155.0 -381.0C171.0 -415.0 189.0 -467.0 195.0 -505.0C251.0 -505.0 297.0 -503.0 334.0 -483.0C371.0 -463.0 381.0 -430.0 381.0 -372.0V-85.0Z"/></g>
<g fill="black" opacity=".8" transform="translate(600 200) scale(0.1 -0.1)"><path d="M0.0 0.0V-594.0H144.0V0.0ZM-220.0 -89.0V-512.0H-83.0V-222.0H299.0V-89.0ZM233.0 -86.0V-362.0C233.0 -372.0 230.0 -374.0 220.0 -374.0C211.0 -376.0 181.0 -376.0 157.0 -374.0C174.0 -411.0 192.0 -466.0 197.0 -505.0C253.0 -505.0 296.0 -505.0 333.0 -482.0C370.0 -460.0 380.0 -425.0 380.0 -364.0V-86.0Z"/></g>
<g fill="red" transform="translate(700 200) scale(0.1 -0.1)"><path d="M0.0 0.0V-608.0H30.0V0.0ZM-175.0 -125.0V-496.0H-146.0V-155.0H189.0V-125.0ZM176.0 -125.0V-451.0C176.0 -460.0 173.0 -462.0 163.0 -463.0C152.0 -463.0 119.0 -464.0 77.0 -463.0C82.0 -471.0 86.0 -482.0 88.0 -489.0C140.0 -489.0 169.0 -489.0 184.0 -484.0C200.0 -478.0 205.0 -469.0 205.0 -451.0V-125.0Z"/></g>
<g fill="black" opacity=".8" transform="translate(700 200) scale(0.1 -0.1)"><path d="M0.0 0.0V-610.0H26.0V0.0ZM-159.0 -128.0V-496.0H-135.0V-155.0H190.0V-128.0ZM174.0 -127.0V-452.0C174.0 -460.0 172.0 -463.0 163.0 -463.0C153.0 -463.0 124.0 -464.0 83.0 -463.0C88.0 -471.0 92.0 -481.0 94.0 -488.0C141.0 -488.0 167.0 -489.0 182.0 -482.0C196.0 -478.0 201.0 -469.0 201.0 -451.0V-127.0Z"/></g>
<g fill="red" transform="translate(800 200) scale(0.1 -0.1)"><path d="M0.0 0.0V-576.0H117.0V0.0ZM-140.0 -87.0V-501.0H-37.0V-205.0H199.0V-87.0ZM154.0 -87.0V-379.0C154.0 -387.0 152.0 -389.0 146.0 -389.0C141.0 -389.0 129.0 -389.0 117.0 -388.0C132.0 -419.0 147.0 -467.0 150.0 -500.0C185.0 -500.0 212.0 -498.0 237.0 -478.0C263.0 -459.0 268.0 -427.0 268.0 -382.0V-87.0Z"/></g>
<g fill="black" opacity=".8" transform="translate(800 200) scale(0.1 -0.1)"><path d="M0.0 0.0V-602.0H111.0V0.0ZM-145.0 -91.0V-498.0H-42.0V-201.0H212.0V-91.0ZM162.0 -90.0V-376.0C162.0 -384.0 160.0 -386.0 153.0 -386.0C147.0 -387.0 131.0 -387.0 115.0 -386.0C129.0 -416.0 142.0 -461.0 145.0 -492.0C183.0 -492.0 211.0 -491.0 237.0 -472.0C263.0 -454.0 269.0 -424.0 269.0 -378.0V-90.0Z"/></g>
<g fill="red" transform="translate(900 200) scale(0.1 -0.1)"><path d="M0.0 0.0V-657.0H29.0V0.0ZM-188.0 -125.0V-538.0H-159.0V-156.0H217.0V-125.0ZM202.0 -125.0V-499.0C202.0 -506.0 200.0 -509.0 191.0 -509.0C181.0 -510.0 155.0 -510.0 119.0 -509.0C124.0 -518.0 130.0 -530.0 132.0 -538.0C173.0 -538.0 198.0 -538.0 213.0 -532.0C227.0 -526.0 231.0 -516.0 231.0 -498.0V-125.0Z"/></g>
<g fill="black" opacity=".8" transform="translate(900 200) scale(0.1 -0.1)"><path d="M0.0 0.0V-668.0H29.0V0.0ZM-183.0 -126.0V-543.0H-155.0V-155.0H221.0V-126.0ZM203.0 -125.0V-495.0C203.0 -505.0 201.0 -508.0 190.0 -508.0C179.0 -508.0 145.0 -509.0 99.0 -508.0C103.0 -517.0 108.0 -528.0 111.0 -536.0C164.0 -536.0 195.0 -537.0 211.0 -530.0C228.0 -524.0 233.0 -515.0 233.0 -495.0V-125.0Z"/></g>
<g fill="red" transform="translate(1000 200) scale(0.1 -0.1)"><path d="M0.0 0.0V-680.0H131.0V0.0ZM-186.0 -92.0V-575.0H-57.0V-219.0H246.0V-92.0ZM183.0 -92.0V-434.0C183.0 -443.0 181.0 -445.0 173.0 -445.0C166.0 -446.0 146.0 -446.0 129.0 -445.0C145.0 -480.0 159.0 -534.0 162.0 -571.0C207.0 -571.0 242.0 -569.0 273.0 -548.0C304.0 -526.0 310.0 -490.0 310.0 -438.0V-92.0Z"/></g>
<g fill="black" opacity=".8" transform="translate(1000 200) scale(0.1 -0.1)"><path d="M0.0 0.0V-684.0H123.0V0.0ZM-172.0 -96.0V-568.0H-57.0V-217.0H249.0V-96.0ZM195.0 -95.0V-436.0C195.0 -445.0 192.0 -448.0 184.0 -448.0C177.0 -448.0 154.0 -448.0 133.0 -447.0C149.0 -480.0 164.0 -531.0 167.0 -565.0C212.0 -565.0 245.0 -564.0 275.0 -543.0C305.0 -523.0 311.0 -489.0 311.0 -439.0V-95.0Z"/></g>
<g fill="red" transform="translate(1100 200) scale(0.1 -0.1)"><path d="M0.0 0.0V-904.0H30.0V0.0ZM-315.0 -348.0V-766.0H-286.0V-377.0H344.0V-348.0ZM331.0 -348.0V-703.0C331.0 -718.0 327.0 -722.0 309.0 -724.0C290.0 -725.0 235.0 -725.0 155.0 -723.0C161.0 -733.0 166.0 -744.0 168.0 -753.0C254.0 -753.0 305.0 -753.0 330.0 -748.0C354.0 -742.0 360.0 -730.0 360.0 -703.0V-348.0Z"/></g>
<g fill="black" opacity=".8" transform="translate(1100 200) scale(0.1 -0.1)"><path d="M0.0 0.0V-899.0H29.0V0.0ZM-308.0 -346.0V-766.0H-283.0V-373.0H341.0V-346.0ZM323.0 -343.0V-706.0C323.0 -720.0 320.0 -724.0 303.0 -725.0C286.0 -726.0 232.0 -727.0 157.0 -725.0C163.0 -735.0 168.0 -744.0 171.0 -753.0C253.0 -753.0 301.0 -754.0 324.0 -748.0C346.0 -742.0 353.0 -731.0 353.0 -705.0V-343.0Z"/></g>
<g fill="red" transform="translate(1200 200) scale(0.1 -0.1)"><path d="M0.0 0.0V-950.0H152.0V0.0ZM-290.0 -356.0V-832.0H-143.0V-498.0H370.0V-356.0ZM303.0 -356.0V-677.0C303.0 -689.0 298.0 -692.0 283.0 -692.0C269.0 -692.0 215.0 -692.0 179.0 -690.0C198.0 -728.0 220.0 -790.0 226.0 -832.0C296.0 -832.0 352.0 -830.0 397.0 -808.0C442.0 -786.0 455.0 -746.0 455.0 -680.0V-356.0Z"/></g>
<g fill="black" opacity=".8" transform="translate(1200 200) scale(0.1 -0.1)"><path d="M0.0 0.0V-961.0H152.0V0.0ZM-288.0 -363.0V-832.0H-148.0V-502.0H370.0V-363.0ZM311.0 -360.0V-673.0C311.0 -686.0 306.0 -688.0 291.0 -688.0C278.0 -688.0 224.0 -688.0 186.0 -686.0C205.0 -726.0 225.0 -788.0 231.0 -830.0C302.0 -830.0 357.0 -828.0 402.0 -805.0C446.0 -783.0 459.0 -743.0 459.0 -676.0V-360.0Z"/></g>
<g fill="red" transform="translate(1300 200) scale(0.1 -0.1)"><path d="M0.0 0.0V-816.0H30.0V0.0ZM-317.0 -190.0V-688.0H-288.0V-220.0H342.0V-190.0ZM330.0 -190.0V-629.0C330.0 -645.0 326.0 -650.0 307.0 -651.0C288.0 -652.0 229.0 -653.0 149.0 -651.0C154.0 -661.0 160.0 -672.0 162.0 -681.0C248.0 -681.0 302.0 -681.0 328.0 -675.0C352.0 -669.0 359.0 -657.0 359.0 -629.0V-190.0Z"/></g>
<g fill="black" opacity=".8" transform="translate(1300 200) scale(0.1 -0.1)"><path d="M0.0 0.0V-827.0H39.0V0.0ZM-303.0 -195.0V-692.0H-276.0V-230.0H350.0V-195.0ZM320.0 -188.0V-618.0C320.0 -633.0 316.0 -637.0 299.0 -638.0C281.0 -639.0 227.0 -640.0 153.0 -637.0C159.0 -650.0 166.0 -663.0 169.0 -675.0C254.0 -675.0 302.0 -675.0 327.0 -666.0C352.0 -659.0 359.0 -646.0 359.0 -617.0V-188.0Z"/></g>
<g fill="red" transform="translate(1400 200) scale(0.1 -0.1)"><path d="M0.0 0.0V-779.0H152.0V0.0ZM-294.0 -141.0V-687.0H-144.0V-283.0H383.0V-141.0ZM304.0 -141.0V-526.0C304.0 -538.0 299.0 -542.0 284.0 -542.0C270.0 -542.0 217.0 -542.0 180.0 -540.0C200.0 -579.0 222.0 -644.0 228.0 -687.0C299.0 -687.0 355.0 -685.0 399.0 -661.0C445.0 -638.0 457.0 -597.0 457.0 -530.0V-141.0Z"/></g>
<g fill="black" opacity=".8" transform="translate(1400 200) scale(0.1 -0.1)"><path d="M0.0 0.0V-818.0H175.0V0.0ZM-281.0 -146.0V-702.0H-122.0V-308.0H380.0V-146.0ZM298.0 -140.0V-515.0C298.0 -528.0 293.0 -532.0 280.0 -532.0C268.0 -532.0 226.0 -532.0 193.0 -530.0C215.0 -575.0 237.0 -644.0 243.0 -692.0C313.0 -692.0 367.0 -691.0 413.0 -663.0C459.0 -636.0 470.0 -592.0 470.0 -519.0V-140.0Z"/></g>
<g fill="red" transform="translate(1500 200) scale(0.1 -0.1)"><path d="M0.0 0.0V-737.0H30.0V0.0ZM-313.0 -182.0V-607.0H-284.0V-211.0H342.0V-182.0ZM329.0 -182.0V-549.0C329.0 -564.0 325.0 -569.0 306.0 -571.0C286.0 -572.0 225.0 -572.0 139.0 -570.0C143.0 -580.0 149.0 -590.0 151.0 -600.0C244.0 -600.0 299.0 -600.0 326.0 -594.0C351.0 -588.0 358.0 -576.0 358.0 -548.0V-182.0Z"/></g>
<g fill="black" opacity=".8" transform="translate(1500 200) scale(0.1 -0.1)"><path d="M0.0 0.0V-732.0H35.0V0.0ZM-322.0 -177.0V-606.0H-286.0V-213.0H342.0V-177.0ZM327.0 -178.0V-546.0C327.0 -560.0 323.0 -565.0 306.0 -566.0C288.0 -567.0 232.0 -568.0 155.0 -566.0C161.0 -577.0 167.0 -588.0 169.0 -599.0C256.0 -599.0 306.0 -599.0 331.0 -592.0C355.0 -585.0 362.0 -572.0 362.0 -545.0V-178.0Z"/></g>
<g fill="red" transform="translate(1600 200) scale(0.1 -0.1)"><path d="M0.0 0.0V-711.0H152.0V0.0ZM-304.0 -138.0V-621.0H-157.0V-280.0H356.0V-138.0ZM324.0 -138.0V-467.0C324.0 -479.0 318.0 -483.0 302.0 -483.0C288.0 -483.0 229.0 -483.0 189.0 -480.0C209.0 -519.0 231.0 -581.0 237.0 -623.0C311.0 -623.0 369.0 -621.0 416.0 -599.0C462.0 -577.0 476.0 -537.0 476.0 -470.0V-138.0Z"/></g>
<g fill="black" opacity=".8" transform="translate(1600 200) scale(0.1 -0.1)"><path d="M0.0 0.0V-733.0H168.0V0.0ZM-300.0 -141.0V-624.0H-136.0V-291.0H373.0V-141.0ZM307.0 -142.0V-462.0C307.0 -474.0 302.0 -478.0 287.0 -478.0C274.0 -479.0 225.0 -479.0 189.0 -476.0C209.0 -518.0 231.0 -582.0 237.0 -627.0C310.0 -627.0 367.0 -626.0 413.0 -601.0C460.0 -577.0 473.0 -536.0 473.0 -465.0V-142.0Z"/></g>
<g fill="red" transform="translate(100 300) scale(0.1 -0.1)"><path d="M0.0 0.0V-648.0H30.0V0.0ZM-296.0 -154.0V-549.0H-267.0V-184.0H329.0V-154.0ZM315.0 -154.0V-489.0C315.0 -504.0 310.0 -508.0 292.0 -509.0C274.0 -510.0 212.0 -511.0 130.0 -509.0C136.0 -518.0 141.0 -528.0 143.0 -536.0C239.0 -537.0 291.0 -537.0 314.0 -531.0C338.0 -525.0 344.0 -513.0 344.0 -489.0V-154.0Z"/></g>
<g fill="black" opacity=".8" transform="translate(100 300) scale(0.1 -0.1)"><path d="M0.0 0.0V-654.0H33.0V0.0ZM-293.0 -152.0V-549.0H-266.0V-183.0H322.0V-152.0ZM300.0 -148.0V-488.0C300.0 -501.0 297.0 -505.0 281.0 -506.0C265.0 -507.0 214.0 -508.0 143.0 -506.0C149.0 -516.0 154.0 -527.0 157.0 -537.0C237.0 -537.0 282.0 -537.0 305.0 -530.0C327.0 -524.0 334.0 -512.0 334.0 -487.0V-148.0Z"/></g>
<g fill="red" transform="translate(200 300) scale(0.1 -0.1)"><path d="M0.0 0.0V-644.0H147.0V0.0ZM-274.0 -104.0V-558.0H-128.0V-241.0H343.0V-104.0ZM280.0 -104.0V-407.0C280.0 -419.0 275.0 -423.0 260.0 -423.0C247.0 -423.0 195.0 -423.0 159.0 -421.0C177.0 -457.0 198.0 -513.0 204.0 -553.0C273.0 -553.0 328.0 -551.0 371.0 -531.0C415.0 -510.0 428.0 -474.0 428.0 -410.0V-104.0Z"/></g>
<g fill="black" opacity=".8" transform="translate(200 300) scale(0.1 -0.1)"><path d="M0.0 0.0V-647.0H155.0V0.0ZM-273.0 -112.0V-560.0H-127.0V-250.0H349.0V-112.0ZM280.0 -108.0V-404.0C280.0 -415.0 276.0 -419.0 263.0 -419.0C251.0 -419.0 207.0 -419.0 174.0 -417.0C193.0 -456.0 213.0 -515.0 219.0 -556.0C285.0 -556.0 337.0 -556.0 380.0 -532.0C423.0 -510.0 435.0 -472.0 435.0 -406.0V-108.0Z"/></g>
<g fill="red" transform="translate(300 300) scale(0.1 -0.1)"><path d="M0.0 0.0V-899.0H30.0V0.0ZM-153.0 -184.0V-685.0H-124.0V-213.0H170.0V-184.0ZM158.0 -184.0V-632.0C158.0 -642.0 155.0 -645.0 145.0 -645.0C135.0 -646.0 103.0 -646.0 62.0 -645.0C67.0 -653.0 73.0 -666.0 75.0 -674.0C122.0 -674.0 150.0 -674.0 167.0 -668.0C183.0 -662.0 188.0 -651.0 188.0 -631.0V-184.0Z"/></g>
<g fill="black" opacity=".8" transform="translate(300 300) scale(0.1 -0.1)"><path d="M0.0 0.0V-887.0H29.0V0.0ZM-162.0 -183.0V-681.0H-127.0V-214.0H163.0V-183.0ZM152.0 -186.0V-637.0C152.0 -646.0 150.0 -649.0 140.0 -649.0C131.0 -649.0 103.0 -650.0 65.0 -648.0C70.0 -658.0 76.0 -669.0 78.0 -678.0C121.0 -678.0 147.0 -678.0 162.0 -671.0C177.0 -666.0 182.0 -656.0 182.0 -636.0V-186.0Z"/></g>
<g fill="red" transform="translate(400 300) scale(0.1 -0.1)"><path d="M0.0 0.0V-945.0H124.0V0.0ZM-142.0 -175.0V-735.0H-29.0V-302.0H194.0V-175.0ZM157.0 -175.0V-590.0C157.0 -599.0 155.0 -602.0 147.0 -602.0C139.0 -602.0 119.0 -602.0 98.0 -601.0C115.0 -637.0 132.0 -696.0 134.0 -733.0C176.0 -733.0 206.0 -729.0 234.0 -706.0C263.0 -684.0 268.0 -643.0 268.0 -595.0V-175.0Z"/></g>
<g fill="black" opacity=".8" transform="translate(400 300) scale(0.1 -0.1)"><path d="M0.0 0.0V-937.0H123.0V0.0ZM-149.0 -170.0V-730.0H-38.0V-299.0H202.0V-170.0ZM156.0 -174.0V-595.0C156.0 -604.0 154.0 -606.0 148.0 -606.0C142.0 -606.0 127.0 -606.0 111.0 -606.0C126.0 -640.0 140.0 -694.0 142.0 -729.0C180.0 -729.0 207.0 -727.0 233.0 -704.0C258.0 -683.0 263.0 -646.0 263.0 -598.0V-174.0Z"/></g>
<g fill="red" transform="translate(500 300) scale(0.1 -0.1)"><path d="M0.0 0.0V-899.0H29.0V0.0ZM-145.0 -196.0V-697.0H-116.0V-225.0H164.0V-196.0ZM145.0 -196.0V-650.0C145.0 -657.0 143.0 -660.0 133.0 -660.0C124.0 -661.0 98.0 -661.0 62.0 -660.0C67.0 -669.0 73.0 -682.0 75.0 -690.0C115.0 -690.0 141.0 -690.0 155.0 -684.0C170.0 -678.0 174.0 -668.0 174.0 -649.0V-196.0Z"/></g>
<g fill="black" opacity=".8" transform="translate(500 300) scale(0.1 -0.1)"><path d="M0.0 0.0V-899.0H30.0V0.0ZM-148.0 -196.0V-697.0H-119.0V-226.0H161.0V-196.0ZM144.0 -196.0V-650.0C144.0 -658.0 142.0 -661.0 133.0 -661.0C125.0 -661.0 98.0 -662.0 63.0 -660.0C68.0 -670.0 73.0 -682.0 76.0 -691.0C116.0 -691.0 141.0 -691.0 155.0 -684.0C170.0 -678.0 175.0 -668.0 175.0 -649.0V-196.0Z"/></g>
<g fill="red" transform="translate(600 300) scale(0.1 -0.1)"><path d="M0.0 0.0V-950.0H121.0V0.0ZM-132.0 -180.0V-740.0H-29.0V-307.0H194.0V-180.0ZM150.0 -180.0V-597.0C150.0 -605.0 148.0 -607.0 142.0 -607.0C137.0 -607.0 124.0 -607.0 109.0 -607.0C125.0 -640.0 140.0 -695.0 141.0 -729.0C177.0 -729.0 200.0 -725.0 225.0 -704.0C249.0 -682.0 253.0 -644.0 253.0 -601.0V-180.0Z"/></g>
<g fill="black" opacity=".8" transform="translate(600 300) scale(0.1 -0.1)"><path d="M0.0 0.0V-939.0H122.0V0.0ZM-136.0 -178.0V-738.0H-30.0V-306.0H196.0V-178.0ZM146.0 -179.0V-598.0C146.0 -607.0 145.0 -609.0 139.0 -609.0C134.0 -609.0 122.0 -609.0 108.0 -609.0C124.0 -643.0 137.0 -697.0 139.0 -732.0C175.0 -732.0 199.0 -729.0 224.0 -706.0C248.0 -685.0 253.0 -648.0 253.0 -602.0V-179.0Z"/></g>
<g fill="red" transform="translate(700 300) scale(0.1 -0.1)"><path d="M0.0 0.0V-458.0H30.0V0.0ZM-316.0 -90.0V-396.0H-287.0V-119.0H350.0V-90.0ZM332.0 -90.0V-339.0C332.0 -351.0 328.0 -355.0 313.0 -355.0C296.0 -356.0 245.0 -357.0 176.0 -355.0C181.0 -364.0 186.0 -374.0 188.0 -383.0C269.0 -383.0 313.0 -383.0 335.0 -377.0C356.0 -371.0 361.0 -360.0 361.0 -339.0V-90.0Z"/></g>
<g fill="black" opacity=".8" transform="translate(700 300) scale(0.1 -0.1)"><path d="M0.0 0.0V-445.0H29.0V0.0ZM-317.0 -95.0V-395.0H-292.0V-124.0H349.0V-95.0ZM330.0 -93.0V-340.0C330.0 -354.0 327.0 -358.0 310.0 -358.0C292.0 -359.0 238.0 -360.0 161.0 -359.0C165.0 -367.0 170.0 -377.0 172.0 -385.0C259.0 -385.0 307.0 -386.0 330.0 -379.0C353.0 -374.0 360.0 -363.0 360.0 -340.0V-93.0Z"/></g>
<g fill="red" transform="translate(800 300) scale(0.1 -0.1)"><path d="M0.0 0.0V-455.0H144.0V0.0ZM-291.0 -65.0V-410.0H-150.0V-188.0H380.0V-65.0ZM309.0 -65.0V-266.0C309.0 -277.0 303.0 -280.0 288.0 -280.0C274.0 -280.0 216.0 -280.0 175.0 -278.0C194.0 -314.0 216.0 -371.0 223.0 -411.0C292.0 -411.0 348.0 -410.0 393.0 -389.0C439.0 -368.0 452.0 -331.0 452.0 -269.0V-65.0Z"/></g>
<g fill="black" opacity=".8" transform="translate(800 300) scale(0.1 -0.1)"><path d="M0.0 0.0V-436.0H146.0V0.0ZM-300.0 -59.0V-408.0H-156.0V-182.0H371.0V-59.0ZM307.0 -57.0V-272.0C307.0 -283.0 302.0 -286.0 287.0 -286.0C274.0 -287.0 219.0 -287.0 181.0 -284.0C199.0 -319.0 219.0 -372.0 225.0 -410.0C297.0 -410.0 354.0 -410.0 399.0 -390.0C445.0 -371.0 458.0 -338.0 458.0 -273.0V-57.0Z"/></g>
<g fill="red" transform="translate(900 300) scale(0.1 -0.1)"><path d="M0.0 0.0V-502.0H29.0V0.0ZM-283.0 -114.0V-437.0H-253.0V-144.0H318.0V-114.0ZM304.0 -114.0V-383.0C304.0 -397.0 300.0 -400.0 284.0 -401.0C267.0 -402.0 213.0 -402.0 139.0 -401.0C144.0 -410.0 149.0 -420.0 151.0 -429.0C236.0 -429.0 283.0 -429.0 305.0 -423.0C328.0 -417.0 334.0 -406.0 334.0 -383.0V-114.0Z"/></g>
<g fill="black" opacity=".8" transform="translate(900 300) scale(0.1 -0.1)"><path d="M0.0 0.0V-504.0H30.0V0.0ZM-278.0 -117.0V-438.0H-251.0V-146.0H312.0V-117.0ZM295.0 -115.0V-385.0C295.0 -397.0 292.0 -402.0 277.0 -402.0C261.0 -403.0 212.0 -404.0 144.0 -402.0C149.0 -411.0 153.0 -420.0 156.0 -429.0C233.0 -429.0 276.0 -430.0 297.0 -423.0C318.0 -418.0 325.0 -407.0 325.0 -384.0V-115.0Z"/></g>
<g fill="red" transform="translate(1000 300) scale(0.1 -0.1)"><path d="M0.0 0.0V-491.0H141.0V0.0ZM-255.0 -74.0V-444.0H-111.0V-200.0H329.0V-74.0ZM265.0 -74.0V-301.0C265.0 -312.0 260.0 -315.0 248.0 -315.0C236.0 -315.0 192.0 -315.0 162.0 -313.0C179.0 -347.0 198.0 -399.0 204.0 -437.0C267.0 -437.0 317.0 -436.0 358.0 -417.0C399.0 -397.0 411.0 -364.0 411.0 -303.0V-74.0Z"/></g>
<g fill="black" opacity=".8" transform="translate(1000 300) scale(0.1 -0.1)"><path d="M0.0 0.0V-484.0H140.0V0.0ZM-259.0 -75.0V-438.0H-121.0V-197.0H332.0V-75.0ZM271.0 -73.0V-302.0C271.0 -312.0 267.0 -315.0 254.0 -315.0C243.0 -316.0 199.0 -316.0 167.0 -314.0C185.0 -349.0 203.0 -400.0 209.0 -438.0C272.0 -438.0 322.0 -438.0 363.0 -417.0C404.0 -397.0 415.0 -365.0 415.0 -304.0V-73.0Z"/></g>
<g fill="red" transform="translate(1100 300) scale(0.1 -0.1)"><path d="M0.0 0.0V-899.0H29.0V0.0ZM-138.0 -194.0V-695.0H-109.0V-223.0H151.0V-194.0ZM140.0 -194.0V-648.0C140.0 -656.0 138.0 -658.0 130.0 -659.0C121.0 -659.0 98.0 -659.0 66.0 -658.0C72.0 -667.0 78.0 -680.0 80.0 -688.0C115.0 -688.0 138.0 -688.0 152.0 -682.0C165.0 -676.0 169.0 -666.0 169.0 -648.0V-194.0Z"/></g>
<g fill="black" opacity=".8" transform="translate(1100 300) scale(0.1 -0.1)"><path d="M0.0 0.0V-895.0H30.0V0.0ZM-150.0 -191.0V-692.0H-114.0V-223.0H159.0V-191.0ZM149.0 -195.0V-649.0C149.0 -658.0 147.0 -661.0 138.0 -661.0C129.0 -661.0 102.0 -661.0 66.0 -660.0C71.0 -670.0 77.0 -682.0 79.0 -690.0C121.0 -690.0 145.0 -690.0 160.0 -684.0C175.0 -678.0 180.0 -668.0 180.0 -649.0V-195.0Z"/></g>
<g fill="red" transform="translate(1200 300) scale(0.1 -0.1)"><path d="M0.0 0.0V-950.0H138.0V0.0ZM-130.0 -181.0V-741.0H-26.0V-308.0H197.0V-181.0ZM164.0 -181.0V-598.0C164.0 -606.0 162.0 -608.0 157.0 -608.0C151.0 -608.0 139.0 -608.0 126.0 -608.0C142.0 -640.0 156.0 -694.0 157.0 -728.0C191.0 -728.0 214.0 -724.0 238.0 -703.0C261.0 -682.0 265.0 -644.0 265.0 -602.0V-181.0Z"/></g>
<g fill="black" opacity=".8" transform="translate(1200 300) scale(0.1 -0.1)"><path d="M0.0 0.0V-938.0H122.0V0.0ZM-137.0 -175.0V-735.0H-25.0V-303.0H196.0V-175.0ZM151.0 -179.0V-599.0C151.0 -608.0 150.0 -610.0 144.0 -610.0C138.0 -611.0 126.0 -611.0 112.0 -610.0C127.0 -644.0 140.0 -699.0 143.0 -734.0C179.0 -734.0 204.0 -731.0 229.0 -709.0C253.0 -687.0 258.0 -650.0 258.0 -603.0V-179.0Z"/></g>
<g fill="red" transform="translate(1300 300) scale(0.1 -0.1)"><path d="M0.0 0.0V-899.0H30.0V0.0ZM-128.0 -194.0V-695.0H-99.0V-223.0H133.0V-194.0ZM122.0 -194.0V-648.0C122.0 -655.0 120.0 -658.0 110.0 -658.0C101.0 -659.0 75.0 -659.0 39.0 -658.0C44.0 -667.0 50.0 -680.0 52.0 -688.0C92.0 -688.0 118.0 -688.0 132.0 -682.0C147.0 -676.0 151.0 -666.0 151.0 -647.0V-194.0Z"/></g>
<g fill="black" opacity=".8" transform="translate(1300 300) scale(0.1 -0.1)"><path d="M0.0 0.0V-901.0H28.0V0.0ZM-139.0 -190.0V-691.0H-107.0V-220.0H144.0V-190.0ZM132.0 -192.0V-649.0C132.0 -657.0 130.0 -659.0 122.0 -659.0C113.0 -659.0 89.0 -660.0 56.0 -659.0C61.0 -668.0 66.0 -680.0 69.0 -688.0C106.0 -688.0 129.0 -688.0 143.0 -681.0C156.0 -676.0 161.0 -667.0 161.0 -648.0V-192.0Z"/></g>
<g fill="red" transform="translate(1400 300) scale(0.1 -0.1)"><path d="M0.0 0.0V-950.0H124.0V0.0ZM-132.0 -181.0V-744.0H-23.0V-308.0H199.0V-181.0ZM149.0 -181.0V-611.0C149.0 -619.0 147.0 -621.0 142.0 -621.0C137.0 -621.0 124.0 -621.0 111.0 -621.0C125.0 -653.0 137.0 -707.0 138.0 -741.0C174.0 -741.0 199.0 -738.0 224.0 -717.0C249.0 -696.0 252.0 -659.0 252.0 -615.0V-181.0Z"/></g>
<g fill="black" opacity=".8" transform="translate(1400 300) scale(0.1 -0.1)"><path d="M0.0 0.0V-956.0H117.0V0.0ZM-128.0 -180.0V-744.0H-26.0V-305.0H182.0V-180.0ZM138.0 -183.0V-611.0C138.0 -620.0 137.0 -622.0 131.0 -622.0C126.0 -622.0 115.0 -622.0 102.0 -622.0C117.0 -654.0 130.0 -708.0 131.0 -741.0C165.0 -741.0 188.0 -738.0 211.0 -716.0C233.0 -695.0 237.0 -659.0 237.0 -615.0V-183.0Z"/></g>
<g fill="red" transform="translate(1500 300) scale(0.1 -0.1)"><path d="M0.0 0.0V-899.0H29.0V0.0ZM-134.0 -194.0V-695.0H-105.0V-223.0H151.0V-194.0ZM137.0 -194.0V-649.0C137.0 -656.0 135.0 -658.0 127.0 -659.0C119.0 -659.0 97.0 -659.0 68.0 -658.0C73.0 -667.0 79.0 -680.0 81.0 -688.0C115.0 -688.0 136.0 -688.0 150.0 -682.0C163.0 -676.0 166.0 -666.0 166.0 -648.0V-194.0Z"/></g>
<g fill="black" opacity=".8" transform="translate(1500 300) scale(0.1 -0.1)"><path d="M0.0 0.0V-897.0H29.0V0.0ZM-137.0 -198.0V-696.0H-108.0V-227.0H150.0V-198.0ZM134.0 -197.0V-649.0C134.0 -657.0 132.0 -660.0 124.0 -660.0C115.0 -660.0 90.0 -660.0 58.0 -659.0C63.0 -669.0 68.0 -680.0 71.0 -689.0C109.0 -689.0 132.0 -689.0 146.0 -682.0C159.0 -677.0 164.0 -667.0 164.0 -648.0V-197.0Z"/></g>
<g fill="red" transform="translate(1600 300) scale(0.1 -0.1)"><path d="M0.0 0.0V-950.0H113.0V0.0ZM-121.0 -181.0V-737.0H-20.0V-308.0H178.0V-181.0ZM134.0 -181.0V-585.0C134.0 -593.0 133.0 -595.0 128.0 -595.0C124.0 -595.0 116.0 -595.0 107.0 -595.0C123.0 -628.0 136.0 -682.0 137.0 -716.0C167.0 -716.0 186.0 -712.0 208.0 -691.0C230.0 -669.0 233.0 -631.0 233.0 -590.0V-181.0Z"/></g>
<g fill="black" opacity=".8" transform="translate(1600 300) scale(0.1 -0.1)"><path d="M0.0 0.0V-929.0H119.0V0.0ZM-123.0 -176.0V-728.0H-20.0V-303.0H184.0V-176.0ZM134.0 -177.0V-589.0C134.0 -598.0 133.0 -599.0 128.0 -599.0C123.0 -600.0 116.0 -600.0 104.0 -600.0C119.0 -633.0 131.0 -687.0 133.0 -721.0C167.0 -721.0 189.0 -718.0 212.0 -696.0C235.0 -674.0 239.0 -638.0 239.0 -593.0V-177.0Z"/></g>
<g fill="red" transform="translate(100 400) scale(0.1 -0.1)"><path d="M0.0 0.0V-899.0H29.0V0.0ZM-132.0 -194.0V-695.0H-103.0V-223.0H157.0V-194.0ZM139.0 -194.0V-648.0C139.0 -656.0 137.0 -658.0 129.0 -659.0C120.0 -659.0 97.0 -659.0 65.0 -658.0C71.0 -667.0 77.0 -680.0 79.0 -688.0C114.0 -688.0 137.0 -688.0 151.0 -682.0C164.0 -676.0 168.0 -666.0 168.0 -648.0V-194.0Z"/></g>
<g fill="black" opacity=".8" transform="translate(100 400) scale(0.1 -0.1)"><path d="M0.0 0.0V-895.0H29.0V0.0ZM-141.0 -194.0V-695.0H-111.0V-224.0H157.0V-194.0ZM141.0 -194.0V-649.0C141.0 -657.0 139.0 -660.0 131.0 -660.0C122.0 -660.0 96.0 -661.0 62.0 -659.0C67.0 -669.0 73.0 -681.0 75.0 -689.0C114.0 -689.0 138.0 -689.0 152.0 -683.0C166.0 -677.0 171.0 -667.0 171.0 -648.0V-194.0Z"/></g>
<g fill="red" transform="translate(200 400) scale(0.1 -0.1)"><path d="M0.0 0.0V-950.0H121.0V0.0ZM-130.0 -181.0V-741.0H-26.0V-308.0H197.0V-181.0ZM148.0 -181.0V-598.0C148.0 -606.0 146.0 -608.0 141.0 -608.0C135.0 -608.0 123.0 -608.0 110.0 -608.0C126.0 -640.0 140.0 -694.0 141.0 -728.0C175.0 -728.0 198.0 -724.0 222.0 -703.0C245.0 -682.0 249.0 -644.0 249.0 -602.0V-181.0Z"/></g>
<g fill="black" opacity=".8" transform="translate(200 400) scale(0.1 -0.1)"><path d="M0.0 0.0V-937.0H119.0V0.0ZM-129.0 -178.0V-738.0H-25.0V-305.0H192.0V-178.0ZM143.0 -178.0V-600.0C143.0 -608.0 142.0 -610.0 136.0 -610.0C131.0 -611.0 121.0 -611.0 108.0 -610.0C123.0 -644.0 136.0 -698.0 138.0 -732.0C172.0 -732.0 196.0 -729.0 220.0 -707.0C243.0 -686.0 247.0 -649.0 247.0 -603.0V-178.0Z"/></g>
<g fill="red" transform="translate(300 400) scale(0.1 -0.1)"><path d="M0.0 0.0V-899.0H29.0V0.0ZM-142.0 -194.0V-695.0H-113.0V-223.0H167.0V-194.0ZM150.0 -194.0V-648.0C150.0 -655.0 148.0 -658.0 138.0 -658.0C129.0 -659.0 103.0 -659.0 67.0 -658.0C72.0 -667.0 78.0 -680.0 80.0 -688.0C120.0 -688.0 146.0 -688.0 160.0 -682.0C175.0 -676.0 179.0 -666.0 179.0 -647.0V-194.0Z"/></g>
<g fill="black" opacity=".8" transform="translate(300 400) scale(0.1 -0.1)"><path d="M0.0 0.0V-892.0H29.0V0.0ZM-153.0 -189.0V-694.0H-120.0V-220.0H170.0V-189.0ZM157.0 -191.0V-649.0C157.0 -658.0 155.0 -661.0 146.0 -661.0C136.0 -661.0 109.0 -662.0 71.0 -660.0C76.0 -670.0 82.0 -682.0 84.0 -691.0C127.0 -691.0 153.0 -691.0 168.0 -684.0C182.0 -678.0 188.0 -668.0 188.0 -649.0V-191.0Z"/></g>
<g fill="red" transform="translate(400 400) scale(0.1 -0.1)"><path d="M0.0 0.0V-950.0H134.0V0.0ZM-141.0 -181.0V-744.0H-33.0V-308.0H221.0V-181.0ZM167.0 -181.0V-611.0C167.0 -619.0 165.0 -621.0 160.0 -621.0C154.0 -621.0 142.0 -621.0 129.0 -621.0C144.0 -655.0 156.0 -711.0 157.0 -746.0C194.0 -746.0 220.0 -743.0 246.0 -721.0C271.0 -699.0 275.0 -661.0 275.0 -615.0V-181.0Z"/></g>
<g fill="black" opacity=".8" transform="translate(400 400) scale(0.1 -0.1)"><path d="M0.0 0.0V-946.0H122.0V0.0ZM-143.0 -178.0V-748.0H-34.0V-307.0H208.0V-178.0ZM161.0 -181.0V-611.0C161.0 -620.0 159.0 -622.0 153.0 -622.0C147.0 -623.0 132.0 -623.0 116.0 -622.0C131.0 -656.0 145.0 -711.0 147.0 -746.0C185.0 -746.0 212.0 -744.0 237.0 -721.0C262.0 -699.0 267.0 -662.0 267.0 -615.0V-181.0Z"/></g>
<g fill="red" transform="translate(500 400) scale(0.1 -0.1)"><path d="M0.0 0.0V-899.0H29.0V0.0ZM-142.0 -194.0V-695.0H-113.0V-223.0H167.0V-194.0ZM150.0 -194.0V-648.0C150.0 -655.0 148.0 -658.0 138.0 -658.0C129.0 -659.0 103.0 -659.0 67.0 -658.0C72.0 -667.0 78.0 -680.0 80.0 -688.0C120.0 -688.0 146.0 -688.0 160.0 -682.0C175.0 -676.0 179.0 -666.0 179.0 -647.0V-194.0Z"/></g>
<g fill="black" opacity=".8" transform="translate(500 400) scale(0.1 -0.1)"><path d="M0.0 0.0V-894.0H29.0V0.0ZM-145.0 -195.0V-696.0H-117.0V-225.0H162.0V-195.0ZM146.0 -195.0V-649.0C146.0 -657.0 144.0 -660.0 135.0 -660.0C126.0 -660.0 100.0 -661.0 64.0 -659.0C70.0 -669.0 75.0 -681.0 77.0 -689.0C118.0 -689.0 142.0 -689.0 157.0 -683.0C171.0 -677.0 176.0 -667.0 176.0 -648.0V-195.0Z"/></g>
<g fill="red" transform="translate(600 400) scale(0.1 -0.1)"><path d="M0.0 0.0V-950.0H121.0V0.0ZM-130.0 -181.0V-741.0H-26.0V-308.0H197.0V-181.0ZM148.0 -181.0V-598.0C148.0 -606.0 146.0 -608.0 141.0 -608.0C135.0 -608.0 123.0 -608.0 110.0 -608.0C126.0 -640.0 140.0 -694.0 141.0 -728.0C175.0 -728.0 198.0 -724.0 222.0 -703.0C245.0 -682.0 249.0 -644.0 249.0 -602.0V-181.0Z"/></g>
<g fill="black" opacity=".8" transform="translate(600 400) scale(0.1 -0.1)"><path d="M0.0 0.0V-936.0H121.0V0.0ZM-133.0 -178.0V-738.0H-29.0V-306.0H198.0V-178.0ZM147.0 -178.0V-599.0C147.0 -607.0 146.0 -610.0 140.0 -610.0C135.0 -610.0 124.0 -610.0 110.0 -609.0C125.0 -643.0 138.0 -698.0 140.0 -732.0C176.0 -732.0 200.0 -730.0 225.0 -707.0C249.0 -685.0 253.0 -649.0 253.0 -602.0V-178.0Z"/></g>
<g fill="red" transform="translate(700 400) scale(0.1 -0.1)"><path d="M0.0 0.0V-899.0H29.0V0.0ZM-143.0 -194.0V-695.0H-113.0V-223.0H156.0V-194.0ZM140.0 -194.0V-649.0C140.0 -656.0 138.0 -658.0 130.0 -659.0C122.0 -659.0 100.0 -659.0 71.0 -658.0C76.0 -667.0 82.0 -680.0 84.0 -688.0C117.0 -688.0 139.0 -688.0 152.0 -682.0C165.0 -676.0 169.0 -666.0 169.0 -648.0V-194.0Z"/></g>
<g fill="black" opacity=".8" transform="translate(700 400) scale(0.1 -0.1)"><path d="M0.0 0.0V-898.0H29.0V0.0ZM-142.0 -197.0V-695.0H-113.0V-227.0H153.0V-197.0ZM137.0 -197.0V-648.0C137.0 -656.0 135.0 -659.0 126.0 -659.0C118.0 -659.0 92.0 -660.0 59.0 -658.0C64.0 -668.0 69.0 -680.0 72.0 -688.0C111.0 -688.0 134.0 -688.0 148.0 -682.0C162.0 -676.0 167.0 -667.0 167.0 -647.0V-197.0Z"/></g>
<g fill="red" transform="translate(800 400) scale(0.1 -0.1)"><path d="M0.0 0.0V-950.0H113.0V0.0ZM-126.0 -181.0V-737.0H-25.0V-308.0H180.0V-181.0ZM138.0 -181.0V-590.0C138.0 -598.0 136.0 -599.0 132.0 -599.0C127.0 -599.0 118.0 -599.0 107.0 -599.0C123.0 -632.0 136.0 -685.0 137.0 -719.0C168.0 -719.0 188.0 -715.0 210.0 -694.0C232.0 -673.0 236.0 -635.0 236.0 -594.0V-181.0Z"/></g>
<g fill="black" opacity=".8" transform="translate(800 400) scale(0.1 -0.1)"><path d="M0.0 0.0V-933.0H120.0V0.0ZM-129.0 -178.0V-731.0H-25.0V-305.0H188.0V-178.0ZM138.0 -178.0V-592.0C138.0 -600.0 137.0 -602.0 131.0 -602.0C127.0 -603.0 117.0 -603.0 105.0 -602.0C120.0 -636.0 133.0 -690.0 135.0 -724.0C169.0 -724.0 192.0 -721.0 216.0 -699.0C239.0 -677.0 243.0 -641.0 243.0 -595.0V-178.0Z"/></g>
<g fill="red" transform="translate(900 400) scale(0.1 -0.1)"><path d="M0.0 0.0V-899.0H29.0V0.0ZM-134.0 -194.0V-695.0H-105.0V-223.0H137.0V-194.0ZM121.0 -194.0V-649.0C121.0 -656.0 119.0 -658.0 111.0 -659.0C104.0 -659.0 82.0 -659.0 54.0 -658.0C59.0 -667.0 64.0 -680.0 66.0 -688.0C100.0 -688.0 120.0 -688.0 134.0 -682.0C147.0 -676.0 151.0 -666.0 151.0 -649.0V-194.0Z"/></g>
<g fill="black" opacity=".8" transform="translate(900 400) scale(0.1 -0.1)"><path d="M0.0 0.0V-901.0H28.0V0.0ZM-135.0 -193.0V-692.0H-106.0V-222.0H142.0V-193.0ZM127.0 -193.0V-648.0C127.0 -656.0 126.0 -659.0 118.0 -659.0C109.0 -659.0 86.0 -659.0 54.0 -658.0C59.0 -667.0 64.0 -679.0 66.0 -687.0C103.0 -687.0 125.0 -687.0 138.0 -681.0C152.0 -675.0 157.0 -666.0 157.0 -648.0V-193.0Z"/></g>
<g fill="red" transform="translate(1000 400) scale(0.1 -0.1)"><path d="M0.0 0.0V-950.0H111.0V0.0ZM-126.0 -181.0V-744.0H-26.0V-308.0H179.0V-181.0ZM140.0 -181.0V-611.0C140.0 -619.0 138.0 -621.0 133.0 -621.0C128.0 -621.0 115.0 -621.0 102.0 -621.0C116.0 -652.0 127.0 -703.0 129.0 -735.0C163.0 -735.0 188.0 -733.0 212.0 -713.0C235.0 -693.0 239.0 -658.0 239.0 -614.0V-181.0Z"/></g>
<g fill="black" opacity=".8" transform="translate(1000 400) scale(0.1 -0.1)"><path d="M0.0 0.0V-954.0H115.0V0.0ZM-124.0 -183.0V-743.0H-25.0V-306.0H179.0V-183.0ZM133.0 -184.0V-610.0C133.0 -618.0 132.0 -620.0 127.0 -620.0C122.0 -620.0 112.0 -620.0 100.0 -620.0C114.0 -653.0 127.0 -705.0 129.0 -738.0C161.0 -738.0 183.0 -736.0 206.0 -714.0C228.0 -693.0 232.0 -657.0 232.0 -613.0V-184.0Z"/></g>
<g fill="red" transform="translate(1100 400) scale(0.1 -0.1)"><path d="M0.0 0.0V-485.0H30.0V0.0ZM-259.0 -128.0V-433.0H-230.0V-157.0H284.0V-128.0ZM270.0 -128.0V-385.0C270.0 -397.0 266.0 -401.0 251.0 -402.0C237.0 -403.0 187.0 -403.0 119.0 -402.0C124.0 -410.0 130.0 -421.0 132.0 -429.0C209.0 -429.0 252.0 -430.0 273.0 -424.0C294.0 -418.0 299.0 -407.0 299.0 -385.0V-128.0Z"/></g>
<g fill="black" opacity=".8" transform="translate(1100 400) scale(0.1 -0.1)"><path d="M0.0 0.0V-500.0H29.0V0.0ZM-259.0 -132.0V-435.0H-234.0V-160.0H292.0V-132.0ZM276.0 -130.0V-384.0C276.0 -396.0 273.0 -400.0 259.0 -400.0C244.0 -401.0 199.0 -402.0 134.0 -400.0C139.0 -409.0 144.0 -418.0 146.0 -426.0C219.0 -426.0 259.0 -426.0 279.0 -420.0C299.0 -415.0 305.0 -405.0 305.0 -383.0V-130.0Z"/></g>
<g fill="red" transform="translate(1200 400) scale(0.1 -0.1)"><path d="M0.0 0.0V-473.0H143.0V0.0ZM-230.0 -91.0V-408.0H-89.0V-206.0H350.0V-91.0ZM257.0 -91.0V-280.0C257.0 -290.0 252.0 -293.0 240.0 -293.0C228.0 -293.0 183.0 -293.0 152.0 -291.0C169.0 -326.0 188.0 -378.0 194.0 -416.0C257.0 -416.0 307.0 -415.0 347.0 -396.0C389.0 -376.0 400.0 -342.0 400.0 -282.0V-91.0Z"/></g>
<g fill="black" opacity=".8" transform="translate(1200 400) scale(0.1 -0.1)"><path d="M0.0 0.0V-461.0H135.0V0.0ZM-238.0 -84.0V-417.0H-105.0V-202.0H308.0V-84.0ZM249.0 -83.0V-284.0C249.0 -294.0 246.0 -297.0 234.0 -297.0C224.0 -298.0 186.0 -298.0 157.0 -296.0C174.0 -329.0 191.0 -379.0 197.0 -415.0C256.0 -415.0 302.0 -415.0 340.0 -395.0C379.0 -376.0 389.0 -345.0 389.0 -286.0V-83.0Z"/></g>
<g fill="red" transform="translate(1300 400) scale(0.1 -0.1)"><path d="M0.0 0.0V-899.0H29.0V0.0ZM-139.0 -194.0V-695.0H-109.0V-223.0H157.0V-194.0ZM144.0 -194.0V-648.0C144.0 -656.0 142.0 -658.0 134.0 -659.0C125.0 -659.0 102.0 -659.0 70.0 -658.0C76.0 -667.0 82.0 -680.0 84.0 -688.0C119.0 -688.0 142.0 -688.0 155.0 -682.0C169.0 -676.0 173.0 -666.0 173.0 -648.0V-194.0Z"/></g>
<g fill="black" opacity=".8" transform="translate(1300 400) scale(0.1 -0.1)"><path d="M0.0 0.0V-895.0H29.0V0.0ZM-144.0 -194.0V-695.0H-113.0V-224.0H158.0V-194.0ZM144.0 -195.0V-649.0C144.0 -657.0 142.0 -660.0 133.0 -660.0C124.0 -660.0 98.0 -661.0 63.0 -660.0C68.0 -669.0 74.0 -681.0 76.0 -690.0C116.0 -690.0 140.0 -690.0 155.0 -683.0C169.0 -677.0 174.0 -668.0 174.0 -648.0V-195.0Z"/></g>
<g fill="red" transform="translate(1400 400) scale(0.1 -0.1)"><path d="M0.0 0.0V-950.0H119.0V0.0ZM-130.0 -181.0V-741.0H-27.0V-308.0H195.0V-181.0ZM146.0 -181.0V-598.0C146.0 -606.0 144.0 -608.0 139.0 -608.0C133.0 -608.0 122.0 -608.0 109.0 -608.0C126.0 -641.0 140.0 -697.0 141.0 -733.0C176.0 -733.0 199.0 -729.0 223.0 -707.0C247.0 -685.0 251.0 -646.0 251.0 -603.0V-181.0Z"/></g>
<g fill="black" opacity=".8" transform="translate(1400 400) scale(0.1 -0.1)"><path d="M0.0 0.0V-938.0H120.0V0.0ZM-132.0 -178.0V-738.0H-27.0V-305.0H194.0V-178.0ZM146.0 -179.0V-600.0C146.0 -609.0 145.0 -611.0 139.0 -611.0C134.0 -612.0 123.0 -612.0 109.0 -611.0C124.0 -645.0 137.0 -699.0 139.0 -733.0C174.0 -733.0 198.0 -731.0 223.0 -708.0C246.0 -687.0 251.0 -650.0 251.0 -604.0V-179.0Z"/></g>
<g fill="red" transform="translate(1500 400) scale(0.1 -0.1)"><path d="M0.0 0.0V-899.0H29.0V0.0ZM-134.0 -194.0V-695.0H-105.0V-223.0H155.0V-194.0ZM137.0 -194.0V-648.0C137.0 -656.0 135.0 -658.0 127.0 -659.0C118.0 -659.0 95.0 -659.0 64.0 -658.0C69.0 -667.0 75.0 -680.0 77.0 -688.0C113.0 -688.0 135.0 -688.0 149.0 -682.0C163.0 -676.0 166.0 -666.0 166.0 -648.0V-194.0Z"/></g>
<g fill="black" opacity=".8" transform="translate(1500 400) scale(0.1 -0.1)"><path d="M0.0 0.0V-895.0H29.0V0.0ZM-140.0 -194.0V-696.0H-111.0V-224.0H156.0V-194.0ZM140.0 -194.0V-649.0C140.0 -657.0 138.0 -660.0 129.0 -660.0C121.0 -660.0 95.0 -661.0 61.0 -659.0C67.0 -669.0 72.0 -681.0 74.0 -689.0C113.0 -689.0 137.0 -689.0 151.0 -683.0C165.0 -677.0 170.0 -667.0 170.0 -648.0V-194.0Z"/></g>
<g fill="red" transform="translate(1600 400) scale(0.1 -0.1)"><path d="M0.0 0.0V-950.0H124.0V0.0ZM-124.0 -181.0V-741.0H-22.0V-308.0H200.0V-181.0ZM147.0 -181.0V-598.0C147.0 -606.0 145.0 -608.0 140.0 -608.0C134.0 -608.0 122.0 -608.0 109.0 -608.0C125.0 -640.0 139.0 -694.0 140.0 -728.0C174.0 -728.0 197.0 -724.0 221.0 -703.0C244.0 -682.0 248.0 -644.0 248.0 -602.0V-181.0Z"/></g>
<g fill="black" opacity=".8" transform="translate(1600 400) scale(0.1 -0.1)"><path d="M0.0 0.0V-937.0H119.0V0.0ZM-128.0 -178.0V-738.0H-25.0V-304.0H191.0V-178.0ZM142.0 -178.0V-599.0C142.0 -608.0 141.0 -610.0 135.0 -610.0C130.0 -611.0 120.0 -611.0 107.0 -610.0C122.0 -644.0 135.0 -698.0 137.0 -732.0C171.0 -732.0 195.0 -729.0 218.0 -707.0C241.0 -685.0 246.0 -649.0 246.0 -603.0V-178.0Z"/></g>
<g fill="red" transform="translate(100 500) scale(0.1 -0.1)"><path d="M0.0 0.0V-899.0H29.0V0.0ZM-131.0 -194.0V-695.0H-102.0V-223.0H137.0V-194.0ZM128.0 -194.0V-649.0C128.0 -656.0 126.0 -658.0 120.0 -659.0C113.0 -659.0 93.0 -659.0 68.0 -658.0C73.0 -667.0 78.0 -680.0 80.0 -688.0C110.0 -688.0 129.0 -688.0 142.0 -682.0C154.0 -676.0 158.0 -666.0 158.0 -648.0V-194.0Z"/></g>
<g fill="black" opacity=".8" transform="translate(100 500) scale(0.1 -0.1)"><path d="M0.0 0.0V-896.0H28.0V0.0ZM-124.0 -195.0V-697.0H-100.0V-223.0H144.0V-195.0ZM124.0 -193.0V-649.0C124.0 -657.0 123.0 -659.0 115.0 -659.0C107.0 -659.0 84.0 -660.0 54.0 -658.0C59.0 -668.0 64.0 -679.0 67.0 -687.0C102.0 -687.0 123.0 -687.0 136.0 -681.0C149.0 -676.0 154.0 -666.0 154.0 -648.0V-193.0Z"/></g>
<g fill="red" transform="translate(200 500) scale(0.1 -0.1)"><path d="M0.0 0.0V-950.0H107.0V0.0ZM-108.0 -181.0V-735.0H-19.0V-303.0H198.0V-181.0ZM124.0 -181.0V-606.0C124.0 -615.0 122.0 -616.0 117.0 -616.0C112.0 -617.0 101.0 -617.0 87.0 -616.0C103.0 -648.0 115.0 -701.0 117.0 -734.0C150.0 -734.0 172.0 -730.0 194.0 -709.0C217.0 -689.0 221.0 -652.0 221.0 -611.0V-181.0Z"/></g>
<g fill="black" opacity=".8" transform="translate(200 500) scale(0.1 -0.1)"><path d="M0.0 0.0V-944.0H113.0V0.0ZM-114.0 -183.0V-743.0H-21.0V-305.0H179.0V-183.0ZM129.0 -181.0V-606.0C129.0 -614.0 128.0 -616.0 123.0 -616.0C119.0 -617.0 111.0 -617.0 100.0 -616.0C114.0 -649.0 126.0 -701.0 128.0 -734.0C159.0 -734.0 180.0 -731.0 201.0 -709.0C222.0 -688.0 226.0 -653.0 226.0 -610.0V-181.0Z"/></g>
<g fill="red" transform="translate(300 500) scale(0.1 -0.1)"><path d="M0.0 0.0V-899.0H29.0V0.0ZM-131.0 -194.0V-695.0H-102.0V-223.0H140.0V-194.0ZM127.0 -194.0V-648.0C127.0 -656.0 125.0 -658.0 118.0 -659.0C109.0 -659.0 85.0 -659.0 54.0 -658.0C60.0 -667.0 66.0 -680.0 68.0 -688.0C103.0 -688.0 125.0 -688.0 139.0 -682.0C153.0 -676.0 157.0 -666.0 157.0 -648.0V-194.0Z"/></g>
<g fill="black" opacity=".8" transform="translate(300 500) scale(0.1 -0.1)"><path d="M0.0 0.0V-900.0H28.0V0.0ZM-130.0 -192.0V-691.0H-98.0V-222.0H137.0V-192.0ZM124.0 -194.0V-648.0C124.0 -656.0 123.0 -659.0 115.0 -659.0C107.0 -659.0 83.0 -659.0 53.0 -658.0C58.0 -667.0 63.0 -679.0 65.0 -687.0C101.0 -687.0 122.0 -687.0 136.0 -681.0C149.0 -675.0 153.0 -666.0 153.0 -648.0V-194.0Z"/></g>
<g fill="red" transform="translate(400 500) scale(0.1 -0.1)"><path d="M0.0 0.0V-950.0H105.0V0.0ZM-115.0 -181.0V-727.0H-19.0V-294.0H168.0V-181.0ZM129.0 -181.0V-607.0C129.0 -615.0 127.0 -616.0 122.0 -616.0C116.0 -617.0 105.0 -617.0 91.0 -616.0C106.0 -648.0 120.0 -700.0 122.0 -732.0C155.0 -732.0 177.0 -728.0 200.0 -708.0C223.0 -688.0 227.0 -651.0 227.0 -611.0V-181.0Z"/></g>
<g fill="black" opacity=".8" transform="translate(400 500) scale(0.1 -0.1)"><path d="M0.0 0.0V-947.0H115.0V0.0ZM-119.0 -180.0V-736.0H-18.0V-303.0H173.0V-180.0ZM129.0 -182.0V-605.0C129.0 -613.0 128.0 -615.0 123.0 -615.0C119.0 -615.0 111.0 -615.0 99.0 -615.0C113.0 -647.0 126.0 -700.0 127.0 -733.0C159.0 -733.0 180.0 -730.0 202.0 -708.0C223.0 -687.0 227.0 -652.0 227.0 -608.0V-182.0Z"/></g>
<g fill="red" transform="translate(500 500) scale(0.1 -0.1)"><path d="M0.0 0.0V-899.0H29.0V0.0ZM-130.0 -194.0V-695.0H-103.0V-223.0H145.0V-194.0ZM128.0 -194.0V-647.0C128.0 -655.0 126.0 -658.0 117.0 -658.0C110.0 -659.0 85.0 -659.0 53.0 -658.0C58.0 -667.0 63.0 -680.0 65.0 -689.0C102.0 -689.0 125.0 -689.0 138.0 -683.0C152.0 -676.0 157.0 -666.0 157.0 -647.0V-194.0Z"/></g>
<g fill="black" opacity=".8" transform="translate(500 500) scale(0.1 -0.1)"><path d="M0.0 0.0V-897.0H28.0V0.0ZM-131.0 -193.0V-695.0H-105.0V-221.0H147.0V-193.0ZM130.0 -192.0V-649.0C130.0 -657.0 128.0 -659.0 120.0 -659.0C112.0 -659.0 88.0 -660.0 57.0 -659.0C61.0 -668.0 67.0 -680.0 69.0 -688.0C106.0 -688.0 128.0 -688.0 141.0 -681.0C154.0 -676.0 159.0 -667.0 159.0 -648.0V-192.0Z"/></g>
<g fill="red" transform="translate(600 500) scale(0.1 -0.1)"><path d="M0.0 0.0V-950.0H113.0V0.0ZM-119.0 -181.0V-744.0H-28.0V-308.0H187.0V-181.0ZM142.0 -181.0V-611.0C142.0 -619.0 140.0 -621.0 136.0 -621.0C131.0 -621.0 120.0 -621.0 109.0 -621.0C122.0 -655.0 132.0 -711.0 133.0 -746.0C164.0 -746.0 186.0 -743.0 208.0 -721.0C230.0 -699.0 233.0 -661.0 233.0 -615.0V-181.0Z"/></g>
<g fill="black" opacity=".8" transform="translate(600 500) scale(0.1 -0.1)"><path d="M0.0 0.0V-953.0H114.0V0.0ZM-122.0 -183.0V-748.0H-26.0V-307.0H184.0V-183.0ZM136.0 -183.0V-613.0C136.0 -621.0 135.0 -623.0 129.0 -623.0C125.0 -624.0 115.0 -624.0 102.0 -623.0C117.0 -656.0 129.0 -709.0 131.0 -742.0C163.0 -742.0 185.0 -739.0 208.0 -717.0C230.0 -696.0 234.0 -660.0 234.0 -617.0V-183.0Z"/></g>
<g fill="red" transform="translate(700 500) scale(0.1 -0.1)"><path d="M0.0 0.0V-899.0H29.0V0.0ZM-142.0 -194.0V-695.0H-113.0V-223.0H156.0V-194.0ZM141.0 -194.0V-648.0C141.0 -656.0 139.0 -658.0 130.0 -658.0C122.0 -659.0 98.0 -659.0 66.0 -658.0C71.0 -667.0 77.0 -680.0 79.0 -688.0C115.0 -688.0 139.0 -688.0 153.0 -682.0C166.0 -676.0 170.0 -666.0 170.0 -648.0V-194.0Z"/></g>
<g fill="black" opacity=".8" transform="translate(700 500) scale(0.1 -0.1)"><path d="M0.0 0.0V-896.0H29.0V0.0ZM-145.0 -194.0V-695.0H-116.0V-224.0H158.0V-194.0ZM142.0 -195.0V-648.0C142.0 -657.0 140.0 -660.0 131.0 -660.0C123.0 -659.0 97.0 -660.0 62.0 -659.0C67.0 -668.0 72.0 -680.0 75.0 -689.0C115.0 -689.0 139.0 -689.0 153.0 -682.0C167.0 -677.0 172.0 -667.0 172.0 -648.0V-195.0Z"/></g>
<g fill="red" transform="translate(800 500) scale(0.1 -0.1)"><path d="M0.0 0.0V-950.0H121.0V0.0ZM-130.0 -181.0V-741.0H-26.0V-308.0H197.0V-181.0ZM148.0 -181.0V-598.0C148.0 -606.0 146.0 -608.0 141.0 -608.0C135.0 -608.0 123.0 -608.0 110.0 -608.0C126.0 -640.0 140.0 -694.0 141.0 -728.0C175.0 -728.0 198.0 -724.0 222.0 -703.0C245.0 -682.0 249.0 -644.0 249.0 -602.0V-181.0Z"/></g>
<g fill="black" opacity=".8" transform="translate(800 500) scale(0.1 -0.1)"><path d="M0.0 0.0V-939.0H120.0V0.0ZM-133.0 -178.0V-737.0H-28.0V-305.0H193.0V-178.0ZM144.0 -179.0V-599.0C144.0 -608.0 143.0 -610.0 137.0 -610.0C132.0 -610.0 121.0 -610.0 107.0 -610.0C123.0 -643.0 136.0 -697.0 138.0 -732.0C173.0 -732.0 197.0 -729.0 221.0 -707.0C245.0 -685.0 249.0 -649.0 249.0 -603.0V-179.0Z"/></g>
<g fill="red" transform="translate(900 500) scale(0.1 -0.1)"><path d="M0.0 0.0V-485.0H30.0V0.0ZM-186.0 -112.0V-407.0H-157.0V-141.0H213.0V-112.0ZM196.0 -112.0V-362.0C196.0 -371.0 194.0 -373.0 185.0 -374.0C175.0 -375.0 146.0 -375.0 108.0 -374.0C113.0 -381.0 119.0 -393.0 120.0 -401.0C164.0 -401.0 191.0 -401.0 207.0 -395.0C222.0 -389.0 226.0 -381.0 226.0 -362.0V-112.0Z"/></g>
<g fill="black" opacity=".8" transform="translate(900 500) scale(0.1 -0.1)"><path d="M0.0 0.0V-485.0H24.0V0.0ZM-187.0 -113.0V-408.0H-163.0V-138.0H217.0V-113.0ZM205.0 -113.0V-368.0C205.0 -377.0 202.0 -380.0 192.0 -380.0C181.0 -381.0 147.0 -381.0 100.0 -380.0C104.0 -388.0 108.0 -396.0 110.0 -403.0C164.0 -403.0 194.0 -403.0 209.0 -397.0C225.0 -393.0 230.0 -385.0 230.0 -367.0V-113.0Z"/></g>
<g fill="red" transform="translate(1000 500) scale(0.1 -0.1)"><path d="M0.0 0.0V-482.0H129.0V0.0ZM-173.0 -80.0V-417.0H-47.0V-195.0H249.0V-80.0ZM178.0 -80.0V-290.0C178.0 -298.0 176.0 -299.0 169.0 -299.0C162.0 -299.0 145.0 -299.0 130.0 -299.0C145.0 -330.0 161.0 -376.0 166.0 -411.0C207.0 -411.0 241.0 -409.0 270.0 -391.0C300.0 -371.0 306.0 -341.0 306.0 -292.0V-80.0Z"/></g>
<g fill="black" opacity=".8" transform="translate(1000 500) scale(0.1 -0.1)"><path d="M0.0 0.0V-469.0H108.0V0.0ZM-172.0 -78.0V-406.0H-66.0V-179.0H234.0V-78.0ZM188.0 -78.0V-295.0C188.0 -303.0 185.0 -306.0 177.0 -306.0C170.0 -307.0 144.0 -307.0 123.0 -305.0C137.0 -333.0 151.0 -375.0 155.0 -405.0C198.0 -405.0 232.0 -404.0 261.0 -387.0C290.0 -371.0 297.0 -343.0 297.0 -297.0V-78.0Z"/></g>
<g fill="red" transform="translate(1100 500) scale(0.1 -0.1)"><path d="M0.0 0.0V-182.0H29.0V0.0ZM-38.0 -303.0V-584.0H-9.0V-333.0H624.0V-303.0ZM611.0 -303.0V-534.0C611.0 -547.0 607.0 -551.0 589.0 -552.0C571.0 -553.0 514.0 -553.0 434.0 -552.0C439.0 -561.0 444.0 -571.0 446.0 -579.0C538.0 -579.0 588.0 -580.0 612.0 -574.0C634.0 -568.0 640.0 -556.0 640.0 -534.0V-303.0Z"/></g>
<g fill="black" opacity=".8" transform="translate(1100 500) scale(0.1 -0.1)"><path d="M0.0 0.0V-178.0H29.0V0.0ZM-42.0 -302.0V-583.0H-12.0V-332.0H623.0V-302.0ZM611.0 -302.0V-536.0C611.0 -549.0 607.0 -553.0 589.0 -553.0C571.0 -554.0 514.0 -554.0 433.0 -554.0C439.0 -563.0 442.0 -571.0 446.0 -580.0C539.0 -580.0 588.0 -581.0 612.0 -575.0C633.0 -569.0 640.0 -557.0 640.0 -535.0V-302.0Z"/></g>
<g fill="red" transform="translate(1200 500) scale(0.1 -0.1)"><path d="M0.0 0.0V-198.0H79.0V0.0ZM-72.0 -282.0V-621.0H69.0V-402.0H599.0V-282.0ZM530.0 -282.0V-490.0C530.0 -502.0 524.0 -505.0 509.0 -506.0C495.0 -506.0 435.0 -506.0 395.0 -504.0C413.0 -536.0 434.0 -587.0 442.0 -623.0C513.0 -623.0 569.0 -623.0 614.0 -604.0C659.0 -586.0 673.0 -553.0 673.0 -492.0V-282.0Z"/></g>
<g fill="black" opacity=".8" transform="translate(1200 500) scale(0.1 -0.1)"><path d="M0.0 0.0V-191.0H80.0V0.0ZM-74.0 -281.0V-620.0H69.0V-402.0H599.0V-281.0ZM527.0 -282.0V-491.0C527.0 -504.0 521.0 -507.0 506.0 -507.0C492.0 -508.0 433.0 -508.0 394.0 -505.0C411.0 -538.0 433.0 -589.0 441.0 -625.0C512.0 -625.0 569.0 -625.0 613.0 -605.0C658.0 -587.0 673.0 -556.0 673.0 -492.0V-282.0Z"/></g>
<g fill="red" transform="translate(1300 500) scale(0.1 -0.1)"><path d="M0.0 0.0V-657.0H29.0V0.0ZM-214.0 -141.0V-511.0H-184.0V-170.0H236.0V-141.0ZM225.0 -141.0V-459.0C225.0 -470.0 222.0 -474.0 210.0 -474.0C197.0 -475.0 159.0 -475.0 103.0 -474.0C109.0 -484.0 114.0 -495.0 115.0 -504.0C175.0 -504.0 212.0 -505.0 231.0 -498.0C250.0 -492.0 255.0 -481.0 255.0 -459.0V-141.0Z"/></g>
<g fill="black" opacity=".8" transform="translate(1300 500) scale(0.1 -0.1)"><path d="M0.0 0.0V-641.0H30.0V0.0ZM-227.0 -130.0V-511.0H-189.0V-163.0H233.0V-130.0ZM226.0 -135.0V-467.0C226.0 -478.0 223.0 -481.0 211.0 -481.0C198.0 -482.0 159.0 -483.0 105.0 -481.0C110.0 -491.0 115.0 -501.0 117.0 -510.0C179.0 -510.0 214.0 -510.0 233.0 -503.0C251.0 -498.0 257.0 -488.0 257.0 -466.0V-135.0Z"/></g>
<g fill="red" transform="translate(1400 500) scale(0.1 -0.1)"><path d="M0.0 0.0V-635.0H140.0V0.0ZM-197.0 -84.0V-516.0H-63.0V-213.0H251.0V-84.0ZM212.0 -84.0V-370.0C212.0 -379.0 209.0 -381.0 201.0 -381.0C193.0 -381.0 169.0 -381.0 149.0 -380.0C165.0 -417.0 180.0 -472.0 183.0 -511.0C233.0 -511.0 273.0 -510.0 307.0 -488.0C341.0 -466.0 348.0 -430.0 348.0 -373.0V-84.0Z"/></g>
<g fill="black" opacity=".8" transform="translate(1400 500) scale(0.1 -0.1)"><path d="M0.0 0.0V-620.0H135.0V0.0ZM-207.0 -84.0V-505.0H-70.0V-210.0H259.0V-84.0ZM209.0 -90.0V-374.0C209.0 -383.0 206.0 -386.0 197.0 -386.0C188.0 -387.0 161.0 -387.0 138.0 -385.0C155.0 -420.0 171.0 -472.0 176.0 -509.0C226.0 -509.0 265.0 -508.0 299.0 -486.0C333.0 -466.0 341.0 -432.0 341.0 -376.0V-90.0Z"/></g>
<g fill="red" transform="translate(1500 500) scale(0.1 -0.1)"><path d="M0.0 0.0V-657.0H29.0V0.0ZM-214.0 -141.0V-511.0H-185.0V-170.0H236.0V-141.0ZM225.0 -141.0V-459.0C225.0 -470.0 222.0 -474.0 209.0 -474.0C197.0 -475.0 158.0 -475.0 102.0 -474.0C108.0 -484.0 113.0 -495.0 115.0 -504.0C175.0 -504.0 211.0 -505.0 231.0 -498.0C249.0 -492.0 254.0 -481.0 254.0 -459.0V-141.0Z"/></g>
<g fill="black" opacity=".8" transform="translate(1500 500) scale(0.1 -0.1)"><path d="M0.0 0.0V-642.0H30.0V0.0ZM-215.0 -132.0V-515.0H-185.0V-163.0H229.0V-132.0ZM215.0 -133.0V-467.0C215.0 -477.0 212.0 -481.0 201.0 -481.0C188.0 -481.0 151.0 -482.0 99.0 -481.0C104.0 -490.0 109.0 -501.0 111.0 -509.0C171.0 -509.0 204.0 -509.0 222.0 -503.0C240.0 -497.0 245.0 -488.0 245.0 -466.0V-133.0Z"/></g>
<g fill="red" transform="translate(1600 500) scale(0.1 -0.1)"><path d="M0.0 0.0V-635.0H131.0V0.0ZM-187.0 -83.0V-512.0H-53.0V-209.0H261.0V-83.0ZM188.0 -83.0V-373.0C188.0 -382.0 185.0 -384.0 177.0 -385.0C169.0 -385.0 145.0 -385.0 125.0 -384.0C141.0 -420.0 156.0 -476.0 159.0 -515.0C210.0 -515.0 249.0 -514.0 283.0 -492.0C318.0 -470.0 325.0 -433.0 325.0 -376.0V-83.0Z"/></g>
<g fill="black" opacity=".8" transform="translate(1600 500) scale(0.1 -0.1)"><path d="M0.0 0.0V-622.0H131.0V0.0ZM-196.0 -88.0V-510.0H-70.0V-211.0H253.0V-88.0ZM199.0 -88.0V-376.0C199.0 -385.0 196.0 -388.0 187.0 -388.0C179.0 -389.0 155.0 -389.0 133.0 -387.0C149.0 -421.0 165.0 -472.0 169.0 -508.0C217.0 -508.0 254.0 -507.0 287.0 -486.0C319.0 -466.0 327.0 -432.0 327.0 -378.0V-88.0Z"/></g>
<g fill="red" transform="translate(100 600) scale(0.1 -0.1)"><path d="M0.0 0.0V-490.0H29.0V0.0ZM-165.0 -86.0V-405.0H-135.0V-115.0H189.0V-86.0ZM173.0 -86.0V-352.0C173.0 -361.0 170.0 -364.0 160.0 -364.0C149.0 -365.0 116.0 -365.0 74.0 -364.0C78.0 -372.0 83.0 -383.0 85.0 -389.0C137.0 -389.0 167.0 -389.0 182.0 -385.0C198.0 -380.0 202.0 -370.0 202.0 -352.0V-86.0Z"/></g>
<g fill="black" opacity=".8" transform="translate(100 600) scale(0.1 -0.1)"><path d="M0.0 0.0V-492.0H25.0V0.0ZM-171.0 -86.0V-394.0H-142.0V-113.0H185.0V-86.0ZM177.0 -88.0V-358.0C177.0 -366.0 175.0 -369.0 165.0 -369.0C155.0 -370.0 125.0 -370.0 83.0 -369.0C87.0 -377.0 91.0 -385.0 93.0 -392.0C142.0 -392.0 169.0 -393.0 183.0 -387.0C198.0 -382.0 202.0 -375.0 202.0 -357.0V-88.0Z"/></g>
<g fill="red" transform="translate(200 600) scale(0.1 -0.1)"><path d="M0.0 0.0V-473.0H121.0V0.0ZM-154.0 -43.0V-389.0H-39.0V-156.0H191.0V-43.0ZM161.0 -43.0V-270.0C161.0 -278.0 159.0 -280.0 153.0 -280.0C147.0 -280.0 133.0 -280.0 119.0 -279.0C133.0 -308.0 148.0 -352.0 152.0 -384.0C189.0 -384.0 219.0 -382.0 245.0 -365.0C272.0 -347.0 278.0 -318.0 278.0 -272.0V-43.0Z"/></g>
<g fill="black" opacity=".8" transform="translate(200 600) scale(0.1 -0.1)"><path d="M0.0 0.0V-464.0H108.0V0.0ZM-156.0 -41.0V-381.0H-48.0V-142.0H204.0V-41.0ZM161.0 -44.0V-274.0C161.0 -281.0 159.0 -283.0 152.0 -283.0C146.0 -284.0 127.0 -284.0 110.0 -283.0C124.0 -311.0 136.0 -352.0 140.0 -382.0C179.0 -382.0 209.0 -381.0 235.0 -363.0C262.0 -347.0 268.0 -320.0 268.0 -275.0V-44.0Z"/></g>
<g fill="red" transform="translate(300 600) scale(0.1 -0.1)"><path d="M0.0 0.0V-904.0H29.0V0.0ZM-244.0 -343.0V-772.0H-215.0V-372.0H267.0V-343.0ZM253.0 -343.0V-720.0C253.0 -732.0 250.0 -735.0 236.0 -736.0C222.0 -737.0 179.0 -737.0 122.0 -736.0C127.0 -745.0 133.0 -756.0 135.0 -764.0C200.0 -764.0 238.0 -764.0 258.0 -758.0C277.0 -752.0 282.0 -742.0 282.0 -719.0V-343.0Z"/></g>
<g fill="black" opacity=".8" transform="translate(300 600) scale(0.1 -0.1)"><path d="M0.0 0.0V-921.0H28.0V0.0ZM-234.0 -345.0V-771.0H-206.0V-372.0H266.0V-345.0ZM254.0 -345.0V-719.0C254.0 -731.0 251.0 -734.0 238.0 -736.0C224.0 -736.0 182.0 -736.0 124.0 -735.0C129.0 -744.0 135.0 -754.0 137.0 -762.0C201.0 -762.0 239.0 -762.0 259.0 -757.0C277.0 -751.0 283.0 -741.0 283.0 -718.0V-345.0Z"/></g>
<g fill="red" transform="translate(400 600) scale(0.1 -0.1)"><path d="M0.0 0.0V-950.0H150.0V0.0ZM-220.0 -349.0V-820.0H-77.0V-489.0H282.0V-349.0ZM232.0 -349.0V-668.0C232.0 -678.0 229.0 -681.0 219.0 -681.0C209.0 -681.0 178.0 -681.0 155.0 -680.0C172.0 -719.0 188.0 -779.0 192.0 -821.0C249.0 -821.0 294.0 -819.0 331.0 -796.0C370.0 -773.0 378.0 -734.0 378.0 -672.0V-349.0Z"/></g>
<g fill="black" opacity=".8" transform="translate(400 600) scale(0.1 -0.1)"><path d="M0.0 0.0V-964.0H134.0V0.0ZM-214.0 -352.0V-815.0H-89.0V-483.0H292.0V-352.0ZM242.0 -352.0V-668.0C242.0 -679.0 239.0 -681.0 228.0 -681.0C218.0 -682.0 183.0 -682.0 156.0 -680.0C173.0 -717.0 190.0 -774.0 194.0 -812.0C249.0 -812.0 291.0 -810.0 327.0 -788.0C362.0 -767.0 372.0 -730.0 372.0 -672.0V-352.0Z"/></g>
<g fill="red" transform="translate(500 600) scale(0.1 -0.1)"><path d="M0.0 0.0V-834.0H29.0V0.0ZM-222.0 -179.0V-693.0H-193.0V-208.0H238.0V-179.0ZM223.0 -179.0V-637.0C223.0 -648.0 221.0 -652.0 208.0 -652.0C196.0 -653.0 158.0 -653.0 108.0 -652.0C113.0 -661.0 119.0 -673.0 121.0 -681.0C178.0 -681.0 212.0 -681.0 229.0 -675.0C248.0 -670.0 253.0 -659.0 253.0 -637.0V-179.0Z"/></g>
<g fill="black" opacity=".8" transform="translate(500 600) scale(0.1 -0.1)"><path d="M0.0 0.0V-852.0H33.0V0.0ZM-209.0 -183.0V-685.0H-178.0V-216.0H244.0V-183.0ZM224.0 -181.0V-629.0C224.0 -640.0 222.0 -643.0 209.0 -644.0C196.0 -644.0 158.0 -645.0 106.0 -643.0C112.0 -654.0 118.0 -667.0 121.0 -676.0C180.0 -676.0 215.0 -677.0 233.0 -669.0C252.0 -663.0 258.0 -651.0 258.0 -628.0V-181.0Z"/></g>
<g fill="red" transform="translate(600 600) scale(0.1 -0.1)"><path d="M0.0 0.0V-842.0H136.0V0.0ZM-210.0 -152.0V-710.0H-79.0V-281.0H263.0V-152.0ZM215.0 -152.0V-575.0C215.0 -585.0 212.0 -588.0 203.0 -588.0C195.0 -588.0 170.0 -588.0 149.0 -587.0C165.0 -620.0 182.0 -674.0 186.0 -711.0C236.0 -711.0 275.0 -709.0 308.0 -688.0C341.0 -667.0 349.0 -633.0 349.0 -578.0V-152.0Z"/></g>
<g fill="black" opacity=".8" transform="translate(600 600) scale(0.1 -0.1)"><path d="M0.0 0.0V-879.0H143.0V0.0ZM-194.0 -154.0V-720.0H-65.0V-297.0H279.0V-154.0ZM217.0 -153.0V-564.0C217.0 -574.0 214.0 -577.0 205.0 -577.0C197.0 -578.0 171.0 -578.0 149.0 -577.0C167.0 -615.0 184.0 -675.0 188.0 -715.0C238.0 -715.0 275.0 -713.0 309.0 -689.0C342.0 -665.0 350.0 -625.0 350.0 -568.0V-153.0Z"/></g>
<g fill="red" transform="translate(700 600) scale(0.1 -0.1)"><path d="M0.0 0.0V-750.0H29.0V0.0ZM-236.0 -173.0V-626.0H-207.0V-202.0H259.0V-173.0ZM245.0 -173.0V-580.0C245.0 -591.0 242.0 -594.0 229.0 -595.0C214.0 -596.0 173.0 -596.0 116.0 -595.0C121.0 -605.0 126.0 -617.0 128.0 -626.0C190.0 -626.0 229.0 -626.0 250.0 -620.0C269.0 -614.0 274.0 -602.0 274.0 -579.0V-173.0Z"/></g>
<g fill="black" opacity=".8" transform="translate(700 600) scale(0.1 -0.1)"><path d="M0.0 0.0V-757.0H34.0V0.0ZM-225.0 -184.0V-626.0H-194.0V-218.0H265.0V-184.0ZM246.0 -183.0V-568.0C246.0 -580.0 243.0 -584.0 230.0 -584.0C216.0 -585.0 175.0 -585.0 118.0 -584.0C124.0 -595.0 130.0 -607.0 132.0 -616.0C197.0 -616.0 235.0 -616.0 255.0 -609.0C275.0 -603.0 281.0 -592.0 281.0 -567.0V-183.0Z"/></g>
<g fill="red" transform="translate(800 600) scale(0.1 -0.1)"><path d="M0.0 0.0V-675.0H132.0V0.0ZM-213.0 -133.0V-592.0H-85.0V-257.0H281.0V-133.0ZM234.0 -133.0V-461.0C234.0 -471.0 230.0 -473.0 220.0 -473.0C210.0 -474.0 177.0 -474.0 151.0 -472.0C167.0 -506.0 183.0 -559.0 188.0 -595.0C243.0 -595.0 285.0 -594.0 320.0 -573.0C356.0 -553.0 364.0 -519.0 364.0 -464.0V-133.0Z"/></g>
<g fill="black" opacity=".8" transform="translate(800 600) scale(0.1 -0.1)"><path d="M0.0 0.0V-722.0H147.0V0.0ZM-202.0 -129.0V-609.0H-63.0V-270.0H288.0V-129.0ZM222.0 -127.0V-450.0C222.0 -461.0 220.0 -463.0 210.0 -463.0C202.0 -464.0 178.0 -464.0 156.0 -463.0C174.0 -501.0 191.0 -560.0 196.0 -601.0C249.0 -601.0 289.0 -600.0 325.0 -575.0C360.0 -552.0 369.0 -514.0 369.0 -453.0V-127.0Z"/></g>
<g fill="red" transform="translate(900 600) scale(0.1 -0.1)"><path d="M0.0 0.0V-490.0H30.0V0.0ZM-175.0 -91.0V-413.0H-146.0V-120.0H203.0V-91.0ZM190.0 -91.0V-361.0C190.0 -370.0 187.0 -373.0 177.0 -374.0C166.0 -374.0 133.0 -374.0 91.0 -373.0C95.0 -381.0 100.0 -391.0 102.0 -399.0C154.0 -399.0 184.0 -399.0 199.0 -393.0C215.0 -388.0 219.0 -380.0 219.0 -361.0V-91.0Z"/></g>
<g fill="black" opacity=".8" transform="translate(900 600) scale(0.1 -0.1)"><path d="M0.0 0.0V-494.0H25.0V0.0ZM-178.0 -91.0V-404.0H-150.0V-118.0H201.0V-91.0ZM191.0 -93.0V-366.0C191.0 -375.0 189.0 -378.0 179.0 -377.0C169.0 -378.0 137.0 -379.0 93.0 -378.0C96.0 -385.0 100.0 -394.0 103.0 -401.0C154.0 -401.0 182.0 -401.0 197.0 -395.0C212.0 -391.0 217.0 -383.0 217.0 -365.0V-93.0Z"/></g>
<g fill="red" transform="translate(1000 600) scale(0.1 -0.1)"><path d="M0.0 0.0V-491.0H121.0V0.0ZM-161.0 -53.0V-399.0H-46.0V-166.0H219.0V-53.0ZM174.0 -53.0V-288.0C174.0 -296.0 172.0 -298.0 164.0 -298.0C157.0 -298.0 137.0 -298.0 118.0 -298.0C133.0 -327.0 148.0 -373.0 152.0 -406.0C194.0 -406.0 227.0 -404.0 256.0 -386.0C285.0 -368.0 291.0 -338.0 291.0 -290.0V-53.0Z"/></g>
<g fill="black" opacity=".8" transform="translate(1000 600) scale(0.1 -0.1)"><path d="M0.0 0.0V-478.0H109.0V0.0ZM-165.0 -52.0V-401.0H-56.0V-154.0H221.0V-52.0ZM177.0 -54.0V-292.0C177.0 -299.0 175.0 -302.0 167.0 -302.0C160.0 -303.0 138.0 -303.0 118.0 -301.0C132.0 -329.0 145.0 -372.0 149.0 -402.0C191.0 -402.0 223.0 -401.0 250.0 -383.0C278.0 -367.0 285.0 -339.0 285.0 -293.0V-54.0Z"/></g>
<g fill="red" transform="translate(1100 600) scale(0.1 -0.1)"><path d="M0.0 0.0V-657.0H30.0V0.0ZM-183.0 -141.0V-511.0H-154.0V-170.0H223.0V-141.0ZM204.0 -141.0V-459.0C204.0 -470.0 201.0 -474.0 188.0 -474.0C176.0 -475.0 137.0 -475.0 82.0 -474.0C87.0 -484.0 92.0 -495.0 94.0 -504.0C154.0 -504.0 190.0 -505.0 210.0 -498.0C229.0 -492.0 233.0 -481.0 233.0 -459.0V-141.0Z"/></g>
<g fill="black" opacity=".8" transform="translate(1100 600) scale(0.1 -0.1)"><path d="M0.0 0.0V-639.0H28.0V0.0ZM-190.0 -121.0V-514.0H-161.0V-150.0H214.0V-121.0ZM200.0 -122.0V-469.0C200.0 -479.0 198.0 -482.0 187.0 -482.0C176.0 -482.0 142.0 -483.0 95.0 -482.0C100.0 -491.0 104.0 -501.0 107.0 -509.0C161.0 -509.0 191.0 -509.0 207.0 -503.0C223.0 -498.0 229.0 -488.0 229.0 -469.0V-122.0Z"/></g>
<g fill="red" transform="translate(1200 600) scale(0.1 -0.1)"><path d="M0.0 0.0V-635.0H129.0V0.0ZM-186.0 -77.0V-540.0H-56.0V-199.0H240.0V-77.0ZM187.0 -77.0V-415.0C187.0 -424.0 184.0 -426.0 176.0 -426.0C168.0 -426.0 146.0 -426.0 126.0 -425.0C141.0 -460.0 154.0 -514.0 157.0 -550.0C205.0 -550.0 242.0 -548.0 274.0 -528.0C306.0 -507.0 312.0 -471.0 312.0 -418.0V-77.0Z"/></g>
<g fill="black" opacity=".8" transform="translate(1200 600) scale(0.1 -0.1)"><path d="M0.0 0.0V-654.0H120.0V0.0ZM-178.0 -93.0V-537.0H-63.0V-210.0H242.0V-93.0ZM192.0 -94.0V-412.0C192.0 -421.0 190.0 -424.0 181.0 -424.0C174.0 -424.0 149.0 -424.0 128.0 -423.0C143.0 -455.0 158.0 -504.0 162.0 -537.0C207.0 -537.0 240.0 -536.0 270.0 -516.0C300.0 -497.0 307.0 -464.0 307.0 -415.0V-94.0Z"/></g>
<g fill="red" transform="translate(1300 600) scale(0.1 -0.1)"><path d="M0.0 0.0V-745.0H28.0V0.0ZM-204.0 -183.0V-598.0H-176.0V-212.0H243.0V-183.0ZM225.0 -183.0V-545.0C225.0 -554.0 222.0 -558.0 210.0 -559.0C199.0 -560.0 160.0 -560.0 109.0 -558.0C114.0 -568.0 119.0 -580.0 121.0 -588.0C178.0 -588.0 213.0 -589.0 231.0 -582.0C250.0 -576.0 253.0 -566.0 253.0 -544.0V-183.0Z"/></g>
<g fill="black" opacity=".8" transform="translate(1300 600) scale(0.1 -0.1)"><path d="M0.0 0.0V-740.0H33.0V0.0ZM-209.0 -170.0V-601.0H-179.0V-203.0H236.0V-170.0ZM218.0 -168.0V-546.0C218.0 -557.0 215.0 -561.0 204.0 -560.0C191.0 -561.0 153.0 -562.0 102.0 -560.0C108.0 -571.0 113.0 -582.0 116.0 -591.0C175.0 -591.0 209.0 -592.0 228.0 -584.0C246.0 -579.0 252.0 -568.0 252.0 -545.0V-168.0Z"/></g>
<g fill="red" transform="translate(1400 600) scale(0.1 -0.1)"><path d="M0.0 0.0V-716.0H135.0V0.0ZM-190.0 -104.0V-572.0H-57.0V-234.0H263.0V-104.0ZM194.0 -104.0V-430.0C194.0 -439.0 192.0 -441.0 184.0 -441.0C177.0 -442.0 157.0 -442.0 142.0 -441.0C157.0 -477.0 171.0 -533.0 174.0 -571.0C221.0 -571.0 257.0 -570.0 289.0 -548.0C321.0 -526.0 328.0 -489.0 328.0 -434.0V-104.0Z"/></g>
<g fill="black" opacity=".8" transform="translate(1400 600) scale(0.1 -0.1)"><path d="M0.0 0.0V-703.0H141.0V0.0ZM-186.0 -113.0V-580.0H-54.0V-249.0H259.0V-113.0ZM197.0 -113.0V-428.0C197.0 -438.0 195.0 -440.0 187.0 -440.0C179.0 -441.0 160.0 -441.0 140.0 -440.0C158.0 -477.0 174.0 -533.0 178.0 -572.0C226.0 -572.0 262.0 -571.0 295.0 -547.0C328.0 -525.0 335.0 -488.0 335.0 -431.0V-113.0Z"/></g>
<g fill="red" transform="translate(1500 600) scale(0.1 -0.1)"><path d="M0.0 0.0V-535.0H30.0V0.0ZM-206.0 -126.0V-448.0H-176.0V-155.0H214.0V-126.0ZM205.0 -126.0V-405.0C205.0 -414.0 202.0 -417.0 192.0 -417.0C182.0 -418.0 148.0 -418.0 106.0 -417.0C111.0 -425.0 116.0 -436.0 118.0 -442.0C170.0 -442.0 198.0 -442.0 215.0 -438.0C231.0 -433.0 235.0 -423.0 235.0 -404.0V-126.0Z"/></g>
<g fill="black" opacity=".8" transform="translate(1500 600) scale(0.1 -0.1)"><path d="M0.0 0.0V-539.0H26.0V0.0ZM-201.0 -136.0V-446.0H-172.0V-164.0H219.0V-136.0ZM210.0 -138.0V-404.0C210.0 -413.0 207.0 -417.0 196.0 -417.0C185.0 -418.0 149.0 -418.0 100.0 -417.0C104.0 -425.0 108.0 -434.0 111.0 -441.0C167.0 -441.0 199.0 -441.0 215.0 -436.0C232.0 -431.0 237.0 -423.0 237.0 -403.0V-138.0Z"/></g>
<g fill="red" transform="translate(1600 600) scale(0.1 -0.1)"><path d="M0.0 0.0V-509.0H128.0V0.0ZM-175.0 -100.0V-429.0H-57.0V-214.0H232.0V-100.0ZM187.0 -100.0V-305.0C187.0 -313.0 185.0 -315.0 178.0 -315.0C172.0 -315.0 156.0 -315.0 142.0 -314.0C155.0 -342.0 169.0 -381.0 173.0 -412.0C213.0 -412.0 245.0 -411.0 273.0 -395.0C300.0 -378.0 307.0 -353.0 307.0 -306.0V-100.0Z"/></g>
<g fill="black" opacity=".8" transform="translate(1600 600) scale(0.1 -0.1)"><path d="M0.0 0.0V-500.0H118.0V0.0ZM-181.0 -90.0V-423.0H-62.0V-199.0H235.0V-90.0ZM188.0 -92.0V-304.0C188.0 -312.0 186.0 -315.0 177.0 -315.0C170.0 -316.0 146.0 -316.0 126.0 -314.0C141.0 -345.0 155.0 -390.0 159.0 -422.0C205.0 -422.0 240.0 -422.0 270.0 -402.0C301.0 -385.0 308.0 -356.0 308.0 -306.0V-92.0Z"/></g>
<g fill="red" transform="translate(100 700) scale(0.1 -0.1)"><path d="M0.0 0.0V-500.0H31.0V0.0ZM-279.0 272.0V28.0H384.0V57.0H-250.0V272.0ZM338.0 -114.0V-389.0C338.0 -400.0 335.0 -404.0 321.0 -405.0C304.0 -406.0 258.0 -406.0 190.0 -405.0C196.0 -415.0 201.0 -426.0 203.0 -436.0C277.0 -436.0 320.0 -436.0 342.0 -430.0C364.0 -423.0 369.0 -412.0 369.0 -389.0V-114.0Z"/></g>
<g fill="black" opacity=".8" transform="translate(100 700) scale(0.1 -0.1)"><path d="M0.0 0.0V-501.0H32.0V0.0ZM-277.0 272.0V28.0H385.0V55.0H-250.0V272.0ZM336.0 -113.0V-389.0C336.0 -400.0 333.0 -404.0 320.0 -404.0C303.0 -405.0 258.0 -406.0 191.0 -405.0C196.0 -415.0 201.0 -425.0 203.0 -435.0C278.0 -435.0 320.0 -436.0 341.0 -429.0C362.0 -422.0 369.0 -412.0 369.0 -388.0V-113.0Z"/></g>
<g fill="red" transform="translate(200 700) scale(0.1 -0.1)"><path d="M0.0 0.0V-492.0H147.0V0.0ZM-256.0 306.0V11.0H476.0V140.0H-111.0V306.0ZM333.0 -64.0V-299.0C333.0 -310.0 328.0 -313.0 315.0 -313.0C302.0 -313.0 254.0 -313.0 220.0 -311.0C237.0 -347.0 255.0 -403.0 260.0 -442.0C327.0 -442.0 380.0 -441.0 423.0 -422.0C466.0 -400.0 477.0 -364.0 477.0 -303.0V-64.0Z"/></g>
<g fill="black" opacity=".8" transform="translate(200 700) scale(0.1 -0.1)"><path d="M0.0 0.0V-496.0H148.0V0.0ZM-255.0 304.0V10.0H476.0V139.0H-112.0V304.0ZM333.0 -64.0V-298.0C333.0 -309.0 329.0 -313.0 316.0 -313.0C302.0 -313.0 256.0 -313.0 221.0 -310.0C238.0 -348.0 257.0 -403.0 262.0 -442.0C329.0 -442.0 381.0 -442.0 424.0 -421.0C467.0 -399.0 478.0 -364.0 478.0 -301.0V-64.0Z"/></g>
<g fill="red" transform="translate(300 700) scale(0.1 -0.1)"><path d="M0.0 0.0V-481.0H30.0V0.0ZM-300.0 -94.0V-417.0H-269.0V-124.0H325.0V-94.0ZM308.0 -94.0V-368.0C308.0 -381.0 305.0 -384.0 289.0 -385.0C273.0 -386.0 225.0 -387.0 153.0 -385.0C159.0 -395.0 164.0 -406.0 166.0 -415.0C242.0 -415.0 287.0 -416.0 310.0 -409.0C332.0 -403.0 338.0 -391.0 338.0 -368.0V-94.0Z"/></g>
<g fill="black" opacity=".8" transform="translate(300 700) scale(0.1 -0.1)"><path d="M0.0 0.0V-482.0H28.0V0.0ZM-300.0 -98.0V-417.0H-271.0V-127.0H329.0V-98.0ZM316.0 -99.0V-368.0C316.0 -381.0 313.0 -385.0 297.0 -385.0C280.0 -387.0 229.0 -388.0 155.0 -386.0C159.0 -394.0 164.0 -403.0 166.0 -412.0C248.0 -412.0 294.0 -413.0 316.0 -406.0C337.0 -401.0 344.0 -390.0 344.0 -368.0V-99.0Z"/></g>
<g fill="red" transform="translate(400 700) scale(0.1 -0.1)"><path d="M0.0 0.0V-500.0H147.0V0.0ZM-293.0 -86.0V-459.0H-150.0V-212.0H367.0V-86.0ZM305.0 -86.0V-334.0C305.0 -345.0 300.0 -348.0 285.0 -349.0C271.0 -349.0 215.0 -349.0 177.0 -347.0C195.0 -384.0 213.0 -440.0 218.0 -480.0C290.0 -481.0 347.0 -480.0 391.0 -459.0C436.0 -438.0 448.0 -401.0 448.0 -337.0V-86.0Z"/></g>
<g fill="black" opacity=".8" transform="translate(400 700) scale(0.1 -0.1)"><path d="M0.0 0.0V-514.0H138.0V0.0ZM-289.0 -83.0V-463.0H-151.0V-203.0H358.0V-83.0ZM303.0 -84.0V-337.0C303.0 -348.0 298.0 -352.0 283.0 -352.0C270.0 -352.0 214.0 -352.0 176.0 -349.0C193.0 -383.0 212.0 -435.0 218.0 -472.0C287.0 -472.0 342.0 -471.0 385.0 -452.0C428.0 -433.0 441.0 -400.0 441.0 -339.0V-84.0Z"/></g>
<g fill="red" transform="translate(500 700) scale(0.1 -0.1)"><path d="M0.0 0.0V-899.0H29.0V0.0ZM-142.0 -194.0V-695.0H-113.0V-223.0H167.0V-194.0ZM150.0 -194.0V-648.0C150.0 -655.0 148.0 -658.0 138.0 -658.0C129.0 -659.0 103.0 -659.0 67.0 -658.0C72.0 -667.0 78.0 -680.0 80.0 -688.0C120.0 -688.0 146.0 -688.0 160.0 -682.0C175.0 -676.0 179.0 -666.0 179.0 -647.0V-194.0Z"/></g>
<g fill="black" opacity=".8" transform="translate(500 700) scale(0.1 -0.1)"><path d="M0.0 0.0V-891.0H29.0V0.0ZM-144.0 -192.0V-696.0H-115.0V-221.0H165.0V-192.0ZM149.0 -192.0V-649.0C149.0 -658.0 147.0 -661.0 138.0 -661.0C129.0 -661.0 103.0 -661.0 67.0 -660.0C72.0 -669.0 78.0 -681.0 80.0 -690.0C121.0 -690.0 145.0 -690.0 160.0 -683.0C174.0 -678.0 179.0 -668.0 179.0 -649.0V-192.0Z"/></g>
<g fill="red" transform="translate(600 700) scale(0.1 -0.1)"><path d="M0.0 0.0V-950.0H123.0V0.0ZM-128.0 -181.0V-744.0H-29.0V-308.0H205.0V-181.0ZM154.0 -181.0V-611.0C154.0 -619.0 152.0 -621.0 148.0 -621.0C142.0 -621.0 131.0 -621.0 119.0 -621.0C133.0 -655.0 144.0 -711.0 145.0 -746.0C179.0 -746.0 203.0 -743.0 227.0 -721.0C250.0 -699.0 254.0 -661.0 254.0 -615.0V-181.0Z"/></g>
<g fill="black" opacity=".8" transform="translate(600 700) scale(0.1 -0.1)"><path d="M0.0 0.0V-946.0H119.0V0.0ZM-134.0 -181.0V-749.0H-31.0V-308.0H202.0V-181.0ZM153.0 -182.0V-611.0C153.0 -620.0 151.0 -623.0 145.0 -623.0C140.0 -623.0 127.0 -623.0 112.0 -622.0C127.0 -656.0 141.0 -710.0 143.0 -744.0C179.0 -744.0 203.0 -742.0 228.0 -719.0C252.0 -698.0 256.0 -661.0 256.0 -615.0V-182.0Z"/></g>
<g fill="red" transform="translate(700 700) scale(0.1 -0.1)"><path d="M0.0 0.0V-899.0H29.0V0.0ZM-132.0 -194.0V-695.0H-103.0V-223.0H157.0V-194.0ZM139.0 -194.0V-648.0C139.0 -656.0 137.0 -658.0 129.0 -659.0C120.0 -659.0 97.0 -659.0 66.0 -658.0C71.0 -667.0 77.0 -680.0 79.0 -688.0C115.0 -688.0 137.0 -688.0 151.0 -682.0C164.0 -676.0 168.0 -666.0 168.0 -648.0V-194.0Z"/></g>
<g fill="black" opacity=".8" transform="translate(700 700) scale(0.1 -0.1)"><path d="M0.0 0.0V-895.0H29.0V0.0ZM-137.0 -195.0V-696.0H-109.0V-224.0H155.0V-195.0ZM138.0 -194.0V-649.0C138.0 -657.0 136.0 -660.0 128.0 -660.0C119.0 -660.0 94.0 -660.0 61.0 -659.0C66.0 -669.0 71.0 -680.0 73.0 -689.0C112.0 -689.0 135.0 -689.0 149.0 -682.0C163.0 -677.0 168.0 -667.0 168.0 -648.0V-194.0Z"/></g>
<g fill="red" transform="translate(800 700) scale(0.1 -0.1)"><path d="M0.0 0.0V-950.0H118.0V0.0ZM-126.0 -181.0V-741.0H-25.0V-308.0H191.0V-181.0ZM143.0 -181.0V-598.0C143.0 -606.0 141.0 -608.0 136.0 -608.0C130.0 -608.0 119.0 -608.0 106.0 -608.0C122.0 -640.0 135.0 -694.0 136.0 -728.0C169.0 -728.0 191.0 -724.0 214.0 -703.0C237.0 -682.0 241.0 -644.0 241.0 -602.0V-181.0Z"/></g>
<g fill="black" opacity=".8" transform="translate(800 700) scale(0.1 -0.1)"><path d="M0.0 0.0V-937.0H118.0V0.0ZM-126.0 -179.0V-738.0H-25.0V-305.0H190.0V-179.0ZM140.0 -179.0V-600.0C140.0 -608.0 139.0 -610.0 134.0 -610.0C129.0 -611.0 119.0 -611.0 106.0 -610.0C121.0 -644.0 134.0 -697.0 136.0 -731.0C170.0 -731.0 193.0 -729.0 216.0 -706.0C239.0 -685.0 243.0 -649.0 243.0 -603.0V-179.0Z"/></g>
<g fill="red" transform="translate(900 700) scale(0.1 -0.1)"><path d="M0.0 0.0V-428.0H31.0V0.0ZM-316.0 -97.0V-369.0H-287.0V-127.0H350.0V-97.0ZM337.0 -97.0V-315.0C337.0 -328.0 334.0 -332.0 316.0 -333.0C298.0 -334.0 240.0 -334.0 161.0 -333.0C166.0 -342.0 171.0 -352.0 173.0 -360.0C265.0 -360.0 315.0 -361.0 338.0 -355.0C361.0 -349.0 367.0 -337.0 367.0 -315.0V-97.0Z"/></g>
<g fill="black" opacity=".8" transform="translate(900 700) scale(0.1 -0.1)"><path d="M0.0 0.0V-413.0H28.0V0.0ZM-324.0 -95.0V-368.0H-294.0V-124.0H348.0V-95.0ZM337.0 -97.0V-321.0C337.0 -334.0 334.0 -339.0 317.0 -339.0C299.0 -340.0 244.0 -341.0 165.0 -339.0C169.0 -348.0 174.0 -356.0 176.0 -364.0C264.0 -364.0 313.0 -365.0 336.0 -359.0C358.0 -354.0 365.0 -343.0 365.0 -320.0V-97.0Z"/></g>
<g fill="red" transform="translate(1000 700) scale(0.1 -0.1)"><path d="M0.0 0.0V-446.0H144.0V0.0ZM-292.0 -75.0V-400.0H-151.0V-195.0H379.0V-75.0ZM323.0 -75.0V-266.0C323.0 -278.0 317.0 -281.0 302.0 -281.0C288.0 -282.0 228.0 -282.0 188.0 -279.0C206.0 -312.0 227.0 -362.0 235.0 -399.0C305.0 -399.0 362.0 -398.0 407.0 -380.0C452.0 -361.0 466.0 -329.0 466.0 -268.0V-75.0Z"/></g>
<g fill="black" opacity=".8" transform="translate(1000 700) scale(0.1 -0.1)"><path d="M0.0 0.0V-420.0H142.0V0.0ZM-309.0 -70.0V-394.0H-162.0V-188.0H372.0V-70.0ZM317.0 -72.0V-270.0C317.0 -281.0 312.0 -285.0 296.0 -285.0C282.0 -286.0 223.0 -286.0 182.0 -282.0C200.0 -316.0 220.0 -367.0 226.0 -404.0C299.0 -404.0 358.0 -404.0 404.0 -385.0C450.0 -367.0 463.0 -335.0 463.0 -272.0V-72.0Z"/></g>
<g fill="red" transform="translate(1100 700) scale(0.1 -0.1)"><path d="M0.0 0.0V-457.0H30.0V0.0ZM-332.0 -112.0V-407.0H-302.0V-142.0H355.0V-112.0ZM340.0 -112.0V-357.0C340.0 -369.0 337.0 -373.0 323.0 -374.0C306.0 -375.0 261.0 -375.0 192.0 -373.0C197.0 -383.0 203.0 -394.0 205.0 -403.0C279.0 -403.0 322.0 -403.0 343.0 -397.0C365.0 -391.0 370.0 -380.0 370.0 -357.0V-112.0Z"/></g>
<g fill="black" opacity=".8" transform="translate(1100 700) scale(0.1 -0.1)"><path d="M0.0 0.0V-461.0H30.0V0.0ZM-342.0 -112.0V-403.0H-305.0V-144.0H358.0V-112.0ZM350.0 -116.0V-354.0C350.0 -368.0 346.0 -373.0 329.0 -373.0C310.0 -374.0 252.0 -375.0 169.0 -373.0C174.0 -383.0 179.0 -392.0 182.0 -401.0C274.0 -401.0 325.0 -401.0 350.0 -395.0C374.0 -389.0 381.0 -378.0 381.0 -353.0V-116.0Z"/></g>
<g fill="red" transform="translate(1200 700) scale(0.1 -0.1)"><path d="M0.0 0.0V-471.0H146.0V0.0ZM-323.0 -80.0V-407.0H-181.0V-198.0H363.0V-80.0ZM333.0 -80.0V-272.0C333.0 -282.0 328.0 -285.0 315.0 -285.0C303.0 -285.0 254.0 -285.0 220.0 -283.0C237.0 -316.0 255.0 -367.0 259.0 -402.0C327.0 -402.0 380.0 -402.0 422.0 -384.0C465.0 -365.0 476.0 -332.0 476.0 -276.0V-80.0Z"/></g>
<g fill="black" opacity=".8" transform="translate(1200 700) scale(0.1 -0.1)"><path d="M0.0 0.0V-441.0H154.0V0.0ZM-321.0 -72.0V-407.0H-158.0V-200.0H381.0V-72.0ZM323.0 -76.0V-272.0C323.0 -284.0 318.0 -288.0 302.0 -288.0C288.0 -289.0 230.0 -289.0 189.0 -285.0C208.0 -322.0 229.0 -376.0 236.0 -417.0C312.0 -417.0 373.0 -417.0 421.0 -396.0C470.0 -376.0 484.0 -342.0 484.0 -274.0V-76.0Z"/></g>
<g fill="red" transform="translate(1300 700) scale(0.1 -0.1)"><path d="M0.0 0.0V-899.0H29.0V0.0ZM-126.0 -194.0V-695.0H-97.0V-223.0H149.0V-194.0ZM133.0 -194.0V-648.0C133.0 -655.0 131.0 -658.0 122.0 -658.0C113.0 -659.0 86.0 -659.0 51.0 -658.0C56.0 -667.0 62.0 -680.0 64.0 -688.0C104.0 -688.0 129.0 -688.0 144.0 -682.0C159.0 -676.0 163.0 -666.0 163.0 -647.0V-194.0Z"/></g>
<g fill="black" opacity=".8" transform="translate(1300 700) scale(0.1 -0.1)"><path d="M0.0 0.0V-895.0H28.0V0.0ZM-131.0 -192.0V-694.0H-103.0V-221.0H149.0V-192.0ZM132.0 -192.0V-649.0C132.0 -657.0 131.0 -660.0 122.0 -660.0C114.0 -660.0 90.0 -660.0 58.0 -659.0C63.0 -668.0 68.0 -680.0 71.0 -688.0C108.0 -688.0 130.0 -688.0 143.0 -682.0C157.0 -676.0 161.0 -667.0 161.0 -649.0V-192.0Z"/></g>
<g fill="red" transform="translate(1400 700) scale(0.1 -0.1)"><path d="M0.0 0.0V-950.0H113.0V0.0ZM-121.0 -181.0V-744.0H-29.0V-308.0H186.0V-181.0ZM142.0 -181.0V-611.0C142.0 -619.0 140.0 -621.0 136.0 -621.0C131.0 -621.0 121.0 -621.0 110.0 -621.0C122.0 -655.0 133.0 -711.0 133.0 -746.0C165.0 -746.0 187.0 -743.0 209.0 -721.0C230.0 -699.0 234.0 -661.0 234.0 -615.0V-181.0Z"/></g>
<g fill="black" opacity=".8" transform="translate(1400 700) scale(0.1 -0.1)"><path d="M0.0 0.0V-950.0H114.0V0.0ZM-121.0 -183.0V-747.0H-24.0V-306.0H185.0V-183.0ZM138.0 -183.0V-613.0C138.0 -622.0 137.0 -624.0 131.0 -624.0C126.0 -624.0 116.0 -624.0 103.0 -624.0C118.0 -656.0 131.0 -709.0 132.0 -742.0C165.0 -742.0 187.0 -739.0 210.0 -717.0C232.0 -696.0 236.0 -661.0 236.0 -617.0V-183.0Z"/></g>
<g fill="red" transform="translate(1500 700) scale(0.1 -0.1)"><path d="M0.0 0.0V-899.0H29.0V0.0ZM-132.0 -194.0V-695.0H-103.0V-223.0H157.0V-194.0ZM139.0 -194.0V-648.0C139.0 -656.0 137.0 -658.0 129.0 -659.0C120.0 -659.0 97.0 -659.0 65.0 -658.0C71.0 -667.0 77.0 -680.0 79.0 -688.0C114.0 -688.0 137.0 -688.0 151.0 -682.0C164.0 -676.0 168.0 -666.0 168.0 -648.0V-194.0Z"/></g>
<g fill="black" opacity=".8" transform="translate(1500 700) scale(0.1 -0.1)"><path d="M0.0 0.0V-894.0H29.0V0.0ZM-138.0 -195.0V-696.0H-110.0V-224.0H155.0V-195.0ZM138.0 -194.0V-649.0C138.0 -657.0 137.0 -660.0 128.0 -660.0C119.0 -660.0 94.0 -660.0 61.0 -659.0C66.0 -669.0 71.0 -680.0 74.0 -689.0C112.0 -689.0 136.0 -689.0 150.0 -682.0C163.0 -677.0 168.0 -667.0 168.0 -648.0V-194.0Z"/></g>
<g fill="red" transform="translate(1600 700) scale(0.1 -0.1)"><path d="M0.0 0.0V-950.0H117.0V0.0ZM-126.0 -181.0V-741.0H-25.0V-308.0H192.0V-181.0ZM144.0 -181.0V-598.0C144.0 -606.0 142.0 -608.0 137.0 -608.0C131.0 -608.0 119.0 -608.0 107.0 -608.0C122.0 -640.0 136.0 -694.0 137.0 -728.0C170.0 -728.0 192.0 -724.0 216.0 -703.0C238.0 -682.0 242.0 -644.0 242.0 -602.0V-181.0Z"/></g>
<g fill="black" opacity=".8" transform="translate(1600 700) scale(0.1 -0.1)"><path d="M0.0 0.0V-937.0H118.0V0.0ZM-126.0 -179.0V-738.0H-25.0V-305.0H190.0V-179.0ZM141.0 -179.0V-600.0C141.0 -608.0 139.0 -610.0 134.0 -610.0C129.0 -611.0 119.0 -611.0 106.0 -610.0C121.0 -644.0 134.0 -697.0 136.0 -731.0C170.0 -731.0 193.0 -729.0 217.0 -706.0C240.0 -685.0 244.0 -649.0 244.0 -604.0V-179.0Z"/></g>
<g fill="red" transform="translate(100 800) scale(0.1 -0.1)"><path d="M0.0 0.0V-899.0H30.0V0.0ZM-121.0 -194.0V-695.0H-92.0V-223.0H154.0V-194.0ZM129.0 -194.0V-648.0C129.0 -655.0 127.0 -658.0 117.0 -658.0C108.0 -659.0 82.0 -659.0 46.0 -658.0C51.0 -667.0 57.0 -680.0 59.0 -688.0C99.0 -688.0 125.0 -688.0 139.0 -682.0C154.0 -676.0 158.0 -666.0 158.0 -647.0V-194.0Z"/></g>
<g fill="black" opacity=".8" transform="translate(100 800) scale(0.1 -0.1)"><path d="M0.0 0.0V-895.0H28.0V0.0ZM-120.0 -195.0V-697.0H-97.0V-221.0H143.0V-195.0ZM122.0 -192.0V-649.0C122.0 -657.0 121.0 -659.0 113.0 -659.0C105.0 -659.0 83.0 -660.0 54.0 -658.0C58.0 -668.0 63.0 -679.0 66.0 -687.0C100.0 -687.0 121.0 -687.0 134.0 -681.0C146.0 -676.0 151.0 -666.0 151.0 -649.0V-192.0Z"/></g>
<g fill="red" transform="translate(200 800) scale(0.1 -0.1)"><path d="M0.0 0.0V-950.0H104.0V0.0ZM-110.0 -181.0V-744.0H-26.0V-308.0H172.0V-181.0ZM130.0 -181.0V-611.0C130.0 -619.0 128.0 -621.0 124.0 -621.0C120.0 -621.0 110.0 -621.0 100.0 -621.0C112.0 -655.0 121.0 -711.0 122.0 -746.0C151.0 -746.0 171.0 -743.0 191.0 -721.0C211.0 -699.0 214.0 -661.0 214.0 -615.0V-181.0Z"/></g>
<g fill="black" opacity=".8" transform="translate(200 800) scale(0.1 -0.1)"><path d="M0.0 0.0V-950.0H111.0V0.0ZM-111.0 -185.0V-749.0H-22.0V-307.0H178.0V-185.0ZM128.0 -183.0V-614.0C128.0 -622.0 127.0 -624.0 122.0 -624.0C118.0 -624.0 110.0 -624.0 99.0 -624.0C113.0 -656.0 125.0 -708.0 127.0 -740.0C157.0 -740.0 177.0 -737.0 198.0 -715.0C219.0 -695.0 223.0 -660.0 223.0 -617.0V-183.0Z"/></g>
<g fill="red" transform="translate(300 800) scale(0.1 -0.1)"><path d="M0.0 0.0V-899.0H32.0V0.0ZM-120.0 -194.0V-695.0H-90.0V-223.0H151.0V-194.0ZM128.0 -194.0V-647.0C128.0 -655.0 126.0 -658.0 118.0 -658.0C110.0 -659.0 86.0 -659.0 57.0 -658.0C61.0 -668.0 67.0 -683.0 69.0 -692.0C104.0 -693.0 126.0 -692.0 139.0 -686.0C153.0 -679.0 157.0 -668.0 157.0 -647.0V-194.0Z"/></g>
<g fill="black" opacity=".8" transform="translate(300 800) scale(0.1 -0.1)"><path d="M0.0 0.0V-895.0H28.0V0.0ZM-123.0 -193.0V-697.0H-98.0V-221.0H146.0V-193.0ZM128.0 -192.0V-650.0C128.0 -658.0 126.0 -661.0 118.0 -661.0C110.0 -661.0 87.0 -661.0 57.0 -660.0C62.0 -669.0 67.0 -681.0 69.0 -689.0C105.0 -689.0 126.0 -689.0 139.0 -683.0C152.0 -677.0 157.0 -668.0 157.0 -650.0V-192.0Z"/></g>
<g fill="red" transform="translate(400 800) scale(0.1 -0.1)"><path d="M0.0 0.0V-950.0H110.0V0.0ZM-116.0 -181.0V-744.0H-27.0V-308.0H182.0V-181.0ZM137.0 -181.0V-611.0C137.0 -619.0 135.0 -621.0 131.0 -621.0C126.0 -621.0 117.0 -621.0 106.0 -621.0C118.0 -655.0 128.0 -711.0 129.0 -746.0C159.0 -746.0 181.0 -743.0 202.0 -721.0C222.0 -699.0 226.0 -661.0 226.0 -615.0V-181.0Z"/></g>
<g fill="black" opacity=".8" transform="translate(400 800) scale(0.1 -0.1)"><path d="M0.0 0.0V-949.0H112.0V0.0ZM-114.0 -183.0V-749.0H-20.0V-306.0H182.0V-183.0ZM133.0 -182.0V-614.0C133.0 -622.0 132.0 -624.0 127.0 -624.0C123.0 -624.0 114.0 -624.0 102.0 -624.0C116.0 -656.0 129.0 -709.0 130.0 -741.0C162.0 -741.0 183.0 -739.0 204.0 -717.0C226.0 -696.0 229.0 -661.0 229.0 -617.0V-182.0Z"/></g>
<g fill="red" transform="translate(500 800) scale(0.1 -0.1)"><path d="M0.0 0.0V-899.0H29.0V0.0ZM-131.0 -194.0V-695.0H-101.0V-223.0H145.0V-194.0ZM129.0 -194.0V-648.0C129.0 -656.0 127.0 -658.0 119.0 -659.0C110.0 -659.0 87.0 -659.0 56.0 -658.0C61.0 -667.0 67.0 -680.0 69.0 -688.0C105.0 -688.0 127.0 -688.0 141.0 -682.0C155.0 -676.0 158.0 -666.0 158.0 -648.0V-194.0Z"/></g>
<g fill="black" opacity=".8" transform="translate(500 800) scale(0.1 -0.1)"><path d="M0.0 0.0V-898.0H29.0V0.0ZM-136.0 -194.0V-695.0H-108.0V-224.0H149.0V-194.0ZM133.0 -194.0V-648.0C133.0 -657.0 131.0 -659.0 123.0 -659.0C114.0 -659.0 90.0 -660.0 57.0 -659.0C62.0 -668.0 67.0 -680.0 70.0 -688.0C108.0 -688.0 130.0 -688.0 144.0 -682.0C158.0 -676.0 163.0 -667.0 163.0 -648.0V-194.0Z"/></g>
<g fill="red" transform="translate(600 800) scale(0.1 -0.1)"><path d="M0.0 0.0V-950.0H117.0V0.0ZM-123.0 -181.0V-741.0H-22.0V-308.0H195.0V-181.0ZM143.0 -181.0V-598.0C143.0 -606.0 141.0 -608.0 136.0 -608.0C130.0 -608.0 118.0 -608.0 106.0 -608.0C121.0 -640.0 135.0 -694.0 136.0 -728.0C169.0 -728.0 191.0 -724.0 215.0 -703.0C237.0 -682.0 241.0 -644.0 241.0 -602.0V-181.0Z"/></g>
<g fill="black" opacity=".8" transform="translate(600 800) scale(0.1 -0.1)"><path d="M0.0 0.0V-941.0H117.0V0.0ZM-124.0 -179.0V-737.0H-24.0V-304.0H185.0V-179.0ZM136.0 -179.0V-600.0C136.0 -609.0 135.0 -611.0 129.0 -611.0C125.0 -611.0 116.0 -611.0 103.0 -611.0C118.0 -644.0 131.0 -697.0 133.0 -731.0C166.0 -731.0 188.0 -728.0 211.0 -706.0C234.0 -685.0 238.0 -649.0 238.0 -604.0V-179.0Z"/></g>
<g fill="red" transform="translate(700 800) scale(0.1 -0.1)"><path d="M0.0 0.0V-899.0H30.0V0.0ZM-217.0 -186.0V-739.0H-188.0V-215.0H239.0V-186.0ZM229.0 -186.0V-685.0C229.0 -698.0 226.0 -701.0 213.0 -701.0C198.0 -702.0 155.0 -703.0 98.0 -701.0C103.0 -711.0 108.0 -724.0 110.0 -732.0C174.0 -732.0 214.0 -732.0 233.0 -726.0C253.0 -720.0 259.0 -709.0 259.0 -685.0V-186.0Z"/></g>
<g fill="black" opacity=".8" transform="translate(700 800) scale(0.1 -0.1)"><path d="M0.0 0.0V-920.0H34.0V0.0ZM-200.0 -186.0V-740.0H-171.0V-219.0H247.0V-186.0ZM223.0 -183.0V-680.0C223.0 -691.0 221.0 -695.0 208.0 -695.0C196.0 -695.0 158.0 -696.0 107.0 -694.0C113.0 -705.0 119.0 -719.0 122.0 -729.0C180.0 -729.0 215.0 -730.0 233.0 -722.0C252.0 -715.0 258.0 -703.0 258.0 -680.0V-183.0Z"/></g>
<g fill="red" transform="translate(800 800) scale(0.1 -0.1)"><path d="M0.0 0.0V-950.0H150.0V0.0ZM-194.0 -159.0V-794.0H-58.0V-306.0H292.0V-159.0ZM213.0 -159.0V-647.0C213.0 -656.0 210.0 -660.0 201.0 -660.0C192.0 -660.0 169.0 -660.0 150.0 -659.0C167.0 -693.0 185.0 -751.0 190.0 -789.0C240.0 -789.0 278.0 -786.0 311.0 -764.0C345.0 -742.0 353.0 -706.0 353.0 -649.0V-159.0Z"/></g>
<g fill="black" opacity=".8" transform="translate(800 800) scale(0.1 -0.1)"><path d="M0.0 0.0V-976.0H145.0V0.0ZM-190.0 -166.0V-799.0H-63.0V-315.0H288.0V-166.0ZM222.0 -164.0V-635.0C222.0 -647.0 219.0 -650.0 210.0 -650.0C202.0 -650.0 176.0 -650.0 153.0 -649.0C172.0 -688.0 189.0 -752.0 193.0 -793.0C243.0 -793.0 279.0 -790.0 313.0 -765.0C346.0 -740.0 353.0 -698.0 353.0 -640.0V-164.0Z"/></g>
<g fill="red" transform="translate(900 800) scale(0.1 -0.1)"><path d="M0.0 0.0V-608.0H30.0V0.0ZM-175.0 -125.0V-496.0H-146.0V-155.0H190.0V-125.0ZM176.0 -125.0V-451.0C176.0 -460.0 173.0 -462.0 163.0 -463.0C152.0 -463.0 119.0 -464.0 77.0 -463.0C82.0 -471.0 87.0 -482.0 89.0 -489.0C141.0 -489.0 169.0 -489.0 185.0 -484.0C200.0 -478.0 205.0 -469.0 205.0 -451.0V-125.0Z"/></g>
<g fill="black" opacity=".8" transform="translate(900 800) scale(0.1 -0.1)"><path d="M0.0 0.0V-609.0H26.0V0.0ZM-152.0 -131.0V-498.0H-132.0V-156.0H189.0V-131.0ZM170.0 -127.0V-452.0C170.0 -461.0 168.0 -464.0 159.0 -463.0C149.0 -464.0 121.0 -465.0 82.0 -463.0C86.0 -471.0 91.0 -481.0 93.0 -488.0C138.0 -488.0 164.0 -489.0 178.0 -483.0C192.0 -478.0 197.0 -470.0 197.0 -452.0V-127.0Z"/></g>
<g fill="red" transform="translate(1000 800) scale(0.1 -0.1)"><path d="M0.0 0.0V-576.0H115.0V0.0ZM-131.0 -90.0V-504.0H-30.0V-208.0H202.0V-90.0ZM146.0 -90.0V-382.0C146.0 -390.0 144.0 -392.0 138.0 -392.0C134.0 -392.0 122.0 -392.0 110.0 -391.0C125.0 -422.0 139.0 -470.0 142.0 -503.0C177.0 -503.0 203.0 -501.0 228.0 -481.0C253.0 -462.0 258.0 -430.0 258.0 -385.0V-90.0Z"/></g>
<g fill="black" opacity=".8" transform="translate(1000 800) scale(0.1 -0.1)"><path d="M0.0 0.0V-602.0H108.0V0.0ZM-139.0 -95.0V-501.0H-42.0V-203.0H210.0V-95.0ZM158.0 -92.0V-379.0C158.0 -387.0 157.0 -389.0 150.0 -389.0C144.0 -390.0 129.0 -390.0 113.0 -389.0C127.0 -418.0 140.0 -463.0 143.0 -494.0C180.0 -494.0 207.0 -493.0 232.0 -473.0C257.0 -456.0 263.0 -426.0 263.0 -381.0V-92.0Z"/></g>
<g fill="red" transform="translate(1100 800) scale(0.1 -0.1)"><path d="M0.0 0.0V-657.0H30.0V0.0ZM-215.0 -125.0V-538.0H-186.0V-156.0H241.0V-125.0ZM222.0 -125.0V-499.0C222.0 -506.0 220.0 -509.0 211.0 -509.0C201.0 -510.0 175.0 -510.0 139.0 -509.0C144.0 -518.0 150.0 -530.0 152.0 -538.0C193.0 -538.0 218.0 -538.0 233.0 -532.0C247.0 -526.0 251.0 -516.0 251.0 -498.0V-125.0Z"/></g>
<g fill="black" opacity=".8" transform="translate(1100 800) scale(0.1 -0.1)"><path d="M0.0 0.0V-670.0H30.0V0.0ZM-204.0 -129.0V-542.0H-175.0V-159.0H234.0V-129.0ZM218.0 -129.0V-494.0C218.0 -504.0 216.0 -507.0 204.0 -507.0C192.0 -508.0 155.0 -509.0 104.0 -507.0C109.0 -516.0 114.0 -527.0 117.0 -536.0C175.0 -536.0 208.0 -536.0 225.0 -529.0C243.0 -524.0 248.0 -514.0 248.0 -493.0V-129.0Z"/></g>
<g fill="red" transform="translate(1200 800) scale(0.1 -0.1)"><path d="M0.0 0.0V-680.0H133.0V0.0ZM-207.0 -94.0V-577.0H-71.0V-221.0H233.0V-94.0ZM192.0 -94.0V-427.0C192.0 -436.0 189.0 -439.0 181.0 -439.0C173.0 -439.0 149.0 -439.0 129.0 -438.0C146.0 -473.0 161.0 -529.0 164.0 -567.0C213.0 -567.0 250.0 -565.0 282.0 -543.0C315.0 -522.0 321.0 -485.0 321.0 -431.0V-94.0Z"/></g>
<g fill="black" opacity=".8" transform="translate(1200 800) scale(0.1 -0.1)"><path d="M0.0 0.0V-681.0H129.0V0.0ZM-191.0 -97.0V-564.0H-69.0V-221.0H263.0V-97.0ZM208.0 -97.0V-429.0C208.0 -438.0 205.0 -441.0 196.0 -441.0C188.0 -442.0 161.0 -442.0 139.0 -440.0C155.0 -474.0 171.0 -527.0 175.0 -563.0C223.0 -563.0 260.0 -561.0 292.0 -540.0C324.0 -519.0 331.0 -485.0 331.0 -432.0V-97.0Z"/></g>
<g fill="red" transform="translate(1300 800) scale(0.1 -0.1)"><path d="M0.0 0.0V-414.0H29.0V0.0ZM-229.0 -88.0V-376.0H-200.0V-117.0H259.0V-88.0ZM245.0 -88.0V-327.0C245.0 -340.0 241.0 -344.0 225.0 -345.0C208.0 -347.0 155.0 -347.0 79.0 -345.0C84.0 -355.0 90.0 -364.0 92.0 -373.0C176.0 -373.0 223.0 -374.0 247.0 -367.0C269.0 -361.0 275.0 -351.0 275.0 -327.0V-88.0Z"/></g>
<g fill="black" opacity=".8" transform="translate(1300 800) scale(0.1 -0.1)"><path d="M0.0 0.0V-435.0H27.0V0.0ZM-230.0 -95.0V-372.0H-203.0V-123.0H254.0V-95.0ZM242.0 -96.0V-328.0C242.0 -338.0 239.0 -342.0 227.0 -342.0C214.0 -343.0 174.0 -344.0 117.0 -342.0C121.0 -350.0 125.0 -359.0 128.0 -366.0C192.0 -366.0 228.0 -367.0 246.0 -361.0C264.0 -356.0 269.0 -347.0 269.0 -327.0V-96.0Z"/></g>
<g fill="red" transform="translate(1400 800) scale(0.1 -0.1)"><path d="M0.0 0.0V-378.0H128.0V0.0ZM-212.0 -48.0V-352.0H-80.0V-159.0H262.0V-48.0ZM224.0 -48.0V-229.0C224.0 -238.0 219.0 -241.0 208.0 -241.0C198.0 -242.0 157.0 -242.0 129.0 -240.0C145.0 -269.0 162.0 -315.0 168.0 -347.0C225.0 -347.0 272.0 -347.0 309.0 -330.0C348.0 -313.0 358.0 -284.0 358.0 -231.0V-48.0Z"/></g>
<g fill="black" opacity=".8" transform="translate(1400 800) scale(0.1 -0.1)"><path d="M0.0 0.0V-390.0H122.0V0.0ZM-211.0 -44.0V-348.0H-87.0V-152.0H269.0V-44.0ZM217.0 -45.0V-229.0C217.0 -238.0 214.0 -241.0 204.0 -241.0C195.0 -242.0 164.0 -242.0 139.0 -240.0C154.0 -270.0 170.0 -315.0 175.0 -347.0C226.0 -347.0 267.0 -348.0 301.0 -329.0C336.0 -312.0 345.0 -284.0 345.0 -231.0V-45.0Z"/></g>
<g fill="red" transform="translate(1500 800) scale(0.1 -0.1)"><path d="M0.0 0.0V-582.0H29.0V0.0ZM-294.0 -161.0V-490.0H-264.0V-190.0H328.0V-161.0ZM314.0 -161.0V-432.0C314.0 -443.0 311.0 -447.0 297.0 -448.0C285.0 -449.0 243.0 -449.0 184.0 -448.0C189.0 -457.0 195.0 -468.0 196.0 -476.0C262.0 -476.0 300.0 -476.0 320.0 -470.0C339.0 -464.0 343.0 -454.0 343.0 -432.0V-161.0Z"/></g>
<g fill="black" opacity=".8" transform="translate(1500 800) scale(0.1 -0.1)"><path d="M0.0 0.0V-565.0H33.0V0.0ZM-308.0 -150.0V-491.0H-278.0V-182.0H340.0V-150.0ZM322.0 -148.0V-432.0C322.0 -445.0 319.0 -450.0 302.0 -450.0C285.0 -451.0 231.0 -452.0 156.0 -451.0C161.0 -461.0 166.0 -471.0 169.0 -480.0C254.0 -480.0 302.0 -481.0 326.0 -474.0C349.0 -468.0 355.0 -457.0 355.0 -431.0V-148.0Z"/></g>
<g fill="red" transform="translate(1600 800) scale(0.1 -0.1)"><path d="M0.0 0.0V-540.0H144.0V0.0ZM-288.0 -87.0V-460.0H-145.0V-227.0H382.0V-87.0ZM302.0 -87.0V-315.0C302.0 -325.0 297.0 -328.0 284.0 -328.0C272.0 -328.0 225.0 -328.0 192.0 -326.0C209.0 -365.0 227.0 -424.0 231.0 -466.0C298.0 -466.0 351.0 -465.0 394.0 -443.0C437.0 -421.0 448.0 -382.0 448.0 -319.0V-87.0Z"/></g>
<g fill="black" opacity=".8" transform="translate(1600 800) scale(0.1 -0.1)"><path d="M0.0 0.0V-519.0H156.0V0.0ZM-283.0 -94.0V-469.0H-128.0V-230.0H358.0V-94.0ZM291.0 -93.0V-317.0C291.0 -329.0 287.0 -332.0 273.0 -332.0C261.0 -333.0 216.0 -333.0 182.0 -330.0C201.0 -369.0 221.0 -426.0 228.0 -468.0C297.0 -468.0 352.0 -468.0 396.0 -445.0C441.0 -423.0 454.0 -387.0 454.0 -320.0V-93.0Z"/></g>
<g fill="red" transform="translate(100 900) scale(0.1 -0.1)"><path d="M0.0 0.0V-899.0H29.0V0.0ZM-208.0 -186.0V-739.0H-179.0V-215.0H232.0V-186.0ZM212.0 -186.0V-685.0C212.0 -698.0 209.0 -701.0 196.0 -701.0C181.0 -702.0 138.0 -703.0 81.0 -701.0C86.0 -711.0 91.0 -724.0 93.0 -732.0C157.0 -732.0 197.0 -732.0 216.0 -726.0C236.0 -720.0 242.0 -709.0 242.0 -685.0V-186.0Z"/></g>
<g fill="black" opacity=".8" transform="translate(100 900) scale(0.1 -0.1)"><path d="M0.0 0.0V-923.0H34.0V0.0ZM-187.0 -186.0V-741.0H-162.0V-218.0H235.0V-186.0ZM208.0 -181.0V-680.0C208.0 -690.0 206.0 -694.0 194.0 -694.0C182.0 -694.0 147.0 -695.0 99.0 -693.0C105.0 -704.0 111.0 -718.0 114.0 -728.0C168.0 -728.0 201.0 -728.0 219.0 -720.0C237.0 -713.0 242.0 -702.0 242.0 -679.0V-181.0Z"/></g>
<g fill="red" transform="translate(200 900) scale(0.1 -0.1)"><path d="M0.0 0.0V-950.0H138.0V0.0ZM-185.0 -159.0V-794.0H-54.0V-306.0H280.0V-159.0ZM204.0 -159.0V-651.0C204.0 -661.0 201.0 -664.0 193.0 -664.0C184.0 -664.0 162.0 -664.0 144.0 -663.0C160.0 -697.0 177.0 -753.0 181.0 -791.0C228.0 -791.0 264.0 -788.0 295.0 -766.0C327.0 -744.0 335.0 -709.0 335.0 -653.0V-159.0Z"/></g>
<g fill="black" opacity=".8" transform="translate(200 900) scale(0.1 -0.1)"><path d="M0.0 0.0V-982.0H140.0V0.0ZM-178.0 -169.0V-802.0H-60.0V-315.0H275.0V-169.0ZM209.0 -165.0V-639.0C209.0 -650.0 206.0 -653.0 198.0 -653.0C190.0 -653.0 167.0 -653.0 146.0 -652.0C164.0 -691.0 180.0 -753.0 183.0 -793.0C231.0 -793.0 265.0 -790.0 296.0 -765.0C328.0 -741.0 334.0 -699.0 334.0 -644.0V-165.0Z"/></g>
<g fill="red" transform="translate(300 900) scale(0.1 -0.1)"><path d="M0.0 0.0V-899.0H29.0V0.0ZM-212.0 -192.0V-734.0H-183.0V-221.0H235.0V-192.0ZM221.0 -192.0V-680.0C221.0 -692.0 218.0 -695.0 205.0 -696.0C194.0 -696.0 156.0 -696.0 106.0 -695.0C110.0 -703.0 116.0 -716.0 118.0 -724.0C175.0 -724.0 209.0 -724.0 227.0 -718.0C245.0 -712.0 251.0 -701.0 251.0 -680.0V-192.0Z"/></g>
<g fill="black" opacity=".8" transform="translate(300 900) scale(0.1 -0.1)"><path d="M0.0 0.0V-913.0H33.0V0.0ZM-196.0 -202.0V-730.0H-165.0V-235.0H231.0V-202.0ZM212.0 -201.0V-675.0C212.0 -686.0 209.0 -689.0 197.0 -689.0C185.0 -689.0 149.0 -690.0 100.0 -688.0C106.0 -699.0 112.0 -712.0 115.0 -722.0C170.0 -722.0 203.0 -722.0 221.0 -715.0C239.0 -708.0 245.0 -697.0 245.0 -674.0V-201.0Z"/></g>
<g fill="red" transform="translate(400 900) scale(0.1 -0.1)"><path d="M0.0 0.0V-950.0H138.0V0.0ZM-188.0 -191.0V-777.0H-55.0V-324.0H255.0V-191.0ZM196.0 -191.0V-636.0C196.0 -645.0 193.0 -648.0 185.0 -648.0C178.0 -648.0 157.0 -648.0 140.0 -647.0C156.0 -681.0 172.0 -736.0 176.0 -773.0C223.0 -773.0 260.0 -770.0 292.0 -749.0C324.0 -728.0 331.0 -693.0 331.0 -639.0V-191.0Z"/></g>
<g fill="black" opacity=".8" transform="translate(400 900) scale(0.1 -0.1)"><path d="M0.0 0.0V-964.0H139.0V0.0ZM-184.0 -186.0V-783.0H-60.0V-329.0H269.0V-186.0ZM210.0 -185.0V-628.0C210.0 -638.0 207.0 -641.0 199.0 -641.0C191.0 -641.0 167.0 -641.0 145.0 -640.0C162.0 -678.0 179.0 -740.0 182.0 -779.0C231.0 -779.0 266.0 -777.0 298.0 -752.0C330.0 -728.0 337.0 -688.0 337.0 -632.0V-185.0Z"/></g>
</svg>
