<?xml version="1.0" encoding="UTF-8"?>
<svg width="1700" height="300" xmlns="http://www.w3.org/2000/svg">
<rect width="100%" height="100%" fill="white"/>
<g fill="green" transform="translate(100 100) scale(0.1 -0.1)"><path d="M0.0 0.0V-276.0H30.0V0.0ZM0.0 -555.0V-911.0H30.0V-555.0ZM-90.0 -434.0H115.0V-547.0H-90.0ZM-90.0 -293.0H115.0V-404.0H-90.0ZM-119.0 -263.0V-576.0H145.0V-263.0ZM-159.0 -124.0V-155.0H190.0V-124.0ZM330.0 -363.0V-912.0H358.0V-363.0ZM220.0 -354.0V-383.0H475.0V-354.0ZM185.0 -550.0V-579.0H493.0V-550.0ZM-179.0 -688.0V-717.0H205.0V-688.0ZM350.0 5.0C314.0 -129.0 243.0 -267.0 164.0 -345.0C174.0 -350.0 183.0 -360.0 190.0 -366.0C270.0 -283.0 338.0 -143.0 379.0 -4.0ZM366.0 -23.0 344.0 -32.0C375.0 -154.0 436.0 -297.0 496.0 -360.0C502.0 -353.0 513.0 -342.0 521.0 -336.0C460.0 -280.0 396.0 -140.0 366.0 -23.0Z"/></g>
<g fill="green" transform="translate(200 100) scale(0.1 -0.1)"><path d="M0.0 0.0V-324.0H124.0V0.0ZM0.0 -608.0V-959.0H124.0V-608.0ZM16.0 -486.0H99.0V-520.0H16.0ZM16.0 -362.0H99.0V-394.0H16.0ZM-91.0 -263.0V-619.0H211.0V-263.0ZM-108.0 -89.0V-209.0H230.0V-89.0ZM330.0 -385.0V-959.0H457.0V-385.0ZM266.0 -332.0V-462.0H522.0V-332.0ZM238.0 -538.0V-670.0H548.0V-538.0ZM-127.0 -673.0V-798.0H233.0V-673.0ZM364.0 11.0C326.0 -107.0 252.0 -217.0 173.0 -284.0C206.0 -309.0 245.0 -350.0 265.0 -381.0C355.0 -293.0 430.0 -168.0 477.0 -25.0ZM446.0 -44.0 342.0 -79.0C379.0 -186.0 441.0 -300.0 511.0 -366.0C531.0 -335.0 573.0 -288.0 603.0 -266.0C539.0 -215.0 477.0 -126.0 446.0 -44.0Z"/></g>
<g fill="green" transform="translate(300 100) scale(0.1 -0.1)"><path d="M0.0 0.0V-273.0H30.0V0.0ZM0.0 -549.0V-901.0H30.0V-549.0ZM-89.0 -429.0H114.0V-541.0H-89.0ZM-89.0 -290.0H114.0V-400.0H-89.0ZM-118.0 -260.0V-570.0H143.0V-260.0ZM-157.0 -123.0V-153.0H188.0V-123.0ZM326.0 -359.0V-902.0H354.0V-359.0ZM218.0 -350.0V-379.0H470.0V-350.0ZM183.0 -544.0V-573.0H487.0V-544.0ZM-177.0 -680.0V-709.0H203.0V-680.0ZM346.0 5.0C311.0 -128.0 240.0 -264.0 162.0 -341.0C172.0 -346.0 181.0 -356.0 188.0 -362.0C267.0 -280.0 334.0 -141.0 375.0 -4.0ZM362.0 -23.0 340.0 -32.0C371.0 -152.0 431.0 -294.0 490.0 -356.0C496.0 -349.0 507.0 -338.0 515.0 -332.0C455.0 -277.0 392.0 -138.0 362.0 -23.0Z"/></g>
<g fill="green" transform="translate(400 100) scale(0.1 -0.1)"><path d="M0.0 0.0V-320.0H123.0V0.0ZM0.0 -601.0V-948.0H123.0V-601.0ZM16.0 -481.0H98.0V-514.0H16.0ZM16.0 -358.0H98.0V-390.0H16.0ZM-90.0 -260.0V-612.0H209.0V-260.0ZM-107.0 -88.0V-207.0H227.0V-88.0ZM326.0 -381.0V-948.0H452.0V-381.0ZM263.0 -328.0V-457.0H516.0V-328.0ZM235.0 -532.0V-663.0H542.0V-532.0ZM-126.0 -666.0V-789.0H230.0V-666.0ZM360.0 11.0C322.0 -106.0 249.0 -215.0 171.0 -281.0C204.0 -306.0 242.0 -346.0 262.0 -377.0C351.0 -290.0 425.0 -166.0 472.0 -25.0ZM441.0 -44.0 338.0 -78.0C375.0 -184.0 436.0 -297.0 505.0 -362.0C525.0 -331.0 567.0 -285.0 596.0 -263.0C533.0 -213.0 472.0 -125.0 441.0 -44.0Z"/></g>
<g fill="green" transform="translate(500 100) scale(0.1 -0.1)"><path d="M0.0 0.0V-273.0H29.0V0.0ZM0.0 -549.0V-901.0H29.0V-549.0ZM-93.0 -429.0H119.0V-541.0H-93.0ZM-93.0 -290.0H119.0V-400.0H-93.0ZM-123.0 -260.0V-570.0H149.0V-260.0ZM-149.0 -123.0V-153.0H169.0V-123.0ZM333.0 -377.0V-902.0H361.0V-377.0ZM215.0 -367.0V-397.0H490.0V-367.0ZM173.0 -561.0V-591.0H536.0V-561.0ZM-170.0 -680.0V-709.0H184.0V-680.0ZM340.0 5.0C304.0 -128.0 232.0 -264.0 152.0 -341.0C160.0 -346.0 169.0 -354.0 176.0 -360.0C256.0 -279.0 326.0 -140.0 366.0 -3.0ZM358.0 -23.0 335.0 -32.0C374.0 -155.0 451.0 -297.0 523.0 -358.0C530.0 -350.0 541.0 -339.0 549.0 -332.0C475.0 -278.0 397.0 -140.0 358.0 -23.0Z"/></g>
<g fill="green" transform="translate(600 100) scale(0.1 -0.1)"><path d="M0.0 0.0V-320.0H125.0V0.0ZM0.0 -601.0V-948.0H125.0V-601.0ZM8.0 -481.0H116.0V-514.0H8.0ZM8.0 -358.0H116.0V-390.0H8.0ZM-98.0 -260.0V-612.0H227.0V-260.0ZM-107.0 -88.0V-207.0H227.0V-88.0ZM338.0 -381.0V-948.0H467.0V-381.0ZM272.0 -327.0V-453.0H543.0V-327.0ZM243.0 -532.0V-659.0H568.0V-532.0ZM-119.0 -666.0V-789.0H251.0V-666.0ZM362.0 18.0C324.0 -99.0 251.0 -208.0 173.0 -274.0C205.0 -298.0 242.0 -337.0 262.0 -368.0C351.0 -281.0 425.0 -157.0 473.0 -17.0ZM457.0 -44.0 354.0 -71.0C388.0 -191.0 446.0 -303.0 530.0 -365.0C549.0 -333.0 589.0 -286.0 617.0 -263.0C543.0 -218.0 486.0 -132.0 457.0 -44.0Z"/></g>
<g fill="red" transform="translate(100 200) scale(0.1 -0.1)"><path d="M0.0 0.0V-273.0H30.0V0.0ZM0.0 -549.0V-901.0H30.0V-549.0ZM-89.0 -429.0H114.0V-541.0H-89.0ZM-89.0 -290.0H114.0V-400.0H-89.0ZM-118.0 -260.0V-570.0H143.0V-260.0ZM-157.0 -123.0V-153.0H188.0V-123.0ZM326.0 -359.0V-902.0H354.0V-359.0ZM218.0 -350.0V-379.0H470.0V-350.0ZM183.0 -544.0V-573.0H487.0V-544.0ZM-177.0 -680.0V-709.0H203.0V-680.0ZM346.0 5.0C311.0 -128.0 240.0 -264.0 162.0 -341.0C172.0 -346.0 181.0 -356.0 188.0 -362.0C267.0 -280.0 334.0 -141.0 375.0 -4.0ZM362.0 -23.0 340.0 -32.0C371.0 -152.0 431.0 -294.0 490.0 -356.0C496.0 -349.0 507.0 -338.0 515.0 -332.0C455.0 -277.0 392.0 -138.0 362.0 -23.0Z"/></g>
<g fill="black" opacity=".8" transform="translate(100 200) scale(0.1 -0.1)"><path d="M0.0 0.0V-273.0H30.0V0.0ZM0.0 -549.0V-901.0H30.0V-549.0ZM-89.0 -429.0H114.0V-541.0H-89.0ZM-89.0 -290.0H114.0V-400.0H-89.0ZM-118.0 -260.0V-570.0H143.0V-260.0ZM-157.0 -123.0V-153.0H188.0V-123.0ZM326.0 -359.0V-902.0H354.0V-359.0ZM218.0 -350.0V-379.0H470.0V-350.0ZM183.0 -544.0V-573.0H487.0V-544.0ZM-177.0 -680.0V-709.0H203.0V-680.0ZM346.0 5.0C311.0 -128.0 240.0 -264.0 162.0 -341.0C172.0 -346.0 181.0 -356.0 188.0 -362.0C267.0 -280.0 334.0 -141.0 375.0 -4.0ZM362.0 -23.0 340.0 -32.0C371.0 -152.0 431.0 -294.0 490.0 -356.0C496.0 -349.0 507.0 -338.0 515.0 -332.0C455.0 -277.0 392.0 -138.0 362.0 -23.0Z"/></g>
<g fill="red" transform="translate(200 200) scale(0.1 -0.1)"><path d="M0.0 0.0V-320.0H123.0V0.0ZM0.0 -601.0V-948.0H123.0V-601.0ZM16.0 -481.0H98.0V-514.0H16.0ZM16.0 -358.0H98.0V-390.0H16.0ZM-90.0 -260.0V-612.0H209.0V-260.0ZM-107.0 -88.0V-207.0H227.0V-88.0ZM326.0 -381.0V-948.0H452.0V-381.0ZM263.0 -328.0V-457.0H516.0V-328.0ZM235.0 -532.0V-663.0H542.0V-532.0ZM-126.0 -666.0V-789.0H230.0V-666.0ZM360.0 11.0C322.0 -106.0 249.0 -215.0 171.0 -281.0C204.0 -306.0 242.0 -346.0 262.0 -377.0C351.0 -290.0 425.0 -166.0 472.0 -25.0ZM441.0 -44.0 338.0 -78.0C375.0 -184.0 436.0 -297.0 505.0 -362.0C525.0 -331.0 567.0 -285.0 596.0 -263.0C533.0 -213.0 472.0 -125.0 441.0 -44.0Z"/></g>
<g fill="black" opacity=".8" transform="translate(200 200) scale(0.1 -0.1)"><path d="M0.0 0.0V-320.0H123.0V0.0ZM0.0 -601.0V-948.0H123.0V-601.0ZM16.0 -481.0H98.0V-514.0H16.0ZM16.0 -358.0H98.0V-390.0H16.0ZM-90.0 -260.0V-612.0H209.0V-260.0ZM-107.0 -88.0V-207.0H227.0V-88.0ZM326.0 -381.0V-948.0H452.0V-381.0ZM263.0 -328.0V-457.0H516.0V-328.0ZM235.0 -532.0V-663.0H542.0V-532.0ZM-126.0 -666.0V-789.0H230.0V-666.0ZM360.0 11.0C322.0 -106.0 249.0 -215.0 171.0 -281.0C204.0 -306.0 242.0 -346.0 262.0 -377.0C351.0 -290.0 425.0 -166.0 472.0 -25.0ZM441.0 -44.0 338.0 -78.0C375.0 -184.0 436.0 -297.0 505.0 -362.0C525.0 -331.0 567.0 -285.0 596.0 -263.0C533.0 -213.0 472.0 -125.0 441.0 -44.0Z"/></g>
<g fill="red" transform="translate(300 200) scale(0.1 -0.1)"><path d="M0.0 0.0V-273.0H29.0V0.0ZM0.0 -549.0V-901.0H29.0V-549.0ZM-93.0 -429.0H119.0V-541.0H-93.0ZM-93.0 -290.0H119.0V-400.0H-93.0ZM-123.0 -260.0V-570.0H149.0V-260.0ZM-149.0 -123.0V-153.0H169.0V-123.0ZM333.0 -377.0V-902.0H361.0V-377.0ZM215.0 -367.0V-397.0H490.0V-367.0ZM173.0 -561.0V-591.0H536.0V-561.0ZM-170.0 -680.0V-709.0H184.0V-680.0ZM340.0 5.0C304.0 -128.0 232.0 -264.0 152.0 -341.0C160.0 -346.0 169.0 -354.0 176.0 -360.0C256.0 -279.0 326.0 -140.0 366.0 -3.0ZM358.0 -23.0 335.0 -32.0C374.0 -155.0 451.0 -297.0 523.0 -358.0C530.0 -350.0 541.0 -339.0 549.0 -332.0C475.0 -278.0 397.0 -140.0 358.0 -23.0Z"/></g>
<g fill="black" opacity=".8" transform="translate(300 200) scale(0.1 -0.1)"><path d="M0.0 0.0V-273.0H29.0V0.0ZM0.0 -549.0V-901.0H29.0V-549.0ZM-93.0 -429.0H119.0V-541.0H-93.0ZM-93.0 -290.0H119.0V-400.0H-93.0ZM-123.0 -260.0V-570.0H149.0V-260.0ZM-149.0 -123.0V-153.0H169.0V-123.0ZM333.0 -377.0V-902.0H361.0V-377.0ZM215.0 -367.0V-397.0H490.0V-367.0ZM173.0 -561.0V-591.0H536.0V-561.0ZM-170.0 -680.0V-709.0H184.0V-680.0ZM340.0 5.0C304.0 -128.0 232.0 -264.0 152.0 -341.0C160.0 -346.0 169.0 -354.0 176.0 -360.0C256.0 -279.0 326.0 -140.0 366.0 -3.0ZM358.0 -23.0 335.0 -32.0C374.0 -155.0 451.0 -297.0 523.0 -358.0C530.0 -350.0 541.0 -339.0 549.0 -332.0C475.0 -278.0 397.0 -140.0 358.0 -23.0Z"/></g>
<g fill="red" transform="translate(400 200) scale(0.1 -0.1)"><path d="M0.0 0.0V-320.0H125.0V0.0ZM0.0 -601.0V-948.0H125.0V-601.0ZM8.0 -481.0H116.0V-514.0H8.0ZM8.0 -358.0H116.0V-390.0H8.0ZM-98.0 -260.0V-612.0H227.0V-260.0ZM-107.0 -88.0V-207.0H227.0V-88.0ZM338.0 -381.0V-948.0H467.0V-381.0ZM272.0 -327.0V-453.0H543.0V-327.0ZM243.0 -532.0V-659.0H568.0V-532.0ZM-119.0 -666.0V-789.0H251.0V-666.0ZM362.0 18.0C324.0 -99.0 251.0 -208.0 173.0 -274.0C205.0 -298.0 242.0 -337.0 262.0 -368.0C351.0 -281.0 425.0 -157.0 473.0 -17.0ZM457.0 -44.0 354.0 -71.0C388.0 -191.0 446.0 -303.0 530.0 -365.0C549.0 -333.0 589.0 -286.0 617.0 -263.0C543.0 -218.0 486.0 -132.0 457.0 -44.0Z"/></g>
<g fill="black" opacity=".8" transform="translate(400 200) scale(0.1 -0.1)"><path d="M0.0 0.0V-320.0H125.0V0.0ZM0.0 -601.0V-948.0H125.0V-601.0ZM8.0 -481.0H116.0V-514.0H8.0ZM8.0 -358.0H116.0V-390.0H8.0ZM-98.0 -260.0V-612.0H227.0V-260.0ZM-107.0 -88.0V-207.0H227.0V-88.0ZM338.0 -381.0V-948.0H467.0V-381.0ZM272.0 -327.0V-453.0H543.0V-327.0ZM243.0 -532.0V-659.0H568.0V-532.0ZM-119.0 -666.0V-789.0H251.0V-666.0ZM362.0 18.0C324.0 -99.0 251.0 -208.0 173.0 -274.0C205.0 -298.0 242.0 -337.0 262.0 -368.0C351.0 -281.0 425.0 -157.0 473.0 -17.0ZM457.0 -44.0 354.0 -71.0C388.0 -191.0 446.0 -303.0 530.0 -365.0C549.0 -333.0 589.0 -286.0 617.0 -263.0C543.0 -218.0 486.0 -132.0 457.0 -44.0Z"/></g>
</svg>
