<?xml version="1.0" encoding="UTF-8"?>
<svg width="1700" height="300" xmlns="http://www.w3.org/2000/svg">
<rect width="100%" height="100%" fill="white"/>
<g fill="green" transform="translate(100 100) scale(0.1 -0.1)"><path d="M-0.0 -0.0V-738.0H29.0V0.0ZM-246.0 -169.0V-199.0H194.0V-169.0ZM194.0 -176.0V-189.0H298.0V-176.0ZM-199.0 -458.0V-487.0H226.0V-458.0ZM-199.0 -565.0V-595.0H226.0V-565.0ZM-191.0 -66.0V-95.0H182.0V-273.0H-191.0V-304.0H212.0V-66.0ZM209.0 -352.0V-708.0C209.0 -717.0 207.0 -721.0 196.0 -721.0C184.0 -722.0 150.0 -722.0 104.0 -721.0C109.0 -730.0 115.0 -742.0 116.0 -751.0C168.0 -751.0 200.0 -751.0 217.0 -745.0C233.0 -738.0 238.0 -728.0 238.0 -707.0V-352.0ZM-282.0 28.0V-2.0H287.0V28.0ZM-303.0 28.0V-256.0C-303.0 -400.0 -313.0 -595.0 -399.0 -738.0C-391.0 -743.0 -380.0 -752.0 -375.0 -758.0C-286.0 -609.0 -274.0 -404.0 -274.0 -256.0V28.0ZM-53.0 134.0C-33.0 93.0 -10.0 38.0 0.0 4.0L28.0 17.0C18.0 50.0 -6.0 103.0 -26.0 144.0ZM-216.0 -352.0V-554.0C-216.0 -615.0 -221.0 -685.0 -268.0 -738.0C-261.0 -743.0 -251.0 -754.0 -247.0 -760.0C-194.0 -703.0 -186.0 -620.0 -186.0 -554.0V-352.0ZM-202.0 -352.0V-382.0H224.0V-352.0Z"/></g>
<g fill="green" transform="translate(200 100) scale(0.1 -0.1)"><path d="M0.0 0.0V-772.0H114.0V0.0ZM-175.0 -162.0V-250.0H197.0V-162.0ZM203.0 -155.0V-252.0H321.0V-155.0ZM-131.0 -484.0V-557.0H206.0V-484.0ZM-132.0 -584.0V-658.0H205.0V-584.0ZM-149.0 -62.0V-137.0H161.0V-275.0H-146.0V-351.0H266.0V-62.0ZM174.0 -372.0V-688.0C174.0 -696.0 172.0 -699.0 165.0 -699.0C159.0 -699.0 143.0 -699.0 128.0 -698.0C139.0 -722.0 153.0 -759.0 158.0 -786.0C196.0 -786.0 228.0 -785.0 254.0 -771.0C280.0 -755.0 286.0 -733.0 286.0 -689.0V-372.0ZM-234.0 65.0V-39.0H321.0V65.0ZM-315.0 65.0V-280.0C-315.0 -415.0 -320.0 -595.0 -387.0 -716.0C-359.0 -731.0 -303.0 -773.0 -280.0 -797.0C-200.0 -660.0 -186.0 -434.0 -186.0 -280.0V65.0ZM-48.0 139.0C-34.0 94.0 -18.0 33.0 -12.0 -5.0L129.0 25.0C120.0 63.0 103.0 120.0 87.0 163.0ZM-175.0 -372.0V-517.0C-175.0 -580.0 -178.0 -656.0 -225.0 -714.0C-201.0 -728.0 -153.0 -773.0 -136.0 -796.0C-72.0 -723.0 -59.0 -608.0 -59.0 -520.0V-372.0ZM-109.0 -372.0V-456.0H220.0V-372.0Z"/></g>
<g fill="green" transform="translate(300 100) scale(0.1 -0.1)"><path d="M0.0 0.0V-732.0H29.0V0.0ZM-244.0 -168.0V-197.0H192.0V-168.0ZM192.0 -175.0V-187.0H296.0V-175.0ZM-198.0 -454.0V-483.0H224.0V-454.0ZM-198.0 -561.0V-590.0H224.0V-561.0ZM-190.0 -65.0V-94.0H181.0V-271.0H-190.0V-302.0H210.0V-65.0ZM207.0 -349.0V-702.0C207.0 -711.0 206.0 -715.0 195.0 -715.0C183.0 -716.0 149.0 -716.0 103.0 -715.0C108.0 -724.0 114.0 -736.0 115.0 -745.0C167.0 -745.0 199.0 -745.0 215.0 -739.0C231.0 -732.0 236.0 -722.0 236.0 -701.0V-349.0ZM-280.0 28.0V-2.0H285.0V28.0ZM-301.0 28.0V-254.0C-301.0 -397.0 -311.0 -590.0 -396.0 -732.0C-388.0 -737.0 -377.0 -746.0 -372.0 -752.0C-284.0 -604.0 -272.0 -401.0 -272.0 -254.0V28.0ZM-53.0 133.0C-33.0 92.0 -10.0 38.0 0.0 4.0L28.0 17.0C18.0 50.0 -6.0 102.0 -26.0 143.0ZM-214.0 -349.0V-550.0C-214.0 -610.0 -219.0 -680.0 -266.0 -732.0C-259.0 -737.0 -249.0 -748.0 -245.0 -754.0C-193.0 -698.0 -185.0 -615.0 -185.0 -550.0V-349.0ZM-201.0 -349.0V-379.0H222.0V-349.0Z"/></g>
<g fill="green" transform="translate(400 100) scale(0.1 -0.1)"><path d="M0.0 0.0V-766.0H113.0V0.0ZM-174.0 -161.0V-248.0H195.0V-161.0ZM201.0 -154.0V-250.0H318.0V-154.0ZM-130.0 -480.0V-553.0H204.0V-480.0ZM-131.0 -580.0V-653.0H203.0V-580.0ZM-148.0 -62.0V-136.0H160.0V-273.0H-145.0V-348.0H264.0V-62.0ZM173.0 -369.0V-683.0C173.0 -691.0 171.0 -694.0 164.0 -694.0C158.0 -694.0 142.0 -694.0 127.0 -693.0C138.0 -716.0 152.0 -753.0 157.0 -780.0C195.0 -780.0 226.0 -779.0 252.0 -765.0C278.0 -749.0 284.0 -727.0 284.0 -684.0V-369.0ZM-232.0 64.0V-39.0H319.0V64.0ZM-313.0 64.0V-278.0C-313.0 -412.0 -318.0 -590.0 -384.0 -710.0C-356.0 -725.0 -301.0 -767.0 -278.0 -791.0C-199.0 -655.0 -185.0 -431.0 -185.0 -278.0V64.0ZM-48.0 138.0C-34.0 93.0 -18.0 33.0 -12.0 -5.0L128.0 25.0C119.0 62.0 102.0 119.0 86.0 162.0ZM-174.0 -369.0V-513.0C-174.0 -576.0 -177.0 -651.0 -223.0 -708.0C-200.0 -722.0 -152.0 -767.0 -135.0 -790.0C-72.0 -717.0 -59.0 -603.0 -59.0 -516.0V-369.0ZM-108.0 -369.0V-452.0H218.0V-369.0Z"/></g>
<g fill="green" transform="translate(500 100) scale(0.1 -0.1)"><path d="M-0.0 0.0V-787.0H30.0V0.0ZM-191.0 -174.0V-203.0H214.0V-174.0ZM240.0 14.0V-468.0H270.0V14.0ZM-155.0 -490.0V-518.0H176.0V-490.0ZM-154.0 -603.0V-633.0H181.0V-603.0ZM-155.0 -74.0V-103.0H137.0V-285.0H-155.0V-315.0H167.0V-74.0ZM157.0 -378.0V-741.0C157.0 -750.0 156.0 -753.0 145.0 -753.0C134.0 -754.0 100.0 -754.0 55.0 -753.0C61.0 -762.0 66.0 -775.0 68.0 -784.0C117.0 -784.0 150.0 -784.0 166.0 -778.0C183.0 -771.0 188.0 -760.0 188.0 -739.0V-378.0ZM-224.0 27.0V-3.0H206.0V27.0ZM-244.0 27.0V-328.0C-244.0 -461.0 -250.0 -640.0 -311.0 -768.0C-304.0 -771.0 -291.0 -778.0 -286.0 -783.0C-224.0 -654.0 -215.0 -464.0 -215.0 -328.0V27.0ZM-49.0 104.0C-27.0 73.0 -4.0 31.0 6.0 2.0L31.0 16.0C21.0 45.0 -2.0 86.0 -25.0 116.0ZM-171.0 -378.0V-584.0C-171.0 -646.0 -176.0 -717.0 -220.0 -771.0C-213.0 -776.0 -204.0 -788.0 -200.0 -793.0C-150.0 -734.0 -142.0 -651.0 -142.0 -584.0V-378.0ZM-157.0 -378.0V-408.0H172.0V-378.0Z"/></g>
<g fill="green" transform="translate(600 100) scale(0.1 -0.1)"><path d="M0.0 0.0V-785.0H98.0V0.0ZM-149.0 -141.0V-236.0H269.0V-141.0ZM281.0 72.0V-451.0H396.0V72.0ZM-90.0 -470.0V-545.0H193.0V-470.0ZM-90.0 -569.0V-646.0H193.0V-569.0ZM-114.0 -40.0V-117.0H139.0V-259.0H-114.0V-337.0H231.0V-40.0ZM135.0 -360.0V-698.0C135.0 -705.0 134.0 -708.0 128.0 -708.0C122.0 -708.0 108.0 -708.0 96.0 -707.0C106.0 -728.0 119.0 -763.0 123.0 -786.0C157.0 -786.0 185.0 -785.0 209.0 -773.0C233.0 -759.0 238.0 -739.0 238.0 -698.0V-360.0ZM-181.0 95.0V-15.0H251.0V95.0ZM-254.0 95.0V-288.0C-254.0 -420.0 -256.0 -597.0 -299.0 -716.0C-272.0 -728.0 -222.0 -760.0 -200.0 -779.0C-151.0 -646.0 -142.0 -435.0 -142.0 -288.0V95.0ZM-46.0 147.0C-32.0 111.0 -19.0 63.0 -17.0 32.0L119.0 60.0C114.0 90.0 100.0 136.0 84.0 169.0ZM-138.0 -360.0V-512.0C-138.0 -576.0 -141.0 -657.0 -180.0 -719.0C-157.0 -731.0 -114.0 -771.0 -99.0 -792.0C-45.0 -717.0 -34.0 -601.0 -34.0 -514.0V-360.0ZM-59.0 -360.0V-447.0H201.0V-360.0Z"/></g>
<g fill="red" transform="translate(100 200) scale(0.1 -0.1)"><path d="M0.0 0.0V-737.0H30.0V0.0ZM-237.0 -174.0V-204.0H191.0V-174.0ZM191.0 -174.0V-204.0H289.0V-174.0ZM-186.0 -465.0V-495.0H221.0V-465.0ZM-187.0 -560.0V-590.0H224.0V-560.0ZM-181.0 -66.0V-95.0H182.0V-281.0H-181.0V-311.0H211.0V-66.0ZM207.0 -365.0V-712.0C207.0 -721.0 204.0 -724.0 195.0 -724.0C185.0 -725.0 155.0 -725.0 116.0 -724.0C121.0 -733.0 127.0 -744.0 128.0 -752.0C174.0 -752.0 201.0 -752.0 217.0 -747.0C232.0 -741.0 236.0 -731.0 236.0 -712.0V-365.0ZM-271.0 28.0V-2.0H268.0V28.0ZM-292.0 28.0V-258.0C-292.0 -402.0 -302.0 -595.0 -390.0 -737.0C-382.0 -741.0 -371.0 -750.0 -366.0 -756.0C-275.0 -609.0 -262.0 -405.0 -262.0 -258.0V28.0ZM-49.0 132.0C-29.0 93.0 -7.0 40.0 3.0 6.0L29.0 18.0C19.0 50.0 -4.0 102.0 -25.0 142.0ZM-203.0 -365.0V-560.0C-203.0 -619.0 -208.0 -688.0 -252.0 -739.0C-245.0 -744.0 -235.0 -754.0 -231.0 -761.0C-181.0 -705.0 -173.0 -624.0 -173.0 -560.0V-365.0ZM-189.0 -365.0V-395.0H222.0V-365.0Z"/></g>
<g fill="black" opacity=".8" transform="translate(100 200) scale(0.1 -0.1)"><path d="M0.0 0.0V-741.0H29.0V0.0ZM-243.0 -169.0V-199.0H195.0V-169.0ZM197.0 -166.0V-204.0H296.0V-166.0ZM-197.0 -460.0V-489.0H223.0V-460.0ZM-197.0 -567.0V-597.0H224.0V-567.0ZM-189.0 -66.0V-95.0H180.0V-274.0H-189.0V-305.0H210.0V-66.0ZM206.0 -353.0V-710.0C206.0 -719.0 204.0 -723.0 193.0 -723.0C181.0 -724.0 147.0 -724.0 101.0 -723.0C106.0 -732.0 112.0 -744.0 113.0 -753.0C165.0 -753.0 197.0 -753.0 214.0 -747.0C230.0 -740.0 235.0 -730.0 235.0 -709.0V-353.0ZM-279.0 28.0V-2.0H283.0V28.0ZM-300.0 28.0V-260.0C-300.0 -403.0 -310.0 -597.0 -394.0 -740.0C-386.0 -745.0 -375.0 -753.0 -370.0 -759.0C-283.0 -611.0 -271.0 -407.0 -271.0 -260.0V28.0ZM-53.0 132.0C-33.0 92.0 -10.0 38.0 0.0 4.0L28.0 17.0C18.0 50.0 -6.0 102.0 -26.0 142.0ZM-214.0 -353.0V-556.0C-214.0 -617.0 -219.0 -687.0 -265.0 -740.0C-258.0 -745.0 -248.0 -756.0 -244.0 -762.0C-192.0 -705.0 -184.0 -622.0 -184.0 -556.0V-353.0ZM-200.0 -353.0V-383.0H221.0V-353.0Z"/></g>
<g fill="red" transform="translate(200 200) scale(0.1 -0.1)"><path d="M0.0 0.0V-770.0H108.0V0.0ZM-178.0 -163.0V-251.0H201.0V-163.0ZM201.0 -149.0V-261.0H319.0V-149.0ZM-139.0 -495.0V-564.0H213.0V-495.0ZM-142.0 -598.0V-667.0H210.0V-598.0ZM-147.0 -60.0V-135.0H157.0V-279.0H-144.0V-355.0H262.0V-60.0ZM177.0 -377.0V-689.0C177.0 -698.0 174.0 -700.0 166.0 -700.0C159.0 -700.0 137.0 -700.0 117.0 -699.0C129.0 -723.0 142.0 -759.0 147.0 -785.0C189.0 -785.0 223.0 -784.0 249.0 -770.0C276.0 -755.0 282.0 -733.0 282.0 -690.0V-377.0ZM-231.0 67.0V-37.0H314.0V67.0ZM-311.0 67.0V-278.0C-311.0 -412.0 -315.0 -591.0 -378.0 -713.0C-351.0 -727.0 -298.0 -766.0 -277.0 -789.0C-202.0 -652.0 -190.0 -429.0 -190.0 -278.0V67.0ZM-46.0 139.0C-34.0 95.0 -21.0 35.0 -17.0 -3.0L118.0 22.0C111.0 59.0 97.0 116.0 83.0 159.0ZM-182.0 -377.0V-519.0C-182.0 -581.0 -185.0 -655.0 -229.0 -712.0C-206.0 -726.0 -159.0 -770.0 -142.0 -792.0C-82.0 -721.0 -70.0 -607.0 -70.0 -522.0V-377.0ZM-122.0 -377.0V-461.0H221.0V-377.0Z"/></g>
<g fill="black" opacity=".8" transform="translate(200 200) scale(0.1 -0.1)"><path d="M0.0 0.0V-773.0H113.0V0.0ZM-174.0 -161.0V-249.0H201.0V-161.0ZM207.0 -143.0V-263.0H325.0V-143.0ZM-129.0 -483.0V-556.0H205.0V-483.0ZM-130.0 -583.0V-657.0H204.0V-583.0ZM-147.0 -61.0V-136.0H160.0V-274.0H-144.0V-350.0H264.0V-61.0ZM172.0 -371.0V-689.0C172.0 -696.0 170.0 -699.0 163.0 -699.0C157.0 -699.0 141.0 -699.0 126.0 -698.0C137.0 -722.0 151.0 -759.0 156.0 -786.0C194.0 -786.0 226.0 -785.0 252.0 -771.0C277.0 -755.0 283.0 -733.0 283.0 -689.0V-371.0ZM-231.0 67.0V-38.0H317.0V67.0ZM-312.0 67.0V-280.0C-312.0 -415.0 -317.0 -595.0 -382.0 -716.0C-354.0 -731.0 -299.0 -772.0 -276.0 -796.0C-197.0 -659.0 -184.0 -434.0 -184.0 -280.0V67.0ZM-48.0 139.0C-34.0 95.0 -18.0 35.0 -12.0 -3.0L128.0 27.0C120.0 64.0 103.0 121.0 87.0 163.0ZM-173.0 -371.0V-517.0C-173.0 -580.0 -176.0 -656.0 -223.0 -714.0C-199.0 -728.0 -151.0 -773.0 -134.0 -796.0C-71.0 -723.0 -58.0 -608.0 -58.0 -520.0V-371.0ZM-106.0 -371.0V-456.0H219.0V-371.0Z"/></g>
<g fill="red" transform="translate(300 200) scale(0.1 -0.1)"><path d="M0.0 0.0V-737.0H29.0V0.0ZM-240.0 -166.0V-196.0H197.0V-166.0ZM197.0 -166.0V-196.0H295.0V-166.0ZM-196.0 -454.0V-483.0H223.0V-454.0ZM-195.0 -567.0V-597.0H220.0V-567.0ZM-186.0 -66.0V-95.0H179.0V-269.0H-186.0V-299.0H209.0V-66.0ZM202.0 -346.0V-704.0C202.0 -713.0 200.0 -717.0 188.0 -717.0C175.0 -718.0 140.0 -718.0 91.0 -717.0C96.0 -727.0 101.0 -739.0 103.0 -748.0C157.0 -748.0 191.0 -748.0 209.0 -742.0C226.0 -735.0 231.0 -725.0 231.0 -703.0V-346.0ZM-277.0 28.0V-2.0H283.0V28.0ZM-298.0 28.0V-258.0C-298.0 -401.0 -307.0 -595.0 -390.0 -737.0C-383.0 -741.0 -372.0 -750.0 -367.0 -756.0C-280.0 -608.0 -269.0 -405.0 -269.0 -258.0V28.0ZM-58.0 132.0C-38.0 92.0 -15.0 37.0 -5.0 3.0L23.0 16.0C13.0 49.0 -11.0 102.0 -31.0 143.0ZM-213.0 -346.0V-550.0C-213.0 -611.0 -218.0 -682.0 -266.0 -736.0C-259.0 -741.0 -249.0 -752.0 -245.0 -758.0C-191.0 -700.0 -183.0 -616.0 -183.0 -550.0V-346.0ZM-199.0 -346.0V-375.0H220.0V-346.0Z"/></g>
<g fill="black" opacity=".8" transform="translate(300 200) scale(0.1 -0.1)"><path d="M0.0 0.0V-735.0H29.0V0.0ZM-240.0 -168.0V-197.0H193.0V-168.0ZM195.0 -163.0V-205.0H294.0V-163.0ZM-195.0 -456.0V-485.0H221.0V-456.0ZM-195.0 -563.0V-592.0H221.0V-563.0ZM-188.0 -66.0V-95.0H178.0V-272.0H-188.0V-303.0H207.0V-66.0ZM204.0 -351.0V-704.0C204.0 -713.0 203.0 -717.0 192.0 -717.0C180.0 -718.0 146.0 -718.0 100.0 -717.0C105.0 -726.0 111.0 -738.0 112.0 -747.0C164.0 -747.0 196.0 -747.0 212.0 -741.0C228.0 -734.0 233.0 -724.0 233.0 -703.0V-351.0ZM-276.0 28.0V-2.0H280.0V28.0ZM-297.0 28.0V-259.0C-297.0 -401.0 -307.0 -593.0 -390.0 -734.0C-382.0 -739.0 -371.0 -748.0 -366.0 -754.0C-280.0 -607.0 -268.0 -405.0 -268.0 -259.0V28.0ZM-53.0 131.0C-33.0 91.0 -10.0 38.0 0.0 4.0L28.0 17.0C18.0 50.0 -6.0 101.0 -26.0 141.0ZM-211.0 -351.0V-552.0C-211.0 -612.0 -216.0 -682.0 -263.0 -734.0C-256.0 -739.0 -246.0 -750.0 -242.0 -756.0C-190.0 -700.0 -182.0 -617.0 -182.0 -552.0V-351.0ZM-198.0 -351.0V-381.0H219.0V-351.0Z"/></g>
<g fill="red" transform="translate(400 200) scale(0.1 -0.1)"><path d="M0.0 0.0V-770.0H116.0V0.0ZM-167.0 -159.0V-247.0H203.0V-159.0ZM205.0 -145.0V-257.0H323.0V-145.0ZM-120.0 -475.0V-550.0H205.0V-475.0ZM-120.0 -574.0V-649.0H205.0V-574.0ZM-143.0 -61.0V-136.0H167.0V-271.0H-140.0V-347.0H267.0V-61.0ZM168.0 -367.0V-685.0C168.0 -692.0 166.0 -695.0 160.0 -695.0C154.0 -695.0 141.0 -695.0 129.0 -694.0C140.0 -718.0 154.0 -755.0 158.0 -782.0C194.0 -782.0 225.0 -781.0 250.0 -766.0C275.0 -751.0 281.0 -729.0 281.0 -686.0V-367.0ZM-233.0 66.0V-38.0H312.0V66.0ZM-302.0 66.0V-279.0C-302.0 -414.0 -307.0 -593.0 -375.0 -714.0C-347.0 -728.0 -292.0 -770.0 -270.0 -793.0C-189.0 -657.0 -176.0 -433.0 -176.0 -279.0V66.0ZM-45.0 138.0C-30.0 94.0 -12.0 34.0 -5.0 -4.0L137.0 28.0C128.0 66.0 109.0 122.0 92.0 164.0ZM-164.0 -367.0V-513.0C-164.0 -576.0 -168.0 -653.0 -214.0 -711.0C-191.0 -725.0 -145.0 -769.0 -128.0 -790.0C-65.0 -718.0 -52.0 -603.0 -52.0 -515.0V-367.0ZM-94.0 -367.0V-451.0H222.0V-367.0Z"/></g>
<g fill="black" opacity=".8" transform="translate(400 200) scale(0.1 -0.1)"><path d="M0.0 0.0V-767.0H112.0V0.0ZM-172.0 -160.0V-247.0H200.0V-160.0ZM206.0 -140.0V-263.0H323.0V-140.0ZM-127.0 -479.0V-552.0H203.0V-479.0ZM-128.0 -579.0V-652.0H202.0V-579.0ZM-146.0 -61.0V-135.0H159.0V-272.0H-143.0V-347.0H262.0V-61.0ZM171.0 -368.0V-684.0C171.0 -692.0 169.0 -695.0 162.0 -695.0C156.0 -695.0 140.0 -695.0 125.0 -694.0C136.0 -716.0 150.0 -753.0 155.0 -780.0C193.0 -780.0 223.0 -779.0 249.0 -765.0C275.0 -749.0 281.0 -727.0 281.0 -685.0V-368.0ZM-229.0 66.0V-37.0H315.0V66.0ZM-309.0 66.0V-279.0C-309.0 -412.0 -314.0 -590.0 -378.0 -710.0C-350.0 -725.0 -296.0 -766.0 -273.0 -790.0C-196.0 -654.0 -182.0 -431.0 -182.0 -279.0V66.0ZM-48.0 139.0C-34.0 94.0 -18.0 35.0 -12.0 -3.0L127.0 27.0C119.0 64.0 102.0 120.0 86.0 162.0ZM-172.0 -368.0V-513.0C-172.0 -576.0 -175.0 -651.0 -220.0 -708.0C-197.0 -722.0 -150.0 -767.0 -133.0 -790.0C-70.0 -717.0 -57.0 -603.0 -57.0 -516.0V-368.0ZM-105.0 -368.0V-451.0H217.0V-368.0Z"/></g>
<g fill="red" transform="translate(500 200) scale(0.1 -0.1)"><path d="M0.0 0.0V-737.0H29.0V0.0ZM-252.0 -166.0V-196.0H194.0V-166.0ZM196.0 -166.0V-196.0H303.0V-166.0ZM-208.0 -454.0V-483.0H225.0V-454.0ZM-207.0 -567.0V-597.0H226.0V-567.0ZM-198.0 -66.0V-95.0H179.0V-269.0H-198.0V-299.0H209.0V-66.0ZM210.0 -346.0V-704.0C210.0 -713.0 208.0 -717.0 196.0 -717.0C183.0 -718.0 148.0 -718.0 99.0 -717.0C104.0 -727.0 109.0 -739.0 111.0 -748.0C165.0 -748.0 199.0 -748.0 217.0 -742.0C234.0 -735.0 239.0 -725.0 239.0 -703.0V-346.0ZM-289.0 28.0V-2.0H298.0V28.0ZM-310.0 28.0V-258.0C-310.0 -401.0 -318.0 -595.0 -402.0 -737.0C-395.0 -741.0 -383.0 -750.0 -378.0 -756.0C-292.0 -608.0 -280.0 -405.0 -280.0 -258.0V28.0ZM-50.0 132.0C-30.0 92.0 -7.0 37.0 3.0 3.0L31.0 16.0C21.0 49.0 -3.0 102.0 -23.0 143.0ZM-224.0 -346.0V-550.0C-224.0 -611.0 -229.0 -682.0 -277.0 -736.0C-270.0 -741.0 -261.0 -752.0 -257.0 -758.0C-203.0 -700.0 -195.0 -616.0 -195.0 -550.0V-346.0ZM-211.0 -346.0V-375.0H223.0V-346.0Z"/></g>
<g fill="black" opacity=".8" transform="translate(500 200) scale(0.1 -0.1)"><path d="M0.0 0.0V-736.0H29.0V0.0ZM-245.0 -169.0V-198.0H193.0V-169.0ZM193.0 -176.0V-188.0H297.0V-176.0ZM-199.0 -457.0V-486.0H225.0V-457.0ZM-199.0 -564.0V-593.0H225.0V-564.0ZM-191.0 -66.0V-95.0H182.0V-272.0H-191.0V-303.0H211.0V-66.0ZM208.0 -351.0V-706.0C208.0 -715.0 207.0 -719.0 196.0 -719.0C184.0 -720.0 150.0 -720.0 104.0 -719.0C109.0 -728.0 115.0 -740.0 116.0 -749.0C168.0 -749.0 200.0 -749.0 216.0 -743.0C232.0 -736.0 237.0 -726.0 237.0 -705.0V-351.0ZM-281.0 28.0V-2.0H286.0V28.0ZM-302.0 28.0V-255.0C-302.0 -399.0 -312.0 -593.0 -398.0 -736.0C-390.0 -741.0 -379.0 -750.0 -374.0 -756.0C-285.0 -607.0 -273.0 -403.0 -273.0 -255.0V28.0ZM-53.0 134.0C-33.0 93.0 -10.0 38.0 0.0 4.0L28.0 17.0C18.0 50.0 -6.0 103.0 -26.0 144.0ZM-215.0 -351.0V-553.0C-215.0 -613.0 -220.0 -683.0 -267.0 -736.0C-260.0 -741.0 -250.0 -752.0 -246.0 -758.0C-194.0 -701.0 -186.0 -618.0 -186.0 -553.0V-351.0ZM-202.0 -351.0V-381.0H223.0V-351.0Z"/></g>
<g fill="red" transform="translate(600 200) scale(0.1 -0.1)"><path d="M0.0 0.0V-770.0H116.0V0.0ZM-176.0 -159.0V-247.0H194.0V-159.0ZM208.0 -145.0V-257.0H326.0V-145.0ZM-129.0 -475.0V-550.0H196.0V-475.0ZM-129.0 -574.0V-649.0H196.0V-574.0ZM-152.0 -61.0V-136.0H155.0V-271.0H-149.0V-347.0H261.0V-61.0ZM171.0 -367.0V-685.0C171.0 -692.0 169.0 -695.0 162.0 -695.0C157.0 -695.0 144.0 -695.0 132.0 -694.0C144.0 -719.0 157.0 -756.0 162.0 -784.0C198.0 -784.0 229.0 -783.0 254.0 -768.0C280.0 -752.0 286.0 -729.0 286.0 -686.0V-367.0ZM-230.0 66.0V-38.0H324.0V66.0ZM-321.0 66.0V-280.0C-321.0 -415.0 -326.0 -594.0 -394.0 -714.0C-364.0 -729.0 -305.0 -774.0 -282.0 -799.0C-200.0 -663.0 -186.0 -435.0 -186.0 -280.0V66.0ZM-53.0 138.0C-38.0 94.0 -20.0 34.0 -13.0 -4.0L129.0 28.0C120.0 66.0 101.0 122.0 84.0 164.0ZM-173.0 -367.0V-513.0C-173.0 -577.0 -176.0 -653.0 -223.0 -711.0C-199.0 -726.0 -149.0 -773.0 -131.0 -796.0C-66.0 -723.0 -53.0 -606.0 -53.0 -516.0V-367.0ZM-103.0 -367.0V-451.0H213.0V-367.0Z"/></g>
<g fill="black" opacity=".8" transform="translate(600 200) scale(0.1 -0.1)"><path d="M0.0 0.0V-770.0H114.0V0.0ZM-175.0 -162.0V-249.0H196.0V-162.0ZM202.0 -155.0V-251.0H320.0V-155.0ZM-131.0 -483.0V-556.0H205.0V-483.0ZM-132.0 -583.0V-656.0H204.0V-583.0ZM-149.0 -62.0V-137.0H161.0V-274.0H-146.0V-350.0H265.0V-62.0ZM174.0 -371.0V-686.0C174.0 -694.0 172.0 -697.0 165.0 -697.0C159.0 -697.0 143.0 -697.0 128.0 -696.0C139.0 -720.0 153.0 -757.0 158.0 -784.0C196.0 -784.0 227.0 -783.0 253.0 -769.0C279.0 -753.0 285.0 -731.0 285.0 -687.0V-371.0ZM-233.0 65.0V-39.0H320.0V65.0ZM-314.0 65.0V-279.0C-314.0 -414.0 -319.0 -593.0 -386.0 -714.0C-358.0 -729.0 -302.0 -771.0 -279.0 -795.0C-200.0 -658.0 -186.0 -433.0 -186.0 -279.0V65.0ZM-48.0 139.0C-34.0 94.0 -18.0 33.0 -12.0 -5.0L129.0 25.0C120.0 63.0 103.0 120.0 87.0 163.0ZM-175.0 -371.0V-516.0C-175.0 -579.0 -178.0 -654.0 -224.0 -712.0C-201.0 -726.0 -153.0 -771.0 -136.0 -794.0C-72.0 -721.0 -59.0 -606.0 -59.0 -519.0V-371.0ZM-109.0 -371.0V-455.0H219.0V-371.0Z"/></g>
<g fill="red" transform="translate(700 200) scale(0.1 -0.1)"><path d="M0.0 0.0V-781.0H30.0V0.0ZM-190.0 -173.0V-202.0H212.0V-173.0ZM238.0 15.0V-466.0H268.0V15.0ZM-154.0 -486.0V-515.0H174.0V-486.0ZM-153.0 -599.0V-629.0H179.0V-599.0ZM-154.0 -73.0V-102.0H136.0V-283.0H-154.0V-312.0H165.0V-73.0ZM156.0 -376.0V-735.0C156.0 -744.0 154.0 -747.0 143.0 -747.0C132.0 -748.0 99.0 -748.0 54.0 -747.0C60.0 -757.0 65.0 -769.0 67.0 -778.0C116.0 -778.0 148.0 -778.0 165.0 -772.0C182.0 -766.0 187.0 -755.0 187.0 -734.0V-376.0ZM-223.0 27.0V-3.0H205.0V27.0ZM-243.0 27.0V-326.0C-243.0 -458.0 -248.0 -636.0 -308.0 -763.0C-302.0 -765.0 -289.0 -772.0 -284.0 -777.0C-222.0 -649.0 -213.0 -461.0 -213.0 -326.0V27.0ZM-48.0 103.0C-26.0 73.0 -4.0 31.0 6.0 2.0L31.0 16.0C21.0 44.0 -2.0 85.0 -25.0 115.0ZM-170.0 -376.0V-580.0C-170.0 -641.0 -175.0 -712.0 -219.0 -766.0C-212.0 -771.0 -203.0 -782.0 -199.0 -788.0C-149.0 -729.0 -141.0 -646.0 -141.0 -580.0V-376.0ZM-156.0 -376.0V-405.0H171.0V-376.0Z"/></g>
<g fill="black" opacity=".8" transform="translate(700 200) scale(0.1 -0.1)"><path d="M0.0 0.0V-781.0H30.0V0.0ZM-189.0 -173.0V-201.0H212.0V-173.0ZM238.0 15.0V-466.0H268.0V15.0ZM-154.0 -486.0V-514.0H174.0V-486.0ZM-153.0 -599.0V-628.0H179.0V-599.0ZM-154.0 -73.0V-102.0H136.0V-283.0H-154.0V-313.0H165.0V-73.0ZM155.0 -375.0V-735.0C155.0 -744.0 155.0 -747.0 144.0 -747.0C133.0 -748.0 99.0 -748.0 54.0 -747.0C60.0 -756.0 65.0 -769.0 67.0 -778.0C116.0 -778.0 149.0 -778.0 164.0 -772.0C181.0 -765.0 186.0 -754.0 186.0 -733.0V-375.0ZM-222.0 27.0V-3.0H204.0V27.0ZM-242.0 27.0V-326.0C-242.0 -458.0 -248.0 -635.0 -308.0 -762.0C-301.0 -765.0 -288.0 -772.0 -283.0 -777.0C-222.0 -649.0 -213.0 -461.0 -213.0 -326.0V27.0ZM-49.0 103.0C-27.0 72.0 -4.0 31.0 6.0 2.0L31.0 16.0C21.0 45.0 -2.0 85.0 -25.0 115.0ZM-169.0 -375.0V-580.0C-169.0 -641.0 -174.0 -712.0 -218.0 -765.0C-211.0 -770.0 -202.0 -782.0 -198.0 -787.0C-149.0 -729.0 -141.0 -646.0 -141.0 -580.0V-375.0ZM-156.0 -375.0V-405.0H170.0V-375.0Z"/></g>
<g fill="red" transform="translate(800 200) scale(0.1 -0.1)"><path d="M0.0 0.0V-779.0H98.0V0.0ZM-148.0 -139.0V-234.0H267.0V-139.0ZM279.0 73.0V-449.0H394.0V73.0ZM-89.0 -466.0V-541.0H191.0V-466.0ZM-89.0 -565.0V-640.0H191.0V-565.0ZM-113.0 -39.0V-116.0H137.0V-257.0H-113.0V-335.0H228.0V-39.0ZM134.0 -357.0V-693.0C134.0 -700.0 132.0 -702.0 126.0 -702.0C120.0 -702.0 107.0 -702.0 95.0 -701.0C106.0 -723.0 118.0 -757.0 122.0 -781.0C156.0 -781.0 184.0 -780.0 207.0 -767.0C231.0 -753.0 236.0 -733.0 236.0 -693.0V-357.0ZM-179.0 95.0V-14.0H249.0V95.0ZM-252.0 95.0V-286.0C-252.0 -417.0 -254.0 -592.0 -297.0 -711.0C-270.0 -722.0 -220.0 -755.0 -199.0 -774.0C-149.0 -642.0 -141.0 -432.0 -141.0 -286.0V95.0ZM-46.0 145.0C-32.0 110.0 -19.0 63.0 -17.0 32.0L118.0 60.0C113.0 90.0 99.0 135.0 83.0 168.0ZM-137.0 -357.0V-508.0C-137.0 -572.0 -140.0 -652.0 -178.0 -713.0C-156.0 -726.0 -113.0 -766.0 -97.0 -786.0C-44.0 -712.0 -34.0 -596.0 -34.0 -510.0V-357.0ZM-58.0 -357.0V-444.0H199.0V-357.0Z"/></g>
<g fill="black" opacity=".8" transform="translate(800 200) scale(0.1 -0.1)"><path d="M0.0 0.0V-779.0H97.0V0.0ZM-148.0 -140.0V-234.0H267.0V-140.0ZM279.0 73.0V-449.0H393.0V73.0ZM-89.0 -466.0V-541.0H191.0V-466.0ZM-89.0 -565.0V-641.0H191.0V-565.0ZM-113.0 -40.0V-116.0H138.0V-257.0H-113.0V-334.0H229.0V-40.0ZM134.0 -357.0V-693.0C134.0 -700.0 133.0 -703.0 127.0 -703.0C121.0 -703.0 107.0 -703.0 95.0 -702.0C105.0 -722.0 118.0 -757.0 122.0 -780.0C156.0 -780.0 183.0 -779.0 207.0 -767.0C231.0 -753.0 236.0 -733.0 236.0 -693.0V-357.0ZM-179.0 94.0V-15.0H249.0V94.0ZM-252.0 94.0V-286.0C-252.0 -417.0 -254.0 -592.0 -296.0 -710.0C-269.0 -722.0 -220.0 -754.0 -198.0 -773.0C-150.0 -641.0 -141.0 -432.0 -141.0 -286.0V94.0ZM-46.0 146.0C-32.0 110.0 -19.0 63.0 -17.0 32.0L118.0 60.0C113.0 89.0 99.0 135.0 83.0 168.0ZM-137.0 -357.0V-508.0C-137.0 -572.0 -140.0 -652.0 -178.0 -713.0C-156.0 -725.0 -113.0 -765.0 -98.0 -786.0C-45.0 -711.0 -34.0 -596.0 -34.0 -510.0V-357.0ZM-58.0 -357.0V-443.0H199.0V-357.0Z"/></g>
</svg>
