<?xml version="1.0" encoding="UTF-8"?>
<svg width="1700" height="900" xmlns="http://www.w3.org/2000/svg">
<rect width="100%" height="100%" fill="white"/>
<g fill="green" transform="translate(100 100) scale(0.1 -0.1)"><path d="M-0.0 -0.0V-49.0H1158.0V0.0H-0.0ZM-402.0 421.0V-57.0C-402.0 -305.0 -419.0 -636.0 -578.0 -880.0C-565.0 -886.0 -544.0 -899.0 -536.0 -908.0C-376.0 -659.0 -352.0 -311.0 -352.0 -57.0V421.0H-402.0ZM-10.0 299.0 -4.0 82.0H544.0V299.0H-10.0Z"/></g>
<g fill="green" transform="translate(200 100) scale(0.1 -0.1)"><path d="M0.0 0.0V-228.0H1107.0V0.0H0.0ZM-540.0 462.0V51.0C-540.0 -208.0 -552.0 -591.0 -703.0 -846.0C-645.0 -872.0 -535.0 -949.0 -490.0 -992.0C-319.0 -708.0 -289.0 -242.0 -289.0 51.0V462.0H-540.0ZM-110.0 269.0 -83.0 -61.0H519.0V269.0H-110.0Z"/></g>
<g fill="green" transform="translate(300 100) scale(0.1 -0.1)"><path d="M-0.0 -0.0V-31.0H712.0V0.0H0.0ZM-380.0 405.0V102.0C-380.0 -58.0 -392.0 -267.0 -500.0 -422.0C-492.0 -426.0 -479.0 -434.0 -474.0 -439.0C-365.0 -282.0 -348.0 -61.0 -348.0 102.0V405.0H-380.0ZM-201.0 231.0 -195.0 92.0H312.0V231.0H-201.0Z"/></g>
<g fill="green" transform="translate(400 100) scale(0.1 -0.1)"><path d="M0.0 0.0V-152.0H668.0V0.0H0.0ZM-482.0 445.0V214.0C-482.0 44.0 -490.0 -213.0 -593.0 -383.0C-555.0 -400.0 -482.0 -452.0 -453.0 -480.0C-337.0 -290.0 -316.0 22.0 -316.0 214.0V445.0H-482.0ZM-258.0 215.0 -230.0 -16.0H267.0V215.0H-258.0Z"/></g>
<g fill="green" transform="translate(500 100) scale(0.1 -0.1)"><path d="M0.0 -0.0V-31.0H1075.0V0.0H0.0ZM-1.0 -30.0V-342.0C-1.0 -505.0 -13.0 -721.0 -122.0 -881.0C-113.0 -884.0 -100.0 -893.0 -95.0 -898.0C14.0 -736.0 30.0 -509.0 30.0 -342.0V-30.0H-1.0ZM67.0 -281.0 72.0 -419.0H642.0V-281.0H67.0Z"/></g>
<g fill="green" transform="translate(600 100) scale(0.1 -0.1)"><path d="M0.0 0.0V-148.0H1059.0V0.0H0.0ZM-77.0 -25.0V-268.0C-77.0 -440.0 -85.0 -700.0 -185.0 -872.0C-148.0 -890.0 -77.0 -943.0 -47.0 -972.0C68.0 -780.0 88.0 -462.0 88.0 -268.0V-25.0H-77.0ZM55.0 -336.0 76.0 -549.0H629.0V-336.0H55.0Z"/></g>
<g fill="green" transform="translate(700 100) scale(0.1 -0.1)"><path d="M-0.0 0.0V-47.0H1324.0V0.0H0.0ZM-237.0 410.0V-2.0C-237.0 -242.0 -256.0 -563.0 -424.0 -800.0C-412.0 -806.0 -391.0 -818.0 -384.0 -827.0C-216.0 -585.0 -190.0 -247.0 -190.0 -2.0V410.0H-237.0ZM329.0 655.0 338.0 335.0H500.0V655.0H329.0Z"/></g>
<g fill="green" transform="translate(800 100) scale(0.1 -0.1)"><path d="M0.0 0.0V-243.0H1264.0V0.0H0.0ZM-374.0 446.0V133.0C-374.0 -124.0 -387.0 -514.0 -556.0 -773.0C-494.0 -799.0 -378.0 -876.0 -330.0 -919.0C-143.0 -632.0 -110.0 -160.0 -110.0 132.0V446.0H-374.0ZM102.0 628.0 141.0 225.0H538.0V628.0H102.0Z"/></g>
<g fill="green" transform="translate(900 100) scale(0.1 -0.1)"><path d="M0.0 -0.0V-53.0H888.0V0.0H0.0ZM-376.0 342.0V-115.0C-376.0 -387.0 -398.0 -751.0 -583.0 -1021.0C-570.0 -1028.0 -548.0 -1042.0 -539.0 -1052.0C-351.0 -776.0 -323.0 -393.0 -323.0 -115.0V342.0H-376.0ZM-75.0 433.0 -70.0 115.0H189.0V433.0H-75.0Z"/></g>
<g fill="green" transform="translate(1000 100) scale(0.1 -0.1)"><path d="M0.0 0.0V-261.0H838.0V0.0H0.0ZM-504.0 384.0V-33.0C-504.0 -307.0 -517.0 -712.0 -682.0 -984.0C-620.0 -1011.0 -505.0 -1088.0 -458.0 -1133.0C-273.0 -833.0 -242.0 -343.0 -242.0 -33.0V384.0H-504.0ZM-224.0 409.0 -202.0 -6.0H214.0V409.0H-224.0Z"/></g>
<g fill="green" transform="translate(1100 100) scale(0.1 -0.1)"><path d="M0.0 0.0V-51.0H918.0V0.0H-0.0ZM-422.0 401.0V-74.0C-422.0 -317.0 -440.0 -643.0 -598.0 -883.0C-584.0 -889.0 -563.0 -903.0 -554.0 -912.0C-395.0 -667.0 -370.0 -324.0 -370.0 -73.0V401.0H-422.0ZM-8.0 320.0 -6.0 159.0H781.0V320.0H-8.0Z"/></g>
<g fill="green" transform="translate(1200 100) scale(0.1 -0.1)"><path d="M0.0 0.0V-215.0H896.0V0.0H0.0ZM-526.0 436.0V-26.0C-526.0 -273.0 -539.0 -623.0 -691.0 -858.0C-635.0 -884.0 -530.0 -962.0 -488.0 -1005.0C-313.0 -742.0 -283.0 -309.0 -283.0 -27.0V436.0H-526.0ZM-49.0 316.0 -37.0 53.0H783.0V316.0H-49.0Z"/></g>
<g fill="green" transform="translate(1300 100) scale(0.1 -0.1)"><path d="M0.0 0.0V-43.0H1155.0V0.0H0.0ZM-486.0 263.0V-144.0C-486.0 -345.0 -501.0 -611.0 -632.0 -809.0C-620.0 -814.0 -603.0 -826.0 -596.0 -835.0C-463.0 -633.0 -443.0 -351.0 -443.0 -144.0V263.0H-486.0ZM166.0 294.0 173.0 72.0H452.0V294.0H166.0Z"/></g>
<g fill="green" transform="translate(1400 100) scale(0.1 -0.1)"><path d="M0.0 0.0V-186.0H1130.0V0.0H0.0ZM-597.0 294.0V-71.0C-597.0 -285.0 -606.0 -597.0 -734.0 -804.0C-682.0 -827.0 -586.0 -890.0 -546.0 -926.0C-403.0 -695.0 -379.0 -315.0 -379.0 -70.0V294.0H-597.0ZM65.0 259.0 97.0 -48.0H439.0V259.0H65.0Z"/></g>
<g fill="green" transform="translate(1500 100) scale(0.1 -0.1)"><path d="M0.0 0.0V-53.0H1075.0V0.0H0.0ZM-401.0 545.0V-41.0C-401.0 -302.0 -413.0 -657.0 -538.0 -917.0C-524.0 -922.0 -500.0 -936.0 -491.0 -945.0C-366.0 -680.0 -348.0 -308.0 -348.0 -41.0V545.0H-401.0ZM103.0 239.0 102.0 74.0H511.0V239.0H103.0Z"/></g>
<g fill="green" transform="translate(1600 100) scale(0.1 -0.1)"><path d="M0.0 0.0V-212.0H1010.0V0.0H0.0ZM-554.0 587.0V103.0C-554.0 -178.0 -563.0 -595.0 -689.0 -876.0C-635.0 -901.0 -527.0 -981.0 -484.0 -1025.0C-336.0 -713.0 -310.0 -208.0 -310.0 104.0V587.0H-554.0ZM62.0 198.0 57.0 -72.0H436.0V198.0H62.0Z"/></g>
<g fill="green" transform="translate(100 200) scale(0.1 -0.1)"><path d="M0.0 0.0V-46.0H1180.0V0.0H0.0ZM-395.0 428.0V-67.0C-395.0 -312.0 -408.0 -641.0 -551.0 -883.0C-539.0 -888.0 -519.0 -900.0 -511.0 -908.0C-367.0 -662.0 -347.0 -318.0 -347.0 -67.0V428.0H-395.0ZM-17.0 254.0 -12.0 161.0H539.0V254.0H-17.0Z"/></g>
<g fill="green" transform="translate(200 200) scale(0.1 -0.1)"><path d="M0.0 0.0V-209.0H1119.0V0.0H0.0ZM-546.0 470.0V10.0C-546.0 -239.0 -556.0 -603.0 -689.0 -845.0C-634.0 -869.0 -532.0 -939.0 -490.0 -979.0C-340.0 -710.0 -314.0 -269.0 -314.0 11.0V470.0H-546.0ZM-132.0 247.0 -108.0 25.0H499.0V247.0H-132.0Z"/></g>
<g fill="green" transform="translate(300 200) scale(0.1 -0.1)"><path d="M0.0 0.0V-50.0H1164.0V0.0H0.0ZM-397.0 451.0V-31.0C-397.0 -279.0 -414.0 -610.0 -575.0 -853.0C-561.0 -859.0 -540.0 -873.0 -532.0 -883.0C-370.0 -634.0 -345.0 -285.0 -345.0 -31.0V451.0H-397.0ZM-15.0 325.0 -10.0 65.0H536.0V325.0H-15.0Z"/></g>
<g fill="green" transform="translate(400 200) scale(0.1 -0.1)"><path d="M0.0 0.0V-234.0H1109.0V0.0H0.0ZM-544.0 489.0V-31.0C-544.0 -276.0 -556.0 -616.0 -705.0 -841.0C-644.0 -869.0 -533.0 -945.0 -486.0 -988.0C-316.0 -735.0 -288.0 -313.0 -288.0 -31.0V489.0H-544.0ZM-104.0 271.0 -84.0 -93.0H518.0V271.0H-104.0Z"/></g>
<g fill="red" transform="translate(100 300) scale(0.1 -0.1)"><path d="M0.0 0.0V-29.0H618.0V0.0H0.0ZM-9.0 0.0V-257.0C-9.0 -397.0 -17.0 -592.0 -91.0 -736.0C-83.0 -739.0 -71.0 -748.0 -66.0 -754.0C9.0 -606.0 20.0 -401.0 20.0 -257.0V0.0H-9.0ZM278.0 128.0V-13.0H307.0V128.0H278.0Z"/></g>
<g fill="black" opacity=".8" transform="translate(100 300) scale(0.1 -0.1)"><path d="M0.0 0.0V-29.0H614.0V0.0H0.0ZM0.0 0.0V-260.0C0.0 -402.0 -11.0 -596.0 -96.0 -740.0C-88.0 -742.0 -76.0 -751.0 -71.0 -756.0C16.0 -610.0 28.0 -405.0 28.0 -259.0V0.0H0.0ZM281.0 126.0 280.0 -22.0H308.0V126.0H281.0Z"/></g>
<g fill="red" transform="translate(200 300) scale(0.1 -0.1)"><path d="M0.0 0.0V-123.0H599.0V0.0H0.0ZM-49.0 0.0V-268.0C-49.0 -411.0 -54.0 -616.0 -122.0 -755.0C-92.0 -769.0 -33.0 -809.0 -10.0 -833.0C69.0 -678.0 82.0 -429.0 82.0 -268.0V0.0H-49.0ZM210.0 102.0V-78.0H354.0V102.0H210.0Z"/></g>
<g fill="black" opacity=".8" transform="translate(200 300) scale(0.1 -0.1)"><path d="M0.0 0.0V-126.0H603.0V0.0H0.0ZM-52.0 3.0V-273.0C-52.0 -413.0 -57.0 -612.0 -137.0 -746.0C-104.0 -761.0 -46.0 -801.0 -22.0 -824.0C69.0 -676.0 83.0 -432.0 83.0 -272.0V3.0H-52.0ZM211.0 103.0 207.0 -70.0H353.0V103.0H211.0Z"/></g>
<g fill="red" transform="translate(300 300) scale(0.1 -0.1)"><path d="M0.0 0.0V-29.0H710.0V0.0H0.0ZM-98.0 224.0V-60.0C-98.0 -199.0 -107.0 -390.0 -189.0 -529.0C-182.0 -532.0 -169.0 -540.0 -164.0 -545.0C-81.0 -403.0 -69.0 -203.0 -69.0 -60.0V224.0H-98.0ZM285.0 355.0V209.0H314.0V355.0H285.0Z"/></g>
<g fill="black" opacity=".8" transform="translate(300 300) scale(0.1 -0.1)"><path d="M0.0 0.0V-29.0H709.0V0.0H0.0ZM-102.0 221.0V-51.0C-102.0 -194.0 -111.0 -386.0 -194.0 -529.0C-187.0 -531.0 -174.0 -539.0 -169.0 -544.0C-86.0 -400.0 -74.0 -196.0 -74.0 -51.0V221.0H-102.0ZM283.0 354.0 285.0 214.0H305.0V354.0H283.0Z"/></g>
<g fill="red" transform="translate(400 300) scale(0.1 -0.1)"><path d="M0.0 0.0V-137.0H671.0V0.0H0.0ZM-188.0 234.0V-13.0C-188.0 -159.0 -193.0 -373.0 -271.0 -517.0C-236.0 -531.0 -171.0 -574.0 -144.0 -598.0C-57.0 -438.0 -42.0 -179.0 -42.0 -14.0V234.0H-188.0ZM170.0 347.0V158.0H322.0V347.0H170.0Z"/></g>
<g fill="black" opacity=".8" transform="translate(400 300) scale(0.1 -0.1)"><path d="M0.0 0.0V-130.0H675.0V0.0H0.0ZM-180.0 238.0V-13.0C-180.0 -161.0 -186.0 -376.0 -271.0 -520.0C-236.0 -535.0 -173.0 -578.0 -148.0 -602.0C-52.0 -442.0 -36.0 -180.0 -36.0 -13.0V238.0H-180.0ZM170.0 341.0 176.0 162.0H327.0V341.0H170.0Z"/></g>
<g fill="red" transform="translate(500 300) scale(0.1 -0.1)"><path d="M0.0 0.0V-29.0H786.0V0.0H0.0ZM-19.0 0.0V-279.0C-19.0 -417.0 -28.0 -603.0 -119.0 -740.0C-111.0 -743.0 -99.0 -751.0 -94.0 -756.0C-2.0 -618.0 11.0 -421.0 11.0 -279.0V0.0H-19.0ZM351.0 148.0V-15.0H380.0V148.0H351.0Z"/></g>
<g fill="black" opacity=".8" transform="translate(500 300) scale(0.1 -0.1)"><path d="M0.0 0.0V-29.0H788.0V0.0H0.0ZM-16.0 -5.0V-266.0C-16.0 -408.0 -27.0 -599.0 -115.0 -741.0C-107.0 -744.0 -95.0 -752.0 -90.0 -757.0C-1.0 -613.0 12.0 -411.0 12.0 -265.0V-5.0H-16.0ZM360.0 148.0 361.0 -15.0H386.0V148.0H360.0Z"/></g>
<g fill="red" transform="translate(600 300) scale(0.1 -0.1)"><path d="M0.0 0.0V-139.0H784.0V0.0H0.0ZM-69.0 0.0V-245.0C-69.0 -389.0 -75.0 -601.0 -161.0 -743.0C-127.0 -757.0 -62.0 -801.0 -36.0 -825.0C60.0 -668.0 77.0 -410.0 77.0 -245.0V0.0H-69.0ZM281.0 122.0V-67.0H433.0V122.0H281.0Z"/></g>
<g fill="black" opacity=".8" transform="translate(600 300) scale(0.1 -0.1)"><path d="M0.0 0.0V-129.0H778.0V0.0H0.0ZM-72.0 -3.0V-243.0C-72.0 -390.0 -77.0 -604.0 -165.0 -748.0C-130.0 -763.0 -68.0 -806.0 -42.0 -830.0C57.0 -671.0 72.0 -410.0 72.0 -243.0V-3.0H-72.0ZM271.0 122.0 277.0 -70.0H430.0V122.0H271.0Z"/></g>
<g fill="red" transform="translate(700 300) scale(0.1 -0.1)"><path d="M0.0 0.0V-29.0H640.0V0.0H0.0ZM-130.0 305.0V40.0C-130.0 -102.0 -139.0 -296.0 -219.0 -439.0C-212.0 -443.0 -199.0 -450.0 -194.0 -456.0C-113.0 -309.0 -101.0 -105.0 -101.0 40.0V305.0H-130.0ZM251.0 447.0V288.0H280.0V447.0H251.0Z"/></g>
<g fill="black" opacity=".8" transform="translate(700 300) scale(0.1 -0.1)"><path d="M0.0 0.0V-29.0H639.0V0.0H0.0ZM-122.0 304.0V36.0C-122.0 -106.0 -132.0 -298.0 -216.0 -440.0C-208.0 -442.0 -196.0 -450.0 -191.0 -455.0C-107.0 -311.0 -94.0 -109.0 -94.0 36.0V304.0H-122.0ZM259.0 448.0 260.0 286.0H285.0V448.0H259.0Z"/></g>
<g fill="red" transform="translate(800 300) scale(0.1 -0.1)"><path d="M0.0 0.0V-138.0H604.0V0.0H0.0ZM-197.0 322.0V73.0C-197.0 -74.0 -203.0 -289.0 -287.0 -433.0C-253.0 -448.0 -188.0 -491.0 -161.0 -515.0C-68.0 -355.0 -51.0 -94.0 -51.0 73.0V322.0H-197.0ZM155.0 432.0V243.0H307.0V432.0H155.0Z"/></g>
<g fill="black" opacity=".8" transform="translate(800 300) scale(0.1 -0.1)"><path d="M0.0 0.0V-133.0H600.0V0.0H0.0ZM-203.0 324.0V72.0C-203.0 -75.0 -209.0 -287.0 -297.0 -429.0C-262.0 -444.0 -198.0 -488.0 -172.0 -513.0C-72.0 -355.0 -56.0 -95.0 -56.0 72.0V324.0H-203.0ZM146.0 435.0 150.0 237.0H307.0V435.0H146.0Z"/></g>
<g fill="red" transform="translate(900 300) scale(0.1 -0.1)"><path d="M0.0 0.0V-30.0H804.0V0.0H0.0ZM-15.0 0.0V-283.0C-15.0 -426.0 -23.0 -621.0 -100.0 -765.0C-93.0 -769.0 -81.0 -776.0 -75.0 -782.0C3.0 -634.0 14.0 -429.0 14.0 -283.0V0.0H-15.0ZM374.0 120.0V-12.0H403.0V120.0H374.0Z"/></g>
<g fill="black" opacity=".8" transform="translate(900 300) scale(0.1 -0.1)"><path d="M0.0 0.0V-30.0H804.0V0.0H0.0ZM-14.0 0.0V-279.0C-14.0 -424.0 -24.0 -620.0 -108.0 -766.0C-100.0 -768.0 -88.0 -777.0 -83.0 -782.0C2.0 -635.0 15.0 -428.0 15.0 -279.0V0.0H-14.0ZM369.0 120.0V-20.0H397.0V120.0H369.0Z"/></g>
<g fill="red" transform="translate(1000 300) scale(0.1 -0.1)"><path d="M0.0 0.0V-134.0H788.0V0.0H0.0ZM-77.0 0.0V-270.0C-77.0 -418.0 -83.0 -632.0 -162.0 -776.0C-128.0 -790.0 -64.0 -832.0 -38.0 -857.0C50.0 -697.0 65.0 -437.0 65.0 -271.0V0.0H-77.0ZM281.0 98.0V-91.0H433.0V98.0H281.0Z"/></g>
<g fill="black" opacity=".8" transform="translate(1000 300) scale(0.1 -0.1)"><path d="M0.0 0.0V-127.0H792.0V0.0H0.0ZM-75.0 2.0V-272.0C-75.0 -419.0 -80.0 -632.0 -163.0 -775.0C-128.0 -790.0 -67.0 -832.0 -41.0 -856.0C54.0 -699.0 68.0 -439.0 68.0 -271.0V2.0H-75.0ZM285.0 94.0 288.0 -77.0H435.0V94.0H285.0Z"/></g>
<g fill="red" transform="translate(1100 300) scale(0.1 -0.1)"><path d="M0.0 0.0V-29.0H799.0V0.0H0.0ZM-15.0 0.0V-265.0C-15.0 -407.0 -24.0 -601.0 -104.0 -744.0C-97.0 -748.0 -84.0 -755.0 -79.0 -761.0C2.0 -614.0 14.0 -410.0 14.0 -265.0V0.0H-15.0ZM366.0 142.0V-17.0H395.0V142.0H366.0Z"/></g>
<g fill="black" opacity=".8" transform="translate(1100 300) scale(0.1 -0.1)"><path d="M0.0 0.0V-30.0H800.0V0.0H0.0ZM-12.0 1.0V-266.0C-12.0 -409.0 -23.0 -601.0 -110.0 -745.0C-102.0 -747.0 -90.0 -756.0 -84.0 -761.0C3.0 -616.0 16.0 -412.0 16.0 -266.0V1.0H-12.0ZM366.0 140.0 367.0 -20.0H393.0V140.0H366.0Z"/></g>
<g fill="red" transform="translate(1200 300) scale(0.1 -0.1)"><path d="M0.0 0.0V-138.0H788.0V0.0H0.0ZM-71.0 0.0V-249.0C-71.0 -396.0 -77.0 -611.0 -161.0 -755.0C-127.0 -770.0 -62.0 -813.0 -35.0 -837.0C58.0 -677.0 75.0 -416.0 75.0 -249.0V0.0H-71.0ZM281.0 110.0V-79.0H433.0V110.0H281.0Z"/></g>
<g fill="black" opacity=".8" transform="translate(1200 300) scale(0.1 -0.1)"><path d="M0.0 0.0V-129.0H788.0V0.0H0.0ZM-70.0 3.0V-251.0C-70.0 -397.0 -76.0 -610.0 -162.0 -753.0C-127.0 -768.0 -65.0 -811.0 -39.0 -835.0C59.0 -677.0 74.0 -417.0 74.0 -251.0V3.0H-70.0ZM279.0 112.0 284.0 -77.0H434.0V112.0H279.0Z"/></g>
<g fill="red" transform="translate(1300 300) scale(0.1 -0.1)"><path d="M0.0 0.0V-29.0H684.0V0.0H0.0ZM-86.0 164.0V-105.0C-86.0 -248.0 -94.0 -444.0 -178.0 -589.0C-171.0 -592.0 -158.0 -600.0 -153.0 -605.0C-68.0 -457.0 -56.0 -252.0 -56.0 -105.0V164.0H-86.0ZM283.0 294.0V148.0H312.0V294.0H283.0Z"/></g>
<g fill="black" opacity=".8" transform="translate(1300 300) scale(0.1 -0.1)"><path d="M0.0 0.0V-29.0H683.0V0.0H0.0ZM-92.0 172.0V-106.0C-92.0 -250.0 -102.0 -446.0 -184.0 -591.0C-177.0 -594.0 -164.0 -602.0 -159.0 -607.0C-76.0 -460.0 -63.0 -253.0 -63.0 -105.0V172.0H-92.0ZM280.0 289.0V150.0H307.0V289.0H280.0Z"/></g>
<g fill="red" transform="translate(1400 300) scale(0.1 -0.1)"><path d="M0.0 0.0V-126.0H649.0V0.0H0.0ZM-171.0 186.0V-69.0C-171.0 -220.0 -177.0 -442.0 -261.0 -590.0C-227.0 -604.0 -163.0 -646.0 -136.0 -671.0C-43.0 -507.0 -27.0 -239.0 -27.0 -69.0V186.0H-171.0ZM181.0 272.0V96.0H329.0V272.0H181.0Z"/></g>
<g fill="black" opacity=".8" transform="translate(1400 300) scale(0.1 -0.1)"><path d="M0.0 0.0V-129.0H655.0V0.0H0.0ZM-164.0 186.0V-73.0C-164.0 -222.0 -170.0 -439.0 -253.0 -585.0C-219.0 -600.0 -157.0 -643.0 -131.0 -667.0C-37.0 -506.0 -22.0 -241.0 -22.0 -73.0V186.0H-164.0ZM183.0 274.0 185.0 98.0H330.0V274.0H183.0Z"/></g>
<g fill="red" transform="translate(1500 300) scale(0.1 -0.1)"><path d="M0.0 0.0V-30.0H799.0V0.0H0.0ZM-15.0 0.0V-283.0C-15.0 -426.0 -23.0 -622.0 -104.0 -765.0C-97.0 -769.0 -84.0 -776.0 -79.0 -782.0C2.0 -635.0 14.0 -430.0 14.0 -283.0V0.0H-15.0ZM366.0 120.0V-12.0H395.0V120.0H366.0Z"/></g>
<g fill="black" opacity=".8" transform="translate(1500 300) scale(0.1 -0.1)"><path d="M0.0 0.0V-30.0H800.0V0.0H0.0ZM-11.0 -1.0V-279.0C-11.0 -424.0 -21.0 -621.0 -107.0 -767.0C-99.0 -769.0 -86.0 -778.0 -81.0 -783.0C5.0 -635.0 18.0 -428.0 18.0 -279.0V-1.0H-11.0ZM366.0 122.0 367.0 -23.0H396.0V122.0H366.0Z"/></g>
<g fill="red" transform="translate(1600 300) scale(0.1 -0.1)"><path d="M0.0 0.0V-134.0H788.0V0.0H0.0ZM-68.0 0.0V-270.0C-68.0 -419.0 -74.0 -633.0 -158.0 -776.0C-125.0 -791.0 -61.0 -833.0 -36.0 -857.0C58.0 -698.0 74.0 -438.0 74.0 -271.0V0.0H-68.0ZM284.0 98.0V-91.0H436.0V98.0H284.0Z"/></g>
<g fill="black" opacity=".8" transform="translate(1600 300) scale(0.1 -0.1)"><path d="M0.0 0.0V-128.0H788.0V0.0H0.0ZM-71.0 0.0V-272.0C-71.0 -419.0 -77.0 -632.0 -160.0 -775.0C-126.0 -791.0 -64.0 -833.0 -38.0 -857.0C57.0 -699.0 72.0 -439.0 72.0 -271.0V0.0H-71.0ZM283.0 96.0 286.0 -80.0H435.0V96.0H283.0Z"/></g>
<g fill="red" transform="translate(100 400) scale(0.1 -0.1)"><path d="M0.0 0.0V-29.0H777.0V0.0H0.0ZM-15.0 0.0V-260.0C-15.0 -404.0 -26.0 -600.0 -118.0 -744.0C-111.0 -748.0 -99.0 -757.0 -94.0 -762.0C1.0 -614.0 15.0 -408.0 15.0 -260.0V0.0H-15.0ZM343.0 135.0V-15.0H372.0V135.0H343.0Z"/></g>
<g fill="black" opacity=".8" transform="translate(100 400) scale(0.1 -0.1)"><path d="M0.0 0.0V-30.0H774.0V0.0H0.0ZM-15.0 2.0V-266.0C-15.0 -409.0 -26.0 -603.0 -113.0 -746.0C-105.0 -748.0 -93.0 -757.0 -88.0 -763.0C0.0 -617.0 14.0 -413.0 14.0 -266.0V2.0H-15.0ZM344.0 139.0V-22.0H372.0V139.0H344.0Z"/></g>
<g fill="red" transform="translate(200 400) scale(0.1 -0.1)"><path d="M0.0 0.0V-129.0H757.0V0.0H0.0ZM-74.0 0.0V-292.0C-74.0 -435.0 -80.0 -634.0 -166.0 -768.0C-130.0 -782.0 -66.0 -820.0 -38.0 -844.0C55.0 -696.0 70.0 -455.0 70.0 -292.0V0.0H-74.0ZM264.0 106.0V-83.0H416.0V106.0H264.0Z"/></g>
<g fill="black" opacity=".8" transform="translate(200 400) scale(0.1 -0.1)"><path d="M0.0 0.0V-129.0H761.0V0.0H0.0ZM-76.0 3.0V-295.0C-76.0 -435.0 -81.0 -630.0 -165.0 -761.0C-129.0 -777.0 -68.0 -818.0 -42.0 -842.0C53.0 -697.0 67.0 -456.0 67.0 -294.0V3.0H-76.0ZM261.0 107.0 263.0 -81.0H417.0V107.0H261.0Z"/></g>
<g fill="red" transform="translate(300 400) scale(0.1 -0.1)"><path d="M0.0 0.0V-29.0H667.0V0.0H0.0ZM-108.0 224.0V-59.0C-108.0 -202.0 -116.0 -398.0 -197.0 -541.0C-190.0 -545.0 -177.0 -552.0 -172.0 -558.0C-91.0 -411.0 -79.0 -206.0 -79.0 -59.0V224.0H-108.0ZM273.0 344.0V212.0H302.0V344.0H273.0Z"/></g>
<g fill="black" opacity=".8" transform="translate(300 400) scale(0.1 -0.1)"><path d="M0.0 0.0V-29.0H673.0V0.0H0.0ZM-110.0 227.0V-54.0C-110.0 -199.0 -119.0 -395.0 -201.0 -540.0C-193.0 -543.0 -181.0 -551.0 -176.0 -555.0C-94.0 -409.0 -81.0 -202.0 -81.0 -54.0V227.0H-110.0ZM272.0 343.0V207.0H300.0V343.0H272.0Z"/></g>
<g fill="red" transform="translate(400 400) scale(0.1 -0.1)"><path d="M0.0 0.0V-122.0H644.0V0.0H0.0ZM-189.0 246.0V-24.0C-189.0 -173.0 -195.0 -387.0 -279.0 -530.0C-246.0 -545.0 -182.0 -587.0 -157.0 -611.0C-63.0 -452.0 -47.0 -192.0 -47.0 -25.0V246.0H-189.0ZM168.0 334.0V145.0H320.0V334.0H168.0Z"/></g>
<g fill="black" opacity=".8" transform="translate(400 400) scale(0.1 -0.1)"><path d="M0.0 0.0V-129.0H640.0V0.0H0.0ZM-188.0 243.0V-25.0C-188.0 -174.0 -193.0 -388.0 -277.0 -532.0C-242.0 -547.0 -180.0 -590.0 -154.0 -615.0C-59.0 -455.0 -44.0 -193.0 -44.0 -25.0V243.0H-188.0ZM169.0 330.0 171.0 156.0H320.0V330.0H169.0Z"/></g>
<g fill="red" transform="translate(500 400) scale(0.1 -0.1)"><path d="M0.0 0.0V-30.0H786.0V0.0H0.0ZM-14.0 0.0V-270.0C-14.0 -414.0 -22.0 -612.0 -106.0 -757.0C-99.0 -760.0 -86.0 -769.0 -81.0 -774.0C4.0 -626.0 16.0 -418.0 16.0 -271.0V0.0H-14.0ZM355.0 112.0V-16.0H384.0V112.0H355.0Z"/></g>
<g fill="black" opacity=".8" transform="translate(500 400) scale(0.1 -0.1)"><path d="M0.0 0.0V-30.0H794.0V0.0H0.0ZM-12.0 1.0V-275.0C-12.0 -419.0 -22.0 -613.0 -106.0 -758.0C-98.0 -760.0 -86.0 -769.0 -80.0 -774.0C4.0 -627.0 16.0 -422.0 16.0 -275.0V1.0H-12.0ZM357.0 110.0 358.0 -31.0H390.0V110.0H357.0Z"/></g>
<g fill="red" transform="translate(600 400) scale(0.1 -0.1)"><path d="M0.0 0.0V-124.0H788.0V0.0H0.0ZM-71.0 0.0V-252.0C-71.0 -402.0 -77.0 -621.0 -159.0 -768.0C-125.0 -782.0 -62.0 -824.0 -35.0 -848.0C56.0 -685.0 72.0 -421.0 72.0 -252.0V0.0H-71.0ZM281.0 78.0V-98.0H429.0V78.0H281.0Z"/></g>
<g fill="black" opacity=".8" transform="translate(600 400) scale(0.1 -0.1)"><path d="M0.0 0.0V-126.0H781.0V0.0H0.0ZM-72.0 3.0V-255.0C-72.0 -403.0 -77.0 -619.0 -159.0 -764.0C-126.0 -779.0 -64.0 -821.0 -39.0 -845.0C55.0 -685.0 69.0 -422.0 69.0 -255.0V3.0H-72.0ZM277.0 84.0 280.0 -89.0H425.0V84.0H277.0Z"/></g>
<g fill="red" transform="translate(700 400) scale(0.1 -0.1)"><path d="M0.0 0.0V-30.0H557.0V0.0H0.0ZM-154.0 155.0V-127.0C-154.0 -269.0 -163.0 -463.0 -243.0 -606.0C-236.0 -609.0 -223.0 -618.0 -218.0 -624.0C-137.0 -477.0 -125.0 -272.0 -125.0 -127.0V155.0H-154.0ZM227.0 267.0V135.0H256.0V267.0H227.0Z"/></g>
<g fill="black" opacity=".8" transform="translate(700 400) scale(0.1 -0.1)"><path d="M0.0 0.0V-30.0H577.0V0.0H0.0ZM-148.0 153.0V-123.0C-148.0 -267.0 -159.0 -463.0 -243.0 -608.0C-235.0 -610.0 -223.0 -619.0 -217.0 -624.0C-132.0 -477.0 -119.0 -271.0 -119.0 -122.0V153.0H-148.0ZM226.0 275.0V132.0H265.0V275.0H226.0Z"/></g>
<g fill="red" transform="translate(800 400) scale(0.1 -0.1)"><path d="M0.0 0.0V-114.0H581.0V0.0H0.0ZM-207.0 173.0V-97.0C-207.0 -246.0 -213.0 -460.0 -297.0 -603.0C-264.0 -618.0 -200.0 -660.0 -175.0 -684.0C-81.0 -525.0 -65.0 -265.0 -65.0 -98.0V173.0H-207.0ZM145.0 271.0V82.0H297.0V271.0H145.0Z"/></g>
<g fill="black" opacity=".8" transform="translate(800 400) scale(0.1 -0.1)"><path d="M0.0 0.0V-128.0H558.0V0.0H0.0ZM-212.0 167.0V-98.0C-212.0 -246.0 -217.0 -458.0 -300.0 -603.0C-266.0 -617.0 -205.0 -659.0 -181.0 -684.0C-86.0 -525.0 -72.0 -265.0 -72.0 -97.0V167.0H-212.0ZM147.0 264.0V86.0H291.0V264.0H147.0Z"/></g>
<g fill="red" transform="translate(900 400) scale(0.1 -0.1)"><path d="M0.0 0.0V-30.0H804.0V0.0H0.0ZM-11.0 0.0V-283.0C-11.0 -426.0 -19.0 -621.0 -96.0 -765.0C-89.0 -769.0 -77.0 -776.0 -71.0 -782.0C7.0 -634.0 18.0 -429.0 18.0 -283.0V0.0H-11.0ZM374.0 120.0V-17.0H403.0V120.0H374.0Z"/></g>
<g fill="black" opacity=".8" transform="translate(900 400) scale(0.1 -0.1)"><path d="M0.0 0.0V-29.0H805.0V0.0H0.0ZM-11.0 -0.0V-279.0C-11.0 -424.0 -21.0 -620.0 -104.0 -765.0C-96.0 -767.0 -84.0 -776.0 -79.0 -781.0C5.0 -634.0 17.0 -427.0 17.0 -279.0V-0.0H-11.0ZM368.0 118.0 369.0 -11.0H393.0V118.0H368.0Z"/></g>
<g fill="red" transform="translate(1000 400) scale(0.1 -0.1)"><path d="M0.0 0.0V-130.0H788.0V0.0H0.0ZM-77.0 0.0V-269.0C-77.0 -416.0 -83.0 -629.0 -160.0 -772.0C-126.0 -786.0 -64.0 -827.0 -38.0 -851.0C49.0 -692.0 64.0 -435.0 64.0 -269.0V0.0H-77.0ZM276.0 98.0V-69.0H423.0V98.0H276.0Z"/></g>
<g fill="black" opacity=".8" transform="translate(1000 400) scale(0.1 -0.1)"><path d="M0.0 0.0V-125.0H791.0V0.0H0.0ZM-73.0 2.0V-270.0C-73.0 -417.0 -78.0 -629.0 -159.0 -772.0C-125.0 -787.0 -65.0 -829.0 -39.0 -853.0C53.0 -695.0 67.0 -436.0 67.0 -269.0V2.0H-73.0ZM282.0 95.0 284.0 -67.0H429.0V95.0H282.0Z"/></g>
<g fill="red" transform="translate(1100 400) scale(0.1 -0.1)"><path d="M0.0 0.0V-30.0H777.0V0.0H0.0ZM-15.0 0.0V-264.0C-15.0 -411.0 -25.0 -610.0 -118.0 -757.0C-111.0 -761.0 -99.0 -769.0 -94.0 -775.0C1.0 -624.0 15.0 -415.0 15.0 -264.0V0.0H-15.0ZM353.0 125.0V-25.0H382.0V125.0H353.0Z"/></g>
<g fill="black" opacity=".8" transform="translate(1100 400) scale(0.1 -0.1)"><path d="M0.0 0.0V-30.0H779.0V0.0H0.0ZM-17.0 2.0V-275.0C-17.0 -418.0 -27.0 -614.0 -112.0 -759.0C-104.0 -761.0 -92.0 -770.0 -86.0 -775.0C-1.0 -628.0 12.0 -422.0 12.0 -274.0V2.0H-17.0ZM350.0 123.0V-20.0H381.0V123.0H350.0Z"/></g>
<g fill="red" transform="translate(1200 400) scale(0.1 -0.1)"><path d="M0.0 0.0V-125.0H766.0V0.0H0.0ZM-77.0 0.0V-297.0C-77.0 -442.0 -83.0 -645.0 -171.0 -780.0C-135.0 -794.0 -71.0 -832.0 -44.0 -855.0C51.0 -706.0 66.0 -462.0 66.0 -297.0V0.0H-77.0ZM270.0 85.0V-68.0H420.0V85.0H270.0Z"/></g>
<g fill="black" opacity=".8" transform="translate(1200 400) scale(0.1 -0.1)"><path d="M0.0 0.0V-127.0H766.0V0.0H0.0ZM-79.0 3.0V-300.0C-79.0 -442.0 -84.0 -640.0 -165.0 -772.0C-130.0 -788.0 -70.0 -829.0 -44.0 -853.0C49.0 -706.0 62.0 -462.0 62.0 -300.0V3.0H-79.0ZM270.0 94.0 271.0 -79.0H422.0V94.0H270.0Z"/></g>
<g fill="red" transform="translate(1300 400) scale(0.1 -0.1)"><path d="M0.0 0.0V-30.0H437.0V0.0H0.0ZM-368.0 194.0V-70.0C-368.0 -217.0 -378.0 -416.0 -471.0 -563.0C-464.0 -567.0 -452.0 -575.0 -447.0 -581.0C-352.0 -430.0 -338.0 -221.0 -338.0 -70.0V194.0H-368.0ZM0.0 320.0V179.0H29.0V320.0H0.0Z"/></g>
<g fill="black" opacity=".8" transform="translate(1300 400) scale(0.1 -0.1)"><path d="M0.0 0.0V-31.0H434.0V0.0H0.0ZM-364.0 197.0V-71.0C-364.0 -217.0 -376.0 -413.0 -468.0 -559.0C-461.0 -562.0 -449.0 -571.0 -444.0 -577.0C-348.0 -428.0 -334.0 -221.0 -334.0 -70.0V197.0H-364.0ZM3.0 324.0 5.0 183.0H48.0V324.0H3.0Z"/></g>
<g fill="red" transform="translate(1400 400) scale(0.1 -0.1)"><path d="M0.0 0.0V-124.0H415.0V0.0H0.0ZM-431.0 230.0V-65.0C-431.0 -209.0 -437.0 -411.0 -517.0 -546.0C-482.0 -560.0 -418.0 -597.0 -391.0 -620.0C-303.0 -471.0 -289.0 -228.0 -289.0 -65.0V230.0H-431.0ZM-74.0 327.0V138.0H78.0V327.0H-74.0Z"/></g>
<g fill="black" opacity=".8" transform="translate(1400 400) scale(0.1 -0.1)"><path d="M0.0 0.0V-132.0H415.0V0.0H0.0ZM-433.0 223.0V-65.0C-433.0 -208.0 -438.0 -411.0 -521.0 -548.0C-486.0 -563.0 -425.0 -602.0 -401.0 -625.0C-308.0 -474.0 -294.0 -228.0 -294.0 -64.0V223.0H-433.0ZM-81.0 325.0 -72.0 133.0H62.0V325.0H-81.0Z"/></g>
<g fill="red" transform="translate(1500 400) scale(0.1 -0.1)"><path d="M0.0 0.0V-29.0H799.0V0.0H0.0ZM-15.0 0.0V-301.0C-15.0 -446.0 -23.0 -645.0 -100.0 -790.0C-93.0 -793.0 -81.0 -800.0 -75.0 -806.0C3.0 -658.0 14.0 -450.0 14.0 -301.0V0.0H-15.0ZM370.0 98.0V-16.0H399.0V98.0H370.0Z"/></g>
<g fill="black" opacity=".8" transform="translate(1500 400) scale(0.1 -0.1)"><path d="M0.0 0.0V-30.0H801.0V0.0H0.0ZM-11.0 -3.0V-294.0C-11.0 -441.0 -20.0 -640.0 -101.0 -787.0C-92.0 -789.0 -80.0 -798.0 -75.0 -803.0C7.0 -654.0 19.0 -444.0 19.0 -294.0V-3.0H-11.0ZM367.0 98.0V-17.0H400.0V98.0H367.0Z"/></g>
<g fill="red" transform="translate(1600 400) scale(0.1 -0.1)"><path d="M0.0 0.0V-126.0H788.0V0.0H0.0ZM-68.0 0.0V-333.0C-68.0 -474.0 -74.0 -665.0 -158.0 -793.0C-126.0 -808.0 -66.0 -851.0 -42.0 -876.0C54.0 -733.0 70.0 -495.0 70.0 -333.0V0.0H-68.0ZM285.0 72.0V-77.0H437.0V72.0H285.0Z"/></g>
<g fill="black" opacity=".8" transform="translate(1600 400) scale(0.1 -0.1)"><path d="M0.0 0.0V-123.0H786.0V0.0H0.0ZM-76.0 -3.0V-331.0C-76.0 -473.0 -80.0 -670.0 -157.0 -802.0C-123.0 -817.0 -63.0 -857.0 -37.0 -881.0C51.0 -735.0 63.0 -492.0 63.0 -330.0V-3.0H-76.0ZM288.0 72.0 286.0 -75.0H437.0V72.0H288.0Z"/></g>
<g fill="red" transform="translate(100 500) scale(0.1 -0.1)"><path d="M0.0 0.0V-30.0H781.0V0.0H0.0ZM-14.0 0.0V-267.0C-14.0 -415.0 -24.0 -617.0 -114.0 -765.0C-106.0 -769.0 -94.0 -778.0 -89.0 -783.0C3.0 -631.0 16.0 -418.0 16.0 -267.0V0.0H-14.0ZM345.0 115.0V-13.0H374.0V115.0H345.0Z"/></g>
<g fill="black" opacity=".8" transform="translate(100 500) scale(0.1 -0.1)"><path d="M0.0 0.0V-29.0H785.0V0.0H0.0ZM-21.0 3.0V-276.0C-21.0 -420.0 -31.0 -617.0 -114.0 -762.0C-106.0 -764.0 -94.0 -773.0 -89.0 -778.0C-5.0 -631.0 7.0 -424.0 7.0 -276.0V3.0H-21.0ZM341.0 116.0 342.0 -11.0H368.0V116.0H341.0Z"/></g>
<g fill="red" transform="translate(200 500) scale(0.1 -0.1)"><path d="M0.0 0.0V-125.0H770.0V0.0H0.0ZM-93.0 0.0V-295.0C-93.0 -438.0 -98.0 -640.0 -176.0 -776.0C-141.0 -790.0 -77.0 -826.0 -50.0 -848.0C34.0 -699.0 48.0 -457.0 48.0 -295.0V0.0H-93.0ZM256.0 94.0V-73.0H403.0V94.0H256.0Z"/></g>
<g fill="black" opacity=".8" transform="translate(200 500) scale(0.1 -0.1)"><path d="M0.0 0.0V-125.0H770.0V0.0H0.0ZM-86.0 5.0V-296.0C-86.0 -439.0 -91.0 -639.0 -170.0 -773.0C-136.0 -788.0 -75.0 -828.0 -50.0 -852.0C40.0 -704.0 53.0 -458.0 53.0 -296.0V5.0H-86.0ZM257.0 91.0 258.0 -69.0H405.0V91.0H257.0Z"/></g>
<g fill="red" transform="translate(300 500) scale(0.1 -0.1)"><path d="M0.0 0.0V-29.0H808.0V0.0H0.0ZM-12.0 0.0V-305.0C-12.0 -449.0 -19.0 -645.0 -94.0 -790.0C-86.0 -793.0 -74.0 -801.0 -69.0 -807.0C7.0 -658.0 17.0 -452.0 17.0 -305.0V0.0H-12.0ZM378.0 98.0V-16.0H407.0V98.0H378.0Z"/></g>
<g fill="black" opacity=".8" transform="translate(300 500) scale(0.1 -0.1)"><path d="M0.0 0.0V-30.0H807.0V0.0H0.0ZM-10.0 -3.0V-295.0C-10.0 -440.0 -19.0 -639.0 -98.0 -786.0C-90.0 -787.0 -78.0 -796.0 -72.0 -802.0C8.0 -653.0 19.0 -444.0 19.0 -295.0V-3.0H-10.0ZM374.0 96.0 373.0 -14.0H405.0V96.0H374.0Z"/></g>
<g fill="red" transform="translate(400 500) scale(0.1 -0.1)"><path d="M0.0 0.0V-126.0H788.0V0.0H0.0ZM-75.0 0.0V-337.0C-75.0 -476.0 -80.0 -663.0 -154.0 -789.0C-122.0 -804.0 -62.0 -847.0 -37.0 -872.0C49.0 -731.0 63.0 -496.0 63.0 -337.0V0.0H-75.0ZM289.0 72.0V-77.0H441.0V72.0H289.0Z"/></g>
<g fill="black" opacity=".8" transform="translate(400 500) scale(0.1 -0.1)"><path d="M0.0 0.0V-122.0H792.0V0.0H0.0ZM-76.0 -3.0V-334.0C-76.0 -476.0 -80.0 -670.0 -156.0 -801.0C-122.0 -816.0 -62.0 -856.0 -37.0 -879.0C50.0 -735.0 62.0 -495.0 62.0 -333.0V-3.0H-76.0ZM295.0 70.0 292.0 -72.0H440.0V70.0H295.0Z"/></g>
<g fill="red" transform="translate(500 500) scale(0.1 -0.1)"><path d="M0.0 0.0V-29.0H799.0V0.0H0.0ZM-15.0 0.0V-301.0C-15.0 -446.0 -23.0 -645.0 -100.0 -790.0C-93.0 -793.0 -81.0 -800.0 -75.0 -806.0C3.0 -658.0 14.0 -450.0 14.0 -301.0V0.0H-15.0ZM370.0 98.0V-16.0H399.0V98.0H370.0Z"/></g>
<g fill="black" opacity=".8" transform="translate(500 500) scale(0.1 -0.1)"><path d="M0.0 0.0V-30.0H800.0V0.0H0.0ZM-11.0 -4.0V-294.0C-11.0 -441.0 -21.0 -641.0 -102.0 -790.0C-94.0 -792.0 -82.0 -800.0 -76.0 -805.0C6.0 -655.0 18.0 -445.0 18.0 -293.0V-4.0H-11.0ZM369.0 100.0V-13.0H400.0V100.0H369.0Z"/></g>
<g fill="red" transform="translate(600 500) scale(0.1 -0.1)"><path d="M0.0 0.0V-126.0H788.0V0.0H0.0ZM-68.0 0.0V-288.0C-68.0 -438.0 -74.0 -650.0 -158.0 -793.0C-126.0 -807.0 -65.0 -848.0 -40.0 -872.0C54.0 -714.0 70.0 -456.0 70.0 -288.0V0.0H-68.0ZM284.0 82.0V-67.0H436.0V82.0H284.0Z"/></g>
<g fill="black" opacity=".8" transform="translate(600 500) scale(0.1 -0.1)"><path d="M0.0 0.0V-124.0H787.0V0.0H0.0ZM-74.0 -2.0V-287.0C-74.0 -436.0 -78.0 -651.0 -158.0 -796.0C-124.0 -811.0 -64.0 -852.0 -38.0 -877.0C52.0 -717.0 66.0 -455.0 66.0 -287.0V-2.0H-74.0ZM286.0 79.0V-67.0H435.0V79.0H286.0Z"/></g>
<g fill="red" transform="translate(700 500) scale(0.1 -0.1)"><path d="M0.0 0.0V-29.0H777.0V0.0H0.0ZM-15.0 0.0V-269.0C-15.0 -418.0 -25.0 -623.0 -117.0 -773.0C-109.0 -776.0 -97.0 -785.0 -92.0 -791.0C2.0 -637.0 15.0 -422.0 15.0 -269.0V0.0H-15.0ZM344.0 100.0V-19.0H373.0V100.0H344.0Z"/></g>
<g fill="black" opacity=".8" transform="translate(700 500) scale(0.1 -0.1)"><path d="M0.0 0.0V-30.0H780.0V0.0H0.0ZM-18.0 3.0V-282.0C-18.0 -429.0 -28.0 -627.0 -110.0 -775.0C-102.0 -777.0 -90.0 -785.0 -85.0 -791.0C-1.0 -641.0 11.0 -432.0 11.0 -282.0V3.0H-18.0ZM341.0 105.0V-22.0H373.0V105.0H341.0Z"/></g>
<g fill="red" transform="translate(800 500) scale(0.1 -0.1)"><path d="M0.0 0.0V-120.0H766.0V0.0H0.0ZM-82.0 0.0V-303.0C-82.0 -450.0 -88.0 -658.0 -168.0 -797.0C-133.0 -810.0 -71.0 -847.0 -44.0 -869.0C44.0 -716.0 58.0 -469.0 58.0 -303.0V0.0H-82.0ZM261.0 77.0V-81.0H408.0V77.0H261.0Z"/></g>
<g fill="black" opacity=".8" transform="translate(800 500) scale(0.1 -0.1)"><path d="M0.0 0.0V-126.0H765.0V0.0H0.0ZM-82.0 5.0V-307.0C-82.0 -451.0 -87.0 -651.0 -166.0 -786.0C-132.0 -801.0 -71.0 -842.0 -46.0 -866.0C44.0 -717.0 57.0 -470.0 57.0 -306.0V5.0H-82.0ZM261.0 78.0V-81.0H409.0V78.0H261.0Z"/></g>
<g fill="red" transform="translate(900 500) scale(0.1 -0.1)"><path d="M0.0 0.0V-30.0H777.0V0.0H0.0ZM-15.0 0.0V-260.0C-15.0 -404.0 -25.0 -600.0 -118.0 -744.0C-111.0 -748.0 -99.0 -757.0 -94.0 -763.0C1.0 -615.0 15.0 -408.0 15.0 -260.0V0.0H-15.0ZM353.0 125.0V-21.0H382.0V125.0H353.0Z"/></g>
<g fill="black" opacity=".8" transform="translate(900 500) scale(0.1 -0.1)"><path d="M0.0 0.0V-30.0H781.0V0.0H0.0ZM-17.0 3.0V-272.0C-17.0 -414.0 -27.0 -606.0 -111.0 -749.0C-102.0 -751.0 -90.0 -760.0 -85.0 -766.0C-1.0 -621.0 12.0 -418.0 12.0 -272.0V3.0H-17.0ZM350.0 131.0V-15.0H381.0V131.0H350.0Z"/></g>
<g fill="red" transform="translate(1000 500) scale(0.1 -0.1)"><path d="M0.0 0.0V-125.0H770.0V0.0H0.0ZM-77.0 0.0V-359.0C-77.0 -494.0 -84.0 -666.0 -177.0 -780.0C-142.0 -796.0 -79.0 -838.0 -53.0 -862.0C50.0 -734.0 66.0 -516.0 66.0 -359.0V0.0H-77.0ZM272.0 90.0V-63.0H422.0V90.0H272.0Z"/></g>
<g fill="black" opacity=".8" transform="translate(1000 500) scale(0.1 -0.1)"><path d="M0.0 0.0V-126.0H767.0V0.0H0.0ZM-83.0 2.0V-363.0C-83.0 -494.0 -88.0 -662.0 -165.0 -774.0C-129.0 -791.0 -70.0 -829.0 -43.0 -853.0C45.0 -727.0 57.0 -514.0 57.0 -362.0V2.0H-83.0ZM272.0 95.0 270.0 -77.0H427.0V95.0H272.0Z"/></g>
<g fill="red" transform="translate(1100 500) scale(0.1 -0.1)"><path d="M0.0 0.0V-29.0H481.0V0.0H0.0ZM-201.0 339.0V33.0C-201.0 -112.0 -209.0 -310.0 -286.0 -455.0C-279.0 -458.0 -267.0 -465.0 -261.0 -471.0C-183.0 -323.0 -172.0 -116.0 -172.0 33.0V339.0H-201.0ZM184.0 430.0V324.0H213.0V430.0H184.0Z"/></g>
<g fill="black" opacity=".8" transform="translate(1100 500) scale(0.1 -0.1)"><path d="M0.0 0.0V-30.0H477.0V0.0H0.0ZM-197.0 333.0V37.0C-197.0 -108.0 -205.0 -306.0 -280.0 -452.0C-272.0 -454.0 -259.0 -463.0 -254.0 -468.0C-178.0 -320.0 -166.0 -111.0 -166.0 38.0V333.0H-197.0ZM182.0 431.0 180.0 327.0H224.0V431.0H182.0Z"/></g>
<g fill="red" transform="translate(1200 500) scale(0.1 -0.1)"><path d="M0.0 0.0V-118.0H437.0V0.0H0.0ZM-270.0 357.0V6.0C-270.0 -132.0 -276.0 -314.0 -355.0 -436.0C-324.0 -451.0 -267.0 -497.0 -244.0 -522.0C-151.0 -384.0 -135.0 -153.0 -135.0 5.0V357.0H-270.0ZM92.0 425.0V290.0H244.0V425.0H92.0Z"/></g>
<g fill="black" opacity=".8" transform="translate(1200 500) scale(0.1 -0.1)"><path d="M0.0 0.0V-124.0H440.0V0.0H0.0ZM-279.0 355.0V8.0C-279.0 -132.0 -284.0 -319.0 -359.0 -446.0C-325.0 -460.0 -266.0 -501.0 -242.0 -524.0C-156.0 -383.0 -143.0 -151.0 -143.0 8.0V355.0H-279.0ZM96.0 428.0 87.0 285.0H237.0V428.0H96.0Z"/></g>
<g fill="red" transform="translate(1300 500) scale(0.1 -0.1)"><path d="M0.0 0.0V-29.0H804.0V0.0H0.0ZM-15.0 0.0V-313.0C-15.0 -456.0 -22.0 -651.0 -97.0 -794.0C-89.0 -797.0 -77.0 -805.0 -72.0 -811.0C4.0 -664.0 14.0 -460.0 14.0 -313.0V0.0H-15.0ZM120.0 -263.0V-292.0H372.0V-263.0H120.0Z"/></g>
<g fill="black" opacity=".8" transform="translate(1300 500) scale(0.1 -0.1)"><path d="M0.0 0.0V-27.0H806.0V0.0H0.0ZM-9.0 0.0V-321.0C-9.0 -463.0 -15.0 -657.0 -79.0 -800.0C-72.0 -801.0 -60.0 -809.0 -55.0 -813.0C10.0 -669.0 18.0 -466.0 18.0 -321.0V0.0H-9.0ZM134.0 -258.0 133.0 -311.0H359.0V-258.0H134.0Z"/></g>
<g fill="red" transform="translate(1400 500) scale(0.1 -0.1)"><path d="M0.0 0.0V-120.0H788.0V0.0H0.0ZM-79.0 0.0V-303.0C-79.0 -449.0 -84.0 -657.0 -150.0 -797.0C-120.0 -812.0 -60.0 -857.0 -37.0 -882.0C42.0 -725.0 56.0 -467.0 56.0 -302.0V0.0H-79.0ZM147.0 -312.0V-409.0H305.0V-312.0H147.0Z"/></g>
<g fill="black" opacity=".8" transform="translate(1400 500) scale(0.1 -0.1)"><path d="M0.0 0.0V-108.0H780.0V0.0H0.0ZM-88.0 4.0V-304.0C-88.0 -448.0 -91.0 -657.0 -147.0 -797.0C-119.0 -811.0 -66.0 -849.0 -44.0 -872.0C24.0 -717.0 34.0 -462.0 34.0 -303.0V4.0H-88.0ZM133.0 -304.0 127.0 -413.0H327.0V-304.0H133.0Z"/></g>
<g fill="red" transform="translate(1500 500) scale(0.1 -0.1)"><path d="M0.0 0.0V-29.0H799.0V0.0H0.0ZM-15.0 0.0V-306.0C-15.0 -451.0 -23.0 -649.0 -100.0 -794.0C-93.0 -797.0 -81.0 -804.0 -75.0 -810.0C3.0 -662.0 14.0 -455.0 14.0 -306.0V0.0H-15.0ZM370.0 91.0V-15.0H399.0V91.0H370.0Z"/></g>
<g fill="black" opacity=".8" transform="translate(1500 500) scale(0.1 -0.1)"><path d="M0.0 0.0V-30.0H800.0V0.0H0.0ZM-12.0 -4.0V-298.0C-12.0 -444.0 -21.0 -645.0 -101.0 -794.0C-93.0 -795.0 -81.0 -804.0 -75.0 -809.0C5.0 -659.0 17.0 -448.0 17.0 -297.0V-4.0H-12.0ZM369.0 89.0V-13.0H403.0V89.0H369.0Z"/></g>
<g fill="red" transform="translate(1600 500) scale(0.1 -0.1)"><path d="M0.0 0.0V-120.0H788.0V0.0H0.0ZM-68.0 0.0V-288.0C-68.0 -437.0 -74.0 -650.0 -158.0 -793.0C-127.0 -807.0 -68.0 -850.0 -45.0 -874.0C50.0 -716.0 67.0 -456.0 67.0 -288.0V0.0H-68.0ZM287.0 69.0V-66.0H439.0V69.0H287.0Z"/></g>
<g fill="black" opacity=".8" transform="translate(1600 500) scale(0.1 -0.1)"><path d="M0.0 0.0V-122.0H786.0V0.0H0.0ZM-75.0 -2.0V-287.0C-75.0 -437.0 -80.0 -653.0 -157.0 -798.0C-124.0 -813.0 -64.0 -854.0 -39.0 -878.0C50.0 -718.0 63.0 -455.0 63.0 -286.0V-2.0H-75.0ZM288.0 71.0V-67.0H435.0V71.0H288.0Z"/></g>
<g fill="red" transform="translate(100 600) scale(0.1 -0.1)"><path d="M0.0 0.0V-29.0H804.0V0.0H0.0ZM-15.0 0.0V-313.0C-15.0 -456.0 -22.0 -651.0 -97.0 -794.0C-89.0 -797.0 -77.0 -805.0 -72.0 -811.0C4.0 -664.0 14.0 -460.0 14.0 -313.0V0.0H-15.0ZM374.0 91.0V-15.0H403.0V91.0H374.0Z"/></g>
<g fill="black" opacity=".8" transform="translate(100 600) scale(0.1 -0.1)"><path d="M0.0 0.0V-30.0H805.0V0.0H0.0ZM-16.0 -3.0V-300.0C-16.0 -446.0 -25.0 -647.0 -103.0 -796.0C-95.0 -797.0 -83.0 -806.0 -78.0 -811.0C1.0 -661.0 12.0 -450.0 12.0 -299.0V-3.0H-16.0ZM371.0 87.0V-5.0H402.0V87.0H371.0Z"/></g>
<g fill="red" transform="translate(200 600) scale(0.1 -0.1)"><path d="M0.0 0.0V-120.0H788.0V0.0H0.0ZM-84.0 0.0V-302.0C-84.0 -449.0 -89.0 -657.0 -155.0 -797.0C-126.0 -811.0 -67.0 -856.0 -44.0 -880.0C35.0 -723.0 49.0 -466.0 49.0 -302.0V0.0H-84.0ZM284.0 74.0V-61.0H436.0V74.0H284.0Z"/></g>
<g fill="black" opacity=".8" transform="translate(200 600) scale(0.1 -0.1)"><path d="M0.0 0.0V-120.0H790.0V0.0H0.0ZM-81.0 -2.0V-302.0C-81.0 -450.0 -85.0 -660.0 -161.0 -802.0C-128.0 -817.0 -69.0 -857.0 -44.0 -881.0C43.0 -725.0 56.0 -468.0 56.0 -301.0V-2.0H-81.0ZM289.0 69.0V-60.0H433.0V69.0H289.0Z"/></g>
<g fill="red" transform="translate(300 600) scale(0.1 -0.1)"><path d="M0.0 0.0V-29.0H790.0V0.0H0.0ZM-12.0 0.0V-269.0C-12.0 -418.0 -21.0 -623.0 -114.0 -773.0C-106.0 -776.0 -94.0 -785.0 -89.0 -790.0C5.0 -637.0 18.0 -422.0 18.0 -269.0V0.0H-12.0ZM357.0 108.0V-11.0H386.0V108.0H357.0Z"/></g>
<g fill="black" opacity=".8" transform="translate(300 600) scale(0.1 -0.1)"><path d="M0.0 0.0V-30.0H785.0V0.0H0.0ZM-22.0 6.0V-282.0C-22.0 -427.0 -32.0 -625.0 -113.0 -772.0C-104.0 -774.0 -92.0 -783.0 -87.0 -788.0C-5.0 -639.0 6.0 -431.0 6.0 -281.0V6.0H-22.0ZM350.0 108.0 349.0 -7.0H378.0V108.0H350.0Z"/></g>
<g fill="red" transform="translate(400 600) scale(0.1 -0.1)"><path d="M0.0 0.0V-121.0H757.0V0.0H0.0ZM-98.0 0.0V-307.0C-98.0 -452.0 -103.0 -656.0 -173.0 -793.0C-138.0 -806.0 -76.0 -841.0 -49.0 -863.0C28.0 -712.0 40.0 -470.0 40.0 -307.0V0.0H-98.0ZM264.0 85.0V-68.0H410.0V85.0H264.0Z"/></g>
<g fill="black" opacity=".8" transform="translate(400 600) scale(0.1 -0.1)"><path d="M0.0 0.0V-123.0H769.0V0.0H0.0ZM-88.0 7.0V-311.0C-88.0 -454.0 -93.0 -651.0 -170.0 -784.0C-135.0 -799.0 -76.0 -839.0 -50.0 -863.0C38.0 -716.0 50.0 -472.0 50.0 -310.0V7.0H-88.0ZM269.0 84.0 268.0 -65.0H413.0V84.0H269.0Z"/></g>
<g fill="red" transform="translate(500 600) scale(0.1 -0.1)"><path d="M0.0 0.0V-29.0H786.0V0.0H0.0ZM-12.0 0.0V-269.0C-12.0 -418.0 -22.0 -623.0 -114.0 -773.0C-106.0 -776.0 -94.0 -785.0 -89.0 -791.0C5.0 -637.0 18.0 -422.0 18.0 -269.0V0.0H-12.0ZM350.0 103.0V-16.0H379.0V103.0H350.0Z"/></g>
<g fill="black" opacity=".8" transform="translate(500 600) scale(0.1 -0.1)"><path d="M0.0 0.0V-30.0H790.0V0.0H0.0ZM-19.0 6.0V-284.0C-19.0 -430.0 -28.0 -628.0 -110.0 -775.0C-101.0 -777.0 -89.0 -786.0 -84.0 -792.0C-1.0 -643.0 11.0 -434.0 11.0 -284.0V6.0H-19.0ZM349.0 106.0V-20.0H381.0V106.0H349.0Z"/></g>
<g fill="red" transform="translate(600 600) scale(0.1 -0.1)"><path d="M0.0 0.0V-121.0H775.0V0.0H0.0ZM-87.0 0.0V-344.0C-87.0 -487.0 -93.0 -678.0 -175.0 -806.0C-141.0 -820.0 -80.0 -857.0 -54.0 -880.0C37.0 -739.0 51.0 -506.0 51.0 -345.0V0.0H-87.0ZM274.0 70.0V-83.0H420.0V70.0H274.0Z"/></g>
<g fill="black" opacity=".8" transform="translate(600 600) scale(0.1 -0.1)"><path d="M0.0 0.0V-125.0H774.0V0.0H0.0ZM-87.0 6.0V-350.0C-87.0 -488.0 -91.0 -672.0 -167.0 -795.0C-132.0 -811.0 -72.0 -850.0 -46.0 -874.0C41.0 -737.0 53.0 -508.0 53.0 -349.0V6.0H-87.0ZM273.0 74.0 269.0 -83.0H419.0V74.0H273.0Z"/></g>
<g fill="red" transform="translate(700 600) scale(0.1 -0.1)"><path d="M0.0 0.0V-29.0H786.0V0.0H0.0ZM-14.0 0.0V-306.0C-14.0 -452.0 -22.0 -650.0 -108.0 -794.0C-100.0 -797.0 -88.0 -805.0 -83.0 -810.0C4.0 -663.0 16.0 -456.0 16.0 -306.0V0.0H-14.0ZM73.0 -162.0V-191.0H753.0V-162.0H73.0Z"/></g>
<g fill="black" opacity=".8" transform="translate(700 600) scale(0.1 -0.1)"><path d="M0.0 0.0V-29.0H788.0V0.0H0.0ZM-11.0 -3.0V-297.0C-11.0 -446.0 -21.0 -645.0 -117.0 -793.0C-108.0 -795.0 -96.0 -804.0 -91.0 -808.0C5.0 -659.0 19.0 -450.0 19.0 -296.0V-3.0H-11.0ZM72.0 -165.0V-187.0H757.0V-165.0H72.0Z"/></g>
<g fill="red" transform="translate(800 600) scale(0.1 -0.1)"><path d="M0.0 0.0V-117.0H788.0V0.0H0.0ZM-68.0 0.0V-351.0C-68.0 -489.0 -74.0 -671.0 -153.0 -793.0C-122.0 -808.0 -65.0 -854.0 -42.0 -879.0C51.0 -741.0 67.0 -510.0 67.0 -352.0V0.0H-68.0ZM77.0 -176.0V-274.0H780.0V-176.0H77.0Z"/></g>
<g fill="black" opacity=".8" transform="translate(800 600) scale(0.1 -0.1)"><path d="M0.0 0.0V-122.0H786.0V0.0H0.0ZM-67.0 -2.0V-351.0C-67.0 -490.0 -75.0 -674.0 -160.0 -797.0C-127.0 -813.0 -68.0 -858.0 -44.0 -883.0C56.0 -745.0 72.0 -511.0 72.0 -351.0V-2.0H-67.0ZM80.0 -180.0 83.0 -268.0H774.0V-180.0H80.0Z"/></g>
<g fill="red" transform="translate(900 600) scale(0.1 -0.1)"><path d="M0.0 0.0V-29.0H813.0V0.0H0.0ZM-15.0 0.0V-315.0C-15.0 -458.0 -22.0 -652.0 -91.0 -794.0C-83.0 -797.0 -71.0 -805.0 -66.0 -811.0C4.0 -665.0 14.0 -461.0 14.0 -315.0V0.0H-15.0ZM242.0 -65.0V-312.0H271.0V-65.0H242.0Z"/></g>
<g fill="black" opacity=".8" transform="translate(900 600) scale(0.1 -0.1)"><path d="M0.0 0.0V-31.0H813.0V0.0H0.0ZM-14.0 -5.0V-299.0C-14.0 -445.0 -25.0 -643.0 -109.0 -789.0C-100.0 -791.0 -88.0 -801.0 -83.0 -806.0C2.0 -658.0 15.0 -449.0 15.0 -299.0V-5.0H-14.0ZM231.0 -73.0V-290.0H281.0V-73.0H231.0Z"/></g>
<g fill="red" transform="translate(1000 600) scale(0.1 -0.1)"><path d="M0.0 0.0V-120.0H788.0V0.0H0.0ZM-88.0 0.0V-308.0C-88.0 -453.0 -92.0 -658.0 -155.0 -797.0C-126.0 -811.0 -69.0 -855.0 -46.0 -879.0C30.0 -724.0 43.0 -471.0 43.0 -308.0V0.0H-88.0ZM186.0 -137.0V-398.0H306.0V-137.0H186.0Z"/></g>
<g fill="black" opacity=".8" transform="translate(1000 600) scale(0.1 -0.1)"><path d="M0.0 0.0V-134.0H793.0V0.0H0.0ZM-85.0 -4.0V-306.0C-85.0 -454.0 -90.0 -663.0 -168.0 -804.0C-133.0 -820.0 -70.0 -864.0 -43.0 -889.0C47.0 -733.0 60.0 -474.0 60.0 -305.0V-4.0H-85.0ZM201.0 -146.0 200.0 -393.0H287.0V-146.0H201.0Z"/></g>
<g fill="red" transform="translate(1100 600) scale(0.1 -0.1)"><path d="M0.0 0.0V-29.0H790.0V0.0H0.0ZM-14.0 0.0V-296.0C-14.0 -438.0 -22.0 -629.0 -106.0 -769.0C-99.0 -772.0 -87.0 -781.0 -81.0 -787.0C4.0 -643.0 16.0 -442.0 16.0 -296.0V0.0H-14.0ZM360.0 98.0V-13.0H389.0V98.0H360.0Z"/></g>
<g fill="black" opacity=".8" transform="translate(1100 600) scale(0.1 -0.1)"><path d="M0.0 0.0V-29.0H795.0V0.0H0.0ZM-12.0 -3.0V-290.0C-12.0 -435.0 -21.0 -632.0 -101.0 -778.0C-93.0 -780.0 -81.0 -789.0 -76.0 -794.0C5.0 -646.0 16.0 -438.0 16.0 -289.0V-3.0H-12.0ZM364.0 99.0V-6.0H395.0V99.0H364.0Z"/></g>
<g fill="red" transform="translate(1200 600) scale(0.1 -0.1)"><path d="M0.0 0.0V-108.0H788.0V0.0H0.0ZM-72.0 0.0V-285.0C-72.0 -434.0 -77.0 -649.0 -153.0 -793.0C-120.0 -807.0 -60.0 -847.0 -35.0 -871.0C50.0 -711.0 65.0 -452.0 65.0 -285.0V0.0H-72.0ZM284.0 79.0V-52.0H432.0V79.0H284.0Z"/></g>
<g fill="black" opacity=".8" transform="translate(1200 600) scale(0.1 -0.1)"><path d="M0.0 0.0V-121.0H781.0V0.0H0.0ZM-75.0 -2.0V-289.0C-75.0 -435.0 -80.0 -644.0 -157.0 -785.0C-124.0 -800.0 -65.0 -840.0 -40.0 -864.0C49.0 -708.0 62.0 -453.0 62.0 -288.0V-2.0H-75.0ZM281.0 79.0 282.0 -60.0H429.0V79.0H281.0Z"/></g>
<g fill="red" transform="translate(1300 600) scale(0.1 -0.1)"><path d="M0.0 0.0V-29.0H816.0V0.0H0.0ZM-16.0 0.0V-308.0C-16.0 -452.0 -22.0 -651.0 -90.0 -798.0C-82.0 -801.0 -70.0 -810.0 -65.0 -816.0C4.0 -665.0 13.0 -456.0 13.0 -308.0V0.0H-16.0ZM382.0 85.0V-17.0H411.0V85.0H382.0Z"/></g>
<g fill="black" opacity=".8" transform="translate(1300 600) scale(0.1 -0.1)"><path d="M0.0 0.0V-30.0H812.0V0.0H0.0ZM-17.0 -0.0V-301.0C-17.0 -449.0 -25.0 -651.0 -102.0 -800.0C-94.0 -802.0 -82.0 -811.0 -77.0 -816.0C1.0 -664.0 12.0 -453.0 12.0 -301.0V-0.0H-17.0ZM374.0 80.0V-9.0H406.0V80.0H374.0Z"/></g>
<g fill="red" transform="translate(1400 600) scale(0.1 -0.1)"><path d="M0.0 0.0V-117.0H788.0V0.0H0.0ZM-85.0 0.0V-292.0C-85.0 -442.0 -90.0 -659.0 -156.0 -806.0C-128.0 -819.0 -70.0 -864.0 -48.0 -888.0C31.0 -724.0 44.0 -459.0 44.0 -292.0V0.0H-85.0ZM284.0 66.0V-69.0H436.0V66.0H284.0Z"/></g>
<g fill="black" opacity=".8" transform="translate(1400 600) scale(0.1 -0.1)"><path d="M0.0 0.0V-120.0H797.0V0.0H0.0ZM-82.0 2.0V-294.0C-82.0 -444.0 -86.0 -660.0 -162.0 -805.0C-129.0 -820.0 -69.0 -861.0 -44.0 -885.0C42.0 -724.0 55.0 -462.0 55.0 -293.0V2.0H-82.0ZM294.0 62.0 293.0 -64.0H434.0V62.0H294.0Z"/></g>
<g fill="red" transform="translate(1500 600) scale(0.1 -0.1)"><path d="M0.0 0.0V-29.0H799.0V0.0H0.0ZM-15.0 0.0V-265.0C-15.0 -407.0 -24.0 -601.0 -104.0 -744.0C-97.0 -748.0 -84.0 -755.0 -79.0 -761.0C2.0 -614.0 14.0 -410.0 14.0 -265.0V0.0H-15.0ZM366.0 142.0V-17.0H395.0V142.0H366.0Z"/></g>
<g fill="black" opacity=".8" transform="translate(1500 600) scale(0.1 -0.1)"><path d="M0.0 0.0V-30.0H799.0V0.0H0.0ZM-11.0 1.0V-266.0C-11.0 -409.0 -22.0 -601.0 -109.0 -745.0C-100.0 -747.0 -88.0 -756.0 -83.0 -761.0C4.0 -616.0 18.0 -412.0 18.0 -266.0V1.0H-11.0ZM367.0 141.0 368.0 -21.0H395.0V141.0H367.0Z"/></g>
<g fill="red" transform="translate(1600 600) scale(0.1 -0.1)"><path d="M0.0 0.0V-138.0H788.0V0.0H0.0ZM-68.0 0.0V-249.0C-68.0 -396.0 -74.0 -611.0 -158.0 -755.0C-124.0 -770.0 -59.0 -813.0 -32.0 -837.0C61.0 -677.0 78.0 -416.0 78.0 -249.0V0.0H-68.0ZM284.0 110.0V-79.0H436.0V110.0H284.0Z"/></g>
<g fill="black" opacity=".8" transform="translate(1600 600) scale(0.1 -0.1)"><path d="M0.0 0.0V-129.0H788.0V0.0H0.0ZM-69.0 2.0V-251.0C-69.0 -397.0 -74.0 -610.0 -160.0 -753.0C-126.0 -768.0 -63.0 -811.0 -37.0 -835.0C60.0 -677.0 75.0 -417.0 75.0 -250.0V2.0H-69.0ZM281.0 112.0 286.0 -77.0H437.0V112.0H281.0Z"/></g>
<g fill="red" transform="translate(100 700) scale(0.1 -0.1)"><path d="M0.0 0.0V-30.0H570.0V0.0H0.0ZM-12.0 0.0V-264.0C-12.0 -412.0 -22.0 -615.0 -112.0 -765.0C-104.0 -769.0 -94.0 -780.0 -89.0 -785.0C4.0 -630.0 17.0 -416.0 17.0 -264.0V0.0H-12.0ZM252.0 115.0V-13.0H282.0V115.0H252.0Z"/></g>
<g fill="black" opacity=".8" transform="translate(100 700) scale(0.1 -0.1)"><path d="M0.0 0.0V-29.0H567.0V0.0H0.0ZM-10.0 -2.0V-270.0C-10.0 -416.0 -21.0 -616.0 -105.0 -764.0C-97.0 -766.0 -85.0 -775.0 -80.0 -779.0C6.0 -629.0 18.0 -420.0 18.0 -269.0V-2.0H-10.0ZM255.0 112.0 253.0 -5.0H284.0V112.0H255.0Z"/></g>
<g fill="red" transform="translate(200 700) scale(0.1 -0.1)"><path d="M0.0 0.0V-121.0H554.0V0.0H0.0ZM-57.0 0.0V-262.0C-57.0 -406.0 -62.0 -613.0 -132.0 -755.0C-106.0 -770.0 -50.0 -820.0 -30.0 -846.0C55.0 -686.0 71.0 -424.0 71.0 -262.0V0.0H-57.0ZM186.0 96.0V-35.0H325.0V96.0H186.0Z"/></g>
<g fill="black" opacity=".8" transform="translate(200 700) scale(0.1 -0.1)"><path d="M0.0 0.0V-124.0H555.0V0.0H0.0ZM-61.0 2.0V-261.0C-61.0 -407.0 -66.0 -618.0 -144.0 -762.0C-113.0 -776.0 -56.0 -816.0 -33.0 -839.0C56.0 -682.0 70.0 -425.0 70.0 -261.0V2.0H-61.0ZM185.0 102.0 180.0 -46.0H325.0V102.0H185.0Z"/></g>
<g fill="red" transform="translate(300 700) scale(0.1 -0.1)"><path d="M0.0 0.0V-29.0H530.0V0.0H0.0ZM-13.0 0.0V-223.0C-13.0 -366.0 -26.0 -558.0 -131.0 -699.0C-124.0 -703.0 -112.0 -710.0 -107.0 -716.0C0.0 -571.0 17.0 -369.0 17.0 -223.0V0.0H-13.0ZM245.0 178.0V-21.0H274.0V178.0H245.0Z"/></g>
<g fill="black" opacity=".8" transform="translate(300 700) scale(0.1 -0.1)"><path d="M0.0 0.0V-29.0H529.0V0.0H0.0ZM-19.0 2.0V-232.0C-19.0 -372.0 -32.0 -561.0 -125.0 -703.0C-118.0 -705.0 -106.0 -714.0 -101.0 -719.0C-6.0 -576.0 9.0 -375.0 9.0 -231.0V2.0H-19.0ZM237.0 180.0V-12.0H260.0V180.0H237.0Z"/></g>
<g fill="red" transform="translate(400 700) scale(0.1 -0.1)"><path d="M0.0 0.0V-131.0H518.0V0.0H0.0ZM-62.0 0.0V-234.0C-62.0 -375.0 -70.0 -577.0 -167.0 -713.0C-135.0 -728.0 -75.0 -769.0 -50.0 -793.0C57.0 -642.0 76.0 -396.0 76.0 -235.0V0.0H-62.0ZM161.0 154.0V-44.0H305.0V154.0H161.0Z"/></g>
<g fill="black" opacity=".8" transform="translate(400 700) scale(0.1 -0.1)"><path d="M0.0 0.0V-132.0H523.0V0.0H0.0ZM-63.0 5.0V-237.0C-63.0 -376.0 -69.0 -573.0 -156.0 -707.0C-123.0 -722.0 -64.0 -763.0 -40.0 -786.0C59.0 -639.0 74.0 -396.0 74.0 -237.0V5.0H-63.0ZM166.0 157.0 165.0 -54.0H318.0V157.0H166.0Z"/></g>
<g fill="red" transform="translate(500 700) scale(0.1 -0.1)"><path d="M0.0 0.0V-30.0H548.0V0.0H0.0ZM-14.0 0.0V-227.0C-14.0 -381.0 -22.0 -601.0 -98.0 -765.0C-90.0 -768.0 -77.0 -775.0 -72.0 -781.0C4.0 -614.0 15.0 -383.0 15.0 -227.0V0.0H-14.0ZM252.0 123.0V-18.0H282.0V123.0H252.0Z"/></g>
<g fill="black" opacity=".8" transform="translate(500 700) scale(0.1 -0.1)"><path d="M0.0 0.0V-30.0H549.0V0.0H0.0ZM-18.0 10.0V-259.0C-18.0 -406.0 -29.0 -606.0 -113.0 -755.0C-105.0 -757.0 -93.0 -766.0 -87.0 -771.0C-2.0 -620.0 11.0 -410.0 11.0 -259.0V10.0H-18.0ZM245.0 123.0 244.0 -7.0H270.0V123.0H245.0Z"/></g>
<g fill="red" transform="translate(600 700) scale(0.1 -0.1)"><path d="M0.0 0.0V-123.0H532.0V0.0H0.0ZM-81.0 0.0V-262.0C-81.0 -407.0 -86.0 -619.0 -154.0 -764.0C-124.0 -777.0 -65.0 -817.0 -41.0 -840.0C37.0 -680.0 50.0 -425.0 50.0 -262.0V0.0H-81.0ZM173.0 110.0V-48.0H307.0V110.0H173.0Z"/></g>
<g fill="black" opacity=".8" transform="translate(600 700) scale(0.1 -0.1)"><path d="M0.0 0.0V-126.0H537.0V0.0H0.0ZM-70.0 14.0V-266.0C-70.0 -410.0 -75.0 -616.0 -153.0 -756.0C-121.0 -770.0 -64.0 -810.0 -40.0 -833.0C49.0 -680.0 62.0 -428.0 62.0 -265.0V14.0H-70.0ZM180.0 108.0 173.0 -50.0H312.0V108.0H180.0Z"/></g>
<g fill="red" transform="translate(700 700) scale(0.1 -0.1)"><path d="M0.0 0.0V-29.0H534.0V0.0H0.0ZM-25.0 0.0V-266.0C-25.0 -408.0 -35.0 -602.0 -121.0 -744.0C-113.0 -748.0 -101.0 -756.0 -96.0 -761.0C-8.0 -615.0 5.0 -412.0 5.0 -266.0V0.0H-25.0ZM237.0 135.0V-15.0H266.0V135.0H237.0Z"/></g>
<g fill="black" opacity=".8" transform="translate(700 700) scale(0.1 -0.1)"><path d="M0.0 0.0V-30.0H533.0V0.0H0.0ZM-25.0 -0.0V-260.0C-25.0 -405.0 -37.0 -602.0 -125.0 -749.0C-117.0 -752.0 -105.0 -761.0 -100.0 -766.0C-10.0 -617.0 4.0 -409.0 4.0 -259.0V-0.0H-25.0ZM232.0 135.0 231.0 -24.0H261.0V135.0H232.0Z"/></g>
<g fill="red" transform="translate(800 700) scale(0.1 -0.1)"><path d="M0.0 0.0V-138.0H518.0V0.0H0.0ZM-78.0 0.0V-310.0C-78.0 -448.0 -84.0 -634.0 -168.0 -759.0C-136.0 -775.0 -74.0 -819.0 -49.0 -845.0C48.0 -704.0 64.0 -469.0 64.0 -310.0V0.0H-78.0ZM165.0 110.0V-79.0H309.0V110.0H165.0Z"/></g>
<g fill="black" opacity=".8" transform="translate(800 700) scale(0.1 -0.1)"><path d="M0.0 0.0V-130.0H524.0V0.0H0.0ZM-76.0 2.0V-313.0C-76.0 -450.0 -81.0 -635.0 -161.0 -760.0C-127.0 -776.0 -70.0 -815.0 -45.0 -838.0C46.0 -700.0 59.0 -469.0 59.0 -313.0V2.0H-76.0ZM171.0 111.0 164.0 -71.0H312.0V111.0H171.0Z"/></g>
<g fill="red" transform="translate(900 700) scale(0.1 -0.1)"><path d="M0.0 0.0V-29.0H504.0V0.0H0.0ZM-14.0 0.0V-243.0C-14.0 -392.0 -30.0 -588.0 -158.0 -732.0C-152.0 -736.0 -141.0 -746.0 -136.0 -751.0C-5.0 -603.0 15.0 -397.0 15.0 -243.0V0.0H-14.0ZM211.0 149.0V-18.0H240.0V149.0H211.0Z"/></g>
<g fill="black" opacity=".8" transform="translate(900 700) scale(0.1 -0.1)"><path d="M0.0 0.0V-30.0H501.0V0.0H0.0ZM-30.0 -2.0V-246.0C-30.0 -391.0 -43.0 -585.0 -136.0 -731.0C-128.0 -734.0 -116.0 -742.0 -111.0 -747.0C-16.0 -600.0 -2.0 -394.0 -2.0 -246.0V-2.0H-30.0ZM209.0 154.0 208.0 -21.0H240.0V154.0H209.0Z"/></g>
<g fill="red" transform="translate(1000 700) scale(0.1 -0.1)"><path d="M0.0 0.0V-131.0H487.0V0.0H0.0ZM-62.0 0.0V-250.0C-62.0 -393.0 -72.0 -589.0 -194.0 -722.0C-164.0 -737.0 -108.0 -782.0 -86.0 -807.0C49.0 -661.0 72.0 -416.0 72.0 -251.0V0.0H-62.0ZM147.0 129.0V-56.0H288.0V129.0H147.0Z"/></g>
<g fill="black" opacity=".8" transform="translate(1000 700) scale(0.1 -0.1)"><path d="M0.0 0.0V-132.0H494.0V0.0H0.0ZM-74.0 2.0V-249.0C-74.0 -391.0 -80.0 -594.0 -165.0 -733.0C-133.0 -747.0 -74.0 -788.0 -50.0 -812.0C47.0 -660.0 62.0 -410.0 62.0 -249.0V2.0H-74.0ZM142.0 136.0 139.0 -63.0H293.0V136.0H142.0Z"/></g>
<g fill="red" transform="translate(1100 700) scale(0.1 -0.1)"><path d="M0.0 0.0V-30.0H481.0V0.0H0.0ZM-17.0 0.0V-240.0C-17.0 -382.0 -28.0 -574.0 -119.0 -716.0C-111.0 -720.0 -100.0 -729.0 -95.0 -736.0C-1.0 -588.0 13.0 -385.0 13.0 -240.0V0.0H-17.0ZM219.0 170.0V-11.0H249.0V170.0H219.0Z"/></g>
<g fill="black" opacity=".8" transform="translate(1100 700) scale(0.1 -0.1)"><path d="M0.0 0.0V-30.0H488.0V0.0H0.0ZM-14.0 -3.0V-238.0C-14.0 -380.0 -27.0 -572.0 -120.0 -715.0C-112.0 -718.0 -101.0 -726.0 -95.0 -731.0C-0.0 -586.0 15.0 -383.0 15.0 -237.0V-3.0H-14.0ZM216.0 173.0 215.0 -12.0H241.0V173.0H216.0Z"/></g>
<g fill="red" transform="translate(1200 700) scale(0.1 -0.1)"><path d="M0.0 0.0V-137.0H487.0V0.0H0.0ZM-56.0 0.0V-252.0C-56.0 -390.0 -62.0 -585.0 -144.0 -717.0C-111.0 -731.0 -51.0 -769.0 -26.0 -792.0C65.0 -646.0 80.0 -410.0 80.0 -253.0V0.0H-56.0ZM143.0 158.0V-58.0H292.0V158.0H143.0Z"/></g>
<g fill="black" opacity=".8" transform="translate(1200 700) scale(0.1 -0.1)"><path d="M0.0 0.0V-133.0H482.0V0.0H0.0ZM-56.0 1.0V-251.0C-56.0 -390.0 -62.0 -586.0 -148.0 -719.0C-115.0 -734.0 -57.0 -774.0 -33.0 -797.0C65.0 -651.0 79.0 -409.0 79.0 -251.0V1.0H-56.0ZM147.0 152.0 144.0 -52.0H300.0V152.0H147.0Z"/></g>
<g fill="red" transform="translate(1300 700) scale(0.1 -0.1)"><path d="M0.0 0.0V-29.0H799.0V0.0H0.0ZM-15.0 0.0V-310.0C-15.0 -456.0 -23.0 -656.0 -100.0 -802.0C-93.0 -805.0 -80.0 -813.0 -75.0 -818.0C3.0 -669.0 14.0 -460.0 14.0 -310.0V0.0H-15.0ZM370.0 85.0V-17.0H399.0V85.0H370.0Z"/></g>
<g fill="black" opacity=".8" transform="translate(1300 700) scale(0.1 -0.1)"><path d="M0.0 0.0V-30.0H801.0V0.0H0.0ZM-13.0 -4.0V-302.0C-13.0 -450.0 -22.0 -652.0 -101.0 -802.0C-93.0 -804.0 -81.0 -813.0 -75.0 -817.0C5.0 -666.0 16.0 -453.0 16.0 -301.0V-4.0H-13.0ZM368.0 83.0V-14.0H402.0V83.0H368.0Z"/></g>
<g fill="red" transform="translate(1400 700) scale(0.1 -0.1)"><path d="M0.0 0.0V-117.0H788.0V0.0H0.0ZM-70.0 0.0V-291.0C-70.0 -442.0 -76.0 -657.0 -158.0 -801.0C-128.0 -816.0 -70.0 -859.0 -47.0 -884.0C47.0 -723.0 63.0 -460.0 63.0 -291.0V0.0H-70.0ZM284.0 66.0V-69.0H436.0V66.0H284.0Z"/></g>
<g fill="black" opacity=".8" transform="translate(1400 700) scale(0.1 -0.1)"><path d="M0.0 0.0V-122.0H786.0V0.0H0.0ZM-77.0 -2.0V-291.0C-77.0 -441.0 -81.0 -659.0 -159.0 -806.0C-125.0 -821.0 -65.0 -862.0 -40.0 -886.0C48.0 -725.0 61.0 -459.0 61.0 -290.0V-2.0H-77.0ZM287.0 66.0V-68.0H432.0V66.0H287.0Z"/></g>
<g fill="red" transform="translate(1500 700) scale(0.1 -0.1)"><path d="M0.0 0.0V-30.0H516.0V0.0H0.0ZM-18.0 0.0V-290.0C-18.0 -429.0 -24.0 -621.0 -88.0 -761.0C-81.0 -764.0 -68.0 -771.0 -62.0 -776.0C3.0 -633.0 11.0 -432.0 11.0 -290.0V0.0H-18.0ZM218.0 117.0V-15.0H248.0V117.0H218.0Z"/></g>
<g fill="black" opacity=".8" transform="translate(1500 700) scale(0.1 -0.1)"><path d="M0.0 0.0V-30.0H519.0V0.0H0.0ZM-3.0 -6.0V-272.0C-3.0 -419.0 -14.0 -620.0 -99.0 -770.0C-92.0 -772.0 -80.0 -781.0 -74.0 -785.0C13.0 -634.0 26.0 -422.0 26.0 -271.0V-6.0H-3.0ZM226.0 109.0 224.0 -20.0H252.0V109.0H226.0Z"/></g>
<g fill="red" transform="translate(1600 700) scale(0.1 -0.1)"><path d="M0.0 0.0V-133.0H514.0V0.0H0.0ZM-53.0 0.0V-291.0C-53.0 -435.0 -57.0 -643.0 -113.0 -785.0C-81.0 -796.0 -23.0 -830.0 2.0 -851.0C65.0 -696.0 75.0 -451.0 75.0 -291.0V0.0H-53.0ZM160.0 93.0V-69.0H303.0V93.0H160.0Z"/></g>
<g fill="black" opacity=".8" transform="translate(1600 700) scale(0.1 -0.1)"><path d="M0.0 0.0V-127.0H508.0V0.0H0.0ZM-54.0 -3.0V-296.0C-54.0 -437.0 -59.0 -636.0 -136.0 -772.0C-104.0 -786.0 -48.0 -825.0 -24.0 -849.0C64.0 -700.0 77.0 -455.0 77.0 -295.0V-3.0H-54.0ZM162.0 94.0 153.0 -62.0H299.0V94.0H162.0Z"/></g>
<g fill="red" transform="translate(100 800) scale(0.1 -0.1)"><path d="M0.0 0.0V-29.0H869.0V0.0H0.0ZM53.0 -158.0V-398.0C53.0 -512.0 44.0 -668.0 -27.0 -783.0C-19.0 -786.0 -8.0 -795.0 -3.0 -802.0C70.0 -683.0 82.0 -517.0 82.0 -398.0V-158.0H53.0ZM584.0 94.0V-105.0H613.0V94.0H584.0Z"/></g>
<g fill="black" opacity=".8" transform="translate(100 800) scale(0.1 -0.1)"><path d="M0.0 0.0V-29.0H870.0V0.0H0.0ZM63.0 -161.0V-389.0C63.0 -506.0 51.0 -664.0 -27.0 -783.0C-18.0 -784.0 -8.0 -794.0 -3.0 -800.0C76.0 -679.0 89.0 -510.0 89.0 -388.0V-161.0H63.0ZM595.0 92.0V-108.0H614.0V92.0H595.0Z"/></g>
<g fill="red" transform="translate(200 800) scale(0.1 -0.1)"><path d="M0.0 0.0V-108.0H896.0V0.0H0.0ZM41.0 -174.0V-450.0C41.0 -566.0 36.0 -717.0 -38.0 -820.0C-7.0 -836.0 53.0 -882.0 76.0 -906.0C164.0 -788.0 179.0 -590.0 179.0 -451.0V-174.0H41.0ZM548.0 45.0V-153.0H690.0V45.0H548.0Z"/></g>
<g fill="black" opacity=".8" transform="translate(200 800) scale(0.1 -0.1)"><path d="M0.0 0.0V-111.0H890.0V0.0H0.0ZM37.0 -178.0V-449.0C37.0 -567.0 31.0 -723.0 -52.0 -828.0C-18.0 -843.0 39.0 -883.0 65.0 -906.0C160.0 -788.0 173.0 -589.0 173.0 -449.0V-178.0H37.0ZM541.0 45.0V-151.0H692.0V45.0H541.0Z"/></g>
<g fill="red" transform="translate(300 800) scale(0.1 -0.1)"><path d="M0.0 0.0V-29.0H393.0V0.0H0.0ZM-457.0 316.0V3.0C-457.0 -121.0 -462.0 -289.0 -518.0 -412.0C-510.0 -415.0 -498.0 -424.0 -493.0 -431.0C-435.0 -303.0 -427.0 -125.0 -427.0 3.0V316.0H-457.0ZM4.0 233.0V203.0H313.0V233.0H4.0Z"/></g>
<g fill="black" opacity=".8" transform="translate(300 800) scale(0.1 -0.1)"><path d="M0.0 0.0V-29.0H394.0V0.0H0.0ZM-458.0 313.0V5.0C-458.0 -122.0 -465.0 -290.0 -524.0 -416.0C-515.0 -418.0 -504.0 -427.0 -499.0 -432.0C-438.0 -305.0 -428.0 -125.0 -428.0 6.0V313.0H-458.0ZM3.0 228.0 1.0 199.0H294.0V228.0H3.0Z"/></g>
<g fill="red" transform="translate(400 800) scale(0.1 -0.1)"><path d="M0.0 0.0V-103.0H379.0V0.0H0.0ZM-527.0 330.0V-11.0C-527.0 -137.0 -531.0 -303.0 -585.0 -417.0C-559.0 -429.0 -509.0 -467.0 -490.0 -488.0C-424.0 -360.0 -413.0 -154.0 -413.0 -11.0V330.0H-527.0ZM5.0 228.0V141.0H244.0V228.0H5.0Z"/></g>
<g fill="black" opacity=".8" transform="translate(400 800) scale(0.1 -0.1)"><path d="M0.0 0.0V-93.0H382.0V0.0H0.0ZM-525.0 340.0V-15.0C-525.0 -139.0 -529.0 -302.0 -588.0 -412.0C-559.0 -425.0 -507.0 -462.0 -487.0 -483.0C-418.0 -359.0 -408.0 -156.0 -408.0 -13.0V340.0H-525.0ZM10.0 230.0 4.0 146.0H260.0V230.0H10.0Z"/></g>
<g fill="red" transform="translate(500 800) scale(0.1 -0.1)"><path d="M0.0 0.0V-30.0H799.0V0.0H0.0ZM-15.0 0.0V-311.0C-15.0 -458.0 -23.0 -659.0 -100.0 -806.0C-93.0 -810.0 -80.0 -817.0 -75.0 -823.0C3.0 -672.0 14.0 -462.0 14.0 -311.0V0.0H-15.0ZM370.0 80.0V-17.0H399.0V80.0H370.0Z"/></g>
<g fill="black" opacity=".8" transform="translate(500 800) scale(0.1 -0.1)"><path d="M0.0 0.0V-30.0H801.0V0.0H0.0ZM-13.0 -4.0V-304.0C-13.0 -452.0 -22.0 -655.0 -101.0 -806.0C-93.0 -808.0 -81.0 -816.0 -75.0 -821.0C5.0 -669.0 16.0 -456.0 16.0 -303.0V-4.0H-13.0ZM367.0 78.0V-16.0H403.0V78.0H367.0Z"/></g>
<g fill="red" transform="translate(600 800) scale(0.1 -0.1)"><path d="M0.0 0.0V-110.0H788.0V0.0H0.0ZM-70.0 0.0V-292.0C-70.0 -444.0 -76.0 -660.0 -158.0 -806.0C-129.0 -820.0 -71.0 -863.0 -48.0 -887.0C46.0 -725.0 62.0 -461.0 62.0 -292.0V0.0H-70.0ZM284.0 61.0V-74.0H436.0V61.0H284.0Z"/></g>
<g fill="black" opacity=".8" transform="translate(600 800) scale(0.1 -0.1)"><path d="M0.0 0.0V-121.0H786.0V0.0H0.0ZM-77.0 -2.0V-292.0C-77.0 -443.0 -82.0 -662.0 -159.0 -810.0C-125.0 -825.0 -66.0 -866.0 -40.0 -890.0C47.0 -727.0 61.0 -461.0 61.0 -291.0V-2.0H-77.0ZM288.0 61.0 287.0 -71.0H432.0V61.0H288.0Z"/></g>
<g fill="red" transform="translate(700 800) scale(0.1 -0.1)"><path d="M0.0 0.0V-30.0H799.0V0.0H0.0ZM-15.0 0.0V-310.0C-15.0 -456.0 -23.0 -656.0 -100.0 -802.0C-93.0 -805.0 -80.0 -814.0 -75.0 -818.0C3.0 -669.0 14.0 -460.0 14.0 -310.0V0.0H-15.0ZM344.0 -191.0V-221.0H737.0V-191.0H344.0Z"/></g>
<g fill="black" opacity=".8" transform="translate(700 800) scale(0.1 -0.1)"><path d="M0.0 0.0V-31.0H794.0V0.0H0.0ZM-23.0 7.0V-334.0C-23.0 -473.0 -30.0 -663.0 -90.0 -802.0C-81.0 -804.0 -68.0 -813.0 -62.0 -817.0C-2.0 -677.0 7.0 -477.0 7.0 -333.0V7.0H-23.0ZM334.0 -182.0 331.0 -214.0H743.0V-182.0H334.0Z"/></g>
<g fill="red" transform="translate(800 800) scale(0.1 -0.1)"><path d="M0.0 0.0V-90.0H788.0V0.0H0.0ZM-70.0 0.0V-297.0C-70.0 -451.0 -76.0 -670.0 -156.0 -818.0C-126.0 -832.0 -68.0 -876.0 -44.0 -900.0C48.0 -736.0 63.0 -468.0 63.0 -297.0V0.0H-70.0ZM370.0 -218.0V-271.0H735.0V-218.0H370.0Z"/></g>
<g fill="black" opacity=".8" transform="translate(800 800) scale(0.1 -0.1)"><path d="M0.0 0.0V-97.0H798.0V0.0H0.0ZM-71.0 4.0V-301.0C-71.0 -450.0 -75.0 -664.0 -141.0 -809.0C-113.0 -823.0 -58.0 -869.0 -36.0 -894.0C45.0 -732.0 58.0 -467.0 58.0 -301.0V4.0H-71.0ZM379.0 -213.0 365.0 -284.0H731.0V-213.0H379.0Z"/></g>
<g fill="red" transform="translate(900 800) scale(0.1 -0.1)"><path d="M0.0 0.0V-29.0H795.0V0.0H0.0ZM-17.0 0.0V-278.0C-17.0 -431.0 -24.0 -642.0 -107.0 -798.0C-100.0 -801.0 -87.0 -809.0 -82.0 -815.0C2.0 -656.0 13.0 -434.0 13.0 -278.0V0.0H-17.0ZM355.0 87.0V-15.0H384.0V87.0H355.0Z"/></g>
<g fill="black" opacity=".8" transform="translate(900 800) scale(0.1 -0.1)"><path d="M0.0 0.0V-30.0H797.0V0.0H0.0ZM-14.0 0.0V-292.0C-14.0 -438.0 -23.0 -639.0 -104.0 -787.0C-96.0 -789.0 -83.0 -798.0 -78.0 -803.0C4.0 -653.0 15.0 -442.0 15.0 -291.0V0.0H-14.0ZM361.0 98.0V-12.0H394.0V98.0H361.0Z"/></g>
<g fill="red" transform="translate(1000 800) scale(0.1 -0.1)"><path d="M0.0 0.0V-121.0H788.0V0.0H0.0ZM-75.0 0.0V-307.0C-75.0 -453.0 -80.0 -656.0 -158.0 -793.0C-123.0 -806.0 -61.0 -842.0 -35.0 -864.0C49.0 -714.0 63.0 -471.0 63.0 -307.0V0.0H-75.0ZM288.0 85.0V-68.0H434.0V85.0H288.0Z"/></g>
<g fill="black" opacity=".8" transform="translate(1000 800) scale(0.1 -0.1)"><path d="M0.0 0.0V-123.0H782.0V0.0H0.0ZM-78.0 2.0V-304.0C-78.0 -450.0 -83.0 -657.0 -161.0 -796.0C-127.0 -811.0 -67.0 -852.0 -41.0 -876.0C47.0 -722.0 60.0 -469.0 60.0 -303.0V2.0H-78.0ZM280.0 76.0 279.0 -69.0H428.0V76.0H280.0Z"/></g>
<g fill="red" transform="translate(1100 800) scale(0.1 -0.1)"><path d="M0.0 0.0V-29.0H428.0V0.0H0.0ZM-18.0 0.0V-337.0C-18.0 -468.0 -21.0 -650.0 -67.0 -781.0C-60.0 -784.0 -47.0 -792.0 -41.0 -797.0C6.0 -662.0 12.0 -471.0 12.0 -336.0V0.0H-18.0ZM184.0 -148.0 170.0 -177.0H415.0V-148.0H184.0Z"/></g>
<g fill="black" opacity=".8" transform="translate(1100 800) scale(0.1 -0.1)"><path d="M0.0 0.0V-29.0H434.0V0.0H0.0ZM-14.0 -2.0V-318.0C-14.0 -454.0 -20.0 -641.0 -75.0 -780.0C-67.0 -781.0 -55.0 -790.0 -49.0 -794.0C7.0 -655.0 14.0 -457.0 14.0 -317.0V-2.0H-14.0ZM190.0 -150.0 183.0 -179.0H423.0V-150.0H190.0Z"/></g>
<g fill="red" transform="translate(1200 800) scale(0.1 -0.1)"><path d="M0.0 0.0V-96.0H441.0V0.0H0.0ZM-61.0 0.0V-383.0C-61.0 -509.0 -63.0 -672.0 -104.0 -785.0C-79.0 -796.0 -31.0 -829.0 -11.0 -848.0C38.0 -724.0 46.0 -523.0 46.0 -383.0V0.0H-61.0ZM250.0 -167.0 190.0 -242.0H434.0V-167.0H250.0Z"/></g>
<g fill="black" opacity=".8" transform="translate(1200 800) scale(0.1 -0.1)"><path d="M0.0 0.0V-93.0H433.0V0.0H0.0ZM-58.0 -6.0V-382.0C-58.0 -509.0 -61.0 -676.0 -110.0 -790.0C-85.0 -803.0 -40.0 -840.0 -21.0 -861.0C41.0 -734.0 49.0 -524.0 49.0 -381.0V-6.0H-58.0ZM236.0 -175.0 205.0 -232.0H425.0V-175.0H236.0Z"/></g>
</svg>
