<?xml version="1.0" encoding="UTF-8"?>
<svg width="1700" height="300" xmlns="http://www.w3.org/2000/svg">
<rect width="100%" height="100%" fill="white"/>
<g fill="green" transform="translate(100 100) scale(0.1 -0.1)"><path d="M0.0 0.0V-130.0H30.0V-29.0H782.0V-130.0H812.0V0.0ZM230.0 -51.0V-278.0H259.0V-51.0ZM550.0 -50.0V-277.0H579.0V-50.0ZM61.0 -97.0V-126.0H745.0V-97.0ZM81.0 -179.0V-207.0H729.0V-179.0ZM-35.0 -269.0V-299.0H848.0V-269.0ZM244.0 -280.0C182.0 -355.0 59.0 -432.0 -42.0 -465.0C-35.0 -470.0 -26.0 -481.0 -21.0 -489.0C79.0 -450.0 204.0 -372.0 269.0 -293.0ZM569.0 -280.0 544.0 -292.0C604.0 -373.0 726.0 -449.0 834.0 -486.0C839.0 -477.0 848.0 -467.0 856.0 -460.0C746.0 -431.0 627.0 -358.0 569.0 -280.0ZM112.0 -450.0V-480.0H695.0V-450.0ZM45.0 -542.0V-570.0H765.0V-542.0ZM551.0 -332.0C472.0 -351.0 321.0 -367.0 202.0 -375.0C206.0 -383.0 211.0 -394.0 212.0 -400.0C333.0 -395.0 482.0 -378.0 572.0 -357.0ZM395.0 -372.0V-645.0C395.0 -657.0 392.0 -660.0 379.0 -661.0C363.0 -663.0 320.0 -663.0 257.0 -661.0C262.0 -671.0 268.0 -681.0 270.0 -690.0C337.0 -690.0 379.0 -690.0 399.0 -684.0C419.0 -679.0 425.0 -669.0 425.0 -645.0V-372.0ZM369.0 59.0C387.0 37.0 409.0 3.0 419.0 -18.0L445.0 -6.0C435.0 15.0 414.0 47.0 395.0 69.0Z"/></g>
<g fill="green" transform="translate(200 100) scale(0.1 -0.1)"><path d="M0.0 0.0V-164.0H130.0V-94.0H740.0V-164.0H877.0V0.0ZM235.0 -106.0V-360.0H372.0V-106.0ZM508.0 -106.0V-360.0H647.0V-106.0ZM99.0 -132.0V-201.0H775.0V-132.0ZM120.0 -223.0V-287.0H760.0V-223.0ZM-2.0 -308.0V-398.0H885.0V-308.0ZM235.0 -346.0C176.0 -397.0 60.0 -445.0 -48.0 -470.0C-20.0 -490.0 19.0 -530.0 38.0 -555.0C152.0 -521.0 273.0 -456.0 346.0 -386.0ZM645.0 -340.0 539.0 -378.0C609.0 -447.0 722.0 -515.0 828.0 -550.0C847.0 -524.0 887.0 -484.0 915.0 -464.0C814.0 -438.0 702.0 -390.0 645.0 -340.0ZM149.0 -494.0V-561.0H717.0V-494.0ZM46.0 -579.0V-650.0H807.0V-579.0ZM551.0 -401.0C482.0 -412.0 368.0 -419.0 271.0 -421.0C281.0 -438.0 291.0 -465.0 294.0 -481.0C395.0 -482.0 520.0 -475.0 610.0 -460.0ZM375.0 -451.0V-650.0C375.0 -662.0 369.0 -664.0 353.0 -665.0C339.0 -665.0 274.0 -666.0 230.0 -663.0C246.0 -687.0 263.0 -720.0 270.0 -745.0C348.0 -746.0 407.0 -746.0 451.0 -735.0C496.0 -723.0 511.0 -702.0 511.0 -654.0V-451.0ZM351.0 28.0C370.0 -7.0 389.0 -53.0 394.0 -82.0L541.0 -37.0C534.0 -7.0 511.0 36.0 489.0 69.0Z"/></g>
<g fill="green" transform="translate(300 100) scale(0.1 -0.1)"><path d="M0.0 0.0V-130.0H30.0V-29.0H782.0V-130.0H812.0V0.0ZM230.0 -51.0V-278.0H259.0V-51.0ZM550.0 -50.0V-277.0H579.0V-50.0ZM61.0 -97.0V-126.0H745.0V-97.0ZM81.0 -179.0V-207.0H729.0V-179.0ZM-35.0 -269.0V-299.0H848.0V-269.0ZM244.0 -280.0C182.0 -355.0 59.0 -432.0 -42.0 -465.0C-35.0 -470.0 -26.0 -481.0 -21.0 -489.0C79.0 -450.0 204.0 -372.0 269.0 -293.0ZM569.0 -280.0 544.0 -292.0C604.0 -373.0 726.0 -449.0 834.0 -486.0C839.0 -477.0 848.0 -467.0 856.0 -460.0C746.0 -431.0 627.0 -358.0 569.0 -280.0ZM112.0 -450.0V-480.0H695.0V-450.0ZM45.0 -542.0V-570.0H765.0V-542.0ZM551.0 -332.0C472.0 -351.0 321.0 -367.0 202.0 -375.0C206.0 -383.0 211.0 -394.0 212.0 -400.0C333.0 -395.0 482.0 -378.0 572.0 -357.0ZM395.0 -372.0V-645.0C395.0 -657.0 392.0 -660.0 379.0 -661.0C363.0 -663.0 320.0 -663.0 257.0 -661.0C262.0 -671.0 268.0 -681.0 270.0 -690.0C337.0 -690.0 379.0 -690.0 399.0 -684.0C419.0 -679.0 425.0 -669.0 425.0 -645.0V-372.0ZM369.0 59.0C387.0 37.0 409.0 3.0 419.0 -18.0L445.0 -6.0C435.0 15.0 414.0 47.0 395.0 69.0Z"/></g>
<g fill="green" transform="translate(400 100) scale(0.1 -0.1)"><path d="M0.0 0.0V-164.0H130.0V-94.0H740.0V-164.0H877.0V0.0ZM235.0 -106.0V-360.0H372.0V-106.0ZM508.0 -106.0V-360.0H647.0V-106.0ZM99.0 -132.0V-201.0H775.0V-132.0ZM120.0 -223.0V-287.0H760.0V-223.0ZM-2.0 -308.0V-398.0H885.0V-308.0ZM235.0 -346.0C176.0 -397.0 60.0 -445.0 -48.0 -470.0C-20.0 -490.0 19.0 -530.0 38.0 -555.0C152.0 -521.0 273.0 -456.0 346.0 -386.0ZM645.0 -340.0 539.0 -378.0C609.0 -447.0 722.0 -515.0 828.0 -550.0C847.0 -524.0 887.0 -484.0 915.0 -464.0C814.0 -438.0 702.0 -390.0 645.0 -340.0ZM149.0 -494.0V-561.0H717.0V-494.0ZM46.0 -579.0V-650.0H807.0V-579.0ZM551.0 -401.0C482.0 -412.0 368.0 -419.0 271.0 -421.0C281.0 -438.0 291.0 -465.0 294.0 -481.0C395.0 -482.0 520.0 -475.0 610.0 -460.0ZM375.0 -451.0V-650.0C375.0 -662.0 369.0 -664.0 353.0 -665.0C339.0 -665.0 274.0 -666.0 230.0 -663.0C246.0 -687.0 263.0 -720.0 270.0 -745.0C348.0 -746.0 407.0 -746.0 451.0 -735.0C496.0 -723.0 511.0 -702.0 511.0 -654.0V-451.0ZM351.0 28.0C370.0 -7.0 389.0 -53.0 394.0 -82.0L541.0 -37.0C534.0 -7.0 511.0 36.0 489.0 69.0Z"/></g>
<g fill="red" transform="translate(100 200) scale(0.1 -0.1)"><path d="M0.0 0.0V-130.0H30.0V-29.0H782.0V-130.0H812.0V0.0ZM230.0 -51.0V-278.0H259.0V-51.0ZM550.0 -50.0V-277.0H579.0V-50.0ZM61.0 -97.0V-126.0H745.0V-97.0ZM81.0 -179.0V-207.0H729.0V-179.0ZM-35.0 -269.0V-299.0H848.0V-269.0ZM244.0 -280.0C182.0 -355.0 59.0 -432.0 -42.0 -465.0C-35.0 -470.0 -26.0 -481.0 -21.0 -489.0C79.0 -450.0 204.0 -372.0 269.0 -293.0ZM569.0 -280.0 544.0 -292.0C604.0 -373.0 726.0 -449.0 834.0 -486.0C839.0 -477.0 848.0 -467.0 856.0 -460.0C746.0 -431.0 627.0 -358.0 569.0 -280.0ZM112.0 -450.0V-480.0H695.0V-450.0ZM45.0 -542.0V-570.0H765.0V-542.0ZM551.0 -332.0C472.0 -351.0 321.0 -367.0 202.0 -375.0C206.0 -383.0 211.0 -394.0 212.0 -400.0C333.0 -395.0 482.0 -378.0 572.0 -357.0ZM395.0 -372.0V-645.0C395.0 -657.0 392.0 -660.0 379.0 -661.0C363.0 -663.0 320.0 -663.0 257.0 -661.0C262.0 -671.0 268.0 -681.0 270.0 -690.0C337.0 -690.0 379.0 -690.0 399.0 -684.0C419.0 -679.0 425.0 -669.0 425.0 -645.0V-372.0ZM369.0 59.0C387.0 37.0 409.0 3.0 419.0 -18.0L445.0 -6.0C435.0 15.0 414.0 47.0 395.0 69.0Z"/></g>
<g fill="black" opacity=".8" transform="translate(100 200) scale(0.1 -0.1)"><path d="M0.0 0.0V-130.0H30.0V-29.0H782.0V-130.0H812.0V0.0ZM230.0 -51.0V-278.0H259.0V-51.0ZM550.0 -50.0V-277.0H579.0V-50.0ZM61.0 -97.0V-126.0H745.0V-97.0ZM81.0 -179.0V-207.0H729.0V-179.0ZM-35.0 -269.0V-299.0H848.0V-269.0ZM244.0 -280.0C182.0 -355.0 59.0 -432.0 -42.0 -465.0C-35.0 -470.0 -26.0 -481.0 -21.0 -489.0C79.0 -450.0 204.0 -372.0 269.0 -293.0ZM569.0 -280.0 544.0 -292.0C604.0 -373.0 726.0 -449.0 834.0 -486.0C839.0 -477.0 848.0 -467.0 856.0 -460.0C746.0 -431.0 627.0 -358.0 569.0 -280.0ZM112.0 -450.0V-480.0H695.0V-450.0ZM45.0 -542.0V-570.0H765.0V-542.0ZM551.0 -332.0C472.0 -351.0 321.0 -367.0 202.0 -375.0C206.0 -383.0 211.0 -394.0 212.0 -400.0C333.0 -395.0 482.0 -378.0 572.0 -357.0ZM395.0 -372.0V-645.0C395.0 -657.0 392.0 -660.0 379.0 -661.0C363.0 -663.0 320.0 -663.0 257.0 -661.0C262.0 -671.0 268.0 -681.0 270.0 -690.0C337.0 -690.0 379.0 -690.0 399.0 -684.0C419.0 -679.0 425.0 -669.0 425.0 -645.0V-372.0ZM369.0 59.0C387.0 37.0 409.0 3.0 419.0 -18.0L445.0 -6.0C435.0 15.0 414.0 47.0 395.0 69.0Z"/></g>
<g fill="red" transform="translate(200 200) scale(0.1 -0.1)"><path d="M0.0 0.0V-164.0H130.0V-94.0H740.0V-164.0H877.0V0.0ZM235.0 -106.0V-360.0H372.0V-106.0ZM508.0 -106.0V-360.0H647.0V-106.0ZM99.0 -132.0V-201.0H775.0V-132.0ZM120.0 -223.0V-287.0H760.0V-223.0ZM-2.0 -308.0V-398.0H885.0V-308.0ZM235.0 -346.0C176.0 -397.0 60.0 -445.0 -48.0 -470.0C-20.0 -490.0 19.0 -530.0 38.0 -555.0C152.0 -521.0 273.0 -456.0 346.0 -386.0ZM645.0 -340.0 539.0 -378.0C609.0 -447.0 722.0 -515.0 828.0 -550.0C847.0 -524.0 887.0 -484.0 915.0 -464.0C814.0 -438.0 702.0 -390.0 645.0 -340.0ZM149.0 -494.0V-561.0H717.0V-494.0ZM46.0 -579.0V-650.0H807.0V-579.0ZM551.0 -401.0C482.0 -412.0 368.0 -419.0 271.0 -421.0C281.0 -438.0 291.0 -465.0 294.0 -481.0C395.0 -482.0 520.0 -475.0 610.0 -460.0ZM375.0 -451.0V-650.0C375.0 -662.0 369.0 -664.0 353.0 -665.0C339.0 -665.0 274.0 -666.0 230.0 -663.0C246.0 -687.0 263.0 -720.0 270.0 -745.0C348.0 -746.0 407.0 -746.0 451.0 -735.0C496.0 -723.0 511.0 -702.0 511.0 -654.0V-451.0ZM351.0 28.0C370.0 -7.0 389.0 -53.0 394.0 -82.0L541.0 -37.0C534.0 -7.0 511.0 36.0 489.0 69.0Z"/></g>
<g fill="black" opacity=".8" transform="translate(200 200) scale(0.1 -0.1)"><path d="M0.0 0.0V-164.0H130.0V-94.0H740.0V-164.0H877.0V0.0ZM235.0 -106.0V-360.0H372.0V-106.0ZM508.0 -106.0V-360.0H647.0V-106.0ZM99.0 -132.0V-201.0H775.0V-132.0ZM120.0 -223.0V-287.0H760.0V-223.0ZM-2.0 -308.0V-398.0H885.0V-308.0ZM235.0 -346.0C176.0 -397.0 60.0 -445.0 -48.0 -470.0C-20.0 -490.0 19.0 -530.0 38.0 -555.0C152.0 -521.0 273.0 -456.0 346.0 -386.0ZM645.0 -340.0 539.0 -378.0C609.0 -447.0 722.0 -515.0 828.0 -550.0C847.0 -524.0 887.0 -484.0 915.0 -464.0C814.0 -438.0 702.0 -390.0 645.0 -340.0ZM149.0 -494.0V-561.0H717.0V-494.0ZM46.0 -579.0V-650.0H807.0V-579.0ZM551.0 -401.0C482.0 -412.0 368.0 -419.0 271.0 -421.0C281.0 -438.0 291.0 -465.0 294.0 -481.0C395.0 -482.0 520.0 -475.0 610.0 -460.0ZM375.0 -451.0V-650.0C375.0 -662.0 369.0 -664.0 353.0 -665.0C339.0 -665.0 274.0 -666.0 230.0 -663.0C246.0 -687.0 263.0 -720.0 270.0 -745.0C348.0 -746.0 407.0 -746.0 451.0 -735.0C496.0 -723.0 511.0 -702.0 511.0 -654.0V-451.0ZM351.0 28.0C370.0 -7.0 389.0 -53.0 394.0 -82.0L541.0 -37.0C534.0 -7.0 511.0 36.0 489.0 69.0Z"/></g>
</svg>
