<?xml version="1.0" encoding="UTF-8"?>
<svg width="1700" height="500" xmlns="http://www.w3.org/2000/svg">
<rect width="100%" height="100%" fill="white"/>
<g fill="green" transform="translate(100 100) scale(0.1 -0.1)"><path d="M-0.0 -0.0 -37.0 -10.0C49.0 -356.0 232.0 -609.0 522.0 -720.0C529.0 -709.0 541.0 -696.0 550.0 -687.0C263.0 -585.0 84.0 -335.0 0.0 0.0ZM-450.0 234.0V-277.0H-195.0V234.0ZM-188.0 285.0V245.0H416.0V285.0ZM-382.0 587.0V-400.0H-344.0V587.0ZM448.0 12.0V2.0C355.0 -355.0 80.0 -599.0 -160.0 -689.0C-152.0 -699.0 -140.0 -714.0 -136.0 -725.0C114.0 -623.0 388.0 -377.0 488.0 3.0L463.0 15.0L455.0 12.0Z"/></g>
<g fill="green" transform="translate(200 100) scale(0.1 -0.1)"><path d="M0.0 0.0 -173.0 -43.0C-76.0 -354.0 78.0 -578.0 364.0 -689.0C391.0 -638.0 446.0 -564.0 489.0 -526.0C229.0 -441.0 73.0 -247.0 0.0 0.0ZM-559.0 372.0V-233.0H-279.0V372.0ZM-255.0 427.0V258.0H345.0V427.0ZM-537.0 695.0V-362.0H-362.0V695.0ZM278.0 153.0V125.0C225.0 -229.0 28.0 -451.0 -287.0 -535.0C-253.0 -577.0 -215.0 -652.0 -195.0 -701.0C176.0 -577.0 389.0 -341.0 463.0 128.0L343.0 160.0L311.0 153.0Z"/></g>
<g fill="green" transform="translate(300 100) scale(0.1 -0.1)"><path d="M0.0 0.0 -28.0 -7.0C25.0 -270.0 139.0 -465.0 338.0 -552.0C344.0 -544.0 353.0 -535.0 359.0 -528.0C163.0 -448.0 52.0 -255.0 0.0 0.0ZM-393.0 216.0V-264.0H-310.0V216.0ZM-131.0 195.0V166.0H245.0V195.0ZM-432.0 450.0V-392.0H-404.0V450.0ZM300.0 4.0V-3.0C240.0 -271.0 51.0 -462.0 -102.0 -530.0C-96.0 -538.0 -87.0 -548.0 -85.0 -557.0C77.0 -479.0 264.0 -286.0 328.0 -1.0L310.0 6.0L304.0 4.0Z"/></g>
<g fill="green" transform="translate(400 100) scale(0.1 -0.1)"><path d="M0.0 0.0 -127.0 -29.0C-66.0 -264.0 32.0 -439.0 227.0 -528.0C247.0 -491.0 288.0 -439.0 320.0 -411.0C144.0 -342.0 46.0 -188.0 0.0 0.0ZM-473.0 323.0V-216.0H-356.0V323.0ZM-170.0 299.0V178.0H199.0V299.0ZM-540.0 536.0V-367.0H-416.0V536.0ZM182.0 114.0V94.0C151.0 -177.0 23.0 -354.0 -199.0 -420.0C-175.0 -451.0 -151.0 -504.0 -136.0 -540.0C135.0 -441.0 272.0 -260.0 314.0 103.0L228.0 119.0L205.0 114.0Z"/></g>
<g fill="green" transform="translate(500 100) scale(0.1 -0.1)"><path d="M-0.0 0.0 -30.0 -11.0C80.0 -303.0 319.0 -479.0 657.0 -548.0C662.0 -538.0 671.0 -527.0 679.0 -519.0C340.0 -456.0 108.0 -282.0 0.0 0.0ZM43.0 77.0V-105.0H559.0V77.0ZM89.0 207.0V174.0H864.0V207.0ZM-309.0 452.0V-379.0H-278.0V452.0ZM533.0 9.0V1.0C415.0 -285.0 96.0 -464.0 -184.0 -523.0C-178.0 -532.0 -169.0 -545.0 -167.0 -554.0C122.0 -486.0 440.0 -307.0 568.0 -2.0L547.0 11.0L540.0 9.0Z"/></g>
<g fill="green" transform="translate(600 100) scale(0.1 -0.1)"><path d="M0.0 0.0 -152.0 -49.0C-20.0 -316.0 177.0 -476.0 516.0 -541.0C538.0 -496.0 583.0 -428.0 619.0 -392.0C303.0 -343.0 98.0 -209.0 0.0 0.0ZM-21.0 192.0V-97.0H410.0V192.0ZM27.0 315.0V168.0H804.0V315.0ZM-446.0 508.0V-369.0H-296.0V508.0ZM393.0 115.0V92.0C318.0 -205.0 70.0 -361.0 -277.0 -411.0C-248.0 -448.0 -219.0 -510.0 -204.0 -551.0C184.0 -470.0 448.0 -309.0 553.0 78.0L448.0 121.0L421.0 115.0Z"/></g>
<g fill="green" transform="translate(700 100) scale(0.1 -0.1)"><path d="M-0.0 0.0 -31.0 -10.0C79.0 -317.0 309.0 -525.0 633.0 -607.0C638.0 -598.0 648.0 -587.0 655.0 -578.0C332.0 -502.0 105.0 -295.0 0.0 0.0ZM-585.0 328.0V-394.0H-427.0V328.0ZM-255.0 245.0V211.0H489.0V245.0ZM136.0 476.0V-70.0H172.0V476.0ZM502.0 5.0V-2.0C394.0 -310.0 103.0 -506.0 -164.0 -581.0C-157.0 -589.0 -147.0 -603.0 -143.0 -613.0C130.0 -528.0 422.0 -331.0 538.0 -5.0L517.0 8.0L509.0 5.0Z"/></g>
<g fill="green" transform="translate(800 100) scale(0.1 -0.1)"><path d="M0.0 0.0 -157.0 -47.0C-34.0 -324.0 154.0 -495.0 482.0 -569.0C505.0 -524.0 552.0 -455.0 588.0 -418.0C283.0 -363.0 91.0 -217.0 0.0 0.0ZM-732.0 452.0V-336.0H-456.0V452.0ZM-339.0 395.0V242.0H409.0V395.0ZM-15.0 585.0V2.0H153.0V585.0ZM339.0 132.0V107.0C266.0 -192.0 26.0 -357.0 -310.0 -418.0C-280.0 -456.0 -244.0 -529.0 -229.0 -573.0C142.0 -484.0 404.0 -295.0 508.0 92.0L398.0 138.0L370.0 132.0Z"/></g>
<g fill="green" transform="translate(900 100) scale(0.1 -0.1)"><path d="M0.0 -0.0 -37.0 -10.0C47.0 -345.0 225.0 -608.0 487.0 -725.0C494.0 -715.0 506.0 -702.0 515.0 -693.0C256.0 -585.0 83.0 -325.0 0.0 0.0ZM-561.0 -38.0V69.0H202.0V-38.0ZM-587.0 385.0V344.0H8.0V385.0ZM-277.0 603.0V-303.0H-237.0V603.0ZM433.0 27.0V16.0C346.0 -345.0 105.0 -583.0 -143.0 -690.0C-133.0 -699.0 -119.0 -714.0 -114.0 -725.0C140.0 -607.0 382.0 -368.0 477.0 18.0L450.0 30.0L442.0 27.0Z"/></g>
<g fill="green" transform="translate(1000 100) scale(0.1 -0.1)"><path d="M0.0 0.0 -174.0 -39.0C-87.0 -355.0 53.0 -585.0 325.0 -702.0C352.0 -649.0 409.0 -573.0 453.0 -534.0C209.0 -447.0 67.0 -248.0 0.0 0.0ZM-632.0 77.0V46.0H71.0V77.0ZM-675.0 515.0V345.0H-47.0V515.0ZM-442.0 695.0V-252.0H-261.0V695.0ZM240.0 161.0V126.0C190.0 -234.0 16.0 -451.0 -267.0 -545.0C-230.0 -584.0 -179.0 -668.0 -156.0 -717.0C167.0 -593.0 369.0 -335.0 439.0 127.0L313.0 167.0L279.0 161.0Z"/></g>
<g fill="green" transform="translate(1100 100) scale(0.1 -0.1)"><path d="M0.0 0.0 -38.0 -7.0C29.0 -383.0 167.0 -679.0 427.0 -811.0C435.0 -800.0 449.0 -786.0 459.0 -777.0C203.0 -655.0 65.0 -363.0 0.0 0.0ZM-329.0 210.0V-281.0H-155.0V210.0ZM-46.0 251.0V210.0H398.0V251.0ZM-281.0 655.0V-334.0H-243.0V655.0ZM407.0 -2.0V-13.0C329.0 -396.0 77.0 -674.0 -130.0 -779.0C-122.0 -789.0 -110.0 -804.0 -106.0 -816.0C112.0 -699.0 362.0 -417.0 446.0 -9.0L421.0 1.0L413.0 -2.0Z"/></g>
<g fill="green" transform="translate(1200 100) scale(0.1 -0.1)"><path d="M0.0 0.0 -177.0 -40.0C-105.0 -358.0 15.0 -615.0 246.0 -752.0C275.0 -701.0 334.0 -628.0 379.0 -590.0C174.0 -483.0 55.0 -256.0 0.0 0.0ZM-448.0 373.0V-221.0H-253.0V373.0ZM-111.0 425.0V246.0H297.0V425.0ZM-446.0 812.0V-264.0H-263.0V812.0ZM218.0 162.0V133.0C180.0 -232.0 18.0 -488.0 -266.0 -590.0C-229.0 -633.0 -188.0 -710.0 -166.0 -761.0C180.0 -615.0 353.0 -345.0 406.0 146.0L284.0 169.0L251.0 162.0Z"/></g>
<g fill="green" transform="translate(1300 100) scale(0.1 -0.1)"><path d="M-0.0 0.0 -40.0 -12.0C45.0 -342.0 227.0 -593.0 498.0 -706.0C507.0 -694.0 520.0 -680.0 530.0 -670.0C260.0 -567.0 83.0 -321.0 0.0 0.0ZM-392.0 266.0V-285.0H-209.0V266.0ZM-188.0 485.0V442.0H478.0V485.0ZM-381.0 582.0V-379.0H-341.0V582.0ZM425.0 27.0V16.0C332.0 -340.0 57.0 -584.0 -186.0 -675.0C-176.0 -684.0 -164.0 -700.0 -160.0 -712.0C93.0 -610.0 368.0 -364.0 467.0 18.0L441.0 30.0L433.0 27.0Z"/></g>
<g fill="green" transform="translate(1400 100) scale(0.1 -0.1)"><path d="M0.0 0.0 -187.0 -42.0C-95.0 -346.0 48.0 -567.0 316.0 -677.0C346.0 -620.0 406.0 -539.0 455.0 -498.0C212.0 -416.0 69.0 -231.0 0.0 0.0ZM-500.0 398.0V-248.0H-304.0V398.0ZM-252.0 634.0V450.0H380.0V634.0ZM-547.0 670.0V-326.0H-360.0V670.0ZM256.0 160.0V130.0C206.0 -198.0 24.0 -422.0 -263.0 -512.0C-223.0 -553.0 -174.0 -631.0 -150.0 -681.0C189.0 -553.0 383.0 -314.0 455.0 132.0L326.0 167.0L291.0 160.0Z"/></g>
<g fill="green" transform="translate(1500 100) scale(0.1 -0.1)"><path d="M0.0 0.0 -39.0 -11.0C48.0 -358.0 232.0 -611.0 521.0 -724.0C528.0 -712.0 541.0 -698.0 551.0 -689.0C265.0 -585.0 83.0 -335.0 0.0 0.0ZM-433.0 245.0V-255.0H-201.0V245.0ZM-184.0 284.0V243.0H413.0V284.0ZM-384.0 596.0V-379.0H-345.0V596.0ZM419.0 29.0V18.0C329.0 -359.0 47.0 -604.0 -201.0 -686.0C-193.0 -697.0 -180.0 -714.0 -176.0 -726.0C83.0 -629.0 365.0 -382.0 462.0 19.0L435.0 32.0L426.0 29.0Z"/></g>
<g fill="green" transform="translate(1600 100) scale(0.1 -0.1)"><path d="M0.0 0.0 -175.0 -44.0C-75.0 -355.0 88.0 -578.0 380.0 -689.0C407.0 -638.0 463.0 -563.0 506.0 -525.0C240.0 -440.0 76.0 -247.0 0.0 0.0ZM-564.0 380.0V-219.0H-276.0V380.0ZM-264.0 425.0V249.0H354.0V425.0ZM-537.0 703.0V-371.0H-357.0V703.0ZM262.0 167.0V140.0C210.0 -221.0 6.0 -445.0 -329.0 -526.0C-295.0 -571.0 -260.0 -649.0 -239.0 -702.0C158.0 -577.0 379.0 -342.0 453.0 143.0L329.0 175.0L296.0 167.0Z"/></g>
<g fill="green" transform="translate(100 200) scale(0.1 -0.1)"><path d="M0.0 0.0 -40.0 -11.0C51.0 -347.0 239.0 -603.0 514.0 -718.0C521.0 -707.0 534.0 -692.0 543.0 -683.0C272.0 -577.0 87.0 -325.0 0.0 0.0ZM-470.0 249.0V-271.0H-179.0V249.0ZM-196.0 290.0V248.0H438.0V290.0ZM-380.0 592.0V-390.0H-340.0V592.0ZM462.0 24.0V13.0C363.0 -346.0 89.0 -588.0 -172.0 -688.0C-163.0 -698.0 -150.0 -714.0 -145.0 -724.0C124.0 -613.0 398.0 -370.0 506.0 14.0L479.0 27.0L470.0 24.0Z"/></g>
<g fill="green" transform="translate(200 200) scale(0.1 -0.1)"><path d="M0.0 0.0 -174.0 -44.0C-78.0 -349.0 77.0 -582.0 343.0 -702.0C372.0 -649.0 430.0 -573.0 475.0 -535.0C233.0 -443.0 75.0 -241.0 0.0 0.0ZM-564.0 376.0V-237.0H-282.0V376.0ZM-257.0 416.0V242.0H353.0V416.0ZM-540.0 677.0V-374.0H-358.0V677.0ZM254.0 154.0V123.0C199.0 -232.0 7.0 -455.0 -289.0 -546.0C-252.0 -586.0 -204.0 -664.0 -181.0 -713.0C160.0 -587.0 372.0 -338.0 449.0 123.0L324.0 162.0L290.0 154.0Z"/></g>
<g fill="red" transform="translate(100 300) scale(0.1 -0.1)"><path d="M0.0 0.0 -26.0 -9.0C70.0 -252.0 270.0 -427.0 532.0 -496.0C537.0 -489.0 545.0 -478.0 552.0 -471.0C290.0 -407.0 93.0 -235.0 0.0 0.0ZM-95.0 10.0V-19.0H470.0V10.0ZM-111.0 231.0V201.0H547.0V231.0ZM201.0 402.0V-4.0H230.0V402.0ZM460.0 10.0V3.0C360.0 -246.0 113.0 -401.0 -138.0 -476.0C-131.0 -482.0 -123.0 -493.0 -119.0 -500.0C134.0 -421.0 383.0 -265.0 492.0 0.0L474.0 12.0L467.0 10.0Z"/></g>
<g fill="black" opacity=".8" transform="translate(100 300) scale(0.1 -0.1)"><path d="M0.0 0.0 -27.0 -8.0C70.0 -253.0 270.0 -427.0 530.0 -496.0C535.0 -489.0 544.0 -478.0 550.0 -471.0C289.0 -406.0 92.0 -234.0 0.0 0.0ZM-94.0 10.0V-19.0H470.0V10.0ZM-111.0 231.0V202.0H544.0V231.0ZM201.0 402.0V-3.0H230.0V402.0ZM460.0 10.0V3.0C360.0 -246.0 113.0 -401.0 -138.0 -475.0C-131.0 -481.0 -123.0 -492.0 -120.0 -501.0C134.0 -421.0 383.0 -266.0 493.0 2.0L474.0 12.0L467.0 10.0Z"/></g>
<g fill="red" transform="translate(200 300) scale(0.1 -0.1)"><path d="M0.0 0.0 -131.0 -40.0C-30.0 -260.0 124.0 -407.0 373.0 -476.0C394.0 -436.0 436.0 -375.0 469.0 -344.0C237.0 -293.0 77.0 -169.0 0.0 0.0ZM-158.0 104.0V-27.0H338.0V104.0ZM-179.0 344.0V210.0H452.0V344.0ZM62.0 469.0V55.0H209.0V469.0ZM284.0 104.0V78.0C218.0 -159.0 26.0 -292.0 -227.0 -350.0C-197.0 -378.0 -153.0 -442.0 -137.0 -477.0C127.0 -403.0 343.0 -236.0 434.0 61.0L338.0 109.0L313.0 104.0Z"/></g>
<g fill="black" opacity=".8" transform="translate(200 300) scale(0.1 -0.1)"><path d="M0.0 0.0 -132.0 -41.0C-30.0 -261.0 124.0 -408.0 374.0 -475.0C395.0 -436.0 438.0 -376.0 470.0 -344.0C237.0 -294.0 78.0 -168.0 0.0 0.0ZM-157.0 103.0V-27.0H335.0V103.0ZM-180.0 344.0V209.0H453.0V344.0ZM63.0 469.0V53.0H209.0V469.0ZM284.0 104.0V78.0C220.0 -160.0 27.0 -292.0 -227.0 -350.0C-196.0 -378.0 -153.0 -441.0 -136.0 -476.0C128.0 -404.0 344.0 -237.0 435.0 60.0L338.0 109.0L313.0 104.0Z"/></g>
<g fill="red" transform="translate(300 300) scale(0.1 -0.1)"><path d="M0.0 0.0 -27.0 -9.0C58.0 -253.0 233.0 -429.0 477.0 -501.0C482.0 -493.0 491.0 -482.0 498.0 -475.0C255.0 -409.0 80.0 -235.0 0.0 0.0ZM-373.0 300.0V-340.0H-343.0V300.0ZM-97.0 225.0V195.0H481.0V225.0ZM165.0 397.0V-5.0H195.0V397.0ZM379.0 14.0V7.0C295.0 -253.0 61.0 -416.0 -156.0 -478.0C-150.0 -485.0 -142.0 -497.0 -138.0 -505.0C84.0 -436.0 319.0 -271.0 410.0 5.0L392.0 16.0L385.0 14.0Z"/></g>
<g fill="black" opacity=".8" transform="translate(300 300) scale(0.1 -0.1)"><path d="M0.0 0.0 -28.0 -9.0C58.0 -254.0 233.0 -429.0 476.0 -501.0C482.0 -493.0 491.0 -483.0 498.0 -475.0C255.0 -408.0 79.0 -235.0 0.0 0.0ZM-373.0 300.0V-340.0H-343.0V300.0ZM-97.0 224.0V196.0H480.0V224.0ZM164.0 396.0V-4.0H194.0V396.0ZM379.0 14.0V7.0C295.0 -253.0 60.0 -416.0 -156.0 -478.0C-149.0 -484.0 -141.0 -497.0 -138.0 -506.0C83.0 -436.0 319.0 -271.0 410.0 6.0L392.0 16.0L384.0 14.0Z"/></g>
<g fill="red" transform="translate(400 300) scale(0.1 -0.1)"><path d="M0.0 0.0 -130.0 -38.0C-37.0 -253.0 108.0 -397.0 346.0 -465.0C366.0 -427.0 407.0 -369.0 438.0 -340.0C217.0 -289.0 70.0 -167.0 0.0 0.0ZM-503.0 402.0V-291.0H-372.0V402.0ZM-165.0 351.0V218.0H397.0V351.0ZM38.0 486.0V45.0H182.0V486.0ZM239.0 115.0V94.0C183.0 -139.0 0.0 -280.0 -258.0 -334.0C-231.0 -365.0 -197.0 -426.0 -183.0 -464.0C103.0 -385.0 302.0 -226.0 382.0 83.0L289.0 120.0L265.0 115.0Z"/></g>
<g fill="black" opacity=".8" transform="translate(400 300) scale(0.1 -0.1)"><path d="M0.0 0.0 -130.0 -38.0C-37.0 -253.0 107.0 -397.0 346.0 -464.0C366.0 -427.0 407.0 -370.0 439.0 -339.0C216.0 -289.0 70.0 -166.0 0.0 0.0ZM-504.0 401.0V-291.0H-373.0V401.0ZM-165.0 352.0V218.0H396.0V352.0ZM39.0 486.0V45.0H182.0V486.0ZM238.0 115.0V94.0C184.0 -139.0 1.0 -280.0 -258.0 -334.0C-231.0 -365.0 -198.0 -426.0 -183.0 -464.0C103.0 -386.0 303.0 -226.0 382.0 83.0L288.0 120.0L264.0 115.0Z"/></g>
<g fill="red" transform="translate(500 300) scale(0.1 -0.1)"><path d="M0.0 0.0 -28.0 -9.0C42.0 -240.0 191.0 -407.0 402.0 -481.0C407.0 -473.0 416.0 -462.0 423.0 -456.0C214.0 -388.0 68.0 -224.0 0.0 0.0ZM-94.0 27.0V-2.0H348.0V27.0ZM-100.0 251.0V221.0H404.0V251.0ZM-317.0 408.0V-304.0H-290.0V408.0ZM339.0 27.0V19.0C264.0 -235.0 52.0 -395.0 -150.0 -457.0C-144.0 -464.0 -135.0 -476.0 -132.0 -483.0C77.0 -414.0 289.0 -253.0 371.0 19.0L352.0 29.0L345.0 27.0Z"/></g>
<g fill="black" opacity=".8" transform="translate(500 300) scale(0.1 -0.1)"><path d="M0.0 0.0 -28.0 -9.0C42.0 -241.0 191.0 -408.0 401.0 -481.0C407.0 -473.0 416.0 -463.0 423.0 -456.0C214.0 -388.0 67.0 -224.0 0.0 0.0ZM-94.0 27.0V-3.0H347.0V27.0ZM-101.0 251.0V222.0H403.0V251.0ZM-318.0 408.0V-304.0H-290.0V408.0ZM339.0 27.0V19.0C264.0 -235.0 51.0 -395.0 -150.0 -456.0C-143.0 -464.0 -134.0 -475.0 -132.0 -484.0C76.0 -414.0 288.0 -253.0 371.0 20.0L351.0 29.0L344.0 27.0Z"/></g>
<g fill="red" transform="translate(600 300) scale(0.1 -0.1)"><path d="M0.0 0.0 -126.0 -33.0C-48.0 -248.0 75.0 -400.0 287.0 -475.0C307.0 -437.0 348.0 -380.0 380.0 -352.0C186.0 -296.0 60.0 -167.0 0.0 0.0ZM-142.0 111.0V-14.0H228.0V111.0ZM-153.0 333.0V206.0H356.0V333.0ZM-431.0 450.0V-308.0H-302.0V450.0ZM212.0 111.0V89.0C168.0 -158.0 18.0 -306.0 -211.0 -363.0C-185.0 -392.0 -152.0 -448.0 -136.0 -484.0C127.0 -401.0 292.0 -239.0 353.0 86.0L262.0 116.0L238.0 111.0Z"/></g>
<g fill="black" opacity=".8" transform="translate(600 300) scale(0.1 -0.1)"><path d="M0.0 0.0 -126.0 -33.0C-48.0 -248.0 75.0 -400.0 287.0 -474.0C307.0 -436.0 348.0 -381.0 381.0 -352.0C186.0 -296.0 61.0 -166.0 0.0 0.0ZM-142.0 110.0V-14.0H228.0V110.0ZM-153.0 333.0V207.0H355.0V333.0ZM-430.0 450.0V-308.0H-302.0V450.0ZM211.0 111.0V89.0C169.0 -158.0 19.0 -306.0 -212.0 -363.0C-185.0 -392.0 -153.0 -448.0 -136.0 -483.0C127.0 -402.0 292.0 -239.0 353.0 86.0L262.0 116.0L237.0 111.0Z"/></g>
<g fill="red" transform="translate(700 300) scale(0.1 -0.1)"><path d="M0.0 0.0 -26.0 -12.0C80.0 -212.0 306.0 -342.0 570.0 -392.0C575.0 -384.0 583.0 -373.0 590.0 -366.0C323.0 -321.0 102.0 -193.0 0.0 0.0ZM-93.0 36.0V6.0H450.0V36.0ZM-201.0 394.0V364.0H585.0V394.0ZM191.0 325.0V20.0H220.0V325.0ZM438.0 36.0V29.0C334.0 -196.0 75.0 -316.0 -192.0 -369.0C-185.0 -375.0 -177.0 -387.0 -174.0 -394.0C96.0 -337.0 358.0 -217.0 471.0 25.0L453.0 38.0L446.0 36.0Z"/></g>
<g fill="black" opacity=".8" transform="translate(700 300) scale(0.1 -0.1)"><path d="M0.0 0.0 -27.0 -12.0C80.0 -212.0 306.0 -342.0 570.0 -391.0C575.0 -384.0 583.0 -374.0 590.0 -366.0C322.0 -320.0 101.0 -193.0 0.0 0.0ZM-93.0 36.0V6.0H450.0V36.0ZM-201.0 393.0V365.0H585.0V393.0ZM190.0 326.0V20.0H220.0V326.0ZM438.0 36.0V29.0C334.0 -196.0 75.0 -316.0 -192.0 -368.0C-184.0 -374.0 -176.0 -386.0 -174.0 -395.0C96.0 -336.0 358.0 -217.0 471.0 26.0L453.0 37.0L446.0 36.0Z"/></g>
<g fill="red" transform="translate(800 300) scale(0.1 -0.1)"><path d="M0.0 0.0 -133.0 -41.0C-17.0 -239.0 154.0 -346.0 432.0 -386.0C452.0 -345.0 492.0 -281.0 525.0 -249.0C264.0 -223.0 87.0 -142.0 0.0 0.0ZM-164.0 103.0V-23.0H332.0V103.0ZM-279.0 490.0V356.0H509.0V490.0ZM59.0 346.0V58.0H203.0V346.0ZM304.0 103.0V79.0C232.0 -116.0 25.0 -216.0 -235.0 -257.0C-205.0 -284.0 -161.0 -347.0 -145.0 -382.0C124.0 -327.0 353.0 -199.0 456.0 54.0L358.0 108.0L333.0 103.0Z"/></g>
<g fill="black" opacity=".8" transform="translate(800 300) scale(0.1 -0.1)"><path d="M0.0 0.0 -133.0 -41.0C-17.0 -239.0 153.0 -346.0 431.0 -384.0C451.0 -343.0 492.0 -281.0 525.0 -247.0C263.0 -223.0 87.0 -141.0 0.0 0.0ZM-165.0 103.0V-23.0H331.0V103.0ZM-279.0 491.0V357.0H508.0V491.0ZM59.0 348.0V59.0H202.0V348.0ZM303.0 104.0V80.0C233.0 -118.0 25.0 -216.0 -237.0 -258.0C-206.0 -284.0 -163.0 -347.0 -146.0 -381.0C123.0 -329.0 353.0 -200.0 455.0 54.0L358.0 108.0L332.0 104.0Z"/></g>
<g fill="red" transform="translate(900 300) scale(0.1 -0.1)"><path d="M0.0 0.0 -26.0 -8.0C59.0 -252.0 236.0 -429.0 483.0 -501.0C488.0 -493.0 497.0 -482.0 504.0 -475.0C258.0 -409.0 81.0 -235.0 0.0 0.0ZM-67.0 18.0V-11.0H394.0V18.0ZM-92.0 229.0V199.0H484.0V229.0ZM164.0 401.0V-1.0H192.0V401.0ZM385.0 18.0V11.0C300.0 -249.0 63.0 -412.0 -157.0 -474.0C-151.0 -481.0 -143.0 -493.0 -139.0 -501.0C86.0 -432.0 324.0 -267.0 416.0 9.0L398.0 20.0L391.0 18.0Z"/></g>
<g fill="black" opacity=".8" transform="translate(900 300) scale(0.1 -0.1)"><path d="M0.0 0.0 -26.0 -8.0C58.0 -253.0 234.0 -428.0 479.0 -499.0C484.0 -491.0 493.0 -481.0 501.0 -473.0C255.0 -407.0 80.0 -234.0 0.0 0.0ZM-65.0 18.0V-11.0H396.0V18.0ZM-89.0 230.0V202.0H475.0V230.0ZM166.0 406.0V1.0H195.0V406.0ZM386.0 18.0V11.0C302.0 -251.0 67.0 -410.0 -158.0 -471.0C-152.0 -478.0 -143.0 -490.0 -141.0 -500.0C89.0 -430.0 326.0 -270.0 418.0 10.0L399.0 20.0L392.0 18.0Z"/></g>
<g fill="red" transform="translate(1000 300) scale(0.1 -0.1)"><path d="M0.0 0.0 -130.0 -38.0C-37.0 -253.0 108.0 -397.0 347.0 -465.0C367.0 -427.0 408.0 -369.0 439.0 -340.0C218.0 -289.0 70.0 -167.0 0.0 0.0ZM-158.0 115.0V-16.0H293.0V115.0ZM-164.0 351.0V218.0H399.0V351.0ZM39.0 486.0V45.0H183.0V486.0ZM249.0 115.0V93.0C193.0 -137.0 12.0 -279.0 -245.0 -334.0C-217.0 -365.0 -183.0 -427.0 -168.0 -466.0C117.0 -386.0 315.0 -226.0 394.0 83.0L300.0 120.0L276.0 115.0Z"/></g>
<g fill="black" opacity=".8" transform="translate(1000 300) scale(0.1 -0.1)"><path d="M0.0 0.0 -130.0 -38.0C-36.0 -254.0 108.0 -397.0 349.0 -463.0C368.0 -426.0 410.0 -369.0 441.0 -337.0C218.0 -288.0 71.0 -166.0 0.0 0.0ZM-156.0 114.0V-16.0H286.0V114.0ZM-168.0 351.0V216.0H403.0V351.0ZM38.0 489.0V44.0H180.0V489.0ZM249.0 115.0V93.0C195.0 -144.0 13.0 -280.0 -247.0 -335.0C-219.0 -365.0 -185.0 -427.0 -169.0 -465.0C116.0 -390.0 317.0 -230.0 396.0 81.0L301.0 120.0L277.0 115.0Z"/></g>
<g fill="red" transform="translate(1100 300) scale(0.1 -0.1)"><path d="M0.0 0.0 -27.0 -9.0C56.0 -254.0 228.0 -432.0 468.0 -505.0C474.0 -497.0 482.0 -486.0 490.0 -479.0C249.0 -412.0 79.0 -236.0 0.0 0.0ZM-64.0 14.0V-15.0H391.0V14.0ZM-87.0 225.0V195.0H456.0V225.0ZM169.0 397.0V-5.0H199.0V397.0ZM391.0 14.0V7.0C307.0 -253.0 72.0 -416.0 -144.0 -478.0C-138.0 -485.0 -130.0 -497.0 -127.0 -505.0C96.0 -436.0 331.0 -271.0 422.0 5.0L404.0 16.0L397.0 14.0Z"/></g>
<g fill="black" opacity=".8" transform="translate(1100 300) scale(0.1 -0.1)"><path d="M0.0 0.0 -25.0 -7.0C57.0 -254.0 230.0 -430.0 474.0 -501.0C479.0 -493.0 488.0 -484.0 495.0 -476.0C250.0 -410.0 79.0 -236.0 0.0 0.0ZM-71.0 12.0V-19.0H390.0V12.0ZM-87.0 222.0V195.0H466.0V222.0ZM167.0 405.0V-7.0H195.0V405.0ZM392.0 11.0V4.0C308.0 -252.0 77.0 -412.0 -141.0 -475.0C-135.0 -482.0 -127.0 -493.0 -125.0 -503.0C99.0 -431.0 331.0 -270.0 422.0 3.0L404.0 13.0L397.0 11.0Z"/></g>
<g fill="red" transform="translate(1200 300) scale(0.1 -0.1)"><path d="M0.0 0.0 -131.0 -37.0C-37.0 -257.0 107.0 -404.0 347.0 -473.0C367.0 -436.0 408.0 -377.0 439.0 -348.0C217.0 -296.0 70.0 -171.0 0.0 0.0ZM-149.0 107.0V-24.0H271.0V107.0ZM-165.0 343.0V210.0H399.0V343.0ZM39.0 478.0V37.0H183.0V478.0ZM255.0 107.0V85.0C201.0 -140.0 26.0 -283.0 -223.0 -338.0C-195.0 -369.0 -161.0 -431.0 -146.0 -469.0C132.0 -388.0 323.0 -228.0 400.0 75.0L306.0 112.0L282.0 107.0Z"/></g>
<g fill="black" opacity=".8" transform="translate(1200 300) scale(0.1 -0.1)"><path d="M0.0 0.0 -128.0 -37.0C-37.0 -254.0 102.0 -398.0 340.0 -464.0C359.0 -427.0 400.0 -371.0 431.0 -340.0C211.0 -291.0 69.0 -167.0 0.0 0.0ZM-156.0 111.0V-20.0H280.0V111.0ZM-162.0 345.0V214.0H391.0V345.0ZM39.0 492.0V48.0H178.0V492.0ZM253.0 111.0V88.0C200.0 -147.0 22.0 -284.0 -232.0 -339.0C-204.0 -369.0 -171.0 -430.0 -155.0 -466.0C123.0 -391.0 319.0 -230.0 396.0 77.0L304.0 115.0L280.0 111.0Z"/></g>
<g fill="red" transform="translate(1300 300) scale(0.1 -0.1)"><path d="M0.0 0.0 -25.0 -11.0C97.0 -274.0 356.0 -431.0 698.0 -485.0C702.0 -478.0 709.0 -467.0 716.0 -460.0C373.0 -409.0 118.0 -253.0 0.0 0.0ZM-117.0 16.0V-13.0H545.0V16.0ZM-160.0 239.0V209.0H671.0V239.0ZM240.0 412.0V2.0H270.0V412.0ZM537.0 16.0V9.0C418.0 -261.0 117.0 -401.0 -194.0 -461.0C-188.0 -468.0 -179.0 -481.0 -176.0 -488.0C137.0 -422.0 441.0 -283.0 572.0 5.0L553.0 18.0L545.0 16.0Z"/></g>
<g fill="black" opacity=".8" transform="translate(1300 300) scale(0.1 -0.1)"><path d="M0.0 0.0 -27.0 -11.0C96.0 -274.0 357.0 -434.0 694.0 -492.0C698.0 -483.0 707.0 -473.0 714.0 -465.0C374.0 -411.0 118.0 -252.0 0.0 0.0ZM-114.0 17.0V-10.0H543.0V17.0ZM-165.0 237.0V208.0H668.0V237.0ZM238.0 398.0V4.0H269.0V398.0ZM534.0 19.0V12.0C414.0 -258.0 106.0 -407.0 -195.0 -464.0C-188.0 -471.0 -179.0 -485.0 -177.0 -494.0C128.0 -428.0 439.0 -280.0 569.0 7.0L549.0 21.0L542.0 19.0Z"/></g>
<g fill="red" transform="translate(1400 300) scale(0.1 -0.1)"><path d="M0.0 0.0 -138.0 -48.0C0.0 -290.0 205.0 -417.0 551.0 -463.0C571.0 -421.0 612.0 -354.0 644.0 -319.0C318.0 -288.0 103.0 -185.0 0.0 0.0ZM-212.0 119.0V-23.0H423.0V119.0ZM-263.0 358.0V214.0H602.0V358.0ZM92.0 478.0V55.0H244.0V478.0ZM389.0 119.0V93.0C302.0 -182.0 38.0 -292.0 -314.0 -331.0C-286.0 -364.0 -249.0 -433.0 -236.0 -472.0C129.0 -417.0 425.0 -271.0 547.0 65.0L444.0 124.0L419.0 119.0Z"/></g>
<g fill="black" opacity=".8" transform="translate(1400 300) scale(0.1 -0.1)"><path d="M0.0 0.0 -143.0 -50.0C-3.0 -293.0 208.0 -423.0 558.0 -470.0C577.0 -428.0 619.0 -362.0 651.0 -326.0C323.0 -294.0 105.0 -187.0 0.0 0.0ZM-210.0 113.0V-26.0H420.0V113.0ZM-262.0 358.0V214.0H604.0V358.0ZM95.0 462.0V46.0H250.0V462.0ZM387.0 116.0V91.0C303.0 -170.0 41.0 -289.0 -305.0 -330.0C-276.0 -365.0 -241.0 -433.0 -226.0 -474.0C139.0 -413.0 428.0 -266.0 548.0 64.0L444.0 121.0L418.0 116.0Z"/></g>
<g fill="red" transform="translate(1500 300) scale(0.1 -0.1)"><path d="M0.0 0.0 -26.0 -8.0C40.0 -230.0 174.0 -414.0 352.0 -495.0C357.0 -488.0 365.0 -478.0 372.0 -472.0C196.0 -397.0 63.0 -215.0 0.0 0.0ZM-558.0 33.0V3.0H-85.0V33.0ZM-538.0 299.0V270.0H-87.0V299.0ZM122.0 406.0V13.0H152.0V406.0ZM298.0 29.0V21.0C236.0 -234.0 72.0 -391.0 -116.0 -469.0C-109.0 -475.0 -99.0 -486.0 -94.0 -493.0C96.0 -409.0 262.0 -250.0 330.0 21.0L311.0 31.0L305.0 29.0Z"/></g>
<g fill="black" opacity=".8" transform="translate(1500 300) scale(0.1 -0.1)"><path d="M0.0 0.0 -27.0 -8.0C40.0 -231.0 175.0 -415.0 351.0 -495.0C356.0 -488.0 366.0 -479.0 371.0 -472.0C196.0 -397.0 62.0 -214.0 0.0 0.0ZM-558.0 33.0V2.0H-86.0V33.0ZM-538.0 298.0V271.0H-88.0V298.0ZM121.0 406.0V14.0H151.0V406.0ZM297.0 29.0V21.0C235.0 -233.0 71.0 -391.0 -116.0 -468.0C-108.0 -474.0 -97.0 -485.0 -94.0 -494.0C95.0 -408.0 262.0 -250.0 330.0 22.0L311.0 31.0L304.0 29.0Z"/></g>
<g fill="red" transform="translate(1600 300) scale(0.1 -0.1)"><path d="M0.0 0.0 -121.0 -28.0C-57.0 -238.0 47.0 -391.0 234.0 -470.0C253.0 -433.0 294.0 -379.0 324.0 -352.0C155.0 -294.0 50.0 -163.0 0.0 0.0ZM-640.0 106.0V-12.0H-144.0V106.0ZM-617.0 400.0V278.0H-139.0V400.0ZM-1.0 477.0V63.0H136.0V477.0ZM148.0 119.0V93.0C108.0 -142.0 -19.0 -282.0 -213.0 -348.0C-186.0 -374.0 -143.0 -439.0 -127.0 -475.0C84.0 -393.0 236.0 -211.0 293.0 88.0L202.0 123.0L177.0 119.0Z"/></g>
<g fill="black" opacity=".8" transform="translate(1600 300) scale(0.1 -0.1)"><path d="M0.0 0.0 -121.0 -28.0C-57.0 -239.0 47.0 -391.0 234.0 -469.0C253.0 -432.0 294.0 -379.0 324.0 -350.0C154.0 -294.0 50.0 -162.0 0.0 0.0ZM-641.0 105.0V-12.0H-144.0V105.0ZM-616.0 401.0V278.0H-140.0V401.0ZM-1.0 477.0V64.0H135.0V477.0ZM147.0 119.0V93.0C109.0 -143.0 -18.0 -282.0 -213.0 -348.0C-186.0 -374.0 -144.0 -439.0 -127.0 -475.0C84.0 -394.0 237.0 -212.0 293.0 87.0L201.0 123.0L177.0 119.0Z"/></g>
<g fill="red" transform="translate(100 400) scale(0.1 -0.1)"><path d="M0.0 0.0 -26.0 -13.0C100.0 -227.0 365.0 -352.0 676.0 -396.0C680.0 -388.0 687.0 -377.0 694.0 -370.0C381.0 -330.0 120.0 -205.0 0.0 0.0ZM-128.0 34.0V4.0H529.0V34.0ZM-182.0 200.0V171.0H669.0V200.0ZM226.0 317.0V17.0H256.0V317.0ZM516.0 34.0V28.0C395.0 -205.0 97.0 -322.0 -206.0 -371.0C-200.0 -378.0 -192.0 -391.0 -188.0 -398.0C118.0 -343.0 418.0 -227.0 551.0 21.0L532.0 36.0L524.0 34.0Z"/></g>
<g fill="black" opacity=".8" transform="translate(100 400) scale(0.1 -0.1)"><path d="M0.0 0.0 -26.0 -12.0C101.0 -227.0 365.0 -350.0 678.0 -393.0C681.0 -385.0 689.0 -375.0 695.0 -368.0C380.0 -328.0 119.0 -205.0 0.0 0.0ZM-131.0 33.0V2.0H529.0V33.0ZM-180.0 199.0V172.0H671.0V199.0ZM225.0 324.0V17.0H255.0V324.0ZM517.0 32.0V26.0C396.0 -206.0 102.0 -319.0 -205.0 -368.0C-199.0 -375.0 -190.0 -388.0 -187.0 -395.0C122.0 -339.0 419.0 -228.0 553.0 20.0L533.0 34.0L525.0 32.0Z"/></g>
<g fill="red" transform="translate(200 400) scale(0.1 -0.1)"><path d="M0.0 0.0 -128.0 -48.0C15.0 -259.0 231.0 -365.0 564.0 -401.0C582.0 -363.0 619.0 -301.0 648.0 -270.0C333.0 -246.0 108.0 -161.0 0.0 0.0ZM-204.0 98.0V-29.0H409.0V98.0ZM-266.0 281.0V154.0H621.0V281.0ZM100.0 336.0V12.0H244.0V336.0ZM368.0 98.0V75.0C280.0 -144.0 26.0 -238.0 -291.0 -270.0C-265.0 -300.0 -229.0 -364.0 -216.0 -401.0C112.0 -353.0 394.0 -232.0 518.0 44.0L421.0 103.0L397.0 98.0Z"/></g>
<g fill="black" opacity=".8" transform="translate(200 400) scale(0.1 -0.1)"><path d="M0.0 0.0 -126.0 -48.0C16.0 -257.0 229.0 -361.0 560.0 -395.0C578.0 -357.0 615.0 -297.0 643.0 -265.0C329.0 -242.0 108.0 -158.0 0.0 0.0ZM-207.0 100.0V-27.0H411.0V100.0ZM-267.0 282.0V155.0H618.0V282.0ZM99.0 346.0V18.0H240.0V346.0ZM367.0 100.0V77.0C280.0 -152.0 24.0 -240.0 -298.0 -271.0C-271.0 -300.0 -236.0 -363.0 -222.0 -399.0C105.0 -356.0 392.0 -235.0 516.0 44.0L420.0 106.0L396.0 100.0Z"/></g>
<g fill="red" transform="translate(300 400) scale(0.1 -0.1)"><path d="M0.0 0.0 -27.0 -9.0C52.0 -236.0 213.0 -411.0 426.0 -485.0C431.0 -478.0 440.0 -466.0 448.0 -460.0C236.0 -391.0 75.0 -219.0 0.0 0.0ZM-78.0 28.0V-1.0H377.0V28.0ZM-91.0 252.0V222.0H443.0V252.0ZM154.0 414.0V8.0H183.0V414.0ZM365.0 28.0V20.0C284.0 -240.0 72.0 -390.0 -161.0 -462.0C-154.0 -468.0 -145.0 -480.0 -141.0 -487.0C94.0 -410.0 309.0 -259.0 399.0 19.0L380.0 30.0L372.0 28.0Z"/></g>
<g fill="black" opacity=".8" transform="translate(300 400) scale(0.1 -0.1)"><path d="M0.0 0.0 -29.0 -8.0C52.0 -237.0 214.0 -414.0 424.0 -489.0C430.0 -482.0 441.0 -470.0 448.0 -463.0C237.0 -392.0 74.0 -218.0 0.0 0.0ZM-77.0 28.0V-0.0H374.0V28.0ZM-96.0 250.0V221.0H442.0V250.0ZM152.0 405.0V10.0H181.0V405.0ZM363.0 29.0V21.0C281.0 -237.0 64.0 -394.0 -161.0 -463.0C-154.0 -469.0 -144.0 -482.0 -141.0 -491.0C87.0 -414.0 307.0 -257.0 397.0 21.0L377.0 31.0L369.0 29.0Z"/></g>
<g fill="red" transform="translate(400 400) scale(0.1 -0.1)"><path d="M0.0 0.0 -124.0 -35.0C-43.0 -236.0 84.0 -385.0 283.0 -461.0C304.0 -423.0 347.0 -364.0 379.0 -335.0C195.0 -279.0 64.0 -154.0 0.0 0.0ZM-153.0 117.0V-13.0H253.0V117.0ZM-169.0 356.0V219.0H358.0V356.0ZM20.0 477.0V40.0H163.0V477.0ZM201.0 117.0V91.0C149.0 -145.0 -11.0 -277.0 -237.0 -337.0C-208.0 -364.0 -163.0 -428.0 -146.0 -464.0C93.0 -388.0 277.0 -218.0 350.0 79.0L255.0 122.0L230.0 117.0Z"/></g>
<g fill="black" opacity=".8" transform="translate(400 400) scale(0.1 -0.1)"><path d="M0.0 0.0 -127.0 -36.0C-45.0 -238.0 85.0 -389.0 286.0 -464.0C307.0 -426.0 351.0 -369.0 383.0 -339.0C197.0 -282.0 65.0 -154.0 0.0 0.0ZM-153.0 113.0V-14.0H253.0V113.0ZM-167.0 357.0V220.0H357.0V357.0ZM23.0 469.0V36.0H167.0V469.0ZM199.0 115.0V91.0C150.0 -137.0 -9.0 -275.0 -233.0 -337.0C-202.0 -365.0 -160.0 -428.0 -141.0 -464.0C99.0 -386.0 278.0 -215.0 350.0 79.0L254.0 121.0L228.0 115.0Z"/></g>
</svg>
