<?xml version="1.0" encoding="UTF-8"?>
<svg width="1700" height="300" xmlns="http://www.w3.org/2000/svg">
<rect width="100%" height="100%" fill="white"/>
<g fill="green" transform="translate(100 100) scale(0.1 -0.1)"><path d="M-0.0 -0.0V-27.0H939.0V0.0ZM55.0 257.0V229.0H874.0V257.0ZM472.0 -19.0V-364.0C472.0 -423.0 497.0 -435.0 584.0 -435.0C603.0 -435.0 819.0 -435.0 840.0 -435.0C925.0 -435.0 938.0 -401.0 945.0 -267.0C936.0 -266.0 925.0 -261.0 917.0 -255.0C913.0 -383.0 903.0 -407.0 840.0 -407.0C796.0 -407.0 613.0 -407.0 581.0 -407.0C514.0 -407.0 499.0 -399.0 499.0 -364.0V-19.0ZM405.0 248.0C406.0 47.0 412.0 -313.0 12.0 -441.0C17.0 -445.0 25.0 -455.0 30.0 -462.0C434.0 -331.0 432.0 36.0 431.0 249.0Z"/></g>
<g fill="green" transform="translate(200 100) scale(0.1 -0.1)"><path d="M0.0 0.0 -2.0 -133.0H984.0V0.0ZM45.0 231.0V98.0H927.0V231.0ZM486.0 -121.0V-345.0C486.0 -475.0 523.0 -518.0 668.0 -518.0C697.0 -518.0 784.0 -518.0 814.0 -518.0C934.0 -518.0 974.0 -475.0 991.0 -316.0C951.0 -306.0 886.0 -283.0 856.0 -260.0C850.0 -367.0 843.0 -384.0 802.0 -384.0C779.0 -384.0 708.0 -384.0 688.0 -384.0C642.0 -384.0 635.0 -379.0 635.0 -343.0V-121.0ZM361.0 173.0C358.0 -33.0 396.0 -291.0 5.0 -422.0C41.0 -453.0 71.0 -503.0 88.0 -542.0C516.0 -388.0 502.0 -74.0 505.0 176.0Z"/></g>
<g fill="green" transform="translate(300 100) scale(0.1 -0.1)"><path d="M0.0 -0.0V-16.0H650.0V0.0ZM50.0 140.0V124.0H600.0V140.0ZM328.0 0.0V-221.0C328.0 -259.0 345.0 -267.0 403.0 -267.0C416.0 -267.0 567.0 -267.0 581.0 -267.0C639.0 -267.0 647.0 -245.0 652.0 -162.0C647.0 -162.0 640.0 -159.0 636.0 -156.0C633.0 -234.0 626.0 -250.0 582.0 -250.0C551.0 -250.0 423.0 -250.0 401.0 -250.0C355.0 -250.0 344.0 -245.0 344.0 -221.0V0.0ZM259.0 137.0C268.0 59.0 292.0 -192.0 35.0 -273.0C37.0 -275.0 42.0 -281.0 45.0 -285.0C305.0 -204.0 284.0 54.0 274.0 138.0Z"/></g>
<g fill="green" transform="translate(400 100) scale(0.1 -0.1)"><path d="M0.0 0.0 -1.0 -79.0H686.0V0.0ZM43.0 121.0V42.0H642.0V121.0ZM351.0 -67.0V-211.0C351.0 -292.0 376.0 -318.0 470.0 -318.0C489.0 -318.0 552.0 -318.0 572.0 -318.0C652.0 -318.0 677.0 -291.0 688.0 -193.0C664.0 -186.0 623.0 -172.0 604.0 -158.0C600.0 -225.0 595.0 -236.0 566.0 -236.0C549.0 -236.0 496.0 -236.0 481.0 -236.0C447.0 -236.0 442.0 -232.0 442.0 -209.0V-67.0ZM235.0 83.0C238.0 -7.0 286.0 -174.0 39.0 -260.0C62.0 -279.0 75.0 -308.0 86.0 -334.0C359.0 -234.0 326.0 -29.0 321.0 87.0Z"/></g>
<g fill="green" transform="translate(500 100) scale(0.1 -0.1)"><path d="M0.0 0.0 1.0 -35.0H748.0V0.0ZM86.0 424.0V389.0H700.0V424.0ZM430.0 -19.0V-584.0C430.0 -648.0 449.0 -663.0 515.0 -663.0C530.0 -663.0 650.0 -663.0 666.0 -663.0C742.0 -663.0 753.0 -615.0 757.0 -430.0C747.0 -428.0 733.0 -421.0 722.0 -412.0C720.0 -597.0 712.0 -627.0 666.0 -627.0C638.0 -627.0 535.0 -627.0 515.0 -627.0C473.0 -627.0 464.0 -619.0 464.0 -584.0V-19.0ZM436.0 414.0C406.0 -1.0 348.0 -445.0 -59.0 -654.0C-50.0 -659.0 -38.0 -670.0 -30.0 -677.0C376.0 -456.0 435.0 -15.0 469.0 411.0Z"/></g>
<g fill="green" transform="translate(600 100) scale(0.1 -0.1)"><path d="M0.0 0.0 5.0 -166.0H776.0V0.0ZM94.0 397.0V235.0H733.0V397.0ZM386.0 -119.0V-533.0C386.0 -690.0 416.0 -743.0 543.0 -743.0C567.0 -743.0 606.0 -743.0 630.0 -743.0C742.0 -743.0 783.0 -682.0 798.0 -464.0C753.0 -452.0 680.0 -422.0 647.0 -394.0C643.0 -559.0 637.0 -583.0 613.0 -583.0C606.0 -583.0 582.0 -583.0 574.0 -583.0C554.0 -583.0 551.0 -577.0 551.0 -532.0V-119.0ZM375.0 338.0C353.0 -102.0 289.0 -459.0 -79.0 -638.0C-33.0 -669.0 31.0 -731.0 58.0 -766.0C430.0 -553.0 513.0 -156.0 542.0 328.0Z"/></g>
<g fill="green" transform="translate(700 100) scale(0.1 -0.1)"><path d="M-0.0 0.0 -2.0 -36.0H965.0V0.0ZM-41.0 318.0V283.0H925.0V318.0ZM437.0 -94.0V-336.0C437.0 -400.0 466.0 -411.0 569.0 -411.0C592.0 -411.0 842.0 -411.0 866.0 -411.0C955.0 -411.0 971.0 -380.0 978.0 -243.0C967.0 -241.0 952.0 -236.0 942.0 -228.0C938.0 -356.0 927.0 -375.0 864.0 -375.0C812.0 -375.0 602.0 -375.0 566.0 -375.0C488.0 -375.0 474.0 -367.0 474.0 -337.0V-94.0ZM456.0 295.0C432.0 -78.0 370.0 -316.0 -88.0 -415.0C-82.0 -421.0 -72.0 -437.0 -67.0 -446.0C396.0 -341.0 466.0 -98.0 491.0 295.0Z"/></g>
<g fill="green" transform="translate(800 100) scale(0.1 -0.1)"><path d="M0.0 0.0 -10.0 -165.0H990.0V0.0ZM-67.0 302.0V133.0H956.0V302.0ZM418.0 -206.0V-327.0C418.0 -471.0 459.0 -520.0 635.0 -520.0C670.0 -520.0 764.0 -520.0 800.0 -520.0C930.0 -520.0 978.0 -480.0 999.0 -319.0C950.0 -307.0 872.0 -281.0 836.0 -255.0C831.0 -349.0 823.0 -363.0 782.0 -363.0C757.0 -363.0 682.0 -363.0 661.0 -363.0C611.0 -363.0 603.0 -360.0 603.0 -325.0V-206.0ZM392.0 242.0C373.0 -71.0 356.0 -291.0 -142.0 -397.0C-103.0 -435.0 -59.0 -504.0 -42.0 -549.0C503.0 -418.0 554.0 -135.0 578.0 241.0Z"/></g>
<g fill="red" transform="translate(100 200) scale(0.1 -0.1)"><path d="M0.0 0.0V-29.0H883.0V0.0ZM64.0 306.0V276.0H823.0V306.0ZM460.0 -19.0V-428.0C460.0 -489.0 483.0 -502.0 564.0 -502.0C582.0 -502.0 769.0 -502.0 789.0 -502.0C871.0 -502.0 884.0 -464.0 890.0 -315.0C881.0 -313.0 869.0 -308.0 860.0 -301.0C856.0 -446.0 847.0 -472.0 789.0 -472.0C750.0 -472.0 590.0 -472.0 562.0 -472.0C502.0 -472.0 489.0 -464.0 489.0 -429.0V-19.0ZM414.0 297.0C406.0 33.0 393.0 -352.0 -9.0 -503.0C-3.0 -508.0 7.0 -518.0 12.0 -525.0C417.0 -368.0 433.0 21.0 442.0 297.0Z"/></g>
<g fill="black" opacity=".8" transform="translate(100 200) scale(0.1 -0.1)"><path d="M0.0 0.0V-29.0H883.0V0.0ZM64.0 306.0V276.0H823.0V306.0ZM460.0 -19.0V-428.0C460.0 -489.0 483.0 -502.0 564.0 -502.0C582.0 -502.0 769.0 -502.0 789.0 -502.0C871.0 -502.0 884.0 -464.0 890.0 -315.0C881.0 -313.0 869.0 -308.0 860.0 -301.0C856.0 -446.0 847.0 -471.0 789.0 -471.0C750.0 -471.0 590.0 -471.0 562.0 -471.0C502.0 -471.0 489.0 -463.0 489.0 -428.0V-19.0ZM414.0 297.0C406.0 33.0 393.0 -352.0 -9.0 -503.0C-3.0 -508.0 7.0 -518.0 12.0 -525.0C417.0 -368.0 433.0 21.0 442.0 296.0Z"/></g>
<g fill="red" transform="translate(200 200) scale(0.1 -0.1)"><path d="M0.0 0.0V-143.0H923.0V0.0ZM59.0 280.0V138.0H870.0V280.0ZM457.0 -120.0V-400.0C457.0 -538.0 492.0 -584.0 632.0 -584.0C659.0 -584.0 732.0 -584.0 760.0 -584.0C878.0 -584.0 918.0 -536.0 934.0 -359.0C893.0 -349.0 826.0 -324.0 795.0 -299.0C789.0 -423.0 783.0 -442.0 747.0 -442.0C728.0 -442.0 671.0 -442.0 654.0 -442.0C616.0 -442.0 611.0 -437.0 611.0 -398.0V-120.0ZM365.0 221.0C357.0 -53.0 365.0 -340.0 -19.0 -485.0C19.0 -516.0 59.0 -570.0 79.0 -608.0C491.0 -436.0 505.0 -98.0 516.0 221.0Z"/></g>
<g fill="black" opacity=".8" transform="translate(200 200) scale(0.1 -0.1)"><path d="M0.0 0.0V-143.0H923.0V0.0ZM59.0 280.0V138.0H870.0V280.0ZM457.0 -120.0V-400.0C457.0 -538.0 492.0 -584.0 631.0 -584.0C659.0 -584.0 732.0 -584.0 760.0 -584.0C878.0 -584.0 918.0 -536.0 934.0 -359.0C893.0 -349.0 826.0 -324.0 795.0 -299.0C789.0 -423.0 783.0 -442.0 747.0 -442.0C728.0 -442.0 671.0 -442.0 655.0 -442.0C616.0 -442.0 610.0 -437.0 610.0 -398.0V-120.0ZM365.0 221.0C357.0 -53.0 365.0 -340.0 -20.0 -485.0C19.0 -516.0 59.0 -570.0 79.0 -608.0C491.0 -436.0 505.0 -98.0 516.0 221.0Z"/></g>
<g fill="red" transform="translate(300 200) scale(0.1 -0.1)"><path d="M0.0 0.0 -2.0 -29.0H795.0V0.0ZM-44.0 250.0V221.0H764.0V250.0ZM353.0 -83.0V-252.0C353.0 -304.0 377.0 -312.0 463.0 -312.0C482.0 -312.0 694.0 -312.0 714.0 -312.0C787.0 -312.0 801.0 -289.0 806.0 -182.0C797.0 -180.0 785.0 -176.0 777.0 -170.0C773.0 -269.0 764.0 -283.0 712.0 -283.0C669.0 -283.0 490.0 -283.0 460.0 -283.0C394.0 -283.0 383.0 -277.0 383.0 -253.0V-83.0ZM370.0 230.0C351.0 -71.0 299.0 -246.0 -75.0 -316.0C-70.0 -322.0 -62.0 -335.0 -59.0 -342.0C320.0 -267.0 379.0 -87.0 399.0 230.0Z"/></g>
<g fill="black" opacity=".8" transform="translate(300 200) scale(0.1 -0.1)"><path d="M0.0 0.0 -2.0 -30.0H795.0V0.0ZM-44.0 249.0V221.0H764.0V249.0ZM352.0 -83.0V-252.0C352.0 -304.0 377.0 -312.0 463.0 -312.0C482.0 -312.0 694.0 -312.0 714.0 -312.0C787.0 -312.0 800.0 -288.0 806.0 -181.0C797.0 -180.0 785.0 -176.0 777.0 -170.0C774.0 -269.0 764.0 -283.0 712.0 -283.0C668.0 -283.0 490.0 -283.0 460.0 -283.0C395.0 -283.0 383.0 -277.0 383.0 -253.0V-83.0ZM370.0 230.0C351.0 -71.0 300.0 -245.0 -74.0 -316.0C-70.0 -321.0 -62.0 -335.0 -58.0 -342.0C320.0 -266.0 379.0 -87.0 399.0 230.0Z"/></g>
<g fill="red" transform="translate(400 200) scale(0.1 -0.1)"><path d="M0.0 0.0 -9.0 -134.0H815.0V0.0ZM-68.0 238.0V100.0H788.0V238.0ZM339.0 -174.0V-248.0C339.0 -364.0 373.0 -403.0 519.0 -403.0C548.0 -403.0 628.0 -403.0 658.0 -403.0C765.0 -403.0 804.0 -372.0 821.0 -246.0C781.0 -237.0 718.0 -216.0 689.0 -195.0C684.0 -265.0 678.0 -276.0 644.0 -276.0C621.0 -276.0 557.0 -276.0 539.0 -276.0C497.0 -276.0 490.0 -274.0 490.0 -246.0V-174.0ZM318.0 189.0C303.0 -55.0 292.0 -222.0 -121.0 -301.0C-91.0 -333.0 -57.0 -390.0 -44.0 -427.0C411.0 -327.0 451.0 -108.0 470.0 189.0Z"/></g>
<g fill="black" opacity=".8" transform="translate(400 200) scale(0.1 -0.1)"><path d="M0.0 0.0 -9.0 -133.0H815.0V0.0ZM-68.0 237.0V100.0H789.0V237.0ZM339.0 -174.0V-248.0C339.0 -364.0 373.0 -403.0 519.0 -403.0C548.0 -403.0 628.0 -403.0 658.0 -403.0C764.0 -403.0 804.0 -372.0 821.0 -247.0C781.0 -237.0 718.0 -216.0 688.0 -195.0C684.0 -266.0 677.0 -276.0 643.0 -276.0C622.0 -276.0 558.0 -276.0 539.0 -276.0C496.0 -276.0 490.0 -274.0 490.0 -246.0V-174.0ZM318.0 189.0C303.0 -56.0 291.0 -222.0 -122.0 -302.0C-91.0 -333.0 -57.0 -389.0 -43.0 -427.0C411.0 -328.0 451.0 -109.0 470.0 189.0Z"/></g>
<g fill="red" transform="translate(500 200) scale(0.1 -0.1)"><path d="M0.0 0.0V-30.0H478.0V0.0ZM9.0 353.0V324.0H464.0V353.0ZM260.0 -56.0V-420.0C260.0 -467.0 274.0 -477.0 323.0 -477.0C335.0 -477.0 415.0 -477.0 427.0 -477.0C478.0 -477.0 487.0 -444.0 489.0 -308.0C481.0 -305.0 469.0 -300.0 460.0 -293.0C458.0 -428.0 453.0 -447.0 425.0 -447.0C406.0 -447.0 337.0 -447.0 324.0 -447.0C294.0 -447.0 290.0 -442.0 290.0 -421.0V-56.0ZM328.0 338.0C287.0 -82.0 196.0 -327.0 -111.0 -466.0C-104.0 -472.0 -93.0 -483.0 -88.0 -488.0C219.0 -337.0 312.0 -97.0 357.0 335.0Z"/></g>
<g fill="black" opacity=".8" transform="translate(500 200) scale(0.1 -0.1)"><path d="M0.0 0.0V-31.0H478.0V0.0ZM9.0 352.0V324.0H464.0V352.0ZM260.0 -56.0V-420.0C260.0 -467.0 274.0 -477.0 323.0 -477.0C335.0 -477.0 415.0 -477.0 426.0 -477.0C478.0 -477.0 487.0 -443.0 489.0 -307.0C481.0 -305.0 468.0 -300.0 460.0 -293.0C459.0 -428.0 453.0 -446.0 426.0 -446.0C405.0 -446.0 337.0 -446.0 324.0 -446.0C295.0 -446.0 290.0 -441.0 290.0 -421.0V-56.0ZM328.0 338.0C287.0 -82.0 197.0 -326.0 -111.0 -467.0C-104.0 -471.0 -93.0 -483.0 -87.0 -488.0C219.0 -336.0 312.0 -97.0 357.0 334.0Z"/></g>
<g fill="red" transform="translate(600 200) scale(0.1 -0.1)"><path d="M0.0 0.0V-137.0H482.0V0.0ZM9.0 341.0V205.0H469.0V341.0ZM200.0 -128.0V-385.0C200.0 -504.0 221.0 -545.0 321.0 -545.0C339.0 -545.0 359.0 -545.0 378.0 -545.0C457.0 -545.0 489.0 -502.0 501.0 -342.0C465.0 -333.0 407.0 -310.0 381.0 -288.0C379.0 -403.0 375.0 -419.0 362.0 -419.0C359.0 -419.0 350.0 -419.0 346.0 -419.0C336.0 -419.0 335.0 -416.0 335.0 -384.0V-128.0ZM272.0 299.0C245.0 -104.0 150.0 -342.0 -153.0 -457.0C-120.0 -482.0 -62.0 -537.0 -42.0 -563.0C264.0 -421.0 376.0 -156.0 413.0 288.0Z"/></g>
<g fill="black" opacity=".8" transform="translate(600 200) scale(0.1 -0.1)"><path d="M0.0 0.0V-136.0H482.0V0.0ZM9.0 340.0V205.0H470.0V340.0ZM200.0 -128.0V-386.0C200.0 -504.0 221.0 -544.0 320.0 -544.0C339.0 -544.0 359.0 -544.0 378.0 -544.0C457.0 -544.0 489.0 -502.0 501.0 -343.0C465.0 -333.0 407.0 -310.0 380.0 -288.0C379.0 -404.0 374.0 -419.0 362.0 -419.0C360.0 -419.0 351.0 -419.0 347.0 -419.0C336.0 -419.0 334.0 -416.0 334.0 -385.0V-128.0ZM272.0 299.0C244.0 -104.0 149.0 -342.0 -155.0 -457.0C-119.0 -482.0 -62.0 -537.0 -41.0 -563.0C263.0 -421.0 376.0 -156.0 412.0 287.0Z"/></g>
</svg>
