<?xml version="1.0" encoding="UTF-8"?>
<svg width="1700" height="300" xmlns="http://www.w3.org/2000/svg">
<rect width="100%" height="100%" fill="white"/>
<g fill="green" transform="translate(100 100) scale(0.1 -0.1)"><path d="M0.0 -0.0 265.0 119.0 645.0 47.0 380.0 -72.0ZM-18.0 445.0 48.0 411.0 661.0 393.0 596.0 427.0ZM-99.0 801.0V19.0H76.0V782.0H535.0V40.0H438.0V801.0ZM185.0 711.0V-89.0H225.0V711.0ZM318.0 827.0V223.0H356.0V827.0Z"/></g>
<g fill="green" transform="translate(200 100) scale(0.1 -0.1)"><path d="M0.0 0.0 196.0 64.0 421.0 41.0 225.0 -23.0ZM-46.0 452.0 1.0 313.0 488.0 307.0 440.0 447.0ZM-240.0 819.0V-59.0H50.0V726.0H347.0V12.0H372.0V819.0ZM55.0 610.0V-80.0H176.0V610.0ZM141.0 764.0V207.0H296.0V764.0Z"/></g>
<g fill="green" transform="translate(300 100) scale(0.1 -0.1)"><path d="M0.0 0.0 253.0 154.0 160.0 86.0 -92.0 -69.0ZM-18.0 193.0 22.0 184.0 178.0 173.0 139.0 182.0ZM-59.0 310.0V107.0H83.0V316.0H103.0V123.0H-15.0V310.0ZM41.0 104.0V-72.0H53.0V104.0ZM17.0 220.0V241.0H28.0V220.0Z"/></g>
<g fill="green" transform="translate(400 100) scale(0.1 -0.1)"><path d="M0.0 0.0 187.0 176.0 -19.0 155.0 -206.0 -22.0ZM-52.0 218.0 -24.0 179.0 53.0 176.0 24.0 215.0ZM-152.0 346.0V99.0H18.0V362.0H-1.0V163.0H-90.0V346.0ZM-38.0 43.0V-35.0H-21.0V43.0ZM-94.0 197.0V251.0H-44.0V197.0Z"/></g>
<g fill="green" transform="translate(500 100) scale(0.1 -0.1)"><path d="M0.0 -0.0 452.0 -74.0 1000.0 -197.0 547.0 -123.0ZM3.0 411.0 517.0 384.0 995.0 248.0 482.0 275.0ZM-543.0 800.0V-142.0H-245.0V768.0H219.0V-108.0H54.0V800.0ZM289.0 656.0V-157.0H356.0V656.0ZM470.0 754.0V106.0H536.0V754.0Z"/></g>
<g fill="green" transform="translate(600 100) scale(0.1 -0.1)"><path d="M0.0 0.0 334.0 -138.0 782.0 -178.0 448.0 -39.0ZM27.0 373.0 406.0 265.0 772.0 221.0 392.0 330.0ZM-739.0 844.0V-248.0H-252.0V712.0H-25.0V-123.0H10.0V844.0ZM129.0 561.0V-163.0H341.0V561.0ZM261.0 691.0V80.0H502.0V691.0Z"/></g>
<g fill="green" transform="translate(700 100) scale(0.1 -0.1)"><path d="M0.0 0.0 -31.0 -39.0 724.0 -32.0 755.0 8.0ZM-1.0 283.0 -24.0 250.0 726.0 255.0 751.0 289.0ZM1.0 557.0V-77.0H15.0V522.0H752.0V-78.0H798.0V557.0ZM222.0 557.0V-10.0H254.0V557.0ZM475.0 548.0V-38.0H506.0V548.0Z"/></g>
<g fill="green" transform="translate(800 100) scale(0.1 -0.1)"><path d="M0.0 0.0 -22.0 -129.0 619.0 -127.0 641.0 3.0ZM10.0 255.0 -8.0 112.0 625.0 114.0 642.0 257.0ZM-76.0 518.0V-183.0H44.0V366.0H615.0V-200.0H772.0V518.0ZM125.0 416.0V-57.0H259.0V416.0ZM359.0 404.0V-70.0H492.0V404.0Z"/></g>
<g fill="green" transform="translate(900 100) scale(0.1 -0.1)"><path d="M0.0 0.0 93.0 13.0 479.0 -13.0 386.0 -26.0ZM-8.0 445.0 21.0 410.0 481.0 401.0 453.0 437.0ZM-57.0 837.0V-81.0H29.0V806.0H422.0V-73.0H414.0V837.0ZM135.0 838.0V-43.0H175.0V838.0ZM264.0 879.0V62.0H302.0V879.0Z"/></g>
<g fill="green" transform="translate(1000 100) scale(0.1 -0.1)"><path d="M0.0 0.0 69.0 -54.0 313.0 -62.0 244.0 -8.0ZM-6.0 446.0 14.0 307.0 339.0 304.0 318.0 444.0ZM-169.0 860.0V-144.0H21.0V728.0H276.0V-119.0H376.0V860.0ZM39.0 769.0V-59.0H145.0V769.0ZM138.0 823.0V35.0H256.0V823.0Z"/></g>
<g fill="green" transform="translate(1100 100) scale(0.1 -0.1)"><path d="M0.0 -0.0 294.0 140.0 648.0 61.0 354.0 -80.0ZM-19.0 394.0 57.0 366.0 667.0 345.0 592.0 374.0ZM-106.0 705.0V44.0H80.0V694.0H527.0V72.0H410.0V705.0ZM189.0 783.0V-93.0H224.0V783.0ZM314.0 909.0V255.0H347.0V909.0Z"/></g>
<g fill="green" transform="translate(1200 100) scale(0.1 -0.1)"><path d="M0.0 0.0 218.0 70.0 451.0 44.0 233.0 -26.0ZM-62.0 396.0 -9.0 273.0 517.0 266.0 462.0 390.0ZM-238.0 692.0V-45.0H63.0V625.0H351.0V38.0H356.0V692.0ZM62.0 733.0V-99.0H190.0V733.0ZM144.0 902.0V217.0H310.0V902.0Z"/></g>
<g fill="green" transform="translate(1300 100) scale(0.1 -0.1)"><path d="M0.0 0.0 266.0 119.0 626.0 47.0 360.0 -72.0ZM-19.0 447.0 49.0 413.0 641.0 395.0 574.0 429.0ZM-93.0 795.0V0.0H84.0V776.0H501.0V21.0H403.0V795.0ZM175.0 694.0V-90.0H215.0V694.0ZM302.0 811.0V223.0H342.0V811.0Z"/></g>
<g fill="green" transform="translate(1400 100) scale(0.1 -0.1)"><path d="M0.0 0.0 197.0 65.0 472.0 42.0 275.0 -23.0ZM-44.0 461.0 4.0 328.0 534.0 321.0 484.0 456.0ZM-197.0 831.0V-62.0H96.0V742.0H349.0V18.0H378.0V831.0ZM89.0 617.0V-48.0H204.0V617.0ZM165.0 771.0V238.0H313.0V771.0Z"/></g>
<g fill="red" transform="translate(100 200) scale(0.1 -0.1)"><path d="M0.0 0.0V-30.0H516.0V0.0ZM-1.0 312.0V283.0H515.0V312.0ZM-22.0 611.0V-90.0H7.0V582.0H506.0V-84.0H536.0V611.0ZM154.0 812.0V-13.0H184.0V812.0ZM324.0 812.0V-13.0H353.0V812.0Z"/></g>
<g fill="black" opacity=".8" transform="translate(100 200) scale(0.1 -0.1)"><path d="M0.0 0.0 -1.0 -30.0H515.0L516.0 -1.0ZM-2.0 312.0 -1.0 284.0 515.0 282.0V312.0ZM-21.0 612.0V-90.0H8.0V583.0H507.0V-85.0H537.0V612.0ZM155.0 812.0V-14.0H186.0V812.0ZM326.0 811.0V-13.0H355.0V811.0Z"/></g>
<g fill="red" transform="translate(200 200) scale(0.1 -0.1)"><path d="M0.0 0.0V-124.0H428.0V0.0ZM0.0 293.0V171.0H428.0V293.0ZM-97.0 579.0V-175.0H31.0V453.0H397.0V-175.0H531.0V579.0ZM75.0 774.0V-68.0H194.0V774.0ZM233.0 774.0V-68.0H353.0V774.0Z"/></g>
<g fill="black" opacity=".8" transform="translate(200 200) scale(0.1 -0.1)"><path d="M0.0 0.0 1.0 -125.0H428.0L427.0 -0.0ZM1.0 293.0 -1.0 171.0H428.0V293.0ZM-95.0 578.0V-176.0H32.0V451.0H396.0V-176.0H527.0V578.0ZM76.0 774.0V-68.0H193.0V774.0ZM234.0 775.0V-68.0H352.0V775.0Z"/></g>
<g fill="red" transform="translate(300 200) scale(0.1 -0.1)"><path d="M0.0 0.0V-30.0H428.0V0.0ZM-2.0 311.0V282.0H426.0V311.0ZM-17.0 595.0V-94.0H12.0V565.0H412.0V-94.0H442.0V595.0ZM123.0 581.0V-15.0H153.0V581.0ZM265.0 583.0V-17.0H295.0V583.0Z"/></g>
<g fill="black" opacity=".8" transform="translate(300 200) scale(0.1 -0.1)"><path d="M0.0 0.0 -1.0 -30.0H427.0L428.0 -0.0ZM-3.0 311.0 -2.0 283.0 425.0 281.0 426.0 311.0ZM-17.0 595.0V-94.0H12.0V566.0H412.0V-94.0H442.0V595.0ZM123.0 581.0V-15.0H153.0V581.0ZM266.0 582.0V-18.0H296.0V582.0Z"/></g>
<g fill="red" transform="translate(400 200) scale(0.1 -0.1)"><path d="M0.0 0.0V-90.0H353.0V0.0ZM11.0 305.0V192.0H357.0V305.0ZM-75.0 607.0V-147.0H37.0V486.0H320.0V-147.0H438.0V607.0ZM71.0 510.0V-26.0H160.0V510.0ZM194.0 511.0V-25.0H283.0V511.0Z"/></g>
<g fill="black" opacity=".8" transform="translate(400 200) scale(0.1 -0.1)"><path d="M0.0 0.0V-90.0H353.0V0.0ZM11.0 305.0 10.0 193.0 357.0 192.0V305.0ZM-75.0 607.0V-147.0H37.0V485.0H320.0V-147.0H437.0V607.0ZM72.0 510.0V-26.0H159.0V510.0ZM194.0 511.0V-26.0H282.0V511.0Z"/></g>
<g fill="red" transform="translate(500 200) scale(0.1 -0.1)"><path d="M0.0 0.0V-286.0H431.0V0.0ZM30.0 -30.0H401.0V-128.0H30.0ZM-366.0 42.0V-243.0H-337.0V13.0H-128.0V-243.0H-98.0V42.0ZM132.0 82.0V-20.0H161.0V82.0ZM264.0 -10.0V-271.0H294.0V-10.0Z"/></g>
<g fill="black" opacity=".8" transform="translate(500 200) scale(0.1 -0.1)"><path d="M0.0 0.0 -2.0 -286.0 430.0 -287.0 431.0 -1.0ZM28.0 -31.0 401.0 -29.0V-129.0L30.0 -128.0ZM-365.0 42.0V-243.0H-338.0V13.0H-127.0V-244.0H-98.0V42.0ZM132.0 82.0V-20.0H160.0V82.0ZM265.0 -10.0V-271.0H295.0V-10.0Z"/></g>
<g fill="red" transform="translate(600 200) scale(0.1 -0.1)"><path d="M0.0 0.0V-332.0H491.0V0.0ZM105.0 -92.0H381.0V-123.0H105.0ZM-393.0 41.0V-293.0H-282.0V-60.0H-167.0V-293.0H-50.0V41.0ZM115.0 69.0V-71.0H226.0V69.0ZM259.0 -53.0V-296.0H344.0V-53.0Z"/></g>
<g fill="black" opacity=".8" transform="translate(600 200) scale(0.1 -0.1)"><path d="M0.0 0.0V-332.0L491.0 -333.0V0.0ZM106.0 -91.0H380.0L381.0 -122.0L105.0 -123.0ZM-394.0 40.0V-292.0H-282.0V-61.0H-167.0V-293.0H-51.0V40.0ZM116.0 70.0V-71.0H226.0V70.0ZM259.0 -53.0V-297.0H343.0V-53.0Z"/></g>
<g fill="red" transform="translate(700 200) scale(0.1 -0.1)"><path d="M0.0 0.0V-29.0H541.0V0.0ZM-2.0 309.0V280.0H539.0V309.0ZM-15.0 596.0V-105.0H14.0V567.0H517.0V-99.0H546.0V596.0ZM155.0 785.0V-13.0H185.0V785.0ZM334.0 786.0V-12.0H365.0V786.0Z"/></g>
<g fill="black" opacity=".8" transform="translate(700 200) scale(0.1 -0.1)"><path d="M0.0 0.0V-29.0H540.0V-1.0ZM-3.0 310.0 -2.0 282.0 539.0 280.0V311.0ZM-13.0 599.0V-106.0H18.0V569.0H519.0V-100.0H549.0V599.0ZM159.0 783.0V-15.0H190.0V783.0ZM339.0 784.0V-13.0H371.0V784.0Z"/></g>
<g fill="red" transform="translate(800 200) scale(0.1 -0.1)"><path d="M0.0 0.0V-124.0H523.0V0.0ZM1.0 296.0V177.0H518.0V296.0ZM-58.0 580.0V-179.0H80.0V456.0H443.0V-171.0H589.0V580.0ZM117.0 759.0V-38.0H239.0V759.0ZM282.0 759.0V-38.0H404.0V759.0Z"/></g>
<g fill="black" opacity=".8" transform="translate(800 200) scale(0.1 -0.1)"><path d="M0.0 0.0 1.0 -126.0 522.0 -127.0 521.0 -0.0ZM2.0 296.0 -0.0 176.0 518.0 175.0 517.0 296.0ZM-51.0 578.0V-182.0H82.0V452.0H440.0V-174.0H579.0V578.0ZM121.0 760.0V-38.0H238.0V760.0ZM282.0 761.0V-37.0H400.0V761.0Z"/></g>
<g fill="red" transform="translate(900 200) scale(0.1 -0.1)"><path d="M0.0 0.0V-30.0H489.0V0.0ZM-2.0 315.0V285.0H488.0V315.0ZM-14.0 607.0V-107.0H19.0V578.0H474.0V-101.0H507.0V607.0ZM149.0 782.0V-16.0H181.0V782.0ZM312.0 783.0V-15.0H344.0V783.0Z"/></g>
<g fill="black" opacity=".8" transform="translate(900 200) scale(0.1 -0.1)"><path d="M0.0 0.0 -3.0 -30.0H489.0L492.0 -0.0ZM-3.0 312.0 -2.0 285.0 488.0 283.0V313.0ZM-14.0 604.0V-105.0H15.0V575.0H472.0V-100.0H502.0V604.0ZM144.0 785.0V-14.0H174.0V785.0ZM307.0 784.0V-15.0H338.0V784.0Z"/></g>
<g fill="red" transform="translate(1000 200) scale(0.1 -0.1)"><path d="M0.0 0.0V-125.0H454.0V0.0ZM2.0 299.0V179.0H451.0V299.0ZM-50.0 585.0V-181.0H70.0V460.0H386.0V-173.0H513.0V585.0ZM104.0 766.0V-40.0H210.0V766.0ZM246.0 766.0V-40.0H352.0V766.0Z"/></g>
<g fill="black" opacity=".8" transform="translate(1000 200) scale(0.1 -0.1)"><path d="M0.0 0.0 -1.0 -122.0H455.0L456.0 0.0ZM3.0 299.0 1.0 183.0 452.0 182.0 451.0 300.0ZM-59.0 587.0V-176.0H67.0V463.0H390.0V-170.0H523.0V587.0ZM100.0 765.0V-41.0H210.0V765.0ZM247.0 764.0V-44.0H357.0V764.0Z"/></g>
<g fill="red" transform="translate(1100 200) scale(0.1 -0.1)"><path d="M0.0 0.0V-29.0H729.0V0.0ZM-1.0 243.0V214.0H732.0V243.0ZM-17.0 478.0V-73.0H12.0V449.0H717.0V-68.0H746.0V478.0ZM224.0 602.0V-16.0H254.0V602.0ZM469.0 602.0V-16.0H498.0V602.0Z"/></g>
<g fill="black" opacity=".8" transform="translate(1100 200) scale(0.1 -0.1)"><path d="M0.0 0.0 -1.0 -29.0H728.0L730.0 -0.0ZM-2.0 242.0 -1.0 214.0 731.0 213.0 732.0 243.0ZM-16.0 478.0V-72.0H11.0V449.0H717.0V-67.0H745.0V478.0ZM223.0 603.0V-16.0H252.0V603.0ZM469.0 602.0V-17.0H498.0V602.0Z"/></g>
<g fill="red" transform="translate(1200 200) scale(0.1 -0.1)"><path d="M0.0 0.0V-131.0H680.0V0.0ZM0.0 212.0V85.0H680.0V212.0ZM-68.0 425.0V-181.0H68.0V294.0H606.0V-181.0H749.0V425.0ZM151.0 514.0V-58.0H290.0V514.0ZM377.0 514.0V-49.0H518.0V514.0Z"/></g>
<g fill="black" opacity=".8" transform="translate(1200 200) scale(0.1 -0.1)"><path d="M0.0 0.0 1.0 -131.0H681.0L680.0 0.0ZM1.0 213.0 -1.0 86.0H681.0L680.0 212.0ZM-69.0 424.0V-180.0H68.0V294.0H606.0V-181.0H750.0V424.0ZM150.0 515.0V-58.0H290.0V515.0ZM378.0 514.0V-51.0H518.0V514.0Z"/></g>
<g fill="red" transform="translate(1300 200) scale(0.1 -0.1)"><path d="M0.0 0.0H371.0V-100.0H0.0ZM0.0 127.0H371.0V29.0H0.0ZM-380.0 236.0V-30.0H-160.0V236.0H-189.0V-1.0H-350.0V236.0ZM102.0 147.0V-114.0H131.0V147.0ZM102.0 239.0V137.0H131.0V239.0Z"/></g>
<g fill="black" opacity=".8" transform="translate(1300 200) scale(0.1 -0.1)"><path d="M0.0 0.0H370.0V-100.0L1.0 -101.0ZM-1.0 127.0H371.0V29.0H-0.0ZM-380.0 236.0V-30.0H-160.0V236.0H-188.0V-2.0H-350.0V236.0ZM102.0 147.0V-114.0H130.0V147.0ZM103.0 239.0V137.0H132.0V239.0Z"/></g>
<g fill="red" transform="translate(1400 200) scale(0.1 -0.1)"><path d="M0.0 0.0H274.0V-32.0H0.0ZM0.0 116.0H274.0V85.0H0.0ZM-476.0 278.0V-55.0H-177.0V278.0H-292.0V53.0H-367.0V278.0ZM37.0 155.0V-88.0H121.0V155.0ZM10.0 277.0V137.0H120.0V277.0Z"/></g>
<g fill="black" opacity=".8" transform="translate(1400 200) scale(0.1 -0.1)"><path d="M0.0 0.0H274.0V-32.0H0.0ZM1.0 116.0 274.0 117.0V85.0H-1.0ZM-477.0 277.0V-54.0H-177.0V277.0H-292.0V52.0H-367.0V277.0ZM38.0 156.0V-88.0H121.0V156.0ZM11.0 277.0V136.0H120.0V277.0Z"/></g>
</svg>
