<?xml version="1.0" encoding="UTF-8"?>
<svg width="1700" height="300" xmlns="http://www.w3.org/2000/svg">
<rect width="100%" height="100%" fill="white"/>
<g fill="green" transform="translate(100 100) scale(0.1 -0.1)"><path d="M0.0 0.0V-29.0H830.0V0.0ZM394.0 147.0V-373.0H424.0V147.0ZM195.0 -73.0V-148.0C195.0 -219.0 178.0 -300.0 -6.0 -352.0C0.0 -358.0 9.0 -367.0 13.0 -374.0C203.0 -317.0 225.0 -232.0 225.0 -148.0V-73.0ZM526.0 111.0C581.0 81.0 650.0 36.0 687.0 9.0L704.0 33.0C668.0 59.0 598.0 101.0 543.0 130.0ZM592.0 -73.0V-276.0C592.0 -323.0 602.0 -337.0 645.0 -337.0C658.0 -337.0 760.0 -337.0 780.0 -337.0C802.0 -337.0 825.0 -337.0 834.0 -335.0C833.0 -328.0 831.0 -315.0 830.0 -308.0C818.0 -309.0 793.0 -310.0 779.0 -310.0C760.0 -310.0 665.0 -310.0 646.0 -310.0C627.0 -310.0 623.0 -304.0 623.0 -277.0V-73.0Z"/></g>
<g fill="green" transform="translate(200 100) scale(0.1 -0.1)"><path d="M0.0 0.0V-137.0H887.0V0.0ZM356.0 135.0V-410.0H506.0V135.0ZM139.0 -165.0V-209.0C139.0 -252.0 120.0 -312.0 -26.0 -348.0C6.0 -373.0 54.0 -425.0 73.0 -459.0C255.0 -402.0 281.0 -292.0 281.0 -216.0V-165.0ZM579.0 60.0C615.0 31.0 662.0 -11.0 682.0 -39.0L775.0 46.0C751.0 73.0 702.0 111.0 667.0 137.0ZM587.0 -165.0V-265.0C587.0 -388.0 618.0 -434.0 752.0 -434.0C770.0 -434.0 813.0 -434.0 831.0 -434.0C860.0 -434.0 892.0 -432.0 912.0 -424.0C907.0 -389.0 903.0 -329.0 901.0 -291.0C883.0 -297.0 849.0 -299.0 827.0 -299.0C812.0 -299.0 768.0 -299.0 755.0 -299.0C738.0 -299.0 735.0 -289.0 735.0 -267.0V-165.0Z"/></g>
<g fill="green" transform="translate(300 100) scale(0.1 -0.1)"><path d="M0.0 0.0V-29.0H830.0V0.0ZM394.0 147.0V-373.0H424.0V147.0ZM195.0 -73.0V-148.0C195.0 -219.0 178.0 -300.0 -6.0 -352.0C0.0 -358.0 9.0 -367.0 13.0 -374.0C203.0 -317.0 225.0 -232.0 225.0 -148.0V-73.0ZM526.0 111.0C581.0 81.0 650.0 36.0 687.0 9.0L704.0 33.0C668.0 59.0 598.0 101.0 543.0 130.0ZM592.0 -73.0V-276.0C592.0 -323.0 602.0 -337.0 645.0 -337.0C658.0 -337.0 760.0 -337.0 780.0 -337.0C802.0 -337.0 825.0 -337.0 834.0 -335.0C833.0 -328.0 831.0 -315.0 830.0 -308.0C818.0 -309.0 793.0 -310.0 779.0 -310.0C760.0 -310.0 665.0 -310.0 646.0 -310.0C627.0 -310.0 623.0 -304.0 623.0 -277.0V-73.0Z"/></g>
<g fill="green" transform="translate(400 100) scale(0.1 -0.1)"><path d="M0.0 0.0V-137.0H887.0V0.0ZM356.0 135.0V-410.0H506.0V135.0ZM139.0 -165.0V-209.0C139.0 -252.0 120.0 -312.0 -26.0 -348.0C6.0 -373.0 54.0 -425.0 73.0 -459.0C255.0 -402.0 281.0 -292.0 281.0 -216.0V-165.0ZM579.0 60.0C615.0 31.0 662.0 -11.0 682.0 -39.0L775.0 46.0C751.0 73.0 702.0 111.0 667.0 137.0ZM587.0 -165.0V-265.0C587.0 -388.0 618.0 -434.0 752.0 -434.0C770.0 -434.0 813.0 -434.0 831.0 -434.0C860.0 -434.0 892.0 -432.0 912.0 -424.0C907.0 -389.0 903.0 -329.0 901.0 -291.0C883.0 -297.0 849.0 -299.0 827.0 -299.0C812.0 -299.0 768.0 -299.0 755.0 -299.0C738.0 -299.0 735.0 -289.0 735.0 -267.0V-165.0Z"/></g>
<g fill="red" transform="translate(100 200) scale(0.1 -0.1)"><path d="M0.0 0.0V-29.0H830.0V0.0ZM394.0 147.0V-373.0H424.0V147.0ZM195.0 -73.0V-148.0C195.0 -219.0 178.0 -300.0 -6.0 -352.0C0.0 -358.0 9.0 -367.0 13.0 -374.0C203.0 -317.0 225.0 -232.0 225.0 -148.0V-73.0ZM526.0 111.0C581.0 81.0 650.0 36.0 687.0 9.0L704.0 33.0C668.0 59.0 598.0 101.0 543.0 130.0ZM592.0 -73.0V-276.0C592.0 -323.0 602.0 -337.0 645.0 -337.0C658.0 -337.0 760.0 -337.0 780.0 -337.0C802.0 -337.0 825.0 -337.0 834.0 -335.0C833.0 -328.0 831.0 -315.0 830.0 -308.0C818.0 -309.0 793.0 -310.0 779.0 -310.0C760.0 -310.0 665.0 -310.0 646.0 -310.0C627.0 -310.0 623.0 -304.0 623.0 -277.0V-73.0Z"/></g>
<g fill="black" opacity=".8" transform="translate(100 200) scale(0.1 -0.1)"><path d="M0.0 0.0V-29.0H830.0V0.0ZM394.0 147.0V-373.0H424.0V147.0ZM195.0 -73.0V-148.0C195.0 -219.0 178.0 -300.0 -6.0 -352.0C0.0 -358.0 9.0 -367.0 13.0 -374.0C203.0 -317.0 225.0 -232.0 225.0 -148.0V-73.0ZM526.0 111.0C581.0 81.0 650.0 36.0 687.0 9.0L704.0 33.0C668.0 59.0 598.0 101.0 543.0 130.0ZM592.0 -73.0V-276.0C592.0 -323.0 602.0 -337.0 645.0 -337.0C658.0 -337.0 760.0 -337.0 780.0 -337.0C802.0 -337.0 825.0 -337.0 834.0 -335.0C833.0 -328.0 831.0 -315.0 830.0 -308.0C818.0 -309.0 793.0 -310.0 779.0 -310.0C760.0 -310.0 665.0 -310.0 646.0 -310.0C627.0 -310.0 623.0 -304.0 623.0 -277.0V-73.0Z"/></g>
<g fill="red" transform="translate(200 200) scale(0.1 -0.1)"><path d="M0.0 0.0V-137.0H887.0V0.0ZM356.0 135.0V-410.0H506.0V135.0ZM139.0 -165.0V-209.0C139.0 -252.0 120.0 -312.0 -26.0 -348.0C6.0 -373.0 54.0 -425.0 73.0 -459.0C255.0 -402.0 281.0 -292.0 281.0 -216.0V-165.0ZM579.0 60.0C615.0 31.0 662.0 -11.0 682.0 -39.0L775.0 46.0C751.0 73.0 702.0 111.0 667.0 137.0ZM587.0 -165.0V-265.0C587.0 -388.0 618.0 -434.0 752.0 -434.0C770.0 -434.0 813.0 -434.0 831.0 -434.0C860.0 -434.0 892.0 -432.0 912.0 -424.0C907.0 -389.0 903.0 -329.0 901.0 -291.0C883.0 -297.0 849.0 -299.0 827.0 -299.0C812.0 -299.0 768.0 -299.0 755.0 -299.0C738.0 -299.0 735.0 -289.0 735.0 -267.0V-165.0Z"/></g>
<g fill="black" opacity=".8" transform="translate(200 200) scale(0.1 -0.1)"><path d="M0.0 0.0V-137.0H887.0V0.0ZM356.0 135.0V-410.0H506.0V135.0ZM139.0 -165.0V-209.0C139.0 -252.0 120.0 -312.0 -26.0 -348.0C6.0 -373.0 54.0 -425.0 73.0 -459.0C255.0 -402.0 281.0 -292.0 281.0 -216.0V-165.0ZM579.0 60.0C615.0 31.0 662.0 -11.0 682.0 -39.0L775.0 46.0C751.0 73.0 702.0 111.0 667.0 137.0ZM587.0 -165.0V-265.0C587.0 -388.0 618.0 -434.0 752.0 -434.0C770.0 -434.0 813.0 -434.0 831.0 -434.0C860.0 -434.0 892.0 -432.0 912.0 -424.0C907.0 -389.0 903.0 -329.0 901.0 -291.0C883.0 -297.0 849.0 -299.0 827.0 -299.0C812.0 -299.0 768.0 -299.0 755.0 -299.0C738.0 -299.0 735.0 -289.0 735.0 -267.0V-165.0Z"/></g>
</svg>
