<?xml version="1.0" encoding="UTF-8"?>
<svg width="1700" height="300" xmlns="http://www.w3.org/2000/svg">
<rect width="100%" height="100%" fill="white"/>
<g fill="green" transform="translate(100 100) scale(0.1 -0.1)"><path d="M-0.0 -0.0V-39.0H749.0V0.0ZM41.0 417.0V378.0H716.0V417.0ZM343.0 580.0V-588.0H385.0V580.0ZM615.0 311.0C589.0 239.0 538.0 130.0 501.0 63.0L532.0 49.0C571.0 115.0 617.0 214.0 652.0 295.0ZM97.0 294.0C135.0 218.0 178.0 118.0 198.0 54.0L233.0 70.0C213.0 132.0 168.0 232.0 129.0 307.0ZM333.0 -27.0C251.0 -205.0 83.0 -390.0 -60.0 -481.0C-52.0 -488.0 -40.0 -502.0 -35.0 -512.0C109.0 -417.0 277.0 -223.0 363.0 -41.0ZM387.0 -25.0 358.0 -39.0C447.0 -203.0 616.0 -393.0 746.0 -481.0C754.0 -471.0 766.0 -457.0 775.0 -451.0C643.0 -369.0 475.0 -185.0 387.0 -25.0Z"/></g>
<g fill="green" transform="translate(200 100) scale(0.1 -0.1)"><path d="M0.0 0.0V-172.0H776.0V0.0ZM27.0 412.0V239.0H745.0V412.0ZM292.0 543.0V-679.0H476.0V543.0ZM571.0 250.0C554.0 187.0 518.0 101.0 489.0 45.0L616.0 -12.0C649.0 37.0 689.0 112.0 732.0 185.0ZM45.0 186.0C76.0 122.0 112.0 35.0 127.0 -20.0L271.0 52.0C253.0 105.0 216.0 187.0 182.0 249.0ZM259.0 -121.0C197.0 -239.0 75.0 -371.0 -53.0 -445.0C-23.0 -495.0 20.0 -573.0 37.0 -627.0C181.0 -531.0 306.0 -351.0 388.0 -185.0ZM501.0 -108.0 361.0 -160.0C436.0 -326.0 558.0 -500.0 682.0 -603.0C712.0 -556.0 773.0 -491.0 815.0 -457.0C694.0 -376.0 567.0 -237.0 501.0 -108.0Z"/></g>
<g fill="green" transform="translate(300 100) scale(0.1 -0.1)"><path d="M0.0 -0.0V-30.0H543.0V0.0ZM30.0 322.0V292.0H520.0V322.0ZM248.0 447.0V-452.0H280.0V447.0ZM451.0 239.0C431.0 184.0 392.0 100.0 364.0 49.0L388.0 38.0C418.0 89.0 452.0 165.0 479.0 227.0ZM69.0 226.0C97.0 168.0 129.0 91.0 144.0 42.0L171.0 54.0C156.0 102.0 122.0 179.0 93.0 236.0ZM241.0 -21.0C181.0 -158.0 57.0 -302.0 -49.0 -374.0C-43.0 -379.0 -34.0 -390.0 -30.0 -397.0C76.0 -323.0 200.0 -172.0 264.0 -31.0ZM280.0 -19.0 258.0 -30.0C323.0 -154.0 447.0 -301.0 542.0 -369.0C548.0 -361.0 557.0 -350.0 564.0 -346.0C468.0 -282.0 345.0 -141.0 280.0 -19.0Z"/></g>
<g fill="green" transform="translate(400 100) scale(0.1 -0.1)"><path d="M0.0 0.0V-132.0H561.0V0.0ZM15.0 317.0V184.0H542.0V317.0ZM208.0 419.0V-522.0H348.0V419.0ZM415.0 193.0C402.0 145.0 376.0 80.0 354.0 38.0L449.0 -5.0C474.0 31.0 503.0 88.0 536.0 143.0ZM25.0 143.0C49.0 95.0 76.0 29.0 88.0 -13.0L195.0 42.0C181.0 82.0 153.0 144.0 128.0 191.0ZM184.0 -96.0C138.0 -186.0 49.0 -289.0 -46.0 -346.0C-23.0 -385.0 9.0 -444.0 22.0 -486.0C128.0 -411.0 221.0 -272.0 281.0 -144.0ZM363.0 -82.0 257.0 -122.0C312.0 -248.0 401.0 -383.0 490.0 -464.0C513.0 -429.0 560.0 -380.0 592.0 -354.0C505.0 -290.0 412.0 -181.0 363.0 -82.0Z"/></g>
<g fill="green" transform="translate(500 100) scale(0.1 -0.1)"><path d="M0.0 0.0V-30.0H885.0V0.0ZM62.0 233.0V204.0H833.0V233.0ZM424.0 341.0V-362.0H457.0V341.0ZM708.0 194.0C684.0 146.0 637.0 75.0 603.0 31.0L625.0 20.0C661.0 61.0 703.0 125.0 736.0 178.0ZM155.0 181.0C195.0 132.0 238.0 66.0 256.0 25.0L284.0 38.0C265.0 78.0 222.0 145.0 181.0 192.0ZM406.0 -10.0C317.0 -144.0 143.0 -276.0 -9.0 -333.0C-2.0 -340.0 8.0 -349.0 13.0 -357.0C161.0 -294.0 339.0 -162.0 430.0 -20.0ZM481.0 -11.0 454.0 -23.0C540.0 -163.0 710.0 -282.0 866.0 -338.0C871.0 -330.0 881.0 -317.0 887.0 -313.0C730.0 -262.0 565.0 -145.0 481.0 -11.0Z"/></g>
<g fill="green" transform="translate(600 100) scale(0.1 -0.1)"><path d="M0.0 0.0V-132.0H895.0V0.0ZM56.0 249.0V118.0H846.0V249.0ZM373.0 312.0V-414.0H516.0V312.0ZM633.0 139.0C622.0 106.0 598.0 61.0 578.0 30.0L703.0 -7.0C724.0 18.0 751.0 57.0 779.0 101.0ZM123.0 95.0C145.0 62.0 163.0 15.0 166.0 -15.0L300.0 28.0C295.0 60.0 273.0 104.0 248.0 135.0ZM333.0 -60.0C255.0 -164.0 107.0 -262.0 -43.0 -311.0C-11.0 -340.0 34.0 -392.0 57.0 -428.0C210.0 -360.0 358.0 -242.0 448.0 -106.0ZM550.0 -58.0 440.0 -103.0C530.0 -238.0 673.0 -355.0 828.0 -417.0C849.0 -379.0 894.0 -321.0 928.0 -292.0C776.0 -246.0 627.0 -157.0 550.0 -58.0Z"/></g>
<g fill="green" transform="translate(700 100) scale(0.1 -0.1)"><path d="M0.0 0.0V-38.0H744.0V0.0ZM33.0 433.0V394.0H712.0V433.0ZM338.0 596.0V-601.0H377.0V596.0ZM596.0 317.0C571.0 244.0 523.0 134.0 487.0 66.0L519.0 52.0C556.0 119.0 599.0 220.0 632.0 302.0ZM87.0 300.0C123.0 222.0 163.0 121.0 182.0 56.0L215.0 71.0C198.0 134.0 155.0 236.0 120.0 312.0ZM330.0 -29.0C249.0 -198.0 81.0 -368.0 -58.0 -454.0C-50.0 -460.0 -39.0 -474.0 -35.0 -484.0C107.0 -395.0 273.0 -215.0 359.0 -44.0ZM377.0 -28.0 350.0 -42.0C444.0 -199.0 618.0 -391.0 745.0 -479.0C753.0 -470.0 766.0 -456.0 775.0 -450.0C645.0 -368.0 470.0 -182.0 377.0 -28.0Z"/></g>
<g fill="green" transform="translate(800 100) scale(0.1 -0.1)"><path d="M0.0 0.0V-167.0H791.0V0.0ZM39.0 423.0V255.0H746.0V423.0ZM298.0 560.0V-696.0H483.0V560.0ZM584.0 260.0C563.0 188.0 522.0 90.0 489.0 26.0L612.0 -33.0C649.0 23.0 696.0 110.0 743.0 191.0ZM51.0 198.0C84.0 125.0 126.0 29.0 143.0 -33.0L286.0 45.0C265.0 104.0 224.0 194.0 187.0 265.0ZM267.0 -114.0C209.0 -222.0 95.0 -346.0 -24.0 -417.0C4.0 -468.0 43.0 -548.0 58.0 -602.0C198.0 -512.0 314.0 -338.0 395.0 -183.0ZM519.0 -119.0 380.0 -169.0C452.0 -330.0 569.0 -496.0 691.0 -593.0C721.0 -546.0 780.0 -481.0 822.0 -448.0C702.0 -373.0 582.0 -242.0 519.0 -119.0Z"/></g>
<g fill="red" transform="translate(100 200) scale(0.1 -0.1)"><path d="M0.0 0.0V-29.0H627.0V0.0ZM27.0 322.0V292.0H602.0V322.0ZM289.0 442.0V-448.0H318.0V442.0ZM500.0 237.0C480.0 181.0 442.0 97.0 414.0 46.0L438.0 35.0C467.0 86.0 502.0 161.0 528.0 224.0ZM78.0 221.0C107.0 163.0 139.0 87.0 154.0 38.0L180.0 49.0C167.0 97.0 133.0 173.0 104.0 231.0ZM281.0 -21.0C217.0 -146.0 86.0 -272.0 -23.0 -334.0C-16.0 -340.0 -8.0 -352.0 -3.0 -360.0C108.0 -295.0 237.0 -161.0 305.0 -33.0ZM328.0 -24.0 305.0 -36.0C378.0 -154.0 514.0 -293.0 616.0 -357.0C622.0 -350.0 632.0 -339.0 640.0 -333.0C536.0 -274.0 399.0 -139.0 328.0 -24.0Z"/></g>
<g fill="black" opacity=".8" transform="translate(100 200) scale(0.1 -0.1)"><path d="M0.0 0.0V-29.0H627.0V0.0ZM30.0 320.0V289.0H597.0V320.0ZM288.0 442.0V-448.0H318.0V442.0ZM500.0 237.0C480.0 182.0 441.0 99.0 412.0 48.0L437.0 37.0C467.0 87.0 500.0 163.0 527.0 225.0ZM81.0 224.0C110.0 165.0 142.0 89.0 157.0 40.0L183.0 52.0C170.0 99.0 135.0 177.0 107.0 233.0ZM281.0 -21.0C214.0 -150.0 76.0 -278.0 -38.0 -343.0C-32.0 -347.0 -23.0 -358.0 -20.0 -365.0C95.0 -299.0 232.0 -164.0 303.0 -32.0ZM322.0 -20.0 300.0 -32.0C376.0 -154.0 517.0 -298.0 625.0 -364.0C631.0 -357.0 641.0 -345.0 648.0 -341.0C538.0 -280.0 397.0 -141.0 322.0 -20.0Z"/></g>
<g fill="red" transform="translate(200 200) scale(0.1 -0.1)"><path d="M0.0 0.0V-120.0H667.0V0.0ZM36.0 317.0V197.0H635.0V317.0ZM257.0 416.0V-520.0H394.0V416.0ZM491.0 199.0C474.0 138.0 439.0 56.0 411.0 3.0L509.0 -42.0C540.0 6.0 579.0 80.0 616.0 148.0ZM47.0 147.0C72.0 93.0 103.0 21.0 115.0 -25.0L228.0 33.0C213.0 77.0 182.0 145.0 155.0 197.0ZM219.0 -85.0C172.0 -169.0 75.0 -263.0 -26.0 -320.0C-2.0 -359.0 31.0 -421.0 45.0 -464.0C165.0 -395.0 264.0 -263.0 336.0 -143.0ZM423.0 -85.0 314.0 -126.0C378.0 -252.0 481.0 -377.0 589.0 -448.0C612.0 -412.0 657.0 -359.0 690.0 -333.0C584.0 -278.0 478.0 -180.0 423.0 -85.0Z"/></g>
<g fill="black" opacity=".8" transform="translate(200 200) scale(0.1 -0.1)"><path d="M0.0 0.0V-129.0H662.0V0.0ZM36.0 315.0V186.0H622.0V315.0ZM256.0 414.0V-518.0H399.0V414.0ZM485.0 192.0C468.0 138.0 437.0 66.0 412.0 18.0L511.0 -26.0C540.0 15.0 575.0 80.0 611.0 140.0ZM55.0 145.0C80.0 91.0 111.0 20.0 123.0 -26.0L237.0 32.0C222.0 77.0 191.0 143.0 163.0 195.0ZM230.0 -82.0C179.0 -167.0 82.0 -262.0 -18.0 -315.0C5.0 -353.0 37.0 -413.0 51.0 -454.0C165.0 -386.0 264.0 -256.0 331.0 -135.0ZM429.0 -88.0 322.0 -127.0C383.0 -252.0 481.0 -377.0 585.0 -449.0C608.0 -412.0 653.0 -361.0 686.0 -335.0C584.0 -280.0 483.0 -182.0 429.0 -88.0Z"/></g>
<g fill="red" transform="translate(300 200) scale(0.1 -0.1)"><path d="M0.0 0.0V-29.0H627.0V0.0ZM27.0 322.0V292.0H602.0V322.0ZM289.0 447.0V-452.0H318.0V447.0ZM500.0 239.0C480.0 184.0 442.0 100.0 414.0 49.0L438.0 38.0C467.0 89.0 502.0 165.0 528.0 227.0ZM78.0 226.0C107.0 168.0 139.0 91.0 154.0 42.0L180.0 54.0C166.0 102.0 132.0 178.0 103.0 236.0ZM281.0 -21.0C213.0 -152.0 74.0 -283.0 -40.0 -347.0C-34.0 -351.0 -26.0 -362.0 -23.0 -370.0C94.0 -302.0 231.0 -166.0 303.0 -33.0ZM320.0 -19.0 298.0 -30.0C375.0 -155.0 518.0 -301.0 626.0 -368.0C632.0 -360.0 642.0 -350.0 649.0 -345.0C539.0 -283.0 395.0 -141.0 320.0 -19.0Z"/></g>
<g fill="black" opacity=".8" transform="translate(300 200) scale(0.1 -0.1)"><path d="M0.0 0.0V-30.0H627.0V0.0ZM30.0 323.0V293.0H598.0V323.0ZM288.0 447.0V-453.0H318.0V447.0ZM500.0 239.0C480.0 184.0 441.0 100.0 412.0 49.0L437.0 38.0C467.0 88.0 501.0 165.0 527.0 227.0ZM80.0 226.0C109.0 167.0 142.0 90.0 157.0 41.0L182.0 52.0C169.0 100.0 134.0 178.0 106.0 235.0ZM281.0 -21.0C214.0 -151.0 76.0 -280.0 -39.0 -344.0C-32.0 -349.0 -24.0 -360.0 -21.0 -367.0C95.0 -300.0 232.0 -165.0 303.0 -32.0ZM322.0 -21.0 300.0 -32.0C376.0 -155.0 518.0 -300.0 626.0 -367.0C632.0 -360.0 643.0 -348.0 649.0 -344.0C540.0 -282.0 397.0 -142.0 322.0 -21.0Z"/></g>
<g fill="red" transform="translate(400 200) scale(0.1 -0.1)"><path d="M0.0 0.0V-131.0H666.0V0.0ZM39.0 317.0V185.0H620.0V317.0ZM255.0 419.0V-522.0H399.0V419.0ZM488.0 195.0C471.0 144.0 439.0 74.0 413.0 29.0L511.0 -17.0C540.0 23.0 576.0 84.0 614.0 142.0ZM57.0 146.0C82.0 92.0 113.0 20.0 125.0 -26.0L239.0 32.0C224.0 77.0 193.0 144.0 165.0 197.0ZM233.0 -83.0C183.0 -168.0 87.0 -262.0 -12.0 -315.0C10.0 -352.0 41.0 -413.0 54.0 -453.0C166.0 -385.0 263.0 -255.0 329.0 -134.0ZM430.0 -90.0 323.0 -129.0C385.0 -255.0 485.0 -379.0 589.0 -451.0C612.0 -415.0 656.0 -364.0 688.0 -338.0C586.0 -283.0 483.0 -185.0 430.0 -90.0Z"/></g>
<g fill="black" opacity=".8" transform="translate(400 200) scale(0.1 -0.1)"><path d="M0.0 0.0V-129.0H664.0V0.0ZM37.0 318.0V188.0H624.0V318.0ZM256.0 419.0V-524.0H400.0V419.0ZM486.0 194.0C470.0 140.0 438.0 66.0 413.0 18.0L512.0 -27.0C541.0 15.0 577.0 80.0 613.0 142.0ZM54.0 147.0C80.0 92.0 112.0 20.0 124.0 -27.0L238.0 32.0C223.0 77.0 192.0 144.0 163.0 198.0ZM230.0 -82.0C180.0 -167.0 83.0 -263.0 -17.0 -316.0C6.0 -355.0 38.0 -415.0 52.0 -456.0C166.0 -388.0 265.0 -257.0 332.0 -136.0ZM431.0 -89.0 323.0 -129.0C384.0 -254.0 483.0 -380.0 587.0 -452.0C610.0 -415.0 655.0 -363.0 688.0 -337.0C585.0 -282.0 485.0 -184.0 431.0 -89.0Z"/></g>
<g fill="red" transform="translate(500 200) scale(0.1 -0.1)"><path d="M0.0 0.0V-29.0H627.0V0.0ZM27.0 322.0V292.0H602.0V322.0ZM289.0 447.0V-452.0H318.0V447.0ZM500.0 239.0C480.0 184.0 442.0 100.0 414.0 49.0L438.0 38.0C467.0 89.0 502.0 165.0 528.0 227.0ZM78.0 226.0C107.0 168.0 139.0 91.0 154.0 42.0L180.0 54.0C166.0 102.0 132.0 178.0 103.0 236.0ZM281.0 -21.0C213.0 -152.0 74.0 -283.0 -40.0 -347.0C-34.0 -351.0 -26.0 -362.0 -23.0 -370.0C94.0 -302.0 231.0 -166.0 303.0 -33.0ZM320.0 -19.0 298.0 -30.0C375.0 -155.0 518.0 -301.0 626.0 -368.0C632.0 -360.0 642.0 -350.0 649.0 -345.0C539.0 -283.0 395.0 -141.0 320.0 -19.0Z"/></g>
<g fill="black" opacity=".8" transform="translate(500 200) scale(0.1 -0.1)"><path d="M0.0 0.0V-30.0H628.0V0.0ZM30.0 323.0V293.0H599.0V323.0ZM289.0 446.0V-452.0H318.0V446.0ZM500.0 239.0C480.0 183.0 441.0 100.0 412.0 49.0L437.0 38.0C467.0 88.0 501.0 165.0 528.0 227.0ZM80.0 226.0C110.0 167.0 142.0 90.0 157.0 41.0L182.0 52.0C169.0 100.0 134.0 178.0 106.0 235.0ZM281.0 -21.0C214.0 -150.0 76.0 -279.0 -38.0 -344.0C-32.0 -348.0 -24.0 -359.0 -20.0 -366.0C95.0 -300.0 232.0 -165.0 304.0 -32.0ZM322.0 -21.0 300.0 -32.0C377.0 -155.0 519.0 -300.0 627.0 -366.0C632.0 -359.0 643.0 -348.0 650.0 -343.0C540.0 -281.0 398.0 -141.0 322.0 -21.0Z"/></g>
<g fill="red" transform="translate(600 200) scale(0.1 -0.1)"><path d="M0.0 0.0V-131.0H666.0V0.0ZM39.0 317.0V185.0H620.0V317.0ZM255.0 419.0V-522.0H399.0V419.0ZM488.0 185.0C472.0 135.0 442.0 67.0 417.0 23.0L515.0 -23.0C543.0 16.0 577.0 75.0 613.0 132.0ZM57.0 146.0C82.0 92.0 113.0 20.0 125.0 -26.0L239.0 32.0C224.0 77.0 193.0 144.0 165.0 197.0ZM233.0 -83.0C183.0 -168.0 87.0 -262.0 -12.0 -315.0C10.0 -352.0 41.0 -413.0 54.0 -453.0C166.0 -385.0 263.0 -255.0 329.0 -134.0ZM430.0 -90.0 323.0 -129.0C385.0 -255.0 485.0 -379.0 589.0 -451.0C612.0 -415.0 656.0 -364.0 688.0 -338.0C586.0 -283.0 483.0 -185.0 430.0 -90.0Z"/></g>
<g fill="black" opacity=".8" transform="translate(600 200) scale(0.1 -0.1)"><path d="M0.0 0.0V-129.0H664.0V0.0ZM37.0 318.0V188.0H624.0V318.0ZM256.0 419.0V-523.0H401.0V419.0ZM487.0 194.0C470.0 139.0 439.0 66.0 413.0 18.0L512.0 -27.0C541.0 14.0 577.0 80.0 614.0 142.0ZM55.0 146.0C80.0 92.0 112.0 20.0 124.0 -27.0L238.0 32.0C223.0 77.0 192.0 144.0 163.0 198.0ZM230.0 -82.0C180.0 -167.0 84.0 -263.0 -17.0 -316.0C7.0 -354.0 38.0 -414.0 52.0 -456.0C167.0 -387.0 265.0 -257.0 332.0 -136.0ZM432.0 -89.0 324.0 -129.0C385.0 -254.0 483.0 -379.0 587.0 -451.0C610.0 -415.0 655.0 -363.0 688.0 -337.0C586.0 -282.0 485.0 -184.0 432.0 -89.0Z"/></g>
<g fill="red" transform="translate(700 200) scale(0.1 -0.1)"><path d="M0.0 0.0V-29.0H578.0V0.0ZM35.0 322.0V292.0H539.0V322.0ZM262.0 447.0V-452.0H291.0V447.0ZM461.0 239.0C441.0 184.0 403.0 100.0 375.0 49.0L399.0 38.0C428.0 89.0 463.0 165.0 489.0 227.0ZM79.0 226.0C107.0 168.0 139.0 91.0 154.0 42.0L180.0 54.0C166.0 102.0 132.0 178.0 103.0 236.0ZM254.0 -21.0C188.0 -151.0 56.0 -282.0 -54.0 -347.0C-48.0 -351.0 -40.0 -362.0 -36.0 -370.0C77.0 -302.0 208.0 -164.0 276.0 -32.0ZM293.0 -19.0 271.0 -30.0C345.0 -154.0 482.0 -301.0 586.0 -368.0C592.0 -360.0 602.0 -350.0 609.0 -345.0C503.0 -283.0 365.0 -141.0 293.0 -19.0Z"/></g>
<g fill="black" opacity=".8" transform="translate(700 200) scale(0.1 -0.1)"><path d="M0.0 0.0V-29.0H575.0V0.0ZM27.0 324.0V294.0H550.0V324.0ZM263.0 447.0V-451.0H292.0V447.0ZM463.0 238.0C443.0 183.0 406.0 100.0 378.0 49.0L402.0 38.0C431.0 89.0 464.0 165.0 490.0 226.0ZM70.0 225.0C98.0 167.0 129.0 90.0 143.0 42.0L168.0 53.0C155.0 101.0 122.0 178.0 95.0 234.0ZM256.0 -21.0C194.0 -150.0 65.0 -280.0 -43.0 -346.0C-37.0 -351.0 -28.0 -362.0 -25.0 -369.0C84.0 -301.0 211.0 -164.0 278.0 -32.0ZM293.0 -20.0 272.0 -32.0C343.0 -151.0 476.0 -296.0 575.0 -363.0C581.0 -356.0 591.0 -344.0 598.0 -340.0C497.0 -278.0 364.0 -139.0 293.0 -20.0Z"/></g>
<g fill="red" transform="translate(800 200) scale(0.1 -0.1)"><path d="M0.0 0.0V-131.0H598.0V0.0ZM26.0 317.0V185.0H571.0V317.0ZM232.0 419.0V-522.0H376.0V419.0ZM437.0 197.0C424.0 143.0 397.0 70.0 374.0 22.0L473.0 -23.0C498.0 20.0 529.0 84.0 563.0 145.0ZM45.0 146.0C70.0 92.0 101.0 20.0 113.0 -26.0L227.0 32.0C212.0 77.0 181.0 144.0 153.0 197.0ZM210.0 -83.0C164.0 -167.0 72.0 -261.0 -22.0 -315.0C0.0 -353.0 31.0 -413.0 44.0 -453.0C151.0 -384.0 244.0 -253.0 306.0 -132.0ZM407.0 -90.0 300.0 -127.0C351.0 -251.0 435.0 -376.0 527.0 -449.0C549.0 -414.0 595.0 -363.0 626.0 -338.0C539.0 -282.0 452.0 -184.0 407.0 -90.0Z"/></g>
<g fill="black" opacity=".8" transform="translate(800 200) scale(0.1 -0.1)"><path d="M0.0 0.0V-128.0H608.0V0.0ZM29.0 317.0V189.0H575.0V317.0ZM230.0 419.0V-522.0H371.0V419.0ZM448.0 194.0C432.0 141.0 403.0 69.0 378.0 22.0L472.0 -22.0C500.0 18.0 534.0 83.0 570.0 143.0ZM41.0 147.0C66.0 93.0 97.0 23.0 109.0 -24.0L218.0 35.0C203.0 78.0 172.0 145.0 145.0 197.0ZM206.0 -86.0C160.0 -169.0 71.0 -265.0 -22.0 -318.0C0.0 -357.0 30.0 -417.0 43.0 -458.0C150.0 -389.0 242.0 -257.0 304.0 -138.0ZM397.0 -88.0 292.0 -127.0C348.0 -249.0 439.0 -375.0 533.0 -449.0C556.0 -414.0 601.0 -364.0 633.0 -339.0C540.0 -282.0 446.0 -182.0 397.0 -88.0Z"/></g>
<g fill="red" transform="translate(900 200) scale(0.1 -0.1)"><path d="M0.0 0.0V-29.0H883.0V0.0ZM58.0 241.0V212.0H830.0V241.0ZM422.0 350.0V-369.0H452.0V350.0ZM698.0 197.0C674.0 149.0 629.0 76.0 596.0 32.0L618.0 21.0C653.0 63.0 694.0 128.0 726.0 182.0ZM151.0 184.0C190.0 135.0 231.0 68.0 249.0 26.0L276.0 39.0C259.0 80.0 216.0 147.0 177.0 195.0ZM404.0 -11.0C315.0 -140.0 141.0 -265.0 -9.0 -319.0C-2.0 -325.0 7.0 -335.0 12.0 -343.0C160.0 -283.0 336.0 -158.0 428.0 -22.0ZM476.0 -12.0 449.0 -24.0C538.0 -161.0 711.0 -282.0 867.0 -338.0C872.0 -330.0 882.0 -318.0 889.0 -313.0C732.0 -262.0 562.0 -143.0 476.0 -12.0Z"/></g>
<g fill="black" opacity=".8" transform="translate(900 200) scale(0.1 -0.1)"><path d="M0.0 0.0V-29.0H882.0V0.0ZM58.0 241.0V212.0H831.0V241.0ZM421.0 349.0V-369.0H453.0V349.0ZM698.0 197.0C675.0 149.0 629.0 77.0 596.0 33.0L618.0 22.0C653.0 63.0 694.0 128.0 726.0 182.0ZM150.0 184.0C189.0 134.0 230.0 68.0 248.0 26.0L275.0 39.0C257.0 79.0 215.0 147.0 176.0 195.0ZM404.0 -11.0C316.0 -140.0 142.0 -265.0 -8.0 -319.0C-1.0 -326.0 9.0 -335.0 13.0 -343.0C160.0 -283.0 337.0 -158.0 428.0 -22.0ZM476.0 -13.0 450.0 -25.0C538.0 -161.0 711.0 -281.0 865.0 -337.0C870.0 -329.0 881.0 -316.0 887.0 -312.0C731.0 -261.0 562.0 -143.0 476.0 -13.0Z"/></g>
<g fill="red" transform="translate(1000 200) scale(0.1 -0.1)"><path d="M0.0 0.0V-130.0H901.0V0.0ZM62.0 255.0V126.0H846.0V255.0ZM376.0 321.0V-422.0H520.0V321.0ZM639.0 145.0C626.0 107.0 600.0 56.0 578.0 21.0L701.0 -18.0C724.0 12.0 753.0 56.0 784.0 104.0ZM127.0 101.0C150.0 63.0 170.0 11.0 175.0 -22.0L309.0 24.0C302.0 59.0 278.0 107.0 252.0 143.0ZM337.0 -56.0C262.0 -155.0 117.0 -248.0 -28.0 -296.0C3.0 -325.0 46.0 -379.0 68.0 -414.0C218.0 -350.0 362.0 -235.0 452.0 -104.0ZM560.0 -64.0 450.0 -108.0C539.0 -241.0 679.0 -353.0 832.0 -411.0C853.0 -374.0 897.0 -316.0 930.0 -287.0C780.0 -245.0 635.0 -160.0 560.0 -64.0Z"/></g>
<g fill="black" opacity=".8" transform="translate(1000 200) scale(0.1 -0.1)"><path d="M0.0 0.0V-129.0H903.0V0.0ZM62.0 255.0V126.0H847.0V255.0ZM376.0 321.0V-423.0H520.0V321.0ZM640.0 144.0C627.0 107.0 600.0 55.0 578.0 20.0L701.0 -18.0C724.0 11.0 755.0 56.0 785.0 104.0ZM126.0 101.0C149.0 64.0 170.0 12.0 174.0 -22.0L308.0 24.0C301.0 59.0 277.0 108.0 251.0 143.0ZM337.0 -56.0C261.0 -155.0 117.0 -249.0 -28.0 -297.0C3.0 -326.0 46.0 -379.0 68.0 -415.0C219.0 -350.0 362.0 -235.0 452.0 -105.0ZM559.0 -64.0 450.0 -108.0C538.0 -240.0 679.0 -353.0 833.0 -412.0C854.0 -374.0 898.0 -316.0 932.0 -287.0C780.0 -244.0 635.0 -160.0 559.0 -64.0Z"/></g>
<g fill="red" transform="translate(1100 200) scale(0.1 -0.1)"><path d="M0.0 0.0V-30.0H543.0V0.0ZM28.0 322.0V292.0H523.0V322.0ZM248.0 447.0V-452.0H280.0V447.0ZM451.0 239.0C431.0 184.0 393.0 100.0 365.0 49.0L389.0 38.0C418.0 89.0 453.0 165.0 479.0 227.0ZM67.0 226.0C95.0 168.0 127.0 91.0 142.0 42.0L169.0 54.0C154.0 102.0 120.0 178.0 91.0 236.0ZM241.0 -21.0C181.0 -158.0 58.0 -303.0 -47.0 -374.0C-41.0 -379.0 -32.0 -390.0 -28.0 -398.0C78.0 -323.0 201.0 -172.0 264.0 -32.0ZM280.0 -19.0 258.0 -30.0C323.0 -154.0 446.0 -300.0 540.0 -368.0C546.0 -360.0 555.0 -350.0 562.0 -345.0C467.0 -282.0 344.0 -140.0 280.0 -19.0Z"/></g>
<g fill="black" opacity=".8" transform="translate(1100 200) scale(0.1 -0.1)"><path d="M0.0 0.0V-30.0H543.0V0.0ZM30.0 322.0V292.0H520.0V322.0ZM248.0 447.0V-452.0H280.0V447.0ZM451.0 239.0C431.0 184.0 392.0 100.0 364.0 49.0L388.0 38.0C418.0 89.0 452.0 165.0 479.0 227.0ZM69.0 226.0C97.0 168.0 129.0 91.0 144.0 42.0L171.0 54.0C156.0 102.0 122.0 179.0 93.0 236.0ZM241.0 -21.0C181.0 -158.0 57.0 -302.0 -49.0 -374.0C-43.0 -379.0 -34.0 -390.0 -30.0 -397.0C76.0 -323.0 200.0 -172.0 264.0 -31.0ZM280.0 -19.0 258.0 -30.0C323.0 -154.0 447.0 -301.0 542.0 -369.0C548.0 -361.0 557.0 -350.0 564.0 -346.0C468.0 -282.0 345.0 -141.0 280.0 -19.0Z"/></g>
<g fill="red" transform="translate(1200 200) scale(0.1 -0.1)"><path d="M0.0 0.0V-131.0H563.0V0.0ZM16.0 317.0V185.0H543.0V317.0ZM208.0 419.0V-522.0H346.0V419.0ZM417.0 192.0C404.0 145.0 377.0 80.0 355.0 39.0L449.0 -5.0C474.0 32.0 504.0 88.0 537.0 142.0ZM25.0 143.0C48.0 95.0 75.0 29.0 87.0 -12.0L194.0 42.0C180.0 82.0 152.0 144.0 127.0 191.0ZM183.0 -97.0C138.0 -187.0 49.0 -289.0 -45.0 -347.0C-23.0 -385.0 9.0 -445.0 22.0 -486.0C128.0 -412.0 220.0 -272.0 280.0 -145.0ZM361.0 -82.0 255.0 -122.0C311.0 -248.0 402.0 -383.0 492.0 -464.0C515.0 -429.0 561.0 -380.0 593.0 -354.0C505.0 -290.0 410.0 -181.0 361.0 -82.0Z"/></g>
<g fill="black" opacity=".8" transform="translate(1200 200) scale(0.1 -0.1)"><path d="M0.0 0.0V-132.0H561.0V0.0ZM15.0 317.0V184.0H542.0V317.0ZM208.0 419.0V-522.0H348.0V419.0ZM415.0 193.0C402.0 145.0 376.0 80.0 354.0 38.0L449.0 -5.0C474.0 31.0 503.0 88.0 536.0 143.0ZM25.0 143.0C49.0 95.0 76.0 29.0 88.0 -13.0L195.0 42.0C181.0 82.0 153.0 144.0 128.0 191.0ZM184.0 -96.0C138.0 -186.0 49.0 -289.0 -46.0 -346.0C-23.0 -385.0 9.0 -444.0 22.0 -486.0C128.0 -411.0 221.0 -272.0 281.0 -144.0ZM363.0 -82.0 257.0 -122.0C312.0 -248.0 401.0 -383.0 490.0 -464.0C513.0 -429.0 560.0 -380.0 592.0 -354.0C505.0 -290.0 412.0 -181.0 363.0 -82.0Z"/></g>
</svg>
