<?xml version="1.0" encoding="UTF-8"?>
<svg width="1700" height="400" xmlns="http://www.w3.org/2000/svg">
<rect width="100%" height="100%" fill="white"/>
<g fill="green" transform="translate(100 100) scale(0.1 -0.1)"><path d="M0.0 0.0V-30.0H889.0V-0.0ZM195.0 -355.0V-386.0H679.0V-355.0ZM423.0 174.0V-611.0H454.0V174.0ZM391.0 -11.0C299.0 -190.0 122.0 -367.0 -40.0 -445.0C-32.0 -451.0 -23.0 -461.0 -17.0 -471.0C145.0 -385.0 323.0 -208.0 418.0 -24.0ZM487.0 -11.0 459.0 -23.0C554.0 -197.0 729.0 -374.0 880.0 -461.0C887.0 -451.0 896.0 -439.0 905.0 -433.0C752.0 -354.0 578.0 -181.0 487.0 -11.0Z"/></g>
<g fill="green" transform="translate(200 100) scale(0.1 -0.1)"><path d="M0.0 0.0V-138.0H890.0V0.0ZM184.0 -347.0V-478.0H675.0V-347.0ZM351.0 151.0V-635.0H507.0V151.0ZM344.0 -68.0C257.0 -176.0 91.0 -289.0 -59.0 -350.0C-26.0 -378.0 22.0 -435.0 45.0 -471.0C196.0 -393.0 355.0 -256.0 454.0 -117.0ZM519.0 -74.0 408.0 -122.0C507.0 -267.0 662.0 -400.0 823.0 -471.0C847.0 -431.0 895.0 -371.0 931.0 -340.0C770.0 -287.0 605.0 -182.0 519.0 -74.0Z"/></g>
<g fill="green" transform="translate(300 100) scale(0.1 -0.1)"><path d="M0.0 0.0V-24.0H758.0V-0.0ZM174.0 -264.0V-288.0H572.0V-264.0ZM362.0 130.0V-470.0H387.0V130.0ZM337.0 -9.0C258.0 -150.0 106.0 -287.0 -32.0 -347.0C-26.0 -352.0 -19.0 -360.0 -14.0 -368.0C124.0 -302.0 277.0 -164.0 359.0 -20.0ZM412.0 -9.0 390.0 -19.0C472.0 -154.0 623.0 -292.0 749.0 -360.0C755.0 -351.0 762.0 -342.0 769.0 -337.0C641.0 -276.0 491.0 -141.0 412.0 -9.0Z"/></g>
<g fill="green" transform="translate(400 100) scale(0.1 -0.1)"><path d="M0.0 0.0V-109.0H757.0V0.0ZM160.0 -249.0V-352.0H571.0V-249.0ZM302.0 117.0V-475.0H428.0V117.0ZM303.0 -53.0C227.0 -128.0 82.0 -206.0 -45.0 -248.0C-19.0 -271.0 19.0 -317.0 37.0 -345.0C164.0 -291.0 304.0 -194.0 391.0 -95.0ZM431.0 -59.0 342.0 -100.0C429.0 -206.0 565.0 -299.0 704.0 -347.0C722.0 -315.0 760.0 -265.0 789.0 -240.0C650.0 -206.0 506.0 -135.0 431.0 -59.0Z"/></g>
<g fill="green" transform="translate(500 100) scale(0.1 -0.1)"><path d="M0.0 0.0V-35.0H627.0V0.0ZM74.0 -545.0V-581.0H519.0V-545.0ZM285.0 293.0V-850.0H320.0V293.0ZM237.0 -13.0C179.0 -244.0 69.0 -490.0 -45.0 -603.0C-36.0 -608.0 -25.0 -620.0 -19.0 -629.0C97.0 -504.0 208.0 -263.0 267.0 -23.0ZM373.0 -12.0 341.0 -20.0C395.0 -260.0 497.0 -503.0 621.0 -623.0C628.0 -613.0 640.0 -600.0 650.0 -593.0C528.0 -485.0 425.0 -246.0 373.0 -12.0Z"/></g>
<g fill="green" transform="translate(600 100) scale(0.1 -0.1)"><path d="M0.0 0.0V-167.0H635.0V0.0ZM86.0 -576.0V-732.0H506.0V-576.0ZM217.0 267.0V-947.0H386.0V267.0ZM187.0 -90.0C138.0 -268.0 42.0 -456.0 -72.0 -561.0C-36.0 -590.0 19.0 -650.0 46.0 -689.0C165.0 -558.0 253.0 -339.0 307.0 -121.0ZM415.0 -91.0 299.0 -124.0C351.0 -334.0 437.0 -552.0 549.0 -681.0C577.0 -637.0 633.0 -578.0 672.0 -548.0C561.0 -444.0 465.0 -262.0 415.0 -91.0Z"/></g>
<g fill="green" transform="translate(700 100) scale(0.1 -0.1)"><path d="M0.0 0.0V-27.0H894.0V0.0ZM215.0 -317.0V-345.0H674.0V-317.0ZM432.0 196.0V-553.0H459.0V196.0ZM424.0 -10.0C324.0 -187.0 131.0 -357.0 -45.0 -432.0C-37.0 -437.0 -29.0 -446.0 -25.0 -455.0C152.0 -374.0 344.0 -204.0 449.0 -23.0ZM467.0 -10.0 441.0 -22.0C540.0 -194.0 724.0 -361.0 888.0 -440.0C895.0 -432.0 903.0 -420.0 910.0 -415.0C745.0 -342.0 562.0 -177.0 467.0 -10.0Z"/></g>
<g fill="green" transform="translate(800 100) scale(0.1 -0.1)"><path d="M0.0 0.0V-126.0H895.0V0.0ZM237.0 -332.0V-448.0H642.0V-332.0ZM367.0 160.0V-591.0H504.0V160.0ZM330.0 -57.0C253.0 -193.0 102.0 -340.0 -40.0 -422.0C-9.0 -447.0 38.0 -499.0 60.0 -532.0C203.0 -432.0 344.0 -265.0 432.0 -97.0ZM553.0 -70.0 449.0 -111.0C534.0 -269.0 664.0 -431.0 795.0 -527.0C820.0 -489.0 868.0 -436.0 903.0 -407.0C770.0 -329.0 628.0 -194.0 553.0 -70.0Z"/></g>
<g fill="green" transform="translate(900 100) scale(0.1 -0.1)"><path d="M0.0 0.0V-31.0H904.0V0.0ZM181.0 -353.0V-385.0H689.0V-353.0ZM422.0 164.0V-601.0H453.0V164.0ZM378.0 -11.0C282.0 -182.0 98.0 -350.0 -68.0 -425.0C-60.0 -431.0 -50.0 -442.0 -44.0 -452.0C121.0 -370.0 309.0 -201.0 408.0 -25.0ZM493.0 -11.0 462.0 -24.0C563.0 -191.0 749.0 -362.0 906.0 -446.0C914.0 -436.0 923.0 -423.0 931.0 -416.0C774.0 -340.0 589.0 -174.0 493.0 -11.0Z"/></g>
<g fill="green" transform="translate(1000 100) scale(0.1 -0.1)"><path d="M0.0 0.0V-143.0H872.0V0.0ZM147.0 -350.0V-486.0H677.0V-350.0ZM322.0 130.0V-634.0H492.0V130.0ZM302.0 -66.0C210.0 -175.0 34.0 -289.0 -124.0 -354.0C-87.0 -385.0 -33.0 -448.0 -7.0 -488.0C152.0 -405.0 320.0 -264.0 426.0 -121.0ZM523.0 -77.0 397.0 -129.0C498.0 -280.0 655.0 -416.0 819.0 -494.0C847.0 -449.0 901.0 -383.0 941.0 -349.0C778.0 -291.0 611.0 -186.0 523.0 -77.0Z"/></g>
<g fill="green" transform="translate(1100 100) scale(0.1 -0.1)"><path d="M0.0 0.0V-32.0H854.0V0.0ZM179.0 -342.0V-373.0H683.0V-342.0ZM409.0 158.0V-613.0H442.0V158.0ZM367.0 -11.0C282.0 -180.0 116.0 -348.0 -35.0 -422.0C-27.0 -430.0 -18.0 -439.0 -11.0 -448.0C139.0 -366.0 306.0 -198.0 395.0 -25.0ZM484.0 -12.0 456.0 -24.0C547.0 -182.0 716.0 -349.0 851.0 -433.0C857.0 -424.0 867.0 -412.0 877.0 -406.0C738.0 -331.0 571.0 -167.0 484.0 -12.0Z"/></g>
<g fill="green" transform="translate(1200 100) scale(0.1 -0.1)"><path d="M0.0 0.0V-138.0H904.0V0.0ZM195.0 -371.0V-507.0H690.0V-371.0ZM362.0 101.0V-669.0H524.0V101.0ZM351.0 -77.0C265.0 -186.0 100.0 -295.0 -56.0 -352.0C-21.0 -382.0 28.0 -443.0 52.0 -481.0C209.0 -406.0 369.0 -271.0 468.0 -127.0ZM539.0 -70.0 420.0 -120.0C521.0 -274.0 677.0 -410.0 850.0 -482.0C874.0 -440.0 924.0 -377.0 961.0 -344.0C791.0 -292.0 625.0 -184.0 539.0 -70.0Z"/></g>
<g fill="green" transform="translate(1300 100) scale(0.1 -0.1)"><path d="M0.0 0.0V-30.0H907.0V-0.0ZM209.0 -401.0V-433.0H674.0V-401.0ZM427.0 134.0V-608.0H458.0V134.0ZM406.0 -11.0C316.0 -184.0 143.0 -352.0 -16.0 -428.0C-7.0 -433.0 3.0 -444.0 8.0 -454.0C166.0 -371.0 341.0 -201.0 434.0 -23.0ZM486.0 -11.0 456.0 -23.0C554.0 -193.0 733.0 -367.0 882.0 -455.0C890.0 -444.0 899.0 -432.0 909.0 -426.0C757.0 -347.0 579.0 -177.0 486.0 -11.0Z"/></g>
<g fill="green" transform="translate(1400 100) scale(0.1 -0.1)"><path d="M0.0 0.0V-137.0H872.0V0.0ZM175.0 -353.0V-484.0H679.0V-353.0ZM349.0 114.0V-619.0H500.0V114.0ZM344.0 -64.0C259.0 -177.0 98.0 -298.0 -45.0 -363.0C-15.0 -390.0 30.0 -442.0 52.0 -475.0C195.0 -394.0 352.0 -251.0 448.0 -111.0ZM503.0 -72.0 402.0 -118.0C504.0 -263.0 666.0 -401.0 826.0 -471.0C847.0 -435.0 889.0 -383.0 922.0 -355.0C762.0 -300.0 591.0 -186.0 503.0 -72.0Z"/></g>
<g fill="red" transform="translate(100 200) scale(0.1 -0.1)"><path d="M0.0 0.0V-30.0H663.0V0.0ZM113.0 -442.0V-472.0H529.0V-442.0ZM311.0 224.0V-671.0H340.0V224.0ZM285.0 -11.0C220.0 -198.0 96.0 -390.0 -25.0 -478.0C-17.0 -483.0 -7.0 -493.0 -3.0 -501.0C119.0 -404.0 243.0 -214.0 310.0 -20.0ZM370.0 -10.0 342.0 -19.0C406.0 -212.0 526.0 -405.0 650.0 -498.0C657.0 -490.0 667.0 -479.0 675.0 -474.0C550.0 -388.0 431.0 -198.0 370.0 -10.0Z"/></g>
<g fill="black" opacity=".8" transform="translate(100 200) scale(0.1 -0.1)"><path d="M0.0 0.0V-30.0H658.0V0.0ZM113.0 -457.0V-488.0H522.0V-457.0ZM304.0 218.0V-680.0H333.0V218.0ZM281.0 -11.0C215.0 -199.0 89.0 -390.0 -34.0 -479.0C-26.0 -484.0 -16.0 -494.0 -12.0 -501.0C112.0 -405.0 240.0 -215.0 309.0 -21.0ZM361.0 -11.0 331.0 -19.0C398.0 -211.0 523.0 -403.0 648.0 -499.0C656.0 -491.0 666.0 -479.0 674.0 -473.0C549.0 -387.0 424.0 -197.0 361.0 -11.0Z"/></g>
<g fill="red" transform="translate(200 200) scale(0.1 -0.1)"><path d="M0.0 0.0V-138.0H644.0V0.0ZM125.0 -497.0V-626.0H499.0V-497.0ZM238.0 159.0V-777.0H380.0V159.0ZM198.0 -67.0C149.0 -242.0 52.0 -429.0 -61.0 -535.0C-29.0 -560.0 19.0 -611.0 43.0 -645.0C160.0 -517.0 248.0 -306.0 302.0 -95.0ZM426.0 -79.0 324.0 -108.0C377.0 -307.0 463.0 -515.0 568.0 -642.0C593.0 -604.0 642.0 -554.0 676.0 -529.0C572.0 -423.0 476.0 -244.0 426.0 -79.0Z"/></g>
<g fill="black" opacity=".8" transform="translate(200 200) scale(0.1 -0.1)"><path d="M0.0 0.0V-140.0H646.0V0.0ZM131.0 -483.0V-614.0H499.0V-483.0ZM241.0 166.0V-770.0H385.0V166.0ZM191.0 -70.0C143.0 -244.0 48.0 -431.0 -62.0 -537.0C-30.0 -562.0 19.0 -614.0 43.0 -647.0C156.0 -519.0 244.0 -308.0 298.0 -98.0ZM438.0 -75.0 335.0 -105.0C389.0 -300.0 473.0 -510.0 573.0 -638.0C598.0 -600.0 647.0 -552.0 681.0 -526.0C582.0 -419.0 488.0 -238.0 438.0 -75.0Z"/></g>
<g fill="red" transform="translate(300 200) scale(0.1 -0.1)"><path d="M0.0 0.0V-29.0H601.0V0.0ZM89.0 -434.0V-464.0H482.0V-434.0ZM275.0 228.0V-667.0H304.0V228.0ZM248.0 -11.0C185.0 -197.0 65.0 -390.0 -53.0 -478.0C-45.0 -483.0 -36.0 -493.0 -30.0 -501.0C87.0 -404.0 209.0 -213.0 274.0 -20.0ZM333.0 -10.0 306.0 -19.0C367.0 -209.0 481.0 -401.0 602.0 -494.0C608.0 -486.0 618.0 -475.0 625.0 -469.0C506.0 -384.0 391.0 -196.0 333.0 -10.0Z"/></g>
<g fill="black" opacity=".8" transform="translate(300 200) scale(0.1 -0.1)"><path d="M0.0 0.0V-29.0H606.0V0.0ZM90.0 -431.0V-460.0H480.0V-431.0ZM276.0 229.0V-663.0H304.0V229.0ZM243.0 -11.0C181.0 -196.0 65.0 -387.0 -51.0 -476.0C-43.0 -480.0 -33.0 -490.0 -29.0 -497.0C87.0 -401.0 206.0 -212.0 270.0 -20.0ZM339.0 -10.0 310.0 -18.0C370.0 -209.0 482.0 -401.0 603.0 -495.0C610.0 -486.0 620.0 -475.0 627.0 -469.0C508.0 -385.0 396.0 -196.0 339.0 -10.0Z"/></g>
<g fill="red" transform="translate(400 200) scale(0.1 -0.1)"><path d="M0.0 0.0V-138.0H581.0V0.0ZM91.0 -446.0V-575.0H456.0V-446.0ZM205.0 197.0V-739.0H345.0V197.0ZM162.0 -63.0C113.0 -217.0 17.0 -383.0 -88.0 -477.0C-56.0 -502.0 -9.0 -553.0 15.0 -586.0C123.0 -471.0 211.0 -281.0 266.0 -93.0ZM390.0 -75.0 289.0 -106.0C339.0 -281.0 420.0 -468.0 511.0 -583.0C536.0 -546.0 585.0 -496.0 618.0 -471.0C527.0 -376.0 437.0 -218.0 390.0 -75.0Z"/></g>
<g fill="black" opacity=".8" transform="translate(400 200) scale(0.1 -0.1)"><path d="M0.0 0.0V-137.0H583.0V0.0ZM90.0 -451.0V-578.0H456.0V-451.0ZM201.0 199.0V-739.0H344.0V199.0ZM162.0 -67.0C114.0 -220.0 20.0 -384.0 -85.0 -478.0C-54.0 -504.0 -5.0 -555.0 18.0 -588.0C126.0 -473.0 213.0 -283.0 267.0 -96.0ZM388.0 -76.0 286.0 -106.0C335.0 -283.0 415.0 -469.0 510.0 -583.0C535.0 -545.0 584.0 -495.0 618.0 -469.0C523.0 -375.0 435.0 -219.0 388.0 -76.0Z"/></g>
<g fill="red" transform="translate(500 200) scale(0.1 -0.1)"><path d="M0.0 0.0V-29.0H654.0V0.0ZM116.0 -429.0V-459.0H509.0V-429.0ZM301.0 228.0V-667.0H330.0V228.0ZM275.0 -11.0C210.0 -198.0 86.0 -390.0 -35.0 -478.0C-27.0 -483.0 -17.0 -493.0 -13.0 -501.0C109.0 -404.0 233.0 -214.0 300.0 -20.0ZM360.0 -10.0 332.0 -19.0C396.0 -212.0 516.0 -405.0 640.0 -498.0C647.0 -490.0 657.0 -479.0 665.0 -473.0C540.0 -388.0 421.0 -198.0 360.0 -10.0Z"/></g>
<g fill="black" opacity=".8" transform="translate(500 200) scale(0.1 -0.1)"><path d="M0.0 0.0V-29.0H650.0V0.0ZM115.0 -428.0V-457.0H514.0V-428.0ZM303.0 227.0V-665.0H331.0V227.0ZM278.0 -11.0C212.0 -200.0 87.0 -393.0 -36.0 -482.0C-28.0 -486.0 -19.0 -496.0 -15.0 -504.0C110.0 -407.0 236.0 -215.0 304.0 -21.0ZM360.0 -10.0 333.0 -19.0C397.0 -211.0 517.0 -404.0 641.0 -498.0C648.0 -490.0 658.0 -478.0 666.0 -473.0C542.0 -388.0 422.0 -198.0 360.0 -10.0Z"/></g>
<g fill="red" transform="translate(600 200) scale(0.1 -0.1)"><path d="M0.0 0.0V-137.0H649.0V0.0ZM127.0 -444.0V-573.0H501.0V-444.0ZM240.0 201.0V-740.0H381.0V201.0ZM202.0 -74.0C153.0 -230.0 59.0 -395.0 -48.0 -488.0C-17.0 -513.0 30.0 -563.0 53.0 -596.0C163.0 -483.0 251.0 -293.0 304.0 -103.0ZM423.0 -75.0 324.0 -105.0C378.0 -284.0 466.0 -472.0 567.0 -584.0C592.0 -547.0 639.0 -497.0 673.0 -471.0C571.0 -379.0 474.0 -221.0 423.0 -75.0Z"/></g>
<g fill="black" opacity=".8" transform="translate(600 200) scale(0.1 -0.1)"><path d="M0.0 0.0V-136.0H648.0V0.0ZM131.0 -449.0V-576.0H493.0V-449.0ZM243.0 193.0V-739.0H383.0V193.0ZM206.0 -69.0C157.0 -225.0 58.0 -392.0 -51.0 -486.0C-21.0 -511.0 26.0 -561.0 48.0 -593.0C160.0 -478.0 252.0 -287.0 308.0 -97.0ZM422.0 -74.0 323.0 -105.0C378.0 -283.0 465.0 -472.0 567.0 -585.0C591.0 -548.0 638.0 -500.0 671.0 -474.0C570.0 -381.0 473.0 -221.0 422.0 -74.0Z"/></g>
<g fill="red" transform="translate(700 200) scale(0.1 -0.1)"><path d="M0.0 0.0V-30.0H499.0V0.0ZM60.0 -423.0V-452.0H435.0V-423.0ZM228.0 225.0V-674.0H259.0V225.0ZM202.0 -11.0C157.0 -184.0 70.0 -369.0 -19.0 -454.0C-12.0 -459.0 -2.0 -469.0 3.0 -475.0C92.0 -381.0 180.0 -199.0 227.0 -19.0ZM288.0 -10.0 264.0 -18.0C308.0 -194.0 392.0 -379.0 483.0 -471.0C488.0 -464.0 498.0 -454.0 506.0 -449.0C415.0 -367.0 330.0 -184.0 288.0 -10.0Z"/></g>
<g fill="black" opacity=".8" transform="translate(700 200) scale(0.1 -0.1)"><path d="M0.0 0.0V-29.0H495.0V0.0ZM61.0 -428.0V-456.0H427.0V-428.0ZM228.0 217.0V-667.0H257.0V217.0ZM192.0 -10.0C148.0 -186.0 63.0 -371.0 -25.0 -457.0C-18.0 -463.0 -9.0 -471.0 -5.0 -477.0C85.0 -383.0 171.0 -200.0 217.0 -19.0ZM297.0 -11.0 271.0 -17.0C315.0 -194.0 399.0 -378.0 490.0 -470.0C495.0 -463.0 506.0 -453.0 514.0 -447.0C423.0 -366.0 339.0 -184.0 297.0 -11.0Z"/></g>
<g fill="red" transform="translate(800 200) scale(0.1 -0.1)"><path d="M0.0 0.0V-135.0H527.0V0.0ZM87.0 -465.0V-595.0H443.0V-465.0ZM192.0 166.0V-784.0H327.0V166.0ZM158.0 -76.0C121.0 -231.0 48.0 -393.0 -45.0 -482.0C-16.0 -505.0 28.0 -553.0 50.0 -585.0C147.0 -475.0 215.0 -289.0 256.0 -100.0ZM364.0 -73.0 269.0 -100.0C313.0 -277.0 384.0 -465.0 472.0 -577.0C495.0 -543.0 540.0 -497.0 571.0 -473.0C484.0 -381.0 405.0 -220.0 364.0 -73.0Z"/></g>
<g fill="black" opacity=".8" transform="translate(800 200) scale(0.1 -0.1)"><path d="M0.0 0.0V-131.0H534.0V0.0ZM99.0 -480.0V-605.0H420.0V-480.0ZM196.0 162.0V-772.0H331.0V162.0ZM159.0 -76.0C124.0 -230.0 51.0 -391.0 -43.0 -480.0C-14.0 -505.0 30.0 -554.0 52.0 -584.0C150.0 -474.0 218.0 -288.0 259.0 -98.0ZM365.0 -68.0 270.0 -94.0C311.0 -275.0 377.0 -464.0 471.0 -576.0C492.0 -541.0 538.0 -494.0 569.0 -470.0C478.0 -379.0 404.0 -218.0 365.0 -68.0Z"/></g>
<g fill="red" transform="translate(900 200) scale(0.1 -0.1)"><path d="M0.0 0.0V-30.0H497.0V0.0ZM55.0 -423.0V-452.0H431.0V-423.0ZM231.0 224.0V-675.0H260.0V224.0ZM186.0 -11.0C142.0 -189.0 58.0 -378.0 -27.0 -466.0C-19.0 -472.0 -11.0 -480.0 -5.0 -488.0C81.0 -391.0 165.0 -204.0 210.0 -19.0ZM308.0 -10.0 282.0 -18.0C324.0 -197.0 403.0 -384.0 490.0 -477.0C495.0 -470.0 506.0 -459.0 514.0 -453.0C427.0 -369.0 348.0 -186.0 308.0 -10.0Z"/></g>
<g fill="black" opacity=".8" transform="translate(900 200) scale(0.1 -0.1)"><path d="M0.0 0.0V-30.0H493.0V0.0ZM53.0 -431.0V-459.0H427.0V-431.0ZM225.0 221.0V-679.0H254.0V221.0ZM182.0 -11.0C139.0 -188.0 54.0 -377.0 -33.0 -464.0C-25.0 -470.0 -16.0 -479.0 -11.0 -485.0C77.0 -389.0 162.0 -203.0 208.0 -20.0ZM300.0 -11.0 274.0 -17.0C317.0 -197.0 400.0 -384.0 491.0 -478.0C496.0 -470.0 506.0 -460.0 515.0 -454.0C425.0 -372.0 342.0 -187.0 300.0 -11.0Z"/></g>
<g fill="red" transform="translate(1000 200) scale(0.1 -0.1)"><path d="M0.0 0.0V-135.0H532.0V0.0ZM81.0 -491.0V-622.0H410.0V-491.0ZM188.0 166.0V-784.0H325.0V166.0ZM154.0 -76.0C114.0 -223.0 37.0 -376.0 -59.0 -461.0C-27.0 -486.0 18.0 -538.0 41.0 -572.0C141.0 -465.0 213.0 -286.0 257.0 -103.0ZM351.0 -68.0 249.0 -96.0C292.0 -276.0 363.0 -458.0 460.0 -566.0C483.0 -529.0 531.0 -478.0 563.0 -452.0C469.0 -365.0 391.0 -213.0 351.0 -68.0Z"/></g>
<g fill="black" opacity=".8" transform="translate(1000 200) scale(0.1 -0.1)"><path d="M0.0 0.0V-134.0H527.0V0.0ZM82.0 -480.0V-608.0H422.0V-480.0ZM186.0 173.0V-780.0H326.0V173.0ZM154.0 -78.0C116.0 -225.0 39.0 -378.0 -58.0 -463.0C-28.0 -489.0 18.0 -540.0 40.0 -571.0C141.0 -465.0 213.0 -286.0 257.0 -102.0ZM356.0 -71.0 257.0 -98.0C300.0 -276.0 369.0 -457.0 467.0 -566.0C489.0 -529.0 536.0 -480.0 568.0 -454.0C474.0 -368.0 396.0 -215.0 356.0 -71.0Z"/></g>
<g fill="red" transform="translate(1100 200) scale(0.1 -0.1)"><path d="M0.0 0.0V-30.0H865.0V0.0ZM200.0 -354.0V-383.0H672.0V-354.0ZM417.0 148.0V-580.0H447.0V148.0ZM395.0 -11.0C304.0 -178.0 128.0 -340.0 -32.0 -413.0C-24.0 -420.0 -15.0 -429.0 -9.0 -438.0C150.0 -359.0 326.0 -195.0 421.0 -23.0ZM471.0 -11.0 445.0 -24.0C541.0 -181.0 719.0 -343.0 865.0 -423.0C871.0 -414.0 881.0 -403.0 889.0 -397.0C741.0 -325.0 564.0 -165.0 471.0 -11.0Z"/></g>
<g fill="black" opacity=".8" transform="translate(1100 200) scale(0.1 -0.1)"><path d="M0.0 0.0V-30.0H872.0V0.0ZM200.0 -347.0V-377.0H677.0V-347.0ZM418.0 153.0V-579.0H449.0V153.0ZM397.0 -10.0C307.0 -177.0 133.0 -338.0 -26.0 -410.0C-18.0 -417.0 -9.0 -426.0 -4.0 -435.0C155.0 -356.0 330.0 -194.0 424.0 -24.0ZM473.0 -11.0 445.0 -23.0C541.0 -181.0 718.0 -343.0 862.0 -423.0C868.0 -415.0 877.0 -403.0 887.0 -397.0C739.0 -325.0 564.0 -165.0 473.0 -11.0Z"/></g>
<g fill="red" transform="translate(1200 200) scale(0.1 -0.1)"><path d="M0.0 0.0V-129.0H896.0V0.0ZM222.0 -362.0V-489.0H664.0V-362.0ZM372.0 95.0V-625.0H518.0V95.0ZM343.0 -65.0C263.0 -193.0 109.0 -325.0 -39.0 -396.0C-7.0 -424.0 39.0 -479.0 62.0 -513.0C211.0 -424.0 359.0 -270.0 451.0 -109.0ZM549.0 -66.0 441.0 -110.0C534.0 -271.0 680.0 -424.0 833.0 -510.0C856.0 -472.0 902.0 -417.0 936.0 -388.0C784.0 -320.0 629.0 -192.0 549.0 -66.0Z"/></g>
<g fill="black" opacity=".8" transform="translate(1200 200) scale(0.1 -0.1)"><path d="M0.0 0.0V-131.0H895.0V0.0ZM217.0 -362.0V-489.0H671.0V-362.0ZM368.0 96.0V-631.0H516.0V96.0ZM342.0 -67.0C262.0 -194.0 108.0 -326.0 -39.0 -398.0C-7.0 -425.0 40.0 -480.0 62.0 -515.0C210.0 -425.0 359.0 -271.0 450.0 -111.0ZM546.0 -68.0 437.0 -112.0C532.0 -272.0 677.0 -426.0 831.0 -511.0C854.0 -472.0 901.0 -417.0 936.0 -387.0C783.0 -321.0 627.0 -192.0 546.0 -68.0Z"/></g>
<g fill="red" transform="translate(1300 200) scale(0.1 -0.1)"><path d="M0.0 0.0V-29.0H490.0V0.0ZM55.0 -503.0V-532.0H404.0V-503.0ZM218.0 192.0V-707.0H247.0V192.0ZM177.0 -11.0C136.0 -192.0 58.0 -384.0 -24.0 -474.0C-17.0 -479.0 -7.0 -489.0 -1.0 -496.0C81.0 -397.0 160.0 -206.0 202.0 -18.0ZM297.0 -10.0 270.0 -17.0C314.0 -205.0 396.0 -400.0 489.0 -498.0C495.0 -489.0 506.0 -479.0 515.0 -473.0C422.0 -385.0 339.0 -194.0 297.0 -10.0Z"/></g>
<g fill="black" opacity=".8" transform="translate(1300 200) scale(0.1 -0.1)"><path d="M0.0 0.0V-30.0H499.0V0.0ZM55.0 -494.0V-524.0H413.0V-494.0ZM221.0 199.0V-707.0H251.0V199.0ZM182.0 -11.0C142.0 -191.0 66.0 -382.0 -16.0 -472.0C-8.0 -476.0 2.0 -487.0 7.0 -494.0C89.0 -394.0 168.0 -206.0 210.0 -19.0ZM298.0 -11.0 269.0 -17.0C312.0 -204.0 393.0 -399.0 483.0 -499.0C489.0 -489.0 500.0 -479.0 509.0 -473.0C420.0 -385.0 339.0 -193.0 298.0 -11.0Z"/></g>
<g fill="red" transform="translate(1400 200) scale(0.1 -0.1)"><path d="M0.0 0.0V-135.0H491.0V0.0ZM58.0 -501.0V-632.0H410.0V-501.0ZM170.0 166.0V-784.0H309.0V166.0ZM145.0 -74.0C108.0 -227.0 37.0 -387.0 -54.0 -475.0C-25.0 -499.0 18.0 -546.0 40.0 -577.0C135.0 -468.0 202.0 -284.0 242.0 -98.0ZM327.0 -72.0 238.0 -96.0C281.0 -277.0 355.0 -462.0 452.0 -568.0C473.0 -535.0 514.0 -491.0 543.0 -469.0C448.0 -382.0 368.0 -223.0 327.0 -72.0Z"/></g>
<g fill="black" opacity=".8" transform="translate(1400 200) scale(0.1 -0.1)"><path d="M0.0 0.0V-138.0H490.0V0.0ZM52.0 -500.0V-632.0H417.0V-500.0ZM167.0 164.0V-793.0H308.0V164.0ZM142.0 -76.0C106.0 -227.0 34.0 -387.0 -56.0 -475.0C-28.0 -500.0 16.0 -548.0 39.0 -578.0C131.0 -468.0 201.0 -283.0 241.0 -100.0ZM325.0 -73.0 233.0 -99.0C277.0 -277.0 353.0 -462.0 449.0 -570.0C469.0 -536.0 512.0 -491.0 542.0 -469.0C448.0 -381.0 366.0 -222.0 325.0 -73.0Z"/></g>
<g fill="red" transform="translate(1500 200) scale(0.1 -0.1)"><path d="M0.0 0.0V-30.0H521.0V0.0ZM70.0 -464.0V-493.0H433.0V-464.0ZM236.0 224.0V-675.0H265.0V224.0ZM214.0 -11.0C161.0 -191.0 60.0 -378.0 -41.0 -466.0C-33.0 -472.0 -23.0 -481.0 -18.0 -488.0C83.0 -392.0 185.0 -206.0 240.0 -19.0ZM291.0 -10.0 263.0 -19.0C316.0 -202.0 415.0 -389.0 521.0 -481.0C527.0 -474.0 538.0 -463.0 545.0 -457.0C441.0 -374.0 341.0 -189.0 291.0 -10.0Z"/></g>
<g fill="black" opacity=".8" transform="translate(1500 200) scale(0.1 -0.1)"><path d="M0.0 0.0V-30.0H526.0V0.0ZM69.0 -455.0V-483.0H438.0V-455.0ZM239.0 227.0V-670.0H267.0V227.0ZM214.0 -10.0C163.0 -191.0 64.0 -377.0 -36.0 -465.0C-28.0 -469.0 -18.0 -479.0 -15.0 -485.0C86.0 -389.0 186.0 -205.0 241.0 -20.0ZM296.0 -10.0 268.0 -17.0C318.0 -202.0 416.0 -389.0 521.0 -482.0C528.0 -475.0 538.0 -463.0 546.0 -458.0C442.0 -376.0 344.0 -190.0 296.0 -10.0Z"/></g>
<g fill="red" transform="translate(1600 200) scale(0.1 -0.1)"><path d="M0.0 0.0V-135.0H532.0V0.0ZM107.0 -499.0V-630.0H409.0V-499.0ZM194.0 166.0V-784.0H327.0V166.0ZM122.0 -70.0C90.0 -255.0 26.0 -451.0 -65.0 -562.0C-33.0 -587.0 14.0 -637.0 38.0 -669.0C133.0 -534.0 192.0 -314.0 227.0 -92.0ZM396.0 -68.0 296.0 -92.0C330.0 -294.0 386.0 -516.0 458.0 -655.0C483.0 -619.0 531.0 -574.0 564.0 -550.0C493.0 -432.0 429.0 -239.0 396.0 -68.0Z"/></g>
<g fill="black" opacity=".8" transform="translate(1600 200) scale(0.1 -0.1)"><path d="M0.0 0.0V-134.0H529.0V0.0ZM104.0 -507.0V-633.0H412.0V-507.0ZM189.0 162.0V-788.0H325.0V162.0ZM127.0 -71.0C96.0 -255.0 29.0 -451.0 -64.0 -563.0C-34.0 -587.0 14.0 -637.0 38.0 -668.0C134.0 -532.0 195.0 -311.0 231.0 -90.0ZM389.0 -71.0 290.0 -95.0C325.0 -297.0 380.0 -519.0 457.0 -658.0C481.0 -621.0 529.0 -577.0 563.0 -552.0C488.0 -436.0 423.0 -243.0 389.0 -71.0Z"/></g>
<g fill="red" transform="translate(100 300) scale(0.1 -0.1)"><path d="M0.0 0.0V-29.0H684.0V0.0ZM119.0 -355.0V-384.0H538.0V-355.0ZM312.0 137.0V-559.0H341.0V137.0ZM276.0 -10.0C209.0 -153.0 81.0 -297.0 -37.0 -363.0C-29.0 -369.0 -19.0 -379.0 -14.0 -387.0C102.0 -314.0 234.0 -169.0 302.0 -20.0ZM377.0 -10.0 349.0 -21.0C423.0 -161.0 558.0 -313.0 670.0 -388.0C676.0 -380.0 685.0 -369.0 693.0 -363.0C581.0 -295.0 446.0 -148.0 377.0 -10.0Z"/></g>
<g fill="black" opacity=".8" transform="translate(100 300) scale(0.1 -0.1)"><path d="M0.0 0.0V-29.0H678.0V0.0ZM118.0 -361.0V-389.0H534.0V-361.0ZM310.0 132.0V-556.0H338.0V132.0ZM270.0 -10.0C204.0 -154.0 76.0 -299.0 -43.0 -366.0C-35.0 -371.0 -26.0 -381.0 -21.0 -388.0C96.0 -315.0 228.0 -169.0 298.0 -21.0ZM379.0 -10.0 350.0 -20.0C424.0 -162.0 561.0 -312.0 674.0 -389.0C681.0 -380.0 690.0 -369.0 698.0 -363.0C585.0 -296.0 448.0 -149.0 379.0 -10.0Z"/></g>
<g fill="red" transform="translate(200 300) scale(0.1 -0.1)"><path d="M0.0 0.0V-129.0H658.0V0.0ZM91.0 -362.0V-489.0H542.0V-362.0ZM236.0 83.0V-624.0H382.0V83.0ZM207.0 -65.0C142.0 -178.0 18.0 -297.0 -102.0 -363.0C-70.0 -390.0 -24.0 -443.0 -1.0 -478.0C121.0 -394.0 242.0 -252.0 316.0 -107.0ZM413.0 -66.0 305.0 -107.0C381.0 -254.0 501.0 -396.0 628.0 -478.0C652.0 -441.0 698.0 -387.0 731.0 -359.0C606.0 -295.0 479.0 -179.0 413.0 -66.0Z"/></g>
<g fill="black" opacity=".8" transform="translate(200 300) scale(0.1 -0.1)"><path d="M0.0 0.0V-126.0H658.0V0.0ZM98.0 -369.0V-491.0H532.0V-369.0ZM238.0 80.0V-617.0H385.0V80.0ZM211.0 -63.0C146.0 -177.0 21.0 -295.0 -102.0 -362.0C-71.0 -390.0 -24.0 -443.0 -1.0 -476.0C122.0 -392.0 244.0 -249.0 319.0 -104.0ZM415.0 -65.0 308.0 -104.0C383.0 -254.0 500.0 -395.0 631.0 -478.0C653.0 -440.0 698.0 -388.0 731.0 -360.0C604.0 -296.0 480.0 -180.0 415.0 -65.0Z"/></g>
<g fill="red" transform="translate(300 300) scale(0.1 -0.1)"><path d="M0.0 0.0V-30.0H561.0V0.0ZM66.0 -423.0V-452.0H477.0V-423.0ZM258.0 224.0V-675.0H287.0V224.0ZM206.0 -11.0C150.0 -191.0 41.0 -379.0 -65.0 -466.0C-58.0 -472.0 -49.0 -481.0 -43.0 -488.0C64.0 -393.0 173.0 -207.0 232.0 -20.0ZM338.0 -10.0 311.0 -19.0C367.0 -201.0 474.0 -387.0 585.0 -477.0C591.0 -470.0 602.0 -459.0 610.0 -453.0C498.0 -371.0 392.0 -188.0 338.0 -10.0Z"/></g>
<g fill="black" opacity=".8" transform="translate(300 300) scale(0.1 -0.1)"><path d="M0.0 0.0V-31.0H569.0V0.0ZM66.0 -417.0V-446.0H486.0V-417.0ZM260.0 230.0V-677.0H291.0V230.0ZM213.0 -11.0C157.0 -190.0 49.0 -378.0 -58.0 -465.0C-50.0 -471.0 -41.0 -481.0 -35.0 -487.0C71.0 -392.0 182.0 -207.0 242.0 -22.0ZM336.0 -11.0 307.0 -19.0C363.0 -199.0 470.0 -385.0 578.0 -477.0C584.0 -470.0 595.0 -458.0 602.0 -452.0C496.0 -370.0 389.0 -187.0 336.0 -11.0Z"/></g>
<g fill="red" transform="translate(400 300) scale(0.1 -0.1)"><path d="M0.0 0.0V-135.0H595.0V0.0ZM102.0 -491.0V-622.0H462.0V-491.0ZM207.0 166.0V-784.0H359.0V166.0ZM161.0 -76.0C114.0 -237.0 22.0 -401.0 -94.0 -494.0C-59.0 -522.0 -8.0 -579.0 17.0 -616.0C138.0 -500.0 222.0 -308.0 275.0 -106.0ZM415.0 -75.0 302.0 -105.0C349.0 -301.0 424.0 -495.0 532.0 -615.0C559.0 -573.0 611.0 -516.0 648.0 -488.0C543.0 -392.0 459.0 -231.0 415.0 -75.0Z"/></g>
<g fill="black" opacity=".8" transform="translate(400 300) scale(0.1 -0.1)"><path d="M0.0 0.0V-140.0H596.0V0.0ZM97.0 -486.0V-620.0H467.0V-486.0ZM206.0 164.0V-793.0H359.0V164.0ZM157.0 -78.0C110.0 -236.0 16.0 -401.0 -97.0 -495.0C-63.0 -523.0 -11.0 -581.0 15.0 -617.0C132.0 -500.0 219.0 -307.0 273.0 -108.0ZM415.0 -74.0 299.0 -107.0C348.0 -299.0 424.0 -494.0 529.0 -615.0C556.0 -573.0 610.0 -516.0 648.0 -487.0C546.0 -390.0 460.0 -227.0 415.0 -74.0Z"/></g>
</svg>
