<?xml version="1.0" encoding="UTF-8"?>
<svg width="1700" height="500" xmlns="http://www.w3.org/2000/svg">
<rect width="100%" height="100%" fill="white"/>
<g fill="green" transform="translate(100 100) scale(0.1 -0.1)"><path d="M0.0 -0.0V-25.0H806.0V0.0ZM-65.0 338.0V314.0H909.0V338.0ZM392.0 170.0V-96.0H419.0V170.0ZM365.0 -127.0C244.0 -230.0 10.0 -294.0 -202.0 -315.0C-195.0 -321.0 -187.0 -329.0 -183.0 -337.0C22.0 -309.0 264.0 -252.0 388.0 -142.0ZM437.0 -129.0 413.0 -141.0C518.0 -241.0 728.0 -307.0 912.0 -335.0C914.0 -328.0 922.0 -319.0 928.0 -312.0C741.0 -286.0 537.0 -224.0 437.0 -129.0Z"/></g>
<g fill="green" transform="translate(200 100) scale(0.1 -0.1)"><path d="M0.0 0.0V-98.0H857.0V0.0ZM-46.0 386.0V268.0H952.0V386.0ZM374.0 149.0V-131.0H515.0V149.0ZM331.0 -102.0C232.0 -209.0 38.0 -280.0 -171.0 -307.0C-134.0 -318.0 -82.0 -355.0 -55.0 -375.0C155.0 -338.0 344.0 -272.0 462.0 -141.0ZM533.0 -121.0 418.0 -166.0C529.0 -282.0 702.0 -351.0 902.0 -381.0C919.0 -349.0 956.0 -296.0 984.0 -269.0C793.0 -252.0 620.0 -199.0 533.0 -121.0Z"/></g>
<g fill="green" transform="translate(300 100) scale(0.1 -0.1)"><path d="M0.0 0.0V-16.0H628.0V0.0ZM-73.0 268.0V253.0H736.0V268.0ZM309.0 57.0V47.0H327.0V57.0ZM287.0 -109.0C185.0 -168.0 -10.0 -187.0 -186.0 -188.0C-181.0 -192.0 -176.0 -197.0 -174.0 -203.0C-5.0 -197.0 199.0 -185.0 302.0 -121.0ZM340.0 -111.0 324.0 -120.0C409.0 -176.0 580.0 -197.0 730.0 -203.0C731.0 -198.0 736.0 -192.0 739.0 -187.0C587.0 -181.0 421.0 -164.0 340.0 -111.0Z"/></g>
<g fill="green" transform="translate(400 100) scale(0.1 -0.1)"><path d="M0.0 0.0V-58.0H676.0V0.0ZM-51.0 315.0V238.0H775.0V315.0ZM306.0 46.0V34.0H403.0V46.0ZM269.0 -65.0C186.0 -137.0 23.0 -173.0 -151.0 -181.0C-123.0 -183.0 -84.0 -203.0 -63.0 -212.0C110.0 -199.0 269.0 -177.0 367.0 -92.0ZM416.0 -85.0 333.0 -120.0C426.0 -192.0 571.0 -216.0 739.0 -221.0C749.0 -200.0 772.0 -163.0 790.0 -144.0C630.0 -147.0 487.0 -129.0 416.0 -85.0Z"/></g>
<g fill="green" transform="translate(500 100) scale(0.1 -0.1)"><path d="M0.0 -0.0V-28.0H543.0V0.0ZM-83.0 321.0V292.0H720.0V321.0ZM263.0 178.0V-147.0H294.0V178.0ZM239.0 -362.0C138.0 -459.0 -66.0 -525.0 -243.0 -553.0C-237.0 -559.0 -229.0 -570.0 -226.0 -578.0C-49.0 -546.0 158.0 -479.0 263.0 -378.0ZM294.0 -363.0 269.0 -375.0C360.0 -469.0 540.0 -543.0 697.0 -575.0C700.0 -567.0 709.0 -557.0 717.0 -550.0C557.0 -521.0 379.0 -452.0 294.0 -363.0Z"/></g>
<g fill="green" transform="translate(600 100) scale(0.1 -0.1)"><path d="M0.0 0.0V-105.0H611.0V0.0ZM-73.0 375.0V251.0H780.0V375.0ZM262.0 190.0V-187.0H414.0V190.0ZM209.0 -351.0C131.0 -439.0 -28.0 -512.0 -197.0 -545.0C-165.0 -571.0 -121.0 -625.0 -101.0 -658.0C76.0 -612.0 231.0 -521.0 330.0 -400.0ZM416.0 -373.0 304.0 -417.0C391.0 -522.0 532.0 -607.0 682.0 -650.0C703.0 -614.0 747.0 -559.0 779.0 -531.0C633.0 -504.0 490.0 -444.0 416.0 -373.0Z"/></g>
<g fill="green" transform="translate(700 100) scale(0.1 -0.1)"><path d="M0.0 0.0V-28.0H770.0V0.0ZM-101.0 306.0V278.0H794.0V306.0ZM356.0 307.0V-745.0H386.0V307.0ZM349.0 20.0C244.0 -126.0 41.0 -249.0 -145.0 -301.0C-137.0 -308.0 -127.0 -317.0 -123.0 -326.0C57.0 -265.0 267.0 -146.0 374.0 5.0ZM414.0 22.0 387.0 9.0C486.0 -129.0 676.0 -259.0 836.0 -321.0C840.0 -313.0 849.0 -302.0 856.0 -296.0C694.0 -238.0 507.0 -115.0 414.0 22.0Z"/></g>
<g fill="green" transform="translate(800 100) scale(0.1 -0.1)"><path d="M0.0 0.0V-119.0H805.0V0.0ZM-88.0 323.0V190.0H841.0V323.0ZM310.0 268.0V-814.0H456.0V268.0ZM318.0 13.0C232.0 -130.0 63.0 -257.0 -123.0 -320.0C-88.0 -337.0 -38.0 -379.0 -13.0 -404.0C175.0 -327.0 340.0 -197.0 441.0 -25.0ZM507.0 3.0 390.0 -39.0C484.0 -196.0 632.0 -332.0 802.0 -408.0C823.0 -374.0 866.0 -321.0 898.0 -295.0C735.0 -235.0 583.0 -119.0 507.0 3.0Z"/></g>
<g fill="green" transform="translate(900 100) scale(0.1 -0.1)"><path d="M0.0 -0.0V-32.0H831.0V0.0ZM69.0 428.0V397.0H852.0V428.0ZM405.0 446.0V72.0H437.0V446.0ZM360.0 9.0C248.0 -165.0 37.0 -312.0 -175.0 -368.0C-165.0 -375.0 -154.0 -383.0 -147.0 -393.0C55.0 -325.0 277.0 -189.0 388.0 -4.0ZM462.0 6.0 434.0 -5.0C526.0 -160.0 704.0 -309.0 859.0 -380.0C862.0 -372.0 873.0 -361.0 880.0 -354.0C724.0 -290.0 549.0 -145.0 462.0 6.0Z"/></g>
<g fill="green" transform="translate(1000 100) scale(0.1 -0.1)"><path d="M0.0 0.0V-139.0H856.0V0.0ZM71.0 454.0V303.0H877.0V454.0ZM370.0 398.0V-2.0H542.0V398.0ZM318.0 -16.0C226.0 -189.0 48.0 -319.0 -164.0 -379.0C-115.0 -387.0 -45.0 -427.0 -7.0 -450.0C204.0 -372.0 373.0 -245.0 474.0 -41.0ZM539.0 -28.0 413.0 -69.0C499.0 -231.0 633.0 -369.0 796.0 -445.0C819.0 -408.0 867.0 -349.0 900.0 -320.0C746.0 -263.0 608.0 -150.0 539.0 -28.0Z"/></g>
<g fill="green" transform="translate(1100 100) scale(0.1 -0.1)"><path d="M0.0 0.0V-25.0H854.0V0.0ZM33.0 158.0V134.0H859.0V158.0ZM414.0 163.0V-73.0H441.0V163.0ZM390.0 -128.0C279.0 -222.0 67.0 -292.0 -110.0 -322.0C-104.0 -326.0 -97.0 -335.0 -94.0 -342.0C79.0 -308.0 296.0 -242.0 412.0 -142.0ZM453.0 -135.0 430.0 -147.0C535.0 -242.0 738.0 -313.0 908.0 -344.0C910.0 -337.0 918.0 -329.0 923.0 -322.0C751.0 -293.0 554.0 -225.0 453.0 -135.0Z"/></g>
<g fill="green" transform="translate(1200 100) scale(0.1 -0.1)"><path d="M0.0 0.0V-112.0H904.0V0.0ZM65.0 189.0V75.0H885.0V189.0ZM402.0 157.0V-98.0H540.0V157.0ZM344.0 -131.0C255.0 -208.0 79.0 -273.0 -86.0 -304.0C-55.0 -325.0 -10.0 -370.0 12.0 -398.0C182.0 -358.0 358.0 -289.0 471.0 -189.0ZM561.0 -148.0 443.0 -201.0C553.0 -306.0 726.0 -373.0 906.0 -404.0C924.0 -370.0 963.0 -313.0 993.0 -283.0C819.0 -266.0 648.0 -217.0 561.0 -148.0Z"/></g>
<g fill="green" transform="translate(1300 100) scale(0.1 -0.1)"><path d="M0.0 -0.0V-25.0H787.0V0.0ZM-70.0 362.0V338.0H910.0V362.0ZM390.0 156.0V-94.0H416.0V156.0ZM366.0 -131.0C260.0 -228.0 51.0 -294.0 -142.0 -315.0C-135.0 -321.0 -127.0 -328.0 -122.0 -336.0C64.0 -308.0 280.0 -248.0 388.0 -145.0ZM433.0 -133.0 409.0 -145.0C509.0 -248.0 715.0 -314.0 902.0 -338.0C905.0 -331.0 913.0 -322.0 919.0 -315.0C728.0 -293.0 528.0 -230.0 433.0 -133.0Z"/></g>
<g fill="green" transform="translate(1400 100) scale(0.1 -0.1)"><path d="M0.0 0.0V-94.0H860.0V0.0ZM-58.0 412.0V293.0H958.0V412.0ZM382.0 130.0V-133.0H519.0V130.0ZM336.0 -111.0C245.0 -212.0 66.0 -279.0 -130.0 -304.0C-94.0 -316.0 -44.0 -354.0 -18.0 -376.0C180.0 -340.0 352.0 -270.0 457.0 -143.0ZM533.0 -127.0 424.0 -167.0C533.0 -286.0 702.0 -353.0 909.0 -378.0C925.0 -347.0 961.0 -295.0 988.0 -268.0C791.0 -256.0 620.0 -206.0 533.0 -127.0Z"/></g>
<g fill="green" transform="translate(1500 100) scale(0.1 -0.1)"><path d="M0.0 0.0V-28.0H852.0V0.0ZM-55.0 342.0V315.0H936.0V342.0ZM408.0 168.0V-94.0H438.0V168.0ZM378.0 -120.0C260.0 -229.0 31.0 -298.0 -181.0 -322.0C-174.0 -328.0 -166.0 -337.0 -162.0 -346.0C46.0 -316.0 281.0 -250.0 402.0 -135.0ZM464.0 -120.0 438.0 -132.0C536.0 -245.0 737.0 -314.0 927.0 -343.0C930.0 -335.0 939.0 -325.0 946.0 -318.0C753.0 -291.0 558.0 -226.0 464.0 -120.0Z"/></g>
<g fill="green" transform="translate(1600 100) scale(0.1 -0.1)"><path d="M0.0 0.0V-105.0H845.0V0.0ZM-62.0 389.0V263.0H944.0V389.0ZM350.0 129.0V-134.0H495.0V129.0ZM302.0 -123.0C206.0 -213.0 19.0 -264.0 -185.0 -280.0C-149.0 -300.0 -100.0 -347.0 -76.0 -374.0C134.0 -347.0 318.0 -288.0 435.0 -168.0ZM504.0 -123.0 388.0 -167.0C498.0 -286.0 670.0 -355.0 875.0 -382.0C894.0 -346.0 934.0 -288.0 965.0 -258.0C767.0 -246.0 593.0 -200.0 504.0 -123.0Z"/></g>
<g fill="red" transform="translate(100 200) scale(0.1 -0.1)"><path d="M0.0 0.0V-30.0H640.0V0.0ZM47.0 227.0V198.0H608.0V227.0ZM301.0 410.0V-480.0H330.0V410.0ZM285.0 -9.0C222.0 -154.0 97.0 -303.0 -15.0 -371.0C-8.0 -376.0 1.0 -385.0 7.0 -393.0C118.0 -319.0 243.0 -169.0 310.0 -19.0ZM352.0 -11.0 326.0 -22.0C397.0 -164.0 527.0 -318.0 637.0 -392.0C643.0 -384.0 653.0 -375.0 660.0 -369.0C550.0 -300.0 420.0 -150.0 352.0 -11.0Z"/></g>
<g fill="black" opacity=".8" transform="translate(100 200) scale(0.1 -0.1)"><path d="M0.0 0.0V-31.0H641.0V0.0ZM51.0 232.0V200.0H591.0V232.0ZM299.0 406.0V-480.0H330.0V406.0ZM283.0 8.0C221.0 -149.0 99.0 -308.0 -19.0 -381.0C-11.0 -386.0 -2.0 -395.0 3.0 -404.0C120.0 -324.0 245.0 -164.0 307.0 -3.0ZM352.0 7.0 326.0 -4.0C392.0 -157.0 518.0 -321.0 630.0 -398.0C636.0 -390.0 646.0 -379.0 653.0 -373.0C541.0 -303.0 414.0 -144.0 352.0 7.0Z"/></g>
<g fill="red" transform="translate(200 200) scale(0.1 -0.1)"><path d="M0.0 0.0V-141.0H631.0V0.0ZM38.0 231.0V90.0H601.0V231.0ZM242.0 370.0V-562.0H386.0V370.0ZM219.0 -50.0C169.0 -181.0 71.0 -315.0 -39.0 -390.0C-7.0 -417.0 40.0 -470.0 64.0 -505.0C183.0 -410.0 281.0 -255.0 342.0 -89.0ZM413.0 -44.0 300.0 -79.0C357.0 -244.0 447.0 -404.0 558.0 -499.0C582.0 -462.0 629.0 -409.0 663.0 -382.0C557.0 -307.0 462.0 -173.0 413.0 -44.0Z"/></g>
<g fill="black" opacity=".8" transform="translate(200 200) scale(0.1 -0.1)"><path d="M0.0 0.0V-137.0H647.0V0.0ZM37.0 229.0V91.0H601.0V229.0ZM246.0 364.0V-562.0H392.0V364.0ZM225.0 -65.0C173.0 -188.0 70.0 -311.0 -44.0 -379.0C-12.0 -408.0 32.0 -462.0 53.0 -500.0C176.0 -414.0 276.0 -261.0 336.0 -103.0ZM409.0 -58.0 304.0 -93.0C362.0 -246.0 455.0 -402.0 563.0 -491.0C587.0 -454.0 635.0 -399.0 669.0 -372.0C563.0 -303.0 462.0 -179.0 409.0 -58.0Z"/></g>
<g fill="red" transform="translate(300 200) scale(0.1 -0.1)"><path d="M0.0 0.0V-30.0H583.0V0.0ZM46.0 244.0V214.0H532.0V244.0ZM270.0 421.0V-478.0H300.0V421.0ZM251.0 -9.0C188.0 -168.0 66.0 -327.0 -54.0 -399.0C-46.0 -405.0 -37.0 -414.0 -32.0 -422.0C87.0 -343.0 211.0 -183.0 275.0 -18.0ZM323.0 -11.0 297.0 -21.0C357.0 -176.0 467.0 -336.0 571.0 -417.0C577.0 -409.0 587.0 -398.0 594.0 -393.0C490.0 -321.0 380.0 -164.0 323.0 -11.0Z"/></g>
<g fill="black" opacity=".8" transform="translate(300 200) scale(0.1 -0.1)"><path d="M0.0 0.0V-31.0H585.0V0.0ZM44.0 240.0V208.0H541.0V240.0ZM267.0 417.0V-478.0H299.0V417.0ZM249.0 -9.0C187.0 -169.0 67.0 -328.0 -53.0 -401.0C-45.0 -406.0 -35.0 -416.0 -31.0 -425.0C88.0 -345.0 212.0 -184.0 273.0 -20.0ZM321.0 -8.0 295.0 -18.0C355.0 -172.0 467.0 -337.0 570.0 -416.0C575.0 -407.0 586.0 -396.0 593.0 -391.0C491.0 -319.0 377.0 -160.0 321.0 -8.0Z"/></g>
<g fill="red" transform="translate(400 200) scale(0.1 -0.1)"><path d="M0.0 0.0V-138.0H572.0V0.0ZM28.0 237.0V99.0H546.0V237.0ZM200.0 369.0V-567.0H347.0V369.0ZM191.0 -87.0C140.0 -212.0 41.0 -331.0 -81.0 -393.0C-49.0 -421.0 -5.0 -474.0 17.0 -508.0C147.0 -427.0 245.0 -284.0 305.0 -121.0ZM353.0 -82.0 246.0 -116.0C297.0 -268.0 379.0 -421.0 478.0 -512.0C503.0 -473.0 551.0 -419.0 586.0 -391.0C488.0 -321.0 400.0 -199.0 353.0 -82.0Z"/></g>
<g fill="black" opacity=".8" transform="translate(400 200) scale(0.1 -0.1)"><path d="M0.0 0.0V-137.0H564.0V0.0ZM22.0 238.0V100.0H542.0V238.0ZM200.0 374.0V-562.0H346.0V374.0ZM181.0 -87.0C133.0 -209.0 35.0 -329.0 -77.0 -394.0C-46.0 -425.0 -3.0 -481.0 17.0 -519.0C139.0 -434.0 235.0 -284.0 292.0 -125.0ZM358.0 -76.0 256.0 -109.0C305.0 -259.0 387.0 -417.0 480.0 -509.0C505.0 -472.0 554.0 -418.0 588.0 -391.0C495.0 -320.0 405.0 -194.0 358.0 -76.0Z"/></g>
<g fill="red" transform="translate(500 200) scale(0.1 -0.1)"><path d="M0.0 0.0V-29.0H548.0V0.0ZM33.0 175.0V146.0H514.0V175.0ZM249.0 314.0V-418.0H279.0V314.0ZM230.0 -11.0C176.0 -147.0 71.0 -276.0 -34.0 -339.0C-27.0 -344.0 -19.0 -355.0 -15.0 -363.0C92.0 -296.0 197.0 -160.0 253.0 -20.0ZM301.0 -11.0 277.0 -21.0C333.0 -150.0 441.0 -286.0 541.0 -351.0C546.0 -343.0 556.0 -333.0 563.0 -327.0C464.0 -269.0 356.0 -137.0 301.0 -11.0Z"/></g>
<g fill="black" opacity=".8" transform="translate(500 200) scale(0.1 -0.1)"><path d="M0.0 0.0V-27.0H555.0V0.0ZM35.0 179.0V152.0H511.0V179.0ZM254.0 318.0V-418.0H282.0V318.0ZM241.0 -15.0C184.0 -144.0 75.0 -271.0 -30.0 -330.0C-24.0 -334.0 -16.0 -343.0 -13.0 -351.0C92.0 -287.0 205.0 -157.0 261.0 -25.0ZM302.0 -15.0 280.0 -24.0C336.0 -152.0 442.0 -284.0 541.0 -346.0C546.0 -338.0 555.0 -328.0 561.0 -324.0C462.0 -267.0 355.0 -141.0 302.0 -15.0Z"/></g>
<g fill="red" transform="translate(600 200) scale(0.1 -0.1)"><path d="M0.0 0.0V-124.0H532.0V0.0ZM18.0 185.0V63.0H509.0V185.0ZM194.0 269.0V-483.0H329.0V269.0ZM171.0 -85.0C128.0 -164.0 45.0 -254.0 -40.0 -304.0C-20.0 -341.0 9.0 -399.0 21.0 -439.0C119.0 -372.0 204.0 -245.0 259.0 -130.0ZM325.0 -50.0 240.0 -80.0C293.0 -211.0 381.0 -350.0 472.0 -428.0C495.0 -393.0 539.0 -344.0 570.0 -318.0C476.0 -258.0 378.0 -151.0 325.0 -50.0Z"/></g>
<g fill="black" opacity=".8" transform="translate(600 200) scale(0.1 -0.1)"><path d="M0.0 0.0V-116.0H535.0V0.0ZM17.0 179.0V62.0H507.0V179.0ZM195.0 282.0V-485.0H318.0V282.0ZM175.0 -82.0C130.0 -172.0 41.0 -264.0 -56.0 -315.0C-31.0 -344.0 4.0 -393.0 20.0 -428.0C126.0 -362.0 215.0 -242.0 270.0 -120.0ZM331.0 -70.0 242.0 -101.0C292.0 -226.0 376.0 -351.0 469.0 -422.0C490.0 -390.0 531.0 -342.0 561.0 -317.0C469.0 -264.0 379.0 -166.0 331.0 -70.0Z"/></g>
<g fill="red" transform="translate(700 200) scale(0.1 -0.1)"><path d="M0.0 0.0V-30.0H574.0V0.0ZM40.0 241.0V211.0H548.0V241.0ZM271.0 418.0V-481.0H301.0V418.0ZM255.0 -10.0C191.0 -166.0 68.0 -324.0 -50.0 -396.0C-42.0 -402.0 -32.0 -412.0 -27.0 -420.0C89.0 -340.0 215.0 -182.0 280.0 -20.0ZM314.0 -11.0 289.0 -22.0C359.0 -164.0 486.0 -329.0 587.0 -408.0C592.0 -400.0 602.0 -390.0 609.0 -384.0C508.0 -312.0 380.0 -152.0 314.0 -11.0Z"/></g>
<g fill="black" opacity=".8" transform="translate(700 200) scale(0.1 -0.1)"><path d="M0.0 0.0V-29.0H576.0V0.0ZM40.0 239.0V209.0H546.0V239.0ZM270.0 419.0V-480.0H300.0V419.0ZM256.0 -6.0C192.0 -162.0 69.0 -319.0 -49.0 -390.0C-41.0 -395.0 -31.0 -404.0 -26.0 -413.0C88.0 -333.0 216.0 -177.0 279.0 -17.0ZM316.0 -8.0 291.0 -18.0C359.0 -163.0 485.0 -328.0 587.0 -406.0C593.0 -398.0 602.0 -387.0 609.0 -382.0C506.0 -311.0 379.0 -152.0 316.0 -8.0Z"/></g>
<g fill="red" transform="translate(800 200) scale(0.1 -0.1)"><path d="M0.0 0.0V-135.0H613.0V0.0ZM51.0 237.0V103.0H574.0V237.0ZM245.0 381.0V-564.0H392.0V381.0ZM231.0 -58.0C178.0 -193.0 73.0 -331.0 -45.0 -406.0C-14.0 -432.0 31.0 -483.0 54.0 -517.0C178.0 -423.0 280.0 -263.0 342.0 -93.0ZM404.0 -58.0 298.0 -93.0C353.0 -248.0 443.0 -409.0 541.0 -505.0C565.0 -469.0 612.0 -418.0 645.0 -392.0C549.0 -315.0 454.0 -181.0 404.0 -58.0Z"/></g>
<g fill="black" opacity=".8" transform="translate(800 200) scale(0.1 -0.1)"><path d="M0.0 0.0V-133.0H615.0V0.0ZM42.0 237.0V104.0H579.0V237.0ZM242.0 389.0V-561.0H386.0V389.0ZM226.0 -62.0C174.0 -198.0 69.0 -336.0 -47.0 -413.0C-15.0 -436.0 31.0 -483.0 54.0 -516.0C177.0 -422.0 277.0 -263.0 335.0 -94.0ZM406.0 -66.0 304.0 -101.0C357.0 -252.0 445.0 -411.0 542.0 -504.0C565.0 -471.0 611.0 -420.0 643.0 -395.0C550.0 -320.0 455.0 -188.0 406.0 -66.0Z"/></g>
<g fill="red" transform="translate(900 200) scale(0.1 -0.1)"><path d="M0 0.0V-30.0H557.0V0.0ZM31.0 230.0V201.0H530.0V230.0ZM260.0 413.0V-486.0H290.0V413.0ZM239.0 -7.0C175.0 -159.0 52.0 -312.0 -66.0 -381.0C-58.0 -387.0 -49.0 -397.0 -43.0 -406.0C75.0 -329.0 200.0 -177.0 266.0 -18.0ZM313.0 -9.0 286.0 -19.0C344.0 -168.0 455.0 -325.0 556.0 -403.0C562.0 -395.0 572.0 -384.0 580.0 -379.0C479.0 -308.0 369.0 -156.0 313.0 -9.0Z"/></g>
<g fill="black" opacity=".8" transform="translate(900 200) scale(0.1 -0.1)"><path d="M0.0 0.0V-29.0H564.0V0.0ZM32.0 235.0V205.0H531.0V235.0ZM259.0 404.0V-477.0H289.0V404.0ZM244.0 -8.0C178.0 -162.0 52.0 -313.0 -70.0 -382.0C-62.0 -387.0 -53.0 -396.0 -49.0 -405.0C71.0 -328.0 202.0 -177.0 266.0 -20.0ZM308.0 -9.0 283.0 -19.0C348.0 -161.0 465.0 -320.0 566.0 -396.0C571.0 -388.0 581.0 -377.0 587.0 -373.0C487.0 -303.0 368.0 -151.0 308.0 -9.0Z"/></g>
<g fill="red" transform="translate(1000 200) scale(0.1 -0.1)"><path d="M0 0.0V-136.0H577.0V0.0ZM29.0 245.0V109.0H552.0V245.0ZM208.0 395.0V-555.0H352.0V395.0ZM185.0 -84.0C133.0 -198.0 31.0 -315.0 -78.0 -378.0C-47.0 -404.0 -3.0 -455.0 20.0 -488.0C133.0 -407.0 231.0 -266.0 291.0 -120.0ZM384.0 -78.0 282.0 -114.0C333.0 -249.0 417.0 -393.0 505.0 -478.0C529.0 -442.0 575.0 -392.0 608.0 -367.0C521.0 -299.0 431.0 -184.0 384.0 -78.0Z"/></g>
<g fill="black" opacity=".8" transform="translate(1000 200) scale(0.1 -0.1)"><path d="M0.0 0.0V-130.0H571.0V0.0ZM25.0 234.0V103.0H549.0V234.0ZM213.0 371.0V-556.0H354.0V371.0ZM198.0 -68.0C147.0 -196.0 43.0 -323.0 -74.0 -392.0C-43.0 -417.0 1.0 -466.0 22.0 -499.0C147.0 -412.0 247.0 -264.0 307.0 -103.0ZM371.0 -67.0 271.0 -101.0C322.0 -246.0 407.0 -399.0 499.0 -490.0C522.0 -456.0 568.0 -405.0 600.0 -380.0C510.0 -309.0 418.0 -183.0 371.0 -67.0Z"/></g>
<g fill="red" transform="translate(1100 200) scale(0.1 -0.1)"><path d="M0.0 0.0V-30.0H565.0V0.0ZM38.0 244.0V214.0H533.0V244.0ZM262.0 422.0V-477.0H292.0V422.0ZM243.0 -8.0C178.0 -168.0 50.0 -327.0 -75.0 -398.0C-67.0 -404.0 -58.0 -413.0 -53.0 -421.0C70.0 -343.0 200.0 -183.0 267.0 -17.0ZM315.0 -10.0 290.0 -20.0C350.0 -175.0 462.0 -335.0 568.0 -416.0C573.0 -408.0 583.0 -397.0 591.0 -392.0C484.0 -320.0 373.0 -163.0 315.0 -10.0Z"/></g>
<g fill="black" opacity=".8" transform="translate(1100 200) scale(0.1 -0.1)"><path d="M0.0 0.0V-30.0H570.0V0.0ZM38.0 242.0V210.0H534.0V242.0ZM261.0 421.0V-481.0H292.0V421.0ZM244.0 -16.0C178.0 -176.0 52.0 -333.0 -71.0 -405.0C-63.0 -410.0 -54.0 -419.0 -50.0 -429.0C72.0 -349.0 203.0 -191.0 268.0 -28.0ZM312.0 -16.0 286.0 -26.0C350.0 -175.0 467.0 -340.0 568.0 -419.0C573.0 -410.0 583.0 -400.0 590.0 -395.0C490.0 -322.0 371.0 -164.0 312.0 -16.0Z"/></g>
<g fill="red" transform="translate(1200 200) scale(0.1 -0.1)"><path d="M0.0 0.0V-138.0H577.0V0.0ZM23.0 237.0V99.0H555.0V237.0ZM210.0 369.0V-567.0H357.0V369.0ZM202.0 -87.0C149.0 -220.0 46.0 -347.0 -83.0 -414.0C-50.0 -443.0 -3.0 -499.0 20.0 -535.0C158.0 -448.0 259.0 -296.0 322.0 -123.0ZM364.0 -82.0 259.0 -115.0C310.0 -271.0 391.0 -429.0 491.0 -522.0C515.0 -484.0 563.0 -431.0 597.0 -404.0C499.0 -331.0 410.0 -204.0 364.0 -82.0Z"/></g>
<g fill="black" opacity=".8" transform="translate(1200 200) scale(0.1 -0.1)"><path d="M0.0 0.0V-135.0H570.0V0.0ZM26.0 240.0V104.0H549.0V240.0ZM209.0 385.0V-563.0H355.0V385.0ZM192.0 -83.0C141.0 -212.0 38.0 -341.0 -79.0 -412.0C-48.0 -439.0 -3.0 -491.0 19.0 -526.0C144.0 -437.0 244.0 -284.0 304.0 -119.0ZM370.0 -79.0 267.0 -113.0C317.0 -263.0 401.0 -422.0 493.0 -516.0C517.0 -481.0 565.0 -428.0 598.0 -402.0C508.0 -328.0 417.0 -199.0 370.0 -79.0Z"/></g>
<g fill="red" transform="translate(1300 200) scale(0.1 -0.1)"><path d="M0.0 0.0V-30.0H622.0V0.0ZM54.0 241.0V211.0H579.0V241.0ZM289.0 418.0V-481.0H318.0V418.0ZM272.0 -10.0C209.0 -166.0 85.0 -324.0 -33.0 -396.0C-25.0 -402.0 -15.0 -412.0 -10.0 -420.0C107.0 -340.0 232.0 -182.0 298.0 -20.0ZM331.0 -11.0 307.0 -22.0C382.0 -165.0 521.0 -329.0 629.0 -408.0C635.0 -400.0 645.0 -390.0 651.0 -384.0C542.0 -313.0 404.0 -153.0 331.0 -11.0Z"/></g>
<g fill="black" opacity=".8" transform="translate(1300 200) scale(0.1 -0.1)"><path d="M0.0 0.0V-31.0H620.0V0.0ZM46.0 241.0V210.0H581.0V241.0ZM290.0 417.0V-481.0H321.0V417.0ZM274.0 -2.0C210.0 -160.0 85.0 -320.0 -35.0 -393.0C-27.0 -398.0 -18.0 -407.0 -13.0 -416.0C106.0 -336.0 235.0 -176.0 298.0 -13.0ZM340.0 -3.0 314.0 -14.0C383.0 -165.0 510.0 -331.0 621.0 -410.0C626.0 -401.0 636.0 -390.0 643.0 -385.0C533.0 -314.0 404.0 -153.0 340.0 -3.0Z"/></g>
<g fill="red" transform="translate(1400 200) scale(0.1 -0.1)"><path d="M0.0 0.0V-135.0H635.0V0.0ZM36.0 237.0V103.0H604.0V237.0ZM246.0 381.0V-564.0H393.0V381.0ZM232.0 -58.0C179.0 -193.0 74.0 -331.0 -44.0 -406.0C-13.0 -432.0 32.0 -483.0 55.0 -517.0C179.0 -423.0 281.0 -263.0 343.0 -93.0ZM405.0 -58.0 299.0 -94.0C360.0 -250.0 458.0 -410.0 564.0 -506.0C587.0 -470.0 634.0 -418.0 667.0 -392.0C563.0 -316.0 459.0 -182.0 405.0 -58.0Z"/></g>
<g fill="black" opacity=".8" transform="translate(1400 200) scale(0.1 -0.1)"><path d="M0.0 0.0V-137.0H641.0V0.0ZM39.0 240.0V102.0H602.0V240.0ZM248.0 380.0V-563.0H395.0V380.0ZM228.0 -67.0C175.0 -198.0 70.0 -330.0 -48.0 -402.0C-16.0 -429.0 30.0 -481.0 52.0 -516.0C178.0 -426.0 280.0 -269.0 340.0 -103.0ZM413.0 -65.0 308.0 -101.0C365.0 -255.0 457.0 -414.0 562.0 -506.0C586.0 -470.0 634.0 -416.0 668.0 -389.0C565.0 -317.0 465.0 -188.0 413.0 -65.0Z"/></g>
<g fill="red" transform="translate(1500 200) scale(0.1 -0.1)"><path d="M0.0 0.0V-29.0H525.0V0.0ZM-19.0 164.0V134.0H542.0V164.0ZM235.0 289.0V-602.0H265.0V289.0ZM230.0 -183.0C162.0 -304.0 23.0 -423.0 -91.0 -480.0C-85.0 -486.0 -77.0 -497.0 -75.0 -505.0C43.0 -444.0 180.0 -320.0 254.0 -196.0ZM268.0 -183.0 244.0 -195.0C320.0 -313.0 463.0 -442.0 575.0 -504.0C580.0 -496.0 590.0 -486.0 597.0 -480.0C483.0 -424.0 342.0 -299.0 268.0 -183.0Z"/></g>
<g fill="black" opacity=".8" transform="translate(1500 200) scale(0.1 -0.1)"><path d="M0.0 0.0V-29.0H523.0V0.0ZM-25.0 163.0V132.0H541.0V163.0ZM236.0 281.0V-603.0H268.0V281.0ZM230.0 -180.0C161.0 -303.0 22.0 -420.0 -94.0 -479.0C-88.0 -484.0 -80.0 -495.0 -78.0 -503.0C42.0 -441.0 180.0 -317.0 252.0 -193.0ZM277.0 -180.0 252.0 -192.0C324.0 -313.0 460.0 -440.0 574.0 -500.0C579.0 -491.0 589.0 -481.0 596.0 -475.0C480.0 -420.0 344.0 -299.0 277.0 -180.0Z"/></g>
<g fill="red" transform="translate(1600 200) scale(0.1 -0.1)"><path d="M0.0 0.0V-121.0H541.0V0.0ZM-26.0 172.0V51.0H564.0V172.0ZM200.0 281.0V-669.0H334.0V281.0ZM188.0 -230.0C132.0 -316.0 22.0 -416.0 -85.0 -471.0C-63.0 -507.0 -31.0 -566.0 -19.0 -605.0C96.0 -534.0 207.0 -404.0 281.0 -285.0ZM361.0 -234.0 258.0 -275.0C323.0 -397.0 430.0 -522.0 533.0 -595.0C557.0 -558.0 603.0 -505.0 636.0 -477.0C532.0 -423.0 420.0 -326.0 361.0 -234.0Z"/></g>
<g fill="black" opacity=".8" transform="translate(1600 200) scale(0.1 -0.1)"><path d="M0.0 0.0V-124.0H544.0V0.0ZM-26.0 174.0V48.0H570.0V174.0ZM199.0 274.0V-665.0H339.0V274.0ZM179.0 -229.0C127.0 -315.0 20.0 -415.0 -85.0 -473.0C-61.0 -510.0 -27.0 -570.0 -14.0 -612.0C103.0 -539.0 211.0 -405.0 280.0 -283.0ZM363.0 -230.0 259.0 -271.0C322.0 -396.0 426.0 -527.0 527.0 -603.0C550.0 -567.0 597.0 -512.0 632.0 -485.0C530.0 -428.0 421.0 -326.0 363.0 -230.0Z"/></g>
<g fill="red" transform="translate(100 300) scale(0.1 -0.1)"><path d="M0.0 0.0V-30.0H578.0V0.0ZM35.0 244.0V214.0H530.0V244.0ZM262.0 421.0V-478.0H292.0V421.0ZM246.0 -8.0C176.0 -165.0 42.0 -323.0 -84.0 -394.0C-77.0 -400.0 -67.0 -410.0 -62.0 -418.0C63.0 -339.0 200.0 -181.0 271.0 -18.0ZM306.0 -2.0 282.0 -12.0C348.0 -155.0 467.0 -319.0 562.0 -398.0C568.0 -391.0 578.0 -381.0 585.0 -375.0C489.0 -303.0 369.0 -143.0 306.0 -2.0Z"/></g>
<g fill="black" opacity=".8" transform="translate(100 300) scale(0.1 -0.1)"><path d="M0.0 0.0V-31.0H570.0V0.0ZM41.0 242.0V211.0H525.0V242.0ZM258.0 430.0V-476.0H289.0V430.0ZM240.0 0.0C172.0 -163.0 42.0 -321.0 -85.0 -393.0C-77.0 -398.0 -67.0 -408.0 -63.0 -417.0C63.0 -337.0 197.0 -178.0 264.0 -11.0ZM311.0 1.0 286.0 -9.0C348.0 -159.0 460.0 -325.0 558.0 -406.0C563.0 -397.0 574.0 -386.0 581.0 -382.0C484.0 -307.0 369.0 -148.0 311.0 1.0Z"/></g>
<g fill="red" transform="translate(200 300) scale(0.1 -0.1)"><path d="M0.0 0.0V-131.0H541.0V0.0ZM18.0 234.0V104.0H527.0V234.0ZM196.0 391.0V-554.0H339.0V391.0ZM176.0 -57.0C126.0 -194.0 26.0 -333.0 -87.0 -409.0C-56.0 -435.0 -12.0 -485.0 10.0 -517.0C131.0 -422.0 230.0 -263.0 291.0 -92.0ZM361.0 -58.0 260.0 -91.0C307.0 -242.0 385.0 -406.0 466.0 -506.0C490.0 -471.0 536.0 -424.0 567.0 -400.0C487.0 -319.0 404.0 -181.0 361.0 -58.0Z"/></g>
<g fill="black" opacity=".8" transform="translate(200 300) scale(0.1 -0.1)"><path d="M0.0 0.0V-135.0H553.0V0.0ZM26.0 239.0V104.0H533.0V239.0ZM196.0 391.0V-559.0H342.0V391.0ZM182.0 -69.0C130.0 -200.0 26.0 -328.0 -94.0 -397.0C-62.0 -424.0 -17.0 -476.0 4.0 -510.0C132.0 -423.0 234.0 -271.0 295.0 -106.0ZM356.0 -63.0 254.0 -97.0C302.0 -246.0 383.0 -406.0 470.0 -502.0C494.0 -466.0 542.0 -414.0 576.0 -388.0C490.0 -312.0 402.0 -182.0 356.0 -63.0Z"/></g>
<g fill="red" transform="translate(300 300) scale(0.1 -0.1)"><path d="M0.0 0.0V-30.0H534.0V0.0ZM47.0 241.0V211.0H507.0V241.0ZM254.0 417.0V-482.0H283.0V417.0ZM241.0 -10.0C189.0 -163.0 86.0 -323.0 -18.0 -392.0C-10.0 -398.0 -1.0 -407.0 5.0 -415.0C109.0 -338.0 212.0 -179.0 265.0 -19.0ZM298.0 -9.0 274.0 -19.0C330.0 -167.0 437.0 -330.0 533.0 -406.0C539.0 -398.0 549.0 -388.0 556.0 -383.0C460.0 -314.0 353.0 -154.0 298.0 -9.0Z"/></g>
<g fill="black" opacity=".8" transform="translate(300 300) scale(0.1 -0.1)"><path d="M0.0 0.0V-30.0H542.0V0.0ZM45.0 236.0V204.0H505.0V236.0ZM250.0 411.0V-479.0H281.0V411.0ZM236.0 -11.0C184.0 -165.0 82.0 -324.0 -21.0 -397.0C-13.0 -402.0 -4.0 -410.0 1.0 -420.0C103.0 -340.0 208.0 -178.0 258.0 -21.0ZM300.0 -11.0 275.0 -20.0C331.0 -170.0 437.0 -335.0 533.0 -412.0C539.0 -404.0 549.0 -393.0 556.0 -388.0C460.0 -318.0 352.0 -159.0 300.0 -11.0Z"/></g>
<g fill="red" transform="translate(400 300) scale(0.1 -0.1)"><path d="M0.0 0.0V-130.0H545.0V0.0ZM22.0 226.0V96.0H513.0V226.0ZM203.0 376.0V-565.0H337.0V376.0ZM186.0 -100.0C140.0 -222.0 50.0 -343.0 -56.0 -406.0C-26.0 -431.0 16.0 -480.0 36.0 -513.0C146.0 -430.0 231.0 -283.0 282.0 -128.0ZM353.0 -88.0 259.0 -117.0C303.0 -262.0 375.0 -411.0 462.0 -498.0C484.0 -463.0 529.0 -414.0 560.0 -389.0C474.0 -322.0 395.0 -202.0 353.0 -88.0Z"/></g>
<g fill="black" opacity=".8" transform="translate(400 300) scale(0.1 -0.1)"><path d="M0.0 0.0V-132.0H543.0V0.0ZM25.0 232.0V98.0H515.0V232.0ZM198.0 371.0V-564.0H338.0V371.0ZM180.0 -88.0C138.0 -207.0 52.0 -329.0 -47.0 -396.0C-18.0 -426.0 24.0 -480.0 43.0 -517.0C152.0 -431.0 234.0 -276.0 282.0 -121.0ZM349.0 -78.0 253.0 -109.0C298.0 -257.0 373.0 -414.0 461.0 -505.0C484.0 -470.0 531.0 -418.0 564.0 -392.0C477.0 -322.0 394.0 -196.0 349.0 -78.0Z"/></g>
<g fill="red" transform="translate(500 300) scale(0.1 -0.1)"><path d="M0.0 0.0V-30.0H860.0V0.0ZM48.0 182.0V153.0H794.0V182.0ZM409.0 297.0V-391.0H439.0V297.0ZM391.0 -6.0C302.0 -142.0 129.0 -274.0 -22.0 -332.0C-15.0 -337.0 -6.0 -347.0 -1.0 -355.0C148.0 -291.0 323.0 -160.0 416.0 -18.0ZM461.0 -9.0 435.0 -21.0C523.0 -166.0 696.0 -295.0 853.0 -355.0C858.0 -347.0 867.0 -337.0 874.0 -330.0C715.0 -276.0 547.0 -149.0 461.0 -9.0Z"/></g>
<g fill="black" opacity=".8" transform="translate(500 300) scale(0.1 -0.1)"><path d="M0.0 0.0V-30.0H858.0V0.0ZM49.0 179.0V150.0H799.0V179.0ZM406.0 297.0V-390.0H437.0V297.0ZM389.0 -11.0C300.0 -146.0 129.0 -274.0 -22.0 -332.0C-15.0 -337.0 -6.0 -346.0 -2.0 -355.0C147.0 -291.0 321.0 -164.0 413.0 -24.0ZM461.0 -15.0 434.0 -27.0C525.0 -167.0 701.0 -296.0 856.0 -354.0C861.0 -346.0 871.0 -336.0 877.0 -329.0C721.0 -275.0 548.0 -150.0 461.0 -15.0Z"/></g>
<g fill="red" transform="translate(600 300) scale(0.1 -0.1)"><path d="M0.0 0.0V-135.0H874.0V0.0ZM51.0 187.0V53.0H803.0V187.0ZM356.0 261.0V-450.0H502.0V261.0ZM319.0 -68.0C245.0 -166.0 99.0 -260.0 -46.0 -308.0C-14.0 -338.0 31.0 -394.0 53.0 -430.0C205.0 -366.0 351.0 -251.0 443.0 -120.0ZM532.0 -71.0 414.0 -118.0C507.0 -257.0 652.0 -371.0 813.0 -432.0C835.0 -392.0 881.0 -333.0 915.0 -302.0C757.0 -259.0 609.0 -171.0 532.0 -71.0Z"/></g>
<g fill="black" opacity=".8" transform="translate(600 300) scale(0.1 -0.1)"><path d="M0.0 0.0V-136.0H869.0V0.0ZM53.0 188.0V52.0H803.0V188.0ZM355.0 260.0V-449.0H503.0V260.0ZM318.0 -65.0C245.0 -164.0 100.0 -259.0 -42.0 -310.0C-10.0 -340.0 35.0 -395.0 56.0 -433.0C207.0 -367.0 351.0 -250.0 442.0 -118.0ZM529.0 -61.0 411.0 -108.0C503.0 -251.0 650.0 -371.0 811.0 -434.0C834.0 -395.0 880.0 -334.0 915.0 -302.0C757.0 -258.0 607.0 -165.0 529.0 -61.0Z"/></g>
<g fill="red" transform="translate(700 300) scale(0.1 -0.1)"><path d="M0.0 0.0V-29.0H490.0V0.0ZM110.0 260.0V231.0H525.0V260.0ZM242.0 349.0V155.0H271.0V349.0ZM204.0 -195.0C144.0 -321.0 24.0 -443.0 -92.0 -496.0C-85.0 -501.0 -77.0 -510.0 -72.0 -518.0C45.0 -459.0 166.0 -337.0 228.0 -204.0ZM274.0 -199.0 251.0 -208.0C307.0 -328.0 415.0 -452.0 514.0 -510.0C519.0 -502.0 529.0 -493.0 536.0 -487.0C436.0 -436.0 328.0 -314.0 274.0 -199.0Z"/></g>
<g fill="black" opacity=".8" transform="translate(700 300) scale(0.1 -0.1)"><path d="M0.0 0.0V-29.0H491.0V0.0ZM110.0 260.0V230.0H524.0V260.0ZM241.0 348.0V156.0H271.0V348.0ZM205.0 -193.0C144.0 -321.0 24.0 -442.0 -92.0 -495.0C-86.0 -500.0 -78.0 -509.0 -73.0 -517.0C44.0 -458.0 167.0 -336.0 227.0 -204.0ZM276.0 -197.0 252.0 -206.0C308.0 -327.0 415.0 -452.0 514.0 -509.0C518.0 -501.0 529.0 -492.0 535.0 -486.0C435.0 -435.0 327.0 -314.0 276.0 -197.0Z"/></g>
<g fill="red" transform="translate(800 300) scale(0.1 -0.1)"><path d="M0.0 0.0V-125.0H505.0V0.0ZM95.0 281.0V155.0H532.0V281.0ZM219.0 335.0V96.0H364.0V335.0ZM149.0 -254.0C101.0 -347.0 7.0 -433.0 -101.0 -477.0C-69.0 -505.0 -25.0 -560.0 -3.0 -596.0C113.0 -533.0 205.0 -419.0 262.0 -289.0ZM337.0 -254.0 240.0 -287.0C287.0 -401.0 366.0 -515.0 453.0 -579.0C475.0 -543.0 520.0 -491.0 552.0 -464.0C466.0 -419.0 382.0 -336.0 337.0 -254.0Z"/></g>
<g fill="black" opacity=".8" transform="translate(800 300) scale(0.1 -0.1)"><path d="M0.0 0.0V-124.0H507.0V0.0ZM95.0 281.0V154.0H532.0V281.0ZM220.0 334.0V96.0H364.0V334.0ZM149.0 -254.0C102.0 -348.0 6.0 -434.0 -102.0 -478.0C-70.0 -506.0 -25.0 -559.0 -4.0 -596.0C114.0 -534.0 206.0 -419.0 261.0 -290.0ZM337.0 -255.0 240.0 -288.0C287.0 -401.0 366.0 -516.0 452.0 -579.0C474.0 -544.0 520.0 -491.0 551.0 -464.0C466.0 -420.0 382.0 -337.0 337.0 -255.0Z"/></g>
<g fill="red" transform="translate(900 300) scale(0.1 -0.1)"><path d="M0.0 0.0V-29.0H477.0V0.0ZM-23.0 164.0V134.0H498.0V164.0ZM222.0 292.0V-607.0H252.0V292.0ZM214.0 -184.0C156.0 -309.0 35.0 -437.0 -65.0 -500.0C-59.0 -505.0 -51.0 -516.0 -47.0 -523.0C57.0 -457.0 175.0 -323.0 237.0 -195.0ZM263.0 -184.0 238.0 -195.0C301.0 -326.0 423.0 -458.0 536.0 -521.0C542.0 -513.0 551.0 -503.0 559.0 -497.0C444.0 -441.0 323.0 -312.0 263.0 -184.0Z"/></g>
<g fill="black" opacity=".8" transform="translate(900 300) scale(0.1 -0.1)"><path d="M0.0 0.0V-29.0H480.0V0.0ZM-13.0 164.0V133.0H502.0V164.0ZM219.0 299.0V-607.0H250.0V299.0ZM214.0 -192.0C157.0 -316.0 39.0 -443.0 -60.0 -506.0C-54.0 -510.0 -45.0 -521.0 -43.0 -529.0C59.0 -463.0 177.0 -330.0 237.0 -205.0ZM256.0 -193.0 231.0 -205.0C299.0 -329.0 426.0 -465.0 534.0 -528.0C539.0 -519.0 549.0 -508.0 556.0 -503.0C447.0 -446.0 319.0 -316.0 256.0 -193.0Z"/></g>
<g fill="red" transform="translate(1000 300) scale(0.1 -0.1)"><path d="M0.0 0.0V-131.0H523.0V0.0ZM-26.0 172.0V41.0H546.0V172.0ZM190.0 281.0V-669.0H337.0V281.0ZM163.0 -253.0C123.0 -340.0 38.0 -450.0 -47.0 -513.0C-24.0 -552.0 8.0 -614.0 21.0 -656.0C119.0 -575.0 205.0 -427.0 260.0 -301.0ZM355.0 -249.0 258.0 -284.0C311.0 -420.0 400.0 -564.0 491.0 -649.0C515.0 -612.0 562.0 -560.0 596.0 -534.0C503.0 -468.0 407.0 -354.0 355.0 -249.0Z"/></g>
<g fill="black" opacity=".8" transform="translate(1000 300) scale(0.1 -0.1)"><path d="M0.0 0.0V-126.0H519.0V0.0ZM-16.0 173.0V45.0H537.0V173.0ZM192.0 295.0V-674.0H333.0V295.0ZM170.0 -248.0C127.0 -335.0 34.0 -442.0 -56.0 -504.0C-33.0 -543.0 0.0 -605.0 13.0 -648.0C116.0 -570.0 208.0 -424.0 266.0 -300.0ZM354.0 -251.0 253.0 -289.0C309.0 -417.0 403.0 -555.0 496.0 -635.0C519.0 -599.0 567.0 -545.0 602.0 -518.0C509.0 -457.0 408.0 -350.0 354.0 -251.0Z"/></g>
<g fill="red" transform="translate(1100 300) scale(0.1 -0.1)"><path d="M0.0 0.0V-29.0H460.0V0.0ZM-9.0 164.0V134.0H481.0V164.0ZM212.0 289.0V-602.0H241.0V289.0ZM204.0 -184.0C154.0 -299.0 51.0 -421.0 -36.0 -481.0C-30.0 -487.0 -21.0 -498.0 -17.0 -505.0C73.0 -442.0 175.0 -312.0 229.0 -195.0ZM246.0 -184.0 222.0 -195.0C283.0 -313.0 399.0 -440.0 498.0 -501.0C504.0 -493.0 513.0 -482.0 521.0 -476.0C421.0 -422.0 305.0 -300.0 246.0 -184.0Z"/></g>
<g fill="black" opacity=".8" transform="translate(1100 300) scale(0.1 -0.1)"><path d="M0.0 0.0V-29.0H462.0V0.0ZM-12.0 163.0V132.0H476.0V163.0ZM208.0 287.0V-598.0H239.0V287.0ZM204.0 -172.0C154.0 -293.0 50.0 -417.0 -39.0 -479.0C-34.0 -483.0 -26.0 -494.0 -23.0 -502.0C71.0 -437.0 174.0 -304.0 225.0 -184.0ZM249.0 -171.0 224.0 -182.0C284.0 -307.0 396.0 -439.0 499.0 -500.0C505.0 -491.0 514.0 -481.0 522.0 -476.0C418.0 -420.0 303.0 -294.0 249.0 -171.0Z"/></g>
<g fill="red" transform="translate(1200 300) scale(0.1 -0.1)"><path d="M0.0 0.0V-122.0H469.0V0.0ZM-19.0 172.0V48.0H490.0V172.0ZM165.0 281.0V-669.0H299.0V281.0ZM145.0 -230.0C105.0 -308.0 22.0 -404.0 -61.0 -459.0C-38.0 -500.0 -6.0 -565.0 7.0 -609.0C105.0 -536.0 189.0 -399.0 245.0 -282.0ZM318.0 -229.0 214.0 -267.0C267.0 -389.0 354.0 -517.0 442.0 -592.0C466.0 -555.0 513.0 -503.0 546.0 -476.0C458.0 -419.0 367.0 -321.0 318.0 -229.0Z"/></g>
<g fill="black" opacity=".8" transform="translate(1200 300) scale(0.1 -0.1)"><path d="M0.0 0.0V-122.0H474.0V0.0ZM-29.0 170.0V46.0H494.0V170.0ZM165.0 272.0V-666.0H299.0V272.0ZM144.0 -239.0C106.0 -315.0 25.0 -408.0 -55.0 -463.0C-33.0 -503.0 -4.0 -567.0 7.0 -611.0C101.0 -540.0 182.0 -402.0 233.0 -288.0ZM314.0 -231.0 220.0 -266.0C270.0 -390.0 356.0 -523.0 444.0 -599.0C467.0 -563.0 513.0 -510.0 547.0 -483.0C458.0 -427.0 365.0 -327.0 314.0 -231.0Z"/></g>
<g fill="red" transform="translate(1300 300) scale(0.1 -0.1)"><path d="M0.0 0.0V-29.0H671.0V0.0ZM-93.0 330.0V301.0H767.0V330.0ZM319.0 226.0V-466.0H349.0V226.0ZM304.0 -142.0C217.0 -261.0 41.0 -361.0 -122.0 -402.0C-115.0 -409.0 -106.0 -419.0 -101.0 -427.0C60.0 -380.0 239.0 -279.0 329.0 -155.0ZM367.0 -140.0 341.0 -152.0C426.0 -278.0 600.0 -381.0 763.0 -426.0C768.0 -418.0 777.0 -407.0 785.0 -400.0C619.0 -360.0 449.0 -261.0 367.0 -140.0Z"/></g>
<g fill="black" opacity=".8" transform="translate(1300 300) scale(0.1 -0.1)"><path d="M0.0 0.0V-29.0H671.0V0.0ZM-92.0 330.0V301.0H767.0V330.0ZM318.0 227.0V-465.0H349.0V227.0ZM305.0 -142.0C217.0 -262.0 42.0 -361.0 -122.0 -402.0C-115.0 -408.0 -106.0 -418.0 -101.0 -427.0C60.0 -379.0 239.0 -279.0 328.0 -157.0ZM368.0 -141.0 342.0 -153.0C427.0 -278.0 601.0 -382.0 763.0 -426.0C768.0 -417.0 777.0 -406.0 785.0 -400.0C619.0 -359.0 448.0 -261.0 368.0 -141.0Z"/></g>
<g fill="red" transform="translate(1400 300) scale(0.1 -0.1)"><path d="M0.0 0.0V-111.0H703.0V0.0ZM-103.0 364.0V233.0H802.0V364.0ZM277.0 194.0V-526.0H421.0V194.0ZM253.0 -161.0C180.0 -261.0 36.0 -347.0 -126.0 -386.0C-95.0 -413.0 -52.0 -466.0 -32.0 -499.0C137.0 -444.0 278.0 -336.0 366.0 -200.0ZM441.0 -161.0 333.0 -198.0C421.0 -335.0 560.0 -442.0 728.0 -496.0C749.0 -460.0 792.0 -406.0 824.0 -378.0C660.0 -341.0 516.0 -259.0 441.0 -161.0Z"/></g>
<g fill="black" opacity=".8" transform="translate(1400 300) scale(0.1 -0.1)"><path d="M0.0 0.0V-110.0H703.0V0.0ZM-102.0 364.0V233.0H802.0V364.0ZM277.0 196.0V-526.0H421.0V196.0ZM253.0 -161.0C180.0 -262.0 35.0 -346.0 -127.0 -386.0C-95.0 -412.0 -53.0 -465.0 -33.0 -498.0C137.0 -444.0 278.0 -336.0 365.0 -201.0ZM441.0 -162.0 333.0 -199.0C421.0 -334.0 560.0 -442.0 728.0 -495.0C749.0 -460.0 792.0 -405.0 824.0 -377.0C661.0 -341.0 516.0 -259.0 441.0 -162.0Z"/></g>
<g fill="red" transform="translate(1500 300) scale(0.1 -0.1)"><path d="M0.0 0.0V-30.0H477.0V0.0ZM43.0 231.0V202.0H436.0V231.0ZM219.0 412.0V-483.0H248.0V412.0ZM203.0 -11.0C161.0 -157.0 71.0 -317.0 -14.0 -394.0C-7.0 -399.0 1.0 -410.0 6.0 -418.0C94.0 -335.0 184.0 -167.0 227.0 -19.0ZM265.0 -9.0 241.0 -18.0C288.0 -169.0 379.0 -331.0 467.0 -410.0C473.0 -402.0 483.0 -392.0 490.0 -387.0C401.0 -316.0 311.0 -158.0 265.0 -9.0Z"/></g>
<g fill="black" opacity=".8" transform="translate(1500 300) scale(0.1 -0.1)"><path d="M0.0 0.0V-29.0H475.0V0.0ZM43.0 230.0V199.0H442.0V230.0ZM218.0 410.0V-489.0H247.0V410.0ZM206.0 -12.0C163.0 -163.0 77.0 -320.0 -12.0 -393.0C-5.0 -398.0 4.0 -406.0 8.0 -415.0C98.0 -335.0 187.0 -175.0 227.0 -22.0ZM265.0 -12.0 241.0 -21.0C291.0 -166.0 383.0 -331.0 467.0 -408.0C473.0 -400.0 483.0 -389.0 489.0 -385.0C405.0 -315.0 310.0 -157.0 265.0 -12.0Z"/></g>
<g fill="red" transform="translate(1600 300) scale(0.1 -0.1)"><path d="M0.0 0.0V-130.0H479.0V0.0ZM22.0 228.0V98.0H450.0V228.0ZM167.0 366.0V-579.0H301.0V366.0ZM152.0 -86.0C120.0 -190.0 53.0 -310.0 -26.0 -380.0C-3.0 -418.0 30.0 -479.0 43.0 -520.0C133.0 -432.0 202.0 -266.0 242.0 -120.0ZM317.0 -86.0 232.0 -113.0C269.0 -254.0 333.0 -414.0 402.0 -507.0C426.0 -472.0 472.0 -427.0 504.0 -404.0C432.0 -328.0 357.0 -200.0 317.0 -86.0Z"/></g>
<g fill="black" opacity=".8" transform="translate(1600 300) scale(0.1 -0.1)"><path d="M0.0 0.0V-127.0H481.0V0.0ZM22.0 224.0V96.0H455.0V224.0ZM171.0 372.0V-574.0H305.0V372.0ZM157.0 -90.0C122.0 -207.0 49.0 -329.0 -38.0 -398.0C-10.0 -426.0 29.0 -478.0 46.0 -514.0C143.0 -427.0 212.0 -272.0 250.0 -119.0ZM314.0 -81.0 225.0 -108.0C262.0 -251.0 324.0 -408.0 398.0 -500.0C421.0 -467.0 466.0 -419.0 497.0 -395.0C424.0 -323.0 353.0 -197.0 314.0 -81.0Z"/></g>
<g fill="red" transform="translate(100 400) scale(0.1 -0.1)"><path d="M0.0 0.0V-30.0H548.0V0.0ZM47.0 241.0V211.0H507.0V241.0ZM254.0 417.0V-482.0H283.0V417.0ZM241.0 -10.0C189.0 -163.0 86.0 -323.0 -18.0 -392.0C-10.0 -398.0 -1.0 -407.0 5.0 -415.0C109.0 -338.0 212.0 -179.0 265.0 -19.0ZM298.0 -9.0 274.0 -19.0C331.0 -167.0 440.0 -330.0 537.0 -406.0C543.0 -398.0 553.0 -388.0 561.0 -383.0C462.0 -314.0 354.0 -154.0 298.0 -9.0Z"/></g>
<g fill="black" opacity=".8" transform="translate(100 400) scale(0.1 -0.1)"><path d="M0.0 0.0V-30.0H543.0V0.0ZM47.0 235.0V204.0H505.0V235.0ZM251.0 411.0V-479.0H282.0V411.0ZM237.0 -10.0C187.0 -164.0 88.0 -323.0 -13.0 -396.0C-6.0 -401.0 4.0 -410.0 8.0 -419.0C109.0 -339.0 211.0 -177.0 260.0 -20.0ZM301.0 -9.0 276.0 -19.0C332.0 -170.0 437.0 -335.0 534.0 -412.0C540.0 -404.0 550.0 -393.0 557.0 -388.0C460.0 -318.0 353.0 -158.0 301.0 -9.0Z"/></g>
<g fill="red" transform="translate(200 400) scale(0.1 -0.1)"><path d="M0.0 0.0V-130.0H545.0V0.0ZM22.0 226.0V96.0H513.0V226.0ZM203.0 376.0V-565.0H337.0V376.0ZM186.0 -100.0C144.0 -221.0 63.0 -342.0 -34.0 -406.0C-5.0 -431.0 37.0 -480.0 58.0 -512.0C160.0 -428.0 236.0 -281.0 282.0 -127.0ZM353.0 -88.0 259.0 -117.0C303.0 -262.0 375.0 -411.0 462.0 -498.0C484.0 -463.0 529.0 -414.0 560.0 -389.0C474.0 -322.0 395.0 -202.0 353.0 -88.0Z"/></g>
<g fill="black" opacity=".8" transform="translate(200 400) scale(0.1 -0.1)"><path d="M0.0 0.0V-132.0H547.0V0.0ZM27.0 231.0V97.0H516.0V231.0ZM201.0 371.0V-564.0H341.0V371.0ZM182.0 -88.0C141.0 -206.0 57.0 -328.0 -41.0 -396.0C-12.0 -426.0 30.0 -480.0 48.0 -518.0C156.0 -431.0 237.0 -275.0 283.0 -120.0ZM352.0 -78.0 256.0 -108.0C301.0 -257.0 375.0 -414.0 464.0 -505.0C487.0 -470.0 534.0 -418.0 567.0 -392.0C480.0 -322.0 396.0 -196.0 352.0 -78.0Z"/></g>
<g fill="red" transform="translate(300 400) scale(0.1 -0.1)"><path d="M0.0 0.0V-29.0H530.0V0.0ZM34.0 220.0V190.0H485.0V220.0ZM239.0 396.0V-503.0H268.0V396.0ZM226.0 -9.0C177.0 -173.0 80.0 -346.0 -20.0 -420.0C-13.0 -426.0 -3.0 -435.0 2.0 -443.0C102.0 -360.0 199.0 -188.0 249.0 -17.0ZM283.0 -8.0 258.0 -17.0C312.0 -179.0 412.0 -357.0 505.0 -442.0C511.0 -435.0 521.0 -425.0 529.0 -419.0C435.0 -343.0 334.0 -166.0 283.0 -8.0Z"/></g>
<g fill="black" opacity=".8" transform="translate(300 400) scale(0.1 -0.1)"><path d="M0.0 0.0V-30.0H524.0V0.0ZM43.0 229.0V198.0H490.0V229.0ZM241.0 410.0V-493.0H272.0V410.0ZM228.0 -24.0C176.0 -177.0 75.0 -335.0 -26.0 -408.0C-18.0 -413.0 -9.0 -422.0 -5.0 -431.0C96.0 -351.0 200.0 -190.0 250.0 -34.0ZM289.0 -24.0 264.0 -33.0C321.0 -181.0 425.0 -346.0 519.0 -424.0C525.0 -415.0 535.0 -405.0 542.0 -400.0C448.0 -329.0 341.0 -170.0 289.0 -24.0Z"/></g>
<g fill="red" transform="translate(400 400) scale(0.1 -0.1)"><path d="M0.0 0.0V-130.0H545.0V0.0ZM19.0 226.0V96.0H510.0V226.0ZM194.0 376.0V-565.0H338.0V376.0ZM178.0 -100.0C131.0 -223.0 40.0 -345.0 -68.0 -410.0C-36.0 -437.0 9.0 -491.0 32.0 -526.0C144.0 -440.0 230.0 -290.0 281.0 -130.0ZM345.0 -88.0 247.0 -118.0C294.0 -268.0 370.0 -422.0 462.0 -512.0C486.0 -475.0 532.0 -423.0 565.0 -398.0C473.0 -328.0 389.0 -205.0 345.0 -88.0Z"/></g>
<g fill="black" opacity=".8" transform="translate(400 400) scale(0.1 -0.1)"><path d="M0.0 0.0V-132.0H530.0V0.0ZM25.0 225.0V92.0H504.0V225.0ZM193.0 374.0V-577.0H333.0V374.0ZM176.0 -99.0C134.0 -218.0 50.0 -342.0 -47.0 -411.0C-18.0 -441.0 23.0 -495.0 42.0 -532.0C148.0 -444.0 230.0 -288.0 277.0 -133.0ZM345.0 -92.0 249.0 -122.0C293.0 -269.0 367.0 -427.0 450.0 -519.0C474.0 -485.0 521.0 -433.0 554.0 -408.0C471.0 -336.0 389.0 -209.0 345.0 -92.0Z"/></g>
</svg>
