<?xml version="1.0" encoding="UTF-8"?>
<svg width="1700" height="400" xmlns="http://www.w3.org/2000/svg">
<rect width="100%" height="100%" fill="white"/>
<g fill="green" transform="translate(100 100) scale(0.1 -0.1)"><path d="M-0.0 -0.0V101.0H567.0V0.0ZM617.0 474.0V-508.0C617.0 -623.0 654.0 -647.0 795.0 -647.0C825.0 -647.0 1132.0 -647.0 1164.0 -647.0C1292.0 -647.0 1312.0 -583.0 1322.0 -360.0C1306.0 -356.0 1287.0 -348.0 1271.0 -336.0C1263.0 -551.0 1251.0 -599.0 1164.0 -599.0C1100.0 -599.0 837.0 -599.0 790.0 -599.0C690.0 -599.0 670.0 -583.0 670.0 -509.0V474.0ZM-101.0 -647.0C-101.0 -624.0 -29.0 -575.0 -29.0 -575.0V468.0H-83.0V-493.0C-83.0 -560.0 -113.0 -584.0 -131.0 -594.0C-121.0 -608.0 -107.0 -632.0 -101.0 -647.0ZM-101.0 -647.0C-70.0 -627.0 -20.0 -613.0 500.0 -484.0C498.0 -473.0 495.0 -451.0 496.0 -435.0L-58.0 -566.0L-102.0 -598.0ZM652.0 73.0V20.0H1204.0V73.0Z"/></g>
<g fill="green" transform="translate(200 100) scale(0.1 -0.1)"><path d="M0.0 0.0V-152.0H495.0V0.0ZM478.0 373.0V-518.0C478.0 -766.0 540.0 -838.0 768.0 -838.0C814.0 -838.0 956.0 -838.0 1005.0 -838.0C1191.0 -838.0 1257.0 -748.0 1283.0 -501.0C1213.0 -487.0 1113.0 -446.0 1057.0 -407.0C1047.0 -572.0 1034.0 -614.0 978.0 -614.0C947.0 -614.0 836.0 -614.0 807.0 -614.0C744.0 -614.0 735.0 -604.0 735.0 -519.0V373.0ZM-216.0 -861.0C-216.0 -774.0 26.0 -657.0 26.0 -657.0V372.0H-235.0V-516.0C-235.0 -595.0 -272.0 -636.0 -310.0 -658.0C-276.0 -701.0 -230.0 -802.0 -216.0 -861.0ZM-216.0 -861.0C-158.0 -831.0 -70.0 -810.0 426.0 -722.0C417.0 -670.0 410.0 -573.0 412.0 -507.0L-122.0 -586.0L-231.0 -660.0ZM684.0 32.0V-190.0H1152.0V32.0Z"/></g>
<g fill="green" transform="translate(300 100) scale(0.1 -0.1)"><path d="M0.0 -0.0V270.0H394.0V0.0ZM276.0 354.0V-86.0C276.0 -151.0 297.0 -165.0 382.0 -165.0C399.0 -165.0 589.0 -165.0 607.0 -165.0C684.0 -165.0 695.0 -129.0 701.0 0.0C694.0 2.0 684.0 6.0 676.0 12.0C670.0 -114.0 663.0 -141.0 607.0 -141.0C568.0 -141.0 407.0 -141.0 378.0 -141.0C316.0 -141.0 303.0 -132.0 303.0 -87.0V354.0ZM-167.0 -156.0C-167.0 -144.0 -131.0 -119.0 -131.0 -119.0V348.0H-160.0V-76.0C-160.0 -111.0 -174.0 -123.0 -182.0 -129.0C-177.0 -136.0 -170.0 -148.0 -167.0 -156.0ZM-167.0 -156.0C-149.0 -146.0 -120.0 -141.0 200.0 -83.0C199.0 -77.0 198.0 -65.0 199.0 -56.0L-142.0 -116.0L-168.0 -131.0ZM300.0 132.0V104.0H622.0V132.0Z"/></g>
<g fill="green" transform="translate(400 100) scale(0.1 -0.1)"><path d="M0.0 0.0V83.0H314.0V0.0ZM164.0 272.0V-129.0C164.0 -257.0 201.0 -292.0 331.0 -292.0C359.0 -292.0 458.0 -292.0 488.0 -292.0C593.0 -292.0 629.0 -249.0 643.0 -129.0C607.0 -123.0 556.0 -103.0 527.0 -84.0C520.0 -161.0 511.0 -180.0 473.0 -180.0C451.0 -180.0 368.0 -180.0 347.0 -180.0C304.0 -180.0 297.0 -175.0 297.0 -130.0V272.0ZM-263.0 -306.0C-263.0 -262.0 -139.0 -203.0 -139.0 -203.0V275.0H-276.0V-137.0C-276.0 -178.0 -291.0 -196.0 -308.0 -207.0C-292.0 -226.0 -269.0 -277.0 -263.0 -306.0ZM-263.0 -306.0C-228.0 -292.0 -177.0 -285.0 129.0 -247.0C126.0 -223.0 123.0 -176.0 124.0 -145.0L-201.0 -175.0L-264.0 -212.0ZM300.0 78.0V-31.0H555.0V78.0Z"/></g>
<g fill="green" transform="translate(500 100) scale(0.1 -0.1)"><path d="M0.0 0.0V-208.0H229.0V0.0ZM489.0 470.0V-784.0C489.0 -873.0 510.0 -894.0 586.0 -894.0C603.0 -894.0 737.0 -894.0 756.0 -894.0C839.0 -894.0 849.0 -835.0 856.0 -659.0C844.0 -657.0 831.0 -649.0 819.0 -641.0C814.0 -812.0 809.0 -860.0 760.0 -860.0C729.0 -860.0 607.0 -860.0 585.0 -860.0C536.0 -860.0 526.0 -847.0 526.0 -785.0V470.0ZM95.0 -874.0C95.0 -862.0 137.0 -821.0 137.0 -821.0V463.0H100.0V-766.0C100.0 -814.0 84.0 -833.0 74.0 -840.0C80.0 -849.0 90.0 -865.0 95.0 -874.0ZM95.0 -874.0C112.0 -858.0 143.0 -842.0 417.0 -719.0C414.0 -712.0 409.0 -697.0 408.0 -686.0L119.0 -811.0L94.0 -837.0ZM518.0 -61.0V-96.0H771.0V-61.0Z"/></g>
<g fill="green" transform="translate(600 100) scale(0.1 -0.1)"><path d="M0.0 0.0V-391.0H198.0V0.0ZM376.0 429.0V-746.0C376.0 -953.0 412.0 -1012.0 534.0 -1012.0C556.0 -1012.0 597.0 -1012.0 619.0 -1012.0C739.0 -1012.0 779.0 -916.0 796.0 -697.0C745.0 -685.0 676.0 -650.0 634.0 -617.0C628.0 -785.0 623.0 -837.0 601.0 -837.0C597.0 -837.0 578.0 -837.0 571.0 -837.0C553.0 -837.0 554.0 -826.0 554.0 -750.0V429.0ZM36.0 -1016.0C36.0 -945.0 196.0 -861.0 196.0 -861.0V422.0H13.0V-750.0C13.0 -807.0 -14.0 -843.0 -41.0 -861.0C-14.0 -895.0 23.0 -971.0 36.0 -1016.0ZM36.0 -1016.0C68.0 -989.0 120.0 -960.0 352.0 -867.0C341.0 -826.0 328.0 -750.0 325.0 -697.0L73.0 -783.0L8.0 -841.0ZM555.0 -71.0V-259.0H730.0V-71.0Z"/></g>
<g fill="green" transform="translate(700 100) scale(0.1 -0.1)"><path d="M0.0 0.0V-355.0H349.0V0.0ZM735.0 78.0V-455.0C735.0 -539.0 765.0 -555.0 881.0 -555.0C905.0 -555.0 1166.0 -555.0 1191.0 -555.0C1291.0 -555.0 1308.0 -512.0 1315.0 -348.0C1304.0 -344.0 1288.0 -339.0 1276.0 -330.0C1270.0 -487.0 1260.0 -518.0 1190.0 -518.0C1137.0 -518.0 915.0 -518.0 877.0 -518.0C792.0 -518.0 777.0 -507.0 777.0 -456.0V78.0ZM169.0 -559.0C169.0 -540.0 233.0 -508.0 233.0 -508.0V81.0H190.0V-443.0C190.0 -493.0 163.0 -509.0 146.0 -516.0C154.0 -527.0 164.0 -546.0 169.0 -559.0ZM169.0 -559.0C193.0 -545.0 232.0 -536.0 642.0 -454.0C640.0 -445.0 639.0 -427.0 640.0 -416.0L203.0 -498.0L168.0 -521.0ZM759.0 -116.0V-157.0H1233.0V-116.0Z"/></g>
<g fill="green" transform="translate(800 100) scale(0.1 -0.1)"><path d="M0.0 0.0V-505.0H375.0V0.0ZM681.0 24.0V-447.0C681.0 -623.0 733.0 -674.0 921.0 -674.0C960.0 -674.0 1095.0 -674.0 1136.0 -674.0C1284.0 -674.0 1336.0 -612.0 1355.0 -429.0C1302.0 -419.0 1225.0 -390.0 1183.0 -362.0C1175.0 -483.0 1163.0 -512.0 1114.0 -512.0C1083.0 -512.0 975.0 -512.0 948.0 -512.0C890.0 -512.0 880.0 -505.0 880.0 -447.0V24.0ZM103.0 -704.0C103.0 -646.0 305.0 -569.0 305.0 -569.0V21.0H108.0V-468.0C108.0 -524.0 75.0 -546.0 46.0 -557.0C69.0 -588.0 96.0 -662.0 103.0 -704.0ZM103.0 -703.0C148.0 -684.0 217.0 -673.0 629.0 -623.0C625.0 -585.0 625.0 -515.0 630.0 -467.0L184.0 -510.0L98.0 -564.0ZM833.0 -122.0V-285.0H1244.0V-122.0Z"/></g>
<g fill="green" transform="translate(900 100) scale(0.1 -0.1)"><path d="M-0.0 -0.0V366.0H705.0V0.0ZM581.0 -15.0V-548.0C581.0 -646.0 617.0 -666.0 754.0 -666.0C783.0 -666.0 1097.0 -666.0 1128.0 -666.0C1256.0 -666.0 1276.0 -609.0 1286.0 -389.0C1273.0 -386.0 1255.0 -379.0 1241.0 -368.0C1234.0 -585.0 1221.0 -623.0 1128.0 -623.0C1062.0 -623.0 796.0 -623.0 748.0 -623.0C647.0 -623.0 626.0 -610.0 626.0 -548.0V-15.0ZM-149.0 -665.0C-149.0 -644.0 -78.0 -609.0 -78.0 -609.0V-32.0H-124.0V-538.0C-124.0 -593.0 -155.0 -610.0 -172.0 -618.0C-165.0 -631.0 -154.0 -651.0 -149.0 -665.0ZM-149.0 -665.0C-119.0 -650.0 -72.0 -640.0 456.0 -543.0C455.0 -533.0 454.0 -514.0 456.0 -500.0L-107.0 -601.0L-150.0 -626.0ZM566.0 178.0V131.0H1185.0V178.0Z"/></g>
<g fill="green" transform="translate(1000 100) scale(0.1 -0.1)"><path d="M0.0 0.0V126.0H650.0V0.0ZM482.0 -148.0V-587.0C482.0 -795.0 539.0 -859.0 768.0 -859.0C815.0 -859.0 960.0 -859.0 1010.0 -859.0C1189.0 -859.0 1252.0 -795.0 1278.0 -586.0C1215.0 -574.0 1119.0 -539.0 1069.0 -505.0C1059.0 -632.0 1046.0 -657.0 986.0 -657.0C951.0 -657.0 833.0 -657.0 800.0 -657.0C732.0 -657.0 721.0 -650.0 721.0 -585.0V-148.0ZM-271.0 -877.0C-271.0 -804.0 -19.0 -709.0 -19.0 -709.0V-153.0H-264.0V-574.0C-264.0 -639.0 -307.0 -667.0 -345.0 -682.0C-315.0 -725.0 -280.0 -822.0 -271.0 -877.0ZM-271.0 -878.0C-208.0 -853.0 -119.0 -847.0 431.0 -784.0C423.0 -738.0 416.0 -656.0 418.0 -600.0L-163.0 -652.0L-273.0 -717.0ZM578.0 117.0V-53.0H1167.0V117.0Z"/></g>
<g fill="green" transform="translate(1100 100) scale(0.1 -0.1)"><path d="M-0.0 0.0V17.0H551.0V0.0ZM583.0 426.0V-554.0C583.0 -673.0 623.0 -697.0 773.0 -697.0C804.0 -697.0 1132.0 -697.0 1166.0 -697.0C1298.0 -697.0 1320.0 -634.0 1329.0 -409.0C1312.0 -404.0 1290.0 -396.0 1273.0 -383.0C1265.0 -598.0 1252.0 -645.0 1165.0 -645.0C1096.0 -645.0 817.0 -645.0 767.0 -645.0C662.0 -645.0 641.0 -629.0 641.0 -556.0V426.0ZM-119.0 -694.0C-119.0 -667.0 -47.0 -614.0 -47.0 -614.0V433.0H-105.0V-525.0C-105.0 -598.0 -134.0 -625.0 -152.0 -636.0C-141.0 -651.0 -125.0 -677.0 -119.0 -694.0ZM-119.0 -694.0C-87.0 -671.0 -35.0 -656.0 475.0 -517.0C472.0 -504.0 468.0 -481.0 468.0 -463.0L-74.0 -603.0L-120.0 -639.0ZM620.0 17.0V-41.0H1200.0V17.0Z"/></g>
<g fill="green" transform="translate(1200 100) scale(0.1 -0.1)"><path d="M0.0 0.0V-81.0H466.0V0.0ZM469.0 400.0V-483.0C469.0 -730.0 534.0 -803.0 776.0 -803.0C824.0 -803.0 983.0 -803.0 1034.0 -803.0C1226.0 -803.0 1294.0 -710.0 1319.0 -454.0C1248.0 -441.0 1144.0 -399.0 1086.0 -359.0C1076.0 -535.0 1063.0 -580.0 1005.0 -580.0C970.0 -580.0 846.0 -580.0 815.0 -580.0C748.0 -580.0 738.0 -570.0 738.0 -484.0V400.0ZM-216.0 -824.0C-216.0 -733.0 18.0 -584.0 18.0 -584.0V398.0H-246.0V-444.0C-246.0 -537.0 -291.0 -598.0 -332.0 -627.0C-294.0 -668.0 -234.0 -767.0 -216.0 -824.0ZM-216.0 -824.0C-160.0 -793.0 -73.0 -765.0 421.0 -667.0C412.0 -612.0 405.0 -511.0 408.0 -441.0L-132.0 -535.0L-238.0 -612.0ZM663.0 41.0V-170.0H1158.0V41.0Z"/></g>
<g fill="green" transform="translate(1300 100) scale(0.1 -0.1)"><path d="M0.0 0.0V104.0H564.0V0.0ZM595.0 491.0V-493.0C595.0 -603.0 634.0 -626.0 772.0 -626.0C803.0 -626.0 1112.0 -626.0 1145.0 -626.0C1264.0 -626.0 1285.0 -570.0 1294.0 -371.0C1275.0 -367.0 1255.0 -358.0 1238.0 -345.0C1232.0 -533.0 1219.0 -571.0 1144.0 -571.0C1081.0 -571.0 815.0 -571.0 768.0 -571.0C671.0 -571.0 653.0 -556.0 653.0 -493.0V491.0ZM-124.0 -668.0C-124.0 -642.0 -38.0 -588.0 -38.0 -588.0V483.0H-97.0V-497.0C-97.0 -572.0 -136.0 -598.0 -158.0 -609.0C-147.0 -624.0 -131.0 -652.0 -124.0 -668.0ZM-124.0 -668.0C-93.0 -644.0 -41.0 -629.0 495.0 -483.0C493.0 -472.0 490.0 -450.0 490.0 -434.0L-81.0 -580.0L-124.0 -615.0ZM631.0 74.0V17.0H1209.0V74.0Z"/></g>
<g fill="green" transform="translate(1400 100) scale(0.1 -0.1)"><path d="M0.0 0.0V-169.0H524.0V0.0ZM492.0 368.0V-511.0C492.0 -775.0 552.0 -855.0 793.0 -855.0C841.0 -855.0 960.0 -855.0 1011.0 -855.0C1200.0 -855.0 1273.0 -769.0 1302.0 -512.0C1224.0 -495.0 1113.0 -450.0 1053.0 -407.0C1045.0 -567.0 1033.0 -604.0 982.0 -604.0C955.0 -604.0 866.0 -604.0 840.0 -604.0C783.0 -604.0 775.0 -595.0 775.0 -511.0V368.0ZM-206.0 -884.0C-206.0 -788.0 66.0 -664.0 66.0 -664.0V368.0H-224.0V-494.0C-224.0 -579.0 -265.0 -622.0 -309.0 -645.0C-269.0 -698.0 -221.0 -815.0 -206.0 -884.0ZM-206.0 -884.0C-147.0 -851.0 -54.0 -828.0 447.0 -728.0C437.0 -669.0 432.0 -555.0 436.0 -480.0L-112.0 -574.0L-227.0 -656.0ZM659.0 37.0V-218.0H1204.0V37.0Z"/></g>
<g fill="red" transform="translate(100 200) scale(0.1 -0.1)"><path d="M0.0 0.0V-29.0H204.0V0.0ZM272.0 323.0V-466.0C272.0 -524.0 288.0 -537.0 344.0 -537.0C357.0 -537.0 468.0 -537.0 482.0 -537.0C535.0 -537.0 543.0 -504.0 547.0 -401.0C537.0 -399.0 527.0 -393.0 518.0 -386.0C515.0 -483.0 510.0 -508.0 483.0 -508.0C459.0 -508.0 361.0 -508.0 343.0 -508.0C308.0 -508.0 301.0 -500.0 301.0 -466.0V323.0ZM-25.0 -555.0C-25.0 -543.0 16.0 -516.0 16.0 -516.0V309.0H-13.0V-470.0C-13.0 -508.0 -31.0 -519.0 -42.0 -524.0C-36.0 -532.0 -28.0 -547.0 -25.0 -555.0ZM-25.0 -555.0C-11.0 -541.0 12.0 -530.0 215.0 -440.0C214.0 -434.0 211.0 -422.0 210.0 -414.0L-6.0 -505.0L-25.0 -525.0ZM288.0 -2.0V-31.0H505.0V-2.0Z"/></g>
<g fill="black" opacity=".8" transform="translate(100 200) scale(0.1 -0.1)"><path d="M0.0 0.0V-33.0H206.0V0.0ZM266.0 324.0V-468.0C266.0 -528.0 283.0 -542.0 341.0 -542.0C354.0 -542.0 466.0 -542.0 481.0 -542.0C537.0 -542.0 546.0 -507.0 550.0 -398.0C540.0 -396.0 529.0 -390.0 520.0 -384.0C518.0 -488.0 513.0 -513.0 483.0 -513.0C458.0 -513.0 357.0 -513.0 339.0 -513.0C302.0 -513.0 295.0 -505.0 295.0 -469.0V324.0ZM-25.0 -552.0C-25.0 -541.0 12.0 -509.0 12.0 -509.0V320.0H-18.0V-463.0C-18.0 -503.0 -34.0 -518.0 -42.0 -524.0C-38.0 -531.0 -29.0 -545.0 -25.0 -552.0ZM-25.0 -552.0C-13.0 -538.0 12.0 -527.0 226.0 -434.0C223.0 -428.0 220.0 -418.0 218.0 -409.0L-7.0 -503.0L-25.0 -523.0ZM285.0 -5.0V-33.0H505.0V-5.0Z"/></g>
<g fill="red" transform="translate(200 200) scale(0.1 -0.1)"><path d="M0.0 0.0V-135.0H179.0V0.0ZM198.0 305.0V-432.0C198.0 -582.0 227.0 -629.0 333.0 -629.0C351.0 -629.0 383.0 -629.0 401.0 -629.0C495.0 -629.0 528.0 -564.0 540.0 -404.0C500.0 -395.0 441.0 -367.0 407.0 -341.0C404.0 -458.0 401.0 -493.0 387.0 -493.0C382.0 -493.0 369.0 -493.0 364.0 -493.0C352.0 -493.0 351.0 -486.0 351.0 -433.0V305.0ZM-52.0 -636.0C-52.0 -579.0 81.0 -491.0 81.0 -491.0V289.0H-77.0V-410.0C-77.0 -462.0 -99.0 -497.0 -123.0 -516.0C-100.0 -541.0 -64.0 -601.0 -52.0 -636.0ZM-52.0 -637.0C-29.0 -616.0 12.0 -594.0 198.0 -521.0C190.0 -489.0 182.0 -429.0 181.0 -388.0L-26.0 -459.0L-75.0 -503.0ZM306.0 -1.0V-136.0H500.0V-1.0Z"/></g>
<g fill="black" opacity=".8" transform="translate(200 200) scale(0.1 -0.1)"><path d="M0.0 0.0V-132.0H182.0V0.0ZM209.0 295.0V-434.0C209.0 -582.0 235.0 -627.0 337.0 -627.0C356.0 -627.0 383.0 -627.0 402.0 -627.0C491.0 -627.0 524.0 -567.0 537.0 -414.0C497.0 -405.0 442.0 -379.0 410.0 -354.0C407.0 -462.0 403.0 -493.0 387.0 -493.0C384.0 -493.0 371.0 -493.0 365.0 -493.0C351.0 -493.0 351.0 -486.0 351.0 -436.0V295.0ZM-51.0 -633.0C-51.0 -578.0 75.0 -505.0 75.0 -505.0V292.0H-71.0V-412.0C-71.0 -460.0 -94.0 -492.0 -117.0 -507.0C-93.0 -535.0 -62.0 -597.0 -51.0 -633.0ZM-51.0 -633.0C-27.0 -613.0 13.0 -592.0 197.0 -520.0C189.0 -488.0 182.0 -425.0 182.0 -384.0L-24.0 -453.0L-74.0 -498.0ZM300.0 1.0V-138.0H498.0V1.0Z"/></g>
<g fill="red" transform="translate(300 200) scale(0.1 -0.1)"><path d="M0.0 0.0V-640.0H30.0V0.0ZM601.0 86.0V-705.0C601.0 -762.0 617.0 -774.0 671.0 -774.0C683.0 -774.0 785.0 -774.0 798.0 -774.0C850.0 -774.0 858.0 -741.0 862.0 -638.0C852.0 -636.0 841.0 -630.0 832.0 -623.0C830.0 -720.0 826.0 -745.0 799.0 -745.0C778.0 -745.0 686.0 -745.0 671.0 -745.0C636.0 -745.0 631.0 -738.0 631.0 -705.0V86.0ZM339.0 -785.0C339.0 -773.0 383.0 -747.0 383.0 -747.0V86.0H353.0V-701.0C353.0 -738.0 334.0 -750.0 322.0 -754.0C328.0 -762.0 336.0 -777.0 339.0 -785.0ZM339.0 -785.0C352.0 -772.0 374.0 -760.0 559.0 -674.0C557.0 -668.0 554.0 -656.0 553.0 -649.0L357.0 -735.0L339.0 -755.0ZM620.0 -238.0V-267.0H828.0V-238.0Z"/></g>
<g fill="black" opacity=".8" transform="translate(300 200) scale(0.1 -0.1)"><path d="M0.0 0.0V-643.0H30.0V0.0ZM602.0 84.0V-705.0C602.0 -762.0 618.0 -774.0 671.0 -774.0C684.0 -774.0 784.0 -774.0 797.0 -774.0C850.0 -774.0 858.0 -741.0 861.0 -635.0C852.0 -633.0 841.0 -627.0 833.0 -621.0C831.0 -721.0 827.0 -746.0 799.0 -746.0C778.0 -746.0 686.0 -746.0 672.0 -746.0C636.0 -746.0 632.0 -739.0 632.0 -705.0V84.0ZM339.0 -784.0C339.0 -774.0 383.0 -746.0 383.0 -746.0V85.0H353.0V-701.0C353.0 -738.0 334.0 -751.0 322.0 -756.0C327.0 -762.0 335.0 -776.0 339.0 -784.0ZM339.0 -784.0C350.0 -772.0 372.0 -760.0 561.0 -674.0C558.0 -669.0 555.0 -657.0 554.0 -651.0L355.0 -736.0L339.0 -755.0ZM621.0 -241.0V-268.0H830.0V-241.0Z"/></g>
<g fill="red" transform="translate(400 200) scale(0.1 -0.1)"><path d="M0.0 0.0V-738.0H115.0V0.0ZM591.0 75.0V-656.0C591.0 -803.0 619.0 -847.0 716.0 -847.0C733.0 -847.0 763.0 -847.0 780.0 -847.0C868.0 -847.0 899.0 -781.0 911.0 -620.0C872.0 -611.0 817.0 -585.0 785.0 -560.0C782.0 -679.0 779.0 -714.0 766.0 -714.0C761.0 -714.0 750.0 -714.0 746.0 -714.0C734.0 -714.0 733.0 -707.0 733.0 -657.0V75.0ZM346.0 -863.0C346.0 -815.0 489.0 -766.0 489.0 -766.0V66.0H346.0V-675.0C346.0 -714.0 323.0 -731.0 301.0 -740.0C320.0 -768.0 340.0 -828.0 346.0 -863.0ZM346.0 -863.0C368.0 -844.0 406.0 -824.0 572.0 -763.0C565.0 -731.0 560.0 -671.0 560.0 -629.0L374.0 -687.0L326.0 -731.0ZM697.0 -215.0V-365.0H876.0V-215.0Z"/></g>
<g fill="black" opacity=".8" transform="translate(400 200) scale(0.1 -0.1)"><path d="M0.0 0.0V-739.0H114.0V0.0ZM594.0 74.0V-657.0C594.0 -804.0 620.0 -847.0 716.0 -847.0C734.0 -847.0 761.0 -847.0 778.0 -847.0C865.0 -847.0 897.0 -782.0 910.0 -619.0C870.0 -609.0 815.0 -584.0 784.0 -559.0C781.0 -680.0 777.0 -715.0 763.0 -715.0C760.0 -715.0 751.0 -715.0 746.0 -715.0C734.0 -715.0 734.0 -708.0 734.0 -659.0V74.0ZM345.0 -863.0C345.0 -815.0 488.0 -764.0 488.0 -764.0V66.0H347.0V-674.0C347.0 -713.0 321.0 -732.0 299.0 -740.0C319.0 -768.0 339.0 -828.0 345.0 -863.0ZM345.0 -862.0C366.0 -844.0 405.0 -824.0 572.0 -763.0C566.0 -731.0 561.0 -670.0 563.0 -629.0L373.0 -688.0L324.0 -731.0ZM697.0 -216.0V-366.0H879.0V-216.0Z"/></g>
<g fill="red" transform="translate(500 200) scale(0.1 -0.1)"><path d="M0.0 0.0V-30.0H296.0V0.0ZM357.0 166.0V-218.0C357.0 -273.0 378.0 -284.0 453.0 -284.0C470.0 -284.0 645.0 -284.0 662.0 -284.0C726.0 -284.0 737.0 -258.0 742.0 -156.0C733.0 -154.0 722.0 -150.0 714.0 -143.0C710.0 -239.0 703.0 -256.0 661.0 -256.0C626.0 -256.0 477.0 -256.0 451.0 -256.0C396.0 -256.0 386.0 -248.0 386.0 -219.0V166.0ZM-32.0 -321.0C-32.0 -307.0 12.0 -283.0 12.0 -283.0V169.0H-17.0V-236.0C-17.0 -274.0 -37.0 -285.0 -49.0 -290.0C-43.0 -298.0 -35.0 -313.0 -32.0 -321.0ZM-32.0 -321.0C-15.0 -310.0 12.0 -303.0 304.0 -238.0C303.0 -233.0 303.0 -222.0 303.0 -214.0L-9.0 -279.0L-32.0 -295.0ZM375.0 0.0V-30.0H715.0V0.0Z"/></g>
<g fill="black" opacity=".8" transform="translate(500 200) scale(0.1 -0.1)"><path d="M0.0 0.0V-26.0H292.0V0.0ZM354.0 168.0V-221.0C354.0 -277.0 376.0 -288.0 455.0 -288.0C472.0 -288.0 655.0 -288.0 673.0 -288.0C736.0 -288.0 748.0 -264.0 752.0 -167.0C743.0 -165.0 730.0 -160.0 721.0 -153.0C718.0 -243.0 711.0 -257.0 672.0 -257.0C635.0 -257.0 479.0 -257.0 452.0 -257.0C396.0 -257.0 386.0 -250.0 386.0 -222.0V168.0ZM-37.0 -320.0C-37.0 -305.0 14.0 -277.0 14.0 -277.0V168.0H-20.0V-225.0C-20.0 -267.0 -43.0 -280.0 -56.0 -287.0C-50.0 -295.0 -41.0 -311.0 -37.0 -320.0ZM-37.0 -320.0C-21.0 -306.0 8.0 -300.0 305.0 -227.0C303.0 -220.0 302.0 -209.0 301.0 -200.0L-14.0 -272.0L-37.0 -290.0ZM372.0 2.0V-30.0H714.0V2.0Z"/></g>
<g fill="red" transform="translate(600 200) scale(0.1 -0.1)"><path d="M0.0 0.0V-130.0H289.0V0.0ZM340.0 120.0V-220.0C340.0 -349.0 372.0 -390.0 503.0 -390.0C530.0 -390.0 605.0 -390.0 633.0 -390.0C736.0 -390.0 774.0 -350.0 789.0 -212.0C751.0 -203.0 693.0 -181.0 664.0 -159.0C659.0 -247.0 652.0 -263.0 620.0 -263.0C601.0 -263.0 540.0 -263.0 524.0 -263.0C487.0 -263.0 481.0 -259.0 481.0 -219.0V120.0ZM-78.0 -407.0C-78.0 -364.0 64.0 -311.0 64.0 -311.0V123.0H-78.0V-220.0C-78.0 -259.0 -100.0 -276.0 -123.0 -285.0C-104.0 -313.0 -84.0 -373.0 -78.0 -407.0ZM-78.0 -407.0C-44.0 -391.0 9.0 -383.0 303.0 -341.0C301.0 -310.0 302.0 -250.0 306.0 -211.0L-19.0 -251.0L-85.0 -294.0ZM393.0 0.0V-130.0H745.0V0.0Z"/></g>
<g fill="black" opacity=".8" transform="translate(600 200) scale(0.1 -0.1)"><path d="M0.0 0.0V-131.0H291.0V0.0ZM325.0 116.0V-219.0C325.0 -351.0 359.0 -392.0 498.0 -392.0C527.0 -392.0 602.0 -392.0 632.0 -392.0C735.0 -392.0 776.0 -354.0 791.0 -223.0C749.0 -215.0 688.0 -192.0 656.0 -169.0C652.0 -246.0 645.0 -262.0 615.0 -262.0C597.0 -262.0 539.0 -262.0 522.0 -262.0C487.0 -262.0 481.0 -258.0 481.0 -218.0V116.0ZM-68.0 -413.0C-68.0 -364.0 83.0 -295.0 83.0 -295.0V117.0H-74.0V-204.0C-74.0 -252.0 -99.0 -275.0 -123.0 -287.0C-101.0 -315.0 -75.0 -377.0 -68.0 -413.0ZM-68.0 -413.0C-36.0 -397.0 15.0 -386.0 299.0 -337.0C296.0 -306.0 296.0 -244.0 300.0 -205.0L-16.0 -251.0L-78.0 -295.0ZM398.0 -0.0V-131.0H734.0V-0.0Z"/></g>
<g fill="red" transform="translate(700 200) scale(0.1 -0.1)"><path d="M0.0 0.0V-29.0H195.0V0.0ZM238.0 323.0V-466.0C238.0 -524.0 255.0 -537.0 311.0 -537.0C324.0 -537.0 434.0 -537.0 448.0 -537.0C502.0 -537.0 510.0 -504.0 514.0 -401.0C504.0 -399.0 493.0 -393.0 484.0 -386.0C482.0 -483.0 477.0 -508.0 449.0 -508.0C426.0 -508.0 328.0 -508.0 310.0 -508.0C275.0 -508.0 268.0 -500.0 268.0 -466.0V323.0ZM-16.0 -542.0C-16.0 -530.0 14.0 -505.0 14.0 -505.0V321.0H-15.0V-459.0C-15.0 -496.0 -25.0 -507.0 -33.0 -512.0C-27.0 -519.0 -19.0 -534.0 -16.0 -542.0ZM-16.0 -542.0C-3.0 -528.0 21.0 -516.0 223.0 -422.0C221.0 -417.0 217.0 -406.0 216.0 -397.0L2.0 -491.0L-16.0 -513.0ZM258.0 0.0V-29.0H453.0V0.0Z"/></g>
<g fill="black" opacity=".8" transform="translate(700 200) scale(0.1 -0.1)"><path d="M0.0 0.0V-35.0H187.0V0.0ZM251.0 317.0V-464.0C251.0 -520.0 267.0 -533.0 319.0 -533.0C331.0 -533.0 430.0 -533.0 444.0 -533.0C496.0 -533.0 503.0 -500.0 507.0 -397.0C498.0 -395.0 488.0 -389.0 479.0 -383.0C477.0 -482.0 473.0 -506.0 446.0 -506.0C424.0 -506.0 334.0 -506.0 318.0 -506.0C285.0 -506.0 279.0 -498.0 279.0 -464.0V317.0ZM-17.0 -544.0C-17.0 -533.0 18.0 -503.0 18.0 -503.0V312.0H-10.0V-460.0C-10.0 -498.0 -25.0 -512.0 -33.0 -518.0C-29.0 -524.0 -21.0 -537.0 -17.0 -544.0ZM-17.0 -544.0C-6.0 -530.0 17.0 -520.0 214.0 -429.0C212.0 -424.0 209.0 -415.0 207.0 -407.0L-1.0 -497.0L-17.0 -516.0ZM269.0 -5.0V-31.0H467.0V-5.0Z"/></g>
<g fill="red" transform="translate(800 200) scale(0.1 -0.1)"><path d="M0.0 0.0V-135.0H171.0V0.0ZM195.0 283.0V-434.0C195.0 -576.0 220.0 -617.0 312.0 -617.0C329.0 -617.0 357.0 -617.0 374.0 -617.0C452.0 -617.0 484.0 -562.0 496.0 -424.0C459.0 -415.0 409.0 -391.0 380.0 -368.0C377.0 -462.0 374.0 -489.0 361.0 -489.0C357.0 -489.0 344.0 -489.0 339.0 -489.0C327.0 -489.0 326.0 -483.0 326.0 -435.0V283.0ZM-35.0 -626.0C-35.0 -572.0 82.0 -524.0 82.0 -524.0V283.0H-56.0V-420.0C-56.0 -460.0 -68.0 -480.0 -88.0 -492.0C-66.0 -523.0 -43.0 -587.0 -35.0 -626.0ZM-35.0 -626.0C-13.0 -606.0 24.0 -585.0 186.0 -518.0C178.0 -486.0 170.0 -426.0 168.0 -384.0L-10.0 -449.0L-56.0 -493.0ZM281.0 0.0V-135.0H452.0V0.0Z"/></g>
<g fill="black" opacity=".8" transform="translate(800 200) scale(0.1 -0.1)"><path d="M0.0 0.0V-139.0H167.0V0.0ZM196.0 285.0V-435.0C196.0 -577.0 220.0 -619.0 313.0 -619.0C330.0 -619.0 350.0 -619.0 367.0 -619.0C449.0 -619.0 480.0 -561.0 493.0 -415.0C455.0 -406.0 403.0 -381.0 373.0 -358.0C370.0 -462.0 367.0 -491.0 353.0 -491.0C351.0 -491.0 345.0 -491.0 340.0 -491.0C330.0 -491.0 330.0 -485.0 330.0 -437.0V285.0ZM-40.0 -624.0C-40.0 -572.0 79.0 -505.0 79.0 -505.0V282.0H-59.0V-416.0C-59.0 -460.0 -80.0 -490.0 -101.0 -504.0C-79.0 -531.0 -50.0 -590.0 -40.0 -624.0ZM-40.0 -625.0C-18.0 -606.0 20.0 -585.0 186.0 -516.0C179.0 -485.0 171.0 -425.0 170.0 -386.0L-16.0 -452.0L-63.0 -495.0ZM282.0 -2.0V-137.0H461.0V-2.0Z"/></g>
<g fill="red" transform="translate(900 200) scale(0.1 -0.1)"><path d="M0.0 0.0V-30.0H305.0V0.0ZM391.0 321.0V-459.0C391.0 -535.0 412.0 -552.0 492.0 -552.0C509.0 -552.0 672.0 -552.0 690.0 -552.0C772.0 -552.0 782.0 -504.0 789.0 -348.0C780.0 -346.0 769.0 -341.0 760.0 -334.0C754.0 -487.0 748.0 -526.0 692.0 -526.0C656.0 -526.0 515.0 -526.0 489.0 -526.0C432.0 -526.0 420.0 -514.0 420.0 -461.0V321.0ZM-25.0 -538.0C-25.0 -526.0 18.0 -494.0 18.0 -494.0V321.0H-12.0V-449.0C-12.0 -487.0 -31.0 -503.0 -42.0 -509.0C-36.0 -517.0 -28.0 -530.0 -25.0 -538.0ZM-25.0 -538.0C-7.0 -526.0 21.0 -516.0 316.0 -429.0C315.0 -423.0 313.0 -410.0 313.0 -401.0L-1.0 -489.0L-26.0 -509.0ZM411.0 0.0V-30.0H715.0V0.0Z"/></g>
<g fill="black" opacity=".8" transform="translate(900 200) scale(0.1 -0.1)"><path d="M0.0 0.0V-21.0H303.0V0.0ZM385.0 325.0V-461.0C385.0 -537.0 407.0 -554.0 490.0 -554.0C507.0 -554.0 677.0 -554.0 696.0 -554.0C776.0 -554.0 787.0 -508.0 793.0 -358.0C784.0 -355.0 771.0 -350.0 761.0 -342.0C756.0 -489.0 750.0 -524.0 697.0 -524.0C660.0 -524.0 513.0 -524.0 487.0 -524.0C430.0 -524.0 418.0 -513.0 418.0 -462.0V325.0ZM-23.0 -539.0C-23.0 -525.0 16.0 -493.0 16.0 -493.0V323.0H-17.0V-442.0C-17.0 -485.0 -32.0 -500.0 -41.0 -507.0C-36.0 -515.0 -27.0 -529.0 -23.0 -539.0ZM-23.0 -539.0C-6.0 -525.0 25.0 -515.0 315.0 -425.0C312.0 -418.0 309.0 -405.0 309.0 -394.0L2.0 -485.0L-24.0 -506.0ZM408.0 6.0V-27.0H711.0V6.0Z"/></g>
<g fill="red" transform="translate(1000 200) scale(0.1 -0.1)"><path d="M0.0 0.0V-142.0H248.0V0.0ZM298.0 292.0V-434.0C298.0 -596.0 334.0 -644.0 461.0 -644.0C485.0 -644.0 556.0 -644.0 582.0 -644.0C697.0 -644.0 734.0 -574.0 749.0 -399.0C708.0 -390.0 647.0 -362.0 613.0 -336.0C606.0 -467.0 600.0 -502.0 567.0 -502.0C553.0 -502.0 499.0 -502.0 485.0 -502.0C452.0 -502.0 449.0 -495.0 449.0 -436.0V292.0ZM-99.0 -646.0C-99.0 -592.0 43.0 -508.0 43.0 -508.0V290.0H-109.0V-426.0C-109.0 -477.0 -140.0 -511.0 -165.0 -528.0C-143.0 -553.0 -110.0 -612.0 -99.0 -646.0ZM-99.0 -646.0C-64.0 -626.0 -12.0 -609.0 265.0 -545.0C259.0 -512.0 253.0 -451.0 253.0 -409.0L-48.0 -469.0L-112.0 -516.0ZM433.0 0.0V-142.0H681.0V0.0Z"/></g>
<g fill="black" opacity=".8" transform="translate(1000 200) scale(0.1 -0.1)"><path d="M0.0 0.0V-139.0H252.0V0.0ZM291.0 293.0V-433.0C291.0 -594.0 328.0 -640.0 459.0 -640.0C485.0 -640.0 562.0 -640.0 589.0 -640.0C702.0 -640.0 740.0 -573.0 755.0 -405.0C712.0 -397.0 652.0 -370.0 616.0 -344.0C610.0 -466.0 603.0 -501.0 572.0 -501.0C557.0 -501.0 500.0 -501.0 485.0 -501.0C452.0 -501.0 448.0 -493.0 448.0 -435.0V293.0ZM-91.0 -649.0C-91.0 -592.0 49.0 -512.0 49.0 -512.0V290.0H-109.0V-426.0C-109.0 -478.0 -134.0 -511.0 -157.0 -527.0C-134.0 -552.0 -101.0 -613.0 -91.0 -649.0ZM-91.0 -649.0C-58.0 -629.0 -8.0 -610.0 263.0 -544.0C256.0 -512.0 249.0 -451.0 249.0 -409.0L-44.0 -468.0L-106.0 -516.0ZM433.0 0.0V-138.0H669.0V0.0Z"/></g>
<g fill="red" transform="translate(1100 200) scale(0.1 -0.1)"><path d="M0.0 0.0V-587.0H29.0V0.0ZM470.0 81.0V-710.0C470.0 -767.0 486.0 -779.0 539.0 -779.0C551.0 -779.0 651.0 -779.0 664.0 -779.0C716.0 -779.0 724.0 -746.0 727.0 -643.0C718.0 -641.0 706.0 -635.0 697.0 -628.0C695.0 -725.0 691.0 -750.0 665.0 -750.0C643.0 -750.0 554.0 -750.0 539.0 -750.0C505.0 -750.0 499.0 -743.0 499.0 -711.0V81.0ZM246.0 -786.0C246.0 -773.0 288.0 -742.0 288.0 -742.0V93.0H258.0V-697.0C258.0 -735.0 239.0 -751.0 228.0 -756.0C234.0 -764.0 243.0 -778.0 246.0 -786.0ZM246.0 -786.0C258.0 -772.0 279.0 -759.0 440.0 -665.0C438.0 -659.0 434.0 -648.0 432.0 -640.0L262.0 -733.0L246.0 -755.0ZM486.0 -242.0V-271.0H693.0V-242.0Z"/></g>
<g fill="black" opacity=".8" transform="translate(1100 200) scale(0.1 -0.1)"><path d="M0.0 0.0V-582.0H28.0V0.0ZM467.0 82.0V-710.0C467.0 -767.0 484.0 -779.0 538.0 -779.0C550.0 -779.0 653.0 -779.0 667.0 -779.0C718.0 -779.0 727.0 -748.0 729.0 -647.0C719.0 -644.0 707.0 -639.0 697.0 -632.0C696.0 -726.0 691.0 -749.0 668.0 -749.0C645.0 -749.0 553.0 -749.0 538.0 -749.0C504.0 -749.0 499.0 -742.0 499.0 -712.0V82.0ZM248.0 -787.0C248.0 -774.0 287.0 -743.0 287.0 -743.0V93.0H256.0V-695.0C256.0 -735.0 240.0 -750.0 229.0 -756.0C234.0 -763.0 243.0 -778.0 248.0 -787.0ZM248.0 -787.0C258.0 -771.0 281.0 -759.0 440.0 -664.0C436.0 -658.0 432.0 -647.0 429.0 -639.0L264.0 -732.0L248.0 -754.0ZM485.0 -240.0V-269.0H691.0V-240.0Z"/></g>
<g fill="red" transform="translate(1200 200) scale(0.1 -0.1)"><path d="M0.0 0.0V-536.0H78.0V0.0ZM477.0 136.0V-592.0C477.0 -732.0 503.0 -777.0 599.0 -777.0C615.0 -777.0 642.0 -777.0 658.0 -777.0C744.0 -777.0 774.0 -710.0 785.0 -545.0C748.0 -536.0 693.0 -510.0 662.0 -485.0C659.0 -612.0 657.0 -648.0 644.0 -648.0C640.0 -648.0 631.0 -648.0 628.0 -648.0C617.0 -648.0 616.0 -642.0 616.0 -593.0V136.0ZM265.0 -782.0C265.0 -732.0 390.0 -650.0 390.0 -650.0V129.0H257.0V-565.0C257.0 -615.0 223.0 -654.0 197.0 -671.0C220.0 -696.0 254.0 -751.0 265.0 -782.0ZM265.0 -782.0C284.0 -762.0 319.0 -737.0 463.0 -665.0C456.0 -632.0 451.0 -569.0 452.0 -526.0L281.0 -600.0L238.0 -645.0ZM554.0 -159.0V-294.0H744.0V-159.0Z"/></g>
<g fill="black" opacity=".8" transform="translate(1200 200) scale(0.1 -0.1)"><path d="M0.0 0.0V-535.0H79.0V0.0ZM474.0 137.0V-591.0C474.0 -731.0 500.0 -774.0 598.0 -774.0C615.0 -774.0 645.0 -774.0 661.0 -774.0C747.0 -774.0 778.0 -709.0 788.0 -546.0C750.0 -537.0 695.0 -512.0 664.0 -487.0C661.0 -612.0 658.0 -648.0 646.0 -648.0C642.0 -648.0 632.0 -648.0 627.0 -648.0C616.0 -648.0 617.0 -641.0 617.0 -594.0V137.0ZM269.0 -783.0C269.0 -732.0 392.0 -653.0 392.0 -653.0V129.0H256.0V-566.0C256.0 -616.0 225.0 -655.0 201.0 -670.0C225.0 -696.0 258.0 -752.0 269.0 -783.0ZM269.0 -783.0C286.0 -764.0 320.0 -738.0 462.0 -665.0C455.0 -632.0 450.0 -570.0 451.0 -527.0L282.0 -601.0L241.0 -646.0ZM554.0 -159.0V-292.0H739.0V-159.0Z"/></g>
<g fill="red" transform="translate(1300 200) scale(0.1 -0.1)"><path d="M0.0 0.0V-29.0H260.0V0.0ZM306.0 40.0V-83.0C306.0 -128.0 326.0 -135.0 404.0 -135.0C420.0 -135.0 605.0 -135.0 622.0 -135.0C677.0 -135.0 690.0 -120.0 693.0 -45.0C685.0 -42.0 674.0 -39.0 666.0 -33.0C663.0 -100.0 656.0 -109.0 618.0 -109.0C582.0 -109.0 428.0 -109.0 401.0 -109.0C346.0 -109.0 336.0 -105.0 336.0 -83.0V40.0ZM-20.0 -141.0C-20.0 -126.0 10.0 -110.0 10.0 -110.0V44.0H-19.0V-64.0C-19.0 -98.0 -28.0 -106.0 -36.0 -110.0C-30.0 -118.0 -22.0 -132.0 -20.0 -141.0ZM-20.0 -141.0C-4.0 -132.0 21.0 -127.0 263.0 -85.0C262.0 -78.0 261.0 -67.0 262.0 -58.0L4.0 -100.0L-20.0 -115.0ZM323.0 -1.0V-30.0H628.0V-1.0Z"/></g>
<g fill="black" opacity=".8" transform="translate(1300 200) scale(0.1 -0.1)"><path d="M0.0 0.0V-42.0H260.0V0.0ZM316.0 33.0V-80.0C316.0 -125.0 335.0 -133.0 409.0 -133.0C423.0 -133.0 599.0 -133.0 614.0 -133.0C673.0 -133.0 683.0 -115.0 687.0 -31.0C681.0 -28.0 671.0 -26.0 665.0 -21.0C661.0 -100.0 654.0 -111.0 613.0 -111.0C577.0 -111.0 430.0 -111.0 405.0 -111.0C350.0 -111.0 341.0 -106.0 341.0 -81.0V33.0ZM-23.0 -141.0C-23.0 -128.0 13.0 -110.0 13.0 -110.0V39.0H-12.0V-71.0C-12.0 -101.0 -27.0 -110.0 -36.0 -115.0C-32.0 -121.0 -26.0 -132.0 -23.0 -141.0ZM-23.0 -141.0C-9.0 -132.0 15.0 -129.0 267.0 -91.0C265.0 -85.0 265.0 -75.0 265.0 -68.0L-2.0 -106.0L-23.0 -118.0ZM330.0 -11.0V-36.0H638.0V-11.0Z"/></g>
<g fill="red" transform="translate(1400 200) scale(0.1 -0.1)"><path d="M0.0 0.0V-68.0H253.0V0.0ZM282.0 18.0V-64.0C282.0 -148.0 316.0 -171.0 439.0 -171.0C465.0 -171.0 575.0 -171.0 602.0 -171.0C684.0 -171.0 717.0 -151.0 727.0 -76.0C697.0 -72.0 654.0 -59.0 630.0 -46.0C626.0 -84.0 618.0 -92.0 588.0 -92.0C562.0 -92.0 473.0 -92.0 453.0 -92.0C411.0 -92.0 402.0 -89.0 402.0 -63.0V18.0ZM-54.0 -198.0C-54.0 -164.0 49.0 -118.0 49.0 -118.0V18.0H-67.0V-60.0C-67.0 -97.0 -75.0 -110.0 -89.0 -118.0C-76.0 -133.0 -58.0 -174.0 -54.0 -198.0ZM-54.0 -198.0C-30.0 -188.0 9.0 -181.0 260.0 -159.0C258.0 -139.0 259.0 -103.0 261.0 -77.0L-9.0 -96.0L-56.0 -125.0ZM359.0 -1.0V-69.0H621.0V-1.0Z"/></g>
<g fill="black" opacity=".8" transform="translate(1400 200) scale(0.1 -0.1)"><path d="M0.0 0.0V-72.0H247.0V0.0ZM291.0 16.0V-66.0C291.0 -151.0 323.0 -176.0 442.0 -176.0C468.0 -176.0 564.0 -176.0 592.0 -176.0C677.0 -176.0 708.0 -152.0 718.0 -67.0C690.0 -63.0 647.0 -49.0 624.0 -35.0C619.0 -86.0 611.0 -95.0 578.0 -95.0C555.0 -95.0 473.0 -95.0 453.0 -95.0C412.0 -95.0 404.0 -92.0 404.0 -66.0V16.0ZM-64.0 -194.0C-64.0 -164.0 42.0 -109.0 42.0 -109.0V17.0H-66.0V-58.0C-66.0 -95.0 -86.0 -113.0 -102.0 -121.0C-88.0 -135.0 -69.0 -174.0 -64.0 -194.0ZM-64.0 -194.0C-38.0 -186.0 2.0 -181.0 262.0 -158.0C262.0 -139.0 264.0 -101.0 268.0 -77.0L-16.0 -97.0L-65.0 -125.0ZM360.0 -2.0V-75.0H638.0V-2.0Z"/></g>
<g fill="red" transform="translate(1500 200) scale(0.1 -0.1)"><path d="M0.0 0.0V-29.0H195.0V0.0ZM263.0 323.0V-466.0C263.0 -524.0 280.0 -537.0 336.0 -537.0C349.0 -537.0 459.0 -537.0 473.0 -537.0C527.0 -537.0 535.0 -504.0 539.0 -401.0C529.0 -399.0 518.0 -393.0 509.0 -386.0C507.0 -483.0 502.0 -508.0 474.0 -508.0C451.0 -508.0 353.0 -508.0 335.0 -508.0C300.0 -508.0 293.0 -500.0 293.0 -466.0V323.0ZM-19.0 -542.0C-19.0 -528.0 12.0 -490.0 12.0 -490.0V325.0H-18.0V-444.0C-18.0 -487.0 -31.0 -508.0 -38.0 -514.0C-32.0 -521.0 -23.0 -535.0 -19.0 -542.0ZM-19.0 -542.0C-5.0 -528.0 18.0 -516.0 220.0 -422.0C218.0 -417.0 214.0 -406.0 213.0 -397.0L0.0 -491.0L-19.0 -513.0ZM283.0 0.0V-29.0H496.0V0.0Z"/></g>
<g fill="black" opacity=".8" transform="translate(1500 200) scale(0.1 -0.1)"><path d="M0.0 0.0V-33.0H200.0V0.0ZM264.0 320.0V-462.0C264.0 -521.0 281.0 -534.0 336.0 -534.0C349.0 -534.0 456.0 -534.0 471.0 -534.0C526.0 -534.0 534.0 -500.0 538.0 -391.0C528.0 -390.0 518.0 -384.0 509.0 -378.0C507.0 -482.0 502.0 -507.0 473.0 -507.0C449.0 -507.0 352.0 -507.0 335.0 -507.0C299.0 -507.0 293.0 -499.0 293.0 -463.0V320.0ZM-19.0 -542.0C-19.0 -531.0 17.0 -501.0 17.0 -501.0V316.0H-12.0V-457.0C-12.0 -495.0 -27.0 -509.0 -35.0 -515.0C-31.0 -522.0 -23.0 -535.0 -19.0 -542.0ZM-19.0 -542.0C-7.0 -528.0 17.0 -518.0 224.0 -428.0C221.0 -422.0 218.0 -412.0 217.0 -404.0L-2.0 -495.0L-19.0 -514.0ZM283.0 -4.0V-31.0H492.0V-4.0Z"/></g>
<g fill="red" transform="translate(1600 200) scale(0.1 -0.1)"><path d="M0.0 0.0V-135.0H180.0V0.0ZM205.0 283.0V-434.0C205.0 -576.0 231.0 -617.0 328.0 -617.0C347.0 -617.0 375.0 -617.0 393.0 -617.0C475.0 -617.0 508.0 -562.0 522.0 -424.0C483.0 -415.0 430.0 -391.0 399.0 -368.0C396.0 -462.0 393.0 -489.0 380.0 -489.0C375.0 -489.0 362.0 -489.0 357.0 -489.0C344.0 -489.0 343.0 -483.0 343.0 -435.0V283.0ZM-42.0 -624.0C-42.0 -572.0 73.0 -503.0 73.0 -503.0V287.0H-62.0V-413.0C-62.0 -459.0 -83.0 -490.0 -105.0 -506.0C-83.0 -532.0 -52.0 -590.0 -42.0 -624.0ZM-42.0 -624.0C-20.0 -604.0 19.0 -583.0 189.0 -516.0C181.0 -484.0 172.0 -424.0 170.0 -382.0L-17.0 -447.0L-65.0 -491.0ZM292.0 0.0V-135.0H471.0V0.0Z"/></g>
<g fill="black" opacity=".8" transform="translate(1600 200) scale(0.1 -0.1)"><path d="M0.0 0.0V-137.0H175.0V0.0ZM205.0 289.0V-433.0C205.0 -577.0 230.0 -619.0 327.0 -619.0C345.0 -619.0 372.0 -619.0 390.0 -619.0C476.0 -619.0 507.0 -560.0 520.0 -412.0C482.0 -403.0 429.0 -378.0 398.0 -354.0C395.0 -460.0 391.0 -490.0 376.0 -490.0C372.0 -490.0 360.0 -490.0 354.0 -490.0C341.0 -490.0 341.0 -484.0 341.0 -435.0V289.0ZM-47.0 -625.0C-47.0 -572.0 74.0 -503.0 74.0 -503.0V286.0H-66.0V-415.0C-66.0 -460.0 -88.0 -490.0 -109.0 -504.0C-87.0 -531.0 -57.0 -590.0 -47.0 -625.0ZM-47.0 -625.0C-24.0 -606.0 15.0 -585.0 192.0 -517.0C185.0 -486.0 178.0 -426.0 177.0 -386.0L-21.0 -452.0L-69.0 -495.0ZM297.0 -2.0V-136.0H482.0V-2.0Z"/></g>
<g fill="red" transform="translate(100 300) scale(0.1 -0.1)"><path d="M0.0 0.0V-30.0H354.0V0.0ZM457.0 -247.0V-594.0C457.0 -649.0 479.0 -660.0 554.0 -660.0C571.0 -660.0 745.0 -660.0 763.0 -660.0C835.0 -660.0 847.0 -628.0 852.0 -501.0C843.0 -499.0 831.0 -494.0 822.0 -487.0C819.0 -611.0 811.0 -630.0 763.0 -630.0C726.0 -630.0 578.0 -630.0 552.0 -630.0C497.0 -630.0 486.0 -624.0 486.0 -594.0V-247.0ZM59.0 -673.0C59.0 -659.0 109.0 -638.0 109.0 -638.0V-256.0H80.0V-592.0C80.0 -627.0 57.0 -637.0 44.0 -641.0C49.0 -650.0 56.0 -664.0 59.0 -673.0ZM59.0 -673.0C76.0 -662.0 103.0 -654.0 393.0 -585.0C392.0 -579.0 391.0 -568.0 391.0 -560.0L83.0 -630.0L59.0 -647.0ZM432.0 -1.0V-31.0H813.0V-1.0Z"/></g>
<g fill="black" opacity=".8" transform="translate(100 300) scale(0.1 -0.1)"><path d="M0.0 0.0V-30.0H353.0V0.0ZM457.0 -248.0V-594.0C457.0 -649.0 479.0 -660.0 555.0 -660.0C571.0 -660.0 745.0 -660.0 763.0 -660.0C836.0 -660.0 848.0 -629.0 852.0 -501.0C844.0 -499.0 831.0 -494.0 822.0 -487.0C820.0 -612.0 812.0 -630.0 764.0 -630.0C727.0 -630.0 578.0 -630.0 552.0 -630.0C497.0 -630.0 486.0 -624.0 486.0 -594.0V-248.0ZM59.0 -673.0C59.0 -659.0 109.0 -638.0 109.0 -638.0V-257.0H80.0V-591.0C80.0 -627.0 57.0 -637.0 45.0 -642.0C48.0 -650.0 56.0 -663.0 59.0 -673.0ZM59.0 -673.0C75.0 -662.0 103.0 -654.0 394.0 -585.0C392.0 -579.0 391.0 -568.0 390.0 -560.0L83.0 -630.0L59.0 -647.0ZM432.0 -1.0V-31.0H813.0V-1.0Z"/></g>
<g fill="red" transform="translate(200 300) scale(0.1 -0.1)"><path d="M0.0 0.0V-112.0H383.0V0.0ZM453.0 -301.0V-575.0C453.0 -706.0 486.0 -750.0 624.0 -750.0C651.0 -750.0 717.0 -750.0 745.0 -750.0C853.0 -750.0 892.0 -708.0 908.0 -566.0C867.0 -557.0 803.0 -533.0 771.0 -510.0C766.0 -598.0 760.0 -615.0 730.0 -615.0C713.0 -615.0 664.0 -615.0 649.0 -615.0C616.0 -615.0 610.0 -611.0 610.0 -573.0V-301.0ZM26.0 -760.0C26.0 -714.0 199.0 -653.0 199.0 -653.0V-309.0H40.0V-555.0C40.0 -596.0 5.0 -616.0 -23.0 -625.0C-2.0 -657.0 20.0 -723.0 26.0 -760.0ZM26.0 -761.0C62.0 -744.0 116.0 -737.0 429.0 -691.0C423.0 -659.0 418.0 -601.0 419.0 -562.0L84.0 -605.0L18.0 -648.0ZM462.0 0.0V-112.0H863.0V0.0Z"/></g>
<g fill="black" opacity=".8" transform="translate(200 300) scale(0.1 -0.1)"><path d="M0.0 0.0V-111.0H383.0V0.0ZM454.0 -301.0V-575.0C454.0 -706.0 485.0 -749.0 624.0 -749.0C651.0 -749.0 717.0 -749.0 745.0 -749.0C853.0 -749.0 892.0 -708.0 908.0 -566.0C867.0 -557.0 803.0 -533.0 771.0 -510.0C766.0 -598.0 760.0 -615.0 729.0 -615.0C713.0 -615.0 665.0 -615.0 649.0 -615.0C616.0 -615.0 611.0 -611.0 611.0 -574.0V-301.0ZM27.0 -760.0C27.0 -714.0 199.0 -653.0 199.0 -653.0V-309.0H40.0V-555.0C40.0 -596.0 4.0 -616.0 -23.0 -625.0C-1.0 -657.0 21.0 -723.0 27.0 -760.0ZM27.0 -761.0C63.0 -744.0 115.0 -738.0 429.0 -690.0C423.0 -658.0 418.0 -601.0 420.0 -562.0L83.0 -605.0L18.0 -649.0ZM462.0 -0.0V-112.0H863.0V-0.0Z"/></g>
<g fill="red" transform="translate(300 300) scale(0.1 -0.1)"><path d="M0.0 0.0V-29.0H287.0V0.0ZM353.0 140.0V-200.0C353.0 -253.0 374.0 -264.0 450.0 -264.0C467.0 -264.0 645.0 -264.0 663.0 -264.0C725.0 -264.0 737.0 -239.0 741.0 -145.0C732.0 -143.0 722.0 -138.0 713.0 -132.0C710.0 -220.0 703.0 -235.0 661.0 -235.0C625.0 -235.0 474.0 -235.0 448.0 -235.0C392.0 -235.0 382.0 -228.0 382.0 -200.0V140.0ZM-43.0 -289.0C-43.0 -274.0 18.0 -243.0 18.0 -243.0V139.0H-14.0V-197.0C-14.0 -235.0 -45.0 -252.0 -61.0 -258.0C-55.0 -266.0 -46.0 -280.0 -43.0 -289.0ZM-43.0 -289.0C-26.0 -277.0 1.0 -270.0 301.0 -198.0C300.0 -192.0 299.0 -181.0 299.0 -173.0L-20.0 -244.0L-43.0 -262.0ZM366.0 -1.0V-30.0H706.0V-1.0Z"/></g>
<g fill="black" opacity=".8" transform="translate(300 300) scale(0.1 -0.1)"><path d="M0.0 0.0V-20.0H288.0V0.0ZM348.0 143.0V-198.0C348.0 -251.0 370.0 -262.0 446.0 -262.0C462.0 -262.0 642.0 -262.0 659.0 -262.0C721.0 -262.0 732.0 -239.0 736.0 -145.0C727.0 -143.0 716.0 -139.0 707.0 -132.0C704.0 -219.0 697.0 -232.0 658.0 -232.0C622.0 -232.0 469.0 -232.0 443.0 -232.0C388.0 -232.0 379.0 -226.0 379.0 -199.0V143.0ZM-34.0 -291.0C-34.0 -277.0 15.0 -251.0 15.0 -251.0V143.0H-18.0V-201.0C-18.0 -241.0 -40.0 -253.0 -52.0 -259.0C-46.0 -267.0 -38.0 -282.0 -34.0 -291.0ZM-34.0 -291.0C-18.0 -278.0 10.0 -273.0 299.0 -206.0C297.0 -200.0 296.0 -188.0 296.0 -180.0L-11.0 -246.0L-34.0 -263.0ZM365.0 5.0V-25.0H699.0V5.0Z"/></g>
<g fill="red" transform="translate(400 300) scale(0.1 -0.1)"><path d="M0.0 0.0V-129.0H284.0V0.0ZM314.0 85.0V-200.0C314.0 -330.0 347.0 -372.0 484.0 -372.0C512.0 -372.0 579.0 -372.0 608.0 -372.0C711.0 -372.0 751.0 -335.0 767.0 -211.0C726.0 -202.0 664.0 -179.0 633.0 -157.0C628.0 -227.0 622.0 -241.0 592.0 -241.0C575.0 -241.0 524.0 -241.0 509.0 -241.0C475.0 -241.0 469.0 -237.0 469.0 -199.0V85.0ZM-67.0 -386.0C-67.0 -337.0 90.0 -250.0 90.0 -250.0V84.0H-67.0V-171.0C-67.0 -222.0 -102.0 -254.0 -129.0 -270.0C-107.0 -295.0 -76.0 -353.0 -67.0 -386.0ZM-67.0 -386.0C-36.0 -371.0 14.0 -362.0 291.0 -313.0C288.0 -282.0 288.0 -222.0 293.0 -184.0L-15.0 -233.0L-76.0 -274.0ZM395.0 0.0V-129.0H720.0V0.0Z"/></g>
<g fill="black" opacity=".8" transform="translate(400 300) scale(0.1 -0.1)"><path d="M0.0 0.0V-124.0H288.0V0.0ZM320.0 91.0V-200.0C320.0 -325.0 353.0 -363.0 487.0 -363.0C515.0 -363.0 591.0 -363.0 620.0 -363.0C720.0 -363.0 759.0 -328.0 773.0 -205.0C734.0 -197.0 676.0 -176.0 646.0 -155.0C641.0 -226.0 634.0 -240.0 604.0 -240.0C586.0 -240.0 526.0 -240.0 509.0 -240.0C474.0 -240.0 468.0 -237.0 468.0 -200.0V91.0ZM-67.0 -384.0C-67.0 -338.0 78.0 -274.0 78.0 -274.0V92.0H-71.0V-188.0C-71.0 -233.0 -95.0 -254.0 -117.0 -265.0C-97.0 -291.0 -73.0 -350.0 -67.0 -384.0ZM-67.0 -384.0C-36.0 -369.0 13.0 -360.0 293.0 -315.0C290.0 -287.0 291.0 -229.0 295.0 -191.0L-14.0 -233.0L-75.0 -274.0ZM390.0 -0.0V-123.0H717.0V-0.0Z"/></g>
</svg>
