<?xml version="1.0" encoding="UTF-8"?>
<svg width="1700" height="300" xmlns="http://www.w3.org/2000/svg">
<rect width="100%" height="100%" fill="white"/>
<g fill="green" transform="translate(100 100) scale(0.1 -0.1)"><path d="M0.0 0.0V-29.0H565.0V0.0ZM-44.0 -685.0V-714.0H675.0V-685.0ZM-168.0 -333.0V-363.0H733.0V-333.0ZM-10.0 0.0C-20.0 -215.0 -45.0 -542.0 -66.0 -714.0H-36.0C-17.0 -544.0 7.0 -220.0 19.0 0.0ZM559.0 0.0V-6.0C559.0 -153.0 548.0 -492.0 537.0 -706.0L566.0 -707.0C577.0 -492.0 588.0 -164.0 589.0 0.0L568.0 3.0L562.0 0.0ZM268.0 -14.0C261.0 -223.0 241.0 -540.0 223.0 -708.0L254.0 -711.0C269.0 -543.0 288.0 -227.0 297.0 -14.0Z"/></g>
<g fill="green" transform="translate(200 100) scale(0.1 -0.1)"><path d="M0.0 0.0V-131.0H487.0V0.0ZM-68.0 -687.0V-818.0H653.0V-687.0ZM-238.0 -334.0V-468.0H699.0V-334.0ZM-85.0 0.0C-90.0 -270.0 -114.0 -604.0 -141.0 -818.0H7.0C29.0 -610.0 50.0 -276.0 60.0 0.0ZM427.0 0.0V-15.0C429.0 -187.0 423.0 -506.0 407.0 -750.0L558.0 -754.0C570.0 -508.0 579.0 -221.0 578.0 0.0L467.0 5.0L442.0 0.0ZM172.0 -64.0C169.0 -296.0 152.0 -583.0 130.0 -767.0H273.0C290.0 -589.0 304.0 -300.0 310.0 -64.0Z"/></g>
<g fill="green" transform="translate(300 100) scale(0.1 -0.1)"><path d="M0.0 0.0V-29.0H565.0V0.0ZM-44.0 -685.0V-714.0H675.0V-685.0ZM-168.0 -333.0V-363.0H733.0V-333.0ZM-10.0 0.0C-20.0 -215.0 -45.0 -542.0 -66.0 -714.0H-36.0C-17.0 -544.0 7.0 -220.0 19.0 0.0ZM559.0 0.0V-6.0C559.0 -153.0 548.0 -492.0 537.0 -706.0L566.0 -707.0C577.0 -492.0 588.0 -164.0 589.0 0.0L568.0 3.0L562.0 0.0ZM268.0 -14.0C261.0 -223.0 241.0 -540.0 223.0 -708.0L254.0 -711.0C269.0 -543.0 288.0 -227.0 297.0 -14.0Z"/></g>
<g fill="green" transform="translate(400 100) scale(0.1 -0.1)"><path d="M0.0 0.0V-131.0H487.0V0.0ZM-68.0 -687.0V-818.0H653.0V-687.0ZM-238.0 -334.0V-468.0H699.0V-334.0ZM-85.0 0.0C-90.0 -270.0 -114.0 -604.0 -141.0 -818.0H7.0C29.0 -610.0 50.0 -276.0 60.0 0.0ZM427.0 0.0V-15.0C429.0 -187.0 423.0 -506.0 407.0 -750.0L558.0 -754.0C570.0 -508.0 579.0 -221.0 578.0 0.0L467.0 5.0L442.0 0.0ZM172.0 -64.0C169.0 -296.0 152.0 -583.0 130.0 -767.0H273.0C290.0 -589.0 304.0 -300.0 310.0 -64.0Z"/></g>
<g fill="red" transform="translate(100 200) scale(0.1 -0.1)"><path d="M0.0 0.0V-29.0H565.0V0.0ZM-44.0 -685.0V-714.0H675.0V-685.0ZM-168.0 -333.0V-363.0H733.0V-333.0ZM-10.0 0.0C-20.0 -215.0 -45.0 -542.0 -66.0 -714.0H-36.0C-17.0 -544.0 7.0 -220.0 19.0 0.0ZM559.0 0.0V-6.0C559.0 -153.0 548.0 -492.0 537.0 -706.0L566.0 -707.0C577.0 -492.0 588.0 -164.0 589.0 0.0L568.0 3.0L562.0 0.0ZM268.0 -14.0C261.0 -223.0 241.0 -540.0 223.0 -708.0L254.0 -711.0C269.0 -543.0 288.0 -227.0 297.0 -14.0Z"/></g>
<g fill="black" opacity=".8" transform="translate(100 200) scale(0.1 -0.1)"><path d="M0.0 0.0V-29.0H565.0V0.0ZM-44.0 -685.0V-714.0H675.0V-685.0ZM-168.0 -333.0V-363.0H733.0V-333.0ZM-10.0 0.0C-20.0 -215.0 -45.0 -542.0 -66.0 -714.0H-36.0C-17.0 -544.0 7.0 -220.0 19.0 0.0ZM559.0 0.0V-6.0C559.0 -153.0 548.0 -492.0 537.0 -706.0L566.0 -707.0C577.0 -492.0 588.0 -164.0 589.0 0.0L568.0 3.0L562.0 0.0ZM268.0 -14.0C261.0 -223.0 241.0 -540.0 223.0 -708.0L254.0 -711.0C269.0 -543.0 288.0 -227.0 297.0 -14.0Z"/></g>
<g fill="red" transform="translate(200 200) scale(0.1 -0.1)"><path d="M0.0 0.0V-131.0H487.0V0.0ZM-68.0 -687.0V-818.0H653.0V-687.0ZM-238.0 -334.0V-468.0H699.0V-334.0ZM-85.0 0.0C-90.0 -270.0 -114.0 -604.0 -141.0 -818.0H7.0C29.0 -610.0 50.0 -276.0 60.0 0.0ZM427.0 0.0V-15.0C429.0 -187.0 423.0 -506.0 407.0 -750.0L558.0 -754.0C570.0 -508.0 579.0 -221.0 578.0 0.0L467.0 5.0L442.0 0.0ZM172.0 -64.0C169.0 -296.0 152.0 -583.0 130.0 -767.0H273.0C290.0 -589.0 304.0 -300.0 310.0 -64.0Z"/></g>
<g fill="black" opacity=".8" transform="translate(200 200) scale(0.1 -0.1)"><path d="M0.0 0.0V-131.0H487.0V0.0ZM-68.0 -687.0V-818.0H653.0V-687.0ZM-238.0 -334.0V-468.0H699.0V-334.0ZM-85.0 0.0C-90.0 -270.0 -114.0 -604.0 -141.0 -818.0H7.0C29.0 -610.0 50.0 -276.0 60.0 0.0ZM427.0 0.0V-15.0C429.0 -187.0 423.0 -506.0 407.0 -750.0L558.0 -754.0C570.0 -508.0 579.0 -221.0 578.0 0.0L467.0 5.0L442.0 0.0ZM172.0 -64.0C169.0 -296.0 152.0 -583.0 130.0 -767.0H273.0C290.0 -589.0 304.0 -300.0 310.0 -64.0Z"/></g>
</svg>
