<?xml version="1.0" encoding="UTF-8"?>
<svg width="1700" height="500" xmlns="http://www.w3.org/2000/svg">
<rect width="100%" height="100%" fill="white"/>
<g fill="green" transform="translate(100 100) scale(0.1 -0.1)"><path d="M-0.0 -0.0C61.0 -356.0 233.0 -698.0 520.0 -705.0C578.0 -707.0 612.0 -641.0 634.0 -480.0C617.0 -476.0 599.0 -468.0 584.0 -456.0C572.0 -587.0 548.0 -648.0 513.0 -646.0C293.0 -639.0 110.0 -337.0 58.0 0.0ZM-403.0 -328.0V-391.0H585.0V-328.0ZM545.0 93.0C328.0 48.0 -91.0 10.0 -429.0 -7.0C-422.0 -23.0 -413.0 -42.0 -410.0 -58.0C-68.0 -41.0 348.0 -6.0 595.0 47.0ZM-457.0 -670.0C-457.0 -644.0 -371.0 -596.0 -371.0 -596.0V-22.0L-429.0 -7.0V-507.0C-429.0 -578.0 -466.0 -602.0 -488.0 -612.0C-477.0 -627.0 -463.0 -654.0 -457.0 -670.0ZM-457.0 -670.0C-429.0 -653.0 -379.0 -642.0 53.0 -555.0C52.0 -543.0 51.0 -518.0 53.0 -501.0L-412.0 -586.0L-457.0 -617.0Z"/></g>
<g fill="green" transform="translate(200 100) scale(0.1 -0.1)"><path d="M0.0 0.0C30.0 -405.0 170.0 -670.0 499.0 -683.0C575.0 -686.0 655.0 -633.0 710.0 -453.0C662.0 -428.0 580.0 -365.0 538.0 -313.0C527.0 -370.0 514.0 -402.0 488.0 -401.0C341.0 -393.0 274.0 -262.0 256.0 0.0ZM-287.0 -221.0V-432.0H610.0V-221.0ZM560.0 182.0C298.0 126.0 -101.0 95.0 -452.0 86.0C-428.0 30.0 -399.0 -57.0 -394.0 -116.0C-44.0 -114.0 374.0 -87.0 675.0 -24.0ZM-462.0 -690.0C-462.0 -614.0 -195.0 -506.0 -195.0 -506.0V19.0L-452.0 86.0V-359.0C-452.0 -439.0 -501.0 -472.0 -544.0 -490.0C-510.0 -534.0 -473.0 -634.0 -462.0 -690.0ZM-462.0 -690.0C-415.0 -667.0 -338.0 -649.0 50.0 -599.0C50.0 -547.0 59.0 -452.0 72.0 -387.0L-366.0 -432.0L-472.0 -503.0Z"/></g>
<g fill="green" transform="translate(300 100) scale(0.1 -0.1)"><path d="M0.0 -0.0C49.0 -114.0 147.0 -271.0 327.0 -277.0C353.0 -279.0 375.0 -241.0 392.0 -158.0C381.0 -156.0 371.0 -151.0 362.0 -144.0C353.0 -208.0 337.0 -243.0 320.0 -241.0C186.0 -234.0 78.0 -95.0 36.0 0.0ZM-208.0 -131.0V-150.0H393.0V-131.0ZM373.0 54.0C235.0 30.0 -28.0 9.0 -243.0 1.0C-239.0 -9.0 -233.0 -20.0 -231.0 -30.0C-14.0 -22.0 248.0 -4.0 406.0 26.0ZM-259.0 -247.0C-259.0 -231.0 -207.0 -204.0 -207.0 -204.0V-12.0L-243.0 1.0V-149.0C-243.0 -192.0 -264.0 -206.0 -277.0 -212.0C-271.0 -221.0 -263.0 -237.0 -259.0 -247.0ZM-259.0 -247.0C-242.0 -238.0 -211.0 -233.0 52.0 -191.0C52.0 -183.0 52.0 -168.0 54.0 -158.0L-231.0 -198.0L-259.0 -216.0Z"/></g>
<g fill="green" transform="translate(400 100) scale(0.1 -0.1)"><path d="M0.0 0.0C21.0 -186.0 109.0 -250.0 318.0 -262.0C341.0 -265.0 390.0 -235.0 430.0 -157.0C405.0 -141.0 357.0 -100.0 334.0 -68.0C326.0 -76.0 318.0 -83.0 303.0 -82.0C198.0 -75.0 170.0 -98.0 154.0 0.0ZM-132.0 -73.0V-174.0H387.0V-73.0ZM375.0 104.0C209.0 71.0 -45.0 58.0 -266.0 57.0C-252.0 23.0 -235.0 -29.0 -233.0 -64.0C-14.0 -68.0 249.0 -57.0 434.0 -20.0ZM-278.0 -267.0C-278.0 -225.0 -110.0 -167.0 -110.0 -167.0V-2.0L-266.0 57.0V-80.0C-266.0 -126.0 -295.0 -140.0 -321.0 -148.0C-301.0 -174.0 -283.0 -234.0 -278.0 -267.0ZM-278.0 -267.0C-250.0 -256.0 -204.0 -248.0 26.0 -231.0C29.0 -201.0 40.0 -144.0 52.0 -106.0L-214.0 -120.0L-281.0 -162.0Z"/></g>
<g fill="green" transform="translate(500 100) scale(0.1 -0.1)"><path d="M0.0 -0.0C30.0 -468.0 40.0 -853.0 229.0 -858.0C270.0 -860.0 291.0 -798.0 306.0 -650.0C295.0 -648.0 282.0 -642.0 271.0 -634.0C261.0 -758.0 244.0 -818.0 225.0 -816.0C96.0 -808.0 62.0 -472.0 41.0 0.0ZM-150.0 -136.0V-138.0H361.0V-136.0ZM304.0 76.0C184.0 41.0 -42.0 9.0 -232.0 -11.0C-227.0 -22.0 -219.0 -35.0 -217.0 -46.0C-24.0 -27.0 202.0 4.0 343.0 44.0ZM-251.0 -833.0C-251.0 -816.0 -191.0 -783.0 -191.0 -783.0V-19.0L-232.0 -11.0V-718.0C-232.0 -769.0 -257.0 -785.0 -272.0 -793.0C-265.0 -803.0 -255.0 -823.0 -251.0 -833.0ZM-251.0 -833.0C-234.0 -821.0 -202.0 -811.0 42.0 -738.0C41.0 -729.0 39.0 -712.0 39.0 -699.0L-221.0 -770.0L-252.0 -794.0Z"/></g>
<g fill="green" transform="translate(600 100) scale(0.1 -0.1)"><path d="M0.0 0.0C2.0 -409.0 -13.0 -809.0 221.0 -819.0C275.0 -821.0 334.0 -769.0 371.0 -591.0C335.0 -569.0 273.0 -515.0 242.0 -472.0C237.0 -553.0 228.0 -607.0 221.0 -606.0C155.0 -599.0 178.0 -320.0 190.0 0.0ZM-41.0 -26.0V-154.0H393.0V-26.0ZM286.0 156.0C149.0 109.0 -54.0 69.0 -240.0 47.0C-220.0 5.0 -194.0 -62.0 -188.0 -106.0C2.0 -90.0 225.0 -57.0 398.0 -2.0ZM-237.0 -837.0C-237.0 -779.0 -63.0 -707.0 -63.0 -707.0V8.0L-240.0 47.0V-591.0C-240.0 -646.0 -270.0 -671.0 -299.0 -684.0C-274.0 -720.0 -246.0 -795.0 -237.0 -837.0ZM-237.0 -837.0C-210.0 -818.0 -161.0 -797.0 37.0 -736.0C34.0 -696.0 35.0 -623.0 43.0 -572.0L-188.0 -629.0L-254.0 -683.0Z"/></g>
<g fill="green" transform="translate(700 100) scale(0.1 -0.1)"><path d="M0.0 0.0C61.0 -350.0 212.0 -698.0 494.0 -706.0C547.0 -708.0 582.0 -642.0 604.0 -480.0C587.0 -477.0 569.0 -467.0 554.0 -456.0C542.0 -586.0 518.0 -648.0 486.0 -646.0C274.0 -638.0 110.0 -331.0 58.0 0.0ZM-774.0 -302.0V-987.0H-308.0V-302.0ZM537.0 95.0C325.0 53.0 -84.0 16.0 -415.0 1.0C-408.0 -15.0 -399.0 -34.0 -395.0 -51.0C-60.0 -35.0 346.0 -3.0 588.0 48.0ZM-444.0 -665.0C-444.0 -639.0 -357.0 -590.0 -357.0 -590.0V-16.0L-415.0 1.0V-500.0C-415.0 -572.0 -453.0 -597.0 -475.0 -607.0C-464.0 -622.0 -450.0 -649.0 -444.0 -665.0ZM-444.0 -665.0C-416.0 -648.0 -367.0 -637.0 60.0 -553.0C59.0 -542.0 58.0 -517.0 60.0 -499.0L-398.0 -581.0L-444.0 -612.0Z"/></g>
<g fill="green" transform="translate(800 100) scale(0.1 -0.1)"><path d="M0.0 0.0C32.0 -407.0 168.0 -677.0 493.0 -689.0C560.0 -692.0 640.0 -638.0 698.0 -462.0C651.0 -436.0 569.0 -369.0 528.0 -317.0C517.0 -370.0 503.0 -401.0 479.0 -400.0C339.0 -393.0 278.0 -265.0 258.0 0.0ZM-722.0 -200.0V-1013.0H-221.0V-200.0ZM554.0 182.0C301.0 124.0 -94.0 90.0 -442.0 80.0C-417.0 24.0 -386.0 -66.0 -381.0 -124.0C-30.0 -120.0 388.0 -91.0 690.0 -23.0ZM-458.0 -697.0C-458.0 -622.0 -184.0 -522.0 -184.0 -522.0V4.0L-443.0 80.0V-376.0C-443.0 -454.0 -491.0 -481.0 -534.0 -497.0C-502.0 -541.0 -468.0 -640.0 -458.0 -697.0ZM-458.0 -697.0C-411.0 -674.0 -334.0 -656.0 47.0 -609.0C48.0 -556.0 60.0 -459.0 74.0 -393.0L-360.0 -436.0L-468.0 -508.0Z"/></g>
<g fill="green" transform="translate(900 100) scale(0.1 -0.1)"><path d="M-0.0 -0.0C43.0 -363.0 239.0 -677.0 477.0 -680.0C536.0 -680.0 563.0 -626.0 578.0 -480.0C564.0 -477.0 549.0 -469.0 537.0 -460.0C528.0 -583.0 511.0 -634.0 474.0 -634.0C280.0 -631.0 83.0 -352.0 45.0 0.0ZM-318.0 -724.0V-601.0H702.0V-724.0ZM444.0 75.0C254.0 37.0 -111.0 4.0 -404.0 -12.0C-398.0 -25.0 -392.0 -40.0 -390.0 -53.0C-93.0 -37.0 268.0 -6.0 481.0 38.0ZM-433.0 -658.0C-433.0 -638.0 -358.0 -595.0 -358.0 -595.0V-24.0L-404.0 -12.0V-525.0C-404.0 -582.0 -439.0 -604.0 -458.0 -613.0C-449.0 -625.0 -438.0 -645.0 -433.0 -658.0ZM-433.0 -658.0C-408.0 -643.0 -367.0 -633.0 30.0 -548.0C29.0 -538.0 28.0 -518.0 30.0 -505.0L-397.0 -589.0L-433.0 -615.0Z"/></g>
<g fill="green" transform="translate(1000 100) scale(0.1 -0.1)"><path d="M0.0 0.0C26.0 -375.0 172.0 -661.0 454.0 -668.0C552.0 -669.0 618.0 -627.0 657.0 -450.0C611.0 -431.0 541.0 -386.0 501.0 -344.0C493.0 -415.0 483.0 -447.0 454.0 -446.0C320.0 -443.0 230.0 -253.0 214.0 0.0ZM-222.0 -645.0V-651.0H706.0V-645.0ZM506.0 170.0C259.0 123.0 -107.0 94.0 -431.0 84.0C-411.0 37.0 -387.0 -36.0 -384.0 -86.0C-63.0 -81.0 315.0 -57.0 593.0 -5.0ZM-446.0 -663.0C-446.0 -598.0 -213.0 -508.0 -213.0 -508.0V39.0L-430.0 84.0V-385.0C-430.0 -450.0 -477.0 -479.0 -515.0 -494.0C-487.0 -532.0 -456.0 -616.0 -446.0 -663.0ZM-446.0 -663.0C-403.0 -642.0 -335.0 -627.0 36.0 -574.0C34.0 -532.0 37.0 -454.0 46.0 -400.0L-366.0 -447.0L-456.0 -506.0Z"/></g>
<g fill="green" transform="translate(1100 100) scale(0.1 -0.1)"><path d="M-0.0 -0.0C50.0 -354.0 270.0 -680.0 520.0 -684.0C580.0 -685.0 610.0 -628.0 627.0 -472.0C612.0 -468.0 595.0 -461.0 582.0 -449.0C572.0 -579.0 553.0 -635.0 515.0 -633.0C314.0 -630.0 94.0 -340.0 51.0 0.0ZM-529.0 -292.0V-378.0H631.0V-292.0ZM469.0 79.0C267.0 37.0 -125.0 2.0 -435.0 -12.0C-429.0 -26.0 -422.0 -44.0 -420.0 -58.0C-106.0 -44.0 283.0 -11.0 509.0 37.0ZM-450.0 -662.0C-450.0 -638.0 -385.0 -593.0 -385.0 -593.0V-15.0L-436.0 -12.0V-515.0C-436.0 -579.0 -463.0 -602.0 -480.0 -612.0C-470.0 -625.0 -456.0 -649.0 -450.0 -662.0ZM-450.0 -662.0C-424.0 -647.0 -380.0 -635.0 30.0 -544.0C28.0 -533.0 27.0 -510.0 29.0 -496.0L-412.0 -586.0L-451.0 -615.0Z"/></g>
<g fill="green" transform="translate(1200 100) scale(0.1 -0.1)"><path d="M0.0 0.0C32.0 -392.0 204.0 -675.0 488.0 -682.0C580.0 -684.0 649.0 -639.0 692.0 -462.0C646.0 -441.0 574.0 -391.0 535.0 -348.0C526.0 -417.0 513.0 -449.0 485.0 -448.0C355.0 -444.0 244.0 -267.0 223.0 0.0ZM-484.0 -191.0V-428.0H707.0V-191.0ZM474.0 152.0C235.0 104.0 -131.0 77.0 -452.0 69.0C-431.0 21.0 -407.0 -57.0 -402.0 -108.0C-80.0 -106.0 303.0 -82.0 581.0 -27.0ZM-435.0 -688.0C-435.0 -614.0 -223.0 -487.0 -223.0 -487.0V46.0L-452.0 69.0V-355.0C-452.0 -434.0 -493.0 -481.0 -531.0 -505.0C-495.0 -545.0 -450.0 -637.0 -435.0 -688.0ZM-435.0 -688.0C-389.0 -665.0 -317.0 -648.0 68.0 -592.0C65.0 -546.0 69.0 -461.0 78.0 -402.0L-349.0 -452.0L-445.0 -518.0Z"/></g>
<g fill="green" transform="translate(1300 100) scale(0.1 -0.1)"><path d="M-0.0 0.0C49.0 -377.0 262.0 -695.0 521.0 -699.0C589.0 -699.0 620.0 -639.0 638.0 -476.0C620.0 -472.0 602.0 -463.0 588.0 -452.0C578.0 -585.0 558.0 -642.0 519.0 -642.0C311.0 -639.0 98.0 -360.0 57.0 0.0ZM-373.0 -331.0V-380.0H557.0V-331.0ZM494.0 95.0C286.0 48.0 -113.0 4.0 -437.0 -19.0C-431.0 -35.0 -421.0 -53.0 -419.0 -68.0C-90.0 -45.0 304.0 -3.0 543.0 52.0ZM-475.0 -686.0C-475.0 -660.0 -382.0 -616.0 -382.0 -616.0V-34.0L-437.0 -19.0V-531.0C-437.0 -598.0 -480.0 -620.0 -504.0 -629.0C-494.0 -644.0 -481.0 -670.0 -475.0 -686.0ZM-475.0 -686.0C-446.0 -668.0 -397.0 -657.0 64.0 -565.0C62.0 -553.0 61.0 -530.0 63.0 -514.0L-432.0 -605.0L-475.0 -634.0Z"/></g>
<g fill="green" transform="translate(1400 100) scale(0.1 -0.1)"><path d="M0.0 0.0C29.0 -391.0 188.0 -656.0 470.0 -665.0C571.0 -666.0 644.0 -619.0 687.0 -432.0C635.0 -411.0 560.0 -360.0 517.0 -312.0C508.0 -380.0 497.0 -412.0 469.0 -412.0C351.0 -407.0 258.0 -248.0 241.0 0.0ZM-259.0 -213.0V-392.0H566.0V-213.0ZM520.0 198.0C265.0 145.0 -130.0 115.0 -475.0 105.0C-453.0 54.0 -426.0 -28.0 -422.0 -83.0C-75.0 -79.0 338.0 -51.0 635.0 9.0ZM-494.0 -670.0C-494.0 -595.0 -224.0 -497.0 -224.0 -497.0V45.0L-475.0 105.0V-352.0C-475.0 -428.0 -528.0 -458.0 -571.0 -475.0C-539.0 -517.0 -504.0 -615.0 -494.0 -670.0ZM-494.0 -670.0C-446.0 -647.0 -369.0 -630.0 55.0 -577.0C52.0 -530.0 56.0 -444.0 63.0 -385.0L-402.0 -432.0L-502.0 -498.0Z"/></g>
<g fill="green" transform="translate(1500 100) scale(0.1 -0.1)"><path d="M-0.0 0.0C50.0 -366.0 222.0 -688.0 518.0 -693.0C581.0 -695.0 615.0 -637.0 635.0 -492.0C619.0 -487.0 601.0 -479.0 586.0 -468.0C576.0 -588.0 553.0 -637.0 512.0 -635.0C278.0 -630.0 100.0 -347.0 56.0 0.0ZM-381.0 -316.0V-371.0H555.0V-316.0ZM520.0 90.0C305.0 43.0 -122.0 9.0 -455.0 -2.0C-448.0 -18.0 -439.0 -38.0 -436.0 -54.0C-102.0 -42.0 323.0 -10.0 561.0 43.0ZM-482.0 -661.0C-482.0 -635.0 -398.0 -585.0 -398.0 -585.0V-16.0L-456.0 -2.0V-498.0C-456.0 -569.0 -492.0 -594.0 -513.0 -604.0C-502.0 -619.0 -488.0 -645.0 -482.0 -661.0ZM-482.0 -661.0C-456.0 -644.0 -409.0 -633.0 -12.0 -551.0C-12.0 -540.0 -13.0 -515.0 -12.0 -498.0L-438.0 -578.0L-483.0 -608.0Z"/></g>
<g fill="green" transform="translate(1600 100) scale(0.1 -0.1)"><path d="M0.0 0.0C32.0 -414.0 192.0 -679.0 511.0 -690.0C600.0 -692.0 678.0 -640.0 728.0 -456.0C679.0 -433.0 597.0 -376.0 554.0 -326.0C544.0 -390.0 530.0 -422.0 502.0 -421.0C361.0 -415.0 273.0 -271.0 252.0 0.0ZM-238.0 -233.0V-429.0H586.0V-233.0ZM549.0 149.0C294.0 97.0 -94.0 70.0 -436.0 64.0C-412.0 10.0 -385.0 -74.0 -380.0 -132.0C-40.0 -133.0 367.0 -110.0 659.0 -50.0ZM-445.0 -688.0C-445.0 -615.0 -188.0 -499.0 -188.0 -499.0V9.0L-436.0 64.0V-365.0C-436.0 -449.0 -486.0 -486.0 -528.0 -506.0C-496.0 -545.0 -456.0 -638.0 -445.0 -688.0ZM-445.0 -688.0C-400.0 -665.0 -326.0 -647.0 39.0 -597.0C36.0 -545.0 41.0 -451.0 51.0 -386.0L-353.0 -429.0L-456.0 -499.0Z"/></g>
<g fill="red" transform="translate(100 200) scale(0.1 -0.1)"><path d="M0.0 0.0C24.0 -230.0 100.0 -433.0 240.0 -436.0C271.0 -437.0 288.0 -402.0 299.0 -314.0C291.0 -311.0 281.0 -308.0 273.0 -302.0C267.0 -374.0 255.0 -407.0 237.0 -406.0C131.0 -403.0 50.0 -224.0 29.0 0.0ZM-218.0 -163.0V-193.0H281.0V-163.0ZM192.0 50.0C99.0 26.0 -83.0 7.0 -228.0 -4.0C-223.0 -11.0 -219.0 -21.0 -217.0 -29.0C-71.0 -20.0 110.0 -1.0 216.0 26.0ZM-240.0 -420.0C-240.0 -407.0 -198.0 -383.0 -198.0 -383.0V-4.0H-228.0V-337.0C-228.0 -373.0 -245.0 -385.0 -256.0 -390.0C-251.0 -398.0 -243.0 -411.0 -240.0 -420.0ZM-240.0 -420.0C-227.0 -411.0 -202.0 -405.0 -3.0 -359.0C-3.0 -353.0 -4.0 -340.0 -3.0 -331.0L-218.0 -376.0L-240.0 -392.0Z"/></g>
<g fill="black" opacity=".8" transform="translate(100 200) scale(0.1 -0.1)"><path d="M0.0 0.0C17.0 -239.0 106.0 -427.0 237.0 -428.0C271.0 -428.0 286.0 -400.0 294.0 -319.0C286.0 -317.0 278.0 -313.0 271.0 -308.0C266.0 -376.0 257.0 -403.0 235.0 -402.0C129.0 -400.0 39.0 -235.0 26.0 0.0ZM-215.0 -161.0V-188.0H278.0V-161.0ZM213.0 43.0C116.0 20.0 -75.0 1.0 -223.0 -6.0C-220.0 -13.0 -215.0 -23.0 -214.0 -30.0C-66.0 -23.0 124.0 -5.0 230.0 21.0ZM-233.0 -419.0C-233.0 -407.0 -198.0 -383.0 -198.0 -383.0V-8.0L-224.0 -6.0V-343.0C-224.0 -376.0 -239.0 -389.0 -248.0 -394.0C-243.0 -401.0 -237.0 -412.0 -233.0 -419.0ZM-233.0 -419.0C-221.0 -411.0 -201.0 -405.0 -14.0 -358.0C-15.0 -352.0 -15.0 -341.0 -15.0 -334.0L-214.0 -380.0L-235.0 -394.0Z"/></g>
<g fill="red" transform="translate(200 200) scale(0.1 -0.1)"><path d="M0.0 0.0C21.0 -236.0 95.0 -437.0 234.0 -438.0C273.0 -439.0 314.0 -410.0 339.0 -306.0C315.0 -293.0 272.0 -260.0 251.0 -234.0C246.0 -274.0 240.0 -296.0 229.0 -296.0C192.0 -295.0 144.0 -170.0 132.0 0.0ZM-153.0 -110.0V-223.0H316.0V-110.0ZM187.0 88.0C89.0 60.0 -67.0 41.0 -207.0 32.0C-193.0 5.0 -177.0 -41.0 -173.0 -70.0C-27.0 -65.0 147.0 -47.0 276.0 -12.0ZM-202.0 -437.0C-202.0 -395.0 -77.0 -323.0 -77.0 -323.0V32.0H-207.0V-245.0C-207.0 -292.0 -233.0 -320.0 -256.0 -333.0C-237.0 -356.0 -210.0 -408.0 -202.0 -437.0ZM-202.0 -437.0C-178.0 -424.0 -140.0 -413.0 35.0 -383.0C34.0 -354.0 37.0 -301.0 42.0 -265.0L-154.0 -291.0L-210.0 -330.0Z"/></g>
<g fill="black" opacity=".8" transform="translate(200 200) scale(0.1 -0.1)"><path d="M0.0 0.0C13.0 -233.0 86.0 -425.0 227.0 -428.0C284.0 -428.0 319.0 -402.0 338.0 -296.0C312.0 -285.0 275.0 -262.0 253.0 -238.0C250.0 -287.0 242.0 -310.0 229.0 -310.0C174.0 -309.0 123.0 -170.0 116.0 0.0ZM-164.0 -113.0V-216.0H314.0V-113.0ZM222.0 74.0C110.0 49.0 -60.0 33.0 -211.0 26.0C-199.0 2.0 -186.0 -39.0 -184.0 -65.0C-31.0 -62.0 149.0 -49.0 282.0 -18.0ZM-205.0 -428.0C-205.0 -391.0 -97.0 -327.0 -97.0 -327.0V17.0L-211.0 26.0V-262.0C-211.0 -304.0 -234.0 -328.0 -253.0 -340.0C-236.0 -359.0 -212.0 -405.0 -205.0 -428.0ZM-205.0 -428.0C-184.0 -416.0 -149.0 -406.0 27.0 -371.0C23.0 -347.0 21.0 -303.0 24.0 -271.0L-166.0 -301.0L-213.0 -335.0Z"/></g>
<g fill="red" transform="translate(300 200) scale(0.1 -0.1)"><path d="M0.0 0.0C25.0 -235.0 225.0 -422.0 374.0 -422.0C422.0 -421.0 440.0 -391.0 447.0 -292.0C437.0 -289.0 426.0 -284.0 419.0 -278.0C415.0 -361.0 405.0 -391.0 374.0 -392.0C243.0 -395.0 53.0 -226.0 31.0 0.0ZM-312.0 -160.0V-190.0H430.0V-160.0ZM285.0 45.0C150.0 18.0 -114.0 -4.0 -320.0 -14.0C-316.0 -22.0 -312.0 -33.0 -312.0 -41.0C-103.0 -32.0 157.0 -10.0 305.0 20.0ZM-333.0 -427.0C-333.0 -412.0 -291.0 -383.0 -291.0 -383.0V-14.0H-320.0V-338.0C-320.0 -376.0 -340.0 -392.0 -351.0 -397.0C-345.0 -405.0 -336.0 -419.0 -333.0 -427.0ZM-333.0 -427.0C-315.0 -416.0 -287.0 -408.0 3.0 -343.0C2.0 -336.0 1.0 -323.0 2.0 -314.0L-310.0 -381.0L-333.0 -398.0Z"/></g>
<g fill="black" opacity=".8" transform="translate(300 200) scale(0.1 -0.1)"><path d="M0.0 0.0C24.0 -240.0 215.0 -423.0 372.0 -422.0C423.0 -422.0 442.0 -391.0 451.0 -290.0C440.0 -287.0 428.0 -281.0 420.0 -274.0C414.0 -358.0 405.0 -388.0 373.0 -388.0C235.0 -390.0 55.0 -229.0 35.0 0.0ZM-316.0 -161.0V-189.0H439.0V-161.0ZM290.0 56.0C153.0 25.0 -113.0 -4.0 -321.0 -16.0C-318.0 -26.0 -311.0 -38.0 -311.0 -47.0C-101.0 -35.0 162.0 -7.0 314.0 28.0ZM-340.0 -426.0C-340.0 -408.0 -288.0 -380.0 -288.0 -380.0V-19.0L-322.0 -16.0V-329.0C-322.0 -371.0 -346.0 -385.0 -359.0 -392.0C-353.0 -401.0 -344.0 -416.0 -340.0 -426.0ZM-340.0 -426.0C-321.0 -415.0 -292.0 -407.0 10.0 -344.0C8.0 -336.0 8.0 -321.0 9.0 -312.0L-315.0 -375.0L-341.0 -394.0Z"/></g>
<g fill="red" transform="translate(400 200) scale(0.1 -0.1)"><path d="M0.0 0.0C26.0 -237.0 181.0 -408.0 337.0 -409.0C422.0 -409.0 463.0 -386.0 482.0 -264.0C448.0 -254.0 404.0 -232.0 377.0 -208.0C372.0 -262.0 365.0 -281.0 343.0 -281.0C268.0 -281.0 156.0 -152.0 135.0 0.0ZM-267.0 -88.0V-204.0H481.0V-88.0ZM328.0 112.0C156.0 83.0 -104.0 66.0 -332.0 61.0C-320.0 33.0 -306.0 -14.0 -304.0 -46.0C-77.0 -44.0 191.0 -29.0 387.0 3.0ZM-323.0 -413.0C-323.0 -366.0 -188.0 -281.0 -188.0 -281.0V61.0H-332.0V-202.0C-332.0 -252.0 -362.0 -285.0 -386.0 -301.0C-364.0 -325.0 -333.0 -382.0 -323.0 -413.0ZM-323.0 -413.0C-291.0 -398.0 -242.0 -388.0 48.0 -351.0C45.0 -323.0 45.0 -272.0 47.0 -237.0L-267.0 -271.0L-329.0 -311.0Z"/></g>
<g fill="black" opacity=".8" transform="translate(400 200) scale(0.1 -0.1)"><path d="M0.0 0.0C23.0 -249.0 172.0 -415.0 329.0 -417.0C414.0 -417.0 456.0 -391.0 476.0 -269.0C440.0 -258.0 396.0 -235.0 368.0 -209.0C364.0 -262.0 356.0 -280.0 334.0 -280.0C266.0 -280.0 159.0 -160.0 142.0 0.0ZM-270.0 -91.0V-204.0H473.0V-91.0ZM305.0 106.0C143.0 76.0 -111.0 62.0 -331.0 58.0C-318.0 30.0 -304.0 -20.0 -302.0 -51.0C-79.0 -51.0 185.0 -37.0 375.0 -2.0ZM-328.0 -416.0C-328.0 -368.0 -178.0 -285.0 -178.0 -285.0V47.0L-331.0 58.0V-199.0C-331.0 -253.0 -364.0 -284.0 -390.0 -300.0C-367.0 -324.0 -337.0 -384.0 -328.0 -416.0ZM-328.0 -416.0C-296.0 -401.0 -246.0 -391.0 47.0 -353.0C42.0 -326.0 40.0 -274.0 41.0 -238.0L-271.0 -270.0L-333.0 -312.0Z"/></g>
<g fill="red" transform="translate(500 200) scale(0.1 -0.1)"><path d="M0.0 0.0C8.0 -467.0 91.0 -814.0 234.0 -814.0C285.0 -814.0 300.0 -766.0 307.0 -627.0C298.0 -625.0 286.0 -620.0 279.0 -614.0C273.0 -734.0 263.0 -783.0 236.0 -783.0C125.0 -783.0 33.0 -476.0 30.0 0.0ZM-225.0 -311.0V-340.0H270.0V-311.0ZM189.0 58.0C94.0 26.0 -89.0 -2.0 -239.0 -21.0C-235.0 -29.0 -230.0 -38.0 -229.0 -46.0C-76.0 -29.0 105.0 0.0 215.0 34.0ZM-267.0 -811.0C-267.0 -797.0 -210.0 -766.0 -210.0 -766.0V-21.0H-239.0V-719.0C-239.0 -758.0 -269.0 -775.0 -284.0 -782.0C-278.0 -790.0 -269.0 -803.0 -267.0 -811.0ZM-267.0 -811.0C-251.0 -800.0 -225.0 -792.0 16.0 -727.0C15.0 -720.0 13.0 -708.0 14.0 -699.0L-244.0 -764.0L-267.0 -781.0Z"/></g>
<g fill="black" opacity=".8" transform="translate(500 200) scale(0.1 -0.1)"><path d="M0.0 0.0C8.0 -475.0 86.0 -817.0 226.0 -817.0C276.0 -816.0 291.0 -770.0 298.0 -634.0C289.0 -632.0 277.0 -626.0 269.0 -620.0C263.0 -738.0 254.0 -785.0 228.0 -785.0C118.0 -783.0 35.0 -485.0 31.0 0.0ZM-236.0 -313.0V-343.0H275.0V-313.0ZM198.0 62.0C98.0 30.0 -93.0 -0.0 -248.0 -19.0C-244.0 -28.0 -238.0 -39.0 -237.0 -48.0C-80.0 -29.0 110.0 2.0 224.0 37.0ZM-267.0 -816.0C-267.0 -802.0 -217.0 -773.0 -217.0 -773.0V-20.0L-249.0 -19.0V-724.0C-249.0 -764.0 -272.0 -778.0 -284.0 -786.0C-279.0 -793.0 -271.0 -808.0 -267.0 -816.0ZM-267.0 -816.0C-252.0 -805.0 -227.0 -795.0 8.0 -719.0C7.0 -712.0 5.0 -698.0 4.0 -689.0L-245.0 -764.0L-269.0 -784.0Z"/></g>
<g fill="red" transform="translate(600 200) scale(0.1 -0.1)"><path d="M0.0 0.0C5.0 -373.0 47.0 -804.0 208.0 -804.0C298.0 -804.0 342.0 -766.0 359.0 -583.0C322.0 -568.0 275.0 -537.0 245.0 -506.0C243.0 -610.0 236.0 -663.0 224.0 -663.0C186.0 -663.0 137.0 -307.0 144.0 0.0ZM-170.0 -224.0V-354.0H321.0V-224.0ZM211.0 137.0C91.0 100.0 -86.0 64.0 -249.0 42.0C-233.0 12.0 -214.0 -41.0 -209.0 -75.0C-41.0 -56.0 152.0 -25.0 308.0 18.0ZM-245.0 -795.0C-245.0 -744.0 -110.0 -680.0 -110.0 -680.0V42.0H-249.0V-580.0C-249.0 -623.0 -279.0 -652.0 -304.0 -666.0C-282.0 -696.0 -254.0 -759.0 -245.0 -795.0ZM-245.0 -795.0C-217.0 -778.0 -172.0 -763.0 52.0 -714.0C48.0 -683.0 46.0 -627.0 49.0 -588.0L-199.0 -634.0L-256.0 -676.0Z"/></g>
<g fill="black" opacity=".8" transform="translate(600 200) scale(0.1 -0.1)"><path d="M0.0 0.0C4.0 -383.0 36.0 -792.0 202.0 -794.0C292.0 -793.0 336.0 -754.0 353.0 -574.0C316.0 -559.0 267.0 -528.0 237.0 -496.0C235.0 -596.0 228.0 -648.0 216.0 -647.0C178.0 -647.0 141.0 -309.0 149.0 0.0ZM-176.0 -221.0V-356.0H326.0V-221.0ZM211.0 136.0C90.0 99.0 -89.0 64.0 -253.0 43.0C-237.0 12.0 -217.0 -42.0 -212.0 -76.0C-43.0 -59.0 152.0 -30.0 308.0 15.0ZM-245.0 -801.0C-245.0 -749.0 -108.0 -678.0 -108.0 -678.0V41.0L-252.0 43.0V-584.0C-252.0 -632.0 -281.0 -661.0 -306.0 -676.0C-284.0 -705.0 -255.0 -767.0 -245.0 -801.0ZM-245.0 -801.0C-219.0 -783.0 -175.0 -764.0 40.0 -699.0C32.0 -668.0 25.0 -612.0 25.0 -571.0L-208.0 -631.0L-261.0 -675.0Z"/></g>
<g fill="red" transform="translate(700 200) scale(0.1 -0.1)"><path d="M0.0 0.0C28.0 -230.0 110.0 -433.0 261.0 -436.0C294.0 -437.0 311.0 -401.0 322.0 -312.0C314.0 -310.0 304.0 -307.0 296.0 -300.0C290.0 -374.0 278.0 -407.0 258.0 -406.0C143.0 -403.0 53.0 -223.0 30.0 0.0ZM-217.0 -163.0V-193.0H317.0V-163.0ZM274.0 49.0C163.0 23.0 -54.0 3.0 -228.0 -7.0C-224.0 -15.0 -220.0 -25.0 -218.0 -33.0C-43.0 -24.0 173.0 -4.0 298.0 25.0ZM-241.0 -419.0C-241.0 -406.0 -198.0 -380.0 -198.0 -380.0V-13.0L-228.0 -7.0V-334.0C-228.0 -371.0 -246.0 -384.0 -257.0 -389.0C-251.0 -397.0 -244.0 -411.0 -241.0 -419.0ZM-241.0 -419.0C-227.0 -410.0 -202.0 -404.0 -3.0 -358.0C-3.0 -352.0 -4.0 -339.0 -3.0 -330.0L-218.0 -375.0L-241.0 -391.0Z"/></g>
<g fill="black" opacity=".8" transform="translate(700 200) scale(0.1 -0.1)"><path d="M0.0 0.0C28.0 -229.0 105.0 -433.0 259.0 -436.0C291.0 -437.0 309.0 -402.0 321.0 -314.0C312.0 -312.0 303.0 -307.0 295.0 -301.0C288.0 -374.0 276.0 -407.0 256.0 -405.0C138.0 -401.0 54.0 -222.0 30.0 0.0ZM-205.0 -161.0V-187.0H309.0V-161.0ZM272.0 50.0C161.0 25.0 -56.0 5.0 -229.0 -3.0C-225.0 -12.0 -220.0 -22.0 -218.0 -31.0C-45.0 -22.0 172.0 -4.0 297.0 25.0ZM-241.0 -417.0C-241.0 -403.0 -198.0 -377.0 -198.0 -377.0V-10.0L-229.0 -3.0V-330.0C-229.0 -368.0 -247.0 -382.0 -257.0 -388.0C-252.0 -395.0 -245.0 -409.0 -241.0 -417.0ZM-241.0 -417.0C-227.0 -409.0 -203.0 -402.0 8.0 -354.0C8.0 -348.0 7.0 -335.0 8.0 -326.0L-218.0 -372.0L-242.0 -389.0Z"/></g>
<g fill="red" transform="translate(800 200) scale(0.1 -0.1)"><path d="M0.0 0.0C12.0 -239.0 73.0 -415.0 254.0 -422.0C300.0 -424.0 341.0 -395.0 368.0 -290.0C342.0 -277.0 300.0 -246.0 277.0 -219.0C272.0 -260.0 265.0 -282.0 252.0 -282.0C168.0 -277.0 136.0 -168.0 130.0 0.0ZM-134.0 -100.0V-213.0H330.0V-100.0ZM293.0 95.0C157.0 65.0 -43.0 47.0 -220.0 40.0C-207.0 10.0 -192.0 -35.0 -189.0 -67.0C-15.0 -64.0 193.0 -49.0 345.0 -17.0ZM-226.0 -428.0C-226.0 -388.0 -91.0 -330.0 -91.0 -330.0V14.0L-220.0 40.0V-251.0C-220.0 -293.0 -248.0 -313.0 -271.0 -323.0C-253.0 -347.0 -232.0 -399.0 -226.0 -428.0ZM-226.0 -428.0C-203.0 -415.0 -165.0 -404.0 23.0 -373.0C22.0 -346.0 24.0 -296.0 30.0 -262.0L-181.0 -291.0L-233.0 -328.0Z"/></g>
<g fill="black" opacity=".8" transform="translate(800 200) scale(0.1 -0.1)"><path d="M0.0 0.0C14.0 -242.0 78.0 -422.0 254.0 -428.0C299.0 -430.0 342.0 -399.0 370.0 -293.0C343.0 -279.0 299.0 -246.0 276.0 -218.0C271.0 -258.0 263.0 -280.0 250.0 -279.0C177.0 -276.0 144.0 -168.0 137.0 0.0ZM-138.0 -106.0V-215.0H333.0V-106.0ZM278.0 90.0C147.0 60.0 -51.0 42.0 -227.0 35.0C-213.0 6.0 -197.0 -41.0 -194.0 -72.0C-18.0 -70.0 190.0 -56.0 343.0 -20.0ZM-227.0 -432.0C-227.0 -391.0 -93.0 -328.0 -93.0 -328.0V7.0L-227.0 35.0V-251.0C-227.0 -296.0 -252.0 -317.0 -274.0 -327.0C-256.0 -351.0 -233.0 -403.0 -227.0 -432.0ZM-227.0 -432.0C-203.0 -419.0 -163.0 -408.0 26.0 -376.0C24.0 -348.0 27.0 -296.0 34.0 -260.0L-179.0 -288.0L-234.0 -327.0Z"/></g>
<g fill="red" transform="translate(900 200) scale(0.1 -0.1)"><path d="M0.0 0.0C7.0 -469.0 84.0 -814.0 222.0 -814.0C271.0 -814.0 286.0 -766.0 292.0 -627.0C284.0 -625.0 272.0 -620.0 264.0 -614.0C259.0 -734.0 250.0 -783.0 224.0 -783.0C117.0 -783.0 33.0 -479.0 30.0 0.0ZM-226.0 -311.0V-340.0H269.0V-311.0ZM187.0 65.0C92.0 33.0 -91.0 5.0 -241.0 -14.0C-237.0 -22.0 -232.0 -32.0 -232.0 -39.0C-79.0 -22.0 103.0 7.0 212.0 41.0ZM-258.0 -824.0C-258.0 -812.0 -212.0 -787.0 -212.0 -787.0V-14.0H-241.0V-741.0C-241.0 -777.0 -262.0 -789.0 -274.0 -794.0C-269.0 -802.0 -261.0 -817.0 -258.0 -824.0ZM-258.0 -824.0C-243.0 -811.0 -219.0 -800.0 3.0 -705.0C1.0 -699.0 -2.0 -686.0 -3.0 -677.0L-238.0 -772.0L-259.0 -794.0Z"/></g>
<g fill="black" opacity=".8" transform="translate(900 200) scale(0.1 -0.1)"><path d="M0.0 0.0C8.0 -477.0 82.0 -819.0 222.0 -819.0C271.0 -818.0 286.0 -772.0 293.0 -637.0C284.0 -635.0 272.0 -629.0 264.0 -623.0C258.0 -741.0 249.0 -787.0 223.0 -787.0C114.0 -786.0 34.0 -487.0 31.0 0.0ZM-229.0 -315.0V-342.0H270.0V-315.0ZM195.0 62.0C96.0 30.0 -93.0 -0.0 -246.0 -19.0C-242.0 -28.0 -236.0 -39.0 -235.0 -47.0C-79.0 -29.0 108.0 2.0 220.0 36.0ZM-264.0 -818.0C-264.0 -804.0 -215.0 -776.0 -215.0 -776.0V-20.0L-246.0 -19.0V-726.0C-246.0 -766.0 -269.0 -781.0 -282.0 -788.0C-276.0 -796.0 -268.0 -811.0 -264.0 -818.0ZM-264.0 -818.0C-249.0 -807.0 -225.0 -797.0 6.0 -722.0C4.0 -714.0 2.0 -701.0 2.0 -692.0L-243.0 -767.0L-266.0 -786.0Z"/></g>
<g fill="red" transform="translate(1000 200) scale(0.1 -0.1)"><path d="M0.0 0.0C5.0 -371.0 48.0 -797.0 208.0 -797.0C298.0 -797.0 342.0 -759.0 359.0 -577.0C322.0 -562.0 274.0 -531.0 245.0 -500.0C243.0 -604.0 236.0 -656.0 224.0 -656.0C186.0 -656.0 138.0 -304.0 144.0 0.0ZM-170.0 -224.0V-354.0H321.0V-224.0ZM215.0 139.0C95.0 102.0 -82.0 66.0 -245.0 44.0C-229.0 14.0 -210.0 -39.0 -205.0 -73.0C-37.0 -54.0 156.0 -23.0 312.0 20.0ZM-242.0 -809.0C-242.0 -758.0 -109.0 -706.0 -109.0 -706.0V44.0H-246.0V-603.0C-246.0 -643.0 -271.0 -664.0 -294.0 -675.0C-273.0 -707.0 -250.0 -771.0 -242.0 -809.0ZM-242.0 -809.0C-218.0 -787.0 -177.0 -765.0 30.0 -678.0C21.0 -648.0 10.0 -593.0 7.0 -555.0L-218.0 -640.0L-263.0 -682.0Z"/></g>
<g fill="black" opacity=".8" transform="translate(1000 200) scale(0.1 -0.1)"><path d="M0.0 0.0C3.0 -383.0 33.0 -795.0 198.0 -796.0C288.0 -796.0 332.0 -756.0 349.0 -577.0C312.0 -562.0 263.0 -530.0 233.0 -499.0C231.0 -599.0 224.0 -651.0 212.0 -651.0C175.0 -651.0 139.0 -310.0 148.0 0.0ZM-168.0 -224.0V-356.0H321.0V-224.0ZM208.0 135.0C89.0 98.0 -87.0 63.0 -249.0 42.0C-233.0 11.0 -213.0 -43.0 -208.0 -77.0C-41.0 -60.0 151.0 -30.0 304.0 14.0ZM-241.0 -803.0C-241.0 -752.0 -105.0 -682.0 -105.0 -682.0V40.0L-248.0 42.0V-588.0C-248.0 -636.0 -277.0 -665.0 -301.0 -680.0C-280.0 -709.0 -251.0 -770.0 -241.0 -803.0ZM-241.0 -803.0C-215.0 -785.0 -172.0 -767.0 39.0 -701.0C31.0 -671.0 23.0 -614.0 24.0 -574.0L-205.0 -634.0L-257.0 -678.0Z"/></g>
<g fill="red" transform="translate(1100 200) scale(0.1 -0.1)"><path d="M0.0 0.0C28.0 -230.0 110.0 -433.0 261.0 -436.0C294.0 -437.0 311.0 -401.0 322.0 -312.0C314.0 -310.0 304.0 -307.0 296.0 -300.0C290.0 -374.0 278.0 -407.0 258.0 -406.0C143.0 -403.0 53.0 -223.0 30.0 0.0ZM-217.0 -163.0V-193.0H317.0V-163.0ZM274.0 49.0C163.0 23.0 -54.0 3.0 -228.0 -7.0C-224.0 -15.0 -220.0 -25.0 -218.0 -33.0C-43.0 -24.0 173.0 -4.0 298.0 25.0ZM-241.0 -419.0C-241.0 -406.0 -198.0 -380.0 -198.0 -380.0V-13.0L-228.0 -7.0V-334.0C-228.0 -371.0 -246.0 -384.0 -257.0 -389.0C-251.0 -397.0 -244.0 -411.0 -241.0 -419.0ZM-241.0 -419.0C-227.0 -410.0 -202.0 -404.0 -3.0 -358.0C-3.0 -352.0 -4.0 -339.0 -3.0 -330.0L-218.0 -375.0L-241.0 -391.0Z"/></g>
<g fill="black" opacity=".8" transform="translate(1100 200) scale(0.1 -0.1)"><path d="M0.0 0.0C28.0 -228.0 103.0 -431.0 258.0 -434.0C289.0 -436.0 307.0 -401.0 319.0 -314.0C310.0 -312.0 301.0 -307.0 293.0 -301.0C286.0 -373.0 274.0 -405.0 254.0 -404.0C135.0 -399.0 53.0 -221.0 30.0 0.0ZM-206.0 -160.0V-183.0H315.0V-160.0ZM272.0 49.0C160.0 24.0 -57.0 5.0 -229.0 -2.0C-225.0 -11.0 -220.0 -21.0 -218.0 -30.0C-46.0 -22.0 171.0 -4.0 295.0 24.0ZM-240.0 -414.0C-240.0 -401.0 -198.0 -374.0 -198.0 -374.0V-8.0L-230.0 -2.0V-327.0C-230.0 -366.0 -246.0 -379.0 -256.0 -385.0C-251.0 -393.0 -244.0 -406.0 -240.0 -414.0ZM-240.0 -414.0C-226.0 -406.0 -202.0 -400.0 3.0 -353.0C3.0 -346.0 2.0 -333.0 3.0 -324.0L-217.0 -370.0L-241.0 -386.0Z"/></g>
<g fill="red" transform="translate(1200 200) scale(0.1 -0.1)"><path d="M0.0 0.0C12.0 -238.0 74.0 -415.0 259.0 -422.0C306.0 -424.0 347.0 -394.0 374.0 -290.0C348.0 -277.0 305.0 -245.0 282.0 -219.0C277.0 -260.0 270.0 -282.0 256.0 -282.0C169.0 -277.0 136.0 -168.0 131.0 0.0ZM-129.0 -100.0V-213.0H343.0V-100.0ZM290.0 96.0C154.0 66.0 -45.0 48.0 -222.0 41.0C-209.0 11.0 -194.0 -34.0 -191.0 -66.0C-17.0 -63.0 190.0 -48.0 342.0 -16.0ZM-208.0 -427.0C-208.0 -386.0 -93.0 -319.0 -93.0 -319.0V12.0L-222.0 41.0V-251.0C-222.0 -296.0 -238.0 -319.0 -257.0 -332.0C-239.0 -351.0 -215.0 -400.0 -208.0 -427.0ZM-208.0 -427.0C-185.0 -414.0 -147.0 -403.0 26.0 -373.0C25.0 -344.0 28.0 -291.0 33.0 -255.0L-161.0 -281.0L-216.0 -320.0Z"/></g>
<g fill="black" opacity=".8" transform="translate(1200 200) scale(0.1 -0.1)"><path d="M0.0 0.0C14.0 -242.0 79.0 -422.0 256.0 -429.0C300.0 -431.0 342.0 -400.0 370.0 -295.0C344.0 -281.0 300.0 -247.0 277.0 -219.0C272.0 -259.0 264.0 -281.0 251.0 -280.0C177.0 -277.0 144.0 -170.0 137.0 0.0ZM-139.0 -107.0V-215.0H341.0V-107.0ZM277.0 86.0C147.0 56.0 -49.0 39.0 -223.0 32.0C-209.0 3.0 -194.0 -44.0 -191.0 -75.0C-17.0 -73.0 190.0 -59.0 342.0 -24.0ZM-221.0 -432.0C-221.0 -392.0 -91.0 -327.0 -91.0 -327.0V6.0L-223.0 32.0V-252.0C-223.0 -297.0 -248.0 -318.0 -270.0 -329.0C-251.0 -352.0 -228.0 -404.0 -221.0 -432.0ZM-221.0 -432.0C-198.0 -420.0 -159.0 -409.0 25.0 -376.0C23.0 -348.0 26.0 -296.0 33.0 -260.0L-175.0 -288.0L-229.0 -327.0Z"/></g>
<g fill="red" transform="translate(1300 200) scale(0.1 -0.1)"><path d="M0.0 0.0C20.0 -244.0 198.0 -426.0 360.0 -426.0C410.0 -425.0 428.0 -396.0 435.0 -304.0C425.0 -302.0 414.0 -296.0 407.0 -291.0C403.0 -369.0 393.0 -394.0 361.0 -395.0C218.0 -398.0 49.0 -235.0 30.0 0.0ZM-284.0 -597.0V-627.0H272.0V-597.0ZM288.0 50.0C153.0 23.0 -111.0 1.0 -318.0 -9.0C-314.0 -17.0 -310.0 -28.0 -309.0 -36.0C-100.0 -27.0 160.0 -5.0 308.0 25.0ZM-346.0 -422.0C-346.0 -408.0 -288.0 -378.0 -288.0 -378.0V-18.0L-318.0 -9.0V-333.0C-318.0 -370.0 -348.0 -387.0 -363.0 -392.0C-357.0 -400.0 -349.0 -413.0 -346.0 -422.0ZM-346.0 -422.0C-328.0 -411.0 -300.0 -404.0 -7.0 -345.0C-7.0 -339.0 -8.0 -326.0 -7.0 -317.0L-322.0 -377.0L-346.0 -393.0Z"/></g>
<g fill="black" opacity=".8" transform="translate(1300 200) scale(0.1 -0.1)"><path d="M0.0 0.0C20.0 -246.0 196.0 -427.0 359.0 -426.0C409.0 -425.0 428.0 -397.0 436.0 -304.0C425.0 -302.0 415.0 -294.0 407.0 -290.0C402.0 -368.0 393.0 -394.0 360.0 -395.0C215.0 -396.0 49.0 -237.0 30.0 0.0ZM-287.0 -598.0V-629.0H275.0V-598.0ZM291.0 53.0C155.0 25.0 -111.0 0.0 -319.0 -10.0C-315.0 -19.0 -310.0 -30.0 -309.0 -39.0C-100.0 -28.0 163.0 -5.0 312.0 27.0ZM-348.0 -422.0C-348.0 -408.0 -288.0 -378.0 -288.0 -378.0V-20.0L-320.0 -10.0V-331.0C-320.0 -370.0 -350.0 -386.0 -364.0 -392.0C-359.0 -400.0 -352.0 -413.0 -348.0 -422.0ZM-348.0 -422.0C-330.0 -411.0 -303.0 -405.0 -8.0 -346.0C-8.0 -339.0 -9.0 -326.0 -7.0 -318.0L-323.0 -376.0L-349.0 -393.0Z"/></g>
<g fill="red" transform="translate(1400 200) scale(0.1 -0.1)"><path d="M0.0 0.0C24.0 -246.0 170.0 -424.0 341.0 -425.0C432.0 -425.0 475.0 -401.0 495.0 -274.0C459.0 -264.0 412.0 -242.0 383.0 -216.0C378.0 -271.0 371.0 -289.0 347.0 -289.0C264.0 -290.0 162.0 -156.0 143.0 0.0ZM-215.0 -558.0V-658.0H276.0V-558.0ZM367.0 114.0C186.0 84.0 -87.0 67.0 -327.0 62.0C-315.0 33.0 -300.0 -15.0 -298.0 -48.0C-61.0 -46.0 220.0 -31.0 425.0 2.0ZM-351.0 -412.0C-351.0 -369.0 -178.0 -311.0 -178.0 -311.0V37.0L-327.0 62.0V-233.0C-327.0 -277.0 -366.0 -295.0 -393.0 -304.0C-376.0 -327.0 -356.0 -381.0 -351.0 -412.0ZM-351.0 -412.0C-319.0 -397.0 -270.0 -388.0 17.0 -354.0C14.0 -326.0 14.0 -276.0 17.0 -241.0L-294.0 -271.0L-356.0 -310.0Z"/></g>
<g fill="black" opacity=".8" transform="translate(1400 200) scale(0.1 -0.1)"><path d="M0.0 0.0C22.0 -249.0 165.0 -423.0 339.0 -425.0C431.0 -424.0 473.0 -400.0 493.0 -274.0C456.0 -264.0 410.0 -242.0 380.0 -216.0C376.0 -271.0 369.0 -288.0 344.0 -288.0C260.0 -289.0 161.0 -158.0 144.0 0.0ZM-215.0 -558.0V-657.0H274.0V-558.0ZM364.0 113.0C184.0 83.0 -88.0 67.0 -327.0 63.0C-314.0 33.0 -299.0 -15.0 -298.0 -48.0C-60.0 -47.0 219.0 -33.0 423.0 1.0ZM-351.0 -411.0C-351.0 -369.0 -177.0 -311.0 -177.0 -311.0V33.0L-327.0 63.0V-233.0C-327.0 -278.0 -365.0 -295.0 -393.0 -305.0C-376.0 -327.0 -356.0 -382.0 -351.0 -411.0ZM-351.0 -411.0C-319.0 -397.0 -271.0 -389.0 17.0 -353.0C13.0 -327.0 12.0 -276.0 14.0 -241.0L-294.0 -270.0L-356.0 -309.0Z"/></g>
<g fill="red" transform="translate(1500 200) scale(0.1 -0.1)"><path d="M0.0 0.0C23.0 -230.0 94.0 -433.0 230.0 -436.0C261.0 -437.0 277.0 -403.0 287.0 -314.0C279.0 -312.0 269.0 -307.0 261.0 -302.0C257.0 -374.0 245.0 -406.0 227.0 -405.0C125.0 -403.0 49.0 -224.0 29.0 0.0ZM-197.0 -160.0V-190.0H271.0V-160.0ZM238.0 50.0C138.0 27.0 -58.0 8.0 -214.0 0.0C-210.0 -8.0 -206.0 -18.0 -204.0 -26.0C-46.0 -18.0 149.0 -1.0 262.0 26.0ZM-227.0 -420.0C-227.0 -406.0 -184.0 -381.0 -184.0 -381.0V-5.0L-214.0 0.0V-335.0C-214.0 -372.0 -232.0 -385.0 -243.0 -390.0C-237.0 -398.0 -229.0 -412.0 -227.0 -420.0ZM-227.0 -420.0C-213.0 -411.0 -188.0 -404.0 16.0 -357.0C16.0 -352.0 15.0 -339.0 16.0 -330.0L-204.0 -376.0L-227.0 -392.0Z"/></g>
<g fill="black" opacity=".8" transform="translate(1500 200) scale(0.1 -0.1)"><path d="M0.0 0.0C25.0 -233.0 98.0 -435.0 239.0 -437.0C269.0 -438.0 286.0 -404.0 296.0 -318.0C288.0 -316.0 279.0 -311.0 272.0 -306.0C265.0 -378.0 254.0 -410.0 236.0 -409.0C128.0 -405.0 48.0 -227.0 28.0 0.0ZM-208.0 -163.0V-197.0H281.0V-163.0ZM246.0 47.0C143.0 24.0 -55.0 4.0 -213.0 -4.0C-210.0 -12.0 -205.0 -22.0 -204.0 -30.0C-44.0 -21.0 153.0 -3.0 268.0 23.0ZM-224.0 -421.0C-224.0 -408.0 -185.0 -384.0 -185.0 -384.0V-9.0L-214.0 -4.0V-340.0C-214.0 -376.0 -230.0 -388.0 -239.0 -394.0C-235.0 -401.0 -227.0 -414.0 -224.0 -421.0ZM-224.0 -421.0C-211.0 -413.0 -189.0 -407.0 10.0 -360.0C10.0 -353.0 9.0 -341.0 10.0 -333.0L-203.0 -379.0L-225.0 -395.0Z"/></g>
<g fill="red" transform="translate(1600 200) scale(0.1 -0.1)"><path d="M0.0 0.0C16.0 -239.0 83.0 -429.0 234.0 -432.0C276.0 -433.0 316.0 -404.0 342.0 -300.0C317.0 -287.0 275.0 -254.0 254.0 -228.0C249.0 -268.0 242.0 -290.0 231.0 -290.0C177.0 -288.0 139.0 -170.0 130.0 0.0ZM-160.0 -112.0V-225.0H318.0V-112.0ZM240.0 88.0C126.0 58.0 -56.0 38.0 -218.0 30.0C-205.0 3.0 -189.0 -44.0 -185.0 -73.0C-18.0 -68.0 180.0 -50.0 325.0 -13.0ZM-218.0 -438.0C-218.0 -398.0 -89.0 -340.0 -89.0 -340.0V4.0L-218.0 30.0V-266.0C-218.0 -308.0 -241.0 -327.0 -262.0 -337.0C-245.0 -359.0 -224.0 -409.0 -218.0 -438.0ZM-218.0 -438.0C-194.0 -425.0 -156.0 -414.0 31.0 -383.0C30.0 -355.0 33.0 -305.0 38.0 -270.0L-172.0 -299.0L-225.0 -337.0Z"/></g>
<g fill="black" opacity=".8" transform="translate(1600 200) scale(0.1 -0.1)"><path d="M0.0 0.0C12.0 -236.0 70.0 -424.0 232.0 -430.0C277.0 -431.0 316.0 -402.0 341.0 -298.0C316.0 -285.0 275.0 -254.0 253.0 -227.0C249.0 -270.0 242.0 -293.0 230.0 -292.0C165.0 -289.0 133.0 -169.0 127.0 0.0ZM-154.0 -107.0V-222.0H309.0V-107.0ZM250.0 88.0C130.0 59.0 -52.0 41.0 -214.0 33.0C-201.0 6.0 -186.0 -39.0 -183.0 -67.0C-21.0 -64.0 171.0 -49.0 313.0 -15.0ZM-211.0 -433.0C-211.0 -395.0 -89.0 -334.0 -89.0 -334.0V11.0L-213.0 33.0V-262.0C-213.0 -303.0 -237.0 -324.0 -257.0 -334.0C-239.0 -357.0 -218.0 -407.0 -211.0 -433.0ZM-211.0 -433.0C-189.0 -421.0 -152.0 -411.0 27.0 -377.0C25.0 -351.0 27.0 -303.0 33.0 -269.0L-168.0 -298.0L-219.0 -335.0Z"/></g>
<g fill="red" transform="translate(100 300) scale(0.1 -0.1)"><path d="M0.0 0.0C24.0 -253.0 224.0 -460.0 376.0 -460.0C424.0 -460.0 442.0 -427.0 449.0 -324.0C440.0 -322.0 429.0 -317.0 421.0 -310.0C417.0 -399.0 408.0 -431.0 376.0 -431.0C242.0 -434.0 51.0 -247.0 29.0 0.0ZM-438.0 -562.0V-592.0H440.0V-562.0ZM282.0 46.0C147.0 19.0 -117.0 -3.0 -323.0 -13.0C-319.0 -21.0 -316.0 -32.0 -315.0 -40.0C-106.0 -31.0 154.0 -9.0 302.0 21.0ZM-336.0 -454.0C-336.0 -440.0 -294.0 -410.0 -294.0 -410.0V-13.0H-323.0V-365.0C-323.0 -403.0 -343.0 -419.0 -354.0 -425.0C-348.0 -433.0 -339.0 -446.0 -336.0 -454.0ZM-336.0 -454.0C-318.0 -444.0 -290.0 -436.0 0.0 -370.0C-1.0 -363.0 -2.0 -350.0 -1.0 -342.0L-313.0 -408.0L-336.0 -426.0Z"/></g>
<g fill="black" opacity=".8" transform="translate(100 300) scale(0.1 -0.1)"><path d="M0.0 0.0C25.0 -250.0 227.0 -461.0 378.0 -460.0C424.0 -459.0 441.0 -428.0 449.0 -325.0C439.0 -323.0 429.0 -317.0 422.0 -311.0C417.0 -400.0 408.0 -433.0 377.0 -433.0C243.0 -434.0 51.0 -244.0 28.0 0.0ZM-433.0 -561.0V-591.0H436.0V-561.0ZM281.0 44.0C145.0 18.0 -118.0 -3.0 -322.0 -11.0C-318.0 -19.0 -316.0 -30.0 -315.0 -38.0C-108.0 -30.0 152.0 -10.0 299.0 19.0ZM-333.0 -453.0C-333.0 -440.0 -294.0 -409.0 -294.0 -409.0V-11.0H-323.0V-366.0C-323.0 -403.0 -341.0 -420.0 -351.0 -427.0C-345.0 -434.0 -337.0 -446.0 -333.0 -453.0ZM-333.0 -453.0C-315.0 -444.0 -290.0 -436.0 0.0 -369.0C-1.0 -362.0 -2.0 -349.0 0.0 -342.0L-311.0 -409.0L-334.0 -426.0Z"/></g>
<g fill="red" transform="translate(200 300) scale(0.1 -0.1)"><path d="M0.0 0.0C23.0 -266.0 174.0 -474.0 352.0 -474.0C441.0 -474.0 482.0 -450.0 501.0 -323.0C468.0 -313.0 423.0 -291.0 396.0 -267.0C391.0 -327.0 383.0 -347.0 358.0 -347.0C265.0 -348.0 151.0 -186.0 134.0 0.0ZM-436.0 -512.0V-638.0H492.0V-512.0ZM323.0 100.0C151.0 71.0 -109.0 54.0 -337.0 49.0C-325.0 21.0 -311.0 -26.0 -309.0 -58.0C-82.0 -56.0 186.0 -41.0 382.0 -9.0ZM-328.0 -467.0C-328.0 -419.0 -193.0 -335.0 -193.0 -335.0V49.0H-337.0V-256.0C-337.0 -306.0 -367.0 -339.0 -391.0 -355.0C-369.0 -379.0 -338.0 -435.0 -328.0 -467.0ZM-328.0 -467.0C-296.0 -451.0 -248.0 -441.0 41.0 -399.0C37.0 -372.0 36.0 -321.0 38.0 -286.0L-274.0 -324.0L-335.0 -364.0Z"/></g>
<g fill="black" opacity=".8" transform="translate(200 300) scale(0.1 -0.1)"><path d="M0.0 0.0C24.0 -262.0 178.0 -474.0 355.0 -474.0C443.0 -474.0 484.0 -450.0 503.0 -324.0C470.0 -313.0 426.0 -291.0 398.0 -268.0C394.0 -328.0 386.0 -348.0 360.0 -347.0C268.0 -349.0 152.0 -184.0 133.0 0.0ZM-437.0 -513.0V-638.0H492.0V-513.0ZM326.0 100.0C152.0 71.0 -109.0 55.0 -338.0 49.0C-325.0 21.0 -312.0 -27.0 -310.0 -57.0C-81.0 -55.0 186.0 -41.0 385.0 -9.0ZM-328.0 -467.0C-328.0 -420.0 -196.0 -335.0 -196.0 -335.0V51.0L-337.0 49.0V-257.0C-337.0 -305.0 -367.0 -338.0 -392.0 -355.0C-369.0 -379.0 -339.0 -436.0 -328.0 -467.0ZM-328.0 -467.0C-295.0 -451.0 -247.0 -442.0 41.0 -399.0C37.0 -373.0 36.0 -322.0 40.0 -287.0L-273.0 -323.0L-335.0 -364.0Z"/></g>
<g fill="red" transform="translate(300 300) scale(0.1 -0.1)"><path d="M0.0 0.0C32.0 -229.0 122.0 -432.0 284.0 -436.0C319.0 -437.0 336.0 -400.0 347.0 -311.0C338.0 -309.0 329.0 -305.0 322.0 -299.0C315.0 -374.0 302.0 -407.0 281.0 -406.0C154.0 -402.0 57.0 -223.0 30.0 0.0ZM-217.0 -163.0V-193.0H334.0V-163.0ZM302.0 46.0C184.0 21.0 -46.0 2.0 -228.0 -7.0C-225.0 -15.0 -220.0 -25.0 -219.0 -33.0C-34.0 -25.0 194.0 -7.0 327.0 22.0ZM-241.0 -419.0C-241.0 -406.0 -199.0 -380.0 -199.0 -380.0V-13.0L-228.0 -7.0V-334.0C-228.0 -371.0 -247.0 -384.0 -258.0 -389.0C-252.0 -397.0 -244.0 -411.0 -241.0 -419.0ZM-241.0 -419.0C-225.0 -409.0 -199.0 -403.0 46.0 -347.0C45.0 -340.0 44.0 -327.0 45.0 -319.0L-218.0 -374.0L-241.0 -391.0Z"/></g>
<g fill="black" opacity=".8" transform="translate(300 300) scale(0.1 -0.1)"><path d="M0.0 0.0C33.0 -226.0 126.0 -435.0 278.0 -438.0C311.0 -439.0 329.0 -400.0 341.0 -302.0C331.0 -301.0 321.0 -295.0 313.0 -289.0C306.0 -369.0 293.0 -407.0 274.0 -406.0C159.0 -401.0 60.0 -218.0 33.0 0.0ZM-221.0 -164.0V-197.0H330.0V-164.0ZM291.0 54.0C174.0 29.0 -48.0 5.0 -230.0 -8.0C-227.0 -17.0 -221.0 -27.0 -219.0 -36.0C-35.0 -24.0 186.0 -2.0 321.0 28.0ZM-246.0 -422.0C-246.0 -407.0 -198.0 -382.0 -198.0 -382.0V-15.0L-230.0 -8.0V-332.0C-230.0 -371.0 -251.0 -384.0 -263.0 -390.0C-257.0 -398.0 -250.0 -413.0 -246.0 -422.0ZM-246.0 -422.0C-230.0 -412.0 -203.0 -406.0 43.0 -354.0C42.0 -346.0 41.0 -333.0 43.0 -324.0L-222.0 -375.0L-247.0 -392.0Z"/></g>
<g fill="red" transform="translate(400 300) scale(0.1 -0.1)"><path d="M0.0 0.0C11.0 -239.0 71.0 -415.0 252.0 -422.0C300.0 -424.0 345.0 -394.0 374.0 -282.0C346.0 -268.0 299.0 -233.0 275.0 -203.0C269.0 -244.0 262.0 -267.0 249.0 -266.0C174.0 -261.0 148.0 -158.0 144.0 0.0ZM-167.0 -98.0V-211.0H337.0V-98.0ZM296.0 95.0C150.0 66.0 -65.0 48.0 -253.0 43.0C-241.0 13.0 -226.0 -33.0 -224.0 -65.0C-38.0 -64.0 184.0 -49.0 345.0 -18.0ZM-259.0 -426.0C-259.0 -383.0 -113.0 -321.0 -113.0 -321.0V15.0L-253.0 43.0V-238.0C-253.0 -281.0 -283.0 -302.0 -307.0 -313.0C-288.0 -338.0 -266.0 -394.0 -259.0 -426.0ZM-259.0 -426.0C-233.0 -412.0 -192.0 -401.0 26.0 -365.0C25.0 -338.0 28.0 -288.0 33.0 -254.0L-212.0 -289.0L-266.0 -326.0Z"/></g>
<g fill="black" opacity=".8" transform="translate(400 300) scale(0.1 -0.1)"><path d="M0.0 0.0C14.0 -238.0 81.0 -412.0 259.0 -419.0C304.0 -421.0 348.0 -390.0 377.0 -283.0C349.0 -269.0 305.0 -234.0 281.0 -204.0C276.0 -242.0 268.0 -264.0 255.0 -263.0C181.0 -259.0 149.0 -160.0 142.0 0.0ZM-164.0 -93.0V-212.0H346.0V-93.0ZM293.0 112.0C152.0 80.0 -63.0 60.0 -252.0 52.0C-238.0 22.0 -221.0 -28.0 -219.0 -60.0C-28.0 -57.0 198.0 -40.0 362.0 -2.0ZM-255.0 -426.0C-255.0 -383.0 -108.0 -323.0 -108.0 -323.0V17.0L-252.0 52.0V-238.0C-252.0 -281.0 -279.0 -300.0 -303.0 -310.0C-283.0 -336.0 -262.0 -394.0 -255.0 -426.0ZM-255.0 -426.0C-229.0 -413.0 -186.0 -403.0 33.0 -370.0C32.0 -342.0 37.0 -289.0 44.0 -253.0L-203.0 -282.0L-262.0 -322.0Z"/></g>
<g fill="red" transform="translate(500 300) scale(0.1 -0.1)"><path d="M0.0 0.0C6.0 -381.0 85.0 -637.0 250.0 -637.0C301.0 -637.0 317.0 -603.0 323.0 -499.0C315.0 -497.0 304.0 -492.0 296.0 -486.0C293.0 -578.0 283.0 -607.0 251.0 -607.0C113.0 -608.0 33.0 -384.0 29.0 0.0ZM-256.0 -262.0V-292.0H292.0V-262.0ZM220.0 52.0C113.0 20.0 -105.0 -2.0 -269.0 -12.0C-265.0 -20.0 -261.0 -31.0 -259.0 -39.0C-95.0 -30.0 123.0 -8.0 237.0 26.0ZM-283.0 -636.0C-283.0 -622.0 -241.0 -592.0 -241.0 -592.0V-12.0H-270.0V-546.0C-270.0 -585.0 -290.0 -600.0 -300.0 -606.0C-294.0 -614.0 -286.0 -628.0 -283.0 -636.0ZM-283.0 -636.0C-268.0 -625.0 -245.0 -616.0 -34.0 -551.0C-35.0 -545.0 -37.0 -532.0 -37.0 -523.0L-261.0 -588.0L-284.0 -606.0Z"/></g>
<g fill="black" opacity=".8" transform="translate(500 300) scale(0.1 -0.1)"><path d="M0.0 0.0C10.0 -372.0 101.0 -642.0 254.0 -642.0C300.0 -642.0 316.0 -606.0 324.0 -501.0C316.0 -498.0 305.0 -493.0 297.0 -487.0C292.0 -580.0 282.0 -613.0 254.0 -612.0C129.0 -611.0 37.0 -374.0 29.0 0.0ZM-254.0 -261.0V-294.0H294.0V-261.0ZM218.0 53.0C110.0 23.0 -104.0 0.0 -268.0 -8.0C-264.0 -17.0 -259.0 -29.0 -258.0 -37.0C-94.0 -28.0 120.0 -5.0 235.0 26.0ZM-280.0 -634.0C-280.0 -621.0 -238.0 -591.0 -238.0 -591.0V-9.0L-269.0 -8.0V-544.0C-269.0 -584.0 -287.0 -599.0 -297.0 -606.0C-292.0 -614.0 -283.0 -627.0 -280.0 -634.0ZM-280.0 -634.0C-266.0 -625.0 -244.0 -616.0 -39.0 -554.0C-40.0 -548.0 -41.0 -534.0 -41.0 -525.0L-258.0 -587.0L-282.0 -605.0Z"/></g>
<g fill="red" transform="translate(600 300) scale(0.1 -0.1)"><path d="M0.0 0.0C7.0 -338.0 69.0 -645.0 242.0 -645.0C330.0 -646.0 373.0 -612.0 390.0 -456.0C355.0 -444.0 308.0 -417.0 279.0 -390.0C276.0 -472.0 268.0 -511.0 252.0 -511.0C192.0 -511.0 139.0 -261.0 141.0 0.0ZM-191.0 -206.0V-331.0H354.0V-206.0ZM245.0 85.0C118.0 54.0 -70.0 30.0 -239.0 18.0C-225.0 -10.0 -210.0 -57.0 -206.0 -89.0C-36.0 -81.0 164.0 -61.0 315.0 -26.0ZM-231.0 -643.0C-231.0 -597.0 -106.0 -519.0 -106.0 -519.0V18.0H-239.0V-443.0C-239.0 -492.0 -267.0 -524.0 -290.0 -540.0C-270.0 -562.0 -240.0 -614.0 -231.0 -643.0ZM-231.0 -643.0C-206.0 -626.0 -166.0 -610.0 39.0 -555.0C32.0 -526.0 25.0 -474.0 24.0 -437.0L-194.0 -488.0L-244.0 -528.0Z"/></g>
<g fill="black" opacity=".8" transform="translate(600 300) scale(0.1 -0.1)"><path d="M0.0 0.0C11.0 -330.0 82.0 -643.0 249.0 -645.0C330.0 -644.0 372.0 -610.0 390.0 -459.0C357.0 -446.0 310.0 -418.0 282.0 -390.0C280.0 -470.0 271.0 -508.0 256.0 -508.0C202.0 -508.0 143.0 -257.0 140.0 0.0ZM-189.0 -204.0V-332.0H350.0V-204.0ZM236.0 89.0C112.0 59.0 -73.0 34.0 -240.0 22.0C-225.0 -7.0 -209.0 -57.0 -205.0 -88.0C-35.0 -80.0 163.0 -61.0 315.0 -23.0ZM-229.0 -644.0C-229.0 -598.0 -107.0 -518.0 -107.0 -518.0V23.0L-240.0 22.0V-441.0C-240.0 -491.0 -267.0 -523.0 -290.0 -539.0C-270.0 -563.0 -239.0 -616.0 -229.0 -644.0ZM-229.0 -644.0C-205.0 -628.0 -164.0 -613.0 30.0 -560.0C23.0 -531.0 17.0 -476.0 19.0 -437.0L-190.0 -483.0L-242.0 -525.0Z"/></g>
<g fill="red" transform="translate(700 300) scale(0.1 -0.1)"><path d="M0.0 0.0C6.0 -485.0 65.0 -826.0 196.0 -826.0C244.0 -826.0 257.0 -779.0 263.0 -643.0C256.0 -641.0 244.0 -636.0 236.0 -631.0C232.0 -749.0 222.0 -796.0 198.0 -796.0C97.0 -796.0 31.0 -497.0 30.0 0.0ZM-222.0 -329.0V-358.0H232.0V-329.0ZM184.0 61.0C90.0 31.0 -91.0 2.0 -240.0 -17.0C-236.0 -24.0 -231.0 -35.0 -229.0 -42.0C-78.0 -25.0 101.0 4.0 210.0 38.0ZM-256.0 -831.0C-256.0 -819.0 -211.0 -794.0 -211.0 -794.0V-17.0H-240.0V-748.0C-240.0 -784.0 -260.0 -796.0 -271.0 -801.0C-265.0 -809.0 -259.0 -824.0 -256.0 -831.0ZM-256.0 -831.0C-241.0 -820.0 -217.0 -810.0 -6.0 -737.0C-7.0 -730.0 -9.0 -718.0 -10.0 -710.0L-235.0 -782.0L-257.0 -801.0Z"/></g>
<g fill="black" opacity=".8" transform="translate(700 300) scale(0.1 -0.1)"><path d="M0.0 0.0C5.0 -485.0 69.0 -827.0 200.0 -827.0C249.0 -826.0 263.0 -781.0 269.0 -647.0C260.0 -646.0 249.0 -639.0 241.0 -634.0C236.0 -750.0 227.0 -796.0 202.0 -797.0C100.0 -795.0 30.0 -496.0 30.0 0.0ZM-211.0 -323.0V-352.0H234.0V-323.0ZM175.0 61.0C84.0 29.0 -90.0 -0.0 -231.0 -20.0C-228.0 -28.0 -222.0 -38.0 -221.0 -46.0C-77.0 -28.0 95.0 3.0 199.0 36.0ZM-251.0 -827.0C-251.0 -814.0 -203.0 -787.0 -203.0 -787.0V-21.0L-232.0 -20.0V-740.0C-232.0 -778.0 -255.0 -792.0 -267.0 -799.0C-262.0 -806.0 -254.0 -820.0 -251.0 -827.0ZM-251.0 -827.0C-237.0 -817.0 -214.0 -807.0 5.0 -732.0C4.0 -726.0 2.0 -713.0 1.0 -704.0L-230.0 -778.0L-253.0 -797.0Z"/></g>
<g fill="red" transform="translate(800 300) scale(0.1 -0.1)"><path d="M0.0 0.0C1.0 -382.0 9.0 -790.0 171.0 -790.0C258.0 -790.0 300.0 -751.0 316.0 -576.0C280.0 -562.0 232.0 -530.0 203.0 -500.0C202.0 -597.0 196.0 -649.0 186.0 -649.0C152.0 -649.0 133.0 -309.0 144.0 0.0ZM-148.0 -228.0V-362.0H294.0V-228.0ZM192.0 139.0C80.0 102.0 -86.0 67.0 -238.0 45.0C-223.0 15.0 -203.0 -38.0 -198.0 -71.0C-40.0 -52.0 143.0 -22.0 290.0 20.0ZM-222.0 -811.0C-222.0 -762.0 -101.0 -683.0 -101.0 -683.0V45.0H-238.0V-607.0C-238.0 -656.0 -261.0 -688.0 -283.0 -705.0C-263.0 -727.0 -232.0 -780.0 -222.0 -811.0ZM-222.0 -811.0C-197.0 -792.0 -157.0 -773.0 40.0 -707.0C33.0 -676.0 26.0 -621.0 25.0 -582.0L-190.0 -645.0L-239.0 -687.0Z"/></g>
<g fill="black" opacity=".8" transform="translate(800 300) scale(0.1 -0.1)"><path d="M0.0 0.0C1.0 -382.0 21.0 -801.0 177.0 -802.0C267.0 -801.0 309.0 -762.0 324.0 -583.0C287.0 -569.0 240.0 -539.0 211.0 -508.0C210.0 -610.0 204.0 -664.0 193.0 -663.0C162.0 -663.0 132.0 -312.0 143.0 0.0ZM-150.0 -233.0V-362.0H283.0V-233.0ZM189.0 134.0C79.0 98.0 -84.0 63.0 -234.0 41.0C-219.0 11.0 -199.0 -41.0 -195.0 -74.0C-38.0 -56.0 140.0 -26.0 285.0 18.0ZM-228.0 -809.0C-228.0 -760.0 -98.0 -694.0 -98.0 -694.0V40.0L-234.0 41.0V-604.0C-234.0 -649.0 -262.0 -676.0 -286.0 -690.0C-265.0 -718.0 -238.0 -777.0 -228.0 -809.0ZM-228.0 -809.0C-204.0 -792.0 -163.0 -773.0 36.0 -707.0C28.0 -678.0 20.0 -624.0 20.0 -585.0L-196.0 -645.0L-244.0 -687.0Z"/></g>
<g fill="red" transform="translate(900 300) scale(0.1 -0.1)"><path d="M0.0 0.0C5.0 -420.0 58.0 -700.0 172.0 -700.0C214.0 -700.0 228.0 -665.0 234.0 -566.0C226.0 -563.0 214.0 -558.0 207.0 -552.0C203.0 -639.0 195.0 -671.0 173.0 -671.0C90.0 -672.0 30.0 -428.0 29.0 0.0ZM-201.0 -270.0V-299.0H223.0V-270.0ZM157.0 51.0C74.0 19.0 -85.0 -8.0 -209.0 -27.0C-205.0 -35.0 -200.0 -45.0 -198.0 -52.0C-73.0 -37.0 86.0 -8.0 175.0 24.0ZM-222.0 -683.0C-222.0 -670.0 -180.0 -639.0 -180.0 -639.0V-27.0H-209.0V-594.0C-209.0 -632.0 -229.0 -648.0 -240.0 -654.0C-234.0 -662.0 -225.0 -676.0 -222.0 -683.0ZM-222.0 -683.0C-208.0 -674.0 -186.0 -666.0 2.0 -614.0C1.0 -608.0 -1.0 -594.0 0.0 -585.0L-200.0 -636.0L-223.0 -654.0Z"/></g>
<g fill="black" opacity=".8" transform="translate(900 300) scale(0.1 -0.1)"><path d="M0.0 0.0C5.0 -402.0 61.0 -689.0 178.0 -689.0C219.0 -689.0 231.0 -651.0 237.0 -540.0C230.0 -539.0 220.0 -533.0 214.0 -529.0C208.0 -625.0 201.0 -663.0 179.0 -663.0C87.0 -662.0 27.0 -410.0 25.0 0.0ZM-194.0 -270.0V-297.0H213.0V-270.0ZM158.0 50.0C77.0 24.0 -79.0 0.0 -203.0 -14.0C-200.0 -22.0 -195.0 -30.0 -195.0 -38.0C-68.0 -24.0 86.0 1.0 177.0 29.0ZM-217.0 -686.0C-217.0 -675.0 -179.0 -651.0 -179.0 -651.0V-15.0L-204.0 -14.0V-611.0C-204.0 -644.0 -222.0 -656.0 -231.0 -662.0C-227.0 -669.0 -221.0 -680.0 -217.0 -686.0ZM-217.0 -686.0C-205.0 -678.0 -186.0 -669.0 -5.0 -607.0C-6.0 -601.0 -8.0 -591.0 -8.0 -583.0L-200.0 -644.0L-219.0 -661.0Z"/></g>
<g fill="red" transform="translate(1000 300) scale(0.1 -0.1)"><path d="M0.0 0.0C1.0 -348.0 15.0 -670.0 155.0 -670.0C231.0 -670.0 268.0 -635.0 282.0 -485.0C251.0 -474.0 209.0 -448.0 183.0 -422.0C182.0 -501.0 176.0 -545.0 166.0 -545.0C136.0 -545.0 120.0 -278.0 129.0 0.0ZM-145.0 -196.0V-321.0H261.0V-196.0ZM162.0 107.0C68.0 74.0 -73.0 44.0 -201.0 27.0C-187.0 -1.0 -170.0 -47.0 -165.0 -77.0C-33.0 -63.0 121.0 -39.0 240.0 -1.0ZM-194.0 -679.0C-194.0 -633.0 -70.0 -556.0 -70.0 -556.0V27.0H-201.0V-480.0C-201.0 -529.0 -229.0 -561.0 -252.0 -576.0C-232.0 -599.0 -203.0 -650.0 -194.0 -679.0ZM-194.0 -679.0C-173.0 -664.0 -137.0 -649.0 21.0 -606.0C14.0 -577.0 7.0 -525.0 6.0 -488.0L-159.0 -525.0L-207.0 -564.0Z"/></g>
<g fill="black" opacity=".8" transform="translate(1000 300) scale(0.1 -0.1)"><path d="M0.0 0.0C2.0 -324.0 25.0 -673.0 164.0 -674.0C239.0 -673.0 275.0 -640.0 289.0 -490.0C258.0 -478.0 218.0 -451.0 193.0 -425.0C192.0 -510.0 185.0 -554.0 176.0 -553.0C144.0 -553.0 115.0 -264.0 123.0 0.0ZM-143.0 -199.0V-313.0H260.0V-199.0ZM169.0 106.0C73.0 76.0 -68.0 47.0 -199.0 29.0C-186.0 4.0 -169.0 -41.0 -165.0 -69.0C-30.0 -55.0 125.0 -31.0 249.0 6.0ZM-191.0 -679.0C-191.0 -637.0 -82.0 -577.0 -82.0 -577.0V30.0L-199.0 29.0V-501.0C-199.0 -541.0 -222.0 -566.0 -242.0 -578.0C-224.0 -602.0 -199.0 -652.0 -191.0 -679.0ZM-191.0 -679.0C-170.0 -664.0 -136.0 -648.0 30.0 -593.0C23.0 -568.0 17.0 -520.0 18.0 -486.0L-162.0 -536.0L-205.0 -573.0Z"/></g>
<g fill="red" transform="translate(1100 300) scale(0.1 -0.1)"><path d="M0.0 0.0C12.0 -183.0 114.0 -297.0 228.0 -297.0C268.0 -297.0 283.0 -275.0 289.0 -204.0C280.0 -201.0 270.0 -197.0 262.0 -190.0C259.0 -247.0 252.0 -266.0 229.0 -266.0C136.0 -268.0 40.0 -173.0 31.0 0.0ZM-194.0 -112.0V-142.0H252.0V-112.0ZM200.0 58.0C110.0 27.0 -65.0 -2.0 -208.0 -19.0C-204.0 -27.0 -199.0 -38.0 -197.0 -45.0C-53.0 -28.0 122.0 0.0 226.0 35.0ZM-234.0 -298.0C-234.0 -284.0 -178.0 -265.0 -178.0 -265.0V-28.0L-208.0 -19.0V-219.0C-208.0 -253.0 -234.0 -262.0 -249.0 -266.0C-243.0 -275.0 -237.0 -289.0 -234.0 -298.0ZM-234.0 -298.0C-219.0 -290.0 -195.0 -284.0 25.0 -248.0C24.0 -242.0 23.0 -229.0 23.0 -221.0L-212.0 -256.0L-234.0 -271.0Z"/></g>
<g fill="black" opacity=".8" transform="translate(1100 300) scale(0.1 -0.1)"><path d="M0.0 0.0C16.0 -170.0 131.0 -297.0 235.0 -296.0C269.0 -296.0 281.0 -274.0 288.0 -204.0C280.0 -203.0 272.0 -198.0 267.0 -194.0C263.0 -251.0 256.0 -273.0 236.0 -273.0C146.0 -273.0 37.0 -163.0 24.0 0.0ZM-182.0 -109.0V-141.0H238.0V-109.0ZM194.0 41.0C105.0 20.0 -67.0 -1.0 -204.0 -11.0C-202.0 -19.0 -197.0 -26.0 -196.0 -33.0C-58.0 -22.0 112.0 -2.0 213.0 22.0ZM-220.0 -299.0C-220.0 -287.0 -181.0 -269.0 -181.0 -269.0V-16.0L-205.0 -11.0V-233.0C-205.0 -262.0 -223.0 -271.0 -232.0 -276.0C-229.0 -282.0 -224.0 -292.0 -220.0 -299.0ZM-220.0 -299.0C-208.0 -291.0 -188.0 -286.0 17.0 -245.0C16.0 -239.0 16.0 -230.0 17.0 -223.0L-203.0 -265.0L-222.0 -277.0Z"/></g>
<g fill="red" transform="translate(1200 300) scale(0.1 -0.1)"><path d="M0.0 0.0C8.0 -191.0 84.0 -289.0 190.0 -291.0C249.0 -291.0 278.0 -271.0 292.0 -184.0C267.0 -177.0 236.0 -161.0 216.0 -141.0C212.0 -173.0 207.0 -185.0 193.0 -186.0C158.0 -186.0 109.0 -120.0 106.0 0.0ZM-145.0 -60.0V-143.0H244.0V-60.0ZM177.0 76.0C85.0 54.0 -79.0 45.0 -216.0 42.0C-205.0 21.0 -195.0 -14.0 -192.0 -36.0C-50.0 -37.0 126.0 -26.0 242.0 1.0ZM-227.0 -289.0C-227.0 -253.0 -96.0 -207.0 -96.0 -207.0V7.0L-216.0 42.0V-142.0C-216.0 -182.0 -242.0 -196.0 -262.0 -204.0C-248.0 -221.0 -231.0 -264.0 -227.0 -289.0ZM-227.0 -289.0C-207.0 -278.0 -173.0 -270.0 28.0 -247.0C22.0 -227.0 17.0 -192.0 14.0 -167.0L-188.0 -185.0L-230.0 -213.0Z"/></g>
<g fill="black" opacity=".8" transform="translate(1200 300) scale(0.1 -0.1)"><path d="M0.0 0.0C14.0 -168.0 100.0 -282.0 205.0 -285.0C260.0 -285.0 289.0 -266.0 302.0 -183.0C278.0 -175.0 249.0 -159.0 229.0 -139.0C227.0 -175.0 222.0 -188.0 208.0 -188.0C167.0 -188.0 107.0 -107.0 98.0 0.0ZM-141.0 -58.0V-142.0H249.0V-58.0ZM205.0 81.0C99.0 60.0 -70.0 49.0 -216.0 45.0C-207.0 26.0 -197.0 -9.0 -195.0 -30.0C-47.0 -29.0 129.0 -19.0 256.0 7.0ZM-221.0 -285.0C-221.0 -253.0 -111.0 -206.0 -111.0 -206.0V29.0L-216.0 45.0V-146.0C-216.0 -180.0 -240.0 -196.0 -258.0 -205.0C-244.0 -222.0 -226.0 -263.0 -221.0 -285.0ZM-221.0 -285.0C-200.0 -276.0 -167.0 -269.0 28.0 -243.0C25.0 -225.0 24.0 -190.0 25.0 -166.0L-183.0 -187.0L-225.0 -215.0Z"/></g>
<g fill="red" transform="translate(1300 300) scale(0.1 -0.1)"><path d="M0.0 0.0C23.0 -230.0 94.0 -433.0 230.0 -436.0C260.0 -437.0 277.0 -403.0 287.0 -314.0C279.0 -312.0 269.0 -307.0 261.0 -302.0C256.0 -374.0 245.0 -406.0 227.0 -405.0C125.0 -403.0 49.0 -224.0 29.0 0.0ZM-572.0 -53.0V-684.0H-542.0V-53.0ZM238.0 50.0C138.0 27.0 -58.0 8.0 -214.0 0.0C-210.0 -8.0 -206.0 -18.0 -204.0 -26.0C-46.0 -18.0 149.0 -1.0 262.0 26.0ZM-227.0 -420.0C-227.0 -406.0 -185.0 -381.0 -185.0 -381.0V-5.0L-214.0 0.0V-335.0C-214.0 -372.0 -233.0 -385.0 -243.0 -390.0C-238.0 -398.0 -230.0 -412.0 -227.0 -420.0ZM-227.0 -420.0C-213.0 -411.0 -189.0 -404.0 15.0 -357.0C15.0 -352.0 14.0 -339.0 15.0 -330.0L-204.0 -376.0L-227.0 -392.0Z"/></g>
<g fill="black" opacity=".8" transform="translate(1300 300) scale(0.1 -0.1)"><path d="M0.0 0.0C24.0 -230.0 93.0 -433.0 230.0 -436.0C259.0 -437.0 277.0 -404.0 287.0 -314.0C278.0 -313.0 269.0 -306.0 261.0 -301.0C255.0 -374.0 244.0 -407.0 226.0 -406.0C124.0 -402.0 49.0 -224.0 30.0 0.0ZM-571.0 -53.0V-684.0H-542.0V-53.0ZM239.0 51.0C138.0 29.0 -58.0 8.0 -214.0 1.0C-211.0 -8.0 -206.0 -18.0 -204.0 -27.0C-46.0 -19.0 149.0 -1.0 263.0 26.0ZM-227.0 -419.0C-227.0 -406.0 -185.0 -380.0 -185.0 -380.0V-5.0L-215.0 1.0V-334.0C-215.0 -372.0 -233.0 -385.0 -243.0 -391.0C-238.0 -398.0 -231.0 -412.0 -227.0 -419.0ZM-227.0 -419.0C-213.0 -411.0 -191.0 -404.0 16.0 -358.0C15.0 -352.0 14.0 -339.0 15.0 -330.0L-205.0 -376.0L-228.0 -392.0Z"/></g>
<g fill="red" transform="translate(1400 300) scale(0.1 -0.1)"><path d="M0.0 0.0C16.0 -239.0 83.0 -429.0 233.0 -432.0C275.0 -433.0 315.0 -404.0 341.0 -300.0C316.0 -287.0 274.0 -254.0 253.0 -228.0C248.0 -268.0 241.0 -290.0 230.0 -290.0C177.0 -288.0 139.0 -170.0 130.0 0.0ZM-577.0 4.0V-689.0H-450.0V4.0ZM239.0 88.0C126.0 58.0 -56.0 38.0 -217.0 30.0C-204.0 3.0 -188.0 -44.0 -184.0 -73.0C-18.0 -68.0 180.0 -50.0 324.0 -13.0ZM-218.0 -438.0C-218.0 -398.0 -89.0 -340.0 -89.0 -340.0V4.0L-218.0 30.0V-266.0C-218.0 -308.0 -241.0 -327.0 -262.0 -337.0C-245.0 -359.0 -224.0 -409.0 -218.0 -438.0ZM-218.0 -438.0C-194.0 -425.0 -156.0 -414.0 30.0 -383.0C29.0 -355.0 32.0 -305.0 37.0 -270.0L-172.0 -299.0L-225.0 -337.0Z"/></g>
<g fill="black" opacity=".8" transform="translate(1400 300) scale(0.1 -0.1)"><path d="M0.0 0.0C15.0 -240.0 82.0 -428.0 233.0 -432.0C276.0 -433.0 315.0 -404.0 341.0 -301.0C315.0 -287.0 274.0 -254.0 253.0 -228.0C249.0 -269.0 240.0 -290.0 229.0 -290.0C177.0 -288.0 139.0 -170.0 130.0 0.0ZM-578.0 4.0V-689.0H-451.0V4.0ZM237.0 88.0C126.0 58.0 -57.0 38.0 -217.0 30.0C-204.0 3.0 -187.0 -45.0 -184.0 -73.0C-17.0 -68.0 179.0 -51.0 324.0 -13.0ZM-218.0 -438.0C-218.0 -398.0 -89.0 -340.0 -89.0 -340.0V3.0L-218.0 30.0V-266.0C-218.0 -308.0 -241.0 -326.0 -263.0 -337.0C-246.0 -359.0 -224.0 -410.0 -218.0 -438.0ZM-218.0 -438.0C-194.0 -426.0 -156.0 -415.0 30.0 -383.0C28.0 -356.0 32.0 -305.0 37.0 -271.0L-172.0 -298.0L-225.0 -337.0Z"/></g>
<g fill="red" transform="translate(1500 300) scale(0.1 -0.1)"><path d="M0.0 0.0C11.0 -369.0 127.0 -641.0 281.0 -641.0C330.0 -641.0 346.0 -606.0 353.0 -503.0C345.0 -500.0 333.0 -496.0 326.0 -490.0C322.0 -581.0 312.0 -611.0 282.0 -611.0C154.0 -612.0 37.0 -371.0 29.0 0.0ZM-264.0 -260.0V-290.0H323.0V-260.0ZM249.0 51.0C134.0 20.0 -102.0 1.0 -277.0 -6.0C-273.0 -14.0 -269.0 -25.0 -268.0 -33.0C-91.0 -27.0 143.0 -7.0 265.0 25.0ZM-290.0 -634.0C-290.0 -620.0 -248.0 -590.0 -248.0 -590.0V-6.0H-277.0V-545.0C-277.0 -583.0 -297.0 -598.0 -308.0 -604.0C-302.0 -612.0 -293.0 -626.0 -290.0 -634.0ZM-290.0 -634.0C-275.0 -623.0 -252.0 -614.0 -41.0 -549.0C-42.0 -543.0 -44.0 -530.0 -44.0 -521.0L-268.0 -586.0L-291.0 -604.0Z"/></g>
<g fill="black" opacity=".8" transform="translate(1500 300) scale(0.1 -0.1)"><path d="M0.0 0.0C12.0 -372.0 116.0 -645.0 276.0 -644.0C324.0 -644.0 341.0 -607.0 349.0 -498.0C340.0 -496.0 329.0 -490.0 321.0 -484.0C315.0 -579.0 305.0 -613.0 276.0 -612.0C145.0 -612.0 40.0 -373.0 31.0 0.0ZM-273.0 -262.0V-297.0H318.0V-262.0ZM233.0 55.0C119.0 24.0 -109.0 0.0 -283.0 -10.0C-279.0 -19.0 -274.0 -31.0 -273.0 -39.0C-98.0 -29.0 129.0 -5.0 252.0 28.0ZM-296.0 -637.0C-296.0 -623.0 -252.0 -592.0 -252.0 -592.0V-10.0H-284.0V-543.0C-284.0 -584.0 -304.0 -600.0 -314.0 -607.0C-309.0 -615.0 -300.0 -629.0 -296.0 -637.0ZM-296.0 -637.0C-281.0 -627.0 -258.0 -618.0 -35.0 -553.0C-36.0 -547.0 -37.0 -533.0 -37.0 -523.0L-274.0 -587.0L-298.0 -606.0Z"/></g>
<g fill="red" transform="translate(1600 300) scale(0.1 -0.1)"><path d="M0.0 0.0C11.0 -328.0 97.0 -645.0 261.0 -646.0C349.0 -646.0 391.0 -613.0 410.0 -457.0C375.0 -445.0 328.0 -418.0 300.0 -390.0C296.0 -473.0 288.0 -511.0 271.0 -511.0C215.0 -511.0 143.0 -253.0 140.0 0.0ZM-214.0 -206.0V-331.0H363.0V-206.0ZM254.0 76.0C118.0 47.0 -83.0 26.0 -263.0 17.0C-250.0 -12.0 -235.0 -60.0 -231.0 -91.0C-51.0 -86.0 162.0 -68.0 321.0 -35.0ZM-255.0 -644.0C-255.0 -598.0 -130.0 -520.0 -130.0 -520.0V17.0H-263.0V-444.0C-263.0 -493.0 -291.0 -525.0 -314.0 -541.0C-294.0 -563.0 -264.0 -615.0 -255.0 -644.0ZM-255.0 -644.0C-230.0 -627.0 -190.0 -611.0 15.0 -556.0C8.0 -527.0 1.0 -475.0 0.0 -438.0L-218.0 -489.0L-268.0 -529.0Z"/></g>
<g fill="black" opacity=".8" transform="translate(1600 300) scale(0.1 -0.1)"><path d="M0.0 0.0C13.0 -334.0 94.0 -644.0 266.0 -646.0C351.0 -646.0 394.0 -611.0 414.0 -458.0C379.0 -444.0 331.0 -416.0 302.0 -387.0C299.0 -466.0 290.0 -504.0 274.0 -504.0C216.0 -504.0 150.0 -257.0 146.0 0.0ZM-208.0 -201.0V-334.0H375.0V-201.0ZM252.0 94.0C119.0 63.0 -80.0 38.0 -259.0 27.0C-243.0 -4.0 -227.0 -55.0 -223.0 -88.0C-41.0 -80.0 171.0 -61.0 333.0 -21.0ZM-248.0 -645.0C-248.0 -597.0 -118.0 -514.0 -118.0 -514.0V27.0H-258.0V-433.0C-258.0 -486.0 -287.0 -519.0 -311.0 -535.0C-290.0 -560.0 -258.0 -616.0 -248.0 -645.0ZM-248.0 -645.0C-222.0 -629.0 -179.0 -613.0 33.0 -561.0C26.0 -530.0 21.0 -474.0 22.0 -434.0L-205.0 -480.0L-261.0 -523.0Z"/></g>
<g fill="red" transform="translate(100 400) scale(0.1 -0.1)"><path d="M0.0 0.0C23.0 -230.0 94.0 -433.0 230.0 -436.0C260.0 -437.0 277.0 -403.0 287.0 -314.0C279.0 -312.0 269.0 -307.0 261.0 -302.0C256.0 -374.0 245.0 -406.0 227.0 -405.0C125.0 -403.0 49.0 -224.0 29.0 0.0ZM-197.0 -160.0V-190.0H271.0V-160.0ZM238.0 50.0C138.0 27.0 -58.0 8.0 -214.0 0.0C-210.0 -8.0 -206.0 -18.0 -204.0 -26.0C-46.0 -18.0 149.0 -1.0 262.0 26.0ZM-227.0 -420.0C-227.0 -406.0 -185.0 -381.0 -185.0 -381.0V-5.0L-214.0 0.0V-335.0C-214.0 -372.0 -233.0 -385.0 -243.0 -390.0C-238.0 -398.0 -230.0 -412.0 -227.0 -420.0ZM-227.0 -420.0C-213.0 -411.0 -189.0 -404.0 15.0 -357.0C15.0 -352.0 14.0 -339.0 15.0 -330.0L-204.0 -376.0L-227.0 -392.0Z"/></g>
<g fill="black" opacity=".8" transform="translate(100 400) scale(0.1 -0.1)"><path d="M0.0 0.0C25.0 -233.0 98.0 -435.0 238.0 -437.0C269.0 -438.0 285.0 -404.0 296.0 -318.0C288.0 -316.0 279.0 -311.0 271.0 -306.0C265.0 -378.0 254.0 -410.0 235.0 -409.0C128.0 -405.0 48.0 -228.0 28.0 0.0ZM-208.0 -162.0V-197.0H279.0V-162.0ZM245.0 47.0C143.0 24.0 -55.0 4.0 -213.0 -4.0C-210.0 -12.0 -205.0 -22.0 -204.0 -30.0C-45.0 -21.0 153.0 -3.0 268.0 23.0ZM-224.0 -421.0C-224.0 -408.0 -185.0 -384.0 -185.0 -384.0V-9.0L-214.0 -4.0V-340.0C-214.0 -376.0 -230.0 -388.0 -239.0 -394.0C-235.0 -401.0 -228.0 -414.0 -224.0 -421.0ZM-224.0 -421.0C-211.0 -413.0 -189.0 -407.0 10.0 -360.0C9.0 -353.0 8.0 -341.0 9.0 -333.0L-203.0 -379.0L-225.0 -395.0Z"/></g>
<g fill="red" transform="translate(200 400) scale(0.1 -0.1)"><path d="M0.0 0.0C16.0 -239.0 83.0 -429.0 233.0 -432.0C275.0 -433.0 315.0 -404.0 341.0 -300.0C316.0 -287.0 274.0 -254.0 253.0 -228.0C248.0 -268.0 241.0 -290.0 230.0 -290.0C177.0 -288.0 139.0 -170.0 130.0 0.0ZM-160.0 -112.0V-225.0H316.0V-112.0ZM239.0 88.0C126.0 58.0 -56.0 38.0 -217.0 30.0C-204.0 3.0 -188.0 -44.0 -184.0 -73.0C-18.0 -68.0 180.0 -50.0 324.0 -13.0ZM-218.0 -438.0C-218.0 -398.0 -89.0 -340.0 -89.0 -340.0V4.0L-218.0 30.0V-266.0C-218.0 -308.0 -241.0 -327.0 -262.0 -337.0C-245.0 -359.0 -224.0 -409.0 -218.0 -438.0ZM-218.0 -438.0C-194.0 -425.0 -156.0 -414.0 30.0 -383.0C29.0 -355.0 32.0 -305.0 37.0 -270.0L-172.0 -299.0L-225.0 -337.0Z"/></g>
<g fill="black" opacity=".8" transform="translate(200 400) scale(0.1 -0.1)"><path d="M0.0 0.0C12.0 -236.0 70.0 -424.0 232.0 -430.0C277.0 -431.0 316.0 -402.0 341.0 -298.0C316.0 -284.0 275.0 -254.0 253.0 -228.0C249.0 -270.0 241.0 -293.0 229.0 -292.0C165.0 -289.0 133.0 -169.0 127.0 0.0ZM-153.0 -107.0V-222.0H308.0V-107.0ZM249.0 87.0C129.0 59.0 -52.0 41.0 -213.0 33.0C-201.0 6.0 -186.0 -39.0 -183.0 -67.0C-21.0 -64.0 171.0 -49.0 313.0 -15.0ZM-211.0 -433.0C-211.0 -395.0 -89.0 -334.0 -89.0 -334.0V11.0L-213.0 33.0V-262.0C-213.0 -303.0 -236.0 -324.0 -257.0 -335.0C-239.0 -357.0 -218.0 -407.0 -211.0 -433.0ZM-211.0 -433.0C-188.0 -421.0 -152.0 -411.0 27.0 -377.0C25.0 -351.0 26.0 -303.0 32.0 -269.0L-168.0 -298.0L-219.0 -335.0Z"/></g>
</svg>
