<?xml version="1.0" encoding="UTF-8"?>
<svg width="1700" height="300" xmlns="http://www.w3.org/2000/svg">
<rect width="100%" height="100%" fill="white"/>
<g fill="green" transform="translate(100 100) scale(0.1 -0.1)"><path d="M0.0 0.0V-30.0H192.0V-298.0H-9.0V-328.0H222.0V0.0ZM58.0 171.0V142.0H200.0V171.0ZM-36.0 -144.0V-175.0H291.0V-144.0ZM88.0 267.0C63.0 193.0 18.0 93.0 -47.0 15.0C-39.0 12.0 -29.0 6.0 -23.0 0.0C44.0 81.0 90.0 183.0 120.0 263.0ZM190.0 171.0V164.0C172.0 112.0 140.0 39.0 113.0 -5.0C121.0 -8.0 131.0 -13.0 137.0 -18.0C164.0 28.0 199.0 98.0 221.0 160.0L202.0 173.0L196.0 171.0ZM327.0 113.0 316.0 84.0H540.0V113.0ZM342.0 254.0C323.0 135.0 291.0 20.0 240.0 -58.0C248.0 -62.0 260.0 -73.0 265.0 -78.0C316.0 4.0 351.0 123.0 372.0 250.0ZM467.0 97.0C441.0 -105.0 375.0 -251.0 246.0 -341.0C254.0 -346.0 267.0 -357.0 270.0 -363.0C400.0 -265.0 469.0 -119.0 498.0 93.0ZM139.0 -436.0C151.0 -494.0 160.0 -569.0 161.0 -613.0L189.0 -607.0C188.0 -566.0 179.0 -492.0 166.0 -434.0ZM269.0 -436.0C294.0 -493.0 319.0 -568.0 327.0 -613.0L356.0 -604.0C347.0 -560.0 321.0 -486.0 295.0 -431.0ZM422.0 -428.0C459.0 -485.0 495.0 -564.0 510.0 -613.0L536.0 -599.0C522.0 -552.0 485.0 -476.0 448.0 -417.0ZM28.0 -415.0C10.0 -478.0 -23.0 -557.0 -55.0 -607.0L-24.0 -618.0C8.0 -565.0 38.0 -482.0 57.0 -421.0ZM313.0 -22.0C386.0 -123.0 476.0 -265.0 518.0 -349.0L545.0 -335.0C507.0 -254.0 416.0 -114.0 337.0 -12.0Z"/></g>
<g fill="green" transform="translate(200 100) scale(0.1 -0.1)"><path d="M0.0 0.0V-106.0H169.0V-297.0H5.0V-403.0H283.0V0.0ZM98.0 179.0V77.0H216.0V179.0ZM-27.0 -148.0V-253.0H325.0V-148.0ZM88.0 258.0C64.0 188.0 19.0 106.0 -50.0 44.0C-21.0 29.0 20.0 -5.0 41.0 -30.0C120.0 49.0 170.0 142.0 206.0 239.0ZM201.0 179.0V159.0C186.0 111.0 151.0 34.0 120.0 -14.0C145.0 -26.0 181.0 -49.0 202.0 -65.0C240.0 -12.0 289.0 71.0 318.0 136.0L243.0 184.0L226.0 179.0ZM373.0 124.0 325.0 3.0H603.0V124.0ZM359.0 251.0C343.0 137.0 313.0 25.0 262.0 -46.0C283.0 -71.0 317.0 -128.0 329.0 -153.0C401.0 -61.0 446.0 84.0 471.0 229.0ZM479.0 56.0C464.0 -125.0 416.0 -261.0 297.0 -337.0C317.0 -356.0 349.0 -401.0 359.0 -423.0C499.0 -326.0 559.0 -169.0 582.0 48.0ZM169.0 -456.0C181.0 -523.0 189.0 -612.0 189.0 -664.0L297.0 -648.0C295.0 -597.0 284.0 -511.0 270.0 -445.0ZM296.0 -449.0C319.0 -516.0 341.0 -605.0 347.0 -658.0L450.0 -637.0C443.0 -584.0 418.0 -498.0 393.0 -433.0ZM429.0 -445.0C460.0 -512.0 493.0 -601.0 504.0 -655.0L606.0 -615.0C592.0 -562.0 556.0 -476.0 524.0 -411.0ZM56.0 -425.0C35.0 -491.0 2.0 -575.0 -29.0 -626.0L77.0 -685.0C107.0 -622.0 144.0 -521.0 164.0 -447.0ZM335.0 -89.0C400.0 -184.0 482.0 -319.0 522.0 -399.0L616.0 -340.0C577.0 -266.0 492.0 -135.0 424.0 -42.0Z"/></g>
<g fill="green" transform="translate(300 100) scale(0.1 -0.1)"><path d="M0.0 0.0V-30.0H192.0V-298.0H-9.0V-328.0H222.0V0.0ZM58.0 171.0V142.0H200.0V171.0ZM-36.0 -144.0V-175.0H291.0V-144.0ZM88.0 267.0C63.0 193.0 18.0 93.0 -47.0 15.0C-39.0 12.0 -29.0 6.0 -23.0 0.0C44.0 81.0 90.0 183.0 120.0 263.0ZM190.0 171.0V164.0C172.0 112.0 140.0 39.0 113.0 -5.0C121.0 -8.0 131.0 -13.0 137.0 -18.0C164.0 28.0 199.0 98.0 221.0 160.0L202.0 173.0L196.0 171.0ZM327.0 113.0 316.0 84.0H540.0V113.0ZM342.0 254.0C323.0 135.0 291.0 20.0 240.0 -58.0C248.0 -62.0 260.0 -73.0 265.0 -78.0C316.0 4.0 351.0 123.0 372.0 250.0ZM467.0 97.0C441.0 -105.0 375.0 -251.0 246.0 -341.0C254.0 -346.0 267.0 -357.0 270.0 -363.0C400.0 -265.0 469.0 -119.0 498.0 93.0ZM139.0 -436.0C151.0 -494.0 160.0 -569.0 161.0 -613.0L189.0 -607.0C188.0 -566.0 179.0 -492.0 166.0 -434.0ZM269.0 -436.0C294.0 -493.0 319.0 -568.0 327.0 -613.0L356.0 -604.0C347.0 -560.0 321.0 -486.0 295.0 -431.0ZM422.0 -428.0C459.0 -485.0 495.0 -564.0 510.0 -613.0L536.0 -599.0C522.0 -552.0 485.0 -476.0 448.0 -417.0ZM28.0 -415.0C10.0 -478.0 -23.0 -557.0 -55.0 -607.0L-24.0 -618.0C8.0 -565.0 38.0 -482.0 57.0 -421.0ZM313.0 -22.0C386.0 -123.0 476.0 -265.0 518.0 -349.0L545.0 -335.0C507.0 -254.0 416.0 -114.0 337.0 -12.0Z"/></g>
<g fill="green" transform="translate(400 100) scale(0.1 -0.1)"><path d="M0.0 0.0V-106.0H169.0V-297.0H5.0V-403.0H283.0V0.0ZM98.0 179.0V77.0H216.0V179.0ZM-27.0 -148.0V-253.0H325.0V-148.0ZM88.0 258.0C64.0 188.0 19.0 106.0 -50.0 44.0C-21.0 29.0 20.0 -5.0 41.0 -30.0C120.0 49.0 170.0 142.0 206.0 239.0ZM201.0 179.0V159.0C186.0 111.0 151.0 34.0 120.0 -14.0C145.0 -26.0 181.0 -49.0 202.0 -65.0C240.0 -12.0 289.0 71.0 318.0 136.0L243.0 184.0L226.0 179.0ZM373.0 124.0 325.0 3.0H603.0V124.0ZM359.0 251.0C343.0 137.0 313.0 25.0 262.0 -46.0C283.0 -71.0 317.0 -128.0 329.0 -153.0C401.0 -61.0 446.0 84.0 471.0 229.0ZM479.0 56.0C464.0 -125.0 416.0 -261.0 297.0 -337.0C317.0 -356.0 349.0 -401.0 359.0 -423.0C499.0 -326.0 559.0 -169.0 582.0 48.0ZM169.0 -456.0C181.0 -523.0 189.0 -612.0 189.0 -664.0L297.0 -648.0C295.0 -597.0 284.0 -511.0 270.0 -445.0ZM296.0 -449.0C319.0 -516.0 341.0 -605.0 347.0 -658.0L450.0 -637.0C443.0 -584.0 418.0 -498.0 393.0 -433.0ZM429.0 -445.0C460.0 -512.0 493.0 -601.0 504.0 -655.0L606.0 -615.0C592.0 -562.0 556.0 -476.0 524.0 -411.0ZM56.0 -425.0C35.0 -491.0 2.0 -575.0 -29.0 -626.0L77.0 -685.0C107.0 -622.0 144.0 -521.0 164.0 -447.0ZM335.0 -89.0C400.0 -184.0 482.0 -319.0 522.0 -399.0L616.0 -340.0C577.0 -266.0 492.0 -135.0 424.0 -42.0Z"/></g>
<g fill="red" transform="translate(100 200) scale(0.1 -0.1)"><path d="M0.0 0.0V-30.0H192.0V-298.0H-9.0V-328.0H222.0V0.0ZM58.0 171.0V142.0H200.0V171.0ZM-36.0 -144.0V-175.0H291.0V-144.0ZM88.0 267.0C63.0 193.0 18.0 93.0 -47.0 15.0C-39.0 12.0 -29.0 6.0 -23.0 0.0C44.0 81.0 90.0 183.0 120.0 263.0ZM190.0 171.0V164.0C172.0 112.0 140.0 39.0 113.0 -5.0C121.0 -8.0 131.0 -13.0 137.0 -18.0C164.0 28.0 199.0 98.0 221.0 160.0L202.0 173.0L196.0 171.0ZM327.0 113.0 316.0 84.0H540.0V113.0ZM342.0 254.0C323.0 135.0 291.0 20.0 240.0 -58.0C248.0 -62.0 260.0 -73.0 265.0 -78.0C316.0 4.0 351.0 123.0 372.0 250.0ZM467.0 97.0C441.0 -105.0 375.0 -251.0 246.0 -341.0C254.0 -346.0 267.0 -357.0 270.0 -363.0C400.0 -265.0 469.0 -119.0 498.0 93.0ZM139.0 -436.0C151.0 -494.0 160.0 -569.0 161.0 -613.0L189.0 -607.0C188.0 -566.0 179.0 -492.0 166.0 -434.0ZM269.0 -436.0C294.0 -493.0 319.0 -568.0 327.0 -613.0L356.0 -604.0C347.0 -560.0 321.0 -486.0 295.0 -431.0ZM422.0 -428.0C459.0 -485.0 495.0 -564.0 510.0 -613.0L536.0 -599.0C522.0 -552.0 485.0 -476.0 448.0 -417.0ZM28.0 -415.0C10.0 -478.0 -23.0 -557.0 -55.0 -607.0L-24.0 -618.0C8.0 -565.0 38.0 -482.0 57.0 -421.0ZM313.0 -22.0C386.0 -123.0 476.0 -265.0 518.0 -349.0L545.0 -335.0C507.0 -254.0 416.0 -114.0 337.0 -12.0Z"/></g>
<g fill="black" opacity=".8" transform="translate(100 200) scale(0.1 -0.1)"><path d="M0.0 0.0V-30.0H192.0V-298.0H-9.0V-328.0H222.0V0.0ZM58.0 171.0V142.0H200.0V171.0ZM-36.0 -144.0V-175.0H291.0V-144.0ZM88.0 267.0C63.0 193.0 18.0 93.0 -47.0 15.0C-39.0 12.0 -29.0 6.0 -23.0 0.0C44.0 81.0 90.0 183.0 120.0 263.0ZM190.0 171.0V164.0C172.0 112.0 140.0 39.0 113.0 -5.0C121.0 -8.0 131.0 -13.0 137.0 -18.0C164.0 28.0 199.0 98.0 221.0 160.0L202.0 173.0L196.0 171.0ZM327.0 113.0 316.0 84.0H540.0V113.0ZM342.0 254.0C323.0 135.0 291.0 20.0 240.0 -58.0C248.0 -62.0 260.0 -73.0 265.0 -78.0C316.0 4.0 351.0 123.0 372.0 250.0ZM467.0 97.0C441.0 -105.0 375.0 -251.0 246.0 -341.0C254.0 -346.0 267.0 -357.0 270.0 -363.0C400.0 -265.0 469.0 -119.0 498.0 93.0ZM139.0 -436.0C151.0 -494.0 160.0 -569.0 161.0 -613.0L189.0 -607.0C188.0 -566.0 179.0 -492.0 166.0 -434.0ZM269.0 -436.0C294.0 -493.0 319.0 -568.0 327.0 -613.0L356.0 -604.0C347.0 -560.0 321.0 -486.0 295.0 -431.0ZM422.0 -428.0C459.0 -485.0 495.0 -564.0 510.0 -613.0L536.0 -599.0C522.0 -552.0 485.0 -476.0 448.0 -417.0ZM28.0 -415.0C10.0 -478.0 -23.0 -557.0 -55.0 -607.0L-24.0 -618.0C8.0 -565.0 38.0 -482.0 57.0 -421.0ZM313.0 -22.0C386.0 -123.0 476.0 -265.0 518.0 -349.0L545.0 -335.0C507.0 -254.0 416.0 -114.0 337.0 -12.0Z"/></g>
<g fill="red" transform="translate(200 200) scale(0.1 -0.1)"><path d="M0.0 0.0V-106.0H169.0V-297.0H5.0V-403.0H283.0V0.0ZM98.0 179.0V77.0H216.0V179.0ZM-27.0 -148.0V-253.0H325.0V-148.0ZM88.0 258.0C64.0 188.0 19.0 106.0 -50.0 44.0C-21.0 29.0 20.0 -5.0 41.0 -30.0C120.0 49.0 170.0 142.0 206.0 239.0ZM201.0 179.0V159.0C186.0 111.0 151.0 34.0 120.0 -14.0C145.0 -26.0 181.0 -49.0 202.0 -65.0C240.0 -12.0 289.0 71.0 318.0 136.0L243.0 184.0L226.0 179.0ZM373.0 124.0 325.0 3.0H603.0V124.0ZM359.0 251.0C343.0 137.0 313.0 25.0 262.0 -46.0C283.0 -71.0 317.0 -128.0 329.0 -153.0C401.0 -61.0 446.0 84.0 471.0 229.0ZM479.0 56.0C464.0 -125.0 416.0 -261.0 297.0 -337.0C317.0 -356.0 349.0 -401.0 359.0 -423.0C499.0 -326.0 559.0 -169.0 582.0 48.0ZM169.0 -456.0C181.0 -523.0 189.0 -612.0 189.0 -664.0L297.0 -648.0C295.0 -597.0 284.0 -511.0 270.0 -445.0ZM296.0 -449.0C319.0 -516.0 341.0 -605.0 347.0 -658.0L450.0 -637.0C443.0 -584.0 418.0 -498.0 393.0 -433.0ZM429.0 -445.0C460.0 -512.0 493.0 -601.0 504.0 -655.0L606.0 -615.0C592.0 -562.0 556.0 -476.0 524.0 -411.0ZM56.0 -425.0C35.0 -491.0 2.0 -575.0 -29.0 -626.0L77.0 -685.0C107.0 -622.0 144.0 -521.0 164.0 -447.0ZM335.0 -89.0C400.0 -184.0 482.0 -319.0 522.0 -399.0L616.0 -340.0C577.0 -266.0 492.0 -135.0 424.0 -42.0Z"/></g>
<g fill="black" opacity=".8" transform="translate(200 200) scale(0.1 -0.1)"><path d="M0.0 0.0V-106.0H169.0V-297.0H5.0V-403.0H283.0V0.0ZM98.0 179.0V77.0H216.0V179.0ZM-27.0 -148.0V-253.0H325.0V-148.0ZM88.0 258.0C64.0 188.0 19.0 106.0 -50.0 44.0C-21.0 29.0 20.0 -5.0 41.0 -30.0C120.0 49.0 170.0 142.0 206.0 239.0ZM201.0 179.0V159.0C186.0 111.0 151.0 34.0 120.0 -14.0C145.0 -26.0 181.0 -49.0 202.0 -65.0C240.0 -12.0 289.0 71.0 318.0 136.0L243.0 184.0L226.0 179.0ZM373.0 124.0 325.0 3.0H603.0V124.0ZM359.0 251.0C343.0 137.0 313.0 25.0 262.0 -46.0C283.0 -71.0 317.0 -128.0 329.0 -153.0C401.0 -61.0 446.0 84.0 471.0 229.0ZM479.0 56.0C464.0 -125.0 416.0 -261.0 297.0 -337.0C317.0 -356.0 349.0 -401.0 359.0 -423.0C499.0 -326.0 559.0 -169.0 582.0 48.0ZM169.0 -456.0C181.0 -523.0 189.0 -612.0 189.0 -664.0L297.0 -648.0C295.0 -597.0 284.0 -511.0 270.0 -445.0ZM296.0 -449.0C319.0 -516.0 341.0 -605.0 347.0 -658.0L450.0 -637.0C443.0 -584.0 418.0 -498.0 393.0 -433.0ZM429.0 -445.0C460.0 -512.0 493.0 -601.0 504.0 -655.0L606.0 -615.0C592.0 -562.0 556.0 -476.0 524.0 -411.0ZM56.0 -425.0C35.0 -491.0 2.0 -575.0 -29.0 -626.0L77.0 -685.0C107.0 -622.0 144.0 -521.0 164.0 -447.0ZM335.0 -89.0C400.0 -184.0 482.0 -319.0 522.0 -399.0L616.0 -340.0C577.0 -266.0 492.0 -135.0 424.0 -42.0Z"/></g>
</svg>
