<?xml version="1.0" encoding="UTF-8"?>
<svg width="1700" height="700" xmlns="http://www.w3.org/2000/svg">
<rect width="100%" height="100%" fill="white"/>
<g fill="green" transform="translate(100 100) scale(0.1 -0.1)"><path d="M-0.0 0.0C-45.0 -190.0 -126.0 -338.0 -272.0 -433.0C-265.0 -439.0 -254.0 -452.0 -250.0 -458.0C-103.0 -354.0 -19.0 -206.0 31.0 -4.0ZM58.0 -565.0 47.0 -595.0 455.0 -610.0 456.0 -579.0ZM-391.0 -686.0 -308.0 -709.0 655.0 -721.0 572.0 -698.0ZM314.0 -1.0V-850.0H344.0V-1.0Z"/></g>
<g fill="green" transform="translate(200 100) scale(0.1 -0.1)"><path d="M0.0 0.0C-36.0 -176.0 -103.0 -321.0 -247.0 -406.0C-215.0 -439.0 -161.0 -511.0 -143.0 -547.0C27.0 -433.0 118.0 -244.0 167.0 -28.0ZM148.0 -616.0 93.0 -760.0 534.0 -779.0 540.0 -634.0ZM-342.0 -714.0 -293.0 -846.0 727.0 -850.0 678.0 -719.0ZM335.0 -42.0V-931.0H496.0V-42.0Z"/></g>
<g fill="green" transform="translate(300 100) scale(0.1 -0.1)"><path d="M0.0 0.0C-31.0 -127.0 -88.0 -215.0 -201.0 -270.0C-199.0 -274.0 -195.0 -283.0 -194.0 -286.0C-78.0 -223.0 -19.0 -137.0 16.0 -1.0ZM-28.0 -516.0 -38.0 -531.0 99.0 -547.0 100.0 -531.0ZM-430.0 -470.0 -355.0 -478.0 278.0 -489.0 203.0 -481.0ZM221.0 27.0V-437.0H235.0V27.0Z"/></g>
<g fill="green" transform="translate(400 100) scale(0.1 -0.1)"><path d="M0.0 0.0C-26.0 -120.0 -73.0 -208.0 -188.0 -259.0C-171.0 -283.0 -144.0 -337.0 -139.0 -362.0C1.0 -288.0 67.0 -165.0 103.0 -14.0ZM28.0 -582.0 -22.0 -663.0 143.0 -684.0 149.0 -601.0ZM-413.0 -504.0 -369.0 -574.0 311.0 -578.0 267.0 -509.0ZM236.0 -10.0V-496.0H323.0V-10.0Z"/></g>
<g fill="green" transform="translate(500 100) scale(0.1 -0.1)"><path d="M-0.0 0.0C-10.0 -175.0 -18.0 -342.0 -67.0 -464.0C-58.0 -467.0 -43.0 -476.0 -37.0 -479.0C9.0 -354.0 20.0 -185.0 34.0 -2.0ZM620.0 -137.0 618.0 -167.0 875.0 -191.0 877.0 -160.0ZM250.0 -423.0 396.0 -443.0 888.0 -463.0 742.0 -444.0ZM123.0 508.0V-664.0H153.0V508.0Z"/></g>
<g fill="green" transform="translate(600 100) scale(0.1 -0.1)"><path d="M0.0 0.0C-4.0 -176.0 -13.0 -355.0 -57.0 -466.0C-27.0 -482.0 36.0 -520.0 60.0 -539.0C113.0 -410.0 137.0 -211.0 148.0 -17.0ZM695.0 -163.0 676.0 -296.0 958.0 -328.0 968.0 -193.0ZM342.0 -451.0 428.0 -553.0 937.0 -561.0 851.0 -460.0ZM153.0 505.0V-746.0H288.0V505.0Z"/></g>
<g fill="green" transform="translate(700 100) scale(0.1 -0.1)"><path d="M-0.0 0.0C-97.0 -179.0 -266.0 -329.0 -463.0 -419.0C-450.0 -429.0 -434.0 -447.0 -427.0 -457.0C-232.0 -357.0 -61.0 -204.0 45.0 -13.0ZM-191.0 -18.0 -207.0 -65.0 559.0 -79.0 560.0 -31.0ZM-762.0 -436.0 -740.0 -480.0 799.0 -484.0 776.0 -440.0ZM590.0 -151.0V-861.0H637.0V-151.0Z"/></g>
<g fill="green" transform="translate(800 100) scale(0.1 -0.1)"><path d="M0.0 0.0C-84.0 -154.0 -241.0 -279.0 -444.0 -350.0C-386.0 -400.0 -292.0 -505.0 -252.0 -564.0C-33.0 -458.0 152.0 -277.0 260.0 -73.0ZM-80.0 -20.0 -155.0 -233.0 648.0 -251.0 653.0 -37.0ZM-705.0 -426.0 -691.0 -644.0 951.0 -645.0 937.0 -428.0ZM604.0 -224.0V-946.0H865.0V-224.0Z"/></g>
<g fill="green" transform="translate(900 100) scale(0.1 -0.1)"><path d="M0.0 0.0C-47.0 -149.0 -141.0 -252.0 -293.0 -311.0C-286.0 -317.0 -278.0 -330.0 -275.0 -338.0C-121.0 -270.0 -25.0 -164.0 28.0 -5.0ZM411.0 -523.0 409.0 -552.0 456.0 -556.0V-526.0ZM-212.0 -695.0 -86.0 -713.0 573.0 -730.0 447.0 -713.0ZM375.0 -532.0V-959.0H403.0V-532.0Z"/></g>
<g fill="green" transform="translate(1000 100) scale(0.1 -0.1)"><path d="M0.0 0.0C-45.0 -132.0 -125.0 -223.0 -281.0 -277.0C-263.0 -315.0 -242.0 -399.0 -240.0 -439.0C-45.0 -353.0 60.0 -206.0 119.0 -28.0ZM477.0 -583.0 468.0 -678.0 480.0 -682.0 482.0 -588.0ZM-169.0 -730.0 -95.0 -812.0 592.0 -818.0 517.0 -738.0ZM364.0 -586.0V-1052.0H511.0V-586.0Z"/></g>
<g fill="green" transform="translate(1100 100) scale(0.1 -0.1)"><path d="M0.0 0.0C-46.0 -194.0 -135.0 -352.0 -278.0 -446.0C-272.0 -453.0 -263.0 -467.0 -258.0 -474.0C-113.0 -369.0 -21.0 -212.0 29.0 -5.0ZM-116.0 -433.0 -121.0 -463.0 364.0 -471.0 365.0 -440.0ZM-291.0 -842.0 -106.0 -858.0 605.0 -884.0 421.0 -868.0ZM255.0 0.0V-925.0H285.0V0.0Z"/></g>
<g fill="green" transform="translate(1200 100) scale(0.1 -0.1)"><path d="M0.0 0.0C-39.0 -176.0 -112.0 -326.0 -250.0 -412.0C-221.0 -445.0 -175.0 -516.0 -161.0 -552.0C3.0 -437.0 96.0 -243.0 146.0 -27.0ZM-48.0 -474.0 -77.0 -607.0 448.0 -617.0 452.0 -484.0ZM-213.0 -884.0 -105.0 -985.0 667.0 -994.0 559.0 -894.0ZM282.0 -33.0V-1009.0H438.0V-33.0Z"/></g>
<g fill="green" transform="translate(1300 100) scale(0.1 -0.1)"><path d="M-0.0 0.0C-46.0 -188.0 -133.0 -349.0 -266.0 -447.0C-259.0 -453.0 -248.0 -465.0 -243.0 -472.0C-107.0 -365.0 -18.0 -205.0 32.0 -6.0ZM-64.0 -623.0 -78.0 -657.0 305.0 -677.0 306.0 -642.0ZM-242.0 -538.0 -122.0 -561.0 774.0 -578.0 654.0 -555.0ZM335.0 -7.0V-1003.0H367.0V-7.0Z"/></g>
<g fill="green" transform="translate(1400 100) scale(0.1 -0.1)"><path d="M0.0 0.0C-35.0 -170.0 -99.0 -319.0 -223.0 -407.0C-192.0 -438.0 -140.0 -505.0 -122.0 -539.0C26.0 -425.0 110.0 -233.0 155.0 -28.0ZM26.0 -660.0 -38.0 -805.0 392.0 -830.0 400.0 -684.0ZM-158.0 -565.0 -87.0 -695.0 846.0 -701.0 775.0 -572.0ZM388.0 -61.0V-1093.0H552.0V-61.0Z"/></g>
<g fill="green" transform="translate(1500 100) scale(0.1 -0.1)"><path d="M0.0 0.0C-25.0 -169.0 -80.0 -280.0 -224.0 -347.0C-217.0 -352.0 -205.0 -363.0 -201.0 -370.0C-58.0 -296.0 3.0 -183.0 30.0 -3.0ZM-52.0 -571.0 -55.0 -600.0 510.0 -615.0 511.0 -585.0ZM-326.0 -707.0 -363.0 -738.0 820.0 -734.0 857.0 -703.0ZM213.0 -110.0V-759.0H243.0V-110.0Z"/></g>
<g fill="green" transform="translate(1600 100) scale(0.1 -0.1)"><path d="M0.0 0.0C-17.0 -151.0 -53.0 -261.0 -195.0 -324.0C-166.0 -348.0 -119.0 -396.0 -102.0 -426.0C64.0 -344.0 117.0 -201.0 140.0 -14.0ZM6.0 -626.0 -13.0 -747.0 588.0 -766.0 594.0 -643.0ZM-299.0 -756.0 -319.0 -893.0 914.0 -891.0 935.0 -754.0ZM237.0 -177.0V-829.0H386.0V-177.0Z"/></g>
<g fill="green" transform="translate(100 200) scale(0.1 -0.1)"><path d="M0.0 0.0C-40.0 -190.0 -104.0 -324.0 -254.0 -421.0C-247.0 -427.0 -233.0 -439.0 -229.0 -443.0C-79.0 -339.0 -11.0 -203.0 34.0 -1.0ZM-62.0 -607.0 -76.0 -637.0 625.0 -645.0 626.0 -614.0ZM-437.0 -636.0 -167.0 -646.0 636.0 -684.0 366.0 -673.0ZM345.0 -40.0V-826.0H375.0V-40.0Z"/></g>
<g fill="green" transform="translate(200 200) scale(0.1 -0.1)"><path d="M0.0 0.0C-26.0 -176.0 -74.0 -313.0 -221.0 -396.0C-185.0 -426.0 -121.0 -494.0 -98.0 -527.0C74.0 -418.0 151.0 -240.0 191.0 -25.0ZM43.0 -658.0 -23.0 -783.0 749.0 -793.0 752.0 -668.0ZM-349.0 -717.0 -191.0 -788.0 681.0 -802.0 523.0 -732.0ZM372.0 -98.0V-904.0H533.0V-98.0Z"/></g>
<g fill="green" transform="translate(300 200) scale(0.1 -0.1)"><path d="M0.0 0.0C-22.0 -176.0 -59.0 -314.0 -165.0 -412.0C-158.0 -415.0 -145.0 -426.0 -141.0 -430.0C-36.0 -327.0 5.0 -188.0 31.0 -1.0ZM80.0 -538.0 60.0 -566.0 467.0 -582.0 468.0 -553.0ZM-440.0 -678.0 -428.0 -703.0 563.0 -706.0 550.0 -680.0ZM292.0 4.0V-991.0H319.0V4.0Z"/></g>
<g fill="green" transform="translate(400 200) scale(0.1 -0.1)"><path d="M0.0 0.0C-13.0 -168.0 -41.0 -314.0 -144.0 -400.0C-110.0 -420.0 -46.0 -467.0 -22.0 -492.0C94.0 -386.0 141.0 -214.0 163.0 -17.0ZM165.0 -591.0 73.0 -736.0 537.0 -757.0 544.0 -610.0ZM-419.0 -699.0 -411.0 -840.0H658.0L650.0 -700.0ZM321.0 -26.0V-1087.0H465.0V-26.0Z"/></g>
<g fill="green" transform="translate(500 200) scale(0.1 -0.1)"><path d="M0.0 0.0C-55.0 -212.0 -159.0 -366.0 -342.0 -463.0C-334.0 -469.0 -323.0 -484.0 -319.0 -489.0C-134.0 -383.0 -27.0 -229.0 33.0 -4.0ZM14.0 -582.0 10.0 -614.0 499.0 -599.0 498.0 -566.0ZM-408.0 -638.0 -370.0 -666.0 604.0 -672.0 566.0 -644.0ZM200.0 -49.0V-904.0H233.0V-49.0Z"/></g>
<g fill="green" transform="translate(600 200) scale(0.1 -0.1)"><path d="M0.0 0.0C-45.0 -199.0 -130.0 -358.0 -310.0 -449.0C-272.0 -484.0 -207.0 -562.0 -185.0 -601.0C21.0 -479.0 131.0 -275.0 190.0 -30.0ZM138.0 -619.0 120.0 -788.0 582.0 -768.0 576.0 -600.0ZM-340.0 -650.0 -317.0 -809.0 674.0 -811.0 651.0 -652.0ZM207.0 -70.0V-980.0H392.0V-70.0Z"/></g>
<g fill="green" transform="translate(700 200) scale(0.1 -0.1)"><path d="M0.0 0.0C-51.0 -183.0 -131.0 -338.0 -256.0 -447.0C-251.0 -452.0 -242.0 -465.0 -239.0 -469.0C-111.0 -352.0 -31.0 -199.0 27.0 -4.0ZM22.0 -588.0 12.0 -612.0 463.0 -617.0V-592.0ZM-269.0 -711.0 -373.0 -743.0 530.0 -730.0 633.0 -698.0ZM339.0 -15.0V-844.0H364.0V-15.0Z"/></g>
<g fill="green" transform="translate(800 200) scale(0.1 -0.1)"><path d="M0.0 0.0C-40.0 -170.0 -111.0 -320.0 -229.0 -412.0C-206.0 -449.0 -164.0 -531.0 -153.0 -566.0C-5.0 -441.0 94.0 -241.0 153.0 -32.0ZM139.0 -613.0 89.0 -758.0 572.0 -764.0 574.0 -619.0ZM-253.0 -688.0 -313.0 -855.0 647.0 -849.0 706.0 -683.0ZM367.0 -41.0V-915.0H500.0V-41.0Z"/></g>
<g fill="green" transform="translate(900 200) scale(0.1 -0.1)"><path d="M-0.0 0.0C-59.0 -165.0 -161.0 -321.0 -281.0 -414.0C-274.0 -419.0 -265.0 -430.0 -261.0 -437.0C-141.0 -335.0 -38.0 -181.0 25.0 -7.0ZM71.0 -586.0 54.0 -614.0 484.0 -627.0 485.0 -597.0ZM-389.0 -696.0 -297.0 -717.0 658.0 -730.0 566.0 -710.0ZM322.0 7.0V-888.0H351.0V7.0Z"/></g>
<g fill="green" transform="translate(1000 200) scale(0.1 -0.1)"><path d="M0.0 0.0C-50.0 -151.0 -143.0 -292.0 -261.0 -374.0C-232.0 -407.0 -184.0 -476.0 -168.0 -511.0C-34.0 -402.0 75.0 -221.0 139.0 -38.0ZM147.0 -614.0 66.0 -750.0 540.0 -766.0 545.0 -629.0ZM-358.0 -711.0 -304.0 -829.0 732.0 -833.0 678.0 -717.0ZM325.0 5.0V-938.0H477.0V5.0Z"/></g>
<g fill="green" transform="translate(1100 200) scale(0.1 -0.1)"><path d="M0.0 0.0C-47.0 -192.0 -133.0 -349.0 -274.0 -446.0C-265.0 -453.0 -253.0 -467.0 -247.0 -473.0C-107.0 -367.0 -18.0 -209.0 35.0 -6.0ZM59.0 -577.0 45.0 -612.0 459.0 -630.0 461.0 -594.0ZM-402.0 -705.0 -303.0 -732.0 680.0 -746.0 580.0 -720.0ZM318.0 -23.0V-864.0H353.0V-23.0Z"/></g>
<g fill="green" transform="translate(1200 200) scale(0.1 -0.1)"><path d="M0.0 0.0C-37.0 -171.0 -108.0 -320.0 -241.0 -407.0C-203.0 -439.0 -137.0 -507.0 -111.0 -543.0C41.0 -430.0 132.0 -242.0 181.0 -33.0ZM155.0 -584.0 88.0 -755.0 521.0 -779.0 528.0 -606.0ZM-345.0 -679.0 -286.0 -841.0 719.0 -846.0 661.0 -684.0ZM316.0 -36.0V-902.0H503.0V-36.0Z"/></g>
<g fill="red" transform="translate(100 300) scale(0.1 -0.1)"><path d="M0.0 0.0C-12.0 -129.0 -32.0 -258.0 -68.0 -345.0C-60.0 -349.0 -45.0 -359.0 -39.0 -364.0C-6.0 -275.0 17.0 -141.0 31.0 -6.0ZM297.0 -38.0V-68.0H818.0V-38.0ZM272.0 -545.0V-575.0H839.0V-545.0ZM109.0 73.0V-826.0H138.0V73.0Z"/></g>
<g fill="black" opacity=".8" transform="translate(100 300) scale(0.1 -0.1)"><path d="M0.0 0.0C-11.0 -130.0 -31.0 -260.0 -68.0 -349.0C-59.0 -351.0 -45.0 -360.0 -38.0 -364.0C-5.0 -275.0 17.0 -140.0 31.0 -5.0ZM284.0 -33.0 286.0 -64.0 814.0 -67.0 815.0 -35.0ZM264.0 -548.0V-579.0L835.0 -580.0L834.0 -550.0ZM105.0 74.0V-827.0H136.0V74.0Z"/></g>
<g fill="red" transform="translate(200 300) scale(0.1 -0.1)"><path d="M0.0 0.0C-6.0 -120.0 -21.0 -251.0 -46.0 -330.0C-19.0 -341.0 32.0 -364.0 56.0 -381.0C81.0 -293.0 100.0 -153.0 109.0 -20.0ZM322.0 2.0V-122.0H883.0V2.0ZM320.0 -535.0V-662.0H909.0V-535.0ZM121.0 80.0V-870.0H243.0V80.0Z"/></g>
<g fill="black" opacity=".8" transform="translate(200 300) scale(0.1 -0.1)"><path d="M0.0 0.0C-6.0 -117.0 -22.0 -245.0 -48.0 -324.0C-22.0 -336.0 31.0 -359.0 54.0 -375.0C80.0 -288.0 100.0 -149.0 110.0 -19.0ZM334.0 -1.0 337.0 -121.0 885.0 -127.0 887.0 -5.0ZM326.0 -534.0 328.0 -657.0H914.0L913.0 -534.0ZM118.0 81.0V-870.0H251.0V81.0Z"/></g>
<g fill="red" transform="translate(300 300) scale(0.1 -0.1)"><path d="M0.0 0.0C-57.0 -160.0 -149.0 -318.0 -248.0 -422.0C-241.0 -428.0 -230.0 -440.0 -226.0 -446.0C-125.0 -335.0 -33.0 -176.0 29.0 -8.0ZM134.0 -212.0 126.0 -242.0H606.0V-212.0ZM24.0 -510.0V-540.0H646.0V-510.0ZM328.0 -8.0V-898.0H357.0V-8.0Z"/></g>
<g fill="black" opacity=".8" transform="translate(300 300) scale(0.1 -0.1)"><path d="M0.0 0.0C-60.0 -153.0 -156.0 -314.0 -245.0 -421.0C-237.0 -426.0 -227.0 -438.0 -222.0 -443.0C-132.0 -330.0 -38.0 -169.0 29.0 -8.0ZM131.0 -213.0 125.0 -244.0 602.0 -241.0V-210.0ZM24.0 -509.0 25.0 -540.0 648.0 -541.0 645.0 -511.0ZM326.0 -10.0V-893.0H357.0V-10.0Z"/></g>
<g fill="red" transform="translate(400 300) scale(0.1 -0.1)"><path d="M0.0 0.0C-48.0 -138.0 -131.0 -276.0 -217.0 -363.0C-193.0 -399.0 -154.0 -480.0 -141.0 -516.0C-32.0 -400.0 73.0 -214.0 137.0 -43.0ZM236.0 -184.0 200.0 -326.0H696.0V-184.0ZM88.0 -472.0V-614.0H746.0V-472.0ZM350.0 -9.0V-945.0H497.0V-9.0Z"/></g>
<g fill="black" opacity=".8" transform="translate(400 300) scale(0.1 -0.1)"><path d="M0.0 0.0C-50.0 -138.0 -141.0 -282.0 -220.0 -371.0C-194.0 -406.0 -148.0 -482.0 -132.0 -516.0C-37.0 -399.0 73.0 -212.0 142.0 -45.0ZM234.0 -185.0 205.0 -329.0 699.0 -325.0 698.0 -183.0ZM87.0 -471.0 88.0 -616.0H748.0L745.0 -472.0ZM348.0 -11.0V-949.0H497.0V-11.0Z"/></g>
<g fill="red" transform="translate(500 300) scale(0.1 -0.1)"><path d="M0.0 0.0C-20.0 -141.0 -59.0 -270.0 -123.0 -357.0C-116.0 -361.0 -103.0 -371.0 -98.0 -375.0C-34.0 -285.0 7.0 -153.0 31.0 -5.0ZM-19.0 -170.0 -27.0 -200.0H435.0V-170.0ZM-116.0 -468.0V-498.0H462.0V-468.0ZM160.0 34.0V-856.0H189.0V34.0Z"/></g>
<g fill="black" opacity=".8" transform="translate(500 300) scale(0.1 -0.1)"><path d="M0.0 0.0C-22.0 -137.0 -59.0 -266.0 -120.0 -355.0C-113.0 -357.0 -101.0 -368.0 -95.0 -370.0C-36.0 -279.0 3.0 -149.0 30.0 -4.0ZM-15.0 -170.0 -26.0 -198.0 440.0 -195.0V-165.0ZM-111.0 -469.0 -109.0 -496.0 467.0 -498.0 464.0 -471.0ZM164.0 29.0V-853.0H192.0V29.0Z"/></g>
<g fill="red" transform="translate(600 300) scale(0.1 -0.1)"><path d="M0.0 0.0C-13.0 -120.0 -42.0 -244.0 -92.0 -318.0C-58.0 -333.0 5.0 -368.0 33.0 -389.0C85.0 -302.0 123.0 -163.0 141.0 -22.0ZM67.0 -130.0 31.0 -272.0H509.0V-130.0ZM-48.0 -418.0V-560.0H533.0V-418.0ZM177.0 45.0V-891.0H324.0V45.0Z"/></g>
<g fill="black" opacity=".8" transform="translate(600 300) scale(0.1 -0.1)"><path d="M0.0 0.0C-13.0 -124.0 -44.0 -254.0 -91.0 -331.0C-58.0 -344.0 7.0 -376.0 35.0 -393.0C80.0 -305.0 118.0 -163.0 139.0 -22.0ZM68.0 -131.0 21.0 -278.0 505.0 -276.0 504.0 -128.0ZM-55.0 -416.0 -52.0 -562.0H533.0L531.0 -415.0ZM178.0 45.0V-892.0H317.0V45.0Z"/></g>
<g fill="red" transform="translate(700 300) scale(0.1 -0.1)"><path d="M0.0 0.0C-42.0 -118.0 -106.0 -235.0 -181.0 -312.0C-173.0 -317.0 -159.0 -326.0 -154.0 -330.0C-83.0 -249.0 -16.0 -131.0 29.0 -7.0ZM-56.0 -144.0V-173.0H580.0V-144.0ZM-212.0 -348.0V-378.0H666.0V-348.0ZM208.0 15.0V-501.0H238.0V15.0Z"/></g>
<g fill="black" opacity=".8" transform="translate(700 300) scale(0.1 -0.1)"><path d="M0.0 0.0C-35.0 -128.0 -94.0 -230.0 -193.0 -298.0C-185.0 -303.0 -172.0 -314.0 -166.0 -317.0C-70.0 -245.0 -8.0 -140.0 32.0 -5.0ZM-60.0 -142.0 -64.0 -173.0 583.0 -177.0 584.0 -146.0ZM-208.0 -350.0 -218.0 -381.0H667.0L675.0 -351.0ZM211.0 27.0V-511.0H241.0V27.0Z"/></g>
<g fill="red" transform="translate(800 300) scale(0.1 -0.1)"><path d="M0.0 0.0C-32.0 -106.0 -93.0 -215.0 -163.0 -279.0C-125.0 -297.0 -57.0 -335.0 -25.0 -359.0C41.0 -283.0 112.0 -160.0 152.0 -37.0ZM1.0 -123.0V-254.0H668.0V-123.0ZM-165.0 -337.0V-471.0H754.0V-337.0ZM219.0 -1.0V-532.0H370.0V-1.0Z"/></g>
<g fill="black" opacity=".8" transform="translate(800 300) scale(0.1 -0.1)"><path d="M0.0 0.0C-24.0 -111.0 -74.0 -208.0 -167.0 -267.0C-132.0 -287.0 -67.0 -329.0 -39.0 -356.0C61.0 -283.0 123.0 -165.0 158.0 -30.0ZM17.0 -117.0 -3.0 -252.0 666.0 -260.0 668.0 -123.0ZM-156.0 -332.0 -159.0 -475.0H742.0L747.0 -331.0ZM217.0 1.0V-530.0H372.0V1.0Z"/></g>
<g fill="red" transform="translate(900 300) scale(0.1 -0.1)"><path d="M0.0 0.0C-42.0 -134.0 -109.0 -266.0 -188.0 -353.0C-181.0 -357.0 -169.0 -367.0 -163.0 -372.0C-86.0 -280.0 -17.0 -147.0 28.0 -7.0ZM-52.0 -164.0 -61.0 -193.0H623.0V-164.0ZM-206.0 -470.0V-499.0H677.0V-470.0ZM230.0 33.0V-866.0H260.0V33.0Z"/></g>
<g fill="black" opacity=".8" transform="translate(900 300) scale(0.1 -0.1)"><path d="M0.0 0.0C-39.0 -144.0 -102.0 -277.0 -190.0 -367.0C-181.0 -370.0 -168.0 -381.0 -162.0 -385.0C-77.0 -291.0 -11.0 -157.0 31.0 -5.0ZM-48.0 -161.0 -58.0 -192.0 629.0 -188.0V-156.0ZM-197.0 -467.0 -202.0 -497.0 669.0 -498.0 673.0 -468.0ZM230.0 31.0V-868.0H261.0V31.0Z"/></g>
<g fill="red" transform="translate(1000 300) scale(0.1 -0.1)"><path d="M0.0 0.0C-29.0 -139.0 -88.0 -278.0 -167.0 -358.0C-129.0 -374.0 -57.0 -409.0 -26.0 -431.0C48.0 -338.0 115.0 -187.0 152.0 -29.0ZM38.0 -143.0 -5.0 -286.0H723.0V-143.0ZM-141.0 -465.0V-609.0H782.0V-465.0ZM256.0 18.0V-932.0H411.0V18.0Z"/></g>
<g fill="black" opacity=".8" transform="translate(1000 300) scale(0.1 -0.1)"><path d="M0.0 0.0C-28.0 -132.0 -84.0 -261.0 -166.0 -338.0C-130.0 -358.0 -62.0 -402.0 -34.0 -428.0C49.0 -335.0 117.0 -185.0 155.0 -32.0ZM35.0 -149.0 -10.0 -293.0 719.0 -289.0 718.0 -144.0ZM-145.0 -468.0 -147.0 -609.0 785.0 -608.0 787.0 -468.0ZM255.0 19.0V-929.0H410.0V19.0Z"/></g>
<g fill="red" transform="translate(1100 300) scale(0.1 -0.1)"><path d="M0.0 0.0C-39.0 -102.0 -100.0 -203.0 -169.0 -271.0C-160.0 -275.0 -146.0 -282.0 -140.0 -286.0C-76.0 -218.0 -13.0 -114.0 29.0 -7.0ZM-43.0 -129.0 -58.0 -159.0H597.0V-129.0ZM-207.0 -345.0V-374.0H676.0V-345.0ZM220.0 3.0V-614.0H250.0V3.0Z"/></g>
<g fill="black" opacity=".8" transform="translate(1100 300) scale(0.1 -0.1)"><path d="M0.0 0.0C-34.0 -109.0 -91.0 -212.0 -163.0 -279.0C-154.0 -282.0 -142.0 -291.0 -136.0 -295.0C-67.0 -226.0 -8.0 -121.0 30.0 -6.0ZM-39.0 -130.0 -50.0 -160.0 603.0 -166.0 604.0 -135.0ZM-201.0 -338.0 -204.0 -369.0 676.0 -370.0 677.0 -340.0ZM223.0 -0.0V-613.0H254.0V-0.0Z"/></g>
<g fill="red" transform="translate(1200 300) scale(0.1 -0.1)"><path d="M0.0 0.0C-25.0 -91.0 -75.0 -185.0 -134.0 -242.0C-97.0 -259.0 -32.0 -295.0 -1.0 -318.0C56.0 -251.0 115.0 -142.0 148.0 -34.0ZM44.0 -99.0 -22.0 -232.0H675.0V-99.0ZM-154.0 -311.0V-445.0H756.0V-311.0ZM228.0 -7.0V-624.0H380.0V-7.0Z"/></g>
<g fill="black" opacity=".8" transform="translate(1200 300) scale(0.1 -0.1)"><path d="M0.0 0.0C-24.0 -93.0 -74.0 -186.0 -139.0 -242.0C-104.0 -258.0 -39.0 -290.0 -9.0 -312.0C53.0 -247.0 110.0 -141.0 142.0 -32.0ZM26.0 -92.0 -20.0 -223.0 669.0 -232.0 671.0 -98.0ZM-159.0 -314.0 -158.0 -450.0H754.0L755.0 -314.0ZM225.0 -7.0V-624.0H376.0V-7.0Z"/></g>
<g fill="red" transform="translate(1300 300) scale(0.1 -0.1)"><path d="M0.0 0.0C-40.0 -113.0 -105.0 -223.0 -179.0 -296.0C-171.0 -300.0 -157.0 -309.0 -153.0 -313.0C-81.0 -238.0 -14.0 -125.0 29.0 -7.0ZM-55.0 -141.0 -69.0 -170.0H559.0V-141.0ZM-223.0 -367.0V-396.0H646.0V-367.0ZM202.0 8.0V-684.0H232.0V8.0Z"/></g>
<g fill="black" opacity=".8" transform="translate(1300 300) scale(0.1 -0.1)"><path d="M0.0 0.0C-40.0 -112.0 -108.0 -222.0 -184.0 -290.0C-175.0 -293.0 -164.0 -302.0 -158.0 -307.0C-86.0 -236.0 -15.0 -124.0 28.0 -7.0ZM-52.0 -143.0 -64.0 -173.0H551.0L552.0 -142.0ZM-234.0 -374.0 -233.0 -403.0 632.0 -405.0 629.0 -377.0ZM199.0 3.0V-677.0H229.0V3.0Z"/></g>
<g fill="red" transform="translate(1400 300) scale(0.1 -0.1)"><path d="M0.0 0.0C-32.0 -94.0 -94.0 -189.0 -164.0 -246.0C-130.0 -265.0 -69.0 -306.0 -41.0 -330.0C28.0 -261.0 100.0 -149.0 142.0 -36.0ZM22.0 -108.0 -46.0 -243.0H599.0V-108.0ZM-202.0 -353.0V-492.0H694.0V-353.0ZM194.0 7.0V-686.0H344.0V7.0Z"/></g>
<g fill="black" opacity=".8" transform="translate(1400 300) scale(0.1 -0.1)"><path d="M0.0 0.0C-30.0 -96.0 -92.0 -196.0 -162.0 -255.0C-127.0 -271.0 -62.0 -305.0 -33.0 -328.0C31.0 -260.0 97.0 -146.0 136.0 -34.0ZM11.0 -106.0 -38.0 -240.0 605.0 -242.0V-106.0ZM-194.0 -348.0 -191.0 -483.0H711.0L710.0 -348.0ZM196.0 11.0V-690.0H347.0V11.0Z"/></g>
<g fill="red" transform="translate(1500 300) scale(0.1 -0.1)"><path d="M0.0 0.0C-58.0 -114.0 -153.0 -221.0 -254.0 -291.0C-246.0 -296.0 -233.0 -307.0 -229.0 -311.0C-131.0 -238.0 -33.0 -129.0 28.0 -8.0ZM-3.0 -193.0 0.0 -221.0 625.0 -171.0 622.0 -143.0ZM-84.0 -536.0V-565.0H538.0V-536.0ZM185.0 -428.0V-904.0H216.0V-428.0Z"/></g>
<g fill="black" opacity=".8" transform="translate(1500 300) scale(0.1 -0.1)"><path d="M0.0 0.0C-49.0 -127.0 -140.0 -226.0 -261.0 -287.0C-253.0 -292.0 -243.0 -304.0 -238.0 -308.0C-117.0 -243.0 -25.0 -141.0 29.0 -6.0ZM-2.0 -188.0 1.0 -217.0 627.0 -183.0 626.0 -152.0ZM-83.0 -536.0 -91.0 -566.0H534.0L540.0 -537.0ZM189.0 -426.0V-911.0H220.0V-426.0Z"/></g>
<g fill="red" transform="translate(1600 300) scale(0.1 -0.1)"><path d="M0.0 0.0C-48.0 -104.0 -138.0 -203.0 -234.0 -262.0C-204.0 -287.0 -153.0 -343.0 -131.0 -371.0C-29.0 -295.0 75.0 -171.0 137.0 -42.0ZM87.0 -169.0 108.0 -289.0 701.0 -224.0 681.0 -108.0ZM-30.0 -525.0V-643.0H610.0V-525.0ZM182.0 -437.0V-955.0H332.0V-437.0Z"/></g>
<g fill="black" opacity=".8" transform="translate(1600 300) scale(0.1 -0.1)"><path d="M0.0 0.0C-41.0 -108.0 -119.0 -198.0 -234.0 -252.0C-208.0 -279.0 -163.0 -337.0 -146.0 -367.0C-17.0 -295.0 74.0 -172.0 128.0 -33.0ZM84.0 -157.0 108.0 -275.0 698.0 -230.0 684.0 -115.0ZM-24.0 -524.0 -27.0 -642.0H607.0L609.0 -524.0ZM178.0 -434.0V-953.0H331.0V-434.0Z"/></g>
<g fill="red" transform="translate(100 400) scale(0.1 -0.1)"><path d="M0.0 0.0C-11.0 -128.0 -27.0 -257.0 -64.0 -345.0C-56.0 -348.0 -42.0 -355.0 -36.0 -358.0C-2.0 -269.0 17.0 -138.0 29.0 -4.0ZM330.0 -280.0V-309.0H755.0V-280.0ZM308.0 -497.0V-527.0H794.0V-497.0ZM123.0 68.0V-831.0H155.0V68.0Z"/></g>
<g fill="black" opacity=".8" transform="translate(100 400) scale(0.1 -0.1)"><path d="M0.0 0.0C-13.0 -128.0 -32.0 -263.0 -63.0 -355.0C-55.0 -357.0 -43.0 -364.0 -36.0 -368.0C-9.0 -274.0 12.0 -138.0 28.0 -5.0ZM338.0 -282.0 335.0 -310.0 749.0 -315.0 750.0 -286.0ZM297.0 -494.0 299.0 -522.0 803.0 -523.0 800.0 -497.0ZM119.0 62.0V-833.0H147.0V62.0Z"/></g>
<g fill="red" transform="translate(200 400) scale(0.1 -0.1)"><path d="M0.0 0.0C-7.0 -120.0 -24.0 -250.0 -55.0 -330.0C-28.0 -339.0 25.0 -357.0 48.0 -370.0C78.0 -284.0 99.0 -147.0 109.0 -16.0ZM399.0 -250.0V-379.0H814.0V-250.0ZM354.0 -454.0V-594.0H863.0V-454.0ZM125.0 82.0V-868.0H253.0V82.0Z"/></g>
<g fill="black" opacity=".8" transform="translate(200 400) scale(0.1 -0.1)"><path d="M0.0 0.0C-6.0 -116.0 -19.0 -247.0 -36.0 -329.0C-15.0 -341.0 29.0 -366.0 47.0 -380.0C67.0 -289.0 86.0 -145.0 96.0 -17.0ZM402.0 -249.0 387.0 -362.0 817.0 -369.0 820.0 -255.0ZM355.0 -469.0 359.0 -584.0H860.0L858.0 -469.0ZM132.0 79.0V-862.0H250.0V79.0Z"/></g>
<g fill="red" transform="translate(300 400) scale(0.1 -0.1)"><path d="M0.0 0.0C-16.0 -129.0 -41.0 -257.0 -85.0 -345.0C-77.0 -348.0 -63.0 -355.0 -57.0 -358.0C-16.0 -270.0 11.0 -139.0 29.0 -5.0ZM307.0 -59.0V-89.0H802.0V-59.0ZM289.0 -439.0V-469.0H823.0V-439.0ZM112.0 67.0V-832.0H144.0V67.0Z"/></g>
<g fill="black" opacity=".8" transform="translate(300 400) scale(0.1 -0.1)"><path d="M0.0 0.0C-17.0 -125.0 -46.0 -258.0 -81.0 -348.0C-71.0 -351.0 -58.0 -359.0 -50.0 -363.0C-19.0 -272.0 11.0 -136.0 32.0 -6.0ZM301.0 -54.0 300.0 -86.0 802.0 -85.0 803.0 -51.0ZM287.0 -435.0V-468.0H824.0L823.0 -438.0ZM110.0 64.0V-834.0H142.0V64.0Z"/></g>
<g fill="red" transform="translate(400 400) scale(0.1 -0.1)"><path d="M0.0 0.0C-7.0 -120.0 -24.0 -250.0 -55.0 -330.0C-28.0 -338.0 23.0 -356.0 46.0 -369.0C76.0 -283.0 97.0 -147.0 107.0 -16.0ZM357.0 2.0V-129.0H871.0V2.0ZM357.0 -399.0V-532.0H893.0V-399.0ZM120.0 80.0V-870.0H257.0V80.0Z"/></g>
<g fill="black" opacity=".8" transform="translate(400 400) scale(0.1 -0.1)"><path d="M0.0 0.0C-10.0 -113.0 -35.0 -241.0 -57.0 -321.0C-30.0 -333.0 26.0 -358.0 51.0 -374.0C71.0 -286.0 98.0 -147.0 114.0 -23.0ZM364.0 -5.0 363.0 -133.0 870.0 -132.0V-4.0ZM358.0 -403.0 360.0 -533.0H894.0L893.0 -403.0ZM120.0 81.0V-866.0H259.0V81.0Z"/></g>
<g fill="red" transform="translate(500 400) scale(0.1 -0.1)"><path d="M0.0 0.0C-11.0 -127.0 -27.0 -256.0 -64.0 -345.0C-56.0 -348.0 -41.0 -354.0 -35.0 -358.0C-2.0 -268.0 18.0 -137.0 30.0 -4.0ZM279.0 -3.0V-32.0H831.0V-3.0ZM303.0 -512.0V-542.0H798.0V-512.0ZM100.0 55.0V-844.0H129.0V55.0Z"/></g>
<g fill="black" opacity=".8" transform="translate(500 400) scale(0.1 -0.1)"><path d="M0.0 0.0C-10.0 -129.0 -24.0 -255.0 -62.0 -344.0C-53.0 -346.0 -39.0 -355.0 -33.0 -359.0C1.0 -268.0 19.0 -139.0 31.0 -4.0ZM281.0 -13.0 283.0 -42.0 824.0 -40.0 825.0 -10.0ZM295.0 -511.0 296.0 -541.0 802.0 -542.0 800.0 -513.0ZM104.0 54.0V-842.0H134.0V54.0Z"/></g>
<g fill="red" transform="translate(600 400) scale(0.1 -0.1)"><path d="M0.0 0.0C-5.0 -115.0 -16.0 -239.0 -42.0 -318.0C-15.0 -330.0 34.0 -358.0 56.0 -374.0C85.0 -286.0 104.0 -147.0 112.0 -18.0ZM343.0 11.0V-116.0H902.0V11.0ZM360.0 -503.0V-629.0H887.0V-503.0ZM128.0 52.0V-898.0H258.0V52.0Z"/></g>
<g fill="black" opacity=".8" transform="translate(600 400) scale(0.1 -0.1)"><path d="M0.0 0.0C-4.0 -118.0 -15.0 -245.0 -42.0 -324.0C-18.0 -335.0 33.0 -359.0 54.0 -375.0C84.0 -287.0 101.0 -149.0 109.0 -17.0ZM336.0 13.0 347.0 -100.0 906.0 -99.0 907.0 14.0ZM362.0 -510.0 365.0 -623.0H888.0L886.0 -510.0ZM126.0 52.0V-900.0H252.0V52.0Z"/></g>
<g fill="red" transform="translate(700 400) scale(0.1 -0.1)"><path d="M0.0 0.0C-33.0 -74.0 -86.0 -144.0 -144.0 -194.0C-136.0 -198.0 -123.0 -206.0 -117.0 -210.0C-62.0 -160.0 -7.0 -84.0 29.0 -7.0ZM-177.0 386.0V357.0H665.0V386.0ZM-42.0 -82.0V-112.0H580.0V-82.0ZM227.0 10.0V-422.0H257.0V10.0Z"/></g>
<g fill="black" opacity=".8" transform="translate(700 400) scale(0.1 -0.1)"><path d="M0.0 0.0C-39.0 -66.0 -96.0 -140.0 -142.0 -195.0C-134.0 -198.0 -121.0 -207.0 -114.0 -209.0C-72.0 -155.0 -14.0 -77.0 30.0 -8.0ZM-175.0 385.0 -178.0 356.0 660.0 363.0V394.0ZM-38.0 -79.0V-109.0L585.0 -111.0L583.0 -81.0ZM226.0 4.0V-416.0H256.0V4.0Z"/></g>
<g fill="red" transform="translate(800 400) scale(0.1 -0.1)"><path d="M0.0 0.0C-25.0 -53.0 -74.0 -108.0 -127.0 -143.0C-93.0 -158.0 -34.0 -190.0 -4.0 -212.0C46.0 -170.0 103.0 -103.0 135.0 -35.0ZM-120.0 465.0V357.0H749.0V465.0ZM32.0 -51.0V-164.0H690.0V-51.0ZM239.0 -15.0V-425.0H382.0V-15.0Z"/></g>
<g fill="black" opacity=".8" transform="translate(800 400) scale(0.1 -0.1)"><path d="M0.0 0.0C-28.0 -50.0 -84.0 -111.0 -125.0 -150.0C-90.0 -165.0 -23.0 -194.0 8.0 -215.0C39.0 -171.0 100.0 -101.0 140.0 -40.0ZM-116.0 461.0 -124.0 349.0 754.0 356.0 751.0 470.0ZM28.0 -54.0 30.0 -167.0 689.0 -168.0 687.0 -54.0ZM240.0 -15.0V-427.0H380.0V-15.0Z"/></g>
<g fill="red" transform="translate(900 400) scale(0.1 -0.1)"><path d="M0.0 0.0C-12.0 -128.0 -30.0 -257.0 -69.0 -345.0C-60.0 -348.0 -44.0 -356.0 -38.0 -360.0C-3.0 -271.0 19.0 -138.0 32.0 -5.0ZM313.0 -144.0V-174.0H710.0V-144.0ZM245.0 -355.0V-384.0H837.0V-355.0ZM100.0 73.0V-826.0H131.0V73.0Z"/></g>
<g fill="black" opacity=".8" transform="translate(900 400) scale(0.1 -0.1)"><path d="M0.0 0.0C-11.0 -131.0 -32.0 -259.0 -76.0 -344.0C-67.0 -346.0 -54.0 -354.0 -47.0 -358.0C-5.0 -272.0 19.0 -141.0 32.0 -5.0ZM310.0 -145.0 308.0 -177.0 694.0 -182.0 695.0 -149.0ZM256.0 -351.0 251.0 -383.0H843.0L847.0 -353.0ZM100.0 81.0V-825.0H131.0V81.0Z"/></g>
<g fill="red" transform="translate(1000 400) scale(0.1 -0.1)"><path d="M0.0 0.0C-6.0 -121.0 -20.0 -253.0 -48.0 -335.0C-20.0 -344.0 32.0 -366.0 56.0 -380.0C84.0 -291.0 104.0 -150.0 112.0 -17.0ZM364.0 -129.0V-250.0H743.0V-129.0ZM337.0 -333.0V-457.0H918.0V-333.0ZM125.0 80.0V-870.0H260.0V80.0Z"/></g>
<g fill="black" opacity=".8" transform="translate(1000 400) scale(0.1 -0.1)"><path d="M0.0 0.0C-4.0 -120.0 -16.0 -248.0 -49.0 -326.0C-21.0 -336.0 34.0 -357.0 58.0 -373.0C92.0 -287.0 108.0 -149.0 115.0 -16.0ZM373.0 -120.0 369.0 -245.0 756.0 -252.0 759.0 -125.0ZM330.0 -334.0V-464.0H908.0L909.0 -334.0ZM124.0 78.0V-875.0H260.0V78.0Z"/></g>
<g fill="red" transform="translate(1100 400) scale(0.1 -0.1)"><path d="M0.0 0.0C-17.0 -129.0 -44.0 -257.0 -90.0 -345.0C-81.0 -348.0 -67.0 -355.0 -61.0 -359.0C-18.0 -270.0 11.0 -138.0 30.0 -5.0ZM358.0 -99.0V-129.0H783.0V-99.0ZM280.0 -323.0V-352.0H823.0V-323.0ZM108.0 73.0V-826.0H138.0V73.0Z"/></g>
<g fill="black" opacity=".8" transform="translate(1100 400) scale(0.1 -0.1)"><path d="M0.0 0.0C-16.0 -128.0 -43.0 -256.0 -87.0 -345.0C-77.0 -346.0 -63.0 -354.0 -56.0 -358.0C-16.0 -269.0 13.0 -137.0 32.0 -5.0ZM357.0 -99.0 356.0 -131.0 792.0 -127.0V-95.0ZM270.0 -321.0 265.0 -352.0H828.0L832.0 -322.0ZM103.0 73.0V-825.0H134.0V73.0Z"/></g>
<g fill="red" transform="translate(1200 400) scale(0.1 -0.1)"><path d="M0.0 0.0C-8.0 -120.0 -25.0 -250.0 -56.0 -330.0C-28.0 -341.0 26.0 -366.0 50.0 -381.0C82.0 -292.0 105.0 -152.0 116.0 -18.0ZM428.0 -62.0V-191.0H865.0V-62.0ZM330.0 -299.0V-429.0H907.0V-299.0ZM120.0 78.0V-872.0H246.0V78.0Z"/></g>
<g fill="black" opacity=".8" transform="translate(1200 400) scale(0.1 -0.1)"><path d="M0.0 0.0C-9.0 -119.0 -30.0 -247.0 -63.0 -327.0C-34.0 -338.0 24.0 -363.0 48.0 -380.0C80.0 -291.0 106.0 -152.0 120.0 -21.0ZM429.0 -67.0 428.0 -193.0 858.0 -190.0V-63.0ZM344.0 -303.0V-430.0H898.0L899.0 -303.0ZM120.0 80.0V-873.0H258.0V80.0Z"/></g>
<g fill="red" transform="translate(1300 400) scale(0.1 -0.1)"><path d="M0.0 0.0C-48.0 -88.0 -145.0 -182.0 -228.0 -223.0C-221.0 -229.0 -212.0 -238.0 -207.0 -246.0C-124.0 -199.0 -27.0 -103.0 23.0 -11.0ZM-220.0 11.0V-19.0H266.0V11.0ZM-65.0 -350.0V-379.0H566.0V-350.0ZM204.0 -241.0V-713.0H234.0V-241.0Z"/></g>
<g fill="black" opacity=".8" transform="translate(1300 400) scale(0.1 -0.1)"><path d="M0.0 0.0C-48.0 -89.0 -145.0 -182.0 -228.0 -224.0C-221.0 -229.0 -215.0 -239.0 -208.0 -245.0C-125.0 -198.0 -28.0 -104.0 24.0 -10.0ZM-220.0 2.0 -221.0 -27.0 263.0 -21.0V11.0ZM-70.0 -352.0 -69.0 -381.0 567.0 -382.0 565.0 -355.0ZM195.0 -235.0V-714.0H224.0V-235.0Z"/></g>
<g fill="red" transform="translate(1400 400) scale(0.1 -0.1)"><path d="M0.0 0.0C-44.0 -64.0 -127.0 -132.0 -202.0 -170.0C-175.0 -192.0 -136.0 -236.0 -117.0 -264.0C-39.0 -214.0 45.0 -122.0 93.0 -37.0ZM-186.0 50.0V-55.0H296.0V50.0ZM-13.0 -319.0V-438.0H636.0V-319.0ZM190.0 -239.0V-734.0H341.0V-239.0Z"/></g>
<g fill="black" opacity=".8" transform="translate(1400 400) scale(0.1 -0.1)"><path d="M0.0 0.0C-43.0 -65.0 -126.0 -132.0 -200.0 -169.0C-175.0 -191.0 -136.0 -232.0 -119.0 -259.0C-41.0 -210.0 42.0 -120.0 92.0 -36.0ZM-183.0 53.0 -182.0 -57.0 300.0 -49.0 298.0 62.0ZM-11.0 -317.0 -9.0 -437.0H637.0L636.0 -317.0ZM203.0 -246.0V-733.0H344.0V-246.0Z"/></g>
<g fill="red" transform="translate(1500 400) scale(0.1 -0.1)"><path d="M0.0 0.0C-42.0 -87.0 -126.0 -179.0 -203.0 -220.0C-195.0 -225.0 -186.0 -234.0 -181.0 -242.0C-106.0 -196.0 -20.0 -101.0 24.0 -10.0ZM322.0 66.0V36.0H644.0V66.0ZM-42.0 -364.0V-393.0H589.0V-364.0ZM232.0 -260.0V-723.0H262.0V-260.0Z"/></g>
<g fill="black" opacity=".8" transform="translate(1500 400) scale(0.1 -0.1)"><path d="M0.0 0.0C-48.0 -78.0 -135.0 -171.0 -198.0 -222.0C-188.0 -225.0 -179.0 -235.0 -172.0 -241.0C-114.0 -187.0 -27.0 -91.0 26.0 -10.0ZM321.0 64.0 317.0 34.0 641.0 40.0V73.0ZM-34.0 -359.0 -33.0 -389.0H603.0L601.0 -362.0ZM237.0 -260.0V-718.0H268.0V-260.0Z"/></g>
<g fill="red" transform="translate(1600 400) scale(0.1 -0.1)"><path d="M0.0 0.0C-42.0 -64.0 -121.0 -132.0 -193.0 -170.0C-166.0 -192.0 -127.0 -235.0 -108.0 -264.0C-33.0 -213.0 47.0 -122.0 93.0 -36.0ZM358.0 122.0V4.0H642.0V122.0ZM6.0 -307.0V-424.0H664.0V-307.0ZM209.0 -232.0V-727.0H355.0V-232.0Z"/></g>
<g fill="black" opacity=".8" transform="translate(1600 400) scale(0.1 -0.1)"><path d="M0.0 0.0C-45.0 -62.0 -132.0 -135.0 -194.0 -178.0C-167.0 -200.0 -121.0 -244.0 -101.0 -272.0C-42.0 -216.0 48.0 -122.0 104.0 -42.0ZM365.0 115.0 352.0 1.0 644.0 8.0 642.0 123.0ZM-3.0 -310.0 -1.0 -429.0H655.0L653.0 -311.0ZM201.0 -237.0V-729.0H350.0V-237.0Z"/></g>
<g fill="red" transform="translate(100 500) scale(0.1 -0.1)"><path d="M0.0 0.0C-10.0 -128.0 -26.0 -257.0 -60.0 -345.0C-52.0 -348.0 -38.0 -355.0 -32.0 -358.0C0.0 -269.0 19.0 -136.0 29.0 -4.0ZM301.0 -42.0V-72.0H816.0V-42.0ZM257.0 -338.0V-368.0H843.0V-338.0ZM105.0 73.0V-826.0H134.0V73.0Z"/></g>
<g fill="black" opacity=".8" transform="translate(100 500) scale(0.1 -0.1)"><path d="M0.0 0.0C-13.0 -127.0 -34.0 -253.0 -74.0 -342.0C-64.0 -344.0 -50.0 -352.0 -43.0 -355.0C-7.0 -267.0 17.0 -136.0 33.0 -5.0ZM300.0 -39.0 299.0 -71.0 813.0 -68.0 814.0 -35.0ZM267.0 -336.0 256.0 -369.0H834.0L843.0 -337.0ZM103.0 79.0V-825.0H135.0V79.0Z"/></g>
<g fill="red" transform="translate(200 500) scale(0.1 -0.1)"><path d="M0.0 0.0C-6.0 -120.0 -21.0 -251.0 -46.0 -330.0C-19.0 -341.0 32.0 -364.0 56.0 -381.0C81.0 -293.0 100.0 -153.0 109.0 -20.0ZM366.0 2.0V-119.0H886.0V2.0ZM339.0 -318.0V-442.0H915.0V-318.0ZM125.0 80.0V-870.0H258.0V80.0Z"/></g>
<g fill="black" opacity=".8" transform="translate(200 500) scale(0.1 -0.1)"><path d="M0.0 0.0C-6.0 -117.0 -21.0 -244.0 -49.0 -323.0C-20.0 -333.0 42.0 -355.0 69.0 -370.0C94.0 -284.0 114.0 -148.0 125.0 -20.0ZM370.0 -1.0V-129.0L889.0 -127.0L888.0 3.0ZM343.0 -319.0 339.0 -449.0 913.0 -448.0 917.0 -318.0ZM123.0 82.0V-873.0H264.0V82.0Z"/></g>
<g fill="red" transform="translate(300 500) scale(0.1 -0.1)"><path d="M0.0 0.0C-40.0 -83.0 -100.0 -168.0 -165.0 -226.0C-156.0 -230.0 -142.0 -239.0 -137.0 -243.0C-76.0 -184.0 -14.0 -95.0 30.0 -7.0ZM-43.0 -104.0 -61.0 -134.0H531.0V-104.0ZM-210.0 -257.0V-287.0H607.0V-257.0ZM404.0 -358.0V-892.0H433.0V-358.0Z"/></g>
<g fill="black" opacity=".8" transform="translate(300 500) scale(0.1 -0.1)"><path d="M0.0 0.0C-38.0 -83.0 -100.0 -166.0 -164.0 -225.0C-155.0 -228.0 -142.0 -236.0 -136.0 -241.0C-75.0 -182.0 -12.0 -94.0 31.0 -7.0ZM-47.0 -105.0 -65.0 -137.0 528.0 -141.0V-108.0ZM-216.0 -258.0 -219.0 -288.0 611.0 -290.0V-260.0ZM402.0 -352.0V-894.0H432.0V-352.0Z"/></g>
<g fill="red" transform="translate(400 500) scale(0.1 -0.1)"><path d="M0.0 0.0C-29.0 -65.0 -82.0 -133.0 -139.0 -176.0C-106.0 -193.0 -50.0 -230.0 -22.0 -254.0C33.0 -202.0 96.0 -118.0 134.0 -38.0ZM15.0 -77.0 -58.0 -198.0H592.0V-77.0ZM-185.0 -246.0V-369.0H716.0V-246.0ZM427.0 -389.0V-947.0H566.0V-389.0Z"/></g>
<g fill="black" opacity=".8" transform="translate(400 500) scale(0.1 -0.1)"><path d="M0.0 0.0C-27.0 -65.0 -81.0 -131.0 -139.0 -173.0C-108.0 -191.0 -52.0 -231.0 -26.0 -255.0C32.0 -203.0 95.0 -118.0 134.0 -36.0ZM19.0 -74.0 -52.0 -187.0 594.0 -193.0 596.0 -80.0ZM-179.0 -248.0 -178.0 -366.0H713.0L712.0 -248.0ZM425.0 -393.0V-947.0H570.0V-393.0Z"/></g>
<g fill="red" transform="translate(500 500) scale(0.1 -0.1)"><path d="M0.0 0.0C-13.0 -129.0 -32.0 -258.0 -68.0 -345.0C-60.0 -349.0 -45.0 -359.0 -39.0 -364.0C-6.0 -275.0 17.0 -141.0 31.0 -6.0ZM265.0 -24.0V-53.0H816.0V-24.0ZM258.0 -582.0V-612.0H832.0V-582.0ZM98.0 73.0V-826.0H129.0V73.0Z"/></g>
<g fill="black" opacity=".8" transform="translate(500 500) scale(0.1 -0.1)"><path d="M0.0 0.0C-10.0 -133.0 -26.0 -262.0 -66.0 -351.0C-58.0 -353.0 -44.0 -362.0 -37.0 -366.0C-1.0 -276.0 19.0 -143.0 31.0 -4.0ZM274.0 -23.0 277.0 -53.0 825.0 -56.0 826.0 -25.0ZM266.0 -581.0 262.0 -612.0 830.0 -613.0 833.0 -583.0ZM101.0 76.0V-822.0H132.0V76.0Z"/></g>
<g fill="red" transform="translate(600 500) scale(0.1 -0.1)"><path d="M0.0 0.0C-6.0 -120.0 -21.0 -251.0 -46.0 -330.0C-19.0 -341.0 32.0 -364.0 56.0 -381.0C81.0 -293.0 100.0 -153.0 109.0 -20.0ZM340.0 -1.0V-119.0H910.0V-1.0ZM331.0 -582.0V-695.0H918.0V-582.0ZM125.0 80.0V-870.0H247.0V80.0Z"/></g>
<g fill="black" opacity=".8" transform="translate(600 500) scale(0.1 -0.1)"><path d="M0.0 0.0C-4.0 -121.0 -18.0 -249.0 -48.0 -328.0C-23.0 -340.0 28.0 -364.0 49.0 -381.0C81.0 -293.0 100.0 -152.0 109.0 -17.0ZM322.0 0.0 332.0 -115.0 902.0 -120.0 904.0 -3.0ZM327.0 -578.0 326.0 -697.0 916.0 -696.0 917.0 -578.0ZM118.0 76.0V-873.0H247.0V76.0Z"/></g>
<g fill="red" transform="translate(700 500) scale(0.1 -0.1)"><path d="M0.0 0.0C-34.0 -74.0 -88.0 -144.0 -149.0 -194.0C-140.0 -198.0 -126.0 -206.0 -122.0 -210.0C-65.0 -160.0 -8.0 -84.0 29.0 -7.0ZM254.0 338.0V309.0H691.0V338.0ZM-40.0 -76.0V-105.0H587.0V-76.0ZM227.0 22.0V-432.0H257.0V22.0Z"/></g>
<g fill="black" opacity=".8" transform="translate(700 500) scale(0.1 -0.1)"><path d="M0.0 0.0C-35.0 -73.0 -89.0 -148.0 -143.0 -203.0C-134.0 -206.0 -122.0 -214.0 -116.0 -218.0C-67.0 -163.0 -11.0 -83.0 29.0 -7.0ZM254.0 343.0 253.0 315.0H697.0V345.0ZM-37.0 -79.0 -35.0 -106.0 589.0 -108.0 586.0 -81.0ZM226.0 17.0V-429.0H254.0V17.0Z"/></g>
<g fill="red" transform="translate(800 500) scale(0.1 -0.1)"><path d="M0.0 0.0C-29.0 -67.0 -86.0 -134.0 -149.0 -176.0C-115.0 -193.0 -55.0 -231.0 -27.0 -255.0C35.0 -204.0 101.0 -121.0 139.0 -37.0ZM305.0 378.0V266.0H751.0V378.0ZM17.0 -71.0V-185.0H670.0V-71.0ZM220.0 1.0V-476.0H366.0V1.0Z"/></g>
<g fill="black" opacity=".8" transform="translate(800 500) scale(0.1 -0.1)"><path d="M0.0 0.0C-30.0 -66.0 -88.0 -135.0 -145.0 -179.0C-114.0 -196.0 -54.0 -233.0 -27.0 -256.0C26.0 -202.0 93.0 -118.0 134.0 -37.0ZM307.0 371.0 301.0 264.0 746.0 262.0V371.0ZM10.0 -70.0 13.0 -177.0 673.0 -178.0 670.0 -71.0ZM225.0 -1.0V-474.0H362.0V-1.0Z"/></g>
<g fill="red" transform="translate(900 500) scale(0.1 -0.1)"><path d="M0.0 0.0C-10.0 -169.0 -56.0 -242.0 -235.0 -281.0C-229.0 -287.0 -219.0 -299.0 -216.0 -306.0C-33.0 -261.0 18.0 -182.0 30.0 0.0ZM-65.0 -509.0V-539.0H553.0V-509.0ZM-218.0 -682.0V-711.0H651.0V-682.0ZM197.0 -401.0V-903.0H227.0V-401.0Z"/></g>
<g fill="black" opacity=".8" transform="translate(900 500) scale(0.1 -0.1)"><path d="M0.0 0.0C-24.0 -149.0 -79.0 -238.0 -219.0 -293.0C-212.0 -297.0 -200.0 -309.0 -196.0 -314.0C-57.0 -254.0 3.0 -162.0 30.0 -2.0ZM-67.0 -512.0 -66.0 -541.0 544.0 -531.0V-501.0ZM-225.0 -679.0 -215.0 -706.0 663.0 -709.0 653.0 -682.0ZM193.0 -409.0V-891.0H223.0V-409.0Z"/></g>
<g fill="red" transform="translate(1000 500) scale(0.1 -0.1)"><path d="M0.0 0.0C-6.0 -137.0 -20.0 -209.0 -190.0 -250.0C-165.0 -273.0 -133.0 -320.0 -122.0 -351.0C86.0 -292.0 117.0 -182.0 125.0 0.0ZM3.0 -522.0V-640.0H616.0V-522.0ZM-169.0 -706.0V-832.0H723.0V-706.0ZM203.0 -455.0V-950.0H349.0V-455.0Z"/></g>
<g fill="black" opacity=".8" transform="translate(1000 500) scale(0.1 -0.1)"><path d="M0.0 0.0C-16.0 -129.0 -50.0 -217.0 -185.0 -268.0C-159.0 -289.0 -116.0 -336.0 -101.0 -363.0C57.0 -296.0 107.0 -177.0 130.0 -13.0ZM2.0 -536.0 7.0 -642.0 621.0 -628.0 617.0 -523.0ZM-178.0 -716.0 -171.0 -826.0 728.0 -827.0 721.0 -716.0ZM202.0 -463.0V-952.0H348.0V-463.0Z"/></g>
<g fill="red" transform="translate(1100 500) scale(0.1 -0.1)"><path d="M0.0 0.0C-49.0 -75.0 -147.0 -153.0 -231.0 -188.0C-224.0 -193.0 -215.0 -202.0 -210.0 -210.0C-127.0 -171.0 -27.0 -90.0 24.0 -11.0ZM-207.0 17.0V-12.0H212.0V17.0ZM-121.0 -237.0V-266.0H647.0V-237.0ZM268.0 -285.0V-690.0H297.0V-285.0Z"/></g>
<g fill="black" opacity=".8" transform="translate(1100 500) scale(0.1 -0.1)"><path d="M0.0 0.0C-46.0 -79.0 -141.0 -155.0 -232.0 -187.0C-225.0 -192.0 -217.0 -202.0 -212.0 -210.0C-121.0 -172.0 -24.0 -94.0 25.0 -10.0ZM-203.0 26.0 -205.0 -5.0 220.0 -10.0 221.0 22.0ZM-113.0 -236.0 -119.0 -265.0H643.0L648.0 -237.0ZM276.0 -294.0V-690.0H305.0V-294.0Z"/></g>
<g fill="red" transform="translate(1200 500) scale(0.1 -0.1)"><path d="M0.0 0.0C-43.0 -54.0 -126.0 -106.0 -206.0 -132.0C-180.0 -154.0 -144.0 -197.0 -127.0 -225.0C-41.0 -187.0 46.0 -112.0 96.0 -37.0ZM-171.0 50.0V-48.0H266.0V50.0ZM-57.0 -232.0V-343.0H731.0V-232.0ZM311.0 -354.0V-741.0H450.0V-354.0Z"/></g>
<g fill="black" opacity=".8" transform="translate(1200 500) scale(0.1 -0.1)"><path d="M0.0 0.0C-41.0 -56.0 -120.0 -105.0 -207.0 -132.0C-182.0 -154.0 -146.0 -198.0 -131.0 -227.0C-36.0 -188.0 46.0 -112.0 95.0 -35.0ZM-175.0 48.0 -180.0 -50.0 259.0 -57.0 261.0 42.0ZM-57.0 -232.0 -59.0 -344.0H731.0L732.0 -232.0ZM303.0 -348.0V-740.0H443.0V-348.0Z"/></g>
<g fill="red" transform="translate(1300 500) scale(0.1 -0.1)"><path d="M0.0 0.0C-11.0 -127.0 -27.0 -256.0 -64.0 -345.0C-56.0 -348.0 -41.0 -354.0 -35.0 -358.0C-2.0 -268.0 18.0 -137.0 30.0 -4.0ZM305.0 -169.0V-199.0H791.0V-169.0ZM231.0 -504.0V-534.0H845.0V-504.0ZM100.0 55.0V-844.0H129.0V55.0Z"/></g>
<g fill="black" opacity=".8" transform="translate(1300 500) scale(0.1 -0.1)"><path d="M0.0 0.0C-8.0 -126.0 -22.0 -249.0 -61.0 -334.0C-52.0 -336.0 -39.0 -343.0 -33.0 -347.0C2.0 -262.0 19.0 -135.0 29.0 -4.0ZM307.0 -165.0 306.0 -193.0 799.0 -197.0 800.0 -167.0ZM237.0 -506.0 239.0 -535.0 842.0 -536.0 839.0 -509.0ZM107.0 46.0V-845.0H136.0V46.0Z"/></g>
<g fill="red" transform="translate(1400 500) scale(0.1 -0.1)"><path d="M0.0 0.0C-4.0 -107.0 -15.0 -223.0 -40.0 -297.0C-14.0 -309.0 35.0 -336.0 55.0 -352.0C84.0 -269.0 102.0 -139.0 109.0 -18.0ZM360.0 -157.0V-252.0H878.0V-157.0ZM299.0 -523.0V-620.0H912.0V-523.0ZM128.0 40.0V-901.0H258.0V40.0Z"/></g>
<g fill="black" opacity=".8" transform="translate(1400 500) scale(0.1 -0.1)"><path d="M0.0 0.0C-2.0 -116.0 -11.0 -239.0 -40.0 -315.0C-17.0 -325.0 32.0 -346.0 52.0 -360.0C83.0 -276.0 96.0 -143.0 101.0 -15.0ZM357.0 -151.0 351.0 -259.0 869.0 -265.0 871.0 -156.0ZM293.0 -515.0 296.0 -622.0H921.0L918.0 -515.0ZM126.0 44.0V-898.0H248.0V44.0Z"/></g>
<g fill="red" transform="translate(1500 500) scale(0.1 -0.1)"><path d="M0.0 0.0C-11.0 -128.0 -28.0 -257.0 -64.0 -345.0C-56.0 -348.0 -41.0 -355.0 -35.0 -359.0C-2.0 -269.0 18.0 -137.0 30.0 -4.0ZM313.0 -92.0V-122.0H790.0V-92.0ZM343.0 -428.0H754.0V-483.0H343.0ZM106.0 76.0V-823.0H135.0V76.0Z"/></g>
<g fill="black" opacity=".8" transform="translate(1500 500) scale(0.1 -0.1)"><path d="M0.0 0.0C-10.0 -130.0 -27.0 -257.0 -65.0 -344.0C-57.0 -347.0 -44.0 -355.0 -36.0 -358.0C-1.0 -269.0 19.0 -138.0 31.0 -3.0ZM313.0 -92.0V-122.0L790.0 -123.0L792.0 -91.0ZM344.0 -427.0 753.0 -428.0V-484.0H344.0ZM106.0 76.0V-823.0H136.0V76.0Z"/></g>
<g fill="red" transform="translate(1600 500) scale(0.1 -0.1)"><path d="M0.0 0.0C-4.0 -118.0 -14.0 -246.0 -38.0 -326.0C-12.0 -336.0 37.0 -359.0 59.0 -373.0C85.0 -285.0 101.0 -146.0 107.0 -16.0ZM361.0 -74.0V-155.0H870.0V-74.0ZM492.0 -486.0H731.0V-508.0H492.0ZM124.0 78.0V-872.0H249.0V78.0Z"/></g>
<g fill="black" opacity=".8" transform="translate(1600 500) scale(0.1 -0.1)"><path d="M0.0 0.0C-3.0 -119.0 -12.0 -245.0 -39.0 -324.0C-13.0 -334.0 37.0 -358.0 57.0 -371.0C87.0 -284.0 102.0 -146.0 108.0 -15.0ZM361.0 -72.0V-155.0L869.0 -156.0L870.0 -74.0ZM493.0 -486.0 732.0 -487.0 730.0 -509.0 491.0 -508.0ZM123.0 78.0V-872.0H249.0V78.0Z"/></g>
<g fill="red" transform="translate(100 600) scale(0.1 -0.1)"><path d="M0.0 0.0C-11.0 -127.0 -28.0 -256.0 -64.0 -345.0C-56.0 -348.0 -41.0 -354.0 -36.0 -358.0C-2.0 -268.0 17.0 -137.0 30.0 -4.0ZM226.0 -251.0V-280.0H831.0V-251.0ZM217.0 -413.0V-443.0H827.0V-413.0ZM97.0 55.0V-844.0H126.0V55.0Z"/></g>
<g fill="black" opacity=".8" transform="translate(100 600) scale(0.1 -0.1)"><path d="M0.0 0.0C-11.0 -128.0 -25.0 -250.0 -70.0 -338.0C-62.0 -338.0 -48.0 -345.0 -43.0 -348.0C-1.0 -260.0 16.0 -136.0 28.0 -3.0ZM225.0 -258.0 223.0 -284.0 830.0 -279.0V-251.0ZM222.0 -415.0 221.0 -443.0 830.0 -444.0V-417.0ZM96.0 59.0V-844.0H124.0V59.0Z"/></g>
<g fill="red" transform="translate(200 600) scale(0.1 -0.1)"><path d="M0.0 0.0C-5.0 -115.0 -16.0 -239.0 -42.0 -318.0C-16.0 -330.0 31.0 -356.0 52.0 -371.0C81.0 -284.0 99.0 -146.0 107.0 -17.0ZM287.0 -255.0V-343.0H922.0V-255.0ZM287.0 -449.0V-531.0H922.0V-449.0ZM119.0 51.0V-899.0H244.0V51.0Z"/></g>
<g fill="black" opacity=".8" transform="translate(200 600) scale(0.1 -0.1)"><path d="M0.0 0.0C-2.0 -121.0 -9.0 -246.0 -43.0 -324.0C-19.0 -333.0 31.0 -354.0 51.0 -367.0C88.0 -282.0 101.0 -146.0 108.0 -13.0ZM294.0 -249.0 285.0 -351.0 924.0 -345.0 922.0 -242.0ZM285.0 -442.0 286.0 -539.0H920.0L919.0 -442.0ZM127.0 51.0V-901.0H242.0V51.0Z"/></g>
<g fill="red" transform="translate(300 600) scale(0.1 -0.1)"><path d="M0.0 0.0C-35.0 -98.0 -91.0 -194.0 -155.0 -259.0C-147.0 -263.0 -134.0 -273.0 -129.0 -278.0C-67.0 -210.0 -9.0 -110.0 30.0 -7.0ZM381.0 -225.0V-255.0H704.0V-225.0ZM28.0 -580.0V-609.0H681.0V-580.0ZM295.0 -492.0V-902.0H325.0V-492.0Z"/></g>
<g fill="black" opacity=".8" transform="translate(300 600) scale(0.1 -0.1)"><path d="M0.0 0.0C-28.0 -110.0 -82.0 -197.0 -168.0 -255.0C-159.0 -258.0 -148.0 -269.0 -142.0 -275.0C-59.0 -215.0 -3.0 -121.0 31.0 -6.0ZM384.0 -225.0 383.0 -256.0 708.0 -253.0V-221.0ZM35.0 -581.0 26.0 -612.0H668.0L674.0 -582.0ZM292.0 -491.0V-904.0H323.0V-491.0Z"/></g>
<g fill="red" transform="translate(400 600) scale(0.1 -0.1)"><path d="M0.0 0.0C-30.0 -88.0 -85.0 -172.0 -149.0 -226.0C-128.0 -250.0 -94.0 -305.0 -81.0 -330.0C-2.0 -259.0 68.0 -145.0 109.0 -30.0ZM444.0 -216.0V-298.0H746.0V-216.0ZM63.0 -569.0V-669.0H712.0V-569.0ZM267.0 -522.0V-950.0H413.0V-522.0Z"/></g>
<g fill="black" opacity=".8" transform="translate(400 600) scale(0.1 -0.1)"><path d="M0.0 0.0C-24.0 -90.0 -71.0 -167.0 -153.0 -215.0C-132.0 -239.0 -97.0 -289.0 -84.0 -317.0C15.0 -252.0 75.0 -145.0 110.0 -26.0ZM442.0 -210.0 444.0 -312.0 745.0 -309.0 744.0 -207.0ZM68.0 -562.0 65.0 -676.0 715.0 -675.0 718.0 -562.0ZM274.0 -515.0V-951.0H416.0V-515.0Z"/></g>
<g fill="red" transform="translate(500 600) scale(0.1 -0.1)"><path d="M0.0 0.0C-34.0 -81.0 -89.0 -159.0 -151.0 -214.0C-142.0 -218.0 -129.0 -226.0 -123.0 -230.0C-66.0 -175.0 -8.0 -92.0 29.0 -6.0ZM234.0 408.0V379.0H601.0V408.0ZM-46.0 -98.0V-127.0H563.0V-98.0ZM221.0 11.0V-452.0H251.0V11.0Z"/></g>
<g fill="black" opacity=".8" transform="translate(500 600) scale(0.1 -0.1)"><path d="M0.0 0.0C-34.0 -79.0 -92.0 -156.0 -154.0 -208.0C-145.0 -211.0 -134.0 -221.0 -128.0 -225.0C-69.0 -172.0 -9.0 -90.0 30.0 -7.0ZM234.0 400.0 235.0 371.0 591.0 369.0V399.0ZM-58.0 -96.0V-124.0L566.0 -125.0L565.0 -98.0ZM217.0 14.0V-454.0H245.0V14.0Z"/></g>
<g fill="red" transform="translate(600 600) scale(0.1 -0.1)"><path d="M0.0 0.0C-32.0 -71.0 -94.0 -141.0 -162.0 -184.0C-128.0 -202.0 -69.0 -240.0 -40.0 -264.0C26.0 -211.0 97.0 -125.0 139.0 -37.0ZM277.0 410.0V296.0H620.0V410.0ZM-16.0 -81.0V-199.0H651.0V-81.0ZM213.0 -10.0V-514.0H359.0V-10.0Z"/></g>
<g fill="black" opacity=".8" transform="translate(600 600) scale(0.1 -0.1)"><path d="M0.0 0.0C-31.0 -72.0 -91.0 -143.0 -157.0 -186.0C-125.0 -203.0 -65.0 -241.0 -39.0 -267.0C26.0 -212.0 94.0 -125.0 135.0 -36.0ZM280.0 420.0 281.0 307.0 628.0 303.0 629.0 418.0ZM-7.0 -85.0 -5.0 -201.0H649.0L648.0 -86.0ZM220.0 -11.0V-513.0H362.0V-11.0Z"/></g>
<g fill="red" transform="translate(700 600) scale(0.1 -0.1)"><path d="M0.0 0.0C-17.0 -91.0 -46.0 -181.0 -86.0 -243.0C-78.0 -247.0 -64.0 -255.0 -58.0 -259.0C-20.0 -195.0 10.0 -100.0 31.0 -6.0ZM412.0 72.0V43.0H695.0V72.0ZM341.0 -55.0V-85.0H722.0V-55.0ZM114.0 19.0V-585.0H143.0V19.0Z"/></g>
<g fill="black" opacity=".8" transform="translate(700 600) scale(0.1 -0.1)"><path d="M0.0 0.0C-16.0 -91.0 -42.0 -185.0 -75.0 -253.0C-66.0 -254.0 -53.0 -262.0 -47.0 -264.0C-17.0 -197.0 10.0 -99.0 30.0 -5.0ZM418.0 71.0 421.0 41.0 701.0 44.0V74.0ZM341.0 -58.0 346.0 -87.0 715.0 -88.0 707.0 -61.0ZM118.0 10.0V-579.0H146.0V10.0Z"/></g>
<g fill="red" transform="translate(800 600) scale(0.1 -0.1)"><path d="M0.0 0.0C-9.0 -81.0 -27.0 -167.0 -57.0 -223.0C-29.0 -234.0 24.0 -260.0 48.0 -277.0C80.0 -215.0 105.0 -116.0 117.0 -22.0ZM506.0 122.0V11.0H759.0V122.0ZM432.0 -25.0V-141.0H734.0V-25.0ZM131.0 11.0V-610.0H261.0V11.0Z"/></g>
<g fill="black" opacity=".8" transform="translate(800 600) scale(0.1 -0.1)"><path d="M0.0 0.0C-10.0 -82.0 -31.0 -174.0 -55.0 -233.0C-30.0 -244.0 21.0 -269.0 44.0 -284.0C67.0 -217.0 94.0 -115.0 110.0 -22.0ZM488.0 120.0 505.0 13.0 753.0 15.0 752.0 123.0ZM423.0 -21.0 428.0 -132.0 752.0 -133.0 746.0 -22.0ZM127.0 8.0V-610.0H253.0V8.0Z"/></g>
</svg>
