<?xml version="1.0" encoding="UTF-8"?>
<svg width="1700" height="300" xmlns="http://www.w3.org/2000/svg">
<rect width="100%" height="100%" fill="white"/>
<g fill="green" transform="translate(100 100) scale(0.1 -0.1)"><path d="M0.0 -0.0C-90.0 -310.0 -284.0 -516.0 -562.0 -638.0C-552.0 -647.0 -533.0 -665.0 -528.0 -672.0C-252.0 -539.0 -54.0 -332.0 43.0 -10.0ZM-378.0 -4.0 -416.0 -17.0C-321.0 -308.0 -127.0 -547.0 123.0 -655.0C131.0 -643.0 144.0 -626.0 154.0 -619.0C-95.0 -523.0 -289.0 -287.0 -378.0 -4.0ZM-440.0 425.0C-245.0 331.0 -23.0 172.0 85.0 59.0L114.0 94.0C6.0 204.0 -218.0 360.0 -413.0 454.0ZM14.0 508.0C-99.0 317.0 -289.0 156.0 -490.0 54.0C-478.0 46.0 -459.0 27.0 -454.0 20.0C-260.0 130.0 -64.0 293.0 54.0 496.0Z"/></g>
<g fill="green" transform="translate(200 100) scale(0.1 -0.1)"><path d="M0.0 0.0C-73.0 -263.0 -251.0 -432.0 -521.0 -521.0C-485.0 -561.0 -426.0 -649.0 -406.0 -694.0C-107.0 -572.0 96.0 -363.0 198.0 -39.0ZM-224.0 -8.0 -402.0 -53.0C-300.0 -349.0 -136.0 -572.0 133.0 -688.0C160.0 -636.0 219.0 -560.0 262.0 -521.0C20.0 -433.0 -145.0 -241.0 -224.0 -8.0ZM-438.0 341.0C-240.0 248.0 -7.0 97.0 120.0 -17.0L247.0 145.0C113.0 250.0 -116.0 396.0 -315.0 483.0ZM7.0 527.0C-91.0 338.0 -277.0 185.0 -487.0 97.0C-443.0 62.0 -367.0 -14.0 -335.0 -53.0C-127.0 58.0 81.0 239.0 202.0 467.0Z"/></g>
<g fill="green" transform="translate(300 100) scale(0.1 -0.1)"><path d="M0.0 0.0C-52.0 -207.0 -173.0 -345.0 -349.0 -428.0C-342.0 -434.0 -328.0 -447.0 -325.0 -452.0C-150.0 -361.0 -26.0 -221.0 31.0 -6.0ZM-231.0 0.0 -259.0 -9.0C-201.0 -201.0 -82.0 -362.0 73.0 -437.0C79.0 -428.0 88.0 -415.0 95.0 -411.0C-59.0 -346.0 -178.0 -187.0 -231.0 0.0ZM-255.0 309.0C-138.0 241.0 -9.0 130.0 51.0 51.0L72.0 76.0C11.0 152.0 -118.0 261.0 -236.0 328.0ZM6.0 358.0C-62.0 228.0 -169.0 117.0 -290.0 45.0C-281.0 39.0 -266.0 25.0 -263.0 21.0C-149.0 99.0 -35.0 212.0 34.0 351.0Z"/></g>
<g fill="green" transform="translate(400 100) scale(0.1 -0.1)"><path d="M0.0 0.0C-44.0 -175.0 -156.0 -290.0 -330.0 -352.0C-305.0 -379.0 -264.0 -440.0 -251.0 -471.0C-56.0 -386.0 74.0 -242.0 137.0 -24.0ZM-134.0 -6.0 -257.0 -35.0C-195.0 -231.0 -93.0 -383.0 74.0 -464.0C93.0 -428.0 133.0 -378.0 163.0 -351.0C15.0 -290.0 -86.0 -160.0 -134.0 -6.0ZM-274.0 236.0C-150.0 170.0 -4.0 65.0 75.0 -11.0L162.0 103.0C79.0 173.0 -65.0 274.0 -190.0 336.0ZM-3.0 363.0C-64.0 230.0 -175.0 123.0 -304.0 59.0C-272.0 36.0 -215.0 -16.0 -192.0 -42.0C-67.0 39.0 61.0 167.0 133.0 326.0Z"/></g>
<g fill="green" transform="translate(500 100) scale(0.1 -0.1)"><path d="M0.0 0.0C-130.0 -276.0 -385.0 -439.0 -710.0 -528.0C-703.0 -536.0 -691.0 -551.0 -687.0 -558.0C-364.0 -458.0 -108.0 -297.0 32.0 -12.0ZM-488.0 0.0 -516.0 -12.0C-376.0 -267.0 -102.0 -465.0 206.0 -547.0C212.0 -537.0 221.0 -525.0 229.0 -518.0C-80.0 -443.0 -354.0 -247.0 -488.0 0.0ZM-576.0 315.0C-330.0 236.0 -37.0 94.0 112.0 -9.0L133.0 20.0C-15.0 121.0 -311.0 261.0 -554.0 339.0ZM67.0 367.0C-81.0 218.0 -369.0 98.0 -631.0 32.0C-623.0 25.0 -612.0 11.0 -610.0 5.0C-345.0 74.0 -64.0 194.0 96.0 351.0Z"/></g>
<g fill="green" transform="translate(600 100) scale(0.1 -0.1)"><path d="M0.0 0.0C-110.0 -219.0 -357.0 -330.0 -672.0 -379.0C-643.0 -414.0 -596.0 -485.0 -579.0 -525.0C-253.0 -454.0 15.0 -319.0 162.0 -55.0ZM-335.0 1.0 -477.0 -49.0C-338.0 -309.0 -124.0 -466.0 218.0 -529.0C238.0 -485.0 284.0 -415.0 319.0 -379.0C-3.0 -333.0 -226.0 -202.0 -335.0 1.0ZM-559.0 278.0C-315.0 200.0 -28.0 65.0 135.0 -46.0L250.0 80.0C76.0 185.0 -203.0 317.0 -444.0 390.0ZM39.0 422.0C-89.0 279.0 -359.0 155.0 -628.0 95.0C-601.0 62.0 -558.0 -1.0 -538.0 -38.0C-260.0 35.0 15.0 168.0 191.0 343.0Z"/></g>
<g fill="green" transform="translate(700 100) scale(0.1 -0.1)"><path d="M0.0 0.0C-86.0 -323.0 -274.0 -533.0 -560.0 -654.0C-550.0 -663.0 -532.0 -680.0 -527.0 -690.0C-243.0 -556.0 -50.0 -346.0 42.0 -10.0ZM-370.0 -23.0 -406.0 -34.0C-319.0 -326.0 -140.0 -565.0 102.0 -671.0C109.0 -660.0 122.0 -644.0 132.0 -637.0C-109.0 -541.0 -287.0 -306.0 -370.0 -23.0ZM-488.0 354.0C-272.0 274.0 -24.0 127.0 100.0 19.0L127.0 54.0C4.0 161.0 -247.0 304.0 -462.0 386.0ZM-4.0 488.0C-119.0 284.0 -319.0 109.0 -531.0 2.0C-519.0 -7.0 -502.0 -25.0 -497.0 -32.0C-289.0 84.0 -85.0 260.0 37.0 476.0Z"/></g>
<g fill="green" transform="translate(800 100) scale(0.1 -0.1)"><path d="M0.0 0.0C-68.0 -264.0 -232.0 -444.0 -486.0 -540.0C-449.0 -579.0 -390.0 -665.0 -369.0 -709.0C-88.0 -580.0 100.0 -361.0 195.0 -38.0ZM-187.0 -16.0 -363.0 -55.0C-273.0 -360.0 -129.0 -586.0 133.0 -704.0C160.0 -653.0 217.0 -577.0 260.0 -539.0C26.0 -451.0 -119.0 -256.0 -187.0 -16.0ZM-441.0 299.0C-241.0 224.0 -9.0 92.0 118.0 -18.0L246.0 145.0C112.0 247.0 -116.0 374.0 -316.0 444.0ZM-11.0 500.0C-97.0 324.0 -267.0 174.0 -459.0 88.0C-416.0 53.0 -344.0 -22.0 -313.0 -62.0C-115.0 47.0 74.0 225.0 185.0 441.0Z"/></g>
<g fill="green" transform="translate(900 100) scale(0.1 -0.1)"><path d="M0.0 -0.0C-97.0 -295.0 -283.0 -505.0 -548.0 -630.0C-539.0 -638.0 -522.0 -653.0 -518.0 -658.0C-256.0 -525.0 -66.0 -317.0 38.0 -10.0ZM-385.0 -2.0 -418.0 -14.0C-323.0 -312.0 -132.0 -552.0 123.0 -658.0C131.0 -648.0 142.0 -634.0 150.0 -626.0C-104.0 -530.0 -296.0 -292.0 -385.0 -2.0ZM-455.0 411.0C-262.0 325.0 -38.0 179.0 74.0 78.0L100.0 111.0C-12.0 207.0 -240.0 351.0 -430.0 437.0ZM12.0 489.0C-101.0 309.0 -296.0 164.0 -498.0 72.0C-488.0 66.0 -471.0 49.0 -467.0 42.0C-270.0 140.0 -73.0 288.0 47.0 476.0Z"/></g>
<g fill="green" transform="translate(1000 100) scale(0.1 -0.1)"><path d="M0.0 0.0C-69.0 -270.0 -235.0 -441.0 -503.0 -530.0C-469.0 -569.0 -413.0 -652.0 -394.0 -694.0C-99.0 -574.0 91.0 -364.0 187.0 -36.0ZM-241.0 -3.0 -410.0 -52.0C-300.0 -344.0 -128.0 -572.0 136.0 -695.0C163.0 -645.0 221.0 -572.0 263.0 -534.0C19.0 -439.0 -156.0 -238.0 -241.0 -3.0ZM-413.0 353.0C-223.0 259.0 2.0 111.0 125.0 0.0L240.0 145.0C111.0 247.0 -111.0 392.0 -302.0 479.0ZM35.0 525.0C-64.0 339.0 -261.0 200.0 -485.0 124.0C-445.0 90.0 -377.0 18.0 -348.0 -20.0C-125.0 78.0 90.0 244.0 216.0 467.0Z"/></g>
<g fill="red" transform="translate(100 200) scale(0.1 -0.1)"><path d="M0.0 0.0C-132.0 -275.0 -378.0 -443.0 -700.0 -534.0C-693.0 -541.0 -684.0 -554.0 -680.0 -561.0C-360.0 -461.0 -113.0 -297.0 28.0 -12.0ZM-487.0 -11.0 -511.0 -21.0C-376.0 -282.0 -114.0 -481.0 192.0 -560.0C197.0 -552.0 205.0 -542.0 212.0 -535.0C-95.0 -460.0 -357.0 -263.0 -487.0 -11.0ZM-618.0 257.0C-360.0 193.0 -48.0 68.0 114.0 -24.0L132.0 3.0C-29.0 93.0 -346.0 217.0 -598.0 282.0ZM53.0 341.0C-96.0 190.0 -394.0 71.0 -664.0 8.0C-658.0 2.0 -650.0 -10.0 -647.0 -16.0C-372.0 49.0 -84.0 168.0 80.0 324.0Z"/></g>
<g fill="black" opacity=".8" transform="translate(100 200) scale(0.1 -0.1)"><path d="M0.0 0.0C-132.0 -275.0 -378.0 -443.0 -699.0 -534.0C-693.0 -541.0 -683.0 -553.0 -680.0 -561.0C-360.0 -460.0 -113.0 -297.0 28.0 -12.0ZM-487.0 -12.0 -510.0 -22.0C-376.0 -282.0 -114.0 -481.0 192.0 -560.0C197.0 -552.0 205.0 -543.0 211.0 -535.0C-95.0 -460.0 -357.0 -263.0 -487.0 -12.0ZM-619.0 257.0C-360.0 193.0 -48.0 68.0 115.0 -24.0L133.0 4.0C-28.0 94.0 -345.0 217.0 -599.0 282.0ZM53.0 341.0C-96.0 190.0 -394.0 71.0 -664.0 8.0C-658.0 2.0 -649.0 -10.0 -648.0 -16.0C-371.0 49.0 -84.0 168.0 80.0 324.0Z"/></g>
<g fill="red" transform="translate(200 200) scale(0.1 -0.1)"><path d="M0.0 0.0C-104.0 -224.0 -334.0 -344.0 -636.0 -398.0C-608.0 -431.0 -563.0 -499.0 -546.0 -535.0C-235.0 -461.0 15.0 -318.0 152.0 -52.0ZM-321.0 -2.0 -456.0 -50.0C-320.0 -313.0 -114.0 -476.0 220.0 -544.0C241.0 -502.0 285.0 -434.0 319.0 -400.0C1.0 -349.0 -216.0 -209.0 -321.0 -2.0ZM-545.0 258.0C-305.0 191.0 -23.0 71.0 137.0 -35.0L245.0 81.0C74.0 180.0 -200.0 299.0 -436.0 361.0ZM46.0 402.0C-75.0 271.0 -342.0 157.0 -608.0 107.0C-585.0 75.0 -549.0 14.0 -532.0 -23.0C-251.0 40.0 16.0 162.0 189.0 325.0Z"/></g>
<g fill="black" opacity=".8" transform="translate(200 200) scale(0.1 -0.1)"><path d="M0.0 0.0C-104.0 -224.0 -334.0 -344.0 -636.0 -398.0C-608.0 -432.0 -563.0 -498.0 -546.0 -535.0C-235.0 -461.0 14.0 -318.0 153.0 -52.0ZM-321.0 -1.0 -456.0 -50.0C-320.0 -313.0 -114.0 -476.0 220.0 -544.0C240.0 -502.0 284.0 -434.0 318.0 -400.0C0.0 -349.0 -215.0 -210.0 -321.0 -1.0ZM-545.0 257.0C-305.0 191.0 -23.0 71.0 137.0 -36.0L245.0 80.0C74.0 181.0 -200.0 299.0 -436.0 361.0ZM45.0 402.0C-75.0 270.0 -342.0 157.0 -608.0 107.0C-584.0 74.0 -549.0 15.0 -532.0 -22.0C-251.0 41.0 16.0 162.0 189.0 325.0Z"/></g>
<g fill="red" transform="translate(300 200) scale(0.1 -0.1)"><path d="M0.0 0.0C-55.0 -211.0 -180.0 -346.0 -367.0 -425.0C-360.0 -431.0 -348.0 -443.0 -344.0 -449.0C-158.0 -362.0 -30.0 -226.0 29.0 -6.0ZM-240.0 -11.0 -265.0 -19.0C-207.0 -208.0 -87.0 -363.0 70.0 -433.0C75.0 -425.0 84.0 -414.0 91.0 -410.0C-66.0 -347.0 -185.0 -194.0 -240.0 -11.0ZM-303.0 249.0C-167.0 192.0 -12.0 91.0 64.0 17.0L83.0 40.0C7.0 113.0 -149.0 212.0 -285.0 270.0ZM1.0 327.0C-73.0 194.0 -199.0 79.0 -334.0 8.0C-326.0 2.0 -314.0 -10.0 -310.0 -15.0C-179.0 62.0 -49.0 178.0 29.0 319.0Z"/></g>
<g fill="black" opacity=".8" transform="translate(300 200) scale(0.1 -0.1)"><path d="M0.0 0.0C-55.0 -211.0 -179.0 -346.0 -367.0 -424.0C-360.0 -430.0 -347.0 -442.0 -345.0 -449.0C-158.0 -362.0 -30.0 -226.0 29.0 -6.0ZM-240.0 -12.0 -265.0 -19.0C-207.0 -207.0 -87.0 -363.0 70.0 -434.0C75.0 -425.0 84.0 -414.0 90.0 -410.0C-66.0 -347.0 -185.0 -194.0 -240.0 -12.0ZM-303.0 249.0C-166.0 192.0 -11.0 91.0 64.0 16.0L83.0 41.0C7.0 114.0 -149.0 212.0 -286.0 269.0ZM1.0 327.0C-73.0 194.0 -199.0 79.0 -334.0 9.0C-326.0 2.0 -313.0 -11.0 -311.0 -15.0C-179.0 62.0 -49.0 178.0 28.0 320.0Z"/></g>
<g fill="red" transform="translate(400 200) scale(0.1 -0.1)"><path d="M0.0 0.0C-46.0 -170.0 -158.0 -285.0 -326.0 -346.0C-302.0 -372.0 -263.0 -430.0 -249.0 -459.0C-62.0 -376.0 66.0 -235.0 130.0 -25.0ZM-125.0 -10.0 -242.0 -36.0C-183.0 -233.0 -87.0 -379.0 85.0 -454.0C103.0 -420.0 141.0 -370.0 169.0 -345.0C16.0 -289.0 -80.0 -164.0 -125.0 -10.0ZM-291.0 201.0C-160.0 148.0 -7.0 58.0 76.0 -15.0L162.0 95.0C74.0 162.0 -76.0 249.0 -207.0 298.0ZM-10.0 332.0C-68.0 214.0 -179.0 112.0 -304.0 53.0C-275.0 30.0 -225.0 -20.0 -204.0 -46.0C-77.0 28.0 48.0 149.0 121.0 293.0Z"/></g>
<g fill="black" opacity=".8" transform="translate(400 200) scale(0.1 -0.1)"><path d="M0.0 0.0C-45.0 -170.0 -157.0 -285.0 -327.0 -346.0C-302.0 -372.0 -262.0 -429.0 -249.0 -459.0C-62.0 -376.0 66.0 -235.0 130.0 -25.0ZM-124.0 -10.0 -241.0 -36.0C-182.0 -233.0 -87.0 -379.0 85.0 -454.0C103.0 -420.0 140.0 -371.0 169.0 -345.0C16.0 -289.0 -80.0 -165.0 -124.0 -10.0ZM-291.0 201.0C-160.0 148.0 -8.0 58.0 76.0 -15.0L162.0 95.0C74.0 163.0 -76.0 250.0 -207.0 299.0ZM-11.0 332.0C-68.0 213.0 -179.0 112.0 -304.0 53.0C-275.0 30.0 -224.0 -20.0 -204.0 -46.0C-76.0 29.0 48.0 149.0 121.0 293.0Z"/></g>
<g fill="red" transform="translate(500 200) scale(0.1 -0.1)"><path d="M0.0 0.0C-79.0 -226.0 -232.0 -384.0 -443.0 -478.0C-436.0 -484.0 -424.0 -496.0 -420.0 -500.0C-211.0 -400.0 -56.0 -243.0 29.0 -8.0ZM-311.0 1.0 -337.0 -8.0C-257.0 -236.0 -98.0 -419.0 107.0 -499.0C113.0 -491.0 121.0 -480.0 128.0 -474.0C-77.0 -401.0 -236.0 -220.0 -311.0 1.0ZM-360.0 319.0C-208.0 251.0 -30.0 137.0 59.0 57.0L79.0 82.0C-10.0 158.0 -191.0 271.0 -341.0 339.0ZM17.0 371.0C-74.0 236.0 -234.0 127.0 -396.0 59.0C-388.0 54.0 -376.0 41.0 -372.0 36.0C-214.0 108.0 -53.0 219.0 44.0 360.0Z"/></g>
<g fill="black" opacity=".8" transform="translate(500 200) scale(0.1 -0.1)"><path d="M0.0 0.0C-79.0 -226.0 -232.0 -384.0 -443.0 -478.0C-436.0 -484.0 -423.0 -496.0 -421.0 -500.0C-211.0 -399.0 -56.0 -243.0 29.0 -8.0ZM-311.0 1.0 -337.0 -9.0C-257.0 -236.0 -98.0 -419.0 107.0 -499.0C113.0 -491.0 121.0 -480.0 127.0 -474.0C-77.0 -402.0 -237.0 -220.0 -311.0 1.0ZM-360.0 319.0C-207.0 251.0 -29.0 137.0 59.0 57.0L79.0 83.0C-10.0 158.0 -190.0 271.0 -341.0 339.0ZM17.0 371.0C-74.0 236.0 -234.0 127.0 -396.0 59.0C-388.0 54.0 -375.0 41.0 -373.0 36.0C-214.0 108.0 -53.0 219.0 43.0 360.0Z"/></g>
<g fill="red" transform="translate(600 200) scale(0.1 -0.1)"><path d="M0.0 0.0C-58.0 -205.0 -198.0 -331.0 -413.0 -395.0C-387.0 -425.0 -345.0 -489.0 -330.0 -521.0C-95.0 -434.0 63.0 -279.0 143.0 -30.0ZM-202.0 -1.0 -331.0 -40.0C-241.0 -263.0 -100.0 -433.0 114.0 -522.0C135.0 -484.0 179.0 -427.0 211.0 -398.0C12.0 -329.0 -132.0 -179.0 -202.0 -1.0ZM-336.0 273.0C-183.0 199.0 -1.0 83.0 99.0 -4.0L188.0 107.0C83.0 186.0 -96.0 300.0 -249.0 369.0ZM31.0 402.0C-51.0 260.0 -214.0 153.0 -396.0 95.0C-366.0 69.0 -315.0 13.0 -293.0 -16.0C-113.0 58.0 64.0 184.0 168.0 354.0Z"/></g>
<g fill="black" opacity=".8" transform="translate(600 200) scale(0.1 -0.1)"><path d="M0.0 0.0C-58.0 -205.0 -197.0 -330.0 -413.0 -395.0C-387.0 -425.0 -344.0 -488.0 -330.0 -521.0C-95.0 -434.0 63.0 -279.0 143.0 -30.0ZM-202.0 -1.0 -331.0 -40.0C-241.0 -263.0 -100.0 -432.0 114.0 -522.0C135.0 -484.0 178.0 -428.0 211.0 -398.0C12.0 -329.0 -132.0 -180.0 -202.0 -1.0ZM-336.0 273.0C-183.0 199.0 -2.0 82.0 98.0 -4.0L188.0 106.0C83.0 187.0 -96.0 301.0 -249.0 369.0ZM30.0 402.0C-51.0 259.0 -214.0 153.0 -396.0 95.0C-366.0 69.0 -314.0 14.0 -293.0 -16.0C-112.0 58.0 64.0 184.0 168.0 355.0Z"/></g>
<g fill="red" transform="translate(700 200) scale(0.1 -0.1)"><path d="M0.0 0.0C-68.0 -240.0 -200.0 -408.0 -405.0 -507.0C-397.0 -513.0 -386.0 -524.0 -382.0 -530.0C-179.0 -424.0 -43.0 -258.0 29.0 -7.0ZM-279.0 -18.0 -304.0 -25.0C-242.0 -259.0 -115.0 -447.0 69.0 -529.0C74.0 -522.0 83.0 -512.0 90.0 -506.0C-94.0 -430.0 -220.0 -244.0 -279.0 -18.0ZM-380.0 263.0C-219.0 208.0 -30.0 106.0 66.0 33.0L85.0 58.0C-11.0 129.0 -203.0 229.0 -361.0 286.0ZM-11.0 369.0C-97.0 217.0 -247.0 91.0 -406.0 14.0C-398.0 8.0 -387.0 -4.0 -382.0 -10.0C-226.0 73.0 -75.0 201.0 17.0 359.0Z"/></g>
<g fill="black" opacity=".8" transform="translate(700 200) scale(0.1 -0.1)"><path d="M0.0 0.0C-68.0 -240.0 -199.0 -408.0 -405.0 -507.0C-398.0 -513.0 -385.0 -523.0 -382.0 -530.0C-179.0 -424.0 -43.0 -257.0 29.0 -7.0ZM-279.0 -18.0 -304.0 -26.0C-241.0 -259.0 -115.0 -447.0 69.0 -529.0C74.0 -522.0 83.0 -512.0 89.0 -506.0C-94.0 -430.0 -220.0 -245.0 -279.0 -18.0ZM-380.0 263.0C-218.0 208.0 -30.0 106.0 66.0 33.0L85.0 59.0C-11.0 129.0 -203.0 229.0 -361.0 285.0ZM-11.0 369.0C-96.0 217.0 -246.0 91.0 -406.0 14.0C-398.0 8.0 -386.0 -4.0 -383.0 -9.0C-225.0 73.0 -75.0 201.0 17.0 360.0Z"/></g>
<g fill="red" transform="translate(800 200) scale(0.1 -0.1)"><path d="M0.0 0.0C-45.0 -213.0 -154.0 -359.0 -341.0 -437.0C-314.0 -466.0 -270.0 -530.0 -254.0 -561.0C-46.0 -459.0 80.0 -282.0 143.0 -25.0ZM-145.0 -10.0 -275.0 -42.0C-204.0 -277.0 -93.0 -461.0 97.0 -562.0C119.0 -524.0 163.0 -468.0 196.0 -440.0C22.0 -362.0 -91.0 -198.0 -145.0 -10.0ZM-307.0 242.0C-164.0 183.0 3.0 85.0 94.0 4.0L183.0 118.0C88.0 192.0 -77.0 288.0 -220.0 342.0ZM11.0 389.0C-52.0 254.0 -183.0 148.0 -336.0 90.0C-305.0 64.0 -253.0 8.0 -231.0 -22.0C-74.0 54.0 70.0 182.0 153.0 347.0Z"/></g>
<g fill="black" opacity=".8" transform="translate(800 200) scale(0.1 -0.1)"><path d="M0.0 0.0C-45.0 -213.0 -153.0 -359.0 -341.0 -437.0C-313.0 -466.0 -269.0 -529.0 -254.0 -561.0C-46.0 -458.0 80.0 -282.0 143.0 -25.0ZM-144.0 -10.0 -275.0 -42.0C-203.0 -277.0 -92.0 -460.0 97.0 -562.0C119.0 -524.0 162.0 -468.0 195.0 -439.0C22.0 -362.0 -91.0 -199.0 -144.0 -10.0ZM-307.0 241.0C-164.0 183.0 2.0 85.0 93.0 3.0L183.0 117.0C87.0 193.0 -77.0 289.0 -220.0 342.0ZM10.0 389.0C-52.0 253.0 -183.0 148.0 -335.0 90.0C-304.0 64.0 -253.0 9.0 -231.0 -22.0C-73.0 54.0 70.0 182.0 153.0 347.0Z"/></g>
</svg>
