<?xml version="1.0" encoding="UTF-8"?>
<svg width="1700" height="400" xmlns="http://www.w3.org/2000/svg">
<rect width="100%" height="100%" fill="white"/>
<g fill="green" transform="translate(100 100) scale(0.1 -0.1)"><path d="M0.0 -0.0V-36.0H680.0V0.0ZM9.0 -266.0V-302.0H707.0V-266.0ZM312.0 -537.0V-573.0H663.0V-537.0ZM341.0 283.0V-62.0L377.0 -69.0V283.0ZM30.0 -130.0V-166.0H562.0V-413.0H30.0V-448.0H598.0V-130.0ZM122.0 -521.0 85.0 -539.0C166.0 -730.0 286.0 -778.0 503.0 -778.0H702.0C703.0 -767.0 710.0 -751.0 718.0 -740.0C686.0 -740.0 521.0 -740.0 501.0 -740.0C309.0 -740.0 187.0 -696.0 122.0 -521.0ZM104.0 -471.0C72.0 -624.0 7.0 -711.0 -78.0 -782.0C-69.0 -789.0 -53.0 -802.0 -49.0 -808.0C33.0 -731.0 106.0 -637.0 139.0 -479.0Z"/></g>
<g fill="green" transform="translate(200 100) scale(0.1 -0.1)"><path d="M0.0 0.0V-124.0H721.0V0.0ZM15.0 -296.0V-416.0H713.0V-296.0ZM334.0 -598.0V-715.0H667.0V-598.0ZM258.0 270.0V-97.0L428.0 -173.0V270.0ZM52.0 -151.0V-269.0H496.0V-444.0H52.0V-560.0H650.0V-151.0ZM135.0 -595.0 16.0 -642.0C124.0 -827.0 298.0 -875.0 517.0 -875.0H692.0C697.0 -838.0 716.0 -774.0 736.0 -744.0C687.0 -745.0 568.0 -745.0 532.0 -745.0C366.0 -744.0 210.0 -719.0 135.0 -595.0ZM26.0 -575.0C10.0 -684.0 -39.0 -768.0 -88.0 -818.0C-53.0 -836.0 23.0 -878.0 53.0 -897.0C95.0 -838.0 156.0 -736.0 180.0 -607.0Z"/></g>
<g fill="green" transform="translate(300 100) scale(0.1 -0.1)"><path d="M0.0 -0.0V-30.0H554.0V0.0ZM11.0 -210.0V-239.0H577.0V-210.0ZM252.0 -418.0V-448.0H544.0V-418.0ZM283.0 259.0V88.0L313.0 83.0V259.0ZM21.0 -103.0V-132.0H456.0V-326.0H21.0V-354.0H485.0V-103.0ZM103.0 -402.0 72.0 -417.0C140.0 -571.0 237.0 -610.0 415.0 -610.0H574.0C575.0 -601.0 580.0 -588.0 587.0 -579.0C561.0 -579.0 429.0 -579.0 413.0 -579.0C256.0 -579.0 157.0 -542.0 103.0 -402.0ZM87.0 -370.0C59.0 -495.0 5.0 -558.0 -62.0 -614.0C-55.0 -620.0 -42.0 -631.0 -39.0 -636.0C25.0 -575.0 87.0 -506.0 116.0 -377.0Z"/></g>
<g fill="green" transform="translate(400 100) scale(0.1 -0.1)"><path d="M0.0 0.0V-100.0H592.0V0.0ZM17.0 -237.0V-333.0H580.0V-237.0ZM270.0 -476.0V-569.0H544.0V-476.0ZM211.0 252.0V54.0L351.0 -11.0V252.0ZM44.0 -121.0V-216.0H404.0V-355.0H44.0V-448.0H529.0V-121.0ZM104.0 -466.0 6.0 -506.0C99.0 -649.0 246.0 -689.0 428.0 -689.0H566.0C570.0 -660.0 585.0 -609.0 601.0 -585.0C563.0 -586.0 469.0 -586.0 441.0 -586.0C301.0 -585.0 168.0 -564.0 104.0 -466.0ZM18.0 -460.0C5.0 -547.0 -38.0 -610.0 -71.0 -647.0C-42.0 -661.0 23.0 -693.0 48.0 -707.0C72.0 -665.0 123.0 -589.0 144.0 -489.0Z"/></g>
<g fill="green" transform="translate(500 100) scale(0.1 -0.1)"><path d="M0.0 0.0V-30.0H555.0V0.0ZM15.0 -257.0V-287.0H568.0V-257.0ZM259.0 -556.0V-586.0H543.0V-556.0ZM246.0 104.0V-771.0L277.0 -783.0V104.0ZM30.0 -124.0V-154.0H466.0V-403.0H30.0V-433.0H495.0V-124.0ZM111.0 -531.0 81.0 -545.0C143.0 -735.0 244.0 -781.0 416.0 -781.0H570.0C571.0 -773.0 577.0 -759.0 583.0 -750.0C558.0 -750.0 431.0 -750.0 415.0 -750.0C263.0 -750.0 162.0 -708.0 111.0 -531.0ZM97.0 -471.0C71.0 -623.0 19.0 -720.0 -59.0 -792.0C-53.0 -798.0 -39.0 -808.0 -35.0 -813.0C42.0 -735.0 100.0 -634.0 127.0 -478.0Z"/></g>
<g fill="green" transform="translate(600 100) scale(0.1 -0.1)"><path d="M0.0 0.0V-117.0H601.0V0.0ZM13.0 -290.0V-408.0H611.0V-290.0ZM298.0 -603.0V-719.0H575.0V-603.0ZM213.0 60.0V-773.0L344.0 -902.0V60.0ZM46.0 -144.0V-259.0H426.0V-443.0H46.0V-555.0H559.0V-144.0ZM145.0 -622.0 44.0 -664.0C129.0 -846.0 268.0 -891.0 448.0 -891.0H595.0C600.0 -856.0 616.0 -797.0 633.0 -770.0C591.0 -770.0 491.0 -770.0 461.0 -770.0C327.0 -770.0 203.0 -745.0 145.0 -622.0ZM48.0 -568.0C35.0 -687.0 -3.0 -784.0 -51.0 -841.0C-22.0 -859.0 38.0 -900.0 62.0 -919.0C108.0 -851.0 157.0 -735.0 177.0 -593.0Z"/></g>
<g fill="green" transform="translate(700 100) scale(0.1 -0.1)"><path d="M0.0 -0.0V-34.0H739.0V0.0ZM-15.0 -269.0V-304.0H767.0V-269.0ZM346.0 -532.0V-568.0H692.0V-532.0ZM368.0 255.0V-140.0L401.0 -141.0V255.0ZM41.0 -131.0V-165.0H621.0V-411.0H41.0V-445.0H655.0V-131.0ZM101.0 -528.0 69.0 -545.0C154.0 -731.0 292.0 -772.0 524.0 -772.0H752.0C754.0 -761.0 761.0 -745.0 769.0 -736.0C735.0 -736.0 545.0 -736.0 523.0 -736.0C314.0 -736.0 172.0 -700.0 101.0 -528.0ZM85.0 -458.0C59.0 -603.0 3.0 -699.0 -85.0 -768.0C-76.0 -774.0 -61.0 -786.0 -57.0 -792.0C28.0 -717.0 91.0 -616.0 119.0 -464.0Z"/></g>
<g fill="green" transform="translate(800 100) scale(0.1 -0.1)"><path d="M0.0 0.0V-119.0H755.0V0.0ZM-14.0 -279.0V-394.0H761.0V-279.0ZM344.0 -563.0V-680.0H693.0V-563.0ZM275.0 252.0V-167.0L454.0 -185.0V252.0ZM47.0 -146.0V-259.0H525.0V-414.0H47.0V-526.0H682.0V-146.0ZM143.0 -570.0 23.0 -610.0C124.0 -805.0 289.0 -845.0 507.0 -845.0H721.0C727.0 -806.0 748.0 -739.0 769.0 -707.0C708.0 -710.0 566.0 -710.0 518.0 -710.0C357.0 -709.0 212.0 -690.0 143.0 -570.0ZM24.0 -539.0C9.0 -638.0 -37.0 -723.0 -101.0 -775.0C-66.0 -795.0 4.0 -843.0 31.0 -866.0C101.0 -799.0 159.0 -691.0 183.0 -564.0Z"/></g>
<g fill="green" transform="translate(900 100) scale(0.1 -0.1)"><path d="M0.0 -0.0V-37.0H685.0V0.0ZM-17.0 -283.0V-321.0H719.0V-283.0ZM321.0 -564.0V-602.0H648.0V-564.0ZM350.0 284.0V-61.0L387.0 -59.0V284.0ZM43.0 -138.0V-175.0H562.0V-434.0H43.0V-471.0H599.0V-138.0ZM90.0 -591.0 57.0 -607.0C131.0 -777.0 247.0 -816.0 462.0 -816.0H700.0C701.0 -805.0 708.0 -788.0 716.0 -777.0C681.0 -777.0 481.0 -777.0 460.0 -777.0C270.0 -777.0 150.0 -744.0 90.0 -591.0ZM83.0 -500.0C57.0 -618.0 -1.0 -741.0 -101.0 -811.0C-91.0 -816.0 -75.0 -829.0 -69.0 -835.0C29.0 -759.0 92.0 -632.0 120.0 -503.0Z"/></g>
<g fill="green" transform="translate(1000 100) scale(0.1 -0.1)"><path d="M0.0 0.0V-123.0H684.0V0.0ZM-3.0 -291.0V-402.0H680.0V-291.0ZM329.0 -579.0V-694.0H629.0V-579.0ZM250.0 288.0V-94.0L424.0 -77.0V288.0ZM36.0 -152.0V-262.0H473.0V-429.0H36.0V-538.0H629.0V-152.0ZM137.0 -603.0 20.0 -639.0C107.0 -846.0 255.0 -890.0 453.0 -890.0H642.0C647.0 -851.0 668.0 -782.0 688.0 -751.0C634.0 -753.0 506.0 -753.0 465.0 -753.0C323.0 -752.0 198.0 -733.0 137.0 -603.0ZM10.0 -554.0C-2.0 -651.0 -36.0 -741.0 -130.0 -797.0C-94.0 -819.0 -36.0 -864.0 -12.0 -893.0C99.0 -816.0 148.0 -700.0 167.0 -565.0Z"/></g>
<g fill="red" transform="translate(100 200) scale(0.1 -0.1)"><path d="M0.0 0.0V-29.0H636.0V0.0ZM-20.0 -269.0V-299.0H652.0V-269.0ZM307.0 -559.0V-589.0H563.0V-559.0ZM288.0 96.0V-764.0H317.0V96.0ZM46.0 -130.0V-160.0H535.0V-410.0H46.0V-440.0H564.0V-130.0ZM83.0 -567.0 60.0 -580.0C125.0 -753.0 247.0 -787.0 437.0 -787.0H636.0C638.0 -779.0 644.0 -765.0 650.0 -757.0C621.0 -757.0 456.0 -757.0 438.0 -757.0C265.0 -757.0 141.0 -729.0 83.0 -567.0ZM72.0 -474.0C60.0 -584.0 22.0 -725.0 -69.0 -794.0C-61.0 -798.0 -49.0 -807.0 -44.0 -813.0C49.0 -738.0 87.0 -596.0 103.0 -474.0Z"/></g>
<g fill="black" opacity=".8" transform="translate(100 200) scale(0.1 -0.1)"><path d="M0.0 0.0V-29.0H625.0V0.0ZM-25.0 -269.0V-299.0H644.0V-269.0ZM301.0 -560.0V-591.0H570.0V-560.0ZM286.0 95.0V-766.0H315.0V95.0ZM48.0 -129.0V-158.0H530.0V-411.0H48.0V-441.0H558.0V-129.0ZM71.0 -573.0 48.0 -585.0C111.0 -756.0 229.0 -790.0 418.0 -790.0H627.0C629.0 -781.0 635.0 -767.0 641.0 -760.0C612.0 -760.0 437.0 -760.0 418.0 -760.0C247.0 -760.0 126.0 -732.0 71.0 -573.0ZM65.0 -471.0C49.0 -593.0 9.0 -718.0 -81.0 -787.0C-74.0 -790.0 -61.0 -800.0 -56.0 -805.0C33.0 -730.0 76.0 -604.0 96.0 -473.0Z"/></g>
<g fill="red" transform="translate(200 200) scale(0.1 -0.1)"><path d="M0.0 0.0V-111.0H613.0V0.0ZM-31.0 -269.0V-377.0H645.0V-269.0ZM304.0 -555.0V-669.0H566.0V-555.0ZM220.0 75.0V-771.0H363.0V75.0ZM28.0 -143.0V-245.0H437.0V-402.0H28.0V-504.0H576.0V-143.0ZM141.0 -591.0 42.0 -621.0C108.0 -827.0 226.0 -862.0 394.0 -862.0H588.0C594.0 -823.0 613.0 -758.0 631.0 -727.0C575.0 -730.0 446.0 -730.0 401.0 -730.0C284.0 -730.0 188.0 -715.0 141.0 -591.0ZM31.0 -517.0C22.0 -601.0 5.0 -713.0 -85.0 -785.0C-55.0 -806.0 -17.0 -851.0 1.0 -882.0C119.0 -784.0 149.0 -644.0 163.0 -517.0Z"/></g>
<g fill="black" opacity=".8" transform="translate(200 200) scale(0.1 -0.1)"><path d="M0.0 0.0V-111.0H620.0V0.0ZM-26.0 -268.0V-375.0H644.0V-268.0ZM306.0 -551.0V-665.0H583.0V-551.0ZM228.0 74.0V-763.0L373.0 -772.0V74.0ZM32.0 -139.0V-244.0H445.0V-400.0H32.0V-503.0H583.0V-139.0ZM152.0 -593.0 50.0 -622.0C117.0 -825.0 234.0 -860.0 403.0 -860.0H599.0C605.0 -822.0 624.0 -757.0 642.0 -727.0C585.0 -730.0 456.0 -730.0 411.0 -730.0C294.0 -730.0 197.0 -715.0 152.0 -593.0ZM34.0 -515.0C24.0 -615.0 -3.0 -714.0 -92.0 -775.0C-62.0 -798.0 -18.0 -846.0 0.0 -875.0C114.0 -790.0 154.0 -662.0 171.0 -521.0Z"/></g>
<g fill="red" transform="translate(300 200) scale(0.1 -0.1)"><path d="M0.0 0.0V-29.0H569.0V0.0ZM-17.0 -262.0V-292.0H588.0V-262.0ZM277.0 -559.0V-589.0H552.0V-559.0ZM264.0 100.0V-750.0L294.0 -758.0V100.0ZM35.0 -129.0V-158.0H483.0V-403.0H35.0V-432.0H512.0V-129.0ZM74.0 -556.0 51.0 -568.0C108.0 -748.0 213.0 -785.0 389.0 -785.0H581.0C582.0 -776.0 588.0 -763.0 594.0 -754.0C567.0 -754.0 406.0 -754.0 389.0 -754.0C232.0 -754.0 124.0 -723.0 74.0 -556.0ZM70.0 -472.0C46.0 -606.0 -9.0 -712.0 -98.0 -780.0C-90.0 -785.0 -78.0 -795.0 -74.0 -800.0C14.0 -727.0 73.0 -618.0 100.0 -476.0Z"/></g>
<g fill="black" opacity=".8" transform="translate(300 200) scale(0.1 -0.1)"><path d="M0.0 0.0V-30.0H576.0V0.0ZM-9.0 -264.0V-294.0H594.0V-264.0ZM275.0 -559.0V-590.0H541.0V-559.0ZM261.0 101.0V-752.0L291.0 -756.0V101.0ZM41.0 -127.0V-157.0H484.0V-407.0H41.0V-438.0H513.0V-127.0ZM83.0 -564.0 58.0 -576.0C117.0 -749.0 221.0 -786.0 397.0 -786.0H583.0C585.0 -778.0 591.0 -764.0 597.0 -756.0C569.0 -756.0 413.0 -756.0 396.0 -756.0C240.0 -756.0 133.0 -724.0 83.0 -564.0ZM76.0 -474.0C56.0 -600.0 12.0 -719.0 -75.0 -788.0C-68.0 -793.0 -55.0 -802.0 -50.0 -807.0C37.0 -732.0 85.0 -612.0 107.0 -477.0Z"/></g>
<g fill="red" transform="translate(400 200) scale(0.1 -0.1)"><path d="M0.0 0.0V-112.0H590.0V0.0ZM-5.0 -276.0V-387.0H603.0V-276.0ZM298.0 -572.0V-683.0H560.0V-572.0ZM220.0 68.0V-739.0L353.0 -818.0V68.0ZM37.0 -140.0V-247.0H416.0V-419.0H37.0V-525.0H550.0V-140.0ZM149.0 -604.0 49.0 -638.0C119.0 -829.0 239.0 -872.0 408.0 -872.0H576.0C581.0 -836.0 599.0 -777.0 615.0 -749.0C568.0 -750.0 454.0 -750.0 419.0 -750.0C299.0 -750.0 197.0 -729.0 149.0 -604.0ZM37.0 -531.0C22.0 -645.0 -22.0 -737.0 -107.0 -791.0C-78.0 -812.0 -28.0 -860.0 -8.0 -884.0C90.0 -812.0 147.0 -696.0 172.0 -546.0Z"/></g>
<g fill="black" opacity=".8" transform="translate(400 200) scale(0.1 -0.1)"><path d="M0.0 0.0V-113.0H587.0V0.0ZM-8.0 -276.0V-385.0H604.0V-276.0ZM295.0 -568.0V-681.0H557.0V-568.0ZM213.0 72.0V-752.0L349.0 -801.0V72.0ZM34.0 -140.0V-247.0H419.0V-415.0H34.0V-520.0H553.0V-140.0ZM146.0 -605.0 47.0 -637.0C117.0 -832.0 236.0 -871.0 403.0 -871.0H571.0C576.0 -835.0 594.0 -773.0 611.0 -745.0C562.0 -746.0 449.0 -746.0 412.0 -746.0C295.0 -746.0 193.0 -727.0 146.0 -605.0ZM36.0 -532.0C26.0 -638.0 -2.0 -737.0 -81.0 -796.0C-51.0 -817.0 -4.0 -861.0 15.0 -887.0C110.0 -808.0 151.0 -684.0 168.0 -543.0Z"/></g>
<g fill="red" transform="translate(500 200) scale(0.1 -0.1)"><path d="M0.0 0.0V-29.0H539.0V0.0ZM16.0 -253.0V-282.0H550.0V-253.0ZM251.0 -539.0V-568.0H512.0V-539.0ZM238.0 103.0V-728.0L268.0 -736.0V103.0ZM32.0 -121.0V-151.0H445.0V-395.0H32.0V-424.0H474.0V-121.0ZM95.0 -526.0 68.0 -540.0C127.0 -714.0 226.0 -754.0 392.0 -754.0H547.0C548.0 -746.0 554.0 -733.0 560.0 -724.0C535.0 -724.0 408.0 -724.0 392.0 -724.0C245.0 -724.0 145.0 -688.0 95.0 -526.0ZM82.0 -462.0C62.0 -595.0 15.0 -701.0 -65.0 -770.0C-58.0 -775.0 -45.0 -785.0 -41.0 -790.0C38.0 -716.0 89.0 -606.0 112.0 -466.0Z"/></g>
<g fill="black" opacity=".8" transform="translate(500 200) scale(0.1 -0.1)"><path d="M0.0 0.0V-29.0H531.0V0.0ZM7.0 -250.0V-280.0H545.0V-250.0ZM250.0 -539.0V-568.0H514.0V-539.0ZM238.0 101.0V-729.0L268.0 -737.0V101.0ZM32.0 -121.0V-150.0H444.0V-391.0H32.0V-420.0H472.0V-121.0ZM97.0 -528.0 69.0 -541.0C126.0 -716.0 221.0 -757.0 384.0 -757.0H543.0C544.0 -749.0 550.0 -735.0 555.0 -727.0C531.0 -727.0 399.0 -727.0 383.0 -727.0C239.0 -727.0 144.0 -690.0 97.0 -528.0ZM87.0 -458.0C63.0 -593.0 16.0 -696.0 -63.0 -765.0C-57.0 -770.0 -44.0 -779.0 -40.0 -784.0C39.0 -710.0 91.0 -604.0 116.0 -464.0Z"/></g>
<g fill="red" transform="translate(600 200) scale(0.1 -0.1)"><path d="M0.0 0.0V-112.0H558.0V0.0ZM1.0 -276.0V-387.0H571.0V-276.0ZM275.0 -572.0V-683.0H532.0V-572.0ZM189.0 68.0V-739.0L315.0 -819.0V68.0ZM31.0 -140.0V-247.0H398.0V-419.0H31.0V-525.0H525.0V-140.0ZM131.0 -593.0 37.0 -630.0C111.0 -815.0 237.0 -856.0 402.0 -856.0H550.0C554.0 -821.0 570.0 -762.0 586.0 -734.0C544.0 -735.0 444.0 -735.0 412.0 -735.0C292.0 -735.0 183.0 -714.0 131.0 -593.0ZM35.0 -539.0C29.0 -642.0 9.0 -739.0 -39.0 -799.0C-12.0 -817.0 38.0 -858.0 59.0 -880.0C116.0 -805.0 147.0 -686.0 158.0 -555.0Z"/></g>
<g fill="black" opacity=".8" transform="translate(600 200) scale(0.1 -0.1)"><path d="M0.0 0.0V-112.0H562.0V0.0ZM8.0 -276.0V-385.0H572.0V-276.0ZM283.0 -570.0V-680.0H537.0V-570.0ZM201.0 65.0V-730.0L327.0 -826.0V65.0ZM39.0 -138.0V-245.0H399.0V-419.0H39.0V-523.0H527.0V-138.0ZM139.0 -596.0 43.0 -633.0C118.0 -813.0 243.0 -855.0 409.0 -855.0H552.0C557.0 -821.0 573.0 -763.0 589.0 -737.0C548.0 -738.0 450.0 -738.0 420.0 -738.0C299.0 -738.0 190.0 -715.0 139.0 -596.0ZM41.0 -536.0C30.0 -646.0 -2.0 -740.0 -62.0 -797.0C-33.0 -815.0 18.0 -855.0 40.0 -876.0C104.0 -806.0 147.0 -691.0 165.0 -554.0Z"/></g>
<g fill="red" transform="translate(700 200) scale(0.1 -0.1)"><path d="M0.0 0.0V-29.0H627.0V0.0ZM-13.0 -270.0V-300.0H645.0V-270.0ZM301.0 -557.0V-587.0H570.0V-557.0ZM287.0 98.0V-762.0H316.0V98.0ZM51.0 -128.0V-158.0H537.0V-417.0H51.0V-447.0H566.0V-128.0ZM77.0 -565.0 54.0 -578.0C119.0 -751.0 241.0 -785.0 431.0 -785.0H630.0C632.0 -777.0 638.0 -763.0 644.0 -755.0C615.0 -755.0 450.0 -755.0 432.0 -755.0C260.0 -755.0 135.0 -727.0 77.0 -565.0ZM67.0 -468.0C53.0 -607.0 16.0 -714.0 -65.0 -785.0C-57.0 -789.0 -45.0 -798.0 -40.0 -803.0C39.0 -728.0 81.0 -619.0 97.0 -471.0Z"/></g>
<g fill="black" opacity=".8" transform="translate(700 200) scale(0.1 -0.1)"><path d="M0.0 0.0V-29.0H626.0V0.0ZM-20.0 -266.0V-296.0H644.0V-266.0ZM301.0 -556.0V-587.0H576.0V-556.0ZM286.0 97.0V-760.0L314.0 -761.0V97.0ZM46.0 -128.0V-157.0H532.0V-408.0H46.0V-438.0H560.0V-128.0ZM78.0 -562.0 54.0 -574.0C119.0 -749.0 237.0 -785.0 427.0 -785.0H630.0C632.0 -776.0 638.0 -762.0 644.0 -755.0C615.0 -755.0 446.0 -755.0 427.0 -755.0C256.0 -755.0 134.0 -725.0 78.0 -562.0ZM70.0 -467.0C52.0 -596.0 10.0 -714.0 -77.0 -783.0C-70.0 -788.0 -57.0 -797.0 -52.0 -802.0C34.0 -727.0 79.0 -607.0 100.0 -470.0Z"/></g>
<g fill="red" transform="translate(800 200) scale(0.1 -0.1)"><path d="M0.0 0.0V-111.0H626.0V0.0ZM-20.0 -269.0V-377.0H642.0V-269.0ZM311.0 -554.0V-665.0H595.0V-554.0ZM230.0 79.0V-767.0H373.0V79.0ZM36.0 -139.0V-246.0H451.0V-402.0H36.0V-509.0H588.0V-139.0ZM159.0 -587.0 60.0 -617.0C126.0 -823.0 244.0 -858.0 412.0 -858.0H606.0C612.0 -819.0 631.0 -754.0 649.0 -723.0C593.0 -726.0 464.0 -726.0 419.0 -726.0C302.0 -726.0 206.0 -711.0 159.0 -587.0ZM42.0 -519.0C34.0 -631.0 8.0 -724.0 -65.0 -779.0C-38.0 -801.0 11.0 -851.0 29.0 -876.0C122.0 -801.0 162.0 -681.0 176.0 -530.0Z"/></g>
<g fill="black" opacity=".8" transform="translate(800 200) scale(0.1 -0.1)"><path d="M0.0 0.0V-112.0H629.0V0.0ZM-23.0 -270.0V-379.0H652.0V-270.0ZM308.0 -556.0V-670.0H592.0V-556.0ZM230.0 74.0V-757.0L375.0 -783.0V74.0ZM35.0 -139.0V-246.0H450.0V-404.0H35.0V-509.0H589.0V-139.0ZM152.0 -593.0 49.0 -624.0C121.0 -824.0 243.0 -859.0 417.0 -859.0H610.0C616.0 -822.0 635.0 -757.0 653.0 -728.0C597.0 -730.0 469.0 -730.0 425.0 -730.0C303.0 -730.0 199.0 -714.0 152.0 -593.0ZM37.0 -521.0C26.0 -623.0 -4.0 -721.0 -85.0 -781.0C-55.0 -803.0 -7.0 -851.0 12.0 -878.0C113.0 -796.0 155.0 -671.0 174.0 -531.0Z"/></g>
<g fill="red" transform="translate(900 200) scale(0.1 -0.1)"><path d="M0.0 0.0V-29.0H574.0V0.0ZM-10.0 -256.0V-286.0H600.0V-256.0ZM280.0 -548.0V-578.0H532.0V-548.0ZM267.0 103.0V-747.0L297.0 -755.0V103.0ZM46.0 -122.0V-152.0H491.0V-402.0H46.0V-432.0H520.0V-122.0ZM79.0 -547.0 52.0 -560.0C113.0 -745.0 214.0 -791.0 401.0 -791.0H586.0C587.0 -783.0 593.0 -769.0 599.0 -761.0C572.0 -761.0 416.0 -761.0 400.0 -761.0C234.0 -761.0 131.0 -719.0 79.0 -547.0ZM73.0 -452.0C52.0 -594.0 4.0 -707.0 -81.0 -781.0C-73.0 -786.0 -61.0 -795.0 -56.0 -800.0C27.0 -722.0 79.0 -605.0 103.0 -456.0Z"/></g>
<g fill="black" opacity=".8" transform="translate(900 200) scale(0.1 -0.1)"><path d="M0.0 0.0V-30.0H580.0V0.0ZM-7.0 -262.0V-293.0H597.0V-262.0ZM276.0 -556.0V-587.0H547.0V-556.0ZM263.0 102.0V-749.0L293.0 -755.0V102.0ZM40.0 -126.0V-156.0H489.0V-406.0H40.0V-436.0H517.0V-126.0ZM87.0 -556.0 61.0 -569.0C122.0 -745.0 228.0 -783.0 405.0 -783.0H589.0C590.0 -775.0 596.0 -761.0 602.0 -753.0C575.0 -753.0 422.0 -753.0 405.0 -753.0C247.0 -753.0 139.0 -719.0 87.0 -556.0ZM79.0 -471.0C58.0 -603.0 13.0 -717.0 -72.0 -787.0C-66.0 -791.0 -52.0 -801.0 -47.0 -806.0C37.0 -731.0 87.0 -614.0 109.0 -475.0Z"/></g>
<g fill="red" transform="translate(1000 200) scale(0.1 -0.1)"><path d="M0.0 0.0V-112.0H599.0V0.0ZM-19.0 -276.0V-387.0H621.0V-276.0ZM297.0 -567.0V-678.0H568.0V-567.0ZM219.0 68.0V-739.0L353.0 -819.0V68.0ZM41.0 -140.0V-247.0H429.0V-419.0H41.0V-525.0H563.0V-140.0ZM128.0 -620.0 29.0 -657.0C110.0 -832.0 245.0 -871.0 422.0 -871.0H583.0C588.0 -836.0 605.0 -777.0 622.0 -748.0C576.0 -750.0 467.0 -750.0 432.0 -750.0C303.0 -749.0 185.0 -731.0 128.0 -620.0ZM27.0 -537.0C15.0 -649.0 -19.0 -749.0 -87.0 -809.0C-57.0 -826.0 -1.0 -866.0 22.0 -888.0C96.0 -813.0 140.0 -694.0 159.0 -554.0Z"/></g>
<g fill="black" opacity=".8" transform="translate(1000 200) scale(0.1 -0.1)"><path d="M0.0 0.0V-113.0H597.0V0.0ZM-7.0 -277.0V-387.0H613.0V-277.0ZM298.0 -571.0V-685.0H566.0V-571.0ZM216.0 72.0V-749.0L353.0 -809.0V72.0ZM37.0 -141.0V-249.0H425.0V-418.0H37.0V-524.0H560.0V-141.0ZM146.0 -605.0 46.0 -639.0C119.0 -832.0 243.0 -871.0 413.0 -871.0H582.0C587.0 -835.0 605.0 -773.0 622.0 -745.0C573.0 -746.0 460.0 -746.0 423.0 -746.0C302.0 -746.0 196.0 -727.0 146.0 -605.0ZM38.0 -536.0C27.0 -644.0 -3.0 -741.0 -76.0 -801.0C-47.0 -821.0 3.0 -865.0 23.0 -890.0C110.0 -812.0 152.0 -690.0 170.0 -549.0Z"/></g>
<g fill="red" transform="translate(1100 200) scale(0.1 -0.1)"><path d="M0.0 0.0V-29.0H560.0V0.0ZM-17.0 -267.0V-297.0H579.0V-267.0ZM265.0 -563.0V-593.0H522.0V-563.0ZM251.0 91.0V-769.0H281.0V91.0ZM44.0 -127.0V-157.0H462.0V-413.0H44.0V-443.0H492.0V-127.0ZM75.0 -593.0 52.0 -605.0C104.0 -757.0 199.0 -789.0 364.0 -789.0H562.0C563.0 -781.0 569.0 -767.0 575.0 -758.0C547.0 -758.0 381.0 -758.0 364.0 -758.0C217.0 -758.0 121.0 -733.0 75.0 -593.0ZM75.0 -488.0C59.0 -588.0 17.0 -725.0 -76.0 -792.0C-69.0 -795.0 -57.0 -805.0 -51.0 -810.0C44.0 -738.0 87.0 -600.0 105.0 -488.0Z"/></g>
<g fill="black" opacity=".8" transform="translate(1100 200) scale(0.1 -0.1)"><path d="M0.0 0.0V-29.0H558.0V0.0ZM-18.0 -266.0V-296.0H577.0V-266.0ZM269.0 -562.0V-593.0H518.0V-562.0ZM254.0 93.0V-769.0L284.0 -770.0V93.0ZM45.0 -128.0V-157.0H467.0V-409.0H45.0V-440.0H495.0V-128.0ZM70.0 -584.0 46.0 -595.0C100.0 -757.0 199.0 -790.0 367.0 -790.0H562.0C564.0 -782.0 569.0 -768.0 575.0 -760.0C548.0 -760.0 383.0 -760.0 366.0 -760.0C217.0 -760.0 116.0 -732.0 70.0 -584.0ZM68.0 -480.0C50.0 -590.0 9.0 -722.0 -82.0 -790.0C-75.0 -793.0 -62.0 -803.0 -56.0 -807.0C35.0 -734.0 78.0 -602.0 98.0 -481.0Z"/></g>
<g fill="red" transform="translate(1200 200) scale(0.1 -0.1)"><path d="M0.0 0.0V-111.0H554.0V0.0ZM-8.0 -269.0V-372.0H569.0V-269.0ZM282.0 -550.0V-661.0H530.0V-550.0ZM197.0 71.0V-775.0H333.0V71.0ZM23.0 -139.0V-239.0H396.0V-402.0H23.0V-502.0H527.0V-139.0ZM147.0 -600.0 52.0 -627.0C110.0 -830.0 216.0 -866.0 369.0 -866.0H537.0C542.0 -829.0 560.0 -766.0 577.0 -736.0C528.0 -738.0 414.0 -739.0 376.0 -738.0C273.0 -738.0 188.0 -724.0 147.0 -600.0ZM30.0 -519.0C22.0 -615.0 8.0 -715.0 -90.0 -778.0C-60.0 -800.0 -24.0 -846.0 -8.0 -878.0C122.0 -790.0 150.0 -659.0 162.0 -519.0Z"/></g>
<g fill="black" opacity=".8" transform="translate(1200 200) scale(0.1 -0.1)"><path d="M0.0 0.0V-111.0H553.0V0.0ZM-13.0 -270.0V-374.0H571.0V-270.0ZM286.0 -554.0V-664.0H525.0V-554.0ZM203.0 70.0V-767.0L335.0 -784.0V70.0ZM27.0 -139.0V-240.0H397.0V-405.0H27.0V-505.0H528.0V-139.0ZM144.0 -602.0 49.0 -629.0C108.0 -830.0 214.0 -867.0 367.0 -867.0H533.0C539.0 -831.0 557.0 -768.0 573.0 -740.0C524.0 -742.0 412.0 -742.0 375.0 -742.0C271.0 -742.0 185.0 -725.0 144.0 -602.0ZM30.0 -518.0C22.0 -618.0 1.0 -718.0 -94.0 -779.0C-65.0 -801.0 -27.0 -846.0 -10.0 -875.0C110.0 -789.0 145.0 -662.0 159.0 -519.0Z"/></g>
<g fill="red" transform="translate(1300 200) scale(0.1 -0.1)"><path d="M0.0 0.0V-29.0H552.0V0.0ZM-15.0 -262.0V-292.0H568.0V-262.0ZM266.0 -559.0V-589.0H527.0V-559.0ZM253.0 100.0V-750.0L283.0 -758.0V100.0ZM41.0 -129.0V-158.0H468.0V-403.0H41.0V-432.0H497.0V-129.0ZM85.0 -556.0 61.0 -568.0C115.0 -747.0 215.0 -785.0 381.0 -785.0H560.0C561.0 -777.0 567.0 -763.0 573.0 -754.0C547.0 -754.0 397.0 -754.0 381.0 -754.0C234.0 -754.0 132.0 -723.0 85.0 -556.0ZM77.0 -472.0C58.0 -603.0 17.0 -710.0 -58.0 -780.0C-51.0 -785.0 -39.0 -795.0 -34.0 -799.0C41.0 -725.0 87.0 -614.0 106.0 -476.0Z"/></g>
<g fill="black" opacity=".8" transform="translate(1300 200) scale(0.1 -0.1)"><path d="M0.0 0.0V-30.0H558.0V0.0ZM-3.0 -260.0V-290.0H575.0V-260.0ZM265.0 -555.0V-585.0H530.0V-555.0ZM252.0 101.0V-750.0L282.0 -756.0V101.0ZM38.0 -125.0V-155.0H468.0V-404.0H38.0V-434.0H497.0V-125.0ZM88.0 -555.0 62.0 -567.0C120.0 -741.0 220.0 -780.0 391.0 -780.0H568.0C569.0 -772.0 575.0 -758.0 581.0 -750.0C554.0 -750.0 407.0 -750.0 390.0 -750.0C239.0 -750.0 137.0 -716.0 88.0 -555.0ZM80.0 -472.0C59.0 -601.0 13.0 -715.0 -71.0 -785.0C-65.0 -789.0 -51.0 -799.0 -46.0 -804.0C38.0 -729.0 88.0 -612.0 111.0 -476.0Z"/></g>
<g fill="red" transform="translate(1400 200) scale(0.1 -0.1)"><path d="M0.0 0.0V-112.0H577.0V0.0ZM4.0 -276.0V-387.0H594.0V-276.0ZM311.0 -572.0V-683.0H550.0V-572.0ZM224.0 67.0V-736.0L357.0 -815.0V67.0ZM55.0 -140.0V-247.0H419.0V-415.0H55.0V-522.0H550.0V-140.0ZM164.0 -604.0 64.0 -637.0C129.0 -828.0 243.0 -872.0 404.0 -872.0H560.0C565.0 -836.0 582.0 -777.0 598.0 -749.0C554.0 -750.0 448.0 -750.0 415.0 -750.0C303.0 -750.0 209.0 -728.0 164.0 -604.0ZM58.0 -531.0C45.0 -641.0 10.0 -735.0 -64.0 -791.0C-36.0 -811.0 13.0 -856.0 33.0 -880.0C119.0 -807.0 167.0 -690.0 188.0 -546.0Z"/></g>
<g fill="black" opacity=".8" transform="translate(1400 200) scale(0.1 -0.1)"><path d="M0.0 0.0V-113.0H577.0V0.0ZM-2.0 -277.0V-387.0H591.0V-277.0ZM291.0 -572.0V-684.0H549.0V-572.0ZM208.0 69.0V-750.0L340.0 -816.0V69.0ZM36.0 -140.0V-247.0H411.0V-419.0H36.0V-524.0H543.0V-140.0ZM144.0 -605.0 46.0 -640.0C117.0 -830.0 239.0 -871.0 404.0 -871.0H563.0C568.0 -835.0 585.0 -774.0 602.0 -747.0C556.0 -748.0 449.0 -748.0 415.0 -748.0C296.0 -748.0 192.0 -728.0 144.0 -605.0ZM38.0 -537.0C27.0 -645.0 -2.0 -742.0 -75.0 -801.0C-46.0 -821.0 3.0 -864.0 23.0 -888.0C108.0 -811.0 150.0 -690.0 167.0 -549.0Z"/></g>
<g fill="red" transform="translate(1500 200) scale(0.1 -0.1)"><path d="M0.0 0.0V-29.0H574.0V0.0ZM-9.0 -219.0V-249.0H601.0V-219.0ZM267.0 -430.0V-460.0H545.0V-430.0ZM296.0 251.0V66.0H325.0V251.0ZM31.0 -107.0V-137.0H473.0V-336.0H31.0V-365.0H503.0V-107.0ZM81.0 -439.0 54.0 -453.0C119.0 -594.0 219.0 -627.0 401.0 -627.0H588.0C589.0 -618.0 595.0 -605.0 601.0 -596.0C573.0 -596.0 417.0 -596.0 400.0 -596.0C238.0 -596.0 135.0 -567.0 81.0 -439.0ZM71.0 -381.0C49.0 -486.0 -1.0 -569.0 -75.0 -624.0C-67.0 -629.0 -55.0 -639.0 -51.0 -644.0C22.0 -585.0 76.0 -497.0 100.0 -385.0Z"/></g>
<g fill="black" opacity=".8" transform="translate(1500 200) scale(0.1 -0.1)"><path d="M0.0 0.0V-30.0H574.0V0.0ZM-9.0 -219.0V-249.0H601.0V-219.0ZM267.0 -430.0V-461.0H545.0V-430.0ZM296.0 251.0V65.0L325.0 66.0V251.0ZM31.0 -107.0V-136.0H474.0V-336.0H31.0V-365.0H503.0V-107.0ZM81.0 -439.0 53.0 -453.0C119.0 -595.0 219.0 -627.0 401.0 -627.0H588.0C589.0 -618.0 594.0 -605.0 601.0 -596.0C573.0 -596.0 416.0 -596.0 399.0 -596.0C238.0 -596.0 134.0 -567.0 81.0 -439.0ZM71.0 -380.0C48.0 -486.0 -0.0 -569.0 -76.0 -624.0C-68.0 -629.0 -55.0 -640.0 -51.0 -645.0C22.0 -585.0 76.0 -497.0 101.0 -384.0Z"/></g>
<g fill="red" transform="translate(1600 200) scale(0.1 -0.1)"><path d="M0.0 0.0V-98.0H583.0V0.0ZM-1.0 -229.0V-320.0H578.0V-229.0ZM270.0 -456.0V-548.0H533.0V-456.0ZM212.0 255.0V34.0H357.0V255.0ZM35.0 -120.0V-209.0H401.0V-338.0H35.0V-427.0H528.0V-120.0ZM107.0 -462.0 11.0 -495.0C90.0 -652.0 221.0 -687.0 393.0 -687.0H550.0C554.0 -656.0 571.0 -603.0 587.0 -577.0C543.0 -579.0 437.0 -579.0 403.0 -579.0C277.0 -578.0 163.0 -562.0 107.0 -462.0ZM10.0 -439.0C-2.0 -516.0 -35.0 -583.0 -95.0 -624.0C-66.0 -640.0 -12.0 -676.0 10.0 -696.0C76.0 -642.0 120.0 -557.0 138.0 -456.0Z"/></g>
<g fill="black" opacity=".8" transform="translate(1600 200) scale(0.1 -0.1)"><path d="M0.0 0.0V-98.0H584.0V0.0ZM-1.0 -229.0V-319.0H578.0V-229.0ZM271.0 -456.0V-548.0H533.0V-456.0ZM212.0 256.0V35.0L357.0 33.0V256.0ZM35.0 -120.0V-210.0H401.0V-339.0H35.0V-427.0H528.0V-120.0ZM107.0 -462.0 10.0 -495.0C91.0 -652.0 222.0 -687.0 393.0 -687.0H550.0C554.0 -657.0 571.0 -602.0 587.0 -577.0C543.0 -579.0 438.0 -579.0 404.0 -579.0C277.0 -578.0 163.0 -562.0 107.0 -462.0ZM9.0 -439.0C-1.0 -517.0 -36.0 -583.0 -96.0 -624.0C-66.0 -640.0 -12.0 -676.0 9.0 -696.0C76.0 -642.0 120.0 -558.0 138.0 -455.0Z"/></g>
<g fill="red" transform="translate(100 300) scale(0.1 -0.1)"><path d="M0.0 0.0V-29.0H539.0V0.0ZM16.0 -253.0V-282.0H550.0V-253.0ZM251.0 -539.0V-568.0H512.0V-539.0ZM238.0 103.0V-728.0L268.0 -736.0V103.0ZM32.0 -121.0V-151.0H445.0V-395.0H32.0V-424.0H474.0V-121.0ZM100.0 -529.0 73.0 -543.0C132.0 -717.0 231.0 -757.0 397.0 -757.0H552.0C553.0 -749.0 559.0 -736.0 565.0 -727.0C540.0 -727.0 413.0 -727.0 397.0 -727.0C250.0 -727.0 150.0 -691.0 100.0 -529.0ZM87.0 -462.0C67.0 -595.0 20.0 -701.0 -60.0 -770.0C-53.0 -775.0 -40.0 -785.0 -36.0 -790.0C43.0 -716.0 94.0 -606.0 117.0 -466.0Z"/></g>
<g fill="black" opacity=".8" transform="translate(100 300) scale(0.1 -0.1)"><path d="M0.0 0.0V-29.0H533.0V0.0ZM6.0 -252.0V-281.0H548.0V-252.0ZM251.0 -541.0V-570.0H515.0V-541.0ZM239.0 102.0V-728.0L269.0 -737.0V102.0ZM33.0 -121.0V-150.0H446.0V-393.0H33.0V-422.0H474.0V-121.0ZM95.0 -531.0 68.0 -544.0C125.0 -719.0 220.0 -760.0 385.0 -760.0H545.0C546.0 -752.0 552.0 -738.0 558.0 -730.0C533.0 -730.0 399.0 -730.0 384.0 -730.0C239.0 -730.0 143.0 -693.0 95.0 -531.0ZM86.0 -460.0C63.0 -594.0 15.0 -699.0 -64.0 -767.0C-58.0 -772.0 -45.0 -782.0 -40.0 -787.0C39.0 -712.0 91.0 -605.0 115.0 -465.0Z"/></g>
<g fill="red" transform="translate(200 300) scale(0.1 -0.1)"><path d="M0.0 0.0V-112.0H558.0V0.0ZM1.0 -276.0V-387.0H571.0V-276.0ZM275.0 -572.0V-683.0H532.0V-572.0ZM198.0 68.0V-739.0L325.0 -819.0V68.0ZM31.0 -140.0V-247.0H398.0V-419.0H31.0V-525.0H525.0V-140.0ZM131.0 -593.0 37.0 -630.0C111.0 -815.0 237.0 -856.0 402.0 -856.0H550.0C554.0 -821.0 570.0 -762.0 586.0 -734.0C544.0 -735.0 444.0 -735.0 412.0 -735.0C292.0 -735.0 183.0 -714.0 131.0 -593.0ZM35.0 -539.0C23.0 -648.0 -7.0 -747.0 -67.0 -807.0C-41.0 -824.0 5.0 -863.0 24.0 -883.0C91.0 -809.0 132.0 -691.0 150.0 -555.0Z"/></g>
<g fill="black" opacity=".8" transform="translate(200 300) scale(0.1 -0.1)"><path d="M0.0 0.0V-112.0H563.0V0.0ZM7.0 -276.0V-386.0H574.0V-276.0ZM284.0 -570.0V-681.0H537.0V-570.0ZM201.0 66.0V-730.0L328.0 -822.0V66.0ZM39.0 -138.0V-246.0H400.0V-419.0H39.0V-523.0H528.0V-138.0ZM139.0 -597.0 43.0 -634.0C118.0 -815.0 242.0 -857.0 407.0 -857.0H553.0C557.0 -823.0 573.0 -765.0 590.0 -739.0C548.0 -739.0 449.0 -739.0 419.0 -739.0C298.0 -739.0 190.0 -717.0 139.0 -597.0ZM40.0 -536.0C29.0 -646.0 -2.0 -741.0 -63.0 -797.0C-35.0 -816.0 16.0 -856.0 37.0 -877.0C105.0 -806.0 147.0 -691.0 165.0 -553.0Z"/></g>
<g fill="red" transform="translate(300 300) scale(0.1 -0.1)"><path d="M0.0 0.0V-29.0H578.0V0.0ZM1.0 -253.0V-282.0H593.0V-253.0ZM271.0 -539.0V-568.0H550.0V-539.0ZM259.0 103.0V-728.0L288.0 -736.0V103.0ZM32.0 -121.0V-151.0H489.0V-395.0H32.0V-424.0H518.0V-121.0ZM116.0 -526.0 88.0 -540.0C150.0 -717.0 253.0 -758.0 425.0 -758.0H587.0C588.0 -750.0 594.0 -737.0 600.0 -728.0C574.0 -728.0 441.0 -728.0 425.0 -728.0C271.0 -728.0 168.0 -691.0 116.0 -526.0ZM103.0 -462.0C82.0 -595.0 35.0 -701.0 -44.0 -770.0C-37.0 -775.0 -25.0 -785.0 -21.0 -790.0C59.0 -716.0 110.0 -606.0 132.0 -466.0Z"/></g>
<g fill="black" opacity=".8" transform="translate(300 300) scale(0.1 -0.1)"><path d="M0.0 0.0V-29.0H574.0V0.0ZM5.0 -252.0V-282.0H588.0V-252.0ZM270.0 -539.0V-568.0H550.0V-539.0ZM258.0 104.0V-728.0L287.0 -737.0V104.0ZM33.0 -122.0V-151.0H485.0V-393.0H33.0V-422.0H513.0V-122.0ZM101.0 -519.0 73.0 -533.0C137.0 -716.0 244.0 -759.0 421.0 -759.0H586.0C587.0 -751.0 593.0 -737.0 599.0 -729.0C573.0 -729.0 437.0 -729.0 420.0 -729.0C263.0 -729.0 154.0 -691.0 101.0 -519.0ZM88.0 -454.0C64.0 -600.0 16.0 -697.0 -61.0 -766.0C-55.0 -772.0 -42.0 -781.0 -38.0 -786.0C38.0 -711.0 92.0 -611.0 117.0 -460.0Z"/></g>
<g fill="red" transform="translate(400 300) scale(0.1 -0.1)"><path d="M0.0 0.0V-112.0H609.0V0.0ZM14.0 -276.0V-387.0H617.0V-276.0ZM304.0 -572.0V-683.0H576.0V-572.0ZM214.0 68.0V-739.0L348.0 -819.0V68.0ZM45.0 -140.0V-247.0H424.0V-419.0H45.0V-525.0H558.0V-140.0ZM152.0 -593.0 53.0 -630.0C131.0 -815.0 264.0 -856.0 439.0 -856.0H595.0C600.0 -821.0 617.0 -762.0 634.0 -734.0C589.0 -735.0 483.0 -735.0 449.0 -735.0C322.0 -735.0 207.0 -714.0 152.0 -593.0ZM50.0 -539.0C38.0 -645.0 7.0 -741.0 -55.0 -799.0C-24.0 -818.0 31.0 -862.0 54.0 -885.0C125.0 -811.0 168.0 -692.0 186.0 -557.0Z"/></g>
<g fill="black" opacity=".8" transform="translate(400 300) scale(0.1 -0.1)"><path d="M0.0 0.0V-113.0H609.0V0.0ZM2.0 -277.0V-390.0H623.0V-277.0ZM297.0 -574.0V-688.0H579.0V-574.0ZM218.0 67.0V-730.0L352.0 -830.0V67.0ZM44.0 -139.0V-250.0H433.0V-421.0H44.0V-529.0H565.0V-139.0ZM144.0 -595.0 43.0 -634.0C126.0 -815.0 261.0 -856.0 439.0 -856.0H600.0C605.0 -821.0 622.0 -762.0 639.0 -734.0C593.0 -735.0 485.0 -735.0 450.0 -735.0C319.0 -735.0 199.0 -713.0 144.0 -595.0ZM45.0 -541.0C32.0 -652.0 -5.0 -746.0 -57.0 -802.0C-28.0 -820.0 29.0 -863.0 52.0 -883.0C107.0 -814.0 154.0 -700.0 174.0 -563.0Z"/></g>
<g fill="red" transform="translate(500 300) scale(0.1 -0.1)"><path d="M0.0 0.0V-29.0H605.0V0.0ZM-16.0 -262.0V-292.0H620.0V-262.0ZM285.0 -559.0V-590.0H591.0V-559.0ZM272.0 100.0V-754.0L301.0 -762.0V100.0ZM36.0 -129.0V-158.0H501.0V-403.0H36.0V-432.0H531.0V-129.0ZM72.0 -556.0 48.0 -568.0C109.0 -748.0 221.0 -785.0 407.0 -785.0H613.0C615.0 -776.0 621.0 -763.0 627.0 -754.0C599.0 -754.0 426.0 -754.0 408.0 -754.0C240.0 -754.0 126.0 -724.0 72.0 -556.0ZM66.0 -472.0C42.0 -606.0 -13.0 -712.0 -102.0 -780.0C-95.0 -785.0 -82.0 -795.0 -78.0 -800.0C9.0 -727.0 69.0 -618.0 96.0 -476.0Z"/></g>
<g fill="black" opacity=".8" transform="translate(500 300) scale(0.1 -0.1)"><path d="M0.0 0.0V-29.0H613.0V0.0ZM-10.0 -264.0V-295.0H630.0V-264.0ZM292.0 -557.0V-588.0H573.0V-557.0ZM278.0 102.0V-756.0L308.0 -761.0V102.0ZM41.0 -127.0V-157.0H520.0V-408.0H41.0V-438.0H548.0V-127.0ZM88.0 -553.0 63.0 -566.0C128.0 -747.0 243.0 -786.0 430.0 -786.0H620.0C622.0 -777.0 628.0 -763.0 634.0 -755.0C607.0 -755.0 448.0 -755.0 430.0 -755.0C262.0 -755.0 144.0 -722.0 88.0 -553.0ZM78.0 -468.0C58.0 -606.0 13.0 -718.0 -72.0 -788.0C-65.0 -793.0 -52.0 -802.0 -47.0 -807.0C36.0 -731.0 86.0 -617.0 109.0 -473.0Z"/></g>
<g fill="red" transform="translate(600 300) scale(0.1 -0.1)"><path d="M0.0 0.0V-115.0H635.0V0.0ZM-19.0 -276.0V-391.0H661.0V-276.0ZM298.0 -572.0V-692.0H609.0V-572.0ZM234.0 68.0V-739.0L384.0 -830.0V68.0ZM37.0 -140.0V-251.0H461.0V-416.0H37.0V-527.0H597.0V-140.0ZM149.0 -604.0 43.0 -641.0C122.0 -831.0 256.0 -871.0 442.0 -871.0H633.0C638.0 -833.0 657.0 -771.0 675.0 -740.0C621.0 -742.0 494.0 -743.0 452.0 -742.0C319.0 -742.0 203.0 -723.0 149.0 -604.0ZM37.0 -541.0C20.0 -647.0 -21.0 -741.0 -93.0 -797.0C-63.0 -817.0 -10.0 -866.0 11.0 -891.0C95.0 -818.0 149.0 -699.0 174.0 -562.0Z"/></g>
<g fill="black" opacity=".8" transform="translate(600 300) scale(0.1 -0.1)"><path d="M0.0 0.0V-114.0H630.0V0.0ZM-13.0 -277.0V-389.0H649.0V-277.0ZM308.0 -572.0V-687.0H594.0V-572.0ZM228.0 73.0V-755.0L371.0 -812.0V73.0ZM39.0 -141.0V-251.0H449.0V-417.0H39.0V-525.0H587.0V-141.0ZM150.0 -603.0 47.0 -637.0C124.0 -832.0 254.0 -871.0 432.0 -871.0H614.0C620.0 -833.0 638.0 -770.0 656.0 -741.0C603.0 -743.0 482.0 -743.0 441.0 -743.0C314.0 -743.0 202.0 -724.0 150.0 -603.0ZM40.0 -537.0C29.0 -644.0 -4.0 -742.0 -75.0 -801.0C-45.0 -822.0 8.0 -868.0 29.0 -893.0C112.0 -815.0 157.0 -693.0 176.0 -552.0Z"/></g>
</svg>
