<?xml version="1.0" encoding="UTF-8"?>
<svg width="1700" height="300" xmlns="http://www.w3.org/2000/svg">
<rect width="100%" height="100%" fill="white"/>
<g fill="green" transform="translate(100 100) scale(0.1 -0.1)"><path d="M-0.0 0.0V-285.0H30.0V0.0ZM-109.0 268.0H153.0V118.0H-109.0ZM-140.0 299.0V89.0H183.0V299.0ZM-203.0 19.0V-340.0H-172.0V-11.0H210.0V-338.0H240.0V19.0ZM-179.0 -126.0V-156.0H223.0V-126.0ZM-177.0 -269.0V-299.0H220.0V-269.0ZM-2.0 595.0V418.0H29.0V595.0ZM-227.0 433.0V280.0H-196.0V403.0H229.0V280.0H261.0V433.0ZM-192.0 565.0C-161.0 523.0 -130.0 466.0 -117.0 428.0L-90.0 442.0C-101.0 477.0 -132.0 533.0 -163.0 574.0ZM201.0 581.0C182.0 542.0 148.0 483.0 121.0 447.0L145.0 434.0C172.0 469.0 205.0 521.0 230.0 566.0Z"/></g>
<g fill="green" transform="translate(200 100) scale(0.1 -0.1)"><path d="M0.0 0.0V-277.0H123.0V0.0ZM-6.0 227.0H133.0V185.0H-6.0ZM-125.0 326.0V85.0H260.0V326.0ZM-171.0 55.0V-357.0H-44.0V-56.0H180.0V-357.0H314.0V55.0ZM-97.0 -91.0V-185.0H189.0V-91.0ZM-112.0 -220.0V-335.0H190.0V-220.0ZM-9.0 631.0V387.0H125.0V631.0ZM-196.0 489.0V282.0H-68.0V369.0H196.0V282.0H330.0V489.0ZM-190.0 578.0C-170.0 541.0 -152.0 492.0 -147.0 461.0L-26.0 509.0C-32.0 542.0 -54.0 588.0 -78.0 622.0ZM189.0 622.0C180.0 589.0 162.0 541.0 146.0 509.0L258.0 470.0C274.0 498.0 293.0 536.0 316.0 580.0Z"/></g>
<g fill="green" transform="translate(300 100) scale(0.1 -0.1)"><path d="M0.0 0.0V-269.0H28.0V0.0ZM-102.0 255.0H143.0V111.0H-102.0ZM-131.0 284.0V84.0H172.0V284.0ZM-191.0 18.0V-321.0H-161.0V-10.0H198.0V-319.0H226.0V18.0ZM-168.0 -119.0V-147.0H210.0V-119.0ZM-166.0 -254.0V-282.0H207.0V-254.0ZM-2.0 565.0V398.0H27.0V565.0ZM-213.0 412.0V267.0H-184.0V384.0H215.0V267.0H245.0V412.0ZM-181.0 537.0C-152.0 497.0 -122.0 443.0 -110.0 406.0L-84.0 420.0C-95.0 453.0 -124.0 506.0 -154.0 545.0ZM190.0 552.0C172.0 515.0 140.0 459.0 114.0 425.0L137.0 413.0C162.0 446.0 194.0 495.0 217.0 538.0Z"/></g>
<g fill="green" transform="translate(400 100) scale(0.1 -0.1)"><path d="M0.0 0.0V-263.0H116.0V0.0ZM-5.0 215.0H125.0V175.0H-5.0ZM-117.0 309.0V80.0H245.0V309.0ZM-161.0 52.0V-338.0H-40.0V-53.0H169.0V-338.0H296.0V52.0ZM-90.0 -87.0V-175.0H174.0V-87.0ZM-105.0 -209.0V-318.0H175.0V-209.0ZM-9.0 599.0V364.0H118.0V599.0ZM-184.0 464.0V267.0H-62.0V350.0H183.0V267.0H310.0V464.0ZM-180.0 548.0C-161.0 513.0 -144.0 466.0 -139.0 437.0L-25.0 483.0C-30.0 514.0 -51.0 558.0 -74.0 590.0ZM178.0 590.0C169.0 559.0 152.0 513.0 137.0 483.0L244.0 446.0C258.0 472.0 276.0 508.0 297.0 550.0Z"/></g>
<g fill="green" transform="translate(500 100) scale(0.1 -0.1)"><path d="M-0.0 0.0V-289.0H28.0V0.0ZM-161.0 236.0H206.0V116.0H-161.0ZM-190.0 266.0V87.0H235.0V266.0ZM-247.0 12.0V-347.0H-219.0V-16.0H264.0V-345.0H292.0V12.0ZM-231.0 -131.0V-159.0H279.0V-131.0ZM-230.0 -273.0V-301.0H278.0V-273.0ZM-2.0 543.0V371.0H28.0V543.0ZM-290.0 384.0V236.0H-261.0V356.0H300.0V236.0H329.0V384.0ZM-213.0 519.0C-184.0 480.0 -155.0 429.0 -144.0 394.0L-117.0 405.0C-129.0 440.0 -158.0 490.0 -188.0 528.0ZM212.0 530.0C194.0 495.0 162.0 439.0 137.0 404.0L158.0 393.0C185.0 425.0 216.0 476.0 240.0 518.0Z"/></g>
<g fill="green" transform="translate(600 100) scale(0.1 -0.1)"><path d="M0.0 0.0V-254.0H137.0V0.0ZM-24.0 218.0H169.0V184.0H-24.0ZM-160.0 314.0V88.0H313.0V314.0ZM-219.0 56.0V-339.0H-77.0V-47.0H220.0V-339.0H369.0V56.0ZM-136.0 -79.0V-173.0H299.0V-79.0ZM-143.0 -207.0V-309.0H307.0V-207.0ZM-2.0 596.0V404.0H149.0V596.0ZM-256.0 456.0V265.0H-118.0V349.0H270.0V265.0H413.0V456.0ZM-214.0 553.0C-191.0 514.0 -167.0 463.0 -159.0 429.0L-28.0 471.0C-38.0 505.0 -64.0 553.0 -90.0 589.0ZM238.0 593.0C227.0 556.0 203.0 505.0 183.0 469.0L298.0 434.0C322.0 465.0 353.0 509.0 387.0 555.0Z"/></g>
<g fill="green" transform="translate(700 100) scale(0.1 -0.1)"><path d="M0.0 0.0V-309.0H31.0V0.0ZM-104.0 264.0H141.0V127.0H-104.0ZM-136.0 296.0V96.0H173.0V296.0ZM-200.0 18.0V-366.0H-168.0V-13.0H195.0V-366.0H226.0V18.0ZM-180.0 -135.0V-166.0H209.0V-135.0ZM-180.0 -293.0V-324.0H208.0V-293.0ZM1.0 582.0V405.0H32.0V582.0ZM-220.0 421.0V259.0H-189.0V391.0H225.0V259.0H256.0V421.0ZM-188.0 553.0C-157.0 514.0 -128.0 462.0 -116.0 425.0L-89.0 440.0C-101.0 474.0 -131.0 525.0 -161.0 564.0ZM201.0 570.0C183.0 532.0 150.0 474.0 125.0 440.0L150.0 425.0C175.0 459.0 207.0 510.0 233.0 553.0Z"/></g>
<g fill="green" transform="translate(800 100) scale(0.1 -0.1)"><path d="M0.0 0.0V-272.0H111.0V0.0ZM-14.0 234.0H131.0V197.0H-14.0ZM-120.0 338.0V93.0H243.0V338.0ZM-163.0 57.0V-368.0H-53.0V-56.0H169.0V-368.0H285.0V57.0ZM-112.0 -91.0V-188.0H223.0V-91.0ZM-114.0 -226.0V-338.0H219.0V-226.0ZM-1.0 629.0V430.0H117.0V629.0ZM-195.0 495.0V287.0H-86.0V380.0H197.0V287.0H310.0V495.0ZM-171.0 585.0C-152.0 549.0 -133.0 501.0 -127.0 469.0L-27.0 519.0C-34.0 550.0 -55.0 595.0 -77.0 629.0ZM183.0 625.0C176.0 592.0 159.0 545.0 145.0 512.0L237.0 476.0C254.0 504.0 274.0 542.0 297.0 585.0Z"/></g>
<g fill="red" transform="translate(100 200) scale(0.1 -0.1)"><path d="M0.0 0.0V-305.0H29.0V0.0ZM-168.0 234.0H192.0V125.0H-168.0ZM-197.0 264.0V95.0H221.0V264.0ZM-250.0 12.0V-365.0H-221.0V-17.0H241.0V-365.0H270.0V12.0ZM-234.0 -137.0V-166.0H256.0V-137.0ZM-234.0 -290.0V-319.0H256.0V-290.0ZM-3.0 531.0V368.0H26.0V531.0ZM-299.0 376.0V221.0H-270.0V347.0H295.0V221.0H324.0V376.0ZM-209.0 509.0C-180.0 473.0 -153.0 425.0 -142.0 392.0L-116.0 404.0C-128.0 437.0 -156.0 484.0 -185.0 520.0ZM206.0 522.0C189.0 487.0 158.0 432.0 134.0 400.0L157.0 387.0C181.0 419.0 211.0 467.0 235.0 508.0Z"/></g>
<g fill="black" opacity=".8" transform="translate(100 200) scale(0.1 -0.1)"><path d="M0.0 0.0V-308.0H29.0V0.0ZM-157.0 233.0H197.0V123.0H-157.0ZM-187.0 264.0V92.0H227.0V264.0ZM-245.0 11.0V-367.0H-216.0V-18.0H252.0V-367.0H281.0V11.0ZM-232.0 -138.0V-167.0H268.0V-138.0ZM-232.0 -292.0V-320.0H269.0V-292.0ZM0.0 533.0V361.0H30.0V533.0ZM-285.0 375.0V220.0H-256.0V347.0H297.0V220.0H325.0V375.0ZM-210.0 510.0C-181.0 473.0 -153.0 426.0 -143.0 392.0L-116.0 403.0C-129.0 438.0 -157.0 484.0 -186.0 520.0ZM212.0 521.0C195.0 487.0 164.0 432.0 140.0 399.0L162.0 386.0C187.0 417.0 218.0 467.0 242.0 508.0Z"/></g>
<g fill="red" transform="translate(200 200) scale(0.1 -0.1)"><path d="M0.0 0.0V-252.0H128.0V0.0ZM-43.0 223.0H170.0V192.0H-43.0ZM-168.0 323.0V93.0H301.0V323.0ZM-219.0 58.0V-348.0H-90.0V-48.0H209.0V-348.0H344.0V58.0ZM-153.0 -80.0V-176.0H325.0V-80.0ZM-151.0 -212.0V-313.0H327.0V-212.0ZM1.0 594.0V432.0H142.0V594.0ZM-260.0 463.0V270.0H-138.0V358.0H269.0V270.0H397.0V463.0ZM-200.0 557.0C-178.0 520.0 -154.0 470.0 -146.0 437.0L-31.0 481.0C-42.0 512.0 -67.0 559.0 -90.0 594.0ZM232.0 594.0C222.0 558.0 200.0 509.0 182.0 474.0L283.0 441.0C307.0 470.0 337.0 513.0 370.0 558.0Z"/></g>
<g fill="black" opacity=".8" transform="translate(200 200) scale(0.1 -0.1)"><path d="M0.0 0.0V-250.0H128.0V0.0ZM-30.0 223.0H167.0V193.0H-30.0ZM-156.0 323.0V94.0H300.0V323.0ZM-213.0 58.0V-348.0H-84.0V-47.0H211.0V-348.0H346.0V58.0ZM-148.0 -79.0V-175.0H325.0V-79.0ZM-145.0 -212.0V-311.0H330.0V-212.0ZM4.0 594.0V437.0H143.0V594.0ZM-255.0 461.0V269.0H-132.0V358.0H271.0V269.0H397.0V461.0ZM-199.0 558.0C-177.0 520.0 -152.0 470.0 -143.0 435.0L-29.0 479.0C-40.0 511.0 -65.0 558.0 -89.0 594.0ZM233.0 595.0C224.0 558.0 201.0 508.0 182.0 471.0L282.0 439.0C306.0 470.0 338.0 514.0 372.0 559.0Z"/></g>
<g fill="red" transform="translate(300 200) scale(0.1 -0.1)"><path d="M0.0 0.0V-296.0H29.0V0.0ZM-116.0 236.0H150.0V121.0H-116.0ZM-145.0 266.0V91.0H179.0V266.0ZM-213.0 12.0V-349.0H-184.0V-17.0H212.0V-349.0H242.0V12.0ZM-200.0 -127.0V-157.0H226.0V-127.0ZM-200.0 -280.0V-309.0H226.0V-280.0ZM2.0 533.0V361.0H31.0V533.0ZM-233.0 379.0V223.0H-203.0V349.0H241.0V223.0H270.0V379.0ZM-187.0 509.0C-158.0 474.0 -131.0 426.0 -120.0 392.0L-93.0 404.0C-105.0 437.0 -134.0 484.0 -163.0 520.0ZM193.0 523.0C176.0 487.0 145.0 432.0 121.0 400.0L144.0 387.0C168.0 419.0 198.0 467.0 222.0 508.0Z"/></g>
<g fill="black" opacity=".8" transform="translate(300 200) scale(0.1 -0.1)"><path d="M0.0 0.0V-296.0H28.0V0.0ZM-122.0 236.0H157.0V119.0H-122.0ZM-152.0 266.0V90.0H188.0V266.0ZM-210.0 14.0V-351.0H-180.0V-14.0H210.0V-351.0H238.0V14.0ZM-195.0 -131.0V-159.0H224.0V-131.0ZM-195.0 -280.0V-309.0H224.0V-280.0ZM1.0 528.0V363.0H30.0V528.0ZM-237.0 377.0V225.0H-209.0V350.0H246.0V225.0H274.0V377.0ZM-188.0 504.0C-159.0 468.0 -132.0 422.0 -122.0 387.0L-96.0 401.0C-109.0 433.0 -136.0 478.0 -164.0 514.0ZM196.0 517.0C179.0 483.0 149.0 430.0 126.0 398.0L149.0 385.0C172.0 416.0 202.0 463.0 225.0 503.0Z"/></g>
<g fill="red" transform="translate(400 200) scale(0.1 -0.1)"><path d="M0.0 0.0V-246.0H111.0V0.0ZM-30.0 217.0H139.0V186.0H-30.0ZM-139.0 314.0V89.0H252.0V314.0ZM-187.0 56.0V-341.0H-76.0V-48.0H186.0V-341.0H304.0V56.0ZM-134.0 -79.0V-173.0H260.0V-79.0ZM-132.0 -208.0V-307.0H263.0V-208.0ZM-7.0 580.0V421.0H112.0V580.0ZM-223.0 452.0V264.0H-117.0V350.0H217.0V264.0H327.0V452.0ZM-181.0 544.0C-162.0 508.0 -141.0 459.0 -134.0 427.0L-35.0 470.0C-44.0 500.0 -66.0 546.0 -86.0 581.0ZM188.0 580.0C179.0 544.0 160.0 496.0 144.0 462.0L232.0 430.0C253.0 458.0 279.0 500.0 307.0 544.0Z"/></g>
<g fill="black" opacity=".8" transform="translate(400 200) scale(0.1 -0.1)"><path d="M0.0 0.0V-247.0H111.0V0.0ZM-22.0 218.0H141.0V187.0H-22.0ZM-129.0 316.0V90.0H254.0V316.0ZM-177.0 55.0V-341.0H-65.0V-49.0H178.0V-341.0H294.0V55.0ZM-124.0 -81.0V-173.0H262.0V-81.0ZM-122.0 -209.0V-309.0H261.0V-209.0ZM2.0 581.0V416.0H122.0V581.0ZM-213.0 455.0V264.0H-104.0V352.0H220.0V264.0H331.0V455.0ZM-173.0 544.0C-154.0 509.0 -133.0 462.0 -125.0 430.0L-27.0 476.0C-35.0 505.0 -57.0 549.0 -79.0 582.0ZM196.0 580.0C188.0 547.0 169.0 501.0 154.0 468.0L243.0 435.0C262.0 463.0 287.0 502.0 313.0 544.0Z"/></g>
<g fill="red" transform="translate(500 200) scale(0.1 -0.1)"><path d="M0.0 0.0V-305.0H29.0V0.0ZM-143.0 236.0H199.0V121.0H-143.0ZM-173.0 266.0V91.0H228.0V266.0ZM-231.0 12.0V-365.0H-201.0V-17.0H246.0V-365.0H275.0V12.0ZM-218.0 -137.0V-166.0H263.0V-137.0ZM-218.0 -290.0V-319.0H263.0V-290.0ZM8.0 533.0V361.0H38.0V533.0ZM-263.0 378.0V223.0H-234.0V349.0H295.0V223.0H324.0V378.0ZM-199.0 509.0C-171.0 473.0 -143.0 425.0 -133.0 392.0L-106.0 404.0C-118.0 437.0 -146.0 484.0 -176.0 520.0ZM217.0 522.0C200.0 487.0 169.0 432.0 146.0 400.0L168.0 387.0C193.0 419.0 222.0 467.0 247.0 508.0Z"/></g>
<g fill="black" opacity=".8" transform="translate(500 200) scale(0.1 -0.1)"><path d="M0.0 0.0V-305.0H29.0V0.0ZM-151.0 235.0H190.0V122.0H-151.0ZM-180.0 266.0V92.0H220.0V266.0ZM-239.0 12.0V-364.0H-210.0V-17.0H245.0V-364.0H274.0V12.0ZM-225.0 -137.0V-165.0H261.0V-137.0ZM-225.0 -289.0V-318.0H261.0V-289.0ZM0.0 535.0V364.0H30.0V535.0ZM-276.0 378.0V223.0H-247.0V350.0H288.0V223.0H316.0V378.0ZM-206.0 511.0C-177.0 475.0 -150.0 427.0 -139.0 393.0L-113.0 405.0C-125.0 439.0 -153.0 485.0 -183.0 522.0ZM210.0 524.0C192.0 489.0 161.0 434.0 138.0 401.0L159.0 388.0C185.0 419.0 215.0 469.0 240.0 510.0Z"/></g>
<g fill="red" transform="translate(600 200) scale(0.1 -0.1)"><path d="M0.0 0.0V-252.0H128.0V0.0ZM-18.0 223.0H165.0V192.0H-18.0ZM-143.0 323.0V93.0H296.0V323.0ZM-199.0 58.0V-348.0H-70.0V-48.0H206.0V-348.0H341.0V58.0ZM-138.0 -80.0V-176.0H317.0V-80.0ZM-136.0 -212.0V-313.0H319.0V-212.0ZM8.0 594.0V432.0H146.0V594.0ZM-241.0 463.0V270.0H-119.0V358.0H266.0V270.0H393.0V463.0ZM-193.0 557.0C-171.0 520.0 -147.0 470.0 -139.0 437.0L-24.0 481.0C-35.0 512.0 -60.0 559.0 -83.0 594.0ZM232.0 594.0C222.0 558.0 200.0 509.0 182.0 474.0L283.0 441.0C307.0 470.0 337.0 513.0 370.0 558.0Z"/></g>
<g fill="black" opacity=".8" transform="translate(600 200) scale(0.1 -0.1)"><path d="M0.0 0.0V-251.0H125.0V0.0ZM-28.0 223.0H163.0V192.0H-28.0ZM-151.0 323.0V93.0H292.0V323.0ZM-206.0 57.0V-347.0H-80.0V-48.0H206.0V-347.0H339.0V57.0ZM-142.0 -80.0V-175.0H311.0V-80.0ZM-140.0 -212.0V-312.0H315.0V-212.0ZM3.0 594.0V432.0H139.0V594.0ZM-247.0 461.0V269.0H-126.0V357.0H261.0V269.0H386.0V461.0ZM-196.0 558.0C-174.0 520.0 -150.0 470.0 -141.0 436.0L-28.0 480.0C-39.0 512.0 -63.0 559.0 -87.0 594.0ZM227.0 595.0C218.0 558.0 195.0 509.0 177.0 473.0L276.0 440.0C300.0 470.0 330.0 513.0 362.0 558.0Z"/></g>
<g fill="red" transform="translate(700 200) scale(0.1 -0.1)"><path d="M0.0 0.0V-283.0H30.0V0.0ZM-137.0 241.0H185.0V113.0H-137.0ZM-166.0 270.0V84.0H214.0V270.0ZM-224.0 10.0V-341.0H-195.0V-19.0H237.0V-338.0H267.0V10.0ZM-211.0 -128.0V-157.0H252.0V-128.0ZM-211.0 -266.0V-295.0H248.0V-266.0ZM0.0 559.0V374.0H30.0V559.0ZM-262.0 390.0V242.0H-233.0V360.0H273.0V242.0H302.0V390.0ZM-206.0 535.0C-176.0 493.0 -148.0 437.0 -137.0 399.0L-109.0 410.0C-119.0 448.0 -149.0 503.0 -179.0 544.0ZM215.0 546.0C197.0 506.0 164.0 447.0 139.0 410.0L161.0 398.0C187.0 433.0 218.0 486.0 242.0 531.0Z"/></g>
<g fill="black" opacity=".8" transform="translate(700 200) scale(0.1 -0.1)"><path d="M0.0 0.0V-286.0H28.0V0.0ZM-139.0 245.0H182.0V116.0H-139.0ZM-168.0 275.0V87.0H212.0V275.0ZM-227.0 14.0V-343.0H-198.0V-14.0H239.0V-341.0H267.0V14.0ZM-209.0 -128.0V-157.0H253.0V-128.0ZM-208.0 -270.0V-299.0H252.0V-270.0ZM-2.0 554.0V383.0H28.0V554.0ZM-262.0 396.0V247.0H-233.0V368.0H269.0V247.0H299.0V396.0ZM-202.0 529.0C-173.0 489.0 -143.0 437.0 -132.0 401.0L-105.0 414.0C-117.0 448.0 -146.0 499.0 -176.0 538.0ZM205.0 541.0C187.0 505.0 155.0 449.0 130.0 414.0L152.0 403.0C178.0 435.0 209.0 486.0 233.0 528.0Z"/></g>
<g fill="red" transform="translate(800 200) scale(0.1 -0.1)"><path d="M0.0 0.0V-261.0H123.0V0.0ZM-18.0 218.0H148.0V181.0H-18.0ZM-143.0 313.0V86.0H281.0V313.0ZM-205.0 58.0V-339.0H-74.0V-45.0H206.0V-339.0H344.0V58.0ZM-115.0 -78.0V-175.0H246.0V-78.0ZM-127.0 -207.0V-310.0H265.0V-207.0ZM-6.0 612.0V396.0H131.0V612.0ZM-231.0 459.0V266.0H-103.0V349.0H240.0V266.0H374.0V459.0ZM-207.0 564.0C-184.0 524.0 -160.0 470.0 -152.0 436.0L-29.0 481.0C-40.0 516.0 -67.0 567.0 -92.0 605.0ZM211.0 608.0C200.0 568.0 179.0 513.0 160.0 475.0L267.0 439.0C289.0 471.0 318.0 519.0 349.0 568.0Z"/></g>
<g fill="black" opacity=".8" transform="translate(800 200) scale(0.1 -0.1)"><path d="M0.0 0.0V-259.0H129.0V0.0ZM-18.0 219.0H153.0V183.0H-18.0ZM-144.0 316.0V87.0H288.0V316.0ZM-198.0 55.0V-343.0H-64.0V-50.0H201.0V-343.0H341.0V55.0ZM-121.0 -83.0V-176.0H257.0V-83.0ZM-130.0 -210.0V-315.0H262.0V-210.0ZM-4.0 602.0V397.0H137.0V602.0ZM-230.0 463.0V268.0H-99.0V353.0H239.0V268.0H375.0V463.0ZM-201.0 556.0C-179.0 519.0 -157.0 469.0 -150.0 436.0L-27.0 480.0C-35.0 513.0 -60.0 560.0 -84.0 595.0ZM216.0 597.0C206.0 562.0 185.0 513.0 167.0 478.0L277.0 443.0C298.0 472.0 324.0 513.0 354.0 558.0Z"/></g>
<g fill="red" transform="translate(900 200) scale(0.1 -0.1)"><path d="M0.0 0.0V-288.0H28.0V0.0ZM-139.0 252.0H177.0V119.0H-139.0ZM-168.0 282.0V90.0H206.0V282.0ZM-230.0 18.0V-342.0H-201.0V-11.0H243.0V-342.0H271.0V18.0ZM-207.0 -127.0V-156.0H257.0V-127.0ZM-205.0 -273.0V-302.0H256.0V-273.0ZM-3.0 559.0V396.0H26.0V559.0ZM-260.0 409.0V257.0H-229.0V380.0H261.0V257.0H293.0V409.0ZM-200.0 531.0C-171.0 494.0 -140.0 443.0 -128.0 409.0L-102.0 422.0C-114.0 454.0 -144.0 504.0 -175.0 541.0ZM197.0 547.0C179.0 512.0 146.0 457.0 120.0 425.0L143.0 413.0C169.0 445.0 201.0 492.0 225.0 534.0Z"/></g>
<g fill="black" opacity=".8" transform="translate(900 200) scale(0.1 -0.1)"><path d="M0.0 0.0V-285.0H29.0V0.0ZM-137.0 248.0H181.0V116.0H-137.0ZM-167.0 279.0V87.0H211.0V279.0ZM-226.0 15.0V-342.0H-197.0V-14.0H239.0V-340.0H267.0V15.0ZM-207.0 -128.0V-157.0H253.0V-128.0ZM-205.0 -269.0V-298.0H251.0V-269.0ZM-2.0 562.0V389.0H28.0V562.0ZM-261.0 403.0V254.0H-231.0V374.0H267.0V254.0H297.0V403.0ZM-202.0 536.0C-173.0 496.0 -143.0 442.0 -131.0 406.0L-104.0 418.0C-116.0 453.0 -146.0 505.0 -176.0 544.0ZM206.0 549.0C187.0 512.0 155.0 455.0 129.0 420.0L151.0 408.0C178.0 441.0 210.0 492.0 234.0 535.0Z"/></g>
<g fill="red" transform="translate(1000 200) scale(0.1 -0.1)"><path d="M0.0 0.0V-261.0H135.0V0.0ZM-17.0 221.0H156.0V184.0H-17.0ZM-146.0 319.0V86.0H292.0V319.0ZM-191.0 54.0V-348.0H-55.0V-54.0H198.0V-348.0H342.0V54.0ZM-125.0 -87.0V-178.0H258.0V-87.0ZM-133.0 -214.0V-322.0H251.0V-214.0ZM-5.0 598.0V395.0H141.0V598.0ZM-228.0 471.0V273.0H-95.0V359.0H234.0V273.0H374.0V471.0ZM-198.0 553.0C-178.0 518.0 -159.0 470.0 -154.0 440.0L-26.0 482.0C-33.0 513.0 -55.0 558.0 -78.0 591.0ZM218.0 592.0C207.0 560.0 186.0 515.0 169.0 485.0L285.0 449.0C305.0 475.0 328.0 512.0 356.0 554.0Z"/></g>
<g fill="black" opacity=".8" transform="translate(1000 200) scale(0.1 -0.1)"><path d="M0.0 0.0V-262.0H130.0V0.0ZM-16.0 220.0H152.0V183.0H-16.0ZM-144.0 317.0V86.0H288.0V317.0ZM-197.0 55.0V-344.0H-62.0V-51.0H201.0V-344.0H343.0V55.0ZM-118.0 -84.0V-177.0H249.0V-84.0ZM-129.0 -211.0V-318.0H254.0V-211.0ZM-5.0 607.0V394.0H138.0V607.0ZM-228.0 467.0V271.0H-95.0V355.0H236.0V271.0H374.0V467.0ZM-202.0 560.0C-181.0 522.0 -159.0 472.0 -153.0 440.0L-27.0 484.0C-35.0 518.0 -59.0 565.0 -84.0 599.0ZM215.0 602.0C205.0 567.0 184.0 517.0 166.0 483.0L279.0 447.0C299.0 476.0 325.0 517.0 353.0 562.0Z"/></g>
<g fill="red" transform="translate(1100 200) scale(0.1 -0.1)"><path d="M0.0 0.0V-305.0H29.0V0.0ZM-143.0 236.0H181.0V121.0H-143.0ZM-173.0 266.0V91.0H211.0V266.0ZM-230.0 12.0V-365.0H-201.0V-17.0H243.0V-365.0H272.0V12.0ZM-218.0 -137.0V-166.0H260.0V-137.0ZM-218.0 -290.0V-319.0H260.0V-290.0ZM-2.0 533.0V361.0H27.0V533.0ZM-263.0 378.0V223.0H-233.0V349.0H269.0V223.0H299.0V378.0ZM-210.0 509.0C-181.0 473.0 -154.0 425.0 -143.0 392.0L-117.0 404.0C-128.0 437.0 -157.0 484.0 -186.0 520.0ZM207.0 522.0C190.0 487.0 159.0 432.0 135.0 400.0L158.0 387.0C182.0 419.0 212.0 467.0 236.0 508.0Z"/></g>
<g fill="black" opacity=".8" transform="translate(1100 200) scale(0.1 -0.1)"><path d="M0.0 0.0V-304.0H29.0V0.0ZM-141.0 236.0H179.0V122.0H-141.0ZM-171.0 267.0V92.0H209.0V267.0ZM-229.0 13.0V-363.0H-200.0V-16.0H233.0V-362.0H262.0V13.0ZM-215.0 -136.0V-164.0H248.0V-136.0ZM-216.0 -289.0V-318.0H248.0V-289.0ZM1.0 535.0V365.0H30.0V535.0ZM-263.0 379.0V224.0H-234.0V351.0H274.0V224.0H302.0V379.0ZM-201.0 511.0C-172.0 474.0 -144.0 427.0 -134.0 393.0L-107.0 405.0C-120.0 439.0 -148.0 485.0 -177.0 521.0ZM206.0 524.0C189.0 489.0 158.0 434.0 134.0 401.0L157.0 388.0C181.0 420.0 211.0 469.0 236.0 509.0Z"/></g>
<g fill="red" transform="translate(1200 200) scale(0.1 -0.1)"><path d="M0.0 0.0V-252.0H120.0V0.0ZM-17.0 223.0H154.0V192.0H-17.0ZM-133.0 323.0V93.0H276.0V323.0ZM-187.0 58.0V-348.0H-67.0V-48.0H191.0V-348.0H317.0V58.0ZM-129.0 -80.0V-176.0H295.0V-80.0ZM-127.0 -212.0V-313.0H297.0V-212.0ZM8.0 594.0V432.0H136.0V594.0ZM-226.0 463.0V270.0H-112.0V358.0H247.0V270.0H366.0V463.0ZM-181.0 557.0C-160.0 520.0 -138.0 470.0 -130.0 437.0L-23.0 481.0C-33.0 512.0 -57.0 559.0 -78.0 594.0ZM219.0 594.0C209.0 558.0 189.0 509.0 172.0 474.0L266.0 441.0C288.0 470.0 316.0 513.0 347.0 558.0Z"/></g>
<g fill="black" opacity=".8" transform="translate(1200 200) scale(0.1 -0.1)"><path d="M0.0 0.0V-251.0H120.0V0.0ZM-26.0 223.0H156.0V192.0H-26.0ZM-144.0 322.0V93.0H279.0V322.0ZM-196.0 57.0V-347.0H-75.0V-48.0H196.0V-347.0H323.0V57.0ZM-137.0 -81.0V-175.0H297.0V-81.0ZM-135.0 -212.0V-313.0H299.0V-212.0ZM3.0 593.0V431.0H133.0V593.0ZM-236.0 462.0V269.0H-120.0V358.0H248.0V269.0H368.0V462.0ZM-188.0 556.0C-167.0 519.0 -143.0 470.0 -135.0 437.0L-28.0 481.0C-38.0 512.0 -61.0 558.0 -85.0 593.0ZM217.0 593.0C208.0 557.0 187.0 509.0 170.0 473.0L264.0 441.0C287.0 470.0 315.0 512.0 346.0 556.0Z"/></g>
<g fill="red" transform="translate(1300 200) scale(0.1 -0.1)"><path d="M0.0 0.0V-287.0H29.0V0.0ZM-102.0 252.0H137.0V119.0H-102.0ZM-132.0 282.0V90.0H166.0V282.0ZM-187.0 18.0V-342.0H-157.0V-11.0H180.0V-342.0H209.0V18.0ZM-166.0 -127.0V-156.0H193.0V-127.0ZM-165.0 -273.0V-302.0H191.0V-273.0ZM1.0 552.0V389.0H30.0V552.0ZM-211.0 402.0V251.0H-182.0V373.0H214.0V251.0H244.0V402.0ZM-176.0 524.0C-148.0 487.0 -120.0 436.0 -108.0 402.0L-83.0 417.0C-94.0 448.0 -122.0 498.0 -150.0 535.0ZM191.0 541.0C174.0 505.0 143.0 450.0 119.0 418.0L143.0 404.0C166.0 437.0 196.0 484.0 220.0 525.0Z"/></g>
<g fill="black" opacity=".8" transform="translate(1300 200) scale(0.1 -0.1)"><path d="M0.0 0.0V-289.0H29.0V0.0ZM-98.0 252.0H133.0V118.0H-98.0ZM-128.0 282.0V90.0H164.0V282.0ZM-189.0 17.0V-342.0H-158.0V-12.0H186.0V-342.0H215.0V17.0ZM-169.0 -126.0V-155.0H199.0V-126.0ZM-168.0 -274.0V-302.0H197.0V-274.0ZM0.0 554.0V387.0H29.0V554.0ZM-207.0 402.0V250.0H-178.0V374.0H212.0V250.0H241.0V402.0ZM-178.0 527.0C-149.0 490.0 -120.0 440.0 -109.0 404.0L-83.0 418.0C-95.0 451.0 -123.0 499.0 -152.0 537.0ZM190.0 543.0C173.0 507.0 142.0 452.0 117.0 419.0L141.0 406.0C164.0 438.0 196.0 486.0 219.0 527.0Z"/></g>
<g fill="red" transform="translate(1400 200) scale(0.1 -0.1)"><path d="M0.0 0.0V-261.0H107.0V0.0ZM-11.0 221.0H125.0V184.0H-11.0ZM-112.0 319.0V86.0H233.0V319.0ZM-151.0 54.0V-348.0H-44.0V-54.0H156.0V-348.0H269.0V54.0ZM-99.0 -87.0V-178.0H203.0V-87.0ZM-104.0 -214.0V-322.0H198.0V-214.0ZM1.0 598.0V395.0H116.0V598.0ZM-179.0 471.0V273.0H-73.0V359.0H186.0V273.0H297.0V471.0ZM-161.0 553.0C-143.0 520.0 -125.0 475.0 -120.0 446.0L-22.0 494.0C-29.0 523.0 -49.0 565.0 -69.0 596.0ZM176.0 592.0C169.0 562.0 154.0 519.0 141.0 489.0L233.0 454.0C247.0 479.0 264.0 514.0 285.0 554.0Z"/></g>
<g fill="black" opacity=".8" transform="translate(1400 200) scale(0.1 -0.1)"><path d="M0.0 0.0V-259.0H106.0V0.0ZM-12.0 221.0H123.0V185.0H-12.0ZM-113.0 319.0V87.0H231.0V319.0ZM-154.0 54.0V-347.0H-47.0V-53.0H160.0V-347.0H272.0V54.0ZM-102.0 -87.0V-177.0H202.0V-87.0ZM-107.0 -214.0V-320.0H199.0V-214.0ZM-2.0 597.0V399.0H111.0V597.0ZM-183.0 469.0V271.0H-77.0V359.0H184.0V271.0H294.0V469.0ZM-165.0 554.0C-146.0 520.0 -129.0 473.0 -123.0 444.0L-26.0 491.0C-32.0 521.0 -52.0 564.0 -73.0 596.0ZM173.0 592.0C166.0 561.0 150.0 516.0 136.0 485.0L227.0 451.0C242.0 477.0 261.0 513.0 282.0 554.0Z"/></g>
</svg>
