<?xml version="1.0" encoding="UTF-8"?>
<svg width="1700" height="400" xmlns="http://www.w3.org/2000/svg">
<rect width="100%" height="100%" fill="white"/>
<g fill="green" transform="translate(100 100) scale(0.1 -0.1)"><path d="M-0.0 -0.0C-39.0 -106.0 -96.0 -213.0 -163.0 -287.0C-152.0 -293.0 -136.0 -303.0 -129.0 -309.0C-67.0 -232.0 -5.0 -120.0 37.0 -10.0ZM320.0 -12.0C376.0 -108.0 432.0 -236.0 452.0 -313.0L485.0 -296.0C465.0 -222.0 408.0 -95.0 352.0 2.0ZM-115.0 488.0V450.0H479.0V488.0ZM-152.0 214.0V177.0H523.0V214.0ZM156.0 179.0V-414.0H192.0V179.0Z"/></g>
<g fill="green" transform="translate(200 100) scale(0.1 -0.1)"><path d="M0.0 0.0C-27.0 -105.0 -73.0 -224.0 -122.0 -299.0C-78.0 -320.0 -3.0 -363.0 33.0 -389.0C80.0 -305.0 138.0 -166.0 173.0 -46.0ZM368.0 -43.0C398.0 -154.0 435.0 -298.0 448.0 -387.0L615.0 -311.0C600.0 -227.0 556.0 -87.0 523.0 20.0ZM-25.0 517.0V350.0H561.0V517.0ZM-72.0 256.0V83.0H614.0V256.0ZM159.0 153.0V-491.0H346.0V153.0Z"/></g>
<g fill="green" transform="translate(300 100) scale(0.1 -0.1)"><path d="M0.0 0.0C-28.0 -84.0 -67.0 -169.0 -116.0 -228.0C-107.0 -232.0 -95.0 -240.0 -89.0 -244.0C-44.0 -183.0 -1.0 -95.0 29.0 -8.0ZM232.0 -9.0C270.0 -86.0 307.0 -187.0 318.0 -248.0L344.0 -235.0C333.0 -177.0 296.0 -76.0 257.0 1.0ZM-103.0 401.0V371.0H367.0V401.0ZM-112.0 178.0V149.0H383.0V178.0ZM111.0 147.0V-331.0H139.0V147.0Z"/></g>
<g fill="green" transform="translate(400 100) scale(0.1 -0.1)"><path d="M0.0 0.0C-19.0 -85.0 -50.0 -182.0 -84.0 -243.0C-49.0 -259.0 10.0 -291.0 38.0 -311.0C70.0 -243.0 111.0 -131.0 135.0 -35.0ZM270.0 -29.0C287.0 -120.0 308.0 -237.0 315.0 -309.0L446.0 -252.0C438.0 -184.0 411.0 -70.0 391.0 18.0ZM-34.0 418.0V286.0H433.0V418.0ZM-49.0 209.0V72.0H453.0V209.0ZM112.0 127.0V-400.0H257.0V127.0Z"/></g>
<g fill="green" transform="translate(500 100) scale(0.1 -0.1)"><path d="M0.0 0.0C-52.0 -63.0 -130.0 -128.0 -203.0 -173.0C-194.0 -179.0 -180.0 -189.0 -174.0 -196.0C-103.0 -148.0 -20.0 -78.0 35.0 -11.0ZM382.0 -15.0C457.0 -67.0 548.0 -143.0 593.0 -192.0L622.0 -168.0C576.0 -121.0 484.0 -47.0 409.0 6.0ZM-82.0 354.0V320.0H494.0V354.0ZM-211.0 175.0V141.0H639.0V175.0ZM190.0 150.0V-229.0H225.0V150.0Z"/></g>
<g fill="green" transform="translate(600 100) scale(0.1 -0.1)"><path d="M0.0 0.0C-41.0 -52.0 -111.0 -110.0 -178.0 -146.0C-137.0 -171.0 -71.0 -220.0 -37.0 -249.0C27.0 -203.0 111.0 -125.0 164.0 -56.0ZM443.0 -67.0C499.0 -120.0 575.0 -196.0 609.0 -246.0L756.0 -148.0C718.0 -100.0 637.0 -28.0 581.0 20.0ZM50.0 400.0V251.0H537.0V400.0ZM-120.0 202.0V44.0H722.0V202.0ZM200.0 67.0V-277.0H379.0V67.0Z"/></g>
<g fill="green" transform="translate(700 100) scale(0.1 -0.1)"><path d="M-0.0 -0.0C-30.0 -123.0 -84.0 -239.0 -154.0 -318.0C-144.0 -323.0 -128.0 -334.0 -123.0 -340.0C-55.0 -257.0 2.0 -136.0 36.0 -6.0ZM343.0 -14.0C402.0 -118.0 459.0 -256.0 477.0 -341.0L508.0 -325.0C490.0 -244.0 434.0 -106.0 374.0 -2.0ZM-16.0 448.0V411.0H431.0V448.0ZM-87.0 172.0V135.0H501.0V172.0ZM175.0 149.0V-433.0H210.0V149.0Z"/></g>
<g fill="green" transform="translate(800 100) scale(0.1 -0.1)"><path d="M0.0 0.0C-16.0 -121.0 -50.0 -250.0 -98.0 -330.0C-57.0 -348.0 16.0 -385.0 50.0 -408.0C98.0 -317.0 141.0 -170.0 164.0 -31.0ZM390.0 -39.0C424.0 -155.0 456.0 -305.0 464.0 -399.0L625.0 -342.0C614.0 -250.0 576.0 -104.0 539.0 9.0ZM51.0 490.0V330.0H520.0V490.0ZM1.0 232.0V69.0H583.0V232.0ZM186.0 134.0V-487.0H361.0V134.0Z"/></g>
<g fill="green" transform="translate(900 100) scale(0.1 -0.1)"><path d="M0.0 -0.0C-39.0 -113.0 -101.0 -223.0 -176.0 -295.0C-167.0 -299.0 -155.0 -308.0 -149.0 -312.0C-78.0 -237.0 -13.0 -126.0 29.0 -7.0ZM331.0 -8.0C396.0 -107.0 462.0 -243.0 487.0 -325.0L511.0 -311.0C486.0 -231.0 420.0 -99.0 355.0 3.0ZM-111.0 477.0V446.0H487.0V477.0ZM-153.0 185.0V157.0H524.0V185.0ZM167.0 156.0V-449.0H195.0V156.0Z"/></g>
<g fill="green" transform="translate(1000 100) scale(0.1 -0.1)"><path d="M0.0 0.0C-29.0 -109.0 -81.0 -227.0 -138.0 -298.0C-102.0 -318.0 -41.0 -359.0 -13.0 -382.0C43.0 -299.0 105.0 -163.0 143.0 -38.0ZM357.0 -39.0C397.0 -153.0 445.0 -301.0 463.0 -393.0L598.0 -329.0C577.0 -240.0 523.0 -96.0 481.0 13.0ZM-53.0 486.0V349.0H545.0V486.0ZM-115.0 242.0V101.0H605.0V242.0ZM154.0 207.0V-501.0H308.0V207.0Z"/></g>
<g fill="green" transform="translate(1100 100) scale(0.1 -0.1)"><path d="M0.0 0.0C-49.0 -98.0 -109.0 -209.0 -168.0 -290.0C-156.0 -297.0 -137.0 -308.0 -129.0 -315.0C-75.0 -233.0 -11.0 -114.0 41.0 -14.0ZM327.0 -12.0C378.0 -113.0 429.0 -245.0 448.0 -323.0L488.0 -306.0C468.0 -231.0 415.0 -99.0 364.0 1.0ZM-137.0 456.0V413.0H504.0V456.0ZM-155.0 208.0V168.0H530.0V208.0ZM159.0 177.0V-421.0H198.0V177.0Z"/></g>
<g fill="green" transform="translate(1200 100) scale(0.1 -0.1)"><path d="M0.0 0.0C-32.0 -104.0 -83.0 -227.0 -128.0 -308.0C-80.0 -330.0 1.0 -376.0 41.0 -405.0C84.0 -318.0 147.0 -172.0 188.0 -55.0ZM347.0 -48.0C374.0 -160.0 413.0 -307.0 429.0 -396.0L616.0 -315.0C598.0 -233.0 552.0 -90.0 522.0 19.0ZM-45.0 504.0V324.0H578.0V504.0ZM-79.0 240.0V57.0H611.0V240.0ZM155.0 125.0V-504.0H360.0V125.0Z"/></g>
<g fill="green" transform="translate(1300 100) scale(0.1 -0.1)"><path d="M0.0 0.0C-41.0 -108.0 -101.0 -218.0 -171.0 -294.0C-160.0 -300.0 -143.0 -310.0 -137.0 -317.0C-72.0 -238.0 -7.0 -123.0 37.0 -11.0ZM293.0 -11.0C353.0 -109.0 415.0 -239.0 437.0 -318.0L471.0 -301.0C448.0 -225.0 385.0 -95.0 326.0 3.0ZM-104.0 477.0V439.0H446.0V477.0ZM-176.0 209.0V171.0H515.0V209.0ZM140.0 176.0V-427.0H177.0V176.0Z"/></g>
<g fill="green" transform="translate(1400 100) scale(0.1 -0.1)"><path d="M0.0 0.0C-30.0 -105.0 -80.0 -224.0 -133.0 -298.0C-88.0 -320.0 -12.0 -365.0 24.0 -392.0C75.0 -307.0 138.0 -168.0 176.0 -48.0ZM369.0 -46.0C405.0 -157.0 446.0 -302.0 461.0 -391.0L630.0 -316.0C613.0 -230.0 564.0 -90.0 526.0 17.0ZM-18.0 515.0V343.0H570.0V515.0ZM-90.0 253.0V76.0H640.0V253.0ZM167.0 160.0V-493.0H361.0V160.0Z"/></g>
<g fill="red" transform="translate(100 200) scale(0.1 -0.1)"><path d="M0.0 0.0C-51.0 -80.0 -130.0 -162.0 -205.0 -218.0C-198.0 -223.0 -185.0 -234.0 -180.0 -239.0C-107.0 -181.0 -26.0 -94.0 29.0 -9.0ZM382.0 -9.0C462.0 -80.0 556.0 -180.0 601.0 -243.0L626.0 -225.0C580.0 -162.0 485.0 -64.0 405.0 5.0ZM-13.0 270.0V240.0H446.0V270.0ZM-171.0 104.0V75.0H597.0V104.0ZM198.0 98.0V-307.0H228.0V98.0Z"/></g>
<g fill="black" opacity=".8" transform="translate(100 200) scale(0.1 -0.1)"><path d="M0.0 0.0C-53.0 -79.0 -134.0 -162.0 -209.0 -218.0C-202.0 -222.0 -188.0 -233.0 -185.0 -239.0C-109.0 -181.0 -28.0 -94.0 29.0 -9.0ZM380.0 -11.0C460.0 -81.0 555.0 -181.0 600.0 -244.0L626.0 -225.0C578.0 -164.0 484.0 -66.0 404.0 3.0ZM-13.0 273.0V242.0H447.0V273.0ZM-168.0 101.0V73.0H592.0V101.0ZM198.0 97.0V-304.0H227.0V97.0Z"/></g>
<g fill="red" transform="translate(200 200) scale(0.1 -0.1)"><path d="M0.0 0.0C-38.0 -70.0 -106.0 -143.0 -175.0 -188.0C-142.0 -208.0 -85.0 -252.0 -58.0 -278.0C11.0 -222.0 90.0 -131.0 139.0 -43.0ZM407.0 -60.0C472.0 -126.0 553.0 -220.0 588.0 -278.0L718.0 -209.0C677.0 -148.0 592.0 -60.0 528.0 1.0ZM63.0 329.0V203.0H496.0V329.0ZM-117.0 149.0V22.0H676.0V149.0ZM207.0 92.0V-309.0H361.0V92.0Z"/></g>
<g fill="black" opacity=".8" transform="translate(200 200) scale(0.1 -0.1)"><path d="M0.0 0.0C-39.0 -71.0 -108.0 -143.0 -177.0 -187.0C-143.0 -209.0 -87.0 -254.0 -60.0 -280.0C9.0 -223.0 89.0 -132.0 140.0 -44.0ZM408.0 -63.0C474.0 -127.0 556.0 -219.0 592.0 -278.0L721.0 -208.0C679.0 -147.0 594.0 -60.0 529.0 1.0ZM60.0 331.0V204.0H496.0V331.0ZM-116.0 150.0V22.0H670.0V150.0ZM208.0 88.0V-308.0H362.0V88.0Z"/></g>
<g fill="red" transform="translate(300 200) scale(0.1 -0.1)"><path d="M0.0 0.0C-42.0 -67.0 -99.0 -141.0 -153.0 -194.0C-145.0 -199.0 -132.0 -208.0 -126.0 -213.0C-76.0 -159.0 -16.0 -79.0 29.0 -10.0ZM302.0 -10.0C354.0 -75.0 412.0 -163.0 439.0 -216.0L466.0 -201.0C439.0 -149.0 379.0 -62.0 327.0 2.0ZM-81.0 301.0V271.0H409.0V301.0ZM-144.0 136.0V107.0H478.0V136.0ZM153.0 118.0V-275.0H182.0V118.0Z"/></g>
<g fill="black" opacity=".8" transform="translate(300 200) scale(0.1 -0.1)"><path d="M0.0 0.0C-44.0 -66.0 -101.0 -140.0 -154.0 -193.0C-146.0 -197.0 -133.0 -206.0 -128.0 -212.0C-76.0 -158.0 -16.0 -79.0 30.0 -10.0ZM301.0 -10.0C353.0 -75.0 412.0 -163.0 439.0 -217.0L467.0 -201.0C438.0 -149.0 378.0 -62.0 325.0 2.0ZM-78.0 303.0V272.0H410.0V303.0ZM-137.0 136.0V108.0H475.0V136.0ZM151.0 119.0V-273.0H179.0V119.0Z"/></g>
<g fill="red" transform="translate(400 200) scale(0.1 -0.1)"><path d="M0.0 0.0C-30.0 -65.0 -80.0 -140.0 -126.0 -188.0C-92.0 -206.0 -35.0 -244.0 -7.0 -267.0C38.0 -212.0 98.0 -120.0 136.0 -43.0ZM313.0 -46.0C349.0 -114.0 398.0 -206.0 419.0 -262.0L551.0 -195.0C527.0 -141.0 473.0 -53.0 436.0 11.0ZM6.0 344.0V218.0H443.0V344.0ZM-81.0 162.0V33.0H532.0V162.0ZM145.0 80.0V-316.0H295.0V80.0Z"/></g>
<g fill="black" opacity=".8" transform="translate(400 200) scale(0.1 -0.1)"><path d="M0.0 0.0C-30.0 -66.0 -81.0 -140.0 -127.0 -188.0C-92.0 -207.0 -36.0 -245.0 -7.0 -268.0C37.0 -213.0 98.0 -121.0 137.0 -43.0ZM314.0 -47.0C350.0 -114.0 400.0 -206.0 423.0 -263.0L554.0 -195.0C528.0 -141.0 474.0 -53.0 437.0 12.0ZM1.0 344.0V217.0H444.0V344.0ZM-82.0 163.0V33.0H530.0V163.0ZM146.0 77.0V-317.0H295.0V77.0Z"/></g>
<g fill="red" transform="translate(500 200) scale(0.1 -0.1)"><path d="M0.0 0.0C-32.0 -71.0 -86.0 -140.0 -144.0 -187.0C-136.0 -192.0 -124.0 -202.0 -120.0 -207.0C-64.0 -157.0 -6.0 -83.0 29.0 -8.0ZM291.0 -13.0C347.0 -72.0 411.0 -153.0 440.0 -204.0L465.0 -189.0C436.0 -139.0 371.0 -58.0 315.0 0.0ZM-11.0 272.0V243.0H343.0V272.0ZM-129.0 121.0V92.0H480.0V121.0ZM153.0 103.0V-249.0H182.0V103.0Z"/></g>
<g fill="black" opacity=".8" transform="translate(500 200) scale(0.1 -0.1)"><path d="M0.0 0.0C-37.0 -69.0 -93.0 -140.0 -150.0 -190.0C-142.0 -194.0 -129.0 -203.0 -125.0 -209.0C-69.0 -157.0 -10.0 -82.0 30.0 -8.0ZM291.0 -12.0C348.0 -72.0 413.0 -153.0 442.0 -205.0L468.0 -188.0C438.0 -138.0 373.0 -57.0 316.0 1.0ZM-8.0 272.0V242.0H347.0V272.0ZM-123.0 119.0V89.0H463.0V119.0ZM147.0 106.0V-244.0H177.0V106.0Z"/></g>
<g fill="red" transform="translate(600 200) scale(0.1 -0.1)"><path d="M0.0 0.0C-23.0 -64.0 -66.0 -133.0 -113.0 -176.0C-81.0 -193.0 -24.0 -228.0 3.0 -250.0C51.0 -198.0 103.0 -114.0 133.0 -35.0ZM343.0 -47.0C385.0 -108.0 434.0 -191.0 453.0 -243.0L578.0 -183.0C555.0 -130.0 502.0 -51.0 460.0 6.0ZM77.0 320.0V195.0H411.0V320.0ZM-41.0 147.0V20.0H549.0V147.0ZM174.0 53.0V-276.0H320.0V53.0Z"/></g>
<g fill="black" opacity=".8" transform="translate(600 200) scale(0.1 -0.1)"><path d="M0.0 0.0C-25.0 -64.0 -70.0 -133.0 -118.0 -176.0C-84.0 -194.0 -27.0 -229.0 1.0 -252.0C48.0 -200.0 103.0 -115.0 136.0 -37.0ZM344.0 -48.0C386.0 -107.0 435.0 -189.0 456.0 -241.0L584.0 -180.0C560.0 -127.0 506.0 -49.0 464.0 7.0ZM73.0 326.0V198.0H417.0V326.0ZM-42.0 152.0V21.0H540.0V152.0ZM171.0 50.0V-273.0H319.0V50.0Z"/></g>
<g fill="red" transform="translate(700 200) scale(0.1 -0.1)"><path d="M0.0 0.0C-49.0 -75.0 -128.0 -148.0 -203.0 -198.0C-196.0 -202.0 -184.0 -214.0 -179.0 -219.0C-105.0 -166.0 -24.0 -88.0 29.0 -8.0ZM381.0 -18.0C457.0 -79.0 547.0 -166.0 591.0 -221.0L615.0 -202.0C571.0 -148.0 480.0 -63.0 403.0 -2.0ZM-1.0 284.0V254.0H436.0V284.0ZM-147.0 104.0V75.0H573.0V104.0ZM198.0 98.0V-254.0H228.0V98.0Z"/></g>
<g fill="black" opacity=".8" transform="translate(700 200) scale(0.1 -0.1)"><path d="M0.0 0.0C-46.0 -75.0 -122.0 -149.0 -195.0 -199.0C-188.0 -203.0 -175.0 -214.0 -171.0 -220.0C-97.0 -167.0 -20.0 -89.0 30.0 -8.0ZM382.0 -13.0C459.0 -75.0 550.0 -162.0 593.0 -220.0L617.0 -199.0C572.0 -144.0 483.0 -59.0 405.0 2.0ZM2.0 278.0V249.0H433.0V278.0ZM-150.0 110.0V81.0H585.0V110.0ZM199.0 102.0V-261.0H228.0V102.0Z"/></g>
<g fill="red" transform="translate(800 200) scale(0.1 -0.1)"><path d="M0.0 0.0C-35.0 -65.0 -99.0 -131.0 -165.0 -171.0C-132.0 -192.0 -76.0 -236.0 -49.0 -261.0C18.0 -210.0 93.0 -125.0 139.0 -42.0ZM424.0 -64.0C485.0 -120.0 562.0 -201.0 595.0 -252.0L722.0 -178.0C683.0 -125.0 602.0 -50.0 542.0 2.0ZM82.0 335.0V212.0H474.0V335.0ZM-77.0 151.0V26.0H644.0V151.0ZM210.0 58.0V-271.0H361.0V58.0Z"/></g>
<g fill="black" opacity=".8" transform="translate(800 200) scale(0.1 -0.1)"><path d="M0.0 0.0C-33.0 -65.0 -95.0 -131.0 -161.0 -170.0C-127.0 -191.0 -70.0 -233.0 -43.0 -258.0C22.0 -207.0 94.0 -124.0 139.0 -40.0ZM421.0 -60.0C482.0 -118.0 557.0 -199.0 589.0 -253.0L715.0 -182.0C678.0 -127.0 600.0 -49.0 539.0 4.0ZM89.0 333.0V207.0H474.0V333.0ZM-81.0 155.0V26.0H653.0V155.0ZM209.0 66.0V-273.0H360.0V66.0Z"/></g>
<g fill="red" transform="translate(900 200) scale(0.1 -0.1)"><path d="M0.0 0.0C-51.0 -70.0 -134.0 -137.0 -214.0 -181.0C-207.0 -186.0 -195.0 -196.0 -190.0 -201.0C-112.0 -154.0 -26.0 -83.0 29.0 -9.0ZM379.0 -10.0C463.0 -66.0 564.0 -149.0 614.0 -202.0L636.0 -181.0C586.0 -128.0 484.0 -48.0 400.0 8.0ZM-74.0 341.0V312.0H486.0V341.0ZM-225.0 154.0V125.0H640.0V154.0ZM192.0 133.0V-260.0H222.0V133.0Z"/></g>
<g fill="black" opacity=".8" transform="translate(900 200) scale(0.1 -0.1)"><path d="M0.0 0.0C-53.0 -69.0 -136.0 -137.0 -216.0 -182.0C-208.0 -186.0 -197.0 -195.0 -192.0 -201.0C-113.0 -154.0 -27.0 -84.0 29.0 -9.0ZM379.0 -12.0C462.0 -67.0 563.0 -149.0 612.0 -203.0L635.0 -181.0C584.0 -129.0 483.0 -50.0 401.0 7.0ZM-75.0 342.0V313.0H486.0V342.0ZM-221.0 152.0V124.0H636.0V152.0ZM191.0 132.0V-259.0H221.0V132.0Z"/></g>
<g fill="red" transform="translate(1000 200) scale(0.1 -0.1)"><path d="M0.0 0.0C-43.0 -55.0 -119.0 -112.0 -193.0 -146.0C-159.0 -169.0 -101.0 -217.0 -73.0 -245.0C0.0 -199.0 89.0 -123.0 144.0 -51.0ZM433.0 -64.0C499.0 -120.0 585.0 -201.0 623.0 -253.0L749.0 -164.0C705.0 -111.0 614.0 -36.0 550.0 14.0ZM36.0 375.0V246.0H527.0V375.0ZM-159.0 191.0V54.0H728.0V191.0ZM200.0 110.0V-286.0H357.0V110.0Z"/></g>
<g fill="black" opacity=".8" transform="translate(1000 200) scale(0.1 -0.1)"><path d="M0.0 0.0C-44.0 -55.0 -120.0 -112.0 -194.0 -145.0C-158.0 -170.0 -102.0 -218.0 -74.0 -245.0C-2.0 -199.0 87.0 -124.0 144.0 -51.0ZM435.0 -65.0C501.0 -120.0 587.0 -200.0 625.0 -252.0L750.0 -163.0C707.0 -111.0 617.0 -36.0 552.0 14.0ZM33.0 377.0V247.0H529.0V377.0ZM-158.0 191.0V54.0H726.0V191.0ZM200.0 109.0V-285.0H358.0V109.0Z"/></g>
<g fill="red" transform="translate(1100 200) scale(0.1 -0.1)"><path d="M0.0 0.0C-42.0 -67.0 -99.0 -141.0 -152.0 -194.0C-145.0 -199.0 -131.0 -208.0 -125.0 -213.0C-75.0 -159.0 -15.0 -79.0 30.0 -10.0ZM280.0 -10.0C332.0 -75.0 390.0 -163.0 417.0 -216.0L444.0 -201.0C417.0 -149.0 357.0 -62.0 305.0 2.0ZM-68.0 301.0V271.0H387.0V301.0ZM-132.0 136.0V107.0H455.0V136.0ZM138.0 118.0V-275.0H167.0V118.0Z"/></g>
<g fill="black" opacity=".8" transform="translate(1100 200) scale(0.1 -0.1)"><path d="M0.0 0.0C-42.0 -67.0 -98.0 -142.0 -152.0 -195.0C-144.0 -199.0 -131.0 -208.0 -126.0 -214.0C-74.0 -159.0 -15.0 -81.0 29.0 -10.0ZM281.0 -10.0C333.0 -75.0 393.0 -163.0 419.0 -217.0L446.0 -201.0C418.0 -149.0 358.0 -62.0 306.0 2.0ZM-69.0 302.0V271.0H384.0V302.0ZM-142.0 136.0V107.0H459.0V136.0ZM140.0 119.0V-275.0H168.0V119.0Z"/></g>
<g fill="red" transform="translate(1200 200) scale(0.1 -0.1)"><path d="M0.0 0.0C-30.0 -65.0 -80.0 -140.0 -126.0 -188.0C-92.0 -206.0 -35.0 -244.0 -7.0 -267.0C38.0 -212.0 98.0 -120.0 136.0 -43.0ZM313.0 -46.0C349.0 -114.0 398.0 -206.0 419.0 -262.0L551.0 -195.0C527.0 -141.0 473.0 -53.0 436.0 11.0ZM6.0 344.0V218.0H443.0V344.0ZM-81.0 162.0V33.0H532.0V162.0ZM145.0 80.0V-316.0H295.0V80.0Z"/></g>
<g fill="black" opacity=".8" transform="translate(1200 200) scale(0.1 -0.1)"><path d="M0.0 0.0C-30.0 -66.0 -79.0 -141.0 -125.0 -188.0C-90.0 -207.0 -33.0 -244.0 -5.0 -268.0C40.0 -212.0 99.0 -121.0 137.0 -42.0ZM311.0 -46.0C348.0 -113.0 396.0 -205.0 418.0 -262.0L549.0 -197.0C524.0 -142.0 471.0 -53.0 433.0 11.0ZM8.0 345.0V216.0H439.0V345.0ZM-81.0 164.0V33.0H529.0V164.0ZM147.0 79.0V-316.0H297.0V79.0Z"/></g>
<g fill="red" transform="translate(1300 200) scale(0.1 -0.1)"><path d="M0.0 0.0C-42.0 -67.0 -99.0 -141.0 -153.0 -194.0C-145.0 -199.0 -132.0 -208.0 -126.0 -213.0C-76.0 -159.0 -16.0 -79.0 29.0 -10.0ZM243.0 -10.0C295.0 -75.0 354.0 -163.0 380.0 -216.0L407.0 -201.0C380.0 -149.0 320.0 -62.0 268.0 2.0ZM-67.0 300.0V270.0H349.0V300.0ZM-155.0 132.0V103.0H419.0V132.0ZM119.0 118.0V-275.0H149.0V118.0Z"/></g>
<g fill="black" opacity=".8" transform="translate(1300 200) scale(0.1 -0.1)"><path d="M0.0 0.0C-40.0 -67.0 -94.0 -142.0 -146.0 -195.0C-138.0 -199.0 -125.0 -208.0 -120.0 -214.0C-70.0 -159.0 -14.0 -81.0 29.0 -10.0ZM246.0 -9.0C296.0 -74.0 354.0 -161.0 378.0 -215.0L405.0 -200.0C379.0 -148.0 321.0 -61.0 271.0 2.0ZM-67.0 297.0V267.0H348.0V297.0ZM-149.0 134.0V106.0H426.0V134.0ZM119.0 117.0V-279.0H148.0V117.0Z"/></g>
<g fill="red" transform="translate(1400 200) scale(0.1 -0.1)"><path d="M0.0 0.0C-30.0 -65.0 -80.0 -140.0 -126.0 -188.0C-92.0 -206.0 -35.0 -244.0 -7.0 -267.0C38.0 -212.0 98.0 -120.0 136.0 -43.0ZM291.0 -46.0C327.0 -114.0 376.0 -206.0 397.0 -262.0L527.0 -197.0C502.0 -143.0 449.0 -55.0 412.0 9.0ZM7.0 342.0V214.0H426.0V342.0ZM-84.0 164.0V32.0H506.0V164.0ZM141.0 80.0V-316.0H291.0V80.0Z"/></g>
<g fill="black" opacity=".8" transform="translate(1400 200) scale(0.1 -0.1)"><path d="M0.0 0.0C-29.0 -65.0 -77.0 -140.0 -122.0 -187.0C-87.0 -205.0 -31.0 -242.0 -4.0 -265.0C39.0 -210.0 98.0 -119.0 135.0 -42.0ZM293.0 -44.0C329.0 -112.0 374.0 -204.0 395.0 -260.0L523.0 -199.0C500.0 -143.0 449.0 -55.0 413.0 10.0ZM5.0 341.0V212.0H429.0V341.0ZM-86.0 162.0V31.0H516.0V162.0ZM141.0 85.0V-316.0H291.0V85.0Z"/></g>
<g fill="red" transform="translate(1500 200) scale(0.1 -0.1)"><path d="M0.0 0.0C-34.0 -74.0 -88.0 -147.0 -145.0 -197.0C-138.0 -202.0 -125.0 -211.0 -120.0 -216.0C-65.0 -163.0 -8.0 -85.0 28.0 -6.0ZM303.0 -9.0C361.0 -71.0 425.0 -156.0 453.0 -210.0L478.0 -193.0C449.0 -140.0 385.0 -56.0 327.0 4.0ZM15.0 263.0V234.0H343.0V263.0ZM-100.0 108.0V79.0H447.0V108.0ZM150.0 102.0V-250.0H179.0V102.0Z"/></g>
<g fill="black" opacity=".8" transform="translate(1500 200) scale(0.1 -0.1)"><path d="M0.0 0.0C-33.0 -74.0 -88.0 -146.0 -145.0 -196.0C-138.0 -199.0 -126.0 -208.0 -122.0 -214.0C-64.0 -162.0 -8.0 -86.0 28.0 -6.0ZM302.0 -13.0C358.0 -74.0 422.0 -157.0 449.0 -211.0L473.0 -195.0C445.0 -144.0 382.0 -60.0 324.0 -0.0ZM12.0 267.0V238.0H342.0V267.0ZM-99.0 107.0V79.0H454.0V107.0ZM155.0 97.0V-250.0H183.0V97.0Z"/></g>
<g fill="red" transform="translate(1600 200) scale(0.1 -0.1)"><path d="M0.0 0.0C-21.0 -68.0 -62.0 -139.0 -110.0 -185.0C-78.0 -200.0 -23.0 -232.0 4.0 -253.0C51.0 -200.0 101.0 -114.0 129.0 -31.0ZM342.0 -42.0C383.0 -105.0 429.0 -190.0 446.0 -243.0L571.0 -187.0C550.0 -133.0 500.0 -52.0 458.0 7.0ZM85.0 318.0V197.0H401.0V318.0ZM-27.0 152.0V25.0H518.0V152.0ZM168.0 57.0V-272.0H308.0V57.0Z"/></g>
<g fill="black" opacity=".8" transform="translate(1600 200) scale(0.1 -0.1)"><path d="M0.0 0.0C-21.0 -69.0 -62.0 -140.0 -109.0 -183.0C-77.0 -200.0 -23.0 -233.0 3.0 -254.0C50.0 -200.0 99.0 -115.0 127.0 -31.0ZM344.0 -45.0C385.0 -106.0 432.0 -189.0 451.0 -243.0L571.0 -189.0C549.0 -134.0 498.0 -54.0 456.0 5.0ZM83.0 317.0V197.0H399.0V317.0ZM-24.0 146.0V24.0H518.0V146.0ZM172.0 53.0V-273.0H309.0V53.0Z"/></g>
<g fill="red" transform="translate(100 300) scale(0.1 -0.1)"><path d="M0.0 0.0C-34.0 -113.0 -90.0 -223.0 -159.0 -296.0C-151.0 -300.0 -138.0 -310.0 -133.0 -314.0C-68.0 -238.0 -9.0 -125.0 28.0 -7.0ZM314.0 -9.0C373.0 -106.0 432.0 -236.0 454.0 -315.0L479.0 -303.0C458.0 -225.0 398.0 -97.0 339.0 0.0ZM-47.0 401.0V371.0H412.0V401.0ZM-112.0 146.0V117.0H471.0V146.0ZM154.0 127.0V-424.0H183.0V127.0Z"/></g>
<g fill="black" opacity=".8" transform="translate(100 300) scale(0.1 -0.1)"><path d="M0.0 0.0C-35.0 -111.0 -93.0 -220.0 -163.0 -292.0C-154.0 -296.0 -141.0 -305.0 -137.0 -310.0C-69.0 -235.0 -9.0 -124.0 29.0 -6.0ZM309.0 -9.0C370.0 -106.0 434.0 -237.0 457.0 -317.0L482.0 -304.0C459.0 -226.0 396.0 -97.0 334.0 1.0ZM-43.0 406.0V375.0H412.0V406.0ZM-121.0 149.0V120.0H477.0V149.0ZM157.0 130.0V-423.0H186.0V130.0Z"/></g>
<g fill="red" transform="translate(200 300) scale(0.1 -0.1)"><path d="M0.0 0.0C-23.0 -107.0 -66.0 -222.0 -117.0 -292.0C-83.0 -309.0 -23.0 -345.0 4.0 -366.0C55.0 -285.0 107.0 -154.0 137.0 -31.0ZM354.0 -38.0C393.0 -144.0 432.0 -281.0 443.0 -366.0L580.0 -315.0C566.0 -230.0 521.0 -98.0 479.0 5.0ZM-4.0 439.0V306.0H505.0V439.0ZM-67.0 203.0V70.0H573.0V203.0ZM162.0 169.0V-452.0H317.0V169.0Z"/></g>
<g fill="black" opacity=".8" transform="translate(200 300) scale(0.1 -0.1)"><path d="M0.0 0.0C-24.0 -108.0 -68.0 -223.0 -120.0 -292.0C-85.0 -310.0 -25.0 -347.0 3.0 -369.0C56.0 -288.0 109.0 -156.0 140.0 -32.0ZM348.0 -39.0C389.0 -145.0 432.0 -284.0 447.0 -371.0L582.0 -318.0C564.0 -232.0 515.0 -97.0 472.0 5.0ZM5.0 437.0V300.0H496.0V437.0ZM-67.0 208.0V70.0H567.0V208.0ZM166.0 163.0V-458.0H318.0V163.0Z"/></g>
<g fill="red" transform="translate(300 300) scale(0.1 -0.1)"><path d="M0.0 0.0C-42.0 -67.0 -99.0 -141.0 -153.0 -194.0C-145.0 -199.0 -132.0 -208.0 -126.0 -213.0C-76.0 -159.0 -16.0 -79.0 29.0 -10.0ZM289.0 -10.0C341.0 -75.0 400.0 -163.0 426.0 -216.0L453.0 -201.0C426.0 -149.0 366.0 -62.0 314.0 2.0ZM-77.0 301.0V271.0H396.0V301.0ZM-140.0 136.0V107.0H464.0V136.0ZM139.0 118.0V-275.0H168.0V118.0Z"/></g>
<g fill="black" opacity=".8" transform="translate(300 300) scale(0.1 -0.1)"><path d="M0.0 0.0C-44.0 -66.0 -101.0 -140.0 -154.0 -194.0C-146.0 -198.0 -133.0 -207.0 -128.0 -212.0C-76.0 -158.0 -16.0 -79.0 30.0 -11.0ZM287.0 -10.0C339.0 -75.0 399.0 -163.0 426.0 -217.0L454.0 -201.0C425.0 -149.0 365.0 -62.0 312.0 2.0ZM-78.0 302.0V272.0H397.0V302.0ZM-145.0 137.0V108.0H467.0V137.0ZM143.0 119.0V-276.0H171.0V119.0Z"/></g>
<g fill="red" transform="translate(400 300) scale(0.1 -0.1)"><path d="M0.0 0.0C-30.0 -65.0 -80.0 -140.0 -126.0 -188.0C-92.0 -206.0 -35.0 -244.0 -7.0 -267.0C38.0 -212.0 98.0 -120.0 136.0 -43.0ZM313.0 -46.0C349.0 -114.0 398.0 -206.0 419.0 -262.0L551.0 -195.0C527.0 -141.0 473.0 -53.0 436.0 11.0ZM-8.0 344.0V218.0H447.0V344.0ZM-91.0 162.0V33.0H535.0V162.0ZM145.0 80.0V-316.0H295.0V80.0Z"/></g>
<g fill="black" opacity=".8" transform="translate(400 300) scale(0.1 -0.1)"><path d="M0.0 0.0C-31.0 -65.0 -82.0 -140.0 -128.0 -187.0C-93.0 -206.0 -37.0 -244.0 -8.0 -268.0C37.0 -213.0 98.0 -121.0 137.0 -44.0ZM310.0 -47.0C347.0 -114.0 397.0 -206.0 420.0 -263.0L551.0 -196.0C525.0 -141.0 471.0 -53.0 433.0 11.0ZM-0.0 345.0V216.0H444.0V345.0ZM-88.0 164.0V33.0H532.0V164.0ZM145.0 80.0V-318.0H296.0V80.0Z"/></g>
<g fill="red" transform="translate(500 300) scale(0.1 -0.1)"><path d="M0.0 0.0C-33.0 -110.0 -88.0 -216.0 -154.0 -288.0C-146.0 -292.0 -133.0 -302.0 -128.0 -306.0C-64.0 -231.0 -7.0 -122.0 29.0 -6.0ZM298.0 -9.0C357.0 -108.0 415.0 -241.0 435.0 -321.0L461.0 -310.0C440.0 -231.0 382.0 -100.0 323.0 0.0ZM-44.0 401.0V371.0H407.0V401.0ZM-108.0 146.0V117.0H457.0V146.0ZM159.0 127.0V-424.0H188.0V127.0Z"/></g>
<g fill="black" opacity=".8" transform="translate(500 300) scale(0.1 -0.1)"><path d="M0.0 0.0C-33.0 -110.0 -86.0 -219.0 -151.0 -293.0C-142.0 -296.0 -130.0 -305.0 -125.0 -310.0C-62.0 -234.0 -8.0 -123.0 29.0 -6.0ZM303.0 -9.0C359.0 -107.0 414.0 -239.0 433.0 -320.0L458.0 -307.0C439.0 -230.0 385.0 -99.0 328.0 -1.0ZM-46.0 397.0V366.0H407.0V397.0ZM-98.0 143.0V115.0H450.0V143.0ZM156.0 125.0V-425.0H183.0V125.0Z"/></g>
<g fill="red" transform="translate(600 300) scale(0.1 -0.1)"><path d="M0.0 0.0C-21.0 -110.0 -61.0 -228.0 -109.0 -301.0C-76.0 -317.0 -15.0 -353.0 12.0 -374.0C62.0 -291.0 110.0 -156.0 138.0 -30.0ZM318.0 -35.0C353.0 -145.0 395.0 -289.0 411.0 -376.0L543.0 -326.0C523.0 -241.0 476.0 -101.0 439.0 5.0ZM3.0 422.0V289.0H467.0V422.0ZM-51.0 202.0V69.0H517.0V202.0ZM158.0 152.0V-469.0H301.0V152.0Z"/></g>
<g fill="black" opacity=".8" transform="translate(600 300) scale(0.1 -0.1)"><path d="M0.0 0.0C-21.0 -110.0 -60.0 -228.0 -107.0 -300.0C-73.0 -317.0 -13.0 -351.0 14.0 -372.0C61.0 -289.0 108.0 -155.0 136.0 -30.0ZM323.0 -34.0C358.0 -143.0 395.0 -284.0 408.0 -372.0L541.0 -324.0C525.0 -238.0 483.0 -101.0 446.0 5.0ZM-5.0 426.0V294.0H476.0V426.0ZM-52.0 200.0V68.0H522.0V200.0ZM154.0 158.0V-464.0H300.0V158.0Z"/></g>
</svg>
