<?xml version="1.0" encoding="UTF-8"?>
<svg width="1700" height="300" xmlns="http://www.w3.org/2000/svg">
<rect width="100%" height="100%" fill="white"/>
<g fill="green" transform="translate(100 100) scale(0.1 -0.1)"><path d="M0.0 0.0C-42.0 -166.0 -108.0 -330.0 -193.0 -438.0C-185.0 -443.0 -172.0 -452.0 -167.0 -456.0C-85.0 -344.0 -17.0 -180.0 29.0 -6.0ZM-54.0 -214.0 -69.0 -244.0H277.0V-214.0ZM380.0 0.0C342.0 -168.0 279.0 -331.0 196.0 -438.0C203.0 -443.0 216.0 -452.0 221.0 -456.0C303.0 -345.0 367.0 -181.0 409.0 -6.0ZM330.0 -214.0 315.0 -244.0H723.0V-214.0ZM36.0 -224.0V-903.0H65.0V-224.0ZM520.0 -226.0V-848.0C520.0 -864.0 516.0 -869.0 499.0 -870.0C481.0 -871.0 423.0 -871.0 351.0 -869.0C357.0 -880.0 362.0 -893.0 365.0 -902.0C442.0 -902.0 493.0 -902.0 516.0 -897.0C541.0 -891.0 549.0 -879.0 549.0 -848.0V-226.0Z"/></g>
<g fill="green" transform="translate(200 100) scale(0.1 -0.1)"><path d="M0.0 0.0C-31.0 -155.0 -90.0 -311.0 -167.0 -404.0C-131.0 -424.0 -63.0 -468.0 -34.0 -493.0C44.0 -384.0 114.0 -207.0 154.0 -31.0ZM3.0 -188.0 -69.0 -332.0H314.0V-188.0ZM393.0 0.0C363.0 -153.0 304.0 -308.0 227.0 -400.0C261.0 -420.0 325.0 -464.0 351.0 -488.0C431.0 -380.0 500.0 -204.0 540.0 -29.0ZM446.0 -188.0 374.0 -332.0H798.0V-188.0ZM42.0 -255.0V-948.0H189.0V-255.0ZM530.0 -244.0V-778.0C530.0 -792.0 524.0 -796.0 507.0 -797.0C490.0 -797.0 431.0 -797.0 384.0 -794.0C404.0 -837.0 425.0 -903.0 430.0 -946.0C511.0 -946.0 575.0 -943.0 621.0 -919.0C667.0 -896.0 680.0 -855.0 680.0 -780.0V-244.0Z"/></g>
<g fill="green" transform="translate(300 100) scale(0.1 -0.1)"><path d="M0.0 0.0C-42.0 -166.0 -108.0 -330.0 -193.0 -438.0C-185.0 -443.0 -172.0 -452.0 -167.0 -456.0C-85.0 -344.0 -17.0 -180.0 29.0 -6.0ZM-54.0 -214.0 -69.0 -244.0H277.0V-214.0ZM380.0 0.0C342.0 -168.0 279.0 -331.0 196.0 -438.0C203.0 -443.0 216.0 -452.0 221.0 -456.0C303.0 -345.0 367.0 -181.0 409.0 -6.0ZM330.0 -214.0 315.0 -244.0H723.0V-214.0ZM36.0 -224.0V-903.0H65.0V-224.0ZM520.0 -226.0V-848.0C520.0 -864.0 516.0 -869.0 499.0 -870.0C481.0 -871.0 423.0 -871.0 351.0 -869.0C357.0 -880.0 362.0 -893.0 365.0 -902.0C442.0 -902.0 493.0 -902.0 516.0 -897.0C541.0 -891.0 549.0 -879.0 549.0 -848.0V-226.0Z"/></g>
<g fill="green" transform="translate(400 100) scale(0.1 -0.1)"><path d="M0.0 0.0C-31.0 -155.0 -90.0 -311.0 -167.0 -404.0C-131.0 -424.0 -63.0 -468.0 -34.0 -493.0C44.0 -384.0 114.0 -207.0 154.0 -31.0ZM3.0 -188.0 -69.0 -332.0H314.0V-188.0ZM393.0 0.0C363.0 -153.0 304.0 -308.0 227.0 -400.0C261.0 -420.0 325.0 -464.0 351.0 -488.0C431.0 -380.0 500.0 -204.0 540.0 -29.0ZM446.0 -188.0 374.0 -332.0H798.0V-188.0ZM42.0 -255.0V-948.0H189.0V-255.0ZM530.0 -244.0V-778.0C530.0 -792.0 524.0 -796.0 507.0 -797.0C490.0 -797.0 431.0 -797.0 384.0 -794.0C404.0 -837.0 425.0 -903.0 430.0 -946.0C511.0 -946.0 575.0 -943.0 621.0 -919.0C667.0 -896.0 680.0 -855.0 680.0 -780.0V-244.0Z"/></g>
<g fill="red" transform="translate(100 200) scale(0.1 -0.1)"><path d="M0.0 0.0C-42.0 -166.0 -108.0 -330.0 -193.0 -438.0C-185.0 -443.0 -172.0 -452.0 -167.0 -456.0C-85.0 -344.0 -17.0 -180.0 29.0 -6.0ZM-54.0 -214.0 -69.0 -244.0H277.0V-214.0ZM380.0 0.0C342.0 -168.0 279.0 -331.0 196.0 -438.0C203.0 -443.0 216.0 -452.0 221.0 -456.0C303.0 -345.0 367.0 -181.0 409.0 -6.0ZM330.0 -214.0 315.0 -244.0H723.0V-214.0ZM36.0 -224.0V-903.0H65.0V-224.0ZM520.0 -226.0V-848.0C520.0 -864.0 516.0 -869.0 499.0 -870.0C481.0 -871.0 423.0 -871.0 351.0 -869.0C357.0 -880.0 362.0 -893.0 365.0 -902.0C442.0 -902.0 493.0 -902.0 516.0 -897.0C541.0 -891.0 549.0 -879.0 549.0 -848.0V-226.0Z"/></g>
<g fill="black" opacity=".8" transform="translate(100 200) scale(0.1 -0.1)"><path d="M0.0 0.0C-42.0 -166.0 -108.0 -330.0 -193.0 -438.0C-185.0 -443.0 -172.0 -452.0 -167.0 -456.0C-85.0 -344.0 -17.0 -180.0 29.0 -6.0ZM-54.0 -214.0 -69.0 -244.0H277.0V-214.0ZM380.0 0.0C342.0 -168.0 279.0 -331.0 196.0 -438.0C203.0 -443.0 216.0 -452.0 221.0 -456.0C303.0 -345.0 367.0 -181.0 409.0 -6.0ZM330.0 -214.0 315.0 -244.0H723.0V-214.0ZM36.0 -224.0V-903.0H65.0V-224.0ZM520.0 -226.0V-848.0C520.0 -864.0 516.0 -869.0 499.0 -870.0C481.0 -871.0 423.0 -871.0 351.0 -869.0C357.0 -880.0 362.0 -893.0 365.0 -902.0C442.0 -902.0 493.0 -902.0 516.0 -897.0C541.0 -891.0 549.0 -879.0 549.0 -848.0V-226.0Z"/></g>
<g fill="red" transform="translate(200 200) scale(0.1 -0.1)"><path d="M0.0 0.0C-31.0 -155.0 -90.0 -311.0 -167.0 -404.0C-131.0 -424.0 -63.0 -468.0 -34.0 -493.0C44.0 -384.0 114.0 -207.0 154.0 -31.0ZM3.0 -188.0 -69.0 -332.0H314.0V-188.0ZM393.0 0.0C363.0 -153.0 304.0 -308.0 227.0 -400.0C261.0 -420.0 325.0 -464.0 351.0 -488.0C431.0 -380.0 500.0 -204.0 540.0 -29.0ZM446.0 -188.0 374.0 -332.0H798.0V-188.0ZM42.0 -255.0V-948.0H189.0V-255.0ZM530.0 -244.0V-778.0C530.0 -792.0 524.0 -796.0 507.0 -797.0C490.0 -797.0 431.0 -797.0 384.0 -794.0C404.0 -837.0 425.0 -903.0 430.0 -946.0C511.0 -946.0 575.0 -943.0 621.0 -919.0C667.0 -896.0 680.0 -855.0 680.0 -780.0V-244.0Z"/></g>
<g fill="black" opacity=".8" transform="translate(200 200) scale(0.1 -0.1)"><path d="M0.0 0.0C-31.0 -155.0 -90.0 -311.0 -167.0 -404.0C-131.0 -424.0 -63.0 -468.0 -34.0 -493.0C44.0 -384.0 114.0 -207.0 154.0 -31.0ZM3.0 -188.0 -69.0 -332.0H314.0V-188.0ZM393.0 0.0C363.0 -153.0 304.0 -308.0 227.0 -400.0C261.0 -420.0 325.0 -464.0 351.0 -488.0C431.0 -380.0 500.0 -204.0 540.0 -29.0ZM446.0 -188.0 374.0 -332.0H798.0V-188.0ZM42.0 -255.0V-948.0H189.0V-255.0ZM530.0 -244.0V-778.0C530.0 -792.0 524.0 -796.0 507.0 -797.0C490.0 -797.0 431.0 -797.0 384.0 -794.0C404.0 -837.0 425.0 -903.0 430.0 -946.0C511.0 -946.0 575.0 -943.0 621.0 -919.0C667.0 -896.0 680.0 -855.0 680.0 -780.0V-244.0Z"/></g>
</svg>
