<?xml version="1.0" encoding="UTF-8"?>
<svg width="1700" height="600" xmlns="http://www.w3.org/2000/svg">
<rect width="100%" height="100%" fill="white"/>
<g fill="green" transform="translate(100 100) scale(0.1 -0.1)"><path d="M0.0 -0.0 -12.0 -35.0H770.0V-0.0H-0.0ZM101.0 -394.0V-428.0L898.0 -419.0V-384.0L101.0 -394.0ZM-172.0 -134.0V-169.0H892.0V-134.0H-172.0ZM534.0 -82.0V-387.0H570.0V-82.0H534.0ZM194.0 -470.0V-303.0L329.0 -307.0V-470.0H194.0ZM881.0 -324.0V-473.0H916.0V-324.0H881.0ZM217.0 -84.0C177.0 -152.0 115.0 -204.0 54.0 -239.0C63.0 -245.0 80.0 -259.0 84.0 -263.0C142.0 -228.0 211.0 -166.0 252.0 -94.0L217.0 -84.0Z"/></g>
<g fill="green" transform="translate(200 100) scale(0.1 -0.1)"><path d="M0.0 0.0 -63.0 -109.0H838.0V0.0H0.0ZM123.0 -400.0V-506.0L916.0 -498.0V-394.0L123.0 -400.0ZM-167.0 -162.0V-267.0H959.0V-162.0H-167.0ZM485.0 -108.0V-403.0H668.0V-108.0H485.0ZM170.0 -539.0V-357.0L404.0 -347.0V-539.0H170.0ZM817.0 -398.0V-517.0H1002.0V-398.0H817.0ZM155.0 -101.0C127.0 -158.0 67.0 -201.0 -5.0 -226.0C31.0 -245.0 97.0 -286.0 126.0 -309.0C192.0 -278.0 269.0 -214.0 304.0 -140.0L155.0 -101.0Z"/></g>
<g fill="green" transform="translate(300 100) scale(0.1 -0.1)"><path d="M0.0 0.0 -11.0 -22.0H621.0V0.0H0.0ZM101.0 -161.0V-182.0L748.0 -174.0V-152.0L101.0 -161.0ZM-136.0 -48.0V-70.0H731.0V-48.0H-136.0ZM473.0 -50.0V-143.0H496.0V-50.0H473.0ZM224.0 -342.0V-31.0L337.0 -34.0V-342.0H224.0ZM738.0 -182.0V-203.0H760.0V-182.0H738.0ZM193.0 -120.0C162.0 -147.0 115.0 -157.0 74.0 -162.0C80.0 -167.0 90.0 -177.0 92.0 -179.0C130.0 -175.0 184.0 -157.0 215.0 -128.0L193.0 -120.0Z"/></g>
<g fill="green" transform="translate(400 100) scale(0.1 -0.1)"><path d="M0.0 0.0 -60.0 -58.0H688.0V0.0H0.0ZM124.0 -169.0V-224.0L776.0 -217.0V-164.0L124.0 -169.0ZM-126.0 -73.0V-127.0H800.0V-73.0H-126.0ZM448.0 -60.0V-143.0H576.0V-60.0H448.0ZM217.0 -391.0V-58.0L395.0 -49.0V-391.0H217.0ZM702.0 -233.0V-223.0H838.0V-233.0H702.0ZM153.0 -125.0C132.0 -146.0 85.0 -150.0 31.0 -150.0C54.0 -163.0 97.0 -190.0 116.0 -205.0C163.0 -203.0 223.0 -184.0 249.0 -153.0L153.0 -125.0Z"/></g>
<g fill="green" transform="translate(500 100) scale(0.1 -0.1)"><path d="M0.0 0.0 -10.0 -36.0H671.0V0.0H0.0ZM-306.0 -548.0V-584.0L426.0 -580.0V-544.0L-306.0 -548.0ZM-248.0 -224.0V-261.0H804.0V-224.0H-248.0ZM197.0 265.0V-490.0H235.0V265.0H197.0ZM44.0 -364.0V-769.0L-93.0 -770.0V-364.0H44.0ZM403.0 -308.0V-650.0H439.0V-308.0H403.0ZM-214.0 154.0C-247.0 19.0 -298.0 -88.0 -351.0 -158.0C-340.0 -164.0 -318.0 -176.0 -314.0 -179.0C-268.0 -116.0 -209.0 5.0 -176.0 143.0L-214.0 154.0Z"/></g>
<g fill="green" transform="translate(600 100) scale(0.1 -0.1)"><path d="M0.0 0.0 -53.0 -142.0H756.0V0.0H0.0ZM-269.0 -584.0V-724.0L476.0 -720.0V-581.0L-269.0 -584.0ZM-258.0 -259.0V-400.0H884.0V-259.0H-258.0ZM152.0 234.0V-523.0H359.0V234.0H152.0ZM23.0 -475.0V-821.0L65.0 -817.0V-475.0H23.0ZM374.0 -403.0V-758.0H560.0V-403.0H374.0ZM-254.0 160.0C-280.0 30.0 -337.0 -92.0 -408.0 -159.0C-366.0 -182.0 -281.0 -232.0 -247.0 -256.0C-184.0 -183.0 -104.0 -31.0 -73.0 114.0L-254.0 160.0Z"/></g>
<g fill="green" transform="translate(700 100) scale(0.1 -0.1)"><path d="M0.0 -0.0 4.0 -20.0H335.0V-0.0H-0.0ZM289.0 -592.0V-612.0L539.0 -590.0V-568.0L289.0 -592.0ZM100.0 -144.0V-164.0H288.0V-144.0H100.0ZM443.0 -321.0V-583.0H464.0V-321.0H443.0ZM268.0 -558.0V-367.0L460.0 -377.0V-558.0H268.0ZM532.0 -489.0V-636.0H553.0V-489.0H532.0ZM319.0 -304.0C305.0 -348.0 283.0 -381.0 258.0 -402.0C263.0 -405.0 276.0 -411.0 279.0 -412.0C301.0 -392.0 326.0 -354.0 342.0 -308.0L319.0 -304.0Z"/></g>
<g fill="green" transform="translate(800 100) scale(0.1 -0.1)"><path d="M0.0 0.0 6.0 -71.0H440.0V0.0H0.0ZM287.0 -633.0V-707.0L639.0 -689.0V-620.0L287.0 -633.0ZM117.0 -202.0V-261.0H419.0V-202.0H117.0ZM471.0 -344.0V-624.0H565.0V-344.0H471.0ZM294.0 -600.0V-456.0L483.0 -432.0V-600.0H294.0ZM597.0 -556.0V-705.0H686.0V-556.0H597.0ZM288.0 -323.0C280.0 -364.0 262.0 -398.0 238.0 -420.0C257.0 -430.0 291.0 -452.0 305.0 -462.0C325.0 -439.0 354.0 -390.0 363.0 -343.0L288.0 -323.0Z"/></g>
<g fill="green" transform="translate(900 100) scale(0.1 -0.1)"><path d="M0.0 0.0 -15.0 -39.0H650.0V-0.0H-0.0ZM257.0 -466.0V-505.0L966.0 -515.0V-475.0L257.0 -466.0ZM-218.0 -160.0V-200.0H793.0V-160.0H-218.0ZM521.0 -88.0V-528.0H561.0V-88.0H521.0ZM-101.0 -103.0V-323.0L180.0 -319.0V-103.0H-101.0ZM948.0 -261.0V-578.0H988.0V-261.0H948.0ZM381.0 161.0C343.0 64.0 280.0 -35.0 208.0 -106.0C218.0 -111.0 233.0 -124.0 239.0 -131.0C311.0 -56.0 378.0 50.0 419.0 152.0L381.0 161.0Z"/></g>
<g fill="green" transform="translate(1000 100) scale(0.1 -0.1)"><path d="M0.0 0.0 -70.0 -141.0H669.0V0.0H0.0ZM249.0 -444.0V-571.0L927.0 -579.0V-449.0L249.0 -444.0ZM-207.0 -156.0V-301.0H812.0V-156.0H-207.0ZM446.0 -139.0V-550.0H611.0V-139.0H446.0ZM-171.0 -105.0V-390.0L178.0 -400.0V-105.0H-171.0ZM839.0 -333.0V-609.0H1004.0V-333.0H839.0ZM288.0 131.0C261.0 51.0 204.0 -26.0 133.0 -79.0C170.0 -100.0 233.0 -146.0 262.0 -174.0C335.0 -107.0 404.0 -9.0 442.0 97.0L288.0 131.0Z"/></g>
<g fill="green" transform="translate(1100 100) scale(0.1 -0.1)"><path d="M0.0 -0.0 -22.0 -39.0H851.0V0.0H-0.0ZM49.0 -383.0V-420.0L928.0 -401.0V-363.0L49.0 -383.0ZM-167.0 -140.0V-180.0H967.0V-140.0H-167.0ZM463.0 -305.0V-402.0H502.0V-305.0H463.0ZM4.0 -397.0V-305.0L107.0 -314.0V-397.0H4.0ZM908.0 -386.0V-453.0H947.0V-386.0H908.0ZM200.0 -248.0C152.0 -276.0 75.0 -293.0 4.0 -309.0C12.0 -315.0 29.0 -332.0 35.0 -337.0C104.0 -318.0 187.0 -291.0 238.0 -259.0L200.0 -248.0Z"/></g>
<g fill="green" transform="translate(1200 100) scale(0.1 -0.1)"><path d="M0.0 0.0 -101.0 -93.0H898.0V0.0H0.0ZM62.0 -347.0V-445.0L921.0 -428.0V-335.0L62.0 -347.0ZM-152.0 -138.0V-225.0H1002.0V-138.0H-152.0ZM420.0 -339.0V-376.0H595.0V-339.0H420.0ZM-26.0 -441.0V-337.0L203.0 -316.0V-441.0H-26.0ZM829.0 -436.0V-438.0H1015.0V-436.0H829.0ZM128.0 -282.0C97.0 -292.0 35.0 -285.0 -38.0 -287.0C-7.0 -305.0 45.0 -342.0 70.0 -364.0C140.0 -357.0 217.0 -347.0 256.0 -318.0L128.0 -282.0Z"/></g>
<g fill="green" transform="translate(1300 100) scale(0.1 -0.1)"><path d="M0.0 0.0 -19.0 -41.0H762.0V-0.0H0.0ZM135.0 -334.0V-376.0L930.0 -373.0V-331.0L135.0 -334.0ZM-197.0 -135.0V-176.0H888.0V-135.0H-197.0ZM421.0 -226.0V-401.0H462.0V-226.0H421.0ZM164.0 -675.0V-402.0L334.0 -403.0V-675.0H164.0ZM908.0 -292.0V-435.0H949.0V-292.0H908.0ZM232.0 13.0C197.0 -60.0 141.0 -141.0 73.0 -201.0C85.0 -207.0 102.0 -221.0 108.0 -229.0C176.0 -163.0 237.0 -77.0 274.0 6.0L232.0 13.0Z"/></g>
<g fill="green" transform="translate(1400 100) scale(0.1 -0.1)"><path d="M0.0 0.0 -81.0 -137.0H793.0V0.0H0.0ZM168.0 -296.0V-426.0L914.0 -424.0V-294.0L168.0 -296.0ZM-207.0 -156.0V-289.0H906.0V-156.0H-207.0ZM349.0 -236.0V-447.0H548.0V-236.0H349.0ZM120.0 -791.0V-450.0L400.0 -447.0V-791.0H120.0ZM787.0 -356.0V-443.0H996.0V-356.0H787.0ZM170.0 -18.0C137.0 -78.0 70.0 -136.0 -13.0 -173.0C34.0 -193.0 114.0 -238.0 153.0 -271.0C236.0 -217.0 314.0 -146.0 357.0 -57.0L170.0 -18.0Z"/></g>
<g fill="green" transform="translate(1500 100) scale(0.1 -0.1)"><path d="M0.0 -0.0 -5.0 -42.0H800.0V-0.0H-0.0ZM88.0 -412.0V-452.0L925.0 -443.0V-402.0L88.0 -412.0ZM-193.0 -163.0V-204.0H915.0V-163.0H-193.0ZM562.0 -47.0V-397.0H605.0V-47.0H562.0ZM196.0 -497.0V-297.0L342.0 -301.0V-497.0H196.0ZM905.0 -359.0V-498.0H946.0V-359.0H905.0ZM251.0 -75.0C196.0 -146.0 112.0 -203.0 28.0 -244.0C40.0 -250.0 58.0 -266.0 64.0 -272.0C143.0 -231.0 236.0 -162.0 292.0 -88.0L251.0 -75.0Z"/></g>
<g fill="green" transform="translate(1600 100) scale(0.1 -0.1)"><path d="M0.0 0.0 -32.0 -120.0H800.0V0.0H0.0ZM108.0 -371.0V-493.0L870.0 -485.0V-365.0L108.0 -371.0ZM-189.0 -156.0V-276.0H892.0V-156.0H-189.0ZM467.0 -104.0V-367.0H663.0V-104.0H467.0ZM155.0 -531.0V-335.0L408.0 -325.0V-531.0H155.0ZM766.0 -406.0V-496.0H965.0V-406.0H766.0ZM165.0 -125.0C133.0 -173.0 69.0 -207.0 -10.0 -230.0C28.0 -248.0 97.0 -286.0 130.0 -310.0C201.0 -282.0 280.0 -230.0 320.0 -165.0L165.0 -125.0Z"/></g>
<g fill="green" transform="translate(100 200) scale(0.1 -0.1)"><path d="M0.0 0.0 -7.0 -32.0H788.0V-0.0H-0.0ZM117.0 -380.0V-411.0L916.0 -402.0V-371.0L117.0 -380.0ZM-150.0 -127.0V-159.0H910.0V-127.0H-150.0ZM548.0 -90.0V-374.0H579.0V-90.0H548.0ZM207.0 -458.0V-295.0L340.0 -299.0V-458.0H207.0ZM905.0 -302.0V-450.0H937.0V-302.0H905.0ZM210.0 -96.0C174.0 -160.0 117.0 -210.0 60.0 -244.0C68.0 -249.0 83.0 -262.0 87.0 -266.0C142.0 -232.0 205.0 -173.0 243.0 -105.0L210.0 -96.0Z"/></g>
<g fill="green" transform="translate(200 200) scale(0.1 -0.1)"><path d="M0.0 0.0 -44.0 -102.0H829.0V0.0H0.0ZM123.0 -421.0V-524.0L888.0 -516.0V-416.0L123.0 -421.0ZM-171.0 -161.0V-262.0H946.0V-161.0H-171.0ZM468.0 -100.0V-426.0H647.0V-100.0H468.0ZM163.0 -546.0V-366.0L391.0 -356.0V-546.0H163.0ZM802.0 -390.0V-547.0H984.0V-390.0H802.0ZM151.0 -101.0C123.0 -158.0 65.0 -202.0 -4.0 -227.0C30.0 -246.0 92.0 -287.0 119.0 -309.0C184.0 -277.0 258.0 -213.0 292.0 -138.0L151.0 -101.0Z"/></g>
<g fill="red" transform="translate(100 300) scale(0.1 -0.1)"><path d="M0.0 0.0V-29.0H424.0V0.0H0.0ZM-37.0 -429.0V-458.0H405.0V-429.0H-37.0ZM-136.0 -180.0V-209.0H474.0V-180.0H-136.0ZM164.0 -8.0V-445.0H194.0V-8.0H164.0ZM-57.0 -267.0V-519.0H-28.0V-267.0H-57.0ZM392.0 -267.0V-492.0H421.0V-267.0H392.0ZM35.0 97.0C4.0 10.0 -43.0 -77.0 -96.0 -139.0C-88.0 -143.0 -75.0 -150.0 -69.0 -155.0C-19.0 -93.0 31.0 -1.0 65.0 89.0L35.0 97.0Z"/></g>
<g fill="black" opacity=".8" transform="translate(100 300) scale(0.1 -0.1)"><path d="M0.0 0.0 -2.0 -31.0H423.0V0.0H0.0ZM-43.0 -423.0V-455.0L405.0 -454.0V-423.0H-43.0ZM-133.0 -177.0V-209.0H483.0V-177.0H-133.0ZM164.0 -16.0V-442.0H195.0V-16.0H164.0ZM-60.0 -266.0V-517.0H-27.0V-266.0H-60.0ZM390.0 -266.0V-504.0H421.0V-266.0H390.0ZM38.0 94.0C9.0 11.0 -37.0 -73.0 -94.0 -135.0C-83.0 -138.0 -70.0 -146.0 -64.0 -153.0C-11.0 -91.0 40.0 0.0 71.0 87.0L38.0 94.0Z"/></g>
<g fill="red" transform="translate(200 300) scale(0.1 -0.1)"><path d="M0.0 0.0V-113.0H406.0V0.0H0.0ZM-21.0 -402.0V-511.0H331.0V-402.0H-21.0ZM-154.0 -164.0V-279.0H436.0V-164.0H-154.0ZM87.0 -73.0V-438.0H216.0V-73.0H87.0ZM-113.0 -304.0V-561.0H16.0V-304.0H-113.0ZM277.0 -303.0V-537.0H398.0V-303.0H277.0ZM-20.0 62.0C-39.0 -7.0 -75.0 -78.0 -121.0 -123.0C-92.0 -137.0 -39.0 -166.0 -14.0 -185.0C32.0 -132.0 76.0 -48.0 100.0 36.0L-20.0 62.0Z"/></g>
<g fill="black" opacity=".8" transform="translate(200 300) scale(0.1 -0.1)"><path d="M0.0 0.0 -11.0 -112.0H392.0V0.0H0.0ZM-41.0 -397.0V-511.0H341.0V-397.0H-41.0ZM-149.0 -165.0V-280.0H429.0V-165.0H-149.0ZM83.0 -57.0V-455.0H216.0V-57.0H83.0ZM-111.0 -306.0V-557.0L18.0 -556.0V-306.0H-111.0ZM276.0 -307.0V-535.0H403.0V-307.0H276.0ZM-18.0 61.0C-38.0 -8.0 -76.0 -78.0 -125.0 -125.0C-96.0 -139.0 -43.0 -170.0 -17.0 -190.0C33.0 -133.0 78.0 -51.0 104.0 35.0L-18.0 61.0Z"/></g>
<g fill="red" transform="translate(300 300) scale(0.1 -0.1)"><path d="M0.0 0.0 -17.0 -29.0H578.0V0.0H0.0ZM-58.0 -280.0V-309.0H573.0V-280.0H-58.0ZM-197.0 -119.0V-149.0H704.0V-119.0H-197.0ZM236.0 -12.0V-299.0H266.0V-12.0H236.0ZM-70.0 -175.0V-360.0H-41.0V-175.0H-70.0ZM558.0 -175.0V-356.0H587.0V-175.0H558.0ZM31.0 76.0C2.0 13.0 -44.0 -47.0 -94.0 -90.0C-87.0 -95.0 -74.0 -106.0 -70.0 -110.0C-20.0 -65.0 30.0 1.0 60.0 69.0L31.0 76.0Z"/></g>
<g fill="black" opacity=".8" transform="translate(300 300) scale(0.1 -0.1)"><path d="M0.0 0.0 -16.0 -28.0H577.0V0.0H0.0ZM-57.0 -281.0V-310.0H574.0V-282.0L-57.0 -281.0ZM-199.0 -121.0V-150.0H703.0V-121.0H-199.0ZM236.0 -11.0V-301.0H264.0V-11.0H236.0ZM-70.0 -176.0V-360.0H-42.0V-176.0H-70.0ZM559.0 -174.0V-354.0H588.0V-174.0H559.0ZM29.0 76.0C1.0 11.0 -45.0 -49.0 -94.0 -92.0C-86.0 -97.0 -74.0 -106.0 -70.0 -111.0C-23.0 -68.0 28.0 -1.0 58.0 68.0L29.0 76.0Z"/></g>
<g fill="red" transform="translate(400 300) scale(0.1 -0.1)"><path d="M0.0 0.0 -76.0 -95.0H599.0V0.0H0.0ZM-49.0 -278.0V-369.0H555.0V-278.0H-49.0ZM-204.0 -125.0V-221.0H715.0V-125.0H-204.0ZM181.0 -29.0V-322.0H322.0V-29.0H181.0ZM-115.0 -235.0V-393.0H24.0V-235.0H-115.0ZM481.0 -235.0V-393.0H621.0V-235.0H481.0ZM-18.0 68.0C-42.0 13.0 -91.0 -38.0 -150.0 -71.0C-121.0 -87.0 -70.0 -123.0 -47.0 -144.0C13.0 -102.0 73.0 -35.0 105.0 39.0L-18.0 68.0Z"/></g>
<g fill="black" opacity=".8" transform="translate(400 300) scale(0.1 -0.1)"><path d="M0.0 0.0 -72.0 -96.0H601.0V0.0H0.0ZM-45.0 -276.0V-369.0H554.0V-277.0L-45.0 -276.0ZM-206.0 -124.0V-222.0H716.0V-124.0H-206.0ZM181.0 -28.0V-322.0H322.0V-28.0H181.0ZM-115.0 -234.0V-392.0H27.0V-234.0H-115.0ZM479.0 -232.0V-393.0H621.0V-232.0H479.0ZM-19.0 70.0C-42.0 12.0 -91.0 -39.0 -149.0 -72.0C-120.0 -88.0 -67.0 -124.0 -44.0 -145.0C14.0 -103.0 74.0 -36.0 104.0 40.0L-19.0 70.0Z"/></g>
<g fill="red" transform="translate(500 300) scale(0.1 -0.1)"><path d="M0.0 0.0 -9.0 -30.0H313.0V0.0H0.0ZM-47.0 -398.0V-428.0H298.0V-398.0H-47.0ZM-108.0 -174.0V-203.0H347.0V-174.0H-108.0ZM109.0 -12.0V-418.0H139.0V-12.0H109.0ZM-63.0 -263.0V-497.0H-34.0V-263.0H-63.0ZM282.0 -263.0V-483.0H311.0V-263.0H282.0ZM27.0 106.0C1.0 24.0 -41.0 -56.0 -91.0 -113.0C-82.0 -117.0 -69.0 -125.0 -63.0 -130.0C-17.0 -72.0 28.0 14.0 56.0 99.0L27.0 106.0Z"/></g>
<g fill="black" opacity=".8" transform="translate(500 300) scale(0.1 -0.1)"><path d="M0.0 0.0 -3.0 -29.0H318.0V0.0H0.0ZM-51.0 -399.0V-429.0H294.0V-399.0H-51.0ZM-119.0 -169.0V-198.0H358.0V-169.0H-119.0ZM106.0 -5.0V-417.0H136.0V-5.0H106.0ZM-64.0 -254.0V-493.0L-37.0 -492.0V-254.0H-64.0ZM277.0 -254.0V-477.0H306.0V-254.0H277.0ZM29.0 104.0C3.0 26.0 -39.0 -55.0 -91.0 -115.0C-81.0 -118.0 -68.0 -125.0 -62.0 -131.0C-15.0 -72.0 32.0 15.0 60.0 98.0L29.0 104.0Z"/></g>
<g fill="red" transform="translate(600 300) scale(0.1 -0.1)"><path d="M0.0 0.0 -30.0 -101.0H293.0V0.0H0.0ZM-42.0 -349.0V-452.0H265.0V-349.0H-42.0ZM-113.0 -149.0V-252.0H315.0V-149.0H-113.0ZM52.0 -40.0V-409.0H163.0V-40.0H52.0ZM-101.0 -271.0V-519.0H8.0V-271.0H-101.0ZM204.0 -275.0V-469.0H307.0V-275.0H204.0ZM-29.0 64.0C-44.0 1.0 -73.0 -65.0 -110.0 -109.0C-84.0 -121.0 -36.0 -146.0 -14.0 -163.0C23.0 -113.0 59.0 -35.0 79.0 40.0L-29.0 64.0Z"/></g>
<g fill="black" opacity=".8" transform="translate(600 300) scale(0.1 -0.1)"><path d="M0.0 0.0 -10.0 -105.0H298.0V0.0H0.0ZM-41.0 -351.0V-457.0H260.0V-351.0H-41.0ZM-119.0 -152.0V-259.0H318.0V-152.0H-119.0ZM51.0 -54.0V-407.0H166.0V-54.0H51.0ZM-97.0 -276.0V-518.0H13.0V-276.0H-97.0ZM197.0 -279.0V-472.0H306.0V-279.0H197.0ZM-21.0 64.0C-38.0 1.0 -69.0 -65.0 -112.0 -111.0C-85.0 -123.0 -36.0 -148.0 -12.0 -167.0C30.0 -113.0 68.0 -36.0 90.0 42.0L-21.0 64.0Z"/></g>
<g fill="red" transform="translate(700 300) scale(0.1 -0.1)"><path d="M0.0 0.0V-29.0H323.0V0.0H0.0ZM-48.0 -405.0V-434.0H301.0V-405.0H-48.0ZM-134.0 -160.0V-189.0H379.0V-160.0H-134.0ZM107.0 -12.0V-422.0H137.0V-12.0H107.0ZM-63.0 -249.0V-487.0H-34.0V-249.0H-63.0ZM283.0 -249.0V-478.0H312.0V-249.0H283.0ZM33.0 105.0C6.0 22.0 -33.0 -60.0 -81.0 -118.0C-72.0 -122.0 -58.0 -130.0 -53.0 -134.0C-8.0 -76.0 35.0 12.0 63.0 98.0L33.0 105.0Z"/></g>
<g fill="black" opacity=".8" transform="translate(700 300) scale(0.1 -0.1)"><path d="M0.0 0.0 -2.0 -29.0H326.0V0.0H0.0ZM-47.0 -403.0V-432.0H303.0V-403.0H-47.0ZM-116.0 -168.0V-197.0H367.0V-168.0H-116.0ZM110.0 -9.0V-421.0H140.0V-9.0H110.0ZM-63.0 -254.0V-499.0L-36.0 -498.0V-254.0H-63.0ZM287.0 -253.0V-480.0H316.0V-253.0H287.0ZM28.0 103.0C3.0 24.0 -37.0 -58.0 -88.0 -118.0C-78.0 -121.0 -66.0 -127.0 -60.0 -133.0C-13.0 -74.0 32.0 14.0 58.0 97.0L28.0 103.0Z"/></g>
<g fill="red" transform="translate(800 300) scale(0.1 -0.1)"><path d="M0.0 0.0V-109.0H302.0V0.0H0.0ZM-41.0 -371.0V-476.0H266.0V-371.0H-41.0ZM-126.0 -156.0V-265.0H329.0V-156.0H-126.0ZM51.0 -66.0V-413.0H173.0V-66.0H51.0ZM-95.0 -284.0V-527.0H18.0V-284.0H-95.0ZM202.0 -282.0V-485.0H314.0V-282.0H202.0ZM-28.0 74.0C-45.0 2.0 -77.0 -72.0 -121.0 -119.0C-91.0 -131.0 -37.0 -156.0 -12.0 -173.0C30.0 -120.0 69.0 -35.0 90.0 50.0L-28.0 74.0Z"/></g>
<g fill="black" opacity=".8" transform="translate(800 300) scale(0.1 -0.1)"><path d="M0.0 0.0 -10.0 -105.0H306.0V0.0H0.0ZM-39.0 -363.0V-468.0H267.0V-363.0H-39.0ZM-120.0 -155.0V-262.0H329.0V-155.0H-120.0ZM53.0 -54.0V-420.0H169.0V-54.0H53.0ZM-98.0 -282.0V-528.0H12.0V-282.0H-98.0ZM205.0 -282.0V-486.0H315.0V-282.0H205.0ZM-21.0 67.0C-38.0 2.0 -69.0 -66.0 -112.0 -112.0C-85.0 -125.0 -36.0 -151.0 -12.0 -170.0C30.0 -115.0 68.0 -36.0 90.0 45.0L-21.0 67.0Z"/></g>
<g fill="red" transform="translate(900 300) scale(0.1 -0.1)"><path d="M0.0 0.0 -15.0 -29.0H283.0V0.0H0.0ZM-38.0 -406.0V-436.0H263.0V-406.0H-38.0ZM-96.0 -170.0V-200.0H314.0V-170.0H-96.0ZM-52.0 -251.0V-494.0H-23.0V-251.0H-52.0ZM-311.0 -150.0V-599.0H-282.0V-150.0H-311.0ZM247.0 -251.0V-485.0H276.0V-251.0H247.0ZM11.0 86.0C-5.0 25.0 -34.0 -56.0 -78.0 -120.0C-70.0 -123.0 -60.0 -130.0 -53.0 -136.0C-7.0 -67.0 21.0 15.0 41.0 83.0L11.0 86.0Z"/></g>
<g fill="black" opacity=".8" transform="translate(900 300) scale(0.1 -0.1)"><path d="M0.0 0.0 -14.0 -29.0H283.0V0.0H0.0ZM-38.0 -405.0V-436.0H263.0V-406.0L-38.0 -405.0ZM-97.0 -170.0V-201.0H316.0V-170.0H-97.0ZM-51.0 -249.0V-494.0H-24.0V-249.0H-51.0ZM-311.0 -149.0V-599.0L-282.0 -598.0V-149.0H-311.0ZM247.0 -250.0V-485.0H276.0V-250.0H247.0ZM10.0 85.0C-4.0 25.0 -34.0 -55.0 -79.0 -120.0C-70.0 -122.0 -60.0 -128.0 -52.0 -136.0C-7.0 -67.0 22.0 16.0 42.0 82.0L10.0 85.0Z"/></g>
<g fill="red" transform="translate(1000 300) scale(0.1 -0.1)"><path d="M0.0 0.0 -52.0 -104.0H253.0V0.0H0.0ZM-46.0 -356.0V-459.0H211.0V-356.0H-46.0ZM-107.0 -147.0V-252.0H267.0V-147.0H-107.0ZM-100.0 -277.0V-520.0H-4.0V-277.0H-100.0ZM-367.0 -186.0V-632.0H-246.0V-186.0H-367.0ZM161.0 -277.0V-484.0H255.0V-277.0H161.0ZM-36.0 53.0C-52.0 5.0 -79.0 -55.0 -116.0 -102.0C-90.0 -114.0 -51.0 -141.0 -31.0 -162.0C15.0 -101.0 43.0 -34.0 67.0 36.0L-36.0 53.0Z"/></g>
<g fill="black" opacity=".8" transform="translate(1000 300) scale(0.1 -0.1)"><path d="M0.0 0.0 -51.0 -104.0H251.0V0.0H0.0ZM-47.0 -355.0V-459.0L211.0 -460.0V-355.0H-47.0ZM-108.0 -148.0V-253.0H266.0V-148.0H-108.0ZM-100.0 -277.0V-520.0H-4.0V-277.0H-100.0ZM-366.0 -187.0V-631.0H-246.0V-187.0H-366.0ZM160.0 -279.0V-484.0H255.0V-279.0H160.0ZM-35.0 53.0C-51.0 4.0 -78.0 -54.0 -116.0 -101.0C-91.0 -114.0 -52.0 -141.0 -31.0 -162.0C15.0 -100.0 44.0 -35.0 67.0 37.0L-35.0 53.0Z"/></g>
<g fill="red" transform="translate(1100 300) scale(0.1 -0.1)"><path d="M0.0 0.0V-29.0H353.0V0.0H0.0ZM-25.0 -585.0V-615.0H320.0V-585.0H-25.0ZM-82.0 -212.0V-241.0H391.0V-212.0H-82.0ZM133.0 -16.0V-603.0H162.0V-16.0H133.0ZM-40.0 -331.0V-715.0H-10.0V-331.0H-40.0ZM311.0 -331.0V-675.0H341.0V-331.0H311.0ZM11.0 133.0C-7.0 21.0 -37.0 -93.0 -82.0 -171.0C-73.0 -175.0 -58.0 -181.0 -52.0 -185.0C-10.0 -107.0 22.0 11.0 43.0 127.0L11.0 133.0Z"/></g>
<g fill="black" opacity=".8" transform="translate(1100 300) scale(0.1 -0.1)"><path d="M0.0 0.0 3.0 -30.0H353.0V0.0H0.0ZM-27.0 -582.0V-613.0L322.0 -612.0V-582.0H-27.0ZM-85.0 -217.0V-247.0H384.0V-217.0H-85.0ZM132.0 -12.0V-600.0H161.0V-12.0H132.0ZM-41.0 -329.0V-716.0H-13.0V-329.0H-41.0ZM308.0 -327.0V-672.0H339.0V-327.0H308.0ZM10.0 130.0C-7.0 19.0 -37.0 -95.0 -83.0 -175.0C-73.0 -178.0 -58.0 -184.0 -52.0 -189.0C-10.0 -110.0 23.0 9.0 43.0 125.0L10.0 130.0Z"/></g>
<g fill="red" transform="translate(1200 300) scale(0.1 -0.1)"><path d="M0.0 0.0V-130.0H338.0V0.0H0.0ZM-29.0 -605.0V-732.0H282.0V-605.0H-29.0ZM-108.0 -234.0V-364.0H361.0V-234.0H-108.0ZM60.0 -46.0V-663.0H198.0V-46.0H60.0ZM-90.0 -399.0V-791.0H25.0V-399.0H-90.0ZM231.0 -399.0V-768.0H347.0V-399.0H231.0ZM-48.0 115.0C-62.0 10.0 -91.0 -104.0 -131.0 -173.0C-98.0 -189.0 -38.0 -225.0 -11.0 -246.0C31.0 -165.0 69.0 -34.0 89.0 88.0L-48.0 115.0Z"/></g>
<g fill="black" opacity=".8" transform="translate(1200 300) scale(0.1 -0.1)"><path d="M0.0 0.0 10.0 -129.0H346.0V0.0H0.0ZM-33.0 -602.0V-732.0H284.0V-602.0H-33.0ZM-115.0 -232.0V-364.0H367.0V-232.0H-115.0ZM58.0 -42.0V-668.0H194.0V-42.0H58.0ZM-91.0 -401.0V-792.0H25.0V-401.0H-91.0ZM225.0 -398.0V-774.0H347.0V-398.0H225.0ZM-35.0 112.0C-52.0 8.0 -83.0 -103.0 -126.0 -173.0C-94.0 -189.0 -35.0 -225.0 -8.0 -246.0C37.0 -164.0 77.0 -37.0 98.0 86.0L-35.0 112.0Z"/></g>
<g fill="red" transform="translate(1300 300) scale(0.1 -0.1)"><path d="M0.0 0.0V-29.0H309.0V0.0H0.0ZM-27.0 -584.0V-614.0H283.0V-584.0H-27.0ZM-80.0 -212.0V-241.0H331.0V-212.0H-80.0ZM110.0 -15.0V-602.0H140.0V-15.0H110.0ZM-43.0 -330.0V-714.0H-13.0V-330.0H-43.0ZM269.0 -330.0V-674.0H298.0V-330.0H269.0ZM10.0 133.0C-5.0 21.0 -30.0 -92.0 -70.0 -171.0C-61.0 -175.0 -46.0 -181.0 -41.0 -185.0C-3.0 -107.0 24.0 11.0 42.0 128.0L10.0 133.0Z"/></g>
<g fill="black" opacity=".8" transform="translate(1300 300) scale(0.1 -0.1)"><path d="M0.0 0.0 -1.0 -28.0H308.0V0.0H0.0ZM-23.0 -586.0V-617.0L283.0 -616.0V-586.0H-23.0ZM-80.0 -211.0V-241.0H334.0V-211.0H-80.0ZM113.0 -15.0V-605.0H142.0V-15.0H113.0ZM-39.0 -330.0V-717.0H-9.0V-330.0H-39.0ZM268.0 -330.0V-678.0H297.0V-330.0H268.0ZM9.0 132.0C-5.0 20.0 -29.0 -93.0 -69.0 -172.0C-59.0 -175.0 -44.0 -180.0 -39.0 -185.0C-2.0 -107.0 25.0 11.0 41.0 128.0L9.0 132.0Z"/></g>
<g fill="red" transform="translate(1400 300) scale(0.1 -0.1)"><path d="M0.0 0.0V-130.0H338.0V0.0H0.0ZM-19.0 -605.0V-732.0H292.0V-605.0H-19.0ZM-94.0 -234.0V-364.0H361.0V-234.0H-94.0ZM70.0 -46.0V-663.0H204.0V-46.0H70.0ZM-70.0 -399.0V-791.0H45.0V-399.0H-70.0ZM229.0 -399.0V-768.0H345.0V-399.0H229.0ZM-28.0 115.0C-42.0 10.0 -71.0 -104.0 -111.0 -173.0C-78.0 -189.0 -18.0 -225.0 9.0 -246.0C51.0 -165.0 89.0 -34.0 109.0 88.0L-28.0 115.0Z"/></g>
<g fill="black" opacity=".8" transform="translate(1400 300) scale(0.1 -0.1)"><path d="M0.0 0.0 -4.0 -128.0H334.0V0.0H0.0ZM-20.0 -601.0V-727.0L293.0 -728.0V-602.0L-20.0 -601.0ZM-95.0 -234.0V-362.0H359.0V-234.0H-95.0ZM71.0 -46.0V-666.0H201.0V-46.0H71.0ZM-71.0 -399.0V-789.0H40.0V-399.0H-71.0ZM231.0 -400.0V-764.0H345.0V-400.0H231.0ZM-29.0 117.0C-44.0 10.0 -73.0 -103.0 -113.0 -174.0C-81.0 -190.0 -22.0 -225.0 4.0 -246.0C46.0 -164.0 84.0 -33.0 103.0 91.0L-29.0 117.0Z"/></g>
<g fill="red" transform="translate(1500 300) scale(0.1 -0.1)"><path d="M0.0 0.0V-29.0H309.0V0.0H0.0ZM-27.0 -584.0V-614.0H287.0V-584.0H-27.0ZM-80.0 -212.0V-241.0H331.0V-212.0H-80.0ZM113.0 -15.0V-602.0H143.0V-15.0H113.0ZM-43.0 -330.0V-714.0H-13.0V-330.0H-43.0ZM272.0 -330.0V-674.0H301.0V-330.0H272.0ZM10.0 133.0C-5.0 21.0 -30.0 -92.0 -70.0 -171.0C-61.0 -175.0 -46.0 -181.0 -41.0 -185.0C-3.0 -107.0 24.0 11.0 42.0 128.0L10.0 133.0Z"/></g>
<g fill="black" opacity=".8" transform="translate(1500 300) scale(0.1 -0.1)"><path d="M0.0 0.0 -1.0 -29.0H309.0V0.0H0.0ZM-25.0 -581.0V-612.0H285.0V-581.0H-25.0ZM-85.0 -212.0V-242.0H336.0V-212.0H-85.0ZM113.0 -14.0V-600.0H143.0V-14.0H113.0ZM-41.0 -331.0V-709.0L-10.0 -708.0V-331.0H-41.0ZM269.0 -331.0V-673.0H299.0V-331.0H269.0ZM14.0 133.0C-2.0 22.0 -29.0 -91.0 -71.0 -170.0C-61.0 -172.0 -46.0 -178.0 -40.0 -183.0C-1.0 -106.0 28.0 12.0 46.0 128.0L14.0 133.0Z"/></g>
<g fill="red" transform="translate(1600 300) scale(0.1 -0.1)"><path d="M0.0 0.0V-130.0H338.0V0.0H0.0ZM-19.0 -582.0V-709.0H292.0V-582.0H-19.0ZM-94.0 -227.0V-357.0H357.0V-227.0H-94.0ZM70.0 -46.0V-663.0H204.0V-46.0H70.0ZM-70.0 -392.0V-775.0H45.0V-392.0H-70.0ZM229.0 -392.0V-743.0H345.0V-392.0H229.0ZM-28.0 115.0C-42.0 10.0 -71.0 -104.0 -111.0 -173.0C-78.0 -189.0 -18.0 -225.0 9.0 -246.0C51.0 -165.0 89.0 -34.0 109.0 88.0L-28.0 115.0Z"/></g>
<g fill="black" opacity=".8" transform="translate(1600 300) scale(0.1 -0.1)"><path d="M0.0 0.0 -5.0 -129.0H333.0V0.0H0.0ZM-20.0 -587.0V-714.0H294.0V-587.0H-20.0ZM-97.0 -230.0V-359.0H357.0V-230.0H-97.0ZM71.0 -49.0V-652.0H202.0V-49.0H71.0ZM-72.0 -394.0V-776.0H41.0V-394.0H-72.0ZM230.0 -397.0V-748.0H345.0V-397.0H230.0ZM-27.0 113.0C-42.0 9.0 -71.0 -102.0 -113.0 -171.0C-80.0 -187.0 -21.0 -222.0 5.0 -243.0C48.0 -162.0 86.0 -34.0 106.0 87.0L-27.0 113.0Z"/></g>
<g fill="red" transform="translate(100 400) scale(0.1 -0.1)"><path d="M0.0 0.0V-29.0H300.0V0.0H0.0ZM-24.0 -584.0V-614.0H281.0V-584.0H-24.0ZM-78.0 -212.0V-241.0H320.0V-212.0H-78.0ZM110.0 -15.0V-602.0H140.0V-15.0H110.0ZM-40.0 -330.0V-714.0H-10.0V-330.0H-40.0ZM261.0 -330.0V-674.0H291.0V-330.0H261.0ZM12.0 133.0C-3.0 21.0 -28.0 -92.0 -68.0 -171.0C-59.0 -175.0 -44.0 -181.0 -39.0 -185.0C-1.0 -107.0 26.0 11.0 44.0 128.0L12.0 133.0Z"/></g>
<g fill="black" opacity=".8" transform="translate(100 400) scale(0.1 -0.1)"><path d="M0.0 0.0V-28.0H302.0V0.0H0.0ZM-21.0 -586.0V-616.0L277.0 -615.0V-585.0L-21.0 -586.0ZM-78.0 -211.0V-241.0H326.0V-211.0H-78.0ZM111.0 -14.0V-604.0H140.0V-14.0H111.0ZM-38.0 -329.0V-716.0L-8.0 -715.0V-329.0H-38.0ZM262.0 -329.0V-676.0H291.0V-329.0H262.0ZM10.0 134.0C-4.0 22.0 -28.0 -91.0 -68.0 -171.0C-58.0 -174.0 -44.0 -179.0 -38.0 -184.0C-2.0 -106.0 26.0 12.0 42.0 129.0L10.0 134.0Z"/></g>
<g fill="red" transform="translate(200 400) scale(0.1 -0.1)"><path d="M0.0 0.0V-127.0H329.0V0.0H0.0ZM-18.0 -603.0V-729.0H284.0V-603.0H-18.0ZM-94.0 -236.0V-362.0H352.0V-236.0H-94.0ZM66.0 -44.0V-661.0H195.0V-44.0H66.0ZM-72.0 -397.0V-789.0H41.0V-397.0H-72.0ZM218.0 -397.0V-766.0H333.0V-397.0H218.0ZM-28.0 117.0C-42.0 12.0 -71.0 -102.0 -110.0 -171.0C-79.0 -187.0 -20.0 -221.0 6.0 -242.0C48.0 -161.0 85.0 -31.0 105.0 91.0L-28.0 117.0Z"/></g>
<g fill="black" opacity=".8" transform="translate(200 400) scale(0.1 -0.1)"><path d="M0.0 0.0 -1.0 -128.0H324.0V0.0H0.0ZM-20.0 -600.0V-726.0H283.0V-601.0L-20.0 -600.0ZM-94.0 -233.0V-361.0H347.0V-233.0H-94.0ZM67.0 -45.0V-665.0H196.0V-45.0H67.0ZM-71.0 -397.0V-787.0H39.0V-397.0H-71.0ZM222.0 -398.0V-763.0H335.0V-398.0H222.0ZM-29.0 117.0C-44.0 11.0 -72.0 -102.0 -112.0 -173.0C-80.0 -189.0 -21.0 -224.0 5.0 -244.0C46.0 -162.0 84.0 -32.0 103.0 92.0L-29.0 117.0Z"/></g>
<g fill="red" transform="translate(300 400) scale(0.1 -0.1)"><path d="M0.0 0.0V-29.0H309.0V0.0H0.0ZM-22.0 -584.0V-614.0H279.0V-584.0H-22.0ZM-80.0 -212.0V-241.0H331.0V-212.0H-80.0ZM110.0 -15.0V-602.0H140.0V-15.0H110.0ZM-38.0 -330.0V-714.0H-8.0V-330.0H-38.0ZM262.0 -330.0V-674.0H292.0V-330.0H262.0ZM10.0 133.0C-5.0 21.0 -30.0 -92.0 -70.0 -171.0C-61.0 -175.0 -46.0 -181.0 -41.0 -185.0C-3.0 -107.0 24.0 11.0 42.0 128.0L10.0 133.0Z"/></g>
<g fill="black" opacity=".8" transform="translate(300 400) scale(0.1 -0.1)"><path d="M0.0 0.0 -1.0 -29.0H305.0V0.0H0.0ZM-25.0 -582.0V-612.0H280.0V-581.0L-25.0 -582.0ZM-84.0 -211.0V-241.0H331.0V-211.0H-84.0ZM111.0 -14.0V-600.0H141.0V-14.0H111.0ZM-40.0 -331.0V-710.0L-10.0 -709.0V-331.0H-40.0ZM264.0 -331.0V-673.0H294.0V-331.0H264.0ZM12.0 133.0C-3.0 21.0 -29.0 -91.0 -70.0 -169.0C-60.0 -172.0 -45.0 -178.0 -39.0 -183.0C-2.0 -106.0 27.0 12.0 44.0 128.0L12.0 133.0Z"/></g>
<g fill="red" transform="translate(400 400) scale(0.1 -0.1)"><path d="M0.0 0.0V-130.0H338.0V0.0H0.0ZM-19.0 -582.0V-709.0H292.0V-582.0H-19.0ZM-94.0 -230.0V-360.0H361.0V-230.0H-94.0ZM70.0 -46.0V-663.0H203.0V-46.0H70.0ZM-70.0 -392.0V-775.0H45.0V-392.0H-70.0ZM228.0 -392.0V-748.0H344.0V-392.0H228.0ZM-28.0 115.0C-42.0 10.0 -71.0 -104.0 -111.0 -173.0C-78.0 -189.0 -18.0 -225.0 9.0 -246.0C51.0 -165.0 89.0 -34.0 109.0 88.0L-28.0 115.0Z"/></g>
<g fill="black" opacity=".8" transform="translate(400 400) scale(0.1 -0.1)"><path d="M0.0 0.0 -6.0 -128.0H332.0V0.0H0.0ZM-20.0 -589.0V-714.0L294.0 -715.0V-589.0H-20.0ZM-95.0 -231.0V-359.0H356.0V-231.0H-95.0ZM72.0 -48.0V-653.0H202.0V-48.0H72.0ZM-69.0 -396.0V-777.0H42.0V-396.0H-69.0ZM230.0 -397.0V-749.0H344.0V-397.0H230.0ZM-28.0 114.0C-43.0 9.0 -72.0 -102.0 -113.0 -172.0C-80.0 -187.0 -21.0 -222.0 5.0 -243.0C47.0 -162.0 86.0 -34.0 105.0 88.0L-28.0 114.0Z"/></g>
<g fill="red" transform="translate(500 400) scale(0.1 -0.1)"><path d="M0.0 0.0V-29.0H296.0V0.0H0.0ZM-22.0 -584.0V-614.0H261.0V-584.0H-22.0ZM-80.0 -212.0V-241.0H318.0V-212.0H-80.0ZM102.0 -15.0V-602.0H132.0V-15.0H102.0ZM-38.0 -330.0V-714.0H-8.0V-330.0H-38.0ZM247.0 -330.0V-674.0H276.0V-330.0H247.0ZM10.0 133.0C-5.0 21.0 -30.0 -92.0 -70.0 -171.0C-61.0 -175.0 -46.0 -181.0 -41.0 -185.0C-3.0 -107.0 24.0 11.0 42.0 128.0L10.0 133.0Z"/></g>
<g fill="black" opacity=".8" transform="translate(500 400) scale(0.1 -0.1)"><path d="M0.0 0.0 2.0 -28.0H293.0V0.0H0.0ZM-22.0 -586.0V-616.0L265.0 -615.0V-586.0H-22.0ZM-72.0 -213.0V-242.0H313.0V-213.0H-72.0ZM105.0 -14.0V-605.0H133.0V-14.0H105.0ZM-38.0 -330.0V-718.0H-10.0V-330.0H-38.0ZM250.0 -329.0V-675.0H279.0V-329.0H250.0ZM8.0 132.0C-6.0 21.0 -31.0 -92.0 -71.0 -172.0C-61.0 -174.0 -47.0 -180.0 -41.0 -185.0C-4.0 -106.0 23.0 12.0 40.0 128.0L8.0 132.0Z"/></g>
<g fill="red" transform="translate(600 400) scale(0.1 -0.1)"><path d="M0.0 0.0V-126.0H307.0V0.0H0.0ZM-22.0 -605.0V-730.0H267.0V-605.0H-22.0ZM-94.0 -234.0V-360.0H321.0V-234.0H-94.0ZM56.0 -46.0V-663.0H176.0V-46.0H56.0ZM-76.0 -399.0V-791.0H33.0V-399.0H-76.0ZM201.0 -399.0V-768.0H311.0V-399.0H201.0ZM-30.0 113.0C-44.0 8.0 -70.0 -105.0 -108.0 -176.0C-77.0 -190.0 -22.0 -222.0 2.0 -241.0C42.0 -161.0 77.0 -32.0 96.0 89.0L-30.0 113.0Z"/></g>
<g fill="black" opacity=".8" transform="translate(600 400) scale(0.1 -0.1)"><path d="M0.0 0.0 5.0 -127.0H307.0V0.0H0.0ZM-23.0 -601.0V-727.0H260.0V-601.0H-23.0ZM-92.0 -233.0V-360.0H323.0V-233.0H-92.0ZM54.0 -46.0V-666.0H182.0V-46.0H54.0ZM-74.0 -398.0V-790.0H33.0V-398.0H-74.0ZM202.0 -397.0V-764.0H313.0V-397.0H202.0ZM-32.0 115.0C-46.0 10.0 -73.0 -104.0 -112.0 -174.0C-81.0 -189.0 -23.0 -224.0 3.0 -244.0C43.0 -162.0 79.0 -33.0 98.0 90.0L-32.0 115.0Z"/></g>
<g fill="red" transform="translate(700 400) scale(0.1 -0.1)"><path d="M0.0 0.0V-29.0H274.0V0.0H0.0ZM-11.0 -584.0V-614.0H259.0V-584.0H-11.0ZM-64.0 -212.0V-241.0H294.0V-212.0H-64.0ZM109.0 -15.0V-602.0H138.0V-15.0H109.0ZM-27.0 -330.0V-714.0H3.0V-330.0H-27.0ZM244.0 -330.0V-674.0H273.0V-330.0H244.0ZM12.0 133.0C-2.0 21.0 -24.0 -92.0 -61.0 -171.0C-52.0 -175.0 -37.0 -181.0 -30.0 -185.0C4.0 -106.0 27.0 12.0 43.0 128.0L12.0 133.0Z"/></g>
<g fill="black" opacity=".8" transform="translate(700 400) scale(0.1 -0.1)"><path d="M0.0 0.0 2.0 -27.0H282.0V0.0H0.0ZM-15.0 -585.0V-614.0H258.0V-585.0H-15.0ZM-65.0 -210.0V-238.0H300.0V-210.0H-65.0ZM106.0 -15.0V-603.0H133.0V-15.0H106.0ZM-31.0 -329.0V-714.0L-1.0 -713.0V-329.0H-31.0ZM245.0 -326.0V-673.0H273.0V-326.0H245.0ZM10.0 131.0C-3.0 20.0 -25.0 -93.0 -63.0 -172.0C-54.0 -174.0 -40.0 -179.0 -34.0 -184.0C1.0 -107.0 26.0 11.0 41.0 127.0L10.0 131.0Z"/></g>
<g fill="red" transform="translate(800 400) scale(0.1 -0.1)"><path d="M0.0 0.0V-121.0H293.0V0.0H0.0ZM-25.0 -608.0V-726.0H255.0V-608.0H-25.0ZM-89.0 -228.0V-350.0H312.0V-228.0H-89.0ZM57.0 -46.0V-667.0H179.0V-46.0H57.0ZM-70.0 -400.0V-792.0H29.0V-400.0H-70.0ZM207.0 -399.0V-768.0H307.0V-399.0H207.0ZM-28.0 115.0C-42.0 10.0 -71.0 -103.0 -110.0 -174.0C-80.0 -188.0 -25.0 -220.0 -1.0 -239.0C41.0 -159.0 77.0 -30.0 97.0 90.0L-28.0 115.0Z"/></g>
<g fill="black" opacity=".8" transform="translate(800 400) scale(0.1 -0.1)"><path d="M0.0 0.0 8.0 -125.0H297.0V0.0H0.0ZM-17.0 -605.0V-729.0L254.0 -730.0V-606.0L-17.0 -605.0ZM-86.0 -233.0V-359.0H311.0V-233.0H-86.0ZM56.0 -44.0V-670.0H180.0V-44.0H56.0ZM-67.0 -398.0V-788.0H38.0V-398.0H-67.0ZM198.0 -396.0V-768.0H306.0V-396.0H198.0ZM-28.0 115.0C-41.0 10.0 -67.0 -104.0 -105.0 -175.0C-74.0 -190.0 -17.0 -224.0 8.0 -244.0C47.0 -161.0 82.0 -32.0 100.0 91.0L-28.0 115.0Z"/></g>
<g fill="red" transform="translate(900 400) scale(0.1 -0.1)"><path d="M0.0 0.0V-30.0H415.0V0.0H0.0ZM-44.0 -373.0V-402.0H402.0V-373.0H-44.0ZM-127.0 -165.0V-194.0H473.0V-165.0H-127.0ZM163.0 -10.0V-389.0H192.0V-10.0H163.0ZM-59.0 -232.0V-461.0H-29.0V-232.0H-59.0ZM386.0 -232.0V-448.0H415.0V-232.0H386.0ZM29.0 84.0C3.0 6.0 -40.0 -69.0 -91.0 -123.0C-83.0 -127.0 -71.0 -137.0 -66.0 -141.0C-17.0 -87.0 30.0 -4.0 59.0 77.0L29.0 84.0Z"/></g>
<g fill="black" opacity=".8" transform="translate(900 400) scale(0.1 -0.1)"><path d="M0.0 0.0V-29.0H419.0V0.0H0.0ZM-43.0 -374.0V-403.0L397.0 -402.0V-375.0L-43.0 -374.0ZM-126.0 -161.0V-190.0H480.0V-161.0H-126.0ZM166.0 -4.0V-389.0H193.0V-4.0H166.0ZM-55.0 -229.0V-460.0H-28.0V-229.0H-55.0ZM385.0 -231.0V-445.0H414.0V-231.0H385.0ZM31.0 85.0C4.0 11.0 -41.0 -65.0 -96.0 -121.0C-86.0 -124.0 -75.0 -131.0 -68.0 -137.0C-18.0 -81.0 32.0 1.0 62.0 78.0L31.0 85.0Z"/></g>
<g fill="red" transform="translate(1000 400) scale(0.1 -0.1)"><path d="M0.0 0.0V-102.0H374.0V0.0H0.0ZM-55.0 -352.0V-461.0H315.0V-352.0H-55.0ZM-153.0 -143.0V-251.0H410.0V-143.0H-153.0ZM66.0 -25.0V-421.0H195.0V-25.0H66.0ZM-115.0 -264.0V-498.0H11.0V-264.0H-115.0ZM248.0 -264.0V-489.0H374.0V-264.0H248.0ZM-24.0 58.0C-43.0 -6.0 -78.0 -72.0 -123.0 -114.0C-95.0 -127.0 -44.0 -155.0 -20.0 -173.0C24.0 -124.0 67.0 -46.0 91.0 32.0L-24.0 58.0Z"/></g>
<g fill="black" opacity=".8" transform="translate(1000 400) scale(0.1 -0.1)"><path d="M0.0 0.0 -2.0 -101.0H371.0V0.0H0.0ZM-48.0 -358.0V-463.0H309.0V-359.0L-48.0 -358.0ZM-151.0 -147.0V-253.0H406.0V-147.0H-151.0ZM71.0 -39.0V-408.0H195.0V-39.0H71.0ZM-114.0 -269.0V-500.0L5.0 -499.0V-269.0H-114.0ZM252.0 -272.0V-489.0H373.0V-272.0H252.0ZM-23.0 56.0C-42.0 -5.0 -78.0 -67.0 -125.0 -109.0C-98.0 -122.0 -50.0 -150.0 -27.0 -169.0C20.0 -118.0 62.0 -45.0 87.0 33.0L-23.0 56.0Z"/></g>
<g fill="red" transform="translate(1100 400) scale(0.1 -0.1)"><path d="M0.0 0.0V-29.0H318.0V0.0H0.0ZM-42.0 -387.0V-416.0H286.0V-387.0H-42.0ZM-87.0 -159.0V-189.0H347.0V-159.0H-87.0ZM110.0 -11.0V-404.0H140.0V-11.0H110.0ZM-57.0 -238.0V-490.0H-28.0V-238.0H-57.0ZM271.0 -238.0V-467.0H300.0V-238.0H271.0ZM39.0 100.0C17.0 37.0 -22.0 -46.0 -81.0 -109.0C-72.0 -113.0 -61.0 -120.0 -55.0 -127.0C6.0 -58.0 46.0 26.0 71.0 96.0L39.0 100.0Z"/></g>
<g fill="black" opacity=".8" transform="translate(1100 400) scale(0.1 -0.1)"><path d="M0.0 0.0V-27.0H307.0V0.0H0.0ZM-31.0 -393.0V-421.0H292.0V-394.0L-31.0 -393.0ZM-100.0 -163.0V-191.0H342.0V-163.0H-100.0ZM108.0 -15.0V-413.0H135.0V-15.0H108.0ZM-57.0 -246.0V-486.0L-25.0 -485.0V-246.0H-57.0ZM278.0 -241.0V-465.0H305.0V-241.0H278.0ZM33.0 102.0C10.0 25.0 -27.0 -56.0 -75.0 -116.0C-65.0 -118.0 -55.0 -124.0 -49.0 -130.0C-4.0 -70.0 38.0 16.0 62.0 96.0L33.0 102.0Z"/></g>
<g fill="red" transform="translate(1200 400) scale(0.1 -0.1)"><path d="M0.0 0.0V-98.0H275.0V0.0H0.0ZM-41.0 -365.0V-465.0H234.0V-365.0H-41.0ZM-104.0 -156.0V-258.0H288.0V-156.0H-104.0ZM39.0 -62.0V-431.0H150.0V-62.0H39.0ZM-98.0 -284.0V-523.0H3.0V-284.0H-98.0ZM184.0 -287.0V-490.0H286.0V-287.0H184.0ZM4.0 58.0C-16.0 7.0 -50.0 -54.0 -98.0 -101.0C-72.0 -113.0 -34.0 -141.0 -13.0 -162.0C42.0 -101.0 78.0 -32.0 108.0 40.0L4.0 58.0Z"/></g>
<g fill="black" opacity=".8" transform="translate(1200 400) scale(0.1 -0.1)"><path d="M0.0 0.0 1.0 -101.0H272.0V0.0H0.0ZM-30.0 -363.0V-466.0L236.0 -467.0V-364.0L-30.0 -363.0ZM-113.0 -151.0V-255.0H288.0V-151.0H-113.0ZM39.0 -55.0V-424.0H149.0V-55.0H39.0ZM-100.0 -276.0V-521.0L8.0 -522.0V-276.0H-100.0ZM181.0 -273.0V-488.0H285.0V-273.0H181.0ZM-14.0 68.0C-30.0 4.0 -59.0 -64.0 -99.0 -109.0C-73.0 -121.0 -28.0 -146.0 -4.0 -164.0C36.0 -109.0 70.0 -32.0 91.0 48.0L-14.0 68.0Z"/></g>
<g fill="red" transform="translate(1300 400) scale(0.1 -0.1)"><path d="M0.0 0.0V-29.0H301.0V0.0H0.0ZM401.0 -506.0V-536.0H670.0V-506.0H401.0ZM0.0 -151.0V-180.0H301.0V-151.0H0.0ZM383.0 -351.0V-594.0H412.0V-351.0H383.0ZM-17.0 -304.0V-333.0H306.0V-304.0H-17.0ZM660.0 -351.0V-585.0H690.0V-351.0H660.0ZM457.0 -14.0C437.0 -75.0 402.0 -155.0 351.0 -216.0C359.0 -219.0 369.0 -226.0 375.0 -232.0C428.0 -165.0 462.0 -84.0 487.0 -17.0L457.0 -14.0Z"/></g>
<g fill="black" opacity=".8" transform="translate(1300 400) scale(0.1 -0.1)"><path d="M0.0 0.0V-29.0H302.0V0.0H0.0ZM401.0 -506.0V-536.0H670.0V-505.0L401.0 -506.0ZM-0.0 -151.0V-180.0H302.0V-151.0H-0.0ZM383.0 -350.0V-594.0H412.0V-350.0H383.0ZM-17.0 -304.0V-333.0H305.0V-304.0H-17.0ZM660.0 -350.0V-585.0H690.0V-350.0H660.0ZM456.0 -14.0C437.0 -75.0 402.0 -155.0 350.0 -217.0C359.0 -219.0 368.0 -225.0 375.0 -232.0C428.0 -165.0 463.0 -84.0 487.0 -18.0L456.0 -14.0Z"/></g>
<g fill="red" transform="translate(1400 400) scale(0.1 -0.1)"><path d="M0.0 0.0V-108.0H280.0V0.0H0.0ZM375.0 -478.0V-581.0H619.0V-478.0H375.0ZM0.0 -150.0V-258.0H280.0V-150.0H0.0ZM325.0 -392.0V-635.0H419.0V-392.0H325.0ZM-69.0 -301.0V-412.0H247.0V-301.0H-69.0ZM572.0 -392.0V-604.0H667.0V-392.0H572.0ZM384.0 -63.0C370.0 -108.0 345.0 -162.0 309.0 -205.0C335.0 -216.0 372.0 -242.0 393.0 -262.0C435.0 -206.0 461.0 -145.0 483.0 -79.0L384.0 -63.0Z"/></g>
<g fill="black" opacity=".8" transform="translate(1400 400) scale(0.1 -0.1)"><path d="M0.0 0.0 1.0 -108.0H279.0V0.0H0.0ZM375.0 -477.0V-581.0L619.0 -582.0V-478.0L375.0 -477.0ZM-1.0 -150.0V-259.0H279.0V-150.0H-1.0ZM325.0 -392.0V-635.0H419.0V-392.0H325.0ZM-68.0 -301.0V-411.0H246.0V-301.0H-68.0ZM571.0 -393.0V-604.0H667.0V-393.0H571.0ZM385.0 -63.0C371.0 -109.0 345.0 -162.0 309.0 -204.0C334.0 -216.0 372.0 -242.0 393.0 -262.0C435.0 -206.0 462.0 -146.0 483.0 -79.0L385.0 -63.0Z"/></g>
<g fill="red" transform="translate(1500 400) scale(0.1 -0.1)"><path d="M0.0 0.0V-29.0H367.0V0.0H0.0ZM27.0 -653.0V-681.0L329.0 -656.0V-627.0L27.0 -653.0ZM52.0 -213.0V-242.0H318.0V-213.0H52.0ZM176.0 -339.0V-657.0H205.0V-339.0H176.0ZM27.0 -521.0V-662.0L56.0 -673.0V-521.0H27.0ZM316.0 -528.0V-710.0H345.0V-528.0H316.0ZM82.0 -266.0C60.0 -317.0 24.0 -366.0 -18.0 -403.0C-10.0 -407.0 5.0 -415.0 11.0 -418.0C50.0 -381.0 88.0 -327.0 114.0 -272.0L82.0 -266.0Z"/></g>
<g fill="black" opacity=".8" transform="translate(1500 400) scale(0.1 -0.1)"><path d="M0.0 0.0 1.0 -28.0H367.0V0.0H0.0ZM28.0 -653.0V-681.0L330.0 -656.0V-627.0L28.0 -653.0ZM51.0 -213.0V-243.0H319.0V-213.0H51.0ZM176.0 -338.0V-658.0H204.0V-338.0H176.0ZM27.0 -521.0V-662.0L56.0 -673.0V-521.0H27.0ZM316.0 -527.0V-710.0H345.0V-527.0H316.0ZM81.0 -267.0C60.0 -318.0 24.0 -367.0 -18.0 -404.0C-10.0 -406.0 5.0 -414.0 12.0 -418.0C50.0 -381.0 88.0 -327.0 113.0 -272.0L81.0 -267.0Z"/></g>
<g fill="red" transform="translate(1600 400) scale(0.1 -0.1)"><path d="M0.0 0.0V-90.0H401.0V0.0H0.0ZM22.0 -653.0V-755.0L352.0 -734.0V-638.0L22.0 -653.0ZM50.0 -232.0V-313.0H348.0V-232.0H50.0ZM162.0 -375.0V-677.0H275.0V-375.0H162.0ZM22.0 -573.0V-729.0L123.0 -703.0V-573.0H22.0ZM309.0 -575.0V-755.0H413.0V-575.0H309.0ZM42.0 -304.0C29.0 -344.0 7.0 -384.0 -23.0 -415.0C-1.0 -426.0 37.0 -449.0 55.0 -463.0C86.0 -429.0 116.0 -376.0 132.0 -326.0L42.0 -304.0Z"/></g>
<g fill="black" opacity=".8" transform="translate(1600 400) scale(0.1 -0.1)"><path d="M0.0 0.0 1.0 -90.0H400.0V0.0H0.0ZM22.0 -652.0V-755.0L352.0 -734.0V-638.0L22.0 -652.0ZM49.0 -232.0V-313.0H348.0V-232.0H49.0ZM162.0 -375.0V-677.0H275.0V-375.0H162.0ZM23.0 -573.0V-729.0L123.0 -702.0V-573.0H23.0ZM308.0 -575.0V-755.0H413.0V-575.0H308.0ZM42.0 -304.0C29.0 -345.0 7.0 -384.0 -23.0 -415.0C-1.0 -426.0 38.0 -450.0 56.0 -463.0C86.0 -429.0 117.0 -377.0 132.0 -325.0L42.0 -304.0Z"/></g>
<g fill="red" transform="translate(100 500) scale(0.1 -0.1)"><path d="M0.0 0.0V-29.0H230.0V0.0H0.0ZM-40.0 -659.0V-688.0H199.0V-659.0H-40.0ZM-75.0 -236.0V-266.0H244.0V-236.0H-75.0ZM74.0 -6.0V-672.0H104.0V-6.0H74.0ZM-277.0 24.0V-704.0H-247.0V24.0H-277.0ZM185.0 -349.0V-746.0H214.0V-349.0H185.0ZM26.0 131.0C5.0 26.0 -30.0 -79.0 -77.0 -153.0C-69.0 -156.0 -55.0 -163.0 -49.0 -166.0C-5.0 -93.0 31.0 17.0 56.0 125.0L26.0 131.0Z"/></g>
<g fill="black" opacity=".8" transform="translate(100 500) scale(0.1 -0.1)"><path d="M0.0 0.0 1.0 -28.0H230.0V0.0H0.0ZM-39.0 -659.0V-688.0H200.0V-659.0H-39.0ZM-76.0 -237.0V-267.0H245.0V-237.0H-76.0ZM74.0 -5.0V-673.0H103.0V-5.0H74.0ZM-277.0 24.0V-704.0H-247.0V24.0H-277.0ZM185.0 -348.0V-746.0H215.0V-348.0H185.0ZM25.0 131.0C5.0 25.0 -31.0 -79.0 -77.0 -154.0C-69.0 -156.0 -55.0 -162.0 -48.0 -166.0C-6.0 -94.0 32.0 17.0 55.0 124.0L25.0 131.0Z"/></g>
<g fill="red" transform="translate(200 500) scale(0.1 -0.1)"><path d="M0.0 0.0V-117.0H226.0V0.0H0.0ZM-63.0 -658.0V-775.0H176.0V-658.0H-63.0ZM-75.0 -224.0V-345.0H236.0V-224.0H-75.0ZM31.0 -70.0V-687.0H131.0V-70.0H31.0ZM-323.0 37.0V-769.0H-218.0V37.0H-323.0ZM147.0 -401.0V-811.0H225.0V-401.0H147.0ZM-33.0 103.0C-44.0 10.0 -64.0 -90.0 -93.0 -157.0C-71.0 -171.0 -31.0 -201.0 -14.0 -216.0C19.0 -142.0 47.0 -24.0 63.0 82.0L-33.0 103.0Z"/></g>
<g fill="black" opacity=".8" transform="translate(200 500) scale(0.1 -0.1)"><path d="M0.0 0.0 1.0 -117.0H225.0V0.0H0.0ZM-63.0 -657.0V-775.0H176.0V-657.0H-63.0ZM-76.0 -224.0V-346.0H235.0V-224.0H-76.0ZM31.0 -69.0V-687.0H131.0V-69.0H31.0ZM-323.0 37.0V-768.0L-218.0 -769.0V37.0H-323.0ZM145.0 -401.0V-811.0H226.0V-401.0H145.0ZM-33.0 102.0C-44.0 9.0 -63.0 -90.0 -93.0 -157.0C-71.0 -172.0 -31.0 -202.0 -13.0 -217.0C19.0 -142.0 47.0 -25.0 63.0 83.0L-33.0 102.0Z"/></g>
</svg>
