<?xml version="1.0" encoding="UTF-8"?>
<svg width="1700" height="1300" xmlns="http://www.w3.org/2000/svg">
<rect width="100%" height="100%" fill="white"/>
<g fill="green" transform="translate(100 100) scale(0.1 -0.1)"><path d="M-0.0 -0.0V-52.0H376.0V0.0ZM44.0 109.0V57.0H487.0V109.0ZM626.0 368.0 581.0 -521.0 639.0 -496.0 684.0 392.0ZM580.0 -72.0C538.0 -388.0 412.0 -633.0 212.0 -784.0C224.0 -793.0 244.0 -816.0 251.0 -827.0C454.0 -661.0 587.0 -412.0 635.0 -79.0Z"/></g>
<g fill="green" transform="translate(200 100) scale(0.1 -0.1)"><path d="M0.0 0.0V-226.0H456.0V0.0ZM21.0 96.0V-117.0H520.0V96.0ZM548.0 320.0 527.0 -632.0 781.0 -625.0 802.0 326.0ZM535.0 -159.0C516.0 -491.0 434.0 -749.0 241.0 -896.0C278.0 -945.0 339.0 -1051.0 358.0 -1103.0C600.0 -911.0 713.0 -589.0 755.0 -191.0Z"/></g>
<g fill="green" transform="translate(300 100) scale(0.1 -0.1)"><path d="M0.0 0.0V-26.0H-154.0V0.0ZM19.0 -58.0V-84.0H93.0V-58.0ZM431.0 106.0 383.0 -528.0 416.0 -502.0 464.0 132.0ZM91.0 -281.0C166.0 -418.0 234.0 -519.0 243.0 -584.0C248.0 -587.0 258.0 -599.0 261.0 -605.0C259.0 -531.0 198.0 -424.0 122.0 -277.0Z"/></g>
<g fill="green" transform="translate(400 100) scale(0.1 -0.1)"><path d="M0.0 0.0V-122.0H-78.0V0.0ZM2.0 -80.0V-191.0H140.0V-80.0ZM406.0 86.0 384.0 -591.0 521.0 -583.0 543.0 92.0ZM94.0 -349.0C172.0 -498.0 271.0 -619.0 288.0 -692.0C304.0 -717.0 330.0 -772.0 336.0 -798.0C361.0 -697.0 280.0 -530.0 207.0 -340.0Z"/></g>
<g fill="green" transform="translate(500 100) scale(0.1 -0.1)"><path d="M0.0 0.0V-68.0H270.0V0.0ZM-262.0 683.0V614.0H340.0V683.0ZM187.0 1246.0 159.0 200.0 232.0 216.0 259.0 1260.0ZM641.0 728.0C531.0 226.0 318.0 -187.0 -12.0 -449.0C6.0 -461.0 34.0 -488.0 46.0 -501.0C375.0 -222.0 593.0 193.0 713.0 715.0Z"/></g>
<g fill="green" transform="translate(600 100) scale(0.1 -0.1)"><path d="M0.0 0.0V-295.0H281.0V0.0ZM-308.0 726.0V430.0H362.0V726.0ZM63.0 1244.0 50.0 82.0 360.0 86.0 373.0 1248.0ZM541.0 703.0C474.0 170.0 309.0 -256.0 -17.0 -499.0C34.0 -566.0 118.0 -705.0 145.0 -775.0C532.0 -468.0 737.0 42.0 834.0 658.0Z"/></g>
<g fill="green" transform="translate(700 100) scale(0.1 -0.1)"><path d="M0.0 0.0V-32.0H525.0V0.0ZM214.0 -3.0V-33.0H345.0V-3.0ZM810.0 257.0 785.0 -398.0 819.0 -384.0 844.0 270.0ZM735.0 -94.0C697.0 -263.0 605.0 -401.0 488.0 -484.0C494.0 -488.0 506.0 -504.0 509.0 -511.0C630.0 -418.0 723.0 -279.0 767.0 -100.0Z"/></g>
<g fill="green" transform="translate(800 100) scale(0.1 -0.1)"><path d="M0.0 0.0V-146.0H632.0V0.0ZM230.0 -46.0V-166.0H380.0V-46.0ZM786.0 247.0 774.0 -454.0 942.0 -450.0 954.0 250.0ZM727.0 -136.0C717.0 -330.0 667.0 -478.0 550.0 -560.0C571.0 -588.0 605.0 -649.0 615.0 -679.0C761.0 -570.0 829.0 -387.0 852.0 -152.0Z"/></g>
<g fill="green" transform="translate(900 100) scale(0.1 -0.1)"><path d="M0.0 0.0V-43.0H643.0V0.0ZM-16.0 137.0V93.0H755.0V137.0ZM826.0 158.0 806.0 -455.0 852.0 -444.0 872.0 168.0ZM592.0 -266.0C445.0 -446.0 135.0 -540.0 -179.0 -584.0C-169.0 -594.0 -155.0 -615.0 -150.0 -626.0C160.0 -570.0 476.0 -474.0 634.0 -282.0Z"/></g>
<g fill="green" transform="translate(1000 100) scale(0.1 -0.1)"><path d="M0.0 0.0V-148.0H671.0V0.0ZM-44.0 158.0V16.0H782.0V158.0ZM750.0 140.0 740.0 -467.0 959.0 -464.0 969.0 142.0ZM582.0 -347.0C429.0 -491.0 125.0 -580.0 -164.0 -620.0C-141.0 -661.0 -108.0 -751.0 -97.0 -793.0C218.0 -729.0 544.0 -611.0 733.0 -423.0Z"/></g>
<g fill="green" transform="translate(1100 100) scale(0.1 -0.1)"><path d="M-0.0 -0.0V-46.0H583.0V0.0ZM-86.0 91.0V45.0H417.0V91.0ZM241.0 199.0 243.0 -268.0 288.0 -269.0 286.0 197.0ZM772.0 -334.0C681.0 -543.0 468.0 -687.0 243.0 -769.0C252.0 -778.0 269.0 -801.0 274.0 -811.0C501.0 -716.0 719.0 -568.0 819.0 -346.0Z"/></g>
<g fill="green" transform="translate(1200 100) scale(0.1 -0.1)"><path d="M0.0 0.0V-183.0H673.0V0.0ZM-98.0 72.0V-95.0H510.0V72.0ZM226.0 146.0V-371.0H418.0L417.0 145.0ZM784.0 -434.0C702.0 -651.0 507.0 -797.0 266.0 -873.0C296.0 -913.0 344.0 -998.0 361.0 -1039.0C629.0 -933.0 847.0 -750.0 958.0 -483.0Z"/></g>
<g fill="green" transform="translate(1300 100) scale(0.1 -0.1)"><path d="M-0.0 0.0V-55.0H624.0V0.0ZM112.0 -118.0V-172.0H423.0V-118.0ZM581.0 459.0 485.0 -526.0 553.0 -472.0 650.0 511.0ZM527.0 69.0C467.0 -304.0 343.0 -623.0 131.0 -824.0C144.0 -833.0 166.0 -855.0 174.0 -865.0C389.0 -649.0 516.0 -330.0 584.0 62.0Z"/></g>
<g fill="green" transform="translate(1400 100) scale(0.1 -0.1)"><path d="M0.0 0.0V-248.0H727.0V0.0ZM103.0 -178.0V-404.0H408.0V-178.0ZM455.0 414.0 410.0 -642.0 719.0 -628.0 763.0 427.0ZM443.0 -31.0C428.0 -422.0 360.0 -730.0 148.0 -908.0C193.0 -958.0 269.0 -1066.0 296.0 -1121.0C549.0 -897.0 649.0 -522.0 686.0 -63.0Z"/></g>
<g fill="green" transform="translate(1500 100) scale(0.1 -0.1)"><path d="M-0.0 0.0V-52.0H280.0V0.0ZM203.0 43.0V-8.0H840.0V43.0ZM549.0 299.0 453.0 -557.0 517.0 -503.0 613.0 351.0ZM614.0 1.0C572.0 -335.0 449.0 -589.0 235.0 -746.0C248.0 -756.0 267.0 -778.0 275.0 -788.0C491.0 -616.0 621.0 -358.0 668.0 -5.0Z"/></g>
<g fill="green" transform="translate(1600 100) scale(0.1 -0.1)"><path d="M0.0 0.0V-224.0H313.0V0.0ZM187.0 45.0V-180.0H849.0V45.0ZM429.0 239.0 385.0 -680.0 655.0 -666.0 700.0 253.0ZM536.0 -85.0C511.0 -424.0 431.0 -696.0 243.0 -853.0C282.0 -902.0 348.0 -1006.0 369.0 -1058.0C602.0 -857.0 713.0 -522.0 759.0 -121.0Z"/></g>
<g fill="green" transform="translate(100 200) scale(0.1 -0.1)"><path d="M0.0 0.0V-49.0H489.0V0.0ZM253.0 242.0V194.0H436.0V242.0ZM545.0 302.0 562.0 -507.0 607.0 -517.0 589.0 292.0ZM478.0 -40.0C459.0 -360.0 381.0 -623.0 222.0 -786.0C234.0 -794.0 253.0 -814.0 260.0 -825.0C422.0 -646.0 506.0 -382.0 530.0 -45.0Z"/></g>
<g fill="green" transform="translate(200 200) scale(0.1 -0.1)"><path d="M0.0 0.0V-231.0H627.0V0.0ZM257.0 229.0V14.0H483.0V229.0ZM548.0 211.0 556.0 -691.0 728.0 -693.0 721.0 208.0ZM449.0 -129.0C463.0 -499.0 434.0 -783.0 262.0 -945.0C298.0 -992.0 357.0 -1092.0 375.0 -1141.0C599.0 -932.0 658.0 -581.0 662.0 -145.0Z"/></g>
<g fill="green" transform="translate(300 200) scale(0.1 -0.1)"><path d="M-0.0 -0.0V-57.0H391.0V0.0ZM-71.0 120.0V63.0H422.0V120.0ZM587.0 235.0 521.0 -713.0 588.0 -677.0 654.0 270.0ZM651.0 23.0C580.0 -313.0 405.0 -578.0 167.0 -741.0C180.0 -751.0 201.0 -777.0 208.0 -789.0C450.0 -611.0 632.0 -342.0 709.0 13.0Z"/></g>
<g fill="green" transform="translate(400 200) scale(0.1 -0.1)"><path d="M0.0 0.0V-244.0H469.0V0.0ZM-78.0 118.0V-105.0H456.0V118.0ZM511.0 165.0 481.0 -874.0 759.0 -864.0 790.0 174.0ZM614.0 -51.0C567.0 -414.0 440.0 -703.0 202.0 -868.0C247.0 -919.0 321.0 -1030.0 347.0 -1085.0C622.0 -874.0 780.0 -524.0 854.0 -94.0Z"/></g>
<g fill="green" transform="translate(500 200) scale(0.1 -0.1)"><path d="M-0.0 -0.0V-52.0H401.0V0.0ZM98.0 108.0V55.0H500.0V108.0ZM659.0 324.0 628.0 -504.0 685.0 -487.0 716.0 340.0ZM654.0 -52.0C591.0 -397.0 441.0 -675.0 211.0 -850.0C223.0 -859.0 244.0 -880.0 251.0 -891.0C484.0 -704.0 639.0 -422.0 710.0 -60.0Z"/></g>
<g fill="green" transform="translate(600 200) scale(0.1 -0.1)"><path d="M0.0 0.0V-218.0H385.0V0.0ZM33.0 100.0V-107.0H429.0V100.0ZM519.0 284.0 505.0 -587.0 751.0 -582.0 766.0 288.0ZM517.0 -127.0C496.0 -464.0 409.0 -730.0 211.0 -879.0C246.0 -929.0 303.0 -1036.0 321.0 -1088.0C572.0 -892.0 692.0 -561.0 736.0 -158.0Z"/></g>
<g fill="green" transform="translate(700 200) scale(0.1 -0.1)"><path d="M-0.0 -0.0V-55.0H426.0V0.0ZM-5.0 122.0V67.0H547.0V122.0ZM653.0 360.0 604.0 -509.0 666.0 -482.0 715.0 386.0ZM556.0 -54.0C532.0 -376.0 427.0 -624.0 247.0 -777.0C260.0 -787.0 281.0 -811.0 288.0 -823.0C472.0 -653.0 585.0 -400.0 615.0 -60.0Z"/></g>
<g fill="green" transform="translate(800 200) scale(0.1 -0.1)"><path d="M0.0 0.0V-227.0H482.0V0.0ZM-47.0 99.0V-115.0H522.0V99.0ZM520.0 285.0 497.0 -628.0 764.0 -621.0 786.0 291.0ZM457.0 -161.0C466.0 -495.0 423.0 -751.0 258.0 -902.0C300.0 -949.0 369.0 -1055.0 393.0 -1107.0C604.0 -912.0 677.0 -589.0 691.0 -185.0Z"/></g>
<g fill="green" transform="translate(900 200) scale(0.1 -0.1)"><path d="M0.0 -0.0V-46.0H360.0V0.0ZM17.0 95.0V48.0H478.0V95.0ZM606.0 337.0 584.0 -499.0 632.0 -486.0 655.0 349.0ZM564.0 -55.0C519.0 -386.0 405.0 -653.0 208.0 -821.0C219.0 -828.0 237.0 -849.0 243.0 -859.0C444.0 -677.0 562.0 -407.0 613.0 -60.0Z"/></g>
<g fill="green" transform="translate(1000 200) scale(0.1 -0.1)"><path d="M0.0 0.0V-213.0H470.0V0.0ZM10.0 94.0V-111.0H551.0V94.0ZM582.0 297.0 572.0 -591.0 799.0 -587.0 809.0 300.0ZM544.0 -121.0C521.0 -466.0 445.0 -744.0 252.0 -902.0C290.0 -948.0 355.0 -1049.0 376.0 -1100.0C610.0 -899.0 716.0 -561.0 761.0 -154.0Z"/></g>
<g fill="green" transform="translate(1100 200) scale(0.1 -0.1)"><path d="M0.0 -0.0V-52.0H363.0V0.0ZM59.0 104.0V53.0H473.0V104.0ZM630.0 361.0 610.0 -492.0 664.0 -481.0 684.0 372.0ZM575.0 -53.0C538.0 -370.0 419.0 -610.0 222.0 -757.0C234.0 -766.0 255.0 -788.0 261.0 -799.0C460.0 -637.0 588.0 -393.0 629.0 -60.0Z"/></g>
<g fill="green" transform="translate(1200 200) scale(0.1 -0.1)"><path d="M0.0 0.0V-228.0H449.0V0.0ZM9.0 90.0V-132.0H523.0V90.0ZM541.0 293.0 532.0 -605.0 783.0 -601.0 792.0 295.0ZM552.0 -146.0C527.0 -502.0 432.0 -772.0 223.0 -925.0C257.0 -977.0 312.0 -1089.0 327.0 -1143.0C595.0 -942.0 723.0 -602.0 771.0 -179.0Z"/></g>
<g fill="red" transform="translate(100 300) scale(0.1 -0.1)"><path d="M0.0 0.0V-29.0H658.0V0.0ZM72.0 179.0V149.0H496.0V179.0ZM275.0 305.0V-17.0H304.0V305.0ZM606.0 263.0C460.0 12.0 231.0 -191.0 -39.0 -316.0C-31.0 -322.0 -18.0 -334.0 -14.0 -340.0C250.0 -207.0 479.0 -8.0 633.0 251.0Z"/></g>
<g fill="black" opacity=".8" transform="translate(100 300) scale(0.1 -0.1)"><path d="M0.0 0.0V-33.0H662.0V0.0ZM69.0 179.0V147.0H501.0V179.0ZM270.0 312.0 273.0 -22.0 304.0 -24.0 301.0 309.0ZM599.0 258.0C457.0 14.0 227.0 -191.0 -31.0 -317.0C-23.0 -323.0 -11.0 -335.0 -6.0 -342.0C251.0 -208.0 476.0 -8.0 629.0 246.0Z"/></g>
<g fill="red" transform="translate(200 300) scale(0.1 -0.1)"><path d="M0.0 0.0V-124.0H662.0V0.0ZM58.0 186.0V66.0H468.0V186.0ZM205.0 286.0V-79.0H346.0V286.0ZM515.0 238.0C408.0 -8.0 208.0 -192.0 -43.0 -293.0C-16.0 -321.0 31.0 -380.0 50.0 -410.0C306.0 -289.0 520.0 -82.0 648.0 192.0Z"/></g>
<g fill="black" opacity=".8" transform="translate(200 300) scale(0.1 -0.1)"><path d="M0.0 0.0V-129.0H661.0V0.0ZM60.0 190.0V63.0H464.0V190.0ZM205.0 283.0 207.0 -74.0 349.0 -75.0 348.0 281.0ZM518.0 240.0C409.0 -1.0 204.0 -187.0 -47.0 -287.0C-19.0 -317.0 26.0 -380.0 45.0 -413.0C302.0 -290.0 524.0 -81.0 656.0 191.0Z"/></g>
<g fill="red" transform="translate(300 300) scale(0.1 -0.1)"><path d="M0.0 0.0V-30.0H675.0V0.0ZM52.0 201.0V171.0H498.0V201.0ZM263.0 324.0V-16.0H293.0V324.0ZM599.0 293.0C455.0 50.0 225.0 -154.0 -25.0 -278.0C-18.0 -285.0 -8.0 -298.0 -3.0 -305.0C247.0 -173.0 474.0 27.0 627.0 280.0Z"/></g>
<g fill="black" opacity=".8" transform="translate(300 300) scale(0.1 -0.1)"><path d="M0.0 0.0V-35.0H672.0V0.0ZM53.0 201.0V167.0H497.0V201.0ZM259.0 329.0 261.0 -17.0 294.0 -18.0 293.0 327.0ZM596.0 293.0C457.0 48.0 229.0 -154.0 -27.0 -279.0C-18.0 -285.0 -5.0 -299.0 -1.0 -306.0C254.0 -173.0 479.0 26.0 628.0 281.0Z"/></g>
<g fill="red" transform="translate(400 300) scale(0.1 -0.1)"><path d="M0.0 0.0V-131.0H667.0V0.0ZM40.0 203.0V77.0H455.0V203.0ZM182.0 291.0V-87.0H328.0V291.0ZM518.0 270.0C408.0 17.0 205.0 -176.0 -50.0 -282.0C-21.0 -311.0 28.0 -375.0 48.0 -407.0C309.0 -280.0 528.0 -62.0 659.0 221.0Z"/></g>
<g fill="black" opacity=".8" transform="translate(400 300) scale(0.1 -0.1)"><path d="M0.0 0.0V-136.0H672.0V0.0ZM39.0 208.0V75.0H456.0V208.0ZM180.0 287.0 181.0 -84.0 332.0 -85.0 331.0 286.0ZM514.0 269.0C408.0 17.0 203.0 -173.0 -51.0 -277.0C-21.0 -308.0 25.0 -374.0 45.0 -407.0C306.0 -280.0 528.0 -64.0 658.0 221.0Z"/></g>
<g fill="red" transform="translate(500 300) scale(0.1 -0.1)"><path d="M0.0 0.0V-30.0H469.0V0.0ZM25.0 191.0V161.0H352.0V191.0ZM182.0 320.0V-15.0H211.0V320.0ZM428.0 271.0C325.0 61.0 154.0 -118.0 -37.0 -228.0C-30.0 -233.0 -19.0 -247.0 -15.0 -253.0C176.0 -135.0 347.0 42.0 456.0 261.0Z"/></g>
<g fill="black" opacity=".8" transform="translate(500 300) scale(0.1 -0.1)"><path d="M0.0 0.0V-28.0H480.0V0.0ZM28.0 185.0V158.0H344.0V185.0ZM173.0 321.0 176.0 -14.0 203.0 -16.0 200.0 319.0ZM425.0 281.0C328.0 63.0 170.0 -120.0 -21.0 -235.0C-14.0 -240.0 -3.0 -250.0 1.0 -256.0C192.0 -134.0 347.0 47.0 452.0 272.0Z"/></g>
<g fill="red" transform="translate(600 300) scale(0.1 -0.1)"><path d="M0.0 0.0V-129.0H515.0V0.0ZM36.0 190.0V70.0H335.0V190.0ZM126.0 279.0V-72.0H257.0V279.0ZM385.0 271.0C312.0 37.0 173.0 -153.0 -19.0 -261.0C8.0 -287.0 55.0 -342.0 72.0 -370.0C271.0 -240.0 424.0 -25.0 513.0 238.0Z"/></g>
<g fill="black" opacity=".8" transform="translate(600 300) scale(0.1 -0.1)"><path d="M0.0 0.0V-121.0H512.0V0.0ZM28.0 194.0V75.0H346.0V194.0ZM137.0 287.0 139.0 -82.0H260.0L258.0 286.0ZM384.0 265.0C311.0 31.0 169.0 -152.0 -30.0 -252.0C-4.0 -279.0 37.0 -335.0 55.0 -364.0C261.0 -241.0 418.0 -34.0 509.0 230.0Z"/></g>
<g fill="red" transform="translate(700 300) scale(0.1 -0.1)"><path d="M0.0 0.0V-29.0H407.0V0.0ZM26.0 196.0V167.0H287.0V196.0ZM146.0 323.0V-12.0H175.0V323.0ZM360.0 294.0C280.0 75.0 148.0 -112.0 -22.0 -229.0C-14.0 -234.0 -1.0 -245.0 4.0 -250.0C171.0 -126.0 304.0 58.0 388.0 286.0Z"/></g>
<g fill="black" opacity=".8" transform="translate(700 300) scale(0.1 -0.1)"><path d="M0.0 0.0V-30.0H413.0V0.0ZM28.0 193.0V164.0H290.0V193.0ZM146.0 323.0 147.0 -14.0 177.0 -15.0 175.0 321.0ZM361.0 287.0C281.0 71.0 145.0 -111.0 -28.0 -225.0C-20.0 -230.0 -8.0 -240.0 -5.0 -246.0C169.0 -125.0 303.0 55.0 390.0 279.0Z"/></g>
<g fill="red" transform="translate(800 300) scale(0.1 -0.1)"><path d="M0.0 0.0V-118.0H419.0V0.0ZM8.0 193.0V78.0H256.0V193.0ZM79.0 282.0V-92.0H197.0V282.0ZM298.0 255.0C238.0 29.0 118.0 -150.0 -58.0 -253.0C-34.0 -278.0 5.0 -332.0 20.0 -359.0C209.0 -234.0 343.0 -29.0 418.0 228.0Z"/></g>
<g fill="black" opacity=".8" transform="translate(800 300) scale(0.1 -0.1)"><path d="M0.0 0.0V-121.0H415.0V0.0ZM6.0 197.0V77.0H254.0V197.0ZM75.0 282.0 77.0 -87.0H199.0L198.0 281.0ZM292.0 263.0C238.0 29.0 124.0 -150.0 -53.0 -251.0C-29.0 -278.0 9.0 -335.0 25.0 -364.0C217.0 -239.0 346.0 -30.0 416.0 236.0Z"/></g>
<g fill="red" transform="translate(900 300) scale(0.1 -0.1)"><path d="M0.0 0.0V-29.0H592.0V0.0ZM47.0 175.0V145.0H422.0V175.0ZM229.0 305.0V-17.0H259.0V305.0ZM537.0 263.0C410.0 30.0 208.0 -166.0 -26.0 -288.0C-19.0 -294.0 -6.0 -304.0 -1.0 -310.0C228.0 -183.0 430.0 9.0 565.0 252.0Z"/></g>
<g fill="black" opacity=".8" transform="translate(900 300) scale(0.1 -0.1)"><path d="M0.0 0.0V-31.0H591.0V0.0ZM49.0 176.0V146.0H433.0V176.0ZM224.0 308.0 231.0 -15.0 260.0 -18.0 253.0 304.0ZM540.0 263.0C412.0 31.0 204.0 -164.0 -34.0 -285.0C-26.0 -290.0 -14.0 -302.0 -11.0 -308.0C226.0 -180.0 431.0 11.0 569.0 252.0Z"/></g>
<g fill="red" transform="translate(1000 300) scale(0.1 -0.1)"><path d="M0.0 0.0V-124.0H604.0V0.0ZM45.0 188.0V67.0H428.0V188.0ZM171.0 279.0V-72.0H312.0V279.0ZM483.0 249.0C379.0 8.0 185.0 -174.0 -59.0 -274.0C-31.0 -301.0 16.0 -360.0 35.0 -391.0C283.0 -271.0 492.0 -66.0 616.0 204.0Z"/></g>
<g fill="black" opacity=".8" transform="translate(1000 300) scale(0.1 -0.1)"><path d="M0.0 0.0V-125.0H604.0V0.0ZM42.0 186.0V63.0H419.0V186.0ZM175.0 279.0 179.0 -70.0 311.0 -71.0 308.0 277.0ZM483.0 248.0C381.0 9.0 190.0 -175.0 -48.0 -274.0C-22.0 -303.0 20.0 -364.0 38.0 -395.0C283.0 -274.0 490.0 -66.0 614.0 202.0Z"/></g>
<g fill="red" transform="translate(1100 300) scale(0.1 -0.1)"><path d="M0.0 0.0V-30.0H570.0V0.0ZM44.0 190.0V161.0H426.0V190.0ZM235.0 325.0V-15.0H264.0V325.0ZM514.0 263.0C395.0 49.0 199.0 -125.0 -30.0 -230.0C-21.0 -236.0 -9.0 -248.0 -4.0 -254.0C219.0 -141.0 417.0 30.0 543.0 253.0Z"/></g>
<g fill="black" opacity=".8" transform="translate(1100 300) scale(0.1 -0.1)"><path d="M0.0 0.0V-32.0H576.0V0.0ZM43.0 191.0V160.0H423.0V191.0ZM231.0 329.0 230.0 -15.0 261.0 -14.0 262.0 328.0ZM514.0 271.0C397.0 53.0 200.0 -124.0 -23.0 -233.0C-14.0 -239.0 -3.0 -251.0 1.0 -257.0C222.0 -141.0 417.0 34.0 543.0 260.0Z"/></g>
<g fill="red" transform="translate(1200 300) scale(0.1 -0.1)"><path d="M0.0 0.0V-128.0H599.0V0.0ZM37.0 197.0V72.0H406.0V197.0ZM168.0 294.0V-80.0H308.0V294.0ZM459.0 253.0C368.0 17.0 192.0 -160.0 -40.0 -258.0C-12.0 -285.0 35.0 -344.0 52.0 -374.0C293.0 -255.0 484.0 -53.0 594.0 213.0Z"/></g>
<g fill="black" opacity=".8" transform="translate(1200 300) scale(0.1 -0.1)"><path d="M0.0 0.0V-127.0H596.0V0.0ZM36.0 196.0V72.0H410.0V196.0ZM172.0 292.0V-81.0H311.0V291.0ZM463.0 247.0C369.0 16.0 189.0 -158.0 -39.0 -253.0C-13.0 -282.0 28.0 -342.0 46.0 -373.0C282.0 -256.0 478.0 -57.0 593.0 205.0Z"/></g>
<g fill="red" transform="translate(1300 300) scale(0.1 -0.1)"><path d="M0.0 0.0V-29.0H367.0V0.0ZM30.0 173.0V144.0H282.0V173.0ZM149.0 300.0V-22.0H178.0V300.0ZM353.0 271.0C287.0 75.0 153.0 -117.0 -38.0 -233.0C-31.0 -239.0 -23.0 -249.0 -19.0 -255.0C176.0 -136.0 310.0 59.0 383.0 262.0Z"/></g>
<g fill="black" opacity=".8" transform="translate(1300 300) scale(0.1 -0.1)"><path d="M0.0 0.0V-27.0H373.0V0.0ZM31.0 168.0V142.0H282.0V168.0ZM150.0 299.0 145.0 -29.0 172.0 -26.0 177.0 301.0ZM367.0 269.0C282.0 61.0 144.0 -118.0 -30.0 -231.0C-23.0 -235.0 -12.0 -244.0 -9.0 -250.0C166.0 -130.0 301.0 46.0 392.0 262.0Z"/></g>
<g fill="red" transform="translate(1400 300) scale(0.1 -0.1)"><path d="M0.0 0.0V-116.0H370.0V0.0ZM19.0 176.0V63.0H249.0V176.0ZM94.0 273.0V-87.0H204.0V273.0ZM291.0 242.0C249.0 56.0 147.0 -129.0 -39.0 -222.0C-20.0 -246.0 8.0 -294.0 20.0 -322.0C233.0 -210.0 348.0 -4.0 410.0 217.0Z"/></g>
<g fill="black" opacity=".8" transform="translate(1400 300) scale(0.1 -0.1)"><path d="M0.0 0.0V-111.0H369.0V0.0ZM18.0 177.0V69.0H250.0V177.0ZM94.0 276.0 93.0 -84.0 207.0 -83.0 209.0 276.0ZM300.0 259.0C242.0 44.0 127.0 -127.0 -43.0 -222.0C-20.0 -247.0 16.0 -299.0 31.0 -325.0C212.0 -209.0 342.0 -13.0 415.0 231.0Z"/></g>
<g fill="red" transform="translate(1500 300) scale(0.1 -0.1)"><path d="M0.0 0.0V-29.0H869.0V0.0ZM173.0 -181.0V-211.0H566.0V-181.0ZM360.0 -79.0V-344.0H389.0V-79.0ZM645.0 -154.0C489.0 -331.0 228.0 -472.0 -27.0 -554.0C-20.0 -560.0 -9.0 -574.0 -5.0 -580.0C246.0 -492.0 506.0 -355.0 670.0 -168.0Z"/></g>
<g fill="black" opacity=".8" transform="translate(1500 300) scale(0.1 -0.1)"><path d="M0.0 0.0V-30.0H860.0V0.0ZM168.0 -176.0V-204.0H573.0V-176.0ZM365.0 -85.0 352.0 -340.0 382.0 -332.0 396.0 -79.0ZM645.0 -150.0C490.0 -330.0 233.0 -472.0 -27.0 -555.0C-21.0 -561.0 -10.0 -574.0 -8.0 -580.0C251.0 -490.0 505.0 -351.0 670.0 -163.0Z"/></g>
<g fill="red" transform="translate(1600 300) scale(0.1 -0.1)"><path d="M0.0 0.0V-118.0H901.0V0.0ZM163.0 -192.0V-304.0H582.0V-192.0ZM320.0 -132.0V-389.0H461.0V-132.0ZM616.0 -209.0C480.0 -377.0 226.0 -497.0 -34.0 -557.0C-12.0 -585.0 23.0 -646.0 37.0 -676.0C303.0 -599.0 571.0 -464.0 733.0 -269.0Z"/></g>
<g fill="black" opacity=".8" transform="translate(1600 300) scale(0.1 -0.1)"><path d="M0.0 0.0V-115.0H908.0V0.0ZM169.0 -201.0V-306.0H574.0V-201.0ZM321.0 -135.0 315.0 -389.0 465.0 -387.0 471.0 -135.0ZM617.0 -210.0C479.0 -381.0 226.0 -501.0 -40.0 -558.0C-16.0 -586.0 22.0 -644.0 40.0 -673.0C304.0 -600.0 572.0 -468.0 735.0 -272.0Z"/></g>
<g fill="red" transform="translate(100 400) scale(0.1 -0.1)"><path d="M0.0 0.0V-29.0H883.0V0.0ZM81.0 166.0V136.0H638.0V166.0ZM354.0 289.0V-16.0H383.0V289.0ZM797.0 250.0C604.0 21.0 302.0 -165.0 -11.0 -276.0C-3.0 -282.0 8.0 -295.0 12.0 -302.0C319.0 -184.0 618.0 -4.0 822.0 234.0Z"/></g>
<g fill="black" opacity=".8" transform="translate(100 400) scale(0.1 -0.1)"><path d="M0.0 0.0V-34.0H884.0V0.0ZM82.0 169.0V136.0H644.0V169.0ZM359.0 294.0 365.0 -11.0 396.0 -14.0 391.0 289.0ZM782.0 251.0C595.0 20.0 291.0 -166.0 -20.0 -277.0C-12.0 -283.0 0.0 -298.0 4.0 -305.0C312.0 -186.0 611.0 -5.0 811.0 235.0Z"/></g>
<g fill="red" transform="translate(200 400) scale(0.1 -0.1)"><path d="M0.0 0.0V-124.0H919.0V0.0ZM92.0 179.0V57.0H655.0V179.0ZM331.0 269.0V-64.0H475.0V269.0ZM741.0 232.0C568.0 7.0 275.0 -173.0 -29.0 -273.0C-3.0 -300.0 42.0 -359.0 61.0 -390.0C360.0 -275.0 666.0 -82.0 863.0 165.0Z"/></g>
<g fill="black" opacity=".8" transform="translate(200 400) scale(0.1 -0.1)"><path d="M0.0 0.0V-131.0H916.0V0.0ZM94.0 179.0V52.0H648.0V179.0ZM315.0 262.0 318.0 -60.0 473.0 -61.0 471.0 260.0ZM740.0 234.0C578.0 2.0 286.0 -171.0 -28.0 -260.0C1.0 -290.0 48.0 -355.0 69.0 -388.0C379.0 -280.0 687.0 -93.0 877.0 167.0Z"/></g>
<g fill="red" transform="translate(300 400) scale(0.1 -0.1)"><path d="M0.0 0.0V-30.0H883.0V0.0ZM118.0 154.0V125.0H678.0V154.0ZM396.0 231.0V-16.0H425.0V231.0ZM764.0 205.0C585.0 -5.0 292.0 -164.0 -15.0 -255.0C-7.0 -262.0 4.0 -275.0 9.0 -282.0C309.0 -184.0 601.0 -30.0 790.0 190.0Z"/></g>
<g fill="black" opacity=".8" transform="translate(300 400) scale(0.1 -0.1)"><path d="M0.0 0.0V-31.0H894.0V0.0ZM135.0 143.0V113.0H679.0V143.0ZM398.0 220.0 406.0 -15.0 435.0 -19.0 427.0 215.0ZM761.0 186.0C580.0 -11.0 280.0 -162.0 -17.0 -250.0C-9.0 -257.0 1.0 -270.0 5.0 -277.0C299.0 -181.0 594.0 -34.0 788.0 170.0Z"/></g>
<g fill="red" transform="translate(400 400) scale(0.1 -0.1)"><path d="M0.0 0.0V-114.0H901.0V0.0ZM149.0 140.0V29.0H645.0V140.0ZM338.0 166.0V-50.0H480.0V166.0ZM701.0 144.0C542.0 -33.0 252.0 -161.0 -32.0 -224.0C-14.0 -253.0 15.0 -314.0 25.0 -343.0C320.0 -263.0 624.0 -121.0 808.0 81.0Z"/></g>
<g fill="black" opacity=".8" transform="translate(400 400) scale(0.1 -0.1)"><path d="M0.0 0.0V-113.0H896.0V0.0ZM132.0 148.0V39.0H647.0V148.0ZM328.0 185.0 333.0 -52.0 473.0 -54.0 470.0 182.0ZM698.0 161.0C541.0 -29.0 255.0 -163.0 -38.0 -230.0C-14.0 -258.0 25.0 -316.0 43.0 -345.0C333.0 -263.0 632.0 -118.0 816.0 97.0Z"/></g>
<g fill="red" transform="translate(500 400) scale(0.1 -0.1)"><path d="M0.0 0.0V-30.0H719.0V0.0ZM49.0 140.0V111.0H530.0V140.0ZM281.0 226.0V-17.0H311.0V226.0ZM622.0 206.0C468.0 15.0 220.0 -142.0 -34.0 -235.0C-26.0 -241.0 -16.0 -254.0 -11.0 -260.0C238.0 -160.0 485.0 -8.0 648.0 192.0Z"/></g>
<g fill="black" opacity=".8" transform="translate(500 400) scale(0.1 -0.1)"><path d="M0.0 0.0V-29.0H719.0V0.0ZM49.0 133.0V105.0H532.0V133.0ZM281.0 220.0 277.0 -14.0 306.0 -12.0 310.0 221.0ZM631.0 194.0C477.0 8.0 222.0 -140.0 -36.0 -228.0C-28.0 -234.0 -18.0 -246.0 -15.0 -252.0C241.0 -158.0 492.0 -13.0 657.0 181.0Z"/></g>
<g fill="red" transform="translate(600 400) scale(0.1 -0.1)"><path d="M0.0 0.0V-109.0H707.0V0.0ZM46.0 135.0V32.0H497.0V135.0ZM206.0 185.0V-49.0H342.0V185.0ZM566.0 164.0C440.0 -9.0 200.0 -127.0 -59.0 -188.0C-33.0 -214.0 8.0 -269.0 26.0 -298.0C282.0 -223.0 535.0 -91.0 687.0 109.0Z"/></g>
<g fill="black" opacity=".8" transform="translate(600 400) scale(0.1 -0.1)"><path d="M0.0 0.0V-104.0H711.0V0.0ZM44.0 139.0V39.0H495.0V139.0ZM210.0 192.0 209.0 -52.0H343.0L345.0 192.0ZM564.0 174.0C435.0 -3.0 198.0 -133.0 -54.0 -200.0C-29.0 -224.0 9.0 -277.0 27.0 -303.0C274.0 -222.0 524.0 -81.0 677.0 120.0Z"/></g>
<g fill="red" transform="translate(700 400) scale(0.1 -0.1)"><path d="M0.0 0.0V-30.0H521.0V0.0ZM40.0 190.0V161.0H389.0V190.0ZM214.0 325.0V-15.0H243.0V325.0ZM470.0 263.0C360.0 49.0 182.0 -125.0 -27.0 -230.0C-19.0 -236.0 -8.0 -248.0 -3.0 -254.0C201.0 -141.0 381.0 30.0 495.0 253.0Z"/></g>
<g fill="black" opacity=".8" transform="translate(700 400) scale(0.1 -0.1)"><path d="M0.0 0.0V-30.0H528.0V0.0ZM40.0 189.0V160.0H387.0V189.0ZM209.0 328.0 210.0 -14.0 240.0 -15.0 239.0 327.0ZM469.0 268.0C362.0 53.0 184.0 -124.0 -24.0 -232.0C-16.0 -238.0 -4.0 -249.0 -1.0 -256.0C206.0 -139.0 383.0 35.0 497.0 258.0Z"/></g>
<g fill="red" transform="translate(800 400) scale(0.1 -0.1)"><path d="M0.0 0.0V-128.0H557.0V0.0ZM36.0 197.0V72.0H379.0V197.0ZM156.0 294.0V-80.0H286.0V294.0ZM427.0 253.0C342.0 17.0 179.0 -160.0 -37.0 -258.0C-11.0 -285.0 32.0 -344.0 49.0 -374.0C272.0 -255.0 450.0 -53.0 552.0 213.0Z"/></g>
<g fill="black" opacity=".8" transform="translate(800 400) scale(0.1 -0.1)"><path d="M0.0 0.0V-124.0H553.0V0.0ZM34.0 196.0V74.0H382.0V196.0ZM159.0 293.0 160.0 -81.0H291.0V292.0ZM425.0 246.0C340.0 15.0 177.0 -160.0 -38.0 -256.0C-12.0 -284.0 28.0 -343.0 45.0 -373.0C269.0 -255.0 448.0 -54.0 551.0 207.0Z"/></g>
<g fill="red" transform="translate(900 400) scale(0.1 -0.1)"><path d="M0.0 0.0V-30.0H728.0V0.0ZM78.0 137.0V108.0H577.0V137.0ZM314.0 222.0V-12.0H344.0V222.0ZM657.0 196.0C503.0 -10.0 240.0 -164.0 -35.0 -253.0C-29.0 -260.0 -19.0 -273.0 -15.0 -279.0C258.0 -183.0 520.0 -33.0 684.0 182.0Z"/></g>
<g fill="black" opacity=".8" transform="translate(900 400) scale(0.1 -0.1)"><path d="M0.0 0.0V-32.0H734.0V0.0ZM73.0 141.0V110.0H571.0V141.0ZM320.0 225.0 310.0 -18.0 344.0 -12.0 353.0 228.0ZM661.0 197.0C501.0 -3.0 233.0 -160.0 -40.0 -254.0C-32.0 -261.0 -20.0 -274.0 -16.0 -280.0C254.0 -180.0 518.0 -25.0 690.0 182.0Z"/></g>
<g fill="red" transform="translate(1000 400) scale(0.1 -0.1)"><path d="M0.0 0.0V-113.0H676.0V0.0ZM36.0 151.0V42.0H464.0V151.0ZM197.0 203.0V-54.0H338.0V203.0ZM535.0 175.0C411.0 -7.0 175.0 -133.0 -83.0 -198.0C-58.0 -224.0 -18.0 -281.0 -2.0 -310.0C257.0 -229.0 506.0 -88.0 655.0 121.0Z"/></g>
<g fill="black" opacity=".8" transform="translate(1000 400) scale(0.1 -0.1)"><path d="M0.0 0.0V-108.0H670.0V0.0ZM42.0 146.0V42.0H469.0V146.0ZM194.0 196.0 190.0 -48.0 337.0 -47.0 342.0 196.0ZM536.0 170.0C411.0 -7.0 174.0 -135.0 -77.0 -201.0C-53.0 -227.0 -16.0 -283.0 2.0 -311.0C254.0 -229.0 505.0 -86.0 655.0 118.0Z"/></g>
<g fill="red" transform="translate(1100 400) scale(0.1 -0.1)"><path d="M0.0 0.0V-30.0H604.0V0.0ZM36.0 102.0V72.0H438.0V102.0ZM239.0 158.0V-14.0H268.0V158.0ZM530.0 147.0C406.0 1.0 187.0 -107.0 -32.0 -168.0C-24.0 -175.0 -13.0 -186.0 -9.0 -193.0C205.0 -126.0 426.0 -20.0 556.0 134.0Z"/></g>
<g fill="black" opacity=".8" transform="translate(1100 400) scale(0.1 -0.1)"><path d="M0.0 0.0V-25.0H603.0V0.0ZM49.0 100.0V75.0H448.0V100.0ZM247.0 164.0 240.0 -13.0 266.0 -10.0 273.0 166.0ZM528.0 150.0C399.0 4.0 181.0 -108.0 -36.0 -173.0C-29.0 -178.0 -21.0 -188.0 -18.0 -194.0C197.0 -123.0 412.0 -14.0 551.0 139.0Z"/></g>
<g fill="red" transform="translate(1200 400) scale(0.1 -0.1)"><path d="M0.0 0.0V-82.0H568.0V0.0ZM40.0 101.0V22.0H396.0V101.0ZM154.0 144.0V-41.0H277.0V144.0ZM446.0 128.0C334.0 -3.0 129.0 -104.0 -74.0 -159.0C-54.0 -178.0 -22.0 -220.0 -8.0 -241.0C193.0 -174.0 407.0 -63.0 536.0 87.0Z"/></g>
<g fill="black" opacity=".8" transform="translate(1200 400) scale(0.1 -0.1)"><path d="M0.0 0.0V-84.0H569.0V0.0ZM27.0 101.0V20.0H387.0V101.0ZM155.0 136.0 153.0 -41.0 270.0 -40.0 273.0 136.0ZM452.0 127.0C344.0 -9.0 142.0 -104.0 -66.0 -151.0C-47.0 -172.0 -20.0 -216.0 -6.0 -238.0C201.0 -178.0 414.0 -73.0 542.0 83.0Z"/></g>
<g fill="red" transform="translate(1300 400) scale(0.1 -0.1)"><path d="M0.0 0.0V-29.0H349.0V0.0ZM-84.0 173.0V143.0H521.0V173.0ZM172.0 100.0V-152.0H201.0V100.0ZM376.0 -15.0C281.0 -167.0 86.0 -266.0 -119.0 -321.0C-112.0 -328.0 -101.0 -341.0 -98.0 -348.0C105.0 -286.0 303.0 -186.0 404.0 -25.0Z"/></g>
<g fill="black" opacity=".8" transform="translate(1300 400) scale(0.1 -0.1)"><path d="M0.0 0.0V-31.0H346.0V0.0ZM-81.0 176.0V144.0H517.0V176.0ZM176.0 99.0 170.0 -152.0 202.0 -149.0 208.0 101.0ZM376.0 -7.0C282.0 -166.0 87.0 -266.0 -122.0 -322.0C-114.0 -329.0 -104.0 -343.0 -101.0 -350.0C107.0 -285.0 305.0 -184.0 406.0 -16.0Z"/></g>
<g fill="red" transform="translate(1400 400) scale(0.1 -0.1)"><path d="M0.0 0.0V-103.0H316.0V0.0ZM-115.0 206.0V95.0H502.0V206.0ZM101.0 49.0V-208.0H226.0V49.0ZM332.0 -53.0C235.0 -198.0 46.0 -304.0 -149.0 -361.0C-130.0 -389.0 -100.0 -452.0 -90.0 -481.0C123.0 -406.0 328.0 -276.0 446.0 -100.0Z"/></g>
<g fill="black" opacity=".8" transform="translate(1400 400) scale(0.1 -0.1)"><path d="M0.0 0.0V-104.0H319.0V0.0ZM-117.0 204.0V94.0H505.0V204.0ZM98.0 47.0 96.0 -206.0 226.0 -205.0 228.0 46.0ZM329.0 -58.0C235.0 -205.0 46.0 -307.0 -152.0 -360.0C-131.0 -388.0 -98.0 -447.0 -84.0 -475.0C125.0 -404.0 329.0 -281.0 446.0 -105.0Z"/></g>
<g fill="red" transform="translate(1500 400) scale(0.1 -0.1)"><path d="M0.0 0.0V-29.0H614.0V0.0ZM3.0 331.0V302.0H609.0V331.0ZM174.0 430.0V210.0H202.0V430.0ZM550.0 227.0C418.0 26.0 196.0 -129.0 -45.0 -221.0C-37.0 -228.0 -26.0 -240.0 -21.0 -247.0C215.0 -147.0 437.0 6.0 577.0 215.0Z"/></g>
<g fill="black" opacity=".8" transform="translate(1500 400) scale(0.1 -0.1)"><path d="M0.0 0.0V-31.0H617.0V0.0ZM0.0 327.0V297.0H613.0V327.0ZM163.0 438.0 182.0 208.0 208.0 198.0 189.0 427.0ZM549.0 224.0C421.0 22.0 199.0 -129.0 -42.0 -218.0C-33.0 -225.0 -23.0 -238.0 -18.0 -245.0C220.0 -145.0 440.0 3.0 578.0 213.0Z"/></g>
<g fill="red" transform="translate(1600 400) scale(0.1 -0.1)"><path d="M0.0 0.0V-114.0H635.0V0.0ZM2.0 346.0V235.0H624.0V346.0ZM123.0 406.0V167.0H254.0V406.0ZM498.0 194.0C394.0 0.0 191.0 -136.0 -46.0 -209.0C-22.0 -235.0 17.0 -292.0 33.0 -321.0C277.0 -231.0 494.0 -75.0 620.0 148.0Z"/></g>
<g fill="black" opacity=".8" transform="translate(1600 400) scale(0.1 -0.1)"><path d="M0.0 0.0V-113.0H635.0V0.0ZM2.0 352.0V234.0H623.0V352.0ZM126.0 412.0 135.0 168.0 253.0 165.0 244.0 409.0ZM498.0 196.0C390.0 3.0 183.0 -135.0 -50.0 -210.0C-24.0 -236.0 17.0 -292.0 35.0 -321.0C271.0 -230.0 491.0 -73.0 623.0 148.0Z"/></g>
<g fill="red" transform="translate(100 500) scale(0.1 -0.1)"><path d="M0.0 0.0V-29.0H283.0V0.0ZM-117.0 316.0V287.0H338.0V316.0ZM69.0 622.0V296.0H99.0V622.0ZM305.0 575.0C214.0 368.0 58.0 201.0 -130.0 97.0C-122.0 91.0 -110.0 79.0 -105.0 74.0C80.0 184.0 237.0 351.0 334.0 566.0Z"/></g>
<g fill="black" opacity=".8" transform="translate(100 500) scale(0.1 -0.1)"><path d="M0.0 0.0V-26.0H269.0V0.0ZM-121.0 325.0V300.0H349.0V325.0ZM79.0 614.0 59.0 299.0 88.0 310.0 108.0 624.0ZM312.0 580.0C215.0 370.0 61.0 200.0 -132.0 94.0C-124.0 89.0 -114.0 80.0 -110.0 75.0C81.0 188.0 232.0 355.0 336.0 572.0Z"/></g>
<g fill="red" transform="translate(200 500) scale(0.1 -0.1)"><path d="M0.0 0.0V-105.0H230.0V0.0ZM-146.0 373.0V247.0H341.0V373.0ZM-19.0 619.0V286.0H110.0V619.0ZM245.0 595.0C167.0 381.0 19.0 208.0 -167.0 108.0C-144.0 82.0 -106.0 24.0 -92.0 -4.0C108.0 117.0 270.0 317.0 364.0 560.0Z"/></g>
<g fill="black" opacity=".8" transform="translate(200 500) scale(0.1 -0.1)"><path d="M0.0 0.0V-98.0H240.0V0.0ZM-143.0 356.0V246.0H329.0V356.0ZM-17.0 615.0 -25.0 285.0 112.0 288.0 120.0 616.0ZM252.0 594.0C170.0 375.0 22.0 201.0 -167.0 102.0C-144.0 78.0 -108.0 26.0 -92.0 -0.0C104.0 118.0 264.0 315.0 363.0 559.0Z"/></g>
<g fill="red" transform="translate(300 500) scale(0.1 -0.1)"><path d="M0.0 0.0V-30.0H565.0V0.0ZM44.0 190.0V161.0H422.0V190.0ZM232.0 325.0V-15.0H261.0V325.0ZM509.0 263.0C391.0 49.0 196.0 -125.0 -29.0 -230.0C-20.0 -236.0 -8.0 -248.0 -3.0 -254.0C218.0 -141.0 413.0 30.0 538.0 253.0Z"/></g>
<g fill="black" opacity=".8" transform="translate(300 500) scale(0.1 -0.1)"><path d="M0.0 0.0V-32.0H569.0V0.0ZM45.0 191.0V160.0H420.0V191.0ZM229.0 329.0 227.0 -15.0 258.0 -14.0 260.0 329.0ZM507.0 271.0C392.0 53.0 198.0 -125.0 -22.0 -233.0C-14.0 -239.0 -2.0 -251.0 2.0 -258.0C221.0 -141.0 413.0 34.0 537.0 260.0Z"/></g>
<g fill="red" transform="translate(400 500) scale(0.1 -0.1)"><path d="M0.0 0.0V-128.0H586.0V0.0ZM38.0 197.0V72.0H399.0V197.0ZM163.0 294.0V-80.0H300.0V294.0ZM448.0 253.0C359.0 17.0 187.0 -160.0 -40.0 -258.0C-13.0 -285.0 33.0 -344.0 50.0 -374.0C285.0 -255.0 472.0 -53.0 580.0 213.0Z"/></g>
<g fill="black" opacity=".8" transform="translate(400 500) scale(0.1 -0.1)"><path d="M0.0 0.0V-127.0H584.0V0.0ZM36.0 196.0V72.0H402.0V196.0ZM165.0 291.0V-81.0H304.0V291.0ZM451.0 247.0C360.0 16.0 184.0 -158.0 -40.0 -253.0C-14.0 -282.0 27.0 -342.0 44.0 -372.0C277.0 -255.0 469.0 -56.0 581.0 205.0Z"/></g>
<g fill="red" transform="translate(500 500) scale(0.1 -0.1)"><path d="M0.0 0.0V-30.0H610.0V0.0ZM51.0 132.0V102.0H435.0V132.0ZM225.0 208.0V-21.0H254.0V208.0ZM524.0 198.0C396.0 32.0 190.0 -108.0 -21.0 -194.0C-12.0 -199.0 -1.0 -211.0 4.0 -217.0C209.0 -127.0 416.0 11.0 550.0 186.0Z"/></g>
<g fill="black" opacity=".8" transform="translate(500 500) scale(0.1 -0.1)"><path d="M0.0 0.0V-28.0H604.0V0.0ZM44.0 132.0V105.0H435.0V132.0ZM226.0 210.0 225.0 -30.0 252.0 -29.0 254.0 209.0ZM533.0 199.0C408.0 27.0 197.0 -109.0 -21.0 -189.0C-14.0 -195.0 -4.0 -206.0 -1.0 -212.0C216.0 -125.0 424.0 8.0 558.0 187.0Z"/></g>
<g fill="red" transform="translate(600 500) scale(0.1 -0.1)"><path d="M0.0 0.0V-108.0H599.0V0.0ZM29.0 138.0V33.0H412.0V138.0ZM153.0 168.0V-89.0H291.0V168.0ZM484.0 173.0C381.0 -5.0 179.0 -131.0 -50.0 -196.0C-26.0 -223.0 13.0 -280.0 28.0 -308.0C264.0 -225.0 480.0 -81.0 605.0 126.0Z"/></g>
<g fill="black" opacity=".8" transform="translate(600 500) scale(0.1 -0.1)"><path d="M0.0 0.0V-104.0H607.0V0.0ZM33.0 134.0V33.0H413.0V134.0ZM159.0 170.0V-84.0H284.0V169.0ZM485.0 174.0C378.0 -6.0 178.0 -137.0 -45.0 -206.0C-23.0 -230.0 11.0 -282.0 27.0 -307.0C252.0 -222.0 465.0 -76.0 592.0 129.0Z"/></g>
<g fill="red" transform="translate(700 500) scale(0.1 -0.1)"><path d="M0.0 0.0V-31.0H583.0V0.0ZM35.0 109.0V79.0H411.0V109.0ZM237.0 180.0V-19.0H267.0V180.0ZM515.0 155.0C390.0 16.0 182.0 -97.0 -19.0 -165.0C-11.0 -171.0 0.0 -182.0 5.0 -188.0C200.0 -116.0 410.0 -3.0 540.0 142.0Z"/></g>
<g fill="black" opacity=".8" transform="translate(700 500) scale(0.1 -0.1)"><path d="M0.0 0.0V-24.0H578.0V0.0ZM37.0 107.0V84.0H412.0V107.0ZM242.0 184.0 243.0 -21.0H267.0L266.0 182.0ZM521.0 160.0C398.0 14.0 191.0 -100.0 -17.0 -166.0C-11.0 -171.0 -3.0 -180.0 -0.0 -186.0C206.0 -114.0 410.0 -4.0 542.0 149.0Z"/></g>
<g fill="red" transform="translate(800 500) scale(0.1 -0.1)"><path d="M0.0 0.0V-92.0H581.0V0.0ZM37.0 115.0V26.0H402.0V115.0ZM181.0 152.0V-53.0H322.0V152.0ZM478.0 146.0C380.0 -9.0 180.0 -112.0 -40.0 -166.0C-19.0 -189.0 16.0 -240.0 30.0 -266.0C255.0 -198.0 468.0 -79.0 588.0 104.0Z"/></g>
<g fill="black" opacity=".8" transform="translate(800 500) scale(0.1 -0.1)"><path d="M0.0 0.0V-89.0H588.0V0.0ZM31.0 111.0V25.0H404.0V111.0ZM192.0 156.0 193.0 -57.0H305.0L304.0 155.0ZM490.0 143.0C380.0 -9.0 179.0 -117.0 -34.0 -172.0C-15.0 -194.0 14.0 -239.0 28.0 -262.0C240.0 -193.0 452.0 -74.0 581.0 97.0Z"/></g>
<g fill="red" transform="translate(900 500) scale(0.1 -0.1)"><path d="M0.0 0.0V-29.0H451.0V0.0ZM31.0 180.0V150.0H336.0V180.0ZM178.0 306.0V-20.0H208.0V306.0ZM412.0 259.0C322.0 53.0 172.0 -115.0 -12.0 -219.0C-4.0 -225.0 8.0 -236.0 13.0 -242.0C193.0 -131.0 346.0 36.0 440.0 250.0Z"/></g>
<g fill="black" opacity=".8" transform="translate(900 500) scale(0.1 -0.1)"><path d="M0.0 0.0V-29.0H451.0V0.0ZM36.0 174.0V147.0H340.0V174.0ZM176.0 300.0 181.0 -20.0 209.0 -23.0 204.0 297.0ZM414.0 255.0C325.0 51.0 173.0 -115.0 -11.0 -217.0C-3.0 -223.0 8.0 -233.0 11.0 -239.0C194.0 -129.0 346.0 35.0 441.0 246.0Z"/></g>
<g fill="red" transform="translate(1000 500) scale(0.1 -0.1)"><path d="M0.0 0.0V-126.0H469.0V0.0ZM26.0 175.0V59.0H337.0V175.0ZM120.0 246.0V-87.0H249.0V246.0ZM380.0 224.0C302.0 10.0 154.0 -163.0 -32.0 -263.0C-9.0 -289.0 29.0 -347.0 43.0 -375.0C243.0 -254.0 405.0 -54.0 499.0 189.0Z"/></g>
<g fill="black" opacity=".8" transform="translate(1000 500) scale(0.1 -0.1)"><path d="M0.0 0.0V-119.0H472.0V0.0ZM19.0 179.0V60.0H335.0V179.0ZM121.0 258.0 124.0 -89.0H247.0L244.0 256.0ZM374.0 231.0C303.0 4.0 161.0 -167.0 -34.0 -261.0C-10.0 -288.0 26.0 -345.0 41.0 -374.0C249.0 -257.0 406.0 -59.0 494.0 197.0Z"/></g>
<g fill="red" transform="translate(1100 500) scale(0.1 -0.1)"><path d="M0.0 0.0V-29.0H636.0V0.0ZM57.0 175.0V145.0H473.0V175.0ZM256.0 305.0V-17.0H285.0V305.0ZM573.0 263.0C441.0 22.0 230.0 -170.0 -23.0 -288.0C-15.0 -294.0 -3.0 -305.0 2.0 -310.0C249.0 -187.0 461.0 1.0 600.0 252.0Z"/></g>
<g fill="black" opacity=".8" transform="translate(1100 500) scale(0.1 -0.1)"><path d="M0.0 0.0V-31.0H648.0V0.0ZM62.0 175.0V145.0H477.0V175.0ZM252.0 302.0 257.0 -22.0 286.0 -24.0 282.0 298.0ZM582.0 254.0C443.0 25.0 216.0 -165.0 -36.0 -281.0C-27.0 -286.0 -16.0 -299.0 -12.0 -305.0C238.0 -182.0 461.0 4.0 611.0 242.0Z"/></g>
<g fill="red" transform="translate(1200 500) scale(0.1 -0.1)"><path d="M0.0 0.0V-123.0H676.0V0.0ZM63.0 186.0V65.0H469.0V186.0ZM202.0 267.0V-89.0H343.0V267.0ZM534.0 232.0C417.0 -5.0 200.0 -177.0 -68.0 -270.0C-39.0 -296.0 9.0 -351.0 29.0 -381.0C294.0 -271.0 525.0 -82.0 664.0 183.0Z"/></g>
<g fill="black" opacity=".8" transform="translate(1200 500) scale(0.1 -0.1)"><path d="M0.0 0.0V-126.0H665.0V0.0ZM59.0 185.0V61.0H466.0V185.0ZM203.0 271.0 206.0 -79.0H343.0L341.0 269.0ZM528.0 236.0C415.0 2.0 204.0 -177.0 -49.0 -272.0C-22.0 -302.0 21.0 -363.0 39.0 -395.0C297.0 -278.0 524.0 -77.0 660.0 187.0Z"/></g>
<g fill="red" transform="translate(1300 500) scale(0.1 -0.1)"><path d="M0.0 0.0V-30.0H637.0V0.0ZM44.0 182.0V153.0H473.0V182.0ZM249.0 314.0V-26.0H278.0V314.0ZM588.0 275.0C449.0 48.0 219.0 -137.0 -28.0 -247.0C-21.0 -254.0 -11.0 -268.0 -7.0 -275.0C240.0 -155.0 468.0 25.0 615.0 262.0Z"/></g>
<g fill="black" opacity=".8" transform="translate(1300 500) scale(0.1 -0.1)"><path d="M0.0 0.0V-33.0H644.0V0.0ZM47.0 188.0V156.0H470.0V188.0ZM253.0 316.0 251.0 -29.0 284.0 -28.0 286.0 316.0ZM576.0 278.0C441.0 50.0 217.0 -138.0 -29.0 -252.0C-21.0 -259.0 -9.0 -272.0 -5.0 -279.0C241.0 -156.0 462.0 28.0 606.0 266.0Z"/></g>
<g fill="red" transform="translate(1400 500) scale(0.1 -0.1)"><path d="M0.0 0.0V-131.0H664.0V0.0ZM45.0 199.0V73.0H449.0V199.0ZM197.0 281.0V-97.0H342.0V281.0ZM510.0 261.0C401.0 19.0 201.0 -165.0 -46.0 -266.0C-18.0 -295.0 29.0 -356.0 47.0 -388.0C300.0 -266.0 516.0 -58.0 645.0 213.0Z"/></g>
<g fill="black" opacity=".8" transform="translate(1400 500) scale(0.1 -0.1)"><path d="M0.0 0.0V-131.0H659.0V0.0ZM42.0 196.0V68.0H452.0V196.0ZM191.0 279.0V-95.0H337.0L338.0 278.0ZM518.0 257.0C409.0 18.0 204.0 -162.0 -45.0 -260.0C-17.0 -290.0 27.0 -352.0 46.0 -384.0C301.0 -265.0 522.0 -61.0 654.0 209.0Z"/></g>
<g fill="red" transform="translate(1500 500) scale(0.1 -0.1)"><path d="M0.0 0.0V-29.0H548.0V0.0ZM48.0 118.0V89.0H411.0V118.0ZM223.0 201.0V-10.0H252.0V201.0ZM506.0 157.0C388.0 5.0 178.0 -108.0 -36.0 -174.0C-28.0 -180.0 -17.0 -193.0 -12.0 -199.0C195.0 -127.0 408.0 -14.0 533.0 145.0Z"/></g>
<g fill="black" opacity=".8" transform="translate(1500 500) scale(0.1 -0.1)"><path d="M0.0 0.0V-26.0H554.0V0.0ZM54.0 118.0V93.0H416.0V118.0ZM230.0 195.0 218.0 -25.0 246.0 -18.0 258.0 200.0ZM498.0 163.0C380.0 11.0 179.0 -109.0 -26.0 -180.0C-19.0 -185.0 -10.0 -195.0 -7.0 -201.0C197.0 -124.0 395.0 -7.0 522.0 152.0Z"/></g>
<g fill="red" transform="translate(1600 500) scale(0.1 -0.1)"><path d="M0.0 0.0V-100.0H523.0V0.0ZM44.0 123.0V28.0H360.0V123.0ZM144.0 164.0V-66.0H260.0V164.0ZM404.0 145.0C318.0 -3.0 144.0 -107.0 -51.0 -163.0C-29.0 -184.0 7.0 -228.0 21.0 -251.0C217.0 -182.0 403.0 -63.0 507.0 109.0Z"/></g>
<g fill="black" opacity=".8" transform="translate(1600 500) scale(0.1 -0.1)"><path d="M0.0 0.0V-90.0H523.0V0.0ZM37.0 119.0V33.0H357.0V119.0ZM144.0 170.0 138.0 -61.0 256.0 -60.0 262.0 170.0ZM421.0 141.0C326.0 -4.0 146.0 -107.0 -49.0 -161.0C-30.0 -182.0 -1.0 -227.0 13.0 -249.0C209.0 -182.0 401.0 -66.0 515.0 100.0Z"/></g>
<g fill="red" transform="translate(100 600) scale(0.1 -0.1)"><path d="M0.0 0.0V-29.0H490.0V0.0ZM46.0 181.0V152.0H356.0V181.0ZM191.0 336.0V-13.0H220.0V336.0ZM433.0 279.0C333.0 59.0 174.0 -136.0 -10.0 -260.0C-2.0 -266.0 10.0 -276.0 15.0 -282.0C197.0 -153.0 356.0 40.0 461.0 271.0Z"/></g>
<g fill="black" opacity=".8" transform="translate(100 600) scale(0.1 -0.1)"><path d="M0.0 0.0V-31.0H490.0V0.0ZM42.0 189.0V158.0H359.0V189.0ZM191.0 323.0 186.0 -15.0 218.0 -12.0 223.0 325.0ZM434.0 283.0C338.0 57.0 176.0 -135.0 -20.0 -255.0C-12.0 -261.0 0.0 -272.0 4.0 -278.0C201.0 -151.0 360.0 38.0 465.0 274.0Z"/></g>
<g fill="red" transform="translate(200 600) scale(0.1 -0.1)"><path d="M0.0 0.0V-122.0H469.0V0.0ZM11.0 199.0V79.0H295.0V199.0ZM99.0 282.0V-87.0H225.0V282.0ZM344.0 258.0C274.0 28.0 139.0 -152.0 -53.0 -254.0C-28.0 -278.0 14.0 -331.0 30.0 -357.0C231.0 -234.0 381.0 -31.0 465.0 228.0Z"/></g>
<g fill="black" opacity=".8" transform="translate(200 600) scale(0.1 -0.1)"><path d="M0.0 0.0V-123.0H468.0V0.0ZM16.0 192.0V72.0H291.0V192.0ZM98.0 286.0 96.0 -79.0 229.0 -78.0 231.0 286.0ZM333.0 259.0C271.0 28.0 142.0 -151.0 -48.0 -250.0C-22.0 -277.0 19.0 -335.0 37.0 -365.0C238.0 -242.0 383.0 -36.0 463.0 228.0Z"/></g>
<g fill="red" transform="translate(300 600) scale(0.1 -0.1)"><path d="M0.0 0.0V-30.0H654.0V0.0ZM67.0 132.0V102.0H451.0V132.0ZM249.0 224.0V-19.0H279.0V224.0ZM553.0 193.0C424.0 16.0 200.0 -120.0 -28.0 -199.0C-21.0 -206.0 -12.0 -220.0 -8.0 -226.0C219.0 -140.0 443.0 -5.0 579.0 180.0Z"/></g>
<g fill="black" opacity=".8" transform="translate(300 600) scale(0.1 -0.1)"><path d="M0.0 0.0V-27.0H650.0V0.0ZM65.0 132.0V106.0H451.0V132.0ZM247.0 227.0 251.0 -21.0 277.0 -23.0 273.0 224.0ZM561.0 188.0C428.0 15.0 208.0 -122.0 -19.0 -202.0C-12.0 -208.0 -3.0 -219.0 0.0 -224.0C225.0 -137.0 443.0 -4.0 585.0 176.0Z"/></g>
<g fill="red" transform="translate(400 600) scale(0.1 -0.1)"><path d="M0.0 0.0V-107.0H671.0V0.0ZM70.0 136.0V35.0H453.0V136.0ZM200.0 188.0V-69.0H338.0V188.0ZM530.0 164.0C422.0 -20.0 211.0 -147.0 -29.0 -214.0C-6.0 -240.0 33.0 -296.0 48.0 -325.0C293.0 -241.0 519.0 -96.0 649.0 117.0Z"/></g>
<g fill="black" opacity=".8" transform="translate(400 600) scale(0.1 -0.1)"><path d="M0.0 0.0V-106.0H679.0V0.0ZM67.0 134.0V32.0H456.0V134.0ZM208.0 194.0 210.0 -73.0 332.0 -74.0 330.0 192.0ZM536.0 166.0C420.0 -17.0 205.0 -150.0 -32.0 -219.0C-10.0 -244.0 24.0 -295.0 40.0 -321.0C277.0 -236.0 504.0 -89.0 642.0 118.0Z"/></g>
<g fill="red" transform="translate(500 600) scale(0.1 -0.1)"><path d="M0.0 0.0V-30.0H614.0V0.0ZM43.0 187.0V157.0H468.0V187.0ZM244.0 313.0V-27.0H274.0V313.0ZM560.0 272.0C424.0 51.0 209.0 -141.0 -23.0 -259.0C-15.0 -265.0 -4.0 -277.0 1.0 -283.0C230.0 -157.0 442.0 30.0 587.0 260.0Z"/></g>
<g fill="black" opacity=".8" transform="translate(500 600) scale(0.1 -0.1)"><path d="M0.0 0.0V-32.0H610.0V0.0ZM51.0 184.0V153.0H464.0V184.0ZM248.0 314.0 244.0 -27.0 276.0 -25.0 281.0 315.0ZM552.0 274.0C425.0 46.0 213.0 -143.0 -24.0 -259.0C-16.0 -265.0 -4.0 -278.0 0.0 -285.0C237.0 -161.0 445.0 25.0 582.0 263.0Z"/></g>
<g fill="red" transform="translate(600 600) scale(0.1 -0.1)"><path d="M0.0 0.0V-126.0H608.0V0.0ZM51.0 189.0V65.0H430.0V189.0ZM184.0 281.0V-88.0H325.0V281.0ZM485.0 252.0C380.0 22.0 190.0 -161.0 -40.0 -263.0C-13.0 -290.0 33.0 -350.0 52.0 -380.0C287.0 -258.0 492.0 -52.0 616.0 206.0Z"/></g>
<g fill="black" opacity=".8" transform="translate(600 600) scale(0.1 -0.1)"><path d="M0.0 0.0V-128.0H615.0V0.0ZM43.0 192.0V68.0H434.0V192.0ZM180.0 279.0 179.0 -89.0H321.0L323.0 279.0ZM482.0 253.0C383.0 20.0 194.0 -159.0 -41.0 -256.0C-14.0 -285.0 30.0 -346.0 49.0 -377.0C290.0 -258.0 495.0 -56.0 616.0 209.0Z"/></g>
<g fill="red" transform="translate(700 600) scale(0.1 -0.1)"><path d="M0.0 0.0V-29.0H689.0V0.0ZM71.0 137.0V108.0H552.0V137.0ZM303.0 218.0V-17.0H332.0V218.0ZM645.0 196.0C495.0 13.0 237.0 -125.0 -22.0 -204.0C-16.0 -211.0 -5.0 -224.0 -1.0 -231.0C255.0 -145.0 513.0 -10.0 671.0 181.0Z"/></g>
<g fill="black" opacity=".8" transform="translate(700 600) scale(0.1 -0.1)"><path d="M0.0 0.0V-32.0H693.0V0.0ZM68.0 142.0V112.0H545.0V142.0ZM309.0 223.0 294.0 -19.0 328.0 -11.0 343.0 230.0ZM642.0 197.0C493.0 15.0 238.0 -125.0 -18.0 -208.0C-10.0 -215.0 1.0 -227.0 4.0 -234.0C258.0 -145.0 510.0 -7.0 671.0 183.0Z"/></g>
<g fill="red" transform="translate(800 600) scale(0.1 -0.1)"><path d="M0.0 0.0V-111.0H635.0V0.0ZM36.0 151.0V44.0H442.0V151.0ZM183.0 203.0V-54.0H321.0V203.0ZM521.0 171.0C405.0 5.0 184.0 -112.0 -54.0 -173.0C-29.0 -199.0 9.0 -254.0 26.0 -283.0C264.0 -206.0 499.0 -73.0 639.0 119.0Z"/></g>
<g fill="black" opacity=".8" transform="translate(800 600) scale(0.1 -0.1)"><path d="M0.0 0.0V-105.0H633.0V0.0ZM39.0 144.0V45.0H448.0V144.0ZM182.0 192.0 176.0 -55.0 321.0 -53.0 329.0 193.0ZM527.0 169.0C409.0 4.0 183.0 -113.0 -55.0 -173.0C-32.0 -199.0 3.0 -252.0 19.0 -279.0C258.0 -203.0 497.0 -72.0 639.0 119.0Z"/></g>
<g fill="red" transform="translate(900 600) scale(0.1 -0.1)"><path d="M0.0 0.0V-30.0H671.0V0.0ZM43.0 156.0V127.0H489.0V156.0ZM265.0 252.0V-18.0H295.0V252.0ZM572.0 203.0C423.0 19.0 181.0 -131.0 -64.0 -221.0C-56.0 -228.0 -45.0 -239.0 -41.0 -245.0C200.0 -149.0 440.0 -1.0 597.0 190.0Z"/></g>
<g fill="black" opacity=".8" transform="translate(900 600) scale(0.1 -0.1)"><path d="M0.0 0.0V-29.0H668.0V0.0ZM41.0 148.0V120.0H487.0V148.0ZM262.0 243.0 263.0 -5.0H291.0V242.0ZM576.0 207.0C431.0 18.0 190.0 -131.0 -59.0 -220.0C-52.0 -226.0 -41.0 -238.0 -38.0 -244.0C209.0 -148.0 447.0 -2.0 602.0 194.0Z"/></g>
<g fill="red" transform="translate(1000 600) scale(0.1 -0.1)"><path d="M0.0 0.0V-108.0H653.0V0.0ZM29.0 151.0V44.0H448.0V151.0ZM183.0 202.0V-32.0H318.0V202.0ZM518.0 186.0C392.0 4.0 163.0 -133.0 -84.0 -208.0C-58.0 -232.0 -16.0 -285.0 2.0 -313.0C245.0 -224.0 487.0 -73.0 635.0 133.0Z"/></g>
<g fill="black" opacity=".8" transform="translate(1000 600) scale(0.1 -0.1)"><path d="M0.0 0.0V-107.0H659.0V0.0ZM28.0 155.0V51.0H451.0V155.0ZM188.0 213.0 189.0 -44.0 321.0 -45.0V212.0ZM511.0 185.0C389.0 -0.0 162.0 -135.0 -84.0 -205.0C-60.0 -231.0 -25.0 -285.0 -8.0 -313.0C239.0 -226.0 479.0 -76.0 625.0 134.0Z"/></g>
<g fill="red" transform="translate(1100 600) scale(0.1 -0.1)"><path d="M0.0 0.0V-30.0H587.0V0.0ZM42.0 190.0V161.0H435.0V190.0ZM240.0 325.0V-15.0H269.0V325.0ZM519.0 263.0C397.0 47.0 194.0 -126.0 -38.0 -230.0C-31.0 -236.0 -19.0 -249.0 -14.0 -255.0C213.0 -143.0 417.0 26.0 547.0 253.0Z"/></g>
<g fill="black" opacity=".8" transform="translate(1100 600) scale(0.1 -0.1)"><path d="M0.0 0.0V-32.0H584.0V0.0ZM45.0 191.0V160.0H431.0V191.0ZM237.0 328.0 233.0 -17.0 265.0 -14.0 269.0 329.0ZM516.0 270.0C397.0 52.0 197.0 -127.0 -27.0 -236.0C-19.0 -242.0 -7.0 -254.0 -3.0 -261.0C221.0 -144.0 418.0 32.0 546.0 260.0Z"/></g>
<g fill="red" transform="translate(1200 600) scale(0.1 -0.1)"><path d="M0.0 0.0V-128.0H588.0V0.0ZM39.0 197.0V72.0H401.0V197.0ZM166.0 294.0V-80.0H303.0V294.0ZM451.0 253.0C361.0 17.0 190.0 -160.0 -38.0 -258.0C-11.0 -284.0 32.0 -341.0 49.0 -369.0C284.0 -251.0 471.0 -51.0 579.0 215.0Z"/></g>
<g fill="black" opacity=".8" transform="translate(1200 600) scale(0.1 -0.1)"><path d="M0.0 0.0V-127.0H594.0V0.0ZM35.0 197.0V73.0H405.0V197.0ZM168.0 292.0 167.0 -82.0 308.0 -81.0 309.0 291.0ZM452.0 246.0C360.0 18.0 181.0 -154.0 -45.0 -248.0C-19.0 -277.0 23.0 -337.0 41.0 -368.0C275.0 -252.0 469.0 -55.0 583.0 204.0Z"/></g>
<g fill="red" transform="translate(1300 600) scale(0.1 -0.1)"><path d="M0.0 0.0V-30.0H548.0V0.0ZM42.0 190.0V161.0H409.0V190.0ZM226.0 325.0V-15.0H255.0V325.0ZM494.0 263.0C382.0 52.0 198.0 -121.0 -15.0 -227.0C-7.0 -232.0 5.0 -244.0 10.0 -250.0C219.0 -137.0 404.0 32.0 522.0 253.0Z"/></g>
<g fill="black" opacity=".8" transform="translate(1300 600) scale(0.1 -0.1)"><path d="M0.0 0.0V-31.0H554.0V0.0ZM43.0 191.0V161.0H407.0V191.0ZM223.0 329.0V-13.0H254.0V328.0ZM494.0 270.0C384.0 55.0 198.0 -120.0 -15.0 -228.0C-7.0 -234.0 5.0 -246.0 9.0 -252.0C221.0 -136.0 405.0 36.0 523.0 260.0Z"/></g>
<g fill="red" transform="translate(1400 600) scale(0.1 -0.1)"><path d="M0.0 0.0V-128.0H580.0V0.0ZM37.0 197.0V72.0H394.0V197.0ZM162.0 294.0V-80.0H298.0V294.0ZM444.0 253.0C355.0 17.0 187.0 -160.0 -36.0 -258.0C-9.0 -285.0 37.0 -344.0 54.0 -374.0C284.0 -255.0 468.0 -53.0 574.0 213.0Z"/></g>
<g fill="black" opacity=".8" transform="translate(1400 600) scale(0.1 -0.1)"><path d="M0.0 0.0V-126.0H576.0V0.0ZM35.0 195.0V72.0H396.0V195.0ZM164.0 291.0 165.0 -81.0H301.0V289.0ZM444.0 246.0C357.0 15.0 187.0 -160.0 -32.0 -255.0C-6.0 -283.0 35.0 -343.0 52.0 -374.0C280.0 -256.0 466.0 -56.0 573.0 206.0Z"/></g>
<g fill="red" transform="translate(1500 600) scale(0.1 -0.1)"><path d="M0.0 0.0V-30.0H547.0V0.0ZM57.0 190.0V161.0H414.0V190.0ZM228.0 325.0V-15.0H258.0V325.0ZM498.0 263.0C386.0 56.0 202.0 -115.0 -9.0 -219.0C-1.0 -225.0 10.0 -236.0 15.0 -242.0C222.0 -131.0 408.0 36.0 525.0 253.0Z"/></g>
<g fill="black" opacity=".8" transform="translate(1500 600) scale(0.1 -0.1)"><path d="M0.0 0.0V-31.0H556.0V0.0ZM49.0 190.0V160.0H410.0V190.0ZM228.0 328.0 226.0 -13.0 256.0 -12.0 258.0 329.0ZM504.0 268.0C392.0 59.0 203.0 -112.0 -10.0 -216.0C-2.0 -222.0 10.0 -234.0 13.0 -240.0C226.0 -128.0 412.0 40.0 532.0 258.0Z"/></g>
<g fill="red" transform="translate(1600 600) scale(0.1 -0.1)"><path d="M0.0 0.0V-128.0H586.0V0.0ZM37.0 197.0V72.0H398.0V197.0ZM164.0 294.0V-80.0H309.0V294.0ZM448.0 253.0C375.0 11.0 217.0 -144.0 -22.0 -225.0C-1.0 -258.0 29.0 -326.0 38.0 -360.0C309.0 -253.0 487.0 -64.0 580.0 220.0Z"/></g>
<g fill="black" opacity=".8" transform="translate(1600 600) scale(0.1 -0.1)"><path d="M0.0 0.0V-125.0H578.0V0.0ZM44.0 195.0V73.0H401.0V195.0ZM171.0 292.0V-80.0H306.0L307.0 291.0ZM458.0 245.0C368.0 20.0 195.0 -150.0 -25.0 -243.0C1.0 -271.0 40.0 -330.0 57.0 -360.0C286.0 -245.0 474.0 -51.0 583.0 205.0Z"/></g>
<g fill="red" transform="translate(100 700) scale(0.1 -0.1)"><path d="M0.0 0.0V-29.0H552.0V0.0ZM41.0 197.0V168.0H399.0V197.0ZM210.0 338.0V-15.0H239.0V338.0ZM494.0 276.0C380.0 64.0 197.0 -119.0 -8.0 -234.0C0.0 -240.0 12.0 -252.0 17.0 -258.0C219.0 -136.0 401.0 44.0 521.0 266.0Z"/></g>
<g fill="black" opacity=".8" transform="translate(100 700) scale(0.1 -0.1)"><path d="M0.0 0.0V-32.0H555.0V0.0ZM47.0 193.0V163.0H395.0V193.0ZM213.0 331.0 210.0 -21.0 241.0 -19.0 245.0 332.0ZM487.0 279.0C380.0 60.0 200.0 -122.0 -8.0 -234.0C0.0 -240.0 12.0 -251.0 16.0 -258.0C223.0 -138.0 401.0 41.0 517.0 269.0Z"/></g>
<g fill="red" transform="translate(200 700) scale(0.1 -0.1)"><path d="M0.0 0.0V-122.0H572.0V0.0ZM49.0 190.0V70.0H369.0V190.0ZM157.0 286.0V-97.0H291.0V286.0ZM433.0 253.0C344.0 28.0 181.0 -157.0 -22.0 -262.0C5.0 -288.0 51.0 -343.0 70.0 -372.0C278.0 -246.0 455.0 -39.0 561.0 214.0Z"/></g>
<g fill="black" opacity=".8" transform="translate(200 700) scale(0.1 -0.1)"><path d="M0.0 0.0V-128.0H574.0V0.0ZM42.0 196.0V73.0H374.0V196.0ZM153.0 292.0 152.0 -94.0 287.0 -93.0 289.0 292.0ZM428.0 255.0C348.0 22.0 190.0 -156.0 -22.0 -253.0C5.0 -281.0 47.0 -340.0 65.0 -370.0C285.0 -250.0 459.0 -47.0 558.0 218.0Z"/></g>
<g fill="red" transform="translate(300 700) scale(0.1 -0.1)"><path d="M0.0 0.0V-30.0H574.0V0.0ZM59.0 190.0V161.0H426.0V190.0ZM243.0 325.0V-15.0H272.0V325.0ZM511.0 263.0C396.0 49.0 208.0 -125.0 -10.0 -230.0C-2.0 -236.0 9.0 -248.0 14.0 -254.0C229.0 -141.0 418.0 30.0 539.0 253.0Z"/></g>
<g fill="black" opacity=".8" transform="translate(300 700) scale(0.1 -0.1)"><path d="M0.0 0.0V-32.0H576.0V0.0ZM56.0 191.0V160.0H430.0V191.0ZM241.0 329.0 242.0 -12.0H273.0L271.0 327.0ZM513.0 271.0C398.0 54.0 204.0 -122.0 -16.0 -230.0C-8.0 -236.0 4.0 -248.0 8.0 -255.0C227.0 -139.0 419.0 34.0 543.0 260.0Z"/></g>
<g fill="red" transform="translate(400 700) scale(0.1 -0.1)"><path d="M0.0 0.0V-128.0H595.0V0.0ZM42.0 197.0V72.0H416.0V197.0ZM174.0 294.0V-80.0H311.0V294.0ZM458.0 253.0C365.0 15.0 187.0 -161.0 -46.0 -258.0C-19.0 -285.0 26.0 -344.0 43.0 -374.0C285.0 -257.0 478.0 -56.0 590.0 212.0Z"/></g>
<g fill="black" opacity=".8" transform="translate(400 700) scale(0.1 -0.1)"><path d="M0.0 0.0V-127.0H592.0V0.0ZM44.0 196.0V71.0H412.0V196.0ZM175.0 289.0 176.0 -78.0H314.0L313.0 288.0ZM459.0 246.0C367.0 13.0 189.0 -161.0 -37.0 -256.0C-11.0 -285.0 29.0 -346.0 45.0 -377.0C282.0 -259.0 476.0 -59.0 588.0 204.0Z"/></g>
<g fill="red" transform="translate(500 700) scale(0.1 -0.1)"><path d="M0.0 0.0V-30.0H883.0V0.0ZM94.0 132.0V103.0H672.0V132.0ZM396.0 213.0V-12.0H425.0V213.0ZM781.0 177.0C595.0 6.0 278.0 -121.0 -17.0 -191.0C-10.0 -197.0 -1.0 -212.0 2.0 -219.0C294.0 -142.0 610.0 -19.0 806.0 159.0Z"/></g>
<g fill="black" opacity=".8" transform="translate(500 700) scale(0.1 -0.1)"><path d="M0.0 0.0V-31.0H876.0V0.0ZM99.0 134.0V105.0H667.0V134.0ZM391.0 224.0 398.0 -15.0 426.0 -18.0 420.0 220.0ZM787.0 181.0C599.0 5.0 286.0 -122.0 -16.0 -192.0C-9.0 -199.0 2.0 -213.0 5.0 -219.0C303.0 -142.0 613.0 -19.0 812.0 164.0Z"/></g>
<g fill="red" transform="translate(600 700) scale(0.1 -0.1)"><path d="M0.0 0.0V-113.0H901.0V0.0ZM111.0 142.0V34.0H683.0V142.0ZM348.0 195.0V-57.0H489.0V195.0ZM775.0 163.0C607.0 -27.0 293.0 -151.0 -30.0 -209.0C-8.0 -238.0 25.0 -300.0 38.0 -331.0C364.0 -257.0 692.0 -122.0 890.0 94.0Z"/></g>
<g fill="black" opacity=".8" transform="translate(600 700) scale(0.1 -0.1)"><path d="M0.0 0.0V-112.0H910.0V0.0ZM106.0 141.0V31.0H688.0V141.0ZM345.0 189.0 348.0 -55.0 495.0 -56.0 492.0 187.0ZM776.0 157.0C599.0 -25.0 281.0 -150.0 -33.0 -211.0C-9.0 -239.0 26.0 -298.0 42.0 -327.0C352.0 -252.0 683.0 -118.0 889.0 87.0Z"/></g>
<g fill="red" transform="translate(700 700) scale(0.1 -0.1)"><path d="M0.0 0.0V-29.0H883.0V0.0ZM89.0 196.0V167.0H676.0V196.0ZM367.0 340.0V-13.0H396.0V340.0ZM803.0 300.0C608.0 55.0 307.0 -143.0 -14.0 -262.0C-6.0 -269.0 5.0 -281.0 10.0 -288.0C325.0 -162.0 623.0 31.0 828.0 284.0Z"/></g>
<g fill="black" opacity=".8" transform="translate(700 700) scale(0.1 -0.1)"><path d="M0.0 0.0V-37.0H885.0V0.0ZM89.0 196.0V160.0H670.0V196.0ZM366.0 333.0 367.0 -7.0H403.0L402.0 332.0ZM795.0 296.0C608.0 51.0 300.0 -143.0 -19.0 -258.0C-9.0 -266.0 4.0 -281.0 9.0 -289.0C324.0 -165.0 628.0 25.0 827.0 280.0Z"/></g>
<g fill="red" transform="translate(800 700) scale(0.1 -0.1)"><path d="M0.0 0.0V-127.0H905.0V0.0ZM86.0 195.0V70.0H654.0V195.0ZM310.0 293.0V-72.0H454.0V293.0ZM751.0 267.0C582.0 14.0 290.0 -175.0 -36.0 -275.0C-10.0 -304.0 33.0 -364.0 50.0 -395.0C376.0 -278.0 683.0 -75.0 876.0 203.0Z"/></g>
<g fill="black" opacity=".8" transform="translate(800 700) scale(0.1 -0.1)"><path d="M0.0 0.0V-143.0H904.0V0.0ZM89.0 205.0V65.0H658.0V205.0ZM294.0 292.0 295.0 -68.0 466.0 -69.0V291.0ZM738.0 272.0C577.0 20.0 283.0 -166.0 -40.0 -263.0C-9.0 -296.0 40.0 -367.0 61.0 -403.0C384.0 -284.0 696.0 -79.0 886.0 205.0Z"/></g>
<g fill="red" transform="translate(900 700) scale(0.1 -0.1)"><path d="M0.0 0.0V-29.0H495.0V0.0ZM-213.0 318.0V288.0H344.0V318.0ZM51.0 436.0V131.0H80.0V436.0ZM480.0 392.0C289.0 197.0 -15.0 40.0 -315.0 -53.0C-307.0 -59.0 -296.0 -72.0 -291.0 -79.0C2.0 20.0 304.0 173.0 505.0 375.0Z"/></g>
<g fill="black" opacity=".8" transform="translate(900 700) scale(0.1 -0.1)"><path d="M0.0 0.0V-33.0H506.0V0.0ZM-211.0 313.0V280.0H343.0V313.0ZM55.0 427.0 44.0 137.0 79.0 143.0 90.0 432.0ZM468.0 397.0C288.0 194.0 -14.0 40.0 -319.0 -51.0C-311.0 -58.0 -299.0 -71.0 -295.0 -78.0C6.0 19.0 305.0 170.0 497.0 381.0Z"/></g>
<g fill="red" transform="translate(1000 700) scale(0.1 -0.1)"><path d="M0.0 0.0V-114.0H482.0V0.0ZM-224.0 348.0V233.0H339.0V348.0ZM-11.0 424.0V109.0H133.0V424.0ZM435.0 401.0C259.0 208.0 -46.0 59.0 -350.0 -20.0C-325.0 -47.0 -285.0 -105.0 -267.0 -134.0C31.0 -41.0 347.0 117.0 549.0 332.0Z"/></g>
<g fill="black" opacity=".8" transform="translate(1000 700) scale(0.1 -0.1)"><path d="M0.0 0.0V-112.0H474.0V0.0ZM-225.0 353.0V240.0H339.0V353.0ZM-14.0 425.0 -19.0 106.0 135.0 108.0 140.0 426.0ZM433.0 401.0C263.0 205.0 -42.0 60.0 -347.0 -14.0C-322.0 -45.0 -285.0 -106.0 -267.0 -137.0C36.0 -46.0 355.0 113.0 554.0 333.0Z"/></g>
<g fill="red" transform="translate(1100 700) scale(0.1 -0.1)"><path d="M0.0 0.0V-29.0H667.0V0.0ZM-89.0 279.0V249.0H477.0V279.0ZM193.0 392.0V119.0H223.0V392.0ZM626.0 353.0C447.0 162.0 143.0 30.0 -168.0 -43.0C-161.0 -49.0 -151.0 -63.0 -147.0 -69.0C158.0 10.0 463.0 137.0 650.0 337.0Z"/></g>
<g fill="black" opacity=".8" transform="translate(1100 700) scale(0.1 -0.1)"><path d="M0.0 0.0V-31.0H676.0V0.0ZM-87.0 276.0V246.0H482.0V276.0ZM195.0 383.0 187.0 105.0 219.0 110.0 227.0 387.0ZM625.0 347.0C441.0 167.0 133.0 34.0 -166.0 -41.0C-158.0 -48.0 -148.0 -62.0 -144.0 -69.0C151.0 14.0 456.0 143.0 651.0 330.0Z"/></g>
<g fill="red" transform="translate(1200 700) scale(0.1 -0.1)"><path d="M0.0 0.0V-108.0H698.0V0.0ZM-70.0 301.0V192.0H516.0V301.0ZM157.0 367.0V52.0H301.0V367.0ZM625.0 340.0C445.0 164.0 132.0 30.0 -172.0 -40.0C-148.0 -65.0 -112.0 -119.0 -96.0 -147.0C201.0 -65.0 524.0 77.0 730.0 273.0Z"/></g>
<g fill="black" opacity=".8" transform="translate(1200 700) scale(0.1 -0.1)"><path d="M0.0 0.0V-111.0H693.0V0.0ZM-72.0 304.0V196.0H513.0V304.0ZM157.0 372.0 154.0 63.0 301.0 64.0 305.0 372.0ZM621.0 346.0C446.0 162.0 134.0 30.0 -174.0 -37.0C-149.0 -65.0 -111.0 -122.0 -94.0 -151.0C207.0 -70.0 531.0 71.0 735.0 277.0Z"/></g>
<g fill="red" transform="translate(1300 700) scale(0.1 -0.1)"><path d="M0.0 0.0V-30.0H874.0V0.0ZM5.0 333.0V304.0H407.0V333.0ZM225.0 417.0V209.0H255.0V417.0ZM805.0 196.0C614.0 19.0 295.0 -112.0 -9.0 -184.0C-2.0 -190.0 8.0 -205.0 12.0 -212.0C311.0 -133.0 629.0 -6.0 830.0 178.0Z"/></g>
<g fill="black" opacity=".8" transform="translate(1300 700) scale(0.1 -0.1)"><path d="M0.0 0.0V-35.0H880.0V0.0ZM3.0 335.0V301.0H416.0V335.0ZM201.0 430.0 247.0 223.0 275.0 198.0 229.0 403.0ZM807.0 196.0C616.0 21.0 290.0 -108.0 -16.0 -180.0C-8.0 -187.0 4.0 -202.0 8.0 -210.0C310.0 -131.0 633.0 -5.0 838.0 177.0Z"/></g>
<g fill="red" transform="translate(1400 700) scale(0.1 -0.1)"><path d="M0.0 0.0V-124.0H905.0V0.0ZM-3.0 350.0V226.0H434.0V350.0ZM168.0 397.0V176.0H312.0V397.0ZM793.0 175.0C618.0 -14.0 293.0 -136.0 -36.0 -193.0C-16.0 -220.0 14.0 -278.0 27.0 -307.0C358.0 -235.0 696.0 -104.0 900.0 109.0Z"/></g>
<g fill="black" opacity=".8" transform="translate(1400 700) scale(0.1 -0.1)"><path d="M0.0 0.0V-125.0H899.0V0.0ZM-4.0 341.0V226.0H431.0V341.0ZM168.0 410.0 189.0 171.0 314.0 164.0 293.0 402.0ZM785.0 172.0C615.0 -15.0 292.0 -133.0 -31.0 -187.0C-10.0 -218.0 19.0 -280.0 32.0 -310.0C361.0 -238.0 699.0 -107.0 899.0 107.0Z"/></g>
<g fill="red" transform="translate(1500 700) scale(0.1 -0.1)"><path d="M0.0 0.0V-30.0H578.0V0.0ZM43.0 151.0V121.0H436.0V151.0ZM-46.0 420.0V235.0H-17.0V420.0ZM529.0 208.0C406.0 29.0 203.0 -119.0 -8.0 -209.0C-1.0 -215.0 11.0 -227.0 15.0 -232.0C222.0 -136.0 425.0 10.0 556.0 196.0Z"/></g>
<g fill="black" opacity=".8" transform="translate(1500 700) scale(0.1 -0.1)"><path d="M0.0 0.0V-29.0H578.0V0.0ZM47.0 158.0V130.0H440.0V158.0ZM-46.0 426.0 -50.0 239.0 -22.0 242.0 -18.0 428.0ZM530.0 222.0C408.0 31.0 204.0 -120.0 -17.0 -210.0C-9.0 -217.0 2.0 -228.0 6.0 -233.0C225.0 -134.0 425.0 13.0 557.0 211.0Z"/></g>
<g fill="red" transform="translate(1600 700) scale(0.1 -0.1)"><path d="M0.0 0.0V-110.0H595.0V0.0ZM43.0 159.0V52.0H458.0V159.0ZM-114.0 415.0V190.0H28.0V415.0ZM496.0 197.0C383.0 1.0 176.0 -148.0 -57.0 -230.0C-33.0 -256.0 6.0 -310.0 22.0 -338.0C259.0 -239.0 479.0 -71.0 612.0 150.0Z"/></g>
<g fill="black" opacity=".8" transform="translate(1600 700) scale(0.1 -0.1)"><path d="M0.0 0.0V-115.0H592.0V0.0ZM39.0 155.0V37.0H454.0V155.0ZM-102.0 405.0 -104.0 190.0 24.0 191.0 26.0 404.0ZM495.0 188.0C388.0 -11.0 185.0 -151.0 -48.0 -224.0C-27.0 -251.0 7.0 -305.0 22.0 -332.0C263.0 -240.0 479.0 -81.0 607.0 143.0Z"/></g>
<g fill="red" transform="translate(100 800) scale(0.1 -0.1)"><path d="M0.0 0.0V-29.0H883.0V0.0ZM9.0 459.0V429.0H402.0V459.0ZM121.0 320.0H313.0V214.0H121.0ZM784.0 157.0C593.0 9.0 270.0 -102.0 -22.0 -162.0C-15.0 -169.0 -4.0 -183.0 -1.0 -190.0C285.0 -124.0 607.0 -17.0 809.0 138.0Z"/></g>
<g fill="black" opacity=".8" transform="translate(100 800) scale(0.1 -0.1)"><path d="M0.0 0.0V-26.0H877.0V0.0ZM10.0 456.0V431.0H396.0V456.0ZM156.0 292.0 284.0 309.0 290.0 237.0 161.0 221.0ZM781.0 159.0C590.0 8.0 274.0 -105.0 -16.0 -167.0C-10.0 -172.0 -1.0 -184.0 1.0 -191.0C288.0 -122.0 599.0 -14.0 802.0 142.0Z"/></g>
<g fill="red" transform="translate(200 800) scale(0.1 -0.1)"><path d="M0.0 0.0V-98.0H896.0V0.0ZM-3.0 493.0V386.0H434.0V493.0ZM202.0 262.0H290.0V234.0H202.0ZM771.0 152.0C599.0 -8.0 278.0 -111.0 -32.0 -158.0C-14.0 -183.0 14.0 -237.0 25.0 -263.0C336.0 -203.0 669.0 -93.0 868.0 90.0Z"/></g>
<g fill="black" opacity=".8" transform="translate(200 800) scale(0.1 -0.1)"><path d="M0.0 0.0V-91.0H905.0V0.0ZM-1.0 490.0V401.0H436.0V490.0ZM195.0 255.0 255.0 264.0 289.0 246.0 230.0 235.0ZM780.0 157.0C607.0 -12.0 284.0 -118.0 -31.0 -162.0C-15.0 -187.0 6.0 -238.0 16.0 -262.0C332.0 -204.0 667.0 -94.0 868.0 96.0Z"/></g>
<g fill="red" transform="translate(300 800) scale(0.1 -0.1)"><path d="M0.0 0.0V-29.0H543.0V0.0ZM-349.0 130.0V101.0H14.0V130.0ZM-120.0 437.0V243.0H-90.0V437.0ZM472.0 233.0C356.0 42.0 166.0 -122.0 -34.0 -224.0C-27.0 -230.0 -15.0 -242.0 -11.0 -248.0C187.0 -140.0 376.0 23.0 500.0 222.0Z"/></g>
<g fill="black" opacity=".8" transform="translate(300 800) scale(0.1 -0.1)"><path d="M0.0 0.0V-30.0H543.0V0.0ZM-344.0 130.0V100.0H13.0V130.0ZM-120.0 441.0 -118.0 239.0H-88.0V439.0ZM472.0 229.0C356.0 41.0 164.0 -122.0 -32.0 -225.0C-25.0 -230.0 -13.0 -243.0 -10.0 -249.0C187.0 -139.0 375.0 22.0 501.0 219.0Z"/></g>
<g fill="red" transform="translate(400 800) scale(0.1 -0.1)"><path d="M0.0 0.0V-108.0H559.0V0.0ZM-362.0 110.0V15.0H12.0V110.0ZM-182.0 429.0V208.0H-38.0V429.0ZM425.0 201.0C339.0 7.0 167.0 -131.0 -49.0 -206.0C-23.0 -230.0 20.0 -282.0 38.0 -309.0C255.0 -217.0 441.0 -60.0 547.0 162.0Z"/></g>
<g fill="black" opacity=".8" transform="translate(400 800) scale(0.1 -0.1)"><path d="M0.0 0.0V-110.0H562.0V0.0ZM-367.0 112.0V13.0H14.0V112.0ZM-186.0 429.0 -185.0 211.0 -37.0 210.0 -40.0 427.0ZM427.0 202.0C339.0 9.0 163.0 -131.0 -52.0 -207.0C-24.0 -230.0 21.0 -280.0 43.0 -307.0C253.0 -214.0 441.0 -58.0 551.0 163.0Z"/></g>
<g fill="red" transform="translate(500 800) scale(0.1 -0.1)"><path d="M0.0 0.0V-30.0H574.0V0.0ZM42.0 190.0V161.0H422.0V190.0ZM225.0 325.0V-15.0H254.0V325.0ZM504.0 263.0C389.0 49.0 196.0 -125.0 -25.0 -230.0C-17.0 -236.0 -5.0 -248.0 0.0 -254.0C216.0 -141.0 409.0 29.0 532.0 253.0Z"/></g>
<g fill="black" opacity=".8" transform="translate(500 800) scale(0.1 -0.1)"><path d="M0.0 0.0V-31.0H570.0V0.0ZM42.0 190.0V160.0H418.0V190.0ZM227.0 328.0V-14.0H258.0V327.0ZM506.0 270.0C390.0 53.0 196.0 -124.0 -25.0 -232.0C-17.0 -238.0 -5.0 -250.0 -1.0 -257.0C218.0 -140.0 411.0 34.0 535.0 259.0Z"/></g>
<g fill="red" transform="translate(600 800) scale(0.1 -0.1)"><path d="M0.0 0.0V-128.0H590.0V0.0ZM37.0 197.0V72.0H407.0V197.0ZM175.0 294.0V-80.0H312.0V294.0ZM458.0 253.0C366.0 18.0 190.0 -158.0 -38.0 -254.0C-14.0 -284.0 26.0 -347.0 40.0 -379.0C284.0 -260.0 478.0 -55.0 588.0 212.0Z"/></g>
<g fill="black" opacity=".8" transform="translate(600 800) scale(0.1 -0.1)"><path d="M0.0 0.0V-127.0H594.0V0.0ZM36.0 196.0V72.0H411.0V196.0ZM172.0 292.0 173.0 -80.0H310.0L309.0 291.0ZM459.0 247.0C366.0 15.0 187.0 -160.0 -40.0 -255.0C-14.0 -284.0 27.0 -344.0 44.0 -374.0C280.0 -257.0 474.0 -58.0 588.0 205.0Z"/></g>
<g fill="red" transform="translate(700 800) scale(0.1 -0.1)"><path d="M0.0 0.0V-29.0H490.0V0.0ZM36.0 197.0V168.0H355.0V197.0ZM192.0 338.0V-15.0H217.0V338.0ZM440.0 265.0C345.0 60.0 182.0 -103.0 -7.0 -201.0C0.0 -207.0 11.0 -218.0 15.0 -224.0C200.0 -119.0 363.0 40.0 464.0 254.0Z"/></g>
<g fill="black" opacity=".8" transform="translate(700 800) scale(0.1 -0.1)"><path d="M0.0 0.0V-30.0H487.0V0.0ZM41.0 196.0V167.0H359.0V196.0ZM196.0 333.0 193.0 -16.0 223.0 -14.0 226.0 333.0ZM432.0 252.0C340.0 55.0 178.0 -103.0 -9.0 -200.0C-1.0 -205.0 10.0 -217.0 14.0 -223.0C201.0 -118.0 361.0 37.0 461.0 243.0Z"/></g>
<g fill="red" transform="translate(800 800) scale(0.1 -0.1)"><path d="M0.0 0.0V-122.0H514.0V0.0ZM40.0 197.0V77.0H365.0V197.0ZM155.0 290.0V-93.0H274.0V290.0ZM399.0 219.0C326.0 -3.0 178.0 -161.0 -19.0 -247.0C2.0 -274.0 36.0 -331.0 47.0 -360.0C257.0 -253.0 418.0 -70.0 508.0 183.0Z"/></g>
<g fill="black" opacity=".8" transform="translate(800 800) scale(0.1 -0.1)"><path d="M0.0 0.0V-124.0H519.0V0.0ZM36.0 198.0V78.0H361.0V198.0ZM145.0 293.0 144.0 -91.0H274.0L275.0 292.0ZM398.0 224.0C324.0 5.0 176.0 -159.0 -23.0 -249.0C1.0 -276.0 38.0 -334.0 54.0 -362.0C264.0 -250.0 427.0 -60.0 520.0 189.0Z"/></g>
<g fill="red" transform="translate(900 800) scale(0.1 -0.1)"><path d="M0.0 0.0V-29.0H407.0V0.0ZM-29.0 311.0V281.0H334.0V311.0ZM167.0 441.0V119.0H196.0V441.0ZM477.0 399.0C346.0 141.0 142.0 -74.0 -105.0 -209.0C-98.0 -214.0 -85.0 -225.0 -80.0 -231.0C163.0 -90.0 366.0 121.0 504.0 388.0Z"/></g>
<g fill="black" opacity=".8" transform="translate(900 800) scale(0.1 -0.1)"><path d="M0.0 0.0V-30.0H401.0V0.0ZM-14.0 313.0V282.0H356.0V313.0ZM154.0 447.0 170.0 121.0 198.0 113.0 182.0 438.0ZM474.0 398.0C344.0 144.0 137.0 -71.0 -111.0 -207.0C-103.0 -213.0 -91.0 -223.0 -87.0 -229.0C160.0 -87.0 363.0 125.0 503.0 387.0Z"/></g>
<g fill="red" transform="translate(1000 800) scale(0.1 -0.1)"><path d="M0.0 0.0V-116.0H341.0V0.0ZM-35.0 351.0V230.0H319.0V351.0ZM69.0 442.0V91.0H205.0V442.0ZM376.0 412.0C278.0 163.0 94.0 -31.0 -130.0 -137.0C-115.0 -171.0 -91.0 -241.0 -85.0 -275.0C171.0 -139.0 375.0 90.0 490.0 372.0Z"/></g>
<g fill="black" opacity=".8" transform="translate(1000 800) scale(0.1 -0.1)"><path d="M0.0 0.0V-119.0H344.0V0.0ZM-50.0 349.0V225.0H300.0V349.0ZM76.0 444.0 84.0 94.0 207.0 92.0 200.0 441.0ZM375.0 409.0C276.0 161.0 92.0 -37.0 -141.0 -143.0C-118.0 -174.0 -81.0 -236.0 -66.0 -268.0C181.0 -136.0 384.0 88.0 503.0 366.0Z"/></g>
<g fill="red" transform="translate(1100 800) scale(0.1 -0.1)"><path d="M0.0 0.0V-30.0H548.0V0.0ZM42.0 190.0V161.0H409.0V190.0ZM226.0 325.0V-15.0H255.0V325.0ZM494.0 263.0C379.0 49.0 191.0 -125.0 -27.0 -230.0C-19.0 -236.0 -8.0 -248.0 -3.0 -254.0C212.0 -141.0 401.0 30.0 522.0 253.0Z"/></g>
<g fill="black" opacity=".8" transform="translate(1100 800) scale(0.1 -0.1)"><path d="M0.0 0.0V-31.0H555.0V0.0ZM42.0 190.0V160.0H407.0V190.0ZM222.0 329.0V-15.0H252.0V328.0ZM493.0 269.0C381.0 53.0 192.0 -124.0 -23.0 -232.0C-15.0 -238.0 -3.0 -250.0 0.0 -257.0C215.0 -140.0 402.0 34.0 522.0 259.0Z"/></g>
<g fill="red" transform="translate(1200 800) scale(0.1 -0.1)"><path d="M0.0 0.0V-128.0H580.0V0.0ZM37.0 197.0V72.0H394.0V197.0ZM162.0 294.0V-80.0H298.0V294.0ZM444.0 253.0C355.0 17.0 185.0 -160.0 -40.0 -258.0C-13.0 -285.0 33.0 -344.0 50.0 -374.0C282.0 -255.0 467.0 -53.0 574.0 213.0Z"/></g>
<g fill="black" opacity=".8" transform="translate(1200 800) scale(0.1 -0.1)"><path d="M0.0 0.0V-126.0H576.0V0.0ZM35.0 196.0V73.0H397.0V196.0ZM166.0 292.0V-81.0H302.0V291.0ZM445.0 247.0C355.0 16.0 183.0 -159.0 -39.0 -255.0C-13.0 -283.0 28.0 -343.0 45.0 -373.0C275.0 -256.0 464.0 -56.0 573.0 206.0Z"/></g>
<g fill="red" transform="translate(1300 800) scale(0.1 -0.1)"><path d="M0.0 0.0V-29.0H310.0V0.0ZM-83.0 173.0V143.0H451.0V173.0ZM141.0 98.0V-154.0H170.0V98.0ZM347.0 2.0C256.0 -157.0 72.0 -262.0 -128.0 -321.0C-121.0 -327.0 -110.0 -341.0 -106.0 -347.0C92.0 -281.0 280.0 -175.0 376.0 -8.0Z"/></g>
<g fill="black" opacity=".8" transform="translate(1300 800) scale(0.1 -0.1)"><path d="M0.0 0.0V-29.0H309.0V0.0ZM-81.0 173.0V144.0H455.0V173.0ZM141.0 99.0 143.0 -152.0 172.0 -154.0 170.0 97.0ZM347.0 -2.0C256.0 -160.0 73.0 -262.0 -127.0 -321.0C-120.0 -327.0 -110.0 -340.0 -107.0 -347.0C92.0 -280.0 278.0 -177.0 374.0 -11.0Z"/></g>
<g fill="red" transform="translate(1400 800) scale(0.1 -0.1)"><path d="M0.0 0.0V-103.0H304.0V0.0ZM-103.0 206.0V95.0H478.0V206.0ZM97.0 49.0V-208.0H217.0V49.0ZM328.0 -49.0C233.0 -200.0 47.0 -310.0 -151.0 -369.0C-129.0 -395.0 -94.0 -451.0 -81.0 -479.0C125.0 -404.0 324.0 -275.0 441.0 -96.0Z"/></g>
<g fill="black" opacity=".8" transform="translate(1400 800) scale(0.1 -0.1)"><path d="M0.0 0.0V-103.0H307.0V0.0ZM-107.0 204.0V95.0H476.0V204.0ZM95.0 51.0 97.0 -210.0H215.0L214.0 50.0ZM329.0 -46.0C235.0 -200.0 50.0 -309.0 -149.0 -367.0C-128.0 -394.0 -97.0 -452.0 -84.0 -480.0C125.0 -404.0 325.0 -274.0 442.0 -92.0Z"/></g>
<g fill="red" transform="translate(1500 800) scale(0.1 -0.1)"><path d="M0.0 0.0V-30.0H611.0V0.0ZM44.0 182.0V153.0H438.0V182.0ZM238.0 314.0V-26.0H268.0V314.0ZM560.0 275.0C423.0 45.0 198.0 -142.0 -48.0 -256.0C-41.0 -262.0 -31.0 -276.0 -27.0 -283.0C219.0 -161.0 442.0 22.0 587.0 262.0Z"/></g>
<g fill="black" opacity=".8" transform="translate(1500 800) scale(0.1 -0.1)"><path d="M0.0 0.0V-31.0H614.0V0.0ZM36.0 185.0V155.0H441.0V185.0ZM235.0 316.0 237.0 -32.0 267.0 -33.0 266.0 314.0ZM554.0 275.0C421.0 46.0 203.0 -144.0 -39.0 -260.0C-31.0 -265.0 -19.0 -278.0 -16.0 -284.0C226.0 -160.0 440.0 26.0 582.0 263.0Z"/></g>
<g fill="red" transform="translate(1600 800) scale(0.1 -0.1)"><path d="M0.0 0.0V-131.0H647.0V0.0ZM36.0 199.0V73.0H450.0V199.0ZM196.0 281.0V-97.0H342.0V281.0ZM508.0 261.0C402.0 20.0 204.0 -165.0 -40.0 -266.0C-11.0 -296.0 37.0 -359.0 57.0 -392.0C307.0 -269.0 521.0 -59.0 649.0 212.0Z"/></g>
<g fill="black" opacity=".8" transform="translate(1600 800) scale(0.1 -0.1)"><path d="M0.0 0.0V-129.0H648.0V0.0ZM41.0 197.0V71.0H449.0V197.0ZM200.0 284.0 201.0 -96.0H339.0V283.0ZM517.0 259.0C407.0 19.0 203.0 -166.0 -46.0 -265.0C-18.0 -295.0 26.0 -356.0 45.0 -388.0C298.0 -266.0 518.0 -59.0 650.0 211.0Z"/></g>
<g fill="red" transform="translate(100 900) scale(0.1 -0.1)"><path d="M0.0 0.0V-29.0H529.0V0.0ZM40.0 197.0V168.0H375.0V197.0ZM213.0 338.0V-15.0H243.0V338.0ZM470.0 265.0C363.0 55.0 182.0 -112.0 -29.0 -214.0C-21.0 -219.0 -9.0 -231.0 -5.0 -237.0C202.0 -128.0 385.0 35.0 497.0 255.0Z"/></g>
<g fill="black" opacity=".8" transform="translate(100 900) scale(0.1 -0.1)"><path d="M0.0 0.0V-32.0H528.0V0.0ZM39.0 197.0V166.0H381.0V197.0ZM215.0 332.0 210.0 -19.0 242.0 -16.0 247.0 334.0ZM466.0 256.0C361.0 52.0 180.0 -112.0 -26.0 -211.0C-18.0 -217.0 -6.0 -229.0 -2.0 -236.0C203.0 -128.0 383.0 33.0 496.0 245.0Z"/></g>
<g fill="red" transform="translate(200 900) scale(0.1 -0.1)"><path d="M0.0 0.0V-122.0H538.0V0.0ZM27.0 197.0V77.0H368.0V197.0ZM149.0 290.0V-93.0H282.0V290.0ZM412.0 219.0C332.0 -1.0 172.0 -160.0 -42.0 -247.0C-19.0 -274.0 18.0 -331.0 32.0 -360.0C260.0 -252.0 436.0 -68.0 533.0 184.0Z"/></g>
<g fill="black" opacity=".8" transform="translate(200 900) scale(0.1 -0.1)"><path d="M0.0 0.0V-126.0H542.0V0.0ZM27.0 199.0V77.0H363.0V199.0ZM147.0 294.0 145.0 -90.0 283.0 -89.0 285.0 293.0ZM414.0 227.0C332.0 6.0 167.0 -157.0 -45.0 -247.0C-20.0 -275.0 17.0 -335.0 33.0 -365.0C257.0 -253.0 437.0 -63.0 540.0 189.0Z"/></g>
<g fill="red" transform="translate(300 900) scale(0.1 -0.1)"><path d="M0.0 0.0V-30.0H407.0V0.0ZM41.0 192.0V163.0H386.0V192.0ZM203.0 323.0V-17.0H232.0V323.0ZM855.0 275.0C754.0 65.0 586.0 -113.0 398.0 -224.0C405.0 -229.0 416.0 -243.0 420.0 -249.0C609.0 -131.0 776.0 46.0 883.0 265.0Z"/></g>
<g fill="black" opacity=".8" transform="translate(300 900) scale(0.1 -0.1)"><path d="M0.0 0.0V-31.0H408.0V0.0ZM41.0 189.0V161.0H386.0V189.0ZM208.0 315.0 198.0 -17.0 229.0 -11.0 239.0 320.0ZM853.0 276.0C755.0 65.0 588.0 -113.0 398.0 -224.0C405.0 -228.0 417.0 -242.0 420.0 -248.0C612.0 -130.0 776.0 47.0 881.0 266.0Z"/></g>
<g fill="red" transform="translate(400 900) scale(0.1 -0.1)"><path d="M0.0 0.0V-132.0H415.0V0.0ZM44.0 196.0V69.0H405.0V196.0ZM167.0 290.0V-93.0H298.0V290.0ZM811.0 282.0C737.0 47.0 596.0 -142.0 404.0 -250.0C430.0 -275.0 475.0 -329.0 492.0 -357.0C692.0 -227.0 847.0 -13.0 936.0 250.0Z"/></g>
<g fill="black" opacity=".8" transform="translate(400 900) scale(0.1 -0.1)"><path d="M0.0 0.0V-130.0H415.0V0.0ZM44.0 197.0V73.0H404.0V197.0ZM166.0 292.0 163.0 -93.0 298.0 -91.0 303.0 293.0ZM811.0 283.0C739.0 46.0 599.0 -144.0 405.0 -249.0C431.0 -275.0 473.0 -329.0 490.0 -358.0C692.0 -229.0 848.0 -15.0 936.0 251.0Z"/></g>
<g fill="red" transform="translate(500 900) scale(0.1 -0.1)"><path d="M0.0 0.0V-30.0H522.0V0.0ZM48.0 188.0V158.0H402.0V188.0ZM225.0 306.0V-16.0H254.0V306.0ZM492.0 290.0C382.0 61.0 202.0 -123.0 -18.0 -237.0C-11.0 -242.0 2.0 -253.0 7.0 -259.0C222.0 -139.0 403.0 43.0 520.0 280.0Z"/></g>
<g fill="black" opacity=".8" transform="translate(500 900) scale(0.1 -0.1)"><path d="M0.0 0.0V-31.0H513.0V0.0ZM55.0 184.0V154.0H404.0V184.0ZM225.0 318.0 231.0 -19.0 260.0 -23.0 254.0 314.0ZM484.0 274.0C380.0 52.0 203.0 -127.0 -6.0 -238.0C2.0 -244.0 14.0 -255.0 18.0 -262.0C226.0 -143.0 402.0 34.0 513.0 264.0Z"/></g>
<g fill="red" transform="translate(600 900) scale(0.1 -0.1)"><path d="M0.0 0.0V-125.0H509.0V0.0ZM42.0 185.0V61.0H385.0V185.0ZM161.0 277.0V-83.0H295.0V277.0ZM423.0 235.0C343.0 -2.0 186.0 -181.0 -28.0 -280.0C-3.0 -309.0 38.0 -371.0 53.0 -402.0C282.0 -279.0 456.0 -71.0 553.0 199.0Z"/></g>
<g fill="black" opacity=".8" transform="translate(600 900) scale(0.1 -0.1)"><path d="M0.0 0.0V-127.0H523.0V0.0ZM32.0 190.0V63.0H386.0V190.0ZM153.0 274.0 157.0 -86.0 292.0 -87.0 290.0 272.0ZM429.0 249.0C346.0 7.0 182.0 -175.0 -35.0 -275.0C-11.0 -305.0 28.0 -367.0 43.0 -399.0C275.0 -275.0 456.0 -63.0 559.0 210.0Z"/></g>
<g fill="red" transform="translate(700 900) scale(0.1 -0.1)"><path d="M0.0 0.0V-29.0H301.0V0.0ZM-102.0 320.0V290.0H221.0V320.0ZM-315.0 383.0V193.0H-286.0V383.0ZM314.0 402.0C205.0 187.0 33.0 1.0 -164.0 -116.0C-156.0 -122.0 -144.0 -133.0 -138.0 -138.0C55.0 -15.0 227.0 169.0 341.0 392.0Z"/></g>
<g fill="black" opacity=".8" transform="translate(700 900) scale(0.1 -0.1)"><path d="M0.0 0.0V-26.0H285.0V0.0ZM-99.0 319.0V293.0H217.0V319.0ZM-308.0 387.0 -311.0 196.0 -284.0 198.0 -282.0 387.0ZM321.0 398.0C212.0 184.0 41.0 -1.0 -160.0 -119.0C-153.0 -124.0 -143.0 -133.0 -139.0 -138.0C62.0 -15.0 229.0 167.0 346.0 389.0Z"/></g>
<g fill="red" transform="translate(800 900) scale(0.1 -0.1)"><path d="M0.0 0.0V-113.0H266.0V0.0ZM-76.0 361.0V243.0H231.0V361.0ZM-305.0 369.0V112.0H-216.0V369.0ZM285.0 403.0C198.0 182.0 37.0 8.0 -169.0 -91.0C-141.0 -115.0 -94.0 -165.0 -76.0 -191.0C131.0 -74.0 305.0 120.0 408.0 366.0Z"/></g>
<g fill="black" opacity=".8" transform="translate(800 900) scale(0.1 -0.1)"><path d="M0.0 0.0V-110.0H283.0V0.0ZM-81.0 357.0V244.0H237.0V357.0ZM-308.0 368.0V106.0H-223.0L-221.0 368.0ZM286.0 406.0C198.0 184.0 38.0 6.0 -169.0 -92.0C-143.0 -116.0 -101.0 -162.0 -82.0 -187.0C122.0 -70.0 294.0 125.0 400.0 369.0Z"/></g>
<g fill="red" transform="translate(900 900) scale(0.1 -0.1)"><path d="M0.0 0.0V-29.0H499.0V0.0ZM37.0 197.0V168.0H369.0V197.0ZM-165.0 278.0V88.0H-136.0V278.0ZM457.0 265.0C358.0 63.0 190.0 -101.0 -6.0 -201.0C2.0 -207.0 14.0 -218.0 18.0 -224.0C211.0 -117.0 380.0 44.0 485.0 255.0Z"/></g>
<g fill="black" opacity=".8" transform="translate(900 900) scale(0.1 -0.1)"><path d="M0.0 0.0V-32.0H504.0V0.0ZM41.0 198.0V168.0H373.0V198.0ZM-160.0 275.0 -171.0 87.0 -138.0 93.0 -129.0 280.0ZM453.0 261.0C354.0 63.0 182.0 -99.0 -10.0 -199.0C-2.0 -206.0 10.0 -217.0 14.0 -223.0C205.0 -115.0 376.0 45.0 483.0 251.0Z"/></g>
<g fill="red" transform="translate(1000 900) scale(0.1 -0.1)"><path d="M0.0 0.0V-122.0H514.0V0.0ZM40.0 197.0V77.0H365.0V197.0ZM-209.0 219.0V-38.0H-117.0V219.0ZM396.0 219.0C319.0 1.0 167.0 -158.0 -39.0 -247.0C-18.0 -272.0 17.0 -324.0 30.0 -350.0C248.0 -242.0 415.0 -59.0 508.0 188.0Z"/></g>
<g fill="black" opacity=".8" transform="translate(1000 900) scale(0.1 -0.1)"><path d="M0.0 0.0V-125.0H509.0V0.0ZM40.0 199.0V76.0H359.0V199.0ZM-217.0 212.0 -221.0 -31.0 -108.0 -30.0 -103.0 213.0ZM396.0 223.0C319.0 3.0 163.0 -159.0 -43.0 -248.0C-16.0 -274.0 26.0 -325.0 45.0 -351.0C255.0 -242.0 424.0 -59.0 519.0 188.0Z"/></g>
<g fill="red" transform="translate(1100 900) scale(0.1 -0.1)"><path d="M0.0 0.0V-30.0H549.0V0.0ZM41.0 190.0V161.0H405.0V190.0ZM223.0 325.0V-15.0H253.0V325.0ZM491.0 263.0C377.0 52.0 190.0 -121.0 -26.0 -227.0C-19.0 -232.0 -7.0 -244.0 -3.0 -250.0C211.0 -138.0 399.0 32.0 518.0 253.0Z"/></g>
<g fill="black" opacity=".8" transform="translate(1100 900) scale(0.1 -0.1)"><path d="M0.0 0.0V-31.0H551.0V0.0ZM41.0 190.0V160.0H404.0V190.0ZM220.0 329.0V-14.0L250.0 -15.0V328.0ZM492.0 270.0C380.0 55.0 192.0 -121.0 -23.0 -228.0C-15.0 -234.0 -3.0 -246.0 0.0 -252.0C214.0 -137.0 401.0 36.0 521.0 259.0Z"/></g>
<g fill="red" transform="translate(1200 900) scale(0.1 -0.1)"><path d="M0.0 0.0V-128.0H577.0V0.0ZM37.0 197.0V72.0H398.0V197.0ZM164.0 294.0V-80.0H301.0V294.0ZM448.0 253.0C359.0 17.0 187.0 -160.0 -40.0 -258.0C-13.0 -285.0 33.0 -344.0 50.0 -374.0C285.0 -255.0 472.0 -53.0 580.0 213.0Z"/></g>
<g fill="black" opacity=".8" transform="translate(1200 900) scale(0.1 -0.1)"><path d="M0.0 0.0V-126.0H577.0V0.0ZM35.0 196.0V73.0H400.0V196.0ZM168.0 292.0 169.0 -81.0 303.0 -82.0V291.0ZM449.0 247.0C359.0 16.0 185.0 -159.0 -38.0 -255.0C-12.0 -283.0 28.0 -343.0 45.0 -373.0C277.0 -256.0 467.0 -56.0 577.0 206.0Z"/></g>
<g fill="red" transform="translate(1300 900) scale(0.1 -0.1)"><path d="M0.0 0.0V-29.0H587.0V0.0ZM46.0 125.0V95.0H409.0V125.0ZM227.0 190.0V-17.0H257.0V190.0ZM491.0 164.0C369.0 18.0 166.0 -106.0 -30.0 -180.0C-23.0 -186.0 -12.0 -198.0 -7.0 -204.0C184.0 -123.0 387.0 -1.0 517.0 151.0Z"/></g>
<g fill="black" opacity=".8" transform="translate(1300 900) scale(0.1 -0.1)"><path d="M0.0 0.0V-27.0H575.0V0.0ZM51.0 119.0V94.0H414.0V119.0ZM231.0 182.0 224.0 -20.0 252.0 -16.0 259.0 185.0ZM485.0 169.0C371.0 13.0 177.0 -110.0 -21.0 -183.0C-15.0 -189.0 -5.0 -198.0 -3.0 -204.0C195.0 -125.0 387.0 -4.0 509.0 158.0Z"/></g>
<g fill="red" transform="translate(1400 900) scale(0.1 -0.1)"><path d="M0.0 0.0V-86.0H523.0V0.0ZM34.0 113.0V28.0H341.0V113.0ZM132.0 141.0V-57.0H247.0V141.0ZM391.0 141.0C302.0 -2.0 134.0 -113.0 -47.0 -175.0C-25.0 -195.0 10.0 -238.0 24.0 -260.0C206.0 -185.0 385.0 -60.0 489.0 105.0Z"/></g>
<g fill="black" opacity=".8" transform="translate(1400 900) scale(0.1 -0.1)"><path d="M0.0 0.0V-90.0H538.0V0.0ZM27.0 117.0V32.0H337.0V117.0ZM133.0 148.0 130.0 -59.0H246.0L249.0 148.0ZM393.0 142.0C306.0 -6.0 136.0 -112.0 -52.0 -168.0C-32.0 -188.0 -2.0 -233.0 13.0 -255.0C203.0 -186.0 383.0 -66.0 489.0 104.0Z"/></g>
<g fill="red" transform="translate(1500 900) scale(0.1 -0.1)"><path d="M0.0 0.0V-29.0H605.0V0.0ZM51.0 152.0V123.0H449.0V152.0ZM256.0 252.0V-18.0H285.0V252.0ZM538.0 200.0C401.0 29.0 176.0 -115.0 -48.0 -201.0C-40.0 -207.0 -29.0 -218.0 -25.0 -224.0C195.0 -132.0 418.0 8.0 563.0 187.0Z"/></g>
<g fill="black" opacity=".8" transform="translate(1500 900) scale(0.1 -0.1)"><path d="M0.0 0.0V-28.0H593.0V0.0ZM49.0 144.0V117.0H451.0V144.0ZM254.0 237.0 247.0 -10.0 276.0 -6.0 283.0 240.0ZM536.0 199.0C409.0 23.0 194.0 -118.0 -29.0 -202.0C-22.0 -208.0 -12.0 -219.0 -9.0 -225.0C213.0 -134.0 424.0 4.0 562.0 187.0Z"/></g>
<g fill="red" transform="translate(1600 900) scale(0.1 -0.1)"><path d="M0.0 0.0V-104.0H549.0V0.0ZM36.0 146.0V42.0H394.0V146.0ZM165.0 196.0V-31.0H287.0V196.0ZM458.0 178.0C355.0 16.0 164.0 -108.0 -39.0 -176.0C-14.0 -201.0 26.0 -257.0 44.0 -285.0C245.0 -202.0 448.0 -62.0 571.0 125.0Z"/></g>
<g fill="black" opacity=".8" transform="translate(1600 900) scale(0.1 -0.1)"><path d="M0.0 0.0V-100.0H567.0V0.0ZM33.0 149.0V53.0H395.0V149.0ZM170.0 212.0 167.0 -46.0H293.0L296.0 212.0ZM456.0 179.0C354.0 10.0 161.0 -113.0 -52.0 -178.0C-30.0 -202.0 3.0 -252.0 19.0 -277.0C234.0 -196.0 439.0 -57.0 562.0 135.0Z"/></g>
<g fill="red" transform="translate(100 1000) scale(0.1 -0.1)"><path d="M0.0 0.0V-30.0H586.0V0.0ZM39.0 182.0V153.0H429.0V182.0ZM225.0 314.0V-26.0H252.0V314.0ZM533.0 275.0C410.0 49.0 209.0 -137.0 -11.0 -247.0C-5.0 -254.0 5.0 -268.0 9.0 -275.0C228.0 -155.0 428.0 26.0 558.0 262.0Z"/></g>
<g fill="black" opacity=".8" transform="translate(100 1000) scale(0.1 -0.1)"><path d="M0.0 0.0V-32.0H588.0V0.0ZM40.0 187.0V157.0H429.0V187.0ZM228.0 316.0V-26.0H259.0V315.0ZM526.0 277.0C406.0 51.0 207.0 -136.0 -20.0 -251.0C-12.0 -257.0 0.0 -269.0 4.0 -276.0C230.0 -153.0 427.0 31.0 556.0 266.0Z"/></g>
<g fill="red" transform="translate(200 1000) scale(0.1 -0.1)"><path d="M0.0 0.0V-131.0H609.0V0.0ZM34.0 199.0V73.0H415.0V199.0ZM177.0 281.0V-97.0H314.0V281.0ZM470.0 261.0C371.0 21.0 188.0 -164.0 -39.0 -266.0C-12.0 -295.0 34.0 -359.0 52.0 -392.0C285.0 -269.0 484.0 -58.0 602.0 213.0Z"/></g>
<g fill="black" opacity=".8" transform="translate(200 1000) scale(0.1 -0.1)"><path d="M0.0 0.0V-129.0H607.0V0.0ZM34.0 194.0V68.0H415.0V194.0ZM171.0 278.0 172.0 -94.0 310.0 -95.0V277.0ZM471.0 255.0C377.0 16.0 196.0 -166.0 -36.0 -266.0C-8.0 -295.0 35.0 -356.0 54.0 -387.0C292.0 -265.0 489.0 -58.0 605.0 212.0Z"/></g>
<g fill="red" transform="translate(300 1000) scale(0.1 -0.1)"><path d="M0.0 0.0V-29.0H375.0V0.0ZM35.0 128.0V98.0H266.0V128.0ZM409.0 357.0V-124.0H438.0V357.0ZM323.0 170.0C252.0 24.0 121.0 -94.0 -25.0 -166.0C-18.0 -171.0 -6.0 -183.0 -1.0 -189.0C142.0 -110.0 275.0 8.0 352.0 161.0Z"/></g>
<g fill="black" opacity=".8" transform="translate(300 1000) scale(0.1 -0.1)"><path d="M0.0 0.0V-25.0H363.0V0.0ZM39.0 127.0V103.0H264.0V127.0ZM432.0 348.0 397.0 -125.0 427.0 -106.0 461.0 366.0ZM328.0 167.0C255.0 20.0 123.0 -97.0 -29.0 -167.0C-23.0 -171.0 -15.0 -181.0 -12.0 -187.0C141.0 -110.0 272.0 5.0 352.0 160.0Z"/></g>
<g fill="red" transform="translate(400 1000) scale(0.1 -0.1)"><path d="M0.0 0.0V-100.0H388.0V0.0ZM53.0 126.0V36.0H265.0V126.0ZM397.0 375.0V-147.0H511.0V375.0ZM306.0 147.0C248.0 10.0 130.0 -99.0 -6.0 -162.0C11.0 -185.0 38.0 -237.0 46.0 -261.0C201.0 -180.0 332.0 -47.0 404.0 119.0Z"/></g>
<g fill="black" opacity=".8" transform="translate(400 1000) scale(0.1 -0.1)"><path d="M0.0 0.0V-100.0H398.0V0.0ZM51.0 125.0V37.0H264.0V125.0ZM391.0 362.0 375.0 -146.0 509.0 -141.0 525.0 366.0ZM307.0 155.0C251.0 9.0 139.0 -105.0 -4.0 -166.0C13.0 -188.0 40.0 -235.0 50.0 -259.0C205.0 -180.0 329.0 -46.0 400.0 126.0Z"/></g>
<g fill="red" transform="translate(500 1000) scale(0.1 -0.1)"><path d="M0.0 0.0V-29.0H883.0V0.0ZM83.0 166.0V136.0H675.0V166.0ZM376.0 289.0V-16.0H406.0V289.0ZM797.0 250.0C604.0 21.0 302.0 -165.0 -11.0 -276.0C-3.0 -282.0 8.0 -295.0 12.0 -302.0C319.0 -184.0 618.0 -4.0 822.0 234.0Z"/></g>
<g fill="black" opacity=".8" transform="translate(500 1000) scale(0.1 -0.1)"><path d="M0.0 0.0V-34.0H892.0V0.0ZM85.0 169.0V136.0H672.0V169.0ZM379.0 291.0V-13.0H412.0V290.0ZM790.0 252.0C601.0 21.0 293.0 -164.0 -22.0 -274.0C-13.0 -281.0 -1.0 -296.0 3.0 -303.0C315.0 -185.0 617.0 -4.0 819.0 236.0Z"/></g>
<g fill="red" transform="translate(600 1000) scale(0.1 -0.1)"><path d="M0.0 0.0V-124.0H919.0V0.0ZM92.0 179.0V57.0H655.0V179.0ZM331.0 269.0V-64.0H475.0V269.0ZM741.0 232.0C567.0 14.0 271.0 -161.0 -33.0 -256.0C-6.0 -284.0 37.0 -343.0 56.0 -373.0C355.0 -263.0 664.0 -77.0 863.0 164.0Z"/></g>
<g fill="black" opacity=".8" transform="translate(600 1000) scale(0.1 -0.1)"><path d="M0.0 0.0V-129.0H909.0V0.0ZM93.0 178.0V54.0H657.0V178.0ZM320.0 261.0 321.0 -58.0 480.0 -59.0 479.0 260.0ZM731.0 233.0C570.0 8.0 279.0 -160.0 -32.0 -247.0C-2.0 -277.0 45.0 -341.0 67.0 -374.0C373.0 -269.0 679.0 -87.0 869.0 167.0Z"/></g>
<g fill="red" transform="translate(700 1000) scale(0.1 -0.1)"><path d="M0.0 0.0V-30.0H596.0V0.0ZM39.0 182.0V153.0H428.0V182.0ZM223.0 314.0V-17.0H253.0V314.0ZM523.0 223.0C386.0 18.0 157.0 -147.0 -81.0 -246.0C-75.0 -253.0 -65.0 -267.0 -61.0 -274.0C177.0 -167.0 406.0 -4.0 551.0 210.0Z"/></g>
<g fill="black" opacity=".8" transform="translate(700 1000) scale(0.1 -0.1)"><path d="M0.0 0.0V-32.0H594.0V0.0ZM34.0 185.0V155.0H424.0V185.0ZM223.0 312.0 219.0 -31.0 250.0 -29.0 255.0 313.0ZM523.0 228.0C390.0 20.0 167.0 -148.0 -75.0 -249.0C-67.0 -255.0 -55.0 -268.0 -51.0 -274.0C189.0 -165.0 410.0 -1.0 552.0 216.0Z"/></g>
<g fill="red" transform="translate(800 1000) scale(0.1 -0.1)"><path d="M0.0 0.0V-131.0H608.0V0.0ZM34.0 199.0V73.0H417.0V199.0ZM178.0 281.0V-97.0H317.0V281.0ZM471.0 215.0C372.0 -13.0 174.0 -166.0 -85.0 -245.0C-57.0 -276.0 -10.0 -340.0 8.0 -373.0C274.0 -273.0 491.0 -95.0 614.0 167.0Z"/></g>
<g fill="black" opacity=".8" transform="translate(800 1000) scale(0.1 -0.1)"><path d="M0.0 0.0V-125.0H615.0V0.0ZM36.0 195.0V75.0H423.0V195.0ZM179.0 286.0 177.0 -92.0 315.0 -91.0 318.0 286.0ZM484.0 207.0C372.0 -7.0 162.0 -167.0 -82.0 -252.0C-57.0 -281.0 -18.0 -341.0 -1.0 -372.0C249.0 -266.0 475.0 -85.0 609.0 158.0Z"/></g>
<g fill="red" transform="translate(900 1000) scale(0.1 -0.1)"><path d="M0.0 0.0V-29.0H328.0V0.0ZM-84.0 173.0V143.0H503.0V173.0ZM160.0 98.0V-154.0H190.0V98.0ZM370.0 2.0C275.0 -163.0 84.0 -269.0 -126.0 -329.0C-119.0 -336.0 -109.0 -349.0 -105.0 -356.0C102.0 -289.0 298.0 -181.0 398.0 -8.0Z"/></g>
<g fill="black" opacity=".8" transform="translate(900 1000) scale(0.1 -0.1)"><path d="M0.0 0.0V-30.0H333.0V0.0ZM-82.0 174.0V143.0H503.0V174.0ZM164.0 98.0 162.0 -153.0 193.0 -152.0 195.0 98.0ZM369.0 -1.0C274.0 -164.0 79.0 -268.0 -132.0 -328.0C-125.0 -335.0 -114.0 -347.0 -111.0 -355.0C99.0 -287.0 296.0 -182.0 399.0 -11.0Z"/></g>
<g fill="red" transform="translate(1000 1000) scale(0.1 -0.1)"><path d="M0.0 0.0V-103.0H316.0V0.0ZM-115.0 206.0V95.0H502.0V206.0ZM101.0 49.0V-208.0H226.0V49.0ZM332.0 -53.0C232.0 -201.0 38.0 -308.0 -166.0 -365.0C-145.0 -392.0 -111.0 -451.0 -99.0 -479.0C117.0 -405.0 326.0 -277.0 447.0 -101.0Z"/></g>
<g fill="black" opacity=".8" transform="translate(1000 1000) scale(0.1 -0.1)"><path d="M0.0 0.0V-104.0H312.0V0.0ZM-116.0 205.0V94.0H502.0V205.0ZM97.0 48.0 96.0 -206.0H224.0V47.0ZM332.0 -49.0C235.0 -201.0 42.0 -309.0 -161.0 -365.0C-139.0 -393.0 -107.0 -452.0 -93.0 -481.0C121.0 -407.0 328.0 -278.0 448.0 -97.0Z"/></g>
<g fill="red" transform="translate(1100 1000) scale(0.1 -0.1)"><path d="M0.0 0.0V-30.0H580.0V0.0ZM39.0 182.0V153.0H424.0V182.0ZM220.0 314.0V-26.0H247.0V314.0ZM524.0 275.0C399.0 48.0 194.0 -137.0 -28.0 -247.0C-22.0 -254.0 -13.0 -268.0 -10.0 -275.0C212.0 -155.0 417.0 25.0 548.0 262.0Z"/></g>
<g fill="black" opacity=".8" transform="translate(1100 1000) scale(0.1 -0.1)"><path d="M0.0 0.0V-32.0H580.0V0.0ZM40.0 187.0V156.0H422.0V187.0ZM223.0 316.0 224.0 -28.0H255.0L254.0 315.0ZM516.0 275.0C395.0 49.0 194.0 -137.0 -35.0 -252.0C-26.0 -258.0 -15.0 -270.0 -11.0 -276.0C217.0 -154.0 416.0 30.0 546.0 265.0Z"/></g>
<g fill="red" transform="translate(1200 1000) scale(0.1 -0.1)"><path d="M0.0 0.0V-131.0H597.0V0.0ZM34.0 199.0V73.0H407.0V199.0ZM175.0 281.0V-97.0H309.0V281.0ZM463.0 261.0C362.0 19.0 177.0 -165.0 -52.0 -266.0C-25.0 -296.0 20.0 -359.0 37.0 -392.0C272.0 -270.0 473.0 -60.0 592.0 211.0Z"/></g>
<g fill="black" opacity=".8" transform="translate(1200 1000) scale(0.1 -0.1)"><path d="M0.0 0.0V-129.0H598.0V0.0ZM33.0 195.0V69.0H409.0V195.0ZM167.0 279.0 168.0 -95.0H306.0V278.0ZM463.0 254.0C367.0 16.0 182.0 -166.0 -51.0 -265.0C-24.0 -294.0 18.0 -356.0 37.0 -387.0C278.0 -266.0 478.0 -59.0 596.0 211.0Z"/></g>
<g fill="red" transform="translate(1300 1000) scale(0.1 -0.1)"><path d="M0.0 0.0V-29.0H406.0V0.0ZM-17.0 311.0V281.0H394.0V311.0ZM166.0 441.0V119.0H196.0V441.0ZM476.0 399.0C346.0 146.0 143.0 -64.0 -102.0 -197.0C-94.0 -203.0 -82.0 -213.0 -76.0 -219.0C163.0 -81.0 366.0 127.0 503.0 388.0Z"/></g>
<g fill="black" opacity=".8" transform="translate(1300 1000) scale(0.1 -0.1)"><path d="M0.0 0.0V-32.0H409.0V0.0ZM-19.0 315.0V284.0H387.0V315.0ZM163.0 452.0 179.0 124.0 208.0 116.0 192.0 442.0ZM478.0 404.0C350.0 148.0 141.0 -64.0 -111.0 -197.0C-102.0 -203.0 -89.0 -213.0 -85.0 -220.0C165.0 -81.0 371.0 128.0 509.0 393.0Z"/></g>
<g fill="red" transform="translate(1400 1000) scale(0.1 -0.1)"><path d="M0.0 0.0V-116.0H352.0V0.0ZM-67.0 351.0V230.0H321.0V351.0ZM71.0 442.0V91.0H212.0V442.0ZM383.0 412.0C280.0 154.0 89.0 -45.0 -152.0 -153.0C-131.0 -188.0 -100.0 -259.0 -90.0 -295.0C178.0 -157.0 391.0 78.0 512.0 369.0Z"/></g>
<g fill="black" opacity=".8" transform="translate(1400 1000) scale(0.1 -0.1)"><path d="M0.0 0.0V-123.0H348.0V0.0ZM-65.0 350.0V219.0H328.0V350.0ZM67.0 438.0 75.0 92.0 208.0 90.0 201.0 435.0ZM379.0 406.0C278.0 152.0 87.0 -48.0 -152.0 -156.0C-128.0 -188.0 -92.0 -254.0 -77.0 -288.0C180.0 -153.0 389.0 76.0 511.0 363.0Z"/></g>
<g fill="red" transform="translate(1500 1000) scale(0.1 -0.1)"><path d="M0.0 0.0V-29.0H327.0V0.0ZM-95.0 173.0V143.0H492.0V173.0ZM159.0 98.0V-154.0H189.0V98.0ZM369.0 2.0C269.0 -165.0 67.0 -270.0 -152.0 -329.0C-144.0 -336.0 -135.0 -349.0 -131.0 -356.0C86.0 -290.0 292.0 -184.0 397.0 -9.0Z"/></g>
<g fill="black" opacity=".8" transform="translate(1500 1000) scale(0.1 -0.1)"><path d="M0.0 0.0V-29.0H329.0V0.0ZM-94.0 172.0V142.0H497.0V172.0ZM155.0 98.0V-155.0H184.0L185.0 97.0ZM370.0 0.0C269.0 -163.0 69.0 -269.0 -148.0 -330.0C-140.0 -336.0 -130.0 -349.0 -127.0 -356.0C88.0 -288.0 290.0 -181.0 398.0 -9.0Z"/></g>
<g fill="red" transform="translate(1600 1000) scale(0.1 -0.1)"><path d="M0.0 0.0V-103.0H325.0V0.0ZM-115.0 206.0V95.0H525.0V206.0ZM107.0 51.0V-206.0H232.0V51.0ZM352.0 -42.0C248.0 -196.0 47.0 -307.0 -167.0 -366.0C-145.0 -392.0 -109.0 -449.0 -95.0 -477.0C127.0 -402.0 342.0 -272.0 468.0 -90.0Z"/></g>
<g fill="black" opacity=".8" transform="translate(1600 1000) scale(0.1 -0.1)"><path d="M0.0 0.0V-103.0H326.0V0.0ZM-117.0 207.0V96.0H521.0V207.0ZM111.0 53.0 112.0 -206.0H235.0V52.0ZM353.0 -41.0C248.0 -195.0 44.0 -306.0 -167.0 -364.0C-146.0 -391.0 -113.0 -450.0 -99.0 -479.0C121.0 -404.0 339.0 -273.0 469.0 -92.0Z"/></g>
<g fill="red" transform="translate(100 1100) scale(0.1 -0.1)"><path d="M0.0 0.0V-29.0H402.0V0.0ZM26.0 196.0V167.0H287.0V196.0ZM146.0 323.0V-12.0H175.0V323.0ZM360.0 294.0C280.0 75.0 148.0 -112.0 -22.0 -229.0C-14.0 -234.0 -1.0 -245.0 4.0 -250.0C171.0 -126.0 304.0 58.0 388.0 286.0Z"/></g>
<g fill="black" opacity=".8" transform="translate(100 1100) scale(0.1 -0.1)"><path d="M0.0 0.0V-30.0H411.0V0.0ZM28.0 193.0V164.0H289.0V193.0ZM146.0 323.0 147.0 -14.0 176.0 -15.0 175.0 321.0ZM360.0 286.0C281.0 71.0 145.0 -111.0 -28.0 -225.0C-20.0 -230.0 -8.0 -240.0 -5.0 -246.0C168.0 -125.0 303.0 55.0 389.0 279.0Z"/></g>
<g fill="red" transform="translate(200 1100) scale(0.1 -0.1)"><path d="M0.0 0.0V-118.0H419.0V0.0ZM8.0 193.0V78.0H256.0V193.0ZM79.0 282.0V-92.0H197.0V282.0ZM298.0 255.0C238.0 29.0 118.0 -150.0 -58.0 -253.0C-34.0 -278.0 5.0 -332.0 20.0 -359.0C209.0 -234.0 343.0 -29.0 418.0 228.0Z"/></g>
<g fill="black" opacity=".8" transform="translate(200 1100) scale(0.1 -0.1)"><path d="M0.0 0.0V-121.0H413.0V0.0ZM6.0 197.0V77.0H254.0V197.0ZM76.0 282.0 77.0 -87.0H199.0L198.0 281.0ZM292.0 263.0C238.0 29.0 124.0 -151.0 -53.0 -251.0C-29.0 -278.0 9.0 -335.0 25.0 -364.0C217.0 -239.0 347.0 -30.0 417.0 236.0Z"/></g>
<g fill="red" transform="translate(300 1100) scale(0.1 -0.1)"><path d="M0.0 0.0V-29.0H407.0V0.0ZM-16.0 311.0V281.0H386.0V311.0ZM167.0 441.0V119.0H196.0V441.0ZM477.0 399.0C342.0 145.0 134.0 -65.0 -117.0 -197.0C-108.0 -203.0 -97.0 -213.0 -92.0 -219.0C154.0 -82.0 363.0 125.0 504.0 388.0Z"/></g>
<g fill="black" opacity=".8" transform="translate(300 1100) scale(0.1 -0.1)"><path d="M0.0 0.0V-31.0H407.0V0.0ZM-20.0 315.0V283.0H382.0V315.0ZM161.0 450.0 174.0 121.0 203.0 114.0 191.0 442.0ZM475.0 401.0C345.0 146.0 136.0 -65.0 -116.0 -199.0C-107.0 -205.0 -94.0 -215.0 -90.0 -222.0C160.0 -83.0 366.0 127.0 505.0 390.0Z"/></g>
<g fill="red" transform="translate(400 1100) scale(0.1 -0.1)"><path d="M0.0 0.0V-116.0H343.0V0.0ZM-64.0 351.0V230.0H314.0V351.0ZM69.0 442.0V91.0H206.0V442.0ZM373.0 412.0C272.0 153.0 85.0 -44.0 -155.0 -152.0C-130.0 -182.0 -87.0 -243.0 -70.0 -274.0C180.0 -143.0 383.0 80.0 503.0 369.0Z"/></g>
<g fill="black" opacity=".8" transform="translate(400 1100) scale(0.1 -0.1)"><path d="M0.0 0.0V-121.0H344.0V0.0ZM-62.0 350.0V222.0H319.0V350.0ZM67.0 440.0 74.0 91.0 205.0 89.0 200.0 438.0ZM371.0 406.0C271.0 157.0 83.0 -40.0 -152.0 -146.0C-129.0 -177.0 -92.0 -242.0 -76.0 -275.0C175.0 -143.0 381.0 82.0 502.0 363.0Z"/></g>
<g fill="red" transform="translate(500 1100) scale(0.1 -0.1)"><path d="M0.0 0.0V-30.0H583.0V0.0ZM51.0 184.0V155.0H431.0V184.0ZM223.0 324.0V-16.0H253.0V324.0ZM521.0 268.0C408.0 39.0 215.0 -141.0 -9.0 -250.0C-2.0 -257.0 9.0 -271.0 12.0 -277.0C237.0 -160.0 429.0 18.0 549.0 258.0Z"/></g>
<g fill="black" opacity=".8" transform="translate(500 1100) scale(0.1 -0.1)"><path d="M0.0 0.0V-33.0H586.0V0.0ZM47.0 185.0V153.0H428.0V185.0ZM229.0 321.0 224.0 -13.0 258.0 -10.0 262.0 323.0ZM520.0 265.0C405.0 42.0 209.0 -140.0 -12.0 -252.0C-3.0 -259.0 9.0 -271.0 13.0 -278.0C234.0 -158.0 427.0 22.0 551.0 254.0Z"/></g>
<g fill="red" transform="translate(600 1100) scale(0.1 -0.1)"><path d="M0.0 0.0V-124.0H577.0V0.0ZM20.0 184.0V63.0H372.0V184.0ZM143.0 282.0V-78.0H281.0V282.0ZM434.0 234.0C348.0 6.0 181.0 -166.0 -36.0 -261.0C-13.0 -289.0 26.0 -351.0 39.0 -381.0C273.0 -264.0 456.0 -65.0 560.0 196.0Z"/></g>
<g fill="black" opacity=".8" transform="translate(600 1100) scale(0.1 -0.1)"><path d="M0.0 0.0V-128.0H575.0V0.0ZM25.0 186.0V62.0H374.0V186.0ZM137.0 281.0 135.0 -78.0 279.0 -77.0 281.0 280.0ZM433.0 235.0C348.0 6.0 179.0 -166.0 -40.0 -260.0C-13.0 -289.0 29.0 -350.0 47.0 -381.0C275.0 -264.0 460.0 -66.0 566.0 196.0Z"/></g>
<g fill="red" transform="translate(700 1100) scale(0.1 -0.1)"><path d="M0.0 0.0V-29.0H504.0V0.0ZM-60.0 258.0V230.0H500.0V258.0ZM79.0 504.0V296.0H107.0V504.0ZM587.0 326.0C408.0 119.0 115.0 -36.0 -192.0 -125.0C-184.0 -132.0 -173.0 -145.0 -168.0 -151.0C132.0 -55.0 424.0 96.0 613.0 310.0Z"/></g>
<g fill="black" opacity=".8" transform="translate(700 1100) scale(0.1 -0.1)"><path d="M0.0 0.0V-31.0H509.0V0.0ZM-62.0 253.0V222.0H491.0V253.0ZM79.0 504.0 75.0 287.0 107.0 290.0 110.0 504.0ZM583.0 318.0C409.0 114.0 120.0 -36.0 -183.0 -125.0C-175.0 -133.0 -163.0 -144.0 -158.0 -150.0C139.0 -56.0 426.0 92.0 611.0 303.0Z"/></g>
<g fill="red" transform="translate(800 1100) scale(0.1 -0.1)"><path d="M0.0 0.0V-106.0H433.0V0.0ZM-111.0 273.0V164.0H452.0V273.0ZM-28.0 514.0V296.0H115.0V514.0ZM518.0 303.0C355.0 120.0 60.0 -12.0 -233.0 -77.0C-214.0 -106.0 -185.0 -164.0 -175.0 -194.0C128.0 -111.0 438.0 34.0 625.0 242.0Z"/></g>
<g fill="black" opacity=".8" transform="translate(800 1100) scale(0.1 -0.1)"><path d="M0.0 0.0V-105.0H435.0V0.0ZM-110.0 283.0V167.0H461.0V283.0ZM-34.0 516.0 -35.0 299.0 119.0 300.0 120.0 516.0ZM515.0 311.0C352.0 125.0 55.0 -7.0 -238.0 -71.0C-220.0 -103.0 -194.0 -166.0 -183.0 -197.0C122.0 -113.0 435.0 36.0 625.0 247.0Z"/></g>
<g fill="red" transform="translate(900 1100) scale(0.1 -0.1)"><path d="M0.0 0.0V-29.0H455.0V0.0ZM44.0 129.0V99.0H345.0V129.0ZM187.0 206.0V-23.0H217.0V206.0ZM410.0 167.0C315.0 12.0 148.0 -115.0 -23.0 -194.0C-16.0 -199.0 -5.0 -212.0 -1.0 -219.0C169.0 -134.0 336.0 -5.0 437.0 156.0Z"/></g>
<g fill="black" opacity=".8" transform="translate(900 1100) scale(0.1 -0.1)"><path d="M0.0 0.0V-23.0H456.0V0.0ZM52.0 122.0V100.0H344.0V122.0ZM188.0 205.0 187.0 -29.0 210.0 -28.0 211.0 205.0ZM412.0 165.0C318.0 9.0 161.0 -119.0 -12.0 -197.0C-6.0 -201.0 2.0 -210.0 5.0 -215.0C177.0 -131.0 332.0 -6.0 434.0 157.0Z"/></g>
<g fill="red" transform="translate(1000 1100) scale(0.1 -0.1)"><path d="M0.0 0.0V-100.0H455.0V0.0ZM56.0 127.0V32.0H321.0V127.0ZM138.0 172.0V-69.0H244.0V172.0ZM367.0 153.0C293.0 -9.0 150.0 -126.0 -15.0 -188.0C4.0 -213.0 34.0 -265.0 46.0 -291.0C216.0 -213.0 371.0 -77.0 460.0 112.0Z"/></g>
<g fill="black" opacity=".8" transform="translate(1000 1100) scale(0.1 -0.1)"><path d="M0.0 0.0V-90.0H460.0V0.0ZM45.0 126.0V39.0H325.0V126.0ZM142.0 180.0V-73.0L242.0 -72.0L243.0 179.0ZM366.0 148.0C291.0 -12.0 148.0 -132.0 -24.0 -196.0C-5.0 -217.0 24.0 -261.0 37.0 -283.0C213.0 -203.0 368.0 -67.0 459.0 115.0Z"/></g>
<g fill="red" transform="translate(1100 1100) scale(0.1 -0.1)"><path d="M0.0 0.0V-29.0H883.0V0.0ZM3.0 283.0V254.0H498.0V283.0ZM378.0 148.0V-11.0H408.0V148.0ZM784.0 157.0C592.0 16.0 266.0 -90.0 -25.0 -145.0C-19.0 -152.0 -9.0 -167.0 -5.0 -174.0C280.0 -112.0 605.0 -10.0 809.0 138.0Z"/></g>
<g fill="black" opacity=".8" transform="translate(1100 1100) scale(0.1 -0.1)"><path d="M0.0 0.0V-32.0H882.0V0.0ZM1.0 294.0V264.0H505.0V294.0ZM353.0 180.0 392.0 -1.0 418.0 -23.0 378.0 157.0ZM790.0 162.0C599.0 14.0 269.0 -90.0 -30.0 -145.0C-22.0 -152.0 -12.0 -166.0 -10.0 -174.0C286.0 -112.0 613.0 -12.0 816.0 143.0Z"/></g>
<g fill="red" transform="translate(1200 1100) scale(0.1 -0.1)"><path d="M0.0 0.0V-98.0H896.0V0.0ZM5.0 310.0V249.0H505.0V310.0ZM311.0 149.0V-63.0H449.0V149.0ZM771.0 152.0C599.0 -8.0 278.0 -111.0 -32.0 -158.0C-14.0 -183.0 14.0 -237.0 25.0 -263.0C336.0 -203.0 669.0 -93.0 868.0 90.0Z"/></g>
<g fill="black" opacity=".8" transform="translate(1200 1100) scale(0.1 -0.1)"><path d="M0.0 0.0V-106.0H894.0V0.0ZM4.0 312.0V218.0H500.0V312.0ZM323.0 138.0 341.0 -62.0 453.0 -68.0 435.0 131.0ZM764.0 146.0C591.0 -9.0 270.0 -107.0 -37.0 -152.0C-14.0 -177.0 18.0 -232.0 34.0 -258.0C334.0 -200.0 666.0 -97.0 868.0 80.0Z"/></g>
<g fill="red" transform="translate(1300 1100) scale(0.1 -0.1)"><path d="M0.0 0.0V-29.0H485.0V0.0ZM31.0 197.0V168.0H322.0V197.0ZM161.0 338.0V-15.0H194.0V338.0ZM448.0 265.0C345.0 60.0 172.0 -105.0 -31.0 -205.0C-23.0 -211.0 -11.0 -222.0 -6.0 -228.0C193.0 -121.0 367.0 41.0 476.0 255.0Z"/></g>
<g fill="black" opacity=".8" transform="translate(1300 1100) scale(0.1 -0.1)"><path d="M0.0 0.0V-31.0H484.0V0.0ZM32.0 195.0V165.0H332.0V195.0ZM172.0 331.0 169.0 -16.0 199.0 -14.0 202.0 332.0ZM439.0 259.0C338.0 58.0 164.0 -105.0 -35.0 -204.0C-27.0 -210.0 -15.0 -221.0 -11.0 -228.0C186.0 -120.0 359.0 40.0 467.0 249.0Z"/></g>
<g fill="red" transform="translate(1400 1100) scale(0.1 -0.1)"><path d="M0.0 0.0V-122.0H504.0V0.0ZM22.0 197.0V77.0H337.0V197.0ZM125.0 290.0V-93.0H256.0V290.0ZM402.0 225.0C311.0 25.0 145.0 -145.0 -40.0 -241.0C-22.0 -272.0 4.0 -337.0 13.0 -368.0C222.0 -246.0 405.0 -45.0 513.0 185.0Z"/></g>
<g fill="black" opacity=".8" transform="translate(1400 1100) scale(0.1 -0.1)"><path d="M0.0 0.0V-125.0H505.0V0.0ZM22.0 199.0V78.0H328.0V199.0ZM117.0 295.0 116.0 -90.0 247.0 -89.0 249.0 294.0ZM400.0 235.0C319.0 13.0 157.0 -152.0 -52.0 -243.0C-28.0 -271.0 8.0 -329.0 23.0 -359.0C245.0 -246.0 422.0 -54.0 522.0 197.0Z"/></g>
<g fill="red" transform="translate(1500 1100) scale(0.1 -0.1)"><path d="M0.0 0.0V-30.0H610.0V0.0ZM51.0 132.0V102.0H435.0V132.0ZM225.0 213.0V-16.0H254.0V213.0ZM524.0 198.0C397.0 20.0 194.0 -130.0 -18.0 -222.0C-10.0 -228.0 2.0 -240.0 7.0 -245.0C214.0 -147.0 417.0 0.0 551.0 186.0Z"/></g>
<g fill="black" opacity=".8" transform="translate(1500 1100) scale(0.1 -0.1)"><path d="M0.0 0.0V-28.0H605.0V0.0ZM43.0 131.0V105.0H438.0V131.0ZM225.0 215.0 224.0 -23.0 251.0 -22.0 252.0 214.0ZM539.0 196.0C411.0 16.0 199.0 -128.0 -23.0 -216.0C-16.0 -221.0 -6.0 -232.0 -3.0 -238.0C218.0 -144.0 426.0 -2.0 563.0 185.0Z"/></g>
<g fill="red" transform="translate(1600 1100) scale(0.1 -0.1)"><path d="M0.0 0.0V-108.0H599.0V0.0ZM29.0 141.0V36.0H412.0V141.0ZM153.0 181.0V-76.0H291.0V181.0ZM484.0 173.0C381.0 -5.0 179.0 -131.0 -50.0 -196.0C-26.0 -223.0 13.0 -280.0 28.0 -308.0C264.0 -225.0 480.0 -81.0 605.0 126.0Z"/></g>
<g fill="black" opacity=".8" transform="translate(1600 1100) scale(0.1 -0.1)"><path d="M0.0 0.0V-103.0H604.0V0.0ZM35.0 136.0V36.0H410.0V136.0ZM162.0 182.0V-70.0H284.0L285.0 181.0ZM482.0 176.0C376.0 -6.0 179.0 -140.0 -42.0 -210.0C-20.0 -234.0 15.0 -284.0 32.0 -310.0C254.0 -223.0 464.0 -74.0 590.0 131.0Z"/></g>
<g fill="red" transform="translate(100 1200) scale(0.1 -0.1)"><path d="M0.0 0.0V-29.0H525.0V0.0ZM29.0 191.0V162.0H369.0V191.0ZM187.0 328.0V-16.0H216.0V328.0ZM449.0 292.0C345.0 73.0 180.0 -114.0 -17.0 -230.0C-8.0 -236.0 3.0 -247.0 9.0 -252.0C201.0 -129.0 368.0 55.0 478.0 282.0Z"/></g>
<g fill="black" opacity=".8" transform="translate(100 1200) scale(0.1 -0.1)"><path d="M0.0 0.0V-30.0H519.0V0.0ZM28.0 187.0V158.0H367.0V187.0ZM189.0 330.0 190.0 1.0H219.0V329.0ZM459.0 284.0C354.0 67.0 179.0 -114.0 -25.0 -226.0C-17.0 -231.0 -5.0 -242.0 -2.0 -249.0C202.0 -129.0 374.0 49.0 487.0 275.0Z"/></g>
<g fill="red" transform="translate(200 1200) scale(0.1 -0.1)"><path d="M0.0 0.0V-126.0H527.0V0.0ZM14.0 193.0V69.0H343.0V193.0ZM128.0 297.0V-54.0H258.0V297.0ZM413.0 254.0C325.0 30.0 161.0 -146.0 -49.0 -245.0C-24.0 -269.0 17.0 -322.0 34.0 -349.0C250.0 -231.0 428.0 -34.0 532.0 218.0Z"/></g>
<g fill="black" opacity=".8" transform="translate(200 1200) scale(0.1 -0.1)"><path d="M0.0 0.0V-122.0H531.0V0.0ZM15.0 192.0V72.0H344.0V192.0ZM126.0 294.0 127.0 -63.0H258.0L257.0 292.0ZM399.0 264.0C320.0 32.0 164.0 -144.0 -45.0 -241.0C-19.0 -269.0 21.0 -327.0 39.0 -356.0C256.0 -237.0 427.0 -35.0 526.0 227.0Z"/></g>
</svg>
