<?xml version="1.0" encoding="UTF-8"?>
<svg width="1700" height="400" xmlns="http://www.w3.org/2000/svg">
<rect width="100%" height="100%" fill="white"/>
<g fill="green" transform="translate(100 100) scale(0.1 -0.1)"><path d="M-0.0 0.0V-1028.0H31.0V0.0ZM-303.0 -691.0V-721.0H333.0V-691.0ZM-394.0 -223.0V-253.0H473.0V-223.0ZM371.0 -465.0V-984.0H351.0V-465.0ZM-321.0 -83.0V-115.0H301.0V-365.0H-327.0V-396.0H332.0V-83.0Z"/></g>
<g fill="green" transform="translate(200 100) scale(0.1 -0.1)"><path d="M0.0 0.0V-1095.0H144.0V0.0ZM-205.0 -705.0V-831.0H368.0V-705.0ZM-350.0 -198.0V-323.0H570.0V-198.0ZM361.0 -486.0V-1043.0H445.0V-486.0ZM-262.0 -53.0V-170.0H287.0V-352.0H-266.0V-468.0H434.0V-53.0Z"/></g>
<g fill="green" transform="translate(300 100) scale(0.1 -0.1)"><path d="M0.0 0.0V-767.0H22.0V0.0ZM-200.0 -490.0V-511.0H216.0V-490.0ZM-289.0 -152.0V-172.0H353.0V-152.0ZM441.0 -309.0V-806.0H249.0V-309.0ZM-240.0 -54.0V-77.0H218.0V-250.0H-245.0V-271.0H239.0V-54.0Z"/></g>
<g fill="green" transform="translate(400 100) scale(0.1 -0.1)"><path d="M0.0 0.0V-822.0H99.0V0.0ZM-123.0 -504.0V-594.0H232.0V-504.0ZM-261.0 -133.0V-223.0H429.0V-133.0ZM415.0 -332.0V-843.0H320.0V-332.0ZM-197.0 -31.0V-115.0H209.0V-241.0H-199.0V-324.0H314.0V-31.0Z"/></g>
<g fill="green" transform="translate(500 100) scale(0.1 -0.1)"><path d="M-0.0 0.0V-836.0H37.0V0.0ZM-537.0 -547.0V-582.0H566.0V-547.0ZM-627.0 -156.0V-190.0H698.0V-156.0ZM111.0 -354.0V-824.0H532.0V-354.0ZM-471.0 -43.0V-80.0H455.0V-273.0H-475.0V-309.0H491.0V-43.0Z"/></g>
<g fill="green" transform="translate(600 100) scale(0.1 -0.1)"><path d="M0.0 0.0V-894.0H181.0V0.0ZM-440.0 -570.0V-684.0H609.0V-570.0ZM-604.0 -147.0V-259.0H830.0V-147.0ZM123.0 -387.0V-880.0H622.0V-387.0ZM-391.0 -28.0V-130.0H419.0V-277.0H-405.0V-378.0H588.0V-28.0Z"/></g>
<g fill="green" transform="translate(700 100) scale(0.1 -0.1)"><path d="M-0.0 0.0V-1017.0H31.0V0.0ZM-278.0 -791.0V-822.0H325.0V-791.0ZM-269.0 -293.0V-323.0H355.0V-293.0ZM-240.0 -624.0V-651.0H278.0V-624.0ZM-220.0 -122.0V-153.0H224.0V-465.0H-225.0V-496.0H256.0V-122.0Z"/></g>
<g fill="green" transform="translate(800 100) scale(0.1 -0.1)"><path d="M0.0 0.0V-1075.0H144.0V0.0ZM-208.0 -782.0V-923.0H386.0V-782.0ZM-205.0 -256.0V-391.0H426.0V-256.0ZM-183.0 -602.0V-735.0H353.0V-602.0ZM-177.0 -88.0V-217.0H209.0V-431.0H-179.0V-560.0H351.0V-88.0Z"/></g>
<g fill="green" transform="translate(900 100) scale(0.1 -0.1)"><path d="M0.0 0.0V-1012.0H28.0V0.0ZM-323.0 -676.0V-703.0H342.0V-676.0ZM-407.0 -224.0V-250.0H390.0V-224.0ZM379.0 -455.0V-992.0H365.0V-455.0ZM-337.0 -89.0V-118.0H321.0V-359.0H-344.0V-387.0H348.0V-89.0Z"/></g>
<g fill="green" transform="translate(1000 100) scale(0.1 -0.1)"><path d="M0.0 0.0V-1100.0H134.0V0.0ZM-234.0 -714.0V-827.0H390.0V-714.0ZM-371.0 -214.0V-333.0H441.0V-214.0ZM349.0 -498.0V-1067.0H473.0V-498.0ZM-285.0 -70.0V-182.0H298.0V-365.0H-289.0V-475.0H441.0V-70.0Z"/></g>
<g fill="green" transform="translate(1100 100) scale(0.1 -0.1)"><path d="M0.0 0.0V-1024.0H35.0V0.0ZM-294.0 -704.0V-738.0H349.0V-704.0ZM-399.0 -221.0V-257.0H464.0V-221.0ZM373.0 -473.0V-990.0H369.0V-473.0ZM-307.0 -83.0V-120.0H303.0V-365.0H-315.0V-402.0H339.0V-83.0Z"/></g>
<g fill="green" transform="translate(1200 100) scale(0.1 -0.1)"><path d="M0.0 0.0V-1035.0H161.0V0.0ZM-182.0 -706.0V-828.0H398.0V-706.0ZM-324.0 -205.0V-325.0H564.0V-205.0ZM383.0 -496.0V-1037.0H474.0V-496.0ZM-233.0 -55.0V-172.0H312.0V-361.0H-238.0V-476.0H466.0V-55.0Z"/></g>
<g fill="red" transform="translate(100 200) scale(0.1 -0.1)"><path d="M0.0 0.0V-899.0H30.0V0.0ZM-311.0 -705.0V-735.0H355.0V-705.0ZM-302.0 -259.0V-288.0H273.0V-259.0ZM-264.0 -557.0V-587.0H310.0V-557.0ZM-236.0 -109.0V-138.0H253.0V-412.0H-241.0V-442.0H282.0V-109.0Z"/></g>
<g fill="black" opacity=".8" transform="translate(100 200) scale(0.1 -0.1)"><path d="M0.0 0.0V-897.0H29.0V0.0ZM-309.0 -705.0V-733.0H354.0V-705.0ZM-300.0 -262.0V-290.0H277.0V-262.0ZM-260.0 -558.0V-587.0H308.0V-558.0ZM-235.0 -113.0V-142.0H252.0V-413.0H-242.0V-442.0H280.0V-113.0Z"/></g>
<g fill="red" transform="translate(200 200) scale(0.1 -0.1)"><path d="M0.0 0.0V-950.0H142.0V0.0ZM-242.0 -716.0V-830.0H438.0V-716.0ZM-237.0 -247.0V-361.0H304.0V-247.0ZM-209.0 -559.0V-672.0H395.0V-559.0ZM-187.0 -94.0V-205.0H234.0V-404.0H-191.0V-515.0H369.0V-94.0Z"/></g>
<g fill="black" opacity=".8" transform="translate(200 200) scale(0.1 -0.1)"><path d="M0.0 0.0V-942.0H138.0V0.0ZM-247.0 -715.0V-830.0H432.0V-715.0ZM-236.0 -250.0V-365.0H305.0V-250.0ZM-213.0 -561.0V-675.0H396.0V-561.0ZM-192.0 -96.0V-209.0H237.0V-406.0H-196.0V-518.0H371.0V-96.0Z"/></g>
<g fill="red" transform="translate(300 200) scale(0.1 -0.1)"><path d="M0.0 0.0V-899.0H29.0V0.0ZM-322.0 -706.0V-736.0H371.0V-706.0ZM-306.0 -256.0V-285.0H378.0V-256.0ZM-272.0 -560.0V-590.0H320.0V-560.0ZM-249.0 -105.0V-134.0H257.0V-415.0H-254.0V-445.0H287.0V-105.0Z"/></g>
<g fill="black" opacity=".8" transform="translate(300 200) scale(0.1 -0.1)"><path d="M0.0 0.0V-906.0H30.0V0.0ZM-324.0 -703.0V-733.0H365.0V-703.0ZM-316.0 -258.0V-286.0H372.0V-258.0ZM-273.0 -554.0V-583.0H311.0V-554.0ZM-249.0 -105.0V-135.0H255.0V-411.0H-254.0V-441.0H285.0V-105.0Z"/></g>
<g fill="red" transform="translate(400 200) scale(0.1 -0.1)"><path d="M0.0 0.0V-950.0H139.0V0.0ZM-256.0 -709.0V-835.0H415.0V-709.0ZM-261.0 -224.0V-348.0H433.0V-224.0ZM-226.0 -547.0V-667.0H387.0V-547.0ZM-214.0 -67.0V-187.0H228.0V-386.0H-218.0V-506.0H369.0V-67.0Z"/></g>
<g fill="black" opacity=".8" transform="translate(400 200) scale(0.1 -0.1)"><path d="M0.0 0.0V-963.0H142.0V0.0ZM-259.0 -703.0V-829.0H427.0V-703.0ZM-262.0 -231.0V-353.0H438.0V-231.0ZM-220.0 -542.0V-664.0H384.0V-542.0ZM-205.0 -80.0V-196.0H233.0V-388.0H-209.0V-504.0H372.0V-80.0Z"/></g>
<g fill="red" transform="translate(500 200) scale(0.1 -0.1)"><path d="M0.0 0.0V-798.0H29.0V0.0ZM-269.0 -638.0V-667.0H332.0V-638.0ZM-280.0 -228.0V-258.0H338.0V-228.0ZM-224.0 -500.0V-529.0H289.0V-500.0ZM-205.0 -97.0V-126.0H225.0V-364.0H-214.0V-394.0H255.0V-97.0Z"/></g>
<g fill="black" opacity=".8" transform="translate(500 200) scale(0.1 -0.1)"><path d="M0.0 0.0V-800.0H31.0V0.0ZM-274.0 -634.0V-665.0H335.0V-634.0ZM-283.0 -225.0V-256.0H335.0V-225.0ZM-229.0 -495.0V-526.0H290.0V-495.0ZM-206.0 -91.0V-123.0H224.0V-363.0H-212.0V-395.0H256.0V-91.0Z"/></g>
<g fill="red" transform="translate(600 200) scale(0.1 -0.1)"><path d="M0.0 0.0V-779.0H137.0V0.0ZM-206.0 -620.0V-729.0H392.0V-620.0ZM-207.0 -207.0V-313.0H405.0V-207.0ZM-168.0 -487.0V-587.0H363.0V-487.0ZM-159.0 -67.0V-175.0H231.0V-347.0H-163.0V-455.0H358.0V-67.0Z"/></g>
<g fill="black" opacity=".8" transform="translate(600 200) scale(0.1 -0.1)"><path d="M0.0 0.0V-795.0H143.0V0.0ZM-202.0 -619.0V-729.0H400.0V-619.0ZM-206.0 -207.0V-311.0H403.0V-207.0ZM-161.0 -485.0V-583.0H363.0V-485.0ZM-151.0 -69.0V-173.0H229.0V-348.0H-156.0V-450.0H358.0V-69.0Z"/></g>
<g fill="red" transform="translate(700 200) scale(0.1 -0.1)"><path d="M0.0 0.0V-899.0H31.0V0.0ZM-291.0 -698.0V-727.0H333.0V-698.0ZM-278.0 -263.0V-293.0H342.0V-263.0ZM-242.0 -551.0V-580.0H276.0V-551.0ZM-225.0 -115.0V-145.0H227.0V-413.0H-230.0V-443.0H259.0V-115.0Z"/></g>
<g fill="black" opacity=".8" transform="translate(700 200) scale(0.1 -0.1)"><path d="M0.0 0.0V-903.0H29.0V0.0ZM-293.0 -704.0V-733.0H336.0V-704.0ZM-285.0 -259.0V-287.0H341.0V-259.0ZM-251.0 -555.0V-580.0H287.0V-555.0ZM-226.0 -107.0V-136.0H233.0V-412.0H-231.0V-441.0H263.0V-107.0Z"/></g>
<g fill="red" transform="translate(800 200) scale(0.1 -0.1)"><path d="M0.0 0.0V-950.0H139.0V0.0ZM-241.0 -697.0V-821.0H400.0V-697.0ZM-222.0 -240.0V-362.0H411.0V-240.0ZM-204.0 -544.0V-662.0H365.0V-544.0ZM-185.0 -91.0V-207.0H219.0V-394.0H-189.0V-510.0H356.0V-91.0Z"/></g>
<g fill="black" opacity=".8" transform="translate(800 200) scale(0.1 -0.1)"><path d="M0.0 0.0V-953.0H137.0V0.0ZM-228.0 -701.0V-825.0H397.0V-701.0ZM-227.0 -232.0V-352.0H402.0V-232.0ZM-198.0 -542.0V-659.0H360.0V-542.0ZM-183.0 -81.0V-196.0H217.0V-388.0H-187.0V-503.0H351.0V-81.0Z"/></g>
<g fill="red" transform="translate(900 200) scale(0.1 -0.1)"><path d="M0.0 0.0V-899.0H29.0V0.0ZM-312.0 -698.0V-727.0H368.0V-698.0ZM-298.0 -263.0V-293.0H377.0V-263.0ZM-264.0 -551.0V-580.0H310.0V-551.0ZM-233.0 -115.0V-145.0H250.0V-413.0H-238.0V-443.0H280.0V-115.0Z"/></g>
<g fill="black" opacity=".8" transform="translate(900 200) scale(0.1 -0.1)"><path d="M0.0 0.0V-906.0H31.0V0.0ZM-309.0 -707.0V-738.0H357.0V-707.0ZM-305.0 -258.0V-287.0H361.0V-258.0ZM-262.0 -556.0V-585.0H305.0V-556.0ZM-237.0 -106.0V-137.0H246.0V-412.0H-242.0V-443.0H278.0V-106.0Z"/></g>
<g fill="red" transform="translate(1000 200) scale(0.1 -0.1)"><path d="M0.0 0.0V-950.0H149.0V0.0ZM-243.0 -704.0V-824.0H410.0V-704.0ZM-239.0 -240.0V-362.0H423.0V-240.0ZM-194.0 -550.0V-663.0H378.0V-550.0ZM-189.0 -91.0V-199.0H235.0V-405.0H-193.0V-513.0H371.0V-91.0Z"/></g>
<g fill="black" opacity=".8" transform="translate(1000 200) scale(0.1 -0.1)"><path d="M0.0 0.0V-947.0H145.0V0.0ZM-241.0 -702.0V-828.0H422.0V-702.0ZM-243.0 -232.0V-353.0H426.0V-232.0ZM-204.0 -544.0V-662.0H381.0V-544.0ZM-190.0 -80.0V-196.0H233.0V-390.0H-194.0V-506.0H371.0V-80.0Z"/></g>
<g fill="red" transform="translate(1100 200) scale(0.1 -0.1)"><path d="M0.0 0.0V-688.0H30.0V0.0ZM-413.0 -530.0V-559.0H452.0V-530.0ZM-427.0 -176.0V-205.0H465.0V-176.0ZM-347.0 -411.0V-440.0H386.0V-411.0ZM-307.0 -63.0V-93.0H326.0V-297.0H-313.0V-327.0H355.0V-63.0Z"/></g>
<g fill="black" opacity=".8" transform="translate(1100 200) scale(0.1 -0.1)"><path d="M0.0 0.0V-681.0H31.0V0.0ZM-422.0 -526.0V-556.0H460.0V-526.0ZM-423.0 -182.0V-209.0H463.0V-182.0ZM-348.0 -410.0V-441.0H386.0V-410.0ZM-311.0 -66.0V-96.0H320.0V-299.0H-315.0V-329.0H349.0V-66.0Z"/></g>
<g fill="red" transform="translate(1200 200) scale(0.1 -0.1)"><path d="M0.0 0.0V-711.0H148.0V0.0ZM-361.0 -533.0V-640.0H517.0V-533.0ZM-382.0 -162.0V-265.0H537.0V-162.0ZM-299.0 -408.0V-512.0H453.0V-408.0ZM-262.0 -43.0V-141.0H285.0V-288.0H-273.0V-387.0H435.0V-43.0Z"/></g>
<g fill="black" opacity=".8" transform="translate(1200 200) scale(0.1 -0.1)"><path d="M0.0 0.0V-718.0H149.0V0.0ZM-362.0 -532.0V-633.0H519.0V-532.0ZM-385.0 -170.0V-268.0H542.0V-170.0ZM-291.0 -411.0V-508.0H452.0V-411.0ZM-257.0 -54.0V-146.0H292.0V-292.0H-267.0V-384.0H427.0V-54.0Z"/></g>
<g fill="red" transform="translate(1300 200) scale(0.1 -0.1)"><path d="M0.0 0.0V-899.0H30.0V0.0ZM-420.0 -701.0V-731.0H458.0V-701.0ZM-423.0 -255.0V-284.0H460.0V-255.0ZM-354.0 -549.0V-578.0H391.0V-549.0ZM-324.0 -104.0V-133.0H327.0V-402.0H-331.0V-431.0H356.0V-104.0Z"/></g>
<g fill="black" opacity=".8" transform="translate(1300 200) scale(0.1 -0.1)"><path d="M0.0 0.0V-898.0H33.0V0.0ZM-425.0 -694.0V-727.0H467.0V-694.0ZM-419.0 -250.0V-281.0H463.0V-250.0ZM-356.0 -545.0V-579.0H395.0V-545.0ZM-321.0 -98.0V-131.0H327.0V-403.0H-325.0V-435.0H360.0V-98.0Z"/></g>
<g fill="red" transform="translate(1400 200) scale(0.1 -0.1)"><path d="M0.0 0.0V-950.0H155.0V0.0ZM-359.0 -701.0V-825.0H533.0V-701.0ZM-378.0 -233.0V-356.0H545.0V-233.0ZM-299.0 -542.0V-666.0H471.0V-542.0ZM-270.0 -83.0V-203.0H307.0V-385.0H-276.0V-505.0H446.0V-83.0Z"/></g>
<g fill="black" opacity=".8" transform="translate(1400 200) scale(0.1 -0.1)"><path d="M0.0 0.0V-959.0H162.0V0.0ZM-358.0 -701.0V-829.0H536.0V-701.0ZM-372.0 -229.0V-353.0H539.0V-229.0ZM-297.0 -541.0V-665.0H474.0V-541.0ZM-267.0 -78.0V-195.0H296.0V-387.0H-275.0V-504.0H450.0V-78.0Z"/></g>
<g fill="red" transform="translate(1500 200) scale(0.1 -0.1)"><path d="M0.0 0.0V-899.0H29.0V0.0ZM-227.0 -706.0V-736.0H272.0V-706.0ZM-235.0 -251.0V-280.0H296.0V-251.0ZM-193.0 -550.0V-579.0H240.0V-550.0ZM-181.0 -99.0V-128.0H191.0V-406.0H-185.0V-435.0H220.0V-99.0Z"/></g>
<g fill="black" opacity=".8" transform="translate(1500 200) scale(0.1 -0.1)"><path d="M0.0 0.0V-901.0H28.0V0.0ZM-230.0 -703.0V-732.0H279.0V-703.0ZM-228.0 -259.0V-286.0H302.0V-259.0ZM-191.0 -553.0V-584.0H241.0V-553.0ZM-183.0 -108.0V-137.0H190.0V-411.0H-188.0V-440.0H219.0V-108.0Z"/></g>
<g fill="red" transform="translate(1600 200) scale(0.1 -0.1)"><path d="M0.0 0.0V-941.0H134.0V0.0ZM-160.0 -700.0V-823.0H345.0V-700.0ZM-168.0 -228.0V-342.0H368.0V-228.0ZM-135.0 -534.0V-654.0H307.0V-534.0ZM-137.0 -79.0V-190.0H182.0V-381.0H-140.0V-492.0H309.0V-79.0Z"/></g>
<g fill="black" opacity=".8" transform="translate(1600 200) scale(0.1 -0.1)"><path d="M0.0 0.0V-936.0H129.0V0.0ZM-164.0 -691.0V-815.0H335.0V-691.0ZM-162.0 -228.0V-345.0H366.0V-228.0ZM-137.0 -534.0V-653.0H309.0V-534.0ZM-142.0 -78.0V-192.0H185.0V-383.0H-143.0V-496.0H310.0V-78.0Z"/></g>
<g fill="red" transform="translate(100 300) scale(0.1 -0.1)"><path d="M0.0 0.0V-899.0H30.0V0.0ZM-325.0 -597.0V-626.0H355.0V-597.0ZM-417.0 -186.0V-215.0H457.0V-186.0ZM339.0 -392.0V-899.0H369.0V-392.0ZM-329.0 -68.0V-98.0H316.0V-308.0H-335.0V-338.0H345.0V-68.0Z"/></g>
<g fill="black" opacity=".8" transform="translate(100 300) scale(0.1 -0.1)"><path d="M0.0 0.0V-900.0H30.0V0.0ZM-325.0 -597.0V-626.0H355.0V-597.0ZM-418.0 -186.0V-215.0H457.0V-186.0ZM339.0 -392.0V-899.0H369.0V-392.0ZM-329.0 -67.0V-98.0H316.0V-308.0H-335.0V-338.0H345.0V-67.0Z"/></g>
<g fill="red" transform="translate(200 300) scale(0.1 -0.1)"><path d="M0.0 0.0V-950.0H141.0V0.0ZM-232.0 -617.0V-724.0H394.0V-617.0ZM-376.0 -174.0V-282.0H543.0V-174.0ZM329.0 -424.0V-951.0H462.0V-424.0ZM-268.0 -47.0V-148.0H303.0V-308.0H-274.0V-409.0H442.0V-47.0Z"/></g>
<g fill="black" opacity=".8" transform="translate(200 300) scale(0.1 -0.1)"><path d="M0.0 0.0V-950.0H140.0V0.0ZM-232.0 -617.0V-724.0H394.0V-617.0ZM-376.0 -174.0V-282.0H543.0V-174.0ZM329.0 -424.0V-951.0H462.0V-424.0ZM-268.0 -46.0V-149.0H303.0V-308.0H-274.0V-409.0H442.0V-46.0Z"/></g>
<g fill="red" transform="translate(300 300) scale(0.1 -0.1)"><path d="M0.0 0.0V-899.0H29.0V0.0ZM-236.0 -692.0V-721.0H277.0V-692.0ZM-235.0 -251.0V-280.0H291.0V-251.0ZM-202.0 -545.0V-574.0H244.0V-545.0ZM-190.0 -99.0V-128.0H194.0V-406.0H-193.0V-435.0H223.0V-99.0Z"/></g>
<g fill="black" opacity=".8" transform="translate(300 300) scale(0.1 -0.1)"><path d="M0.0 0.0V-884.0H28.0V0.0ZM-232.0 -690.0V-717.0H278.0V-690.0ZM-229.0 -254.0V-281.0H302.0V-254.0ZM-192.0 -542.0V-573.0H240.0V-542.0ZM-184.0 -106.0V-134.0H191.0V-404.0H-189.0V-431.0H219.0V-106.0Z"/></g>
<g fill="red" transform="translate(400 300) scale(0.1 -0.1)"><path d="M0.0 0.0V-941.0H132.0V0.0ZM-157.0 -671.0V-793.0H342.0V-671.0ZM-165.0 -215.0V-331.0H360.0V-215.0ZM-133.0 -514.0V-633.0H309.0V-514.0ZM-135.0 -69.0V-182.0H184.0V-366.0H-137.0V-480.0H307.0V-69.0Z"/></g>
<g fill="black" opacity=".8" transform="translate(400 300) scale(0.1 -0.1)"><path d="M0.0 0.0V-922.0H127.0V0.0ZM-168.0 -679.0V-800.0H333.0V-679.0ZM-166.0 -223.0V-339.0H365.0V-223.0ZM-140.0 -524.0V-642.0H307.0V-524.0ZM-144.0 -76.0V-189.0H183.0V-375.0H-146.0V-487.0H307.0V-76.0Z"/></g>
<g fill="red" transform="translate(500 300) scale(0.1 -0.1)"><path d="M0.0 0.0V-564.0H30.0V0.0ZM-406.0 -436.0V-465.0H445.0V-436.0ZM-416.0 -144.0V-173.0H453.0V-144.0ZM-343.0 -337.0V-366.0H377.0V-337.0ZM-309.0 -48.0V-77.0H315.0V-246.0H-309.0V-275.0H344.0V-48.0Z"/></g>
<g fill="black" opacity=".8" transform="translate(500 300) scale(0.1 -0.1)"><path d="M0.0 0.0V-565.0H29.0V0.0ZM-415.0 -438.0V-466.0H454.0V-438.0ZM-422.0 -146.0V-172.0H457.0V-146.0ZM-342.0 -339.0V-368.0H381.0V-339.0ZM-302.0 -49.0V-78.0H313.0V-245.0H-305.0V-273.0H341.0V-49.0Z"/></g>
<g fill="red" transform="translate(600 300) scale(0.1 -0.1)"><path d="M0.0 0.0V-594.0H147.0V0.0ZM-351.0 -441.0V-526.0H509.0V-441.0ZM-379.0 -140.0V-221.0H540.0V-140.0ZM-284.0 -341.0V-417.0H450.0V-341.0ZM-248.0 -43.0V-118.0H302.0V-243.0H-259.0V-318.0H423.0V-43.0Z"/></g>
<g fill="black" opacity=".8" transform="translate(600 300) scale(0.1 -0.1)"><path d="M0.0 0.0V-582.0H143.0V0.0ZM-358.0 -441.0V-528.0H510.0V-441.0ZM-385.0 -140.0V-222.0H537.0V-140.0ZM-283.0 -343.0V-422.0H440.0V-343.0ZM-246.0 -41.0V-120.0H290.0V-243.0H-257.0V-321.0H415.0V-41.0Z"/></g>
<g fill="red" transform="translate(700 300) scale(0.1 -0.1)"><path d="M0.0 0.0V-564.0H30.0V0.0ZM-423.0 -436.0V-465.0H460.0V-436.0ZM-416.0 -144.0V-173.0H453.0V-144.0ZM-346.0 -338.0V-367.0H379.0V-338.0ZM-294.0 -48.0V-77.0H301.0V-246.0H-294.0V-275.0H331.0V-48.0Z"/></g>
<g fill="black" opacity=".8" transform="translate(700 300) scale(0.1 -0.1)"><path d="M0.0 0.0V-566.0H29.0V0.0ZM-407.0 -438.0V-466.0H445.0V-438.0ZM-413.0 -146.0V-172.0H456.0V-146.0ZM-341.0 -339.0V-365.0H372.0V-339.0ZM-296.0 -49.0V-78.0H306.0V-246.0H-300.0V-273.0H334.0V-49.0Z"/></g>
<g fill="red" transform="translate(800 300) scale(0.1 -0.1)"><path d="M0.0 0.0V-594.0H147.0V0.0ZM-351.0 -441.0V-526.0H509.0V-441.0ZM-386.0 -140.0V-221.0H537.0V-140.0ZM-270.0 -341.0V-417.0H419.0V-341.0ZM-229.0 -43.0V-118.0H270.0V-243.0H-239.0V-318.0H391.0V-43.0Z"/></g>
<g fill="black" opacity=".8" transform="translate(800 300) scale(0.1 -0.1)"><path d="M0.0 0.0V-586.0H140.0V0.0ZM-351.0 -440.0V-528.0H498.0V-440.0ZM-377.0 -138.0V-221.0H538.0V-138.0ZM-282.0 -341.0V-418.0H429.0V-341.0ZM-242.0 -40.0V-119.0H282.0V-241.0H-253.0V-320.0H406.0V-40.0Z"/></g>
</svg>
