<?xml version="1.0" encoding="UTF-8"?>
<svg width="1700" height="400" xmlns="http://www.w3.org/2000/svg">
<rect width="100%" height="100%" fill="white"/>
<g fill="green" transform="translate(100 100) scale(0.1 -0.1)"><path d="M0.0 -0.0V-30.0H763.0V0.0ZM146.0 -164.0V-194.0H637.0V-164.0ZM146.0 -336.0V-364.0H637.0V-336.0ZM105.0 6.0V-549.0L135.0 -547.0V6.0ZM625.0 -8.0V-682.0H654.0V-8.0ZM-46.0 -521.0 -48.0 -552.0 808.0 -582.0 810.0 -551.0Z"/></g>
<g fill="green" transform="translate(200 100) scale(0.1 -0.1)"><path d="M0.0 0.0V-125.0H768.0V0.0ZM165.0 -176.0V-290.0H590.0V-176.0ZM166.0 -338.0V-451.0H591.0V-338.0ZM61.0 -43.0V-572.0L216.0 -567.0V-43.0ZM543.0 -57.0V-750.0H701.0V-57.0ZM-61.0 -510.0 -67.0 -640.0 809.0 -670.0 815.0 -538.0Z"/></g>
<g fill="green" transform="translate(300 100) scale(0.1 -0.1)"><path d="M0.0 -0.0V-21.0H594.0V0.0ZM114.0 -105.0V-126.0H501.0V-105.0ZM114.0 -215.0V-234.0H501.0V-215.0ZM86.0 4.0V-358.0L107.0 -357.0V4.0ZM493.0 -5.0V-437.0H513.0V-5.0ZM-39.0 -335.0 -41.0 -357.0 633.0 -390.0 635.0 -368.0Z"/></g>
<g fill="green" transform="translate(400 100) scale(0.1 -0.1)"><path d="M0.0 0.0V-85.0H596.0V0.0ZM124.0 -114.0V-191.0H456.0V-114.0ZM125.0 -217.0V-293.0H457.0V-217.0ZM51.0 -28.0V-367.0L164.0 -365.0V-28.0ZM430.0 -37.0V-484.0H545.0V-37.0ZM-52.0 -327.0 -59.0 -416.0 629.0 -449.0 636.0 -358.0Z"/></g>
<g fill="green" transform="translate(500 100) scale(0.1 -0.1)"><path d="M0.0 0.0V-26.0H538.0V0.0ZM121.0 -219.0V-244.0H434.0V-219.0ZM121.0 -462.0V-485.0H435.0V-462.0ZM272.0 -108.0V-757.0L298.0 -751.0V-108.0ZM425.0 -5.0V-912.0H450.0V-5.0ZM15.0 -724.0V-749.0L521.0 -748.0V-722.0Z"/></g>
<g fill="green" transform="translate(600 100) scale(0.1 -0.1)"><path d="M0.0 0.0V-123.0H530.0V0.0ZM129.0 -219.0V-337.0H403.0V-219.0ZM129.0 -439.0V-555.0H403.0V-439.0ZM247.0 -182.0V-758.0L377.0 -736.0V-182.0ZM335.0 -74.0V-956.0H466.0V-74.0ZM5.0 -685.0V-810.0H492.0V-684.0Z"/></g>
<g fill="green" transform="translate(700 100) scale(0.1 -0.1)"><path d="M0.0 -0.0V-37.0H708.0V0.0ZM137.0 -188.0V-225.0H558.0V-188.0ZM135.0 -378.0V-412.0H557.0V-378.0ZM-310.0 249.0V-588.0L-272.0 -586.0V249.0ZM542.0 -16.0V-785.0H578.0V-16.0ZM-47.0 -590.0 -48.0 -626.0 744.0 -643.0 745.0 -607.0Z"/></g>
<g fill="green" transform="translate(800 100) scale(0.1 -0.1)"><path d="M0.0 0.0V-146.0H695.0V0.0ZM161.0 -202.0V-337.0H507.0V-202.0ZM162.0 -389.0V-523.0H508.0V-389.0ZM-370.0 228.0V-651.0L-211.0 -648.0V228.0ZM468.0 -52.0V-879.0H632.0V-52.0ZM-39.0 -584.0 -42.0 -737.0 746.0 -755.0 749.0 -600.0Z"/></g>
<g fill="green" transform="translate(900 100) scale(0.1 -0.1)"><path d="M0.0 0.0V-35.0H723.0V0.0ZM122.0 -166.0V-201.0H599.0V-166.0ZM122.0 -331.0V-365.0H599.0V-331.0ZM96.0 -9.0V-512.0H131.0V-9.0ZM581.0 -15.0V-682.0H616.0V-15.0ZM-96.0 -489.0 -99.0 -526.0 795.0 -561.0 798.0 -525.0Z"/></g>
<g fill="green" transform="translate(1000 100) scale(0.1 -0.1)"><path d="M0.0 0.0V-143.0H780.0V0.0ZM170.0 -186.0V-313.0H628.0V-186.0ZM170.0 -349.0V-475.0H628.0V-349.0ZM58.0 -62.0V-585.0H228.0V-62.0ZM547.0 -66.0V-776.0H721.0V-66.0ZM-82.0 -504.0 -89.0 -650.0 867.0 -683.0 874.0 -535.0Z"/></g>
<g fill="green" transform="translate(1100 100) scale(0.1 -0.1)"><path d="M0.0 0.0V-32.0H759.0V0.0ZM124.0 -167.0V-199.0H654.0V-167.0ZM124.0 -337.0V-368.0H654.0V-337.0ZM97.0 -3.0V-546.0L130.0 -544.0V-3.0ZM636.0 -9.0V-693.0H669.0V-9.0ZM-19.0 -530.0 -16.0 -560.0 818.0 -518.0 815.0 -487.0Z"/></g>
<g fill="green" transform="translate(1200 100) scale(0.1 -0.1)"><path d="M0.0 0.0V-133.0H749.0V0.0ZM157.0 -182.0V-302.0H586.0V-182.0ZM158.0 -345.0V-464.0H587.0V-345.0ZM62.0 -57.0V-583.0L216.0 -580.0V-57.0ZM535.0 -62.0V-767.0H691.0V-62.0ZM-85.0 -530.0 -77.0 -663.0 814.0 -625.0 807.0 -494.0Z"/></g>
<g fill="red" transform="translate(100 200) scale(0.1 -0.1)"><path d="M0.0 0.0V-30.0H613.0V0.0ZM115.0 -200.0V-230.0H490.0V-200.0ZM115.0 -414.0V-443.0H490.0V-414.0ZM100.0 -8.0V-668.0L130.0 -664.0V-8.0ZM475.0 -8.0V-837.0H504.0V-8.0ZM-11.0 -646.0V-676.0H620.0V-646.0Z"/></g>
<g fill="black" opacity=".8" transform="translate(100 200) scale(0.1 -0.1)"><path d="M0.0 0.0V-31.0H607.0V0.0ZM119.0 -202.0V-232.0H492.0V-202.0ZM119.0 -417.0V-445.0H492.0V-417.0ZM100.0 -8.0V-667.0L131.0 -663.0V-8.0ZM478.0 -10.0V-839.0H509.0V-10.0ZM-20.0 -646.0V-676.0L623.0 -675.0V-645.0Z"/></g>
<g fill="red" transform="translate(200 200) scale(0.1 -0.1)"><path d="M0.0 0.0V-133.0H617.0V0.0ZM136.0 -211.0V-336.0H474.0V-211.0ZM136.0 -413.0V-538.0H474.0V-413.0ZM65.0 -71.0V-703.0L210.0 -689.0V-71.0ZM407.0 -71.0V-904.0H553.0V-71.0ZM-18.0 -630.0V-765.0H622.0V-630.0Z"/></g>
<g fill="black" opacity=".8" transform="translate(200 200) scale(0.1 -0.1)"><path d="M0.0 0.0V-134.0H611.0V0.0ZM143.0 -210.0V-335.0H470.0V-210.0ZM143.0 -411.0V-535.0H470.0V-411.0ZM66.0 -67.0V-701.0L211.0 -689.0V-67.0ZM403.0 -69.0V-907.0H551.0V-69.0ZM-27.0 -628.0V-765.0L625.0 -766.0V-628.0Z"/></g>
<g fill="red" transform="translate(300 200) scale(0.1 -0.1)"><path d="M0.0 0.0V-30.0H565.0V0.0ZM117.0 -202.0V-232.0H457.0V-202.0ZM117.0 -416.0V-445.0H457.0V-416.0ZM101.0 -10.0V-665.0L130.0 -662.0V-10.0ZM444.0 -10.0V-839.0H473.0V-10.0ZM-30.0 -646.0V-676.0H580.0V-646.0Z"/></g>
<g fill="black" opacity=".8" transform="translate(300 200) scale(0.1 -0.1)"><path d="M0.0 0.0V-30.0H567.0V0.0ZM114.0 -201.0V-231.0H455.0V-201.0ZM113.0 -416.0V-444.0H456.0V-416.0ZM101.0 -11.0V-665.0L131.0 -661.0V-11.0ZM442.0 -10.0V-837.0H472.0V-10.0ZM-19.0 -645.0V-674.0L577.0 -676.0L578.0 -646.0Z"/></g>
<g fill="red" transform="translate(400 200) scale(0.1 -0.1)"><path d="M0.0 0.0V-131.0H568.0V0.0ZM140.0 -209.0V-330.0H438.0V-209.0ZM140.0 -409.0V-530.0H438.0V-409.0ZM69.0 -67.0V-699.0L211.0 -685.0V-67.0ZM369.0 -67.0V-900.0H512.0V-67.0ZM-32.0 -626.0V-761.0H581.0V-626.0Z"/></g>
<g fill="black" opacity=".8" transform="translate(400 200) scale(0.1 -0.1)"><path d="M0.0 0.0V-131.0H573.0V0.0ZM136.0 -208.0V-331.0H440.0V-208.0ZM136.0 -410.0V-531.0H440.0V-410.0ZM69.0 -69.0V-699.0L208.0 -686.0V-69.0ZM373.0 -68.0V-902.0H515.0V-68.0ZM-19.0 -626.0V-760.0L580.0 -762.0L581.0 -627.0Z"/></g>
<g fill="red" transform="translate(500 200) scale(0.1 -0.1)"><path d="M0.0 0.0V-30.0H552.0V0.0ZM109.0 -202.0V-232.0H445.0V-202.0ZM109.0 -416.0V-445.0H445.0V-416.0ZM94.0 -10.0V-641.0L124.0 -638.0V-10.0ZM434.0 -10.0V-839.0H464.0V-10.0ZM-12.0 -621.0V-650.0H563.0V-621.0Z"/></g>
<g fill="black" opacity=".8" transform="translate(500 200) scale(0.1 -0.1)"><path d="M0.0 0.0V-31.0H551.0V0.0ZM104.0 -200.0V-231.0H445.0V-200.0ZM103.0 -411.0V-440.0H446.0V-411.0ZM87.0 -10.0V-651.0L119.0 -648.0V-10.0ZM430.0 -11.0V-831.0H461.0V-11.0ZM-21.0 -635.0 -20.0 -665.0 569.0 -652.0 568.0 -622.0Z"/></g>
<g fill="red" transform="translate(600 200) scale(0.1 -0.1)"><path d="M0.0 0.0V-139.0H563.0V0.0ZM135.0 -208.0V-332.0H442.0V-208.0ZM135.0 -409.0V-533.0H442.0V-409.0ZM54.0 -67.0V-699.0L192.0 -685.0V-67.0ZM365.0 -67.0V-918.0H505.0V-67.0ZM-13.0 -607.0V-746.0H577.0V-607.0Z"/></g>
<g fill="black" opacity=".8" transform="translate(600 200) scale(0.1 -0.1)"><path d="M0.0 0.0V-135.0H563.0V0.0ZM134.0 -209.0V-334.0H438.0V-209.0ZM134.0 -409.0V-532.0H438.0V-409.0ZM58.0 -68.0V-697.0L198.0 -684.0V-68.0ZM365.0 -70.0V-901.0H508.0V-70.0ZM-26.0 -623.0 -24.0 -759.0 582.0 -747.0 579.0 -611.0Z"/></g>
<g fill="red" transform="translate(700 200) scale(0.1 -0.1)"><path d="M0.0 0.0V-30.0H574.0V0.0ZM117.0 -202.0V-232.0H466.0V-202.0ZM117.0 -416.0V-445.0H466.0V-416.0ZM101.0 -10.0V-665.0L130.0 -662.0V-10.0ZM452.0 -10.0V-839.0H481.0V-10.0ZM-30.0 -646.0V-676.0H589.0V-646.0Z"/></g>
<g fill="black" opacity=".8" transform="translate(700 200) scale(0.1 -0.1)"><path d="M0.0 0.0V-30.0H576.0V0.0ZM116.0 -201.0V-231.0H464.0V-201.0ZM115.0 -416.0V-444.0H464.0V-416.0ZM101.0 -10.0V-666.0L131.0 -662.0V-10.0ZM451.0 -10.0V-836.0H480.0V-10.0ZM-18.0 -645.0V-674.0L587.0 -676.0V-646.0Z"/></g>
<g fill="red" transform="translate(800 200) scale(0.1 -0.1)"><path d="M0.0 0.0V-131.0H577.0V0.0ZM140.0 -209.0V-330.0H438.0V-209.0ZM140.0 -409.0V-530.0H438.0V-409.0ZM69.0 -67.0V-699.0L211.0 -685.0V-67.0ZM381.0 -67.0V-900.0H524.0V-67.0ZM-32.0 -626.0V-761.0H590.0V-626.0Z"/></g>
<g fill="black" opacity=".8" transform="translate(800 200) scale(0.1 -0.1)"><path d="M0.0 0.0V-131.0H581.0V0.0ZM138.0 -208.0V-331.0H446.0V-208.0ZM138.0 -409.0V-531.0H446.0V-409.0ZM68.0 -68.0V-699.0L209.0 -685.0V-68.0ZM379.0 -68.0V-902.0H522.0V-68.0ZM-20.0 -626.0V-760.0L588.0 -762.0L589.0 -627.0Z"/></g>
<g fill="red" transform="translate(900 200) scale(0.1 -0.1)"><path d="M0.0 0.0V-30.0H613.0V0.0ZM115.0 -200.0V-230.0H490.0V-200.0ZM115.0 -414.0V-443.0H490.0V-414.0ZM100.0 -8.0V-668.0L130.0 -664.0V-8.0ZM475.0 -8.0V-837.0H504.0V-8.0ZM-11.0 -646.0V-676.0H620.0V-646.0Z"/></g>
<g fill="black" opacity=".8" transform="translate(900 200) scale(0.1 -0.1)"><path d="M0.0 0.0V-31.0H609.0V0.0ZM120.0 -202.0V-232.0H493.0V-202.0ZM119.0 -416.0V-445.0H493.0V-416.0ZM103.0 -10.0V-665.0L134.0 -661.0V-10.0ZM479.0 -10.0V-838.0H510.0V-10.0ZM-24.0 -644.0 -25.0 -674.0 626.0 -678.0 627.0 -647.0Z"/></g>
<g fill="red" transform="translate(1000 200) scale(0.1 -0.1)"><path d="M0.0 0.0V-133.0H626.0V0.0ZM143.0 -211.0V-336.0H481.0V-211.0ZM143.0 -413.0V-538.0H481.0V-413.0ZM72.0 -71.0V-703.0L217.0 -689.0V-71.0ZM414.0 -71.0V-904.0H560.0V-71.0ZM-11.0 -630.0V-765.0H629.0V-630.0Z"/></g>
<g fill="black" opacity=".8" transform="translate(1000 200) scale(0.1 -0.1)"><path d="M0.0 0.0V-135.0H617.0V0.0ZM144.0 -210.0V-336.0H476.0V-210.0ZM144.0 -412.0V-536.0H476.0V-412.0ZM69.0 -69.0V-702.0L215.0 -689.0V-69.0ZM407.0 -69.0V-907.0H556.0V-69.0ZM-27.0 -627.0 -28.0 -765.0 632.0 -769.0 633.0 -630.0Z"/></g>
<g fill="red" transform="translate(1100 200) scale(0.1 -0.1)"><path d="M0.0 0.0V-30.0H407.0V0.0ZM80.0 -202.0V-232.0H313.0V-202.0ZM80.0 -416.0V-445.0H313.0V-416.0ZM69.0 -17.0V-648.0L98.0 -645.0V-17.0ZM297.0 -17.0V-829.0H327.0V-17.0ZM-16.0 -635.0V-665.0H421.0V-635.0Z"/></g>
<g fill="black" opacity=".8" transform="translate(1100 200) scale(0.1 -0.1)"><path d="M0.0 0.0V-29.0H409.0V0.0ZM82.0 -202.0V-231.0H312.0V-202.0ZM81.0 -416.0V-443.0H313.0V-416.0ZM67.0 -11.0V-649.0L97.0 -645.0V-11.0ZM298.0 -13.0V-837.0H327.0V-13.0ZM-23.0 -636.0 -24.0 -664.0 410.0 -659.0 411.0 -631.0Z"/></g>
<g fill="red" transform="translate(1200 200) scale(0.1 -0.1)"><path d="M0.0 0.0V-131.0H432.0V0.0ZM107.0 -209.0V-330.0H342.0V-209.0ZM107.0 -410.0V-531.0H342.0V-410.0ZM40.0 -68.0V-700.0L167.0 -686.0V-68.0ZM249.0 -68.0V-901.0H377.0V-68.0ZM-11.0 -627.0V-762.0H444.0V-627.0Z"/></g>
<g fill="black" opacity=".8" transform="translate(1200 200) scale(0.1 -0.1)"><path d="M0.0 0.0V-129.0H434.0V0.0ZM113.0 -209.0V-330.0H341.0V-209.0ZM112.0 -412.0V-531.0H340.0V-412.0ZM44.0 -68.0V-703.0L169.0 -688.0V-68.0ZM259.0 -70.0V-906.0H386.0V-70.0ZM-2.0 -624.0 -1.0 -753.0 439.0 -748.0 438.0 -618.0Z"/></g>
<g fill="red" transform="translate(1300 200) scale(0.1 -0.1)"><path d="M0.0 0.0V-30.0H552.0V0.0ZM118.0 -202.0V-232.0H445.0V-202.0ZM118.0 -416.0V-445.0H445.0V-416.0ZM101.0 -10.0V-665.0L131.0 -662.0V-10.0ZM434.0 -10.0V-839.0H463.0V-10.0ZM-29.0 -646.0V-676.0H567.0V-646.0Z"/></g>
<g fill="black" opacity=".8" transform="translate(1300 200) scale(0.1 -0.1)"><path d="M0.0 0.0V-30.0H558.0V0.0ZM113.0 -201.0V-231.0H445.0V-201.0ZM113.0 -416.0V-444.0H446.0V-416.0ZM101.0 -12.0V-663.0L131.0 -660.0V-12.0ZM433.0 -10.0V-836.0H462.0V-10.0ZM-23.0 -643.0 -24.0 -672.0 568.0 -680.0V-650.0Z"/></g>
<g fill="red" transform="translate(1400 200) scale(0.1 -0.1)"><path d="M0.0 0.0V-131.0H568.0V0.0ZM140.0 -209.0V-330.0H438.0V-209.0ZM140.0 -409.0V-530.0H438.0V-409.0ZM69.0 -67.0V-699.0L211.0 -685.0V-67.0ZM369.0 -67.0V-900.0H512.0V-67.0ZM-15.0 -626.0V-761.0H575.0V-626.0Z"/></g>
<g fill="black" opacity=".8" transform="translate(1400 200) scale(0.1 -0.1)"><path d="M0.0 0.0V-131.0H569.0V0.0ZM136.0 -208.0V-331.0H437.0V-208.0ZM136.0 -410.0V-531.0H437.0V-410.0ZM69.0 -70.0V-700.0L208.0 -686.0V-70.0ZM368.0 -68.0V-902.0H510.0V-68.0ZM-17.0 -624.0 -18.0 -758.0 575.0 -766.0 577.0 -631.0Z"/></g>
<g fill="red" transform="translate(1500 200) scale(0.1 -0.1)"><path d="M0.0 0.0V-29.0H644.0V0.0ZM102.0 -138.0V-168.0H547.0V-138.0ZM102.0 -279.0V-309.0H547.0V-279.0ZM86.0 -8.0V-436.0H115.0V-8.0ZM531.0 -10.0V-570.0H560.0V-10.0ZM-79.0 -419.0V-449.0H725.0V-419.0Z"/></g>
<g fill="black" opacity=".8" transform="translate(1500 200) scale(0.1 -0.1)"><path d="M0.0 0.0V-31.0H648.0V0.0ZM102.0 -139.0V-170.0H548.0V-139.0ZM102.0 -275.0V-305.0H548.0V-275.0ZM85.0 -11.0V-427.0H116.0V-11.0ZM531.0 -13.0V-570.0H562.0V-13.0ZM-73.0 -410.0V-441.0L718.0 -447.0L719.0 -416.0Z"/></g>
<g fill="red" transform="translate(1600 200) scale(0.1 -0.1)"><path d="M0.0 0.0V-121.0H685.0V0.0ZM138.0 -157.0V-262.0H566.0V-157.0ZM138.0 -293.0V-398.0H566.0V-293.0ZM52.0 -64.0V-487.0H197.0V-64.0ZM486.0 -63.0V-644.0H633.0V-63.0ZM-94.0 -430.0V-552.0H775.0V-430.0Z"/></g>
<g fill="black" opacity=".8" transform="translate(1600 200) scale(0.1 -0.1)"><path d="M0.0 0.0V-124.0H688.0V0.0ZM146.0 -157.0V-267.0H556.0V-157.0ZM146.0 -293.0V-401.0H556.0V-293.0ZM54.0 -58.0V-490.0L201.0 -492.0V-58.0ZM489.0 -57.0V-653.0H639.0V-57.0ZM-84.0 -427.0 -86.0 -552.0 774.0 -557.0 776.0 -432.0Z"/></g>
<g fill="red" transform="translate(100 300) scale(0.1 -0.1)"><path d="M0.0 0.0V-29.0H384.0V0.0ZM63.0 -202.0V-231.0H298.0V-202.0ZM63.0 -415.0V-445.0H298.0V-415.0ZM52.0 -9.0V-645.0L81.0 -642.0V-9.0ZM280.0 -9.0V-847.0H309.0V-9.0ZM-22.0 -641.0 -19.0 -668.0 389.0 -615.0 386.0 -588.0Z"/></g>
<g fill="black" opacity=".8" transform="translate(100 300) scale(0.1 -0.1)"><path d="M0.0 0.0V-31.0H383.0V0.0ZM63.0 -204.0V-234.0H299.0V-204.0ZM62.0 -415.0V-444.0H300.0V-415.0ZM53.0 -15.0V-638.0L85.0 -635.0V-15.0ZM281.0 -15.0V-841.0H313.0V-15.0ZM-15.0 -634.0 -13.0 -662.0 394.0 -618.0 391.0 -589.0Z"/></g>
<g fill="red" transform="translate(200 300) scale(0.1 -0.1)"><path d="M0.0 0.0V-131.0H410.0V0.0ZM105.0 -214.0V-335.0H335.0V-214.0ZM104.0 -418.0V-539.0H334.0V-418.0ZM39.0 -78.0V-710.0L163.0 -695.0V-78.0ZM248.0 -78.0V-911.0H372.0V-78.0ZM-12.0 -633.0 -2.0 -761.0 427.0 -709.0 417.0 -584.0Z"/></g>
<g fill="black" opacity=".8" transform="translate(200 300) scale(0.1 -0.1)"><path d="M0.0 0.0V-135.0H408.0V0.0ZM106.0 -213.0V-338.0H331.0V-213.0ZM105.0 -416.0V-539.0H330.0V-416.0ZM37.0 -74.0V-709.0L162.0 -696.0V-74.0ZM241.0 -73.0V-916.0H367.0V-73.0ZM-16.0 -632.0 -7.0 -764.0 431.0 -722.0 423.0 -591.0Z"/></g>
<g fill="red" transform="translate(300 300) scale(0.1 -0.1)"><path d="M0.0 0.0V-30.0H543.0V0.0ZM97.0 -202.0V-232.0H455.0V-202.0ZM97.0 -416.0V-445.0H455.0V-416.0ZM82.0 -10.0V-670.0L112.0 -666.0V-10.0ZM439.0 -10.0V-839.0H469.0V-10.0ZM27.0 -661.0 32.0 -688.0 560.0 -620.0 555.0 -592.0Z"/></g>
<g fill="black" opacity=".8" transform="translate(300 300) scale(0.1 -0.1)"><path d="M0.0 0.0V-30.0H545.0V0.0ZM97.0 -202.0V-231.0H455.0V-202.0ZM96.0 -417.0V-444.0H455.0V-417.0ZM81.0 -8.0V-670.0L112.0 -665.0V-8.0ZM439.0 -9.0V-842.0H469.0V-9.0ZM26.0 -661.0 31.0 -686.0 555.0 -618.0 551.0 -591.0Z"/></g>
<g fill="red" transform="translate(400 300) scale(0.1 -0.1)"><path d="M0.0 0.0V-131.0H518.0V0.0ZM121.0 -209.0V-330.0H398.0V-209.0ZM121.0 -409.0V-530.0H398.0V-409.0ZM55.0 -67.0V-699.0L186.0 -685.0V-67.0ZM334.0 -67.0V-900.0H465.0V-67.0ZM-33.0 -645.0 -20.0 -776.0 532.0 -713.0 519.0 -586.0Z"/></g>
<g fill="black" opacity=".8" transform="translate(400 300) scale(0.1 -0.1)"><path d="M0.0 0.0V-130.0H519.0V0.0ZM121.0 -209.0V-331.0H398.0V-209.0ZM122.0 -410.0V-530.0H398.0V-410.0ZM57.0 -68.0V-701.0L186.0 -687.0V-68.0ZM338.0 -69.0V-903.0H468.0V-69.0ZM-29.0 -643.0 -16.0 -771.0 529.0 -708.0 517.0 -583.0Z"/></g>
<g fill="red" transform="translate(500 300) scale(0.1 -0.1)"><path d="M0.0 0.0V-30.0H490.0V0.0ZM86.0 -138.0V-168.0H382.0V-138.0ZM85.0 -272.0V-301.0H381.0V-272.0ZM-312.0 223.0V-408.0H-282.0V223.0ZM367.0 -15.0V-575.0H396.0V-15.0ZM-47.0 -419.0V-448.0H527.0V-419.0Z"/></g>
<g fill="black" opacity=".8" transform="translate(500 300) scale(0.1 -0.1)"><path d="M0.0 0.0V-30.0H490.0V0.0ZM85.0 -138.0V-168.0H382.0V-138.0ZM83.0 -272.0V-300.0H381.0V-272.0ZM-312.0 223.0V-408.0L-281.0 -407.0V223.0ZM366.0 -16.0V-574.0H396.0V-16.0ZM-47.0 -420.0V-448.0H527.0V-419.0Z"/></g>
<g fill="red" transform="translate(600 300) scale(0.1 -0.1)"><path d="M0.0 0.0V-116.0H491.0V0.0ZM116.0 -152.0V-257.0H364.0V-152.0ZM116.0 -289.0V-394.0H364.0V-289.0ZM-356.0 213.0V-480.0H-236.0V213.0ZM327.0 -39.0V-656.0H451.0V-39.0ZM-36.0 -427.0V-547.0H550.0V-427.0Z"/></g>
<g fill="black" opacity=".8" transform="translate(600 300) scale(0.1 -0.1)"><path d="M0.0 0.0V-116.0H491.0V0.0ZM115.0 -152.0V-258.0H363.0V-152.0ZM116.0 -288.0V-393.0H364.0V-288.0ZM-356.0 212.0V-480.0H-236.0V212.0ZM327.0 -40.0V-657.0H451.0V-40.0ZM-36.0 -427.0V-546.0L550.0 -547.0V-427.0Z"/></g>
<g fill="red" transform="translate(700 300) scale(0.1 -0.1)"><path d="M0.0 0.0V-30.0H486.0V0.0ZM80.0 -142.0V-172.0H402.0V-142.0ZM80.0 -273.0V-302.0H402.0V-273.0ZM65.0 -18.0V-420.0H94.0V-18.0ZM384.0 -17.0V-577.0H414.0V-17.0ZM-35.0 -411.0V-440.0H517.0V-411.0Z"/></g>
<g fill="black" opacity=".8" transform="translate(700 300) scale(0.1 -0.1)"><path d="M0.0 0.0V-27.0H481.0V0.0ZM78.0 -140.0V-167.0H400.0V-140.0ZM77.0 -282.0V-307.0H400.0V-282.0ZM66.0 -11.0V-437.0L93.0 -436.0V-11.0ZM384.0 -12.0V-578.0H411.0V-12.0ZM-44.0 -426.0V-452.0L523.0 -443.0L522.0 -417.0Z"/></g>
<g fill="red" transform="translate(800 300) scale(0.1 -0.1)"><path d="M0.0 0.0V-118.0H514.0V0.0ZM130.0 -156.0V-261.0H392.0V-156.0ZM130.0 -291.0V-396.0H392.0V-291.0ZM45.0 -41.0V-496.0H173.0V-41.0ZM350.0 -40.0V-657.0H478.0V-40.0ZM-40.0 -430.0V-550.0H564.0V-430.0Z"/></g>
<g fill="black" opacity=".8" transform="translate(800 300) scale(0.1 -0.1)"><path d="M0.0 0.0V-110.0H510.0V0.0ZM114.0 -153.0V-253.0H411.0V-153.0ZM114.0 -291.0V-389.0H411.0V-291.0ZM43.0 -55.0V-492.0L163.0 -489.0V-55.0ZM347.0 -54.0V-646.0H470.0V-54.0ZM-50.0 -433.0 -49.0 -543.0 562.0 -535.0 561.0 -425.0Z"/></g>
</svg>
