<?xml version="1.0" encoding="UTF-8"?>
<svg width="1700" height="1200" xmlns="http://www.w3.org/2000/svg">
<rect width="100%" height="100%" fill="white"/>
<g fill="green" transform="translate(100 100) scale(0.1 -0.1)"><path d="M-0.0 -0.0V-51.0H552.0V0.0ZM-146.0 119.0V68.0H602.0V119.0ZM404.0 196.0 377.0 -372.0 433.0 -357.0 460.0 211.0ZM680.0 -261.0C609.0 -498.0 410.0 -653.0 182.0 -740.0C193.0 -751.0 212.0 -775.0 218.0 -787.0C448.0 -685.0 655.0 -525.0 733.0 -272.0Z"/></g>
<g fill="green" transform="translate(200 100) scale(0.1 -0.1)"><path d="M0.0 0.0V-192.0H609.0V0.0ZM-178.0 104.0V-75.0H630.0V104.0ZM307.0 114.0 294.0 -486.0 529.0 -483.0 541.0 118.0ZM633.0 -385.0C571.0 -612.0 406.0 -771.0 187.0 -861.0C224.0 -901.0 284.0 -994.0 306.0 -1038.0C552.0 -918.0 740.0 -715.0 831.0 -431.0Z"/></g>
<g fill="green" transform="translate(300 100) scale(0.1 -0.1)"><path d="M0.0 -0.0V-25.0H25.0V0.0ZM-173.0 -46.0V-71.0H207.0V-46.0ZM211.0 -68.0 181.0 -379.0 211.0 -362.0 242.0 -52.0ZM193.0 -470.0C238.0 -527.0 231.0 -536.0 211.0 -535.0C216.0 -540.0 225.0 -553.0 227.0 -560.0C252.0 -552.0 267.0 -535.0 222.0 -471.0Z"/></g>
<g fill="green" transform="translate(400 100) scale(0.1 -0.1)"><path d="M0.0 0.0V-87.0H78.0V0.0ZM-198.0 -70.0V-146.0H250.0V-70.0ZM167.0 -122.0 152.0 -444.0 270.0 -441.0 284.0 -118.0ZM195.0 -576.0C229.0 -617.0 243.0 -638.0 233.0 -653.0C249.0 -669.0 274.0 -710.0 282.0 -728.0C312.0 -700.0 308.0 -654.0 286.0 -580.0Z"/></g>
<g fill="green" transform="translate(500 100) scale(0.1 -0.1)"><path d="M0.0 0.0V-68.0H445.0V0.0ZM-443.0 698.0V630.0H448.0V698.0ZM-38.0 1078.0 -47.0 350.0 24.0 355.0 33.0 1083.0ZM741.0 540.0C606.0 112.0 327.0 -220.0 -24.0 -424.0C-8.0 -438.0 20.0 -466.0 31.0 -481.0C381.0 -259.0 666.0 76.0 812.0 524.0Z"/></g>
<g fill="green" transform="translate(600 100) scale(0.1 -0.1)"><path d="M0.0 0.0V-264.0H424.0V0.0ZM-502.0 739.0V474.0H455.0V739.0ZM-188.0 1043.0 -193.0 229.0 99.0 230.0 103.0 1044.0ZM629.0 479.0C527.0 41.0 291.0 -292.0 -57.0 -483.0C-5.0 -541.0 79.0 -669.0 109.0 -732.0C498.0 -491.0 768.0 -91.0 904.0 423.0Z"/></g>
<g fill="green" transform="translate(700 100) scale(0.1 -0.1)"><path d="M0.0 -0.0V-31.0H668.0V0.0ZM71.0 -20.0V-49.0H422.0V-20.0ZM592.0 134.0 584.0 -248.0 615.0 -243.0 624.0 139.0ZM835.0 -234.0C787.0 -342.0 661.0 -413.0 542.0 -450.0C548.0 -456.0 558.0 -472.0 561.0 -479.0C684.0 -432.0 812.0 -360.0 865.0 -242.0Z"/></g>
<g fill="green" transform="translate(800 100) scale(0.1 -0.1)"><path d="M0.0 0.0V-120.0H761.0V0.0ZM81.0 -77.0V-173.0H444.0V-77.0ZM552.0 86.0 547.0 -313.0 696.0 -312.0 699.0 87.0ZM815.0 -310.0C788.0 -425.0 701.0 -497.0 583.0 -538.0C605.0 -557.0 642.0 -605.0 656.0 -628.0C783.0 -572.0 881.0 -479.0 924.0 -332.0Z"/></g>
<g fill="green" transform="translate(900 100) scale(0.1 -0.1)"><path d="M0.0 0.0V-49.0H579.0V0.0ZM-61.0 137.0V88.0H805.0V137.0ZM804.0 202.0 763.0 -484.0 819.0 -461.0 860.0 224.0ZM559.0 -184.0C462.0 -412.0 222.0 -548.0 -46.0 -621.0C-35.0 -632.0 -18.0 -655.0 -11.0 -667.0C256.0 -580.0 503.0 -439.0 609.0 -197.0Z"/></g>
<g fill="green" transform="translate(1000 100) scale(0.1 -0.1)"><path d="M0.0 0.0V-172.0H595.0V0.0ZM-105.0 142.0V-25.0H778.0V142.0ZM665.0 144.0 645.0 -535.0 896.0 -530.0 914.0 150.0ZM486.0 -292.0C395.0 -486.0 186.0 -620.0 -47.0 -694.0C-15.0 -736.0 36.0 -832.0 55.0 -876.0C318.0 -774.0 548.0 -598.0 671.0 -350.0Z"/></g>
<g fill="green" transform="translate(1100 100) scale(0.1 -0.1)"><path d="M0.0 0.0V-40.0H843.0V0.0ZM-213.0 89.0V48.0H687.0V89.0ZM268.0 4.0 290.0 -139.0 328.0 -150.0 307.0 -8.0ZM818.0 -512.0C665.0 -608.0 330.0 -624.0 42.0 -616.0C50.0 -626.0 63.0 -648.0 67.0 -659.0C353.0 -656.0 693.0 -636.0 857.0 -530.0Z"/></g>
<g fill="green" transform="translate(1200 100) scale(0.1 -0.1)"><path d="M0.0 0.0V-120.0H880.0V0.0ZM-240.0 78.0V-34.0H740.0V78.0ZM216.0 -67.0 225.0 -185.0 392.0 -189.0 382.0 -70.0ZM817.0 -639.0C654.0 -693.0 320.0 -692.0 34.0 -682.0C58.0 -710.0 95.0 -778.0 111.0 -809.0C397.0 -811.0 744.0 -803.0 945.0 -715.0Z"/></g>
<g fill="green" transform="translate(1300 100) scale(0.1 -0.1)"><path d="M-0.0 -0.0V-55.0H798.0V0.0ZM-99.0 -90.0V-144.0H485.0V-90.0ZM364.0 285.0 282.0 -405.0 350.0 -359.0 432.0 330.0ZM616.0 -110.0C531.0 -410.0 338.0 -647.0 101.0 -789.0C114.0 -800.0 135.0 -823.0 143.0 -835.0C381.0 -677.0 578.0 -439.0 672.0 -121.0Z"/></g>
<g fill="green" transform="translate(1400 100) scale(0.1 -0.1)"><path d="M0.0 0.0V-220.0H889.0V0.0ZM-117.0 -150.0V-341.0H472.0V-150.0ZM218.0 209.0 180.0 -535.0 476.0 -524.0 513.0 221.0ZM536.0 -245.0C483.0 -544.0 338.0 -765.0 98.0 -892.0C145.0 -934.0 221.0 -1031.0 251.0 -1079.0C512.0 -919.0 681.0 -650.0 763.0 -289.0Z"/></g>
<g fill="green" transform="translate(1500 100) scale(0.1 -0.1)"><path d="M-0.0 -0.0V-51.0H483.0V0.0ZM30.0 49.0V-1.0H944.0V49.0ZM314.0 110.0 225.0 -436.0 290.0 -387.0 379.0 159.0ZM704.0 -157.0C632.0 -424.0 438.0 -601.0 198.0 -703.0C210.0 -715.0 228.0 -738.0 235.0 -749.0C477.0 -632.0 679.0 -451.0 756.0 -167.0Z"/></g>
<g fill="green" transform="translate(1600 100) scale(0.1 -0.1)"><path d="M0.0 0.0V-196.0H499.0V0.0ZM9.0 48.0V-142.0H944.0V48.0ZM169.0 16.0 127.0 -577.0 386.0 -565.0 426.0 29.0ZM622.0 -280.0C557.0 -531.0 399.0 -717.0 180.0 -826.0C221.0 -867.0 288.0 -959.0 313.0 -1003.0C554.0 -865.0 736.0 -633.0 828.0 -327.0Z"/></g>
<g fill="green" transform="translate(100 200) scale(0.1 -0.1)"><path d="M0.0 0.0V-47.0H662.0V0.0ZM62.0 264.0V217.0H530.0V264.0ZM323.0 147.0 371.0 -340.0 411.0 -366.0 362.0 120.0ZM568.0 -245.0C524.0 -482.0 378.0 -649.0 195.0 -744.0C206.0 -754.0 224.0 -776.0 229.0 -787.0C414.0 -676.0 568.0 -507.0 617.0 -254.0Z"/></g>
<g fill="green" transform="translate(200 200) scale(0.1 -0.1)"><path d="M0.0 0.0V-196.0H790.0V0.0ZM61.0 247.0V64.0H583.0V247.0ZM325.0 18.0 347.0 -528.0 489.0 -536.0 467.0 11.0ZM546.0 -374.0C518.0 -633.0 411.0 -814.0 217.0 -916.0C251.0 -953.0 309.0 -1038.0 329.0 -1079.0C553.0 -946.0 682.0 -719.0 734.0 -403.0Z"/></g>
<g fill="green" transform="translate(300 200) scale(0.1 -0.1)"><path d="M-0.0 -0.0V-55.0H582.0V0.0ZM-247.0 151.0V96.0H526.0V151.0ZM367.0 47.0 354.0 -542.0 412.0 -534.0 426.0 54.0ZM774.0 -172.0C664.0 -430.0 406.0 -610.0 133.0 -712.0C145.0 -723.0 164.0 -749.0 171.0 -763.0C446.0 -646.0 711.0 -463.0 828.0 -187.0Z"/></g>
<g fill="green" transform="translate(400 200) scale(0.1 -0.1)"><path d="M0.0 0.0V-206.0H615.0V0.0ZM-273.0 150.0V-45.0H528.0V150.0ZM289.0 -68.0 282.0 -691.0 514.0 -690.0 520.0 -66.0ZM712.0 -278.0C619.0 -532.0 404.0 -717.0 137.0 -821.0C181.0 -863.0 254.0 -960.0 282.0 -1007.0C564.0 -873.0 802.0 -648.0 929.0 -337.0Z"/></g>
<g fill="green" transform="translate(500 200) scale(0.1 -0.1)"><path d="M-0.0 0.0V-50.0H566.0V0.0ZM-78.0 114.0V64.0H610.0V114.0ZM436.0 163.0 421.0 -344.0 474.0 -336.0 490.0 172.0ZM747.0 -247.0C658.0 -514.0 440.0 -701.0 182.0 -809.0C192.0 -820.0 212.0 -842.0 218.0 -854.0C478.0 -732.0 702.0 -541.0 799.0 -259.0Z"/></g>
<g fill="green" transform="translate(600 200) scale(0.1 -0.1)"><path d="M0.0 0.0V-183.0H540.0V0.0ZM-149.0 105.0V-66.0H547.0V105.0ZM282.0 95.0 275.0 -433.0 502.0 -432.0 508.0 97.0ZM620.0 -361.0C554.0 -591.0 383.0 -757.0 160.0 -848.0C194.0 -889.0 247.0 -982.0 267.0 -1026.0C522.0 -902.0 717.0 -692.0 812.0 -406.0Z"/></g>
<g fill="green" transform="translate(700 200) scale(0.1 -0.1)"><path d="M0.0 -0.0V-49.0H507.0V0.0ZM-101.0 108.0V58.0H545.0V108.0ZM380.0 209.0 350.0 -390.0 405.0 -373.0 434.0 226.0ZM701.0 -282.0C613.0 -508.0 391.0 -655.0 148.0 -737.0C158.0 -747.0 176.0 -771.0 182.0 -783.0C427.0 -687.0 656.0 -535.0 751.0 -295.0Z"/></g>
<g fill="green" transform="translate(800 200) scale(0.1 -0.1)"><path d="M0.0 0.0V-192.0H584.0V0.0ZM-113.0 101.0V-78.0H631.0V101.0ZM331.0 153.0 317.0 -496.0 546.0 -493.0 559.0 157.0ZM707.0 -389.0C620.0 -612.0 417.0 -770.0 172.0 -856.0C205.0 -898.0 257.0 -992.0 275.0 -1037.0C551.0 -920.0 777.0 -720.0 894.0 -441.0Z"/></g>
<g fill="green" transform="translate(900 200) scale(0.1 -0.1)"><path d="M0.0 0.0V-45.0H536.0V0.0ZM-169.0 104.0V58.0H590.0V104.0ZM387.0 166.0 375.0 -352.0 423.0 -346.0 435.0 173.0ZM666.0 -248.0C589.0 -497.0 401.0 -673.0 176.0 -776.0C186.0 -786.0 202.0 -807.0 208.0 -818.0C435.0 -702.0 629.0 -522.0 713.0 -258.0Z"/></g>
<g fill="green" transform="translate(1000 200) scale(0.1 -0.1)"><path d="M0.0 0.0V-178.0H619.0V0.0ZM-183.0 100.0V-67.0H661.0V100.0ZM339.0 97.0 333.0 -447.0 546.0 -446.0 551.0 99.0ZM646.0 -349.0C579.0 -588.0 418.0 -766.0 199.0 -867.0C236.0 -905.0 299.0 -992.0 323.0 -1035.0C562.0 -906.0 745.0 -687.0 839.0 -396.0Z"/></g>
<g fill="green" transform="translate(1100 200) scale(0.1 -0.1)"><path d="M0.0 0.0V-50.0H537.0V0.0ZM-130.0 112.0V62.0H587.0V112.0ZM410.0 185.0 406.0 -342.0 457.0 -340.0 461.0 188.0ZM675.0 -243.0C608.0 -481.0 417.0 -631.0 193.0 -714.0C204.0 -724.0 223.0 -748.0 228.0 -759.0C453.0 -662.0 654.0 -507.0 726.0 -254.0Z"/></g>
<g fill="green" transform="translate(1200 200) scale(0.1 -0.1)"><path d="M0.0 0.0V-191.0H603.0V0.0ZM-191.0 98.0V-87.0H634.0V98.0ZM300.0 90.0 298.0 -458.0H530.0L532.0 90.0ZM650.0 -369.0C583.0 -623.0 406.0 -796.0 169.0 -891.0C203.0 -934.0 257.0 -1033.0 275.0 -1079.0C548.0 -949.0 750.0 -727.0 846.0 -415.0Z"/></g>
<g fill="red" transform="translate(100 300) scale(0.1 -0.1)"><path d="M0.0 0.0V-29.0H658.0V0.0ZM72.0 179.0V149.0H496.0V179.0ZM275.0 305.0V-17.0H304.0V305.0ZM606.0 263.0C460.0 12.0 231.0 -191.0 -39.0 -316.0C-31.0 -322.0 -18.0 -334.0 -14.0 -340.0C250.0 -207.0 479.0 -8.0 633.0 251.0Z"/></g>
<g fill="black" opacity=".8" transform="translate(100 300) scale(0.1 -0.1)"><path d="M0.0 0.0V-31.0H660.0V0.0ZM69.0 179.0V148.0H498.0V179.0ZM272.0 310.0 273.0 -22.0H304.0L303.0 309.0ZM599.0 259.0C456.0 14.0 226.0 -192.0 -30.0 -317.0C-22.0 -323.0 -12.0 -335.0 -5.0 -343.0C250.0 -210.0 476.0 -8.0 627.0 245.0Z"/></g>
<g fill="red" transform="translate(200 300) scale(0.1 -0.1)"><path d="M0.0 0.0V-124.0H662.0V0.0ZM58.0 186.0V66.0H468.0V186.0ZM205.0 286.0V-79.0H346.0V286.0ZM515.0 238.0C408.0 -8.0 208.0 -192.0 -43.0 -293.0C-16.0 -321.0 31.0 -380.0 50.0 -410.0C306.0 -289.0 520.0 -82.0 648.0 192.0Z"/></g>
<g fill="black" opacity=".8" transform="translate(200 300) scale(0.1 -0.1)"><path d="M0.0 0.0V-128.0H661.0V0.0ZM61.0 189.0V63.0H464.0V189.0ZM205.0 283.0 204.0 -75.0 349.0 -76.0 348.0 281.0ZM519.0 239.0C410.0 -1.0 205.0 -187.0 -47.0 -288.0C-19.0 -319.0 26.0 -381.0 45.0 -414.0C303.0 -291.0 523.0 -80.0 656.0 192.0Z"/></g>
<g fill="red" transform="translate(300 300) scale(0.1 -0.1)"><path d="M0.0 0.0V-30.0H675.0V0.0ZM52.0 201.0V171.0H498.0V201.0ZM263.0 324.0V-16.0H293.0V324.0ZM599.0 293.0C455.0 50.0 225.0 -154.0 -25.0 -278.0C-18.0 -285.0 -8.0 -298.0 -3.0 -305.0C247.0 -173.0 474.0 27.0 627.0 280.0Z"/></g>
<g fill="black" opacity=".8" transform="translate(300 300) scale(0.1 -0.1)"><path d="M0.0 0.0V-33.0H669.0V0.0ZM53.0 201.0V168.0H495.0V201.0ZM259.0 329.0 261.0 -17.0H294.0L293.0 327.0ZM596.0 295.0C457.0 48.0 228.0 -155.0 -26.0 -279.0C-17.0 -285.0 -6.0 -298.0 1.0 -306.0C253.0 -174.0 479.0 25.0 626.0 281.0Z"/></g>
<g fill="red" transform="translate(400 300) scale(0.1 -0.1)"><path d="M0.0 0.0V-131.0H667.0V0.0ZM40.0 203.0V77.0H455.0V203.0ZM182.0 291.0V-87.0H328.0V291.0ZM518.0 270.0C408.0 17.0 205.0 -176.0 -50.0 -282.0C-21.0 -311.0 28.0 -375.0 48.0 -407.0C309.0 -280.0 528.0 -62.0 659.0 221.0Z"/></g>
<g fill="black" opacity=".8" transform="translate(400 300) scale(0.1 -0.1)"><path d="M0.0 0.0V-136.0H672.0V0.0ZM40.0 208.0V74.0H455.0V208.0ZM181.0 287.0V-85.0L332.0 -86.0L331.0 286.0ZM515.0 268.0C408.0 17.0 204.0 -173.0 -51.0 -277.0C-22.0 -309.0 26.0 -374.0 45.0 -408.0C308.0 -281.0 527.0 -63.0 658.0 222.0Z"/></g>
<g fill="red" transform="translate(500 300) scale(0.1 -0.1)"><path d="M0.0 0.0V-30.0H469.0V0.0ZM25.0 191.0V161.0H352.0V191.0ZM182.0 320.0V-15.0H211.0V320.0ZM428.0 271.0C325.0 61.0 154.0 -118.0 -37.0 -228.0C-30.0 -233.0 -19.0 -247.0 -15.0 -253.0C176.0 -135.0 347.0 42.0 456.0 261.0Z"/></g>
<g fill="black" opacity=".8" transform="translate(500 300) scale(0.1 -0.1)"><path d="M0.0 0.0V-27.0H478.0V0.0ZM28.0 185.0V158.0H341.0V185.0ZM174.0 320.0 176.0 -15.0H202.0L201.0 318.0ZM426.0 281.0C327.0 64.0 168.0 -121.0 -21.0 -235.0C-13.0 -239.0 -5.0 -250.0 1.0 -256.0C190.0 -135.0 347.0 46.0 450.0 271.0Z"/></g>
<g fill="red" transform="translate(600 300) scale(0.1 -0.1)"><path d="M0.0 0.0V-129.0H515.0V0.0ZM36.0 190.0V70.0H335.0V190.0ZM126.0 279.0V-72.0H257.0V279.0ZM385.0 271.0C312.0 37.0 173.0 -153.0 -19.0 -261.0C8.0 -287.0 55.0 -342.0 72.0 -370.0C271.0 -240.0 424.0 -25.0 513.0 238.0Z"/></g>
<g fill="black" opacity=".8" transform="translate(600 300) scale(0.1 -0.1)"><path d="M0.0 0.0V-119.0H511.0V0.0ZM29.0 193.0V75.0H345.0V193.0ZM138.0 288.0V-82.0L260.0 -83.0L259.0 287.0ZM385.0 264.0C312.0 31.0 170.0 -152.0 -30.0 -253.0C-4.0 -280.0 39.0 -335.0 55.0 -365.0C264.0 -242.0 418.0 -33.0 509.0 232.0Z"/></g>
<g fill="red" transform="translate(700 300) scale(0.1 -0.1)"><path d="M0.0 0.0V-29.0H407.0V0.0ZM26.0 196.0V167.0H287.0V196.0ZM146.0 323.0V-12.0H175.0V323.0ZM360.0 294.0C280.0 75.0 148.0 -112.0 -22.0 -229.0C-14.0 -234.0 -1.0 -245.0 4.0 -250.0C171.0 -126.0 304.0 58.0 388.0 286.0Z"/></g>
<g fill="black" opacity=".8" transform="translate(700 300) scale(0.1 -0.1)"><path d="M0.0 0.0V-28.0H410.0V0.0ZM29.0 192.0V165.0H288.0V192.0ZM147.0 322.0 149.0 -14.0H176.0V321.0ZM362.0 288.0C281.0 71.0 145.0 -112.0 -27.0 -225.0C-19.0 -229.0 -9.0 -240.0 -3.0 -247.0C168.0 -126.0 303.0 54.0 388.0 278.0Z"/></g>
<g fill="red" transform="translate(800 300) scale(0.1 -0.1)"><path d="M0.0 0.0V-118.0H419.0V0.0ZM8.0 193.0V78.0H256.0V193.0ZM79.0 282.0V-92.0H197.0V282.0ZM298.0 255.0C238.0 29.0 118.0 -150.0 -58.0 -253.0C-34.0 -278.0 5.0 -332.0 20.0 -359.0C209.0 -234.0 343.0 -29.0 418.0 228.0Z"/></g>
<g fill="black" opacity=".8" transform="translate(800 300) scale(0.1 -0.1)"><path d="M0.0 0.0V-120.0H416.0V0.0ZM6.0 197.0V77.0H253.0V197.0ZM76.0 283.0 75.0 -89.0H198.0L197.0 282.0ZM292.0 262.0C238.0 29.0 125.0 -151.0 -54.0 -251.0C-29.0 -279.0 10.0 -335.0 24.0 -364.0C218.0 -240.0 346.0 -29.0 416.0 237.0Z"/></g>
<g fill="red" transform="translate(900 300) scale(0.1 -0.1)"><path d="M0.0 0.0V-29.0H592.0V0.0ZM47.0 175.0V145.0H422.0V175.0ZM229.0 305.0V-17.0H259.0V305.0ZM537.0 263.0C410.0 30.0 208.0 -166.0 -26.0 -288.0C-19.0 -294.0 -6.0 -304.0 -1.0 -310.0C228.0 -183.0 430.0 9.0 565.0 252.0Z"/></g>
<g fill="black" opacity=".8" transform="translate(900 300) scale(0.1 -0.1)"><path d="M0.0 0.0V-29.0H590.0V0.0ZM49.0 175.0V146.0H431.0V175.0ZM226.0 307.0 231.0 -15.0 259.0 -16.0 256.0 304.0ZM541.0 264.0C411.0 31.0 202.0 -165.0 -33.0 -285.0C-25.0 -290.0 -16.0 -301.0 -9.0 -308.0C224.0 -182.0 430.0 10.0 567.0 251.0Z"/></g>
<g fill="red" transform="translate(1000 300) scale(0.1 -0.1)"><path d="M0.0 0.0V-124.0H604.0V0.0ZM45.0 188.0V67.0H428.0V188.0ZM171.0 279.0V-72.0H312.0V279.0ZM483.0 249.0C379.0 8.0 185.0 -174.0 -59.0 -274.0C-31.0 -301.0 16.0 -360.0 35.0 -391.0C283.0 -271.0 492.0 -66.0 616.0 204.0Z"/></g>
<g fill="black" opacity=".8" transform="translate(1000 300) scale(0.1 -0.1)"><path d="M0.0 0.0V-123.0H603.0V0.0ZM43.0 186.0V63.0H418.0V186.0ZM175.0 279.0 176.0 -70.0 311.0 -71.0 308.0 278.0ZM483.0 247.0C382.0 9.0 191.0 -175.0 -48.0 -275.0C-22.0 -305.0 21.0 -365.0 38.0 -396.0C285.0 -274.0 490.0 -65.0 614.0 204.0Z"/></g>
<g fill="red" transform="translate(1100 300) scale(0.1 -0.1)"><path d="M0.0 0.0V-30.0H570.0V0.0ZM44.0 190.0V161.0H426.0V190.0ZM235.0 325.0V-15.0H264.0V325.0ZM514.0 263.0C395.0 49.0 199.0 -125.0 -30.0 -230.0C-21.0 -236.0 -9.0 -248.0 -4.0 -254.0C219.0 -141.0 417.0 30.0 543.0 253.0Z"/></g>
<g fill="black" opacity=".8" transform="translate(1100 300) scale(0.1 -0.1)"><path d="M0.0 0.0V-30.0H574.0V0.0ZM43.0 191.0V161.0H421.0V191.0ZM231.0 329.0V-15.0L261.0 -14.0L262.0 328.0ZM515.0 272.0C396.0 54.0 198.0 -125.0 -22.0 -233.0C-14.0 -238.0 -4.0 -250.0 3.0 -258.0C221.0 -142.0 417.0 33.0 542.0 259.0Z"/></g>
<g fill="red" transform="translate(1200 300) scale(0.1 -0.1)"><path d="M0.0 0.0V-128.0H599.0V0.0ZM37.0 197.0V72.0H406.0V197.0ZM168.0 294.0V-80.0H308.0V294.0ZM459.0 253.0C368.0 17.0 192.0 -160.0 -40.0 -258.0C-12.0 -285.0 35.0 -344.0 52.0 -374.0C293.0 -255.0 484.0 -53.0 594.0 213.0Z"/></g>
<g fill="black" opacity=".8" transform="translate(1200 300) scale(0.1 -0.1)"><path d="M0.0 0.0V-126.0H595.0V0.0ZM37.0 196.0V71.0H409.0V196.0ZM173.0 293.0 172.0 -82.0H311.0V292.0ZM463.0 247.0C370.0 16.0 190.0 -158.0 -39.0 -254.0C-13.0 -283.0 30.0 -343.0 46.0 -375.0C284.0 -257.0 478.0 -57.0 593.0 207.0Z"/></g>
<g fill="red" transform="translate(1300 300) scale(0.1 -0.1)"><path d="M0.0 0.0V-29.0H367.0V0.0ZM30.0 173.0V144.0H282.0V173.0ZM149.0 300.0V-22.0H178.0V300.0ZM353.0 271.0C287.0 75.0 153.0 -117.0 -38.0 -233.0C-31.0 -239.0 -23.0 -249.0 -19.0 -255.0C176.0 -136.0 310.0 59.0 383.0 262.0Z"/></g>
<g fill="black" opacity=".8" transform="translate(1300 300) scale(0.1 -0.1)"><path d="M0.0 0.0V-25.0H371.0V0.0ZM31.0 168.0V143.0H280.0V168.0ZM152.0 298.0 146.0 -29.0 171.0 -25.0 179.0 301.0ZM367.0 271.0C282.0 61.0 144.0 -119.0 -29.0 -231.0C-22.0 -235.0 -13.0 -244.0 -7.0 -250.0C165.0 -132.0 301.0 45.0 390.0 261.0Z"/></g>
<g fill="red" transform="translate(1400 300) scale(0.1 -0.1)"><path d="M0.0 0.0V-116.0H370.0V0.0ZM19.0 176.0V63.0H249.0V176.0ZM94.0 273.0V-87.0H204.0V273.0ZM291.0 242.0C249.0 56.0 147.0 -129.0 -39.0 -222.0C-20.0 -246.0 8.0 -294.0 20.0 -322.0C233.0 -210.0 348.0 -4.0 410.0 217.0Z"/></g>
<g fill="black" opacity=".8" transform="translate(1400 300) scale(0.1 -0.1)"><path d="M0.0 0.0V-110.0H368.0V0.0ZM19.0 177.0V69.0H249.0V177.0ZM94.0 277.0 90.0 -86.0H207.0L209.0 276.0ZM300.0 258.0C243.0 44.0 128.0 -127.0 -43.0 -222.0C-21.0 -248.0 17.0 -299.0 31.0 -326.0C214.0 -209.0 341.0 -12.0 415.0 232.0Z"/></g>
<g fill="red" transform="translate(1500 300) scale(0.1 -0.1)"><path d="M0.0 0.0V-29.0H869.0V0.0ZM173.0 -181.0V-211.0H566.0V-181.0ZM360.0 -79.0V-344.0H389.0V-79.0ZM645.0 -154.0C489.0 -331.0 228.0 -472.0 -27.0 -554.0C-20.0 -560.0 -9.0 -574.0 -5.0 -580.0C246.0 -492.0 506.0 -355.0 670.0 -168.0Z"/></g>
<g fill="black" opacity=".8" transform="translate(1500 300) scale(0.1 -0.1)"><path d="M0.0 0.0V-27.0H858.0V0.0ZM169.0 -177.0V-205.0H569.0V-177.0ZM370.0 -90.0 351.0 -341.0 381.0 -329.0 401.0 -79.0ZM646.0 -149.0C490.0 -330.0 231.0 -473.0 -27.0 -555.0C-20.0 -560.0 -12.0 -573.0 -7.0 -580.0C249.0 -491.0 504.0 -352.0 668.0 -165.0Z"/></g>
<g fill="red" transform="translate(1600 300) scale(0.1 -0.1)"><path d="M0.0 0.0V-118.0H901.0V0.0ZM163.0 -192.0V-304.0H582.0V-192.0ZM320.0 -132.0V-389.0H461.0V-132.0ZM616.0 -209.0C480.0 -377.0 226.0 -497.0 -34.0 -557.0C-12.0 -585.0 23.0 -646.0 37.0 -676.0C303.0 -599.0 571.0 -464.0 733.0 -269.0Z"/></g>
<g fill="black" opacity=".8" transform="translate(1600 300) scale(0.1 -0.1)"><path d="M0.0 0.0V-112.0H908.0V0.0ZM169.0 -201.0V-302.0H574.0V-201.0ZM319.0 -134.0 309.0 -392.0 465.0 -390.0 473.0 -132.0ZM618.0 -211.0C481.0 -380.0 228.0 -501.0 -39.0 -560.0C-16.0 -587.0 23.0 -644.0 39.0 -674.0C306.0 -601.0 571.0 -466.0 735.0 -270.0Z"/></g>
<g fill="red" transform="translate(100 400) scale(0.1 -0.1)"><path d="M0.0 0.0V-29.0H883.0V0.0ZM81.0 166.0V136.0H638.0V166.0ZM354.0 289.0V-16.0H383.0V289.0ZM797.0 250.0C604.0 21.0 302.0 -165.0 -11.0 -276.0C-3.0 -282.0 8.0 -295.0 12.0 -302.0C319.0 -184.0 618.0 -4.0 822.0 234.0Z"/></g>
<g fill="black" opacity=".8" transform="translate(100 400) scale(0.1 -0.1)"><path d="M0.0 0.0V-32.0H884.0V0.0ZM82.0 170.0V138.0H644.0V170.0ZM358.0 294.0 366.0 -11.0 397.0 -14.0 390.0 290.0ZM784.0 252.0C594.0 21.0 289.0 -166.0 -19.0 -277.0C-11.0 -283.0 -2.0 -297.0 6.0 -305.0C310.0 -187.0 611.0 -5.0 811.0 234.0Z"/></g>
<g fill="red" transform="translate(200 400) scale(0.1 -0.1)"><path d="M0.0 0.0V-124.0H919.0V0.0ZM92.0 179.0V57.0H655.0V179.0ZM331.0 269.0V-64.0H475.0V269.0ZM741.0 232.0C568.0 7.0 275.0 -173.0 -29.0 -273.0C-3.0 -300.0 42.0 -359.0 61.0 -390.0C360.0 -275.0 666.0 -82.0 863.0 165.0Z"/></g>
<g fill="black" opacity=".8" transform="translate(200 400) scale(0.1 -0.1)"><path d="M0.0 0.0V-131.0H914.0V0.0ZM95.0 178.0V50.0H646.0V178.0ZM316.0 261.0 318.0 -60.0 474.0 -61.0 470.0 260.0ZM739.0 233.0C578.0 2.0 286.0 -170.0 -29.0 -260.0C0.0 -291.0 50.0 -356.0 71.0 -390.0C382.0 -282.0 687.0 -93.0 877.0 168.0Z"/></g>
<g fill="red" transform="translate(300 400) scale(0.1 -0.1)"><path d="M0.0 0.0V-30.0H883.0V0.0ZM118.0 154.0V125.0H678.0V154.0ZM396.0 231.0V-16.0H425.0V231.0ZM764.0 205.0C585.0 -5.0 292.0 -164.0 -15.0 -255.0C-7.0 -262.0 4.0 -275.0 9.0 -282.0C309.0 -184.0 601.0 -30.0 790.0 190.0Z"/></g>
<g fill="black" opacity=".8" transform="translate(300 400) scale(0.1 -0.1)"><path d="M0.0 0.0V-30.0H892.0V0.0ZM135.0 145.0V115.0H679.0V145.0ZM397.0 222.0 407.0 -15.0 435.0 -20.0 426.0 216.0ZM763.0 187.0C580.0 -10.0 279.0 -163.0 -16.0 -251.0C-8.0 -257.0 0.0 -270.0 7.0 -278.0C298.0 -183.0 594.0 -36.0 787.0 169.0Z"/></g>
<g fill="red" transform="translate(400 400) scale(0.1 -0.1)"><path d="M0.0 0.0V-114.0H901.0V0.0ZM149.0 140.0V29.0H645.0V140.0ZM338.0 166.0V-50.0H480.0V166.0ZM701.0 144.0C542.0 -33.0 252.0 -161.0 -32.0 -224.0C-14.0 -253.0 15.0 -314.0 25.0 -343.0C320.0 -263.0 624.0 -121.0 808.0 81.0Z"/></g>
<g fill="black" opacity=".8" transform="translate(400 400) scale(0.1 -0.1)"><path d="M0.0 0.0V-113.0H896.0V0.0ZM133.0 148.0V37.0H644.0V148.0ZM330.0 184.0 333.0 -54.0 474.0 -56.0 468.0 182.0ZM697.0 159.0C541.0 -29.0 255.0 -162.0 -39.0 -229.0C-15.0 -257.0 26.0 -315.0 44.0 -345.0C334.0 -263.0 632.0 -117.0 816.0 97.0Z"/></g>
<g fill="red" transform="translate(500 400) scale(0.1 -0.1)"><path d="M0.0 0.0V-30.0H719.0V0.0ZM49.0 140.0V111.0H530.0V140.0ZM281.0 226.0V-17.0H311.0V226.0ZM622.0 206.0C468.0 15.0 220.0 -142.0 -34.0 -235.0C-26.0 -241.0 -16.0 -254.0 -11.0 -260.0C238.0 -160.0 485.0 -8.0 648.0 192.0Z"/></g>
<g fill="black" opacity=".8" transform="translate(500 400) scale(0.1 -0.1)"><path d="M0.0 0.0V-28.0H717.0V0.0ZM48.0 134.0V107.0H532.0V134.0ZM279.0 222.0 278.0 -15.0 305.0 -13.0 308.0 222.0ZM633.0 196.0C477.0 8.0 221.0 -141.0 -35.0 -229.0C-27.0 -234.0 -19.0 -246.0 -13.0 -253.0C240.0 -159.0 492.0 -14.0 656.0 180.0Z"/></g>
<g fill="red" transform="translate(600 400) scale(0.1 -0.1)"><path d="M0.0 0.0V-109.0H707.0V0.0ZM46.0 135.0V32.0H497.0V135.0ZM206.0 185.0V-49.0H342.0V185.0ZM566.0 164.0C440.0 -9.0 200.0 -127.0 -59.0 -188.0C-33.0 -214.0 8.0 -269.0 26.0 -298.0C282.0 -223.0 535.0 -91.0 687.0 109.0Z"/></g>
<g fill="black" opacity=".8" transform="translate(600 400) scale(0.1 -0.1)"><path d="M0.0 0.0V-105.0H710.0V0.0ZM45.0 139.0V36.0H493.0V139.0ZM212.0 192.0 210.0 -53.0H344.0V191.0ZM563.0 172.0C434.0 -3.0 197.0 -132.0 -54.0 -199.0C-30.0 -224.0 10.0 -276.0 28.0 -304.0C276.0 -222.0 523.0 -81.0 677.0 120.0Z"/></g>
<g fill="red" transform="translate(700 400) scale(0.1 -0.1)"><path d="M0.0 0.0V-30.0H521.0V0.0ZM40.0 190.0V161.0H389.0V190.0ZM214.0 325.0V-15.0H243.0V325.0ZM470.0 263.0C360.0 49.0 182.0 -125.0 -27.0 -230.0C-19.0 -236.0 -8.0 -248.0 -3.0 -254.0C201.0 -141.0 381.0 30.0 495.0 253.0Z"/></g>
<g fill="black" opacity=".8" transform="translate(700 400) scale(0.1 -0.1)"><path d="M0.0 0.0V-29.0H526.0V0.0ZM40.0 189.0V161.0H385.0V189.0ZM210.0 328.0 211.0 -15.0 239.0 -14.0V327.0ZM470.0 269.0C362.0 54.0 182.0 -124.0 -23.0 -232.0C-15.0 -237.0 -6.0 -249.0 1.0 -256.0C204.0 -140.0 383.0 34.0 496.0 257.0Z"/></g>
<g fill="red" transform="translate(800 400) scale(0.1 -0.1)"><path d="M0.0 0.0V-128.0H557.0V0.0ZM36.0 197.0V72.0H379.0V197.0ZM156.0 294.0V-80.0H286.0V294.0ZM427.0 253.0C342.0 17.0 179.0 -160.0 -37.0 -258.0C-11.0 -285.0 32.0 -344.0 49.0 -374.0C272.0 -255.0 450.0 -53.0 552.0 213.0Z"/></g>
<g fill="black" opacity=".8" transform="translate(800 400) scale(0.1 -0.1)"><path d="M0.0 0.0V-123.0H552.0V0.0ZM35.0 195.0V73.0H381.0V195.0ZM160.0 294.0 159.0 -82.0H291.0V293.0ZM425.0 245.0C341.0 16.0 178.0 -160.0 -38.0 -257.0C-13.0 -285.0 29.0 -344.0 45.0 -374.0C271.0 -256.0 448.0 -53.0 551.0 209.0Z"/></g>
<g fill="red" transform="translate(900 400) scale(0.1 -0.1)"><path d="M0.0 0.0V-30.0H728.0V0.0ZM78.0 137.0V108.0H577.0V137.0ZM314.0 222.0V-12.0H344.0V222.0ZM657.0 196.0C503.0 -10.0 240.0 -164.0 -35.0 -253.0C-29.0 -260.0 -19.0 -273.0 -15.0 -279.0C258.0 -183.0 520.0 -33.0 684.0 182.0Z"/></g>
<g fill="black" opacity=".8" transform="translate(900 400) scale(0.1 -0.1)"><path d="M0.0 0.0V-31.0H730.0V0.0ZM73.0 142.0V112.0H571.0V142.0ZM318.0 227.0 312.0 -16.0 344.0 -12.0 351.0 230.0ZM661.0 200.0C502.0 -3.0 235.0 -162.0 -38.0 -255.0C-30.0 -261.0 -20.0 -274.0 -13.0 -281.0C256.0 -181.0 520.0 -26.0 688.0 184.0Z"/></g>
<g fill="red" transform="translate(1000 400) scale(0.1 -0.1)"><path d="M0.0 0.0V-113.0H676.0V0.0ZM36.0 151.0V42.0H464.0V151.0ZM197.0 203.0V-54.0H338.0V203.0ZM535.0 175.0C411.0 -7.0 175.0 -133.0 -83.0 -198.0C-58.0 -224.0 -18.0 -281.0 -2.0 -310.0C257.0 -229.0 506.0 -88.0 655.0 121.0Z"/></g>
<g fill="black" opacity=".8" transform="translate(1000 400) scale(0.1 -0.1)"><path d="M0.0 0.0V-109.0H672.0V0.0ZM42.0 146.0V39.0H467.0V146.0ZM196.0 195.0 192.0 -50.0 338.0 -49.0 340.0 195.0ZM537.0 168.0C411.0 -7.0 173.0 -134.0 -79.0 -200.0C-54.0 -227.0 -16.0 -283.0 1.0 -312.0C254.0 -230.0 503.0 -87.0 655.0 116.0Z"/></g>
<g fill="red" transform="translate(1100 400) scale(0.1 -0.1)"><path d="M0.0 0.0V-30.0H604.0V0.0ZM36.0 102.0V72.0H438.0V102.0ZM239.0 158.0V-14.0H268.0V158.0ZM530.0 147.0C406.0 1.0 187.0 -107.0 -32.0 -168.0C-24.0 -175.0 -13.0 -186.0 -9.0 -193.0C205.0 -126.0 426.0 -20.0 556.0 134.0Z"/></g>
<g fill="black" opacity=".8" transform="translate(1100 400) scale(0.1 -0.1)"><path d="M0.0 0.0V-24.0H599.0V0.0ZM49.0 100.0V77.0H448.0V100.0ZM244.0 166.0 242.0 -13.0 266.0 -10.0 270.0 167.0ZM529.0 153.0C399.0 4.0 181.0 -109.0 -34.0 -174.0C-28.0 -178.0 -21.0 -188.0 -16.0 -195.0C197.0 -124.0 413.0 -14.0 549.0 139.0Z"/></g>
<g fill="red" transform="translate(1200 400) scale(0.1 -0.1)"><path d="M0.0 0.0V-82.0H568.0V0.0ZM40.0 101.0V22.0H396.0V101.0ZM154.0 144.0V-41.0H277.0V144.0ZM446.0 128.0C334.0 -3.0 129.0 -104.0 -74.0 -159.0C-54.0 -178.0 -22.0 -220.0 -8.0 -241.0C193.0 -174.0 407.0 -63.0 536.0 87.0Z"/></g>
<g fill="black" opacity=".8" transform="translate(1200 400) scale(0.1 -0.1)"><path d="M0.0 0.0V-85.0H569.0V0.0ZM28.0 101.0V17.0H385.0V101.0ZM158.0 136.0 155.0 -41.0 271.0 -42.0V135.0ZM452.0 126.0C344.0 -9.0 142.0 -103.0 -68.0 -151.0C-49.0 -172.0 -19.0 -216.0 -6.0 -239.0C202.0 -179.0 413.0 -73.0 543.0 83.0Z"/></g>
<g fill="red" transform="translate(1300 400) scale(0.1 -0.1)"><path d="M0.0 0.0V-29.0H349.0V0.0ZM-84.0 173.0V143.0H521.0V173.0ZM172.0 100.0V-152.0H201.0V100.0ZM376.0 -15.0C281.0 -167.0 86.0 -266.0 -119.0 -321.0C-112.0 -328.0 -101.0 -341.0 -98.0 -348.0C105.0 -286.0 303.0 -186.0 404.0 -25.0Z"/></g>
<g fill="black" opacity=".8" transform="translate(1300 400) scale(0.1 -0.1)"><path d="M0.0 0.0V-30.0H343.0V0.0ZM-81.0 176.0V146.0H516.0V176.0ZM174.0 100.0 172.0 -152.0 202.0 -149.0 206.0 101.0ZM377.0 -5.0C282.0 -166.0 86.0 -267.0 -121.0 -322.0C-114.0 -329.0 -104.0 -342.0 -99.0 -350.0C107.0 -287.0 305.0 -185.0 405.0 -16.0Z"/></g>
<g fill="red" transform="translate(1400 400) scale(0.1 -0.1)"><path d="M0.0 0.0V-103.0H316.0V0.0ZM-115.0 206.0V95.0H502.0V206.0ZM101.0 49.0V-208.0H226.0V49.0ZM332.0 -53.0C235.0 -198.0 46.0 -304.0 -149.0 -361.0C-130.0 -389.0 -100.0 -452.0 -90.0 -481.0C123.0 -406.0 328.0 -276.0 446.0 -100.0Z"/></g>
<g fill="black" opacity=".8" transform="translate(1400 400) scale(0.1 -0.1)"><path d="M0.0 0.0V-104.0H319.0V0.0ZM-116.0 203.0V92.0H504.0V203.0ZM100.0 47.0 97.0 -207.0 226.0 -208.0 227.0 46.0ZM329.0 -60.0C235.0 -205.0 47.0 -307.0 -153.0 -361.0C-132.0 -388.0 -97.0 -447.0 -84.0 -476.0C126.0 -405.0 328.0 -281.0 446.0 -104.0Z"/></g>
<g fill="red" transform="translate(1500 400) scale(0.1 -0.1)"><path d="M0.0 0.0V-29.0H614.0V0.0ZM3.0 331.0V302.0H609.0V331.0ZM174.0 430.0V210.0H202.0V430.0ZM550.0 227.0C418.0 26.0 196.0 -129.0 -45.0 -221.0C-37.0 -228.0 -26.0 -240.0 -21.0 -247.0C215.0 -147.0 437.0 6.0 577.0 215.0Z"/></g>
<g fill="black" opacity=".8" transform="translate(1500 400) scale(0.1 -0.1)"><path d="M0.0 0.0V-29.0H616.0V0.0ZM-1.0 327.0V298.0H610.0V327.0ZM165.0 437.0 181.0 209.0 208.0 201.0 193.0 427.0ZM548.0 225.0C420.0 23.0 198.0 -129.0 -41.0 -219.0C-33.0 -226.0 -24.0 -238.0 -17.0 -245.0C219.0 -147.0 440.0 3.0 576.0 213.0Z"/></g>
<g fill="red" transform="translate(1600 400) scale(0.1 -0.1)"><path d="M0.0 0.0V-114.0H635.0V0.0ZM2.0 346.0V235.0H624.0V346.0ZM123.0 406.0V167.0H254.0V406.0ZM498.0 194.0C394.0 0.0 191.0 -136.0 -46.0 -209.0C-22.0 -235.0 17.0 -292.0 33.0 -321.0C277.0 -231.0 494.0 -75.0 620.0 148.0Z"/></g>
<g fill="black" opacity=".8" transform="translate(1600 400) scale(0.1 -0.1)"><path d="M0.0 0.0V-112.0H634.0V0.0ZM4.0 350.0V234.0H623.0V350.0ZM126.0 412.0 131.0 167.0 252.0 164.0 244.0 409.0ZM500.0 195.0C391.0 4.0 184.0 -135.0 -49.0 -211.0C-25.0 -238.0 17.0 -293.0 35.0 -322.0C271.0 -231.0 491.0 -71.0 622.0 149.0Z"/></g>
<g fill="red" transform="translate(100 500) scale(0.1 -0.1)"><path d="M0.0 0.0V-29.0H283.0V0.0ZM-117.0 316.0V287.0H338.0V316.0ZM69.0 622.0V296.0H99.0V622.0ZM305.0 575.0C214.0 368.0 58.0 201.0 -130.0 97.0C-122.0 91.0 -110.0 79.0 -105.0 74.0C80.0 184.0 237.0 351.0 334.0 566.0Z"/></g>
<g fill="black" opacity=".8" transform="translate(100 500) scale(0.1 -0.1)"><path d="M0.0 0.0V-25.0H269.0V0.0ZM-121.0 324.0V300.0H348.0V324.0ZM82.0 609.0 58.0 295.0 85.0 309.0 112.0 622.0ZM313.0 579.0C213.0 371.0 58.0 200.0 -130.0 94.0C-122.0 90.0 -114.0 81.0 -107.0 76.0C77.0 187.0 230.0 355.0 335.0 569.0Z"/></g>
<g fill="red" transform="translate(200 500) scale(0.1 -0.1)"><path d="M0.0 0.0V-105.0H230.0V0.0ZM-146.0 373.0V247.0H341.0V373.0ZM-19.0 619.0V286.0H110.0V619.0ZM245.0 595.0C167.0 381.0 19.0 208.0 -167.0 108.0C-144.0 82.0 -106.0 24.0 -92.0 -4.0C108.0 117.0 270.0 317.0 364.0 560.0Z"/></g>
<g fill="black" opacity=".8" transform="translate(200 500) scale(0.1 -0.1)"><path d="M0.0 0.0V-97.0H239.0V0.0ZM-143.0 356.0V248.0H327.0V356.0ZM-16.0 617.0 -30.0 284.0 111.0 288.0 123.0 620.0ZM252.0 594.0C172.0 374.0 24.0 201.0 -168.0 102.0C-145.0 76.0 -107.0 25.0 -92.0 -2.0C108.0 116.0 267.0 316.0 364.0 563.0Z"/></g>
<g fill="red" transform="translate(300 500) scale(0.1 -0.1)"><path d="M0.0 0.0V-30.0H565.0V0.0ZM44.0 190.0V161.0H422.0V190.0ZM232.0 325.0V-15.0H261.0V325.0ZM509.0 263.0C391.0 49.0 196.0 -125.0 -29.0 -230.0C-20.0 -236.0 -8.0 -248.0 -3.0 -254.0C218.0 -141.0 413.0 30.0 538.0 253.0Z"/></g>
<g fill="black" opacity=".8" transform="translate(300 500) scale(0.1 -0.1)"><path d="M0.0 0.0V-31.0H567.0V0.0ZM45.0 191.0V161.0H418.0V191.0ZM229.0 329.0 228.0 -15.0 258.0 -14.0 260.0 328.0ZM508.0 272.0C391.0 54.0 196.0 -125.0 -22.0 -233.0C-13.0 -239.0 -3.0 -251.0 3.0 -258.0C219.0 -142.0 413.0 33.0 535.0 259.0Z"/></g>
<g fill="red" transform="translate(400 500) scale(0.1 -0.1)"><path d="M0.0 0.0V-128.0H586.0V0.0ZM38.0 197.0V72.0H399.0V197.0ZM163.0 294.0V-80.0H300.0V294.0ZM448.0 253.0C359.0 17.0 187.0 -160.0 -40.0 -258.0C-13.0 -285.0 33.0 -344.0 50.0 -374.0C285.0 -255.0 472.0 -53.0 580.0 213.0Z"/></g>
<g fill="black" opacity=".8" transform="translate(400 500) scale(0.1 -0.1)"><path d="M0.0 0.0V-126.0H584.0V0.0ZM36.0 196.0V71.0H401.0V196.0ZM166.0 292.0 165.0 -82.0H304.0V291.0ZM451.0 246.0C361.0 16.0 185.0 -158.0 -41.0 -253.0C-15.0 -282.0 28.0 -342.0 44.0 -374.0C279.0 -256.0 469.0 -56.0 581.0 207.0Z"/></g>
<g fill="red" transform="translate(500 500) scale(0.1 -0.1)"><path d="M0.0 0.0V-30.0H610.0V0.0ZM51.0 132.0V102.0H435.0V132.0ZM225.0 208.0V-21.0H254.0V208.0ZM524.0 198.0C396.0 32.0 190.0 -108.0 -21.0 -194.0C-12.0 -199.0 -1.0 -211.0 4.0 -217.0C209.0 -127.0 416.0 11.0 550.0 186.0Z"/></g>
<g fill="black" opacity=".8" transform="translate(500 500) scale(0.1 -0.1)"><path d="M0.0 0.0V-27.0H601.0V0.0ZM44.0 132.0V106.0H435.0V132.0ZM224.0 211.0 226.0 -30.0H252.0L251.0 210.0ZM535.0 200.0C408.0 27.0 196.0 -110.0 -20.0 -190.0C-13.0 -194.0 -5.0 -206.0 0.0 -212.0C214.0 -126.0 424.0 7.0 557.0 187.0Z"/></g>
<g fill="red" transform="translate(600 500) scale(0.1 -0.1)"><path d="M0.0 0.0V-108.0H599.0V0.0ZM29.0 138.0V33.0H412.0V138.0ZM153.0 168.0V-89.0H291.0V168.0ZM484.0 173.0C381.0 -5.0 179.0 -131.0 -50.0 -196.0C-26.0 -223.0 13.0 -280.0 28.0 -308.0C264.0 -225.0 480.0 -81.0 605.0 126.0Z"/></g>
<g fill="black" opacity=".8" transform="translate(600 500) scale(0.1 -0.1)"><path d="M0.0 0.0V-104.0H607.0V0.0ZM34.0 134.0V30.0H411.0V134.0ZM162.0 171.0 161.0 -84.0 285.0 -85.0 283.0 169.0ZM484.0 174.0C378.0 -6.0 179.0 -137.0 -47.0 -206.0C-24.0 -230.0 12.0 -282.0 27.0 -308.0C254.0 -223.0 465.0 -76.0 592.0 130.0Z"/></g>
<g fill="red" transform="translate(700 500) scale(0.1 -0.1)"><path d="M0.0 0.0V-31.0H583.0V0.0ZM35.0 109.0V79.0H411.0V109.0ZM237.0 180.0V-19.0H267.0V180.0ZM515.0 155.0C390.0 16.0 182.0 -97.0 -19.0 -165.0C-11.0 -171.0 0.0 -182.0 5.0 -188.0C200.0 -116.0 410.0 -3.0 540.0 142.0Z"/></g>
<g fill="black" opacity=".8" transform="translate(700 500) scale(0.1 -0.1)"><path d="M0.0 0.0V-23.0H576.0V0.0ZM37.0 108.0V85.0H411.0V108.0ZM240.0 185.0 244.0 -22.0 266.0 -23.0 263.0 183.0ZM522.0 162.0C397.0 14.0 189.0 -100.0 -17.0 -166.0C-10.0 -170.0 -4.0 -180.0 1.0 -186.0C204.0 -115.0 410.0 -4.0 541.0 148.0Z"/></g>
<g fill="red" transform="translate(800 500) scale(0.1 -0.1)"><path d="M0.0 0.0V-92.0H581.0V0.0ZM37.0 115.0V26.0H402.0V115.0ZM181.0 152.0V-53.0H322.0V152.0ZM478.0 146.0C380.0 -9.0 180.0 -112.0 -40.0 -166.0C-19.0 -189.0 16.0 -240.0 30.0 -266.0C255.0 -198.0 468.0 -79.0 588.0 104.0Z"/></g>
<g fill="black" opacity=".8" transform="translate(800 500) scale(0.1 -0.1)"><path d="M0.0 0.0V-89.0H587.0V0.0ZM32.0 110.0V22.0H402.0V110.0ZM194.0 157.0V-57.0L306.0 -58.0L303.0 155.0ZM489.0 142.0C381.0 -9.0 180.0 -117.0 -35.0 -172.0C-16.0 -194.0 16.0 -239.0 29.0 -263.0C242.0 -194.0 453.0 -74.0 582.0 99.0Z"/></g>
<g fill="red" transform="translate(900 500) scale(0.1 -0.1)"><path d="M0.0 0.0V-29.0H636.0V0.0ZM57.0 175.0V145.0H473.0V175.0ZM256.0 305.0V-17.0H285.0V305.0ZM573.0 263.0C441.0 22.0 230.0 -170.0 -23.0 -288.0C-15.0 -294.0 -3.0 -305.0 2.0 -310.0C249.0 -187.0 461.0 1.0 600.0 252.0Z"/></g>
<g fill="black" opacity=".8" transform="translate(900 500) scale(0.1 -0.1)"><path d="M0.0 0.0V-30.0H648.0V0.0ZM62.0 176.0V146.0H476.0V176.0ZM254.0 301.0 257.0 -22.0 286.0 -23.0 284.0 299.0ZM583.0 255.0C442.0 25.0 214.0 -165.0 -34.0 -280.0C-26.0 -286.0 -17.0 -298.0 -10.0 -306.0C236.0 -183.0 461.0 3.0 609.0 241.0Z"/></g>
<g fill="red" transform="translate(1000 500) scale(0.1 -0.1)"><path d="M0.0 0.0V-123.0H676.0V0.0ZM63.0 186.0V65.0H469.0V186.0ZM202.0 267.0V-89.0H343.0V267.0ZM534.0 232.0C417.0 -5.0 200.0 -177.0 -68.0 -270.0C-39.0 -296.0 9.0 -351.0 29.0 -381.0C294.0 -271.0 525.0 -82.0 664.0 183.0Z"/></g>
<g fill="black" opacity=".8" transform="translate(1000 500) scale(0.1 -0.1)"><path d="M0.0 0.0V-126.0H664.0V0.0ZM59.0 185.0V61.0H464.0V185.0ZM203.0 271.0V-79.0L343.0 -80.0L341.0 269.0ZM528.0 235.0C415.0 2.0 204.0 -177.0 -49.0 -273.0C-22.0 -303.0 22.0 -364.0 40.0 -396.0C299.0 -279.0 523.0 -77.0 659.0 188.0Z"/></g>
<g fill="red" transform="translate(1100 500) scale(0.1 -0.1)"><path d="M0.0 0.0V-30.0H637.0V0.0ZM44.0 182.0V153.0H473.0V182.0ZM249.0 314.0V-26.0H278.0V314.0ZM588.0 275.0C449.0 48.0 219.0 -137.0 -28.0 -247.0C-21.0 -254.0 -11.0 -268.0 -7.0 -275.0C240.0 -155.0 468.0 25.0 615.0 262.0Z"/></g>
<g fill="black" opacity=".8" transform="translate(1100 500) scale(0.1 -0.1)"><path d="M0.0 0.0V-32.0H642.0V0.0ZM47.0 189.0V157.0H469.0V189.0ZM252.0 317.0V-29.0L284.0 -28.0L285.0 316.0ZM577.0 280.0C441.0 50.0 216.0 -138.0 -29.0 -252.0C-20.0 -258.0 -10.0 -271.0 -3.0 -279.0C239.0 -157.0 462.0 28.0 605.0 266.0Z"/></g>
<g fill="red" transform="translate(1200 500) scale(0.1 -0.1)"><path d="M0.0 0.0V-131.0H664.0V0.0ZM45.0 199.0V73.0H449.0V199.0ZM197.0 281.0V-97.0H342.0V281.0ZM510.0 261.0C401.0 19.0 201.0 -165.0 -46.0 -266.0C-18.0 -295.0 29.0 -356.0 47.0 -388.0C300.0 -266.0 516.0 -58.0 645.0 213.0Z"/></g>
<g fill="black" opacity=".8" transform="translate(1200 500) scale(0.1 -0.1)"><path d="M0.0 0.0V-131.0H659.0V0.0ZM43.0 195.0V66.0H451.0V195.0ZM193.0 279.0 191.0 -96.0H337.0V278.0ZM518.0 256.0C409.0 18.0 205.0 -162.0 -46.0 -260.0C-18.0 -290.0 28.0 -353.0 46.0 -386.0C303.0 -266.0 522.0 -61.0 654.0 210.0Z"/></g>
<g fill="red" transform="translate(1300 500) scale(0.1 -0.1)"><path d="M0.0 0.0V-29.0H548.0V0.0ZM48.0 118.0V89.0H411.0V118.0ZM223.0 201.0V-10.0H252.0V201.0ZM506.0 157.0C388.0 5.0 178.0 -108.0 -36.0 -174.0C-28.0 -180.0 -17.0 -193.0 -12.0 -199.0C195.0 -127.0 408.0 -14.0 533.0 145.0Z"/></g>
<g fill="black" opacity=".8" transform="translate(1300 500) scale(0.1 -0.1)"><path d="M0.0 0.0V-25.0H550.0V0.0ZM53.0 119.0V95.0H416.0V119.0ZM228.0 197.0 220.0 -25.0 245.0 -19.0 255.0 201.0ZM499.0 165.0C381.0 11.0 179.0 -110.0 -25.0 -180.0C-18.0 -185.0 -11.0 -195.0 -5.0 -202.0C197.0 -125.0 396.0 -8.0 520.0 153.0Z"/></g>
<g fill="red" transform="translate(1400 500) scale(0.1 -0.1)"><path d="M0.0 0.0V-100.0H523.0V0.0ZM44.0 123.0V28.0H360.0V123.0ZM144.0 164.0V-66.0H260.0V164.0ZM404.0 145.0C318.0 -3.0 144.0 -107.0 -51.0 -163.0C-29.0 -184.0 7.0 -228.0 21.0 -251.0C217.0 -182.0 403.0 -63.0 507.0 109.0Z"/></g>
<g fill="black" opacity=".8" transform="translate(1400 500) scale(0.1 -0.1)"><path d="M0.0 0.0V-91.0H524.0V0.0ZM38.0 119.0V30.0H355.0V119.0ZM146.0 169.0 141.0 -63.0 258.0 -62.0 261.0 170.0ZM421.0 139.0C326.0 -4.0 145.0 -106.0 -51.0 -160.0C-31.0 -182.0 0.0 -227.0 13.0 -250.0C211.0 -182.0 401.0 -66.0 516.0 100.0Z"/></g>
<g fill="red" transform="translate(1500 500) scale(0.1 -0.1)"><path d="M0.0 0.0V-29.0H490.0V0.0ZM46.0 181.0V152.0H356.0V181.0ZM191.0 336.0V-13.0H220.0V336.0ZM433.0 279.0C333.0 59.0 174.0 -136.0 -10.0 -260.0C-2.0 -266.0 10.0 -276.0 15.0 -282.0C197.0 -153.0 356.0 40.0 461.0 271.0Z"/></g>
<g fill="black" opacity=".8" transform="translate(1500 500) scale(0.1 -0.1)"><path d="M0.0 0.0V-30.0H486.0V0.0ZM42.0 188.0V159.0H357.0V188.0ZM192.0 323.0 188.0 -14.0 218.0 -11.0 223.0 325.0ZM435.0 285.0C338.0 56.0 177.0 -137.0 -19.0 -255.0C-11.0 -261.0 -0.0 -272.0 6.0 -279.0C201.0 -152.0 361.0 37.0 462.0 275.0Z"/></g>
<g fill="red" transform="translate(1600 500) scale(0.1 -0.1)"><path d="M0.0 0.0V-122.0H469.0V0.0ZM11.0 199.0V79.0H295.0V199.0ZM99.0 282.0V-87.0H225.0V282.0ZM344.0 258.0C274.0 28.0 139.0 -152.0 -53.0 -254.0C-28.0 -278.0 14.0 -331.0 30.0 -357.0C231.0 -234.0 381.0 -31.0 465.0 228.0Z"/></g>
<g fill="black" opacity=".8" transform="translate(1600 500) scale(0.1 -0.1)"><path d="M0.0 0.0V-123.0H469.0V0.0ZM17.0 192.0V71.0H290.0V192.0ZM98.0 287.0 95.0 -81.0H229.0L231.0 287.0ZM334.0 257.0C271.0 27.0 142.0 -151.0 -48.0 -250.0C-23.0 -278.0 19.0 -335.0 35.0 -365.0C238.0 -243.0 382.0 -35.0 463.0 228.0Z"/></g>
<g fill="red" transform="translate(100 600) scale(0.1 -0.1)"><path d="M0.0 0.0V-30.0H654.0V0.0ZM67.0 132.0V102.0H451.0V132.0ZM249.0 224.0V-19.0H279.0V224.0ZM553.0 193.0C424.0 16.0 200.0 -120.0 -28.0 -199.0C-21.0 -206.0 -12.0 -220.0 -8.0 -226.0C219.0 -140.0 443.0 -5.0 579.0 180.0Z"/></g>
<g fill="black" opacity=".8" transform="translate(100 600) scale(0.1 -0.1)"><path d="M0.0 0.0V-26.0H648.0V0.0ZM65.0 132.0V107.0H449.0V132.0ZM246.0 228.0 252.0 -22.0 276.0 -24.0 272.0 225.0ZM563.0 189.0C428.0 16.0 205.0 -122.0 -19.0 -202.0C-12.0 -207.0 -5.0 -218.0 1.0 -225.0C223.0 -138.0 443.0 -5.0 584.0 175.0Z"/></g>
<g fill="red" transform="translate(200 600) scale(0.1 -0.1)"><path d="M0.0 0.0V-107.0H671.0V0.0ZM70.0 136.0V35.0H453.0V136.0ZM200.0 188.0V-69.0H338.0V188.0ZM530.0 164.0C422.0 -20.0 211.0 -147.0 -29.0 -214.0C-6.0 -240.0 33.0 -296.0 48.0 -325.0C293.0 -241.0 519.0 -96.0 649.0 117.0Z"/></g>
<g fill="black" opacity=".8" transform="translate(200 600) scale(0.1 -0.1)"><path d="M0.0 0.0V-105.0H678.0V0.0ZM68.0 134.0V30.0H455.0V134.0ZM210.0 194.0 211.0 -73.0 332.0 -74.0 329.0 192.0ZM536.0 166.0C420.0 -17.0 205.0 -150.0 -32.0 -219.0C-10.0 -244.0 26.0 -296.0 41.0 -323.0C280.0 -237.0 505.0 -89.0 643.0 120.0Z"/></g>
<g fill="red" transform="translate(300 600) scale(0.1 -0.1)"><path d="M0.0 0.0V-30.0H614.0V0.0ZM43.0 187.0V157.0H468.0V187.0ZM244.0 313.0V-27.0H274.0V313.0ZM560.0 272.0C424.0 51.0 209.0 -141.0 -23.0 -259.0C-15.0 -265.0 -4.0 -277.0 1.0 -283.0C230.0 -157.0 442.0 30.0 587.0 260.0Z"/></g>
<g fill="black" opacity=".8" transform="translate(300 600) scale(0.1 -0.1)"><path d="M0.0 0.0V-31.0H608.0V0.0ZM51.0 185.0V154.0H463.0V185.0ZM248.0 314.0 245.0 -28.0 276.0 -25.0 280.0 316.0ZM553.0 275.0C424.0 46.0 212.0 -144.0 -24.0 -259.0C-15.0 -265.0 -5.0 -277.0 1.0 -285.0C235.0 -162.0 445.0 24.0 581.0 262.0Z"/></g>
<g fill="red" transform="translate(400 600) scale(0.1 -0.1)"><path d="M0.0 0.0V-126.0H608.0V0.0ZM51.0 189.0V65.0H430.0V189.0ZM184.0 281.0V-88.0H325.0V281.0ZM485.0 252.0C380.0 22.0 190.0 -161.0 -40.0 -263.0C-13.0 -290.0 33.0 -350.0 52.0 -380.0C287.0 -258.0 492.0 -52.0 616.0 206.0Z"/></g>
<g fill="black" opacity=".8" transform="translate(400 600) scale(0.1 -0.1)"><path d="M0.0 0.0V-127.0H614.0V0.0ZM44.0 192.0V66.0H433.0V192.0ZM181.0 280.0 178.0 -90.0H322.0L323.0 279.0ZM483.0 252.0C384.0 20.0 195.0 -159.0 -42.0 -256.0C-14.0 -286.0 31.0 -346.0 49.0 -378.0C292.0 -259.0 495.0 -55.0 616.0 210.0Z"/></g>
<g fill="red" transform="translate(500 600) scale(0.1 -0.1)"><path d="M0.0 0.0V-29.0H689.0V0.0ZM71.0 137.0V108.0H552.0V137.0ZM303.0 218.0V-17.0H332.0V218.0ZM645.0 196.0C495.0 13.0 237.0 -125.0 -22.0 -204.0C-16.0 -211.0 -5.0 -224.0 -1.0 -231.0C255.0 -145.0 513.0 -10.0 671.0 181.0Z"/></g>
<g fill="black" opacity=".8" transform="translate(500 600) scale(0.1 -0.1)"><path d="M0.0 0.0V-31.0H689.0V0.0ZM68.0 143.0V114.0H545.0V143.0ZM306.0 226.0 297.0 -18.0 328.0 -12.0 339.0 231.0ZM643.0 200.0C494.0 15.0 239.0 -127.0 -17.0 -209.0C-9.0 -215.0 1.0 -227.0 7.0 -235.0C260.0 -146.0 512.0 -8.0 668.0 184.0Z"/></g>
<g fill="red" transform="translate(600 600) scale(0.1 -0.1)"><path d="M0.0 0.0V-111.0H635.0V0.0ZM36.0 151.0V44.0H442.0V151.0ZM183.0 203.0V-54.0H321.0V203.0ZM521.0 171.0C405.0 5.0 184.0 -112.0 -54.0 -173.0C-29.0 -199.0 9.0 -254.0 26.0 -283.0C264.0 -206.0 499.0 -73.0 639.0 119.0Z"/></g>
<g fill="black" opacity=".8" transform="translate(600 600) scale(0.1 -0.1)"><path d="M0.0 0.0V-106.0H635.0V0.0ZM39.0 145.0V40.0H446.0V145.0ZM185.0 192.0 179.0 -56.0 323.0 -55.0 327.0 192.0ZM527.0 167.0C408.0 3.0 182.0 -112.0 -57.0 -172.0C-34.0 -198.0 3.0 -252.0 19.0 -279.0C258.0 -203.0 496.0 -72.0 640.0 118.0Z"/></g>
<g fill="red" transform="translate(700 600) scale(0.1 -0.1)"><path d="M0.0 0.0V-30.0H671.0V0.0ZM43.0 156.0V127.0H489.0V156.0ZM265.0 252.0V-18.0H295.0V252.0ZM572.0 203.0C423.0 19.0 181.0 -131.0 -64.0 -221.0C-56.0 -228.0 -45.0 -239.0 -41.0 -245.0C200.0 -149.0 440.0 -1.0 597.0 190.0Z"/></g>
<g fill="black" opacity=".8" transform="translate(700 600) scale(0.1 -0.1)"><path d="M0.0 0.0V-28.0H666.0V0.0ZM41.0 149.0V121.0H486.0V149.0ZM260.0 244.0 263.0 -6.0H290.0L289.0 242.0ZM577.0 209.0C431.0 18.0 188.0 -132.0 -59.0 -221.0C-51.0 -226.0 -43.0 -238.0 -37.0 -245.0C208.0 -150.0 447.0 -3.0 601.0 194.0Z"/></g>
<g fill="red" transform="translate(800 600) scale(0.1 -0.1)"><path d="M0.0 0.0V-108.0H653.0V0.0ZM29.0 151.0V44.0H448.0V151.0ZM183.0 202.0V-32.0H318.0V202.0ZM518.0 186.0C392.0 4.0 163.0 -133.0 -84.0 -208.0C-58.0 -232.0 -16.0 -285.0 2.0 -313.0C245.0 -224.0 487.0 -73.0 635.0 133.0Z"/></g>
<g fill="black" opacity=".8" transform="translate(800 600) scale(0.1 -0.1)"><path d="M0.0 0.0V-107.0H659.0V0.0ZM28.0 155.0V49.0H449.0V155.0ZM190.0 213.0V-45.0L322.0 -46.0L320.0 212.0ZM512.0 184.0C390.0 0.0 163.0 -134.0 -85.0 -204.0C-61.0 -231.0 -23.0 -285.0 -7.0 -313.0C241.0 -227.0 479.0 -76.0 625.0 134.0Z"/></g>
<g fill="red" transform="translate(900 600) scale(0.1 -0.1)"><path d="M0.0 0.0V-30.0H587.0V0.0ZM42.0 190.0V161.0H435.0V190.0ZM240.0 325.0V-15.0H269.0V325.0ZM519.0 263.0C397.0 47.0 194.0 -126.0 -38.0 -230.0C-31.0 -236.0 -19.0 -249.0 -14.0 -255.0C213.0 -143.0 417.0 26.0 547.0 253.0Z"/></g>
<g fill="black" opacity=".8" transform="translate(900 600) scale(0.1 -0.1)"><path d="M0.0 0.0V-31.0H582.0V0.0ZM45.0 192.0V161.0H430.0V192.0ZM236.0 328.0 234.0 -17.0 265.0 -14.0 268.0 329.0ZM516.0 272.0C397.0 52.0 196.0 -127.0 -27.0 -236.0C-18.0 -242.0 -8.0 -254.0 -1.0 -261.0C219.0 -145.0 418.0 31.0 544.0 259.0Z"/></g>
<g fill="red" transform="translate(1000 600) scale(0.1 -0.1)"><path d="M0.0 0.0V-128.0H588.0V0.0ZM39.0 197.0V72.0H401.0V197.0ZM166.0 294.0V-80.0H303.0V294.0ZM451.0 253.0C361.0 17.0 190.0 -160.0 -38.0 -258.0C-11.0 -284.0 32.0 -341.0 49.0 -369.0C284.0 -251.0 471.0 -51.0 579.0 215.0Z"/></g>
<g fill="black" opacity=".8" transform="translate(1000 600) scale(0.1 -0.1)"><path d="M0.0 0.0V-127.0H594.0V0.0ZM36.0 196.0V72.0H404.0V196.0ZM170.0 292.0 167.0 -82.0 308.0 -83.0 309.0 291.0ZM453.0 245.0C361.0 18.0 181.0 -154.0 -46.0 -249.0C-20.0 -278.0 24.0 -338.0 41.0 -369.0C277.0 -253.0 470.0 -55.0 583.0 205.0Z"/></g>
<g fill="red" transform="translate(1100 600) scale(0.1 -0.1)"><path d="M0.0 0.0V-30.0H548.0V0.0ZM42.0 190.0V161.0H409.0V190.0ZM226.0 325.0V-15.0H255.0V325.0ZM494.0 263.0C382.0 52.0 198.0 -121.0 -15.0 -227.0C-7.0 -232.0 5.0 -244.0 10.0 -250.0C219.0 -137.0 404.0 32.0 522.0 253.0Z"/></g>
<g fill="black" opacity=".8" transform="translate(1100 600) scale(0.1 -0.1)"><path d="M0.0 0.0V-30.0H552.0V0.0ZM43.0 191.0V161.0H406.0V191.0ZM223.0 329.0 224.0 -13.0 253.0 -12.0V328.0ZM495.0 271.0C383.0 56.0 197.0 -121.0 -14.0 -228.0C-6.0 -233.0 4.0 -245.0 10.0 -252.0C219.0 -138.0 404.0 36.0 521.0 259.0Z"/></g>
<g fill="red" transform="translate(1200 600) scale(0.1 -0.1)"><path d="M0.0 0.0V-128.0H580.0V0.0ZM37.0 197.0V72.0H394.0V197.0ZM162.0 294.0V-80.0H298.0V294.0ZM444.0 253.0C355.0 17.0 187.0 -160.0 -36.0 -258.0C-9.0 -285.0 37.0 -344.0 54.0 -374.0C284.0 -255.0 468.0 -53.0 574.0 213.0Z"/></g>
<g fill="black" opacity=".8" transform="translate(1200 600) scale(0.1 -0.1)"><path d="M0.0 0.0V-125.0H575.0V0.0ZM35.0 195.0V71.0H395.0V195.0ZM165.0 292.0 164.0 -82.0H301.0L300.0 290.0ZM444.0 246.0C358.0 15.0 188.0 -160.0 -32.0 -256.0C-7.0 -284.0 35.0 -344.0 52.0 -375.0C282.0 -257.0 466.0 -55.0 573.0 208.0Z"/></g>
<g fill="red" transform="translate(1300 600) scale(0.1 -0.1)"><path d="M0.0 0.0V-30.0H547.0V0.0ZM57.0 190.0V161.0H414.0V190.0ZM228.0 325.0V-15.0H258.0V325.0ZM498.0 263.0C386.0 56.0 202.0 -115.0 -9.0 -219.0C-1.0 -225.0 10.0 -236.0 15.0 -242.0C222.0 -131.0 408.0 36.0 525.0 253.0Z"/></g>
<g fill="black" opacity=".8" transform="translate(1300 600) scale(0.1 -0.1)"><path d="M0.0 0.0V-30.0H554.0V0.0ZM50.0 190.0V161.0H408.0V190.0ZM227.0 329.0V-13.0L256.0 -12.0L258.0 328.0ZM505.0 269.0C392.0 59.0 202.0 -112.0 -9.0 -216.0C-1.0 -221.0 9.0 -233.0 15.0 -240.0C224.0 -129.0 412.0 39.0 531.0 257.0Z"/></g>
<g fill="red" transform="translate(1400 600) scale(0.1 -0.1)"><path d="M0.0 0.0V-128.0H586.0V0.0ZM37.0 197.0V72.0H398.0V197.0ZM164.0 294.0V-80.0H309.0V294.0ZM448.0 253.0C375.0 11.0 217.0 -144.0 -22.0 -225.0C-1.0 -258.0 29.0 -326.0 38.0 -360.0C309.0 -253.0 487.0 -64.0 580.0 220.0Z"/></g>
<g fill="black" opacity=".8" transform="translate(1400 600) scale(0.1 -0.1)"><path d="M0.0 0.0V-124.0H578.0V0.0ZM44.0 194.0V71.0H400.0V194.0ZM172.0 293.0 171.0 -81.0H306.0V292.0ZM457.0 245.0C369.0 20.0 196.0 -151.0 -26.0 -244.0C-0.0 -272.0 41.0 -331.0 57.0 -361.0C288.0 -247.0 474.0 -51.0 583.0 207.0Z"/></g>
<g fill="red" transform="translate(1500 600) scale(0.1 -0.1)"><path d="M0.0 0.0V-29.0H552.0V0.0ZM41.0 197.0V168.0H399.0V197.0ZM210.0 338.0V-15.0H239.0V338.0ZM494.0 276.0C380.0 64.0 197.0 -119.0 -8.0 -234.0C0.0 -240.0 12.0 -252.0 17.0 -258.0C219.0 -136.0 401.0 44.0 521.0 266.0Z"/></g>
<g fill="black" opacity=".8" transform="translate(1500 600) scale(0.1 -0.1)"><path d="M0.0 0.0V-30.0H553.0V0.0ZM47.0 193.0V164.0H394.0V193.0ZM213.0 331.0 210.0 -21.0 241.0 -19.0 244.0 332.0ZM488.0 280.0C380.0 61.0 199.0 -122.0 -8.0 -234.0C1.0 -239.0 11.0 -251.0 17.0 -258.0C222.0 -139.0 402.0 40.0 515.0 268.0Z"/></g>
<g fill="red" transform="translate(1600 600) scale(0.1 -0.1)"><path d="M0.0 0.0V-122.0H572.0V0.0ZM49.0 190.0V70.0H369.0V190.0ZM157.0 286.0V-97.0H291.0V286.0ZM433.0 253.0C344.0 28.0 181.0 -157.0 -22.0 -262.0C5.0 -288.0 51.0 -343.0 70.0 -372.0C278.0 -246.0 455.0 -39.0 561.0 214.0Z"/></g>
<g fill="black" opacity=".8" transform="translate(1600 600) scale(0.1 -0.1)"><path d="M0.0 0.0V-128.0H573.0V0.0ZM43.0 196.0V71.0H373.0V196.0ZM155.0 293.0 152.0 -95.0H288.0L289.0 292.0ZM428.0 254.0C348.0 22.0 191.0 -155.0 -22.0 -253.0C4.0 -282.0 48.0 -340.0 65.0 -371.0C287.0 -251.0 459.0 -46.0 558.0 219.0Z"/></g>
<g fill="red" transform="translate(100 700) scale(0.1 -0.1)"><path d="M0.0 0.0V-30.0H574.0V0.0ZM59.0 190.0V161.0H426.0V190.0ZM243.0 325.0V-15.0H272.0V325.0ZM511.0 263.0C396.0 49.0 208.0 -125.0 -10.0 -230.0C-2.0 -236.0 9.0 -248.0 14.0 -254.0C229.0 -141.0 418.0 30.0 539.0 253.0Z"/></g>
<g fill="black" opacity=".8" transform="translate(100 700) scale(0.1 -0.1)"><path d="M0.0 0.0V-31.0H574.0V0.0ZM57.0 191.0V161.0H428.0V191.0ZM241.0 328.0 243.0 -12.0H272.0L271.0 327.0ZM514.0 272.0C398.0 54.0 203.0 -123.0 -15.0 -230.0C-7.0 -235.0 3.0 -248.0 10.0 -255.0C226.0 -140.0 419.0 34.0 541.0 260.0Z"/></g>
<g fill="red" transform="translate(200 700) scale(0.1 -0.1)"><path d="M0.0 0.0V-128.0H595.0V0.0ZM42.0 197.0V72.0H416.0V197.0ZM174.0 294.0V-80.0H311.0V294.0ZM458.0 253.0C365.0 15.0 187.0 -161.0 -46.0 -258.0C-19.0 -285.0 26.0 -344.0 43.0 -374.0C285.0 -257.0 478.0 -56.0 590.0 212.0Z"/></g>
<g fill="black" opacity=".8" transform="translate(200 700) scale(0.1 -0.1)"><path d="M0.0 0.0V-126.0H592.0V0.0ZM45.0 195.0V70.0H411.0V195.0ZM176.0 290.0 175.0 -79.0H314.0L313.0 289.0ZM459.0 245.0C368.0 13.0 190.0 -161.0 -38.0 -257.0C-12.0 -286.0 29.0 -347.0 45.0 -378.0C284.0 -260.0 476.0 -59.0 588.0 206.0Z"/></g>
<g fill="red" transform="translate(300 700) scale(0.1 -0.1)"><path d="M0.0 0.0V-30.0H883.0V0.0ZM94.0 132.0V103.0H672.0V132.0ZM396.0 213.0V-12.0H425.0V213.0ZM781.0 177.0C595.0 6.0 278.0 -121.0 -17.0 -191.0C-10.0 -197.0 -1.0 -212.0 2.0 -219.0C294.0 -142.0 610.0 -19.0 806.0 159.0Z"/></g>
<g fill="black" opacity=".8" transform="translate(300 700) scale(0.1 -0.1)"><path d="M0.0 0.0V-29.0H875.0V0.0ZM99.0 135.0V106.0H666.0V135.0ZM389.0 225.0 399.0 -16.0 426.0 -20.0 417.0 220.0ZM789.0 181.0C598.0 6.0 283.0 -122.0 -15.0 -192.0C-8.0 -198.0 -0.0 -212.0 6.0 -220.0C300.0 -142.0 612.0 -20.0 812.0 162.0Z"/></g>
<g fill="red" transform="translate(400 700) scale(0.1 -0.1)"><path d="M0.0 0.0V-113.0H901.0V0.0ZM111.0 142.0V34.0H683.0V142.0ZM348.0 195.0V-57.0H489.0V195.0ZM775.0 163.0C607.0 -27.0 293.0 -151.0 -30.0 -209.0C-8.0 -238.0 25.0 -300.0 38.0 -331.0C364.0 -257.0 692.0 -122.0 890.0 94.0Z"/></g>
<g fill="black" opacity=".8" transform="translate(400 700) scale(0.1 -0.1)"><path d="M0.0 0.0V-112.0H907.0V0.0ZM106.0 141.0V27.0H686.0V141.0ZM348.0 190.0 351.0 -53.0 496.0 -54.0 491.0 187.0ZM775.0 158.0C600.0 -25.0 282.0 -149.0 -34.0 -210.0C-11.0 -239.0 28.0 -299.0 44.0 -329.0C355.0 -254.0 685.0 -118.0 890.0 89.0Z"/></g>
<g fill="red" transform="translate(500 700) scale(0.1 -0.1)"><path d="M0.0 0.0V-29.0H883.0V0.0ZM89.0 196.0V167.0H676.0V196.0ZM367.0 340.0V-13.0H396.0V340.0ZM803.0 300.0C608.0 55.0 307.0 -143.0 -14.0 -262.0C-6.0 -269.0 5.0 -281.0 10.0 -288.0C325.0 -162.0 623.0 31.0 828.0 284.0Z"/></g>
<g fill="black" opacity=".8" transform="translate(500 700) scale(0.1 -0.1)"><path d="M0.0 0.0V-36.0H884.0V0.0ZM90.0 197.0V162.0H670.0V197.0ZM365.0 334.0 368.0 -7.0 403.0 -8.0 401.0 332.0ZM796.0 297.0C607.0 52.0 298.0 -143.0 -17.0 -258.0C-8.0 -266.0 3.0 -281.0 10.0 -290.0C322.0 -166.0 628.0 24.0 826.0 279.0Z"/></g>
<g fill="red" transform="translate(600 700) scale(0.1 -0.1)"><path d="M0.0 0.0V-127.0H905.0V0.0ZM86.0 195.0V70.0H654.0V195.0ZM310.0 293.0V-72.0H454.0V293.0ZM751.0 267.0C582.0 14.0 290.0 -175.0 -36.0 -275.0C-10.0 -304.0 33.0 -364.0 50.0 -395.0C376.0 -278.0 683.0 -75.0 876.0 203.0Z"/></g>
<g fill="black" opacity=".8" transform="translate(600 700) scale(0.1 -0.1)"><path d="M0.0 0.0V-143.0H903.0V0.0ZM89.0 204.0V63.0H655.0V204.0ZM296.0 292.0V-68.0L467.0 -69.0L465.0 290.0ZM737.0 271.0C577.0 20.0 283.0 -165.0 -41.0 -262.0C-10.0 -296.0 41.0 -367.0 62.0 -404.0C387.0 -285.0 696.0 -79.0 885.0 206.0Z"/></g>
<g fill="red" transform="translate(700 700) scale(0.1 -0.1)"><path d="M0.0 0.0V-29.0H495.0V0.0ZM-213.0 318.0V288.0H344.0V318.0ZM51.0 436.0V131.0H80.0V436.0ZM480.0 392.0C289.0 197.0 -15.0 40.0 -315.0 -53.0C-307.0 -59.0 -296.0 -72.0 -291.0 -79.0C2.0 20.0 304.0 173.0 505.0 375.0Z"/></g>
<g fill="black" opacity=".8" transform="translate(700 700) scale(0.1 -0.1)"><path d="M0.0 0.0V-32.0H508.0V0.0ZM-212.0 315.0V283.0H344.0V315.0ZM50.0 432.0 46.0 133.0 79.0 138.0 85.0 433.0ZM471.0 398.0C287.0 196.0 -20.0 41.0 -319.0 -51.0C-310.0 -56.0 -301.0 -70.0 -293.0 -79.0C2.0 19.0 305.0 171.0 498.0 379.0Z"/></g>
<g fill="red" transform="translate(800 700) scale(0.1 -0.1)"><path d="M0.0 0.0V-114.0H482.0V0.0ZM-224.0 348.0V233.0H339.0V348.0ZM-11.0 424.0V109.0H133.0V424.0ZM435.0 401.0C259.0 208.0 -46.0 59.0 -350.0 -20.0C-325.0 -47.0 -285.0 -105.0 -267.0 -134.0C31.0 -41.0 347.0 117.0 549.0 332.0Z"/></g>
<g fill="black" opacity=".8" transform="translate(800 700) scale(0.1 -0.1)"><path d="M0.0 0.0V-114.0H470.0V0.0ZM-224.0 355.0V233.0H336.0V355.0ZM-10.0 424.0 -13.0 110.0 137.0 109.0 139.0 424.0ZM430.0 399.0C262.0 205.0 -42.0 62.0 -349.0 -13.0C-323.0 -44.0 -281.0 -107.0 -264.0 -139.0C41.0 -48.0 357.0 110.0 555.0 333.0Z"/></g>
<g fill="red" transform="translate(900 700) scale(0.1 -0.1)"><path d="M0.0 0.0V-30.0H874.0V0.0ZM5.0 333.0V304.0H407.0V333.0ZM225.0 417.0V209.0H255.0V417.0ZM805.0 196.0C614.0 19.0 295.0 -112.0 -9.0 -184.0C-2.0 -190.0 8.0 -205.0 12.0 -212.0C311.0 -133.0 629.0 -6.0 830.0 178.0Z"/></g>
<g fill="black" opacity=".8" transform="translate(900 700) scale(0.1 -0.1)"><path d="M0.0 0.0V-34.0H877.0V0.0ZM3.0 336.0V303.0H416.0V336.0ZM195.0 436.0 251.0 225.0 276.0 196.0 221.0 405.0ZM808.0 198.0C617.0 22.0 288.0 -109.0 -16.0 -181.0C-8.0 -187.0 3.0 -203.0 9.0 -212.0C309.0 -132.0 635.0 -6.0 837.0 178.0Z"/></g>
<g fill="red" transform="translate(1000 700) scale(0.1 -0.1)"><path d="M0.0 0.0V-124.0H905.0V0.0ZM-3.0 350.0V226.0H434.0V350.0ZM168.0 397.0V176.0H312.0V397.0ZM793.0 175.0C618.0 -14.0 293.0 -136.0 -36.0 -193.0C-16.0 -220.0 14.0 -278.0 27.0 -307.0C358.0 -235.0 696.0 -104.0 900.0 109.0Z"/></g>
<g fill="black" opacity=".8" transform="translate(1000 700) scale(0.1 -0.1)"><path d="M0.0 0.0V-126.0H897.0V0.0ZM-3.0 341.0V218.0H429.0V341.0ZM172.0 408.0 197.0 174.0 316.0 165.0 290.0 399.0ZM783.0 170.0C614.0 -15.0 291.0 -132.0 -33.0 -187.0C-12.0 -217.0 21.0 -280.0 34.0 -312.0C364.0 -239.0 699.0 -108.0 899.0 107.0Z"/></g>
<g fill="red" transform="translate(1100 700) scale(0.1 -0.1)"><path d="M0.0 0.0V-30.0H578.0V0.0ZM43.0 151.0V121.0H436.0V151.0ZM-46.0 420.0V235.0H-17.0V420.0ZM529.0 208.0C406.0 29.0 203.0 -119.0 -8.0 -209.0C-1.0 -215.0 11.0 -227.0 15.0 -232.0C222.0 -136.0 425.0 10.0 556.0 196.0Z"/></g>
<g fill="black" opacity=".8" transform="translate(1100 700) scale(0.1 -0.1)"><path d="M0.0 0.0V-27.0H576.0V0.0ZM47.0 155.0V128.0H435.0V155.0ZM-39.0 418.0 -53.0 237.0 -24.0 246.0 -9.0 426.0ZM530.0 222.0C406.0 31.0 203.0 -120.0 -15.0 -211.0C-8.0 -216.0 2.0 -227.0 7.0 -233.0C223.0 -136.0 424.0 13.0 554.0 209.0Z"/></g>
<g fill="red" transform="translate(1200 700) scale(0.1 -0.1)"><path d="M0.0 0.0V-110.0H595.0V0.0ZM43.0 159.0V52.0H458.0V159.0ZM-114.0 415.0V190.0H28.0V415.0ZM496.0 197.0C383.0 1.0 176.0 -148.0 -57.0 -230.0C-33.0 -256.0 6.0 -310.0 22.0 -338.0C259.0 -239.0 479.0 -71.0 612.0 150.0Z"/></g>
<g fill="black" opacity=".8" transform="translate(1200 700) scale(0.1 -0.1)"><path d="M0.0 0.0V-111.0H593.0V0.0ZM39.0 154.0V44.0H456.0V154.0ZM-105.0 407.0 -113.0 189.0 23.0 190.0 29.0 408.0ZM497.0 188.0C390.0 -10.0 188.0 -152.0 -48.0 -227.0C-27.0 -254.0 7.0 -307.0 20.0 -335.0C264.0 -241.0 480.0 -79.0 607.0 147.0Z"/></g>
<g fill="red" transform="translate(1300 700) scale(0.1 -0.1)"><path d="M0.0 0.0V-29.0H883.0V0.0ZM9.0 459.0V429.0H402.0V459.0ZM121.0 320.0H313.0V214.0H121.0ZM784.0 157.0C593.0 9.0 270.0 -102.0 -22.0 -162.0C-15.0 -169.0 -4.0 -183.0 -1.0 -190.0C285.0 -124.0 607.0 -17.0 809.0 138.0Z"/></g>
<g fill="black" opacity=".8" transform="translate(1300 700) scale(0.1 -0.1)"><path d="M0.0 0.0V-25.0H875.0V0.0ZM8.0 461.0V436.0H397.0V461.0ZM147.0 302.0 289.0 310.0 292.0 233.0 152.0 224.0ZM785.0 161.0C592.0 8.0 273.0 -105.0 -17.0 -166.0C-11.0 -171.0 -3.0 -183.0 1.0 -190.0C286.0 -124.0 601.0 -16.0 804.0 142.0Z"/></g>
<g fill="red" transform="translate(1400 700) scale(0.1 -0.1)"><path d="M0.0 0.0V-98.0H896.0V0.0ZM-3.0 493.0V386.0H434.0V493.0ZM202.0 262.0H290.0V234.0H202.0ZM771.0 152.0C599.0 -8.0 278.0 -111.0 -32.0 -158.0C-14.0 -183.0 14.0 -237.0 25.0 -263.0C336.0 -203.0 669.0 -93.0 868.0 90.0Z"/></g>
<g fill="black" opacity=".8" transform="translate(1400 700) scale(0.1 -0.1)"><path d="M0.0 0.0V-92.0H904.0V0.0ZM-0.0 491.0V391.0H432.0V491.0ZM200.0 252.0 264.0 261.0 290.0 241.0 226.0 230.0ZM778.0 154.0C605.0 -13.0 283.0 -116.0 -32.0 -160.0C-17.0 -185.0 9.0 -235.0 20.0 -262.0C334.0 -204.0 666.0 -94.0 868.0 93.0Z"/></g>
<g fill="red" transform="translate(1500 700) scale(0.1 -0.1)"><path d="M0.0 0.0V-29.0H543.0V0.0ZM-349.0 130.0V101.0H14.0V130.0ZM-120.0 437.0V243.0H-90.0V437.0ZM472.0 233.0C356.0 42.0 166.0 -122.0 -34.0 -224.0C-27.0 -230.0 -15.0 -242.0 -11.0 -248.0C187.0 -140.0 376.0 23.0 500.0 222.0Z"/></g>
<g fill="black" opacity=".8" transform="translate(1500 700) scale(0.1 -0.1)"><path d="M0.0 0.0V-29.0H541.0V0.0ZM-344.0 130.0V101.0H12.0V130.0ZM-120.0 440.0 -117.0 239.0H-88.0V438.0ZM472.0 230.0C355.0 41.0 163.0 -124.0 -32.0 -225.0C-24.0 -230.0 -14.0 -241.0 -8.0 -249.0C186.0 -141.0 374.0 22.0 499.0 217.0Z"/></g>
<g fill="red" transform="translate(1600 700) scale(0.1 -0.1)"><path d="M0.0 0.0V-108.0H559.0V0.0ZM-362.0 110.0V15.0H12.0V110.0ZM-182.0 429.0V208.0H-38.0V429.0ZM425.0 201.0C339.0 7.0 167.0 -131.0 -49.0 -206.0C-23.0 -230.0 20.0 -282.0 38.0 -309.0C255.0 -217.0 441.0 -60.0 547.0 162.0Z"/></g>
<g fill="black" opacity=".8" transform="translate(1600 700) scale(0.1 -0.1)"><path d="M0.0 0.0V-109.0H561.0V0.0ZM-367.0 112.0V13.0H13.0V112.0ZM-186.0 429.0V210.0L-38.0 209.0L-39.0 428.0ZM427.0 201.0C339.0 10.0 163.0 -131.0 -53.0 -208.0C-25.0 -230.0 22.0 -280.0 42.0 -308.0C254.0 -214.0 441.0 -57.0 551.0 163.0Z"/></g>
<g fill="red" transform="translate(100 800) scale(0.1 -0.1)"><path d="M0.0 0.0V-30.0H574.0V0.0ZM42.0 190.0V161.0H422.0V190.0ZM225.0 325.0V-15.0H254.0V325.0ZM504.0 263.0C389.0 49.0 196.0 -125.0 -25.0 -230.0C-17.0 -236.0 -5.0 -248.0 0.0 -254.0C216.0 -141.0 409.0 29.0 532.0 253.0Z"/></g>
<g fill="black" opacity=".8" transform="translate(100 800) scale(0.1 -0.1)"><path d="M0.0 0.0V-30.0H569.0V0.0ZM42.0 190.0V161.0H417.0V190.0ZM227.0 328.0 228.0 -15.0 257.0 -14.0V327.0ZM507.0 271.0C390.0 53.0 194.0 -124.0 -24.0 -232.0C-16.0 -237.0 -6.0 -250.0 0.0 -257.0C216.0 -141.0 410.0 33.0 534.0 258.0Z"/></g>
<g fill="red" transform="translate(200 800) scale(0.1 -0.1)"><path d="M0.0 0.0V-128.0H590.0V0.0ZM37.0 197.0V72.0H407.0V197.0ZM175.0 294.0V-80.0H312.0V294.0ZM458.0 253.0C366.0 18.0 190.0 -158.0 -38.0 -254.0C-14.0 -284.0 26.0 -347.0 40.0 -379.0C284.0 -260.0 478.0 -55.0 588.0 212.0Z"/></g>
<g fill="black" opacity=".8" transform="translate(200 800) scale(0.1 -0.1)"><path d="M0.0 0.0V-126.0H593.0V0.0ZM37.0 196.0V71.0H410.0V196.0ZM173.0 293.0 172.0 -81.0 310.0 -82.0 309.0 291.0ZM459.0 246.0C367.0 15.0 188.0 -160.0 -41.0 -255.0C-15.0 -284.0 28.0 -344.0 45.0 -376.0C282.0 -258.0 475.0 -57.0 588.0 206.0Z"/></g>
<g fill="red" transform="translate(300 800) scale(0.1 -0.1)"><path d="M0.0 0.0V-29.0H490.0V0.0ZM36.0 197.0V168.0H355.0V197.0ZM192.0 338.0V-15.0H217.0V338.0ZM440.0 265.0C345.0 60.0 182.0 -103.0 -7.0 -201.0C0.0 -207.0 11.0 -218.0 15.0 -224.0C200.0 -119.0 363.0 40.0 464.0 254.0Z"/></g>
<g fill="black" opacity=".8" transform="translate(300 800) scale(0.1 -0.1)"><path d="M0.0 0.0V-29.0H485.0V0.0ZM41.0 196.0V168.0H358.0V196.0ZM195.0 333.0 194.0 -17.0 223.0 -15.0 225.0 333.0ZM433.0 253.0C340.0 55.0 177.0 -104.0 -9.0 -199.0C-1.0 -204.0 9.0 -216.0 15.0 -223.0C199.0 -120.0 362.0 37.0 460.0 242.0Z"/></g>
<g fill="red" transform="translate(400 800) scale(0.1 -0.1)"><path d="M0.0 0.0V-122.0H514.0V0.0ZM40.0 197.0V77.0H365.0V197.0ZM155.0 290.0V-93.0H274.0V290.0ZM399.0 219.0C326.0 -3.0 178.0 -161.0 -19.0 -247.0C2.0 -274.0 36.0 -331.0 47.0 -360.0C257.0 -253.0 418.0 -70.0 508.0 183.0Z"/></g>
<g fill="black" opacity=".8" transform="translate(400 800) scale(0.1 -0.1)"><path d="M0.0 0.0V-123.0H519.0V0.0ZM36.0 199.0V77.0H359.0V199.0ZM146.0 294.0 144.0 -92.0H274.0V293.0ZM397.0 223.0C324.0 5.0 176.0 -159.0 -23.0 -249.0C1.0 -276.0 40.0 -334.0 54.0 -363.0C266.0 -251.0 428.0 -60.0 519.0 191.0Z"/></g>
<g fill="red" transform="translate(500 800) scale(0.1 -0.1)"><path d="M0.0 0.0V-29.0H407.0V0.0ZM-29.0 311.0V281.0H334.0V311.0ZM167.0 441.0V119.0H196.0V441.0ZM477.0 399.0C346.0 141.0 142.0 -74.0 -105.0 -209.0C-98.0 -214.0 -85.0 -225.0 -80.0 -231.0C163.0 -90.0 366.0 121.0 504.0 388.0Z"/></g>
<g fill="black" opacity=".8" transform="translate(500 800) scale(0.1 -0.1)"><path d="M0.0 0.0V-29.0H399.0V0.0ZM-14.0 312.0V283.0H353.0V312.0ZM157.0 445.0 170.0 122.0 197.0 116.0 185.0 438.0ZM474.0 400.0C343.0 144.0 136.0 -73.0 -110.0 -207.0C-102.0 -213.0 -92.0 -223.0 -85.0 -230.0C159.0 -89.0 362.0 124.0 500.0 387.0Z"/></g>
<g fill="red" transform="translate(600 800) scale(0.1 -0.1)"><path d="M0.0 0.0V-116.0H341.0V0.0ZM-35.0 351.0V230.0H319.0V351.0ZM69.0 442.0V91.0H205.0V442.0ZM376.0 412.0C278.0 163.0 94.0 -31.0 -130.0 -137.0C-115.0 -171.0 -91.0 -241.0 -85.0 -275.0C171.0 -139.0 375.0 90.0 490.0 372.0Z"/></g>
<g fill="black" opacity=".8" transform="translate(600 800) scale(0.1 -0.1)"><path d="M0.0 0.0V-117.0H344.0V0.0ZM-48.0 348.0V225.0H299.0V348.0ZM76.0 445.0 81.0 94.0 208.0 91.0 201.0 442.0ZM376.0 408.0C277.0 161.0 92.0 -37.0 -141.0 -144.0C-118.0 -175.0 -81.0 -237.0 -66.0 -270.0C183.0 -137.0 383.0 89.0 503.0 369.0Z"/></g>
<g fill="red" transform="translate(700 800) scale(0.1 -0.1)"><path d="M0.0 0.0V-30.0H548.0V0.0ZM42.0 190.0V161.0H409.0V190.0ZM226.0 325.0V-15.0H255.0V325.0ZM494.0 263.0C379.0 49.0 191.0 -125.0 -27.0 -230.0C-19.0 -236.0 -8.0 -248.0 -3.0 -254.0C212.0 -141.0 401.0 30.0 522.0 253.0Z"/></g>
<g fill="black" opacity=".8" transform="translate(700 800) scale(0.1 -0.1)"><path d="M0.0 0.0V-30.0H553.0V0.0ZM42.0 190.0V161.0H405.0V190.0ZM222.0 328.0V-15.0L252.0 -14.0V328.0ZM494.0 271.0C381.0 54.0 191.0 -124.0 -23.0 -232.0C-14.0 -238.0 -5.0 -250.0 2.0 -257.0C213.0 -141.0 402.0 34.0 521.0 258.0Z"/></g>
<g fill="red" transform="translate(800 800) scale(0.1 -0.1)"><path d="M0.0 0.0V-128.0H580.0V0.0ZM37.0 197.0V72.0H394.0V197.0ZM162.0 294.0V-80.0H298.0V294.0ZM444.0 253.0C355.0 17.0 185.0 -160.0 -40.0 -258.0C-13.0 -285.0 33.0 -344.0 50.0 -374.0C282.0 -255.0 467.0 -53.0 574.0 213.0Z"/></g>
<g fill="black" opacity=".8" transform="translate(800 800) scale(0.1 -0.1)"><path d="M0.0 0.0V-125.0H576.0V0.0ZM36.0 196.0V72.0H396.0V196.0ZM167.0 293.0 166.0 -82.0H302.0L301.0 292.0ZM445.0 246.0C356.0 16.0 184.0 -159.0 -39.0 -255.0C-14.0 -284.0 29.0 -344.0 45.0 -375.0C278.0 -257.0 464.0 -55.0 573.0 208.0Z"/></g>
<g fill="red" transform="translate(900 800) scale(0.1 -0.1)"><path d="M0.0 0.0V-29.0H310.0V0.0ZM-83.0 173.0V143.0H451.0V173.0ZM141.0 98.0V-154.0H170.0V98.0ZM347.0 2.0C256.0 -157.0 72.0 -262.0 -128.0 -321.0C-121.0 -327.0 -110.0 -341.0 -106.0 -347.0C92.0 -281.0 280.0 -175.0 376.0 -8.0Z"/></g>
<g fill="black" opacity=".8" transform="translate(900 800) scale(0.1 -0.1)"><path d="M0.0 0.0V-28.0H307.0V0.0ZM-81.0 173.0V145.0H454.0V173.0ZM140.0 100.0 144.0 -153.0 172.0 -154.0 169.0 97.0ZM348.0 -1.0C256.0 -160.0 71.0 -263.0 -127.0 -321.0C-120.0 -326.0 -111.0 -339.0 -106.0 -347.0C90.0 -282.0 278.0 -177.0 374.0 -12.0Z"/></g>
<g fill="red" transform="translate(1000 800) scale(0.1 -0.1)"><path d="M0.0 0.0V-103.0H304.0V0.0ZM-103.0 206.0V95.0H478.0V206.0ZM97.0 49.0V-208.0H217.0V49.0ZM328.0 -49.0C233.0 -200.0 47.0 -310.0 -151.0 -369.0C-129.0 -395.0 -94.0 -451.0 -81.0 -479.0C125.0 -404.0 324.0 -275.0 441.0 -96.0Z"/></g>
<g fill="black" opacity=".8" transform="translate(1000 800) scale(0.1 -0.1)"><path d="M0.0 0.0V-102.0H306.0V0.0ZM-106.0 203.0V93.0H475.0V203.0ZM97.0 52.0 98.0 -210.0 216.0 -211.0 214.0 50.0ZM328.0 -47.0C235.0 -199.0 50.0 -309.0 -149.0 -367.0C-128.0 -395.0 -95.0 -452.0 -83.0 -480.0C127.0 -405.0 325.0 -273.0 441.0 -90.0Z"/></g>
<g fill="red" transform="translate(1100 800) scale(0.1 -0.1)"><path d="M0.0 0.0V-30.0H611.0V0.0ZM44.0 182.0V153.0H438.0V182.0ZM238.0 314.0V-26.0H268.0V314.0ZM560.0 275.0C423.0 45.0 198.0 -142.0 -48.0 -256.0C-41.0 -262.0 -31.0 -276.0 -27.0 -283.0C219.0 -161.0 442.0 22.0 587.0 262.0Z"/></g>
<g fill="black" opacity=".8" transform="translate(1100 800) scale(0.1 -0.1)"><path d="M0.0 0.0V-30.0H613.0V0.0ZM35.0 186.0V156.0H440.0V186.0ZM235.0 316.0 238.0 -33.0H267.0L266.0 314.0ZM555.0 276.0C420.0 47.0 201.0 -144.0 -39.0 -260.0C-31.0 -265.0 -22.0 -277.0 -15.0 -285.0C223.0 -161.0 439.0 25.0 581.0 262.0Z"/></g>
<g fill="red" transform="translate(1200 800) scale(0.1 -0.1)"><path d="M0.0 0.0V-131.0H647.0V0.0ZM36.0 199.0V73.0H450.0V199.0ZM196.0 281.0V-97.0H342.0V281.0ZM508.0 261.0C402.0 20.0 204.0 -165.0 -40.0 -266.0C-11.0 -296.0 37.0 -359.0 57.0 -392.0C307.0 -269.0 521.0 -59.0 649.0 212.0Z"/></g>
<g fill="black" opacity=".8" transform="translate(1200 800) scale(0.1 -0.1)"><path d="M0.0 0.0V-128.0H646.0V0.0ZM42.0 196.0V69.0H448.0V196.0ZM201.0 285.0 200.0 -96.0 340.0 -97.0 339.0 283.0ZM517.0 259.0C407.0 19.0 204.0 -165.0 -46.0 -266.0C-18.0 -296.0 28.0 -357.0 46.0 -390.0C301.0 -268.0 519.0 -59.0 650.0 213.0Z"/></g>
<g fill="red" transform="translate(1300 800) scale(0.1 -0.1)"><path d="M0.0 0.0V-29.0H529.0V0.0ZM40.0 197.0V168.0H375.0V197.0ZM213.0 338.0V-15.0H243.0V338.0ZM470.0 265.0C363.0 55.0 182.0 -112.0 -29.0 -214.0C-21.0 -219.0 -9.0 -231.0 -5.0 -237.0C202.0 -128.0 385.0 35.0 497.0 255.0Z"/></g>
<g fill="black" opacity=".8" transform="translate(1300 800) scale(0.1 -0.1)"><path d="M0.0 0.0V-31.0H525.0V0.0ZM39.0 197.0V167.0H380.0V197.0ZM214.0 333.0 211.0 -19.0 242.0 -16.0 245.0 334.0ZM467.0 257.0C362.0 52.0 179.0 -113.0 -25.0 -211.0C-17.0 -217.0 -7.0 -229.0 -0.0 -237.0C202.0 -130.0 384.0 32.0 494.0 245.0Z"/></g>
<g fill="red" transform="translate(1400 800) scale(0.1 -0.1)"><path d="M0.0 0.0V-122.0H538.0V0.0ZM27.0 197.0V77.0H368.0V197.0ZM149.0 290.0V-93.0H282.0V290.0ZM412.0 219.0C332.0 -1.0 172.0 -160.0 -42.0 -247.0C-19.0 -274.0 18.0 -331.0 32.0 -360.0C260.0 -252.0 436.0 -68.0 533.0 184.0Z"/></g>
<g fill="black" opacity=".8" transform="translate(1400 800) scale(0.1 -0.1)"><path d="M0.0 0.0V-126.0H542.0V0.0ZM28.0 199.0V75.0H361.0V199.0ZM148.0 295.0 146.0 -91.0H283.0L284.0 294.0ZM413.0 226.0C332.0 6.0 167.0 -157.0 -46.0 -247.0C-21.0 -275.0 19.0 -335.0 34.0 -365.0C259.0 -254.0 437.0 -63.0 539.0 190.0Z"/></g>
<g fill="red" transform="translate(1500 800) scale(0.1 -0.1)"><path d="M0.0 0.0V-30.0H407.0V0.0ZM41.0 192.0V163.0H386.0V192.0ZM203.0 323.0V-17.0H232.0V323.0ZM855.0 275.0C754.0 65.0 586.0 -113.0 398.0 -224.0C405.0 -229.0 416.0 -243.0 420.0 -249.0C609.0 -131.0 776.0 46.0 883.0 265.0Z"/></g>
<g fill="black" opacity=".8" transform="translate(1500 800) scale(0.1 -0.1)"><path d="M0.0 0.0V-29.0H408.0V0.0ZM41.0 190.0V162.0H386.0V190.0ZM206.0 317.0 199.0 -17.0 229.0 -12.0 237.0 322.0ZM855.0 277.0C754.0 65.0 587.0 -113.0 398.0 -224.0C405.0 -229.0 414.0 -242.0 420.0 -249.0C610.0 -131.0 777.0 45.0 880.0 266.0Z"/></g>
<g fill="red" transform="translate(1600 800) scale(0.1 -0.1)"><path d="M0.0 0.0V-132.0H415.0V0.0ZM44.0 196.0V69.0H405.0V196.0ZM167.0 290.0V-93.0H298.0V290.0ZM811.0 282.0C737.0 47.0 596.0 -142.0 404.0 -250.0C430.0 -275.0 475.0 -329.0 492.0 -357.0C692.0 -227.0 847.0 -13.0 936.0 250.0Z"/></g>
<g fill="black" opacity=".8" transform="translate(1600 800) scale(0.1 -0.1)"><path d="M0.0 0.0V-130.0H414.0V0.0ZM45.0 196.0V70.0H402.0V196.0ZM168.0 292.0 163.0 -94.0 299.0 -93.0 302.0 292.0ZM810.0 282.0C739.0 46.0 599.0 -143.0 404.0 -249.0C430.0 -275.0 475.0 -330.0 491.0 -359.0C694.0 -230.0 848.0 -15.0 936.0 251.0Z"/></g>
<g fill="red" transform="translate(100 900) scale(0.1 -0.1)"><path d="M0.0 0.0V-30.0H522.0V0.0ZM48.0 188.0V158.0H402.0V188.0ZM225.0 306.0V-16.0H254.0V306.0ZM492.0 290.0C382.0 61.0 202.0 -123.0 -18.0 -237.0C-11.0 -242.0 2.0 -253.0 7.0 -259.0C222.0 -139.0 403.0 43.0 520.0 280.0Z"/></g>
<g fill="black" opacity=".8" transform="translate(100 900) scale(0.1 -0.1)"><path d="M0.0 0.0V-30.0H511.0V0.0ZM56.0 184.0V155.0H402.0V184.0ZM226.0 316.0 231.0 -20.0 259.0 -21.0 255.0 314.0ZM485.0 274.0C379.0 52.0 202.0 -129.0 -5.0 -238.0C3.0 -243.0 13.0 -255.0 19.0 -262.0C224.0 -145.0 401.0 33.0 511.0 263.0Z"/></g>
<g fill="red" transform="translate(200 900) scale(0.1 -0.1)"><path d="M0.0 0.0V-125.0H509.0V0.0ZM42.0 185.0V61.0H385.0V185.0ZM161.0 277.0V-83.0H295.0V277.0ZM423.0 235.0C343.0 -2.0 186.0 -181.0 -28.0 -280.0C-3.0 -309.0 38.0 -371.0 53.0 -402.0C282.0 -279.0 456.0 -71.0 553.0 199.0Z"/></g>
<g fill="black" opacity=".8" transform="translate(200 900) scale(0.1 -0.1)"><path d="M0.0 0.0V-125.0H524.0V0.0ZM33.0 190.0V64.0H385.0V190.0ZM154.0 277.0 155.0 -88.0 292.0 -89.0 290.0 275.0ZM430.0 248.0C347.0 7.0 184.0 -176.0 -36.0 -276.0C-11.0 -306.0 29.0 -368.0 43.0 -400.0C278.0 -275.0 456.0 -63.0 559.0 213.0Z"/></g>
<g fill="red" transform="translate(300 900) scale(0.1 -0.1)"><path d="M0.0 0.0V-29.0H301.0V0.0ZM-102.0 320.0V290.0H221.0V320.0ZM-315.0 383.0V193.0H-286.0V383.0ZM314.0 402.0C205.0 187.0 33.0 1.0 -164.0 -116.0C-156.0 -122.0 -144.0 -133.0 -138.0 -138.0C55.0 -15.0 227.0 169.0 341.0 392.0Z"/></g>
<g fill="black" opacity=".8" transform="translate(300 900) scale(0.1 -0.1)"><path d="M0.0 0.0V-25.0H286.0V0.0ZM-100.0 320.0V295.0H215.0V320.0ZM-309.0 388.0 -311.0 193.0 -285.0 196.0 -282.0 388.0ZM323.0 399.0C211.0 186.0 37.0 -1.0 -161.0 -119.0C-153.0 -123.0 -145.0 -132.0 -138.0 -140.0C58.0 -16.0 229.0 168.0 345.0 388.0Z"/></g>
<g fill="red" transform="translate(400 900) scale(0.1 -0.1)"><path d="M0.0 0.0V-113.0H266.0V0.0ZM-76.0 361.0V243.0H231.0V361.0ZM-305.0 369.0V112.0H-216.0V369.0ZM285.0 403.0C198.0 182.0 37.0 8.0 -169.0 -91.0C-141.0 -115.0 -94.0 -165.0 -76.0 -191.0C131.0 -74.0 305.0 120.0 408.0 366.0Z"/></g>
<g fill="black" opacity=".8" transform="translate(400 900) scale(0.1 -0.1)"><path d="M0.0 0.0V-110.0H280.0V0.0ZM-78.0 356.0V242.0H235.0V356.0ZM-306.0 368.0 -309.0 107.0 -222.0 106.0 -221.0 367.0ZM286.0 404.0C197.0 185.0 39.0 7.0 -169.0 -93.0C-143.0 -117.0 -98.0 -162.0 -80.0 -189.0C126.0 -72.0 296.0 125.0 402.0 370.0Z"/></g>
<g fill="red" transform="translate(500 900) scale(0.1 -0.1)"><path d="M0.0 0.0V-29.0H499.0V0.0ZM37.0 197.0V168.0H369.0V197.0ZM-165.0 278.0V88.0H-136.0V278.0ZM457.0 265.0C358.0 63.0 190.0 -101.0 -6.0 -201.0C2.0 -207.0 14.0 -218.0 18.0 -224.0C211.0 -117.0 380.0 44.0 485.0 255.0Z"/></g>
<g fill="black" opacity=".8" transform="translate(500 900) scale(0.1 -0.1)"><path d="M0.0 0.0V-30.0H501.0V0.0ZM41.0 197.0V169.0H372.0V197.0ZM-161.0 276.0 -170.0 86.0 -139.0 93.0 -129.0 280.0ZM454.0 263.0C354.0 63.0 181.0 -101.0 -9.0 -200.0C-0.0 -205.0 10.0 -217.0 16.0 -224.0C205.0 -117.0 377.0 44.0 481.0 252.0Z"/></g>
<g fill="red" transform="translate(600 900) scale(0.1 -0.1)"><path d="M0.0 0.0V-122.0H514.0V0.0ZM40.0 197.0V77.0H365.0V197.0ZM-209.0 219.0V-38.0H-117.0V219.0ZM396.0 219.0C319.0 1.0 167.0 -158.0 -39.0 -247.0C-18.0 -272.0 17.0 -324.0 30.0 -350.0C248.0 -242.0 415.0 -59.0 508.0 188.0Z"/></g>
<g fill="black" opacity=".8" transform="translate(600 900) scale(0.1 -0.1)"><path d="M0.0 0.0V-125.0H510.0V0.0ZM40.0 199.0V75.0H357.0V199.0ZM-216.0 213.0 -222.0 -32.0H-108.0L-104.0 213.0ZM395.0 221.0C318.0 3.0 164.0 -159.0 -45.0 -249.0C-17.0 -274.0 27.0 -325.0 44.0 -352.0C256.0 -244.0 423.0 -60.0 519.0 189.0Z"/></g>
<g fill="red" transform="translate(700 900) scale(0.1 -0.1)"><path d="M0.0 0.0V-30.0H549.0V0.0ZM41.0 190.0V161.0H405.0V190.0ZM223.0 325.0V-15.0H253.0V325.0ZM491.0 263.0C377.0 52.0 190.0 -121.0 -26.0 -227.0C-19.0 -232.0 -7.0 -244.0 -3.0 -250.0C211.0 -138.0 399.0 32.0 518.0 253.0Z"/></g>
<g fill="black" opacity=".8" transform="translate(700 900) scale(0.1 -0.1)"><path d="M0.0 0.0V-30.0H549.0V0.0ZM41.0 190.0V161.0H402.0V190.0ZM220.0 329.0 221.0 -15.0 250.0 -14.0V328.0ZM493.0 271.0C379.0 55.0 190.0 -121.0 -23.0 -228.0C-14.0 -233.0 -5.0 -245.0 2.0 -252.0C212.0 -138.0 400.0 35.0 519.0 258.0Z"/></g>
<g fill="red" transform="translate(800 900) scale(0.1 -0.1)"><path d="M0.0 0.0V-128.0H577.0V0.0ZM37.0 197.0V72.0H398.0V197.0ZM164.0 294.0V-80.0H301.0V294.0ZM448.0 253.0C359.0 17.0 187.0 -160.0 -40.0 -258.0C-13.0 -285.0 33.0 -344.0 50.0 -374.0C285.0 -255.0 472.0 -53.0 580.0 213.0Z"/></g>
<g fill="black" opacity=".8" transform="translate(800 900) scale(0.1 -0.1)"><path d="M0.0 0.0V-125.0H576.0V0.0ZM36.0 196.0V72.0H399.0V196.0ZM169.0 293.0 168.0 -82.0H304.0L303.0 292.0ZM449.0 247.0C360.0 16.0 186.0 -159.0 -38.0 -255.0C-13.0 -284.0 29.0 -344.0 45.0 -375.0C279.0 -257.0 467.0 -55.0 577.0 208.0Z"/></g>
<g fill="red" transform="translate(900 900) scale(0.1 -0.1)"><path d="M0.0 0.0V-29.0H605.0V0.0ZM51.0 152.0V123.0H449.0V152.0ZM256.0 252.0V-18.0H285.0V252.0ZM538.0 200.0C401.0 29.0 176.0 -115.0 -48.0 -201.0C-40.0 -207.0 -29.0 -218.0 -25.0 -224.0C195.0 -132.0 418.0 8.0 563.0 187.0Z"/></g>
<g fill="black" opacity=".8" transform="translate(900 900) scale(0.1 -0.1)"><path d="M0.0 0.0V-27.0H589.0V0.0ZM48.0 145.0V119.0H449.0V145.0ZM252.0 239.0 247.0 -11.0 274.0 -7.0 281.0 241.0ZM537.0 201.0C409.0 23.0 193.0 -119.0 -29.0 -203.0C-22.0 -208.0 -14.0 -219.0 -8.0 -226.0C212.0 -136.0 425.0 3.0 560.0 187.0Z"/></g>
<g fill="red" transform="translate(1000 900) scale(0.1 -0.1)"><path d="M0.0 0.0V-104.0H549.0V0.0ZM36.0 146.0V42.0H394.0V146.0ZM165.0 196.0V-31.0H287.0V196.0ZM458.0 178.0C355.0 16.0 164.0 -108.0 -39.0 -176.0C-14.0 -201.0 26.0 -257.0 44.0 -285.0C245.0 -202.0 448.0 -62.0 571.0 125.0Z"/></g>
<g fill="black" opacity=".8" transform="translate(1000 900) scale(0.1 -0.1)"><path d="M0.0 0.0V-100.0H568.0V0.0ZM34.0 149.0V51.0H394.0V149.0ZM172.0 213.0 169.0 -48.0H294.0L296.0 212.0ZM457.0 177.0C355.0 11.0 162.0 -112.0 -52.0 -177.0C-31.0 -201.0 5.0 -251.0 19.0 -276.0C236.0 -196.0 439.0 -57.0 563.0 135.0Z"/></g>
<g fill="red" transform="translate(1100 900) scale(0.1 -0.1)"><path d="M0.0 0.0V-30.0H586.0V0.0ZM39.0 182.0V153.0H429.0V182.0ZM225.0 314.0V-26.0H252.0V314.0ZM533.0 275.0C410.0 49.0 209.0 -137.0 -11.0 -247.0C-5.0 -254.0 5.0 -268.0 9.0 -275.0C228.0 -155.0 428.0 26.0 558.0 262.0Z"/></g>
<g fill="black" opacity=".8" transform="translate(1100 900) scale(0.1 -0.1)"><path d="M0.0 0.0V-31.0H586.0V0.0ZM40.0 188.0V158.0H428.0V188.0ZM228.0 317.0 229.0 -26.0H259.0V316.0ZM527.0 278.0C406.0 51.0 205.0 -137.0 -19.0 -251.0C-11.0 -256.0 -1.0 -269.0 6.0 -276.0C228.0 -154.0 427.0 30.0 554.0 265.0Z"/></g>
<g fill="red" transform="translate(1200 900) scale(0.1 -0.1)"><path d="M0.0 0.0V-131.0H609.0V0.0ZM34.0 199.0V73.0H415.0V199.0ZM177.0 281.0V-97.0H314.0V281.0ZM470.0 261.0C371.0 21.0 188.0 -164.0 -39.0 -266.0C-12.0 -295.0 34.0 -359.0 52.0 -392.0C285.0 -269.0 484.0 -58.0 602.0 213.0Z"/></g>
<g fill="black" opacity=".8" transform="translate(1200 900) scale(0.1 -0.1)"><path d="M0.0 0.0V-128.0H607.0V0.0ZM34.0 194.0V67.0H414.0V194.0ZM172.0 278.0 171.0 -95.0 310.0 -96.0V277.0ZM471.0 254.0C377.0 16.0 196.0 -166.0 -36.0 -266.0C-9.0 -296.0 36.0 -357.0 54.0 -388.0C294.0 -266.0 489.0 -58.0 605.0 213.0Z"/></g>
<g fill="red" transform="translate(1300 900) scale(0.1 -0.1)"><path d="M0.0 0.0V-29.0H375.0V0.0ZM35.0 128.0V98.0H266.0V128.0ZM409.0 357.0V-124.0H438.0V357.0ZM323.0 170.0C252.0 24.0 121.0 -94.0 -25.0 -166.0C-18.0 -171.0 -6.0 -183.0 -1.0 -189.0C142.0 -110.0 275.0 8.0 352.0 161.0Z"/></g>
<g fill="black" opacity=".8" transform="translate(1300 900) scale(0.1 -0.1)"><path d="M0.0 0.0V-25.0H363.0V0.0ZM39.0 129.0V105.0H263.0V129.0ZM430.0 351.0 398.0 -127.0 427.0 -107.0 460.0 368.0ZM329.0 168.0C255.0 21.0 120.0 -96.0 -30.0 -166.0C-24.0 -170.0 -16.0 -181.0 -10.0 -187.0C139.0 -110.0 273.0 7.0 352.0 158.0Z"/></g>
<g fill="red" transform="translate(1400 900) scale(0.1 -0.1)"><path d="M0.0 0.0V-100.0H388.0V0.0ZM53.0 126.0V36.0H265.0V126.0ZM397.0 375.0V-147.0H511.0V375.0ZM306.0 147.0C248.0 10.0 130.0 -99.0 -6.0 -162.0C11.0 -185.0 38.0 -237.0 46.0 -261.0C201.0 -180.0 332.0 -47.0 404.0 119.0Z"/></g>
<g fill="black" opacity=".8" transform="translate(1400 900) scale(0.1 -0.1)"><path d="M0.0 0.0V-100.0H396.0V0.0ZM53.0 126.0V33.0H263.0V126.0ZM393.0 362.0 376.0 -146.0 510.0 -142.0 525.0 365.0ZM306.0 152.0C251.0 9.0 138.0 -103.0 -4.0 -166.0C14.0 -188.0 42.0 -236.0 52.0 -260.0C208.0 -181.0 330.0 -47.0 401.0 126.0Z"/></g>
<g fill="red" transform="translate(1500 900) scale(0.1 -0.1)"><path d="M0.0 0.0V-29.0H883.0V0.0ZM83.0 166.0V136.0H675.0V166.0ZM376.0 289.0V-16.0H406.0V289.0ZM797.0 250.0C604.0 21.0 302.0 -165.0 -11.0 -276.0C-3.0 -282.0 8.0 -295.0 12.0 -302.0C319.0 -184.0 618.0 -4.0 822.0 234.0Z"/></g>
<g fill="black" opacity=".8" transform="translate(1500 900) scale(0.1 -0.1)"><path d="M0.0 0.0V-33.0H891.0V0.0ZM85.0 170.0V137.0H671.0V170.0ZM378.0 293.0 380.0 -13.0 412.0 -14.0 411.0 291.0ZM791.0 253.0C600.0 22.0 291.0 -164.0 -20.0 -274.0C-12.0 -281.0 -2.0 -295.0 5.0 -303.0C313.0 -186.0 617.0 -5.0 819.0 235.0Z"/></g>
<g fill="red" transform="translate(1600 900) scale(0.1 -0.1)"><path d="M0.0 0.0V-124.0H919.0V0.0ZM92.0 179.0V57.0H655.0V179.0ZM331.0 269.0V-64.0H475.0V269.0ZM741.0 232.0C567.0 14.0 271.0 -161.0 -33.0 -256.0C-6.0 -284.0 37.0 -343.0 56.0 -373.0C355.0 -263.0 664.0 -77.0 863.0 164.0Z"/></g>
<g fill="black" opacity=".8" transform="translate(1600 900) scale(0.1 -0.1)"><path d="M0.0 0.0V-130.0H908.0V0.0ZM94.0 178.0V51.0H655.0V178.0ZM321.0 260.0V-58.0H480.0L478.0 259.0ZM731.0 233.0C570.0 8.0 279.0 -159.0 -33.0 -247.0C-3.0 -278.0 46.0 -342.0 68.0 -376.0C375.0 -270.0 679.0 -87.0 868.0 167.0Z"/></g>
<g fill="red" transform="translate(100 1000) scale(0.1 -0.1)"><path d="M0.0 0.0V-30.0H596.0V0.0ZM39.0 182.0V153.0H428.0V182.0ZM223.0 314.0V-17.0H253.0V314.0ZM523.0 223.0C386.0 18.0 157.0 -147.0 -81.0 -246.0C-75.0 -253.0 -65.0 -267.0 -61.0 -274.0C177.0 -167.0 406.0 -4.0 551.0 210.0Z"/></g>
<g fill="black" opacity=".8" transform="translate(100 1000) scale(0.1 -0.1)"><path d="M0.0 0.0V-31.0H593.0V0.0ZM34.0 186.0V156.0H422.0V186.0ZM222.0 313.0 219.0 -33.0 250.0 -29.0 254.0 314.0ZM524.0 229.0C390.0 21.0 164.0 -148.0 -75.0 -249.0C-66.0 -254.0 -57.0 -267.0 -50.0 -275.0C186.0 -166.0 410.0 -1.0 551.0 215.0Z"/></g>
<g fill="red" transform="translate(200 1000) scale(0.1 -0.1)"><path d="M0.0 0.0V-131.0H608.0V0.0ZM34.0 199.0V73.0H417.0V199.0ZM178.0 281.0V-97.0H317.0V281.0ZM471.0 215.0C372.0 -13.0 174.0 -166.0 -85.0 -245.0C-57.0 -276.0 -10.0 -340.0 8.0 -373.0C274.0 -273.0 491.0 -95.0 614.0 167.0Z"/></g>
<g fill="black" opacity=".8" transform="translate(200 1000) scale(0.1 -0.1)"><path d="M0.0 0.0V-125.0H614.0V0.0ZM37.0 195.0V73.0H422.0V195.0ZM180.0 286.0 177.0 -91.0 317.0 -92.0 318.0 286.0ZM484.0 206.0C373.0 -7.0 163.0 -167.0 -83.0 -253.0C-58.0 -282.0 -17.0 -342.0 -0.0 -373.0C252.0 -268.0 475.0 -85.0 610.0 159.0Z"/></g>
<g fill="red" transform="translate(300 1000) scale(0.1 -0.1)"><path d="M0.0 0.0V-29.0H328.0V0.0ZM-84.0 173.0V143.0H503.0V173.0ZM160.0 98.0V-154.0H190.0V98.0ZM370.0 2.0C275.0 -163.0 84.0 -269.0 -126.0 -329.0C-119.0 -336.0 -109.0 -349.0 -105.0 -356.0C102.0 -289.0 298.0 -181.0 398.0 -8.0Z"/></g>
<g fill="black" opacity=".8" transform="translate(300 1000) scale(0.1 -0.1)"><path d="M0.0 0.0V-29.0H331.0V0.0ZM-82.0 174.0V145.0H502.0V174.0ZM164.0 99.0 163.0 -153.0 193.0 -152.0 195.0 98.0ZM371.0 0.0C274.0 -164.0 78.0 -269.0 -131.0 -328.0C-124.0 -334.0 -115.0 -347.0 -110.0 -355.0C98.0 -289.0 297.0 -183.0 398.0 -11.0Z"/></g>
<g fill="red" transform="translate(400 1000) scale(0.1 -0.1)"><path d="M0.0 0.0V-103.0H316.0V0.0ZM-115.0 206.0V95.0H502.0V206.0ZM101.0 49.0V-208.0H226.0V49.0ZM332.0 -53.0C232.0 -201.0 38.0 -308.0 -166.0 -365.0C-145.0 -392.0 -111.0 -451.0 -99.0 -479.0C117.0 -405.0 326.0 -277.0 447.0 -101.0Z"/></g>
<g fill="black" opacity=".8" transform="translate(400 1000) scale(0.1 -0.1)"><path d="M0.0 0.0V-103.0H312.0V0.0ZM-116.0 204.0V92.0H501.0V204.0ZM98.0 48.0 97.0 -207.0 223.0 -208.0 224.0 47.0ZM331.0 -51.0C235.0 -201.0 43.0 -309.0 -161.0 -365.0C-140.0 -393.0 -106.0 -453.0 -93.0 -481.0C122.0 -407.0 327.0 -278.0 448.0 -96.0Z"/></g>
<g fill="red" transform="translate(500 1000) scale(0.1 -0.1)"><path d="M0.0 0.0V-30.0H580.0V0.0ZM39.0 182.0V153.0H424.0V182.0ZM220.0 314.0V-26.0H247.0V314.0ZM524.0 275.0C399.0 48.0 194.0 -137.0 -28.0 -247.0C-22.0 -254.0 -13.0 -268.0 -10.0 -275.0C212.0 -155.0 417.0 25.0 548.0 262.0Z"/></g>
<g fill="black" opacity=".8" transform="translate(500 1000) scale(0.1 -0.1)"><path d="M0.0 0.0V-31.0H578.0V0.0ZM40.0 187.0V157.0H421.0V187.0ZM223.0 316.0 224.0 -28.0H254.0V315.0ZM518.0 276.0C395.0 50.0 192.0 -138.0 -34.0 -251.0C-26.0 -257.0 -16.0 -269.0 -9.0 -276.0C215.0 -155.0 415.0 29.0 544.0 264.0Z"/></g>
<g fill="red" transform="translate(600 1000) scale(0.1 -0.1)"><path d="M0.0 0.0V-131.0H597.0V0.0ZM34.0 199.0V73.0H407.0V199.0ZM175.0 281.0V-97.0H309.0V281.0ZM463.0 261.0C362.0 19.0 177.0 -165.0 -52.0 -266.0C-25.0 -296.0 20.0 -359.0 37.0 -392.0C272.0 -270.0 473.0 -60.0 592.0 211.0Z"/></g>
<g fill="black" opacity=".8" transform="translate(600 1000) scale(0.1 -0.1)"><path d="M0.0 0.0V-128.0H597.0V0.0ZM34.0 195.0V68.0H408.0V195.0ZM168.0 280.0 167.0 -95.0 306.0 -96.0 305.0 278.0ZM463.0 254.0C367.0 16.0 183.0 -166.0 -51.0 -266.0C-25.0 -295.0 20.0 -356.0 37.0 -388.0C280.0 -267.0 478.0 -58.0 596.0 212.0Z"/></g>
<g fill="red" transform="translate(700 1000) scale(0.1 -0.1)"><path d="M0.0 0.0V-29.0H406.0V0.0ZM-17.0 311.0V281.0H394.0V311.0ZM166.0 441.0V119.0H196.0V441.0ZM476.0 399.0C346.0 146.0 143.0 -64.0 -102.0 -197.0C-94.0 -203.0 -82.0 -213.0 -76.0 -219.0C163.0 -81.0 366.0 127.0 503.0 388.0Z"/></g>
<g fill="black" opacity=".8" transform="translate(700 1000) scale(0.1 -0.1)"><path d="M0.0 0.0V-30.0H406.0V0.0ZM-18.0 314.0V284.0H385.0V314.0ZM165.0 449.0 179.0 125.0 207.0 118.0 195.0 442.0ZM479.0 406.0C349.0 148.0 140.0 -65.0 -109.0 -196.0C-101.0 -202.0 -90.0 -213.0 -83.0 -220.0C164.0 -82.0 370.0 128.0 506.0 392.0Z"/></g>
<g fill="red" transform="translate(800 1000) scale(0.1 -0.1)"><path d="M0.0 0.0V-116.0H352.0V0.0ZM-67.0 351.0V230.0H321.0V351.0ZM71.0 442.0V91.0H212.0V442.0ZM383.0 412.0C280.0 154.0 89.0 -45.0 -152.0 -153.0C-131.0 -188.0 -100.0 -259.0 -90.0 -295.0C178.0 -157.0 391.0 78.0 512.0 369.0Z"/></g>
<g fill="black" opacity=".8" transform="translate(800 1000) scale(0.1 -0.1)"><path d="M0.0 0.0V-121.0H348.0V0.0ZM-64.0 349.0V220.0H328.0V349.0ZM67.0 440.0 72.0 91.0 208.0 89.0 201.0 436.0ZM380.0 406.0C279.0 151.0 88.0 -49.0 -152.0 -157.0C-129.0 -190.0 -92.0 -256.0 -78.0 -290.0C181.0 -154.0 389.0 77.0 511.0 365.0Z"/></g>
<g fill="red" transform="translate(900 1000) scale(0.1 -0.1)"><path d="M0.0 0.0V-29.0H327.0V0.0ZM-95.0 173.0V143.0H492.0V173.0ZM159.0 98.0V-154.0H189.0V98.0ZM369.0 2.0C269.0 -165.0 67.0 -270.0 -152.0 -329.0C-144.0 -336.0 -135.0 -349.0 -131.0 -356.0C86.0 -290.0 292.0 -184.0 397.0 -9.0Z"/></g>
<g fill="black" opacity=".8" transform="translate(900 1000) scale(0.1 -0.1)"><path d="M0.0 0.0V-28.0H328.0V0.0ZM-94.0 172.0V143.0H495.0V172.0ZM155.0 98.0 156.0 -156.0 184.0 -155.0 185.0 97.0ZM372.0 2.0C268.0 -163.0 66.0 -270.0 -147.0 -330.0C-140.0 -335.0 -132.0 -348.0 -126.0 -356.0C86.0 -289.0 290.0 -181.0 398.0 -10.0Z"/></g>
<g fill="red" transform="translate(1000 1000) scale(0.1 -0.1)"><path d="M0.0 0.0V-103.0H325.0V0.0ZM-115.0 206.0V95.0H525.0V206.0ZM107.0 51.0V-206.0H232.0V51.0ZM352.0 -42.0C248.0 -196.0 47.0 -307.0 -167.0 -366.0C-145.0 -392.0 -109.0 -449.0 -95.0 -477.0C127.0 -402.0 342.0 -272.0 468.0 -90.0Z"/></g>
<g fill="black" opacity=".8" transform="translate(1000 1000) scale(0.1 -0.1)"><path d="M0.0 0.0V-102.0H324.0V0.0ZM-116.0 206.0V95.0H520.0V206.0ZM112.0 54.0 111.0 -205.0 235.0 -206.0V53.0ZM353.0 -42.0C248.0 -195.0 45.0 -306.0 -168.0 -364.0C-146.0 -392.0 -111.0 -451.0 -98.0 -480.0C124.0 -405.0 340.0 -273.0 469.0 -90.0Z"/></g>
<g fill="red" transform="translate(1100 1000) scale(0.1 -0.1)"><path d="M0.0 0.0V-29.0H402.0V0.0ZM26.0 196.0V167.0H287.0V196.0ZM146.0 323.0V-12.0H175.0V323.0ZM360.0 294.0C280.0 75.0 148.0 -112.0 -22.0 -229.0C-14.0 -234.0 -1.0 -245.0 4.0 -250.0C171.0 -126.0 304.0 58.0 388.0 286.0Z"/></g>
<g fill="black" opacity=".8" transform="translate(1100 1000) scale(0.1 -0.1)"><path d="M0.0 0.0V-28.0H408.0V0.0ZM28.0 192.0V165.0H288.0V192.0ZM147.0 322.0 148.0 -14.0H176.0L175.0 321.0ZM361.0 288.0C281.0 71.0 145.0 -112.0 -27.0 -225.0C-19.0 -229.0 -9.0 -240.0 -3.0 -246.0C168.0 -126.0 303.0 54.0 387.0 278.0Z"/></g>
<g fill="red" transform="translate(1200 1000) scale(0.1 -0.1)"><path d="M0.0 0.0V-118.0H419.0V0.0ZM8.0 193.0V78.0H256.0V193.0ZM79.0 282.0V-92.0H197.0V282.0ZM298.0 255.0C238.0 29.0 118.0 -150.0 -58.0 -253.0C-34.0 -278.0 5.0 -332.0 20.0 -359.0C209.0 -234.0 343.0 -29.0 418.0 228.0Z"/></g>
<g fill="black" opacity=".8" transform="translate(1200 1000) scale(0.1 -0.1)"><path d="M0.0 0.0V-120.0H414.0V0.0ZM6.0 197.0V77.0H253.0V197.0ZM76.0 284.0 75.0 -89.0H198.0V282.0ZM292.0 262.0C239.0 29.0 125.0 -151.0 -53.0 -252.0C-29.0 -279.0 10.0 -335.0 25.0 -364.0C218.0 -240.0 346.0 -29.0 416.0 237.0Z"/></g>
<g fill="red" transform="translate(1300 1000) scale(0.1 -0.1)"><path d="M0.0 0.0V-29.0H407.0V0.0ZM-16.0 311.0V281.0H386.0V311.0ZM167.0 441.0V119.0H196.0V441.0ZM477.0 399.0C342.0 145.0 134.0 -65.0 -117.0 -197.0C-108.0 -203.0 -97.0 -213.0 -92.0 -219.0C154.0 -82.0 363.0 125.0 504.0 388.0Z"/></g>
<g fill="black" opacity=".8" transform="translate(1300 1000) scale(0.1 -0.1)"><path d="M0.0 0.0V-30.0H405.0V0.0ZM-20.0 314.0V284.0H380.0V314.0ZM163.0 448.0 174.0 121.0 202.0 116.0 193.0 442.0ZM475.0 403.0C345.0 146.0 135.0 -67.0 -114.0 -199.0C-106.0 -204.0 -95.0 -215.0 -88.0 -223.0C158.0 -84.0 366.0 126.0 503.0 390.0Z"/></g>
<g fill="red" transform="translate(1400 1000) scale(0.1 -0.1)"><path d="M0.0 0.0V-116.0H343.0V0.0ZM-64.0 351.0V230.0H314.0V351.0ZM69.0 442.0V91.0H206.0V442.0ZM373.0 412.0C272.0 153.0 85.0 -44.0 -155.0 -152.0C-130.0 -182.0 -87.0 -243.0 -70.0 -274.0C180.0 -143.0 383.0 80.0 503.0 369.0Z"/></g>
<g fill="black" opacity=".8" transform="translate(1400 1000) scale(0.1 -0.1)"><path d="M0.0 0.0V-120.0H344.0V0.0ZM-61.0 349.0V223.0H319.0V349.0ZM67.0 442.0 71.0 90.0 205.0 88.0 200.0 439.0ZM373.0 405.0C273.0 157.0 84.0 -40.0 -153.0 -147.0C-129.0 -179.0 -91.0 -243.0 -77.0 -276.0C176.0 -143.0 381.0 83.0 502.0 365.0Z"/></g>
<g fill="red" transform="translate(1500 1000) scale(0.1 -0.1)"><path d="M0.0 0.0V-30.0H583.0V0.0ZM51.0 184.0V155.0H431.0V184.0ZM223.0 324.0V-16.0H253.0V324.0ZM521.0 268.0C408.0 39.0 215.0 -141.0 -9.0 -250.0C-2.0 -257.0 9.0 -271.0 12.0 -277.0C237.0 -160.0 429.0 18.0 549.0 258.0Z"/></g>
<g fill="black" opacity=".8" transform="translate(1500 1000) scale(0.1 -0.1)"><path d="M0.0 0.0V-32.0H582.0V0.0ZM47.0 185.0V154.0H426.0V185.0ZM228.0 322.0 225.0 -12.0 257.0 -9.0 262.0 323.0ZM520.0 267.0C405.0 42.0 210.0 -141.0 -11.0 -252.0C-2.0 -258.0 9.0 -271.0 15.0 -278.0C234.0 -159.0 428.0 21.0 549.0 254.0Z"/></g>
<g fill="red" transform="translate(1600 1000) scale(0.1 -0.1)"><path d="M0.0 0.0V-124.0H577.0V0.0ZM20.0 184.0V63.0H372.0V184.0ZM143.0 282.0V-78.0H281.0V282.0ZM434.0 234.0C348.0 6.0 181.0 -166.0 -36.0 -261.0C-13.0 -289.0 26.0 -351.0 39.0 -381.0C273.0 -264.0 456.0 -65.0 560.0 196.0Z"/></g>
<g fill="black" opacity=".8" transform="translate(1600 1000) scale(0.1 -0.1)"><path d="M0.0 0.0V-128.0H576.0V0.0ZM25.0 186.0V61.0H373.0V186.0ZM138.0 281.0 135.0 -80.0H279.0L280.0 281.0ZM433.0 234.0C348.0 6.0 180.0 -166.0 -41.0 -260.0C-14.0 -289.0 29.0 -350.0 46.0 -381.0C276.0 -264.0 459.0 -66.0 565.0 196.0Z"/></g>
<g fill="red" transform="translate(100 1100) scale(0.1 -0.1)"><path d="M0.0 0.0V-29.0H504.0V0.0ZM-60.0 258.0V230.0H500.0V258.0ZM79.0 504.0V296.0H107.0V504.0ZM587.0 326.0C408.0 119.0 115.0 -36.0 -192.0 -125.0C-184.0 -132.0 -173.0 -145.0 -168.0 -151.0C132.0 -55.0 424.0 96.0 613.0 310.0Z"/></g>
<g fill="black" opacity=".8" transform="translate(100 1100) scale(0.1 -0.1)"><path d="M0.0 0.0V-29.0H509.0V0.0ZM-62.0 251.0V222.0H488.0V251.0ZM85.0 497.0 73.0 284.0 104.0 291.0 118.0 503.0ZM583.0 318.0C408.0 114.0 117.0 -37.0 -181.0 -126.0C-173.0 -131.0 -163.0 -143.0 -156.0 -151.0C137.0 -57.0 425.0 92.0 609.0 301.0Z"/></g>
<g fill="red" transform="translate(200 1100) scale(0.1 -0.1)"><path d="M0.0 0.0V-106.0H433.0V0.0ZM-111.0 273.0V164.0H452.0V273.0ZM-28.0 514.0V296.0H115.0V514.0ZM518.0 303.0C355.0 120.0 60.0 -12.0 -233.0 -77.0C-214.0 -106.0 -185.0 -164.0 -175.0 -194.0C128.0 -111.0 438.0 34.0 625.0 242.0Z"/></g>
<g fill="black" opacity=".8" transform="translate(200 1100) scale(0.1 -0.1)"><path d="M0.0 0.0V-102.0H434.0V0.0ZM-110.0 284.0V172.0H461.0V284.0ZM-36.0 519.0 -42.0 297.0 118.0 299.0 123.0 519.0ZM516.0 311.0C354.0 126.0 57.0 -7.0 -238.0 -72.0C-219.0 -104.0 -193.0 -168.0 -183.0 -199.0C125.0 -114.0 436.0 37.0 625.0 250.0Z"/></g>
<g fill="red" transform="translate(300 1100) scale(0.1 -0.1)"><path d="M0.0 0.0V-29.0H455.0V0.0ZM44.0 129.0V99.0H345.0V129.0ZM187.0 206.0V-23.0H217.0V206.0ZM410.0 167.0C315.0 12.0 148.0 -115.0 -23.0 -194.0C-16.0 -199.0 -5.0 -212.0 -1.0 -219.0C169.0 -134.0 336.0 -5.0 437.0 156.0Z"/></g>
<g fill="black" opacity=".8" transform="translate(300 1100) scale(0.1 -0.1)"><path d="M0.0 0.0V-22.0H454.0V0.0ZM51.0 123.0V101.0H342.0V123.0ZM188.0 206.0 187.0 -30.0 209.0 -28.0 211.0 206.0ZM413.0 167.0C318.0 9.0 159.0 -120.0 -12.0 -197.0C-6.0 -201.0 1.0 -210.0 6.0 -216.0C176.0 -133.0 333.0 -7.0 432.0 156.0Z"/></g>
<g fill="red" transform="translate(400 1100) scale(0.1 -0.1)"><path d="M0.0 0.0V-100.0H455.0V0.0ZM56.0 127.0V32.0H321.0V127.0ZM138.0 172.0V-69.0H244.0V172.0ZM367.0 153.0C293.0 -9.0 150.0 -126.0 -15.0 -188.0C4.0 -213.0 34.0 -265.0 46.0 -291.0C216.0 -213.0 371.0 -77.0 460.0 112.0Z"/></g>
<g fill="black" opacity=".8" transform="translate(400 1100) scale(0.1 -0.1)"><path d="M0.0 0.0V-90.0H460.0V0.0ZM46.0 126.0V38.0H324.0V126.0ZM143.0 181.0 141.0 -74.0H243.0V180.0ZM367.0 147.0C292.0 -12.0 149.0 -132.0 -24.0 -197.0C-6.0 -218.0 25.0 -261.0 38.0 -283.0C215.0 -204.0 368.0 -67.0 460.0 116.0Z"/></g>
<g fill="red" transform="translate(500 1100) scale(0.1 -0.1)"><path d="M0.0 0.0V-29.0H485.0V0.0ZM31.0 197.0V168.0H322.0V197.0ZM161.0 338.0V-15.0H194.0V338.0ZM448.0 265.0C345.0 60.0 172.0 -105.0 -31.0 -205.0C-23.0 -211.0 -11.0 -222.0 -6.0 -228.0C193.0 -121.0 367.0 41.0 476.0 255.0Z"/></g>
<g fill="black" opacity=".8" transform="translate(500 1100) scale(0.1 -0.1)"><path d="M0.0 0.0V-30.0H482.0V0.0ZM32.0 195.0V166.0H331.0V195.0ZM171.0 331.0 170.0 -17.0 199.0 -15.0 202.0 332.0ZM440.0 260.0C338.0 58.0 162.0 -105.0 -34.0 -204.0C-26.0 -209.0 -16.0 -221.0 -10.0 -228.0C185.0 -122.0 360.0 39.0 466.0 248.0Z"/></g>
<g fill="red" transform="translate(600 1100) scale(0.1 -0.1)"><path d="M0.0 0.0V-122.0H504.0V0.0ZM22.0 197.0V77.0H337.0V197.0ZM125.0 290.0V-93.0H256.0V290.0ZM402.0 225.0C311.0 25.0 145.0 -145.0 -40.0 -241.0C-22.0 -272.0 4.0 -337.0 13.0 -368.0C222.0 -246.0 405.0 -45.0 513.0 185.0Z"/></g>
<g fill="black" opacity=".8" transform="translate(600 1100) scale(0.1 -0.1)"><path d="M0.0 0.0V-124.0H504.0V0.0ZM23.0 200.0V77.0H326.0V200.0ZM119.0 296.0 117.0 -90.0 248.0 -91.0V295.0ZM399.0 233.0C319.0 13.0 158.0 -152.0 -52.0 -243.0C-28.0 -271.0 10.0 -330.0 24.0 -360.0C247.0 -247.0 422.0 -54.0 522.0 199.0Z"/></g>
<g fill="red" transform="translate(700 1100) scale(0.1 -0.1)"><path d="M0.0 0.0V-30.0H610.0V0.0ZM51.0 132.0V102.0H435.0V132.0ZM225.0 213.0V-16.0H254.0V213.0ZM524.0 198.0C397.0 20.0 194.0 -130.0 -18.0 -222.0C-10.0 -228.0 2.0 -240.0 7.0 -245.0C214.0 -147.0 417.0 0.0 551.0 186.0Z"/></g>
<g fill="black" opacity=".8" transform="translate(700 1100) scale(0.1 -0.1)"><path d="M0.0 0.0V-26.0H603.0V0.0ZM43.0 132.0V106.0H437.0V132.0ZM223.0 216.0 225.0 -23.0H251.0L250.0 215.0ZM540.0 198.0C411.0 17.0 198.0 -129.0 -22.0 -216.0C-15.0 -221.0 -7.0 -232.0 -1.0 -238.0C216.0 -145.0 426.0 -3.0 562.0 184.0Z"/></g>
<g fill="red" transform="translate(800 1100) scale(0.1 -0.1)"><path d="M0.0 0.0V-108.0H599.0V0.0ZM29.0 141.0V36.0H412.0V141.0ZM153.0 181.0V-76.0H291.0V181.0ZM484.0 173.0C381.0 -5.0 179.0 -131.0 -50.0 -196.0C-26.0 -223.0 13.0 -280.0 28.0 -308.0C264.0 -225.0 480.0 -81.0 605.0 126.0Z"/></g>
<g fill="black" opacity=".8" transform="translate(800 1100) scale(0.1 -0.1)"><path d="M0.0 0.0V-103.0H604.0V0.0ZM35.0 135.0V34.0H409.0V135.0ZM164.0 183.0 163.0 -70.0 285.0 -71.0 284.0 181.0ZM481.0 175.0C376.0 -5.0 179.0 -139.0 -43.0 -210.0C-21.0 -234.0 17.0 -285.0 32.0 -311.0C256.0 -224.0 464.0 -74.0 590.0 131.0Z"/></g>
<g fill="red" transform="translate(900 1100) scale(0.1 -0.1)"><path d="M0.0 0.0V-29.0H525.0V0.0ZM29.0 191.0V162.0H369.0V191.0ZM187.0 328.0V-16.0H216.0V328.0ZM449.0 292.0C345.0 73.0 180.0 -114.0 -17.0 -230.0C-8.0 -236.0 3.0 -247.0 9.0 -252.0C201.0 -129.0 368.0 55.0 478.0 282.0Z"/></g>
<g fill="black" opacity=".8" transform="translate(900 1100) scale(0.1 -0.1)"><path d="M0.0 0.0V-29.0H517.0V0.0ZM28.0 187.0V159.0H365.0V187.0ZM189.0 329.0 190.0 0.0 218.0 1.0 219.0 329.0ZM460.0 286.0C353.0 67.0 178.0 -115.0 -24.0 -226.0C-16.0 -231.0 -7.0 -242.0 -0.0 -249.0C201.0 -130.0 374.0 48.0 485.0 274.0Z"/></g>
<g fill="red" transform="translate(1000 1100) scale(0.1 -0.1)"><path d="M0.0 0.0V-126.0H527.0V0.0ZM14.0 193.0V69.0H343.0V193.0ZM128.0 297.0V-54.0H258.0V297.0ZM413.0 254.0C325.0 30.0 161.0 -146.0 -49.0 -245.0C-24.0 -269.0 17.0 -322.0 34.0 -349.0C250.0 -231.0 428.0 -34.0 532.0 218.0Z"/></g>
<g fill="black" opacity=".8" transform="translate(1000 1100) scale(0.1 -0.1)"><path d="M0.0 0.0V-122.0H531.0V0.0ZM16.0 192.0V72.0H343.0V192.0ZM127.0 295.0 126.0 -65.0H258.0L257.0 294.0ZM399.0 262.0C320.0 32.0 165.0 -144.0 -45.0 -241.0C-20.0 -269.0 22.0 -327.0 39.0 -357.0C258.0 -237.0 427.0 -34.0 525.0 228.0Z"/></g>
</svg>
