<?xml version="1.0" encoding="UTF-8"?>
<svg width="1700" height="300" xmlns="http://www.w3.org/2000/svg">
<rect width="100%" height="100%" fill="white"/>
<g fill="green" transform="translate(100 100) scale(0.1 -0.1)"><path d="M0.0 -0.0V-31.0H929.0V0.0ZM100.0 112.0V82.0H806.0V-116.0H87.0V-146.0H835.0V112.0ZM434.0 198.0V-377.0H465.0V198.0ZM793.0 -189.0V-513.0H822.0V-189.0ZM141.0 -192.0V-263.0C141.0 -338.0 132.0 -427.0 45.0 -492.0C53.0 -497.0 65.0 -507.0 69.0 -514.0C160.0 -442.0 172.0 -349.0 172.0 -264.0V-192.0ZM333.0 -228.0C310.0 -303.0 273.0 -378.0 228.0 -433.0C237.0 -437.0 248.0 -447.0 254.0 -451.0C296.0 -396.0 338.0 -315.0 362.0 -233.0ZM584.0 -234.0C626.0 -294.0 672.0 -376.0 694.0 -426.0L721.0 -412.0C700.0 -365.0 652.0 -283.0 610.0 -225.0Z"/></g>
<g fill="green" transform="translate(200 100) scale(0.1 -0.1)"><path d="M0.0 0.0V-94.0H946.0V0.0ZM102.0 123.0V23.0H713.0V-115.0H90.0V-216.0H854.0V123.0ZM375.0 194.0V-399.0H513.0V194.0ZM730.0 -232.0V-574.0H869.0V-232.0ZM101.0 -234.0V-273.0C101.0 -337.0 90.0 -425.0 4.0 -492.0C41.0 -509.0 94.0 -547.0 119.0 -574.0C220.0 -488.0 230.0 -367.0 230.0 -279.0V-234.0ZM288.0 -263.0C268.0 -337.0 233.0 -416.0 193.0 -469.0C221.0 -485.0 272.0 -517.0 295.0 -536.0C339.0 -476.0 383.0 -381.0 409.0 -292.0ZM535.0 -298.0C564.0 -362.0 599.0 -449.0 609.0 -502.0L743.0 -459.0C728.0 -406.0 692.0 -323.0 660.0 -260.0Z"/></g>
<g fill="green" transform="translate(300 100) scale(0.1 -0.1)"><path d="M0.0 0.0V-26.0H799.0V0.0ZM88.0 89.0V64.0H698.0V-92.0H77.0V-116.0H721.0V89.0ZM379.0 154.0V-295.0H404.0V154.0ZM684.0 -148.0V-402.0H707.0V-148.0ZM128.0 -150.0V-207.0C128.0 -266.0 121.0 -335.0 49.0 -384.0C56.0 -388.0 66.0 -397.0 69.0 -402.0C144.0 -347.0 154.0 -275.0 154.0 -208.0V-150.0ZM292.0 -179.0C272.0 -236.0 240.0 -295.0 203.0 -338.0C211.0 -342.0 219.0 -350.0 225.0 -353.0C259.0 -310.0 295.0 -247.0 316.0 -183.0ZM506.0 -183.0C541.0 -229.0 580.0 -292.0 600.0 -332.0L622.0 -319.0C603.0 -283.0 562.0 -220.0 527.0 -175.0Z"/></g>
<g fill="green" transform="translate(400 100) scale(0.1 -0.1)"><path d="M0.0 0.0V-75.0H811.0V0.0ZM91.0 98.0V18.0H613.0V-91.0H80.0V-172.0H731.0V98.0ZM328.0 153.0V-308.0H442.0V153.0ZM626.0 -184.0V-451.0H742.0V-184.0ZM94.0 -186.0V-212.0C94.0 -261.0 85.0 -330.0 11.0 -382.0C41.0 -396.0 85.0 -427.0 106.0 -449.0C193.0 -382.0 201.0 -285.0 201.0 -217.0V-186.0ZM253.0 -208.0C234.0 -265.0 203.0 -326.0 168.0 -366.0C191.0 -380.0 234.0 -407.0 254.0 -423.0C292.0 -376.0 332.0 -303.0 355.0 -233.0ZM459.0 -239.0C484.0 -287.0 515.0 -352.0 524.0 -393.0L639.0 -354.0C625.0 -314.0 594.0 -252.0 566.0 -205.0Z"/></g>
<g fill="green" transform="translate(500 100) scale(0.1 -0.1)"><path d="M0.0 0.0V-29.0H760.0V0.0ZM74.0 125.0V97.0H653.0V-136.0H61.0V-163.0H680.0V125.0ZM417.0 109.0V-1005.0H446.0V109.0ZM637.0 -225.0V-607.0H664.0V-225.0ZM91.0 -230.0V-296.0C91.0 -386.0 82.0 -502.0 -9.0 -593.0C-2.0 -598.0 8.0 -606.0 13.0 -613.0C108.0 -515.0 119.0 -397.0 119.0 -296.0V-230.0ZM250.0 -282.0C230.0 -366.0 200.0 -450.0 156.0 -509.0C164.0 -514.0 175.0 -522.0 180.0 -526.0C220.0 -465.0 257.0 -377.0 277.0 -286.0ZM457.0 -287.0C496.0 -354.0 537.0 -444.0 555.0 -498.0L582.0 -485.0C564.0 -435.0 522.0 -345.0 482.0 -280.0Z"/></g>
<g fill="green" transform="translate(600 100) scale(0.1 -0.1)"><path d="M0.0 0.0V-105.0H769.0V0.0ZM97.0 140.0V32.0H572.0V-135.0H85.0V-244.0H707.0V140.0ZM386.0 98.0V-1074.0H526.0V98.0ZM579.0 -257.0V-677.0H707.0V-257.0ZM60.0 -258.0V-346.0C60.0 -422.0 50.0 -518.0 -35.0 -594.0C-3.0 -613.0 44.0 -654.0 66.0 -682.0C172.0 -585.0 182.0 -451.0 182.0 -351.0V-258.0ZM224.0 -296.0C211.0 -391.0 188.0 -491.0 152.0 -556.0C174.0 -569.0 214.0 -595.0 232.0 -611.0C273.0 -538.0 303.0 -425.0 320.0 -314.0ZM434.0 -317.0C456.0 -402.0 477.0 -512.0 480.0 -578.0L584.0 -552.0C578.0 -486.0 556.0 -379.0 531.0 -295.0Z"/></g>
<g fill="green" transform="translate(700 100) scale(0.1 -0.1)"><path d="M0.0 0.0V-35.0H803.0V0.0ZM74.0 142.0V107.0H678.0V-142.0H67.0V-178.0H713.0V142.0ZM266.0 398.0V94.0H301.0V398.0ZM683.0 -245.0V-658.0H718.0V-245.0ZM90.0 -246.0V-302.0C90.0 -403.0 81.0 -538.0 -10.0 -640.0C0.0 -646.0 15.0 -655.0 21.0 -663.0C114.0 -553.0 126.0 -414.0 126.0 -302.0V-246.0ZM254.0 -284.0C238.0 -386.0 208.0 -486.0 160.0 -557.0C170.0 -561.0 185.0 -573.0 191.0 -577.0C236.0 -505.0 271.0 -399.0 290.0 -289.0ZM507.0 -288.0C545.0 -376.0 583.0 -495.0 597.0 -566.0L632.0 -555.0C618.0 -487.0 578.0 -369.0 541.0 -281.0Z"/></g>
<g fill="green" transform="translate(800 100) scale(0.1 -0.1)"><path d="M0.0 0.0V-111.0H816.0V0.0ZM52.0 151.0V29.0H591.0V-142.0H46.0V-263.0H731.0V151.0ZM170.0 377.0V49.0H311.0V377.0ZM633.0 -297.0V-734.0H771.0V-297.0ZM29.0 -297.0V-353.0C29.0 -447.0 21.0 -569.0 -35.0 -669.0C6.0 -683.0 65.0 -717.0 94.0 -741.0C155.0 -624.0 161.0 -478.0 161.0 -359.0V-297.0ZM197.0 -326.0C184.0 -426.0 161.0 -539.0 135.0 -615.0C163.0 -630.0 215.0 -659.0 238.0 -676.0C266.0 -594.0 297.0 -465.0 316.0 -354.0ZM459.0 -351.0C483.0 -452.0 511.0 -588.0 521.0 -666.0L646.0 -639.0C632.0 -563.0 602.0 -431.0 577.0 -331.0Z"/></g>
<g fill="green" transform="translate(900 100) scale(0.1 -0.1)"><path d="M0.0 0.0V-30.0H915.0V0.0ZM98.0 110.0V80.0H770.0V-114.0H84.0V-143.0H800.0V110.0ZM415.0 192.0V-378.0H446.0V192.0ZM777.0 -185.0V-503.0H807.0V-185.0ZM122.0 -188.0V-308.0C122.0 -376.0 113.0 -439.0 30.0 -483.0C37.0 -488.0 48.0 -498.0 51.0 -505.0C141.0 -455.0 154.0 -386.0 154.0 -309.0V-188.0ZM322.0 -224.0C300.0 -305.0 262.0 -387.0 218.0 -443.0C226.0 -448.0 238.0 -458.0 243.0 -463.0C287.0 -403.0 326.0 -317.0 351.0 -229.0ZM556.0 -236.0C598.0 -299.0 645.0 -385.0 667.0 -436.0L693.0 -423.0C671.0 -373.0 624.0 -289.0 582.0 -227.0Z"/></g>
<g fill="green" transform="translate(1000 100) scale(0.1 -0.1)"><path d="M0.0 0.0V-98.0H976.0V0.0ZM91.0 115.0V17.0H750.0V-112.0H79.0V-211.0H887.0V115.0ZM393.0 189.0V-391.0H527.0V189.0ZM758.0 -230.0V-559.0H899.0V-230.0ZM104.0 -230.0V-268.0C104.0 -327.0 93.0 -410.0 6.0 -473.0C43.0 -494.0 97.0 -537.0 123.0 -567.0C226.0 -484.0 237.0 -362.0 237.0 -274.0V-230.0ZM298.0 -268.0C279.0 -337.0 247.0 -412.0 209.0 -462.0C240.0 -480.0 292.0 -518.0 319.0 -539.0C359.0 -481.0 402.0 -387.0 426.0 -300.0ZM546.0 -303.0C581.0 -366.0 615.0 -448.0 621.0 -500.0L754.0 -455.0C745.0 -401.0 709.0 -323.0 670.0 -262.0Z"/></g>
<g fill="red" transform="translate(100 200) scale(0.1 -0.1)"><path d="M0.0 0.0V-29.0H627.0V0.0ZM52.0 136.0V107.0H527.0V-144.0H44.0V-173.0H556.0V136.0ZM285.0 225.0V-662.0H314.0V225.0ZM523.0 -247.0V-662.0H552.0V-247.0ZM52.0 -250.0V-301.0C52.0 -402.0 44.0 -540.0 -44.0 -651.0C-36.0 -656.0 -25.0 -663.0 -19.0 -670.0C71.0 -553.0 81.0 -412.0 81.0 -301.0V-250.0ZM182.0 -300.0C167.0 -397.0 144.0 -490.0 102.0 -556.0C110.0 -560.0 122.0 -569.0 127.0 -573.0C167.0 -506.0 196.0 -407.0 211.0 -305.0ZM377.0 -304.0C410.0 -384.0 443.0 -492.0 455.0 -555.0L485.0 -545.0C473.0 -485.0 439.0 -378.0 405.0 -298.0Z"/></g>
<g fill="black" opacity=".8" transform="translate(100 200) scale(0.1 -0.1)"><path d="M0.0 0.0V-30.0H627.0V0.0ZM52.0 136.0V107.0H527.0V-144.0H44.0V-173.0H556.0V136.0ZM285.0 225.0V-661.0H314.0V225.0ZM523.0 -247.0V-662.0H552.0V-247.0ZM52.0 -250.0V-301.0C52.0 -402.0 44.0 -541.0 -44.0 -651.0C-36.0 -656.0 -25.0 -663.0 -19.0 -670.0C71.0 -553.0 82.0 -412.0 82.0 -300.0V-250.0ZM182.0 -301.0C168.0 -396.0 144.0 -490.0 101.0 -556.0C110.0 -561.0 122.0 -569.0 127.0 -573.0C166.0 -505.0 196.0 -407.0 212.0 -304.0ZM376.0 -304.0C410.0 -384.0 443.0 -491.0 455.0 -556.0L486.0 -545.0C473.0 -485.0 439.0 -378.0 405.0 -298.0Z"/></g>
<g fill="red" transform="translate(200 200) scale(0.1 -0.1)"><path d="M0.0 0.0V-109.0H631.0V0.0ZM60.0 149.0V34.0H454.0V-144.0H52.0V-259.0H578.0V149.0ZM231.0 204.0V-741.0H365.0V204.0ZM476.0 -282.0V-737.0H594.0V-282.0ZM10.0 -281.0V-376.0C10.0 -467.0 2.0 -579.0 -58.0 -670.0C-26.0 -686.0 22.0 -722.0 45.0 -746.0C118.0 -635.0 126.0 -494.0 126.0 -380.0V-281.0ZM150.0 -317.0C143.0 -423.0 129.0 -539.0 104.0 -614.0C125.0 -625.0 163.0 -648.0 179.0 -661.0C207.0 -579.0 227.0 -451.0 238.0 -333.0ZM355.0 -330.0C372.0 -433.0 386.0 -568.0 389.0 -646.0L481.0 -632.0C476.0 -555.0 458.0 -423.0 440.0 -322.0Z"/></g>
<g fill="black" opacity=".8" transform="translate(200 200) scale(0.1 -0.1)"><path d="M0.0 0.0V-109.0H632.0V0.0ZM60.0 149.0V34.0H453.0V-144.0H52.0V-259.0H579.0V149.0ZM232.0 204.0V-742.0H365.0V204.0ZM475.0 -282.0V-737.0H594.0V-282.0ZM10.0 -282.0V-376.0C10.0 -466.0 2.0 -578.0 -58.0 -670.0C-26.0 -686.0 21.0 -722.0 44.0 -746.0C119.0 -635.0 125.0 -494.0 125.0 -381.0V-282.0ZM150.0 -317.0C142.0 -423.0 129.0 -539.0 104.0 -614.0C124.0 -626.0 162.0 -648.0 179.0 -661.0C207.0 -579.0 227.0 -451.0 238.0 -333.0ZM355.0 -330.0C372.0 -434.0 387.0 -568.0 390.0 -646.0L480.0 -632.0C475.0 -556.0 459.0 -424.0 440.0 -321.0Z"/></g>
<g fill="red" transform="translate(300 200) scale(0.1 -0.1)"><path d="M0.0 0.0V-29.0H666.0V0.0ZM61.0 117.0V88.0H552.0V-117.0H56.0V-147.0H582.0V117.0ZM202.0 351.0V175.0H231.0V351.0ZM566.0 -202.0V-543.0H596.0V-202.0ZM68.0 -202.0V-268.0C68.0 -349.0 61.0 -451.0 -13.0 -528.0C-5.0 -533.0 7.0 -541.0 12.0 -547.0C88.0 -464.0 98.0 -358.0 98.0 -268.0V-202.0ZM208.0 -232.0C195.0 -321.0 170.0 -407.0 131.0 -467.0C139.0 -471.0 151.0 -481.0 156.0 -485.0C195.0 -423.0 222.0 -331.0 238.0 -237.0ZM415.0 -238.0C447.0 -314.0 478.0 -416.0 490.0 -476.0L519.0 -467.0C507.0 -409.0 475.0 -308.0 444.0 -232.0Z"/></g>
<g fill="black" opacity=".8" transform="translate(300 200) scale(0.1 -0.1)"><path d="M0.0 0.0V-30.0H666.0V0.0ZM61.0 118.0V88.0H553.0V-117.0H56.0V-147.0H582.0V118.0ZM202.0 351.0V176.0H231.0V351.0ZM566.0 -202.0V-542.0H596.0V-202.0ZM68.0 -202.0V-268.0C68.0 -349.0 61.0 -452.0 -13.0 -528.0C-5.0 -533.0 8.0 -541.0 12.0 -547.0C89.0 -464.0 99.0 -358.0 99.0 -268.0V-202.0ZM208.0 -233.0C195.0 -320.0 170.0 -407.0 130.0 -467.0C139.0 -471.0 151.0 -481.0 157.0 -485.0C195.0 -422.0 222.0 -332.0 239.0 -237.0ZM415.0 -238.0C446.0 -313.0 478.0 -415.0 490.0 -477.0L519.0 -467.0C507.0 -409.0 474.0 -309.0 444.0 -232.0Z"/></g>
<g fill="red" transform="translate(400 200) scale(0.1 -0.1)"><path d="M0.0 0.0V-94.0H695.0V0.0ZM36.0 122.0V21.0H509.0V-117.0H31.0V-217.0H623.0V122.0ZM131.0 334.0V145.0H246.0V334.0ZM543.0 -248.0V-604.0H659.0V-248.0ZM24.0 -246.0V-289.0C24.0 -367.0 17.0 -468.0 -27.0 -550.0C7.0 -563.0 58.0 -592.0 83.0 -613.0C130.0 -516.0 136.0 -394.0 136.0 -294.0V-246.0ZM166.0 -274.0C156.0 -354.0 138.0 -447.0 118.0 -509.0C143.0 -522.0 188.0 -549.0 208.0 -564.0C229.0 -497.0 255.0 -389.0 270.0 -299.0ZM389.0 -295.0C411.0 -379.0 434.0 -491.0 442.0 -556.0L548.0 -532.0C538.0 -468.0 511.0 -359.0 488.0 -277.0Z"/></g>
<g fill="black" opacity=".8" transform="translate(400 200) scale(0.1 -0.1)"><path d="M0.0 0.0V-94.0H696.0V0.0ZM36.0 122.0V21.0H509.0V-117.0H31.0V-217.0H624.0V122.0ZM132.0 334.0V144.0H247.0V334.0ZM543.0 -248.0V-604.0H659.0V-248.0ZM23.0 -247.0V-290.0C23.0 -366.0 17.0 -467.0 -27.0 -550.0C7.0 -563.0 57.0 -592.0 83.0 -613.0C131.0 -516.0 135.0 -394.0 135.0 -295.0V-247.0ZM167.0 -273.0C155.0 -354.0 138.0 -447.0 118.0 -509.0C142.0 -523.0 187.0 -549.0 209.0 -564.0C229.0 -496.0 255.0 -390.0 270.0 -299.0ZM388.0 -294.0C411.0 -379.0 435.0 -491.0 442.0 -556.0L547.0 -532.0C537.0 -469.0 512.0 -360.0 488.0 -277.0Z"/></g>
<g fill="red" transform="translate(500 200) scale(0.1 -0.1)"><path d="M0.0 0.0V-30.0H878.0V0.0ZM92.0 114.0V85.0H749.0V-120.0H79.0V-149.0H778.0V114.0ZM421.0 172.0V-542.0H451.0V172.0ZM745.0 -197.0V-533.0H774.0V-197.0ZM119.0 -200.0V-293.0C119.0 -368.0 110.0 -452.0 24.0 -514.0C31.0 -519.0 42.0 -529.0 46.0 -536.0C137.0 -467.0 149.0 -379.0 149.0 -294.0V-200.0ZM306.0 -240.0C284.0 -321.0 249.0 -401.0 205.0 -458.0C213.0 -462.0 224.0 -472.0 229.0 -476.0C272.0 -418.0 311.0 -332.0 334.0 -245.0ZM538.0 -249.0C579.0 -312.0 624.0 -398.0 645.0 -449.0L671.0 -436.0C651.0 -387.0 605.0 -302.0 563.0 -240.0Z"/></g>
<g fill="black" opacity=".8" transform="translate(500 200) scale(0.1 -0.1)"><path d="M0.0 0.0V-30.0H878.0V0.0ZM92.0 114.0V85.0H749.0V-120.0H79.0V-149.0H778.0V114.0ZM421.0 172.0V-542.0H451.0V172.0ZM745.0 -197.0V-533.0H774.0V-197.0ZM119.0 -200.0V-293.0C119.0 -368.0 110.0 -452.0 24.0 -514.0C31.0 -519.0 42.0 -529.0 46.0 -536.0C137.0 -467.0 150.0 -379.0 150.0 -294.0V-200.0ZM306.0 -240.0C284.0 -320.0 249.0 -401.0 204.0 -458.0C213.0 -462.0 224.0 -472.0 229.0 -476.0C272.0 -417.0 311.0 -332.0 335.0 -245.0ZM538.0 -249.0C579.0 -312.0 624.0 -398.0 645.0 -450.0L672.0 -436.0C651.0 -387.0 605.0 -302.0 563.0 -240.0Z"/></g>
<g fill="red" transform="translate(600 200) scale(0.1 -0.1)"><path d="M0.0 0.0V-99.0H914.0V0.0ZM96.0 123.0V22.0H694.0V-119.0H84.0V-221.0H831.0V123.0ZM386.0 167.0V-571.0H523.0V167.0ZM704.0 -238.0V-594.0H841.0V-238.0ZM92.0 -238.0V-290.0C92.0 -355.0 81.0 -443.0 -5.0 -510.0C30.0 -529.0 83.0 -570.0 107.0 -599.0C210.0 -511.0 221.0 -387.0 221.0 -295.0V-238.0ZM276.0 -274.0C259.0 -351.0 228.0 -434.0 190.0 -488.0C218.0 -504.0 267.0 -538.0 290.0 -557.0C331.0 -495.0 371.0 -395.0 394.0 -302.0ZM514.0 -305.0C544.0 -374.0 574.0 -465.0 581.0 -521.0L707.0 -481.0C697.0 -424.0 664.0 -337.0 631.0 -270.0Z"/></g>
<g fill="black" opacity=".8" transform="translate(600 200) scale(0.1 -0.1)"><path d="M0.0 0.0V-99.0H914.0V0.0ZM96.0 124.0V23.0H694.0V-119.0H84.0V-221.0H831.0V124.0ZM386.0 167.0V-572.0H523.0V167.0ZM704.0 -238.0V-594.0H841.0V-238.0ZM92.0 -238.0V-290.0C92.0 -355.0 81.0 -442.0 -5.0 -510.0C30.0 -529.0 82.0 -570.0 107.0 -599.0C210.0 -511.0 221.0 -387.0 221.0 -295.0V-238.0ZM276.0 -274.0C258.0 -351.0 228.0 -434.0 190.0 -488.0C218.0 -505.0 266.0 -538.0 290.0 -557.0C331.0 -495.0 371.0 -395.0 394.0 -302.0ZM514.0 -305.0C544.0 -374.0 575.0 -465.0 581.0 -521.0L707.0 -481.0C697.0 -425.0 664.0 -338.0 631.0 -270.0Z"/></g>
<g fill="red" transform="translate(700 200) scale(0.1 -0.1)"><path d="M0.0 0.0V-29.0H640.0V0.0ZM53.0 136.0V107.0H515.0V-144.0H44.0V-173.0H545.0V136.0ZM278.0 225.0V-662.0H308.0V225.0ZM531.0 -247.0V-662.0H561.0V-247.0ZM38.0 -250.0V-352.0C38.0 -447.0 29.0 -561.0 -57.0 -651.0C-49.0 -656.0 -39.0 -664.0 -34.0 -671.0C57.0 -575.0 68.0 -457.0 68.0 -352.0V-250.0ZM181.0 -300.0C167.0 -405.0 142.0 -506.0 100.0 -575.0C107.0 -580.0 120.0 -589.0 124.0 -594.0C167.0 -521.0 194.0 -415.0 211.0 -305.0ZM366.0 -310.0C401.0 -395.0 436.0 -508.0 449.0 -573.0L478.0 -564.0C465.0 -500.0 430.0 -389.0 395.0 -304.0Z"/></g>
<g fill="black" opacity=".8" transform="translate(700 200) scale(0.1 -0.1)"><path d="M0.0 0.0V-29.0H641.0V0.0ZM53.0 137.0V106.0H515.0V-144.0H44.0V-173.0H546.0V137.0ZM278.0 225.0V-661.0H308.0V225.0ZM530.0 -246.0V-661.0H561.0V-246.0ZM38.0 -250.0V-352.0C38.0 -448.0 29.0 -562.0 -57.0 -651.0C-50.0 -656.0 -39.0 -663.0 -34.0 -671.0C57.0 -575.0 69.0 -457.0 69.0 -351.0V-250.0ZM182.0 -301.0C168.0 -404.0 142.0 -507.0 99.0 -574.0C106.0 -580.0 120.0 -589.0 124.0 -594.0C166.0 -520.0 195.0 -415.0 212.0 -305.0ZM366.0 -310.0C401.0 -395.0 436.0 -508.0 449.0 -574.0L479.0 -564.0C465.0 -500.0 430.0 -390.0 395.0 -305.0Z"/></g>
<g fill="red" transform="translate(800 200) scale(0.1 -0.1)"><path d="M0.0 0.0V-115.0H690.0V0.0ZM52.0 143.0V28.0H513.0V-143.0H44.0V-258.0H637.0V143.0ZM260.0 205.0V-731.0H393.0V205.0ZM526.0 -285.0V-733.0H650.0V-285.0ZM17.0 -282.0V-376.0C17.0 -463.0 9.0 -572.0 -55.0 -660.0C-22.0 -680.0 29.0 -722.0 53.0 -750.0C131.0 -640.0 140.0 -496.0 140.0 -380.0V-282.0ZM169.0 -328.0C163.0 -430.0 150.0 -543.0 126.0 -616.0C151.0 -629.0 192.0 -659.0 212.0 -675.0C238.0 -594.0 258.0 -465.0 268.0 -348.0ZM382.0 -342.0C406.0 -445.0 420.0 -576.0 420.0 -654.0L515.0 -636.0C515.0 -557.0 496.0 -429.0 470.0 -329.0Z"/></g>
<g fill="black" opacity=".8" transform="translate(800 200) scale(0.1 -0.1)"><path d="M0.0 0.0V-115.0H690.0V0.0ZM51.0 144.0V28.0H512.0V-143.0H44.0V-258.0H637.0V144.0ZM261.0 205.0V-732.0H393.0V205.0ZM526.0 -285.0V-733.0H650.0V-285.0ZM16.0 -283.0V-376.0C16.0 -462.0 9.0 -571.0 -55.0 -660.0C-22.0 -680.0 28.0 -722.0 53.0 -750.0C132.0 -641.0 140.0 -496.0 140.0 -381.0V-283.0ZM170.0 -328.0C162.0 -430.0 150.0 -543.0 126.0 -616.0C150.0 -630.0 191.0 -659.0 212.0 -675.0C237.0 -594.0 258.0 -466.0 268.0 -348.0ZM382.0 -342.0C406.0 -445.0 421.0 -576.0 420.0 -654.0L514.0 -636.0C515.0 -558.0 497.0 -430.0 470.0 -329.0Z"/></g>
</svg>
