<?xml version="1.0" encoding="UTF-8"?>
<svg width="1700" height="500" xmlns="http://www.w3.org/2000/svg">
<rect width="100%" height="100%" fill="white"/>
<g fill="green" transform="translate(100 100) scale(0.1 -0.1)"><path d="M0.0 -0.0 288.0 -31.0 820.0 -124.0 532.0 -93.0ZM148.0 -67.0 437.0 -248.0 916.0 -342.0 627.0 -161.0ZM150.0 -336.0 438.0 -368.0 970.0 -464.0 682.0 -432.0ZM-209.0 143.0V-167.0H85.0V-274.0H254.0V-548.0H579.0V143.0ZM503.0 396.0C485.0 336.0 446.0 238.0 416.0 177.0L466.0 165.0C498.0 222.0 532.0 308.0 564.0 383.0Z"/></g>
<g fill="green" transform="translate(200 100) scale(0.1 -0.1)"><path d="M0.0 0.0 159.0 -63.0 541.0 -89.0 382.0 -26.0ZM134.0 -24.0 294.0 -238.0 671.0 -264.0 512.0 -50.0ZM127.0 -257.0 286.0 -355.0 704.0 -381.0 544.0 -283.0ZM-349.0 214.0V-154.0H-31.0V-214.0H36.0V-499.0H477.0V214.0ZM277.0 428.0C265.0 369.0 240.0 289.0 218.0 227.0L439.0 190.0C469.0 241.0 510.0 313.0 552.0 397.0Z"/></g>
<g fill="green" transform="translate(300 100) scale(0.1 -0.1)"><path d="M0.0 -0.0 280.0 -7.0 475.0 -98.0 195.0 -90.0ZM162.0 81.0 443.0 -45.0 598.0 -136.0 317.0 -10.0ZM163.0 -13.0 443.0 -21.0 638.0 -115.0 358.0 -106.0ZM-173.0 -4.0V208.0H80.0V-363.0H-35.0V-142.0H247.0V-4.0ZM358.0 134.0C351.0 110.0 333.0 67.0 319.0 40.0L348.0 35.0C362.0 59.0 378.0 95.0 394.0 128.0Z"/></g>
<g fill="green" transform="translate(400 100) scale(0.1 -0.1)"><path d="M0.0 0.0 155.0 34.0 240.0 9.0 85.0 -25.0ZM149.0 115.0 305.0 27.0 393.0 2.0 238.0 90.0ZM141.0 42.0 296.0 47.0 413.0 22.0 257.0 16.0ZM-274.0 70.0V262.0H-70.0V-228.0H-174.0V-53.0H139.0V70.0ZM198.0 180.0C191.0 167.0 178.0 148.0 168.0 129.0L282.0 108.0C297.0 121.0 318.0 136.0 342.0 161.0Z"/></g>
<g fill="green" transform="translate(500 100) scale(0.1 -0.1)"><path d="M0.0 -0.0 446.0 -40.0 873.0 -184.0 427.0 -144.0ZM-162.0 -316.0 285.0 -525.0 652.0 -671.0 205.0 -462.0ZM-157.0 -700.0 289.0 -740.0 718.0 -889.0 272.0 -849.0ZM-712.0 4.0V-439.0H-287.0V-579.0H-355.0V-975.0H115.0V4.0ZM212.0 397.0C188.0 307.0 137.0 162.0 98.0 72.0L167.0 55.0C209.0 139.0 254.0 267.0 295.0 378.0Z"/></g>
<g fill="green" transform="translate(600 100) scale(0.1 -0.1)"><path d="M0.0 0.0 246.0 -113.0 586.0 -154.0 339.0 -40.0ZM-164.0 -282.0 84.0 -542.0 367.0 -583.0 121.0 -323.0ZM-167.0 -622.0 79.0 -750.0 402.0 -790.0 154.0 -663.0ZM-858.0 105.0V-473.0H-421.0V-488.0H-580.0V-957.0H33.0V105.0ZM-42.0 453.0C-52.0 358.0 -81.0 228.0 -107.0 129.0L191.0 76.0C232.0 160.0 289.0 281.0 344.0 411.0Z"/></g>
<g fill="green" transform="translate(700 100) scale(0.1 -0.1)"><path d="M0.0 0.0 86.0 -32.0 662.0 -60.0 576.0 -28.0ZM40.0 -374.0 127.0 38.0 873.0 10.0 786.0 -402.0ZM27.0 -372.0 113.0 -404.0 693.0 -433.0 607.0 -401.0ZM-100.0 92.0V-720.0H-163.0V357.0H660.0V-391.0H586.0V92.0ZM299.0 250.0C287.0 205.0 260.0 132.0 239.0 88.0L273.0 80.0C296.0 121.0 321.0 186.0 343.0 241.0Z"/></g>
<g fill="green" transform="translate(800 100) scale(0.1 -0.1)"><path d="M0.0 0.0 47.0 -59.0 486.0 -66.0 439.0 -8.0ZM60.0 -326.0 108.0 28.0 631.0 20.0 584.0 -333.0ZM8.0 -301.0 55.0 -394.0 519.0 -402.0 471.0 -309.0ZM-252.0 116.0V-659.0H-74.0V245.0H390.0V-341.0H524.0V116.0ZM162.0 232.0C151.0 195.0 131.0 142.0 113.0 103.0L248.0 75.0C270.0 109.0 302.0 155.0 334.0 207.0Z"/></g>
<g fill="green" transform="translate(900 100) scale(0.1 -0.1)"><path d="M0.0 -0.0 -31.0 -55.0 640.0 -45.0 671.0 10.0ZM1.0 181.0 -29.0 -635.0 359.0 -625.0 389.0 191.0ZM20.0 -312.0 -11.0 -368.0 657.0 -358.0 688.0 -302.0ZM43.0 302.0V14.0H345.0V-368.0H392.0V-620.0H722.0V302.0ZM301.0 500.0C279.0 433.0 234.0 325.0 202.0 260.0L246.0 249.0C282.0 313.0 321.0 407.0 355.0 489.0Z"/></g>
<g fill="green" transform="translate(1000 100) scale(0.1 -0.1)"><path d="M0.0 0.0 -17.0 -182.0 509.0 -179.0 527.0 3.0ZM-36.0 195.0 -53.0 -698.0 337.0 -695.0 355.0 198.0ZM3.0 -255.0 -14.0 -461.0 520.0 -458.0 537.0 -252.0ZM27.0 284.0V-86.0H290.0V-393.0H304.0V-683.0H704.0V284.0ZM180.0 453.0C167.0 386.0 138.0 294.0 113.0 229.0L322.0 189.0C352.0 244.0 387.0 323.0 429.0 413.0Z"/></g>
<g fill="green" transform="translate(1100 100) scale(0.1 -0.1)"><path d="M0.0 -0.0 290.0 -26.0 631.0 -120.0 341.0 -94.0ZM238.0 -79.0 529.0 -214.0 831.0 -309.0 540.0 -174.0ZM239.0 -374.0 529.0 -402.0 865.0 -498.0 575.0 -471.0ZM-119.0 221.0V-234.0H157.0V-158.0H164.0V-574.0H470.0V221.0ZM512.0 467.0C490.0 409.0 445.0 316.0 411.0 259.0L457.0 246.0C494.0 303.0 532.0 382.0 567.0 454.0Z"/></g>
<g fill="green" transform="translate(1200 100) scale(0.1 -0.1)"><path d="M0.0 0.0 160.0 -73.0 402.0 -100.0 242.0 -26.0ZM223.0 -42.0 384.0 -234.0 642.0 -260.0 482.0 -69.0ZM220.0 -307.0 380.0 -407.0 677.0 -433.0 516.0 -333.0ZM-222.0 289.0V-234.0H73.0V-117.0H-18.0V-543.0H392.0V289.0ZM310.0 516.0C300.0 447.0 277.0 353.0 257.0 285.0L472.0 247.0C496.0 303.0 524.0 385.0 559.0 477.0Z"/></g>
<g fill="green" transform="translate(1300 100) scale(0.1 -0.1)"><path d="M0.0 0.0 286.0 -30.0 813.0 -123.0 527.0 -92.0ZM139.0 -75.0 426.0 -250.0 899.0 -343.0 612.0 -168.0ZM141.0 -338.0 427.0 -369.0 953.0 -465.0 667.0 -434.0ZM-219.0 133.0V-167.0H72.0V-277.0H246.0V-538.0H567.0V133.0ZM495.0 397.0C479.0 334.0 443.0 232.0 415.0 170.0L463.0 158.0C493.0 217.0 525.0 309.0 554.0 385.0Z"/></g>
<g fill="green" transform="translate(1400 100) scale(0.1 -0.1)"><path d="M0.0 0.0 158.0 -65.0 547.0 -91.0 389.0 -26.0ZM125.0 -28.0 284.0 -239.0 668.0 -265.0 510.0 -54.0ZM122.0 -255.0 280.0 -353.0 706.0 -378.0 547.0 -281.0ZM-346.0 201.0V-163.0H-29.0V-220.0H47.0V-500.0H485.0V201.0ZM308.0 414.0C295.0 362.0 271.0 294.0 248.0 237.0L480.0 201.0C512.0 246.0 555.0 309.0 598.0 387.0Z"/></g>
<g fill="green" transform="translate(1500 100) scale(0.1 -0.1)"><path d="M0.0 0.0 292.0 -21.0 818.0 -116.0 526.0 -94.0ZM145.0 -64.0 438.0 -242.0 908.0 -337.0 615.0 -159.0ZM147.0 -341.0 439.0 -363.0 964.0 -460.0 672.0 -438.0ZM-210.0 142.0V-141.0H79.0V-274.0H240.0V-546.0H561.0V142.0ZM502.0 354.0C485.0 308.0 449.0 234.0 422.0 186.0L465.0 174.0C492.0 217.0 524.0 281.0 552.0 341.0Z"/></g>
<g fill="green" transform="translate(1600 100) scale(0.1 -0.1)"><path d="M0.0 0.0 161.0 -55.0 573.0 -81.0 411.0 -26.0ZM132.0 -35.0 294.0 -247.0 699.0 -273.0 538.0 -62.0ZM127.0 -283.0 288.0 -365.0 739.0 -391.0 577.0 -309.0ZM-329.0 217.0V-145.0H-49.0V-203.0H66.0V-511.0H468.0V217.0ZM277.0 431.0C270.0 374.0 253.0 298.0 237.0 239.0L433.0 217.0C456.0 267.0 487.0 336.0 518.0 417.0Z"/></g>
<g fill="green" transform="translate(100 200) scale(0.1 -0.1)"><path d="M0.0 0.0 287.0 -29.0 806.0 -122.0 518.0 -93.0ZM149.0 -65.0 437.0 -243.0 898.0 -337.0 610.0 -159.0ZM153.0 -332.0 440.0 -363.0 957.0 -458.0 670.0 -428.0ZM-206.0 139.0V-154.0H86.0V-275.0H246.0V-543.0H569.0V139.0ZM506.0 421.0C491.0 354.0 458.0 245.0 430.0 178.0L480.0 165.0C508.0 229.0 537.0 326.0 565.0 407.0Z"/></g>
<g fill="green" transform="translate(200 200) scale(0.1 -0.1)"><path d="M0.0 0.0 159.0 -61.0 557.0 -87.0 398.0 -26.0ZM135.0 -30.0 294.0 -243.0 688.0 -268.0 529.0 -56.0ZM140.0 -267.0 299.0 -360.0 711.0 -386.0 551.0 -293.0ZM-354.0 212.0V-156.0H-45.0V-209.0H52.0V-507.0H484.0V212.0ZM276.0 428.0C265.0 353.0 239.0 252.0 215.0 177.0L432.0 141.0C466.0 206.0 514.0 301.0 555.0 402.0Z"/></g>
<g fill="green" transform="translate(300 200) scale(0.1 -0.1)"><path d="M0.0 0.0 281.0 -27.0 812.0 -118.0 530.0 -91.0ZM148.0 -64.0 430.0 -252.0 906.0 -344.0 624.0 -156.0ZM150.0 -344.0 431.0 -373.0 965.0 -466.0 684.0 -438.0ZM-204.0 150.0V-163.0H86.0V-266.0H264.0V-546.0H583.0V150.0ZM522.0 377.0C506.0 323.0 471.0 236.0 445.0 181.0L491.0 170.0C520.0 222.0 548.0 298.0 579.0 364.0Z"/></g>
<g fill="green" transform="translate(400 200) scale(0.1 -0.1)"><path d="M0.0 0.0 155.0 -67.0 517.0 -93.0 361.0 -25.0ZM133.0 -21.0 289.0 -250.0 644.0 -275.0 488.0 -47.0ZM128.0 -265.0 284.0 -363.0 687.0 -388.0 531.0 -290.0ZM-359.0 219.0V-156.0H-56.0V-215.0H47.0V-508.0H471.0V219.0ZM277.0 411.0C266.0 357.0 243.0 285.0 222.0 227.0L440.0 195.0C471.0 243.0 515.0 309.0 556.0 389.0Z"/></g>
<g fill="red" transform="translate(100 300) scale(0.1 -0.1)"><path d="M0.0 0.0V-30.0H446.0V0.0ZM0.0 -217.0V-246.0H446.0V-217.0ZM-1.0 -438.0V-467.0H445.0V-438.0ZM-16.0 209.0V-542.0H13.0V180.0H427.0V-542.0H457.0V209.0ZM209.0 360.0C193.0 313.0 163.0 240.0 139.0 196.0L165.0 188.0C189.0 232.0 216.0 297.0 237.0 352.0Z"/></g>
<g fill="black" opacity=".8" transform="translate(100 300) scale(0.1 -0.1)"><path d="M0.0 0.0 2.0 -28.0 450.0 -31.0 447.0 -1.0ZM1.0 -215.0 4.0 -247.0H448.0L446.0 -216.0ZM1.0 -442.0 3.0 -472.0H447.0L445.0 -444.0ZM-18.0 214.0V-540.0H14.0V181.0H427.0V-542.0H459.0V214.0ZM203.0 356.0C188.0 311.0 158.0 243.0 136.0 203.0L161.0 193.0C184.0 235.0 211.0 294.0 232.0 346.0Z"/></g>
<g fill="red" transform="translate(200 300) scale(0.1 -0.1)"><path d="M0.0 0.0V-134.0H415.0V0.0ZM2.0 -206.0V-340.0H417.0V-206.0ZM2.0 -415.0V-553.0H435.0V-415.0ZM-50.0 207.0V-603.0H86.0V69.0H329.0V-603.0H472.0V207.0ZM132.0 348.0C125.0 291.0 108.0 216.0 91.0 164.0L224.0 144.0C244.0 191.0 269.0 259.0 292.0 332.0Z"/></g>
<g fill="black" opacity=".8" transform="translate(200 300) scale(0.1 -0.1)"><path d="M0.0 0.0 1.0 -129.0 413.0 -130.0 412.0 0.0ZM2.0 -205.0 3.0 -338.0 415.0 -337.0 414.0 -207.0ZM1.0 -416.0 2.0 -552.0 427.0 -551.0 426.0 -416.0ZM-54.0 210.0V-599.0H84.0V71.0H334.0V-600.0H478.0V210.0ZM129.0 352.0C125.0 292.0 111.0 211.0 97.0 156.0L233.0 138.0C250.0 189.0 269.0 261.0 289.0 338.0Z"/></g>
<g fill="red" transform="translate(300 300) scale(0.1 -0.1)"><path d="M0.0 0.0V-29.0H472.0V0.0ZM0.0 -226.0V-255.0H472.0V-226.0ZM0.0 -461.0V-491.0H472.0V-461.0ZM-20.0 211.0V-549.0H10.0V182.0H461.0V-542.0H490.0V211.0ZM231.0 356.0C216.0 310.0 188.0 239.0 166.0 195.0L191.0 189.0C215.0 231.0 239.0 295.0 260.0 348.0Z"/></g>
<g fill="black" opacity=".8" transform="translate(300 300) scale(0.1 -0.1)"><path d="M0.0 0.0 3.0 -30.0 476.0 -32.0 471.0 -2.0ZM-0.0 -218.0 4.0 -246.0 477.0 -248.0 472.0 -220.0ZM1.0 -446.0 4.0 -478.0H476.0L472.0 -449.0ZM-23.0 214.0V-549.0H10.0V182.0H454.0V-550.0H486.0V214.0ZM226.0 360.0C212.0 313.0 184.0 242.0 163.0 199.0L190.0 189.0C212.0 233.0 236.0 295.0 258.0 349.0Z"/></g>
<g fill="red" transform="translate(400 300) scale(0.1 -0.1)"><path d="M0.0 0.0V-134.0H415.0V0.0ZM0.0 -203.0V-337.0H415.0V-203.0ZM0.0 -411.0V-550.0H433.0V-411.0ZM-84.0 205.0V-605.0H55.0V66.0H323.0V-605.0H469.0V205.0ZM115.0 346.0C109.0 276.0 92.0 184.0 73.0 119.0L200.0 98.0C225.0 156.0 258.0 244.0 283.0 330.0Z"/></g>
<g fill="black" opacity=".8" transform="translate(400 300) scale(0.1 -0.1)"><path d="M0.0 0.0 2.0 -131.0H413.0L410.0 0.0ZM1.0 -207.0 3.0 -338.0 413.0 -337.0 411.0 -209.0ZM-0.0 -418.0 2.0 -557.0H419.0L417.0 -418.0ZM-93.0 211.0V-603.0H51.0V68.0H335.0V-603.0H486.0V211.0ZM110.0 343.0C105.0 276.0 89.0 186.0 72.0 124.0L209.0 105.0C231.0 162.0 258.0 244.0 281.0 329.0Z"/></g>
<g fill="red" transform="translate(500 300) scale(0.1 -0.1)"><path d="M0.0 0.0V-29.0H437.0V0.0ZM0.0 -169.0V-198.0H433.0V-169.0ZM2.0 -341.0V-370.0H435.0V-341.0ZM-15.0 162.0V-423.0H14.0V132.0H421.0V-418.0H451.0V162.0ZM190.0 312.0C179.0 266.0 157.0 194.0 138.0 152.0L163.0 144.0C182.0 185.0 204.0 251.0 220.0 304.0Z"/></g>
<g fill="black" opacity=".8" transform="translate(500 300) scale(0.1 -0.1)"><path d="M0.0 0.0V-29.0L435.0 -30.0L434.0 0.0ZM1.0 -167.0 2.0 -196.0 433.0 -195.0 432.0 -167.0ZM2.0 -334.0V-364.0H433.0V-335.0ZM-16.0 160.0V-425.0H14.0V132.0H419.0V-420.0H449.0V160.0ZM191.0 315.0C180.0 267.0 157.0 192.0 138.0 150.0L163.0 141.0C182.0 185.0 204.0 252.0 220.0 307.0Z"/></g>
<g fill="red" transform="translate(600 300) scale(0.1 -0.1)"><path d="M0.0 0.0V-101.0H392.0V0.0ZM0.0 -151.0V-252.0H392.0V-151.0ZM0.0 -300.0V-414.0H392.0V-300.0ZM-55.0 155.0V-463.0H79.0V47.0H321.0V-457.0H462.0V155.0ZM144.0 282.0C138.0 227.0 123.0 154.0 108.0 102.0L233.0 84.0C251.0 129.0 275.0 197.0 296.0 267.0Z"/></g>
<g fill="black" opacity=".8" transform="translate(600 300) scale(0.1 -0.1)"><path d="M0.0 0.0V-103.0H391.0V0.0ZM2.0 -151.0V-254.0L393.0 -253.0V-151.0ZM2.0 -301.0V-417.0L395.0 -416.0V-302.0ZM-59.0 157.0V-465.0H78.0V45.0H324.0V-458.0H467.0V157.0ZM141.0 275.0C134.0 225.0 118.0 158.0 102.0 111.0L230.0 90.0C250.0 133.0 275.0 194.0 298.0 259.0Z"/></g>
<g fill="red" transform="translate(700 300) scale(0.1 -0.1)"><path d="M0.0 0.0V-29.0H366.0V0.0ZM0.0 -216.0V-246.0H366.0V-216.0ZM0.0 -442.0V-471.0H366.0V-442.0ZM-19.0 213.0V-543.0H11.0V184.0H358.0V-528.0H388.0V213.0ZM174.0 350.0C159.0 306.0 131.0 238.0 109.0 198.0L134.0 190.0C158.0 231.0 182.0 291.0 203.0 342.0Z"/></g>
<g fill="black" opacity=".8" transform="translate(700 300) scale(0.1 -0.1)"><path d="M0.0 0.0 -3.0 -28.0 368.0 -29.0 370.0 0.0ZM-1.0 -216.0 -2.0 -246.0 367.0 -245.0 368.0 -215.0ZM-1.0 -440.0 -3.0 -471.0 365.0 -469.0 367.0 -441.0ZM-18.0 212.0V-542.0H11.0V184.0H358.0V-528.0H385.0V212.0ZM176.0 351.0C162.0 306.0 132.0 237.0 112.0 197.0L135.0 188.0C159.0 231.0 183.0 291.0 205.0 343.0Z"/></g>
<g fill="red" transform="translate(800 300) scale(0.1 -0.1)"><path d="M0.0 0.0V-134.0H325.0V0.0ZM0.0 -201.0V-335.0H325.0V-201.0ZM0.0 -406.0V-544.0H343.0V-406.0ZM-55.0 203.0V-598.0H81.0V65.0H267.0V-590.0H410.0V203.0ZM116.0 331.0C111.0 277.0 96.0 206.0 82.0 155.0L223.0 135.0C241.0 179.0 262.0 243.0 283.0 314.0Z"/></g>
<g fill="black" opacity=".8" transform="translate(800 300) scale(0.1 -0.1)"><path d="M0.0 0.0 -2.0 -133.0 326.0 -134.0V1.0ZM-0.0 -201.0 -2.0 -336.0 325.0 -335.0 326.0 -202.0ZM-1.0 -407.0 -2.0 -544.0 344.0 -543.0 345.0 -406.0ZM-54.0 203.0V-600.0H83.0V66.0H264.0V-590.0H405.0V203.0ZM116.0 331.0C111.0 278.0 96.0 206.0 81.0 155.0L222.0 134.0C241.0 179.0 262.0 243.0 284.0 313.0Z"/></g>
<g fill="red" transform="translate(900 300) scale(0.1 -0.1)"><path d="M0.0 0.0H340.0V-110.0H0.0ZM0.0 -139.0H340.0V-250.0H0.0ZM0.0 -279.0H340.0V-392.0H0.0ZM-410.0 -54.0V-83.0H-162.0V-358.0H-410.0V-387.0H-133.0V-54.0ZM151.0 130.0C143.0 98.0 126.0 48.0 112.0 16.0L140.0 8.0C154.0 38.0 168.0 82.0 183.0 121.0Z"/></g>
<g fill="black" opacity=".8" transform="translate(900 300) scale(0.1 -0.1)"><path d="M0.0 0.0 339.0 1.0 340.0 -111.0 -0.0 -109.0ZM-0.0 -139.0H340.0L341.0 -250.0H0.0ZM0.0 -279.0 339.0 -280.0 338.0 -393.0 -1.0 -392.0ZM-410.0 -54.0V-83.0H-162.0V-358.0H-409.0V-387.0H-133.0V-54.0ZM152.0 130.0C144.0 98.0 126.0 47.0 112.0 16.0L140.0 8.0C153.0 39.0 168.0 82.0 183.0 121.0Z"/></g>
<g fill="red" transform="translate(1000 300) scale(0.1 -0.1)"><path d="M0.0 0.0H188.0V-31.0H0.0ZM0.0 -127.0H188.0V-158.0H0.0ZM0.0 -254.0H188.0V-285.0H0.0ZM-488.0 29.0V-84.0H-291.0V-244.0H-488.0V-357.0H-186.0V29.0ZM11.0 201.0C10.0 160.0 3.0 106.0 -4.0 63.0L122.0 47.0C137.0 83.0 159.0 136.0 177.0 193.0Z"/></g>
<g fill="black" opacity=".8" transform="translate(1000 300) scale(0.1 -0.1)"><path d="M0.0 0.0H188.0V-31.0L-1.0 -30.0ZM-0.0 -126.0 189.0 -127.0 188.0 -157.0 -0.0 -158.0ZM0.0 -254.0 188.0 -255.0 189.0 -284.0 0.0 -285.0ZM-488.0 29.0V-85.0H-290.0V-244.0H-487.0V-357.0H-186.0V29.0ZM10.0 201.0C10.0 160.0 3.0 106.0 -5.0 63.0L122.0 46.0C138.0 84.0 159.0 136.0 177.0 192.0Z"/></g>
<g fill="red" transform="translate(1100 300) scale(0.1 -0.1)"><path d="M0.0 0.0V-30.0H257.0V0.0ZM-349.0 -333.0V-363.0H-92.0V-333.0ZM-347.0 -498.0V-527.0H-86.0V-498.0ZM-365.0 -19.0V-574.0H-335.0V-48.0H-97.0V-569.0H-68.0V-19.0ZM-238.0 132.0C-247.0 86.0 -266.0 15.0 -281.0 -28.0L-256.0 -35.0C-240.0 6.0 -222.0 71.0 -208.0 124.0Z"/></g>
<g fill="black" opacity=".8" transform="translate(1100 300) scale(0.1 -0.1)"><path d="M0.0 0.0 -1.0 -29.0 257.0 -31.0V0.0ZM-349.0 -333.0V-363.0H-92.0V-333.0ZM-346.0 -498.0 -347.0 -527.0 -88.0 -528.0 -87.0 -499.0ZM-365.0 -19.0V-573.0H-335.0V-48.0H-96.0V-569.0H-68.0V-19.0ZM-237.0 132.0C-246.0 86.0 -266.0 14.0 -281.0 -28.0L-257.0 -35.0C-241.0 7.0 -222.0 70.0 -208.0 124.0Z"/></g>
<g fill="red" transform="translate(1200 300) scale(0.1 -0.1)"><path d="M0.0 0.0V-126.0H266.0V0.0ZM-334.0 -336.0V-437.0H-122.0V-336.0ZM-336.0 -485.0V-599.0H-124.0V-485.0ZM-386.0 -30.0V-644.0H-261.0V-138.0H-157.0V-638.0H-26.0V-30.0ZM-262.0 103.0C-265.0 52.0 -276.0 -18.0 -288.0 -68.0L-180.0 -88.0C-161.0 -43.0 -135.0 24.0 -114.0 89.0Z"/></g>
<g fill="black" opacity=".8" transform="translate(1200 300) scale(0.1 -0.1)"><path d="M0.0 0.0 -1.0 -126.0H266.0L265.0 1.0ZM-334.0 -335.0V-437.0H-122.0V-336.0ZM-335.0 -485.0V-599.0L-123.0 -598.0L-124.0 -486.0ZM-387.0 -29.0V-645.0H-260.0V-138.0H-156.0V-638.0H-26.0V-29.0ZM-263.0 102.0C-265.0 52.0 -276.0 -18.0 -288.0 -68.0L-181.0 -89.0C-161.0 -42.0 -135.0 23.0 -113.0 88.0Z"/></g>
<g fill="red" transform="translate(1300 300) scale(0.1 -0.1)"><path d="M0.0 0.0V-29.0H385.0V0.0ZM-1.0 -210.0V-240.0H384.0V-210.0ZM0.0 -436.0V-465.0H385.0V-436.0ZM-13.0 219.0V-542.0H16.0V190.0H368.0V-542.0H397.0V219.0ZM182.0 355.0C167.0 312.0 139.0 247.0 117.0 207.0L144.0 196.0C166.0 236.0 191.0 293.0 212.0 344.0Z"/></g>
<g fill="black" opacity=".8" transform="translate(1300 300) scale(0.1 -0.1)"><path d="M0.0 0.0 -3.0 -28.0H379.0L380.0 0.0ZM2.0 -213.0 0.0 -244.0H380.0L382.0 -213.0ZM3.0 -442.0 0.0 -472.0 380.0 -470.0 382.0 -442.0ZM-12.0 218.0V-543.0H16.0V190.0H371.0V-538.0H398.0V218.0ZM184.0 354.0C169.0 310.0 140.0 243.0 119.0 203.0L143.0 193.0C167.0 236.0 191.0 293.0 213.0 344.0Z"/></g>
<g fill="red" transform="translate(1400 300) scale(0.1 -0.1)"><path d="M0.0 0.0V-127.0H338.0V0.0ZM0.0 -211.0V-338.0H338.0V-211.0ZM0.0 -423.0V-557.0H338.0V-423.0ZM-60.0 213.0V-597.0H71.0V79.0H276.0V-597.0H414.0V213.0ZM93.0 348.0C90.0 280.0 77.0 187.0 65.0 126.0L195.0 111.0C209.0 167.0 225.0 250.0 241.0 335.0Z"/></g>
<g fill="black" opacity=".8" transform="translate(1400 300) scale(0.1 -0.1)"><path d="M0.0 0.0 -2.0 -131.0 339.0 -132.0V1.0ZM3.0 -205.0 1.0 -340.0 341.0 -339.0 342.0 -206.0ZM3.0 -418.0 2.0 -554.0 352.0 -553.0 354.0 -418.0ZM-59.0 212.0V-601.0H71.0V75.0H274.0V-597.0H409.0V212.0ZM91.0 341.0C87.0 277.0 73.0 190.0 58.0 131.0L187.0 112.0C205.0 166.0 226.0 244.0 246.0 324.0Z"/></g>
<g fill="red" transform="translate(1500 300) scale(0.1 -0.1)"><path d="M0.0 0.0V-29.0H366.0V0.0ZM0.0 -216.0V-246.0H366.0V-216.0ZM0.0 -442.0V-471.0H366.0V-442.0ZM-19.0 213.0V-543.0H11.0V184.0H348.0V-528.0H377.0V213.0ZM174.0 350.0C159.0 306.0 131.0 238.0 109.0 198.0L134.0 190.0C158.0 231.0 182.0 291.0 203.0 342.0Z"/></g>
<g fill="black" opacity=".8" transform="translate(1500 300) scale(0.1 -0.1)"><path d="M0.0 0.0V-28.0L366.0 -30.0L365.0 -0.0ZM-0.0 -216.0 1.0 -245.0 366.0 -246.0 365.0 -217.0ZM0.0 -440.0V-471.0L364.0 -470.0L363.0 -442.0ZM-20.0 211.0V-542.0H10.0V182.0H350.0V-529.0H379.0V211.0ZM175.0 351.0C160.0 306.0 130.0 237.0 109.0 197.0L133.0 188.0C157.0 231.0 182.0 291.0 204.0 342.0Z"/></g>
<g fill="red" transform="translate(1600 300) scale(0.1 -0.1)"><path d="M0.0 0.0V-134.0H325.0V0.0ZM0.0 -201.0V-335.0H325.0V-201.0ZM0.0 -406.0V-544.0H343.0V-406.0ZM-55.0 203.0V-598.0H81.0V65.0H256.0V-590.0H399.0V203.0ZM112.0 331.0C107.0 277.0 92.0 206.0 78.0 155.0L219.0 135.0C237.0 179.0 258.0 243.0 279.0 314.0Z"/></g>
<g fill="black" opacity=".8" transform="translate(1600 300) scale(0.1 -0.1)"><path d="M0.0 0.0V-132.0L324.0 -133.0L323.0 1.0ZM1.0 -201.0V-335.0L324.0 -334.0V-203.0ZM-0.0 -408.0V-544.0L342.0 -543.0V-408.0ZM-55.0 203.0V-599.0H82.0V66.0H257.0V-590.0H399.0V203.0ZM113.0 333.0C108.0 279.0 93.0 206.0 78.0 155.0L218.0 134.0C237.0 179.0 257.0 244.0 279.0 314.0Z"/></g>
<g fill="red" transform="translate(100 400) scale(0.1 -0.1)"><path d="M0.0 0.0V-30.0H587.0V0.0ZM0.0 -170.0V-199.0H587.0V-170.0ZM0.0 -342.0V-372.0H592.0V-342.0ZM-21.0 166.0V-439.0H9.0V137.0H577.0V-439.0H607.0V166.0ZM278.0 313.0C270.0 266.0 253.0 193.0 238.0 149.0L266.0 141.0C280.0 184.0 295.0 251.0 310.0 304.0Z"/></g>
<g fill="black" opacity=".8" transform="translate(100 400) scale(0.1 -0.1)"><path d="M0.0 0.0 -2.0 -29.0 588.0 -30.0V0.0ZM-0.0 -172.0 -1.0 -202.0 586.0 -201.0 587.0 -172.0ZM1.0 -348.0 -2.0 -379.0 590.0 -378.0 592.0 -348.0ZM-21.0 165.0V-437.0H10.0V136.0H581.0V-437.0H609.0V165.0ZM280.0 311.0C272.0 264.0 253.0 192.0 239.0 149.0L265.0 141.0C280.0 184.0 295.0 250.0 311.0 301.0Z"/></g>
<g fill="red" transform="translate(200 400) scale(0.1 -0.1)"><path d="M0.0 0.0V-109.0H491.0V0.0ZM0.0 -153.0V-262.0H491.0V-153.0ZM0.0 -309.0V-434.0H491.0V-309.0ZM-118.0 165.0V-475.0H27.0V40.0H453.0V-475.0H605.0V165.0ZM171.0 260.0C163.0 213.0 146.0 152.0 128.0 105.0L270.0 90.0C295.0 132.0 332.0 191.0 358.0 258.0Z"/></g>
<g fill="black" opacity=".8" transform="translate(200 400) scale(0.1 -0.1)"><path d="M0.0 0.0 -1.0 -107.0H491.0V0.0ZM-0.0 -151.0 -2.0 -261.0 491.0 -260.0V-152.0ZM-1.0 -308.0V-431.0L493.0 -430.0V-307.0ZM-115.0 164.0V-475.0H29.0V41.0H450.0V-474.0H599.0V164.0ZM173.0 264.0C165.0 214.0 149.0 149.0 130.0 100.0L268.0 84.0C295.0 129.0 332.0 192.0 359.0 260.0Z"/></g>
<g fill="red" transform="translate(300 400) scale(0.1 -0.1)"><path d="M0.0 0.0V-29.0H419.0V0.0ZM-1.0 -210.0V-240.0H417.0V-210.0ZM0.0 -436.0V-465.0H419.0V-436.0ZM-14.0 219.0V-542.0H15.0V190.0H403.0V-542.0H433.0V219.0ZM181.0 355.0C166.0 312.0 138.0 247.0 116.0 207.0L143.0 196.0C165.0 236.0 190.0 293.0 211.0 344.0Z"/></g>
<g fill="black" opacity=".8" transform="translate(300 400) scale(0.1 -0.1)"><path d="M0.0 0.0 -4.0 -28.0H420.0L423.0 1.0ZM-2.0 -214.0 -5.0 -242.0 416.0 -241.0 419.0 -213.0ZM-1.0 -438.0 -5.0 -468.0 415.0 -466.0 418.0 -438.0ZM-12.0 214.0V-540.0H14.0V189.0H407.0V-540.0H433.0V214.0ZM187.0 356.0C172.0 311.0 142.0 243.0 120.0 202.0L145.0 192.0C168.0 234.0 194.0 293.0 215.0 346.0Z"/></g>
<g fill="red" transform="translate(400 400) scale(0.1 -0.1)"><path d="M0.0 0.0V-127.0H395.0V0.0ZM0.0 -211.0V-338.0H395.0V-211.0ZM0.0 -423.0V-557.0H395.0V-423.0ZM-60.0 213.0V-597.0H71.0V79.0H325.0V-597.0H463.0V213.0ZM93.0 348.0C90.0 280.0 77.0 187.0 65.0 126.0L195.0 111.0C209.0 167.0 225.0 250.0 241.0 335.0Z"/></g>
<g fill="black" opacity=".8" transform="translate(400 400) scale(0.1 -0.1)"><path d="M0.0 0.0 -2.0 -127.0H396.0L398.0 1.0ZM-0.0 -210.0 -3.0 -339.0 394.0 -337.0 397.0 -211.0ZM-0.0 -422.0 -2.0 -555.0 400.0 -554.0 401.0 -421.0ZM-53.0 210.0V-601.0H76.0V80.0H318.0V-598.0H451.0V210.0ZM97.0 351.0C93.0 282.0 79.0 187.0 65.0 125.0L189.0 108.0C206.0 166.0 225.0 251.0 243.0 336.0Z"/></g>
<g fill="red" transform="translate(500 400) scale(0.1 -0.1)"><path d="M0.0 0.0V-30.0H539.0V0.0ZM0.0 -147.0V-177.0H543.0V-147.0ZM-2.0 -299.0V-329.0H541.0V-299.0ZM-16.0 150.0V-394.0H13.0V120.0H523.0V-389.0H552.0V150.0ZM233.0 248.0C221.0 215.0 197.0 163.0 179.0 130.0L205.0 123.0C224.0 153.0 246.0 199.0 265.0 240.0Z"/></g>
<g fill="black" opacity=".8" transform="translate(500 400) scale(0.1 -0.1)"><path d="M0.0 0.0 -1.0 -29.0 538.0 -30.0 539.0 0.0ZM-0.0 -147.0V-178.0L543.0 -177.0V-147.0ZM-1.0 -299.0 -3.0 -329.0H539.0L540.0 -299.0ZM-16.0 149.0V-394.0H13.0V120.0H524.0V-389.0H552.0V149.0ZM234.0 249.0C223.0 215.0 197.0 161.0 180.0 128.0L205.0 122.0C225.0 153.0 247.0 199.0 266.0 241.0Z"/></g>
<g fill="red" transform="translate(600 400) scale(0.1 -0.1)"><path d="M0.0 0.0V-91.0H424.0V0.0ZM0.0 -125.0V-216.0H424.0V-125.0ZM-17.0 -254.0V-366.0H425.0V-254.0ZM-94.0 148.0V-402.0H45.0V36.0H373.0V-397.0H519.0V148.0ZM126.0 242.0C119.0 207.0 105.0 158.0 92.0 122.0L208.0 106.0C224.0 137.0 246.0 180.0 268.0 229.0Z"/></g>
<g fill="black" opacity=".8" transform="translate(600 400) scale(0.1 -0.1)"><path d="M0.0 0.0 -1.0 -92.0 424.0 -91.0 425.0 1.0ZM1.0 -125.0 0.0 -216.0H424.0L425.0 -125.0ZM-16.0 -254.0V-366.0L427.0 -365.0L428.0 -253.0ZM-94.0 148.0V-404.0H45.0V35.0H373.0V-397.0H517.0V148.0ZM126.0 241.0C119.0 207.0 104.0 159.0 90.0 124.0L206.0 107.0C223.0 138.0 246.0 179.0 270.0 227.0Z"/></g>
<g fill="red" transform="translate(700 400) scale(0.1 -0.1)"><path d="M0.0 0.0V-29.0H305.0V0.0ZM-19.0 213.0V-546.0H11.0V213.0ZM0.0 -216.0V-246.0H301.0V-216.0ZM-4.0 213.0V184.0H285.0V-432.0H-4.0V-461.0H314.0V213.0ZM151.0 345.0C137.0 303.0 110.0 237.0 90.0 197.0L115.0 189.0C137.0 230.0 159.0 287.0 179.0 337.0Z"/></g>
<g fill="black" opacity=".8" transform="translate(700 400) scale(0.1 -0.1)"><path d="M0.0 0.0 -1.0 -28.0 305.0 -30.0V0.0ZM-19.0 213.0V-546.0H12.0L11.0 213.0ZM0.0 -216.0V-246.0H300.0V-216.0ZM-4.0 213.0V184.0H284.0V-432.0H-3.0V-461.0H314.0V213.0ZM151.0 345.0C138.0 303.0 110.0 236.0 90.0 197.0L115.0 188.0C136.0 230.0 159.0 287.0 179.0 337.0Z"/></g>
<g fill="red" transform="translate(800 400) scale(0.1 -0.1)"><path d="M0.0 0.0V-134.0H265.0V0.0ZM-54.0 203.0V-612.0H78.0V203.0ZM0.0 -201.0V-335.0H260.0V-201.0ZM30.0 203.0V65.0H193.0V-407.0H30.0V-545.0H329.0V203.0ZM84.0 331.0C79.0 277.0 65.0 206.0 51.0 155.0L189.0 135.0C207.0 179.0 227.0 243.0 248.0 314.0Z"/></g>
<g fill="black" opacity=".8" transform="translate(800 400) scale(0.1 -0.1)"><path d="M0.0 0.0V-133.0L265.0 -134.0L264.0 1.0ZM-53.0 204.0 -54.0 -612.0 77.0 -611.0 78.0 202.0ZM-0.0 -202.0V-335.0L260.0 -334.0V-202.0ZM29.0 204.0V65.0H194.0V-407.0H31.0V-544.0H329.0V204.0ZM83.0 331.0C79.0 277.0 64.0 205.0 50.0 155.0L189.0 135.0C208.0 179.0 227.0 243.0 248.0 313.0Z"/></g>
<g fill="red" transform="translate(900 400) scale(0.1 -0.1)"><path d="M0.0 0.0V-29.0H269.0V0.0ZM0.0 -151.0V-180.0H269.0V-151.0ZM0.0 -303.0V-332.0H269.0V-303.0ZM-14.0 149.0V-399.0H15.0V120.0H254.0V-388.0H283.0V149.0ZM117.0 289.0C105.0 245.0 80.0 174.0 61.0 132.0L86.0 126.0C107.0 169.0 128.0 231.0 147.0 283.0Z"/></g>
<g fill="black" opacity=".8" transform="translate(900 400) scale(0.1 -0.1)"><path d="M0.0 0.0V-28.0L271.0 -29.0V-0.0ZM-1.0 -151.0 -0.0 -181.0H270.0L269.0 -151.0ZM0.0 -306.0V-336.0H269.0V-307.0ZM-14.0 150.0V-397.0H15.0V121.0H255.0V-388.0H284.0V150.0ZM117.0 288.0C105.0 244.0 79.0 175.0 60.0 135.0L85.0 127.0C106.0 170.0 127.0 229.0 146.0 280.0Z"/></g>
<g fill="red" transform="translate(1000 400) scale(0.1 -0.1)"><path d="M0.0 0.0V-99.0H230.0V0.0ZM0.0 -138.0V-237.0H230.0V-138.0ZM0.0 -278.0V-386.0H230.0V-278.0ZM-57.0 145.0V-427.0H69.0V37.0H158.0V-416.0H291.0V145.0ZM53.0 245.0C45.0 196.0 27.0 128.0 11.0 83.0L120.0 56.0C138.0 96.0 160.0 156.0 183.0 217.0Z"/></g>
<g fill="black" opacity=".8" transform="translate(1000 400) scale(0.1 -0.1)"><path d="M0.0 0.0V-96.0H229.0V0.0ZM0.0 -138.0V-236.0L228.0 -235.0V-138.0ZM-1.0 -278.0V-384.0H227.0V-278.0ZM-56.0 145.0V-426.0H70.0V39.0H157.0V-415.0H290.0V145.0ZM53.0 249.0C47.0 198.0 30.0 125.0 15.0 77.0L123.0 51.0C140.0 94.0 160.0 157.0 182.0 221.0Z"/></g>
</svg>
