<?xml version="1.0" encoding="UTF-8"?>
<svg width="1700" height="300" xmlns="http://www.w3.org/2000/svg">
<rect width="100%" height="100%" fill="white"/>
<g fill="green" transform="translate(100 100) scale(0.1 -0.1)"><path d="M-0.0 0.0H121.0V-163.0H0.0ZM-153.0 0.0H-34.0V-163.0H-153.0ZM-300.0 0.0H-186.0V-163.0H-300.0ZM-332.0 32.0V-197.0H154.0V32.0ZM-272.0 -311.0 -275.0 -343.0H147.0V-311.0ZM-283.0 -484.0H-2.0V-617.0H-283.0ZM51.0 49.0V94.0H485.0V-117.0H36.0V-339.0H518.0V49.0ZM-162.0 -366.0V-794.0H-130.0V-366.0ZM-334.0 -801.0 -330.0 -835.0C-236.0 -822.0 -109.0 -805.0 19.0 -786.0V-754.0C-115.0 -773.0 -246.0 -790.0 -334.0 -801.0ZM131.0 -311.0V-320.0C122.0 -716.0 110.0 -853.0 88.0 -881.0C79.0 -894.0 71.0 -895.0 55.0 -895.0C39.0 -895.0 -6.0 -895.0 -55.0 -890.0C-49.0 -900.0 -46.0 -914.0 -45.0 -923.0C-4.0 -926.0 37.0 -927.0 61.0 -926.0C86.0 -925.0 103.0 -920.0 117.0 -902.0C145.0 -865.0 154.0 -743.0 163.0 -335.0C163.0 -328.0 163.0 -311.0 163.0 -311.0ZM-228.0 -191.0C-263.0 -279.0 -319.0 -367.0 -381.0 -428.0C-371.0 -432.0 -357.0 -441.0 -352.0 -447.0C-292.0 -384.0 -233.0 -292.0 -197.0 -199.0ZM256.0 -660.0C268.0 -718.0 278.0 -792.0 278.0 -839.0L311.0 -835.0C310.0 -786.0 300.0 -712.0 286.0 -656.0Z"/></g>
<g fill="green" transform="translate(200 100) scale(0.1 -0.1)"><path d="M0.0 0.0H36.0V-86.0H0.0ZM-123.0 0.0H-88.0V-86.0H-123.0ZM-246.0 0.0H-211.0V-86.0H-246.0ZM-360.0 107.0V-194.0H156.0V107.0ZM-256.0 -238.0 -267.0 -358.0H100.0V-238.0ZM-250.0 -504.0H-75.0V-562.0H-250.0ZM101.0 153.0V79.0H440.0V19.0H47.0V-329.0H573.0V153.0ZM-215.0 -379.0V-757.0L-113.0 -752.0V-379.0ZM-356.0 -725.0 -342.0 -845.0C-257.0 -832.0 -154.0 -817.0 -52.0 -799.0L-56.0 -693.0C-167.0 -706.0 -277.0 -719.0 -356.0 -725.0ZM47.0 -238.0V-267.0C43.0 -616.0 37.0 -732.0 24.0 -758.0C15.0 -772.0 6.0 -776.0 -6.0 -776.0C-19.0 -776.0 -38.0 -775.0 -62.0 -773.0C-43.0 -812.0 -30.0 -871.0 -28.0 -914.0C10.0 -915.0 44.0 -913.0 68.0 -906.0C96.0 -900.0 115.0 -888.0 136.0 -855.0C162.0 -814.0 168.0 -667.0 174.0 -296.0C175.0 -279.0 175.0 -238.0 175.0 -238.0ZM-287.0 -153.0C-309.0 -227.0 -352.0 -299.0 -408.0 -345.0C-380.0 -366.0 -331.0 -413.0 -312.0 -438.0C-248.0 -378.0 -192.0 -283.0 -162.0 -185.0ZM240.0 -654.0C250.0 -711.0 254.0 -785.0 250.0 -832.0L336.0 -820.0C338.0 -773.0 333.0 -700.0 321.0 -644.0Z"/></g>
<g fill="green" transform="translate(300 100) scale(0.1 -0.1)"><path d="M0.0 0.0H109.0V-149.0H0.0ZM-138.0 0.0H-31.0V-149.0H-138.0ZM-271.0 0.0H-169.0V-149.0H-271.0ZM-301.0 29.0V-180.0H139.0V29.0ZM-248.0 -284.0 -250.0 -313.0H134.0V-284.0ZM-257.0 -441.0H-2.0V-562.0H-257.0ZM87.0 64.0V117.0H504.0V-66.0H71.0V-298.0H534.0V64.0ZM-147.0 -334.0V-722.0L-118.0 -723.0V-334.0ZM-302.0 -730.0 -298.0 -761.0C-213.0 -748.0 -98.0 -733.0 18.0 -715.0V-686.0C-104.0 -703.0 -222.0 -719.0 -302.0 -730.0ZM119.0 -284.0V-292.0C110.0 -652.0 99.0 -777.0 79.0 -802.0C71.0 -814.0 64.0 -815.0 49.0 -815.0C35.0 -815.0 -6.0 -815.0 -51.0 -810.0C-46.0 -820.0 -43.0 -832.0 -42.0 -840.0C-5.0 -843.0 33.0 -844.0 55.0 -843.0C78.0 -842.0 93.0 -838.0 106.0 -821.0C131.0 -788.0 140.0 -677.0 148.0 -306.0C148.0 -300.0 148.0 -284.0 148.0 -284.0ZM-207.0 -175.0C-239.0 -254.0 -289.0 -334.0 -345.0 -389.0C-336.0 -393.0 -323.0 -401.0 -319.0 -407.0C-265.0 -349.0 -212.0 -266.0 -179.0 -182.0ZM251.0 -599.0C261.0 -652.0 268.0 -720.0 267.0 -763.0L298.0 -760.0C298.0 -715.0 290.0 -647.0 279.0 -596.0Z"/></g>
<g fill="green" transform="translate(400 100) scale(0.1 -0.1)"><path d="M0.0 0.0H33.0V-79.0H0.0ZM-111.0 0.0H-79.0V-79.0H-111.0ZM-222.0 0.0H-190.0V-79.0H-222.0ZM-325.0 97.0V-177.0H142.0V97.0ZM-232.0 -217.0 -239.0 -326.0H93.0V-217.0ZM-226.0 -459.0H-66.0V-511.0H-226.0ZM139.0 163.0V102.0H465.0V64.0H81.0V-289.0H587.0V163.0ZM-193.0 -346.0V-688.0L-101.0 -685.0V-346.0ZM-321.0 -659.0 -309.0 -769.0C-232.0 -757.0 -139.0 -744.0 -47.0 -727.0L-50.0 -630.0C-150.0 -642.0 -250.0 -654.0 -321.0 -659.0ZM44.0 -217.0V-244.0C40.0 -560.0 35.0 -665.0 23.0 -689.0C15.0 -702.0 6.0 -705.0 -5.0 -705.0C-16.0 -705.0 -34.0 -704.0 -56.0 -703.0C-38.0 -738.0 -26.0 -793.0 -24.0 -832.0C10.0 -833.0 41.0 -831.0 63.0 -825.0C88.0 -819.0 105.0 -808.0 124.0 -778.0C148.0 -741.0 153.0 -607.0 159.0 -270.0C160.0 -255.0 160.0 -217.0 160.0 -217.0ZM-260.0 -141.0C-279.0 -207.0 -317.0 -272.0 -368.0 -313.0C-342.0 -333.0 -298.0 -375.0 -281.0 -398.0C-223.0 -344.0 -173.0 -258.0 -147.0 -169.0ZM239.0 -594.0C248.0 -646.0 251.0 -715.0 247.0 -758.0L325.0 -748.0C327.0 -704.0 323.0 -637.0 313.0 -585.0Z"/></g>
<g fill="green" transform="translate(500 100) scale(0.1 -0.1)"><path d="M0.0 0.0H133.0V-138.0H0.0ZM-161.0 0.0H-31.0V-138.0H-161.0ZM-317.0 0.0H-191.0V-138.0H-317.0ZM-347.0 29.0V-169.0H164.0V29.0ZM-264.0 -266.0 -281.0 -295.0H156.0V-266.0ZM-283.0 -431.0H4.0V-551.0H-283.0ZM-750.0 -144.0V-185.0H-531.0V-478.0H-748.0V-480.0H-500.0V-144.0ZM-156.0 -324.0V-720.0L-126.0 -717.0V-324.0ZM-340.0 -710.0 -337.0 -741.0C-241.0 -736.0 -112.0 -727.0 18.0 -717.0V-688.0C-116.0 -698.0 -249.0 -704.0 -340.0 -710.0ZM145.0 -266.0V-275.0C135.0 -645.0 124.0 -773.0 101.0 -801.0C93.0 -812.0 83.0 -813.0 68.0 -813.0C51.0 -813.0 2.0 -813.0 -51.0 -808.0C-45.0 -817.0 -43.0 -830.0 -42.0 -838.0C4.0 -842.0 48.0 -843.0 72.0 -842.0C98.0 -841.0 114.0 -837.0 127.0 -820.0C156.0 -786.0 165.0 -664.0 174.0 -288.0C174.0 -282.0 174.0 -266.0 174.0 -266.0ZM-222.0 -157.0C-263.0 -250.0 -331.0 -339.0 -403.0 -399.0C-395.0 -404.0 -382.0 -414.0 -378.0 -419.0C-307.0 -356.0 -236.0 -263.0 -191.0 -164.0ZM-72.0 -621.0C-44.0 -666.0 -11.0 -727.0 1.0 -765.0L31.0 -753.0C16.0 -714.0 -15.0 -656.0 -46.0 -612.0Z"/></g>
<g fill="green" transform="translate(600 100) scale(0.1 -0.1)"><path d="M0.0 0.0H40.0V-57.0H0.0ZM-134.0 0.0H-96.0V-57.0H-134.0ZM-268.0 0.0H-231.0V-57.0H-268.0ZM-380.0 104.0V-162.0H157.0V104.0ZM-248.0 -201.0 -314.0 -323.0H85.0V-201.0ZM-260.0 -455.0H-90.0V-496.0H-260.0ZM-788.0 -56.0V-184.0H-610.0V-370.0H-780.0V-460.0H-503.0V-56.0ZM-226.0 -333.0V-688.0L-126.0 -662.0V-333.0ZM-359.0 -641.0 -346.0 -749.0C-261.0 -741.0 -156.0 -732.0 -52.0 -720.0L-53.0 -626.0C-166.0 -632.0 -279.0 -639.0 -359.0 -641.0ZM37.0 -201.0V-230.0C32.0 -560.0 25.0 -669.0 10.0 -693.0C2.0 -708.0 -7.0 -711.0 -19.0 -711.0C-33.0 -711.0 -52.0 -711.0 -75.0 -708.0C-57.0 -743.0 -44.0 -795.0 -42.0 -832.0C-2.0 -833.0 33.0 -832.0 58.0 -825.0C86.0 -820.0 108.0 -809.0 128.0 -777.0C154.0 -737.0 162.0 -607.0 170.0 -257.0C170.0 -241.0 171.0 -201.0 171.0 -201.0ZM-291.0 -123.0C-319.0 -205.0 -374.0 -283.0 -442.0 -332.0C-412.0 -352.0 -363.0 -397.0 -342.0 -421.0C-267.0 -359.0 -200.0 -260.0 -162.0 -154.0ZM-135.0 -603.0C-122.0 -648.0 -110.0 -708.0 -110.0 -746.0L-26.0 -726.0C-28.0 -689.0 -41.0 -631.0 -56.0 -587.0Z"/></g>
<g fill="green" transform="translate(700 100) scale(0.1 -0.1)"><path d="M0.0 0.0H110.0V-161.0H0.0ZM-139.0 0.0H-32.0V-161.0H-139.0ZM-274.0 0.0H-172.0V-161.0H-274.0ZM-305.0 31.0V-194.0H141.0V31.0ZM-248.0 -307.0 -249.0 -338.0H123.0V-307.0ZM-268.0 -487.0H-10.0V-621.0H-268.0ZM231.0 -104.0V-200.0H446.0V-464.0H243.0V-338.0H477.0V-104.0ZM-159.0 -356.0V-791.0H-126.0V-356.0ZM-331.0 -804.0 -324.0 -836.0C-236.0 -821.0 -114.0 -802.0 7.0 -784.0V-753.0C-122.0 -772.0 -248.0 -792.0 -331.0 -804.0ZM112.0 -307.0V-317.0C103.0 -704.0 92.0 -838.0 73.0 -864.0C66.0 -877.0 61.0 -878.0 47.0 -878.0C34.0 -878.0 5.0 -878.0 -29.0 -875.0C-24.0 -884.0 -20.0 -898.0 -19.0 -906.0C6.0 -908.0 33.0 -909.0 53.0 -908.0C74.0 -908.0 89.0 -902.0 102.0 -885.0C125.0 -849.0 133.0 -735.0 143.0 -331.0C143.0 -324.0 143.0 -307.0 143.0 -307.0ZM-210.0 -189.0C-239.0 -273.0 -286.0 -357.0 -342.0 -414.0C-333.0 -418.0 -318.0 -427.0 -313.0 -433.0C-261.0 -373.0 -209.0 -286.0 -180.0 -196.0ZM268.0 -661.0C283.0 -720.0 296.0 -793.0 300.0 -841.0L330.0 -835.0C327.0 -788.0 313.0 -713.0 297.0 -657.0Z"/></g>
<g fill="green" transform="translate(800 100) scale(0.1 -0.1)"><path d="M0.0 0.0H27.0V-90.0H0.0ZM-116.0 0.0H-88.0V-90.0H-116.0ZM-231.0 0.0H-202.0V-90.0H-231.0ZM-340.0 103.0V-193.0H143.0V103.0ZM-254.0 -240.0 -253.0 -347.0H75.0V-240.0ZM-245.0 -504.0H-91.0V-578.0H-245.0ZM254.0 -68.0V-200.0H403.0V-426.0H299.0V-332.0H535.0V-68.0ZM-219.0 -368.0V-762.0H-118.0V-368.0ZM-366.0 -746.0 -346.0 -857.0C-262.0 -839.0 -160.0 -819.0 -60.0 -796.0L-66.0 -702.0C-178.0 -719.0 -289.0 -736.0 -366.0 -746.0ZM37.0 -240.0V-268.0C33.0 -622.0 30.0 -737.0 17.0 -762.0C9.0 -776.0 1.0 -780.0 -8.0 -780.0C-20.0 -780.0 -36.0 -779.0 -56.0 -778.0C-40.0 -810.0 -29.0 -862.0 -27.0 -897.0C6.0 -898.0 36.0 -897.0 58.0 -890.0C83.0 -884.0 102.0 -875.0 120.0 -842.0C143.0 -804.0 148.0 -668.0 152.0 -294.0C154.0 -279.0 153.0 -240.0 153.0 -240.0ZM-271.0 -145.0C-296.0 -214.0 -338.0 -284.0 -390.0 -329.0C-365.0 -350.0 -321.0 -397.0 -305.0 -422.0C-246.0 -363.0 -189.0 -269.0 -156.0 -179.0ZM260.0 -664.0C270.0 -715.0 276.0 -782.0 276.0 -825.0L361.0 -806.0C360.0 -764.0 352.0 -698.0 341.0 -648.0Z"/></g>
<g fill="red" transform="translate(100 200) scale(0.1 -0.1)"><path d="M0.0 0.0H128.0V-136.0H0.0ZM-156.0 0.0H-30.0V-136.0H-156.0ZM-306.0 0.0H-185.0V-136.0H-306.0ZM-335.0 29.0V-166.0H158.0V29.0ZM-257.0 -262.0 -272.0 -291.0H150.0V-262.0ZM-274.0 -422.0H4.0V-540.0H-274.0ZM-654.0 -119.0V-148.0H-418.0V-423.0H-654.0V-452.0H-388.0V-119.0ZM-152.0 -318.0V-705.0L-123.0 -702.0V-318.0ZM-329.0 -696.0 -326.0 -727.0C-233.0 -721.0 -108.0 -712.0 18.0 -701.0V-673.0C-112.0 -683.0 -241.0 -691.0 -329.0 -696.0ZM139.0 -262.0V-270.0C130.0 -632.0 119.0 -757.0 97.0 -784.0C89.0 -795.0 79.0 -796.0 65.0 -796.0C48.0 -796.0 1.0 -796.0 -50.0 -791.0C-44.0 -800.0 -42.0 -812.0 -41.0 -821.0C3.0 -824.0 46.0 -825.0 69.0 -824.0C94.0 -823.0 110.0 -819.0 122.0 -802.0C150.0 -769.0 159.0 -651.0 168.0 -283.0C168.0 -278.0 168.0 -262.0 168.0 -262.0ZM-216.0 -155.0C-255.0 -245.0 -320.0 -331.0 -389.0 -390.0C-381.0 -394.0 -369.0 -404.0 -364.0 -409.0C-296.0 -348.0 -229.0 -257.0 -186.0 -163.0ZM-39.0 -606.0C-13.0 -650.0 16.0 -710.0 27.0 -748.0L56.0 -737.0C43.0 -699.0 15.0 -641.0 -13.0 -597.0Z"/></g>
<g fill="black" opacity=".8" transform="translate(100 200) scale(0.1 -0.1)"><path d="M0.0 0.0H128.0V-136.0H0.0ZM-155.0 0.0H-30.0V-136.0H-155.0ZM-306.0 0.0H-185.0V-136.0H-306.0ZM-335.0 28.0V-166.0H158.0V28.0ZM-257.0 -262.0 -272.0 -290.0H151.0V-262.0ZM-275.0 -423.0H3.0V-540.0H-275.0ZM-654.0 -119.0V-148.0H-418.0V-423.0H-654.0V-452.0H-388.0V-119.0ZM-152.0 -318.0V-704.0L-123.0 -702.0V-318.0ZM-329.0 -697.0 -326.0 -727.0C-233.0 -721.0 -108.0 -712.0 18.0 -701.0V-673.0C-112.0 -683.0 -241.0 -690.0 -329.0 -697.0ZM140.0 -262.0V-271.0C130.0 -632.0 119.0 -757.0 97.0 -784.0C89.0 -795.0 79.0 -796.0 65.0 -796.0C48.0 -796.0 1.0 -796.0 -50.0 -791.0C-44.0 -800.0 -42.0 -812.0 -41.0 -820.0C3.0 -824.0 46.0 -825.0 69.0 -824.0C94.0 -823.0 110.0 -819.0 122.0 -802.0C150.0 -769.0 159.0 -651.0 168.0 -284.0C168.0 -278.0 168.0 -262.0 168.0 -262.0ZM-216.0 -155.0C-255.0 -245.0 -320.0 -331.0 -389.0 -389.0C-381.0 -394.0 -368.0 -404.0 -365.0 -409.0C-297.0 -348.0 -229.0 -258.0 -186.0 -162.0ZM-39.0 -605.0C-13.0 -650.0 16.0 -711.0 27.0 -748.0L56.0 -737.0C43.0 -699.0 15.0 -641.0 -13.0 -597.0Z"/></g>
<g fill="red" transform="translate(200 200) scale(0.1 -0.1)"><path d="M0.0 0.0H39.0V-58.0H0.0ZM-129.0 0.0H-92.0V-58.0H-129.0ZM-258.0 0.0H-222.0V-58.0H-258.0ZM-366.0 101.0V-160.0H152.0V101.0ZM-241.0 -199.0 -300.0 -316.0H84.0V-199.0ZM-251.0 -446.0H-85.0V-486.0H-251.0ZM-682.0 -31.0V-149.0H-492.0V-315.0H-682.0V-433.0H-385.0V-31.0ZM-218.0 -327.0V-673.0L-121.0 -650.0V-327.0ZM-347.0 -629.0 -335.0 -735.0C-252.0 -727.0 -151.0 -717.0 -50.0 -706.0L-51.0 -612.0C-161.0 -619.0 -270.0 -626.0 -347.0 -629.0ZM37.0 -199.0V-226.0C32.0 -547.0 25.0 -654.0 11.0 -678.0C3.0 -692.0 -5.0 -695.0 -17.0 -695.0C-31.0 -695.0 -49.0 -695.0 -72.0 -692.0C-54.0 -726.0 -41.0 -778.0 -39.0 -814.0C-1.0 -815.0 33.0 -814.0 57.0 -808.0C85.0 -802.0 105.0 -791.0 125.0 -760.0C150.0 -721.0 158.0 -594.0 165.0 -253.0C165.0 -237.0 166.0 -199.0 166.0 -199.0ZM-282.0 -122.0C-308.0 -201.0 -361.0 -276.0 -425.0 -323.0C-397.0 -343.0 -349.0 -386.0 -328.0 -409.0C-257.0 -350.0 -193.0 -254.0 -157.0 -152.0ZM-96.0 -589.0C-83.0 -634.0 -73.0 -693.0 -73.0 -731.0L9.0 -713.0C7.0 -676.0 -4.0 -618.0 -19.0 -574.0Z"/></g>
<g fill="black" opacity=".8" transform="translate(200 200) scale(0.1 -0.1)"><path d="M0.0 0.0H39.0V-58.0H0.0ZM-129.0 0.0H-92.0V-58.0H-129.0ZM-258.0 0.0H-222.0V-58.0H-258.0ZM-367.0 101.0V-160.0H152.0V101.0ZM-241.0 -198.0 -300.0 -316.0H84.0V-198.0ZM-251.0 -446.0H-86.0V-486.0H-251.0ZM-682.0 -31.0V-149.0H-491.0V-314.0H-682.0V-433.0H-385.0V-31.0ZM-218.0 -327.0V-673.0L-121.0 -650.0V-327.0ZM-347.0 -628.0 -335.0 -734.0C-252.0 -726.0 -151.0 -717.0 -50.0 -705.0L-51.0 -613.0C-161.0 -619.0 -270.0 -626.0 -347.0 -628.0ZM37.0 -198.0V-226.0C32.0 -548.0 26.0 -654.0 11.0 -677.0C3.0 -692.0 -6.0 -695.0 -17.0 -695.0C-31.0 -695.0 -49.0 -695.0 -72.0 -692.0C-54.0 -726.0 -41.0 -778.0 -39.0 -814.0C-1.0 -815.0 33.0 -814.0 57.0 -807.0C84.0 -802.0 105.0 -791.0 125.0 -760.0C150.0 -721.0 158.0 -594.0 166.0 -253.0C166.0 -237.0 167.0 -198.0 167.0 -198.0ZM-282.0 -122.0C-308.0 -201.0 -360.0 -276.0 -425.0 -323.0C-396.0 -343.0 -349.0 -386.0 -329.0 -410.0C-257.0 -350.0 -193.0 -254.0 -157.0 -152.0ZM-96.0 -589.0C-83.0 -634.0 -73.0 -693.0 -73.0 -731.0L9.0 -713.0C7.0 -675.0 -5.0 -618.0 -19.0 -574.0Z"/></g>
<g fill="red" transform="translate(300 200) scale(0.1 -0.1)"><path d="M0.0 0.0H103.0V-148.0H0.0ZM-131.0 0.0H-30.0V-148.0H-131.0ZM-256.0 0.0H-160.0V-148.0H-256.0ZM-285.0 29.0V-178.0H132.0V29.0ZM-234.0 -282.0V-311.0H119.0V-282.0ZM-248.0 -442.0H-6.0V-564.0H-248.0ZM192.0 -25.0V-54.0H481.0V-268.0H192.0V-297.0H510.0V-25.0ZM-145.0 -328.0V-721.0H-116.0V-328.0ZM-300.0 -731.0 -295.0 -761.0C-213.0 -748.0 -101.0 -731.0 11.0 -714.0V-685.0C-108.0 -703.0 -223.0 -721.0 -300.0 -731.0ZM107.0 -282.0V-290.0C99.0 -645.0 89.0 -768.0 71.0 -792.0C64.0 -804.0 58.0 -805.0 45.0 -805.0C32.0 -805.0 0.0 -805.0 -36.0 -802.0C-31.0 -810.0 -28.0 -823.0 -27.0 -831.0C1.0 -833.0 31.0 -834.0 50.0 -833.0C71.0 -832.0 85.0 -827.0 97.0 -811.0C120.0 -778.0 127.0 -672.0 136.0 -303.0C136.0 -297.0 136.0 -282.0 136.0 -282.0ZM-197.0 -174.0C-225.0 -251.0 -270.0 -328.0 -322.0 -381.0C-314.0 -385.0 -301.0 -393.0 -296.0 -398.0C-246.0 -343.0 -198.0 -262.0 -169.0 -181.0ZM258.0 -600.0C270.0 -653.0 279.0 -720.0 280.0 -764.0L309.0 -760.0C308.0 -716.0 298.0 -648.0 285.0 -596.0Z"/></g>
<g fill="black" opacity=".8" transform="translate(300 200) scale(0.1 -0.1)"><path d="M0.0 0.0H103.0V-148.0H0.0ZM-130.0 0.0H-30.0V-148.0H-130.0ZM-256.0 0.0H-161.0V-148.0H-256.0ZM-285.0 28.0V-178.0H131.0V28.0ZM-234.0 -282.0 -235.0 -310.0H120.0V-282.0ZM-248.0 -443.0H-7.0V-564.0H-248.0ZM192.0 -25.0V-55.0H481.0V-269.0H192.0V-297.0H510.0V-25.0ZM-145.0 -328.0V-720.0L-116.0 -721.0V-328.0ZM-300.0 -732.0 -294.0 -762.0C-213.0 -747.0 -101.0 -731.0 11.0 -714.0V-685.0C-108.0 -702.0 -223.0 -720.0 -300.0 -732.0ZM108.0 -282.0V-290.0C99.0 -645.0 88.0 -768.0 70.0 -792.0C63.0 -804.0 58.0 -805.0 44.0 -805.0C32.0 -805.0 0.0 -805.0 -36.0 -801.0C-31.0 -811.0 -28.0 -823.0 -27.0 -830.0C1.0 -832.0 31.0 -833.0 50.0 -832.0C71.0 -832.0 85.0 -827.0 97.0 -811.0C119.0 -779.0 128.0 -672.0 136.0 -304.0C136.0 -298.0 136.0 -282.0 136.0 -282.0ZM-196.0 -174.0C-225.0 -250.0 -270.0 -328.0 -322.0 -381.0C-314.0 -385.0 -300.0 -393.0 -296.0 -399.0C-247.0 -343.0 -198.0 -262.0 -169.0 -180.0ZM258.0 -600.0C270.0 -653.0 279.0 -721.0 280.0 -764.0L309.0 -760.0C308.0 -716.0 298.0 -648.0 285.0 -597.0Z"/></g>
<g fill="red" transform="translate(400 200) scale(0.1 -0.1)"><path d="M0.0 0.0H28.0V-82.0H0.0ZM-107.0 0.0H-79.0V-82.0H-107.0ZM-213.0 0.0H-185.0V-82.0H-213.0ZM-313.0 95.0V-177.0H134.0V95.0ZM-231.0 -219.0V-320.0H78.0V-219.0ZM-223.0 -459.0H-75.0V-520.0H-223.0ZM228.0 34.0V-61.0H443.0V-196.0H228.0V-291.0H565.0V34.0ZM-196.0 -340.0V-691.0H-104.0V-340.0ZM-327.0 -672.0 -311.0 -776.0C-235.0 -762.0 -142.0 -745.0 -51.0 -726.0L-56.0 -635.0C-157.0 -650.0 -257.0 -664.0 -327.0 -672.0ZM38.0 -219.0V-244.0C34.0 -563.0 30.0 -668.0 19.0 -692.0C11.0 -704.0 4.0 -708.0 -6.0 -708.0C-17.0 -708.0 -32.0 -707.0 -52.0 -705.0C-36.0 -737.0 -26.0 -787.0 -24.0 -822.0C8.0 -823.0 36.0 -822.0 57.0 -816.0C81.0 -810.0 97.0 -800.0 115.0 -771.0C137.0 -735.0 142.0 -607.0 146.0 -269.0C147.0 -255.0 147.0 -219.0 147.0 -219.0ZM-251.0 -136.0C-272.0 -200.0 -310.0 -263.0 -357.0 -304.0C-334.0 -323.0 -292.0 -366.0 -276.0 -388.0C-222.0 -335.0 -171.0 -250.0 -143.0 -166.0ZM251.0 -600.0C260.0 -649.0 264.0 -713.0 262.0 -754.0L340.0 -740.0C340.0 -699.0 335.0 -636.0 324.0 -588.0Z"/></g>
<g fill="black" opacity=".8" transform="translate(400 200) scale(0.1 -0.1)"><path d="M0.0 0.0H28.0V-81.0H0.0ZM-107.0 0.0H-79.0V-81.0H-107.0ZM-213.0 0.0H-185.0V-81.0H-213.0ZM-313.0 95.0V-176.0H134.0V95.0ZM-231.0 -218.0V-320.0H78.0V-218.0ZM-223.0 -459.0H-75.0V-520.0H-223.0ZM228.0 34.0V-61.0H443.0V-196.0H228.0V-291.0H565.0V34.0ZM-195.0 -340.0V-691.0H-104.0V-340.0ZM-327.0 -671.0 -311.0 -776.0C-235.0 -761.0 -143.0 -745.0 -52.0 -725.0L-56.0 -635.0C-156.0 -650.0 -257.0 -664.0 -327.0 -671.0ZM38.0 -218.0V-245.0C34.0 -564.0 31.0 -668.0 19.0 -691.0C11.0 -704.0 3.0 -707.0 -6.0 -707.0C-17.0 -707.0 -33.0 -706.0 -52.0 -706.0C-36.0 -737.0 -25.0 -788.0 -23.0 -822.0C8.0 -823.0 36.0 -822.0 57.0 -816.0C80.0 -810.0 97.0 -800.0 115.0 -770.0C137.0 -735.0 141.0 -608.0 146.0 -269.0C148.0 -255.0 147.0 -218.0 147.0 -218.0ZM-251.0 -136.0C-271.0 -199.0 -309.0 -263.0 -357.0 -304.0C-333.0 -324.0 -292.0 -366.0 -277.0 -389.0C-222.0 -335.0 -171.0 -250.0 -143.0 -165.0ZM251.0 -600.0C260.0 -648.0 264.0 -713.0 262.0 -754.0L340.0 -740.0C340.0 -699.0 334.0 -636.0 325.0 -587.0Z"/></g>
<g fill="red" transform="translate(500 200) scale(0.1 -0.1)"><path d="M0.0 0.0H122.0V-136.0H0.0ZM-148.0 0.0H-29.0V-136.0H-148.0ZM-291.0 0.0H-177.0V-136.0H-291.0ZM-320.0 29.0V-166.0H151.0V29.0ZM-240.0 -262.0 -255.0 -291.0H131.0V-262.0ZM-268.0 -433.0H-3.0V-555.0H-268.0ZM-570.0 -297.0V-479.0V-825.0H-541.0V-479.0V-297.0ZM-153.0 -314.0V-717.0L-123.0 -714.0V-314.0ZM-337.0 -712.0 -331.0 -742.0C-241.0 -735.0 -117.0 -724.0 6.0 -715.0V-687.0C-123.0 -697.0 -251.0 -707.0 -337.0 -712.0ZM125.0 -262.0V-271.0C116.0 -633.0 106.0 -758.0 86.0 -784.0C80.0 -795.0 73.0 -796.0 60.0 -796.0C46.0 -796.0 13.0 -796.0 -25.0 -793.0C-20.0 -801.0 -17.0 -814.0 -16.0 -822.0C14.0 -824.0 45.0 -825.0 64.0 -824.0C86.0 -824.0 100.0 -819.0 112.0 -802.0C136.0 -770.0 144.0 -656.0 154.0 -283.0C154.0 -278.0 154.0 -262.0 154.0 -262.0ZM-204.0 -155.0C-239.0 -244.0 -298.0 -329.0 -364.0 -385.0C-357.0 -390.0 -344.0 -400.0 -339.0 -405.0C-275.0 -345.0 -212.0 -256.0 -174.0 -162.0ZM-60.0 -623.0C-28.0 -668.0 7.0 -727.0 23.0 -767.0L50.0 -753.0C33.0 -716.0 -2.0 -657.0 -35.0 -613.0Z"/></g>
<g fill="black" opacity=".8" transform="translate(500 200) scale(0.1 -0.1)"><path d="M0.0 0.0H122.0V-136.0H0.0ZM-147.0 0.0H-29.0V-136.0H-147.0ZM-291.0 0.0H-177.0V-136.0H-291.0ZM-320.0 28.0V-166.0H151.0V28.0ZM-240.0 -262.0 -255.0 -290.0H132.0V-262.0ZM-268.0 -434.0H-4.0V-555.0H-268.0ZM-570.0 -297.0V-479.0V-825.0H-541.0V-479.0V-297.0ZM-153.0 -314.0V-717.0L-122.0 -714.0V-314.0ZM-337.0 -713.0 -331.0 -742.0C-241.0 -735.0 -117.0 -724.0 6.0 -715.0V-687.0C-123.0 -697.0 -251.0 -706.0 -337.0 -713.0ZM126.0 -262.0V-272.0C116.0 -633.0 106.0 -758.0 86.0 -784.0C80.0 -795.0 73.0 -796.0 60.0 -796.0C46.0 -796.0 13.0 -796.0 -25.0 -793.0C-20.0 -801.0 -17.0 -814.0 -16.0 -821.0C14.0 -824.0 44.0 -825.0 64.0 -824.0C86.0 -824.0 100.0 -819.0 112.0 -803.0C136.0 -770.0 144.0 -656.0 154.0 -284.0C154.0 -278.0 154.0 -262.0 154.0 -262.0ZM-204.0 -155.0C-239.0 -244.0 -298.0 -329.0 -364.0 -385.0C-357.0 -390.0 -343.0 -400.0 -339.0 -405.0C-276.0 -345.0 -212.0 -257.0 -174.0 -161.0ZM-60.0 -622.0C-29.0 -668.0 7.0 -728.0 23.0 -767.0L50.0 -753.0C33.0 -716.0 -2.0 -657.0 -35.0 -613.0Z"/></g>
<g fill="red" transform="translate(600 200) scale(0.1 -0.1)"><path d="M0.0 0.0H32.0V-61.0H0.0ZM-127.0 0.0H-96.0V-61.0H-127.0ZM-253.0 0.0H-222.0V-61.0H-253.0ZM-359.0 100.0V-161.0H144.0V100.0ZM-246.0 -204.0 -300.0 -312.0H60.0V-204.0ZM-255.0 -456.0H-105.0V-511.0H-255.0ZM-635.0 -277.0V-463.0H-648.0V-816.0H-528.0V-463.0H-541.0V-277.0ZM-230.0 -322.0V-693.0L-131.0 -672.0V-322.0ZM-369.0 -662.0 -350.0 -761.0C-266.0 -749.0 -162.0 -734.0 -60.0 -718.0L-63.0 -634.0C-177.0 -645.0 -291.0 -656.0 -369.0 -662.0ZM27.0 -204.0V-231.0C22.0 -565.0 17.0 -674.0 3.0 -698.0C-4.0 -712.0 -11.0 -715.0 -21.0 -715.0C-34.0 -715.0 -50.0 -715.0 -69.0 -713.0C-54.0 -741.0 -43.0 -786.0 -41.0 -815.0C-6.0 -816.0 25.0 -816.0 48.0 -810.0C74.0 -804.0 94.0 -795.0 112.0 -764.0C135.0 -726.0 142.0 -608.0 148.0 -255.0C148.0 -241.0 149.0 -204.0 149.0 -204.0ZM-275.0 -115.0C-306.0 -192.0 -361.0 -268.0 -424.0 -316.0C-398.0 -336.0 -353.0 -381.0 -334.0 -404.0C-265.0 -344.0 -197.0 -246.0 -156.0 -148.0ZM-115.0 -613.0C-102.0 -652.0 -88.0 -705.0 -84.0 -739.0L0.0 -713.0C-6.0 -680.0 -21.0 -629.0 -36.0 -591.0Z"/></g>
<g fill="black" opacity=".8" transform="translate(600 200) scale(0.1 -0.1)"><path d="M0.0 0.0H31.0V-61.0H0.0ZM-127.0 0.0H-96.0V-61.0H-127.0ZM-253.0 0.0H-222.0V-61.0H-253.0ZM-360.0 100.0V-161.0H144.0V100.0ZM-246.0 -203.0 -300.0 -312.0H60.0V-203.0ZM-255.0 -455.0H-106.0V-512.0H-255.0ZM-635.0 -277.0V-463.0H-647.0V-815.0H-528.0V-463.0H-541.0V-277.0ZM-230.0 -322.0V-693.0L-131.0 -672.0V-322.0ZM-369.0 -662.0 -350.0 -761.0C-266.0 -748.0 -162.0 -734.0 -60.0 -717.0L-63.0 -635.0C-177.0 -645.0 -291.0 -656.0 -369.0 -662.0ZM27.0 -203.0V-231.0C22.0 -566.0 18.0 -674.0 3.0 -697.0C-4.0 -712.0 -12.0 -715.0 -21.0 -715.0C-34.0 -715.0 -50.0 -715.0 -69.0 -713.0C-54.0 -741.0 -43.0 -786.0 -41.0 -815.0C-6.0 -816.0 25.0 -816.0 48.0 -809.0C73.0 -804.0 95.0 -796.0 112.0 -764.0C135.0 -727.0 142.0 -608.0 148.0 -255.0C149.0 -241.0 149.0 -203.0 149.0 -203.0ZM-275.0 -115.0C-306.0 -192.0 -360.0 -268.0 -424.0 -316.0C-397.0 -336.0 -353.0 -381.0 -335.0 -405.0C-265.0 -344.0 -197.0 -246.0 -156.0 -148.0ZM-115.0 -613.0C-102.0 -652.0 -88.0 -705.0 -84.0 -739.0L-1.0 -712.0C-6.0 -680.0 -22.0 -629.0 -36.0 -591.0Z"/></g>
</svg>
