<?xml version="1.0" encoding="UTF-8"?>
<svg width="1700" height="500" xmlns="http://www.w3.org/2000/svg">
<rect width="100%" height="100%" fill="white"/>
<g fill="green" transform="translate(100 100) scale(0.1 -0.1)"><path d="M0.0 -0.0V-35.0H266.0V0.0ZM-250.0 -355.0V-562.0H-200.0V-355.0ZM-31.0 -623.0V-659.0H282.0V-623.0ZM-316.0 -78.0V-385.0C-316.0 -521.0 -321.0 -709.0 -370.0 -851.0C-360.0 -856.0 -346.0 -867.0 -340.0 -874.0C-290.0 -728.0 -283.0 -525.0 -283.0 -384.0V-78.0ZM-153.0 -78.0V-803.0C-153.0 -813.0 -156.0 -816.0 -166.0 -816.0C-174.0 -817.0 -202.0 -817.0 -235.0 -816.0C-229.0 -826.0 -224.0 -842.0 -220.0 -851.0C-180.0 -852.0 -155.0 -850.0 -138.0 -843.0C-124.0 -837.0 -120.0 -825.0 -120.0 -804.0V-78.0ZM-90.0 169.0V-705.0H-54.0V169.0ZM-251.0 124.0 -253.0 88.0H-104.0V124.0ZM-228.0 223.0C-259.0 88.0 -320.0 -63.0 -399.0 -164.0C-391.0 -168.0 -378.0 -180.0 -372.0 -188.0C-292.0 -82.0 -230.0 74.0 -193.0 215.0ZM-267.0 124.0V116.0C-286.0 51.0 -323.0 -34.0 -358.0 -88.0C-348.0 -91.0 -334.0 -100.0 -329.0 -107.0C-296.0 -52.0 -255.0 33.0 -229.0 111.0L-253.0 127.0L-260.0 124.0Z"/></g>
<g fill="green" transform="translate(200 100) scale(0.1 -0.1)"><path d="M0.0 0.0V-147.0H299.0V0.0ZM-248.0 -422.0V-652.0H-190.0V-422.0ZM-22.0 -608.0V-757.0H332.0V-608.0ZM-328.0 -119.0V-471.0C-328.0 -601.0 -328.0 -775.0 -350.0 -898.0C-329.0 -911.0 -286.0 -955.0 -270.0 -978.0C-234.0 -837.0 -226.0 -620.0 -226.0 -471.0V-119.0ZM-159.0 -119.0V-796.0C-159.0 -807.0 -161.0 -809.0 -169.0 -809.0C-176.0 -810.0 -194.0 -811.0 -217.0 -809.0C-203.0 -844.0 -191.0 -902.0 -188.0 -939.0C-144.0 -939.0 -112.0 -935.0 -86.0 -912.0C-59.0 -890.0 -56.0 -851.0 -56.0 -799.0V-119.0ZM-108.0 173.0V-758.0H25.0V173.0ZM-256.0 89.0 -261.0 -38.0H-169.0V89.0ZM-282.0 185.0C-293.0 58.0 -320.0 -93.0 -374.0 -185.0C-356.0 -213.0 -327.0 -271.0 -317.0 -301.0C-238.0 -187.0 -190.0 -11.0 -165.0 159.0ZM-346.0 86.0V64.0C-353.0 8.0 -370.0 -77.0 -388.0 -129.0C-368.0 -145.0 -336.0 -175.0 -320.0 -196.0C-289.0 -135.0 -259.0 -39.0 -239.0 46.0L-305.0 93.0L-323.0 86.0Z"/></g>
<g fill="green" transform="translate(300 100) scale(0.1 -0.1)"><path d="M0.0 0.0V-31.0H225.0V0.0ZM-248.0 -332.0V-533.0H-236.0V-332.0ZM-30.0 -577.0V-609.0H241.0V-577.0ZM-311.0 -77.0V-351.0C-311.0 -473.0 -315.0 -642.0 -354.0 -771.0C-345.0 -775.0 -333.0 -785.0 -327.0 -792.0C-287.0 -659.0 -281.0 -476.0 -281.0 -350.0V-77.0ZM-188.0 -77.0V-727.0C-188.0 -735.0 -191.0 -738.0 -199.0 -738.0C-205.0 -739.0 -228.0 -739.0 -255.0 -738.0C-249.0 -747.0 -245.0 -761.0 -241.0 -769.0C-209.0 -770.0 -188.0 -768.0 -174.0 -762.0C-162.0 -757.0 -159.0 -746.0 -159.0 -728.0V-77.0ZM-105.0 168.0V-655.0H-73.0V168.0ZM-255.0 104.0 -257.0 72.0H-132.0V104.0ZM-234.0 192.0C-261.0 73.0 -315.0 -64.0 -384.0 -155.0C-377.0 -158.0 -366.0 -169.0 -361.0 -177.0C-290.0 -81.0 -235.0 60.0 -203.0 185.0ZM-298.0 104.0V97.0C-315.0 39.0 -347.0 -37.0 -378.0 -86.0C-369.0 -89.0 -357.0 -97.0 -352.0 -103.0C-323.0 -54.0 -287.0 23.0 -264.0 93.0L-285.0 107.0L-292.0 104.0Z"/></g>
<g fill="green" transform="translate(400 100) scale(0.1 -0.1)"><path d="M0.0 0.0V-133.0H261.0V0.0ZM-246.0 -399.0V-615.0H-223.0V-399.0ZM-22.0 -565.0V-700.0H294.0V-565.0ZM-318.0 -118.0V-437.0C-318.0 -553.0 -317.0 -708.0 -330.0 -818.0C-313.0 -830.0 -276.0 -869.0 -263.0 -890.0C-236.0 -763.0 -230.0 -570.0 -230.0 -437.0V-118.0ZM-186.0 -118.0V-725.0C-186.0 -735.0 -187.0 -736.0 -194.0 -736.0C-199.0 -737.0 -213.0 -738.0 -232.0 -737.0C-220.0 -768.0 -210.0 -819.0 -208.0 -851.0C-171.0 -851.0 -144.0 -848.0 -122.0 -827.0C-99.0 -808.0 -97.0 -773.0 -97.0 -728.0V-118.0ZM-117.0 177.0V-706.0H3.0V177.0ZM-259.0 69.0 -263.0 -44.0H-192.0V69.0ZM-280.0 154.0C-288.0 41.0 -308.0 -96.0 -354.0 -179.0C-339.0 -205.0 -316.0 -257.0 -308.0 -284.0C-239.0 -180.0 -199.0 -21.0 -179.0 132.0ZM-369.0 66.0V47.0C-375.0 -3.0 -388.0 -79.0 -403.0 -126.0C-386.0 -140.0 -359.0 -166.0 -346.0 -185.0C-319.0 -130.0 -295.0 -45.0 -278.0 32.0L-334.0 72.0L-350.0 66.0Z"/></g>
<g fill="green" transform="translate(500 100) scale(0.1 -0.1)"><path d="M0.0 0.0V-33.0H167.0V0.0ZM176.0 -31.0V-239.0H274.0V-31.0ZM15.0 -225.0V-260.0H156.0V-225.0ZM105.0 32.0V-261.0C105.0 -390.0 99.0 -566.0 36.0 -698.0C45.0 -703.0 59.0 -715.0 64.0 -722.0C129.0 -584.0 139.0 -395.0 139.0 -260.0V32.0ZM318.0 32.0V-656.0C318.0 -668.0 315.0 -672.0 300.0 -673.0C289.0 -674.0 246.0 -674.0 195.0 -673.0C201.0 -683.0 207.0 -698.0 211.0 -707.0C272.0 -707.0 308.0 -706.0 327.0 -699.0C344.0 -693.0 353.0 -680.0 353.0 -657.0V32.0ZM-140.0 -9.0V-861.0H-104.0V-9.0ZM181.0 222.0 176.0 188.0H336.0V222.0ZM204.0 317.0C168.0 195.0 104.0 55.0 24.0 -39.0C33.0 -43.0 45.0 -54.0 51.0 -62.0C131.0 37.0 198.0 182.0 237.0 309.0ZM304.0 221.0V213.0C283.0 151.0 241.0 70.0 202.0 19.0C212.0 15.0 224.0 6.0 229.0 0.0C267.0 52.0 312.0 134.0 342.0 209.0L318.0 224.0L311.0 221.0Z"/></g>
<g fill="green" transform="translate(600 100) scale(0.1 -0.1)"><path d="M0.0 0.0V-119.0H150.0V0.0ZM171.0 -29.0V-253.0H282.0V-29.0ZM14.0 -189.0V-307.0H143.0V-189.0ZM68.0 49.0V-274.0C68.0 -398.0 66.0 -566.0 32.0 -684.0C57.0 -698.0 102.0 -743.0 120.0 -766.0C170.0 -629.0 181.0 -418.0 181.0 -273.0V49.0ZM274.0 49.0V-604.0C274.0 -617.0 270.0 -621.0 257.0 -621.0C244.0 -622.0 206.0 -622.0 166.0 -619.0C181.0 -654.0 196.0 -711.0 200.0 -747.0C265.0 -747.0 311.0 -743.0 346.0 -722.0C381.0 -700.0 389.0 -663.0 389.0 -606.0V49.0ZM-162.0 4.0V-858.0H-89.0V4.0ZM158.0 251.0 139.0 129.0H273.0V251.0ZM131.0 335.0C115.0 221.0 78.0 82.0 20.0 -1.0C38.0 -30.0 67.0 -89.0 76.0 -119.0C163.0 -12.0 221.0 152.0 253.0 307.0ZM208.0 251.0V229.0C198.0 176.0 173.0 95.0 148.0 46.0C171.0 29.0 207.0 -3.0 225.0 -24.0C263.0 34.0 304.0 127.0 332.0 207.0L256.0 258.0L234.0 251.0Z"/></g>
<g fill="green" transform="translate(700 100) scale(0.1 -0.1)"><path d="M0.0 -0.0V-34.0H151.0V0.0ZM-322.0 -406.0V-589.0H-395.0V-406.0ZM-32.0 -674.0V-709.0H172.0V-674.0ZM-377.0 -95.0V-389.0C-377.0 -520.0 -379.0 -707.0 -407.0 -847.0C-397.0 -852.0 -383.0 -861.0 -377.0 -867.0C-349.0 -724.0 -346.0 -523.0 -346.0 -388.0V-95.0ZM-353.0 -95.0V-792.0C-353.0 -799.0 -356.0 -802.0 -363.0 -801.0C-368.0 -802.0 -384.0 -802.0 -404.0 -801.0C-398.0 -810.0 -394.0 -825.0 -390.0 -834.0C-364.0 -835.0 -349.0 -833.0 -335.0 -827.0C-326.0 -820.0 -323.0 -809.0 -323.0 -793.0V-95.0ZM-116.0 194.0V-600.0H-81.0V194.0ZM-343.0 101.0 -340.0 66.0H-250.0V101.0ZM-327.0 198.0C-350.0 65.0 -394.0 -89.0 -456.0 -192.0C-449.0 -195.0 -435.0 -206.0 -428.0 -213.0C-366.0 -105.0 -321.0 52.0 -291.0 190.0ZM58.0 97.0V89.0C39.0 24.0 3.0 -61.0 -30.0 -116.0C-21.0 -118.0 -7.0 -125.0 -4.0 -131.0C28.0 -78.0 68.0 7.0 92.0 85.0L71.0 100.0L64.0 97.0Z"/></g>
<g fill="green" transform="translate(800 100) scale(0.1 -0.1)"><path d="M0.0 0.0V-138.0H267.0V0.0ZM-321.0 -479.0V-687.0H-309.0V-479.0ZM-30.0 -665.0V-805.0H308.0V-665.0ZM-372.0 -145.0V-508.0C-372.0 -632.0 -369.0 -797.0 -367.0 -917.0C-350.0 -925.0 -317.0 -959.0 -304.0 -977.0C-297.0 -843.0 -295.0 -643.0 -295.0 -507.0V-145.0ZM-307.0 -145.0V-818.0C-307.0 -827.0 -308.0 -828.0 -313.0 -829.0C-319.0 -829.0 -327.0 -831.0 -343.0 -829.0C-331.0 -859.0 -320.0 -910.0 -319.0 -942.0C-287.0 -942.0 -266.0 -937.0 -246.0 -917.0C-226.0 -897.0 -225.0 -862.0 -225.0 -821.0V-145.0ZM-103.0 189.0V-639.0H12.0V189.0ZM-320.0 54.0 -304.0 -63.0H-284.0V54.0ZM-351.0 147.0C-354.0 24.0 -365.0 -132.0 -397.0 -229.0C-380.0 -251.0 -350.0 -296.0 -339.0 -320.0C-289.0 -206.0 -261.0 -32.0 -247.0 125.0ZM22.0 62.0V41.0C15.0 -18.0 -1.0 -108.0 -18.0 -164.0C2.0 -176.0 32.0 -201.0 49.0 -218.0C76.0 -156.0 104.0 -58.0 122.0 25.0L59.0 68.0L43.0 62.0Z"/></g>
<g fill="green" transform="translate(900 100) scale(0.1 -0.1)"><path d="M0.0 -0.0V-31.0H441.0V0.0ZM-401.0 -528.0V-406.0H21.0V-528.0ZM-45.0 -796.0V-829.0H461.0V-796.0ZM-364.0 -91.0V-377.0C-364.0 -496.0 -369.0 -659.0 -418.0 -781.0C-410.0 -786.0 -398.0 -797.0 -393.0 -803.0C-342.0 -676.0 -334.0 -501.0 -334.0 -376.0V-91.0ZM-43.0 -91.0V-740.0C-43.0 -750.0 -46.0 -753.0 -56.0 -753.0C-66.0 -754.0 -97.0 -754.0 -134.0 -753.0C-129.0 -762.0 -124.0 -777.0 -121.0 -785.0C-79.0 -787.0 -49.0 -785.0 -32.0 -778.0C-17.0 -772.0 -14.0 -761.0 -14.0 -740.0V-91.0ZM380.0 74.0V-482.0H411.0V74.0ZM-269.0 90.0 -277.0 57.0H-73.0V90.0ZM-249.0 179.0C-287.0 58.0 -358.0 -73.0 -440.0 -160.0C-432.0 -164.0 -421.0 -176.0 -416.0 -183.0C-334.0 -92.0 -262.0 45.0 -219.0 171.0ZM-214.0 90.0V83.0C-233.0 26.0 -271.0 -51.0 -303.0 -99.0C-295.0 -100.0 -282.0 -105.0 -277.0 -109.0C-246.0 -63.0 -205.0 9.0 -181.0 77.0L-201.0 93.0L-207.0 90.0Z"/></g>
<g fill="green" transform="translate(1000 100) scale(0.1 -0.1)"><path d="M0.0 0.0V-146.0H386.0V0.0ZM-381.0 -552.0V-575.0H-79.0V-552.0ZM-24.0 -761.0V-913.0H421.0V-761.0ZM-404.0 -139.0V-423.0C-404.0 -545.0 -408.0 -706.0 -464.0 -817.0C-440.0 -833.0 -390.0 -882.0 -371.0 -907.0C-300.0 -779.0 -286.0 -570.0 -286.0 -424.0V-139.0ZM-126.0 -139.0V-717.0C-126.0 -728.0 -128.0 -730.0 -137.0 -730.0C-144.0 -731.0 -169.0 -732.0 -191.0 -730.0C-175.0 -768.0 -164.0 -831.0 -161.0 -871.0C-110.0 -871.0 -72.0 -868.0 -42.0 -844.0C-9.0 -821.0 -5.0 -780.0 -5.0 -720.0V-139.0ZM307.0 28.0V-501.0H461.0V28.0ZM-309.0 48.0 -340.0 -73.0H-173.0V48.0ZM-334.0 137.0C-356.0 25.0 -403.0 -103.0 -470.0 -180.0C-449.0 -208.0 -415.0 -268.0 -401.0 -298.0C-314.0 -202.0 -248.0 -49.0 -210.0 104.0ZM-322.0 45.0V21.0C-332.0 -29.0 -356.0 -111.0 -379.0 -165.0C-352.0 -177.0 -313.0 -197.0 -289.0 -212.0C-259.0 -158.0 -223.0 -69.0 -205.0 -2.0L-283.0 50.0L-297.0 45.0Z"/></g>
<g fill="green" transform="translate(1100 100) scale(0.1 -0.1)"><path d="M0.0 0.0V-34.0H387.0V0.0ZM-248.0 -308.0V-643.0H-174.0V-308.0ZM-41.0 -566.0V-600.0H408.0V-566.0ZM-361.0 -88.0V-401.0C-361.0 -531.0 -371.0 -703.0 -451.0 -830.0C-442.0 -835.0 -429.0 -847.0 -425.0 -855.0C-341.0 -722.0 -329.0 -536.0 -329.0 -400.0V-88.0ZM-82.0 -88.0V-786.0C-82.0 -799.0 -85.0 -804.0 -100.0 -803.0C-112.0 -805.0 -157.0 -805.0 -209.0 -804.0C-204.0 -814.0 -200.0 -829.0 -197.0 -838.0C-134.0 -839.0 -95.0 -838.0 -74.0 -831.0C-56.0 -825.0 -51.0 -812.0 -51.0 -786.0V-88.0ZM-188.0 227.0V-689.0H-154.0V227.0ZM-276.0 109.0 -285.0 74.0H-88.0V109.0ZM-243.0 205.0C-283.0 64.0 -358.0 -83.0 -446.0 -179.0C-438.0 -184.0 -426.0 -197.0 -419.0 -204.0C-331.0 -101.0 -257.0 50.0 -210.0 197.0ZM-227.0 109.0V102.0C-249.0 38.0 -292.0 -46.0 -332.0 -97.0C-322.0 -100.0 -309.0 -107.0 -304.0 -113.0C-267.0 -61.0 -220.0 20.0 -191.0 96.0L-214.0 112.0L-219.0 109.0Z"/></g>
<g fill="green" transform="translate(1200 100) scale(0.1 -0.1)"><path d="M0.0 0.0V-152.0H389.0V0.0ZM-256.0 -394.0V-705.0H-195.0V-394.0ZM-28.0 -539.0V-692.0H424.0V-539.0ZM-397.0 -135.0V-442.0C-397.0 -572.0 -400.0 -745.0 -454.0 -865.0C-430.0 -880.0 -381.0 -925.0 -362.0 -950.0C-296.0 -813.0 -283.0 -595.0 -283.0 -443.0V-135.0ZM-137.0 -135.0V-765.0C-137.0 -777.0 -139.0 -778.0 -148.0 -779.0C-156.0 -780.0 -178.0 -781.0 -201.0 -778.0C-188.0 -815.0 -177.0 -872.0 -174.0 -909.0C-124.0 -909.0 -86.0 -906.0 -58.0 -884.0C-28.0 -862.0 -24.0 -825.0 -24.0 -768.0V-135.0ZM-244.0 245.0V-776.0H-80.0V245.0ZM-298.0 70.0 -332.0 -59.0H-186.0V70.0ZM-324.0 170.0C-346.0 40.0 -392.0 -101.0 -462.0 -186.0C-438.0 -211.0 -395.0 -264.0 -377.0 -292.0C-295.0 -188.0 -232.0 -25.0 -198.0 139.0ZM-340.0 67.0V42.0C-347.0 -10.0 -368.0 -93.0 -386.0 -146.0C-362.0 -162.0 -324.0 -191.0 -302.0 -213.0C-271.0 -153.0 -236.0 -60.0 -214.0 17.0L-294.0 74.0L-313.0 67.0Z"/></g>
<g fill="green" transform="translate(1300 100) scale(0.1 -0.1)"><path d="M0.0 0.0V-35.0H273.0V0.0ZM-239.0 -337.0V-580.0H-205.0V-337.0ZM-26.0 -596.0V-632.0H290.0V-596.0ZM-315.0 -78.0V-391.0C-315.0 -531.0 -321.0 -725.0 -373.0 -869.0C-362.0 -872.0 -347.0 -879.0 -339.0 -886.0C-289.0 -742.0 -282.0 -534.0 -282.0 -390.0V-78.0ZM-148.0 -78.0V-823.0C-148.0 -835.0 -153.0 -839.0 -165.0 -839.0C-175.0 -840.0 -210.0 -841.0 -253.0 -839.0C-247.0 -848.0 -242.0 -863.0 -239.0 -871.0C-183.0 -872.0 -155.0 -870.0 -136.0 -864.0C-121.0 -859.0 -115.0 -846.0 -115.0 -823.0V-78.0ZM-126.0 191.0V-450.0H-90.0V191.0ZM-270.0 120.0 -262.0 85.0H-127.0V120.0ZM-248.0 223.0C-274.0 74.0 -325.0 -78.0 -401.0 -177.0C-392.0 -182.0 -375.0 -194.0 -368.0 -201.0C-294.0 -95.0 -241.0 59.0 -209.0 215.0ZM-306.0 121.0V113.0C-319.0 49.0 -346.0 -33.0 -374.0 -86.0C-363.0 -90.0 -349.0 -101.0 -344.0 -109.0C-318.0 -53.0 -286.0 32.0 -265.0 108.0L-291.0 124.0L-298.0 121.0Z"/></g>
<g fill="green" transform="translate(1400 100) scale(0.1 -0.1)"><path d="M0.0 0.0V-142.0H327.0V0.0ZM-233.0 -404.0V-654.0H-177.0V-404.0ZM-16.0 -587.0V-727.0H354.0V-587.0ZM-311.0 -119.0V-490.0C-311.0 -620.0 -311.0 -793.0 -333.0 -914.0C-309.0 -926.0 -260.0 -962.0 -240.0 -982.0C-209.0 -846.0 -203.0 -636.0 -203.0 -489.0V-119.0ZM-136.0 -119.0V-810.0C-136.0 -822.0 -139.0 -826.0 -150.0 -826.0C-160.0 -827.0 -191.0 -828.0 -225.0 -825.0C-208.0 -859.0 -190.0 -920.0 -185.0 -958.0C-132.0 -958.0 -95.0 -953.0 -64.0 -929.0C-33.0 -907.0 -27.0 -866.0 -27.0 -813.0V-119.0ZM-127.0 175.0V-491.0H8.0V175.0ZM-241.0 79.0 -206.0 -48.0H-141.0V79.0ZM-268.0 186.0C-279.0 46.0 -305.0 -109.0 -356.0 -205.0C-327.0 -225.0 -275.0 -270.0 -253.0 -294.0C-194.0 -182.0 -153.0 -7.0 -133.0 161.0ZM-339.0 75.0V53.0C-345.0 -2.0 -357.0 -87.0 -372.0 -138.0C-353.0 -155.0 -319.0 -192.0 -303.0 -216.0C-271.0 -152.0 -242.0 -54.0 -220.0 34.0L-292.0 83.0L-313.0 75.0Z"/></g>
<g fill="green" transform="translate(1500 100) scale(0.1 -0.1)"><path d="M0.0 -0.0V-35.0H249.0V0.0ZM-251.0 -350.0V-561.0H-223.0V-350.0ZM-40.0 -613.0V-648.0H261.0V-613.0ZM-321.0 -78.0V-352.0C-321.0 -496.0 -329.0 -696.0 -391.0 -847.0C-381.0 -852.0 -367.0 -863.0 -360.0 -869.0C-299.0 -715.0 -289.0 -501.0 -289.0 -352.0V-78.0ZM-174.0 -78.0V-800.0C-174.0 -807.0 -176.0 -808.0 -181.0 -808.0C-186.0 -809.0 -198.0 -808.0 -213.0 -808.0C-208.0 -817.0 -202.0 -834.0 -197.0 -842.0C-176.0 -843.0 -166.0 -840.0 -154.0 -834.0C-143.0 -828.0 -140.0 -817.0 -140.0 -801.0V-78.0ZM-101.0 172.0V-727.0H-65.0V172.0ZM-267.0 118.0 -261.0 83.0H-122.0V118.0ZM-252.0 216.0C-272.0 92.0 -319.0 -56.0 -387.0 -158.0C-378.0 -160.0 -366.0 -171.0 -361.0 -179.0C-289.0 -76.0 -242.0 79.0 -215.0 209.0ZM-305.0 118.0V110.0C-319.0 47.0 -348.0 -36.0 -376.0 -88.0C-366.0 -91.0 -351.0 -100.0 -346.0 -108.0C-319.0 -53.0 -288.0 30.0 -267.0 105.0L-290.0 121.0L-298.0 118.0Z"/></g>
<g fill="green" transform="translate(1600 100) scale(0.1 -0.1)"><path d="M0.0 0.0V-134.0H346.0V0.0ZM-249.0 -429.0V-652.0H-146.0V-429.0ZM-23.0 -632.0V-767.0H384.0V-632.0ZM-312.0 -120.0V-468.0C-312.0 -599.0 -313.0 -774.0 -345.0 -898.0C-327.0 -911.0 -288.0 -955.0 -275.0 -978.0C-228.0 -835.0 -219.0 -617.0 -219.0 -468.0V-120.0ZM-141.0 -120.0V-805.0C-141.0 -814.0 -141.0 -815.0 -145.0 -815.0C-148.0 -815.0 -149.0 -816.0 -160.0 -816.0C-147.0 -848.0 -135.0 -904.0 -133.0 -938.0C-108.0 -938.0 -90.0 -933.0 -71.0 -910.0C-52.0 -890.0 -53.0 -850.0 -53.0 -808.0V-120.0ZM-89.0 185.0V-779.0H33.0V185.0ZM-250.0 82.0 -222.0 -36.0H-133.0V82.0ZM-292.0 178.0C-300.0 40.0 -323.0 -129.0 -379.0 -231.0C-369.0 -264.0 -356.0 -331.0 -355.0 -365.0C-261.0 -234.0 -213.0 -36.0 -187.0 155.0ZM-319.0 78.0V60.0C-323.0 1.0 -329.0 -85.0 -341.0 -138.0C-323.0 -150.0 -295.0 -175.0 -281.0 -193.0C-259.0 -132.0 -246.0 -37.0 -236.0 51.0L-288.0 84.0L-302.0 78.0Z"/></g>
<g fill="green" transform="translate(100 200) scale(0.1 -0.1)"><path d="M0.0 -0.0V-35.0H248.0V0.0ZM-244.0 -355.0V-562.0H-217.0V-355.0ZM-26.0 -625.0V-662.0H264.0V-625.0ZM-311.0 -77.0V-402.0C-311.0 -532.0 -317.0 -709.0 -370.0 -840.0C-361.0 -845.0 -346.0 -856.0 -341.0 -863.0C-285.0 -727.0 -278.0 -536.0 -278.0 -401.0V-77.0ZM-168.0 -77.0V-794.0C-168.0 -803.0 -170.0 -805.0 -176.0 -805.0C-183.0 -806.0 -203.0 -806.0 -224.0 -805.0C-218.0 -816.0 -214.0 -831.0 -211.0 -842.0C-185.0 -842.0 -165.0 -840.0 -150.0 -833.0C-137.0 -827.0 -134.0 -816.0 -134.0 -796.0V-77.0ZM-100.0 170.0V-651.0H-64.0V170.0ZM-250.0 135.0 -256.0 98.0H-88.0V135.0ZM-232.0 239.0C-265.0 95.0 -328.0 -52.0 -408.0 -152.0C-399.0 -156.0 -384.0 -168.0 -378.0 -174.0C-300.0 -71.0 -237.0 81.0 -196.0 232.0ZM-255.0 135.0V127.0C-278.0 58.0 -323.0 -29.0 -366.0 -85.0C-357.0 -89.0 -345.0 -101.0 -340.0 -110.0C-298.0 -50.0 -247.0 40.0 -216.0 123.0L-240.0 138.0L-247.0 135.0Z"/></g>
<g fill="green" transform="translate(200 200) scale(0.1 -0.1)"><path d="M0.0 0.0V-147.0H304.0V0.0ZM-256.0 -435.0V-667.0H-188.0V-435.0ZM-33.0 -635.0V-786.0H336.0V-635.0ZM-329.0 -118.0V-469.0C-329.0 -601.0 -329.0 -780.0 -355.0 -906.0C-334.0 -916.0 -293.0 -950.0 -276.0 -968.0C-243.0 -829.0 -236.0 -616.0 -236.0 -469.0V-118.0ZM-155.0 -118.0V-811.0C-155.0 -821.0 -156.0 -822.0 -159.0 -822.0C-162.0 -822.0 -162.0 -823.0 -171.0 -822.0C-158.0 -853.0 -146.0 -905.0 -143.0 -939.0C-116.0 -939.0 -97.0 -934.0 -79.0 -913.0C-58.0 -892.0 -57.0 -857.0 -57.0 -815.0V-118.0ZM-115.0 156.0V-767.0H15.0V156.0ZM-255.0 97.0 -274.0 -31.0H-156.0V97.0ZM-284.0 197.0C-301.0 81.0 -334.0 -41.0 -388.0 -120.0C-375.0 -151.0 -355.0 -216.0 -353.0 -246.0C-268.0 -143.0 -216.0 15.0 -187.0 173.0ZM-331.0 94.0V72.0C-344.0 19.0 -376.0 -59.0 -404.0 -104.0C-390.0 -123.0 -365.0 -163.0 -357.0 -189.0C-310.0 -130.0 -262.0 -38.0 -225.0 50.0L-285.0 102.0L-308.0 94.0Z"/></g>
<g fill="red" transform="translate(100 300) scale(0.1 -0.1)"><path d="M0.0 0.0V-29.0H437.0V0.0ZM0.0 -167.0V-197.0H437.0V-167.0ZM-15.0 -341.0V-370.0H436.0V-341.0ZM-22.0 0.0V-254.0C-22.0 -374.0 -37.0 -525.0 -148.0 -633.0C-141.0 -636.0 -129.0 -644.0 -124.0 -649.0C-12.0 -540.0 7.0 -379.0 7.0 -255.0V0.0ZM421.0 0.0V-602.0C421.0 -617.0 416.0 -621.0 401.0 -622.0C386.0 -623.0 335.0 -623.0 272.0 -622.0C276.0 -630.0 282.0 -642.0 284.0 -649.0C362.0 -649.0 402.0 -649.0 422.0 -644.0C443.0 -639.0 451.0 -627.0 451.0 -601.0V0.0ZM195.0 -11.0V-355.0H224.0V-11.0ZM66.0 163.0V134.0H296.0V163.0ZM84.0 251.0C47.0 127.0 -16.0 9.0 -93.0 -69.0C-84.0 -73.0 -70.0 -83.0 -65.0 -88.0C10.0 -7.0 75.0 114.0 116.0 244.0ZM287.0 163.0V156.0C271.0 104.0 238.0 33.0 210.0 -9.0C218.0 -12.0 228.0 -18.0 234.0 -23.0C264.0 21.0 299.0 90.0 321.0 151.0L300.0 165.0L294.0 163.0Z"/></g>
<g fill="black" opacity=".8" transform="translate(100 300) scale(0.1 -0.1)"><path d="M0.0 0.0V-28.0H438.0V0.0ZM-1.0 -169.0V-202.0H434.0V-169.0ZM-14.0 -347.0V-377.0H435.0V-347.0ZM-25.0 0.0V-257.0C-25.0 -374.0 -40.0 -526.0 -146.0 -633.0C-139.0 -636.0 -126.0 -644.0 -121.0 -650.0C-14.0 -540.0 4.0 -381.0 4.0 -257.0V0.0ZM420.0 0.0V-604.0C420.0 -617.0 417.0 -622.0 402.0 -621.0C387.0 -623.0 340.0 -623.0 282.0 -622.0C285.0 -630.0 290.0 -642.0 292.0 -649.0C366.0 -650.0 404.0 -649.0 423.0 -644.0C442.0 -639.0 451.0 -626.0 451.0 -603.0V0.0ZM194.0 -10.0V-355.0H223.0V-10.0ZM64.0 159.0V130.0H301.0V159.0ZM82.0 246.0C47.0 126.0 -15.0 11.0 -92.0 -64.0C-80.0 -67.0 -67.0 -78.0 -61.0 -83.0C12.0 -5.0 75.0 113.0 115.0 239.0ZM285.0 159.0V153.0C271.0 101.0 239.0 33.0 210.0 -8.0C219.0 -11.0 229.0 -17.0 234.0 -22.0C263.0 21.0 298.0 87.0 320.0 147.0L300.0 162.0L294.0 159.0Z"/></g>
<g fill="red" transform="translate(200 300) scale(0.1 -0.1)"><path d="M0.0 0.0V-105.0H410.0V0.0ZM0.0 -160.0V-261.0H410.0V-160.0ZM0.0 -324.0V-429.0H410.0V-324.0ZM-73.0 0.0V-232.0C-73.0 -350.0 -83.0 -506.0 -194.0 -612.0C-163.0 -627.0 -106.0 -666.0 -83.0 -688.0C37.0 -570.0 57.0 -375.0 57.0 -233.0V0.0ZM326.0 0.0V-546.0C326.0 -557.0 322.0 -561.0 310.0 -561.0C299.0 -561.0 262.0 -561.0 230.0 -560.0C248.0 -594.0 268.0 -653.0 272.0 -689.0C330.0 -689.0 373.0 -686.0 409.0 -664.0C444.0 -643.0 453.0 -605.0 453.0 -549.0V0.0ZM135.0 -56.0V-362.0H250.0V-56.0ZM52.0 164.0V56.0H273.0V164.0ZM2.0 260.0C-34.0 134.0 -102.0 12.0 -186.0 -61.0C-157.0 -84.0 -106.0 -136.0 -84.0 -162.0C8.0 -71.0 89.0 76.0 137.0 227.0ZM244.0 164.0V141.0C234.0 97.0 211.0 22.0 189.0 -25.0C217.0 -39.0 259.0 -65.0 284.0 -84.0C317.0 -31.0 356.0 52.0 380.0 115.0L293.0 169.0L273.0 164.0Z"/></g>
<g fill="black" opacity=".8" transform="translate(200 300) scale(0.1 -0.1)"><path d="M0.0 0.0V-107.0H406.0V0.0ZM3.0 -164.0V-267.0H399.0V-164.0ZM4.0 -331.0V-435.0H405.0V-331.0ZM-74.0 -2.0V-234.0C-74.0 -352.0 -83.0 -508.0 -189.0 -612.0C-159.0 -628.0 -101.0 -667.0 -76.0 -689.0C38.0 -572.0 58.0 -376.0 58.0 -234.0V-2.0ZM325.0 -2.0V-543.0C325.0 -555.0 322.0 -559.0 311.0 -560.0C300.0 -559.0 263.0 -560.0 232.0 -557.0C249.0 -591.0 268.0 -651.0 273.0 -687.0C332.0 -687.0 374.0 -683.0 409.0 -661.0C446.0 -640.0 454.0 -602.0 454.0 -545.0V-2.0ZM132.0 -52.0V-361.0H249.0V-52.0ZM50.0 163.0 49.0 54.0H278.0V163.0ZM6.0 257.0C-29.0 134.0 -99.0 13.0 -182.0 -59.0C-154.0 -83.0 -104.0 -137.0 -83.0 -163.0C10.0 -71.0 92.0 74.0 141.0 222.0ZM245.0 161.0V139.0C234.0 94.0 210.0 18.0 187.0 -32.0C215.0 -42.0 259.0 -68.0 285.0 -86.0C319.0 -33.0 357.0 50.0 382.0 112.0L292.0 167.0L273.0 161.0Z"/></g>
<g fill="red" transform="translate(300 300) scale(0.1 -0.1)"><path d="M0.0 0.0V-29.0H248.0V0.0ZM103.0 -11.0V-373.0H132.0V-11.0ZM0.0 -176.0V-205.0H248.0V-176.0ZM-21.0 0.0V-267.0C-21.0 -382.0 -32.0 -530.0 -121.0 -637.0C-113.0 -640.0 -101.0 -647.0 -96.0 -653.0C-6.0 -545.0 8.0 -386.0 8.0 -267.0V0.0ZM234.0 0.0V-603.0C234.0 -617.0 229.0 -621.0 214.0 -622.0C202.0 -623.0 154.0 -623.0 97.0 -622.0C102.0 -630.0 106.0 -642.0 108.0 -649.0C180.0 -649.0 217.0 -649.0 237.0 -644.0C255.0 -639.0 263.0 -628.0 263.0 -603.0V0.0ZM-288.0 107.0V-506.0H-258.0V107.0ZM36.0 165.0V136.0H204.0V165.0ZM61.0 251.0C29.0 125.0 -26.0 3.0 -96.0 -77.0C-88.0 -81.0 -74.0 -91.0 -68.0 -96.0C0.0 -11.0 56.0 112.0 93.0 245.0ZM193.0 165.0V158.0C176.0 104.0 142.0 34.0 110.0 -9.0C118.0 -13.0 128.0 -22.0 133.0 -28.0C165.0 18.0 203.0 90.0 227.0 154.0L205.0 167.0L200.0 165.0Z"/></g>
<g fill="black" opacity=".8" transform="translate(300 300) scale(0.1 -0.1)"><path d="M0.0 0.0V-28.0H247.0V0.0ZM103.0 -10.0V-372.0H133.0V-10.0ZM0.0 -177.0V-206.0H246.0V-177.0ZM-21.0 0.0V-268.0C-21.0 -382.0 -33.0 -530.0 -121.0 -637.0C-114.0 -639.0 -101.0 -647.0 -96.0 -654.0C-6.0 -544.0 8.0 -386.0 8.0 -267.0V0.0ZM234.0 0.0V-604.0C234.0 -616.0 229.0 -622.0 214.0 -622.0C202.0 -624.0 154.0 -624.0 97.0 -623.0C101.0 -631.0 105.0 -642.0 107.0 -649.0C180.0 -649.0 218.0 -649.0 236.0 -644.0C254.0 -640.0 263.0 -627.0 263.0 -603.0V0.0ZM-287.0 106.0V-507.0H-257.0V106.0ZM37.0 164.0 36.0 136.0H203.0V164.0ZM61.0 251.0C29.0 125.0 -26.0 2.0 -97.0 -77.0C-87.0 -81.0 -74.0 -92.0 -67.0 -97.0C1.0 -12.0 57.0 112.0 93.0 245.0ZM192.0 164.0V158.0C176.0 104.0 143.0 34.0 109.0 -8.0C119.0 -13.0 128.0 -22.0 132.0 -29.0C164.0 18.0 202.0 90.0 227.0 154.0L205.0 167.0L200.0 164.0Z"/></g>
<g fill="red" transform="translate(400 300) scale(0.1 -0.1)"><path d="M0.0 0.0V-105.0H271.0V0.0ZM87.0 -52.0V-358.0H169.0V-52.0ZM0.0 -165.0V-266.0H271.0V-165.0ZM-51.0 0.0V-268.0C-51.0 -379.0 -55.0 -529.0 -113.0 -633.0C-87.0 -644.0 -40.0 -673.0 -21.0 -691.0C43.0 -576.0 54.0 -396.0 54.0 -268.0V0.0ZM200.0 0.0V-564.0C200.0 -575.0 197.0 -578.0 186.0 -578.0C175.0 -579.0 143.0 -579.0 112.0 -577.0C126.0 -605.0 143.0 -653.0 147.0 -683.0C199.0 -683.0 237.0 -680.0 267.0 -662.0C296.0 -644.0 304.0 -613.0 304.0 -566.0V0.0ZM-311.0 114.0V-561.0H-213.0V114.0ZM44.0 168.0V61.0H180.0V168.0ZM13.0 260.0C-11.0 143.0 -56.0 27.0 -118.0 -45.0C-91.0 -63.0 -43.0 -102.0 -23.0 -123.0C43.0 -37.0 99.0 99.0 130.0 235.0ZM144.0 168.0V147.0C135.0 104.0 114.0 35.0 94.0 -6.0C114.0 -23.0 148.0 -57.0 165.0 -80.0C200.0 -27.0 239.0 54.0 268.0 123.0L193.0 175.0L171.0 168.0Z"/></g>
<g fill="black" opacity=".8" transform="translate(400 300) scale(0.1 -0.1)"><path d="M0.0 0.0V-105.0H272.0V0.0ZM87.0 -51.0V-358.0H169.0V-51.0ZM1.0 -164.0V-265.0H271.0V-164.0ZM-51.0 -1.0V-268.0C-51.0 -380.0 -55.0 -530.0 -112.0 -632.0C-88.0 -644.0 -41.0 -673.0 -21.0 -690.0C43.0 -576.0 54.0 -396.0 54.0 -267.0V-1.0ZM199.0 -1.0V-563.0C199.0 -576.0 197.0 -578.0 186.0 -579.0C176.0 -579.0 144.0 -580.0 112.0 -577.0C126.0 -606.0 143.0 -654.0 147.0 -683.0C200.0 -683.0 237.0 -680.0 267.0 -661.0C297.0 -644.0 304.0 -612.0 304.0 -566.0V-1.0ZM-309.0 113.0V-560.0H-212.0V113.0ZM43.0 169.0V62.0H180.0V169.0ZM13.0 259.0C-11.0 143.0 -56.0 27.0 -117.0 -44.0C-91.0 -63.0 -43.0 -104.0 -23.0 -124.0C42.0 -36.0 98.0 100.0 129.0 234.0ZM144.0 168.0V148.0C135.0 105.0 114.0 36.0 95.0 -7.0C114.0 -22.0 147.0 -56.0 164.0 -80.0C201.0 -26.0 239.0 53.0 269.0 123.0L193.0 175.0L170.0 168.0Z"/></g>
<g fill="red" transform="translate(500 300) scale(0.1 -0.1)"><path d="M0.0 0.0V-29.0H455.0V0.0ZM0.0 -177.0V-206.0H455.0V-177.0ZM-8.0 -367.0V-397.0H456.0V-367.0ZM-19.0 0.0V-284.0C-19.0 -395.0 -32.0 -531.0 -137.0 -629.0C-130.0 -633.0 -119.0 -643.0 -116.0 -650.0C-6.0 -547.0 11.0 -400.0 11.0 -284.0V0.0ZM443.0 0.0V-602.0C443.0 -617.0 439.0 -621.0 423.0 -622.0C408.0 -623.0 356.0 -623.0 294.0 -621.0C299.0 -631.0 304.0 -643.0 305.0 -652.0C377.0 -652.0 423.0 -652.0 444.0 -646.0C466.0 -641.0 472.0 -629.0 472.0 -601.0V0.0ZM205.0 -16.0V-378.0H234.0V-16.0ZM92.0 168.0 78.0 139.0H323.0V168.0ZM119.0 252.0C71.0 132.0 -9.0 16.0 -95.0 -59.0C-87.0 -65.0 -75.0 -76.0 -70.0 -81.0C14.0 -1.0 96.0 118.0 148.0 244.0ZM315.0 168.0V161.0C292.0 107.0 249.0 35.0 212.0 -8.0C219.0 -12.0 228.0 -17.0 234.0 -21.0C272.0 23.0 319.0 92.0 347.0 156.0L326.0 170.0L322.0 168.0Z"/></g>
<g fill="black" opacity=".8" transform="translate(500 300) scale(0.1 -0.1)"><path d="M0.0 0.0V-28.0H455.0V0.0ZM1.0 -173.0V-198.0H462.0V-173.0ZM-6.0 -357.0V-387.0H456.0V-357.0ZM-18.0 1.0V-290.0C-18.0 -396.0 -30.0 -531.0 -124.0 -625.0C-117.0 -628.0 -105.0 -638.0 -102.0 -645.0C-3.0 -545.0 12.0 -402.0 12.0 -289.0V1.0ZM446.0 1.0V-596.0C446.0 -611.0 442.0 -617.0 423.0 -617.0C406.0 -619.0 344.0 -620.0 272.0 -618.0C276.0 -627.0 281.0 -639.0 281.0 -647.0C369.0 -647.0 421.0 -647.0 444.0 -641.0C465.0 -636.0 475.0 -623.0 475.0 -595.0V1.0ZM209.0 -17.0V-374.0H238.0V-17.0ZM87.0 167.0 76.0 137.0H331.0V167.0ZM113.0 254.0C65.0 125.0 -14.0 10.0 -103.0 -63.0C-93.0 -69.0 -79.0 -81.0 -73.0 -85.0C10.0 -5.0 91.0 112.0 142.0 247.0ZM317.0 167.0V161.0C296.0 106.0 252.0 36.0 213.0 -6.0C221.0 -10.0 231.0 -16.0 236.0 -20.0C274.0 24.0 322.0 91.0 350.0 155.0L330.0 170.0L326.0 167.0Z"/></g>
<g fill="red" transform="translate(600 300) scale(0.1 -0.1)"><path d="M0.0 0.0V-121.0H343.0V0.0ZM0.0 -164.0V-273.0H343.0V-164.0ZM0.0 -316.0V-438.0H343.0V-316.0ZM-94.0 0.0V-215.0C-94.0 -331.0 -103.0 -486.0 -205.0 -591.0C-175.0 -608.0 -117.0 -656.0 -95.0 -682.0C22.0 -562.0 44.0 -359.0 44.0 -217.0V0.0ZM305.0 0.0V-522.0C305.0 -535.0 300.0 -539.0 286.0 -539.0C273.0 -540.0 226.0 -540.0 190.0 -537.0C208.0 -575.0 226.0 -637.0 230.0 -677.0C301.0 -677.0 354.0 -674.0 394.0 -652.0C435.0 -629.0 446.0 -590.0 446.0 -525.0V0.0ZM111.0 -53.0V-382.0H233.0V-53.0ZM43.0 176.0 -15.0 60.0H246.0V176.0ZM22.0 269.0C-17.0 168.0 -89.0 70.0 -169.0 10.0C-138.0 -13.0 -85.0 -65.0 -62.0 -92.0C24.0 -17.0 110.0 106.0 161.0 230.0ZM209.0 176.0V150.0C192.0 107.0 151.0 33.0 115.0 -13.0C144.0 -30.0 188.0 -60.0 214.0 -80.0C262.0 -29.0 325.0 54.0 363.0 115.0L265.0 182.0L242.0 176.0Z"/></g>
<g fill="black" opacity=".8" transform="translate(600 300) scale(0.1 -0.1)"><path d="M0.0 0.0V-120.0H355.0V0.0ZM2.0 -159.0V-267.0H356.0V-159.0ZM2.0 -310.0V-430.0H350.0V-310.0ZM-93.0 0.0V-228.0C-93.0 -345.0 -101.0 -500.0 -199.0 -603.0C-167.0 -619.0 -106.0 -658.0 -79.0 -679.0C26.0 -565.0 45.0 -370.0 45.0 -228.0V0.0ZM308.0 0.0V-527.0C308.0 -541.0 304.0 -545.0 290.0 -546.0C276.0 -546.0 228.0 -547.0 190.0 -543.0C208.0 -579.0 225.0 -639.0 230.0 -677.0C304.0 -677.0 357.0 -674.0 396.0 -653.0C439.0 -631.0 450.0 -594.0 450.0 -530.0V0.0ZM113.0 -67.0V-397.0H240.0V-67.0ZM42.0 173.0 -4.0 55.0H242.0V173.0ZM14.0 265.0C-25.0 158.0 -101.0 64.0 -183.0 6.0C-151.0 -16.0 -91.0 -65.0 -65.0 -88.0C18.0 -16.0 103.0 103.0 154.0 228.0ZM201.0 172.0V145.0C186.0 105.0 147.0 32.0 115.0 -15.0C144.0 -30.0 190.0 -61.0 217.0 -82.0C262.0 -31.0 321.0 51.0 359.0 110.0L258.0 178.0L234.0 172.0Z"/></g>
<g fill="red" transform="translate(700 300) scale(0.1 -0.1)"><path d="M0.0 0.0V-29.0H349.0V0.0ZM0.0 -169.0V-199.0H349.0V-169.0ZM-6.0 -345.0V-374.0H348.0V-345.0ZM-16.0 0.0V-265.0C-16.0 -379.0 -25.0 -526.0 -106.0 -633.0C-99.0 -636.0 -87.0 -643.0 -81.0 -649.0C1.0 -541.0 14.0 -383.0 14.0 -265.0V0.0ZM334.0 0.0V-602.0C334.0 -617.0 329.0 -621.0 314.0 -622.0C300.0 -623.0 250.0 -623.0 187.0 -622.0C192.0 -630.0 198.0 -642.0 200.0 -649.0C276.0 -649.0 316.0 -649.0 336.0 -643.0C356.0 -639.0 364.0 -627.0 364.0 -602.0V0.0ZM156.0 -8.0V-361.0H185.0V-8.0ZM57.0 165.0V136.0H247.0V165.0ZM78.0 253.0C37.0 130.0 -30.0 14.0 -112.0 -62.0C-104.0 -67.0 -89.0 -77.0 -84.0 -82.0C-6.0 -2.0 65.0 117.0 109.0 246.0ZM237.0 165.0V158.0C220.0 106.0 185.0 35.0 156.0 -7.0C163.0 -10.0 173.0 -16.0 178.0 -20.0C208.0 24.0 245.0 92.0 269.0 154.0L249.0 167.0L243.0 165.0Z"/></g>
<g fill="black" opacity=".8" transform="translate(700 300) scale(0.1 -0.1)"><path d="M0.0 0.0V-28.0H347.0V0.0ZM-0.0 -175.0V-208.0H345.0V-175.0ZM-2.0 -358.0V-389.0H346.0V-358.0ZM-18.0 -0.0V-275.0C-18.0 -386.0 -27.0 -534.0 -102.0 -639.0C-95.0 -642.0 -82.0 -650.0 -77.0 -656.0C-0.0 -547.0 12.0 -391.0 12.0 -274.0V-0.0ZM332.0 -0.0V-608.0C332.0 -621.0 327.0 -626.0 312.0 -626.0C298.0 -628.0 249.0 -629.0 190.0 -627.0C195.0 -635.0 200.0 -647.0 201.0 -654.0C274.0 -655.0 315.0 -654.0 334.0 -648.0C352.0 -644.0 361.0 -631.0 361.0 -607.0V-0.0ZM151.0 -8.0V-355.0H181.0V-8.0ZM60.0 163.0 58.0 134.0H259.0V163.0ZM80.0 251.0C43.0 126.0 -19.0 8.0 -96.0 -67.0C-86.0 -72.0 -72.0 -83.0 -66.0 -88.0C7.0 -6.0 71.0 114.0 111.0 244.0ZM240.0 163.0V157.0C224.0 104.0 190.0 35.0 159.0 -8.0C167.0 -12.0 177.0 -19.0 182.0 -24.0C213.0 20.0 251.0 89.0 275.0 152.0L254.0 166.0L249.0 163.0Z"/></g>
<g fill="red" transform="translate(800 300) scale(0.1 -0.1)"><path d="M0.0 0.0V-114.0H298.0V0.0ZM0.0 -156.0V-267.0H298.0V-156.0ZM0.0 -312.0V-425.0H298.0V-312.0ZM-60.0 0.0V-268.0C-60.0 -383.0 -66.0 -534.0 -139.0 -638.0C-109.0 -650.0 -55.0 -686.0 -32.0 -706.0C49.0 -591.0 62.0 -404.0 62.0 -269.0V0.0ZM254.0 0.0V-560.0C254.0 -573.0 249.0 -578.0 234.0 -578.0C219.0 -579.0 169.0 -579.0 124.0 -576.0C142.0 -610.0 164.0 -670.0 169.0 -706.0C238.0 -706.0 289.0 -703.0 329.0 -682.0C368.0 -660.0 379.0 -623.0 379.0 -563.0V0.0ZM101.0 -57.0V-363.0H211.0V-57.0ZM45.0 161.0V48.0H217.0V161.0ZM16.0 242.0C-14.0 143.0 -71.0 46.0 -140.0 -13.0C-111.0 -33.0 -59.0 -79.0 -37.0 -103.0C38.0 -30.0 107.0 89.0 147.0 210.0ZM178.0 161.0V138.0C165.0 97.0 134.0 28.0 107.0 -15.0C135.0 -30.0 177.0 -56.0 202.0 -75.0C238.0 -26.0 286.0 51.0 315.0 110.0L227.0 166.0L207.0 161.0Z"/></g>
<g fill="black" opacity=".8" transform="translate(800 300) scale(0.1 -0.1)"><path d="M0.0 0.0V-112.0H301.0V0.0ZM4.0 -165.0V-272.0H295.0V-165.0ZM5.0 -327.0V-438.0H297.0V-327.0ZM-63.0 -1.0V-261.0C-63.0 -375.0 -69.0 -526.0 -139.0 -628.0C-111.0 -643.0 -56.0 -678.0 -32.0 -697.0C46.0 -583.0 60.0 -395.0 60.0 -261.0V-1.0ZM249.0 -1.0V-553.0C249.0 -566.0 246.0 -570.0 233.0 -571.0C220.0 -571.0 177.0 -571.0 138.0 -568.0C156.0 -602.0 174.0 -660.0 179.0 -695.0C245.0 -695.0 292.0 -691.0 328.0 -670.0C367.0 -650.0 376.0 -613.0 376.0 -556.0V-1.0ZM97.0 -55.0V-358.0H202.0V-55.0ZM45.0 167.0 36.0 55.0H216.0V167.0ZM16.0 257.0C-13.0 147.0 -69.0 38.0 -137.0 -29.0C-107.0 -50.0 -54.0 -96.0 -31.0 -118.0C41.0 -36.0 109.0 95.0 148.0 226.0ZM173.0 166.0V143.0C160.0 100.0 132.0 27.0 105.0 -19.0C130.0 -33.0 171.0 -65.0 193.0 -85.0C233.0 -32.0 280.0 51.0 311.0 115.0L224.0 172.0L202.0 166.0Z"/></g>
<g fill="red" transform="translate(900 300) scale(0.1 -0.1)"><path d="M0.0 0.0V-29.0H354.0V0.0ZM0.0 -176.0V-205.0H354.0V-176.0ZM0.0 -356.0V-386.0H354.0V-356.0ZM-15.0 0.0V-267.0C-15.0 -380.0 -23.0 -529.0 -91.0 -637.0C-84.0 -640.0 -71.0 -647.0 -66.0 -652.0C3.0 -543.0 14.0 -383.0 14.0 -267.0V0.0ZM340.0 0.0V-592.0C340.0 -607.0 334.0 -612.0 316.0 -613.0C300.0 -614.0 242.0 -615.0 168.0 -613.0C173.0 -622.0 179.0 -633.0 181.0 -641.0C270.0 -642.0 315.0 -642.0 339.0 -636.0C360.0 -630.0 369.0 -618.0 369.0 -591.0V0.0ZM161.0 -11.0V-369.0H191.0V-11.0ZM55.0 165.0V136.0H290.0V165.0ZM75.0 251.0C41.0 124.0 -17.0 3.0 -91.0 -77.0C-83.0 -81.0 -68.0 -91.0 -63.0 -96.0C8.0 -12.0 68.0 111.0 106.0 244.0ZM280.0 165.0V158.0C263.0 106.0 231.0 35.0 202.0 -8.0C210.0 -10.0 221.0 -16.0 227.0 -21.0C256.0 23.0 292.0 91.0 313.0 153.0L292.0 167.0L287.0 165.0Z"/></g>
<g fill="black" opacity=".8" transform="translate(900 300) scale(0.1 -0.1)"><path d="M0.0 0.0V-28.0H347.0V0.0ZM-2.0 -178.0V-199.0H353.0V-178.0ZM-4.0 -361.0V-391.0H345.0V-361.0ZM-16.0 1.0V-269.0C-16.0 -380.0 -25.0 -529.0 -102.0 -636.0C-94.0 -639.0 -82.0 -647.0 -77.0 -653.0C1.0 -543.0 14.0 -386.0 14.0 -268.0V1.0ZM335.0 1.0V-604.0C335.0 -616.0 331.0 -621.0 316.0 -621.0C302.0 -623.0 255.0 -623.0 198.0 -622.0C203.0 -630.0 207.0 -642.0 209.0 -649.0C280.0 -650.0 319.0 -649.0 338.0 -643.0C356.0 -638.0 364.0 -626.0 364.0 -603.0V1.0ZM166.0 -15.0V-386.0H195.0V-15.0ZM64.0 163.0 61.0 134.0H262.0V163.0ZM83.0 250.0C47.0 128.0 -15.0 10.0 -91.0 -66.0C-81.0 -70.0 -67.0 -81.0 -61.0 -86.0C11.0 -5.0 74.0 116.0 114.0 242.0ZM281.0 162.0V156.0C265.0 103.0 230.0 34.0 199.0 -9.0C208.0 -12.0 218.0 -19.0 223.0 -23.0C254.0 21.0 291.0 89.0 315.0 151.0L295.0 165.0L289.0 162.0Z"/></g>
<g fill="red" transform="translate(1000 300) scale(0.1 -0.1)"><path d="M0.0 0.0V-105.0H305.0V0.0ZM0.0 -178.0V-279.0H305.0V-178.0ZM0.0 -357.0V-462.0H305.0V-357.0ZM-58.0 0.0V-264.0C-58.0 -377.0 -64.0 -526.0 -140.0 -629.0C-110.0 -641.0 -51.0 -674.0 -28.0 -693.0C57.0 -579.0 71.0 -396.0 71.0 -265.0V0.0ZM261.0 0.0V-548.0C261.0 -561.0 256.0 -565.0 241.0 -565.0C225.0 -566.0 175.0 -566.0 130.0 -564.0C149.0 -595.0 171.0 -650.0 176.0 -684.0C248.0 -684.0 300.0 -682.0 341.0 -661.0C381.0 -641.0 391.0 -606.0 391.0 -551.0V0.0ZM111.0 -56.0V-412.0H217.0V-56.0ZM54.0 164.0V56.0H227.0V164.0ZM13.0 260.0C-16.0 143.0 -74.0 27.0 -149.0 -45.0C-117.0 -64.0 -59.0 -108.0 -34.0 -130.0C47.0 -45.0 116.0 93.0 157.0 232.0ZM210.0 164.0V142.0C199.0 97.0 173.0 22.0 150.0 -25.0C178.0 -38.0 222.0 -62.0 248.0 -79.0C284.0 -27.0 327.0 55.0 353.0 119.0L261.0 169.0L241.0 164.0Z"/></g>
<g fill="black" opacity=".8" transform="translate(1000 300) scale(0.1 -0.1)"><path d="M0.0 0.0V-110.0H304.0V0.0ZM4.0 -166.0V-264.0H307.0V-166.0ZM6.0 -330.0V-439.0H302.0V-330.0ZM-62.0 0.0V-256.0C-62.0 -370.0 -68.0 -521.0 -140.0 -623.0C-112.0 -638.0 -58.0 -674.0 -35.0 -695.0C46.0 -579.0 61.0 -391.0 61.0 -256.0V0.0ZM252.0 0.0V-549.0C252.0 -562.0 248.0 -566.0 236.0 -566.0C223.0 -566.0 182.0 -567.0 145.0 -564.0C162.0 -597.0 180.0 -655.0 184.0 -691.0C249.0 -691.0 294.0 -687.0 330.0 -666.0C368.0 -645.0 377.0 -608.0 377.0 -551.0V0.0ZM112.0 -58.0V-383.0H215.0V-58.0ZM46.0 168.0 38.0 57.0H219.0V168.0ZM15.0 256.0C-13.0 145.0 -69.0 32.0 -137.0 -36.0C-109.0 -58.0 -58.0 -106.0 -37.0 -129.0C38.0 -44.0 106.0 91.0 146.0 224.0ZM215.0 168.0V145.0C203.0 101.0 176.0 27.0 150.0 -21.0C176.0 -34.0 217.0 -63.0 240.0 -81.0C278.0 -29.0 322.0 54.0 351.0 118.0L264.0 173.0L243.0 168.0Z"/></g>
<g fill="red" transform="translate(1100 300) scale(0.1 -0.1)"><path d="M0.0 0.0V-29.0H336.0V0.0ZM0.0 -174.0V-203.0H336.0V-174.0ZM0.0 -353.0V-383.0H336.0V-353.0ZM-15.0 0.0V-267.0C-15.0 -380.0 -23.0 -529.0 -97.0 -637.0C-89.0 -640.0 -77.0 -647.0 -71.0 -652.0C2.0 -544.0 14.0 -384.0 14.0 -267.0V0.0ZM323.0 0.0V-603.0C323.0 -617.0 318.0 -621.0 303.0 -622.0C289.0 -623.0 242.0 -623.0 183.0 -622.0C187.0 -630.0 192.0 -642.0 195.0 -649.0C267.0 -649.0 305.0 -649.0 326.0 -643.0C344.0 -639.0 352.0 -628.0 352.0 -602.0V0.0ZM148.0 -8.0V-370.0H178.0V-8.0ZM54.0 165.0V136.0H235.0V165.0ZM74.0 253.0C39.0 127.0 -19.0 5.0 -92.0 -75.0C-84.0 -80.0 -70.0 -90.0 -65.0 -96.0C6.0 -11.0 67.0 113.0 105.0 246.0ZM226.0 165.0V158.0C211.0 106.0 183.0 36.0 157.0 -7.0C165.0 -10.0 176.0 -16.0 182.0 -21.0C208.0 23.0 239.0 92.0 259.0 153.0L238.0 167.0L232.0 165.0Z"/></g>
<g fill="black" opacity=".8" transform="translate(1100 300) scale(0.1 -0.1)"><path d="M0.0 0.0V-28.0H335.0V0.0ZM-2.0 -175.0V-205.0H335.0V-175.0ZM-3.0 -358.0V-388.0H334.0V-358.0ZM-18.0 -0.0V-266.0C-18.0 -379.0 -27.0 -529.0 -100.0 -638.0C-92.0 -640.0 -80.0 -648.0 -74.0 -654.0C-1.0 -543.0 11.0 -384.0 11.0 -266.0V-0.0ZM320.0 -0.0V-606.0C320.0 -618.0 315.0 -623.0 301.0 -623.0C287.0 -625.0 240.0 -625.0 183.0 -624.0C188.0 -631.0 193.0 -644.0 195.0 -651.0C265.0 -651.0 304.0 -650.0 323.0 -645.0C340.0 -640.0 349.0 -628.0 349.0 -605.0V-0.0ZM149.0 -10.0V-379.0H179.0V-10.0ZM58.0 160.0 57.0 132.0H249.0V160.0ZM77.0 247.0C43.0 126.0 -17.0 8.0 -91.0 -68.0C-82.0 -72.0 -68.0 -83.0 -62.0 -88.0C9.0 -7.0 71.0 114.0 108.0 240.0ZM224.0 160.0V154.0C210.0 102.0 178.0 34.0 149.0 -8.0C157.0 -12.0 168.0 -19.0 172.0 -24.0C201.0 20.0 236.0 88.0 259.0 149.0L238.0 163.0L232.0 160.0Z"/></g>
<g fill="red" transform="translate(1200 300) scale(0.1 -0.1)"><path d="M0.0 0.0V-112.0H302.0V0.0ZM15.0 -168.0V-271.0H286.0V-168.0ZM15.0 -330.0V-442.0H286.0V-330.0ZM-55.0 0.0V-265.0C-55.0 -377.0 -60.0 -526.0 -128.0 -629.0C-99.0 -642.0 -45.0 -677.0 -23.0 -697.0C54.0 -582.0 66.0 -398.0 66.0 -266.0V0.0ZM238.0 0.0V-550.0C238.0 -561.0 234.0 -565.0 222.0 -565.0C211.0 -566.0 174.0 -566.0 141.0 -564.0C158.0 -597.0 177.0 -655.0 182.0 -690.0C240.0 -690.0 282.0 -687.0 317.0 -666.0C352.0 -645.0 360.0 -608.0 360.0 -553.0V0.0ZM100.0 -54.0V-378.0H202.0V-54.0ZM45.0 166.0V55.0H199.0V166.0ZM19.0 259.0C-12.0 142.0 -69.0 21.0 -133.0 -54.0C-104.0 -73.0 -51.0 -117.0 -29.0 -139.0C39.0 -51.0 107.0 92.0 147.0 227.0ZM159.0 166.0V142.0C147.0 95.0 120.0 13.0 95.0 -39.0C123.0 -54.0 166.0 -80.0 191.0 -99.0C226.0 -41.0 271.0 49.0 298.0 115.0L209.0 171.0L188.0 166.0Z"/></g>
<g fill="black" opacity=".8" transform="translate(1200 300) scale(0.1 -0.1)"><path d="M0.0 0.0V-110.0H294.0V0.0ZM5.0 -164.0V-268.0H290.0V-164.0ZM7.0 -326.0V-434.0H291.0V-326.0ZM-59.0 -1.0V-262.0C-59.0 -375.0 -64.0 -524.0 -132.0 -625.0C-104.0 -640.0 -51.0 -676.0 -28.0 -696.0C49.0 -582.0 63.0 -395.0 63.0 -261.0V-1.0ZM242.0 -1.0V-550.0C242.0 -563.0 239.0 -567.0 225.0 -567.0C213.0 -568.0 169.0 -568.0 131.0 -565.0C148.0 -598.0 166.0 -657.0 171.0 -692.0C236.0 -692.0 283.0 -688.0 319.0 -667.0C357.0 -646.0 366.0 -609.0 366.0 -552.0V-1.0ZM101.0 -50.0V-370.0H202.0V-50.0ZM45.0 165.0 42.0 55.0H212.0V165.0ZM15.0 253.0C-11.0 141.0 -64.0 26.0 -130.0 -44.0C-101.0 -65.0 -50.0 -111.0 -28.0 -134.0C44.0 -48.0 109.0 88.0 147.0 222.0ZM163.0 164.0V142.0C152.0 98.0 128.0 24.0 104.0 -23.0C129.0 -36.0 169.0 -65.0 192.0 -84.0C228.0 -31.0 269.0 51.0 296.0 116.0L211.0 170.0L191.0 164.0Z"/></g>
<g fill="red" transform="translate(1300 300) scale(0.1 -0.1)"><path d="M0.0 0.0V-29.0H266.0V0.0ZM0.0 -179.0V-208.0H257.0V-179.0ZM0.0 -363.0V-393.0H261.0V-363.0ZM-15.0 0.0V-264.0C-15.0 -375.0 -23.0 -522.0 -91.0 -629.0C-84.0 -632.0 -71.0 -639.0 -66.0 -644.0C3.0 -536.0 14.0 -379.0 14.0 -264.0V0.0ZM247.0 0.0V-596.0C247.0 -606.0 244.0 -608.0 236.0 -609.0C227.0 -609.0 199.0 -609.0 166.0 -608.0C171.0 -617.0 176.0 -629.0 178.0 -637.0C219.0 -637.0 243.0 -636.0 257.0 -631.0C272.0 -626.0 277.0 -616.0 277.0 -596.0V0.0ZM120.0 -8.0V-384.0H149.0V-8.0ZM47.0 165.0V136.0H233.0V165.0ZM58.0 253.0C28.0 137.0 -23.0 25.0 -89.0 -51.0C-80.0 -55.0 -66.0 -64.0 -61.0 -68.0C2.0 9.0 55.0 125.0 89.0 247.0ZM224.0 165.0V158.0C206.0 104.0 170.0 34.0 138.0 -9.0C145.0 -13.0 154.0 -22.0 159.0 -28.0C194.0 19.0 233.0 90.0 257.0 154.0L237.0 167.0L231.0 165.0Z"/></g>
<g fill="black" opacity=".8" transform="translate(1300 300) scale(0.1 -0.1)"><path d="M0.0 0.0V-28.0H261.0V0.0ZM1.0 -176.0V-203.0H261.0V-176.0ZM-0.0 -360.0V-390.0H258.0V-360.0ZM-14.0 1.0V-263.0C-14.0 -373.0 -23.0 -521.0 -93.0 -626.0C-86.0 -629.0 -73.0 -637.0 -68.0 -643.0C4.0 -534.0 15.0 -378.0 15.0 -263.0V1.0ZM247.0 1.0V-595.0C247.0 -604.0 244.0 -607.0 236.0 -607.0C227.0 -608.0 198.0 -609.0 164.0 -607.0C168.0 -616.0 173.0 -627.0 175.0 -636.0C219.0 -635.0 243.0 -634.0 257.0 -629.0C271.0 -624.0 278.0 -614.0 278.0 -595.0V1.0ZM118.0 -9.0V-377.0H148.0V-9.0ZM47.0 167.0V138.0H229.0V167.0ZM57.0 256.0C28.0 136.0 -24.0 22.0 -90.0 -55.0C-80.0 -58.0 -66.0 -68.0 -60.0 -72.0C3.0 7.0 56.0 124.0 90.0 251.0ZM222.0 167.0V160.0C206.0 106.0 172.0 37.0 139.0 -7.0C147.0 -11.0 156.0 -21.0 161.0 -28.0C194.0 20.0 233.0 92.0 257.0 157.0L237.0 170.0L230.0 167.0Z"/></g>
<g fill="red" transform="translate(1400 300) scale(0.1 -0.1)"><path d="M0.0 0.0V-104.0H271.0V0.0ZM0.0 -183.0V-283.0H257.0V-183.0ZM0.0 -365.0V-469.0H271.0V-365.0ZM-48.0 0.0V-270.0C-48.0 -382.0 -52.0 -533.0 -110.0 -638.0C-84.0 -648.0 -35.0 -679.0 -15.0 -696.0C49.0 -581.0 59.0 -399.0 59.0 -270.0V0.0ZM212.0 0.0V-568.0C212.0 -576.0 210.0 -578.0 205.0 -578.0C200.0 -578.0 190.0 -578.0 180.0 -578.0C196.0 -607.0 212.0 -659.0 215.0 -690.0C247.0 -690.0 270.0 -686.0 294.0 -667.0C318.0 -647.0 322.0 -613.0 322.0 -571.0V0.0ZM91.0 -54.0V-405.0H177.0V-54.0ZM47.0 167.0V62.0H223.0V167.0ZM16.0 256.0C-11.0 152.0 -62.0 52.0 -124.0 -12.0C-105.0 -37.0 -73.0 -92.0 -63.0 -117.0C17.0 -34.0 82.0 98.0 120.0 229.0ZM194.0 167.0V147.0C180.0 103.0 148.0 34.0 119.0 -7.0C138.0 -23.0 169.0 -55.0 184.0 -76.0C227.0 -25.0 276.0 55.0 310.0 124.0L240.0 173.0L219.0 167.0Z"/></g>
<g fill="black" opacity=".8" transform="translate(1400 300) scale(0.1 -0.1)"><path d="M0.0 0.0V-103.0H279.0V0.0ZM-2.0 -181.0V-279.0H274.0V-181.0ZM-2.0 -364.0V-467.0H279.0V-364.0ZM-44.0 -0.0V-269.0C-44.0 -381.0 -48.0 -533.0 -109.0 -637.0C-85.0 -648.0 -39.0 -675.0 -18.0 -690.0C48.0 -577.0 59.0 -397.0 59.0 -268.0V-0.0ZM219.0 -0.0V-571.0C219.0 -582.0 217.0 -584.0 210.0 -585.0C203.0 -584.0 184.0 -584.0 163.0 -583.0C178.0 -611.0 196.0 -662.0 200.0 -692.0C240.0 -692.0 267.0 -687.0 293.0 -668.0C320.0 -650.0 325.0 -616.0 325.0 -574.0V-0.0ZM96.0 -58.0V-415.0H181.0V-58.0ZM46.0 169.0 50.0 64.0H215.0V169.0ZM10.0 257.0C-16.0 153.0 -64.0 53.0 -124.0 -12.0C-105.0 -37.0 -73.0 -93.0 -64.0 -117.0C15.0 -32.0 77.0 100.0 113.0 231.0ZM194.0 168.0V149.0C180.0 105.0 149.0 37.0 120.0 -4.0C138.0 -18.0 168.0 -52.0 181.0 -73.0C226.0 -23.0 273.0 56.0 309.0 126.0L240.0 175.0L218.0 168.0Z"/></g>
<g fill="red" transform="translate(1500 300) scale(0.1 -0.1)"><path d="M0.0 0.0V-29.0H416.0V0.0ZM-384.0 -455.0V-485.0H-102.0V-455.0ZM-46.0 -693.0V-722.0H440.0V-693.0ZM-397.0 -99.0V-366.0C-397.0 -479.0 -405.0 -628.0 -469.0 -736.0C-462.0 -739.0 -450.0 -746.0 -445.0 -751.0C-380.0 -642.0 -370.0 -482.0 -370.0 -366.0V-99.0ZM-111.0 -99.0V-698.0C-111.0 -709.0 -115.0 -712.0 -124.0 -712.0C-134.0 -713.0 -164.0 -713.0 -201.0 -712.0C-197.0 -720.0 -193.0 -732.0 -191.0 -739.0C-145.0 -740.0 -119.0 -739.0 -103.0 -734.0C-88.0 -729.0 -85.0 -719.0 -85.0 -698.0V-99.0ZM186.0 151.0V-228.0H214.0V151.0ZM-332.0 66.0V37.0H-149.0V66.0ZM-314.0 152.0C-345.0 25.0 -400.0 -96.0 -469.0 -176.0C-462.0 -180.0 -448.0 -190.0 -443.0 -195.0C-376.0 -111.0 -320.0 12.0 -283.0 145.0ZM-160.0 66.0V59.0C-176.0 7.0 -206.0 -64.0 -233.0 -107.0C-226.0 -109.0 -215.0 -115.0 -210.0 -120.0C-183.0 -76.0 -149.0 -8.0 -129.0 54.0L-148.0 68.0L-153.0 66.0Z"/></g>
<g fill="black" opacity=".8" transform="translate(1500 300) scale(0.1 -0.1)"><path d="M0.0 0.0V-28.0H416.0V0.0ZM-384.0 -454.0V-485.0H-102.0V-454.0ZM-46.0 -693.0V-723.0H439.0V-693.0ZM-397.0 -99.0V-367.0C-397.0 -478.0 -406.0 -628.0 -469.0 -736.0C-462.0 -738.0 -450.0 -745.0 -445.0 -752.0C-380.0 -641.0 -370.0 -482.0 -370.0 -366.0V-99.0ZM-111.0 -99.0V-699.0C-111.0 -709.0 -115.0 -713.0 -124.0 -712.0C-134.0 -713.0 -165.0 -714.0 -201.0 -712.0C-197.0 -720.0 -194.0 -732.0 -192.0 -739.0C-145.0 -741.0 -118.0 -739.0 -103.0 -734.0C-89.0 -729.0 -85.0 -718.0 -85.0 -698.0V-99.0ZM187.0 151.0V-228.0H214.0V151.0ZM-332.0 66.0V37.0H-149.0V66.0ZM-314.0 152.0C-344.0 25.0 -400.0 -97.0 -470.0 -176.0C-461.0 -180.0 -448.0 -191.0 -442.0 -195.0C-375.0 -112.0 -319.0 12.0 -283.0 145.0ZM-161.0 65.0V60.0C-176.0 6.0 -206.0 -63.0 -233.0 -107.0C-226.0 -109.0 -215.0 -115.0 -210.0 -120.0C-184.0 -76.0 -149.0 -8.0 -129.0 54.0L-148.0 68.0L-153.0 65.0Z"/></g>
<g fill="red" transform="translate(1600 300) scale(0.1 -0.1)"><path d="M0.0 0.0V-129.0H432.0V0.0ZM-375.0 -509.0V-614.0H-131.0V-509.0ZM-30.0 -685.0V-816.0H467.0V-685.0ZM-421.0 -152.0V-416.0C-421.0 -529.0 -425.0 -678.0 -487.0 -781.0C-463.0 -793.0 -415.0 -826.0 -396.0 -845.0C-328.0 -731.0 -317.0 -548.0 -317.0 -417.0V-152.0ZM-153.0 -152.0V-693.0C-153.0 -702.0 -155.0 -704.0 -162.0 -704.0C-168.0 -704.0 -185.0 -705.0 -201.0 -704.0C-186.0 -735.0 -172.0 -789.0 -169.0 -823.0C-131.0 -823.0 -103.0 -820.0 -78.0 -799.0C-52.0 -779.0 -48.0 -744.0 -48.0 -696.0V-152.0ZM138.0 103.0V-284.0H290.0V103.0ZM-331.0 12.0V-96.0H-192.0V12.0ZM-363.0 108.0C-387.0 -9.0 -433.0 -125.0 -494.0 -197.0C-468.0 -216.0 -421.0 -260.0 -401.0 -282.0C-336.0 -197.0 -280.0 -59.0 -247.0 80.0ZM-206.0 12.0V-10.0C-215.0 -55.0 -236.0 -130.0 -255.0 -177.0C-232.0 -190.0 -197.0 -214.0 -176.0 -231.0C-147.0 -179.0 -112.0 -97.0 -91.0 -33.0L-165.0 17.0L-181.0 12.0Z"/></g>
<g fill="black" opacity=".8" transform="translate(1600 300) scale(0.1 -0.1)"><path d="M0.0 0.0V-129.0H432.0V0.0ZM-375.0 -508.0V-614.0H-131.0V-508.0ZM-30.0 -685.0V-816.0H467.0V-685.0ZM-421.0 -152.0V-416.0C-421.0 -530.0 -425.0 -679.0 -486.0 -781.0C-464.0 -793.0 -415.0 -825.0 -395.0 -844.0C-328.0 -731.0 -317.0 -548.0 -317.0 -416.0V-152.0ZM-154.0 -152.0V-693.0C-154.0 -703.0 -155.0 -704.0 -162.0 -705.0C-167.0 -705.0 -185.0 -706.0 -201.0 -704.0C-186.0 -736.0 -172.0 -790.0 -170.0 -823.0C-131.0 -823.0 -103.0 -819.0 -78.0 -798.0C-51.0 -779.0 -48.0 -743.0 -48.0 -696.0V-152.0ZM139.0 103.0V-284.0H290.0V103.0ZM-332.0 13.0 -331.0 -96.0H-192.0V13.0ZM-363.0 108.0C-387.0 -8.0 -433.0 -125.0 -494.0 -197.0C-468.0 -217.0 -421.0 -261.0 -401.0 -283.0C-337.0 -196.0 -280.0 -59.0 -247.0 79.0ZM-206.0 12.0V-10.0C-215.0 -55.0 -235.0 -129.0 -255.0 -178.0C-232.0 -189.0 -197.0 -214.0 -177.0 -231.0C-146.0 -179.0 -112.0 -97.0 -91.0 -33.0L-165.0 17.0L-181.0 12.0Z"/></g>
<g fill="red" transform="translate(100 400) scale(0.1 -0.1)"><path d="M0.0 0.0V-29.0H262.0V0.0ZM0.0 -179.0V-208.0H262.0V-179.0ZM0.0 -363.0V-393.0H262.0V-363.0ZM-15.0 0.0V-264.0C-15.0 -375.0 -23.0 -522.0 -91.0 -629.0C-84.0 -632.0 -71.0 -639.0 -66.0 -644.0C3.0 -536.0 14.0 -379.0 14.0 -264.0V0.0ZM249.0 0.0V-596.0C249.0 -606.0 246.0 -608.0 238.0 -609.0C229.0 -609.0 201.0 -609.0 168.0 -608.0C173.0 -617.0 178.0 -629.0 180.0 -637.0C221.0 -637.0 244.0 -636.0 259.0 -631.0C274.0 -626.0 279.0 -616.0 279.0 -596.0V0.0ZM111.0 -8.0V-379.0H141.0V-8.0ZM47.0 165.0V136.0H224.0V165.0ZM58.0 253.0C28.0 135.0 -23.0 22.0 -89.0 -55.0C-81.0 -59.0 -66.0 -68.0 -61.0 -73.0C2.0 6.0 56.0 123.0 90.0 247.0ZM216.0 165.0V158.0C200.0 106.0 168.0 38.0 139.0 -6.0C146.0 -9.0 155.0 -18.0 161.0 -24.0C192.0 22.0 228.0 92.0 250.0 154.0L229.0 167.0L223.0 165.0Z"/></g>
<g fill="black" opacity=".8" transform="translate(100 400) scale(0.1 -0.1)"><path d="M0.0 0.0V-28.0H264.0V0.0ZM-0.0 -177.0V-206.0H262.0V-177.0ZM0.0 -362.0V-393.0H262.0V-362.0ZM-15.0 0.0V-266.0C-15.0 -376.0 -23.0 -524.0 -90.0 -630.0C-83.0 -632.0 -70.0 -640.0 -65.0 -646.0C3.0 -537.0 14.0 -381.0 14.0 -265.0V0.0ZM249.0 0.0V-597.0C249.0 -607.0 246.0 -610.0 236.0 -611.0C226.0 -612.0 194.0 -613.0 156.0 -611.0C161.0 -619.0 165.0 -631.0 167.0 -639.0C215.0 -639.0 243.0 -638.0 257.0 -633.0C272.0 -628.0 279.0 -617.0 279.0 -597.0V0.0ZM117.0 -9.0V-393.0H147.0V-9.0ZM49.0 167.0 48.0 137.0H228.0V167.0ZM61.0 255.0C30.0 135.0 -24.0 19.0 -92.0 -58.0C-82.0 -61.0 -68.0 -71.0 -63.0 -76.0C2.0 4.0 57.0 123.0 93.0 249.0ZM217.0 166.0V160.0C201.0 105.0 167.0 36.0 134.0 -8.0C142.0 -12.0 151.0 -21.0 156.0 -27.0C189.0 20.0 228.0 91.0 252.0 156.0L232.0 169.0L225.0 166.0Z"/></g>
<g fill="red" transform="translate(200 400) scale(0.1 -0.1)"><path d="M0.0 0.0V-104.0H271.0V0.0ZM0.0 -183.0V-283.0H271.0V-183.0ZM0.0 -365.0V-469.0H271.0V-365.0ZM-42.0 0.0V-269.0C-42.0 -381.0 -47.0 -532.0 -104.0 -638.0C-80.0 -647.0 -36.0 -675.0 -18.0 -691.0C45.0 -576.0 56.0 -396.0 56.0 -270.0V0.0ZM220.0 0.0V-571.0C220.0 -583.0 216.0 -587.0 205.0 -587.0C193.0 -587.0 159.0 -588.0 123.0 -586.0C139.0 -613.0 158.0 -662.0 163.0 -692.0C216.0 -692.0 253.0 -689.0 284.0 -670.0C314.0 -652.0 323.0 -620.0 323.0 -574.0V0.0ZM90.0 -54.0V-437.0H175.0V-54.0ZM44.0 167.0V62.0H198.0V167.0ZM7.0 256.0C-17.0 153.0 -60.0 53.0 -116.0 -12.0C-96.0 -37.0 -65.0 -92.0 -55.0 -117.0C20.0 -33.0 78.0 100.0 112.0 230.0ZM178.0 167.0V147.0C164.0 103.0 132.0 34.0 103.0 -7.0C122.0 -23.0 153.0 -55.0 168.0 -76.0C211.0 -25.0 260.0 55.0 294.0 124.0L224.0 173.0L203.0 167.0Z"/></g>
<g fill="black" opacity=".8" transform="translate(200 400) scale(0.1 -0.1)"><path d="M0.0 0.0V-105.0H268.0V0.0ZM-2.0 -179.0V-280.0H261.0V-179.0ZM-1.0 -357.0V-463.0H267.0V-357.0ZM-48.0 -1.0V-271.0C-48.0 -383.0 -52.0 -534.0 -110.0 -637.0C-85.0 -649.0 -38.0 -678.0 -18.0 -694.0C46.0 -580.0 57.0 -399.0 57.0 -270.0V-1.0ZM211.0 -1.0V-568.0C211.0 -579.0 209.0 -583.0 201.0 -583.0C193.0 -582.0 169.0 -583.0 144.0 -581.0C160.0 -610.0 177.0 -662.0 181.0 -693.0C227.0 -693.0 258.0 -689.0 285.0 -669.0C315.0 -650.0 321.0 -616.0 321.0 -571.0V-1.0ZM90.0 -54.0V-423.0H177.0V-54.0ZM44.0 169.0 43.0 63.0H204.0V169.0ZM10.0 256.0C-15.0 153.0 -62.0 50.0 -121.0 -15.0C-101.0 -39.0 -66.0 -92.0 -55.0 -116.0C22.0 -32.0 82.0 99.0 118.0 230.0ZM177.0 168.0V148.0C163.0 105.0 133.0 36.0 104.0 -6.0C124.0 -20.0 155.0 -54.0 170.0 -75.0C213.0 -24.0 260.0 56.0 295.0 124.0L224.0 175.0L201.0 168.0Z"/></g>
<g fill="red" transform="translate(300 400) scale(0.1 -0.1)"><path d="M0.0 0.0V-29.0H244.0V0.0ZM0.0 -174.0V-203.0H244.0V-174.0ZM0.0 -353.0V-383.0H244.0V-353.0ZM-15.0 0.0V-267.0C-15.0 -380.0 -23.0 -529.0 -91.0 -637.0C-84.0 -640.0 -71.0 -647.0 -66.0 -652.0C3.0 -543.0 14.0 -383.0 14.0 -267.0V0.0ZM231.0 0.0V-597.0C231.0 -609.0 227.0 -613.0 214.0 -613.0C203.0 -614.0 164.0 -614.0 115.0 -613.0C120.0 -621.0 125.0 -633.0 127.0 -641.0C187.0 -641.0 219.0 -641.0 237.0 -636.0C253.0 -630.0 260.0 -619.0 260.0 -597.0V0.0ZM106.0 -8.0V-370.0H136.0V-8.0ZM43.0 165.0V136.0H202.0V165.0ZM58.0 253.0C25.0 131.0 -27.0 7.0 -91.0 -75.0C-83.0 -79.0 -68.0 -89.0 -62.0 -93.0C-1.0 -7.0 53.0 118.0 90.0 246.0ZM656.0 161.0V154.0C636.0 99.0 598.0 25.0 566.0 -20.0C573.0 -23.0 583.0 -28.0 587.0 -32.0C621.0 13.0 662.0 85.0 687.0 150.0L668.0 163.0L662.0 161.0Z"/></g>
<g fill="black" opacity=".8" transform="translate(300 400) scale(0.1 -0.1)"><path d="M0.0 0.0V-28.0H244.0V0.0ZM-0.0 -174.0V-204.0H244.0V-174.0ZM1.0 -354.0V-385.0H243.0V-354.0ZM-16.0 0.0V-268.0C-16.0 -379.0 -24.0 -530.0 -90.0 -636.0C-83.0 -640.0 -70.0 -647.0 -65.0 -653.0C3.0 -542.0 13.0 -384.0 13.0 -268.0V0.0ZM231.0 0.0V-597.0C231.0 -608.0 228.0 -613.0 215.0 -613.0C203.0 -614.0 163.0 -614.0 115.0 -613.0C119.0 -621.0 124.0 -632.0 126.0 -640.0C187.0 -641.0 220.0 -640.0 237.0 -635.0C251.0 -629.0 260.0 -617.0 260.0 -597.0V0.0ZM106.0 -7.0V-369.0H136.0V-7.0ZM43.0 164.0V135.0H206.0V164.0ZM57.0 253.0C25.0 129.0 -26.0 6.0 -91.0 -75.0C-82.0 -79.0 -67.0 -89.0 -60.0 -93.0C-0.0 -7.0 53.0 118.0 90.0 245.0ZM655.0 160.0V153.0C636.0 98.0 598.0 26.0 565.0 -20.0C573.0 -22.0 583.0 -28.0 586.0 -32.0C620.0 12.0 662.0 84.0 686.0 149.0L668.0 163.0L662.0 160.0Z"/></g>
<g fill="red" transform="translate(400 400) scale(0.1 -0.1)"><path d="M0.0 0.0V-104.0H271.0V0.0ZM0.0 -163.0V-263.0H271.0V-163.0ZM0.0 -325.0V-429.0H271.0V-325.0ZM-55.0 0.0V-270.0C-55.0 -382.0 -59.0 -532.0 -117.0 -638.0C-91.0 -648.0 -44.0 -678.0 -25.0 -695.0C39.0 -580.0 50.0 -398.0 50.0 -270.0V0.0ZM187.0 0.0V-568.0C187.0 -579.0 184.0 -582.0 173.0 -583.0C162.0 -583.0 130.0 -583.0 100.0 -581.0C116.0 -611.0 133.0 -663.0 136.0 -695.0C189.0 -695.0 227.0 -692.0 258.0 -673.0C289.0 -653.0 297.0 -620.0 297.0 -571.0V0.0ZM75.0 -54.0V-360.0H160.0V-54.0ZM45.0 167.0V62.0H181.0V167.0ZM7.0 256.0C-19.0 146.0 -65.0 29.0 -118.0 -45.0C-91.0 -63.0 -42.0 -102.0 -21.0 -123.0C36.0 -37.0 92.0 100.0 126.0 227.0ZM617.0 178.0V155.0C604.0 107.0 574.0 27.0 546.0 -24.0C573.0 -37.0 613.0 -62.0 637.0 -79.0C674.0 -24.0 723.0 63.0 753.0 128.0L666.0 183.0L646.0 178.0Z"/></g>
<g fill="black" opacity=".8" transform="translate(400 400) scale(0.1 -0.1)"><path d="M0.0 0.0V-104.0H271.0V0.0ZM-0.0 -164.0V-265.0H269.0V-164.0ZM1.0 -328.0V-431.0H271.0V-328.0ZM-54.0 -1.0V-271.0C-54.0 -384.0 -58.0 -534.0 -116.0 -638.0C-90.0 -648.0 -44.0 -677.0 -22.0 -694.0C40.0 -580.0 51.0 -398.0 51.0 -269.0V-1.0ZM187.0 -1.0V-568.0C187.0 -579.0 185.0 -582.0 174.0 -584.0C163.0 -583.0 130.0 -584.0 99.0 -581.0C114.0 -611.0 131.0 -663.0 135.0 -695.0C190.0 -695.0 227.0 -690.0 259.0 -672.0C291.0 -652.0 298.0 -618.0 298.0 -570.0V-1.0ZM76.0 -54.0V-361.0H160.0V-54.0ZM44.0 168.0 45.0 62.0H183.0V168.0ZM6.0 255.0C-18.0 147.0 -65.0 29.0 -118.0 -45.0C-91.0 -63.0 -41.0 -104.0 -21.0 -123.0C37.0 -36.0 93.0 100.0 127.0 226.0ZM617.0 178.0V155.0C604.0 107.0 574.0 27.0 546.0 -25.0C573.0 -36.0 613.0 -62.0 637.0 -79.0C675.0 -24.0 722.0 63.0 753.0 128.0L666.0 183.0L645.0 178.0Z"/></g>
<g fill="red" transform="translate(500 400) scale(0.1 -0.1)"><path d="M0.0 0.0V-29.0H301.0V0.0ZM0.0 -174.0V-203.0H301.0V-174.0ZM0.0 -353.0V-383.0H301.0V-353.0ZM-15.0 0.0V-267.0C-15.0 -380.0 -23.0 -529.0 -91.0 -637.0C-84.0 -640.0 -71.0 -647.0 -66.0 -652.0C3.0 -543.0 14.0 -383.0 14.0 -267.0V0.0ZM283.0 0.0V-602.0C283.0 -617.0 278.0 -621.0 262.0 -622.0C248.0 -623.0 198.0 -623.0 136.0 -622.0C141.0 -630.0 146.0 -642.0 148.0 -649.0C224.0 -649.0 264.0 -649.0 285.0 -643.0C304.0 -639.0 312.0 -627.0 312.0 -602.0V0.0ZM132.0 -8.0V-370.0H161.0V-8.0ZM55.0 165.0V136.0H228.0V165.0ZM72.0 253.0C37.0 127.0 -20.0 5.0 -94.0 -75.0C-86.0 -79.0 -71.0 -89.0 -65.0 -94.0C5.0 -10.0 65.0 114.0 103.0 246.0ZM217.0 165.0V158.0C200.0 103.0 166.0 31.0 135.0 -13.0C143.0 -18.0 151.0 -26.0 157.0 -32.0C190.0 15.0 228.0 89.0 251.0 154.0L230.0 167.0L224.0 165.0Z"/></g>
<g fill="black" opacity=".8" transform="translate(500 400) scale(0.1 -0.1)"><path d="M0.0 0.0V-28.0H299.0V0.0ZM-3.0 -175.0V-209.0H294.0V-175.0ZM0.0 -358.0V-388.0H298.0V-358.0ZM-18.0 -1.0V-269.0C-18.0 -380.0 -26.0 -528.0 -91.0 -636.0C-83.0 -638.0 -71.0 -646.0 -65.0 -652.0C0.0 -541.0 11.0 -384.0 11.0 -268.0V-1.0ZM281.0 -1.0V-603.0C281.0 -615.0 277.0 -620.0 263.0 -620.0C251.0 -622.0 206.0 -623.0 153.0 -621.0C158.0 -629.0 163.0 -640.0 165.0 -648.0C231.0 -648.0 267.0 -647.0 285.0 -642.0C302.0 -637.0 310.0 -625.0 310.0 -603.0V-1.0ZM128.0 -6.0V-368.0H157.0V-6.0ZM51.0 161.0V132.0H229.0V161.0ZM69.0 247.0C35.0 126.0 -22.0 8.0 -94.0 -68.0C-84.0 -72.0 -71.0 -83.0 -65.0 -88.0C4.0 -6.0 64.0 114.0 100.0 240.0ZM213.0 161.0V154.0C198.0 102.0 166.0 34.0 137.0 -9.0C145.0 -13.0 155.0 -21.0 160.0 -26.0C189.0 19.0 225.0 88.0 247.0 150.0L227.0 164.0L221.0 161.0Z"/></g>
<g fill="red" transform="translate(600 400) scale(0.1 -0.1)"><path d="M0.0 0.0V-105.0H271.0V0.0ZM0.0 -161.0V-262.0H271.0V-161.0ZM0.0 -322.0V-427.0H271.0V-322.0ZM-55.0 0.0V-267.0C-55.0 -378.0 -60.0 -526.0 -122.0 -629.0C-95.0 -641.0 -45.0 -673.0 -24.0 -691.0C46.0 -578.0 58.0 -397.0 58.0 -267.0V0.0ZM213.0 0.0V-559.0C213.0 -570.0 209.0 -574.0 198.0 -574.0C187.0 -574.0 152.0 -574.0 119.0 -573.0C136.0 -604.0 153.0 -659.0 157.0 -693.0C214.0 -693.0 255.0 -690.0 287.0 -669.0C320.0 -649.0 329.0 -614.0 329.0 -562.0V0.0ZM88.0 -54.0V-360.0H180.0V-54.0ZM45.0 168.0V60.0H190.0V168.0ZM7.0 258.0C-17.0 143.0 -62.0 28.0 -124.0 -43.0C-95.0 -62.0 -45.0 -104.0 -23.0 -126.0C44.0 -41.0 101.0 95.0 133.0 231.0ZM152.0 168.0V147.0C142.0 104.0 119.0 35.0 98.0 -6.0C119.0 -23.0 153.0 -59.0 170.0 -82.0C207.0 -29.0 248.0 53.0 278.0 123.0L202.0 175.0L179.0 168.0Z"/></g>
<g fill="black" opacity=".8" transform="translate(600 400) scale(0.1 -0.1)"><path d="M0.0 0.0V-109.0H268.0V0.0ZM3.0 -167.0V-272.0H258.0V-167.0ZM6.0 -330.0V-438.0H265.0V-330.0ZM-55.0 -2.0V-270.0C-55.0 -381.0 -59.0 -529.0 -117.0 -630.0C-90.0 -643.0 -39.0 -677.0 -17.0 -695.0C49.0 -582.0 61.0 -400.0 61.0 -269.0V-2.0ZM217.0 -2.0V-555.0C217.0 -567.0 214.0 -572.0 201.0 -572.0C189.0 -572.0 148.0 -573.0 110.0 -570.0C127.0 -602.0 145.0 -658.0 150.0 -692.0C213.0 -692.0 256.0 -688.0 291.0 -668.0C328.0 -648.0 337.0 -611.0 337.0 -557.0V-2.0ZM87.0 -49.0V-366.0H183.0V-49.0ZM42.0 164.0 41.0 55.0H195.0V164.0ZM14.0 251.0C-10.0 143.0 -58.0 32.0 -119.0 -36.0C-91.0 -56.0 -42.0 -101.0 -21.0 -123.0C46.0 -39.0 106.0 93.0 141.0 222.0ZM155.0 163.0V142.0C143.0 98.0 117.0 26.0 93.0 -19.0C116.0 -33.0 153.0 -64.0 173.0 -83.0C211.0 -31.0 255.0 51.0 284.0 116.0L203.0 169.0L182.0 163.0Z"/></g>
<g fill="red" transform="translate(700 400) scale(0.1 -0.1)"><path d="M0.0 0.0V-29.0H275.0V0.0ZM0.0 -174.0V-203.0H275.0V-174.0ZM0.0 -353.0V-383.0H275.0V-353.0ZM-15.0 0.0V-267.0C-15.0 -380.0 -23.0 -529.0 -91.0 -637.0C-84.0 -640.0 -71.0 -647.0 -66.0 -652.0C3.0 -543.0 14.0 -383.0 14.0 -267.0V0.0ZM258.0 0.0V-605.0C258.0 -617.0 253.0 -621.0 241.0 -622.0C229.0 -622.0 186.0 -623.0 133.0 -622.0C138.0 -630.0 144.0 -642.0 146.0 -649.0C209.0 -649.0 244.0 -649.0 262.0 -643.0C281.0 -639.0 288.0 -628.0 288.0 -604.0V0.0ZM119.0 -8.0V-370.0H148.0V-8.0ZM52.0 165.0V136.0H221.0V165.0ZM68.0 253.0C35.0 127.0 -19.0 6.0 -90.0 -75.0C-81.0 -79.0 -67.0 -89.0 -61.0 -94.0C6.0 -9.0 63.0 114.0 99.0 246.0ZM208.0 165.0V158.0C192.0 104.0 157.0 34.0 126.0 -9.0C134.0 -13.0 144.0 -22.0 148.0 -28.0C181.0 18.0 219.0 90.0 243.0 154.0L221.0 167.0L215.0 165.0Z"/></g>
<g fill="black" opacity=".8" transform="translate(700 400) scale(0.1 -0.1)"><path d="M0.0 0.0V-28.0H281.0V0.0ZM-1.0 -174.0V-210.0H275.0V-174.0ZM1.0 -356.0V-387.0H279.0V-356.0ZM-17.0 -0.0V-265.0C-17.0 -377.0 -25.0 -526.0 -89.0 -635.0C-82.0 -637.0 -69.0 -644.0 -63.0 -651.0C1.0 -539.0 12.0 -381.0 12.0 -265.0V-0.0ZM263.0 -0.0V-602.0C263.0 -613.0 259.0 -618.0 246.0 -618.0C235.0 -619.0 195.0 -620.0 146.0 -618.0C151.0 -626.0 156.0 -638.0 158.0 -645.0C218.0 -646.0 251.0 -644.0 268.0 -639.0C284.0 -635.0 292.0 -623.0 292.0 -602.0V-0.0ZM117.0 -5.0V-365.0H147.0V-5.0ZM47.0 161.0 48.0 133.0H221.0V161.0ZM63.0 248.0C31.0 128.0 -22.0 10.0 -92.0 -66.0C-83.0 -70.0 -69.0 -80.0 -63.0 -85.0C3.0 -4.0 60.0 115.0 95.0 241.0ZM203.0 161.0V154.0C189.0 102.0 158.0 34.0 129.0 -9.0C137.0 -13.0 147.0 -21.0 152.0 -26.0C181.0 19.0 216.0 88.0 238.0 151.0L217.0 164.0L211.0 161.0Z"/></g>
<g fill="red" transform="translate(800 400) scale(0.1 -0.1)"><path d="M0.0 0.0V-105.0H271.0V0.0ZM0.0 -161.0V-262.0H271.0V-161.0ZM0.0 -322.0V-427.0H271.0V-322.0ZM-55.0 0.0V-267.0C-55.0 -378.0 -60.0 -526.0 -122.0 -629.0C-95.0 -641.0 -45.0 -673.0 -24.0 -691.0C46.0 -578.0 58.0 -397.0 58.0 -267.0V0.0ZM213.0 0.0V-559.0C213.0 -570.0 209.0 -574.0 198.0 -574.0C187.0 -574.0 152.0 -574.0 119.0 -573.0C136.0 -604.0 153.0 -659.0 157.0 -693.0C214.0 -693.0 255.0 -690.0 287.0 -669.0C320.0 -649.0 329.0 -614.0 329.0 -562.0V0.0ZM88.0 -54.0V-360.0H180.0V-54.0ZM45.0 168.0V60.0H190.0V168.0ZM9.0 258.0C-15.0 143.0 -60.0 28.0 -122.0 -43.0C-94.0 -61.0 -44.0 -103.0 -23.0 -125.0C44.0 -40.0 100.0 96.0 132.0 232.0ZM152.0 168.0V147.0C142.0 104.0 119.0 35.0 98.0 -6.0C117.0 -22.0 151.0 -56.0 166.0 -78.0C205.0 -26.0 247.0 54.0 277.0 121.0L203.0 175.0L180.0 168.0Z"/></g>
<g fill="black" opacity=".8" transform="translate(800 400) scale(0.1 -0.1)"><path d="M0.0 0.0V-106.0H264.0V0.0ZM3.0 -169.0V-274.0H254.0V-169.0ZM5.0 -336.0V-441.0H262.0V-336.0ZM-49.0 -2.0V-273.0C-49.0 -384.0 -53.0 -532.0 -109.0 -633.0C-83.0 -645.0 -34.0 -677.0 -12.0 -695.0C51.0 -582.0 62.0 -401.0 62.0 -272.0V-2.0ZM211.0 -2.0V-559.0C211.0 -571.0 209.0 -575.0 197.0 -576.0C186.0 -576.0 149.0 -576.0 114.0 -574.0C131.0 -605.0 149.0 -660.0 154.0 -693.0C212.0 -693.0 252.0 -689.0 284.0 -668.0C319.0 -649.0 327.0 -613.0 327.0 -562.0V-2.0ZM84.0 -48.0V-367.0H176.0V-48.0ZM43.0 164.0 48.0 57.0H196.0V164.0ZM14.0 251.0C-10.0 143.0 -56.0 32.0 -114.0 -36.0C-89.0 -57.0 -43.0 -104.0 -25.0 -126.0C44.0 -41.0 102.0 93.0 135.0 223.0ZM156.0 163.0V142.0C145.0 99.0 120.0 28.0 95.0 -17.0C117.0 -30.0 152.0 -62.0 170.0 -82.0C209.0 -30.0 251.0 51.0 281.0 118.0L204.0 169.0L182.0 163.0Z"/></g>
<g fill="red" transform="translate(900 400) scale(0.1 -0.1)"><path d="M0.0 0.0V-29.0H387.0V0.0ZM0.0 -177.0V-206.0H387.0V-177.0ZM-8.0 -367.0V-397.0H387.0V-367.0ZM-21.0 0.0V-284.0C-21.0 -392.0 -30.0 -529.0 -109.0 -629.0C-102.0 -633.0 -91.0 -644.0 -87.0 -650.0C-4.0 -545.0 9.0 -397.0 9.0 -284.0V0.0ZM373.0 0.0V-595.0C373.0 -608.0 370.0 -612.0 355.0 -613.0C341.0 -614.0 292.0 -614.0 233.0 -613.0C238.0 -622.0 243.0 -636.0 245.0 -644.0C313.0 -644.0 356.0 -644.0 376.0 -638.0C396.0 -632.0 403.0 -621.0 403.0 -595.0V0.0ZM170.0 -21.0V-617.0H199.0V-21.0ZM84.0 168.0 70.0 138.0H315.0V168.0ZM106.0 257.0C60.0 137.0 -17.0 22.0 -100.0 -55.0C-92.0 -59.0 -80.0 -70.0 -75.0 -75.0C6.0 5.0 84.0 124.0 134.0 250.0ZM298.0 168.0V161.0C273.0 107.0 224.0 34.0 182.0 -9.0C189.0 -12.0 199.0 -17.0 204.0 -22.0C247.0 22.0 299.0 91.0 330.0 156.0L311.0 170.0L305.0 168.0Z"/></g>
<g fill="black" opacity=".8" transform="translate(900 400) scale(0.1 -0.1)"><path d="M0.0 0.0V-29.0H387.0V0.0ZM-0.0 -178.0V-210.0H385.0V-178.0ZM-9.0 -371.0V-402.0H386.0V-371.0ZM-21.0 -0.0V-278.0C-21.0 -387.0 -32.0 -528.0 -119.0 -629.0C-112.0 -634.0 -101.0 -646.0 -98.0 -653.0C-6.0 -543.0 9.0 -394.0 9.0 -278.0V-0.0ZM374.0 -0.0V-596.0C374.0 -609.0 371.0 -613.0 357.0 -613.0C344.0 -615.0 297.0 -615.0 243.0 -614.0C248.0 -623.0 252.0 -636.0 255.0 -645.0C317.0 -645.0 359.0 -645.0 378.0 -638.0C396.0 -632.0 404.0 -620.0 404.0 -596.0V-0.0ZM167.0 -19.0V-617.0H197.0V-19.0ZM85.0 172.0 71.0 141.0H311.0V172.0ZM108.0 258.0C63.0 141.0 -15.0 24.0 -100.0 -55.0C-91.0 -59.0 -80.0 -70.0 -75.0 -76.0C8.0 6.0 87.0 129.0 136.0 251.0ZM293.0 171.0V164.0C269.0 109.0 222.0 35.0 180.0 -9.0C188.0 -12.0 198.0 -18.0 203.0 -22.0C244.0 23.0 294.0 93.0 325.0 159.0L306.0 174.0L301.0 171.0Z"/></g>
<g fill="red" transform="translate(1000 400) scale(0.1 -0.1)"><path d="M0.0 0.0V-121.0H320.0V0.0ZM0.0 -169.0V-278.0H320.0V-169.0ZM0.0 -326.0V-448.0H320.0V-326.0ZM-95.0 0.0V-242.0C-95.0 -359.0 -102.0 -517.0 -181.0 -625.0C-151.0 -639.0 -96.0 -677.0 -74.0 -699.0C14.0 -579.0 29.0 -383.0 29.0 -243.0V0.0ZM259.0 0.0V-547.0C259.0 -558.0 256.0 -561.0 246.0 -561.0C237.0 -561.0 210.0 -561.0 189.0 -560.0C202.0 -594.0 214.0 -647.0 217.0 -682.0C272.0 -682.0 314.0 -681.0 345.0 -661.0C378.0 -640.0 386.0 -608.0 386.0 -549.0V0.0ZM83.0 -55.0V-654.0H200.0V-55.0ZM29.0 178.0 -25.0 62.0H206.0V178.0ZM-5.0 263.0C-41.0 155.0 -108.0 56.0 -188.0 -4.0C-167.0 -31.0 -130.0 -90.0 -116.0 -118.0C-20.0 -38.0 62.0 92.0 109.0 230.0ZM164.0 178.0V153.0C151.0 111.0 117.0 39.0 89.0 -7.0C116.0 -23.0 156.0 -50.0 179.0 -70.0C218.0 -19.0 268.0 62.0 299.0 122.0L213.0 184.0L193.0 178.0Z"/></g>
<g fill="black" opacity=".8" transform="translate(1000 400) scale(0.1 -0.1)"><path d="M0.0 0.0V-120.0H313.0V0.0ZM-4.0 -173.0V-285.0H310.0V-173.0ZM-3.0 -335.0V-458.0H315.0V-335.0ZM-92.0 -1.0V-235.0C-92.0 -353.0 -99.0 -510.0 -184.0 -617.0C-157.0 -633.0 -105.0 -676.0 -84.0 -699.0C14.0 -578.0 32.0 -377.0 32.0 -236.0V-1.0ZM259.0 -1.0V-544.0C259.0 -556.0 256.0 -558.0 246.0 -559.0C236.0 -559.0 207.0 -559.0 181.0 -557.0C195.0 -592.0 208.0 -648.0 212.0 -684.0C269.0 -684.0 311.0 -681.0 343.0 -661.0C379.0 -639.0 385.0 -604.0 385.0 -547.0V-1.0ZM85.0 -44.0V-650.0H198.0V-44.0ZM30.0 182.0 -27.0 66.0H209.0V182.0ZM-1.0 265.0C-35.0 164.0 -101.0 62.0 -179.0 0.0C-160.0 -29.0 -126.0 -91.0 -115.0 -120.0C-15.0 -37.0 67.0 95.0 117.0 230.0ZM171.0 181.0V157.0C156.0 113.0 119.0 40.0 88.0 -8.0C115.0 -22.0 155.0 -48.0 179.0 -67.0C220.0 -16.0 272.0 65.0 305.0 127.0L219.0 186.0L199.0 181.0Z"/></g>
<g fill="red" transform="translate(1100 400) scale(0.1 -0.1)"><path d="M0.0 0.0V-29.0H235.0V0.0ZM-2.0 -176.0V-206.0H233.0V-176.0ZM-8.0 -363.0V-393.0H231.0V-363.0ZM-15.0 0.0V-230.0C-15.0 -350.0 -24.0 -511.0 -95.0 -633.0C-87.0 -637.0 -76.0 -647.0 -71.0 -653.0C2.0 -527.0 14.0 -354.0 14.0 -230.0V0.0ZM221.0 0.0V-597.0C221.0 -606.0 218.0 -608.0 209.0 -609.0C201.0 -609.0 175.0 -609.0 142.0 -608.0C147.0 -617.0 154.0 -630.0 157.0 -638.0C196.0 -638.0 218.0 -637.0 232.0 -631.0C246.0 -626.0 251.0 -615.0 251.0 -597.0V0.0ZM103.0 -13.0V-583.0H133.0V-13.0ZM53.0 165.0V136.0H195.0V165.0ZM68.0 245.0C41.0 146.0 -12.0 23.0 -78.0 -60.0C-71.0 -64.0 -61.0 -73.0 -57.0 -79.0C12.0 6.0 67.0 134.0 98.0 237.0ZM188.0 164.0V157.0C173.0 104.0 144.0 32.0 119.0 -12.0C127.0 -15.0 138.0 -21.0 143.0 -25.0C169.0 20.0 199.0 90.0 219.0 153.0L199.0 166.0L193.0 164.0Z"/></g>
<g fill="black" opacity=".8" transform="translate(1100 400) scale(0.1 -0.1)"><path d="M0.0 0.0V-28.0H235.0V0.0ZM-3.0 -176.0V-205.0H234.0V-176.0ZM-6.0 -362.0V-392.0H230.0V-362.0ZM-17.0 0.0V-239.0C-17.0 -355.0 -23.0 -514.0 -82.0 -632.0C-74.0 -636.0 -63.0 -645.0 -57.0 -651.0C2.0 -528.0 12.0 -360.0 12.0 -239.0V0.0ZM221.0 0.0V-596.0C221.0 -605.0 218.0 -608.0 208.0 -608.0C199.0 -609.0 170.0 -609.0 134.0 -608.0C139.0 -616.0 145.0 -629.0 148.0 -636.0C192.0 -637.0 217.0 -635.0 230.0 -630.0C244.0 -625.0 250.0 -614.0 250.0 -596.0V0.0ZM104.0 -14.0V-580.0H134.0V-14.0ZM51.0 159.0V131.0H205.0V159.0ZM65.0 241.0C38.0 139.0 -12.0 20.0 -77.0 -60.0C-68.0 -62.0 -58.0 -72.0 -53.0 -79.0C12.0 4.0 65.0 128.0 95.0 235.0ZM192.0 158.0V152.0C178.0 100.0 148.0 32.0 121.0 -11.0C130.0 -14.0 141.0 -20.0 145.0 -25.0C172.0 18.0 204.0 86.0 224.0 148.0L205.0 161.0L198.0 158.0Z"/></g>
<g fill="red" transform="translate(1200 400) scale(0.1 -0.1)"><path d="M0.0 0.0V-103.0H226.0V0.0ZM0.0 -175.0V-274.0H230.0V-175.0ZM0.0 -348.0V-453.0H235.0V-348.0ZM-38.0 0.0V-262.0C-38.0 -372.0 -42.0 -518.0 -98.0 -621.0C-79.0 -635.0 -39.0 -683.0 -26.0 -706.0C49.0 -585.0 64.0 -393.0 64.0 -263.0V0.0ZM182.0 0.0V-556.0C182.0 -566.0 179.0 -569.0 169.0 -569.0C159.0 -570.0 129.0 -570.0 98.0 -568.0C114.0 -601.0 130.0 -657.0 132.0 -691.0C182.0 -691.0 218.0 -687.0 248.0 -666.0C278.0 -646.0 283.0 -607.0 283.0 -559.0V0.0ZM85.0 -20.0V-556.0H161.0V-20.0ZM43.0 170.0V69.0H179.0V170.0ZM11.0 246.0C-4.0 145.0 -39.0 13.0 -94.0 -65.0C-79.0 -93.0 -58.0 -150.0 -50.0 -180.0C34.0 -79.0 91.0 76.0 124.0 219.0ZM155.0 170.0V152.0C146.0 103.0 127.0 28.0 105.0 -18.0C127.0 -29.0 160.0 -49.0 179.0 -63.0C208.0 -12.0 239.0 69.0 256.0 138.0L191.0 174.0L176.0 170.0Z"/></g>
<g fill="black" opacity=".8" transform="translate(1200 400) scale(0.1 -0.1)"><path d="M0.0 0.0V-103.0H235.0V0.0ZM5.0 -172.0V-269.0H237.0V-172.0ZM6.0 -345.0V-448.0H239.0V-345.0ZM-41.0 -0.0V-271.0C-41.0 -381.0 -44.0 -527.0 -91.0 -629.0C-69.0 -643.0 -27.0 -683.0 -11.0 -704.0C51.0 -585.0 62.0 -400.0 62.0 -270.0V-0.0ZM182.0 -0.0V-557.0C182.0 -568.0 180.0 -571.0 170.0 -571.0C162.0 -571.0 134.0 -572.0 105.0 -570.0C120.0 -601.0 134.0 -655.0 137.0 -687.0C186.0 -687.0 221.0 -683.0 250.0 -663.0C280.0 -644.0 285.0 -608.0 285.0 -560.0V-0.0ZM83.0 -30.0V-562.0H163.0V-30.0ZM40.0 167.0 45.0 64.0H177.0V167.0ZM7.0 244.0C-9.0 136.0 -46.0 6.0 -102.0 -71.0C-85.0 -98.0 -60.0 -153.0 -51.0 -180.0C30.0 -80.0 85.0 73.0 117.0 218.0ZM148.0 167.0V148.0C139.0 101.0 123.0 26.0 104.0 -21.0C127.0 -32.0 160.0 -53.0 179.0 -68.0C206.0 -17.0 233.0 65.0 250.0 132.0L184.0 171.0L168.0 167.0Z"/></g>
<g fill="red" transform="translate(1300 400) scale(0.1 -0.1)"><path d="M0.0 0.0V-29.0H329.0V0.0ZM-5.0 -186.0V-216.0H326.0V-186.0ZM-5.0 -376.0V-406.0H326.0V-376.0ZM-22.0 0.0V-275.0C-22.0 -388.0 -28.0 -542.0 -85.0 -654.0C-77.0 -657.0 -65.0 -664.0 -59.0 -668.0C-1.0 -556.0 7.0 -392.0 7.0 -275.0V0.0ZM313.0 0.0V-625.0C313.0 -636.0 309.0 -639.0 299.0 -639.0C289.0 -640.0 256.0 -640.0 215.0 -639.0C220.0 -647.0 225.0 -660.0 227.0 -666.0C277.0 -666.0 305.0 -666.0 321.0 -662.0C337.0 -656.0 343.0 -646.0 343.0 -624.0V0.0ZM148.0 -12.0V-391.0H177.0V-12.0ZM61.0 145.0V116.0H260.0V145.0ZM77.0 231.0C46.0 123.0 -6.0 21.0 -72.0 -48.0C-63.0 -53.0 -49.0 -62.0 -44.0 -67.0C19.0 5.0 74.0 112.0 108.0 224.0ZM253.0 145.0V138.0C237.0 92.0 205.0 30.0 177.0 -7.0C185.0 -11.0 196.0 -17.0 201.0 -21.0C230.0 18.0 265.0 77.0 287.0 133.0L266.0 147.0L260.0 145.0Z"/></g>
<g fill="black" opacity=".8" transform="translate(1300 400) scale(0.1 -0.1)"><path d="M0.0 0.0V-29.0H329.0V0.0ZM1.0 -176.0V-203.0H336.0V-176.0ZM-4.0 -360.0V-391.0H327.0V-360.0ZM-14.0 1.0V-262.0C-14.0 -379.0 -23.0 -537.0 -97.0 -651.0C-89.0 -653.0 -76.0 -661.0 -70.0 -667.0C3.0 -551.0 16.0 -384.0 16.0 -262.0V1.0ZM320.0 1.0V-618.0C320.0 -630.0 315.0 -635.0 300.0 -635.0C287.0 -636.0 241.0 -637.0 185.0 -635.0C190.0 -643.0 195.0 -656.0 197.0 -662.0C268.0 -663.0 305.0 -662.0 323.0 -657.0C341.0 -652.0 349.0 -639.0 349.0 -616.0V1.0ZM151.0 -12.0V-389.0H181.0V-12.0ZM59.0 162.0 61.0 133.0H247.0V162.0ZM77.0 250.0C45.0 130.0 -11.0 9.0 -84.0 -69.0C-74.0 -73.0 -61.0 -84.0 -55.0 -89.0C15.0 -6.0 74.0 117.0 110.0 242.0ZM246.0 162.0V156.0C233.0 103.0 203.0 34.0 176.0 -8.0C185.0 -12.0 196.0 -19.0 200.0 -23.0C227.0 21.0 260.0 89.0 281.0 151.0L260.0 165.0L254.0 162.0Z"/></g>
<g fill="red" transform="translate(1400 400) scale(0.1 -0.1)"><path d="M0.0 0.0V-113.0H293.0V0.0ZM21.0 -165.0V-266.0H292.0V-165.0ZM21.0 -330.0V-435.0H292.0V-330.0ZM-59.0 0.0V-272.0C-59.0 -385.0 -62.0 -537.0 -109.0 -642.0C-79.0 -655.0 -23.0 -693.0 0.0 -714.0C54.0 -596.0 64.0 -406.0 64.0 -272.0V0.0ZM246.0 0.0V-557.0C246.0 -570.0 242.0 -574.0 230.0 -574.0C218.0 -574.0 178.0 -575.0 148.0 -572.0C163.0 -606.0 177.0 -662.0 182.0 -698.0C245.0 -698.0 291.0 -696.0 327.0 -676.0C361.0 -655.0 371.0 -621.0 371.0 -559.0V0.0ZM99.0 -52.0V-358.0H200.0V-52.0ZM45.0 159.0V48.0H235.0V159.0ZM25.0 248.0C0.0 130.0 -50.0 14.0 -114.0 -57.0C-87.0 -79.0 -39.0 -128.0 -18.0 -153.0C52.0 -66.0 114.0 75.0 149.0 217.0ZM196.0 159.0V135.0C187.0 92.0 167.0 17.0 146.0 -30.0C172.0 -45.0 212.0 -71.0 235.0 -90.0C265.0 -38.0 302.0 46.0 323.0 110.0L241.0 164.0L223.0 159.0Z"/></g>
<g fill="black" opacity=".8" transform="translate(1400 400) scale(0.1 -0.1)"><path d="M0.0 0.0V-109.0H299.0V0.0ZM11.0 -163.0V-265.0H304.0V-163.0ZM9.0 -331.0V-437.0H297.0V-331.0ZM-50.0 1.0V-268.0C-50.0 -382.0 -55.0 -534.0 -123.0 -637.0C-95.0 -652.0 -41.0 -689.0 -19.0 -710.0C59.0 -593.0 73.0 -403.0 73.0 -267.0V1.0ZM249.0 1.0V-561.0C249.0 -573.0 245.0 -578.0 231.0 -578.0C219.0 -579.0 174.0 -579.0 134.0 -576.0C152.0 -610.0 171.0 -669.0 176.0 -705.0C242.0 -705.0 288.0 -701.0 325.0 -680.0C363.0 -659.0 372.0 -620.0 372.0 -563.0V1.0ZM109.0 -52.0V-368.0H209.0V-52.0ZM52.0 168.0 60.0 58.0H223.0V168.0ZM20.0 257.0C-5.0 140.0 -56.0 14.0 -122.0 -61.0C-93.0 -82.0 -42.0 -129.0 -20.0 -152.0C54.0 -60.0 118.0 85.0 155.0 226.0ZM198.0 167.0V145.0C188.0 99.0 167.0 23.0 145.0 -27.0C171.0 -39.0 212.0 -66.0 236.0 -84.0C269.0 -30.0 306.0 55.0 330.0 121.0L245.0 173.0L225.0 167.0Z"/></g>
</svg>
