<?xml version="1.0" encoding="UTF-8"?>
<svg width="1700" height="800" xmlns="http://www.w3.org/2000/svg">
<rect width="100%" height="100%" fill="white"/>
<g fill="green" transform="translate(100 100) scale(0.1 -0.1)"><path d="M-0.0 0.0V-351.0C-0.0 -493.0 -7.0 -642.0 -99.0 -773.0C-94.0 -773.0 -84.0 -779.0 -80.0 -781.0C11.0 -653.0 20.0 -497.0 20.0 -351.0V0.0ZM-242.0 -614.0C-189.0 -652.0 -123.0 -705.0 -89.0 -738.0L-75.0 -724.0C-109.0 -692.0 -174.0 -641.0 -227.0 -604.0ZM-379.0 1.0V-600.0H-360.0V-19.0H-131.0V-600.0H-112.0V1.0Z"/></g>
<g fill="green" transform="translate(200 100) scale(0.1 -0.1)"><path d="M0.0 0.0V-425.0C0.0 -547.0 -5.0 -702.0 -84.0 -807.0C-63.0 -817.0 -17.0 -856.0 -2.0 -872.0C95.0 -762.0 103.0 -563.0 103.0 -426.0V0.0ZM-233.0 -709.0C-192.0 -750.0 -135.0 -806.0 -109.0 -840.0L-41.0 -789.0C-68.0 -756.0 -129.0 -703.0 -170.0 -666.0ZM-414.0 -0.0V-667.0H-333.0V-93.0H-141.0V-662.0H-56.0V-0.0Z"/></g>
<g fill="green" transform="translate(300 100) scale(0.1 -0.1)"><path d="M0.0 0.0V-185.0C0.0 -240.0 6.0 -274.0 72.0 -332.0C72.0 -328.0 76.0 -326.0 77.0 -323.0C5.0 -273.0 -2.0 -237.0 -2.0 -185.0V0.0ZM-260.0 -289.0C-254.0 -292.0 -243.0 -295.0 -236.0 -296.0L-239.0 -298.0C-245.0 -297.0 -255.0 -295.0 -261.0 -292.0ZM-247.0 -79.0V-306.0H-250.0V-77.0H-244.0V-306.0H-247.0V-79.0Z"/></g>
<g fill="green" transform="translate(400 100) scale(0.1 -0.1)"><path d="M0.0 0.0V-251.0C0.0 -299.0 9.0 -359.0 67.0 -410.0C68.0 -403.0 86.0 -409.0 89.0 -405.0C35.0 -366.0 13.0 -286.0 13.0 -251.0V0.0ZM-273.0 -367.0C-274.0 -373.0 -273.0 -379.0 -273.0 -382.0L-267.0 -394.0C-266.0 -391.0 -269.0 -385.0 -269.0 -379.0ZM-285.0 -112.0V-381.0H-291.0V-115.0H-248.0V-381.0H-255.0V-112.0Z"/></g>
<g fill="green" transform="translate(500 100) scale(0.1 -0.1)"><path d="M-0.0 0.0V-199.0C0.0 -355.0 -50.0 -523.0 -618.0 -664.0C-609.0 -672.0 -595.0 -691.0 -590.0 -700.0C-10.0 -555.0 47.0 -372.0 47.0 -199.0V0.0ZM-89.0 -471.0C128.0 -534.0 399.0 -637.0 539.0 -713.0L563.0 -670.0C419.0 -593.0 151.0 -494.0 -63.0 -434.0ZM-611.0 94.0V-456.0H-566.0V48.0H318.0V-456.0H363.0V94.0Z"/></g>
<g fill="green" transform="translate(600 100) scale(0.1 -0.1)"><path d="M0.0 0.0V-217.0C0.0 -317.0 -51.0 -438.0 -569.0 -535.0C-514.0 -580.0 -431.0 -675.0 -401.0 -727.0C154.0 -604.0 259.0 -394.0 259.0 -225.0V0.0ZM0.0 -552.0C186.0 -595.0 454.0 -676.0 583.0 -733.0L693.0 -536.0C554.0 -481.0 281.0 -409.0 102.0 -377.0ZM-612.0 157.0V-436.0H-372.0V-38.0H289.0V-426.0H542.0V157.0Z"/></g>
<g fill="green" transform="translate(700 100) scale(0.1 -0.1)"><path d="M-0.0 0.0V-378.0C0.0 -508.0 7.0 -662.0 15.0 -772.0C18.0 -772.0 25.0 -775.0 28.0 -776.0C16.0 -667.0 11.0 -507.0 11.0 -378.0V0.0ZM-41.0 -639.0C-43.0 -678.0 -51.0 -726.0 -58.0 -752.0L-46.0 -748.0C-39.0 -723.0 -30.0 -677.0 -28.0 -639.0ZM-34.0 43.0V-612.0H-23.0V31.0H-47.0V-612.0H-35.0V43.0Z"/></g>
<g fill="green" transform="translate(800 100) scale(0.1 -0.1)"><path d="M0.0 0.0V-501.0C0.0 -618.0 3.0 -743.0 16.0 -809.0C18.0 -812.0 33.0 -831.0 34.0 -835.0C37.0 -765.0 25.0 -619.0 25.0 -499.0V0.0ZM-35.0 -682.0C-45.0 -728.0 -62.0 -782.0 -74.0 -812.0H-17.0C-4.0 -781.0 10.0 -728.0 17.0 -684.0ZM-49.0 70.0V-663.0H-27.0V18.0H-23.0V-658.0H-1.0V70.0Z"/></g>
<g fill="green" transform="translate(900 100) scale(0.1 -0.1)"><path d="M0.0 0.0V-311.0C0.0 -466.0 3.0 -674.0 -69.0 -830.0C-63.0 -831.0 -53.0 -838.0 -49.0 -842.0C24.0 -682.0 23.0 -471.0 23.0 -311.0V0.0ZM-242.0 -632.0C-201.0 -677.0 -150.0 -738.0 -124.0 -773.0L-103.0 -759.0C-129.0 -725.0 -180.0 -667.0 -221.0 -623.0ZM-379.0 16.0V-630.0H-356.0V-7.0H-143.0V-630.0H-121.0V16.0Z"/></g>
<g fill="green" transform="translate(1000 100) scale(0.1 -0.1)"><path d="M0.0 0.0V-311.0C0.0 -452.0 -4.0 -679.0 -67.0 -816.0C-37.0 -831.0 15.0 -869.0 36.0 -889.0C119.0 -735.0 120.0 -479.0 120.0 -312.0V0.0ZM-224.0 -684.0C-187.0 -735.0 -135.0 -803.0 -111.0 -844.0L-32.0 -770.0C-57.0 -732.0 -113.0 -666.0 -150.0 -621.0ZM-421.0 50.0V-609.0H-331.0V-80.0H-142.0V-601.0H-47.0V50.0Z"/></g>
<g fill="green" transform="translate(1100 100) scale(0.1 -0.1)"><path d="M0.0 0.0V-339.0C0.0 -475.0 -9.0 -628.0 -88.0 -756.0C-82.0 -757.0 -70.0 -766.0 -66.0 -769.0C15.0 -641.0 25.0 -480.0 25.0 -339.0V0.0ZM-214.0 -601.0C-170.0 -642.0 -118.0 -697.0 -91.0 -734.0L-74.0 -717.0C-99.0 -682.0 -152.0 -627.0 -196.0 -589.0ZM-387.0 61.0V-542.0H-362.0V35.0H-132.0V-542.0H-107.0V61.0Z"/></g>
<g fill="green" transform="translate(1200 100) scale(0.1 -0.1)"><path d="M0.0 0.0V-401.0C0.0 -534.0 -9.0 -705.0 -86.0 -823.0C-62.0 -835.0 -13.0 -878.0 5.0 -899.0C95.0 -770.0 113.0 -553.0 113.0 -402.0V0.0ZM-239.0 -747.0C-198.0 -790.0 -144.0 -849.0 -120.0 -885.0L-44.0 -818.0C-68.0 -783.0 -126.0 -728.0 -168.0 -688.0ZM-427.0 23.0V-667.0H-331.0V-80.0H-166.0V-665.0H-65.0V23.0Z"/></g>
<g fill="green" transform="translate(1300 100) scale(0.1 -0.1)"><path d="M-0.0 0.0V-394.0C-0.0 -541.0 -29.0 -666.0 -110.0 -784.0C-102.0 -785.0 -90.0 -794.0 -85.0 -798.0C-1.0 -684.0 29.0 -549.0 29.0 -394.0V0.0ZM-243.0 -605.0C-193.0 -649.0 -130.0 -711.0 -97.0 -749.0L-77.0 -728.0C-108.0 -692.0 -171.0 -633.0 -223.0 -589.0ZM-394.0 9.0V-571.0H-367.0V-20.0H-129.0V-571.0H-101.0V9.0Z"/></g>
<g fill="green" transform="translate(1400 100) scale(0.1 -0.1)"><path d="M0.0 0.0V-452.0C0.0 -570.0 -5.0 -703.0 -61.0 -798.0C-38.0 -808.0 17.0 -855.0 34.0 -875.0C119.0 -778.0 126.0 -591.0 126.0 -454.0V0.0ZM-237.0 -685.0C-199.0 -731.0 -152.0 -795.0 -131.0 -834.0L-38.0 -781.0C-60.0 -743.0 -109.0 -683.0 -148.0 -639.0ZM-421.0 0.0V-639.0H-311.0V-105.0H-161.0V-630.0H-46.0V0.0Z"/></g>
<g fill="green" transform="translate(1500 100) scale(0.1 -0.1)"><path d="M0.0 0.0V-354.0C0.0 -495.0 2.0 -659.0 -139.0 -785.0C-134.0 -787.0 -125.0 -793.0 -121.0 -795.0C20.0 -667.0 20.0 -501.0 20.0 -353.0V0.0ZM-240.0 -605.0C-200.0 -639.0 -147.0 -684.0 -119.0 -709.0L-103.0 -695.0C-132.0 -671.0 -184.0 -628.0 -224.0 -595.0ZM-373.0 7.0V-596.0H-354.0V-13.0H-116.0V-596.0H-97.0V7.0Z"/></g>
<g fill="green" transform="translate(1600 100) scale(0.1 -0.1)"><path d="M0.0 0.0V-403.0C0.0 -534.0 -4.0 -713.0 -104.0 -826.0C-81.0 -839.0 -36.0 -873.0 -19.0 -890.0C87.0 -763.0 103.0 -551.0 103.0 -403.0V0.0ZM-231.0 -687.0C-199.0 -736.0 -156.0 -798.0 -138.0 -835.0L-72.0 -803.0C-92.0 -766.0 -140.0 -706.0 -172.0 -662.0ZM-392.0 -2.0V-674.0H-315.0V-103.0H-127.0V-671.0H-46.0V-2.0Z"/></g>
<g fill="red" transform="translate(100 200) scale(0.1 -0.1)"><path d="M0.0 0.0V-138.0C0.0 -240.0 -20.0 -375.0 -294.0 -466.0C-288.0 -472.0 -280.0 -484.0 -276.0 -490.0C6.0 -391.0 29.0 -249.0 29.0 -138.0V0.0ZM64.0 -327.0C152.0 -372.0 255.0 -442.0 306.0 -492.0L326.0 -471.0C274.0 -421.0 171.0 -352.0 84.0 -308.0ZM-216.0 115.0V-279.0H-186.0V86.0H228.0V-279.0H258.0V115.0Z"/></g>
<g fill="black" opacity=".8" transform="translate(100 200) scale(0.1 -0.1)"><path d="M0.0 0.0V-140.0C0.0 -238.0 -23.0 -376.0 -305.0 -463.0C-298.0 -469.0 -289.0 -483.0 -286.0 -489.0C5.0 -393.0 31.0 -247.0 31.0 -139.0V0.0ZM54.0 -331.0C146.0 -377.0 256.0 -445.0 312.0 -492.0L333.0 -467.0C276.0 -420.0 165.0 -355.0 76.0 -311.0ZM-219.0 127.0V-286.0H-188.0V96.0H222.0V-286.0H254.0V127.0Z"/></g>
<g fill="red" transform="translate(200 200) scale(0.1 -0.1)"><path d="M0.0 0.0V-137.0C0.0 -218.0 -29.0 -327.0 -289.0 -396.0C-258.0 -424.0 -218.0 -477.0 -201.0 -509.0C76.0 -414.0 137.0 -268.0 137.0 -141.0V0.0ZM87.0 -365.0C171.0 -404.0 288.0 -468.0 343.0 -512.0L422.0 -400.0C363.0 -358.0 243.0 -300.0 161.0 -266.0ZM-222.0 165.0V-270.0H-90.0V37.0H217.0V-266.0H355.0V165.0Z"/></g>
<g fill="black" opacity=".8" transform="translate(200 200) scale(0.1 -0.1)"><path d="M0.0 0.0V-136.0C0.0 -216.0 -29.0 -323.0 -287.0 -389.0C-257.0 -417.0 -213.0 -469.0 -197.0 -501.0C82.0 -410.0 139.0 -263.0 139.0 -139.0V0.0ZM87.0 -371.0C171.0 -409.0 290.0 -469.0 344.0 -509.0L423.0 -397.0C364.0 -357.0 243.0 -302.0 160.0 -269.0ZM-214.0 166.0V-274.0H-77.0V39.0H206.0V-268.0H350.0V166.0Z"/></g>
<g fill="red" transform="translate(300 200) scale(0.1 -0.1)"><path d="M0.0 0.0V-309.0C0.0 -438.0 -21.0 -589.0 -177.0 -695.0C-171.0 -699.0 -160.0 -709.0 -156.0 -715.0C5.0 -607.0 29.0 -444.0 29.0 -309.0V0.0ZM38.0 -533.0C87.0 -585.0 143.0 -657.0 170.0 -702.0L191.0 -682.0C165.0 -640.0 108.0 -569.0 59.0 -518.0ZM-141.0 116.0V-482.0H-112.0V86.0H141.0V-482.0H171.0V116.0Z"/></g>
<g fill="black" opacity=".8" transform="translate(300 200) scale(0.1 -0.1)"><path d="M0.0 0.0V-313.0C0.0 -442.0 -21.0 -592.0 -190.0 -693.0C-184.0 -698.0 -173.0 -709.0 -170.0 -714.0C5.0 -609.0 29.0 -449.0 29.0 -313.0V0.0ZM37.0 -540.0C90.0 -592.0 151.0 -663.0 181.0 -709.0L201.0 -688.0C172.0 -644.0 111.0 -575.0 58.0 -526.0ZM-134.0 116.0V-481.0H-106.0V87.0H133.0V-481.0H162.0V116.0Z"/></g>
<g fill="red" transform="translate(400 200) scale(0.1 -0.1)"><path d="M0.0 0.0V-389.0C0.0 -498.0 -14.0 -606.0 -161.0 -675.0C-141.0 -692.0 -105.0 -735.0 -93.0 -758.0C76.0 -677.0 103.0 -524.0 103.0 -390.0V0.0ZM61.0 -583.0C106.0 -635.0 162.0 -707.0 185.0 -753.0L274.0 -691.0C249.0 -646.0 191.0 -579.0 145.0 -528.0ZM-138.0 139.0V-528.0H-28.0V39.0H132.0V-521.0H247.0V139.0Z"/></g>
<g fill="black" opacity=".8" transform="translate(400 200) scale(0.1 -0.1)"><path d="M0.0 0.0V-385.0C0.0 -494.0 -17.0 -604.0 -165.0 -669.0C-146.0 -687.0 -110.0 -733.0 -100.0 -756.0C72.0 -676.0 103.0 -524.0 103.0 -386.0V0.0ZM54.0 -591.0C99.0 -641.0 157.0 -709.0 181.0 -751.0L270.0 -684.0C243.0 -642.0 183.0 -578.0 137.0 -531.0ZM-133.0 145.0V-521.0H-26.0V40.0H124.0V-514.0H236.0V145.0Z"/></g>
<g fill="red" transform="translate(500 200) scale(0.1 -0.1)"><path d="M0.0 0.0V-104.0C0.0 -175.0 -26.0 -269.0 -306.0 -324.0C-300.0 -331.0 -292.0 -343.0 -289.0 -349.0C0.0 -287.0 29.0 -186.0 29.0 -104.0V0.0ZM50.0 -211.0C146.0 -247.0 265.0 -303.0 326.0 -344.0L346.0 -320.0C282.0 -280.0 164.0 -226.0 70.0 -192.0ZM-223.0 103.0V-178.0H-194.0V74.0H242.0V-178.0H272.0V103.0Z"/></g>
<g fill="black" opacity=".8" transform="translate(500 200) scale(0.1 -0.1)"><path d="M0.0 0.0V-89.0C0.0 -165.0 -29.0 -265.0 -318.0 -327.0C-312.0 -334.0 -304.0 -347.0 -302.0 -354.0C-2.0 -283.0 30.0 -176.0 30.0 -89.0V0.0ZM53.0 -214.0C145.0 -254.0 258.0 -312.0 316.0 -354.0L335.0 -329.0C276.0 -287.0 163.0 -231.0 72.0 -194.0ZM-218.0 110.0V-177.0H-188.0V80.0H230.0V-177.0H260.0V110.0Z"/></g>
<g fill="red" transform="translate(600 200) scale(0.1 -0.1)"><path d="M0.0 0.0V-58.0C0.0 -112.0 -15.0 -201.0 -279.0 -261.0C-247.0 -285.0 -208.0 -329.0 -190.0 -358.0C92.0 -274.0 133.0 -148.0 133.0 -62.0V0.0ZM97.0 -244.0C177.0 -271.0 288.0 -317.0 341.0 -349.0L411.0 -247.0C353.0 -216.0 240.0 -174.0 163.0 -152.0ZM-208.0 130.0V-157.0H-78.0V38.0H217.0V-157.0H354.0V130.0Z"/></g>
<g fill="black" opacity=".8" transform="translate(600 200) scale(0.1 -0.1)"><path d="M0.0 0.0V-66.0C0.0 -122.0 -29.0 -195.0 -287.0 -243.0C-258.0 -270.0 -215.0 -320.0 -200.0 -351.0C78.0 -280.0 137.0 -168.0 137.0 -70.0V0.0ZM88.0 -238.0C172.0 -269.0 291.0 -321.0 345.0 -356.0L418.0 -251.0C357.0 -216.0 238.0 -169.0 155.0 -143.0ZM-205.0 143.0V-158.0H-70.0V27.0H207.0V-151.0H350.0V143.0Z"/></g>
<g fill="red" transform="translate(700 200) scale(0.1 -0.1)"><path d="M0.0 0.0V-278.0C0.0 -427.0 -30.0 -594.0 -249.0 -712.0C-241.0 -717.0 -231.0 -726.0 -228.0 -733.0C-4.0 -613.0 29.0 -433.0 29.0 -279.0V0.0ZM24.0 -537.0C87.0 -587.0 161.0 -658.0 198.0 -702.0L218.0 -677.0C182.0 -634.0 108.0 -567.0 45.0 -518.0ZM-181.0 109.0V-488.0H-152.0V80.0H185.0V-488.0H214.0V109.0Z"/></g>
<g fill="black" opacity=".8" transform="translate(700 200) scale(0.1 -0.1)"><path d="M0.0 0.0V-277.0C0.0 -417.0 -22.0 -598.0 -253.0 -713.0C-245.0 -719.0 -235.0 -732.0 -231.0 -739.0C8.0 -616.0 33.0 -428.0 33.0 -277.0V0.0ZM27.0 -523.0C95.0 -580.0 177.0 -659.0 218.0 -707.0L244.0 -683.0C203.0 -635.0 121.0 -560.0 53.0 -505.0ZM-180.0 107.0V-490.0H-147.0V74.0H173.0V-490.0H207.0V107.0Z"/></g>
<g fill="red" transform="translate(800 200) scale(0.1 -0.1)"><path d="M0.0 0.0V-293.0C0.0 -411.0 -18.0 -536.0 -214.0 -617.0C-189.0 -639.0 -143.0 -698.0 -129.0 -728.0C97.0 -634.0 137.0 -448.0 137.0 -296.0V0.0ZM71.0 -533.0C133.0 -586.0 222.0 -663.0 263.0 -710.0L354.0 -608.0C310.0 -563.0 217.0 -491.0 157.0 -444.0ZM-170.0 180.0V-443.0H-36.0V51.0H177.0V-437.0H318.0V180.0Z"/></g>
<g fill="black" opacity=".8" transform="translate(800 200) scale(0.1 -0.1)"><path d="M0.0 0.0V-290.0C0.0 -402.0 -20.0 -547.0 -213.0 -625.0C-185.0 -651.0 -140.0 -701.0 -124.0 -730.0C98.0 -627.0 135.0 -446.0 135.0 -292.0V0.0ZM74.0 -521.0C132.0 -578.0 211.0 -656.0 246.0 -706.0L346.0 -618.0C307.0 -569.0 226.0 -494.0 167.0 -443.0ZM-172.0 174.0V-446.0H-42.0V35.0H173.0V-435.0H309.0V174.0Z"/></g>
<g fill="red" transform="translate(900 200) scale(0.1 -0.1)"><path d="M0.0 0.0V-231.0C0.0 -355.0 -28.0 -497.0 -212.0 -596.0C-205.0 -601.0 -194.0 -611.0 -190.0 -618.0C-2.0 -515.0 29.0 -363.0 29.0 -232.0V0.0ZM21.0 -447.0C84.0 -495.0 157.0 -564.0 195.0 -607.0L216.0 -584.0C180.0 -542.0 105.0 -475.0 43.0 -428.0ZM-154.0 87.0V-411.0H-125.0V58.0H157.0V-411.0H187.0V87.0Z"/></g>
<g fill="black" opacity=".8" transform="translate(900 200) scale(0.1 -0.1)"><path d="M0.0 0.0V-235.0C0.0 -352.0 -19.0 -500.0 -207.0 -595.0C-200.0 -600.0 -192.0 -611.0 -188.0 -617.0C6.0 -515.0 28.0 -360.0 28.0 -235.0V0.0ZM23.0 -439.0C80.0 -486.0 148.0 -553.0 182.0 -594.0L204.0 -573.0C170.0 -533.0 102.0 -470.0 45.0 -424.0ZM-147.0 89.0V-410.0H-120.0V61.0H143.0V-410.0H171.0V89.0Z"/></g>
<g fill="red" transform="translate(1000 200) scale(0.1 -0.1)"><path d="M0.0 0.0V-244.0C0.0 -340.0 -16.0 -440.0 -172.0 -507.0C-151.0 -525.0 -113.0 -573.0 -100.0 -598.0C79.0 -518.0 112.0 -372.0 112.0 -246.0V0.0ZM58.0 -442.0C101.0 -485.0 156.0 -547.0 182.0 -586.0L266.0 -518.0C239.0 -480.0 182.0 -422.0 139.0 -382.0ZM-135.0 152.0V-375.0H-27.0V40.0H137.0V-370.0H250.0V152.0Z"/></g>
<g fill="black" opacity=".8" transform="translate(1000 200) scale(0.1 -0.1)"><path d="M0.0 0.0V-249.0C0.0 -342.0 -17.0 -458.0 -174.0 -522.0C-151.0 -543.0 -113.0 -585.0 -101.0 -609.0C82.0 -526.0 112.0 -378.0 112.0 -251.0V0.0ZM62.0 -437.0C110.0 -484.0 176.0 -549.0 205.0 -590.0L288.0 -517.0C256.0 -476.0 189.0 -414.0 140.0 -372.0ZM-142.0 144.0V-374.0H-33.0V30.0H143.0V-364.0H256.0V144.0Z"/></g>
<g fill="red" transform="translate(1100 200) scale(0.1 -0.1)"><path d="M0.0 0.0V-126.0C0.0 -211.0 -25.0 -321.0 -317.0 -389.0C-311.0 -396.0 -303.0 -407.0 -300.0 -414.0C1.0 -339.0 30.0 -221.0 30.0 -126.0V0.0ZM66.0 -233.0C149.0 -287.0 250.0 -364.0 301.0 -415.0L321.0 -389.0C271.0 -340.0 169.0 -264.0 85.0 -212.0ZM-205.0 120.0V-203.0H-176.0V90.0H220.0V-203.0H249.0V120.0Z"/></g>
<g fill="black" opacity=".8" transform="translate(1100 200) scale(0.1 -0.1)"><path d="M0.0 0.0V-129.0C0.0 -213.0 -32.0 -323.0 -315.0 -387.0C-308.0 -395.0 -298.0 -409.0 -296.0 -417.0C-0.0 -342.0 33.0 -225.0 33.0 -128.0V0.0ZM61.0 -257.0C142.0 -300.0 242.0 -362.0 294.0 -405.0L316.0 -378.0C265.0 -336.0 164.0 -276.0 83.0 -235.0ZM-211.0 131.0V-203.0H-178.0V96.0H226.0V-203.0H260.0V131.0Z"/></g>
<g fill="red" transform="translate(1200 200) scale(0.1 -0.1)"><path d="M0.0 0.0V-107.0C0.0 -172.0 -27.0 -263.0 -269.0 -320.0C-236.0 -347.0 -194.0 -394.0 -175.0 -425.0C88.0 -344.0 144.0 -217.0 144.0 -110.0V0.0ZM94.0 -283.0C165.0 -324.0 260.0 -387.0 303.0 -429.0L389.0 -332.0C341.0 -291.0 243.0 -234.0 174.0 -197.0ZM-200.0 160.0V-208.0H-63.0V27.0H206.0V-190.0H351.0V160.0Z"/></g>
<g fill="black" opacity=".8" transform="translate(1200 200) scale(0.1 -0.1)"><path d="M0.0 0.0V-103.0C0.0 -172.0 -29.0 -258.0 -274.0 -313.0C-244.0 -340.0 -200.0 -392.0 -183.0 -424.0C83.0 -345.0 142.0 -219.0 142.0 -107.0V0.0ZM86.0 -288.0C163.0 -326.0 268.0 -385.0 316.0 -424.0L399.0 -322.0C346.0 -283.0 240.0 -229.0 163.0 -195.0ZM-195.0 153.0V-204.0H-52.0V28.0H194.0V-197.0H345.0V153.0Z"/></g>
<g fill="red" transform="translate(1300 200) scale(0.1 -0.1)"><path d="M0.0 0.0V-112.0C0.0 -189.0 -25.0 -291.0 -315.0 -353.0C-309.0 -359.0 -301.0 -371.0 -299.0 -377.0C0.0 -309.0 30.0 -201.0 30.0 -112.0V0.0ZM37.0 -255.0C119.0 -288.0 221.0 -341.0 274.0 -377.0L291.0 -352.0C239.0 -316.0 136.0 -266.0 54.0 -233.0ZM-213.0 104.0V-211.0H-184.0V74.0H223.0V-211.0H252.0V104.0Z"/></g>
<g fill="black" opacity=".8" transform="translate(1300 200) scale(0.1 -0.1)"><path d="M0.0 0.0V-112.0C0.0 -193.0 -27.0 -296.0 -304.0 -359.0C-298.0 -366.0 -290.0 -378.0 -287.0 -384.0C-1.0 -312.0 29.0 -203.0 29.0 -112.0V0.0ZM41.0 -239.0C125.0 -278.0 230.0 -335.0 283.0 -374.0L302.0 -350.0C247.0 -311.0 143.0 -257.0 60.0 -220.0ZM-206.0 97.0V-209.0H-179.0V68.0H212.0V-209.0H241.0V97.0Z"/></g>
<g fill="red" transform="translate(1400 200) scale(0.1 -0.1)"><path d="M0.0 0.0V-91.0C0.0 -146.0 -29.0 -221.0 -251.0 -264.0C-221.0 -291.0 -183.0 -338.0 -166.0 -369.0C82.0 -303.0 131.0 -193.0 131.0 -94.0V0.0ZM80.0 -266.0C159.0 -293.0 268.0 -339.0 320.0 -371.0L385.0 -272.0C329.0 -241.0 218.0 -200.0 142.0 -177.0ZM-186.0 131.0V-190.0H-54.0V24.0H188.0V-190.0H326.0V131.0Z"/></g>
<g fill="black" opacity=".8" transform="translate(1400 200) scale(0.1 -0.1)"><path d="M0.0 0.0V-92.0C0.0 -152.0 -26.0 -229.0 -266.0 -277.0C-239.0 -302.0 -198.0 -349.0 -183.0 -378.0C77.0 -308.0 130.0 -195.0 130.0 -96.0V0.0ZM79.0 -252.0C155.0 -286.0 261.0 -338.0 310.0 -373.0L382.0 -280.0C328.0 -245.0 220.0 -197.0 145.0 -168.0ZM-192.0 133.0V-186.0H-64.0V20.0H194.0V-179.0H328.0V133.0Z"/></g>
<g fill="red" transform="translate(1500 200) scale(0.1 -0.1)"><path d="M0.0 0.0V-134.0C0.0 -240.0 -56.0 -346.0 -326.0 -415.0C-320.0 -422.0 -314.0 -433.0 -312.0 -441.0C-30.0 -368.0 29.0 -252.0 29.0 -135.0V0.0ZM46.0 -287.0C146.0 -332.0 271.0 -397.0 335.0 -440.0L352.0 -413.0C286.0 -372.0 162.0 -308.0 63.0 -265.0ZM-244.0 105.0V-251.0H-215.0V75.0H236.0V-251.0H266.0V105.0Z"/></g>
<g fill="black" opacity=".8" transform="translate(1500 200) scale(0.1 -0.1)"><path d="M0.0 0.0V-126.0C0.0 -219.0 -29.0 -340.0 -326.0 -418.0C-320.0 -425.0 -311.0 -438.0 -308.0 -445.0C0.0 -359.0 32.0 -230.0 32.0 -126.0V0.0ZM42.0 -285.0C137.0 -329.0 255.0 -395.0 316.0 -440.0L336.0 -414.0C275.0 -369.0 157.0 -306.0 63.0 -265.0ZM-235.0 110.0V-251.0H-204.0V78.0H228.0V-251.0H260.0V110.0Z"/></g>
<g fill="red" transform="translate(1600 200) scale(0.1 -0.1)"><path d="M0.0 0.0V-78.0C0.0 -171.0 -31.0 -269.0 -277.0 -335.0C-254.0 -358.0 -213.0 -413.0 -200.0 -443.0C63.0 -366.0 127.0 -219.0 127.0 -83.0V0.0ZM76.0 -306.0C166.0 -344.0 300.0 -404.0 364.0 -440.0L428.0 -324.0C360.0 -291.0 222.0 -236.0 137.0 -204.0ZM-209.0 148.0V-228.0H-71.0V24.0H195.0V-217.0H340.0V148.0Z"/></g>
<g fill="black" opacity=".8" transform="translate(1600 200) scale(0.1 -0.1)"><path d="M0.0 0.0V-109.0C0.0 -178.0 -29.0 -270.0 -294.0 -328.0C-262.0 -356.0 -217.0 -409.0 -200.0 -441.0C87.0 -359.0 145.0 -227.0 145.0 -113.0V0.0ZM83.0 -307.0C170.0 -343.0 291.0 -402.0 348.0 -441.0L427.0 -331.0C365.0 -293.0 242.0 -239.0 157.0 -208.0ZM-225.0 153.0V-223.0H-83.0V26.0H210.0V-215.0H358.0V153.0Z"/></g>
<g fill="red" transform="translate(100 300) scale(0.1 -0.1)"><path d="M0.0 0.0V-168.0C0.0 -276.0 -17.0 -420.0 -270.0 -515.0C-264.0 -521.0 -255.0 -531.0 -251.0 -538.0C8.0 -435.0 30.0 -285.0 30.0 -167.0V0.0ZM32.0 -391.0C108.0 -433.0 199.0 -495.0 245.0 -539.0L263.0 -517.0C218.0 -474.0 127.0 -413.0 50.0 -373.0ZM-175.0 120.0V-340.0H-146.0V91.0H173.0V-340.0H202.0V120.0Z"/></g>
<g fill="black" opacity=".8" transform="translate(100 300) scale(0.1 -0.1)"><path d="M0.0 0.0V-178.0C0.0 -282.0 -18.0 -424.0 -259.0 -513.0C-254.0 -519.0 -245.0 -531.0 -242.0 -536.0C6.0 -439.0 27.0 -290.0 27.0 -178.0V0.0ZM42.0 -376.0C117.0 -421.0 207.0 -485.0 253.0 -527.0L272.0 -506.0C226.0 -464.0 136.0 -402.0 62.0 -360.0ZM-178.0 107.0V-342.0H-151.0V78.0H187.0V-342.0H215.0V107.0Z"/></g>
<g fill="red" transform="translate(200 300) scale(0.1 -0.1)"><path d="M0.0 0.0V-196.0C0.0 -281.0 -36.0 -373.0 -258.0 -421.0C-230.0 -450.0 -192.0 -503.0 -175.0 -535.0C65.0 -462.0 135.0 -334.0 135.0 -198.0V0.0ZM72.0 -408.0C141.0 -444.0 235.0 -500.0 279.0 -538.0L357.0 -435.0C309.0 -398.0 212.0 -348.0 145.0 -317.0ZM-163.0 163.0V-323.0H-40.0V40.0H170.0V-318.0H300.0V163.0Z"/></g>
<g fill="black" opacity=".8" transform="translate(200 300) scale(0.1 -0.1)"><path d="M0.0 0.0V-188.0C0.0 -273.0 -23.0 -383.0 -238.0 -446.0C-212.0 -470.0 -174.0 -516.0 -160.0 -543.0C75.0 -457.0 120.0 -313.0 120.0 -191.0V0.0ZM77.0 -399.0C144.0 -440.0 238.0 -501.0 280.0 -539.0L356.0 -449.0C309.0 -411.0 213.0 -354.0 147.0 -319.0ZM-173.0 152.0V-324.0H-56.0V36.0H181.0V-317.0H304.0V152.0Z"/></g>
<g fill="red" transform="translate(300 300) scale(0.1 -0.1)"><path d="M0.0 0.0V-112.0C0.0 -189.0 -26.0 -291.0 -316.0 -353.0C-310.0 -359.0 -302.0 -371.0 -299.0 -377.0C0.0 -309.0 29.0 -201.0 29.0 -112.0V0.0ZM42.0 -251.0C124.0 -284.0 226.0 -337.0 279.0 -373.0L297.0 -348.0C244.0 -312.0 141.0 -262.0 60.0 -229.0ZM-199.0 104.0V-211.0H-170.0V74.0H212.0V-211.0H241.0V104.0Z"/></g>
<g fill="black" opacity=".8" transform="translate(300 300) scale(0.1 -0.1)"><path d="M0.0 0.0V-113.0C0.0 -192.0 -26.0 -294.0 -299.0 -357.0C-293.0 -363.0 -285.0 -375.0 -283.0 -381.0C-0.0 -310.0 28.0 -202.0 28.0 -112.0V0.0ZM45.0 -238.0C127.0 -276.0 229.0 -333.0 282.0 -371.0L300.0 -348.0C247.0 -309.0 145.0 -256.0 63.0 -220.0ZM-198.0 98.0V-208.0H-171.0V70.0H212.0V-208.0H240.0V98.0Z"/></g>
<g fill="red" transform="translate(400 300) scale(0.1 -0.1)"><path d="M0.0 0.0V-91.0C0.0 -146.0 -29.0 -221.0 -251.0 -264.0C-221.0 -291.0 -183.0 -338.0 -166.0 -369.0C82.0 -303.0 131.0 -193.0 131.0 -94.0V0.0ZM80.0 -266.0C159.0 -293.0 268.0 -339.0 320.0 -371.0L385.0 -272.0C329.0 -241.0 218.0 -200.0 142.0 -177.0ZM-177.0 131.0V-190.0H-45.0V24.0H178.0V-190.0H317.0V131.0Z"/></g>
<g fill="black" opacity=".8" transform="translate(400 300) scale(0.1 -0.1)"><path d="M0.0 0.0V-94.0C0.0 -154.0 -26.0 -229.0 -262.0 -276.0C-235.0 -301.0 -195.0 -347.0 -181.0 -376.0C75.0 -307.0 127.0 -196.0 127.0 -98.0V0.0ZM81.0 -252.0C156.0 -285.0 260.0 -337.0 308.0 -372.0L379.0 -281.0C326.0 -246.0 220.0 -198.0 147.0 -169.0ZM-184.0 134.0V-186.0H-58.0V22.0H194.0V-179.0H325.0V134.0Z"/></g>
<g fill="red" transform="translate(500 300) scale(0.1 -0.1)"><path d="M0.0 0.0V-329.0C0.0 -458.0 -21.0 -604.0 -195.0 -703.0C-187.0 -708.0 -177.0 -718.0 -173.0 -724.0C3.0 -621.0 30.0 -465.0 30.0 -329.0V0.0ZM35.0 -535.0C83.0 -590.0 138.0 -666.0 164.0 -712.0L186.0 -695.0C161.0 -650.0 106.0 -576.0 57.0 -522.0ZM-127.0 114.0V-484.0H-98.0V84.0H128.0V-484.0H158.0V114.0Z"/></g>
<g fill="black" opacity=".8" transform="translate(500 300) scale(0.1 -0.1)"><path d="M0.0 0.0V-322.0C0.0 -452.0 -21.0 -603.0 -192.0 -702.0C-185.0 -707.0 -175.0 -718.0 -171.0 -724.0C6.0 -619.0 29.0 -460.0 29.0 -322.0V0.0ZM33.0 -542.0C82.0 -594.0 137.0 -663.0 164.0 -707.0L186.0 -686.0C159.0 -644.0 104.0 -577.0 55.0 -528.0ZM-130.0 114.0V-484.0H-101.0V84.0H129.0V-484.0H159.0V114.0Z"/></g>
<g fill="red" transform="translate(600 300) scale(0.1 -0.1)"><path d="M0.0 0.0V-389.0C0.0 -498.0 -14.0 -605.0 -159.0 -675.0C-141.0 -692.0 -109.0 -737.0 -98.0 -759.0C72.0 -676.0 100.0 -522.0 100.0 -390.0V0.0ZM44.0 -583.0C87.0 -634.0 141.0 -706.0 164.0 -750.0L253.0 -695.0C228.0 -651.0 172.0 -583.0 128.0 -535.0ZM-125.0 148.0V-526.0H-23.0V47.0H122.0V-519.0H229.0V148.0Z"/></g>
<g fill="black" opacity=".8" transform="translate(600 300) scale(0.1 -0.1)"><path d="M0.0 0.0V-389.0C0.0 -499.0 -16.0 -613.0 -159.0 -678.0C-140.0 -696.0 -105.0 -740.0 -94.0 -763.0C72.0 -682.0 103.0 -529.0 103.0 -390.0V0.0ZM52.0 -586.0C92.0 -638.0 142.0 -708.0 163.0 -751.0L253.0 -691.0C230.0 -647.0 177.0 -581.0 136.0 -532.0ZM-124.0 141.0V-525.0H-19.0V35.0H121.0V-518.0H231.0V141.0Z"/></g>
<g fill="red" transform="translate(700 300) scale(0.1 -0.1)"><path d="M0.0 0.0V-138.0C0.0 -240.0 -20.0 -375.0 -294.0 -466.0C-288.0 -472.0 -280.0 -484.0 -276.0 -490.0C6.0 -391.0 29.0 -249.0 29.0 -138.0V0.0ZM64.0 -327.0C152.0 -372.0 255.0 -442.0 306.0 -492.0L326.0 -471.0C274.0 -421.0 171.0 -352.0 84.0 -308.0ZM-225.0 124.0V-270.0H-196.0V95.0H229.0V-270.0H259.0V124.0Z"/></g>
<g fill="black" opacity=".8" transform="translate(700 300) scale(0.1 -0.1)"><path d="M0.0 0.0V-133.0C0.0 -231.0 -22.0 -374.0 -310.0 -463.0C-304.0 -470.0 -294.0 -484.0 -292.0 -490.0C6.0 -391.0 32.0 -241.0 32.0 -132.0V0.0ZM56.0 -328.0C147.0 -375.0 258.0 -443.0 315.0 -491.0L336.0 -465.0C279.0 -418.0 167.0 -352.0 78.0 -308.0ZM-227.0 135.0V-280.0H-195.0V102.0H225.0V-280.0H257.0V135.0Z"/></g>
<g fill="red" transform="translate(800 300) scale(0.1 -0.1)"><path d="M0.0 0.0V-125.0C0.0 -207.0 -27.0 -320.0 -305.0 -396.0C-273.0 -424.0 -234.0 -477.0 -216.0 -509.0C78.0 -408.0 137.0 -255.0 137.0 -129.0V0.0ZM87.0 -365.0C171.0 -404.0 288.0 -468.0 343.0 -512.0L422.0 -400.0C363.0 -358.0 243.0 -300.0 161.0 -266.0ZM-231.0 176.0V-260.0H-99.0V48.0H227.0V-256.0H365.0V176.0Z"/></g>
<g fill="black" opacity=".8" transform="translate(800 300) scale(0.1 -0.1)"><path d="M0.0 0.0V-121.0C0.0 -204.0 -30.0 -318.0 -294.0 -389.0C-262.0 -418.0 -218.0 -471.0 -201.0 -504.0C84.0 -407.0 143.0 -253.0 143.0 -125.0V0.0ZM86.0 -371.0C172.0 -410.0 293.0 -472.0 349.0 -513.0L429.0 -396.0C368.0 -356.0 245.0 -299.0 160.0 -265.0ZM-223.0 172.0V-269.0H-82.0V40.0H207.0V-263.0H355.0V172.0Z"/></g>
<g fill="red" transform="translate(900 300) scale(0.1 -0.1)"><path d="M0.0 0.0V-325.0C0.0 -454.0 -23.0 -597.0 -200.0 -695.0C-193.0 -700.0 -183.0 -710.0 -178.0 -715.0C3.0 -615.0 29.0 -460.0 29.0 -325.0V0.0ZM35.0 -544.0C91.0 -595.0 155.0 -666.0 186.0 -712.0L207.0 -693.0C176.0 -649.0 112.0 -579.0 56.0 -528.0ZM-136.0 118.0V-480.0H-107.0V88.0H153.0V-480.0H182.0V118.0Z"/></g>
<g fill="black" opacity=".8" transform="translate(900 300) scale(0.1 -0.1)"><path d="M0.0 0.0V-323.0C0.0 -453.0 -23.0 -597.0 -201.0 -695.0C-195.0 -700.0 -184.0 -712.0 -180.0 -717.0C3.0 -615.0 29.0 -460.0 29.0 -323.0V0.0ZM37.0 -540.0C90.0 -591.0 152.0 -662.0 181.0 -707.0L202.0 -686.0C173.0 -642.0 112.0 -574.0 59.0 -524.0ZM-135.0 115.0V-479.0H-106.0V85.0H138.0V-479.0H168.0V115.0Z"/></g>
<g fill="red" transform="translate(1000 300) scale(0.1 -0.1)"><path d="M0.0 0.0V-399.0C0.0 -506.0 -14.0 -604.0 -166.0 -667.0C-148.0 -684.0 -116.0 -731.0 -106.0 -755.0C73.0 -679.0 103.0 -532.0 103.0 -401.0V0.0ZM50.0 -587.0C92.0 -636.0 143.0 -704.0 166.0 -746.0L258.0 -689.0C233.0 -647.0 179.0 -583.0 137.0 -537.0ZM-130.0 147.0V-527.0H-23.0V46.0H126.0V-520.0H238.0V147.0Z"/></g>
<g fill="black" opacity=".8" transform="translate(1000 300) scale(0.1 -0.1)"><path d="M0.0 0.0V-398.0C0.0 -506.0 -17.0 -611.0 -168.0 -672.0C-149.0 -691.0 -113.0 -737.0 -103.0 -760.0C72.0 -683.0 105.0 -536.0 105.0 -399.0V0.0ZM55.0 -589.0C99.0 -640.0 155.0 -709.0 178.0 -752.0L268.0 -689.0C243.0 -646.0 185.0 -581.0 140.0 -533.0ZM-129.0 141.0V-526.0H-20.0V36.0H127.0V-519.0H240.0V141.0Z"/></g>
<g fill="red" transform="translate(1100 300) scale(0.1 -0.1)"><path d="M0.0 0.0V-113.0C0.0 -191.0 -26.0 -294.0 -306.0 -357.0C-300.0 -363.0 -292.0 -375.0 -288.0 -382.0C2.0 -312.0 30.0 -202.0 30.0 -113.0V0.0ZM37.0 -245.0C127.0 -283.0 238.0 -341.0 295.0 -381.0L317.0 -358.0C259.0 -318.0 147.0 -261.0 59.0 -225.0ZM-223.0 102.0V-213.0H-193.0V72.0H232.0V-213.0H262.0V102.0Z"/></g>
<g fill="black" opacity=".8" transform="translate(1100 300) scale(0.1 -0.1)"><path d="M0.0 0.0V-112.0C0.0 -193.0 -29.0 -293.0 -309.0 -358.0C-303.0 -364.0 -295.0 -376.0 -293.0 -382.0C-3.0 -310.0 29.0 -203.0 29.0 -112.0V0.0ZM41.0 -240.0C131.0 -280.0 243.0 -339.0 300.0 -380.0L318.0 -355.0C260.0 -314.0 149.0 -258.0 60.0 -221.0ZM-214.0 96.0V-211.0H-186.0V66.0H218.0V-211.0H247.0V96.0Z"/></g>
<g fill="red" transform="translate(1200 300) scale(0.1 -0.1)"><path d="M0.0 0.0V-101.0C0.0 -157.0 -28.0 -227.0 -269.0 -270.0C-240.0 -294.0 -203.0 -340.0 -186.0 -369.0C70.0 -303.0 133.0 -199.0 133.0 -104.0V0.0ZM82.0 -263.0C162.0 -290.0 273.0 -336.0 326.0 -368.0L396.0 -266.0C338.0 -235.0 225.0 -193.0 148.0 -171.0ZM-198.0 134.0V-187.0H-68.0V25.0H197.0V-187.0H334.0V134.0Z"/></g>
<g fill="black" opacity=".8" transform="translate(1200 300) scale(0.1 -0.1)"><path d="M0.0 0.0V-98.0C0.0 -156.0 -27.0 -226.0 -274.0 -272.0C-246.0 -297.0 -204.0 -346.0 -190.0 -375.0C79.0 -310.0 133.0 -200.0 133.0 -102.0V0.0ZM81.0 -256.0C161.0 -288.0 275.0 -340.0 327.0 -375.0L399.0 -277.0C342.0 -242.0 227.0 -195.0 148.0 -168.0ZM-202.0 134.0V-186.0H-71.0V21.0H199.0V-179.0H336.0V134.0Z"/></g>
<g fill="red" transform="translate(1300 300) scale(0.1 -0.1)"><path d="M0.0 0.0V-160.0C0.0 -263.0 -20.0 -402.0 -280.0 -490.0C-273.0 -497.0 -266.0 -507.0 -262.0 -514.0C6.0 -418.0 29.0 -274.0 29.0 -160.0V0.0ZM39.0 -366.0C116.0 -408.0 207.0 -470.0 252.0 -514.0L270.0 -492.0C225.0 -449.0 134.0 -388.0 58.0 -348.0ZM-187.0 109.0V-297.0H-158.0V80.0H201.0V-297.0H230.0V109.0Z"/></g>
<g fill="black" opacity=".8" transform="translate(1300 300) scale(0.1 -0.1)"><path d="M0.0 0.0V-164.0C0.0 -264.0 -18.0 -406.0 -280.0 -492.0C-274.0 -499.0 -265.0 -511.0 -262.0 -517.0C8.0 -421.0 29.0 -273.0 29.0 -163.0V0.0ZM49.0 -354.0C125.0 -399.0 217.0 -462.0 264.0 -505.0L284.0 -482.0C237.0 -440.0 145.0 -379.0 70.0 -337.0ZM-192.0 121.0V-312.0H-163.0V91.0H199.0V-312.0H229.0V121.0Z"/></g>
<g fill="red" transform="translate(1400 300) scale(0.1 -0.1)"><path d="M0.0 0.0V-161.0C0.0 -246.0 -29.0 -355.0 -268.0 -421.0C-238.0 -450.0 -199.0 -501.0 -181.0 -533.0C74.0 -441.0 135.0 -294.0 135.0 -163.0V0.0ZM87.0 -405.0C156.0 -441.0 250.0 -497.0 295.0 -535.0L372.0 -432.0C324.0 -395.0 227.0 -345.0 160.0 -314.0ZM-178.0 149.0V-303.0H-55.0V26.0H188.0V-299.0H317.0V149.0Z"/></g>
<g fill="black" opacity=".8" transform="translate(1400 300) scale(0.1 -0.1)"><path d="M0.0 0.0V-164.0C0.0 -250.0 -25.0 -363.0 -257.0 -430.0C-229.0 -456.0 -189.0 -503.0 -174.0 -532.0C75.0 -440.0 127.0 -292.0 127.0 -167.0V0.0ZM78.0 -388.0C149.0 -430.0 247.0 -491.0 291.0 -531.0L368.0 -436.0C319.0 -396.0 219.0 -339.0 149.0 -303.0ZM-184.0 157.0V-308.0H-60.0V36.0H187.0V-302.0H317.0V157.0Z"/></g>
<g fill="red" transform="translate(1500 300) scale(0.1 -0.1)"><path d="M0.0 0.0V-69.0C0.0 -144.0 -21.0 -253.0 -316.0 -324.0C-310.0 -331.0 -301.0 -341.0 -298.0 -350.0C5.0 -270.0 29.0 -154.0 29.0 -69.0V0.0ZM48.0 -219.0C130.0 -252.0 232.0 -305.0 285.0 -341.0L303.0 -316.0C250.0 -280.0 147.0 -230.0 66.0 -197.0ZM-198.0 111.0V-170.0H-169.0V82.0H213.0V-170.0H242.0V111.0Z"/></g>
<g fill="black" opacity=".8" transform="translate(1500 300) scale(0.1 -0.1)"><path d="M0.0 0.0V-94.0C0.0 -165.0 -24.0 -263.0 -304.0 -321.0C-299.0 -328.0 -291.0 -340.0 -289.0 -346.0C2.0 -279.0 27.0 -175.0 27.0 -93.0V0.0ZM55.0 -215.0C137.0 -251.0 239.0 -304.0 291.0 -342.0L308.0 -318.0C255.0 -281.0 153.0 -230.0 73.0 -197.0ZM-200.0 113.0V-174.0H-173.0V85.0H218.0V-174.0H246.0V113.0Z"/></g>
<g fill="red" transform="translate(1600 300) scale(0.1 -0.1)"><path d="M0.0 0.0V-89.0C0.0 -143.0 -30.0 -216.0 -263.0 -259.0C-233.0 -286.0 -195.0 -335.0 -178.0 -366.0C80.0 -300.0 131.0 -192.0 131.0 -93.0V0.0ZM82.0 -259.0C161.0 -286.0 270.0 -332.0 322.0 -364.0L387.0 -265.0C331.0 -234.0 220.0 -193.0 144.0 -170.0ZM-187.0 129.0V-179.0H-55.0V22.0H195.0V-179.0H333.0V129.0Z"/></g>
<g fill="black" opacity=".8" transform="translate(1600 300) scale(0.1 -0.1)"><path d="M0.0 0.0V-79.0C0.0 -137.0 -28.0 -211.0 -276.0 -260.0C-249.0 -285.0 -210.0 -331.0 -196.0 -360.0C66.0 -289.0 125.0 -179.0 125.0 -82.0V0.0ZM81.0 -252.0C157.0 -283.0 265.0 -331.0 314.0 -364.0L380.0 -271.0C326.0 -238.0 216.0 -193.0 141.0 -167.0ZM-187.0 133.0V-180.0H-63.0V26.0H194.0V-176.0H324.0V133.0Z"/></g>
<g fill="red" transform="translate(100 400) scale(0.1 -0.1)"><path d="M0.0 0.0V-136.0C0.0 -214.0 -28.0 -295.0 -179.0 -353.0C-173.0 -358.0 -164.0 -369.0 -161.0 -376.0C-3.0 -315.0 30.0 -221.0 30.0 -137.0V0.0ZM45.0 -256.0C95.0 -290.0 158.0 -343.0 190.0 -379.0L212.0 -359.0C181.0 -325.0 118.0 -273.0 65.0 -239.0ZM-119.0 82.0V-212.0H-90.0V53.0H122.0V-212.0H151.0V82.0Z"/></g>
<g fill="black" opacity=".8" transform="translate(100 400) scale(0.1 -0.1)"><path d="M0.0 0.0V-134.0C0.0 -207.0 -24.0 -294.0 -172.0 -352.0C-167.0 -356.0 -159.0 -366.0 -157.0 -371.0C-2.0 -309.0 24.0 -214.0 24.0 -134.0V0.0ZM40.0 -254.0C92.0 -290.0 155.0 -341.0 187.0 -376.0L203.0 -357.0C172.0 -323.0 109.0 -275.0 57.0 -240.0ZM-124.0 87.0V-215.0H-101.0V62.0H133.0V-215.0H157.0V87.0Z"/></g>
<g fill="red" transform="translate(200 400) scale(0.1 -0.1)"><path d="M0.0 0.0V-126.0C0.0 -189.0 -17.0 -247.0 -153.0 -289.0C-135.0 -304.0 -104.0 -346.0 -94.0 -367.0C62.0 -314.0 95.0 -220.0 95.0 -129.0V0.0ZM61.0 -280.0C108.0 -304.0 168.0 -346.0 199.0 -375.0L264.0 -298.0C232.0 -271.0 173.0 -234.0 123.0 -211.0ZM-121.0 111.0V-197.0H-29.0V19.0H116.0V-197.0H211.0V111.0Z"/></g>
<g fill="black" opacity=".8" transform="translate(200 400) scale(0.1 -0.1)"><path d="M0.0 0.0V-136.0C0.0 -192.0 -18.0 -255.0 -151.0 -295.0C-132.0 -311.0 -101.0 -349.0 -91.0 -369.0C65.0 -317.0 94.0 -222.0 94.0 -139.0V0.0ZM60.0 -270.0C107.0 -299.0 172.0 -343.0 201.0 -372.0L266.0 -300.0C235.0 -272.0 170.0 -231.0 122.0 -204.0ZM-122.0 115.0V-201.0H-25.0V29.0H118.0V-194.0H219.0V115.0Z"/></g>
<g fill="red" transform="translate(300 400) scale(0.1 -0.1)"><path d="M0.0 0.0V-178.0C0.0 -276.0 -15.0 -412.0 -218.0 -494.0C-211.0 -500.0 -204.0 -510.0 -200.0 -518.0C10.0 -427.0 30.0 -285.0 30.0 -177.0V0.0ZM58.0 -351.0C122.0 -399.0 198.0 -467.0 236.0 -511.0L256.0 -487.0C219.0 -444.0 142.0 -377.0 78.0 -330.0ZM-159.0 114.0V-309.0H-129.0V84.0H160.0V-309.0H189.0V114.0Z"/></g>
<g fill="black" opacity=".8" transform="translate(300 400) scale(0.1 -0.1)"><path d="M0.0 0.0V-180.0C0.0 -282.0 -30.0 -411.0 -224.0 -494.0C-216.0 -500.0 -207.0 -513.0 -204.0 -520.0C-0.0 -430.0 32.0 -292.0 32.0 -180.0V0.0ZM54.0 -354.0C121.0 -403.0 200.0 -473.0 240.0 -519.0L263.0 -496.0C224.0 -450.0 144.0 -384.0 77.0 -336.0ZM-160.0 115.0V-307.0H-129.0V83.0H175.0V-307.0H208.0V115.0Z"/></g>
<g fill="red" transform="translate(400 400) scale(0.1 -0.1)"><path d="M0.0 0.0V-185.0C0.0 -267.0 -16.0 -362.0 -204.0 -418.0C-176.0 -442.0 -135.0 -490.0 -117.0 -519.0C75.0 -438.0 137.0 -305.0 137.0 -186.0V0.0ZM95.0 -355.0C151.0 -403.0 233.0 -472.0 269.0 -515.0L360.0 -413.0C320.0 -372.0 236.0 -308.0 182.0 -266.0ZM-161.0 167.0V-264.0H-30.0V39.0H164.0V-260.0H302.0V167.0Z"/></g>
<g fill="black" opacity=".8" transform="translate(400 400) scale(0.1 -0.1)"><path d="M0.0 0.0V-174.0C0.0 -253.0 -22.0 -352.0 -197.0 -410.0C-171.0 -432.0 -129.0 -481.0 -115.0 -509.0C89.0 -432.0 127.0 -295.0 127.0 -177.0V0.0ZM84.0 -365.0C145.0 -407.0 228.0 -469.0 265.0 -509.0L354.0 -411.0C313.0 -372.0 229.0 -315.0 168.0 -277.0ZM-157.0 162.0V-272.0H-28.0V42.0H160.0V-262.0H294.0V162.0Z"/></g>
<g fill="red" transform="translate(500 400) scale(0.1 -0.1)"><path d="M0.0 0.0V-134.0C0.0 -212.0 -15.0 -324.0 -178.0 -393.0C-171.0 -399.0 -164.0 -410.0 -159.0 -417.0C12.0 -338.0 30.0 -220.0 30.0 -133.0V0.0ZM28.0 -255.0C77.0 -289.0 133.0 -340.0 161.0 -373.0L182.0 -352.0C154.0 -319.0 97.0 -271.0 48.0 -237.0ZM-127.0 93.0V-234.0H-98.0V64.0H136.0V-234.0H166.0V93.0Z"/></g>
<g fill="black" opacity=".8" transform="translate(500 400) scale(0.1 -0.1)"><path d="M0.0 0.0V-130.0C0.0 -209.0 -19.0 -320.0 -187.0 -383.0C-181.0 -388.0 -174.0 -399.0 -172.0 -404.0C4.0 -332.0 25.0 -217.0 25.0 -129.0V0.0ZM30.0 -257.0C74.0 -293.0 129.0 -344.0 157.0 -376.0L177.0 -357.0C149.0 -326.0 94.0 -278.0 49.0 -243.0ZM-131.0 84.0V-231.0H-107.0V58.0H133.0V-231.0H159.0V84.0Z"/></g>
<g fill="red" transform="translate(600 400) scale(0.1 -0.1)"><path d="M0.0 0.0V-102.0C0.0 -160.0 -19.0 -246.0 -162.0 -296.0C-137.0 -315.0 -105.0 -350.0 -89.0 -373.0C76.0 -303.0 107.0 -194.0 107.0 -104.0V0.0ZM33.0 -244.0C85.0 -280.0 151.0 -336.0 180.0 -372.0L250.0 -288.0C218.0 -252.0 150.0 -202.0 99.0 -168.0ZM-125.0 129.0V-188.0H-23.0V33.0H129.0V-175.0H236.0V129.0Z"/></g>
<g fill="black" opacity=".8" transform="translate(600 400) scale(0.1 -0.1)"><path d="M0.0 0.0V-93.0C0.0 -157.0 -16.0 -252.0 -154.0 -304.0C-131.0 -323.0 -96.0 -359.0 -83.0 -381.0C74.0 -310.0 103.0 -192.0 103.0 -95.0V0.0ZM58.0 -242.0C101.0 -279.0 158.0 -330.0 183.0 -364.0L253.0 -295.0C225.0 -262.0 167.0 -213.0 124.0 -180.0ZM-122.0 125.0V-182.0H-21.0V21.0H122.0V-173.0H227.0V125.0Z"/></g>
<g fill="red" transform="translate(700 400) scale(0.1 -0.1)"><path d="M0.0 0.0V-135.0C0.0 -252.0 -25.0 -400.0 -424.0 -503.0C-418.0 -509.0 -410.0 -520.0 -407.0 -528.0C-1.0 -420.0 30.0 -263.0 30.0 -135.0V0.0ZM38.0 -353.0C169.0 -399.0 331.0 -472.0 414.0 -523.0L431.0 -499.0C345.0 -448.0 184.0 -377.0 56.0 -332.0ZM-290.0 113.0V-335.0H-260.0V83.0H282.0V-335.0H312.0V113.0Z"/></g>
<g fill="black" opacity=".8" transform="translate(700 400) scale(0.1 -0.1)"><path d="M0.0 0.0V-137.0C0.0 -246.0 -22.0 -396.0 -422.0 -494.0C-416.0 -501.0 -408.0 -514.0 -405.0 -521.0C4.0 -414.0 31.0 -257.0 31.0 -137.0V0.0ZM36.0 -349.0C163.0 -395.0 322.0 -466.0 403.0 -515.0L421.0 -488.0C337.0 -438.0 181.0 -371.0 56.0 -327.0ZM-289.0 103.0V-335.0H-259.0V72.0H287.0V-335.0H317.0V103.0Z"/></g>
<g fill="red" transform="translate(800 400) scale(0.1 -0.1)"><path d="M0.0 0.0V-145.0C0.0 -228.0 -47.0 -321.0 -403.0 -382.0C-370.0 -416.0 -327.0 -479.0 -310.0 -514.0C59.0 -428.0 154.0 -288.0 154.0 -148.0V0.0ZM89.0 -372.0C201.0 -408.0 357.0 -471.0 431.0 -515.0L510.0 -398.0C428.0 -355.0 269.0 -298.0 162.0 -269.0ZM-272.0 171.0V-299.0H-126.0V38.0H278.0V-290.0H431.0V171.0Z"/></g>
<g fill="black" opacity=".8" transform="translate(800 400) scale(0.1 -0.1)"><path d="M0.0 0.0V-143.0C0.0 -223.0 -35.0 -330.0 -392.0 -396.0C-357.0 -430.0 -309.0 -488.0 -291.0 -523.0C85.0 -429.0 159.0 -277.0 159.0 -147.0V0.0ZM100.0 -376.0C211.0 -416.0 372.0 -479.0 447.0 -522.0L522.0 -400.0C439.0 -358.0 275.0 -299.0 167.0 -268.0ZM-276.0 164.0V-303.0H-126.0V26.0H283.0V-297.0H440.0V164.0Z"/></g>
<g fill="red" transform="translate(900 400) scale(0.1 -0.1)"><path d="M0.0 0.0V-95.0C0.0 -185.0 -27.0 -304.0 -405.0 -381.0C-399.0 -388.0 -392.0 -400.0 -389.0 -407.0C-2.0 -323.0 30.0 -197.0 30.0 -95.0V0.0ZM40.0 -243.0C171.0 -290.0 335.0 -364.0 419.0 -415.0L437.0 -389.0C351.0 -337.0 189.0 -265.0 58.0 -220.0ZM-270.0 97.0V-238.0H-241.0V68.0H280.0V-238.0H309.0V97.0Z"/></g>
<g fill="black" opacity=".8" transform="translate(900 400) scale(0.1 -0.1)"><path d="M0.0 0.0V-89.0C0.0 -181.0 -32.0 -299.0 -408.0 -379.0C-402.0 -386.0 -394.0 -400.0 -391.0 -407.0C-4.0 -319.0 31.0 -192.0 31.0 -89.0V0.0ZM46.0 -252.0C175.0 -297.0 336.0 -366.0 419.0 -416.0L437.0 -388.0C352.0 -337.0 192.0 -271.0 65.0 -230.0ZM-279.0 94.0V-240.0H-248.0V63.0H292.0V-240.0H323.0V94.0Z"/></g>
<g fill="red" transform="translate(1000 400) scale(0.1 -0.1)"><path d="M0.0 0.0V-78.0C0.0 -135.0 -33.0 -212.0 -382.0 -264.0C-345.0 -295.0 -299.0 -351.0 -281.0 -384.0C90.0 -309.0 163.0 -187.0 163.0 -83.0V0.0ZM115.0 -257.0C225.0 -292.0 391.0 -349.0 470.0 -383.0L546.0 -259.0C460.0 -226.0 289.0 -175.0 186.0 -148.0ZM-271.0 163.0V-183.0H-119.0V30.0H289.0V-167.0H449.0V163.0Z"/></g>
<g fill="black" opacity=".8" transform="translate(1000 400) scale(0.1 -0.1)"><path d="M0.0 0.0V-75.0C0.0 -132.0 -35.0 -208.0 -375.0 -258.0C-340.0 -290.0 -292.0 -349.0 -275.0 -384.0C91.0 -310.0 160.0 -187.0 160.0 -80.0V0.0ZM112.0 -262.0C225.0 -294.0 388.0 -350.0 465.0 -389.0L540.0 -261.0C456.0 -223.0 291.0 -172.0 181.0 -147.0ZM-265.0 159.0V-181.0H-111.0V27.0H282.0V-173.0H444.0V159.0Z"/></g>
<g fill="red" transform="translate(1100 400) scale(0.1 -0.1)"><path d="M0.0 0.0V-274.0C0.0 -408.0 -10.0 -598.0 -200.0 -709.0C-193.0 -715.0 -184.0 -726.0 -180.0 -732.0C16.0 -611.0 30.0 -417.0 30.0 -274.0V0.0ZM33.0 -520.0C82.0 -576.0 136.0 -653.0 162.0 -701.0L186.0 -679.0C161.0 -634.0 105.0 -559.0 56.0 -503.0ZM-142.0 113.0V-484.0H-112.0V84.0H129.0V-484.0H158.0V113.0Z"/></g>
<g fill="black" opacity=".8" transform="translate(1100 400) scale(0.1 -0.1)"><path d="M0.0 0.0V-282.0C0.0 -415.0 -11.0 -597.0 -203.0 -709.0C-196.0 -715.0 -187.0 -726.0 -183.0 -732.0C15.0 -611.0 29.0 -423.0 29.0 -281.0V0.0ZM34.0 -534.0C82.0 -586.0 137.0 -656.0 164.0 -700.0L188.0 -680.0C161.0 -637.0 105.0 -570.0 58.0 -520.0ZM-143.0 122.0V-486.0H-114.0V92.0H138.0V-486.0H168.0V122.0Z"/></g>
<g fill="red" transform="translate(1200 400) scale(0.1 -0.1)"><path d="M0.0 0.0V-305.0C0.0 -429.0 -18.0 -591.0 -177.0 -673.0C-149.0 -695.0 -111.0 -738.0 -94.0 -764.0C87.0 -656.0 120.0 -469.0 120.0 -306.0V0.0ZM56.0 -564.0C103.0 -621.0 162.0 -698.0 188.0 -748.0L284.0 -667.0C256.0 -619.0 194.0 -546.0 146.0 -493.0ZM-136.0 149.0V-495.0H-25.0V35.0H143.0V-489.0H259.0V149.0Z"/></g>
<g fill="black" opacity=".8" transform="translate(1200 400) scale(0.1 -0.1)"><path d="M0.0 0.0V-310.0C0.0 -429.0 -17.0 -582.0 -179.0 -665.0C-155.0 -688.0 -117.0 -731.0 -103.0 -757.0C78.0 -649.0 112.0 -465.0 112.0 -311.0V0.0ZM58.0 -563.0C101.0 -618.0 159.0 -693.0 183.0 -739.0L272.0 -666.0C245.0 -620.0 185.0 -549.0 140.0 -498.0ZM-139.0 165.0V-490.0H-31.0V40.0H136.0V-482.0H250.0V165.0Z"/></g>
<g fill="red" transform="translate(1300 400) scale(0.1 -0.1)"><path d="M0.0 0.0V-91.0C0.0 -178.0 -27.0 -292.0 -407.0 -366.0C-401.0 -373.0 -395.0 -385.0 -392.0 -391.0C-3.0 -311.0 30.0 -189.0 30.0 -91.0V0.0ZM40.0 -234.0C173.0 -274.0 339.0 -341.0 427.0 -389.0L444.0 -362.0C355.0 -314.0 190.0 -250.0 57.0 -211.0ZM-272.0 71.0V-218.0H-243.0V42.0H286.0V-218.0H315.0V71.0Z"/></g>
<g fill="black" opacity=".8" transform="translate(1300 400) scale(0.1 -0.1)"><path d="M0.0 0.0V-88.0C0.0 -177.0 -34.0 -283.0 -409.0 -358.0C-403.0 -365.0 -395.0 -378.0 -392.0 -385.0C-7.0 -303.0 31.0 -189.0 31.0 -88.0V0.0ZM37.0 -235.0C167.0 -278.0 329.0 -345.0 412.0 -393.0L430.0 -365.0C344.0 -316.0 183.0 -253.0 56.0 -212.0ZM-281.0 82.0V-227.0H-252.0V52.0H286.0V-227.0H317.0V82.0Z"/></g>
<g fill="red" transform="translate(1400 400) scale(0.1 -0.1)"><path d="M0.0 0.0V-73.0C0.0 -126.0 -33.0 -197.0 -365.0 -243.0C-331.0 -272.0 -287.0 -326.0 -269.0 -357.0C88.0 -289.0 153.0 -176.0 153.0 -77.0V0.0ZM107.0 -231.0C219.0 -264.0 376.0 -324.0 452.0 -366.0L523.0 -247.0C441.0 -206.0 280.0 -152.0 173.0 -126.0ZM-275.0 142.0V-169.0H-129.0V22.0H278.0V-153.0H432.0V142.0Z"/></g>
<g fill="black" opacity=".8" transform="translate(1400 400) scale(0.1 -0.1)"><path d="M0.0 0.0V-76.0C0.0 -127.0 -34.0 -191.0 -369.0 -236.0C-336.0 -267.0 -288.0 -325.0 -271.0 -358.0C91.0 -293.0 159.0 -181.0 159.0 -81.0V0.0ZM106.0 -239.0C218.0 -269.0 379.0 -323.0 456.0 -361.0L529.0 -238.0C445.0 -201.0 282.0 -152.0 173.0 -129.0ZM-266.0 146.0V-167.0H-113.0V19.0H276.0V-158.0H436.0V146.0Z"/></g>
<g fill="red" transform="translate(1500 400) scale(0.1 -0.1)"><path d="M0.0 0.0V-70.0C0.0 -153.0 -23.0 -272.0 -391.0 -350.0C-385.0 -356.0 -377.0 -369.0 -374.0 -375.0C1.0 -290.0 30.0 -164.0 30.0 -70.0V0.0ZM40.0 -220.0C160.0 -262.0 310.0 -329.0 387.0 -375.0L406.0 -349.0C327.0 -302.0 178.0 -237.0 58.0 -197.0ZM-262.0 72.0V-242.0H-233.0V43.0H277.0V-242.0H306.0V72.0Z"/></g>
<g fill="black" opacity=".8" transform="translate(1500 400) scale(0.1 -0.1)"><path d="M0.0 0.0V-73.0C0.0 -161.0 -27.0 -277.0 -394.0 -354.0C-388.0 -361.0 -381.0 -373.0 -379.0 -379.0C-3.0 -294.0 28.0 -171.0 28.0 -73.0V0.0ZM36.0 -231.0C161.0 -272.0 317.0 -336.0 397.0 -381.0L414.0 -356.0C331.0 -309.0 176.0 -249.0 54.0 -210.0ZM-264.0 73.0V-235.0H-237.0V46.0H279.0V-235.0H307.0V73.0Z"/></g>
<g fill="red" transform="translate(1600 400) scale(0.1 -0.1)"><path d="M0.0 0.0V-60.0C0.0 -111.0 -22.0 -188.0 -353.0 -239.0C-318.0 -268.0 -274.0 -320.0 -255.0 -352.0C99.0 -276.0 153.0 -156.0 153.0 -64.0V0.0ZM109.0 -217.0C221.0 -249.0 380.0 -309.0 455.0 -351.0L528.0 -228.0C445.0 -188.0 284.0 -135.0 176.0 -109.0ZM-257.0 145.0V-150.0H-114.0V12.0H286.0V-142.0H436.0V145.0Z"/></g>
<g fill="black" opacity=".8" transform="translate(1600 400) scale(0.1 -0.1)"><path d="M0.0 0.0V-52.0C0.0 -103.0 -33.0 -178.0 -360.0 -226.0C-326.0 -256.0 -281.0 -310.0 -265.0 -342.0C87.0 -273.0 151.0 -156.0 151.0 -57.0V0.0ZM110.0 -221.0C217.0 -251.0 374.0 -304.0 448.0 -340.0L516.0 -221.0C435.0 -185.0 276.0 -137.0 172.0 -115.0ZM-250.0 148.0V-153.0H-107.0V22.0H278.0V-145.0H428.0V148.0Z"/></g>
<g fill="red" transform="translate(100 500) scale(0.1 -0.1)"><path d="M0.0 0.0V-274.0C0.0 -407.0 -8.0 -597.0 -185.0 -709.0C-178.0 -715.0 -169.0 -725.0 -165.0 -731.0C17.0 -611.0 30.0 -415.0 30.0 -274.0V0.0ZM28.0 -520.0C77.0 -576.0 132.0 -653.0 157.0 -701.0L182.0 -679.0C156.0 -634.0 100.0 -559.0 51.0 -503.0ZM-130.0 113.0V-484.0H-100.0V84.0H123.0V-484.0H152.0V113.0Z"/></g>
<g fill="black" opacity=".8" transform="translate(100 500) scale(0.1 -0.1)"><path d="M0.0 0.0V-280.0C0.0 -411.0 -8.0 -594.0 -187.0 -705.0C-181.0 -711.0 -171.0 -722.0 -168.0 -727.0C16.0 -607.0 28.0 -419.0 28.0 -280.0V0.0ZM32.0 -533.0C74.0 -584.0 123.0 -652.0 147.0 -693.0L170.0 -674.0C146.0 -634.0 97.0 -569.0 55.0 -520.0ZM-131.0 119.0V-487.0H-103.0V90.0H127.0V-487.0H155.0V119.0Z"/></g>
<g fill="red" transform="translate(200 500) scale(0.1 -0.1)"><path d="M0.0 0.0V-304.0C0.0 -425.0 -15.0 -591.0 -163.0 -673.0C-138.0 -692.0 -104.0 -731.0 -89.0 -754.0C78.0 -647.0 107.0 -460.0 107.0 -304.0V0.0ZM47.0 -560.0C89.0 -614.0 141.0 -689.0 162.0 -736.0L252.0 -666.0C228.0 -620.0 173.0 -550.0 131.0 -499.0ZM-125.0 149.0V-495.0H-21.0V35.0H128.0V-489.0H236.0V149.0Z"/></g>
<g fill="black" opacity=".8" transform="translate(200 500) scale(0.1 -0.1)"><path d="M0.0 0.0V-309.0C0.0 -428.0 -16.0 -583.0 -165.0 -666.0C-142.0 -688.0 -107.0 -728.0 -93.0 -752.0C74.0 -645.0 105.0 -462.0 105.0 -310.0V0.0ZM54.0 -560.0C93.0 -616.0 144.0 -689.0 165.0 -733.0L251.0 -666.0C228.0 -621.0 173.0 -551.0 134.0 -501.0ZM-128.0 161.0V-491.0H-27.0V40.0H127.0V-484.0H233.0V161.0Z"/></g>
<g fill="red" transform="translate(300 500) scale(0.1 -0.1)"><path d="M0.0 0.0V-374.0C0.0 -525.0 -14.0 -683.0 -116.0 -806.0C-108.0 -810.0 -98.0 -818.0 -92.0 -823.0C15.0 -696.0 30.0 -537.0 30.0 -374.0V0.0ZM-234.0 -599.0C-196.0 -645.0 -151.0 -709.0 -127.0 -746.0L-103.0 -726.0C-125.0 -691.0 -172.0 -629.0 -211.0 -583.0ZM-389.0 14.0V-563.0H-360.0V-15.0H-133.0V-563.0H-104.0V14.0Z"/></g>
<g fill="black" opacity=".8" transform="translate(300 500) scale(0.1 -0.1)"><path d="M0.0 0.0V-379.0C0.0 -529.0 -20.0 -685.0 -120.0 -808.0C-112.0 -811.0 -100.0 -821.0 -95.0 -825.0C9.0 -700.0 31.0 -539.0 31.0 -379.0V0.0ZM-238.0 -604.0C-201.0 -649.0 -152.0 -709.0 -127.0 -744.0L-103.0 -723.0C-127.0 -690.0 -175.0 -633.0 -215.0 -588.0ZM-392.0 27.0V-571.0H-362.0V-4.0H-125.0V-571.0H-95.0V27.0Z"/></g>
<g fill="red" transform="translate(400 500) scale(0.1 -0.1)"><path d="M0.0 0.0V-393.0C0.0 -522.0 -7.0 -716.0 -70.0 -828.0C-37.0 -845.0 16.0 -884.0 41.0 -908.0C124.0 -778.0 136.0 -558.0 136.0 -394.0V0.0ZM-224.0 -674.0C-196.0 -726.0 -162.0 -797.0 -148.0 -840.0L-51.0 -783.0C-67.0 -742.0 -103.0 -675.0 -132.0 -625.0ZM-412.0 6.0V-617.0H-302.0V-123.0H-149.0V-611.0H-34.0V6.0Z"/></g>
<g fill="black" opacity=".8" transform="translate(400 500) scale(0.1 -0.1)"><path d="M0.0 0.0V-396.0C0.0 -527.0 -5.0 -702.0 -67.0 -814.0C-39.0 -828.0 18.0 -873.0 38.0 -895.0C123.0 -770.0 133.0 -553.0 133.0 -397.0V0.0ZM-234.0 -670.0C-202.0 -724.0 -165.0 -796.0 -150.0 -839.0L-53.0 -787.0C-70.0 -744.0 -109.0 -676.0 -142.0 -625.0ZM-413.0 20.0V-623.0H-300.0V-104.0H-157.0V-614.0H-39.0V20.0Z"/></g>
<g fill="red" transform="translate(500 500) scale(0.1 -0.1)"><path d="M0.0 0.0V-255.0C0.0 -383.0 -9.0 -568.0 -186.0 -679.0C-179.0 -685.0 -170.0 -695.0 -165.0 -702.0C16.0 -581.0 30.0 -391.0 30.0 -255.0V0.0ZM38.0 -508.0C88.0 -561.0 144.0 -635.0 171.0 -681.0L196.0 -661.0C169.0 -617.0 112.0 -545.0 62.0 -493.0ZM-135.0 135.0V-463.0H-105.0V105.0H136.0V-463.0H165.0V135.0Z"/></g>
<g fill="black" opacity=".8" transform="translate(500 500) scale(0.1 -0.1)"><path d="M0.0 0.0V-256.0C0.0 -384.0 -11.0 -568.0 -184.0 -681.0C-178.0 -686.0 -168.0 -698.0 -165.0 -704.0C15.0 -582.0 29.0 -392.0 29.0 -256.0V0.0ZM43.0 -512.0C90.0 -565.0 143.0 -636.0 169.0 -681.0L193.0 -661.0C168.0 -617.0 114.0 -548.0 67.0 -498.0ZM-137.0 131.0V-460.0H-107.0V100.0H136.0V-460.0H166.0V131.0Z"/></g>
<g fill="red" transform="translate(600 500) scale(0.1 -0.1)"><path d="M0.0 0.0V-272.0C0.0 -392.0 -13.0 -552.0 -165.0 -640.0C-140.0 -660.0 -104.0 -698.0 -89.0 -722.0C77.0 -609.0 110.0 -425.0 110.0 -273.0V0.0ZM56.0 -531.0C104.0 -589.0 168.0 -669.0 198.0 -717.0L296.0 -641.0C264.0 -594.0 196.0 -518.0 149.0 -464.0ZM-136.0 168.0V-449.0H-29.0V40.0H131.0V-443.0H243.0V168.0Z"/></g>
<g fill="black" opacity=".8" transform="translate(600 500) scale(0.1 -0.1)"><path d="M0.0 0.0V-273.0C0.0 -389.0 -18.0 -546.0 -171.0 -631.0C-146.0 -654.0 -108.0 -697.0 -94.0 -723.0C81.0 -613.0 113.0 -427.0 113.0 -274.0V0.0ZM63.0 -541.0C108.0 -595.0 167.0 -668.0 192.0 -713.0L282.0 -630.0C254.0 -586.0 192.0 -517.0 146.0 -468.0ZM-138.0 175.0V-452.0H-28.0V49.0H133.0V-444.0H248.0V175.0Z"/></g>
<g fill="red" transform="translate(700 500) scale(0.1 -0.1)"><path d="M0.0 0.0V-262.0C0.0 -394.0 -9.0 -584.0 -188.0 -699.0C-182.0 -705.0 -173.0 -715.0 -168.0 -721.0C16.0 -598.0 29.0 -402.0 29.0 -262.0V0.0ZM42.0 -526.0C84.0 -576.0 137.0 -646.0 164.0 -686.0L189.0 -667.0C162.0 -628.0 108.0 -561.0 66.0 -512.0ZM-133.0 115.0V-483.0H-104.0V85.0H133.0V-483.0H162.0V115.0Z"/></g>
<g fill="black" opacity=".8" transform="translate(700 500) scale(0.1 -0.1)"><path d="M0.0 0.0V-261.0C0.0 -392.0 -9.0 -583.0 -183.0 -698.0C-177.0 -703.0 -168.0 -714.0 -164.0 -721.0C17.0 -596.0 28.0 -400.0 28.0 -260.0V0.0ZM35.0 -522.0C81.0 -575.0 133.0 -646.0 158.0 -689.0L182.0 -670.0C157.0 -628.0 104.0 -560.0 59.0 -509.0ZM-132.0 118.0V-482.0H-104.0V89.0H132.0V-482.0H161.0V118.0Z"/></g>
<g fill="red" transform="translate(800 500) scale(0.1 -0.1)"><path d="M0.0 0.0V-272.0C0.0 -386.0 -17.0 -555.0 -163.0 -640.0C-136.0 -661.0 -102.0 -698.0 -86.0 -722.0C84.0 -611.0 109.0 -424.0 109.0 -273.0V0.0ZM63.0 -548.0C104.0 -598.0 159.0 -666.0 184.0 -708.0L269.0 -625.0C242.0 -586.0 184.0 -521.0 143.0 -475.0ZM-132.0 174.0V-453.0H-22.0V45.0H130.0V-447.0H246.0V174.0Z"/></g>
<g fill="black" opacity=".8" transform="translate(800 500) scale(0.1 -0.1)"><path d="M0.0 0.0V-274.0C0.0 -391.0 -16.0 -553.0 -166.0 -639.0C-141.0 -662.0 -104.0 -704.0 -90.0 -729.0C82.0 -617.0 111.0 -428.0 111.0 -275.0V0.0ZM64.0 -536.0C106.0 -591.0 162.0 -665.0 186.0 -710.0L274.0 -633.0C248.0 -588.0 189.0 -517.0 146.0 -467.0ZM-132.0 173.0V-455.0H-26.0V46.0H136.0V-447.0H247.0V173.0Z"/></g>
<g fill="red" transform="translate(900 500) scale(0.1 -0.1)"><path d="M0.0 0.0V-65.0C0.0 -146.0 -54.0 -234.0 -253.0 -296.0C-247.0 -301.0 -240.0 -312.0 -236.0 -319.0C-28.0 -255.0 30.0 -157.0 30.0 -66.0V0.0ZM47.0 -188.0C129.0 -222.0 229.0 -281.0 281.0 -321.0L304.0 -301.0C252.0 -261.0 150.0 -204.0 70.0 -170.0ZM-186.0 91.0V-165.0H-156.0V62.0H195.0V-160.0H225.0V91.0Z"/></g>
<g fill="black" opacity=".8" transform="translate(900 500) scale(0.1 -0.1)"><path d="M0.0 0.0V-83.0C0.0 -151.0 -32.0 -233.0 -259.0 -287.0C-253.0 -293.0 -245.0 -305.0 -243.0 -311.0C-6.0 -250.0 27.0 -161.0 27.0 -83.0V0.0ZM45.0 -186.0C125.0 -223.0 223.0 -278.0 274.0 -317.0L291.0 -294.0C241.0 -255.0 142.0 -203.0 63.0 -168.0ZM-182.0 88.0V-156.0H-156.0V60.0H194.0V-156.0H222.0V88.0Z"/></g>
<g fill="red" transform="translate(1000 500) scale(0.1 -0.1)"><path d="M0.0 0.0V-57.0C0.0 -114.0 -31.0 -152.0 -250.0 -180.0C-228.0 -202.0 -192.0 -255.0 -181.0 -282.0C60.0 -244.0 120.0 -164.0 120.0 -62.0V0.0ZM67.0 -176.0C139.0 -203.0 228.0 -252.0 275.0 -288.0L363.0 -209.0C312.0 -175.0 225.0 -130.0 153.0 -105.0ZM-172.0 137.0V-99.0H-42.0V28.0H156.0V-99.0H292.0V137.0Z"/></g>
<g fill="black" opacity=".8" transform="translate(1000 500) scale(0.1 -0.1)"><path d="M0.0 0.0V-56.0C0.0 -101.0 -24.0 -157.0 -228.0 -195.0C-203.0 -217.0 -164.0 -262.0 -151.0 -289.0C78.0 -235.0 122.0 -142.0 122.0 -61.0V0.0ZM81.0 -189.0C153.0 -216.0 254.0 -261.0 301.0 -292.0L370.0 -197.0C319.0 -167.0 218.0 -125.0 147.0 -102.0ZM-173.0 128.0V-113.0H-51.0V25.0H175.0V-105.0H304.0V128.0Z"/></g>
<g fill="red" transform="translate(1100 500) scale(0.1 -0.1)"><path d="M0.0 0.0V-281.0C0.0 -414.0 -9.0 -602.0 -195.0 -711.0C-188.0 -717.0 -179.0 -728.0 -175.0 -734.0C17.0 -616.0 30.0 -423.0 30.0 -281.0V0.0ZM29.0 -526.0C71.0 -582.0 118.0 -660.0 138.0 -707.0L165.0 -688.0C144.0 -643.0 96.0 -568.0 54.0 -511.0ZM-137.0 108.0V-489.0H-109.0V79.0H139.0V-489.0H169.0V108.0Z"/></g>
<g fill="black" opacity=".8" transform="translate(1100 500) scale(0.1 -0.1)"><path d="M0.0 0.0V-275.0C0.0 -411.0 -12.0 -603.0 -198.0 -718.0C-191.0 -724.0 -181.0 -735.0 -178.0 -742.0C15.0 -617.0 30.0 -420.0 30.0 -274.0V0.0ZM29.0 -527.0C74.0 -581.0 127.0 -654.0 152.0 -697.0L178.0 -677.0C153.0 -634.0 100.0 -565.0 55.0 -513.0ZM-138.0 111.0V-492.0H-108.0V80.0H137.0V-492.0H168.0V111.0Z"/></g>
<g fill="red" transform="translate(1200 500) scale(0.1 -0.1)"><path d="M0.0 0.0V-274.0C0.0 -393.0 -16.0 -554.0 -172.0 -640.0C-144.0 -662.0 -104.0 -705.0 -87.0 -731.0C88.0 -618.0 122.0 -431.0 122.0 -274.0V0.0ZM71.0 -522.0C106.0 -579.0 153.0 -655.0 175.0 -701.0L280.0 -632.0C255.0 -587.0 204.0 -514.0 169.0 -462.0ZM-137.0 174.0V-453.0H-22.0V45.0H145.0V-447.0H266.0V174.0Z"/></g>
<g fill="black" opacity=".8" transform="translate(1200 500) scale(0.1 -0.1)"><path d="M0.0 0.0V-276.0C0.0 -394.0 -16.0 -558.0 -166.0 -643.0C-140.0 -667.0 -100.0 -710.0 -85.0 -736.0C90.0 -624.0 118.0 -434.0 118.0 -277.0V0.0ZM65.0 -521.0C106.0 -580.0 159.0 -658.0 181.0 -706.0L276.0 -631.0C251.0 -584.0 195.0 -509.0 153.0 -455.0ZM-132.0 173.0V-449.0H-20.0V39.0H140.0V-439.0H258.0V173.0Z"/></g>
<g fill="red" transform="translate(1300 500) scale(0.1 -0.1)"><path d="M0.0 0.0V-71.0C0.0 -155.0 -23.0 -275.0 -389.0 -354.0C-383.0 -360.0 -375.0 -373.0 -372.0 -380.0C2.0 -292.0 30.0 -166.0 30.0 -71.0V0.0ZM40.0 -233.0C160.0 -275.0 310.0 -342.0 387.0 -388.0L406.0 -362.0C327.0 -315.0 178.0 -250.0 58.0 -210.0ZM-270.0 87.0V-228.0H-241.0V58.0H277.0V-228.0H306.0V87.0Z"/></g>
<g fill="black" opacity=".8" transform="translate(1300 500) scale(0.1 -0.1)"><path d="M0.0 0.0V-75.0C0.0 -162.0 -26.0 -280.0 -392.0 -358.0C-387.0 -365.0 -379.0 -378.0 -377.0 -384.0C-1.0 -298.0 29.0 -172.0 29.0 -75.0V0.0ZM42.0 -237.0C165.0 -278.0 318.0 -342.0 397.0 -388.0L414.0 -362.0C333.0 -315.0 181.0 -255.0 61.0 -216.0ZM-267.0 89.0V-229.0H-239.0V60.0H279.0V-229.0H307.0V89.0Z"/></g>
<g fill="red" transform="translate(1400 500) scale(0.1 -0.1)"><path d="M0.0 0.0V-62.0C0.0 -116.0 -22.0 -198.0 -361.0 -255.0C-325.0 -284.0 -280.0 -336.0 -262.0 -367.0C99.0 -287.0 154.0 -161.0 154.0 -67.0V0.0ZM109.0 -236.0C221.0 -269.0 378.0 -329.0 454.0 -371.0L525.0 -252.0C443.0 -211.0 282.0 -157.0 175.0 -131.0ZM-252.0 150.0V-175.0H-106.0V17.0H275.0V-166.0H429.0V150.0Z"/></g>
<g fill="black" opacity=".8" transform="translate(1400 500) scale(0.1 -0.1)"><path d="M0.0 0.0V-57.0C0.0 -113.0 -34.0 -192.0 -363.0 -244.0C-330.0 -275.0 -284.0 -330.0 -268.0 -362.0C85.0 -287.0 151.0 -165.0 151.0 -61.0V0.0ZM106.0 -245.0C214.0 -276.0 370.0 -329.0 444.0 -366.0L513.0 -244.0C432.0 -208.0 273.0 -160.0 169.0 -136.0ZM-254.0 152.0V-170.0H-109.0V25.0H272.0V-162.0H424.0V152.0Z"/></g>
<g fill="red" transform="translate(1500 500) scale(0.1 -0.1)"><path d="M0.0 0.0V-266.0C0.0 -400.0 -9.0 -593.0 -180.0 -709.0C-174.0 -715.0 -166.0 -724.0 -161.0 -731.0C15.0 -606.0 28.0 -408.0 28.0 -265.0V0.0ZM37.0 -529.0C87.0 -584.0 144.0 -661.0 171.0 -708.0L195.0 -687.0C168.0 -642.0 110.0 -568.0 60.0 -514.0ZM-137.0 126.0V-472.0H-109.0V97.0H141.0V-472.0H168.0V126.0Z"/></g>
<g fill="black" opacity=".8" transform="translate(1500 500) scale(0.1 -0.1)"><path d="M0.0 0.0V-263.0C0.0 -397.0 -13.0 -586.0 -182.0 -703.0C-175.0 -708.0 -165.0 -720.0 -162.0 -727.0C14.0 -601.0 30.0 -405.0 30.0 -263.0V0.0ZM39.0 -525.0C87.0 -580.0 142.0 -655.0 169.0 -701.0L194.0 -681.0C168.0 -636.0 112.0 -564.0 64.0 -511.0ZM-137.0 122.0V-481.0H-106.0V91.0H135.0V-481.0H167.0V122.0Z"/></g>
<g fill="red" transform="translate(1600 500) scale(0.1 -0.1)"><path d="M0.0 0.0V-271.0C0.0 -387.0 -19.0 -548.0 -162.0 -632.0C-135.0 -656.0 -101.0 -700.0 -85.0 -728.0C84.0 -617.0 113.0 -430.0 113.0 -272.0V0.0ZM72.0 -547.0C119.0 -595.0 181.0 -665.0 208.0 -710.0L285.0 -617.0C256.0 -574.0 191.0 -509.0 144.0 -465.0ZM-130.0 168.0V-449.0H-25.0V40.0H139.0V-443.0H249.0V168.0Z"/></g>
<g fill="black" opacity=".8" transform="translate(1600 500) scale(0.1 -0.1)"><path d="M0.0 0.0V-274.0C0.0 -391.0 -17.0 -551.0 -165.0 -636.0C-139.0 -659.0 -99.0 -704.0 -85.0 -730.0C88.0 -619.0 116.0 -430.0 116.0 -276.0V0.0ZM67.0 -538.0C112.0 -593.0 172.0 -668.0 197.0 -714.0L290.0 -630.0C262.0 -584.0 201.0 -513.0 155.0 -462.0ZM-138.0 180.0V-447.0H-25.0V49.0H137.0V-438.0H255.0V180.0Z"/></g>
<g fill="red" transform="translate(100 600) scale(0.1 -0.1)"><path d="M0.0 0.0V-258.0C0.0 -388.0 -9.0 -574.0 -191.0 -687.0C-184.0 -693.0 -175.0 -703.0 -171.0 -710.0C16.0 -588.0 29.0 -396.0 29.0 -258.0V0.0ZM21.0 -519.0C66.0 -572.0 115.0 -644.0 137.0 -690.0L163.0 -671.0C142.0 -627.0 92.0 -556.0 47.0 -504.0ZM-135.0 112.0V-486.0H-105.0V82.0H133.0V-486.0H162.0V112.0Z"/></g>
<g fill="black" opacity=".8" transform="translate(100 600) scale(0.1 -0.1)"><path d="M0.0 0.0V-262.0C0.0 -394.0 -9.0 -585.0 -183.0 -699.0C-177.0 -705.0 -168.0 -716.0 -164.0 -722.0C17.0 -597.0 28.0 -402.0 28.0 -261.0V0.0ZM33.0 -519.0C76.0 -572.0 126.0 -642.0 150.0 -685.0L175.0 -666.0C151.0 -624.0 100.0 -557.0 57.0 -506.0ZM-131.0 115.0V-482.0H-102.0V85.0H130.0V-482.0H160.0V115.0Z"/></g>
<g fill="red" transform="translate(200 600) scale(0.1 -0.1)"><path d="M0.0 0.0V-268.0C0.0 -381.0 -17.0 -547.0 -153.0 -632.0C-124.0 -654.0 -86.0 -695.0 -69.0 -721.0C94.0 -609.0 119.0 -422.0 119.0 -269.0V0.0ZM78.0 -528.0C115.0 -582.0 157.0 -657.0 173.0 -704.0L274.0 -644.0C255.0 -596.0 211.0 -526.0 173.0 -475.0ZM-127.0 170.0V-447.0H-20.0V42.0H137.0V-447.0H249.0V170.0Z"/></g>
<g fill="black" opacity=".8" transform="translate(200 600) scale(0.1 -0.1)"><path d="M0.0 0.0V-269.0C0.0 -387.0 -16.0 -550.0 -162.0 -636.0C-137.0 -658.0 -99.0 -700.0 -85.0 -724.0C83.0 -613.0 111.0 -424.0 111.0 -270.0V0.0ZM63.0 -525.0C103.0 -581.0 157.0 -656.0 179.0 -702.0L268.0 -627.0C243.0 -582.0 187.0 -510.0 146.0 -459.0ZM-129.0 172.0V-448.0H-23.0V43.0H135.0V-440.0H246.0V172.0Z"/></g>
<g fill="red" transform="translate(300 600) scale(0.1 -0.1)"><path d="M0.0 0.0V-271.0C0.0 -400.0 -8.0 -582.0 -183.0 -687.0C-176.0 -693.0 -167.0 -703.0 -163.0 -710.0C17.0 -595.0 30.0 -408.0 30.0 -271.0V0.0ZM31.0 -502.0C65.0 -552.0 105.0 -619.0 126.0 -658.0L152.0 -640.0C133.0 -603.0 91.0 -537.0 56.0 -488.0ZM-130.0 132.0V-445.0H-101.0V103.0H130.0V-445.0H159.0V132.0Z"/></g>
<g fill="black" opacity=".8" transform="translate(300 600) scale(0.1 -0.1)"><path d="M0.0 0.0V-269.0C0.0 -396.0 -11.0 -579.0 -194.0 -683.0C-186.0 -690.0 -177.0 -702.0 -173.0 -709.0C17.0 -592.0 30.0 -405.0 30.0 -268.0V0.0ZM33.0 -501.0C69.0 -552.0 111.0 -619.0 131.0 -659.0L157.0 -638.0C137.0 -600.0 95.0 -535.0 59.0 -486.0ZM-136.0 127.0V-450.0H-105.0V96.0H128.0V-450.0H160.0V127.0Z"/></g>
<g fill="red" transform="translate(400 600) scale(0.1 -0.1)"><path d="M0.0 0.0V-273.0C0.0 -396.0 -10.0 -550.0 -170.0 -640.0C-146.0 -659.0 -110.0 -698.0 -95.0 -721.0C70.0 -607.0 109.0 -425.0 109.0 -273.0V0.0ZM55.0 -507.0C88.0 -567.0 129.0 -649.0 146.0 -698.0L248.0 -638.0C228.0 -590.0 184.0 -512.0 150.0 -455.0ZM-133.0 158.0V-439.0H-33.0V29.0H131.0V-433.0H236.0V158.0Z"/></g>
<g fill="black" opacity=".8" transform="translate(400 600) scale(0.1 -0.1)"><path d="M0.0 0.0V-268.0C0.0 -387.0 -16.0 -549.0 -161.0 -635.0C-136.0 -658.0 -97.0 -699.0 -81.0 -725.0C81.0 -611.0 114.0 -424.0 114.0 -269.0V0.0ZM53.0 -517.0C88.0 -575.0 133.0 -652.0 150.0 -698.0L242.0 -630.0C222.0 -584.0 175.0 -510.0 138.0 -457.0ZM-128.0 165.0V-446.0H-18.0V35.0H120.0V-439.0H236.0V165.0Z"/></g>
<g fill="red" transform="translate(500 600) scale(0.1 -0.1)"><path d="M0.0 0.0V-273.0C0.0 -408.0 -8.0 -595.0 -85.0 -732.0C-78.0 -735.0 -66.0 -745.0 -61.0 -750.0C18.0 -609.0 29.0 -412.0 29.0 -273.0V0.0ZM-201.0 -555.0C-167.0 -597.0 -124.0 -652.0 -101.0 -687.0L-77.0 -667.0C-98.0 -635.0 -143.0 -581.0 -177.0 -541.0ZM-376.0 86.0V-512.0H-347.0V56.0H-110.0V-512.0H-81.0V86.0Z"/></g>
<g fill="black" opacity=".8" transform="translate(500 600) scale(0.1 -0.1)"><path d="M0.0 0.0V-269.0C0.0 -404.0 -3.0 -595.0 -80.0 -731.0C-74.0 -734.0 -62.0 -744.0 -58.0 -749.0C24.0 -605.0 28.0 -411.0 28.0 -269.0V0.0ZM-197.0 -549.0C-163.0 -594.0 -122.0 -652.0 -100.0 -689.0L-77.0 -671.0C-97.0 -636.0 -140.0 -579.0 -174.0 -537.0ZM-375.0 74.0V-504.0H-346.0V45.0H-118.0V-504.0H-90.0V74.0Z"/></g>
<g fill="red" transform="translate(600 600) scale(0.1 -0.1)"><path d="M0.0 0.0V-253.0C0.0 -393.0 -6.0 -593.0 -79.0 -730.0C-51.0 -744.0 5.0 -790.0 27.0 -815.0C113.0 -661.0 129.0 -412.0 129.0 -254.0V0.0ZM-220.0 -640.0C-179.0 -690.0 -124.0 -758.0 -99.0 -800.0L-14.0 -717.0C-41.0 -678.0 -99.0 -613.0 -140.0 -567.0ZM-415.0 82.0V-545.0H-305.0V-47.0H-153.0V-539.0H-37.0V82.0Z"/></g>
<g fill="black" opacity=".8" transform="translate(600 600) scale(0.1 -0.1)"><path d="M0.0 0.0V-249.0C0.0 -386.0 -9.0 -606.0 -82.0 -743.0C-50.0 -761.0 4.0 -802.0 27.0 -827.0C114.0 -667.0 129.0 -417.0 129.0 -250.0V0.0ZM-211.0 -643.0C-172.0 -693.0 -120.0 -759.0 -97.0 -800.0L-14.0 -714.0C-37.0 -675.0 -92.0 -612.0 -132.0 -567.0ZM-414.0 68.0V-540.0H-308.0V-67.0H-145.0V-535.0H-33.0V68.0Z"/></g>
<g fill="red" transform="translate(700 600) scale(0.1 -0.1)"><path d="M0.0 0.0V-257.0C0.0 -387.0 -10.0 -572.0 -191.0 -685.0C-184.0 -691.0 -175.0 -701.0 -171.0 -708.0C16.0 -587.0 29.0 -395.0 29.0 -257.0V0.0ZM43.0 -522.0C84.0 -570.0 133.0 -634.0 158.0 -672.0L183.0 -653.0C158.0 -617.0 107.0 -554.0 67.0 -508.0ZM-132.0 114.0V-484.0H-102.0V84.0H124.0V-484.0H153.0V114.0Z"/></g>
<g fill="black" opacity=".8" transform="translate(700 600) scale(0.1 -0.1)"><path d="M0.0 0.0V-260.0C0.0 -390.0 -9.0 -578.0 -182.0 -691.0C-176.0 -696.0 -167.0 -707.0 -163.0 -713.0C16.0 -590.0 28.0 -398.0 28.0 -259.0V0.0ZM34.0 -516.0C78.0 -568.0 129.0 -638.0 154.0 -680.0L178.0 -661.0C153.0 -620.0 102.0 -553.0 58.0 -503.0ZM-130.0 115.0V-477.0H-101.0V86.0H130.0V-477.0H159.0V115.0Z"/></g>
<g fill="red" transform="translate(800 600) scale(0.1 -0.1)"><path d="M0.0 0.0V-273.0C0.0 -389.0 -15.0 -554.0 -155.0 -640.0C-128.0 -661.0 -92.0 -701.0 -76.0 -725.0C87.0 -613.0 114.0 -426.0 114.0 -273.0V0.0ZM69.0 -542.0C105.0 -589.0 153.0 -654.0 175.0 -694.0L260.0 -608.0C237.0 -571.0 186.0 -510.0 150.0 -467.0ZM-131.0 174.0V-449.0H-20.0V45.0H133.0V-443.0H249.0V174.0Z"/></g>
<g fill="black" opacity=".8" transform="translate(800 600) scale(0.1 -0.1)"><path d="M0.0 0.0V-272.0C0.0 -388.0 -16.0 -548.0 -163.0 -632.0C-139.0 -654.0 -102.0 -696.0 -88.0 -720.0C81.0 -610.0 109.0 -425.0 109.0 -273.0V0.0ZM63.0 -527.0C104.0 -582.0 158.0 -655.0 181.0 -700.0L268.0 -625.0C243.0 -581.0 186.0 -511.0 144.0 -461.0ZM-128.0 170.0V-450.0H-24.0V44.0H134.0V-442.0H244.0V170.0Z"/></g>
<g fill="red" transform="translate(900 600) scale(0.1 -0.1)"><path d="M0.0 0.0V-270.0C0.0 -399.0 -10.0 -581.0 -186.0 -685.0C-179.0 -691.0 -170.0 -701.0 -166.0 -707.0C15.0 -594.0 29.0 -407.0 29.0 -270.0V0.0ZM28.0 -509.0C76.0 -563.0 130.0 -639.0 156.0 -686.0L177.0 -668.0C153.0 -623.0 98.0 -549.0 50.0 -495.0ZM-119.0 132.0V-445.0H-89.0V103.0H119.0V-445.0H149.0V132.0Z"/></g>
<g fill="black" opacity=".8" transform="translate(900 600) scale(0.1 -0.1)"><path d="M0.0 0.0V-271.0C0.0 -402.0 -18.0 -579.0 -182.0 -687.0C-174.0 -693.0 -164.0 -705.0 -161.0 -712.0C12.0 -595.0 32.0 -410.0 32.0 -271.0V0.0ZM42.0 -509.0C86.0 -564.0 136.0 -638.0 159.0 -683.0L185.0 -662.0C163.0 -618.0 112.0 -547.0 68.0 -494.0ZM-132.0 127.0V-457.0H-100.0V94.0H134.0V-457.0H167.0V127.0Z"/></g>
<g fill="red" transform="translate(1000 600) scale(0.1 -0.1)"><path d="M0.0 0.0V-286.0C0.0 -397.0 -20.0 -566.0 -158.0 -644.0C-130.0 -666.0 -97.0 -704.0 -81.0 -728.0C90.0 -625.0 110.0 -439.0 110.0 -287.0V0.0ZM57.0 -505.0C111.0 -564.0 179.0 -647.0 209.0 -699.0L305.0 -624.0C272.0 -573.0 200.0 -495.0 147.0 -439.0ZM-129.0 174.0V-449.0H-17.0V45.0H128.0V-406.0H245.0V174.0Z"/></g>
<g fill="black" opacity=".8" transform="translate(1000 600) scale(0.1 -0.1)"><path d="M0.0 0.0V-280.0C0.0 -394.0 -17.0 -544.0 -155.0 -625.0C-130.0 -647.0 -90.0 -692.0 -76.0 -718.0C89.0 -613.0 118.0 -433.0 118.0 -281.0V0.0ZM65.0 -523.0C106.0 -579.0 159.0 -655.0 181.0 -701.0L278.0 -621.0C253.0 -575.0 199.0 -503.0 157.0 -452.0ZM-130.0 175.0V-437.0H-13.0V45.0H128.0V-427.0H250.0V175.0Z"/></g>
<g fill="red" transform="translate(1100 600) scale(0.1 -0.1)"><path d="M0.0 0.0V-257.0C0.0 -386.0 -9.0 -572.0 -174.0 -685.0C-167.0 -691.0 -158.0 -701.0 -154.0 -708.0C16.0 -586.0 29.0 -394.0 29.0 -257.0V0.0ZM34.0 -527.0C81.0 -575.0 133.0 -643.0 157.0 -687.0L182.0 -668.0C158.0 -624.0 106.0 -559.0 59.0 -512.0ZM-129.0 114.0V-484.0H-99.0V84.0H127.0V-484.0H157.0V114.0Z"/></g>
<g fill="black" opacity=".8" transform="translate(1100 600) scale(0.1 -0.1)"><path d="M0.0 0.0V-256.0C0.0 -388.0 -10.0 -576.0 -169.0 -692.0C-162.0 -697.0 -153.0 -708.0 -149.0 -715.0C15.0 -589.0 28.0 -395.0 28.0 -256.0V0.0ZM36.0 -520.0C82.0 -574.0 134.0 -646.0 158.0 -690.0L182.0 -671.0C157.0 -628.0 105.0 -559.0 60.0 -508.0ZM-127.0 116.0V-480.0H-99.0V87.0H126.0V-480.0H155.0V116.0Z"/></g>
<g fill="red" transform="translate(1200 600) scale(0.1 -0.1)"><path d="M0.0 0.0V-270.0C0.0 -384.0 -17.0 -548.0 -148.0 -632.0C-121.0 -655.0 -86.0 -698.0 -71.0 -724.0C86.0 -613.0 111.0 -427.0 111.0 -271.0V0.0ZM77.0 -549.0C113.0 -598.0 164.0 -666.0 186.0 -707.0L265.0 -608.0C241.0 -570.0 188.0 -506.0 152.0 -462.0ZM-130.0 176.0V-441.0H-25.0V48.0H136.0V-435.0H247.0V176.0Z"/></g>
<g fill="black" opacity=".8" transform="translate(1200 600) scale(0.1 -0.1)"><path d="M0.0 0.0V-270.0C0.0 -386.0 -16.0 -545.0 -156.0 -630.0C-132.0 -651.0 -94.0 -693.0 -81.0 -718.0C83.0 -609.0 109.0 -423.0 109.0 -272.0V0.0ZM65.0 -532.0C107.0 -586.0 163.0 -658.0 187.0 -703.0L276.0 -622.0C249.0 -579.0 190.0 -509.0 147.0 -461.0ZM-130.0 175.0V-446.0H-25.0V49.0H132.0V-437.0H242.0V175.0Z"/></g>
<g fill="red" transform="translate(1300 600) scale(0.1 -0.1)"><path d="M0.0 0.0V-262.0C0.0 -394.0 -9.0 -584.0 -188.0 -699.0C-182.0 -705.0 -173.0 -715.0 -168.0 -721.0C16.0 -598.0 29.0 -402.0 29.0 -262.0V0.0ZM42.0 -526.0C84.0 -576.0 137.0 -646.0 164.0 -686.0L189.0 -667.0C162.0 -628.0 108.0 -561.0 66.0 -512.0ZM-133.0 115.0V-483.0H-104.0V85.0H133.0V-483.0H162.0V115.0Z"/></g>
<g fill="black" opacity=".8" transform="translate(1300 600) scale(0.1 -0.1)"><path d="M0.0 0.0V-261.0C0.0 -393.0 -9.0 -583.0 -181.0 -698.0C-175.0 -703.0 -166.0 -715.0 -162.0 -721.0C16.0 -596.0 28.0 -401.0 28.0 -261.0V0.0ZM36.0 -522.0C82.0 -575.0 134.0 -647.0 158.0 -690.0L183.0 -671.0C158.0 -628.0 106.0 -560.0 61.0 -510.0ZM-131.0 119.0V-482.0H-102.0V89.0H132.0V-482.0H162.0V119.0Z"/></g>
<g fill="red" transform="translate(1400 600) scale(0.1 -0.1)"><path d="M0.0 0.0V-272.0C0.0 -386.0 -17.0 -555.0 -158.0 -640.0C-131.0 -661.0 -97.0 -698.0 -81.0 -722.0C85.0 -611.0 109.0 -423.0 109.0 -273.0V0.0ZM67.0 -548.0C108.0 -598.0 163.0 -666.0 188.0 -708.0L273.0 -625.0C246.0 -586.0 188.0 -521.0 147.0 -475.0ZM-128.0 174.0V-453.0H-18.0V45.0H127.0V-447.0H242.0V174.0Z"/></g>
<g fill="black" opacity=".8" transform="translate(1400 600) scale(0.1 -0.1)"><path d="M0.0 0.0V-274.0C0.0 -392.0 -16.0 -553.0 -164.0 -639.0C-140.0 -661.0 -102.0 -703.0 -88.0 -728.0C82.0 -617.0 111.0 -429.0 111.0 -275.0V0.0ZM65.0 -536.0C107.0 -591.0 163.0 -665.0 186.0 -710.0L275.0 -632.0C249.0 -587.0 190.0 -516.0 147.0 -467.0ZM-131.0 174.0V-454.0H-24.0V47.0H136.0V-446.0H247.0V174.0Z"/></g>
<g fill="red" transform="translate(1500 600) scale(0.1 -0.1)"><path d="M0.0 0.0V-271.0C0.0 -399.0 -10.0 -580.0 -178.0 -685.0C-171.0 -691.0 -163.0 -701.0 -159.0 -708.0C14.0 -594.0 28.0 -407.0 28.0 -271.0V0.0ZM35.0 -502.0C64.0 -546.0 99.0 -606.0 116.0 -641.0L141.0 -623.0C124.0 -590.0 89.0 -532.0 60.0 -488.0ZM-120.0 114.0V-464.0H-91.0V84.0H122.0V-464.0H151.0V114.0Z"/></g>
<g fill="black" opacity=".8" transform="translate(1500 600) scale(0.1 -0.1)"><path d="M0.0 0.0V-268.0C0.0 -394.0 -5.0 -578.0 -188.0 -683.0C-182.0 -689.0 -173.0 -700.0 -170.0 -706.0C20.0 -589.0 27.0 -402.0 27.0 -267.0V0.0ZM29.0 -502.0C61.0 -550.0 98.0 -612.0 115.0 -648.0L140.0 -630.0C122.0 -595.0 85.0 -535.0 53.0 -489.0ZM-120.0 115.0V-462.0H-93.0V87.0H122.0V-462.0H151.0V115.0Z"/></g>
<g fill="red" transform="translate(1600 600) scale(0.1 -0.1)"><path d="M0.0 0.0V-273.0C0.0 -398.0 -10.0 -551.0 -166.0 -640.0C-144.0 -660.0 -110.0 -701.0 -96.0 -725.0C64.0 -611.0 104.0 -428.0 104.0 -274.0V0.0ZM53.0 -500.0C83.0 -561.0 120.0 -641.0 135.0 -689.0L217.0 -636.0C199.0 -589.0 160.0 -512.0 130.0 -455.0ZM-116.0 168.0V-449.0H-17.0V40.0H120.0V-443.0H223.0V168.0Z"/></g>
<g fill="black" opacity=".8" transform="translate(1600 600) scale(0.1 -0.1)"><path d="M0.0 0.0V-271.0C0.0 -389.0 -14.0 -553.0 -155.0 -638.0C-132.0 -660.0 -96.0 -697.0 -82.0 -721.0C73.0 -607.0 104.0 -423.0 104.0 -271.0V0.0ZM52.0 -511.0C83.0 -569.0 122.0 -643.0 136.0 -688.0L221.0 -630.0C204.0 -585.0 163.0 -513.0 131.0 -460.0ZM-110.0 157.0V-454.0H-12.0V33.0H122.0V-447.0H225.0V157.0Z"/></g>
<g fill="red" transform="translate(100 700) scale(0.1 -0.1)"><path d="M0.0 0.0V-263.0C0.0 -395.0 -9.0 -586.0 -179.0 -701.0C-172.0 -707.0 -163.0 -717.0 -159.0 -723.0C17.0 -599.0 29.0 -403.0 29.0 -263.0V0.0ZM46.0 -523.0C88.0 -576.0 136.0 -648.0 158.0 -692.0L183.0 -675.0C160.0 -633.0 112.0 -563.0 69.0 -511.0ZM-128.0 114.0V-484.0H-98.0V84.0H125.0V-484.0H155.0V114.0Z"/></g>
<g fill="black" opacity=".8" transform="translate(100 700) scale(0.1 -0.1)"><path d="M0.0 0.0V-265.0C0.0 -397.0 -9.0 -586.0 -176.0 -700.0C-169.0 -705.0 -160.0 -716.0 -156.0 -722.0C17.0 -599.0 28.0 -404.0 28.0 -265.0V0.0ZM32.0 -522.0C73.0 -574.0 121.0 -644.0 143.0 -686.0L167.0 -667.0C145.0 -626.0 97.0 -560.0 56.0 -509.0ZM-127.0 115.0V-482.0H-99.0V86.0H124.0V-482.0H153.0V115.0Z"/></g>
<g fill="red" transform="translate(200 700) scale(0.1 -0.1)"><path d="M0.0 0.0V-274.0C0.0 -391.0 -18.0 -555.0 -154.0 -640.0C-129.0 -664.0 -96.0 -708.0 -81.0 -735.0C79.0 -623.0 105.0 -434.0 105.0 -275.0V0.0ZM43.0 -519.0C83.0 -578.0 139.0 -658.0 163.0 -707.0L250.0 -638.0C222.0 -590.0 164.0 -513.0 124.0 -459.0ZM-121.0 168.0V-449.0H-22.0V40.0H124.0V-443.0H228.0V168.0Z"/></g>
<g fill="black" opacity=".8" transform="translate(200 700) scale(0.1 -0.1)"><path d="M0.0 0.0V-276.0C0.0 -394.0 -15.0 -556.0 -155.0 -641.0C-131.0 -663.0 -94.0 -704.0 -80.0 -729.0C82.0 -617.0 109.0 -430.0 109.0 -277.0V0.0ZM60.0 -532.0C98.0 -587.0 149.0 -662.0 169.0 -707.0L258.0 -633.0C235.0 -589.0 182.0 -517.0 142.0 -467.0ZM-126.0 170.0V-455.0H-22.0V43.0H128.0V-446.0H237.0V170.0Z"/></g>
<g fill="red" transform="translate(300 700) scale(0.1 -0.1)"><path d="M0.0 0.0V-274.0C0.0 -406.0 -9.0 -597.0 -179.0 -709.0C-172.0 -715.0 -163.0 -725.0 -159.0 -731.0C17.0 -610.0 29.0 -414.0 29.0 -274.0V0.0ZM32.0 -520.0C80.0 -571.0 134.0 -642.0 160.0 -686.0L184.0 -665.0C158.0 -623.0 104.0 -554.0 55.0 -503.0ZM-124.0 113.0V-484.0H-94.0V84.0H129.0V-484.0H158.0V113.0Z"/></g>
<g fill="black" opacity=".8" transform="translate(300 700) scale(0.1 -0.1)"><path d="M0.0 0.0V-279.0C0.0 -409.0 -8.0 -591.0 -184.0 -702.0C-178.0 -707.0 -169.0 -718.0 -165.0 -724.0C16.0 -604.0 27.0 -416.0 27.0 -278.0V0.0ZM36.0 -532.0C78.0 -582.0 127.0 -650.0 150.0 -691.0L172.0 -673.0C149.0 -632.0 100.0 -567.0 59.0 -519.0ZM-125.0 119.0V-486.0H-98.0V91.0H128.0V-486.0H157.0V119.0Z"/></g>
<g fill="red" transform="translate(400 700) scale(0.1 -0.1)"><path d="M0.0 0.0V-303.0C0.0 -424.0 -14.0 -590.0 -155.0 -673.0C-131.0 -692.0 -99.0 -728.0 -84.0 -751.0C76.0 -644.0 103.0 -458.0 103.0 -304.0V0.0ZM58.0 -557.0C100.0 -612.0 151.0 -687.0 172.0 -734.0L258.0 -668.0C235.0 -622.0 181.0 -551.0 138.0 -499.0ZM-124.0 149.0V-495.0H-26.0V35.0H131.0V-489.0H233.0V149.0Z"/></g>
<g fill="black" opacity=".8" transform="translate(400 700) scale(0.1 -0.1)"><path d="M0.0 0.0V-309.0C0.0 -428.0 -16.0 -581.0 -164.0 -663.0C-142.0 -684.0 -107.0 -725.0 -94.0 -749.0C73.0 -642.0 103.0 -461.0 103.0 -310.0V0.0ZM58.0 -559.0C96.0 -614.0 147.0 -687.0 168.0 -731.0L253.0 -663.0C230.0 -619.0 176.0 -550.0 136.0 -500.0ZM-123.0 162.0V-489.0H-23.0V43.0H130.0V-482.0H234.0V162.0Z"/></g>
<g fill="red" transform="translate(500 700) scale(0.1 -0.1)"><path d="M0.0 0.0V-209.0C0.0 -305.0 -22.0 -423.0 -264.0 -485.0C-258.0 -493.0 -250.0 -504.0 -247.0 -512.0C4.0 -439.0 29.0 -315.0 29.0 -208.0V0.0ZM45.0 -387.0C115.0 -422.0 196.0 -476.0 237.0 -515.0L256.0 -488.0C216.0 -449.0 133.0 -397.0 64.0 -364.0ZM-174.0 128.0V-333.0H-145.0V99.0H174.0V-333.0H203.0V128.0Z"/></g>
<g fill="black" opacity=".8" transform="translate(500 700) scale(0.1 -0.1)"><path d="M0.0 0.0V-200.0C0.0 -298.0 -21.0 -419.0 -262.0 -497.0C-256.0 -503.0 -247.0 -515.0 -244.0 -520.0C4.0 -436.0 27.0 -307.0 27.0 -200.0V0.0ZM44.0 -370.0C114.0 -413.0 199.0 -472.0 242.0 -513.0L260.0 -491.0C217.0 -451.0 132.0 -393.0 62.0 -354.0ZM-175.0 114.0V-321.0H-148.0V85.0H181.0V-321.0H209.0V114.0Z"/></g>
<g fill="red" transform="translate(600 700) scale(0.1 -0.1)"><path d="M0.0 0.0V-228.0C0.0 -319.0 -22.0 -409.0 -249.0 -454.0C-225.0 -477.0 -190.0 -522.0 -175.0 -548.0C52.0 -479.0 121.0 -356.0 121.0 -230.0V0.0ZM59.0 -435.0C123.0 -472.0 216.0 -526.0 259.0 -560.0L329.0 -452.0C283.0 -420.0 187.0 -371.0 125.0 -339.0ZM-158.0 136.0V-350.0H-35.0V13.0H149.0V-345.0H278.0V136.0Z"/></g>
<g fill="black" opacity=".8" transform="translate(600 700) scale(0.1 -0.1)"><path d="M0.0 0.0V-232.0C0.0 -315.0 -23.0 -405.0 -233.0 -460.0C-210.0 -483.0 -174.0 -528.0 -162.0 -554.0C65.0 -479.0 114.0 -350.0 114.0 -234.0V0.0ZM65.0 -419.0C128.0 -459.0 214.0 -517.0 252.0 -554.0L326.0 -476.0C284.0 -438.0 196.0 -385.0 133.0 -349.0ZM-165.0 134.0V-355.0H-51.0V30.0H164.0V-350.0H284.0V134.0Z"/></g>
<g fill="red" transform="translate(700 700) scale(0.1 -0.1)"><path d="M0.0 0.0V-326.0C0.0 -454.0 -22.0 -597.0 -202.0 -695.0C-195.0 -700.0 -185.0 -710.0 -180.0 -716.0C2.0 -615.0 30.0 -460.0 30.0 -326.0V0.0ZM35.0 -548.0C84.0 -590.0 141.0 -650.0 169.0 -688.0L191.0 -667.0C164.0 -629.0 106.0 -571.0 58.0 -530.0ZM-127.0 114.0V-484.0H-98.0V84.0H128.0V-484.0H158.0V114.0Z"/></g>
<g fill="black" opacity=".8" transform="translate(700 700) scale(0.1 -0.1)"><path d="M0.0 0.0V-325.0C0.0 -453.0 -21.0 -598.0 -197.0 -694.0C-190.0 -699.0 -180.0 -710.0 -176.0 -715.0C5.0 -614.0 28.0 -460.0 28.0 -324.0V0.0ZM34.0 -539.0C84.0 -589.0 141.0 -657.0 168.0 -701.0L189.0 -680.0C162.0 -638.0 105.0 -572.0 56.0 -524.0ZM-129.0 113.0V-479.0H-101.0V83.0H132.0V-479.0H161.0V113.0Z"/></g>
<g fill="red" transform="translate(800 700) scale(0.1 -0.1)"><path d="M0.0 0.0V-405.0C0.0 -511.0 -14.0 -611.0 -157.0 -675.0C-139.0 -692.0 -107.0 -737.0 -97.0 -760.0C72.0 -682.0 100.0 -536.0 100.0 -406.0V0.0ZM45.0 -587.0C89.0 -638.0 142.0 -709.0 166.0 -753.0L255.0 -698.0C229.0 -654.0 173.0 -587.0 129.0 -539.0ZM-125.0 148.0V-526.0H-23.0V47.0H122.0V-519.0H229.0V148.0Z"/></g>
<g fill="black" opacity=".8" transform="translate(800 700) scale(0.1 -0.1)"><path d="M0.0 0.0V-399.0C0.0 -508.0 -16.0 -614.0 -162.0 -676.0C-144.0 -694.0 -110.0 -738.0 -100.0 -761.0C68.0 -683.0 101.0 -536.0 101.0 -400.0V0.0ZM51.0 -588.0C91.0 -639.0 143.0 -708.0 163.0 -750.0L252.0 -692.0C229.0 -649.0 175.0 -585.0 133.0 -537.0ZM-123.0 136.0V-531.0H-18.0V34.0H122.0V-524.0H230.0V136.0Z"/></g>
<g fill="red" transform="translate(900 700) scale(0.1 -0.1)"><path d="M0.0 0.0V-91.0C0.0 -158.0 -21.0 -250.0 -249.0 -306.0C-243.0 -312.0 -235.0 -324.0 -231.0 -330.0C6.0 -266.0 29.0 -167.0 29.0 -91.0V0.0ZM56.0 -210.0C134.0 -244.0 230.0 -296.0 280.0 -332.0L297.0 -305.0C247.0 -270.0 150.0 -220.0 73.0 -187.0ZM-185.0 77.0V-195.0H-156.0V48.0H200.0V-195.0H229.0V77.0Z"/></g>
<g fill="black" opacity=".8" transform="translate(900 700) scale(0.1 -0.1)"><path d="M0.0 0.0V-87.0C0.0 -157.0 -22.0 -252.0 -263.0 -312.0C-258.0 -318.0 -251.0 -328.0 -249.0 -334.0C0.0 -266.0 24.0 -165.0 24.0 -86.0V0.0ZM44.0 -214.0C124.0 -249.0 221.0 -301.0 271.0 -338.0L286.0 -317.0C236.0 -280.0 138.0 -231.0 61.0 -198.0ZM-181.0 92.0V-186.0H-157.0V67.0H193.0V-186.0H218.0V92.0Z"/></g>
<g fill="red" transform="translate(1000 700) scale(0.1 -0.1)"><path d="M0.0 0.0V-70.0C0.0 -121.0 -22.0 -199.0 -250.0 -247.0C-220.0 -270.0 -183.0 -311.0 -166.0 -337.0C86.0 -268.0 125.0 -160.0 125.0 -73.0V0.0ZM73.0 -229.0C141.0 -263.0 239.0 -313.0 287.0 -344.0L351.0 -255.0C300.0 -226.0 200.0 -180.0 135.0 -150.0ZM-181.0 124.0V-167.0H-55.0V22.0H176.0V-164.0H308.0V124.0Z"/></g>
<g fill="black" opacity=".8" transform="translate(1000 700) scale(0.1 -0.1)"><path d="M0.0 0.0V-76.0C0.0 -128.0 -25.0 -197.0 -243.0 -241.0C-218.0 -263.0 -183.0 -306.0 -170.0 -331.0C66.0 -269.0 114.0 -167.0 114.0 -80.0V0.0ZM77.0 -235.0C149.0 -263.0 251.0 -307.0 298.0 -337.0L359.0 -247.0C307.0 -217.0 204.0 -176.0 133.0 -153.0ZM-174.0 126.0V-164.0H-62.0V27.0H179.0V-159.0H297.0V126.0Z"/></g>
<g fill="red" transform="translate(1100 700) scale(0.1 -0.1)"><path d="M0.0 0.0V-271.0C0.0 -399.0 -10.0 -580.0 -185.0 -685.0C-179.0 -691.0 -170.0 -701.0 -166.0 -708.0C15.0 -594.0 29.0 -407.0 29.0 -271.0V0.0ZM37.0 -502.0C67.0 -546.0 104.0 -606.0 121.0 -641.0L148.0 -623.0C130.0 -590.0 93.0 -532.0 63.0 -488.0ZM-125.0 114.0V-464.0H-95.0V84.0H128.0V-464.0H158.0V114.0Z"/></g>
<g fill="black" opacity=".8" transform="translate(1100 700) scale(0.1 -0.1)"><path d="M0.0 0.0V-269.0C0.0 -395.0 -6.0 -579.0 -192.0 -682.0C-186.0 -689.0 -177.0 -700.0 -174.0 -706.0C19.0 -590.0 28.0 -403.0 28.0 -268.0V0.0ZM29.0 -501.0C61.0 -549.0 99.0 -611.0 117.0 -647.0L141.0 -629.0C123.0 -594.0 85.0 -534.0 53.0 -488.0ZM-123.0 116.0V-460.0H-95.0V87.0H124.0V-460.0H153.0V116.0Z"/></g>
<g fill="red" transform="translate(1200 700) scale(0.1 -0.1)"><path d="M0.0 0.0V-273.0C0.0 -398.0 -9.0 -551.0 -164.0 -640.0C-143.0 -660.0 -109.0 -701.0 -94.0 -725.0C64.0 -611.0 103.0 -428.0 103.0 -274.0V0.0ZM52.0 -500.0C81.0 -561.0 118.0 -641.0 133.0 -689.0L214.0 -636.0C196.0 -589.0 158.0 -512.0 128.0 -455.0ZM-115.0 168.0V-449.0H-18.0V40.0H118.0V-443.0H220.0V168.0Z"/></g>
<g fill="black" opacity=".8" transform="translate(1200 700) scale(0.1 -0.1)"><path d="M0.0 0.0V-272.0C0.0 -390.0 -14.0 -553.0 -158.0 -638.0C-134.0 -660.0 -99.0 -697.0 -84.0 -721.0C74.0 -608.0 105.0 -424.0 105.0 -272.0V0.0ZM52.0 -510.0C83.0 -569.0 122.0 -643.0 137.0 -688.0L222.0 -631.0C205.0 -586.0 163.0 -513.0 131.0 -460.0ZM-112.0 156.0V-455.0H-13.0V32.0H123.0V-448.0H227.0V156.0Z"/></g>
<g fill="red" transform="translate(1300 700) scale(0.1 -0.1)"><path d="M0.0 0.0V-110.0C0.0 -185.0 -26.0 -285.0 -316.0 -346.0C-310.0 -352.0 -302.0 -364.0 -299.0 -370.0C0.0 -303.0 29.0 -197.0 29.0 -110.0V0.0ZM36.0 -248.0C118.0 -281.0 220.0 -334.0 273.0 -370.0L291.0 -345.0C238.0 -309.0 135.0 -259.0 54.0 -226.0ZM-214.0 111.0V-204.0H-184.0V81.0H201.0V-204.0H230.0V111.0Z"/></g>
<g fill="black" opacity=".8" transform="translate(1300 700) scale(0.1 -0.1)"><path d="M0.0 0.0V-110.0C0.0 -189.0 -27.0 -290.0 -300.0 -353.0C-294.0 -359.0 -286.0 -371.0 -284.0 -378.0C-0.0 -306.0 29.0 -199.0 29.0 -109.0V0.0ZM41.0 -235.0C124.0 -273.0 227.0 -330.0 280.0 -369.0L299.0 -345.0C245.0 -306.0 142.0 -252.0 60.0 -217.0ZM-207.0 101.0V-202.0H-179.0V72.0H209.0V-202.0H238.0V101.0Z"/></g>
<g fill="red" transform="translate(1400 700) scale(0.1 -0.1)"><path d="M0.0 0.0V-91.0C0.0 -147.0 -28.0 -225.0 -250.0 -272.0C-219.0 -296.0 -181.0 -339.0 -164.0 -367.0C83.0 -299.0 131.0 -190.0 131.0 -94.0V0.0ZM80.0 -266.0C159.0 -293.0 267.0 -339.0 319.0 -371.0L384.0 -272.0C328.0 -241.0 218.0 -200.0 142.0 -177.0ZM-186.0 131.0V-190.0H-55.0V24.0H187.0V-190.0H324.0V131.0Z"/></g>
<g fill="black" opacity=".8" transform="translate(1400 700) scale(0.1 -0.1)"><path d="M0.0 0.0V-91.0C0.0 -150.0 -26.0 -227.0 -265.0 -275.0C-237.0 -301.0 -196.0 -348.0 -182.0 -376.0C76.0 -306.0 129.0 -193.0 129.0 -95.0V0.0ZM75.0 -255.0C151.0 -288.0 257.0 -339.0 306.0 -374.0L377.0 -281.0C323.0 -246.0 216.0 -198.0 141.0 -170.0ZM-194.0 132.0V-186.0H-67.0V20.0H188.0V-179.0H322.0V132.0Z"/></g>
</svg>
