<?xml version="1.0" encoding="UTF-8"?>
<svg width="1700" height="300" xmlns="http://www.w3.org/2000/svg">
<rect width="100%" height="100%" fill="white"/>
<g fill="green" transform="translate(100 100) scale(0.1 -0.1)"><path d="M0.0 0.0V-30.0H689.0V0.0ZM-93.0 -197.0V-226.0H776.0V-197.0ZM325.0 128.0V-216.0H355.0V128.0ZM59.0 -513.0 34.0 -526.0C114.0 -719.0 259.0 -761.0 512.0 -761.0H788.0C789.0 -753.0 796.0 -739.0 802.0 -731.0C768.0 -731.0 532.0 -731.0 511.0 -731.0C277.0 -731.0 130.0 -694.0 59.0 -513.0ZM582.0 -271.0C514.0 -406.0 382.0 -548.0 237.0 -640.0C246.0 -644.0 258.0 -652.0 264.0 -657.0C408.0 -563.0 537.0 -419.0 612.0 -281.0ZM68.0 -288.0C130.0 -351.0 197.0 -440.0 225.0 -498.0L252.0 -483.0C223.0 -424.0 156.0 -337.0 93.0 -275.0ZM-86.0 -766.0C-18.0 -675.0 48.0 -560.0 83.0 -484.0L57.0 -471.0C20.0 -557.0 -52.0 -676.0 -114.0 -752.0Z"/></g>
<g fill="green" transform="translate(200 100) scale(0.1 -0.1)"><path d="M0.0 0.0V-131.0H725.0V0.0ZM-95.0 -206.0V-340.0H806.0V-206.0ZM277.0 85.0V-275.0H427.0V85.0ZM139.0 -570.0 19.0 -613.0C118.0 -815.0 279.0 -854.0 517.0 -854.0H783.0C791.0 -813.0 812.0 -747.0 833.0 -714.0C755.0 -717.0 587.0 -718.0 526.0 -717.0C351.0 -717.0 203.0 -699.0 139.0 -570.0ZM532.0 -326.0C480.0 -425.0 371.0 -557.0 265.0 -637.0C301.0 -656.0 358.0 -695.0 390.0 -722.0C494.0 -634.0 604.0 -497.0 681.0 -376.0ZM97.0 -378.0C145.0 -435.0 197.0 -514.0 216.0 -566.0L341.0 -495.0C318.0 -442.0 262.0 -368.0 213.0 -314.0ZM2.0 -859.0C67.0 -758.0 129.0 -621.0 167.0 -539.0L31.0 -490.0C-3.0 -585.0 -71.0 -710.0 -135.0 -781.0Z"/></g>
<g fill="green" transform="translate(300 100) scale(0.1 -0.1)"><path d="M0.0 0.0V-30.0H689.0V0.0ZM-93.0 -197.0V-226.0H776.0V-197.0ZM325.0 128.0V-216.0H355.0V128.0ZM59.0 -513.0 34.0 -526.0C114.0 -719.0 259.0 -761.0 512.0 -761.0H788.0C789.0 -753.0 796.0 -739.0 802.0 -731.0C768.0 -731.0 532.0 -731.0 511.0 -731.0C277.0 -731.0 130.0 -694.0 59.0 -513.0ZM582.0 -271.0C514.0 -406.0 382.0 -548.0 237.0 -640.0C246.0 -644.0 258.0 -652.0 264.0 -657.0C408.0 -563.0 537.0 -419.0 612.0 -281.0ZM68.0 -288.0C130.0 -351.0 197.0 -440.0 225.0 -498.0L252.0 -483.0C223.0 -424.0 156.0 -337.0 93.0 -275.0ZM-86.0 -766.0C-18.0 -675.0 48.0 -560.0 83.0 -484.0L57.0 -471.0C20.0 -557.0 -52.0 -676.0 -114.0 -752.0Z"/></g>
<g fill="green" transform="translate(400 100) scale(0.1 -0.1)"><path d="M0.0 0.0V-131.0H725.0V0.0ZM-95.0 -206.0V-340.0H806.0V-206.0ZM277.0 85.0V-275.0H427.0V85.0ZM139.0 -570.0 19.0 -613.0C118.0 -815.0 279.0 -854.0 517.0 -854.0H783.0C791.0 -813.0 812.0 -747.0 833.0 -714.0C755.0 -717.0 587.0 -718.0 526.0 -717.0C351.0 -717.0 203.0 -699.0 139.0 -570.0ZM532.0 -326.0C480.0 -425.0 371.0 -557.0 265.0 -637.0C301.0 -656.0 358.0 -695.0 390.0 -722.0C494.0 -634.0 604.0 -497.0 681.0 -376.0ZM97.0 -378.0C145.0 -435.0 197.0 -514.0 216.0 -566.0L341.0 -495.0C318.0 -442.0 262.0 -368.0 213.0 -314.0ZM2.0 -859.0C67.0 -758.0 129.0 -621.0 167.0 -539.0L31.0 -490.0C-3.0 -585.0 -71.0 -710.0 -135.0 -781.0Z"/></g>
<g fill="red" transform="translate(100 200) scale(0.1 -0.1)"><path d="M0.0 0.0V-30.0H689.0V0.0ZM-93.0 -197.0V-226.0H776.0V-197.0ZM325.0 128.0V-216.0H355.0V128.0ZM59.0 -513.0 34.0 -526.0C114.0 -719.0 259.0 -761.0 512.0 -761.0H788.0C789.0 -753.0 796.0 -739.0 802.0 -731.0C768.0 -731.0 532.0 -731.0 511.0 -731.0C277.0 -731.0 130.0 -694.0 59.0 -513.0ZM582.0 -271.0C514.0 -406.0 382.0 -548.0 237.0 -640.0C246.0 -644.0 258.0 -652.0 264.0 -657.0C408.0 -563.0 537.0 -419.0 612.0 -281.0ZM68.0 -288.0C130.0 -351.0 197.0 -440.0 225.0 -498.0L252.0 -483.0C223.0 -424.0 156.0 -337.0 93.0 -275.0ZM-86.0 -766.0C-18.0 -675.0 48.0 -560.0 83.0 -484.0L57.0 -471.0C20.0 -557.0 -52.0 -676.0 -114.0 -752.0Z"/></g>
<g fill="black" opacity=".8" transform="translate(100 200) scale(0.1 -0.1)"><path d="M0.0 0.0V-30.0H689.0V0.0ZM-93.0 -197.0V-226.0H776.0V-197.0ZM325.0 128.0V-216.0H355.0V128.0ZM59.0 -513.0 34.0 -526.0C114.0 -719.0 259.0 -761.0 512.0 -761.0H788.0C789.0 -753.0 796.0 -739.0 802.0 -731.0C768.0 -731.0 532.0 -731.0 511.0 -731.0C277.0 -731.0 130.0 -694.0 59.0 -513.0ZM582.0 -271.0C514.0 -406.0 382.0 -548.0 237.0 -640.0C246.0 -644.0 258.0 -652.0 264.0 -657.0C408.0 -563.0 537.0 -419.0 612.0 -281.0ZM68.0 -288.0C130.0 -351.0 197.0 -440.0 225.0 -498.0L252.0 -483.0C223.0 -424.0 156.0 -337.0 93.0 -275.0ZM-86.0 -766.0C-18.0 -675.0 48.0 -560.0 83.0 -484.0L57.0 -471.0C20.0 -557.0 -52.0 -676.0 -114.0 -752.0Z"/></g>
<g fill="red" transform="translate(200 200) scale(0.1 -0.1)"><path d="M0.0 0.0V-131.0H725.0V0.0ZM-95.0 -206.0V-340.0H806.0V-206.0ZM277.0 85.0V-275.0H427.0V85.0ZM139.0 -570.0 19.0 -613.0C118.0 -815.0 279.0 -854.0 517.0 -854.0H783.0C791.0 -813.0 812.0 -747.0 833.0 -714.0C755.0 -717.0 587.0 -718.0 526.0 -717.0C351.0 -717.0 203.0 -699.0 139.0 -570.0ZM532.0 -326.0C480.0 -425.0 371.0 -557.0 265.0 -637.0C301.0 -656.0 358.0 -695.0 390.0 -722.0C494.0 -634.0 604.0 -497.0 681.0 -376.0ZM97.0 -378.0C145.0 -435.0 197.0 -514.0 216.0 -566.0L341.0 -495.0C318.0 -442.0 262.0 -368.0 213.0 -314.0ZM2.0 -859.0C67.0 -758.0 129.0 -621.0 167.0 -539.0L31.0 -490.0C-3.0 -585.0 -71.0 -710.0 -135.0 -781.0Z"/></g>
<g fill="black" opacity=".8" transform="translate(200 200) scale(0.1 -0.1)"><path d="M0.0 0.0V-131.0H725.0V0.0ZM-95.0 -206.0V-340.0H806.0V-206.0ZM277.0 85.0V-275.0H427.0V85.0ZM139.0 -570.0 19.0 -613.0C118.0 -815.0 279.0 -854.0 517.0 -854.0H783.0C791.0 -813.0 812.0 -747.0 833.0 -714.0C755.0 -717.0 587.0 -718.0 526.0 -717.0C351.0 -717.0 203.0 -699.0 139.0 -570.0ZM532.0 -326.0C480.0 -425.0 371.0 -557.0 265.0 -637.0C301.0 -656.0 358.0 -695.0 390.0 -722.0C494.0 -634.0 604.0 -497.0 681.0 -376.0ZM97.0 -378.0C145.0 -435.0 197.0 -514.0 216.0 -566.0L341.0 -495.0C318.0 -442.0 262.0 -368.0 213.0 -314.0ZM2.0 -859.0C67.0 -758.0 129.0 -621.0 167.0 -539.0L31.0 -490.0C-3.0 -585.0 -71.0 -710.0 -135.0 -781.0Z"/></g>
</svg>
