<?xml version="1.0" encoding="UTF-8"?>
<svg width="1700" height="400" xmlns="http://www.w3.org/2000/svg">
<rect width="100%" height="100%" fill="white"/>
<g fill="green" transform="translate(100 100) scale(0.1 -0.1)"><path d="M-0.0 0.0V-27.0H814.0V-0.0ZM48.0 -687.0V-715.0H760.0V-687.0ZM426.0 -384.0V-889.0H455.0V-384.0ZM148.0 -528.0C148.0 -520.0 173.0 -510.0 173.0 -510.0V-508.0C234.0 -413.0 293.0 -275.0 336.0 -146.0L310.0 -137.0C273.0 -262.0 207.0 -398.0 185.0 -433.0C168.0 -469.0 153.0 -497.0 139.0 -500.0C143.0 -508.0 147.0 -520.0 148.0 -528.0ZM148.0 -528.0C159.0 -521.0 179.0 -517.0 233.0 -517.0H708.0V-491.0H175.0L148.0 -502.0Z"/></g>
<g fill="green" transform="translate(200 100) scale(0.1 -0.1)"><path d="M0.0 0.0V-131.0H794.0V0.0ZM18.0 -779.0V-883.0H760.0V-779.0ZM371.0 -439.0V-1001.0H497.0V-439.0ZM121.0 -717.0C121.0 -695.0 203.0 -655.0 203.0 -655.0V-653.0C275.0 -547.0 360.0 -394.0 418.0 -240.0L283.0 -213.0C244.0 -349.0 171.0 -497.0 146.0 -535.0C122.0 -574.0 106.0 -595.0 80.0 -603.0C94.0 -635.0 115.0 -694.0 121.0 -717.0ZM121.0 -717.0C129.0 -708.0 177.0 -703.0 223.0 -703.0H714.0L715.0 -590.0H183.0L121.0 -627.0Z"/></g>
<g fill="green" transform="translate(300 100) scale(0.1 -0.1)"><path d="M0.0 0.0V-7.0H417.0V0.0ZM74.0 -368.0V-376.0H329.0V-368.0ZM218.0 -290.0V-425.0H226.0V-290.0ZM113.0 -308.0C113.0 -307.0 119.0 -305.0 119.0 -305.0V-303.0C139.0 -275.0 157.0 -231.0 169.0 -194.0L164.0 -192.0C152.0 -230.0 132.0 -270.0 124.0 -281.0C120.0 -292.0 115.0 -301.0 111.0 -302.0C112.0 -304.0 113.0 -305.0 113.0 -308.0ZM113.0 -308.0C117.0 -307.0 121.0 -306.0 139.0 -306.0H319.0V-300.0H120.0L113.0 -303.0Z"/></g>
<g fill="green" transform="translate(400 100) scale(0.1 -0.1)"><path d="M0.0 0.0V-47.0H383.0V0.0ZM45.0 -467.0V-482.0H317.0V-467.0ZM190.0 -312.0V-501.0H219.0V-312.0ZM91.0 -440.0C91.0 -436.0 111.0 -426.0 111.0 -426.0C139.0 -381.0 172.0 -319.0 196.0 -253.0L161.0 -250.0C146.0 -306.0 116.0 -370.0 105.0 -386.0C96.0 -403.0 92.0 -411.0 81.0 -414.0C85.0 -421.0 90.0 -436.0 91.0 -440.0ZM91.0 -440.0C93.0 -438.0 108.0 -437.0 124.0 -437.0H307.0L308.0 -410.0H109.0L91.0 -422.0Z"/></g>
<g fill="green" transform="translate(500 100) scale(0.1 -0.1)"><path d="M0.0 0.0V-48.0H827.0V0.0ZM-72.0 -758.0V-805.0H894.0V-758.0ZM433.0 -167.0V-1124.0H479.0V-167.0ZM55.0 -479.0C55.0 -463.0 97.0 -444.0 97.0 -444.0V-443.0C189.0 -263.0 277.0 -6.0 339.0 238.0L290.0 249.0C242.0 19.0 142.0 -237.0 111.0 -304.0C83.0 -372.0 60.0 -425.0 38.0 -430.0C45.0 -442.0 52.0 -466.0 55.0 -479.0ZM55.0 -479.0C71.0 -467.0 107.0 -458.0 185.0 -458.0H832.0V-413.0H101.0L55.0 -431.0Z"/></g>
<g fill="green" transform="translate(600 100) scale(0.1 -0.1)"><path d="M0.0 0.0V-202.0H831.0V0.0ZM-83.0 -754.0V-963.0H898.0V-754.0ZM361.0 -205.0V-1235.0H579.0V-205.0ZM41.0 -630.0C41.0 -591.0 194.0 -517.0 194.0 -517.0V-514.0C288.0 -336.0 397.0 -81.0 461.0 166.0L237.0 215.0C191.0 -11.0 98.0 -255.0 65.0 -319.0C33.0 -384.0 8.0 -420.0 -31.0 -433.0C-6.0 -488.0 30.0 -589.0 41.0 -630.0ZM41.0 -630.0C55.0 -615.0 130.0 -606.0 195.0 -606.0H852.0L853.0 -403.0H143.0L41.0 -462.0Z"/></g>
<g fill="green" transform="translate(700 100) scale(0.1 -0.1)"><path d="M-0.0 0.0V-23.0H959.0V-0.0ZM33.0 -577.0V-602.0H940.0V-577.0ZM521.0 -366.0V-749.0H546.0V-366.0ZM175.0 -466.0C175.0 -460.0 197.0 -452.0 197.0 -452.0V-450.0C262.0 -386.0 326.0 -291.0 381.0 -199.0L361.0 -187.0C313.0 -278.0 240.0 -373.0 216.0 -397.0C198.0 -422.0 181.0 -440.0 168.0 -442.0C171.0 -449.0 175.0 -460.0 175.0 -466.0ZM175.0 -466.0C186.0 -460.0 203.0 -457.0 266.0 -457.0H850.0V-434.0H198.0L175.0 -445.0Z"/></g>
<g fill="green" transform="translate(800 100) scale(0.1 -0.1)"><path d="M0.0 0.0V-123.0H937.0V0.0ZM16.0 -717.0V-805.0H911.0V-717.0ZM443.0 -461.0V-843.0H563.0V-461.0ZM154.0 -678.0C154.0 -659.0 213.0 -621.0 213.0 -621.0V-618.0C291.0 -535.0 379.0 -412.0 439.0 -291.0L306.0 -248.0C270.0 -358.0 199.0 -478.0 175.0 -507.0C153.0 -538.0 137.0 -555.0 113.0 -562.0C127.0 -595.0 148.0 -655.0 154.0 -678.0ZM154.0 -678.0C161.0 -670.0 209.0 -665.0 260.0 -665.0H817.0L818.0 -566.0H215.0L154.0 -603.0Z"/></g>
<g fill="green" transform="translate(900 100) scale(0.1 -0.1)"><path d="M0.0 0.0V-29.0H793.0V-0.0ZM-2.0 -695.0V-724.0H789.0V-695.0ZM399.0 -398.0V-884.0H430.0V-398.0ZM114.0 -557.0C114.0 -548.0 141.0 -537.0 141.0 -537.0V-536.0C204.0 -444.0 265.0 -312.0 313.0 -186.0L283.0 -176.0C244.0 -297.0 175.0 -429.0 153.0 -463.0C136.0 -497.0 120.0 -523.0 105.0 -526.0C109.0 -535.0 113.0 -548.0 114.0 -557.0ZM114.0 -557.0C126.0 -549.0 147.0 -545.0 205.0 -545.0H711.0V-516.0H143.0L114.0 -528.0Z"/></g>
<g fill="green" transform="translate(1000 100) scale(0.1 -0.1)"><path d="M0.0 0.0V-124.0H786.0V0.0ZM-32.0 -746.0V-855.0H818.0V-746.0ZM374.0 -466.0V-980.0H509.0V-466.0ZM113.0 -698.0C113.0 -674.0 197.0 -635.0 197.0 -635.0V-633.0C270.0 -547.0 358.0 -416.0 423.0 -282.0L284.0 -256.0C239.0 -371.0 164.0 -491.0 139.0 -523.0C114.0 -555.0 97.0 -574.0 72.0 -581.0C86.0 -613.0 107.0 -673.0 113.0 -698.0ZM113.0 -698.0C121.0 -688.0 172.0 -683.0 221.0 -683.0H753.0L754.0 -566.0H178.0L113.0 -604.0Z"/></g>
<g fill="green" transform="translate(1100 100) scale(0.1 -0.1)"><path d="M0.0 0.0V-27.0H800.0V-0.0ZM82.0 -702.0V-730.0H724.0V-702.0ZM405.0 -386.0V-899.0H434.0V-386.0ZM160.0 -538.0C160.0 -530.0 185.0 -520.0 185.0 -520.0V-518.0C245.0 -422.0 304.0 -283.0 346.0 -155.0L320.0 -145.0C284.0 -270.0 218.0 -408.0 196.0 -442.0C179.0 -479.0 164.0 -507.0 151.0 -510.0C154.0 -518.0 158.0 -531.0 160.0 -538.0ZM160.0 -538.0C169.0 -531.0 190.0 -527.0 242.0 -527.0H680.0V-500.0H188.0L160.0 -512.0Z"/></g>
<g fill="green" transform="translate(1200 100) scale(0.1 -0.1)"><path d="M0.0 0.0V-132.0H834.0V0.0ZM68.0 -760.0V-869.0H771.0V-760.0ZM383.0 -439.0V-996.0H519.0V-439.0ZM128.0 -703.0C128.0 -680.0 220.0 -638.0 220.0 -638.0V-636.0C296.0 -532.0 388.0 -381.0 453.0 -225.0L309.0 -200.0C262.0 -336.0 183.0 -479.0 155.0 -517.0C130.0 -556.0 112.0 -576.0 86.0 -584.0C99.0 -618.0 121.0 -678.0 128.0 -703.0ZM128.0 -703.0C136.0 -694.0 186.0 -689.0 232.0 -689.0H731.0L732.0 -572.0H192.0L128.0 -610.0Z"/></g>
<g fill="green" transform="translate(1300 100) scale(0.1 -0.1)"><path d="M-0.0 0.0V-32.0H819.0V0.0ZM56.0 -683.0V-715.0H766.0V-683.0ZM446.0 -375.0V-910.0H481.0V-375.0ZM153.0 -535.0C153.0 -525.0 182.0 -514.0 182.0 -514.0V-512.0C250.0 -417.0 315.0 -280.0 367.0 -149.0L335.0 -137.0C292.0 -263.0 218.0 -401.0 195.0 -435.0C174.0 -471.0 158.0 -497.0 142.0 -501.0C147.0 -510.0 152.0 -526.0 153.0 -535.0ZM153.0 -535.0C164.0 -527.0 189.0 -522.0 244.0 -522.0H705.0V-490.0H185.0L153.0 -503.0Z"/></g>
<g fill="green" transform="translate(1400 100) scale(0.1 -0.1)"><path d="M0.0 0.0V-139.0H782.0V0.0ZM18.0 -757.0V-877.0H752.0V-757.0ZM358.0 -446.0V-1012.0H498.0V-446.0ZM106.0 -716.0C106.0 -690.0 196.0 -648.0 196.0 -648.0V-646.0C270.0 -553.0 360.0 -412.0 423.0 -272.0L274.0 -242.0C231.0 -363.0 156.0 -493.0 131.0 -526.0C105.0 -561.0 87.0 -581.0 62.0 -589.0C77.0 -624.0 99.0 -690.0 106.0 -716.0ZM106.0 -716.0C116.0 -706.0 166.0 -699.0 214.0 -699.0H699.0L700.0 -571.0H173.0L106.0 -610.0Z"/></g>
<g fill="red" transform="translate(100 200) scale(0.1 -0.1)"><path d="M0.0 0.0V-30.0H605.0V0.0ZM-16.0 -539.0V-569.0H620.0V-539.0ZM303.0 -149.0V-771.0H333.0V-149.0ZM61.0 -349.0C61.0 -339.0 88.0 -327.0 88.0 -327.0V-326.0C147.0 -208.0 204.0 -39.0 242.0 119.0L212.0 127.0C182.0 -24.0 117.0 -191.0 97.0 -235.0C79.0 -280.0 64.0 -315.0 50.0 -318.0C54.0 -326.0 59.0 -341.0 61.0 -349.0ZM61.0 -349.0C71.0 -341.0 94.0 -336.0 146.0 -336.0H583.0V-307.0H91.0L61.0 -319.0Z"/></g>
<g fill="black" opacity=".8" transform="translate(100 200) scale(0.1 -0.1)"><path d="M0.0 0.0V-31.0H597.0V0.0ZM-21.0 -535.0V-566.0H619.0V-535.0ZM306.0 -147.0V-771.0H336.0V-147.0ZM60.0 -348.0C60.0 -338.0 87.0 -326.0 87.0 -326.0V-325.0C148.0 -208.0 207.0 -40.0 248.0 118.0L217.0 126.0C185.0 -24.0 118.0 -191.0 97.0 -235.0C79.0 -280.0 63.0 -314.0 49.0 -317.0C53.0 -325.0 58.0 -340.0 60.0 -348.0ZM60.0 -348.0C70.0 -341.0 93.0 -335.0 145.0 -335.0H580.0V-306.0H90.0L60.0 -318.0Z"/></g>
<g fill="red" transform="translate(200 200) scale(0.1 -0.1)"><path d="M0.0 0.0V-137.0H629.0V0.0ZM-19.0 -536.0V-673.0H646.0V-536.0ZM269.0 -171.0V-846.0H413.0V-171.0ZM46.0 -454.0C46.0 -429.0 148.0 -380.0 148.0 -380.0V-378.0C212.0 -259.0 288.0 -90.0 336.0 77.0L188.0 107.0C154.0 -45.0 89.0 -207.0 65.0 -250.0C43.0 -294.0 26.0 -317.0 0.0 -326.0C16.0 -362.0 39.0 -427.0 46.0 -454.0ZM46.0 -454.0C55.0 -443.0 106.0 -438.0 150.0 -438.0H608.0L609.0 -308.0H113.0L46.0 -347.0Z"/></g>
<g fill="black" opacity=".8" transform="translate(200 200) scale(0.1 -0.1)"><path d="M0.0 0.0V-135.0H623.0V0.0ZM-22.0 -538.0V-673.0H641.0V-538.0ZM273.0 -176.0V-846.0H420.0V-176.0ZM47.0 -456.0C47.0 -431.0 151.0 -381.0 151.0 -381.0V-379.0C217.0 -260.0 295.0 -89.0 342.0 79.0L191.0 111.0C156.0 -42.0 90.0 -205.0 65.0 -248.0C44.0 -292.0 26.0 -316.0 -0.0 -325.0C16.0 -362.0 40.0 -429.0 47.0 -456.0ZM47.0 -456.0C56.0 -446.0 107.0 -441.0 152.0 -441.0H610.0L611.0 -307.0H116.0L47.0 -348.0Z"/></g>
<g fill="red" transform="translate(300 200) scale(0.1 -0.1)"><path d="M0.0 0.0V-30.0H636.0V0.0ZM-103.0 -420.0V-449.0H753.0V-420.0ZM336.0 -90.0V-636.0H365.0V-90.0ZM22.0 -278.0C22.0 -268.0 49.0 -257.0 49.0 -257.0V-256.0C118.0 -158.0 186.0 -18.0 242.0 121.0L211.0 130.0C167.0 0.0 89.0 -141.0 66.0 -179.0C45.0 -216.0 27.0 -244.0 12.0 -246.0C16.0 -254.0 21.0 -270.0 22.0 -278.0ZM22.0 -278.0C33.0 -270.0 56.0 -265.0 119.0 -265.0H665.0V-236.0H51.0L22.0 -248.0Z"/></g>
<g fill="black" opacity=".8" transform="translate(300 200) scale(0.1 -0.1)"><path d="M0.0 0.0V-31.0H638.0V0.0ZM-107.0 -420.0V-450.0H753.0V-420.0ZM339.0 -90.0V-638.0H367.0V-90.0ZM24.0 -279.0C24.0 -269.0 51.0 -257.0 51.0 -257.0C117.0 -159.0 181.0 -18.0 235.0 119.0L203.0 128.0C163.0 -1.0 88.0 -143.0 66.0 -180.0C47.0 -217.0 29.0 -245.0 15.0 -248.0C18.0 -255.0 23.0 -271.0 24.0 -279.0ZM24.0 -279.0C36.0 -272.0 58.0 -266.0 120.0 -266.0H666.0V-236.0H53.0L24.0 -249.0Z"/></g>
<g fill="red" transform="translate(400 200) scale(0.1 -0.1)"><path d="M0.0 0.0V-123.0H640.0V0.0ZM-103.0 -431.0V-563.0H748.0V-431.0ZM287.0 -153.0V-693.0H433.0V-153.0ZM40.0 -366.0C40.0 -341.0 125.0 -294.0 125.0 -294.0V-291.0C193.0 -198.0 269.0 -61.0 316.0 69.0L167.0 114.0C136.0 -8.0 75.0 -137.0 54.0 -170.0C33.0 -204.0 16.0 -224.0 -8.0 -231.0C9.0 -269.0 33.0 -338.0 40.0 -366.0ZM40.0 -366.0C49.0 -356.0 101.0 -350.0 150.0 -350.0H670.0L671.0 -224.0H109.0L40.0 -264.0Z"/></g>
<g fill="black" opacity=".8" transform="translate(400 200) scale(0.1 -0.1)"><path d="M0.0 0.0V-125.0H639.0V0.0ZM-106.0 -429.0V-561.0H745.0V-429.0ZM290.0 -151.0V-691.0H436.0V-151.0ZM40.0 -366.0C40.0 -342.0 127.0 -293.0 127.0 -293.0V-291.0C194.0 -198.0 269.0 -60.0 315.0 72.0L165.0 117.0C135.0 -6.0 75.0 -135.0 53.0 -169.0C34.0 -203.0 17.0 -224.0 -8.0 -231.0C9.0 -268.0 33.0 -338.0 40.0 -366.0ZM40.0 -366.0C49.0 -357.0 101.0 -351.0 151.0 -351.0H666.0L667.0 -222.0H111.0L40.0 -263.0Z"/></g>
<g fill="red" transform="translate(500 200) scale(0.1 -0.1)"><path d="M0.0 0.0V-30.0H645.0V0.0ZM-31.0 -405.0V-434.0H697.0V-405.0ZM358.0 -91.0V-634.0H387.0V-91.0ZM72.0 -268.0C72.0 -258.0 98.0 -247.0 98.0 -247.0V-246.0C159.0 -154.0 219.0 -23.0 264.0 105.0L236.0 116.0C199.0 -5.0 131.0 -139.0 110.0 -173.0C91.0 -208.0 76.0 -235.0 62.0 -237.0C66.0 -244.0 71.0 -261.0 72.0 -268.0ZM72.0 -268.0C82.0 -260.0 105.0 -255.0 161.0 -255.0H632.0V-226.0H101.0L72.0 -238.0Z"/></g>
<g fill="black" opacity=".8" transform="translate(500 200) scale(0.1 -0.1)"><path d="M0.0 0.0V-30.0H644.0V0.0ZM-30.0 -407.0V-436.0H696.0V-407.0ZM354.0 -91.0V-627.0H382.0V-91.0ZM70.0 -265.0C70.0 -256.0 96.0 -245.0 96.0 -245.0V-244.0C160.0 -153.0 222.0 -20.0 275.0 107.0L246.0 118.0C205.0 -3.0 132.0 -137.0 111.0 -171.0C90.0 -207.0 73.0 -232.0 60.0 -235.0C63.0 -242.0 68.0 -259.0 70.0 -265.0ZM70.0 -265.0C79.0 -259.0 102.0 -253.0 158.0 -253.0H630.0V-223.0H99.0L70.0 -237.0Z"/></g>
<g fill="red" transform="translate(600 200) scale(0.1 -0.1)"><path d="M0.0 0.0V-129.0H662.0V0.0ZM-23.0 -419.0V-550.0H689.0V-419.0ZM291.0 -153.0V-671.0H437.0V-153.0ZM53.0 -372.0C53.0 -347.0 140.0 -299.0 140.0 -299.0V-296.0C207.0 -202.0 284.0 -63.0 331.0 68.0L179.0 114.0C148.0 -9.0 87.0 -140.0 66.0 -173.0C45.0 -208.0 28.0 -228.0 5.0 -235.0C21.0 -274.0 45.0 -344.0 53.0 -372.0ZM53.0 -372.0C62.0 -362.0 112.0 -356.0 157.0 -356.0H622.0V-228.0H120.0L53.0 -267.0Z"/></g>
<g fill="black" opacity=".8" transform="translate(600 200) scale(0.1 -0.1)"><path d="M0.0 0.0V-128.0H664.0V0.0ZM-22.0 -424.0V-552.0H691.0V-424.0ZM290.0 -152.0V-675.0H435.0V-152.0ZM51.0 -371.0C51.0 -347.0 140.0 -299.0 140.0 -299.0V-296.0C208.0 -204.0 285.0 -68.0 333.0 63.0L181.0 107.0C149.0 -14.0 87.0 -141.0 64.0 -174.0C45.0 -209.0 27.0 -229.0 4.0 -236.0C20.0 -274.0 43.0 -343.0 51.0 -371.0ZM51.0 -371.0C60.0 -362.0 110.0 -355.0 156.0 -355.0H626.0L627.0 -228.0H119.0L51.0 -268.0Z"/></g>
<g fill="red" transform="translate(700 200) scale(0.1 -0.1)"><path d="M0.0 0.0V-29.0H645.0V0.0ZM-31.0 -400.0V-429.0H697.0V-400.0ZM358.0 -94.0V-610.0H387.0V-94.0ZM72.0 -262.0C72.0 -253.0 99.0 -242.0 99.0 -242.0C163.0 -154.0 226.0 -29.0 278.0 93.0L250.0 106.0C208.0 -12.0 134.0 -139.0 113.0 -171.0C92.0 -205.0 76.0 -229.0 62.0 -231.0C66.0 -239.0 71.0 -256.0 72.0 -262.0ZM72.0 -262.0C81.0 -255.0 105.0 -250.0 161.0 -250.0H632.0V-220.0H101.0L72.0 -233.0Z"/></g>
<g fill="black" opacity=".8" transform="translate(700 200) scale(0.1 -0.1)"><path d="M0.0 0.0V-30.0H646.0V0.0ZM-29.0 -396.0V-425.0H699.0V-396.0ZM359.0 -93.0V-613.0H387.0V-93.0ZM73.0 -262.0C73.0 -253.0 98.0 -243.0 98.0 -243.0V-242.0C163.0 -154.0 225.0 -28.0 279.0 95.0L250.0 106.0C208.0 -10.0 135.0 -139.0 113.0 -171.0C93.0 -206.0 76.0 -229.0 62.0 -232.0C66.0 -239.0 71.0 -256.0 73.0 -262.0ZM73.0 -262.0C81.0 -256.0 104.0 -250.0 160.0 -250.0H630.0V-220.0H101.0L73.0 -234.0Z"/></g>
<g fill="red" transform="translate(800 200) scale(0.1 -0.1)"><path d="M0.0 0.0V-129.0H662.0V0.0ZM-23.0 -413.0V-545.0H689.0V-413.0ZM293.0 -152.0V-656.0H438.0V-152.0ZM53.0 -368.0C53.0 -343.0 139.0 -295.0 139.0 -295.0V-292.0C206.0 -207.0 283.0 -80.0 332.0 41.0L179.0 88.0C147.0 -25.0 86.0 -143.0 65.0 -173.0C45.0 -205.0 27.0 -223.0 4.0 -230.0C21.0 -269.0 45.0 -339.0 53.0 -368.0ZM53.0 -368.0C62.0 -358.0 112.0 -352.0 157.0 -352.0H621.0L622.0 -224.0H120.0L53.0 -263.0Z"/></g>
<g fill="black" opacity=".8" transform="translate(800 200) scale(0.1 -0.1)"><path d="M0.0 0.0V-126.0H663.0V0.0ZM-22.0 -413.0V-540.0H691.0V-413.0ZM290.0 -158.0V-658.0H433.0V-158.0ZM52.0 -367.0C52.0 -343.0 138.0 -295.0 138.0 -295.0V-293.0C206.0 -207.0 283.0 -77.0 331.0 46.0L180.0 91.0C147.0 -23.0 87.0 -143.0 64.0 -174.0C45.0 -207.0 27.0 -225.0 4.0 -233.0C20.0 -270.0 44.0 -339.0 52.0 -367.0ZM52.0 -367.0C61.0 -358.0 110.0 -351.0 156.0 -351.0H623.0L624.0 -225.0H119.0L52.0 -265.0Z"/></g>
<g fill="red" transform="translate(900 200) scale(0.1 -0.1)"><path d="M0.0 0.0V-30.0H477.0V0.0ZM-67.0 -425.0V-454.0H552.0V-425.0ZM248.0 -93.0V-631.0H277.0V-93.0ZM19.0 -287.0C19.0 -277.0 45.0 -265.0 45.0 -265.0C100.0 -167.0 154.0 -29.0 193.0 105.0L162.0 114.0C131.0 -12.0 71.0 -152.0 53.0 -188.0C35.0 -225.0 22.0 -252.0 8.0 -255.0C12.0 -263.0 17.0 -279.0 19.0 -287.0ZM19.0 -287.0C28.0 -279.0 51.0 -274.0 99.0 -274.0H483.0V-244.0H48.0L19.0 -256.0Z"/></g>
<g fill="black" opacity=".8" transform="translate(900 200) scale(0.1 -0.1)"><path d="M0.0 0.0V-31.0H476.0V0.0ZM-64.0 -425.0V-454.0H547.0V-425.0ZM242.0 -91.0V-632.0H271.0V-91.0ZM17.0 -285.0C17.0 -275.0 43.0 -263.0 43.0 -263.0C100.0 -165.0 155.0 -25.0 199.0 110.0L167.0 118.0C135.0 -8.0 71.0 -150.0 52.0 -186.0C35.0 -224.0 19.0 -251.0 6.0 -254.0C10.0 -261.0 14.0 -277.0 17.0 -285.0ZM17.0 -285.0C25.0 -278.0 48.0 -272.0 97.0 -272.0H489.0V-242.0H46.0L17.0 -254.0Z"/></g>
<g fill="red" transform="translate(1000 200) scale(0.1 -0.1)"><path d="M0.0 0.0V-114.0H496.0V0.0ZM-72.0 -375.0V-506.0H577.0V-375.0ZM221.0 -130.0V-666.0H364.0V-130.0ZM17.0 -332.0C17.0 -307.0 113.0 -262.0 113.0 -262.0V-260.0C174.0 -174.0 246.0 -46.0 295.0 80.0L150.0 112.0C114.0 -2.0 54.0 -118.0 33.0 -149.0C12.0 -181.0 -5.0 -200.0 -28.0 -206.0C-12.0 -241.0 10.0 -305.0 17.0 -332.0ZM17.0 -332.0C26.0 -322.0 73.0 -316.0 114.0 -316.0H528.0L529.0 -190.0H81.0L17.0 -226.0Z"/></g>
<g fill="black" opacity=".8" transform="translate(1000 200) scale(0.1 -0.1)"><path d="M0.0 0.0V-114.0H503.0V0.0ZM-64.0 -381.0V-510.0H579.0V-381.0ZM219.0 -132.0V-672.0H360.0V-132.0ZM18.0 -329.0C18.0 -305.0 113.0 -260.0 113.0 -260.0V-259.0C170.0 -177.0 240.0 -53.0 285.0 69.0L145.0 99.0C110.0 -9.0 53.0 -120.0 32.0 -150.0C13.0 -181.0 -3.0 -200.0 -25.0 -207.0C-10.0 -240.0 11.0 -302.0 18.0 -329.0ZM18.0 -329.0C27.0 -320.0 74.0 -314.0 115.0 -314.0H533.0L534.0 -188.0H82.0L18.0 -225.0Z"/></g>
<g fill="red" transform="translate(1100 200) scale(0.1 -0.1)"><path d="M0.0 0.0V-30.0H477.0V0.0ZM-67.0 -425.0V-454.0H552.0V-425.0ZM248.0 -93.0V-631.0H277.0V-93.0ZM19.0 -287.0C19.0 -277.0 45.0 -265.0 45.0 -265.0C100.0 -167.0 154.0 -29.0 193.0 105.0L162.0 114.0C131.0 -12.0 71.0 -152.0 53.0 -188.0C35.0 -225.0 22.0 -252.0 8.0 -255.0C12.0 -263.0 17.0 -279.0 19.0 -287.0ZM19.0 -287.0C28.0 -279.0 51.0 -274.0 99.0 -274.0H483.0V-244.0H48.0L19.0 -256.0Z"/></g>
<g fill="black" opacity=".8" transform="translate(1100 200) scale(0.1 -0.1)"><path d="M0.0 0.0V-31.0H475.0V0.0ZM-64.0 -424.0V-453.0H547.0V-424.0ZM242.0 -91.0V-632.0H271.0V-91.0ZM17.0 -285.0C17.0 -275.0 43.0 -263.0 43.0 -263.0C100.0 -165.0 155.0 -25.0 199.0 110.0L167.0 118.0C135.0 -8.0 71.0 -150.0 52.0 -186.0C35.0 -223.0 19.0 -251.0 6.0 -254.0C10.0 -261.0 15.0 -277.0 17.0 -285.0ZM17.0 -285.0C25.0 -278.0 48.0 -272.0 97.0 -272.0H489.0V-241.0H46.0L17.0 -254.0Z"/></g>
<g fill="red" transform="translate(1200 200) scale(0.1 -0.1)"><path d="M0.0 0.0V-114.0H494.0V0.0ZM-71.0 -375.0V-506.0H576.0V-375.0ZM221.0 -130.0V-666.0H364.0V-130.0ZM17.0 -332.0C17.0 -307.0 112.0 -262.0 112.0 -262.0V-260.0C173.0 -174.0 245.0 -46.0 294.0 80.0L149.0 112.0C113.0 -2.0 54.0 -118.0 33.0 -149.0C12.0 -181.0 -5.0 -200.0 -28.0 -206.0C-12.0 -241.0 10.0 -305.0 17.0 -332.0ZM17.0 -332.0C26.0 -322.0 73.0 -316.0 113.0 -316.0H526.0L527.0 -190.0H81.0L17.0 -226.0Z"/></g>
<g fill="black" opacity=".8" transform="translate(1200 200) scale(0.1 -0.1)"><path d="M0.0 0.0V-114.0H502.0V0.0ZM-64.0 -381.0V-510.0H578.0V-381.0ZM218.0 -132.0V-672.0H359.0V-132.0ZM18.0 -329.0C18.0 -305.0 112.0 -260.0 112.0 -260.0V-259.0C170.0 -178.0 239.0 -53.0 285.0 69.0L144.0 99.0C110.0 -10.0 53.0 -120.0 32.0 -150.0C13.0 -182.0 -4.0 -200.0 -25.0 -207.0C-11.0 -240.0 11.0 -303.0 18.0 -329.0ZM18.0 -329.0C26.0 -320.0 74.0 -314.0 115.0 -314.0H532.0L533.0 -188.0H82.0L18.0 -225.0Z"/></g>
<g fill="red" transform="translate(1300 200) scale(0.1 -0.1)"><path d="M0.0 0.0V-30.0H454.0V0.0ZM-69.0 -425.0V-454.0H523.0V-425.0ZM222.0 -93.0V-631.0H251.0V-93.0ZM6.0 -287.0C6.0 -277.0 33.0 -265.0 33.0 -265.0C89.0 -167.0 144.0 -29.0 184.0 105.0L152.0 114.0C122.0 -12.0 59.0 -152.0 41.0 -188.0C24.0 -225.0 9.0 -252.0 -4.0 -255.0C0.0 -263.0 4.0 -279.0 6.0 -287.0ZM6.0 -287.0C15.0 -279.0 39.0 -274.0 88.0 -274.0H480.0V-244.0H36.0L6.0 -256.0Z"/></g>
<g fill="black" opacity=".8" transform="translate(1300 200) scale(0.1 -0.1)"><path d="M0.0 0.0V-29.0H456.0V0.0ZM-65.0 -429.0V-456.0H527.0V-429.0ZM220.0 -95.0V-623.0H247.0V-95.0ZM12.0 -287.0C12.0 -277.0 36.0 -266.0 36.0 -266.0C91.0 -168.0 142.0 -27.0 183.0 106.0L152.0 113.0C123.0 -12.0 63.0 -153.0 45.0 -190.0C29.0 -227.0 15.0 -255.0 3.0 -257.0C5.0 -264.0 10.0 -279.0 12.0 -287.0ZM12.0 -287.0C20.0 -280.0 42.0 -274.0 89.0 -274.0H473.0V-246.0H40.0L12.0 -258.0Z"/></g>
<g fill="red" transform="translate(1400 200) scale(0.1 -0.1)"><path d="M0.0 0.0V-114.0H505.0V0.0ZM-47.0 -375.0V-506.0H566.0V-375.0ZM222.0 -130.0V-666.0H362.0V-130.0ZM28.0 -324.0C28.0 -299.0 121.0 -255.0 121.0 -255.0V-253.0C176.0 -171.0 242.0 -48.0 284.0 71.0L144.0 101.0C113.0 -7.0 59.0 -117.0 40.0 -147.0C22.0 -178.0 5.0 -196.0 -15.0 -202.0C-1.0 -236.0 21.0 -297.0 28.0 -324.0ZM28.0 -324.0C37.0 -314.0 84.0 -308.0 125.0 -308.0H535.0V-182.0H91.0L28.0 -218.0Z"/></g>
<g fill="black" opacity=".8" transform="translate(1400 200) scale(0.1 -0.1)"><path d="M0.0 0.0V-110.0H502.0V0.0ZM-59.0 -379.0V-503.0H576.0V-379.0ZM220.0 -129.0V-663.0H358.0V-129.0ZM22.0 -322.0C22.0 -298.0 116.0 -255.0 116.0 -255.0V-253.0C173.0 -170.0 241.0 -44.0 286.0 81.0L150.0 108.0C115.0 -3.0 58.0 -116.0 37.0 -147.0C18.0 -179.0 2.0 -197.0 -20.0 -204.0C-6.0 -236.0 15.0 -296.0 22.0 -322.0ZM22.0 -322.0C30.0 -313.0 77.0 -308.0 117.0 -308.0H535.0L536.0 -187.0H85.0L22.0 -223.0Z"/></g>
<g fill="red" transform="translate(1500 200) scale(0.1 -0.1)"><path d="M0.0 0.0V-30.0H495.0V0.0ZM-60.0 -425.0V-454.0H576.0V-425.0ZM260.0 -93.0V-631.0H290.0V-93.0ZM31.0 -287.0C31.0 -277.0 58.0 -266.0 58.0 -266.0V-265.0C112.0 -168.0 165.0 -29.0 205.0 105.0L174.0 113.0C145.0 -13.0 83.0 -152.0 65.0 -189.0C48.0 -225.0 34.0 -253.0 21.0 -255.0C25.0 -263.0 29.0 -280.0 31.0 -287.0ZM31.0 -287.0C40.0 -279.0 63.0 -274.0 113.0 -274.0H513.0V-244.0H61.0L31.0 -256.0Z"/></g>
<g fill="black" opacity=".8" transform="translate(1500 200) scale(0.1 -0.1)"><path d="M0.0 0.0V-31.0H507.0V0.0ZM-57.0 -426.0V-456.0H575.0V-426.0ZM262.0 -95.0V-636.0H291.0V-95.0ZM27.0 -287.0C27.0 -277.0 53.0 -265.0 53.0 -265.0C112.0 -168.0 168.0 -29.0 215.0 105.0L182.0 114.0C149.0 -12.0 82.0 -153.0 63.0 -189.0C45.0 -226.0 30.0 -252.0 16.0 -256.0C20.0 -263.0 25.0 -279.0 27.0 -287.0ZM27.0 -287.0C35.0 -280.0 59.0 -274.0 109.0 -274.0H515.0V-243.0H57.0L27.0 -256.0Z"/></g>
<g fill="red" transform="translate(1600 200) scale(0.1 -0.1)"><path d="M0.0 0.0V-120.0H545.0V0.0ZM-59.0 -391.0V-526.0H608.0V-391.0ZM230.0 -140.0V-680.0H377.0V-140.0ZM22.0 -340.0C22.0 -314.0 119.0 -269.0 119.0 -269.0V-267.0C178.0 -184.0 248.0 -60.0 294.0 61.0L147.0 93.0C113.0 -17.0 56.0 -127.0 35.0 -157.0C15.0 -188.0 -2.0 -206.0 -23.0 -212.0C-8.0 -248.0 14.0 -312.0 22.0 -340.0ZM22.0 -340.0C31.0 -330.0 79.0 -324.0 122.0 -324.0H560.0V-199.0H86.0L22.0 -236.0Z"/></g>
<g fill="black" opacity=".8" transform="translate(1600 200) scale(0.1 -0.1)"><path d="M0.0 0.0V-117.0H536.0V0.0ZM-55.0 -390.0V-520.0H603.0V-390.0ZM233.0 -140.0V-677.0H377.0V-140.0ZM24.0 -339.0C24.0 -315.0 119.0 -269.0 119.0 -269.0V-268.0C179.0 -186.0 251.0 -60.0 298.0 63.0L154.0 96.0C119.0 -14.0 60.0 -126.0 39.0 -157.0C19.0 -188.0 2.0 -207.0 -20.0 -214.0C-5.0 -248.0 17.0 -312.0 24.0 -339.0ZM24.0 -339.0C33.0 -330.0 81.0 -324.0 123.0 -324.0H554.0L555.0 -197.0H90.0L24.0 -234.0Z"/></g>
<g fill="red" transform="translate(100 300) scale(0.1 -0.1)"><path d="M0.0 0.0V-29.0H878.0V0.0ZM25.0 -634.0V-663.0H873.0V-634.0ZM460.0 -381.0V-818.0H491.0V-381.0ZM147.0 -524.0C147.0 -515.0 174.0 -505.0 174.0 -505.0V-504.0C242.0 -429.0 310.0 -323.0 367.0 -217.0L339.0 -203.0C291.0 -306.0 214.0 -415.0 190.0 -442.0C170.0 -470.0 152.0 -490.0 137.0 -492.0C141.0 -501.0 146.0 -516.0 147.0 -524.0ZM147.0 -524.0C157.0 -516.0 180.0 -512.0 242.0 -512.0H777.0V-482.0H176.0L147.0 -495.0Z"/></g>
<g fill="black" opacity=".8" transform="translate(100 300) scale(0.1 -0.1)"><path d="M0.0 0.0V-29.0H879.0V0.0ZM24.0 -634.0V-663.0H873.0V-634.0ZM459.0 -381.0V-818.0H491.0V-381.0ZM147.0 -524.0C147.0 -515.0 174.0 -505.0 174.0 -505.0V-504.0C242.0 -429.0 309.0 -322.0 367.0 -217.0L338.0 -203.0C291.0 -305.0 214.0 -415.0 190.0 -442.0C170.0 -470.0 153.0 -490.0 138.0 -492.0C142.0 -501.0 146.0 -516.0 147.0 -524.0ZM147.0 -524.0C158.0 -516.0 180.0 -512.0 242.0 -512.0H777.0V-482.0H176.0L147.0 -495.0Z"/></g>
<g fill="red" transform="translate(200 300) scale(0.1 -0.1)"><path d="M0.0 0.0V-125.0H892.0V0.0ZM8.0 -691.0V-802.0H900.0V-691.0ZM417.0 -478.0V-892.0H560.0V-478.0ZM131.0 -669.0C131.0 -645.0 211.0 -604.0 211.0 -604.0V-602.0C291.0 -533.0 387.0 -424.0 459.0 -313.0L309.0 -275.0C260.0 -372.0 182.0 -468.0 156.0 -493.0C130.0 -519.0 111.0 -535.0 87.0 -541.0C102.0 -577.0 124.0 -642.0 131.0 -669.0ZM131.0 -669.0C140.0 -659.0 192.0 -653.0 245.0 -653.0H810.0L811.0 -536.0H198.0L131.0 -575.0Z"/></g>
<g fill="black" opacity=".8" transform="translate(200 300) scale(0.1 -0.1)"><path d="M0.0 0.0V-125.0H892.0V0.0ZM7.0 -692.0V-802.0H900.0V-692.0ZM417.0 -478.0V-892.0H560.0V-478.0ZM131.0 -669.0C131.0 -645.0 211.0 -604.0 211.0 -604.0V-602.0C291.0 -534.0 387.0 -424.0 459.0 -312.0L309.0 -276.0C260.0 -372.0 182.0 -468.0 155.0 -493.0C130.0 -519.0 111.0 -535.0 88.0 -542.0C102.0 -577.0 124.0 -642.0 131.0 -669.0ZM131.0 -669.0C139.0 -659.0 192.0 -653.0 244.0 -653.0H810.0L811.0 -535.0H199.0L131.0 -575.0Z"/></g>
<g fill="red" transform="translate(300 300) scale(0.1 -0.1)"><path d="M0.0 0.0V-30.0H454.0V0.0ZM-60.0 -425.0V-454.0H518.0V-425.0ZM231.0 -93.0V-631.0H260.0V-93.0ZM15.0 -287.0C15.0 -277.0 42.0 -265.0 42.0 -265.0C97.0 -167.0 150.0 -29.0 190.0 105.0L158.0 114.0C128.0 -12.0 67.0 -152.0 50.0 -188.0C32.0 -225.0 18.0 -252.0 4.0 -255.0C8.0 -263.0 13.0 -279.0 15.0 -287.0ZM15.0 -287.0C24.0 -279.0 48.0 -274.0 95.0 -274.0H471.0V-244.0H45.0L15.0 -256.0Z"/></g>
<g fill="black" opacity=".8" transform="translate(300 300) scale(0.1 -0.1)"><path d="M0.0 0.0V-32.0H449.0V0.0ZM-66.0 -418.0V-448.0H521.0V-418.0ZM235.0 -91.0V-629.0H266.0V-91.0ZM12.0 -287.0C12.0 -276.0 39.0 -265.0 39.0 -265.0C97.0 -168.0 151.0 -31.0 197.0 102.0L162.0 111.0C130.0 -13.0 66.0 -153.0 48.0 -188.0C30.0 -225.0 15.0 -251.0 1.0 -254.0C5.0 -262.0 10.0 -279.0 12.0 -287.0ZM12.0 -287.0C21.0 -280.0 45.0 -274.0 92.0 -274.0H462.0V-242.0H43.0L12.0 -254.0Z"/></g>
<g fill="red" transform="translate(400 300) scale(0.1 -0.1)"><path d="M0.0 0.0V-114.0H456.0V0.0ZM-77.0 -375.0V-506.0H548.0V-375.0ZM200.0 -130.0V-666.0H333.0V-130.0ZM8.0 -324.0C8.0 -299.0 95.0 -257.0 95.0 -257.0V-255.0C148.0 -183.0 213.0 -71.0 257.0 37.0L124.0 68.0C92.0 -29.0 39.0 -127.0 21.0 -153.0C2.0 -180.0 -14.0 -197.0 -33.0 -203.0C-18.0 -236.0 1.0 -297.0 8.0 -324.0ZM8.0 -324.0C16.0 -314.0 61.0 -308.0 100.0 -308.0H491.0L492.0 -182.0H68.0L8.0 -218.0Z"/></g>
<g fill="black" opacity=".8" transform="translate(400 300) scale(0.1 -0.1)"><path d="M0.0 0.0V-113.0H456.0V0.0ZM-75.0 -370.0V-501.0H540.0V-370.0ZM197.0 -135.0V-669.0H336.0V-135.0ZM7.0 -327.0C7.0 -302.0 101.0 -259.0 101.0 -259.0V-258.0C156.0 -184.0 223.0 -68.0 268.0 45.0L129.0 73.0C95.0 -25.0 41.0 -126.0 21.0 -153.0C2.0 -182.0 -14.0 -199.0 -35.0 -206.0C-20.0 -238.0 0.0 -301.0 7.0 -327.0ZM7.0 -327.0C16.0 -318.0 62.0 -311.0 102.0 -311.0H495.0L496.0 -184.0H71.0L7.0 -220.0Z"/></g>
<g fill="red" transform="translate(500 300) scale(0.1 -0.1)"><path d="M0.0 0.0V-30.0H442.0V0.0ZM-24.0 -408.0V-437.0H466.0V-408.0ZM250.0 -99.0V-628.0H280.0V-99.0ZM36.0 -273.0C36.0 -263.0 62.0 -252.0 62.0 -252.0V-251.0C117.0 -157.0 170.0 -23.0 210.0 108.0L179.0 116.0C148.0 -6.0 88.0 -141.0 70.0 -177.0C52.0 -212.0 39.0 -238.0 25.0 -241.0C30.0 -249.0 34.0 -265.0 36.0 -273.0ZM36.0 -273.0C45.0 -266.0 68.0 -260.0 110.0 -260.0H431.0V-231.0H65.0L36.0 -242.0Z"/></g>
<g fill="black" opacity=".8" transform="translate(500 300) scale(0.1 -0.1)"><path d="M0.0 0.0V-29.0H445.0V0.0ZM-21.0 -413.0V-441.0H466.0V-413.0ZM248.0 -101.0V-625.0H276.0V-101.0ZM41.0 -273.0C41.0 -263.0 65.0 -253.0 65.0 -253.0V-252.0C119.0 -157.0 167.0 -21.0 206.0 108.0L176.0 116.0C148.0 -6.0 90.0 -142.0 74.0 -177.0C56.0 -213.0 43.0 -240.0 31.0 -243.0C35.0 -250.0 40.0 -265.0 41.0 -273.0ZM41.0 -273.0C49.0 -266.0 71.0 -260.0 112.0 -260.0H432.0V-232.0H69.0L41.0 -243.0Z"/></g>
<g fill="red" transform="translate(600 300) scale(0.1 -0.1)"><path d="M0.0 0.0V-114.0H428.0V0.0ZM-29.0 -405.0V-527.0H444.0V-405.0ZM176.0 -134.0V-688.0H300.0V-134.0ZM16.0 -361.0C16.0 -337.0 103.0 -297.0 103.0 -297.0V-295.0C153.0 -209.0 212.0 -81.0 248.0 40.0L120.0 66.0C95.0 -44.0 45.0 -161.0 28.0 -192.0C11.0 -224.0 -4.0 -243.0 -24.0 -249.0C-10.0 -280.0 9.0 -337.0 16.0 -361.0ZM16.0 -361.0C25.0 -351.0 66.0 -345.0 102.0 -345.0H430.0V-227.0H73.0L16.0 -259.0Z"/></g>
<g fill="black" opacity=".8" transform="translate(600 300) scale(0.1 -0.1)"><path d="M0.0 0.0V-112.0H423.0V0.0ZM-38.0 -410.0V-527.0H450.0V-410.0ZM179.0 -131.0V-684.0H301.0V-131.0ZM13.0 -358.0C13.0 -336.0 99.0 -295.0 99.0 -295.0V-294.0C149.0 -209.0 209.0 -81.0 245.0 42.0L121.0 68.0C94.0 -42.0 45.0 -160.0 27.0 -190.0C9.0 -223.0 -5.0 -242.0 -25.0 -249.0C-11.0 -278.0 7.0 -335.0 13.0 -358.0ZM13.0 -358.0C22.0 -350.0 62.0 -343.0 97.0 -343.0H426.0L427.0 -227.0H70.0L13.0 -260.0Z"/></g>
<g fill="red" transform="translate(700 300) scale(0.1 -0.1)"><path d="M0.0 0.0V-30.0H499.0V0.0ZM-26.0 -413.0V-442.0H552.0V-413.0ZM252.0 -83.0V-621.0H281.0V-83.0ZM28.0 -272.0C28.0 -262.0 54.0 -251.0 54.0 -251.0V-250.0C121.0 -153.0 187.0 -16.0 241.0 120.0L210.0 129.0C167.0 2.0 92.0 -137.0 70.0 -174.0C49.0 -210.0 31.0 -237.0 17.0 -240.0C21.0 -248.0 26.0 -264.0 28.0 -272.0ZM28.0 -272.0C36.0 -264.0 60.0 -259.0 109.0 -259.0H496.0V-230.0H57.0L28.0 -241.0Z"/></g>
<g fill="black" opacity=".8" transform="translate(700 300) scale(0.1 -0.1)"><path d="M0.0 0.0V-31.0H498.0V0.0ZM-38.0 -414.0V-443.0H552.0V-414.0ZM259.0 -83.0V-625.0H288.0V-83.0ZM35.0 -274.0C35.0 -264.0 61.0 -252.0 61.0 -252.0C120.0 -156.0 175.0 -18.0 221.0 113.0L190.0 123.0C156.0 -1.0 90.0 -141.0 71.0 -176.0C53.0 -213.0 38.0 -239.0 25.0 -243.0C28.0 -249.0 33.0 -266.0 35.0 -274.0ZM35.0 -274.0C43.0 -267.0 67.0 -261.0 115.0 -261.0H498.0V-230.0H65.0L35.0 -243.0Z"/></g>
<g fill="red" transform="translate(800 300) scale(0.1 -0.1)"><path d="M0.0 0.0V-111.0H541.0V0.0ZM-22.0 -378.0V-506.0H591.0V-378.0ZM220.0 -132.0V-668.0H360.0V-132.0ZM23.0 -324.0C23.0 -299.0 116.0 -256.0 116.0 -256.0V-254.0C178.0 -173.0 251.0 -51.0 301.0 69.0L161.0 101.0C124.0 -8.0 62.0 -118.0 40.0 -147.0C19.0 -178.0 2.0 -196.0 -20.0 -202.0C-5.0 -236.0 16.0 -298.0 23.0 -324.0ZM23.0 -324.0C32.0 -314.0 78.0 -308.0 121.0 -308.0H548.0V-189.0H85.0L23.0 -224.0Z"/></g>
<g fill="black" opacity=".8" transform="translate(800 300) scale(0.1 -0.1)"><path d="M0.0 0.0V-117.0H536.0V0.0ZM-33.0 -374.0V-505.0H584.0V-374.0ZM229.0 -127.0V-661.0H373.0V-127.0ZM24.0 -326.0C24.0 -301.0 120.0 -256.0 120.0 -256.0V-254.0C180.0 -172.0 253.0 -47.0 300.0 76.0L155.0 109.0C119.0 -1.0 60.0 -112.0 38.0 -143.0C19.0 -175.0 2.0 -193.0 -20.0 -199.0C-5.0 -234.0 16.0 -299.0 24.0 -326.0ZM24.0 -326.0C33.0 -317.0 81.0 -311.0 122.0 -311.0H538.0L539.0 -183.0H89.0L24.0 -221.0Z"/></g>
<g fill="red" transform="translate(900 300) scale(0.1 -0.1)"><path d="M0.0 0.0V-30.0H543.0V0.0ZM-6.0 -539.0V-569.0H555.0V-539.0ZM283.0 -149.0V-771.0H313.0V-149.0ZM61.0 -349.0C61.0 -339.0 87.0 -327.0 87.0 -327.0V-326.0C147.0 -208.0 204.0 -39.0 242.0 119.0L212.0 127.0C181.0 -24.0 117.0 -191.0 97.0 -235.0C78.0 -280.0 64.0 -315.0 50.0 -318.0C54.0 -326.0 59.0 -341.0 61.0 -349.0ZM61.0 -349.0C70.0 -341.0 93.0 -336.0 141.0 -336.0H525.0V-307.0H90.0L61.0 -319.0Z"/></g>
<g fill="black" opacity=".8" transform="translate(900 300) scale(0.1 -0.1)"><path d="M0.0 0.0V-31.0H549.0V0.0ZM-6.0 -537.0V-568.0H555.0V-537.0ZM283.0 -148.0V-774.0H313.0V-148.0ZM60.0 -349.0C60.0 -339.0 86.0 -327.0 86.0 -327.0V-326.0C145.0 -208.0 201.0 -39.0 240.0 120.0L208.0 127.0C179.0 -23.0 115.0 -191.0 95.0 -235.0C77.0 -280.0 62.0 -314.0 48.0 -318.0C52.0 -325.0 57.0 -341.0 60.0 -349.0ZM60.0 -349.0C69.0 -342.0 92.0 -336.0 140.0 -336.0H526.0V-306.0H90.0L60.0 -318.0Z"/></g>
<g fill="red" transform="translate(1000 300) scale(0.1 -0.1)"><path d="M0.0 0.0V-131.0H563.0V0.0ZM-19.0 -536.0V-669.0H580.0V-536.0ZM250.0 -171.0V-846.0H394.0V-171.0ZM38.0 -454.0C38.0 -428.0 141.0 -379.0 141.0 -379.0V-377.0C207.0 -259.0 283.0 -91.0 331.0 75.0L181.0 106.0C146.0 -45.0 80.0 -206.0 57.0 -248.0C34.0 -292.0 17.0 -315.0 -9.0 -323.0C7.0 -360.0 31.0 -427.0 38.0 -454.0ZM38.0 -454.0C47.0 -444.0 96.0 -438.0 137.0 -438.0H558.0V-306.0H104.0L38.0 -345.0Z"/></g>
<g fill="black" opacity=".8" transform="translate(1000 300) scale(0.1 -0.1)"><path d="M0.0 0.0V-133.0H569.0V0.0ZM-12.0 -532.0V-666.0H576.0V-532.0ZM246.0 -170.0V-849.0H389.0V-170.0ZM38.0 -453.0C38.0 -428.0 143.0 -379.0 143.0 -379.0V-378.0C206.0 -260.0 281.0 -92.0 326.0 75.0L179.0 103.0C144.0 -47.0 80.0 -207.0 56.0 -250.0C35.0 -294.0 18.0 -317.0 -8.0 -326.0C8.0 -361.0 31.0 -426.0 38.0 -453.0ZM38.0 -453.0C47.0 -443.0 96.0 -437.0 138.0 -437.0H557.0L558.0 -305.0H105.0L38.0 -344.0Z"/></g>
</svg>
