<?xml version="1.0" encoding="UTF-8"?>
<svg width="1700" height="300" xmlns="http://www.w3.org/2000/svg">
<rect width="100%" height="100%" fill="white"/>
<g fill="green" transform="translate(100 100) scale(0.1 -0.1)"><path d="M0.0 0.0V-30.0H354.0V0.0ZM-238.0 -40.0 -263.0 -54.0C-181.0 -266.0 -28.0 -309.0 209.0 -309.0H436.0C438.0 -300.0 444.0 -287.0 450.0 -278.0C419.0 -278.0 229.0 -278.0 209.0 -278.0C-11.0 -278.0 -166.0 -239.0 -238.0 -40.0ZM-16.0 177.0V-270.0L14.0 -277.0V177.0ZM-240.0 67.0C-268.0 -102.0 -329.0 -231.0 -440.0 -315.0C-431.0 -319.0 -417.0 -328.0 -412.0 -333.0C-305.0 -245.0 -238.0 -116.0 -209.0 63.0ZM251.0 566.0C119.0 522.0 -144.0 485.0 -364.0 461.0C-360.0 455.0 -356.0 444.0 -354.0 436.0C-130.0 459.0 129.0 496.0 283.0 544.0ZM353.0 281.0C195.0 216.0 -134.0 168.0 -410.0 139.0C-407.0 132.0 -403.0 121.0 -402.0 114.0C-121.0 143.0 205.0 190.0 386.0 260.0ZM271.0 425.0C143.0 374.0 -120.0 333.0 -334.0 309.0C-330.0 301.0 -326.0 290.0 -325.0 283.0C-106.0 308.0 154.0 348.0 301.0 403.0Z"/></g>
<g fill="green" transform="translate(200 100) scale(0.1 -0.1)"><path d="M0.0 0.0V-129.0H370.0V0.0ZM-203.0 -56.0 -321.0 -95.0C-232.0 -335.0 -79.0 -382.0 160.0 -382.0H435.0C442.0 -341.0 463.0 -277.0 483.0 -245.0C406.0 -248.0 230.0 -249.0 168.0 -248.0C-7.0 -248.0 -145.0 -222.0 -203.0 -56.0ZM-79.0 103.0V-288.0L71.0 -330.0V103.0ZM-316.0 20.0C-332.0 -124.0 -384.0 -238.0 -489.0 -302.0C-454.0 -323.0 -388.0 -373.0 -362.0 -400.0C-253.0 -316.0 -187.0 -178.0 -161.0 4.0ZM213.0 551.0C65.0 513.0 -178.0 485.0 -397.0 472.0C-383.0 444.0 -366.0 392.0 -362.0 360.0C-137.0 371.0 125.0 398.0 324.0 447.0ZM313.0 271.0C133.0 210.0 -167.0 167.0 -440.0 146.0C-426.0 117.0 -408.0 61.0 -404.0 27.0C-125.0 48.0 192.0 90.0 429.0 164.0ZM249.0 415.0C102.0 369.0 -142.0 331.0 -362.0 311.0C-347.0 284.0 -330.0 231.0 -325.0 200.0C-98.0 219.0 163.0 255.0 361.0 312.0Z"/></g>
<g fill="green" transform="translate(300 100) scale(0.1 -0.1)"><path d="M0.0 0.0V-30.0H354.0V0.0ZM-238.0 -40.0 -263.0 -54.0C-181.0 -266.0 -28.0 -309.0 209.0 -309.0H436.0C438.0 -300.0 444.0 -287.0 450.0 -278.0C419.0 -278.0 229.0 -278.0 209.0 -278.0C-11.0 -278.0 -166.0 -239.0 -238.0 -40.0ZM-16.0 177.0V-270.0L14.0 -277.0V177.0ZM-240.0 67.0C-268.0 -102.0 -329.0 -231.0 -440.0 -315.0C-431.0 -319.0 -417.0 -328.0 -412.0 -333.0C-305.0 -245.0 -238.0 -116.0 -209.0 63.0ZM251.0 566.0C119.0 522.0 -144.0 485.0 -364.0 461.0C-360.0 455.0 -356.0 444.0 -354.0 436.0C-130.0 459.0 129.0 496.0 283.0 544.0ZM353.0 281.0C195.0 216.0 -134.0 168.0 -410.0 139.0C-407.0 132.0 -403.0 121.0 -402.0 114.0C-121.0 143.0 205.0 190.0 386.0 260.0ZM271.0 425.0C143.0 374.0 -120.0 333.0 -334.0 309.0C-330.0 301.0 -326.0 290.0 -325.0 283.0C-106.0 308.0 154.0 348.0 301.0 403.0Z"/></g>
<g fill="green" transform="translate(400 100) scale(0.1 -0.1)"><path d="M0.0 0.0V-129.0H370.0V0.0ZM-203.0 -56.0 -321.0 -95.0C-232.0 -335.0 -79.0 -382.0 160.0 -382.0H435.0C442.0 -341.0 463.0 -277.0 483.0 -245.0C406.0 -248.0 230.0 -249.0 168.0 -248.0C-7.0 -248.0 -145.0 -222.0 -203.0 -56.0ZM-79.0 103.0V-288.0L71.0 -330.0V103.0ZM-316.0 20.0C-332.0 -124.0 -384.0 -238.0 -489.0 -302.0C-454.0 -323.0 -388.0 -373.0 -362.0 -400.0C-253.0 -316.0 -187.0 -178.0 -161.0 4.0ZM213.0 551.0C65.0 513.0 -178.0 485.0 -397.0 472.0C-383.0 444.0 -366.0 392.0 -362.0 360.0C-137.0 371.0 125.0 398.0 324.0 447.0ZM313.0 271.0C133.0 210.0 -167.0 167.0 -440.0 146.0C-426.0 117.0 -408.0 61.0 -404.0 27.0C-125.0 48.0 192.0 90.0 429.0 164.0ZM249.0 415.0C102.0 369.0 -142.0 331.0 -362.0 311.0C-347.0 284.0 -330.0 231.0 -325.0 200.0C-98.0 219.0 163.0 255.0 361.0 312.0Z"/></g>
<g fill="red" transform="translate(100 200) scale(0.1 -0.1)"><path d="M0 0.0V-30.0H354.0V0.0ZM-238.0 -40.0 -263.0 -54.0C-181.0 -266.0 -28.0 -309.0 209.0 -309.0H436.0C438.0 -300.0 444.0 -287.0 450.0 -278.0C419.0 -278.0 229.0 -278.0 209.0 -278.0C-11.0 -278.0 -166.0 -239.0 -238.0 -40.0ZM-16.0 177.0V-270.0L14.0 -277.0V177.0ZM-240.0 67.0C-268.0 -102.0 -329.0 -231.0 -440.0 -315.0C-431.0 -319.0 -417.0 -328.0 -412.0 -333.0C-305.0 -245.0 -238.0 -116.0 -209.0 63.0ZM251.0 566.0C119.0 522.0 -144.0 485.0 -364.0 461.0C-360.0 455.0 -356.0 444.0 -354.0 436.0C-130.0 459.0 129.0 496.0 283.0 544.0ZM353.0 281.0C195.0 216.0 -134.0 168.0 -410.0 139.0C-407.0 132.0 -403.0 121.0 -402.0 114.0C-121.0 143.0 205.0 190.0 386.0 260.0ZM271.0 425.0C143.0 374.0 -120.0 333.0 -334.0 309.0C-330.0 301.0 -326.0 290.0 -325.0 283.0C-106.0 308.0 154.0 348.0 301.0 403.0Z"/></g>
<g fill="black" opacity=".8" transform="translate(100 200) scale(0.1 -0.1)"><path d="M0.0 0.0V-30.0H354.0V0.0ZM-238.0 -40.0 -263.0 -54.0C-181.0 -266.0 -28.0 -309.0 209.0 -309.0H436.0C438.0 -300.0 444.0 -287.0 450.0 -278.0C419.0 -278.0 229.0 -278.0 209.0 -278.0C-11.0 -278.0 -166.0 -239.0 -238.0 -40.0ZM-16.0 177.0V-270.0L14.0 -277.0V177.0ZM-240.0 67.0C-268.0 -102.0 -329.0 -231.0 -440.0 -315.0C-431.0 -319.0 -417.0 -328.0 -412.0 -333.0C-305.0 -245.0 -238.0 -116.0 -209.0 63.0ZM251.0 566.0C119.0 522.0 -144.0 485.0 -364.0 461.0C-360.0 455.0 -356.0 444.0 -354.0 436.0C-130.0 459.0 129.0 496.0 283.0 544.0ZM353.0 281.0C195.0 216.0 -134.0 168.0 -410.0 139.0C-407.0 132.0 -403.0 121.0 -402.0 114.0C-121.0 143.0 205.0 190.0 386.0 260.0ZM271.0 425.0C143.0 374.0 -120.0 333.0 -334.0 309.0C-330.0 301.0 -326.0 290.0 -325.0 283.0C-106.0 308.0 154.0 348.0 301.0 403.0Z"/></g>
<g fill="red" transform="translate(200 200) scale(0.1 -0.1)"><path d="M0 0.0V-129.0H370.0V0.0ZM-203.0 -56.0 -321.0 -95.0C-232.0 -335.0 -79.0 -382.0 160.0 -382.0H435.0C442.0 -341.0 463.0 -277.0 483.0 -245.0C406.0 -248.0 230.0 -249.0 168.0 -248.0C-7.0 -248.0 -145.0 -222.0 -203.0 -56.0ZM-79.0 103.0V-288.0L71.0 -330.0V103.0ZM-316.0 20.0C-332.0 -124.0 -384.0 -238.0 -489.0 -302.0C-454.0 -323.0 -388.0 -373.0 -362.0 -400.0C-253.0 -316.0 -187.0 -178.0 -161.0 4.0ZM213.0 551.0C65.0 513.0 -178.0 485.0 -397.0 472.0C-383.0 444.0 -366.0 392.0 -362.0 360.0C-137.0 371.0 125.0 398.0 324.0 447.0ZM313.0 271.0C133.0 210.0 -167.0 167.0 -440.0 146.0C-426.0 117.0 -408.0 61.0 -404.0 27.0C-125.0 48.0 192.0 90.0 429.0 164.0ZM249.0 415.0C102.0 369.0 -142.0 331.0 -362.0 311.0C-347.0 284.0 -330.0 231.0 -325.0 200.0C-98.0 219.0 163.0 255.0 361.0 312.0Z"/></g>
<g fill="black" opacity=".8" transform="translate(200 200) scale(0.1 -0.1)"><path d="M0.0 0.0V-129.0H370.0V0.0ZM-203.0 -56.0 -321.0 -95.0C-232.0 -335.0 -79.0 -382.0 160.0 -382.0H435.0C442.0 -341.0 463.0 -277.0 483.0 -245.0C406.0 -248.0 230.0 -249.0 168.0 -248.0C-7.0 -248.0 -145.0 -222.0 -203.0 -56.0ZM-79.0 103.0V-288.0L71.0 -330.0V103.0ZM-316.0 20.0C-332.0 -124.0 -384.0 -238.0 -489.0 -302.0C-454.0 -323.0 -388.0 -373.0 -362.0 -400.0C-253.0 -316.0 -187.0 -178.0 -161.0 4.0ZM213.0 551.0C65.0 513.0 -178.0 485.0 -397.0 472.0C-383.0 444.0 -366.0 392.0 -362.0 360.0C-137.0 371.0 125.0 398.0 324.0 447.0ZM313.0 271.0C133.0 210.0 -167.0 167.0 -440.0 146.0C-426.0 117.0 -408.0 61.0 -404.0 27.0C-125.0 48.0 192.0 90.0 429.0 164.0ZM249.0 415.0C102.0 369.0 -142.0 331.0 -362.0 311.0C-347.0 284.0 -330.0 231.0 -325.0 200.0C-98.0 219.0 163.0 255.0 361.0 312.0Z"/></g>
</svg>
