<?xml version="1.0" encoding="UTF-8"?>
<svg width="1700" height="400" xmlns="http://www.w3.org/2000/svg">
<rect width="100%" height="100%" fill="white"/>
<g fill="green" transform="translate(100 100) scale(0.1 -0.1)"><path d="M0.0 0.0 -129.0 -32.0 580.0 -13.0 709.0 18.0ZM133.0 -222.0 -115.0 -259.0 668.0 -210.0 915.0 -173.0ZM139.0 -214.0 10.0 -245.0 663.0 -226.0 792.0 -195.0ZM189.0 -45.0V-325.0C189.0 -464.0 181.0 -649.0 96.0 -783.0C102.0 -786.0 113.0 -793.0 116.0 -798.0C203.0 -661.0 213.0 -465.0 213.0 -325.0V-45.0ZM400.0 -251.0 375.0 -254.0C400.0 -500.0 456.0 -690.0 605.0 -771.0C611.0 -763.0 618.0 -755.0 625.0 -749.0C478.0 -678.0 421.0 -489.0 400.0 -251.0ZM566.0 -340.0C527.0 -388.0 457.0 -459.0 407.0 -500.0L424.0 -514.0C475.0 -474.0 542.0 -409.0 588.0 -356.0ZM277.0 -970.0C287.0 -959.0 304.0 -947.0 453.0 -857.0C452.0 -852.0 450.0 -843.0 450.0 -835.0L290.0 -923.0L276.0 -945.0ZM277.0 -970.0C277.0 -959.0 308.0 -936.0 308.0 -936.0V-432.0H282.0V-896.0C282.0 -928.0 270.0 -939.0 262.0 -944.0C267.0 -951.0 275.0 -964.0 277.0 -970.0Z"/></g>
<g fill="green" transform="translate(200 100) scale(0.1 -0.1)"><path d="M0.0 0.0 -101.0 -164.0 615.0 -159.0 716.0 5.0ZM109.0 -194.0 -61.0 -367.0 725.0 -351.0 895.0 -177.0ZM143.0 -224.0 43.0 -380.0 706.0 -375.0 807.0 -219.0ZM137.0 -74.0V-338.0C137.0 -479.0 132.0 -684.0 54.0 -821.0C86.0 -832.0 142.0 -862.0 167.0 -883.0C248.0 -734.0 262.0 -494.0 262.0 -337.0V-74.0ZM436.0 -328.0 332.0 -343.0C359.0 -580.0 401.0 -763.0 539.0 -858.0C556.0 -826.0 593.0 -777.0 620.0 -754.0C499.0 -682.0 457.0 -518.0 436.0 -328.0ZM547.0 -389.0C510.0 -441.0 446.0 -506.0 403.0 -541.0L459.0 -630.0C504.0 -597.0 571.0 -539.0 621.0 -490.0ZM280.0 -1055.0C298.0 -1038.0 329.0 -1020.0 447.0 -954.0C442.0 -924.0 438.0 -866.0 440.0 -827.0L300.0 -896.0L262.0 -937.0ZM280.0 -1055.0C280.0 -1010.0 383.0 -914.0 383.0 -914.0V-534.0L272.0 -535.0V-831.0C272.0 -883.0 237.0 -925.0 214.0 -946.0C235.0 -971.0 269.0 -1026.0 280.0 -1055.0Z"/></g>
<g fill="green" transform="translate(300 100) scale(0.1 -0.1)"><path d="M0.0 0.0 -187.0 -12.0 114.0 16.0 300.0 26.0ZM147.0 23.0 -141.0 7.0 178.0 64.0 465.0 80.0ZM144.0 -110.0 -43.0 -121.0 243.0 -93.0 430.0 -83.0ZM219.0 -26.0V-113.0C219.0 -146.0 219.0 -186.0 202.0 -213.0C203.0 -213.0 204.0 -214.0 203.0 -214.0C221.0 -187.0 220.0 -143.0 220.0 -112.0V-26.0ZM174.0 6.0 169.0 9.0C147.0 -100.0 99.0 -189.0 109.0 -227.0C111.0 -226.0 111.0 -227.0 112.0 -226.0C104.0 -192.0 150.0 -102.0 174.0 6.0ZM123.0 -39.0C122.0 -58.0 118.0 -87.0 116.0 -103.0H117.0C121.0 -88.0 125.0 -59.0 127.0 -41.0ZM213.0 -434.0C212.0 -431.0 210.0 -426.0 185.0 -391.0C185.0 -390.0 184.0 -390.0 184.0 -388.0L210.0 -423.0L212.0 -430.0ZM213.0 -434.0C213.0 -434.0 208.0 -432.0 208.0 -432.0V-184.0H205.0V-428.0C205.0 -431.0 210.0 -430.0 211.0 -431.0C212.0 -432.0 213.0 -434.0 213.0 -434.0Z"/></g>
<g fill="green" transform="translate(400 100) scale(0.1 -0.1)"><path d="M0.0 0.0 -146.0 -84.0 156.0 -77.0 303.0 7.0ZM112.0 54.0 -85.0 -37.0 246.0 -19.0 443.0 74.0ZM138.0 -114.0 -7.0 -197.0 290.0 -189.0 436.0 -106.0ZM217.0 -63.0V-108.0C217.0 -145.0 217.0 -207.0 205.0 -247.0C211.0 -246.0 219.0 -245.0 225.0 -248.0C233.0 -207.0 234.0 -143.0 234.0 -106.0V-63.0ZM163.0 -36.0 146.0 -33.0C126.0 -129.0 92.0 -216.0 88.0 -265.0C91.0 -260.0 100.0 -252.0 105.0 -249.0C111.0 -209.0 148.0 -121.0 163.0 -36.0ZM138.0 -60.0C128.0 -85.0 112.0 -114.0 104.0 -128.0L98.0 -167.0C107.0 -152.0 126.0 -122.0 132.0 -103.0ZM219.0 -467.0C220.0 -461.0 224.0 -454.0 203.0 -424.0C200.0 -416.0 196.0 -398.0 196.0 -385.0L212.0 -419.0L210.0 -430.0ZM219.0 -467.0C219.0 -456.0 227.0 -420.0 227.0 -420.0V-248.0L217.0 -249.0V-398.0C217.0 -412.0 202.0 -431.0 196.0 -440.0C202.0 -447.0 214.0 -461.0 219.0 -467.0Z"/></g>
<g fill="green" transform="translate(500 100) scale(0.1 -0.1)"><path d="M0.0 0.0 -55.0 -42.0 324.0 -33.0 380.0 8.0ZM-242.0 -178.0 -720.0 -239.0 464.0 -145.0 942.0 -84.0ZM-220.0 -167.0 -275.0 -208.0 112.0 -200.0 168.0 -159.0ZM-300.0 184.0V-387.0C-300.0 -604.0 -303.0 -894.0 -393.0 -1103.0C-383.0 -1108.0 -365.0 -1118.0 -360.0 -1125.0C-270.0 -912.0 -263.0 -605.0 -263.0 -386.0V184.0ZM72.0 -533.0 37.0 -541.0C89.0 -827.0 197.0 -1067.0 380.0 -1173.0C388.0 -1161.0 401.0 -1147.0 411.0 -1138.0C229.0 -1047.0 120.0 -808.0 72.0 -533.0ZM307.0 -636.0C266.0 -695.0 189.0 -784.0 136.0 -836.0L163.0 -859.0C217.0 -810.0 288.0 -731.0 340.0 -661.0ZM-164.0 -933.0C-149.0 -922.0 -124.0 -908.0 86.0 -818.0C85.0 -810.0 84.0 -797.0 85.0 -784.0L-141.0 -870.0L-165.0 -898.0ZM-164.0 -933.0C-164.0 -917.0 -129.0 -888.0 -129.0 -888.0V-293.0L-167.0 -294.0V-827.0C-167.0 -874.0 -178.0 -887.0 -187.0 -894.0C-179.0 -905.0 -168.0 -924.0 -164.0 -933.0Z"/></g>
<g fill="green" transform="translate(600 100) scale(0.1 -0.1)"><path d="M0.0 0.0 -44.0 -165.0 323.0 -163.0 366.0 2.0ZM-303.0 -119.0 -632.0 -352.0 514.0 -321.0 842.0 -87.0ZM-239.0 -153.0 -281.0 -328.0 87.0 -326.0 131.0 -151.0ZM-410.0 200.0V-390.0C-410.0 -620.0 -416.0 -937.0 -509.0 -1146.0C-466.0 -1160.0 -390.0 -1198.0 -356.0 -1224.0C-257.0 -999.0 -244.0 -633.0 -244.0 -387.0V200.0ZM150.0 -626.0 14.0 -638.0C39.0 -928.0 87.0 -1156.0 255.0 -1274.0C277.0 -1232.0 325.0 -1170.0 359.0 -1140.0C218.0 -1052.0 171.0 -854.0 150.0 -626.0ZM251.0 -714.0C212.0 -778.0 144.0 -863.0 100.0 -910.0L172.0 -1017.0C221.0 -972.0 291.0 -900.0 347.0 -836.0ZM-206.0 -1057.0C-180.0 -1036.0 -136.0 -1015.0 75.0 -943.0C68.0 -910.0 63.0 -844.0 65.0 -799.0L-173.0 -872.0L-225.0 -922.0ZM-206.0 -1057.0C-206.0 -1005.0 -88.0 -910.0 -88.0 -910.0V-375.0L-227.0 -378.0V-789.0C-227.0 -851.0 -254.0 -891.0 -278.0 -911.0C-253.0 -946.0 -218.0 -1019.0 -206.0 -1057.0Z"/></g>
<g fill="green" transform="translate(700 100) scale(0.1 -0.1)"><path d="M0.0 0.0 -201.0 -48.0 978.0 -18.0 1180.0 28.0ZM12.0 -294.0 -21.0 -333.0 1049.0 -327.0 1081.0 -287.0ZM37.0 -168.0 -164.0 -215.0 882.0 -185.0 1084.0 -139.0ZM3.0 89.0V-230.0C3.0 -409.0 -16.0 -642.0 -161.0 -814.0C-151.0 -819.0 -137.0 -829.0 -131.0 -838.0C18.0 -663.0 40.0 -414.0 40.0 -230.0V89.0ZM489.0 -253.0 453.0 -265.0C548.0 -495.0 762.0 -636.0 1046.0 -690.0C1053.0 -677.0 1063.0 -663.0 1072.0 -655.0C788.0 -610.0 577.0 -473.0 489.0 -253.0ZM915.0 -320.0C841.0 -371.0 712.0 -446.0 620.0 -488.0L644.0 -511.0C738.0 -469.0 861.0 -404.0 946.0 -344.0ZM162.0 -702.0C182.0 -690.0 217.0 -680.0 570.0 -597.0C570.0 -590.0 570.0 -576.0 571.0 -566.0L190.0 -646.0L161.0 -669.0ZM162.0 -702.0C162.0 -683.0 226.0 -654.0 226.0 -654.0V-284.0L186.0 -283.0V-594.0C186.0 -640.0 157.0 -655.0 141.0 -661.0C149.0 -673.0 159.0 -691.0 162.0 -702.0Z"/></g>
<g fill="green" transform="translate(800 100) scale(0.1 -0.1)"><path d="M0.0 0.0 -157.0 -186.0 1009.0 -178.0 1167.0 8.0ZM14.0 -342.0 -8.0 -491.0 1064.0 -489.0 1086.0 -339.0ZM38.0 -200.0 -118.0 -363.0 940.0 -355.0 1097.0 -192.0ZM-64.0 66.0V-130.0C-64.0 -323.0 -75.0 -618.0 -216.0 -819.0C-172.0 -838.0 -91.0 -896.0 -58.0 -930.0C95.0 -708.0 124.0 -353.0 124.0 -131.0V66.0ZM554.0 -357.0 392.0 -387.0C492.0 -628.0 653.0 -743.0 969.0 -782.0C990.0 -736.0 1033.0 -664.0 1070.0 -628.0C790.0 -609.0 629.0 -524.0 554.0 -357.0ZM843.0 -408.0C789.0 -452.0 698.0 -508.0 631.0 -541.0L746.0 -626.0C815.0 -597.0 910.0 -550.0 985.0 -499.0ZM171.0 -807.0C201.0 -789.0 251.0 -776.0 503.0 -720.0C503.0 -682.0 510.0 -610.0 519.0 -563.0L226.0 -622.0L160.0 -672.0ZM171.0 -807.0C171.0 -744.0 339.0 -611.0 339.0 -611.0V-380.0L169.0 -379.0V-504.0C169.0 -578.0 118.0 -633.0 85.0 -660.0C113.0 -692.0 157.0 -767.0 171.0 -807.0Z"/></g>
<g fill="green" transform="translate(900 100) scale(0.1 -0.1)"><path d="M0.0 0.0 498.0 1.0 646.0 -69.0 149.0 -71.0ZM139.0 -121.0 -252.0 -162.0 842.0 -84.0 1232.0 -43.0ZM177.0 -179.0 674.0 -177.0 812.0 -249.0 315.0 -251.0ZM212.0 -375.0V-470.0C212.0 -554.0 201.0 -667.0 120.0 -750.0C126.0 -752.0 134.0 -758.0 138.0 -762.0C219.0 -677.0 234.0 -557.0 234.0 -470.0V-375.0ZM432.0 -408.0 411.0 -413.0C447.0 -594.0 551.0 -705.0 757.0 -738.0C762.0 -729.0 768.0 -720.0 774.0 -713.0C571.0 -686.0 465.0 -579.0 432.0 -408.0ZM684.0 -466.0C633.0 -501.0 545.0 -557.0 483.0 -586.0L497.0 -597.0C560.0 -569.0 646.0 -519.0 704.0 -482.0ZM286.0 -962.0C297.0 -953.0 315.0 -945.0 507.0 -873.0C507.0 -868.0 506.0 -862.0 506.0 -856.0L298.0 -925.0L286.0 -942.0ZM286.0 -962.0C286.0 -952.0 332.0 -929.0 332.0 -929.0V-635.0L307.0 -634.0V-895.0C307.0 -923.0 285.0 -934.0 273.0 -939.0C277.0 -946.0 285.0 -956.0 286.0 -962.0Z"/></g>
<g fill="green" transform="translate(1000 100) scale(0.1 -0.1)"><path d="M0.0 0.0 387.0 -35.0 529.0 -55.0 141.0 -20.0ZM32.0 -4.0 -236.0 -168.0 845.0 -143.0 1114.0 23.0ZM159.0 -168.0 547.0 -204.0 700.0 -223.0 312.0 -187.0ZM131.0 -339.0V-336.0C131.0 -436.0 124.0 -605.0 38.0 -722.0C67.0 -732.0 118.0 -756.0 141.0 -774.0C225.0 -647.0 243.0 -455.0 243.0 -336.0V-339.0ZM416.0 -398.0 314.0 -410.0C364.0 -609.0 443.0 -710.0 652.0 -748.0C664.0 -721.0 691.0 -676.0 713.0 -654.0C529.0 -631.0 451.0 -546.0 416.0 -398.0ZM630.0 -431.0C587.0 -467.0 515.0 -512.0 467.0 -533.0L504.0 -617.0C556.0 -600.0 631.0 -564.0 694.0 -534.0ZM243.0 -988.0C262.0 -975.0 291.0 -966.0 437.0 -914.0C434.0 -887.0 433.0 -833.0 436.0 -798.0L271.0 -852.0L236.0 -889.0ZM243.0 -988.0C243.0 -943.0 355.0 -857.0 355.0 -857.0V-636.0L248.0 -634.0V-783.0C248.0 -829.0 216.0 -863.0 195.0 -880.0C212.0 -903.0 237.0 -958.0 243.0 -988.0Z"/></g>
<g fill="green" transform="translate(1100 100) scale(0.1 -0.1)"><path d="M0.0 0.0 57.0 -27.0 603.0 -35.0 546.0 -8.0ZM139.0 -524.0 483.0 -536.0 569.0 -604.0 224.0 -592.0ZM61.0 -195.0 119.0 -220.0 660.0 -228.0 602.0 -203.0ZM149.0 -119.0V-282.0C149.0 -376.0 134.0 -499.0 48.0 -589.0C55.0 -593.0 67.0 -601.0 71.0 -607.0C159.0 -514.0 177.0 -380.0 177.0 -283.0V-119.0ZM382.0 -316.0 356.0 -322.0C393.0 -546.0 478.0 -730.0 629.0 -807.0C635.0 -799.0 644.0 -790.0 651.0 -783.0C501.0 -714.0 417.0 -534.0 382.0 -316.0ZM577.0 -398.0C536.0 -441.0 462.0 -507.0 410.0 -543.0L428.0 -558.0C482.0 -522.0 553.0 -464.0 602.0 -415.0ZM252.0 -996.0C263.0 -984.0 281.0 -969.0 431.0 -864.0C429.0 -860.0 427.0 -850.0 426.0 -840.0L267.0 -942.0L251.0 -966.0ZM252.0 -996.0C252.0 -984.0 294.0 -954.0 294.0 -954.0V-466.0L266.0 -465.0V-908.0C266.0 -947.0 245.0 -961.0 235.0 -967.0C242.0 -975.0 249.0 -989.0 252.0 -996.0Z"/></g>
<g fill="green" transform="translate(1200 100) scale(0.1 -0.1)"><path d="M0.0 0.0 44.0 -131.0 608.0 -133.0 564.0 -2.0ZM200.0 -561.0 437.0 -646.0 510.0 -669.0 273.0 -583.0ZM93.0 -208.0 138.0 -325.0 684.0 -327.0 640.0 -210.0ZM99.0 -125.0V-328.0C99.0 -415.0 93.0 -526.0 13.0 -605.0C48.0 -619.0 113.0 -656.0 141.0 -677.0C226.0 -589.0 242.0 -445.0 242.0 -329.0V-125.0ZM450.0 -378.0 339.0 -405.0C384.0 -628.0 453.0 -813.0 587.0 -912.0C606.0 -878.0 648.0 -824.0 677.0 -799.0C557.0 -723.0 487.0 -558.0 450.0 -378.0ZM605.0 -438.0C558.0 -488.0 476.0 -551.0 418.0 -584.0L494.0 -672.0C554.0 -639.0 635.0 -584.0 697.0 -533.0ZM251.0 -1073.0C269.0 -1057.0 303.0 -1041.0 419.0 -981.0C415.0 -950.0 411.0 -889.0 415.0 -849.0L276.0 -911.0L234.0 -954.0ZM249.0 -1073.0C249.0 -1031.0 379.0 -974.0 379.0 -974.0V-571.0L246.0 -570.0V-890.0C246.0 -934.0 225.0 -951.0 205.0 -963.0C222.0 -986.0 244.0 -1043.0 249.0 -1073.0Z"/></g>
<g fill="green" transform="translate(1300 100) scale(0.1 -0.1)"><path d="M0.0 0.0 -83.0 -32.0 579.0 -19.0 662.0 11.0ZM148.0 -282.0 43.0 -314.0 614.0 -294.0 717.0 -261.0ZM211.0 -206.0 128.0 -238.0 668.0 -225.0 751.0 -194.0ZM198.0 -72.0V-441.0C198.0 -607.0 196.0 -837.0 128.0 -1003.0C135.0 -1006.0 148.0 -1013.0 151.0 -1018.0C219.0 -848.0 224.0 -608.0 224.0 -441.0V-72.0ZM395.0 -245.0 370.0 -249.0C397.0 -463.0 449.0 -651.0 559.0 -736.0C566.0 -728.0 574.0 -718.0 581.0 -713.0C473.0 -639.0 418.0 -452.0 395.0 -245.0ZM544.0 -334.0C512.0 -375.0 454.0 -434.0 413.0 -467.0L431.0 -485.0C472.0 -451.0 526.0 -400.0 564.0 -352.0ZM271.0 -940.0C281.0 -928.0 298.0 -917.0 465.0 -838.0C464.0 -833.0 463.0 -824.0 463.0 -815.0L284.0 -889.0L270.0 -911.0ZM271.0 -940.0C271.0 -927.0 317.0 -895.0 317.0 -895.0V-428.0L288.0 -427.0V-852.0C288.0 -888.0 265.0 -906.0 252.0 -912.0C259.0 -919.0 268.0 -933.0 271.0 -940.0Z"/></g>
<g fill="green" transform="translate(1400 100) scale(0.1 -0.1)"><path d="M0.0 0.0 -65.0 -139.0 615.0 -136.0 680.0 3.0ZM141.0 -245.0 70.0 -390.0 667.0 -384.0 738.0 -238.0ZM227.0 -202.0 163.0 -336.0 713.0 -333.0 778.0 -199.0ZM156.0 -97.0V-449.0C156.0 -624.0 152.0 -880.0 81.0 -1052.0C109.0 -1060.0 161.0 -1085.0 185.0 -1104.0C257.0 -922.0 266.0 -631.0 266.0 -447.0V-97.0ZM454.0 -324.0 357.0 -334.0C377.0 -542.0 411.0 -711.0 521.0 -801.0C537.0 -771.0 571.0 -727.0 596.0 -706.0C504.0 -637.0 470.0 -489.0 454.0 -324.0ZM523.0 -358.0C501.0 -404.0 459.0 -464.0 432.0 -498.0L492.0 -570.0C521.0 -537.0 562.0 -484.0 592.0 -437.0ZM282.0 -991.0C297.0 -977.0 324.0 -963.0 444.0 -900.0C440.0 -876.0 439.0 -826.0 441.0 -795.0L297.0 -861.0L266.0 -895.0ZM284.0 -991.0C284.0 -954.0 385.0 -891.0 385.0 -891.0V-502.0L285.0 -500.0V-803.0C285.0 -845.0 257.0 -873.0 237.0 -885.0C254.0 -911.0 277.0 -963.0 284.0 -991.0Z"/></g>
<g fill="green" transform="translate(1500 100) scale(0.1 -0.1)"><path d="M0.0 0.0 -115.0 -30.0 579.0 -12.0 694.0 16.0ZM120.0 -227.0 -147.0 -263.0 657.0 -211.0 923.0 -174.0ZM125.0 -212.0 10.0 -242.0 661.0 -225.0 776.0 -195.0ZM172.0 -43.0V-268.0C172.0 -415.0 164.0 -618.0 82.0 -767.0C87.0 -770.0 98.0 -777.0 101.0 -782.0C185.0 -629.0 195.0 -416.0 195.0 -268.0V-43.0ZM398.0 -271.0 375.0 -274.0C398.0 -515.0 450.0 -696.0 592.0 -778.0C597.0 -771.0 603.0 -764.0 610.0 -759.0C469.0 -686.0 418.0 -505.0 398.0 -271.0ZM575.0 -351.0C532.0 -400.0 456.0 -469.0 402.0 -510.0L418.0 -524.0C473.0 -481.0 544.0 -418.0 593.0 -364.0ZM288.0 -962.0C299.0 -949.0 316.0 -938.0 448.0 -848.0C446.0 -843.0 441.0 -833.0 440.0 -827.0L302.0 -918.0L288.0 -939.0ZM288.0 -962.0C288.0 -951.0 307.0 -930.0 307.0 -930.0V-439.0H283.0V-892.0C283.0 -924.0 279.0 -933.0 274.0 -937.0C278.0 -944.0 285.0 -956.0 288.0 -962.0Z"/></g>
<g fill="green" transform="translate(1600 100) scale(0.1 -0.1)"><path d="M0.0 0.0 -90.0 -163.0 629.0 -159.0 720.0 4.0ZM118.0 -201.0 -65.0 -368.0 732.0 -351.0 914.0 -183.0ZM139.0 -231.0 50.0 -384.0 707.0 -380.0 797.0 -227.0ZM116.0 -70.0V-450.0C116.0 -568.0 113.0 -714.0 52.0 -809.0C84.0 -822.0 141.0 -859.0 165.0 -882.0C234.0 -774.0 246.0 -584.0 246.0 -449.0V-70.0ZM430.0 -320.0 338.0 -340.0C369.0 -560.0 417.0 -755.0 533.0 -864.0C553.0 -830.0 595.0 -780.0 623.0 -756.0C512.0 -672.0 458.0 -501.0 430.0 -320.0ZM536.0 -400.0C505.0 -445.0 448.0 -505.0 408.0 -536.0L464.0 -613.0C508.0 -588.0 566.0 -540.0 627.0 -500.0ZM307.0 -1054.0C327.0 -1035.0 360.0 -1011.0 483.0 -942.0C475.0 -912.0 465.0 -856.0 462.0 -815.0L327.0 -881.0L286.0 -923.0ZM307.0 -1054.0C307.0 -1006.0 405.0 -887.0 405.0 -887.0V-534.0L283.0 -535.0V-824.0C283.0 -882.0 248.0 -936.0 223.0 -962.0C247.0 -982.0 292.0 -1029.0 307.0 -1054.0Z"/></g>
<g fill="red" transform="translate(100 200) scale(0.1 -0.1)"><path d="M0.0 0.0V-29.0H742.0V0.0ZM-2.0 -225.0V-255.0H779.0V-225.0ZM84.0 -111.0V-141.0H676.0V-111.0ZM-14.0 0.0V-291.0C-14.0 -451.0 -23.0 -672.0 -116.0 -835.0C-108.0 -838.0 -96.0 -846.0 -91.0 -852.0C4.0 -686.0 15.0 -455.0 15.0 -291.0V0.0ZM357.0 -231.0 331.0 -241.0C407.0 -375.0 575.0 -463.0 767.0 -498.0C772.0 -489.0 780.0 -477.0 787.0 -471.0C595.0 -442.0 428.0 -357.0 357.0 -231.0ZM688.0 -273.0C635.0 -304.0 542.0 -347.0 476.0 -371.0L495.0 -391.0C561.0 -366.0 649.0 -331.0 709.0 -292.0ZM101.0 -488.0C117.0 -478.0 145.0 -473.0 436.0 -426.0C436.0 -420.0 436.0 -409.0 437.0 -402.0L123.0 -446.0L101.0 -461.0ZM101.0 -488.0C101.0 -472.0 161.0 -443.0 161.0 -443.0V-240.0L129.0 -238.0V-397.0C129.0 -434.0 99.0 -451.0 83.0 -457.0C89.0 -465.0 98.0 -479.0 101.0 -488.0Z"/></g>
<g fill="black" opacity=".8" transform="translate(100 200) scale(0.1 -0.1)"><path d="M0.0 0.0 1.0 -31.0 741.0 -28.0 742.0 -1.0ZM-2.0 -225.0V-254.0L780.0 -256.0L778.0 -224.0ZM84.0 -111.0V-142.0L675.0 -140.0L676.0 -111.0ZM-14.0 -0.0V-291.0C-14.0 -452.0 -23.0 -672.0 -116.0 -835.0C-108.0 -838.0 -96.0 -846.0 -91.0 -852.0C3.0 -687.0 15.0 -455.0 15.0 -291.0V-0.0ZM358.0 -230.0 331.0 -240.0C407.0 -374.0 576.0 -462.0 767.0 -499.0C773.0 -489.0 781.0 -476.0 787.0 -471.0C596.0 -442.0 428.0 -357.0 358.0 -230.0ZM689.0 -272.0C635.0 -303.0 542.0 -347.0 477.0 -370.0L495.0 -391.0C561.0 -365.0 648.0 -331.0 709.0 -291.0ZM102.0 -489.0C118.0 -478.0 145.0 -473.0 436.0 -426.0C436.0 -420.0 436.0 -410.0 436.0 -402.0L123.0 -445.0L102.0 -462.0ZM102.0 -489.0C102.0 -472.0 162.0 -443.0 162.0 -443.0V-240.0L129.0 -238.0V-396.0C129.0 -434.0 99.0 -451.0 83.0 -456.0C90.0 -465.0 98.0 -479.0 102.0 -489.0Z"/></g>
<g fill="red" transform="translate(200 200) scale(0.1 -0.1)"><path d="M0.0 0.0V-96.0H743.0V0.0ZM-3.0 -230.0V-326.0H794.0V-230.0ZM92.0 -121.0V-204.0H691.0V-121.0ZM-66.0 0.0V-236.0C-66.0 -407.0 -73.0 -665.0 -170.0 -839.0C-140.0 -852.0 -83.0 -892.0 -60.0 -916.0C45.0 -726.0 63.0 -422.0 63.0 -236.0V0.0ZM415.0 -286.0 302.0 -305.0C377.0 -450.0 500.0 -513.0 724.0 -532.0C739.0 -498.0 769.0 -449.0 795.0 -423.0C596.0 -417.0 471.0 -380.0 415.0 -286.0ZM612.0 -303.0C586.0 -326.0 540.0 -359.0 505.0 -380.0L592.0 -424.0C628.0 -407.0 674.0 -383.0 719.0 -353.0ZM111.0 -531.0C132.0 -519.0 167.0 -512.0 374.0 -475.0C374.0 -451.0 380.0 -406.0 386.0 -378.0L150.0 -415.0L105.0 -447.0ZM113.0 -531.0C113.0 -488.0 236.0 -407.0 236.0 -407.0V-263.0L115.0 -260.0V-329.0C115.0 -378.0 83.0 -412.0 59.0 -427.0C78.0 -450.0 105.0 -502.0 113.0 -531.0Z"/></g>
<g fill="black" opacity=".8" transform="translate(200 200) scale(0.1 -0.1)"><path d="M0.0 0.0V-96.0L742.0 -97.0L744.0 -1.0ZM-4.0 -230.0 -2.0 -324.0 794.0 -326.0 793.0 -230.0ZM90.0 -120.0 92.0 -204.0H691.0L690.0 -120.0ZM-66.0 -1.0V-237.0C-66.0 -407.0 -73.0 -664.0 -170.0 -839.0C-141.0 -851.0 -83.0 -892.0 -60.0 -916.0C46.0 -727.0 63.0 -422.0 63.0 -236.0V-1.0ZM414.0 -286.0 302.0 -304.0C376.0 -450.0 499.0 -513.0 723.0 -532.0C738.0 -499.0 768.0 -449.0 794.0 -423.0C596.0 -417.0 471.0 -381.0 414.0 -286.0ZM611.0 -303.0C586.0 -325.0 539.0 -359.0 504.0 -379.0L590.0 -423.0C628.0 -407.0 674.0 -383.0 719.0 -353.0ZM111.0 -531.0C132.0 -520.0 168.0 -513.0 373.0 -474.0C373.0 -452.0 380.0 -406.0 385.0 -377.0L150.0 -416.0L105.0 -447.0ZM113.0 -531.0C113.0 -489.0 237.0 -407.0 237.0 -407.0V-264.0L115.0 -259.0V-329.0C115.0 -378.0 82.0 -413.0 59.0 -427.0C78.0 -450.0 104.0 -503.0 113.0 -531.0Z"/></g>
<g fill="red" transform="translate(300 200) scale(0.1 -0.1)"><path d="M0.0 0.0V-29.0H706.0V0.0ZM-8.0 -224.0V-253.0H755.0V-224.0ZM-1.0 -109.0V-139.0H647.0V-109.0ZM-17.0 0.0V-150.0C-17.0 -262.0 -34.0 -413.0 -132.0 -526.0C-125.0 -530.0 -114.0 -539.0 -109.0 -545.0C-7.0 -429.0 12.0 -268.0 12.0 -150.0V0.0ZM347.0 -231.0 319.0 -240.0C386.0 -395.0 544.0 -486.0 754.0 -519.0C758.0 -509.0 766.0 -498.0 774.0 -491.0C564.0 -464.0 409.0 -378.0 347.0 -231.0ZM670.0 -275.0C610.0 -305.0 505.0 -348.0 430.0 -373.0L448.0 -390.0C524.0 -366.0 624.0 -330.0 692.0 -294.0ZM112.0 -507.0C126.0 -497.0 150.0 -490.0 358.0 -431.0C357.0 -425.0 356.0 -413.0 356.0 -406.0L133.0 -464.0L112.0 -481.0ZM112.0 -507.0C112.0 -492.0 150.0 -472.0 150.0 -472.0V-245.0H120.0V-426.0C120.0 -462.0 106.0 -472.0 97.0 -476.0C102.0 -485.0 109.0 -498.0 112.0 -507.0Z"/></g>
<g fill="black" opacity=".8" transform="translate(300 200) scale(0.1 -0.1)"><path d="M0.0 0.0 -5.0 -27.0 688.0 -24.0 694.0 0.0ZM-6.0 -225.0 -14.0 -251.0 743.0 -250.0 750.0 -223.0ZM-2.0 -111.0 -7.0 -137.0 625.0 -135.0 631.0 -110.0ZM-19.0 5.0V-142.0C-19.0 -256.0 -35.0 -407.0 -136.0 -520.0C-129.0 -523.0 -120.0 -530.0 -115.0 -537.0C-11.0 -422.0 6.0 -260.0 6.0 -142.0V5.0ZM337.0 -235.0 313.0 -245.0C381.0 -397.0 540.0 -481.0 750.0 -513.0C754.0 -504.0 760.0 -495.0 767.0 -489.0C557.0 -463.0 401.0 -381.0 337.0 -235.0ZM660.0 -273.0C603.0 -308.0 504.0 -359.0 435.0 -387.0L451.0 -403.0C522.0 -373.0 615.0 -329.0 680.0 -288.0ZM110.0 -508.0C125.0 -498.0 149.0 -492.0 391.0 -432.0C391.0 -427.0 389.0 -418.0 389.0 -411.0L130.0 -470.0L110.0 -486.0ZM110.0 -508.0C110.0 -495.0 150.0 -475.0 150.0 -475.0V-245.0L123.0 -244.0V-434.0C123.0 -467.0 105.0 -475.0 95.0 -479.0C101.0 -488.0 107.0 -500.0 110.0 -508.0Z"/></g>
<g fill="red" transform="translate(400 200) scale(0.1 -0.1)"><path d="M0.0 0.0V-105.0H698.0V0.0ZM9.0 -244.0V-336.0H739.0V-244.0ZM7.0 -130.0V-217.0H651.0V-130.0ZM-88.0 0.0V-154.0C-88.0 -256.0 -96.0 -394.0 -188.0 -491.0C-158.0 -509.0 -98.0 -564.0 -77.0 -592.0C33.0 -477.0 56.0 -287.0 56.0 -157.0V0.0ZM369.0 -269.0 258.0 -289.0C333.0 -464.0 456.0 -549.0 691.0 -580.0C706.0 -544.0 739.0 -491.0 766.0 -464.0C553.0 -449.0 427.0 -390.0 369.0 -269.0ZM600.0 -318.0C557.0 -344.0 484.0 -379.0 430.0 -398.0L506.0 -457.0C562.0 -442.0 636.0 -417.0 704.0 -388.0ZM119.0 -583.0C140.0 -568.0 176.0 -554.0 348.0 -511.0C345.0 -484.0 344.0 -435.0 346.0 -402.0L155.0 -443.0L108.0 -480.0ZM119.0 -583.0C119.0 -538.0 235.0 -441.0 235.0 -441.0V-291.0H106.0V-374.0C106.0 -430.0 75.0 -470.0 52.0 -490.0C73.0 -509.0 108.0 -556.0 119.0 -583.0Z"/></g>
<g fill="black" opacity=".8" transform="translate(400 200) scale(0.1 -0.1)"><path d="M0.0 0.0 -4.0 -108.0H687.0L693.0 -0.0ZM0.0 -252.0 -4.0 -347.0H740.0L744.0 -251.0ZM1.0 -136.0 -2.0 -227.0H637.0L641.0 -135.0ZM-76.0 4.0V-146.0C-76.0 -253.0 -84.0 -407.0 -176.0 -512.0C-144.0 -526.0 -85.0 -571.0 -61.0 -596.0C41.0 -477.0 61.0 -278.0 61.0 -147.0V4.0ZM374.0 -277.0 265.0 -302.0C343.0 -461.0 468.0 -541.0 690.0 -570.0C706.0 -537.0 740.0 -485.0 766.0 -458.0C563.0 -444.0 435.0 -387.0 374.0 -277.0ZM599.0 -323.0C560.0 -349.0 494.0 -384.0 444.0 -403.0L523.0 -458.0C576.0 -445.0 644.0 -419.0 709.0 -390.0ZM114.0 -579.0C136.0 -566.0 174.0 -555.0 358.0 -515.0C357.0 -489.0 358.0 -438.0 362.0 -402.0L155.0 -441.0L106.0 -477.0ZM113.0 -579.0C113.0 -533.0 234.0 -430.0 234.0 -430.0V-296.0L104.0 -295.0V-366.0C104.0 -421.0 71.0 -463.0 47.0 -484.0C67.0 -503.0 102.0 -553.0 113.0 -579.0Z"/></g>
<g fill="red" transform="translate(500 200) scale(0.1 -0.1)"><path d="M0.0 0.0V-29.0H662.0V0.0ZM0.0 -271.0V-300.0H736.0V-271.0ZM-1.0 -134.0V-163.0H599.0V-134.0ZM-16.0 0.0V-219.0C-16.0 -346.0 -31.0 -511.0 -140.0 -633.0C-133.0 -637.0 -122.0 -645.0 -117.0 -652.0C-5.0 -527.0 13.0 -350.0 13.0 -219.0V0.0ZM339.0 -284.0 312.0 -293.0C384.0 -472.0 546.0 -590.0 758.0 -636.0C763.0 -627.0 771.0 -616.0 778.0 -609.0C566.0 -569.0 407.0 -454.0 339.0 -284.0ZM644.0 -331.0C593.0 -371.0 502.0 -429.0 438.0 -462.0L456.0 -478.0C522.0 -447.0 609.0 -396.0 669.0 -349.0ZM100.0 -650.0C117.0 -640.0 145.0 -632.0 435.0 -561.0C434.0 -555.0 433.0 -545.0 433.0 -537.0L122.0 -605.0L100.0 -623.0ZM100.0 -650.0C100.0 -636.0 160.0 -605.0 160.0 -605.0V-293.0L129.0 -292.0V-559.0C129.0 -596.0 98.0 -613.0 83.0 -620.0C89.0 -628.0 98.0 -642.0 100.0 -650.0Z"/></g>
<g fill="black" opacity=".8" transform="translate(500 200) scale(0.1 -0.1)"><path d="M0.0 0.0 11.0 -30.0H688.0L677.0 -2.0ZM-1.0 -275.0 7.0 -303.0 745.0 -305.0 736.0 -276.0ZM0.0 -134.0 12.0 -163.0H628.0L617.0 -136.0ZM-14.0 -7.0V-227.0C-14.0 -353.0 -29.0 -518.0 -133.0 -640.0C-125.0 -644.0 -113.0 -652.0 -109.0 -659.0C-3.0 -535.0 15.0 -357.0 15.0 -227.0V-7.0ZM342.0 -283.0 314.0 -293.0C382.0 -474.0 538.0 -593.0 750.0 -638.0C756.0 -628.0 764.0 -617.0 771.0 -611.0C559.0 -572.0 405.0 -457.0 342.0 -283.0ZM656.0 -338.0C601.0 -377.0 504.0 -437.0 436.0 -469.0L455.0 -486.0C525.0 -454.0 616.0 -403.0 680.0 -357.0ZM108.0 -646.0C123.0 -636.0 148.0 -627.0 399.0 -556.0C398.0 -551.0 398.0 -540.0 398.0 -532.0L129.0 -600.0L108.0 -619.0ZM108.0 -646.0C108.0 -631.0 157.0 -607.0 157.0 -607.0V-298.0L126.0 -297.0V-560.0C126.0 -597.0 103.0 -609.0 91.0 -614.0C98.0 -623.0 105.0 -637.0 108.0 -646.0Z"/></g>
<g fill="red" transform="translate(600 200) scale(0.1 -0.1)"><path d="M0.0 0.0V-124.0H653.0V0.0ZM5.0 -293.0V-414.0H730.0V-293.0ZM11.0 -154.0V-265.0H610.0V-154.0ZM-67.0 0.0V-176.0C-67.0 -312.0 -76.0 -511.0 -190.0 -646.0C-152.0 -661.0 -86.0 -701.0 -58.0 -725.0C61.0 -577.0 83.0 -337.0 83.0 -177.0V0.0ZM397.0 -352.0 273.0 -379.0C347.0 -558.0 464.0 -662.0 679.0 -705.0C697.0 -668.0 734.0 -612.0 764.0 -584.0C571.0 -557.0 453.0 -479.0 397.0 -352.0ZM613.0 -392.0C574.0 -424.0 507.0 -467.0 459.0 -490.0L542.0 -564.0C592.0 -545.0 659.0 -513.0 720.0 -478.0ZM96.0 -725.0C119.0 -711.0 156.0 -701.0 353.0 -655.0C353.0 -624.0 357.0 -565.0 364.0 -527.0L137.0 -574.0L88.0 -615.0ZM96.0 -725.0C96.0 -673.0 235.0 -575.0 235.0 -575.0V-352.0H98.0V-483.0C98.0 -539.0 62.0 -578.0 37.0 -597.0C57.0 -625.0 87.0 -690.0 96.0 -725.0Z"/></g>
<g fill="black" opacity=".8" transform="translate(600 200) scale(0.1 -0.1)"><path d="M0.0 0.0 8.0 -118.0 679.0 -119.0 672.0 -1.0ZM-2.0 -293.0 4.0 -405.0 732.0 -406.0 725.0 -292.0ZM3.0 -150.0 12.0 -255.0H634.0L626.0 -150.0ZM-77.0 -6.0V-173.0C-77.0 -306.0 -85.0 -503.0 -187.0 -638.0C-152.0 -652.0 -88.0 -695.0 -61.0 -720.0C48.0 -571.0 69.0 -331.0 69.0 -173.0V-6.0ZM391.0 -343.0 269.0 -366.0C341.0 -559.0 457.0 -664.0 683.0 -706.0C700.0 -671.0 735.0 -615.0 763.0 -588.0C562.0 -563.0 446.0 -481.0 391.0 -343.0ZM609.0 -388.0C566.0 -424.0 493.0 -470.0 439.0 -496.0L522.0 -567.0C578.0 -544.0 653.0 -506.0 716.0 -467.0ZM102.0 -720.0C124.0 -706.0 163.0 -695.0 351.0 -649.0C350.0 -620.0 352.0 -564.0 358.0 -526.0L142.0 -574.0L93.0 -613.0ZM101.0 -720.0C101.0 -673.0 232.0 -582.0 232.0 -582.0V-360.0L98.0 -358.0V-499.0C98.0 -553.0 65.0 -588.0 41.0 -607.0C62.0 -631.0 92.0 -689.0 101.0 -720.0Z"/></g>
<g fill="red" transform="translate(700 200) scale(0.1 -0.1)"><path d="M0.0 0.0V-29.0H482.0V0.0ZM1.0 -340.0V-369.0H500.0V-340.0ZM-1.0 -162.0V-192.0H437.0V-162.0ZM-16.0 0.0V-296.0C-16.0 -451.0 -24.0 -665.0 -104.0 -822.0C-98.0 -826.0 -85.0 -834.0 -80.0 -839.0C2.0 -679.0 13.0 -454.0 13.0 -296.0V0.0ZM272.0 -350.0 246.0 -356.0C287.0 -564.0 371.0 -739.0 502.0 -821.0C507.0 -813.0 516.0 -803.0 524.0 -797.0C393.0 -725.0 310.0 -550.0 272.0 -350.0ZM465.0 -421.0C427.0 -463.0 359.0 -521.0 311.0 -556.0L330.0 -574.0C379.0 -539.0 442.0 -488.0 486.0 -439.0ZM112.0 -840.0C125.0 -828.0 146.0 -817.0 324.0 -734.0C322.0 -728.0 318.0 -716.0 317.0 -708.0L131.0 -790.0L112.0 -811.0ZM112.0 -840.0C112.0 -826.0 149.0 -794.0 149.0 -794.0V-354.0H120.0V-748.0C120.0 -788.0 103.0 -805.0 94.0 -812.0C99.0 -819.0 108.0 -833.0 112.0 -840.0Z"/></g>
<g fill="black" opacity=".8" transform="translate(700 200) scale(0.1 -0.1)"><path d="M0.0 0.0 6.0 -30.0 488.0 -28.0 482.0 -1.0ZM-4.0 -343.0 -6.0 -371.0 502.0 -372.0 503.0 -342.0ZM1.0 -164.0 8.0 -194.0H454.0L447.0 -165.0ZM-16.0 -2.0V-291.0C-16.0 -446.0 -23.0 -664.0 -96.0 -823.0C-89.0 -827.0 -75.0 -835.0 -71.0 -841.0C2.0 -677.0 12.0 -449.0 12.0 -290.0V-2.0ZM261.0 -354.0 236.0 -361.0C276.0 -567.0 360.0 -740.0 492.0 -820.0C497.0 -812.0 506.0 -802.0 513.0 -797.0C382.0 -726.0 299.0 -555.0 261.0 -354.0ZM466.0 -427.0C426.0 -470.0 354.0 -531.0 304.0 -566.0L323.0 -584.0C374.0 -546.0 440.0 -494.0 487.0 -443.0ZM109.0 -839.0C122.0 -827.0 141.0 -815.0 303.0 -733.0C301.0 -728.0 297.0 -717.0 296.0 -709.0L127.0 -789.0L109.0 -811.0ZM109.0 -839.0C109.0 -826.0 141.0 -798.0 141.0 -798.0V-358.0L112.0 -357.0V-752.0C112.0 -791.0 99.0 -804.0 91.0 -809.0C97.0 -818.0 105.0 -832.0 109.0 -839.0Z"/></g>
<g fill="red" transform="translate(800 200) scale(0.1 -0.1)"><path d="M0.0 0.0V-131.0H500.0V0.0ZM23.0 -331.0V-455.0H510.0V-331.0ZM15.0 -171.0V-294.0H452.0V-171.0ZM-80.0 0.0V-474.0C-80.0 -603.0 -84.0 -753.0 -149.0 -852.0C-115.0 -867.0 -53.0 -906.0 -27.0 -929.0C48.0 -818.0 59.0 -622.0 59.0 -474.0V0.0ZM333.0 -405.0 232.0 -426.0C267.0 -620.0 325.0 -799.0 434.0 -901.0C455.0 -865.0 499.0 -814.0 529.0 -789.0C427.0 -711.0 364.0 -560.0 333.0 -405.0ZM432.0 -470.0C403.0 -507.0 350.0 -560.0 313.0 -589.0L383.0 -660.0C424.0 -636.0 474.0 -597.0 530.0 -560.0ZM111.0 -923.0C131.0 -905.0 165.0 -885.0 322.0 -823.0C315.0 -794.0 308.0 -741.0 306.0 -704.0L134.0 -763.0L92.0 -804.0ZM111.0 -923.0C111.0 -876.0 223.0 -781.0 223.0 -781.0V-422.0H92.0V-714.0C92.0 -769.0 66.0 -809.0 43.0 -828.0C64.0 -848.0 99.0 -896.0 111.0 -923.0Z"/></g>
<g fill="black" opacity=".8" transform="translate(800 200) scale(0.1 -0.1)"><path d="M0.0 0.0 5.0 -126.0 512.0 -127.0 508.0 -1.0ZM27.0 -336.0 25.0 -457.0 519.0 -458.0V-336.0ZM23.0 -171.0 29.0 -291.0H470.0L465.0 -171.0ZM-81.0 -1.0V-462.0C-81.0 -594.0 -84.0 -752.0 -146.0 -857.0C-113.0 -870.0 -52.0 -909.0 -26.0 -932.0C45.0 -815.0 55.0 -611.0 55.0 -461.0V-1.0ZM328.0 -400.0 231.0 -421.0C268.0 -617.0 330.0 -798.0 442.0 -899.0C462.0 -865.0 505.0 -814.0 533.0 -789.0C429.0 -711.0 361.0 -558.0 328.0 -400.0ZM432.0 -468.0C405.0 -508.0 354.0 -564.0 317.0 -595.0L387.0 -661.0C428.0 -635.0 477.0 -592.0 532.0 -552.0ZM116.0 -918.0C136.0 -901.0 171.0 -881.0 321.0 -820.0C315.0 -794.0 307.0 -742.0 305.0 -706.0L140.0 -762.0L98.0 -801.0ZM116.0 -918.0C116.0 -875.0 224.0 -794.0 224.0 -794.0V-426.0L96.0 -425.0V-721.0C96.0 -771.0 74.0 -805.0 53.0 -822.0C73.0 -843.0 106.0 -892.0 116.0 -918.0Z"/></g>
<g fill="red" transform="translate(900 200) scale(0.1 -0.1)"><path d="M0.0 0.0V-29.0H737.0V0.0ZM33.0 -500.0H637.0V-619.0H33.0ZM3.0 -89.0V-118.0H651.0V-89.0ZM-15.0 0.0V-122.0C-15.0 -217.0 -33.0 -344.0 -128.0 -440.0C-121.0 -444.0 -110.0 -452.0 -105.0 -459.0C-6.0 -360.0 14.0 -223.0 14.0 -123.0V0.0ZM344.0 -191.0 319.0 -202.0C398.0 -316.0 574.0 -393.0 755.0 -423.0C759.0 -415.0 767.0 -404.0 774.0 -398.0C592.0 -372.0 420.0 -300.0 344.0 -191.0ZM668.0 -223.0C616.0 -250.0 525.0 -287.0 460.0 -308.0L478.0 -325.0C544.0 -304.0 630.0 -274.0 690.0 -240.0ZM110.0 -433.0C125.0 -423.0 151.0 -415.0 405.0 -353.0C404.0 -348.0 403.0 -337.0 403.0 -329.0L132.0 -389.0L110.0 -405.0ZM110.0 -433.0C110.0 -418.0 168.0 -389.0 168.0 -389.0V-196.0L139.0 -194.0V-343.0C139.0 -381.0 108.0 -397.0 94.0 -403.0C100.0 -411.0 107.0 -424.0 110.0 -433.0Z"/></g>
<g fill="black" opacity=".8" transform="translate(900 200) scale(0.1 -0.1)"><path d="M0.0 0.0V-30.0L735.0 -28.0L736.0 -1.0ZM33.0 -500.0 636.0 -499.0 637.0 -619.0 33.0 -618.0ZM3.0 -90.0 4.0 -119.0 650.0 -117.0V-90.0ZM-15.0 -0.0V-121.0C-15.0 -217.0 -33.0 -344.0 -129.0 -439.0C-120.0 -444.0 -110.0 -451.0 -105.0 -458.0C-7.0 -360.0 13.0 -223.0 13.0 -122.0V-0.0ZM343.0 -190.0 319.0 -202.0C398.0 -315.0 575.0 -392.0 754.0 -423.0C759.0 -414.0 768.0 -404.0 773.0 -399.0C592.0 -372.0 419.0 -300.0 343.0 -190.0ZM668.0 -223.0C616.0 -249.0 524.0 -288.0 461.0 -307.0L477.0 -326.0C543.0 -303.0 629.0 -274.0 689.0 -239.0ZM110.0 -434.0C126.0 -423.0 151.0 -415.0 406.0 -353.0C405.0 -349.0 404.0 -338.0 404.0 -330.0L132.0 -389.0L110.0 -406.0ZM110.0 -434.0C110.0 -419.0 168.0 -390.0 168.0 -390.0V-197.0L138.0 -194.0V-343.0C138.0 -382.0 107.0 -397.0 93.0 -402.0C101.0 -411.0 106.0 -424.0 110.0 -434.0Z"/></g>
<g fill="red" transform="translate(1000 200) scale(0.1 -0.1)"><path d="M0.0 0.0V-92.0H748.0V0.0ZM134.0 -601.0H549.0V-641.0H134.0ZM39.0 -116.0V-184.0H692.0V-116.0ZM-50.0 0.0V-130.0C-50.0 -220.0 -58.0 -341.0 -150.0 -428.0C-119.0 -444.0 -58.0 -491.0 -35.0 -515.0C69.0 -415.0 89.0 -251.0 89.0 -133.0V0.0ZM426.0 -245.0 315.0 -277.0C403.0 -402.0 544.0 -468.0 746.0 -493.0C762.0 -459.0 795.0 -408.0 822.0 -382.0C638.0 -369.0 495.0 -327.0 426.0 -245.0ZM652.0 -269.0C614.0 -290.0 548.0 -319.0 496.0 -337.0L599.0 -378.0C651.0 -362.0 714.0 -341.0 771.0 -310.0ZM129.0 -485.0C149.0 -474.0 184.0 -467.0 359.0 -438.0C360.0 -413.0 365.0 -367.0 372.0 -338.0L170.0 -366.0L123.0 -399.0ZM129.0 -485.0C129.0 -446.0 265.0 -394.0 265.0 -394.0V-253.0L131.0 -250.0V-328.0C131.0 -369.0 110.0 -384.0 90.0 -393.0C105.0 -411.0 124.0 -458.0 129.0 -485.0Z"/></g>
<g fill="black" opacity=".8" transform="translate(1000 200) scale(0.1 -0.1)"><path d="M0.0 0.0V-92.0L746.0 -93.0L748.0 -0.0ZM134.0 -602.0 549.0 -601.0 550.0 -642.0 134.0 -641.0ZM39.0 -116.0V-185.0H691.0V-116.0ZM-50.0 -1.0V-130.0C-50.0 -220.0 -57.0 -341.0 -150.0 -429.0C-119.0 -444.0 -58.0 -492.0 -34.0 -515.0C70.0 -416.0 90.0 -251.0 90.0 -132.0V-1.0ZM425.0 -245.0 315.0 -276.0C403.0 -402.0 544.0 -468.0 746.0 -492.0C762.0 -459.0 795.0 -408.0 821.0 -382.0C639.0 -370.0 495.0 -327.0 425.0 -245.0ZM652.0 -269.0C615.0 -290.0 549.0 -319.0 498.0 -336.0L599.0 -378.0C653.0 -362.0 715.0 -341.0 771.0 -310.0ZM129.0 -484.0C149.0 -474.0 185.0 -468.0 359.0 -437.0C360.0 -414.0 365.0 -367.0 372.0 -337.0L170.0 -367.0L123.0 -399.0ZM128.0 -484.0C128.0 -447.0 266.0 -394.0 266.0 -394.0V-254.0L131.0 -250.0V-327.0C131.0 -369.0 110.0 -384.0 90.0 -392.0C105.0 -410.0 124.0 -459.0 128.0 -484.0Z"/></g>
<g fill="red" transform="translate(1100 200) scale(0.1 -0.1)"><path d="M0.0 0.0V-29.0H446.0V0.0ZM-5.0 -340.0V-369.0H467.0V-340.0ZM5.0 -166.0V-196.0H429.0V-166.0ZM-10.0 0.0V-291.0C-10.0 -441.0 -16.0 -650.0 -78.0 -805.0C-71.0 -809.0 -58.0 -817.0 -53.0 -823.0C10.0 -663.0 19.0 -443.0 19.0 -291.0V0.0ZM233.0 -350.0 207.0 -356.0C246.0 -559.0 328.0 -733.0 454.0 -813.0C459.0 -805.0 469.0 -795.0 476.0 -789.0C350.0 -718.0 270.0 -546.0 233.0 -350.0ZM426.0 -421.0C388.0 -463.0 320.0 -521.0 272.0 -556.0L291.0 -574.0C340.0 -539.0 403.0 -488.0 447.0 -439.0ZM90.0 -843.0C102.0 -831.0 122.0 -820.0 276.0 -740.0C274.0 -735.0 270.0 -723.0 269.0 -715.0L107.0 -792.0L90.0 -814.0ZM90.0 -843.0C90.0 -830.0 127.0 -802.0 127.0 -802.0V-353.0H98.0V-756.0C98.0 -794.0 82.0 -808.0 72.0 -814.0C78.0 -822.0 87.0 -835.0 90.0 -843.0Z"/></g>
<g fill="black" opacity=".8" transform="translate(1100 200) scale(0.1 -0.1)"><path d="M0.0 0.0V-29.0L454.0 -28.0L455.0 -0.0ZM2.0 -340.0 9.0 -368.0 467.0 -370.0 459.0 -341.0ZM3.0 -164.0V-193.0L424.0 -192.0V-164.0ZM-9.0 -2.0V-304.0C-9.0 -452.0 -15.0 -657.0 -85.0 -807.0C-77.0 -811.0 -64.0 -819.0 -60.0 -824.0C10.0 -671.0 19.0 -454.0 19.0 -304.0V-2.0ZM247.0 -344.0 222.0 -350.0C258.0 -556.0 334.0 -733.0 459.0 -814.0C465.0 -806.0 473.0 -796.0 480.0 -790.0C357.0 -719.0 281.0 -544.0 247.0 -344.0ZM431.0 -419.0C395.0 -461.0 329.0 -522.0 284.0 -557.0L302.0 -574.0C349.0 -538.0 409.0 -486.0 452.0 -436.0ZM103.0 -841.0C115.0 -829.0 133.0 -817.0 286.0 -736.0C284.0 -731.0 281.0 -720.0 281.0 -712.0L119.0 -791.0L103.0 -813.0ZM103.0 -841.0C103.0 -828.0 136.0 -800.0 136.0 -800.0V-352.0H108.0V-755.0C108.0 -793.0 94.0 -806.0 85.0 -812.0C92.0 -820.0 99.0 -834.0 103.0 -841.0Z"/></g>
<g fill="red" transform="translate(1200 200) scale(0.1 -0.1)"><path d="M0.0 0.0V-122.0H471.0V0.0ZM44.0 -338.0V-462.0H489.0V-338.0ZM47.0 -168.0V-288.0H449.0V-168.0ZM-66.0 0.0V-417.0C-66.0 -555.0 -71.0 -731.0 -141.0 -848.0C-108.0 -861.0 -48.0 -896.0 -23.0 -917.0C55.0 -788.0 66.0 -572.0 66.0 -416.0V0.0ZM310.0 -395.0 216.0 -415.0C251.0 -613.0 309.0 -795.0 417.0 -896.0C437.0 -861.0 477.0 -812.0 504.0 -788.0C404.0 -709.0 342.0 -554.0 310.0 -395.0ZM413.0 -458.0C389.0 -500.0 344.0 -560.0 313.0 -593.0L376.0 -659.0C411.0 -630.0 454.0 -584.0 502.0 -542.0ZM110.0 -916.0C127.0 -900.0 158.0 -881.0 292.0 -825.0C286.0 -799.0 279.0 -750.0 279.0 -716.0L131.0 -768.0L94.0 -806.0ZM110.0 -916.0C110.0 -877.0 213.0 -824.0 213.0 -824.0V-418.0H97.0V-729.0C97.0 -769.0 81.0 -790.0 62.0 -801.0C81.0 -828.0 103.0 -885.0 110.0 -916.0Z"/></g>
<g fill="black" opacity=".8" transform="translate(1200 200) scale(0.1 -0.1)"><path d="M0.0 0.0 -1.0 -124.0 474.0 -125.0 476.0 -0.0ZM27.0 -333.0 32.0 -453.0 478.0 -454.0 472.0 -333.0ZM22.0 -167.0 23.0 -286.0 439.0 -287.0 440.0 -167.0ZM-70.0 -3.0V-427.0C-70.0 -561.0 -74.0 -729.0 -136.0 -842.0C-105.0 -854.0 -45.0 -888.0 -20.0 -909.0C50.0 -787.0 59.0 -577.0 59.0 -426.0V-3.0ZM314.0 -397.0 218.0 -416.0C249.0 -615.0 301.0 -794.0 409.0 -894.0C428.0 -861.0 468.0 -812.0 495.0 -789.0C398.0 -712.0 342.0 -558.0 314.0 -397.0ZM408.0 -460.0C380.0 -502.0 328.0 -560.0 292.0 -591.0L358.0 -661.0C399.0 -633.0 448.0 -586.0 498.0 -543.0ZM104.0 -916.0C123.0 -900.0 156.0 -882.0 295.0 -823.0C289.0 -798.0 283.0 -747.0 283.0 -711.0L127.0 -768.0L87.0 -806.0ZM104.0 -916.0C104.0 -876.0 209.0 -806.0 209.0 -806.0V-423.0H90.0V-730.0C90.0 -776.0 69.0 -804.0 49.0 -818.0C68.0 -840.0 96.0 -890.0 104.0 -916.0Z"/></g>
<g fill="red" transform="translate(1300 200) scale(0.1 -0.1)"><path d="M0.0 0.0V-30.0H733.0V0.0ZM-1.0 -355.0V-385.0H762.0V-355.0ZM0.0 -172.0V-201.0H671.0V-172.0ZM-15.0 0.0V-281.0C-15.0 -442.0 -26.0 -662.0 -132.0 -823.0C-124.0 -827.0 -112.0 -835.0 -107.0 -841.0C1.0 -676.0 14.0 -445.0 14.0 -281.0V0.0ZM358.0 -365.0 333.0 -373.0C396.0 -598.0 538.0 -753.0 753.0 -817.0C758.0 -808.0 766.0 -798.0 773.0 -792.0C558.0 -735.0 419.0 -582.0 358.0 -365.0ZM688.0 -436.0C631.0 -491.0 532.0 -570.0 459.0 -617.0L481.0 -634.0C554.0 -586.0 648.0 -514.0 714.0 -452.0ZM139.0 -833.0C154.0 -821.0 180.0 -811.0 429.0 -722.0C428.0 -716.0 426.0 -705.0 426.0 -697.0L159.0 -787.0L139.0 -807.0ZM139.0 -833.0C139.0 -820.0 176.0 -798.0 176.0 -798.0V-376.0H147.0V-752.0C147.0 -788.0 133.0 -798.0 123.0 -802.0C128.0 -811.0 136.0 -826.0 139.0 -833.0Z"/></g>
<g fill="black" opacity=".8" transform="translate(1300 200) scale(0.1 -0.1)"><path d="M0.0 0.0 -6.0 -35.0 722.0 -33.0 728.0 1.0ZM-1.0 -349.0 -2.0 -383.0 768.0 -384.0V-349.0ZM1.0 -171.0 -5.0 -206.0 663.0 -204.0 670.0 -170.0ZM-15.0 1.0V-281.0C-15.0 -443.0 -28.0 -661.0 -137.0 -821.0C-128.0 -826.0 -114.0 -835.0 -109.0 -843.0C2.0 -678.0 19.0 -447.0 19.0 -281.0V1.0ZM369.0 -358.0 338.0 -367.0C404.0 -592.0 554.0 -754.0 767.0 -823.0C774.0 -813.0 783.0 -801.0 792.0 -793.0C579.0 -734.0 431.0 -574.0 369.0 -358.0ZM688.0 -429.0C630.0 -477.0 527.0 -547.0 455.0 -586.0L477.0 -607.0C551.0 -566.0 647.0 -506.0 715.0 -449.0ZM133.0 -839.0C149.0 -826.0 177.0 -815.0 428.0 -727.0C427.0 -720.0 425.0 -708.0 424.0 -698.0L156.0 -785.0L132.0 -808.0ZM133.0 -839.0C133.0 -823.0 180.0 -793.0 180.0 -793.0V-372.0L145.0 -371.0V-739.0C145.0 -783.0 125.0 -797.0 113.0 -803.0C120.0 -814.0 129.0 -830.0 133.0 -839.0Z"/></g>
<g fill="red" transform="translate(1400 200) scale(0.1 -0.1)"><path d="M0.0 0.0V-142.0H752.0V0.0ZM-6.0 -370.0V-503.0H773.0V-370.0ZM-3.0 -190.0V-322.0H691.0V-190.0ZM-85.0 0.0V-318.0C-85.0 -476.0 -91.0 -702.0 -173.0 -852.0C-135.0 -866.0 -66.0 -904.0 -36.0 -928.0C53.0 -763.0 67.0 -494.0 67.0 -318.0V0.0ZM434.0 -421.0 306.0 -451.0C378.0 -671.0 492.0 -824.0 702.0 -900.0C722.0 -861.0 765.0 -802.0 797.0 -773.0C605.0 -718.0 489.0 -589.0 434.0 -421.0ZM634.0 -487.0C589.0 -536.0 514.0 -599.0 456.0 -636.0L554.0 -707.0C614.0 -675.0 692.0 -622.0 763.0 -570.0ZM134.0 -921.0C162.0 -903.0 207.0 -886.0 418.0 -835.0C414.0 -801.0 414.0 -740.0 418.0 -697.0L179.0 -747.0L120.0 -792.0ZM134.0 -921.0C134.0 -869.0 268.0 -763.0 268.0 -763.0V-463.0H118.0V-691.0C118.0 -748.0 84.0 -791.0 57.0 -813.0C81.0 -835.0 121.0 -890.0 134.0 -921.0Z"/></g>
<g fill="black" opacity=".8" transform="translate(1400 200) scale(0.1 -0.1)"><path d="M0.0 0.0 -5.0 -146.0H731.0L737.0 -0.0ZM15.0 -362.0V-498.0L770.0 -499.0V-362.0ZM14.0 -188.0 10.0 -321.0H680.0L684.0 -188.0ZM-88.0 0.0V-334.0C-88.0 -487.0 -95.0 -695.0 -195.0 -836.0C-156.0 -852.0 -82.0 -902.0 -51.0 -930.0C59.0 -774.0 79.0 -513.0 79.0 -334.0V0.0ZM433.0 -420.0 302.0 -447.0C372.0 -674.0 484.0 -832.0 697.0 -910.0C719.0 -868.0 764.0 -805.0 797.0 -774.0C604.0 -720.0 489.0 -591.0 433.0 -420.0ZM638.0 -486.0C595.0 -529.0 519.0 -588.0 464.0 -620.0L555.0 -700.0C614.0 -673.0 691.0 -627.0 762.0 -581.0ZM134.0 -931.0C160.0 -913.0 203.0 -895.0 406.0 -835.0C402.0 -801.0 400.0 -737.0 403.0 -694.0L174.0 -753.0L119.0 -800.0ZM134.0 -931.0C134.0 -877.0 276.0 -771.0 276.0 -771.0V-449.0L121.0 -448.0V-680.0C121.0 -743.0 86.0 -786.0 59.0 -807.0C83.0 -834.0 122.0 -897.0 134.0 -931.0Z"/></g>
<g fill="red" transform="translate(1500 200) scale(0.1 -0.1)"><path d="M0.0 0.0H634.0V-90.0H0.0ZM-24.0 -307.0V-337.0H735.0V-307.0ZM0.0 -119.0H634.0V-211.0H0.0ZM-41.0 -307.0V-434.0C-41.0 -535.0 -55.0 -675.0 -137.0 -780.0C-129.0 -783.0 -118.0 -791.0 -112.0 -797.0C-29.0 -689.0 -11.0 -540.0 -11.0 -435.0V-307.0ZM302.0 -522.0 277.0 -532.0C345.0 -675.0 515.0 -766.0 736.0 -793.0C741.0 -783.0 750.0 -770.0 758.0 -762.0C537.0 -740.0 368.0 -654.0 302.0 -522.0ZM645.0 -563.0C588.0 -594.0 488.0 -641.0 418.0 -665.0L437.0 -682.0C508.0 -658.0 603.0 -619.0 669.0 -583.0ZM76.0 -794.0C91.0 -784.0 116.0 -777.0 369.0 -710.0C368.0 -704.0 367.0 -694.0 367.0 -687.0L96.0 -749.0L76.0 -767.0ZM76.0 -794.0C76.0 -780.0 136.0 -749.0 136.0 -749.0V-531.0L104.0 -529.0V-703.0C104.0 -741.0 74.0 -758.0 58.0 -764.0C64.0 -773.0 73.0 -786.0 76.0 -794.0Z"/></g>
<g fill="black" opacity=".8" transform="translate(1500 200) scale(0.1 -0.1)"><path d="M0.0 0.0 634.0 -1.0 632.0 -89.0 -1.0 -90.0ZM-24.0 -307.0 -25.0 -337.0H735.0V-306.0ZM1.0 -119.0H634.0L632.0 -210.0L-1.0 -211.0ZM-42.0 -307.0V-434.0C-42.0 -535.0 -55.0 -675.0 -138.0 -779.0C-130.0 -783.0 -118.0 -791.0 -112.0 -796.0C-30.0 -689.0 -11.0 -540.0 -11.0 -434.0V-307.0ZM301.0 -521.0 277.0 -532.0C345.0 -674.0 516.0 -765.0 736.0 -793.0C742.0 -783.0 751.0 -770.0 758.0 -762.0C538.0 -740.0 368.0 -654.0 301.0 -521.0ZM645.0 -563.0C588.0 -593.0 487.0 -641.0 418.0 -665.0L437.0 -682.0C507.0 -657.0 602.0 -619.0 668.0 -582.0ZM76.0 -795.0C92.0 -784.0 116.0 -777.0 370.0 -710.0C369.0 -704.0 368.0 -695.0 368.0 -687.0L96.0 -750.0L77.0 -768.0ZM76.0 -795.0C76.0 -781.0 136.0 -749.0 136.0 -749.0V-531.0L104.0 -529.0V-702.0C104.0 -742.0 73.0 -757.0 57.0 -763.0C64.0 -773.0 73.0 -786.0 76.0 -795.0Z"/></g>
<g fill="red" transform="translate(1600 200) scale(0.1 -0.1)"><path d="M0.0 0.0H494.0V-25.0H0.0ZM-67.0 -237.0V-337.0H663.0V-237.0ZM0.0 -105.0H494.0V-130.0H0.0ZM-138.0 -237.0V-367.0C-138.0 -473.0 -146.0 -627.0 -236.0 -736.0C-202.0 -750.0 -139.0 -787.0 -113.0 -808.0C-18.0 -688.0 0.0 -499.0 0.0 -369.0V-237.0ZM331.0 -497.0 216.0 -519.0C292.0 -688.0 416.0 -773.0 645.0 -804.0C660.0 -770.0 693.0 -718.0 719.0 -692.0C514.0 -675.0 388.0 -615.0 331.0 -497.0ZM583.0 -529.0C541.0 -556.0 469.0 -594.0 418.0 -613.0L485.0 -680.0C541.0 -666.0 611.0 -642.0 682.0 -614.0ZM30.0 -817.0C53.0 -804.0 89.0 -796.0 294.0 -755.0C292.0 -728.0 292.0 -676.0 295.0 -643.0L70.0 -682.0L25.0 -720.0ZM30.0 -817.0C30.0 -772.0 166.0 -709.0 166.0 -709.0V-503.0L31.0 -499.0V-631.0C31.0 -676.0 11.0 -695.0 -9.0 -705.0C7.0 -728.0 26.0 -785.0 30.0 -817.0Z"/></g>
<g fill="black" opacity=".8" transform="translate(1600 200) scale(0.1 -0.1)"><path d="M0.0 0.0H493.0V-25.0L-1.0 -26.0ZM-67.0 -238.0V-336.0L663.0 -337.0L662.0 -237.0ZM-0.0 -105.0 494.0 -106.0 493.0 -130.0H-1.0ZM-137.0 -237.0V-367.0C-137.0 -473.0 -145.0 -627.0 -236.0 -737.0C-203.0 -750.0 -139.0 -787.0 -112.0 -809.0C-17.0 -689.0 1.0 -499.0 1.0 -368.0V-237.0ZM331.0 -498.0 217.0 -518.0C292.0 -688.0 415.0 -773.0 644.0 -803.0C660.0 -770.0 693.0 -718.0 719.0 -691.0C515.0 -675.0 389.0 -616.0 331.0 -498.0ZM583.0 -529.0C541.0 -556.0 469.0 -594.0 418.0 -612.0L485.0 -680.0C542.0 -666.0 612.0 -642.0 682.0 -614.0ZM29.0 -817.0C52.0 -805.0 89.0 -797.0 294.0 -754.0C292.0 -729.0 292.0 -676.0 295.0 -642.0L70.0 -682.0L25.0 -720.0ZM29.0 -817.0C29.0 -772.0 167.0 -709.0 167.0 -709.0V-503.0L31.0 -499.0V-630.0C31.0 -675.0 11.0 -695.0 -9.0 -705.0C7.0 -728.0 26.0 -785.0 29.0 -817.0Z"/></g>
<g fill="red" transform="translate(100 300) scale(0.1 -0.1)"><path d="M0.0 0.0V-30.0H402.0V0.0ZM-2.0 -319.0V-348.0H414.0V-319.0ZM-1.0 -158.0V-188.0H366.0V-158.0ZM-12.0 0.0V-355.0C-12.0 -495.0 -17.0 -685.0 -80.0 -823.0C-73.0 -826.0 -60.0 -834.0 -56.0 -839.0C9.0 -699.0 17.0 -498.0 17.0 -355.0V0.0ZM219.0 -331.0 192.0 -336.0C222.0 -545.0 284.0 -733.0 397.0 -815.0C403.0 -807.0 413.0 -796.0 421.0 -790.0C310.0 -718.0 246.0 -532.0 219.0 -331.0ZM368.0 -418.0C337.0 -456.0 281.0 -512.0 241.0 -545.0L261.0 -563.0C301.0 -532.0 354.0 -483.0 392.0 -438.0ZM78.0 -833.0C87.0 -823.0 103.0 -811.0 227.0 -732.0C226.0 -726.0 225.0 -715.0 226.0 -705.0L93.0 -780.0L77.0 -803.0ZM78.0 -833.0C78.0 -820.0 112.0 -792.0 112.0 -792.0V-336.0H83.0V-746.0C83.0 -784.0 69.0 -798.0 60.0 -804.0C66.0 -812.0 75.0 -826.0 78.0 -833.0Z"/></g>
<g fill="black" opacity=".8" transform="translate(100 300) scale(0.1 -0.1)"><path d="M0.0 0.0 -4.0 -29.0 387.0 -28.0 391.0 0.0ZM-4.0 -319.0 -11.0 -347.0 407.0 -346.0 414.0 -317.0ZM-1.0 -160.0 -4.0 -188.0 353.0 -187.0 357.0 -159.0ZM-14.0 3.0V-346.0C-14.0 -488.0 -18.0 -679.0 -82.0 -818.0C-74.0 -821.0 -61.0 -828.0 -58.0 -834.0C6.0 -692.0 13.0 -489.0 13.0 -346.0V3.0ZM209.0 -334.0 184.0 -340.0C216.0 -546.0 281.0 -730.0 394.0 -812.0C401.0 -804.0 410.0 -794.0 417.0 -788.0C305.0 -716.0 238.0 -534.0 209.0 -334.0ZM360.0 -416.0C331.0 -457.0 277.0 -517.0 240.0 -551.0L259.0 -568.0C297.0 -535.0 347.0 -482.0 383.0 -434.0ZM72.0 -835.0C82.0 -825.0 99.0 -813.0 245.0 -734.0C243.0 -729.0 242.0 -720.0 242.0 -710.0L87.0 -784.0L71.0 -806.0ZM72.0 -835.0C72.0 -823.0 110.0 -794.0 110.0 -794.0V-336.0L81.0 -335.0V-749.0C81.0 -786.0 64.0 -801.0 54.0 -807.0C61.0 -814.0 69.0 -828.0 72.0 -835.0Z"/></g>
<g fill="red" transform="translate(200 300) scale(0.1 -0.1)"><path d="M0.0 0.0V-118.0H406.0V0.0ZM0.0 -296.0V-418.0H406.0V-296.0ZM5.0 -149.0V-265.0H370.0V-149.0ZM-80.0 0.0V-371.0C-80.0 -514.0 -84.0 -708.0 -147.0 -839.0C-118.0 -851.0 -63.0 -882.0 -40.0 -902.0C30.0 -759.0 40.0 -529.0 40.0 -370.0V0.0ZM277.0 -400.0 177.0 -410.0C195.0 -626.0 228.0 -801.0 338.0 -895.0C354.0 -864.0 389.0 -819.0 415.0 -798.0C323.0 -727.0 291.0 -572.0 277.0 -400.0ZM352.0 -451.0C319.0 -499.0 261.0 -560.0 223.0 -595.0L283.0 -673.0C323.0 -637.0 380.0 -583.0 420.0 -534.0ZM62.0 -905.0C77.0 -889.0 106.0 -874.0 227.0 -816.0C222.0 -791.0 218.0 -743.0 219.0 -712.0L79.0 -772.0L45.0 -808.0ZM62.0 -905.0C62.0 -870.0 158.0 -820.0 158.0 -820.0V-408.0H54.0V-739.0C54.0 -779.0 37.0 -798.0 20.0 -808.0C36.0 -830.0 56.0 -878.0 62.0 -905.0Z"/></g>
<g fill="black" opacity=".8" transform="translate(200 300) scale(0.1 -0.1)"><path d="M0.0 0.0 -4.0 -119.0H396.0L399.0 0.0ZM2.0 -302.0 -2.0 -427.0H410.0L414.0 -301.0ZM11.0 -153.0 9.0 -272.0 362.0 -271.0 366.0 -153.0ZM-72.0 3.0V-363.0C-72.0 -511.0 -76.0 -715.0 -143.0 -853.0C-113.0 -862.0 -57.0 -889.0 -32.0 -907.0C37.0 -761.0 46.0 -524.0 46.0 -362.0V3.0ZM278.0 -405.0 181.0 -417.0C201.0 -623.0 237.0 -797.0 340.0 -891.0C356.0 -861.0 392.0 -816.0 417.0 -794.0C331.0 -723.0 296.0 -569.0 278.0 -405.0ZM353.0 -454.0C325.0 -501.0 273.0 -562.0 239.0 -596.0L299.0 -672.0C336.0 -638.0 387.0 -585.0 424.0 -536.0ZM60.0 -903.0C76.0 -889.0 106.0 -875.0 231.0 -819.0C227.0 -795.0 224.0 -745.0 226.0 -713.0L79.0 -772.0L45.0 -807.0ZM60.0 -903.0C60.0 -868.0 160.0 -820.0 160.0 -820.0V-408.0L55.0 -407.0V-732.0C55.0 -771.0 38.0 -789.0 21.0 -798.0C37.0 -823.0 55.0 -875.0 60.0 -903.0Z"/></g>
<g fill="red" transform="translate(300 300) scale(0.1 -0.1)"><path d="M0.0 0.0V-29.0H274.0V0.0ZM-347.0 -159.0V-188.0H302.0V-159.0ZM-327.0 0.0V-29.0H-71.0V0.0ZM-477.0 255.0V-93.0C-477.0 -231.0 -484.0 -416.0 -557.0 -551.0C-549.0 -555.0 -537.0 -563.0 -532.0 -569.0C-458.0 -431.0 -448.0 -235.0 -448.0 -92.0V255.0ZM-73.0 -336.0 -98.0 -348.0C-16.0 -448.0 160.0 -520.0 329.0 -550.0C333.0 -541.0 342.0 -529.0 349.0 -523.0C179.0 -499.0 6.0 -430.0 -73.0 -336.0ZM228.0 -361.0C188.0 -388.0 117.0 -427.0 67.0 -450.0L87.0 -469.0C137.0 -447.0 203.0 -416.0 251.0 -379.0ZM-351.0 -123.0C-336.0 -117.0 -310.0 -113.0 -66.0 -85.0C-66.0 -79.0 -65.0 -68.0 -64.0 -60.0L-327.0 -86.0L-351.0 -99.0ZM-351.0 -123.0C-351.0 -109.0 -312.0 -89.0 -312.0 -89.0V62.0H-341.0V-43.0C-341.0 -78.0 -357.0 -88.0 -367.0 -92.0C-361.0 -101.0 -354.0 -115.0 -351.0 -123.0Z"/></g>
<g fill="black" opacity=".8" transform="translate(300 300) scale(0.1 -0.1)"><path d="M0.0 0.0 1.0 -31.0 273.0 -28.0 274.0 -0.0ZM-347.0 -159.0V-187.0L302.0 -189.0V-159.0ZM-327.0 0.0 -326.0 -30.0 -72.0 -29.0 -71.0 -1.0ZM-477.0 254.0V-93.0C-477.0 -232.0 -484.0 -416.0 -558.0 -551.0C-549.0 -555.0 -537.0 -563.0 -532.0 -569.0C-459.0 -432.0 -448.0 -235.0 -448.0 -92.0V254.0ZM-73.0 -335.0 -98.0 -348.0C-16.0 -447.0 161.0 -520.0 328.0 -550.0C333.0 -541.0 343.0 -529.0 349.0 -523.0C180.0 -499.0 6.0 -430.0 -73.0 -335.0ZM228.0 -360.0C188.0 -387.0 116.0 -428.0 68.0 -449.0L86.0 -469.0C137.0 -447.0 202.0 -416.0 250.0 -379.0ZM-350.0 -124.0C-335.0 -118.0 -310.0 -113.0 -67.0 -85.0C-67.0 -79.0 -66.0 -69.0 -65.0 -60.0L-327.0 -86.0L-350.0 -99.0ZM-350.0 -124.0C-350.0 -109.0 -312.0 -90.0 -312.0 -90.0V61.0L-341.0 62.0V-42.0C-341.0 -79.0 -358.0 -87.0 -368.0 -91.0C-360.0 -102.0 -354.0 -115.0 -350.0 -124.0Z"/></g>
<g fill="red" transform="translate(400 300) scale(0.1 -0.1)"><path d="M0.0 0.0V-66.0H253.0V0.0ZM-344.0 -189.0V-262.0H269.0V-189.0ZM-337.0 0.0V-66.0H-102.0V0.0ZM-553.0 290.0V-52.0C-553.0 -202.0 -559.0 -407.0 -639.0 -545.0C-610.0 -558.0 -555.0 -596.0 -533.0 -617.0C-442.0 -466.0 -428.0 -218.0 -428.0 -52.0V290.0ZM4.0 -388.0 -98.0 -404.0C-36.0 -524.0 72.0 -580.0 259.0 -598.0C273.0 -567.0 301.0 -523.0 324.0 -500.0C160.0 -494.0 52.0 -463.0 4.0 -388.0ZM159.0 -425.0C134.0 -446.0 91.0 -477.0 58.0 -497.0L137.0 -535.0C172.0 -518.0 215.0 -496.0 257.0 -467.0ZM-378.0 -195.0C-357.0 -185.0 -322.0 -179.0 -109.0 -159.0C-109.0 -141.0 -105.0 -105.0 -99.0 -82.0L-336.0 -99.0L-381.0 -127.0ZM-378.0 -195.0C-378.0 -162.0 -281.0 -110.0 -281.0 -110.0V50.0H-389.0V-36.0C-389.0 -76.0 -402.0 -94.0 -418.0 -103.0C-403.0 -124.0 -384.0 -170.0 -378.0 -195.0Z"/></g>
<g fill="black" opacity=".8" transform="translate(400 300) scale(0.1 -0.1)"><path d="M0.0 0.0V-66.0H252.0L254.0 -1.0ZM-344.0 -190.0V-261.0L270.0 -262.0L268.0 -189.0ZM-338.0 0.0 -337.0 -66.0H-102.0V1.0ZM-553.0 289.0V-53.0C-553.0 -202.0 -559.0 -407.0 -639.0 -546.0C-611.0 -557.0 -555.0 -596.0 -532.0 -617.0C-442.0 -467.0 -429.0 -218.0 -429.0 -52.0V289.0ZM3.0 -388.0 -98.0 -403.0C-36.0 -524.0 72.0 -580.0 259.0 -597.0C272.0 -567.0 301.0 -523.0 323.0 -500.0C160.0 -495.0 53.0 -464.0 3.0 -388.0ZM159.0 -425.0C134.0 -445.0 90.0 -477.0 58.0 -496.0L135.0 -534.0C173.0 -518.0 215.0 -496.0 257.0 -467.0ZM-378.0 -195.0C-357.0 -185.0 -321.0 -180.0 -109.0 -158.0C-109.0 -142.0 -105.0 -105.0 -100.0 -80.0L-336.0 -100.0L-380.0 -128.0ZM-378.0 -195.0C-378.0 -162.0 -280.0 -110.0 -280.0 -110.0V49.0L-389.0 50.0V-35.0C-389.0 -76.0 -402.0 -95.0 -417.0 -103.0C-403.0 -124.0 -385.0 -171.0 -378.0 -195.0Z"/></g>
</svg>
