<?xml version="1.0" encoding="UTF-8"?>
<svg width="1700" height="300" xmlns="http://www.w3.org/2000/svg">
<rect width="100%" height="100%" fill="white"/>
<g fill="green" transform="translate(100 100) scale(0.1 -0.1)"><path d="M-0.0 0.0V-37.0H940.0V0.0ZM178.0 314.0V277.0H788.0V314.0ZM178.0 159.0V120.0H788.0V159.0ZM443.0 -8.0 408.0 -20.0C496.0 -224.0 686.0 -361.0 920.0 -421.0C926.0 -409.0 938.0 -395.0 946.0 -386.0C711.0 -335.0 525.0 -202.0 443.0 -8.0ZM812.0 -56.0C754.0 -110.0 652.0 -182.0 578.0 -228.0L605.0 -251.0C681.0 -204.0 772.0 -140.0 841.0 -75.0ZM160.0 471.0V-19.0H197.0V432.0H833.0V471.0ZM120.0 -417.0C138.0 -401.0 172.0 -389.0 496.0 -287.0C495.0 -280.0 492.0 -266.0 492.0 -255.0L147.0 -358.0L120.0 -382.0ZM139.0 -21.0V-311.0C139.0 -358.0 115.0 -370.0 99.0 -376.0C107.0 -388.0 115.0 -405.0 120.0 -417.0L178.0 -370.0V-21.0Z"/></g>
<g fill="green" transform="translate(200 100) scale(0.1 -0.1)"><path d="M0.0 0.0V-139.0H910.0V0.0ZM230.0 297.0V182.0H776.0V297.0ZM230.0 148.0V31.0H776.0V148.0ZM480.0 -62.0 337.0 -95.0C425.0 -306.0 567.0 -440.0 813.0 -497.0C834.0 -455.0 880.0 -389.0 915.0 -355.0C693.0 -318.0 548.0 -216.0 480.0 -62.0ZM750.0 -101.0C694.0 -146.0 600.0 -207.0 531.0 -240.0L635.0 -325.0C706.0 -295.0 800.0 -247.0 880.0 -196.0ZM103.0 461.0V-86.0H280.0V328.0H813.0V461.0ZM97.0 -488.0C130.0 -467.0 182.0 -449.0 423.0 -397.0C420.0 -356.0 420.0 -282.0 426.0 -232.0L155.0 -280.0L82.0 -336.0ZM83.0 -52.0V-204.0C83.0 -258.0 48.0 -296.0 17.0 -314.0C46.0 -355.0 85.0 -445.0 97.0 -488.0L261.0 -340.0V-52.0Z"/></g>
<g fill="green" transform="translate(300 100) scale(0.1 -0.1)"><path d="M0.0 0.0V-29.0H711.0V0.0ZM130.0 238.0V209.0H593.0V238.0ZM130.0 120.0V90.0H593.0V120.0ZM336.0 -6.0 309.0 -15.0C375.0 -168.0 518.0 -271.0 692.0 -317.0C697.0 -308.0 706.0 -297.0 713.0 -290.0C538.0 -251.0 398.0 -151.0 336.0 -6.0ZM609.0 -41.0C567.0 -82.0 493.0 -137.0 439.0 -172.0L460.0 -190.0C515.0 -154.0 581.0 -106.0 631.0 -56.0ZM116.0 356.0V-15.0H145.0V326.0H628.0V356.0ZM85.0 -312.0C99.0 -300.0 125.0 -291.0 365.0 -214.0C364.0 -208.0 362.0 -197.0 362.0 -189.0L106.0 -267.0L85.0 -285.0ZM98.0 -17.0V-232.0C98.0 -268.0 81.0 -276.0 69.0 -280.0C75.0 -289.0 81.0 -303.0 85.0 -312.0L128.0 -278.0V-17.0Z"/></g>
<g fill="green" transform="translate(400 100) scale(0.1 -0.1)"><path d="M0.0 0.0V-106.0H680.0V0.0ZM170.0 223.0V136.0H580.0V223.0ZM170.0 111.0V23.0H580.0V111.0ZM353.0 -51.0 245.0 -76.0C311.0 -232.0 420.0 -332.0 603.0 -375.0C619.0 -343.0 654.0 -293.0 681.0 -267.0C515.0 -240.0 405.0 -164.0 353.0 -51.0ZM557.0 -75.0C515.0 -109.0 443.0 -155.0 391.0 -179.0L470.0 -244.0C524.0 -222.0 595.0 -186.0 656.0 -148.0ZM68.0 347.0V-70.0H205.0V245.0H609.0V347.0ZM66.0 -366.0C91.0 -350.0 131.0 -335.0 311.0 -295.0C308.0 -263.0 308.0 -206.0 312.0 -167.0L110.0 -203.0L54.0 -247.0ZM54.0 -34.0V-145.0C54.0 -187.0 27.0 -218.0 3.0 -232.0C25.0 -263.0 56.0 -333.0 66.0 -366.0L192.0 -250.0V-34.0Z"/></g>
<g fill="green" transform="translate(500 100) scale(0.1 -0.1)"><path d="M-0.0 0.0V-29.0H883.0V0.0ZM201.0 293.0V264.0H758.0V293.0ZM201.0 148.0V119.0H758.0V148.0ZM407.0 -7.0 381.0 -17.0C466.0 -218.0 650.0 -351.0 890.0 -402.0C894.0 -394.0 902.0 -383.0 908.0 -376.0C667.0 -331.0 487.0 -202.0 407.0 -7.0ZM799.0 -59.0C732.0 -110.0 613.0 -178.0 529.0 -219.0L551.0 -236.0C637.0 -195.0 747.0 -132.0 824.0 -74.0ZM185.0 441.0V-12.0H215.0V412.0H793.0V441.0ZM151.0 -412.0C169.0 -399.0 198.0 -390.0 536.0 -293.0C535.0 -287.0 534.0 -276.0 533.0 -268.0L173.0 -365.0L151.0 -385.0ZM180.0 -12.0V-317.0C180.0 -357.0 148.0 -376.0 132.0 -384.0C139.0 -392.0 147.0 -404.0 151.0 -412.0L210.0 -363.0V-12.0Z"/></g>
<g fill="green" transform="translate(600 100) scale(0.1 -0.1)"><path d="M0.0 0.0V-127.0H914.0V0.0ZM243.0 291.0V180.0H779.0V291.0ZM243.0 146.0V35.0H779.0V146.0ZM521.0 -29.0 387.0 -60.0C469.0 -282.0 595.0 -417.0 843.0 -475.0C862.0 -436.0 903.0 -375.0 935.0 -344.0C711.0 -304.0 582.0 -196.0 521.0 -29.0ZM774.0 -102.0C722.0 -149.0 636.0 -208.0 571.0 -242.0L667.0 -317.0C733.0 -286.0 819.0 -236.0 891.0 -184.0ZM163.0 445.0V-46.0H312.0V327.0H804.0V445.0ZM145.0 -477.0C173.0 -463.0 219.0 -453.0 458.0 -407.0C458.0 -376.0 464.0 -315.0 472.0 -277.0L194.0 -324.0L135.0 -366.0ZM138.0 -86.0V-255.0C138.0 -296.0 111.0 -321.0 86.0 -334.0C109.0 -369.0 137.0 -445.0 145.0 -480.0L281.0 -369.0V-86.0Z"/></g>
<g fill="red" transform="translate(100 200) scale(0.1 -0.1)"><path d="M0.0 0.0V-29.0H711.0V0.0ZM130.0 238.0V209.0H593.0V238.0ZM130.0 120.0V90.0H593.0V120.0ZM336.0 -6.0 309.0 -15.0C375.0 -168.0 518.0 -271.0 692.0 -317.0C697.0 -308.0 706.0 -297.0 713.0 -290.0C538.0 -251.0 398.0 -151.0 336.0 -6.0ZM609.0 -41.0C567.0 -82.0 493.0 -137.0 439.0 -172.0L460.0 -190.0C515.0 -154.0 581.0 -106.0 631.0 -56.0ZM116.0 356.0V-15.0H145.0V326.0H628.0V356.0ZM85.0 -312.0C99.0 -300.0 125.0 -291.0 365.0 -214.0C364.0 -208.0 362.0 -197.0 362.0 -189.0L106.0 -267.0L85.0 -285.0ZM98.0 -17.0V-232.0C98.0 -268.0 81.0 -276.0 69.0 -280.0C75.0 -289.0 81.0 -303.0 85.0 -312.0L128.0 -278.0V-17.0Z"/></g>
<g fill="black" opacity=".8" transform="translate(100 200) scale(0.1 -0.1)"><path d="M0.0 0.0V-29.0H711.0V0.0ZM130.0 238.0V209.0H593.0V238.0ZM130.0 120.0V90.0H593.0V120.0ZM336.0 -6.0 309.0 -15.0C375.0 -168.0 518.0 -271.0 692.0 -317.0C697.0 -308.0 706.0 -297.0 713.0 -290.0C538.0 -251.0 398.0 -151.0 336.0 -6.0ZM609.0 -41.0C567.0 -82.0 493.0 -137.0 439.0 -172.0L460.0 -190.0C515.0 -154.0 581.0 -106.0 631.0 -56.0ZM116.0 356.0V-15.0H145.0V326.0H628.0V356.0ZM85.0 -312.0C99.0 -300.0 125.0 -291.0 365.0 -214.0C364.0 -208.0 362.0 -197.0 362.0 -189.0L106.0 -267.0L85.0 -285.0ZM98.0 -17.0V-232.0C98.0 -268.0 81.0 -276.0 69.0 -280.0C75.0 -289.0 81.0 -303.0 85.0 -312.0L128.0 -278.0V-17.0Z"/></g>
<g fill="red" transform="translate(200 200) scale(0.1 -0.1)"><path d="M0.0 0.0V-106.0H680.0V0.0ZM170.0 223.0V136.0H580.0V223.0ZM170.0 111.0V23.0H580.0V111.0ZM353.0 -51.0 245.0 -76.0C311.0 -232.0 420.0 -332.0 603.0 -375.0C619.0 -343.0 654.0 -293.0 681.0 -267.0C515.0 -240.0 405.0 -164.0 353.0 -51.0ZM557.0 -75.0C515.0 -109.0 443.0 -155.0 391.0 -179.0L470.0 -244.0C524.0 -222.0 595.0 -186.0 656.0 -148.0ZM68.0 347.0V-70.0H205.0V245.0H609.0V347.0ZM66.0 -366.0C91.0 -350.0 131.0 -335.0 311.0 -295.0C308.0 -263.0 308.0 -206.0 312.0 -167.0L110.0 -203.0L54.0 -247.0ZM54.0 -34.0V-145.0C54.0 -187.0 27.0 -218.0 3.0 -232.0C25.0 -263.0 56.0 -333.0 66.0 -366.0L192.0 -250.0V-34.0Z"/></g>
<g fill="black" opacity=".8" transform="translate(200 200) scale(0.1 -0.1)"><path d="M0.0 0.0V-106.0H680.0V0.0ZM170.0 223.0V136.0H580.0V223.0ZM170.0 111.0V23.0H580.0V111.0ZM353.0 -51.0 245.0 -76.0C311.0 -232.0 420.0 -332.0 603.0 -375.0C619.0 -343.0 654.0 -293.0 681.0 -267.0C515.0 -240.0 405.0 -164.0 353.0 -51.0ZM557.0 -75.0C515.0 -109.0 443.0 -155.0 391.0 -179.0L470.0 -244.0C524.0 -222.0 595.0 -186.0 656.0 -148.0ZM68.0 347.0V-70.0H205.0V245.0H609.0V347.0ZM66.0 -366.0C91.0 -350.0 131.0 -335.0 311.0 -295.0C308.0 -263.0 308.0 -206.0 312.0 -167.0L110.0 -203.0L54.0 -247.0ZM54.0 -34.0V-145.0C54.0 -187.0 27.0 -218.0 3.0 -232.0C25.0 -263.0 56.0 -333.0 66.0 -366.0L192.0 -250.0V-34.0Z"/></g>
<g fill="red" transform="translate(300 200) scale(0.1 -0.1)"><path d="M0.0 0.0V-29.0H883.0V0.0ZM201.0 293.0V264.0H758.0V293.0ZM201.0 148.0V119.0H758.0V148.0ZM407.0 -7.0 381.0 -17.0C466.0 -218.0 650.0 -351.0 890.0 -402.0C894.0 -394.0 902.0 -383.0 908.0 -376.0C667.0 -331.0 487.0 -202.0 407.0 -7.0ZM799.0 -59.0C732.0 -110.0 613.0 -178.0 529.0 -219.0L551.0 -236.0C637.0 -195.0 747.0 -132.0 824.0 -74.0ZM185.0 441.0V-12.0H215.0V412.0H793.0V441.0ZM151.0 -412.0C169.0 -399.0 198.0 -390.0 536.0 -293.0C535.0 -287.0 534.0 -276.0 533.0 -268.0L173.0 -365.0L151.0 -385.0ZM180.0 -12.0V-317.0C180.0 -357.0 148.0 -376.0 132.0 -384.0C139.0 -392.0 147.0 -404.0 151.0 -412.0L210.0 -363.0V-12.0Z"/></g>
<g fill="black" opacity=".8" transform="translate(300 200) scale(0.1 -0.1)"><path d="M0.0 0.0V-29.0H883.0V0.0ZM201.0 293.0V264.0H758.0V293.0ZM201.0 148.0V119.0H758.0V148.0ZM407.0 -7.0 381.0 -17.0C466.0 -218.0 650.0 -351.0 890.0 -402.0C894.0 -394.0 902.0 -383.0 908.0 -376.0C667.0 -331.0 487.0 -202.0 407.0 -7.0ZM799.0 -59.0C732.0 -110.0 613.0 -178.0 529.0 -219.0L551.0 -236.0C637.0 -195.0 747.0 -132.0 824.0 -74.0ZM185.0 441.0V-12.0H215.0V412.0H793.0V441.0ZM151.0 -412.0C169.0 -399.0 198.0 -390.0 536.0 -293.0C535.0 -287.0 534.0 -276.0 533.0 -268.0L173.0 -365.0L151.0 -385.0ZM180.0 -12.0V-317.0C180.0 -357.0 148.0 -376.0 132.0 -384.0C139.0 -392.0 147.0 -404.0 151.0 -412.0L210.0 -363.0V-12.0Z"/></g>
<g fill="red" transform="translate(400 200) scale(0.1 -0.1)"><path d="M0.0 0.0V-127.0H914.0V0.0ZM243.0 291.0V180.0H779.0V291.0ZM243.0 146.0V35.0H779.0V146.0ZM521.0 -29.0 387.0 -60.0C469.0 -282.0 595.0 -417.0 843.0 -475.0C862.0 -436.0 903.0 -375.0 935.0 -344.0C711.0 -304.0 582.0 -196.0 521.0 -29.0ZM774.0 -102.0C722.0 -149.0 636.0 -208.0 571.0 -242.0L667.0 -317.0C733.0 -286.0 819.0 -236.0 891.0 -184.0ZM163.0 445.0V-46.0H312.0V327.0H804.0V445.0ZM145.0 -477.0C173.0 -463.0 219.0 -453.0 458.0 -407.0C458.0 -376.0 464.0 -315.0 472.0 -277.0L194.0 -324.0L135.0 -366.0ZM138.0 -86.0V-255.0C138.0 -296.0 111.0 -321.0 86.0 -334.0C109.0 -369.0 137.0 -445.0 145.0 -480.0L281.0 -369.0V-86.0Z"/></g>
<g fill="black" opacity=".8" transform="translate(400 200) scale(0.1 -0.1)"><path d="M0.0 0.0V-127.0H914.0V0.0ZM243.0 291.0V180.0H779.0V291.0ZM243.0 146.0V35.0H779.0V146.0ZM521.0 -29.0 387.0 -60.0C469.0 -282.0 595.0 -417.0 843.0 -475.0C862.0 -436.0 903.0 -375.0 935.0 -344.0C711.0 -304.0 582.0 -196.0 521.0 -29.0ZM774.0 -102.0C722.0 -149.0 636.0 -208.0 571.0 -242.0L667.0 -317.0C733.0 -286.0 819.0 -236.0 891.0 -184.0ZM163.0 445.0V-46.0H312.0V327.0H804.0V445.0ZM145.0 -477.0C173.0 -463.0 219.0 -453.0 458.0 -407.0C458.0 -376.0 464.0 -315.0 472.0 -277.0L194.0 -324.0L135.0 -366.0ZM138.0 -86.0V-255.0C138.0 -296.0 111.0 -321.0 86.0 -334.0C109.0 -369.0 137.0 -445.0 145.0 -480.0L281.0 -369.0V-86.0Z"/></g>
</svg>
