<?xml version="1.0" encoding="UTF-8"?>
<svg width="1700" height="300" xmlns="http://www.w3.org/2000/svg">
<rect width="100%" height="100%" fill="white"/>
<g fill="green" transform="translate(100 100) scale(0.1 -0.1)"><path d="M0.0 0.0C-13.0 -101.0 -43.0 -184.0 -99.0 -239.0C-92.0 -244.0 -82.0 -256.0 -78.0 -261.0C-20.0 -202.0 15.0 -112.0 29.0 -4.0L0.0 0.0ZM-78.0 -374.0V-404.0H250.0V-374.0H-78.0ZM-73.0 53.0V23.0H254.0V53.0H-73.0ZM76.0 -263.0V-717.0H106.0V-263.0H76.0ZM76.0 184.0V34.0H106.0V184.0H76.0ZM96.0 -467.0 76.0 -484.0C109.0 -507.0 201.0 -578.0 228.0 -605.0L248.0 -580.0C223.0 -560.0 123.0 -485.0 96.0 -467.0ZM76.0 -388.0C34.0 -483.0 -52.0 -588.0 -129.0 -640.0C-121.0 -646.0 -112.0 -657.0 -108.0 -664.0C-30.0 -606.0 56.0 -498.0 100.0 -401.0L76.0 -388.0ZM148.0 -1.0C134.0 -104.0 99.0 -187.0 36.0 -240.0C44.0 -245.0 54.0 -257.0 58.0 -263.0C122.0 -205.0 162.0 -116.0 177.0 -4.0L148.0 -1.0ZM-19.0 -123.0C8.0 -145.0 38.0 -177.0 54.0 -199.0L73.0 -174.0C58.0 -154.0 26.0 -124.0 -1.0 -101.0L-19.0 -123.0ZM130.0 -118.0C161.0 -146.0 199.0 -186.0 216.0 -214.0L237.0 -189.0C219.0 -164.0 181.0 -124.0 148.0 -96.0L130.0 -118.0ZM297.0 -218.0V-247.0H562.0V-218.0H297.0ZM297.0 -418.0V-448.0H562.0V-418.0H297.0ZM296.0 -622.0V-652.0H583.0V-622.0H296.0ZM333.0 178.0C303.0 20.0 254.0 -134.0 183.0 -235.0C191.0 -240.0 204.0 -251.0 208.0 -256.0C279.0 -149.0 331.0 7.0 363.0 173.0L333.0 178.0ZM478.0 173.0C465.0 115.0 438.0 24.0 417.0 -28.0L442.0 -37.0C463.0 15.0 489.0 99.0 508.0 164.0L478.0 173.0ZM309.0 -21.0H305.0L280.0 -48.0V-717.0H309.0V-50.0H575.0V-21.0H309.0ZM420.0 -27.0V-632.0H450.0V-27.0H420.0Z"/></g>
<g fill="green" transform="translate(200 100) scale(0.1 -0.1)"><path d="M0.0 0.0C-11.0 -82.0 -35.0 -157.0 -83.0 -206.0C-62.0 -222.0 -27.0 -257.0 -14.0 -275.0C44.0 -215.0 79.0 -119.0 95.0 -15.0L0.0 0.0ZM-45.0 -321.0V-432.0H284.0V-321.0H-45.0ZM-45.0 126.0V15.0H284.0V126.0H-45.0ZM61.0 -261.0V-729.0H186.0V-261.0H61.0ZM61.0 222.0V82.0H186.0V222.0H61.0ZM172.0 -428.0 116.0 -492.0C146.0 -521.0 207.0 -587.0 236.0 -624.0L293.0 -510.0C275.0 -496.0 197.0 -442.0 172.0 -428.0ZM68.0 -361.0C32.0 -448.0 -41.0 -546.0 -109.0 -596.0C-86.0 -621.0 -57.0 -667.0 -43.0 -697.0C32.0 -628.0 111.0 -511.0 154.0 -412.0L68.0 -361.0ZM143.0 0.0C132.0 -86.0 110.0 -167.0 64.0 -219.0C84.0 -234.0 119.0 -270.0 132.0 -288.0C189.0 -224.0 222.0 -123.0 238.0 -15.0L143.0 0.0ZM17.0 -131.0C37.0 -149.0 61.0 -174.0 73.0 -190.0L124.0 -117.0C111.0 -102.0 87.0 -82.0 65.0 -66.0L17.0 -131.0ZM138.0 -139.0C170.0 -178.0 209.0 -232.0 228.0 -266.0L295.0 -200.0C275.0 -168.0 236.0 -118.0 202.0 -81.0L138.0 -139.0ZM361.0 -168.0V-276.0H609.0V-168.0H361.0ZM361.0 -372.0V-480.0H609.0V-372.0H361.0ZM361.0 -577.0V-685.0H632.0V-577.0H361.0ZM344.0 221.0C323.0 80.0 281.0 -57.0 215.0 -142.0C239.0 -165.0 278.0 -215.0 293.0 -239.0C373.0 -134.0 428.0 32.0 458.0 200.0L344.0 221.0ZM487.0 205.0C480.0 142.0 464.0 55.0 447.0 -3.0L537.0 -23.0C559.0 30.0 587.0 113.0 610.0 188.0L487.0 205.0ZM416.0 36.0H360.0L302.0 -31.0V-727.0H416.0V-80.0H623.0V36.0H416.0ZM450.0 -50.0V-631.0H553.0V-50.0H450.0Z"/></g>
<g fill="green" transform="translate(300 100) scale(0.1 -0.1)"><path d="M0.0 0.0C-13.0 -101.0 -43.0 -184.0 -99.0 -239.0C-92.0 -244.0 -82.0 -256.0 -78.0 -261.0C-20.0 -202.0 15.0 -112.0 29.0 -4.0L0.0 0.0ZM-78.0 -374.0V-404.0H250.0V-374.0H-78.0ZM-73.0 53.0V23.0H254.0V53.0H-73.0ZM76.0 -263.0V-717.0H106.0V-263.0H76.0ZM76.0 184.0V34.0H106.0V184.0H76.0ZM96.0 -467.0 76.0 -484.0C109.0 -507.0 201.0 -578.0 228.0 -605.0L248.0 -580.0C223.0 -560.0 123.0 -485.0 96.0 -467.0ZM76.0 -388.0C34.0 -483.0 -52.0 -588.0 -129.0 -640.0C-121.0 -646.0 -112.0 -657.0 -108.0 -664.0C-30.0 -606.0 56.0 -498.0 100.0 -401.0L76.0 -388.0ZM148.0 -1.0C134.0 -104.0 99.0 -187.0 36.0 -240.0C44.0 -245.0 54.0 -257.0 58.0 -263.0C122.0 -205.0 162.0 -116.0 177.0 -4.0L148.0 -1.0ZM-19.0 -123.0C8.0 -145.0 38.0 -177.0 54.0 -199.0L73.0 -174.0C58.0 -154.0 26.0 -124.0 -1.0 -101.0L-19.0 -123.0ZM130.0 -118.0C161.0 -146.0 199.0 -186.0 216.0 -214.0L237.0 -189.0C219.0 -164.0 181.0 -124.0 148.0 -96.0L130.0 -118.0ZM297.0 -218.0V-247.0H562.0V-218.0H297.0ZM297.0 -418.0V-448.0H562.0V-418.0H297.0ZM296.0 -622.0V-652.0H583.0V-622.0H296.0ZM333.0 178.0C303.0 20.0 254.0 -134.0 183.0 -235.0C191.0 -240.0 204.0 -251.0 208.0 -256.0C279.0 -149.0 331.0 7.0 363.0 173.0L333.0 178.0ZM478.0 173.0C465.0 115.0 438.0 24.0 417.0 -28.0L442.0 -37.0C463.0 15.0 489.0 99.0 508.0 164.0L478.0 173.0ZM309.0 -21.0H305.0L280.0 -48.0V-717.0H309.0V-50.0H575.0V-21.0H309.0ZM420.0 -27.0V-632.0H450.0V-27.0H420.0Z"/></g>
<g fill="green" transform="translate(400 100) scale(0.1 -0.1)"><path d="M0.0 0.0C-11.0 -82.0 -35.0 -157.0 -83.0 -206.0C-62.0 -222.0 -27.0 -257.0 -14.0 -275.0C44.0 -215.0 79.0 -119.0 95.0 -15.0L0.0 0.0ZM-45.0 -321.0V-432.0H284.0V-321.0H-45.0ZM-45.0 126.0V15.0H284.0V126.0H-45.0ZM61.0 -261.0V-729.0H186.0V-261.0H61.0ZM61.0 222.0V82.0H186.0V222.0H61.0ZM172.0 -428.0 116.0 -492.0C146.0 -521.0 207.0 -587.0 236.0 -624.0L293.0 -510.0C275.0 -496.0 197.0 -442.0 172.0 -428.0ZM68.0 -361.0C32.0 -448.0 -41.0 -546.0 -109.0 -596.0C-86.0 -621.0 -57.0 -667.0 -43.0 -697.0C32.0 -628.0 111.0 -511.0 154.0 -412.0L68.0 -361.0ZM143.0 0.0C132.0 -86.0 110.0 -167.0 64.0 -219.0C84.0 -234.0 119.0 -270.0 132.0 -288.0C189.0 -224.0 222.0 -123.0 238.0 -15.0L143.0 0.0ZM17.0 -131.0C37.0 -149.0 61.0 -174.0 73.0 -190.0L124.0 -117.0C111.0 -102.0 87.0 -82.0 65.0 -66.0L17.0 -131.0ZM138.0 -139.0C170.0 -178.0 209.0 -232.0 228.0 -266.0L295.0 -200.0C275.0 -168.0 236.0 -118.0 202.0 -81.0L138.0 -139.0ZM361.0 -168.0V-276.0H609.0V-168.0H361.0ZM361.0 -372.0V-480.0H609.0V-372.0H361.0ZM361.0 -577.0V-685.0H632.0V-577.0H361.0ZM344.0 221.0C323.0 80.0 281.0 -57.0 215.0 -142.0C239.0 -165.0 278.0 -215.0 293.0 -239.0C373.0 -134.0 428.0 32.0 458.0 200.0L344.0 221.0ZM487.0 205.0C480.0 142.0 464.0 55.0 447.0 -3.0L537.0 -23.0C559.0 30.0 587.0 113.0 610.0 188.0L487.0 205.0ZM416.0 36.0H360.0L302.0 -31.0V-727.0H416.0V-80.0H623.0V36.0H416.0ZM450.0 -50.0V-631.0H553.0V-50.0H450.0Z"/></g>
<g fill="red" transform="translate(100 200) scale(0.1 -0.1)"><path d="M0.0 0.0C-13.0 -101.0 -43.0 -184.0 -99.0 -239.0C-92.0 -244.0 -82.0 -256.0 -78.0 -261.0C-20.0 -202.0 15.0 -112.0 29.0 -4.0L0.0 0.0ZM-78.0 -374.0V-404.0H250.0V-374.0H-78.0ZM-73.0 53.0V23.0H254.0V53.0H-73.0ZM76.0 -263.0V-717.0H106.0V-263.0H76.0ZM76.0 184.0V34.0H106.0V184.0H76.0ZM96.0 -467.0 76.0 -484.0C109.0 -507.0 201.0 -578.0 228.0 -605.0L248.0 -580.0C223.0 -560.0 123.0 -485.0 96.0 -467.0ZM76.0 -388.0C34.0 -483.0 -52.0 -588.0 -129.0 -640.0C-121.0 -646.0 -112.0 -657.0 -108.0 -664.0C-30.0 -606.0 56.0 -498.0 100.0 -401.0L76.0 -388.0ZM148.0 -1.0C134.0 -104.0 99.0 -187.0 36.0 -240.0C44.0 -245.0 54.0 -257.0 58.0 -263.0C122.0 -205.0 162.0 -116.0 177.0 -4.0L148.0 -1.0ZM-19.0 -123.0C8.0 -145.0 38.0 -177.0 54.0 -199.0L73.0 -174.0C58.0 -154.0 26.0 -124.0 -1.0 -101.0L-19.0 -123.0ZM130.0 -118.0C161.0 -146.0 199.0 -186.0 216.0 -214.0L237.0 -189.0C219.0 -164.0 181.0 -124.0 148.0 -96.0L130.0 -118.0ZM297.0 -218.0V-247.0H562.0V-218.0H297.0ZM297.0 -418.0V-448.0H562.0V-418.0H297.0ZM296.0 -622.0V-652.0H583.0V-622.0H296.0ZM333.0 178.0C303.0 20.0 254.0 -134.0 183.0 -235.0C191.0 -240.0 204.0 -251.0 208.0 -256.0C279.0 -149.0 331.0 7.0 363.0 173.0L333.0 178.0ZM478.0 173.0C465.0 115.0 438.0 24.0 417.0 -28.0L442.0 -37.0C463.0 15.0 489.0 99.0 508.0 164.0L478.0 173.0ZM309.0 -21.0H305.0L280.0 -48.0V-717.0H309.0V-50.0H575.0V-21.0H309.0ZM420.0 -27.0V-632.0H450.0V-27.0H420.0Z"/></g>
<g fill="black" opacity=".8" transform="translate(100 200) scale(0.1 -0.1)"><path d="M0.0 0.0C-13.0 -101.0 -43.0 -184.0 -99.0 -239.0C-92.0 -244.0 -82.0 -256.0 -78.0 -261.0C-20.0 -202.0 15.0 -112.0 29.0 -4.0L0.0 0.0ZM-78.0 -374.0V-404.0H250.0V-374.0H-78.0ZM-73.0 53.0V23.0H254.0V53.0H-73.0ZM76.0 -263.0V-717.0H106.0V-263.0H76.0ZM76.0 184.0V34.0H106.0V184.0H76.0ZM96.0 -467.0 76.0 -484.0C109.0 -507.0 201.0 -578.0 228.0 -605.0L248.0 -580.0C223.0 -560.0 123.0 -485.0 96.0 -467.0ZM76.0 -388.0C34.0 -483.0 -52.0 -588.0 -129.0 -640.0C-121.0 -646.0 -112.0 -657.0 -108.0 -664.0C-30.0 -606.0 56.0 -498.0 100.0 -401.0L76.0 -388.0ZM148.0 -1.0C134.0 -104.0 99.0 -187.0 36.0 -240.0C44.0 -245.0 54.0 -257.0 58.0 -263.0C122.0 -205.0 162.0 -116.0 177.0 -4.0L148.0 -1.0ZM-19.0 -123.0C8.0 -145.0 38.0 -177.0 54.0 -199.0L73.0 -174.0C58.0 -154.0 26.0 -124.0 -1.0 -101.0L-19.0 -123.0ZM130.0 -118.0C161.0 -146.0 199.0 -186.0 216.0 -214.0L237.0 -189.0C219.0 -164.0 181.0 -124.0 148.0 -96.0L130.0 -118.0ZM297.0 -218.0V-247.0H562.0V-218.0H297.0ZM297.0 -418.0V-448.0H562.0V-418.0H297.0ZM296.0 -622.0V-652.0H583.0V-622.0H296.0ZM333.0 178.0C303.0 20.0 254.0 -134.0 183.0 -235.0C191.0 -240.0 204.0 -251.0 208.0 -256.0C279.0 -149.0 331.0 7.0 363.0 173.0L333.0 178.0ZM478.0 173.0C465.0 115.0 438.0 24.0 417.0 -28.0L442.0 -37.0C463.0 15.0 489.0 99.0 508.0 164.0L478.0 173.0ZM309.0 -21.0H305.0L280.0 -48.0V-717.0H309.0V-50.0H575.0V-21.0H309.0ZM420.0 -27.0V-632.0H450.0V-27.0H420.0Z"/></g>
<g fill="red" transform="translate(200 200) scale(0.1 -0.1)"><path d="M0.0 0.0C-11.0 -82.0 -35.0 -157.0 -83.0 -206.0C-62.0 -222.0 -27.0 -257.0 -14.0 -275.0C44.0 -215.0 79.0 -119.0 95.0 -15.0L0.0 0.0ZM-45.0 -321.0V-432.0H284.0V-321.0H-45.0ZM-45.0 126.0V15.0H284.0V126.0H-45.0ZM61.0 -261.0V-729.0H186.0V-261.0H61.0ZM61.0 222.0V82.0H186.0V222.0H61.0ZM172.0 -428.0 116.0 -492.0C146.0 -521.0 207.0 -587.0 236.0 -624.0L293.0 -510.0C275.0 -496.0 197.0 -442.0 172.0 -428.0ZM68.0 -361.0C32.0 -448.0 -41.0 -546.0 -109.0 -596.0C-86.0 -621.0 -57.0 -667.0 -43.0 -697.0C32.0 -628.0 111.0 -511.0 154.0 -412.0L68.0 -361.0ZM143.0 0.0C132.0 -86.0 110.0 -167.0 64.0 -219.0C84.0 -234.0 119.0 -270.0 132.0 -288.0C189.0 -224.0 222.0 -123.0 238.0 -15.0L143.0 0.0ZM17.0 -131.0C37.0 -149.0 61.0 -174.0 73.0 -190.0L124.0 -117.0C111.0 -102.0 87.0 -82.0 65.0 -66.0L17.0 -131.0ZM138.0 -139.0C170.0 -178.0 209.0 -232.0 228.0 -266.0L295.0 -200.0C275.0 -168.0 236.0 -118.0 202.0 -81.0L138.0 -139.0ZM361.0 -168.0V-276.0H609.0V-168.0H361.0ZM361.0 -372.0V-480.0H609.0V-372.0H361.0ZM361.0 -577.0V-685.0H632.0V-577.0H361.0ZM344.0 221.0C323.0 80.0 281.0 -57.0 215.0 -142.0C239.0 -165.0 278.0 -215.0 293.0 -239.0C373.0 -134.0 428.0 32.0 458.0 200.0L344.0 221.0ZM487.0 205.0C480.0 142.0 464.0 55.0 447.0 -3.0L537.0 -23.0C559.0 30.0 587.0 113.0 610.0 188.0L487.0 205.0ZM416.0 36.0H360.0L302.0 -31.0V-727.0H416.0V-80.0H623.0V36.0H416.0ZM450.0 -50.0V-631.0H553.0V-50.0H450.0Z"/></g>
<g fill="black" opacity=".8" transform="translate(200 200) scale(0.1 -0.1)"><path d="M0.0 0.0C-11.0 -82.0 -35.0 -157.0 -83.0 -206.0C-62.0 -222.0 -27.0 -257.0 -14.0 -275.0C44.0 -215.0 79.0 -119.0 95.0 -15.0L0.0 0.0ZM-45.0 -321.0V-432.0H284.0V-321.0H-45.0ZM-45.0 126.0V15.0H284.0V126.0H-45.0ZM61.0 -261.0V-729.0H186.0V-261.0H61.0ZM61.0 222.0V82.0H186.0V222.0H61.0ZM172.0 -428.0 116.0 -492.0C146.0 -521.0 207.0 -587.0 236.0 -624.0L293.0 -510.0C275.0 -496.0 197.0 -442.0 172.0 -428.0ZM68.0 -361.0C32.0 -448.0 -41.0 -546.0 -109.0 -596.0C-86.0 -621.0 -57.0 -667.0 -43.0 -697.0C32.0 -628.0 111.0 -511.0 154.0 -412.0L68.0 -361.0ZM143.0 0.0C132.0 -86.0 110.0 -167.0 64.0 -219.0C84.0 -234.0 119.0 -270.0 132.0 -288.0C189.0 -224.0 222.0 -123.0 238.0 -15.0L143.0 0.0ZM17.0 -131.0C37.0 -149.0 61.0 -174.0 73.0 -190.0L124.0 -117.0C111.0 -102.0 87.0 -82.0 65.0 -66.0L17.0 -131.0ZM138.0 -139.0C170.0 -178.0 209.0 -232.0 228.0 -266.0L295.0 -200.0C275.0 -168.0 236.0 -118.0 202.0 -81.0L138.0 -139.0ZM361.0 -168.0V-276.0H609.0V-168.0H361.0ZM361.0 -372.0V-480.0H609.0V-372.0H361.0ZM361.0 -577.0V-685.0H632.0V-577.0H361.0ZM344.0 221.0C323.0 80.0 281.0 -57.0 215.0 -142.0C239.0 -165.0 278.0 -215.0 293.0 -239.0C373.0 -134.0 428.0 32.0 458.0 200.0L344.0 221.0ZM487.0 205.0C480.0 142.0 464.0 55.0 447.0 -3.0L537.0 -23.0C559.0 30.0 587.0 113.0 610.0 188.0L487.0 205.0ZM416.0 36.0H360.0L302.0 -31.0V-727.0H416.0V-80.0H623.0V36.0H416.0ZM450.0 -50.0V-631.0H553.0V-50.0H450.0Z"/></g>
</svg>
