<?xml version="1.0" encoding="UTF-8"?>
<svg width="1700" height="300" xmlns="http://www.w3.org/2000/svg">
<rect width="100%" height="100%" fill="white"/>
<g fill="green" transform="translate(100 100) scale(0.1 -0.1)"><path d="M0.0 0.0V-988.0H43.0V0.0ZM-398.0 -182.0V-777.0H-354.0V-225.0H423.0V-182.0ZM405.0 -182.0V-697.0C405.0 -715.0 401.0 -722.0 377.0 -723.0C354.0 -724.0 286.0 -725.0 189.0 -722.0C197.0 -737.0 205.0 -754.0 207.0 -767.0C311.0 -767.0 375.0 -767.0 408.0 -759.0C439.0 -750.0 448.0 -733.0 448.0 -696.0V-182.0ZM-711.0 419.0V376.0H455.0V419.0ZM-688.0 -887.0 -656.0 -921.0C-567.0 -834.0 -459.0 -719.0 -369.0 -615.0L-393.0 -584.0C-492.0 -694.0 -610.0 -816.0 -688.0 -887.0ZM-657.0 -192.0C-567.0 -239.0 -457.0 -313.0 -400.0 -360.0L-372.0 -325.0C-430.0 -278.0 -541.0 -210.0 -631.0 -163.0ZM365.0 105.0C247.0 61.0 52.0 -4.0 -77.0 -33.0L-52.0 -76.0C78.0 -48.0 268.0 3.0 397.0 57.0ZM36.0 -168.0C155.0 -202.0 302.0 -260.0 382.0 -303.0L402.0 -266.0C322.0 -223.0 176.0 -168.0 57.0 -135.0Z"/></g>
<g fill="green" transform="translate(200 100) scale(0.1 -0.1)"><path d="M0.0 0.0V-990.0H207.0V0.0ZM-359.0 -137.0V-776.0H-159.0V-314.0H454.0V-137.0ZM367.0 -137.0V-578.0C367.0 -595.0 361.0 -599.0 343.0 -599.0C327.0 -601.0 270.0 -601.0 227.0 -597.0C253.0 -647.0 282.0 -724.0 293.0 -778.0C379.0 -778.0 447.0 -776.0 501.0 -747.0C558.0 -717.0 574.0 -668.0 574.0 -581.0V-137.0ZM-691.0 507.0V340.0H569.0V507.0ZM-649.0 -810.0 -496.0 -959.0C-413.0 -853.0 -324.0 -733.0 -245.0 -613.0L-375.0 -480.0C-468.0 -606.0 -577.0 -735.0 -649.0 -810.0ZM-620.0 -259.0C-548.0 -301.0 -449.0 -365.0 -403.0 -408.0L-284.0 -259.0C-335.0 -218.0 -436.0 -160.0 -507.0 -124.0ZM336.0 152.0C244.0 111.0 94.0 52.0 -1.0 28.0L86.0 -119.0C184.0 -96.0 329.0 -55.0 442.0 -7.0ZM122.0 -198.0C207.0 -231.0 325.0 -287.0 384.0 -323.0L456.0 -182.0C396.0 -148.0 276.0 -99.0 194.0 -72.0Z"/></g>
<g fill="green" transform="translate(300 100) scale(0.1 -0.1)"><path d="M0.0 0.0V-711.0H28.0V0.0ZM-231.0 -13.0V-395.0H-202.0V-41.0H243.0V-13.0ZM232.0 -13.0V-342.0C232.0 -354.0 230.0 -358.0 214.0 -359.0C200.0 -359.0 157.0 -360.0 96.0 -358.0C101.0 -368.0 106.0 -379.0 107.0 -388.0C172.0 -388.0 214.0 -388.0 235.0 -383.0C254.0 -377.0 261.0 -366.0 261.0 -342.0V-13.0ZM-501.0 374.0V346.0H258.0V374.0ZM-509.0 -645.0 -486.0 -666.0C-430.0 -596.0 -362.0 -504.0 -310.0 -421.0L-330.0 -403.0C-387.0 -490.0 -461.0 -588.0 -509.0 -645.0ZM-490.0 -93.0C-434.0 -127.0 -367.0 -179.0 -333.0 -211.0L-312.0 -189.0C-348.0 -156.0 -416.0 -108.0 -472.0 -74.0ZM261.0 188.0C146.0 157.0 -37.0 112.0 -155.0 96.0L-137.0 55.0C-18.0 70.0 161.0 104.0 285.0 144.0ZM44.0 8.0C122.0 -12.0 218.0 -48.0 270.0 -75.0L282.0 -51.0C230.0 -23.0 135.0 11.0 57.0 31.0Z"/></g>
<g fill="green" transform="translate(400 100) scale(0.1 -0.1)"><path d="M0.0 0.0V-721.0H135.0V0.0ZM-206.0 12.0V-394.0H-75.0V-111.0H265.0V12.0ZM209.0 12.0V-259.0C209.0 -270.0 205.0 -272.0 194.0 -272.0C183.0 -274.0 148.0 -274.0 120.0 -271.0C139.0 -306.0 159.0 -360.0 166.0 -398.0C220.0 -398.0 263.0 -396.0 298.0 -376.0C336.0 -355.0 346.0 -319.0 346.0 -261.0V12.0ZM-495.0 432.0V318.0H334.0V432.0ZM-498.0 -592.0 -375.0 -693.0C-322.0 -608.0 -265.0 -511.0 -217.0 -414.0L-326.0 -321.0C-382.0 -424.0 -452.0 -530.0 -498.0 -592.0ZM-478.0 -143.0C-432.0 -173.0 -368.0 -218.0 -339.0 -249.0L-250.0 -141.0C-283.0 -112.0 -348.0 -71.0 -393.0 -45.0ZM228.0 230.0C134.0 201.0 -13.0 160.0 -104.0 146.0L-37.0 13.0C56.0 27.0 199.0 54.0 309.0 90.0ZM118.0 -20.0C169.0 -38.0 239.0 -72.0 275.0 -94.0L317.0 11.0C282.0 31.0 210.0 60.0 162.0 74.0Z"/></g>
<g fill="green" transform="translate(500 100) scale(0.1 -0.1)"><path d="M0.0 0.0V-817.0H30.0V0.0ZM-370.0 -194.0V-825.0H-341.0V-224.0H395.0V-194.0ZM380.0 -194.0V-764.0C380.0 -780.0 376.0 -785.0 357.0 -786.0C338.0 -787.0 276.0 -788.0 196.0 -786.0C202.0 -796.0 207.0 -810.0 209.0 -819.0C294.0 -819.0 350.0 -819.0 376.0 -813.0C401.0 -807.0 409.0 -793.0 409.0 -763.0V-194.0ZM-423.0 6.0V-24.0H460.0V6.0ZM-302.0 -693.0 -283.0 -717.0C-216.0 -674.0 -132.0 -617.0 -52.0 -561.0L-61.0 -537.0C-150.0 -596.0 -242.0 -657.0 -302.0 -693.0ZM-277.0 -319.0C-207.0 -362.0 -121.0 -424.0 -76.0 -462.0L-56.0 -440.0C-102.0 -403.0 -189.0 -343.0 -257.0 -301.0ZM309.0 -300.0C252.0 -345.0 153.0 -408.0 86.0 -444.0L101.0 -464.0C170.0 -429.0 266.0 -373.0 329.0 -323.0ZM82.0 -555.0C162.0 -601.0 261.0 -668.0 312.0 -710.0L331.0 -690.0C279.0 -648.0 180.0 -583.0 100.0 -539.0Z"/></g>
<g fill="green" transform="translate(600 100) scale(0.1 -0.1)"><path d="M0.0 0.0V-779.0H143.0V0.0ZM-353.0 -113.0V-792.0H-214.0V-248.0H400.0V-113.0ZM344.0 -113.0V-646.0C344.0 -661.0 338.0 -665.0 322.0 -666.0C307.0 -666.0 250.0 -666.0 209.0 -664.0C228.0 -697.0 249.0 -753.0 256.0 -789.0C331.0 -789.0 388.0 -787.0 430.0 -767.0C473.0 -746.0 487.0 -712.0 487.0 -648.0V-113.0ZM-393.0 102.0V-41.0H521.0V102.0ZM-224.0 -610.0 -155.0 -735.0C-104.0 -685.0 -49.0 -629.0 0.0 -574.0L-51.0 -475.0C-115.0 -528.0 -181.0 -581.0 -224.0 -610.0ZM-221.0 -344.0C-174.0 -386.0 -110.0 -445.0 -80.0 -482.0L6.0 -390.0C-26.0 -355.0 -94.0 -300.0 -140.0 -262.0ZM280.0 -268.0C242.0 -310.0 176.0 -366.0 133.0 -395.0L197.0 -483.0C243.0 -455.0 307.0 -409.0 359.0 -367.0ZM133.0 -553.0C173.0 -595.0 229.0 -655.0 255.0 -691.0L346.0 -604.0C318.0 -571.0 259.0 -515.0 220.0 -477.0Z"/></g>
<g fill="green" transform="translate(700 100) scale(0.1 -0.1)"><path d="M0.0 0.0V-489.0H45.0V0.0ZM-404.0 -592.0V-891.0H-357.0V-637.0H439.0V-592.0ZM416.0 -592.0V-821.0C416.0 -835.0 413.0 -842.0 391.0 -843.0C371.0 -845.0 315.0 -845.0 225.0 -842.0C232.0 -857.0 243.0 -872.0 246.0 -883.0C346.0 -883.0 396.0 -884.0 426.0 -876.0C456.0 -866.0 461.0 -851.0 461.0 -820.0V-592.0ZM-667.0 401.0V357.0H430.0V401.0ZM-700.0 -471.0 -672.0 -515.0C-578.0 -461.0 -471.0 -388.0 -372.0 -324.0L-388.0 -288.0C-495.0 -353.0 -614.0 -428.0 -700.0 -471.0ZM-669.0 -59.0C-572.0 -77.0 -452.0 -116.0 -388.0 -149.0L-370.0 -108.0C-433.0 -76.0 -554.0 -42.0 -651.0 -25.0ZM175.0 122.0C200.0 111.0 213.0 84.0 209.0 68.0L229.0 72.0C232.0 88.0 217.0 108.0 200.0 120.0ZM-154.0 -44.0C-29.0 -56.0 131.0 -83.0 218.0 -109.0L236.0 -65.0C148.0 -40.0 -10.0 -15.0 -135.0 -5.0Z"/></g>
<g fill="green" transform="translate(800 100) scale(0.1 -0.1)"><path d="M0.0 0.0V-512.0H216.0V0.0ZM-341.0 -604.0V-943.0H-138.0V-731.0H487.0V-604.0ZM386.0 -604.0V-782.0C386.0 -796.0 382.0 -799.0 368.0 -798.0C357.0 -800.0 316.0 -800.0 287.0 -797.0C307.0 -839.0 330.0 -893.0 341.0 -940.0C416.0 -940.0 479.0 -940.0 528.0 -918.0C579.0 -895.0 593.0 -860.0 593.0 -783.0V-604.0ZM-638.0 433.0V327.0H568.0V433.0ZM-674.0 -454.0 -566.0 -555.0C-466.0 -487.0 -356.0 -408.0 -245.0 -328.0L-326.0 -233.0C-447.0 -317.0 -579.0 -403.0 -674.0 -454.0ZM-621.0 -131.0C-537.0 -142.0 -423.0 -169.0 -366.0 -190.0L-304.0 -69.0C-366.0 -49.0 -478.0 -27.0 -559.0 -20.0ZM230.0 117.0C258.0 108.0 282.0 85.0 288.0 72.0L323.0 76.0C318.0 87.0 291.0 101.0 273.0 112.0ZM-139.0 -72.0C4.0 -91.0 199.0 -130.0 298.0 -158.0L330.0 -56.0C225.0 -26.0 32.0 6.0 -106.0 20.0Z"/></g>
<g fill="red" transform="translate(100 200) scale(0.1 -0.1)"><path d="M0.0 0.0V-817.0H30.0V0.0ZM-370.0 -194.0V-825.0H-341.0V-224.0H395.0V-194.0ZM380.0 -194.0V-764.0C380.0 -780.0 376.0 -785.0 357.0 -786.0C338.0 -787.0 276.0 -788.0 196.0 -786.0C202.0 -796.0 207.0 -810.0 209.0 -819.0C294.0 -819.0 350.0 -819.0 376.0 -813.0C401.0 -807.0 409.0 -793.0 409.0 -763.0V-194.0ZM-423.0 6.0V-24.0H460.0V6.0ZM-302.0 -693.0 -283.0 -717.0C-216.0 -674.0 -132.0 -617.0 -52.0 -561.0L-61.0 -537.0C-150.0 -596.0 -242.0 -657.0 -302.0 -693.0ZM-277.0 -319.0C-207.0 -362.0 -121.0 -424.0 -76.0 -462.0L-56.0 -440.0C-102.0 -403.0 -189.0 -343.0 -257.0 -301.0ZM309.0 -300.0C252.0 -345.0 153.0 -408.0 86.0 -444.0L101.0 -464.0C170.0 -429.0 266.0 -373.0 329.0 -323.0ZM82.0 -555.0C162.0 -601.0 261.0 -668.0 312.0 -710.0L331.0 -690.0C279.0 -648.0 180.0 -583.0 100.0 -539.0Z"/></g>
<g fill="black" opacity=".8" transform="translate(100 200) scale(0.1 -0.1)"><path d="M0.0 0.0V-817.0H30.0V0.0ZM-370.0 -194.0V-825.0H-341.0V-224.0H395.0V-194.0ZM380.0 -194.0V-764.0C380.0 -780.0 376.0 -785.0 357.0 -786.0C338.0 -787.0 276.0 -788.0 196.0 -786.0C202.0 -796.0 207.0 -810.0 209.0 -819.0C294.0 -819.0 350.0 -819.0 376.0 -813.0C401.0 -807.0 409.0 -793.0 409.0 -763.0V-194.0ZM-423.0 6.0V-24.0H460.0V6.0ZM-302.0 -693.0 -283.0 -717.0C-216.0 -674.0 -132.0 -617.0 -52.0 -561.0L-61.0 -537.0C-150.0 -596.0 -242.0 -657.0 -302.0 -693.0ZM-277.0 -319.0C-207.0 -362.0 -121.0 -424.0 -76.0 -462.0L-56.0 -440.0C-102.0 -403.0 -189.0 -343.0 -257.0 -301.0ZM309.0 -300.0C252.0 -345.0 153.0 -408.0 86.0 -444.0L101.0 -464.0C170.0 -429.0 266.0 -373.0 329.0 -323.0ZM82.0 -555.0C162.0 -601.0 261.0 -668.0 312.0 -710.0L331.0 -690.0C279.0 -648.0 180.0 -583.0 100.0 -539.0Z"/></g>
<g fill="red" transform="translate(200 200) scale(0.1 -0.1)"><path d="M0.0 0.0V-779.0H143.0V0.0ZM-353.0 -113.0V-792.0H-214.0V-248.0H400.0V-113.0ZM344.0 -113.0V-646.0C344.0 -661.0 338.0 -665.0 322.0 -666.0C307.0 -666.0 250.0 -666.0 209.0 -664.0C228.0 -697.0 249.0 -753.0 256.0 -789.0C331.0 -789.0 388.0 -787.0 430.0 -767.0C473.0 -746.0 487.0 -712.0 487.0 -648.0V-113.0ZM-393.0 102.0V-41.0H521.0V102.0ZM-224.0 -610.0 -155.0 -735.0C-104.0 -685.0 -49.0 -629.0 0.0 -574.0L-51.0 -475.0C-115.0 -528.0 -181.0 -581.0 -224.0 -610.0ZM-221.0 -344.0C-174.0 -386.0 -110.0 -445.0 -80.0 -482.0L6.0 -390.0C-26.0 -355.0 -94.0 -300.0 -140.0 -262.0ZM280.0 -268.0C242.0 -310.0 176.0 -366.0 133.0 -395.0L197.0 -483.0C243.0 -455.0 307.0 -409.0 359.0 -367.0ZM133.0 -553.0C173.0 -595.0 229.0 -655.0 255.0 -691.0L346.0 -604.0C318.0 -571.0 259.0 -515.0 220.0 -477.0Z"/></g>
<g fill="black" opacity=".8" transform="translate(200 200) scale(0.1 -0.1)"><path d="M0.0 0.0V-779.0H143.0V0.0ZM-353.0 -113.0V-792.0H-214.0V-248.0H400.0V-113.0ZM344.0 -113.0V-646.0C344.0 -661.0 338.0 -665.0 322.0 -666.0C307.0 -666.0 250.0 -666.0 209.0 -664.0C228.0 -697.0 249.0 -753.0 256.0 -789.0C331.0 -789.0 388.0 -787.0 430.0 -767.0C473.0 -746.0 487.0 -712.0 487.0 -648.0V-113.0ZM-393.0 102.0V-41.0H521.0V102.0ZM-224.0 -610.0 -155.0 -735.0C-104.0 -685.0 -49.0 -629.0 0.0 -574.0L-51.0 -475.0C-115.0 -528.0 -181.0 -581.0 -224.0 -610.0ZM-221.0 -344.0C-174.0 -386.0 -110.0 -445.0 -80.0 -482.0L6.0 -390.0C-26.0 -355.0 -94.0 -300.0 -140.0 -262.0ZM280.0 -268.0C242.0 -310.0 176.0 -366.0 133.0 -395.0L197.0 -483.0C243.0 -455.0 307.0 -409.0 359.0 -367.0ZM133.0 -553.0C173.0 -595.0 229.0 -655.0 255.0 -691.0L346.0 -604.0C318.0 -571.0 259.0 -515.0 220.0 -477.0Z"/></g>
<g fill="red" transform="translate(300 200) scale(0.1 -0.1)"><path d="M0.0 0.0V-494.0H29.0V0.0ZM-233.0 -192.0V-445.0H-203.0V-221.0H249.0V-192.0ZM237.0 -192.0V-396.0C237.0 -406.0 235.0 -410.0 221.0 -411.0C207.0 -412.0 170.0 -412.0 112.0 -410.0C117.0 -420.0 123.0 -430.0 124.0 -438.0C187.0 -438.0 223.0 -439.0 243.0 -433.0C262.0 -427.0 266.0 -417.0 266.0 -396.0V-192.0ZM-482.0 366.0V337.0H247.0V366.0ZM-514.0 -464.0 -493.0 -489.0C-435.0 -433.0 -367.0 -360.0 -311.0 -295.0L-328.0 -274.0C-388.0 -342.0 -463.0 -419.0 -514.0 -464.0ZM-495.0 -35.0C-436.0 -56.0 -365.0 -93.0 -327.0 -119.0L-311.0 -94.0C-349.0 -68.0 -421.0 -35.0 -480.0 -14.0ZM179.0 196.0C126.0 179.0 33.0 151.0 -31.0 140.0L-15.0 119.0C49.0 130.0 139.0 149.0 199.0 171.0ZM-39.0 62.0C42.0 52.0 143.0 29.0 199.0 9.0L210.0 37.0C154.0 57.0 54.0 78.0 -26.0 87.0Z"/></g>
<g fill="black" opacity=".8" transform="translate(300 200) scale(0.1 -0.1)"><path d="M0.0 0.0V-494.0H29.0V0.0ZM-234.0 -191.0V-445.0H-203.0V-220.0H250.0V-191.0ZM237.0 -191.0V-396.0C237.0 -406.0 235.0 -410.0 220.0 -411.0C207.0 -412.0 170.0 -412.0 112.0 -410.0C116.0 -420.0 123.0 -430.0 124.0 -439.0C187.0 -439.0 223.0 -439.0 243.0 -434.0C261.0 -428.0 267.0 -417.0 267.0 -396.0V-191.0ZM-482.0 366.0V338.0H247.0V366.0ZM-514.0 -464.0 -493.0 -489.0C-435.0 -434.0 -367.0 -360.0 -311.0 -294.0L-328.0 -274.0C-388.0 -342.0 -463.0 -419.0 -514.0 -464.0ZM-495.0 -35.0C-436.0 -56.0 -365.0 -93.0 -328.0 -119.0L-311.0 -95.0C-349.0 -68.0 -422.0 -35.0 -481.0 -14.0ZM178.0 195.0C126.0 179.0 33.0 150.0 -30.0 140.0L-15.0 119.0C49.0 129.0 139.0 150.0 199.0 171.0ZM-39.0 62.0C42.0 52.0 144.0 29.0 199.0 9.0L210.0 37.0C154.0 57.0 54.0 78.0 -27.0 88.0Z"/></g>
<g fill="red" transform="translate(400 200) scale(0.1 -0.1)"><path d="M0.0 0.0V-513.0H139.0V0.0ZM-199.0 -192.0V-467.0H-66.0V-293.0H279.0V-192.0ZM217.0 -192.0V-348.0C217.0 -357.0 214.0 -359.0 204.0 -359.0C196.0 -360.0 168.0 -360.0 147.0 -358.0C162.0 -389.0 180.0 -434.0 187.0 -469.0C236.0 -469.0 277.0 -468.0 310.0 -450.0C345.0 -432.0 354.0 -403.0 354.0 -349.0V-192.0ZM-472.0 400.0V312.0H334.0V400.0ZM-508.0 -437.0 -406.0 -517.0C-345.0 -448.0 -279.0 -369.0 -218.0 -290.0L-305.0 -213.0C-373.0 -298.0 -453.0 -385.0 -508.0 -437.0ZM-478.0 -87.0C-427.0 -104.0 -357.0 -133.0 -323.0 -154.0L-259.0 -58.0C-296.0 -38.0 -366.0 -13.0 -416.0 0.0ZM182.0 215.0C140.0 200.0 69.0 174.0 22.0 165.0L66.0 98.0C114.0 106.0 183.0 121.0 236.0 142.0ZM5.0 35.0C80.0 23.0 184.0 -3.0 237.0 -22.0L262.0 66.0C208.0 84.0 104.0 106.0 31.0 114.0Z"/></g>
<g fill="black" opacity=".8" transform="translate(400 200) scale(0.1 -0.1)"><path d="M0.0 0.0V-513.0H139.0V0.0ZM-198.0 -191.0V-467.0H-66.0V-293.0H279.0V-191.0ZM217.0 -191.0V-348.0C217.0 -358.0 214.0 -359.0 205.0 -359.0C196.0 -361.0 168.0 -361.0 146.0 -358.0C163.0 -390.0 180.0 -434.0 187.0 -469.0C236.0 -469.0 277.0 -467.0 310.0 -450.0C345.0 -432.0 354.0 -403.0 354.0 -349.0V-191.0ZM-472.0 400.0V312.0H334.0V400.0ZM-509.0 -437.0 -405.0 -517.0C-345.0 -449.0 -279.0 -370.0 -217.0 -290.0L-305.0 -213.0C-373.0 -298.0 -453.0 -385.0 -509.0 -437.0ZM-478.0 -87.0C-427.0 -104.0 -357.0 -133.0 -323.0 -154.0L-259.0 -58.0C-296.0 -38.0 -366.0 -13.0 -416.0 0.0ZM182.0 215.0C140.0 200.0 69.0 174.0 22.0 165.0L66.0 98.0C114.0 107.0 182.0 122.0 235.0 142.0ZM4.0 35.0C81.0 23.0 184.0 -4.0 238.0 -22.0L262.0 66.0C208.0 84.0 104.0 106.0 31.0 114.0Z"/></g>
<g fill="red" transform="translate(500 200) scale(0.1 -0.1)"><path d="M0.0 0.0V-273.0H30.0V0.0ZM-343.0 -568.0V-856.0H-313.0V-598.0H375.0V-568.0ZM357.0 -568.0V-809.0C357.0 -820.0 354.0 -824.0 339.0 -825.0C324.0 -827.0 279.0 -827.0 212.0 -825.0C217.0 -834.0 224.0 -845.0 227.0 -852.0C301.0 -852.0 339.0 -853.0 360.0 -847.0C382.0 -841.0 386.0 -830.0 386.0 -808.0V-568.0ZM-357.0 10.0V-19.0H393.0V10.0ZM-306.0 -241.0 -292.0 -273.0C-225.0 -263.0 -148.0 -249.0 -67.0 -234.0L-68.0 -207.0C-157.0 -220.0 -243.0 -233.0 -306.0 -241.0ZM-283.0 -156.0C-211.0 -167.0 -123.0 -191.0 -74.0 -212.0L-65.0 -186.0C-113.0 -166.0 -202.0 -144.0 -272.0 -134.0ZM102.0 -235.0C184.0 -244.0 288.0 -265.0 343.0 -285.0L353.0 -259.0C297.0 -239.0 193.0 -219.0 114.0 -213.0ZM-110.0 -365.0C-29.0 -385.0 75.0 -416.0 130.0 -438.0L145.0 -412.0C89.0 -391.0 -15.0 -361.0 -95.0 -344.0Z"/></g>
<g fill="black" opacity=".8" transform="translate(500 200) scale(0.1 -0.1)"><path d="M0.0 0.0V-273.0H30.0V0.0ZM-343.0 -568.0V-856.0H-313.0V-598.0H376.0V-568.0ZM357.0 -568.0V-809.0C357.0 -820.0 354.0 -824.0 338.0 -825.0C324.0 -827.0 279.0 -827.0 212.0 -825.0C217.0 -834.0 224.0 -845.0 227.0 -852.0C301.0 -852.0 339.0 -853.0 360.0 -847.0C382.0 -841.0 386.0 -830.0 386.0 -808.0V-568.0ZM-357.0 10.0V-19.0H393.0V10.0ZM-306.0 -241.0 -292.0 -273.0C-225.0 -263.0 -148.0 -249.0 -67.0 -234.0L-68.0 -207.0C-157.0 -220.0 -243.0 -233.0 -306.0 -241.0ZM-283.0 -156.0C-211.0 -167.0 -123.0 -191.0 -74.0 -212.0L-65.0 -186.0C-113.0 -166.0 -202.0 -144.0 -272.0 -134.0ZM102.0 -235.0C184.0 -244.0 288.0 -265.0 343.0 -285.0L353.0 -259.0C297.0 -240.0 193.0 -218.0 114.0 -213.0ZM-110.0 -365.0C-29.0 -385.0 76.0 -416.0 130.0 -438.0L145.0 -412.0C89.0 -391.0 -15.0 -361.0 -95.0 -344.0Z"/></g>
<g fill="red" transform="translate(600 200) scale(0.1 -0.1)"><path d="M0.0 0.0V-261.0H142.0V0.0ZM-304.0 -551.0V-878.0H-171.0V-628.0H398.0V-551.0ZM332.0 -551.0V-778.0C332.0 -789.0 328.0 -792.0 317.0 -792.0C308.0 -792.0 272.0 -792.0 248.0 -791.0C260.0 -814.0 274.0 -844.0 280.0 -871.0C338.0 -871.0 386.0 -871.0 420.0 -859.0C454.0 -846.0 465.0 -828.0 465.0 -778.0V-551.0ZM-322.0 43.0V-30.0H475.0V43.0ZM-249.0 -224.0 -226.0 -292.0C-161.0 -280.0 -89.0 -265.0 -13.0 -250.0L-16.0 -195.0C-103.0 -207.0 -187.0 -218.0 -249.0 -224.0ZM-222.0 -185.0C-167.0 -194.0 -93.0 -212.0 -54.0 -225.0L-29.0 -165.0C-69.0 -153.0 -143.0 -138.0 -196.0 -131.0ZM156.0 -255.0C233.0 -262.0 335.0 -279.0 390.0 -294.0L400.0 -233.0C346.0 -219.0 244.0 -204.0 169.0 -201.0ZM-130.0 -363.0C-35.0 -387.0 92.0 -425.0 156.0 -450.0L199.0 -406.0C129.0 -380.0 3.0 -345.0 -89.0 -324.0Z"/></g>
<g fill="black" opacity=".8" transform="translate(600 200) scale(0.1 -0.1)"><path d="M0.0 0.0V-261.0H142.0V0.0ZM-304.0 -551.0V-878.0H-171.0V-628.0H398.0V-551.0ZM332.0 -551.0V-778.0C332.0 -789.0 328.0 -792.0 317.0 -792.0C308.0 -792.0 272.0 -792.0 248.0 -791.0C260.0 -814.0 274.0 -844.0 280.0 -871.0C338.0 -871.0 386.0 -871.0 420.0 -859.0C454.0 -846.0 465.0 -828.0 465.0 -778.0V-551.0ZM-322.0 43.0V-30.0H475.0V43.0ZM-250.0 -224.0 -226.0 -292.0C-161.0 -281.0 -89.0 -266.0 -13.0 -250.0L-16.0 -195.0C-103.0 -207.0 -187.0 -218.0 -250.0 -224.0ZM-222.0 -185.0C-167.0 -194.0 -93.0 -212.0 -54.0 -225.0L-29.0 -165.0C-69.0 -154.0 -143.0 -138.0 -196.0 -131.0ZM156.0 -255.0C233.0 -262.0 335.0 -279.0 390.0 -294.0L400.0 -233.0C346.0 -219.0 244.0 -203.0 169.0 -201.0ZM-130.0 -363.0C-35.0 -387.0 92.0 -425.0 156.0 -450.0L199.0 -406.0C129.0 -380.0 3.0 -345.0 -89.0 -324.0Z"/></g>
</svg>
