<?xml version="1.0" encoding="UTF-8"?>
<svg width="1700" height="300" xmlns="http://www.w3.org/2000/svg">
<rect width="100%" height="100%" fill="white"/>
<g fill="green" transform="translate(100 100) scale(0.1 -0.1)"><path d="M-0.0 0.0V-264.0H368.0V-256.0H242.0V-489.0H639.0V0.0ZM-171.0 -236.0V-284.0H387.0V-236.0ZM-254.0 -607.0V-655.0H187.0V-607.0ZM-296.0 365.0V318.0H512.0V365.0ZM-86.0 575.0V-19.0H-39.0V575.0ZM-70.0 254.0C-141.0 120.0 -287.0 -26.0 -405.0 -96.0C-395.0 -105.0 -381.0 -124.0 -375.0 -137.0C-252.0 -59.0 -106.0 96.0 -29.0 236.0ZM-41.0 541.0C-156.0 506.0 -375.0 476.0 -556.0 459.0C-547.0 447.0 -540.0 429.0 -537.0 418.0C-355.0 434.0 -132.0 465.0 2.0 504.0ZM927.0 220.0C965.0 98.0 976.0 -68.0 960.0 -177.0L1002.0 -185.0C1016.0 -76.0 1002.0 87.0 970.0 214.0Z"/></g>
<g fill="green" transform="translate(200 100) scale(0.1 -0.1)"><path d="M0.0 0.0V-366.0H422.0V-312.0H232.0V-599.0H752.0V0.0ZM-129.0 -252.0V-389.0H399.0V-252.0ZM-211.0 -602.0V-766.0H215.0V-602.0ZM-290.0 412.0V249.0H589.0V412.0ZM-126.0 528.0V-59.0H73.0V528.0ZM-117.0 232.0C-175.0 131.0 -294.0 21.0 -407.0 -39.0C-377.0 -91.0 -339.0 -175.0 -322.0 -232.0C-182.0 -149.0 -63.0 20.0 13.0 173.0ZM-49.0 568.0C-174.0 533.0 -389.0 510.0 -576.0 501.0C-553.0 460.0 -531.0 393.0 -524.0 351.0C-322.0 356.0 -77.0 378.0 96.0 428.0ZM867.0 260.0C888.0 137.0 895.0 -28.0 884.0 -132.0L1055.0 -157.0C1064.0 -55.0 1064.0 98.0 1062.0 227.0Z"/></g>
<g fill="green" transform="translate(300 100) scale(0.1 -0.1)"><path d="M-0.0 0.0V-81.0H330.0V-225.0H46.0V-293.0H403.0V0.0ZM-214.0 -165.0V-196.0H105.0V-165.0ZM-244.0 -434.0V-466.0H-12.0V-434.0ZM-347.0 244.0V214.0H139.0V244.0ZM-158.0 329.0V-52.0H-128.0V329.0ZM-147.0 122.0C-184.0 39.0 -262.0 -54.0 -325.0 -99.0C-319.0 -104.0 -310.0 -117.0 -306.0 -125.0C-239.0 -75.0 -161.0 24.0 -121.0 111.0ZM-296.0 300.0C-355.0 282.0 -462.0 266.0 -552.0 257.0C-545.0 250.0 -541.0 238.0 -539.0 231.0C-449.0 240.0 -337.0 256.0 -268.0 276.0ZM654.0 67.0C653.0 -22.0 620.0 -140.0 584.0 -216.0L615.0 -233.0C648.0 -156.0 678.0 -40.0 686.0 53.0Z"/></g>
<g fill="green" transform="translate(400 100) scale(0.1 -0.1)"><path d="M0.0 0.0V-165.0H335.0V-245.0H61.0V-384.0H485.0V0.0ZM-198.0 -186.0V-268.0H120.0V-186.0ZM-226.0 -445.0V-552.0H22.0V-445.0ZM-351.0 272.0V172.0H201.0V272.0ZM-186.0 288.0V-88.0H-61.0V288.0ZM-176.0 97.0C-206.0 37.0 -271.0 -31.0 -329.0 -69.0C-312.0 -103.0 -290.0 -157.0 -281.0 -194.0C-202.0 -141.0 -138.0 -32.0 -96.0 61.0ZM-311.0 308.0C-372.0 291.0 -484.0 279.0 -579.0 274.0C-563.0 249.0 -550.0 209.0 -545.0 184.0C-438.0 186.0 -305.0 198.0 -214.0 226.0ZM590.0 122.0C577.0 30.0 542.0 -89.0 513.0 -163.0L629.0 -219.0C658.0 -147.0 701.0 -37.0 731.0 62.0Z"/></g>
<g fill="green" transform="translate(500 100) scale(0.1 -0.1)"><path d="M0.0 0.0V-429.0H-78.0V39.0H530.0V-340.0H443.0V0.0ZM-10.0 -136.0V-169.0H306.0V-136.0ZM119.0 -189.0V-222.0H570.0V-189.0ZM-230.0 306.0V274.0H407.0V306.0ZM256.0 628.0V303.0H288.0V628.0ZM311.0 282.0C238.0 196.0 89.0 113.0 -29.0 75.0C-22.0 69.0 -11.0 56.0 -7.0 47.0C111.0 90.0 261.0 178.0 340.0 268.0ZM500.0 461.0C388.0 436.0 183.0 414.0 10.0 402.0C16.0 394.0 19.0 381.0 21.0 373.0C196.0 385.0 402.0 407.0 531.0 435.0ZM717.0 31.0C844.0 -68.0 980.0 -201.0 1042.0 -294.0L1068.0 -273.0C1004.0 -181.0 869.0 -45.0 739.0 51.0Z"/></g>
<g fill="green" transform="translate(600 100) scale(0.1 -0.1)"><path d="M0.0 0.0V-458.0H63.0V-50.0H473.0V-374.0H514.0V0.0ZM58.0 -136.0V-217.0H286.0V-136.0ZM189.0 -173.0V-272.0H548.0V-173.0ZM-219.0 337.0V228.0H470.0V337.0ZM251.0 624.0V307.0H390.0V624.0ZM294.0 294.0C230.0 222.0 104.0 152.0 -15.0 115.0C9.0 84.0 40.0 32.0 55.0 -4.0C181.0 47.0 308.0 149.0 383.0 254.0ZM529.0 495.0C409.0 467.0 199.0 450.0 21.0 444.0C33.0 420.0 47.0 378.0 51.0 352.0C237.0 356.0 462.0 371.0 614.0 408.0ZM715.0 34.0C805.0 -66.0 917.0 -203.0 967.0 -287.0L1105.0 -225.0C1042.0 -135.0 928.0 -4.0 829.0 91.0Z"/></g>
<g fill="green" transform="translate(700 100) scale(0.1 -0.1)"><path d="M-0.0 0.0V-316.0H360.0V-248.0H-121.0V-539.0H266.0V0.0ZM62.0 -212.0V-253.0H440.0V-212.0ZM-260.0 -653.0V-697.0H-173.0V-653.0ZM320.0 327.0V285.0H534.0V327.0ZM-171.0 374.0V-328.0H-129.0V374.0ZM-249.0 333.0C-254.0 204.0 -274.0 43.0 -297.0 -38.0C-289.0 -46.0 -277.0 -64.0 -272.0 -75.0C-238.0 15.0 -223.0 185.0 -212.0 321.0ZM-52.0 646.0C-96.0 602.0 -191.0 564.0 -264.0 539.0C-256.0 529.0 -250.0 513.0 -247.0 505.0C-175.0 529.0 -73.0 567.0 -23.0 615.0ZM1120.0 486.0C1014.0 379.0 846.0 251.0 735.0 172.0L785.0 149.0C895.0 228.0 1059.0 355.0 1168.0 467.0Z"/></g>
<g fill="green" transform="translate(800 100) scale(0.1 -0.1)"><path d="M0.0 0.0V-418.0H382.0V-319.0H-92.0V-644.0H384.0V0.0ZM53.0 -206.0V-380.0H542.0V-206.0ZM-279.0 -632.0V-807.0H-98.0V-632.0ZM352.0 386.0V211.0H583.0V386.0ZM-204.0 333.0V-369.0H-34.0V333.0ZM-250.0 318.0C-250.0 225.0 -261.0 99.0 -274.0 24.0C-257.0 -33.0 -236.0 -116.0 -230.0 -174.0C-177.0 -76.0 -163.0 120.0 -145.0 263.0ZM-25.0 675.0C-91.0 636.0 -183.0 606.0 -276.0 589.0C-252.0 544.0 -227.0 471.0 -219.0 425.0C-111.0 438.0 13.0 465.0 117.0 517.0ZM1053.0 527.0C967.0 428.0 820.0 304.0 732.0 224.0L898.0 173.0C993.0 250.0 1147.0 366.0 1244.0 475.0Z"/></g>
<g fill="green" transform="translate(900 100) scale(0.1 -0.1)"><path d="M0.0 0.0V-149.0H505.0V-346.0H308.0V-475.0H854.0V0.0ZM-15.0 -201.0V-253.0H907.0V-201.0ZM-366.0 -689.0V-741.0H225.0V-689.0ZM-289.0 222.0V170.0H761.0V222.0ZM-178.0 627.0V79.0H-127.0V627.0ZM-109.0 178.0C-207.0 42.0 -403.0 -101.0 -562.0 -168.0C-549.0 -178.0 -534.0 -199.0 -527.0 -212.0C-368.0 -137.0 -167.0 14.0 -64.0 158.0ZM243.0 446.0C84.0 412.0 -213.0 386.0 -460.0 374.0C-451.0 360.0 -445.0 340.0 -441.0 327.0C-193.0 338.0 105.0 365.0 290.0 404.0ZM680.0 236.0C731.0 132.0 769.0 -20.0 770.0 -120.0L807.0 -127.0C805.0 -27.0 764.0 118.0 722.0 230.0Z"/></g>
<g fill="green" transform="translate(1000 100) scale(0.1 -0.1)"><path d="M0.0 0.0V-246.0H533.0V-369.0H263.0V-579.0H932.0V0.0ZM42.0 -208.0V-361.0H912.0V-208.0ZM-307.0 -677.0V-838.0H207.0V-677.0ZM-306.0 242.0V85.0H786.0V242.0ZM-242.0 577.0V42.0H-28.0V577.0ZM-209.0 142.0C-284.0 39.0 -438.0 -67.0 -580.0 -122.0C-546.0 -176.0 -502.0 -264.0 -482.0 -324.0C-317.0 -244.0 -164.0 -78.0 -73.0 81.0ZM233.0 464.0C60.0 421.0 -236.0 395.0 -490.0 386.0C-468.0 344.0 -447.0 275.0 -441.0 230.0C-176.0 234.0 145.0 259.0 365.0 316.0ZM622.0 249.0C654.0 139.0 681.0 -9.0 679.0 -102.0L852.0 -155.0C852.0 -68.0 835.0 68.0 835.0 185.0Z"/></g>
<g fill="green" transform="translate(1100 100) scale(0.1 -0.1)"><path d="M0.0 0.0V-250.0H318.0V-222.0H359.0V-442.0H701.0V0.0ZM-291.0 -236.0V-283.0H173.0V-236.0ZM-213.0 -524.0V-570.0H319.0V-524.0ZM-100.0 348.0V301.0H867.0V348.0ZM-43.0 620.0V85.0H2.0V620.0ZM15.0 186.0C-78.0 58.0 -266.0 -74.0 -414.0 -136.0C-405.0 -146.0 -391.0 -164.0 -385.0 -178.0C-234.0 -108.0 -44.0 32.0 54.0 166.0ZM-91.0 448.0C-222.0 416.0 -467.0 387.0 -671.0 369.0C-663.0 358.0 -655.0 341.0 -653.0 331.0C-445.0 345.0 -198.0 376.0 -45.0 412.0ZM757.0 361.0C846.0 295.0 938.0 190.0 974.0 117.0L1003.0 127.0C967.0 200.0 872.0 298.0 791.0 369.0Z"/></g>
<g fill="green" transform="translate(1200 100) scale(0.1 -0.1)"><path d="M0.0 0.0V-350.0H385.0V-276.0H354.0V-547.0H822.0V0.0ZM-233.0 -266.0V-374.0H121.0V-266.0ZM-149.0 -535.0V-685.0H326.0V-535.0ZM-68.0 418.0V270.0H965.0V418.0ZM-67.0 586.0V49.0H129.0V586.0ZM-27.0 167.0C-104.0 73.0 -261.0 -20.0 -405.0 -68.0C-373.0 -114.0 -333.0 -193.0 -315.0 -246.0C-149.0 -177.0 4.0 -33.0 101.0 108.0ZM-93.0 478.0C-227.0 453.0 -468.0 438.0 -669.0 436.0C-649.0 400.0 -629.0 342.0 -623.0 306.0C-408.0 304.0 -139.0 319.0 41.0 359.0ZM737.0 381.0C818.0 310.0 921.0 206.0 964.0 140.0L1092.0 183.0C1043.0 247.0 945.0 339.0 886.0 411.0Z"/></g>
<g fill="green" transform="translate(1300 100) scale(0.1 -0.1)"><path d="M-0.0 0.0V-339.0H341.0V-237.0H313.0V-549.0H681.0V0.0ZM-198.0 -273.0V-316.0H431.0V-273.0ZM-240.0 -659.0V-702.0H255.0V-659.0ZM-420.0 446.0V404.0H519.0V446.0ZM49.0 403.0V-281.0H92.0V403.0ZM-34.0 322.0C-112.0 167.0 -268.0 -2.0 -395.0 -82.0C-385.0 -91.0 -372.0 -106.0 -366.0 -118.0C-237.0 -31.0 -82.0 146.0 2.0 306.0ZM11.0 671.0C-118.0 621.0 -389.0 585.0 -604.0 565.0C-597.0 554.0 -591.0 539.0 -589.0 528.0C-371.0 549.0 -97.0 587.0 50.0 640.0ZM688.0 281.0C766.0 143.0 829.0 -46.0 842.0 -170.0L879.0 -172.0C866.0 -52.0 799.0 136.0 727.0 278.0Z"/></g>
<g fill="green" transform="translate(1400 100) scale(0.1 -0.1)"><path d="M0.0 0.0V-422.0H406.0V-311.0H286.0V-640.0H783.0V0.0ZM-155.0 -273.0V-417.0H425.0V-273.0ZM-197.0 -618.0V-791.0H309.0V-618.0ZM-418.0 501.0V312.0H592.0V501.0ZM-12.0 344.0V-332.0H194.0V344.0ZM-99.0 318.0C-163.0 193.0 -289.0 66.0 -430.0 0.0C-392.0 -50.0 -341.0 -138.0 -318.0 -194.0C-151.0 -104.0 -25.0 72.0 61.0 254.0ZM-60.0 717.0C-201.0 673.0 -415.0 644.0 -618.0 632.0C-592.0 585.0 -566.0 503.0 -558.0 453.0C-341.0 461.0 -93.0 487.0 108.0 550.0ZM653.0 275.0C712.0 148.0 771.0 -34.0 784.0 -155.0L923.0 -123.0C912.0 -7.0 853.0 161.0 814.0 290.0Z"/></g>
<g fill="red" transform="translate(100 200) scale(0.1 -0.1)"><path d="M0.0 0.0V-389.0H29.0V-30.0H557.0V-386.0H587.0V0.0ZM17.0 -156.0V-186.0H573.0V-156.0ZM17.0 -319.0V-348.0H568.0V-319.0ZM-151.0 280.0V251.0H727.0V280.0ZM270.0 438.0V32.0H300.0V438.0ZM255.0 269.0C163.0 160.0 -16.0 54.0 -158.0 6.0C-150.0 -1.0 -141.0 -11.0 -136.0 -19.0C3.0 33.0 184.0 143.0 280.0 255.0ZM586.0 499.0C445.0 460.0 158.0 432.0 -73.0 418.0C-70.0 410.0 -66.0 400.0 -65.0 392.0C170.0 405.0 454.0 434.0 615.0 476.0ZM291.0 241.0C443.0 166.0 624.0 53.0 716.0 -26.0L732.0 2.0C641.0 77.0 459.0 189.0 307.0 263.0Z"/></g>
<g fill="black" opacity=".8" transform="translate(100 200) scale(0.1 -0.1)"><path d="M0.0 0.0V-389.0H30.0V-29.0H558.0V-386.0H588.0V0.0ZM18.0 -157.0V-187.0H573.0V-157.0ZM17.0 -318.0V-348.0H568.0V-318.0ZM-150.0 280.0V250.0H727.0V280.0ZM271.0 438.0V32.0H300.0V438.0ZM254.0 268.0C163.0 160.0 -15.0 54.0 -158.0 6.0C-150.0 -1.0 -140.0 -11.0 -135.0 -19.0C3.0 33.0 184.0 143.0 279.0 255.0ZM586.0 499.0C444.0 459.0 158.0 432.0 -73.0 418.0C-69.0 411.0 -67.0 400.0 -66.0 392.0C170.0 406.0 454.0 434.0 615.0 477.0ZM291.0 240.0C442.0 166.0 625.0 54.0 717.0 -25.0L732.0 2.0C641.0 76.0 458.0 188.0 307.0 262.0Z"/></g>
<g fill="red" transform="translate(200 200) scale(0.1 -0.1)"><path d="M0.0 0.0V-406.0H145.0V-108.0H482.0V-406.0H634.0V0.0ZM87.0 -141.0V-237.0H524.0V-141.0ZM87.0 -270.0V-378.0H551.0V-270.0ZM-142.0 316.0V187.0H759.0V316.0ZM233.0 421.0V20.0H385.0V421.0ZM194.0 286.0C119.0 192.0 -26.0 110.0 -180.0 71.0C-148.0 40.0 -103.0 -18.0 -82.0 -54.0C79.0 1.0 223.0 107.0 313.0 239.0ZM554.0 545.0C401.0 507.0 162.0 485.0 -56.0 478.0C-41.0 446.0 -24.0 390.0 -20.0 355.0C202.0 359.0 458.0 379.0 654.0 428.0ZM322.0 179.0C449.0 112.0 618.0 6.0 696.0 -67.0L782.0 43.0C698.0 114.0 522.0 213.0 400.0 273.0Z"/></g>
<g fill="black" opacity=".8" transform="translate(200 200) scale(0.1 -0.1)"><path d="M0.0 0.0V-406.0H145.0V-108.0H482.0V-405.0H635.0V0.0ZM87.0 -141.0V-237.0H524.0V-141.0ZM88.0 -270.0V-377.0H552.0V-270.0ZM-142.0 317.0V187.0H759.0V317.0ZM234.0 420.0V21.0H385.0V420.0ZM194.0 286.0C119.0 192.0 -26.0 110.0 -180.0 71.0C-148.0 41.0 -102.0 -18.0 -82.0 -55.0C79.0 0.0 223.0 107.0 313.0 239.0ZM554.0 545.0C400.0 507.0 161.0 485.0 -56.0 478.0C-41.0 447.0 -24.0 390.0 -19.0 355.0C202.0 360.0 459.0 378.0 654.0 429.0ZM322.0 179.0C449.0 112.0 619.0 5.0 697.0 -67.0L783.0 44.0C698.0 114.0 522.0 213.0 400.0 273.0Z"/></g>
<g fill="red" transform="translate(300 200) scale(0.1 -0.1)"><path d="M0.0 0.0V-381.0H29.0V-29.0H278.0V-377.0H307.0V0.0ZM13.0 -148.0V-177.0H244.0V-148.0ZM13.0 -298.0V-327.0H296.0V-298.0ZM379.0 265.0V235.0H821.0V265.0ZM136.0 418.0V-20.0H165.0V418.0ZM122.0 260.0C75.0 165.0 -21.0 62.0 -98.0 12.0C-93.0 6.0 -84.0 -6.0 -80.0 -14.0C1.0 41.0 96.0 149.0 147.0 248.0ZM299.0 475.0C221.0 440.0 61.0 410.0 -66.0 390.0C-62.0 383.0 -57.0 373.0 -56.0 367.0C75.0 384.0 234.0 415.0 324.0 453.0ZM606.0 451.0C653.0 414.0 704.0 360.0 728.0 322.0L749.0 341.0C727.0 378.0 674.0 430.0 627.0 467.0Z"/></g>
<g fill="black" opacity=".8" transform="translate(300 200) scale(0.1 -0.1)"><path d="M0.0 0.0V-381.0H30.0V-28.0H278.0V-377.0H307.0V0.0ZM14.0 -149.0V-177.0H244.0V-149.0ZM13.0 -297.0V-327.0H296.0V-297.0ZM379.0 265.0V234.0H821.0V265.0ZM136.0 418.0V-20.0H165.0V418.0ZM122.0 259.0C75.0 165.0 -21.0 62.0 -99.0 13.0C-93.0 6.0 -83.0 -6.0 -80.0 -15.0C1.0 41.0 96.0 149.0 147.0 248.0ZM300.0 475.0C220.0 440.0 62.0 410.0 -66.0 390.0C-62.0 384.0 -58.0 373.0 -57.0 367.0C74.0 385.0 234.0 415.0 325.0 454.0ZM606.0 451.0C653.0 414.0 705.0 361.0 729.0 322.0L749.0 341.0C727.0 377.0 673.0 429.0 627.0 466.0Z"/></g>
<g fill="red" transform="translate(400 200) scale(0.1 -0.1)"><path d="M0.0 0.0V-423.0H122.0V-111.0H263.0V-419.0H390.0V0.0ZM49.0 -144.0V-243.0H234.0V-144.0ZM45.0 -277.0V-388.0H307.0V-277.0ZM428.0 328.0V207.0H874.0V328.0ZM130.0 414.0V-32.0H260.0V414.0ZM122.0 271.0C83.0 199.0 4.0 120.0 -74.0 77.0C-55.0 43.0 -29.0 -12.0 -19.0 -49.0C76.0 8.0 155.0 123.0 208.0 228.0ZM327.0 514.0C236.0 487.0 92.0 470.0 -38.0 463.0C-24.0 434.0 -7.0 386.0 -3.0 356.0C134.0 360.0 297.0 376.0 419.0 411.0ZM627.0 428.0C681.0 396.0 749.0 346.0 780.0 311.0L864.0 401.0C830.0 436.0 759.0 481.0 706.0 510.0Z"/></g>
<g fill="black" opacity=".8" transform="translate(400 200) scale(0.1 -0.1)"><path d="M0.0 0.0V-423.0H122.0V-111.0H263.0V-418.0H390.0V0.0ZM49.0 -144.0V-243.0H234.0V-144.0ZM46.0 -277.0V-388.0H308.0V-277.0ZM428.0 329.0V207.0H874.0V329.0ZM130.0 413.0V-31.0H260.0V413.0ZM121.0 271.0C84.0 199.0 4.0 120.0 -74.0 77.0C-54.0 43.0 -29.0 -13.0 -19.0 -50.0C76.0 8.0 155.0 123.0 208.0 229.0ZM327.0 514.0C235.0 488.0 91.0 470.0 -38.0 463.0C-24.0 435.0 -7.0 386.0 -2.0 356.0C134.0 360.0 297.0 375.0 418.0 412.0ZM628.0 428.0C681.0 396.0 750.0 345.0 780.0 311.0L865.0 402.0C830.0 436.0 759.0 482.0 705.0 509.0Z"/></g>
<g fill="red" transform="translate(500 200) scale(0.1 -0.1)"><path d="M0.0 0.0V-378.0H29.0V-30.0H282.0V-370.0H312.0V0.0ZM17.0 -147.0V-177.0H295.0V-147.0ZM17.0 -297.0V-327.0H295.0V-297.0ZM-54.0 299.0V270.0H362.0V299.0ZM141.0 442.0V28.0H171.0V442.0ZM127.0 290.0C85.0 199.0 -2.0 99.0 -73.0 51.0C-67.0 46.0 -58.0 34.0 -54.0 26.0C21.0 79.0 106.0 184.0 153.0 279.0ZM297.0 498.0C222.0 468.0 73.0 442.0 -48.0 427.0C-43.0 419.0 -39.0 408.0 -37.0 401.0C85.0 416.0 236.0 442.0 322.0 475.0ZM734.0 165.0C781.0 69.0 815.0 -54.0 821.0 -136.0L851.0 -129.0C844.0 -48.0 809.0 77.0 760.0 172.0Z"/></g>
<g fill="black" opacity=".8" transform="translate(500 200) scale(0.1 -0.1)"><path d="M0.0 0.0V-378.0H30.0V-30.0H282.0V-370.0H312.0V0.0ZM18.0 -147.0V-177.0H295.0V-147.0ZM17.0 -297.0V-328.0H295.0V-297.0ZM-54.0 299.0V270.0H362.0V299.0ZM142.0 442.0V28.0H171.0V442.0ZM126.0 290.0C85.0 199.0 -2.0 99.0 -73.0 51.0C-67.0 46.0 -57.0 34.0 -54.0 26.0C21.0 79.0 106.0 184.0 153.0 279.0ZM298.0 498.0C221.0 467.0 73.0 442.0 -48.0 427.0C-42.0 420.0 -40.0 408.0 -38.0 401.0C85.0 417.0 236.0 442.0 322.0 476.0ZM734.0 165.0C781.0 69.0 815.0 -54.0 821.0 -135.0L851.0 -129.0C844.0 -48.0 809.0 76.0 760.0 171.0Z"/></g>
<g fill="red" transform="translate(600 200) scale(0.1 -0.1)"><path d="M0.0 0.0V-419.0H125.0V-111.0H255.0V-415.0H387.0V0.0ZM53.0 -141.0V-241.0H315.0V-141.0ZM50.0 -273.0V-384.0H312.0V-273.0ZM-37.0 336.0V216.0H414.0V336.0ZM127.0 427.0V17.0H257.0V427.0ZM119.0 298.0C83.0 225.0 11.0 143.0 -62.0 98.0C-43.0 63.0 -17.0 9.0 -6.0 -28.0C83.0 32.0 157.0 151.0 205.0 258.0ZM314.0 531.0C226.0 501.0 85.0 481.0 -43.0 472.0C-28.0 443.0 -12.0 395.0 -7.0 365.0C129.0 372.0 289.0 390.0 409.0 429.0ZM717.0 171.0C748.0 80.0 774.0 -42.0 779.0 -120.0L904.0 -87.0C895.0 -7.0 868.0 110.0 833.0 201.0Z"/></g>
<g fill="black" opacity=".8" transform="translate(600 200) scale(0.1 -0.1)"><path d="M0.0 0.0V-419.0H125.0V-111.0H255.0V-415.0H387.0V0.0ZM53.0 -141.0V-241.0H315.0V-141.0ZM50.0 -273.0V-384.0H313.0V-273.0ZM-37.0 337.0V216.0H414.0V337.0ZM127.0 427.0V18.0H257.0V427.0ZM118.0 298.0C83.0 225.0 11.0 143.0 -62.0 98.0C-43.0 63.0 -17.0 9.0 -6.0 -29.0C83.0 32.0 157.0 151.0 205.0 258.0ZM314.0 531.0C226.0 502.0 85.0 481.0 -43.0 472.0C-28.0 444.0 -12.0 395.0 -7.0 365.0C129.0 372.0 289.0 390.0 409.0 429.0ZM717.0 171.0C748.0 80.0 774.0 -43.0 779.0 -120.0L905.0 -87.0C895.0 -6.0 868.0 110.0 833.0 200.0Z"/></g>
<g fill="red" transform="translate(700 200) scale(0.1 -0.1)"><path d="M0.0 0.0V-389.0H29.0V-29.0H285.0V-386.0H314.0V0.0ZM340.0 -89.0V-118.0H844.0V-89.0ZM16.0 -316.0V-346.0H303.0V-316.0ZM395.0 149.0V120.0H764.0V149.0ZM136.0 429.0V24.0H166.0V429.0ZM127.0 294.0C84.0 204.0 -3.0 104.0 -76.0 56.0C-69.0 50.0 -60.0 38.0 -56.0 31.0C19.0 84.0 106.0 188.0 153.0 283.0ZM779.0 495.0C687.0 458.0 502.0 429.0 354.0 413.0C357.0 405.0 360.0 394.0 362.0 387.0C511.0 402.0 695.0 431.0 799.0 472.0ZM539.0 368.0C561.0 310.0 581.0 234.0 588.0 184.0L613.0 197.0C607.0 246.0 586.0 322.0 561.0 380.0Z"/></g>
<g fill="black" opacity=".8" transform="translate(700 200) scale(0.1 -0.1)"><path d="M0.0 0.0V-389.0H30.0V-28.0H286.0V-386.0H314.0V0.0ZM341.0 -90.0V-118.0H844.0V-90.0ZM16.0 -316.0V-346.0H303.0V-316.0ZM396.0 150.0V119.0H764.0V150.0ZM137.0 429.0V24.0H166.0V429.0ZM126.0 293.0C84.0 204.0 -2.0 104.0 -77.0 56.0C-69.0 50.0 -59.0 38.0 -55.0 31.0C19.0 84.0 106.0 187.0 153.0 283.0ZM780.0 495.0C686.0 457.0 502.0 429.0 354.0 413.0C358.0 406.0 359.0 394.0 361.0 387.0C511.0 404.0 695.0 431.0 800.0 472.0ZM538.0 368.0C561.0 309.0 582.0 235.0 589.0 184.0L613.0 197.0C608.0 246.0 586.0 321.0 561.0 379.0Z"/></g>
<g fill="red" transform="translate(800 200) scale(0.1 -0.1)"><path d="M0.0 0.0V-406.0H119.0V-105.0H228.0V-402.0H353.0V0.0ZM377.0 -57.0V-186.0H886.0V-57.0ZM44.0 -268.0V-375.0H285.0V-268.0ZM415.0 173.0V53.0H751.0V173.0ZM111.0 427.0V26.0H238.0V427.0ZM97.0 305.0C67.0 232.0 3.0 148.0 -62.0 102.0C-45.0 66.0 -20.0 11.0 -10.0 -27.0C70.0 35.0 136.0 157.0 177.0 265.0ZM821.0 529.0C705.0 488.0 531.0 461.0 370.0 448.0C383.0 417.0 400.0 365.0 403.0 330.0C566.0 340.0 753.0 364.0 896.0 411.0ZM549.0 324.0C571.0 272.0 590.0 202.0 593.0 156.0L706.0 199.0C701.0 245.0 680.0 313.0 655.0 363.0Z"/></g>
<g fill="black" opacity=".8" transform="translate(800 200) scale(0.1 -0.1)"><path d="M0.0 0.0V-406.0H120.0V-105.0H228.0V-401.0H353.0V0.0ZM377.0 -57.0V-186.0H885.0V-57.0ZM45.0 -268.0V-375.0H286.0V-268.0ZM414.0 174.0V53.0H751.0V174.0ZM111.0 427.0V27.0H238.0V427.0ZM97.0 305.0C67.0 232.0 3.0 148.0 -63.0 102.0C-44.0 66.0 -19.0 11.0 -10.0 -28.0C70.0 34.0 136.0 157.0 177.0 265.0ZM821.0 529.0C704.0 488.0 530.0 461.0 370.0 448.0C383.0 418.0 399.0 365.0 404.0 330.0C567.0 341.0 754.0 363.0 895.0 412.0ZM550.0 324.0C571.0 272.0 590.0 201.0 594.0 155.0L707.0 199.0C700.0 245.0 679.0 313.0 655.0 363.0Z"/></g>
<g fill="red" transform="translate(900 200) scale(0.1 -0.1)"><path d="M0.0 0.0V-29.0H415.0V-280.0H-4.0V-309.0H445.0V0.0ZM-22.0 -136.0V-165.0H513.0V-136.0ZM-323.0 -515.0V-545.0H-80.0V-515.0ZM-10.0 125.0V95.0H503.0V125.0ZM-214.0 230.0V-175.0H-184.0V230.0ZM-222.0 95.0C-262.0 6.0 -341.0 -94.0 -407.0 -143.0C-400.0 -149.0 -392.0 -161.0 -388.0 -168.0C-319.0 -115.0 -239.0 -9.0 -197.0 84.0ZM-57.0 281.0C-129.0 256.0 -273.0 237.0 -388.0 227.0C-384.0 219.0 -379.0 208.0 -377.0 201.0C-261.0 210.0 -116.0 230.0 -32.0 258.0ZM383.0 287.0C357.0 237.0 309.0 164.0 272.0 119.0L296.0 105.0C333.0 150.0 377.0 217.0 411.0 274.0Z"/></g>
<g fill="black" opacity=".8" transform="translate(900 200) scale(0.1 -0.1)"><path d="M0.0 0.0V-29.0H415.0V-279.0H-4.0V-309.0H445.0V0.0ZM-21.0 -137.0V-165.0H514.0V-137.0ZM-323.0 -514.0V-545.0H-80.0V-514.0ZM-10.0 125.0V95.0H503.0V125.0ZM-213.0 230.0V-174.0H-184.0V230.0ZM-222.0 94.0C-261.0 6.0 -341.0 -95.0 -408.0 -143.0C-400.0 -149.0 -392.0 -161.0 -387.0 -168.0C-320.0 -115.0 -238.0 -10.0 -197.0 84.0ZM-56.0 281.0C-130.0 255.0 -273.0 237.0 -388.0 227.0C-383.0 220.0 -380.0 209.0 -378.0 202.0C-262.0 211.0 -116.0 230.0 -32.0 258.0ZM383.0 287.0C357.0 237.0 310.0 164.0 272.0 119.0L296.0 105.0C333.0 150.0 376.0 217.0 411.0 273.0Z"/></g>
<g fill="red" transform="translate(1000 200) scale(0.1 -0.1)"><path d="M0.0 0.0V-101.0H391.0V-283.0H-4.0V-384.0H498.0V0.0ZM-11.0 -139.0V-244.0H536.0V-139.0ZM-314.0 -505.0V-612.0H-62.0V-505.0ZM-12.0 147.0V43.0H513.0V147.0ZM-260.0 190.0V-211.0H-135.0V190.0ZM-279.0 68.0C-306.0 4.0 -364.0 -68.0 -421.0 -107.0C-403.0 -142.0 -380.0 -198.0 -370.0 -236.0C-292.0 -181.0 -234.0 -69.0 -196.0 30.0ZM-77.0 291.0C-159.0 265.0 -290.0 248.0 -409.0 241.0C-394.0 212.0 -379.0 165.0 -375.0 135.0C-249.0 139.0 -99.0 155.0 13.0 190.0ZM341.0 295.0C322.0 245.0 285.0 178.0 256.0 133.0L342.0 86.0C377.0 124.0 421.0 183.0 466.0 240.0Z"/></g>
<g fill="black" opacity=".8" transform="translate(1000 200) scale(0.1 -0.1)"><path d="M0.0 0.0V-101.0H391.0V-283.0H-4.0V-384.0H499.0V0.0ZM-11.0 -139.0V-244.0H536.0V-139.0ZM-313.0 -505.0V-612.0H-61.0V-505.0ZM-13.0 147.0V43.0H513.0V147.0ZM-260.0 190.0V-211.0H-135.0V190.0ZM-279.0 68.0C-305.0 4.0 -365.0 -68.0 -421.0 -107.0C-403.0 -142.0 -379.0 -198.0 -370.0 -237.0C-292.0 -182.0 -234.0 -69.0 -196.0 30.0ZM-77.0 290.0C-160.0 265.0 -291.0 248.0 -409.0 241.0C-394.0 213.0 -379.0 166.0 -375.0 136.0C-249.0 139.0 -99.0 155.0 12.0 191.0ZM341.0 295.0C323.0 244.0 285.0 177.0 256.0 133.0L343.0 87.0C377.0 124.0 421.0 184.0 466.0 241.0Z"/></g>
<g fill="red" transform="translate(1100 200) scale(0.1 -0.1)"><path d="M0.0 0.0V-227.0H29.0V-29.0H557.0V-225.0H587.0V0.0ZM18.0 -82.0V-112.0H513.0V-82.0ZM22.0 -167.0V-196.0H574.0V-167.0ZM-125.0 122.0V92.0H705.0V122.0ZM144.0 594.0V417.0H173.0V594.0ZM269.0 113.0C172.0 47.0 -19.0 -7.0 -168.0 -29.0C-161.0 -35.0 -152.0 -47.0 -148.0 -55.0C-2.0 -29.0 195.0 28.0 295.0 98.0ZM567.0 221.0C431.0 206.0 186.0 192.0 -22.0 187.0C-18.0 179.0 -14.0 168.0 -13.0 160.0C198.0 163.0 440.0 177.0 598.0 195.0ZM290.0 86.0C437.0 51.0 620.0 -13.0 716.0 -62.0L726.0 -34.0C630.0 15.0 448.0 75.0 301.0 110.0Z"/></g>
<g fill="black" opacity=".8" transform="translate(1100 200) scale(0.1 -0.1)"><path d="M0.0 0.0V-227.0H29.0V-28.0H558.0V-225.0H587.0V0.0ZM19.0 -83.0V-112.0H513.0V-83.0ZM22.0 -167.0V-196.0H574.0V-167.0ZM-124.0 122.0V91.0H705.0V122.0ZM145.0 594.0V417.0H173.0V594.0ZM269.0 113.0C172.0 47.0 -19.0 -7.0 -169.0 -29.0C-161.0 -35.0 -151.0 -47.0 -147.0 -55.0C-3.0 -29.0 195.0 27.0 294.0 98.0ZM567.0 221.0C430.0 205.0 186.0 192.0 -22.0 187.0C-17.0 180.0 -15.0 168.0 -14.0 160.0C198.0 164.0 439.0 177.0 598.0 195.0ZM289.0 86.0C437.0 51.0 620.0 -13.0 716.0 -62.0L726.0 -34.0C630.0 14.0 447.0 75.0 301.0 109.0Z"/></g>
<g fill="red" transform="translate(1200 200) scale(0.1 -0.1)"><path d="M0.0 0.0V-249.0H128.0V-69.0H487.0V-249.0H622.0V0.0ZM98.0 -87.0V-144.0H450.0V-87.0ZM106.0 -163.0V-231.0H503.0V-163.0ZM-121.0 136.0V66.0H730.0V136.0ZM131.0 595.0V424.0H255.0V595.0ZM214.0 110.0C134.0 56.0 -23.0 15.0 -164.0 -2.0C-140.0 -25.0 -109.0 -67.0 -94.0 -95.0C46.0 -66.0 201.0 -4.0 289.0 76.0ZM593.0 240.0C452.0 218.0 197.0 208.0 -11.0 208.0C-4.0 191.0 5.0 163.0 6.0 144.0C217.0 142.0 478.0 152.0 644.0 179.0ZM308.0 61.0C427.0 18.0 592.0 -47.0 672.0 -86.0L763.0 -26.0C670.0 15.0 505.0 75.0 392.0 113.0Z"/></g>
<g fill="black" opacity=".8" transform="translate(1200 200) scale(0.1 -0.1)"><path d="M0.0 0.0V-249.0H128.0V-69.0H487.0V-249.0H623.0V0.0ZM98.0 -87.0V-144.0H449.0V-87.0ZM107.0 -163.0V-231.0H504.0V-163.0ZM-122.0 137.0V66.0H730.0V137.0ZM132.0 595.0V425.0H255.0V595.0ZM213.0 110.0C135.0 56.0 -23.0 15.0 -164.0 -2.0C-140.0 -25.0 -109.0 -67.0 -94.0 -96.0C46.0 -67.0 201.0 -4.0 288.0 77.0ZM593.0 240.0C451.0 218.0 197.0 208.0 -11.0 208.0C-4.0 192.0 5.0 164.0 6.0 145.0C217.0 142.0 479.0 152.0 643.0 180.0ZM309.0 61.0C427.0 18.0 592.0 -48.0 673.0 -86.0L764.0 -25.0C670.0 15.0 505.0 75.0 392.0 113.0Z"/></g>
</svg>
