<?xml version="1.0" encoding="UTF-8"?>
<svg width="1700" height="500" xmlns="http://www.w3.org/2000/svg">
<rect width="100%" height="100%" fill="white"/>
<g fill="green" transform="translate(100 100) scale(0.1 -0.1)"><path d="M-0.0 -0.0V-39.0H595.0V-0.0ZM92.0 -280.0 335.0 -207.0 347.0 -387.0 104.0 -461.0ZM103.0 -313.0V-459.0H395.0V-313.0ZM8.0 -463.0V-1031.0H47.0V-503.0H531.0V-463.0ZM513.0 -463.0V-972.0C513.0 -983.0 507.0 -986.0 495.0 -987.0C482.0 -988.0 435.0 -988.0 382.0 -987.0C388.0 -996.0 396.0 -1011.0 398.0 -1021.0C469.0 -1022.0 505.0 -1022.0 526.0 -1014.0C547.0 -1007.0 552.0 -995.0 552.0 -970.0V-463.0ZM197.0 167.0C243.0 117.0 293.0 49.0 316.0 5.0L346.0 27.0C324.0 72.0 272.0 139.0 225.0 186.0ZM150.0 -606.0V-647.0H379.0V-824.0H150.0V-864.0H419.0V-606.0ZM70.0 -571.0V-919.0H110.0V-571.0Z"/></g>
<g fill="green" transform="translate(200 100) scale(0.1 -0.1)"><path d="M0.0 0.0V-148.0H643.0V0.0ZM214.0 -408.0 299.0 -332.0 294.0 -410.0 209.0 -486.0ZM125.0 -346.0V-553.0H459.0V-346.0ZM15.0 -496.0V-1118.0H157.0V-636.0H543.0V-496.0ZM488.0 -496.0V-970.0C488.0 -983.0 484.0 -986.0 473.0 -987.0C463.0 -987.0 432.0 -987.0 406.0 -986.0C421.0 -1022.0 437.0 -1076.0 442.0 -1116.0C501.0 -1116.0 549.0 -1115.0 585.0 -1094.0C621.0 -1071.0 630.0 -1037.0 630.0 -971.0V-496.0ZM179.0 128.0C218.0 79.0 264.0 8.0 282.0 -35.0L413.0 38.0C391.0 83.0 340.0 149.0 296.0 194.0ZM216.0 -670.0V-773.0H347.0V-856.0H217.0V-957.0H451.0V-670.0ZM115.0 -627.0V-993.0H228.0V-627.0Z"/></g>
<g fill="green" transform="translate(300 100) scale(0.1 -0.1)"><path d="M0.0 0.0V-31.0H420.0V0.0ZM15.0 -242.0 172.0 -156.0 174.0 -310.0 17.0 -397.0ZM54.0 -287.0V-379.0H231.0V-287.0ZM0.0 -364.0V-818.0H30.0V-395.0H370.0V-364.0ZM356.0 -364.0V-772.0C356.0 -780.0 351.0 -782.0 342.0 -783.0C333.0 -784.0 297.0 -784.0 259.0 -783.0C264.0 -790.0 270.0 -801.0 271.0 -809.0C325.0 -810.0 351.0 -810.0 367.0 -804.0C383.0 -798.0 387.0 -789.0 387.0 -770.0V-364.0ZM108.0 136.0C147.0 95.0 190.0 40.0 210.0 4.0L233.0 23.0C214.0 60.0 169.0 114.0 129.0 152.0ZM100.0 -478.0V-511.0H261.0V-652.0H100.0V-684.0H292.0V-478.0ZM35.0 -449.0V-726.0H66.0V-449.0Z"/></g>
<g fill="green" transform="translate(400 100) scale(0.1 -0.1)"><path d="M0.0 0.0V-115.0H458.0V0.0ZM116.0 -349.0 147.0 -256.0 130.0 -326.0 99.0 -418.0ZM81.0 -309.0V-452.0H278.0V-309.0ZM10.0 -388.0V-886.0H117.0V-497.0H381.0V-388.0ZM344.0 -388.0V-773.0C344.0 -783.0 341.0 -785.0 333.0 -786.0C326.0 -786.0 305.0 -786.0 287.0 -785.0C297.0 -813.0 309.0 -854.0 312.0 -884.0C356.0 -884.0 391.0 -884.0 417.0 -868.0C443.0 -850.0 450.0 -824.0 450.0 -773.0V-388.0ZM97.0 108.0C130.0 70.0 170.0 14.0 185.0 -20.0L281.0 42.0C262.0 78.0 218.0 130.0 180.0 165.0ZM152.0 -524.0V-604.0H242.0V-675.0H153.0V-753.0H317.0V-524.0ZM76.0 -488.0V-779.0H160.0V-488.0Z"/></g>
<g fill="green" transform="translate(500 100) scale(0.1 -0.1)"><path d="M-0.0 -0.0V-35.0H1018.0V0.0ZM-134.0 -237.0 451.0 -74.0 390.0 -236.0 -195.0 -400.0ZM12.0 -303.0V-341.0H558.0V-303.0ZM22.0 -337.0V-740.0H57.0V-373.0H951.0V-337.0ZM937.0 -337.0V-686.0C937.0 -697.0 931.0 -700.0 917.0 -701.0C902.0 -703.0 850.0 -702.0 786.0 -701.0C792.0 -710.0 799.0 -723.0 801.0 -732.0C882.0 -733.0 923.0 -733.0 945.0 -726.0C967.0 -719.0 972.0 -708.0 972.0 -684.0V-337.0ZM365.0 188.0C432.0 151.0 513.0 97.0 556.0 61.0L574.0 94.0C533.0 131.0 450.0 184.0 381.0 217.0ZM256.0 -454.0V-491.0H708.0V-597.0H256.0V-633.0H744.0V-454.0ZM224.0 -444.0V-675.0H259.0V-444.0Z"/></g>
<g fill="green" transform="translate(600 100) scale(0.1 -0.1)"><path d="M0.0 0.0V-115.0H1029.0V0.0ZM-12.0 -379.0 356.0 -187.0 270.0 -257.0 -98.0 -448.0ZM-1.0 -338.0V-424.0H603.0V-338.0ZM22.0 -365.0V-799.0H194.0V-475.0H887.0V-365.0ZM843.0 -365.0V-653.0C843.0 -668.0 837.0 -671.0 823.0 -671.0C812.0 -671.0 763.0 -672.0 732.0 -670.0C750.0 -705.0 773.0 -756.0 783.0 -796.0C851.0 -797.0 910.0 -796.0 956.0 -777.0C1002.0 -755.0 1016.0 -724.0 1016.0 -653.0V-365.0ZM342.0 146.0C398.0 122.0 472.0 81.0 509.0 56.0L599.0 148.0C559.0 174.0 479.0 211.0 416.0 227.0ZM345.0 -504.0V-595.0H608.0V-642.0H345.0V-731.0H767.0V-504.0ZM238.0 -493.0V-744.0H399.0V-493.0Z"/></g>
<g fill="green" transform="translate(700 100) scale(0.1 -0.1)"><path d="M0.0 -0.0V-39.0H503.0V-0.0ZM480.0 -148.0 420.0 -530.0 521.0 -565.0 581.0 -183.0ZM55.0 -305.0V-444.0H299.0V-305.0ZM-2.0 -449.0V-993.0H36.0V-489.0H431.0V-449.0ZM416.0 -449.0V-930.0C416.0 -942.0 411.0 -945.0 398.0 -946.0C385.0 -947.0 337.0 -947.0 281.0 -946.0C287.0 -955.0 295.0 -969.0 297.0 -980.0C371.0 -981.0 408.0 -981.0 430.0 -974.0C450.0 -965.0 455.0 -954.0 455.0 -928.0V-449.0ZM630.0 217.0C658.0 183.0 688.0 127.0 700.0 89.0L723.0 95.0C712.0 132.0 681.0 180.0 657.0 219.0ZM123.0 -571.0V-613.0H310.0V-797.0H123.0V-837.0H350.0V-571.0ZM219.0 -630.0V-871.0H259.0V-630.0Z"/></g>
<g fill="green" transform="translate(800 100) scale(0.1 -0.1)"><path d="M0.0 0.0V-143.0H578.0V0.0ZM549.0 -168.0 448.0 -603.0 611.0 -636.0 713.0 -202.0ZM94.0 -339.0V-535.0H386.0V-339.0ZM8.0 -480.0V-1072.0H142.0V-616.0H493.0V-480.0ZM437.0 -480.0V-932.0C437.0 -946.0 432.0 -948.0 423.0 -950.0C414.0 -950.0 388.0 -950.0 366.0 -949.0C379.0 -982.0 394.0 -1032.0 400.0 -1071.0C452.0 -1071.0 496.0 -1070.0 528.0 -1050.0C561.0 -1028.0 570.0 -998.0 570.0 -933.0V-480.0ZM634.0 207.0C664.0 166.0 698.0 104.0 709.0 58.0L791.0 82.0C783.0 125.0 756.0 182.0 739.0 234.0ZM199.0 -647.0V-736.0H307.0V-830.0H202.0V-917.0H402.0V-647.0ZM297.0 -721.0V-954.0H395.0V-721.0Z"/></g>
<g fill="green" transform="translate(900 100) scale(0.1 -0.1)"><path d="M-0.0 0.0V-38.0H609.0V-0.0ZM432.0 -366.0 725.0 -117.0 783.0 -317.0 489.0 -567.0ZM546.0 -221.0V-462.0H835.0V-221.0ZM32.0 -440.0V-970.0H73.0V-479.0H533.0V-440.0ZM509.0 -440.0V-912.0C509.0 -924.0 503.0 -928.0 489.0 -929.0C472.0 -931.0 422.0 -930.0 357.0 -929.0C364.0 -939.0 373.0 -954.0 375.0 -965.0C452.0 -966.0 496.0 -966.0 519.0 -957.0C543.0 -950.0 549.0 -937.0 549.0 -911.0V-440.0ZM32.0 159.0C86.0 119.0 150.0 67.0 183.0 31.0L214.0 63.0C182.0 98.0 118.0 153.0 60.0 186.0ZM177.0 -576.0V-616.0H371.0V-775.0H177.0V-816.0H409.0V-576.0ZM307.0 -649.0V-858.0H346.0V-649.0Z"/></g>
<g fill="green" transform="translate(1000 100) scale(0.1 -0.1)"><path d="M0.0 0.0V-142.0H630.0V0.0ZM585.0 -473.0 686.0 -220.0 685.0 -312.0 584.0 -564.0ZM566.0 -232.0V-530.0H904.0V-232.0ZM29.0 -488.0V-1075.0H169.0V-612.0H541.0V-488.0ZM464.0 -488.0V-936.0C464.0 -950.0 459.0 -954.0 444.0 -954.0C432.0 -955.0 386.0 -955.0 348.0 -953.0C364.0 -987.0 382.0 -1037.0 388.0 -1073.0C460.0 -1074.0 513.0 -1073.0 555.0 -1053.0C595.0 -1032.0 607.0 -1000.0 607.0 -938.0V-488.0ZM1.0 110.0C54.0 66.0 117.0 0.0 146.0 -37.0L285.0 50.0C249.0 92.0 176.0 153.0 112.0 189.0ZM235.0 -647.0V-739.0H332.0V-827.0H236.0V-918.0H427.0V-647.0ZM350.0 -737.0V-943.0H437.0V-737.0Z"/></g>
<g fill="green" transform="translate(1100 100) scale(0.1 -0.1)"><path d="M-0.0 0.0V-39.0H585.0V-0.0ZM179.0 -244.0 496.0 -198.0 416.0 -401.0 98.0 -448.0ZM244.0 -267.0V-462.0H572.0V-267.0ZM4.0 -468.0V-1020.0H43.0V-508.0H529.0V-468.0ZM513.0 -468.0V-968.0C513.0 -981.0 507.0 -984.0 495.0 -984.0C480.0 -986.0 432.0 -985.0 375.0 -984.0C381.0 -994.0 389.0 -1009.0 391.0 -1017.0C466.0 -1019.0 503.0 -1019.0 524.0 -1011.0C546.0 -1005.0 551.0 -992.0 551.0 -967.0V-468.0ZM250.0 197.0C300.0 153.0 357.0 92.0 384.0 51.0L413.0 75.0C387.0 117.0 330.0 177.0 279.0 218.0ZM156.0 -609.0V-650.0H376.0V-823.0H156.0V-864.0H416.0V-609.0ZM-261.0 -400.0V-946.0H-222.0V-400.0Z"/></g>
<g fill="green" transform="translate(1200 100) scale(0.1 -0.1)"><path d="M0.0 0.0V-149.0H644.0V0.0ZM314.0 -380.0 424.0 -308.0 345.0 -392.0 234.0 -464.0ZM289.0 -291.0V-543.0H608.0V-291.0ZM17.0 -497.0V-1100.0H162.0V-641.0H529.0V-497.0ZM480.0 -497.0V-955.0C480.0 -966.0 477.0 -969.0 469.0 -970.0C461.0 -969.0 442.0 -970.0 423.0 -969.0C438.0 -1006.0 454.0 -1060.0 459.0 -1102.0C509.0 -1102.0 551.0 -1101.0 584.0 -1078.0C617.0 -1055.0 624.0 -1021.0 624.0 -956.0V-497.0ZM228.0 167.0C276.0 120.0 335.0 53.0 359.0 11.0L463.0 80.0C435.0 125.0 372.0 188.0 321.0 232.0ZM236.0 -667.0V-772.0H334.0V-836.0H236.0V-940.0H437.0V-667.0ZM-231.0 -407.0V-1012.0H-110.0V-407.0Z"/></g>
<g fill="green" transform="translate(1300 100) scale(0.1 -0.1)"><path d="M0.0 0.0V-39.0H611.0V0.0ZM205.0 -382.0 244.0 -272.0 589.0 -356.0 549.0 -468.0ZM-25.0 -339.0V-444.0H232.0V-339.0ZM23.0 -450.0V-1019.0H62.0V-488.0H556.0V-450.0ZM535.0 -450.0V-959.0C535.0 -971.0 528.0 -974.0 516.0 -976.0C503.0 -976.0 453.0 -977.0 398.0 -976.0C404.0 -984.0 412.0 -999.0 414.0 -1007.0C488.0 -1009.0 525.0 -1009.0 546.0 -1001.0C567.0 -995.0 572.0 -983.0 572.0 -958.0V-450.0ZM123.0 152.0C165.0 94.0 207.0 20.0 227.0 -27.0L260.0 -8.0C241.0 39.0 195.0 114.0 152.0 167.0ZM174.0 -595.0V-635.0H397.0V-805.0H174.0V-843.0H436.0V-595.0ZM0.0 -514.0V-933.0H39.0V-514.0Z"/></g>
<g fill="green" transform="translate(1400 100) scale(0.1 -0.1)"><path d="M0.0 0.0V-142.0H709.0V0.0ZM290.0 -441.0 292.0 -411.0 565.0 -456.0 563.0 -487.0ZM-58.0 -382.0V-554.0H337.0V-382.0ZM19.0 -495.0V-1111.0H169.0V-624.0H562.0V-495.0ZM521.0 -495.0V-968.0C521.0 -983.0 516.0 -987.0 503.0 -987.0C491.0 -988.0 448.0 -987.0 417.0 -986.0C432.0 -1022.0 449.0 -1074.0 455.0 -1113.0C525.0 -1113.0 581.0 -1112.0 621.0 -1092.0C662.0 -1070.0 673.0 -1037.0 673.0 -970.0V-495.0ZM116.0 100.0C146.0 42.0 184.0 -41.0 198.0 -90.0L375.0 -17.0C354.0 33.0 312.0 108.0 273.0 161.0ZM238.0 -656.0V-754.0H374.0V-850.0H240.0V-946.0H485.0V-656.0ZM33.0 -555.0V-999.0H151.0V-555.0Z"/></g>
<g fill="green" transform="translate(1500 100) scale(0.1 -0.1)"><path d="M0.0 0.0V-36.0H598.0V-0.0ZM142.0 -196.0 388.0 -257.0 300.0 -436.0 54.0 -376.0ZM131.0 -288.0V-448.0H424.0V-288.0ZM13.0 -462.0V-1027.0H48.0V-498.0H533.0V-462.0ZM513.0 -462.0V-971.0C513.0 -981.0 508.0 -985.0 496.0 -986.0C484.0 -987.0 439.0 -987.0 389.0 -986.0C394.0 -993.0 401.0 -1008.0 403.0 -1018.0C470.0 -1018.0 504.0 -1018.0 523.0 -1010.0C543.0 -1004.0 548.0 -993.0 548.0 -969.0V-462.0ZM255.0 56.0C261.0 -2.0 258.0 -78.0 253.0 -123.0L290.0 -119.0C296.0 -74.0 296.0 -1.0 291.0 58.0ZM144.0 -592.0V-629.0H387.0V-815.0H144.0V-851.0H424.0V-592.0ZM66.0 -557.0V-913.0H102.0V-557.0Z"/></g>
<g fill="green" transform="translate(1600 100) scale(0.1 -0.1)"><path d="M0.0 0.0V-150.0H638.0V0.0ZM214.0 -330.0 365.0 -371.0 301.0 -445.0 149.0 -404.0ZM132.0 -320.0V-544.0H501.0V-320.0ZM20.0 -501.0V-1117.0H152.0V-643.0H557.0V-501.0ZM488.0 -501.0V-969.0C488.0 -980.0 484.0 -983.0 476.0 -984.0C468.0 -984.0 444.0 -983.0 425.0 -983.0C439.0 -1018.0 453.0 -1072.0 456.0 -1111.0C508.0 -1111.0 551.0 -1110.0 582.0 -1090.0C615.0 -1067.0 623.0 -1033.0 623.0 -971.0V-501.0ZM231.0 34.0C227.0 -27.0 216.0 -109.0 201.0 -157.0L397.0 -130.0C409.0 -81.0 419.0 -4.0 421.0 58.0ZM215.0 -675.0V-785.0H365.0V-854.0H216.0V-963.0H465.0V-675.0ZM102.0 -632.0V-1006.0H217.0V-632.0Z"/></g>
<g fill="green" transform="translate(100 200) scale(0.1 -0.1)"><path d="M0.0 -0.0V-39.0H577.0V0.0ZM23.0 -190.0 391.0 -114.0 459.0 -276.0 90.0 -352.0ZM-9.0 -97.0V-348.0H439.0V-97.0ZM21.0 -482.0V-1041.0H59.0V-522.0H531.0V-482.0ZM517.0 -482.0V-982.0C517.0 -993.0 512.0 -997.0 500.0 -997.0C488.0 -997.0 445.0 -998.0 396.0 -997.0C402.0 -1007.0 409.0 -1023.0 411.0 -1033.0C475.0 -1034.0 510.0 -1034.0 530.0 -1026.0C551.0 -1019.0 555.0 -1007.0 555.0 -981.0V-482.0ZM196.0 188.0C246.0 144.0 301.0 82.0 326.0 39.0L357.0 63.0C331.0 106.0 275.0 168.0 223.0 210.0ZM168.0 -629.0V-670.0H381.0V-843.0H168.0V-882.0H421.0V-629.0ZM84.0 -593.0V-922.0H124.0V-593.0Z"/></g>
<g fill="green" transform="translate(200 200) scale(0.1 -0.1)"><path d="M0.0 0.0V-157.0H626.0V0.0ZM159.0 -330.0 320.0 -266.0 363.0 -307.0 201.0 -371.0ZM-11.0 -160.0V-455.0H496.0V-160.0ZM6.0 -507.0V-1126.0H148.0V-658.0H546.0V-507.0ZM478.0 -507.0V-966.0C478.0 -980.0 475.0 -982.0 461.0 -984.0C448.0 -985.0 407.0 -985.0 371.0 -983.0C389.0 -1021.0 405.0 -1081.0 411.0 -1123.0C478.0 -1123.0 531.0 -1122.0 571.0 -1099.0C611.0 -1075.0 619.0 -1036.0 619.0 -968.0V-507.0ZM163.0 108.0C209.0 63.0 264.0 -5.0 288.0 -46.0L410.0 39.0C383.0 82.0 322.0 144.0 271.0 184.0ZM189.0 -692.0V-795.0H333.0V-862.0H190.0V-964.0H440.0V-692.0ZM104.0 -648.0V-994.0H213.0V-648.0Z"/></g>
<g fill="red" transform="translate(100 300) scale(0.1 -0.1)"><path d="M0.0 0.0V-30.0H469.0V0.0ZM458.0 -234.0V-264.0H833.0V-234.0ZM98.0 -96.0V-282.0H381.0V-96.0ZM38.0 -353.0V-775.0H68.0V-382.0H427.0V-353.0ZM410.0 -353.0V-727.0C410.0 -738.0 406.0 -741.0 395.0 -742.0C383.0 -742.0 344.0 -743.0 295.0 -742.0C300.0 -750.0 306.0 -761.0 308.0 -768.0C367.0 -769.0 400.0 -769.0 417.0 -763.0C434.0 -758.0 439.0 -748.0 439.0 -727.0V-353.0ZM198.0 118.0C220.0 83.0 241.0 36.0 250.0 5.0L277.0 14.0C268.0 43.0 245.0 90.0 223.0 124.0ZM158.0 -458.0V-487.0H306.0V-617.0H158.0V-646.0H335.0V-458.0ZM141.0 -458.0V-705.0H171.0V-458.0Z"/></g>
<g fill="black" opacity=".8" transform="translate(100 300) scale(0.1 -0.1)"><path d="M0.0 0.0V-30.0H468.0V0.0ZM458.0 -233.0 457.0 -265.0 834.0 -264.0 833.0 -234.0ZM99.0 -97.0V-282.0H381.0V-97.0ZM37.0 -354.0V-775.0H67.0V-382.0H428.0V-354.0ZM410.0 -354.0V-727.0C410.0 -737.0 406.0 -741.0 395.0 -742.0C383.0 -742.0 343.0 -743.0 294.0 -742.0C300.0 -749.0 306.0 -761.0 307.0 -768.0C367.0 -770.0 400.0 -770.0 417.0 -763.0C435.0 -758.0 439.0 -749.0 439.0 -727.0V-354.0ZM199.0 119.0C220.0 83.0 240.0 36.0 251.0 4.0L278.0 14.0C267.0 43.0 245.0 90.0 223.0 124.0ZM158.0 -457.0V-489.0H306.0V-617.0H158.0V-646.0H335.0V-457.0ZM142.0 -458.0V-705.0H171.0V-458.0Z"/></g>
<g fill="red" transform="translate(200 300) scale(0.1 -0.1)"><path d="M0.0 0.0V-114.0H550.0V0.0ZM510.0 -231.0V-360.0H839.0V-231.0ZM50.0 -139.0V-367.0H480.0V-139.0ZM16.0 -394.0V-853.0H133.0V-494.0H450.0V-394.0ZM398.0 -394.0V-741.0C398.0 -753.0 394.0 -756.0 381.0 -756.0C369.0 -757.0 325.0 -757.0 291.0 -755.0C305.0 -783.0 320.0 -825.0 325.0 -855.0C389.0 -855.0 437.0 -854.0 472.0 -838.0C508.0 -822.0 518.0 -795.0 518.0 -743.0V-394.0ZM185.0 63.0C204.0 18.0 227.0 -44.0 236.0 -83.0L381.0 -42.0C369.0 -4.0 346.0 53.0 324.0 96.0ZM187.0 -518.0V-588.0H287.0V-658.0H189.0V-728.0H372.0V-518.0ZM159.0 -518.0V-770.0H238.0V-518.0Z"/></g>
<g fill="black" opacity=".8" transform="translate(200 300) scale(0.1 -0.1)"><path d="M0.0 0.0V-114.0H551.0V0.0ZM511.0 -231.0 510.0 -360.0H839.0L838.0 -230.0ZM50.0 -139.0V-367.0H480.0V-139.0ZM16.0 -395.0V-854.0H133.0V-495.0H450.0V-395.0ZM398.0 -395.0V-740.0C398.0 -753.0 394.0 -756.0 381.0 -756.0C370.0 -758.0 325.0 -757.0 292.0 -755.0C304.0 -783.0 319.0 -825.0 325.0 -855.0C389.0 -855.0 437.0 -855.0 472.0 -839.0C508.0 -822.0 518.0 -795.0 518.0 -742.0V-395.0ZM186.0 62.0C204.0 19.0 228.0 -44.0 235.0 -83.0L381.0 -42.0C369.0 -3.0 346.0 53.0 324.0 97.0ZM186.0 -518.0V-588.0H287.0V-658.0H189.0V-728.0H372.0V-518.0ZM159.0 -517.0V-769.0H237.0V-517.0Z"/></g>
<g fill="red" transform="translate(300 300) scale(0.1 -0.1)"><path d="M0.0 0.0V-29.0H428.0V0.0ZM80.0 -135.0H330.0V-262.0H80.0ZM52.0 -105.0V-292.0H358.0V-105.0ZM9.0 -370.0V-792.0H36.0V-399.0H387.0V-370.0ZM374.0 -370.0V-745.0C374.0 -755.0 370.0 -758.0 360.0 -759.0C350.0 -759.0 312.0 -760.0 268.0 -759.0C272.0 -766.0 277.0 -777.0 279.0 -785.0C335.0 -785.0 365.0 -785.0 382.0 -780.0C398.0 -774.0 402.0 -765.0 402.0 -744.0V-370.0ZM164.0 106.0C186.0 66.0 208.0 13.0 216.0 -20.0L243.0 -9.0C236.0 24.0 213.0 76.0 190.0 115.0ZM111.0 -478.0V-507.0H282.0V-637.0H111.0V-666.0H311.0V-478.0ZM94.0 -478.0V-725.0H123.0V-478.0Z"/></g>
<g fill="black" opacity=".8" transform="translate(300 300) scale(0.1 -0.1)"><path d="M0.0 0.0V-29.0H440.0V0.0ZM89.0 -135.0H333.0L335.0 -262.0L89.0 -263.0ZM62.0 -112.0V-292.0H362.0V-112.0ZM16.0 -365.0V-794.0H43.0V-394.0H398.0V-365.0ZM386.0 -365.0V-749.0C386.0 -757.0 382.0 -761.0 372.0 -761.0C363.0 -761.0 329.0 -762.0 292.0 -761.0C296.0 -768.0 301.0 -779.0 302.0 -788.0C353.0 -788.0 379.0 -788.0 394.0 -782.0C410.0 -776.0 414.0 -768.0 414.0 -748.0V-365.0ZM177.0 99.0C199.0 63.0 220.0 12.0 228.0 -21.0L255.0 -10.0C246.0 23.0 223.0 72.0 201.0 109.0ZM121.0 -470.0V-501.0H287.0V-638.0H121.0V-667.0H316.0V-470.0ZM103.0 -466.0V-699.0H132.0V-466.0Z"/></g>
<g fill="red" transform="translate(400 300) scale(0.1 -0.1)"><path d="M0.0 0.0V-121.0H482.0V0.0ZM162.0 -239.0H316.0V-276.0H162.0ZM58.0 -144.0V-371.0H427.0V-144.0ZM7.0 -395.0V-857.0H114.0V-512.0H429.0V-395.0ZM367.0 -395.0V-737.0C367.0 -746.0 365.0 -748.0 358.0 -749.0C351.0 -749.0 333.0 -749.0 318.0 -748.0C330.0 -776.0 341.0 -819.0 346.0 -851.0C385.0 -851.0 417.0 -850.0 443.0 -833.0C468.0 -816.0 475.0 -789.0 475.0 -738.0V-395.0ZM160.0 66.0C177.0 22.0 195.0 -37.0 201.0 -73.0L316.0 -32.0C309.0 5.0 288.0 61.0 269.0 102.0ZM160.0 -532.0V-609.0H269.0V-660.0H162.0V-737.0H346.0V-532.0ZM132.0 -532.0V-784.0H215.0V-532.0Z"/></g>
<g fill="black" opacity=".8" transform="translate(400 300) scale(0.1 -0.1)"><path d="M0.0 0.0V-119.0H472.0V0.0ZM173.0 -239.0 294.0 -237.0V-277.0H172.0ZM60.0 -150.0V-370.0H414.0V-150.0ZM9.0 -389.0V-863.0H113.0V-502.0H417.0V-389.0ZM360.0 -389.0V-743.0C360.0 -753.0 357.0 -755.0 348.0 -756.0C340.0 -757.0 312.0 -757.0 289.0 -755.0C301.0 -784.0 313.0 -828.0 316.0 -858.0C365.0 -859.0 402.0 -858.0 430.0 -842.0C458.0 -824.0 465.0 -795.0 465.0 -744.0V-389.0ZM152.0 54.0C170.0 16.0 190.0 -41.0 195.0 -74.0L313.0 -30.0C306.0 5.0 284.0 56.0 263.0 95.0ZM148.0 -528.0V-608.0H259.0V-661.0H149.0V-740.0H337.0V-528.0ZM123.0 -523.0V-764.0H205.0V-523.0Z"/></g>
<g fill="red" transform="translate(500 300) scale(0.1 -0.1)"><path d="M0.0 0.0V-29.0H532.0V0.0ZM113.0 -135.0H426.0V-262.0H113.0ZM84.0 -105.0V-292.0H455.0V-105.0ZM19.0 -370.0V-792.0H47.0V-399.0H499.0V-370.0ZM487.0 -370.0V-753.0C487.0 -764.0 483.0 -767.0 473.0 -767.0C462.0 -768.0 425.0 -768.0 380.0 -767.0C385.0 -775.0 390.0 -786.0 392.0 -792.0C448.0 -793.0 478.0 -793.0 494.0 -787.0C510.0 -783.0 514.0 -773.0 514.0 -753.0V-370.0ZM222.0 106.0C245.0 66.0 266.0 13.0 274.0 -20.0L302.0 -9.0C294.0 24.0 272.0 76.0 249.0 115.0ZM155.0 -478.0V-507.0H364.0V-640.0H155.0V-669.0H394.0V-478.0ZM-282.0 -258.0V-748.0H-253.0V-258.0Z"/></g>
<g fill="black" opacity=".8" transform="translate(500 300) scale(0.1 -0.1)"><path d="M0.0 0.0V-30.0H530.0V0.0ZM113.0 -134.0 424.0 -136.0 426.0 -263.0 113.0 -262.0ZM84.0 -105.0V-293.0H455.0V-105.0ZM18.0 -370.0V-792.0H46.0V-399.0H499.0V-370.0ZM487.0 -370.0V-753.0C487.0 -763.0 482.0 -767.0 472.0 -767.0C461.0 -768.0 424.0 -768.0 380.0 -767.0C384.0 -774.0 389.0 -786.0 391.0 -791.0C448.0 -793.0 477.0 -793.0 492.0 -787.0C510.0 -783.0 513.0 -773.0 513.0 -753.0V-370.0ZM223.0 106.0C244.0 67.0 265.0 14.0 274.0 -20.0L302.0 -9.0C293.0 25.0 271.0 76.0 249.0 115.0ZM155.0 -477.0V-508.0H364.0V-639.0H155.0V-669.0H394.0V-477.0ZM-281.0 -258.0V-749.0H-253.0V-258.0Z"/></g>
<g fill="red" transform="translate(600 300) scale(0.1 -0.1)"><path d="M0.0 0.0V-121.0H589.0V0.0ZM189.0 -239.0H371.0V-276.0H189.0ZM73.0 -144.0V-371.0H495.0V-144.0ZM14.0 -395.0V-854.0H134.0V-512.0H489.0V-395.0ZM446.0 -395.0V-733.0C446.0 -741.0 443.0 -744.0 436.0 -744.0C428.0 -744.0 408.0 -744.0 391.0 -743.0C404.0 -774.0 418.0 -821.0 422.0 -855.0C466.0 -855.0 502.0 -854.0 531.0 -835.0C561.0 -817.0 567.0 -787.0 567.0 -734.0V-395.0ZM196.0 65.0C214.0 21.0 235.0 -38.0 241.0 -74.0L368.0 -34.0C359.0 3.0 336.0 59.0 316.0 100.0ZM204.0 -530.0V-618.0H319.0V-650.0H204.0V-738.0H413.0V-530.0ZM-288.0 -257.0V-806.0H-178.0V-257.0Z"/></g>
<g fill="black" opacity=".8" transform="translate(600 300) scale(0.1 -0.1)"><path d="M0.0 0.0V-121.0H590.0V0.0ZM189.0 -239.0H372.0V-275.0H188.0ZM73.0 -143.0V-371.0H495.0V-143.0ZM14.0 -396.0V-855.0H134.0V-513.0H491.0V-396.0ZM446.0 -396.0V-732.0C446.0 -741.0 444.0 -743.0 437.0 -744.0C430.0 -744.0 409.0 -744.0 391.0 -743.0C404.0 -774.0 418.0 -820.0 422.0 -855.0C466.0 -855.0 503.0 -855.0 531.0 -836.0C561.0 -817.0 567.0 -787.0 567.0 -734.0V-396.0ZM196.0 65.0C214.0 22.0 236.0 -38.0 240.0 -74.0L368.0 -34.0C360.0 3.0 336.0 59.0 316.0 101.0ZM204.0 -530.0V-617.0H319.0V-650.0H204.0V-738.0H413.0V-530.0ZM-287.0 -257.0V-806.0H-178.0V-257.0Z"/></g>
<g fill="red" transform="translate(700 300) scale(0.1 -0.1)"><path d="M0.0 0.0V-30.0H825.0V0.0ZM158.0 -123.0H650.0V-200.0H158.0ZM129.0 -93.0V-229.0H679.0V-93.0ZM28.0 -296.0V-622.0H57.0V-325.0H779.0V-296.0ZM762.0 -296.0V-573.0C762.0 -586.0 758.0 -590.0 741.0 -591.0C725.0 -593.0 670.0 -593.0 596.0 -591.0C601.0 -600.0 607.0 -611.0 609.0 -619.0C694.0 -619.0 740.0 -619.0 763.0 -614.0C785.0 -608.0 791.0 -596.0 791.0 -573.0V-296.0ZM345.0 69.0C371.0 43.0 397.0 6.0 410.0 -19.0L434.0 -5.0C422.0 19.0 394.0 56.0 368.0 81.0ZM223.0 -381.0V-411.0H579.0V-503.0H223.0V-532.0H609.0V-381.0ZM207.0 -381.0V-575.0H236.0V-381.0Z"/></g>
<g fill="black" opacity=".8" transform="translate(700 300) scale(0.1 -0.1)"><path d="M0.0 0.0V-27.0H824.0V0.0ZM176.0 -117.0 640.0 -110.0 644.0 -198.0 179.0 -205.0ZM154.0 -85.0V-228.0H670.0V-85.0ZM40.0 -290.0V-613.0H67.0V-316.0H774.0V-290.0ZM759.0 -290.0V-571.0C759.0 -580.0 755.0 -585.0 742.0 -585.0C729.0 -587.0 686.0 -586.0 630.0 -585.0C635.0 -592.0 640.0 -603.0 641.0 -611.0C708.0 -611.0 744.0 -611.0 761.0 -605.0C781.0 -600.0 785.0 -591.0 785.0 -570.0V-290.0ZM356.0 81.0C378.0 51.0 403.0 9.0 417.0 -18.0L439.0 -5.0C426.0 20.0 400.0 61.0 377.0 91.0ZM230.0 -375.0V-403.0H578.0V-495.0H230.0V-522.0H605.0V-375.0ZM215.0 -374.0V-564.0H241.0V-374.0Z"/></g>
<g fill="red" transform="translate(800 300) scale(0.1 -0.1)"><path d="M0.0 0.0V-101.0H851.0V0.0ZM247.0 -199.0H590.0V-224.0H247.0ZM104.0 -124.0V-300.0H743.0V-124.0ZM22.0 -319.0V-671.0H169.0V-414.0H714.0V-319.0ZM684.0 -319.0V-532.0C684.0 -544.0 679.0 -547.0 665.0 -547.0C653.0 -547.0 602.0 -547.0 568.0 -545.0C586.0 -578.0 609.0 -629.0 617.0 -667.0C681.0 -667.0 734.0 -666.0 777.0 -647.0C821.0 -628.0 834.0 -595.0 834.0 -534.0V-319.0ZM328.0 42.0C346.0 14.0 365.0 -26.0 372.0 -52.0L502.0 -17.0C493.0 8.0 474.0 44.0 454.0 70.0ZM293.0 -439.0V-514.0H504.0V-534.0H293.0V-610.0H635.0V-439.0ZM213.0 -439.0V-633.0H337.0V-439.0Z"/></g>
<g fill="black" opacity=".8" transform="translate(800 300) scale(0.1 -0.1)"><path d="M0.0 0.0V-102.0H840.0V0.0ZM239.0 -201.0 583.0 -192.0 584.0 -220.0 238.0 -227.0ZM106.0 -121.0V-298.0H729.0V-121.0ZM24.0 -324.0V-673.0H161.0V-417.0H739.0V-324.0ZM678.0 -324.0V-550.0C678.0 -562.0 673.0 -564.0 661.0 -565.0C652.0 -566.0 606.0 -565.0 577.0 -564.0C593.0 -593.0 611.0 -636.0 619.0 -669.0C680.0 -670.0 729.0 -669.0 768.0 -653.0C807.0 -635.0 819.0 -608.0 819.0 -552.0V-324.0ZM325.0 39.0C341.0 11.0 363.0 -33.0 370.0 -59.0L503.0 -20.0C493.0 6.0 470.0 45.0 452.0 72.0ZM286.0 -438.0V-514.0H501.0V-540.0H287.0V-616.0H627.0V-438.0ZM207.0 -437.0V-641.0H330.0V-437.0Z"/></g>
<g fill="red" transform="translate(900 300) scale(0.1 -0.1)"><path d="M0.0 0.0V-29.0H838.0V0.0ZM173.0 -107.0H671.0V-179.0H173.0ZM144.0 -78.0V-208.0H700.0V-78.0ZM29.0 -264.0V-545.0H58.0V-294.0H787.0V-264.0ZM778.0 -264.0V-502.0C778.0 -513.0 775.0 -516.0 761.0 -517.0C747.0 -518.0 704.0 -518.0 644.0 -517.0C649.0 -526.0 655.0 -536.0 657.0 -543.0C726.0 -544.0 764.0 -544.0 784.0 -539.0C802.0 -533.0 807.0 -523.0 807.0 -502.0V-264.0ZM482.0 218.0C544.0 206.0 622.0 182.0 664.0 161.0L674.0 189.0C633.0 209.0 555.0 232.0 493.0 242.0ZM235.0 -349.0V-379.0H586.0V-453.0H235.0V-483.0H615.0V-349.0ZM219.0 -349.0V-504.0H248.0V-349.0Z"/></g>
<g fill="black" opacity=".8" transform="translate(900 300) scale(0.1 -0.1)"><path d="M0.0 0.0V-29.0H838.0V0.0ZM172.0 -106.0 670.0 -107.0 671.0 -180.0 172.0 -179.0ZM143.0 -78.0V-208.0H700.0V-78.0ZM29.0 -265.0V-545.0H57.0V-294.0H787.0V-265.0ZM778.0 -265.0V-502.0C778.0 -513.0 774.0 -516.0 761.0 -516.0C746.0 -519.0 702.0 -517.0 642.0 -516.0C648.0 -525.0 653.0 -536.0 655.0 -543.0C726.0 -545.0 764.0 -545.0 783.0 -539.0C803.0 -532.0 807.0 -523.0 807.0 -502.0V-265.0ZM483.0 218.0C543.0 206.0 621.0 182.0 664.0 160.0L674.0 189.0C632.0 210.0 555.0 232.0 493.0 242.0ZM235.0 -349.0V-381.0H586.0V-452.0H235.0V-483.0H615.0V-349.0ZM220.0 -349.0V-505.0H247.0V-349.0Z"/></g>
<g fill="red" transform="translate(1000 300) scale(0.1 -0.1)"><path d="M0.0 0.0V-92.0H851.0V0.0ZM279.0 -176.0H577.0V-201.0H279.0ZM136.0 -112.0V-265.0H730.0V-112.0ZM16.0 -285.0V-589.0H160.0V-373.0H743.0V-285.0ZM696.0 -285.0V-472.0C696.0 -484.0 691.0 -487.0 678.0 -487.0C667.0 -487.0 620.0 -488.0 588.0 -485.0C605.0 -514.0 626.0 -556.0 635.0 -589.0C696.0 -590.0 746.0 -589.0 787.0 -573.0C828.0 -556.0 840.0 -530.0 840.0 -472.0V-285.0ZM458.0 172.0C521.0 164.0 603.0 145.0 647.0 128.0L673.0 200.0C629.0 215.0 545.0 232.0 484.0 237.0ZM294.0 -392.0V-456.0H493.0V-482.0H294.0V-546.0H624.0V-392.0ZM223.0 -392.0V-563.0H347.0V-392.0Z"/></g>
<g fill="black" opacity=".8" transform="translate(1000 300) scale(0.1 -0.1)"><path d="M0.0 0.0V-93.0H852.0V0.0ZM280.0 -177.0 577.0 -176.0 578.0 -201.0 279.0 -200.0ZM136.0 -112.0V-266.0H731.0V-112.0ZM16.0 -285.0V-590.0H161.0V-373.0H742.0V-285.0ZM696.0 -285.0V-470.0C696.0 -484.0 691.0 -486.0 678.0 -486.0C668.0 -487.0 621.0 -488.0 589.0 -485.0C605.0 -514.0 625.0 -556.0 636.0 -589.0C696.0 -590.0 747.0 -590.0 788.0 -573.0C828.0 -556.0 840.0 -530.0 840.0 -471.0V-285.0ZM459.0 172.0C521.0 165.0 604.0 145.0 647.0 129.0L673.0 199.0C630.0 216.0 545.0 232.0 484.0 237.0ZM294.0 -392.0V-456.0H493.0V-483.0H294.0V-546.0H624.0V-392.0ZM223.0 -392.0V-563.0H346.0V-392.0Z"/></g>
<g fill="red" transform="translate(1100 300) scale(0.1 -0.1)"><path d="M0.0 0.0V-29.0H860.0V0.0ZM206.0 -125.0H662.0V-217.0H206.0ZM176.0 -96.0V-247.0H692.0V-96.0ZM50.0 -309.0V-650.0H79.0V-339.0H795.0V-309.0ZM782.0 -309.0V-606.0C782.0 -617.0 779.0 -621.0 766.0 -622.0C752.0 -623.0 711.0 -623.0 654.0 -622.0C659.0 -631.0 664.0 -642.0 666.0 -650.0C731.0 -650.0 768.0 -650.0 788.0 -644.0C806.0 -639.0 811.0 -628.0 811.0 -606.0V-309.0ZM372.0 85.0C399.0 51.0 430.0 4.0 446.0 -25.0L473.0 -10.0C458.0 18.0 426.0 64.0 399.0 98.0ZM247.0 -397.0V-426.0H598.0V-525.0H247.0V-554.0H627.0V-397.0ZM234.0 -397.0V-587.0H263.0V-397.0Z"/></g>
<g fill="black" opacity=".8" transform="translate(1100 300) scale(0.1 -0.1)"><path d="M0.0 0.0V-29.0H853.0V0.0ZM193.0 -125.0 661.0 -129.0V-221.0L192.0 -218.0ZM163.0 -102.0V-248.0H689.0V-102.0ZM41.0 -308.0V-654.0H69.0V-336.0H798.0V-308.0ZM783.0 -308.0V-609.0C783.0 -619.0 779.0 -624.0 765.0 -624.0C752.0 -626.0 706.0 -625.0 648.0 -624.0C653.0 -631.0 658.0 -643.0 660.0 -651.0C730.0 -652.0 767.0 -652.0 786.0 -645.0C806.0 -640.0 810.0 -630.0 810.0 -609.0V-308.0ZM377.0 83.0C398.0 51.0 422.0 6.0 435.0 -24.0L459.0 -10.0C447.0 17.0 422.0 60.0 399.0 93.0ZM236.0 -398.0V-428.0H596.0V-527.0H236.0V-556.0H625.0V-398.0ZM231.0 -402.0V-599.0H258.0V-402.0Z"/></g>
<g fill="red" transform="translate(1200 300) scale(0.1 -0.1)"><path d="M0.0 0.0V-113.0H865.0V0.0ZM252.0 -214.0H592.0V-248.0H252.0ZM111.0 -138.0V-324.0H742.0V-138.0ZM28.0 -350.0V-718.0H173.0V-450.0H753.0V-350.0ZM691.0 -350.0V-591.0C691.0 -601.0 687.0 -604.0 677.0 -604.0C669.0 -604.0 639.0 -604.0 618.0 -603.0C634.0 -635.0 652.0 -682.0 658.0 -718.0C712.0 -718.0 757.0 -717.0 793.0 -699.0C830.0 -680.0 840.0 -650.0 840.0 -592.0V-350.0ZM339.0 31.0C356.0 0.0 377.0 -43.0 386.0 -69.0L527.0 -23.0C516.0 2.0 495.0 41.0 476.0 69.0ZM298.0 -471.0V-548.0H512.0V-580.0H298.0V-657.0H646.0V-471.0ZM220.0 -471.0V-683.0H353.0V-471.0Z"/></g>
<g fill="black" opacity=".8" transform="translate(1200 300) scale(0.1 -0.1)"><path d="M0.0 0.0V-108.0H870.0V0.0ZM257.0 -212.0 605.0 -214.0V-245.0L256.0 -242.0ZM116.0 -138.0V-322.0H753.0V-138.0ZM25.0 -344.0V-718.0H168.0V-443.0H766.0V-344.0ZM702.0 -344.0V-589.0C702.0 -601.0 696.0 -604.0 684.0 -604.0C674.0 -605.0 627.0 -605.0 598.0 -603.0C614.0 -633.0 633.0 -679.0 641.0 -713.0C704.0 -714.0 755.0 -714.0 795.0 -697.0C836.0 -678.0 848.0 -649.0 848.0 -591.0V-344.0ZM345.0 42.0C360.0 10.0 381.0 -37.0 387.0 -64.0L528.0 -26.0C519.0 2.0 498.0 44.0 480.0 74.0ZM297.0 -465.0V-545.0H519.0V-575.0H298.0V-655.0H649.0V-465.0ZM225.0 -470.0V-681.0H353.0V-470.0Z"/></g>
<g fill="red" transform="translate(1300 300) scale(0.1 -0.1)"><path d="M0.0 0.0V-30.0H869.0V0.0ZM200.0 -134.0H677.0V-261.0H200.0ZM170.0 -104.0V-290.0H706.0V-104.0ZM45.0 -362.0V-784.0H74.0V-391.0H814.0V-362.0ZM798.0 -362.0V-737.0C798.0 -747.0 794.0 -750.0 783.0 -751.0C772.0 -751.0 733.0 -752.0 686.0 -751.0C691.0 -758.0 696.0 -769.0 698.0 -777.0C756.0 -777.0 789.0 -777.0 805.0 -772.0C822.0 -766.0 827.0 -757.0 827.0 -736.0V-362.0ZM400.0 111.0C415.0 68.0 433.0 11.0 441.0 -23.0L464.0 -14.0C457.0 17.0 439.0 72.0 422.0 115.0ZM237.0 -473.0V-502.0H606.0V-632.0H237.0V-661.0H635.0V-473.0ZM224.0 -473.0V-720.0H254.0V-473.0Z"/></g>
<g fill="black" opacity=".8" transform="translate(1300 300) scale(0.1 -0.1)"><path d="M0.0 0.0V-33.0H876.0V0.0ZM196.0 -139.0 686.0 -146.0V-261.0L194.0 -255.0ZM160.0 -107.0V-291.0H718.0V-107.0ZM41.0 -370.0V-789.0H74.0V-402.0H818.0V-370.0ZM801.0 -370.0V-737.0C801.0 -749.0 797.0 -754.0 782.0 -754.0C768.0 -756.0 719.0 -755.0 657.0 -754.0C662.0 -762.0 668.0 -776.0 670.0 -785.0C745.0 -786.0 786.0 -786.0 806.0 -778.0C828.0 -772.0 833.0 -762.0 833.0 -737.0V-370.0ZM385.0 98.0C409.0 60.0 435.0 7.0 449.0 -28.0L477.0 -13.0C464.0 19.0 437.0 71.0 412.0 109.0ZM243.0 -478.0V-512.0H609.0V-636.0H243.0V-669.0H642.0V-478.0ZM222.0 -474.0V-717.0H254.0V-474.0Z"/></g>
<g fill="red" transform="translate(1400 300) scale(0.1 -0.1)"><path d="M0.0 0.0V-121.0H892.0V0.0ZM268.0 -244.0H632.0V-278.0H268.0ZM123.0 -149.0V-373.0H786.0V-149.0ZM23.0 -404.0V-863.0H164.0V-521.0H834.0V-404.0ZM728.0 -404.0V-735.0C728.0 -749.0 722.0 -753.0 707.0 -753.0C694.0 -754.0 635.0 -754.0 598.0 -751.0C614.0 -780.0 633.0 -823.0 640.0 -855.0C714.0 -856.0 773.0 -855.0 816.0 -840.0C860.0 -823.0 875.0 -797.0 875.0 -736.0V-404.0ZM352.0 59.0C368.0 14.0 389.0 -47.0 397.0 -83.0L558.0 -40.0C547.0 -4.0 522.0 54.0 504.0 96.0ZM299.0 -545.0V-643.0H537.0V-681.0H299.0V-779.0H664.0V-545.0ZM219.0 -545.0V-815.0H353.0V-545.0Z"/></g>
<g fill="black" opacity=".8" transform="translate(1400 300) scale(0.1 -0.1)"><path d="M0.0 0.0V-127.0H901.0V0.0ZM274.0 -245.0 624.0 -250.0V-285.0L273.0 -279.0ZM116.0 -151.0V-378.0H788.0V-151.0ZM25.0 -408.0V-863.0H179.0V-526.0H794.0V-408.0ZM721.0 -408.0V-716.0C721.0 -730.0 716.0 -733.0 702.0 -734.0C691.0 -735.0 642.0 -734.0 609.0 -733.0C627.0 -767.0 647.0 -820.0 655.0 -858.0C724.0 -859.0 780.0 -858.0 823.0 -839.0C867.0 -817.0 879.0 -784.0 879.0 -719.0V-408.0ZM349.0 48.0C367.0 10.0 389.0 -47.0 396.0 -80.0L554.0 -35.0C545.0 -1.0 521.0 50.0 500.0 87.0ZM304.0 -552.0V-646.0H531.0V-683.0H305.0V-777.0H668.0V-552.0ZM221.0 -548.0V-807.0H357.0V-548.0Z"/></g>
<g fill="red" transform="translate(1500 300) scale(0.1 -0.1)"><path d="M0.0 0.0V-29.0H446.0V0.0ZM96.0 -128.0H347.0V-250.0H96.0ZM67.0 -99.0V-279.0H376.0V-99.0ZM23.0 -359.0V-788.0H53.0V-388.0H402.0V-359.0ZM389.0 -359.0V-745.0C389.0 -753.0 386.0 -755.0 377.0 -755.0C368.0 -756.0 338.0 -756.0 302.0 -755.0C307.0 -763.0 312.0 -775.0 314.0 -783.0C359.0 -783.0 385.0 -783.0 400.0 -777.0C415.0 -772.0 419.0 -762.0 419.0 -744.0V-359.0ZM179.0 85.0C203.0 52.0 224.0 6.0 232.0 -25.0L258.0 -13.0C249.0 18.0 226.0 63.0 202.0 96.0ZM130.0 -461.0V-491.0H287.0V-635.0H130.0V-664.0H317.0V-461.0ZM126.0 -461.0V-664.0H157.0V-461.0Z"/></g>
<g fill="black" opacity=".8" transform="translate(1500 300) scale(0.1 -0.1)"><path d="M0.0 0.0V-29.0H431.0V0.0ZM89.0 -126.0H340.0L341.0 -251.0H89.0ZM62.0 -92.0V-280.0H368.0V-92.0ZM17.0 -362.0V-785.0H44.0V-390.0H391.0V-362.0ZM378.0 -362.0V-741.0C378.0 -749.0 374.0 -752.0 365.0 -752.0C356.0 -753.0 323.0 -753.0 286.0 -752.0C291.0 -759.0 296.0 -771.0 297.0 -779.0C346.0 -779.0 372.0 -779.0 386.0 -773.0C402.0 -768.0 406.0 -759.0 406.0 -740.0V-362.0ZM171.0 95.0C192.0 58.0 211.0 9.0 219.0 -24.0L245.0 -13.0C237.0 19.0 216.0 67.0 195.0 104.0ZM120.0 -466.0V-496.0H282.0V-631.0H120.0V-660.0H310.0V-466.0ZM119.0 -471.0V-689.0H148.0V-471.0Z"/></g>
<g fill="red" transform="translate(1600 300) scale(0.1 -0.1)"><path d="M0.0 0.0V-118.0H451.0V0.0ZM183.0 -228.0H276.0V-268.0H183.0ZM58.0 -140.0V-357.0H407.0V-140.0ZM11.0 -379.0V-858.0H113.0V-489.0H388.0V-379.0ZM344.0 -379.0V-737.0C344.0 -747.0 341.0 -749.0 330.0 -750.0C319.0 -750.0 285.0 -750.0 253.0 -749.0C267.0 -779.0 280.0 -826.0 282.0 -857.0C337.0 -857.0 378.0 -856.0 409.0 -838.0C441.0 -820.0 447.0 -788.0 447.0 -739.0V-379.0ZM137.0 35.0C157.0 0.0 175.0 -50.0 179.0 -81.0L300.0 -33.0C293.0 -2.0 273.0 44.0 251.0 77.0ZM134.0 -522.0V-603.0H243.0V-654.0H133.0V-734.0H323.0V-522.0ZM130.0 -522.0V-734.0H209.0V-522.0Z"/></g>
<g fill="black" opacity=".8" transform="translate(1600 300) scale(0.1 -0.1)"><path d="M0.0 0.0V-119.0H461.0V0.0ZM172.0 -229.0 299.0 -228.0V-265.0H171.0ZM59.0 -132.0V-358.0H420.0V-132.0ZM9.0 -386.0V-854.0H111.0V-498.0H410.0V-386.0ZM352.0 -386.0V-735.0C352.0 -745.0 349.0 -746.0 340.0 -748.0C332.0 -749.0 303.0 -748.0 280.0 -747.0C291.0 -775.0 303.0 -819.0 306.0 -849.0C355.0 -849.0 392.0 -849.0 420.0 -833.0C448.0 -814.0 455.0 -786.0 455.0 -736.0V-386.0ZM146.0 47.0C162.0 9.0 181.0 -47.0 184.0 -80.0L303.0 -37.0C297.0 -2.0 277.0 49.0 257.0 87.0ZM143.0 -524.0V-603.0H253.0V-654.0H144.0V-732.0H330.0V-524.0ZM138.0 -530.0V-754.0H217.0V-530.0Z"/></g>
<g fill="red" transform="translate(100 400) scale(0.1 -0.1)"><path d="M0.0 0.0V-29.0H437.0V0.0ZM514.0 -118.0H826.0V-246.0H514.0ZM484.0 66.0V-275.0H856.0V66.0ZM39.0 -379.0V-790.0H69.0V-408.0H390.0V-379.0ZM374.0 -379.0V-748.0C374.0 -759.0 371.0 -763.0 359.0 -763.0C346.0 -764.0 309.0 -764.0 257.0 -763.0C262.0 -772.0 268.0 -784.0 270.0 -792.0C327.0 -792.0 362.0 -792.0 380.0 -786.0C398.0 -781.0 403.0 -770.0 403.0 -748.0V-379.0ZM177.0 100.0C195.0 74.0 215.0 39.0 223.0 14.0L252.0 27.0C244.0 49.0 225.0 85.0 205.0 110.0ZM150.0 -479.0V-508.0H275.0V-643.0H150.0V-673.0H304.0V-479.0ZM138.0 -479.0V-708.0H168.0V-479.0Z"/></g>
<g fill="black" opacity=".8" transform="translate(100 400) scale(0.1 -0.1)"><path d="M0.0 0.0V-29.0H437.0V0.0ZM515.0 -118.0H825.0L827.0 -247.0L514.0 -246.0ZM485.0 65.0V-276.0H856.0V65.0ZM38.0 -379.0V-791.0H68.0V-408.0H391.0V-379.0ZM375.0 -379.0V-748.0C375.0 -758.0 372.0 -763.0 360.0 -763.0C346.0 -764.0 309.0 -764.0 258.0 -763.0C264.0 -771.0 269.0 -784.0 271.0 -792.0C328.0 -793.0 363.0 -793.0 380.0 -786.0C400.0 -781.0 404.0 -770.0 404.0 -749.0V-379.0ZM178.0 99.0C196.0 74.0 214.0 40.0 224.0 14.0L253.0 27.0C243.0 50.0 226.0 85.0 207.0 109.0ZM151.0 -478.0V-509.0H275.0V-642.0H151.0V-673.0H304.0V-478.0ZM140.0 -478.0V-706.0H168.0V-478.0Z"/></g>
<g fill="red" transform="translate(200 400) scale(0.1 -0.1)"><path d="M0.0 0.0V-126.0H460.0V0.0ZM614.0 -196.0H770.0V-230.0H614.0ZM484.0 38.0V-334.0H907.0V38.0ZM20.0 -414.0V-873.0H125.0V-528.0H418.0V-414.0ZM334.0 -414.0V-755.0C334.0 -764.0 331.0 -767.0 320.0 -767.0C310.0 -768.0 277.0 -768.0 247.0 -766.0C261.0 -795.0 275.0 -840.0 279.0 -871.0C333.0 -871.0 372.0 -870.0 404.0 -852.0C435.0 -835.0 443.0 -805.0 443.0 -757.0V-414.0ZM137.0 47.0C161.0 7.0 185.0 -47.0 194.0 -80.0L319.0 -43.0C308.0 -8.0 280.0 43.0 255.0 81.0ZM171.0 -550.0V-627.0H241.0V-669.0H171.0V-747.0H312.0V-550.0ZM147.0 -550.0V-789.0H213.0V-550.0Z"/></g>
<g fill="black" opacity=".8" transform="translate(200 400) scale(0.1 -0.1)"><path d="M0.0 0.0V-126.0H460.0V0.0ZM616.0 -196.0H768.0L769.0 -230.0L614.0 -229.0ZM485.0 38.0V-334.0H907.0V38.0ZM20.0 -414.0V-874.0H125.0V-528.0H418.0V-414.0ZM334.0 -414.0V-754.0C334.0 -765.0 331.0 -767.0 320.0 -768.0C310.0 -769.0 275.0 -769.0 244.0 -767.0C258.0 -796.0 272.0 -840.0 276.0 -871.0C332.0 -872.0 371.0 -872.0 403.0 -853.0C435.0 -836.0 442.0 -806.0 442.0 -757.0V-414.0ZM137.0 46.0C160.0 8.0 186.0 -47.0 193.0 -79.0L319.0 -43.0C308.0 -8.0 280.0 43.0 255.0 81.0ZM169.0 -550.0V-627.0H240.0V-670.0H170.0V-748.0H311.0V-550.0ZM147.0 -549.0V-787.0H211.0V-549.0Z"/></g>
<g fill="red" transform="translate(300 400) scale(0.1 -0.1)"><path d="M0.0 0.0V-29.0H419.0V0.0ZM454.0 -218.0H580.0V-346.0H454.0ZM425.0 -189.0V-375.0H608.0V-189.0ZM19.0 -350.0V-772.0H49.0V-379.0H360.0V-350.0ZM342.0 -350.0V-729.0C342.0 -739.0 338.0 -742.0 327.0 -743.0C315.0 -744.0 276.0 -744.0 227.0 -743.0C232.0 -750.0 238.0 -761.0 240.0 -769.0C299.0 -769.0 332.0 -769.0 349.0 -763.0C366.0 -758.0 371.0 -748.0 371.0 -728.0V-350.0ZM163.0 87.0C180.0 54.0 198.0 10.0 205.0 -18.0L231.0 -7.0C225.0 20.0 207.0 63.0 189.0 95.0ZM117.0 -448.0V-477.0H251.0V-615.0H117.0V-645.0H280.0V-448.0ZM109.0 -448.0V-691.0H138.0V-448.0Z"/></g>
<g fill="black" opacity=".8" transform="translate(300 400) scale(0.1 -0.1)"><path d="M0.0 0.0V-29.0H418.0V0.0ZM455.0 -217.0 579.0 -218.0 580.0 -346.0H455.0ZM426.0 -189.0V-376.0H608.0V-189.0ZM19.0 -351.0V-771.0H48.0V-379.0H360.0V-351.0ZM341.0 -351.0V-729.0C341.0 -738.0 337.0 -742.0 326.0 -742.0C313.0 -744.0 275.0 -743.0 226.0 -742.0C231.0 -749.0 237.0 -760.0 238.0 -768.0C298.0 -769.0 331.0 -769.0 348.0 -763.0C366.0 -757.0 370.0 -748.0 370.0 -728.0V-351.0ZM162.0 88.0C179.0 55.0 197.0 11.0 205.0 -18.0L232.0 -7.0C224.0 21.0 206.0 63.0 189.0 95.0ZM118.0 -448.0V-478.0H251.0V-614.0H118.0V-645.0H279.0V-448.0ZM109.0 -448.0V-692.0H137.0V-448.0Z"/></g>
<g fill="red" transform="translate(400 400) scale(0.1 -0.1)"><path d="M0.0 0.0V-112.0H449.0V0.0ZM536.0 -279.0H571.0V-343.0H536.0ZM446.0 -194.0V-428.0H667.0V-194.0ZM23.0 -388.0V-851.0H124.0V-488.0H383.0V-388.0ZM324.0 -388.0V-747.0C324.0 -756.0 321.0 -759.0 312.0 -759.0C305.0 -759.0 280.0 -759.0 259.0 -758.0C270.0 -784.0 283.0 -822.0 286.0 -850.0C332.0 -850.0 367.0 -849.0 394.0 -834.0C421.0 -818.0 429.0 -794.0 429.0 -748.0V-388.0ZM143.0 73.0C161.0 31.0 178.0 -26.0 182.0 -61.0L308.0 -30.0C301.0 6.0 281.0 60.0 261.0 101.0ZM176.0 -512.0V-587.0H237.0V-650.0H177.0V-725.0H304.0V-512.0ZM145.0 -512.0V-764.0H214.0V-512.0Z"/></g>
<g fill="black" opacity=".8" transform="translate(400 400) scale(0.1 -0.1)"><path d="M0.0 0.0V-113.0H450.0V0.0ZM535.0 -279.0H572.0V-343.0H534.0ZM446.0 -193.0V-429.0H668.0V-193.0ZM23.0 -390.0V-851.0H125.0V-490.0H384.0V-390.0ZM324.0 -390.0V-746.0C324.0 -756.0 321.0 -758.0 313.0 -759.0C306.0 -759.0 282.0 -759.0 263.0 -758.0C273.0 -784.0 285.0 -822.0 288.0 -849.0C334.0 -850.0 368.0 -850.0 394.0 -835.0C421.0 -818.0 429.0 -794.0 429.0 -748.0V-390.0ZM143.0 73.0C161.0 32.0 179.0 -26.0 182.0 -60.0L308.0 -31.0C301.0 6.0 281.0 60.0 261.0 102.0ZM176.0 -513.0V-587.0H237.0V-651.0H177.0V-725.0H303.0V-513.0ZM145.0 -512.0V-765.0H214.0V-512.0Z"/></g>
<g fill="red" transform="translate(500 400) scale(0.1 -0.1)"><path d="M0.0 0.0V-29.0H407.0V0.0ZM487.0 15.0V-466.0H517.0V15.0ZM50.0 -105.0V-292.0H341.0V-105.0ZM9.0 -370.0V-792.0H36.0V-399.0H358.0V-370.0ZM347.0 -370.0V-745.0C347.0 -755.0 344.0 -758.0 333.0 -759.0C323.0 -759.0 286.0 -760.0 241.0 -759.0C246.0 -766.0 251.0 -777.0 253.0 -785.0C309.0 -785.0 339.0 -785.0 355.0 -780.0C370.0 -774.0 375.0 -765.0 375.0 -744.0V-370.0ZM632.0 109.0C623.0 81.0 606.0 36.0 592.0 7.0L616.0 -3.0C630.0 23.0 646.0 60.0 660.0 96.0ZM109.0 -456.0V-486.0H265.0V-639.0H109.0V-668.0H295.0V-456.0ZM92.0 -456.0V-703.0H121.0V-456.0Z"/></g>
<g fill="black" opacity=".8" transform="translate(500 400) scale(0.1 -0.1)"><path d="M0.0 0.0V-30.0H407.0V0.0ZM487.0 15.0 486.0 -466.0 517.0 -467.0 518.0 15.0ZM51.0 -105.0V-293.0H340.0V-105.0ZM9.0 -370.0V-792.0H35.0V-398.0H358.0V-370.0ZM347.0 -370.0V-745.0C347.0 -755.0 344.0 -758.0 333.0 -759.0C323.0 -759.0 286.0 -760.0 243.0 -759.0C247.0 -765.0 252.0 -776.0 253.0 -785.0C310.0 -785.0 338.0 -785.0 354.0 -780.0C370.0 -773.0 374.0 -765.0 374.0 -744.0V-370.0ZM633.0 109.0C623.0 82.0 605.0 37.0 593.0 7.0L617.0 -3.0C629.0 24.0 646.0 60.0 661.0 97.0ZM109.0 -455.0V-487.0H265.0V-638.0H109.0V-668.0H294.0V-455.0ZM93.0 -455.0V-702.0H121.0V-455.0Z"/></g>
<g fill="red" transform="translate(600 400) scale(0.1 -0.1)"><path d="M0.0 0.0V-121.0H471.0V0.0ZM503.0 4.0V-518.0H626.0V4.0ZM57.0 -144.0V-371.0H416.0V-144.0ZM7.0 -395.0V-854.0H110.0V-512.0H418.0V-395.0ZM358.0 -395.0V-737.0C358.0 -746.0 355.0 -748.0 349.0 -749.0C342.0 -749.0 325.0 -749.0 310.0 -748.0C321.0 -776.0 333.0 -819.0 337.0 -851.0C375.0 -851.0 407.0 -850.0 431.0 -833.0C456.0 -816.0 463.0 -789.0 463.0 -738.0V-395.0ZM625.0 101.0C619.0 60.0 606.0 5.0 592.0 -36.0L697.0 -55.0C715.0 -19.0 739.0 33.0 761.0 87.0ZM161.0 -532.0V-609.0H261.0V-660.0H163.0V-737.0H338.0V-532.0ZM133.0 -532.0V-784.0H216.0V-532.0Z"/></g>
<g fill="black" opacity=".8" transform="translate(600 400) scale(0.1 -0.1)"><path d="M0.0 0.0V-121.0H471.0V0.0ZM504.0 4.0 503.0 -518.0 626.0 -517.0 625.0 5.0ZM57.0 -144.0V-371.0H415.0V-144.0ZM7.0 -396.0V-855.0H110.0V-512.0H419.0V-396.0ZM358.0 -396.0V-737.0C358.0 -747.0 354.0 -748.0 349.0 -750.0C343.0 -750.0 325.0 -750.0 310.0 -749.0C321.0 -776.0 332.0 -819.0 336.0 -851.0C375.0 -851.0 407.0 -851.0 430.0 -834.0C456.0 -816.0 462.0 -790.0 462.0 -739.0V-396.0ZM625.0 100.0C618.0 61.0 606.0 5.0 592.0 -36.0L696.0 -56.0C715.0 -19.0 738.0 33.0 761.0 87.0ZM160.0 -532.0V-608.0H261.0V-661.0H162.0V-737.0H337.0V-532.0ZM133.0 -532.0V-783.0H215.0V-532.0Z"/></g>
</svg>
