<?xml version="1.0" encoding="UTF-8"?>
<svg width="1700" height="400" xmlns="http://www.w3.org/2000/svg">
<rect width="100%" height="100%" fill="white"/>
<g fill="green" transform="translate(100 100) scale(0.1 -0.1)"><path d="M0.0 -0.0V-42.0H382.0V0.0ZM551.0 0.0V-42.0H965.0V0.0ZM163.0 381.0V36.0H204.0V381.0ZM594.0 46.0V-338.0H635.0V46.0ZM-76.0 49.0V7.0H1026.0V49.0ZM-154.0 444.0V-11.0C-154.0 -217.0 -161.0 -503.0 -246.0 -713.0C-236.0 -718.0 -216.0 -730.0 -209.0 -736.0C-124.0 -521.0 -112.0 -222.0 -112.0 -11.0V444.0ZM381.0 549.0C398.0 505.0 418.0 448.0 425.0 411.0L466.0 426.0C458.0 461.0 438.0 517.0 421.0 559.0ZM40.0 232.0V174.0C40.0 123.0 28.0 71.0 -47.0 48.0C-38.0 44.0 -21.0 28.0 -14.0 19.0C69.0 53.0 82.0 107.0 82.0 173.0V232.0ZM528.0 232.0V187.0C528.0 138.0 518.0 82.0 466.0 58.0C476.0 53.0 496.0 39.0 502.0 30.0C560.0 68.0 570.0 121.0 570.0 185.0V232.0ZM319.0 227.0V148.0C319.0 97.0 328.0 80.0 367.0 80.0C379.0 80.0 402.0 80.0 411.0 80.0C426.0 80.0 441.0 81.0 452.0 83.0C452.0 93.0 451.0 109.0 449.0 118.0C435.0 116.0 419.0 115.0 409.0 115.0C400.0 115.0 383.0 115.0 376.0 115.0C362.0 115.0 360.0 121.0 360.0 147.0V227.0ZM792.0 231.0V127.0C792.0 74.0 801.0 58.0 846.0 58.0C860.0 58.0 913.0 58.0 925.0 58.0C947.0 58.0 969.0 59.0 977.0 62.0C975.0 70.0 974.0 87.0 974.0 96.0C961.0 94.0 938.0 93.0 924.0 93.0C911.0 93.0 864.0 93.0 853.0 93.0C834.0 93.0 834.0 99.0 834.0 127.0V231.0Z"/></g>
<g fill="green" transform="translate(200 100) scale(0.1 -0.1)"><path d="M0.0 0.0V-130.0H374.0V0.0ZM582.0 0.0V-134.0H1000.0V0.0ZM139.0 354.0V9.0H286.0V354.0ZM578.0 24.0V-369.0H749.0V24.0ZM-38.0 75.0V-78.0H1031.0V75.0ZM-221.0 509.0V77.0C-221.0 -136.0 -227.0 -441.0 -326.0 -648.0C-284.0 -668.0 -201.0 -729.0 -167.0 -763.0C-53.0 -534.0 -33.0 -161.0 -33.0 77.0V509.0ZM315.0 557.0C334.0 504.0 356.0 431.0 366.0 387.0L586.0 445.0C573.0 488.0 545.0 557.0 524.0 607.0ZM27.0 150.0V124.0C27.0 99.0 18.0 61.0 -17.0 49.0C12.0 35.0 62.0 -1.0 83.0 -25.0C125.0 11.0 133.0 66.0 133.0 117.0V150.0ZM542.0 155.0V136.0C542.0 109.0 532.0 68.0 499.0 53.0C527.0 40.0 573.0 9.0 593.0 -13.0C630.0 25.0 639.0 79.0 639.0 130.0V155.0ZM327.0 145.0V86.0C327.0 20.0 339.0 -15.0 411.0 -15.0C429.0 -15.0 420.0 -15.0 431.0 -15.0C450.0 -15.0 472.0 -14.0 483.0 -9.0C481.0 17.0 481.0 41.0 480.0 65.0C466.0 61.0 439.0 59.0 428.0 59.0C425.0 59.0 449.0 59.0 445.0 59.0C431.0 59.0 429.0 67.0 429.0 84.0V145.0ZM839.0 154.0V97.0C839.0 38.0 851.0 1.0 923.0 1.0C944.0 1.0 955.0 1.0 970.0 1.0C991.0 1.0 1019.0 3.0 1031.0 8.0C1029.0 35.0 1028.0 55.0 1027.0 78.0C1013.0 73.0 980.0 72.0 966.0 72.0C960.0 72.0 970.0 72.0 966.0 72.0C947.0 72.0 945.0 81.0 945.0 97.0V154.0Z"/></g>
<g fill="green" transform="translate(300 100) scale(0.1 -0.1)"><path d="M0.0 0.0V-31.0H269.0V0.0ZM422.0 0.0V-31.0H711.0V0.0ZM96.0 369.0V163.0H126.0V369.0ZM417.0 16.0V-229.0H447.0V16.0ZM-52.0 5.0V-26.0H760.0V5.0ZM-122.0 384.0V38.0C-122.0 -115.0 -126.0 -327.0 -184.0 -483.0C-176.0 -487.0 -161.0 -496.0 -156.0 -499.0C-98.0 -340.0 -90.0 -119.0 -90.0 38.0V384.0ZM280.0 458.0C291.0 426.0 305.0 385.0 309.0 359.0L340.0 370.0C334.0 395.0 321.0 435.0 310.0 465.0ZM26.0 248.0V207.0C26.0 174.0 17.0 146.0 -36.0 138.0C-30.0 136.0 -17.0 123.0 -12.0 117.0C48.0 132.0 58.0 162.0 58.0 206.0V248.0ZM386.0 248.0V221.0C386.0 189.0 378.0 156.0 345.0 147.0C352.0 143.0 368.0 133.0 372.0 126.0C410.0 146.0 417.0 176.0 417.0 219.0V248.0ZM231.0 243.0V212.0C231.0 174.0 238.0 161.0 267.0 161.0C276.0 161.0 295.0 161.0 302.0 161.0C313.0 161.0 324.0 162.0 333.0 164.0C333.0 171.0 332.0 183.0 330.0 190.0C319.0 188.0 307.0 187.0 300.0 187.0C293.0 187.0 279.0 187.0 274.0 187.0C263.0 187.0 261.0 192.0 261.0 211.0V243.0ZM578.0 246.0V196.0C578.0 157.0 585.0 145.0 618.0 145.0C629.0 145.0 669.0 145.0 678.0 145.0C695.0 145.0 711.0 146.0 717.0 148.0C715.0 154.0 715.0 167.0 715.0 173.0C705.0 172.0 688.0 171.0 677.0 171.0C667.0 171.0 632.0 171.0 623.0 171.0C609.0 171.0 609.0 176.0 609.0 196.0V246.0Z"/></g>
<g fill="green" transform="translate(400 100) scale(0.1 -0.1)"><path d="M0.0 0.0V-94.0H261.0V0.0ZM455.0 0.0V-97.0H747.0V0.0ZM88.0 354.0V140.0H193.0V354.0ZM417.0 8.0V-252.0H547.0V8.0ZM-13.0 17.0V-92.0H771.0V17.0ZM-163.0 433.0V112.0C-163.0 -48.0 -167.0 -276.0 -240.0 -432.0C-209.0 -447.0 -148.0 -492.0 -123.0 -517.0C-39.0 -345.0 -25.0 -66.0 -25.0 112.0V433.0ZM242.0 464.0C256.0 425.0 272.0 371.0 280.0 340.0L443.0 383.0C433.0 415.0 411.0 465.0 396.0 502.0ZM22.0 182.0V171.0C22.0 158.0 16.0 137.0 -6.0 135.0C16.0 125.0 54.0 99.0 70.0 81.0C95.0 101.0 100.0 133.0 100.0 166.0V182.0ZM412.0 187.0V183.0C412.0 167.0 404.0 142.0 381.0 137.0C402.0 128.0 436.0 106.0 451.0 91.0C474.0 114.0 481.0 145.0 481.0 179.0V187.0ZM244.0 178.0V149.0C244.0 101.0 253.0 76.0 305.0 76.0C319.0 76.0 313.0 76.0 321.0 76.0C335.0 76.0 351.0 76.0 359.0 80.0C358.0 99.0 358.0 117.0 357.0 134.0C347.0 131.0 327.0 130.0 318.0 130.0C316.0 130.0 334.0 130.0 331.0 130.0C320.0 130.0 319.0 135.0 319.0 147.0V178.0ZM629.0 186.0V165.0C629.0 127.0 637.0 100.0 687.0 100.0C703.0 100.0 712.0 100.0 723.0 100.0C739.0 100.0 760.0 101.0 769.0 105.0C767.0 125.0 767.0 137.0 766.0 153.0C756.0 149.0 730.0 149.0 720.0 149.0C716.0 149.0 725.0 149.0 723.0 149.0C708.0 149.0 706.0 155.0 706.0 165.0V186.0Z"/></g>
<g fill="green" transform="translate(500 100) scale(0.1 -0.1)"><path d="M0.0 0.0V-34.0H356.0V0.0ZM356.0 0.0V-34.0H750.0V0.0ZM147.0 -24.0V-443.0H179.0V-24.0ZM550.0 76.0V-262.0H583.0V76.0ZM-40.0 -359.0V-392.0H794.0V-359.0ZM-118.0 70.0V-267.0C-118.0 -428.0 -124.0 -651.0 -198.0 -814.0C-191.0 -819.0 -175.0 -828.0 -170.0 -833.0C-96.0 -665.0 -85.0 -432.0 -85.0 -267.0V70.0ZM291.0 170.0C308.0 131.0 327.0 79.0 335.0 47.0L367.0 59.0C358.0 90.0 338.0 141.0 322.0 178.0ZM26.0 -158.0V-209.0C26.0 -263.0 17.0 -320.0 -49.0 -355.0C-42.0 -358.0 -29.0 -369.0 -24.0 -377.0C48.0 -334.0 59.0 -275.0 59.0 -209.0V-158.0ZM417.0 -158.0V-207.0C417.0 -259.0 410.0 -317.0 370.0 -350.0C376.0 -354.0 392.0 -365.0 396.0 -372.0C442.0 -327.0 450.0 -272.0 450.0 -208.0V-158.0ZM249.0 -161.0V-285.0C249.0 -326.0 256.0 -339.0 287.0 -339.0C297.0 -339.0 316.0 -339.0 323.0 -339.0C335.0 -339.0 346.0 -339.0 355.0 -337.0C355.0 -329.0 354.0 -316.0 353.0 -308.0C342.0 -310.0 329.0 -310.0 321.0 -310.0C314.0 -310.0 300.0 -310.0 294.0 -310.0C283.0 -310.0 281.0 -307.0 281.0 -285.0V-161.0ZM629.0 -158.0V-290.0C629.0 -333.0 636.0 -346.0 672.0 -346.0C683.0 -346.0 724.0 -346.0 733.0 -346.0C750.0 -346.0 767.0 -345.0 774.0 -342.0C772.0 -336.0 771.0 -322.0 771.0 -315.0C761.0 -317.0 744.0 -318.0 733.0 -318.0C723.0 -318.0 686.0 -318.0 677.0 -318.0C663.0 -318.0 663.0 -313.0 663.0 -291.0V-158.0Z"/></g>
<g fill="green" transform="translate(600 100) scale(0.1 -0.1)"><path d="M0.0 0.0V-128.0H366.0V0.0ZM351.0 0.0V-128.0H781.0V0.0ZM113.0 -53.0V-488.0H237.0V-53.0ZM533.0 36.0V-292.0H648.0V36.0ZM-16.0 -357.0V-483.0H790.0V-357.0ZM-184.0 113.0V-225.0C-184.0 -389.0 -189.0 -621.0 -272.0 -778.0C-237.0 -794.0 -168.0 -841.0 -139.0 -867.0C-46.0 -694.0 -30.0 -410.0 -30.0 -225.0V113.0ZM247.0 171.0C260.0 121.0 273.0 54.0 279.0 14.0L457.0 49.0C449.0 89.0 429.0 155.0 415.0 202.0ZM10.0 -223.0V-260.0C10.0 -293.0 3.0 -336.0 -29.0 -360.0C-7.0 -372.0 32.0 -402.0 49.0 -422.0C88.0 -379.0 95.0 -318.0 95.0 -264.0V-223.0ZM405.0 -219.0V-257.0C405.0 -291.0 398.0 -338.0 380.0 -365.0C402.0 -376.0 439.0 -404.0 455.0 -422.0C479.0 -376.0 486.0 -316.0 486.0 -261.0V-219.0ZM242.0 -226.0V-308.0C242.0 -363.0 252.0 -391.0 312.0 -391.0C326.0 -391.0 326.0 -391.0 336.0 -391.0C351.0 -391.0 370.0 -390.0 379.0 -386.0C377.0 -366.0 377.0 -346.0 376.0 -327.0C364.0 -330.0 343.0 -332.0 333.0 -332.0C329.0 -332.0 341.0 -332.0 337.0 -332.0C326.0 -332.0 324.0 -325.0 324.0 -310.0V-226.0ZM645.0 -222.0V-314.0C645.0 -372.0 656.0 -403.0 719.0 -403.0C735.0 -403.0 740.0 -403.0 751.0 -403.0C766.0 -403.0 787.0 -401.0 798.0 -397.0C796.0 -375.0 794.0 -353.0 793.0 -333.0C782.0 -337.0 759.0 -338.0 748.0 -338.0C743.0 -338.0 750.0 -338.0 747.0 -338.0C734.0 -338.0 732.0 -331.0 732.0 -314.0V-222.0Z"/></g>
<g fill="green" transform="translate(700 100) scale(0.1 -0.1)"><path d="M0.0 -0.0V-40.0H362.0V0.0ZM571.0 0.0V-40.0H975.0V0.0ZM59.0 788.0V85.0H98.0V788.0ZM582.0 137.0V-628.0H621.0V137.0ZM-62.0 388.0V348.0H984.0V388.0ZM-117.0 634.0V245.0C-117.0 59.0 -124.0 -202.0 -202.0 -394.0C-194.0 -398.0 -176.0 -410.0 -169.0 -416.0C-90.0 -219.0 -78.0 55.0 -78.0 245.0V634.0ZM384.0 765.0C407.0 714.0 433.0 649.0 444.0 606.0L482.0 621.0C471.0 662.0 443.0 726.0 420.0 775.0ZM59.0 305.0V223.0C59.0 120.0 49.0 9.0 -30.0 -72.0C-21.0 -76.0 -5.0 -90.0 2.0 -99.0C85.0 -8.0 99.0 106.0 99.0 222.0V305.0ZM541.0 305.0V214.0C541.0 113.0 528.0 4.0 443.0 -72.0C452.0 -75.0 470.0 -89.0 477.0 -99.0C566.0 -11.0 580.0 98.0 580.0 213.0V305.0ZM333.0 301.0V81.0C333.0 31.0 340.0 16.0 378.0 16.0C390.0 16.0 416.0 16.0 425.0 16.0C440.0 16.0 453.0 17.0 464.0 18.0C464.0 27.0 464.0 42.0 461.0 51.0C449.0 49.0 433.0 48.0 424.0 48.0C415.0 48.0 393.0 48.0 385.0 48.0C372.0 48.0 370.0 53.0 370.0 80.0V301.0ZM798.0 306.0V12.0C798.0 -41.0 806.0 -56.0 850.0 -56.0C863.0 -56.0 912.0 -56.0 923.0 -56.0C942.0 -56.0 962.0 -56.0 970.0 -53.0C969.0 -45.0 967.0 -30.0 968.0 -22.0C956.0 -23.0 935.0 -24.0 922.0 -24.0C910.0 -24.0 865.0 -24.0 855.0 -24.0C839.0 -24.0 838.0 -18.0 838.0 12.0V306.0Z"/></g>
<g fill="green" transform="translate(800 100) scale(0.1 -0.1)"><path d="M0.0 0.0V-143.0H327.0V0.0ZM585.0 0.0V-147.0H958.0V0.0ZM29.0 721.0V3.0H167.0V721.0ZM514.0 92.0V-696.0H699.0V92.0ZM-44.0 411.0V247.0H970.0V411.0ZM-196.0 681.0V324.0C-196.0 126.0 -201.0 -165.0 -286.0 -362.0C-245.0 -381.0 -163.0 -439.0 -130.0 -471.0C-31.0 -253.0 -13.0 102.0 -13.0 324.0V681.0ZM304.0 753.0C328.0 693.0 357.0 610.0 370.0 559.0L571.0 618.0C555.0 668.0 522.0 745.0 496.0 803.0ZM22.0 220.0V151.0C22.0 79.0 13.0 -7.0 -30.0 -68.0C-2.0 -82.0 45.0 -120.0 65.0 -144.0C117.0 -59.0 126.0 49.0 126.0 146.0V220.0ZM510.0 224.0V147.0C510.0 72.0 498.0 -16.0 431.0 -75.0C459.0 -89.0 503.0 -125.0 521.0 -149.0C598.0 -65.0 611.0 41.0 611.0 143.0V224.0ZM323.0 218.0V21.0C323.0 -50.0 336.0 -85.0 408.0 -85.0C426.0 -85.0 421.0 -85.0 432.0 -85.0C450.0 -85.0 470.0 -84.0 481.0 -79.0C479.0 -56.0 479.0 -30.0 478.0 -7.0C465.0 -11.0 440.0 -13.0 429.0 -13.0C426.0 -13.0 441.0 -13.0 437.0 -13.0C424.0 -13.0 422.0 -5.0 422.0 19.0V218.0ZM804.0 218.0V-5.0C804.0 -93.0 820.0 -132.0 907.0 -132.0C923.0 -132.0 922.0 -132.0 933.0 -132.0C951.0 -132.0 974.0 -130.0 988.0 -124.0C985.0 -98.0 982.0 -63.0 980.0 -36.0C967.0 -41.0 945.0 -43.0 931.0 -43.0C925.0 -43.0 934.0 -43.0 930.0 -43.0C917.0 -43.0 916.0 -32.0 916.0 -6.0V218.0Z"/></g>
<g fill="green" transform="translate(900 100) scale(0.1 -0.1)"><path d="M0.0 -0.0V-41.0H378.0V0.0ZM551.0 0.0V-41.0H957.0V0.0ZM397.0 -69.0V-415.0H438.0V-69.0ZM589.0 36.0V-376.0H629.0V36.0ZM-114.0 341.0V300.0H1025.0V341.0ZM-150.0 436.0V-18.0C-150.0 -220.0 -157.0 -500.0 -236.0 -706.0C-225.0 -711.0 -206.0 -723.0 -199.0 -729.0C-120.0 -517.0 -108.0 -224.0 -108.0 -18.0V436.0ZM388.0 532.0C404.0 490.0 423.0 437.0 428.0 401.0L470.0 415.0C462.0 449.0 444.0 501.0 428.0 542.0ZM48.0 241.0V183.0C48.0 135.0 38.0 74.0 -36.0 43.0C-27.0 38.0 -10.0 23.0 -3.0 15.0C78.0 56.0 89.0 119.0 89.0 181.0V241.0ZM527.0 241.0V193.0C527.0 148.0 518.0 85.0 459.0 53.0C470.0 47.0 488.0 34.0 494.0 25.0C559.0 69.0 568.0 132.0 568.0 191.0V241.0ZM325.0 237.0V138.0C325.0 87.0 334.0 71.0 372.0 71.0C383.0 71.0 399.0 71.0 407.0 71.0C421.0 71.0 436.0 72.0 446.0 74.0C446.0 84.0 445.0 100.0 443.0 109.0C430.0 107.0 415.0 106.0 405.0 106.0C397.0 106.0 387.0 106.0 380.0 106.0C368.0 106.0 366.0 111.0 366.0 137.0V237.0ZM792.0 240.0V121.0C792.0 68.0 801.0 53.0 845.0 53.0C859.0 53.0 908.0 53.0 920.0 53.0C941.0 53.0 962.0 53.0 970.0 56.0C969.0 64.0 968.0 80.0 967.0 90.0C954.0 87.0 932.0 86.0 919.0 86.0C906.0 86.0 863.0 86.0 852.0 86.0C834.0 86.0 834.0 93.0 834.0 121.0V240.0Z"/></g>
<g fill="green" transform="translate(1000 100) scale(0.1 -0.1)"><path d="M0.0 0.0V-106.0H367.0V0.0ZM574.0 0.0V-110.0H971.0V0.0ZM348.0 -48.0V-413.0H521.0V-48.0ZM555.0 34.0V-366.0H722.0V34.0ZM-102.0 412.0V254.0H1012.0V412.0ZM-229.0 516.0V102.0C-229.0 -109.0 -234.0 -413.0 -323.0 -621.0C-285.0 -641.0 -206.0 -705.0 -174.0 -740.0C-68.0 -508.0 -49.0 -132.0 -49.0 102.0V516.0ZM276.0 552.0C300.0 506.0 331.0 441.0 344.0 402.0L554.0 473.0C536.0 511.0 504.0 570.0 477.0 613.0ZM28.0 182.0V153.0C28.0 130.0 20.0 89.0 -21.0 73.0C7.0 58.0 53.0 23.0 73.0 1.0C125.0 37.0 134.0 98.0 134.0 146.0V182.0ZM521.0 186.0V162.0C521.0 137.0 513.0 93.0 483.0 74.0C510.0 59.0 554.0 30.0 574.0 8.0C611.0 48.0 619.0 109.0 619.0 157.0V186.0ZM325.0 178.0V115.0C325.0 49.0 337.0 14.0 409.0 14.0C425.0 14.0 413.0 14.0 423.0 14.0C442.0 14.0 463.0 15.0 473.0 20.0C471.0 46.0 471.0 70.0 470.0 94.0C457.0 90.0 430.0 88.0 421.0 88.0C418.0 88.0 445.0 88.0 442.0 88.0C428.0 88.0 427.0 96.0 427.0 113.0V178.0ZM815.0 186.0V120.0C815.0 59.0 827.0 24.0 899.0 24.0C919.0 24.0 934.0 24.0 949.0 24.0C971.0 24.0 999.0 25.0 1011.0 31.0C1009.0 57.0 1008.0 77.0 1007.0 100.0C993.0 95.0 960.0 94.0 945.0 94.0C939.0 94.0 944.0 94.0 940.0 94.0C920.0 94.0 919.0 103.0 919.0 119.0V186.0Z"/></g>
<g fill="green" transform="translate(1100 100) scale(0.1 -0.1)"><path d="M0.0 0.0V-42.0H383.0V0.0ZM537.0 0.0V-42.0H951.0V0.0ZM95.0 465.0V177.0H136.0V465.0ZM590.0 31.0V-274.0H631.0V31.0ZM-112.0 253.0V211.0H1013.0V253.0ZM-153.0 388.0V-68.0C-153.0 -285.0 -163.0 -584.0 -265.0 -803.0C-254.0 -808.0 -235.0 -821.0 -228.0 -828.0C-125.0 -603.0 -111.0 -290.0 -111.0 -68.0V388.0ZM375.0 475.0C390.0 437.0 408.0 390.0 413.0 356.0L455.0 371.0C448.0 401.0 431.0 449.0 415.0 486.0ZM32.0 204.0V147.0C32.0 99.0 21.0 56.0 -45.0 41.0C-37.0 37.0 -18.0 21.0 -11.0 12.0C62.0 39.0 74.0 84.0 74.0 146.0V204.0ZM518.0 204.0V165.0C518.0 122.0 508.0 75.0 466.0 61.0C476.0 56.0 497.0 41.0 503.0 33.0C551.0 63.0 560.0 105.0 560.0 165.0V204.0ZM309.0 198.0V138.0C309.0 87.0 318.0 70.0 357.0 70.0C369.0 70.0 394.0 70.0 403.0 70.0C418.0 70.0 433.0 72.0 444.0 73.0C444.0 83.0 443.0 98.0 441.0 107.0C427.0 106.0 411.0 104.0 401.0 104.0C392.0 104.0 374.0 104.0 367.0 104.0C352.0 104.0 350.0 111.0 350.0 137.0V198.0ZM778.0 202.0V127.0C778.0 75.0 787.0 59.0 832.0 59.0C847.0 59.0 901.0 59.0 913.0 59.0C935.0 59.0 958.0 59.0 966.0 62.0C963.0 71.0 963.0 88.0 963.0 96.0C950.0 95.0 926.0 94.0 912.0 94.0C899.0 94.0 851.0 94.0 840.0 94.0C820.0 94.0 820.0 98.0 820.0 126.0V202.0Z"/></g>
<g fill="green" transform="translate(1200 100) scale(0.1 -0.1)"><path d="M0.0 0.0V-130.0H385.0V0.0ZM577.0 0.0V-134.0H1007.0V0.0ZM77.0 432.0V167.0H213.0V432.0ZM595.0 13.0V-295.0H761.0V13.0ZM-78.0 306.0V156.0H1036.0V306.0ZM-212.0 454.0V20.0C-212.0 -198.0 -218.0 -511.0 -317.0 -723.0C-275.0 -742.0 -192.0 -803.0 -158.0 -837.0C-44.0 -602.0 -25.0 -222.0 -25.0 20.0V454.0ZM307.0 498.0C321.0 456.0 338.0 396.0 345.0 360.0L565.0 413.0C555.0 449.0 534.0 504.0 518.0 544.0ZM27.0 117.0V100.0C27.0 81.0 18.0 52.0 -13.0 49.0C17.0 35.0 68.0 0.0 89.0 -24.0C125.0 4.0 132.0 48.0 132.0 93.0V117.0ZM551.0 122.0V118.0C551.0 101.0 541.0 72.0 504.0 69.0C533.0 58.0 579.0 27.0 599.0 6.0C637.0 31.0 646.0 71.0 646.0 111.0V122.0ZM323.0 110.0V79.0C323.0 15.0 335.0 -20.0 405.0 -20.0C423.0 -20.0 412.0 -20.0 423.0 -20.0C442.0 -20.0 463.0 -19.0 474.0 -14.0C472.0 12.0 472.0 36.0 471.0 60.0C458.0 56.0 430.0 54.0 420.0 54.0C417.0 54.0 444.0 54.0 440.0 54.0C426.0 54.0 424.0 61.0 424.0 77.0V110.0ZM845.0 122.0V102.0C845.0 49.0 856.0 13.0 924.0 13.0C946.0 13.0 958.0 13.0 974.0 13.0C995.0 13.0 1023.0 15.0 1035.0 19.0C1033.0 47.0 1033.0 63.0 1032.0 85.0C1018.0 80.0 983.0 79.0 969.0 79.0C963.0 79.0 975.0 79.0 971.0 79.0C951.0 79.0 949.0 88.0 949.0 101.0V122.0Z"/></g>
<g fill="green" transform="translate(1300 100) scale(0.1 -0.1)"><path d="M0.0 0.0V-42.0H393.0V0.0ZM561.0 0.0V-42.0H982.0V0.0ZM209.0 372.0V99.0H250.0V372.0ZM615.0 76.0V-331.0H656.0V76.0ZM-51.0 54.0V12.0H1046.0V54.0ZM-130.0 443.0V-4.0C-130.0 -206.0 -138.0 -483.0 -232.0 -687.0C-221.0 -693.0 -203.0 -704.0 -196.0 -712.0C-101.0 -501.0 -88.0 -212.0 -88.0 -4.0V443.0ZM392.0 559.0C412.0 511.0 435.0 449.0 444.0 409.0L485.0 424.0C475.0 462.0 452.0 523.0 432.0 569.0ZM58.0 216.0V166.0C58.0 131.0 47.0 76.0 -40.0 48.0C-30.0 42.0 -15.0 30.0 -8.0 21.0C87.0 57.0 100.0 116.0 100.0 166.0V216.0ZM545.0 216.0V171.0C545.0 136.0 537.0 79.0 466.0 49.0C478.0 42.0 494.0 30.0 501.0 20.0C577.0 61.0 587.0 121.0 587.0 169.0V216.0ZM343.0 213.0V138.0C343.0 88.0 351.0 70.0 390.0 70.0C401.0 70.0 412.0 70.0 419.0 70.0C433.0 70.0 448.0 71.0 458.0 73.0C457.0 83.0 456.0 100.0 455.0 108.0C442.0 107.0 427.0 105.0 418.0 105.0C410.0 105.0 404.0 105.0 397.0 105.0C385.0 105.0 383.0 111.0 383.0 137.0V213.0ZM821.0 216.0V116.0C821.0 64.0 830.0 48.0 874.0 48.0C888.0 48.0 936.0 48.0 948.0 48.0C968.0 48.0 989.0 49.0 997.0 52.0C996.0 60.0 995.0 78.0 994.0 88.0C981.0 84.0 959.0 83.0 947.0 83.0C934.0 83.0 892.0 83.0 881.0 83.0C863.0 83.0 863.0 90.0 863.0 117.0V216.0Z"/></g>
<g fill="green" transform="translate(1400 100) scale(0.1 -0.1)"><path d="M0.0 0.0V-119.0H375.0V0.0ZM569.0 0.0V-123.0H971.0V0.0ZM165.0 310.0V112.0H308.0V310.0ZM552.0 24.0V-383.0H722.0V24.0ZM-33.0 74.0V-81.0H1024.0V74.0ZM-222.0 502.0V32.0C-222.0 -172.0 -229.0 -453.0 -338.0 -642.0C-296.0 -663.0 -213.0 -726.0 -180.0 -761.0C-53.0 -550.0 -31.0 -199.0 -31.0 32.0V502.0ZM305.0 556.0C325.0 497.0 347.0 417.0 356.0 369.0L583.0 424.0C569.0 472.0 542.0 549.0 520.0 604.0ZM28.0 151.0V115.0C28.0 98.0 20.0 62.0 -29.0 49.0C-1.0 31.0 42.0 -4.0 62.0 -27.0C127.0 5.0 137.0 67.0 137.0 109.0V151.0ZM511.0 154.0V122.0C511.0 105.0 504.0 69.0 472.0 56.0C500.0 39.0 543.0 8.0 563.0 -15.0C606.0 18.0 615.0 75.0 615.0 115.0V154.0ZM332.0 150.0V107.0C332.0 41.0 344.0 5.0 416.0 5.0C434.0 5.0 416.0 5.0 427.0 5.0C443.0 5.0 466.0 6.0 477.0 11.0C474.0 37.0 474.0 63.0 473.0 87.0C460.0 83.0 434.0 81.0 423.0 81.0C422.0 81.0 454.0 81.0 451.0 81.0C439.0 81.0 437.0 90.0 437.0 106.0V150.0ZM813.0 155.0V102.0C813.0 37.0 826.0 1.0 902.0 1.0C923.0 1.0 939.0 1.0 954.0 1.0C977.0 1.0 1005.0 2.0 1018.0 7.0C1015.0 35.0 1015.0 58.0 1013.0 83.0C999.0 78.0 965.0 76.0 951.0 76.0C944.0 76.0 945.0 76.0 940.0 76.0C923.0 76.0 920.0 85.0 920.0 103.0V155.0Z"/></g>
<g fill="red" transform="translate(100 200) scale(0.1 -0.1)"><path d="M0.0 0.0V-29.0H309.0V0.0ZM340.0 0.0V-29.0H680.0V0.0ZM143.0 71.0V-259.0H172.0V71.0ZM481.0 71.0V-236.0H510.0V71.0ZM-74.0 115.0V86.0H725.0V115.0ZM-91.0 115.0V-190.0C-91.0 -337.0 -99.0 -536.0 -180.0 -683.0C-173.0 -687.0 -161.0 -695.0 -156.0 -702.0C-73.0 -550.0 -62.0 -340.0 -62.0 -190.0V115.0ZM261.0 193.0C278.0 162.0 297.0 120.0 305.0 92.0L334.0 103.0C325.0 129.0 305.0 170.0 288.0 202.0ZM31.0 -67.0V-111.0C31.0 -154.0 24.0 -206.0 -31.0 -239.0C-24.0 -243.0 -12.0 -252.0 -7.0 -258.0C52.0 -218.0 60.0 -164.0 60.0 -111.0V-67.0ZM380.0 -67.0V-110.0C380.0 -152.0 373.0 -204.0 330.0 -234.0C337.0 -238.0 350.0 -248.0 354.0 -254.0C402.0 -214.0 409.0 -162.0 409.0 -110.0V-67.0ZM232.0 -69.0V-174.0C232.0 -210.0 238.0 -222.0 266.0 -222.0C274.0 -222.0 286.0 -222.0 292.0 -222.0C302.0 -222.0 313.0 -221.0 320.0 -220.0C320.0 -213.0 319.0 -202.0 318.0 -196.0C309.0 -197.0 298.0 -198.0 291.0 -198.0C285.0 -198.0 276.0 -198.0 271.0 -198.0C262.0 -198.0 261.0 -194.0 261.0 -175.0V-69.0ZM573.0 -66.0V-182.0C573.0 -219.0 579.0 -230.0 611.0 -230.0C620.0 -230.0 655.0 -230.0 664.0 -230.0C678.0 -230.0 693.0 -230.0 699.0 -228.0C698.0 -222.0 697.0 -210.0 697.0 -204.0C688.0 -205.0 672.0 -205.0 663.0 -205.0C654.0 -205.0 623.0 -205.0 615.0 -205.0C603.0 -205.0 602.0 -203.0 602.0 -182.0V-66.0Z"/></g>
<g fill="black" opacity=".8" transform="translate(100 200) scale(0.1 -0.1)"><path d="M0.0 0.0V-30.0H310.0V0.0ZM340.0 0.0V-30.0H679.0V0.0ZM146.0 59.0V-251.0H174.0V59.0ZM480.0 68.0V-233.0H509.0V68.0ZM-73.0 112.0V83.0H717.0V112.0ZM-90.0 116.0V-184.0C-90.0 -335.0 -99.0 -540.0 -181.0 -691.0C-172.0 -696.0 -160.0 -705.0 -156.0 -711.0C-72.0 -554.0 -60.0 -339.0 -60.0 -184.0V116.0ZM269.0 192.0C284.0 161.0 300.0 122.0 306.0 95.0L336.0 105.0C328.0 130.0 312.0 169.0 297.0 200.0ZM31.0 -67.0V-112.0C31.0 -154.0 25.0 -206.0 -30.0 -239.0C-25.0 -243.0 -12.0 -251.0 -7.0 -258.0C52.0 -218.0 61.0 -163.0 61.0 -112.0V-67.0ZM379.0 -67.0V-111.0C379.0 -149.0 373.0 -200.0 330.0 -230.0C337.0 -235.0 350.0 -244.0 354.0 -251.0C402.0 -210.0 408.0 -160.0 408.0 -110.0V-67.0ZM233.0 -70.0V-174.0C233.0 -210.0 238.0 -222.0 266.0 -222.0C274.0 -222.0 286.0 -222.0 291.0 -222.0C301.0 -222.0 311.0 -221.0 319.0 -220.0C318.0 -213.0 317.0 -202.0 317.0 -195.0C307.0 -196.0 296.0 -198.0 290.0 -198.0C284.0 -198.0 277.0 -198.0 272.0 -198.0C262.0 -198.0 260.0 -194.0 260.0 -174.0V-70.0ZM572.0 -68.0V-179.0C572.0 -216.0 578.0 -227.0 610.0 -227.0C621.0 -227.0 655.0 -227.0 663.0 -227.0C677.0 -227.0 692.0 -228.0 698.0 -225.0C697.0 -219.0 697.0 -206.0 696.0 -200.0C687.0 -202.0 671.0 -203.0 663.0 -203.0C654.0 -203.0 623.0 -203.0 615.0 -203.0C602.0 -203.0 602.0 -200.0 602.0 -180.0V-68.0Z"/></g>
<g fill="red" transform="translate(200 200) scale(0.1 -0.1)"><path d="M0.0 0.0V-100.0H311.0V0.0ZM334.0 0.0V-100.0H690.0V0.0ZM101.0 26.0V-262.0H208.0V26.0ZM449.0 26.0V-238.0H556.0V26.0ZM-70.0 156.0V38.0H714.0V156.0ZM-154.0 156.0V-169.0C-154.0 -312.0 -159.0 -509.0 -233.0 -641.0C-204.0 -656.0 -146.0 -703.0 -123.0 -729.0C-35.0 -579.0 -20.0 -331.0 -20.0 -169.0V156.0ZM201.0 207.0C216.0 167.0 234.0 112.0 241.0 78.0L394.0 117.0C384.0 151.0 365.0 202.0 348.0 240.0ZM12.0 -113.0V-146.0C12.0 -169.0 6.0 -205.0 -27.0 -223.0C-7.0 -234.0 26.0 -260.0 40.0 -278.0C82.0 -244.0 89.0 -192.0 89.0 -150.0V-113.0ZM356.0 -111.0V-143.0C356.0 -163.0 351.0 -197.0 334.0 -213.0C353.0 -223.0 385.0 -248.0 399.0 -265.0C424.0 -233.0 430.0 -185.0 430.0 -147.0V-111.0ZM222.0 -115.0V-174.0C222.0 -222.0 231.0 -248.0 284.0 -248.0C296.0 -248.0 292.0 -248.0 300.0 -248.0C313.0 -248.0 330.0 -247.0 338.0 -244.0C336.0 -225.0 336.0 -207.0 335.0 -190.0C325.0 -193.0 306.0 -194.0 298.0 -194.0C295.0 -194.0 310.0 -194.0 307.0 -194.0C298.0 -194.0 296.0 -188.0 296.0 -175.0V-115.0ZM571.0 -112.0V-174.0C571.0 -225.0 581.0 -252.0 638.0 -252.0C651.0 -252.0 659.0 -252.0 669.0 -252.0C684.0 -252.0 703.0 -251.0 712.0 -248.0C710.0 -228.0 710.0 -209.0 708.0 -190.0C698.0 -194.0 676.0 -195.0 667.0 -195.0C662.0 -195.0 666.0 -195.0 662.0 -195.0C651.0 -195.0 649.0 -189.0 649.0 -175.0V-112.0Z"/></g>
<g fill="black" opacity=".8" transform="translate(200 200) scale(0.1 -0.1)"><path d="M0.0 0.0V-99.0H314.0V0.0ZM337.0 0.0V-100.0H691.0V0.0ZM107.0 23.0V-252.0H212.0V23.0ZM451.0 31.0V-252.0H557.0V31.0ZM-73.0 155.0V40.0H712.0V155.0ZM-156.0 158.0V-152.0C-156.0 -300.0 -160.0 -508.0 -233.0 -648.0C-204.0 -662.0 -143.0 -706.0 -119.0 -731.0C-34.0 -574.0 -20.0 -318.0 -20.0 -152.0V158.0ZM200.0 204.0C210.0 169.0 223.0 120.0 227.0 92.0L385.0 124.0C377.0 155.0 363.0 200.0 351.0 233.0ZM12.0 -117.0V-150.0C12.0 -173.0 7.0 -207.0 -27.0 -226.0C-6.0 -239.0 25.0 -264.0 40.0 -281.0C83.0 -248.0 89.0 -194.0 89.0 -153.0V-117.0ZM358.0 -114.0V-145.0C358.0 -165.0 353.0 -199.0 327.0 -215.0C348.0 -226.0 379.0 -251.0 393.0 -266.0C426.0 -235.0 433.0 -187.0 433.0 -149.0V-114.0ZM222.0 -119.0V-173.0C222.0 -221.0 231.0 -247.0 283.0 -247.0C295.0 -247.0 287.0 -247.0 296.0 -247.0C308.0 -247.0 323.0 -246.0 331.0 -243.0C329.0 -225.0 329.0 -205.0 328.0 -189.0C319.0 -191.0 300.0 -193.0 292.0 -193.0C290.0 -193.0 309.0 -193.0 306.0 -193.0C297.0 -193.0 296.0 -188.0 296.0 -175.0V-119.0ZM573.0 -115.0V-178.0C573.0 -230.0 582.0 -255.0 638.0 -255.0C653.0 -255.0 661.0 -255.0 671.0 -255.0C686.0 -255.0 705.0 -255.0 716.0 -251.0C713.0 -231.0 713.0 -212.0 711.0 -194.0C701.0 -198.0 679.0 -199.0 668.0 -199.0C664.0 -199.0 666.0 -199.0 663.0 -199.0C652.0 -199.0 650.0 -193.0 650.0 -179.0V-115.0Z"/></g>
<g fill="red" transform="translate(300 200) scale(0.1 -0.1)"><path d="M0.0 0.0V-30.0H309.0V0.0ZM340.0 0.0V-30.0H680.0V0.0ZM134.0 70.0V-243.0H163.0V70.0ZM481.0 70.0V-231.0H510.0V70.0ZM-25.0 -276.0V-306.0H721.0V-276.0ZM-98.0 129.0V-174.0C-98.0 -316.0 -104.0 -512.0 -170.0 -656.0C-163.0 -660.0 -150.0 -668.0 -145.0 -673.0C-78.0 -525.0 -69.0 -320.0 -69.0 -174.0V129.0ZM266.0 221.0C282.0 185.0 299.0 137.0 307.0 108.0L335.0 119.0C327.0 147.0 309.0 194.0 294.0 228.0ZM31.0 -68.0V-109.0C31.0 -147.0 23.0 -195.0 -40.0 -223.0C-33.0 -227.0 -22.0 -236.0 -17.0 -243.0C51.0 -208.0 60.0 -158.0 60.0 -109.0V-68.0ZM380.0 -68.0V-108.0C380.0 -146.0 373.0 -195.0 330.0 -223.0C337.0 -227.0 350.0 -236.0 354.0 -242.0C402.0 -206.0 409.0 -157.0 409.0 -109.0V-68.0ZM232.0 -70.0V-163.0C232.0 -199.0 238.0 -211.0 266.0 -211.0C274.0 -211.0 286.0 -211.0 292.0 -211.0C302.0 -211.0 313.0 -211.0 320.0 -209.0C320.0 -202.0 319.0 -190.0 318.0 -184.0C309.0 -186.0 298.0 -186.0 291.0 -186.0C285.0 -186.0 276.0 -186.0 271.0 -186.0C262.0 -186.0 261.0 -182.0 261.0 -164.0V-70.0ZM573.0 -67.0V-171.0C573.0 -208.0 579.0 -220.0 611.0 -220.0C620.0 -220.0 655.0 -220.0 664.0 -220.0C678.0 -220.0 693.0 -219.0 699.0 -217.0C698.0 -211.0 697.0 -199.0 697.0 -192.0C688.0 -194.0 672.0 -195.0 663.0 -195.0C654.0 -195.0 623.0 -195.0 615.0 -195.0C603.0 -195.0 602.0 -191.0 602.0 -171.0V-67.0Z"/></g>
<g fill="black" opacity=".8" transform="translate(300 200) scale(0.1 -0.1)"><path d="M0.0 0.0V-30.0H310.0V0.0ZM341.0 0.0V-30.0H680.0V0.0ZM135.0 70.0V-243.0H163.0V70.0ZM481.0 71.0V-231.0H510.0V71.0ZM-24.0 -277.0V-306.0H721.0V-277.0ZM-98.0 130.0V-174.0C-98.0 -316.0 -103.0 -512.0 -170.0 -655.0C-163.0 -660.0 -150.0 -668.0 -145.0 -673.0C-78.0 -524.0 -68.0 -321.0 -68.0 -174.0V130.0ZM266.0 221.0C282.0 185.0 299.0 137.0 307.0 108.0L336.0 119.0C327.0 147.0 309.0 194.0 294.0 228.0ZM31.0 -68.0V-109.0C31.0 -148.0 23.0 -195.0 -39.0 -224.0C-33.0 -227.0 -22.0 -236.0 -18.0 -242.0C51.0 -208.0 61.0 -158.0 61.0 -109.0V-68.0ZM379.0 -68.0V-108.0C379.0 -146.0 373.0 -195.0 331.0 -222.0C337.0 -227.0 350.0 -236.0 354.0 -243.0C402.0 -205.0 409.0 -157.0 409.0 -109.0V-68.0ZM232.0 -70.0V-163.0C232.0 -199.0 238.0 -211.0 266.0 -211.0C274.0 -211.0 287.0 -211.0 293.0 -211.0C303.0 -211.0 313.0 -211.0 321.0 -209.0C320.0 -202.0 319.0 -190.0 318.0 -183.0C309.0 -185.0 298.0 -186.0 291.0 -186.0C285.0 -186.0 277.0 -186.0 271.0 -186.0C262.0 -186.0 260.0 -182.0 260.0 -163.0V-70.0ZM572.0 -68.0V-171.0C572.0 -209.0 579.0 -220.0 610.0 -220.0C620.0 -220.0 655.0 -220.0 663.0 -220.0C678.0 -220.0 693.0 -219.0 699.0 -217.0C697.0 -211.0 697.0 -198.0 697.0 -192.0C687.0 -194.0 673.0 -195.0 663.0 -195.0C654.0 -195.0 623.0 -195.0 615.0 -195.0C603.0 -195.0 603.0 -190.0 603.0 -171.0V-68.0Z"/></g>
<g fill="red" transform="translate(400 200) scale(0.1 -0.1)"><path d="M0.0 0.0V-106.0H311.0V0.0ZM334.0 0.0V-106.0H690.0V0.0ZM101.0 30.0V-265.0H208.0V30.0ZM449.0 28.0V-267.0H556.0V28.0ZM-7.0 -279.0V-390.0H709.0V-279.0ZM-163.0 167.0V-152.0C-163.0 -296.0 -168.0 -496.0 -246.0 -630.0C-214.0 -645.0 -153.0 -687.0 -128.0 -711.0C-40.0 -562.0 -25.0 -315.0 -25.0 -152.0V167.0ZM221.0 217.0C233.0 171.0 246.0 109.0 251.0 71.0L412.0 104.0C405.0 141.0 387.0 201.0 373.0 245.0ZM12.0 -120.0V-153.0C12.0 -176.0 6.0 -212.0 -27.0 -230.0C-7.0 -241.0 26.0 -267.0 40.0 -285.0C82.0 -251.0 89.0 -199.0 89.0 -157.0V-120.0ZM356.0 -118.0V-151.0C356.0 -175.0 351.0 -212.0 334.0 -232.0C353.0 -243.0 385.0 -267.0 399.0 -284.0C424.0 -248.0 430.0 -197.0 430.0 -155.0V-118.0ZM222.0 -122.0V-181.0C222.0 -229.0 231.0 -255.0 284.0 -255.0C296.0 -255.0 292.0 -255.0 300.0 -255.0C313.0 -255.0 330.0 -254.0 338.0 -251.0C336.0 -232.0 336.0 -214.0 335.0 -197.0C325.0 -200.0 306.0 -201.0 298.0 -201.0C295.0 -201.0 310.0 -201.0 307.0 -201.0C298.0 -201.0 296.0 -195.0 296.0 -182.0V-122.0ZM571.0 -119.0V-189.0C571.0 -240.0 581.0 -267.0 638.0 -267.0C652.0 -267.0 659.0 -267.0 669.0 -267.0C684.0 -267.0 703.0 -266.0 712.0 -263.0C710.0 -243.0 709.0 -223.0 708.0 -205.0C698.0 -209.0 676.0 -210.0 667.0 -210.0C662.0 -210.0 666.0 -210.0 662.0 -210.0C651.0 -210.0 649.0 -204.0 649.0 -189.0V-119.0Z"/></g>
<g fill="black" opacity=".8" transform="translate(400 200) scale(0.1 -0.1)"><path d="M0.0 0.0V-106.0H311.0V0.0ZM334.0 0.0V-106.0H690.0V0.0ZM102.0 30.0V-265.0H208.0V30.0ZM449.0 27.0V-268.0H557.0V27.0ZM-6.0 -279.0V-390.0H710.0V-279.0ZM-163.0 166.0V-152.0C-163.0 -296.0 -168.0 -495.0 -245.0 -630.0C-214.0 -645.0 -153.0 -688.0 -128.0 -711.0C-40.0 -563.0 -25.0 -316.0 -25.0 -152.0V166.0ZM221.0 217.0C234.0 170.0 246.0 108.0 251.0 72.0L413.0 103.0C405.0 141.0 386.0 202.0 373.0 245.0ZM12.0 -121.0V-154.0C12.0 -177.0 6.0 -211.0 -27.0 -229.0C-7.0 -242.0 25.0 -267.0 40.0 -285.0C82.0 -252.0 89.0 -199.0 89.0 -157.0V-121.0ZM356.0 -118.0V-151.0C356.0 -175.0 351.0 -212.0 334.0 -232.0C354.0 -244.0 385.0 -268.0 400.0 -284.0C424.0 -248.0 430.0 -198.0 430.0 -155.0V-118.0ZM222.0 -122.0V-181.0C222.0 -230.0 231.0 -255.0 284.0 -255.0C297.0 -255.0 292.0 -255.0 301.0 -255.0C313.0 -255.0 330.0 -254.0 338.0 -250.0C336.0 -233.0 336.0 -214.0 335.0 -197.0C325.0 -200.0 307.0 -201.0 297.0 -201.0C295.0 -201.0 310.0 -201.0 307.0 -201.0C298.0 -201.0 296.0 -195.0 296.0 -183.0V-122.0ZM571.0 -119.0V-189.0C571.0 -240.0 581.0 -267.0 637.0 -267.0C652.0 -267.0 659.0 -267.0 669.0 -267.0C684.0 -267.0 703.0 -266.0 713.0 -263.0C710.0 -243.0 709.0 -223.0 708.0 -205.0C698.0 -209.0 676.0 -210.0 667.0 -210.0C662.0 -210.0 665.0 -210.0 662.0 -210.0C651.0 -210.0 649.0 -204.0 649.0 -189.0V-119.0Z"/></g>
<g fill="red" transform="translate(500 200) scale(0.1 -0.1)"><path d="M0.0 0.0V-29.0H309.0V0.0ZM340.0 0.0V-29.0H680.0V0.0ZM315.0 -308.0V-701.0H345.0V-308.0ZM481.0 57.0V-292.0H510.0V57.0ZM-87.0 114.0V85.0H725.0V114.0ZM-103.0 114.0V-194.0C-103.0 -338.0 -109.0 -537.0 -173.0 -684.0C-166.0 -687.0 -153.0 -696.0 -148.0 -701.0C-83.0 -550.0 -74.0 -341.0 -74.0 -194.0V114.0ZM273.0 192.0C287.0 160.0 303.0 119.0 309.0 91.0L338.0 101.0C331.0 127.0 315.0 168.0 301.0 200.0ZM31.0 -67.0V-116.0C31.0 -165.0 24.0 -227.0 -31.0 -266.0C-24.0 -270.0 -12.0 -280.0 -7.0 -286.0C52.0 -239.0 60.0 -176.0 60.0 -117.0V-67.0ZM380.0 -67.0V-115.0C380.0 -163.0 373.0 -224.0 330.0 -262.0C337.0 -266.0 350.0 -275.0 354.0 -281.0C402.0 -235.0 409.0 -174.0 409.0 -116.0V-67.0ZM232.0 -69.0V-201.0C232.0 -238.0 238.0 -249.0 266.0 -249.0C274.0 -249.0 286.0 -249.0 292.0 -249.0C302.0 -249.0 313.0 -249.0 320.0 -247.0C320.0 -240.0 319.0 -229.0 318.0 -222.0C309.0 -224.0 298.0 -224.0 291.0 -224.0C285.0 -224.0 276.0 -224.0 271.0 -224.0C262.0 -224.0 261.0 -221.0 261.0 -202.0V-69.0ZM573.0 -66.0V-208.0C573.0 -246.0 579.0 -257.0 611.0 -257.0C620.0 -257.0 655.0 -257.0 664.0 -257.0C678.0 -257.0 693.0 -257.0 699.0 -255.0C698.0 -249.0 697.0 -238.0 697.0 -231.0C688.0 -233.0 672.0 -233.0 663.0 -233.0C654.0 -233.0 623.0 -233.0 615.0 -233.0C603.0 -233.0 602.0 -229.0 602.0 -208.0V-66.0Z"/></g>
<g fill="black" opacity=".8" transform="translate(500 200) scale(0.1 -0.1)"><path d="M0.0 0.0V-30.0H310.0V0.0ZM340.0 0.0V-30.0H679.0V0.0ZM319.0 -315.0V-695.0H348.0V-315.0ZM481.0 56.0V-289.0H510.0V56.0ZM-87.0 114.0V85.0H722.0V114.0ZM-103.0 116.0V-191.0C-103.0 -337.0 -109.0 -538.0 -173.0 -685.0C-166.0 -690.0 -152.0 -699.0 -148.0 -703.0C-83.0 -550.0 -72.0 -340.0 -72.0 -191.0V116.0ZM274.0 193.0C287.0 161.0 303.0 120.0 308.0 93.0L338.0 103.0C330.0 129.0 315.0 169.0 302.0 200.0ZM31.0 -68.0V-117.0C31.0 -167.0 25.0 -227.0 -30.0 -267.0C-24.0 -270.0 -12.0 -280.0 -7.0 -286.0C52.0 -240.0 60.0 -177.0 60.0 -118.0V-68.0ZM379.0 -68.0V-117.0C379.0 -163.0 373.0 -222.0 330.0 -259.0C337.0 -264.0 350.0 -273.0 354.0 -280.0C402.0 -233.0 408.0 -174.0 408.0 -117.0V-68.0ZM232.0 -71.0V-200.0C232.0 -238.0 238.0 -249.0 266.0 -249.0C274.0 -249.0 286.0 -249.0 292.0 -249.0C302.0 -249.0 312.0 -248.0 319.0 -247.0C319.0 -240.0 319.0 -228.0 317.0 -221.0C308.0 -222.0 297.0 -223.0 290.0 -223.0C284.0 -223.0 277.0 -223.0 271.0 -223.0C263.0 -223.0 261.0 -221.0 261.0 -200.0V-71.0ZM572.0 -69.0V-205.0C572.0 -244.0 578.0 -255.0 610.0 -255.0C620.0 -255.0 654.0 -255.0 663.0 -255.0C677.0 -255.0 692.0 -256.0 698.0 -253.0C697.0 -247.0 697.0 -236.0 696.0 -229.0C687.0 -231.0 672.0 -232.0 663.0 -232.0C653.0 -232.0 623.0 -232.0 615.0 -232.0C603.0 -232.0 602.0 -227.0 602.0 -207.0V-69.0Z"/></g>
<g fill="red" transform="translate(600 200) scale(0.1 -0.1)"><path d="M0.0 0.0V-92.0H311.0V0.0ZM334.0 0.0V-92.0H690.0V0.0ZM266.0 -292.0V-715.0H400.0V-292.0ZM450.0 44.0V-276.0H557.0V44.0ZM-88.0 170.0V53.0H709.0V170.0ZM-168.0 170.0V-121.0C-168.0 -270.0 -172.0 -485.0 -237.0 -631.0C-208.0 -645.0 -150.0 -690.0 -127.0 -715.0C-50.0 -552.0 -36.0 -287.0 -36.0 -121.0V170.0ZM188.0 207.0C205.0 171.0 227.0 121.0 236.0 90.0L386.0 138.0C374.0 168.0 352.0 213.0 333.0 247.0ZM12.0 -106.0V-141.0C12.0 -171.0 6.0 -215.0 -27.0 -240.0C-7.0 -251.0 26.0 -277.0 40.0 -294.0C82.0 -253.0 89.0 -194.0 89.0 -145.0V-106.0ZM356.0 -104.0V-140.0C356.0 -170.0 351.0 -215.0 334.0 -242.0C353.0 -253.0 385.0 -277.0 399.0 -294.0C424.0 -251.0 430.0 -191.0 430.0 -143.0V-104.0ZM222.0 -108.0V-190.0C222.0 -239.0 231.0 -265.0 285.0 -265.0C296.0 -265.0 292.0 -265.0 300.0 -265.0C314.0 -265.0 330.0 -264.0 338.0 -261.0C336.0 -242.0 336.0 -224.0 335.0 -207.0C325.0 -210.0 306.0 -211.0 299.0 -211.0C295.0 -211.0 310.0 -211.0 307.0 -211.0C297.0 -211.0 296.0 -205.0 296.0 -191.0V-108.0ZM571.0 -105.0V-197.0C571.0 -250.0 581.0 -277.0 639.0 -277.0C652.0 -277.0 659.0 -277.0 669.0 -277.0C684.0 -277.0 703.0 -276.0 712.0 -272.0C710.0 -253.0 709.0 -233.0 708.0 -215.0C698.0 -219.0 677.0 -220.0 667.0 -220.0C662.0 -220.0 666.0 -220.0 662.0 -220.0C650.0 -220.0 649.0 -213.0 649.0 -198.0V-105.0Z"/></g>
<g fill="black" opacity=".8" transform="translate(600 200) scale(0.1 -0.1)"><path d="M0.0 0.0V-92.0H313.0V0.0ZM336.0 0.0V-92.0H691.0V0.0ZM269.0 -298.0V-707.0H402.0V-298.0ZM452.0 43.0V-276.0H558.0V43.0ZM-90.0 170.0V51.0H708.0V170.0ZM-169.0 170.0V-115.0C-169.0 -265.0 -173.0 -481.0 -237.0 -629.0C-209.0 -643.0 -150.0 -689.0 -126.0 -714.0C-50.0 -549.0 -38.0 -282.0 -38.0 -115.0V170.0ZM188.0 209.0C204.0 174.0 224.0 124.0 233.0 96.0L384.0 140.0C371.0 170.0 350.0 215.0 332.0 248.0ZM12.0 -110.0V-144.0C12.0 -173.0 6.0 -215.0 -27.0 -241.0C-7.0 -252.0 25.0 -278.0 40.0 -295.0C82.0 -256.0 89.0 -195.0 89.0 -148.0V-110.0ZM358.0 -107.0V-143.0C358.0 -172.0 353.0 -217.0 333.0 -243.0C352.0 -255.0 384.0 -278.0 399.0 -294.0C425.0 -252.0 432.0 -193.0 432.0 -145.0V-107.0ZM222.0 -112.0V-191.0C222.0 -241.0 231.0 -266.0 285.0 -266.0C296.0 -266.0 292.0 -266.0 300.0 -266.0C314.0 -266.0 329.0 -266.0 336.0 -262.0C335.0 -244.0 335.0 -225.0 334.0 -208.0C325.0 -211.0 305.0 -212.0 298.0 -212.0C295.0 -212.0 309.0 -212.0 307.0 -212.0C297.0 -212.0 296.0 -207.0 296.0 -193.0V-112.0ZM573.0 -108.0V-198.0C573.0 -252.0 582.0 -278.0 639.0 -278.0C653.0 -278.0 661.0 -278.0 671.0 -278.0C686.0 -278.0 704.0 -278.0 715.0 -273.0C713.0 -254.0 711.0 -235.0 710.0 -217.0C700.0 -220.0 679.0 -221.0 668.0 -221.0C663.0 -221.0 666.0 -221.0 664.0 -221.0C651.0 -221.0 650.0 -215.0 650.0 -200.0V-108.0Z"/></g>
<g fill="red" transform="translate(700 200) scale(0.1 -0.1)"><path d="M0.0 0.0V-29.0H309.0V0.0ZM340.0 0.0V-29.0H680.0V0.0ZM138.0 71.0V-259.0H167.0V71.0ZM481.0 71.0V-236.0H510.0V71.0ZM-74.0 115.0V86.0H725.0V115.0ZM-91.0 115.0V-188.0C-91.0 -334.0 -99.0 -533.0 -180.0 -679.0C-173.0 -683.0 -161.0 -692.0 -156.0 -698.0C-73.0 -547.0 -62.0 -338.0 -62.0 -188.0V115.0ZM273.0 193.0C287.0 161.0 303.0 120.0 309.0 92.0L338.0 102.0C331.0 128.0 315.0 169.0 301.0 201.0ZM31.0 -67.0V-111.0C31.0 -154.0 24.0 -206.0 -31.0 -239.0C-24.0 -243.0 -12.0 -252.0 -7.0 -258.0C52.0 -218.0 60.0 -164.0 60.0 -111.0V-67.0ZM380.0 -67.0V-110.0C380.0 -152.0 373.0 -204.0 330.0 -234.0C337.0 -238.0 350.0 -248.0 354.0 -254.0C402.0 -214.0 409.0 -162.0 409.0 -110.0V-67.0ZM232.0 -69.0V-174.0C232.0 -210.0 238.0 -222.0 266.0 -222.0C274.0 -222.0 286.0 -222.0 292.0 -222.0C302.0 -222.0 313.0 -221.0 320.0 -220.0C320.0 -213.0 319.0 -202.0 318.0 -196.0C309.0 -197.0 298.0 -198.0 291.0 -198.0C285.0 -198.0 276.0 -198.0 271.0 -198.0C262.0 -198.0 261.0 -194.0 261.0 -175.0V-69.0ZM573.0 -66.0V-182.0C573.0 -219.0 579.0 -230.0 611.0 -230.0C620.0 -230.0 655.0 -230.0 664.0 -230.0C678.0 -230.0 693.0 -230.0 699.0 -228.0C698.0 -222.0 697.0 -210.0 697.0 -204.0C688.0 -205.0 672.0 -205.0 663.0 -205.0C654.0 -205.0 623.0 -205.0 615.0 -205.0C603.0 -205.0 602.0 -203.0 602.0 -182.0V-66.0Z"/></g>
<g fill="black" opacity=".8" transform="translate(700 200) scale(0.1 -0.1)"><path d="M0.0 0.0V-30.0H310.0V0.0ZM340.0 0.0V-30.0H679.0V0.0ZM143.0 65.0V-256.0H171.0V65.0ZM480.0 70.0V-240.0H509.0V70.0ZM-73.0 115.0V86.0H716.0V115.0ZM-90.0 118.0V-181.0C-90.0 -332.0 -98.0 -537.0 -180.0 -687.0C-172.0 -692.0 -160.0 -701.0 -155.0 -707.0C-72.0 -550.0 -60.0 -335.0 -60.0 -181.0V118.0ZM269.0 194.0C284.0 163.0 301.0 124.0 306.0 97.0L336.0 107.0C328.0 132.0 312.0 171.0 297.0 202.0ZM31.0 -69.0V-114.0C31.0 -158.0 25.0 -211.0 -30.0 -246.0C-24.0 -250.0 -12.0 -258.0 -7.0 -264.0C52.0 -223.0 61.0 -167.0 61.0 -114.0V-69.0ZM379.0 -69.0V-113.0C379.0 -153.0 373.0 -206.0 330.0 -237.0C337.0 -241.0 350.0 -251.0 354.0 -257.0C402.0 -216.0 409.0 -164.0 409.0 -112.0V-69.0ZM233.0 -72.0V-179.0C233.0 -216.0 238.0 -228.0 266.0 -228.0C274.0 -228.0 286.0 -228.0 292.0 -228.0C302.0 -228.0 311.0 -226.0 319.0 -225.0C319.0 -219.0 318.0 -207.0 317.0 -201.0C308.0 -201.0 297.0 -203.0 290.0 -203.0C285.0 -203.0 277.0 -203.0 272.0 -203.0C262.0 -203.0 260.0 -199.0 260.0 -179.0V-72.0ZM572.0 -69.0V-185.0C572.0 -222.0 578.0 -234.0 610.0 -234.0C621.0 -234.0 655.0 -234.0 663.0 -234.0C677.0 -234.0 692.0 -234.0 698.0 -232.0C697.0 -225.0 697.0 -213.0 696.0 -207.0C687.0 -209.0 672.0 -210.0 663.0 -210.0C654.0 -210.0 623.0 -210.0 615.0 -210.0C602.0 -210.0 602.0 -206.0 602.0 -186.0V-69.0Z"/></g>
<g fill="red" transform="translate(800 200) scale(0.1 -0.1)"><path d="M0.0 0.0V-100.0H311.0V0.0ZM334.0 0.0V-100.0H690.0V0.0ZM101.0 40.0V-279.0H208.0V40.0ZM449.0 40.0V-284.0H556.0V40.0ZM-70.0 157.0V52.0H718.0V157.0ZM-154.0 157.0V-168.0C-154.0 -311.0 -159.0 -508.0 -233.0 -640.0C-203.0 -655.0 -144.0 -703.0 -122.0 -729.0C-33.0 -580.0 -18.0 -330.0 -18.0 -168.0V157.0ZM195.0 194.0C206.0 159.0 219.0 111.0 223.0 81.0L386.0 118.0C379.0 147.0 365.0 192.0 352.0 225.0ZM12.0 -118.0V-152.0C12.0 -179.0 6.0 -219.0 -27.0 -240.0C-7.0 -251.0 26.0 -277.0 40.0 -295.0C82.0 -257.0 89.0 -202.0 89.0 -156.0V-118.0ZM356.0 -116.0V-149.0C356.0 -173.0 351.0 -210.0 334.0 -230.0C353.0 -241.0 385.0 -265.0 399.0 -282.0C424.0 -246.0 430.0 -195.0 430.0 -153.0V-116.0ZM222.0 -120.0V-176.0C222.0 -223.0 231.0 -249.0 283.0 -249.0C295.0 -249.0 289.0 -249.0 297.0 -249.0C310.0 -249.0 326.0 -248.0 335.0 -245.0C332.0 -226.0 332.0 -208.0 331.0 -191.0C322.0 -194.0 303.0 -195.0 295.0 -195.0C292.0 -195.0 309.0 -195.0 307.0 -195.0C297.0 -195.0 296.0 -189.0 296.0 -176.0V-120.0ZM571.0 -117.0V-190.0C571.0 -242.0 581.0 -269.0 638.0 -269.0C652.0 -269.0 659.0 -269.0 669.0 -269.0C684.0 -269.0 703.0 -268.0 712.0 -265.0C710.0 -245.0 709.0 -225.0 708.0 -207.0C698.0 -211.0 676.0 -212.0 667.0 -212.0C662.0 -212.0 666.0 -212.0 662.0 -212.0C650.0 -212.0 649.0 -206.0 649.0 -191.0V-117.0Z"/></g>
<g fill="black" opacity=".8" transform="translate(800 200) scale(0.1 -0.1)"><path d="M0.0 0.0V-100.0H314.0V0.0ZM336.0 0.0V-100.0H691.0V0.0ZM104.0 29.0V-259.0H209.0V29.0ZM451.0 33.0V-259.0H557.0V33.0ZM-73.0 157.0V43.0H711.0V157.0ZM-156.0 159.0V-148.0C-156.0 -297.0 -160.0 -504.0 -233.0 -645.0C-203.0 -658.0 -142.0 -703.0 -118.0 -727.0C-33.0 -571.0 -20.0 -314.0 -20.0 -148.0V159.0ZM200.0 206.0C211.0 171.0 223.0 122.0 227.0 93.0L385.0 126.0C377.0 157.0 363.0 202.0 351.0 235.0ZM12.0 -119.0V-152.0C12.0 -177.0 7.0 -213.0 -27.0 -233.0C-7.0 -245.0 25.0 -271.0 40.0 -288.0C83.0 -253.0 89.0 -199.0 89.0 -155.0V-119.0ZM358.0 -116.0V-148.0C358.0 -170.0 353.0 -205.0 326.0 -222.0C347.0 -233.0 378.0 -258.0 392.0 -273.0C425.0 -241.0 433.0 -192.0 433.0 -152.0V-116.0ZM222.0 -121.0V-179.0C222.0 -227.0 231.0 -253.0 283.0 -253.0C295.0 -253.0 287.0 -253.0 296.0 -253.0C308.0 -253.0 324.0 -252.0 331.0 -248.0C329.0 -231.0 329.0 -211.0 328.0 -194.0C320.0 -197.0 300.0 -199.0 293.0 -199.0C290.0 -199.0 309.0 -199.0 306.0 -199.0C297.0 -199.0 296.0 -193.0 296.0 -180.0V-121.0ZM573.0 -118.0V-184.0C573.0 -237.0 582.0 -263.0 639.0 -263.0C653.0 -263.0 661.0 -263.0 671.0 -263.0C686.0 -263.0 705.0 -262.0 715.0 -259.0C713.0 -238.0 712.0 -219.0 711.0 -201.0C701.0 -205.0 679.0 -206.0 668.0 -206.0C664.0 -206.0 666.0 -206.0 664.0 -206.0C652.0 -206.0 650.0 -199.0 650.0 -185.0V-118.0Z"/></g>
<g fill="red" transform="translate(900 200) scale(0.1 -0.1)"><path d="M0.0 0.0V-29.0H261.0V0.0ZM429.0 0.0V-29.0H712.0V0.0ZM145.0 393.0V58.0H174.0V393.0ZM415.0 64.0V-364.0H444.0V64.0ZM-73.0 449.0V420.0H739.0V449.0ZM-89.0 449.0V141.0C-89.0 -3.0 -95.0 -202.0 -159.0 -349.0C-152.0 -352.0 -139.0 -361.0 -134.0 -366.0C-69.0 -215.0 -60.0 -6.0 -60.0 141.0V449.0ZM287.0 527.0C301.0 495.0 317.0 454.0 323.0 426.0L352.0 436.0C345.0 462.0 329.0 503.0 315.0 535.0ZM44.0 268.0V219.0C44.0 170.0 37.0 108.0 -18.0 69.0C-11.0 65.0 1.0 55.0 6.0 49.0C65.0 96.0 74.0 159.0 74.0 218.0V268.0ZM394.0 268.0V220.0C394.0 172.0 386.0 111.0 329.0 73.0C337.0 69.0 349.0 60.0 354.0 53.0C415.0 99.0 423.0 161.0 423.0 219.0V268.0ZM246.0 266.0V161.0C246.0 125.0 252.0 113.0 280.0 113.0C288.0 113.0 300.0 113.0 306.0 113.0C316.0 113.0 327.0 114.0 334.0 115.0C334.0 122.0 333.0 133.0 332.0 139.0C323.0 138.0 312.0 137.0 305.0 137.0C299.0 137.0 290.0 137.0 285.0 137.0C276.0 137.0 275.0 141.0 275.0 160.0V266.0ZM587.0 269.0V127.0C587.0 89.0 593.0 78.0 625.0 78.0C634.0 78.0 669.0 78.0 678.0 78.0C692.0 78.0 707.0 78.0 713.0 80.0C712.0 86.0 711.0 97.0 711.0 104.0C702.0 102.0 686.0 102.0 677.0 102.0C668.0 102.0 637.0 102.0 629.0 102.0C617.0 102.0 616.0 106.0 616.0 127.0V269.0Z"/></g>
<g fill="black" opacity=".8" transform="translate(900 200) scale(0.1 -0.1)"><path d="M0.0 0.0V-29.0H262.0V0.0ZM429.0 0.0V-29.0H712.0V0.0ZM146.0 392.0V59.0H175.0V392.0ZM415.0 64.0V-364.0H444.0V64.0ZM-73.0 449.0V419.0H739.0V449.0ZM-89.0 449.0V142.0C-89.0 -3.0 -95.0 -202.0 -160.0 -349.0C-151.0 -352.0 -139.0 -362.0 -134.0 -366.0C-68.0 -214.0 -59.0 -6.0 -59.0 142.0V449.0ZM287.0 527.0C301.0 494.0 318.0 454.0 322.0 426.0L353.0 436.0C345.0 463.0 329.0 503.0 315.0 535.0ZM44.0 269.0V219.0C44.0 169.0 38.0 109.0 -17.0 68.0C-11.0 65.0 1.0 55.0 6.0 50.0C65.0 95.0 74.0 159.0 74.0 218.0V269.0ZM394.0 269.0V219.0C394.0 171.0 386.0 111.0 329.0 73.0C337.0 69.0 350.0 60.0 355.0 53.0C415.0 99.0 423.0 161.0 423.0 219.0V269.0ZM247.0 265.0V162.0C247.0 125.0 252.0 113.0 280.0 113.0C288.0 113.0 301.0 113.0 306.0 113.0C317.0 113.0 326.0 114.0 334.0 115.0C334.0 122.0 334.0 133.0 331.0 140.0C323.0 139.0 311.0 137.0 305.0 137.0C299.0 137.0 291.0 137.0 285.0 137.0C276.0 137.0 274.0 141.0 274.0 161.0V265.0ZM586.0 268.0V127.0C586.0 89.0 593.0 78.0 624.0 78.0C635.0 78.0 669.0 78.0 678.0 78.0C692.0 78.0 706.0 78.0 712.0 80.0C711.0 86.0 711.0 98.0 711.0 104.0C702.0 103.0 686.0 102.0 677.0 102.0C667.0 102.0 637.0 102.0 629.0 102.0C617.0 102.0 616.0 107.0 616.0 127.0V268.0Z"/></g>
<g fill="red" transform="translate(1000 200) scale(0.1 -0.1)"><path d="M0.0 0.0V-84.0H239.0V0.0ZM444.0 0.0V-87.0H701.0V0.0ZM115.0 363.0V48.0H222.0V363.0ZM368.0 43.0V-389.0H501.0V43.0ZM-69.0 495.0V378.0H728.0V495.0ZM-149.0 495.0V204.0C-149.0 55.0 -153.0 -160.0 -218.0 -306.0C-189.0 -320.0 -131.0 -365.0 -108.0 -390.0C-31.0 -227.0 -17.0 38.0 -17.0 204.0V495.0ZM207.0 532.0C224.0 496.0 246.0 446.0 255.0 415.0L405.0 463.0C393.0 493.0 371.0 538.0 352.0 572.0ZM21.0 219.0V184.0C21.0 154.0 15.0 110.0 -18.0 85.0C2.0 74.0 35.0 48.0 49.0 31.0C91.0 72.0 98.0 131.0 98.0 180.0V219.0ZM375.0 221.0V187.0C375.0 157.0 368.0 114.0 328.0 91.0C348.0 80.0 379.0 56.0 393.0 39.0C441.0 78.0 449.0 135.0 449.0 183.0V221.0ZM241.0 217.0V135.0C241.0 86.0 250.0 60.0 302.0 60.0C314.0 60.0 303.0 60.0 310.0 60.0C323.0 60.0 338.0 61.0 346.0 64.0C344.0 83.0 344.0 101.0 343.0 118.0C334.0 115.0 316.0 114.0 309.0 114.0C307.0 114.0 327.0 114.0 325.0 114.0C316.0 114.0 315.0 120.0 315.0 134.0V217.0ZM590.0 220.0V128.0C590.0 75.0 600.0 48.0 658.0 48.0C671.0 48.0 678.0 48.0 688.0 48.0C703.0 48.0 722.0 49.0 731.0 53.0C729.0 72.0 728.0 92.0 727.0 110.0C717.0 106.0 696.0 105.0 686.0 105.0C681.0 105.0 685.0 105.0 681.0 105.0C669.0 105.0 668.0 112.0 668.0 127.0V220.0Z"/></g>
<g fill="black" opacity=".8" transform="translate(1000 200) scale(0.1 -0.1)"><path d="M0.0 0.0V-84.0H239.0V0.0ZM444.0 0.0V-87.0H701.0V0.0ZM116.0 362.0V49.0H222.0V362.0ZM369.0 43.0V-389.0H501.0V43.0ZM-69.0 495.0V378.0H729.0V495.0ZM-150.0 494.0V205.0C-150.0 55.0 -153.0 -159.0 -218.0 -305.0C-189.0 -320.0 -131.0 -365.0 -108.0 -390.0C-30.0 -227.0 -18.0 38.0 -18.0 205.0V494.0ZM207.0 532.0C224.0 497.0 246.0 445.0 255.0 416.0L406.0 462.0C393.0 494.0 370.0 539.0 352.0 573.0ZM20.0 218.0V183.0C20.0 153.0 15.0 111.0 -18.0 86.0C3.0 73.0 35.0 48.0 49.0 31.0C92.0 71.0 98.0 131.0 98.0 180.0V218.0ZM376.0 221.0V186.0C376.0 156.0 369.0 113.0 328.0 90.0C349.0 79.0 379.0 56.0 393.0 40.0C441.0 79.0 449.0 134.0 449.0 183.0V221.0ZM241.0 217.0V135.0C241.0 86.0 250.0 60.0 301.0 60.0C314.0 60.0 304.0 60.0 311.0 60.0C323.0 60.0 338.0 60.0 345.0 64.0C344.0 82.0 344.0 102.0 343.0 118.0C335.0 115.0 316.0 114.0 308.0 114.0C307.0 114.0 327.0 114.0 325.0 114.0C316.0 114.0 315.0 119.0 315.0 134.0V217.0ZM590.0 219.0V128.0C590.0 74.0 600.0 48.0 657.0 48.0C671.0 48.0 678.0 48.0 688.0 48.0C704.0 48.0 722.0 48.0 732.0 53.0C729.0 73.0 729.0 92.0 727.0 110.0C718.0 106.0 696.0 105.0 686.0 105.0C681.0 105.0 684.0 105.0 682.0 105.0C670.0 105.0 668.0 112.0 668.0 127.0V219.0Z"/></g>
<g fill="red" transform="translate(1100 200) scale(0.1 -0.1)"><path d="M0.0 0.0V-29.0H313.0V0.0ZM347.0 0.0V-29.0H683.0V0.0ZM332.0 -275.0V-487.0H362.0V-275.0ZM487.0 63.0V-215.0H516.0V63.0ZM-66.0 107.0V78.0H733.0V107.0ZM-83.0 107.0V-198.0C-83.0 -344.0 -91.0 -544.0 -167.0 -691.0C-159.0 -695.0 -147.0 -703.0 -142.0 -710.0C-64.0 -557.0 -54.0 -348.0 -54.0 -198.0V107.0ZM281.0 185.0C295.0 153.0 311.0 112.0 317.0 84.0L346.0 94.0C339.0 120.0 323.0 161.0 309.0 193.0ZM44.0 -68.0V-103.0C44.0 -124.0 38.0 -174.0 -26.0 -204.0C-18.0 -210.0 -8.0 -217.0 -3.0 -223.0C66.0 -187.0 73.0 -134.0 73.0 -104.0V-68.0ZM387.0 -68.0V-103.0C387.0 -122.0 382.0 -170.0 329.0 -200.0C338.0 -206.0 348.0 -213.0 352.0 -219.0C410.0 -184.0 416.0 -132.0 416.0 -104.0V-68.0ZM248.0 -68.0V-155.0C248.0 -190.0 254.0 -202.0 281.0 -202.0C288.0 -202.0 287.0 -202.0 291.0 -202.0C300.0 -202.0 311.0 -202.0 317.0 -200.0C316.0 -193.0 315.0 -181.0 315.0 -175.0C307.0 -177.0 297.0 -177.0 291.0 -177.0C286.0 -177.0 289.0 -177.0 285.0 -177.0C278.0 -177.0 277.0 -174.0 277.0 -156.0V-68.0ZM589.0 -66.0V-152.0C589.0 -188.0 595.0 -200.0 626.0 -200.0C635.0 -200.0 665.0 -200.0 674.0 -200.0C687.0 -200.0 701.0 -200.0 707.0 -198.0C707.0 -191.0 706.0 -179.0 705.0 -172.0C696.0 -175.0 681.0 -175.0 673.0 -175.0C664.0 -175.0 638.0 -175.0 630.0 -175.0C619.0 -175.0 618.0 -171.0 618.0 -152.0V-66.0Z"/></g>
<g fill="black" opacity=".8" transform="translate(1100 200) scale(0.1 -0.1)"><path d="M0.0 0.0V-30.0H314.0V0.0ZM348.0 0.0V-30.0H685.0V0.0ZM329.0 -269.0V-494.0H358.0V-269.0ZM488.0 65.0V-219.0H516.0V65.0ZM-66.0 105.0V76.0H737.0V105.0ZM-84.0 106.0V-201.0C-84.0 -347.0 -91.0 -543.0 -168.0 -688.0C-159.0 -693.0 -148.0 -701.0 -143.0 -708.0C-65.0 -556.0 -53.0 -351.0 -53.0 -201.0V106.0ZM279.0 185.0C294.0 151.0 311.0 110.0 317.0 82.0L348.0 92.0C339.0 118.0 322.0 160.0 308.0 192.0ZM43.0 -64.0V-100.0C43.0 -124.0 38.0 -173.0 -25.0 -205.0C-19.0 -210.0 -8.0 -216.0 -3.0 -222.0C65.0 -187.0 73.0 -133.0 73.0 -100.0V-64.0ZM387.0 -64.0V-102.0C387.0 -124.0 383.0 -172.0 330.0 -202.0C338.0 -209.0 348.0 -216.0 353.0 -223.0C411.0 -186.0 416.0 -133.0 416.0 -102.0V-64.0ZM248.0 -65.0V-155.0C248.0 -192.0 254.0 -204.0 281.0 -204.0C288.0 -204.0 289.0 -204.0 293.0 -204.0C302.0 -204.0 312.0 -203.0 319.0 -202.0C318.0 -195.0 317.0 -182.0 316.0 -176.0C308.0 -176.0 298.0 -178.0 292.0 -178.0C287.0 -178.0 290.0 -178.0 285.0 -178.0C278.0 -178.0 276.0 -175.0 276.0 -156.0V-65.0ZM588.0 -65.0V-154.0C588.0 -192.0 595.0 -202.0 625.0 -202.0C636.0 -202.0 666.0 -202.0 675.0 -202.0C688.0 -202.0 702.0 -203.0 708.0 -200.0C707.0 -194.0 707.0 -181.0 705.0 -174.0C696.0 -178.0 682.0 -179.0 674.0 -179.0C665.0 -179.0 639.0 -179.0 630.0 -179.0C619.0 -179.0 619.0 -173.0 619.0 -155.0V-65.0Z"/></g>
<g fill="red" transform="translate(1200 200) scale(0.1 -0.1)"><path d="M0.0 0.0V-79.0H316.0V0.0ZM332.0 0.0V-79.0H666.0V0.0ZM269.0 -295.0V-448.0H391.0V-295.0ZM430.0 26.0V-226.0H532.0V26.0ZM-85.0 155.0V37.0H703.0V155.0ZM-169.0 155.0V-170.0C-169.0 -313.0 -174.0 -510.0 -248.0 -642.0C-219.0 -657.0 -161.0 -704.0 -138.0 -730.0C-50.0 -580.0 -35.0 -332.0 -35.0 -170.0V155.0ZM180.0 196.0C193.0 160.0 210.0 111.0 215.0 80.0L373.0 120.0C364.0 150.0 348.0 196.0 332.0 230.0ZM15.0 -95.0V-128.0C15.0 -139.0 10.0 -170.0 -34.0 -184.0C-15.0 -198.0 12.0 -222.0 25.0 -238.0C85.0 -213.0 94.0 -160.0 94.0 -132.0V-95.0ZM335.0 -95.0V-127.0C335.0 -135.0 333.0 -163.0 315.0 -176.0C334.0 -190.0 363.0 -213.0 377.0 -230.0C409.0 -205.0 414.0 -156.0 414.0 -132.0V-95.0ZM225.0 -96.0V-125.0C225.0 -172.0 234.0 -199.0 286.0 -199.0C297.0 -199.0 283.0 -199.0 290.0 -199.0C302.0 -199.0 318.0 -198.0 326.0 -195.0C323.0 -175.0 323.0 -156.0 322.0 -139.0C313.0 -142.0 295.0 -143.0 289.0 -143.0C287.0 -143.0 312.0 -143.0 311.0 -143.0C302.0 -143.0 301.0 -137.0 301.0 -126.0V-96.0ZM551.0 -93.0V-140.0C551.0 -190.0 561.0 -215.0 618.0 -215.0C632.0 -215.0 647.0 -215.0 658.0 -215.0C675.0 -215.0 695.0 -215.0 704.0 -211.0C702.0 -192.0 702.0 -173.0 701.0 -155.0C690.0 -159.0 666.0 -160.0 656.0 -160.0C650.0 -160.0 646.0 -160.0 641.0 -160.0C629.0 -160.0 627.0 -154.0 627.0 -140.0V-93.0Z"/></g>
<g fill="black" opacity=".8" transform="translate(1200 200) scale(0.1 -0.1)"><path d="M0.0 0.0V-79.0H312.0V0.0ZM329.0 0.0V-79.0H665.0V0.0ZM267.0 -288.0V-457.0H389.0V-288.0ZM428.0 27.0V-225.0H531.0V27.0ZM-82.0 155.0V39.0H706.0V155.0ZM-168.0 154.0V-178.0C-168.0 -321.0 -173.0 -514.0 -248.0 -645.0C-220.0 -660.0 -162.0 -708.0 -139.0 -733.0C-49.0 -585.0 -34.0 -339.0 -34.0 -178.0V154.0ZM181.0 194.0C196.0 157.0 213.0 105.0 219.0 75.0L379.0 114.0C367.0 147.0 349.0 195.0 333.0 230.0ZM14.0 -92.0V-126.0C14.0 -137.0 10.0 -166.0 -33.0 -181.0C-14.0 -196.0 12.0 -221.0 26.0 -236.0C85.0 -211.0 93.0 -158.0 93.0 -129.0V-92.0ZM334.0 -90.0V-124.0C334.0 -134.0 332.0 -162.0 316.0 -175.0C336.0 -189.0 365.0 -212.0 379.0 -228.0C406.0 -202.0 412.0 -154.0 412.0 -129.0V-90.0ZM225.0 -91.0V-123.0C225.0 -171.0 234.0 -197.0 286.0 -197.0C298.0 -197.0 284.0 -197.0 292.0 -197.0C302.0 -197.0 319.0 -197.0 326.0 -193.0C324.0 -175.0 324.0 -155.0 323.0 -138.0C314.0 -141.0 296.0 -142.0 289.0 -142.0C288.0 -142.0 312.0 -142.0 311.0 -142.0C302.0 -142.0 302.0 -136.0 302.0 -124.0V-91.0ZM550.0 -89.0V-137.0C550.0 -189.0 560.0 -213.0 616.0 -213.0C631.0 -213.0 645.0 -213.0 656.0 -213.0C673.0 -213.0 693.0 -213.0 703.0 -209.0C700.0 -189.0 701.0 -171.0 699.0 -152.0C689.0 -156.0 664.0 -157.0 654.0 -157.0C649.0 -157.0 644.0 -157.0 640.0 -157.0C628.0 -157.0 626.0 -151.0 626.0 -137.0V-89.0Z"/></g>
<g fill="red" transform="translate(1300 200) scale(0.1 -0.1)"><path d="M0.0 0.0V-30.0H340.0V0.0ZM376.0 0.0V-30.0H760.0V0.0ZM167.0 173.0V-541.0H197.0V173.0ZM547.0 173.0V-541.0H577.0V173.0ZM-48.0 230.0V200.0H759.0V230.0ZM-64.0 230.0V-36.0C-64.0 -177.0 -72.0 -371.0 -148.0 -514.0C-142.0 -518.0 -130.0 -527.0 -125.0 -534.0C-46.0 -385.0 -35.0 -180.0 -35.0 -36.0V230.0ZM302.0 350.0C325.0 306.0 350.0 248.0 363.0 211.0L391.0 222.0C379.0 258.0 352.0 315.0 329.0 359.0ZM57.0 -102.0V-172.0C57.0 -264.0 51.0 -384.0 -21.0 -480.0C-13.0 -485.0 -2.0 -492.0 3.0 -499.0C77.0 -397.0 87.0 -274.0 87.0 -172.0V-102.0ZM436.0 -102.0V-195.0C436.0 -287.0 427.0 -399.0 343.0 -488.0C350.0 -492.0 361.0 -501.0 366.0 -508.0C454.0 -413.0 465.0 -296.0 465.0 -195.0V-102.0ZM276.0 -102.0V-368.0C276.0 -407.0 281.0 -418.0 311.0 -418.0C319.0 -418.0 330.0 -418.0 336.0 -418.0C346.0 -418.0 357.0 -418.0 364.0 -417.0C364.0 -410.0 363.0 -398.0 362.0 -391.0C354.0 -393.0 343.0 -393.0 336.0 -393.0C330.0 -393.0 320.0 -393.0 314.0 -393.0C306.0 -393.0 305.0 -391.0 305.0 -369.0V-102.0ZM648.0 -98.0V-416.0C648.0 -457.0 654.0 -469.0 688.0 -469.0C696.0 -469.0 729.0 -469.0 738.0 -469.0C750.0 -469.0 764.0 -469.0 771.0 -467.0C771.0 -460.0 769.0 -449.0 769.0 -442.0C760.0 -444.0 745.0 -444.0 737.0 -444.0C728.0 -444.0 698.0 -444.0 690.0 -444.0C680.0 -444.0 678.0 -440.0 678.0 -416.0V-98.0Z"/></g>
<g fill="black" opacity=".8" transform="translate(1300 200) scale(0.1 -0.1)"><path d="M0.0 0.0V-31.0H341.0V0.0ZM376.0 0.0V-31.0H760.0V0.0ZM168.0 171.0V-538.0H198.0V171.0ZM546.0 173.0V-540.0H577.0V173.0ZM-47.0 230.0V200.0H758.0V230.0ZM-64.0 231.0V-35.0C-64.0 -177.0 -72.0 -371.0 -148.0 -515.0C-142.0 -519.0 -130.0 -528.0 -125.0 -535.0C-46.0 -384.0 -34.0 -180.0 -34.0 -35.0V231.0ZM302.0 351.0C325.0 306.0 351.0 249.0 362.0 211.0L392.0 223.0C379.0 259.0 352.0 315.0 329.0 359.0ZM57.0 -102.0V-172.0C57.0 -265.0 52.0 -384.0 -21.0 -481.0C-14.0 -486.0 -2.0 -492.0 3.0 -499.0C77.0 -397.0 87.0 -274.0 87.0 -172.0V-102.0ZM435.0 -102.0V-196.0C435.0 -287.0 427.0 -398.0 343.0 -487.0C350.0 -491.0 361.0 -500.0 366.0 -508.0C454.0 -412.0 465.0 -296.0 465.0 -195.0V-102.0ZM277.0 -103.0V-368.0C277.0 -407.0 281.0 -418.0 310.0 -418.0C319.0 -418.0 331.0 -418.0 336.0 -418.0C347.0 -418.0 356.0 -418.0 364.0 -417.0C363.0 -410.0 363.0 -398.0 362.0 -391.0C354.0 -392.0 342.0 -393.0 336.0 -393.0C330.0 -393.0 321.0 -393.0 314.0 -393.0C306.0 -393.0 304.0 -391.0 304.0 -368.0V-103.0ZM647.0 -100.0V-415.0C647.0 -457.0 653.0 -468.0 686.0 -468.0C697.0 -468.0 729.0 -468.0 737.0 -468.0C749.0 -468.0 764.0 -469.0 771.0 -466.0C770.0 -460.0 769.0 -448.0 769.0 -441.0C760.0 -443.0 745.0 -444.0 737.0 -444.0C728.0 -444.0 698.0 -444.0 690.0 -444.0C680.0 -444.0 679.0 -439.0 679.0 -416.0V-100.0Z"/></g>
<g fill="red" transform="translate(1400 200) scale(0.1 -0.1)"><path d="M0.0 0.0V-122.0H320.0V0.0ZM339.0 0.0V-121.0H709.0V0.0ZM103.0 105.0V-593.0H226.0V105.0ZM447.0 105.0V-593.0H571.0V105.0ZM-71.0 261.0V123.0H717.0V261.0ZM-159.0 261.0V-19.0C-159.0 -163.0 -164.0 -369.0 -234.0 -507.0C-201.0 -522.0 -136.0 -568.0 -110.0 -594.0C-28.0 -439.0 -13.0 -183.0 -13.0 -19.0V261.0ZM205.0 337.0C225.0 285.0 248.0 214.0 257.0 169.0L414.0 210.0C402.0 254.0 378.0 320.0 356.0 371.0ZM6.0 -148.0V-232.0C6.0 -303.0 0.0 -393.0 -50.0 -464.0C-30.0 -478.0 1.0 -508.0 15.0 -528.0C81.0 -440.0 91.0 -325.0 91.0 -234.0V-148.0ZM346.0 -148.0V-247.0C346.0 -318.0 340.0 -405.0 290.0 -472.0C311.0 -487.0 343.0 -519.0 357.0 -540.0C425.0 -455.0 435.0 -343.0 435.0 -250.0V-148.0ZM238.0 -146.0V-347.0C238.0 -406.0 249.0 -435.0 309.0 -435.0C321.0 -435.0 318.0 -435.0 326.0 -435.0C339.0 -435.0 356.0 -434.0 365.0 -431.0C362.0 -412.0 362.0 -390.0 361.0 -372.0C351.0 -375.0 333.0 -376.0 325.0 -376.0C321.0 -376.0 332.0 -376.0 329.0 -376.0C320.0 -376.0 319.0 -369.0 319.0 -348.0V-146.0ZM583.0 -153.0V-398.0C583.0 -486.0 598.0 -518.0 678.0 -518.0C688.0 -518.0 687.0 -518.0 694.0 -518.0C708.0 -518.0 724.0 -517.0 736.0 -512.0C733.0 -491.0 730.0 -453.0 728.0 -429.0C718.0 -433.0 704.0 -435.0 694.0 -435.0C688.0 -435.0 688.0 -435.0 683.0 -435.0C676.0 -435.0 675.0 -427.0 675.0 -400.0V-153.0Z"/></g>
<g fill="black" opacity=".8" transform="translate(1400 200) scale(0.1 -0.1)"><path d="M0.0 0.0V-121.0H321.0V0.0ZM340.0 0.0V-121.0H709.0V0.0ZM105.0 104.0V-591.0H227.0V104.0ZM448.0 105.0V-594.0H572.0V105.0ZM-71.0 261.0V122.0H717.0V261.0ZM-160.0 261.0V-17.0C-160.0 -161.0 -164.0 -368.0 -234.0 -506.0C-202.0 -522.0 -136.0 -568.0 -110.0 -594.0C-28.0 -438.0 -14.0 -181.0 -14.0 -17.0V261.0ZM205.0 338.0C224.0 286.0 247.0 215.0 256.0 171.0L414.0 210.0C401.0 255.0 377.0 322.0 357.0 372.0ZM6.0 -149.0V-233.0C6.0 -305.0 0.0 -392.0 -50.0 -464.0C-29.0 -479.0 1.0 -509.0 15.0 -528.0C81.0 -442.0 91.0 -325.0 91.0 -235.0V-149.0ZM347.0 -148.0V-248.0C347.0 -319.0 341.0 -406.0 289.0 -473.0C311.0 -487.0 343.0 -519.0 357.0 -540.0C425.0 -455.0 436.0 -344.0 436.0 -251.0V-148.0ZM238.0 -147.0V-348.0C238.0 -407.0 249.0 -435.0 308.0 -435.0C321.0 -435.0 317.0 -435.0 327.0 -435.0C339.0 -435.0 356.0 -434.0 364.0 -430.0C361.0 -413.0 361.0 -390.0 360.0 -372.0C351.0 -375.0 332.0 -377.0 324.0 -377.0C321.0 -377.0 332.0 -377.0 329.0 -377.0C320.0 -377.0 319.0 -370.0 319.0 -349.0V-147.0ZM584.0 -154.0V-398.0C584.0 -487.0 599.0 -518.0 678.0 -518.0C689.0 -518.0 687.0 -518.0 695.0 -518.0C708.0 -518.0 724.0 -517.0 738.0 -512.0C734.0 -491.0 731.0 -454.0 729.0 -429.0C719.0 -433.0 705.0 -436.0 694.0 -436.0C688.0 -436.0 687.0 -436.0 683.0 -436.0C676.0 -436.0 675.0 -427.0 675.0 -400.0V-154.0Z"/></g>
<g fill="red" transform="translate(1500 200) scale(0.1 -0.1)"><path d="M0.0 0.0V-30.0H309.0V0.0ZM340.0 0.0V-30.0H680.0V0.0ZM143.0 70.0V-284.0H172.0V70.0ZM481.0 70.0V-273.0H510.0V70.0ZM-76.0 144.0V115.0H705.0V144.0ZM-91.0 144.0V-147.0C-91.0 -301.0 -99.0 -514.0 -178.0 -670.0C-171.0 -673.0 -158.0 -682.0 -153.0 -688.0C-73.0 -527.0 -62.0 -304.0 -62.0 -147.0V144.0ZM273.0 220.0C286.0 190.0 301.0 152.0 307.0 126.0L336.0 136.0C329.0 160.0 314.0 198.0 301.0 228.0ZM31.0 -75.0V-125.0C31.0 -175.0 24.0 -237.0 -31.0 -277.0C-24.0 -281.0 -12.0 -291.0 -7.0 -297.0C52.0 -249.0 60.0 -185.0 60.0 -126.0V-75.0ZM380.0 -75.0V-121.0C380.0 -166.0 373.0 -223.0 330.0 -258.0C337.0 -261.0 350.0 -271.0 354.0 -276.0C402.0 -233.0 409.0 -176.0 409.0 -121.0V-75.0ZM232.0 -77.0V-197.0C232.0 -233.0 238.0 -244.0 266.0 -244.0C274.0 -244.0 286.0 -244.0 292.0 -244.0C302.0 -244.0 313.0 -244.0 320.0 -242.0C320.0 -236.0 319.0 -225.0 318.0 -218.0C309.0 -220.0 298.0 -220.0 291.0 -220.0C285.0 -220.0 276.0 -220.0 271.0 -220.0C262.0 -220.0 261.0 -217.0 261.0 -197.0V-77.0ZM573.0 -74.0V-204.0C573.0 -241.0 579.0 -253.0 611.0 -253.0C620.0 -253.0 655.0 -253.0 664.0 -253.0C678.0 -253.0 693.0 -253.0 699.0 -251.0C698.0 -244.0 697.0 -233.0 697.0 -227.0C688.0 -228.0 672.0 -228.0 663.0 -228.0C654.0 -228.0 623.0 -228.0 615.0 -228.0C603.0 -228.0 602.0 -226.0 602.0 -205.0V-74.0Z"/></g>
<g fill="black" opacity=".8" transform="translate(1500 200) scale(0.1 -0.1)"><path d="M0.0 0.0V-30.0H310.0V0.0ZM343.0 0.0V-30.0H685.0V0.0ZM130.0 92.0V-309.0H158.0V92.0ZM482.0 76.0V-288.0H511.0V76.0ZM-77.0 137.0V107.0H715.0V137.0ZM-93.0 138.0V-157.0C-93.0 -307.0 -101.0 -514.0 -179.0 -664.0C-171.0 -669.0 -159.0 -678.0 -154.0 -683.0C-75.0 -527.0 -63.0 -311.0 -63.0 -157.0V138.0ZM270.0 218.0C285.0 185.0 303.0 146.0 308.0 118.0L338.0 129.0C330.0 154.0 313.0 194.0 298.0 226.0ZM29.0 -65.0V-117.0C29.0 -173.0 24.0 -235.0 -31.0 -278.0C-25.0 -281.0 -12.0 -290.0 -7.0 -297.0C50.0 -247.0 59.0 -183.0 59.0 -117.0V-65.0ZM382.0 -65.0V-117.0C382.0 -170.0 375.0 -230.0 331.0 -268.0C338.0 -272.0 351.0 -282.0 356.0 -289.0C404.0 -240.0 411.0 -180.0 411.0 -116.0V-65.0ZM232.0 -69.0V-201.0C232.0 -238.0 237.0 -249.0 265.0 -249.0C274.0 -249.0 290.0 -249.0 296.0 -249.0C306.0 -249.0 316.0 -248.0 324.0 -248.0C323.0 -241.0 323.0 -230.0 321.0 -223.0C312.0 -223.0 301.0 -225.0 294.0 -225.0C288.0 -225.0 277.0 -225.0 271.0 -225.0C261.0 -225.0 259.0 -221.0 259.0 -201.0V-69.0ZM573.0 -66.0V-213.0C573.0 -251.0 579.0 -263.0 612.0 -263.0C623.0 -263.0 658.0 -263.0 666.0 -263.0C680.0 -263.0 696.0 -263.0 702.0 -261.0C700.0 -254.0 700.0 -242.0 700.0 -236.0C691.0 -238.0 675.0 -239.0 666.0 -239.0C657.0 -239.0 625.0 -239.0 616.0 -239.0C604.0 -239.0 604.0 -235.0 604.0 -214.0V-66.0Z"/></g>
<g fill="red" transform="translate(1600 200) scale(0.1 -0.1)"><path d="M0.0 0.0V-107.0H325.0V0.0ZM349.0 0.0V-107.0H705.0V0.0ZM101.0 38.0V-305.0H208.0V38.0ZM464.0 38.0V-310.0H571.0V38.0ZM-82.0 179.0V54.0H706.0V179.0ZM-160.0 179.0V-94.0C-160.0 -242.0 -164.0 -459.0 -226.0 -606.0C-196.0 -620.0 -135.0 -667.0 -111.0 -692.0C-37.0 -528.0 -23.0 -260.0 -23.0 -94.0V179.0ZM199.0 235.0C208.0 202.0 219.0 157.0 222.0 129.0L376.0 160.0C371.0 188.0 359.0 230.0 348.0 261.0ZM12.0 -134.0V-170.0C12.0 -201.0 6.0 -246.0 -27.0 -272.0C-7.0 -283.0 26.0 -309.0 40.0 -326.0C82.0 -284.0 89.0 -223.0 89.0 -174.0V-134.0ZM371.0 -132.0V-167.0C371.0 -196.0 365.0 -238.0 327.0 -262.0C347.0 -273.0 380.0 -299.0 393.0 -316.0C440.0 -277.0 447.0 -218.0 447.0 -171.0V-132.0ZM222.0 -139.0V-213.0C222.0 -262.0 231.0 -288.0 284.0 -288.0C296.0 -288.0 292.0 -288.0 300.0 -288.0C314.0 -288.0 330.0 -287.0 338.0 -284.0C336.0 -265.0 336.0 -247.0 335.0 -230.0C325.0 -233.0 306.0 -234.0 299.0 -234.0C295.0 -234.0 310.0 -234.0 307.0 -234.0C297.0 -234.0 296.0 -228.0 296.0 -214.0V-139.0ZM586.0 -133.0V-225.0C586.0 -278.0 596.0 -305.0 654.0 -305.0C667.0 -305.0 674.0 -305.0 684.0 -305.0C699.0 -305.0 718.0 -304.0 727.0 -300.0C725.0 -281.0 724.0 -261.0 723.0 -243.0C713.0 -247.0 692.0 -248.0 682.0 -248.0C677.0 -248.0 681.0 -248.0 677.0 -248.0C665.0 -248.0 664.0 -241.0 664.0 -226.0V-133.0Z"/></g>
<g fill="black" opacity=".8" transform="translate(1600 200) scale(0.1 -0.1)"><path d="M0.0 0.0V-106.0H313.0V0.0ZM341.0 0.0V-107.0H701.0V0.0ZM94.0 62.0V-332.0H202.0V62.0ZM457.0 44.0V-306.0H566.0V44.0ZM-75.0 179.0V62.0H713.0V179.0ZM-155.0 179.0V-111.0C-155.0 -261.0 -159.0 -476.0 -228.0 -621.0C-198.0 -635.0 -137.0 -679.0 -112.0 -703.0C-32.0 -541.0 -19.0 -279.0 -19.0 -111.0V179.0ZM203.0 229.0C215.0 193.0 229.0 143.0 234.0 114.0L389.0 148.0C381.0 179.0 365.0 226.0 352.0 260.0ZM11.0 -120.0V-158.0C11.0 -193.0 5.0 -237.0 -27.0 -264.0C-6.0 -276.0 28.0 -302.0 42.0 -320.0C82.0 -277.0 88.0 -214.0 88.0 -161.0V-120.0ZM365.0 -117.0V-156.0C365.0 -188.0 359.0 -232.0 328.0 -257.0C349.0 -267.0 381.0 -293.0 395.0 -309.0C432.0 -268.0 440.0 -210.0 440.0 -159.0V-117.0ZM222.0 -123.0V-207.0C222.0 -257.0 232.0 -283.0 285.0 -283.0C297.0 -283.0 293.0 -283.0 301.0 -283.0C314.0 -283.0 330.0 -282.0 337.0 -279.0C336.0 -261.0 336.0 -242.0 335.0 -225.0C326.0 -227.0 306.0 -229.0 298.0 -229.0C296.0 -229.0 310.0 -229.0 307.0 -229.0C298.0 -229.0 296.0 -224.0 296.0 -209.0V-123.0ZM581.0 -120.0V-215.0C581.0 -271.0 592.0 -298.0 650.0 -298.0C664.0 -298.0 669.0 -298.0 679.0 -298.0C693.0 -298.0 711.0 -297.0 722.0 -293.0C719.0 -272.0 718.0 -252.0 717.0 -233.0C707.0 -237.0 686.0 -238.0 676.0 -238.0C671.0 -238.0 676.0 -238.0 673.0 -238.0C662.0 -238.0 660.0 -231.0 660.0 -216.0V-120.0Z"/></g>
<g fill="red" transform="translate(100 300) scale(0.1 -0.1)"><path d="M0.0 0.0V-29.0H309.0V0.0ZM340.0 0.0V-29.0H680.0V0.0ZM135.0 71.0V-290.0H164.0V71.0ZM481.0 71.0V-266.0H510.0V71.0ZM-76.0 117.0V88.0H705.0V117.0ZM-91.0 117.0V-174.0C-91.0 -328.0 -99.0 -541.0 -178.0 -697.0C-171.0 -700.0 -158.0 -709.0 -153.0 -715.0C-73.0 -554.0 -62.0 -331.0 -62.0 -174.0V117.0ZM273.0 193.0C286.0 163.0 301.0 125.0 307.0 99.0L336.0 109.0C329.0 133.0 314.0 171.0 301.0 201.0ZM31.0 -67.0V-116.0C31.0 -163.0 24.0 -224.0 -31.0 -262.0C-24.0 -266.0 -12.0 -275.0 -7.0 -282.0C52.0 -236.0 60.0 -174.0 60.0 -116.0V-67.0ZM380.0 -67.0V-115.0C380.0 -161.0 373.0 -221.0 330.0 -258.0C337.0 -262.0 350.0 -271.0 354.0 -277.0C402.0 -232.0 409.0 -172.0 409.0 -115.0V-67.0ZM232.0 -69.0V-197.0C232.0 -234.0 238.0 -245.0 266.0 -245.0C274.0 -245.0 286.0 -245.0 292.0 -245.0C302.0 -245.0 313.0 -245.0 320.0 -243.0C320.0 -236.0 319.0 -225.0 318.0 -218.0C309.0 -220.0 298.0 -220.0 291.0 -220.0C285.0 -220.0 276.0 -220.0 271.0 -220.0C262.0 -220.0 261.0 -217.0 261.0 -198.0V-69.0ZM573.0 -66.0V-205.0C573.0 -242.0 579.0 -254.0 611.0 -254.0C620.0 -254.0 655.0 -254.0 664.0 -254.0C678.0 -254.0 693.0 -254.0 699.0 -252.0C698.0 -245.0 697.0 -234.0 697.0 -227.0C688.0 -229.0 672.0 -229.0 663.0 -229.0C654.0 -229.0 623.0 -229.0 615.0 -229.0C603.0 -229.0 602.0 -225.0 602.0 -205.0V-66.0Z"/></g>
<g fill="black" opacity=".8" transform="translate(100 300) scale(0.1 -0.1)"><path d="M0.0 0.0V-30.0H310.0V0.0ZM339.0 0.0V-30.0H679.0V0.0ZM141.0 65.0V-275.0H170.0V65.0ZM480.0 71.0V-251.0H509.0V71.0ZM-75.0 125.0V96.0H714.0V125.0ZM-90.0 119.0V-177.0C-90.0 -328.0 -98.0 -533.0 -179.0 -683.0C-171.0 -688.0 -159.0 -697.0 -155.0 -702.0C-72.0 -546.0 -60.0 -331.0 -60.0 -177.0V119.0ZM269.0 196.0C284.0 165.0 301.0 126.0 306.0 99.0L336.0 109.0C328.0 134.0 312.0 173.0 297.0 204.0ZM31.0 -71.0V-117.0C31.0 -164.0 25.0 -220.0 -30.0 -257.0C-24.0 -261.0 -11.0 -269.0 -7.0 -275.0C52.0 -232.0 60.0 -174.0 60.0 -118.0V-71.0ZM379.0 -71.0V-117.0C379.0 -160.0 373.0 -215.0 330.0 -248.0C336.0 -252.0 349.0 -262.0 354.0 -268.0C402.0 -225.0 408.0 -171.0 408.0 -116.0V-71.0ZM232.0 -74.0V-188.0C232.0 -225.0 238.0 -236.0 265.0 -236.0C274.0 -236.0 287.0 -236.0 292.0 -236.0C302.0 -236.0 312.0 -235.0 319.0 -234.0C319.0 -227.0 318.0 -216.0 317.0 -209.0C308.0 -210.0 297.0 -212.0 291.0 -212.0C285.0 -212.0 277.0 -212.0 271.0 -212.0C262.0 -212.0 260.0 -208.0 260.0 -188.0V-74.0ZM571.0 -72.0V-195.0C571.0 -233.0 577.0 -244.0 609.0 -244.0C620.0 -244.0 654.0 -244.0 662.0 -244.0C676.0 -244.0 691.0 -245.0 698.0 -242.0C696.0 -235.0 696.0 -223.0 696.0 -217.0C686.0 -219.0 671.0 -220.0 662.0 -220.0C653.0 -220.0 622.0 -220.0 614.0 -220.0C602.0 -220.0 601.0 -216.0 601.0 -196.0V-72.0Z"/></g>
<g fill="red" transform="translate(200 300) scale(0.1 -0.1)"><path d="M0.0 0.0V-100.0H311.0V0.0ZM334.0 0.0V-100.0H690.0V0.0ZM101.0 41.0V-278.0H208.0V41.0ZM447.0 41.0V-254.0H554.0V41.0ZM-75.0 166.0V55.0H704.0V166.0ZM-153.0 166.0V-123.0C-153.0 -280.0 -158.0 -510.0 -234.0 -665.0C-199.0 -677.0 -137.0 -710.0 -110.0 -731.0C-29.0 -562.0 -16.0 -296.0 -16.0 -122.0V166.0ZM206.0 211.0C215.0 178.0 226.0 133.0 229.0 105.0L383.0 136.0C378.0 164.0 366.0 206.0 355.0 237.0ZM12.0 -113.0V-147.0C12.0 -174.0 6.0 -214.0 -27.0 -235.0C-7.0 -246.0 26.0 -272.0 40.0 -290.0C82.0 -252.0 89.0 -197.0 89.0 -151.0V-113.0ZM356.0 -111.0V-143.0C356.0 -167.0 350.0 -203.0 314.0 -221.0C334.0 -232.0 365.0 -257.0 378.0 -274.0C423.0 -240.0 430.0 -189.0 430.0 -147.0V-111.0ZM222.0 -115.0V-186.0C222.0 -234.0 231.0 -260.0 283.0 -260.0C294.0 -260.0 281.0 -260.0 288.0 -260.0C300.0 -260.0 315.0 -259.0 323.0 -256.0C321.0 -237.0 321.0 -219.0 320.0 -202.0C311.0 -205.0 293.0 -206.0 287.0 -206.0C285.0 -206.0 307.0 -206.0 306.0 -206.0C297.0 -206.0 296.0 -200.0 296.0 -187.0V-115.0ZM571.0 -112.0V-185.0C571.0 -237.0 581.0 -264.0 638.0 -264.0C652.0 -264.0 659.0 -264.0 669.0 -264.0C684.0 -264.0 703.0 -263.0 712.0 -260.0C710.0 -240.0 709.0 -220.0 708.0 -202.0C698.0 -206.0 676.0 -207.0 667.0 -207.0C662.0 -207.0 666.0 -207.0 662.0 -207.0C650.0 -207.0 649.0 -201.0 649.0 -186.0V-112.0Z"/></g>
<g fill="black" opacity=".8" transform="translate(200 300) scale(0.1 -0.1)"><path d="M0.0 0.0V-101.0H314.0V0.0ZM336.0 0.0V-102.0H691.0V0.0ZM103.0 31.0V-282.0H209.0V31.0ZM452.0 36.0V-269.0H558.0V36.0ZM-75.0 169.0V53.0H709.0V169.0ZM-155.0 160.0V-142.0C-155.0 -290.0 -159.0 -499.0 -231.0 -640.0C-201.0 -654.0 -141.0 -698.0 -116.0 -723.0C-33.0 -565.0 -20.0 -308.0 -20.0 -142.0V160.0ZM199.0 208.0C210.0 173.0 223.0 124.0 228.0 96.0L384.0 129.0C376.0 159.0 362.0 205.0 349.0 238.0ZM11.0 -122.0V-157.0C11.0 -184.0 6.0 -221.0 -27.0 -243.0C-7.0 -256.0 25.0 -281.0 40.0 -298.0C82.0 -262.0 89.0 -205.0 89.0 -160.0V-122.0ZM358.0 -119.0V-153.0C358.0 -177.0 353.0 -214.0 325.0 -233.0C346.0 -244.0 377.0 -269.0 391.0 -285.0C426.0 -250.0 433.0 -199.0 433.0 -157.0V-119.0ZM221.0 -124.0V-188.0C221.0 -237.0 230.0 -262.0 282.0 -262.0C295.0 -262.0 288.0 -262.0 296.0 -262.0C308.0 -262.0 324.0 -262.0 332.0 -258.0C330.0 -241.0 330.0 -221.0 329.0 -204.0C320.0 -207.0 301.0 -209.0 293.0 -209.0C291.0 -209.0 308.0 -209.0 306.0 -209.0C296.0 -209.0 295.0 -203.0 295.0 -190.0V-124.0ZM573.0 -121.0V-194.0C573.0 -247.0 583.0 -274.0 639.0 -274.0C654.0 -274.0 661.0 -274.0 671.0 -274.0C686.0 -274.0 704.0 -273.0 715.0 -269.0C712.0 -249.0 712.0 -230.0 710.0 -211.0C700.0 -215.0 679.0 -216.0 668.0 -216.0C663.0 -216.0 667.0 -216.0 664.0 -216.0C652.0 -216.0 650.0 -210.0 650.0 -195.0V-121.0Z"/></g>
</svg>
