<?xml version="1.0" encoding="UTF-8"?>
<svg width="1700" height="300" xmlns="http://www.w3.org/2000/svg">
<rect width="100%" height="100%" fill="white"/>
<g fill="green" transform="translate(100 100) scale(0.1 -0.1)"><path d="M-0.0 0.0V-29.0H851.0V0.0ZM611.0 -429.0V-436.0C519.0 -634.0 258.0 -734.0 24.0 -767.0C29.0 -774.0 36.0 -786.0 39.0 -794.0C279.0 -755.0 542.0 -654.0 643.0 -439.0L625.0 -427.0L618.0 -429.0ZM359.0 -352.0C303.0 -428.0 195.0 -517.0 51.0 -579.0C57.0 -584.0 67.0 -593.0 72.0 -600.0C220.0 -533.0 329.0 -443.0 394.0 -359.0ZM304.0 -429.0 275.0 -458.0H618.0V-429.0ZM408.0 106.0V-229.0H438.0V106.0ZM412.0 -209.0C318.0 -292.0 127.0 -363.0 -29.0 -392.0C-23.0 -398.0 -14.0 -409.0 -10.0 -417.0C144.0 -384.0 339.0 -310.0 436.0 -223.0ZM435.0 -214.0 411.0 -228.0C510.0 -307.0 707.0 -379.0 857.0 -409.0C861.0 -401.0 869.0 -391.0 876.0 -385.0C723.0 -357.0 531.0 -291.0 435.0 -214.0ZM207.0 -56.0C168.0 -155.0 88.0 -235.0 -3.0 -287.0C5.0 -292.0 16.0 -302.0 21.0 -307.0C110.0 -252.0 195.0 -168.0 237.0 -63.0ZM162.0 -168.0C203.0 -198.0 252.0 -239.0 278.0 -265.0L299.0 -246.0C273.0 -220.0 223.0 -180.0 183.0 -153.0ZM670.0 -54.0C645.0 -134.0 596.0 -202.0 534.0 -248.0C542.0 -252.0 554.0 -262.0 558.0 -267.0C620.0 -218.0 673.0 -145.0 700.0 -59.0ZM633.0 -159.0C693.0 -202.0 766.0 -262.0 803.0 -300.0L826.0 -281.0C788.0 -243.0 714.0 -184.0 654.0 -143.0ZM105.0 -465.0C323.0 -556.0 595.0 -694.0 735.0 -783.0L756.0 -760.0C610.0 -670.0 341.0 -537.0 124.0 -447.0Z"/></g>
<g fill="green" transform="translate(200 100) scale(0.1 -0.1)"><path d="M0.0 0.0V-124.0H887.0V0.0ZM586.0 -471.0V-488.0C507.0 -655.0 283.0 -731.0 16.0 -755.0C38.0 -784.0 63.0 -837.0 73.0 -871.0C367.0 -832.0 611.0 -740.0 720.0 -509.0L635.0 -466.0L612.0 -471.0ZM356.0 -401.0C289.0 -475.0 173.0 -554.0 18.0 -611.0C45.0 -629.0 82.0 -668.0 100.0 -695.0C263.0 -622.0 385.0 -534.0 484.0 -430.0ZM345.0 -471.0 252.0 -564.0H620.0V-471.0ZM369.0 81.0V-324.0H508.0V81.0ZM377.0 -235.0C294.0 -318.0 128.0 -379.0 -44.0 -405.0C-17.0 -431.0 18.0 -481.0 36.0 -513.0C215.0 -475.0 379.0 -393.0 480.0 -278.0ZM503.0 -235.0 395.0 -283.0C500.0 -398.0 667.0 -486.0 842.0 -527.0C861.0 -493.0 899.0 -440.0 928.0 -413.0C758.0 -384.0 589.0 -318.0 503.0 -235.0ZM142.0 -112.0C116.0 -188.0 59.0 -253.0 -17.0 -293.0C10.0 -311.0 57.0 -352.0 77.0 -374.0C158.0 -322.0 227.0 -238.0 263.0 -136.0ZM124.0 -250.0C161.0 -273.0 213.0 -307.0 237.0 -330.0L312.0 -238.0C285.0 -217.0 233.0 -186.0 196.0 -167.0ZM646.0 -114.0C624.0 -161.0 582.0 -206.0 533.0 -236.0C560.0 -255.0 605.0 -296.0 625.0 -318.0C681.0 -278.0 735.0 -213.0 765.0 -145.0ZM628.0 -245.0C695.0 -277.0 789.0 -328.0 834.0 -361.0L904.0 -263.0C856.0 -232.0 760.0 -186.0 694.0 -158.0ZM51.0 -566.0C263.0 -650.0 559.0 -783.0 702.0 -867.0L786.0 -772.0C630.0 -687.0 328.0 -563.0 127.0 -488.0Z"/></g>
<g fill="green" transform="translate(300 100) scale(0.1 -0.1)"><path d="M-0.0 0.0V-20.0H647.0V0.0ZM516.0 -310.0V-314.0C447.0 -455.0 249.0 -523.0 75.0 -543.0C79.0 -548.0 83.0 -557.0 85.0 -562.0C263.0 -538.0 462.0 -469.0 538.0 -317.0L525.0 -308.0L521.0 -310.0ZM329.0 -255.0C288.0 -306.0 208.0 -369.0 99.0 -413.0C103.0 -416.0 109.0 -422.0 113.0 -428.0C226.0 -380.0 306.0 -317.0 354.0 -260.0ZM287.0 -310.0 265.0 -330.0H520.0V-310.0ZM366.0 68.0V-151.0H387.0V68.0ZM369.0 -157.0C298.0 -216.0 152.0 -265.0 33.0 -284.0C38.0 -288.0 44.0 -296.0 46.0 -302.0C164.0 -280.0 312.0 -229.0 386.0 -167.0ZM330.0 -138.0 314.0 -148.0C388.0 -199.0 538.0 -240.0 652.0 -256.0C654.0 -251.0 660.0 -244.0 665.0 -240.0C548.0 -225.0 402.0 -187.0 330.0 -138.0ZM213.0 -48.0C183.0 -121.0 122.0 -179.0 53.0 -216.0C59.0 -220.0 66.0 -227.0 70.0 -230.0C137.0 -191.0 202.0 -130.0 234.0 -53.0ZM162.0 -117.0C187.0 -137.0 216.0 -163.0 232.0 -180.0L247.0 -167.0C231.0 -150.0 201.0 -124.0 177.0 -107.0ZM510.0 -34.0C491.0 -88.0 455.0 -134.0 411.0 -166.0C416.0 -168.0 425.0 -175.0 427.0 -179.0C472.0 -146.0 511.0 -96.0 531.0 -37.0ZM482.0 -105.0C526.0 -135.0 581.0 -177.0 608.0 -203.0L624.0 -190.0C596.0 -163.0 541.0 -122.0 497.0 -94.0ZM126.0 -323.0C297.0 -392.0 511.0 -496.0 621.0 -563.0L635.0 -547.0C520.0 -479.0 309.0 -378.0 139.0 -310.0Z"/></g>
<g fill="green" transform="translate(400 100) scale(0.1 -0.1)"><path d="M0.0 0.0V-87.0H676.0V0.0ZM505.0 -340.0V-351.0C445.0 -469.0 274.0 -519.0 72.0 -532.0C87.0 -553.0 102.0 -591.0 108.0 -616.0C332.0 -592.0 517.0 -532.0 600.0 -367.0L540.0 -336.0L523.0 -340.0ZM333.0 -289.0C282.0 -340.0 194.0 -395.0 75.0 -437.0C94.0 -449.0 119.0 -476.0 132.0 -496.0C257.0 -443.0 348.0 -382.0 425.0 -309.0ZM324.0 -340.0 253.0 -404.0H527.0V-340.0ZM342.0 51.0V-224.0H443.0V51.0ZM348.0 -177.0C284.0 -236.0 157.0 -277.0 25.0 -294.0C44.0 -312.0 69.0 -349.0 82.0 -372.0C220.0 -348.0 345.0 -292.0 423.0 -208.0ZM380.0 -153.0 302.0 -189.0C383.0 -267.0 511.0 -320.0 647.0 -341.0C660.0 -318.0 686.0 -280.0 706.0 -261.0C574.0 -247.0 445.0 -208.0 380.0 -153.0ZM168.0 -87.0C149.0 -143.0 105.0 -189.0 47.0 -217.0C66.0 -231.0 101.0 -262.0 115.0 -278.0C178.0 -241.0 230.0 -180.0 257.0 -104.0ZM136.0 -179.0C158.0 -192.0 190.0 -212.0 205.0 -225.0L259.0 -160.0C242.0 -148.0 211.0 -130.0 188.0 -120.0ZM493.0 -76.0C477.0 -105.0 445.0 -132.0 409.0 -150.0C428.0 -165.0 460.0 -195.0 473.0 -211.0C515.0 -186.0 556.0 -144.0 578.0 -98.0ZM479.0 -165.0C531.0 -186.0 603.0 -220.0 638.0 -243.0L686.0 -170.0C649.0 -149.0 575.0 -118.0 524.0 -100.0ZM87.0 -390.0C252.0 -453.0 484.0 -553.0 597.0 -616.0L656.0 -549.0C533.0 -486.0 296.0 -392.0 139.0 -336.0Z"/></g>
<g fill="green" transform="translate(500 100) scale(0.1 -0.1)"><path d="M0.0 0.0V-38.0H655.0V0.0ZM17.0 -479.0V-490.0C-63.0 -733.0 -268.0 -879.0 -489.0 -949.0C-481.0 -957.0 -468.0 -971.0 -463.0 -981.0C-238.0 -905.0 -29.0 -756.0 59.0 -491.0L37.0 -477.0L26.0 -479.0ZM-219.0 -384.0C-277.0 -504.0 -379.0 -616.0 -496.0 -692.0C-486.0 -699.0 -469.0 -712.0 -463.0 -718.0C-349.0 -639.0 -241.0 -522.0 -178.0 -394.0ZM-262.0 -479.0 -284.0 -518.0H32.0V-479.0ZM-183.0 192.0V-382.0H-145.0V192.0ZM-179.0 -176.0C-253.0 -278.0 -396.0 -380.0 -515.0 -427.0C-508.0 -435.0 -495.0 -448.0 -488.0 -458.0C-371.0 -405.0 -223.0 -298.0 -147.0 -192.0ZM340.0 -382.0 306.0 -398.0C391.0 -544.0 546.0 -718.0 661.0 -802.0C669.0 -792.0 681.0 -778.0 690.0 -770.0C575.0 -693.0 422.0 -527.0 340.0 -382.0ZM-333.0 5.0C-364.0 -93.0 -423.0 -180.0 -497.0 -240.0C-487.0 -246.0 -470.0 -259.0 -464.0 -266.0C-391.0 -202.0 -327.0 -108.0 -294.0 -3.0ZM-221.0 -224.0C-134.0 -275.0 -25.0 -350.0 29.0 -397.0L56.0 -369.0C0.0 -322.0 -108.0 -250.0 -195.0 -201.0ZM515.0 -108.0C491.0 -225.0 444.0 -327.0 372.0 -396.0C383.0 -403.0 398.0 -416.0 405.0 -422.0C475.0 -348.0 527.0 -239.0 553.0 -115.0ZM482.0 -261.0C540.0 -320.0 608.0 -403.0 643.0 -453.0L675.0 -429.0C639.0 -382.0 569.0 -301.0 511.0 -243.0ZM-329.0 -630.0C-206.0 -706.0 -59.0 -817.0 14.0 -891.0L45.0 -863.0C-30.0 -790.0 -178.0 -683.0 -301.0 -608.0Z"/></g>
<g fill="green" transform="translate(600 100) scale(0.1 -0.1)"><path d="M0.0 0.0V-157.0H671.0V0.0ZM-76.0 -527.0V-553.0C-136.0 -763.0 -304.0 -895.0 -519.0 -958.0C-486.0 -986.0 -433.0 -1050.0 -412.0 -1086.0C-184.0 -1006.0 4.0 -844.0 87.0 -568.0L-16.0 -522.0L-43.0 -527.0ZM-283.0 -454.0C-333.0 -558.0 -426.0 -658.0 -535.0 -721.0C-501.0 -745.0 -443.0 -798.0 -418.0 -826.0C-304.0 -748.0 -197.0 -626.0 -131.0 -494.0ZM-285.0 -527.0 -355.0 -653.0H-19.0V-527.0ZM-264.0 155.0V-448.0H-109.0V155.0ZM-254.0 -198.0C-315.0 -295.0 -436.0 -392.0 -554.0 -441.0C-522.0 -469.0 -479.0 -520.0 -458.0 -554.0C-335.0 -488.0 -213.0 -366.0 -142.0 -241.0ZM408.0 -408.0 294.0 -454.0C365.0 -625.0 483.0 -820.0 588.0 -936.0C619.0 -889.0 676.0 -827.0 717.0 -794.0C607.0 -700.0 478.0 -544.0 408.0 -408.0ZM-425.0 -69.0C-449.0 -146.0 -491.0 -223.0 -545.0 -276.0C-516.0 -291.0 -467.0 -323.0 -444.0 -343.0C-390.0 -283.0 -337.0 -190.0 -306.0 -97.0ZM-276.0 -293.0C-195.0 -349.0 -85.0 -429.0 -34.0 -483.0L48.0 -368.0C-6.0 -319.0 -119.0 -243.0 -198.0 -192.0ZM484.0 -187.0C463.0 -279.0 426.0 -376.0 379.0 -441.0C413.0 -457.0 471.0 -495.0 499.0 -517.0C548.0 -443.0 595.0 -328.0 623.0 -220.0ZM469.0 -379.0C516.0 -436.0 580.0 -515.0 609.0 -563.0L712.0 -470.0C681.0 -425.0 615.0 -351.0 567.0 -298.0ZM-387.0 -798.0C-259.0 -869.0 -96.0 -980.0 -23.0 -1056.0L90.0 -935.0C9.0 -858.0 -158.0 -756.0 -282.0 -691.0Z"/></g>
<g fill="red" transform="translate(100 200) scale(0.1 -0.1)"><path d="M0.0 0.0V-29.0H851.0V0.0ZM611.0 -429.0V-436.0C519.0 -634.0 258.0 -734.0 24.0 -767.0C29.0 -774.0 36.0 -786.0 39.0 -794.0C279.0 -755.0 542.0 -654.0 643.0 -439.0L625.0 -427.0L618.0 -429.0ZM359.0 -352.0C303.0 -428.0 195.0 -517.0 51.0 -579.0C57.0 -584.0 67.0 -593.0 72.0 -600.0C220.0 -533.0 329.0 -443.0 394.0 -359.0ZM304.0 -429.0 275.0 -458.0H618.0V-429.0ZM408.0 106.0V-229.0H438.0V106.0ZM412.0 -209.0C318.0 -292.0 127.0 -363.0 -29.0 -392.0C-23.0 -398.0 -14.0 -409.0 -10.0 -417.0C144.0 -384.0 339.0 -310.0 436.0 -223.0ZM435.0 -214.0 411.0 -228.0C510.0 -307.0 707.0 -379.0 857.0 -409.0C861.0 -401.0 869.0 -391.0 876.0 -385.0C723.0 -357.0 531.0 -291.0 435.0 -214.0ZM207.0 -56.0C168.0 -155.0 88.0 -235.0 -3.0 -287.0C5.0 -292.0 16.0 -302.0 21.0 -307.0C110.0 -252.0 195.0 -168.0 237.0 -63.0ZM162.0 -168.0C203.0 -198.0 252.0 -239.0 278.0 -265.0L299.0 -246.0C273.0 -220.0 223.0 -180.0 183.0 -153.0ZM670.0 -54.0C645.0 -134.0 596.0 -202.0 534.0 -248.0C542.0 -252.0 554.0 -262.0 558.0 -267.0C620.0 -218.0 673.0 -145.0 700.0 -59.0ZM633.0 -159.0C693.0 -202.0 766.0 -262.0 803.0 -300.0L826.0 -281.0C788.0 -243.0 714.0 -184.0 654.0 -143.0ZM105.0 -465.0C323.0 -556.0 595.0 -694.0 735.0 -783.0L756.0 -760.0C610.0 -670.0 341.0 -537.0 124.0 -447.0Z"/></g>
<g fill="black" opacity=".8" transform="translate(100 200) scale(0.1 -0.1)"><path d="M0.0 0.0V-29.0H851.0V0.0ZM611.0 -429.0V-436.0C519.0 -634.0 258.0 -734.0 24.0 -767.0C29.0 -774.0 36.0 -786.0 39.0 -794.0C279.0 -755.0 542.0 -654.0 643.0 -439.0L625.0 -427.0L618.0 -429.0ZM359.0 -352.0C303.0 -428.0 195.0 -517.0 51.0 -579.0C57.0 -584.0 67.0 -593.0 72.0 -600.0C220.0 -533.0 329.0 -443.0 394.0 -359.0ZM304.0 -429.0 275.0 -458.0H618.0V-429.0ZM408.0 106.0V-229.0H438.0V106.0ZM412.0 -209.0C318.0 -292.0 127.0 -363.0 -29.0 -392.0C-23.0 -398.0 -14.0 -409.0 -10.0 -417.0C144.0 -384.0 339.0 -310.0 436.0 -223.0ZM435.0 -214.0 411.0 -228.0C510.0 -307.0 707.0 -379.0 857.0 -409.0C861.0 -401.0 869.0 -391.0 876.0 -385.0C723.0 -357.0 531.0 -291.0 435.0 -214.0ZM207.0 -56.0C168.0 -155.0 88.0 -235.0 -3.0 -287.0C5.0 -292.0 16.0 -302.0 21.0 -307.0C110.0 -252.0 195.0 -168.0 237.0 -63.0ZM162.0 -168.0C203.0 -198.0 252.0 -239.0 278.0 -265.0L299.0 -246.0C273.0 -220.0 223.0 -180.0 183.0 -153.0ZM670.0 -54.0C645.0 -134.0 596.0 -202.0 534.0 -248.0C542.0 -252.0 554.0 -262.0 558.0 -267.0C620.0 -218.0 673.0 -145.0 700.0 -59.0ZM633.0 -159.0C693.0 -202.0 766.0 -262.0 803.0 -300.0L826.0 -281.0C788.0 -243.0 714.0 -184.0 654.0 -143.0ZM105.0 -465.0C323.0 -556.0 595.0 -694.0 735.0 -783.0L756.0 -760.0C610.0 -670.0 341.0 -537.0 124.0 -447.0Z"/></g>
<g fill="red" transform="translate(200 200) scale(0.1 -0.1)"><path d="M0.0 0.0V-124.0H887.0V0.0ZM586.0 -471.0V-488.0C507.0 -655.0 283.0 -731.0 16.0 -755.0C38.0 -784.0 63.0 -837.0 73.0 -871.0C367.0 -832.0 611.0 -740.0 720.0 -509.0L635.0 -466.0L612.0 -471.0ZM356.0 -401.0C289.0 -475.0 173.0 -554.0 18.0 -611.0C45.0 -629.0 82.0 -668.0 100.0 -695.0C263.0 -622.0 385.0 -534.0 484.0 -430.0ZM345.0 -471.0 252.0 -564.0H620.0V-471.0ZM369.0 81.0V-324.0H508.0V81.0ZM377.0 -235.0C294.0 -318.0 128.0 -379.0 -44.0 -405.0C-17.0 -431.0 18.0 -481.0 36.0 -513.0C215.0 -475.0 379.0 -393.0 480.0 -278.0ZM503.0 -235.0 395.0 -283.0C500.0 -398.0 667.0 -486.0 842.0 -527.0C861.0 -493.0 899.0 -440.0 928.0 -413.0C758.0 -384.0 589.0 -318.0 503.0 -235.0ZM142.0 -112.0C116.0 -188.0 59.0 -253.0 -17.0 -293.0C10.0 -311.0 57.0 -352.0 77.0 -374.0C158.0 -322.0 227.0 -238.0 263.0 -136.0ZM124.0 -250.0C161.0 -273.0 213.0 -307.0 237.0 -330.0L312.0 -238.0C285.0 -217.0 233.0 -186.0 196.0 -167.0ZM646.0 -114.0C624.0 -161.0 582.0 -206.0 533.0 -236.0C560.0 -255.0 605.0 -296.0 625.0 -318.0C681.0 -278.0 735.0 -213.0 765.0 -145.0ZM628.0 -245.0C695.0 -277.0 789.0 -328.0 834.0 -361.0L904.0 -263.0C856.0 -232.0 760.0 -186.0 694.0 -158.0ZM51.0 -566.0C263.0 -650.0 559.0 -783.0 702.0 -867.0L786.0 -772.0C630.0 -687.0 328.0 -563.0 127.0 -488.0Z"/></g>
<g fill="black" opacity=".8" transform="translate(200 200) scale(0.1 -0.1)"><path d="M0.0 0.0V-124.0H887.0V0.0ZM586.0 -471.0V-488.0C507.0 -655.0 283.0 -731.0 16.0 -755.0C38.0 -784.0 63.0 -837.0 73.0 -871.0C367.0 -832.0 611.0 -740.0 720.0 -509.0L635.0 -466.0L612.0 -471.0ZM356.0 -401.0C289.0 -475.0 173.0 -554.0 18.0 -611.0C45.0 -629.0 82.0 -668.0 100.0 -695.0C263.0 -622.0 385.0 -534.0 484.0 -430.0ZM345.0 -471.0 252.0 -564.0H620.0V-471.0ZM369.0 81.0V-324.0H508.0V81.0ZM377.0 -235.0C294.0 -318.0 128.0 -379.0 -44.0 -405.0C-17.0 -431.0 18.0 -481.0 36.0 -513.0C215.0 -475.0 379.0 -393.0 480.0 -278.0ZM503.0 -235.0 395.0 -283.0C500.0 -398.0 667.0 -486.0 842.0 -527.0C861.0 -493.0 899.0 -440.0 928.0 -413.0C758.0 -384.0 589.0 -318.0 503.0 -235.0ZM142.0 -112.0C116.0 -188.0 59.0 -253.0 -17.0 -293.0C10.0 -311.0 57.0 -352.0 77.0 -374.0C158.0 -322.0 227.0 -238.0 263.0 -136.0ZM124.0 -250.0C161.0 -273.0 213.0 -307.0 237.0 -330.0L312.0 -238.0C285.0 -217.0 233.0 -186.0 196.0 -167.0ZM646.0 -114.0C624.0 -161.0 582.0 -206.0 533.0 -236.0C560.0 -255.0 605.0 -296.0 625.0 -318.0C681.0 -278.0 735.0 -213.0 765.0 -145.0ZM628.0 -245.0C695.0 -277.0 789.0 -328.0 834.0 -361.0L904.0 -263.0C856.0 -232.0 760.0 -186.0 694.0 -158.0ZM51.0 -566.0C263.0 -650.0 559.0 -783.0 702.0 -867.0L786.0 -772.0C630.0 -687.0 328.0 -563.0 127.0 -488.0Z"/></g>
<g fill="red" transform="translate(300 200) scale(0.1 -0.1)"><path d="M0.0 0.0V-29.0H451.0V0.0ZM-78.0 -360.0V-368.0C-135.0 -554.0 -277.0 -668.0 -438.0 -725.0C-431.0 -731.0 -421.0 -742.0 -417.0 -749.0C-254.0 -688.0 -109.0 -571.0 -46.0 -369.0L-63.0 -358.0L-71.0 -360.0ZM-249.0 -287.0C-292.0 -382.0 -366.0 -468.0 -448.0 -526.0C-440.0 -531.0 -427.0 -541.0 -422.0 -546.0C-343.0 -486.0 -264.0 -396.0 -218.0 -295.0ZM-279.0 -360.0 -294.0 -390.0H-66.0V-360.0ZM-225.0 154.0V-304.0H-196.0V154.0ZM-222.0 -124.0C-273.0 -202.0 -371.0 -282.0 -453.0 -319.0C-447.0 -325.0 -437.0 -335.0 -432.0 -343.0C-351.0 -301.0 -250.0 -217.0 -197.0 -136.0ZM235.0 -306.0 209.0 -318.0C269.0 -436.0 377.0 -579.0 456.0 -649.0C462.0 -642.0 472.0 -631.0 479.0 -625.0C400.0 -561.0 293.0 -423.0 235.0 -306.0ZM-327.0 13.0C-349.0 -59.0 -389.0 -124.0 -441.0 -169.0C-433.0 -174.0 -420.0 -184.0 -415.0 -189.0C-364.0 -141.0 -320.0 -70.0 -297.0 7.0ZM-221.0 -173.0C-150.0 -214.0 -61.0 -274.0 -17.0 -312.0L4.0 -290.0C-42.0 -252.0 -130.0 -194.0 -201.0 -155.0ZM355.0 -88.0C337.0 -179.0 303.0 -259.0 249.0 -314.0C257.0 -319.0 269.0 -329.0 274.0 -334.0C327.0 -276.0 365.0 -190.0 384.0 -93.0ZM331.0 -207.0C373.0 -253.0 423.0 -318.0 448.0 -356.0L473.0 -338.0C447.0 -302.0 396.0 -239.0 354.0 -194.0ZM-308.0 -488.0C-232.0 -542.0 -143.0 -619.0 -100.0 -671.0L-76.0 -650.0C-120.0 -599.0 -210.0 -524.0 -286.0 -471.0Z"/></g>
<g fill="black" opacity=".8" transform="translate(300 200) scale(0.1 -0.1)"><path d="M0.0 0.0V-29.0H451.0V0.0ZM-78.0 -360.0V-368.0C-135.0 -554.0 -277.0 -668.0 -438.0 -725.0C-431.0 -731.0 -421.0 -742.0 -417.0 -749.0C-254.0 -688.0 -109.0 -571.0 -46.0 -369.0L-63.0 -358.0L-71.0 -360.0ZM-249.0 -287.0C-292.0 -382.0 -366.0 -468.0 -448.0 -526.0C-440.0 -531.0 -427.0 -541.0 -422.0 -546.0C-343.0 -486.0 -264.0 -396.0 -218.0 -295.0ZM-279.0 -360.0 -294.0 -390.0H-66.0V-360.0ZM-225.0 154.0V-304.0H-196.0V154.0ZM-222.0 -124.0C-273.0 -202.0 -371.0 -282.0 -453.0 -319.0C-447.0 -325.0 -437.0 -335.0 -432.0 -343.0C-351.0 -301.0 -250.0 -217.0 -197.0 -136.0ZM235.0 -306.0 209.0 -318.0C269.0 -436.0 377.0 -579.0 456.0 -649.0C462.0 -642.0 472.0 -631.0 479.0 -625.0C400.0 -561.0 293.0 -423.0 235.0 -306.0ZM-327.0 13.0C-349.0 -59.0 -389.0 -124.0 -441.0 -169.0C-433.0 -174.0 -420.0 -184.0 -415.0 -189.0C-364.0 -141.0 -320.0 -70.0 -297.0 7.0ZM-221.0 -173.0C-150.0 -214.0 -61.0 -274.0 -17.0 -312.0L4.0 -290.0C-42.0 -252.0 -130.0 -194.0 -201.0 -155.0ZM355.0 -88.0C337.0 -179.0 303.0 -259.0 249.0 -314.0C257.0 -319.0 269.0 -329.0 274.0 -334.0C327.0 -276.0 365.0 -190.0 384.0 -93.0ZM331.0 -207.0C373.0 -253.0 423.0 -318.0 448.0 -356.0L473.0 -338.0C447.0 -302.0 396.0 -239.0 354.0 -194.0ZM-308.0 -488.0C-232.0 -542.0 -143.0 -619.0 -100.0 -671.0L-76.0 -650.0C-120.0 -599.0 -210.0 -524.0 -286.0 -471.0Z"/></g>
<g fill="red" transform="translate(400 200) scale(0.1 -0.1)"><path d="M0.0 0.0V-120.0H460.0V0.0ZM-157.0 -396.0V-416.0C-198.0 -577.0 -313.0 -683.0 -463.0 -735.0C-437.0 -755.0 -394.0 -804.0 -377.0 -831.0C-219.0 -766.0 -90.0 -636.0 -33.0 -426.0L-111.0 -392.0L-132.0 -396.0ZM-306.0 -342.0C-340.0 -423.0 -405.0 -499.0 -478.0 -547.0C-452.0 -565.0 -406.0 -606.0 -386.0 -627.0C-310.0 -569.0 -234.0 -474.0 -190.0 -373.0ZM-306.0 -396.0 -354.0 -493.0H-112.0V-396.0ZM-291.0 125.0V-348.0H-174.0V125.0ZM-283.0 -140.0C-325.0 -213.0 -407.0 -290.0 -485.0 -330.0C-461.0 -350.0 -428.0 -388.0 -412.0 -413.0C-330.0 -361.0 -247.0 -265.0 -199.0 -171.0ZM285.0 -326.0 201.0 -360.0C248.0 -494.0 327.0 -654.0 393.0 -750.0C418.0 -714.0 463.0 -667.0 495.0 -642.0C423.0 -563.0 334.0 -434.0 285.0 -326.0ZM-399.0 -44.0C-416.0 -101.0 -445.0 -159.0 -481.0 -200.0C-460.0 -211.0 -423.0 -233.0 -406.0 -247.0C-370.0 -202.0 -334.0 -132.0 -312.0 -65.0ZM-264.0 -222.0C-198.0 -268.0 -108.0 -334.0 -66.0 -378.0L-5.0 -290.0C-49.0 -250.0 -141.0 -187.0 -206.0 -145.0ZM331.0 -149.0C316.0 -223.0 289.0 -302.0 255.0 -355.0C281.0 -367.0 326.0 -394.0 347.0 -410.0C382.0 -351.0 416.0 -259.0 436.0 -173.0ZM320.0 -299.0C352.0 -345.0 394.0 -407.0 413.0 -445.0L494.0 -377.0C474.0 -342.0 430.0 -283.0 397.0 -240.0ZM-351.0 -622.0C-270.0 -672.0 -171.0 -750.0 -128.0 -805.0L-40.0 -712.0C-88.0 -657.0 -190.0 -585.0 -270.0 -539.0Z"/></g>
<g fill="black" opacity=".8" transform="translate(400 200) scale(0.1 -0.1)"><path d="M0.0 0.0V-120.0H460.0V0.0ZM-157.0 -396.0V-416.0C-198.0 -577.0 -313.0 -683.0 -463.0 -735.0C-437.0 -755.0 -394.0 -804.0 -377.0 -831.0C-219.0 -766.0 -90.0 -636.0 -33.0 -426.0L-111.0 -392.0L-132.0 -396.0ZM-306.0 -342.0C-340.0 -423.0 -405.0 -499.0 -478.0 -547.0C-452.0 -565.0 -406.0 -606.0 -386.0 -627.0C-310.0 -569.0 -234.0 -474.0 -190.0 -373.0ZM-306.0 -396.0 -354.0 -493.0H-112.0V-396.0ZM-291.0 125.0V-348.0H-174.0V125.0ZM-283.0 -140.0C-325.0 -213.0 -407.0 -290.0 -485.0 -330.0C-461.0 -350.0 -428.0 -388.0 -412.0 -413.0C-330.0 -361.0 -247.0 -265.0 -199.0 -171.0ZM285.0 -326.0 201.0 -360.0C248.0 -494.0 327.0 -654.0 393.0 -750.0C418.0 -714.0 463.0 -667.0 495.0 -642.0C423.0 -563.0 334.0 -434.0 285.0 -326.0ZM-399.0 -44.0C-416.0 -101.0 -445.0 -159.0 -481.0 -200.0C-460.0 -211.0 -423.0 -233.0 -406.0 -247.0C-370.0 -202.0 -334.0 -132.0 -312.0 -65.0ZM-264.0 -222.0C-198.0 -268.0 -108.0 -334.0 -66.0 -378.0L-5.0 -290.0C-49.0 -250.0 -141.0 -187.0 -206.0 -145.0ZM331.0 -149.0C316.0 -223.0 289.0 -302.0 255.0 -355.0C281.0 -367.0 326.0 -394.0 347.0 -410.0C382.0 -351.0 416.0 -259.0 436.0 -173.0ZM320.0 -299.0C352.0 -345.0 394.0 -407.0 413.0 -445.0L494.0 -377.0C474.0 -342.0 430.0 -283.0 397.0 -240.0ZM-351.0 -622.0C-270.0 -672.0 -171.0 -750.0 -128.0 -805.0L-40.0 -712.0C-88.0 -657.0 -190.0 -585.0 -270.0 -539.0Z"/></g>
</svg>
