<?xml version="1.0" encoding="UTF-8"?>
<svg width="1700" height="300" xmlns="http://www.w3.org/2000/svg">
<rect width="100%" height="100%" fill="white"/>
<g fill="green" transform="translate(100 100) scale(0.1 -0.1)"><path d="M0.0 0.0V-365.0H39.0V0.0ZM-269.0 -26.0V-65.0H240.0V-26.0ZM-456.0 -403.0 -486.0 -444.0H55.0V-403.0ZM46.0 -403.0V-413.0C-108.0 -562.0 -467.0 -665.0 -744.0 -705.0C-734.0 -714.0 -724.0 -730.0 -720.0 -743.0C-441.0 -697.0 -75.0 -593.0 90.0 -422.0L65.0 -402.0L56.0 -403.0ZM-470.0 -499.0 -497.0 -525.0C-351.0 -657.0 -29.0 -771.0 312.0 -815.0C319.0 -802.0 329.0 -785.0 337.0 -776.0C-7.0 -739.0 -333.0 -630.0 -470.0 -499.0ZM-602.0 5.0V-227.0H-564.0V5.0ZM-952.0 -223.0V-262.0H-669.0V-223.0ZM-793.0 -152.0 -699.0 -181.0 -357.0 -200.0 -450.0 -171.0ZM-712.0 -357.0 -137.0 -336.0 -437.0 -496.0 -1011.0 -517.0ZM-807.0 -130.0V-308.0H-349.0V-130.0ZM-737.0 -386.0C-710.0 -418.0 -682.0 -461.0 -669.0 -494.0L-633.0 -478.0C-646.0 -448.0 -675.0 -403.0 -704.0 -373.0ZM-464.0 -867.0C-363.0 -904.0 -236.0 -959.0 -168.0 -996.0L-145.0 -961.0C-214.0 -924.0 -341.0 -871.0 -442.0 -837.0ZM-878.0 -428.0 -872.0 -470.0C-723.0 -456.0 -511.0 -434.0 -302.0 -413.0V-375.0C-517.0 -396.0 -736.0 -417.0 -878.0 -428.0Z"/></g>
<g fill="green" transform="translate(200 100) scale(0.1 -0.1)"><path d="M0.0 0.0V-435.0H181.0V0.0ZM-195.0 -32.0V-153.0H274.0V-32.0ZM-381.0 -415.0 -466.0 -531.0H106.0V-415.0ZM86.0 -415.0V-438.0C-57.0 -570.0 -414.0 -651.0 -707.0 -682.0C-682.0 -713.0 -647.0 -765.0 -635.0 -798.0C-313.0 -755.0 70.0 -663.0 254.0 -482.0L144.0 -409.0L119.0 -415.0ZM-396.0 -561.0 -496.0 -624.0C-330.0 -752.0 3.0 -846.0 348.0 -877.0C366.0 -839.0 404.0 -778.0 435.0 -747.0C88.0 -728.0 -249.0 -659.0 -396.0 -561.0ZM-653.0 3.0V-256.0H-474.0V3.0ZM-953.0 -231.0V-312.0H-627.0V-231.0ZM-746.0 -169.0 -690.0 -234.0 -298.0 -243.0 -354.0 -177.0ZM-530.0 -452.0 -199.0 -394.0 -532.0 -450.0 -863.0 -508.0ZM-785.0 -127.0V-311.0H-253.0V-127.0ZM-737.0 -421.0C-718.0 -447.0 -695.0 -484.0 -686.0 -506.0L-551.0 -465.0C-563.0 -443.0 -587.0 -411.0 -606.0 -388.0ZM-498.0 -911.0C-391.0 -943.0 -250.0 -997.0 -183.0 -1034.0L-68.0 -950.0C-145.0 -911.0 -287.0 -861.0 -388.0 -835.0ZM-845.0 -392.0 -834.0 -492.0C-674.0 -483.0 -448.0 -465.0 -231.0 -447.0V-355.0C-457.0 -370.0 -691.0 -385.0 -845.0 -392.0Z"/></g>
<g fill="green" transform="translate(300 100) scale(0.1 -0.1)"><path d="M0.0 0.0V-270.0H28.0V0.0ZM-194.0 34.0V6.0H152.0V34.0ZM-373.0 -273.0 -401.0 -303.0H-5.0V-273.0ZM-10.0 -273.0V-280.0C-135.0 -367.0 -419.0 -431.0 -628.0 -455.0C-620.0 -461.0 -613.0 -473.0 -611.0 -483.0C-402.0 -455.0 -112.0 -390.0 22.0 -288.0L4.0 -273.0H-3.0ZM-406.0 -347.0 -423.0 -368.0C-306.0 -444.0 -48.0 -514.0 219.0 -540.0C224.0 -531.0 231.0 -518.0 236.0 -512.0C-33.0 -490.0 -296.0 -423.0 -406.0 -347.0ZM-437.0 4.0V-155.0H-411.0V4.0ZM-715.0 -201.0V-228.0H-614.0V-201.0ZM-559.0 -75.0 -482.0 -94.0 -268.0 -110.0 -343.0 -90.0ZM-493.0 -228.0 10.0 -204.0 -334.0 -338.0 -836.0 -363.0ZM-580.0 -19.0V-139.0H-253.0V-19.0ZM-526.0 -198.0C-508.0 -217.0 -488.0 -243.0 -479.0 -264.0L-454.0 -253.0C-463.0 -234.0 -483.0 -206.0 -503.0 -188.0ZM-336.0 -640.0C-239.0 -665.0 -115.0 -700.0 -47.0 -725.0L-33.0 -690.0C-102.0 -665.0 -225.0 -629.0 -324.0 -610.0ZM-629.0 -203.0 -625.0 -233.0C-519.0 -224.0 -371.0 -210.0 -223.0 -196.0V-169.0C-374.0 -183.0 -528.0 -196.0 -629.0 -203.0Z"/></g>
<g fill="green" transform="translate(400 100) scale(0.1 -0.1)"><path d="M0.0 0.0V-333.0H128.0V0.0ZM-144.0 15.0V-66.0H162.0V15.0ZM-320.0 -295.0 -399.0 -372.0H33.0V-295.0ZM25.0 -295.0V-311.0C-95.0 -387.0 -390.0 -433.0 -611.0 -449.0C-595.0 -471.0 -572.0 -504.0 -565.0 -526.0C-324.0 -503.0 -10.0 -453.0 144.0 -349.0L65.0 -291.0L49.0 -295.0ZM-371.0 -395.0 -430.0 -445.0C-298.0 -518.0 -23.0 -574.0 246.0 -588.0C257.0 -563.0 282.0 -522.0 302.0 -501.0C27.0 -493.0 -251.0 -453.0 -371.0 -395.0ZM-486.0 3.0V-181.0H-359.0V3.0ZM-728.0 -219.0V-267.0H-595.0V-219.0ZM-528.0 -97.0 -482.0 -135.0 -229.0 -143.0 -275.0 -104.0ZM-344.0 -314.0 -52.0 -246.0 -432.0 -294.0 -723.0 -362.0ZM-565.0 -17.0V-132.0H-189.0V-17.0ZM-531.0 -223.0C-517.0 -239.0 -500.0 -262.0 -493.0 -275.0L-400.0 -247.0C-409.0 -233.0 -427.0 -214.0 -440.0 -200.0ZM-368.0 -678.0C-267.0 -700.0 -132.0 -738.0 -67.0 -764.0L8.0 -681.0C-67.0 -652.0 -203.0 -615.0 -302.0 -602.0ZM-611.0 -182.0 -604.0 -243.0C-491.0 -238.0 -329.0 -226.0 -174.0 -214.0L-173.0 -158.0C-335.0 -168.0 -502.0 -178.0 -611.0 -182.0Z"/></g>
<g fill="green" transform="translate(500 100) scale(0.1 -0.1)"><path d="M0.0 0.0V-424.0H40.0V0.0ZM-289.0 4.0V-36.0H323.0V4.0ZM-280.0 -208.0V-250.0H235.0V-208.0ZM225.0 -208.0V-218.0C132.0 -438.0 -109.0 -577.0 -336.0 -639.0C-326.0 -648.0 -314.0 -663.0 -309.0 -675.0C-77.0 -606.0 167.0 -464.0 268.0 -221.0L243.0 -206.0L234.0 -208.0ZM-201.0 -331.0 -235.0 -345.0C-134.0 -556.0 81.0 -719.0 326.0 -788.0C334.0 -776.0 345.0 -760.0 354.0 -751.0C109.0 -691.0 -105.0 -535.0 -201.0 -331.0ZM-611.0 11.0V-257.0H-571.0V11.0ZM-939.0 -215.0V-255.0H-584.0V-215.0ZM-804.0 -216.0 -677.0 -243.0 -361.0 -269.0 -486.0 -242.0ZM-733.0 -446.0 -251.0 -436.0 -429.0 -610.0 -910.0 -620.0ZM-818.0 -220.0V-438.0H-351.0V-220.0ZM-765.0 -555.0C-729.0 -597.0 -692.0 -654.0 -676.0 -697.0L-639.0 -679.0C-656.0 -639.0 -694.0 -581.0 -731.0 -541.0ZM-476.0 -671.0C-476.0 -721.0 -487.0 -796.0 -498.0 -844.0L-464.0 -846.0C-451.0 -801.0 -444.0 -732.0 -438.0 -675.0ZM-901.0 -637.0 -895.0 -680.0C-739.0 -661.0 -513.0 -632.0 -293.0 -605.0L-294.0 -566.0C-522.0 -593.0 -753.0 -622.0 -901.0 -637.0Z"/></g>
<g fill="green" transform="translate(600 100) scale(0.1 -0.1)"><path d="M0.0 0.0V-484.0H189.0V0.0ZM-217.0 25.0V-120.0H391.0V25.0ZM-225.0 -197.0 -226.0 -341.0H247.0V-197.0ZM223.0 -197.0V-222.0C158.0 -417.0 -25.0 -531.0 -258.0 -580.0C-226.0 -613.0 -179.0 -679.0 -162.0 -719.0C99.0 -650.0 306.0 -504.0 397.0 -236.0L287.0 -192.0L257.0 -197.0ZM-64.0 -418.0 -209.0 -462.0C-98.0 -654.0 82.0 -788.0 328.0 -849.0C350.0 -803.0 398.0 -736.0 435.0 -701.0C206.0 -659.0 24.0 -559.0 -64.0 -418.0ZM-664.0 5.0V-297.0H-476.0V5.0ZM-944.0 -221.0V-320.0H-546.0V-221.0ZM-757.0 -236.0 -682.0 -312.0 -316.0 -324.0 -392.0 -247.0ZM-576.0 -550.0 -311.0 -520.0 -513.0 -571.0 -778.0 -601.0ZM-805.0 -225.0V-455.0H-261.0V-225.0ZM-775.0 -597.0C-749.0 -634.0 -716.0 -686.0 -704.0 -718.0L-556.0 -665.0C-572.0 -634.0 -605.0 -587.0 -632.0 -552.0ZM-500.0 -679.0C-502.0 -725.0 -511.0 -787.0 -523.0 -829.0L-369.0 -837.0C-355.0 -798.0 -344.0 -742.0 -330.0 -689.0ZM-874.0 -579.0 -856.0 -710.0C-687.0 -695.0 -454.0 -671.0 -233.0 -647.0L-236.0 -528.0C-468.0 -548.0 -713.0 -569.0 -874.0 -579.0Z"/></g>
<g fill="green" transform="translate(700 100) scale(0.1 -0.1)"><path d="M0.0 0.0V-385.0H30.0V0.0ZM-231.0 -177.0V-209.0H176.0V-177.0ZM-427.0 -599.0 -458.0 -632.0H13.0V-599.0ZM5.0 -599.0V-608.0C-132.0 -826.0 -462.0 -946.0 -754.0 -999.0C-747.0 -1006.0 -739.0 -1020.0 -735.0 -1030.0C-441.0 -972.0 -105.0 -851.0 41.0 -614.0L22.0 -599.0H13.0ZM-426.0 -477.0 -448.0 -497.0C-336.0 -664.0 -81.0 -800.0 235.0 -854.0C241.0 -845.0 250.0 -830.0 256.0 -823.0C-63.0 -776.0 -321.0 -640.0 -426.0 -477.0ZM-496.0 2.0V-260.0H-466.0V2.0ZM-768.0 -97.0V-128.0H-387.0V-97.0ZM-713.0 -144.0 -885.0 -193.0 -251.0 -159.0 -77.0 -110.0ZM-624.0 -227.0 -28.0 -197.0 -353.0 -396.0 -948.0 -426.0ZM-667.0 -281.0V-479.0H-298.0V-281.0ZM-611.0 -397.0C-605.0 -438.0 -608.0 -490.0 -614.0 -526.0L-577.0 -520.0C-573.0 -487.0 -571.0 -433.0 -580.0 -391.0ZM-341.0 -628.0C-263.0 -672.0 -168.0 -742.0 -117.0 -786.0L-104.0 -769.0C-154.0 -724.0 -252.0 -660.0 -325.0 -614.0ZM-727.0 -671.0 -722.0 -704.0C-600.0 -689.0 -421.0 -666.0 -249.0 -643.0V-613.0C-429.0 -635.0 -611.0 -659.0 -727.0 -671.0Z"/></g>
<g fill="green" transform="translate(800 100) scale(0.1 -0.1)"><path d="M0.0 0.0V-426.0H152.0V0.0ZM-153.0 -168.0V-293.0H216.0V-168.0ZM-353.0 -590.0 -442.0 -706.0H76.0V-590.0ZM41.0 -590.0V-617.0C-89.0 -803.0 -421.0 -929.0 -699.0 -986.0C-672.0 -1013.0 -631.0 -1067.0 -617.0 -1097.0C-322.0 -1029.0 35.0 -887.0 201.0 -656.0L95.0 -584.0L72.0 -590.0ZM-363.0 -552.0 -457.0 -603.0C-325.0 -755.0 -48.0 -864.0 274.0 -907.0C291.0 -871.0 328.0 -813.0 357.0 -784.0C37.0 -756.0 -244.0 -669.0 -363.0 -552.0ZM-508.0 1.0V-274.0H-359.0V1.0ZM-736.0 -66.0V-170.0H-335.0V-66.0ZM-709.0 -95.0 -811.0 -236.0 -122.0 -222.0 -20.0 -79.0ZM-409.0 -315.0 -85.0 -236.0 -427.0 -302.0 -751.0 -381.0ZM-628.0 -266.0V-491.0H-199.0V-266.0ZM-590.0 -382.0C-594.0 -412.0 -606.0 -452.0 -617.0 -475.0L-474.0 -461.0C-465.0 -438.0 -454.0 -402.0 -453.0 -374.0ZM-357.0 -653.0C-261.0 -692.0 -133.0 -756.0 -73.0 -802.0L-4.0 -754.0C-71.0 -708.0 -197.0 -651.0 -277.0 -608.0ZM-679.0 -626.0 -662.0 -743.0C-532.0 -729.0 -353.0 -706.0 -184.0 -684.0L-187.0 -574.0C-365.0 -595.0 -554.0 -616.0 -679.0 -626.0Z"/></g>
<g fill="green" transform="translate(900 100) scale(0.1 -0.1)"><path d="M0.0 0.0V-310.0H33.0V0.0ZM-218.0 -86.0V-120.0H204.0V-86.0ZM-382.0 -405.0 -410.0 -439.0H47.0V-405.0ZM37.0 -405.0V-414.0C-104.0 -526.0 -415.0 -625.0 -641.0 -669.0C-632.0 -677.0 -623.0 -689.0 -619.0 -700.0C-395.0 -654.0 -76.0 -553.0 75.0 -423.0L53.0 -404.0L46.0 -405.0ZM-428.0 -635.0 -449.0 -659.0C-311.0 -775.0 -17.0 -885.0 279.0 -930.0C284.0 -919.0 293.0 -905.0 299.0 -898.0C1.0 -858.0 -298.0 -751.0 -428.0 -635.0ZM-498.0 -5.0V-199.0H-467.0V-5.0ZM-766.0 -226.0V-260.0H-494.0V-226.0ZM-640.0 -218.0 -378.0 -224.0 -317.0 -277.0 -578.0 -271.0ZM-597.0 -468.0 -345.0 -475.0 -347.0 -557.0 -598.0 -550.0ZM-676.0 -158.0V-306.0H-286.0V-158.0ZM-619.0 -490.0C-577.0 -522.0 -528.0 -568.0 -505.0 -603.0L-477.0 -584.0C-500.0 -552.0 -548.0 -504.0 -592.0 -475.0ZM-413.0 -1108.0C-303.0 -1142.0 -160.0 -1191.0 -82.0 -1222.0L-60.0 -1174.0C-140.0 -1141.0 -281.0 -1091.0 -398.0 -1065.0ZM-722.0 -403.0 -717.0 -438.0C-593.0 -428.0 -420.0 -412.0 -247.0 -398.0L-248.0 -365.0C-424.0 -380.0 -604.0 -396.0 -722.0 -403.0Z"/></g>
<g fill="green" transform="translate(1000 100) scale(0.1 -0.1)"><path d="M0.0 0.0V-365.0H155.0V0.0ZM-148.0 -83.0V-179.0H237.0V-83.0ZM-312.0 -417.0 -389.0 -512.0H92.0V-417.0ZM68.0 -417.0V-438.0C-59.0 -554.0 -374.0 -627.0 -624.0 -658.0C-602.0 -681.0 -571.0 -723.0 -559.0 -749.0C-291.0 -711.0 45.0 -628.0 207.0 -477.0L116.0 -413.0L95.0 -417.0ZM-376.0 -672.0 -456.0 -735.0C-299.0 -851.0 13.0 -951.0 312.0 -992.0C328.0 -961.0 361.0 -911.0 387.0 -886.0C79.0 -855.0 -236.0 -771.0 -376.0 -672.0ZM-530.0 -1.0V-226.0H-380.0V-1.0ZM-751.0 -219.0V-296.0H-446.0V-219.0ZM-536.0 -250.0 -380.0 -273.0 -320.0 -296.0 -476.0 -273.0ZM-495.0 -531.0 -363.0 -546.0 -382.0 -576.0 -513.0 -561.0ZM-653.0 -160.0V-331.0H-201.0V-160.0ZM-606.0 -558.0C-573.0 -579.0 -534.0 -610.0 -517.0 -630.0L-424.0 -577.0C-445.0 -556.0 -486.0 -529.0 -518.0 -511.0ZM-442.0 -1170.0C-332.0 -1201.0 -186.0 -1252.0 -115.0 -1283.0L-6.0 -1181.0C-88.0 -1146.0 -235.0 -1096.0 -349.0 -1080.0ZM-693.0 -390.0 -687.0 -468.0C-553.0 -464.0 -361.0 -454.0 -176.0 -443.0L-175.0 -369.0C-365.0 -378.0 -563.0 -387.0 -693.0 -390.0Z"/></g>
<g fill="green" transform="translate(1100 100) scale(0.1 -0.1)"><path d="M0.0 0.0V-175.0H44.0V0.0ZM-263.0 -137.0V-182.0H286.0V-137.0ZM-458.0 -471.0 -489.0 -519.0H81.0V-471.0ZM68.0 -471.0V-482.0C-89.0 -565.0 -473.0 -627.0 -736.0 -633.0C-727.0 -644.0 -716.0 -663.0 -713.0 -678.0C-441.0 -662.0 -52.0 -600.0 118.0 -491.0L88.0 -470.0L79.0 -471.0ZM-464.0 -589.0 -494.0 -620.0C-339.0 -688.0 17.0 -742.0 366.0 -758.0C372.0 -744.0 383.0 -725.0 392.0 -714.0C40.0 -705.0 -316.0 -657.0 -464.0 -589.0ZM-641.0 5.0V-160.0H-596.0V5.0ZM-963.0 -85.0V-130.0H-361.0V-85.0ZM-898.0 -160.0 -795.0 -194.0 -362.0 -215.0 -464.0 -180.0ZM-835.0 -333.0 -474.0 -341.0 -417.0 -359.0 -776.0 -352.0ZM-889.0 -197.0V-318.0H-368.0V-197.0ZM-800.0 -380.0C-778.0 -399.0 -752.0 -426.0 -738.0 -447.0L-699.0 -429.0C-714.0 -410.0 -741.0 -382.0 -765.0 -366.0ZM-510.0 -882.0C-404.0 -897.0 -271.0 -922.0 -197.0 -940.0L-172.0 -907.0C-246.0 -889.0 -380.0 -868.0 -485.0 -854.0ZM-972.0 -361.0 -965.0 -408.0C-797.0 -396.0 -558.0 -376.0 -322.0 -356.0L-321.0 -314.0C-564.0 -333.0 -812.0 -350.0 -972.0 -361.0Z"/></g>
<g fill="green" transform="translate(1200 100) scale(0.1 -0.1)"><path d="M0.0 0.0V-219.0H197.0V0.0ZM-187.0 -124.0V-236.0H339.0V-124.0ZM-362.0 -463.0 -450.0 -564.0H167.0V-463.0ZM139.0 -463.0V-479.0C-16.0 -546.0 -404.0 -586.0 -711.0 -585.0C-690.0 -622.0 -672.0 -671.0 -664.0 -707.0C-304.0 -689.0 109.0 -657.0 309.0 -529.0L198.0 -458.0L172.0 -463.0ZM-365.0 -586.0 -469.0 -652.0C-288.0 -744.0 76.0 -796.0 441.0 -799.0C458.0 -758.0 496.0 -695.0 528.0 -661.0C162.0 -669.0 -204.0 -645.0 -365.0 -586.0ZM-671.0 4.0V-158.0H-476.0V4.0ZM-935.0 -82.0V-153.0H-276.0V-82.0ZM-851.0 -169.0 -790.0 -208.0 -288.0 -218.0 -350.0 -177.0ZM-720.0 -331.0 -472.0 -349.0 -416.0 -369.0 -664.0 -351.0ZM-871.0 -189.0V-318.0H-253.0V-189.0ZM-796.0 -418.0C-778.0 -437.0 -753.0 -465.0 -740.0 -482.0L-601.0 -445.0C-616.0 -429.0 -643.0 -406.0 -660.0 -391.0ZM-534.0 -936.0C-420.0 -943.0 -267.0 -965.0 -189.0 -986.0L-61.0 -892.0C-149.0 -870.0 -305.0 -852.0 -414.0 -850.0ZM-919.0 -324.0 -917.0 -417.0C-738.0 -413.0 -484.0 -403.0 -236.0 -390.0L-231.0 -307.0C-488.0 -314.0 -748.0 -321.0 -919.0 -324.0Z"/></g>
<g fill="red" transform="translate(100 200) scale(0.1 -0.1)"><path d="M0.0 0.0V-220.0H29.0V0.0ZM-193.0 -85.0V-114.0H231.0V-85.0ZM-180.0 -219.0V-249.0H165.0V-219.0ZM157.0 -219.0V-226.0C99.0 -358.0 -63.0 -434.0 -213.0 -463.0C-207.0 -470.0 -199.0 -482.0 -196.0 -490.0C-39.0 -454.0 124.0 -376.0 188.0 -227.0L170.0 -217.0L163.0 -219.0ZM-117.0 -229.0 -142.0 -239.0C-78.0 -362.0 67.0 -451.0 231.0 -487.0C236.0 -478.0 244.0 -467.0 251.0 -460.0C87.0 -430.0 -55.0 -347.0 -117.0 -229.0ZM-427.0 0.0V-159.0H-397.0V0.0ZM-633.0 -54.0V-83.0H-205.0V-54.0ZM-608.0 -143.0V-172.0H-224.0V-143.0ZM-557.0 -248.0H-274.0V-316.0H-557.0ZM-586.0 -218.0V-346.0H-244.0V-218.0ZM-543.0 -362.0C-527.0 -390.0 -514.0 -426.0 -508.0 -451.0L-480.0 -441.0C-486.0 -417.0 -501.0 -381.0 -518.0 -355.0ZM-325.0 -351.0C-334.0 -378.0 -355.0 -421.0 -371.0 -449.0L-347.0 -459.0C-330.0 -434.0 -313.0 -398.0 -296.0 -363.0ZM-650.0 -477.0 -644.0 -507.0C-531.0 -493.0 -366.0 -470.0 -206.0 -448.0V-420.0C-373.0 -442.0 -542.0 -464.0 -650.0 -477.0Z"/></g>
<g fill="black" opacity=".8" transform="translate(100 200) scale(0.1 -0.1)"><path d="M0.0 0.0V-213.0H28.0V0.0ZM-193.0 -75.0V-105.0H236.0V-75.0ZM-187.0 -210.0V-242.0H172.0V-210.0ZM164.0 -210.0V-218.0C105.0 -362.0 -66.0 -442.0 -223.0 -472.0C-217.0 -478.0 -208.0 -490.0 -206.0 -499.0C-42.0 -463.0 129.0 -380.0 195.0 -218.0L176.0 -210.0H169.0ZM-116.0 -230.0 -140.0 -240.0C-77.0 -367.0 68.0 -456.0 234.0 -493.0C239.0 -486.0 247.0 -474.0 253.0 -467.0C88.0 -437.0 -54.0 -351.0 -116.0 -230.0ZM-425.0 9.0V-155.0H-396.0V9.0ZM-629.0 -48.0V-76.0H-205.0V-48.0ZM-603.0 -140.0 -604.0 -169.0 -229.0 -170.0 -224.0 -139.0ZM-556.0 -243.0 -275.0 -245.0 -276.0 -318.0 -555.0 -317.0ZM-583.0 -218.0V-349.0H-245.0V-218.0ZM-540.0 -366.0C-525.0 -391.0 -511.0 -424.0 -507.0 -448.0L-478.0 -438.0C-485.0 -415.0 -499.0 -382.0 -515.0 -358.0ZM-324.0 -351.0C-334.0 -377.0 -357.0 -419.0 -370.0 -446.0L-348.0 -457.0C-331.0 -433.0 -313.0 -397.0 -297.0 -363.0ZM-647.0 -473.0 -643.0 -503.0C-529.0 -490.0 -364.0 -470.0 -204.0 -450.0V-423.0C-371.0 -442.0 -540.0 -461.0 -647.0 -473.0Z"/></g>
<g fill="red" transform="translate(200 200) scale(0.1 -0.1)"><path d="M0.0 0.0V-252.0H132.0V0.0ZM-144.0 -59.0V-157.0H289.0V-59.0ZM-142.0 -195.0V-288.0H201.0V-195.0ZM182.0 -195.0V-210.0C135.0 -324.0 3.0 -391.0 -157.0 -416.0C-137.0 -440.0 -110.0 -483.0 -99.0 -511.0C88.0 -471.0 235.0 -389.0 301.0 -221.0L226.0 -191.0L205.0 -195.0ZM-12.0 -268.0 -115.0 -298.0C-40.0 -414.0 83.0 -488.0 250.0 -519.0C266.0 -488.0 298.0 -441.0 324.0 -417.0C171.0 -398.0 47.0 -347.0 -12.0 -268.0ZM-447.0 0.0V-171.0H-312.0V0.0ZM-615.0 -45.0V-115.0H-160.0V-45.0ZM-592.0 -132.0V-197.0H-164.0V-132.0ZM-458.0 -269.0H-295.0V-297.0H-458.0ZM-571.0 -212.0V-355.0H-175.0V-212.0ZM-544.0 -379.0C-533.0 -403.0 -519.0 -436.0 -514.0 -456.0L-405.0 -425.0C-412.0 -406.0 -426.0 -376.0 -438.0 -354.0ZM-328.0 -353.0C-334.0 -375.0 -347.0 -406.0 -357.0 -430.0L-250.0 -447.0C-238.0 -427.0 -224.0 -402.0 -205.0 -369.0ZM-614.0 -429.0 -606.0 -521.0C-484.0 -511.0 -317.0 -497.0 -157.0 -481.0L-158.0 -400.0C-325.0 -412.0 -499.0 -423.0 -614.0 -429.0Z"/></g>
<g fill="black" opacity=".8" transform="translate(200 200) scale(0.1 -0.1)"><path d="M0.0 0.0V-237.0H134.0V0.0ZM-142.0 -48.0V-149.0H295.0V-48.0ZM-141.0 -187.0 -140.0 -282.0H199.0V-187.0ZM176.0 -187.0V-202.0C131.0 -322.0 -1.0 -394.0 -166.0 -418.0C-144.0 -444.0 -118.0 -490.0 -108.0 -519.0C86.0 -476.0 234.0 -390.0 298.0 -212.0L220.0 -185.0L200.0 -187.0ZM-8.0 -266.0 -111.0 -294.0C-39.0 -417.0 81.0 -492.0 254.0 -522.0C268.0 -488.0 303.0 -442.0 329.0 -416.0C170.0 -398.0 51.0 -349.0 -8.0 -266.0ZM-445.0 5.0V-165.0H-312.0V5.0ZM-612.0 -39.0V-109.0H-158.0V-39.0ZM-591.0 -131.0 -592.0 -196.0 -163.0 -198.0 -164.0 -130.0ZM-461.0 -272.0H-291.0V-296.0H-460.0ZM-572.0 -215.0V-358.0H-173.0V-215.0ZM-543.0 -378.0C-532.0 -402.0 -520.0 -436.0 -516.0 -456.0L-404.0 -430.0C-410.0 -411.0 -423.0 -381.0 -434.0 -358.0ZM-332.0 -351.0C-339.0 -374.0 -350.0 -403.0 -359.0 -428.0L-257.0 -445.0C-245.0 -424.0 -232.0 -399.0 -213.0 -368.0ZM-615.0 -425.0 -605.0 -520.0C-483.0 -510.0 -317.0 -495.0 -159.0 -479.0V-394.0C-326.0 -406.0 -501.0 -420.0 -615.0 -425.0Z"/></g>
<g fill="red" transform="translate(300 200) scale(0.1 -0.1)"><path d="M0.0 0.0V-406.0H29.0V0.0ZM-220.0 -174.0V-204.0H240.0V-174.0ZM-203.0 -388.0V-417.0H190.0V-388.0ZM180.0 -388.0V-396.0C111.0 -651.0 -70.0 -802.0 -275.0 -878.0C-268.0 -884.0 -259.0 -895.0 -254.0 -902.0C-47.0 -822.0 137.0 -668.0 212.0 -397.0L194.0 -386.0L187.0 -388.0ZM-134.0 -403.0 -160.0 -410.0C-95.0 -641.0 41.0 -821.0 234.0 -899.0C240.0 -891.0 249.0 -880.0 256.0 -874.0C63.0 -803.0 -72.0 -625.0 -134.0 -403.0ZM-447.0 0.0V-269.0H-418.0V0.0ZM-650.0 -106.0V-135.0H-213.0V-106.0ZM-630.0 -254.0V-283.0H-237.0V-254.0ZM-576.0 -404.0H-292.0V-560.0H-576.0ZM-605.0 -374.0V-590.0H-263.0V-374.0ZM-573.0 -633.0C-545.0 -685.0 -523.0 -752.0 -516.0 -798.0L-485.0 -788.0C-492.0 -744.0 -516.0 -676.0 -545.0 -625.0ZM-332.0 -618.0C-346.0 -673.0 -373.0 -757.0 -394.0 -808.0L-369.0 -817.0C-346.0 -767.0 -323.0 -690.0 -303.0 -628.0ZM-662.0 -840.0 -656.0 -870.0C-542.0 -852.0 -372.0 -826.0 -209.0 -801.0L-210.0 -772.0C-381.0 -798.0 -553.0 -825.0 -662.0 -840.0Z"/></g>
<g fill="black" opacity=".8" transform="translate(300 200) scale(0.1 -0.1)"><path d="M0.0 0.0V-405.0H28.0V0.0ZM-221.0 -172.0V-202.0H241.0V-172.0ZM-205.0 -386.0 -204.0 -416.0H191.0V-386.0ZM182.0 -386.0V-394.0C113.0 -652.0 -70.0 -803.0 -277.0 -879.0C-270.0 -886.0 -261.0 -896.0 -256.0 -904.0C-47.0 -825.0 139.0 -669.0 213.0 -395.0L196.0 -385.0L188.0 -386.0ZM-134.0 -403.0 -159.0 -410.0C-94.0 -642.0 42.0 -822.0 235.0 -900.0C240.0 -893.0 250.0 -881.0 256.0 -875.0C64.0 -804.0 -71.0 -625.0 -134.0 -403.0ZM-446.0 2.0V-268.0H-418.0V2.0ZM-649.0 -104.0V-133.0H-213.0V-104.0ZM-629.0 -253.0V-283.0L-239.0 -284.0L-236.0 -254.0ZM-577.0 -403.0 -292.0 -404.0 -293.0 -561.0 -577.0 -560.0ZM-604.0 -374.0V-590.0H-263.0V-374.0ZM-572.0 -634.0C-545.0 -684.0 -522.0 -751.0 -517.0 -798.0L-484.0 -787.0C-492.0 -743.0 -515.0 -675.0 -544.0 -625.0ZM-331.0 -618.0C-346.0 -672.0 -374.0 -757.0 -394.0 -807.0L-369.0 -816.0C-347.0 -767.0 -323.0 -690.0 -303.0 -628.0ZM-661.0 -838.0 -656.0 -869.0C-541.0 -851.0 -371.0 -825.0 -208.0 -801.0L-210.0 -773.0C-380.0 -797.0 -552.0 -825.0 -661.0 -838.0Z"/></g>
<g fill="red" transform="translate(400 200) scale(0.1 -0.1)"><path d="M0.0 0.0V-432.0H145.0V0.0ZM-148.0 -134.0V-266.0H312.0V-134.0ZM-154.0 -358.0V-487.0H211.0V-358.0ZM172.0 -358.0V-385.0C128.0 -616.0 -4.0 -764.0 -194.0 -837.0C-163.0 -861.0 -113.0 -921.0 -94.0 -954.0C106.0 -866.0 257.0 -682.0 318.0 -391.0L225.0 -353.0L200.0 -358.0ZM-22.0 -485.0 -149.0 -519.0C-74.0 -723.0 43.0 -874.0 236.0 -952.0C257.0 -914.0 300.0 -857.0 332.0 -828.0C155.0 -770.0 36.0 -642.0 -22.0 -485.0ZM-451.0 -1.0V-294.0H-309.0V-1.0ZM-614.0 -66.0V-183.0H-163.0V-66.0ZM-583.0 -224.0V-340.0H-173.0V-224.0ZM-443.0 -479.0H-319.0V-522.0H-443.0ZM-575.0 -371.0V-630.0H-178.0V-371.0ZM-555.0 -654.0C-540.0 -691.0 -529.0 -741.0 -528.0 -773.0L-402.0 -736.0C-405.0 -704.0 -418.0 -656.0 -436.0 -621.0ZM-335.0 -622.0C-343.0 -673.0 -361.0 -742.0 -378.0 -788.0L-267.0 -816.0C-248.0 -774.0 -226.0 -712.0 -203.0 -650.0ZM-622.0 -789.0 -602.0 -920.0C-478.0 -903.0 -310.0 -880.0 -153.0 -857.0L-159.0 -736.0C-324.0 -757.0 -503.0 -778.0 -622.0 -789.0Z"/></g>
<g fill="black" opacity=".8" transform="translate(400 200) scale(0.1 -0.1)"><path d="M0.0 0.0V-429.0H145.0V0.0ZM-148.0 -132.0V-263.0H314.0V-132.0ZM-154.0 -356.0 -153.0 -486.0H210.0V-356.0ZM170.0 -356.0V-383.0C127.0 -616.0 -5.0 -765.0 -196.0 -838.0C-164.0 -862.0 -115.0 -923.0 -96.0 -955.0C105.0 -867.0 257.0 -682.0 318.0 -390.0L224.0 -353.0L198.0 -356.0ZM-22.0 -485.0 -148.0 -518.0C-73.0 -723.0 43.0 -875.0 237.0 -953.0C257.0 -914.0 301.0 -857.0 333.0 -828.0C154.0 -770.0 37.0 -643.0 -22.0 -485.0ZM-451.0 1.0V-293.0H-310.0V1.0ZM-613.0 -65.0V-182.0H-162.0V-65.0ZM-583.0 -224.0V-340.0H-172.0L-173.0 -223.0ZM-444.0 -480.0H-318.0V-522.0H-443.0ZM-575.0 -372.0V-630.0H-178.0V-372.0ZM-555.0 -653.0C-540.0 -691.0 -528.0 -741.0 -529.0 -773.0L-402.0 -736.0C-405.0 -705.0 -418.0 -658.0 -435.0 -622.0ZM-336.0 -621.0C-345.0 -673.0 -362.0 -742.0 -378.0 -788.0L-269.0 -816.0C-250.0 -773.0 -228.0 -711.0 -204.0 -650.0ZM-623.0 -788.0 -603.0 -919.0C-478.0 -903.0 -310.0 -880.0 -154.0 -857.0L-159.0 -734.0C-324.0 -755.0 -504.0 -778.0 -623.0 -788.0Z"/></g>
<g fill="red" transform="translate(500 200) scale(0.1 -0.1)"><path d="M0.0 0.0V-203.0H29.0V0.0ZM-182.0 -183.0V-212.0H166.0V-183.0ZM-365.0 -505.0 -394.0 -535.0H11.0V-505.0ZM1.0 -505.0V-512.0C-124.0 -623.0 -420.0 -695.0 -643.0 -718.0C-637.0 -725.0 -630.0 -738.0 -627.0 -747.0C-401.0 -718.0 -100.0 -646.0 35.0 -520.0L16.0 -504.0L9.0 -505.0ZM-388.0 -527.0 -407.0 -548.0C-295.0 -634.0 -41.0 -707.0 233.0 -734.0C237.0 -725.0 245.0 -712.0 251.0 -705.0C-26.0 -683.0 -283.0 -611.0 -388.0 -527.0ZM-430.0 -2.0V-165.0H-401.0V-2.0ZM-641.0 -59.0V-88.0H-213.0V-59.0ZM-616.0 -146.0V-175.0H-231.0V-146.0ZM-565.0 -253.0H-281.0V-312.0H-565.0ZM-594.0 -223.0V-342.0H-252.0V-223.0ZM-536.0 -350.0C-522.0 -375.0 -509.0 -408.0 -504.0 -431.0L-476.0 -421.0C-481.0 -400.0 -495.0 -366.0 -511.0 -342.0ZM-327.0 -730.0C-235.0 -752.0 -118.0 -788.0 -54.0 -811.0L-41.0 -782.0C-105.0 -758.0 -223.0 -725.0 -314.0 -705.0ZM-643.0 -428.0 -638.0 -459.0C-528.0 -449.0 -371.0 -434.0 -216.0 -419.0V-391.0C-376.0 -406.0 -538.0 -420.0 -643.0 -428.0Z"/></g>
<g fill="black" opacity=".8" transform="translate(500 200) scale(0.1 -0.1)"><path d="M0.0 0.0V-203.0H28.0V0.0ZM-182.0 -183.0V-213.0H166.0V-183.0ZM-365.0 -504.0 -394.0 -536.0H10.0V-504.0ZM1.0 -504.0V-513.0C-124.0 -623.0 -420.0 -694.0 -643.0 -718.0C-637.0 -725.0 -629.0 -737.0 -627.0 -747.0C-401.0 -719.0 -99.0 -646.0 35.0 -519.0L16.0 -505.0L9.0 -504.0ZM-389.0 -527.0 -407.0 -548.0C-295.0 -634.0 -40.0 -706.0 233.0 -733.0C237.0 -725.0 245.0 -712.0 250.0 -705.0C-25.0 -683.0 -282.0 -611.0 -389.0 -527.0ZM-429.0 -2.0V-164.0H-401.0V-2.0ZM-642.0 -59.0V-88.0H-213.0V-59.0ZM-617.0 -146.0 -616.0 -175.0 -232.0 -176.0 -230.0 -146.0ZM-566.0 -253.0 -280.0 -254.0 -282.0 -312.0H-566.0ZM-594.0 -224.0V-342.0H-252.0V-224.0ZM-536.0 -350.0C-523.0 -375.0 -509.0 -408.0 -505.0 -432.0L-476.0 -422.0C-482.0 -400.0 -495.0 -365.0 -511.0 -342.0ZM-327.0 -730.0C-235.0 -752.0 -119.0 -788.0 -54.0 -811.0L-41.0 -782.0C-106.0 -758.0 -223.0 -725.0 -315.0 -705.0ZM-642.0 -428.0 -638.0 -458.0C-528.0 -449.0 -371.0 -434.0 -216.0 -419.0V-391.0C-376.0 -406.0 -538.0 -420.0 -642.0 -428.0Z"/></g>
<g fill="red" transform="translate(600 200) scale(0.1 -0.1)"><path d="M0.0 0.0V-230.0H134.0V0.0ZM-118.0 -171.0V-259.0H202.0V-171.0ZM-291.0 -497.0 -374.0 -576.0H79.0V-497.0ZM49.0 -497.0V-514.0C-74.0 -611.0 -382.0 -678.0 -620.0 -701.0C-602.0 -725.0 -580.0 -763.0 -571.0 -788.0C-308.0 -754.0 19.0 -687.0 176.0 -553.0L92.0 -492.0L74.0 -497.0ZM-336.0 -543.0 -407.0 -594.0C-274.0 -686.0 3.0 -752.0 286.0 -771.0C300.0 -743.0 328.0 -697.0 351.0 -673.0C64.0 -663.0 -216.0 -613.0 -336.0 -543.0ZM-434.0 0.0V-164.0H-303.0V0.0ZM-604.0 -33.0V-106.0H-149.0V-33.0ZM-578.0 -126.0V-193.0H-159.0V-126.0ZM-453.0 -271.0H-284.0V-297.0H-453.0ZM-566.0 -213.0V-355.0H-164.0V-213.0ZM-516.0 -366.0C-509.0 -384.0 -503.0 -408.0 -501.0 -423.0L-399.0 -402.0C-402.0 -387.0 -410.0 -365.0 -418.0 -350.0ZM-340.0 -773.0C-237.0 -790.0 -99.0 -824.0 -30.0 -850.0L42.0 -775.0C-36.0 -748.0 -175.0 -718.0 -273.0 -705.0ZM-598.0 -404.0 -592.0 -483.0C-475.0 -477.0 -310.0 -466.0 -151.0 -455.0L-150.0 -382.0C-315.0 -391.0 -485.0 -400.0 -598.0 -404.0Z"/></g>
<g fill="black" opacity=".8" transform="translate(600 200) scale(0.1 -0.1)"><path d="M0.0 0.0V-230.0H134.0V0.0ZM-118.0 -171.0V-259.0H202.0V-171.0ZM-292.0 -497.0 -374.0 -576.0H79.0V-497.0ZM49.0 -497.0V-514.0C-74.0 -611.0 -383.0 -678.0 -620.0 -701.0C-601.0 -725.0 -579.0 -763.0 -571.0 -787.0C-309.0 -754.0 20.0 -687.0 176.0 -553.0L92.0 -493.0L74.0 -497.0ZM-337.0 -543.0 -407.0 -594.0C-274.0 -686.0 3.0 -751.0 287.0 -771.0C299.0 -743.0 328.0 -697.0 351.0 -673.0C63.0 -663.0 -216.0 -613.0 -337.0 -543.0ZM-434.0 0.0V-164.0H-303.0V0.0ZM-604.0 -33.0V-106.0H-149.0V-33.0ZM-578.0 -126.0V-193.0L-158.0 -194.0L-160.0 -125.0ZM-453.0 -271.0H-284.0V-297.0L-452.0 -298.0ZM-566.0 -213.0V-354.0H-164.0V-213.0ZM-517.0 -366.0C-509.0 -383.0 -502.0 -408.0 -501.0 -423.0L-398.0 -402.0C-401.0 -386.0 -410.0 -365.0 -419.0 -350.0ZM-340.0 -773.0C-238.0 -790.0 -99.0 -824.0 -30.0 -850.0L42.0 -776.0C-37.0 -748.0 -176.0 -717.0 -273.0 -704.0ZM-598.0 -404.0 -592.0 -482.0C-475.0 -477.0 -310.0 -467.0 -151.0 -455.0L-149.0 -382.0C-315.0 -391.0 -486.0 -400.0 -598.0 -404.0Z"/></g>
<g fill="red" transform="translate(700 200) scale(0.1 -0.1)"><path d="M0.0 0.0V-177.0H29.0V0.0ZM-178.0 -287.0V-317.0H246.0V-287.0ZM-165.0 -431.0V-461.0H193.0V-431.0ZM180.0 -431.0V-438.0C121.0 -611.0 -52.0 -711.0 -216.0 -749.0C-211.0 -756.0 -203.0 -768.0 -199.0 -775.0C-27.0 -730.0 146.0 -628.0 212.0 -439.0L193.0 -429.0L187.0 -431.0ZM-95.0 -460.0 -120.0 -469.0C-60.0 -620.0 77.0 -728.0 245.0 -773.0C249.0 -766.0 258.0 -755.0 265.0 -748.0C97.0 -709.0 -36.0 -603.0 -95.0 -460.0ZM-405.0 0.0V-177.0H-375.0V0.0ZM-535.0 53.0V23.0H167.0V53.0ZM-625.0 -244.0V-274.0H-197.0V-244.0ZM-600.0 -340.0V-370.0H-216.0V-340.0ZM-578.0 -423.0V-562.0H-236.0V-423.0ZM-535.0 -582.0C-515.0 -617.0 -498.0 -663.0 -492.0 -693.0L-463.0 -683.0C-470.0 -654.0 -489.0 -608.0 -510.0 -574.0ZM-316.0 -568.0C-327.0 -597.0 -350.0 -645.0 -366.0 -673.0L-343.0 -684.0C-325.0 -657.0 -306.0 -617.0 -288.0 -580.0ZM-635.0 -718.0 -629.0 -748.0C-517.0 -734.0 -350.0 -714.0 -189.0 -694.0V-666.0C-358.0 -686.0 -528.0 -706.0 -635.0 -718.0Z"/></g>
<g fill="black" opacity=".8" transform="translate(700 200) scale(0.1 -0.1)"><path d="M0.0 0.0V-178.0H27.0V0.0ZM-178.0 -287.0V-318.0H246.0V-287.0ZM-165.0 -430.0V-462.0H193.0V-430.0ZM180.0 -430.0V-439.0C121.0 -611.0 -52.0 -710.0 -215.0 -749.0C-211.0 -756.0 -202.0 -767.0 -198.0 -775.0C-27.0 -730.0 147.0 -629.0 212.0 -438.0L193.0 -430.0H186.0ZM-95.0 -459.0 -119.0 -469.0C-59.0 -619.0 78.0 -727.0 245.0 -772.0C249.0 -766.0 258.0 -754.0 263.0 -748.0C98.0 -708.0 -35.0 -602.0 -95.0 -459.0ZM-404.0 -0.0V-176.0H-375.0V-0.0ZM-535.0 54.0V24.0H167.0V54.0ZM-626.0 -244.0 -625.0 -274.0 -198.0 -276.0 -196.0 -245.0ZM-601.0 -340.0 -600.0 -371.0 -217.0 -370.0V-340.0ZM-578.0 -424.0V-561.0H-236.0V-424.0ZM-536.0 -582.0C-516.0 -616.0 -498.0 -663.0 -493.0 -694.0L-462.0 -684.0C-471.0 -654.0 -489.0 -607.0 -510.0 -574.0ZM-315.0 -568.0C-327.0 -597.0 -352.0 -645.0 -366.0 -672.0L-343.0 -684.0C-325.0 -657.0 -306.0 -617.0 -289.0 -580.0ZM-634.0 -718.0 -629.0 -747.0C-516.0 -734.0 -349.0 -714.0 -189.0 -694.0L-190.0 -666.0C-358.0 -685.0 -527.0 -706.0 -634.0 -718.0Z"/></g>
<g fill="red" transform="translate(800 200) scale(0.1 -0.1)"><path d="M0.0 0.0V-167.0H137.0V0.0ZM-112.0 -229.0V-336.0H330.0V-229.0ZM-101.0 -382.0V-480.0H242.0V-382.0ZM196.0 -382.0V-399.0C152.0 -551.0 19.0 -651.0 -155.0 -690.0C-131.0 -716.0 -102.0 -766.0 -88.0 -798.0C114.0 -739.0 262.0 -624.0 324.0 -408.0L243.0 -378.0L220.0 -382.0ZM26.0 -469.0 -89.0 -500.0C-15.0 -652.0 103.0 -752.0 283.0 -798.0C301.0 -763.0 338.0 -711.0 367.0 -684.0C203.0 -654.0 84.0 -577.0 26.0 -469.0ZM-381.0 0.0V-167.0H-247.0V0.0ZM-470.0 107.0V9.0H255.0V107.0ZM-581.0 -204.0V-287.0H-126.0V-204.0ZM-555.0 -311.0V-392.0H-136.0V-311.0ZM-553.0 -416.0V-600.0H-143.0V-416.0ZM-511.0 -601.0C-500.0 -628.0 -490.0 -664.0 -487.0 -688.0L-376.0 -661.0C-380.0 -638.0 -392.0 -603.0 -405.0 -579.0ZM-306.0 -580.0C-310.0 -603.0 -319.0 -636.0 -326.0 -662.0L-221.0 -681.0C-212.0 -660.0 -201.0 -634.0 -185.0 -600.0ZM-580.0 -674.0 -570.0 -785.0C-449.0 -774.0 -284.0 -761.0 -127.0 -746.0L-128.0 -645.0C-292.0 -657.0 -465.0 -668.0 -580.0 -674.0Z"/></g>
<g fill="black" opacity=".8" transform="translate(800 200) scale(0.1 -0.1)"><path d="M0.0 0.0V-168.0H137.0V0.0ZM-112.0 -229.0V-335.0H331.0V-229.0ZM-101.0 -382.0V-481.0H242.0V-382.0ZM196.0 -382.0V-400.0C153.0 -552.0 19.0 -652.0 -154.0 -690.0C-130.0 -715.0 -101.0 -766.0 -88.0 -797.0C113.0 -738.0 263.0 -624.0 324.0 -409.0L243.0 -380.0L220.0 -382.0ZM25.0 -469.0 -88.0 -500.0C-15.0 -652.0 104.0 -751.0 284.0 -799.0C300.0 -762.0 338.0 -711.0 367.0 -684.0C201.0 -653.0 84.0 -578.0 25.0 -469.0ZM-381.0 1.0V-168.0H-248.0V1.0ZM-469.0 107.0V9.0H255.0V107.0ZM-581.0 -204.0V-287.0L-125.0 -288.0L-127.0 -203.0ZM-555.0 -311.0V-392.0L-136.0 -393.0L-135.0 -312.0ZM-553.0 -416.0V-599.0H-143.0V-416.0ZM-512.0 -601.0C-500.0 -628.0 -489.0 -664.0 -487.0 -687.0L-375.0 -660.0C-380.0 -637.0 -392.0 -604.0 -406.0 -579.0ZM-306.0 -580.0C-312.0 -604.0 -320.0 -636.0 -325.0 -662.0L-222.0 -682.0C-213.0 -660.0 -202.0 -633.0 -185.0 -599.0ZM-580.0 -674.0 -571.0 -784.0C-449.0 -774.0 -284.0 -762.0 -127.0 -746.0V-645.0C-291.0 -656.0 -466.0 -669.0 -580.0 -674.0Z"/></g>
<g fill="red" transform="translate(900 200) scale(0.1 -0.1)"><path d="M0.0 0.0V-238.0H29.0V0.0ZM-199.0 -77.0V-106.0H243.0V-77.0ZM-198.0 -227.0V-257.0H186.0V-227.0ZM176.0 -227.0V-234.0C113.0 -412.0 -68.0 -512.0 -242.0 -549.0C-235.0 -556.0 -228.0 -568.0 -224.0 -575.0C-44.0 -531.0 138.0 -429.0 208.0 -235.0L189.0 -225.0L183.0 -227.0ZM-117.0 -260.0 -142.0 -269.0C-78.0 -421.0 64.0 -529.0 240.0 -574.0C244.0 -566.0 253.0 -555.0 260.0 -548.0C84.0 -510.0 -56.0 -405.0 -117.0 -260.0ZM-428.0 18.0V-173.0H-399.0V18.0ZM-627.0 -54.0V-83.0H-212.0V-54.0ZM-599.0 -157.0V-186.0H-236.0V-157.0ZM-555.0 -271.0H-280.0V-366.0H-555.0ZM-584.0 -241.0V-395.0H-251.0V-241.0ZM-542.0 -418.0C-525.0 -445.0 -510.0 -481.0 -505.0 -506.0L-478.0 -496.0C-484.0 -472.0 -501.0 -436.0 -518.0 -410.0ZM-327.0 -401.0C-338.0 -432.0 -361.0 -481.0 -377.0 -511.0L-355.0 -521.0C-337.0 -493.0 -317.0 -451.0 -299.0 -413.0ZM-648.0 -529.0 -643.0 -561.0C-531.0 -548.0 -365.0 -530.0 -203.0 -513.0V-484.0C-371.0 -502.0 -541.0 -519.0 -648.0 -529.0Z"/></g>
<g fill="black" opacity=".8" transform="translate(900 200) scale(0.1 -0.1)"><path d="M0.0 0.0V-248.0H28.0V0.0ZM-199.0 -89.0V-119.0H238.0V-89.0ZM-189.0 -236.0V-268.0H177.0V-236.0ZM168.0 -236.0V-243.0C108.0 -407.0 -65.0 -500.0 -230.0 -538.0C-223.0 -545.0 -214.0 -556.0 -212.0 -565.0C-40.0 -521.0 133.0 -425.0 200.0 -244.0L181.0 -235.0L174.0 -236.0ZM-118.0 -259.0 -143.0 -268.0C-79.0 -415.0 65.0 -520.0 235.0 -565.0C240.0 -558.0 248.0 -545.0 254.0 -539.0C85.0 -501.0 -56.0 -398.0 -118.0 -259.0ZM-429.0 7.0V-175.0H-400.0V7.0ZM-634.0 -61.0V-89.0H-213.0V-61.0ZM-607.0 -161.0 -603.0 -189.0 -232.0 -191.0 -233.0 -161.0ZM-559.0 -275.0 -278.0 -276.0 -280.0 -364.0 -559.0 -363.0ZM-588.0 -243.0V-389.0H-248.0V-243.0ZM-546.0 -414.0C-529.0 -443.0 -513.0 -483.0 -508.0 -511.0L-479.0 -501.0C-486.0 -474.0 -503.0 -434.0 -521.0 -406.0ZM-327.0 -401.0C-337.0 -433.0 -361.0 -482.0 -376.0 -513.0L-354.0 -523.0C-336.0 -495.0 -316.0 -452.0 -299.0 -413.0ZM-650.0 -534.0 -646.0 -565.0C-532.0 -551.0 -366.0 -530.0 -205.0 -509.0L-206.0 -482.0C-373.0 -502.0 -542.0 -523.0 -650.0 -534.0Z"/></g>
<g fill="red" transform="translate(1000 200) scale(0.1 -0.1)"><path d="M0.0 0.0V-252.0H137.0V0.0ZM-142.0 -47.0V-157.0H304.0V-47.0ZM-140.0 -203.0V-307.0H199.0V-203.0ZM168.0 -203.0V-219.0C125.0 -365.0 -4.0 -456.0 -180.0 -490.0C-156.0 -518.0 -126.0 -570.0 -114.0 -603.0C91.0 -548.0 237.0 -439.0 298.0 -228.0L216.0 -199.0L193.0 -203.0ZM-1.0 -301.0 -112.0 -327.0C-42.0 -474.0 71.0 -564.0 255.0 -602.0C272.0 -566.0 308.0 -514.0 336.0 -487.0C169.0 -465.0 54.0 -402.0 -1.0 -301.0ZM-445.0 8.0V-181.0H-312.0V8.0ZM-613.0 -41.0V-119.0H-162.0V-41.0ZM-587.0 -148.0V-222.0H-168.0V-148.0ZM-462.0 -316.0H-293.0V-338.0H-462.0ZM-575.0 -244.0V-410.0H-172.0V-244.0ZM-543.0 -428.0C-534.0 -455.0 -524.0 -492.0 -521.0 -515.0L-403.0 -493.0C-408.0 -471.0 -419.0 -436.0 -429.0 -411.0ZM-338.0 -401.0C-345.0 -427.0 -359.0 -464.0 -370.0 -491.0L-269.0 -510.0C-256.0 -487.0 -241.0 -457.0 -222.0 -421.0ZM-618.0 -484.0 -603.0 -588.0C-482.0 -575.0 -316.0 -557.0 -160.0 -539.0L-162.0 -443.0C-328.0 -459.0 -503.0 -475.0 -618.0 -484.0Z"/></g>
<g fill="black" opacity=".8" transform="translate(1000 200) scale(0.1 -0.1)"><path d="M0.0 0.0V-272.0H136.0V0.0ZM-144.0 -60.0V-166.0H299.0V-60.0ZM-142.0 -212.0 -141.0 -313.0H202.0V-212.0ZM175.0 -212.0V-230.0C131.0 -369.0 0.0 -454.0 -168.0 -487.0C-145.0 -512.0 -114.0 -561.0 -102.0 -591.0C92.0 -540.0 239.0 -436.0 303.0 -239.0L222.0 -210.0L200.0 -212.0ZM-9.0 -304.0 -116.0 -332.0C-44.0 -470.0 75.0 -559.0 251.0 -598.0C266.0 -563.0 302.0 -515.0 329.0 -488.0C168.0 -464.0 50.0 -401.0 -9.0 -304.0ZM-448.0 4.0V-188.0H-313.0V4.0ZM-615.0 -48.0V-125.0H-165.0V-48.0ZM-588.0 -149.0 -586.0 -222.0 -168.0 -224.0 -171.0 -149.0ZM-458.0 -312.0 -297.0 -313.0 -298.0 -340.0H-458.0ZM-574.0 -241.0V-404.0H-175.0V-241.0ZM-546.0 -429.0C-535.0 -455.0 -521.0 -491.0 -518.0 -514.0L-404.0 -486.0C-409.0 -464.0 -423.0 -431.0 -436.0 -406.0ZM-334.0 -402.0C-342.0 -430.0 -355.0 -467.0 -366.0 -495.0L-262.0 -514.0C-248.0 -489.0 -232.0 -457.0 -212.0 -421.0ZM-618.0 -487.0 -605.0 -588.0C-484.0 -577.0 -316.0 -560.0 -158.0 -543.0L-159.0 -451.0C-326.0 -465.0 -503.0 -480.0 -618.0 -487.0Z"/></g>
<g fill="red" transform="translate(1100 200) scale(0.1 -0.1)"><path d="M0.0 0.0V-194.0H30.0V0.0ZM-181.0 -78.0V-108.0H243.0V-78.0ZM-167.0 -177.0V-207.0H182.0V-177.0ZM172.0 -177.0V-184.0C104.0 -281.0 -62.0 -364.0 -188.0 -398.0C-181.0 -405.0 -173.0 -415.0 -169.0 -423.0C-40.0 -385.0 129.0 -300.0 204.0 -188.0L184.0 -175.0L179.0 -177.0ZM-137.0 -428.0 -161.0 -440.0C-78.0 -554.0 93.0 -646.0 257.0 -685.0C261.0 -676.0 269.0 -666.0 276.0 -659.0C112.0 -625.0 -58.0 -538.0 -137.0 -428.0ZM-414.0 0.0V-141.0H-385.0V0.0ZM-596.0 -129.0V-159.0H-211.0V-129.0ZM-545.0 -227.0H-261.0V-284.0H-545.0ZM-531.0 -447.0V-476.0H-257.0V-447.0ZM-574.0 -198.0V-313.0H-232.0V-198.0ZM-533.0 -509.0C-491.0 -535.0 -442.0 -573.0 -417.0 -601.0L-395.0 -583.0C-419.0 -556.0 -469.0 -518.0 -511.0 -495.0ZM-361.0 -783.0C-342.0 -808.0 -321.0 -845.0 -313.0 -868.0L-285.0 -854.0C-294.0 -832.0 -315.0 -797.0 -336.0 -772.0ZM-623.0 -400.0 -618.0 -431.0C-508.0 -420.0 -351.0 -405.0 -196.0 -391.0V-362.0C-356.0 -377.0 -518.0 -392.0 -623.0 -400.0Z"/></g>
<g fill="black" opacity=".8" transform="translate(1100 200) scale(0.1 -0.1)"><path d="M0.0 0.0V-194.0H29.0V0.0ZM-181.0 -78.0V-109.0H243.0V-78.0ZM-167.0 -176.0V-207.0H182.0V-176.0ZM172.0 -176.0V-184.0C104.0 -281.0 -62.0 -363.0 -188.0 -398.0C-181.0 -405.0 -172.0 -415.0 -169.0 -424.0C-39.0 -386.0 130.0 -300.0 204.0 -187.0L184.0 -175.0L179.0 -176.0ZM-138.0 -428.0 -160.0 -440.0C-77.0 -554.0 94.0 -645.0 257.0 -685.0C261.0 -677.0 269.0 -665.0 275.0 -659.0C113.0 -624.0 -57.0 -537.0 -138.0 -428.0ZM-414.0 -0.0V-140.0H-385.0V-0.0ZM-597.0 -128.0V-158.0H-211.0V-128.0ZM-546.0 -227.0H-261.0L-262.0 -285.0L-544.0 -284.0ZM-532.0 -446.0 -530.0 -477.0 -258.0 -476.0V-447.0ZM-574.0 -199.0V-312.0H-232.0V-199.0ZM-533.0 -510.0C-492.0 -535.0 -441.0 -573.0 -418.0 -602.0L-395.0 -583.0C-420.0 -556.0 -469.0 -517.0 -511.0 -495.0ZM-361.0 -783.0C-342.0 -808.0 -322.0 -845.0 -312.0 -867.0L-285.0 -854.0C-294.0 -832.0 -315.0 -797.0 -336.0 -771.0ZM-622.0 -400.0 -618.0 -430.0C-507.0 -420.0 -351.0 -405.0 -195.0 -391.0L-197.0 -362.0C-355.0 -377.0 -517.0 -392.0 -622.0 -400.0Z"/></g>
<g fill="red" transform="translate(1200 200) scale(0.1 -0.1)"><path d="M0.0 0.0V-221.0H134.0V0.0ZM-128.0 -50.0V-135.0H300.0V-50.0ZM-118.0 -164.0V-249.0H202.0V-164.0ZM179.0 -164.0V-177.0C131.0 -276.0 0.0 -332.0 -155.0 -352.0C-135.0 -374.0 -111.0 -414.0 -100.0 -441.0C79.0 -407.0 224.0 -337.0 290.0 -189.0L220.0 -161.0L200.0 -164.0ZM-41.0 -442.0 -137.0 -480.0C-45.0 -597.0 106.0 -684.0 274.0 -724.0C289.0 -695.0 321.0 -651.0 346.0 -628.0C185.0 -599.0 34.0 -530.0 -41.0 -442.0ZM-434.0 0.0V-158.0H-303.0V0.0ZM-578.0 -121.0V-186.0H-159.0V-121.0ZM-453.0 -261.0H-284.0V-286.0H-453.0ZM-512.0 -458.0V-533.0H-232.0V-458.0ZM-566.0 -206.0V-342.0H-164.0V-206.0ZM-530.0 -579.0C-495.0 -599.0 -451.0 -629.0 -430.0 -649.0L-352.0 -597.0C-376.0 -576.0 -422.0 -548.0 -456.0 -531.0ZM-373.0 -814.0C-361.0 -836.0 -349.0 -866.0 -346.0 -885.0L-220.0 -861.0C-225.0 -843.0 -238.0 -815.0 -252.0 -796.0ZM-598.0 -377.0 -593.0 -453.0C-473.0 -448.0 -304.0 -441.0 -141.0 -432.0L-140.0 -363.0C-308.0 -369.0 -483.0 -375.0 -598.0 -377.0Z"/></g>
<g fill="black" opacity=".8" transform="translate(1200 200) scale(0.1 -0.1)"><path d="M0.0 0.0V-221.0H134.0V0.0ZM-128.0 -49.0V-134.0H301.0V-49.0ZM-119.0 -164.0 -117.0 -249.0H202.0V-164.0ZM179.0 -164.0V-178.0C131.0 -277.0 -1.0 -333.0 -155.0 -352.0C-135.0 -374.0 -110.0 -414.0 -99.0 -440.0C78.0 -406.0 224.0 -336.0 290.0 -189.0L220.0 -162.0L200.0 -164.0ZM-42.0 -442.0 -137.0 -481.0C-45.0 -597.0 106.0 -684.0 274.0 -725.0C289.0 -694.0 322.0 -651.0 346.0 -628.0C184.0 -598.0 34.0 -531.0 -42.0 -442.0ZM-435.0 1.0V-158.0H-304.0V1.0ZM-578.0 -120.0V-185.0H-159.0V-120.0ZM-453.0 -261.0H-284.0L-283.0 -286.0H-454.0ZM-512.0 -458.0V-533.0H-233.0L-231.0 -459.0ZM-566.0 -206.0V-341.0H-164.0V-206.0ZM-530.0 -579.0C-495.0 -599.0 -450.0 -629.0 -430.0 -649.0L-352.0 -596.0C-376.0 -576.0 -422.0 -549.0 -456.0 -531.0ZM-374.0 -813.0C-362.0 -837.0 -349.0 -866.0 -345.0 -885.0L-221.0 -862.0C-226.0 -843.0 -238.0 -814.0 -251.0 -796.0ZM-598.0 -377.0 -593.0 -452.0C-473.0 -448.0 -304.0 -441.0 -141.0 -432.0L-139.0 -363.0C-308.0 -369.0 -484.0 -375.0 -598.0 -377.0Z"/></g>
</svg>
