<?xml version="1.0" encoding="UTF-8"?>
<svg width="1700" height="500" xmlns="http://www.w3.org/2000/svg">
<rect width="100%" height="100%" fill="white"/>
<g fill="green" transform="translate(100 100) scale(0.1 -0.1)"><path d="M-0.0 0.0V-555.0H1.0V-0.0H-0.0ZM-209.0 -202.0V-243.0H369.0V-202.0H-209.0ZM-241.0 -538.0V-577.0H246.0V-538.0H-241.0ZM-220.0 -377.0V-393.0H274.0V-377.0H-220.0Z"/></g>
<g fill="green" transform="translate(200 100) scale(0.1 -0.1)"><path d="M0.0 0.0V-522.0H157.0V0.0H0.0ZM-177.0 -140.0V-289.0H451.0V-140.0H-177.0ZM-187.0 -476.0V-615.0H331.0V-476.0H-187.0ZM-175.0 -324.0V-445.0H377.0V-324.0H-175.0Z"/></g>
<g fill="green" transform="translate(300 100) scale(0.1 -0.1)"><path d="M0.0 0.0V-342.0H-22.0V0.0H-0.0ZM-52.0 -149.0V-172.0H173.0V-149.0H-52.0ZM-73.0 -329.0V-350.0H27.0V-329.0H-73.0ZM-94.0 -251.0V-245.0H85.0V-251.0H-94.0Z"/></g>
<g fill="green" transform="translate(400 100) scale(0.1 -0.1)"><path d="M0.0 0.0V-293.0H69.0V0.0H0.0ZM-41.0 -105.0V-187.0H215.0V-105.0H-41.0ZM-44.0 -278.0V-351.0H72.0V-278.0H-44.0ZM-71.0 -207.0V-263.0H145.0V-207.0H-71.0Z"/></g>
<g fill="green" transform="translate(500 100) scale(0.1 -0.1)"><path d="M-0.0 0.0V-359.0H235.0V-0.0H0.0ZM-52.0 -14.0V-67.0H530.0V-14.0H-52.0ZM283.0 -554.0V-606.0H817.0V-554.0H283.0ZM332.0 -221.0V-395.0H971.0V-221.0H332.0Z"/></g>
<g fill="green" transform="translate(600 100) scale(0.1 -0.1)"><path d="M0.0 0.0V-372.0H320.0V0.0H0.0ZM-34.0 31.0V-160.0H565.0V31.0H-34.0ZM290.0 -493.0V-659.0H876.0V-493.0H290.0ZM334.0 -179.0V-460.0H1051.0V-179.0H334.0Z"/></g>
<g fill="green" transform="translate(700 100) scale(0.1 -0.1)"><path d="M-0.0 0.0V-281.0H-15.0V-0.0H0.0ZM-283.0 -138.0V-167.0H590.0V-138.0H-283.0ZM-299.0 -399.0V-426.0H459.0V-399.0H-299.0ZM-453.0 -327.0V-328.0H332.0V-327.0H-453.0Z"/></g>
<g fill="green" transform="translate(800 100) scale(0.1 -0.1)"><path d="M0.0 0.0V-245.0H118.0V0.0H0.0ZM-247.0 -87.0V-190.0H662.0V-87.0H-247.0ZM-251.0 -369.0V-450.0H523.0V-369.0H-251.0ZM-406.0 -286.0V-336.0H411.0V-286.0H-406.0Z"/></g>
<g fill="green" transform="translate(900 100) scale(0.1 -0.1)"><path d="M0.0 0.0V-619.0H-76.0V0.0H-0.0ZM-317.0 -269.0V-312.0H436.0V-269.0H-317.0ZM-434.0 -434.0V-475.0H124.0V-434.0H-434.0ZM-84.0 -318.0V-285.0H454.0V-318.0H-84.0Z"/></g>
<g fill="green" transform="translate(1000 100) scale(0.1 -0.1)"><path d="M0.0 0.0V-553.0H117.0V0.0H0.0ZM-263.0 -194.0V-338.0H557.0V-194.0H-263.0ZM-351.0 -372.0V-504.0H231.0V-372.0H-351.0ZM11.0 -271.0V-373.0H550.0V-271.0H11.0Z"/></g>
<g fill="green" transform="translate(1100 100) scale(0.1 -0.1)"><path d="M0.0 0.0V-587.0H81.0V0.0H0.0ZM-270.0 -124.0V-165.0H203.0V-124.0H-270.0ZM-311.0 -524.0V-564.0H356.0V-524.0H-311.0ZM-202.0 -292.0V-359.0H255.0V-292.0H-202.0Z"/></g>
<g fill="green" transform="translate(1200 100) scale(0.1 -0.1)"><path d="M0.0 0.0V-603.0H203.0V0.0H0.0ZM-247.0 -84.0V-234.0H267.0V-84.0H-247.0ZM-286.0 -466.0V-631.0H440.0V-466.0H-286.0ZM-181.0 -253.0V-427.0H351.0V-253.0H-181.0Z"/></g>
<g fill="green" transform="translate(1300 100) scale(0.1 -0.1)"><path d="M0.0 0.0V-537.0V0.0ZM-237.0 -197.0V-239.0H378.0V-197.0H-237.0ZM-255.0 -523.0V-565.0H246.0V-523.0H-255.0ZM-237.0 -369.0V-384.0H274.0V-369.0H-237.0Z"/></g>
<g fill="green" transform="translate(1400 100) scale(0.1 -0.1)"><path d="M0.0 0.0V-550.0H165.0V0.0H0.0ZM-158.0 -134.0V-291.0H454.0V-134.0H-158.0ZM-162.0 -487.0V-627.0H326.0V-487.0H-162.0ZM-157.0 -329.0V-453.0H363.0V-329.0H-157.0Z"/></g>
<g fill="green" transform="translate(1500 100) scale(0.1 -0.1)"><path d="M0.0 0.0V-542.0H-7.0V-0.0H-0.0ZM-191.0 -179.0V-219.0H368.0V-179.0H-191.0ZM-232.0 -525.0V-564.0H228.0V-525.0H-232.0ZM-200.0 -363.0V-373.0H250.0V-363.0H-200.0Z"/></g>
<g fill="green" transform="translate(1600 100) scale(0.1 -0.1)"><path d="M0.0 0.0V-552.0H155.0V0.0H0.0ZM-196.0 -141.0V-296.0H486.0V-141.0H-196.0ZM-192.0 -487.0V-635.0H331.0V-487.0H-192.0ZM-192.0 -334.0V-455.0H390.0V-334.0H-192.0Z"/></g>
<g fill="red" transform="translate(100 200) scale(0.1 -0.1)"><path d="M0.0 0.0V-357.0H29.0V0.0H0.0ZM-271.0 -97.0V-126.0H277.0V-97.0H-271.0ZM-296.0 -336.0V-365.0H318.0V-336.0H-296.0ZM-241.0 -210.0V-239.0H251.0V-210.0H-241.0Z"/></g>
<g fill="black" opacity=".8" transform="translate(100 200) scale(0.1 -0.1)"><path d="M0.0 0.0V-358.0H28.0V0.0H0.0ZM-264.0 -92.0V-121.0H296.0V-92.0H-264.0ZM-299.0 -342.0V-371.0H325.0V-342.0H-299.0ZM-239.0 -214.0V-242.0H255.0V-214.0H-239.0Z"/></g>
<g fill="red" transform="translate(200 200) scale(0.1 -0.1)"><path d="M0.0 0.0V-369.0H134.0V0.0H0.0ZM-226.0 -73.0V-178.0H360.0V-73.0H-226.0ZM-253.0 -338.0V-438.0H405.0V-338.0H-253.0ZM-194.0 -209.0V-305.0H333.0V-209.0H-194.0Z"/></g>
<g fill="black" opacity=".8" transform="translate(200 200) scale(0.1 -0.1)"><path d="M0.0 0.0V-391.0H137.0V0.0H0.0ZM-223.0 -64.0V-171.0H360.0V-64.0H-223.0ZM-254.0 -327.0V-434.0H390.0V-327.0H-254.0ZM-200.0 -198.0V-300.0H326.0V-198.0H-200.0Z"/></g>
<g fill="red" transform="translate(300 200) scale(0.1 -0.1)"><path d="M0.0 0.0V-393.0H30.0V0.0H0.0ZM-262.0 -89.0V-118.0H280.0V-89.0H-262.0ZM-279.0 -376.0V-405.0H299.0V-376.0H-279.0ZM-219.0 -229.0V-258.0H227.0V-229.0H-219.0Z"/></g>
<g fill="black" opacity=".8" transform="translate(300 200) scale(0.1 -0.1)"><path d="M0.0 0.0V-389.0H32.0V0.0H0.0ZM-253.0 -97.0V-128.0H271.0V-97.0H-253.0ZM-280.0 -368.0V-400.0H298.0V-368.0H-280.0ZM-223.0 -228.0V-258.0H232.0V-228.0H-223.0Z"/></g>
<g fill="red" transform="translate(400 200) scale(0.1 -0.1)"><path d="M0.0 0.0V-437.0H141.0V0.0H0.0ZM-208.0 -64.0V-182.0H337.0V-64.0H-208.0ZM-221.0 -358.0V-476.0H356.0V-358.0H-221.0ZM-177.0 -214.0V-324.0H310.0V-214.0H-177.0Z"/></g>
<g fill="black" opacity=".8" transform="translate(400 200) scale(0.1 -0.1)"><path d="M0.0 0.0V-442.0H147.0V0.0H0.0ZM-202.0 -69.0V-188.0H337.0V-69.0H-202.0ZM-225.0 -359.0V-476.0H367.0V-359.0H-225.0ZM-179.0 -216.0V-328.0H308.0V-216.0H-179.0Z"/></g>
<g fill="red" transform="translate(500 200) scale(0.1 -0.1)"><path d="M0.0 0.0V-326.0H30.0V0.0H0.0ZM-259.0 -97.0V-126.0H288.0V-97.0H-259.0ZM-285.0 -312.0V-342.0H320.0V-312.0H-285.0ZM-228.0 -200.0V-229.0H253.0V-200.0H-228.0Z"/></g>
<g fill="black" opacity=".8" transform="translate(500 200) scale(0.1 -0.1)"><path d="M0.0 0.0V-332.0H27.0V0.0H0.0ZM-263.0 -91.0V-119.0H289.0V-91.0H-263.0ZM-286.0 -318.0V-346.0H310.0V-318.0H-286.0ZM-230.0 -201.0V-228.0H254.0V-201.0H-230.0Z"/></g>
<g fill="red" transform="translate(600 200) scale(0.1 -0.1)"><path d="M0.0 0.0V-369.0H134.0V0.0H0.0ZM-201.0 -59.0V-165.0H337.0V-59.0H-201.0ZM-228.0 -310.0V-410.0H364.0V-310.0H-228.0ZM-169.0 -188.0V-286.0H306.0V-188.0H-169.0Z"/></g>
<g fill="black" opacity=".8" transform="translate(600 200) scale(0.1 -0.1)"><path d="M0.0 0.0V-370.0H132.0V0.0H0.0ZM-198.0 -58.0V-161.0H339.0V-58.0H-198.0ZM-226.0 -308.0V-407.0H366.0V-308.0H-226.0ZM-171.0 -186.0V-282.0H307.0V-186.0H-171.0Z"/></g>
<g fill="red" transform="translate(700 200) scale(0.1 -0.1)"><path d="M0.0 0.0V-326.0H29.0V0.0H0.0ZM-243.0 -97.0V-126.0H282.0V-97.0H-243.0ZM-270.0 -312.0V-342.0H300.0V-312.0H-270.0ZM-212.0 -200.0V-229.0H261.0V-200.0H-212.0Z"/></g>
<g fill="black" opacity=".8" transform="translate(700 200) scale(0.1 -0.1)"><path d="M0.0 0.0V-330.0H27.0V0.0H0.0ZM-248.0 -89.0V-117.0H287.0V-89.0H-248.0ZM-269.0 -319.0V-347.0H304.0V-319.0H-269.0ZM-213.0 -201.0V-227.0H255.0V-201.0H-213.0Z"/></g>
<g fill="red" transform="translate(800 200) scale(0.1 -0.1)"><path d="M0.0 0.0V-369.0H134.0V0.0H0.0ZM-197.0 -59.0V-165.0H341.0V-59.0H-197.0ZM-211.0 -310.0V-410.0H372.0V-310.0H-211.0ZM-165.0 -188.0V-286.0H310.0V-188.0H-165.0Z"/></g>
<g fill="black" opacity=".8" transform="translate(800 200) scale(0.1 -0.1)"><path d="M0.0 0.0V-368.0H131.0V0.0H0.0ZM-193.0 -59.0V-162.0H342.0V-59.0H-193.0ZM-214.0 -309.0V-408.0H362.0V-309.0H-214.0ZM-163.0 -187.0V-284.0H314.0V-187.0H-163.0Z"/></g>
<g fill="red" transform="translate(900 200) scale(0.1 -0.1)"><path d="M0.0 0.0V-340.0H29.0V0.0H0.0ZM-265.0 -82.0V-112.0H310.0V-82.0H-265.0ZM-310.0 -324.0V-354.0H348.0V-324.0H-310.0ZM-241.0 -198.0V-227.0H284.0V-198.0H-241.0Z"/></g>
<g fill="black" opacity=".8" transform="translate(900 200) scale(0.1 -0.1)"><path d="M0.0 0.0V-337.0H31.0V0.0H0.0ZM-277.0 -83.0V-111.0H311.0V-83.0H-277.0ZM-307.0 -323.0V-352.0H346.0V-323.0H-307.0ZM-236.0 -199.0V-228.0H280.0V-199.0H-236.0Z"/></g>
<g fill="red" transform="translate(1000 200) scale(0.1 -0.1)"><path d="M0.0 0.0V-392.0H144.0V0.0H0.0ZM-221.0 -55.0V-158.0H378.0V-55.0H-221.0ZM-257.0 -308.0V-417.0H410.0V-308.0H-257.0ZM-192.0 -184.0V-282.0H349.0V-184.0H-192.0Z"/></g>
<g fill="black" opacity=".8" transform="translate(1000 200) scale(0.1 -0.1)"><path d="M0.0 0.0V-379.0H138.0V0.0H0.0ZM-229.0 -56.0V-163.0H374.0V-56.0H-229.0ZM-257.0 -315.0V-420.0H410.0V-315.0H-257.0ZM-191.0 -188.0V-289.0H346.0V-188.0H-191.0Z"/></g>
<g fill="red" transform="translate(1100 200) scale(0.1 -0.1)"><path d="M0.0 0.0V-326.0H29.0V0.0H0.0ZM-279.0 -91.0V-120.0H297.0V-91.0H-279.0ZM-311.0 -312.0V-342.0H341.0V-312.0H-311.0ZM-245.0 -198.0V-227.0H261.0V-198.0H-245.0Z"/></g>
<g fill="black" opacity=".8" transform="translate(1100 200) scale(0.1 -0.1)"><path d="M0.0 0.0V-332.0H29.0V0.0H0.0ZM-279.0 -85.0V-113.0H302.0V-85.0H-279.0ZM-312.0 -317.0V-346.0H337.0V-317.0H-312.0ZM-248.0 -198.0V-225.0H264.0V-198.0H-248.0Z"/></g>
<g fill="red" transform="translate(1200 200) scale(0.1 -0.1)"><path d="M0.0 0.0V-369.0H134.0V0.0H0.0ZM-230.0 -59.0V-165.0H356.0V-59.0H-230.0ZM-257.0 -310.0V-410.0H401.0V-310.0H-257.0ZM-198.0 -188.0V-286.0H329.0V-188.0H-198.0Z"/></g>
<g fill="black" opacity=".8" transform="translate(1200 200) scale(0.1 -0.1)"><path d="M0.0 0.0V-371.0H134.0V0.0H0.0ZM-225.0 -56.0V-159.0H360.0V-56.0H-225.0ZM-260.0 -308.0V-410.0H397.0V-308.0H-260.0ZM-198.0 -185.0V-282.0H325.0V-185.0H-198.0Z"/></g>
<g fill="red" transform="translate(1300 200) scale(0.1 -0.1)"><path d="M0.0 0.0V-353.0H29.0V0.0H0.0ZM-267.0 -93.0V-122.0H308.0V-93.0H-267.0ZM-300.0 -336.0V-364.0H345.0V-336.0H-300.0ZM-238.0 -211.0V-241.0H278.0V-211.0H-238.0Z"/></g>
<g fill="black" opacity=".8" transform="translate(1300 200) scale(0.1 -0.1)"><path d="M0.0 0.0V-349.0H30.0V0.0H0.0ZM-266.0 -97.0V-125.0H307.0V-97.0H-266.0ZM-301.0 -334.0V-362.0H341.0V-334.0H-301.0ZM-239.0 -211.0V-240.0H279.0V-211.0H-239.0Z"/></g>
<g fill="red" transform="translate(1400 200) scale(0.1 -0.1)"><path d="M0.0 0.0V-355.0H137.0V0.0H0.0ZM-222.0 -61.0V-161.0H364.0V-61.0H-222.0ZM-265.0 -303.0V-403.0H393.0V-303.0H-265.0ZM-198.0 -183.0V-280.0H343.0V-183.0H-198.0Z"/></g>
<g fill="black" opacity=".8" transform="translate(1400 200) scale(0.1 -0.1)"><path d="M0.0 0.0V-353.0H131.0V0.0H0.0ZM-227.0 -62.0V-161.0H361.0V-62.0H-227.0ZM-264.0 -306.0V-406.0H401.0V-306.0H-264.0ZM-196.0 -185.0V-282.0H339.0V-185.0H-196.0Z"/></g>
<g fill="red" transform="translate(1500 200) scale(0.1 -0.1)"><path d="M0.0 0.0V-353.0H30.0V0.0H0.0ZM-230.0 -93.0V-122.0H278.0V-93.0H-230.0ZM-255.0 -336.0V-364.0H297.0V-336.0H-255.0ZM-210.0 -211.0V-241.0H245.0V-211.0H-210.0Z"/></g>
<g fill="black" opacity=".8" transform="translate(1500 200) scale(0.1 -0.1)"><path d="M0.0 0.0V-351.0H28.0V0.0H0.0ZM-229.0 -97.0V-125.0H271.0V-97.0H-229.0ZM-261.0 -335.0V-362.0H296.0V-335.0H-261.0ZM-209.0 -212.0V-240.0H242.0V-212.0H-209.0Z"/></g>
<g fill="red" transform="translate(1600 200) scale(0.1 -0.1)"><path d="M0.0 0.0V-355.0H124.0V0.0H0.0ZM-198.0 -61.0V-163.0H323.0V-61.0H-198.0ZM-235.0 -303.0V-405.0H348.0V-303.0H-235.0ZM-176.0 -183.0V-282.0H305.0V-183.0H-176.0Z"/></g>
<g fill="black" opacity=".8" transform="translate(1600 200) scale(0.1 -0.1)"><path d="M0.0 0.0V-353.0H126.0V0.0H0.0ZM-200.0 -64.0V-163.0H324.0V-64.0H-200.0ZM-229.0 -305.0V-404.0H355.0V-305.0H-229.0ZM-177.0 -186.0V-281.0H306.0V-186.0H-177.0Z"/></g>
<g fill="red" transform="translate(100 300) scale(0.1 -0.1)"><path d="M0.0 0.0V-344.0H29.0V0.0H0.0ZM-243.0 -97.0V-126.0H282.0V-97.0H-243.0ZM-270.0 -332.0V-361.0H300.0V-332.0H-270.0ZM-212.0 -209.0V-238.0H261.0V-209.0H-212.0Z"/></g>
<g fill="black" opacity=".8" transform="translate(100 300) scale(0.1 -0.1)"><path d="M0.0 0.0V-345.0H28.0V0.0H0.0ZM-246.0 -96.0V-124.0H286.0V-96.0H-246.0ZM-269.0 -331.0V-360.0H305.0V-331.0H-269.0ZM-212.0 -209.0V-237.0H259.0V-209.0H-212.0Z"/></g>
<g fill="red" transform="translate(200 300) scale(0.1 -0.1)"><path d="M0.0 0.0V-369.0H134.0V0.0H0.0ZM-194.0 -59.0V-165.0H344.0V-59.0H-194.0ZM-221.0 -310.0V-410.0H371.0V-310.0H-221.0ZM-162.0 -188.0V-286.0H313.0V-188.0H-162.0Z"/></g>
<g fill="black" opacity=".8" transform="translate(200 300) scale(0.1 -0.1)"><path d="M0.0 0.0V-368.0H131.0V0.0H0.0ZM-196.0 -62.0V-166.0H338.0V-62.0H-196.0ZM-220.0 -312.0V-412.0H363.0V-312.0H-220.0ZM-164.0 -189.0V-287.0H317.0V-189.0H-164.0Z"/></g>
<g fill="red" transform="translate(300 300) scale(0.1 -0.1)"><path d="M0.0 0.0V-437.0H30.0V0.0H0.0ZM-214.0 -122.0V-152.0H272.0V-122.0H-214.0ZM-258.0 -416.0V-446.0H296.0V-416.0H-258.0ZM-207.0 -262.0V-292.0H244.0V-262.0H-207.0Z"/></g>
<g fill="black" opacity=".8" transform="translate(300 300) scale(0.1 -0.1)"><path d="M0.0 0.0V-436.0H32.0V0.0H0.0ZM-220.0 -118.0V-151.0H278.0V-118.0H-220.0ZM-253.0 -417.0V-449.0H294.0V-417.0H-253.0ZM-205.0 -263.0V-295.0H241.0V-263.0H-205.0Z"/></g>
<g fill="red" transform="translate(400 300) scale(0.1 -0.1)"><path d="M0.0 0.0V-441.0H145.0V0.0H0.0ZM-209.0 -89.0V-205.0H347.0V-89.0H-209.0ZM-220.0 -379.0V-500.0H373.0V-379.0H-220.0ZM-187.0 -236.0V-347.0H333.0V-236.0H-187.0Z"/></g>
<g fill="black" opacity=".8" transform="translate(400 300) scale(0.1 -0.1)"><path d="M0.0 0.0V-441.0H147.0V0.0H0.0ZM-206.0 -84.0V-204.0H348.0V-84.0H-206.0ZM-226.0 -378.0V-500.0H368.0V-378.0H-226.0ZM-187.0 -233.0V-349.0H331.0V-233.0H-187.0Z"/></g>
<g fill="red" transform="translate(500 300) scale(0.1 -0.1)"><path d="M0.0 0.0V-322.0H29.0V0.0H0.0ZM-204.0 -70.0V-100.0H247.0V-70.0H-204.0ZM-243.0 -303.0V-332.0H282.0V-303.0H-243.0ZM-178.0 -184.0V-213.0H212.0V-184.0H-178.0Z"/></g>
<g fill="black" opacity=".8" transform="translate(500 300) scale(0.1 -0.1)"><path d="M0.0 0.0V-327.0H25.0V0.0H0.0ZM-208.0 -67.0V-93.0H247.0V-67.0H-208.0ZM-246.0 -309.0V-334.0H275.0V-309.0H-246.0ZM-180.0 -185.0V-209.0H211.0V-185.0H-180.0Z"/></g>
<g fill="red" transform="translate(600 300) scale(0.1 -0.1)"><path d="M0.0 0.0V-374.0H126.0V0.0H0.0ZM-212.0 -57.0V-164.0H330.0V-57.0H-212.0ZM-238.0 -299.0V-406.0H345.0V-299.0H-238.0ZM-184.0 -181.0V-281.0H302.0V-181.0H-184.0Z"/></g>
<g fill="black" opacity=".8" transform="translate(600 300) scale(0.1 -0.1)"><path d="M0.0 0.0V-371.0H122.0V0.0H0.0ZM-214.0 -59.0V-158.0H329.0V-59.0H-214.0ZM-232.0 -301.0V-405.0H348.0V-301.0H-232.0ZM-184.0 -182.0V-277.0H305.0V-182.0H-184.0Z"/></g>
<g fill="red" transform="translate(700 300) scale(0.1 -0.1)"><path d="M0.0 0.0V-353.0H29.0V0.0H0.0ZM-230.0 -93.0V-122.0H277.0V-93.0H-230.0ZM-255.0 -336.0V-364.0H297.0V-336.0H-255.0ZM-210.0 -211.0V-241.0H245.0V-211.0H-210.0Z"/></g>
<g fill="black" opacity=".8" transform="translate(700 300) scale(0.1 -0.1)"><path d="M0.0 0.0V-351.0H28.0V0.0H0.0ZM-230.0 -98.0V-126.0H269.0V-98.0H-230.0ZM-260.0 -335.0V-362.0H294.0V-335.0H-260.0ZM-209.0 -212.0V-240.0H241.0V-212.0H-209.0Z"/></g>
<g fill="red" transform="translate(800 300) scale(0.1 -0.1)"><path d="M0.0 0.0V-355.0H120.0V0.0H0.0ZM-195.0 -61.0V-161.0H318.0V-61.0H-195.0ZM-232.0 -303.0V-403.0H344.0V-303.0H-232.0ZM-173.0 -183.0V-280.0H300.0V-183.0H-173.0Z"/></g>
<g fill="black" opacity=".8" transform="translate(800 300) scale(0.1 -0.1)"><path d="M0.0 0.0V-352.0H126.0V0.0H0.0ZM-197.0 -64.0V-162.0H319.0V-64.0H-197.0ZM-227.0 -304.0V-402.0H352.0V-304.0H-227.0ZM-174.0 -185.0V-280.0H302.0V-185.0H-174.0Z"/></g>
<g fill="red" transform="translate(900 300) scale(0.1 -0.1)"><path d="M0.0 0.0V-349.0H29.0V0.0H0.0ZM-364.0 -83.0V-112.0H395.0V-83.0H-364.0ZM-420.0 -329.0V-358.0H454.0V-329.0H-420.0ZM-317.0 -204.0V-233.0H358.0V-204.0H-317.0Z"/></g>
<g fill="black" opacity=".8" transform="translate(900 300) scale(0.1 -0.1)"><path d="M0.0 0.0V-346.0H28.0V0.0H0.0ZM-360.0 -85.0V-114.0H406.0V-85.0H-360.0ZM-418.0 -329.0V-358.0H455.0V-329.0H-418.0ZM-318.0 -204.0V-232.0H361.0V-204.0H-318.0Z"/></g>
<g fill="red" transform="translate(1000 300) scale(0.1 -0.1)"><path d="M0.0 0.0V-355.0H150.0V0.0H0.0ZM-324.0 -56.0V-163.0H491.0V-56.0H-324.0ZM-382.0 -314.0V-424.0H528.0V-314.0H-382.0ZM-278.0 -191.0V-287.0H443.0V-191.0H-278.0Z"/></g>
<g fill="black" opacity=".8" transform="translate(1000 300) scale(0.1 -0.1)"><path d="M0.0 0.0V-367.0H144.0V0.0H0.0ZM-326.0 -57.0V-163.0H484.0V-57.0H-326.0ZM-383.0 -313.0V-421.0H530.0V-313.0H-383.0ZM-279.0 -189.0V-288.0H437.0V-189.0H-279.0Z"/></g>
<g fill="red" transform="translate(1100 300) scale(0.1 -0.1)"><path d="M0.0 0.0V-340.0H30.0V0.0H0.0ZM-356.0 -80.0V-110.0H403.0V-80.0H-356.0ZM-419.0 -321.0V-351.0H455.0V-321.0H-419.0ZM-322.0 -194.0V-223.0H358.0V-194.0H-322.0Z"/></g>
<g fill="black" opacity=".8" transform="translate(1100 300) scale(0.1 -0.1)"><path d="M0.0 0.0V-339.0H30.0V0.0H0.0ZM-361.0 -77.0V-106.0H403.0V-77.0H-361.0ZM-419.0 -323.0V-353.0H458.0V-323.0H-419.0ZM-318.0 -197.0V-226.0H357.0V-197.0H-318.0Z"/></g>
<g fill="red" transform="translate(1200 300) scale(0.1 -0.1)"><path d="M0.0 0.0V-374.0H148.0V0.0H0.0ZM-330.0 -56.0V-159.0H481.0V-56.0H-330.0ZM-381.0 -315.0V-424.0H538.0V-315.0H-381.0ZM-283.0 -187.0V-287.0H442.0V-187.0H-283.0Z"/></g>
<g fill="black" opacity=".8" transform="translate(1200 300) scale(0.1 -0.1)"><path d="M0.0 0.0V-373.0H145.0V0.0H0.0ZM-329.0 -54.0V-160.0H485.0V-54.0H-329.0ZM-383.0 -314.0V-423.0H535.0V-314.0H-383.0ZM-282.0 -188.0V-288.0H436.0V-188.0H-282.0Z"/></g>
<g fill="red" transform="translate(1300 300) scale(0.1 -0.1)"><path d="M0.0 0.0V-29.0H281.0V0.0H0.0ZM0.0 158.0V129.0H281.0V158.0H0.0ZM348.0 -251.0V-281.0H808.0V-251.0H348.0ZM358.0 24.0V-171.0H785.0V24.0H358.0Z"/></g>
<g fill="black" opacity=".8" transform="translate(1300 300) scale(0.1 -0.1)"><path d="M0.0 0.0V-29.0H281.0V0.0H0.0ZM-1.0 158.0V129.0H282.0V158.0H-1.0ZM348.0 -251.0V-281.0H808.0V-251.0H348.0ZM358.0 23.0V-170.0H785.0V23.0H358.0Z"/></g>
<g fill="red" transform="translate(1400 300) scale(0.1 -0.1)"><path d="M0.0 0.0V-108.0H263.0V0.0H0.0ZM0.0 151.0V43.0H263.0V151.0H0.0ZM314.0 -241.0V-341.0H819.0V-241.0H314.0ZM321.0 22.0V-212.0H807.0V22.0H321.0Z"/></g>
<g fill="black" opacity=".8" transform="translate(1400 300) scale(0.1 -0.1)"><path d="M0.0 0.0V-109.0H262.0V0.0H0.0ZM1.0 151.0V43.0H262.0V151.0H1.0ZM313.0 -241.0V-341.0H819.0V-241.0H313.0ZM321.0 22.0V-213.0H807.0V22.0H321.0Z"/></g>
<g fill="red" transform="translate(1500 300) scale(0.1 -0.1)"><path d="M0.0 0.0V-393.0H30.0V0.0H0.0ZM-373.0 -89.0V-118.0H417.0V-89.0H-373.0ZM-427.0 -376.0V-406.0H456.0V-376.0H-427.0ZM-316.0 -228.0V-258.0H364.0V-228.0H-316.0Z"/></g>
<g fill="black" opacity=".8" transform="translate(1500 300) scale(0.1 -0.1)"><path d="M0.0 0.0V-394.0H33.0V0.0H0.0ZM-371.0 -94.0V-127.0H403.0V-94.0H-371.0ZM-429.0 -369.0V-402.0H455.0V-369.0H-429.0ZM-323.0 -226.0V-258.0H358.0V-226.0H-323.0Z"/></g>
<g fill="red" transform="translate(1600 300) scale(0.1 -0.1)"><path d="M0.0 0.0V-437.0H144.0V0.0H0.0ZM-336.0 -64.0V-182.0H484.0V-64.0H-336.0ZM-382.0 -358.0V-476.0H537.0V-358.0H-382.0ZM-273.0 -214.0V-324.0H425.0V-214.0H-273.0Z"/></g>
<g fill="black" opacity=".8" transform="translate(1600 300) scale(0.1 -0.1)"><path d="M0.0 0.0V-433.0H160.0V0.0H0.0ZM-327.0 -65.0V-186.0H487.0V-65.0H-327.0ZM-382.0 -357.0V-480.0H536.0V-357.0H-382.0ZM-277.0 -214.0V-327.0H442.0V-214.0H-277.0Z"/></g>
<g fill="red" transform="translate(100 400) scale(0.1 -0.1)"><path d="M0.0 0.0V-393.0H29.0V0.0H0.0ZM-241.0 -89.0V-118.0H272.0V-89.0H-241.0ZM-248.0 -376.0V-405.0H284.0V-376.0H-248.0ZM-201.0 -228.0V-258.0H235.0V-228.0H-201.0Z"/></g>
<g fill="black" opacity=".8" transform="translate(100 400) scale(0.1 -0.1)"><path d="M0.0 0.0V-385.0H32.0V0.0H0.0ZM-232.0 -94.0V-125.0H273.0V-94.0H-232.0ZM-254.0 -370.0V-401.0H292.0V-370.0H-254.0ZM-200.0 -228.0V-259.0H237.0V-228.0H-200.0Z"/></g>
<g fill="red" transform="translate(200 400) scale(0.1 -0.1)"><path d="M0.0 0.0V-437.0H141.0V0.0H0.0ZM-191.0 -64.0V-182.0H350.0V-64.0H-191.0ZM-204.0 -358.0V-476.0H364.0V-358.0H-204.0ZM-165.0 -214.0V-324.0H322.0V-214.0H-165.0Z"/></g>
<g fill="black" opacity=".8" transform="translate(200 400) scale(0.1 -0.1)"><path d="M0.0 0.0V-437.0H146.0V0.0H0.0ZM-194.0 -69.0V-189.0H343.0V-69.0H-194.0ZM-204.0 -360.0V-478.0H363.0V-360.0H-204.0ZM-166.0 -217.0V-331.0H319.0V-217.0H-166.0Z"/></g>
<g fill="red" transform="translate(300 400) scale(0.1 -0.1)"><path d="M0.0 0.0V-437.0H30.0V0.0H0.0ZM-214.0 -122.0V-152.0H272.0V-122.0H-214.0ZM-258.0 -416.0V-446.0H296.0V-416.0H-258.0ZM-207.0 -262.0V-292.0H244.0V-262.0H-207.0Z"/></g>
<g fill="black" opacity=".8" transform="translate(300 400) scale(0.1 -0.1)"><path d="M0.0 0.0V-437.0H32.0V0.0H0.0ZM-219.0 -117.0V-150.0H279.0V-117.0H-219.0ZM-254.0 -418.0V-449.0H296.0V-418.0H-254.0ZM-205.0 -263.0V-295.0H242.0V-263.0H-205.0Z"/></g>
<g fill="red" transform="translate(400 400) scale(0.1 -0.1)"><path d="M0.0 0.0V-441.0H147.0V0.0H0.0ZM-212.0 -89.0V-205.0H351.0V-89.0H-212.0ZM-223.0 -379.0V-500.0H378.0V-379.0H-223.0ZM-190.0 -236.0V-347.0H337.0V-236.0H-190.0Z"/></g>
<g fill="black" opacity=".8" transform="translate(400 400) scale(0.1 -0.1)"><path d="M0.0 0.0V-441.0H147.0V0.0H0.0ZM-209.0 -84.0V-205.0H352.0V-84.0H-209.0ZM-229.0 -378.0V-501.0H371.0V-378.0H-229.0ZM-190.0 -233.0V-349.0H334.0V-233.0H-190.0Z"/></g>
<g fill="red" transform="translate(500 400) scale(0.1 -0.1)"><path d="M0.0 0.0V-353.0H29.0V0.0H0.0ZM-243.0 -93.0V-122.0H296.0V-93.0H-243.0ZM-276.0 -336.0V-364.0H319.0V-336.0H-276.0ZM-215.0 -211.0V-241.0H263.0V-211.0H-215.0Z"/></g>
<g fill="black" opacity=".8" transform="translate(500 400) scale(0.1 -0.1)"><path d="M0.0 0.0V-350.0H28.0V0.0H0.0ZM-241.0 -94.0V-121.0H293.0V-94.0H-241.0ZM-277.0 -336.0V-363.0H321.0V-336.0H-277.0ZM-217.0 -211.0V-238.0H264.0V-211.0H-217.0Z"/></g>
<g fill="red" transform="translate(600 400) scale(0.1 -0.1)"><path d="M0.0 0.0V-355.0H133.0V0.0H0.0ZM-221.0 -61.0V-161.0H357.0V-61.0H-221.0ZM-251.0 -303.0V-403.0H384.0V-303.0H-251.0ZM-197.0 -183.0V-280.0H336.0V-183.0H-197.0Z"/></g>
<g fill="black" opacity=".8" transform="translate(600 400) scale(0.1 -0.1)"><path d="M0.0 0.0V-352.0H127.0V0.0H0.0ZM-222.0 -64.0V-163.0H355.0V-64.0H-222.0ZM-253.0 -306.0V-406.0H385.0V-306.0H-253.0ZM-193.0 -186.0V-282.0H335.0V-186.0H-193.0Z"/></g>
<g fill="red" transform="translate(700 400) scale(0.1 -0.1)"><path d="M0.0 0.0V-349.0H30.0V0.0H0.0ZM-198.0 -93.0V-122.0H223.0V-93.0H-198.0ZM-225.0 -334.0V-363.0H232.0V-334.0H-225.0ZM-167.0 -210.0V-240.0H179.0V-210.0H-167.0Z"/></g>
<g fill="black" opacity=".8" transform="translate(700 400) scale(0.1 -0.1)"><path d="M0.0 0.0V-359.0H25.0V0.0H0.0ZM-194.0 -94.0V-121.0H215.0V-94.0H-194.0ZM-226.0 -334.0V-361.0H230.0V-334.0H-226.0ZM-175.0 -209.0V-234.0H183.0V-209.0H-175.0Z"/></g>
<g fill="red" transform="translate(800 400) scale(0.1 -0.1)"><path d="M0.0 0.0V-374.0H128.0V0.0H0.0ZM-174.0 -66.0V-170.0H274.0V-66.0H-174.0ZM-199.0 -317.0V-422.0H286.0V-317.0H-199.0ZM-146.0 -193.0V-294.0H246.0V-193.0H-146.0Z"/></g>
<g fill="black" opacity=".8" transform="translate(800 400) scale(0.1 -0.1)"><path d="M0.0 0.0V-385.0H122.0V0.0H0.0ZM-170.0 -68.0V-170.0H274.0V-68.0H-170.0ZM-192.0 -313.0V-416.0H291.0V-313.0H-192.0ZM-151.0 -192.0V-288.0H255.0V-192.0H-151.0Z"/></g>
<g fill="red" transform="translate(900 400) scale(0.1 -0.1)"><path d="M0.0 0.0V-172.0H29.0V0.0H0.0ZM-240.0 -73.0V-103.0H629.0V-73.0H-240.0ZM-153.0 -306.0V-335.0H554.0V-306.0H-153.0ZM-186.0 -213.0V-243.0H582.0V-213.0H-186.0Z"/></g>
<g fill="black" opacity=".8" transform="translate(900 400) scale(0.1 -0.1)"><path d="M0.0 0.0V-173.0H28.0V0.0H0.0ZM-240.0 -73.0V-103.0H628.0V-73.0H-240.0ZM-154.0 -305.0V-335.0H553.0V-305.0H-154.0ZM-187.0 -213.0V-243.0H582.0V-213.0H-187.0Z"/></g>
<g fill="red" transform="translate(1000 400) scale(0.1 -0.1)"><path d="M0.0 0.0V-177.0H142.0V0.0H0.0ZM-196.0 -37.0V-143.0H700.0V-37.0H-196.0ZM-102.0 -302.0V-379.0H610.0V-302.0H-102.0ZM-137.0 -197.0V-281.0H647.0V-197.0H-137.0Z"/></g>
<g fill="black" opacity=".8" transform="translate(1000 400) scale(0.1 -0.1)"><path d="M0.0 0.0V-179.0H143.0V0.0H0.0ZM-195.0 -37.0V-144.0H700.0V-37.0H-195.0ZM-102.0 -302.0V-379.0H611.0V-302.0H-102.0ZM-138.0 -197.0V-281.0H648.0V-197.0H-138.0Z"/></g>
<g fill="red" transform="translate(1100 400) scale(0.1 -0.1)"><path d="M0.0 0.0V-353.0H29.0V0.0H0.0ZM-159.0 -93.0V-122.0H187.0V-93.0H-159.0ZM-147.0 -211.0V-241.0H163.0V-211.0H-147.0ZM231.0 -76.0V-106.0H475.0V-76.0H231.0Z"/></g>
<g fill="black" opacity=".8" transform="translate(1100 400) scale(0.1 -0.1)"><path d="M0.0 0.0V-353.0H29.0V0.0H0.0ZM-160.0 -92.0V-122.0H187.0V-92.0H-160.0ZM-148.0 -212.0V-241.0H163.0V-212.0H-148.0ZM231.0 -76.0V-105.0H475.0V-76.0H231.0Z"/></g>
<g fill="red" transform="translate(1200 400) scale(0.1 -0.1)"><path d="M0.0 0.0V-355.0H118.0V0.0H0.0ZM-127.0 -63.0V-162.0H251.0V-63.0H-127.0ZM-109.0 -185.0V-282.0H224.0V-185.0H-109.0ZM280.0 -66.0V-193.0H522.0V-66.0H280.0Z"/></g>
<g fill="black" opacity=".8" transform="translate(1200 400) scale(0.1 -0.1)"><path d="M0.0 0.0V-356.0H118.0V0.0H0.0ZM-126.0 -63.0V-161.0H250.0V-63.0H-126.0ZM-109.0 -185.0V-281.0H225.0V-185.0H-109.0ZM280.0 -66.0V-193.0H521.0V-66.0H280.0Z"/></g>
<g fill="red" transform="translate(1300 400) scale(0.1 -0.1)"><path d="M0.0 0.0V-335.0H30.0V0.0H0.0ZM-234.0 -73.0V-102.0H282.0V-73.0H-234.0ZM-267.0 -315.0V-345.0H311.0V-315.0H-267.0ZM-213.0 -193.0V-222.0H260.0V-193.0H-213.0Z"/></g>
<g fill="black" opacity=".8" transform="translate(1300 400) scale(0.1 -0.1)"><path d="M0.0 0.0V-326.0H29.0V0.0H0.0ZM-245.0 -80.0V-108.0H283.0V-80.0H-245.0ZM-263.0 -317.0V-346.0H306.0V-317.0H-263.0ZM-207.0 -196.0V-223.0H250.0V-196.0H-207.0Z"/></g>
<g fill="red" transform="translate(1400 400) scale(0.1 -0.1)"><path d="M0.0 0.0V-383.0H143.0V0.0H0.0ZM-186.0 -61.0V-164.0H346.0V-61.0H-186.0ZM-209.0 -311.0V-414.0H359.0V-311.0H-209.0ZM-169.0 -187.0V-287.0H322.0V-187.0H-169.0Z"/></g>
<g fill="black" opacity=".8" transform="translate(1400 400) scale(0.1 -0.1)"><path d="M0.0 0.0V-379.0H134.0V0.0H0.0ZM-195.0 -56.0V-162.0H345.0V-56.0H-195.0ZM-210.0 -315.0V-417.0H368.0V-315.0H-210.0ZM-164.0 -188.0V-288.0H317.0V-188.0H-164.0Z"/></g>
</svg>
