<?xml version="1.0" encoding="UTF-8"?>
<svg width="1700" height="300" xmlns="http://www.w3.org/2000/svg">
<rect width="100%" height="100%" fill="white"/>
<g fill="green" transform="translate(100 100) scale(0.1 -0.1)"><path d="M0.0 0.0C-19.0 -59.0 -52.0 -144.0 -91.0 -193.0L-66.0 -208.0C-26.0 -157.0 6.0 -71.0 26.0 -11.0ZM127.0 -15.0C159.0 -72.0 186.0 -149.0 193.0 -196.0L220.0 -187.0C213.0 -140.0 184.0 -65.0 153.0 -9.0ZM318.0 -9.0C352.0 -66.0 383.0 -144.0 393.0 -192.0L419.0 -181.0C411.0 -134.0 378.0 -58.0 343.0 0.0ZM494.0 2.0C540.0 -62.0 586.0 -151.0 603.0 -207.0L629.0 -193.0C613.0 -138.0 566.0 -52.0 519.0 13.0ZM115.0 619.0V460.0H144.0V619.0ZM115.0 277.0V91.0H144.0V277.0ZM342.0 398.0V130.0C342.0 82.0 360.0 73.0 420.0 73.0C434.0 73.0 559.0 73.0 573.0 73.0C630.0 73.0 640.0 100.0 644.0 216.0C635.0 219.0 623.0 223.0 615.0 230.0C613.0 118.0 607.0 102.0 570.0 102.0C544.0 102.0 438.0 102.0 419.0 102.0C378.0 102.0 371.0 108.0 371.0 130.0V398.0ZM-42.0 634.0V79.0H-13.0V605.0H288.0V634.0ZM-27.0 108.0V79.0H291.0V108.0ZM-24.0 470.0V440.0H232.0V287.0H-24.0V258.0H262.0V470.0ZM336.0 635.0V606.0H564.0V398.0H358.0V369.0H593.0V635.0Z"/></g>
<g fill="green" transform="translate(200 100) scale(0.1 -0.1)"><path d="M0.0 0.0C-16.0 -74.0 -48.0 -157.0 -86.0 -212.0L28.0 -265.0C66.0 -207.0 93.0 -117.0 112.0 -40.0ZM131.0 -52.0C159.0 -118.0 188.0 -205.0 198.0 -258.0L313.0 -215.0C302.0 -162.0 269.0 -79.0 239.0 -15.0ZM310.0 -52.0C341.0 -115.0 371.0 -199.0 378.0 -251.0L498.0 -209.0C488.0 -155.0 455.0 -76.0 421.0 -15.0ZM484.0 -27.0C521.0 -100.0 560.0 -198.0 573.0 -258.0L697.0 -220.0C682.0 -158.0 639.0 -65.0 600.0 6.0ZM165.0 576.0V423.0H282.0V576.0ZM163.0 250.0V97.0H281.0V250.0ZM390.0 431.0V181.0C390.0 59.0 418.0 22.0 513.0 22.0C532.0 22.0 566.0 22.0 586.0 22.0C664.0 22.0 698.0 59.0 711.0 203.0C676.0 212.0 620.0 234.0 596.0 255.0C593.0 160.0 589.0 149.0 572.0 149.0C564.0 149.0 541.0 149.0 534.0 149.0C517.0 149.0 515.0 153.0 515.0 183.0V431.0ZM-2.0 647.0V17.0H123.0V533.0H356.0V647.0ZM48.0 140.0V17.0H373.0V140.0ZM54.0 470.0V372.0H226.0V306.0H57.0V208.0H347.0V470.0ZM396.0 642.0V528.0H550.0V431.0H459.0V317.0H669.0V642.0Z"/></g>
<g fill="green" transform="translate(300 100) scale(0.1 -0.1)"><path d="M0.0 0.0C-19.0 -59.0 -52.0 -144.0 -91.0 -193.0L-66.0 -208.0C-26.0 -157.0 6.0 -71.0 26.0 -11.0ZM127.0 -15.0C159.0 -72.0 186.0 -149.0 193.0 -196.0L220.0 -187.0C213.0 -140.0 184.0 -65.0 153.0 -9.0ZM318.0 -9.0C352.0 -66.0 383.0 -144.0 393.0 -192.0L419.0 -181.0C411.0 -134.0 378.0 -58.0 343.0 0.0ZM494.0 2.0C540.0 -62.0 586.0 -151.0 603.0 -207.0L629.0 -193.0C613.0 -138.0 566.0 -52.0 519.0 13.0ZM115.0 619.0V460.0H144.0V619.0ZM115.0 277.0V91.0H144.0V277.0ZM342.0 398.0V130.0C342.0 82.0 360.0 73.0 420.0 73.0C434.0 73.0 559.0 73.0 573.0 73.0C630.0 73.0 640.0 100.0 644.0 216.0C635.0 219.0 623.0 223.0 615.0 230.0C613.0 118.0 607.0 102.0 570.0 102.0C544.0 102.0 438.0 102.0 419.0 102.0C378.0 102.0 371.0 108.0 371.0 130.0V398.0ZM-42.0 634.0V79.0H-13.0V605.0H288.0V634.0ZM-27.0 108.0V79.0H291.0V108.0ZM-24.0 470.0V440.0H232.0V287.0H-24.0V258.0H262.0V470.0ZM336.0 635.0V606.0H564.0V398.0H358.0V369.0H593.0V635.0Z"/></g>
<g fill="green" transform="translate(400 100) scale(0.1 -0.1)"><path d="M0.0 0.0C-16.0 -74.0 -48.0 -157.0 -86.0 -212.0L28.0 -265.0C66.0 -207.0 93.0 -117.0 112.0 -40.0ZM131.0 -52.0C159.0 -118.0 188.0 -205.0 198.0 -258.0L313.0 -215.0C302.0 -162.0 269.0 -79.0 239.0 -15.0ZM310.0 -52.0C341.0 -115.0 371.0 -199.0 378.0 -251.0L498.0 -209.0C488.0 -155.0 455.0 -76.0 421.0 -15.0ZM484.0 -27.0C521.0 -100.0 560.0 -198.0 573.0 -258.0L697.0 -220.0C682.0 -158.0 639.0 -65.0 600.0 6.0ZM165.0 576.0V423.0H282.0V576.0ZM163.0 250.0V97.0H281.0V250.0ZM390.0 431.0V181.0C390.0 59.0 418.0 22.0 513.0 22.0C532.0 22.0 566.0 22.0 586.0 22.0C664.0 22.0 698.0 59.0 711.0 203.0C676.0 212.0 620.0 234.0 596.0 255.0C593.0 160.0 589.0 149.0 572.0 149.0C564.0 149.0 541.0 149.0 534.0 149.0C517.0 149.0 515.0 153.0 515.0 183.0V431.0ZM-2.0 647.0V17.0H123.0V533.0H356.0V647.0ZM48.0 140.0V17.0H373.0V140.0ZM54.0 470.0V372.0H226.0V306.0H57.0V208.0H347.0V470.0ZM396.0 642.0V528.0H550.0V431.0H459.0V317.0H669.0V642.0Z"/></g>
<g fill="red" transform="translate(100 200) scale(0.1 -0.1)"><path d="M0.0 0.0C-19.0 -59.0 -52.0 -144.0 -91.0 -193.0L-66.0 -208.0C-26.0 -157.0 6.0 -71.0 26.0 -11.0ZM127.0 -15.0C159.0 -72.0 186.0 -149.0 193.0 -196.0L220.0 -187.0C213.0 -140.0 184.0 -65.0 153.0 -9.0ZM318.0 -9.0C352.0 -66.0 383.0 -144.0 393.0 -192.0L419.0 -181.0C411.0 -134.0 378.0 -58.0 343.0 0.0ZM494.0 2.0C540.0 -62.0 586.0 -151.0 603.0 -207.0L629.0 -193.0C613.0 -138.0 566.0 -52.0 519.0 13.0ZM115.0 619.0V460.0H144.0V619.0ZM115.0 277.0V91.0H144.0V277.0ZM342.0 398.0V130.0C342.0 82.0 360.0 73.0 420.0 73.0C434.0 73.0 559.0 73.0 573.0 73.0C630.0 73.0 640.0 100.0 644.0 216.0C635.0 219.0 623.0 223.0 615.0 230.0C613.0 118.0 607.0 102.0 570.0 102.0C544.0 102.0 438.0 102.0 419.0 102.0C378.0 102.0 371.0 108.0 371.0 130.0V398.0ZM-42.0 634.0V79.0H-13.0V605.0H288.0V634.0ZM-27.0 108.0V79.0H291.0V108.0ZM-24.0 470.0V440.0H232.0V287.0H-24.0V258.0H262.0V470.0ZM336.0 635.0V606.0H564.0V398.0H358.0V369.0H593.0V635.0Z"/></g>
<g fill="black" opacity=".8" transform="translate(100 200) scale(0.1 -0.1)"><path d="M0.0 0.0C-19.0 -59.0 -52.0 -144.0 -91.0 -193.0L-66.0 -208.0C-26.0 -157.0 6.0 -71.0 26.0 -11.0ZM127.0 -15.0C159.0 -72.0 186.0 -149.0 193.0 -196.0L220.0 -187.0C213.0 -140.0 184.0 -65.0 153.0 -9.0ZM318.0 -9.0C352.0 -66.0 383.0 -144.0 393.0 -192.0L419.0 -181.0C411.0 -134.0 378.0 -58.0 343.0 0.0ZM494.0 2.0C540.0 -62.0 586.0 -151.0 603.0 -207.0L629.0 -193.0C613.0 -138.0 566.0 -52.0 519.0 13.0ZM115.0 619.0V460.0H144.0V619.0ZM115.0 277.0V91.0H144.0V277.0ZM342.0 398.0V130.0C342.0 82.0 360.0 73.0 420.0 73.0C434.0 73.0 559.0 73.0 573.0 73.0C630.0 73.0 640.0 100.0 644.0 216.0C635.0 219.0 623.0 223.0 615.0 230.0C613.0 118.0 607.0 102.0 570.0 102.0C544.0 102.0 438.0 102.0 419.0 102.0C378.0 102.0 371.0 108.0 371.0 130.0V398.0ZM-42.0 634.0V79.0H-13.0V605.0H288.0V634.0ZM-27.0 108.0V79.0H291.0V108.0ZM-24.0 470.0V440.0H232.0V287.0H-24.0V258.0H262.0V470.0ZM336.0 635.0V606.0H564.0V398.0H358.0V369.0H593.0V635.0Z"/></g>
<g fill="red" transform="translate(200 200) scale(0.1 -0.1)"><path d="M0.0 0.0C-16.0 -74.0 -48.0 -157.0 -86.0 -212.0L28.0 -265.0C66.0 -207.0 93.0 -117.0 112.0 -40.0ZM131.0 -52.0C159.0 -118.0 188.0 -205.0 198.0 -258.0L313.0 -215.0C302.0 -162.0 269.0 -79.0 239.0 -15.0ZM310.0 -52.0C341.0 -115.0 371.0 -199.0 378.0 -251.0L498.0 -209.0C488.0 -155.0 455.0 -76.0 421.0 -15.0ZM484.0 -27.0C521.0 -100.0 560.0 -198.0 573.0 -258.0L697.0 -220.0C682.0 -158.0 639.0 -65.0 600.0 6.0ZM165.0 576.0V423.0H282.0V576.0ZM163.0 250.0V97.0H281.0V250.0ZM390.0 431.0V181.0C390.0 59.0 418.0 22.0 513.0 22.0C532.0 22.0 566.0 22.0 586.0 22.0C664.0 22.0 698.0 59.0 711.0 203.0C676.0 212.0 620.0 234.0 596.0 255.0C593.0 160.0 589.0 149.0 572.0 149.0C564.0 149.0 541.0 149.0 534.0 149.0C517.0 149.0 515.0 153.0 515.0 183.0V431.0ZM-2.0 647.0V17.0H123.0V533.0H356.0V647.0ZM48.0 140.0V17.0H373.0V140.0ZM54.0 470.0V372.0H226.0V306.0H57.0V208.0H347.0V470.0ZM396.0 642.0V528.0H550.0V431.0H459.0V317.0H669.0V642.0Z"/></g>
<g fill="black" opacity=".8" transform="translate(200 200) scale(0.1 -0.1)"><path d="M0.0 0.0C-16.0 -74.0 -48.0 -157.0 -86.0 -212.0L28.0 -265.0C66.0 -207.0 93.0 -117.0 112.0 -40.0ZM131.0 -52.0C159.0 -118.0 188.0 -205.0 198.0 -258.0L313.0 -215.0C302.0 -162.0 269.0 -79.0 239.0 -15.0ZM310.0 -52.0C341.0 -115.0 371.0 -199.0 378.0 -251.0L498.0 -209.0C488.0 -155.0 455.0 -76.0 421.0 -15.0ZM484.0 -27.0C521.0 -100.0 560.0 -198.0 573.0 -258.0L697.0 -220.0C682.0 -158.0 639.0 -65.0 600.0 6.0ZM165.0 576.0V423.0H282.0V576.0ZM163.0 250.0V97.0H281.0V250.0ZM390.0 431.0V181.0C390.0 59.0 418.0 22.0 513.0 22.0C532.0 22.0 566.0 22.0 586.0 22.0C664.0 22.0 698.0 59.0 711.0 203.0C676.0 212.0 620.0 234.0 596.0 255.0C593.0 160.0 589.0 149.0 572.0 149.0C564.0 149.0 541.0 149.0 534.0 149.0C517.0 149.0 515.0 153.0 515.0 183.0V431.0ZM-2.0 647.0V17.0H123.0V533.0H356.0V647.0ZM48.0 140.0V17.0H373.0V140.0ZM54.0 470.0V372.0H226.0V306.0H57.0V208.0H347.0V470.0ZM396.0 642.0V528.0H550.0V431.0H459.0V317.0H669.0V642.0Z"/></g>
</svg>
