<?xml version="1.0" encoding="UTF-8"?>
<svg width="1700" height="300" xmlns="http://www.w3.org/2000/svg">
<rect width="100%" height="100%" fill="white"/>
<g fill="green" transform="translate(100 100) scale(0.1 -0.1)"><path d="M0.0 0.0C-24.0 -72.0 -70.0 -146.0 -124.0 -189.0L-102.0 -201.0C-45.0 -157.0 -1.0 -79.0 26.0 -7.0ZM170.0 -17.0C183.0 -74.0 191.0 -148.0 192.0 -193.0L221.0 -189.0C220.0 -146.0 210.0 -73.0 197.0 -16.0ZM379.0 -15.0C408.0 -72.0 436.0 -147.0 448.0 -194.0L476.0 -186.0C465.0 -141.0 435.0 -65.0 406.0 -9.0ZM588.0 -7.0C643.0 -67.0 704.0 -151.0 731.0 -203.0L758.0 -190.0C730.0 -138.0 669.0 -55.0 614.0 4.0ZM238.0 645.0V478.0H268.0V645.0ZM238.0 291.0V100.0H268.0V291.0ZM459.0 410.0V131.0C459.0 83.0 477.0 74.0 538.0 74.0C552.0 74.0 681.0 74.0 696.0 74.0C754.0 74.0 765.0 100.0 769.0 216.0C760.0 219.0 748.0 223.0 739.0 230.0C736.0 118.0 730.0 103.0 694.0 103.0C667.0 103.0 557.0 103.0 537.0 103.0C496.0 103.0 488.0 108.0 488.0 131.0V410.0ZM73.0 655.0V96.0H102.0V626.0H410.0V655.0ZM73.0 112.0V83.0H422.0V112.0ZM92.0 492.0V463.0H370.0V307.0H92.0V278.0H399.0V492.0ZM476.0 410.0V381.0H724.0V658.0H460.0V629.0H694.0V410.0Z"/></g>
<g fill="green" transform="translate(200 100) scale(0.1 -0.1)"><path d="M0.0 0.0C-22.0 -73.0 -65.0 -152.0 -107.0 -194.0L34.0 -250.0C80.0 -195.0 121.0 -112.0 142.0 -34.0ZM183.0 -40.0C194.0 -104.0 201.0 -188.0 201.0 -238.0L344.0 -217.0C343.0 -167.0 331.0 -86.0 318.0 -24.0ZM379.0 -44.0C400.0 -107.0 421.0 -189.0 426.0 -239.0L572.0 -211.0C564.0 -160.0 540.0 -81.0 516.0 -21.0ZM575.0 -39.0C617.0 -105.0 668.0 -194.0 688.0 -249.0L838.0 -200.0C813.0 -143.0 758.0 -58.0 715.0 4.0ZM285.0 590.0V441.0H392.0V590.0ZM285.0 276.0V127.0H392.0V276.0ZM496.0 431.0V182.0C496.0 64.0 525.0 29.0 627.0 29.0C648.0 29.0 693.0 29.0 714.0 29.0C795.0 29.0 829.0 63.0 843.0 188.0C807.0 196.0 753.0 217.0 728.0 237.0C725.0 161.0 720.0 149.0 701.0 149.0C690.0 149.0 659.0 149.0 650.0 149.0C628.0 149.0 625.0 153.0 625.0 184.0V431.0ZM110.0 662.0V81.0H230.0V549.0H456.0V662.0ZM110.0 153.0V39.0H475.0V153.0ZM186.0 490.0V388.0H337.0V331.0H186.0V229.0H454.0V490.0ZM561.0 431.0V306.0H794.0V661.0H504.0V536.0H667.0V431.0Z"/></g>
<g fill="green" transform="translate(300 100) scale(0.1 -0.1)"><path d="M0.0 0.0C-24.0 -72.0 -70.0 -146.0 -124.0 -189.0L-102.0 -201.0C-45.0 -157.0 -1.0 -79.0 26.0 -7.0ZM170.0 -17.0C183.0 -74.0 191.0 -148.0 192.0 -193.0L221.0 -189.0C220.0 -146.0 210.0 -73.0 197.0 -16.0ZM379.0 -15.0C408.0 -72.0 436.0 -147.0 448.0 -194.0L476.0 -186.0C465.0 -141.0 435.0 -65.0 406.0 -9.0ZM588.0 -7.0C643.0 -67.0 704.0 -151.0 731.0 -203.0L758.0 -190.0C730.0 -138.0 669.0 -55.0 614.0 4.0ZM238.0 645.0V478.0H268.0V645.0ZM238.0 291.0V100.0H268.0V291.0ZM459.0 410.0V131.0C459.0 83.0 477.0 74.0 538.0 74.0C552.0 74.0 681.0 74.0 696.0 74.0C754.0 74.0 765.0 100.0 769.0 216.0C760.0 219.0 748.0 223.0 739.0 230.0C736.0 118.0 730.0 103.0 694.0 103.0C667.0 103.0 557.0 103.0 537.0 103.0C496.0 103.0 488.0 108.0 488.0 131.0V410.0ZM73.0 655.0V96.0H102.0V626.0H410.0V655.0ZM73.0 112.0V83.0H422.0V112.0ZM92.0 492.0V463.0H370.0V307.0H92.0V278.0H399.0V492.0ZM476.0 410.0V381.0H724.0V658.0H460.0V629.0H694.0V410.0Z"/></g>
<g fill="green" transform="translate(400 100) scale(0.1 -0.1)"><path d="M0.0 0.0C-22.0 -73.0 -65.0 -152.0 -107.0 -194.0L34.0 -250.0C80.0 -195.0 121.0 -112.0 142.0 -34.0ZM183.0 -40.0C194.0 -104.0 201.0 -188.0 201.0 -238.0L344.0 -217.0C343.0 -167.0 331.0 -86.0 318.0 -24.0ZM379.0 -44.0C400.0 -107.0 421.0 -189.0 426.0 -239.0L572.0 -211.0C564.0 -160.0 540.0 -81.0 516.0 -21.0ZM575.0 -39.0C617.0 -105.0 668.0 -194.0 688.0 -249.0L838.0 -200.0C813.0 -143.0 758.0 -58.0 715.0 4.0ZM285.0 590.0V441.0H392.0V590.0ZM285.0 276.0V127.0H392.0V276.0ZM496.0 431.0V182.0C496.0 64.0 525.0 29.0 627.0 29.0C648.0 29.0 693.0 29.0 714.0 29.0C795.0 29.0 829.0 63.0 843.0 188.0C807.0 196.0 753.0 217.0 728.0 237.0C725.0 161.0 720.0 149.0 701.0 149.0C690.0 149.0 659.0 149.0 650.0 149.0C628.0 149.0 625.0 153.0 625.0 184.0V431.0ZM110.0 662.0V81.0H230.0V549.0H456.0V662.0ZM110.0 153.0V39.0H475.0V153.0ZM186.0 490.0V388.0H337.0V331.0H186.0V229.0H454.0V490.0ZM561.0 431.0V306.0H794.0V661.0H504.0V536.0H667.0V431.0Z"/></g>
<g fill="red" transform="translate(100 200) scale(0.1 -0.1)"><path d="M0.0 0.0C-24.0 -72.0 -70.0 -146.0 -124.0 -189.0L-102.0 -201.0C-45.0 -157.0 -1.0 -79.0 26.0 -7.0ZM170.0 -17.0C183.0 -74.0 191.0 -148.0 192.0 -193.0L221.0 -189.0C220.0 -146.0 210.0 -73.0 197.0 -16.0ZM379.0 -15.0C408.0 -72.0 436.0 -147.0 448.0 -194.0L476.0 -186.0C465.0 -141.0 435.0 -65.0 406.0 -9.0ZM588.0 -7.0C643.0 -67.0 704.0 -151.0 731.0 -203.0L758.0 -190.0C730.0 -138.0 669.0 -55.0 614.0 4.0ZM238.0 645.0V478.0H268.0V645.0ZM238.0 291.0V100.0H268.0V291.0ZM459.0 410.0V131.0C459.0 83.0 477.0 74.0 538.0 74.0C552.0 74.0 681.0 74.0 696.0 74.0C754.0 74.0 765.0 100.0 769.0 216.0C760.0 219.0 748.0 223.0 739.0 230.0C736.0 118.0 730.0 103.0 694.0 103.0C667.0 103.0 557.0 103.0 537.0 103.0C496.0 103.0 488.0 108.0 488.0 131.0V410.0ZM73.0 655.0V96.0H102.0V626.0H410.0V655.0ZM73.0 112.0V83.0H422.0V112.0ZM92.0 492.0V463.0H370.0V307.0H92.0V278.0H399.0V492.0ZM476.0 410.0V381.0H724.0V658.0H460.0V629.0H694.0V410.0Z"/></g>
<g fill="black" opacity=".8" transform="translate(100 200) scale(0.1 -0.1)"><path d="M0.0 0.0C-24.0 -72.0 -70.0 -146.0 -124.0 -189.0L-102.0 -201.0C-45.0 -157.0 -1.0 -79.0 26.0 -7.0ZM170.0 -17.0C183.0 -74.0 191.0 -148.0 192.0 -193.0L221.0 -189.0C220.0 -146.0 210.0 -73.0 197.0 -16.0ZM379.0 -15.0C408.0 -72.0 436.0 -147.0 448.0 -194.0L476.0 -186.0C465.0 -141.0 435.0 -65.0 406.0 -9.0ZM588.0 -7.0C643.0 -67.0 704.0 -151.0 731.0 -203.0L758.0 -190.0C730.0 -138.0 669.0 -55.0 614.0 4.0ZM238.0 645.0V478.0H268.0V645.0ZM238.0 291.0V100.0H268.0V291.0ZM459.0 410.0V131.0C459.0 83.0 477.0 74.0 538.0 74.0C552.0 74.0 681.0 74.0 696.0 74.0C754.0 74.0 765.0 100.0 769.0 216.0C760.0 219.0 748.0 223.0 739.0 230.0C736.0 118.0 730.0 103.0 694.0 103.0C667.0 103.0 557.0 103.0 537.0 103.0C496.0 103.0 488.0 108.0 488.0 131.0V410.0ZM73.0 655.0V96.0H102.0V626.0H410.0V655.0ZM73.0 112.0V83.0H422.0V112.0ZM92.0 492.0V463.0H370.0V307.0H92.0V278.0H399.0V492.0ZM476.0 410.0V381.0H724.0V658.0H460.0V629.0H694.0V410.0Z"/></g>
<g fill="red" transform="translate(200 200) scale(0.1 -0.1)"><path d="M0.0 0.0C-22.0 -73.0 -65.0 -152.0 -107.0 -194.0L34.0 -250.0C80.0 -195.0 121.0 -112.0 142.0 -34.0ZM183.0 -40.0C194.0 -104.0 201.0 -188.0 201.0 -238.0L344.0 -217.0C343.0 -167.0 331.0 -86.0 318.0 -24.0ZM379.0 -44.0C400.0 -107.0 421.0 -189.0 426.0 -239.0L572.0 -211.0C564.0 -160.0 540.0 -81.0 516.0 -21.0ZM575.0 -39.0C617.0 -105.0 668.0 -194.0 688.0 -249.0L838.0 -200.0C813.0 -143.0 758.0 -58.0 715.0 4.0ZM285.0 590.0V441.0H392.0V590.0ZM285.0 276.0V127.0H392.0V276.0ZM496.0 431.0V182.0C496.0 64.0 525.0 29.0 627.0 29.0C648.0 29.0 693.0 29.0 714.0 29.0C795.0 29.0 829.0 63.0 843.0 188.0C807.0 196.0 753.0 217.0 728.0 237.0C725.0 161.0 720.0 149.0 701.0 149.0C690.0 149.0 659.0 149.0 650.0 149.0C628.0 149.0 625.0 153.0 625.0 184.0V431.0ZM110.0 662.0V81.0H230.0V549.0H456.0V662.0ZM110.0 153.0V39.0H475.0V153.0ZM186.0 490.0V388.0H337.0V331.0H186.0V229.0H454.0V490.0ZM561.0 431.0V306.0H794.0V661.0H504.0V536.0H667.0V431.0Z"/></g>
<g fill="black" opacity=".8" transform="translate(200 200) scale(0.1 -0.1)"><path d="M0.0 0.0C-22.0 -73.0 -65.0 -152.0 -107.0 -194.0L34.0 -250.0C80.0 -195.0 121.0 -112.0 142.0 -34.0ZM183.0 -40.0C194.0 -104.0 201.0 -188.0 201.0 -238.0L344.0 -217.0C343.0 -167.0 331.0 -86.0 318.0 -24.0ZM379.0 -44.0C400.0 -107.0 421.0 -189.0 426.0 -239.0L572.0 -211.0C564.0 -160.0 540.0 -81.0 516.0 -21.0ZM575.0 -39.0C617.0 -105.0 668.0 -194.0 688.0 -249.0L838.0 -200.0C813.0 -143.0 758.0 -58.0 715.0 4.0ZM285.0 590.0V441.0H392.0V590.0ZM285.0 276.0V127.0H392.0V276.0ZM496.0 431.0V182.0C496.0 64.0 525.0 29.0 627.0 29.0C648.0 29.0 693.0 29.0 714.0 29.0C795.0 29.0 829.0 63.0 843.0 188.0C807.0 196.0 753.0 217.0 728.0 237.0C725.0 161.0 720.0 149.0 701.0 149.0C690.0 149.0 659.0 149.0 650.0 149.0C628.0 149.0 625.0 153.0 625.0 184.0V431.0ZM110.0 662.0V81.0H230.0V549.0H456.0V662.0ZM110.0 153.0V39.0H475.0V153.0ZM186.0 490.0V388.0H337.0V331.0H186.0V229.0H454.0V490.0ZM561.0 431.0V306.0H794.0V661.0H504.0V536.0H667.0V431.0Z"/></g>
</svg>
