<?xml version="1.0" encoding="UTF-8"?>
<svg width="1700" height="300" xmlns="http://www.w3.org/2000/svg">
<rect width="100%" height="100%" fill="white"/>
<g fill="green" transform="translate(100 100) scale(0.1 -0.1)"><path d="M-0.0 -0.0V-25.0H264.0V0.0ZM613.0 3.0V-22.0H863.0V3.0ZM591.0 149.0V-269.0H616.0V149.0ZM248.0 145.0V-277.0H273.0V145.0Z"/></g>
<g fill="green" transform="translate(200 100) scale(0.1 -0.1)"><path d="M0.0 0.0V-112.0H236.0V0.0ZM670.0 1.0V-111.0H912.0V1.0ZM628.0 97.0V-342.0H748.0V97.0ZM163.0 93.0V-346.0H283.0V93.0Z"/></g>
<g fill="green" transform="translate(300 100) scale(0.1 -0.1)"><path d="M0.0 0.0V-13.0H149.0V0.0ZM388.0 3.0V-10.0H521.0V3.0ZM372.0 99.0V-199.0H385.0V99.0ZM140.0 96.0V-207.0H153.0V96.0Z"/></g>
<g fill="green" transform="translate(400 100) scale(0.1 -0.1)"><path d="M0.0 0.0V-59.0H120.0V0.0ZM433.0 1.0V-58.0H555.0V1.0ZM413.0 63.0V-249.0H475.0V63.0ZM81.0 60.0V-252.0H144.0V60.0Z"/></g>
<g fill="green" transform="translate(500 100) scale(0.1 -0.1)"><path d="M-0.0 -0.0V-25.0H342.0V0.0ZM591.0 1.0V-24.0H944.0V1.0ZM577.0 59.0V-97.0H601.0V59.0ZM321.0 58.0V-99.0H347.0V58.0Z"/></g>
<g fill="green" transform="translate(600 100) scale(0.1 -0.1)"><path d="M0.0 0.0V-95.0H335.0V0.0ZM619.0 0.0V-94.0H974.0V0.0ZM609.0 21.0V-156.0H732.0V21.0ZM251.0 20.0V-157.0H375.0V20.0Z"/></g>
<g fill="green" transform="translate(700 100) scale(0.1 -0.1)"><path d="M-0.0 0.0V-37.0H312.0V0.0ZM581.0 4.0V-33.0H892.0V4.0ZM557.0 176.0V-291.0H593.0V176.0ZM295.0 174.0V-298.0H331.0V174.0Z"/></g>
<g fill="green" transform="translate(800 100) scale(0.1 -0.1)"><path d="M0.0 0.0V-152.0H266.0V0.0ZM620.0 1.0V-150.0H911.0V1.0ZM537.0 126.0V-383.0H702.0V126.0ZM199.0 124.0V-385.0H360.0V124.0Z"/></g>
<g fill="green" transform="translate(900 100) scale(0.1 -0.1)"><path d="M0.0 0.0V-30.0H260.0V0.0ZM628.0 2.0V-28.0H874.0V2.0ZM605.0 186.0V-262.0H635.0V186.0ZM242.0 182.0V-269.0H272.0V182.0Z"/></g>
<g fill="green" transform="translate(1000 100) scale(0.1 -0.1)"><path d="M0.0 0.0V-139.0H220.0V0.0ZM677.0 1.0V-139.0H897.0V1.0ZM609.0 129.0V-299.0H749.0V129.0ZM134.0 125.0V-303.0H274.0V125.0Z"/></g>
<g fill="green" transform="translate(1100 100) scale(0.1 -0.1)"><path d="M0.0 0.0V-25.0H234.0V0.0ZM597.0 3.0V-22.0H817.0V3.0ZM571.0 166.0V-257.0H596.0V166.0ZM225.0 163.0V-264.0H250.0V163.0Z"/></g>
<g fill="green" transform="translate(1200 100) scale(0.1 -0.1)"><path d="M0.0 0.0V-117.0H256.0V0.0ZM695.0 2.0V-116.0H955.0V2.0ZM636.0 115.0V-339.0H758.0V115.0ZM196.0 113.0V-342.0H318.0V113.0Z"/></g>
<g fill="green" transform="translate(1300 100) scale(0.1 -0.1)"><path d="M-0.0 0.0V-25.0H247.0V0.0ZM628.0 -5.0V-30.0H860.0V-5.0ZM613.0 134.0V-268.0H640.0V134.0ZM225.0 131.0V-266.0H251.0V131.0Z"/></g>
<g fill="green" transform="translate(1400 100) scale(0.1 -0.1)"><path d="M0.0 0.0V-129.0H268.0V0.0ZM650.0 -3.0V-133.0H903.0V-3.0ZM615.0 92.0V-352.0H745.0V92.0ZM160.0 90.0V-354.0H293.0V90.0Z"/></g>
<g fill="red" transform="translate(100 200) scale(0.1 -0.1)"><path d="M0.0 0.0V-29.0H239.0V0.0ZM504.0 0.0V-29.0H743.0V0.0ZM485.0 142.0V-184.0H514.0V142.0ZM228.0 142.0V-184.0H257.0V142.0Z"/></g>
<g fill="black" opacity=".8" transform="translate(100 200) scale(0.1 -0.1)"><path d="M0.0 0.0V-29.0H239.0V0.0ZM504.0 -0.0V-30.0H744.0V-0.0ZM484.0 142.0V-182.0H513.0V142.0ZM228.0 142.0V-183.0H257.0V142.0Z"/></g>
<g fill="red" transform="translate(200 200) scale(0.1 -0.1)"><path d="M0.0 0.0V-131.0H271.0V0.0ZM561.0 0.0V-131.0H841.0V0.0ZM492.0 105.0V-251.0H630.0V105.0ZM207.0 105.0V-251.0H345.0V105.0Z"/></g>
<g fill="black" opacity=".8" transform="translate(200 200) scale(0.1 -0.1)"><path d="M0.0 0.0V-132.0H271.0V0.0ZM562.0 0.0V-132.0H841.0V0.0ZM491.0 104.0V-252.0H630.0V104.0ZM205.0 105.0V-251.0H344.0V105.0Z"/></g>
<g fill="red" transform="translate(300 200) scale(0.1 -0.1)"><path d="M0.0 0.0V-30.0H207.0V0.0ZM365.0 0.0V-30.0H582.0V0.0ZM352.0 125.0V-157.0H381.0V125.0ZM193.0 125.0V-157.0H222.0V125.0Z"/></g>
<g fill="black" opacity=".8" transform="translate(300 200) scale(0.1 -0.1)"><path d="M0.0 0.0V-29.0H208.0V0.0ZM367.0 -1.0V-30.0H580.0V-1.0ZM354.0 124.0V-159.0H383.0V124.0ZM193.0 125.0V-158.0H222.0V125.0Z"/></g>
<g fill="red" transform="translate(400 200) scale(0.1 -0.1)"><path d="M0.0 0.0V-127.0H185.0V0.0ZM369.0 0.0V-127.0H563.0V0.0ZM292.0 94.0V-199.0H423.0V94.0ZM118.0 94.0V-199.0H247.0V94.0Z"/></g>
<g fill="black" opacity=".8" transform="translate(400 200) scale(0.1 -0.1)"><path d="M0.0 0.0V-125.0H184.0V0.0ZM366.0 -1.0V-126.0H560.0V-1.0ZM294.0 95.0V-198.0H424.0V95.0ZM121.0 96.0V-197.0H250.0V96.0Z"/></g>
<g fill="red" transform="translate(500 200) scale(0.1 -0.1)"><path d="M0.0 0.0V-30.0H336.0V0.0ZM513.0 2.0V-28.0H862.0V2.0ZM499.0 75.0V-92.0H528.0V75.0ZM317.0 75.0V-92.0H347.0V75.0Z"/></g>
<g fill="black" opacity=".8" transform="translate(500 200) scale(0.1 -0.1)"><path d="M0.0 0.0V-31.0H335.0V0.0ZM511.0 1.0V-29.0H865.0V1.0ZM496.0 75.0V-88.0H525.0V75.0ZM316.0 75.0V-89.0H347.0V75.0Z"/></g>
<g fill="red" transform="translate(600 200) scale(0.1 -0.1)"><path d="M0.0 0.0V-111.0H320.0V0.0ZM524.0 0.0V-110.0H876.0V0.0ZM491.0 43.0V-142.0H630.0V43.0ZM255.0 43.0V-142.0H392.0V43.0Z"/></g>
<g fill="black" opacity=".8" transform="translate(600 200) scale(0.1 -0.1)"><path d="M0.0 0.0V-114.0H321.0V0.0ZM528.0 0.0V-112.0H878.0V0.0ZM489.0 41.0V-145.0H630.0V41.0ZM249.0 42.0V-144.0H389.0V42.0Z"/></g>
<g fill="red" transform="translate(700 200) scale(0.1 -0.1)"><path d="M0.0 0.0V-29.0H274.0V0.0ZM607.0 1.0V-28.0H872.0V1.0ZM587.0 153.0V-276.0H616.0V153.0ZM256.0 150.0V-280.0H285.0V150.0Z"/></g>
<g fill="black" opacity=".8" transform="translate(700 200) scale(0.1 -0.1)"><path d="M0.0 0.0V-29.0H274.0V0.0ZM607.0 1.0V-28.0H872.0V1.0ZM587.0 153.0V-276.0H616.0V153.0ZM256.0 150.0V-280.0H285.0V150.0Z"/></g>
<g fill="red" transform="translate(800 200) scale(0.1 -0.1)"><path d="M0.0 0.0V-131.0H257.0V0.0ZM647.0 0.0V-131.0H909.0V0.0ZM593.0 105.0V-359.0H731.0V105.0ZM174.0 102.0V-362.0H312.0V102.0Z"/></g>
<g fill="black" opacity=".8" transform="translate(800 200) scale(0.1 -0.1)"><path d="M0.0 0.0V-131.0H257.0V0.0ZM647.0 -0.0V-131.0H909.0V-0.0ZM593.0 105.0V-359.0H732.0V105.0ZM174.0 102.0V-362.0H312.0V102.0Z"/></g>
<g fill="red" transform="translate(900 200) scale(0.1 -0.1)"><path d="M0.0 0.0V-29.0H292.0V0.0ZM578.0 -6.0V-35.0H870.0V-6.0ZM568.0 93.0V-141.0H598.0V93.0ZM268.0 93.0V-132.0H298.0V93.0Z"/></g>
<g fill="black" opacity=".8" transform="translate(900 200) scale(0.1 -0.1)"><path d="M0.0 0.0V-29.0H292.0V0.0ZM576.0 -7.0V-36.0H873.0V-7.0ZM565.0 93.0V-136.0H596.0V93.0ZM267.0 93.0V-129.0H298.0V93.0Z"/></g>
<g fill="red" transform="translate(1000 200) scale(0.1 -0.1)"><path d="M0.0 0.0V-133.0H325.0V0.0ZM569.0 -4.0V-137.0H894.0V-4.0ZM539.0 64.0V-193.0H684.0V64.0ZM220.0 64.0V-193.0H367.0V64.0Z"/></g>
<g fill="black" opacity=".8" transform="translate(1000 200) scale(0.1 -0.1)"><path d="M0.0 0.0V-136.0H326.0V0.0ZM574.0 -4.0V-140.0H897.0V-4.0ZM537.0 62.0V-196.0H684.0V62.0ZM213.0 63.0V-195.0H363.0V63.0Z"/></g>
<g fill="red" transform="translate(1100 200) scale(0.1 -0.1)"><path d="M0.0 0.0V-29.0H292.0V0.0ZM553.0 -1.0V-30.0H872.0V-1.0ZM537.0 96.0V-115.0H566.0V96.0ZM274.0 96.0V-115.0H304.0V96.0Z"/></g>
<g fill="black" opacity=".8" transform="translate(1100 200) scale(0.1 -0.1)"><path d="M0.0 0.0V-28.0H296.0V0.0ZM560.0 -2.0V-30.0H862.0V-2.0ZM545.0 95.0V-125.0H573.0V95.0ZM276.0 94.0V-124.0H305.0V94.0Z"/></g>
<g fill="red" transform="translate(1200 200) scale(0.1 -0.1)"><path d="M0.0 0.0V-127.0H316.0V0.0ZM597.0 1.0V-126.0H913.0V1.0ZM539.0 53.0V-186.0H681.0V53.0ZM205.0 53.0V-186.0H347.0V53.0Z"/></g>
<g fill="black" opacity=".8" transform="translate(1200 200) scale(0.1 -0.1)"><path d="M0.0 0.0V-120.0H310.0V0.0ZM585.0 -1.0V-121.0H903.0V-1.0ZM547.0 59.0V-179.0H683.0V59.0ZM220.0 59.0V-179.0H358.0V59.0Z"/></g>
<g fill="red" transform="translate(1300 200) scale(0.1 -0.1)"><path d="M0.0 0.0V-29.0H274.0V0.0ZM607.0 1.0V-28.0H872.0V1.0ZM587.0 153.0V-195.0H616.0V153.0ZM256.0 150.0V-198.0H285.0V150.0Z"/></g>
<g fill="black" opacity=".8" transform="translate(1300 200) scale(0.1 -0.1)"><path d="M0.0 0.0V-29.0H274.0V0.0ZM606.0 1.0V-29.0H874.0V1.0ZM585.0 153.0V-192.0H615.0V153.0ZM256.0 151.0V-196.0H285.0V151.0Z"/></g>
<g fill="red" transform="translate(1400 200) scale(0.1 -0.1)"><path d="M0.0 0.0V-131.0H257.0V0.0ZM647.0 0.0V-131.0H909.0V0.0ZM593.0 105.0V-224.0H731.0V105.0ZM174.0 102.0V-227.0H312.0V102.0Z"/></g>
<g fill="black" opacity=".8" transform="translate(1400 200) scale(0.1 -0.1)"><path d="M0.0 0.0V-133.0H258.0V0.0ZM650.0 1.0V-133.0H910.0V1.0ZM591.0 103.0V-226.0H731.0V103.0ZM169.0 101.0V-229.0H309.0V101.0Z"/></g>
</svg>
