<?xml version="1.0" encoding="UTF-8"?>
<svg width="1700" height="300" xmlns="http://www.w3.org/2000/svg">
<rect width="100%" height="100%" fill="white"/>
<g fill="green" transform="translate(100 100) scale(0.1 -0.1)"><path d="M0.0 0.0V262.0H547.0V292.0H5.0L-43.0 317.0V-15.0H-37.0C-18.0 -15.0 0.0 -5.0 0.0 0.0ZM318.0 474.0 238.0 484.0V-80.0H281.0V447.0C305.0 452.0 315.0 460.0 318.0 474.0ZM622.0 444.0 580.0 392.0H-181.0L-172.0 362.0H676.0C689.0 362.0 699.0 367.0 701.0 378.0C671.0 407.0 622.0 444.0 622.0 444.0ZM545.0 62.0H-30.0V33.0H545.0ZM545.0 173.0H-30.0V143.0H545.0ZM516.0 291.0H526.0V-7.0H532.0C547.0 -7.0 568.0 5.0 569.0 11.0V253.0C589.0 257.0 606.0 264.0 614.0 272.0L546.0 325.0ZM-166.0 -65.0 -133.0 -131.0C-124.0 -129.0 -114.0 -122.0 -108.0 -111.0C204.0 -100.0 429.0 -89.0 591.0 -78.0V-56.0C270.0 -62.0 -31.0 -68.0 -166.0 -65.0ZM436.0 8.0 430.0 -12.0C548.0 -56.0 623.0 -105.0 666.0 -152.0C715.0 -196.0 780.0 -74.0 436.0 8.0Z"/></g>
<g fill="green" transform="translate(200 100) scale(0.1 -0.1)"><path d="M0.0 0.0V229.0H474.0V256.0H9.0L-139.0 311.0V-42.0H-119.0C-63.0 -42.0 0.0 -12.0 0.0 0.0ZM313.0 448.0 136.0 463.0V-94.0H277.0V420.0C304.0 424.0 311.0 434.0 313.0 448.0ZM566.0 433.0 501.0 355.0H-268.0L-260.0 327.0H658.0C673.0 327.0 683.0 332.0 687.0 343.0C640.0 381.0 566.0 433.0 566.0 433.0ZM477.0 33.0H-79.0V6.0H477.0ZM477.0 147.0H-79.0V119.0H477.0ZM393.0 256.0H403.0V-21.0H427.0C472.0 -21.0 541.0 -0.0 542.0 6.0V205.0C563.0 210.0 577.0 219.0 583.0 227.0L454.0 323.0ZM-256.0 -61.0 -187.0 -189.0C-176.0 -187.0 -165.0 -180.0 -157.0 -169.0C176.0 -134.0 387.0 -111.0 532.0 -86.0V-68.0C190.0 -68.0 -115.0 -65.0 -256.0 -61.0ZM356.0 -13.0 352.0 -25.0C452.0 -63.0 497.0 -115.0 520.0 -154.0C612.0 -271.0 877.0 -33.0 356.0 -13.0Z"/></g>
<g fill="green" transform="translate(300 100) scale(0.1 -0.1)"><path d="M0.0 0.0V186.0H408.0V207.0H3.0L-30.0 224.0V-10.0H-26.0C-13.0 -10.0 0.0 -3.0 0.0 0.0ZM235.0 331.0 179.0 338.0V-55.0H209.0V312.0C226.0 316.0 233.0 321.0 235.0 331.0ZM473.0 314.0 443.0 276.0H-148.0L-141.0 255.0H513.0C522.0 255.0 529.0 258.0 530.0 266.0C509.0 287.0 473.0 314.0 473.0 314.0ZM408.0 43.0H-24.0V24.0H408.0ZM408.0 121.0H-24.0V101.0H408.0ZM388.0 206.0H395.0V-7.0H399.0C409.0 -7.0 424.0 1.0 424.0 5.0V179.0C439.0 182.0 451.0 187.0 457.0 193.0L409.0 230.0ZM-130.0 -44.0 -107.0 -91.0C-101.0 -89.0 -94.0 -84.0 -90.0 -77.0C149.0 -70.0 320.0 -63.0 444.0 -56.0V-40.0C200.0 -43.0 -28.0 -47.0 -130.0 -44.0ZM322.0 5.0 319.0 -11.0C416.0 -43.0 471.0 -74.0 507.0 -106.0C541.0 -139.0 595.0 -53.0 322.0 5.0Z"/></g>
<g fill="green" transform="translate(400 100) scale(0.1 -0.1)"><path d="M0.0 0.0V161.0H362.0V179.0H7.0L-99.0 218.0V-30.0H-85.0C-45.0 -30.0 0.0 -8.0 0.0 0.0ZM236.0 313.0 110.0 324.0V-64.0H209.0V293.0C229.0 296.0 234.0 303.0 236.0 313.0ZM446.0 302.0 401.0 249.0H-212.0L-207.0 230.0H509.0C520.0 230.0 527.0 233.0 530.0 241.0C497.0 267.0 446.0 302.0 446.0 302.0ZM366.0 20.0H-62.0V1.0H366.0ZM366.0 102.0H-62.0V82.0H366.0ZM303.0 179.0H310.0V-17.0H327.0C358.0 -17.0 407.0 -4.0 408.0 0.0V143.0C423.0 147.0 433.0 153.0 437.0 159.0L346.0 227.0ZM-197.0 -41.0 -148.0 -130.0C-140.0 -128.0 -132.0 -123.0 -127.0 -116.0C131.0 -94.0 294.0 -79.0 406.0 -63.0V-49.0C143.0 -48.0 -89.0 -45.0 -197.0 -41.0ZM271.0 -9.0 269.0 -19.0C354.0 -45.0 385.0 -79.0 403.0 -102.0C461.0 -194.0 685.0 -24.0 271.0 -9.0Z"/></g>
<g fill="green" transform="translate(500 100) scale(0.1 -0.1)"><path d="M0.0 0.0V308.0H500.0V346.0H6.0L-53.0 376.0V-18.0H-45.0C-22.0 -18.0 0.0 -6.0 0.0 0.0ZM303.0 619.0 208.0 630.0V-120.0H261.0V587.0C289.0 591.0 299.0 602.0 303.0 619.0ZM564.0 545.0 519.0 491.0H-167.0L-157.0 454.0H619.0C635.0 454.0 648.0 460.0 650.0 473.0C617.0 506.0 564.0 545.0 564.0 545.0ZM488.0 69.0H-31.0V32.0H488.0ZM488.0 203.0H-31.0V166.0H488.0ZM463.0 346.0H474.0V-2.0H481.0C500.0 -2.0 526.0 12.0 527.0 21.0V303.0C548.0 307.0 567.0 315.0 575.0 324.0L497.0 385.0ZM-141.0 -99.0 -99.0 -177.0C-87.0 -174.0 -77.0 -167.0 -69.0 -153.0C211.0 -143.0 413.0 -134.0 551.0 -125.0L550.0 -99.0C262.0 -101.0 -14.0 -103.0 -141.0 -99.0ZM417.0 -14.0 404.0 -27.0C467.0 -67.0 545.0 -143.0 568.0 -201.0C630.0 -239.0 665.0 -105.0 417.0 -14.0Z"/></g>
<g fill="green" transform="translate(600 100) scale(0.1 -0.1)"><path d="M0.0 0.0V298.0H417.0V332.0H8.0L-154.0 394.0V-47.0H-132.0C-69.0 -47.0 0.0 -14.0 0.0 0.0ZM289.0 606.0 90.0 623.0V-127.0H246.0V571.0C278.0 576.0 286.0 588.0 289.0 606.0ZM462.0 565.0 376.0 458.0H-255.0L-245.0 423.0H584.0C602.0 423.0 615.0 429.0 620.0 443.0C559.0 494.0 462.0 565.0 462.0 565.0ZM398.0 56.0H-85.0V23.0H398.0ZM398.0 196.0H-85.0V161.0H398.0ZM314.0 332.0H326.0V-18.0H353.0C407.0 -18.0 484.0 11.0 485.0 20.0V275.0C508.0 280.0 523.0 290.0 530.0 299.0L385.0 407.0ZM-234.0 -90.0 -152.0 -251.0C-138.0 -249.0 -125.0 -240.0 -115.0 -225.0C154.0 -176.0 326.0 -142.0 442.0 -110.0V-92.0C153.0 -95.0 -113.0 -93.0 -234.0 -90.0ZM307.0 -20.0 297.0 -27.0C356.0 -78.0 408.0 -156.0 428.0 -228.0C574.0 -326.0 701.0 -42.0 307.0 -20.0Z"/></g>
<g fill="green" transform="translate(700 100) scale(0.1 -0.1)"><path d="M0.0 0.0V278.0H586.0V312.0H6.0L-48.0 339.0V-18.0H-42.0C-20.0 -18.0 0.0 -6.0 0.0 0.0ZM335.0 462.0 249.0 472.0V-61.0H297.0V434.0C322.0 437.0 332.0 446.0 335.0 462.0ZM605.0 453.0 559.0 400.0H-113.0L-104.0 367.0H661.0C675.0 367.0 685.0 372.0 688.0 384.0C656.0 415.0 605.0 453.0 605.0 453.0ZM580.0 83.0H-26.0V50.0H580.0ZM580.0 201.0H-26.0V168.0H580.0ZM538.0 309.0H549.0V3.0H556.0C572.0 3.0 596.0 17.0 597.0 23.0V267.0C618.0 271.0 638.0 279.0 646.0 287.0L571.0 346.0ZM-169.0 -50.0 -136.0 -120.0C-126.0 -117.0 -115.0 -110.0 -109.0 -97.0C198.0 -78.0 423.0 -58.0 590.0 -41.0L589.0 -19.0C267.0 -34.0 -36.0 -49.0 -169.0 -50.0ZM454.0 45.0 446.0 25.0C563.0 -23.0 644.0 -83.0 685.0 -139.0C740.0 -186.0 799.0 -42.0 454.0 45.0Z"/></g>
<g fill="green" transform="translate(800 100) scale(0.1 -0.1)"><path d="M0.0 0.0V236.0H468.0V266.0H9.0L-152.0 327.0V-46.0H-131.0C-69.0 -46.0 0.0 -14.0 0.0 0.0ZM315.0 419.0 122.0 436.0V-83.0H283.0V393.0C307.0 398.0 314.0 407.0 315.0 419.0ZM503.0 434.0 438.0 359.0H-204.0L-195.0 327.0H592.0C608.0 327.0 620.0 333.0 623.0 345.0C577.0 383.0 503.0 434.0 503.0 434.0ZM485.0 46.0H-56.0V15.0H485.0ZM485.0 156.0H-56.0V124.0H485.0ZM394.0 265.0H405.0V-7.0H432.0C484.0 -7.0 558.0 22.0 559.0 29.0V209.0C582.0 214.0 598.0 224.0 604.0 233.0L461.0 339.0ZM-258.0 -53.0 -188.0 -190.0C-176.0 -188.0 -164.0 -180.0 -156.0 -167.0C173.0 -124.0 388.0 -94.0 536.0 -66.0V-46.0C195.0 -53.0 -117.0 -56.0 -258.0 -53.0ZM373.0 -6.0 366.0 -18.0C436.0 -57.0 475.0 -109.0 492.0 -147.0C585.0 -260.0 842.0 -39.0 373.0 -6.0Z"/></g>
<g fill="green" transform="translate(900 100) scale(0.1 -0.1)"><path d="M0.0 0.0V256.0H548.0V286.0H6.0L-43.0 312.0V-14.0H-37.0C-18.0 -14.0 0.0 -5.0 0.0 0.0ZM324.0 483.0 244.0 493.0V-86.0H287.0V456.0C311.0 461.0 322.0 469.0 324.0 483.0ZM623.0 441.0 580.0 389.0H-165.0L-156.0 358.0H677.0C690.0 358.0 700.0 364.0 703.0 375.0C672.0 404.0 623.0 441.0 623.0 441.0ZM552.0 53.0H-23.0V24.0H552.0ZM552.0 164.0H-23.0V134.0H552.0ZM520.0 286.0H530.0V-6.0H536.0C552.0 -6.0 572.0 6.0 573.0 13.0V248.0C594.0 252.0 610.0 259.0 618.0 267.0L550.0 319.0ZM-140.0 -74.0 -107.0 -140.0C-98.0 -138.0 -87.0 -131.0 -81.0 -120.0C223.0 -106.0 442.0 -93.0 600.0 -81.0V-59.0C285.0 -67.0 -8.0 -76.0 -140.0 -74.0ZM456.0 -2.0 449.0 -21.0C556.0 -64.0 624.0 -114.0 660.0 -161.0C710.0 -204.0 772.0 -85.0 456.0 -2.0Z"/></g>
<g fill="green" transform="translate(1000 100) scale(0.1 -0.1)"><path d="M0.0 0.0V216.0H468.0V243.0H9.0L-140.0 299.0V-42.0H-119.0C-63.0 -42.0 0.0 -11.0 0.0 0.0ZM315.0 447.0 137.0 463.0V-113.0H279.0V419.0C306.0 423.0 313.0 433.0 315.0 447.0ZM559.0 433.0 490.0 346.0H-250.0L-242.0 318.0H655.0C671.0 318.0 681.0 323.0 684.0 334.0C636.0 374.0 559.0 433.0 559.0 433.0ZM467.0 30.0H-74.0V3.0H467.0ZM467.0 139.0H-74.0V111.0H467.0ZM396.0 244.0H407.0V-28.0H431.0C477.0 -28.0 547.0 -7.0 548.0 0.0V193.0C569.0 198.0 583.0 207.0 588.0 215.0L458.0 311.0ZM-230.0 -67.0 -160.0 -199.0C-149.0 -197.0 -138.0 -190.0 -129.0 -178.0C197.0 -140.0 405.0 -116.0 548.0 -89.0L547.0 -72.0C210.0 -73.0 -91.0 -70.0 -230.0 -67.0ZM346.0 -16.0 342.0 -28.0C442.0 -68.0 498.0 -127.0 528.0 -172.0C634.0 -277.0 861.0 -21.0 346.0 -16.0Z"/></g>
<g fill="red" transform="translate(100 200) scale(0.1 -0.1)"><path d="M0.0 0.0V243.0H446.0V273.0H5.0L-44.0 298.0V-15.0H-37.0C-18.0 -15.0 0.0 -5.0 0.0 0.0ZM264.0 476.0 187.0 485.0V-88.0H231.0V451.0C253.0 453.0 261.0 462.0 264.0 476.0ZM463.0 430.0 422.0 383.0H-96.0L-88.0 353.0H511.0C525.0 353.0 534.0 358.0 537.0 369.0C508.0 396.0 463.0 430.0 463.0 430.0ZM440.0 57.0H-14.0V27.0H440.0ZM440.0 164.0H-14.0V134.0H440.0ZM408.0 273.0H417.0V3.0H423.0C438.0 3.0 460.0 15.0 461.0 22.0V237.0C478.0 240.0 494.0 247.0 500.0 254.0L436.0 304.0ZM-92.0 -72.0 -57.0 -135.0C-48.0 -133.0 -39.0 -127.0 -33.0 -114.0C191.0 -98.0 353.0 -83.0 468.0 -69.0L467.0 -50.0C232.0 -61.0 9.0 -71.0 -92.0 -72.0ZM375.0 1.0 364.0 -9.0C414.0 -43.0 479.0 -107.0 496.0 -158.0C548.0 -189.0 572.0 -74.0 375.0 1.0Z"/></g>
<g fill="black" opacity=".8" transform="translate(100 200) scale(0.1 -0.1)"><path d="M0.0 0.0V245.0H441.0V277.0H6.0L-44.0 302.0V-15.0H-38.0C-19.0 -15.0 0.0 -5.0 0.0 0.0ZM266.0 478.0 188.0 487.0V-85.0H232.0V452.0C255.0 455.0 264.0 463.0 266.0 478.0ZM466.0 427.0 427.0 383.0H-89.0L-81.0 351.0H512.0C525.0 351.0 535.0 357.0 538.0 368.0C510.0 395.0 466.0 427.0 466.0 427.0ZM437.0 58.0H-17.0V28.0H437.0ZM437.0 166.0H-17.0V137.0H437.0ZM406.0 277.0H415.0V4.0H421.0C437.0 4.0 458.0 16.0 459.0 23.0V240.0C477.0 244.0 493.0 251.0 500.0 258.0L434.0 308.0ZM-99.0 -74.0 -66.0 -138.0C-57.0 -134.0 -47.0 -129.0 -41.0 -117.0C185.0 -102.0 350.0 -87.0 467.0 -76.0L466.0 -55.0C228.0 -64.0 3.0 -74.0 -99.0 -74.0ZM374.0 4.0 362.0 -8.0C415.0 -42.0 475.0 -105.0 490.0 -155.0C543.0 -188.0 572.0 -72.0 374.0 4.0Z"/></g>
<g fill="red" transform="translate(200 200) scale(0.1 -0.1)"><path d="M0.0 0.0V225.0H351.0V253.0H7.0L-130.0 306.0V-39.0H-112.0C-58.0 -39.0 0.0 -11.0 0.0 0.0ZM245.0 446.0 77.0 461.0V-111.0H213.0V420.0C237.0 424.0 243.0 433.0 245.0 446.0ZM364.0 433.0 294.0 347.0H-166.0L-158.0 319.0H462.0C477.0 319.0 488.0 324.0 490.0 335.0C442.0 375.0 364.0 433.0 364.0 433.0ZM339.0 48.0H-50.0V20.0H339.0ZM339.0 150.0H-50.0V122.0H339.0ZM277.0 253.0H287.0V-12.0H311.0C357.0 -12.0 424.0 15.0 425.0 23.0V206.0C444.0 210.0 455.0 218.0 460.0 225.0L337.0 317.0ZM-180.0 -66.0 -112.0 -202.0C-101.0 -200.0 -90.0 -193.0 -82.0 -180.0C149.0 -134.0 298.0 -102.0 399.0 -72.0V-58.0C152.0 -64.0 -77.0 -67.0 -180.0 -66.0ZM251.0 -8.0 244.0 -14.0C282.0 -56.0 329.0 -121.0 348.0 -180.0C473.0 -251.0 559.0 -17.0 251.0 -8.0Z"/></g>
<g fill="black" opacity=".8" transform="translate(200 200) scale(0.1 -0.1)"><path d="M0.0 0.0V222.0H345.0V249.0H7.0L-131.0 303.0V-40.0H-112.0C-58.0 -40.0 0.0 -11.0 0.0 0.0ZM245.0 446.0 77.0 462.0V-108.0H213.0V420.0C237.0 425.0 243.0 433.0 245.0 446.0ZM361.0 435.0 291.0 347.0H-161.0L-153.0 318.0H456.0C472.0 318.0 483.0 323.0 485.0 335.0C438.0 375.0 361.0 435.0 361.0 435.0ZM338.0 45.0H-52.0V17.0H338.0ZM338.0 148.0H-52.0V118.0H338.0ZM277.0 250.0H288.0V-14.0H311.0C358.0 -14.0 423.0 12.0 424.0 20.0V202.0C443.0 206.0 456.0 214.0 461.0 222.0L337.0 313.0ZM-174.0 -69.0 -108.0 -202.0C-97.0 -200.0 -86.0 -193.0 -77.0 -179.0C148.0 -135.0 297.0 -105.0 398.0 -77.0L397.0 -62.0C154.0 -69.0 -73.0 -70.0 -174.0 -69.0ZM262.0 -14.0 253.0 -21.0C294.0 -62.0 342.0 -127.0 362.0 -184.0C484.0 -255.0 578.0 -25.0 262.0 -14.0Z"/></g>
<g fill="red" transform="translate(300 200) scale(0.1 -0.1)"><path d="M0.0 0.0V247.0H526.0V277.0H5.0L-44.0 302.0V-16.0H-37.0C-18.0 -16.0 0.0 -5.0 0.0 0.0ZM304.0 410.0 227.0 419.0V-52.0H271.0V385.0C293.0 387.0 302.0 396.0 304.0 410.0ZM542.0 398.0 502.0 351.0H-90.0L-82.0 321.0H591.0C605.0 321.0 613.0 326.0 616.0 337.0C588.0 364.0 542.0 398.0 542.0 398.0ZM524.0 71.0H-20.0V41.0H524.0ZM524.0 177.0H-20.0V147.0H524.0ZM485.0 274.0H495.0V4.0H501.0C516.0 4.0 538.0 17.0 539.0 22.0V235.0C558.0 239.0 576.0 246.0 583.0 254.0L515.0 307.0ZM-142.0 -47.0 -112.0 -110.0C-104.0 -107.0 -94.0 -101.0 -88.0 -89.0C182.0 -69.0 381.0 -50.0 530.0 -33.0L529.0 -14.0C243.0 -30.0 -24.0 -45.0 -142.0 -47.0ZM410.0 40.0 403.0 22.0C510.0 -22.0 580.0 -74.0 615.0 -124.0C664.0 -168.0 720.0 -38.0 410.0 40.0Z"/></g>
<g fill="black" opacity=".8" transform="translate(300 200) scale(0.1 -0.1)"><path d="M0.0 0.0V244.0H529.0V274.0H6.0L-43.0 298.0V-15.0H-37.0C-18.0 -15.0 0.0 -5.0 0.0 0.0ZM304.0 408.0 228.0 416.0V-54.0H270.0V383.0C293.0 386.0 302.0 393.0 304.0 408.0ZM544.0 398.0 503.0 351.0H-91.0L-83.0 321.0H594.0C607.0 321.0 616.0 326.0 619.0 336.0C590.0 364.0 544.0 398.0 544.0 398.0ZM527.0 71.0H-20.0V42.0H527.0ZM527.0 175.0H-20.0V146.0H527.0ZM487.0 271.0H497.0V4.0H503.0C518.0 4.0 539.0 16.0 539.0 22.0V234.0C559.0 238.0 576.0 245.0 583.0 252.0L517.0 304.0ZM-141.0 -46.0 -112.0 -108.0C-103.0 -105.0 -93.0 -99.0 -88.0 -88.0C185.0 -69.0 385.0 -49.0 534.0 -33.0L533.0 -14.0C246.0 -29.0 -23.0 -44.0 -141.0 -46.0ZM417.0 39.0 410.0 21.0C513.0 -22.0 582.0 -75.0 616.0 -125.0C666.0 -167.0 719.0 -39.0 417.0 39.0Z"/></g>
<g fill="red" transform="translate(400 200) scale(0.1 -0.1)"><path d="M0.0 0.0V199.0H420.0V227.0H8.0L-137.0 282.0V-41.0H-118.0C-62.0 -41.0 0.0 -12.0 0.0 0.0ZM286.0 364.0 111.0 379.0V-81.0H258.0V341.0C279.0 345.0 285.0 353.0 286.0 364.0ZM449.0 380.0 391.0 310.0H-168.0L-160.0 282.0H528.0C542.0 282.0 553.0 287.0 555.0 298.0C515.0 332.0 449.0 380.0 449.0 380.0ZM437.0 39.0H-48.0V11.0H437.0ZM437.0 132.0H-48.0V104.0H437.0ZM360.0 226.0H370.0V-10.0H395.0C441.0 -10.0 509.0 16.0 510.0 24.0V175.0C531.0 180.0 544.0 189.0 550.0 197.0L421.0 293.0ZM-219.0 -48.0 -157.0 -170.0C-147.0 -168.0 -136.0 -161.0 -129.0 -149.0C167.0 -111.0 361.0 -84.0 495.0 -58.0V-40.0C188.0 -47.0 -92.0 -50.0 -219.0 -48.0ZM332.0 -6.0 327.0 -18.0C393.0 -53.0 435.0 -101.0 455.0 -136.0C541.0 -231.0 766.0 -29.0 332.0 -6.0Z"/></g>
<g fill="black" opacity=".8" transform="translate(400 200) scale(0.1 -0.1)"><path d="M0.0 0.0V201.0H419.0V228.0H8.0L-136.0 283.0V-41.0H-117.0C-62.0 -41.0 0.0 -12.0 0.0 0.0ZM284.0 363.0 112.0 379.0V-80.0H256.0V340.0C277.0 345.0 283.0 353.0 284.0 363.0ZM450.0 380.0 391.0 311.0H-172.0L-164.0 282.0H529.0C544.0 282.0 555.0 288.0 557.0 298.0C516.0 332.0 450.0 380.0 450.0 380.0ZM434.0 39.0H-46.0V11.0H434.0ZM434.0 133.0H-46.0V105.0H434.0ZM358.0 227.0H369.0V-9.0H393.0C440.0 -9.0 506.0 17.0 507.0 23.0V177.0C527.0 182.0 542.0 191.0 546.0 199.0L419.0 293.0ZM-220.0 -48.0 -158.0 -171.0C-147.0 -169.0 -137.0 -162.0 -129.0 -150.0C165.0 -111.0 359.0 -83.0 492.0 -58.0V-40.0C186.0 -47.0 -94.0 -50.0 -220.0 -48.0ZM333.0 -6.0 327.0 -17.0C391.0 -52.0 429.0 -100.0 448.0 -135.0C534.0 -231.0 755.0 -29.0 333.0 -6.0Z"/></g>
<g fill="red" transform="translate(500 200) scale(0.1 -0.1)"><path d="M0.0 0.0V263.0H545.0V293.0H5.0L-44.0 319.0V-15.0H-37.0C-18.0 -15.0 0.0 -5.0 0.0 0.0ZM319.0 490.0 238.0 500.0V-87.0H282.0V463.0C306.0 467.0 316.0 476.0 319.0 490.0ZM618.0 452.0 575.0 399.0H-174.0L-165.0 369.0H672.0C686.0 369.0 696.0 374.0 698.0 385.0C667.0 414.0 618.0 452.0 618.0 452.0ZM544.0 59.0H-27.0V29.0H544.0ZM544.0 171.0H-27.0V141.0H544.0ZM514.0 293.0H524.0V-6.0H530.0C545.0 -6.0 567.0 6.0 568.0 12.0V254.0C588.0 258.0 605.0 265.0 612.0 273.0L544.0 326.0ZM-153.0 -72.0 -118.0 -139.0C-109.0 -137.0 -99.0 -130.0 -93.0 -118.0C214.0 -106.0 435.0 -95.0 593.0 -83.0V-61.0C277.0 -68.0 -19.0 -74.0 -153.0 -72.0ZM445.0 1.0 438.0 -17.0C545.0 -60.0 618.0 -112.0 656.0 -160.0C706.0 -203.0 766.0 -82.0 445.0 1.0Z"/></g>
<g fill="black" opacity=".8" transform="translate(500 200) scale(0.1 -0.1)"><path d="M0.0 0.0V264.0H543.0V294.0H6.0L-44.0 320.0V-15.0H-38.0C-18.0 -15.0 0.0 -5.0 0.0 0.0ZM319.0 491.0 238.0 501.0V-86.0H282.0V463.0C306.0 468.0 317.0 477.0 319.0 491.0ZM617.0 452.0 575.0 400.0H-173.0L-164.0 368.0H671.0C685.0 368.0 695.0 374.0 697.0 385.0C667.0 415.0 617.0 452.0 617.0 452.0ZM543.0 59.0H-27.0V29.0H543.0ZM543.0 172.0H-27.0V141.0H543.0ZM513.0 294.0H523.0V-6.0H529.0C545.0 -6.0 566.0 6.0 567.0 13.0V255.0C588.0 259.0 604.0 266.0 612.0 274.0L543.0 328.0ZM-153.0 -72.0 -119.0 -139.0C-110.0 -137.0 -99.0 -130.0 -93.0 -119.0C213.0 -106.0 433.0 -95.0 591.0 -83.0V-61.0C276.0 -68.0 -20.0 -75.0 -153.0 -72.0ZM443.0 2.0 436.0 -17.0C544.0 -60.0 616.0 -112.0 655.0 -160.0C705.0 -203.0 766.0 -81.0 443.0 2.0Z"/></g>
<g fill="red" transform="translate(600 200) scale(0.1 -0.1)"><path d="M0.0 0.0V230.0H466.0V258.0H9.0L-140.0 314.0V-42.0H-120.0C-63.0 -42.0 0.0 -12.0 0.0 0.0ZM311.0 462.0 132.0 477.0V-105.0H274.0V433.0C302.0 437.0 309.0 447.0 311.0 462.0ZM554.0 445.0 485.0 360.0H-261.0L-253.0 332.0H651.0C666.0 332.0 677.0 337.0 680.0 348.0C632.0 388.0 554.0 445.0 554.0 445.0ZM465.0 34.0H-77.0V6.0H465.0ZM465.0 148.0H-77.0V120.0H465.0ZM387.0 258.0H397.0V-24.0H422.0C467.0 -24.0 538.0 -2.0 539.0 5.0V207.0C560.0 212.0 573.0 221.0 579.0 229.0L449.0 326.0ZM-243.0 -66.0 -172.0 -199.0C-161.0 -197.0 -150.0 -190.0 -142.0 -178.0C183.0 -141.0 388.0 -116.0 529.0 -89.0V-72.0C194.0 -72.0 -105.0 -70.0 -243.0 -66.0ZM347.0 -15.0 343.0 -26.0C438.0 -66.0 487.0 -123.0 512.0 -168.0C616.0 -278.0 850.0 -29.0 347.0 -15.0Z"/></g>
<g fill="black" opacity=".8" transform="translate(600 200) scale(0.1 -0.1)"><path d="M0.0 0.0V230.0H466.0V257.0H9.0L-141.0 313.0V-42.0H-120.0C-64.0 -42.0 0.0 -12.0 0.0 0.0ZM312.0 462.0 132.0 477.0V-105.0H275.0V433.0C303.0 437.0 310.0 447.0 312.0 462.0ZM554.0 445.0 485.0 360.0H-259.0L-251.0 332.0H650.0C666.0 332.0 676.0 337.0 680.0 348.0C631.0 388.0 554.0 445.0 554.0 445.0ZM466.0 34.0H-77.0V6.0H466.0ZM466.0 148.0H-77.0V119.0H466.0ZM387.0 258.0H398.0V-24.0H422.0C468.0 -24.0 539.0 -2.0 540.0 5.0V206.0C561.0 211.0 575.0 220.0 580.0 228.0L450.0 325.0ZM-243.0 -66.0 -172.0 -199.0C-161.0 -197.0 -150.0 -190.0 -141.0 -178.0C183.0 -140.0 389.0 -116.0 531.0 -89.0L530.0 -72.0C195.0 -73.0 -104.0 -70.0 -243.0 -66.0ZM347.0 -15.0 343.0 -26.0C439.0 -66.0 490.0 -124.0 515.0 -168.0C618.0 -278.0 854.0 -29.0 347.0 -15.0Z"/></g>
<g fill="red" transform="translate(700 200) scale(0.1 -0.1)"><path d="M0.0 0.0V251.0H434.0V281.0H5.0L-44.0 306.0V-16.0H-37.0C-18.0 -16.0 0.0 -5.0 0.0 0.0ZM253.0 469.0 176.0 478.0V-82.0H220.0V444.0C242.0 446.0 250.0 455.0 253.0 469.0ZM452.0 434.0 413.0 389.0H-100.0L-92.0 359.0H498.0C512.0 359.0 521.0 364.0 524.0 375.0C495.0 401.0 452.0 434.0 452.0 434.0ZM421.0 69.0H-23.0V39.0H421.0ZM421.0 177.0H-23.0V147.0H421.0ZM393.0 281.0H402.0V3.0H408.0C423.0 3.0 445.0 15.0 446.0 21.0V245.0C463.0 248.0 479.0 255.0 485.0 262.0L421.0 312.0ZM-124.0 -64.0 -90.0 -127.0C-81.0 -125.0 -72.0 -119.0 -66.0 -107.0C168.0 -95.0 336.0 -83.0 455.0 -72.0L454.0 -52.0C212.0 -59.0 -19.0 -65.0 -124.0 -64.0ZM360.0 15.0 349.0 5.0C399.0 -30.0 463.0 -95.0 481.0 -146.0C532.0 -178.0 557.0 -62.0 360.0 15.0Z"/></g>
<g fill="black" opacity=".8" transform="translate(700 200) scale(0.1 -0.1)"><path d="M0.0 0.0V253.0H431.0V286.0H5.0L-45.0 310.0V-16.0H-39.0C-19.0 -16.0 0.0 -5.0 0.0 0.0ZM255.0 474.0 177.0 483.0V-80.0H221.0V448.0C244.0 450.0 252.0 459.0 255.0 474.0ZM449.0 434.0 411.0 390.0H-95.0L-87.0 359.0H494.0C507.0 359.0 518.0 363.0 520.0 374.0C493.0 402.0 449.0 434.0 449.0 434.0ZM420.0 68.0H-23.0V38.0H420.0ZM420.0 178.0H-23.0V148.0H420.0ZM391.0 284.0H400.0V4.0H406.0C422.0 4.0 444.0 16.0 445.0 23.0V247.0C462.0 251.0 479.0 258.0 486.0 265.0L420.0 317.0ZM-120.0 -66.0 -88.0 -130.0C-78.0 -126.0 -69.0 -121.0 -63.0 -109.0C163.0 -96.0 328.0 -83.0 446.0 -73.0L444.0 -52.0C208.0 -59.0 -19.0 -67.0 -120.0 -66.0ZM347.0 15.0 336.0 3.0C392.0 -31.0 459.0 -96.0 479.0 -147.0C531.0 -180.0 559.0 -60.0 347.0 15.0Z"/></g>
<g fill="red" transform="translate(800 200) scale(0.1 -0.1)"><path d="M0.0 0.0V241.0H334.0V269.0H6.0L-128.0 321.0V-39.0H-110.0C-57.0 -39.0 0.0 -12.0 0.0 0.0ZM232.0 451.0 67.0 465.0V-89.0H200.0V425.0C224.0 429.0 230.0 438.0 232.0 451.0ZM343.0 445.0 275.0 361.0H-176.0L-168.0 333.0H438.0C453.0 333.0 464.0 338.0 467.0 349.0C420.0 389.0 343.0 445.0 343.0 445.0ZM328.0 49.0H-52.0V21.0H328.0ZM328.0 159.0H-52.0V131.0H328.0ZM260.0 268.0H270.0V-6.0H293.0C338.0 -6.0 403.0 21.0 404.0 29.0V221.0C422.0 225.0 434.0 233.0 439.0 240.0L319.0 331.0ZM-192.0 -66.0 -126.0 -198.0C-115.0 -196.0 -104.0 -189.0 -97.0 -176.0C122.0 -133.0 263.0 -102.0 359.0 -75.0V-60.0C125.0 -65.0 -94.0 -68.0 -192.0 -66.0ZM270.0 -14.0 262.0 -19.0C288.0 -58.0 318.0 -116.0 326.0 -170.0C436.0 -251.0 547.0 -44.0 270.0 -14.0Z"/></g>
<g fill="black" opacity=".8" transform="translate(800 200) scale(0.1 -0.1)"><path d="M0.0 0.0V238.0H338.0V266.0H7.0L-130.0 319.0V-40.0H-112.0C-59.0 -40.0 0.0 -12.0 0.0 0.0ZM236.0 452.0 69.0 468.0V-90.0H204.0V426.0C228.0 431.0 234.0 440.0 236.0 452.0ZM344.0 441.0 277.0 361.0H-168.0L-160.0 331.0H436.0C451.0 331.0 463.0 336.0 466.0 348.0C419.0 387.0 344.0 441.0 344.0 441.0ZM334.0 51.0H-54.0V23.0H334.0ZM334.0 159.0H-54.0V129.0H334.0ZM261.0 266.0H271.0V-5.0H294.0C341.0 -5.0 405.0 22.0 406.0 30.0V218.0C425.0 222.0 438.0 230.0 444.0 238.0L321.0 330.0ZM-195.0 -64.0 -129.0 -195.0C-118.0 -193.0 -107.0 -185.0 -99.0 -173.0C122.0 -130.0 267.0 -99.0 366.0 -73.0V-57.0C128.0 -64.0 -95.0 -66.0 -195.0 -64.0ZM264.0 -11.0 254.0 -17.0C287.0 -57.0 323.0 -117.0 336.0 -169.0C446.0 -249.0 562.0 -38.0 264.0 -11.0Z"/></g>
<g fill="red" transform="translate(900 200) scale(0.1 -0.1)"><path d="M0.0 0.0V243.0H372.0V273.0H5.0L-44.0 298.0V-15.0H-37.0C-18.0 -15.0 0.0 -5.0 0.0 0.0ZM229.0 478.0 152.0 487.0V-86.0H196.0V453.0C218.0 455.0 226.0 464.0 229.0 478.0ZM401.0 420.0 367.0 379.0H-101.0L-93.0 349.0H442.0C456.0 349.0 465.0 354.0 467.0 365.0C442.0 390.0 401.0 420.0 401.0 420.0ZM363.0 57.0H-20.0V27.0H363.0ZM363.0 164.0H-20.0V134.0H363.0ZM340.0 273.0H349.0V3.0H355.0C370.0 3.0 392.0 15.0 393.0 22.0V237.0C410.0 240.0 426.0 247.0 432.0 254.0L368.0 304.0ZM-97.0 -75.0 -64.0 -136.0C-55.0 -134.0 -47.0 -128.0 -41.0 -116.0C153.0 -105.0 295.0 -94.0 394.0 -84.0L393.0 -65.0C189.0 -71.0 -7.0 -76.0 -97.0 -75.0ZM298.0 -1.0 287.0 -11.0C335.0 -43.0 398.0 -105.0 414.0 -153.0C465.0 -184.0 489.0 -71.0 298.0 -1.0Z"/></g>
<g fill="black" opacity=".8" transform="translate(900 200) scale(0.1 -0.1)"><path d="M0.0 0.0V238.0H378.0V268.0H5.0L-42.0 291.0V-14.0H-36.0C-18.0 -14.0 0.0 -4.0 0.0 0.0ZM229.0 473.0 155.0 481.0V-88.0H197.0V448.0C219.0 451.0 226.0 459.0 229.0 473.0ZM408.0 418.0 373.0 378.0H-101.0L-93.0 348.0H450.0C462.0 348.0 472.0 352.0 474.0 363.0C449.0 389.0 408.0 418.0 408.0 418.0ZM368.0 57.0H-22.0V28.0H368.0ZM368.0 161.0H-22.0V133.0H368.0ZM345.0 268.0H354.0V3.0H359.0C374.0 3.0 395.0 13.0 395.0 21.0V234.0C412.0 237.0 427.0 243.0 433.0 250.0L372.0 298.0ZM-100.0 -74.0 -68.0 -134.0C-59.0 -131.0 -51.0 -126.0 -45.0 -115.0C158.0 -105.0 304.0 -96.0 406.0 -88.0L404.0 -68.0C194.0 -71.0 -8.0 -76.0 -100.0 -74.0ZM315.0 -3.0 304.0 -12.0C343.0 -42.0 402.0 -105.0 416.0 -151.0C466.0 -180.0 486.0 -73.0 315.0 -3.0Z"/></g>
<g fill="red" transform="translate(1000 200) scale(0.1 -0.1)"><path d="M0.0 0.0V227.0H308.0V255.0H6.0L-123.0 305.0V-37.0H-106.0C-55.0 -37.0 0.0 -11.0 0.0 0.0ZM218.0 459.0 58.0 473.0V-99.0H186.0V433.0C210.0 437.0 216.0 446.0 218.0 459.0ZM314.0 432.0 249.0 351.0H-160.0L-152.0 323.0H405.0C420.0 323.0 431.0 328.0 433.0 339.0C388.0 377.0 314.0 432.0 314.0 432.0ZM296.0 50.0H-60.0V22.0H296.0ZM296.0 152.0H-60.0V124.0H296.0ZM229.0 255.0H239.0V-10.0H261.0C304.0 -10.0 366.0 15.0 367.0 24.0V209.0C385.0 213.0 397.0 221.0 403.0 228.0L286.0 315.0ZM-171.0 -66.0 -109.0 -192.0C-98.0 -190.0 -87.0 -183.0 -80.0 -171.0C116.0 -131.0 245.0 -102.0 332.0 -77.0V-62.0C119.0 -67.0 -81.0 -68.0 -171.0 -66.0ZM219.0 -10.0 211.0 -16.0C248.0 -57.0 293.0 -120.0 311.0 -177.0C427.0 -243.0 508.0 -27.0 219.0 -10.0Z"/></g>
<g fill="black" opacity=".8" transform="translate(1000 200) scale(0.1 -0.1)"><path d="M0.0 0.0V230.0H301.0V256.0H6.0L-120.0 305.0V-37.0H-103.0C-54.0 -37.0 0.0 -11.0 0.0 0.0ZM213.0 458.0 58.0 472.0V-97.0H181.0V432.0C205.0 437.0 211.0 445.0 213.0 458.0ZM313.0 434.0 247.0 352.0H-168.0L-160.0 324.0H406.0C421.0 324.0 432.0 328.0 435.0 340.0C388.0 379.0 313.0 434.0 313.0 434.0ZM288.0 48.0H-57.0V21.0H288.0ZM288.0 153.0H-57.0V124.0H288.0ZM225.0 256.0H235.0V-10.0H256.0C299.0 -10.0 359.0 15.0 360.0 23.0V212.0C377.0 216.0 389.0 223.0 394.0 231.0L281.0 315.0ZM-170.0 -68.0 -107.0 -195.0C-96.0 -193.0 -86.0 -185.0 -78.0 -173.0C112.0 -133.0 237.0 -104.0 321.0 -79.0V-64.0C113.0 -70.0 -82.0 -70.0 -170.0 -68.0ZM227.0 -14.0 218.0 -19.0C249.0 -59.0 287.0 -120.0 301.0 -177.0C416.0 -246.0 490.0 -33.0 227.0 -14.0Z"/></g>
<g fill="red" transform="translate(1100 200) scale(0.1 -0.1)"><path d="M0.0 0.0V243.0H422.0V273.0H5.0L-44.0 298.0V-15.0H-37.0C-18.0 -15.0 0.0 -5.0 0.0 0.0ZM256.0 478.0 179.0 487.0V-86.0H223.0V453.0C245.0 455.0 253.0 464.0 256.0 478.0ZM446.0 422.0 410.0 379.0H-86.0L-78.0 349.0H490.0C504.0 349.0 513.0 354.0 516.0 365.0C488.0 391.0 446.0 422.0 446.0 422.0ZM415.0 57.0H-20.0V27.0H415.0ZM415.0 164.0H-20.0V134.0H415.0ZM386.0 273.0H395.0V3.0H401.0C416.0 3.0 438.0 15.0 439.0 22.0V237.0C456.0 240.0 472.0 247.0 478.0 254.0L414.0 304.0ZM-101.0 -75.0 -68.0 -138.0C-59.0 -135.0 -49.0 -130.0 -44.0 -117.0C174.0 -105.0 332.0 -94.0 442.0 -83.0L441.0 -63.0C214.0 -70.0 -2.0 -76.0 -101.0 -75.0ZM349.0 -1.0 338.0 -11.0C386.0 -43.0 449.0 -105.0 465.0 -153.0C516.0 -184.0 540.0 -71.0 349.0 -1.0Z"/></g>
<g fill="black" opacity=".8" transform="translate(1100 200) scale(0.1 -0.1)"><path d="M0.0 0.0V244.0H417.0V275.0H5.0L-44.0 300.0V-15.0H-38.0C-18.0 -15.0 0.0 -5.0 0.0 0.0ZM251.0 477.0 175.0 485.0V-86.0H218.0V452.0C240.0 454.0 249.0 462.0 251.0 477.0ZM442.0 425.0 405.0 383.0H-94.0L-85.0 352.0H487.0C500.0 352.0 510.0 357.0 512.0 367.0C485.0 394.0 442.0 425.0 442.0 425.0ZM410.0 59.0H-19.0V29.0H410.0ZM410.0 166.0H-19.0V137.0H410.0ZM382.0 275.0H391.0V4.0H397.0C412.0 4.0 433.0 15.0 434.0 23.0V239.0C452.0 242.0 467.0 249.0 474.0 256.0L410.0 306.0ZM-101.0 -73.0 -69.0 -136.0C-59.0 -133.0 -51.0 -127.0 -45.0 -116.0C173.0 -102.0 331.0 -90.0 442.0 -80.0L441.0 -60.0C213.0 -66.0 -3.0 -74.0 -101.0 -73.0ZM349.0 2.0 338.0 -8.0C386.0 -41.0 446.0 -104.0 461.0 -153.0C513.0 -184.0 538.0 -71.0 349.0 2.0Z"/></g>
<g fill="red" transform="translate(1200 200) scale(0.1 -0.1)"><path d="M0.0 0.0V226.0H324.0V254.0H7.0L-126.0 305.0V-38.0H-108.0C-56.0 -38.0 0.0 -11.0 0.0 0.0ZM231.0 458.0 68.0 472.0V-100.0H199.0V432.0C223.0 436.0 229.0 445.0 231.0 458.0ZM341.0 433.0 274.0 350.0H-163.0L-155.0 322.0H435.0C449.0 322.0 460.0 327.0 463.0 338.0C417.0 377.0 341.0 433.0 341.0 433.0ZM318.0 49.0H-52.0V21.0H318.0ZM318.0 151.0H-52.0V123.0H318.0ZM249.0 254.0H259.0V-11.0H282.0C326.0 -11.0 390.0 15.0 391.0 23.0V207.0C410.0 211.0 421.0 219.0 427.0 227.0L307.0 316.0ZM-179.0 -67.0 -114.0 -197.0C-103.0 -195.0 -92.0 -188.0 -85.0 -175.0C126.0 -133.0 263.0 -103.0 356.0 -76.0V-61.0C129.0 -66.0 -83.0 -69.0 -179.0 -67.0ZM243.0 -11.0 235.0 -17.0C272.0 -58.0 317.0 -121.0 335.0 -179.0C456.0 -247.0 540.0 -23.0 243.0 -11.0Z"/></g>
<g fill="black" opacity=".8" transform="translate(1200 200) scale(0.1 -0.1)"><path d="M0.0 0.0V227.0H328.0V254.0H7.0L-127.0 306.0V-39.0H-109.0C-57.0 -39.0 0.0 -11.0 0.0 0.0ZM232.0 452.0 69.0 468.0V-102.0H200.0V426.0C224.0 431.0 230.0 439.0 232.0 452.0ZM340.0 437.0 272.0 351.0H-164.0L-156.0 322.0H434.0C450.0 322.0 461.0 327.0 464.0 339.0C417.0 379.0 340.0 437.0 340.0 437.0ZM318.0 47.0H-54.0V19.0H318.0ZM318.0 151.0H-54.0V122.0H318.0ZM256.0 254.0H266.0V-11.0H289.0C334.0 -11.0 397.0 14.0 398.0 22.0V208.0C417.0 212.0 430.0 220.0 434.0 228.0L314.0 316.0ZM-174.0 -68.0 -110.0 -199.0C-98.0 -197.0 -87.0 -190.0 -80.0 -177.0C132.0 -134.0 271.0 -104.0 366.0 -78.0L365.0 -62.0C136.0 -69.0 -78.0 -70.0 -174.0 -68.0ZM249.0 -13.0 240.0 -20.0C276.0 -60.0 319.0 -124.0 336.0 -180.0C455.0 -251.0 543.0 -29.0 249.0 -13.0Z"/></g>
<g fill="red" transform="translate(1300 200) scale(0.1 -0.1)"><path d="M0.0 0.0V243.0H403.0V273.0H6.0L-43.0 298.0V-15.0H-36.0C-17.0 -15.0 0.0 -5.0 0.0 0.0ZM248.0 477.0 172.0 486.0V-87.0H215.0V452.0C237.0 454.0 246.0 463.0 248.0 477.0ZM442.0 420.0 406.0 378.0H-94.0L-86.0 348.0H484.0C498.0 348.0 507.0 353.0 510.0 364.0C483.0 389.0 442.0 420.0 442.0 420.0ZM398.0 56.0H-19.0V26.0H398.0ZM398.0 163.0H-19.0V133.0H398.0ZM374.0 273.0H383.0V3.0H389.0C404.0 3.0 425.0 15.0 426.0 21.0V237.0C444.0 240.0 460.0 247.0 465.0 254.0L402.0 303.0ZM-102.0 -78.0 -69.0 -140.0C-60.0 -138.0 -51.0 -132.0 -45.0 -120.0C174.0 -108.0 333.0 -97.0 445.0 -87.0L444.0 -67.0C215.0 -73.0 -2.0 -79.0 -102.0 -78.0ZM354.0 0.0 342.0 -9.0C386.0 -43.0 437.0 -105.0 448.0 -153.0C497.0 -187.0 527.0 -77.0 354.0 0.0Z"/></g>
<g fill="black" opacity=".8" transform="translate(1300 200) scale(0.1 -0.1)"><path d="M0.0 0.0V238.0H410.0V270.0H6.0L-43.0 294.0V-14.0H-37.0C-18.0 -14.0 0.0 -5.0 0.0 0.0ZM249.0 478.0 174.0 486.0V-89.0H217.0V453.0C239.0 455.0 247.0 464.0 249.0 478.0ZM440.0 421.0 403.0 378.0H-94.0L-85.0 348.0H484.0C497.0 348.0 507.0 353.0 509.0 363.0C483.0 390.0 440.0 421.0 440.0 421.0ZM405.0 53.0H-17.0V24.0H405.0ZM405.0 159.0H-17.0V130.0H405.0ZM378.0 269.0H387.0V3.0H392.0C408.0 3.0 428.0 14.0 428.0 22.0V235.0C447.0 238.0 461.0 244.0 468.0 251.0L405.0 300.0ZM-91.0 -77.0 -59.0 -139.0C-50.0 -136.0 -41.0 -131.0 -35.0 -119.0C179.0 -106.0 333.0 -94.0 441.0 -84.0L440.0 -64.0C217.0 -70.0 5.0 -78.0 -91.0 -77.0ZM351.0 -5.0 340.0 -15.0C383.0 -46.0 440.0 -109.0 453.0 -157.0C504.0 -187.0 529.0 -77.0 351.0 -5.0Z"/></g>
<g fill="red" transform="translate(1400 200) scale(0.1 -0.1)"><path d="M0.0 0.0V218.0H317.0V246.0H6.0L-125.0 297.0V-38.0H-107.0C-56.0 -38.0 0.0 -11.0 0.0 0.0ZM229.0 450.0 67.0 464.0V-108.0H197.0V424.0C221.0 428.0 227.0 437.0 229.0 450.0ZM335.0 440.0 266.0 345.0H-162.0L-154.0 317.0H431.0C446.0 317.0 457.0 322.0 459.0 333.0C414.0 376.0 335.0 440.0 335.0 440.0ZM309.0 41.0H-56.0V13.0H309.0ZM309.0 144.0H-56.0V116.0H309.0ZM258.0 246.0H268.0V-19.0H291.0C334.0 -19.0 397.0 6.0 398.0 15.0V200.0C416.0 204.0 428.0 212.0 433.0 219.0L316.0 307.0ZM-154.0 -75.0 -91.0 -203.0C-80.0 -201.0 -69.0 -194.0 -62.0 -182.0C142.0 -141.0 275.0 -112.0 366.0 -86.0L365.0 -71.0C145.0 -76.0 -61.0 -77.0 -154.0 -75.0ZM257.0 -24.0 249.0 -30.0C286.0 -70.0 331.0 -134.0 349.0 -191.0C467.0 -258.0 550.0 -39.0 257.0 -24.0Z"/></g>
<g fill="black" opacity=".8" transform="translate(1400 200) scale(0.1 -0.1)"><path d="M0.0 0.0V221.0H323.0V247.0H6.0L-125.0 299.0V-38.0H-107.0C-56.0 -38.0 0.0 -10.0 0.0 0.0ZM231.0 452.0 70.0 467.0V-109.0H198.0V426.0C222.0 430.0 228.0 439.0 231.0 452.0ZM340.0 434.0 271.0 345.0H-162.0L-154.0 317.0H436.0C451.0 317.0 462.0 322.0 465.0 333.0C417.0 374.0 340.0 434.0 340.0 434.0ZM311.0 45.0H-54.0V18.0H311.0ZM311.0 147.0H-54.0V118.0H311.0ZM254.0 248.0H265.0V-15.0H287.0C332.0 -15.0 394.0 10.0 395.0 18.0V202.0C413.0 206.0 426.0 214.0 430.0 222.0L312.0 309.0ZM-164.0 -70.0 -99.0 -201.0C-88.0 -199.0 -77.0 -192.0 -69.0 -179.0C138.0 -136.0 275.0 -107.0 367.0 -80.0L366.0 -65.0C141.0 -71.0 -70.0 -72.0 -164.0 -70.0ZM242.0 -15.0 233.0 -21.0C271.0 -62.0 318.0 -128.0 338.0 -186.0C461.0 -253.0 535.0 -24.0 242.0 -15.0Z"/></g>
</svg>
