<?xml version="1.0" encoding="UTF-8"?>
<svg width="1700" height="500" xmlns="http://www.w3.org/2000/svg">
<rect width="100%" height="100%" fill="white"/>
<g fill="green" transform="translate(100 100) scale(0.1 -0.1)"><path d="M0.0 0.0H-229.0V-37.0H0.0ZM1.0 346.0H-227.0V309.0H1.0ZM7.0 394.0H-227.0V357.0H7.0ZM-33.0 472.0H-31.0V-103.0H-21.0C-2.0 -103.0 20.0 -88.0 22.0 -82.0V428.0C42.0 431.0 60.0 439.0 68.0 448.0L0.0 509.0ZM-211.0 445.0H-253.0V-471.0C-253.0 -498.0 -257.0 -503.0 -292.0 -518.0L-266.0 -596.0C-252.0 -593.0 -223.0 -567.0 -231.0 -524.0L-252.0 -545.0L-199.0 -527.0V438.0ZM-253.0 507.0V400.0C-217.0 400.0 -199.0 400.0 -199.0 400.0V472.0H-184.0ZM-287.0 -526.0 -251.0 -574.0C-147.0 -490.0 -45.0 -399.0 8.0 -356.0L-2.0 -338.0C-121.0 -419.0 -236.0 -497.0 -287.0 -526.0ZM-98.0 -182.0 -116.0 -190.0C-58.0 -274.0 21.0 -411.0 38.0 -506.0C103.0 -564.0 148.0 -398.0 -98.0 -182.0Z"/></g>
<g fill="green" transform="translate(200 100) scale(0.1 -0.1)"><path d="M0.0 0.0H-227.0V-34.0H0.0ZM-4.0 343.0H-218.0V309.0H-4.0ZM15.0 404.0H-202.0V370.0H15.0ZM-55.0 487.0H-80.0V-81.0H-57.0C-1.0 -81.0 50.0 -49.0 51.0 -42.0V428.0C70.0 431.0 85.0 438.0 92.0 447.0L-3.0 549.0ZM-195.0 452.0H-304.0V-398.0C-304.0 -431.0 -310.0 -444.0 -348.0 -465.0L-271.0 -648.0C-232.0 -631.0 -187.0 -576.0 -203.0 -474.0L-279.0 -526.0L-160.0 -477.0V430.0ZM-304.0 554.0V414.0C-205.0 414.0 -161.0 414.0 -161.0 414.0V487.0H-147.0ZM-345.0 -482.0 -243.0 -627.0C-118.0 -505.0 -26.0 -386.0 21.0 -323.0L16.0 -313.0C-127.0 -387.0 -276.0 -455.0 -345.0 -482.0ZM-76.0 -156.0 -91.0 -160.0C-54.0 -261.0 -27.0 -394.0 -35.0 -509.0C88.0 -651.0 248.0 -371.0 -76.0 -156.0Z"/></g>
<g fill="green" transform="translate(300 100) scale(0.1 -0.1)"><path d="M0.0 0.0H-81.0V-18.0H0.0ZM0.0 278.0H-80.0V260.0H0.0ZM6.0 295.0H-80.0V277.0H6.0ZM-15.0 319.0H-18.0V-14.0H-12.0C-2.0 -14.0 7.0 -6.0 8.0 -3.0V299.0C16.0 300.0 24.0 303.0 28.0 308.0L0.0 337.0ZM-71.0 310.0H-92.0V-248.0C-92.0 -264.0 -94.0 -266.0 -115.0 -274.0L-108.0 -314.0C-102.0 -314.0 -85.0 -302.0 -87.0 -279.0L-97.0 -289.0L-65.0 -277.0V306.0ZM-92.0 335.0V284.0C-74.0 284.0 -65.0 284.0 -65.0 284.0V319.0H-58.0ZM-118.0 -280.0 -99.0 -301.0C-54.0 -254.0 -10.0 -204.0 12.0 -180.0L7.0 -172.0C-46.0 -218.0 -96.0 -263.0 -118.0 -280.0ZM-40.0 -74.0 -49.0 -77.0C-21.0 -128.0 21.0 -210.0 32.0 -264.0C64.0 -295.0 85.0 -210.0 -40.0 -74.0Z"/></g>
<g fill="green" transform="translate(400 100) scale(0.1 -0.1)"><path d="M0.0 0.0H-102.0V-17.0H0.0ZM-7.0 271.0H-95.0V254.0H-7.0ZM12.0 305.0H-78.0V288.0H12.0ZM-20.0 334.0H-47.0V3.0H-37.0C-6.0 3.0 10.0 21.0 10.0 24.0V303.0C19.0 304.0 26.0 306.0 30.0 311.0L0.0 361.0ZM-88.0 308.0H-140.0V-224.0C-140.0 -242.0 -143.0 -248.0 -161.0 -257.0L-129.0 -352.0C-108.0 -345.0 -85.0 -319.0 -90.0 -266.0L-130.0 -291.0L-72.0 -263.0V297.0ZM-140.0 366.0V298.0C-93.0 298.0 -73.0 298.0 -73.0 298.0V334.0H-67.0ZM-168.0 -274.0 -109.0 -344.0C-50.0 -273.0 -11.0 -204.0 10.0 -168.0L7.0 -164.0C-61.0 -212.0 -133.0 -256.0 -168.0 -274.0ZM-28.0 -58.0 -37.0 -59.0C-21.0 -124.0 -15.0 -205.0 -25.0 -275.0C31.0 -359.0 121.0 -216.0 -28.0 -58.0Z"/></g>
<g fill="green" transform="translate(500 100) scale(0.1 -0.1)"><path d="M0.0 0.0H-241.0V-27.0H0.0ZM5.0 -347.0H-230.0V-375.0H5.0ZM10.0 -100.0H-230.0V-127.0H10.0ZM-21.0 23.0H-19.0V-418.0H-12.0C2.0 -418.0 18.0 -408.0 19.0 -404.0V-11.0C36.0 -8.0 50.0 -2.0 56.0 5.0L4.0 52.0ZM-221.0 1.0H-251.0V-713.0C-251.0 -735.0 -254.0 -738.0 -284.0 -750.0L-272.0 -804.0C-263.0 -802.0 -239.0 -786.0 -244.0 -755.0L-258.0 -769.0L-212.0 -753.0V-4.0ZM-251.0 48.0V-29.0C-225.0 -29.0 -212.0 -29.0 -212.0 -29.0V23.0H-201.0ZM-285.0 -759.0 -259.0 -790.0C-160.0 -728.0 -65.0 -663.0 -12.0 -629.0L-19.0 -616.0C-131.0 -678.0 -237.0 -738.0 -285.0 -759.0ZM-125.0 -465.0 -139.0 -472.0C-75.0 -550.0 13.0 -679.0 30.0 -771.0C81.0 -816.0 107.0 -670.0 -125.0 -465.0Z"/></g>
<g fill="green" transform="translate(600 100) scale(0.1 -0.1)"><path d="M0.0 0.0H-209.0V-25.0H0.0ZM11.0 -332.0H-189.0V-357.0H11.0ZM28.0 -76.0H-169.0V-101.0H28.0ZM-14.0 33.0H-33.0V-382.0H-15.0C28.0 -382.0 67.0 -358.0 68.0 -353.0V-17.0C86.0 -14.0 100.0 -7.0 106.0 1.0L28.0 85.0ZM-174.0 -21.0H-261.0V-647.0C-261.0 -672.0 -266.0 -682.0 -290.0 -698.0L-232.0 -834.0C-202.0 -821.0 -169.0 -780.0 -180.0 -703.0L-236.0 -743.0L-146.0 -699.0V-39.0ZM-261.0 80.0V-21.0C-182.0 -21.0 -148.0 -21.0 -148.0 -21.0V33.0H-138.0ZM-295.0 -716.0 -212.0 -820.0C-93.0 -725.0 -7.0 -637.0 39.0 -588.0L35.0 -581.0C-99.0 -640.0 -235.0 -694.0 -295.0 -716.0ZM-72.0 -436.0 -83.0 -439.0C-37.0 -531.0 -5.0 -653.0 -8.0 -760.0C102.0 -883.0 229.0 -624.0 -72.0 -436.0Z"/></g>
<g fill="green" transform="translate(700 100) scale(0.1 -0.1)"><path d="M0.0 0.0H-375.0V-41.0H0.0ZM1.0 204.0H-373.0V164.0H1.0ZM8.0 550.0H-374.0V509.0H8.0ZM-47.0 431.0H-43.0V-38.0H-32.0C-13.0 -38.0 12.0 -24.0 15.0 -20.0V379.0C40.0 384.0 62.0 393.0 71.0 404.0L-11.0 474.0ZM-351.0 391.0H-397.0V-371.0C-397.0 -395.0 -402.0 -402.0 -441.0 -422.0L-400.0 -501.0C-385.0 -495.0 -357.0 -463.0 -373.0 -419.0L-393.0 -444.0L-337.0 -424.0V383.0ZM-397.0 470.0V352.0C-357.0 352.0 -337.0 352.0 -337.0 352.0V431.0H-321.0ZM-425.0 -428.0 -391.0 -479.0C-255.0 -397.0 -123.0 -307.0 -51.0 -263.0L-60.0 -242.0C-213.0 -323.0 -360.0 -400.0 -425.0 -428.0ZM-92.0 -180.0 -110.0 -191.0C-44.0 -266.0 43.0 -394.0 61.0 -485.0C128.0 -542.0 170.0 -370.0 -92.0 -180.0Z"/></g>
<g fill="green" transform="translate(800 100) scale(0.1 -0.1)"><path d="M0.0 0.0H-371.0V-37.0H0.0ZM1.0 169.0H-375.0V132.0H1.0ZM16.0 536.0H-359.0V498.0H16.0ZM-76.0 419.0H-98.0V-40.0H-70.0C-5.0 -40.0 64.0 -6.0 66.0 2.0V348.0C91.0 352.0 108.0 361.0 117.0 372.0L-11.0 497.0ZM-307.0 381.0H-439.0V-279.0C-439.0 -313.0 -446.0 -328.0 -490.0 -354.0L-393.0 -559.0C-349.0 -537.0 -301.0 -473.0 -321.0 -358.0L-408.0 -419.0L-264.0 -360.0V355.0ZM-439.0 487.0V339.0C-319.0 339.0 -265.0 339.0 -265.0 339.0V419.0H-247.0ZM-473.0 -366.0 -369.0 -533.0C-209.0 -417.0 -87.0 -307.0 -23.0 -248.0L-28.0 -235.0C-209.0 -294.0 -394.0 -346.0 -473.0 -366.0ZM-92.0 -154.0 -105.0 -159.0C-55.0 -251.0 -16.0 -380.0 -17.0 -494.0C138.0 -639.0 305.0 -304.0 -92.0 -154.0Z"/></g>
<g fill="green" transform="translate(900 100) scale(0.1 -0.1)"><path d="M0.0 0.0H-261.0V-42.0H0.0ZM0.0 465.0H-259.0V422.0H0.0ZM6.0 235.0H-258.0V193.0H6.0ZM-41.0 457.0H-30.0V-119.0H-20.0C0.0 -119.0 30.0 -103.0 32.0 -95.0V407.0C55.0 411.0 78.0 421.0 86.0 430.0L-1.0 500.0ZM-240.0 429.0H-289.0V-454.0C-289.0 -483.0 -293.0 -488.0 -326.0 -505.0L-287.0 -591.0C-270.0 -585.0 -242.0 -552.0 -253.0 -508.0L-278.0 -532.0L-227.0 -519.0V421.0ZM-289.0 503.0V374.0C-247.0 374.0 -227.0 374.0 -227.0 374.0V457.0H-209.0ZM-312.0 -501.0 -277.0 -564.0C-158.0 -475.0 -40.0 -377.0 22.0 -331.0L11.0 -311.0C-124.0 -393.0 -255.0 -472.0 -312.0 -501.0ZM-25.0 -263.0 -43.0 -273.0C13.0 -339.0 83.0 -448.0 99.0 -527.0C173.0 -586.0 228.0 -419.0 -25.0 -263.0Z"/></g>
<g fill="green" transform="translate(1000 100) scale(0.1 -0.1)"><path d="M0.0 0.0H-249.0V-39.0H0.0ZM1.0 476.0H-239.0V437.0H1.0ZM9.0 252.0H-238.0V213.0H9.0ZM-85.0 487.0H-82.0V-106.0H-56.0C-3.0 -106.0 67.0 -72.0 68.0 -63.0V436.0C85.0 439.0 97.0 446.0 101.0 453.0L-21.0 553.0ZM-205.0 475.0H-330.0V-333.0C-330.0 -368.0 -337.0 -384.0 -384.0 -406.0L-307.0 -624.0C-261.0 -606.0 -205.0 -546.0 -220.0 -425.0L-309.0 -483.0L-165.0 -436.0V450.0ZM-330.0 572.0V403.0C-217.0 403.0 -166.0 403.0 -166.0 403.0V487.0H-148.0ZM-369.0 -426.0 -283.0 -597.0C-135.0 -479.0 -20.0 -357.0 38.0 -291.0L34.0 -279.0C-122.0 -344.0 -289.0 -403.0 -369.0 -426.0ZM3.0 -237.0 -11.0 -242.0C17.0 -313.0 39.0 -412.0 35.0 -500.0C169.0 -636.0 351.0 -367.0 3.0 -237.0Z"/></g>
<g fill="green" transform="translate(1100 100) scale(0.1 -0.1)"><path d="M0.0 0.0H-251.0V-36.0H0.0ZM1.0 386.0H-246.0V350.0H1.0ZM10.0 321.0H-246.0V285.0H10.0ZM-34.0 465.0H-26.0V-111.0H-18.0C0.0 -111.0 23.0 -98.0 26.0 -92.0V422.0C47.0 425.0 65.0 434.0 72.0 442.0L-1.0 502.0ZM-230.0 421.0H-272.0V-482.0C-272.0 -508.0 -275.0 -513.0 -309.0 -527.0L-287.0 -600.0C-274.0 -596.0 -245.0 -574.0 -252.0 -532.0L-272.0 -553.0L-219.0 -537.0V414.0ZM-272.0 503.0V395.0C-236.0 395.0 -219.0 395.0 -219.0 395.0V465.0H-204.0ZM-307.0 -536.0 -274.0 -583.0C-155.0 -491.0 -41.0 -395.0 22.0 -347.0L12.0 -329.0C-122.0 -419.0 -251.0 -505.0 -307.0 -536.0ZM-216.0 -66.0 -233.0 -76.0C-149.0 -163.0 -36.0 -313.0 -12.0 -421.0C59.0 -478.0 95.0 -288.0 -216.0 -66.0Z"/></g>
<g fill="green" transform="translate(1200 100) scale(0.1 -0.1)"><path d="M0.0 0.0H-268.0V-33.0H0.0ZM0.0 365.0H-251.0V332.0H0.0ZM25.0 321.0H-233.0V288.0H25.0ZM-60.0 480.0H-62.0V-118.0H-38.0C14.0 -118.0 79.0 -88.0 80.0 -80.0V423.0C102.0 426.0 117.0 435.0 124.0 445.0L2.0 551.0ZM-206.0 448.0H-322.0V-418.0C-322.0 -452.0 -327.0 -466.0 -364.0 -488.0L-288.0 -666.0C-249.0 -650.0 -205.0 -596.0 -219.0 -494.0L-293.0 -547.0L-168.0 -499.0V425.0ZM-322.0 556.0V409.0C-216.0 409.0 -169.0 409.0 -169.0 409.0V480.0H-155.0ZM-358.0 -492.0 -267.0 -646.0C-115.0 -519.0 -7.0 -395.0 51.0 -326.0L47.0 -317.0C-113.0 -395.0 -281.0 -465.0 -358.0 -492.0ZM-183.0 -85.0 -195.0 -90.0C-138.0 -189.0 -89.0 -321.0 -81.0 -440.0C63.0 -575.0 207.0 -259.0 -183.0 -85.0Z"/></g>
<g fill="green" transform="translate(1300 100) scale(0.1 -0.1)"><path d="M0.0 0.0H-247.0V-40.0H0.0ZM1.0 347.0H-247.0V307.0H1.0ZM9.0 400.0H-247.0V360.0H9.0ZM-37.0 470.0H-36.0V-106.0H-25.0C-4.0 -106.0 19.0 -89.0 21.0 -83.0V424.0C42.0 427.0 61.0 435.0 69.0 445.0L-2.0 509.0ZM-227.0 446.0H-272.0V-468.0C-272.0 -497.0 -276.0 -503.0 -313.0 -518.0L-287.0 -603.0C-272.0 -600.0 -241.0 -572.0 -248.0 -526.0L-271.0 -548.0L-214.0 -529.0V439.0ZM-272.0 507.0V393.0C-233.0 393.0 -214.0 393.0 -214.0 393.0V470.0H-198.0ZM-306.0 -528.0 -267.0 -579.0C-161.0 -491.0 -56.0 -395.0 -3.0 -351.0L-14.0 -332.0C-136.0 -416.0 -254.0 -497.0 -306.0 -528.0ZM-104.0 -174.0 -124.0 -182.0C-69.0 -273.0 6.0 -418.0 22.0 -518.0C90.0 -580.0 140.0 -408.0 -104.0 -174.0Z"/></g>
<g fill="green" transform="translate(1400 100) scale(0.1 -0.1)"><path d="M0.0 0.0H-212.0V-36.0H0.0ZM-6.0 353.0H-203.0V316.0H-6.0ZM18.0 414.0H-182.0V378.0H18.0ZM-36.0 487.0H-67.0V-73.0H-41.0C20.0 -73.0 74.0 -39.0 75.0 -31.0V423.0C94.0 426.0 111.0 433.0 118.0 443.0L18.0 553.0ZM-169.0 448.0H-286.0V-396.0C-286.0 -431.0 -291.0 -444.0 -327.0 -465.0L-245.0 -659.0C-204.0 -641.0 -156.0 -582.0 -173.0 -475.0L-253.0 -530.0L-132.0 -478.0V425.0ZM-286.0 559.0V409.0C-179.0 409.0 -133.0 409.0 -133.0 409.0V487.0H-118.0ZM-326.0 -475.0 -213.0 -632.0C-91.0 -500.0 -1.0 -372.0 43.0 -305.0L37.0 -295.0C-106.0 -374.0 -256.0 -447.0 -326.0 -475.0ZM-55.0 -148.0 -71.0 -151.0C-43.0 -256.0 -24.0 -390.0 -38.0 -506.0C85.0 -659.0 265.0 -380.0 -55.0 -148.0Z"/></g>
<g fill="green" transform="translate(1500 100) scale(0.1 -0.1)"><path d="M0.0 0.0H-227.0V-41.0H0.0ZM0.0 304.0H-231.0V263.0H0.0ZM7.0 387.0H-230.0V346.0H7.0ZM-42.0 482.0H-32.0V-145.0H-23.0C-3.0 -145.0 25.0 -128.0 27.0 -120.0V431.0C52.0 436.0 74.0 445.0 83.0 455.0L-2.0 525.0ZM-216.0 461.0H-262.0V-474.0C-262.0 -501.0 -266.0 -506.0 -297.0 -521.0L-263.0 -606.0C-247.0 -601.0 -219.0 -572.0 -226.0 -527.0L-251.0 -550.0L-204.0 -537.0V453.0ZM-262.0 521.0V402.0C-223.0 402.0 -204.0 402.0 -204.0 402.0V482.0H-187.0ZM-287.0 -529.0 -246.0 -584.0C-130.0 -505.0 -15.0 -416.0 44.0 -373.0L34.0 -353.0C-98.0 -429.0 -229.0 -502.0 -287.0 -529.0ZM-57.0 -201.0 -76.0 -209.0C-25.0 -283.0 35.0 -405.0 43.0 -491.0C110.0 -553.0 170.0 -383.0 -57.0 -201.0Z"/></g>
<g fill="green" transform="translate(1600 100) scale(0.1 -0.1)"><path d="M0.0 0.0H-225.0V-38.0H0.0ZM-7.0 343.0H-226.0V305.0H-7.0ZM12.0 416.0H-207.0V378.0H12.0ZM-86.0 495.0H-88.0V-91.0H-64.0C-11.0 -91.0 54.0 -60.0 55.0 -51.0V434.0C79.0 438.0 96.0 448.0 104.0 458.0L-23.0 566.0ZM-191.0 467.0H-308.0V-392.0C-308.0 -426.0 -314.0 -440.0 -354.0 -465.0L-257.0 -650.0C-218.0 -630.0 -174.0 -568.0 -197.0 -465.0L-273.0 -521.0L-153.0 -476.0V444.0ZM-308.0 566.0V414.0C-201.0 414.0 -154.0 414.0 -154.0 414.0V495.0H-137.0ZM-339.0 -465.0 -220.0 -626.0C-106.0 -495.0 -22.0 -368.0 17.0 -302.0L13.0 -292.0C-127.0 -367.0 -272.0 -437.0 -339.0 -465.0ZM-92.0 -143.0 -108.0 -148.0C-70.0 -236.0 -42.0 -356.0 -49.0 -460.0C82.0 -600.0 253.0 -316.0 -92.0 -143.0Z"/></g>
<g fill="green" transform="translate(100 200) scale(0.1 -0.1)"><path d="M0.0 0.0H-228.0V-44.0H0.0ZM1.0 355.0H-227.0V311.0H1.0ZM3.0 397.0H-227.0V353.0H3.0ZM-31.0 481.0H-33.0V-122.0H-20.0C4.0 -122.0 28.0 -103.0 30.0 -97.0V429.0C52.0 432.0 73.0 441.0 82.0 452.0L7.0 524.0ZM-211.0 439.0H-260.0V-456.0C-260.0 -485.0 -266.0 -491.0 -304.0 -510.0L-263.0 -605.0C-245.0 -600.0 -214.0 -564.0 -227.0 -513.0L-253.0 -540.0L-197.0 -517.0V430.0ZM-260.0 521.0V395.0C-218.0 395.0 -197.0 395.0 -197.0 395.0V481.0H-179.0ZM-291.0 -517.0 -250.0 -580.0C-153.0 -499.0 -52.0 -406.0 -4.0 -366.0L-15.0 -345.0C-129.0 -419.0 -240.0 -490.0 -291.0 -517.0ZM-98.0 -184.0 -120.0 -192.0C-71.0 -283.0 -1.0 -426.0 20.0 -522.0C92.0 -586.0 145.0 -418.0 -98.0 -184.0Z"/></g>
<g fill="green" transform="translate(200 200) scale(0.1 -0.1)"><path d="M0.0 0.0H-203.0V-41.0H0.0ZM-4.0 358.0H-201.0V317.0H-4.0ZM-1.0 401.0H-200.0V361.0H-1.0ZM-53.0 485.0H-98.0V-73.0H-73.0C-9.0 -73.0 37.0 -38.0 38.0 -30.0V415.0C58.0 418.0 76.0 425.0 85.0 435.0L-3.0 547.0ZM-191.0 456.0H-308.0V-384.0C-308.0 -418.0 -315.0 -431.0 -367.0 -461.0L-269.0 -647.0C-230.0 -626.0 -185.0 -564.0 -208.0 -460.0L-286.0 -517.0L-153.0 -463.0V433.0ZM-308.0 556.0V398.0C-202.0 398.0 -154.0 398.0 -154.0 398.0V485.0H-138.0ZM-353.0 -471.0 -247.0 -630.0C-130.0 -514.0 -35.0 -398.0 11.0 -339.0L6.0 -325.0C-135.0 -388.0 -283.0 -447.0 -353.0 -471.0ZM-91.0 -137.0 -111.0 -142.0C-83.0 -257.0 -50.0 -406.0 -53.0 -529.0C71.0 -665.0 220.0 -391.0 -91.0 -137.0Z"/></g>
<g fill="green" transform="translate(300 200) scale(0.1 -0.1)"><path d="M0.0 0.0H-228.0V-32.0H0.0ZM1.0 334.0H-224.0V301.0H1.0ZM7.0 384.0H-224.0V351.0H7.0ZM-29.0 467.0H-28.0V-110.0H-19.0C-3.0 -110.0 16.0 -98.0 18.0 -93.0V428.0C36.0 431.0 51.0 437.0 59.0 445.0L0.0 499.0ZM-212.0 445.0H-249.0V-483.0C-249.0 -508.0 -252.0 -512.0 -286.0 -527.0L-266.0 -594.0C-254.0 -592.0 -227.0 -570.0 -234.0 -531.0L-252.0 -550.0L-201.0 -533.0V439.0ZM-249.0 497.0V403.0C-217.0 403.0 -201.0 403.0 -201.0 403.0V467.0H-188.0ZM-284.0 -535.0 -252.0 -575.0C-149.0 -496.0 -49.0 -413.0 4.0 -372.0L-4.0 -356.0C-121.0 -433.0 -235.0 -508.0 -284.0 -535.0ZM-111.0 -189.0 -128.0 -195.0C-74.0 -280.0 -1.0 -416.0 11.0 -512.0C68.0 -568.0 112.0 -410.0 -111.0 -189.0Z"/></g>
<g fill="green" transform="translate(400 200) scale(0.1 -0.1)"><path d="M0.0 0.0H-227.0V-30.0H0.0ZM-1.0 336.0H-214.0V306.0H-1.0ZM19.0 401.0H-197.0V371.0H19.0ZM-47.0 498.0H-71.0V-91.0H-47.0C10.0 -91.0 63.0 -59.0 65.0 -53.0V442.0C82.0 445.0 95.0 451.0 101.0 459.0L6.0 561.0ZM-199.0 463.0H-303.0V-381.0C-303.0 -411.0 -309.0 -425.0 -345.0 -443.0L-275.0 -619.0C-239.0 -603.0 -195.0 -552.0 -208.0 -454.0L-282.0 -503.0L-165.0 -455.0V442.0ZM-303.0 560.0V434.0C-209.0 434.0 -167.0 434.0 -167.0 434.0V498.0H-155.0ZM-341.0 -464.0 -253.0 -600.0C-126.0 -485.0 -31.0 -381.0 16.0 -326.0L12.0 -318.0C-136.0 -381.0 -283.0 -441.0 -341.0 -464.0ZM-70.0 -156.0 -85.0 -158.0C-48.0 -263.0 -27.0 -399.0 -39.0 -518.0C77.0 -662.0 235.0 -389.0 -70.0 -156.0Z"/></g>
<g fill="green" transform="translate(500 200) scale(0.1 -0.1)"><path d="M0.0 0.0H-237.0V-36.0H0.0ZM1.0 338.0H-233.0V302.0H1.0ZM-2.0 396.0H-233.0V360.0H-2.0ZM-29.0 484.0H-25.0V-92.0H-16.0C3.0 -92.0 26.0 -77.0 27.0 -69.0V441.0C47.0 444.0 65.0 452.0 72.0 460.0L4.0 520.0ZM-222.0 465.0H-263.0V-473.0C-263.0 -498.0 -266.0 -503.0 -295.0 -516.0L-265.0 -596.0C-251.0 -592.0 -225.0 -566.0 -230.0 -523.0L-254.0 -545.0L-210.0 -532.0V458.0ZM-263.0 516.0V413.0C-228.0 413.0 -210.0 413.0 -210.0 413.0V484.0H-195.0ZM-286.0 -524.0 -245.0 -572.0C-147.0 -485.0 -52.0 -392.0 -3.0 -349.0L-13.0 -332.0C-125.0 -414.0 -237.0 -494.0 -286.0 -524.0ZM-106.0 -184.0 -123.0 -192.0C-66.0 -272.0 10.0 -403.0 25.0 -494.0C93.0 -553.0 139.0 -385.0 -106.0 -184.0Z"/></g>
<g fill="green" transform="translate(600 200) scale(0.1 -0.1)"><path d="M0.0 0.0H-192.0V-33.0H0.0ZM-3.0 329.0H-183.0V296.0H-3.0ZM-5.0 386.0H-189.0V353.0H-5.0ZM-68.0 483.0H-86.0V-101.0H-65.0C-11.0 -101.0 40.0 -70.0 41.0 -63.0V428.0C59.0 431.0 73.0 438.0 80.0 446.0L-16.0 543.0ZM-200.0 460.0H-302.0V-402.0C-302.0 -434.0 -307.0 -446.0 -342.0 -466.0L-259.0 -646.0C-222.0 -629.0 -179.0 -571.0 -199.0 -473.0L-274.0 -524.0L-167.0 -484.0V439.0ZM-302.0 546.0V412.0C-208.0 412.0 -167.0 412.0 -167.0 412.0V483.0H-153.0ZM-339.0 -487.0 -237.0 -621.0C-121.0 -502.0 -36.0 -383.0 8.0 -321.0L2.0 -310.0C-132.0 -387.0 -272.0 -458.0 -339.0 -487.0ZM-74.0 -171.0 -88.0 -176.0C-44.0 -268.0 -9.0 -396.0 -14.0 -506.0C105.0 -634.0 249.0 -363.0 -74.0 -171.0Z"/></g>
<g fill="red" transform="translate(100 300) scale(0.1 -0.1)"><path d="M0.0 0.0H-346.0V-30.0H0.0ZM5.0 -330.0H-332.0V-360.0H5.0ZM5.0 -165.0H-332.0V-195.0H5.0ZM-26.0 0.0H-16.0V-406.0H-10.0C4.0 -406.0 26.0 -396.0 28.0 -392.0V-39.0C48.0 -35.0 65.0 -28.0 72.0 -20.0L3.0 33.0ZM-321.0 -39.0H-355.0V-672.0C-355.0 -691.0 -359.0 -696.0 -385.0 -709.0L-359.0 -765.0C-348.0 -760.0 -327.0 -740.0 -337.0 -708.0L-352.0 -726.0L-311.0 -715.0V-45.0ZM-355.0 32.0V-59.0C-326.0 -59.0 -311.0 -59.0 -311.0 -59.0V0.0H-299.0ZM-375.0 -713.0 -351.0 -752.0C-224.0 -684.0 -104.0 -614.0 -35.0 -576.0L-42.0 -560.0C-181.0 -627.0 -317.0 -691.0 -375.0 -713.0ZM-187.0 -421.0 -200.0 -431.0C-121.0 -500.0 -17.0 -621.0 2.0 -713.0C62.0 -758.0 89.0 -593.0 -187.0 -421.0Z"/></g>
<g fill="black" opacity=".8" transform="translate(100 300) scale(0.1 -0.1)"><path d="M0.0 0.0H-345.0V-30.0H0.0ZM5.0 -330.0H-330.0V-361.0H5.0ZM6.0 -165.0H-330.0V-196.0H6.0ZM-28.0 -1.0H-16.0V-406.0H-11.0C3.0 -406.0 25.0 -398.0 27.0 -393.0V-40.0C48.0 -36.0 66.0 -28.0 71.0 -21.0L2.0 33.0ZM-321.0 -38.0H-356.0V-672.0C-356.0 -691.0 -358.0 -695.0 -385.0 -709.0L-360.0 -766.0C-349.0 -759.0 -328.0 -739.0 -336.0 -707.0L-353.0 -726.0L-311.0 -715.0V-44.0ZM-356.0 31.0V-60.0C-325.0 -60.0 -311.0 -60.0 -311.0 -60.0V-1.0H-298.0ZM-376.0 -712.0 -350.0 -752.0C-224.0 -683.0 -104.0 -613.0 -35.0 -575.0L-41.0 -560.0C-181.0 -627.0 -317.0 -691.0 -376.0 -712.0ZM-188.0 -421.0 -201.0 -431.0C-121.0 -500.0 -17.0 -620.0 2.0 -711.0C63.0 -758.0 90.0 -592.0 -188.0 -421.0Z"/></g>
<g fill="red" transform="translate(200 300) scale(0.1 -0.1)"><path d="M0.0 0.0H-284.0V-28.0H0.0ZM21.0 -333.0H-263.0V-361.0H21.0ZM19.0 -167.0H-265.0V-195.0H19.0ZM-40.0 0.0H-30.0V-417.0H-7.0C38.0 -417.0 105.0 -392.0 106.0 -385.0V-50.0C127.0 -46.0 140.0 -37.0 146.0 -29.0L21.0 67.0ZM-236.0 -33.0H-342.0V-567.0C-342.0 -594.0 -347.0 -606.0 -377.0 -626.0L-304.0 -781.0C-271.0 -765.0 -234.0 -717.0 -248.0 -628.0L-313.0 -676.0L-201.0 -634.0V-54.0ZM-342.0 60.0V-60.0C-245.0 -60.0 -202.0 -60.0 -202.0 -60.0V0.0H-188.0ZM-364.0 -633.0 -301.0 -760.0C-143.0 -673.0 -22.0 -591.0 43.0 -544.0L40.0 -534.0C-127.0 -579.0 -295.0 -619.0 -364.0 -633.0ZM-116.0 -423.0 -125.0 -429.0C-63.0 -502.0 -9.0 -607.0 4.0 -704.0C143.0 -814.0 261.0 -520.0 -116.0 -423.0Z"/></g>
<g fill="black" opacity=".8" transform="translate(200 300) scale(0.1 -0.1)"><path d="M0.0 0.0H-283.0V-28.0H0.0ZM20.0 -333.0H-262.0V-361.0H20.0ZM19.0 -165.0H-264.0V-193.0H19.0ZM-41.0 1.0H-30.0V-417.0H-7.0C38.0 -417.0 105.0 -392.0 107.0 -385.0V-49.0C127.0 -46.0 140.0 -37.0 146.0 -29.0L20.0 68.0ZM-235.0 -33.0H-342.0V-567.0C-342.0 -593.0 -347.0 -606.0 -378.0 -626.0L-305.0 -782.0C-272.0 -766.0 -234.0 -717.0 -248.0 -628.0L-313.0 -676.0L-199.0 -633.0V-54.0ZM-342.0 61.0V-59.0C-244.0 -59.0 -201.0 -59.0 -201.0 -59.0V1.0H-188.0ZM-366.0 -634.0 -302.0 -762.0C-143.0 -673.0 -23.0 -591.0 41.0 -543.0L38.0 -534.0C-128.0 -579.0 -296.0 -619.0 -366.0 -634.0ZM-116.0 -424.0 -125.0 -428.0C-62.0 -501.0 -9.0 -608.0 5.0 -705.0C144.0 -815.0 263.0 -521.0 -116.0 -424.0Z"/></g>
<g fill="red" transform="translate(300 300) scale(0.1 -0.1)"><path d="M0.0 0.0H-224.0V-30.0H0.0ZM1.0 157.0H-223.0V127.0H1.0ZM1.0 308.0H-223.0V278.0H1.0ZM-22.0 308.0H-23.0V-81.0H-15.0C2.0 -81.0 18.0 -69.0 20.0 -65.0V271.0C36.0 274.0 51.0 280.0 58.0 288.0L4.0 338.0ZM-205.0 278.0H-239.0V-313.0C-239.0 -332.0 -243.0 -337.0 -269.0 -350.0L-239.0 -414.0C-227.0 -410.0 -206.0 -386.0 -216.0 -351.0L-233.0 -370.0L-195.0 -355.0V272.0ZM-239.0 335.0V249.0C-210.0 249.0 -195.0 249.0 -195.0 249.0V308.0H-183.0ZM-257.0 -357.0 -228.0 -398.0C-148.0 -340.0 -67.0 -275.0 -26.0 -245.0L-34.0 -230.0C-125.0 -285.0 -217.0 -337.0 -257.0 -357.0ZM-96.0 -116.0 -111.0 -122.0C-74.0 -187.0 -23.0 -291.0 -12.0 -363.0C37.0 -408.0 72.0 -284.0 -96.0 -116.0Z"/></g>
<g fill="black" opacity=".8" transform="translate(300 300) scale(0.1 -0.1)"><path d="M0.0 0.0H-219.0V-31.0H0.0ZM1.0 155.0H-218.0V124.0H1.0ZM3.0 307.0H-218.0V276.0H3.0ZM-27.0 305.0H-26.0V-84.0H-18.0C-1.0 -84.0 16.0 -71.0 18.0 -67.0V269.0C35.0 272.0 50.0 277.0 56.0 285.0L-0.0 336.0ZM-206.0 281.0H-240.0V-312.0C-240.0 -331.0 -243.0 -336.0 -269.0 -349.0L-241.0 -415.0C-229.0 -410.0 -208.0 -386.0 -215.0 -351.0L-234.0 -370.0L-196.0 -356.0V274.0ZM-240.0 332.0V245.0C-210.0 245.0 -196.0 245.0 -196.0 245.0V305.0H-183.0ZM-257.0 -357.0 -227.0 -397.0C-147.0 -338.0 -67.0 -272.0 -27.0 -243.0L-33.0 -228.0C-126.0 -283.0 -217.0 -337.0 -257.0 -357.0ZM-100.0 -114.0 -115.0 -120.0C-77.0 -185.0 -25.0 -288.0 -12.0 -360.0C39.0 -406.0 75.0 -279.0 -100.0 -114.0Z"/></g>
<g fill="red" transform="translate(400 300) scale(0.1 -0.1)"><path d="M0.0 0.0H-170.0V-28.0H0.0ZM0.0 151.0H-170.0V123.0H0.0ZM0.0 299.0H-170.0V271.0H0.0ZM-28.0 299.0H-57.0V-62.0H-36.0C13.0 -62.0 55.0 -37.0 55.0 -31.0V246.0C71.0 249.0 85.0 255.0 92.0 262.0L14.0 350.0ZM-151.0 277.0H-237.0V-261.0C-237.0 -286.0 -241.0 -295.0 -265.0 -313.0L-191.0 -441.0C-165.0 -426.0 -135.0 -381.0 -152.0 -309.0L-205.0 -351.0L-123.0 -315.0V260.0ZM-237.0 347.0V239.0C-158.0 239.0 -123.0 239.0 -123.0 239.0V299.0H-111.0ZM-251.0 -309.0 -174.0 -421.0C-85.0 -339.0 -13.0 -259.0 21.0 -219.0L17.0 -209.0C-92.0 -253.0 -203.0 -294.0 -251.0 -309.0ZM-77.0 -91.0 -89.0 -95.0C-64.0 -171.0 -39.0 -271.0 -41.0 -357.0C54.0 -455.0 163.0 -247.0 -77.0 -91.0Z"/></g>
<g fill="black" opacity=".8" transform="translate(400 300) scale(0.1 -0.1)"><path d="M0.0 0.0H-167.0V-28.0H0.0ZM-2.0 154.0H-166.0V125.0H-2.0ZM1.0 303.0H-164.0V275.0H1.0ZM-31.0 300.0H-56.0V-64.0H-36.0C12.0 -64.0 55.0 -39.0 56.0 -33.0V247.0C72.0 250.0 86.0 255.0 93.0 264.0L11.0 352.0ZM-148.0 276.0H-237.0V-258.0C-237.0 -283.0 -240.0 -292.0 -271.0 -312.0L-194.0 -447.0C-166.0 -432.0 -135.0 -384.0 -153.0 -309.0L-210.0 -352.0L-119.0 -313.0V259.0ZM-237.0 349.0V240.0C-155.0 240.0 -120.0 240.0 -120.0 240.0V300.0H-107.0ZM-260.0 -311.0 -179.0 -429.0C-90.0 -341.0 -21.0 -257.0 12.0 -214.0L8.0 -205.0C-100.0 -251.0 -212.0 -294.0 -260.0 -311.0ZM-75.0 -91.0 -87.0 -94.0C-61.0 -171.0 -36.0 -272.0 -39.0 -359.0C56.0 -458.0 170.0 -248.0 -75.0 -91.0Z"/></g>
<g fill="red" transform="translate(500 300) scale(0.1 -0.1)"><path d="M0.0 0.0H-167.0V-30.0H0.0ZM0.0 359.0H-167.0V329.0H0.0ZM1.0 175.0H-166.0V145.0H1.0ZM-24.0 359.0H-15.0V-84.0H-9.0C6.0 -84.0 28.0 -72.0 29.0 -66.0V323.0C46.0 326.0 62.0 333.0 68.0 340.0L5.0 390.0ZM-155.0 330.0H-189.0V-323.0C-189.0 -342.0 -192.0 -347.0 -212.0 -357.0L-182.0 -420.0C-170.0 -415.0 -151.0 -392.0 -158.0 -360.0L-177.0 -377.0L-145.0 -370.0V324.0ZM-189.0 391.0V300.0C-160.0 300.0 -145.0 300.0 -145.0 300.0V359.0H-133.0ZM-199.0 -355.0 -172.0 -401.0C-92.0 -339.0 -13.0 -271.0 28.0 -239.0L19.0 -225.0C-70.0 -281.0 -160.0 -335.0 -199.0 -355.0ZM-63.0 -118.0 -76.0 -125.0C-34.0 -174.0 18.0 -257.0 29.0 -317.0C83.0 -360.0 124.0 -235.0 -63.0 -118.0Z"/></g>
<g fill="black" opacity=".8" transform="translate(500 300) scale(0.1 -0.1)"><path d="M0.0 0.0H-164.0V-31.0H0.0ZM-1.0 355.0H-163.0V323.0H-1.0ZM1.0 177.0H-162.0V146.0H1.0ZM-27.0 358.0H-17.0V-89.0H-10.0C5.0 -89.0 28.0 -77.0 29.0 -70.0V321.0C47.0 324.0 64.0 331.0 69.0 338.0L3.0 391.0ZM-153.0 332.0H-189.0V-319.0C-189.0 -339.0 -192.0 -343.0 -212.0 -354.0L-181.0 -421.0C-168.0 -415.0 -149.0 -390.0 -155.0 -356.0L-176.0 -376.0L-144.0 -368.0V325.0ZM-189.0 391.0V296.0C-158.0 296.0 -144.0 296.0 -144.0 296.0V358.0H-130.0ZM-201.0 -354.0 -172.0 -402.0C-91.0 -339.0 -10.0 -268.0 31.0 -235.0L23.0 -221.0C-69.0 -278.0 -161.0 -334.0 -201.0 -354.0ZM-68.0 -111.0 -82.0 -118.0C-38.0 -168.0 15.0 -251.0 29.0 -311.0C86.0 -356.0 126.0 -227.0 -68.0 -111.0Z"/></g>
<g fill="red" transform="translate(600 300) scale(0.1 -0.1)"><path d="M0.0 0.0H-151.0V-28.0H0.0ZM-1.0 365.0H-147.0V337.0H-1.0ZM-2.0 178.0H-153.0V150.0H-2.0ZM-69.0 365.0H-61.0V-77.0H-44.0C-11.0 -77.0 37.0 -56.0 37.0 -49.0V328.0C51.0 331.0 61.0 337.0 65.0 343.0L-24.0 411.0ZM-135.0 362.0H-217.0V-258.0C-217.0 -283.0 -222.0 -293.0 -253.0 -310.0L-191.0 -445.0C-163.0 -433.0 -129.0 -390.0 -143.0 -315.0L-198.0 -354.0L-108.0 -327.0V346.0ZM-217.0 423.0V305.0C-142.0 305.0 -108.0 305.0 -108.0 305.0V365.0H-94.0ZM-241.0 -308.0 -175.0 -428.0C-82.0 -343.0 -10.0 -252.0 26.0 -205.0L23.0 -196.0C-77.0 -245.0 -186.0 -291.0 -241.0 -308.0ZM-72.0 -90.0 -83.0 -95.0C-55.0 -150.0 -26.0 -228.0 -22.0 -294.0C72.0 -379.0 176.0 -189.0 -72.0 -90.0Z"/></g>
<g fill="black" opacity=".8" transform="translate(600 300) scale(0.1 -0.1)"><path d="M0.0 0.0H-149.0V-29.0H0.0ZM-1.0 367.0H-144.0V337.0H-1.0ZM-4.0 182.0H-151.0V153.0H-4.0ZM-70.0 368.0H-63.0V-79.0H-46.0C-10.0 -79.0 41.0 -56.0 41.0 -49.0V329.0C56.0 331.0 66.0 337.0 70.0 343.0L-23.0 416.0ZM-133.0 365.0H-221.0V-253.0C-221.0 -278.0 -225.0 -288.0 -260.0 -308.0L-192.0 -449.0C-162.0 -436.0 -128.0 -390.0 -143.0 -311.0L-202.0 -353.0L-105.0 -323.0V348.0ZM-221.0 428.0V305.0C-140.0 305.0 -105.0 305.0 -105.0 305.0V368.0H-92.0ZM-244.0 -311.0 -178.0 -433.0C-82.0 -346.0 -9.0 -255.0 28.0 -207.0L25.0 -198.0C-77.0 -247.0 -189.0 -292.0 -244.0 -311.0ZM-70.0 -98.0 -81.0 -103.0C-53.0 -157.0 -23.0 -234.0 -17.0 -301.0C81.0 -386.0 189.0 -190.0 -70.0 -98.0Z"/></g>
<g fill="red" transform="translate(700 300) scale(0.1 -0.1)"><path d="M0.0 0.0H-224.0V-30.0H0.0ZM3.0 -314.0H-221.0V-344.0H3.0ZM4.0 -155.0H-220.0V-185.0H4.0ZM-27.0 0.0H-17.0V-390.0H-11.0C4.0 -390.0 26.0 -377.0 27.0 -371.0V-39.0C47.0 -35.0 64.0 -28.0 71.0 -20.0L3.0 33.0ZM-215.0 -20.0H-248.0V-549.0C-248.0 -567.0 -251.0 -571.0 -270.0 -582.0L-242.0 -642.0C-230.0 -637.0 -211.0 -615.0 -218.0 -584.0L-236.0 -601.0L-206.0 -594.0V-26.0ZM-248.0 29.0V-59.0C-220.0 -59.0 -206.0 -59.0 -206.0 -59.0V0.0H-194.0ZM-257.0 -586.0 -229.0 -629.0C-135.0 -582.0 -41.0 -529.0 8.0 -502.0L1.0 -487.0C-104.0 -530.0 -210.0 -571.0 -257.0 -586.0ZM-76.0 -387.0 -90.0 -394.0C-47.0 -445.0 2.0 -531.0 8.0 -595.0C58.0 -638.0 100.0 -512.0 -76.0 -387.0Z"/></g>
<g fill="black" opacity=".8" transform="translate(700 300) scale(0.1 -0.1)"><path d="M0.0 0.0H-226.0V-30.0H0.0ZM3.0 -312.0H-222.0V-343.0H3.0ZM5.0 -155.0H-221.0V-185.0H5.0ZM-27.0 -0.0H-16.0V-389.0H-10.0C4.0 -389.0 26.0 -377.0 27.0 -371.0V-39.0C47.0 -34.0 65.0 -28.0 70.0 -20.0L4.0 33.0ZM-215.0 -20.0H-248.0V-549.0C-248.0 -567.0 -251.0 -571.0 -270.0 -582.0L-242.0 -642.0C-230.0 -636.0 -213.0 -614.0 -217.0 -583.0L-237.0 -601.0L-207.0 -593.0V-26.0ZM-248.0 28.0V-59.0C-219.0 -59.0 -207.0 -59.0 -207.0 -59.0V-0.0H-194.0ZM-257.0 -586.0 -229.0 -628.0C-136.0 -582.0 -42.0 -529.0 7.0 -502.0L1.0 -489.0C-105.0 -531.0 -211.0 -572.0 -257.0 -586.0ZM-75.0 -389.0 -88.0 -395.0C-46.0 -447.0 2.0 -532.0 9.0 -595.0C59.0 -639.0 99.0 -513.0 -75.0 -389.0Z"/></g>
<g fill="red" transform="translate(800 300) scale(0.1 -0.1)"><path d="M0.0 0.0H-155.0V-28.0H0.0ZM9.0 -257.0H-151.0V-285.0H9.0ZM8.0 -127.0H-147.0V-155.0H8.0ZM-41.0 0.0H-31.0V-333.0H-13.0C22.0 -333.0 75.0 -313.0 76.0 -306.0V-45.0C95.0 -41.0 109.0 -33.0 115.0 -25.0L9.0 54.0ZM-132.0 -24.0H-219.0V-471.0C-219.0 -494.0 -224.0 -503.0 -253.0 -524.0L-173.0 -648.0C-148.0 -632.0 -119.0 -586.0 -139.0 -516.0L-190.0 -558.0L-103.0 -526.0V-41.0ZM-219.0 50.0V-60.0C-139.0 -60.0 -104.0 -60.0 -104.0 -60.0V0.0H-90.0ZM-236.0 -516.0 -158.0 -630.0C-69.0 -550.0 2.0 -473.0 35.0 -433.0L32.0 -424.0C-77.0 -464.0 -188.0 -502.0 -236.0 -516.0ZM-67.0 -339.0 -77.0 -344.0C-45.0 -400.0 -13.0 -479.0 -10.0 -548.0C92.0 -638.0 202.0 -430.0 -67.0 -339.0Z"/></g>
<g fill="black" opacity=".8" transform="translate(800 300) scale(0.1 -0.1)"><path d="M0.0 0.0H-156.0V-28.0H0.0ZM9.0 -258.0H-151.0V-287.0H9.0ZM7.0 -127.0H-149.0V-155.0H7.0ZM-40.0 0.0H-31.0V-333.0H-13.0C23.0 -333.0 75.0 -313.0 76.0 -305.0V-45.0C95.0 -42.0 108.0 -33.0 114.0 -26.0L9.0 55.0ZM-132.0 -24.0H-220.0V-473.0C-220.0 -495.0 -223.0 -504.0 -251.0 -525.0L-172.0 -646.0C-147.0 -631.0 -119.0 -585.0 -138.0 -517.0L-188.0 -557.0L-103.0 -526.0V-41.0ZM-220.0 49.0V-59.0C-139.0 -59.0 -105.0 -59.0 -105.0 -59.0V0.0H-92.0ZM-234.0 -516.0 -157.0 -630.0C-67.0 -550.0 4.0 -474.0 37.0 -434.0L35.0 -426.0C-74.0 -464.0 -185.0 -501.0 -234.0 -516.0ZM-68.0 -339.0 -79.0 -342.0C-46.0 -399.0 -15.0 -479.0 -11.0 -549.0C90.0 -636.0 200.0 -431.0 -68.0 -339.0Z"/></g>
<g fill="red" transform="translate(900 300) scale(0.1 -0.1)"><path d="M0.0 0.0H-200.0V-30.0H0.0ZM0.0 274.0H-200.0V244.0H0.0ZM1.0 143.0H-199.0V113.0H1.0ZM-30.0 274.0H-21.0V-70.0H-15.0C0.0 -70.0 22.0 -58.0 23.0 -52.0V238.0C40.0 241.0 56.0 248.0 62.0 255.0L-2.0 305.0ZM-189.0 251.0H-223.0V-256.0C-223.0 -274.0 -226.0 -279.0 -246.0 -289.0L-216.0 -352.0C-204.0 -347.0 -185.0 -324.0 -192.0 -292.0L-211.0 -310.0L-179.0 -303.0V245.0ZM-223.0 306.0V215.0C-194.0 215.0 -179.0 215.0 -179.0 215.0V274.0H-167.0ZM-232.0 -289.0 -205.0 -335.0C-124.0 -272.0 -43.0 -203.0 -2.0 -172.0L-11.0 -157.0C-102.0 -214.0 -193.0 -269.0 -232.0 -289.0ZM-91.0 -80.0 -104.0 -88.0C-59.0 -134.0 -2.0 -212.0 11.0 -269.0C67.0 -311.0 104.0 -187.0 -91.0 -80.0Z"/></g>
<g fill="black" opacity=".8" transform="translate(900 300) scale(0.1 -0.1)"><path d="M0.0 0.0H-205.0V-29.0H0.0ZM-0.0 278.0H-203.0V248.0H-0.0ZM2.0 143.0H-202.0V113.0H2.0ZM-29.0 275.0H-19.0V-67.0H-13.0C2.0 -67.0 23.0 -55.0 24.0 -50.0V241.0C41.0 244.0 57.0 250.0 61.0 257.0L-1.0 305.0ZM-189.0 250.0H-224.0V-257.0C-224.0 -275.0 -226.0 -279.0 -245.0 -291.0L-216.0 -352.0C-205.0 -346.0 -187.0 -323.0 -192.0 -291.0L-212.0 -310.0L-180.0 -303.0V243.0ZM-224.0 306.0V217.0C-194.0 217.0 -180.0 217.0 -180.0 217.0V275.0H-168.0ZM-231.0 -290.0 -205.0 -334.0C-126.0 -273.0 -46.0 -205.0 -5.0 -174.0L-12.0 -161.0C-103.0 -216.0 -193.0 -270.0 -231.0 -290.0ZM-87.0 -84.0 -99.0 -92.0C-56.0 -138.0 -1.0 -216.0 13.0 -273.0C67.0 -314.0 101.0 -192.0 -87.0 -84.0Z"/></g>
<g fill="red" transform="translate(1000 300) scale(0.1 -0.1)"><path d="M0.0 0.0H-151.0V-28.0H0.0ZM1.0 278.0H-145.0V250.0H1.0ZM0.0 138.0H-151.0V110.0H0.0ZM-49.0 278.0H-41.0V-76.0H-22.0C14.0 -76.0 68.0 -54.0 68.0 -47.0V240.0C82.0 243.0 92.0 249.0 96.0 254.0L-1.0 328.0ZM-120.0 275.0H-209.0V-192.0C-209.0 -216.0 -214.0 -226.0 -247.0 -244.0L-181.0 -389.0C-151.0 -375.0 -115.0 -330.0 -130.0 -249.0L-190.0 -292.0L-91.0 -261.0V258.0ZM-209.0 339.0V218.0C-127.0 218.0 -91.0 218.0 -91.0 218.0V278.0H-78.0ZM-234.0 -245.0 -172.0 -367.0C-75.0 -286.0 0.0 -199.0 38.0 -153.0L34.0 -144.0C-68.0 -189.0 -179.0 -230.0 -234.0 -245.0ZM-46.0 -96.0 -55.0 -101.0C-31.0 -144.0 -4.0 -206.0 1.0 -262.0C98.0 -343.0 208.0 -156.0 -46.0 -96.0Z"/></g>
<g fill="black" opacity=".8" transform="translate(1000 300) scale(0.1 -0.1)"><path d="M0.0 0.0H-154.0V-27.0H0.0ZM1.0 276.0H-148.0V248.0H1.0ZM-1.0 136.0H-156.0V109.0H-1.0ZM-46.0 277.0H-40.0V-75.0H-22.0C15.0 -75.0 66.0 -53.0 67.0 -45.0V240.0C80.0 242.0 89.0 247.0 93.0 253.0L-0.0 326.0ZM-122.0 274.0H-210.0V-196.0C-210.0 -220.0 -212.0 -229.0 -241.0 -246.0L-178.0 -385.0C-149.0 -372.0 -115.0 -328.0 -128.0 -251.0L-186.0 -291.0L-94.0 -262.0V257.0ZM-210.0 336.0V219.0C-128.0 219.0 -94.0 219.0 -94.0 219.0V277.0H-81.0ZM-228.0 -243.0 -168.0 -363.0C-70.0 -283.0 4.0 -199.0 42.0 -154.0L39.0 -146.0C-62.0 -190.0 -173.0 -229.0 -228.0 -243.0ZM-49.0 -93.0 -57.0 -97.0C-34.0 -141.0 -8.0 -203.0 -2.0 -260.0C93.0 -339.0 199.0 -156.0 -49.0 -93.0Z"/></g>
<g fill="red" transform="translate(1100 300) scale(0.1 -0.1)"><path d="M0.0 0.0H-158.0V-30.0H0.0ZM0.0 358.0H-158.0V328.0H0.0ZM1.0 182.0H-157.0V152.0H1.0ZM-26.0 358.0H-17.0V-85.0H-11.0C4.0 -85.0 26.0 -73.0 27.0 -67.0V322.0C44.0 325.0 60.0 332.0 66.0 339.0L3.0 389.0ZM-148.0 337.0H-182.0V-303.0C-182.0 -322.0 -185.0 -326.0 -205.0 -337.0L-175.0 -400.0C-163.0 -395.0 -144.0 -372.0 -151.0 -340.0L-170.0 -358.0L-138.0 -351.0V331.0ZM-182.0 390.0V299.0C-153.0 299.0 -138.0 299.0 -138.0 299.0V358.0H-126.0ZM-198.0 -338.0 -171.0 -384.0C-87.0 -322.0 -3.0 -254.0 39.0 -222.0L32.0 -207.0C-63.0 -264.0 -157.0 -318.0 -198.0 -338.0ZM-61.0 -105.0 -74.0 -112.0C-34.0 -159.0 16.0 -237.0 26.0 -295.0C79.0 -338.0 120.0 -215.0 -61.0 -105.0Z"/></g>
<g fill="black" opacity=".8" transform="translate(1100 300) scale(0.1 -0.1)"><path d="M0.0 0.0H-160.0V-28.0H0.0ZM-1.0 362.0H-159.0V333.0H-1.0ZM3.0 179.0H-158.0V151.0H3.0ZM-27.0 357.0H-17.0V-80.0H-11.0C3.0 -80.0 24.0 -69.0 26.0 -63.0V323.0C42.0 326.0 58.0 333.0 63.0 339.0L1.0 387.0ZM-150.0 337.0H-183.0V-307.0C-183.0 -326.0 -185.0 -329.0 -205.0 -340.0L-178.0 -399.0C-167.0 -394.0 -149.0 -372.0 -154.0 -341.0L-172.0 -359.0L-142.0 -353.0V331.0ZM-183.0 388.0V301.0C-155.0 301.0 -142.0 301.0 -142.0 301.0V357.0H-129.0ZM-196.0 -339.0 -170.0 -382.0C-89.0 -322.0 -8.0 -256.0 34.0 -224.0L27.0 -211.0C-65.0 -266.0 -157.0 -320.0 -196.0 -339.0ZM-57.0 -112.0 -69.0 -118.0C-30.0 -165.0 18.0 -243.0 27.0 -299.0C78.0 -342.0 118.0 -221.0 -57.0 -112.0Z"/></g>
<g fill="red" transform="translate(1200 300) scale(0.1 -0.1)"><path d="M0.0 0.0H-151.0V-28.0H0.0ZM1.0 380.0H-145.0V352.0H1.0ZM0.0 193.0H-151.0V165.0H0.0ZM-68.0 380.0H-60.0V-70.0H-40.0C-3.0 -70.0 52.0 -47.0 53.0 -40.0V342.0C67.0 345.0 76.0 351.0 80.0 356.0L-18.0 431.0ZM-132.0 379.0H-219.0V-221.0C-219.0 -246.0 -224.0 -257.0 -257.0 -275.0L-191.0 -417.0C-162.0 -403.0 -127.0 -359.0 -141.0 -279.0L-200.0 -321.0L-104.0 -292.0V362.0ZM-219.0 440.0V320.0C-140.0 320.0 -104.0 320.0 -104.0 320.0V380.0H-91.0ZM-236.0 -282.0 -177.0 -399.0C-81.0 -318.0 -3.0 -235.0 35.0 -192.0L32.0 -182.0C-75.0 -226.0 -186.0 -267.0 -236.0 -282.0ZM-53.0 -104.0 -63.0 -109.0C-38.0 -158.0 -12.0 -228.0 -8.0 -290.0C90.0 -377.0 204.0 -184.0 -53.0 -104.0Z"/></g>
<g fill="black" opacity=".8" transform="translate(1200 300) scale(0.1 -0.1)"><path d="M0.0 0.0H-153.0V-27.0H0.0ZM-1.0 380.0H-146.0V353.0H-1.0ZM2.0 192.0H-149.0V166.0H2.0ZM-68.0 378.0H-56.0V-70.0H-39.0C-4.0 -70.0 49.0 -47.0 49.0 -40.0V343.0C63.0 345.0 71.0 351.0 75.0 356.0L-20.0 427.0ZM-132.0 375.0H-216.0V-226.0C-216.0 -249.0 -220.0 -260.0 -253.0 -277.0L-192.0 -416.0C-163.0 -403.0 -129.0 -361.0 -141.0 -283.0L-199.0 -323.0L-104.0 -294.0V359.0ZM-216.0 436.0V321.0C-139.0 321.0 -105.0 321.0 -105.0 321.0V378.0H-93.0ZM-237.0 -281.0 -178.0 -400.0C-82.0 -315.0 -8.0 -231.0 27.0 -186.0L25.0 -179.0C-78.0 -223.0 -188.0 -265.0 -237.0 -281.0ZM-54.0 -95.0 -64.0 -98.0C-38.0 -149.0 -16.0 -221.0 -13.0 -285.0C80.0 -371.0 193.0 -183.0 -54.0 -95.0Z"/></g>
<g fill="red" transform="translate(1300 300) scale(0.1 -0.1)"><path d="M0.0 0.0H-261.0V-30.0H0.0ZM0.0 185.0H-261.0V155.0H0.0ZM0.0 371.0H-261.0V341.0H0.0ZM-34.0 371.0H-24.0V-64.0H-18.0C-3.0 -64.0 19.0 -52.0 20.0 -46.0V332.0C40.0 336.0 57.0 343.0 64.0 351.0L-4.0 404.0ZM-252.0 351.0H-286.0V-331.0C-286.0 -349.0 -289.0 -354.0 -309.0 -365.0L-279.0 -427.0C-267.0 -422.0 -248.0 -401.0 -255.0 -367.0L-274.0 -386.0L-242.0 -379.0V345.0ZM-286.0 400.0V312.0C-257.0 312.0 -242.0 312.0 -242.0 312.0V371.0H-230.0ZM-297.0 -372.0 -264.0 -411.0C-160.0 -344.0 -61.0 -272.0 -7.0 -236.0L-15.0 -221.0C-130.0 -286.0 -247.0 -349.0 -297.0 -372.0ZM-115.0 -98.0 -128.0 -106.0C-75.0 -162.0 -10.0 -259.0 -3.0 -331.0C52.0 -378.0 93.0 -233.0 -115.0 -98.0Z"/></g>
<g fill="black" opacity=".8" transform="translate(1300 300) scale(0.1 -0.1)"><path d="M0.0 0.0H-263.0V-30.0H0.0ZM-0.0 186.0H-261.0V156.0H-0.0ZM-0.0 371.0H-261.0V341.0H-0.0ZM-34.0 371.0H-23.0V-63.0H-17.0C-3.0 -63.0 19.0 -52.0 20.0 -46.0V333.0C41.0 337.0 58.0 344.0 64.0 351.0L-4.0 404.0ZM-252.0 351.0H-286.0V-332.0C-286.0 -349.0 -288.0 -353.0 -310.0 -365.0L-279.0 -427.0C-268.0 -421.0 -249.0 -400.0 -254.0 -366.0L-274.0 -386.0L-242.0 -379.0V345.0ZM-286.0 399.0V312.0C-257.0 312.0 -242.0 312.0 -242.0 312.0V371.0H-230.0ZM-297.0 -372.0 -264.0 -411.0C-161.0 -344.0 -62.0 -273.0 -8.0 -237.0L-15.0 -222.0C-130.0 -287.0 -247.0 -350.0 -297.0 -372.0ZM-114.0 -99.0 -127.0 -106.0C-74.0 -162.0 -10.0 -260.0 -2.0 -331.0C53.0 -379.0 92.0 -234.0 -114.0 -99.0Z"/></g>
<g fill="red" transform="translate(1400 300) scale(0.1 -0.1)"><path d="M0.0 0.0H-227.0V-28.0H0.0ZM0.0 183.0H-227.0V155.0H0.0ZM0.0 360.0H-227.0V332.0H0.0ZM-79.0 360.0H-69.0V-78.0H-48.0C-5.0 -78.0 58.0 -54.0 59.0 -47.0V311.0C80.0 315.0 93.0 324.0 100.0 332.0L-21.0 424.0ZM-209.0 345.0H-305.0V-259.0C-305.0 -285.0 -310.0 -296.0 -339.0 -316.0L-254.0 -465.0C-224.0 -448.0 -190.0 -396.0 -211.0 -312.0L-274.0 -360.0L-177.0 -326.0V326.0ZM-305.0 414.0V300.0C-216.0 300.0 -177.0 300.0 -177.0 300.0V360.0H-163.0ZM-324.0 -316.0 -238.0 -441.0C-129.0 -342.0 -48.0 -249.0 -8.0 -200.0L-12.0 -191.0C-140.0 -246.0 -269.0 -297.0 -324.0 -316.0ZM-117.0 -87.0 -126.0 -93.0C-76.0 -155.0 -36.0 -248.0 -33.0 -331.0C85.0 -432.0 202.0 -178.0 -117.0 -87.0Z"/></g>
<g fill="black" opacity=".8" transform="translate(1400 300) scale(0.1 -0.1)"><path d="M0.0 0.0H-228.0V-28.0H0.0ZM-0.0 182.0H-228.0V154.0H-0.0ZM-1.0 360.0H-229.0V332.0H-1.0ZM-78.0 360.0H-69.0V-78.0H-49.0C-5.0 -78.0 57.0 -54.0 59.0 -46.0V311.0C80.0 315.0 92.0 323.0 99.0 331.0L-20.0 424.0ZM-209.0 345.0H-306.0V-260.0C-306.0 -286.0 -309.0 -297.0 -338.0 -316.0L-253.0 -464.0C-223.0 -447.0 -190.0 -395.0 -210.0 -313.0L-273.0 -359.0L-177.0 -326.0V326.0ZM-306.0 413.0V301.0C-216.0 301.0 -178.0 301.0 -178.0 301.0V360.0H-164.0ZM-322.0 -316.0 -237.0 -440.0C-127.0 -342.0 -47.0 -250.0 -6.0 -201.0L-10.0 -192.0C-138.0 -246.0 -267.0 -296.0 -322.0 -316.0ZM-118.0 -88.0 -127.0 -92.0C-77.0 -155.0 -38.0 -248.0 -34.0 -332.0C84.0 -432.0 201.0 -178.0 -118.0 -88.0Z"/></g>
<g fill="red" transform="translate(1500 300) scale(0.1 -0.1)"><path d="M0.0 0.0H-266.0V-30.0H0.0ZM0.0 111.0H-266.0V81.0H0.0ZM0.0 221.0H-266.0V191.0H0.0ZM-31.0 221.0H-21.0V-57.0H-15.0C-1.0 -57.0 21.0 -47.0 23.0 -43.0V182.0C42.0 186.0 60.0 193.0 67.0 201.0L-2.0 254.0ZM-253.0 176.0H-287.0V-181.0C-287.0 -194.0 -291.0 -200.0 -310.0 -213.0L-267.0 -271.0C-255.0 -263.0 -240.0 -237.0 -254.0 -207.0L-271.0 -227.0L-243.0 -219.0V170.0ZM-287.0 253.0V162.0C-258.0 162.0 -243.0 162.0 -243.0 162.0V221.0H-231.0ZM-289.0 -213.0 -267.0 -259.0C-171.0 -212.0 -75.0 -158.0 -24.0 -132.0L-30.0 -116.0C-136.0 -159.0 -243.0 -199.0 -289.0 -213.0ZM-104.0 -51.0 -116.0 -60.0C-71.0 -96.0 -16.0 -162.0 -4.0 -213.0C46.0 -249.0 78.0 -133.0 -104.0 -51.0Z"/></g>
<g fill="black" opacity=".8" transform="translate(1500 300) scale(0.1 -0.1)"><path d="M0.0 0.0H-266.0V-30.0H0.0ZM-1.0 112.0H-265.0V82.0H-1.0ZM1.0 220.0H-264.0V190.0H1.0ZM-33.0 220.0H-22.0V-57.0H-16.0C-2.0 -57.0 20.0 -47.0 22.0 -43.0V181.0C42.0 186.0 60.0 192.0 65.0 200.0L-4.0 254.0ZM-253.0 178.0H-288.0V-182.0C-288.0 -195.0 -291.0 -199.0 -310.0 -214.0L-268.0 -271.0C-256.0 -263.0 -242.0 -236.0 -254.0 -206.0L-272.0 -227.0L-244.0 -219.0V170.0ZM-288.0 251.0V161.0C-258.0 161.0 -244.0 161.0 -244.0 161.0V220.0H-232.0ZM-289.0 -213.0 -266.0 -259.0C-172.0 -212.0 -77.0 -158.0 -25.0 -131.0L-30.0 -117.0C-137.0 -159.0 -243.0 -199.0 -289.0 -213.0ZM-105.0 -53.0 -116.0 -61.0C-71.0 -97.0 -16.0 -163.0 -3.0 -212.0C47.0 -249.0 78.0 -132.0 -105.0 -53.0Z"/></g>
<g fill="red" transform="translate(1600 300) scale(0.1 -0.1)"><path d="M0.0 0.0H-241.0V-28.0H0.0ZM7.0 99.0H-249.0V71.0H7.0ZM-5.0 200.0H-261.0V172.0H-5.0ZM-72.0 200.0H-62.0V-61.0H-41.0C-3.0 -61.0 58.0 -41.0 59.0 -34.0V154.0C78.0 158.0 90.0 166.0 96.0 173.0L-18.0 258.0ZM-200.0 200.0H-294.0V-112.0C-294.0 -134.0 -299.0 -144.0 -335.0 -168.0L-251.0 -291.0C-226.0 -274.0 -198.0 -228.0 -218.0 -156.0L-270.0 -200.0L-169.0 -168.0V182.0ZM-294.0 252.0V140.0C-208.0 140.0 -169.0 140.0 -169.0 140.0V200.0H-154.0ZM-301.0 -152.0 -249.0 -274.0C-141.0 -215.0 -50.0 -154.0 -5.0 -122.0L-7.0 -111.0C-127.0 -130.0 -249.0 -147.0 -301.0 -152.0ZM-129.0 -45.0 -137.0 -51.0C-99.0 -91.0 -52.0 -155.0 -34.0 -211.0C80.0 -275.0 157.0 -63.0 -129.0 -45.0Z"/></g>
<g fill="black" opacity=".8" transform="translate(1600 300) scale(0.1 -0.1)"><path d="M0.0 0.0H-241.0V-28.0H0.0ZM6.0 99.0H-248.0V71.0H6.0ZM-5.0 201.0H-260.0V173.0H-5.0ZM-72.0 200.0H-61.0V-62.0H-42.0C-3.0 -62.0 57.0 -42.0 59.0 -34.0V155.0C78.0 158.0 89.0 165.0 96.0 173.0L-19.0 258.0ZM-200.0 199.0H-295.0V-113.0C-295.0 -133.0 -298.0 -143.0 -336.0 -168.0L-252.0 -292.0C-226.0 -275.0 -199.0 -229.0 -217.0 -157.0L-271.0 -200.0L-168.0 -167.0V182.0ZM-295.0 252.0V141.0C-207.0 141.0 -168.0 141.0 -168.0 141.0V200.0H-154.0ZM-303.0 -153.0 -251.0 -277.0C-141.0 -215.0 -53.0 -153.0 -8.0 -120.0L-9.0 -110.0C-128.0 -130.0 -251.0 -146.0 -303.0 -153.0ZM-129.0 -44.0 -137.0 -49.0C-98.0 -90.0 -53.0 -154.0 -34.0 -213.0C79.0 -275.0 157.0 -63.0 -129.0 -44.0Z"/></g>
<g fill="red" transform="translate(100 400) scale(0.1 -0.1)"><path d="M0.0 0.0H-285.0V-30.0H0.0ZM0.0 161.0H-285.0V131.0H0.0ZM10.0 301.0H-285.0V271.0H10.0ZM-40.0 301.0H-30.0V-76.0H-24.0C-10.0 -76.0 12.0 -66.0 14.0 -62.0V262.0C34.0 266.0 51.0 273.0 58.0 281.0L-11.0 334.0ZM-269.0 269.0H-303.0V-309.0C-303.0 -328.0 -307.0 -333.0 -333.0 -346.0L-307.0 -402.0C-296.0 -397.0 -275.0 -377.0 -285.0 -345.0L-300.0 -363.0L-259.0 -352.0V263.0ZM-303.0 333.0V242.0C-274.0 242.0 -259.0 242.0 -259.0 242.0V301.0H-247.0ZM-322.0 -350.0 -298.0 -389.0C-183.0 -324.0 -73.0 -256.0 -11.0 -220.0L-19.0 -204.0C-145.0 -268.0 -269.0 -329.0 -322.0 -350.0ZM-119.0 -96.0 -132.0 -105.0C-73.0 -160.0 0.0 -258.0 11.0 -331.0C63.0 -374.0 98.0 -232.0 -119.0 -96.0Z"/></g>
<g fill="black" opacity=".8" transform="translate(100 400) scale(0.1 -0.1)"><path d="M0.0 0.0H-286.0V-31.0H0.0ZM0.0 161.0H-285.0V131.0H0.0ZM11.0 302.0H-285.0V271.0H11.0ZM-40.0 301.0H-30.0V-76.0H-23.0C-10.0 -76.0 12.0 -67.0 14.0 -63.0V262.0C35.0 266.0 52.0 273.0 58.0 281.0L-11.0 334.0ZM-268.0 269.0H-304.0V-309.0C-304.0 -327.0 -306.0 -332.0 -333.0 -346.0L-306.0 -402.0C-296.0 -397.0 -275.0 -375.0 -284.0 -343.0L-299.0 -362.0L-259.0 -351.0V263.0ZM-304.0 333.0V241.0C-273.0 241.0 -259.0 241.0 -259.0 241.0V301.0H-246.0ZM-323.0 -350.0 -298.0 -389.0C-183.0 -324.0 -73.0 -256.0 -11.0 -220.0L-17.0 -204.0C-145.0 -268.0 -270.0 -329.0 -323.0 -350.0ZM-119.0 -95.0 -132.0 -103.0C-73.0 -159.0 -0.0 -257.0 12.0 -330.0C64.0 -374.0 98.0 -231.0 -119.0 -95.0Z"/></g>
<g fill="red" transform="translate(200 400) scale(0.1 -0.1)"><path d="M0.0 0.0H-284.0V-28.0H0.0ZM2.0 155.0H-282.0V127.0H2.0ZM24.0 305.0H-260.0V277.0H24.0ZM-59.0 305.0H-49.0V-74.0H-26.0C18.0 -74.0 86.0 -50.0 87.0 -43.0V255.0C108.0 259.0 121.0 268.0 127.0 276.0L1.0 372.0ZM-208.0 280.0H-314.0V-229.0C-314.0 -256.0 -319.0 -268.0 -349.0 -287.0L-276.0 -442.0C-243.0 -426.0 -206.0 -378.0 -220.0 -289.0L-285.0 -337.0L-173.0 -295.0V259.0ZM-314.0 365.0V245.0C-217.0 245.0 -174.0 245.0 -174.0 245.0V305.0H-160.0ZM-334.0 -281.0 -258.0 -419.0C-128.0 -323.0 -32.0 -233.0 17.0 -184.0L14.0 -176.0C-129.0 -223.0 -274.0 -266.0 -334.0 -281.0ZM-111.0 -85.0 -119.0 -90.0C-76.0 -151.0 -43.0 -237.0 -41.0 -317.0C85.0 -428.0 218.0 -166.0 -111.0 -85.0Z"/></g>
<g fill="black" opacity=".8" transform="translate(200 400) scale(0.1 -0.1)"><path d="M0.0 0.0H-284.0V-28.0H0.0ZM2.0 154.0H-282.0V126.0H2.0ZM23.0 306.0H-262.0V277.0H23.0ZM-58.0 306.0H-50.0V-74.0H-27.0C19.0 -74.0 86.0 -50.0 88.0 -42.0V255.0C109.0 258.0 121.0 267.0 127.0 276.0L1.0 373.0ZM-208.0 280.0H-315.0V-229.0C-315.0 -255.0 -319.0 -268.0 -349.0 -287.0L-275.0 -441.0C-242.0 -425.0 -206.0 -377.0 -219.0 -289.0L-284.0 -336.0L-173.0 -294.0V260.0ZM-315.0 366.0V246.0C-217.0 246.0 -175.0 246.0 -175.0 246.0V306.0H-160.0ZM-332.0 -281.0 -257.0 -420.0C-126.0 -323.0 -30.0 -234.0 20.0 -185.0L17.0 -178.0C-126.0 -224.0 -272.0 -266.0 -332.0 -281.0ZM-111.0 -88.0 -120.0 -91.0C-77.0 -152.0 -44.0 -238.0 -40.0 -319.0C86.0 -429.0 219.0 -166.0 -111.0 -88.0Z"/></g>
<g fill="red" transform="translate(300 400) scale(0.1 -0.1)"><path d="M0.0 0.0H-195.0V-30.0H0.0ZM0.0 359.0H-195.0V329.0H0.0ZM1.0 183.0H-194.0V153.0H1.0ZM-27.0 359.0H-18.0V-84.0H-12.0C3.0 -84.0 25.0 -72.0 26.0 -66.0V323.0C43.0 326.0 59.0 333.0 65.0 340.0L2.0 390.0ZM-185.0 337.0H-219.0V-307.0C-219.0 -326.0 -222.0 -331.0 -242.0 -342.0L-212.0 -404.0C-200.0 -399.0 -181.0 -376.0 -188.0 -344.0L-207.0 -362.0L-175.0 -355.0V331.0ZM-219.0 391.0V300.0C-190.0 300.0 -175.0 300.0 -175.0 300.0V359.0H-163.0ZM-228.0 -341.0 -201.0 -387.0C-115.0 -325.0 -30.0 -258.0 14.0 -226.0L5.0 -212.0C-90.0 -267.0 -187.0 -321.0 -228.0 -341.0ZM-79.0 -109.0 -93.0 -115.0C-56.0 -167.0 -13.0 -251.0 -7.0 -313.0C45.0 -359.0 92.0 -233.0 -79.0 -109.0Z"/></g>
<g fill="black" opacity=".8" transform="translate(300 400) scale(0.1 -0.1)"><path d="M0.0 0.0H-195.0V-30.0H0.0ZM-1.0 358.0H-193.0V327.0H-1.0ZM1.0 184.0H-192.0V153.0H1.0ZM-28.0 359.0H-19.0V-86.0H-12.0C3.0 -86.0 25.0 -74.0 26.0 -68.0V323.0C44.0 326.0 60.0 332.0 66.0 339.0L2.0 390.0ZM-184.0 338.0H-220.0V-305.0C-220.0 -325.0 -221.0 -328.0 -242.0 -341.0L-211.0 -405.0C-199.0 -399.0 -181.0 -374.0 -186.0 -341.0L-207.0 -361.0L-175.0 -354.0V331.0ZM-220.0 391.0V298.0C-189.0 298.0 -175.0 298.0 -175.0 298.0V359.0H-162.0ZM-229.0 -341.0 -201.0 -387.0C-115.0 -325.0 -30.0 -257.0 14.0 -225.0L8.0 -211.0C-89.0 -267.0 -188.0 -321.0 -229.0 -341.0ZM-81.0 -106.0 -95.0 -112.0C-58.0 -165.0 -14.0 -249.0 -7.0 -311.0C47.0 -358.0 92.0 -231.0 -81.0 -106.0Z"/></g>
<g fill="red" transform="translate(400 400) scale(0.1 -0.1)"><path d="M0.0 0.0H-151.0V-28.0H0.0ZM1.0 380.0H-145.0V352.0H1.0ZM0.0 193.0H-151.0V165.0H0.0ZM-57.0 380.0H-49.0V-74.0H-28.0C12.0 -74.0 71.0 -50.0 72.0 -42.0V341.0C85.0 344.0 95.0 350.0 99.0 355.0L-5.0 434.0ZM-132.0 380.0H-222.0V-206.0C-222.0 -231.0 -227.0 -242.0 -261.0 -260.0L-193.0 -407.0C-164.0 -393.0 -127.0 -347.0 -142.0 -265.0L-203.0 -308.0L-102.0 -278.0V362.0ZM-222.0 442.0V320.0C-139.0 320.0 -102.0 320.0 -102.0 320.0V380.0H-89.0ZM-244.0 -258.0 -183.0 -386.0C-85.0 -301.0 -6.0 -217.0 31.0 -175.0L28.0 -166.0C-83.0 -206.0 -197.0 -245.0 -244.0 -258.0ZM-50.0 -82.0 -61.0 -86.0C-39.0 -143.0 -18.0 -220.0 -19.0 -288.0C75.0 -382.0 195.0 -191.0 -50.0 -82.0Z"/></g>
<g fill="black" opacity=".8" transform="translate(400 400) scale(0.1 -0.1)"><path d="M0.0 0.0H-150.0V-29.0H0.0ZM1.0 380.0H-144.0V351.0H1.0ZM-2.0 194.0H-152.0V166.0H-2.0ZM-57.0 382.0H-50.0V-74.0H-29.0C13.0 -74.0 72.0 -49.0 74.0 -42.0V341.0C87.0 344.0 97.0 349.0 101.0 355.0L-4.0 437.0ZM-131.0 381.0H-225.0V-205.0C-225.0 -229.0 -228.0 -241.0 -263.0 -260.0L-192.0 -408.0C-163.0 -394.0 -126.0 -346.0 -141.0 -264.0L-203.0 -307.0L-101.0 -276.0V364.0ZM-225.0 443.0V321.0C-139.0 321.0 -102.0 321.0 -102.0 321.0V382.0H-89.0ZM-243.0 -259.0 -183.0 -388.0C-83.0 -302.0 -3.0 -219.0 34.0 -176.0L32.0 -168.0C-81.0 -207.0 -196.0 -245.0 -243.0 -259.0ZM-50.0 -87.0 -62.0 -89.0C-39.0 -146.0 -18.0 -223.0 -17.0 -292.0C79.0 -384.0 199.0 -192.0 -50.0 -87.0Z"/></g>
<g fill="red" transform="translate(500 400) scale(0.1 -0.1)"><path d="M0.0 0.0H-285.0V-30.0H0.0ZM0.0 95.0H-285.0V65.0H0.0ZM0.0 196.0H-285.0V166.0H0.0ZM-36.0 196.0H-26.0V-61.0H-20.0C-6.0 -61.0 17.0 -51.0 18.0 -47.0V157.0C37.0 161.0 55.0 168.0 62.0 176.0L-7.0 229.0ZM-270.0 174.0H-304.0V-203.0C-304.0 -218.0 -308.0 -223.0 -327.0 -237.0L-284.0 -294.0C-272.0 -287.0 -257.0 -259.0 -271.0 -231.0L-288.0 -250.0L-260.0 -243.0V168.0ZM-304.0 228.0V137.0C-275.0 137.0 -260.0 137.0 -260.0 137.0V196.0H-248.0ZM-304.0 -230.0 -282.0 -276.0C-186.0 -228.0 -90.0 -174.0 -39.0 -148.0L-45.0 -132.0C-152.0 -175.0 -258.0 -216.0 -304.0 -230.0ZM34.0 -232.0 22.0 -240.0C51.0 -265.0 81.0 -309.0 86.0 -344.0C132.0 -379.0 171.0 -282.0 34.0 -232.0Z"/></g>
<g fill="black" opacity=".8" transform="translate(500 400) scale(0.1 -0.1)"><path d="M0.0 0.0H-285.0V-30.0H0.0ZM-0.0 95.0H-284.0V64.0H-0.0ZM1.0 196.0H-284.0V166.0H1.0ZM-37.0 195.0H-26.0V-62.0H-19.0C-7.0 -62.0 17.0 -52.0 18.0 -48.0V157.0C37.0 162.0 56.0 168.0 61.0 176.0L-8.0 229.0ZM-270.0 175.0H-305.0V-203.0C-305.0 -217.0 -307.0 -222.0 -328.0 -237.0L-284.0 -294.0C-273.0 -286.0 -259.0 -258.0 -271.0 -230.0L-288.0 -250.0L-260.0 -243.0V169.0ZM-305.0 227.0V136.0C-274.0 136.0 -260.0 136.0 -260.0 136.0V195.0H-248.0ZM-304.0 -230.0 -282.0 -275.0C-186.0 -228.0 -91.0 -174.0 -39.0 -147.0L-44.0 -133.0C-152.0 -175.0 -258.0 -216.0 -304.0 -230.0ZM33.0 -232.0 22.0 -239.0C51.0 -265.0 80.0 -309.0 87.0 -343.0C133.0 -380.0 171.0 -281.0 33.0 -232.0Z"/></g>
<g fill="red" transform="translate(600 400) scale(0.1 -0.1)"><path d="M0.0 0.0H-241.0V-28.0H0.0ZM7.0 95.0H-249.0V67.0H7.0ZM-5.0 189.0H-261.0V161.0H-5.0ZM-75.0 189.0H-67.0V-64.0H-46.0C-7.0 -64.0 53.0 -42.0 54.0 -35.0V150.0C68.0 153.0 77.0 159.0 81.0 164.0L-24.0 242.0ZM-208.0 189.0H-302.0V-96.0C-302.0 -118.0 -307.0 -129.0 -342.0 -147.0L-272.0 -299.0C-241.0 -283.0 -204.0 -236.0 -220.0 -152.0L-283.0 -196.0L-177.0 -163.0V171.0ZM-302.0 241.0V129.0C-216.0 129.0 -177.0 129.0 -177.0 129.0V189.0H-162.0ZM-315.0 -153.0 -263.0 -275.0C-155.0 -216.0 -64.0 -155.0 -19.0 -123.0L-21.0 -112.0C-141.0 -131.0 -263.0 -148.0 -315.0 -153.0ZM30.0 -196.0 22.0 -201.0C43.0 -227.0 62.0 -272.0 63.0 -313.0C164.0 -391.0 281.0 -204.0 30.0 -196.0Z"/></g>
<g fill="black" opacity=".8" transform="translate(600 400) scale(0.1 -0.1)"><path d="M0.0 0.0H-241.0V-28.0H0.0ZM6.0 95.0H-249.0V67.0H6.0ZM-6.0 191.0H-261.0V162.0H-6.0ZM-75.0 190.0H-66.0V-65.0H-46.0C-6.0 -65.0 53.0 -42.0 54.0 -35.0V150.0C69.0 153.0 77.0 158.0 81.0 164.0L-24.0 243.0ZM-207.0 190.0H-303.0V-96.0C-303.0 -117.0 -308.0 -128.0 -343.0 -147.0L-271.0 -299.0C-240.0 -283.0 -204.0 -236.0 -219.0 -152.0L-284.0 -195.0L-176.0 -162.0V171.0ZM-303.0 241.0V130.0C-216.0 130.0 -177.0 130.0 -177.0 130.0V190.0H-162.0ZM-316.0 -153.0 -263.0 -277.0C-154.0 -216.0 -64.0 -155.0 -19.0 -123.0L-21.0 -112.0C-140.0 -131.0 -263.0 -147.0 -316.0 -153.0ZM30.0 -197.0 22.0 -201.0C43.0 -227.0 61.0 -272.0 64.0 -315.0C165.0 -392.0 282.0 -204.0 30.0 -197.0Z"/></g>
<g fill="red" transform="translate(700 400) scale(0.1 -0.1)"><path d="M0.0 0.0H-200.0V-30.0H0.0ZM1.0 150.0H-199.0V120.0H1.0ZM1.0 303.0H-199.0V273.0H1.0ZM-25.0 303.0H-26.0V-91.0H-17.0C-1.0 -91.0 16.0 -78.0 18.0 -74.0V266.0C34.0 269.0 48.0 275.0 55.0 283.0L1.0 333.0ZM-192.0 274.0H-226.0V-317.0C-226.0 -336.0 -230.0 -341.0 -256.0 -354.0L-226.0 -418.0C-214.0 -414.0 -193.0 -390.0 -203.0 -355.0L-220.0 -374.0L-182.0 -359.0V268.0ZM-226.0 330.0V244.0C-197.0 244.0 -182.0 244.0 -182.0 244.0V303.0H-170.0ZM-245.0 -361.0 -216.0 -402.0C-140.0 -346.0 -62.0 -283.0 -24.0 -255.0L-32.0 -240.0C-119.0 -292.0 -206.0 -342.0 -245.0 -361.0ZM-103.0 -125.0 -118.0 -131.0C-77.0 -195.0 -21.0 -297.0 -7.0 -367.0C44.0 -412.0 80.0 -289.0 -103.0 -125.0Z"/></g>
<g fill="black" opacity=".8" transform="translate(700 400) scale(0.1 -0.1)"><path d="M0.0 0.0H-205.0V-29.0H0.0ZM1.0 153.0H-202.0V123.0H1.0ZM1.0 304.0H-202.0V274.0H1.0ZM-22.0 305.0H-23.0V-88.0H-15.0C1.0 -88.0 17.0 -77.0 19.0 -73.0V268.0C35.0 271.0 50.0 277.0 55.0 285.0L3.0 335.0ZM-192.0 273.0H-226.0V-318.0C-226.0 -337.0 -229.0 -341.0 -256.0 -356.0L-225.0 -418.0C-214.0 -414.0 -194.0 -389.0 -203.0 -354.0L-221.0 -374.0L-183.0 -358.0V266.0ZM-226.0 330.0V246.0C-197.0 246.0 -183.0 246.0 -183.0 246.0V305.0H-171.0ZM-245.0 -361.0 -217.0 -402.0C-141.0 -347.0 -64.0 -285.0 -26.0 -257.0L-32.0 -243.0C-120.0 -294.0 -206.0 -343.0 -245.0 -361.0ZM-99.0 -128.0 -113.0 -134.0C-75.0 -198.0 -20.0 -300.0 -5.0 -370.0C44.0 -414.0 77.0 -293.0 -99.0 -128.0Z"/></g>
<g fill="red" transform="translate(800 400) scale(0.1 -0.1)"><path d="M0.0 0.0H-174.0V-28.0H0.0ZM0.0 147.0H-174.0V119.0H0.0ZM0.0 299.0H-174.0V271.0H0.0ZM-42.0 299.0H-69.0V-70.0H-50.0C-4.0 -70.0 35.0 -46.0 36.0 -40.0V247.0C52.0 250.0 65.0 256.0 73.0 263.0L-1.0 348.0ZM-166.0 277.0H-253.0V-257.0C-253.0 -280.0 -259.0 -290.0 -300.0 -313.0L-222.0 -447.0C-195.0 -431.0 -163.0 -384.0 -183.0 -308.0L-240.0 -352.0L-138.0 -311.0V260.0ZM-253.0 347.0V239.0C-174.0 239.0 -138.0 239.0 -138.0 239.0V299.0H-127.0ZM-289.0 -321.0 -214.0 -435.0C-123.0 -355.0 -50.0 -278.0 -14.0 -239.0L-18.0 -229.0C-128.0 -269.0 -240.0 -307.0 -289.0 -321.0ZM-88.0 -100.0 -100.0 -104.0C-71.0 -186.0 -40.0 -294.0 -40.0 -385.0C56.0 -481.0 156.0 -268.0 -88.0 -100.0Z"/></g>
<g fill="black" opacity=".8" transform="translate(800 400) scale(0.1 -0.1)"><path d="M0.0 0.0H-177.0V-28.0H0.0ZM0.0 144.0H-177.0V116.0H0.0ZM-2.0 296.0H-180.0V269.0H-2.0ZM-38.0 299.0H-69.0V-69.0H-51.0C-3.0 -69.0 34.0 -44.0 35.0 -38.0V247.0C51.0 249.0 64.0 254.0 71.0 262.0L0.0 347.0ZM-169.0 277.0H-254.0V-260.0C-254.0 -283.0 -258.0 -292.0 -294.0 -314.0L-219.0 -442.0C-193.0 -427.0 -164.0 -382.0 -181.0 -310.0L-236.0 -351.0L-141.0 -312.0V260.0ZM-254.0 345.0V240.0C-176.0 240.0 -142.0 240.0 -142.0 240.0V299.0H-130.0ZM-281.0 -320.0 -210.0 -431.0C-118.0 -353.0 -44.0 -280.0 -7.0 -242.0L-10.0 -233.0C-121.0 -270.0 -233.0 -305.0 -281.0 -320.0ZM-90.0 -99.0 -103.0 -102.0C-74.0 -185.0 -44.0 -293.0 -42.0 -385.0C53.0 -478.0 149.0 -267.0 -90.0 -99.0Z"/></g>
</svg>
