<?xml version="1.0" encoding="UTF-8"?>
<svg width="1700" height="300" xmlns="http://www.w3.org/2000/svg">
<rect width="100%" height="100%" fill="white"/>
<g fill="green" transform="translate(100 100) scale(0.1 -0.1)"><path d="M0.0 0.0H-299.0L-290.0 -30.0H0.0ZM-31.0 0.0H-21.0C-77.0 -148.0 -205.0 -289.0 -369.0 -373.0L-359.0 -389.0C-173.0 -309.0 -48.0 -177.0 21.0 -33.0C45.0 -33.0 56.0 -30.0 64.0 -22.0L5.0 33.0ZM432.0 -12.0 365.0 30.0C331.0 -5.0 263.0 -62.0 208.0 -97.0L222.0 -111.0C283.0 -84.0 355.0 -46.0 396.0 -17.0C416.0 -24.0 424.0 -22.0 432.0 -12.0ZM521.0 -116.0 453.0 -73.0C418.0 -108.0 348.0 -163.0 291.0 -196.0L304.0 -210.0C368.0 -186.0 443.0 -149.0 485.0 -121.0C505.0 -128.0 513.0 -125.0 521.0 -116.0ZM-281.0 -82.0 -292.0 -92.0C-251.0 -117.0 -205.0 -167.0 -194.0 -208.0C-143.0 -240.0 -114.0 -129.0 -281.0 -82.0ZM-171.0 -583.0 -176.0 -602.0C92.0 -658.0 307.0 -760.0 398.0 -837.0C476.0 -863.0 470.0 -691.0 -171.0 -583.0Z"/></g>
<g fill="green" transform="translate(200 100) scale(0.1 -0.1)"><path d="M0.0 0.0H-318.0L-309.0 -28.0H0.0ZM-85.0 0.0H-73.0C-114.0 -159.0 -220.0 -305.0 -382.0 -391.0L-376.0 -403.0C-146.0 -342.0 3.0 -215.0 76.0 -49.0C99.0 -47.0 108.0 -44.0 115.0 -33.0L-10.0 73.0ZM437.0 -37.0 307.0 51.0C292.0 15.0 255.0 -49.0 224.0 -88.0L234.0 -99.0C291.0 -86.0 354.0 -66.0 399.0 -47.0C422.0 -51.0 431.0 -46.0 437.0 -37.0ZM573.0 -137.0 444.0 -50.0C426.0 -90.0 383.0 -159.0 347.0 -203.0L357.0 -214.0C419.0 -197.0 488.0 -171.0 535.0 -147.0C558.0 -152.0 568.0 -147.0 573.0 -137.0ZM-292.0 -70.0 -299.0 -75.0C-276.0 -102.0 -260.0 -149.0 -265.0 -193.0C-153.0 -287.0 -13.0 -77.0 -292.0 -70.0ZM-184.0 -558.0 -187.0 -568.0C32.0 -654.0 215.0 -784.0 290.0 -860.0C447.0 -933.0 561.0 -601.0 -184.0 -558.0Z"/></g>
<g fill="green" transform="translate(300 100) scale(0.1 -0.1)"><path d="M0.0 0.0H-299.0L-290.0 -30.0H0.0ZM-31.0 0.0H-21.0C-77.0 -148.0 -205.0 -289.0 -369.0 -373.0L-359.0 -389.0C-173.0 -309.0 -48.0 -177.0 21.0 -33.0C45.0 -33.0 56.0 -30.0 64.0 -22.0L5.0 33.0ZM432.0 -12.0 365.0 30.0C331.0 -5.0 263.0 -62.0 208.0 -97.0L222.0 -111.0C283.0 -84.0 355.0 -46.0 396.0 -17.0C416.0 -24.0 424.0 -22.0 432.0 -12.0ZM521.0 -116.0 453.0 -73.0C418.0 -108.0 348.0 -163.0 291.0 -196.0L304.0 -210.0C368.0 -186.0 443.0 -149.0 485.0 -121.0C505.0 -128.0 513.0 -125.0 521.0 -116.0ZM-281.0 -82.0 -292.0 -92.0C-251.0 -117.0 -205.0 -167.0 -194.0 -208.0C-143.0 -240.0 -114.0 -129.0 -281.0 -82.0ZM-171.0 -583.0 -176.0 -602.0C92.0 -658.0 307.0 -760.0 398.0 -837.0C476.0 -863.0 470.0 -691.0 -171.0 -583.0Z"/></g>
<g fill="green" transform="translate(400 100) scale(0.1 -0.1)"><path d="M0.0 0.0H-318.0L-309.0 -28.0H0.0ZM-85.0 0.0H-73.0C-114.0 -159.0 -220.0 -305.0 -382.0 -391.0L-376.0 -403.0C-146.0 -342.0 3.0 -215.0 76.0 -49.0C99.0 -47.0 108.0 -44.0 115.0 -33.0L-10.0 73.0ZM437.0 -37.0 307.0 51.0C292.0 15.0 255.0 -49.0 224.0 -88.0L234.0 -99.0C291.0 -86.0 354.0 -66.0 399.0 -47.0C422.0 -51.0 431.0 -46.0 437.0 -37.0ZM573.0 -137.0 444.0 -50.0C426.0 -90.0 383.0 -159.0 347.0 -203.0L357.0 -214.0C419.0 -197.0 488.0 -171.0 535.0 -147.0C558.0 -152.0 568.0 -147.0 573.0 -137.0ZM-292.0 -70.0 -299.0 -75.0C-276.0 -102.0 -260.0 -149.0 -265.0 -193.0C-153.0 -287.0 -13.0 -77.0 -292.0 -70.0ZM-184.0 -558.0 -187.0 -568.0C32.0 -654.0 215.0 -784.0 290.0 -860.0C447.0 -933.0 561.0 -601.0 -184.0 -558.0Z"/></g>
<g fill="red" transform="translate(100 200) scale(0.1 -0.1)"><path d="M0.0 0.0H-299.0L-290.0 -30.0H0.0ZM-31.0 0.0H-21.0C-77.0 -148.0 -205.0 -289.0 -369.0 -373.0L-359.0 -389.0C-173.0 -309.0 -48.0 -177.0 21.0 -33.0C45.0 -33.0 56.0 -30.0 64.0 -22.0L5.0 33.0ZM432.0 -12.0 365.0 30.0C331.0 -5.0 263.0 -62.0 208.0 -97.0L222.0 -111.0C283.0 -84.0 355.0 -46.0 396.0 -17.0C416.0 -24.0 424.0 -22.0 432.0 -12.0ZM521.0 -116.0 453.0 -73.0C418.0 -108.0 348.0 -163.0 291.0 -196.0L304.0 -210.0C368.0 -186.0 443.0 -149.0 485.0 -121.0C505.0 -128.0 513.0 -125.0 521.0 -116.0ZM-281.0 -82.0 -292.0 -92.0C-251.0 -117.0 -205.0 -167.0 -194.0 -208.0C-143.0 -240.0 -114.0 -129.0 -281.0 -82.0ZM-171.0 -583.0 -176.0 -602.0C92.0 -658.0 307.0 -760.0 398.0 -837.0C476.0 -863.0 470.0 -691.0 -171.0 -583.0Z"/></g>
<g fill="black" opacity=".8" transform="translate(100 200) scale(0.1 -0.1)"><path d="M0.0 0.0H-299.0L-290.0 -30.0H0.0ZM-31.0 0.0H-21.0C-77.0 -148.0 -205.0 -289.0 -369.0 -373.0L-359.0 -389.0C-173.0 -309.0 -48.0 -177.0 21.0 -33.0C45.0 -33.0 56.0 -30.0 64.0 -22.0L5.0 33.0ZM432.0 -12.0 365.0 30.0C331.0 -5.0 263.0 -62.0 208.0 -97.0L222.0 -111.0C283.0 -84.0 355.0 -46.0 396.0 -17.0C416.0 -24.0 424.0 -22.0 432.0 -12.0ZM521.0 -116.0 453.0 -73.0C418.0 -108.0 348.0 -163.0 291.0 -196.0L304.0 -210.0C368.0 -186.0 443.0 -149.0 485.0 -121.0C505.0 -128.0 513.0 -125.0 521.0 -116.0ZM-281.0 -82.0 -292.0 -92.0C-251.0 -117.0 -205.0 -167.0 -194.0 -208.0C-143.0 -240.0 -114.0 -129.0 -281.0 -82.0ZM-171.0 -583.0 -176.0 -602.0C92.0 -658.0 307.0 -760.0 398.0 -837.0C476.0 -863.0 470.0 -691.0 -171.0 -583.0Z"/></g>
<g fill="red" transform="translate(200 200) scale(0.1 -0.1)"><path d="M0.0 0.0H-318.0L-309.0 -28.0H0.0ZM-85.0 0.0H-73.0C-114.0 -159.0 -220.0 -305.0 -382.0 -391.0L-376.0 -403.0C-146.0 -342.0 3.0 -215.0 76.0 -49.0C99.0 -47.0 108.0 -44.0 115.0 -33.0L-10.0 73.0ZM437.0 -37.0 307.0 51.0C292.0 15.0 255.0 -49.0 224.0 -88.0L234.0 -99.0C291.0 -86.0 354.0 -66.0 399.0 -47.0C422.0 -51.0 431.0 -46.0 437.0 -37.0ZM573.0 -137.0 444.0 -50.0C426.0 -90.0 383.0 -159.0 347.0 -203.0L357.0 -214.0C419.0 -197.0 488.0 -171.0 535.0 -147.0C558.0 -152.0 568.0 -147.0 573.0 -137.0ZM-292.0 -70.0 -299.0 -75.0C-276.0 -102.0 -260.0 -149.0 -265.0 -193.0C-153.0 -287.0 -13.0 -77.0 -292.0 -70.0ZM-184.0 -558.0 -187.0 -568.0C32.0 -654.0 215.0 -784.0 290.0 -860.0C447.0 -933.0 561.0 -601.0 -184.0 -558.0Z"/></g>
<g fill="black" opacity=".8" transform="translate(200 200) scale(0.1 -0.1)"><path d="M0.0 0.0H-318.0L-309.0 -28.0H0.0ZM-85.0 0.0H-73.0C-114.0 -159.0 -220.0 -305.0 -382.0 -391.0L-376.0 -403.0C-146.0 -342.0 3.0 -215.0 76.0 -49.0C99.0 -47.0 108.0 -44.0 115.0 -33.0L-10.0 73.0ZM437.0 -37.0 307.0 51.0C292.0 15.0 255.0 -49.0 224.0 -88.0L234.0 -99.0C291.0 -86.0 354.0 -66.0 399.0 -47.0C422.0 -51.0 431.0 -46.0 437.0 -37.0ZM573.0 -137.0 444.0 -50.0C426.0 -90.0 383.0 -159.0 347.0 -203.0L357.0 -214.0C419.0 -197.0 488.0 -171.0 535.0 -147.0C558.0 -152.0 568.0 -147.0 573.0 -137.0ZM-292.0 -70.0 -299.0 -75.0C-276.0 -102.0 -260.0 -149.0 -265.0 -193.0C-153.0 -287.0 -13.0 -77.0 -292.0 -70.0ZM-184.0 -558.0 -187.0 -568.0C32.0 -654.0 215.0 -784.0 290.0 -860.0C447.0 -933.0 561.0 -601.0 -184.0 -558.0Z"/></g>
</svg>
