<?xml version="1.0" encoding="UTF-8"?>
<svg width="1700" height="300" xmlns="http://www.w3.org/2000/svg">
<rect width="100%" height="100%" fill="white"/>
<g fill="green" transform="translate(100 100) scale(0.1 -0.1)"><path d="M0.0 0.0H-44.0V-193.0L-36.0 -194.0L-44.0 -195.0V-419.0H-1.0V-195.0L-9.0 -194.0L0.0 -193.0ZM-611.0 -267.0 -594.0 -320.0C-489.0 -301.0 -382.0 -278.0 -325.0 -266.0L-327.0 -248.0C-444.0 -258.0 -560.0 -266.0 -611.0 -267.0ZM-610.0 -37.0 -590.0 -92.0C-519.0 -80.0 -442.0 -63.0 -406.0 -54.0L-407.0 -37.0C-486.0 -39.0 -570.0 -39.0 -610.0 -37.0ZM-378.0 219.0 -454.0 256.0C-480.0 181.0 -546.0 40.0 -602.0 -24.0C-607.0 -29.0 -623.0 -32.0 -623.0 -32.0L-595.0 -106.0C-579.0 -101.0 -563.0 -79.0 -557.0 -43.0H-590.0L-588.0 -54.0C-521.0 20.0 -444.0 140.0 -408.0 217.0L-434.0 209.0C-402.0 196.0 -383.0 207.0 -378.0 219.0ZM-305.0 27.0 -377.0 74.0C-418.0 -15.0 -521.0 -177.0 -603.0 -254.0C-609.0 -259.0 -626.0 -262.0 -626.0 -262.0L-599.0 -336.0C-583.0 -331.0 -566.0 -310.0 -560.0 -274.0H-593.0L-590.0 -285.0C-494.0 -198.0 -385.0 -56.0 -335.0 30.0L-361.0 23.0C-333.0 8.0 -312.0 16.0 -305.0 27.0ZM-473.0 -367.0 -489.0 -371.0C-475.0 -427.0 -465.0 -516.0 -476.0 -582.0C-437.0 -631.0 -382.0 -516.0 -473.0 -367.0ZM-391.0 -345.0 -406.0 -351.0C-377.0 -399.0 -346.0 -479.0 -346.0 -538.0C-302.0 -582.0 -256.0 -470.0 -391.0 -345.0ZM-554.0 -377.0H-574.0C-569.0 -451.0 -592.0 -535.0 -622.0 -568.0C-635.0 -583.0 -642.0 -603.0 -631.0 -613.0C-617.0 -627.0 -590.0 -612.0 -576.0 -592.0C-552.0 -559.0 -532.0 -480.0 -554.0 -377.0Z"/></g>
<g fill="green" transform="translate(200 100) scale(0.1 -0.1)"><path d="M0.0 0.0H-87.0V-215.0L-75.0 -216.0L-105.0 -217.0V-431.0H18.0V-217.0L-13.0 -216.0L0.0 -215.0ZM-640.0 -257.0 -602.0 -374.0C-488.0 -328.0 -388.0 -278.0 -338.0 -252.0L-339.0 -240.0C-463.0 -249.0 -587.0 -256.0 -640.0 -257.0ZM-646.0 -14.0 -600.0 -129.0C-508.0 -90.0 -427.0 -48.0 -388.0 -26.0L-389.0 -14.0C-492.0 -16.0 -599.0 -16.0 -646.0 -14.0ZM-362.0 192.0 -516.0 266.0C-530.0 189.0 -586.0 46.0 -628.0 1.0C-637.0 -6.0 -659.0 -11.0 -659.0 -11.0L-603.0 -144.0C-577.0 -132.0 -557.0 -93.0 -553.0 -27.0H-612.0L-611.0 -39.0C-536.0 10.0 -437.0 115.0 -387.0 188.0L-420.0 183.0C-386.0 171.0 -367.0 179.0 -362.0 192.0ZM-280.0 -1.0 -416.0 91.0C-447.0 -5.0 -548.0 -178.0 -620.0 -235.0C-630.0 -243.0 -657.0 -248.0 -657.0 -248.0L-613.0 -383.0C-584.0 -373.0 -559.0 -335.0 -552.0 -265.0H-608.0L-607.0 -278.0C-501.0 -213.0 -365.0 -81.0 -308.0 2.0L-339.0 -3.0C-308.0 -19.0 -287.0 -12.0 -280.0 -1.0ZM-502.0 -374.0 -514.0 -377.0C-503.0 -438.0 -498.0 -516.0 -510.0 -584.0C-430.0 -684.0 -301.0 -512.0 -502.0 -374.0ZM-421.0 -357.0 -431.0 -362.0C-405.0 -399.0 -379.0 -458.0 -377.0 -508.0C-292.0 -578.0 -197.0 -411.0 -421.0 -357.0ZM-568.0 -386.0H-582.0C-575.0 -438.0 -607.0 -500.0 -628.0 -525.0C-659.0 -547.0 -674.0 -581.0 -657.0 -616.0C-635.0 -655.0 -575.0 -656.0 -553.0 -624.0C-523.0 -579.0 -523.0 -495.0 -568.0 -386.0Z"/></g>
<g fill="green" transform="translate(300 100) scale(0.1 -0.1)"><path d="M0.0 0.0H-44.0V-193.0L-36.0 -194.0L-44.0 -195.0V-419.0H-1.0V-195.0L-9.0 -194.0L0.0 -193.0ZM-611.0 -267.0 -594.0 -320.0C-489.0 -301.0 -382.0 -278.0 -325.0 -266.0L-327.0 -248.0C-444.0 -258.0 -560.0 -266.0 -611.0 -267.0ZM-610.0 -37.0 -590.0 -92.0C-519.0 -80.0 -442.0 -63.0 -406.0 -54.0L-407.0 -37.0C-486.0 -39.0 -570.0 -39.0 -610.0 -37.0ZM-378.0 219.0 -454.0 256.0C-480.0 181.0 -546.0 40.0 -602.0 -24.0C-607.0 -29.0 -623.0 -32.0 -623.0 -32.0L-595.0 -106.0C-579.0 -101.0 -563.0 -79.0 -557.0 -43.0H-590.0L-588.0 -54.0C-521.0 20.0 -444.0 140.0 -408.0 217.0L-434.0 209.0C-402.0 196.0 -383.0 207.0 -378.0 219.0ZM-305.0 27.0 -377.0 74.0C-418.0 -15.0 -521.0 -177.0 -603.0 -254.0C-609.0 -259.0 -626.0 -262.0 -626.0 -262.0L-599.0 -336.0C-583.0 -331.0 -566.0 -310.0 -560.0 -274.0H-593.0L-590.0 -285.0C-494.0 -198.0 -385.0 -56.0 -335.0 30.0L-361.0 23.0C-333.0 8.0 -312.0 16.0 -305.0 27.0ZM-473.0 -367.0 -489.0 -371.0C-475.0 -427.0 -465.0 -516.0 -476.0 -582.0C-437.0 -631.0 -382.0 -516.0 -473.0 -367.0ZM-391.0 -345.0 -406.0 -351.0C-377.0 -399.0 -346.0 -479.0 -346.0 -538.0C-302.0 -582.0 -256.0 -470.0 -391.0 -345.0ZM-554.0 -377.0H-574.0C-569.0 -451.0 -592.0 -535.0 -622.0 -568.0C-635.0 -583.0 -642.0 -603.0 -631.0 -613.0C-617.0 -627.0 -590.0 -612.0 -576.0 -592.0C-552.0 -559.0 -532.0 -480.0 -554.0 -377.0Z"/></g>
<g fill="green" transform="translate(400 100) scale(0.1 -0.1)"><path d="M0.0 0.0H-87.0V-215.0L-75.0 -216.0L-105.0 -217.0V-431.0H18.0V-217.0L-13.0 -216.0L0.0 -215.0ZM-640.0 -257.0 -602.0 -374.0C-488.0 -328.0 -388.0 -278.0 -338.0 -252.0L-339.0 -240.0C-463.0 -249.0 -587.0 -256.0 -640.0 -257.0ZM-646.0 -14.0 -600.0 -129.0C-508.0 -90.0 -427.0 -48.0 -388.0 -26.0L-389.0 -14.0C-492.0 -16.0 -599.0 -16.0 -646.0 -14.0ZM-362.0 192.0 -516.0 266.0C-530.0 189.0 -586.0 46.0 -628.0 1.0C-637.0 -6.0 -659.0 -11.0 -659.0 -11.0L-603.0 -144.0C-577.0 -132.0 -557.0 -93.0 -553.0 -27.0H-612.0L-611.0 -39.0C-536.0 10.0 -437.0 115.0 -387.0 188.0L-420.0 183.0C-386.0 171.0 -367.0 179.0 -362.0 192.0ZM-280.0 -1.0 -416.0 91.0C-447.0 -5.0 -548.0 -178.0 -620.0 -235.0C-630.0 -243.0 -657.0 -248.0 -657.0 -248.0L-613.0 -383.0C-584.0 -373.0 -559.0 -335.0 -552.0 -265.0H-608.0L-607.0 -278.0C-501.0 -213.0 -365.0 -81.0 -308.0 2.0L-339.0 -3.0C-308.0 -19.0 -287.0 -12.0 -280.0 -1.0ZM-502.0 -374.0 -514.0 -377.0C-503.0 -438.0 -498.0 -516.0 -510.0 -584.0C-430.0 -684.0 -301.0 -512.0 -502.0 -374.0ZM-421.0 -357.0 -431.0 -362.0C-405.0 -399.0 -379.0 -458.0 -377.0 -508.0C-292.0 -578.0 -197.0 -411.0 -421.0 -357.0ZM-568.0 -386.0H-582.0C-575.0 -438.0 -607.0 -500.0 -628.0 -525.0C-659.0 -547.0 -674.0 -581.0 -657.0 -616.0C-635.0 -655.0 -575.0 -656.0 -553.0 -624.0C-523.0 -579.0 -523.0 -495.0 -568.0 -386.0Z"/></g>
<g fill="red" transform="translate(100 200) scale(0.1 -0.1)"><path d="M0.0 0H-44.0V-193.0L-36.0 -194.0L-44.0 -195.0V-419.0H-1.0V-195.0L-9.0 -194.0L0.0 -193.0ZM-611.0 -267.0 -594.0 -320.0C-489.0 -301.0 -382.0 -278.0 -325.0 -266.0L-327.0 -248.0C-444.0 -258.0 -560.0 -266.0 -611.0 -267.0ZM-610.0 -37.0 -590.0 -92.0C-519.0 -80.0 -442.0 -63.0 -406.0 -54.0L-407.0 -37.0C-486.0 -39.0 -570.0 -39.0 -610.0 -37.0ZM-378.0 219.0 -454.0 256.0C-480.0 181.0 -546.0 40.0 -602.0 -24.0C-607.0 -29.0 -623.0 -32.0 -623.0 -32.0L-595.0 -106.0C-579.0 -101.0 -563.0 -79.0 -557.0 -43.0H-590.0L-588.0 -54.0C-521.0 20.0 -444.0 140.0 -408.0 217.0L-434.0 209.0C-402.0 196.0 -383.0 207.0 -378.0 219.0ZM-305.0 27.0 -377.0 74.0C-418.0 -15.0 -521.0 -177.0 -603.0 -254.0C-609.0 -259.0 -626.0 -262.0 -626.0 -262.0L-599.0 -336.0C-583.0 -331.0 -566.0 -310.0 -560.0 -274.0H-593.0L-590.0 -285.0C-494.0 -198.0 -385.0 -56.0 -335.0 30.0L-361.0 23.0C-333.0 8.0 -312.0 16.0 -305.0 27.0ZM-473.0 -367.0 -489.0 -371.0C-475.0 -427.0 -465.0 -516.0 -476.0 -582.0C-437.0 -631.0 -382.0 -516.0 -473.0 -367.0ZM-391.0 -345.0 -406.0 -351.0C-377.0 -399.0 -346.0 -479.0 -346.0 -538.0C-302.0 -582.0 -256.0 -470.0 -391.0 -345.0ZM-554.0 -377.0H-574.0C-569.0 -451.0 -592.0 -535.0 -622.0 -568.0C-635.0 -583.0 -642.0 -603.0 -631.0 -613.0C-617.0 -627.0 -590.0 -612.0 -576.0 -592.0C-552.0 -559.0 -532.0 -480.0 -554.0 -377.0Z"/></g>
<g fill="black" opacity=".8" transform="translate(100 200) scale(0.1 -0.1)"><path d="M0.0 0.0H-44.0V-193.0L-36.0 -194.0L-44.0 -195.0V-419.0H-1.0V-195.0L-9.0 -194.0L0.0 -193.0ZM-611.0 -267.0 -594.0 -320.0C-489.0 -301.0 -382.0 -278.0 -325.0 -266.0L-327.0 -248.0C-444.0 -258.0 -560.0 -266.0 -611.0 -267.0ZM-610.0 -37.0 -590.0 -92.0C-519.0 -80.0 -442.0 -63.0 -406.0 -54.0L-407.0 -37.0C-486.0 -39.0 -570.0 -39.0 -610.0 -37.0ZM-378.0 219.0 -454.0 256.0C-480.0 181.0 -546.0 40.0 -602.0 -24.0C-607.0 -29.0 -623.0 -32.0 -623.0 -32.0L-595.0 -106.0C-579.0 -101.0 -563.0 -79.0 -557.0 -43.0H-590.0L-588.0 -54.0C-521.0 20.0 -444.0 140.0 -408.0 217.0L-434.0 209.0C-402.0 196.0 -383.0 207.0 -378.0 219.0ZM-305.0 27.0 -377.0 74.0C-418.0 -15.0 -521.0 -177.0 -603.0 -254.0C-609.0 -259.0 -626.0 -262.0 -626.0 -262.0L-599.0 -336.0C-583.0 -331.0 -566.0 -310.0 -560.0 -274.0H-593.0L-590.0 -285.0C-494.0 -198.0 -385.0 -56.0 -335.0 30.0L-361.0 23.0C-333.0 8.0 -312.0 16.0 -305.0 27.0ZM-473.0 -367.0 -489.0 -371.0C-475.0 -427.0 -465.0 -516.0 -476.0 -582.0C-437.0 -631.0 -382.0 -516.0 -473.0 -367.0ZM-391.0 -345.0 -406.0 -351.0C-377.0 -399.0 -346.0 -479.0 -346.0 -538.0C-302.0 -582.0 -256.0 -470.0 -391.0 -345.0ZM-554.0 -377.0H-574.0C-569.0 -451.0 -592.0 -535.0 -622.0 -568.0C-635.0 -583.0 -642.0 -603.0 -631.0 -613.0C-617.0 -627.0 -590.0 -612.0 -576.0 -592.0C-552.0 -559.0 -532.0 -480.0 -554.0 -377.0Z"/></g>
<g fill="red" transform="translate(200 200) scale(0.1 -0.1)"><path d="M0.0 0H-87.0V-215.0L-75.0 -216.0L-105.0 -217.0V-431.0H18.0V-217.0L-13.0 -216.0L0.0 -215.0ZM-640.0 -257.0 -602.0 -374.0C-488.0 -328.0 -388.0 -278.0 -338.0 -252.0L-339.0 -240.0C-463.0 -249.0 -587.0 -256.0 -640.0 -257.0ZM-646.0 -14.0 -600.0 -129.0C-508.0 -90.0 -427.0 -48.0 -388.0 -26.0L-389.0 -14.0C-492.0 -16.0 -599.0 -16.0 -646.0 -14.0ZM-362.0 192.0 -516.0 266.0C-530.0 189.0 -586.0 46.0 -628.0 1.0C-637.0 -6.0 -659.0 -11.0 -659.0 -11.0L-603.0 -144.0C-577.0 -132.0 -557.0 -93.0 -553.0 -27.0H-612.0L-611.0 -39.0C-536.0 10.0 -437.0 115.0 -387.0 188.0L-420.0 183.0C-386.0 171.0 -367.0 179.0 -362.0 192.0ZM-280.0 -1.0 -416.0 91.0C-447.0 -5.0 -548.0 -178.0 -620.0 -235.0C-630.0 -243.0 -657.0 -248.0 -657.0 -248.0L-613.0 -383.0C-584.0 -373.0 -559.0 -335.0 -552.0 -265.0H-608.0L-607.0 -278.0C-501.0 -213.0 -365.0 -81.0 -308.0 2.0L-339.0 -3.0C-308.0 -19.0 -287.0 -12.0 -280.0 -1.0ZM-502.0 -374.0 -514.0 -377.0C-503.0 -438.0 -498.0 -516.0 -510.0 -584.0C-430.0 -684.0 -301.0 -512.0 -502.0 -374.0ZM-421.0 -357.0 -431.0 -362.0C-405.0 -399.0 -379.0 -458.0 -377.0 -508.0C-292.0 -578.0 -197.0 -411.0 -421.0 -357.0ZM-568.0 -386.0H-582.0C-575.0 -438.0 -607.0 -500.0 -628.0 -525.0C-659.0 -547.0 -674.0 -581.0 -657.0 -616.0C-635.0 -655.0 -575.0 -656.0 -553.0 -624.0C-523.0 -579.0 -523.0 -495.0 -568.0 -386.0Z"/></g>
<g fill="black" opacity=".8" transform="translate(200 200) scale(0.1 -0.1)"><path d="M0.0 0.0H-87.0V-215.0L-75.0 -216.0L-105.0 -217.0V-431.0H18.0V-217.0L-13.0 -216.0L0.0 -215.0ZM-640.0 -257.0 -602.0 -374.0C-488.0 -328.0 -388.0 -278.0 -338.0 -252.0L-339.0 -240.0C-463.0 -249.0 -587.0 -256.0 -640.0 -257.0ZM-646.0 -14.0 -600.0 -129.0C-508.0 -90.0 -427.0 -48.0 -388.0 -26.0L-389.0 -14.0C-492.0 -16.0 -599.0 -16.0 -646.0 -14.0ZM-362.0 192.0 -516.0 266.0C-530.0 189.0 -586.0 46.0 -628.0 1.0C-637.0 -6.0 -659.0 -11.0 -659.0 -11.0L-603.0 -144.0C-577.0 -132.0 -557.0 -93.0 -553.0 -27.0H-612.0L-611.0 -39.0C-536.0 10.0 -437.0 115.0 -387.0 188.0L-420.0 183.0C-386.0 171.0 -367.0 179.0 -362.0 192.0ZM-280.0 -1.0 -416.0 91.0C-447.0 -5.0 -548.0 -178.0 -620.0 -235.0C-630.0 -243.0 -657.0 -248.0 -657.0 -248.0L-613.0 -383.0C-584.0 -373.0 -559.0 -335.0 -552.0 -265.0H-608.0L-607.0 -278.0C-501.0 -213.0 -365.0 -81.0 -308.0 2.0L-339.0 -3.0C-308.0 -19.0 -287.0 -12.0 -280.0 -1.0ZM-502.0 -374.0 -514.0 -377.0C-503.0 -438.0 -498.0 -516.0 -510.0 -584.0C-430.0 -684.0 -301.0 -512.0 -502.0 -374.0ZM-421.0 -357.0 -431.0 -362.0C-405.0 -399.0 -379.0 -458.0 -377.0 -508.0C-292.0 -578.0 -197.0 -411.0 -421.0 -357.0ZM-568.0 -386.0H-582.0C-575.0 -438.0 -607.0 -500.0 -628.0 -525.0C-659.0 -547.0 -674.0 -581.0 -657.0 -616.0C-635.0 -655.0 -575.0 -656.0 -553.0 -624.0C-523.0 -579.0 -523.0 -495.0 -568.0 -386.0Z"/></g>
</svg>
