<?xml version="1.0" encoding="UTF-8"?>
<svg width="1700" height="300" xmlns="http://www.w3.org/2000/svg">
<rect width="100%" height="100%" fill="white"/>
<g fill="green" transform="translate(100 100) scale(0.1 -0.1)"><path d="M0.0 0.0V133.0H397.0V163.0H6.0L-41.0 187.0V-13.0H-34.0C-17.0 -13.0 0.0 -4.0 0.0 0.0ZM34.0 200.0V428.0H377.0V458.0H40.0L-7.0 482.0V186.0H0.0C17.0 186.0 34.0 196.0 34.0 200.0ZM372.0 257.0H7.0V227.0H372.0ZM396.0 59.0H-21.0V29.0H396.0ZM343.0 458.0H351.0V192.0H357.0C371.0 192.0 391.0 204.0 392.0 210.0V425.0C408.0 427.0 422.0 434.0 427.0 440.0L369.0 486.0ZM374.0 163.0H382.0V-7.0H388.0C402.0 -7.0 422.0 4.0 423.0 10.0V130.0C439.0 132.0 453.0 139.0 458.0 145.0L400.0 190.0ZM245.0 527.0 169.0 536.0V-32.0H178.0C193.0 -32.0 210.0 -22.0 210.0 -14.0V501.0C234.0 504.0 243.0 513.0 245.0 527.0ZM-419.0 252.0 -386.0 188.0C-378.0 190.0 -370.0 197.0 -365.0 209.0C-236.0 230.0 -137.0 255.0 -60.0 278.0L-63.0 294.0C-199.0 273.0 -345.0 256.0 -419.0 252.0Z"/></g>
<g fill="green" transform="translate(200 100) scale(0.1 -0.1)"><path d="M0.0 0.0V126.0H307.0V154.0H6.0L-113.0 200.0V-33.0H-97.0C-52.0 -33.0 0.0 -9.0 0.0 0.0ZM27.0 209.0V400.0H289.0V428.0H32.0L-81.0 473.0V176.0H-66.0C-21.0 176.0 27.0 200.0 27.0 209.0ZM314.0 247.0H-37.0V219.0H314.0ZM336.0 55.0H-39.0V27.0H336.0ZM233.0 428.0H241.0V188.0H260.0C296.0 188.0 348.0 212.0 349.0 220.0V390.0C362.0 393.0 372.0 399.0 377.0 405.0L280.0 476.0ZM253.0 154.0H262.0V-11.0H281.0C318.0 -11.0 371.0 12.0 372.0 20.0V113.0C388.0 116.0 399.0 123.0 404.0 130.0L302.0 205.0ZM232.0 517.0 74.0 532.0V-22.0H97.0C144.0 -22.0 194.0 -4.0 194.0 4.0V489.0C222.0 493.0 230.0 503.0 232.0 517.0ZM-521.0 273.0 -497.0 133.0C-484.0 134.0 -472.0 143.0 -465.0 155.0C-294.0 201.0 -175.0 243.0 -84.0 277.0L-85.0 290.0C-253.0 276.0 -439.0 269.0 -521.0 273.0Z"/></g>
<g fill="green" transform="translate(300 100) scale(0.1 -0.1)"><path d="M0.0 0.0V133.0H397.0V163.0H6.0L-41.0 187.0V-13.0H-34.0C-17.0 -13.0 0.0 -4.0 0.0 0.0ZM34.0 200.0V428.0H377.0V458.0H40.0L-7.0 482.0V186.0H0.0C17.0 186.0 34.0 196.0 34.0 200.0ZM372.0 257.0H7.0V227.0H372.0ZM396.0 59.0H-21.0V29.0H396.0ZM343.0 458.0H351.0V192.0H357.0C371.0 192.0 391.0 204.0 392.0 210.0V425.0C408.0 427.0 422.0 434.0 427.0 440.0L369.0 486.0ZM374.0 163.0H382.0V-7.0H388.0C402.0 -7.0 422.0 4.0 423.0 10.0V130.0C439.0 132.0 453.0 139.0 458.0 145.0L400.0 190.0ZM245.0 527.0 169.0 536.0V-32.0H178.0C193.0 -32.0 210.0 -22.0 210.0 -14.0V501.0C234.0 504.0 243.0 513.0 245.0 527.0ZM-419.0 252.0 -386.0 188.0C-378.0 190.0 -370.0 197.0 -365.0 209.0C-236.0 230.0 -137.0 255.0 -60.0 278.0L-63.0 294.0C-199.0 273.0 -345.0 256.0 -419.0 252.0Z"/></g>
<g fill="green" transform="translate(400 100) scale(0.1 -0.1)"><path d="M0.0 0.0V126.0H307.0V154.0H6.0L-113.0 200.0V-33.0H-97.0C-52.0 -33.0 0.0 -9.0 0.0 0.0ZM27.0 209.0V400.0H289.0V428.0H32.0L-81.0 473.0V176.0H-66.0C-21.0 176.0 27.0 200.0 27.0 209.0ZM314.0 247.0H-37.0V219.0H314.0ZM336.0 55.0H-39.0V27.0H336.0ZM233.0 428.0H241.0V188.0H260.0C296.0 188.0 348.0 212.0 349.0 220.0V390.0C362.0 393.0 372.0 399.0 377.0 405.0L280.0 476.0ZM253.0 154.0H262.0V-11.0H281.0C318.0 -11.0 371.0 12.0 372.0 20.0V113.0C388.0 116.0 399.0 123.0 404.0 130.0L302.0 205.0ZM232.0 517.0 74.0 532.0V-22.0H97.0C144.0 -22.0 194.0 -4.0 194.0 4.0V489.0C222.0 493.0 230.0 503.0 232.0 517.0ZM-521.0 273.0 -497.0 133.0C-484.0 134.0 -472.0 143.0 -465.0 155.0C-294.0 201.0 -175.0 243.0 -84.0 277.0L-85.0 290.0C-253.0 276.0 -439.0 269.0 -521.0 273.0Z"/></g>
<g fill="red" transform="translate(100 200) scale(0.1 -0.1)"><path d="M0.0 0.0V133.0H397.0V163.0H6.0L-41.0 187.0V-13.0H-34.0C-17.0 -13.0 0.0 -4.0 0.0 0.0ZM34.0 200.0V428.0H377.0V458.0H40.0L-7.0 482.0V186.0H0.0C17.0 186.0 34.0 196.0 34.0 200.0ZM372.0 257.0H7.0V227.0H372.0ZM396.0 59.0H-21.0V29.0H396.0ZM343.0 458.0H351.0V192.0H357.0C371.0 192.0 391.0 204.0 392.0 210.0V425.0C408.0 427.0 422.0 434.0 427.0 440.0L369.0 486.0ZM374.0 163.0H382.0V-7.0H388.0C402.0 -7.0 422.0 4.0 423.0 10.0V130.0C439.0 132.0 453.0 139.0 458.0 145.0L400.0 190.0ZM245.0 527.0 169.0 536.0V-32.0H178.0C193.0 -32.0 210.0 -22.0 210.0 -14.0V501.0C234.0 504.0 243.0 513.0 245.0 527.0ZM-419.0 252.0 -386.0 188.0C-378.0 190.0 -370.0 197.0 -365.0 209.0C-236.0 230.0 -137.0 255.0 -60.0 278.0L-63.0 294.0C-199.0 273.0 -345.0 256.0 -419.0 252.0Z"/></g>
<g fill="black" opacity=".8" transform="translate(100 200) scale(0.1 -0.1)"><path d="M0.0 0.0V133.0H397.0V163.0H6.0L-41.0 187.0V-13.0H-34.0C-17.0 -13.0 0.0 -4.0 0.0 0.0ZM34.0 200.0V428.0H377.0V458.0H40.0L-7.0 482.0V186.0H0.0C17.0 186.0 34.0 196.0 34.0 200.0ZM372.0 257.0H7.0V227.0H372.0ZM396.0 59.0H-21.0V29.0H396.0ZM343.0 458.0H351.0V192.0H357.0C371.0 192.0 391.0 204.0 392.0 210.0V425.0C408.0 427.0 422.0 434.0 427.0 440.0L369.0 486.0ZM374.0 163.0H382.0V-7.0H388.0C402.0 -7.0 422.0 4.0 423.0 10.0V130.0C439.0 132.0 453.0 139.0 458.0 145.0L400.0 190.0ZM245.0 527.0 169.0 536.0V-32.0H178.0C193.0 -32.0 210.0 -22.0 210.0 -14.0V501.0C234.0 504.0 243.0 513.0 245.0 527.0ZM-419.0 252.0 -386.0 188.0C-378.0 190.0 -370.0 197.0 -365.0 209.0C-236.0 230.0 -137.0 255.0 -60.0 278.0L-63.0 294.0C-199.0 273.0 -345.0 256.0 -419.0 252.0Z"/></g>
<g fill="red" transform="translate(200 200) scale(0.1 -0.1)"><path d="M0.0 0.0V126.0H307.0V154.0H6.0L-113.0 200.0V-33.0H-97.0C-52.0 -33.0 0.0 -9.0 0.0 0.0ZM27.0 209.0V400.0H289.0V428.0H32.0L-81.0 473.0V176.0H-66.0C-21.0 176.0 27.0 200.0 27.0 209.0ZM314.0 247.0H-37.0V219.0H314.0ZM336.0 55.0H-39.0V27.0H336.0ZM233.0 428.0H241.0V188.0H260.0C296.0 188.0 348.0 212.0 349.0 220.0V390.0C362.0 393.0 372.0 399.0 377.0 405.0L280.0 476.0ZM253.0 154.0H262.0V-11.0H281.0C318.0 -11.0 371.0 12.0 372.0 20.0V113.0C388.0 116.0 399.0 123.0 404.0 130.0L302.0 205.0ZM232.0 517.0 74.0 532.0V-22.0H97.0C144.0 -22.0 194.0 -4.0 194.0 4.0V489.0C222.0 493.0 230.0 503.0 232.0 517.0ZM-521.0 273.0 -497.0 133.0C-484.0 134.0 -472.0 143.0 -465.0 155.0C-294.0 201.0 -175.0 243.0 -84.0 277.0L-85.0 290.0C-253.0 276.0 -439.0 269.0 -521.0 273.0Z"/></g>
<g fill="black" opacity=".8" transform="translate(200 200) scale(0.1 -0.1)"><path d="M0.0 0.0V126.0H307.0V154.0H6.0L-113.0 200.0V-33.0H-97.0C-52.0 -33.0 0.0 -9.0 0.0 0.0ZM27.0 209.0V400.0H289.0V428.0H32.0L-81.0 473.0V176.0H-66.0C-21.0 176.0 27.0 200.0 27.0 209.0ZM314.0 247.0H-37.0V219.0H314.0ZM336.0 55.0H-39.0V27.0H336.0ZM233.0 428.0H241.0V188.0H260.0C296.0 188.0 348.0 212.0 349.0 220.0V390.0C362.0 393.0 372.0 399.0 377.0 405.0L280.0 476.0ZM253.0 154.0H262.0V-11.0H281.0C318.0 -11.0 371.0 12.0 372.0 20.0V113.0C388.0 116.0 399.0 123.0 404.0 130.0L302.0 205.0ZM232.0 517.0 74.0 532.0V-22.0H97.0C144.0 -22.0 194.0 -4.0 194.0 4.0V489.0C222.0 493.0 230.0 503.0 232.0 517.0ZM-521.0 273.0 -497.0 133.0C-484.0 134.0 -472.0 143.0 -465.0 155.0C-294.0 201.0 -175.0 243.0 -84.0 277.0L-85.0 290.0C-253.0 276.0 -439.0 269.0 -521.0 273.0Z"/></g>
</svg>
