<?xml version="1.0" encoding="UTF-8"?>
<svg width="1700" height="300" xmlns="http://www.w3.org/2000/svg">
<rect width="100%" height="100%" fill="white"/>
<g fill="green" transform="translate(100 100) scale(0.1 -0.1)"><path d="M-0.0 0.0V309.0H305.0V340.0H5.0L-44.0 365.0V-16.0H-36.0C-18.0 -16.0 0.0 -5.0 0.0 0.0ZM162.0 339.0H118.0V50.0L126.0 49.0L118.0 48.0V-229.0H124.0C147.0 -229.0 162.0 -216.0 162.0 -212.0V48.0L154.0 49.0L162.0 50.0ZM287.0 -34.0 255.0 -74.0H-57.0L-49.0 -104.0H324.0C337.0 -104.0 346.0 -99.0 349.0 -88.0C325.0 -63.0 287.0 -34.0 287.0 -34.0ZM304.0 61.0H-20.0V30.0H304.0ZM270.0 340.0H279.0V-0.0H285.0C300.0 -0.0 322.0 13.0 323.0 19.0V303.0C340.0 306.0 356.0 313.0 362.0 320.0L298.0 371.0ZM557.0 371.0 471.0 392.0C443.0 228.0 395.0 57.0 344.0 -59.0L362.0 -68.0C428.0 38.0 483.0 196.0 520.0 348.0C542.0 350.0 553.0 359.0 557.0 371.0ZM-88.0 -228.0 -57.0 -289.0C-49.0 -286.0 -40.0 -279.0 -36.0 -267.0C135.0 -237.0 263.0 -211.0 356.0 -192.0L354.0 -174.0C169.0 -198.0 -10.0 -221.0 -88.0 -228.0ZM35.0 268.0 20.0 264.0C34.0 224.0 51.0 161.0 49.0 114.0C82.0 78.0 124.0 159.0 35.0 268.0Z"/></g>
<g fill="green" transform="translate(200 100) scale(0.1 -0.1)"><path d="M0.0 0.0V296.0H265.0V324.0H5.0L-105.0 369.0V-33.0H-90.0C-45.0 -33.0 0.0 -9.0 0.0 0.0ZM146.0 325.0H65.0V26.0L77.0 25.0L45.0 24.0V-238.0H67.0C129.0 -238.0 166.0 -213.0 167.0 -205.0V24.0L134.0 25.0L146.0 26.0ZM260.0 -19.0 206.0 -88.0H-119.0L-111.0 -116.0H336.0C350.0 -116.0 360.0 -111.0 363.0 -100.0C325.0 -67.0 260.0 -19.0 260.0 -19.0ZM280.0 33.0H-58.0V5.0H280.0ZM195.0 324.0H203.0V-21.0H221.0C256.0 -21.0 310.0 -1.0 311.0 6.0V281.0C328.0 285.0 340.0 292.0 345.0 299.0L243.0 377.0ZM580.0 362.0 394.0 402.0C381.0 225.0 344.0 29.0 304.0 -105.0L317.0 -110.0C416.0 -4.0 489.0 148.0 541.0 336.0C563.0 337.0 576.0 347.0 580.0 362.0ZM-133.0 -201.0 -86.0 -347.0C-74.0 -345.0 -62.0 -337.0 -55.0 -324.0C135.0 -267.0 263.0 -224.0 349.0 -191.0L348.0 -179.0C148.0 -191.0 -52.0 -200.0 -133.0 -201.0ZM3.0 259.0 -12.0 255.0C2.0 212.0 16.0 147.0 14.0 95.0C63.0 41.0 131.0 149.0 3.0 259.0Z"/></g>
<g fill="green" transform="translate(300 100) scale(0.1 -0.1)"><path d="M-0.0 0.0V75.0H90.0V83.0H1.0L-10.0 89.0V-4.0H-8.0C-4.0 -4.0 0.0 -2.0 0.0 0.0ZM65.0 70.0H56.0V2.0H57.0H56.0V-63.0H57.0C62.0 -63.0 65.0 -60.0 65.0 -59.0V2.0H64.0H65.0ZM104.0 -18.0 98.0 -27.0H7.0L9.0 -34.0H113.0C115.0 -34.0 117.0 -33.0 118.0 -30.0C113.0 -24.0 104.0 -18.0 104.0 -18.0ZM89.0 11.0H-5.0V3.0H89.0ZM83.0 83.0H85.0V-0.0H86.0C89.0 -0.0 95.0 3.0 95.0 4.0V74.0C99.0 75.0 103.0 76.0 104.0 78.0L89.0 91.0ZM286.0 131.0 258.0 137.0C240.0 33.0 213.0 -55.0 185.0 -118.0L191.0 -122.0C225.0 -64.0 253.0 25.0 274.0 123.0C280.0 125.0 283.0 127.0 286.0 131.0ZM-1.0 -61.0 6.0 -76.0C8.0 -75.0 10.0 -73.0 11.0 -70.0C57.0 -63.0 91.0 -57.0 115.0 -53.0V-49.0C66.0 -54.0 19.0 -59.0 -1.0 -61.0ZM30.0 55.0 27.0 54.0C30.0 44.0 36.0 30.0 36.0 19.0C43.0 11.0 52.0 30.0 30.0 55.0Z"/></g>
<g fill="green" transform="translate(400 100) scale(0.1 -0.1)"><path d="M0.0 0.0V72.0H77.0V78.0H1.0L-29.0 91.0V-9.0H-25.0C-12.0 -9.0 0.0 -2.0 0.0 0.0ZM60.0 68.0H38.0V-2.0H41.0H33.0V-63.0H39.0C55.0 -63.0 65.0 -57.0 66.0 -55.0V-2.0H57.0H60.0ZM102.0 -8.0 87.0 -29.0H-11.0L-9.0 -35.0H127.0C130.0 -35.0 133.0 -34.0 134.0 -32.0C123.0 -23.0 102.0 -8.0 102.0 -8.0ZM84.0 3.0H-19.0V-3.0H84.0ZM54.0 78.0H55.0V-6.0H60.0C70.0 -6.0 86.0 -1.0 86.0 0.0V67.0C90.0 69.0 93.0 70.0 94.0 72.0L66.0 93.0ZM308.0 131.0 221.0 150.0C213.0 37.0 192.0 -67.0 170.0 -142.0L173.0 -144.0C229.0 -87.0 266.0 -5.0 296.0 121.0C300.0 122.0 306.0 124.0 308.0 131.0ZM-14.0 -56.0 -3.0 -89.0C-1.0 -88.0 2.0 -87.0 4.0 -84.0C59.0 -70.0 95.0 -61.0 120.0 -53.0V-51.0C65.0 -54.0 8.0 -56.0 -14.0 -56.0ZM23.0 49.0 19.0 48.0C22.0 39.0 25.0 25.0 24.0 12.0C39.0 -4.0 61.0 26.0 23.0 49.0Z"/></g>
<g fill="green" transform="translate(500 100) scale(0.1 -0.1)"><path d="M0.0 0.0V387.0H352.0V440.0H9.0L-76.0 482.0V-27.0H-64.0C-32.0 -27.0 0.0 -8.0 0.0 0.0ZM-152.0 711.0H-228.0V212.0L-215.0 211.0L-228.0 209.0V-270.0H-218.0C-178.0 -270.0 -152.0 -247.0 -152.0 -240.0V209.0L-166.0 211.0L-152.0 212.0ZM36.0 68.0 -21.0 -2.0H-502.0L-488.0 -54.0H100.0C122.0 -54.0 138.0 -46.0 143.0 -27.0C102.0 17.0 36.0 68.0 36.0 68.0ZM352.0 97.0H-37.0V44.0H352.0ZM298.0 440.0H312.0V-2.0H323.0C350.0 -2.0 386.0 21.0 388.0 33.0V380.0C414.0 385.0 439.0 396.0 447.0 407.0L345.0 489.0ZM234.0 635.0 104.0 670.0C81.0 510.0 37.0 307.0 -8.0 169.0L21.0 160.0C85.0 283.0 140.0 452.0 177.0 598.0C213.0 600.0 230.0 618.0 234.0 635.0ZM-554.0 -274.0 -500.0 -378.0C-487.0 -373.0 -472.0 -361.0 -464.0 -341.0C-198.0 -289.0 3.0 -243.0 148.0 -212.0L143.0 -180.0C-147.0 -222.0 -430.0 -263.0 -554.0 -274.0ZM-352.0 583.0 -379.0 577.0C-358.0 509.0 -338.0 402.0 -344.0 322.0C-286.0 257.0 -209.0 396.0 -352.0 583.0Z"/></g>
<g fill="green" transform="translate(600 100) scale(0.1 -0.1)"><path d="M0.0 0.0V374.0H288.0V422.0H6.0L-171.0 494.0V-53.0H-147.0C-75.0 -53.0 0.0 -14.0 0.0 0.0ZM-209.0 701.0H-336.0V185.0L-317.0 183.0L-371.0 181.0V-272.0H-336.0C-235.0 -272.0 -173.0 -230.0 -171.0 -217.0V181.0L-228.0 183.0L-209.0 185.0ZM-67.0 102.0 -158.0 -12.0H-637.0L-623.0 -61.0H58.0C82.0 -61.0 99.0 -52.0 103.0 -33.0C40.0 22.0 -67.0 102.0 -67.0 102.0ZM314.0 71.0H-79.0V22.0H314.0ZM147.0 422.0H162.0V-27.0H191.0C246.0 -27.0 334.0 6.0 336.0 17.0V350.0C364.0 356.0 385.0 370.0 394.0 381.0L226.0 507.0ZM194.0 645.0 -24.0 694.0C-34.0 519.0 -66.0 288.0 -100.0 130.0L-75.0 124.0C15.0 253.0 85.0 425.0 134.0 601.0C171.0 603.0 190.0 625.0 194.0 645.0ZM-657.0 -206.0 -577.0 -461.0C-555.0 -458.0 -534.0 -443.0 -523.0 -420.0C-233.0 -322.0 -38.0 -247.0 92.0 -189.0L91.0 -170.0C-219.0 -189.0 -531.0 -204.0 -657.0 -206.0ZM-444.0 588.0 -470.0 581.0C-446.0 506.0 -420.0 390.0 -424.0 300.0C-347.0 215.0 -242.0 390.0 -444.0 588.0Z"/></g>
<g fill="green" transform="translate(700 100) scale(0.1 -0.1)"><path d="M-0.0 0.0V355.0H342.0V389.0H5.0L-49.0 417.0V-17.0H-39.0C-20.0 -17.0 0.0 -5.0 0.0 0.0ZM217.0 364.0H168.0V48.0L177.0 47.0L168.0 46.0V-257.0H175.0C200.0 -257.0 217.0 -243.0 217.0 -239.0V46.0L208.0 47.0L217.0 48.0ZM365.0 -46.0 331.0 -89.0H-24.0L-15.0 -122.0H404.0C419.0 -122.0 429.0 -116.0 432.0 -104.0C407.0 -78.0 365.0 -46.0 365.0 -46.0ZM339.0 70.0H-22.0V36.0H339.0ZM304.0 389.0H314.0V1.0H321.0C337.0 1.0 362.0 14.0 363.0 21.0V348.0C381.0 352.0 399.0 359.0 406.0 367.0L335.0 423.0ZM373.0 266.0 298.0 290.0C288.0 207.0 271.0 96.0 257.0 16.0L275.0 11.0C299.0 81.0 321.0 167.0 338.0 241.0C359.0 242.0 372.0 256.0 373.0 266.0ZM-60.0 -258.0 -26.0 -325.0C-17.0 -322.0 -7.0 -314.0 -3.0 -301.0C184.0 -269.0 324.0 -241.0 426.0 -221.0L424.0 -201.0C222.0 -226.0 26.0 -251.0 -60.0 -258.0ZM80.0 285.0 63.0 281.0C78.0 238.0 93.0 169.0 89.0 119.0C126.0 77.0 174.0 166.0 80.0 285.0Z"/></g>
<g fill="green" transform="translate(800 100) scale(0.1 -0.1)"><path d="M0.0 0.0V341.0H305.0V372.0H6.0L-110.0 419.0V-35.0H-93.0C-46.0 -35.0 0.0 -10.0 0.0 0.0ZM196.0 340.0H109.0V13.0L122.0 12.0L86.0 10.0V-276.0H110.0C178.0 -276.0 219.0 -249.0 219.0 -240.0V10.0L183.0 12.0L196.0 13.0ZM315.0 -42.0 261.0 -111.0H-81.0L-72.0 -142.0H390.0C405.0 -142.0 416.0 -136.0 419.0 -124.0C381.0 -90.0 315.0 -42.0 315.0 -42.0ZM322.0 38.0H-60.0V8.0H322.0ZM220.0 372.0H228.0V-22.0H247.0C283.0 -22.0 339.0 -1.0 340.0 7.0V326.0C359.0 330.0 372.0 337.0 378.0 345.0L270.0 427.0ZM339.0 264.0 232.0 297.0C230.0 208.0 222.0 84.0 216.0 -7.0L233.0 -10.0C261.0 62.0 285.0 148.0 302.0 236.0C323.0 236.0 337.0 252.0 339.0 264.0ZM-99.0 -234.0 -48.0 -395.0C-34.0 -392.0 -21.0 -383.0 -13.0 -369.0C181.0 -307.0 311.0 -260.0 399.0 -225.0L398.0 -211.0C191.0 -224.0 -14.0 -233.0 -99.0 -234.0ZM42.0 273.0 25.0 268.0C41.0 222.0 58.0 151.0 56.0 95.0C109.0 38.0 179.0 153.0 42.0 273.0Z"/></g>
<g fill="green" transform="translate(900 100) scale(0.1 -0.1)"><path d="M0.0 0.0V331.0H279.0V363.0H5.0L-44.0 388.0V-15.0H-37.0C-17.0 -15.0 0.0 -4.0 0.0 0.0ZM167.0 342.0H123.0V49.0L131.0 48.0L123.0 47.0V-235.0H129.0C152.0 -235.0 167.0 -222.0 167.0 -218.0V47.0L159.0 48.0L167.0 49.0ZM256.0 -36.0 225.0 -75.0H-36.0L-27.0 -105.0H293.0C306.0 -105.0 315.0 -100.0 318.0 -89.0C295.0 -65.0 256.0 -36.0 256.0 -36.0ZM276.0 72.0H-20.0V40.0H276.0ZM243.0 363.0H252.0V1.0H258.0C273.0 1.0 295.0 13.0 296.0 19.0V325.0C314.0 328.0 331.0 335.0 337.0 342.0L271.0 394.0ZM561.0 389.0 472.0 407.0C448.0 280.0 400.0 130.0 343.0 37.0L361.0 29.0C432.0 115.0 491.0 253.0 524.0 371.0C549.0 373.0 557.0 378.0 561.0 389.0ZM-63.0 -237.0 -30.0 -297.0C-22.0 -295.0 -14.0 -288.0 -9.0 -276.0C141.0 -243.0 253.0 -215.0 335.0 -195.0L332.0 -177.0C167.0 -203.0 8.0 -229.0 -63.0 -237.0ZM55.0 266.0 39.0 262.0C51.0 222.0 65.0 159.0 62.0 112.0C95.0 74.0 139.0 155.0 55.0 266.0Z"/></g>
<g fill="green" transform="translate(1000 100) scale(0.1 -0.1)"><path d="M0.0 0.0V319.0H256.0V348.0H5.0L-96.0 390.0V-31.0H-81.0C-40.0 -31.0 0.0 -9.0 0.0 0.0ZM152.0 337.0H78.0V34.0L91.0 32.0L60.0 31.0V-235.0H80.0C137.0 -235.0 170.0 -211.0 171.0 -204.0V31.0L139.0 32.0L152.0 34.0ZM239.0 -17.0 187.0 -83.0H-87.0L-79.0 -112.0H309.0C323.0 -112.0 333.0 -106.0 336.0 -95.0C300.0 -64.0 239.0 -17.0 239.0 -17.0ZM258.0 44.0H-47.0V16.0H258.0ZM178.0 348.0H186.0V-19.0H203.0C236.0 -19.0 286.0 0.0 287.0 7.0V308.0C303.0 311.0 314.0 318.0 319.0 324.0L224.0 397.0ZM585.0 381.0 408.0 406.0C393.0 265.0 352.0 93.0 303.0 -13.0L315.0 -18.0C418.0 72.0 497.0 214.0 548.0 358.0C573.0 360.0 583.0 366.0 585.0 381.0ZM-94.0 -196.0 -47.0 -347.0C-34.0 -345.0 -22.0 -336.0 -15.0 -323.0C140.0 -265.0 244.0 -219.0 312.0 -186.0L311.0 -176.0C144.0 -186.0 -25.0 -195.0 -94.0 -196.0ZM29.0 267.0 12.0 263.0C26.0 219.0 41.0 148.0 39.0 95.0C76.0 52.0 125.0 145.0 29.0 267.0Z"/></g>
<g fill="green" transform="translate(1100 100) scale(0.1 -0.1)"><path d="M0.0 0.0V298.0H309.0V328.0H5.0L-43.0 353.0V-15.0H-35.0C-18.0 -15.0 0.0 -5.0 0.0 0.0ZM155.0 331.0H112.0V49.0L120.0 48.0L112.0 47.0V-223.0H118.0C140.0 -223.0 155.0 -211.0 155.0 -207.0V47.0L147.0 48.0L155.0 49.0ZM280.0 -29.0 245.0 -71.0H-63.0L-56.0 -100.0H318.0C332.0 -100.0 340.0 -95.0 343.0 -85.0C318.0 -59.0 280.0 -29.0 280.0 -29.0ZM312.0 59.0H-19.0V29.0H312.0ZM273.0 328.0H282.0V0.0H287.0C302.0 0.0 323.0 13.0 324.0 19.0V292.0C341.0 295.0 357.0 302.0 362.0 309.0L300.0 358.0ZM548.0 367.0 463.0 388.0C436.0 243.0 386.0 85.0 332.0 -18.0L349.0 -28.0C418.0 67.0 476.0 213.0 512.0 347.0C535.0 349.0 544.0 355.0 548.0 367.0ZM-93.0 -220.0 -63.0 -280.0C-55.0 -277.0 -46.0 -270.0 -42.0 -258.0C137.0 -229.0 270.0 -205.0 367.0 -185.0L366.0 -167.0C172.0 -191.0 -12.0 -214.0 -93.0 -220.0ZM25.0 264.0 11.0 260.0C27.0 220.0 48.0 157.0 48.0 110.0C81.0 76.0 119.0 156.0 25.0 264.0Z"/></g>
<g fill="green" transform="translate(1200 100) scale(0.1 -0.1)"><path d="M0.0 0.0V284.0H258.0V311.0H4.0L-108.0 356.0V-33.0H-92.0C-47.0 -33.0 0.0 -9.0 0.0 0.0ZM152.0 311.0H69.0V20.0L81.0 19.0L51.0 18.0V-238.0H73.0C135.0 -238.0 170.0 -213.0 172.0 -205.0V18.0L140.0 19.0L152.0 20.0ZM266.0 -24.0 214.0 -90.0H-126.0L-119.0 -117.0H338.0C352.0 -117.0 361.0 -112.0 364.0 -102.0C327.0 -70.0 266.0 -24.0 266.0 -24.0ZM273.0 30.0H-61.0V3.0H273.0ZM223.0 311.0H232.0V-22.0H250.0C286.0 -22.0 340.0 -2.0 341.0 5.0V269.0C358.0 272.0 370.0 280.0 375.0 286.0L273.0 364.0ZM599.0 344.0 405.0 385.0C391.0 230.0 354.0 54.0 311.0 -61.0L320.0 -67.0C426.0 24.0 506.0 161.0 561.0 322.0C584.0 322.0 595.0 331.0 599.0 344.0ZM-145.0 -200.0 -99.0 -342.0C-87.0 -340.0 -75.0 -333.0 -68.0 -320.0C143.0 -265.0 286.0 -223.0 382.0 -190.0L381.0 -177.0C162.0 -190.0 -56.0 -199.0 -145.0 -200.0ZM0.0 253.0 -14.0 249.0C1.0 207.0 14.0 145.0 13.0 94.0C65.0 38.0 139.0 149.0 0.0 253.0Z"/></g>
<g fill="red" transform="translate(100 200) scale(0.1 -0.1)"><path d="M0.0 0.0V311.0H295.0V341.0H5.0L-44.0 366.0V-15.0H-36.0C-18.0 -15.0 0.0 -4.0 0.0 0.0ZM155.0 341.0H111.0V55.0L119.0 54.0L111.0 53.0V-222.0H117.0C140.0 -222.0 155.0 -209.0 155.0 -205.0V53.0L147.0 54.0L155.0 55.0ZM281.0 -27.0 247.0 -68.0H-59.0L-51.0 -98.0H318.0C332.0 -98.0 341.0 -93.0 343.0 -82.0C319.0 -57.0 281.0 -27.0 281.0 -27.0ZM293.0 65.0H-20.0V35.0H293.0ZM258.0 341.0H267.0V1.0H273.0C288.0 1.0 310.0 13.0 311.0 19.0V305.0C328.0 308.0 344.0 315.0 350.0 322.0L286.0 372.0ZM272.0 246.0 204.0 267.0C199.0 227.0 185.0 149.0 173.0 99.0L187.0 94.0C210.0 139.0 230.0 194.0 241.0 227.0C262.0 227.0 271.0 238.0 272.0 246.0ZM-89.0 -223.0 -59.0 -283.0C-51.0 -281.0 -42.0 -274.0 -37.0 -262.0C138.0 -232.0 268.0 -206.0 364.0 -186.0L362.0 -168.0C172.0 -193.0 -9.0 -217.0 -89.0 -223.0ZM33.0 269.0 18.0 265.0C32.0 226.0 47.0 163.0 45.0 116.0C79.0 80.0 121.0 161.0 33.0 269.0Z"/></g>
<g fill="black" opacity=".8" transform="translate(100 200) scale(0.1 -0.1)"><path d="M0.0 0.0V310.0H296.0V340.0H5.0L-44.0 366.0V-14.0H-35.0C-18.0 -14.0 0.0 -4.0 0.0 0.0ZM157.0 340.0H113.0V54.0L121.0 53.0L113.0 52.0V-222.0H119.0C141.0 -222.0 157.0 -210.0 157.0 -206.0V52.0L148.0 53.0L157.0 54.0ZM281.0 -27.0 247.0 -68.0H-58.0L-50.0 -98.0H318.0C333.0 -98.0 341.0 -92.0 344.0 -82.0C320.0 -58.0 281.0 -27.0 281.0 -27.0ZM297.0 65.0H-20.0V34.0H297.0ZM261.0 340.0H270.0V1.0H276.0C290.0 1.0 312.0 13.0 313.0 19.0V304.0C330.0 307.0 347.0 314.0 352.0 321.0L288.0 370.0ZM272.0 245.0 205.0 267.0C200.0 228.0 186.0 151.0 172.0 101.0L188.0 96.0C209.0 140.0 230.0 194.0 241.0 227.0C262.0 228.0 271.0 237.0 272.0 245.0ZM-89.0 -222.0 -58.0 -283.0C-50.0 -280.0 -41.0 -273.0 -37.0 -261.0C135.0 -231.0 263.0 -207.0 356.0 -187.0L355.0 -169.0C168.0 -192.0 -10.0 -216.0 -89.0 -222.0ZM33.0 269.0 18.0 265.0C33.0 226.0 49.0 163.0 47.0 117.0C81.0 79.0 122.0 160.0 33.0 269.0Z"/></g>
<g fill="red" transform="translate(200 200) scale(0.1 -0.1)"><path d="M0.0 0.0V298.0H254.0V326.0H6.0L-98.0 368.0V-31.0H-83.0C-42.0 -31.0 0.0 -9.0 0.0 0.0ZM145.0 316.0H66.0V20.0L78.0 19.0L47.0 18.0V-242.0H68.0C128.0 -242.0 163.0 -218.0 163.0 -210.0V18.0L133.0 19.0L145.0 20.0ZM239.0 -25.0 186.0 -90.0H-106.0L-98.0 -118.0H309.0C323.0 -118.0 333.0 -113.0 336.0 -102.0C299.0 -70.0 239.0 -25.0 239.0 -25.0ZM267.0 38.0H-51.0V10.0H267.0ZM206.0 326.0H215.0V-19.0H232.0C265.0 -19.0 314.0 0.0 315.0 7.0V285.0C332.0 288.0 344.0 296.0 349.0 302.0L253.0 375.0ZM259.0 234.0 164.0 259.0C163.0 218.0 156.0 136.0 148.0 83.0L161.0 79.0C187.0 124.0 212.0 180.0 226.0 213.0C248.0 213.0 257.0 225.0 259.0 234.0ZM-127.0 -201.0 -81.0 -347.0C-68.0 -345.0 -56.0 -337.0 -49.0 -324.0C145.0 -268.0 276.0 -225.0 364.0 -191.0L363.0 -178.0C158.0 -191.0 -44.0 -200.0 -127.0 -201.0ZM4.0 263.0 -10.0 259.0C3.0 216.0 18.0 150.0 16.0 100.0C62.0 49.0 125.0 151.0 4.0 263.0Z"/></g>
<g fill="black" opacity=".8" transform="translate(200 200) scale(0.1 -0.1)"><path d="M0.0 0.0V297.0H257.0V325.0H4.0L-101.0 367.0V-31.0H-84.0C-43.0 -31.0 0.0 -9.0 0.0 0.0ZM147.0 316.0H68.0V21.0L80.0 20.0L49.0 18.0V-241.0H70.0C131.0 -241.0 166.0 -217.0 167.0 -209.0V18.0L135.0 20.0L147.0 21.0ZM245.0 -31.0 198.0 -90.0H-111.0L-103.0 -118.0H308.0C322.0 -118.0 331.0 -112.0 334.0 -102.0C300.0 -73.0 245.0 -31.0 245.0 -31.0ZM269.0 36.0H-53.0V10.0H269.0ZM207.0 325.0H215.0V-20.0H232.0C265.0 -20.0 316.0 -1.0 317.0 6.0V285.0C334.0 287.0 345.0 294.0 351.0 301.0L254.0 374.0ZM259.0 234.0 165.0 259.0C163.0 218.0 157.0 138.0 150.0 85.0L162.0 82.0C188.0 125.0 213.0 180.0 227.0 212.0C248.0 211.0 258.0 225.0 259.0 234.0ZM-130.0 -201.0 -84.0 -347.0C-71.0 -344.0 -59.0 -337.0 -51.0 -324.0C134.0 -268.0 259.0 -225.0 343.0 -193.0L342.0 -180.0C146.0 -192.0 -48.0 -200.0 -130.0 -201.0ZM3.0 260.0 -12.0 256.0C3.0 214.0 19.0 150.0 18.0 99.0C65.0 48.0 129.0 152.0 3.0 260.0Z"/></g>
<g fill="red" transform="translate(300 200) scale(0.1 -0.1)"><path d="M0.0 0.0V311.0H295.0V341.0H5.0L-44.0 366.0V-15.0H-36.0C-18.0 -15.0 0.0 -4.0 0.0 0.0ZM155.0 341.0H111.0V55.0L119.0 54.0L111.0 53.0V-222.0H117.0C140.0 -222.0 155.0 -209.0 155.0 -205.0V53.0L147.0 54.0L155.0 55.0ZM277.0 -27.0 243.0 -68.0H-58.0L-50.0 -98.0H314.0C328.0 -98.0 337.0 -93.0 340.0 -82.0C315.0 -57.0 277.0 -27.0 277.0 -27.0ZM298.0 65.0H-19.0V35.0H298.0ZM260.0 341.0H269.0V1.0H275.0C290.0 1.0 312.0 13.0 313.0 19.0V305.0C330.0 308.0 346.0 315.0 352.0 322.0L288.0 372.0ZM273.0 251.0 205.0 272.0C200.0 232.0 185.0 154.0 172.0 104.0L186.0 99.0C209.0 144.0 230.0 198.0 242.0 232.0C262.0 231.0 272.0 242.0 273.0 251.0ZM-88.0 -220.0 -58.0 -281.0C-50.0 -278.0 -41.0 -272.0 -37.0 -259.0C127.0 -232.0 250.0 -208.0 340.0 -189.0L338.0 -171.0C159.0 -193.0 -12.0 -215.0 -88.0 -220.0ZM33.0 271.0 18.0 267.0C32.0 227.0 48.0 164.0 46.0 116.0C79.0 79.0 122.0 161.0 33.0 271.0Z"/></g>
<g fill="black" opacity=".8" transform="translate(300 200) scale(0.1 -0.1)"><path d="M0.0 0.0V311.0H293.0V342.0H5.0L-44.0 368.0V-14.0H-36.0C-18.0 -14.0 0.0 -4.0 0.0 0.0ZM154.0 342.0H110.0V55.0L118.0 54.0H110.0V-222.0H116.0C138.0 -222.0 154.0 -210.0 154.0 -206.0V54.0H146.0L154.0 55.0ZM276.0 -27.0 242.0 -68.0H-60.0L-52.0 -97.0H312.0C327.0 -97.0 335.0 -92.0 338.0 -82.0C315.0 -57.0 276.0 -27.0 276.0 -27.0ZM292.0 66.0H-20.0V35.0H292.0ZM257.0 342.0H266.0V1.0H272.0C287.0 1.0 309.0 13.0 310.0 19.0V305.0C326.0 309.0 343.0 315.0 348.0 322.0L285.0 372.0ZM272.0 250.0 205.0 271.0C199.0 231.0 185.0 153.0 171.0 101.0L187.0 97.0C209.0 142.0 230.0 197.0 241.0 231.0C263.0 232.0 272.0 241.0 272.0 250.0ZM-91.0 -223.0 -59.0 -283.0C-51.0 -281.0 -42.0 -273.0 -38.0 -261.0C131.0 -232.0 257.0 -207.0 348.0 -187.0L347.0 -169.0C163.0 -193.0 -12.0 -217.0 -91.0 -223.0ZM32.0 271.0 17.0 267.0C31.0 227.0 46.0 164.0 43.0 118.0C78.0 80.0 120.0 161.0 32.0 271.0Z"/></g>
<g fill="red" transform="translate(400 200) scale(0.1 -0.1)"><path d="M0.0 0.0V297.0H259.0V325.0H5.0L-102.0 368.0V-32.0H-87.0C-44.0 -32.0 0.0 -9.0 0.0 0.0ZM146.0 320.0H66.0V24.0L78.0 23.0L46.0 22.0V-238.0H68.0C129.0 -238.0 165.0 -213.0 166.0 -206.0V22.0L134.0 23.0L146.0 24.0ZM246.0 -36.0 203.0 -89.0H-117.0L-109.0 -117.0H300.0C313.0 -117.0 322.0 -112.0 325.0 -101.0C295.0 -73.0 246.0 -36.0 246.0 -36.0ZM272.0 37.0H-55.0V9.0H272.0ZM201.0 325.0H210.0V-20.0H227.0C260.0 -20.0 310.0 -1.0 311.0 6.0V284.0C328.0 287.0 340.0 294.0 345.0 301.0L248.0 375.0ZM257.0 238.0 163.0 264.0C161.0 223.0 154.0 141.0 146.0 88.0L159.0 84.0C185.0 129.0 211.0 184.0 225.0 217.0C246.0 217.0 256.0 229.0 257.0 238.0ZM-132.0 -200.0 -86.0 -346.0C-73.0 -344.0 -61.0 -336.0 -55.0 -323.0C115.0 -267.0 231.0 -224.0 308.0 -192.0L307.0 -179.0C124.0 -191.0 -57.0 -199.0 -132.0 -200.0ZM-2.0 260.0 -16.0 256.0C0.0 214.0 17.0 149.0 17.0 99.0C65.0 49.0 127.0 153.0 -2.0 260.0Z"/></g>
<g fill="black" opacity=".8" transform="translate(400 200) scale(0.1 -0.1)"><path d="M0.0 0.0V299.0H256.0V327.0H4.0L-100.0 369.0V-31.0H-83.0C-42.0 -31.0 0.0 -9.0 0.0 0.0ZM142.0 320.0H64.0V24.0L76.0 22.0L45.0 21.0V-240.0H66.0C126.0 -240.0 161.0 -215.0 162.0 -207.0V21.0L130.0 22.0L142.0 24.0ZM238.0 -28.0 190.0 -88.0H-112.0L-105.0 -116.0H301.0C315.0 -116.0 325.0 -111.0 327.0 -100.0C294.0 -71.0 238.0 -28.0 238.0 -28.0ZM267.0 38.0H-52.0V11.0H267.0ZM200.0 327.0H208.0V-19.0H225.0C258.0 -19.0 308.0 -1.0 309.0 6.0V286.0C326.0 289.0 338.0 296.0 343.0 302.0L247.0 375.0ZM256.0 240.0 163.0 265.0C160.0 221.0 154.0 139.0 146.0 85.0L158.0 81.0C185.0 127.0 210.0 184.0 224.0 218.0C245.0 218.0 255.0 231.0 256.0 240.0ZM-130.0 -199.0 -84.0 -346.0C-71.0 -343.0 -59.0 -336.0 -51.0 -323.0C129.0 -267.0 250.0 -223.0 331.0 -191.0L330.0 -178.0C139.0 -190.0 -51.0 -198.0 -130.0 -199.0ZM1.0 263.0 -15.0 258.0C1.0 217.0 16.0 151.0 15.0 100.0C62.0 50.0 123.0 153.0 1.0 263.0Z"/></g>
<g fill="red" transform="translate(500 200) scale(0.1 -0.1)"><path d="M0.0 0.0V315.0H276.0V345.0H5.0L-43.0 370.0V-15.0H-36.0C-17.0 -15.0 0.0 -4.0 0.0 0.0ZM143.0 339.0H99.0V53.0L107.0 52.0L99.0 51.0V-224.0H105.0C128.0 -224.0 143.0 -211.0 143.0 -207.0V51.0L135.0 52.0L143.0 53.0ZM231.0 -26.0 197.0 -67.0H-58.0L-50.0 -97.0H269.0C282.0 -97.0 291.0 -92.0 294.0 -81.0C269.0 -56.0 231.0 -26.0 231.0 -26.0ZM276.0 69.0H-19.0V39.0H276.0ZM238.0 345.0H247.0V1.0H253.0C268.0 1.0 289.0 13.0 290.0 19.0V309.0C308.0 312.0 324.0 319.0 330.0 326.0L266.0 376.0ZM527.0 387.0 439.0 405.0C417.0 297.0 368.0 160.0 310.0 81.0L326.0 72.0C399.0 147.0 460.0 272.0 491.0 372.0C516.0 372.0 523.0 376.0 527.0 387.0ZM-83.0 -224.0 -52.0 -283.0C-44.0 -281.0 -36.0 -274.0 -31.0 -262.0C124.0 -231.0 240.0 -204.0 326.0 -184.0L323.0 -166.0C152.0 -192.0 -11.0 -217.0 -83.0 -224.0ZM29.0 267.0 14.0 263.0C28.0 223.0 44.0 160.0 43.0 112.0C76.0 77.0 117.0 157.0 29.0 267.0Z"/></g>
<g fill="black" opacity=".8" transform="translate(500 200) scale(0.1 -0.1)"><path d="M0.0 0.0V314.0H275.0V345.0H5.0L-43.0 370.0V-14.0H-36.0C-17.0 -14.0 0.0 -4.0 0.0 0.0ZM143.0 339.0H100.0V53.0L108.0 52.0L100.0 51.0V-224.0H106.0C128.0 -224.0 143.0 -212.0 143.0 -208.0V51.0L135.0 52.0L143.0 53.0ZM231.0 -26.0 197.0 -67.0H-58.0L-50.0 -96.0H269.0C282.0 -96.0 290.0 -91.0 293.0 -81.0C270.0 -56.0 231.0 -26.0 231.0 -26.0ZM276.0 70.0H-19.0V39.0H276.0ZM239.0 345.0H248.0V1.0H253.0C268.0 1.0 289.0 13.0 290.0 19.0V308.0C307.0 311.0 324.0 318.0 329.0 325.0L266.0 375.0ZM527.0 386.0 439.0 404.0C417.0 297.0 368.0 161.0 310.0 81.0L327.0 72.0C399.0 147.0 460.0 272.0 491.0 371.0C517.0 373.0 523.0 376.0 527.0 386.0ZM-84.0 -224.0 -52.0 -283.0C-44.0 -281.0 -36.0 -274.0 -31.0 -263.0C125.0 -230.0 240.0 -204.0 325.0 -183.0L323.0 -165.0C151.0 -191.0 -11.0 -217.0 -84.0 -224.0ZM29.0 267.0 14.0 263.0C27.0 223.0 45.0 160.0 43.0 113.0C76.0 77.0 117.0 157.0 29.0 267.0Z"/></g>
<g fill="red" transform="translate(600 200) scale(0.1 -0.1)"><path d="M0.0 0.0V302.0H242.0V330.0H5.0L-98.0 372.0V-31.0H-83.0C-42.0 -31.0 0.0 -9.0 0.0 0.0ZM139.0 330.0H63.0V34.0L76.0 33.0L46.0 32.0V-228.0H66.0C122.0 -228.0 155.0 -205.0 156.0 -198.0V32.0L126.0 33.0L139.0 34.0ZM223.0 -16.0 172.0 -79.0H-111.0L-103.0 -107.0H289.0C303.0 -107.0 313.0 -102.0 316.0 -91.0C280.0 -60.0 223.0 -16.0 223.0 -16.0ZM245.0 42.0H-49.0V14.0H245.0ZM195.0 330.0H204.0V-19.0H221.0C254.0 -19.0 304.0 0.0 305.0 7.0V290.0C321.0 293.0 332.0 300.0 337.0 306.0L242.0 379.0ZM573.0 366.0 392.0 392.0C377.0 274.0 336.0 122.0 285.0 35.0L294.0 29.0C401.0 105.0 485.0 231.0 537.0 348.0C563.0 349.0 571.0 354.0 573.0 366.0ZM-122.0 -189.0 -76.0 -336.0C-63.0 -335.0 -51.0 -326.0 -45.0 -313.0C127.0 -257.0 244.0 -212.0 321.0 -179.0L320.0 -167.0C136.0 -179.0 -47.0 -188.0 -122.0 -189.0ZM7.0 267.0 -8.0 263.0C6.0 219.0 21.0 151.0 19.0 100.0C59.0 55.0 112.0 150.0 7.0 267.0Z"/></g>
<g fill="black" opacity=".8" transform="translate(600 200) scale(0.1 -0.1)"><path d="M0.0 0.0V302.0H242.0V330.0H4.0L-98.0 372.0V-31.0H-82.0C-42.0 -31.0 0.0 -9.0 0.0 0.0ZM138.0 330.0H63.0V34.0L76.0 32.0L47.0 31.0V-229.0H66.0C123.0 -229.0 154.0 -205.0 156.0 -198.0V31.0L125.0 32.0L138.0 34.0ZM223.0 -16.0 173.0 -79.0H-111.0L-104.0 -107.0H289.0C303.0 -107.0 312.0 -101.0 315.0 -91.0C280.0 -61.0 223.0 -16.0 223.0 -16.0ZM245.0 42.0H-49.0V15.0H245.0ZM195.0 330.0H204.0V-19.0H220.0C254.0 -19.0 304.0 -1.0 305.0 6.0V291.0C321.0 293.0 332.0 301.0 337.0 306.0L242.0 379.0ZM573.0 367.0 392.0 392.0C376.0 274.0 336.0 122.0 286.0 35.0L294.0 29.0C401.0 105.0 485.0 231.0 537.0 348.0C563.0 349.0 571.0 354.0 573.0 367.0ZM-122.0 -189.0 -76.0 -336.0C-63.0 -334.0 -51.0 -326.0 -44.0 -313.0C128.0 -257.0 244.0 -212.0 320.0 -179.0L319.0 -168.0C137.0 -179.0 -47.0 -188.0 -122.0 -189.0ZM8.0 267.0 -8.0 263.0C6.0 220.0 21.0 151.0 19.0 99.0C59.0 55.0 113.0 150.0 8.0 267.0Z"/></g>
<g fill="red" transform="translate(700 200) scale(0.1 -0.1)"><path d="M0.0 0.0V306.0H307.0V336.0H5.0L-44.0 361.0V-16.0H-36.0C-18.0 -16.0 0.0 -5.0 0.0 0.0ZM160.0 336.0H116.0V50.0L124.0 49.0L116.0 48.0V-227.0H122.0C145.0 -227.0 160.0 -214.0 160.0 -210.0V48.0L152.0 49.0L160.0 50.0ZM285.0 -32.0 252.0 -73.0H-59.0L-51.0 -103.0H323.0C336.0 -103.0 345.0 -98.0 348.0 -87.0C323.0 -62.0 285.0 -32.0 285.0 -32.0ZM307.0 60.0H-20.0V30.0H307.0ZM271.0 336.0H280.0V0.0H286.0C301.0 0.0 323.0 13.0 324.0 19.0V300.0C341.0 303.0 357.0 310.0 363.0 317.0L299.0 367.0ZM552.0 369.0 466.0 390.0C439.0 233.0 390.0 67.0 339.0 -44.0L356.0 -53.0C423.0 49.0 479.0 202.0 515.0 347.0C537.0 348.0 548.0 357.0 552.0 369.0ZM-89.0 -225.0 -59.0 -286.0C-51.0 -283.0 -42.0 -276.0 -38.0 -264.0C136.0 -235.0 266.0 -209.0 361.0 -190.0L359.0 -172.0C171.0 -196.0 -10.0 -219.0 -89.0 -225.0ZM32.0 267.0 17.0 263.0C32.0 223.0 50.0 160.0 49.0 112.0C82.0 77.0 123.0 158.0 32.0 267.0Z"/></g>
<g fill="black" opacity=".8" transform="translate(700 200) scale(0.1 -0.1)"><path d="M0.0 0.0V306.0H307.0V336.0H5.0L-44.0 361.0V-16.0H-36.0C-18.0 -16.0 0.0 -5.0 0.0 0.0ZM160.0 336.0H116.0V50.0L124.0 49.0L116.0 48.0V-227.0H122.0C145.0 -227.0 160.0 -215.0 160.0 -211.0V48.0L152.0 49.0L160.0 50.0ZM285.0 -32.0 252.0 -73.0H-59.0L-51.0 -103.0H323.0C336.0 -103.0 345.0 -98.0 348.0 -87.0C323.0 -62.0 285.0 -32.0 285.0 -32.0ZM307.0 60.0H-20.0V30.0H307.0ZM271.0 336.0H280.0V0.0H286.0C301.0 0.0 323.0 13.0 324.0 19.0V300.0C341.0 303.0 357.0 310.0 362.0 317.0L299.0 367.0ZM552.0 368.0 466.0 389.0C439.0 233.0 390.0 67.0 339.0 -44.0L356.0 -53.0C423.0 49.0 479.0 202.0 515.0 347.0C538.0 348.0 548.0 356.0 552.0 368.0ZM-89.0 -225.0 -59.0 -286.0C-51.0 -283.0 -42.0 -276.0 -38.0 -264.0C136.0 -235.0 266.0 -209.0 361.0 -190.0L359.0 -172.0C171.0 -196.0 -10.0 -219.0 -89.0 -225.0ZM32.0 267.0 17.0 263.0C32.0 223.0 50.0 160.0 49.0 113.0C82.0 77.0 123.0 158.0 32.0 267.0Z"/></g>
<g fill="red" transform="translate(800 200) scale(0.1 -0.1)"><path d="M0.0 0.0V292.0H263.0V320.0H5.0L-106.0 365.0V-33.0H-91.0C-46.0 -33.0 0.0 -9.0 0.0 0.0ZM149.0 320.0H67.0V24.0L79.0 23.0L47.0 22.0V-238.0H69.0C131.0 -238.0 168.0 -213.0 169.0 -205.0V22.0L137.0 23.0L149.0 24.0ZM263.0 -21.0 209.0 -89.0H-121.0L-113.0 -117.0H337.0C351.0 -117.0 361.0 -112.0 364.0 -101.0C326.0 -68.0 263.0 -21.0 263.0 -21.0ZM278.0 32.0H-59.0V4.0H278.0ZM205.0 320.0H214.0V-21.0H232.0C267.0 -21.0 321.0 -1.0 322.0 6.0V277.0C339.0 281.0 351.0 288.0 356.0 295.0L254.0 373.0ZM584.0 354.0 396.0 395.0C383.0 227.0 346.0 38.0 305.0 -88.0L317.0 -94.0C418.0 7.0 493.0 153.0 545.0 330.0C568.0 331.0 580.0 340.0 584.0 354.0ZM-137.0 -201.0 -90.0 -346.0C-78.0 -344.0 -66.0 -336.0 -59.0 -323.0C138.0 -267.0 272.0 -224.0 362.0 -191.0L361.0 -178.0C153.0 -191.0 -53.0 -200.0 -137.0 -201.0ZM2.0 257.0 -12.0 253.0C2.0 210.0 16.0 146.0 14.0 95.0C64.0 40.0 134.0 149.0 2.0 257.0Z"/></g>
<g fill="black" opacity=".8" transform="translate(800 200) scale(0.1 -0.1)"><path d="M0.0 0.0V292.0H263.0V320.0H5.0L-106.0 365.0V-33.0H-91.0C-46.0 -33.0 0.0 -9.0 0.0 0.0ZM149.0 320.0H67.0V24.0L79.0 23.0L48.0 22.0V-238.0H70.0C132.0 -238.0 168.0 -213.0 169.0 -205.0V22.0L137.0 23.0L149.0 24.0ZM263.0 -21.0 209.0 -89.0H-121.0L-113.0 -117.0H337.0C351.0 -117.0 361.0 -112.0 364.0 -101.0C326.0 -68.0 263.0 -21.0 263.0 -21.0ZM278.0 32.0H-59.0V4.0H278.0ZM205.0 320.0H214.0V-21.0H232.0C267.0 -21.0 321.0 -1.0 322.0 6.0V277.0C339.0 281.0 351.0 288.0 356.0 295.0L254.0 373.0ZM584.0 355.0 396.0 395.0C383.0 227.0 346.0 38.0 306.0 -88.0L317.0 -94.0C418.0 7.0 493.0 153.0 546.0 330.0C568.0 331.0 580.0 340.0 584.0 355.0ZM-137.0 -201.0 -90.0 -346.0C-78.0 -344.0 -66.0 -336.0 -59.0 -323.0C138.0 -267.0 272.0 -224.0 361.0 -191.0L360.0 -179.0C153.0 -191.0 -53.0 -200.0 -137.0 -201.0ZM2.0 257.0 -12.0 253.0C2.0 210.0 16.0 146.0 14.0 95.0C64.0 40.0 134.0 149.0 2.0 257.0Z"/></g>
<g fill="red" transform="translate(900 200) scale(0.1 -0.1)"><path d="M0.0 0.0V176.0H144.0V206.0H5.0L-44.0 230.0V-15.0H-37.0C-19.0 -15.0 0.0 -4.0 0.0 0.0ZM-228.0 449.0H-272.0V163.0L-264.0 162.0L-272.0 161.0V-114.0H-266.0C-243.0 -114.0 -228.0 -101.0 -228.0 -97.0V161.0L-236.0 162.0L-228.0 163.0ZM-133.0 81.0 -167.0 40.0H-418.0L-410.0 10.0H-96.0C-83.0 10.0 -74.0 15.0 -71.0 26.0C-95.0 51.0 -133.0 81.0 -133.0 81.0ZM145.0 54.0H-22.0V24.0H145.0ZM114.0 206.0H122.0V-2.0H128.0C144.0 -2.0 164.0 12.0 165.0 19.0V173.0C179.0 176.0 193.0 182.0 197.0 188.0L141.0 233.0ZM-118.0 358.0 -186.0 377.0C-189.0 339.0 -200.0 262.0 -211.0 212.0L-196.0 209.0C-176.0 253.0 -158.0 306.0 -148.0 339.0C-128.0 339.0 -119.0 350.0 -118.0 358.0ZM-447.0 -118.0 -416.0 -177.0C-408.0 -175.0 -400.0 -168.0 -395.0 -156.0C-252.0 -127.0 -144.0 -100.0 -66.0 -82.0L-69.0 -64.0C-226.0 -88.0 -379.0 -112.0 -447.0 -118.0ZM-335.0 374.0 -351.0 370.0C-340.0 332.0 -331.0 271.0 -335.0 225.0C-302.0 187.0 -256.0 266.0 -335.0 374.0Z"/></g>
<g fill="black" opacity=".8" transform="translate(900 200) scale(0.1 -0.1)"><path d="M0.0 0.0V175.0H143.0V206.0H5.0L-43.0 230.0V-14.0H-37.0C-18.0 -14.0 0.0 -5.0 0.0 0.0ZM-228.0 449.0H-271.0V162.0H-264.0L-271.0 161.0V-115.0H-265.0C-243.0 -115.0 -228.0 -102.0 -228.0 -98.0V161.0L-236.0 162.0H-228.0ZM-133.0 81.0 -166.0 40.0H-419.0L-410.0 11.0H-96.0C-83.0 11.0 -74.0 15.0 -71.0 26.0C-94.0 51.0 -133.0 81.0 -133.0 81.0ZM144.0 54.0H-22.0V23.0H144.0ZM115.0 206.0H122.0V-1.0H128.0C143.0 -1.0 164.0 11.0 165.0 19.0V173.0C179.0 176.0 193.0 181.0 196.0 187.0L140.0 233.0ZM-118.0 357.0 -186.0 377.0C-189.0 340.0 -200.0 262.0 -211.0 211.0L-195.0 209.0C-176.0 253.0 -158.0 306.0 -148.0 338.0C-127.0 340.0 -119.0 349.0 -118.0 357.0ZM-447.0 -118.0 -416.0 -178.0C-408.0 -175.0 -400.0 -168.0 -395.0 -156.0C-252.0 -126.0 -144.0 -99.0 -66.0 -82.0L-69.0 -63.0C-227.0 -87.0 -379.0 -113.0 -447.0 -118.0ZM-336.0 374.0 -351.0 371.0C-340.0 331.0 -331.0 271.0 -335.0 226.0C-301.0 186.0 -257.0 266.0 -336.0 374.0Z"/></g>
<g fill="red" transform="translate(1000 200) scale(0.1 -0.1)"><path d="M0.0 0.0V171.0H108.0V199.0H3.0L-94.0 238.0V-29.0H-81.0C-42.0 -29.0 0.0 -8.0 0.0 0.0ZM-267.0 447.0H-336.0V151.0L-325.0 150.0L-356.0 149.0V-111.0H-337.0C-281.0 -111.0 -247.0 -88.0 -246.0 -81.0V149.0L-278.0 150.0L-267.0 151.0ZM-207.0 101.0 -258.0 38.0H-503.0L-495.0 10.0H-140.0C-126.0 10.0 -116.0 15.0 -114.0 26.0C-149.0 57.0 -207.0 101.0 -207.0 101.0ZM122.0 46.0H-38.0V18.0H122.0ZM27.0 199.0H36.0V-12.0H52.0C82.0 -12.0 130.0 6.0 131.0 12.0V159.0C147.0 162.0 159.0 170.0 164.0 176.0L71.0 245.0ZM-164.0 369.0 -251.0 389.0C-252.0 346.0 -259.0 260.0 -267.0 204.0L-253.0 201.0C-230.0 250.0 -208.0 311.0 -195.0 346.0C-174.0 347.0 -165.0 360.0 -164.0 369.0ZM-514.0 -72.0 -468.0 -220.0C-455.0 -218.0 -443.0 -209.0 -437.0 -196.0C-283.0 -140.0 -179.0 -96.0 -110.0 -63.0L-111.0 -52.0C-278.0 -63.0 -446.0 -71.0 -514.0 -72.0ZM-398.0 384.0 -413.0 380.0C-399.0 336.0 -384.0 268.0 -386.0 217.0C-345.0 171.0 -290.0 267.0 -398.0 384.0Z"/></g>
<g fill="black" opacity=".8" transform="translate(1000 200) scale(0.1 -0.1)"><path d="M0.0 0.0V171.0H108.0V199.0H2.0L-95.0 238.0V-29.0H-80.0C-41.0 -29.0 0.0 -7.0 0.0 0.0ZM-268.0 447.0H-336.0V151.0L-325.0 150.0L-355.0 148.0V-111.0H-336.0C-281.0 -111.0 -248.0 -88.0 -245.0 -81.0V148.0L-278.0 150.0L-268.0 151.0ZM-208.0 101.0 -258.0 38.0H-503.0L-495.0 10.0H-139.0C-126.0 10.0 -116.0 16.0 -114.0 26.0C-149.0 56.0 -208.0 101.0 -208.0 101.0ZM121.0 46.0H-38.0V19.0H121.0ZM27.0 199.0H35.0V-12.0H51.0C82.0 -12.0 131.0 6.0 132.0 11.0V159.0C147.0 162.0 159.0 171.0 164.0 176.0L71.0 245.0ZM-164.0 370.0 -251.0 389.0C-253.0 345.0 -259.0 260.0 -267.0 204.0L-253.0 201.0C-229.0 250.0 -208.0 310.0 -195.0 345.0C-174.0 347.0 -164.0 361.0 -164.0 370.0ZM-514.0 -72.0 -469.0 -220.0C-456.0 -217.0 -443.0 -209.0 -437.0 -196.0C-282.0 -139.0 -180.0 -96.0 -112.0 -62.0V-53.0C-277.0 -63.0 -445.0 -71.0 -514.0 -72.0ZM-398.0 384.0 -414.0 379.0C-399.0 337.0 -383.0 269.0 -386.0 216.0C-345.0 172.0 -290.0 267.0 -398.0 384.0Z"/></g>
<g fill="red" transform="translate(1100 200) scale(0.1 -0.1)"><path d="M0.0 0.0V315.0H264.0V345.0H5.0L-44.0 370.0V-15.0H-36.0C-17.0 -15.0 0.0 -4.0 0.0 0.0ZM141.0 345.0H97.0V59.0L105.0 58.0L97.0 57.0V-218.0H103.0C126.0 -218.0 141.0 -205.0 141.0 -201.0V57.0L133.0 58.0L141.0 59.0ZM245.0 -26.0 215.0 -64.0H-59.0L-51.0 -94.0H280.0C293.0 -94.0 302.0 -89.0 305.0 -78.0C282.0 -55.0 245.0 -26.0 245.0 -26.0ZM260.0 69.0H-20.0V39.0H260.0ZM230.0 345.0H239.0V1.0H245.0C260.0 1.0 282.0 13.0 283.0 19.0V309.0C300.0 312.0 316.0 319.0 322.0 326.0L258.0 376.0ZM249.0 254.0 181.0 273.0C178.0 235.0 167.0 158.0 156.0 108.0L171.0 105.0C191.0 149.0 209.0 202.0 219.0 235.0C239.0 235.0 248.0 246.0 249.0 254.0ZM-88.0 -222.0 -57.0 -281.0C-49.0 -279.0 -41.0 -272.0 -36.0 -260.0C112.0 -230.0 223.0 -203.0 305.0 -184.0L302.0 -167.0C140.0 -191.0 -18.0 -215.0 -88.0 -222.0ZM32.0 270.0 16.0 266.0C27.0 228.0 36.0 167.0 32.0 121.0C65.0 83.0 111.0 162.0 32.0 270.0Z"/></g>
<g fill="black" opacity=".8" transform="translate(1100 200) scale(0.1 -0.1)"><path d="M0.0 0.0V314.0H264.0V345.0H4.0L-44.0 370.0V-14.0H-36.0C-17.0 -14.0 0.0 -4.0 0.0 0.0ZM141.0 345.0H98.0V59.0L105.0 58.0L98.0 57.0V-218.0H104.0C126.0 -218.0 141.0 -206.0 141.0 -202.0V57.0L133.0 58.0L141.0 59.0ZM245.0 -26.0 215.0 -64.0H-60.0L-51.0 -94.0H280.0C293.0 -94.0 302.0 -88.0 305.0 -78.0C283.0 -55.0 245.0 -26.0 245.0 -26.0ZM260.0 69.0H-20.0V38.0H260.0ZM231.0 345.0H240.0V1.0H246.0C260.0 1.0 283.0 12.0 283.0 19.0V308.0C300.0 312.0 316.0 318.0 322.0 325.0L258.0 375.0ZM249.0 253.0 182.0 273.0C178.0 235.0 167.0 159.0 156.0 108.0L172.0 105.0C191.0 149.0 209.0 202.0 218.0 234.0C239.0 235.0 248.0 246.0 249.0 253.0ZM-89.0 -222.0 -57.0 -281.0C-49.0 -279.0 -41.0 -272.0 -36.0 -260.0C112.0 -230.0 223.0 -203.0 303.0 -185.0L301.0 -167.0C139.0 -190.0 -19.0 -215.0 -89.0 -222.0ZM32.0 270.0 16.0 266.0C27.0 228.0 37.0 166.0 32.0 122.0C65.0 82.0 111.0 162.0 32.0 270.0Z"/></g>
<g fill="red" transform="translate(1200 200) scale(0.1 -0.1)"><path d="M0.0 0.0V304.0H244.0V332.0H6.0L-90.0 372.0V-29.0H-76.0C-38.0 -29.0 0.0 -9.0 0.0 0.0ZM118.0 332.0H47.0V36.0L59.0 35.0L27.0 34.0V-226.0H47.0C103.0 -226.0 137.0 -203.0 137.0 -196.0V34.0L106.0 35.0L118.0 36.0ZM198.0 -17.0 150.0 -77.0H-105.0L-97.0 -105.0H262.0C275.0 -105.0 285.0 -100.0 288.0 -89.0C254.0 -59.0 198.0 -17.0 198.0 -17.0ZM251.0 44.0H-43.0V16.0H251.0ZM156.0 332.0H164.0V-17.0H180.0C210.0 -17.0 256.0 1.0 257.0 8.0V293.0C273.0 296.0 285.0 303.0 290.0 309.0L199.0 378.0ZM207.0 257.0 129.0 274.0C128.0 231.0 121.0 145.0 113.0 89.0L128.0 86.0C147.0 136.0 166.0 198.0 176.0 234.0C197.0 235.0 206.0 247.0 207.0 257.0ZM-116.0 -187.0 -70.0 -335.0C-57.0 -333.0 -45.0 -324.0 -39.0 -311.0C104.0 -255.0 201.0 -211.0 264.0 -179.0L263.0 -168.0C106.0 -178.0 -51.0 -186.0 -116.0 -187.0ZM-4.0 269.0 -19.0 265.0C-6.0 222.0 10.0 153.0 8.0 103.0C45.0 61.0 92.0 151.0 -4.0 269.0Z"/></g>
<g fill="black" opacity=".8" transform="translate(1200 200) scale(0.1 -0.1)"><path d="M0.0 0.0V304.0H245.0V332.0H5.0L-91.0 372.0V-29.0H-76.0C-37.0 -29.0 0.0 -9.0 0.0 0.0ZM118.0 332.0H47.0V36.0L59.0 35.0L27.0 33.0V-226.0H47.0C104.0 -226.0 137.0 -203.0 137.0 -196.0V33.0L106.0 35.0L118.0 36.0ZM199.0 -17.0 152.0 -77.0H-107.0L-98.0 -105.0H262.0C275.0 -105.0 285.0 -99.0 287.0 -89.0C255.0 -60.0 199.0 -17.0 199.0 -17.0ZM251.0 44.0H-43.0V17.0H251.0ZM157.0 332.0H164.0V-17.0H180.0C210.0 -17.0 257.0 1.0 258.0 8.0V293.0C274.0 296.0 285.0 303.0 290.0 309.0L199.0 378.0ZM207.0 257.0 130.0 274.0C128.0 230.0 121.0 145.0 114.0 89.0L129.0 87.0C147.0 136.0 166.0 198.0 176.0 234.0C197.0 235.0 207.0 247.0 207.0 257.0ZM-117.0 -187.0 -71.0 -335.0C-58.0 -332.0 -46.0 -324.0 -39.0 -311.0C103.0 -255.0 197.0 -210.0 260.0 -179.0L259.0 -168.0C104.0 -178.0 -52.0 -186.0 -117.0 -187.0ZM-3.0 269.0 -20.0 264.0C-6.0 222.0 10.0 154.0 8.0 103.0C46.0 61.0 93.0 151.0 -3.0 269.0Z"/></g>
</svg>
