<?xml version="1.0" encoding="UTF-8"?>
<svg width="1700" height="300" xmlns="http://www.w3.org/2000/svg">
<rect width="100%" height="100%" fill="white"/>
<g fill="green" transform="translate(100 100) scale(0.1 -0.1)"><path d="M0.0 0.0V-358.0H44.0V-27.0H56.0ZM513.0 -27.0H522.0V-362.0H566.0V-63.0C584.0 -60.0 599.0 -53.0 605.0 -46.0L543.0 4.0ZM646.0 121.0 605.0 71.0H-158.0L-149.0 41.0H695.0C709.0 41.0 719.0 46.0 722.0 57.0C692.0 85.0 646.0 121.0 646.0 121.0ZM553.0 -238.0H24.0V-268.0H553.0ZM553.0 -134.0H24.0V-164.0H553.0ZM553.0 -27.0H24.0V-57.0H553.0ZM672.0 -347.0H-83.0V-377.0H672.0ZM305.0 71.0H246.0C244.0 42.0 238.0 -11.0 232.0 -44.0H259.0C276.0 -14.0 295.0 38.0 305.0 71.0ZM622.0 -347.0H633.0C625.0 -375.0 605.0 -437.0 596.0 -464.0L611.0 -471.0C631.0 -449.0 666.0 -408.0 683.0 -384.0C702.0 -383.0 714.0 -381.0 721.0 -375.0L657.0 -312.0ZM-64.0 -312.0H-83.0C-83.0 -368.0 -119.0 -417.0 -157.0 -434.0C-172.0 -444.0 -181.0 -460.0 -174.0 -473.0C-164.0 -488.0 -136.0 -482.0 -116.0 -470.0C-85.0 -449.0 -48.0 -398.0 -64.0 -312.0Z"/></g>
<g fill="green" transform="translate(200 100) scale(0.1 -0.1)"><path d="M0.0 0.0V-383.0H140.0V-56.0H154.0ZM459.0 -56.0H469.0V-387.0H611.0V-101.0C630.0 -97.0 641.0 -90.0 647.0 -83.0L524.0 10.0ZM620.0 123.0 550.0 40.0H-158.0L-150.0 12.0H719.0C733.0 12.0 745.0 17.0 747.0 28.0C699.0 68.0 620.0 123.0 620.0 123.0ZM535.0 -261.0H93.0V-289.0H535.0ZM535.0 -160.0H93.0V-188.0H535.0ZM535.0 -56.0H93.0V-84.0H535.0ZM659.0 -370.0H-69.0V-398.0H659.0ZM385.0 40.0H212.0C213.0 14.0 213.0 -33.0 210.0 -64.0H271.0C308.0 -38.0 355.0 8.0 385.0 40.0ZM600.0 -370.0H611.0C609.0 -404.0 603.0 -464.0 598.0 -500.0L605.0 -506.0C650.0 -487.0 710.0 -452.0 746.0 -426.0C767.0 -424.0 777.0 -422.0 785.0 -413.0L668.0 -302.0ZM-40.0 -318.0H-53.0C-54.0 -353.0 -95.0 -378.0 -130.0 -386.0C-166.0 -398.0 -195.0 -424.0 -188.0 -466.0C-180.0 -509.0 -135.0 -527.0 -96.0 -516.0C-38.0 -500.0 3.0 -425.0 -40.0 -318.0Z"/></g>
<g fill="green" transform="translate(300 100) scale(0.1 -0.1)"><path d="M0.0 0.0V-358.0H44.0V-27.0H56.0ZM513.0 -27.0H522.0V-362.0H566.0V-63.0C584.0 -60.0 599.0 -53.0 605.0 -46.0L543.0 4.0ZM646.0 121.0 605.0 71.0H-158.0L-149.0 41.0H695.0C709.0 41.0 719.0 46.0 722.0 57.0C692.0 85.0 646.0 121.0 646.0 121.0ZM553.0 -238.0H24.0V-268.0H553.0ZM553.0 -134.0H24.0V-164.0H553.0ZM553.0 -27.0H24.0V-57.0H553.0ZM672.0 -347.0H-83.0V-377.0H672.0ZM305.0 71.0H246.0C244.0 42.0 238.0 -11.0 232.0 -44.0H259.0C276.0 -14.0 295.0 38.0 305.0 71.0ZM622.0 -347.0H633.0C625.0 -375.0 605.0 -437.0 596.0 -464.0L611.0 -471.0C631.0 -449.0 666.0 -408.0 683.0 -384.0C702.0 -383.0 714.0 -381.0 721.0 -375.0L657.0 -312.0ZM-64.0 -312.0H-83.0C-83.0 -368.0 -119.0 -417.0 -157.0 -434.0C-172.0 -444.0 -181.0 -460.0 -174.0 -473.0C-164.0 -488.0 -136.0 -482.0 -116.0 -470.0C-85.0 -449.0 -48.0 -398.0 -64.0 -312.0Z"/></g>
<g fill="green" transform="translate(400 100) scale(0.1 -0.1)"><path d="M0.0 0.0V-383.0H140.0V-56.0H154.0ZM459.0 -56.0H469.0V-387.0H611.0V-101.0C630.0 -97.0 641.0 -90.0 647.0 -83.0L524.0 10.0ZM620.0 123.0 550.0 40.0H-158.0L-150.0 12.0H719.0C733.0 12.0 745.0 17.0 747.0 28.0C699.0 68.0 620.0 123.0 620.0 123.0ZM535.0 -261.0H93.0V-289.0H535.0ZM535.0 -160.0H93.0V-188.0H535.0ZM535.0 -56.0H93.0V-84.0H535.0ZM659.0 -370.0H-69.0V-398.0H659.0ZM385.0 40.0H212.0C213.0 14.0 213.0 -33.0 210.0 -64.0H271.0C308.0 -38.0 355.0 8.0 385.0 40.0ZM600.0 -370.0H611.0C609.0 -404.0 603.0 -464.0 598.0 -500.0L605.0 -506.0C650.0 -487.0 710.0 -452.0 746.0 -426.0C767.0 -424.0 777.0 -422.0 785.0 -413.0L668.0 -302.0ZM-40.0 -318.0H-53.0C-54.0 -353.0 -95.0 -378.0 -130.0 -386.0C-166.0 -398.0 -195.0 -424.0 -188.0 -466.0C-180.0 -509.0 -135.0 -527.0 -96.0 -516.0C-38.0 -500.0 3.0 -425.0 -40.0 -318.0Z"/></g>
<g fill="red" transform="translate(100 200) scale(0.1 -0.1)"><path d="M0.0 0.0V-358.0H44.0V-27.0H56.0ZM513.0 -27.0H522.0V-362.0H566.0V-63.0C584.0 -60.0 599.0 -53.0 605.0 -46.0L543.0 4.0ZM646.0 121.0 605.0 71.0H-158.0L-149.0 41.0H695.0C709.0 41.0 719.0 46.0 722.0 57.0C692.0 85.0 646.0 121.0 646.0 121.0ZM553.0 -238.0H24.0V-268.0H553.0ZM553.0 -134.0H24.0V-164.0H553.0ZM553.0 -27.0H24.0V-57.0H553.0ZM672.0 -347.0H-83.0V-377.0H672.0ZM305.0 71.0H246.0C244.0 42.0 238.0 -11.0 232.0 -44.0H259.0C276.0 -14.0 295.0 38.0 305.0 71.0ZM622.0 -347.0H633.0C625.0 -375.0 605.0 -437.0 596.0 -464.0L611.0 -471.0C631.0 -449.0 666.0 -408.0 683.0 -384.0C702.0 -383.0 714.0 -381.0 721.0 -375.0L657.0 -312.0ZM-64.0 -312.0H-83.0C-83.0 -368.0 -119.0 -417.0 -157.0 -434.0C-172.0 -444.0 -181.0 -460.0 -174.0 -473.0C-164.0 -488.0 -136.0 -482.0 -116.0 -470.0C-85.0 -449.0 -48.0 -398.0 -64.0 -312.0Z"/></g>
<g fill="black" opacity=".8" transform="translate(100 200) scale(0.1 -0.1)"><path d="M0.0 0.0V-358.0H44.0V-27.0H56.0ZM513.0 -27.0H522.0V-362.0H566.0V-63.0C584.0 -60.0 599.0 -53.0 605.0 -46.0L543.0 4.0ZM646.0 121.0 605.0 71.0H-158.0L-149.0 41.0H695.0C709.0 41.0 719.0 46.0 722.0 57.0C692.0 85.0 646.0 121.0 646.0 121.0ZM553.0 -238.0H24.0V-268.0H553.0ZM553.0 -134.0H24.0V-164.0H553.0ZM553.0 -27.0H24.0V-57.0H553.0ZM672.0 -347.0H-83.0V-377.0H672.0ZM305.0 71.0H246.0C244.0 42.0 238.0 -11.0 232.0 -44.0H259.0C276.0 -14.0 295.0 38.0 305.0 71.0ZM622.0 -347.0H633.0C625.0 -375.0 605.0 -437.0 596.0 -464.0L611.0 -471.0C631.0 -449.0 666.0 -408.0 683.0 -384.0C702.0 -383.0 714.0 -381.0 721.0 -375.0L657.0 -312.0ZM-64.0 -312.0H-83.0C-83.0 -368.0 -119.0 -417.0 -157.0 -434.0C-172.0 -444.0 -181.0 -460.0 -174.0 -473.0C-164.0 -488.0 -136.0 -482.0 -116.0 -470.0C-85.0 -449.0 -48.0 -398.0 -64.0 -312.0Z"/></g>
<g fill="red" transform="translate(200 200) scale(0.1 -0.1)"><path d="M0.0 0.0V-383.0H140.0V-56.0H154.0ZM459.0 -56.0H469.0V-387.0H611.0V-101.0C630.0 -97.0 641.0 -90.0 647.0 -83.0L524.0 10.0ZM620.0 123.0 550.0 40.0H-158.0L-150.0 12.0H719.0C733.0 12.0 745.0 17.0 747.0 28.0C699.0 68.0 620.0 123.0 620.0 123.0ZM535.0 -261.0H93.0V-289.0H535.0ZM535.0 -160.0H93.0V-188.0H535.0ZM535.0 -56.0H93.0V-84.0H535.0ZM659.0 -370.0H-69.0V-398.0H659.0ZM385.0 40.0H212.0C213.0 14.0 213.0 -33.0 210.0 -64.0H271.0C308.0 -38.0 355.0 8.0 385.0 40.0ZM600.0 -370.0H611.0C609.0 -404.0 603.0 -464.0 598.0 -500.0L605.0 -506.0C650.0 -487.0 710.0 -452.0 746.0 -426.0C767.0 -424.0 777.0 -422.0 785.0 -413.0L668.0 -302.0ZM-40.0 -318.0H-53.0C-54.0 -353.0 -95.0 -378.0 -130.0 -386.0C-166.0 -398.0 -195.0 -424.0 -188.0 -466.0C-180.0 -509.0 -135.0 -527.0 -96.0 -516.0C-38.0 -500.0 3.0 -425.0 -40.0 -318.0Z"/></g>
<g fill="black" opacity=".8" transform="translate(200 200) scale(0.1 -0.1)"><path d="M0.0 0.0V-383.0H140.0V-56.0H154.0ZM459.0 -56.0H469.0V-387.0H611.0V-101.0C630.0 -97.0 641.0 -90.0 647.0 -83.0L524.0 10.0ZM620.0 123.0 550.0 40.0H-158.0L-150.0 12.0H719.0C733.0 12.0 745.0 17.0 747.0 28.0C699.0 68.0 620.0 123.0 620.0 123.0ZM535.0 -261.0H93.0V-289.0H535.0ZM535.0 -160.0H93.0V-188.0H535.0ZM535.0 -56.0H93.0V-84.0H535.0ZM659.0 -370.0H-69.0V-398.0H659.0ZM385.0 40.0H212.0C213.0 14.0 213.0 -33.0 210.0 -64.0H271.0C308.0 -38.0 355.0 8.0 385.0 40.0ZM600.0 -370.0H611.0C609.0 -404.0 603.0 -464.0 598.0 -500.0L605.0 -506.0C650.0 -487.0 710.0 -452.0 746.0 -426.0C767.0 -424.0 777.0 -422.0 785.0 -413.0L668.0 -302.0ZM-40.0 -318.0H-53.0C-54.0 -353.0 -95.0 -378.0 -130.0 -386.0C-166.0 -398.0 -195.0 -424.0 -188.0 -466.0C-180.0 -509.0 -135.0 -527.0 -96.0 -516.0C-38.0 -500.0 3.0 -425.0 -40.0 -318.0Z"/></g>
</svg>
