<?xml version="1.0" encoding="UTF-8"?>
<svg width="1700" height="400" xmlns="http://www.w3.org/2000/svg">
<rect width="100%" height="100%" fill="white"/>
<g fill="green" transform="translate(100 100) scale(0.1 -0.1)"><path d="M0.0 -0.0V-366.0H59.0V-36.0H75.0ZM-203.0 -31.0H-191.0V-367.0H-132.0V-81.0C-107.0 -76.0 -85.0 -67.0 -76.0 -57.0L-163.0 11.0ZM-126.0 270.0V585.0H-185.0V247.0H-177.0C-146.0 247.0 -126.0 264.0 -126.0 270.0ZM-149.0 -8.0H-305.0V-48.0H-149.0ZM-146.0 302.0H-300.0V262.0H-146.0ZM194.0 -36.0H20.0V-76.0H194.0ZM197.0 320.0H13.0V280.0H197.0ZM-287.0 307.0H-332.0V-66.0L-315.0 -19.0C-338.0 -25.0 -370.0 -39.0 -383.0 -51.0L-293.0 -113.0L-261.0 -70.0H-273.0V299.0ZM55.0 590.0H10.0V284.0L27.0 331.0C4.0 326.0 -28.0 312.0 -41.0 300.0L48.0 240.0L80.0 281.0H68.0V582.0ZM147.0 320.0H157.0V-118.0H165.0C184.0 -118.0 214.0 -104.0 215.0 -95.0V277.0C235.0 278.0 253.0 288.0 259.0 296.0L182.0 357.0ZM-332.0 363.0V246.0C-293.0 246.0 -273.0 246.0 -273.0 246.0V324.0H-257.0Z"/></g>
<g fill="green" transform="translate(200 100) scale(0.1 -0.1)"><path d="M0.0 0.0V-422.0H145.0V-61.0H159.0ZM-198.0 -59.0H-190.0V-419.0H-45.0V-101.0C-34.0 -98.0 -25.0 -93.0 -21.0 -87.0L-138.0 -0.0ZM-39.0 230.0V570.0H-182.0V200.0H-157.0C-83.0 200.0 -40.0 225.0 -39.0 230.0ZM-114.0 -37.0H-291.0V-75.0H-114.0ZM-78.0 279.0H-270.0V242.0H-78.0ZM229.0 -61.0H61.0V-98.0H229.0ZM225.0 301.0H34.0V263.0H225.0ZM-231.0 272.0H-325.0V-81.0L-301.0 -33.0C-325.0 -41.0 -358.0 -63.0 -375.0 -81.0L-236.0 -158.0L-191.0 -96.0H-201.0V253.0ZM114.0 572.0H6.0V283.0L35.0 330.0C14.0 322.0 -12.0 297.0 -27.0 279.0L118.0 208.0L157.0 263.0H148.0V551.0ZM161.0 301.0H170.0V-140.0H194.0C239.0 -140.0 308.0 -112.0 309.0 -103.0V253.0C326.0 256.0 338.0 263.0 343.0 271.0L221.0 361.0ZM-325.0 357.0V220.0C-239.0 220.0 -201.0 220.0 -201.0 220.0V300.0H-192.0Z"/></g>
<g fill="green" transform="translate(300 100) scale(0.1 -0.1)"><path d="M0.0 0.0V-285.0H47.0V-28.0H59.0ZM-151.0 -23.0H-142.0V-286.0H-95.0V-63.0C-75.0 -59.0 -58.0 -52.0 -51.0 -44.0L-119.0 9.0ZM-90.0 222.0V464.0H-136.0V204.0H-130.0C-106.0 204.0 -90.0 217.0 -90.0 222.0ZM-107.0 -21.0H-215.0V-52.0H-107.0ZM-105.0 260.0H-210.0V228.0H-105.0ZM138.0 -28.0H15.0V-60.0H138.0ZM140.0 257.0H8.0V226.0H140.0ZM-199.0 249.0H-235.0V-51.0L-222.0 -14.0C-240.0 -19.0 -265.0 -30.0 -275.0 -39.0L-204.0 -88.0L-179.0 -54.0H-188.0V243.0ZM45.0 469.0H10.0V229.0L23.0 266.0C5.0 262.0 -21.0 251.0 -31.0 241.0L39.0 194.0L65.0 227.0H55.0V463.0ZM100.0 257.0H108.0V-90.0H114.0C129.0 -90.0 153.0 -79.0 153.0 -72.0V224.0C169.0 224.0 183.0 232.0 187.0 238.0L127.0 286.0ZM-235.0 292.0V200.0C-204.0 200.0 -188.0 200.0 -188.0 200.0V261.0H-176.0Z"/></g>
<g fill="green" transform="translate(400 100) scale(0.1 -0.1)"><path d="M0.0 0.0V-331.0H110.0V-47.0H121.0ZM-146.0 -45.0H-140.0V-328.0H-29.0V-76.0C-23.0 -73.0 -17.0 -70.0 -14.0 -66.0L-101.0 -1.0ZM-24.0 188.0V453.0H-132.0V164.0H-114.0C-57.0 164.0 -25.0 184.0 -24.0 188.0ZM-83.0 -43.0H-218.0V-74.0H-83.0ZM-48.0 242.0H-199.0V213.0H-48.0ZM170.0 -47.0H43.0V-76.0H170.0ZM166.0 243.0H19.0V213.0H166.0ZM-163.0 220.0H-232.0V-63.0L-213.0 -26.0C-232.0 -32.0 -258.0 -48.0 -271.0 -62.0L-167.0 -120.0L-133.0 -74.0H-141.0V206.0ZM88.0 455.0H6.0V229.0L29.0 265.0C13.0 259.0 -6.0 240.0 -17.0 227.0L92.0 174.0L121.0 213.0H113.0V439.0ZM119.0 243.0H126.0V-104.0H144.0C177.0 -104.0 229.0 -82.0 230.0 -75.0V208.0C242.0 210.0 251.0 215.0 255.0 221.0L164.0 287.0ZM-232.0 285.0V179.0C-169.0 179.0 -141.0 179.0 -141.0 179.0V242.0H-135.0Z"/></g>
<g fill="green" transform="translate(500 100) scale(0.1 -0.1)"><path d="M0.0 0.0V-284.0H58.0V-35.0H74.0ZM-274.0 -43.0H-263.0V-277.0H-205.0V-91.0C-182.0 -86.0 -160.0 -78.0 -152.0 -68.0L-236.0 -4.0ZM-201.0 119.0V356.0H-259.0V97.0H-251.0C-221.0 97.0 -201.0 114.0 -201.0 119.0ZM-234.0 -159.0H-462.0V-198.0H-234.0ZM-231.0 288.0H-459.0V249.0H-231.0ZM281.0 -35.0H32.0V-75.0H281.0ZM279.0 171.0H26.0V132.0H279.0ZM-448.0 140.0H-492.0V-78.0L-476.0 -31.0C-498.0 -37.0 -530.0 -50.0 -542.0 -63.0L-454.0 -123.0L-423.0 -82.0H-435.0V133.0ZM49.0 357.0H5.0V135.0L22.0 183.0C-1.0 177.0 -32.0 163.0 -45.0 152.0L42.0 93.0L74.0 132.0H62.0V350.0ZM237.0 171.0H249.0V-115.0H257.0C276.0 -115.0 305.0 -103.0 306.0 -96.0V123.0C331.0 127.0 352.0 137.0 360.0 146.0L275.0 211.0ZM-492.0 210.0V95.0C-454.0 95.0 -435.0 95.0 -435.0 95.0V171.0H-419.0Z"/></g>
<g fill="green" transform="translate(600 100) scale(0.1 -0.1)"><path d="M0.0 0.0V-313.0H170.0V-68.0H182.0ZM-278.0 -66.0H-267.0V-311.0H-98.0V-119.0C-79.0 -114.0 -66.0 -106.0 -60.0 -98.0L-205.0 9.0ZM-94.0 117.0V343.0H-259.0V88.0H-230.0C-144.0 88.0 -95.0 112.0 -94.0 117.0ZM-187.0 -180.0H-452.0V-217.0H-187.0ZM-149.0 286.0H-409.0V249.0H-149.0ZM370.0 -68.0H84.0V-104.0H370.0ZM357.0 165.0H65.0V128.0H357.0ZM-362.0 140.0H-477.0V-83.0L-450.0 -35.0C-474.0 -44.0 -508.0 -69.0 -526.0 -89.0L-365.0 -173.0L-315.0 -102.0H-323.0V117.0ZM130.0 343.0H1.0V151.0L31.0 200.0C8.0 190.0 -22.0 162.0 -39.0 141.0L132.0 59.0L179.0 128.0H171.0V318.0ZM238.0 165.0H248.0V-150.0H275.0C326.0 -150.0 406.0 -123.0 407.0 -115.0V105.0C432.0 109.0 448.0 121.0 455.0 130.0L306.0 240.0ZM-477.0 238.0V92.0C-369.0 92.0 -323.0 92.0 -323.0 92.0V171.0H-314.0Z"/></g>
<g fill="green" transform="translate(700 100) scale(0.1 -0.1)"><path d="M0.0 0.0V-361.0H62.0V-38.0H79.0ZM-215.0 -32.0H-203.0V-363.0H-141.0V-84.0C-115.0 -79.0 -92.0 -69.0 -83.0 -59.0L-174.0 11.0ZM-134.0 268.0V570.0H-196.0V243.0H-188.0C-155.0 243.0 -134.0 261.0 -134.0 268.0ZM-161.0 280.0H-327.0V238.0H-161.0ZM-152.0 5.0H-326.0V-37.0H-152.0ZM217.0 -38.0H16.0V-80.0H217.0ZM221.0 311.0H14.0V269.0H221.0ZM-308.0 302.0H-355.0V-69.0L-337.0 -19.0C-361.0 -26.0 -395.0 -40.0 -408.0 -53.0L-314.0 -118.0L-280.0 -73.0H-293.0V293.0ZM57.0 574.0H10.0V272.0L28.0 321.0C4.0 316.0 -30.0 302.0 -44.0 290.0L50.0 226.0L83.0 270.0H71.0V566.0ZM168.0 311.0H179.0V-127.0H187.0C207.0 -127.0 238.0 -113.0 239.0 -103.0V266.0C260.0 267.0 279.0 277.0 285.0 286.0L205.0 349.0ZM-355.0 357.0V234.0C-314.0 234.0 -293.0 234.0 -293.0 234.0V316.0H-276.0Z"/></g>
<g fill="green" transform="translate(800 100) scale(0.1 -0.1)"><path d="M0.0 0.0V-421.0H150.0V-63.0H163.0ZM-211.0 -61.0H-202.0V-418.0H-51.0V-105.0C-39.0 -102.0 -29.0 -97.0 -24.0 -90.0L-148.0 1.0ZM-44.0 223.0V561.0H-195.0V192.0H-168.0C-90.0 192.0 -45.0 217.0 -44.0 223.0ZM-106.0 253.0H-301.0V213.0H-106.0ZM-85.0 -22.0H-287.0V-61.0H-85.0ZM243.0 -63.0H62.0V-102.0H243.0ZM239.0 291.0H38.0V251.0H239.0ZM-246.0 268.0H-346.0V-83.0L-321.0 -33.0C-347.0 -41.0 -381.0 -65.0 -399.0 -84.0L-252.0 -166.0L-204.0 -99.0H-214.0V248.0ZM117.0 562.0H5.0V272.0L35.0 321.0C11.0 313.0 -18.0 287.0 -35.0 268.0L119.0 190.0L162.0 251.0H152.0V540.0ZM165.0 291.0H175.0V-142.0H199.0C245.0 -142.0 317.0 -113.0 318.0 -104.0V238.0C338.0 242.0 352.0 250.0 357.0 259.0L228.0 355.0ZM-346.0 351.0V207.0C-255.0 207.0 -214.0 207.0 -214.0 207.0V291.0H-205.0Z"/></g>
<g fill="green" transform="translate(900 100) scale(0.1 -0.1)"><path d="M0.0 0.0V-341.0H50.0V-30.0H64.0ZM-204.0 -21.0H-194.0V-344.0H-144.0V-64.0C-122.0 -59.0 -103.0 -52.0 -95.0 -43.0L-170.0 16.0ZM-140.0 273.0V578.0H-190.0V253.0H-183.0C-157.0 253.0 -140.0 267.0 -140.0 273.0ZM-160.0 4.0H-318.0V-30.0H-160.0ZM-149.0 312.0H-312.0V278.0H-149.0ZM185.0 -30.0H14.0V-64.0H185.0ZM188.0 332.0H8.0V298.0H188.0ZM-304.0 319.0H-342.0V-49.0L-327.0 -10.0C-347.0 -15.0 -374.0 -27.0 -385.0 -38.0L-309.0 -90.0L-282.0 -53.0H-292.0V312.0ZM43.0 584.0H5.0V301.0L20.0 341.0C0.0 337.0 -27.0 325.0 -38.0 315.0L37.0 264.0L65.0 299.0H54.0V578.0ZM149.0 332.0H158.0V-94.0H165.0C181.0 -94.0 207.0 -82.0 208.0 -74.0V293.0C227.0 295.0 243.0 304.0 249.0 311.0L180.0 365.0ZM-342.0 369.0V270.0C-309.0 270.0 -292.0 270.0 -292.0 270.0V336.0H-278.0Z"/></g>
<g fill="green" transform="translate(1000 100) scale(0.1 -0.1)"><path d="M0.0 0.0V-406.0H133.0V-55.0H145.0ZM-190.0 -52.0H-183.0V-403.0H-51.0V-91.0C-39.0 -89.0 -30.0 -83.0 -26.0 -77.0L-134.0 5.0ZM-47.0 213.0V539.0H-178.0V186.0H-155.0C-87.0 186.0 -48.0 209.0 -47.0 213.0ZM-114.0 -33.0H-270.0V-65.0H-114.0ZM-90.0 283.0H-263.0V252.0H-90.0ZM217.0 -55.0H58.0V-86.0H217.0ZM215.0 303.0H39.0V270.0H215.0ZM-236.0 276.0H-328.0V-68.0L-306.0 -27.0C-327.0 -34.0 -355.0 -55.0 -370.0 -72.0L-240.0 -141.0L-198.0 -83.0H-207.0V258.0ZM103.0 542.0H4.0V289.0L30.0 328.0C11.0 322.0 -12.0 299.0 -26.0 282.0L107.0 218.0L143.0 270.0H136.0V522.0ZM157.0 303.0H165.0V-138.0H188.0C232.0 -138.0 298.0 -112.0 298.0 -104.0V258.0C315.0 261.0 325.0 267.0 330.0 275.0L214.0 361.0ZM-328.0 355.0V233.0C-243.0 233.0 -207.0 233.0 -207.0 233.0V301.0H-198.0Z"/></g>
<g fill="green" transform="translate(1100 100) scale(0.1 -0.1)"><path d="M0.0 -0.0V-382.0H55.0V-34.0H70.0ZM-188.0 -30.0H-177.0V-385.0H-122.0V-75.0C-99.0 -71.0 -79.0 -63.0 -71.0 -54.0L-151.0 9.0ZM-115.0 274.0V607.0H-170.0V254.0H-163.0C-134.0 254.0 -115.0 270.0 -115.0 274.0ZM-143.0 -11.0H-317.0V-49.0H-143.0ZM-143.0 298.0H-308.0V261.0H-143.0ZM208.0 -34.0H23.0V-71.0H208.0ZM210.0 312.0H22.0V275.0H210.0ZM-298.0 294.0H-340.0V-64.0L-324.0 -19.0C-345.0 -25.0 -375.0 -38.0 -387.0 -48.0L-303.0 -106.0L-273.0 -67.0H-285.0V286.0ZM51.0 607.0H9.0V279.0L25.0 322.0C4.0 318.0 -26.0 305.0 -38.0 294.0L45.0 237.0L75.0 275.0H63.0V600.0ZM165.0 312.0H173.0V-103.0H181.0C198.0 -103.0 226.0 -90.0 227.0 -82.0V274.0C245.0 274.0 260.0 284.0 265.0 290.0L196.0 345.0ZM-340.0 352.0V243.0C-303.0 243.0 -285.0 243.0 -285.0 243.0V316.0H-270.0Z"/></g>
<g fill="green" transform="translate(1200 100) scale(0.1 -0.1)"><path d="M0.0 0.0V-421.0H139.0V-58.0H153.0ZM-194.0 -59.0H-185.0V-420.0H-47.0V-102.0C-33.0 -99.0 -22.0 -93.0 -17.0 -86.0L-134.0 1.0ZM-41.0 235.0V586.0H-181.0V206.0H-156.0C-84.0 206.0 -42.0 230.0 -41.0 235.0ZM-110.0 -41.0H-256.0V-77.0H-110.0ZM-60.0 278.0H-236.0V243.0H-60.0ZM215.0 -58.0H80.0V-93.0H215.0ZM208.0 294.0H45.0V259.0H208.0ZM-234.0 262.0H-329.0V-77.0L-306.0 -32.0C-329.0 -40.0 -359.0 -61.0 -377.0 -79.0L-238.0 -154.0L-194.0 -93.0H-204.0V243.0ZM107.0 586.0H3.0V277.0L28.0 322.0C6.0 314.0 -22.0 291.0 -39.0 273.0L106.0 198.0L149.0 259.0H139.0V566.0ZM151.0 294.0H161.0V-130.0H184.0C226.0 -130.0 292.0 -103.0 293.0 -95.0V246.0C311.0 249.0 323.0 257.0 329.0 265.0L210.0 354.0ZM-329.0 351.0V220.0C-242.0 220.0 -204.0 220.0 -204.0 220.0V294.0H-195.0Z"/></g>
<g fill="green" transform="translate(1300 100) scale(0.1 -0.1)"><path d="M0.0 -0.0V-377.0H58.0V-36.0H74.0ZM-194.0 -32.0H-182.0V-377.0H-124.0V-82.0C-98.0 -77.0 -76.0 -68.0 -67.0 -58.0L-154.0 11.0ZM-119.0 250.0V588.0H-177.0V228.0H-170.0C-139.0 228.0 -119.0 244.0 -119.0 250.0ZM-133.0 -11.0H-301.0V-50.0H-133.0ZM-134.0 310.0H-303.0V270.0H-134.0ZM201.0 -36.0H19.0V-75.0H201.0ZM204.0 328.0H15.0V288.0H204.0ZM-289.0 310.0H-333.0V-67.0L-317.0 -21.0C-339.0 -26.0 -371.0 -40.0 -384.0 -51.0L-295.0 -113.0L-263.0 -71.0H-275.0V302.0ZM54.0 590.0H9.0V292.0L26.0 338.0C3.0 333.0 -28.0 320.0 -41.0 309.0L47.0 248.0L78.0 290.0H66.0V582.0ZM148.0 328.0H158.0V-135.0H166.0C185.0 -135.0 214.0 -121.0 215.0 -112.0V285.0C235.0 286.0 253.0 295.0 259.0 304.0L182.0 365.0ZM-333.0 368.0V253.0C-295.0 253.0 -275.0 253.0 -275.0 253.0V330.0H-259.0Z"/></g>
<g fill="green" transform="translate(1400 100) scale(0.1 -0.1)"><path d="M0.0 0.0V-435.0H146.0V-62.0H164.0ZM-201.0 -61.0H-193.0V-433.0H-47.0V-105.0C-34.0 -102.0 -24.0 -96.0 -19.0 -89.0L-139.0 1.0ZM-41.0 207.0V573.0H-186.0V177.0H-160.0C-85.0 177.0 -42.0 202.0 -41.0 207.0ZM-108.0 -36.0H-285.0V-74.0H-108.0ZM-103.0 270.0H-278.0V234.0H-103.0ZM211.0 -62.0H49.0V-99.0H211.0ZM216.0 295.0H37.0V257.0H216.0ZM-231.0 267.0H-328.0V-82.0L-304.0 -34.0C-327.0 -42.0 -360.0 -65.0 -377.0 -83.0L-236.0 -161.0L-190.0 -97.0H-200.0V247.0ZM115.0 571.0H6.0V277.0L35.0 324.0C14.0 316.0 -12.0 291.0 -28.0 272.0L118.0 201.0L158.0 257.0H149.0V550.0ZM153.0 295.0H162.0V-155.0H187.0C233.0 -155.0 303.0 -127.0 304.0 -117.0V247.0C321.0 249.0 333.0 256.0 338.0 265.0L214.0 356.0ZM-328.0 352.0V215.0C-239.0 215.0 -200.0 215.0 -200.0 215.0V294.0H-191.0Z"/></g>
<g fill="green" transform="translate(1500 100) scale(0.1 -0.1)"><path d="M0.0 0.0V-359.0H57.0V-35.0H73.0ZM-207.0 -33.0H-194.0V-358.0H-137.0V-84.0C-110.0 -78.0 -88.0 -70.0 -78.0 -59.0L-166.0 10.0ZM-132.0 259.0V580.0H-190.0V235.0H-182.0C-152.0 235.0 -132.0 252.0 -132.0 259.0ZM-152.0 -10.0H-308.0V-49.0H-152.0ZM-149.0 294.0H-306.0V255.0H-149.0ZM179.0 -35.0H18.0V-74.0H179.0ZM184.0 314.0H12.0V275.0H184.0ZM-293.0 308.0H-337.0V-66.0L-320.0 -21.0C-343.0 -26.0 -374.0 -41.0 -387.0 -52.0L-299.0 -112.0L-268.0 -71.0H-280.0V301.0ZM47.0 588.0H3.0V279.0L20.0 325.0C-3.0 320.0 -34.0 307.0 -46.0 295.0L40.0 235.0L71.0 276.0H60.0V580.0ZM141.0 314.0H151.0V-131.0H159.0C178.0 -131.0 208.0 -115.0 208.0 -106.0V271.0C228.0 272.0 246.0 282.0 252.0 290.0L176.0 351.0ZM-337.0 353.0V240.0C-299.0 240.0 -280.0 240.0 -280.0 240.0V315.0H-264.0Z"/></g>
<g fill="green" transform="translate(1600 100) scale(0.1 -0.1)"><path d="M0.0 0.0V-421.0H140.0V-61.0H158.0ZM-182.0 -58.0H-174.0V-418.0H-36.0V-98.0C-26.0 -96.0 -17.0 -91.0 -14.0 -85.0L-125.0 -2.0ZM-34.0 245.0V581.0H-171.0V217.0H-148.0C-78.0 217.0 -36.0 240.0 -34.0 245.0ZM-117.0 -40.0H-273.0V-77.0H-117.0ZM-107.0 281.0H-262.0V245.0H-107.0ZM204.0 -61.0H64.0V-97.0H204.0ZM213.0 304.0H50.0V267.0H213.0ZM-230.0 280.0H-327.0V-79.0L-304.0 -33.0C-327.0 -40.0 -360.0 -63.0 -376.0 -81.0L-234.0 -159.0L-189.0 -95.0H-199.0V261.0ZM109.0 587.0H6.0V286.0L33.0 332.0C13.0 325.0 -12.0 300.0 -27.0 283.0L113.0 214.0L150.0 267.0H142.0V567.0ZM162.0 304.0H171.0V-154.0H197.0C243.0 -154.0 315.0 -126.0 316.0 -116.0V258.0C332.0 261.0 342.0 267.0 347.0 274.0L224.0 365.0ZM-327.0 356.0V221.0C-238.0 221.0 -199.0 221.0 -199.0 221.0V298.0H-189.0Z"/></g>
<g fill="red" transform="translate(100 200) scale(0.1 -0.1)"><path d="M0.0 0.0V-314.0H44.0V-27.0H56.0ZM-226.0 -26.0H-216.0V-313.0H-172.0V-65.0C-152.0 -61.0 -135.0 -54.0 -128.0 -46.0L-195.0 7.0ZM-172.0 174.0V467.0H-216.0V158.0H-210.0C-187.0 158.0 -172.0 170.0 -172.0 174.0ZM-192.0 -26.0H-416.0V-56.0H-192.0ZM-187.0 242.0H-416.0V212.0H-187.0ZM247.0 -27.0H23.0V-57.0H247.0ZM248.0 243.0H24.0V213.0H248.0ZM-408.0 222.0H-442.0V-53.0L-429.0 -17.0C-446.0 -21.0 -470.0 -32.0 -480.0 -41.0L-413.0 -86.0L-389.0 -56.0H-398.0V216.0ZM31.0 467.0H-3.0V215.0L10.0 250.0C-7.0 246.0 -31.0 236.0 -41.0 228.0L26.0 181.0L50.0 213.0H41.0V461.0ZM216.0 243.0H226.0V-101.0H232.0C247.0 -101.0 269.0 -89.0 270.0 -83.0V204.0C290.0 208.0 307.0 215.0 314.0 223.0L246.0 276.0ZM-442.0 271.0V183.0C-413.0 183.0 -398.0 183.0 -398.0 183.0V242.0H-386.0Z"/></g>
<g fill="black" opacity=".8" transform="translate(100 200) scale(0.1 -0.1)"><path d="M0.0 0.0V-311.0H46.0V-28.0H59.0ZM-230.0 -29.0H-221.0V-310.0H-175.0V-68.0C-154.0 -63.0 -136.0 -58.0 -129.0 -49.0L-199.0 6.0ZM-173.0 172.0V463.0H-219.0V155.0H-213.0C-189.0 155.0 -173.0 168.0 -173.0 172.0ZM-195.0 -25.0H-416.0V-56.0H-195.0ZM-187.0 243.0H-416.0V211.0H-187.0ZM247.0 -28.0H20.0V-59.0H247.0ZM248.0 246.0H23.0V214.0H248.0ZM-409.0 219.0H-444.0V-56.0L-431.0 -19.0C-448.0 -23.0 -474.0 -34.0 -483.0 -43.0L-413.0 -91.0L-388.0 -59.0H-399.0V213.0ZM33.0 462.0H-2.0V216.0L13.0 254.0C-6.0 250.0 -31.0 240.0 -41.0 232.0L28.0 182.0L54.0 215.0H43.0V458.0ZM214.0 246.0H223.0V-102.0H230.0C245.0 -102.0 268.0 -91.0 269.0 -84.0V207.0C290.0 210.0 305.0 218.0 312.0 225.0L244.0 278.0ZM-444.0 275.0V185.0C-413.0 185.0 -399.0 185.0 -399.0 185.0V245.0H-385.0Z"/></g>
<g fill="red" transform="translate(200 200) scale(0.1 -0.1)"><path d="M0.0 0.0V-356.0H140.0V-56.0H154.0ZM-229.0 -55.0H-219.0V-355.0H-82.0V-102.0C-61.0 -98.0 -48.0 -90.0 -42.0 -82.0L-165.0 12.0ZM-82.0 142.0V426.0H-219.0V117.0H-194.0C-123.0 117.0 -82.0 137.0 -82.0 142.0ZM-145.0 -55.0H-329.0V-83.0H-145.0ZM-153.0 218.0H-332.0V190.0H-153.0ZM271.0 -56.0H68.0V-84.0H271.0ZM272.0 215.0H69.0V187.0H272.0ZM-314.0 198.0H-421.0V-64.0L-399.0 -26.0C-418.0 -34.0 -444.0 -57.0 -459.0 -75.0L-315.0 -146.0L-272.0 -83.0H-278.0V177.0ZM105.0 426.0H0.0V206.0L22.0 243.0C3.0 236.0 -23.0 213.0 -38.0 195.0L104.0 125.0L146.0 187.0H140.0V405.0ZM190.0 215.0H200.0V-160.0H225.0C272.0 -160.0 344.0 -135.0 345.0 -128.0V164.0C366.0 168.0 378.0 178.0 384.0 186.0L253.0 285.0ZM-421.0 278.0V158.0C-321.0 158.0 -278.0 158.0 -278.0 158.0V218.0H-270.0Z"/></g>
<g fill="black" opacity=".8" transform="translate(200 200) scale(0.1 -0.1)"><path d="M0.0 0.0V-354.0H143.0V-58.0H158.0ZM-230.0 -57.0H-221.0V-354.0H-81.0V-104.0C-61.0 -102.0 -48.0 -93.0 -41.0 -84.0L-166.0 11.0ZM-79.0 141.0V429.0H-221.0V116.0H-196.0C-123.0 116.0 -81.0 137.0 -79.0 141.0ZM-147.0 -55.0H-326.0V-85.0H-147.0ZM-149.0 218.0H-323.0V189.0H-149.0ZM265.0 -58.0H76.0V-87.0H265.0ZM268.0 217.0H73.0V187.0H268.0ZM-313.0 194.0H-422.0V-67.0L-400.0 -28.0C-419.0 -35.0 -446.0 -59.0 -462.0 -77.0L-315.0 -151.0L-270.0 -85.0H-278.0V173.0ZM106.0 428.0H-1.0V206.0L22.0 245.0C1.0 238.0 -26.0 215.0 -43.0 195.0L105.0 122.0L149.0 187.0H142.0V406.0ZM188.0 217.0H197.0V-154.0H223.0C270.0 -154.0 342.0 -129.0 342.0 -121.0V165.0C364.0 168.0 376.0 178.0 383.0 187.0L251.0 286.0ZM-422.0 279.0V156.0C-320.0 156.0 -278.0 156.0 -278.0 156.0V218.0H-269.0Z"/></g>
<g fill="red" transform="translate(300 200) scale(0.1 -0.1)"><path d="M0.0 0.0V-306.0H44.0V-27.0H56.0ZM-187.0 -27.0H-177.0V-306.0H-133.0V-66.0C-113.0 -62.0 -96.0 -55.0 -89.0 -47.0L-156.0 6.0ZM-129.0 185.0V469.0H-173.0V169.0H-167.0C-144.0 169.0 -129.0 181.0 -129.0 185.0ZM-147.0 -27.0H-328.0V-57.0H-147.0ZM-145.0 241.0H-326.0V211.0H-145.0ZM194.0 -27.0H23.0V-57.0H194.0ZM195.0 240.0H24.0V210.0H195.0ZM-318.0 221.0H-352.0V-54.0L-339.0 -18.0C-356.0 -22.0 -380.0 -33.0 -390.0 -42.0L-323.0 -87.0L-299.0 -57.0H-308.0V215.0ZM35.0 469.0H1.0V213.0L14.0 248.0C-3.0 244.0 -27.0 234.0 -37.0 225.0L30.0 178.0L54.0 210.0H45.0V463.0ZM169.0 240.0H177.0V-100.0H183.0C198.0 -100.0 220.0 -88.0 221.0 -82.0V207.0C236.0 208.0 250.0 215.0 255.0 222.0L196.0 269.0ZM-352.0 270.0V182.0C-323.0 182.0 -308.0 182.0 -308.0 182.0V241.0H-296.0Z"/></g>
<g fill="black" opacity=".8" transform="translate(300 200) scale(0.1 -0.1)"><path d="M0.0 0.0V-306.0H44.0V-27.0H56.0ZM-188.0 -28.0H-178.0V-305.0H-134.0V-67.0C-113.0 -62.0 -96.0 -57.0 -89.0 -48.0L-156.0 5.0ZM-130.0 192.0V474.0H-175.0V174.0H-169.0C-147.0 174.0 -130.0 187.0 -130.0 192.0ZM-152.0 -26.0H-328.0V-57.0H-152.0ZM-150.0 239.0H-325.0V209.0H-150.0ZM192.0 -27.0H19.0V-57.0H192.0ZM194.0 240.0H21.0V210.0H194.0ZM-317.0 225.0H-351.0V-55.0L-338.0 -19.0C-356.0 -23.0 -380.0 -35.0 -389.0 -42.0L-322.0 -88.0L-298.0 -58.0H-308.0V220.0ZM32.0 476.0H-2.0V213.0L12.0 248.0C-6.0 245.0 -30.0 235.0 -39.0 226.0L27.0 178.0L52.0 210.0H42.0V471.0ZM165.0 240.0H172.0V-100.0H179.0C193.0 -100.0 217.0 -88.0 216.0 -81.0V206.0C234.0 207.0 247.0 215.0 252.0 221.0L192.0 269.0ZM-351.0 268.0V182.0C-322.0 182.0 -308.0 182.0 -308.0 182.0V239.0H-295.0Z"/></g>
<g fill="red" transform="translate(400 200) scale(0.1 -0.1)"><path d="M0.0 0.0V-342.0H123.0V-51.0H136.0ZM-178.0 -51.0H-170.0V-342.0H-49.0V-89.0C-35.0 -86.0 -26.0 -80.0 -22.0 -75.0L-125.0 2.0ZM-49.0 186.0V463.0H-171.0V163.0H-149.0C-87.0 163.0 -50.0 182.0 -49.0 186.0ZM-118.0 -51.0H-245.0V-79.0H-118.0ZM-114.0 230.0H-241.0V202.0H-114.0ZM196.0 -51.0H79.0V-79.0H196.0ZM201.0 232.0H70.0V204.0H201.0ZM-240.0 209.0H-332.0V-64.0L-312.0 -27.0C-330.0 -33.0 -356.0 -54.0 -370.0 -70.0L-242.0 -136.0L-203.0 -80.0H-210.0V191.0ZM92.0 465.0H0.0V220.0L20.0 257.0C2.0 251.0 -24.0 230.0 -38.0 214.0L90.0 148.0L129.0 204.0H122.0V447.0ZM153.0 232.0H162.0V-130.0H184.0C224.0 -130.0 286.0 -107.0 287.0 -100.0V189.0C303.0 193.0 313.0 200.0 318.0 206.0L208.0 289.0ZM-332.0 282.0V170.0C-247.0 170.0 -210.0 170.0 -210.0 170.0V230.0H-202.0Z"/></g>
<g fill="black" opacity=".8" transform="translate(400 200) scale(0.1 -0.1)"><path d="M0.0 0.0V-344.0H121.0V-52.0H138.0ZM-176.0 -52.0H-167.0V-343.0H-49.0V-90.0C-35.0 -88.0 -24.0 -81.0 -20.0 -74.0L-123.0 3.0ZM-49.0 183.0V464.0H-170.0V160.0H-149.0C-87.0 160.0 -51.0 179.0 -49.0 183.0ZM-117.0 -53.0H-243.0V-83.0H-117.0ZM-109.0 230.0H-238.0V202.0H-109.0ZM195.0 -52.0H75.0V-80.0H195.0ZM202.0 229.0H65.0V200.0H202.0ZM-242.0 208.0H-335.0V-63.0L-315.0 -27.0C-334.0 -33.0 -359.0 -54.0 -374.0 -70.0L-244.0 -137.0L-204.0 -79.0H-212.0V190.0ZM91.0 466.0H1.0V216.0L21.0 253.0C2.0 247.0 -22.0 227.0 -38.0 211.0L89.0 145.0L127.0 200.0H120.0V449.0ZM152.0 229.0H161.0V-134.0H184.0C223.0 -134.0 287.0 -111.0 287.0 -103.0V186.0C305.0 189.0 314.0 196.0 320.0 203.0L207.0 287.0ZM-335.0 279.0V167.0C-248.0 167.0 -212.0 167.0 -212.0 167.0V226.0H-203.0Z"/></g>
<g fill="red" transform="translate(500 200) scale(0.1 -0.1)"><path d="M0.0 0.0V-306.0H44.0V-27.0H56.0ZM-169.0 -27.0H-159.0V-306.0H-115.0V-66.0C-95.0 -62.0 -78.0 -55.0 -71.0 -47.0L-138.0 6.0ZM-112.0 178.0V467.0H-156.0V163.0H-150.0C-127.0 163.0 -112.0 174.0 -112.0 178.0ZM-134.0 -27.0H-301.0V-57.0H-134.0ZM-134.0 237.0H-301.0V207.0H-134.0ZM188.0 -27.0H17.0V-57.0H188.0ZM191.0 239.0H20.0V209.0H191.0ZM-290.0 225.0H-324.0V-55.0L-311.0 -19.0C-328.0 -23.0 -352.0 -34.0 -362.0 -42.0L-295.0 -88.0L-271.0 -57.0H-280.0V219.0ZM35.0 469.0H1.0V213.0L14.0 248.0C-3.0 244.0 -27.0 234.0 -37.0 225.0L30.0 178.0L54.0 210.0H45.0V463.0ZM150.0 239.0H158.0V-110.0H164.0C179.0 -110.0 201.0 -97.0 202.0 -91.0V206.0C217.0 207.0 231.0 214.0 236.0 221.0L177.0 268.0ZM-324.0 266.0V178.0C-295.0 178.0 -280.0 178.0 -280.0 178.0V237.0H-268.0Z"/></g>
<g fill="black" opacity=".8" transform="translate(500 200) scale(0.1 -0.1)"><path d="M0.0 0.0V-307.0H43.0V-27.0H55.0ZM-166.0 -28.0H-157.0V-306.0H-114.0V-66.0C-93.0 -62.0 -77.0 -56.0 -70.0 -48.0L-135.0 4.0ZM-110.0 177.0V465.0H-153.0V161.0H-149.0C-126.0 161.0 -110.0 173.0 -110.0 177.0ZM-125.0 -27.0H-297.0V-57.0H-125.0ZM-127.0 239.0H-298.0V209.0H-127.0ZM188.0 -27.0H18.0V-56.0H188.0ZM189.0 239.0H22.0V210.0H189.0ZM-289.0 220.0H-322.0V-55.0L-310.0 -20.0C-326.0 -24.0 -350.0 -35.0 -359.0 -41.0L-293.0 -87.0L-269.0 -58.0H-279.0V215.0ZM34.0 464.0H1.0V212.0L14.0 246.0C-3.0 243.0 -27.0 234.0 -36.0 226.0L29.0 178.0L53.0 210.0H43.0V458.0ZM154.0 239.0H161.0V-107.0H167.0C181.0 -107.0 203.0 -95.0 203.0 -89.0V207.0C219.0 207.0 232.0 214.0 236.0 220.0L179.0 267.0ZM-322.0 266.0V181.0C-293.0 181.0 -279.0 181.0 -279.0 181.0V238.0H-267.0Z"/></g>
<g fill="red" transform="translate(600 200) scale(0.1 -0.1)"><path d="M0.0 0.0V-343.0H117.0V-52.0H138.0ZM-168.0 -52.0H-159.0V-343.0H-44.0V-94.0C-26.0 -91.0 -14.0 -83.0 -8.0 -76.0L-114.0 4.0ZM-42.0 157.0V452.0H-160.0V134.0H-139.0C-78.0 134.0 -43.0 153.0 -42.0 157.0ZM-97.0 -52.0H-224.0V-80.0H-97.0ZM-93.0 216.0H-220.0V188.0H-93.0ZM180.0 -52.0H63.0V-80.0H180.0ZM185.0 216.0H54.0V188.0H185.0ZM-218.0 199.0H-307.0V-65.0L-287.0 -28.0C-306.0 -34.0 -331.0 -54.0 -345.0 -70.0L-221.0 -135.0L-183.0 -80.0H-190.0V182.0ZM89.0 453.0H2.0V203.0L22.0 240.0C3.0 233.0 -22.0 214.0 -36.0 198.0L86.0 134.0L124.0 188.0H117.0V436.0ZM132.0 216.0H141.0V-142.0H162.0C201.0 -142.0 260.0 -120.0 261.0 -112.0V174.0C277.0 177.0 287.0 184.0 292.0 191.0L185.0 272.0ZM-307.0 267.0V156.0C-226.0 156.0 -190.0 156.0 -190.0 156.0V216.0H-182.0Z"/></g>
<g fill="black" opacity=".8" transform="translate(600 200) scale(0.1 -0.1)"><path d="M0.0 0.0V-342.0H117.0V-50.0H135.0ZM-170.0 -51.0H-162.0V-342.0H-46.0V-90.0C-32.0 -87.0 -21.0 -81.0 -16.0 -74.0L-117.0 3.0ZM-45.0 163.0V455.0H-163.0V140.0H-142.0C-81.0 140.0 -46.0 158.0 -45.0 163.0ZM-102.0 -49.0H-226.0V-78.0H-102.0ZM-106.0 216.0H-226.0V189.0H-106.0ZM173.0 -50.0H62.0V-78.0H173.0ZM183.0 218.0H58.0V190.0H183.0ZM-222.0 196.0H-310.0V-63.0L-291.0 -28.0C-308.0 -34.0 -333.0 -53.0 -348.0 -69.0L-224.0 -133.0L-185.0 -78.0H-193.0V179.0ZM89.0 454.0H1.0V205.0L21.0 241.0C3.0 235.0 -21.0 215.0 -36.0 200.0L87.0 137.0L124.0 190.0H116.0V437.0ZM134.0 218.0H143.0V-133.0H165.0C202.0 -133.0 262.0 -111.0 263.0 -103.0V177.0C279.0 179.0 288.0 186.0 294.0 193.0L187.0 272.0ZM-310.0 267.0V158.0C-228.0 158.0 -193.0 158.0 -193.0 158.0V216.0H-185.0Z"/></g>
<g fill="red" transform="translate(700 200) scale(0.1 -0.1)"><path d="M0.0 0.0V-213.0H44.0V-27.0H56.0ZM-228.0 -38.0H-218.0V-206.0H-174.0V-77.0C-155.0 -73.0 -137.0 -66.0 -130.0 -58.0L-197.0 -6.0ZM-174.0 61.0V248.0H-218.0V44.0H-212.0C-189.0 44.0 -174.0 57.0 -174.0 61.0ZM-197.0 -38.0H-397.0V-68.0H-197.0ZM-193.0 108.0H-398.0V78.0H-193.0ZM235.0 -27.0H21.0V-57.0H235.0ZM235.0 111.0H21.0V81.0H235.0ZM-390.0 85.0H-424.0V-65.0L-411.0 -29.0C-428.0 -33.0 -452.0 -44.0 -462.0 -53.0L-395.0 -99.0L-371.0 -68.0H-380.0V79.0ZM31.0 248.0H-3.0V83.0L10.0 120.0C-7.0 115.0 -31.0 105.0 -41.0 96.0L26.0 50.0L50.0 81.0H41.0V242.0ZM205.0 111.0H215.0V-105.0H221.0C236.0 -105.0 258.0 -93.0 259.0 -87.0V72.0C278.0 76.0 296.0 83.0 303.0 91.0L235.0 143.0ZM-424.0 137.0V49.0C-395.0 49.0 -380.0 49.0 -380.0 49.0V108.0H-368.0Z"/></g>
<g fill="black" opacity=".8" transform="translate(700 200) scale(0.1 -0.1)"><path d="M0.0 0.0V-214.0H44.0V-27.0H56.0ZM-226.0 -37.0H-217.0V-206.0H-173.0V-75.0C-153.0 -70.0 -136.0 -65.0 -130.0 -57.0L-196.0 -7.0ZM-171.0 58.0V247.0H-215.0V41.0H-210.0C-187.0 41.0 -171.0 54.0 -171.0 58.0ZM-195.0 -38.0H-398.0V-67.0H-195.0ZM-192.0 109.0H-402.0V79.0H-192.0ZM239.0 -27.0H24.0V-57.0H239.0ZM238.0 109.0H25.0V80.0H238.0ZM-391.0 85.0H-425.0V-64.0L-413.0 -28.0C-430.0 -32.0 -454.0 -43.0 -463.0 -51.0L-396.0 -97.0L-372.0 -67.0H-382.0V80.0ZM32.0 246.0H-2.0V81.0L12.0 118.0C-6.0 113.0 -30.0 104.0 -40.0 96.0L26.0 48.0L51.0 80.0H41.0V242.0ZM208.0 109.0H218.0V-104.0H224.0C239.0 -104.0 261.0 -94.0 261.0 -89.0V72.0C282.0 74.0 298.0 82.0 304.0 89.0L238.0 141.0ZM-425.0 136.0V50.0C-396.0 50.0 -382.0 50.0 -382.0 50.0V106.0H-370.0Z"/></g>
<g fill="red" transform="translate(800 200) scale(0.1 -0.1)"><path d="M0.0 0.0V-235.0H135.0V-55.0H149.0ZM-227.0 -54.0H-217.0V-234.0H-84.0V-98.0C-66.0 -94.0 -54.0 -87.0 -49.0 -80.0L-167.0 8.0ZM-84.0 73.0V249.0H-217.0V51.0H-193.0C-125.0 51.0 -85.0 69.0 -84.0 73.0ZM-154.0 -54.0H-357.0V-82.0H-154.0ZM-156.0 106.0H-335.0V78.0H-156.0ZM285.0 -55.0H68.0V-83.0H285.0ZM286.0 103.0H69.0V75.0H286.0ZM-312.0 87.0H-414.0V-64.0L-392.0 -27.0C-411.0 -34.0 -438.0 -56.0 -452.0 -73.0L-313.0 -143.0L-272.0 -82.0H-278.0V67.0ZM101.0 249.0H-1.0V93.0L21.0 131.0C2.0 123.0 -25.0 101.0 -39.0 84.0L99.0 15.0L140.0 75.0H134.0V229.0ZM192.0 103.0H202.0V-129.0H225.0C268.0 -129.0 336.0 -108.0 337.0 -101.0V53.0C358.0 57.0 371.0 67.0 377.0 74.0L251.0 168.0ZM-414.0 163.0V46.0C-319.0 46.0 -278.0 46.0 -278.0 46.0V106.0H-270.0Z"/></g>
<g fill="black" opacity=".8" transform="translate(800 200) scale(0.1 -0.1)"><path d="M0.0 0.0V-236.0H134.0V-55.0H148.0ZM-225.0 -54.0H-215.0V-235.0H-83.0V-98.0C-66.0 -94.0 -54.0 -86.0 -48.0 -79.0L-166.0 9.0ZM-82.0 74.0V247.0H-214.0V52.0H-191.0C-123.0 52.0 -84.0 70.0 -82.0 74.0ZM-153.0 -51.0H-359.0V-81.0H-153.0ZM-155.0 108.0H-339.0V80.0H-155.0ZM289.0 -55.0H71.0V-83.0H289.0ZM290.0 105.0H72.0V77.0H290.0ZM-310.0 92.0H-409.0V-64.0L-388.0 -28.0C-406.0 -35.0 -432.0 -56.0 -447.0 -73.0L-311.0 -142.0L-270.0 -81.0H-276.0V72.0ZM101.0 246.0H-1.0V95.0L21.0 133.0C2.0 126.0 -23.0 103.0 -39.0 87.0L100.0 18.0L140.0 77.0H133.0V226.0ZM195.0 105.0H203.0V-133.0H227.0C267.0 -133.0 335.0 -112.0 336.0 -105.0V56.0C357.0 59.0 370.0 69.0 377.0 77.0L252.0 169.0ZM-409.0 165.0V49.0C-315.0 49.0 -276.0 49.0 -276.0 49.0V108.0H-269.0Z"/></g>
<g fill="red" transform="translate(900 200) scale(0.1 -0.1)"><path d="M0.0 0.0V-283.0H44.0V-27.0H56.0ZM-183.0 -21.0H-173.0V-286.0H-129.0V-60.0C-109.0 -56.0 -92.0 -49.0 -85.0 -41.0L-152.0 12.0ZM-126.0 213.0V470.0H-170.0V196.0H-164.0C-141.0 196.0 -126.0 208.0 -126.0 213.0ZM-147.0 266.0H-295.0V236.0H-147.0ZM-132.0 -21.0H-295.0V-51.0H-132.0ZM176.0 -27.0H5.0V-57.0H176.0ZM180.0 264.0H9.0V234.0H180.0ZM-283.0 255.0H-317.0V-47.0L-304.0 -12.0C-321.0 -16.0 -345.0 -27.0 -355.0 -36.0L-288.0 -82.0L-264.0 -50.0H-273.0V249.0ZM35.0 475.0H1.0V237.0L14.0 272.0C-3.0 268.0 -27.0 258.0 -37.0 249.0L30.0 203.0L54.0 235.0H45.0V469.0ZM146.0 264.0H154.0V-97.0H160.0C175.0 -97.0 197.0 -85.0 198.0 -78.0V231.0C213.0 232.0 227.0 239.0 232.0 246.0L173.0 293.0ZM-317.0 295.0V207.0C-288.0 207.0 -273.0 207.0 -273.0 207.0V266.0H-261.0Z"/></g>
<g fill="black" opacity=".8" transform="translate(900 200) scale(0.1 -0.1)"><path d="M0.0 0.0V-285.0H43.0V-26.0H55.0ZM-178.0 -20.0H-170.0V-288.0H-127.0V-58.0C-106.0 -53.0 -90.0 -48.0 -83.0 -40.0L-149.0 11.0ZM-123.0 214.0V471.0H-166.0V196.0H-161.0C-138.0 196.0 -123.0 208.0 -123.0 214.0ZM-141.0 266.0H-294.0V237.0H-141.0ZM-129.0 -20.0H-295.0V-50.0H-129.0ZM178.0 -26.0H8.0V-55.0H178.0ZM181.0 262.0H12.0V233.0H181.0ZM-283.0 255.0H-316.0V-45.0L-303.0 -11.0C-320.0 -16.0 -344.0 -26.0 -353.0 -34.0L-288.0 -79.0L-264.0 -49.0H-273.0V249.0ZM33.0 475.0H0.0V235.0L14.0 268.0C-4.0 265.0 -27.0 256.0 -37.0 248.0L28.0 202.0L52.0 234.0H42.0V470.0ZM149.0 262.0H157.0V-95.0H163.0C177.0 -95.0 199.0 -84.0 199.0 -77.0V229.0C216.0 230.0 229.0 237.0 234.0 244.0L175.0 290.0ZM-316.0 293.0V208.0C-288.0 208.0 -273.0 208.0 -273.0 208.0V264.0H-261.0Z"/></g>
<g fill="red" transform="translate(1000 200) scale(0.1 -0.1)"><path d="M0.0 0.0V-340.0H115.0V-49.0H129.0ZM-166.0 -47.0H-158.0V-338.0H-44.0V-84.0C-31.0 -82.0 -21.0 -76.0 -17.0 -70.0L-116.0 4.0ZM-42.0 171.0V453.0H-159.0V148.0H-138.0C-78.0 148.0 -43.0 167.0 -42.0 171.0ZM-88.0 236.0H-215.0V208.0H-88.0ZM-92.0 -47.0H-219.0V-75.0H-92.0ZM175.0 -49.0H58.0V-77.0H175.0ZM180.0 238.0H49.0V210.0H180.0ZM-214.0 222.0H-302.0V-60.0L-282.0 -24.0C-301.0 -30.0 -326.0 -50.0 -340.0 -65.0L-217.0 -130.0L-179.0 -75.0H-186.0V205.0ZM87.0 456.0H2.0V225.0L22.0 261.0C3.0 255.0 -22.0 235.0 -36.0 220.0L85.0 157.0L122.0 210.0H115.0V439.0ZM129.0 238.0H138.0V-124.0H158.0C197.0 -124.0 256.0 -102.0 257.0 -94.0V196.0C273.0 199.0 283.0 206.0 288.0 213.0L182.0 293.0ZM-302.0 286.0V176.0C-222.0 176.0 -186.0 176.0 -186.0 176.0V236.0H-178.0Z"/></g>
<g fill="black" opacity=".8" transform="translate(1000 200) scale(0.1 -0.1)"><path d="M0.0 0.0V-341.0H113.0V-48.0H126.0ZM-165.0 -46.0H-157.0V-339.0H-45.0V-81.0C-34.0 -79.0 -24.0 -74.0 -20.0 -67.0L-115.0 5.0ZM-43.0 174.0V452.0H-158.0V152.0H-138.0C-78.0 152.0 -45.0 170.0 -43.0 174.0ZM-88.0 238.0H-218.0V209.0H-88.0ZM-98.0 -46.0H-227.0V-73.0H-98.0ZM176.0 -48.0H55.0V-75.0H176.0ZM183.0 239.0H50.0V211.0H183.0ZM-214.0 224.0H-301.0V-58.0L-282.0 -23.0C-300.0 -29.0 -324.0 -48.0 -338.0 -64.0L-218.0 -127.0L-179.0 -72.0H-187.0V208.0ZM86.0 454.0H2.0V227.0L22.0 260.0C3.0 256.0 -19.0 236.0 -34.0 222.0L85.0 160.0L120.0 211.0H113.0V437.0ZM132.0 239.0H141.0V-126.0H161.0C198.0 -126.0 258.0 -103.0 258.0 -96.0V198.0C275.0 201.0 284.0 207.0 289.0 214.0L184.0 293.0ZM-301.0 286.0V179.0C-221.0 179.0 -187.0 179.0 -187.0 179.0V236.0H-180.0Z"/></g>
<g fill="red" transform="translate(1100 200) scale(0.1 -0.1)"><path d="M0.0 0.0V-253.0H44.0V-27.0H56.0ZM-181.0 -27.0H-172.0V-253.0H-128.0V-63.0C-111.0 -60.0 -95.0 -53.0 -89.0 -46.0L-152.0 3.0ZM-123.0 116.0V343.0H-167.0V100.0H-161.0C-138.0 100.0 -123.0 112.0 -123.0 116.0ZM-142.0 178.0H-323.0V148.0H-142.0ZM-140.0 -27.0H-330.0V-57.0H-140.0ZM217.0 -27.0H22.0V-57.0H217.0ZM217.0 176.0H27.0V146.0H217.0ZM-315.0 156.0H-349.0V-54.0L-336.0 -18.0C-353.0 -23.0 -377.0 -33.0 -387.0 -42.0L-320.0 -88.0L-296.0 -57.0H-305.0V150.0ZM40.0 340.0H6.0V148.0L19.0 183.0C2.0 179.0 -22.0 170.0 -32.0 161.0L35.0 114.0L59.0 146.0H50.0V334.0ZM181.0 176.0H189.0V-106.0H195.0C209.0 -106.0 231.0 -97.0 232.0 -92.0V143.0C248.0 145.0 262.0 151.0 267.0 158.0L208.0 204.0ZM-349.0 207.0V119.0C-320.0 119.0 -305.0 119.0 -305.0 119.0V178.0H-293.0Z"/></g>
<g fill="black" opacity=".8" transform="translate(1100 200) scale(0.1 -0.1)"><path d="M0.0 0.0V-253.0H44.0V-27.0H56.0ZM-182.0 -29.0H-174.0V-251.0H-130.0V-67.0C-110.0 -63.0 -94.0 -57.0 -88.0 -49.0L-153.0 1.0ZM-126.0 125.0V348.0H-170.0V108.0H-165.0C-142.0 108.0 -126.0 120.0 -126.0 125.0ZM-145.0 177.0H-321.0V148.0H-145.0ZM-142.0 -28.0H-326.0V-59.0H-142.0ZM213.0 -27.0H16.0V-57.0H213.0ZM213.0 177.0H22.0V147.0H213.0ZM-313.0 158.0H-346.0V-57.0L-334.0 -21.0C-350.0 -26.0 -375.0 -36.0 -383.0 -43.0L-317.0 -90.0L-293.0 -60.0H-302.0V152.0ZM36.0 345.0H3.0V149.0L16.0 184.0C-1.0 180.0 -25.0 171.0 -35.0 163.0L31.0 115.0L55.0 148.0H46.0V341.0ZM175.0 177.0H184.0V-105.0H190.0C204.0 -105.0 226.0 -95.0 225.0 -89.0V143.0C244.0 144.0 258.0 151.0 262.0 158.0L202.0 205.0ZM-346.0 206.0V120.0C-317.0 120.0 -302.0 120.0 -302.0 120.0V177.0H-290.0Z"/></g>
<g fill="red" transform="translate(1200 200) scale(0.1 -0.1)"><path d="M0.0 0.0V-284.0H123.0V-50.0H134.0ZM-193.0 -50.0H-184.0V-284.0H-61.0V-91.0C-45.0 -87.0 -34.0 -81.0 -29.0 -75.0L-138.0 6.0ZM-57.0 108.0V337.0H-180.0V86.0H-158.0C-94.0 86.0 -57.0 104.0 -57.0 108.0ZM-102.0 165.0H-276.0V137.0H-102.0ZM-112.0 -50.0H-272.0V-78.0H-112.0ZM227.0 -50.0H62.0V-78.0H227.0ZM224.0 161.0H59.0V133.0H224.0ZM-240.0 149.0H-326.0V-64.0L-306.0 -27.0C-325.0 -33.0 -350.0 -53.0 -364.0 -68.0L-243.0 -132.0L-205.0 -78.0H-212.0V132.0ZM93.0 334.0H0.0V150.0L21.0 187.0C2.0 180.0 -24.0 159.0 -38.0 143.0L91.0 77.0L130.0 133.0H123.0V316.0ZM149.0 161.0H158.0V-125.0H177.0C214.0 -125.0 271.0 -105.0 272.0 -98.0V116.0C290.0 120.0 303.0 128.0 308.0 135.0L200.0 216.0ZM-326.0 215.0V105.0C-247.0 105.0 -212.0 105.0 -212.0 105.0V165.0H-205.0Z"/></g>
<g fill="black" opacity=".8" transform="translate(1200 200) scale(0.1 -0.1)"><path d="M0.0 0.0V-285.0H121.0V-51.0H135.0ZM-193.0 -51.0H-184.0V-284.0H-63.0V-91.0C-48.0 -87.0 -37.0 -81.0 -31.0 -74.0L-138.0 6.0ZM-59.0 108.0V341.0H-182.0V85.0H-160.0C-96.0 85.0 -60.0 103.0 -59.0 108.0ZM-105.0 163.0H-274.0V133.0H-105.0ZM-114.0 -52.0H-269.0V-80.0H-114.0ZM219.0 -51.0H55.0V-79.0H219.0ZM222.0 157.0H53.0V128.0H222.0ZM-245.0 143.0H-335.0V-62.0L-314.0 -26.0C-333.0 -32.0 -358.0 -52.0 -372.0 -68.0L-248.0 -133.0L-209.0 -77.0H-216.0V125.0ZM93.0 338.0H0.0V145.0L22.0 181.0C2.0 175.0 -23.0 155.0 -38.0 139.0L90.0 73.0L129.0 128.0H120.0V320.0ZM148.0 157.0H157.0V-123.0H177.0C213.0 -123.0 273.0 -102.0 274.0 -95.0V112.0C293.0 115.0 305.0 123.0 311.0 131.0L200.0 213.0ZM-335.0 211.0V100.0C-252.0 100.0 -216.0 100.0 -216.0 100.0V159.0H-209.0Z"/></g>
<g fill="red" transform="translate(1300 200) scale(0.1 -0.1)"><path d="M0.0 0.0V-306.0H44.0V-27.0H56.0ZM-158.0 -27.0H-148.0V-306.0H-104.0V-66.0C-84.0 -62.0 -67.0 -55.0 -60.0 -47.0L-127.0 6.0ZM-102.0 203.0V469.0H-146.0V186.0H-140.0C-117.0 186.0 -102.0 199.0 -102.0 203.0ZM-119.0 235.0H-277.0V205.0H-119.0ZM-118.0 -27.0H-276.0V-57.0H-118.0ZM185.0 -27.0H14.0V-57.0H185.0ZM189.0 234.0H18.0V204.0H189.0ZM-264.0 225.0H-298.0V-55.0L-285.0 -19.0C-302.0 -23.0 -326.0 -34.0 -336.0 -42.0L-269.0 -88.0L-245.0 -57.0H-254.0V219.0ZM35.0 467.0H1.0V206.0L14.0 241.0C-3.0 237.0 -27.0 227.0 -37.0 219.0L30.0 172.0L54.0 204.0H45.0V461.0ZM152.0 234.0H160.0V-102.0H166.0C181.0 -102.0 203.0 -89.0 204.0 -83.0V201.0C219.0 202.0 233.0 209.0 238.0 216.0L179.0 263.0ZM-298.0 264.0V176.0C-269.0 176.0 -254.0 176.0 -254.0 176.0V235.0H-242.0Z"/></g>
<g fill="black" opacity=".8" transform="translate(1300 200) scale(0.1 -0.1)"><path d="M0.0 0.0V-303.0H46.0V-29.0H59.0ZM-161.0 -27.0H-152.0V-304.0H-106.0V-66.0C-85.0 -62.0 -68.0 -56.0 -61.0 -48.0L-129.0 5.0ZM-100.0 198.0V464.0H-146.0V180.0H-141.0C-117.0 180.0 -100.0 193.0 -100.0 198.0ZM-121.0 236.0H-280.0V205.0H-121.0ZM-119.0 -25.0H-280.0V-57.0H-119.0ZM189.0 -29.0H15.0V-60.0H189.0ZM192.0 235.0H21.0V204.0H192.0ZM-267.0 224.0H-302.0V-56.0L-289.0 -18.0C-306.0 -23.0 -332.0 -34.0 -341.0 -42.0L-271.0 -90.0L-246.0 -59.0H-256.0V217.0ZM39.0 463.0H4.0V206.0L18.0 242.0C0.0 239.0 -26.0 229.0 -36.0 221.0L34.0 170.0L59.0 205.0H49.0V458.0ZM153.0 235.0H161.0V-104.0H167.0C182.0 -104.0 205.0 -93.0 205.0 -86.0V203.0C221.0 203.0 234.0 210.0 237.0 216.0L179.0 263.0ZM-302.0 267.0V177.0C-271.0 177.0 -256.0 177.0 -256.0 177.0V237.0H-243.0Z"/></g>
<g fill="red" transform="translate(1400 200) scale(0.1 -0.1)"><path d="M0.0 0.0V-339.0H114.0V-48.0H127.0ZM-165.0 -48.0H-157.0V-339.0H-45.0V-85.0C-32.0 -82.0 -22.0 -77.0 -18.0 -71.0L-115.0 2.0ZM-43.0 176.0V462.0H-158.0V153.0H-137.0C-78.0 153.0 -43.0 171.0 -43.0 176.0ZM-84.0 215.0H-211.0V187.0H-84.0ZM-88.0 -48.0H-215.0V-76.0H-88.0ZM170.0 -48.0H53.0V-76.0H170.0ZM175.0 215.0H44.0V187.0H175.0ZM-210.0 198.0H-297.0V-61.0L-277.0 -24.0C-296.0 -31.0 -321.0 -51.0 -335.0 -66.0L-213.0 -130.0L-175.0 -76.0H-182.0V181.0ZM86.0 461.0H2.0V202.0L21.0 238.0C3.0 232.0 -22.0 213.0 -36.0 198.0L83.0 135.0L120.0 187.0H113.0V445.0ZM125.0 215.0H134.0V-118.0H154.0C192.0 -118.0 250.0 -96.0 251.0 -89.0V173.0C267.0 176.0 278.0 184.0 283.0 190.0L177.0 270.0ZM-297.0 265.0V155.0C-218.0 155.0 -182.0 155.0 -182.0 155.0V215.0H-175.0Z"/></g>
<g fill="black" opacity=".8" transform="translate(1400 200) scale(0.1 -0.1)"><path d="M0.0 0.0V-338.0H115.0V-50.0H130.0ZM-165.0 -51.0H-157.0V-338.0H-42.0V-88.0C-30.0 -85.0 -19.0 -80.0 -14.0 -73.0L-114.0 2.0ZM-38.0 175.0V461.0H-157.0V151.0H-136.0C-74.0 151.0 -40.0 170.0 -38.0 175.0ZM-83.0 217.0H-210.0V185.0H-83.0ZM-79.0 -47.0H-209.0V-76.0H-79.0ZM172.0 -50.0H63.0V-79.0H172.0ZM175.0 218.0H50.0V189.0H175.0ZM-206.0 201.0H-291.0V-64.0L-272.0 -27.0C-291.0 -33.0 -316.0 -52.0 -332.0 -68.0L-209.0 -134.0L-170.0 -78.0H-178.0V184.0ZM88.0 460.0H1.0V204.0L21.0 242.0C1.0 236.0 -24.0 216.0 -40.0 201.0L84.0 134.0L123.0 189.0H114.0V443.0ZM124.0 218.0H134.0V-119.0H154.0C188.0 -119.0 246.0 -96.0 247.0 -89.0V176.0C264.0 179.0 275.0 186.0 281.0 194.0L176.0 272.0ZM-291.0 268.0V156.0C-213.0 156.0 -178.0 156.0 -178.0 156.0V218.0H-171.0Z"/></g>
<g fill="red" transform="translate(1500 200) scale(0.1 -0.1)"><path d="M0.0 0.0V-270.0H44.0V-27.0H56.0ZM-187.0 -27.0H-178.0V-270.0H-134.0V-63.0C-117.0 -60.0 -101.0 -53.0 -95.0 -46.0L-158.0 3.0ZM-129.0 161.0V393.0H-173.0V146.0H-167.0C-144.0 146.0 -129.0 158.0 -129.0 161.0ZM-160.0 -27.0H-331.0V-57.0H-160.0ZM-157.0 193.0H-324.0V163.0H-157.0ZM209.0 -27.0H23.0V-57.0H209.0ZM209.0 191.0H23.0V161.0H209.0ZM-315.0 170.0H-349.0V-55.0L-336.0 -18.0C-353.0 -23.0 -377.0 -33.0 -387.0 -42.0L-320.0 -88.0L-296.0 -57.0H-305.0V164.0ZM40.0 393.0H6.0V164.0L19.0 200.0C2.0 196.0 -22.0 185.0 -32.0 176.0L35.0 131.0L59.0 161.0H50.0V387.0ZM175.0 191.0H183.0V-79.0H189.0C203.0 -79.0 225.0 -69.0 226.0 -64.0V158.0C242.0 160.0 256.0 167.0 261.0 173.0L202.0 219.0ZM-349.0 222.0V134.0C-320.0 134.0 -305.0 134.0 -305.0 134.0V193.0H-293.0Z"/></g>
<g fill="black" opacity=".8" transform="translate(1500 200) scale(0.1 -0.1)"><path d="M0.0 0.0V-271.0H44.0V-27.0H56.0ZM-185.0 -28.0H-178.0V-270.0H-133.0V-63.0C-116.0 -60.0 -100.0 -54.0 -94.0 -47.0L-156.0 1.0ZM-128.0 162.0V394.0H-172.0V147.0H-166.0C-144.0 147.0 -128.0 159.0 -128.0 162.0ZM-157.0 -27.0H-329.0V-57.0H-157.0ZM-154.0 193.0H-322.0V164.0H-154.0ZM208.0 -27.0H23.0V-57.0H208.0ZM207.0 191.0H23.0V162.0H207.0ZM-314.0 169.0H-348.0V-55.0L-336.0 -19.0C-352.0 -24.0 -376.0 -34.0 -385.0 -42.0L-318.0 -88.0L-295.0 -58.0H-304.0V163.0ZM38.0 392.0H6.0V164.0L18.0 199.0C2.0 195.0 -23.0 185.0 -32.0 177.0L33.0 131.0L58.0 161.0H48.0V387.0ZM176.0 191.0H183.0V-77.0H189.0C203.0 -77.0 225.0 -68.0 225.0 -63.0V158.0C243.0 159.0 256.0 167.0 261.0 172.0L202.0 218.0ZM-348.0 222.0V136.0C-318.0 136.0 -304.0 136.0 -304.0 136.0V193.0H-292.0Z"/></g>
<g fill="red" transform="translate(1600 200) scale(0.1 -0.1)"><path d="M0.0 0.0V-292.0H123.0V-50.0H134.0ZM-193.0 -50.0H-184.0V-292.0H-61.0V-91.0C-45.0 -87.0 -34.0 -81.0 -29.0 -75.0L-138.0 6.0ZM-57.0 139.0V372.0H-180.0V116.0H-158.0C-94.0 116.0 -57.0 135.0 -57.0 139.0ZM-117.0 -50.0H-277.0V-78.0H-117.0ZM-70.0 185.0H-249.0V157.0H-70.0ZM242.0 -50.0H77.0V-78.0H242.0ZM228.0 181.0H49.0V153.0H228.0ZM-246.0 159.0H-332.0V-63.0L-312.0 -26.0C-331.0 -33.0 -356.0 -52.0 -370.0 -67.0L-249.0 -131.0L-211.0 -78.0H-218.0V142.0ZM93.0 372.0H0.0V169.0L21.0 206.0C2.0 199.0 -24.0 179.0 -38.0 163.0L91.0 96.0L130.0 153.0H123.0V354.0ZM155.0 181.0H164.0V-110.0H183.0C220.0 -110.0 277.0 -89.0 278.0 -83.0V136.0C296.0 140.0 309.0 148.0 314.0 155.0L206.0 236.0ZM-332.0 235.0V125.0C-253.0 125.0 -218.0 125.0 -218.0 125.0V185.0H-211.0Z"/></g>
<g fill="black" opacity=".8" transform="translate(1600 200) scale(0.1 -0.1)"><path d="M0.0 0.0V-293.0H123.0V-50.0H133.0ZM-193.0 -50.0H-185.0V-292.0H-63.0V-90.0C-48.0 -86.0 -38.0 -80.0 -32.0 -73.0L-139.0 6.0ZM-59.0 141.0V373.0H-181.0V118.0H-160.0C-95.0 118.0 -60.0 137.0 -59.0 141.0ZM-119.0 -49.0H-277.0V-78.0H-119.0ZM-76.0 185.0H-252.0V157.0H-76.0ZM239.0 -50.0H75.0V-77.0H239.0ZM228.0 181.0H49.0V153.0H228.0ZM-248.0 157.0H-334.0V-62.0L-314.0 -26.0C-333.0 -33.0 -357.0 -51.0 -372.0 -67.0L-250.0 -130.0L-213.0 -77.0H-220.0V140.0ZM93.0 373.0H0.0V169.0L21.0 205.0C2.0 198.0 -23.0 179.0 -38.0 163.0L91.0 97.0L130.0 153.0H122.0V355.0ZM156.0 181.0H165.0V-107.0H184.0C220.0 -107.0 278.0 -85.0 279.0 -80.0V137.0C298.0 139.0 309.0 148.0 315.0 155.0L207.0 236.0ZM-334.0 235.0V125.0C-254.0 125.0 -220.0 125.0 -220.0 125.0V184.0H-213.0Z"/></g>
<g fill="red" transform="translate(100 300) scale(0.1 -0.1)"><path d="M0.0 0.0V-288.0H44.0V-27.0H56.0ZM-146.0 -23.0H-136.0V-288.0H-92.0V-62.0C-72.0 -58.0 -55.0 -51.0 -48.0 -43.0L-115.0 10.0ZM-89.0 207.0V464.0H-133.0V190.0H-127.0C-104.0 190.0 -89.0 202.0 -89.0 207.0ZM-100.0 -23.0H-215.0V-53.0H-100.0ZM-100.0 260.0H-215.0V230.0H-100.0ZM135.0 -27.0H15.0V-57.0H135.0ZM138.0 258.0H9.0V228.0H138.0ZM-204.0 253.0H-238.0V-49.0L-225.0 -14.0C-242.0 -18.0 -266.0 -29.0 -276.0 -38.0L-209.0 -84.0L-185.0 -52.0H-194.0V247.0ZM39.0 469.0H5.0V231.0L18.0 266.0C1.0 262.0 -23.0 252.0 -33.0 243.0L34.0 197.0L58.0 229.0H49.0V463.0ZM99.0 258.0H107.0V-103.0H113.0C128.0 -103.0 150.0 -91.0 151.0 -84.0V225.0C166.0 226.0 180.0 233.0 185.0 240.0L126.0 287.0ZM-238.0 289.0V201.0C-209.0 201.0 -194.0 201.0 -194.0 201.0V260.0H-182.0Z"/></g>
<g fill="black" opacity=".8" transform="translate(100 300) scale(0.1 -0.1)"><path d="M0.0 0.0V-286.0H45.0V-27.0H57.0ZM-148.0 -24.0H-139.0V-286.0H-94.0V-64.0C-73.0 -59.0 -56.0 -53.0 -48.0 -45.0L-116.0 9.0ZM-90.0 207.0V463.0H-134.0V189.0H-129.0C-106.0 189.0 -90.0 201.0 -90.0 207.0ZM-101.0 -23.0H-215.0V-52.0H-101.0ZM-100.0 261.0H-215.0V230.0H-100.0ZM134.0 -27.0H13.0V-58.0H134.0ZM137.0 259.0H8.0V229.0H137.0ZM-204.0 252.0H-238.0V-51.0L-226.0 -15.0C-243.0 -19.0 -268.0 -31.0 -277.0 -39.0L-209.0 -86.0L-184.0 -54.0H-193.0V246.0ZM40.0 468.0H6.0V232.0L19.0 268.0C1.0 264.0 -24.0 254.0 -33.0 244.0L34.0 197.0L59.0 230.0H50.0V462.0ZM98.0 259.0H106.0V-103.0H112.0C127.0 -103.0 150.0 -91.0 149.0 -85.0V226.0C165.0 226.0 179.0 234.0 183.0 240.0L124.0 288.0ZM-238.0 290.0V202.0C-209.0 202.0 -193.0 202.0 -193.0 202.0V261.0H-181.0Z"/></g>
<g fill="red" transform="translate(200 300) scale(0.1 -0.1)"><path d="M0.0 0.0V-337.0H107.0V-46.0H120.0ZM-139.0 -44.0H-133.0V-335.0H-27.0V-75.0C-19.0 -73.0 -13.0 -69.0 -10.0 -65.0L-95.0 -1.0ZM-24.0 182.0V456.0H-128.0V160.0H-110.0C-56.0 160.0 -25.0 178.0 -24.0 182.0ZM-80.0 -44.0H-207.0V-72.0H-80.0ZM-76.0 239.0H-203.0V211.0H-76.0ZM152.0 -46.0H35.0V-74.0H152.0ZM157.0 241.0H26.0V213.0H157.0ZM-163.0 223.0H-233.0V-61.0L-215.0 -25.0C-233.0 -31.0 -258.0 -48.0 -270.0 -61.0L-166.0 -119.0L-133.0 -72.0H-140.0V209.0ZM85.0 458.0H6.0V228.0L28.0 263.0C13.0 257.0 -5.0 238.0 -15.0 225.0L89.0 175.0L116.0 213.0H110.0V443.0ZM116.0 241.0H123.0V-121.0H142.0C177.0 -121.0 230.0 -99.0 231.0 -92.0V207.0C242.0 209.0 250.0 214.0 253.0 219.0L162.0 287.0ZM-233.0 281.0V179.0C-169.0 179.0 -140.0 179.0 -140.0 179.0V239.0H-133.0Z"/></g>
<g fill="black" opacity=".8" transform="translate(200 300) scale(0.1 -0.1)"><path d="M0.0 0.0V-336.0H108.0V-47.0H122.0ZM-140.0 -45.0H-134.0V-334.0H-26.0V-76.0C-20.0 -74.0 -13.0 -70.0 -10.0 -66.0L-95.0 -1.0ZM-23.0 182.0V458.0H-129.0V159.0H-111.0C-56.0 159.0 -25.0 178.0 -23.0 182.0ZM-81.0 -44.0H-206.0V-74.0H-81.0ZM-75.0 238.0H-199.0V211.0H-75.0ZM149.0 -47.0H38.0V-75.0H149.0ZM155.0 241.0H28.0V212.0H155.0ZM-163.0 221.0H-235.0V-62.0L-216.0 -26.0C-234.0 -32.0 -260.0 -49.0 -272.0 -63.0L-166.0 -121.0L-132.0 -73.0H-140.0V207.0ZM86.0 459.0H6.0V228.0L28.0 263.0C12.0 257.0 -6.0 238.0 -17.0 225.0L89.0 174.0L118.0 212.0H110.0V444.0ZM115.0 241.0H122.0V-118.0H141.0C175.0 -118.0 229.0 -96.0 230.0 -88.0V207.0C241.0 209.0 249.0 213.0 253.0 219.0L161.0 286.0ZM-235.0 282.0V178.0C-169.0 178.0 -140.0 178.0 -140.0 178.0V238.0H-133.0Z"/></g>
<g fill="red" transform="translate(300 300) scale(0.1 -0.1)"><path d="M0.0 0.0V-306.0H44.0V-27.0H56.0ZM-172.0 -27.0H-162.0V-306.0H-118.0V-66.0C-98.0 -62.0 -81.0 -55.0 -74.0 -47.0L-141.0 6.0ZM-116.0 189.0V469.0H-160.0V173.0H-154.0C-131.0 173.0 -116.0 185.0 -116.0 189.0ZM-126.0 -27.0H-293.0V-57.0H-126.0ZM-124.0 256.0H-291.0V226.0H-124.0ZM186.0 -27.0H15.0V-57.0H186.0ZM187.0 255.0H16.0V225.0H187.0ZM-285.0 225.0H-319.0V-55.0L-306.0 -19.0C-323.0 -23.0 -347.0 -34.0 -357.0 -42.0L-290.0 -88.0L-266.0 -57.0H-275.0V219.0ZM38.0 466.0H4.0V228.0L17.0 263.0C0.0 259.0 -24.0 249.0 -34.0 240.0L33.0 194.0L57.0 226.0H48.0V460.0ZM150.0 255.0H158.0V-98.0H164.0C179.0 -98.0 201.0 -85.0 202.0 -79.0V222.0C217.0 223.0 231.0 230.0 236.0 237.0L177.0 284.0ZM-319.0 285.0V197.0C-290.0 197.0 -275.0 197.0 -275.0 197.0V256.0H-263.0Z"/></g>
<g fill="black" opacity=".8" transform="translate(300 300) scale(0.1 -0.1)"><path d="M0.0 0.0V-308.0H43.0V-27.0H55.0ZM-168.0 -25.0H-159.0V-308.0H-116.0V-62.0C-96.0 -58.0 -80.0 -52.0 -73.0 -45.0L-138.0 7.0ZM-112.0 189.0V473.0H-155.0V174.0H-150.0C-128.0 174.0 -112.0 185.0 -112.0 189.0ZM-127.0 -27.0H-296.0V-56.0H-127.0ZM-127.0 255.0H-296.0V225.0H-127.0ZM191.0 -27.0H18.0V-56.0H191.0ZM192.0 252.0H19.0V223.0H192.0ZM-287.0 231.0H-320.0V-52.0L-309.0 -17.0C-325.0 -21.0 -348.0 -31.0 -358.0 -39.0L-292.0 -85.0L-268.0 -55.0H-277.0V225.0ZM37.0 471.0H4.0V225.0L17.0 259.0C-0.0 256.0 -24.0 246.0 -33.0 238.0L32.0 192.0L56.0 224.0H46.0V466.0ZM154.0 252.0H161.0V-98.0H167.0C181.0 -98.0 203.0 -87.0 203.0 -81.0V219.0C220.0 220.0 233.0 227.0 237.0 233.0L179.0 280.0ZM-320.0 281.0V196.0C-292.0 196.0 -277.0 196.0 -277.0 196.0V252.0H-265.0Z"/></g>
<g fill="red" transform="translate(400 300) scale(0.1 -0.1)"><path d="M0.0 0.0V-342.0H123.0V-51.0H136.0ZM-182.0 -51.0H-174.0V-342.0H-53.0V-89.0C-39.0 -86.0 -30.0 -80.0 -26.0 -75.0L-129.0 2.0ZM-50.0 156.0V455.0H-174.0V132.0H-151.0C-88.0 132.0 -51.0 152.0 -50.0 156.0ZM-106.0 -51.0H-233.0V-79.0H-106.0ZM-102.0 223.0H-229.0V195.0H-102.0ZM176.0 -51.0H59.0V-79.0H176.0ZM181.0 223.0H50.0V195.0H181.0ZM-226.0 191.0H-316.0V-63.0L-296.0 -26.0C-314.0 -33.0 -340.0 -53.0 -354.0 -69.0L-228.0 -134.0L-190.0 -79.0H-197.0V173.0ZM92.0 451.0H1.0V211.0L21.0 248.0C3.0 241.0 -23.0 221.0 -37.0 205.0L90.0 139.0L129.0 195.0H122.0V433.0ZM133.0 223.0H142.0V-114.0H163.0C201.0 -114.0 260.0 -92.0 261.0 -85.0V181.0C277.0 184.0 288.0 191.0 293.0 198.0L186.0 278.0ZM-316.0 274.0V163.0C-233.0 163.0 -197.0 163.0 -197.0 163.0V223.0H-189.0Z"/></g>
<g fill="black" opacity=".8" transform="translate(400 300) scale(0.1 -0.1)"><path d="M0.0 0.0V-345.0H119.0V-50.0H135.0ZM-177.0 -51.0H-170.0V-345.0H-51.0V-89.0C-37.0 -87.0 -27.0 -80.0 -21.0 -73.0L-124.0 5.0ZM-48.0 155.0V449.0H-168.0V131.0H-147.0C-84.0 131.0 -49.0 151.0 -48.0 155.0ZM-102.0 -50.0H-236.0V-79.0H-102.0ZM-96.0 225.0H-234.0V198.0H-96.0ZM186.0 -50.0H57.0V-78.0H186.0ZM190.0 224.0H48.0V195.0H190.0ZM-223.0 200.0H-309.0V-62.0L-290.0 -27.0C-307.0 -33.0 -332.0 -52.0 -346.0 -68.0L-225.0 -131.0L-187.0 -77.0H-195.0V183.0ZM91.0 447.0H2.0V211.0L22.0 247.0C4.0 241.0 -19.0 221.0 -34.0 205.0L90.0 143.0L127.0 195.0H119.0V429.0ZM135.0 224.0H143.0V-128.0H164.0C202.0 -128.0 260.0 -106.0 261.0 -98.0V182.0C278.0 184.0 287.0 191.0 293.0 199.0L187.0 277.0ZM-309.0 274.0V165.0C-229.0 165.0 -195.0 165.0 -195.0 165.0V224.0H-187.0Z"/></g>
</svg>
