<?xml version="1.0" encoding="UTF-8"?>
<svg width="1700" height="300" xmlns="http://www.w3.org/2000/svg">
<rect width="100%" height="100%" fill="white"/>
<g fill="green" transform="translate(100 100) scale(0.1 -0.1)"><path d="M0.0 0.0 -71.0 9.0V-226.0H-30.0V-23.0C-11.0 -20.0 -2.0 -12.0 0.0 0.0ZM123.0 51.0V321.0H80.0V51.0H86.0C108.0 51.0 123.0 51.0 123.0 51.0ZM302.0 0.0 233.0 9.0V-226.0H274.0V-22.0C293.0 -19.0 301.0 -11.0 302.0 0.0ZM294.0 -299.0 261.0 -340.0H-142.0L-134.0 -370.0H334.0C347.0 -370.0 356.0 -365.0 358.0 -354.0C334.0 -329.0 294.0 -299.0 294.0 -299.0ZM356.0 -174.0 325.0 -212.0H-189.0L-181.0 -242.0H389.0C403.0 -242.0 411.0 -237.0 414.0 -226.0C391.0 -203.0 356.0 -174.0 356.0 -174.0ZM313.0 68.0H-113.0V38.0H313.0ZM317.0 197.0H-109.0V167.0H317.0ZM156.0 18.0 79.0 27.0V-533.0H88.0C105.0 -533.0 123.0 -521.0 123.0 -513.0V-7.0C145.0 -4.0 154.0 5.0 156.0 18.0ZM-136.0 350.0V0.0H-130.0C-109.0 0.0 -94.0 13.0 -94.0 17.0V295.0H296.0V18.0H301.0C319.0 18.0 338.0 30.0 338.0 34.0V292.0C357.0 295.0 366.0 301.0 373.0 308.0L315.0 354.0L293.0 325.0H-83.0ZM-488.0 -151.0 -471.0 -204.0C-366.0 -185.0 -259.0 -162.0 -202.0 -150.0L-204.0 -132.0C-321.0 -142.0 -437.0 -150.0 -488.0 -151.0ZM-487.0 79.0 -467.0 24.0C-396.0 36.0 -319.0 53.0 -283.0 62.0L-284.0 79.0C-363.0 77.0 -447.0 77.0 -487.0 79.0ZM-249.0 334.0 -325.0 372.0C-352.0 297.0 -422.0 155.0 -480.0 91.0C-486.0 87.0 -502.0 83.0 -502.0 83.0L-474.0 10.0C-458.0 15.0 -442.0 36.0 -436.0 73.0H-469.0L-467.0 62.0C-397.0 136.0 -317.0 256.0 -279.0 333.0L-305.0 325.0C-274.0 312.0 -255.0 323.0 -249.0 334.0ZM-167.0 153.0 -238.0 201.0C-282.0 110.0 -392.0 -57.0 -478.0 -137.0C-485.0 -142.0 -503.0 -145.0 -503.0 -145.0L-475.0 -219.0C-460.0 -214.0 -443.0 -193.0 -437.0 -157.0H-470.0L-468.0 -167.0C-366.0 -78.0 -249.0 68.0 -196.0 157.0L-223.0 150.0C-195.0 134.0 -174.0 142.0 -167.0 153.0ZM-347.0 -247.0 -363.0 -251.0C-350.0 -300.0 -342.0 -377.0 -352.0 -436.0C-314.0 -482.0 -260.0 -379.0 -347.0 -247.0ZM-258.0 -229.0 -272.0 -235.0C-248.0 -276.0 -222.0 -345.0 -222.0 -396.0C-180.0 -438.0 -134.0 -336.0 -258.0 -229.0ZM-427.0 -267.0H-446.0C-444.0 -337.0 -472.0 -413.0 -503.0 -443.0C-517.0 -457.0 -524.0 -475.0 -514.0 -488.0C-501.0 -501.0 -474.0 -489.0 -458.0 -469.0C-433.0 -438.0 -408.0 -367.0 -427.0 -267.0Z"/></g>
<g fill="green" transform="translate(200 100) scale(0.1 -0.1)"><path d="M0.0 0.0 -131.0 12.0V-264.0H-26.0V-21.0C-8.0 -18.0 -2.0 -11.0 0.0 0.0ZM136.0 61.0V335.0H16.0V61.0H38.0C99.0 61.0 135.0 61.0 136.0 61.0ZM315.0 0.0 186.0 12.0V-264.0H290.0V-20.0C308.0 -17.0 313.0 -10.0 315.0 0.0ZM284.0 -286.0 233.0 -356.0H-162.0L-154.0 -384.0H351.0C364.0 -384.0 374.0 -379.0 377.0 -368.0C343.0 -334.0 284.0 -286.0 284.0 -286.0ZM331.0 -169.0 287.0 -242.0H-216.0L-208.0 -270.0H382.0C395.0 -270.0 405.0 -265.0 407.0 -254.0C381.0 -221.0 331.0 -169.0 331.0 -169.0ZM260.0 81.0H-101.0V53.0H260.0ZM260.0 209.0H-101.0V181.0H260.0ZM172.0 21.0 19.0 35.0V-556.0H41.0C86.0 -556.0 139.0 -532.0 139.0 -522.0V-5.0C163.0 -1.0 170.0 8.0 172.0 21.0ZM-162.0 384.0V3.0H-141.0C-80.0 3.0 -43.0 23.0 -43.0 31.0V307.0H198.0V23.0H220.0C284.0 23.0 323.0 44.0 323.0 49.0V299.0C345.0 303.0 355.0 309.0 361.0 318.0L252.0 400.0L195.0 335.0H-33.0ZM-530.0 -122.0 -492.0 -239.0C-378.0 -193.0 -278.0 -143.0 -228.0 -117.0L-229.0 -105.0C-353.0 -114.0 -477.0 -121.0 -530.0 -122.0ZM-512.0 133.0 -466.0 18.0C-374.0 57.0 -293.0 99.0 -254.0 121.0L-255.0 133.0C-358.0 131.0 -465.0 131.0 -512.0 133.0ZM-243.0 334.0 -398.0 408.0C-410.0 331.0 -462.0 189.0 -502.0 144.0C-511.0 137.0 -533.0 132.0 -533.0 132.0L-477.0 -1.0C-451.0 11.0 -431.0 50.0 -427.0 116.0H-486.0V104.0C-413.0 153.0 -317.0 258.0 -269.0 331.0L-301.0 325.0C-268.0 313.0 -249.0 322.0 -243.0 334.0ZM-144.0 135.0 -279.0 229.0C-314.0 131.0 -427.0 -45.0 -506.0 -104.0C-517.0 -111.0 -543.0 -117.0 -543.0 -117.0L-500.0 -252.0C-471.0 -242.0 -446.0 -204.0 -439.0 -134.0H-494.0L-493.0 -146.0C-379.0 -80.0 -233.0 55.0 -173.0 139.0L-204.0 134.0C-173.0 117.0 -151.0 124.0 -144.0 135.0ZM-390.0 -243.0 -403.0 -246.0C-390.0 -305.0 -383.0 -384.0 -394.0 -452.0C-320.0 -543.0 -205.0 -380.0 -390.0 -243.0ZM-308.0 -224.0 -319.0 -229.0C-292.0 -273.0 -266.0 -340.0 -266.0 -396.0C-186.0 -470.0 -91.0 -304.0 -308.0 -224.0ZM-452.0 -253.0H-465.0C-461.0 -305.0 -497.0 -365.0 -521.0 -389.0C-552.0 -411.0 -568.0 -445.0 -550.0 -481.0C-529.0 -520.0 -469.0 -523.0 -445.0 -491.0C-413.0 -447.0 -409.0 -363.0 -452.0 -253.0Z"/></g>
<g fill="green" transform="translate(300 100) scale(0.1 -0.1)"><path d="M0.0 0.0 -71.0 9.0V-226.0H-30.0V-23.0C-11.0 -20.0 -2.0 -12.0 0.0 0.0ZM123.0 51.0V321.0H80.0V51.0H86.0C108.0 51.0 123.0 51.0 123.0 51.0ZM302.0 0.0 233.0 9.0V-226.0H274.0V-22.0C293.0 -19.0 301.0 -11.0 302.0 0.0ZM294.0 -299.0 261.0 -340.0H-142.0L-134.0 -370.0H334.0C347.0 -370.0 356.0 -365.0 358.0 -354.0C334.0 -329.0 294.0 -299.0 294.0 -299.0ZM356.0 -174.0 325.0 -212.0H-189.0L-181.0 -242.0H389.0C403.0 -242.0 411.0 -237.0 414.0 -226.0C391.0 -203.0 356.0 -174.0 356.0 -174.0ZM313.0 68.0H-113.0V38.0H313.0ZM317.0 197.0H-109.0V167.0H317.0ZM156.0 18.0 79.0 27.0V-533.0H88.0C105.0 -533.0 123.0 -521.0 123.0 -513.0V-7.0C145.0 -4.0 154.0 5.0 156.0 18.0ZM-136.0 350.0V0.0H-130.0C-109.0 0.0 -94.0 13.0 -94.0 17.0V295.0H296.0V18.0H301.0C319.0 18.0 338.0 30.0 338.0 34.0V292.0C357.0 295.0 366.0 301.0 373.0 308.0L315.0 354.0L293.0 325.0H-83.0ZM-488.0 -151.0 -471.0 -204.0C-366.0 -185.0 -259.0 -162.0 -202.0 -150.0L-204.0 -132.0C-321.0 -142.0 -437.0 -150.0 -488.0 -151.0ZM-487.0 79.0 -467.0 24.0C-396.0 36.0 -319.0 53.0 -283.0 62.0L-284.0 79.0C-363.0 77.0 -447.0 77.0 -487.0 79.0ZM-249.0 334.0 -325.0 372.0C-352.0 297.0 -422.0 155.0 -480.0 91.0C-486.0 87.0 -502.0 83.0 -502.0 83.0L-474.0 10.0C-458.0 15.0 -442.0 36.0 -436.0 73.0H-469.0L-467.0 62.0C-397.0 136.0 -317.0 256.0 -279.0 333.0L-305.0 325.0C-274.0 312.0 -255.0 323.0 -249.0 334.0ZM-167.0 153.0 -238.0 201.0C-282.0 110.0 -392.0 -57.0 -478.0 -137.0C-485.0 -142.0 -503.0 -145.0 -503.0 -145.0L-475.0 -219.0C-460.0 -214.0 -443.0 -193.0 -437.0 -157.0H-470.0L-468.0 -167.0C-366.0 -78.0 -249.0 68.0 -196.0 157.0L-223.0 150.0C-195.0 134.0 -174.0 142.0 -167.0 153.0ZM-347.0 -247.0 -363.0 -251.0C-350.0 -300.0 -342.0 -377.0 -352.0 -436.0C-314.0 -482.0 -260.0 -379.0 -347.0 -247.0ZM-258.0 -229.0 -272.0 -235.0C-248.0 -276.0 -222.0 -345.0 -222.0 -396.0C-180.0 -438.0 -134.0 -336.0 -258.0 -229.0ZM-427.0 -267.0H-446.0C-444.0 -337.0 -472.0 -413.0 -503.0 -443.0C-517.0 -457.0 -524.0 -475.0 -514.0 -488.0C-501.0 -501.0 -474.0 -489.0 -458.0 -469.0C-433.0 -438.0 -408.0 -367.0 -427.0 -267.0Z"/></g>
<g fill="green" transform="translate(400 100) scale(0.1 -0.1)"><path d="M0.0 0.0 -131.0 12.0V-264.0H-26.0V-21.0C-8.0 -18.0 -2.0 -11.0 0.0 0.0ZM136.0 61.0V335.0H16.0V61.0H38.0C99.0 61.0 135.0 61.0 136.0 61.0ZM315.0 0.0 186.0 12.0V-264.0H290.0V-20.0C308.0 -17.0 313.0 -10.0 315.0 0.0ZM284.0 -286.0 233.0 -356.0H-162.0L-154.0 -384.0H351.0C364.0 -384.0 374.0 -379.0 377.0 -368.0C343.0 -334.0 284.0 -286.0 284.0 -286.0ZM331.0 -169.0 287.0 -242.0H-216.0L-208.0 -270.0H382.0C395.0 -270.0 405.0 -265.0 407.0 -254.0C381.0 -221.0 331.0 -169.0 331.0 -169.0ZM260.0 81.0H-101.0V53.0H260.0ZM260.0 209.0H-101.0V181.0H260.0ZM172.0 21.0 19.0 35.0V-556.0H41.0C86.0 -556.0 139.0 -532.0 139.0 -522.0V-5.0C163.0 -1.0 170.0 8.0 172.0 21.0ZM-162.0 384.0V3.0H-141.0C-80.0 3.0 -43.0 23.0 -43.0 31.0V307.0H198.0V23.0H220.0C284.0 23.0 323.0 44.0 323.0 49.0V299.0C345.0 303.0 355.0 309.0 361.0 318.0L252.0 400.0L195.0 335.0H-33.0ZM-530.0 -122.0 -492.0 -239.0C-378.0 -193.0 -278.0 -143.0 -228.0 -117.0L-229.0 -105.0C-353.0 -114.0 -477.0 -121.0 -530.0 -122.0ZM-512.0 133.0 -466.0 18.0C-374.0 57.0 -293.0 99.0 -254.0 121.0L-255.0 133.0C-358.0 131.0 -465.0 131.0 -512.0 133.0ZM-243.0 334.0 -398.0 408.0C-410.0 331.0 -462.0 189.0 -502.0 144.0C-511.0 137.0 -533.0 132.0 -533.0 132.0L-477.0 -1.0C-451.0 11.0 -431.0 50.0 -427.0 116.0H-486.0V104.0C-413.0 153.0 -317.0 258.0 -269.0 331.0L-301.0 325.0C-268.0 313.0 -249.0 322.0 -243.0 334.0ZM-144.0 135.0 -279.0 229.0C-314.0 131.0 -427.0 -45.0 -506.0 -104.0C-517.0 -111.0 -543.0 -117.0 -543.0 -117.0L-500.0 -252.0C-471.0 -242.0 -446.0 -204.0 -439.0 -134.0H-494.0L-493.0 -146.0C-379.0 -80.0 -233.0 55.0 -173.0 139.0L-204.0 134.0C-173.0 117.0 -151.0 124.0 -144.0 135.0ZM-390.0 -243.0 -403.0 -246.0C-390.0 -305.0 -383.0 -384.0 -394.0 -452.0C-320.0 -543.0 -205.0 -380.0 -390.0 -243.0ZM-308.0 -224.0 -319.0 -229.0C-292.0 -273.0 -266.0 -340.0 -266.0 -396.0C-186.0 -470.0 -91.0 -304.0 -308.0 -224.0ZM-452.0 -253.0H-465.0C-461.0 -305.0 -497.0 -365.0 -521.0 -389.0C-552.0 -411.0 -568.0 -445.0 -550.0 -481.0C-529.0 -520.0 -469.0 -523.0 -445.0 -491.0C-413.0 -447.0 -409.0 -363.0 -452.0 -253.0Z"/></g>
<g fill="red" transform="translate(100 200) scale(0.1 -0.1)"><path d="M0.0 0.0 -71.0 9.0V-226.0H-30.0V-23.0C-11.0 -20.0 -2.0 -12.0 0.0 0.0ZM123.0 51.0V321.0H80.0V51.0H86.0C108.0 51.0 123.0 51.0 123.0 51.0ZM302.0 0.0 233.0 9.0V-226.0H274.0V-22.0C293.0 -19.0 301.0 -11.0 302.0 0.0ZM294.0 -299.0 261.0 -340.0H-142.0L-134.0 -370.0H334.0C347.0 -370.0 356.0 -365.0 358.0 -354.0C334.0 -329.0 294.0 -299.0 294.0 -299.0ZM356.0 -174.0 325.0 -212.0H-189.0L-181.0 -242.0H389.0C403.0 -242.0 411.0 -237.0 414.0 -226.0C391.0 -203.0 356.0 -174.0 356.0 -174.0ZM313.0 68.0H-113.0V38.0H313.0ZM317.0 197.0H-109.0V167.0H317.0ZM156.0 18.0 79.0 27.0V-533.0H88.0C105.0 -533.0 123.0 -521.0 123.0 -513.0V-7.0C145.0 -4.0 154.0 5.0 156.0 18.0ZM-136.0 350.0V0.0H-130.0C-109.0 0.0 -94.0 13.0 -94.0 17.0V295.0H296.0V18.0H301.0C319.0 18.0 338.0 30.0 338.0 34.0V292.0C357.0 295.0 366.0 301.0 373.0 308.0L315.0 354.0L293.0 325.0H-83.0ZM-488.0 -151.0 -471.0 -204.0C-366.0 -185.0 -259.0 -162.0 -202.0 -150.0L-204.0 -132.0C-321.0 -142.0 -437.0 -150.0 -488.0 -151.0ZM-487.0 79.0 -467.0 24.0C-396.0 36.0 -319.0 53.0 -283.0 62.0L-284.0 79.0C-363.0 77.0 -447.0 77.0 -487.0 79.0ZM-249.0 334.0 -325.0 372.0C-352.0 297.0 -422.0 155.0 -480.0 91.0C-486.0 87.0 -502.0 83.0 -502.0 83.0L-474.0 10.0C-458.0 15.0 -442.0 36.0 -436.0 73.0H-469.0L-467.0 62.0C-397.0 136.0 -317.0 256.0 -279.0 333.0L-305.0 325.0C-274.0 312.0 -255.0 323.0 -249.0 334.0ZM-167.0 153.0 -238.0 201.0C-282.0 110.0 -392.0 -57.0 -478.0 -137.0C-485.0 -142.0 -503.0 -145.0 -503.0 -145.0L-475.0 -219.0C-460.0 -214.0 -443.0 -193.0 -437.0 -157.0H-470.0L-468.0 -167.0C-366.0 -78.0 -249.0 68.0 -196.0 157.0L-223.0 150.0C-195.0 134.0 -174.0 142.0 -167.0 153.0ZM-347.0 -247.0 -363.0 -251.0C-350.0 -300.0 -342.0 -377.0 -352.0 -436.0C-314.0 -482.0 -260.0 -379.0 -347.0 -247.0ZM-258.0 -229.0 -272.0 -235.0C-248.0 -276.0 -222.0 -345.0 -222.0 -396.0C-180.0 -438.0 -134.0 -336.0 -258.0 -229.0ZM-427.0 -267.0H-446.0C-444.0 -337.0 -472.0 -413.0 -503.0 -443.0C-517.0 -457.0 -524.0 -475.0 -514.0 -488.0C-501.0 -501.0 -474.0 -489.0 -458.0 -469.0C-433.0 -438.0 -408.0 -367.0 -427.0 -267.0Z"/></g>
<g fill="black" opacity=".8" transform="translate(100 200) scale(0.1 -0.1)"><path d="M0.0 0.0 -71.0 9.0V-226.0H-30.0V-23.0C-11.0 -20.0 -2.0 -12.0 0.0 0.0ZM123.0 51.0V321.0H80.0V51.0H86.0C108.0 51.0 123.0 51.0 123.0 51.0ZM302.0 0.0 233.0 9.0V-226.0H274.0V-22.0C293.0 -19.0 301.0 -11.0 302.0 0.0ZM294.0 -299.0 261.0 -340.0H-142.0L-134.0 -370.0H334.0C347.0 -370.0 356.0 -365.0 358.0 -354.0C334.0 -329.0 294.0 -299.0 294.0 -299.0ZM356.0 -174.0 325.0 -212.0H-189.0L-181.0 -242.0H389.0C403.0 -242.0 411.0 -237.0 414.0 -226.0C391.0 -203.0 356.0 -174.0 356.0 -174.0ZM313.0 68.0H-113.0V38.0H313.0ZM317.0 197.0H-109.0V167.0H317.0ZM156.0 18.0 79.0 27.0V-533.0H88.0C105.0 -533.0 123.0 -521.0 123.0 -513.0V-7.0C145.0 -4.0 154.0 5.0 156.0 18.0ZM-136.0 350.0V0.0H-130.0C-109.0 0.0 -94.0 13.0 -94.0 17.0V295.0H296.0V18.0H301.0C319.0 18.0 338.0 30.0 338.0 34.0V292.0C357.0 295.0 366.0 301.0 373.0 308.0L315.0 354.0L293.0 325.0H-83.0ZM-488.0 -151.0 -471.0 -204.0C-366.0 -185.0 -259.0 -162.0 -202.0 -150.0L-204.0 -132.0C-321.0 -142.0 -437.0 -150.0 -488.0 -151.0ZM-487.0 79.0 -467.0 24.0C-396.0 36.0 -319.0 53.0 -283.0 62.0L-284.0 79.0C-363.0 77.0 -447.0 77.0 -487.0 79.0ZM-249.0 334.0 -325.0 372.0C-352.0 297.0 -422.0 155.0 -480.0 91.0C-486.0 87.0 -502.0 83.0 -502.0 83.0L-474.0 10.0C-458.0 15.0 -442.0 36.0 -436.0 73.0H-469.0L-467.0 62.0C-397.0 136.0 -317.0 256.0 -279.0 333.0L-305.0 325.0C-274.0 312.0 -255.0 323.0 -249.0 334.0ZM-167.0 153.0 -238.0 201.0C-282.0 110.0 -392.0 -57.0 -478.0 -137.0C-485.0 -142.0 -503.0 -145.0 -503.0 -145.0L-475.0 -219.0C-460.0 -214.0 -443.0 -193.0 -437.0 -157.0H-470.0L-468.0 -167.0C-366.0 -78.0 -249.0 68.0 -196.0 157.0L-223.0 150.0C-195.0 134.0 -174.0 142.0 -167.0 153.0ZM-347.0 -247.0 -363.0 -251.0C-350.0 -300.0 -342.0 -377.0 -352.0 -436.0C-314.0 -482.0 -260.0 -379.0 -347.0 -247.0ZM-258.0 -229.0 -272.0 -235.0C-248.0 -276.0 -222.0 -345.0 -222.0 -396.0C-180.0 -438.0 -134.0 -336.0 -258.0 -229.0ZM-427.0 -267.0H-446.0C-444.0 -337.0 -472.0 -413.0 -503.0 -443.0C-517.0 -457.0 -524.0 -475.0 -514.0 -488.0C-501.0 -501.0 -474.0 -489.0 -458.0 -469.0C-433.0 -438.0 -408.0 -367.0 -427.0 -267.0Z"/></g>
<g fill="red" transform="translate(200 200) scale(0.1 -0.1)"><path d="M0.0 0.0 -131.0 12.0V-264.0H-26.0V-21.0C-8.0 -18.0 -2.0 -11.0 0.0 0.0ZM136.0 61.0V335.0H16.0V61.0H38.0C99.0 61.0 135.0 61.0 136.0 61.0ZM315.0 0.0 186.0 12.0V-264.0H290.0V-20.0C308.0 -17.0 313.0 -10.0 315.0 0.0ZM284.0 -286.0 233.0 -356.0H-162.0L-154.0 -384.0H351.0C364.0 -384.0 374.0 -379.0 377.0 -368.0C343.0 -334.0 284.0 -286.0 284.0 -286.0ZM331.0 -169.0 287.0 -242.0H-216.0L-208.0 -270.0H382.0C395.0 -270.0 405.0 -265.0 407.0 -254.0C381.0 -221.0 331.0 -169.0 331.0 -169.0ZM260.0 81.0H-101.0V53.0H260.0ZM260.0 209.0H-101.0V181.0H260.0ZM172.0 21.0 19.0 35.0V-556.0H41.0C86.0 -556.0 139.0 -532.0 139.0 -522.0V-5.0C163.0 -1.0 170.0 8.0 172.0 21.0ZM-162.0 384.0V3.0H-141.0C-80.0 3.0 -43.0 23.0 -43.0 31.0V307.0H198.0V23.0H220.0C284.0 23.0 323.0 44.0 323.0 49.0V299.0C345.0 303.0 355.0 309.0 361.0 318.0L252.0 400.0L195.0 335.0H-33.0ZM-530.0 -122.0 -492.0 -239.0C-378.0 -193.0 -278.0 -143.0 -228.0 -117.0L-229.0 -105.0C-353.0 -114.0 -477.0 -121.0 -530.0 -122.0ZM-512.0 133.0 -466.0 18.0C-374.0 57.0 -293.0 99.0 -254.0 121.0L-255.0 133.0C-358.0 131.0 -465.0 131.0 -512.0 133.0ZM-243.0 334.0 -398.0 408.0C-410.0 331.0 -462.0 189.0 -502.0 144.0C-511.0 137.0 -533.0 132.0 -533.0 132.0L-477.0 -1.0C-451.0 11.0 -431.0 50.0 -427.0 116.0H-486.0V104.0C-413.0 153.0 -317.0 258.0 -269.0 331.0L-301.0 325.0C-268.0 313.0 -249.0 322.0 -243.0 334.0ZM-144.0 135.0 -279.0 229.0C-314.0 131.0 -427.0 -45.0 -506.0 -104.0C-517.0 -111.0 -543.0 -117.0 -543.0 -117.0L-500.0 -252.0C-471.0 -242.0 -446.0 -204.0 -439.0 -134.0H-494.0L-493.0 -146.0C-379.0 -80.0 -233.0 55.0 -173.0 139.0L-204.0 134.0C-173.0 117.0 -151.0 124.0 -144.0 135.0ZM-390.0 -243.0 -403.0 -246.0C-390.0 -305.0 -383.0 -384.0 -394.0 -452.0C-320.0 -543.0 -205.0 -380.0 -390.0 -243.0ZM-308.0 -224.0 -319.0 -229.0C-292.0 -273.0 -266.0 -340.0 -266.0 -396.0C-186.0 -470.0 -91.0 -304.0 -308.0 -224.0ZM-452.0 -253.0H-465.0C-461.0 -305.0 -497.0 -365.0 -521.0 -389.0C-552.0 -411.0 -568.0 -445.0 -550.0 -481.0C-529.0 -520.0 -469.0 -523.0 -445.0 -491.0C-413.0 -447.0 -409.0 -363.0 -452.0 -253.0Z"/></g>
<g fill="black" opacity=".8" transform="translate(200 200) scale(0.1 -0.1)"><path d="M0.0 0.0 -131.0 12.0V-264.0H-26.0V-21.0C-8.0 -18.0 -2.0 -11.0 0.0 0.0ZM136.0 61.0V335.0H16.0V61.0H38.0C99.0 61.0 135.0 61.0 136.0 61.0ZM315.0 0.0 186.0 12.0V-264.0H290.0V-20.0C308.0 -17.0 313.0 -10.0 315.0 0.0ZM284.0 -286.0 233.0 -356.0H-162.0L-154.0 -384.0H351.0C364.0 -384.0 374.0 -379.0 377.0 -368.0C343.0 -334.0 284.0 -286.0 284.0 -286.0ZM331.0 -169.0 287.0 -242.0H-216.0L-208.0 -270.0H382.0C395.0 -270.0 405.0 -265.0 407.0 -254.0C381.0 -221.0 331.0 -169.0 331.0 -169.0ZM260.0 81.0H-101.0V53.0H260.0ZM260.0 209.0H-101.0V181.0H260.0ZM172.0 21.0 19.0 35.0V-556.0H41.0C86.0 -556.0 139.0 -532.0 139.0 -522.0V-5.0C163.0 -1.0 170.0 8.0 172.0 21.0ZM-162.0 384.0V3.0H-141.0C-80.0 3.0 -43.0 23.0 -43.0 31.0V307.0H198.0V23.0H220.0C284.0 23.0 323.0 44.0 323.0 49.0V299.0C345.0 303.0 355.0 309.0 361.0 318.0L252.0 400.0L195.0 335.0H-33.0ZM-530.0 -122.0 -492.0 -239.0C-378.0 -193.0 -278.0 -143.0 -228.0 -117.0L-229.0 -105.0C-353.0 -114.0 -477.0 -121.0 -530.0 -122.0ZM-512.0 133.0 -466.0 18.0C-374.0 57.0 -293.0 99.0 -254.0 121.0L-255.0 133.0C-358.0 131.0 -465.0 131.0 -512.0 133.0ZM-243.0 334.0 -398.0 408.0C-410.0 331.0 -462.0 189.0 -502.0 144.0C-511.0 137.0 -533.0 132.0 -533.0 132.0L-477.0 -1.0C-451.0 11.0 -431.0 50.0 -427.0 116.0H-486.0V104.0C-413.0 153.0 -317.0 258.0 -269.0 331.0L-301.0 325.0C-268.0 313.0 -249.0 322.0 -243.0 334.0ZM-144.0 135.0 -279.0 229.0C-314.0 131.0 -427.0 -45.0 -506.0 -104.0C-517.0 -111.0 -543.0 -117.0 -543.0 -117.0L-500.0 -252.0C-471.0 -242.0 -446.0 -204.0 -439.0 -134.0H-494.0L-493.0 -146.0C-379.0 -80.0 -233.0 55.0 -173.0 139.0L-204.0 134.0C-173.0 117.0 -151.0 124.0 -144.0 135.0ZM-390.0 -243.0 -403.0 -246.0C-390.0 -305.0 -383.0 -384.0 -394.0 -452.0C-320.0 -543.0 -205.0 -380.0 -390.0 -243.0ZM-308.0 -224.0 -319.0 -229.0C-292.0 -273.0 -266.0 -340.0 -266.0 -396.0C-186.0 -470.0 -91.0 -304.0 -308.0 -224.0ZM-452.0 -253.0H-465.0C-461.0 -305.0 -497.0 -365.0 -521.0 -389.0C-552.0 -411.0 -568.0 -445.0 -550.0 -481.0C-529.0 -520.0 -469.0 -523.0 -445.0 -491.0C-413.0 -447.0 -409.0 -363.0 -452.0 -253.0Z"/></g>
</svg>
