<?xml version="1.0" encoding="UTF-8"?>
<svg width="1700" height="300" xmlns="http://www.w3.org/2000/svg">
<rect width="100%" height="100%" fill="white"/>
<g fill="green" transform="translate(100 100) scale(0.1 -0.1)"><path d="M0.0 0.0H-322.0V-30.0H0.0ZM1.0 148.0H-321.0V118.0H1.0ZM11.0 289.0H-321.0V259.0H11.0ZM-30.0 289.0H-20.0V-76.0H-14.0C0.0 -76.0 22.0 -67.0 24.0 -62.0V250.0C44.0 254.0 61.0 261.0 68.0 269.0L-1.0 322.0ZM-305.0 257.0H-339.0V-356.0C-339.0 -375.0 -343.0 -379.0 -369.0 -392.0L-343.0 -448.0C-332.0 -443.0 -311.0 -424.0 -321.0 -390.0L-336.0 -409.0L-295.0 -398.0V251.0ZM-339.0 321.0V230.0C-310.0 230.0 -295.0 230.0 -295.0 230.0V289.0H-283.0ZM-360.0 -392.0 -336.0 -430.0C-215.0 -364.0 -101.0 -293.0 -35.0 -256.0L-44.0 -240.0C-175.0 -306.0 -305.0 -370.0 -360.0 -392.0ZM81.0 -157.0 32.0 -109.0C5.0 -135.0 -54.0 -185.0 -96.0 -212.0L-89.0 -224.0C-37.0 -207.0 26.0 -176.0 57.0 -158.0C68.0 -163.0 76.0 -163.0 81.0 -157.0ZM-184.0 -126.0 -197.0 -136.0C-114.0 -203.0 -3.0 -323.0 21.0 -414.0C82.0 -456.0 105.0 -294.0 -184.0 -126.0Z"/></g>
<g fill="green" transform="translate(200 100) scale(0.1 -0.1)"><path d="M0.0 0.0H-284.0V-28.0H0.0ZM2.0 154.0H-282.0V126.0H2.0ZM2.0 300.0H-282.0V272.0H2.0ZM-78.0 300.0H-68.0V-62.0H-45.0C-1.0 -62.0 67.0 -39.0 68.0 -32.0V250.0C89.0 254.0 102.0 263.0 108.0 271.0L-18.0 367.0ZM-243.0 275.0H-349.0V-248.0C-349.0 -275.0 -354.0 -287.0 -384.0 -307.0L-311.0 -461.0C-278.0 -446.0 -241.0 -398.0 -255.0 -309.0L-320.0 -357.0L-208.0 -315.0V254.0ZM-349.0 360.0V240.0C-252.0 240.0 -209.0 240.0 -209.0 240.0V300.0H-195.0ZM-360.0 -317.0 -295.0 -443.0C-171.0 -361.0 -74.0 -281.0 -25.0 -238.0L-28.0 -228.0C-164.0 -268.0 -302.0 -305.0 -360.0 -317.0ZM175.0 -145.0 36.0 -44.0C15.0 -79.0 -39.0 -151.0 -81.0 -189.0L-77.0 -196.0C1.0 -189.0 93.0 -166.0 136.0 -150.0C155.0 -156.0 168.0 -155.0 175.0 -145.0ZM-182.0 -97.0 -191.0 -103.0C-120.0 -180.0 -54.0 -293.0 -36.0 -395.0C104.0 -499.0 210.0 -203.0 -182.0 -97.0Z"/></g>
<g fill="green" transform="translate(300 100) scale(0.1 -0.1)"><path d="M0.0 0.0H-322.0V-30.0H0.0ZM1.0 148.0H-321.0V118.0H1.0ZM11.0 289.0H-321.0V259.0H11.0ZM-30.0 289.0H-20.0V-76.0H-14.0C0.0 -76.0 22.0 -67.0 24.0 -62.0V250.0C44.0 254.0 61.0 261.0 68.0 269.0L-1.0 322.0ZM-305.0 257.0H-339.0V-356.0C-339.0 -375.0 -343.0 -379.0 -369.0 -392.0L-343.0 -448.0C-332.0 -443.0 -311.0 -424.0 -321.0 -390.0L-336.0 -409.0L-295.0 -398.0V251.0ZM-339.0 321.0V230.0C-310.0 230.0 -295.0 230.0 -295.0 230.0V289.0H-283.0ZM-360.0 -392.0 -336.0 -430.0C-215.0 -364.0 -101.0 -293.0 -35.0 -256.0L-44.0 -240.0C-175.0 -306.0 -305.0 -370.0 -360.0 -392.0ZM81.0 -157.0 32.0 -109.0C5.0 -135.0 -54.0 -185.0 -96.0 -212.0L-89.0 -224.0C-37.0 -207.0 26.0 -176.0 57.0 -158.0C68.0 -163.0 76.0 -163.0 81.0 -157.0ZM-184.0 -126.0 -197.0 -136.0C-114.0 -203.0 -3.0 -323.0 21.0 -414.0C82.0 -456.0 105.0 -294.0 -184.0 -126.0Z"/></g>
<g fill="green" transform="translate(400 100) scale(0.1 -0.1)"><path d="M0.0 0.0H-284.0V-28.0H0.0ZM2.0 154.0H-282.0V126.0H2.0ZM2.0 300.0H-282.0V272.0H2.0ZM-78.0 300.0H-68.0V-62.0H-45.0C-1.0 -62.0 67.0 -39.0 68.0 -32.0V250.0C89.0 254.0 102.0 263.0 108.0 271.0L-18.0 367.0ZM-243.0 275.0H-349.0V-248.0C-349.0 -275.0 -354.0 -287.0 -384.0 -307.0L-311.0 -461.0C-278.0 -446.0 -241.0 -398.0 -255.0 -309.0L-320.0 -357.0L-208.0 -315.0V254.0ZM-349.0 360.0V240.0C-252.0 240.0 -209.0 240.0 -209.0 240.0V300.0H-195.0ZM-360.0 -317.0 -295.0 -443.0C-171.0 -361.0 -74.0 -281.0 -25.0 -238.0L-28.0 -228.0C-164.0 -268.0 -302.0 -305.0 -360.0 -317.0ZM175.0 -145.0 36.0 -44.0C15.0 -79.0 -39.0 -151.0 -81.0 -189.0L-77.0 -196.0C1.0 -189.0 93.0 -166.0 136.0 -150.0C155.0 -156.0 168.0 -155.0 175.0 -145.0ZM-182.0 -97.0 -191.0 -103.0C-120.0 -180.0 -54.0 -293.0 -36.0 -395.0C104.0 -499.0 210.0 -203.0 -182.0 -97.0Z"/></g>
<g fill="red" transform="translate(100 200) scale(0.1 -0.1)"><path d="M0.0 0.0H-322.0V-30.0H0.0ZM1.0 148.0H-321.0V118.0H1.0ZM11.0 289.0H-321.0V259.0H11.0ZM-30.0 289.0H-20.0V-76.0H-14.0C0.0 -76.0 22.0 -67.0 24.0 -62.0V250.0C44.0 254.0 61.0 261.0 68.0 269.0L-1.0 322.0ZM-305.0 257.0H-339.0V-356.0C-339.0 -375.0 -343.0 -379.0 -369.0 -392.0L-343.0 -448.0C-332.0 -443.0 -311.0 -424.0 -321.0 -390.0L-336.0 -409.0L-295.0 -398.0V251.0ZM-339.0 321.0V230.0C-310.0 230.0 -295.0 230.0 -295.0 230.0V289.0H-283.0ZM-360.0 -392.0 -336.0 -430.0C-215.0 -364.0 -101.0 -293.0 -35.0 -256.0L-44.0 -240.0C-175.0 -306.0 -305.0 -370.0 -360.0 -392.0ZM81.0 -157.0 32.0 -109.0C5.0 -135.0 -54.0 -185.0 -96.0 -212.0L-89.0 -224.0C-37.0 -207.0 26.0 -176.0 57.0 -158.0C68.0 -163.0 76.0 -163.0 81.0 -157.0ZM-184.0 -126.0 -197.0 -136.0C-114.0 -203.0 -3.0 -323.0 21.0 -414.0C82.0 -456.0 105.0 -294.0 -184.0 -126.0Z"/></g>
<g fill="black" opacity=".8" transform="translate(100 200) scale(0.1 -0.1)"><path d="M0.0 0.0H-322.0V-30.0H0.0ZM1.0 148.0H-321.0V118.0H1.0ZM11.0 289.0H-321.0V259.0H11.0ZM-30.0 289.0H-20.0V-76.0H-14.0C0.0 -76.0 22.0 -67.0 24.0 -62.0V250.0C44.0 254.0 61.0 261.0 68.0 269.0L-1.0 322.0ZM-305.0 257.0H-339.0V-356.0C-339.0 -375.0 -343.0 -379.0 -369.0 -392.0L-343.0 -448.0C-332.0 -443.0 -311.0 -424.0 -321.0 -390.0L-336.0 -409.0L-295.0 -398.0V251.0ZM-339.0 321.0V230.0C-310.0 230.0 -295.0 230.0 -295.0 230.0V289.0H-283.0ZM-360.0 -392.0 -336.0 -430.0C-215.0 -364.0 -101.0 -293.0 -35.0 -256.0L-44.0 -240.0C-175.0 -306.0 -305.0 -370.0 -360.0 -392.0ZM81.0 -157.0 32.0 -109.0C5.0 -135.0 -54.0 -185.0 -96.0 -212.0L-89.0 -224.0C-37.0 -207.0 26.0 -176.0 57.0 -158.0C68.0 -163.0 76.0 -163.0 81.0 -157.0ZM-184.0 -126.0 -197.0 -136.0C-114.0 -203.0 -3.0 -323.0 21.0 -414.0C82.0 -456.0 105.0 -294.0 -184.0 -126.0Z"/></g>
<g fill="red" transform="translate(200 200) scale(0.1 -0.1)"><path d="M0.0 0.0H-284.0V-28.0H0.0ZM2.0 154.0H-282.0V126.0H2.0ZM2.0 300.0H-282.0V272.0H2.0ZM-78.0 300.0H-68.0V-62.0H-45.0C-1.0 -62.0 67.0 -39.0 68.0 -32.0V250.0C89.0 254.0 102.0 263.0 108.0 271.0L-18.0 367.0ZM-243.0 275.0H-349.0V-248.0C-349.0 -275.0 -354.0 -287.0 -384.0 -307.0L-311.0 -461.0C-278.0 -446.0 -241.0 -398.0 -255.0 -309.0L-320.0 -357.0L-208.0 -315.0V254.0ZM-349.0 360.0V240.0C-252.0 240.0 -209.0 240.0 -209.0 240.0V300.0H-195.0ZM-360.0 -317.0 -295.0 -443.0C-171.0 -361.0 -74.0 -281.0 -25.0 -238.0L-28.0 -228.0C-164.0 -268.0 -302.0 -305.0 -360.0 -317.0ZM175.0 -145.0 36.0 -44.0C15.0 -79.0 -39.0 -151.0 -81.0 -189.0L-77.0 -196.0C1.0 -189.0 93.0 -166.0 136.0 -150.0C155.0 -156.0 168.0 -155.0 175.0 -145.0ZM-182.0 -97.0 -191.0 -103.0C-120.0 -180.0 -54.0 -293.0 -36.0 -395.0C104.0 -499.0 210.0 -203.0 -182.0 -97.0Z"/></g>
<g fill="black" opacity=".8" transform="translate(200 200) scale(0.1 -0.1)"><path d="M0.0 0.0H-284.0V-28.0H0.0ZM2.0 154.0H-282.0V126.0H2.0ZM2.0 300.0H-282.0V272.0H2.0ZM-78.0 300.0H-68.0V-62.0H-45.0C-1.0 -62.0 67.0 -39.0 68.0 -32.0V250.0C89.0 254.0 102.0 263.0 108.0 271.0L-18.0 367.0ZM-243.0 275.0H-349.0V-248.0C-349.0 -275.0 -354.0 -287.0 -384.0 -307.0L-311.0 -461.0C-278.0 -446.0 -241.0 -398.0 -255.0 -309.0L-320.0 -357.0L-208.0 -315.0V254.0ZM-349.0 360.0V240.0C-252.0 240.0 -209.0 240.0 -209.0 240.0V300.0H-195.0ZM-360.0 -317.0 -295.0 -443.0C-171.0 -361.0 -74.0 -281.0 -25.0 -238.0L-28.0 -228.0C-164.0 -268.0 -302.0 -305.0 -360.0 -317.0ZM175.0 -145.0 36.0 -44.0C15.0 -79.0 -39.0 -151.0 -81.0 -189.0L-77.0 -196.0C1.0 -189.0 93.0 -166.0 136.0 -150.0C155.0 -156.0 168.0 -155.0 175.0 -145.0ZM-182.0 -97.0 -191.0 -103.0C-120.0 -180.0 -54.0 -293.0 -36.0 -395.0C104.0 -499.0 210.0 -203.0 -182.0 -97.0Z"/></g>
</svg>
