<?xml version="1.0" encoding="UTF-8"?>
<svg width="1700" height="300" xmlns="http://www.w3.org/2000/svg">
<rect width="100%" height="100%" fill="white"/>
<g fill="green" transform="translate(100 100) scale(0.1 -0.1)"><path d="M0.0 0.0 -93.0 30.0 -83.0 -795.0 -30.0 -813.0 -31.0 -30.0C-9.0 -27.0 -2.0 -17.0 0.0 0.0ZM234.0 5.0 141.0 30.0 152.0 -795.0 205.0 -809.0 203.0 -25.0C225.0 -23.0 232.0 -12.0 234.0 5.0ZM455.0 -216.0 373.0 -174.0C330.0 -321.0 247.0 -513.0 174.0 -646.0L202.0 -641.0C288.0 -519.0 374.0 -346.0 416.0 -230.0C435.0 -233.0 450.0 -227.0 455.0 -216.0ZM-329.0 -191.0 -345.0 -198.0C-273.0 -308.0 -186.0 -488.0 -185.0 -620.0C-121.0 -684.0 -80.0 -469.0 -329.0 -191.0Z"/></g>
<g fill="green" transform="translate(200 100) scale(0.1 -0.1)"><path d="M0.0 0.0 -209.0 15.0 -185.0 -854.0 -16.0 -852.0 -20.0 -34.0C-3.0 -30.0 -3.0 -17.0 0.0 0.0ZM216.0 1.0 7.0 12.0 31.0 -856.0 200.0 -851.0 196.0 -33.0C213.0 -29.0 213.0 -16.0 216.0 1.0ZM488.0 -234.0 285.0 -185.0C253.0 -339.0 192.0 -553.0 135.0 -704.0L146.0 -703.0C264.0 -566.0 383.0 -383.0 449.0 -258.0C474.0 -257.0 484.0 -248.0 488.0 -234.0ZM-412.0 -185.0 -424.0 -191.0C-369.0 -317.0 -322.0 -480.0 -322.0 -621.0C-186.0 -761.0 -70.0 -442.0 -412.0 -185.0Z"/></g>
<g fill="green" transform="translate(300 100) scale(0.1 -0.1)"><path d="M0.0 0.0 -33.0 544.0 -97.0 195.0 -79.0 -371.0 -69.0 -37.0C-26.0 -36.0 0.0 -13.0 0.0 0.0ZM407.0 12.0 374.0 548.0 310.0 199.0 329.0 -360.0 337.0 -26.0C381.0 -25.0 406.0 0.0 407.0 12.0ZM-19.0 266.0 -165.0 339.0C-244.0 139.0 -380.0 -81.0 -506.0 -220.0L-474.0 -240.0C-329.0 -118.0 -184.0 72.0 -92.0 242.0C-52.0 234.0 -29.0 246.0 -19.0 266.0ZM338.0 311.0 315.0 293.0C449.0 174.0 621.0 -35.0 656.0 -194.0C780.0 -279.0 835.0 36.0 338.0 311.0Z"/></g>
<g fill="green" transform="translate(400 100) scale(0.1 -0.1)"><path d="M0.0 0.0 -75.0 542.0 -281.0 176.0 -220.0 -404.0 -182.0 -56.0C-66.0 -55.0 -3.0 -14.0 0.0 0.0ZM408.0 12.0 334.0 542.0 127.0 176.0 188.0 -392.0 226.0 -43.0C342.0 -42.0 405.0 -2.0 408.0 12.0ZM-36.0 225.0 -341.0 360.0C-403.0 149.0 -516.0 -99.0 -626.0 -261.0L-606.0 -277.0C-419.0 -157.0 -239.0 17.0 -113.0 193.0C-68.0 189.0 -45.0 202.0 -36.0 225.0ZM249.0 330.0 232.0 317.0C336.0 184.0 433.0 -11.0 455.0 -185.0C706.0 -377.0 905.0 150.0 249.0 330.0Z"/></g>
<g fill="green" transform="translate(500 100) scale(0.1 -0.1)"><path d="M0.0 0.0 -54.0 -214.0 -11.0 -723.0 20.0 -492.0 14.0 -7.0C8.0 -5.0 -1.0 -7.0 0.0 0.0ZM-21.0 2.0 -75.0 -216.0 -31.0 -725.0 0.0 -491.0 -7.0 -5.0C-14.0 -4.0 -22.0 -6.0 -21.0 2.0ZM239.0 -277.0 248.0 -292.0C259.0 -324.0 267.0 -374.0 272.0 -416.0L279.0 -401.0C275.0 -359.0 265.0 -302.0 249.0 -279.0C243.0 -275.0 241.0 -276.0 239.0 -277.0ZM-317.0 -295.0V-291.0C-320.0 -324.0 -329.0 -372.0 -348.0 -407.0C-359.0 -418.0 -354.0 -393.0 -317.0 -295.0Z"/></g>
<g fill="green" transform="translate(600 100) scale(0.1 -0.1)"><path d="M0.0 0.0 -122.0 -241.0 2.0 -777.0 101.0 -510.0 79.0 -4.0C32.0 -2.0 -1.0 -7.0 0.0 0.0ZM-38.0 -2.0 -160.0 -243.0 -35.0 -779.0 64.0 -513.0 41.0 -6.0C-6.0 -4.0 -39.0 -9.0 -38.0 -2.0ZM291.0 -297.0 294.0 -331.0C293.0 -360.0 290.0 -405.0 290.0 -445.0L288.0 -437.0C297.0 -385.0 306.0 -324.0 303.0 -300.0C298.0 -296.0 293.0 -297.0 291.0 -297.0ZM-327.0 -316.0V-315.0C-328.0 -351.0 -336.0 -388.0 -348.0 -418.0C-366.0 -437.0 -376.0 -438.0 -327.0 -316.0Z"/></g>
<g fill="green" transform="translate(700 100) scale(0.1 -0.1)"><path d="M0.0 0.0 -91.0 347.0 -110.0 -265.0 -59.0 -594.0 -56.0 -23.0C-19.0 -19.0 -2.0 -15.0 0.0 0.0ZM266.0 4.0 176.0 346.0 157.0 -266.0 208.0 -591.0 210.0 -19.0C247.0 -16.0 264.0 -11.0 266.0 4.0ZM822.0 79.0 693.0 140.0C659.0 2.0 572.0 -224.0 500.0 -379.0L534.0 -376.0C631.0 -238.0 724.0 -53.0 763.0 54.0C795.0 50.0 816.0 64.0 822.0 79.0ZM-636.0 118.0 -661.0 108.0C-593.0 -15.0 -513.0 -213.0 -512.0 -358.0C-430.0 -444.0 -358.0 -199.0 -636.0 118.0Z"/></g>
<g fill="green" transform="translate(800 100) scale(0.1 -0.1)"><path d="M0.0 0.0 -199.0 345.0 -250.0 -304.0 -91.0 -624.0 -81.0 -23.0C-26.0 -19.0 -5.0 -14.0 0.0 0.0ZM284.0 2.0 85.0 344.0 34.0 -304.0 193.0 -622.0 202.0 -22.0C258.0 -17.0 279.0 -13.0 284.0 2.0ZM867.0 59.0 573.0 147.0C558.0 4.0 516.0 -259.0 475.0 -438.0L492.0 -437.0C614.0 -287.0 744.0 -86.0 806.0 25.0C845.0 24.0 862.0 40.0 867.0 59.0ZM-726.0 137.0 -746.0 129.0C-704.0 -13.0 -676.0 -196.0 -695.0 -354.0C-534.0 -551.0 -321.0 -184.0 -726.0 137.0Z"/></g>
<g fill="green" transform="translate(900 100) scale(0.1 -0.1)"><path d="M0.0 0.0 -138.0 -66.0 -121.0 -769.0 -44.0 -687.0 -46.0 -46.0C-15.0 -41.0 -3.0 -25.0 0.0 0.0ZM303.0 8.0 165.0 -64.0 183.0 -766.0 260.0 -680.0 257.0 -39.0C289.0 -35.0 300.0 -17.0 303.0 8.0ZM499.0 -254.0 391.0 -199.0C330.0 -348.0 233.0 -511.0 149.0 -617.0L188.0 -613.0C284.0 -521.0 383.0 -387.0 443.0 -272.0C469.0 -276.0 492.0 -268.0 499.0 -254.0ZM-367.0 -218.0 -382.0 -233.0C-290.0 -312.0 -174.0 -455.0 -154.0 -564.0C-65.0 -622.0 -32.0 -395.0 -367.0 -218.0Z"/></g>
<g fill="green" transform="translate(1000 100) scale(0.1 -0.1)"><path d="M0.0 0.0 -298.0 -82.0 -258.0 -833.0 -22.0 -732.0 -29.0 -54.0C-3.0 -47.0 -3.0 -25.0 0.0 0.0ZM283.0 -1.0 -15.0 -87.0 25.0 -837.0 261.0 -732.0 254.0 -55.0C280.0 -47.0 280.0 -26.0 283.0 -1.0ZM543.0 -297.0 258.0 -223.0C215.0 -375.0 140.0 -550.0 72.0 -669.0L85.0 -668.0C231.0 -574.0 390.0 -441.0 489.0 -326.0C521.0 -327.0 537.0 -317.0 543.0 -297.0ZM-460.0 -226.0 -471.0 -234.0C-405.0 -329.0 -343.0 -465.0 -330.0 -586.0C-145.0 -730.0 8.0 -350.0 -460.0 -226.0Z"/></g>
<g fill="green" transform="translate(1100 100) scale(0.1 -0.1)"><path d="M0.0 0.0 -72.0 26.0 -61.0 -796.0 -19.0 -807.0 -21.0 -18.0C-5.0 -16.0 -2.0 -12.0 0.0 0.0ZM241.0 5.0 168.0 25.0 180.0 -797.0 222.0 -803.0 220.0 -13.0C235.0 -12.0 239.0 -7.0 241.0 5.0ZM475.0 -240.0 419.0 -190.0C356.0 -351.0 263.0 -523.0 190.0 -636.0L209.0 -633.0C291.0 -528.0 384.0 -374.0 445.0 -247.0C454.0 -252.0 472.0 -246.0 475.0 -240.0ZM-307.0 -197.0 -321.0 -202.0C-252.0 -315.0 -160.0 -498.0 -151.0 -624.0C-102.0 -675.0 -82.0 -494.0 -307.0 -197.0Z"/></g>
<g fill="green" transform="translate(1200 100) scale(0.1 -0.1)"><path d="M0.0 0.0 -167.0 18.0 -148.0 -844.0 -12.0 -841.0 -14.0 -20.0C-1.0 -17.0 -2.0 -12.0 0.0 0.0ZM213.0 -8.0 46.0 7.0 65.0 -854.0 202.0 -850.0 199.0 -29.0C212.0 -26.0 211.0 -21.0 213.0 -8.0ZM487.0 -224.0 326.0 -189.0C280.0 -355.0 210.0 -545.0 157.0 -675.0L164.0 -671.0C269.0 -547.0 384.0 -381.0 454.0 -244.0C471.0 -244.0 484.0 -235.0 487.0 -224.0ZM-404.0 -189.0 -414.0 -193.0C-357.0 -322.0 -298.0 -483.0 -280.0 -623.0C-149.0 -734.0 -88.0 -431.0 -404.0 -189.0Z"/></g>
<g fill="green" transform="translate(1300 100) scale(0.1 -0.1)"><path d="M0.0 0.0 -86.0 13.0 -87.0 -793.0 -37.0 -799.0V-32.0C-11.0 -29.0 -2.0 -16.0 0.0 0.0ZM240.0 -5.0 154.0 12.0V-794.0L203.0 -802.0V-34.0C228.0 -33.0 238.0 -21.0 240.0 -5.0ZM468.0 -237.0 380.0 -188.0C338.0 -321.0 251.0 -526.0 174.0 -670.0L203.0 -669.0C292.0 -535.0 384.0 -352.0 423.0 -248.0C447.0 -254.0 460.0 -249.0 468.0 -237.0ZM-320.0 -202.0 -338.0 -209.0C-270.0 -320.0 -192.0 -500.0 -197.0 -635.0C-129.0 -705.0 -78.0 -478.0 -320.0 -202.0Z"/></g>
<g fill="green" transform="translate(1400 100) scale(0.1 -0.1)"><path d="M0.0 0.0 -195.0 19.0 -192.0 -830.0 -34.0 -834.0V-33.0C-9.0 -30.0 -3.0 -17.0 0.0 0.0ZM214.0 1.0 19.0 20.0 22.0 -827.0 180.0 -833.0 179.0 -32.0C205.0 -28.0 211.0 -15.0 214.0 1.0ZM468.0 -225.0 257.0 -166.0C235.0 -312.0 182.0 -547.0 128.0 -715.0L141.0 -717.0C257.0 -567.0 369.0 -368.0 424.0 -251.0C454.0 -250.0 463.0 -240.0 468.0 -225.0ZM-419.0 -168.0 -434.0 -175.0C-384.0 -307.0 -341.0 -475.0 -345.0 -619.0C-207.0 -767.0 -77.0 -445.0 -419.0 -168.0Z"/></g>
<g fill="green" transform="translate(1500 100) scale(0.1 -0.1)"><path d="M0.0 0.0 -92.0 17.0 -89.0 -815.0 -36.0 -822.0V-31.0C-11.0 -28.0 -2.0 -17.0 0.0 0.0ZM230.0 7.0 138.0 17.0 142.0 -815.0 194.0 -816.0 193.0 -25.0C218.0 -23.0 228.0 -10.0 230.0 7.0ZM464.0 -226.0 376.0 -174.0C332.0 -305.0 242.0 -493.0 161.0 -625.0L189.0 -622.0C283.0 -504.0 377.0 -337.0 419.0 -237.0C441.0 -241.0 457.0 -237.0 464.0 -226.0ZM-330.0 -196.0 -347.0 -204.0C-277.0 -312.0 -190.0 -487.0 -185.0 -614.0C-115.0 -677.0 -73.0 -463.0 -330.0 -196.0Z"/></g>
<g fill="green" transform="translate(1600 100) scale(0.1 -0.1)"><path d="M0.0 0.0 -207.0 9.0 -196.0 -867.0 -29.0 -860.0 -30.0 -35.0C-7.0 -31.0 -3.0 -17.0 0.0 0.0ZM226.0 6.0 20.0 10.0 30.0 -866.0 198.0 -855.0 196.0 -29.0C219.0 -25.0 223.0 -12.0 226.0 6.0ZM489.0 -234.0 278.0 -176.0C253.0 -323.0 203.0 -550.0 150.0 -710.0L163.0 -713.0C276.0 -568.0 388.0 -375.0 446.0 -259.0C474.0 -258.0 484.0 -248.0 489.0 -234.0ZM-401.0 -174.0 -416.0 -181.0C-361.0 -306.0 -314.0 -471.0 -316.0 -611.0C-180.0 -751.0 -61.0 -432.0 -401.0 -174.0Z"/></g>
<g fill="red" transform="translate(100 200) scale(0.1 -0.1)"><path d="M0.0 0.0 -76.0 9.0V-805.0H-32.0V-25.0C-10.0 -23.0 -2.0 -14.0 0.0 0.0ZM240.0 0.0 164.0 9.0V-805.0H208.0V-25.0C230.0 -23.0 238.0 -14.0 240.0 0.0ZM480.0 -249.0 406.0 -193.0C351.0 -330.0 256.0 -517.0 177.0 -646.0H200.0C290.0 -527.0 388.0 -362.0 439.0 -256.0C457.0 -263.0 473.0 -259.0 480.0 -249.0ZM-311.0 -205.0 -328.0 -211.0C-261.0 -322.0 -178.0 -502.0 -174.0 -630.0C-113.0 -690.0 -76.0 -487.0 -311.0 -205.0Z"/></g>
<g fill="black" opacity=".8" transform="translate(100 200) scale(0.1 -0.1)"><path d="M0.0 0.0 -76.0 9.0V-804.0L-32.0 -805.0V-25.0C-9.0 -23.0 -2.0 -13.0 0.0 0.0ZM240.0 -1.0 164.0 8.0V-806.0L208.0 -804.0V-24.0C229.0 -24.0 238.0 -14.0 240.0 -1.0ZM480.0 -249.0 405.0 -193.0C351.0 -330.0 256.0 -517.0 176.0 -646.0H200.0C290.0 -528.0 388.0 -361.0 439.0 -256.0C457.0 -262.0 473.0 -258.0 480.0 -249.0ZM-311.0 -205.0 -328.0 -211.0C-261.0 -322.0 -177.0 -501.0 -174.0 -630.0C-113.0 -690.0 -76.0 -486.0 -311.0 -205.0Z"/></g>
<g fill="red" transform="translate(200 200) scale(0.1 -0.1)"><path d="M0.0 0.0 -174.0 16.0V-838.0H-32.0V-26.0C-8.0 -23.0 -2.0 -14.0 0.0 0.0ZM218.0 -2.0 44.0 14.0V-840.0H186.0V-28.0C210.0 -25.0 216.0 -16.0 218.0 -2.0ZM474.0 -222.0 285.0 -170.0C256.0 -321.0 201.0 -543.0 150.0 -699.0H161.0C268.0 -557.0 376.0 -367.0 433.0 -245.0C458.0 -245.0 469.0 -235.0 474.0 -222.0ZM-407.0 -171.0 -420.0 -176.0C-369.0 -308.0 -317.0 -474.0 -311.0 -616.0C-177.0 -744.0 -81.0 -433.0 -407.0 -171.0Z"/></g>
<g fill="black" opacity=".8" transform="translate(200 200) scale(0.1 -0.1)"><path d="M0.0 0.0 -174.0 16.0V-838.0L-33.0 -837.0L-31.0 -26.0C-8.0 -23.0 -2.0 -14.0 0.0 0.0ZM218.0 -2.0 44.0 14.0V-840.0H186.0V-28.0C210.0 -25.0 216.0 -16.0 218.0 -2.0ZM474.0 -222.0 285.0 -170.0C256.0 -321.0 201.0 -543.0 150.0 -698.0L161.0 -700.0C268.0 -557.0 376.0 -367.0 433.0 -246.0C458.0 -245.0 470.0 -235.0 474.0 -222.0ZM-407.0 -170.0 -421.0 -176.0C-368.0 -307.0 -317.0 -474.0 -311.0 -616.0C-176.0 -745.0 -80.0 -433.0 -407.0 -170.0Z"/></g>
<g fill="red" transform="translate(300 200) scale(0.1 -0.1)"><path d="M0.0 0.0V332.0H-44.0V-17.0H-38.0C-15.0 -17.0 0.0 -4.0 0.0 0.0ZM219.0 3.0V335.0H175.0V-14.0H181.0C204.0 -14.0 219.0 -1.0 219.0 3.0ZM-93.0 214.0 -168.0 252.0C-216.0 149.0 -288.0 53.0 -351.0 -2.0L-337.0 -16.0C-265.0 31.0 -188.0 110.0 -132.0 201.0C-111.0 196.0 -98.0 204.0 -93.0 214.0ZM292.0 244.0 281.0 234.0C351.0 186.0 441.0 96.0 463.0 25.0C526.0 -14.0 552.0 138.0 292.0 244.0Z"/></g>
<g fill="black" opacity=".8" transform="translate(300 200) scale(0.1 -0.1)"><path d="M0.0 0.0 2.0 333.0H-43.0L-44.0 -17.0L-38.0 -16.0C-14.0 -16.0 0.0 -3.0 0.0 0.0ZM224.0 2.0 225.0 335.0H180.0L179.0 -13.0H185.0C208.0 -13.0 223.0 -1.0 224.0 2.0ZM-94.0 211.0 -168.0 253.0C-215.0 155.0 -287.0 61.0 -352.0 7.0L-338.0 -9.0C-265.0 38.0 -189.0 116.0 -133.0 201.0C-112.0 195.0 -100.0 202.0 -94.0 211.0ZM289.0 244.0 279.0 233.0C349.0 185.0 442.0 95.0 465.0 25.0C530.0 -13.0 552.0 137.0 289.0 244.0Z"/></g>
<g fill="red" transform="translate(400 200) scale(0.1 -0.1)"><path d="M0.0 0.0V340.0H-142.0V-27.0H-116.0C-43.0 -27.0 -1.0 -5.0 0.0 0.0ZM221.0 2.0V338.0H79.0V-25.0H105.0C178.0 -25.0 220.0 -3.0 221.0 2.0ZM-127.0 206.0 -279.0 280.0C-315.0 176.0 -375.0 76.0 -430.0 16.0L-420.0 7.0C-329.0 44.0 -238.0 103.0 -169.0 191.0C-146.0 188.0 -132.0 195.0 -127.0 206.0ZM235.0 260.0 228.0 254.0C283.0 200.0 340.0 116.0 361.0 38.0C501.0 -50.0 599.0 226.0 235.0 260.0Z"/></g>
<g fill="black" opacity=".8" transform="translate(400 200) scale(0.1 -0.1)"><path d="M0.0 0.0 4.0 343.0 -139.0 342.0 -143.0 -27.0 -115.0 -26.0C-42.0 -27.0 -1.0 -5.0 0.0 0.0ZM219.0 4.0 223.0 342.0 80.0 341.0 77.0 -25.0 103.0 -22.0C176.0 -22.0 218.0 -1.0 219.0 4.0ZM-126.0 203.0 -278.0 281.0C-314.0 178.0 -377.0 76.0 -434.0 13.0L-424.0 3.0C-331.0 42.0 -238.0 102.0 -168.0 187.0C-145.0 184.0 -131.0 191.0 -126.0 203.0ZM238.0 260.0 229.0 252.0C283.0 196.0 338.0 111.0 357.0 34.0C494.0 -55.0 592.0 218.0 238.0 260.0Z"/></g>
<g fill="red" transform="translate(500 200) scale(0.1 -0.1)"><path d="M0.0 0.0V240.0H-44.0V-16.0H-38.0C-15.0 -16.0 0.0 -4.0 0.0 0.0ZM232.0 3.0V243.0H188.0V-13.0H194.0C217.0 -13.0 232.0 -1.0 232.0 3.0ZM-83.0 131.0 -147.0 185.0C-208.0 101.0 -291.0 31.0 -361.0 -5.0L-350.0 -23.0C-275.0 6.0 -189.0 57.0 -124.0 127.0C-105.0 118.0 -90.0 123.0 -83.0 131.0ZM290.0 178.0 280.0 167.0C349.0 129.0 446.0 55.0 480.0 2.0C544.0 -26.0 555.0 103.0 290.0 178.0Z"/></g>
<g fill="black" opacity=".8" transform="translate(500 200) scale(0.1 -0.1)"><path d="M0.0 0.0 -1.0 240.0 -45.0 241.0 -43.0 -16.0H-38.0C-14.0 -16.0 0.0 -3.0 0.0 0.0ZM230.0 2.0 228.0 241.0 185.0 242.0V-12.0L191.0 -14.0C214.0 -14.0 230.0 -1.0 230.0 2.0ZM-82.0 133.0 -149.0 185.0C-209.0 97.0 -290.0 26.0 -361.0 -11.0L-349.0 -28.0C-274.0 0.0 -189.0 54.0 -124.0 128.0C-104.0 120.0 -90.0 125.0 -82.0 133.0ZM291.0 178.0 281.0 167.0C350.0 129.0 447.0 57.0 478.0 2.0C543.0 -27.0 554.0 105.0 291.0 178.0Z"/></g>
<g fill="red" transform="translate(600 200) scale(0.1 -0.1)"><path d="M0.0 0.0V262.0H-137.0V-25.0H-112.0C-41.0 -25.0 0.0 -5.0 0.0 0.0ZM223.0 2.0V260.0H86.0V-23.0H111.0C182.0 -23.0 223.0 -3.0 223.0 2.0ZM-132.0 144.0 -279.0 224.0C-317.0 129.0 -378.0 40.0 -434.0 -12.0L-425.0 -22.0C-336.0 6.0 -245.0 54.0 -175.0 131.0C-153.0 126.0 -138.0 133.0 -132.0 144.0ZM236.0 203.0 229.0 197.0C282.0 150.0 344.0 76.0 372.0 8.0C509.0 -60.0 583.0 200.0 236.0 203.0Z"/></g>
<g fill="black" opacity=".8" transform="translate(600 200) scale(0.1 -0.1)"><path d="M0.0 0.0 -3.0 260.0H-139.0L-138.0 -24.0L-111.0 -25.0C-40.0 -26.0 -0.0 -5.0 0.0 0.0ZM224.0 2.0 222.0 258.0 85.0 257.0 88.0 -24.0H111.0C183.0 -23.0 223.0 -4.0 224.0 2.0ZM-132.0 147.0 -280.0 225.0C-318.0 127.0 -378.0 41.0 -432.0 -10.0L-422.0 -21.0C-335.0 7.0 -244.0 54.0 -175.0 131.0C-152.0 128.0 -137.0 134.0 -132.0 147.0ZM237.0 206.0 227.0 199.0C282.0 152.0 344.0 78.0 374.0 11.0C513.0 -59.0 588.0 206.0 237.0 206.0Z"/></g>
<g fill="red" transform="translate(700 200) scale(0.1 -0.1)"><path d="M0.0 0.0V359.0H-44.0V-15.0H-38.0C-15.0 -15.0 0.0 -4.0 0.0 0.0ZM216.0 12.0V362.0H172.0V-5.0H178.0C201.0 -5.0 216.0 8.0 216.0 12.0ZM-100.0 242.0 -174.0 285.0C-222.0 189.0 -296.0 107.0 -362.0 61.0L-350.0 47.0C-274.0 83.0 -196.0 148.0 -139.0 231.0C-119.0 226.0 -105.0 233.0 -100.0 242.0ZM286.0 270.0 275.0 259.0C347.0 212.0 446.0 125.0 477.0 61.0C543.0 27.0 561.0 168.0 286.0 270.0Z"/></g>
<g fill="black" opacity=".8" transform="translate(700 200) scale(0.1 -0.1)"><path d="M0.0 0.0 -1.0 359.0H-44.0V-15.0H-38.0C-14.0 -14.0 1.0 -4.0 0.0 0.0ZM216.0 11.0 215.0 361.0 172.0 362.0V-4.0L177.0 -5.0C200.0 -5.0 216.0 8.0 216.0 11.0ZM-100.0 243.0 -175.0 285.0C-223.0 188.0 -295.0 106.0 -363.0 60.0L-349.0 46.0C-273.0 81.0 -196.0 148.0 -139.0 231.0C-119.0 227.0 -105.0 234.0 -100.0 243.0ZM286.0 270.0 275.0 259.0C347.0 212.0 446.0 126.0 477.0 61.0C543.0 27.0 561.0 169.0 286.0 270.0Z"/></g>
<g fill="red" transform="translate(800 200) scale(0.1 -0.1)"><path d="M0.0 0.0V358.0H-142.0V-27.0H-116.0C-43.0 -27.0 -1.0 -5.0 0.0 0.0ZM229.0 7.0V356.0H87.0V-20.0H113.0C186.0 -20.0 228.0 2.0 229.0 7.0ZM-112.0 216.0 -265.0 294.0C-303.0 192.0 -364.0 95.0 -421.0 38.0L-411.0 28.0C-319.0 62.0 -226.0 117.0 -154.0 202.0C-132.0 198.0 -117.0 205.0 -112.0 216.0ZM254.0 274.0 247.0 268.0C304.0 217.0 361.0 135.0 381.0 59.0C516.0 -24.0 609.0 245.0 254.0 274.0Z"/></g>
<g fill="black" opacity=".8" transform="translate(800 200) scale(0.1 -0.1)"><path d="M0.0 0.0 -1.0 357.0 -143.0 358.0V-26.0L-115.0 -27.0C-42.0 -27.0 -1.0 -4.0 0.0 0.0ZM228.0 7.0 229.0 356.0 87.0 355.0 88.0 -21.0 113.0 -19.0C186.0 -19.0 227.0 2.0 228.0 7.0ZM-112.0 217.0 -265.0 294.0C-303.0 192.0 -364.0 96.0 -421.0 38.0L-411.0 27.0C-319.0 62.0 -226.0 117.0 -153.0 201.0C-131.0 198.0 -116.0 205.0 -112.0 217.0ZM255.0 276.0 246.0 268.0C304.0 218.0 361.0 135.0 381.0 60.0C517.0 -25.0 610.0 246.0 255.0 276.0Z"/></g>
<g fill="red" transform="translate(900 200) scale(0.1 -0.1)"><path d="M0.0 0.0V262.0H-44.0V-17.0H-38.0C-15.0 -17.0 0.0 -4.0 0.0 0.0ZM154.0 2.0V264.0H110.0V-15.0H116.0C139.0 -15.0 154.0 -2.0 154.0 2.0ZM-64.0 177.0 -136.0 212.0C-163.0 157.0 -219.0 75.0 -273.0 22.0L-260.0 9.0C-197.0 53.0 -135.0 120.0 -102.0 168.0C-79.0 163.0 -71.0 167.0 -64.0 177.0ZM211.0 198.0 200.0 189.0C250.0 153.0 311.0 87.0 325.0 33.0C383.0 -3.0 415.0 126.0 211.0 198.0Z"/></g>
<g fill="black" opacity=".8" transform="translate(900 200) scale(0.1 -0.1)"><path d="M0.0 0.0 1.0 263.0H-44.0V-17.0L-38.0 -16.0C-14.0 -15.0 1.0 -3.0 0.0 0.0ZM158.0 1.0 159.0 263.0 114.0 264.0 113.0 -14.0H118.0C141.0 -14.0 158.0 -2.0 158.0 1.0ZM-65.0 175.0 -136.0 213.0C-163.0 162.0 -218.0 81.0 -274.0 29.0L-261.0 14.0C-197.0 58.0 -136.0 125.0 -104.0 168.0C-80.0 163.0 -73.0 166.0 -65.0 175.0ZM209.0 198.0 199.0 189.0C248.0 152.0 312.0 87.0 327.0 34.0C386.0 -2.0 415.0 126.0 209.0 198.0Z"/></g>
<g fill="red" transform="translate(1000 200) scale(0.1 -0.1)"><path d="M0.0 0.0V276.0H-127.0V-24.0H-104.0C-39.0 -24.0 -1.0 -5.0 0.0 0.0ZM172.0 10.0V282.0H45.0V-14.0H68.0C133.0 -14.0 171.0 5.0 172.0 10.0ZM-96.0 175.0 -231.0 245.0C-242.0 180.0 -271.0 75.0 -308.0 6.0L-297.0 -5.0C-231.0 41.0 -172.0 108.0 -134.0 161.0C-110.0 159.0 -101.0 165.0 -96.0 175.0ZM182.0 231.0 173.0 225.0C211.0 182.0 246.0 112.0 250.0 51.0C354.0 -29.0 455.0 181.0 182.0 231.0Z"/></g>
<g fill="black" opacity=".8" transform="translate(1000 200) scale(0.1 -0.1)"><path d="M0.0 0.0 2.0 278.0H-125.0L-128.0 -24.0L-103.0 -23.0C-38.0 -24.0 -1.0 -5.0 0.0 0.0ZM170.0 11.0 174.0 285.0 46.0 284.0 44.0 -14.0 66.0 -12.0C132.0 -11.0 169.0 6.0 170.0 11.0ZM-95.0 173.0 -230.0 246.0C-242.0 182.0 -273.0 75.0 -311.0 4.0L-300.0 -9.0C-232.0 39.0 -172.0 108.0 -133.0 157.0C-109.0 156.0 -100.0 162.0 -95.0 173.0ZM185.0 231.0 173.0 224.0C211.0 179.0 244.0 109.0 248.0 48.0C349.0 -33.0 450.0 175.0 185.0 231.0Z"/></g>
<g fill="red" transform="translate(1100 200) scale(0.1 -0.1)"><path d="M0.0 0.0V310.0H-44.0V-16.0H-38.0C-15.0 -16.0 0.0 -4.0 0.0 0.0ZM175.0 2.0V312.0H131.0V-14.0H137.0C160.0 -14.0 175.0 -2.0 175.0 2.0ZM-70.0 209.0 -142.0 243.0C-168.0 182.0 -222.0 90.0 -276.0 30.0L-262.0 17.0C-199.0 70.0 -139.0 146.0 -107.0 199.0C-84.0 194.0 -76.0 199.0 -70.0 209.0ZM210.0 229.0 198.0 220.0C254.0 177.0 323.0 99.0 339.0 38.0C399.0 -2.0 432.0 137.0 210.0 229.0Z"/></g>
<g fill="black" opacity=".8" transform="translate(1100 200) scale(0.1 -0.1)"><path d="M0.0 0.0 -2.0 309.0 -45.0 310.0 -44.0 -16.0 -38.0 -17.0C-14.0 -16.0 1.0 -4.0 0.0 0.0ZM171.0 1.0 169.0 310.0 126.0 311.0 127.0 -13.0 132.0 -15.0C155.0 -15.0 171.0 -3.0 171.0 1.0ZM-69.0 212.0 -145.0 243.0C-169.0 176.0 -222.0 82.0 -275.0 21.0L-260.0 8.0C-197.0 61.0 -138.0 141.0 -106.0 200.0C-83.0 196.0 -75.0 202.0 -69.0 212.0ZM211.0 229.0 200.0 220.0C256.0 178.0 324.0 101.0 336.0 38.0C396.0 -4.0 431.0 139.0 211.0 229.0Z"/></g>
<g fill="red" transform="translate(1200 200) scale(0.1 -0.1)"><path d="M0.0 0.0V320.0H-127.0V-25.0H-104.0C-39.0 -25.0 -1.0 -5.0 0.0 0.0ZM175.0 10.0V326.0H48.0V-14.0H71.0C136.0 -14.0 174.0 6.0 175.0 10.0ZM-88.0 190.0 -231.0 266.0C-248.0 195.0 -291.0 82.0 -339.0 7.0L-329.0 -3.0C-247.0 45.0 -174.0 117.0 -126.0 176.0C-102.0 173.0 -93.0 179.0 -88.0 190.0ZM180.0 246.0 171.0 240.0C209.0 189.0 242.0 112.0 243.0 44.0C349.0 -47.0 461.0 173.0 180.0 246.0Z"/></g>
<g fill="black" opacity=".8" transform="translate(1200 200) scale(0.1 -0.1)"><path d="M0.0 0.0 -5.0 317.0H-131.0L-128.0 -24.0L-104.0 -25.0C-39.0 -26.0 -2.0 -5.0 0.0 0.0ZM177.0 9.0 174.0 322.0H47.0L50.0 -16.0L72.0 -15.0C139.0 -15.0 176.0 4.0 177.0 9.0ZM-88.0 194.0 -232.0 267.0C-249.0 192.0 -290.0 83.0 -335.0 11.0L-324.0 -1.0C-245.0 48.0 -174.0 117.0 -126.0 177.0C-102.0 176.0 -92.0 182.0 -88.0 194.0ZM179.0 249.0 169.0 242.0C210.0 193.0 244.0 116.0 246.0 49.0C355.0 -44.0 470.0 182.0 179.0 249.0Z"/></g>
<g fill="red" transform="translate(1300 200) scale(0.1 -0.1)"><path d="M0.0 0.0 -81.0 10.0V-216.0H-37.0V-26.0C-13.0 -23.0 -2.0 -14.0 0.0 0.0ZM172.0 2.0 91.0 12.0V-214.0H135.0V-24.0C159.0 -21.0 170.0 -12.0 172.0 2.0ZM387.0 -61.0 310.0 -22.0C279.0 -81.0 227.0 -159.0 183.0 -208.0H208.0C260.0 -169.0 314.0 -116.0 346.0 -73.0C366.0 -77.0 381.0 -71.0 387.0 -61.0ZM-302.0 -34.0 -313.0 -44.0C-267.0 -73.0 -210.0 -130.0 -196.0 -175.0C-139.0 -208.0 -113.0 -88.0 -302.0 -34.0Z"/></g>
<g fill="black" opacity=".8" transform="translate(1300 200) scale(0.1 -0.1)"><path d="M0.0 0.0 -81.0 11.0V-215.0L-36.0 -216.0L-37.0 -26.0C-12.0 -22.0 -2.0 -13.0 0.0 0.0ZM172.0 2.0 92.0 11.0 91.0 -214.0 136.0 -213.0 135.0 -24.0C159.0 -21.0 170.0 -12.0 172.0 2.0ZM386.0 -62.0 310.0 -22.0C279.0 -80.0 227.0 -158.0 183.0 -207.0L208.0 -208.0C261.0 -168.0 314.0 -115.0 345.0 -73.0C366.0 -76.0 380.0 -70.0 386.0 -62.0ZM-303.0 -34.0 -313.0 -44.0C-267.0 -73.0 -210.0 -129.0 -195.0 -175.0C-138.0 -208.0 -114.0 -87.0 -303.0 -34.0Z"/></g>
<g fill="red" transform="translate(1400 200) scale(0.1 -0.1)"><path d="M0.0 0.0 -170.0 13.0V-235.0H-37.0V-29.0C-9.0 -24.0 -2.0 -14.0 0.0 0.0ZM174.0 0.0 4.0 13.0V-235.0H137.0V-29.0C165.0 -24.0 172.0 -14.0 174.0 0.0ZM406.0 -81.0 212.0 -23.0C199.0 -84.0 172.0 -174.0 145.0 -233.0H154.0C230.0 -196.0 317.0 -140.0 367.0 -100.0C391.0 -101.0 402.0 -94.0 406.0 -81.0ZM-354.0 -28.0 -362.0 -33.0C-334.0 -72.0 -308.0 -132.0 -306.0 -186.0C-197.0 -273.0 -78.0 -64.0 -354.0 -28.0Z"/></g>
<g fill="black" opacity=".8" transform="translate(1400 200) scale(0.1 -0.1)"><path d="M0.0 0.0 -170.0 13.0V-235.0H-38.0L-37.0 -28.0C-9.0 -25.0 -2.0 -14.0 0.0 0.0ZM174.0 0.0 5.0 13.0 4.0 -235.0H137.0L136.0 -29.0C165.0 -23.0 171.0 -14.0 174.0 0.0ZM406.0 -81.0 213.0 -23.0C199.0 -84.0 171.0 -174.0 144.0 -233.0L154.0 -234.0C230.0 -195.0 317.0 -140.0 368.0 -101.0C391.0 -102.0 402.0 -95.0 406.0 -81.0ZM-353.0 -27.0 -362.0 -33.0C-334.0 -72.0 -309.0 -133.0 -306.0 -186.0C-197.0 -275.0 -78.0 -64.0 -353.0 -27.0Z"/></g>
<g fill="red" transform="translate(1500 200) scale(0.1 -0.1)"><path d="M0.0 0.0V401.0H-44.0V0.0H-38.0C-15.0 0.0 0.0 0.0 0.0 0.0ZM144.0 0.0V401.0H100.0V0.0H106.0C129.0 0.0 144.0 0.0 144.0 0.0ZM360.0 276.0 287.0 319.0C266.0 266.0 217.0 166.0 179.0 102.0L190.0 94.0C242.0 149.0 296.0 221.0 324.0 264.0C344.0 259.0 356.0 268.0 360.0 276.0ZM-197.0 310.0 -212.0 304.0C-181.0 249.0 -141.0 160.0 -133.0 97.0C-88.0 55.0 -48.0 166.0 -197.0 310.0Z"/></g>
<g fill="black" opacity=".8" transform="translate(1500 200) scale(0.1 -0.1)"><path d="M0.0 0.0 -1.0 401.0 -44.0 402.0 -43.0 0.0H-38.0C-14.0 1.0 0.0 1.0 0.0 0.0ZM144.0 -1.0V400.0H100.0V1.0L105.0 -0.0C128.0 0.0 144.0 -1.0 144.0 -1.0ZM360.0 276.0 286.0 319.0C266.0 266.0 217.0 166.0 179.0 101.0L190.0 93.0C243.0 148.0 296.0 222.0 324.0 264.0C344.0 260.0 355.0 269.0 360.0 276.0ZM-197.0 310.0 -212.0 304.0C-181.0 249.0 -141.0 161.0 -133.0 98.0C-88.0 55.0 -49.0 167.0 -197.0 310.0Z"/></g>
<g fill="red" transform="translate(1600 200) scale(0.1 -0.1)"><path d="M0.0 0.0V420.0H-122.0V0.0H-100.0C-37.0 0.0 -2.0 0.0 0.0 0.0ZM169.0 1.0V421.0H47.0V1.0H69.0C132.0 1.0 167.0 1.0 169.0 1.0ZM349.0 289.0 200.0 355.0C197.0 297.0 182.0 170.0 168.0 90.0L178.0 86.0C228.0 145.0 283.0 227.0 310.0 272.0C333.0 269.0 345.0 279.0 349.0 289.0ZM-240.0 339.0 -252.0 335.0C-235.0 270.0 -221.0 186.0 -228.0 112.0C-141.0 14.0 -20.0 200.0 -240.0 339.0Z"/></g>
<g fill="black" opacity=".8" transform="translate(1600 200) scale(0.1 -0.1)"><path d="M0.0 0.0 -1.0 420.0H-123.0V0.0H-99.0C-37.0 -1.0 -2.0 0.0 0.0 0.0ZM169.0 2.0V421.0L47.0 420.0L48.0 0.0L68.0 1.0C132.0 2.0 166.0 1.0 169.0 2.0ZM349.0 289.0 200.0 356.0C196.0 297.0 181.0 171.0 168.0 90.0L178.0 85.0C228.0 145.0 284.0 227.0 310.0 271.0C334.0 269.0 346.0 279.0 349.0 289.0ZM-239.0 341.0 -253.0 335.0C-235.0 270.0 -222.0 186.0 -229.0 113.0C-141.0 12.0 -20.0 201.0 -239.0 341.0Z"/></g>
</svg>
