<?xml version="1.0" encoding="UTF-8"?>
<svg width="1700" height="300" xmlns="http://www.w3.org/2000/svg">
<rect width="100%" height="100%" fill="white"/>
<g fill="green" transform="translate(100 100) scale(0.1 -0.1)"><path d="M0.0 0.0H-252.0L-278.0 -30.0H0.0ZM362.0 -488.0H-238.0V-518.0H362.0ZM-239.0 -310.0H-273.0V-510.0L-257.0 -480.0C-271.0 -485.0 -291.0 -496.0 -300.0 -505.0L-243.0 -547.0L-222.0 -518.0H-229.0V-316.0ZM-153.0 101.0V117.0H-203.0C-249.0 17.0 -328.0 -75.0 -430.0 -142.0L-418.0 -160.0C-300.0 -96.0 -208.0 -8.0 -153.0 101.0ZM-273.0 -239.0V-330.0C-244.0 -330.0 -229.0 -330.0 -229.0 -330.0V-271.0H-217.0ZM-284.0 -48.0 -295.0 -57.0C-262.0 -81.0 -228.0 -127.0 -223.0 -164.0C-177.0 -198.0 -140.0 -96.0 -284.0 -48.0ZM218.0 -271.0H228.0C224.0 -351.0 217.0 -394.0 206.0 -404.0C200.0 -409.0 194.0 -410.0 180.0 -410.0C163.0 -410.0 114.0 -406.0 85.0 -404.0V-422.0C109.0 -425.0 138.0 -430.0 148.0 -436.0C157.0 -441.0 161.0 -449.0 161.0 -459.0C186.0 -459.0 214.0 -457.0 232.0 -444.0C257.0 -427.0 267.0 -387.0 271.0 -304.0C289.0 -301.0 301.0 -297.0 307.0 -290.0L246.0 -241.0ZM323.0 -488.0H333.0C325.0 -587.0 308.0 -657.0 290.0 -673.0C281.0 -680.0 273.0 -681.0 255.0 -681.0C234.0 -681.0 160.0 -675.0 120.0 -671.0L119.0 -690.0C154.0 -694.0 197.0 -700.0 210.0 -707.0C221.0 -713.0 227.0 -721.0 227.0 -732.0C257.0 -732.0 291.0 -728.0 312.0 -714.0C345.0 -689.0 365.0 -620.0 372.0 -521.0C392.0 -519.0 405.0 -515.0 411.0 -508.0L350.0 -458.0Z"/></g>
<g fill="green" transform="translate(200 100) scale(0.1 -0.1)"><path d="M0.0 0.0H-237.0L-261.0 -28.0H0.0ZM352.0 -503.0H-152.0V-531.0H352.0ZM-166.0 -297.0H-264.0V-513.0L-242.0 -476.0C-259.0 -483.0 -283.0 -504.0 -296.0 -520.0L-165.0 -595.0L-126.0 -531.0H-134.0V-316.0ZM-110.0 92.0V108.0H-260.0C-287.0 3.0 -341.0 -96.0 -427.0 -163.0L-419.0 -176.0C-269.0 -117.0 -162.0 -30.0 -110.0 92.0ZM-264.0 -244.0V-346.0C-174.0 -346.0 -134.0 -346.0 -134.0 -346.0V-286.0H-118.0ZM-282.0 -74.0 -290.0 -80.0C-267.0 -100.0 -249.0 -139.0 -250.0 -175.0C-160.0 -242.0 -64.0 -70.0 -282.0 -74.0ZM200.0 -286.0H210.0C207.0 -347.0 201.0 -380.0 193.0 -387.0C188.0 -391.0 183.0 -392.0 169.0 -392.0C154.0 -392.0 110.0 -390.0 86.0 -388.0V-400.0C118.0 -407.0 138.0 -414.0 151.0 -430.0C164.0 -446.0 167.0 -452.0 167.0 -483.0C224.0 -483.0 258.0 -484.0 288.0 -466.0C322.0 -445.0 330.0 -414.0 336.0 -334.0C354.0 -331.0 365.0 -325.0 372.0 -317.0L262.0 -230.0ZM313.0 -503.0H323.0C313.0 -586.0 297.0 -638.0 279.0 -650.0C272.0 -655.0 264.0 -656.0 249.0 -656.0C230.0 -656.0 180.0 -653.0 150.0 -651.0V-663.0C186.0 -671.0 209.0 -682.0 224.0 -699.0C237.0 -716.0 241.0 -738.0 240.0 -771.0C293.0 -771.0 334.0 -766.0 365.0 -748.0C412.0 -720.0 435.0 -663.0 450.0 -552.0C469.0 -550.0 481.0 -544.0 489.0 -535.0L377.0 -444.0Z"/></g>
<g fill="green" transform="translate(300 100) scale(0.1 -0.1)"><path d="M0.0 0.0H-252.0L-278.0 -30.0H0.0ZM362.0 -488.0H-238.0V-518.0H362.0ZM-239.0 -310.0H-273.0V-510.0L-257.0 -480.0C-271.0 -485.0 -291.0 -496.0 -300.0 -505.0L-243.0 -547.0L-222.0 -518.0H-229.0V-316.0ZM-153.0 101.0V117.0H-203.0C-249.0 17.0 -328.0 -75.0 -430.0 -142.0L-418.0 -160.0C-300.0 -96.0 -208.0 -8.0 -153.0 101.0ZM-273.0 -239.0V-330.0C-244.0 -330.0 -229.0 -330.0 -229.0 -330.0V-271.0H-217.0ZM-284.0 -48.0 -295.0 -57.0C-262.0 -81.0 -228.0 -127.0 -223.0 -164.0C-177.0 -198.0 -140.0 -96.0 -284.0 -48.0ZM218.0 -271.0H228.0C224.0 -351.0 217.0 -394.0 206.0 -404.0C200.0 -409.0 194.0 -410.0 180.0 -410.0C163.0 -410.0 114.0 -406.0 85.0 -404.0V-422.0C109.0 -425.0 138.0 -430.0 148.0 -436.0C157.0 -441.0 161.0 -449.0 161.0 -459.0C186.0 -459.0 214.0 -457.0 232.0 -444.0C257.0 -427.0 267.0 -387.0 271.0 -304.0C289.0 -301.0 301.0 -297.0 307.0 -290.0L246.0 -241.0ZM323.0 -488.0H333.0C325.0 -587.0 308.0 -657.0 290.0 -673.0C281.0 -680.0 273.0 -681.0 255.0 -681.0C234.0 -681.0 160.0 -675.0 120.0 -671.0L119.0 -690.0C154.0 -694.0 197.0 -700.0 210.0 -707.0C221.0 -713.0 227.0 -721.0 227.0 -732.0C257.0 -732.0 291.0 -728.0 312.0 -714.0C345.0 -689.0 365.0 -620.0 372.0 -521.0C392.0 -519.0 405.0 -515.0 411.0 -508.0L350.0 -458.0Z"/></g>
<g fill="green" transform="translate(400 100) scale(0.1 -0.1)"><path d="M0.0 0.0H-237.0L-261.0 -28.0H0.0ZM352.0 -503.0H-152.0V-531.0H352.0ZM-166.0 -297.0H-264.0V-513.0L-242.0 -476.0C-259.0 -483.0 -283.0 -504.0 -296.0 -520.0L-165.0 -595.0L-126.0 -531.0H-134.0V-316.0ZM-110.0 92.0V108.0H-260.0C-287.0 3.0 -341.0 -96.0 -427.0 -163.0L-419.0 -176.0C-269.0 -117.0 -162.0 -30.0 -110.0 92.0ZM-264.0 -244.0V-346.0C-174.0 -346.0 -134.0 -346.0 -134.0 -346.0V-286.0H-118.0ZM-282.0 -74.0 -290.0 -80.0C-267.0 -100.0 -249.0 -139.0 -250.0 -175.0C-160.0 -242.0 -64.0 -70.0 -282.0 -74.0ZM200.0 -286.0H210.0C207.0 -347.0 201.0 -380.0 193.0 -387.0C188.0 -391.0 183.0 -392.0 169.0 -392.0C154.0 -392.0 110.0 -390.0 86.0 -388.0V-400.0C118.0 -407.0 138.0 -414.0 151.0 -430.0C164.0 -446.0 167.0 -452.0 167.0 -483.0C224.0 -483.0 258.0 -484.0 288.0 -466.0C322.0 -445.0 330.0 -414.0 336.0 -334.0C354.0 -331.0 365.0 -325.0 372.0 -317.0L262.0 -230.0ZM313.0 -503.0H323.0C313.0 -586.0 297.0 -638.0 279.0 -650.0C272.0 -655.0 264.0 -656.0 249.0 -656.0C230.0 -656.0 180.0 -653.0 150.0 -651.0V-663.0C186.0 -671.0 209.0 -682.0 224.0 -699.0C237.0 -716.0 241.0 -738.0 240.0 -771.0C293.0 -771.0 334.0 -766.0 365.0 -748.0C412.0 -720.0 435.0 -663.0 450.0 -552.0C469.0 -550.0 481.0 -544.0 489.0 -535.0L377.0 -444.0Z"/></g>
<g fill="red" transform="translate(100 200) scale(0.1 -0.1)"><path d="M0.0 0.0H-252.0L-278.0 -30.0H0.0ZM362.0 -488.0H-238.0V-518.0H362.0ZM-239.0 -310.0H-273.0V-510.0L-257.0 -480.0C-271.0 -485.0 -291.0 -496.0 -300.0 -505.0L-243.0 -547.0L-222.0 -518.0H-229.0V-316.0ZM-153.0 101.0V117.0H-203.0C-249.0 17.0 -328.0 -75.0 -430.0 -142.0L-418.0 -160.0C-300.0 -96.0 -208.0 -8.0 -153.0 101.0ZM-273.0 -239.0V-330.0C-244.0 -330.0 -229.0 -330.0 -229.0 -330.0V-271.0H-217.0ZM-284.0 -48.0 -295.0 -57.0C-262.0 -81.0 -228.0 -127.0 -223.0 -164.0C-177.0 -198.0 -140.0 -96.0 -284.0 -48.0ZM218.0 -271.0H228.0C224.0 -351.0 217.0 -394.0 206.0 -404.0C200.0 -409.0 194.0 -410.0 180.0 -410.0C163.0 -410.0 114.0 -406.0 85.0 -404.0V-422.0C109.0 -425.0 138.0 -430.0 148.0 -436.0C157.0 -441.0 161.0 -449.0 161.0 -459.0C186.0 -459.0 214.0 -457.0 232.0 -444.0C257.0 -427.0 267.0 -387.0 271.0 -304.0C289.0 -301.0 301.0 -297.0 307.0 -290.0L246.0 -241.0ZM323.0 -488.0H333.0C325.0 -587.0 308.0 -657.0 290.0 -673.0C281.0 -680.0 273.0 -681.0 255.0 -681.0C234.0 -681.0 160.0 -675.0 120.0 -671.0L119.0 -690.0C154.0 -694.0 197.0 -700.0 210.0 -707.0C221.0 -713.0 227.0 -721.0 227.0 -732.0C257.0 -732.0 291.0 -728.0 312.0 -714.0C345.0 -689.0 365.0 -620.0 372.0 -521.0C392.0 -519.0 405.0 -515.0 411.0 -508.0L350.0 -458.0Z"/></g>
<g fill="black" opacity=".8" transform="translate(100 200) scale(0.1 -0.1)"><path d="M0.0 0.0H-252.0L-278.0 -30.0H0.0ZM362.0 -488.0H-238.0V-518.0H362.0ZM-239.0 -310.0H-273.0V-510.0L-257.0 -480.0C-271.0 -485.0 -291.0 -496.0 -300.0 -505.0L-243.0 -547.0L-222.0 -518.0H-229.0V-316.0ZM-153.0 101.0V117.0H-203.0C-249.0 17.0 -328.0 -75.0 -430.0 -142.0L-418.0 -160.0C-300.0 -96.0 -208.0 -8.0 -153.0 101.0ZM-273.0 -239.0V-330.0C-244.0 -330.0 -229.0 -330.0 -229.0 -330.0V-271.0H-217.0ZM-284.0 -48.0 -295.0 -57.0C-262.0 -81.0 -228.0 -127.0 -223.0 -164.0C-177.0 -198.0 -140.0 -96.0 -284.0 -48.0ZM218.0 -271.0H228.0C224.0 -351.0 217.0 -394.0 206.0 -404.0C200.0 -409.0 194.0 -410.0 180.0 -410.0C163.0 -410.0 114.0 -406.0 85.0 -404.0V-422.0C109.0 -425.0 138.0 -430.0 148.0 -436.0C157.0 -441.0 161.0 -449.0 161.0 -459.0C186.0 -459.0 214.0 -457.0 232.0 -444.0C257.0 -427.0 267.0 -387.0 271.0 -304.0C289.0 -301.0 301.0 -297.0 307.0 -290.0L246.0 -241.0ZM323.0 -488.0H333.0C325.0 -587.0 308.0 -657.0 290.0 -673.0C281.0 -680.0 273.0 -681.0 255.0 -681.0C234.0 -681.0 160.0 -675.0 120.0 -671.0L119.0 -690.0C154.0 -694.0 197.0 -700.0 210.0 -707.0C221.0 -713.0 227.0 -721.0 227.0 -732.0C257.0 -732.0 291.0 -728.0 312.0 -714.0C345.0 -689.0 365.0 -620.0 372.0 -521.0C392.0 -519.0 405.0 -515.0 411.0 -508.0L350.0 -458.0Z"/></g>
<g fill="red" transform="translate(200 200) scale(0.1 -0.1)"><path d="M0.0 0.0H-237.0L-261.0 -28.0H0.0ZM352.0 -503.0H-152.0V-531.0H352.0ZM-166.0 -297.0H-264.0V-513.0L-242.0 -476.0C-259.0 -483.0 -283.0 -504.0 -296.0 -520.0L-165.0 -595.0L-126.0 -531.0H-134.0V-316.0ZM-110.0 92.0V108.0H-260.0C-287.0 3.0 -341.0 -96.0 -427.0 -163.0L-419.0 -176.0C-269.0 -117.0 -162.0 -30.0 -110.0 92.0ZM-264.0 -244.0V-346.0C-174.0 -346.0 -134.0 -346.0 -134.0 -346.0V-286.0H-118.0ZM-282.0 -74.0 -290.0 -80.0C-267.0 -100.0 -249.0 -139.0 -250.0 -175.0C-160.0 -242.0 -64.0 -70.0 -282.0 -74.0ZM200.0 -286.0H210.0C207.0 -347.0 201.0 -380.0 193.0 -387.0C188.0 -391.0 183.0 -392.0 169.0 -392.0C154.0 -392.0 110.0 -390.0 86.0 -388.0V-400.0C118.0 -407.0 138.0 -414.0 151.0 -430.0C164.0 -446.0 167.0 -452.0 167.0 -483.0C224.0 -483.0 258.0 -484.0 288.0 -466.0C322.0 -445.0 330.0 -414.0 336.0 -334.0C354.0 -331.0 365.0 -325.0 372.0 -317.0L262.0 -230.0ZM313.0 -503.0H323.0C313.0 -586.0 297.0 -638.0 279.0 -650.0C272.0 -655.0 264.0 -656.0 249.0 -656.0C230.0 -656.0 180.0 -653.0 150.0 -651.0V-663.0C186.0 -671.0 209.0 -682.0 224.0 -699.0C237.0 -716.0 241.0 -738.0 240.0 -771.0C293.0 -771.0 334.0 -766.0 365.0 -748.0C412.0 -720.0 435.0 -663.0 450.0 -552.0C469.0 -550.0 481.0 -544.0 489.0 -535.0L377.0 -444.0Z"/></g>
<g fill="black" opacity=".8" transform="translate(200 200) scale(0.1 -0.1)"><path d="M0.0 0.0H-237.0L-261.0 -28.0H0.0ZM352.0 -503.0H-152.0V-531.0H352.0ZM-166.0 -297.0H-264.0V-513.0L-242.0 -476.0C-259.0 -483.0 -283.0 -504.0 -296.0 -520.0L-165.0 -595.0L-126.0 -531.0H-134.0V-316.0ZM-110.0 92.0V108.0H-260.0C-287.0 3.0 -341.0 -96.0 -427.0 -163.0L-419.0 -176.0C-269.0 -117.0 -162.0 -30.0 -110.0 92.0ZM-264.0 -244.0V-346.0C-174.0 -346.0 -134.0 -346.0 -134.0 -346.0V-286.0H-118.0ZM-282.0 -74.0 -290.0 -80.0C-267.0 -100.0 -249.0 -139.0 -250.0 -175.0C-160.0 -242.0 -64.0 -70.0 -282.0 -74.0ZM200.0 -286.0H210.0C207.0 -347.0 201.0 -380.0 193.0 -387.0C188.0 -391.0 183.0 -392.0 169.0 -392.0C154.0 -392.0 110.0 -390.0 86.0 -388.0V-400.0C118.0 -407.0 138.0 -414.0 151.0 -430.0C164.0 -446.0 167.0 -452.0 167.0 -483.0C224.0 -483.0 258.0 -484.0 288.0 -466.0C322.0 -445.0 330.0 -414.0 336.0 -334.0C354.0 -331.0 365.0 -325.0 372.0 -317.0L262.0 -230.0ZM313.0 -503.0H323.0C313.0 -586.0 297.0 -638.0 279.0 -650.0C272.0 -655.0 264.0 -656.0 249.0 -656.0C230.0 -656.0 180.0 -653.0 150.0 -651.0V-663.0C186.0 -671.0 209.0 -682.0 224.0 -699.0C237.0 -716.0 241.0 -738.0 240.0 -771.0C293.0 -771.0 334.0 -766.0 365.0 -748.0C412.0 -720.0 435.0 -663.0 450.0 -552.0C469.0 -550.0 481.0 -544.0 489.0 -535.0L377.0 -444.0Z"/></g>
</svg>
