<?xml version="1.0" encoding="UTF-8"?>
<svg width="1700" height="300" xmlns="http://www.w3.org/2000/svg">
<rect width="100%" height="100%" fill="white"/>
<g fill="green" transform="translate(100 100) scale(0.1 -0.1)"><path d="M0.0 0.0 -49.0 19.0 -74.0 -14.0V-272.0H-66.0C-49.0 -272.0 -31.0 -260.0 -30.0 -255.0V-18.0C-14.0 -15.0 -3.0 -9.0 0.0 0.0ZM58.0 105.0H-19.0C-119.0 -26.0 -323.0 -154.0 -524.0 -229.0L-516.0 -245.0C-295.0 -175.0 -70.0 -52.0 58.0 105.0ZM25.0 -7.0 22.0 -24.0C148.0 -65.0 268.0 -144.0 323.0 -210.0C382.0 -247.0 396.0 -184.0 322.0 -128.0C260.0 -83.0 156.0 -38.0 25.0 -7.0Z"/></g>
<g fill="green" transform="translate(200 100) scale(0.1 -0.1)"><path d="M0.0 0.0 -131.0 48.0 -181.0 -18.0V-292.0H-153.0C-91.0 -292.0 -33.0 -262.0 -31.0 -250.0V-19.0C-13.0 -16.0 -3.0 -9.0 0.0 0.0ZM50.0 123.0H-157.0C-220.0 -8.0 -396.0 -158.0 -570.0 -249.0L-565.0 -259.0C-325.0 -190.0 -78.0 -57.0 50.0 123.0ZM7.0 -20.0 4.0 -30.0C98.0 -70.0 182.0 -150.0 220.0 -207.0C318.0 -291.0 396.0 -162.0 311.0 -91.0C243.0 -34.0 133.0 -14.0 7.0 -20.0Z"/></g>
<g fill="green" transform="translate(300 100) scale(0.1 -0.1)"><path d="M0.0 0.0 -49.0 19.0 -74.0 -14.0V-272.0H-66.0C-49.0 -272.0 -31.0 -260.0 -30.0 -255.0V-18.0C-14.0 -15.0 -3.0 -9.0 0.0 0.0ZM58.0 105.0H-19.0C-119.0 -26.0 -323.0 -154.0 -524.0 -229.0L-516.0 -245.0C-295.0 -175.0 -70.0 -52.0 58.0 105.0ZM25.0 -7.0 22.0 -24.0C148.0 -65.0 268.0 -144.0 323.0 -210.0C382.0 -247.0 396.0 -184.0 322.0 -128.0C260.0 -83.0 156.0 -38.0 25.0 -7.0Z"/></g>
<g fill="green" transform="translate(400 100) scale(0.1 -0.1)"><path d="M0.0 0.0 -131.0 48.0 -181.0 -18.0V-292.0H-153.0C-91.0 -292.0 -33.0 -262.0 -31.0 -250.0V-19.0C-13.0 -16.0 -3.0 -9.0 0.0 0.0ZM50.0 123.0H-157.0C-220.0 -8.0 -396.0 -158.0 -570.0 -249.0L-565.0 -259.0C-325.0 -190.0 -78.0 -57.0 50.0 123.0ZM7.0 -20.0 4.0 -30.0C98.0 -70.0 182.0 -150.0 220.0 -207.0C318.0 -291.0 396.0 -162.0 311.0 -91.0C243.0 -34.0 133.0 -14.0 7.0 -20.0Z"/></g>
<g fill="red" transform="translate(100 200) scale(0.1 -0.1)"><path d="M0.0 0.0 -49.0 19.0 -74.0 -14.0V-272.0H-66.0C-49.0 -272.0 -31.0 -260.0 -30.0 -255.0V-18.0C-14.0 -15.0 -3.0 -9.0 0.0 0.0ZM58.0 105.0H-19.0C-119.0 -26.0 -323.0 -154.0 -524.0 -229.0L-516.0 -245.0C-295.0 -175.0 -70.0 -52.0 58.0 105.0ZM25.0 -7.0 22.0 -24.0C148.0 -65.0 268.0 -144.0 323.0 -210.0C382.0 -247.0 396.0 -184.0 322.0 -128.0C260.0 -83.0 156.0 -38.0 25.0 -7.0Z"/></g>
<g fill="black" opacity=".8" transform="translate(100 200) scale(0.1 -0.1)"><path d="M0.0 0.0 -49.0 19.0 -74.0 -14.0V-272.0H-66.0C-49.0 -272.0 -31.0 -260.0 -30.0 -255.0V-18.0C-14.0 -15.0 -3.0 -9.0 0.0 0.0ZM58.0 105.0H-19.0C-119.0 -26.0 -323.0 -154.0 -524.0 -229.0L-516.0 -245.0C-295.0 -175.0 -70.0 -52.0 58.0 105.0ZM25.0 -7.0 22.0 -24.0C148.0 -65.0 268.0 -144.0 323.0 -210.0C382.0 -247.0 396.0 -184.0 322.0 -128.0C260.0 -83.0 156.0 -38.0 25.0 -7.0Z"/></g>
<g fill="red" transform="translate(200 200) scale(0.1 -0.1)"><path d="M0.0 0.0 -131.0 48.0 -181.0 -18.0V-292.0H-153.0C-91.0 -292.0 -33.0 -262.0 -31.0 -250.0V-19.0C-13.0 -16.0 -3.0 -9.0 0.0 0.0ZM50.0 123.0H-157.0C-220.0 -8.0 -396.0 -158.0 -570.0 -249.0L-565.0 -259.0C-325.0 -190.0 -78.0 -57.0 50.0 123.0ZM7.0 -20.0 4.0 -30.0C98.0 -70.0 182.0 -150.0 220.0 -207.0C318.0 -291.0 396.0 -162.0 311.0 -91.0C243.0 -34.0 133.0 -14.0 7.0 -20.0Z"/></g>
<g fill="black" opacity=".8" transform="translate(200 200) scale(0.1 -0.1)"><path d="M0.0 0.0 -131.0 48.0 -181.0 -18.0V-292.0H-153.0C-91.0 -292.0 -33.0 -262.0 -31.0 -250.0V-19.0C-13.0 -16.0 -3.0 -9.0 0.0 0.0ZM50.0 123.0H-157.0C-220.0 -8.0 -396.0 -158.0 -570.0 -249.0L-565.0 -259.0C-325.0 -190.0 -78.0 -57.0 50.0 123.0ZM7.0 -20.0 4.0 -30.0C98.0 -70.0 182.0 -150.0 220.0 -207.0C318.0 -291.0 396.0 -162.0 311.0 -91.0C243.0 -34.0 133.0 -14.0 7.0 -20.0Z"/></g>
</svg>
