<?xml version="1.0" encoding="UTF-8"?>
<svg width="1700" height="300" xmlns="http://www.w3.org/2000/svg">
<rect width="100%" height="100%" fill="white"/>
<g fill="green" transform="translate(100 100) scale(0.1 -0.1)"><path d="M0.0 0.0H10.0V-299.0H16.0C31.0 -299.0 53.0 -287.0 54.0 -281.0V-39.0C74.0 -35.0 91.0 -28.0 98.0 -20.0L30.0 33.0ZM-27.0 423.0H-613.0V393.0H-27.0Z"/></g>
<g fill="green" transform="translate(200 100) scale(0.1 -0.1)"><path d="M0.0 0.0H10.0V-349.0H35.0C84.0 -349.0 154.0 -321.0 155.0 -312.0V-51.0C176.0 -47.0 188.0 -37.0 194.0 -29.0L64.0 70.0ZM16.0 412.0H-517.0V384.0H16.0Z"/></g>
<g fill="green" transform="translate(300 100) scale(0.1 -0.1)"><path d="M0.0 0.0H10.0V-299.0H16.0C31.0 -299.0 53.0 -287.0 54.0 -281.0V-39.0C74.0 -35.0 91.0 -28.0 98.0 -20.0L30.0 33.0ZM-27.0 423.0H-613.0V393.0H-27.0Z"/></g>
<g fill="green" transform="translate(400 100) scale(0.1 -0.1)"><path d="M0.0 0.0H10.0V-349.0H35.0C84.0 -349.0 154.0 -321.0 155.0 -312.0V-51.0C176.0 -47.0 188.0 -37.0 194.0 -29.0L64.0 70.0ZM16.0 412.0H-517.0V384.0H16.0Z"/></g>
<g fill="red" transform="translate(100 200) scale(0.1 -0.1)"><path d="M0.0 0.0H10.0V-299.0H16.0C31.0 -299.0 53.0 -287.0 54.0 -281.0V-39.0C74.0 -35.0 91.0 -28.0 98.0 -20.0L30.0 33.0ZM-27.0 423.0H-613.0V393.0H-27.0Z"/></g>
<g fill="black" opacity=".8" transform="translate(100 200) scale(0.1 -0.1)"><path d="M0.0 0.0H10.0V-299.0H16.0C31.0 -299.0 53.0 -287.0 54.0 -281.0V-39.0C74.0 -35.0 91.0 -28.0 98.0 -20.0L30.0 33.0ZM-27.0 423.0H-613.0V393.0H-27.0Z"/></g>
<g fill="red" transform="translate(200 200) scale(0.1 -0.1)"><path d="M0.0 0.0H10.0V-349.0H35.0C84.0 -349.0 154.0 -321.0 155.0 -312.0V-51.0C176.0 -47.0 188.0 -37.0 194.0 -29.0L64.0 70.0ZM16.0 412.0H-517.0V384.0H16.0Z"/></g>
<g fill="black" opacity=".8" transform="translate(200 200) scale(0.1 -0.1)"><path d="M0.0 0.0H10.0V-349.0H35.0C84.0 -349.0 154.0 -321.0 155.0 -312.0V-51.0C176.0 -47.0 188.0 -37.0 194.0 -29.0L64.0 70.0ZM16.0 412.0H-517.0V384.0H16.0Z"/></g>
</svg>
