<?xml version="1.0" encoding="UTF-8"?>
<svg width="1700" height="400" xmlns="http://www.w3.org/2000/svg">
<rect width="100%" height="100%" fill="white"/>
<g fill="green" transform="translate(100 100) scale(0.1 -0.1)"><path d="M-0.0 0.0 -65.0 33.0C-99.0 -55.0 -169.0 -157.0 -249.0 -219.0L-239.0 -233.0C-150.0 -176.0 -71.0 -83.0 -32.0 -3.0C-14.0 -9.0 -5.0 -8.0 0.0 0.0ZM476.0 -483.0 441.0 -527.0H-333.0L-321.0 -554.0H516.0C528.0 -554.0 536.0 -550.0 538.0 -540.0C514.0 -515.0 476.0 -483.0 476.0 -483.0Z"/></g>
<g fill="green" transform="translate(200 100) scale(0.1 -0.1)"><path d="M0.0 0.0 -150.0 67.0C-183.0 -29.0 -253.0 -162.0 -324.0 -236.0L-317.0 -245.0C-205.0 -187.0 -95.0 -89.0 -32.0 -7.0C-12.0 -10.0 -4.0 -8.0 0.0 0.0ZM406.0 -466.0 372.0 -527.0H-354.0L-342.0 -552.0H444.0C456.0 -552.0 464.0 -548.0 467.0 -538.0C447.0 -510.0 406.0 -466.0 406.0 -466.0Z"/></g>
<g fill="green" transform="translate(300 100) scale(0.1 -0.1)"><path d="M0.0 0.0 -11.0 17.0C-23.0 11.0 -50.0 -1.0 -84.0 -8.0L-83.0 -15.0C-50.0 -8.0 -19.0 4.0 -8.0 7.0C-5.0 2.0 -2.0 -1.0 0.0 0.0ZM245.0 -290.0 236.0 -301.0H-186.0L-178.0 -308.0H253.0C256.0 -308.0 258.0 -308.0 258.0 -305.0C253.0 -298.0 245.0 -290.0 245.0 -290.0Z"/></g>
<g fill="green" transform="translate(400 100) scale(0.1 -0.1)"><path d="M0.0 0.0 -29.0 32.0C-47.0 21.0 -81.0 -15.0 -112.0 -30.0L-111.0 -34.0C-74.0 -21.0 -28.0 5.0 -6.0 4.0C-2.0 2.0 -2.0 0.0 0.0 0.0ZM223.0 -306.0 227.0 -309.0H-171.0L-163.0 -316.0H212.0C215.0 -316.0 216.0 -315.0 217.0 -313.0C221.0 -310.0 223.0 -306.0 223.0 -306.0Z"/></g>
<g fill="green" transform="translate(500 100) scale(0.1 -0.1)"><path d="M-0.0 0.0 -104.0 52.0C-162.0 -125.0 -265.0 -286.0 -374.0 -392.0L-355.0 -412.0C-234.0 -320.0 -121.0 -177.0 -52.0 -17.0C-26.0 -23.0 -7.0 -13.0 0.0 0.0ZM627.0 -250.0 566.0 -321.0H-274.0L-269.0 -364.0H701.0C720.0 -364.0 734.0 -357.0 737.0 -341.0C694.0 -301.0 627.0 -250.0 627.0 -250.0Z"/></g>
<g fill="green" transform="translate(600 100) scale(0.1 -0.1)"><path d="M0.0 0.0 -256.0 115.0C-304.0 -75.0 -404.0 -281.0 -500.0 -412.0L-485.0 -425.0C-319.0 -337.0 -163.0 -205.0 -57.0 -22.0C-27.0 -26.0 -7.0 -16.0 0.0 0.0ZM454.0 -171.0 359.0 -300.0H-339.0L-334.0 -340.0H585.0C606.0 -340.0 622.0 -333.0 627.0 -317.0C563.0 -259.0 454.0 -171.0 454.0 -171.0Z"/></g>
<g fill="green" transform="translate(700 100) scale(0.1 -0.1)"><path d="M-0.0 0.0 -106.0 27.0C-140.0 -118.0 -220.0 -297.0 -316.0 -399.0L-299.0 -413.0C-183.0 -316.0 -88.0 -150.0 -44.0 -13.0C-14.0 -17.0 -4.0 -12.0 0.0 0.0ZM368.0 -479.0 322.0 -541.0H-307.0L-298.0 -578.0H421.0C438.0 -578.0 449.0 -572.0 452.0 -559.0C420.0 -525.0 368.0 -479.0 368.0 -479.0Z"/></g>
<g fill="green" transform="translate(800 100) scale(0.1 -0.1)"><path d="M0.0 0.0 -220.0 49.0C-250.0 -105.0 -323.0 -303.0 -408.0 -413.0L-397.0 -422.0C-244.0 -324.0 -120.0 -161.0 -46.0 -16.0C-13.0 -18.0 -4.0 -12.0 0.0 0.0ZM273.0 -457.0 220.0 -554.0H-351.0L-341.0 -588.0H334.0C350.0 -588.0 362.0 -582.0 365.0 -569.0C335.0 -525.0 273.0 -457.0 273.0 -457.0Z"/></g>
<g fill="green" transform="translate(900 100) scale(0.1 -0.1)"><path d="M0.0 0.0 -58.0 27.0C-100.0 -75.0 -174.0 -173.0 -247.0 -225.0L-237.0 -235.0C-155.0 -188.0 -77.0 -102.0 -29.0 -7.0C-12.0 -12.0 -4.0 -7.0 0.0 0.0ZM449.0 -499.0 419.0 -537.0H-351.0L-340.0 -560.0H482.0C493.0 -560.0 500.0 -556.0 501.0 -548.0C481.0 -527.0 449.0 -499.0 449.0 -499.0Z"/></g>
<g fill="green" transform="translate(1000 100) scale(0.1 -0.1)"><path d="M0.0 0.0 -143.0 60.0C-180.0 -52.0 -252.0 -164.0 -323.0 -225.0L-317.0 -231.0C-204.0 -186.0 -105.0 -114.0 -32.0 -10.0C-13.0 -13.0 -4.0 -9.0 0.0 0.0ZM432.0 -449.0 395.0 -514.0H-397.0L-386.0 -535.0H478.0C488.0 -535.0 496.0 -532.0 498.0 -523.0C475.0 -495.0 432.0 -449.0 432.0 -449.0Z"/></g>
<g fill="green" transform="translate(1100 100) scale(0.1 -0.1)"><path d="M-0.0 0.0 -68.0 30.0C-94.0 -52.0 -148.0 -167.0 -212.0 -238.0L-199.0 -250.0C-126.0 -182.0 -61.0 -77.0 -32.0 -4.0C-12.0 -8.0 -5.0 -8.0 0.0 0.0ZM479.0 -487.0 444.0 -531.0H-307.0L-295.0 -558.0H518.0C529.0 -558.0 538.0 -554.0 540.0 -544.0C518.0 -519.0 479.0 -487.0 479.0 -487.0Z"/></g>
<g fill="green" transform="translate(1200 100) scale(0.1 -0.1)"><path d="M0.0 0.0 -150.0 50.0C-172.0 -46.0 -227.0 -187.0 -289.0 -267.0L-282.0 -275.0C-177.0 -209.0 -80.0 -97.0 -30.0 -9.0C-10.0 -11.0 -3.0 -8.0 0.0 0.0ZM416.0 -465.0 384.0 -524.0H-337.0L-326.0 -549.0H451.0C463.0 -549.0 471.0 -545.0 474.0 -535.0C455.0 -508.0 416.0 -465.0 416.0 -465.0Z"/></g>
<g fill="green" transform="translate(1300 100) scale(0.1 -0.1)"><path d="M0.0 0.0 -76.0 31.0C-106.0 -58.0 -173.0 -167.0 -255.0 -243.0L-243.0 -260.0C-152.0 -191.0 -73.0 -88.0 -37.0 -7.0C-16.0 -12.0 -5.0 -11.0 0.0 0.0ZM470.0 -475.0 429.0 -527.0H-335.0L-323.0 -559.0H520.0C534.0 -559.0 543.0 -554.0 546.0 -542.0C517.0 -513.0 470.0 -475.0 470.0 -475.0Z"/></g>
<g fill="green" transform="translate(1400 100) scale(0.1 -0.1)"><path d="M0.0 0.0 -167.0 72.0C-189.0 -4.0 -243.0 -140.0 -300.0 -220.0L-291.0 -231.0C-193.0 -172.0 -85.0 -71.0 -34.0 -9.0C-13.0 -12.0 -3.0 -10.0 0.0 0.0ZM402.0 -462.0 363.0 -527.0H-361.0L-348.0 -556.0H447.0C461.0 -556.0 470.0 -551.0 474.0 -540.0C449.0 -508.0 402.0 -462.0 402.0 -462.0Z"/></g>
<g fill="red" transform="translate(100 200) scale(0.1 -0.1)"><path d="M0.0 0.0 -80.0 26.0C-116.0 -111.0 -180.0 -240.0 -246.0 -322.0L-231.0 -333.0C-152.0 -260.0 -82.0 -144.0 -37.0 -18.0C-16.0 -20.0 -4.0 -10.0 0.0 0.0ZM279.0 -88.0 239.0 -138.0H-128.0V-168.0H330.0C344.0 -168.0 353.0 -163.0 356.0 -152.0C326.0 -124.0 279.0 -88.0 279.0 -88.0Z"/></g>
<g fill="black" opacity=".8" transform="translate(100 200) scale(0.1 -0.1)"><path d="M0.0 0.0 -78.0 24.0C-116.0 -119.0 -183.0 -244.0 -250.0 -321.0L-234.0 -332.0C-157.0 -264.0 -84.0 -151.0 -36.0 -19.0C-15.0 -21.0 -2.0 -9.0 0.0 0.0ZM282.0 -86.0 242.0 -135.0H-131.0L-132.0 -164.0H331.0C344.0 -164.0 354.0 -159.0 355.0 -149.0C327.0 -122.0 282.0 -86.0 282.0 -86.0Z"/></g>
<g fill="red" transform="translate(200 200) scale(0.1 -0.1)"><path d="M0.0 0.0 -189.0 62.0C-213.0 -79.0 -269.0 -218.0 -329.0 -307.0L-319.0 -314.0C-205.0 -254.0 -109.0 -162.0 -41.0 -20.0C-17.0 -21.0 -4.0 -13.0 0.0 0.0ZM195.0 -12.0 123.0 -110.0H-197.0V-138.0H295.0C310.0 -138.0 321.0 -133.0 324.0 -122.0C276.0 -78.0 195.0 -12.0 195.0 -12.0Z"/></g>
<g fill="black" opacity=".8" transform="translate(200 200) scale(0.1 -0.1)"><path d="M0.0 0.0 -183.0 59.0C-209.0 -85.0 -266.0 -221.0 -322.0 -307.0L-311.0 -314.0C-200.0 -253.0 -112.0 -168.0 -41.0 -20.0C-18.0 -22.0 -4.0 -12.0 0.0 0.0ZM194.0 -15.0 122.0 -113.0H-198.0V-139.0H296.0C310.0 -139.0 322.0 -135.0 324.0 -125.0C275.0 -80.0 194.0 -15.0 194.0 -15.0Z"/></g>
<g fill="red" transform="translate(300 200) scale(0.1 -0.1)"><path d="M0.0 0.0 -89.0 16.0C-120.0 -109.0 -187.0 -261.0 -263.0 -349.0L-249.0 -359.0C-155.0 -276.0 -77.0 -134.0 -37.0 -16.0C-11.0 -17.0 -3.0 -12.0 0.0 0.0ZM309.0 -411.0 272.0 -462.0H-284.0L-276.0 -492.0H353.0C367.0 -492.0 376.0 -487.0 379.0 -476.0C352.0 -448.0 309.0 -411.0 309.0 -411.0Z"/></g>
<g fill="black" opacity=".8" transform="translate(300 200) scale(0.1 -0.1)"><path d="M0.0 0.0 -91.0 19.0C-120.0 -108.0 -185.0 -259.0 -260.0 -348.0L-244.0 -359.0C-153.0 -276.0 -76.0 -134.0 -38.0 -15.0C-12.0 -17.0 -3.0 -11.0 0.0 0.0ZM306.0 -411.0 266.0 -464.0H-268.0L-261.0 -496.0H352.0C367.0 -496.0 376.0 -491.0 379.0 -480.0C352.0 -451.0 306.0 -411.0 306.0 -411.0Z"/></g>
<g fill="red" transform="translate(400 200) scale(0.1 -0.1)"><path d="M0.0 0.0 -185.0 38.0C-204.0 -89.0 -253.0 -247.0 -313.0 -337.0L-305.0 -344.0C-187.0 -266.0 -95.0 -137.0 -38.0 -16.0C-11.0 -17.0 -3.0 -11.0 0.0 0.0ZM256.0 -379.0 211.0 -462.0H-329.0L-321.0 -490.0H307.0C321.0 -490.0 330.0 -485.0 333.0 -474.0C308.0 -437.0 256.0 -379.0 256.0 -379.0Z"/></g>
<g fill="black" opacity=".8" transform="translate(400 200) scale(0.1 -0.1)"><path d="M0.0 0.0 -189.0 39.0C-209.0 -85.0 -260.0 -243.0 -322.0 -332.0L-312.0 -339.0C-193.0 -263.0 -97.0 -137.0 -39.0 -16.0C-12.0 -18.0 -3.0 -11.0 0.0 0.0ZM255.0 -377.0 207.0 -462.0H-321.0L-313.0 -490.0H313.0C326.0 -490.0 337.0 -485.0 340.0 -475.0C310.0 -436.0 255.0 -377.0 255.0 -377.0Z"/></g>
<g fill="red" transform="translate(500 200) scale(0.1 -0.1)"><path d="M0.0 0.0 -76.0 32.0C-126.0 -106.0 -209.0 -232.0 -289.0 -307.0L-275.0 -319.0C-184.0 -253.0 -97.0 -143.0 -38.0 -15.0C-17.0 -18.0 -5.0 -10.0 0.0 0.0ZM510.0 -405.0 469.0 -454.0H-321.0L-312.0 -484.0H558.0C572.0 -484.0 581.0 -479.0 583.0 -468.0C555.0 -440.0 510.0 -405.0 510.0 -405.0Z"/></g>
<g fill="black" opacity=".8" transform="translate(500 200) scale(0.1 -0.1)"><path d="M0.0 0.0 -78.0 33.0C-126.0 -103.0 -208.0 -230.0 -289.0 -306.0L-274.0 -319.0C-183.0 -252.0 -95.0 -140.0 -38.0 -14.0C-17.0 -18.0 -5.0 -10.0 0.0 0.0ZM509.0 -404.0 467.0 -455.0H-321.0L-313.0 -486.0H558.0C572.0 -486.0 582.0 -481.0 584.0 -470.0C555.0 -442.0 509.0 -404.0 509.0 -404.0Z"/></g>
<g fill="red" transform="translate(600 200) scale(0.1 -0.1)"><path d="M0.0 0.0 -187.0 76.0C-226.0 -70.0 -302.0 -212.0 -375.0 -298.0L-366.0 -306.0C-239.0 -248.0 -127.0 -159.0 -42.0 -18.0C-19.0 -20.0 -5.0 -13.0 0.0 0.0ZM453.0 -331.0 390.0 -423.0H-389.0L-381.0 -451.0H537.0C551.0 -451.0 562.0 -446.0 565.0 -435.0C524.0 -394.0 453.0 -331.0 453.0 -331.0Z"/></g>
<g fill="black" opacity=".8" transform="translate(600 200) scale(0.1 -0.1)"><path d="M0.0 0.0 -190.0 76.0C-227.0 -68.0 -303.0 -212.0 -378.0 -299.0L-368.0 -307.0C-239.0 -248.0 -126.0 -158.0 -42.0 -17.0C-19.0 -20.0 -5.0 -13.0 0.0 0.0ZM453.0 -329.0 390.0 -422.0H-388.0L-380.0 -450.0H537.0C551.0 -450.0 563.0 -446.0 566.0 -434.0C524.0 -393.0 453.0 -329.0 453.0 -329.0Z"/></g>
<g fill="red" transform="translate(700 200) scale(0.1 -0.1)"><path d="M0.0 0.0 -81.0 25.0C-114.0 -111.0 -170.0 -251.0 -226.0 -341.0L-209.0 -350.0C-141.0 -269.0 -78.0 -143.0 -37.0 -19.0C-15.0 -19.0 -4.0 -10.0 0.0 0.0ZM334.0 -80.0 293.0 -130.0H-110.0V-160.0H385.0C398.0 -160.0 408.0 -155.0 411.0 -144.0C382.0 -116.0 334.0 -80.0 334.0 -80.0Z"/></g>
<g fill="black" opacity=".8" transform="translate(700 200) scale(0.1 -0.1)"><path d="M0.0 0.0 -83.0 27.0C-115.0 -112.0 -170.0 -250.0 -227.0 -339.0L-208.0 -349.0C-141.0 -269.0 -77.0 -144.0 -37.0 -18.0C-15.0 -19.0 -3.0 -9.0 0.0 0.0ZM333.0 -79.0 290.0 -130.0H-106.0L-107.0 -160.0H385.0C398.0 -160.0 409.0 -156.0 410.0 -145.0C382.0 -116.0 333.0 -79.0 333.0 -79.0Z"/></g>
<g fill="red" transform="translate(800 200) scale(0.1 -0.1)"><path d="M0.0 0.0 -188.0 53.0C-208.0 -96.0 -257.0 -251.0 -311.0 -352.0L-300.0 -359.0C-190.0 -286.0 -102.0 -176.0 -40.0 -22.0C-17.0 -22.0 -4.0 -13.0 0.0 0.0ZM226.0 -7.0 154.0 -105.0H-180.0V-133.0H326.0C341.0 -133.0 352.0 -128.0 355.0 -117.0C307.0 -73.0 226.0 -7.0 226.0 -7.0Z"/></g>
<g fill="black" opacity=".8" transform="translate(800 200) scale(0.1 -0.1)"><path d="M0.0 0.0 -190.0 52.0C-209.0 -97.0 -259.0 -251.0 -313.0 -351.0L-301.0 -358.0C-190.0 -285.0 -104.0 -178.0 -40.0 -22.0C-17.0 -23.0 -4.0 -12.0 0.0 0.0ZM225.0 -6.0 152.0 -106.0H-176.0L-177.0 -134.0H328.0C343.0 -134.0 355.0 -128.0 358.0 -118.0C308.0 -73.0 225.0 -6.0 225.0 -6.0Z"/></g>
<g fill="red" transform="translate(900 200) scale(0.1 -0.1)"><path d="M0.0 0.0 -71.0 29.0C-97.0 -58.0 -152.0 -164.0 -219.0 -240.0L-207.0 -255.0C-131.0 -186.0 -66.0 -87.0 -35.0 -9.0C-16.0 -12.0 -5.0 -10.0 0.0 0.0ZM406.0 -300.0 367.0 -349.0H-230.0L-222.0 -379.0H455.0C468.0 -379.0 477.0 -374.0 480.0 -363.0C452.0 -335.0 406.0 -300.0 406.0 -300.0Z"/></g>
<g fill="black" opacity=".8" transform="translate(900 200) scale(0.1 -0.1)"><path d="M0.0 0.0 -71.0 29.0C-98.0 -61.0 -153.0 -164.0 -221.0 -239.0L-208.0 -254.0C-133.0 -187.0 -66.0 -89.0 -35.0 -9.0C-16.0 -13.0 -4.0 -10.0 0.0 0.0ZM407.0 -299.0 367.0 -348.0H-232.0L-225.0 -377.0H455.0C468.0 -377.0 477.0 -373.0 480.0 -362.0C452.0 -334.0 407.0 -299.0 407.0 -299.0Z"/></g>
<g fill="red" transform="translate(1000 200) scale(0.1 -0.1)"><path d="M0.0 0.0 -160.0 67.0C-177.0 -13.0 -222.0 -144.0 -272.0 -225.0L-263.0 -235.0C-174.0 -178.0 -77.0 -82.0 -32.0 -11.0C-13.0 -13.0 -3.0 -10.0 0.0 0.0ZM322.0 -275.0 276.0 -341.0H-264.0L-256.0 -369.0H379.0C393.0 -369.0 402.0 -364.0 405.0 -353.0C375.0 -321.0 322.0 -275.0 322.0 -275.0Z"/></g>
<g fill="black" opacity=".8" transform="translate(1000 200) scale(0.1 -0.1)"><path d="M0.0 0.0 -159.0 65.0C-176.0 -16.0 -221.0 -145.0 -269.0 -226.0L-259.0 -236.0C-172.0 -178.0 -78.0 -85.0 -32.0 -11.0C-13.0 -14.0 -3.0 -10.0 0.0 0.0ZM321.0 -275.0 275.0 -343.0H-264.0L-256.0 -370.0H380.0C394.0 -370.0 403.0 -365.0 406.0 -355.0C375.0 -322.0 321.0 -275.0 321.0 -275.0Z"/></g>
<g fill="red" transform="translate(1100 200) scale(0.1 -0.1)"><path d="M0.0 0.0 -81.0 25.0C-113.0 -107.0 -170.0 -233.0 -231.0 -314.0L-215.0 -325.0C-142.0 -253.0 -78.0 -141.0 -37.0 -19.0C-16.0 -19.0 -4.0 -10.0 0.0 0.0ZM277.0 -90.0 236.0 -140.0H-121.0V-170.0H328.0C342.0 -170.0 351.0 -165.0 354.0 -154.0C324.0 -126.0 277.0 -90.0 277.0 -90.0Z"/></g>
<g fill="black" opacity=".8" transform="translate(1100 200) scale(0.1 -0.1)"><path d="M0.0 0.0 -81.0 22.0C-111.0 -108.0 -167.0 -234.0 -228.0 -318.0L-211.0 -329.0C-141.0 -254.0 -76.0 -138.0 -37.0 -19.0C-15.0 -20.0 -2.0 -10.0 0.0 0.0ZM278.0 -90.0 236.0 -141.0H-120.0L-121.0 -171.0H330.0C343.0 -171.0 353.0 -166.0 355.0 -155.0C326.0 -128.0 278.0 -90.0 278.0 -90.0Z"/></g>
<g fill="red" transform="translate(1200 200) scale(0.1 -0.1)"><path d="M0.0 0.0 -184.0 52.0C-199.0 -74.0 -237.0 -206.0 -280.0 -292.0L-269.0 -299.0C-174.0 -240.0 -96.0 -148.0 -40.0 -22.0C-17.0 -22.0 -4.0 -13.0 0.0 0.0ZM188.0 -28.0 116.0 -126.0H-176.0V-154.0H288.0C303.0 -154.0 314.0 -149.0 317.0 -138.0C269.0 -94.0 188.0 -28.0 188.0 -28.0Z"/></g>
<g fill="black" opacity=".8" transform="translate(1200 200) scale(0.1 -0.1)"><path d="M0.0 0.0 -182.0 55.0C-198.0 -68.0 -239.0 -205.0 -283.0 -294.0L-271.0 -301.0C-176.0 -239.0 -94.0 -146.0 -38.0 -20.0C-16.0 -22.0 -3.0 -12.0 0.0 0.0ZM188.0 -30.0 121.0 -123.0H-184.0L-183.0 -150.0H284.0C299.0 -150.0 310.0 -145.0 313.0 -135.0C266.0 -92.0 188.0 -30.0 188.0 -30.0Z"/></g>
<g fill="red" transform="translate(1300 200) scale(0.1 -0.1)"><path d="M0.0 0.0 -90.0 14.0C-116.0 -111.0 -173.0 -269.0 -240.0 -360.0L-224.0 -369.0C-140.0 -282.0 -72.0 -136.0 -37.0 -17.0C-11.0 -17.0 -3.0 -11.0 0.0 0.0ZM268.0 -424.0 231.0 -475.0H-246.0L-238.0 -505.0H313.0C326.0 -505.0 335.0 -500.0 338.0 -489.0C313.0 -461.0 268.0 -424.0 268.0 -424.0Z"/></g>
<g fill="black" opacity=".8" transform="translate(1300 200) scale(0.1 -0.1)"><path d="M0.0 0.0 -92.0 15.0C-117.0 -110.0 -175.0 -267.0 -244.0 -358.0L-227.0 -368.0C-142.0 -281.0 -71.0 -134.0 -37.0 -16.0C-10.0 -17.0 -2.0 -11.0 0.0 0.0ZM269.0 -421.0 231.0 -474.0H-258.0L-251.0 -504.0H313.0C327.0 -504.0 336.0 -499.0 338.0 -488.0C313.0 -461.0 269.0 -421.0 269.0 -421.0Z"/></g>
<g fill="red" transform="translate(1400 200) scale(0.1 -0.1)"><path d="M0.0 0.0 -184.0 30.0C-202.0 -93.0 -249.0 -248.0 -307.0 -336.0L-298.0 -342.0C-183.0 -266.0 -92.0 -138.0 -37.0 -17.0C-10.0 -17.0 -2.0 -12.0 0.0 0.0ZM231.0 -390.0 185.0 -469.0H-313.0L-305.0 -497.0H286.0C299.0 -497.0 309.0 -492.0 311.0 -481.0C284.0 -445.0 231.0 -390.0 231.0 -390.0Z"/></g>
<g fill="black" opacity=".8" transform="translate(1400 200) scale(0.1 -0.1)"><path d="M0.0 0.0 -186.0 27.0C-200.0 -96.0 -244.0 -252.0 -302.0 -341.0L-292.0 -347.0C-177.0 -268.0 -90.0 -138.0 -38.0 -17.0C-10.0 -18.0 -2.0 -11.0 0.0 0.0ZM231.0 -388.0 187.0 -470.0H-315.0L-307.0 -498.0H284.0C297.0 -498.0 308.0 -493.0 310.0 -483.0C283.0 -445.0 231.0 -388.0 231.0 -388.0Z"/></g>
<g fill="red" transform="translate(1500 200) scale(0.1 -0.1)"><path d="M0.0 0.0 -85.0 29.0C-114.0 -88.0 -178.0 -231.0 -252.0 -313.0L-237.0 -324.0C-147.0 -246.0 -73.0 -116.0 -37.0 -9.0C-13.0 -13.0 -5.0 -9.0 0.0 0.0ZM357.0 -408.0 319.0 -459.0H-264.0L-256.0 -489.0H401.0C415.0 -489.0 424.0 -484.0 427.0 -473.0C400.0 -445.0 357.0 -408.0 357.0 -408.0Z"/></g>
<g fill="black" opacity=".8" transform="translate(1500 200) scale(0.1 -0.1)"><path d="M0.0 0.0 -83.0 24.0C-113.0 -93.0 -178.0 -235.0 -251.0 -316.0L-237.0 -327.0C-149.0 -250.0 -73.0 -120.0 -36.0 -10.0C-12.0 -14.0 -4.0 -9.0 0.0 0.0ZM360.0 -408.0 323.0 -457.0H-266.0L-258.0 -487.0H403.0C416.0 -487.0 425.0 -482.0 427.0 -472.0C402.0 -444.0 360.0 -408.0 360.0 -408.0Z"/></g>
<g fill="red" transform="translate(1600 200) scale(0.1 -0.1)"><path d="M0.0 0.0 -184.0 43.0C-207.0 -87.0 -266.0 -244.0 -336.0 -332.0L-328.0 -339.0C-201.0 -265.0 -99.0 -137.0 -39.0 -15.0C-12.0 -16.0 -4.0 -11.0 0.0 0.0ZM291.0 -372.0 243.0 -456.0H-302.0L-294.0 -484.0H349.0C363.0 -484.0 372.0 -479.0 375.0 -468.0C347.0 -431.0 291.0 -372.0 291.0 -372.0Z"/></g>
<g fill="black" opacity=".8" transform="translate(1600 200) scale(0.1 -0.1)"><path d="M0.0 0.0 -177.0 43.0C-203.0 -86.0 -264.0 -244.0 -334.0 -333.0L-325.0 -340.0C-200.0 -263.0 -100.0 -138.0 -37.0 -14.0C-12.0 -16.0 -3.0 -10.0 0.0 0.0ZM291.0 -376.0 246.0 -455.0H-310.0L-302.0 -482.0H345.0C358.0 -482.0 368.0 -478.0 371.0 -467.0C344.0 -432.0 291.0 -376.0 291.0 -376.0Z"/></g>
<g fill="red" transform="translate(100 300) scale(0.1 -0.1)"><path d="M0.0 0.0 -80.0 27.0C-118.0 -116.0 -187.0 -248.0 -260.0 -330.0L-246.0 -341.0C-161.0 -269.0 -85.0 -151.0 -37.0 -18.0C-16.0 -19.0 -4.0 -10.0 0.0 0.0ZM301.0 -64.0 259.0 -114.0H-111.0V-144.0H352.0C366.0 -144.0 375.0 -139.0 378.0 -128.0C348.0 -100.0 301.0 -64.0 301.0 -64.0Z"/></g>
<g fill="black" opacity=".8" transform="translate(100 300) scale(0.1 -0.1)"><path d="M0.0 0.0 -83.0 29.0C-119.0 -112.0 -186.0 -244.0 -261.0 -328.0L-245.0 -340.0C-160.0 -266.0 -83.0 -146.0 -38.0 -16.0C-17.0 -19.0 -3.0 -10.0 0.0 0.0ZM299.0 -63.0 256.0 -115.0H-112.0L-113.0 -146.0H352.0C366.0 -146.0 376.0 -142.0 378.0 -130.0C348.0 -101.0 299.0 -63.0 299.0 -63.0Z"/></g>
<g fill="red" transform="translate(200 300) scale(0.1 -0.1)"><path d="M0.0 0.0 -186.0 64.0C-217.0 -86.0 -281.0 -240.0 -343.0 -337.0L-332.0 -345.0C-215.0 -274.0 -116.0 -168.0 -41.0 -19.0C-18.0 -20.0 -5.0 -12.0 0.0 0.0ZM166.0 -13.0 94.0 -111.0H-165.0V-139.0H266.0C281.0 -139.0 292.0 -134.0 295.0 -123.0C248.0 -79.0 166.0 -13.0 166.0 -13.0Z"/></g>
<g fill="black" opacity=".8" transform="translate(200 300) scale(0.1 -0.1)"><path d="M0.0 0.0 -191.0 64.0C-220.0 -84.0 -282.0 -241.0 -346.0 -339.0L-334.0 -347.0C-214.0 -275.0 -114.0 -166.0 -42.0 -19.0C-18.0 -21.0 -5.0 -12.0 0.0 0.0ZM166.0 -10.0 94.0 -110.0H-163.0V-139.0H267.0C282.0 -139.0 294.0 -133.0 297.0 -123.0C249.0 -77.0 166.0 -10.0 166.0 -10.0Z"/></g>
</svg>
