<?xml version="1.0" encoding="UTF-8"?>
<svg width="1700" height="300" xmlns="http://www.w3.org/2000/svg">
<rect width="100%" height="100%" fill="white"/>
<g fill="green" transform="translate(100 100) scale(0.1 -0.1)"><path d="M0.0 0.0 -20.0 -30.0H294.0V0.0ZM-120.0 -138.0V-168.0H480.0V-138.0ZM-116.0 -286.0V-315.0H484.0V-286.0ZM-120.0 -438.0V-467.0H480.0V-438.0ZM460.0 -138.0V-503.0H466.0C481.0 -503.0 504.0 -491.0 505.0 -485.0V-178.0C524.0 -174.0 541.0 -166.0 548.0 -158.0L480.0 -106.0L450.0 -138.0ZM-89.0 -138.0H-78.0L-122.0 -117.0L-134.0 -136.0V-509.0H-127.0C-105.0 -509.0 -89.0 -495.0 -89.0 -491.0ZM162.0 -138.0V-451.0H206.0V-138.0ZM16.0 88.0C-40.0 -32.0 -153.0 -168.0 -269.0 -245.0L-257.0 -259.0C-127.0 -188.0 -7.0 -60.0 59.0 51.0C84.0 47.0 92.0 51.0 97.0 61.0ZM276.0 0.0C254.0 -42.0 208.0 -119.0 168.0 -162.0H187.0C235.0 -129.0 289.0 -70.0 322.0 -35.0C342.0 -34.0 354.0 -32.0 362.0 -26.0L299.0 34.0L264.0 0.0ZM-271.0 -563.0 -262.0 -592.0H610.0C624.0 -592.0 634.0 -587.0 637.0 -576.0C606.0 -548.0 558.0 -510.0 558.0 -510.0L515.0 -563.0ZM204.0 -563.0 186.0 -573.0C261.0 -717.0 400.0 -785.0 605.0 -820.0C610.0 -798.0 625.0 -783.0 646.0 -779.0V-769.0C439.0 -748.0 279.0 -690.0 204.0 -563.0ZM150.0 -481.0C137.0 -628.0 90.0 -721.0 -272.0 -797.0L-264.0 -819.0C128.0 -749.0 176.0 -651.0 196.0 -516.0C218.0 -514.0 229.0 -504.0 231.0 -491.0Z"/></g>
<g fill="green" transform="translate(200 100) scale(0.1 -0.1)"><path d="M0.0 0.0 -20.0 -28.0H331.0V0.0ZM-60.0 -125.0V-153.0H473.0V-125.0ZM-54.0 -283.0V-311.0H474.0V-283.0ZM-54.0 -440.0V-468.0H479.0V-440.0ZM405.0 -125.0V-512.0H430.0C481.0 -512.0 549.0 -479.0 550.0 -469.0V-176.0C571.0 -172.0 583.0 -162.0 589.0 -154.0L459.0 -55.0L395.0 -125.0ZM12.0 -125.0H26.0L-80.0 -86.0L-130.0 -150.0V-531.0H-103.0C-31.0 -531.0 12.0 -500.0 12.0 -490.0ZM137.0 -126.0V-457.0H277.0V-126.0ZM-15.0 117.0C-63.0 -13.0 -168.0 -169.0 -266.0 -254.0L-260.0 -261.0C-105.0 -198.0 48.0 -71.0 141.0 53.0C170.0 51.0 178.0 56.0 182.0 68.0ZM223.0 0.0C211.0 -37.0 183.0 -108.0 159.0 -147.0H170.0C235.0 -125.0 310.0 -82.0 362.0 -47.0C383.0 -46.0 393.0 -43.0 402.0 -34.0L281.0 70.0L212.0 0.0ZM-250.0 -579.0 -242.0 -607.0H653.0C667.0 -607.0 678.0 -602.0 681.0 -591.0C634.0 -550.0 556.0 -489.0 556.0 -489.0L486.0 -579.0ZM247.0 -585.0 237.0 -592.0C299.0 -741.0 419.0 -799.0 590.0 -834.0C601.0 -766.0 631.0 -719.0 682.0 -700.0V-688.0C507.0 -693.0 326.0 -677.0 247.0 -585.0ZM110.0 -477.0C102.0 -626.0 72.0 -729.0 -263.0 -819.0L-258.0 -834.0C191.0 -777.0 235.0 -669.0 260.0 -517.0C283.0 -514.0 293.0 -503.0 295.0 -490.0Z"/></g>
<g fill="green" transform="translate(300 100) scale(0.1 -0.1)"><path d="M0.0 0.0 -20.0 -30.0H294.0V0.0ZM-120.0 -138.0V-168.0H480.0V-138.0ZM-116.0 -286.0V-315.0H484.0V-286.0ZM-120.0 -438.0V-467.0H480.0V-438.0ZM460.0 -138.0V-503.0H466.0C481.0 -503.0 504.0 -491.0 505.0 -485.0V-178.0C524.0 -174.0 541.0 -166.0 548.0 -158.0L480.0 -106.0L450.0 -138.0ZM-89.0 -138.0H-78.0L-122.0 -117.0L-134.0 -136.0V-509.0H-127.0C-105.0 -509.0 -89.0 -495.0 -89.0 -491.0ZM162.0 -138.0V-451.0H206.0V-138.0ZM16.0 88.0C-40.0 -32.0 -153.0 -168.0 -269.0 -245.0L-257.0 -259.0C-127.0 -188.0 -7.0 -60.0 59.0 51.0C84.0 47.0 92.0 51.0 97.0 61.0ZM276.0 0.0C254.0 -42.0 208.0 -119.0 168.0 -162.0H187.0C235.0 -129.0 289.0 -70.0 322.0 -35.0C342.0 -34.0 354.0 -32.0 362.0 -26.0L299.0 34.0L264.0 0.0ZM-271.0 -563.0 -262.0 -592.0H610.0C624.0 -592.0 634.0 -587.0 637.0 -576.0C606.0 -548.0 558.0 -510.0 558.0 -510.0L515.0 -563.0ZM204.0 -563.0 186.0 -573.0C261.0 -717.0 400.0 -785.0 605.0 -820.0C610.0 -798.0 625.0 -783.0 646.0 -779.0V-769.0C439.0 -748.0 279.0 -690.0 204.0 -563.0ZM150.0 -481.0C137.0 -628.0 90.0 -721.0 -272.0 -797.0L-264.0 -819.0C128.0 -749.0 176.0 -651.0 196.0 -516.0C218.0 -514.0 229.0 -504.0 231.0 -491.0Z"/></g>
<g fill="green" transform="translate(400 100) scale(0.1 -0.1)"><path d="M0.0 0.0 -20.0 -28.0H331.0V0.0ZM-60.0 -125.0V-153.0H473.0V-125.0ZM-54.0 -283.0V-311.0H474.0V-283.0ZM-54.0 -440.0V-468.0H479.0V-440.0ZM405.0 -125.0V-512.0H430.0C481.0 -512.0 549.0 -479.0 550.0 -469.0V-176.0C571.0 -172.0 583.0 -162.0 589.0 -154.0L459.0 -55.0L395.0 -125.0ZM12.0 -125.0H26.0L-80.0 -86.0L-130.0 -150.0V-531.0H-103.0C-31.0 -531.0 12.0 -500.0 12.0 -490.0ZM137.0 -126.0V-457.0H277.0V-126.0ZM-15.0 117.0C-63.0 -13.0 -168.0 -169.0 -266.0 -254.0L-260.0 -261.0C-105.0 -198.0 48.0 -71.0 141.0 53.0C170.0 51.0 178.0 56.0 182.0 68.0ZM223.0 0.0C211.0 -37.0 183.0 -108.0 159.0 -147.0H170.0C235.0 -125.0 310.0 -82.0 362.0 -47.0C383.0 -46.0 393.0 -43.0 402.0 -34.0L281.0 70.0L212.0 0.0ZM-250.0 -579.0 -242.0 -607.0H653.0C667.0 -607.0 678.0 -602.0 681.0 -591.0C634.0 -550.0 556.0 -489.0 556.0 -489.0L486.0 -579.0ZM247.0 -585.0 237.0 -592.0C299.0 -741.0 419.0 -799.0 590.0 -834.0C601.0 -766.0 631.0 -719.0 682.0 -700.0V-688.0C507.0 -693.0 326.0 -677.0 247.0 -585.0ZM110.0 -477.0C102.0 -626.0 72.0 -729.0 -263.0 -819.0L-258.0 -834.0C191.0 -777.0 235.0 -669.0 260.0 -517.0C283.0 -514.0 293.0 -503.0 295.0 -490.0Z"/></g>
<g fill="red" transform="translate(100 200) scale(0.1 -0.1)"><path d="M0.0 0.0 -20.0 -30.0H294.0V0.0ZM-120.0 -138.0V-168.0H480.0V-138.0ZM-116.0 -286.0V-315.0H484.0V-286.0ZM-120.0 -438.0V-467.0H480.0V-438.0ZM460.0 -138.0V-503.0H466.0C481.0 -503.0 504.0 -491.0 505.0 -485.0V-178.0C524.0 -174.0 541.0 -166.0 548.0 -158.0L480.0 -106.0L450.0 -138.0ZM-89.0 -138.0H-78.0L-122.0 -117.0L-134.0 -136.0V-509.0H-127.0C-105.0 -509.0 -89.0 -495.0 -89.0 -491.0ZM162.0 -138.0V-451.0H206.0V-138.0ZM16.0 88.0C-40.0 -32.0 -153.0 -168.0 -269.0 -245.0L-257.0 -259.0C-127.0 -188.0 -7.0 -60.0 59.0 51.0C84.0 47.0 92.0 51.0 97.0 61.0ZM276.0 0.0C254.0 -42.0 208.0 -119.0 168.0 -162.0H187.0C235.0 -129.0 289.0 -70.0 322.0 -35.0C342.0 -34.0 354.0 -32.0 362.0 -26.0L299.0 34.0L264.0 0.0ZM-271.0 -563.0 -262.0 -592.0H610.0C624.0 -592.0 634.0 -587.0 637.0 -576.0C606.0 -548.0 558.0 -510.0 558.0 -510.0L515.0 -563.0ZM204.0 -563.0 186.0 -573.0C261.0 -717.0 400.0 -785.0 605.0 -820.0C610.0 -798.0 625.0 -783.0 646.0 -779.0V-769.0C439.0 -748.0 279.0 -690.0 204.0 -563.0ZM150.0 -481.0C137.0 -628.0 90.0 -721.0 -272.0 -797.0L-264.0 -819.0C128.0 -749.0 176.0 -651.0 196.0 -516.0C218.0 -514.0 229.0 -504.0 231.0 -491.0Z"/></g>
<g fill="black" opacity=".8" transform="translate(100 200) scale(0.1 -0.1)"><path d="M0.0 0.0 -20.0 -30.0H294.0V0.0ZM-120.0 -138.0V-168.0H480.0V-138.0ZM-116.0 -286.0V-315.0H484.0V-286.0ZM-120.0 -438.0V-467.0H480.0V-438.0ZM460.0 -138.0V-503.0H466.0C481.0 -503.0 504.0 -491.0 505.0 -485.0V-178.0C524.0 -174.0 541.0 -166.0 548.0 -158.0L480.0 -106.0L450.0 -138.0ZM-89.0 -138.0H-78.0L-122.0 -117.0L-134.0 -136.0V-509.0H-127.0C-105.0 -509.0 -89.0 -495.0 -89.0 -491.0ZM162.0 -138.0V-451.0H206.0V-138.0ZM16.0 88.0C-40.0 -32.0 -153.0 -168.0 -269.0 -245.0L-257.0 -259.0C-127.0 -188.0 -7.0 -60.0 59.0 51.0C84.0 47.0 92.0 51.0 97.0 61.0ZM276.0 0.0C254.0 -42.0 208.0 -119.0 168.0 -162.0H187.0C235.0 -129.0 289.0 -70.0 322.0 -35.0C342.0 -34.0 354.0 -32.0 362.0 -26.0L299.0 34.0L264.0 0.0ZM-271.0 -563.0 -262.0 -592.0H610.0C624.0 -592.0 634.0 -587.0 637.0 -576.0C606.0 -548.0 558.0 -510.0 558.0 -510.0L515.0 -563.0ZM204.0 -563.0 186.0 -573.0C261.0 -717.0 400.0 -785.0 605.0 -820.0C610.0 -798.0 625.0 -783.0 646.0 -779.0V-769.0C439.0 -748.0 279.0 -690.0 204.0 -563.0ZM150.0 -481.0C137.0 -628.0 90.0 -721.0 -272.0 -797.0L-264.0 -819.0C128.0 -749.0 176.0 -651.0 196.0 -516.0C218.0 -514.0 229.0 -504.0 231.0 -491.0Z"/></g>
<g fill="red" transform="translate(200 200) scale(0.1 -0.1)"><path d="M0.0 0.0 -20.0 -28.0H331.0V0.0ZM-60.0 -125.0V-153.0H473.0V-125.0ZM-54.0 -283.0V-311.0H474.0V-283.0ZM-54.0 -440.0V-468.0H479.0V-440.0ZM405.0 -125.0V-512.0H430.0C481.0 -512.0 549.0 -479.0 550.0 -469.0V-176.0C571.0 -172.0 583.0 -162.0 589.0 -154.0L459.0 -55.0L395.0 -125.0ZM12.0 -125.0H26.0L-80.0 -86.0L-130.0 -150.0V-531.0H-103.0C-31.0 -531.0 12.0 -500.0 12.0 -490.0ZM137.0 -126.0V-457.0H277.0V-126.0ZM-15.0 117.0C-63.0 -13.0 -168.0 -169.0 -266.0 -254.0L-260.0 -261.0C-105.0 -198.0 48.0 -71.0 141.0 53.0C170.0 51.0 178.0 56.0 182.0 68.0ZM223.0 0.0C211.0 -37.0 183.0 -108.0 159.0 -147.0H170.0C235.0 -125.0 310.0 -82.0 362.0 -47.0C383.0 -46.0 393.0 -43.0 402.0 -34.0L281.0 70.0L212.0 0.0ZM-250.0 -579.0 -242.0 -607.0H653.0C667.0 -607.0 678.0 -602.0 681.0 -591.0C634.0 -550.0 556.0 -489.0 556.0 -489.0L486.0 -579.0ZM247.0 -585.0 237.0 -592.0C299.0 -741.0 419.0 -799.0 590.0 -834.0C601.0 -766.0 631.0 -719.0 682.0 -700.0V-688.0C507.0 -693.0 326.0 -677.0 247.0 -585.0ZM110.0 -477.0C102.0 -626.0 72.0 -729.0 -263.0 -819.0L-258.0 -834.0C191.0 -777.0 235.0 -669.0 260.0 -517.0C283.0 -514.0 293.0 -503.0 295.0 -490.0Z"/></g>
<g fill="black" opacity=".8" transform="translate(200 200) scale(0.1 -0.1)"><path d="M0.0 0.0 -20.0 -28.0H331.0V0.0ZM-60.0 -125.0V-153.0H473.0V-125.0ZM-54.0 -283.0V-311.0H474.0V-283.0ZM-54.0 -440.0V-468.0H479.0V-440.0ZM405.0 -125.0V-512.0H430.0C481.0 -512.0 549.0 -479.0 550.0 -469.0V-176.0C571.0 -172.0 583.0 -162.0 589.0 -154.0L459.0 -55.0L395.0 -125.0ZM12.0 -125.0H26.0L-80.0 -86.0L-130.0 -150.0V-531.0H-103.0C-31.0 -531.0 12.0 -500.0 12.0 -490.0ZM137.0 -126.0V-457.0H277.0V-126.0ZM-15.0 117.0C-63.0 -13.0 -168.0 -169.0 -266.0 -254.0L-260.0 -261.0C-105.0 -198.0 48.0 -71.0 141.0 53.0C170.0 51.0 178.0 56.0 182.0 68.0ZM223.0 0.0C211.0 -37.0 183.0 -108.0 159.0 -147.0H170.0C235.0 -125.0 310.0 -82.0 362.0 -47.0C383.0 -46.0 393.0 -43.0 402.0 -34.0L281.0 70.0L212.0 0.0ZM-250.0 -579.0 -242.0 -607.0H653.0C667.0 -607.0 678.0 -602.0 681.0 -591.0C634.0 -550.0 556.0 -489.0 556.0 -489.0L486.0 -579.0ZM247.0 -585.0 237.0 -592.0C299.0 -741.0 419.0 -799.0 590.0 -834.0C601.0 -766.0 631.0 -719.0 682.0 -700.0V-688.0C507.0 -693.0 326.0 -677.0 247.0 -585.0ZM110.0 -477.0C102.0 -626.0 72.0 -729.0 -263.0 -819.0L-258.0 -834.0C191.0 -777.0 235.0 -669.0 260.0 -517.0C283.0 -514.0 293.0 -503.0 295.0 -490.0Z"/></g>
</svg>
