<?xml version="1.0" encoding="UTF-8"?>
<svg width="1700" height="400" xmlns="http://www.w3.org/2000/svg">
<rect width="100%" height="100%" fill="white"/>
<g fill="green" transform="translate(100 100) scale(0.1 -0.1)"><path d="M-0.0 0.0H11.0V-252.0H19.0C38.0 -252.0 64.0 -238.0 66.0 -230.0V-45.0C87.0 -41.0 107.0 -32.0 114.0 -24.0L35.0 37.0ZM-47.0 290.0H-36.0V54.0H-28.0C-10.0 54.0 17.0 69.0 19.0 77.0V245.0C40.0 249.0 60.0 258.0 68.0 266.0L-12.0 328.0ZM-540.0 -236.0V253.0H-5.0V290.0H-534.0L-594.0 322.0V-255.0H-584.0C-561.0 -255.0 -540.0 -242.0 -540.0 -236.0ZM38.0 -169.0H-575.0V-206.0H38.0ZM37.0 0.0H-576.0V-37.0H37.0ZM-18.0 131.0H-576.0V94.0H-18.0Z"/></g>
<g fill="green" transform="translate(200 100) scale(0.1 -0.1)"><path d="M0.0 0.0H12.0V-250.0H44.0C98.0 -250.0 188.0 -224.0 189.0 -215.0V-60.0C213.0 -55.0 226.0 -43.0 234.0 -35.0L76.0 81.0ZM-56.0 270.0H-44.0V48.0H-12.0C47.0 48.0 134.0 80.0 133.0 91.0V211.0C157.0 216.0 170.0 225.0 178.0 235.0L20.0 351.0ZM-359.0 -222.0V235.0H33.0V270.0H-352.0L-531.0 340.0V-278.0H-506.0C-434.0 -278.0 -359.0 -239.0 -359.0 -222.0ZM89.0 -169.0H-455.0V-203.0H89.0ZM87.0 0.0H-457.0V-35.0H87.0ZM37.0 119.0H-459.0V85.0H37.0Z"/></g>
<g fill="green" transform="translate(300 100) scale(0.1 -0.1)"><path d="M0.0 0.0H9.0V-185.0H15.0C31.0 -185.0 51.0 -174.0 53.0 -167.0V-36.0C70.0 -33.0 86.0 -26.0 91.0 -19.0L28.0 29.0ZM-37.0 216.0H-28.0V37.0H-21.0C-7.0 37.0 15.0 49.0 16.0 56.0V179.0C33.0 182.0 50.0 190.0 56.0 196.0L-9.0 247.0ZM-452.0 -171.0V186.0H-3.0V216.0H-447.0L-495.0 241.0V-186.0H-487.0C-469.0 -186.0 -452.0 -176.0 -452.0 -171.0ZM31.0 -122.0H-482.0V-152.0H31.0ZM30.0 0.0H-483.0V-30.0H30.0ZM-15.0 98.0H-483.0V68.0H-15.0Z"/></g>
<g fill="green" transform="translate(400 100) scale(0.1 -0.1)"><path d="M0.0 0.0H10.0V-179.0H36.0C79.0 -179.0 153.0 -160.0 153.0 -153.0V-49.0C173.0 -44.0 183.0 -35.0 190.0 -28.0L61.0 65.0ZM-46.0 195.0H-37.0V33.0H-10.0C38.0 33.0 108.0 60.0 107.0 69.0V148.0C127.0 152.0 137.0 159.0 143.0 167.0L15.0 261.0ZM-305.0 -159.0V167.0H27.0V195.0H-299.0L-443.0 251.0V-204.0H-423.0C-366.0 -204.0 -305.0 -173.0 -305.0 -159.0ZM73.0 -122.0H-385.0V-149.0H73.0ZM71.0 0.0H-387.0V-28.0H71.0ZM29.0 86.0H-389.0V59.0H29.0Z"/></g>
<g fill="green" transform="translate(500 100) scale(0.1 -0.1)"><path d="M-0.0 0.0H11.0V-337.0H19.0C38.0 -337.0 66.0 -325.0 68.0 -319.0V-46.0C89.0 -42.0 110.0 -33.0 117.0 -25.0L36.0 39.0ZM-26.0 376.0H-16.0V84.0H-8.0C11.0 84.0 39.0 97.0 41.0 106.0V331.0C60.0 334.0 80.0 344.0 87.0 352.0L9.0 413.0ZM-384.0 -332.0V337.0H14.0V376.0H-378.0L-440.0 409.0V-353.0H-430.0C-404.0 -353.0 -384.0 -339.0 -384.0 -332.0ZM40.0 -243.0H-411.0V-282.0H40.0ZM43.0 0.0H-411.0V-39.0H43.0ZM8.0 163.0H-412.0V124.0H8.0Z"/></g>
<g fill="green" transform="translate(600 100) scale(0.1 -0.1)"><path d="M0.0 0.0H13.0V-360.0H43.0C99.0 -360.0 183.0 -329.0 183.0 -317.0V-60.0C209.0 -56.0 223.0 -44.0 230.0 -35.0L75.0 80.0ZM-34.0 381.0H-22.0V73.0H9.0C64.0 73.0 149.0 101.0 149.0 111.0V321.0C174.0 326.0 189.0 336.0 198.0 345.0L41.0 462.0ZM-219.0 -328.0V345.0H56.0V381.0H-214.0L-391.0 453.0V-386.0H-365.0C-291.0 -386.0 -219.0 -346.0 -219.0 -328.0ZM94.0 -255.0H-301.0V-290.0H94.0ZM93.0 0.0H-303.0V-36.0H93.0ZM66.0 162.0H-305.0V127.0H66.0Z"/></g>
<g fill="green" transform="translate(700 100) scale(0.1 -0.1)"><path d="M-0.0 0.0H10.0V-252.0H16.0C32.0 -252.0 52.0 -239.0 54.0 -233.0V-39.0C74.0 -35.0 91.0 -28.0 97.0 -20.0L30.0 32.0ZM-70.0 297.0H-61.0V73.0H-54.0C-40.0 73.0 -18.0 85.0 -17.0 91.0V261.0C0.0 264.0 16.0 271.0 23.0 277.0L-42.0 328.0ZM-540.0 -236.0V267.0H-33.0V297.0H-535.0L-583.0 323.0V-252.0H-575.0C-556.0 -252.0 -540.0 -241.0 -540.0 -236.0ZM32.0 -170.0H-563.0V-199.0H32.0ZM30.0 0.0H-563.0V-30.0H30.0ZM-41.0 139.0H-563.0V109.0H-41.0Z"/></g>
<g fill="green" transform="translate(800 100) scale(0.1 -0.1)"><path d="M0.0 0.0H10.0V-260.0H36.0C84.0 -260.0 156.0 -234.0 157.0 -225.0V-48.0C175.0 -44.0 185.0 -36.0 192.0 -29.0L64.0 68.0ZM-75.0 283.0H-65.0V63.0H-39.0C8.0 63.0 81.0 87.0 81.0 95.0V236.0C100.0 240.0 110.0 247.0 116.0 254.0L-12.0 350.0ZM-383.0 -219.0V255.0H-4.0V283.0H-376.0L-528.0 343.0V-268.0H-505.0C-445.0 -268.0 -383.0 -234.0 -383.0 -219.0ZM56.0 -162.0H-469.0V-189.0H56.0ZM56.0 0.0H-469.0V-28.0H56.0ZM-13.0 135.0H-469.0V108.0H-13.0Z"/></g>
<g fill="green" transform="translate(900 100) scale(0.1 -0.1)"><path d="M0.0 0.0H11.0V-257.0H19.0C38.0 -257.0 64.0 -244.0 67.0 -236.0V-45.0C87.0 -41.0 107.0 -32.0 113.0 -24.0L35.0 37.0ZM-60.0 289.0H-49.0V48.0H-41.0C-23.0 48.0 4.0 63.0 6.0 71.0V244.0C27.0 248.0 46.0 257.0 54.0 265.0L-25.0 327.0ZM-549.0 -240.0V251.0H-14.0V289.0H-543.0L-603.0 321.0V-260.0H-593.0C-570.0 -260.0 -549.0 -246.0 -549.0 -240.0ZM32.0 -164.0H-584.0V-202.0H32.0ZM30.0 0.0H-584.0V-37.0H30.0ZM-29.0 130.0H-584.0V92.0H-29.0Z"/></g>
<g fill="green" transform="translate(1000 100) scale(0.1 -0.1)"><path d="M0.0 0.0H12.0V-252.0H44.0C100.0 -252.0 190.0 -225.0 191.0 -215.0V-61.0C216.0 -55.0 229.0 -44.0 237.0 -35.0L77.0 82.0ZM-54.0 268.0H-42.0V45.0H-10.0C50.0 45.0 139.0 76.0 138.0 87.0V208.0C162.0 213.0 176.0 223.0 183.0 233.0L23.0 351.0ZM-351.0 -222.0V233.0H25.0V268.0H-345.0L-528.0 340.0V-280.0H-503.0C-428.0 -280.0 -351.0 -240.0 -351.0 -222.0ZM83.0 -162.0H-435.0V-197.0H83.0ZM82.0 0.0H-436.0V-35.0H82.0ZM43.0 118.0H-438.0V84.0H43.0Z"/></g>
<g fill="red" transform="translate(100 200) scale(0.1 -0.1)"><path d="M0.0 0.0H9.0V-287.0H15.0C29.0 -287.0 52.0 -276.0 53.0 -272.0V-36.0C70.0 -33.0 86.0 -26.0 92.0 -19.0L28.0 31.0ZM-49.0 315.0H-41.0V75.0H-35.0C-20.0 75.0 2.0 85.0 3.0 91.0V281.0C18.0 283.0 33.0 290.0 38.0 297.0L-22.0 343.0ZM-368.0 -283.0V285.0H-11.0V315.0H-363.0L-412.0 341.0V-301.0H-404.0C-383.0 -301.0 -368.0 -289.0 -368.0 -283.0ZM31.0 -198.0H-386.0V-228.0H31.0ZM32.0 0.0H-385.0V-30.0H32.0ZM-17.0 139.0H-386.0V109.0H-17.0Z"/></g>
<g fill="black" opacity=".8" transform="translate(100 200) scale(0.1 -0.1)"><path d="M0.0 0.0H9.0V-287.0H15.0C31.0 -287.0 51.0 -278.0 54.0 -273.0V-37.0C72.0 -34.0 88.0 -27.0 93.0 -20.0L29.0 31.0ZM-49.0 319.0H-41.0V73.0H-34.0C-20.0 73.0 2.0 83.0 3.0 90.0V284.0C18.0 286.0 33.0 294.0 39.0 300.0L-22.0 349.0ZM-367.0 -280.0V288.0H-12.0V319.0H-362.0L-410.0 345.0V-298.0H-402.0C-382.0 -298.0 -367.0 -286.0 -367.0 -280.0ZM26.0 -198.0H-386.0V-229.0H26.0ZM27.0 0.0H-385.0V-31.0H27.0ZM-18.0 141.0H-385.0V109.0H-18.0Z"/></g>
<g fill="red" transform="translate(200 200) scale(0.1 -0.1)"><path d="M0.0 0.0H10.0V-303.0H34.0C82.0 -303.0 148.0 -275.0 149.0 -266.0V-47.0C168.0 -43.0 179.0 -35.0 185.0 -28.0L61.0 65.0ZM-40.0 324.0H-30.0V67.0H-6.0C38.0 67.0 108.0 89.0 109.0 96.0V276.0C128.0 280.0 140.0 289.0 145.0 296.0L20.0 389.0ZM-215.0 -271.0V296.0H25.0V324.0H-210.0L-359.0 383.0V-320.0H-337.0C-274.0 -320.0 -215.0 -287.0 -215.0 -271.0ZM56.0 -208.0H-271.0V-236.0H56.0ZM56.0 0.0H-271.0V-28.0H56.0ZM31.0 143.0H-272.0V115.0H31.0Z"/></g>
<g fill="black" opacity=".8" transform="translate(200 200) scale(0.1 -0.1)"><path d="M0.0 0.0H11.0V-306.0H34.0C82.0 -306.0 148.0 -279.0 147.0 -268.0V-48.0C168.0 -43.0 179.0 -36.0 185.0 -28.0L61.0 65.0ZM-40.0 322.0H-31.0V65.0H-6.0C38.0 65.0 108.0 85.0 108.0 92.0V275.0C128.0 278.0 140.0 287.0 146.0 293.0L20.0 388.0ZM-215.0 -270.0V294.0H21.0V322.0H-212.0L-358.0 382.0V-320.0H-336.0C-275.0 -320.0 -215.0 -286.0 -215.0 -270.0ZM60.0 -201.0H-273.0V-229.0H60.0ZM61.0 0.0H-273.0V-28.0H61.0ZM36.0 142.0H-274.0V115.0H36.0Z"/></g>
<g fill="red" transform="translate(300 200) scale(0.1 -0.1)"><path d="M0.0 0.0H10.0V-291.0H16.0C31.0 -291.0 53.0 -278.0 54.0 -272.0V-39.0C74.0 -35.0 91.0 -28.0 98.0 -20.0L30.0 33.0ZM-62.0 334.0H-53.0V85.0H-47.0C-32.0 85.0 -10.0 97.0 -9.0 102.0V298.0C8.0 301.0 24.0 308.0 30.0 315.0L-34.0 364.0ZM-469.0 -280.0V304.0H-23.0V334.0H-464.0L-513.0 361.0V-298.0H-505.0C-484.0 -298.0 -469.0 -286.0 -469.0 -280.0ZM33.0 -205.0H-487.0V-235.0H33.0ZM33.0 0.0H-487.0V-30.0H33.0ZM-28.0 152.0H-487.0V122.0H-28.0Z"/></g>
<g fill="black" opacity=".8" transform="translate(300 200) scale(0.1 -0.1)"><path d="M0.0 0.0H10.0V-291.0H16.0C32.0 -291.0 53.0 -279.0 55.0 -274.0V-39.0C75.0 -35.0 92.0 -28.0 98.0 -20.0L30.0 33.0ZM-60.0 336.0H-52.0V87.0H-45.0C-30.0 87.0 -8.0 98.0 -7.0 104.0V300.0C9.0 303.0 25.0 310.0 32.0 316.0L-32.0 367.0ZM-469.0 -280.0V305.0H-24.0V336.0H-464.0L-513.0 363.0V-297.0H-505.0C-484.0 -297.0 -469.0 -285.0 -469.0 -280.0ZM33.0 -204.0H-488.0V-234.0H33.0ZM33.0 0.0H-488.0V-31.0H33.0ZM-29.0 154.0H-488.0V123.0H-29.0Z"/></g>
<g fill="red" transform="translate(400 200) scale(0.1 -0.1)"><path d="M0.0 0.0H10.0V-312.0H35.0C84.0 -312.0 154.0 -283.0 155.0 -274.0V-48.0C173.0 -44.0 184.0 -36.0 190.0 -29.0L63.0 67.0ZM-65.0 335.0H-55.0V74.0H-30.0C16.0 74.0 88.0 97.0 89.0 104.0V287.0C108.0 291.0 119.0 299.0 124.0 306.0L-3.0 401.0ZM-320.0 -267.0V307.0H8.0V335.0H-313.0L-465.0 395.0V-317.0H-442.0C-380.0 -317.0 -320.0 -283.0 -320.0 -267.0ZM62.0 -203.0H-399.0V-231.0H62.0ZM62.0 0.0H-399.0V-28.0H62.0ZM0.0 154.0H-399.0V126.0H0.0Z"/></g>
<g fill="black" opacity=".8" transform="translate(400 200) scale(0.1 -0.1)"><path d="M0.0 0.0H10.0V-310.0H36.0C84.0 -310.0 154.0 -282.0 154.0 -272.0V-48.0C173.0 -44.0 184.0 -36.0 190.0 -29.0L64.0 68.0ZM-65.0 334.0H-55.0V74.0H-29.0C16.0 74.0 88.0 97.0 88.0 104.0V286.0C108.0 290.0 119.0 298.0 125.0 304.0L-2.0 401.0ZM-319.0 -267.0V305.0H6.0V334.0H-313.0L-464.0 395.0V-317.0H-441.0C-380.0 -317.0 -319.0 -283.0 -319.0 -267.0ZM58.0 -201.0H-399.0V-229.0H58.0ZM59.0 0.0H-399.0V-28.0H59.0ZM0.0 155.0H-399.0V127.0H0.0Z"/></g>
<g fill="red" transform="translate(500 200) scale(0.1 -0.1)"><path d="M0.0 0.0H9.0V-204.0H15.0C30.0 -204.0 52.0 -192.0 53.0 -186.0V-36.0C70.0 -33.0 86.0 -26.0 92.0 -19.0L28.0 30.0ZM-52.0 234.0H-43.0V43.0H-37.0C-22.0 43.0 0.0 55.0 1.0 61.0V198.0C18.0 201.0 34.0 208.0 40.0 215.0L-24.0 264.0ZM-473.0 -186.0V204.0H-17.0V234.0H-468.0L-517.0 260.0V-201.0H-509.0C-490.0 -201.0 -473.0 -191.0 -473.0 -186.0ZM26.0 -126.0H-503.0V-156.0H26.0ZM22.0 0.0H-503.0V-30.0H22.0ZM-30.0 107.0H-503.0V77.0H-30.0Z"/></g>
<g fill="black" opacity=".8" transform="translate(500 200) scale(0.1 -0.1)"><path d="M0.0 0.0H9.0V-201.0H15.0C31.0 -201.0 50.0 -190.0 53.0 -183.0V-36.0C70.0 -33.0 86.0 -26.0 90.0 -19.0L28.0 29.0ZM-53.0 231.0H-45.0V41.0H-38.0C-24.0 41.0 -2.0 53.0 -2.0 60.0V195.0C15.0 198.0 31.0 205.0 37.0 211.0L-26.0 261.0ZM-474.0 -186.0V201.0H-17.0V231.0H-469.0L-516.0 256.0V-201.0H-508.0C-491.0 -201.0 -474.0 -191.0 -474.0 -186.0ZM27.0 -128.0H-502.0V-158.0H27.0ZM25.0 0.0H-502.0V-29.0H25.0ZM-29.0 106.0H-502.0V76.0H-29.0Z"/></g>
<g fill="red" transform="translate(600 200) scale(0.1 -0.1)"><path d="M0.0 0.0H10.0V-194.0H35.0C79.0 -194.0 151.0 -172.0 152.0 -165.0V-48.0C171.0 -44.0 182.0 -35.0 188.0 -28.0L61.0 65.0ZM-52.0 210.0H-42.0V37.0H-17.0C30.0 37.0 100.0 62.0 100.0 71.0V162.0C119.0 166.0 130.0 174.0 136.0 182.0L9.0 275.0ZM-315.0 -171.0V182.0H10.0V210.0H-309.0L-455.0 267.0V-216.0H-435.0C-376.0 -216.0 -315.0 -185.0 -315.0 -171.0ZM61.0 -119.0H-390.0V-147.0H61.0ZM61.0 0.0H-390.0V-28.0H61.0ZM22.0 97.0H-391.0V69.0H22.0Z"/></g>
<g fill="black" opacity=".8" transform="translate(600 200) scale(0.1 -0.1)"><path d="M0.0 0.0H10.0V-196.0H35.0C80.0 -196.0 152.0 -175.0 152.0 -167.0V-48.0C172.0 -43.0 182.0 -35.0 189.0 -28.0L61.0 65.0ZM-52.0 211.0H-43.0V38.0H-16.0C31.0 38.0 102.0 63.0 101.0 72.0V164.0C120.0 168.0 131.0 176.0 136.0 183.0L9.0 277.0ZM-316.0 -170.0V184.0H13.0V211.0H-311.0L-457.0 268.0V-216.0H-436.0C-378.0 -216.0 -316.0 -185.0 -316.0 -170.0ZM63.0 -124.0H-389.0V-151.0H63.0ZM62.0 0.0H-390.0V-27.0H62.0ZM21.0 96.0H-391.0V69.0H21.0Z"/></g>
<g fill="red" transform="translate(700 200) scale(0.1 -0.1)"><path d="M0.0 0.0H9.0V-295.0H15.0C29.0 -295.0 52.0 -285.0 53.0 -280.0V-36.0C70.0 -33.0 86.0 -26.0 92.0 -19.0L28.0 31.0ZM-37.0 317.0H-29.0V77.0H-23.0C-8.0 77.0 14.0 87.0 15.0 93.0V283.0C30.0 285.0 45.0 292.0 50.0 299.0L-10.0 345.0ZM-323.0 -289.0V287.0H10.0V317.0H-318.0L-367.0 343.0V-307.0H-359.0C-338.0 -307.0 -323.0 -295.0 -323.0 -289.0ZM30.0 -202.0H-348.0V-232.0H30.0ZM31.0 0.0H-347.0V-30.0H31.0ZM-2.0 139.0H-348.0V109.0H-2.0Z"/></g>
<g fill="black" opacity=".8" transform="translate(700 200) scale(0.1 -0.1)"><path d="M0.0 0.0H9.0V-284.0H15.0C30.0 -284.0 51.0 -275.0 54.0 -271.0V-37.0C70.0 -33.0 87.0 -27.0 92.0 -19.0L28.0 31.0ZM-36.0 317.0H-28.0V74.0H-21.0C-7.0 74.0 15.0 83.0 16.0 91.0V282.0C30.0 284.0 46.0 292.0 51.0 298.0L-9.0 346.0ZM-326.0 -280.0V286.0H-2.0V317.0H-322.0L-369.0 342.0V-297.0H-362.0C-341.0 -297.0 -326.0 -286.0 -326.0 -280.0ZM29.0 -201.0H-345.0V-232.0H29.0ZM30.0 0.0H-344.0V-31.0H30.0ZM-6.0 139.0H-345.0V107.0H-6.0Z"/></g>
<g fill="red" transform="translate(800 200) scale(0.1 -0.1)"><path d="M0.0 0.0H10.0V-303.0H33.0C79.0 -303.0 143.0 -276.0 144.0 -267.0V-47.0C162.0 -43.0 174.0 -35.0 179.0 -28.0L59.0 63.0ZM-35.0 320.0H-25.0V63.0H-2.0C40.0 63.0 108.0 84.0 109.0 91.0V273.0C128.0 277.0 140.0 285.0 145.0 292.0L23.0 383.0ZM-187.0 -269.0V292.0H28.0V320.0H-182.0L-324.0 377.0V-316.0H-303.0C-243.0 -316.0 -187.0 -284.0 -187.0 -269.0ZM69.0 -202.0H-249.0V-230.0H69.0ZM69.0 0.0H-249.0V-28.0H69.0ZM44.0 139.0H-250.0V111.0H44.0Z"/></g>
<g fill="black" opacity=".8" transform="translate(800 200) scale(0.1 -0.1)"><path d="M0.0 0.0H11.0V-305.0H34.0C80.0 -305.0 144.0 -280.0 143.0 -269.0V-47.0C164.0 -43.0 175.0 -35.0 181.0 -27.0L59.0 63.0ZM-34.0 322.0H-25.0V65.0H0.0C42.0 65.0 110.0 85.0 110.0 92.0V276.0C130.0 280.0 142.0 288.0 148.0 294.0L25.0 387.0ZM-187.0 -274.0V295.0H31.0V322.0H-184.0L-325.0 380.0V-321.0H-303.0C-244.0 -321.0 -187.0 -289.0 -187.0 -274.0ZM65.0 -208.0H-246.0V-235.0H65.0ZM65.0 0.0H-247.0V-28.0H65.0ZM42.0 140.0H-248.0V114.0H42.0Z"/></g>
<g fill="red" transform="translate(900 200) scale(0.1 -0.1)"><path d="M0.0 0.0H9.0V-278.0H15.0C29.0 -278.0 52.0 -268.0 53.0 -263.0V-36.0C70.0 -33.0 86.0 -26.0 92.0 -19.0L28.0 31.0ZM-47.0 317.0H-39.0V77.0H-33.0C-18.0 77.0 4.0 87.0 5.0 93.0V283.0C20.0 285.0 35.0 292.0 40.0 299.0L-20.0 345.0ZM-360.0 -273.0V287.0H-15.0V317.0H-355.0L-404.0 343.0V-290.0H-396.0C-375.0 -290.0 -360.0 -279.0 -360.0 -273.0ZM29.0 -202.0H-378.0V-232.0H29.0ZM30.0 0.0H-377.0V-30.0H30.0ZM-18.0 138.0H-378.0V108.0H-18.0Z"/></g>
<g fill="black" opacity=".8" transform="translate(900 200) scale(0.1 -0.1)"><path d="M0.0 0.0H9.0V-285.0H15.0C30.0 -285.0 51.0 -276.0 54.0 -272.0V-37.0C71.0 -34.0 88.0 -27.0 92.0 -20.0L29.0 31.0ZM-46.0 318.0H-38.0V73.0H-32.0C-17.0 73.0 5.0 83.0 5.0 90.0V283.0C20.0 285.0 35.0 293.0 41.0 299.0L-19.0 347.0ZM-359.0 -279.0V287.0H-10.0V318.0H-354.0L-402.0 343.0V-296.0H-394.0C-374.0 -296.0 -359.0 -285.0 -359.0 -279.0ZM27.0 -198.0H-378.0V-228.0H27.0ZM28.0 0.0H-377.0V-31.0H28.0ZM-16.0 140.0H-377.0V109.0H-16.0Z"/></g>
<g fill="red" transform="translate(1000 200) scale(0.1 -0.1)"><path d="M0.0 0.0H10.0V-303.0H34.0C82.0 -303.0 148.0 -275.0 149.0 -266.0V-47.0C168.0 -43.0 179.0 -35.0 185.0 -28.0L61.0 65.0ZM-40.0 324.0H-30.0V67.0H-6.0C38.0 67.0 108.0 89.0 109.0 96.0V276.0C128.0 280.0 140.0 289.0 145.0 296.0L20.0 389.0ZM-210.0 -271.0V296.0H19.0V324.0H-205.0L-354.0 383.0V-320.0H-332.0C-269.0 -320.0 -210.0 -287.0 -210.0 -271.0ZM61.0 -208.0H-266.0V-236.0H61.0ZM61.0 0.0H-266.0V-28.0H61.0ZM36.0 143.0H-267.0V115.0H36.0Z"/></g>
<g fill="black" opacity=".8" transform="translate(1000 200) scale(0.1 -0.1)"><path d="M0.0 0.0H11.0V-305.0H34.0C81.0 -305.0 146.0 -278.0 146.0 -267.0V-48.0C167.0 -43.0 177.0 -36.0 183.0 -27.0L60.0 64.0ZM-39.0 321.0H-30.0V65.0H-5.0C38.0 65.0 107.0 85.0 107.0 92.0V274.0C127.0 278.0 139.0 286.0 145.0 293.0L21.0 387.0ZM-211.0 -270.0V293.0H22.0V321.0H-207.0L-352.0 380.0V-318.0H-330.0C-270.0 -318.0 -211.0 -285.0 -211.0 -270.0ZM60.0 -202.0H-269.0V-229.0H60.0ZM61.0 0.0H-269.0V-28.0H61.0ZM36.0 142.0H-270.0V115.0H36.0Z"/></g>
<g fill="red" transform="translate(1100 200) scale(0.1 -0.1)"><path d="M0.0 0.0H9.0V-240.0H15.0C30.0 -240.0 52.0 -229.0 53.0 -223.0V-36.0C70.0 -33.0 86.0 -26.0 92.0 -19.0L28.0 30.0ZM-28.0 267.0H-19.0V51.0H-13.0C2.0 51.0 24.0 63.0 25.0 69.0V231.0C42.0 234.0 58.0 241.0 64.0 248.0L0.0 297.0ZM-350.0 -235.0V237.0H7.0V267.0H-345.0L-394.0 293.0V-252.0H-386.0C-366.0 -252.0 -350.0 -241.0 -350.0 -235.0ZM32.0 -174.0H-370.0V-204.0H32.0ZM35.0 0.0H-372.0V-30.0H35.0ZM2.0 116.0H-372.0V86.0H2.0Z"/></g>
<g fill="black" opacity=".8" transform="translate(1100 200) scale(0.1 -0.1)"><path d="M0.0 0.0H9.0V-242.0H15.0C31.0 -242.0 52.0 -232.0 54.0 -227.0V-37.0C71.0 -34.0 88.0 -27.0 93.0 -20.0L29.0 30.0ZM-25.0 273.0H-17.0V56.0H-10.0C5.0 56.0 28.0 67.0 29.0 74.0V236.0C44.0 238.0 61.0 247.0 67.0 253.0L3.0 303.0ZM-350.0 -235.0V241.0H8.0V273.0H-345.0L-394.0 298.0V-252.0H-386.0C-366.0 -252.0 -350.0 -241.0 -350.0 -235.0ZM32.0 -170.0H-375.0V-202.0H32.0ZM33.0 0.0H-375.0V-31.0H33.0ZM1.0 119.0H-376.0V88.0H1.0Z"/></g>
<g fill="red" transform="translate(1200 200) scale(0.1 -0.1)"><path d="M0.0 0.0H10.0V-257.0H35.0C80.0 -257.0 151.0 -234.0 152.0 -227.0V-48.0C171.0 -44.0 182.0 -35.0 188.0 -28.0L61.0 65.0ZM-31.0 271.0H-21.0V48.0H4.0C51.0 48.0 121.0 74.0 121.0 82.0V223.0C140.0 227.0 151.0 235.0 157.0 243.0L30.0 336.0ZM-214.0 -229.0V243.0H44.0V271.0H-209.0L-354.0 328.0V-276.0H-333.0C-273.0 -276.0 -214.0 -244.0 -214.0 -229.0ZM81.0 -183.0H-280.0V-211.0H81.0ZM78.0 0.0H-283.0V-28.0H78.0ZM47.0 113.0H-285.0V85.0H47.0Z"/></g>
<g fill="black" opacity=".8" transform="translate(1200 200) scale(0.1 -0.1)"><path d="M0.0 0.0H11.0V-252.0H35.0C80.0 -252.0 150.0 -230.0 149.0 -221.0V-49.0C171.0 -45.0 181.0 -36.0 188.0 -28.0L60.0 64.0ZM-31.0 268.0H-22.0V49.0H4.0C50.0 49.0 119.0 73.0 118.0 82.0V220.0C139.0 224.0 150.0 232.0 157.0 240.0L29.0 334.0ZM-211.0 -229.0V240.0H41.0V268.0H-207.0L-350.0 326.0V-276.0H-329.0C-271.0 -276.0 -211.0 -244.0 -211.0 -229.0ZM75.0 -178.0H-280.0V-206.0H75.0ZM74.0 0.0H-282.0V-29.0H74.0ZM49.0 114.0H-284.0V87.0H49.0Z"/></g>
<g fill="red" transform="translate(1300 200) scale(0.1 -0.1)"><path d="M0.0 0.0H9.0V-282.0H15.0C29.0 -282.0 52.0 -272.0 53.0 -267.0V-36.0C70.0 -33.0 86.0 -26.0 92.0 -19.0L28.0 31.0ZM-26.0 318.0H-18.0V78.0H-12.0C3.0 78.0 25.0 88.0 26.0 94.0V284.0C41.0 286.0 56.0 293.0 61.0 300.0L1.0 346.0ZM-317.0 -276.0V288.0H-3.0V318.0H-312.0L-361.0 344.0V-293.0H-353.0C-332.0 -293.0 -317.0 -282.0 -317.0 -276.0ZM33.0 -202.0H-336.0V-232.0H33.0ZM34.0 0.0H-335.0V-30.0H34.0ZM1.0 139.0H-336.0V109.0H1.0Z"/></g>
<g fill="black" opacity=".8" transform="translate(1300 200) scale(0.1 -0.1)"><path d="M0.0 0.0H9.0V-281.0H14.0C30.0 -281.0 50.0 -272.0 52.0 -267.0V-36.0C70.0 -33.0 86.0 -26.0 91.0 -19.0L28.0 30.0ZM-29.0 317.0H-21.0V77.0H-14.0C-0.0 77.0 21.0 87.0 22.0 94.0V282.0C36.0 284.0 52.0 292.0 57.0 298.0L-2.0 345.0ZM-317.0 -277.0V286.0H3.0V317.0H-312.0L-359.0 342.0V-294.0H-352.0C-332.0 -294.0 -317.0 -283.0 -317.0 -277.0ZM31.0 -203.0H-335.0V-233.0H31.0ZM34.0 0.0H-335.0V-30.0H34.0ZM-0.0 139.0H-336.0V108.0H-0.0Z"/></g>
<g fill="red" transform="translate(1400 200) scale(0.1 -0.1)"><path d="M0.0 0.0H10.0V-303.0H33.0C77.0 -303.0 141.0 -276.0 141.0 -267.0V-46.0C160.0 -43.0 172.0 -34.0 177.0 -27.0L58.0 62.0ZM-34.0 323.0H-24.0V66.0H-1.0C40.0 66.0 106.0 87.0 107.0 94.0V276.0C126.0 280.0 138.0 288.0 144.0 295.0L24.0 385.0ZM-188.0 -275.0V295.0H29.0V323.0H-183.0L-322.0 379.0V-321.0H-301.0C-243.0 -321.0 -188.0 -290.0 -188.0 -275.0ZM60.0 -209.0H-253.0V-237.0H60.0ZM60.0 0.0H-253.0V-28.0H60.0ZM35.0 142.0H-254.0V114.0H35.0Z"/></g>
<g fill="black" opacity=".8" transform="translate(1400 200) scale(0.1 -0.1)"><path d="M0.0 0.0H11.0V-304.0H33.0C78.0 -304.0 141.0 -279.0 141.0 -268.0V-46.0C161.0 -42.0 171.0 -35.0 177.0 -27.0L58.0 62.0ZM-34.0 323.0H-26.0V66.0H-1.0C40.0 66.0 106.0 87.0 106.0 94.0V278.0C126.0 281.0 137.0 289.0 143.0 295.0L23.0 386.0ZM-188.0 -273.0V296.0H35.0V323.0H-184.0L-322.0 379.0V-319.0H-301.0C-244.0 -319.0 -188.0 -288.0 -188.0 -273.0ZM67.0 -211.0H-253.0V-238.0H67.0ZM67.0 0.0H-254.0V-27.0H67.0ZM38.0 141.0H-255.0V115.0H38.0Z"/></g>
<g fill="red" transform="translate(1500 200) scale(0.1 -0.1)"><path d="M0.0 0.0H9.0V-282.0H15.0C29.0 -282.0 52.0 -272.0 53.0 -267.0V-36.0C70.0 -33.0 86.0 -26.0 92.0 -19.0L28.0 31.0ZM-26.0 318.0H-18.0V78.0H-12.0C3.0 78.0 25.0 88.0 26.0 94.0V284.0C41.0 286.0 56.0 293.0 61.0 300.0L1.0 346.0ZM-309.0 -276.0V288.0H5.0V318.0H-304.0L-353.0 344.0V-293.0H-345.0C-324.0 -293.0 -309.0 -282.0 -309.0 -276.0ZM32.0 -202.0H-328.0V-232.0H32.0ZM33.0 0.0H-327.0V-30.0H33.0ZM-1.0 139.0H-328.0V109.0H-1.0Z"/></g>
<g fill="black" opacity=".8" transform="translate(1500 200) scale(0.1 -0.1)"><path d="M0.0 0.0H9.0V-281.0H14.0C30.0 -281.0 50.0 -271.0 52.0 -267.0V-36.0C70.0 -33.0 86.0 -26.0 91.0 -19.0L28.0 30.0ZM-27.0 316.0H-19.0V77.0H-12.0C2.0 77.0 23.0 86.0 24.0 94.0V282.0C38.0 283.0 54.0 292.0 59.0 297.0L-0.0 345.0ZM-310.0 -277.0V286.0H5.0V316.0H-305.0L-352.0 341.0V-294.0H-345.0C-325.0 -294.0 -310.0 -283.0 -310.0 -277.0ZM32.0 -204.0H-328.0V-234.0H32.0ZM34.0 0.0H-327.0V-30.0H34.0ZM1.0 138.0H-328.0V108.0H1.0Z"/></g>
<g fill="red" transform="translate(1600 200) scale(0.1 -0.1)"><path d="M0.0 0.0H10.0V-303.0H33.0C77.0 -303.0 141.0 -276.0 141.0 -267.0V-46.0C160.0 -43.0 172.0 -34.0 177.0 -27.0L58.0 62.0ZM-34.0 323.0H-24.0V66.0H-1.0C40.0 66.0 106.0 87.0 107.0 94.0V276.0C126.0 280.0 138.0 288.0 144.0 295.0L24.0 385.0ZM-183.0 -275.0V295.0H34.0V323.0H-178.0L-317.0 379.0V-321.0H-296.0C-238.0 -321.0 -183.0 -290.0 -183.0 -275.0ZM65.0 -209.0H-248.0V-237.0H65.0ZM65.0 0.0H-248.0V-28.0H65.0ZM40.0 142.0H-249.0V114.0H40.0Z"/></g>
<g fill="black" opacity=".8" transform="translate(1600 200) scale(0.1 -0.1)"><path d="M0.0 0.0H11.0V-304.0H33.0C77.0 -304.0 141.0 -279.0 140.0 -269.0V-46.0C160.0 -42.0 171.0 -34.0 176.0 -27.0L58.0 61.0ZM-33.0 323.0H-24.0V66.0H-0.0C41.0 66.0 106.0 87.0 107.0 94.0V278.0C126.0 282.0 137.0 289.0 144.0 295.0L24.0 386.0ZM-183.0 -274.0V296.0H36.0V323.0H-179.0L-316.0 379.0V-320.0H-295.0C-238.0 -320.0 -183.0 -288.0 -183.0 -274.0ZM67.0 -213.0H-247.0V-239.0H67.0ZM67.0 0.0H-249.0V-27.0H67.0ZM39.0 141.0H-250.0V114.0H39.0Z"/></g>
<g fill="red" transform="translate(100 300) scale(0.1 -0.1)"><path d="M0.0 0.0H9.0V-282.0H15.0C29.0 -282.0 52.0 -272.0 53.0 -267.0V-36.0C70.0 -33.0 86.0 -26.0 92.0 -19.0L28.0 31.0ZM-34.0 318.0H-26.0V78.0H-20.0C-5.0 78.0 17.0 88.0 18.0 94.0V284.0C33.0 286.0 48.0 293.0 53.0 300.0L-7.0 346.0ZM-319.0 -276.0V288.0H-1.0V318.0H-314.0L-363.0 344.0V-293.0H-355.0C-334.0 -293.0 -319.0 -282.0 -319.0 -276.0ZM27.0 -202.0H-338.0V-232.0H27.0ZM28.0 0.0H-337.0V-30.0H28.0ZM-6.0 139.0H-338.0V109.0H-6.0Z"/></g>
<g fill="black" opacity=".8" transform="translate(100 300) scale(0.1 -0.1)"><path d="M0.0 0.0H9.0V-283.0H15.0C30.0 -283.0 50.0 -274.0 53.0 -270.0V-36.0C70.0 -33.0 86.0 -26.0 91.0 -19.0L28.0 30.0ZM-33.0 316.0H-26.0V75.0H-19.0C-5.0 75.0 17.0 84.0 18.0 91.0V282.0C32.0 283.0 48.0 292.0 53.0 297.0L-7.0 345.0ZM-317.0 -279.0V285.0H0.0V316.0H-313.0L-360.0 341.0V-296.0H-352.0C-332.0 -296.0 -317.0 -285.0 -317.0 -279.0ZM29.0 -202.0H-336.0V-232.0H29.0ZM31.0 0.0H-335.0V-30.0H31.0ZM-4.0 138.0H-336.0V107.0H-4.0Z"/></g>
<g fill="red" transform="translate(200 300) scale(0.1 -0.1)"><path d="M0.0 0.0H10.0V-303.0H33.0C77.0 -303.0 141.0 -276.0 141.0 -267.0V-46.0C160.0 -43.0 172.0 -34.0 177.0 -27.0L58.0 62.0ZM-34.0 323.0H-24.0V66.0H-1.0C40.0 66.0 106.0 87.0 107.0 94.0V276.0C126.0 280.0 138.0 288.0 144.0 295.0L24.0 385.0ZM-178.0 -275.0V295.0H39.0V323.0H-173.0L-312.0 379.0V-321.0H-291.0C-233.0 -321.0 -178.0 -290.0 -178.0 -275.0ZM70.0 -209.0H-243.0V-237.0H70.0ZM70.0 0.0H-243.0V-28.0H70.0ZM45.0 142.0H-244.0V114.0H45.0Z"/></g>
<g fill="black" opacity=".8" transform="translate(200 300) scale(0.1 -0.1)"><path d="M0.0 0.0H11.0V-305.0H33.0C79.0 -305.0 142.0 -279.0 142.0 -269.0V-47.0C162.0 -43.0 173.0 -35.0 178.0 -27.0L58.0 62.0ZM-33.0 322.0H-24.0V65.0H1.0C42.0 65.0 108.0 85.0 109.0 92.0V276.0C129.0 280.0 140.0 288.0 146.0 294.0L25.0 386.0ZM-182.0 -274.0V295.0H32.0V322.0H-178.0L-318.0 380.0V-321.0H-297.0C-238.0 -321.0 -182.0 -289.0 -182.0 -274.0ZM65.0 -209.0H-242.0V-236.0H65.0ZM65.0 0.0H-243.0V-27.0H65.0ZM42.0 140.0H-244.0V114.0H42.0Z"/></g>
<g fill="red" transform="translate(300 300) scale(0.1 -0.1)"><path d="M0.0 0.0H9.0V-291.0H15.0C29.0 -291.0 52.0 -281.0 53.0 -276.0V-36.0C70.0 -33.0 86.0 -26.0 92.0 -19.0L28.0 31.0ZM-44.0 318.0H-36.0V61.0H-30.0C-15.0 61.0 7.0 73.0 8.0 78.0V284.0C23.0 286.0 38.0 293.0 43.0 300.0L-17.0 347.0ZM-332.0 -280.0V288.0H-14.0V318.0H-327.0L-376.0 344.0V-298.0H-368.0C-347.0 -298.0 -332.0 -286.0 -332.0 -280.0ZM20.0 -197.0H-345.0V-227.0H20.0ZM20.0 0.0H-345.0V-30.0H20.0ZM-13.0 139.0H-345.0V109.0H-13.0Z"/></g>
<g fill="black" opacity=".8" transform="translate(300 300) scale(0.1 -0.1)"><path d="M0.0 0.0H9.0V-286.0H14.0C29.0 -286.0 50.0 -277.0 53.0 -273.0V-36.0C69.0 -33.0 85.0 -26.0 89.0 -19.0L28.0 30.0ZM-43.0 318.0H-36.0V74.0H-29.0C-15.0 74.0 6.0 83.0 7.0 91.0V284.0C21.0 285.0 36.0 293.0 41.0 299.0L-17.0 346.0ZM-335.0 -280.0V287.0H-8.0V318.0H-330.0L-376.0 342.0V-298.0H-369.0C-349.0 -298.0 -335.0 -286.0 -335.0 -280.0ZM26.0 -199.0H-352.0V-229.0H26.0ZM27.0 0.0H-351.0V-30.0H27.0ZM-13.0 139.0H-351.0V109.0H-13.0Z"/></g>
<g fill="red" transform="translate(400 300) scale(0.1 -0.1)"><path d="M0.0 0.0H10.0V-316.0H33.0C77.0 -316.0 141.0 -288.0 141.0 -279.0V-46.0C160.0 -43.0 172.0 -34.0 177.0 -27.0L58.0 62.0ZM-35.0 323.0H-25.0V58.0H-2.0C39.0 58.0 105.0 79.0 106.0 85.0V276.0C125.0 280.0 137.0 288.0 143.0 295.0L23.0 385.0ZM-198.0 -275.0V295.0H19.0V323.0H-193.0L-332.0 379.0V-321.0H-311.0C-253.0 -321.0 -198.0 -290.0 -198.0 -275.0ZM62.0 -194.0H-251.0V-222.0H62.0ZM62.0 0.0H-251.0V-28.0H62.0ZM37.0 142.0H-252.0V114.0H37.0Z"/></g>
<g fill="black" opacity=".8" transform="translate(400 300) scale(0.1 -0.1)"><path d="M0.0 0.0H10.0V-307.0H33.0C79.0 -307.0 141.0 -280.0 141.0 -269.0V-46.0C161.0 -42.0 171.0 -35.0 177.0 -26.0L58.0 62.0ZM-36.0 323.0H-27.0V66.0H-3.0C38.0 66.0 104.0 85.0 105.0 92.0V277.0C124.0 281.0 136.0 289.0 142.0 295.0L21.0 387.0ZM-192.0 -272.0V296.0H23.0V323.0H-189.0L-329.0 380.0V-320.0H-307.0C-249.0 -320.0 -192.0 -288.0 -192.0 -272.0ZM59.0 -204.0H-247.0V-231.0H59.0ZM60.0 0.0H-247.0V-27.0H60.0ZM37.0 142.0H-248.0V116.0H37.0Z"/></g>
</svg>
