<?xml version="1.0" encoding="UTF-8"?>
<svg width="1700" height="500" xmlns="http://www.w3.org/2000/svg">
<rect width="100%" height="100%" fill="white"/>
<g fill="green" transform="translate(100 100) scale(0.1 -0.1)"><path d="M-0.0 -0.0 -6.0 -12.0C79.0 -42.0 161.0 -101.0 190.0 -146.0C247.0 -170.0 257.0 -50.0 -0.0 -0.0ZM452.0 -504.0 417.0 -548.0H-202.0L-194.0 -573.0H495.0C506.0 -573.0 515.0 -569.0 516.0 -559.0C492.0 -535.0 452.0 -504.0 452.0 -504.0Z"/></g>
<g fill="green" transform="translate(200 100) scale(0.1 -0.1)"><path d="M0.0 0.0 -2.0 -8.0C77.0 -48.0 151.0 -112.0 184.0 -166.0C336.0 -213.0 375.0 79.0 0.0 0.0ZM475.0 -505.0 415.0 -585.0H-152.0L-145.0 -609.0H562.0C573.0 -609.0 583.0 -604.0 585.0 -595.0C544.0 -559.0 475.0 -505.0 475.0 -505.0Z"/></g>
<g fill="green" transform="translate(300 100) scale(0.1 -0.1)"><path d="M-0.0 0.0 2.0 -6.0C58.0 -15.0 107.0 -35.0 126.0 -50.0C146.0 -51.0 134.0 -9.0 0.0 0.0ZM148.0 -423.0 143.0 -430.0H59.0L60.0 -434.0H154.0C156.0 -434.0 158.0 -434.0 157.0 -432.0C154.0 -428.0 148.0 -423.0 148.0 -423.0Z"/></g>
<g fill="green" transform="translate(400 100) scale(0.1 -0.1)"><path d="M0.0 0.0 2.0 -4.0C58.0 -20.0 110.0 -44.0 138.0 -61.0C200.0 -49.0 158.0 75.0 0.0 0.0ZM178.0 -448.0 171.0 -458.0H102.0L104.0 -463.0H190.0C191.0 -463.0 193.0 -461.0 193.0 -460.0C187.0 -455.0 178.0 -448.0 178.0 -448.0Z"/></g>
<g fill="green" transform="translate(500 100) scale(0.1 -0.1)"><path d="M0.0 0.0 -12.0 -16.0C71.0 -46.0 153.0 -110.0 178.0 -163.0C254.0 -200.0 281.0 -41.0 0.0 0.0ZM595.0 28.0 540.0 -41.0H-463.0L-451.0 -81.0H662.0C680.0 -81.0 693.0 -74.0 696.0 -59.0C657.0 -21.0 595.0 28.0 595.0 28.0Z"/></g>
<g fill="green" transform="translate(600 100) scale(0.1 -0.1)"><path d="M0.0 0.0 -6.0 -9.0C66.0 -52.0 140.0 -127.0 170.0 -194.0C364.0 -275.0 464.0 87.0 0.0 0.0ZM613.0 64.0 516.0 -61.0H-424.0L-413.0 -99.0H750.0C768.0 -99.0 784.0 -92.0 787.0 -77.0C722.0 -20.0 613.0 64.0 613.0 64.0Z"/></g>
<g fill="green" transform="translate(700 100) scale(0.1 -0.1)"><path d="M0.0 0.0 -7.0 -19.0C152.0 -67.0 285.0 -156.0 336.0 -221.0C415.0 -251.0 423.0 -83.0 0.0 0.0ZM362.0 -501.0 315.0 -558.0H-539.0L-528.0 -594.0H420.0C436.0 -594.0 448.0 -588.0 450.0 -574.0C416.0 -542.0 362.0 -501.0 362.0 -501.0Z"/></g>
<g fill="green" transform="translate(800 100) scale(0.1 -0.1)"><path d="M0.0 0.0 -4.0 -14.0C123.0 -77.0 231.0 -168.0 276.0 -232.0C450.0 -289.0 505.0 59.0 0.0 0.0ZM355.0 -504.0 278.0 -599.0H-520.0L-510.0 -633.0H467.0C483.0 -633.0 496.0 -626.0 499.0 -613.0C444.0 -568.0 355.0 -504.0 355.0 -504.0Z"/></g>
<g fill="green" transform="translate(900 100) scale(0.1 -0.1)"><path d="M0.0 -0.0 -11.0 -8.0C7.0 -21.0 27.0 -48.0 31.0 -71.0C73.0 -99.0 108.0 -19.0 -0.0 -0.0ZM451.0 -522.0 410.0 -573.0H-325.0L-316.0 -601.0H500.0C513.0 -601.0 523.0 -596.0 524.0 -585.0C496.0 -557.0 451.0 -522.0 451.0 -522.0Z"/></g>
<g fill="green" transform="translate(1000 100) scale(0.1 -0.1)"><path d="M0.0 0.0 -5.0 -5.0C20.0 -13.0 43.0 -44.0 47.0 -75.0C173.0 -139.0 268.0 87.0 0.0 0.0ZM470.0 -494.0 406.0 -583.0H-289.0L-281.0 -610.0H559.0C572.0 -610.0 582.0 -605.0 584.0 -595.0C542.0 -555.0 470.0 -494.0 470.0 -494.0Z"/></g>
<g fill="green" transform="translate(1100 100) scale(0.1 -0.1)"><path d="M0.0 0.0 -12.0 -4.0C37.0 -69.0 107.0 -176.0 125.0 -250.0C180.0 -295.0 217.0 -170.0 0.0 0.0ZM450.0 -507.0 417.0 -552.0H-186.0L-179.0 -574.0H492.0C501.0 -574.0 509.0 -570.0 510.0 -561.0C488.0 -539.0 450.0 -507.0 450.0 -507.0Z"/></g>
<g fill="green" transform="translate(1200 100) scale(0.1 -0.1)"><path d="M0.0 0.0 -5.0 -5.0C56.0 -83.0 112.0 -183.0 132.0 -281.0C282.0 -384.0 370.0 -78.0 0.0 0.0ZM458.0 -489.0 389.0 -588.0H-143.0L-137.0 -609.0H561.0C571.0 -609.0 581.0 -605.0 582.0 -597.0C537.0 -555.0 458.0 -489.0 458.0 -489.0Z"/></g>
<g fill="green" transform="translate(1300 100) scale(0.1 -0.1)"><path d="M-0.0 -0.0 -6.0 -13.0C85.0 -43.0 178.0 -106.0 211.0 -153.0C273.0 -176.0 279.0 -46.0 -0.0 -0.0ZM469.0 -511.0 429.0 -558.0H-180.0L-172.0 -584.0H521.0C532.0 -584.0 541.0 -580.0 542.0 -569.0C515.0 -544.0 469.0 -511.0 469.0 -511.0Z"/></g>
<g fill="green" transform="translate(1400 100) scale(0.1 -0.1)"><path d="M0.0 0.0 -3.0 -7.0C69.0 -43.0 134.0 -103.0 163.0 -153.0C307.0 -205.0 363.0 71.0 0.0 0.0ZM452.0 -494.0 386.0 -576.0H-161.0L-154.0 -600.0H548.0C560.0 -600.0 570.0 -595.0 572.0 -586.0C526.0 -549.0 452.0 -494.0 452.0 -494.0Z"/></g>
<g fill="green" transform="translate(1500 100) scale(0.1 -0.1)"><path d="M0.0 0.0 -5.0 -13.0C87.0 -42.0 170.0 -95.0 204.0 -135.0C262.0 -157.0 268.0 -39.0 0.0 -0.0ZM455.0 -491.0 423.0 -532.0H-201.0L-192.0 -557.0H495.0C506.0 -557.0 515.0 -553.0 516.0 -543.0C494.0 -520.0 455.0 -491.0 455.0 -491.0Z"/></g>
<g fill="green" transform="translate(1600 100) scale(0.1 -0.1)"><path d="M0.0 0.0 -2.0 -8.0C70.0 -52.0 137.0 -114.0 166.0 -164.0C306.0 -219.0 366.0 49.0 0.0 0.0ZM476.0 -520.0 418.0 -600.0H-157.0L-150.0 -624.0H560.0C571.0 -624.0 582.0 -619.0 584.0 -610.0C544.0 -574.0 476.0 -520.0 476.0 -520.0Z"/></g>
<g fill="red" transform="translate(100 200) scale(0.1 -0.1)"><path d="M0.0 0.0 -12.0 -8.0C27.0 -43.0 79.0 -104.0 97.0 -146.0C146.0 -177.0 176.0 -79.0 0.0 0.0ZM449.0 -79.0 405.0 -133.0H-376.0L-367.0 -163.0H504.0C518.0 -163.0 527.0 -158.0 529.0 -147.0C499.0 -117.0 449.0 -79.0 449.0 -79.0Z"/></g>
<g fill="black" opacity=".8" transform="translate(100 200) scale(0.1 -0.1)"><path d="M0.0 0.0 -12.0 -9.0C30.0 -41.0 79.0 -98.0 94.0 -142.0C150.0 -177.0 182.0 -62.0 0.0 0.0ZM445.0 -82.0 401.0 -136.0H-369.0L-360.0 -166.0H501.0C514.0 -166.0 524.0 -161.0 526.0 -149.0C495.0 -120.0 445.0 -82.0 445.0 -82.0Z"/></g>
<g fill="red" transform="translate(200 200) scale(0.1 -0.1)"><path d="M0.0 0.0 -6.0 -5.0C22.0 -39.0 47.0 -94.0 50.0 -147.0C175.0 -241.0 307.0 -4.0 0.0 0.0ZM419.0 -45.0 342.0 -151.0H-366.0L-358.0 -179.0H526.0C541.0 -179.0 553.0 -174.0 556.0 -163.0C505.0 -116.0 419.0 -45.0 419.0 -45.0Z"/></g>
<g fill="black" opacity=".8" transform="translate(200 200) scale(0.1 -0.1)"><path d="M0.0 0.0 -7.0 -4.0C19.0 -41.0 45.0 -98.0 50.0 -152.0C174.0 -246.0 305.0 -12.0 0.0 0.0ZM421.0 -44.0 342.0 -147.0H-372.0L-364.0 -176.0H533.0C547.0 -176.0 559.0 -171.0 561.0 -160.0C508.0 -113.0 421.0 -44.0 421.0 -44.0Z"/></g>
<g fill="red" transform="translate(300 200) scale(0.1 -0.1)"><path d="M0.0 0.0 -4.0 -18.0C141.0 -50.0 254.0 -112.0 301.0 -158.0C364.0 -176.0 364.0 -42.0 0.0 0.0ZM231.0 -132.0 194.0 -176.0H-491.0L-482.0 -206.0H277.0C291.0 -206.0 300.0 -201.0 303.0 -190.0C275.0 -164.0 231.0 -132.0 231.0 -132.0Z"/></g>
<g fill="black" opacity=".8" transform="translate(300 200) scale(0.1 -0.1)"><path d="M0.0 0.0 -4.0 -18.0C139.0 -50.0 253.0 -112.0 299.0 -158.0C365.0 -177.0 363.0 -40.0 0.0 0.0ZM232.0 -132.0 195.0 -176.0H-489.0L-480.0 -205.0H279.0C292.0 -205.0 301.0 -201.0 303.0 -189.0C275.0 -164.0 232.0 -132.0 232.0 -132.0Z"/></g>
<g fill="red" transform="translate(400 200) scale(0.1 -0.1)"><path d="M0.0 0.0 -3.0 -12.0C96.0 -59.0 181.0 -124.0 215.0 -162.0C335.0 -202.0 390.0 36.0 0.0 0.0ZM209.0 -140.0 147.0 -209.0H-496.0L-488.0 -237.0H298.0C312.0 -237.0 323.0 -232.0 326.0 -221.0C280.0 -186.0 209.0 -140.0 209.0 -140.0Z"/></g>
<g fill="black" opacity=".8" transform="translate(400 200) scale(0.1 -0.1)"><path d="M0.0 0.0 -4.0 -11.0C96.0 -59.0 180.0 -124.0 216.0 -165.0C338.0 -205.0 388.0 41.0 0.0 0.0ZM209.0 -139.0 148.0 -210.0H-498.0L-489.0 -238.0H297.0C310.0 -238.0 322.0 -232.0 324.0 -221.0C279.0 -187.0 209.0 -139.0 209.0 -139.0Z"/></g>
<g fill="red" transform="translate(500 200) scale(0.1 -0.1)"><path d="M0.0 0.0 -13.0 -7.0C33.0 -66.0 96.0 -161.0 114.0 -228.0C178.0 -275.0 220.0 -138.0 0.0 0.0ZM467.0 -214.0 427.0 -264.0H-368.0L-359.0 -294.0H518.0C532.0 -294.0 541.0 -289.0 543.0 -278.0C515.0 -250.0 467.0 -214.0 467.0 -214.0Z"/></g>
<g fill="black" opacity=".8" transform="translate(500 200) scale(0.1 -0.1)"><path d="M0.0 0.0 -14.0 -7.0C34.0 -66.0 97.0 -162.0 116.0 -229.0C177.0 -277.0 220.0 -144.0 0.0 0.0ZM465.0 -212.0 424.0 -266.0H-368.0L-358.0 -296.0H518.0C531.0 -296.0 541.0 -290.0 543.0 -279.0C514.0 -251.0 465.0 -212.0 465.0 -212.0Z"/></g>
<g fill="red" transform="translate(600 200) scale(0.1 -0.1)"><path d="M0.0 0.0 -8.0 -5.0C30.0 -81.0 66.0 -175.0 74.0 -266.0C217.0 -390.0 358.0 -106.0 0.0 0.0ZM447.0 -194.0 362.0 -310.0H-360.0L-352.0 -338.0H570.0C585.0 -338.0 597.0 -333.0 600.0 -322.0C544.0 -271.0 447.0 -194.0 447.0 -194.0Z"/></g>
<g fill="black" opacity=".8" transform="translate(600 200) scale(0.1 -0.1)"><path d="M0.0 0.0 -8.0 -5.0C31.0 -79.0 66.0 -171.0 73.0 -260.0C212.0 -387.0 364.0 -109.0 0.0 0.0ZM449.0 -193.0 365.0 -310.0H-359.0L-351.0 -338.0H571.0C585.0 -338.0 598.0 -333.0 599.0 -322.0C544.0 -271.0 449.0 -193.0 449.0 -193.0Z"/></g>
<g fill="red" transform="translate(700 200) scale(0.1 -0.1)"><path d="M0.0 0.0 -12.0 -9.0C42.0 -55.0 110.0 -138.0 126.0 -200.0C186.0 -241.0 222.0 -103.0 0.0 0.0ZM467.0 -158.0 421.0 -214.0H-346.0L-337.0 -244.0H525.0C540.0 -244.0 549.0 -239.0 552.0 -228.0C519.0 -198.0 467.0 -158.0 467.0 -158.0Z"/></g>
<g fill="black" opacity=".8" transform="translate(700 200) scale(0.1 -0.1)"><path d="M0.0 0.0 -13.0 -9.0C37.0 -54.0 103.0 -136.0 120.0 -196.0C182.0 -237.0 217.0 -103.0 0.0 0.0ZM469.0 -156.0 423.0 -213.0H-340.0L-331.0 -243.0H530.0C543.0 -243.0 552.0 -238.0 554.0 -226.0C522.0 -196.0 469.0 -156.0 469.0 -156.0Z"/></g>
<g fill="red" transform="translate(800 200) scale(0.1 -0.1)"><path d="M0.0 0.0 -7.0 -5.0C34.0 -55.0 70.0 -128.0 78.0 -199.0C215.0 -300.0 343.0 -33.0 0.0 0.0ZM441.0 -102.0 358.0 -208.0H-336.0L-328.0 -236.0H560.0C575.0 -236.0 587.0 -231.0 590.0 -220.0C534.0 -172.0 441.0 -102.0 441.0 -102.0Z"/></g>
<g fill="black" opacity=".8" transform="translate(800 200) scale(0.1 -0.1)"><path d="M0.0 0.0 -7.0 -5.0C34.0 -55.0 72.0 -130.0 83.0 -203.0C225.0 -303.0 348.0 -27.0 0.0 0.0ZM437.0 -102.0 352.0 -211.0H-341.0L-333.0 -239.0H559.0C573.0 -239.0 585.0 -233.0 587.0 -223.0C530.0 -174.0 437.0 -102.0 437.0 -102.0Z"/></g>
<g fill="red" transform="translate(900 200) scale(0.1 -0.1)"><path d="M0.0 0.0 -12.0 -8.0C26.0 -43.0 69.0 -105.0 76.0 -155.0C125.0 -192.0 164.0 -80.0 0.0 0.0ZM459.0 -114.0 417.0 -172.0H-364.0L-355.0 -202.0H508.0C522.0 -202.0 532.0 -197.0 534.0 -186.0C506.0 -156.0 459.0 -114.0 459.0 -114.0Z"/></g>
<g fill="black" opacity=".8" transform="translate(900 200) scale(0.1 -0.1)"><path d="M0.0 0.0 -13.0 -8.0C22.0 -44.0 66.0 -107.0 76.0 -154.0C130.0 -193.0 169.0 -81.0 0.0 0.0ZM458.0 -118.0 417.0 -172.0H-369.0L-360.0 -201.0H509.0C522.0 -201.0 532.0 -196.0 534.0 -185.0C505.0 -156.0 458.0 -118.0 458.0 -118.0Z"/></g>
<g fill="red" transform="translate(1000 200) scale(0.1 -0.1)"><path d="M0.0 0.0 -6.0 -5.0C33.0 -49.0 68.0 -116.0 76.0 -181.0C213.0 -277.0 336.0 -14.0 0.0 0.0ZM467.0 -88.0 390.0 -198.0H-346.0L-338.0 -226.0H576.0C590.0 -226.0 602.0 -221.0 605.0 -210.0C555.0 -162.0 467.0 -88.0 467.0 -88.0Z"/></g>
<g fill="black" opacity=".8" transform="translate(1000 200) scale(0.1 -0.1)"><path d="M0.0 0.0 -7.0 -5.0C29.0 -50.0 64.0 -117.0 74.0 -182.0C213.0 -277.0 331.0 -11.0 0.0 0.0ZM467.0 -90.0 391.0 -196.0H-342.0L-334.0 -224.0H577.0C591.0 -224.0 603.0 -219.0 605.0 -208.0C554.0 -161.0 467.0 -90.0 467.0 -90.0Z"/></g>
<g fill="red" transform="translate(1100 200) scale(0.1 -0.1)"><path d="M0.0 0.0 -12.0 -8.0C28.0 -47.0 82.0 -115.0 100.0 -163.0C154.0 -198.0 189.0 -88.0 0.0 0.0ZM448.0 -118.0 406.0 -176.0H-384.0L-375.0 -206.0H498.0C511.0 -206.0 520.0 -201.0 523.0 -190.0C495.0 -160.0 448.0 -118.0 448.0 -118.0Z"/></g>
<g fill="black" opacity=".8" transform="translate(1100 200) scale(0.1 -0.1)"><path d="M0.0 0.0 -13.0 -9.0C30.0 -46.0 81.0 -112.0 94.0 -161.0C150.0 -200.0 186.0 -82.0 0.0 0.0ZM447.0 -120.0 405.0 -175.0H-377.0L-368.0 -205.0H500.0C514.0 -205.0 523.0 -199.0 525.0 -188.0C496.0 -159.0 447.0 -120.0 447.0 -120.0Z"/></g>
<g fill="red" transform="translate(1200 200) scale(0.1 -0.1)"><path d="M0.0 0.0 -7.0 -5.0C31.0 -49.0 68.0 -115.0 79.0 -179.0C215.0 -272.0 334.0 -12.0 0.0 0.0ZM447.0 -82.0 370.0 -192.0H-352.0L-344.0 -220.0H556.0C570.0 -220.0 582.0 -215.0 585.0 -204.0C535.0 -156.0 447.0 -82.0 447.0 -82.0Z"/></g>
<g fill="black" opacity=".8" transform="translate(1200 200) scale(0.1 -0.1)"><path d="M0.0 0.0 -7.0 -5.0C32.0 -50.0 70.0 -117.0 81.0 -182.0C220.0 -275.0 335.0 -9.0 0.0 0.0ZM445.0 -86.0 367.0 -191.0H-359.0L-351.0 -219.0H557.0C571.0 -219.0 583.0 -214.0 585.0 -203.0C533.0 -156.0 445.0 -86.0 445.0 -86.0Z"/></g>
<g fill="red" transform="translate(1300 200) scale(0.1 -0.1)"><path d="M0.0 0.0 -13.0 -7.0C26.0 -52.0 78.0 -128.0 94.0 -181.0C148.0 -220.0 185.0 -106.0 0.0 0.0ZM457.0 -150.0 414.0 -203.0H-376.0L-367.0 -233.0H512.0C525.0 -233.0 535.0 -228.0 538.0 -217.0C507.0 -188.0 457.0 -150.0 457.0 -150.0Z"/></g>
<g fill="black" opacity=".8" transform="translate(1300 200) scale(0.1 -0.1)"><path d="M0.0 0.0 -13.0 -8.0C26.0 -50.0 78.0 -124.0 89.0 -179.0C146.0 -221.0 186.0 -99.0 0.0 0.0ZM458.0 -148.0 414.0 -204.0H-371.0L-362.0 -234.0H512.0C525.0 -234.0 535.0 -228.0 537.0 -217.0C507.0 -188.0 458.0 -148.0 458.0 -148.0Z"/></g>
<g fill="red" transform="translate(1400 200) scale(0.1 -0.1)"><path d="M0.0 0.0 -7.0 -5.0C36.0 -54.0 77.0 -126.0 89.0 -196.0C230.0 -292.0 349.0 -21.0 0.0 0.0ZM459.0 -113.0 381.0 -211.0H-346.0L-338.0 -239.0H572.0C587.0 -239.0 598.0 -234.0 601.0 -223.0C548.0 -178.0 459.0 -113.0 459.0 -113.0Z"/></g>
<g fill="black" opacity=".8" transform="translate(1400 200) scale(0.1 -0.1)"><path d="M0.0 0.0 -7.0 -5.0C35.0 -55.0 76.0 -128.0 88.0 -200.0C235.0 -297.0 348.0 -14.0 0.0 0.0ZM458.0 -106.0 377.0 -214.0H-349.0L-341.0 -243.0H573.0C587.0 -243.0 599.0 -237.0 600.0 -226.0C548.0 -178.0 458.0 -106.0 458.0 -106.0Z"/></g>
<g fill="red" transform="translate(1500 200) scale(0.1 -0.1)"><path d="M0.0 0.0 -11.0 -9.0C25.0 -34.0 65.0 -83.0 74.0 -122.0C123.0 -156.0 157.0 -49.0 0.0 0.0ZM431.0 -86.0 389.0 -138.0H-370.0L-361.0 -168.0H483.0C497.0 -168.0 507.0 -163.0 509.0 -152.0C479.0 -123.0 431.0 -86.0 431.0 -86.0Z"/></g>
<g fill="black" opacity=".8" transform="translate(1500 200) scale(0.1 -0.1)"><path d="M0.0 0.0 -12.0 -9.0C24.0 -35.0 64.0 -84.0 74.0 -123.0C125.0 -157.0 159.0 -51.0 0.0 0.0ZM432.0 -86.0 391.0 -139.0H-375.0L-366.0 -168.0H484.0C497.0 -168.0 507.0 -163.0 509.0 -152.0C479.0 -123.0 432.0 -86.0 432.0 -86.0Z"/></g>
<g fill="red" transform="translate(1600 200) scale(0.1 -0.1)"><path d="M0.0 0.0 -6.0 -5.0C27.0 -37.0 61.0 -90.0 72.0 -142.0C207.0 -220.0 312.0 31.0 0.0 0.0ZM438.0 -47.0 364.0 -149.0H-358.0L-350.0 -177.0H542.0C556.0 -177.0 568.0 -172.0 571.0 -161.0C522.0 -115.0 438.0 -47.0 438.0 -47.0Z"/></g>
<g fill="black" opacity=".8" transform="translate(1600 200) scale(0.1 -0.1)"><path d="M0.0 0.0 -6.0 -5.0C28.0 -36.0 63.0 -89.0 73.0 -140.0C206.0 -219.0 309.0 30.0 0.0 0.0ZM438.0 -49.0 364.0 -147.0H-354.0L-345.0 -176.0H542.0C556.0 -176.0 567.0 -170.0 569.0 -160.0C520.0 -115.0 438.0 -49.0 438.0 -49.0Z"/></g>
<g fill="red" transform="translate(100 300) scale(0.1 -0.1)"><path d="M0.0 0.0 -10.0 -10.0C40.0 -39.0 103.0 -97.0 122.0 -143.0C183.0 -174.0 207.0 -46.0 0.0 0.0ZM465.0 -93.0 418.0 -150.0H-349.0L-340.0 -180.0H525.0C539.0 -180.0 549.0 -175.0 551.0 -164.0C518.0 -133.0 465.0 -93.0 465.0 -93.0Z"/></g>
<g fill="black" opacity=".8" transform="translate(100 300) scale(0.1 -0.1)"><path d="M0.0 0.0 -11.0 -11.0C44.0 -40.0 104.0 -97.0 121.0 -141.0C180.0 -174.0 207.0 -52.0 0.0 0.0ZM468.0 -95.0 425.0 -149.0H-350.0L-341.0 -180.0H523.0C537.0 -180.0 547.0 -175.0 549.0 -163.0C518.0 -134.0 468.0 -95.0 468.0 -95.0Z"/></g>
<g fill="red" transform="translate(200 300) scale(0.1 -0.1)"><path d="M0.0 0.0 -6.0 -5.0C36.0 -42.0 81.0 -104.0 98.0 -163.0C242.0 -239.0 336.0 32.0 0.0 0.0ZM465.0 -64.0 388.0 -164.0H-334.0L-326.0 -192.0H576.0C591.0 -192.0 602.0 -187.0 605.0 -176.0C553.0 -131.0 465.0 -64.0 465.0 -64.0Z"/></g>
<g fill="black" opacity=".8" transform="translate(200 300) scale(0.1 -0.1)"><path d="M0.0 0.0 -6.0 -6.0C39.0 -43.0 83.0 -102.0 98.0 -158.0C241.0 -237.0 343.0 30.0 0.0 0.0ZM465.0 -62.0 387.0 -164.0H-333.0L-325.0 -193.0H575.0C589.0 -193.0 602.0 -187.0 604.0 -176.0C551.0 -130.0 465.0 -62.0 465.0 -62.0Z"/></g>
<g fill="red" transform="translate(300 300) scale(0.1 -0.1)"><path d="M0.0 0.0 -11.0 -9.0C22.0 -33.0 58.0 -77.0 66.0 -113.0C114.0 -147.0 149.0 -44.0 0.0 0.0ZM443.0 -80.0 400.0 -132.0H-386.0L-377.0 -162.0H495.0C509.0 -162.0 518.0 -157.0 521.0 -146.0C491.0 -117.0 443.0 -80.0 443.0 -80.0Z"/></g>
<g fill="black" opacity=".8" transform="translate(300 300) scale(0.1 -0.1)"><path d="M0.0 0.0 -12.0 -9.0C18.0 -33.0 53.0 -78.0 61.0 -114.0C112.0 -147.0 147.0 -45.0 0.0 0.0ZM444.0 -78.0 403.0 -131.0H-376.0L-366.0 -161.0H496.0C509.0 -161.0 519.0 -156.0 521.0 -144.0C491.0 -116.0 444.0 -78.0 444.0 -78.0Z"/></g>
<g fill="red" transform="translate(400 300) scale(0.1 -0.1)"><path d="M0.0 0.0 -6.0 -5.0C22.0 -34.0 49.0 -84.0 53.0 -132.0C180.0 -216.0 299.0 21.0 0.0 0.0ZM452.0 -43.0 378.0 -145.0H-344.0L-336.0 -173.0H556.0C570.0 -173.0 582.0 -168.0 585.0 -157.0C536.0 -111.0 452.0 -43.0 452.0 -43.0Z"/></g>
<g fill="black" opacity=".8" transform="translate(400 300) scale(0.1 -0.1)"><path d="M0.0 0.0 -6.0 -5.0C21.0 -34.0 50.0 -84.0 57.0 -133.0C187.0 -215.0 300.0 26.0 0.0 0.0ZM451.0 -45.0 377.0 -145.0H-355.0L-346.0 -174.0H555.0C569.0 -174.0 581.0 -169.0 583.0 -158.0C534.0 -113.0 451.0 -45.0 451.0 -45.0Z"/></g>
<g fill="red" transform="translate(500 300) scale(0.1 -0.1)"><path d="M0.0 0.0 -11.0 -9.0C24.0 -33.0 62.0 -79.0 70.0 -115.0C119.0 -148.0 153.0 -44.0 0.0 0.0ZM426.0 -63.0 384.0 -115.0H-356.0L-347.0 -145.0H478.0C492.0 -145.0 502.0 -140.0 505.0 -129.0C475.0 -100.0 426.0 -63.0 426.0 -63.0Z"/></g>
<g fill="black" opacity=".8" transform="translate(500 300) scale(0.1 -0.1)"><path d="M0.0 0.0 -11.0 -9.0C25.0 -34.0 65.0 -79.0 76.0 -114.0C127.0 -145.0 158.0 -43.0 0.0 0.0ZM425.0 -67.0 384.0 -118.0H-365.0L-356.0 -147.0H476.0C489.0 -147.0 498.0 -142.0 500.0 -131.0C472.0 -103.0 425.0 -67.0 425.0 -67.0Z"/></g>
<g fill="red" transform="translate(600 300) scale(0.1 -0.1)"><path d="M0.0 0.0 -6.0 -5.0C20.0 -34.0 47.0 -83.0 52.0 -130.0C179.0 -213.0 298.0 21.0 0.0 0.0ZM418.0 -40.0 345.0 -140.0H-363.0L-355.0 -168.0H518.0C533.0 -168.0 544.0 -163.0 547.0 -152.0C500.0 -107.0 418.0 -40.0 418.0 -40.0Z"/></g>
<g fill="black" opacity=".8" transform="translate(600 300) scale(0.1 -0.1)"><path d="M0.0 0.0 -6.0 -5.0C19.0 -35.0 45.0 -83.0 51.0 -130.0C172.0 -213.0 289.0 11.0 0.0 0.0ZM420.0 -40.0 348.0 -136.0H-355.0L-347.0 -164.0H522.0C536.0 -164.0 548.0 -159.0 549.0 -148.0C501.0 -105.0 420.0 -40.0 420.0 -40.0Z"/></g>
<g fill="red" transform="translate(700 300) scale(0.1 -0.1)"><path d="M0.0 0.0 -10.0 -10.0C34.0 -37.0 88.0 -92.0 102.0 -135.0C161.0 -167.0 189.0 -45.0 0.0 0.0ZM461.0 -79.0 418.0 -131.0H-298.0L-289.0 -161.0H514.0C528.0 -161.0 537.0 -156.0 539.0 -145.0C510.0 -116.0 461.0 -79.0 461.0 -79.0Z"/></g>
<g fill="black" opacity=".8" transform="translate(700 300) scale(0.1 -0.1)"><path d="M0.0 0.0 -11.0 -10.0C38.0 -37.0 93.0 -91.0 109.0 -133.0C165.0 -164.0 191.0 -48.0 0.0 0.0ZM461.0 -81.0 418.0 -134.0H-320.0L-312.0 -163.0H515.0C528.0 -163.0 537.0 -158.0 539.0 -147.0C510.0 -118.0 461.0 -81.0 461.0 -81.0Z"/></g>
<g fill="red" transform="translate(800 300) scale(0.1 -0.1)"><path d="M0.0 0.0 -6.0 -5.0C30.0 -38.0 68.0 -94.0 81.0 -148.0C219.0 -225.0 318.0 32.0 0.0 0.0ZM449.0 -45.0 375.0 -147.0H-333.0L-325.0 -175.0H553.0C567.0 -175.0 579.0 -170.0 582.0 -159.0C533.0 -113.0 449.0 -45.0 449.0 -45.0Z"/></g>
<g fill="black" opacity=".8" transform="translate(800 300) scale(0.1 -0.1)"><path d="M0.0 0.0 -6.0 -5.0C30.0 -38.0 66.0 -93.0 78.0 -145.0C210.0 -224.0 317.0 23.0 0.0 0.0ZM448.0 -46.0 372.0 -144.0H-312.0L-303.0 -171.0H556.0C569.0 -171.0 581.0 -166.0 583.0 -156.0C532.0 -111.0 448.0 -46.0 448.0 -46.0Z"/></g>
<g fill="red" transform="translate(900 300) scale(0.1 -0.1)"><path d="M0.0 0.0 -10.0 -10.0C34.0 -37.0 88.0 -92.0 102.0 -135.0C161.0 -167.0 189.0 -45.0 0.0 0.0ZM469.0 -100.0 426.0 -153.0H-328.0L-319.0 -183.0H523.0C537.0 -183.0 546.0 -178.0 549.0 -167.0C518.0 -138.0 469.0 -100.0 469.0 -100.0Z"/></g>
<g fill="black" opacity=".8" transform="translate(900 300) scale(0.1 -0.1)"><path d="M0.0 0.0 -11.0 -10.0C37.0 -39.0 93.0 -96.0 108.0 -140.0C165.0 -173.0 193.0 -54.0 0.0 0.0ZM466.0 -101.0 422.0 -155.0H-332.0L-324.0 -185.0H522.0C535.0 -185.0 545.0 -180.0 546.0 -168.0C516.0 -139.0 466.0 -101.0 466.0 -101.0Z"/></g>
<g fill="red" transform="translate(1000 300) scale(0.1 -0.1)"><path d="M0.0 0.0 -6.0 -5.0C35.0 -41.0 78.0 -101.0 95.0 -159.0C238.0 -234.0 330.0 33.0 0.0 0.0ZM451.0 -60.0 371.0 -159.0H-323.0L-315.0 -187.0H566.0C581.0 -187.0 593.0 -182.0 596.0 -171.0C541.0 -126.0 451.0 -60.0 451.0 -60.0Z"/></g>
<g fill="black" opacity=".8" transform="translate(1000 300) scale(0.1 -0.1)"><path d="M0.0 0.0 -6.0 -5.0C35.0 -39.0 75.0 -96.0 89.0 -151.0C229.0 -229.0 329.0 33.0 0.0 0.0ZM457.0 -58.0 379.0 -158.0H-319.0L-311.0 -186.0H567.0C581.0 -186.0 593.0 -181.0 595.0 -170.0C543.0 -125.0 457.0 -58.0 457.0 -58.0Z"/></g>
<g fill="red" transform="translate(1100 300) scale(0.1 -0.1)"><path d="M0.0 0.0 -10.0 -10.0C29.0 -33.0 74.0 -76.0 87.0 -112.0C139.0 -141.0 165.0 -33.0 0.0 0.0ZM442.0 -69.0 399.0 -121.0H-387.0L-378.0 -151.0H494.0C508.0 -151.0 517.0 -146.0 520.0 -135.0C490.0 -106.0 442.0 -69.0 442.0 -69.0Z"/></g>
<g fill="black" opacity=".8" transform="translate(1100 300) scale(0.1 -0.1)"><path d="M0.0 0.0 -11.0 -10.0C29.0 -33.0 72.0 -77.0 85.0 -111.0C138.0 -143.0 169.0 -36.0 0.0 0.0ZM440.0 -68.0 398.0 -121.0H-386.0L-377.0 -152.0H494.0C508.0 -152.0 518.0 -146.0 519.0 -135.0C490.0 -106.0 440.0 -68.0 440.0 -68.0Z"/></g>
<g fill="red" transform="translate(1200 300) scale(0.1 -0.1)"><path d="M0.0 0.0 -6.0 -5.0C20.0 -34.0 47.0 -83.0 52.0 -130.0C179.0 -213.0 298.0 21.0 0.0 0.0ZM435.0 -40.0 363.0 -140.0H-378.0L-370.0 -168.0H536.0C551.0 -168.0 562.0 -163.0 565.0 -152.0C517.0 -107.0 435.0 -40.0 435.0 -40.0Z"/></g>
<g fill="black" opacity=".8" transform="translate(1200 300) scale(0.1 -0.1)"><path d="M0.0 0.0 -7.0 -5.0C21.0 -34.0 48.0 -82.0 54.0 -127.0C178.0 -209.0 299.0 20.0 0.0 0.0ZM434.0 -40.0 358.0 -139.0H-378.0L-370.0 -168.0H539.0C553.0 -168.0 566.0 -163.0 568.0 -152.0C517.0 -107.0 434.0 -40.0 434.0 -40.0Z"/></g>
<g fill="red" transform="translate(1300 300) scale(0.1 -0.1)"><path d="M0.0 0.0 -10.0 -10.0C25.0 -30.0 64.0 -70.0 76.0 -103.0C126.0 -132.0 154.0 -30.0 0.0 0.0ZM443.0 -47.0 403.0 -97.0H-351.0L-342.0 -127.0H493.0C507.0 -127.0 516.0 -122.0 519.0 -111.0C490.0 -83.0 443.0 -47.0 443.0 -47.0Z"/></g>
<g fill="black" opacity=".8" transform="translate(1300 300) scale(0.1 -0.1)"><path d="M0.0 0.0 -11.0 -10.0C24.0 -30.0 64.0 -70.0 75.0 -102.0C126.0 -133.0 156.0 -30.0 0.0 0.0ZM443.0 -46.0 400.0 -99.0H-355.0L-346.0 -128.0H496.0C510.0 -128.0 519.0 -123.0 521.0 -112.0C491.0 -83.0 443.0 -46.0 443.0 -46.0Z"/></g>
<g fill="red" transform="translate(1400 300) scale(0.1 -0.1)"><path d="M0.0 0.0 -6.0 -5.0C18.0 -29.0 40.0 -72.0 43.0 -114.0C164.0 -194.0 282.0 29.0 0.0 0.0ZM429.0 -14.0 350.0 -110.0H-353.0L-345.0 -138.0H541.0C556.0 -138.0 568.0 -133.0 571.0 -122.0C517.0 -78.0 429.0 -14.0 429.0 -14.0Z"/></g>
<g fill="black" opacity=".8" transform="translate(1400 300) scale(0.1 -0.1)"><path d="M0.0 0.0 -7.0 -4.0C16.0 -29.0 39.0 -72.0 44.0 -114.0C165.0 -194.0 283.0 26.0 0.0 0.0ZM432.0 -13.0 359.0 -110.0H-350.0L-341.0 -138.0H536.0C550.0 -138.0 562.0 -133.0 564.0 -122.0C514.0 -78.0 432.0 -13.0 432.0 -13.0Z"/></g>
<g fill="red" transform="translate(1500 300) scale(0.1 -0.1)"><path d="M0.0 0.0 -12.0 -7.0C12.0 -31.0 39.0 -71.0 47.0 -102.0C95.0 -135.0 137.0 -43.0 0.0 0.0ZM436.0 -61.0 398.0 -107.0H-388.0L-379.0 -137.0H480.0C494.0 -137.0 503.0 -132.0 506.0 -121.0C478.0 -94.0 436.0 -61.0 436.0 -61.0Z"/></g>
<g fill="black" opacity=".8" transform="translate(1500 300) scale(0.1 -0.1)"><path d="M0.0 0.0 -12.0 -9.0C14.0 -29.0 43.0 -67.0 49.0 -99.0C97.0 -131.0 132.0 -35.0 0.0 0.0ZM431.0 -58.0 389.0 -111.0H-382.0L-373.0 -140.0H481.0C494.0 -140.0 504.0 -135.0 506.0 -124.0C477.0 -95.0 431.0 -58.0 431.0 -58.0Z"/></g>
<g fill="red" transform="translate(1600 300) scale(0.1 -0.1)"><path d="M0.0 0.0 -6.0 -5.0C20.0 -29.0 48.0 -73.0 55.0 -115.0C180.0 -186.0 278.0 42.0 0.0 0.0ZM439.0 -30.0 367.0 -121.0H-355.0L-347.0 -149.0H540.0C555.0 -149.0 566.0 -144.0 569.0 -133.0C520.0 -91.0 439.0 -30.0 439.0 -30.0Z"/></g>
<g fill="black" opacity=".8" transform="translate(1600 300) scale(0.1 -0.1)"><path d="M0.0 0.0 -6.0 -5.0C19.0 -28.0 46.0 -73.0 52.0 -117.0C179.0 -194.0 286.0 39.0 0.0 0.0ZM442.0 -24.0 370.0 -121.0H-359.0L-351.0 -149.0H542.0C556.0 -149.0 567.0 -144.0 569.0 -133.0C522.0 -90.0 442.0 -24.0 442.0 -24.0Z"/></g>
<g fill="red" transform="translate(100 400) scale(0.1 -0.1)"><path d="M0.0 0.0 -11.0 -8.0C21.0 -34.0 60.0 -81.0 73.0 -116.0C123.0 -148.0 159.0 -46.0 0.0 0.0ZM440.0 -74.0 396.0 -128.0H-367.0L-358.0 -158.0H495.0C509.0 -158.0 519.0 -153.0 522.0 -142.0C490.0 -112.0 440.0 -74.0 440.0 -74.0Z"/></g>
<g fill="black" opacity=".8" transform="translate(100 400) scale(0.1 -0.1)"><path d="M0.0 0.0 -12.0 -9.0C20.0 -34.0 62.0 -82.0 72.0 -119.0C125.0 -152.0 157.0 -46.0 0.0 0.0ZM438.0 -75.0 394.0 -128.0H-356.0L-347.0 -158.0H495.0C508.0 -158.0 517.0 -153.0 519.0 -141.0C488.0 -112.0 438.0 -75.0 438.0 -75.0Z"/></g>
<g fill="red" transform="translate(200 400) scale(0.1 -0.1)"><path d="M0.0 0.0 -7.0 -4.0C12.0 -33.0 31.0 -78.0 33.0 -122.0C146.0 -208.0 279.0 -3.0 0.0 0.0ZM406.0 -32.0 328.0 -129.0H-352.0L-344.0 -157.0H519.0C534.0 -157.0 546.0 -152.0 548.0 -141.0C495.0 -97.0 406.0 -32.0 406.0 -32.0Z"/></g>
<g fill="black" opacity=".8" transform="translate(200 400) scale(0.1 -0.1)"><path d="M0.0 0.0 -7.0 -4.0C11.0 -31.0 29.0 -77.0 31.0 -123.0C147.0 -211.0 277.0 5.0 0.0 0.0ZM411.0 -30.0 334.0 -129.0H-363.0L-355.0 -157.0H519.0C533.0 -157.0 545.0 -152.0 547.0 -142.0C495.0 -97.0 411.0 -30.0 411.0 -30.0Z"/></g>
<g fill="red" transform="translate(300 400) scale(0.1 -0.1)"><path d="M0.0 0.0 -12.0 -7.0C13.0 -35.0 42.0 -84.0 49.0 -120.0C96.0 -157.0 140.0 -61.0 0.0 0.0ZM426.0 -81.0 381.0 -135.0H-335.0L-326.0 -165.0H482.0C496.0 -165.0 504.0 -160.0 507.0 -149.0C476.0 -119.0 426.0 -81.0 426.0 -81.0Z"/></g>
<g fill="black" opacity=".8" transform="translate(300 400) scale(0.1 -0.1)"><path d="M0.0 0.0 -12.0 -7.0C11.0 -35.0 44.0 -86.0 51.0 -125.0C100.0 -160.0 137.0 -59.0 0.0 0.0ZM431.0 -84.0 390.0 -135.0H-349.0L-341.0 -164.0H483.0C496.0 -164.0 505.0 -159.0 507.0 -148.0C478.0 -120.0 431.0 -84.0 431.0 -84.0Z"/></g>
<g fill="red" transform="translate(400 400) scale(0.1 -0.1)"><path d="M0.0 0.0 -7.0 -4.0C12.0 -36.0 32.0 -85.0 33.0 -133.0C148.0 -226.0 289.0 -15.0 0.0 0.0ZM418.0 -46.0 340.0 -143.0H-354.0L-346.0 -171.0H531.0C546.0 -171.0 558.0 -166.0 561.0 -155.0C507.0 -111.0 418.0 -46.0 418.0 -46.0Z"/></g>
<g fill="black" opacity=".8" transform="translate(400 400) scale(0.1 -0.1)"><path d="M0.0 0.0 -7.0 -3.0C11.0 -35.0 30.0 -86.0 31.0 -138.0C150.0 -228.0 276.0 -7.0 0.0 0.0ZM420.0 -45.0 346.0 -144.0H-343.0L-335.0 -171.0H525.0C539.0 -171.0 550.0 -166.0 552.0 -156.0C503.0 -111.0 420.0 -45.0 420.0 -45.0Z"/></g>
<g fill="red" transform="translate(500 400) scale(0.1 -0.1)"><path d="M0.0 0.0 -11.0 -9.0C32.0 -39.0 82.0 -95.0 95.0 -140.0C146.0 -173.0 176.0 -59.0 0.0 0.0ZM459.0 -102.0 415.0 -156.0H-366.0L-357.0 -186.0H514.0C528.0 -186.0 537.0 -181.0 539.0 -170.0C509.0 -140.0 459.0 -102.0 459.0 -102.0Z"/></g>
<g fill="black" opacity=".8" transform="translate(500 400) scale(0.1 -0.1)"><path d="M0.0 0.0 -12.0 -9.0C28.0 -39.0 77.0 -96.0 89.0 -139.0C145.0 -174.0 178.0 -59.0 0.0 0.0ZM459.0 -100.0 414.0 -156.0H-361.0L-352.0 -186.0H515.0C529.0 -186.0 538.0 -181.0 540.0 -169.0C509.0 -139.0 459.0 -100.0 459.0 -100.0Z"/></g>
<g fill="red" transform="translate(600 400) scale(0.1 -0.1)"><path d="M0.0 0.0 -6.0 -5.0C28.0 -38.0 58.0 -95.0 64.0 -149.0C195.0 -237.0 314.0 13.0 0.0 0.0ZM448.0 -54.0 372.0 -159.0H-350.0L-342.0 -187.0H554.0C569.0 -187.0 580.0 -182.0 583.0 -171.0C534.0 -124.0 448.0 -54.0 448.0 -54.0Z"/></g>
<g fill="black" opacity=".8" transform="translate(600 400) scale(0.1 -0.1)"><path d="M0.0 0.0 -7.0 -5.0C26.0 -39.0 58.0 -95.0 66.0 -149.0C200.0 -236.0 316.0 16.0 0.0 0.0ZM445.0 -56.0 366.0 -159.0H-354.0L-345.0 -188.0H557.0C571.0 -188.0 583.0 -182.0 585.0 -171.0C532.0 -125.0 445.0 -56.0 445.0 -56.0Z"/></g>
<g fill="red" transform="translate(700 400) scale(0.1 -0.1)"><path d="M0.0 0.0 -11.0 -8.0C19.0 -34.0 56.0 -81.0 66.0 -116.0C115.0 -149.0 151.0 -51.0 0.0 0.0ZM443.0 -521.0 398.0 -575.0H-369.0L-360.0 -605.0H498.0C512.0 -605.0 522.0 -600.0 524.0 -589.0C493.0 -559.0 443.0 -521.0 443.0 -521.0Z"/></g>
<g fill="black" opacity=".8" transform="translate(700 400) scale(0.1 -0.1)"><path d="M0.0 0.0 -12.0 -8.0C20.0 -34.0 56.0 -81.0 66.0 -116.0C116.0 -149.0 153.0 -52.0 0.0 0.0ZM442.0 -522.0 398.0 -576.0H-372.0L-363.0 -606.0H498.0C512.0 -606.0 522.0 -601.0 523.0 -588.0C493.0 -559.0 442.0 -522.0 442.0 -522.0Z"/></g>
<g fill="red" transform="translate(800 400) scale(0.1 -0.1)"><path d="M0.0 0.0 -6.0 -5.0C20.0 -28.0 41.0 -72.0 42.0 -114.0C166.0 -198.0 288.0 32.0 0.0 0.0ZM429.0 -489.0 357.0 -587.0H-365.0L-357.0 -615.0H530.0C545.0 -615.0 556.0 -610.0 559.0 -599.0C511.0 -555.0 429.0 -489.0 429.0 -489.0Z"/></g>
<g fill="black" opacity=".8" transform="translate(800 400) scale(0.1 -0.1)"><path d="M0.0 0.0 -7.0 -5.0C20.0 -27.0 40.0 -71.0 41.0 -113.0C164.0 -198.0 288.0 30.0 0.0 0.0ZM429.0 -488.0 357.0 -586.0H-362.0L-354.0 -614.0H531.0C546.0 -614.0 556.0 -609.0 558.0 -599.0C510.0 -555.0 429.0 -488.0 429.0 -488.0Z"/></g>
<g fill="red" transform="translate(900 400) scale(0.1 -0.1)"><path d="M0.0 0.0 -10.0 -10.0C28.0 -30.0 71.0 -68.0 85.0 -100.0C137.0 -126.0 160.0 -22.0 0.0 0.0ZM441.0 -60.0 398.0 -112.0H-388.0L-379.0 -142.0H493.0C507.0 -142.0 516.0 -137.0 519.0 -126.0C489.0 -97.0 441.0 -60.0 441.0 -60.0Z"/></g>
<g fill="black" opacity=".8" transform="translate(900 400) scale(0.1 -0.1)"><path d="M0.0 0.0 -11.0 -11.0C29.0 -29.0 71.0 -68.0 83.0 -100.0C135.0 -130.0 164.0 -25.0 0.0 0.0ZM438.0 -59.0 394.0 -113.0H-382.0L-373.0 -143.0H492.0C506.0 -143.0 516.0 -138.0 518.0 -126.0C487.0 -97.0 438.0 -59.0 438.0 -59.0Z"/></g>
<g fill="red" transform="translate(1000 400) scale(0.1 -0.1)"><path d="M0.0 0.0 -5.0 -5.0C21.0 -29.0 50.0 -73.0 57.0 -116.0C188.0 -189.0 290.0 50.0 0.0 0.0ZM431.0 -22.0 359.0 -122.0H-368.0L-360.0 -150.0H532.0C547.0 -150.0 558.0 -145.0 561.0 -134.0C513.0 -89.0 431.0 -22.0 431.0 -22.0Z"/></g>
<g fill="black" opacity=".8" transform="translate(1000 400) scale(0.1 -0.1)"><path d="M0.0 0.0 -6.0 -5.0C22.0 -27.0 51.0 -70.0 59.0 -111.0C185.0 -185.0 295.0 45.0 0.0 0.0ZM432.0 -24.0 357.0 -120.0H-373.0L-365.0 -149.0H536.0C550.0 -149.0 562.0 -144.0 564.0 -133.0C514.0 -89.0 432.0 -24.0 432.0 -24.0Z"/></g>
<g fill="red" transform="translate(1100 400) scale(0.1 -0.1)"><path d="M0.0 0.0 -13.0 -7.0C17.0 -39.0 49.0 -94.0 55.0 -135.0C100.0 -171.0 142.0 -74.0 0.0 0.0ZM217.0 90.0 174.0 38.0H-602.0L-593.0 8.0H270.0C284.0 8.0 293.0 13.0 296.0 24.0C265.0 53.0 217.0 90.0 217.0 90.0Z"/></g>
<g fill="black" opacity=".8" transform="translate(1100 400) scale(0.1 -0.1)"><path d="M0.0 0.0 -14.0 -7.0C19.0 -40.0 50.0 -95.0 55.0 -134.0C100.0 -171.0 145.0 -79.0 0.0 0.0ZM217.0 90.0 174.0 37.0H-607.0L-599.0 7.0H270.0C284.0 7.0 293.0 13.0 295.0 24.0C264.0 52.0 217.0 90.0 217.0 90.0Z"/></g>
<g fill="red" transform="translate(1200 400) scale(0.1 -0.1)"><path d="M0.0 0.0 -9.0 -5.0C12.0 -37.0 26.0 -88.0 21.0 -134.0C114.0 -223.0 245.0 -43.0 0.0 0.0ZM178.0 147.0 106.0 54.0H-644.0L-636.0 26.0H279.0C294.0 26.0 305.0 31.0 308.0 42.0C259.0 85.0 178.0 147.0 178.0 147.0Z"/></g>
<g fill="black" opacity=".8" transform="translate(1200 400) scale(0.1 -0.1)"><path d="M0.0 0.0 -9.0 -5.0C12.0 -38.0 25.0 -87.0 20.0 -130.0C111.0 -221.0 246.0 -45.0 0.0 0.0ZM179.0 148.0 106.0 56.0H-639.0L-630.0 27.0H281.0C295.0 27.0 306.0 32.0 307.0 43.0C258.0 86.0 179.0 148.0 179.0 148.0Z"/></g>
<g fill="red" transform="translate(1300 400) scale(0.1 -0.1)"><path d="M0.0 0.0 -10.0 -10.0C18.0 -24.0 46.0 -53.0 55.0 -79.0C102.0 -105.0 131.0 -12.0 0.0 0.0ZM420.0 -33.0 380.0 -83.0H-374.0L-365.0 -113.0H470.0C484.0 -113.0 493.0 -108.0 496.0 -97.0C467.0 -69.0 420.0 -33.0 420.0 -33.0Z"/></g>
<g fill="black" opacity=".8" transform="translate(1300 400) scale(0.1 -0.1)"><path d="M0.0 0.0 -11.0 -9.0C13.0 -23.0 40.0 -51.0 47.0 -75.0C94.0 -104.0 125.0 -14.0 0.0 0.0ZM424.0 -30.0 384.0 -80.0H-369.0L-360.0 -109.0H475.0C488.0 -109.0 498.0 -104.0 500.0 -93.0C471.0 -65.0 424.0 -30.0 424.0 -30.0Z"/></g>
<g fill="red" transform="translate(1400 400) scale(0.1 -0.1)"><path d="M0.0 0.0 -7.0 -4.0C4.0 -21.0 17.0 -53.0 15.0 -85.0C113.0 -161.0 244.0 10.0 0.0 0.0ZM427.0 -5.0 361.0 -90.0H-361.0L-353.0 -118.0H519.0C533.0 -118.0 544.0 -113.0 547.0 -102.0C502.0 -62.0 427.0 -5.0 427.0 -5.0Z"/></g>
<g fill="black" opacity=".8" transform="translate(1400 400) scale(0.1 -0.1)"><path d="M0.0 0.0 -7.0 -4.0C5.0 -21.0 18.0 -55.0 18.0 -88.0C127.0 -167.0 252.0 28.0 0.0 0.0ZM419.0 -2.0 349.0 -96.0H-364.0L-356.0 -124.0H517.0C530.0 -124.0 542.0 -119.0 544.0 -108.0C497.0 -66.0 419.0 -2.0 419.0 -2.0Z"/></g>
</svg>
