<?xml version="1.0" encoding="UTF-8"?>
<svg width="1700" height="300" xmlns="http://www.w3.org/2000/svg">
<rect width="100%" height="100%" fill="white"/>
<g fill="green" transform="translate(100 100) scale(0.1 -0.1)"><path d="M0.0 0.0H-46.0C-61.0 -64.0 -107.0 -199.0 -134.0 -262.0L-110.0 -228.0C-127.0 -231.0 -152.0 -238.0 -167.0 -246.0L-112.0 -300.0L-82.0 -273.0H-92.0C-65.0 -201.0 -19.0 -71.0 0.0 0.0ZM343.0 -244.0H-108.0L-122.0 -274.0H343.0V-244.0ZM315.0 -244.0H326.0C311.0 -348.0 278.0 -441.0 248.0 -463.0C236.0 -471.0 226.0 -473.0 205.0 -473.0C181.0 -473.0 90.0 -465.0 41.0 -460.0L40.0 -478.0C84.0 -483.0 133.0 -492.0 148.0 -500.0C163.0 -508.0 168.0 -522.0 168.0 -535.0C207.0 -535.0 245.0 -525.0 270.0 -507.0C312.0 -477.0 350.0 -381.0 365.0 -277.0C386.0 -276.0 399.0 -271.0 406.0 -264.0L345.0 -212.0L315.0 -244.0ZM372.0 66.0 331.0 17.0H-238.0L-230.0 -13.0H421.0C435.0 -13.0 444.0 -8.0 447.0 3.0C417.0 31.0 372.0 66.0 372.0 66.0ZM475.0 -64.0 432.0 -115.0H-344.0L-335.0 -145.0H527.0C541.0 -145.0 550.0 -140.0 553.0 -129.0C522.0 -100.0 475.0 -64.0 475.0 -64.0Z"/></g>
<g fill="green" transform="translate(200 100) scale(0.1 -0.1)"><path d="M0.0 0.0H-155.0C-166.0 -52.0 -205.0 -183.0 -232.0 -245.0L-190.0 -208.0C-214.0 -215.0 -243.0 -232.0 -259.0 -247.0L-128.0 -321.0L-79.0 -261.0H-86.0C-62.0 -197.0 -19.0 -62.0 0.0 0.0ZM289.0 -233.0H-155.0L-168.0 -261.0H289.0V-233.0ZM204.0 -233.0H214.0C200.0 -325.0 175.0 -398.0 149.0 -414.0C139.0 -420.0 130.0 -422.0 112.0 -422.0C89.0 -422.0 -4.0 -416.0 -64.0 -411.0L-65.0 -422.0C-9.0 -432.0 38.0 -450.0 60.0 -472.0C82.0 -492.0 87.0 -525.0 86.0 -560.0C158.0 -561.0 201.0 -551.0 238.0 -530.0C296.0 -497.0 331.0 -409.0 353.0 -286.0C374.0 -283.0 386.0 -277.0 394.0 -268.0L274.0 -168.0L204.0 -233.0ZM276.0 87.0 215.0 12.0H-325.0L-317.0 -16.0H359.0C373.0 -16.0 384.0 -11.0 387.0 0.0C344.0 36.0 276.0 87.0 276.0 87.0ZM367.0 -31.0 299.0 -115.0H-414.0L-406.0 -143.0H463.0C478.0 -143.0 489.0 -138.0 492.0 -127.0C444.0 -87.0 367.0 -31.0 367.0 -31.0Z"/></g>
<g fill="green" transform="translate(300 100) scale(0.1 -0.1)"><path d="M0.0 0.0H-46.0C-61.0 -64.0 -107.0 -199.0 -134.0 -262.0L-110.0 -228.0C-127.0 -231.0 -152.0 -238.0 -167.0 -246.0L-112.0 -300.0L-82.0 -273.0H-92.0C-65.0 -201.0 -19.0 -71.0 0.0 0.0ZM343.0 -244.0H-108.0L-122.0 -274.0H343.0V-244.0ZM315.0 -244.0H326.0C311.0 -348.0 278.0 -441.0 248.0 -463.0C236.0 -471.0 226.0 -473.0 205.0 -473.0C181.0 -473.0 90.0 -465.0 41.0 -460.0L40.0 -478.0C84.0 -483.0 133.0 -492.0 148.0 -500.0C163.0 -508.0 168.0 -522.0 168.0 -535.0C207.0 -535.0 245.0 -525.0 270.0 -507.0C312.0 -477.0 350.0 -381.0 365.0 -277.0C386.0 -276.0 399.0 -271.0 406.0 -264.0L345.0 -212.0L315.0 -244.0ZM372.0 66.0 331.0 17.0H-238.0L-230.0 -13.0H421.0C435.0 -13.0 444.0 -8.0 447.0 3.0C417.0 31.0 372.0 66.0 372.0 66.0ZM475.0 -64.0 432.0 -115.0H-344.0L-335.0 -145.0H527.0C541.0 -145.0 550.0 -140.0 553.0 -129.0C522.0 -100.0 475.0 -64.0 475.0 -64.0Z"/></g>
<g fill="green" transform="translate(400 100) scale(0.1 -0.1)"><path d="M0.0 0.0H-155.0C-166.0 -52.0 -205.0 -183.0 -232.0 -245.0L-190.0 -208.0C-214.0 -215.0 -243.0 -232.0 -259.0 -247.0L-128.0 -321.0L-79.0 -261.0H-86.0C-62.0 -197.0 -19.0 -62.0 0.0 0.0ZM289.0 -233.0H-155.0L-168.0 -261.0H289.0V-233.0ZM204.0 -233.0H214.0C200.0 -325.0 175.0 -398.0 149.0 -414.0C139.0 -420.0 130.0 -422.0 112.0 -422.0C89.0 -422.0 -4.0 -416.0 -64.0 -411.0L-65.0 -422.0C-9.0 -432.0 38.0 -450.0 60.0 -472.0C82.0 -492.0 87.0 -525.0 86.0 -560.0C158.0 -561.0 201.0 -551.0 238.0 -530.0C296.0 -497.0 331.0 -409.0 353.0 -286.0C374.0 -283.0 386.0 -277.0 394.0 -268.0L274.0 -168.0L204.0 -233.0ZM276.0 87.0 215.0 12.0H-325.0L-317.0 -16.0H359.0C373.0 -16.0 384.0 -11.0 387.0 0.0C344.0 36.0 276.0 87.0 276.0 87.0ZM367.0 -31.0 299.0 -115.0H-414.0L-406.0 -143.0H463.0C478.0 -143.0 489.0 -138.0 492.0 -127.0C444.0 -87.0 367.0 -31.0 367.0 -31.0Z"/></g>
<g fill="red" transform="translate(100 200) scale(0.1 -0.1)"><path d="M0.0 0.0H-46.0C-61.0 -64.0 -107.0 -199.0 -134.0 -262.0L-110.0 -228.0C-127.0 -231.0 -152.0 -238.0 -167.0 -246.0L-112.0 -300.0L-82.0 -273.0H-92.0C-65.0 -201.0 -19.0 -71.0 0.0 0.0ZM343.0 -244.0H-108.0L-122.0 -274.0H343.0V-244.0ZM315.0 -244.0H326.0C311.0 -348.0 278.0 -441.0 248.0 -463.0C236.0 -471.0 226.0 -473.0 205.0 -473.0C181.0 -473.0 90.0 -465.0 41.0 -460.0L40.0 -478.0C84.0 -483.0 133.0 -492.0 148.0 -500.0C163.0 -508.0 168.0 -522.0 168.0 -535.0C207.0 -535.0 245.0 -525.0 270.0 -507.0C312.0 -477.0 350.0 -381.0 365.0 -277.0C386.0 -276.0 399.0 -271.0 406.0 -264.0L345.0 -212.0L315.0 -244.0ZM372.0 66.0 331.0 17.0H-238.0L-230.0 -13.0H421.0C435.0 -13.0 444.0 -8.0 447.0 3.0C417.0 31.0 372.0 66.0 372.0 66.0ZM475.0 -64.0 432.0 -115.0H-344.0L-335.0 -145.0H527.0C541.0 -145.0 550.0 -140.0 553.0 -129.0C522.0 -100.0 475.0 -64.0 475.0 -64.0Z"/></g>
<g fill="black" opacity=".8" transform="translate(100 200) scale(0.1 -0.1)"><path d="M0.0 0.0H-46.0C-61.0 -64.0 -107.0 -199.0 -134.0 -262.0L-110.0 -228.0C-127.0 -231.0 -152.0 -238.0 -167.0 -246.0L-112.0 -300.0L-82.0 -273.0H-92.0C-65.0 -201.0 -19.0 -71.0 0.0 0.0ZM343.0 -244.0H-108.0L-122.0 -274.0H343.0V-244.0ZM315.0 -244.0H326.0C311.0 -348.0 278.0 -441.0 248.0 -463.0C236.0 -471.0 226.0 -473.0 205.0 -473.0C181.0 -473.0 90.0 -465.0 41.0 -460.0L40.0 -478.0C84.0 -483.0 133.0 -492.0 148.0 -500.0C163.0 -508.0 168.0 -522.0 168.0 -535.0C207.0 -535.0 245.0 -525.0 270.0 -507.0C312.0 -477.0 350.0 -381.0 365.0 -277.0C386.0 -276.0 399.0 -271.0 406.0 -264.0L345.0 -212.0L315.0 -244.0ZM372.0 66.0 331.0 17.0H-238.0L-230.0 -13.0H421.0C435.0 -13.0 444.0 -8.0 447.0 3.0C417.0 31.0 372.0 66.0 372.0 66.0ZM475.0 -64.0 432.0 -115.0H-344.0L-335.0 -145.0H527.0C541.0 -145.0 550.0 -140.0 553.0 -129.0C522.0 -100.0 475.0 -64.0 475.0 -64.0Z"/></g>
<g fill="red" transform="translate(200 200) scale(0.1 -0.1)"><path d="M0.0 0.0H-155.0C-166.0 -52.0 -205.0 -183.0 -232.0 -245.0L-190.0 -208.0C-214.0 -215.0 -243.0 -232.0 -259.0 -247.0L-128.0 -321.0L-79.0 -261.0H-86.0C-62.0 -197.0 -19.0 -62.0 0.0 0.0ZM289.0 -233.0H-155.0L-168.0 -261.0H289.0V-233.0ZM204.0 -233.0H214.0C200.0 -325.0 175.0 -398.0 149.0 -414.0C139.0 -420.0 130.0 -422.0 112.0 -422.0C89.0 -422.0 -4.0 -416.0 -64.0 -411.0L-65.0 -422.0C-9.0 -432.0 38.0 -450.0 60.0 -472.0C82.0 -492.0 87.0 -525.0 86.0 -560.0C158.0 -561.0 201.0 -551.0 238.0 -530.0C296.0 -497.0 331.0 -409.0 353.0 -286.0C374.0 -283.0 386.0 -277.0 394.0 -268.0L274.0 -168.0L204.0 -233.0ZM276.0 87.0 215.0 12.0H-325.0L-317.0 -16.0H359.0C373.0 -16.0 384.0 -11.0 387.0 0.0C344.0 36.0 276.0 87.0 276.0 87.0ZM367.0 -31.0 299.0 -115.0H-414.0L-406.0 -143.0H463.0C478.0 -143.0 489.0 -138.0 492.0 -127.0C444.0 -87.0 367.0 -31.0 367.0 -31.0Z"/></g>
<g fill="black" opacity=".8" transform="translate(200 200) scale(0.1 -0.1)"><path d="M0.0 0.0H-155.0C-166.0 -52.0 -205.0 -183.0 -232.0 -245.0L-190.0 -208.0C-214.0 -215.0 -243.0 -232.0 -259.0 -247.0L-128.0 -321.0L-79.0 -261.0H-86.0C-62.0 -197.0 -19.0 -62.0 0.0 0.0ZM289.0 -233.0H-155.0L-168.0 -261.0H289.0V-233.0ZM204.0 -233.0H214.0C200.0 -325.0 175.0 -398.0 149.0 -414.0C139.0 -420.0 130.0 -422.0 112.0 -422.0C89.0 -422.0 -4.0 -416.0 -64.0 -411.0L-65.0 -422.0C-9.0 -432.0 38.0 -450.0 60.0 -472.0C82.0 -492.0 87.0 -525.0 86.0 -560.0C158.0 -561.0 201.0 -551.0 238.0 -530.0C296.0 -497.0 331.0 -409.0 353.0 -286.0C374.0 -283.0 386.0 -277.0 394.0 -268.0L274.0 -168.0L204.0 -233.0ZM276.0 87.0 215.0 12.0H-325.0L-317.0 -16.0H359.0C373.0 -16.0 384.0 -11.0 387.0 0.0C344.0 36.0 276.0 87.0 276.0 87.0ZM367.0 -31.0 299.0 -115.0H-414.0L-406.0 -143.0H463.0C478.0 -143.0 489.0 -138.0 492.0 -127.0C444.0 -87.0 367.0 -31.0 367.0 -31.0Z"/></g>
</svg>
