<?xml version="1.0" encoding="UTF-8"?>
<svg width="1700" height="400" xmlns="http://www.w3.org/2000/svg">
<rect width="100%" height="100%" fill="white"/>
<g fill="green" transform="translate(100 100) scale(0.1 -0.1)"><path d="M-0.0 0.0 -41.0 -51.0H-655.0L-682.0 -80.0H53.0C66.0 -80.0 75.0 -76.0 77.0 -65.0C46.0 -35.0 0.0 0.0 0.0 0.0ZM-535.0 37.0 -615.0 73.0C-661.0 -20.0 -761.0 -163.0 -864.0 -238.0L-852.0 -251.0C-734.0 -178.0 -623.0 -45.0 -572.0 36.0C-547.0 29.0 -540.0 28.0 -535.0 37.0ZM-359.0 -567.0V-61.0H-403.0V-586.0H-397.0C-374.0 -586.0 -359.0 -573.0 -359.0 -567.0ZM7.0 -314.0 -36.0 -369.0H-377.0V-399.0H59.0C73.0 -399.0 81.0 -394.0 84.0 -383.0C55.0 -353.0 7.0 -314.0 7.0 -314.0ZM-27.0 -162.0 -65.0 -213.0H-372.0V-243.0H20.0C34.0 -243.0 43.0 -238.0 46.0 -227.0C18.0 -199.0 -27.0 -162.0 -27.0 -162.0Z"/></g>
<g fill="green" transform="translate(200 100) scale(0.1 -0.1)"><path d="M0.0 0.0 -70.0 -86.0H-590.0L-615.0 -113.0H97.0C112.0 -113.0 123.0 -108.0 126.0 -97.0C75.0 -54.0 0.0 0.0 0.0 0.0ZM-423.0 -3.0 -619.0 48.0C-655.0 -88.0 -751.0 -250.0 -871.0 -329.0L-868.0 -336.0C-685.0 -271.0 -538.0 -130.0 -461.0 -12.0C-431.0 -15.0 -426.0 -12.0 -423.0 -3.0ZM-309.0 -569.0V-96.0H-460.0V-605.0H-432.0C-353.0 -605.0 -308.0 -577.0 -309.0 -569.0ZM8.0 -321.0 -60.0 -405.0H-389.0V-432.0H101.0C115.0 -432.0 126.0 -427.0 129.0 -416.0C83.0 -377.0 8.0 -321.0 8.0 -321.0ZM-50.0 -167.0 -113.0 -246.0H-389.0V-274.0H39.0C53.0 -274.0 63.0 -269.0 66.0 -258.0C22.0 -220.0 -50.0 -167.0 -50.0 -167.0Z"/></g>
<g fill="green" transform="translate(300 100) scale(0.1 -0.1)"><path d="M0.0 0.0 -31.0 -39.0H-550.0L-576.0 -61.0H41.0C51.0 -61.0 58.0 -58.0 59.0 -50.0C35.0 -27.0 0.0 0.0 0.0 0.0ZM-460.0 18.0 -520.0 47.0C-556.0 -12.0 -638.0 -118.0 -723.0 -170.0L-714.0 -181.0C-618.0 -128.0 -527.0 -29.0 -488.0 20.0C-469.0 14.0 -464.0 11.0 -460.0 18.0ZM-293.0 -404.0V-48.0H-326.0V-418.0H-322.0C-304.0 -418.0 -293.0 -409.0 -293.0 -404.0ZM12.0 -225.0 -21.0 -268.0H-305.0V-291.0H53.0C64.0 -291.0 69.0 -287.0 72.0 -279.0C49.0 -255.0 12.0 -225.0 12.0 -225.0ZM-16.0 -117.0 -45.0 -157.0H-301.0V-180.0H20.0C31.0 -180.0 38.0 -176.0 40.0 -167.0C19.0 -146.0 -16.0 -117.0 -16.0 -117.0Z"/></g>
<g fill="green" transform="translate(400 100) scale(0.1 -0.1)"><path d="M0.0 0.0 -53.0 -64.0H-498.0L-521.0 -84.0H73.0C84.0 -84.0 93.0 -80.0 95.0 -72.0C56.0 -39.0 0.0 0.0 0.0 0.0ZM-372.0 -11.0 -522.0 28.0C-552.0 -72.0 -634.0 -193.0 -739.0 -248.0L-738.0 -253.0C-585.0 -208.0 -461.0 -98.0 -400.0 -16.0C-376.0 -19.0 -374.0 -17.0 -372.0 -11.0ZM-267.0 -398.0V-74.0H-383.0V-425.0H-361.0C-301.0 -425.0 -266.0 -404.0 -267.0 -398.0ZM10.0 -230.0 -41.0 -292.0H-328.0V-312.0H80.0C91.0 -312.0 99.0 -308.0 101.0 -300.0C67.0 -271.0 10.0 -230.0 10.0 -230.0ZM-43.0 -120.0 -90.0 -179.0H-328.0V-200.0H24.0C35.0 -200.0 42.0 -196.0 45.0 -188.0C11.0 -160.0 -43.0 -120.0 -43.0 -120.0Z"/></g>
<g fill="green" transform="translate(500 100) scale(0.1 -0.1)"><path d="M0.0 0.0 -37.0 -45.0H-366.0L-370.0 -73.0H47.0C60.0 -73.0 69.0 -70.0 70.0 -59.0C43.0 -33.0 0.0 0.0 0.0 0.0ZM-238.0 118.0 -321.0 140.0C-358.0 4.0 -418.0 -148.0 -476.0 -244.0L-462.0 -254.0C-389.0 -164.0 -320.0 -28.0 -273.0 100.0C-251.0 100.0 -240.0 109.0 -238.0 118.0ZM-164.0 -867.0V-51.0H-207.0V-883.0H-201.0C-179.0 -883.0 -164.0 -871.0 -164.0 -867.0ZM18.0 -479.0 -20.0 -527.0H-179.0V-556.0H63.0C76.0 -556.0 84.0 -551.0 87.0 -540.0C61.0 -513.0 18.0 -479.0 18.0 -479.0ZM6.0 -240.0 -31.0 -287.0H-175.0V-316.0H50.0C63.0 -316.0 72.0 -311.0 75.0 -301.0C48.0 -274.0 6.0 -240.0 6.0 -240.0Z"/></g>
<g fill="green" transform="translate(600 100) scale(0.1 -0.1)"><path d="M0.0 0.0 -66.0 -89.0H-280.0L-282.0 -115.0H90.0C104.0 -115.0 114.0 -110.0 118.0 -100.0C73.0 -60.0 0.0 0.0 0.0 0.0ZM-132.0 79.0 -325.0 125.0C-350.0 -35.0 -407.0 -210.0 -468.0 -321.0L-459.0 -327.0C-335.0 -240.0 -237.0 -105.0 -170.0 58.0C-146.0 60.0 -135.0 67.0 -132.0 79.0ZM-120.0 -909.0V-95.0H-262.0V-947.0H-235.0C-161.0 -947.0 -120.0 -918.0 -120.0 -909.0ZM-8.0 -499.0 -73.0 -592.0H-192.0V-618.0H78.0C92.0 -618.0 102.0 -613.0 105.0 -602.0C64.0 -562.0 -8.0 -499.0 -8.0 -499.0ZM-18.0 -259.0 -74.0 -341.0H-192.0V-367.0H57.0C71.0 -367.0 81.0 -363.0 83.0 -352.0C46.0 -315.0 -18.0 -259.0 -18.0 -259.0Z"/></g>
<g fill="green" transform="translate(700 100) scale(0.1 -0.1)"><path d="M-0.0 0.0 -52.0 -64.0H-636.0L-667.0 -101.0H65.0C82.0 -101.0 93.0 -95.0 96.0 -81.0C56.0 -43.0 0.0 0.0 0.0 0.0ZM-502.0 41.0 -611.0 78.0C-659.0 -45.0 -769.0 -237.0 -884.0 -340.0L-867.0 -355.0C-733.0 -255.0 -605.0 -75.0 -548.0 35.0C-516.0 29.0 -508.0 28.0 -502.0 41.0ZM-419.0 -512.0V-64.0H-474.0V-535.0H-467.0C-438.0 -535.0 -419.0 -520.0 -419.0 -512.0ZM-17.0 -345.0 -70.0 -409.0H-449.0V-447.0H48.0C65.0 -447.0 75.0 -440.0 79.0 -427.0C43.0 -391.0 -17.0 -345.0 -17.0 -345.0ZM-68.0 -182.0 -114.0 -241.0H-445.0V-279.0H-11.0C7.0 -279.0 18.0 -273.0 22.0 -259.0C-13.0 -225.0 -68.0 -182.0 -68.0 -182.0Z"/></g>
<g fill="green" transform="translate(800 100) scale(0.1 -0.1)"><path d="M0.0 0.0 -89.0 -107.0H-589.0L-618.0 -141.0H124.0C143.0 -141.0 157.0 -134.0 160.0 -121.0C95.0 -67.0 0.0 0.0 0.0 0.0ZM-384.0 7.0 -615.0 49.0C-641.0 -96.0 -717.0 -290.0 -817.0 -389.0L-810.0 -397.0C-637.0 -307.0 -500.0 -135.0 -429.0 -7.0C-393.0 -9.0 -387.0 -5.0 -384.0 7.0ZM-273.0 -503.0V-108.0H-449.0V-541.0H-416.0C-324.0 -541.0 -272.0 -510.0 -273.0 -503.0ZM25.0 -309.0 -58.0 -409.0H-324.0V-443.0H138.0C156.0 -443.0 170.0 -437.0 173.0 -423.0C116.0 -376.0 25.0 -309.0 25.0 -309.0ZM-13.0 -167.0 -92.0 -264.0H-325.0V-299.0H97.0C114.0 -299.0 127.0 -292.0 131.0 -279.0C76.0 -232.0 -13.0 -167.0 -13.0 -167.0Z"/></g>
<g fill="green" transform="translate(900 100) scale(0.1 -0.1)"><path d="M-0.0 0.0 -44.0 -56.0H-646.0L-674.0 -88.0H55.0C70.0 -88.0 79.0 -84.0 82.0 -71.0C49.0 -38.0 0.0 0.0 0.0 0.0ZM-504.0 31.0 -587.0 60.0C-638.0 -34.0 -749.0 -164.0 -865.0 -228.0L-852.0 -244.0C-724.0 -182.0 -602.0 -61.0 -545.0 26.0C-517.0 20.0 -509.0 20.0 -504.0 31.0ZM-404.0 -600.0V-77.0H-452.0V-622.0H-445.0C-420.0 -622.0 -404.0 -607.0 -404.0 -600.0ZM-7.0 -264.0 -53.0 -322.0H-428.0V-355.0H48.0C62.0 -355.0 72.0 -350.0 75.0 -338.0C44.0 -306.0 -7.0 -264.0 -7.0 -264.0ZM-43.0 -131.0 -82.0 -184.0H-423.0V-217.0H4.0C20.0 -217.0 29.0 -211.0 32.0 -199.0C3.0 -170.0 -43.0 -131.0 -43.0 -131.0Z"/></g>
<g fill="green" transform="translate(1000 100) scale(0.1 -0.1)"><path d="M0.0 0.0 -72.0 -87.0H-587.0L-617.0 -117.0H100.0C117.0 -117.0 129.0 -112.0 132.0 -100.0C79.0 -55.0 0.0 0.0 0.0 0.0ZM-371.0 -29.0 -572.0 25.0C-614.0 -113.0 -722.0 -266.0 -854.0 -339.0L-849.0 -349.0C-658.0 -291.0 -498.0 -158.0 -413.0 -40.0C-381.0 -44.0 -375.0 -40.0 -371.0 -29.0ZM-336.0 -625.0V-99.0H-499.0V-667.0H-468.0C-383.0 -667.0 -335.0 -634.0 -336.0 -625.0ZM37.0 -294.0 -32.0 -376.0H-435.0V-406.0H131.0C148.0 -406.0 159.0 -400.0 162.0 -388.0C113.0 -349.0 37.0 -294.0 37.0 -294.0ZM-44.0 -143.0 -113.0 -226.0H-432.0V-257.0H54.0C70.0 -257.0 81.0 -251.0 84.0 -239.0C35.0 -199.0 -44.0 -143.0 -44.0 -143.0Z"/></g>
<g fill="green" transform="translate(1100 100) scale(0.1 -0.1)"><path d="M0.0 0.0 -38.0 -49.0H-632.0L-649.0 -78.0H50.0C63.0 -78.0 72.0 -74.0 74.0 -63.0C45.0 -34.0 0.0 0.0 0.0 0.0ZM-518.0 45.0 -591.0 89.0C-639.0 -42.0 -740.0 -206.0 -843.0 -298.0L-830.0 -310.0C-713.0 -222.0 -605.0 -69.0 -555.0 44.0C-533.0 35.0 -524.0 37.0 -518.0 45.0ZM-350.0 -581.0V-66.0H-394.0V-599.0H-388.0C-365.0 -599.0 -350.0 -586.0 -350.0 -581.0ZM-17.0 -321.0 -58.0 -371.0H-377.0V-401.0H30.0C44.0 -401.0 52.0 -396.0 55.0 -385.0C28.0 -357.0 -17.0 -321.0 -17.0 -321.0ZM-40.0 -164.0 -75.0 -211.0H-373.0V-241.0H3.0C17.0 -241.0 25.0 -236.0 28.0 -225.0C2.0 -198.0 -40.0 -164.0 -40.0 -164.0Z"/></g>
<g fill="green" transform="translate(1200 100) scale(0.1 -0.1)"><path d="M0.0 0.0 -71.0 -89.0H-601.0L-613.0 -115.0H99.0C114.0 -115.0 125.0 -110.0 128.0 -99.0C77.0 -57.0 0.0 0.0 0.0 0.0ZM-436.0 -2.0 -630.0 63.0C-668.0 -101.0 -765.0 -286.0 -880.0 -386.0L-876.0 -392.0C-697.0 -313.0 -555.0 -163.0 -476.0 -12.0C-448.0 -16.0 -439.0 -12.0 -436.0 -2.0ZM-309.0 -561.0V-95.0H-457.0V-595.0H-430.0C-353.0 -595.0 -308.0 -569.0 -309.0 -561.0ZM-29.0 -308.0 -97.0 -395.0H-423.0V-422.0H63.0C77.0 -422.0 88.0 -417.0 92.0 -406.0C46.0 -366.0 -29.0 -308.0 -29.0 -308.0ZM-77.0 -154.0 -141.0 -237.0H-427.0V-265.0H13.0C27.0 -265.0 36.0 -260.0 40.0 -249.0C-5.0 -210.0 -77.0 -154.0 -77.0 -154.0Z"/></g>
<g fill="green" transform="translate(1300 100) scale(0.1 -0.1)"><path d="M0.0 0.0 -42.0 -53.0H-662.0L-694.0 -83.0H56.0C70.0 -83.0 79.0 -79.0 80.0 -67.0C48.0 -36.0 0.0 0.0 0.0 0.0ZM-560.0 29.0 -648.0 55.0C-680.0 -33.0 -763.0 -185.0 -860.0 -261.0L-847.0 -273.0C-733.0 -196.0 -634.0 -55.0 -597.0 25.0C-569.0 19.0 -564.0 18.0 -560.0 29.0ZM-355.0 -568.0V-55.0H-400.0V-588.0H-394.0C-370.0 -588.0 -355.0 -574.0 -355.0 -568.0ZM0.0 -280.0 -44.0 -336.0H-379.0V-367.0H55.0C70.0 -367.0 78.0 -362.0 81.0 -351.0C50.0 -320.0 0.0 -280.0 0.0 -280.0ZM-26.0 -144.0 -65.0 -196.0H-374.0V-226.0H24.0C37.0 -226.0 46.0 -221.0 49.0 -210.0C21.0 -181.0 -26.0 -144.0 -26.0 -144.0Z"/></g>
<g fill="green" transform="translate(1400 100) scale(0.1 -0.1)"><path d="M0.0 0.0 -74.0 -89.0H-595.0L-636.0 -116.0H104.0C119.0 -116.0 131.0 -111.0 133.0 -100.0C78.0 -55.0 0.0 0.0 0.0 0.0ZM-445.0 3.0 -643.0 25.0C-667.0 -101.0 -742.0 -276.0 -842.0 -359.0L-839.0 -366.0C-672.0 -285.0 -543.0 -124.0 -480.0 -9.0C-449.0 -9.0 -447.0 -6.0 -445.0 3.0ZM-273.0 -587.0V-94.0H-427.0V-625.0H-398.0C-318.0 -625.0 -272.0 -596.0 -273.0 -587.0ZM0.0 -335.0 -67.0 -415.0H-363.0V-442.0H93.0C106.0 -442.0 118.0 -437.0 121.0 -426.0C75.0 -388.0 0.0 -335.0 0.0 -335.0ZM-46.0 -174.0 -111.0 -254.0H-355.0V-282.0H48.0C63.0 -282.0 72.0 -277.0 76.0 -266.0C29.0 -228.0 -46.0 -174.0 -46.0 -174.0Z"/></g>
<g fill="green" transform="translate(1500 100) scale(0.1 -0.1)"><path d="M-0.0 0.0 -39.0 -48.0H-659.0L-676.0 -75.0H50.0C62.0 -75.0 71.0 -72.0 73.0 -61.0C44.0 -34.0 0.0 0.0 0.0 0.0ZM-539.0 39.0 -610.0 79.0C-660.0 -22.0 -759.0 -148.0 -855.0 -219.0L-845.0 -232.0C-735.0 -166.0 -630.0 -50.0 -574.0 37.0C-554.0 29.0 -545.0 31.0 -539.0 39.0ZM-378.0 -555.0V-52.0H-419.0V-572.0H-414.0C-392.0 -572.0 -378.0 -561.0 -378.0 -555.0ZM-9.0 -316.0 -48.0 -368.0H-387.0V-396.0H41.0C54.0 -396.0 61.0 -391.0 64.0 -381.0C38.0 -353.0 -9.0 -316.0 -9.0 -316.0ZM-49.0 -165.0 -87.0 -214.0H-386.0V-242.0H-2.0C10.0 -242.0 19.0 -238.0 21.0 -227.0C-5.0 -200.0 -49.0 -165.0 -49.0 -165.0Z"/></g>
<g fill="green" transform="translate(1600 100) scale(0.1 -0.1)"><path d="M0.0 0.0 -68.0 -86.0H-587.0L-602.0 -111.0H94.0C109.0 -111.0 119.0 -106.0 122.0 -96.0C73.0 -55.0 0.0 0.0 0.0 0.0ZM-432.0 -7.0 -616.0 60.0C-652.0 -71.0 -742.0 -214.0 -849.0 -287.0L-845.0 -294.0C-681.0 -242.0 -547.0 -132.0 -470.0 -17.0C-443.0 -20.0 -435.0 -16.0 -432.0 -7.0ZM-311.0 -581.0V-94.0H-456.0V-614.0H-428.0C-354.0 -614.0 -311.0 -588.0 -311.0 -581.0ZM-11.0 -329.0 -84.0 -417.0H-382.0V-442.0H91.0C105.0 -442.0 116.0 -437.0 119.0 -427.0C69.0 -387.0 -11.0 -329.0 -11.0 -329.0ZM-65.0 -172.0 -130.0 -250.0H-383.0V-276.0H29.0C42.0 -276.0 52.0 -272.0 54.0 -261.0C9.0 -224.0 -65.0 -172.0 -65.0 -172.0Z"/></g>
<g fill="red" transform="translate(100 200) scale(0.1 -0.1)"><path d="M0.0 0.0 -38.0 -49.0H-391.0V-79.0H46.0C60.0 -79.0 69.0 -74.0 72.0 -63.0C44.0 -35.0 0.0 0.0 0.0 0.0ZM-269.0 70.0 -344.0 96.0C-388.0 -58.0 -467.0 -196.0 -549.0 -281.0L-534.0 -293.0C-442.0 -216.0 -359.0 -90.0 -307.0 53.0C-285.0 51.0 -274.0 60.0 -269.0 70.0ZM-296.0 -628.0V-65.0H-340.0V-646.0H-334.0C-311.0 -646.0 -296.0 -632.0 -296.0 -628.0ZM-44.0 -307.0 -82.0 -352.0H-323.0V-382.0H0.0C13.0 -382.0 23.0 -377.0 25.0 -366.0C-2.0 -340.0 -44.0 -307.0 -44.0 -307.0ZM-65.0 -152.0 -99.0 -194.0H-323.0V-224.0H-25.0C-12.0 -224.0 -3.0 -219.0 -1.0 -208.0C-25.0 -183.0 -65.0 -152.0 -65.0 -152.0Z"/></g>
<g fill="black" opacity=".8" transform="translate(100 200) scale(0.1 -0.1)"><path d="M0.0 0.0 -37.0 -48.0H-398.0L-400.0 -77.0H45.0C60.0 -77.0 69.0 -74.0 71.0 -62.0C43.0 -34.0 0.0 0.0 0.0 0.0ZM-274.0 70.0 -349.0 96.0C-391.0 -55.0 -472.0 -200.0 -553.0 -289.0L-539.0 -301.0C-448.0 -219.0 -361.0 -86.0 -312.0 55.0C-291.0 51.0 -279.0 60.0 -274.0 70.0ZM-293.0 -625.0V-62.0H-336.0V-641.0H-331.0C-307.0 -641.0 -293.0 -630.0 -293.0 -625.0ZM-46.0 -307.0 -83.0 -352.0H-321.0V-382.0H-1.0C11.0 -382.0 19.0 -377.0 23.0 -367.0C-2.0 -340.0 -46.0 -307.0 -46.0 -307.0ZM-67.0 -152.0 -101.0 -194.0H-322.0V-225.0H-27.0C-13.0 -225.0 -6.0 -220.0 -3.0 -208.0C-27.0 -183.0 -67.0 -152.0 -67.0 -152.0Z"/></g>
<g fill="red" transform="translate(200 200) scale(0.1 -0.1)"><path d="M0.0 0.0 -69.0 -88.0H-375.0V-116.0H96.0C111.0 -116.0 122.0 -111.0 125.0 -100.0C78.0 -59.0 0.0 0.0 0.0 0.0ZM-197.0 16.0 -373.0 69.0C-402.0 -84.0 -463.0 -243.0 -523.0 -343.0L-512.0 -351.0C-400.0 -274.0 -306.0 -160.0 -237.0 -5.0C-214.0 -6.0 -201.0 3.0 -197.0 16.0ZM-185.0 -655.0V-88.0H-328.0V-691.0H-301.0C-228.0 -691.0 -186.0 -662.0 -185.0 -655.0ZM-17.0 -312.0 -83.0 -398.0H-282.0V-426.0H76.0C91.0 -426.0 102.0 -421.0 105.0 -410.0C59.0 -370.0 -17.0 -312.0 -17.0 -312.0ZM-35.0 -148.0 -102.0 -234.0H-282.0V-262.0H58.0C72.0 -262.0 83.0 -257.0 86.0 -246.0C40.0 -206.0 -35.0 -148.0 -35.0 -148.0Z"/></g>
<g fill="black" opacity=".8" transform="translate(200 200) scale(0.1 -0.1)"><path d="M0.0 0.0 -69.0 -88.0H-375.0L-377.0 -114.0H95.0C111.0 -114.0 122.0 -109.0 125.0 -99.0C77.0 -58.0 0.0 0.0 0.0 0.0ZM-190.0 12.0 -367.0 71.0C-394.0 -83.0 -456.0 -244.0 -520.0 -345.0L-509.0 -353.0C-393.0 -276.0 -296.0 -160.0 -231.0 -7.0C-206.0 -8.0 -193.0 -1.0 -190.0 12.0ZM-187.0 -657.0V-87.0H-328.0V-691.0H-300.0C-229.0 -691.0 -187.0 -664.0 -187.0 -657.0ZM-13.0 -314.0 -80.0 -399.0H-284.0V-426.0H78.0C94.0 -426.0 105.0 -420.0 108.0 -409.0C61.0 -371.0 -13.0 -314.0 -13.0 -314.0ZM-41.0 -151.0 -106.0 -235.0H-285.0V-262.0H51.0C66.0 -262.0 76.0 -257.0 79.0 -246.0C33.0 -208.0 -41.0 -151.0 -41.0 -151.0Z"/></g>
<g fill="red" transform="translate(300 200) scale(0.1 -0.1)"><path d="M0.0 0.0 -40.0 -50.0H-605.0L-623.0 -80.0H49.0C63.0 -80.0 72.0 -75.0 75.0 -64.0C45.0 -35.0 0.0 0.0 0.0 0.0ZM-479.0 43.0 -554.0 75.0C-602.0 -31.0 -700.0 -153.0 -800.0 -222.0L-788.0 -235.0C-675.0 -172.0 -571.0 -59.0 -516.0 36.0C-493.0 31.0 -484.0 34.0 -479.0 43.0ZM-361.0 -606.0V-70.0H-405.0V-625.0H-399.0C-376.0 -625.0 -361.0 -611.0 -361.0 -606.0ZM-15.0 -307.0 -56.0 -360.0H-381.0V-390.0H34.0C48.0 -390.0 56.0 -385.0 59.0 -374.0C31.0 -345.0 -15.0 -307.0 -15.0 -307.0ZM-49.0 -156.0 -86.0 -205.0H-379.0V-235.0H-5.0C9.0 -235.0 18.0 -230.0 21.0 -219.0C-6.0 -192.0 -49.0 -156.0 -49.0 -156.0Z"/></g>
<g fill="black" opacity=".8" transform="translate(300 200) scale(0.1 -0.1)"><path d="M0.0 0.0 -40.0 -51.0H-609.0L-627.0 -80.0H51.0C64.0 -80.0 73.0 -77.0 76.0 -65.0C46.0 -35.0 0.0 0.0 0.0 0.0ZM-479.0 46.0 -555.0 80.0C-604.0 -30.0 -704.0 -164.0 -805.0 -237.0L-793.0 -251.0C-680.0 -182.0 -572.0 -58.0 -517.0 40.0C-494.0 34.0 -484.0 36.0 -479.0 46.0ZM-363.0 -612.0V-65.0H-407.0V-631.0H-401.0C-378.0 -631.0 -363.0 -618.0 -363.0 -612.0ZM-11.0 -307.0 -53.0 -360.0H-382.0V-390.0H39.0C52.0 -390.0 61.0 -386.0 64.0 -375.0C36.0 -345.0 -11.0 -307.0 -11.0 -307.0ZM-44.0 -156.0 -81.0 -205.0H-379.0V-235.0H2.0C15.0 -235.0 24.0 -230.0 27.0 -219.0C-0.0 -191.0 -44.0 -156.0 -44.0 -156.0Z"/></g>
<g fill="red" transform="translate(400 200) scale(0.1 -0.1)"><path d="M0.0 0.0 -69.0 -85.0H-548.0L-562.0 -113.0H96.0C111.0 -113.0 122.0 -108.0 125.0 -97.0C76.0 -55.0 0.0 0.0 0.0 0.0ZM-367.0 -6.0 -555.0 51.0C-595.0 -99.0 -696.0 -255.0 -816.0 -338.0L-810.0 -346.0C-633.0 -285.0 -488.0 -159.0 -407.0 -19.0C-379.0 -22.0 -371.0 -17.0 -367.0 -6.0ZM-299.0 -636.0V-97.0H-450.0V-673.0H-422.0C-344.0 -673.0 -299.0 -644.0 -299.0 -636.0ZM9.0 -332.0 -59.0 -416.0H-393.0V-444.0H104.0C119.0 -444.0 130.0 -439.0 133.0 -428.0C86.0 -388.0 9.0 -332.0 9.0 -332.0ZM-54.0 -165.0 -120.0 -246.0H-393.0V-274.0H38.0C52.0 -274.0 63.0 -269.0 66.0 -258.0C20.0 -219.0 -54.0 -165.0 -54.0 -165.0Z"/></g>
<g fill="black" opacity=".8" transform="translate(400 200) scale(0.1 -0.1)"><path d="M0.0 0.0 -69.0 -87.0H-550.0L-567.0 -114.0H96.0C112.0 -114.0 123.0 -109.0 126.0 -98.0C76.0 -56.0 0.0 0.0 0.0 0.0ZM-367.0 -8.0 -558.0 53.0C-596.0 -89.0 -691.0 -244.0 -802.0 -325.0L-797.0 -333.0C-627.0 -272.0 -487.0 -149.0 -407.0 -20.0C-379.0 -24.0 -370.0 -19.0 -367.0 -8.0ZM-300.0 -636.0V-96.0H-452.0V-673.0H-423.0C-344.0 -673.0 -300.0 -644.0 -300.0 -636.0ZM4.0 -326.0 -66.0 -412.0H-392.0V-439.0H100.0C115.0 -439.0 126.0 -433.0 129.0 -422.0C81.0 -383.0 4.0 -326.0 4.0 -326.0ZM-56.0 -163.0 -122.0 -244.0H-392.0V-273.0H38.0C52.0 -273.0 63.0 -268.0 65.0 -256.0C19.0 -218.0 -56.0 -163.0 -56.0 -163.0Z"/></g>
<g fill="red" transform="translate(500 200) scale(0.1 -0.1)"><path d="M0.0 0.0 -41.0 -51.0H-587.0L-602.0 -81.0H51.0C65.0 -81.0 74.0 -76.0 77.0 -65.0C46.0 -35.0 0.0 0.0 0.0 0.0ZM-479.0 37.0 -558.0 84.0C-604.0 -55.0 -699.0 -227.0 -795.0 -327.0L-781.0 -338.0C-669.0 -244.0 -566.0 -83.0 -517.0 35.0C-495.0 26.0 -486.0 28.0 -479.0 37.0ZM-374.0 -474.0V-56.0H-418.0V-492.0H-412.0C-389.0 -492.0 -374.0 -479.0 -374.0 -474.0ZM-35.0 -297.0 -76.0 -347.0H-396.0V-377.0H15.0C29.0 -377.0 37.0 -372.0 40.0 -361.0C12.0 -333.0 -35.0 -297.0 -35.0 -297.0ZM-75.0 -156.0 -113.0 -203.0H-396.0V-233.0H-29.0C-16.0 -233.0 -7.0 -228.0 -4.0 -217.0C-31.0 -190.0 -75.0 -156.0 -75.0 -156.0Z"/></g>
<g fill="black" opacity=".8" transform="translate(500 200) scale(0.1 -0.1)"><path d="M0.0 0.0 -40.0 -51.0H-588.0L-603.0 -81.0H52.0C65.0 -81.0 75.0 -77.0 77.0 -65.0C46.0 -35.0 0.0 0.0 0.0 0.0ZM-481.0 39.0 -560.0 80.0C-605.0 -56.0 -700.0 -223.0 -797.0 -318.0L-784.0 -331.0C-672.0 -240.0 -568.0 -84.0 -518.0 35.0C-497.0 26.0 -487.0 29.0 -481.0 39.0ZM-375.0 -476.0V-55.0H-419.0V-494.0H-414.0C-390.0 -494.0 -375.0 -482.0 -375.0 -476.0ZM-39.0 -299.0 -80.0 -348.0H-401.0V-379.0H11.0C25.0 -379.0 33.0 -373.0 36.0 -363.0C9.0 -335.0 -39.0 -299.0 -39.0 -299.0ZM-74.0 -157.0 -111.0 -204.0H-400.0V-234.0H-28.0C-14.0 -234.0 -6.0 -230.0 -3.0 -218.0C-30.0 -190.0 -74.0 -157.0 -74.0 -157.0Z"/></g>
<g fill="red" transform="translate(600 200) scale(0.1 -0.1)"><path d="M0.0 0.0 -77.0 -94.0H-565.0L-579.0 -122.0H109.0C124.0 -122.0 135.0 -117.0 138.0 -106.0C84.0 -60.0 0.0 0.0 0.0 0.0ZM-404.0 -2.0 -594.0 60.0C-621.0 -86.0 -689.0 -263.0 -770.0 -361.0L-763.0 -367.0C-622.0 -286.0 -510.0 -147.0 -444.0 -14.0C-417.0 -18.0 -408.0 -13.0 -404.0 -2.0ZM-270.0 -470.0V-94.0H-417.0V-501.0H-390.0C-314.0 -501.0 -270.0 -476.0 -270.0 -470.0ZM-29.0 -279.0 -102.0 -369.0H-347.0V-397.0H74.0C88.0 -397.0 100.0 -392.0 103.0 -381.0C53.0 -339.0 -29.0 -279.0 -29.0 -279.0ZM-58.0 -144.0 -128.0 -231.0H-350.0V-259.0H41.0C55.0 -259.0 66.0 -254.0 69.0 -243.0C21.0 -202.0 -58.0 -144.0 -58.0 -144.0Z"/></g>
<g fill="black" opacity=".8" transform="translate(600 200) scale(0.1 -0.1)"><path d="M0.0 0.0 -75.0 -94.0H-563.0L-575.0 -120.0H105.0C121.0 -120.0 133.0 -114.0 135.0 -104.0C81.0 -60.0 0.0 0.0 0.0 0.0ZM-403.0 -1.0 -593.0 57.0C-620.0 -89.0 -690.0 -265.0 -774.0 -362.0L-768.0 -368.0C-623.0 -289.0 -508.0 -150.0 -443.0 -13.0C-415.0 -16.0 -406.0 -11.0 -403.0 -1.0ZM-264.0 -470.0V-92.0H-411.0V-501.0H-383.0C-308.0 -501.0 -264.0 -477.0 -264.0 -470.0ZM-29.0 -277.0 -103.0 -367.0H-346.0V-394.0H73.0C88.0 -394.0 100.0 -389.0 104.0 -378.0C53.0 -336.0 -29.0 -277.0 -29.0 -277.0ZM-58.0 -143.0 -128.0 -228.0H-349.0V-257.0H41.0C55.0 -257.0 64.0 -251.0 68.0 -240.0C19.0 -200.0 -58.0 -143.0 -58.0 -143.0Z"/></g>
<g fill="red" transform="translate(700 200) scale(0.1 -0.1)"><path d="M0.0 0.0 -40.0 -50.0H-402.0V-80.0H50.0C64.0 -80.0 74.0 -75.0 76.0 -64.0C47.0 -36.0 0.0 0.0 0.0 0.0ZM-280.0 102.0 -365.0 126.0C-398.0 -37.0 -463.0 -193.0 -532.0 -295.0L-517.0 -306.0C-432.0 -214.0 -361.0 -71.0 -317.0 82.0C-295.0 82.0 -283.0 92.0 -280.0 102.0ZM-253.0 -763.0V-50.0H-297.0V-780.0H-291.0C-268.0 -780.0 -253.0 -767.0 -253.0 -763.0ZM-39.0 -416.0 -79.0 -465.0H-279.0V-495.0H10.0C23.0 -495.0 32.0 -490.0 35.0 -479.0C7.0 -451.0 -39.0 -416.0 -39.0 -416.0ZM-49.0 -206.0 -88.0 -254.0H-279.0V-284.0H-2.0C11.0 -284.0 21.0 -279.0 22.0 -268.0C-5.0 -241.0 -49.0 -206.0 -49.0 -206.0Z"/></g>
<g fill="black" opacity=".8" transform="translate(700 200) scale(0.1 -0.1)"><path d="M0.0 0.0 -40.0 -51.0H-402.0L-403.0 -82.0H51.0C66.0 -82.0 75.0 -79.0 77.0 -65.0C47.0 -37.0 0.0 0.0 0.0 0.0ZM-274.0 99.0 -361.0 124.0C-400.0 -38.0 -471.0 -205.0 -542.0 -309.0L-526.0 -320.0C-441.0 -223.0 -362.0 -72.0 -312.0 79.0C-290.0 77.0 -277.0 88.0 -274.0 99.0ZM-255.0 -767.0V-55.0H-302.0V-785.0H-296.0C-271.0 -785.0 -255.0 -772.0 -255.0 -767.0ZM-29.0 -414.0 -69.0 -463.0H-280.0V-495.0H21.0C35.0 -495.0 43.0 -489.0 47.0 -478.0C19.0 -450.0 -29.0 -414.0 -29.0 -414.0ZM-48.0 -208.0 -87.0 -256.0H-280.0V-288.0H-1.0C13.0 -288.0 22.0 -283.0 24.0 -271.0C-3.0 -242.0 -48.0 -208.0 -48.0 -208.0Z"/></g>
<g fill="red" transform="translate(800 200) scale(0.1 -0.1)"><path d="M0.0 0.0 -74.0 -98.0H-357.0V-126.0H106.0C120.0 -126.0 132.0 -121.0 135.0 -110.0C84.0 -66.0 0.0 0.0 0.0 0.0ZM-173.0 51.0 -371.0 103.0C-393.0 -71.0 -450.0 -254.0 -511.0 -372.0L-501.0 -379.0C-375.0 -289.0 -280.0 -157.0 -213.0 29.0C-190.0 29.0 -177.0 38.0 -173.0 51.0ZM-142.0 -810.0V-98.0H-292.0V-848.0H-264.0C-187.0 -848.0 -142.0 -819.0 -142.0 -810.0ZM-18.0 -436.0 -93.0 -532.0H-231.0V-560.0H89.0C104.0 -560.0 115.0 -555.0 118.0 -544.0C67.0 -500.0 -18.0 -436.0 -18.0 -436.0ZM-29.0 -225.0 -98.0 -313.0H-231.0V-341.0H69.0C83.0 -341.0 94.0 -336.0 97.0 -325.0C50.0 -284.0 -29.0 -225.0 -29.0 -225.0Z"/></g>
<g fill="black" opacity=".8" transform="translate(800 200) scale(0.1 -0.1)"><path d="M0.0 0.0 -75.0 -99.0H-348.0L-351.0 -127.0H104.0C121.0 -127.0 132.0 -121.0 135.0 -110.0C83.0 -66.0 0.0 0.0 0.0 0.0ZM-177.0 52.0 -375.0 103.0C-397.0 -62.0 -447.0 -246.0 -497.0 -363.0L-486.0 -370.0C-373.0 -277.0 -283.0 -141.0 -219.0 29.0C-194.0 30.0 -180.0 38.0 -177.0 52.0ZM-144.0 -812.0V-97.0H-295.0V-850.0H-266.0C-188.0 -850.0 -144.0 -821.0 -144.0 -812.0ZM-21.0 -431.0 -95.0 -529.0H-229.0V-557.0H78.0C95.0 -557.0 106.0 -552.0 110.0 -540.0C60.0 -497.0 -21.0 -431.0 -21.0 -431.0ZM-30.0 -219.0 -98.0 -310.0H-228.0V-339.0H65.0C80.0 -339.0 91.0 -334.0 94.0 -322.0C47.0 -281.0 -30.0 -219.0 -30.0 -219.0Z"/></g>
<g fill="red" transform="translate(900 200) scale(0.1 -0.1)"><path d="M0.0 0.0 -40.0 -50.0H-434.0V-80.0H51.0C65.0 -80.0 73.0 -75.0 76.0 -64.0C47.0 -36.0 0.0 0.0 0.0 0.0ZM-293.0 96.0 -376.0 125.0C-426.0 -41.0 -508.0 -206.0 -586.0 -309.0L-571.0 -320.0C-478.0 -225.0 -391.0 -76.0 -331.0 78.0C-309.0 77.0 -298.0 86.0 -293.0 96.0ZM-261.0 -763.0V-50.0H-305.0V-780.0H-299.0C-276.0 -780.0 -261.0 -767.0 -261.0 -763.0ZM-28.0 -416.0 -67.0 -465.0H-286.0V-495.0H21.0C35.0 -495.0 44.0 -490.0 47.0 -479.0C18.0 -451.0 -28.0 -416.0 -28.0 -416.0ZM-38.0 -206.0 -76.0 -254.0H-286.0V-284.0H9.0C22.0 -284.0 31.0 -279.0 34.0 -268.0C7.0 -241.0 -38.0 -206.0 -38.0 -206.0Z"/></g>
<g fill="black" opacity=".8" transform="translate(900 200) scale(0.1 -0.1)"><path d="M0.0 0.0 -41.0 -51.0H-424.0L-427.0 -83.0H52.0C67.0 -83.0 76.0 -79.0 78.0 -66.0C48.0 -37.0 0.0 0.0 0.0 0.0ZM-297.0 96.0 -385.0 123.0C-424.0 -37.0 -496.0 -206.0 -570.0 -311.0L-554.0 -323.0C-466.0 -225.0 -385.0 -71.0 -336.0 78.0C-313.0 75.0 -301.0 85.0 -297.0 96.0ZM-260.0 -768.0V-56.0H-308.0V-786.0H-302.0C-277.0 -786.0 -260.0 -773.0 -260.0 -768.0ZM-25.0 -414.0 -67.0 -464.0H-286.0V-497.0H25.0C39.0 -497.0 48.0 -491.0 51.0 -479.0C23.0 -450.0 -25.0 -414.0 -25.0 -414.0ZM-44.0 -208.0 -83.0 -257.0H-285.0V-289.0H3.0C17.0 -289.0 26.0 -284.0 29.0 -272.0C1.0 -243.0 -44.0 -208.0 -44.0 -208.0Z"/></g>
<g fill="red" transform="translate(1000 200) scale(0.1 -0.1)"><path d="M0.0 0.0 -76.0 -99.0H-363.0V-127.0H106.0C121.0 -127.0 133.0 -122.0 136.0 -111.0C85.0 -66.0 0.0 0.0 0.0 0.0ZM-188.0 42.0 -382.0 102.0C-415.0 -71.0 -482.0 -257.0 -546.0 -373.0L-536.0 -380.0C-408.0 -289.0 -306.0 -158.0 -229.0 21.0C-205.0 20.0 -192.0 29.0 -188.0 42.0ZM-148.0 -811.0V-99.0H-298.0V-849.0H-270.0C-193.0 -849.0 -148.0 -820.0 -148.0 -811.0ZM-28.0 -433.0 -104.0 -533.0H-237.0V-561.0H80.0C95.0 -561.0 107.0 -556.0 110.0 -545.0C58.0 -500.0 -28.0 -433.0 -28.0 -433.0ZM-38.0 -222.0 -108.0 -314.0H-237.0V-342.0H60.0C75.0 -342.0 86.0 -337.0 89.0 -326.0C41.0 -284.0 -38.0 -222.0 -38.0 -222.0Z"/></g>
<g fill="black" opacity=".8" transform="translate(1000 200) scale(0.1 -0.1)"><path d="M0.0 0.0 -76.0 -99.0H-369.0L-375.0 -127.0H105.0C122.0 -127.0 133.0 -121.0 137.0 -111.0C84.0 -66.0 0.0 0.0 0.0 0.0ZM-199.0 51.0 -400.0 100.0C-422.0 -65.0 -475.0 -253.0 -531.0 -371.0L-520.0 -378.0C-401.0 -283.0 -306.0 -141.0 -241.0 28.0C-215.0 29.0 -202.0 37.0 -199.0 51.0ZM-154.0 -810.0V-98.0H-308.0V-848.0H-278.0C-199.0 -848.0 -154.0 -818.0 -154.0 -810.0ZM-21.0 -433.0 -95.0 -530.0H-242.0V-559.0H78.0C94.0 -559.0 106.0 -553.0 110.0 -541.0C60.0 -498.0 -21.0 -433.0 -21.0 -433.0ZM-32.0 -220.0 -101.0 -311.0H-241.0V-340.0H63.0C78.0 -340.0 89.0 -336.0 92.0 -324.0C45.0 -282.0 -32.0 -220.0 -32.0 -220.0Z"/></g>
<g fill="red" transform="translate(1100 200) scale(0.1 -0.1)"><path d="M0.0 0.0 -41.0 -51.0H-435.0L-450.0 -81.0H51.0C65.0 -81.0 74.0 -76.0 76.0 -65.0C46.0 -35.0 0.0 0.0 0.0 0.0ZM-334.0 62.0 -423.0 77.0C-450.0 -39.0 -509.0 -183.0 -579.0 -265.0L-564.0 -275.0C-478.0 -197.0 -407.0 -65.0 -371.0 45.0C-345.0 45.0 -337.0 50.0 -334.0 62.0ZM-272.0 -630.0V-51.0H-316.0V-649.0H-310.0C-287.0 -649.0 -272.0 -635.0 -272.0 -630.0ZM-16.0 -315.0 -57.0 -365.0H-294.0V-395.0H34.0C48.0 -395.0 57.0 -390.0 60.0 -379.0C30.0 -351.0 -16.0 -315.0 -16.0 -315.0ZM-41.0 -160.0 -79.0 -207.0H-293.0V-237.0H5.0C17.0 -237.0 27.0 -232.0 29.0 -221.0C3.0 -194.0 -41.0 -160.0 -41.0 -160.0Z"/></g>
<g fill="black" opacity=".8" transform="translate(1100 200) scale(0.1 -0.1)"><path d="M0.0 0.0 -39.0 -49.0H-442.0L-457.0 -79.0H51.0C65.0 -79.0 74.0 -76.0 75.0 -63.0C45.0 -35.0 0.0 0.0 0.0 0.0ZM-337.0 63.0 -425.0 79.0C-452.0 -37.0 -513.0 -186.0 -584.0 -269.0L-570.0 -280.0C-484.0 -199.0 -409.0 -63.0 -373.0 48.0C-348.0 46.0 -340.0 52.0 -337.0 63.0ZM-270.0 -628.0V-47.0H-314.0V-646.0H-308.0C-285.0 -646.0 -270.0 -634.0 -270.0 -628.0ZM-19.0 -316.0 -59.0 -365.0H-294.0V-396.0H31.0C45.0 -396.0 53.0 -390.0 56.0 -380.0C28.0 -352.0 -19.0 -316.0 -19.0 -316.0ZM-40.0 -160.0 -77.0 -207.0H-293.0V-236.0H7.0C19.0 -236.0 28.0 -231.0 30.0 -220.0C4.0 -193.0 -40.0 -160.0 -40.0 -160.0Z"/></g>
<g fill="red" transform="translate(1200 200) scale(0.1 -0.1)"><path d="M0.0 0.0 -71.0 -88.0H-382.0L-407.0 -116.0H100.0C114.0 -116.0 126.0 -111.0 128.0 -100.0C78.0 -57.0 0.0 0.0 0.0 0.0ZM-240.0 39.0 -424.0 53.0C-437.0 -72.0 -475.0 -237.0 -521.0 -331.0L-512.0 -338.0C-407.0 -251.0 -325.0 -110.0 -275.0 18.0C-249.0 20.0 -242.0 27.0 -240.0 39.0ZM-149.0 -676.0V-88.0H-294.0V-713.0H-267.0C-192.0 -713.0 -149.0 -684.0 -149.0 -676.0ZM-4.0 -367.0 -68.0 -448.0H-220.0V-476.0H85.0C99.0 -476.0 110.0 -471.0 113.0 -460.0C69.0 -422.0 -4.0 -367.0 -4.0 -367.0ZM-14.0 -187.0 -78.0 -268.0H-211.0V-296.0H75.0C90.0 -296.0 100.0 -291.0 103.0 -280.0C59.0 -242.0 -14.0 -187.0 -14.0 -187.0Z"/></g>
<g fill="black" opacity=".8" transform="translate(1200 200) scale(0.1 -0.1)"><path d="M0.0 0.0 -71.0 -89.0H-383.0L-407.0 -115.0H100.0C115.0 -115.0 126.0 -110.0 128.0 -100.0C77.0 -57.0 0.0 0.0 0.0 0.0ZM-234.0 34.0 -417.0 55.0C-431.0 -72.0 -472.0 -237.0 -522.0 -331.0L-514.0 -338.0C-404.0 -252.0 -319.0 -114.0 -269.0 14.0C-242.0 17.0 -236.0 23.0 -234.0 34.0ZM-148.0 -677.0V-87.0H-292.0V-713.0H-263.0C-190.0 -713.0 -148.0 -685.0 -148.0 -677.0ZM-3.0 -368.0 -69.0 -450.0H-220.0V-476.0H87.0C102.0 -476.0 113.0 -470.0 116.0 -460.0C70.0 -422.0 -3.0 -368.0 -3.0 -368.0ZM-19.0 -189.0 -82.0 -270.0H-213.0V-296.0H72.0C87.0 -296.0 96.0 -292.0 99.0 -281.0C54.0 -244.0 -19.0 -189.0 -19.0 -189.0Z"/></g>
<g fill="red" transform="translate(1300 200) scale(0.1 -0.1)"><path d="M0.0 0.0 -40.0 -49.0H-388.0V-79.0H48.0C62.0 -79.0 71.0 -74.0 74.0 -63.0C45.0 -35.0 0.0 0.0 0.0 0.0ZM-266.0 99.0 -350.0 126.0C-390.0 -28.0 -458.0 -185.0 -522.0 -286.0L-507.0 -296.0C-428.0 -203.0 -354.0 -61.0 -304.0 80.0C-282.0 80.0 -271.0 89.0 -266.0 99.0ZM-241.0 -762.0V-49.0H-285.0V-779.0H-279.0C-256.0 -779.0 -241.0 -766.0 -241.0 -762.0ZM-27.0 -427.0 -65.0 -475.0H-261.0V-505.0H21.0C35.0 -505.0 43.0 -500.0 46.0 -489.0C19.0 -462.0 -27.0 -427.0 -27.0 -427.0ZM-50.0 -217.0 -89.0 -264.0H-261.0V-294.0H-5.0C8.0 -294.0 18.0 -289.0 20.0 -278.0C-7.0 -251.0 -50.0 -217.0 -50.0 -217.0Z"/></g>
<g fill="black" opacity=".8" transform="translate(1300 200) scale(0.1 -0.1)"><path d="M0.0 0.0 -38.0 -47.0H-386.0L-382.0 -76.0H47.0C61.0 -76.0 70.0 -73.0 72.0 -61.0C44.0 -35.0 0.0 0.0 0.0 0.0ZM-259.0 102.0 -338.0 131.0C-380.0 -28.0 -450.0 -180.0 -514.0 -280.0L-500.0 -291.0C-422.0 -200.0 -347.0 -63.0 -295.0 84.0C-276.0 82.0 -263.0 93.0 -259.0 102.0ZM-242.0 -755.0V-49.0H-285.0V-771.0H-280.0C-257.0 -771.0 -242.0 -760.0 -242.0 -755.0ZM-26.0 -426.0 -63.0 -472.0H-259.0V-502.0H21.0C34.0 -502.0 41.0 -496.0 45.0 -486.0C20.0 -459.0 -26.0 -426.0 -26.0 -426.0ZM-48.0 -215.0 -85.0 -261.0H-260.0V-291.0H-3.0C10.0 -291.0 18.0 -286.0 21.0 -275.0C-5.0 -248.0 -48.0 -215.0 -48.0 -215.0Z"/></g>
<g fill="red" transform="translate(1400 200) scale(0.1 -0.1)"><path d="M0.0 0.0 -68.0 -89.0H-323.0V-117.0H95.0C109.0 -117.0 120.0 -112.0 123.0 -101.0C77.0 -60.0 0.0 0.0 0.0 0.0ZM-163.0 65.0 -355.0 116.0C-374.0 -37.0 -416.0 -209.0 -459.0 -320.0L-448.0 -326.0C-345.0 -240.0 -263.0 -114.0 -203.0 43.0C-179.0 43.0 -166.0 52.0 -163.0 65.0ZM-140.0 -803.0V-89.0H-284.0V-839.0H-257.0C-184.0 -839.0 -141.0 -811.0 -140.0 -803.0ZM-26.0 -433.0 -95.0 -523.0H-214.0V-551.0H69.0C84.0 -551.0 95.0 -546.0 98.0 -535.0C51.0 -494.0 -26.0 -433.0 -26.0 -433.0ZM-37.0 -222.0 -100.0 -304.0H-214.0V-332.0H49.0C63.0 -332.0 74.0 -327.0 77.0 -316.0C34.0 -278.0 -37.0 -222.0 -37.0 -222.0Z"/></g>
<g fill="black" opacity=".8" transform="translate(1400 200) scale(0.1 -0.1)"><path d="M0.0 0.0 -71.0 -94.0H-325.0L-320.0 -120.0H97.0C113.0 -120.0 123.0 -115.0 126.0 -105.0C78.0 -64.0 0.0 0.0 0.0 0.0ZM-167.0 54.0 -354.0 115.0C-377.0 -44.0 -427.0 -212.0 -474.0 -322.0L-463.0 -329.0C-358.0 -247.0 -272.0 -131.0 -207.0 32.0C-184.0 33.0 -170.0 41.0 -167.0 54.0ZM-141.0 -805.0V-94.0H-284.0V-840.0H-255.0C-183.0 -840.0 -142.0 -812.0 -141.0 -805.0ZM-27.0 -435.0 -100.0 -532.0H-213.0V-558.0H73.0C89.0 -558.0 100.0 -553.0 103.0 -542.0C54.0 -500.0 -27.0 -435.0 -27.0 -435.0ZM-34.0 -223.0 -99.0 -310.0H-215.0V-336.0H57.0C71.0 -336.0 81.0 -332.0 83.0 -321.0C39.0 -282.0 -34.0 -223.0 -34.0 -223.0Z"/></g>
<g fill="red" transform="translate(1500 200) scale(0.1 -0.1)"><path d="M0.0 0.0 -40.0 -49.0H-351.0V-79.0H49.0C62.0 -79.0 72.0 -74.0 74.0 -63.0C45.0 -35.0 0.0 0.0 0.0 0.0ZM-222.0 102.0 -305.0 130.0C-347.0 -21.0 -416.0 -175.0 -483.0 -273.0L-468.0 -283.0C-387.0 -194.0 -311.0 -56.0 -259.0 84.0C-238.0 83.0 -226.0 92.0 -222.0 102.0ZM-225.0 -763.0V-59.0H-269.0V-780.0H-263.0C-240.0 -780.0 -225.0 -767.0 -225.0 -763.0ZM-4.0 -415.0 -44.0 -463.0H-235.0V-493.0H43.0C56.0 -493.0 65.0 -488.0 67.0 -477.0C40.0 -450.0 -4.0 -415.0 -4.0 -415.0ZM-29.0 -205.0 -68.0 -252.0H-235.0V-282.0H16.0C30.0 -282.0 39.0 -277.0 42.0 -266.0C14.0 -239.0 -29.0 -205.0 -29.0 -205.0Z"/></g>
<g fill="black" opacity=".8" transform="translate(1500 200) scale(0.1 -0.1)"><path d="M0.0 0.0 -39.0 -48.0H-361.0L-364.0 -78.0H48.0C62.0 -78.0 71.0 -75.0 73.0 -62.0C44.0 -35.0 0.0 0.0 0.0 0.0ZM-230.0 102.0 -314.0 124.0C-354.0 -20.0 -423.0 -170.0 -489.0 -265.0L-475.0 -276.0C-395.0 -189.0 -318.0 -53.0 -267.0 83.0C-245.0 82.0 -233.0 92.0 -230.0 102.0ZM-223.0 -764.0V-54.0H-268.0V-781.0H-262.0C-239.0 -781.0 -223.0 -769.0 -223.0 -764.0ZM-11.0 -420.0 -50.0 -468.0H-242.0V-499.0H37.0C50.0 -499.0 58.0 -493.0 61.0 -482.0C35.0 -454.0 -11.0 -420.0 -11.0 -420.0ZM-32.0 -211.0 -69.0 -257.0H-241.0V-288.0H12.0C26.0 -288.0 35.0 -283.0 38.0 -272.0C11.0 -244.0 -32.0 -211.0 -32.0 -211.0Z"/></g>
<g fill="red" transform="translate(1600 200) scale(0.1 -0.1)"><path d="M0.0 0.0 -73.0 -96.0H-309.0V-124.0H103.0C118.0 -124.0 129.0 -119.0 132.0 -108.0C83.0 -64.0 0.0 0.0 0.0 0.0ZM-133.0 59.0 -324.0 114.0C-347.0 -39.0 -396.0 -206.0 -444.0 -313.0L-433.0 -320.0C-326.0 -238.0 -238.0 -117.0 -173.0 38.0C-150.0 38.0 -137.0 46.0 -133.0 59.0ZM-143.0 -806.0V-102.0H-290.0V-843.0H-263.0C-187.0 -843.0 -144.0 -814.0 -143.0 -806.0ZM-12.0 -433.0 -85.0 -530.0H-200.0V-558.0H92.0C107.0 -558.0 118.0 -553.0 121.0 -542.0C71.0 -498.0 -12.0 -433.0 -12.0 -433.0ZM-13.0 -222.0 -81.0 -311.0H-200.0V-339.0H81.0C96.0 -339.0 107.0 -334.0 109.0 -323.0C64.0 -282.0 -13.0 -222.0 -13.0 -222.0Z"/></g>
<g fill="black" opacity=".8" transform="translate(1600 200) scale(0.1 -0.1)"><path d="M0.0 0.0 -69.0 -92.0H-296.0L-298.0 -119.0H95.0C111.0 -119.0 122.0 -113.0 125.0 -103.0C77.0 -61.0 0.0 0.0 0.0 0.0ZM-127.0 56.0 -317.0 106.0C-341.0 -48.0 -393.0 -214.0 -448.0 -321.0L-437.0 -328.0C-324.0 -245.0 -232.0 -121.0 -167.0 34.0C-143.0 35.0 -130.0 43.0 -127.0 56.0ZM-132.0 -810.0V-93.0H-277.0V-847.0H-248.0C-174.0 -847.0 -132.0 -818.0 -132.0 -810.0ZM-2.0 -430.0 -71.0 -523.0H-200.0V-550.0H90.0C106.0 -550.0 117.0 -545.0 120.0 -533.0C74.0 -493.0 -2.0 -430.0 -2.0 -430.0ZM-15.0 -220.0 -78.0 -305.0H-200.0V-333.0H70.0C85.0 -333.0 95.0 -328.0 98.0 -317.0C55.0 -278.0 -15.0 -220.0 -15.0 -220.0Z"/></g>
<g fill="red" transform="translate(100 300) scale(0.1 -0.1)"><path d="M0.0 0.0 -40.0 -50.0H-448.0V-80.0H51.0C64.0 -80.0 73.0 -75.0 76.0 -64.0C47.0 -36.0 0.0 0.0 0.0 0.0ZM-308.0 100.0 -390.0 130.0C-438.0 -25.0 -517.0 -177.0 -591.0 -273.0L-576.0 -284.0C-488.0 -197.0 -404.0 -60.0 -346.0 83.0C-324.0 81.0 -312.0 90.0 -308.0 100.0ZM-261.0 -763.0V-50.0H-305.0V-780.0H-299.0C-276.0 -780.0 -261.0 -767.0 -261.0 -763.0ZM-8.0 -427.0 -48.0 -476.0H-276.0V-506.0H40.0C54.0 -506.0 64.0 -501.0 66.0 -490.0C37.0 -462.0 -8.0 -427.0 -8.0 -427.0ZM-33.0 -217.0 -71.0 -265.0H-276.0V-295.0H15.0C27.0 -295.0 37.0 -290.0 39.0 -279.0C12.0 -252.0 -33.0 -217.0 -33.0 -217.0Z"/></g>
<g fill="black" opacity=".8" transform="translate(100 300) scale(0.1 -0.1)"><path d="M0.0 0.0 -39.0 -49.0H-445.0L-449.0 -79.0H50.0C63.0 -79.0 73.0 -75.0 75.0 -63.0C46.0 -35.0 0.0 0.0 0.0 0.0ZM-314.0 96.0 -396.0 126.0C-440.0 -22.0 -517.0 -177.0 -591.0 -275.0L-577.0 -286.0C-489.0 -197.0 -405.0 -55.0 -351.0 80.0C-330.0 77.0 -318.0 86.0 -314.0 96.0ZM-258.0 -764.0V-55.0H-303.0V-782.0H-297.0C-273.0 -782.0 -258.0 -769.0 -258.0 -764.0ZM-12.0 -426.0 -52.0 -476.0H-276.0V-507.0H36.0C50.0 -507.0 58.0 -501.0 62.0 -490.0C35.0 -462.0 -12.0 -426.0 -12.0 -426.0ZM-35.0 -215.0 -73.0 -264.0H-274.0V-294.0H11.0C25.0 -294.0 34.0 -289.0 37.0 -278.0C9.0 -250.0 -35.0 -215.0 -35.0 -215.0Z"/></g>
<g fill="red" transform="translate(200 300) scale(0.1 -0.1)"><path d="M0.0 0.0 -70.0 -95.0H-376.0V-123.0H95.0C110.0 -123.0 121.0 -118.0 124.0 -107.0C78.0 -64.0 0.0 0.0 0.0 0.0ZM-216.0 42.0 -409.0 106.0C-442.0 -57.0 -508.0 -229.0 -572.0 -336.0L-562.0 -343.0C-437.0 -262.0 -335.0 -142.0 -257.0 22.0C-234.0 21.0 -220.0 30.0 -216.0 42.0ZM-175.0 -806.0V-94.0H-325.0V-844.0H-297.0C-220.0 -844.0 -175.0 -815.0 -175.0 -806.0ZM-19.0 -430.0 -89.0 -529.0H-250.0V-557.0H77.0C91.0 -557.0 102.0 -552.0 105.0 -541.0C60.0 -497.0 -19.0 -430.0 -19.0 -430.0ZM-30.0 -220.0 -93.0 -310.0H-250.0V-338.0H56.0C70.0 -338.0 81.0 -333.0 84.0 -322.0C42.0 -281.0 -30.0 -220.0 -30.0 -220.0Z"/></g>
<g fill="black" opacity=".8" transform="translate(200 300) scale(0.1 -0.1)"><path d="M0.0 0.0 -72.0 -94.0H-379.0L-381.0 -122.0H99.0C114.0 -122.0 125.0 -116.0 129.0 -106.0C79.0 -63.0 0.0 0.0 0.0 0.0ZM-213.0 48.0 -409.0 107.0C-437.0 -54.0 -500.0 -228.0 -568.0 -337.0L-559.0 -343.0C-429.0 -261.0 -325.0 -133.0 -254.0 28.0C-229.0 28.0 -216.0 35.0 -213.0 48.0ZM-177.0 -803.0V-97.0H-327.0V-840.0H-298.0C-221.0 -840.0 -178.0 -811.0 -177.0 -803.0ZM-16.0 -434.0 -89.0 -531.0H-256.0V-559.0H82.0C98.0 -559.0 109.0 -553.0 112.0 -542.0C64.0 -499.0 -16.0 -434.0 -16.0 -434.0ZM-35.0 -223.0 -100.0 -310.0H-257.0V-338.0H54.0C69.0 -338.0 79.0 -334.0 82.0 -322.0C38.0 -282.0 -35.0 -223.0 -35.0 -223.0Z"/></g>
<g fill="red" transform="translate(300 300) scale(0.1 -0.1)"><path d="M0.0 0.0 -41.0 -51.0H-435.0L-450.0 -81.0H51.0C65.0 -81.0 74.0 -76.0 76.0 -65.0C46.0 -35.0 0.0 0.0 0.0 0.0ZM-324.0 75.0 -410.0 99.0C-445.0 -34.0 -521.0 -199.0 -604.0 -293.0L-588.0 -304.0C-491.0 -213.0 -405.0 -60.0 -362.0 63.0C-336.0 61.0 -328.0 65.0 -324.0 75.0ZM-272.0 -670.0V-51.0H-316.0V-688.0H-310.0C-287.0 -688.0 -272.0 -675.0 -272.0 -670.0ZM-20.0 -363.0 -62.0 -413.0H-303.0V-443.0H30.0C43.0 -443.0 53.0 -438.0 56.0 -427.0C26.0 -399.0 -20.0 -363.0 -20.0 -363.0ZM-26.0 -181.0 -63.0 -228.0H-296.0V-258.0H19.0C33.0 -258.0 42.0 -253.0 45.0 -242.0C17.0 -215.0 -26.0 -181.0 -26.0 -181.0Z"/></g>
<g fill="black" opacity=".8" transform="translate(300 300) scale(0.1 -0.1)"><path d="M0.0 0.0 -39.0 -49.0H-436.0L-448.0 -80.0H50.0C64.0 -80.0 73.0 -76.0 75.0 -64.0C45.0 -35.0 0.0 0.0 0.0 0.0ZM-316.0 74.0 -401.0 101.0C-440.0 -34.0 -517.0 -195.0 -598.0 -289.0L-583.0 -301.0C-489.0 -211.0 -400.0 -62.0 -354.0 61.0C-330.0 58.0 -320.0 64.0 -316.0 74.0ZM-266.0 -648.0V-59.0H-311.0V-666.0H-305.0C-281.0 -666.0 -266.0 -653.0 -266.0 -648.0ZM-14.0 -358.0 -55.0 -406.0H-293.0V-438.0H34.0C47.0 -438.0 56.0 -432.0 59.0 -421.0C31.0 -393.0 -14.0 -358.0 -14.0 -358.0ZM-36.0 -180.0 -72.0 -227.0H-290.0V-258.0H8.0C22.0 -258.0 31.0 -252.0 34.0 -241.0C7.0 -214.0 -36.0 -180.0 -36.0 -180.0Z"/></g>
<g fill="red" transform="translate(400 300) scale(0.1 -0.1)"><path d="M0.0 0.0 -71.0 -88.0H-396.0L-410.0 -116.0H100.0C114.0 -116.0 126.0 -111.0 128.0 -100.0C78.0 -57.0 0.0 0.0 0.0 0.0ZM-225.0 42.0 -423.0 74.0C-443.0 -63.0 -496.0 -236.0 -560.0 -334.0L-553.0 -340.0C-424.0 -255.0 -323.0 -112.0 -262.0 24.0C-235.0 24.0 -227.0 30.0 -225.0 42.0ZM-168.0 -654.0V-88.0H-315.0V-691.0H-288.0C-212.0 -691.0 -168.0 -662.0 -168.0 -654.0ZM-11.0 -343.0 -78.0 -427.0H-263.0V-455.0H85.0C99.0 -455.0 110.0 -450.0 113.0 -439.0C66.0 -399.0 -11.0 -343.0 -11.0 -343.0ZM-27.0 -176.0 -92.0 -257.0H-263.0V-285.0H64.0C78.0 -285.0 89.0 -280.0 92.0 -269.0C47.0 -231.0 -27.0 -176.0 -27.0 -176.0Z"/></g>
<g fill="black" opacity=".8" transform="translate(400 300) scale(0.1 -0.1)"><path d="M0.0 0.0 -71.0 -90.0H-394.0L-404.0 -117.0H98.0C113.0 -117.0 125.0 -112.0 128.0 -101.0C78.0 -59.0 0.0 0.0 0.0 0.0ZM-224.0 33.0 -415.0 77.0C-440.0 -74.0 -502.0 -251.0 -574.0 -355.0L-566.0 -361.0C-433.0 -275.0 -327.0 -132.0 -262.0 16.0C-236.0 15.0 -226.0 21.0 -224.0 33.0ZM-180.0 -661.0V-92.0H-326.0V-697.0H-298.0C-223.0 -697.0 -180.0 -669.0 -180.0 -661.0ZM-3.0 -355.0 -69.0 -442.0H-261.0V-470.0H86.0C101.0 -470.0 112.0 -464.0 115.0 -453.0C70.0 -414.0 -3.0 -355.0 -3.0 -355.0ZM-25.0 -181.0 -88.0 -264.0H-261.0V-292.0H61.0C75.0 -292.0 85.0 -287.0 89.0 -276.0C45.0 -238.0 -25.0 -181.0 -25.0 -181.0Z"/></g>
<g fill="red" transform="translate(500 300) scale(0.1 -0.1)"><path d="M0.0 0.0 -42.0 -51.0H-496.0L-511.0 -81.0H50.0C64.0 -81.0 72.0 -76.0 75.0 -65.0C45.0 -35.0 0.0 0.0 0.0 0.0ZM-361.0 58.0 -444.0 93.0C-487.0 -33.0 -574.0 -197.0 -658.0 -290.0L-643.0 -301.0C-544.0 -212.0 -448.0 -61.0 -399.0 51.0C-375.0 45.0 -367.0 48.0 -361.0 58.0ZM-312.0 -630.0V-51.0H-356.0V-649.0H-350.0C-327.0 -649.0 -312.0 -635.0 -312.0 -630.0ZM-20.0 -315.0 -60.0 -365.0H-334.0V-395.0H31.0C44.0 -395.0 54.0 -390.0 56.0 -379.0C28.0 -351.0 -20.0 -315.0 -20.0 -315.0ZM-53.0 -160.0 -92.0 -207.0H-333.0V-237.0H-8.0C6.0 -237.0 15.0 -232.0 17.0 -221.0C-10.0 -194.0 -53.0 -160.0 -53.0 -160.0Z"/></g>
<g fill="black" opacity=".8" transform="translate(500 300) scale(0.1 -0.1)"><path d="M0.0 0.0 -40.0 -51.0H-480.0L-492.0 -81.0H50.0C65.0 -81.0 74.0 -78.0 76.0 -65.0C46.0 -36.0 0.0 0.0 0.0 0.0ZM-353.0 61.0 -434.0 85.0C-476.0 -38.0 -560.0 -178.0 -646.0 -258.0L-632.0 -271.0C-534.0 -196.0 -441.0 -68.0 -391.0 48.0C-367.0 44.0 -357.0 50.0 -353.0 61.0ZM-316.0 -632.0V-60.0H-362.0V-651.0H-356.0C-332.0 -651.0 -316.0 -638.0 -316.0 -632.0ZM-24.0 -314.0 -65.0 -364.0H-339.0V-395.0H26.0C40.0 -395.0 48.0 -390.0 51.0 -379.0C24.0 -350.0 -24.0 -314.0 -24.0 -314.0ZM-52.0 -157.0 -89.0 -205.0H-338.0V-236.0H-7.0C7.0 -236.0 16.0 -230.0 18.0 -219.0C-8.0 -192.0 -52.0 -157.0 -52.0 -157.0Z"/></g>
<g fill="red" transform="translate(600 300) scale(0.1 -0.1)"><path d="M0.0 0.0 -71.0 -88.0H-424.0L-449.0 -116.0H100.0C114.0 -116.0 126.0 -111.0 128.0 -100.0C78.0 -57.0 0.0 0.0 0.0 0.0ZM-235.0 2.0 -425.0 63.0C-449.0 -69.0 -511.0 -231.0 -582.0 -321.0L-575.0 -328.0C-445.0 -254.0 -339.0 -128.0 -275.0 -10.0C-248.0 -14.0 -240.0 -9.0 -235.0 2.0ZM-218.0 -676.0V-88.0H-365.0V-713.0H-338.0C-262.0 -713.0 -218.0 -684.0 -218.0 -676.0ZM11.0 -338.0 -54.0 -419.0H-299.0V-447.0H99.0C114.0 -447.0 125.0 -442.0 127.0 -431.0C83.0 -393.0 11.0 -338.0 11.0 -338.0ZM-39.0 -171.0 -103.0 -252.0H-297.0V-280.0H50.0C64.0 -280.0 75.0 -275.0 78.0 -264.0C34.0 -226.0 -39.0 -171.0 -39.0 -171.0Z"/></g>
<g fill="black" opacity=".8" transform="translate(600 300) scale(0.1 -0.1)"><path d="M0.0 0.0 -71.0 -89.0H-428.0L-443.0 -116.0H98.0C114.0 -116.0 125.0 -111.0 128.0 -101.0C78.0 -58.0 0.0 0.0 0.0 0.0ZM-245.0 11.0 -432.0 59.0C-459.0 -81.0 -527.0 -237.0 -604.0 -327.0L-596.0 -335.0C-462.0 -264.0 -352.0 -140.0 -284.0 -6.0C-257.0 -7.0 -248.0 -1.0 -245.0 11.0ZM-214.0 -673.0V-92.0H-363.0V-710.0H-333.0C-257.0 -710.0 -214.0 -681.0 -214.0 -673.0ZM7.0 -339.0 -62.0 -424.0H-296.0V-452.0H101.0C117.0 -452.0 128.0 -446.0 131.0 -435.0C83.0 -396.0 7.0 -339.0 7.0 -339.0ZM-31.0 -169.0 -98.0 -252.0H-293.0V-281.0H63.0C78.0 -281.0 88.0 -275.0 91.0 -264.0C44.0 -226.0 -31.0 -169.0 -31.0 -169.0Z"/></g>
<g fill="red" transform="translate(700 300) scale(0.1 -0.1)"><path d="M0.0 0.0 -42.0 -51.0H-422.0L-437.0 -81.0H50.0C64.0 -81.0 73.0 -76.0 76.0 -65.0C45.0 -35.0 0.0 0.0 0.0 0.0ZM-301.0 50.0 -388.0 72.0C-428.0 -38.0 -511.0 -174.0 -595.0 -252.0L-581.0 -264.0C-483.0 -192.0 -389.0 -66.0 -338.0 37.0C-313.0 36.0 -305.0 39.0 -301.0 50.0ZM-312.0 -469.0V-51.0H-356.0V-487.0H-350.0C-327.0 -487.0 -312.0 -474.0 -312.0 -469.0ZM-25.0 -292.0 -66.0 -342.0H-335.0V-372.0H26.0C39.0 -372.0 48.0 -367.0 51.0 -356.0C22.0 -328.0 -25.0 -292.0 -25.0 -292.0ZM-65.0 -151.0 -102.0 -198.0H-335.0V-228.0H-20.0C-6.0 -228.0 3.0 -223.0 6.0 -212.0C-22.0 -185.0 -65.0 -151.0 -65.0 -151.0Z"/></g>
<g fill="black" opacity=".8" transform="translate(700 300) scale(0.1 -0.1)"><path d="M0.0 0.0 -41.0 -51.0H-420.0L-437.0 -81.0H50.0C65.0 -81.0 74.0 -77.0 76.0 -65.0C45.0 -35.0 0.0 0.0 0.0 0.0ZM-301.0 50.0 -389.0 73.0C-428.0 -37.0 -510.0 -180.0 -594.0 -260.0L-580.0 -274.0C-483.0 -196.0 -388.0 -64.0 -339.0 38.0C-315.0 36.0 -306.0 38.0 -301.0 50.0ZM-313.0 -473.0V-51.0H-357.0V-491.0H-352.0C-328.0 -491.0 -313.0 -480.0 -313.0 -473.0ZM-23.0 -292.0 -64.0 -341.0H-335.0V-373.0H29.0C42.0 -373.0 50.0 -367.0 54.0 -356.0C25.0 -327.0 -23.0 -292.0 -23.0 -292.0ZM-64.0 -151.0 -101.0 -198.0H-334.0V-229.0H-19.0C-4.0 -229.0 5.0 -224.0 8.0 -212.0C-20.0 -185.0 -64.0 -151.0 -64.0 -151.0Z"/></g>
<g fill="red" transform="translate(800 300) scale(0.1 -0.1)"><path d="M0.0 0.0 -69.0 -85.0H-375.0L-389.0 -113.0H96.0C111.0 -113.0 122.0 -108.0 125.0 -97.0C76.0 -55.0 0.0 0.0 0.0 0.0ZM-198.0 13.0 -377.0 49.0C-399.0 -72.0 -456.0 -217.0 -524.0 -298.0L-515.0 -306.0C-393.0 -238.0 -295.0 -119.0 -235.0 -3.0C-209.0 -4.0 -201.0 2.0 -198.0 13.0ZM-173.0 -496.0V-85.0H-313.0V-528.0H-287.0C-215.0 -528.0 -173.0 -502.0 -173.0 -496.0ZM29.0 -276.0 -37.0 -358.0H-208.0V-386.0H121.0C136.0 -386.0 147.0 -381.0 149.0 -370.0C103.0 -331.0 29.0 -276.0 29.0 -276.0ZM3.0 -145.0 -61.0 -224.0H-208.0V-252.0H91.0C105.0 -252.0 116.0 -247.0 119.0 -236.0C75.0 -198.0 3.0 -145.0 3.0 -145.0Z"/></g>
<g fill="black" opacity=".8" transform="translate(800 300) scale(0.1 -0.1)"><path d="M0.0 0.0 -71.0 -87.0H-378.0L-394.0 -114.0H98.0C113.0 -114.0 125.0 -108.0 127.0 -98.0C76.0 -55.0 0.0 0.0 0.0 0.0ZM-201.0 14.0 -382.0 51.0C-401.0 -66.0 -451.0 -210.0 -514.0 -291.0L-505.0 -298.0C-389.0 -229.0 -293.0 -109.0 -238.0 -2.0C-210.0 -3.0 -203.0 3.0 -201.0 14.0ZM-175.0 -495.0V-86.0H-316.0V-527.0H-288.0C-216.0 -527.0 -175.0 -501.0 -175.0 -495.0ZM27.0 -274.0 -40.0 -356.0H-210.0V-384.0H120.0C136.0 -384.0 147.0 -378.0 149.0 -367.0C102.0 -329.0 27.0 -274.0 27.0 -274.0ZM2.0 -144.0 -62.0 -224.0H-210.0V-252.0H92.0C107.0 -252.0 117.0 -246.0 120.0 -236.0C75.0 -198.0 2.0 -144.0 2.0 -144.0Z"/></g>
<g fill="red" transform="translate(900 300) scale(0.1 -0.1)"><path d="M0.0 0.0 -40.0 -49.0H-388.0V-79.0H48.0C62.0 -79.0 71.0 -74.0 74.0 -63.0C45.0 -35.0 0.0 0.0 0.0 0.0ZM-260.0 98.0 -343.0 126.0C-384.0 -24.0 -453.0 -175.0 -519.0 -273.0L-504.0 -283.0C-424.0 -194.0 -349.0 -58.0 -297.0 80.0C-276.0 79.0 -264.0 88.0 -260.0 98.0ZM-256.0 -762.0V-49.0H-300.0V-779.0H-294.0C-271.0 -779.0 -256.0 -766.0 -256.0 -762.0ZM-24.0 -427.0 -62.0 -475.0H-272.0V-505.0H24.0C37.0 -505.0 47.0 -500.0 49.0 -489.0C22.0 -462.0 -24.0 -427.0 -24.0 -427.0ZM-47.0 -217.0 -86.0 -264.0H-272.0V-294.0H-2.0C11.0 -294.0 21.0 -289.0 23.0 -278.0C-4.0 -251.0 -47.0 -217.0 -47.0 -217.0Z"/></g>
<g fill="black" opacity=".8" transform="translate(900 300) scale(0.1 -0.1)"><path d="M0.0 0.0 -40.0 -49.0H-390.0L-389.0 -79.0H49.0C63.0 -79.0 73.0 -76.0 75.0 -63.0C45.0 -36.0 0.0 0.0 0.0 0.0ZM-258.0 101.0 -342.0 127.0C-385.0 -26.0 -456.0 -177.0 -522.0 -274.0L-508.0 -285.0C-427.0 -197.0 -349.0 -61.0 -296.0 82.0C-275.0 80.0 -262.0 91.0 -258.0 101.0ZM-253.0 -755.0V-50.0H-298.0V-772.0H-293.0C-269.0 -772.0 -253.0 -760.0 -253.0 -755.0ZM-23.0 -424.0 -62.0 -473.0H-270.0V-504.0H26.0C39.0 -504.0 47.0 -498.0 51.0 -487.0C25.0 -459.0 -23.0 -424.0 -23.0 -424.0ZM-49.0 -215.0 -88.0 -262.0H-270.0V-293.0H-3.0C11.0 -293.0 20.0 -288.0 22.0 -277.0C-5.0 -249.0 -49.0 -215.0 -49.0 -215.0Z"/></g>
<g fill="red" transform="translate(1000 300) scale(0.1 -0.1)"><path d="M0.0 0.0 -74.0 -96.0H-319.0V-124.0H103.0C118.0 -124.0 129.0 -119.0 132.0 -108.0C82.0 -64.0 0.0 0.0 0.0 0.0ZM-161.0 50.0 -352.0 105.0C-374.0 -43.0 -421.0 -206.0 -468.0 -310.0L-457.0 -317.0C-352.0 -237.0 -266.0 -121.0 -202.0 28.0C-178.0 28.0 -165.0 37.0 -161.0 50.0ZM-133.0 -809.0V-96.0H-280.0V-846.0H-253.0C-177.0 -846.0 -134.0 -817.0 -133.0 -809.0ZM-13.0 -433.0 -86.0 -530.0H-210.0V-558.0H91.0C106.0 -558.0 117.0 -553.0 120.0 -542.0C71.0 -498.0 -13.0 -433.0 -13.0 -433.0ZM-23.0 -222.0 -91.0 -311.0H-210.0V-339.0H71.0C86.0 -339.0 97.0 -334.0 99.0 -323.0C54.0 -282.0 -23.0 -222.0 -23.0 -222.0Z"/></g>
<g fill="black" opacity=".8" transform="translate(1000 300) scale(0.1 -0.1)"><path d="M0.0 0.0 -72.0 -96.0H-323.0L-322.0 -123.0H99.0C115.0 -123.0 126.0 -117.0 130.0 -107.0C80.0 -64.0 0.0 0.0 0.0 0.0ZM-156.0 53.0 -348.0 110.0C-370.0 -44.0 -420.0 -209.0 -468.0 -316.0L-457.0 -323.0C-350.0 -243.0 -263.0 -127.0 -197.0 30.0C-173.0 31.0 -159.0 39.0 -156.0 53.0ZM-141.0 -812.0V-96.0H-289.0V-848.0H-259.0C-185.0 -848.0 -142.0 -819.0 -141.0 -812.0ZM-14.0 -436.0 -89.0 -535.0H-206.0V-562.0H88.0C104.0 -562.0 115.0 -556.0 118.0 -545.0C68.0 -502.0 -14.0 -436.0 -14.0 -436.0ZM-24.0 -225.0 -91.0 -313.0H-206.0V-340.0H69.0C84.0 -340.0 94.0 -336.0 97.0 -324.0C51.0 -285.0 -24.0 -225.0 -24.0 -225.0Z"/></g>
<g fill="red" transform="translate(1100 300) scale(0.1 -0.1)"><path d="M0.0 0.0 -37.0 -45.0H-283.0V-75.0H43.0C57.0 -75.0 66.0 -70.0 69.0 -59.0C42.0 -33.0 0.0 0.0 0.0 0.0ZM-163.0 107.0 -248.0 131.0C-281.0 -25.0 -336.0 -193.0 -390.0 -303.0L-373.0 -312.0C-304.0 -210.0 -241.0 -57.0 -199.0 87.0C-177.0 87.0 -166.0 97.0 -163.0 107.0ZM-163.0 -758.0V-58.0H-207.0V-775.0H-201.0C-178.0 -775.0 -163.0 -761.0 -163.0 -758.0ZM-13.0 -427.0 -49.0 -471.0H-189.0V-501.0H29.0C43.0 -501.0 51.0 -496.0 54.0 -485.0C28.0 -459.0 -13.0 -427.0 -13.0 -427.0ZM-37.0 -218.0 -72.0 -260.0H-189.0V-290.0H2.0C16.0 -290.0 25.0 -285.0 28.0 -274.0C2.0 -249.0 -37.0 -218.0 -37.0 -218.0Z"/></g>
<g fill="black" opacity=".8" transform="translate(1100 300) scale(0.1 -0.1)"><path d="M0.0 0.0 -36.0 -45.0H-281.0L-279.0 -75.0H45.0C59.0 -75.0 68.0 -71.0 70.0 -60.0C43.0 -33.0 0.0 0.0 0.0 0.0ZM-162.0 112.0 -245.0 133.0C-279.0 -27.0 -336.0 -195.0 -393.0 -301.0L-377.0 -312.0C-307.0 -211.0 -241.0 -60.0 -198.0 92.0C-176.0 92.0 -164.0 102.0 -162.0 112.0ZM-168.0 -770.0V-53.0H-212.0V-786.0H-207.0C-184.0 -786.0 -168.0 -774.0 -168.0 -770.0ZM-16.0 -430.0 -53.0 -473.0H-195.0V-503.0H27.0C40.0 -503.0 48.0 -498.0 51.0 -487.0C26.0 -461.0 -16.0 -430.0 -16.0 -430.0ZM-26.0 -214.0 -60.0 -257.0H-193.0V-287.0H15.0C29.0 -287.0 37.0 -282.0 40.0 -271.0C14.0 -245.0 -26.0 -214.0 -26.0 -214.0Z"/></g>
<g fill="red" transform="translate(1200 300) scale(0.1 -0.1)"><path d="M0.0 0.0 -68.0 -88.0H-229.0V-116.0H93.0C107.0 -116.0 118.0 -111.0 121.0 -100.0C76.0 -59.0 0.0 0.0 0.0 0.0ZM-80.0 69.0 -262.0 113.0C-280.0 -54.0 -322.0 -244.0 -364.0 -368.0L-352.0 -374.0C-252.0 -272.0 -174.0 -126.0 -119.0 46.0C-96.0 47.0 -84.0 56.0 -80.0 69.0ZM-87.0 -803.0V-88.0H-224.0V-838.0H-199.0C-128.0 -838.0 -88.0 -811.0 -87.0 -803.0ZM-7.0 -436.0 -64.0 -522.0H-164.0V-550.0H67.0C81.0 -550.0 91.0 -545.0 94.0 -534.0C58.0 -495.0 -7.0 -436.0 -7.0 -436.0ZM-14.0 -220.0 -68.0 -303.0H-164.0V-331.0H57.0C71.0 -331.0 81.0 -326.0 84.0 -315.0C49.0 -277.0 -14.0 -220.0 -14.0 -220.0Z"/></g>
<g fill="black" opacity=".8" transform="translate(1200 300) scale(0.1 -0.1)"><path d="M0.0 0.0 -68.0 -91.0H-237.0L-234.0 -117.0H94.0C109.0 -117.0 119.0 -111.0 123.0 -102.0C76.0 -61.0 0.0 0.0 0.0 0.0ZM-81.0 72.0 -266.0 115.0C-284.0 -49.0 -324.0 -232.0 -363.0 -353.0L-351.0 -359.0C-253.0 -261.0 -176.0 -123.0 -119.0 49.0C-96.0 51.0 -83.0 59.0 -81.0 72.0ZM-82.0 -799.0V-89.0H-220.0V-834.0H-193.0C-122.0 -834.0 -82.0 -807.0 -82.0 -799.0ZM-18.0 -428.0 -83.0 -518.0H-161.0V-545.0H66.0C81.0 -545.0 91.0 -539.0 94.0 -528.0C53.0 -489.0 -18.0 -428.0 -18.0 -428.0ZM-14.0 -217.0 -72.0 -302.0H-162.0V-329.0H65.0C80.0 -329.0 89.0 -324.0 92.0 -313.0C52.0 -276.0 -14.0 -217.0 -14.0 -217.0Z"/></g>
</svg>
