<?xml version="1.0" encoding="UTF-8"?>
<svg width="1700" height="300" xmlns="http://www.w3.org/2000/svg">
<rect width="100%" height="100%" fill="white"/>
<g fill="green" transform="translate(100 100) scale(0.1 -0.1)"><path d="M0.0 -0.0V-898.0H9.0C26.0 -898.0 45.0 -887.0 45.0 -878.0V-37.0C70.0 -33.0 78.0 -24.0 81.0 -10.0Z"/></g>
<g fill="green" transform="translate(200 100) scale(0.1 -0.1)"><path d="M0.0 0.0V-950.0H28.0C83.0 -950.0 146.0 -913.0 146.0 -899.0V-47.0C175.0 -43.0 182.0 -32.0 184.0 -18.0Z"/></g>
<g fill="green" transform="translate(300 100) scale(0.1 -0.1)"><path d="M0.0 -0.0V-375.0H3.0C9.0 -375.0 16.0 -372.0 16.0 -368.0V-13.0C24.0 -11.0 27.0 -8.0 28.0 -4.0Z"/></g>
<g fill="green" transform="translate(400 100) scale(0.1 -0.1)"><path d="M0.0 0.0V-397.0H10.0C29.0 -397.0 50.0 -382.0 50.0 -377.0V-17.0C61.0 -15.0 63.0 -11.0 64.0 -7.0Z"/></g>
<g fill="green" transform="translate(500 100) scale(0.1 -0.1)"><path d="M0.0 0.0V-887.0H15.0C42.0 -887.0 74.0 -868.0 74.0 -855.0V-60.0C115.0 -53.0 130.0 -39.0 134.0 -16.0Z"/></g>
<g fill="green" transform="translate(600 100) scale(0.1 -0.1)"><path d="M0.0 0.0V-937.0H42.0C134.0 -937.0 237.0 -894.0 237.0 -876.0V-74.0C283.0 -67.0 296.0 -50.0 298.0 -27.0Z"/></g>
<g fill="red" transform="translate(100 200) scale(0.1 -0.1)"><path d="M0.0 0.0V-903.0H9.0C25.0 -903.0 44.0 -892.0 44.0 -883.0V-37.0C69.0 -33.0 77.0 -23.0 80.0 -9.0Z"/></g>
<g fill="black" opacity=".8" transform="translate(100 200) scale(0.1 -0.1)"><path d="M0.0 0.0V-898.0H9.0C26.0 -898.0 45.0 -887.0 45.0 -878.0V-37.0C70.0 -33.0 78.0 -24.0 81.0 -10.0Z"/></g>
<g fill="red" transform="translate(200 200) scale(0.1 -0.1)"><path d="M0.0 0.0V-945.0H28.0C83.0 -945.0 147.0 -909.0 147.0 -894.0V-46.0C175.0 -42.0 182.0 -32.0 184.0 -18.0Z"/></g>
<g fill="black" opacity=".8" transform="translate(200 200) scale(0.1 -0.1)"><path d="M0.0 0.0V-950.0H28.0C83.0 -950.0 146.0 -913.0 146.0 -899.0V-47.0C175.0 -43.0 182.0 -32.0 184.0 -18.0Z"/></g>
<g fill="red" transform="translate(300 200) scale(0.1 -0.1)"><path d="M0.0 0.0V-854.0H9.0C26.0 -854.0 44.0 -842.0 44.0 -833.0V-37.0C69.0 -33.0 77.0 -24.0 80.0 -10.0Z"/></g>
<g fill="black" opacity=".8" transform="translate(300 200) scale(0.1 -0.1)"><path d="M0.0 0.0V-859.0H9.0C25.0 -859.0 44.0 -848.0 44.0 -839.0V-36.0C68.0 -32.0 76.0 -23.0 79.0 -10.0Z"/></g>
<g fill="red" transform="translate(400 200) scale(0.1 -0.1)"><path d="M0.0 0.0V-913.0H27.0C81.0 -913.0 142.0 -878.0 142.0 -865.0V-46.0C170.0 -42.0 177.0 -31.0 179.0 -17.0Z"/></g>
<g fill="black" opacity=".8" transform="translate(400 200) scale(0.1 -0.1)"><path d="M0.0 0.0V-908.0H27.0C81.0 -908.0 142.0 -873.0 142.0 -859.0V-46.0C171.0 -42.0 177.0 -31.0 179.0 -18.0Z"/></g>
<g fill="red" transform="translate(500 200) scale(0.1 -0.1)"><path d="M0.0 0.0V-364.0H9.0C25.0 -364.0 44.0 -352.0 44.0 -345.0V-36.0C69.0 -32.0 79.0 -23.0 81.0 -9.0Z"/></g>
<g fill="black" opacity=".8" transform="translate(500 200) scale(0.1 -0.1)"><path d="M0.0 0.0V-364.0H9.0C25.0 -364.0 45.0 -353.0 45.0 -345.0V-36.0C69.0 -31.0 79.0 -23.0 81.0 -10.0Z"/></g>
<g fill="red" transform="translate(600 200) scale(0.1 -0.1)"><path d="M0.0 0.0V-384.0H24.0C80.0 -384.0 142.0 -363.0 142.0 -354.0V-43.0C169.0 -39.0 177.0 -29.0 178.0 -15.0Z"/></g>
<g fill="black" opacity=".8" transform="translate(600 200) scale(0.1 -0.1)"><path d="M0.0 0.0V-384.0H24.0C80.0 -384.0 141.0 -363.0 141.0 -354.0V-44.0C169.0 -39.0 177.0 -29.0 178.0 -16.0Z"/></g>
</svg>
