<?xml version="1.0" encoding="UTF-8"?>
<svg width="1700" height="300" xmlns="http://www.w3.org/2000/svg">
<rect width="100%" height="100%" fill="white"/>
<g fill="green" transform="translate(100 100) scale(0.1 -0.1)"><path d="M0.0 -0.0 -12.0 -8.0C30.0 -46.0 78.0 -114.0 88.0 -165.0C141.0 -206.0 179.0 -87.0 0.0 0.0ZM0.0 444.0C26.0 447.0 34.0 459.0 36.0 473.0L-50.0 482.0C-50.0 168.0 -46.0 -169.0 -399.0 -414.0L-383.0 -431.0C-5.0 -192.0 -6.0 153.0 0.0 444.0ZM-247.0 416.0 -259.0 407.0C-217.0 369.0 -168.0 302.0 -159.0 249.0C-107.0 210.0 -68.0 330.0 -247.0 416.0ZM245.0 187.0H-296.0L-287.0 157.0H245.0ZM201.0 187.0H212.0C205.0 -95.0 188.0 -309.0 153.0 -344.0C143.0 -354.0 135.0 -357.0 113.0 -357.0C92.0 -357.0 11.0 -349.0 -35.0 -344.0L-36.0 -364.0C3.0 -369.0 51.0 -378.0 66.0 -386.0C80.0 -394.0 85.0 -409.0 85.0 -422.0C124.0 -424.0 162.0 -409.0 186.0 -381.0C229.0 -332.0 248.0 -126.0 256.0 154.0C277.0 155.0 289.0 160.0 296.0 168.0L232.0 221.0Z"/></g>
<g fill="green" transform="translate(200 100) scale(0.1 -0.1)"><path d="M0.0 0.0 -8.0 -4.0C14.0 -50.0 31.0 -115.0 27.0 -174.0C134.0 -279.0 279.0 -70.0 0.0 0.0ZM75.0 424.0C102.0 428.0 109.0 438.0 112.0 452.0L-75.0 470.0C-76.0 186.0 -69.0 -157.0 -362.0 -463.0L-351.0 -476.0C62.0 -226.0 67.0 141.0 75.0 424.0ZM-261.0 397.0 -269.0 393.0C-245.0 345.0 -226.0 278.0 -230.0 217.0C-122.0 113.0 21.0 326.0 -261.0 397.0ZM236.0 161.0H-279.0L-270.0 133.0H236.0ZM161.0 161.0H173.0C166.0 -139.0 155.0 -306.0 121.0 -335.0C112.0 -343.0 103.0 -346.0 86.0 -346.0C60.0 -346.0 -10.0 -343.0 -59.0 -339.0L-58.0 -350.0C-8.0 -361.0 29.0 -378.0 49.0 -399.0C67.0 -417.0 72.0 -445.0 72.0 -486.0C147.0 -486.0 193.0 -475.0 230.0 -440.0C288.0 -387.0 303.0 -245.0 312.0 108.0C335.0 111.0 348.0 118.0 356.0 129.0L236.0 234.0Z"/></g>
<g fill="green" transform="translate(300 100) scale(0.1 -0.1)"><path d="M0.0 0.0 -12.0 -8.0C29.0 -45.0 76.0 -111.0 86.0 -160.0C138.0 -200.0 175.0 -84.0 0.0 0.0ZM0.0 433.0C26.0 436.0 33.0 448.0 35.0 461.0L-49.0 470.0C-49.0 164.0 -45.0 -164.0 -390.0 -403.0L-374.0 -420.0C-5.0 -187.0 -6.0 149.0 0.0 433.0ZM-241.0 406.0 -252.0 397.0C-211.0 360.0 -163.0 295.0 -155.0 243.0C-104.0 205.0 -66.0 322.0 -241.0 406.0ZM239.0 183.0H-288.0L-280.0 153.0H239.0ZM196.0 183.0H207.0C200.0 -92.0 183.0 -301.0 149.0 -335.0C139.0 -345.0 132.0 -348.0 110.0 -348.0C90.0 -348.0 11.0 -340.0 -34.0 -335.0L-35.0 -355.0C3.0 -359.0 50.0 -368.0 64.0 -376.0C78.0 -384.0 83.0 -398.0 83.0 -411.0C121.0 -413.0 158.0 -398.0 181.0 -371.0C223.0 -323.0 242.0 -123.0 249.0 150.0C270.0 151.0 282.0 156.0 288.0 164.0L226.0 216.0Z"/></g>
<g fill="green" transform="translate(400 100) scale(0.1 -0.1)"><path d="M0.0 0.0 -8.0 -4.0C14.0 -49.0 30.0 -112.0 26.0 -170.0C131.0 -272.0 272.0 -68.0 0.0 0.0ZM73.0 413.0C99.0 417.0 106.0 427.0 109.0 441.0L-73.0 458.0C-74.0 181.0 -67.0 -153.0 -354.0 -451.0L-343.0 -464.0C60.0 -220.0 65.0 137.0 73.0 413.0ZM-255.0 387.0 -263.0 383.0C-239.0 336.0 -221.0 271.0 -224.0 211.0C-119.0 110.0 20.0 318.0 -255.0 387.0ZM230.0 157.0H-272.0L-263.0 130.0H230.0ZM157.0 157.0H169.0C162.0 -136.0 151.0 -298.0 118.0 -327.0C109.0 -335.0 100.0 -337.0 84.0 -337.0C58.0 -337.0 -10.0 -335.0 -58.0 -331.0L-57.0 -341.0C-8.0 -352.0 28.0 -369.0 48.0 -389.0C65.0 -407.0 70.0 -434.0 70.0 -474.0C143.0 -474.0 188.0 -463.0 224.0 -429.0C281.0 -377.0 295.0 -239.0 304.0 105.0C326.0 108.0 339.0 115.0 347.0 126.0L230.0 228.0Z"/></g>
<g fill="green" transform="translate(500 100) scale(0.1 -0.1)"><path d="M0.0 0.0 -12.0 -7.0C29.0 -50.0 77.0 -125.0 84.0 -181.0C137.0 -223.0 177.0 -101.0 0.0 0.0ZM-9.0 413.0C16.0 416.0 24.0 428.0 26.0 442.0L-57.0 451.0C-58.0 144.0 -53.0 -188.0 -348.0 -427.0L-332.0 -444.0C-12.0 -209.0 -14.0 130.0 -9.0 413.0ZM-262.0 380.0 -274.0 372.0C-237.0 334.0 -197.0 272.0 -191.0 220.0C-142.0 181.0 -98.0 296.0 -262.0 380.0ZM243.0 162.0H-316.0L-307.0 133.0H243.0ZM217.0 162.0H228.0C221.0 -117.0 204.0 -330.0 170.0 -365.0C160.0 -374.0 152.0 -378.0 130.0 -378.0C110.0 -378.0 31.0 -370.0 -14.0 -365.0L-16.0 -385.0C22.0 -390.0 69.0 -398.0 84.0 -405.0C98.0 -414.0 103.0 -429.0 103.0 -441.0C142.0 -442.0 178.0 -429.0 203.0 -399.0C245.0 -352.0 263.0 -148.0 271.0 130.0C292.0 131.0 304.0 136.0 311.0 144.0L248.0 197.0Z"/></g>
<g fill="green" transform="translate(600 100) scale(0.1 -0.1)"><path d="M0.0 0.0 -7.0 -3.0C15.0 -49.0 30.0 -113.0 26.0 -170.0C134.0 -276.0 281.0 -67.0 0.0 0.0ZM68.0 420.0C94.0 424.0 101.0 434.0 104.0 448.0L-82.0 465.0C-83.0 183.0 -75.0 -155.0 -351.0 -459.0L-339.0 -471.0C57.0 -223.0 60.0 139.0 68.0 420.0ZM-267.0 379.0 -275.0 375.0C-254.0 330.0 -240.0 267.0 -247.0 210.0C-142.0 102.0 10.0 308.0 -267.0 379.0ZM241.0 152.0H-307.0L-299.0 125.0H241.0ZM177.0 152.0H189.0C182.0 -140.0 171.0 -303.0 138.0 -331.0C130.0 -339.0 121.0 -343.0 104.0 -343.0C79.0 -343.0 10.0 -339.0 -38.0 -335.0V-345.0C12.0 -357.0 48.0 -373.0 68.0 -393.0C85.0 -410.0 90.0 -434.0 90.0 -471.0C166.0 -471.0 212.0 -464.0 248.0 -430.0C304.0 -378.0 318.0 -245.0 327.0 99.0C349.0 103.0 362.0 110.0 370.0 120.0L252.0 224.0Z"/></g>
<g fill="green" transform="translate(700 100) scale(0.1 -0.1)"><path d="M0.0 -0.0 -13.0 -8.0C28.0 -51.0 74.0 -126.0 81.0 -183.0C134.0 -227.0 177.0 -102.0 0.0 0.0ZM-6.0 448.0C21.0 452.0 29.0 464.0 31.0 478.0L-56.0 487.0C-56.0 169.0 -51.0 -175.0 -374.0 -424.0L-356.0 -441.0C-9.0 -197.0 -11.0 154.0 -6.0 448.0ZM-246.0 414.0 -259.0 405.0C-216.0 366.0 -168.0 294.0 -160.0 240.0C-107.0 199.0 -66.0 321.0 -246.0 414.0ZM233.0 186.0H-301.0L-292.0 156.0H233.0ZM196.0 186.0H207.0C200.0 -99.0 182.0 -317.0 148.0 -351.0C137.0 -362.0 128.0 -365.0 106.0 -365.0C85.0 -365.0 3.0 -356.0 -43.0 -351.0L-45.0 -372.0C-6.0 -377.0 43.0 -386.0 59.0 -395.0C74.0 -402.0 79.0 -417.0 79.0 -431.0C118.0 -432.0 157.0 -417.0 181.0 -390.0C224.0 -339.0 244.0 -131.0 252.0 153.0C273.0 154.0 285.0 159.0 292.0 167.0L227.0 220.0Z"/></g>
<g fill="green" transform="translate(800 100) scale(0.1 -0.1)"><path d="M0.0 0.0 -9.0 -5.0C15.0 -51.0 32.0 -117.0 27.0 -177.0C135.0 -282.0 282.0 -72.0 0.0 0.0ZM85.0 429.0C112.0 433.0 119.0 443.0 122.0 459.0L-66.0 476.0C-67.0 186.0 -60.0 -163.0 -326.0 -476.0L-315.0 -488.0C74.0 -232.0 78.0 141.0 85.0 429.0ZM-234.0 406.0 -243.0 401.0C-220.0 355.0 -203.0 289.0 -206.0 229.0C-100.0 125.0 46.0 334.0 -234.0 406.0ZM238.0 165.0H-255.0L-245.0 137.0H238.0ZM159.0 165.0H171.0C164.0 -134.0 153.0 -301.0 119.0 -330.0C110.0 -338.0 101.0 -343.0 84.0 -343.0C57.0 -343.0 -14.0 -338.0 -63.0 -334.0L-62.0 -346.0C-12.0 -357.0 26.0 -374.0 46.0 -395.0C64.0 -414.0 70.0 -444.0 70.0 -486.0C145.0 -486.0 191.0 -473.0 229.0 -439.0C288.0 -385.0 303.0 -241.0 311.0 112.0C334.0 114.0 347.0 121.0 356.0 132.0L234.0 239.0Z"/></g>
<g fill="red" transform="translate(100 200) scale(0.1 -0.1)"><path d="M0.0 0.0 -13.0 -7.0C28.0 -54.0 75.0 -134.0 79.0 -195.0C131.0 -239.0 176.0 -111.0 0.0 0.0ZM-13.0 417.0C12.0 420.0 20.0 431.0 22.0 445.0L-62.0 454.0C-63.0 145.0 -57.0 -192.0 -329.0 -434.0L-313.0 -451.0C-15.0 -213.0 -18.0 130.0 -13.0 417.0ZM-261.0 378.0 -274.0 371.0C-237.0 332.0 -197.0 266.0 -192.0 214.0C-142.0 173.0 -97.0 289.0 -261.0 378.0ZM234.0 162.0H-319.0L-310.0 132.0H234.0ZM214.0 162.0H225.0C218.0 -121.0 200.0 -336.0 166.0 -370.0C155.0 -380.0 147.0 -383.0 125.0 -383.0C104.0 -383.0 25.0 -375.0 -21.0 -370.0L-23.0 -390.0C16.0 -395.0 64.0 -404.0 80.0 -412.0C94.0 -420.0 98.0 -435.0 98.0 -448.0C137.0 -448.0 175.0 -435.0 199.0 -406.0C241.0 -357.0 260.0 -151.0 268.0 129.0C289.0 130.0 301.0 135.0 308.0 143.0L244.0 196.0Z"/></g>
<g fill="black" opacity=".8" transform="translate(100 200) scale(0.1 -0.1)"><path d="M0.0 0.0 -13.0 -7.0C28.0 -54.0 74.0 -134.0 79.0 -194.0C132.0 -238.0 176.0 -112.0 0.0 0.0ZM-13.0 416.0C12.0 420.0 20.0 432.0 22.0 446.0L-61.0 455.0C-62.0 145.0 -57.0 -192.0 -330.0 -434.0L-312.0 -451.0C-15.0 -213.0 -18.0 131.0 -13.0 416.0ZM-261.0 379.0 -274.0 371.0C-236.0 332.0 -197.0 266.0 -192.0 213.0C-142.0 173.0 -97.0 289.0 -261.0 379.0ZM234.0 161.0H-320.0L-311.0 132.0H234.0ZM213.0 161.0H224.0C217.0 -120.0 200.0 -336.0 166.0 -370.0C156.0 -380.0 147.0 -384.0 125.0 -384.0C105.0 -384.0 25.0 -375.0 -20.0 -370.0L-23.0 -391.0C15.0 -396.0 63.0 -404.0 79.0 -412.0C94.0 -420.0 99.0 -435.0 99.0 -448.0C138.0 -448.0 174.0 -435.0 199.0 -406.0C241.0 -357.0 260.0 -152.0 268.0 129.0C289.0 130.0 301.0 135.0 308.0 143.0L244.0 196.0Z"/></g>
<g fill="red" transform="translate(200 200) scale(0.1 -0.1)"><path d="M0.0 0.0 -8.0 -4.0C15.0 -50.0 31.0 -114.0 27.0 -173.0C135.0 -278.0 283.0 -68.0 0.0 0.0ZM75.0 424.0C102.0 428.0 109.0 437.0 112.0 452.0L-76.0 469.0C-77.0 184.0 -68.0 -159.0 -325.0 -468.0L-313.0 -480.0C65.0 -228.0 68.0 139.0 75.0 424.0ZM-248.0 385.0 -256.0 381.0C-236.0 337.0 -223.0 275.0 -230.0 218.0C-126.0 111.0 28.0 314.0 -248.0 385.0ZM243.0 155.0H-290.0L-281.0 127.0H243.0ZM176.0 155.0H188.0C181.0 -137.0 170.0 -299.0 137.0 -328.0C128.0 -336.0 119.0 -340.0 102.0 -340.0C77.0 -340.0 7.0 -336.0 -40.0 -332.0L-41.0 -343.0C9.0 -354.0 46.0 -369.0 66.0 -390.0C84.0 -408.0 89.0 -433.0 89.0 -471.0C164.0 -471.0 210.0 -463.0 247.0 -429.0C303.0 -376.0 318.0 -242.0 326.0 102.0C349.0 106.0 362.0 113.0 370.0 122.0L250.0 228.0Z"/></g>
<g fill="black" opacity=".8" transform="translate(200 200) scale(0.1 -0.1)"><path d="M0.0 0.0 -8.0 -4.0C16.0 -50.0 31.0 -114.0 26.0 -172.0C135.0 -278.0 283.0 -68.0 0.0 0.0ZM75.0 424.0C101.0 428.0 108.0 438.0 111.0 453.0L-75.0 469.0C-76.0 183.0 -68.0 -159.0 -325.0 -468.0L-313.0 -480.0C66.0 -227.0 68.0 139.0 75.0 424.0ZM-247.0 386.0 -256.0 381.0C-236.0 337.0 -223.0 275.0 -230.0 219.0C-126.0 111.0 28.0 314.0 -247.0 386.0ZM242.0 155.0H-290.0L-281.0 128.0H242.0ZM176.0 155.0H188.0C181.0 -136.0 170.0 -299.0 137.0 -327.0C129.0 -335.0 120.0 -341.0 103.0 -341.0C77.0 -341.0 7.0 -335.0 -41.0 -331.0V-342.0C9.0 -354.0 46.0 -370.0 66.0 -390.0C83.0 -408.0 89.0 -433.0 89.0 -471.0C165.0 -471.0 211.0 -463.0 247.0 -429.0C304.0 -377.0 318.0 -242.0 326.0 102.0C348.0 105.0 361.0 112.0 370.0 122.0L251.0 228.0Z"/></g>
<g fill="red" transform="translate(300 200) scale(0.1 -0.1)"><path d="M0.0 0.0 -12.0 -8.0C30.0 -47.0 78.0 -117.0 87.0 -169.0C139.0 -210.0 178.0 -90.0 0.0 0.0ZM-2.0 435.0C23.0 438.0 31.0 449.0 33.0 463.0L-52.0 472.0C-52.0 161.0 -48.0 -173.0 -384.0 -416.0L-369.0 -433.0C-7.0 -196.0 -8.0 146.0 -2.0 435.0ZM-250.0 405.0 -262.0 397.0C-222.0 359.0 -175.0 293.0 -167.0 241.0C-116.0 202.0 -76.0 320.0 -250.0 405.0ZM244.0 180.0H-300.0L-291.0 150.0H244.0ZM205.0 180.0H216.0C209.0 -101.0 192.0 -314.0 157.0 -348.0C147.0 -358.0 139.0 -361.0 117.0 -361.0C96.0 -361.0 16.0 -353.0 -30.0 -348.0L-31.0 -368.0C8.0 -373.0 56.0 -382.0 71.0 -390.0C85.0 -398.0 89.0 -413.0 89.0 -426.0C128.0 -427.0 166.0 -413.0 190.0 -385.0C232.0 -336.0 251.0 -131.0 259.0 147.0C280.0 148.0 292.0 153.0 299.0 161.0L235.0 214.0Z"/></g>
<g fill="black" opacity=".8" transform="translate(300 200) scale(0.1 -0.1)"><path d="M0.0 0.0 -12.0 -8.0C30.0 -47.0 77.0 -117.0 87.0 -169.0C140.0 -210.0 178.0 -90.0 0.0 0.0ZM-2.0 434.0C23.0 437.0 31.0 449.0 33.0 463.0L-52.0 472.0C-52.0 161.0 -48.0 -173.0 -384.0 -416.0L-368.0 -433.0C-7.0 -196.0 -8.0 146.0 -2.0 434.0ZM-250.0 405.0 -262.0 397.0C-222.0 359.0 -175.0 293.0 -167.0 241.0C-116.0 202.0 -76.0 320.0 -250.0 405.0ZM244.0 180.0H-300.0L-291.0 150.0H244.0ZM205.0 180.0H216.0C209.0 -100.0 192.0 -314.0 157.0 -348.0C147.0 -358.0 139.0 -361.0 117.0 -361.0C96.0 -361.0 16.0 -353.0 -29.0 -348.0L-31.0 -368.0C8.0 -373.0 56.0 -382.0 70.0 -390.0C84.0 -398.0 89.0 -413.0 89.0 -426.0C128.0 -427.0 166.0 -413.0 190.0 -385.0C232.0 -336.0 251.0 -131.0 259.0 147.0C280.0 148.0 292.0 153.0 299.0 161.0L235.0 214.0Z"/></g>
<g fill="red" transform="translate(400 200) scale(0.1 -0.1)"><path d="M0.0 0.0 -8.0 -4.0C14.0 -50.0 31.0 -114.0 27.0 -173.0C134.0 -277.0 279.0 -69.0 0.0 0.0ZM73.0 422.0C100.0 426.0 107.0 435.0 110.0 449.0L-77.0 467.0C-78.0 185.0 -70.0 -156.0 -358.0 -460.0L-347.0 -473.0C60.0 -225.0 65.0 140.0 73.0 422.0ZM-262.0 391.0 -270.0 387.0C-247.0 340.0 -229.0 274.0 -234.0 214.0C-127.0 110.0 18.0 320.0 -262.0 391.0ZM237.0 158.0H-286.0L-277.0 130.0H237.0ZM165.0 158.0H177.0C170.0 -139.0 159.0 -304.0 125.0 -333.0C116.0 -341.0 107.0 -344.0 90.0 -344.0C65.0 -344.0 -5.0 -341.0 -53.0 -337.0V-348.0C-3.0 -359.0 34.0 -375.0 54.0 -396.0C72.0 -414.0 77.0 -441.0 77.0 -481.0C151.0 -481.0 197.0 -471.0 234.0 -436.0C291.0 -383.0 306.0 -244.0 315.0 105.0C338.0 109.0 351.0 116.0 359.0 126.0L239.0 231.0Z"/></g>
<g fill="black" opacity=".8" transform="translate(400 200) scale(0.1 -0.1)"><path d="M0.0 0.0 -8.0 -4.0C14.0 -50.0 31.0 -114.0 27.0 -172.0C134.0 -277.0 279.0 -69.0 0.0 0.0ZM73.0 422.0C100.0 426.0 107.0 436.0 110.0 450.0L-77.0 467.0C-78.0 185.0 -70.0 -156.0 -358.0 -460.0L-347.0 -473.0C60.0 -224.0 65.0 140.0 73.0 422.0ZM-262.0 391.0 -270.0 387.0C-247.0 340.0 -229.0 274.0 -234.0 214.0C-127.0 110.0 18.0 320.0 -262.0 391.0ZM237.0 158.0H-286.0L-277.0 131.0H237.0ZM165.0 158.0H177.0C170.0 -139.0 159.0 -304.0 125.0 -333.0C116.0 -341.0 107.0 -344.0 90.0 -344.0C65.0 -344.0 -5.0 -341.0 -53.0 -337.0V-348.0C-3.0 -359.0 34.0 -376.0 54.0 -396.0C71.0 -414.0 76.0 -441.0 76.0 -481.0C152.0 -481.0 197.0 -471.0 234.0 -436.0C291.0 -383.0 306.0 -244.0 315.0 105.0C338.0 109.0 351.0 116.0 359.0 126.0L239.0 231.0Z"/></g>
<g fill="red" transform="translate(500 200) scale(0.1 -0.1)"><path d="M0.0 0.0 -13.0 -8.0C28.0 -50.0 73.0 -123.0 79.0 -179.0C130.0 -222.0 173.0 -99.0 0.0 0.0ZM-5.0 438.0C20.0 441.0 28.0 452.0 30.0 466.0L-55.0 475.0C-55.0 165.0 -50.0 -170.0 -364.0 -413.0L-348.0 -430.0C-9.0 -192.0 -11.0 150.0 -5.0 438.0ZM-240.0 404.0 -252.0 396.0C-211.0 357.0 -164.0 287.0 -156.0 235.0C-104.0 194.0 -64.0 313.0 -240.0 404.0ZM227.0 182.0H-293.0L-284.0 152.0H227.0ZM191.0 182.0H202.0C195.0 -97.0 178.0 -309.0 144.0 -342.0C133.0 -353.0 125.0 -355.0 103.0 -355.0C82.0 -355.0 3.0 -347.0 -43.0 -342.0L-45.0 -362.0C-6.0 -367.0 42.0 -376.0 58.0 -385.0C72.0 -392.0 76.0 -407.0 76.0 -420.0C114.0 -421.0 153.0 -407.0 176.0 -380.0C218.0 -330.0 238.0 -127.0 245.0 149.0C266.0 150.0 278.0 155.0 285.0 163.0L221.0 215.0Z"/></g>
<g fill="black" opacity=".8" transform="translate(500 200) scale(0.1 -0.1)"><path d="M0.0 0.0 -13.0 -8.0C27.0 -50.0 72.0 -123.0 79.0 -178.0C131.0 -221.0 173.0 -99.0 0.0 0.0ZM-6.0 437.0C21.0 441.0 28.0 453.0 30.0 466.0L-55.0 475.0C-55.0 165.0 -50.0 -170.0 -365.0 -413.0L-347.0 -430.0C-9.0 -192.0 -11.0 150.0 -6.0 437.0ZM-240.0 404.0 -252.0 395.0C-210.0 357.0 -163.0 287.0 -156.0 234.0C-104.0 194.0 -64.0 313.0 -240.0 404.0ZM227.0 182.0H-293.0L-285.0 152.0H227.0ZM191.0 182.0H202.0C195.0 -96.0 177.0 -309.0 144.0 -342.0C133.0 -353.0 125.0 -356.0 103.0 -356.0C83.0 -356.0 3.0 -347.0 -42.0 -342.0L-44.0 -363.0C-6.0 -367.0 42.0 -376.0 57.0 -385.0C72.0 -392.0 77.0 -406.0 77.0 -420.0C115.0 -421.0 153.0 -406.0 176.0 -380.0C218.0 -330.0 238.0 -128.0 245.0 149.0C266.0 150.0 278.0 155.0 284.0 163.0L221.0 215.0Z"/></g>
<g fill="red" transform="translate(600 200) scale(0.1 -0.1)"><path d="M0.0 0.0 -9.0 -5.0C14.0 -50.0 31.0 -114.0 27.0 -173.0C132.0 -275.0 275.0 -70.0 0.0 0.0ZM83.0 419.0C110.0 423.0 117.0 432.0 120.0 447.0L-65.0 464.0C-66.0 182.0 -58.0 -159.0 -318.0 -464.0L-307.0 -476.0C72.0 -227.0 76.0 138.0 83.0 419.0ZM-228.0 396.0 -237.0 391.0C-214.0 346.0 -197.0 282.0 -201.0 223.0C-97.0 122.0 45.0 326.0 -228.0 396.0ZM232.0 161.0H-248.0L-239.0 133.0H232.0ZM155.0 161.0H167.0C160.0 -131.0 149.0 -293.0 116.0 -322.0C107.0 -330.0 98.0 -334.0 81.0 -334.0C56.0 -334.0 -14.0 -330.0 -61.0 -326.0V-338.0C-12.0 -348.0 25.0 -364.0 45.0 -385.0C63.0 -404.0 68.0 -433.0 68.0 -474.0C141.0 -474.0 186.0 -462.0 223.0 -428.0C280.0 -375.0 295.0 -235.0 303.0 109.0C326.0 112.0 339.0 119.0 347.0 129.0L228.0 233.0Z"/></g>
<g fill="black" opacity=".8" transform="translate(600 200) scale(0.1 -0.1)"><path d="M0.0 0.0 -9.0 -5.0C15.0 -50.0 31.0 -114.0 26.0 -173.0C132.0 -275.0 275.0 -70.0 0.0 0.0ZM83.0 418.0C109.0 422.0 116.0 432.0 119.0 448.0L-64.0 464.0C-65.0 181.0 -58.0 -159.0 -318.0 -464.0L-307.0 -476.0C72.0 -226.0 76.0 137.0 83.0 418.0ZM-228.0 396.0 -237.0 391.0C-214.0 346.0 -198.0 282.0 -200.0 223.0C-97.0 122.0 45.0 326.0 -228.0 396.0ZM232.0 161.0H-248.0L-238.0 134.0H232.0ZM155.0 161.0H167.0C160.0 -131.0 149.0 -293.0 116.0 -322.0C107.0 -330.0 98.0 -334.0 82.0 -334.0C55.0 -334.0 -14.0 -330.0 -62.0 -326.0L-61.0 -337.0C-12.0 -348.0 25.0 -365.0 45.0 -385.0C62.0 -404.0 68.0 -433.0 68.0 -474.0C141.0 -474.0 186.0 -461.0 223.0 -428.0C281.0 -375.0 295.0 -235.0 303.0 109.0C325.0 111.0 338.0 118.0 347.0 129.0L228.0 233.0Z"/></g>
</svg>
