<?xml version="1.0" encoding="UTF-8"?>
<svg width="1700" height="300" xmlns="http://www.w3.org/2000/svg">
<rect width="100%" height="100%" fill="white"/>
<g fill="green" transform="translate(100 100) scale(0.1 -0.1)"><path d="M0.0 0.0 9.0 -30.0H378.0V0.0ZM335.0 0.0V-16.0C369.0 -359.0 438.0 -625.0 640.0 -786.0C649.0 -770.0 669.0 -756.0 691.0 -754.0L694.0 -744.0C481.0 -602.0 402.0 -324.0 366.0 -44.0C401.0 -42.0 426.0 -34.0 438.0 -20.0L347.0 48.0L313.0 0.0Z"/></g>
<g fill="green" transform="translate(200 100) scale(0.1 -0.1)"><path d="M0.0 0.0 9.0 -28.0H332.0V0.0ZM283.0 0.0V-16.0C311.0 -387.0 383.0 -646.0 574.0 -810.0C595.0 -750.0 648.0 -689.0 715.0 -668.0L720.0 -655.0C484.0 -546.0 361.0 -317.0 312.0 -49.0C363.0 -46.0 401.0 -35.0 417.0 -16.0L297.0 71.0L250.0 0.0Z"/></g>
<g fill="green" transform="translate(300 100) scale(0.1 -0.1)"><path d="M0.0 0.0 9.0 -30.0H378.0V0.0ZM335.0 0.0V-16.0C369.0 -359.0 438.0 -625.0 640.0 -786.0C649.0 -770.0 669.0 -756.0 691.0 -754.0L694.0 -744.0C481.0 -602.0 402.0 -324.0 366.0 -44.0C401.0 -42.0 426.0 -34.0 438.0 -20.0L347.0 48.0L313.0 0.0Z"/></g>
<g fill="green" transform="translate(400 100) scale(0.1 -0.1)"><path d="M0.0 0.0 9.0 -28.0H332.0V0.0ZM283.0 0.0V-16.0C311.0 -387.0 383.0 -646.0 574.0 -810.0C595.0 -750.0 648.0 -689.0 715.0 -668.0L720.0 -655.0C484.0 -546.0 361.0 -317.0 312.0 -49.0C363.0 -46.0 401.0 -35.0 417.0 -16.0L297.0 71.0L250.0 0.0Z"/></g>
<g fill="red" transform="translate(100 200) scale(0.1 -0.1)"><path d="M0.0 0.0 9.0 -30.0H378.0V0.0ZM335.0 0.0V-16.0C369.0 -359.0 438.0 -625.0 640.0 -786.0C649.0 -770.0 669.0 -756.0 691.0 -754.0L694.0 -744.0C481.0 -602.0 402.0 -324.0 366.0 -44.0C401.0 -42.0 426.0 -34.0 438.0 -20.0L347.0 48.0L313.0 0.0Z"/></g>
<g fill="black" opacity=".8" transform="translate(100 200) scale(0.1 -0.1)"><path d="M0.0 0.0 9.0 -30.0H378.0V0.0ZM335.0 0.0V-16.0C369.0 -359.0 438.0 -625.0 640.0 -786.0C649.0 -770.0 669.0 -756.0 691.0 -754.0L694.0 -744.0C481.0 -602.0 402.0 -324.0 366.0 -44.0C401.0 -42.0 426.0 -34.0 438.0 -20.0L347.0 48.0L313.0 0.0Z"/></g>
<g fill="red" transform="translate(200 200) scale(0.1 -0.1)"><path d="M0.0 0.0 9.0 -28.0H332.0V0.0ZM283.0 0.0V-16.0C311.0 -387.0 383.0 -646.0 574.0 -810.0C595.0 -750.0 648.0 -689.0 715.0 -668.0L720.0 -655.0C484.0 -546.0 361.0 -317.0 312.0 -49.0C363.0 -46.0 401.0 -35.0 417.0 -16.0L297.0 71.0L250.0 0.0Z"/></g>
<g fill="black" opacity=".8" transform="translate(200 200) scale(0.1 -0.1)"><path d="M0.0 0.0 9.0 -28.0H332.0V0.0ZM283.0 0.0V-16.0C311.0 -387.0 383.0 -646.0 574.0 -810.0C595.0 -750.0 648.0 -689.0 715.0 -668.0L720.0 -655.0C484.0 -546.0 361.0 -317.0 312.0 -49.0C363.0 -46.0 401.0 -35.0 417.0 -16.0L297.0 71.0L250.0 0.0Z"/></g>
</svg>
