<?xml version="1.0" encoding="UTF-8"?>
<svg width="1700" height="1400" xmlns="http://www.w3.org/2000/svg">
<rect width="100%" height="100%" fill="white"/>
<g fill="green" transform="translate(100 100) scale(0.1 -0.1)"><path d="M-0.0 -0.0 -39.0 -49.0H-220.0L-211.0 -82.0H44.0C59.0 -82.0 69.0 -77.0 72.0 -64.0C44.0 -35.0 0.0 0.0 0.0 0.0Z"/></g>
<g fill="green" transform="translate(200 100) scale(0.1 -0.1)"><path d="M0.0 0.0 -48.0 -92.0H-228.0L-218.0 -124.0H53.0C67.0 -124.0 78.0 -118.0 81.0 -106.0C55.0 -65.0 0.0 0.0 0.0 0.0Z"/></g>
<g fill="green" transform="translate(300 100) scale(0.1 -0.1)"><path d="M0.0 -0.0 -77.0 -96.0H-767.0L-751.0 -157.0H91.0C119.0 -157.0 138.0 -148.0 144.0 -124.0C88.0 -69.0 0.0 0.0 0.0 0.0Z"/></g>
<g fill="green" transform="translate(400 100) scale(0.1 -0.1)"><path d="M0.0 0.0 -113.0 -180.0H-751.0L-734.0 -238.0H143.0C171.0 -238.0 192.0 -227.0 198.0 -205.0C129.0 -124.0 0.0 0.0 0.0 0.0Z"/></g>
<g fill="green" transform="translate(500 100) scale(0.1 -0.1)"><path d="M0.0 -0.0 -1.0 -2.0H-277.0L-273.0 -6.0H-1.0C1.0 -6.0 1.0 -6.0 2.0 -3.0C1.0 -1.0 0.0 0.0 0.0 0.0Z"/></g>
<g fill="green" transform="translate(600 100) scale(0.1 -0.1)"><path d="M0.0 0.0 11.0 -9.0H-332.0L-329.0 -13.0H-25.0C-24.0 -13.0 -24.0 -12.0 -23.0 -11.0C-11.0 -8.0 0.0 0.0 0.0 0.0Z"/></g>
<g fill="green" transform="translate(700 100) scale(0.1 -0.1)"><path d="M0.0 -0.0 -36.0 -45.0H-265.0L-259.0 -74.0H41.0C55.0 -74.0 64.0 -70.0 67.0 -58.0C41.0 -32.0 0.0 0.0 0.0 0.0Z"/></g>
<g fill="green" transform="translate(800 100) scale(0.1 -0.1)"><path d="M0.0 0.0 -51.0 -90.0H-181.0L-174.0 -119.0H62.0C75.0 -119.0 85.0 -113.0 88.0 -103.0C59.0 -63.0 0.0 0.0 0.0 0.0Z"/></g>
<g fill="green" transform="translate(900 100) scale(0.1 -0.1)"><path d="M0.0 0.0 -30.0 -38.0H-207.0L-198.0 -61.0H35.0C46.0 -61.0 53.0 -58.0 55.0 -48.0C34.0 -27.0 0.0 0.0 0.0 0.0Z"/></g>
<g fill="green" transform="translate(1000 100) scale(0.1 -0.1)"><path d="M0.0 0.0 -62.0 -99.0H-239.0L-229.0 -122.0H85.0C96.0 -122.0 106.0 -117.0 109.0 -109.0C71.0 -67.0 0.0 0.0 0.0 0.0Z"/></g>
<g fill="green" transform="translate(1100 100) scale(0.1 -0.1)"><path d="M0.0 0.0 -45.0 -56.0H-216.0L-210.0 -91.0H55.0C71.0 -91.0 82.0 -86.0 85.0 -72.0C52.0 -40.0 0.0 0.0 0.0 0.0Z"/></g>
<g fill="green" transform="translate(1200 100) scale(0.1 -0.1)"><path d="M0.0 0.0 -54.0 -72.0H-229.0L-221.0 -105.0H67.0C83.0 -105.0 94.0 -99.0 97.0 -86.0C61.0 -51.0 0.0 0.0 0.0 0.0Z"/></g>
<g fill="red" transform="translate(100 200) scale(0.1 -0.1)"><path d="M0.0 0.0 -46.0 -57.0H-726.0L-717.0 -87.0H60.0C74.0 -87.0 84.0 -82.0 86.0 -71.0C53.0 -40.0 0.0 0.0 0.0 0.0Z"/></g>
<g fill="black" opacity=".8" transform="translate(100 200) scale(0.1 -0.1)"><path d="M0.0 0.0 -45.0 -56.0H-725.0L-717.0 -88.0H57.0C73.0 -88.0 83.0 -84.0 86.0 -70.0C53.0 -40.0 0.0 0.0 0.0 0.0Z"/></g>
<g fill="red" transform="translate(200 200) scale(0.1 -0.1)"><path d="M0.0 0.0 -81.0 -103.0H-700.0L-692.0 -131.0H117.0C132.0 -131.0 144.0 -126.0 147.0 -115.0C92.0 -69.0 0.0 0.0 0.0 0.0Z"/></g>
<g fill="black" opacity=".8" transform="translate(200 200) scale(0.1 -0.1)"><path d="M0.0 0.0 -81.0 -101.0H-700.0L-692.0 -132.0H116.0C133.0 -132.0 144.0 -125.0 148.0 -114.0C93.0 -68.0 0.0 0.0 0.0 0.0Z"/></g>
<g fill="red" transform="translate(300 200) scale(0.1 -0.1)"><path d="M0.0 0.0 -46.0 -56.0H-550.0L-542.0 -86.0H59.0C73.0 -86.0 83.0 -81.0 84.0 -70.0C52.0 -40.0 0.0 0.0 0.0 0.0Z"/></g>
<g fill="black" opacity=".8" transform="translate(300 200) scale(0.1 -0.1)"><path d="M0.0 0.0 -44.0 -55.0H-549.0L-542.0 -87.0H56.0C71.0 -87.0 81.0 -83.0 84.0 -69.0C52.0 -39.0 0.0 0.0 0.0 0.0Z"/></g>
<g fill="red" transform="translate(400 200) scale(0.1 -0.1)"><path d="M0.0 0.0 -79.0 -99.0H-567.0L-559.0 -127.0H112.0C127.0 -127.0 139.0 -122.0 142.0 -111.0C88.0 -66.0 0.0 0.0 0.0 0.0Z"/></g>
<g fill="black" opacity=".8" transform="translate(400 200) scale(0.1 -0.1)"><path d="M0.0 0.0 -78.0 -97.0H-567.0L-558.0 -127.0H111.0C127.0 -127.0 139.0 -121.0 143.0 -110.0C89.0 -66.0 0.0 0.0 0.0 0.0Z"/></g>
<g fill="red" transform="translate(500 200) scale(0.1 -0.1)"><path d="M0.0 0.0 -49.0 -61.0H-830.0L-821.0 -91.0H64.0C78.0 -91.0 87.0 -86.0 90.0 -75.0C56.0 -43.0 0.0 0.0 0.0 0.0Z"/></g>
<g fill="black" opacity=".8" transform="translate(500 200) scale(0.1 -0.1)"><path d="M0.0 0.0 -47.0 -59.0H-829.0L-821.0 -92.0H60.0C77.0 -92.0 87.0 -88.0 91.0 -73.0C56.0 -42.0 0.0 0.0 0.0 0.0Z"/></g>
<g fill="red" transform="translate(600 200) scale(0.1 -0.1)"><path d="M0.0 0.0 -83.0 -105.0H-805.0L-797.0 -133.0H119.0C134.0 -133.0 146.0 -128.0 149.0 -117.0C93.0 -70.0 0.0 0.0 0.0 0.0Z"/></g>
<g fill="black" opacity=".8" transform="translate(600 200) scale(0.1 -0.1)"><path d="M0.0 0.0 -82.0 -103.0H-805.0L-797.0 -134.0H117.0C135.0 -134.0 146.0 -127.0 151.0 -116.0C94.0 -69.0 0.0 0.0 0.0 0.0Z"/></g>
<g fill="red" transform="translate(700 200) scale(0.1 -0.1)"><path d="M0.0 0.0 -42.0 -53.0H-842.0L-833.0 -83.0H56.0C69.0 -83.0 78.0 -78.0 81.0 -67.0C51.0 -38.0 0.0 0.0 0.0 0.0Z"/></g>
<g fill="black" opacity=".8" transform="translate(700 200) scale(0.1 -0.1)"><path d="M0.0 0.0 -42.0 -53.0H-841.0L-832.0 -84.0H52.0C67.0 -84.0 77.0 -81.0 81.0 -66.0C49.0 -38.0 0.0 0.0 0.0 0.0Z"/></g>
<g fill="red" transform="translate(800 200) scale(0.1 -0.1)"><path d="M0.0 0.0 -78.0 -116.0H-796.0L-788.0 -144.0H110.0C125.0 -144.0 137.0 -139.0 140.0 -128.0C90.0 -78.0 0.0 0.0 0.0 0.0Z"/></g>
<g fill="black" opacity=".8" transform="translate(800 200) scale(0.1 -0.1)"><path d="M0.0 0.0 -79.0 -115.0H-796.0L-787.0 -145.0H109.0C126.0 -145.0 137.0 -138.0 141.0 -128.0C91.0 -77.0 0.0 0.0 0.0 0.0Z"/></g>
<g fill="red" transform="translate(900 200) scale(0.1 -0.1)"><path d="M0.0 0.0 -52.0 -61.0H-819.0L-810.0 -91.0H69.0C82.0 -91.0 92.0 -86.0 95.0 -75.0C59.0 -43.0 0.0 0.0 0.0 0.0Z"/></g>
<g fill="black" opacity=".8" transform="translate(900 200) scale(0.1 -0.1)"><path d="M0.0 0.0 -48.0 -60.0H-817.0L-810.0 -94.0H62.0C78.0 -94.0 89.0 -90.0 93.0 -75.0C57.0 -43.0 0.0 0.0 0.0 0.0Z"/></g>
<g fill="red" transform="translate(1000 200) scale(0.1 -0.1)"><path d="M0.0 0.0 -81.0 -100.0H-789.0L-781.0 -128.0H117.0C132.0 -128.0 143.0 -123.0 146.0 -112.0C91.0 -66.0 0.0 0.0 0.0 0.0Z"/></g>
<g fill="black" opacity=".8" transform="translate(1000 200) scale(0.1 -0.1)"><path d="M0.0 0.0 -81.0 -97.0H-788.0L-781.0 -129.0H115.0C133.0 -129.0 144.0 -122.0 149.0 -111.0C93.0 -65.0 0.0 0.0 0.0 0.0Z"/></g>
<g fill="red" transform="translate(1100 200) scale(0.1 -0.1)"><path d="M0.0 0.0 -40.0 -49.0H-623.0L-615.0 -79.0H49.0C63.0 -79.0 72.0 -74.0 75.0 -63.0C46.0 -35.0 0.0 0.0 0.0 0.0Z"/></g>
<g fill="black" opacity=".8" transform="translate(1100 200) scale(0.1 -0.1)"><path d="M0.0 0.0 -40.0 -49.0H-621.0L-615.0 -78.0H49.0C64.0 -78.0 72.0 -75.0 76.0 -62.0C46.0 -35.0 0.0 0.0 0.0 0.0Z"/></g>
<g fill="red" transform="translate(1200 200) scale(0.1 -0.1)"><path d="M0.0 0.0 -67.0 -90.0H-570.0L-562.0 -118.0H93.0C108.0 -118.0 119.0 -113.0 122.0 -102.0C76.0 -61.0 0.0 0.0 0.0 0.0Z"/></g>
<g fill="black" opacity=".8" transform="translate(1200 200) scale(0.1 -0.1)"><path d="M0.0 0.0 -67.0 -90.0H-569.0L-562.0 -118.0H93.0C108.0 -118.0 118.0 -112.0 122.0 -102.0C77.0 -61.0 0.0 0.0 0.0 0.0Z"/></g>
<g fill="red" transform="translate(1300 200) scale(0.1 -0.1)"><path d="M0.0 0.0 -42.0 -54.0H-768.0L-759.0 -84.0H53.0C66.0 -84.0 76.0 -79.0 79.0 -68.0C49.0 -39.0 0.0 0.0 0.0 0.0Z"/></g>
<g fill="black" opacity=".8" transform="translate(1300 200) scale(0.1 -0.1)"><path d="M0.0 0.0 -42.0 -53.0H-766.0L-759.0 -82.0H54.0C69.0 -82.0 78.0 -79.0 81.0 -66.0C50.0 -38.0 0.0 0.0 0.0 0.0Z"/></g>
<g fill="red" transform="translate(1400 200) scale(0.1 -0.1)"><path d="M0.0 0.0 -79.0 -101.0H-717.0L-709.0 -129.0H113.0C128.0 -129.0 140.0 -124.0 143.0 -113.0C89.0 -67.0 0.0 0.0 0.0 0.0Z"/></g>
<g fill="black" opacity=".8" transform="translate(1400 200) scale(0.1 -0.1)"><path d="M0.0 0.0 -78.0 -101.0H-716.0L-709.0 -129.0H112.0C128.0 -129.0 139.0 -123.0 143.0 -113.0C90.0 -67.0 0.0 0.0 0.0 0.0Z"/></g>
<g fill="red" transform="translate(1500 200) scale(0.1 -0.1)"><path d="M0.0 0.0 -46.0 -59.0H-832.0L-823.0 -89.0H59.0C72.0 -89.0 82.0 -84.0 85.0 -73.0C53.0 -42.0 0.0 0.0 0.0 0.0Z"/></g>
<g fill="black" opacity=".8" transform="translate(1500 200) scale(0.1 -0.1)"><path d="M0.0 0.0 -45.0 -56.0H-831.0L-822.0 -90.0H56.0C72.0 -90.0 82.0 -86.0 86.0 -71.0C53.0 -40.0 0.0 0.0 0.0 0.0Z"/></g>
<g fill="red" transform="translate(1600 200) scale(0.1 -0.1)"><path d="M0.0 0.0 -80.0 -113.0H-802.0L-794.0 -141.0H111.0C126.0 -141.0 138.0 -136.0 141.0 -125.0C89.0 -76.0 0.0 0.0 0.0 0.0Z"/></g>
<g fill="black" opacity=".8" transform="translate(1600 200) scale(0.1 -0.1)"><path d="M0.0 0.0 -79.0 -111.0H-802.0L-793.0 -142.0H109.0C127.0 -142.0 138.0 -135.0 143.0 -124.0C91.0 -75.0 0.0 0.0 0.0 0.0Z"/></g>
<g fill="red" transform="translate(100 300) scale(0.1 -0.1)"><path d="M0.0 0.0 -41.0 -50.0H-550.0L-542.0 -80.0H50.0C64.0 -80.0 73.0 -75.0 76.0 -64.0C46.0 -36.0 0.0 0.0 0.0 0.0Z"/></g>
<g fill="black" opacity=".8" transform="translate(100 300) scale(0.1 -0.1)"><path d="M0.0 0.0 -40.0 -50.0H-548.0L-542.0 -79.0H50.0C64.0 -79.0 74.0 -76.0 77.0 -63.0C47.0 -36.0 0.0 0.0 0.0 0.0Z"/></g>
<g fill="red" transform="translate(200 300) scale(0.1 -0.1)"><path d="M0.0 0.0 -71.0 -95.0H-494.0L-486.0 -123.0H100.0C115.0 -123.0 126.0 -118.0 129.0 -107.0C81.0 -64.0 0.0 0.0 0.0 0.0Z"/></g>
<g fill="black" opacity=".8" transform="translate(200 300) scale(0.1 -0.1)"><path d="M0.0 0.0 -71.0 -95.0H-493.0L-486.0 -123.0H100.0C115.0 -123.0 125.0 -117.0 129.0 -107.0C82.0 -64.0 0.0 0.0 0.0 0.0Z"/></g>
<g fill="red" transform="translate(300 300) scale(0.1 -0.1)"><path d="M0.0 0.0 -38.0 -47.0H-566.0L-558.0 -77.0H46.0C60.0 -77.0 68.0 -72.0 71.0 -61.0C44.0 -34.0 0.0 0.0 0.0 0.0Z"/></g>
<g fill="black" opacity=".8" transform="translate(300 300) scale(0.1 -0.1)"><path d="M0.0 0.0 -38.0 -48.0H-565.0L-558.0 -75.0H47.0C61.0 -75.0 69.0 -72.0 73.0 -60.0C45.0 -34.0 0.0 0.0 0.0 0.0Z"/></g>
<g fill="red" transform="translate(400 300) scale(0.1 -0.1)"><path d="M0.0 0.0 -71.0 -97.0H-517.0L-509.0 -125.0H97.0C112.0 -125.0 123.0 -120.0 125.0 -109.0C79.0 -65.0 0.0 0.0 0.0 0.0Z"/></g>
<g fill="black" opacity=".8" transform="translate(400 300) scale(0.1 -0.1)"><path d="M0.0 0.0 -70.0 -98.0H-516.0L-509.0 -125.0H97.0C112.0 -125.0 122.0 -119.0 126.0 -109.0C80.0 -66.0 0.0 0.0 0.0 0.0Z"/></g>
<g fill="red" transform="translate(500 300) scale(0.1 -0.1)"><path d="M0.0 0.0 -41.0 -50.0H-564.0L-556.0 -80.0H50.0C64.0 -80.0 72.0 -75.0 75.0 -64.0C46.0 -36.0 0.0 0.0 0.0 0.0Z"/></g>
<g fill="black" opacity=".8" transform="translate(500 300) scale(0.1 -0.1)"><path d="M0.0 0.0 -40.0 -50.0H-563.0L-556.0 -79.0H49.0C64.0 -79.0 73.0 -76.0 76.0 -63.0C47.0 -35.0 0.0 0.0 0.0 0.0Z"/></g>
<g fill="red" transform="translate(600 300) scale(0.1 -0.1)"><path d="M0.0 0.0 -64.0 -88.0H-529.0L-521.0 -116.0H87.0C101.0 -116.0 112.0 -111.0 115.0 -100.0C73.0 -60.0 0.0 0.0 0.0 0.0Z"/></g>
<g fill="black" opacity=".8" transform="translate(600 300) scale(0.1 -0.1)"><path d="M0.0 0.0 -64.0 -88.0H-528.0L-521.0 -116.0H87.0C102.0 -116.0 112.0 -110.0 115.0 -100.0C73.0 -60.0 0.0 0.0 0.0 0.0Z"/></g>
<g fill="red" transform="translate(700 300) scale(0.1 -0.1)"><path d="M0.0 0.0 -42.0 -50.0H-629.0L-621.0 -80.0H50.0C64.0 -80.0 72.0 -75.0 75.0 -64.0C46.0 -36.0 0.0 0.0 0.0 0.0Z"/></g>
<g fill="black" opacity=".8" transform="translate(700 300) scale(0.1 -0.1)"><path d="M0.0 0.0 -40.0 -50.0H-628.0L-621.0 -79.0H50.0C64.0 -79.0 73.0 -76.0 77.0 -63.0C47.0 -36.0 0.0 0.0 0.0 0.0Z"/></g>
<g fill="red" transform="translate(800 300) scale(0.1 -0.1)"><path d="M0.0 0.0 -67.0 -93.0H-584.0L-576.0 -121.0H93.0C108.0 -121.0 119.0 -116.0 122.0 -105.0C77.0 -63.0 0.0 0.0 0.0 0.0Z"/></g>
<g fill="black" opacity=".8" transform="translate(800 300) scale(0.1 -0.1)"><path d="M0.0 0.0 -67.0 -93.0H-583.0L-576.0 -121.0H93.0C108.0 -121.0 118.0 -115.0 122.0 -105.0C78.0 -63.0 0.0 0.0 0.0 0.0Z"/></g>
<g fill="red" transform="translate(900 300) scale(0.1 -0.1)"><path d="M0.0 0.0 -41.0 -50.0H-748.0L-739.0 -80.0H50.0C64.0 -80.0 74.0 -75.0 76.0 -64.0C47.0 -36.0 0.0 0.0 0.0 0.0Z"/></g>
<g fill="black" opacity=".8" transform="translate(900 300) scale(0.1 -0.1)"><path d="M0.0 0.0 -41.0 -51.0H-747.0L-738.0 -79.0H51.0C65.0 -79.0 74.0 -76.0 77.0 -63.0C48.0 -36.0 0.0 0.0 0.0 0.0Z"/></g>
<g fill="red" transform="translate(1000 300) scale(0.1 -0.1)"><path d="M0.0 0.0 -84.0 -112.0H-717.0L-709.0 -140.0H122.0C137.0 -140.0 149.0 -135.0 152.0 -124.0C96.0 -74.0 0.0 0.0 0.0 0.0Z"/></g>
<g fill="black" opacity=".8" transform="translate(1000 300) scale(0.1 -0.1)"><path d="M0.0 0.0 -84.0 -112.0H-717.0L-708.0 -140.0H122.0C137.0 -140.0 148.0 -133.0 153.0 -124.0C97.0 -75.0 0.0 0.0 0.0 0.0Z"/></g>
<g fill="red" transform="translate(1100 300) scale(0.1 -0.1)"><path d="M0.0 0.0 -40.0 -50.0H-582.0L-574.0 -80.0H51.0C64.0 -80.0 73.0 -75.0 76.0 -64.0C47.0 -36.0 0.0 0.0 0.0 0.0Z"/></g>
<g fill="black" opacity=".8" transform="translate(1100 300) scale(0.1 -0.1)"><path d="M0.0 0.0 -40.0 -51.0H-582.0L-573.0 -79.0H51.0C65.0 -79.0 73.0 -76.0 77.0 -63.0C47.0 -36.0 0.0 0.0 0.0 0.0Z"/></g>
<g fill="red" transform="translate(1200 300) scale(0.1 -0.1)"><path d="M0.0 0.0 -84.0 -112.0H-582.0L-574.0 -140.0H121.0C136.0 -140.0 148.0 -135.0 151.0 -124.0C95.0 -74.0 0.0 0.0 0.0 0.0Z"/></g>
<g fill="black" opacity=".8" transform="translate(1200 300) scale(0.1 -0.1)"><path d="M0.0 0.0 -84.0 -112.0H-583.0L-573.0 -140.0H121.0C136.0 -140.0 147.0 -134.0 152.0 -124.0C96.0 -75.0 0.0 0.0 0.0 0.0Z"/></g>
<g fill="red" transform="translate(1300 300) scale(0.1 -0.1)"><path d="M0.0 0.0 -42.0 -50.0H-832.0L-823.0 -80.0H50.0C63.0 -80.0 72.0 -75.0 75.0 -64.0C46.0 -36.0 0.0 0.0 0.0 0.0Z"/></g>
<g fill="black" opacity=".8" transform="translate(1300 300) scale(0.1 -0.1)"><path d="M0.0 0.0 -40.0 -50.0H-831.0L-822.0 -78.0H51.0C65.0 -78.0 73.0 -76.0 77.0 -62.0C47.0 -36.0 0.0 0.0 0.0 0.0Z"/></g>
<g fill="red" transform="translate(1400 300) scale(0.1 -0.1)"><path d="M0.0 0.0 -84.0 -112.0H-797.0L-789.0 -140.0H121.0C136.0 -140.0 148.0 -135.0 151.0 -124.0C95.0 -74.0 0.0 0.0 0.0 0.0Z"/></g>
<g fill="black" opacity=".8" transform="translate(1400 300) scale(0.1 -0.1)"><path d="M0.0 0.0 -83.0 -113.0H-797.0L-789.0 -140.0H121.0C136.0 -140.0 147.0 -133.0 152.0 -124.0C96.0 -75.0 0.0 0.0 0.0 0.0Z"/></g>
<g fill="red" transform="translate(1500 300) scale(0.1 -0.1)"><path d="M0.0 0.0 -42.0 -51.0H-436.0L-428.0 -81.0H53.0C66.0 -81.0 76.0 -76.0 79.0 -65.0C49.0 -37.0 0.0 0.0 0.0 0.0Z"/></g>
<g fill="black" opacity=".8" transform="translate(1500 300) scale(0.1 -0.1)"><path d="M0.0 0.0 -41.0 -51.0H-434.0L-429.0 -81.0H52.0C66.0 -81.0 76.0 -77.0 79.0 -64.0C48.0 -37.0 0.0 0.0 0.0 0.0Z"/></g>
<g fill="red" transform="translate(1600 300) scale(0.1 -0.1)"><path d="M0.0 0.0 -69.0 -87.0H-389.0L-381.0 -115.0H98.0C112.0 -115.0 123.0 -110.0 126.0 -99.0C79.0 -58.0 0.0 0.0 0.0 0.0Z"/></g>
<g fill="black" opacity=".8" transform="translate(1600 300) scale(0.1 -0.1)"><path d="M0.0 0.0 -69.0 -86.0H-388.0L-381.0 -115.0H97.0C112.0 -115.0 123.0 -109.0 126.0 -99.0C79.0 -59.0 0.0 0.0 0.0 0.0Z"/></g>
<g fill="red" transform="translate(100 400) scale(0.1 -0.1)"><path d="M0.0 0.0 -41.0 -50.0H-356.0L-348.0 -80.0H49.0C63.0 -80.0 73.0 -75.0 75.0 -64.0C46.0 -36.0 0.0 0.0 0.0 0.0Z"/></g>
<g fill="black" opacity=".8" transform="translate(100 400) scale(0.1 -0.1)"><path d="M0.0 0.0 -40.0 -50.0H-355.0L-348.0 -80.0H48.0C62.0 -80.0 72.0 -76.0 75.0 -63.0C46.0 -35.0 0.0 0.0 0.0 0.0Z"/></g>
<g fill="red" transform="translate(200 400) scale(0.1 -0.1)"><path d="M0.0 0.0 -57.0 -86.0H-312.0L-304.0 -114.0H74.0C87.0 -114.0 98.0 -109.0 100.0 -98.0C65.0 -59.0 0.0 0.0 0.0 0.0Z"/></g>
<g fill="black" opacity=".8" transform="translate(200 400) scale(0.1 -0.1)"><path d="M0.0 0.0 -57.0 -85.0H-311.0L-304.0 -114.0H73.0C88.0 -114.0 98.0 -108.0 101.0 -98.0C65.0 -59.0 0.0 0.0 0.0 0.0Z"/></g>
<g fill="red" transform="translate(300 400) scale(0.1 -0.1)"><path d="M0.0 0.0 -40.0 -50.0H-517.0L-509.0 -80.0H50.0C64.0 -80.0 74.0 -75.0 76.0 -64.0C48.0 -36.0 0.0 0.0 0.0 0.0Z"/></g>
<g fill="black" opacity=".8" transform="translate(300 400) scale(0.1 -0.1)"><path d="M0.0 0.0 -40.0 -50.0H-515.0L-509.0 -79.0H50.0C65.0 -79.0 74.0 -76.0 77.0 -63.0C47.0 -36.0 0.0 0.0 0.0 0.0Z"/></g>
<g fill="red" transform="translate(400 400) scale(0.1 -0.1)"><path d="M0.0 0.0 -75.0 -98.0H-465.0L-457.0 -126.0H106.0C121.0 -126.0 132.0 -121.0 135.0 -110.0C85.0 -66.0 0.0 0.0 0.0 0.0Z"/></g>
<g fill="black" opacity=".8" transform="translate(400 400) scale(0.1 -0.1)"><path d="M0.0 0.0 -74.0 -98.0H-464.0L-457.0 -126.0H106.0C121.0 -126.0 132.0 -120.0 135.0 -110.0C86.0 -66.0 0.0 0.0 0.0 0.0Z"/></g>
<g fill="red" transform="translate(500 400) scale(0.1 -0.1)"><path d="M0.0 0.0 -40.0 -49.0H-337.0L-329.0 -79.0H49.0C62.0 -79.0 72.0 -74.0 74.0 -63.0C45.0 -35.0 0.0 0.0 0.0 0.0Z"/></g>
<g fill="black" opacity=".8" transform="translate(500 400) scale(0.1 -0.1)"><path d="M0.0 0.0 -40.0 -49.0H-336.0L-329.0 -78.0H49.0C63.0 -78.0 72.0 -75.0 75.0 -62.0C46.0 -35.0 0.0 0.0 0.0 0.0Z"/></g>
<g fill="red" transform="translate(600 400) scale(0.1 -0.1)"><path d="M0.0 0.0 -72.0 -95.0H-303.0L-295.0 -123.0H99.0C114.0 -123.0 125.0 -118.0 128.0 -107.0C80.0 -64.0 0.0 0.0 0.0 0.0Z"/></g>
<g fill="black" opacity=".8" transform="translate(600 400) scale(0.1 -0.1)"><path d="M0.0 0.0 -71.0 -95.0H-302.0L-295.0 -123.0H99.0C114.0 -123.0 125.0 -117.0 128.0 -107.0C81.0 -64.0 0.0 0.0 0.0 0.0Z"/></g>
<g fill="red" transform="translate(700 400) scale(0.1 -0.1)"><path d="M0.0 0.0 -41.0 -50.0H-490.0L-482.0 -80.0H50.0C64.0 -80.0 74.0 -75.0 76.0 -64.0C47.0 -36.0 0.0 0.0 0.0 0.0Z"/></g>
<g fill="black" opacity=".8" transform="translate(700 400) scale(0.1 -0.1)"><path d="M0.0 0.0 -40.0 -50.0H-488.0L-482.0 -79.0H50.0C65.0 -79.0 74.0 -76.0 77.0 -63.0C47.0 -36.0 0.0 0.0 0.0 0.0Z"/></g>
<g fill="red" transform="translate(800 400) scale(0.1 -0.1)"><path d="M0.0 0.0 -69.0 -90.0H-450.0L-442.0 -118.0H97.0C112.0 -118.0 123.0 -113.0 126.0 -102.0C79.0 -61.0 0.0 0.0 0.0 0.0Z"/></g>
<g fill="black" opacity=".8" transform="translate(800 400) scale(0.1 -0.1)"><path d="M0.0 0.0 -69.0 -90.0H-449.0L-442.0 -118.0H97.0C112.0 -118.0 122.0 -112.0 126.0 -102.0C79.0 -61.0 0.0 0.0 0.0 0.0Z"/></g>
<g fill="red" transform="translate(900 400) scale(0.1 -0.1)"><path d="M0.0 0.0 -42.0 -53.0H-593.0L-585.0 -83.0H54.0C68.0 -83.0 77.0 -78.0 80.0 -67.0C49.0 -38.0 0.0 0.0 0.0 0.0Z"/></g>
<g fill="black" opacity=".8" transform="translate(900 400) scale(0.1 -0.1)"><path d="M0.0 0.0 -42.0 -52.0H-592.0L-585.0 -83.0H53.0C68.0 -83.0 77.0 -79.0 80.0 -66.0C49.0 -37.0 0.0 0.0 0.0 0.0Z"/></g>
<g fill="red" transform="translate(1000 400) scale(0.1 -0.1)"><path d="M0.0 0.0 -73.0 -96.0H-557.0L-549.0 -124.0H103.0C118.0 -124.0 129.0 -119.0 132.0 -108.0C83.0 -64.0 0.0 0.0 0.0 0.0Z"/></g>
<g fill="black" opacity=".8" transform="translate(1000 400) scale(0.1 -0.1)"><path d="M0.0 0.0 -73.0 -95.0H-556.0L-549.0 -124.0H102.0C118.0 -124.0 129.0 -118.0 133.0 -108.0C84.0 -64.0 0.0 0.0 0.0 0.0Z"/></g>
<g fill="red" transform="translate(1100 400) scale(0.1 -0.1)"><path d="M0.0 0.0 -39.0 -46.0H-604.0L-596.0 -76.0H47.0C61.0 -76.0 70.0 -71.0 73.0 -60.0C44.0 -33.0 0.0 0.0 0.0 0.0Z"/></g>
<g fill="black" opacity=".8" transform="translate(1100 400) scale(0.1 -0.1)"><path d="M0.0 0.0 -38.0 -48.0H-604.0L-595.0 -76.0H46.0C60.0 -76.0 68.0 -73.0 72.0 -60.0C44.0 -34.0 0.0 0.0 0.0 0.0Z"/></g>
<g fill="red" transform="translate(1200 400) scale(0.1 -0.1)"><path d="M0.0 0.0 -73.0 -113.0H-562.0L-554.0 -141.0H101.0C115.0 -141.0 127.0 -136.0 129.0 -125.0C84.0 -76.0 0.0 0.0 0.0 0.0Z"/></g>
<g fill="black" opacity=".8" transform="translate(1200 400) scale(0.1 -0.1)"><path d="M0.0 0.0 -73.0 -113.0H-562.0L-553.0 -141.0H101.0C115.0 -141.0 126.0 -135.0 130.0 -125.0C85.0 -76.0 0.0 0.0 0.0 0.0Z"/></g>
<g fill="red" transform="translate(1300 400) scale(0.1 -0.1)"><path d="M0.0 0.0 -38.0 -49.0H-506.0L-498.0 -79.0H47.0C61.0 -79.0 70.0 -74.0 72.0 -63.0C45.0 -35.0 0.0 0.0 0.0 0.0Z"/></g>
<g fill="black" opacity=".8" transform="translate(1300 400) scale(0.1 -0.1)"><path d="M0.0 0.0 -39.0 -49.0H-504.0L-498.0 -77.0H49.0C63.0 -77.0 72.0 -74.0 75.0 -61.0C46.0 -35.0 0.0 0.0 0.0 0.0Z"/></g>
<g fill="red" transform="translate(1400 400) scale(0.1 -0.1)"><path d="M0.0 0.0 -66.0 -84.0H-484.0L-476.0 -112.0H92.0C106.0 -112.0 117.0 -107.0 120.0 -96.0C75.0 -57.0 0.0 0.0 0.0 0.0Z"/></g>
<g fill="black" opacity=".8" transform="translate(1400 400) scale(0.1 -0.1)"><path d="M0.0 0.0 -66.0 -85.0H-483.0L-476.0 -112.0H92.0C106.0 -112.0 116.0 -106.0 120.0 -96.0C75.0 -57.0 0.0 0.0 0.0 0.0Z"/></g>
<g fill="red" transform="translate(1500 400) scale(0.1 -0.1)"><path d="M0.0 0.0 -38.0 -49.0H-594.0L-586.0 -79.0H46.0C60.0 -79.0 69.0 -74.0 72.0 -63.0C44.0 -35.0 0.0 0.0 0.0 0.0Z"/></g>
<g fill="black" opacity=".8" transform="translate(1500 400) scale(0.1 -0.1)"><path d="M0.0 0.0 -39.0 -49.0H-593.0L-586.0 -77.0H48.0C62.0 -77.0 71.0 -74.0 74.0 -61.0C45.0 -35.0 0.0 0.0 0.0 0.0Z"/></g>
<g fill="red" transform="translate(1600 400) scale(0.1 -0.1)"><path d="M0.0 0.0 -67.0 -96.0H-565.0L-557.0 -124.0H93.0C107.0 -124.0 118.0 -119.0 121.0 -108.0C77.0 -65.0 0.0 0.0 0.0 0.0Z"/></g>
<g fill="black" opacity=".8" transform="translate(1600 400) scale(0.1 -0.1)"><path d="M0.0 0.0 -67.0 -96.0H-565.0L-557.0 -124.0H92.0C107.0 -124.0 117.0 -118.0 121.0 -108.0C78.0 -65.0 0.0 0.0 0.0 0.0Z"/></g>
<g fill="red" transform="translate(100 500) scale(0.1 -0.1)"><path d="M0.0 0.0 -41.0 -50.0H-495.0L-487.0 -80.0H50.0C64.0 -80.0 72.0 -75.0 75.0 -64.0C46.0 -36.0 0.0 0.0 0.0 0.0Z"/></g>
<g fill="black" opacity=".8" transform="translate(100 500) scale(0.1 -0.1)"><path d="M0.0 0.0 -40.0 -50.0H-494.0L-487.0 -79.0H50.0C64.0 -79.0 73.0 -76.0 76.0 -63.0C47.0 -36.0 0.0 0.0 0.0 0.0Z"/></g>
<g fill="red" transform="translate(200 500) scale(0.1 -0.1)"><path d="M0.0 0.0 -68.0 -90.0H-477.0L-469.0 -118.0H94.0C108.0 -118.0 119.0 -113.0 122.0 -102.0C77.0 -61.0 0.0 0.0 0.0 0.0Z"/></g>
<g fill="black" opacity=".8" transform="translate(200 500) scale(0.1 -0.1)"><path d="M0.0 0.0 -67.0 -90.0H-477.0L-469.0 -118.0H93.0C108.0 -118.0 119.0 -112.0 122.0 -102.0C77.0 -61.0 0.0 0.0 0.0 0.0Z"/></g>
<g fill="red" transform="translate(300 500) scale(0.1 -0.1)"><path d="M0.0 0.0 -42.0 -50.0H-412.0L-404.0 -80.0H50.0C64.0 -80.0 73.0 -75.0 76.0 -64.0C46.0 -36.0 0.0 0.0 0.0 0.0Z"/></g>
<g fill="black" opacity=".8" transform="translate(300 500) scale(0.1 -0.1)"><path d="M0.0 0.0 -40.0 -50.0H-411.0L-404.0 -80.0H50.0C64.0 -80.0 73.0 -76.0 76.0 -63.0C47.0 -36.0 0.0 0.0 0.0 0.0Z"/></g>
<g fill="red" transform="translate(400 500) scale(0.1 -0.1)"><path d="M0.0 0.0 -68.0 -90.0H-388.0L-380.0 -118.0H94.0C109.0 -118.0 120.0 -113.0 122.0 -102.0C77.0 -61.0 0.0 0.0 0.0 0.0Z"/></g>
<g fill="black" opacity=".8" transform="translate(400 500) scale(0.1 -0.1)"><path d="M0.0 0.0 -68.0 -90.0H-387.0L-380.0 -118.0H94.0C109.0 -118.0 119.0 -112.0 123.0 -102.0C77.0 -61.0 0.0 0.0 0.0 0.0Z"/></g>
<g fill="red" transform="translate(500 500) scale(0.1 -0.1)"><path d="M0.0 0.0 -41.0 -50.0H-564.0L-556.0 -80.0H50.0C64.0 -80.0 72.0 -75.0 75.0 -64.0C46.0 -36.0 0.0 0.0 0.0 0.0Z"/></g>
<g fill="black" opacity=".8" transform="translate(500 500) scale(0.1 -0.1)"><path d="M0.0 0.0 -40.0 -50.0H-563.0L-556.0 -79.0H50.0C64.0 -79.0 73.0 -76.0 76.0 -63.0C47.0 -36.0 0.0 0.0 0.0 0.0Z"/></g>
<g fill="red" transform="translate(600 500) scale(0.1 -0.1)"><path d="M0.0 0.0 -74.0 -98.0H-534.0L-526.0 -126.0H104.0C119.0 -126.0 130.0 -121.0 133.0 -110.0C84.0 -66.0 0.0 0.0 0.0 0.0Z"/></g>
<g fill="black" opacity=".8" transform="translate(600 500) scale(0.1 -0.1)"><path d="M0.0 0.0 -73.0 -98.0H-534.0L-526.0 -126.0H104.0C119.0 -126.0 130.0 -120.0 133.0 -110.0C84.0 -66.0 0.0 0.0 0.0 0.0Z"/></g>
<g fill="red" transform="translate(700 500) scale(0.1 -0.1)"><path d="M0.0 0.0 -38.0 -49.0H-534.0L-526.0 -79.0H46.0C60.0 -79.0 70.0 -74.0 72.0 -63.0C44.0 -35.0 0.0 0.0 0.0 0.0Z"/></g>
<g fill="black" opacity=".8" transform="translate(700 500) scale(0.1 -0.1)"><path d="M0.0 0.0 -39.0 -49.0H-533.0L-526.0 -77.0H49.0C63.0 -77.0 71.0 -74.0 74.0 -61.0C46.0 -35.0 0.0 0.0 0.0 0.0Z"/></g>
<g fill="red" transform="translate(800 500) scale(0.1 -0.1)"><path d="M0.0 0.0 -66.0 -85.0H-522.0L-514.0 -113.0H92.0C107.0 -113.0 118.0 -108.0 121.0 -97.0C75.0 -57.0 0.0 0.0 0.0 0.0Z"/></g>
<g fill="black" opacity=".8" transform="translate(800 500) scale(0.1 -0.1)"><path d="M0.0 0.0 -66.0 -86.0H-521.0L-514.0 -113.0H92.0C107.0 -113.0 117.0 -107.0 120.0 -97.0C76.0 -58.0 0.0 0.0 0.0 0.0Z"/></g>
<g fill="red" transform="translate(900 500) scale(0.1 -0.1)"><path d="M0.0 0.0 -39.0 -49.0H-599.0L-591.0 -79.0H46.0C60.0 -79.0 69.0 -74.0 72.0 -63.0C44.0 -35.0 0.0 0.0 0.0 0.0Z"/></g>
<g fill="black" opacity=".8" transform="translate(900 500) scale(0.1 -0.1)"><path d="M0.0 0.0 -39.0 -49.0H-598.0L-591.0 -77.0H48.0C62.0 -77.0 71.0 -74.0 74.0 -61.0C45.0 -35.0 0.0 0.0 0.0 0.0Z"/></g>
<g fill="red" transform="translate(1000 500) scale(0.1 -0.1)"><path d="M0.0 0.0 -68.0 -98.0H-557.0L-549.0 -126.0H95.0C109.0 -126.0 120.0 -121.0 123.0 -110.0C78.0 -66.0 0.0 0.0 0.0 0.0Z"/></g>
<g fill="black" opacity=".8" transform="translate(1000 500) scale(0.1 -0.1)"><path d="M0.0 0.0 -68.0 -98.0H-557.0L-549.0 -126.0H94.0C109.0 -126.0 119.0 -120.0 123.0 -110.0C79.0 -67.0 0.0 0.0 0.0 0.0Z"/></g>
<g fill="red" transform="translate(1100 500) scale(0.1 -0.1)"><path d="M0.0 0.0 -40.0 -49.0H-526.0L-518.0 -79.0H47.0C61.0 -79.0 71.0 -74.0 73.0 -63.0C44.0 -35.0 0.0 0.0 0.0 0.0Z"/></g>
<g fill="black" opacity=".8" transform="translate(1100 500) scale(0.1 -0.1)"><path d="M0.0 0.0 -39.0 -49.0H-525.0L-518.0 -78.0H48.0C62.0 -78.0 71.0 -74.0 74.0 -62.0C46.0 -35.0 0.0 0.0 0.0 0.0Z"/></g>
<g fill="red" transform="translate(1200 500) scale(0.1 -0.1)"><path d="M0.0 0.0 -60.0 -83.0H-511.0L-503.0 -111.0H81.0C95.0 -111.0 106.0 -106.0 108.0 -95.0C69.0 -57.0 0.0 0.0 0.0 0.0Z"/></g>
<g fill="black" opacity=".8" transform="translate(1200 500) scale(0.1 -0.1)"><path d="M0.0 0.0 -60.0 -83.0H-510.0L-503.0 -111.0H81.0C95.0 -111.0 105.0 -105.0 109.0 -95.0C69.0 -57.0 0.0 0.0 0.0 0.0Z"/></g>
<g fill="red" transform="translate(1300 500) scale(0.1 -0.1)"><path d="M0.0 0.0 -39.0 -49.0H-581.0L-573.0 -79.0H50.0C62.0 -79.0 72.0 -74.0 75.0 -63.0C46.0 -35.0 0.0 0.0 0.0 0.0Z"/></g>
<g fill="black" opacity=".8" transform="translate(1300 500) scale(0.1 -0.1)"><path d="M0.0 0.0 -39.0 -49.0H-580.0L-573.0 -79.0H49.0C63.0 -79.0 72.0 -75.0 75.0 -62.0C46.0 -35.0 0.0 0.0 0.0 0.0Z"/></g>
<g fill="red" transform="translate(1400 500) scale(0.1 -0.1)"><path d="M0.0 0.0 -66.0 -90.0H-578.0L-570.0 -118.0H89.0C104.0 -118.0 114.0 -113.0 117.0 -102.0C74.0 -61.0 0.0 0.0 0.0 0.0Z"/></g>
<g fill="black" opacity=".8" transform="translate(1400 500) scale(0.1 -0.1)"><path d="M0.0 0.0 -65.0 -90.0H-578.0L-570.0 -118.0H89.0C104.0 -118.0 114.0 -112.0 118.0 -102.0C75.0 -61.0 0.0 0.0 0.0 0.0Z"/></g>
<g fill="red" transform="translate(1500 500) scale(0.1 -0.1)"><path d="M0.0 0.0 -41.0 -50.0H-573.0L-565.0 -80.0H50.0C63.0 -80.0 73.0 -75.0 75.0 -64.0C47.0 -36.0 0.0 0.0 0.0 0.0Z"/></g>
<g fill="black" opacity=".8" transform="translate(1500 500) scale(0.1 -0.1)"><path d="M0.0 0.0 -40.0 -50.0H-572.0L-565.0 -79.0H50.0C64.0 -79.0 73.0 -76.0 76.0 -63.0C47.0 -36.0 0.0 0.0 0.0 0.0Z"/></g>
<g fill="red" transform="translate(1600 500) scale(0.1 -0.1)"><path d="M0.0 0.0 -69.0 -96.0H-553.0L-545.0 -124.0H96.0C111.0 -124.0 122.0 -119.0 125.0 -108.0C79.0 -65.0 0.0 0.0 0.0 0.0Z"/></g>
<g fill="black" opacity=".8" transform="translate(1600 500) scale(0.1 -0.1)"><path d="M0.0 0.0 -69.0 -96.0H-553.0L-545.0 -124.0H96.0C111.0 -124.0 121.0 -118.0 125.0 -108.0C80.0 -65.0 0.0 0.0 0.0 0.0Z"/></g>
<g fill="red" transform="translate(100 600) scale(0.1 -0.1)"><path d="M0.0 0.0 -39.0 -49.0H-585.0L-577.0 -79.0H47.0C60.0 -79.0 69.0 -74.0 72.0 -63.0C45.0 -35.0 0.0 0.0 0.0 0.0Z"/></g>
<g fill="black" opacity=".8" transform="translate(100 600) scale(0.1 -0.1)"><path d="M0.0 0.0 -39.0 -49.0H-585.0L-576.0 -78.0H47.0C61.0 -78.0 70.0 -75.0 73.0 -62.0C45.0 -35.0 0.0 0.0 0.0 0.0Z"/></g>
<g fill="red" transform="translate(200 600) scale(0.1 -0.1)"><path d="M0.0 0.0 -63.0 -98.0H-594.0L-586.0 -126.0H83.0C97.0 -126.0 108.0 -121.0 111.0 -110.0C72.0 -67.0 0.0 0.0 0.0 0.0Z"/></g>
<g fill="black" opacity=".8" transform="translate(200 600) scale(0.1 -0.1)"><path d="M0.0 0.0 -63.0 -98.0H-594.0L-585.0 -126.0H83.0C97.0 -126.0 108.0 -120.0 111.0 -110.0C72.0 -67.0 0.0 0.0 0.0 0.0Z"/></g>
<g fill="red" transform="translate(300 600) scale(0.1 -0.1)"><path d="M0.0 0.0 -38.0 -49.0H-529.0L-521.0 -79.0H47.0C61.0 -79.0 70.0 -74.0 73.0 -63.0C45.0 -35.0 0.0 0.0 0.0 0.0Z"/></g>
<g fill="black" opacity=".8" transform="translate(300 600) scale(0.1 -0.1)"><path d="M0.0 0.0 -39.0 -49.0H-529.0L-520.0 -78.0H48.0C62.0 -78.0 71.0 -74.0 74.0 -62.0C45.0 -35.0 0.0 0.0 0.0 0.0Z"/></g>
<g fill="red" transform="translate(400 600) scale(0.1 -0.1)"><path d="M0.0 0.0 -67.0 -95.0H-532.0L-524.0 -123.0H92.0C106.0 -123.0 117.0 -118.0 120.0 -107.0C76.0 -64.0 0.0 0.0 0.0 0.0Z"/></g>
<g fill="black" opacity=".8" transform="translate(400 600) scale(0.1 -0.1)"><path d="M0.0 0.0 -67.0 -95.0H-532.0L-523.0 -123.0H91.0C106.0 -123.0 117.0 -117.0 120.0 -107.0C77.0 -64.0 0.0 0.0 0.0 0.0Z"/></g>
<g fill="red" transform="translate(500 600) scale(0.1 -0.1)"><path d="M0.0 0.0 -41.0 -49.0H-541.0L-533.0 -79.0H50.0C64.0 -79.0 73.0 -74.0 76.0 -63.0C46.0 -35.0 0.0 0.0 0.0 0.0Z"/></g>
<g fill="black" opacity=".8" transform="translate(500 600) scale(0.1 -0.1)"><path d="M0.0 0.0 -40.0 -50.0H-540.0L-533.0 -78.0H50.0C64.0 -78.0 73.0 -75.0 76.0 -62.0C47.0 -35.0 0.0 0.0 0.0 0.0Z"/></g>
<g fill="red" transform="translate(600 600) scale(0.1 -0.1)"><path d="M0.0 0.0 -72.0 -89.0H-518.0L-510.0 -117.0H102.0C116.0 -117.0 127.0 -112.0 130.0 -101.0C81.0 -60.0 0.0 0.0 0.0 0.0Z"/></g>
<g fill="black" opacity=".8" transform="translate(600 600) scale(0.1 -0.1)"><path d="M0.0 0.0 -71.0 -89.0H-517.0L-510.0 -117.0H101.0C116.0 -117.0 127.0 -111.0 130.0 -101.0C82.0 -60.0 0.0 0.0 0.0 0.0Z"/></g>
<g fill="red" transform="translate(700 600) scale(0.1 -0.1)"><path d="M0.0 0.0 -42.0 -52.0H-565.0L-557.0 -82.0H52.0C66.0 -82.0 75.0 -77.0 78.0 -66.0C48.0 -37.0 0.0 0.0 0.0 0.0Z"/></g>
<g fill="black" opacity=".8" transform="translate(700 600) scale(0.1 -0.1)"><path d="M0.0 0.0 -41.0 -51.0H-564.0L-557.0 -82.0H51.0C66.0 -82.0 75.0 -78.0 78.0 -65.0C48.0 -37.0 0.0 0.0 0.0 0.0Z"/></g>
<g fill="red" transform="translate(800 600) scale(0.1 -0.1)"><path d="M0.0 0.0 -66.0 -91.0H-550.0L-542.0 -119.0H90.0C105.0 -119.0 116.0 -114.0 118.0 -103.0C75.0 -62.0 0.0 0.0 0.0 0.0Z"/></g>
<g fill="black" opacity=".8" transform="translate(800 600) scale(0.1 -0.1)"><path d="M0.0 0.0 -66.0 -90.0H-550.0L-542.0 -119.0H90.0C105.0 -119.0 115.0 -113.0 119.0 -103.0C76.0 -61.0 0.0 0.0 0.0 0.0Z"/></g>
<g fill="red" transform="translate(900 600) scale(0.1 -0.1)"><path d="M0.0 0.0 -41.0 -50.0H-384.0L-376.0 -80.0H50.0C63.0 -80.0 73.0 -75.0 76.0 -64.0C47.0 -36.0 0.0 0.0 0.0 0.0Z"/></g>
<g fill="black" opacity=".8" transform="translate(900 600) scale(0.1 -0.1)"><path d="M0.0 0.0 -40.0 -50.0H-383.0L-376.0 -80.0H49.0C64.0 -80.0 73.0 -76.0 76.0 -63.0C47.0 -36.0 0.0 0.0 0.0 0.0Z"/></g>
<g fill="red" transform="translate(1000 600) scale(0.1 -0.1)"><path d="M0.0 0.0 -64.0 -86.0H-370.0L-362.0 -114.0H87.0C101.0 -114.0 112.0 -109.0 115.0 -98.0C72.0 -58.0 0.0 0.0 0.0 0.0Z"/></g>
<g fill="black" opacity=".8" transform="translate(1000 600) scale(0.1 -0.1)"><path d="M0.0 0.0 -64.0 -85.0H-369.0L-362.0 -114.0H87.0C101.0 -114.0 112.0 -108.0 115.0 -98.0C73.0 -59.0 0.0 0.0 0.0 0.0Z"/></g>
<g fill="red" transform="translate(1100 600) scale(0.1 -0.1)"><path d="M0.0 0.0 -32.0 -39.0H-509.0L-501.0 -69.0H36.0C49.0 -69.0 58.0 -64.0 60.0 -53.0C37.0 -29.0 0.0 0.0 0.0 0.0Z"/></g>
<g fill="black" opacity=".8" transform="translate(1100 600) scale(0.1 -0.1)"><path d="M0.0 0.0 -33.0 -41.0H-509.0L-501.0 -67.0H39.0C51.0 -67.0 59.0 -64.0 62.0 -52.0C38.0 -29.0 0.0 0.0 0.0 0.0Z"/></g>
<g fill="red" transform="translate(1200 600) scale(0.1 -0.1)"><path d="M0.0 0.0 -46.0 -73.0H-525.0L-517.0 -101.0H54.0C67.0 -101.0 77.0 -96.0 80.0 -85.0C52.0 -51.0 0.0 0.0 0.0 0.0Z"/></g>
<g fill="black" opacity=".8" transform="translate(1200 600) scale(0.1 -0.1)"><path d="M0.0 0.0 -45.0 -75.0H-525.0L-517.0 -100.0H55.0C68.0 -100.0 76.0 -95.0 79.0 -86.0C52.0 -52.0 0.0 0.0 0.0 0.0Z"/></g>
<g fill="red" transform="translate(1300 600) scale(0.1 -0.1)"><path d="M0.0 0.0 -37.0 -42.0H-804.0L-795.0 -72.0H43.0C57.0 -72.0 66.0 -67.0 69.0 -56.0C41.0 -30.0 0.0 0.0 0.0 0.0Z"/></g>
<g fill="black" opacity=".8" transform="translate(1300 600) scale(0.1 -0.1)"><path d="M0.0 0.0 -35.0 -44.0H-803.0L-795.0 -71.0H44.0C57.0 -71.0 65.0 -68.0 68.0 -56.0C42.0 -32.0 0.0 0.0 0.0 0.0Z"/></g>
<g fill="red" transform="translate(1400 600) scale(0.1 -0.1)"><path d="M0.0 0.0 -57.0 -83.0H-808.0L-800.0 -111.0H77.0C91.0 -111.0 101.0 -106.0 104.0 -95.0C66.0 -57.0 0.0 0.0 0.0 0.0Z"/></g>
<g fill="black" opacity=".8" transform="translate(1400 600) scale(0.1 -0.1)"><path d="M0.0 0.0 -57.0 -85.0H-808.0L-800.0 -110.0H78.0C91.0 -110.0 100.0 -104.0 104.0 -95.0C67.0 -57.0 0.0 0.0 0.0 0.0Z"/></g>
<g fill="red" transform="translate(1500 600) scale(0.1 -0.1)"><path d="M0.0 0.0 -40.0 -50.0H-462.0L-454.0 -80.0H50.0C64.0 -80.0 73.0 -75.0 76.0 -64.0C47.0 -36.0 0.0 0.0 0.0 0.0Z"/></g>
<g fill="black" opacity=".8" transform="translate(1500 600) scale(0.1 -0.1)"><path d="M0.0 0.0 -40.0 -50.0H-461.0L-454.0 -79.0H50.0C64.0 -79.0 73.0 -76.0 76.0 -63.0C47.0 -36.0 0.0 0.0 0.0 0.0Z"/></g>
<g fill="red" transform="translate(1600 600) scale(0.1 -0.1)"><path d="M0.0 0.0 -71.0 -95.0H-438.0L-430.0 -123.0H100.0C114.0 -123.0 126.0 -118.0 128.0 -107.0C81.0 -64.0 0.0 0.0 0.0 0.0Z"/></g>
<g fill="black" opacity=".8" transform="translate(1600 600) scale(0.1 -0.1)"><path d="M0.0 0.0 -71.0 -95.0H-438.0L-430.0 -123.0H99.0C114.0 -123.0 125.0 -117.0 129.0 -107.0C81.0 -64.0 0.0 0.0 0.0 0.0Z"/></g>
<g fill="red" transform="translate(100 700) scale(0.1 -0.1)"><path d="M0.0 0.0 -41.0 -49.0H-342.0L-334.0 -79.0H48.0C62.0 -79.0 71.0 -74.0 74.0 -63.0C45.0 -35.0 0.0 0.0 0.0 0.0Z"/></g>
<g fill="black" opacity=".8" transform="translate(100 700) scale(0.1 -0.1)"><path d="M0.0 0.0 -40.0 -49.0H-341.0L-334.0 -78.0H49.0C63.0 -78.0 72.0 -75.0 75.0 -62.0C46.0 -35.0 0.0 0.0 0.0 0.0Z"/></g>
<g fill="red" transform="translate(200 700) scale(0.1 -0.1)"><path d="M0.0 0.0 -70.0 -93.0H-311.0L-303.0 -121.0H97.0C112.0 -121.0 123.0 -116.0 126.0 -105.0C79.0 -63.0 0.0 0.0 0.0 0.0Z"/></g>
<g fill="black" opacity=".8" transform="translate(200 700) scale(0.1 -0.1)"><path d="M0.0 0.0 -70.0 -93.0H-310.0L-303.0 -121.0H97.0C112.0 -121.0 122.0 -115.0 126.0 -105.0C80.0 -63.0 0.0 0.0 0.0 0.0Z"/></g>
<g fill="red" transform="translate(300 700) scale(0.1 -0.1)"><path d="M0.0 0.0 -41.0 -50.0H-490.0L-482.0 -80.0H50.0C64.0 -80.0 74.0 -75.0 76.0 -64.0C47.0 -36.0 0.0 0.0 0.0 0.0Z"/></g>
<g fill="black" opacity=".8" transform="translate(300 700) scale(0.1 -0.1)"><path d="M0.0 0.0 -40.0 -50.0H-489.0L-481.0 -80.0H49.0C64.0 -80.0 73.0 -76.0 76.0 -63.0C47.0 -36.0 0.0 0.0 0.0 0.0Z"/></g>
<g fill="red" transform="translate(400 700) scale(0.1 -0.1)"><path d="M0.0 0.0 -74.0 -105.0H-460.0L-452.0 -133.0H103.0C118.0 -133.0 129.0 -128.0 132.0 -117.0C84.0 -70.0 0.0 0.0 0.0 0.0Z"/></g>
<g fill="black" opacity=".8" transform="translate(400 700) scale(0.1 -0.1)"><path d="M0.0 0.0 -74.0 -104.0H-460.0L-451.0 -133.0H103.0C118.0 -133.0 129.0 -127.0 133.0 -117.0C85.0 -71.0 0.0 0.0 0.0 0.0Z"/></g>
<g fill="red" transform="translate(500 700) scale(0.1 -0.1)"><path d="M0.0 0.0 -37.0 -47.0H-464.0L-456.0 -77.0H46.0C60.0 -77.0 69.0 -72.0 72.0 -61.0C44.0 -34.0 0.0 0.0 0.0 0.0Z"/></g>
<g fill="black" opacity=".8" transform="translate(500 700) scale(0.1 -0.1)"><path d="M0.0 0.0 -38.0 -48.0H-463.0L-456.0 -76.0H47.0C61.0 -76.0 69.0 -73.0 72.0 -60.0C44.0 -34.0 0.0 0.0 0.0 0.0Z"/></g>
<g fill="red" transform="translate(600 700) scale(0.1 -0.1)"><path d="M0.0 0.0 -70.0 -97.0H-442.0L-434.0 -125.0H97.0C112.0 -125.0 123.0 -120.0 126.0 -109.0C79.0 -65.0 0.0 0.0 0.0 0.0Z"/></g>
<g fill="black" opacity=".8" transform="translate(600 700) scale(0.1 -0.1)"><path d="M0.0 0.0 -70.0 -97.0H-442.0L-434.0 -125.0H97.0C112.0 -125.0 122.0 -119.0 126.0 -109.0C80.0 -66.0 0.0 0.0 0.0 0.0Z"/></g>
<g fill="red" transform="translate(700 700) scale(0.1 -0.1)"><path d="M0.0 0.0 -39.0 -49.0H-474.0L-466.0 -79.0H47.0C60.0 -79.0 70.0 -74.0 72.0 -63.0C44.0 -35.0 0.0 0.0 0.0 0.0Z"/></g>
<g fill="black" opacity=".8" transform="translate(700 700) scale(0.1 -0.1)"><path d="M0.0 0.0 -39.0 -49.0H-472.0L-466.0 -77.0H49.0C63.0 -77.0 72.0 -74.0 74.0 -61.0C46.0 -35.0 0.0 0.0 0.0 0.0Z"/></g>
<g fill="red" transform="translate(800 700) scale(0.1 -0.1)"><path d="M0.0 0.0 -65.0 -83.0H-455.0L-447.0 -111.0H91.0C105.0 -111.0 116.0 -106.0 119.0 -95.0C74.0 -56.0 0.0 0.0 0.0 0.0Z"/></g>
<g fill="black" opacity=".8" transform="translate(800 700) scale(0.1 -0.1)"><path d="M0.0 0.0 -65.0 -84.0H-454.0L-447.0 -111.0H91.0C105.0 -111.0 115.0 -105.0 119.0 -95.0C74.0 -57.0 0.0 0.0 0.0 0.0Z"/></g>
<g fill="red" transform="translate(900 700) scale(0.1 -0.1)"><path d="M0.0 0.0 -40.0 -49.0H-553.0L-545.0 -79.0H46.0C60.0 -79.0 69.0 -74.0 72.0 -63.0C44.0 -35.0 0.0 0.0 0.0 0.0Z"/></g>
<g fill="black" opacity=".8" transform="translate(900 700) scale(0.1 -0.1)"><path d="M0.0 0.0 -39.0 -49.0H-553.0L-544.0 -78.0H48.0C62.0 -78.0 70.0 -74.0 74.0 -61.0C45.0 -35.0 0.0 0.0 0.0 0.0Z"/></g>
<g fill="red" transform="translate(1000 700) scale(0.1 -0.1)"><path d="M0.0 0.0 -66.0 -94.0H-555.0L-547.0 -122.0H90.0C104.0 -122.0 115.0 -117.0 118.0 -106.0C75.0 -64.0 0.0 0.0 0.0 0.0Z"/></g>
<g fill="black" opacity=".8" transform="translate(1000 700) scale(0.1 -0.1)"><path d="M0.0 0.0 -66.0 -94.0H-555.0L-546.0 -122.0H90.0C104.0 -122.0 114.0 -116.0 118.0 -106.0C76.0 -64.0 0.0 0.0 0.0 0.0Z"/></g>
<g fill="red" transform="translate(1100 700) scale(0.1 -0.1)"><path d="M0.0 0.0 -41.0 -50.0H-490.0L-482.0 -80.0H50.0C64.0 -80.0 74.0 -75.0 76.0 -64.0C47.0 -36.0 0.0 0.0 0.0 0.0Z"/></g>
<g fill="black" opacity=".8" transform="translate(1100 700) scale(0.1 -0.1)"><path d="M0.0 0.0 -40.0 -50.0H-488.0L-482.0 -79.0H50.0C65.0 -79.0 74.0 -76.0 77.0 -63.0C47.0 -36.0 0.0 0.0 0.0 0.0Z"/></g>
<g fill="red" transform="translate(1200 700) scale(0.1 -0.1)"><path d="M0.0 0.0 -73.0 -96.0H-431.0L-423.0 -124.0H104.0C119.0 -124.0 130.0 -119.0 133.0 -108.0C83.0 -64.0 0.0 0.0 0.0 0.0Z"/></g>
<g fill="black" opacity=".8" transform="translate(1200 700) scale(0.1 -0.1)"><path d="M0.0 0.0 -73.0 -96.0H-430.0L-423.0 -124.0H104.0C119.0 -124.0 129.0 -118.0 133.0 -108.0C84.0 -65.0 0.0 0.0 0.0 0.0Z"/></g>
<g fill="red" transform="translate(1300 700) scale(0.1 -0.1)"><path d="M0.0 0.0 -42.0 -48.0H-620.0L-612.0 -78.0H51.0C65.0 -78.0 75.0 -73.0 78.0 -62.0C47.0 -34.0 0.0 0.0 0.0 0.0Z"/></g>
<g fill="black" opacity=".8" transform="translate(1300 700) scale(0.1 -0.1)"><path d="M0.0 0.0 -40.0 -50.0H-619.0L-612.0 -78.0H50.0C65.0 -78.0 73.0 -75.0 77.0 -62.0C47.0 -35.0 0.0 0.0 0.0 0.0Z"/></g>
<g fill="red" transform="translate(1400 700) scale(0.1 -0.1)"><path d="M0.0 0.0 -75.0 -96.0H-578.0L-570.0 -124.0H108.0C122.0 -124.0 134.0 -119.0 137.0 -108.0C85.0 -64.0 0.0 0.0 0.0 0.0Z"/></g>
<g fill="black" opacity=".8" transform="translate(1400 700) scale(0.1 -0.1)"><path d="M0.0 0.0 -75.0 -96.0H-577.0L-570.0 -123.0H108.0C123.0 -123.0 133.0 -117.0 137.0 -108.0C86.0 -65.0 0.0 0.0 0.0 0.0Z"/></g>
<g fill="red" transform="translate(1500 700) scale(0.1 -0.1)"><path d="M0.0 0.0 -41.0 -48.0H-573.0L-565.0 -78.0H53.0C66.0 -78.0 75.0 -73.0 78.0 -62.0C48.0 -34.0 0.0 0.0 0.0 0.0Z"/></g>
<g fill="black" opacity=".8" transform="translate(1500 700) scale(0.1 -0.1)"><path d="M0.0 0.0 -40.0 -50.0H-572.0L-565.0 -79.0H50.0C64.0 -79.0 73.0 -75.0 76.0 -62.0C47.0 -35.0 0.0 0.0 0.0 0.0Z"/></g>
<g fill="red" transform="translate(1600 700) scale(0.1 -0.1)"><path d="M0.0 0.0 -69.0 -88.0H-586.0L-578.0 -116.0H97.0C112.0 -116.0 123.0 -111.0 125.0 -100.0C78.0 -59.0 0.0 0.0 0.0 0.0Z"/></g>
<g fill="black" opacity=".8" transform="translate(1600 700) scale(0.1 -0.1)"><path d="M0.0 0.0 -69.0 -88.0H-586.0L-578.0 -115.0H97.0C112.0 -115.0 122.0 -110.0 126.0 -100.0C79.0 -59.0 0.0 0.0 0.0 0.0Z"/></g>
<g fill="red" transform="translate(100 800) scale(0.1 -0.1)"><path d="M0.0 0.0 -41.0 -50.0H-352.0L-344.0 -80.0H50.0C64.0 -80.0 73.0 -75.0 76.0 -64.0C46.0 -36.0 0.0 0.0 0.0 0.0Z"/></g>
<g fill="black" opacity=".8" transform="translate(100 800) scale(0.1 -0.1)"><path d="M0.0 0.0 -40.0 -50.0H-351.0L-344.0 -80.0H50.0C64.0 -80.0 73.0 -76.0 76.0 -63.0C47.0 -36.0 0.0 0.0 0.0 0.0Z"/></g>
<g fill="red" transform="translate(200 800) scale(0.1 -0.1)"><path d="M0.0 0.0 -67.0 -88.0H-354.0L-346.0 -116.0H91.0C105.0 -116.0 116.0 -111.0 119.0 -100.0C75.0 -59.0 0.0 0.0 0.0 0.0Z"/></g>
<g fill="black" opacity=".8" transform="translate(200 800) scale(0.1 -0.1)"><path d="M0.0 0.0 -66.0 -87.0H-354.0L-345.0 -116.0H91.0C105.0 -116.0 116.0 -110.0 119.0 -100.0C75.0 -60.0 0.0 0.0 0.0 0.0Z"/></g>
<g fill="red" transform="translate(300 800) scale(0.1 -0.1)"><path d="M0.0 0.0 -38.0 -45.0H-625.0V-75.0H44.0C57.0 -75.0 67.0 -70.0 69.0 -59.0C42.0 -33.0 0.0 0.0 0.0 0.0Z"/></g>
<g fill="black" opacity=".8" transform="translate(300 800) scale(0.1 -0.1)"><path d="M0.0 0.0 -37.0 -46.0H-627.0L-622.0 -73.0H47.0C60.0 -73.0 68.0 -70.0 71.0 -57.0C44.0 -33.0 0.0 0.0 0.0 0.0Z"/></g>
<g fill="red" transform="translate(400 800) scale(0.1 -0.1)"><path d="M0.0 0.0 -62.0 -76.0H-602.0V-104.0H87.0C101.0 -104.0 112.0 -99.0 114.0 -88.0C71.0 -51.0 0.0 0.0 0.0 0.0Z"/></g>
<g fill="black" opacity=".8" transform="translate(400 800) scale(0.1 -0.1)"><path d="M0.0 0.0 -62.0 -78.0H-605.0L-599.0 -103.0H87.0C101.0 -103.0 110.0 -97.0 114.0 -88.0C71.0 -52.0 0.0 0.0 0.0 0.0Z"/></g>
<g fill="red" transform="translate(500 800) scale(0.1 -0.1)"><path d="M0.0 0.0 -38.0 -46.0H-344.0V-76.0H44.0C58.0 -76.0 67.0 -71.0 70.0 -60.0C42.0 -33.0 0.0 0.0 0.0 0.0Z"/></g>
<g fill="black" opacity=".8" transform="translate(500 800) scale(0.1 -0.1)"><path d="M0.0 0.0 -37.0 -46.0H-345.0L-342.0 -74.0H46.0C60.0 -74.0 69.0 -71.0 71.0 -59.0C44.0 -33.0 0.0 0.0 0.0 0.0Z"/></g>
<g fill="red" transform="translate(600 800) scale(0.1 -0.1)"><path d="M0.0 0.0 -56.0 -70.0H-273.0V-98.0H74.0C88.0 -98.0 98.0 -93.0 101.0 -82.0C63.0 -48.0 0.0 0.0 0.0 0.0Z"/></g>
<g fill="black" opacity=".8" transform="translate(600 800) scale(0.1 -0.1)"><path d="M0.0 0.0 -55.0 -71.0H-275.0L-270.0 -97.0H75.0C88.0 -97.0 97.0 -92.0 100.0 -82.0C63.0 -49.0 0.0 0.0 0.0 0.0Z"/></g>
<g fill="red" transform="translate(700 800) scale(0.1 -0.1)"><path d="M0.0 0.0 -41.0 -49.0H-614.0L-606.0 -79.0H48.0C62.0 -79.0 72.0 -74.0 74.0 -63.0C45.0 -35.0 0.0 0.0 0.0 0.0Z"/></g>
<g fill="black" opacity=".8" transform="translate(700 800) scale(0.1 -0.1)"><path d="M0.0 0.0 -39.0 -49.0H-613.0L-606.0 -78.0H49.0C63.0 -78.0 72.0 -75.0 75.0 -62.0C46.0 -35.0 0.0 0.0 0.0 0.0Z"/></g>
<g fill="red" transform="translate(800 800) scale(0.1 -0.1)"><path d="M0.0 0.0 -68.0 -90.0H-575.0L-567.0 -118.0H93.0C108.0 -118.0 119.0 -113.0 121.0 -102.0C76.0 -61.0 0.0 0.0 0.0 0.0Z"/></g>
<g fill="black" opacity=".8" transform="translate(800 800) scale(0.1 -0.1)"><path d="M0.0 0.0 -67.0 -90.0H-574.0L-567.0 -118.0H93.0C108.0 -118.0 118.0 -112.0 122.0 -102.0C77.0 -61.0 0.0 0.0 0.0 0.0Z"/></g>
<g fill="red" transform="translate(900 800) scale(0.1 -0.1)"><path d="M0.0 0.0 -39.0 -49.0H-373.0L-365.0 -79.0H50.0C63.0 -79.0 72.0 -74.0 75.0 -63.0C47.0 -35.0 0.0 0.0 0.0 0.0Z"/></g>
<g fill="black" opacity=".8" transform="translate(900 800) scale(0.1 -0.1)"><path d="M0.0 0.0 -40.0 -49.0H-371.0L-366.0 -78.0H49.0C63.0 -78.0 72.0 -75.0 75.0 -62.0C46.0 -35.0 0.0 0.0 0.0 0.0Z"/></g>
<g fill="red" transform="translate(1000 800) scale(0.1 -0.1)"><path d="M0.0 0.0 -62.0 -82.0H-321.0L-313.0 -110.0H85.0C99.0 -110.0 110.0 -105.0 112.0 -94.0C71.0 -56.0 0.0 0.0 0.0 0.0Z"/></g>
<g fill="black" opacity=".8" transform="translate(1000 800) scale(0.1 -0.1)"><path d="M0.0 0.0 -62.0 -82.0H-320.0L-313.0 -110.0H85.0C99.0 -110.0 109.0 -104.0 113.0 -94.0C71.0 -56.0 0.0 0.0 0.0 0.0Z"/></g>
<g fill="red" transform="translate(1100 800) scale(0.1 -0.1)"><path d="M0.0 0.0 -38.0 -47.0H-243.0L-235.0 -77.0H46.0C59.0 -77.0 69.0 -72.0 71.0 -61.0C44.0 -34.0 0.0 0.0 0.0 0.0Z"/></g>
<g fill="black" opacity=".8" transform="translate(1100 800) scale(0.1 -0.1)"><path d="M0.0 0.0 -38.0 -47.0H-241.0L-236.0 -76.0H47.0C60.0 -76.0 69.0 -72.0 72.0 -60.0C44.0 -34.0 0.0 0.0 0.0 0.0Z"/></g>
<g fill="red" transform="translate(1200 800) scale(0.1 -0.1)"><path d="M0.0 0.0 -57.0 -75.0H-209.0L-201.0 -103.0H76.0C90.0 -103.0 100.0 -98.0 103.0 -87.0C64.0 -51.0 0.0 0.0 0.0 0.0Z"/></g>
<g fill="black" opacity=".8" transform="translate(1200 800) scale(0.1 -0.1)"><path d="M0.0 0.0 -57.0 -75.0H-208.0L-201.0 -103.0H76.0C90.0 -103.0 100.0 -97.0 102.0 -87.0C65.0 -52.0 0.0 0.0 0.0 0.0Z"/></g>
<g fill="red" transform="translate(1300 800) scale(0.1 -0.1)"><path d="M0.0 0.0 -40.0 -48.0H-281.0L-273.0 -78.0H46.0C60.0 -78.0 69.0 -73.0 72.0 -62.0C44.0 -35.0 0.0 0.0 0.0 0.0Z"/></g>
<g fill="black" opacity=".8" transform="translate(1300 800) scale(0.1 -0.1)"><path d="M0.0 0.0 -39.0 -48.0H-279.0L-274.0 -77.0H48.0C61.0 -77.0 70.0 -73.0 73.0 -61.0C45.0 -34.0 0.0 0.0 0.0 0.0Z"/></g>
<g fill="red" transform="translate(1400 800) scale(0.1 -0.1)"><path d="M0.0 0.0 -63.0 -83.0H-252.0L-244.0 -111.0H86.0C100.0 -111.0 111.0 -106.0 114.0 -95.0C71.0 -56.0 0.0 0.0 0.0 0.0Z"/></g>
<g fill="black" opacity=".8" transform="translate(1400 800) scale(0.1 -0.1)"><path d="M0.0 0.0 -63.0 -83.0H-251.0L-244.0 -111.0H86.0C100.0 -111.0 110.0 -105.0 113.0 -95.0C72.0 -57.0 0.0 0.0 0.0 0.0Z"/></g>
<g fill="red" transform="translate(1500 800) scale(0.1 -0.1)"><path d="M0.0 0.0 -36.0 -45.0H-578.0L-570.0 -75.0H45.0C58.0 -75.0 67.0 -70.0 69.0 -59.0C43.0 -33.0 0.0 0.0 0.0 0.0Z"/></g>
<g fill="black" opacity=".8" transform="translate(1500 800) scale(0.1 -0.1)"><path d="M0.0 0.0 -37.0 -46.0H-576.0L-570.0 -73.0H46.0C59.0 -73.0 68.0 -70.0 71.0 -58.0C43.0 -33.0 0.0 0.0 0.0 0.0Z"/></g>
<g fill="red" transform="translate(1600 800) scale(0.1 -0.1)"><path d="M0.0 0.0 -60.0 -79.0H-539.0L-531.0 -107.0H80.0C94.0 -107.0 105.0 -102.0 107.0 -91.0C67.0 -54.0 0.0 0.0 0.0 0.0Z"/></g>
<g fill="black" opacity=".8" transform="translate(1600 800) scale(0.1 -0.1)"><path d="M0.0 0.0 -59.0 -80.0H-538.0L-532.0 -106.0H81.0C94.0 -106.0 103.0 -101.0 107.0 -91.0C68.0 -55.0 0.0 0.0 0.0 0.0Z"/></g>
<g fill="red" transform="translate(100 900) scale(0.1 -0.1)"><path d="M0.0 0.0 -46.0 -54.0H-827.0L-818.0 -84.0H60.0C73.0 -84.0 82.0 -79.0 85.0 -68.0C52.0 -38.0 0.0 0.0 0.0 0.0Z"/></g>
<g fill="black" opacity=".8" transform="translate(100 900) scale(0.1 -0.1)"><path d="M0.0 0.0 -44.0 -54.0H-825.0L-818.0 -85.0H56.0C71.0 -85.0 80.0 -82.0 84.0 -67.0C52.0 -39.0 0.0 0.0 0.0 0.0Z"/></g>
<g fill="red" transform="translate(200 900) scale(0.1 -0.1)"><path d="M0.0 0.0 -73.0 -91.0H-805.0L-797.0 -119.0H105.0C120.0 -119.0 131.0 -114.0 134.0 -103.0C83.0 -61.0 0.0 0.0 0.0 0.0Z"/></g>
<g fill="black" opacity=".8" transform="translate(200 900) scale(0.1 -0.1)"><path d="M0.0 0.0 -73.0 -90.0H-804.0L-797.0 -119.0H104.0C121.0 -119.0 131.0 -113.0 135.0 -102.0C84.0 -61.0 0.0 0.0 0.0 0.0Z"/></g>
<g fill="red" transform="translate(300 900) scale(0.1 -0.1)"><path d="M0.0 0.0 -39.0 -49.0H-581.0L-573.0 -79.0H50.0C62.0 -79.0 72.0 -74.0 75.0 -63.0C46.0 -35.0 0.0 0.0 0.0 0.0Z"/></g>
<g fill="black" opacity=".8" transform="translate(300 900) scale(0.1 -0.1)"><path d="M0.0 0.0 -39.0 -49.0H-580.0L-573.0 -78.0H49.0C63.0 -78.0 72.0 -75.0 75.0 -62.0C46.0 -35.0 0.0 0.0 0.0 0.0Z"/></g>
<g fill="red" transform="translate(400 900) scale(0.1 -0.1)"><path d="M0.0 0.0 -65.0 -86.0H-558.0L-550.0 -114.0H88.0C103.0 -114.0 113.0 -109.0 116.0 -98.0C73.0 -58.0 0.0 0.0 0.0 0.0Z"/></g>
<g fill="black" opacity=".8" transform="translate(400 900) scale(0.1 -0.1)"><path d="M0.0 0.0 -64.0 -86.0H-557.0L-550.0 -114.0H88.0C103.0 -114.0 113.0 -108.0 116.0 -98.0C74.0 -59.0 0.0 0.0 0.0 0.0Z"/></g>
<g fill="red" transform="translate(500 900) scale(0.1 -0.1)"><path d="M0.0 0.0 -42.0 -53.0H-801.0L-792.0 -83.0H54.0C68.0 -83.0 78.0 -78.0 81.0 -67.0C49.0 -38.0 0.0 0.0 0.0 0.0Z"/></g>
<g fill="black" opacity=".8" transform="translate(500 900) scale(0.1 -0.1)"><path d="M0.0 0.0 -42.0 -53.0H-799.0L-792.0 -82.0H54.0C69.0 -82.0 78.0 -79.0 82.0 -65.0C50.0 -37.0 0.0 0.0 0.0 0.0Z"/></g>
<g fill="red" transform="translate(600 900) scale(0.1 -0.1)"><path d="M0.0 0.0 -75.0 -96.0H-746.0L-738.0 -124.0H108.0C123.0 -124.0 134.0 -119.0 137.0 -108.0C86.0 -64.0 0.0 0.0 0.0 0.0Z"/></g>
<g fill="black" opacity=".8" transform="translate(600 900) scale(0.1 -0.1)"><path d="M0.0 0.0 -75.0 -96.0H-745.0L-738.0 -124.0H107.0C123.0 -124.0 134.0 -118.0 138.0 -108.0C87.0 -64.0 0.0 0.0 0.0 0.0Z"/></g>
<g fill="red" transform="translate(700 900) scale(0.1 -0.1)"><path d="M0.0 0.0 -44.0 -54.0H-424.0L-416.0 -84.0H56.0C70.0 -84.0 79.0 -79.0 81.0 -68.0C50.0 -38.0 0.0 0.0 0.0 0.0Z"/></g>
<g fill="black" opacity=".8" transform="translate(700 900) scale(0.1 -0.1)"><path d="M0.0 0.0 -43.0 -53.0H-423.0L-416.0 -86.0H51.0C67.0 -86.0 77.0 -81.0 80.0 -68.0C49.0 -38.0 0.0 0.0 0.0 0.0Z"/></g>
<g fill="red" transform="translate(800 900) scale(0.1 -0.1)"><path d="M0.0 0.0 -67.0 -103.0H-359.0L-351.0 -131.0H91.0C105.0 -131.0 116.0 -126.0 119.0 -115.0C77.0 -70.0 0.0 0.0 0.0 0.0Z"/></g>
<g fill="black" opacity=".8" transform="translate(800 900) scale(0.1 -0.1)"><path d="M0.0 0.0 -68.0 -100.0H-358.0L-351.0 -132.0H90.0C105.0 -132.0 117.0 -126.0 120.0 -114.0C78.0 -69.0 0.0 0.0 0.0 0.0Z"/></g>
<g fill="red" transform="translate(900 900) scale(0.1 -0.1)"><path d="M0.0 0.0 -40.0 -50.0H-591.0L-583.0 -80.0H50.0C64.0 -80.0 74.0 -75.0 76.0 -64.0C47.0 -36.0 0.0 0.0 0.0 0.0Z"/></g>
<g fill="black" opacity=".8" transform="translate(900 900) scale(0.1 -0.1)"><path d="M0.0 0.0 -40.0 -50.0H-590.0L-583.0 -80.0H50.0C64.0 -80.0 73.0 -76.0 77.0 -63.0C47.0 -36.0 0.0 0.0 0.0 0.0Z"/></g>
<g fill="red" transform="translate(1000 900) scale(0.1 -0.1)"><path d="M0.0 0.0 -70.0 -97.0H-559.0L-551.0 -125.0H97.0C112.0 -125.0 123.0 -120.0 126.0 -109.0C79.0 -65.0 0.0 0.0 0.0 0.0Z"/></g>
<g fill="black" opacity=".8" transform="translate(1000 900) scale(0.1 -0.1)"><path d="M0.0 0.0 -70.0 -97.0H-559.0L-551.0 -125.0H97.0C112.0 -125.0 122.0 -119.0 126.0 -109.0C80.0 -65.0 0.0 0.0 0.0 0.0Z"/></g>
<g fill="red" transform="translate(1100 900) scale(0.1 -0.1)"><path d="M0.0 0.0 -28.0 -31.0H-441.0V-61.0H33.0C46.0 -61.0 55.0 -56.0 58.0 -45.0C34.0 -24.0 0.0 0.0 0.0 0.0Z"/></g>
<g fill="black" opacity=".8" transform="translate(1100 900) scale(0.1 -0.1)"><path d="M0.0 0.0 -30.0 -37.0H-442.0L-439.0 -58.0H37.0C48.0 -58.0 55.0 -56.0 57.0 -46.0C35.0 -26.0 0.0 0.0 0.0 0.0Z"/></g>
<g fill="red" transform="translate(1200 900) scale(0.1 -0.1)"><path d="M0.0 0.0 -50.0 -56.0H-384.0V-84.0H65.0C79.0 -84.0 89.0 -79.0 92.0 -68.0C56.0 -38.0 0.0 0.0 0.0 0.0Z"/></g>
<g fill="black" opacity=".8" transform="translate(1200 900) scale(0.1 -0.1)"><path d="M0.0 0.0 -48.0 -60.0H-385.0L-382.0 -81.0H68.0C79.0 -81.0 86.0 -76.0 89.0 -69.0C56.0 -41.0 0.0 0.0 0.0 0.0Z"/></g>
<g fill="red" transform="translate(1300 900) scale(0.1 -0.1)"><path d="M0.0 0.0 -35.0 -43.0H-577.0L-569.0 -73.0H41.0C55.0 -73.0 63.0 -68.0 66.0 -57.0C41.0 -31.0 0.0 0.0 0.0 0.0Z"/></g>
<g fill="black" opacity=".8" transform="translate(1300 900) scale(0.1 -0.1)"><path d="M0.0 0.0 -35.0 -44.0H-577.0L-569.0 -72.0H42.0C55.0 -72.0 63.0 -69.0 67.0 -56.0C41.0 -31.0 0.0 0.0 0.0 0.0Z"/></g>
<g fill="red" transform="translate(1400 900) scale(0.1 -0.1)"><path d="M0.0 0.0 -45.0 -73.0H-609.0L-601.0 -101.0H54.0C68.0 -101.0 77.0 -96.0 80.0 -85.0C52.0 -51.0 0.0 0.0 0.0 0.0Z"/></g>
<g fill="black" opacity=".8" transform="translate(1400 900) scale(0.1 -0.1)"><path d="M0.0 0.0 -45.0 -74.0H-609.0L-601.0 -100.0H55.0C68.0 -100.0 77.0 -95.0 80.0 -85.0C52.0 -51.0 0.0 0.0 0.0 0.0Z"/></g>
<g fill="red" transform="translate(1500 900) scale(0.1 -0.1)"><path d="M0.0 0.0 -41.0 -50.0H-573.0L-565.0 -80.0H50.0C63.0 -80.0 73.0 -75.0 75.0 -64.0C47.0 -36.0 0.0 0.0 0.0 0.0Z"/></g>
<g fill="black" opacity=".8" transform="translate(1500 900) scale(0.1 -0.1)"><path d="M0.0 0.0 -40.0 -50.0H-572.0L-565.0 -79.0H50.0C64.0 -79.0 73.0 -76.0 77.0 -63.0C47.0 -36.0 0.0 0.0 0.0 0.0Z"/></g>
<g fill="red" transform="translate(1600 900) scale(0.1 -0.1)"><path d="M0.0 0.0 -78.0 -105.0H-534.0L-526.0 -133.0H112.0C126.0 -133.0 138.0 -128.0 141.0 -117.0C89.0 -70.0 0.0 0.0 0.0 0.0Z"/></g>
<g fill="black" opacity=".8" transform="translate(1600 900) scale(0.1 -0.1)"><path d="M0.0 0.0 -78.0 -105.0H-534.0L-526.0 -133.0H111.0C126.0 -133.0 137.0 -127.0 141.0 -117.0C90.0 -71.0 0.0 0.0 0.0 0.0Z"/></g>
<g fill="red" transform="translate(100 1000) scale(0.1 -0.1)"><path d="M0.0 0.0 -41.0 -50.0H-481.0L-473.0 -80.0H50.0C64.0 -80.0 73.0 -75.0 76.0 -64.0C46.0 -36.0 0.0 0.0 0.0 0.0Z"/></g>
<g fill="black" opacity=".8" transform="translate(100 1000) scale(0.1 -0.1)"><path d="M0.0 0.0 -40.0 -50.0H-480.0L-473.0 -79.0H50.0C64.0 -79.0 73.0 -76.0 77.0 -63.0C47.0 -36.0 0.0 0.0 0.0 0.0Z"/></g>
<g fill="red" transform="translate(200 1000) scale(0.1 -0.1)"><path d="M0.0 0.0 -75.0 -99.0H-437.0L-429.0 -127.0H105.0C120.0 -127.0 131.0 -122.0 134.0 -111.0C84.0 -66.0 0.0 0.0 0.0 0.0Z"/></g>
<g fill="black" opacity=".8" transform="translate(200 1000) scale(0.1 -0.1)"><path d="M0.0 0.0 -74.0 -99.0H-436.0L-429.0 -127.0H105.0C120.0 -127.0 131.0 -121.0 134.0 -111.0C85.0 -67.0 0.0 0.0 0.0 0.0Z"/></g>
<g fill="red" transform="translate(300 1000) scale(0.1 -0.1)"><path d="M0.0 0.0 -44.0 -52.0H-779.0L-770.0 -82.0H56.0C70.0 -82.0 80.0 -77.0 83.0 -66.0C51.0 -37.0 0.0 0.0 0.0 0.0Z"/></g>
<g fill="black" opacity=".8" transform="translate(300 1000) scale(0.1 -0.1)"><path d="M0.0 0.0 -42.0 -53.0H-778.0L-770.0 -83.0H54.0C69.0 -83.0 78.0 -80.0 81.0 -66.0C50.0 -38.0 0.0 0.0 0.0 0.0Z"/></g>
<g fill="red" transform="translate(400 1000) scale(0.1 -0.1)"><path d="M0.0 0.0 -78.0 -101.0H-772.0L-764.0 -129.0H111.0C126.0 -129.0 137.0 -124.0 140.0 -113.0C88.0 -67.0 0.0 0.0 0.0 0.0Z"/></g>
<g fill="black" opacity=".8" transform="translate(400 1000) scale(0.1 -0.1)"><path d="M0.0 0.0 -77.0 -100.0H-772.0L-764.0 -129.0H110.0C126.0 -129.0 137.0 -123.0 141.0 -112.0C89.0 -67.0 0.0 0.0 0.0 0.0Z"/></g>
<g fill="red" transform="translate(500 1000) scale(0.1 -0.1)"><path d="M0.0 0.0 -42.0 -53.0H-639.0L-631.0 -83.0H55.0C67.0 -83.0 77.0 -78.0 80.0 -67.0C50.0 -38.0 0.0 0.0 0.0 0.0Z"/></g>
<g fill="black" opacity=".8" transform="translate(500 1000) scale(0.1 -0.1)"><path d="M0.0 0.0 -42.0 -52.0H-637.0L-631.0 -83.0H52.0C67.0 -83.0 77.0 -80.0 80.0 -66.0C49.0 -37.0 0.0 0.0 0.0 0.0Z"/></g>
<g fill="red" transform="translate(600 1000) scale(0.1 -0.1)"><path d="M0.0 0.0 -62.0 -83.0H-597.0L-589.0 -111.0H83.0C97.0 -111.0 107.0 -106.0 110.0 -95.0C69.0 -57.0 0.0 0.0 0.0 0.0Z"/></g>
<g fill="black" opacity=".8" transform="translate(600 1000) scale(0.1 -0.1)"><path d="M0.0 0.0 -61.0 -82.0H-596.0L-589.0 -111.0H82.0C97.0 -111.0 107.0 -105.0 111.0 -95.0C70.0 -56.0 0.0 0.0 0.0 0.0Z"/></g>
<g fill="red" transform="translate(700 1000) scale(0.1 -0.1)"><path d="M0.0 0.0 -43.0 -53.0H-815.0L-806.0 -83.0H53.0C67.0 -83.0 77.0 -78.0 80.0 -67.0C49.0 -38.0 0.0 0.0 0.0 0.0Z"/></g>
<g fill="black" opacity=".8" transform="translate(700 1000) scale(0.1 -0.1)"><path d="M0.0 0.0 -42.0 -52.0H-814.0L-806.0 -83.0H53.0C68.0 -83.0 77.0 -79.0 81.0 -65.0C49.0 -37.0 0.0 0.0 0.0 0.0Z"/></g>
<g fill="red" transform="translate(800 1000) scale(0.1 -0.1)"><path d="M0.0 0.0 -77.0 -105.0H-790.0L-782.0 -133.0H109.0C124.0 -133.0 136.0 -128.0 139.0 -117.0C87.0 -70.0 0.0 0.0 0.0 0.0Z"/></g>
<g fill="black" opacity=".8" transform="translate(800 1000) scale(0.1 -0.1)"><path d="M0.0 0.0 -77.0 -104.0H-790.0L-782.0 -133.0H108.0C124.0 -133.0 135.0 -127.0 140.0 -117.0C89.0 -70.0 0.0 0.0 0.0 0.0Z"/></g>
<g fill="red" transform="translate(900 1000) scale(0.1 -0.1)"><path d="M0.0 0.0 -40.0 -50.0H-522.0L-514.0 -80.0H50.0C64.0 -80.0 73.0 -75.0 76.0 -64.0C46.0 -36.0 0.0 0.0 0.0 0.0Z"/></g>
<g fill="black" opacity=".8" transform="translate(900 1000) scale(0.1 -0.1)"><path d="M0.0 0.0 -40.0 -50.0H-521.0L-514.0 -79.0H50.0C64.0 -79.0 73.0 -76.0 76.0 -63.0C47.0 -36.0 0.0 0.0 0.0 0.0Z"/></g>
<g fill="red" transform="translate(1000 1000) scale(0.1 -0.1)"><path d="M0.0 0.0 -72.0 -95.0H-518.0L-510.0 -123.0H99.0C114.0 -123.0 125.0 -118.0 128.0 -107.0C80.0 -64.0 0.0 0.0 0.0 0.0Z"/></g>
<g fill="black" opacity=".8" transform="translate(1000 1000) scale(0.1 -0.1)"><path d="M0.0 0.0 -71.0 -95.0H-518.0L-509.0 -123.0H99.0C114.0 -123.0 125.0 -117.0 128.0 -107.0C81.0 -64.0 0.0 0.0 0.0 0.0Z"/></g>
<g fill="red" transform="translate(1100 1000) scale(0.1 -0.1)"><path d="M0.0 0.0 -41.0 -50.0H-527.0L-519.0 -80.0H50.0C64.0 -80.0 73.0 -75.0 76.0 -64.0C46.0 -36.0 0.0 0.0 0.0 0.0Z"/></g>
<g fill="black" opacity=".8" transform="translate(1100 1000) scale(0.1 -0.1)"><path d="M0.0 0.0 -40.0 -50.0H-526.0L-519.0 -79.0H50.0C64.0 -79.0 73.0 -76.0 77.0 -63.0C47.0 -36.0 0.0 0.0 0.0 0.0Z"/></g>
<g fill="red" transform="translate(1200 1000) scale(0.1 -0.1)"><path d="M0.0 0.0 -68.0 -90.0H-491.0L-483.0 -118.0H94.0C108.0 -118.0 119.0 -113.0 122.0 -102.0C77.0 -61.0 0.0 0.0 0.0 0.0Z"/></g>
<g fill="black" opacity=".8" transform="translate(1200 1000) scale(0.1 -0.1)"><path d="M0.0 0.0 -67.0 -90.0H-490.0L-483.0 -118.0H93.0C108.0 -118.0 119.0 -112.0 122.0 -102.0C77.0 -61.0 0.0 0.0 0.0 0.0Z"/></g>
<g fill="red" transform="translate(1300 1000) scale(0.1 -0.1)"><path d="M0.0 0.0 -40.0 -50.0H-402.0L-394.0 -80.0H50.0C64.0 -80.0 74.0 -75.0 76.0 -64.0C47.0 -36.0 0.0 0.0 0.0 0.0Z"/></g>
<g fill="black" opacity=".8" transform="translate(1300 1000) scale(0.1 -0.1)"><path d="M0.0 0.0 -40.0 -50.0H-401.0L-394.0 -80.0H50.0C64.0 -80.0 73.0 -76.0 76.0 -63.0C47.0 -36.0 0.0 0.0 0.0 0.0Z"/></g>
<g fill="red" transform="translate(1400 1000) scale(0.1 -0.1)"><path d="M0.0 0.0 -68.0 -90.0H-416.0L-408.0 -118.0H94.0C109.0 -118.0 120.0 -113.0 122.0 -102.0C77.0 -61.0 0.0 0.0 0.0 0.0Z"/></g>
<g fill="black" opacity=".8" transform="translate(1400 1000) scale(0.1 -0.1)"><path d="M0.0 0.0 -68.0 -90.0H-416.0L-407.0 -118.0H94.0C109.0 -118.0 119.0 -112.0 123.0 -102.0C77.0 -61.0 0.0 0.0 0.0 0.0Z"/></g>
<g fill="red" transform="translate(1500 1000) scale(0.1 -0.1)"><path d="M0.0 0.0 -40.0 -50.0H-596.0L-588.0 -80.0H50.0C64.0 -80.0 73.0 -75.0 76.0 -64.0C46.0 -36.0 0.0 0.0 0.0 0.0Z"/></g>
<g fill="black" opacity=".8" transform="translate(1500 1000) scale(0.1 -0.1)"><path d="M0.0 0.0 -40.0 -50.0H-595.0L-588.0 -79.0H50.0C64.0 -79.0 73.0 -76.0 77.0 -63.0C47.0 -36.0 0.0 0.0 0.0 0.0Z"/></g>
<g fill="red" transform="translate(1600 1000) scale(0.1 -0.1)"><path d="M0.0 0.0 -68.0 -90.0H-566.0L-558.0 -118.0H94.0C108.0 -118.0 119.0 -113.0 122.0 -102.0C77.0 -61.0 0.0 0.0 0.0 0.0Z"/></g>
<g fill="black" opacity=".8" transform="translate(1600 1000) scale(0.1 -0.1)"><path d="M0.0 0.0 -67.0 -90.0H-565.0L-558.0 -118.0H93.0C108.0 -118.0 119.0 -112.0 122.0 -102.0C77.0 -61.0 0.0 0.0 0.0 0.0Z"/></g>
<g fill="red" transform="translate(100 1100) scale(0.1 -0.1)"><path d="M0.0 0.0 -41.0 -50.0H-771.0L-762.0 -80.0H51.0C64.0 -80.0 73.0 -75.0 76.0 -64.0C47.0 -36.0 0.0 0.0 0.0 0.0Z"/></g>
<g fill="black" opacity=".8" transform="translate(100 1100) scale(0.1 -0.1)"><path d="M0.0 0.0 -40.0 -50.0H-770.0L-762.0 -79.0H51.0C65.0 -79.0 74.0 -76.0 77.0 -63.0C47.0 -36.0 0.0 0.0 0.0 0.0Z"/></g>
<g fill="red" transform="translate(200 1100) scale(0.1 -0.1)"><path d="M0.0 0.0 -78.0 -103.0H-753.0L-745.0 -131.0H110.0C125.0 -131.0 136.0 -126.0 139.0 -115.0C88.0 -69.0 0.0 0.0 0.0 0.0Z"/></g>
<g fill="black" opacity=".8" transform="translate(200 1100) scale(0.1 -0.1)"><path d="M0.0 0.0 -77.0 -103.0H-753.0L-745.0 -131.0H110.0C125.0 -131.0 136.0 -125.0 140.0 -115.0C89.0 -69.0 0.0 0.0 0.0 0.0Z"/></g>
<g fill="red" transform="translate(300 1100) scale(0.1 -0.1)"><path d="M0.0 0.0 -41.0 -50.0H-472.0L-464.0 -80.0H49.0C63.0 -80.0 73.0 -75.0 76.0 -64.0C46.0 -36.0 0.0 0.0 0.0 0.0Z"/></g>
<g fill="black" opacity=".8" transform="translate(300 1100) scale(0.1 -0.1)"><path d="M0.0 0.0 -40.0 -50.0H-471.0L-464.0 -80.0H49.0C63.0 -80.0 73.0 -76.0 76.0 -63.0C47.0 -36.0 0.0 0.0 0.0 0.0Z"/></g>
<g fill="red" transform="translate(400 1100) scale(0.1 -0.1)"><path d="M0.0 0.0 -73.0 -103.0H-435.0L-427.0 -131.0H100.0C115.0 -131.0 126.0 -126.0 129.0 -115.0C82.0 -69.0 0.0 0.0 0.0 0.0Z"/></g>
<g fill="black" opacity=".8" transform="translate(400 1100) scale(0.1 -0.1)"><path d="M0.0 0.0 -72.0 -102.0H-435.0L-426.0 -131.0H100.0C115.0 -131.0 126.0 -125.0 130.0 -115.0C83.0 -69.0 0.0 0.0 0.0 0.0Z"/></g>
<g fill="red" transform="translate(500 1100) scale(0.1 -0.1)"><path d="M0.0 0.0 -40.0 -50.0H-453.0L-445.0 -80.0H50.0C64.0 -80.0 73.0 -75.0 76.0 -64.0C47.0 -36.0 0.0 0.0 0.0 0.0Z"/></g>
<g fill="black" opacity=".8" transform="translate(500 1100) scale(0.1 -0.1)"><path d="M0.0 0.0 -40.0 -50.0H-452.0L-445.0 -79.0H50.0C64.0 -79.0 73.0 -76.0 76.0 -63.0C47.0 -36.0 0.0 0.0 0.0 0.0Z"/></g>
<g fill="red" transform="translate(600 1100) scale(0.1 -0.1)"><path d="M0.0 0.0 -68.0 -89.0H-449.0L-441.0 -117.0H96.0C111.0 -117.0 122.0 -112.0 125.0 -101.0C78.0 -60.0 0.0 0.0 0.0 0.0Z"/></g>
<g fill="black" opacity=".8" transform="translate(600 1100) scale(0.1 -0.1)"><path d="M0.0 0.0 -69.0 -89.0H-449.0L-441.0 -117.0H96.0C111.0 -117.0 121.0 -111.0 125.0 -101.0C78.0 -60.0 0.0 0.0 0.0 0.0Z"/></g>
<g fill="red" transform="translate(700 1100) scale(0.1 -0.1)"><path d="M0.0 0.0 -42.0 -53.0H-519.0L-511.0 -83.0H54.0C68.0 -83.0 77.0 -78.0 80.0 -67.0C49.0 -38.0 0.0 0.0 0.0 0.0Z"/></g>
<g fill="black" opacity=".8" transform="translate(700 1100) scale(0.1 -0.1)"><path d="M0.0 0.0 -42.0 -52.0H-518.0L-511.0 -83.0H53.0C68.0 -83.0 77.0 -79.0 80.0 -66.0C49.0 -37.0 0.0 0.0 0.0 0.0Z"/></g>
<g fill="red" transform="translate(800 1100) scale(0.1 -0.1)"><path d="M0.0 0.0 -71.0 -93.0H-489.0L-481.0 -121.0H100.0C115.0 -121.0 126.0 -116.0 129.0 -105.0C81.0 -62.0 0.0 0.0 0.0 0.0Z"/></g>
<g fill="black" opacity=".8" transform="translate(800 1100) scale(0.1 -0.1)"><path d="M0.0 0.0 -71.0 -92.0H-488.0L-481.0 -121.0H99.0C115.0 -121.0 126.0 -115.0 130.0 -105.0C82.0 -62.0 0.0 0.0 0.0 0.0Z"/></g>
<g fill="red" transform="translate(900 1100) scale(0.1 -0.1)"><path d="M0.0 0.0 -45.0 -56.0H-808.0L-799.0 -86.0H59.0C73.0 -86.0 83.0 -81.0 85.0 -70.0C52.0 -40.0 0.0 0.0 0.0 0.0Z"/></g>
<g fill="black" opacity=".8" transform="translate(900 1100) scale(0.1 -0.1)"><path d="M0.0 0.0 -44.0 -55.0H-807.0L-799.0 -87.0H56.0C71.0 -87.0 81.0 -83.0 85.0 -69.0C52.0 -39.0 0.0 0.0 0.0 0.0Z"/></g>
<g fill="red" transform="translate(1000 1100) scale(0.1 -0.1)"><path d="M0.0 0.0 -71.0 -95.0H-789.0L-781.0 -123.0H101.0C115.0 -123.0 126.0 -118.0 129.0 -107.0C81.0 -64.0 0.0 0.0 0.0 0.0Z"/></g>
<g fill="black" opacity=".8" transform="translate(1000 1100) scale(0.1 -0.1)"><path d="M0.0 0.0 -71.0 -93.0H-789.0L-781.0 -123.0H99.0C116.0 -123.0 126.0 -117.0 131.0 -106.0C82.0 -63.0 0.0 0.0 0.0 0.0Z"/></g>
<g fill="red" transform="translate(1100 1100) scale(0.1 -0.1)"><path d="M0.0 0.0 -43.0 -52.0H-833.0L-824.0 -82.0H53.0C67.0 -82.0 75.0 -77.0 78.0 -66.0C48.0 -37.0 0.0 0.0 0.0 0.0Z"/></g>
<g fill="black" opacity=".8" transform="translate(1100 1100) scale(0.1 -0.1)"><path d="M0.0 0.0 -41.0 -52.0H-832.0L-824.0 -81.0H53.0C67.0 -81.0 76.0 -78.0 80.0 -64.0C49.0 -37.0 0.0 0.0 0.0 0.0Z"/></g>
<g fill="red" transform="translate(1200 1100) scale(0.1 -0.1)"><path d="M0.0 0.0 -77.0 -100.0H-813.0L-805.0 -128.0H111.0C126.0 -128.0 137.0 -123.0 140.0 -112.0C88.0 -67.0 0.0 0.0 0.0 0.0Z"/></g>
<g fill="black" opacity=".8" transform="translate(1200 1100) scale(0.1 -0.1)"><path d="M0.0 0.0 -77.0 -100.0H-813.0L-805.0 -128.0H110.0C126.0 -128.0 137.0 -122.0 141.0 -112.0C89.0 -67.0 0.0 0.0 0.0 0.0Z"/></g>
<g fill="red" transform="translate(1300 1100) scale(0.1 -0.1)"><path d="M0.0 0.0 -41.0 -50.0H-356.0L-348.0 -80.0H49.0C63.0 -80.0 73.0 -75.0 75.0 -64.0C46.0 -36.0 0.0 0.0 0.0 0.0Z"/></g>
<g fill="black" opacity=".8" transform="translate(1300 1100) scale(0.1 -0.1)"><path d="M0.0 0.0 -40.0 -50.0H-355.0L-348.0 -80.0H48.0C62.0 -80.0 72.0 -76.0 75.0 -63.0C46.0 -35.0 0.0 0.0 0.0 0.0Z"/></g>
<g fill="red" transform="translate(1400 1100) scale(0.1 -0.1)"><path d="M0.0 0.0 -60.0 -91.0H-319.0L-311.0 -119.0H79.0C93.0 -119.0 104.0 -114.0 106.0 -103.0C69.0 -62.0 0.0 0.0 0.0 0.0Z"/></g>
<g fill="black" opacity=".8" transform="translate(1400 1100) scale(0.1 -0.1)"><path d="M0.0 0.0 -60.0 -90.0H-318.0L-311.0 -119.0H79.0C93.0 -119.0 104.0 -113.0 107.0 -103.0C69.0 -62.0 0.0 0.0 0.0 0.0Z"/></g>
<g fill="red" transform="translate(1500 1100) scale(0.1 -0.1)"><path d="M0.0 0.0 -43.0 -52.0H-478.0L-470.0 -82.0H53.0C67.0 -82.0 76.0 -77.0 79.0 -66.0C48.0 -37.0 0.0 0.0 0.0 0.0Z"/></g>
<g fill="black" opacity=".8" transform="translate(1500 1100) scale(0.1 -0.1)"><path d="M0.0 0.0 -41.0 -52.0H-477.0L-470.0 -82.0H51.0C66.0 -82.0 75.0 -79.0 79.0 -65.0C48.0 -37.0 0.0 0.0 0.0 0.0Z"/></g>
<g fill="red" transform="translate(1600 1100) scale(0.1 -0.1)"><path d="M0.0 0.0 -68.0 -93.0H-463.0L-455.0 -121.0H93.0C107.0 -121.0 118.0 -116.0 121.0 -105.0C76.0 -63.0 0.0 0.0 0.0 0.0Z"/></g>
<g fill="black" opacity=".8" transform="translate(1600 1100) scale(0.1 -0.1)"><path d="M0.0 0.0 -67.0 -92.0H-463.0L-455.0 -121.0H92.0C107.0 -121.0 118.0 -115.0 122.0 -105.0C77.0 -63.0 0.0 0.0 0.0 0.0Z"/></g>
<g fill="red" transform="translate(100 1200) scale(0.1 -0.1)"><path d="M0.0 0.0 -44.0 -54.0H-373.0L-365.0 -84.0H56.0C69.0 -84.0 79.0 -79.0 82.0 -68.0C51.0 -38.0 0.0 0.0 0.0 0.0Z"/></g>
<g fill="black" opacity=".8" transform="translate(100 1200) scale(0.1 -0.1)"><path d="M0.0 0.0 -43.0 -53.0H-372.0L-365.0 -87.0H50.0C66.0 -87.0 76.0 -82.0 80.0 -68.0C49.0 -38.0 0.0 0.0 0.0 0.0Z"/></g>
<g fill="red" transform="translate(200 1200) scale(0.1 -0.1)"><path d="M0.0 0.0 -61.0 -101.0H-306.0L-298.0 -129.0H78.0C92.0 -129.0 103.0 -124.0 105.0 -113.0C69.0 -69.0 0.0 0.0 0.0 0.0Z"/></g>
<g fill="black" opacity=".8" transform="translate(200 1200) scale(0.1 -0.1)"><path d="M0.0 0.0 -61.0 -98.0H-305.0L-297.0 -130.0H77.0C92.0 -130.0 104.0 -124.0 107.0 -112.0C70.0 -68.0 0.0 0.0 0.0 0.0Z"/></g>
<g fill="red" transform="translate(300 1200) scale(0.1 -0.1)"><path d="M0.0 0.0 -41.0 -50.0H-338.0L-330.0 -80.0H50.0C64.0 -80.0 73.0 -75.0 76.0 -64.0C46.0 -36.0 0.0 0.0 0.0 0.0Z"/></g>
<g fill="black" opacity=".8" transform="translate(300 1200) scale(0.1 -0.1)"><path d="M0.0 0.0 -40.0 -50.0H-337.0L-330.0 -80.0H49.0C63.0 -80.0 72.0 -76.0 75.0 -64.0C46.0 -36.0 0.0 0.0 0.0 0.0Z"/></g>
<g fill="red" transform="translate(400 1200) scale(0.1 -0.1)"><path d="M0.0 0.0 -66.0 -95.0H-339.0L-331.0 -123.0H90.0C104.0 -123.0 115.0 -118.0 118.0 -107.0C75.0 -65.0 0.0 0.0 0.0 0.0Z"/></g>
<g fill="black" opacity=".8" transform="translate(400 1200) scale(0.1 -0.1)"><path d="M0.0 0.0 -66.0 -94.0H-339.0L-330.0 -123.0H89.0C104.0 -123.0 115.0 -117.0 118.0 -107.0C76.0 -64.0 0.0 0.0 0.0 0.0Z"/></g>
<g fill="red" transform="translate(500 1200) scale(0.1 -0.1)"><path d="M0.0 0.0 -38.0 -46.0H-353.0V-76.0H45.0C58.0 -76.0 68.0 -71.0 70.0 -60.0C43.0 -33.0 0.0 0.0 0.0 0.0Z"/></g>
<g fill="black" opacity=".8" transform="translate(500 1200) scale(0.1 -0.1)"><path d="M0.0 0.0 -38.0 -47.0H-355.0L-350.0 -74.0H46.0C60.0 -74.0 69.0 -71.0 71.0 -59.0C44.0 -33.0 0.0 0.0 0.0 0.0Z"/></g>
<g fill="red" transform="translate(600 1200) scale(0.1 -0.1)"><path d="M0.0 0.0 -61.0 -80.0H-306.0V-108.0H84.0C98.0 -108.0 108.0 -103.0 111.0 -92.0C70.0 -54.0 0.0 0.0 0.0 0.0Z"/></g>
<g fill="black" opacity=".8" transform="translate(600 1200) scale(0.1 -0.1)"><path d="M0.0 0.0 -61.0 -81.0H-309.0L-302.0 -107.0H84.0C98.0 -107.0 107.0 -102.0 111.0 -92.0C70.0 -55.0 0.0 0.0 0.0 0.0Z"/></g>
<g fill="red" transform="translate(700 1200) scale(0.1 -0.1)"><path d="M0.0 0.0 -37.0 -46.0H-325.0V-76.0H44.0C58.0 -76.0 67.0 -71.0 70.0 -60.0C43.0 -33.0 0.0 0.0 0.0 0.0Z"/></g>
<g fill="black" opacity=".8" transform="translate(700 1200) scale(0.1 -0.1)"><path d="M0.0 0.0 -37.0 -47.0H-327.0L-322.0 -74.0H46.0C60.0 -74.0 68.0 -71.0 71.0 -59.0C44.0 -33.0 0.0 0.0 0.0 0.0Z"/></g>
<g fill="red" transform="translate(800 1200) scale(0.1 -0.1)"><path d="M0.0 0.0 -54.0 -70.0H-281.0V-98.0H73.0C87.0 -98.0 97.0 -93.0 100.0 -82.0C62.0 -48.0 0.0 0.0 0.0 0.0Z"/></g>
<g fill="black" opacity=".8" transform="translate(800 1200) scale(0.1 -0.1)"><path d="M0.0 0.0 -55.0 -71.0H-283.0L-278.0 -97.0H73.0C87.0 -97.0 96.0 -92.0 99.0 -82.0C62.0 -49.0 0.0 0.0 0.0 0.0Z"/></g>
<g fill="red" transform="translate(900 1200) scale(0.1 -0.1)"><path d="M0.0 0.0 -39.0 -49.0H-387.0L-379.0 -79.0H48.0C62.0 -79.0 71.0 -74.0 74.0 -63.0C46.0 -35.0 0.0 0.0 0.0 0.0Z"/></g>
<g fill="black" opacity=".8" transform="translate(900 1200) scale(0.1 -0.1)"><path d="M0.0 0.0 -39.0 -49.0H-386.0L-379.0 -79.0H48.0C62.0 -79.0 71.0 -75.0 74.0 -62.0C46.0 -35.0 0.0 0.0 0.0 0.0Z"/></g>
<g fill="red" transform="translate(1000 1200) scale(0.1 -0.1)"><path d="M0.0 0.0 -58.0 -79.0H-378.0L-370.0 -107.0H76.0C90.0 -107.0 101.0 -102.0 103.0 -91.0C65.0 -54.0 0.0 0.0 0.0 0.0Z"/></g>
<g fill="black" opacity=".8" transform="translate(1000 1200) scale(0.1 -0.1)"><path d="M0.0 0.0 -57.0 -79.0H-377.0L-370.0 -107.0H76.0C90.0 -107.0 100.0 -101.0 103.0 -91.0C66.0 -54.0 0.0 0.0 0.0 0.0Z"/></g>
<g fill="red" transform="translate(1100 1200) scale(0.1 -0.1)"><path d="M0.0 0.0 -41.0 -49.0H-425.0L-417.0 -79.0H48.0C62.0 -79.0 72.0 -74.0 74.0 -63.0C45.0 -35.0 0.0 0.0 0.0 0.0Z"/></g>
<g fill="black" opacity=".8" transform="translate(1100 1200) scale(0.1 -0.1)"><path d="M0.0 0.0 -39.0 -49.0H-424.0L-417.0 -79.0H47.0C61.0 -79.0 71.0 -75.0 74.0 -63.0C45.0 -35.0 0.0 0.0 0.0 0.0Z"/></g>
<g fill="red" transform="translate(1200 1200) scale(0.1 -0.1)"><path d="M0.0 0.0 -55.0 -86.0H-427.0L-419.0 -114.0H71.0C85.0 -114.0 95.0 -109.0 98.0 -98.0C63.0 -59.0 0.0 0.0 0.0 0.0Z"/></g>
<g fill="black" opacity=".8" transform="translate(1200 1200) scale(0.1 -0.1)"><path d="M0.0 0.0 -56.0 -85.0H-427.0L-418.0 -114.0H71.0C85.0 -114.0 95.0 -108.0 98.0 -98.0C64.0 -59.0 0.0 0.0 0.0 0.0Z"/></g>
<g fill="red" transform="translate(1300 1200) scale(0.1 -0.1)"><path d="M0.0 0.0 -32.0 -40.0H-597.0L-589.0 -70.0H36.0C50.0 -70.0 59.0 -65.0 61.0 -54.0C37.0 -30.0 0.0 0.0 0.0 0.0Z"/></g>
<g fill="black" opacity=".8" transform="translate(1300 1200) scale(0.1 -0.1)"><path d="M0.0 0.0 -33.0 -41.0H-596.0L-589.0 -67.0H40.0C52.0 -67.0 60.0 -64.0 63.0 -53.0C38.0 -29.0 0.0 0.0 0.0 0.0Z"/></g>
<g fill="red" transform="translate(1400 1200) scale(0.1 -0.1)"><path d="M0.0 0.0 -44.0 -67.0H-598.0L-590.0 -95.0H53.0C66.0 -95.0 75.0 -90.0 78.0 -79.0C50.0 -47.0 0.0 0.0 0.0 0.0Z"/></g>
<g fill="black" opacity=".8" transform="translate(1400 1200) scale(0.1 -0.1)"><path d="M0.0 0.0 -43.0 -69.0H-597.0L-590.0 -94.0H54.0C66.0 -94.0 74.0 -89.0 77.0 -80.0C50.0 -48.0 0.0 0.0 0.0 0.0Z"/></g>
<g fill="red" transform="translate(1500 1200) scale(0.1 -0.1)"><path d="M0.0 0.0 -42.0 -50.0H-297.0L-289.0 -80.0H50.0C64.0 -80.0 72.0 -75.0 75.0 -64.0C46.0 -36.0 0.0 0.0 0.0 0.0Z"/></g>
<g fill="black" opacity=".8" transform="translate(1500 1200) scale(0.1 -0.1)"><path d="M0.0 0.0 -40.0 -50.0H-296.0L-289.0 -81.0H48.0C62.0 -81.0 72.0 -77.0 75.0 -64.0C46.0 -36.0 0.0 0.0 0.0 0.0Z"/></g>
<g fill="red" transform="translate(1600 1200) scale(0.1 -0.1)"><path d="M0.0 0.0 -64.0 -96.0H-263.0L-255.0 -126.0H85.0C99.0 -126.0 110.0 -121.0 113.0 -110.0C72.0 -67.0 0.0 0.0 0.0 0.0Z"/></g>
<g fill="black" opacity=".8" transform="translate(1600 1200) scale(0.1 -0.1)"><path d="M0.0 0.0 -64.0 -96.0H-263.0L-254.0 -126.0H84.0C99.0 -126.0 110.0 -120.0 113.0 -109.0C73.0 -66.0 0.0 0.0 0.0 0.0Z"/></g>
<g fill="red" transform="translate(100 1300) scale(0.1 -0.1)"><path d="M0.0 0.0 -41.0 -50.0H-398.0L-390.0 -80.0H50.0C63.0 -80.0 73.0 -75.0 76.0 -64.0C46.0 -36.0 0.0 0.0 0.0 0.0Z"/></g>
<g fill="black" opacity=".8" transform="translate(100 1300) scale(0.1 -0.1)"><path d="M0.0 0.0 -40.0 -50.0H-397.0L-390.0 -81.0H48.0C63.0 -81.0 72.0 -77.0 75.0 -64.0C46.0 -36.0 0.0 0.0 0.0 0.0Z"/></g>
<g fill="red" transform="translate(200 1300) scale(0.1 -0.1)"><path d="M0.0 0.0 -64.0 -96.0H-333.0L-325.0 -126.0H85.0C100.0 -126.0 110.0 -121.0 113.0 -110.0C72.0 -67.0 0.0 0.0 0.0 0.0Z"/></g>
<g fill="black" opacity=".8" transform="translate(200 1300) scale(0.1 -0.1)"><path d="M0.0 0.0 -64.0 -96.0H-332.0L-325.0 -126.0H85.0C99.0 -126.0 110.0 -120.0 114.0 -109.0C74.0 -66.0 0.0 0.0 0.0 0.0Z"/></g>
<g fill="red" transform="translate(300 1300) scale(0.1 -0.1)"><path d="M0.0 0.0 -39.0 -49.0H-521.0L-513.0 -79.0H49.0C63.0 -79.0 72.0 -74.0 75.0 -63.0C46.0 -35.0 0.0 0.0 0.0 0.0Z"/></g>
<g fill="black" opacity=".8" transform="translate(300 1300) scale(0.1 -0.1)"><path d="M0.0 0.0 -39.0 -49.0H-520.0L-513.0 -79.0H49.0C63.0 -79.0 72.0 -75.0 75.0 -62.0C46.0 -35.0 0.0 0.0 0.0 0.0Z"/></g>
<g fill="red" transform="translate(400 1300) scale(0.1 -0.1)"><path d="M0.0 0.0 -61.0 -85.0H-522.0L-514.0 -113.0H84.0C98.0 -113.0 109.0 -108.0 111.0 -97.0C70.0 -58.0 0.0 0.0 0.0 0.0Z"/></g>
<g fill="black" opacity=".8" transform="translate(400 1300) scale(0.1 -0.1)"><path d="M0.0 0.0 -62.0 -85.0H-522.0L-514.0 -113.0H83.0C98.0 -113.0 108.0 -107.0 112.0 -97.0C71.0 -58.0 0.0 0.0 0.0 0.0Z"/></g>
<g fill="red" transform="translate(500 1300) scale(0.1 -0.1)"><path d="M0.0 0.0 -40.0 -50.0H-591.0L-583.0 -80.0H49.0C63.0 -80.0 72.0 -75.0 75.0 -64.0C46.0 -36.0 0.0 0.0 0.0 0.0Z"/></g>
<g fill="black" opacity=".8" transform="translate(500 1300) scale(0.1 -0.1)"><path d="M0.0 0.0 -40.0 -50.0H-590.0L-583.0 -79.0H49.0C64.0 -79.0 73.0 -76.0 76.0 -63.0C47.0 -35.0 0.0 0.0 0.0 0.0Z"/></g>
<g fill="red" transform="translate(600 1300) scale(0.1 -0.1)"><path d="M0.0 0.0 -66.0 -91.0H-559.0L-551.0 -119.0H91.0C105.0 -119.0 116.0 -114.0 119.0 -103.0C75.0 -62.0 0.0 0.0 0.0 0.0Z"/></g>
<g fill="black" opacity=".8" transform="translate(600 1300) scale(0.1 -0.1)"><path d="M0.0 0.0 -66.0 -91.0H-558.0L-551.0 -119.0H90.0C105.0 -119.0 115.0 -113.0 119.0 -103.0C76.0 -62.0 0.0 0.0 0.0 0.0Z"/></g>
<g fill="red" transform="translate(700 1300) scale(0.1 -0.1)"><path d="M0.0 0.0 -40.0 -50.0H-467.0L-459.0 -80.0H50.0C64.0 -80.0 73.0 -75.0 76.0 -64.0C46.0 -36.0 0.0 0.0 0.0 0.0Z"/></g>
<g fill="black" opacity=".8" transform="translate(700 1300) scale(0.1 -0.1)"><path d="M0.0 0.0 -40.0 -50.0H-466.0L-459.0 -79.0H50.0C64.0 -79.0 73.0 -76.0 76.0 -63.0C47.0 -36.0 0.0 0.0 0.0 0.0Z"/></g>
<g fill="red" transform="translate(800 1300) scale(0.1 -0.1)"><path d="M0.0 0.0 -68.0 -89.0H-454.0L-446.0 -117.0H96.0C110.0 -117.0 121.0 -112.0 124.0 -101.0C78.0 -60.0 0.0 0.0 0.0 0.0Z"/></g>
<g fill="black" opacity=".8" transform="translate(800 1300) scale(0.1 -0.1)"><path d="M0.0 0.0 -68.0 -89.0H-453.0L-446.0 -117.0H95.0C110.0 -117.0 121.0 -111.0 124.0 -101.0C78.0 -60.0 0.0 0.0 0.0 0.0Z"/></g>
<g fill="red" transform="translate(900 1300) scale(0.1 -0.1)"><path d="M0.0 0.0 -42.0 -53.0H-538.0L-530.0 -83.0H54.0C68.0 -83.0 77.0 -78.0 80.0 -67.0C49.0 -38.0 0.0 0.0 0.0 0.0Z"/></g>
<g fill="black" opacity=".8" transform="translate(900 1300) scale(0.1 -0.1)"><path d="M0.0 0.0 -42.0 -52.0H-537.0L-530.0 -83.0H53.0C68.0 -83.0 77.0 -79.0 80.0 -66.0C49.0 -37.0 0.0 0.0 0.0 0.0Z"/></g>
<g fill="red" transform="translate(1000 1300) scale(0.1 -0.1)"><path d="M0.0 0.0 -72.0 -94.0H-504.0L-496.0 -122.0H100.0C115.0 -122.0 126.0 -117.0 129.0 -106.0C81.0 -63.0 0.0 0.0 0.0 0.0Z"/></g>
<g fill="black" opacity=".8" transform="translate(1000 1300) scale(0.1 -0.1)"><path d="M0.0 0.0 -71.0 -93.0H-503.0L-496.0 -122.0H100.0C115.0 -122.0 126.0 -116.0 130.0 -106.0C82.0 -63.0 0.0 0.0 0.0 0.0Z"/></g>
</svg>
