<?xml version="1.0" encoding="UTF-8"?>
<svg width="1700" height="300" xmlns="http://www.w3.org/2000/svg">
<rect width="100%" height="100%" fill="white"/>
<g fill="green" transform="translate(100 100) scale(0.1 -0.1)"><path d="M0.0 0.0 -82.0 10.0V-66.0H-38.0V-28.0C-13.0 -24.0 -2.0 -15.0 0.0 0.0ZM-48.0 -30.0H-82.0V-324.0L-67.0 -293.0C-81.0 -298.0 -101.0 -309.0 -111.0 -318.0L-52.0 -356.0L-31.0 -330.0H-38.0V-36.0ZM168.0 140.0H124.0V-318.0H168.0ZM386.0 -301.0H-58.0V-331.0H386.0ZM406.0 190.0 365.0 140.0H-139.0L-131.0 110.0H456.0C470.0 110.0 480.0 115.0 482.0 126.0C453.0 154.0 406.0 190.0 406.0 190.0ZM365.0 -84.0H376.0C369.0 -376.0 351.0 -592.0 316.0 -627.0C305.0 -638.0 297.0 -641.0 276.0 -641.0C254.0 -641.0 176.0 -633.0 131.0 -628.0L130.0 -648.0C168.0 -652.0 215.0 -661.0 230.0 -670.0C244.0 -678.0 248.0 -693.0 248.0 -707.0C287.0 -707.0 326.0 -693.0 349.0 -664.0C392.0 -615.0 412.0 -407.0 419.0 -117.0C440.0 -116.0 453.0 -111.0 460.0 -103.0L395.0 -50.0ZM403.0 -84.0H137.0V-114.0H403.0Z"/></g>
<g fill="green" transform="translate(200 100) scale(0.1 -0.1)"><path d="M0.0 0.0 -168.0 16.0V-61.0H-40.0V-31.0C-12.0 -27.0 -3.0 -16.0 0.0 0.0ZM-71.0 -28.0H-168.0V-310.0L-146.0 -272.0C-164.0 -279.0 -187.0 -300.0 -200.0 -316.0L-70.0 -378.0L-34.0 -327.0H-40.0V-47.0ZM170.0 134.0H34.0V-318.0H170.0ZM328.0 -299.0H-76.0V-327.0H328.0ZM332.0 245.0 261.0 148.0H-214.0L-206.0 120.0H431.0C446.0 120.0 457.0 125.0 460.0 136.0C413.0 180.0 332.0 245.0 332.0 245.0ZM256.0 -91.0H268.0C258.0 -363.0 242.0 -532.0 207.0 -562.0C197.0 -571.0 187.0 -574.0 170.0 -574.0C143.0 -574.0 64.0 -569.0 10.0 -565.0V-577.0C63.0 -587.0 105.0 -605.0 126.0 -627.0C145.0 -645.0 152.0 -678.0 151.0 -719.0C227.0 -719.0 271.0 -704.0 309.0 -670.0C368.0 -617.0 390.0 -461.0 401.0 -143.0C424.0 -139.0 437.0 -132.0 445.0 -123.0L328.0 -20.0ZM339.0 -91.0H83.0V-119.0H339.0Z"/></g>
<g fill="green" transform="translate(300 100) scale(0.1 -0.1)"><path d="M0.0 0.0 -82.0 10.0V-66.0H-38.0V-28.0C-13.0 -24.0 -2.0 -15.0 0.0 0.0ZM-48.0 -30.0H-82.0V-324.0L-67.0 -293.0C-81.0 -298.0 -101.0 -309.0 -111.0 -318.0L-52.0 -356.0L-31.0 -330.0H-38.0V-36.0ZM168.0 140.0H124.0V-318.0H168.0ZM386.0 -301.0H-58.0V-331.0H386.0ZM406.0 190.0 365.0 140.0H-139.0L-131.0 110.0H456.0C470.0 110.0 480.0 115.0 482.0 126.0C453.0 154.0 406.0 190.0 406.0 190.0ZM365.0 -84.0H376.0C369.0 -376.0 351.0 -592.0 316.0 -627.0C305.0 -638.0 297.0 -641.0 276.0 -641.0C254.0 -641.0 176.0 -633.0 131.0 -628.0L130.0 -648.0C168.0 -652.0 215.0 -661.0 230.0 -670.0C244.0 -678.0 248.0 -693.0 248.0 -707.0C287.0 -707.0 326.0 -693.0 349.0 -664.0C392.0 -615.0 412.0 -407.0 419.0 -117.0C440.0 -116.0 453.0 -111.0 460.0 -103.0L395.0 -50.0ZM403.0 -84.0H137.0V-114.0H403.0Z"/></g>
<g fill="green" transform="translate(400 100) scale(0.1 -0.1)"><path d="M0.0 0.0 -168.0 16.0V-61.0H-40.0V-31.0C-12.0 -27.0 -3.0 -16.0 0.0 0.0ZM-71.0 -28.0H-168.0V-310.0L-146.0 -272.0C-164.0 -279.0 -187.0 -300.0 -200.0 -316.0L-70.0 -378.0L-34.0 -327.0H-40.0V-47.0ZM170.0 134.0H34.0V-318.0H170.0ZM328.0 -299.0H-76.0V-327.0H328.0ZM332.0 245.0 261.0 148.0H-214.0L-206.0 120.0H431.0C446.0 120.0 457.0 125.0 460.0 136.0C413.0 180.0 332.0 245.0 332.0 245.0ZM256.0 -91.0H268.0C258.0 -363.0 242.0 -532.0 207.0 -562.0C197.0 -571.0 187.0 -574.0 170.0 -574.0C143.0 -574.0 64.0 -569.0 10.0 -565.0V-577.0C63.0 -587.0 105.0 -605.0 126.0 -627.0C145.0 -645.0 152.0 -678.0 151.0 -719.0C227.0 -719.0 271.0 -704.0 309.0 -670.0C368.0 -617.0 390.0 -461.0 401.0 -143.0C424.0 -139.0 437.0 -132.0 445.0 -123.0L328.0 -20.0ZM339.0 -91.0H83.0V-119.0H339.0Z"/></g>
<g fill="red" transform="translate(100 200) scale(0.1 -0.1)"><path d="M0.0 0.0 -82.0 10.0V-66.0H-38.0V-28.0C-13.0 -24.0 -2.0 -15.0 0.0 0.0ZM-48.0 -30.0H-82.0V-324.0L-67.0 -293.0C-81.0 -298.0 -101.0 -309.0 -111.0 -318.0L-52.0 -356.0L-31.0 -330.0H-38.0V-36.0ZM168.0 140.0H124.0V-318.0H168.0ZM386.0 -301.0H-58.0V-331.0H386.0ZM406.0 190.0 365.0 140.0H-139.0L-131.0 110.0H456.0C470.0 110.0 480.0 115.0 482.0 126.0C453.0 154.0 406.0 190.0 406.0 190.0ZM365.0 -84.0H376.0C369.0 -376.0 351.0 -592.0 316.0 -627.0C305.0 -638.0 297.0 -641.0 276.0 -641.0C254.0 -641.0 176.0 -633.0 131.0 -628.0L130.0 -648.0C168.0 -652.0 215.0 -661.0 230.0 -670.0C244.0 -678.0 248.0 -693.0 248.0 -707.0C287.0 -707.0 326.0 -693.0 349.0 -664.0C392.0 -615.0 412.0 -407.0 419.0 -117.0C440.0 -116.0 453.0 -111.0 460.0 -103.0L395.0 -50.0ZM403.0 -84.0H137.0V-114.0H403.0Z"/></g>
<g fill="black" opacity=".8" transform="translate(100 200) scale(0.1 -0.1)"><path d="M0.0 0.0 -82.0 10.0V-66.0H-38.0V-28.0C-13.0 -24.0 -2.0 -15.0 0.0 0.0ZM-48.0 -30.0H-82.0V-324.0L-67.0 -293.0C-81.0 -298.0 -101.0 -309.0 -111.0 -318.0L-52.0 -356.0L-31.0 -330.0H-38.0V-36.0ZM168.0 140.0H124.0V-318.0H168.0ZM386.0 -301.0H-58.0V-331.0H386.0ZM406.0 190.0 365.0 140.0H-139.0L-131.0 110.0H456.0C470.0 110.0 480.0 115.0 482.0 126.0C453.0 154.0 406.0 190.0 406.0 190.0ZM365.0 -84.0H376.0C369.0 -376.0 351.0 -592.0 316.0 -627.0C305.0 -638.0 297.0 -641.0 276.0 -641.0C254.0 -641.0 176.0 -633.0 131.0 -628.0L130.0 -648.0C168.0 -652.0 215.0 -661.0 230.0 -670.0C244.0 -678.0 248.0 -693.0 248.0 -707.0C287.0 -707.0 326.0 -693.0 349.0 -664.0C392.0 -615.0 412.0 -407.0 419.0 -117.0C440.0 -116.0 453.0 -111.0 460.0 -103.0L395.0 -50.0ZM403.0 -84.0H137.0V-114.0H403.0Z"/></g>
<g fill="red" transform="translate(200 200) scale(0.1 -0.1)"><path d="M0.0 0.0 -168.0 16.0V-61.0H-40.0V-31.0C-12.0 -27.0 -3.0 -16.0 0.0 0.0ZM-71.0 -28.0H-168.0V-310.0L-146.0 -272.0C-164.0 -279.0 -187.0 -300.0 -200.0 -316.0L-70.0 -378.0L-34.0 -327.0H-40.0V-47.0ZM170.0 134.0H34.0V-318.0H170.0ZM328.0 -299.0H-76.0V-327.0H328.0ZM332.0 245.0 261.0 148.0H-214.0L-206.0 120.0H431.0C446.0 120.0 457.0 125.0 460.0 136.0C413.0 180.0 332.0 245.0 332.0 245.0ZM256.0 -91.0H268.0C258.0 -363.0 242.0 -532.0 207.0 -562.0C197.0 -571.0 187.0 -574.0 170.0 -574.0C143.0 -574.0 64.0 -569.0 10.0 -565.0V-577.0C63.0 -587.0 105.0 -605.0 126.0 -627.0C145.0 -645.0 152.0 -678.0 151.0 -719.0C227.0 -719.0 271.0 -704.0 309.0 -670.0C368.0 -617.0 390.0 -461.0 401.0 -143.0C424.0 -139.0 437.0 -132.0 445.0 -123.0L328.0 -20.0ZM339.0 -91.0H83.0V-119.0H339.0Z"/></g>
<g fill="black" opacity=".8" transform="translate(200 200) scale(0.1 -0.1)"><path d="M0.0 0.0 -168.0 16.0V-61.0H-40.0V-31.0C-12.0 -27.0 -3.0 -16.0 0.0 0.0ZM-71.0 -28.0H-168.0V-310.0L-146.0 -272.0C-164.0 -279.0 -187.0 -300.0 -200.0 -316.0L-70.0 -378.0L-34.0 -327.0H-40.0V-47.0ZM170.0 134.0H34.0V-318.0H170.0ZM328.0 -299.0H-76.0V-327.0H328.0ZM332.0 245.0 261.0 148.0H-214.0L-206.0 120.0H431.0C446.0 120.0 457.0 125.0 460.0 136.0C413.0 180.0 332.0 245.0 332.0 245.0ZM256.0 -91.0H268.0C258.0 -363.0 242.0 -532.0 207.0 -562.0C197.0 -571.0 187.0 -574.0 170.0 -574.0C143.0 -574.0 64.0 -569.0 10.0 -565.0V-577.0C63.0 -587.0 105.0 -605.0 126.0 -627.0C145.0 -645.0 152.0 -678.0 151.0 -719.0C227.0 -719.0 271.0 -704.0 309.0 -670.0C368.0 -617.0 390.0 -461.0 401.0 -143.0C424.0 -139.0 437.0 -132.0 445.0 -123.0L328.0 -20.0ZM339.0 -91.0H83.0V-119.0H339.0Z"/></g>
</svg>
