<?xml version="1.0" encoding="UTF-8"?>
<svg width="1700" height="300" xmlns="http://www.w3.org/2000/svg">
<rect width="100%" height="100%" fill="white"/>
<g fill="green" transform="translate(100 100) scale(0.1 -0.1)"><path d="M0.0 0.0 -81.0 10.0V-499.0H-72.0C-55.0 -499.0 -37.0 -489.0 -37.0 -481.0V-26.0C-12.0 -23.0 -3.0 -14.0 0.0 0.0ZM-332.0 -389.0 -295.0 -446.0C-286.0 -441.0 -281.0 -431.0 -280.0 -421.0C-185.0 -368.0 -104.0 -313.0 -44.0 -266.0L-52.0 -252.0C-155.0 -310.0 -267.0 -364.0 -332.0 -389.0ZM-274.0 -47.0 -286.0 -56.0C-239.0 -95.0 -183.0 -167.0 -174.0 -223.0C-119.0 -264.0 -81.0 -134.0 -274.0 -47.0Z"/></g>
<g fill="green" transform="translate(200 100) scale(0.1 -0.1)"><path d="M0.0 0.0 -179.0 16.0V-501.0H-154.0C-99.0 -501.0 -37.0 -477.0 -37.0 -467.0V-28.0C-10.0 -24.0 -2.0 -13.0 0.0 0.0ZM-409.0 -341.0 -356.0 -495.0C-343.0 -490.0 -333.0 -477.0 -330.0 -463.0C-222.0 -380.0 -148.0 -304.0 -98.0 -251.0L-100.0 -242.0C-214.0 -288.0 -346.0 -328.0 -409.0 -341.0ZM-371.0 -48.0 -379.0 -53.0C-349.0 -97.0 -318.0 -162.0 -313.0 -221.0C-201.0 -309.0 -85.0 -93.0 -371.0 -48.0Z"/></g>
<g fill="green" transform="translate(300 100) scale(0.1 -0.1)"><path d="M0.0 0.0 -81.0 10.0V-499.0H-72.0C-55.0 -499.0 -37.0 -489.0 -37.0 -481.0V-26.0C-12.0 -23.0 -3.0 -14.0 0.0 0.0ZM-332.0 -389.0 -295.0 -446.0C-286.0 -441.0 -281.0 -431.0 -280.0 -421.0C-185.0 -368.0 -104.0 -313.0 -44.0 -266.0L-52.0 -252.0C-155.0 -310.0 -267.0 -364.0 -332.0 -389.0ZM-274.0 -47.0 -286.0 -56.0C-239.0 -95.0 -183.0 -167.0 -174.0 -223.0C-119.0 -264.0 -81.0 -134.0 -274.0 -47.0Z"/></g>
<g fill="green" transform="translate(400 100) scale(0.1 -0.1)"><path d="M0.0 0.0 -179.0 16.0V-501.0H-154.0C-99.0 -501.0 -37.0 -477.0 -37.0 -467.0V-28.0C-10.0 -24.0 -2.0 -13.0 0.0 0.0ZM-409.0 -341.0 -356.0 -495.0C-343.0 -490.0 -333.0 -477.0 -330.0 -463.0C-222.0 -380.0 -148.0 -304.0 -98.0 -251.0L-100.0 -242.0C-214.0 -288.0 -346.0 -328.0 -409.0 -341.0ZM-371.0 -48.0 -379.0 -53.0C-349.0 -97.0 -318.0 -162.0 -313.0 -221.0C-201.0 -309.0 -85.0 -93.0 -371.0 -48.0Z"/></g>
<g fill="red" transform="translate(100 200) scale(0.1 -0.1)"><path d="M0.0 0.0 -81.0 10.0V-499.0H-72.0C-55.0 -499.0 -37.0 -489.0 -37.0 -481.0V-26.0C-12.0 -23.0 -3.0 -14.0 0.0 0.0ZM-332.0 -389.0 -295.0 -446.0C-286.0 -441.0 -281.0 -431.0 -280.0 -421.0C-185.0 -368.0 -104.0 -313.0 -44.0 -266.0L-52.0 -252.0C-155.0 -310.0 -267.0 -364.0 -332.0 -389.0ZM-274.0 -47.0 -286.0 -56.0C-239.0 -95.0 -183.0 -167.0 -174.0 -223.0C-119.0 -264.0 -81.0 -134.0 -274.0 -47.0Z"/></g>
<g fill="black" opacity=".8" transform="translate(100 200) scale(0.1 -0.1)"><path d="M0.0 0.0 -81.0 10.0V-499.0H-72.0C-55.0 -499.0 -37.0 -489.0 -37.0 -481.0V-26.0C-12.0 -23.0 -3.0 -14.0 0.0 0.0ZM-332.0 -389.0 -295.0 -446.0C-286.0 -441.0 -281.0 -431.0 -280.0 -421.0C-185.0 -368.0 -104.0 -313.0 -44.0 -266.0L-52.0 -252.0C-155.0 -310.0 -267.0 -364.0 -332.0 -389.0ZM-274.0 -47.0 -286.0 -56.0C-239.0 -95.0 -183.0 -167.0 -174.0 -223.0C-119.0 -264.0 -81.0 -134.0 -274.0 -47.0Z"/></g>
<g fill="red" transform="translate(200 200) scale(0.1 -0.1)"><path d="M0.0 0.0 -179.0 16.0V-501.0H-154.0C-99.0 -501.0 -37.0 -477.0 -37.0 -467.0V-28.0C-10.0 -24.0 -2.0 -13.0 0.0 0.0ZM-409.0 -341.0 -356.0 -495.0C-343.0 -490.0 -333.0 -477.0 -330.0 -463.0C-222.0 -380.0 -148.0 -304.0 -98.0 -251.0L-100.0 -242.0C-214.0 -288.0 -346.0 -328.0 -409.0 -341.0ZM-371.0 -48.0 -379.0 -53.0C-349.0 -97.0 -318.0 -162.0 -313.0 -221.0C-201.0 -309.0 -85.0 -93.0 -371.0 -48.0Z"/></g>
<g fill="black" opacity=".8" transform="translate(200 200) scale(0.1 -0.1)"><path d="M0.0 0.0 -179.0 16.0V-501.0H-154.0C-99.0 -501.0 -37.0 -477.0 -37.0 -467.0V-28.0C-10.0 -24.0 -2.0 -13.0 0.0 0.0ZM-409.0 -341.0 -356.0 -495.0C-343.0 -490.0 -333.0 -477.0 -330.0 -463.0C-222.0 -380.0 -148.0 -304.0 -98.0 -251.0L-100.0 -242.0C-214.0 -288.0 -346.0 -328.0 -409.0 -341.0ZM-371.0 -48.0 -379.0 -53.0C-349.0 -97.0 -318.0 -162.0 -313.0 -221.0C-201.0 -309.0 -85.0 -93.0 -371.0 -48.0Z"/></g>
</svg>
