<?xml version="1.0" encoding="UTF-8"?>
<svg width="1700" height="500" xmlns="http://www.w3.org/2000/svg">
<rect width="100%" height="100%" fill="white"/>
<g fill="green" transform="translate(100 100) scale(0.1 -0.1)"><path d="M0.0 0.0 -61.0 -77.0 -816.0 -91.0 -809.0 -134.0 82.0 -119.0C102.0 -119.0 115.0 -112.0 119.0 -96.0C73.0 -54.0 0.0 0.0 0.0 0.0Z"/></g>
<g fill="green" transform="translate(200 100) scale(0.1 -0.1)"><path d="M0.0 0.0 -117.0 -159.0 -762.0 -177.0 -754.0 -217.0 179.0 -193.0C201.0 -192.0 217.0 -185.0 222.0 -169.0C138.0 -101.0 0.0 0.0 0.0 0.0Z"/></g>
<g fill="green" transform="translate(300 100) scale(0.1 -0.1)"><path d="M0.0 0.0 -41.0 -52.0 -472.0 -61.0 -469.0 -90.0 56.0 -81.0C70.0 -81.0 79.0 -77.0 82.0 -66.0C50.0 -37.0 0.0 0.0 0.0 0.0Z"/></g>
<g fill="green" transform="translate(400 100) scale(0.1 -0.1)"><path d="M0.0 0.0 -82.0 -112.0 -426.0 -125.0 -421.0 -153.0 128.0 -135.0C143.0 -134.0 154.0 -130.0 158.0 -119.0C98.0 -71.0 0.0 0.0 0.0 0.0Z"/></g>
<g fill="green" transform="translate(500 100) scale(0.1 -0.1)"><path d="M0.0 0.0 -50.0 -53.0 -847.0 -3.0 -840.0 -37.0 54.0 -93.0C71.0 -94.0 81.0 -90.0 85.0 -77.0C52.0 -43.0 0.0 0.0 0.0 0.0Z"/></g>
<g fill="green" transform="translate(600 100) scale(0.1 -0.1)"><path d="M0.0 0.0 -93.0 -104.0 -820.0 -55.0 -814.0 -87.0 121.0 -148.0C138.0 -149.0 151.0 -145.0 155.0 -132.0C98.0 -80.0 0.0 0.0 0.0 0.0Z"/></g>
<g fill="green" transform="translate(700 100) scale(0.1 -0.1)"><path d="M0.0 0.0 -36.0 -62.0 -835.0 -197.0 -823.0 -226.0 66.0 -76.0C79.0 -74.0 88.0 -65.0 88.0 -54.0C55.0 -31.0 0.0 0.0 0.0 0.0Z"/></g>
<g fill="green" transform="translate(800 100) scale(0.1 -0.1)"><path d="M0.0 0.0 -71.0 -132.0 -787.0 -270.0 -774.0 -296.0 147.0 -121.0C161.0 -117.0 172.0 -109.0 174.0 -97.0C105.0 -55.0 0.0 0.0 0.0 0.0Z"/></g>
<g fill="green" transform="translate(900 100) scale(0.1 -0.1)"><path d="M0.0 0.0 -71.0 -90.0 -787.0 -107.0 -778.0 -153.0 94.0 -133.0C115.0 -133.0 130.0 -126.0 133.0 -109.0C82.0 -62.0 0.0 0.0 0.0 0.0Z"/></g>
<g fill="green" transform="translate(1000 100) scale(0.1 -0.1)"><path d="M0.0 0.0 -115.0 -157.0 -791.0 -170.0 -781.0 -213.0 160.0 -198.0C183.0 -197.0 200.0 -189.0 204.0 -173.0C128.0 -104.0 0.0 0.0 0.0 0.0Z"/></g>
<g fill="red" transform="translate(100 200) scale(0.1 -0.1)"><path d="M0.0 0.0 -46.0 -65.0 -813.0 -127.0 -802.0 -156.0 64.0 -86.0C77.0 -85.0 87.0 -78.0 88.0 -67.0C55.0 -39.0 0.0 0.0 0.0 0.0Z"/></g>
<g fill="black" opacity=".8" transform="translate(100 200) scale(0.1 -0.1)"><path d="M0.0 0.0 -45.0 -61.0 -807.0 -121.0 -795.0 -150.0 62.0 -82.0C76.0 -82.0 85.0 -75.0 85.0 -64.0C53.0 -37.0 0.0 0.0 0.0 0.0Z"/></g>
<g fill="red" transform="translate(200 200) scale(0.1 -0.1)"><path d="M0.0 0.0 -66.0 -93.0 -827.0 -143.0 -817.0 -170.0 93.0 -111.0C107.0 -110.0 118.0 -103.0 119.0 -92.0C74.0 -54.0 0.0 0.0 0.0 0.0Z"/></g>
<g fill="black" opacity=".8" transform="translate(200 200) scale(0.1 -0.1)"><path d="M0.0 0.0 -64.0 -97.0 -835.0 -150.0 -823.0 -176.0 94.0 -112.0C108.0 -111.0 119.0 -104.0 120.0 -93.0C75.0 -55.0 0.0 0.0 0.0 0.0Z"/></g>
<g fill="red" transform="translate(300 200) scale(0.1 -0.1)"><path d="M0.0 0.0 -55.0 -71.0H-795.0L-785.0 -104.0H75.0C91.0 -104.0 102.0 -101.0 105.0 -89.0C64.0 -51.0 0.0 0.0 0.0 0.0Z"/></g>
<g fill="black" opacity=".8" transform="translate(300 200) scale(0.1 -0.1)"><path d="M0.0 0.0 -57.0 -70.0 -793.0 -73.0 -785.0 -110.0 73.0 -107.0C91.0 -108.0 103.0 -102.0 105.0 -88.0C65.0 -50.0 0.0 0.0 0.0 0.0Z"/></g>
<g fill="red" transform="translate(400 200) scale(0.1 -0.1)"><path d="M0.0 0.0 -93.0 -132.0H-787.0L-778.0 -164.0H132.0C149.0 -164.0 161.0 -159.0 164.0 -148.0C104.0 -91.0 0.0 0.0 0.0 0.0Z"/></g>
<g fill="black" opacity=".8" transform="translate(400 200) scale(0.1 -0.1)"><path d="M0.0 0.0 -97.0 -126.0H-788.0L-779.0 -162.0H134.0C152.0 -162.0 167.0 -156.0 170.0 -142.0C107.0 -85.0 0.0 0.0 0.0 0.0Z"/></g>
<g fill="red" transform="translate(500 200) scale(0.1 -0.1)"><path d="M0.0 0.0 -42.0 -50.0H-809.0L-801.0 -77.0H50.0C63.0 -77.0 73.0 -72.0 75.0 -61.0C46.0 -34.0 0.0 0.0 0.0 0.0Z"/></g>
<g fill="black" opacity=".8" transform="translate(500 200) scale(0.1 -0.1)"><path d="M0.0 0.0 -42.0 -51.0 -810.0 -52.0 -801.0 -81.0 51.0 -79.0C66.0 -80.0 75.0 -75.0 77.0 -64.0C47.0 -36.0 0.0 0.0 0.0 0.0Z"/></g>
<g fill="red" transform="translate(600 200) scale(0.1 -0.1)"><path d="M0.0 0.0 -72.0 -99.0H-799.0L-792.0 -125.0H101.0C115.0 -125.0 126.0 -120.0 129.0 -109.0C82.0 -65.0 0.0 0.0 0.0 0.0Z"/></g>
<g fill="black" opacity=".8" transform="translate(600 200) scale(0.1 -0.1)"><path d="M0.0 0.0 -74.0 -94.0H-799.0L-791.0 -122.0L104.0 -121.0C119.0 -121.0 130.0 -116.0 132.0 -105.0C83.0 -63.0 0.0 0.0 0.0 0.0Z"/></g>
<g fill="red" transform="translate(700 200) scale(0.1 -0.1)"><path d="M0.0 0.0 -34.0 -60.0 -822.0 -194.0 -809.0 -221.0 65.0 -73.0C77.0 -71.0 86.0 -63.0 86.0 -52.0C54.0 -30.0 0.0 0.0 0.0 0.0Z"/></g>
<g fill="black" opacity=".8" transform="translate(700 200) scale(0.1 -0.1)"><path d="M0.0 0.0 -35.0 -61.0 -825.0 -196.0 -813.0 -225.0 65.0 -75.0C78.0 -73.0 87.0 -64.0 87.0 -53.0C54.0 -30.0 0.0 0.0 0.0 0.0Z"/></g>
<g fill="red" transform="translate(800 200) scale(0.1 -0.1)"><path d="M0.0 0.0 -69.0 -132.0 -779.0 -270.0 -766.0 -296.0 146.0 -119.0C160.0 -116.0 171.0 -108.0 172.0 -97.0C104.0 -55.0 0.0 0.0 0.0 0.0Z"/></g>
<g fill="black" opacity=".8" transform="translate(800 200) scale(0.1 -0.1)"><path d="M0.0 0.0 -70.0 -131.0 -777.0 -268.0 -764.0 -294.0 145.0 -119.0C159.0 -115.0 170.0 -107.0 172.0 -95.0C104.0 -54.0 0.0 0.0 0.0 0.0Z"/></g>
<g fill="red" transform="translate(900 200) scale(0.1 -0.1)"><path d="M0.0 0.0 -44.0 -53.0H-811.0L-802.0 -83.0H54.0C68.0 -83.0 77.0 -78.0 80.0 -67.0C49.0 -38.0 0.0 0.0 0.0 0.0Z"/></g>
<g fill="black" opacity=".8" transform="translate(900 200) scale(0.1 -0.1)"><path d="M0.0 0.0 -45.0 -53.0H-813.0L-804.0 -84.0H55.0C70.0 -84.0 79.0 -79.0 82.0 -68.0C50.0 -38.0 0.0 0.0 0.0 0.0Z"/></g>
<g fill="red" transform="translate(1000 200) scale(0.1 -0.1)"><path d="M0.0 0.0 -81.0 -103.0H-794.0L-786.0 -131.0H116.0C131.0 -131.0 143.0 -126.0 146.0 -115.0C91.0 -69.0 0.0 0.0 0.0 0.0Z"/></g>
<g fill="black" opacity=".8" transform="translate(1000 200) scale(0.1 -0.1)"><path d="M0.0 0.0 -80.0 -102.0H-793.0L-785.0 -131.0H115.0C130.0 -131.0 142.0 -126.0 145.0 -114.0C91.0 -68.0 0.0 0.0 0.0 0.0Z"/></g>
<g fill="red" transform="translate(1100 200) scale(0.1 -0.1)"><path d="M0.0 0.0 -46.0 -56.0H-550.0L-542.0 -86.0H59.0C73.0 -86.0 83.0 -81.0 84.0 -70.0C52.0 -40.0 0.0 0.0 0.0 0.0Z"/></g>
<g fill="black" opacity=".8" transform="translate(1100 200) scale(0.1 -0.1)"><path d="M0.0 0.0 -47.0 -57.0 -557.0 -58.0 -551.0 -89.0 60.0 -87.0C74.0 -87.0 84.0 -84.0 86.0 -72.0C53.0 -41.0 0.0 0.0 0.0 0.0Z"/></g>
<g fill="red" transform="translate(1200 200) scale(0.1 -0.1)"><path d="M0.0 0.0 -79.0 -99.0H-567.0L-559.0 -127.0H112.0C127.0 -127.0 139.0 -122.0 142.0 -111.0C88.0 -66.0 0.0 0.0 0.0 0.0Z"/></g>
<g fill="black" opacity=".8" transform="translate(1200 200) scale(0.1 -0.1)"><path d="M0.0 0.0 -77.0 -101.0 -559.0 -99.0 -552.0 -128.0 105.0 -131.0C120.0 -130.0 131.0 -126.0 134.0 -115.0C84.0 -69.0 0.0 0.0 0.0 0.0Z"/></g>
<g fill="red" transform="translate(1300 200) scale(0.1 -0.1)"><path d="M0.0 0.0 -46.0 -56.0H-827.0L-818.0 -86.0H58.0C73.0 -86.0 81.0 -81.0 84.0 -70.0C52.0 -40.0 0.0 0.0 0.0 0.0Z"/></g>
<g fill="black" opacity=".8" transform="translate(1300 200) scale(0.1 -0.1)"><path d="M0.0 0.0 -46.0 -55.0H-828.0L-819.0 -88.0H57.0C73.0 -88.0 82.0 -83.0 85.0 -70.0C52.0 -40.0 0.0 0.0 0.0 0.0Z"/></g>
<g fill="red" transform="translate(1400 200) scale(0.1 -0.1)"><path d="M0.0 0.0 -84.0 -108.0H-806.0L-798.0 -136.0H121.0C137.0 -136.0 149.0 -131.0 152.0 -120.0C95.0 -72.0 0.0 0.0 0.0 0.0Z"/></g>
<g fill="black" opacity=".8" transform="translate(1400 200) scale(0.1 -0.1)"><path d="M0.0 0.0 -84.0 -107.0H-805.0L-797.0 -137.0H121.0C136.0 -136.0 149.0 -131.0 152.0 -119.0C95.0 -71.0 0.0 0.0 0.0 0.0Z"/></g>
<g fill="red" transform="translate(1500 200) scale(0.1 -0.1)"><path d="M0.0 0.0 -44.0 -54.0H-576.0V-84.0H56.0C69.0 -84.0 79.0 -79.0 82.0 -68.0C51.0 -38.0 0.0 0.0 0.0 0.0Z"/></g>
<g fill="black" opacity=".8" transform="translate(1500 200) scale(0.1 -0.1)"><path d="M0.0 0.0 -42.0 -51.0H-575.0L-569.0 -80.0H54.0C67.0 -80.0 76.0 -76.0 79.0 -65.0C48.0 -37.0 0.0 0.0 0.0 0.0Z"/></g>
<g fill="red" transform="translate(1600 200) scale(0.1 -0.1)"><path d="M0.0 0.0 -76.0 -95.0H-546.0V-123.0H110.0C125.0 -123.0 137.0 -118.0 140.0 -107.0C87.0 -63.0 0.0 0.0 0.0 0.0Z"/></g>
<g fill="black" opacity=".8" transform="translate(1600 200) scale(0.1 -0.1)"><path d="M0.0 0.0 -76.0 -100.0H-553.0L-547.0 -127.0L110.0 -126.0C125.0 -126.0 136.0 -122.0 139.0 -111.0C87.0 -66.0 0.0 0.0 0.0 0.0Z"/></g>
<g fill="red" transform="translate(100 300) scale(0.1 -0.1)"><path d="M0.0 0.0 -43.0 -53.0H-787.0L-778.0 -83.0H54.0C68.0 -83.0 78.0 -78.0 81.0 -67.0C49.0 -38.0 0.0 0.0 0.0 0.0Z"/></g>
<g fill="black" opacity=".8" transform="translate(100 300) scale(0.1 -0.1)"><path d="M0.0 0.0 -41.0 -50.0 -779.0 -49.0 -771.0 -79.0H51.0C65.0 -79.0 74.0 -75.0 77.0 -63.0C47.0 -36.0 0.0 0.0 0.0 0.0Z"/></g>
<g fill="red" transform="translate(200 300) scale(0.1 -0.1)"><path d="M0.0 0.0 -77.0 -96.0H-743.0L-735.0 -124.0H112.0C127.0 -124.0 138.0 -119.0 141.0 -108.0C88.0 -64.0 0.0 0.0 0.0 0.0Z"/></g>
<g fill="black" opacity=".8" transform="translate(200 300) scale(0.1 -0.1)"><path d="M0.0 0.0 -78.0 -100.0 -750.0 -101.0 -743.0 -128.0 115.0 -126.0C129.0 -126.0 140.0 -121.0 144.0 -110.0C90.0 -65.0 0.0 0.0 0.0 0.0Z"/></g>
<g fill="red" transform="translate(300 300) scale(0.1 -0.1)"><path d="M0.0 0.0 -43.0 -53.0H-792.0L-783.0 -83.0H54.0C68.0 -83.0 78.0 -78.0 80.0 -67.0C49.0 -38.0 0.0 0.0 0.0 0.0Z"/></g>
<g fill="black" opacity=".8" transform="translate(300 300) scale(0.1 -0.1)"><path d="M0.0 0.0 -44.0 -52.0H-792.0L-783.0 -82.0H53.0C68.0 -82.0 77.0 -77.0 79.0 -66.0C49.0 -37.0 0.0 0.0 0.0 0.0Z"/></g>
<g fill="red" transform="translate(400 300) scale(0.1 -0.1)"><path d="M0.0 0.0 -77.0 -96.0H-776.0L-768.0 -124.0H111.0C126.0 -124.0 138.0 -119.0 141.0 -108.0C88.0 -64.0 0.0 0.0 0.0 0.0Z"/></g>
<g fill="black" opacity=".8" transform="translate(400 300) scale(0.1 -0.1)"><path d="M0.0 0.0 -77.0 -98.0H-776.0L-768.0 -126.0H110.0C124.0 -126.0 136.0 -121.0 139.0 -110.0C87.0 -66.0 0.0 0.0 0.0 0.0Z"/></g>
<g fill="red" transform="translate(500 300) scale(0.1 -0.1)"><path d="M0.0 0.0 -43.0 -53.0H-833.0L-824.0 -83.0H54.0C67.0 -83.0 77.0 -78.0 79.0 -67.0C49.0 -38.0 0.0 0.0 0.0 0.0Z"/></g>
<g fill="black" opacity=".8" transform="translate(500 300) scale(0.1 -0.1)"><path d="M0.0 0.0 -43.0 -52.0 -831.0 -51.0 -823.0 -82.0H53.0C68.0 -82.0 77.0 -77.0 80.0 -66.0C49.0 -37.0 0.0 0.0 0.0 0.0Z"/></g>
<g fill="red" transform="translate(600 300) scale(0.1 -0.1)"><path d="M0.0 0.0 -81.0 -101.0H-803.0L-795.0 -129.0H117.0C132.0 -129.0 144.0 -124.0 146.0 -113.0C91.0 -67.0 0.0 0.0 0.0 0.0Z"/></g>
<g fill="black" opacity=".8" transform="translate(600 300) scale(0.1 -0.1)"><path d="M0.0 0.0 -80.0 -102.0 -805.0 -103.0 -797.0 -131.0 117.0 -130.0C132.0 -129.0 144.0 -125.0 147.0 -113.0C92.0 -67.0 0.0 0.0 0.0 0.0Z"/></g>
<g fill="red" transform="translate(700 300) scale(0.1 -0.1)"><path d="M0.0 0.0 -44.0 -53.0H-760.0L-751.0 -83.0H54.0C68.0 -83.0 77.0 -78.0 80.0 -67.0C49.0 -38.0 0.0 0.0 0.0 0.0Z"/></g>
<g fill="black" opacity=".8" transform="translate(700 300) scale(0.1 -0.1)"><path d="M0.0 0.0 -44.0 -53.0H-762.0L-754.0 -83.0H54.0C69.0 -83.0 78.0 -78.0 80.0 -67.0C50.0 -38.0 0.0 0.0 0.0 0.0Z"/></g>
<g fill="red" transform="translate(800 300) scale(0.1 -0.1)"><path d="M0.0 0.0 -79.0 -97.0H-750.0L-742.0 -125.0H114.0C129.0 -125.0 140.0 -120.0 143.0 -109.0C89.0 -64.0 0.0 0.0 0.0 0.0Z"/></g>
<g fill="black" opacity=".8" transform="translate(800 300) scale(0.1 -0.1)"><path d="M0.0 0.0 -78.0 -99.0H-748.0L-740.0 -127.0L110.0 -128.0C125.0 -127.0 137.0 -123.0 139.0 -111.0C87.0 -67.0 0.0 0.0 0.0 0.0Z"/></g>
<g fill="red" transform="translate(900 300) scale(0.1 -0.1)"><path d="M0.0 0.0 -43.0 -53.0H-838.0L-829.0 -83.0H55.0C68.0 -83.0 77.0 -78.0 80.0 -67.0C50.0 -38.0 0.0 0.0 0.0 0.0Z"/></g>
<g fill="black" opacity=".8" transform="translate(900 300) scale(0.1 -0.1)"><path d="M0.0 0.0 -45.0 -54.0 -838.0 -58.0 -828.0 -87.0 54.0 -83.0C69.0 -83.0 78.0 -78.0 80.0 -67.0C50.0 -38.0 0.0 0.0 0.0 0.0Z"/></g>
<g fill="red" transform="translate(1000 300) scale(0.1 -0.1)"><path d="M0.0 0.0 -68.0 -95.0H-846.0L-838.0 -123.0H92.0C107.0 -123.0 118.0 -118.0 120.0 -107.0C76.0 -64.0 0.0 0.0 0.0 0.0Z"/></g>
<g fill="black" opacity=".8" transform="translate(1000 300) scale(0.1 -0.1)"><path d="M0.0 0.0 -72.0 -91.0 -848.0 -90.0 -839.0 -118.0 96.0 -120.0C110.0 -120.0 122.0 -115.0 124.0 -104.0C78.0 -62.0 0.0 0.0 0.0 0.0Z"/></g>
<g fill="red" transform="translate(1100 300) scale(0.1 -0.1)"><path d="M0.0 0.0 -42.0 -52.0H-574.0V-82.0H54.0C67.0 -82.0 76.0 -77.0 79.0 -66.0C49.0 -37.0 0.0 0.0 0.0 0.0Z"/></g>
<g fill="black" opacity=".8" transform="translate(1100 300) scale(0.1 -0.1)"><path d="M0.0 0.0 -42.0 -51.0 -573.0 -50.0 -568.0 -79.0 53.0 -80.0C67.0 -80.0 76.0 -76.0 79.0 -65.0C48.0 -37.0 0.0 0.0 0.0 0.0Z"/></g>
<g fill="red" transform="translate(1200 300) scale(0.1 -0.1)"><path d="M0.0 0.0 -79.0 -102.0H-535.0V-130.0H114.0C129.0 -130.0 141.0 -125.0 143.0 -114.0C90.0 -68.0 0.0 0.0 0.0 0.0Z"/></g>
<g fill="black" opacity=".8" transform="translate(1200 300) scale(0.1 -0.1)"><path d="M0.0 0.0 -79.0 -103.0 -541.0 -104.0 -536.0 -132.0 117.0 -129.0C131.0 -129.0 142.0 -125.0 146.0 -114.0C91.0 -68.0 0.0 0.0 0.0 0.0Z"/></g>
<g fill="red" transform="translate(1300 300) scale(0.1 -0.1)"><path d="M0.0 0.0 -44.0 -54.0H-816.0L-807.0 -84.0H56.0C70.0 -84.0 79.0 -79.0 82.0 -68.0C50.0 -38.0 0.0 0.0 0.0 0.0Z"/></g>
<g fill="black" opacity=".8" transform="translate(1300 300) scale(0.1 -0.1)"><path d="M0.0 0.0 -44.0 -53.0H-814.0L-806.0 -84.0L55.0 -85.0C70.0 -85.0 79.0 -80.0 82.0 -68.0C51.0 -38.0 0.0 0.0 0.0 0.0Z"/></g>
<g fill="red" transform="translate(1400 300) scale(0.1 -0.1)"><path d="M0.0 0.0 -83.0 -107.0H-782.0L-774.0 -135.0H121.0C136.0 -135.0 148.0 -130.0 151.0 -119.0C95.0 -71.0 0.0 0.0 0.0 0.0Z"/></g>
<g fill="black" opacity=".8" transform="translate(1400 300) scale(0.1 -0.1)"><path d="M0.0 0.0 -83.0 -106.0 -784.0 -107.0 -776.0 -136.0 122.0 -134.0C138.0 -134.0 150.0 -129.0 153.0 -117.0C95.0 -70.0 0.0 0.0 0.0 0.0Z"/></g>
<g fill="red" transform="translate(1500 300) scale(0.1 -0.1)"><path d="M0.0 0.0 -45.0 -55.0H-808.0L-799.0 -85.0H57.0C71.0 -85.0 80.0 -80.0 83.0 -69.0C51.0 -39.0 0.0 0.0 0.0 0.0Z"/></g>
<g fill="black" opacity=".8" transform="translate(1500 300) scale(0.1 -0.1)"><path d="M0.0 0.0 -46.0 -55.0H-812.0L-803.0 -87.0L56.0 -86.0C71.0 -86.0 81.0 -81.0 83.0 -69.0C52.0 -39.0 0.0 0.0 0.0 0.0Z"/></g>
<g fill="red" transform="translate(1600 300) scale(0.1 -0.1)"><path d="M0.0 0.0 -81.0 -101.0H-803.0L-795.0 -129.0H117.0C132.0 -129.0 144.0 -124.0 146.0 -113.0C91.0 -67.0 0.0 0.0 0.0 0.0Z"/></g>
<g fill="black" opacity=".8" transform="translate(1600 300) scale(0.1 -0.1)"><path d="M0.0 0.0 -80.0 -102.0 -800.0 -101.0 -791.0 -131.0 113.0 -132.0C128.0 -131.0 140.0 -126.0 143.0 -114.0C89.0 -68.0 0.0 0.0 0.0 0.0Z"/></g>
<g fill="red" transform="translate(100 400) scale(0.1 -0.1)"><path d="M0.0 0.0 -43.0 -53.0H-792.0L-783.0 -83.0H53.0C67.0 -83.0 77.0 -78.0 79.0 -67.0C48.0 -38.0 0.0 0.0 0.0 0.0Z"/></g>
<g fill="black" opacity=".8" transform="translate(100 400) scale(0.1 -0.1)"><path d="M0.0 0.0 -45.0 -54.0H-798.0L-789.0 -85.0H55.0C70.0 -85.0 80.0 -80.0 82.0 -68.0C51.0 -38.0 0.0 0.0 0.0 0.0Z"/></g>
<g fill="red" transform="translate(200 400) scale(0.1 -0.1)"><path d="M0.0 0.0 -81.0 -101.0H-789.0L-781.0 -129.0H117.0C132.0 -129.0 143.0 -124.0 146.0 -113.0C91.0 -67.0 0.0 0.0 0.0 0.0Z"/></g>
<g fill="black" opacity=".8" transform="translate(200 400) scale(0.1 -0.1)"><path d="M0.0 0.0 -79.0 -101.0 -784.0 -100.0 -775.0 -129.0 112.0 -130.0C127.0 -130.0 139.0 -125.0 142.0 -113.0C89.0 -68.0 0.0 0.0 0.0 0.0Z"/></g>
<g fill="red" transform="translate(300 400) scale(0.1 -0.1)"><path d="M0.0 0.0 -43.0 -54.0H-470.0L-462.0 -84.0H56.0C70.0 -84.0 79.0 -79.0 82.0 -68.0C50.0 -38.0 0.0 0.0 0.0 0.0Z"/></g>
<g fill="black" opacity=".8" transform="translate(300 400) scale(0.1 -0.1)"><path d="M0.0 0.0 -43.0 -54.0 -465.0 -55.0 -461.0 -84.0 57.0 -83.0C71.0 -83.0 80.0 -80.0 83.0 -69.0C51.0 -39.0 0.0 0.0 0.0 0.0Z"/></g>
<g fill="red" transform="translate(400 400) scale(0.1 -0.1)"><path d="M0.0 0.0 -77.0 -106.0H-444.0L-436.0 -134.0H107.0C122.0 -134.0 133.0 -129.0 136.0 -118.0C86.0 -71.0 0.0 0.0 0.0 0.0Z"/></g>
<g fill="black" opacity=".8" transform="translate(400 400) scale(0.1 -0.1)"><path d="M0.0 0.0 -78.0 -103.0 -446.0 -105.0 -441.0 -133.0 112.0 -131.0C127.0 -130.0 138.0 -126.0 141.0 -115.0C88.0 -69.0 0.0 0.0 0.0 0.0Z"/></g>
</svg>
