<?xml version="1.0" encoding="UTF-8"?>
<svg width="1700" height="800" xmlns="http://www.w3.org/2000/svg">
<rect width="100%" height="100%" fill="white"/>
<g fill="green" transform="translate(100 100) scale(0.1 -0.1)"><path d="M-0.0 0.0 -168.0 39.0C-197.0 -181.0 -246.0 -477.0 -295.0 -687.0L-256.0 -689.0C-182.0 -491.0 -110.0 -231.0 -71.0 -43.0C-28.0 -42.0 -6.0 -23.0 0.0 -0.0ZM-565.0 25.0 -597.0 15.0C-534.0 -146.0 -484.0 -395.0 -489.0 -560.0C-393.0 -667.0 -299.0 -364.0 -565.0 25.0Z"/></g>
<g fill="green" transform="translate(200 100) scale(0.1 -0.1)"><path d="M0.0 0.0 -332.0 77.0C-340.0 -144.0 -359.0 -463.0 -384.0 -686.0L-358.0 -688.0C-242.0 -485.0 -134.0 -220.0 -72.0 -46.0C-27.0 -45.0 -7.0 -24.0 0.0 0.0ZM-652.0 56.0 -675.0 48.0C-618.0 -116.0 -583.0 -327.0 -593.0 -498.0C-399.0 -714.0 -147.0 -265.0 -652.0 56.0Z"/></g>
<g fill="green" transform="translate(300 100) scale(0.1 -0.1)"><path d="M0.0 0.0 -97.0 15.0C-102.0 -125.0 -110.0 -317.0 -123.0 -455.0H-101.0C-72.0 -321.0 -48.0 -149.0 -38.0 -28.0C-14.0 -26.0 -2.0 -14.0 0.0 -0.0ZM-187.0 8.0 -206.0 4.0C-180.0 -103.0 -165.0 -264.0 -176.0 -370.0C-123.0 -437.0 -66.0 -253.0 -187.0 8.0Z"/></g>
<g fill="green" transform="translate(400 100) scale(0.1 -0.1)"><path d="M0.0 0.0 -174.0 29.0C-169.0 -108.0 -163.0 -310.0 -164.0 -454.0L-149.0 -455.0C-98.0 -316.0 -57.0 -138.0 -37.0 -28.0C-12.0 -27.0 -3.0 -13.0 0.0 0.0ZM-212.0 17.0 -226.0 13.0C-199.0 -90.0 -186.0 -219.0 -197.0 -323.0C-99.0 -445.0 32.0 -202.0 -212.0 17.0Z"/></g>
<g fill="green" transform="translate(500 100) scale(0.1 -0.1)"><path d="M-0.0 0.0 -155.0 66.0C-204.0 13.0 -281.0 -45.0 -346.0 -71.0L-310.0 -84.0C-231.0 -78.0 -141.0 -61.0 -79.0 -28.0C-37.0 -34.0 -10.0 -19.0 0.0 0.0ZM-816.0 74.0 -842.0 61.0C-810.0 42.0 -722.0 -4.0 -712.0 -76.0C-614.0 -143.0 -531.0 6.0 -816.0 74.0Z"/></g>
<g fill="green" transform="translate(600 100) scale(0.1 -0.1)"><path d="M0.0 0.0 -326.0 127.0C-356.0 66.0 -411.0 -6.0 -452.0 -42.0L-436.0 -51.0C-326.0 -60.0 -185.0 -58.0 -88.0 -33.0C-40.0 -39.0 -11.0 -24.0 0.0 0.0ZM-920.0 119.0 -936.0 110.0C-909.0 95.0 -844.0 58.0 -838.0 -21.0C-601.0 -157.0 -435.0 223.0 -920.0 119.0Z"/></g>
<g fill="green" transform="translate(700 100) scale(0.1 -0.1)"><path d="M-0.0 0.0 -90.0 23.0C-140.0 -179.0 -257.0 -473.0 -364.0 -687.0L-350.0 -692.0C-228.0 -481.0 -104.0 -204.0 -43.0 -20.0C-17.0 -20.0 -4.0 -14.0 0.0 -0.0ZM-567.0 15.0 -591.0 13.0C-544.0 -175.0 -539.0 -453.0 -552.0 -616.0C-496.0 -704.0 -435.0 -434.0 -567.0 15.0Z"/></g>
<g fill="green" transform="translate(800 100) scale(0.1 -0.1)"><path d="M0.0 0.0 -163.0 85.0C-199.0 -116.0 -283.0 -434.0 -363.0 -663.0L-351.0 -665.0C-223.0 -449.0 -110.0 -172.0 -62.0 -16.0C-26.0 -22.0 -10.0 -12.0 0.0 0.0ZM-588.0 77.0 -608.0 73.0C-566.0 -120.0 -564.0 -352.0 -583.0 -515.0C-505.0 -685.0 -327.0 -400.0 -588.0 77.0Z"/></g>
<g fill="green" transform="translate(900 100) scale(0.1 -0.1)"><path d="M-0.0 0.0 -148.0 25.0C-167.0 -186.0 -202.0 -472.0 -243.0 -679.0L-204.0 -674.0C-141.0 -476.0 -85.0 -223.0 -60.0 -41.0C-23.0 -37.0 -4.0 -20.0 0.0 -0.0ZM-595.0 11.0 -623.0 2.0C-557.0 -149.0 -491.0 -387.0 -494.0 -552.0C-403.0 -647.0 -333.0 -355.0 -595.0 11.0Z"/></g>
<g fill="green" transform="translate(1000 100) scale(0.1 -0.1)"><path d="M0.0 0.0 -320.0 48.0C-324.0 -164.0 -336.0 -476.0 -358.0 -698.0L-332.0 -695.0C-217.0 -489.0 -109.0 -216.0 -54.0 -44.0C-17.0 -41.0 -4.0 -21.0 0.0 0.0ZM-669.0 31.0 -687.0 24.0C-624.0 -143.0 -575.0 -350.0 -577.0 -530.0C-364.0 -734.0 -166.0 -260.0 -669.0 31.0Z"/></g>
<g fill="green" transform="translate(1100 100) scale(0.1 -0.1)"><path d="M-0.0 0.0 -158.0 38.0C-181.0 -184.0 -219.0 -485.0 -258.0 -700.0L-222.0 -702.0C-160.0 -497.0 -98.0 -229.0 -65.0 -40.0C-25.0 -39.0 -5.0 -21.0 0.0 0.0ZM-521.0 21.0 -553.0 13.0C-501.0 -149.0 -451.0 -400.0 -464.0 -571.0C-375.0 -680.0 -280.0 -388.0 -521.0 21.0Z"/></g>
<g fill="green" transform="translate(1200 100) scale(0.1 -0.1)"><path d="M0.0 0.0 -318.0 88.0C-332.0 -135.0 -357.0 -459.0 -381.0 -684.0L-355.0 -686.0C-243.0 -480.0 -136.0 -214.0 -70.0 -41.0C-27.0 -41.0 -8.0 -22.0 0.0 0.0ZM-690.0 68.0 -713.0 61.0C-657.0 -105.0 -611.0 -315.0 -617.0 -494.0C-424.0 -697.0 -218.0 -256.0 -690.0 68.0Z"/></g>
<g fill="green" transform="translate(1300 100) scale(0.1 -0.1)"><path d="M0.0 0.0 -179.0 39.0C-202.0 -168.0 -248.0 -464.0 -296.0 -676.0L-249.0 -671.0C-177.0 -472.0 -106.0 -219.0 -75.0 -45.0C-30.0 -44.0 -6.0 -25.0 0.0 0.0ZM-548.0 30.0 -581.0 19.0C-522.0 -139.0 -487.0 -382.0 -494.0 -538.0C-402.0 -646.0 -298.0 -352.0 -548.0 30.0Z"/></g>
<g fill="green" transform="translate(1400 100) scale(0.1 -0.1)"><path d="M0.0 0.0 -345.0 61.0C-347.0 -149.0 -364.0 -472.0 -391.0 -702.0L-365.0 -699.0C-243.0 -489.0 -126.0 -215.0 -71.0 -49.0C-25.0 -47.0 -6.0 -25.0 0.0 0.0ZM-645.0 44.0 -669.0 36.0C-622.0 -129.0 -602.0 -341.0 -619.0 -506.0C-438.0 -734.0 -144.0 -307.0 -645.0 44.0Z"/></g>
<g fill="green" transform="translate(1500 100) scale(0.1 -0.1)"><path d="M-0.0 0.0 -154.0 45.0C-199.0 -185.0 -263.0 -476.0 -319.0 -678.0L-287.0 -688.0C-206.0 -497.0 -122.0 -234.0 -67.0 -37.0C-27.0 -38.0 -7.0 -21.0 0.0 0.0ZM-565.0 27.0 -594.0 17.0C-531.0 -135.0 -466.0 -373.0 -469.0 -541.0C-373.0 -642.0 -292.0 -345.0 -565.0 27.0Z"/></g>
<g fill="green" transform="translate(1600 100) scale(0.1 -0.1)"><path d="M0.0 0.0 -312.0 81.0C-327.0 -156.0 -353.0 -474.0 -381.0 -690.0L-353.0 -698.0C-240.0 -499.0 -141.0 -238.0 -71.0 -44.0C-28.0 -43.0 -7.0 -23.0 0.0 0.0ZM-665.0 52.0 -687.0 44.0C-628.0 -124.0 -580.0 -337.0 -585.0 -519.0C-381.0 -724.0 -172.0 -265.0 -665.0 52.0Z"/></g>
<g fill="green" transform="translate(100 200) scale(0.1 -0.1)"><path d="M0.0 0.0 -154.0 34.0C-190.0 -189.0 -245.0 -482.0 -298.0 -689.0L-263.0 -692.0C-184.0 -496.0 -108.0 -234.0 -65.0 -41.0C-25.0 -39.0 -5.0 -22.0 0.0 0.0ZM-590.0 9.0 -616.0 -4.0C-514.0 -171.0 -468.0 -426.0 -452.0 -558.0C-367.0 -652.0 -284.0 -352.0 -590.0 9.0Z"/></g>
<g fill="green" transform="translate(200 200) scale(0.1 -0.1)"><path d="M0.0 0.0 -326.0 80.0C-333.0 -144.0 -349.0 -456.0 -374.0 -673.0L-349.0 -676.0C-231.0 -479.0 -129.0 -222.0 -65.0 -42.0C-24.0 -41.0 -6.0 -22.0 0.0 0.0ZM-669.0 54.0 -687.0 44.0C-607.0 -118.0 -592.0 -340.0 -596.0 -479.0C-449.0 -699.0 -106.0 -296.0 -669.0 54.0Z"/></g>
<g fill="red" transform="translate(100 300) scale(0.1 -0.1)"><path d="M0.0 0.0 -80.0 33.0C-107.0 -26.0 -151.0 -105.0 -188.0 -157.0H-166.0C-118.0 -115.0 -69.0 -59.0 -39.0 -15.0C-19.0 -17.0 -5.0 -10.0 0.0 0.0ZM-465.0 27.0 -477.0 19.0C-440.0 -16.0 -394.0 -76.0 -380.0 -120.0C-331.0 -154.0 -297.0 -51.0 -465.0 27.0Z"/></g>
<g fill="black" opacity=".8" transform="translate(100 300) scale(0.1 -0.1)"><path d="M0.0 0.0 -81.0 29.0C-108.0 -27.0 -150.0 -103.0 -187.0 -151.0L-164.0 -154.0C-119.0 -113.0 -68.0 -59.0 -39.0 -16.0C-18.0 -17.0 -4.0 -11.0 0.0 0.0ZM-464.0 27.0 -476.0 18.0C-438.0 -16.0 -392.0 -76.0 -382.0 -120.0C-335.0 -157.0 -294.0 -54.0 -464.0 27.0Z"/></g>
<g fill="red" transform="translate(200 300) scale(0.1 -0.1)"><path d="M0.0 0.0 -194.0 51.0C-204.0 -11.0 -227.0 -100.0 -253.0 -159.0H-243.0C-168.0 -121.0 -86.0 -64.0 -38.0 -20.0C-15.0 -21.0 -4.0 -12.0 0.0 0.0ZM-554.0 50.0 -561.0 45.0C-536.0 5.0 -513.0 -54.0 -511.0 -110.0C-394.0 -208.0 -256.0 15.0 -554.0 50.0Z"/></g>
<g fill="black" opacity=".8" transform="translate(200 300) scale(0.1 -0.1)"><path d="M0.0 0.0 -189.0 56.0C-203.0 -7.0 -233.0 -96.0 -259.0 -154.0L-248.0 -156.0C-175.0 -119.0 -92.0 -64.0 -40.0 -18.0C-16.0 -21.0 -4.0 -12.0 0.0 0.0ZM-559.0 49.0 -566.0 43.0C-537.0 2.0 -509.0 -59.0 -504.0 -116.0C-389.0 -211.0 -252.0 6.0 -559.0 49.0Z"/></g>
<g fill="red" transform="translate(300 300) scale(0.1 -0.1)"><path d="M0.0 0.0 -90.0 19.0C-120.0 -139.0 -177.0 -352.0 -230.0 -506.0H-209.0C-140.0 -358.0 -73.0 -162.0 -37.0 -23.0C-15.0 -22.0 -3.0 -13.0 0.0 0.0ZM-463.0 4.0 -479.0 -4.0C-404.0 -125.0 -376.0 -311.0 -363.0 -408.0C-312.0 -467.0 -271.0 -260.0 -463.0 4.0Z"/></g>
<g fill="black" opacity=".8" transform="translate(300 300) scale(0.1 -0.1)"><path d="M0.0 0.0 -88.0 18.0C-121.0 -138.0 -180.0 -353.0 -235.0 -506.0H-213.0C-143.0 -356.0 -72.0 -160.0 -38.0 -23.0C-15.0 -21.0 -3.0 -14.0 0.0 0.0ZM-463.0 2.0 -477.0 -6.0C-405.0 -128.0 -375.0 -314.0 -364.0 -409.0C-315.0 -467.0 -272.0 -262.0 -463.0 2.0Z"/></g>
<g fill="red" transform="translate(400 300) scale(0.1 -0.1)"><path d="M0.0 0.0 -196.0 48.0C-209.0 -113.0 -239.0 -349.0 -275.0 -515.0H-264.0C-167.0 -360.0 -83.0 -157.0 -39.0 -25.0C-14.0 -24.0 -4.0 -14.0 0.0 0.0ZM-517.0 30.0 -528.0 24.0C-467.0 -116.0 -460.0 -298.0 -465.0 -413.0C-377.0 -569.0 -151.0 -294.0 -517.0 30.0Z"/></g>
<g fill="black" opacity=".8" transform="translate(400 300) scale(0.1 -0.1)"><path d="M0.0 0.0 -199.0 41.0C-210.0 -121.0 -239.0 -356.0 -274.0 -523.0H-258.0C-161.0 -366.0 -79.0 -160.0 -37.0 -24.0C-12.0 -24.0 -3.0 -12.0 0.0 0.0ZM-515.0 25.0 -525.0 18.0C-471.0 -116.0 -464.0 -290.0 -468.0 -401.0C-379.0 -553.0 -156.0 -285.0 -515.0 25.0Z"/></g>
<g fill="red" transform="translate(500 300) scale(0.1 -0.1)"><path d="M0.0 0.0 -86.0 25.0C-108.0 -37.0 -146.0 -122.0 -179.0 -178.0H-157.0C-113.0 -131.0 -66.0 -68.0 -38.0 -18.0C-17.0 -19.0 -4.0 -11.0 0.0 0.0ZM-375.0 30.0 -388.0 23.0C-358.0 -17.0 -321.0 -84.0 -315.0 -135.0C-270.0 -174.0 -226.0 -70.0 -375.0 30.0Z"/></g>
<g fill="black" opacity=".8" transform="translate(500 300) scale(0.1 -0.1)"><path d="M0.0 0.0 -83.0 28.0C-108.0 -34.0 -146.0 -120.0 -179.0 -175.0L-157.0 -178.0C-114.0 -130.0 -66.0 -66.0 -39.0 -17.0C-18.0 -19.0 -4.0 -12.0 0.0 0.0ZM-374.0 27.0 -387.0 20.0C-356.0 -20.0 -323.0 -86.0 -317.0 -134.0C-272.0 -174.0 -227.0 -68.0 -374.0 27.0Z"/></g>
<g fill="red" transform="translate(600 300) scale(0.1 -0.1)"><path d="M0.0 0.0 -172.0 42.0C-182.0 -25.0 -204.0 -121.0 -227.0 -186.0H-215.0C-150.0 -138.0 -79.0 -70.0 -38.0 -21.0C-15.0 -21.0 -4.0 -13.0 0.0 0.0ZM-439.0 37.0 -448.0 33.0C-428.0 -15.0 -410.0 -78.0 -411.0 -138.0C-308.0 -237.0 -169.0 -39.0 -439.0 37.0Z"/></g>
<g fill="black" opacity=".8" transform="translate(600 300) scale(0.1 -0.1)"><path d="M0.0 0.0 -175.0 45.0C-183.0 -24.0 -205.0 -122.0 -226.0 -188.0L-215.0 -190.0C-150.0 -141.0 -81.0 -73.0 -39.0 -20.0C-15.0 -22.0 -4.0 -12.0 0.0 0.0ZM-440.0 37.0 -448.0 32.0C-427.0 -14.0 -409.0 -80.0 -410.0 -138.0C-309.0 -234.0 -171.0 -36.0 -440.0 37.0Z"/></g>
<g fill="red" transform="translate(700 300) scale(0.1 -0.1)"><path d="M0.0 0.0 -72.0 34.0C-115.0 -57.0 -171.0 -160.0 -211.0 -223.0L-195.0 -234.0C-146.0 -177.0 -85.0 -90.0 -37.0 -14.0C-17.0 -18.0 -5.0 -9.0 0.0 0.0ZM-535.0 22.0 -548.0 14.0C-496.0 -38.0 -425.0 -126.0 -407.0 -189.0C-354.0 -226.0 -324.0 -105.0 -535.0 22.0Z"/></g>
<g fill="black" opacity=".8" transform="translate(700 300) scale(0.1 -0.1)"><path d="M0.0 0.0 -76.0 32.0C-115.0 -59.0 -170.0 -161.0 -215.0 -226.0L-199.0 -236.0C-143.0 -178.0 -81.0 -91.0 -38.0 -15.0C-17.0 -17.0 -4.0 -10.0 0.0 0.0ZM-534.0 20.0 -545.0 12.0C-492.0 -39.0 -426.0 -125.0 -411.0 -187.0C-356.0 -228.0 -324.0 -95.0 -534.0 20.0Z"/></g>
<g fill="red" transform="translate(800 300) scale(0.1 -0.1)"><path d="M0.0 0.0 -195.0 73.0C-218.0 -27.0 -252.0 -141.0 -280.0 -210.0L-270.0 -217.0C-191.0 -170.0 -110.0 -100.0 -43.0 -19.0C-20.0 -20.0 -5.0 -12.0 0.0 0.0ZM-631.0 60.0 -638.0 55.0C-597.0 -4.0 -554.0 -85.0 -539.0 -162.0C-400.0 -263.0 -279.0 5.0 -631.0 60.0Z"/></g>
<g fill="black" opacity=".8" transform="translate(800 300) scale(0.1 -0.1)"><path d="M0.0 0.0 -195.0 76.0C-218.0 -22.0 -255.0 -138.0 -283.0 -209.0L-269.0 -216.0C-191.0 -166.0 -108.0 -93.0 -44.0 -17.0C-19.0 -20.0 -5.0 -12.0 0.0 0.0ZM-635.0 61.0 -641.0 54.0C-594.0 -4.0 -549.0 -88.0 -536.0 -166.0C-399.0 -266.0 -281.0 4.0 -635.0 61.0Z"/></g>
<g fill="red" transform="translate(900 300) scale(0.1 -0.1)"><path d="M0.0 0.0 -85.0 27.0C-105.0 -44.0 -139.0 -140.0 -171.0 -206.0H-149.0C-107.0 -148.0 -62.0 -73.0 -37.0 -18.0C-16.0 -19.0 -4.0 -10.0 0.0 0.0ZM-481.0 21.0 -494.0 13.0C-452.0 -32.0 -403.0 -112.0 -398.0 -171.0C-348.0 -213.0 -306.0 -89.0 -481.0 21.0Z"/></g>
<g fill="black" opacity=".8" transform="translate(900 300) scale(0.1 -0.1)"><path d="M0.0 0.0 -83.0 26.0C-104.0 -44.0 -140.0 -140.0 -174.0 -205.0H-151.0C-109.0 -147.0 -63.0 -73.0 -38.0 -18.0C-17.0 -18.0 -3.0 -11.0 0.0 0.0ZM-479.0 22.0 -492.0 14.0C-454.0 -33.0 -405.0 -112.0 -398.0 -169.0C-350.0 -213.0 -307.0 -94.0 -479.0 22.0Z"/></g>
<g fill="red" transform="translate(1000 300) scale(0.1 -0.1)"><path d="M0.0 0.0 -195.0 62.0C-211.0 -14.0 -243.0 -125.0 -275.0 -199.0H-266.0C-183.0 -147.0 -92.0 -71.0 -39.0 -18.0C-16.0 -20.0 -5.0 -12.0 0.0 0.0ZM-589.0 52.0 -597.0 47.0C-565.0 -7.0 -531.0 -80.0 -521.0 -148.0C-399.0 -244.0 -276.0 -9.0 -589.0 52.0Z"/></g>
<g fill="black" opacity=".8" transform="translate(1000 300) scale(0.1 -0.1)"><path d="M0.0 0.0 -197.0 59.0C-212.0 -15.0 -243.0 -125.0 -269.0 -198.0H-256.0C-180.0 -146.0 -92.0 -71.0 -40.0 -18.0C-15.0 -21.0 -5.0 -12.0 0.0 0.0ZM-591.0 53.0 -599.0 48.0C-565.0 -5.0 -531.0 -78.0 -524.0 -149.0C-399.0 -249.0 -274.0 -7.0 -591.0 53.0Z"/></g>
<g fill="red" transform="translate(1100 300) scale(0.1 -0.1)"><path d="M0.0 0.0 -79.0 33.0C-101.0 -30.0 -139.0 -114.0 -173.0 -170.0H-150.0C-108.0 -123.0 -64.0 -62.0 -39.0 -15.0C-18.0 -18.0 -5.0 -11.0 0.0 0.0ZM-363.0 31.0 -376.0 24.0C-346.0 -16.0 -309.0 -83.0 -303.0 -134.0C-258.0 -172.0 -216.0 -69.0 -363.0 31.0Z"/></g>
<g fill="black" opacity=".8" transform="translate(1100 300) scale(0.1 -0.1)"><path d="M0.0 0.0 -81.0 27.0C-104.0 -34.0 -141.0 -117.0 -173.0 -171.0L-151.0 -174.0C-110.0 -127.0 -64.0 -64.0 -38.0 -17.0C-17.0 -18.0 -4.0 -11.0 0.0 0.0ZM-361.0 27.0 -373.0 19.0C-345.0 -19.0 -311.0 -82.0 -306.0 -129.0C-262.0 -168.0 -219.0 -65.0 -361.0 27.0Z"/></g>
<g fill="red" transform="translate(1200 300) scale(0.1 -0.1)"><path d="M0.0 0.0 -167.0 41.0C-177.0 -26.0 -199.0 -122.0 -222.0 -187.0H-210.0C-146.0 -138.0 -77.0 -71.0 -37.0 -21.0C-15.0 -21.0 -3.0 -13.0 0.0 0.0ZM-427.0 36.0 -436.0 32.0C-415.0 -16.0 -395.0 -81.0 -395.0 -141.0C-294.0 -236.0 -163.0 -41.0 -427.0 36.0Z"/></g>
<g fill="black" opacity=".8" transform="translate(1200 300) scale(0.1 -0.1)"><path d="M0.0 0.0 -170.0 42.0C-178.0 -26.0 -199.0 -123.0 -219.0 -187.0L-207.0 -189.0C-145.0 -140.0 -78.0 -72.0 -38.0 -20.0C-14.0 -21.0 -4.0 -12.0 0.0 0.0ZM-427.0 34.0 -435.0 29.0C-415.0 -17.0 -396.0 -80.0 -397.0 -139.0C-296.0 -232.0 -166.0 -37.0 -427.0 34.0Z"/></g>
<g fill="red" transform="translate(1300 300) scale(0.1 -0.1)"><path d="M0.0 0.0 -92.0 21.0C-117.0 -144.0 -158.0 -377.0 -190.0 -543.0H-170.0C-123.0 -381.0 -67.0 -165.0 -37.0 -22.0C-14.0 -22.0 -3.0 -12.0 0.0 0.0ZM-305.0 3.0 -324.0 0.0C-296.0 -117.0 -268.0 -296.0 -278.0 -427.0C-220.0 -494.0 -181.0 -287.0 -305.0 3.0Z"/></g>
<g fill="black" opacity=".8" transform="translate(1300 300) scale(0.1 -0.1)"><path d="M0.0 0.0 -87.0 21.0C-111.0 -146.0 -151.0 -371.0 -188.0 -532.0L-170.0 -535.0C-118.0 -377.0 -65.0 -167.0 -36.0 -22.0C-14.0 -21.0 -3.0 -12.0 0.0 0.0ZM-305.0 10.0 -324.0 6.0C-294.0 -115.0 -265.0 -299.0 -278.0 -429.0C-225.0 -499.0 -175.0 -297.0 -305.0 10.0Z"/></g>
<g fill="red" transform="translate(1400 300) scale(0.1 -0.1)"><path d="M0.0 0.0 -182.0 38.0C-186.0 -131.0 -197.0 -379.0 -213.0 -555.0H-201.0C-131.0 -384.0 -70.0 -164.0 -39.0 -26.0C-14.0 -24.0 -4.0 -13.0 0.0 0.0ZM-387.0 24.0 -402.0 21.0C-374.0 -114.0 -353.0 -276.0 -367.0 -417.0C-246.0 -549.0 -147.0 -250.0 -387.0 24.0Z"/></g>
<g fill="black" opacity=".8" transform="translate(1400 300) scale(0.1 -0.1)"><path d="M0.0 0.0 -172.0 42.0C-184.0 -130.0 -208.0 -376.0 -232.0 -548.0L-214.0 -551.0C-139.0 -384.0 -76.0 -167.0 -40.0 -24.0C-14.0 -24.0 -4.0 -12.0 0.0 0.0ZM-395.0 26.0 -409.0 22.0C-376.0 -116.0 -347.0 -280.0 -354.0 -422.0C-237.0 -553.0 -138.0 -267.0 -395.0 26.0Z"/></g>
<g fill="red" transform="translate(1500 300) scale(0.1 -0.1)"><path d="M0.0 0.0 -82.0 28.0C-102.0 -30.0 -137.0 -110.0 -167.0 -162.0H-145.0C-105.0 -119.0 -62.0 -61.0 -38.0 -17.0C-17.0 -18.0 -4.0 -10.0 0.0 0.0ZM-441.0 20.0 -454.0 13.0C-421.0 -23.0 -380.0 -83.0 -370.0 -128.0C-323.0 -164.0 -283.0 -63.0 -441.0 20.0Z"/></g>
<g fill="black" opacity=".8" transform="translate(1500 300) scale(0.1 -0.1)"><path d="M0.0 0.0 -84.0 24.0C-103.0 -29.0 -136.0 -108.0 -169.0 -161.0L-144.0 -160.0C-103.0 -114.0 -60.0 -59.0 -39.0 -18.0C-17.0 -19.0 -3.0 -11.0 0.0 0.0ZM-442.0 24.0 -454.0 16.0C-418.0 -22.0 -378.0 -85.0 -370.0 -128.0C-324.0 -166.0 -281.0 -62.0 -442.0 24.0Z"/></g>
<g fill="red" transform="translate(1600 300) scale(0.1 -0.1)"><path d="M0.0 0.0 -197.0 43.0C-203.0 -18.0 -219.0 -108.0 -238.0 -167.0H-229.0C-158.0 -127.0 -81.0 -67.0 -37.0 -22.0C-14.0 -21.0 -3.0 -13.0 0.0 0.0ZM-515.0 41.0 -522.0 37.0C-499.0 -5.0 -480.0 -64.0 -482.0 -120.0C-368.0 -222.0 -222.0 -5.0 -515.0 41.0Z"/></g>
<g fill="black" opacity=".8" transform="translate(1600 300) scale(0.1 -0.1)"><path d="M0.0 0.0 -190.0 45.0C-200.0 -13.0 -223.0 -105.0 -246.0 -168.0L-235.0 -167.0C-163.0 -124.0 -81.0 -61.0 -37.0 -19.0C-14.0 -21.0 -4.0 -12.0 0.0 0.0ZM-520.0 41.0 -526.0 36.0C-500.0 -7.0 -477.0 -68.0 -475.0 -124.0C-364.0 -222.0 -219.0 -9.0 -520.0 41.0Z"/></g>
<g fill="red" transform="translate(100 400) scale(0.1 -0.1)"><path d="M0.0 0.0 -84.0 28.0C-111.0 -78.0 -159.0 -222.0 -203.0 -324.0H-181.0C-124.0 -230.0 -69.0 -106.0 -38.0 -18.0C-17.0 -19.0 -4.0 -11.0 0.0 0.0ZM-455.0 18.0 -470.0 12.0C-425.0 -61.0 -375.0 -178.0 -375.0 -265.0C-320.0 -321.0 -270.0 -161.0 -455.0 18.0Z"/></g>
<g fill="black" opacity=".8" transform="translate(100 400) scale(0.1 -0.1)"><path d="M0.0 0.0 -82.0 28.0C-112.0 -81.0 -157.0 -222.0 -196.0 -318.0L-178.0 -324.0C-127.0 -234.0 -72.0 -110.0 -38.0 -18.0C-16.0 -19.0 -3.0 -11.0 0.0 0.0ZM-455.0 17.0 -469.0 10.0C-425.0 -65.0 -378.0 -184.0 -373.0 -263.0C-322.0 -316.0 -277.0 -165.0 -455.0 17.0Z"/></g>
<g fill="red" transform="translate(200 400) scale(0.1 -0.1)"><path d="M0.0 0.0 -191.0 74.0C-211.0 -30.0 -247.0 -190.0 -275.0 -300.0H-251.0C-173.0 -208.0 -94.0 -89.0 -41.0 -17.0C-17.0 -20.0 -5.0 -13.0 0.0 0.0ZM-591.0 65.0 -601.0 60.0C-554.0 -23.0 -517.0 -132.0 -516.0 -232.0C-388.0 -352.0 -259.0 -75.0 -591.0 65.0Z"/></g>
<g fill="black" opacity=".8" transform="translate(200 400) scale(0.1 -0.1)"><path d="M0.0 0.0 -192.0 73.0C-213.0 -41.0 -248.0 -197.0 -276.0 -299.0L-262.0 -304.0C-183.0 -219.0 -102.0 -105.0 -44.0 -18.0C-18.0 -21.0 -6.0 -12.0 0.0 0.0ZM-587.0 60.0 -597.0 55.0C-555.0 -25.0 -518.0 -132.0 -512.0 -224.0C-391.0 -334.0 -265.0 -75.0 -587.0 60.0Z"/></g>
<g fill="red" transform="translate(300 400) scale(0.1 -0.1)"><path d="M0.0 0.0 -78.0 25.0C-94.0 -30.0 -120.0 -106.0 -143.0 -156.0H-121.0C-90.0 -114.0 -57.0 -59.0 -37.0 -17.0C-16.0 -19.0 -4.0 -10.0 0.0 0.0ZM-303.0 22.0 -317.0 16.0C-294.0 -22.0 -269.0 -85.0 -268.0 -132.0C-226.0 -173.0 -179.0 -76.0 -303.0 22.0Z"/></g>
<g fill="black" opacity=".8" transform="translate(300 400) scale(0.1 -0.1)"><path d="M0.0 0.0 -83.0 24.0C-97.0 -31.0 -120.0 -107.0 -143.0 -157.0L-123.0 -160.0C-91.0 -117.0 -57.0 -62.0 -38.0 -19.0C-17.0 -20.0 -3.0 -11.0 0.0 0.0ZM-305.0 25.0 -318.0 19.0C-296.0 -21.0 -271.0 -85.0 -269.0 -131.0C-224.0 -173.0 -176.0 -72.0 -305.0 25.0Z"/></g>
<g fill="red" transform="translate(400 400) scale(0.1 -0.1)"><path d="M0.0 0.0 -160.0 53.0C-168.0 -5.0 -185.0 -89.0 -203.0 -144.0H-190.0C-134.0 -106.0 -76.0 -54.0 -39.0 -17.0C-17.0 -19.0 -5.0 -11.0 0.0 0.0ZM-352.0 46.0 -361.0 42.0C-343.0 5.0 -325.0 -48.0 -325.0 -97.0C-231.0 -183.0 -105.0 -6.0 -352.0 46.0Z"/></g>
<g fill="black" opacity=".8" transform="translate(400 400) scale(0.1 -0.1)"><path d="M0.0 0.0 -162.0 48.0C-167.0 -8.0 -181.0 -90.0 -192.0 -145.0L-183.0 -148.0C-132.0 -109.0 -74.0 -56.0 -40.0 -19.0C-16.0 -21.0 -4.0 -11.0 0.0 0.0ZM-350.0 43.0 -359.0 38.0C-342.0 5.0 -326.0 -45.0 -329.0 -92.0C-238.0 -177.0 -113.0 -0.0 -350.0 43.0Z"/></g>
<g fill="red" transform="translate(500 400) scale(0.1 -0.1)"><path d="M0.0 0.0 -90.0 19.0C-120.0 -138.0 -176.0 -349.0 -229.0 -502.0H-208.0C-139.0 -355.0 -72.0 -160.0 -37.0 -23.0C-15.0 -22.0 -3.0 -13.0 0.0 0.0ZM-410.0 4.0 -426.0 -3.0C-365.0 -123.0 -347.0 -305.0 -341.0 -397.0C-295.0 -458.0 -241.0 -261.0 -410.0 4.0Z"/></g>
<g fill="black" opacity=".8" transform="translate(500 400) scale(0.1 -0.1)"><path d="M0.0 0.0 -92.0 19.0C-122.0 -133.0 -178.0 -346.0 -231.0 -498.0H-208.0C-141.0 -350.0 -73.0 -157.0 -40.0 -24.0C-16.0 -22.0 -3.0 -14.0 0.0 0.0ZM-411.0 6.0 -427.0 -1.0C-363.0 -125.0 -345.0 -311.0 -338.0 -405.0C-289.0 -467.0 -238.0 -265.0 -411.0 6.0Z"/></g>
<g fill="red" transform="translate(600 400) scale(0.1 -0.1)"><path d="M0.0 0.0 -194.0 46.0C-203.0 -114.0 -228.0 -348.0 -259.0 -513.0H-235.0C-149.0 -358.0 -78.0 -156.0 -39.0 -24.0C-14.0 -23.0 -4.0 -13.0 0.0 0.0ZM-455.0 38.0 -467.0 33.0C-421.0 -100.0 -425.0 -271.0 -436.0 -375.0C-361.0 -530.0 -125.0 -279.0 -455.0 38.0Z"/></g>
<g fill="black" opacity=".8" transform="translate(600 400) scale(0.1 -0.1)"><path d="M0.0 0.0 -193.0 44.0C-202.0 -112.0 -229.0 -343.0 -262.0 -508.0H-247.0C-156.0 -354.0 -79.0 -153.0 -41.0 -24.0C-14.0 -24.0 -4.0 -13.0 0.0 0.0ZM-459.0 29.0 -471.0 23.0C-424.0 -106.0 -424.0 -275.0 -432.0 -379.0C-354.0 -530.0 -128.0 -283.0 -459.0 29.0Z"/></g>
<g fill="red" transform="translate(700 400) scale(0.1 -0.1)"><path d="M0.0 0.0 -76.0 29.0C-109.0 -66.0 -151.0 -176.0 -182.0 -246.0L-166.0 -255.0C-124.0 -191.0 -75.0 -95.0 -37.0 -17.0C-16.0 -18.0 -5.0 -9.0 0.0 0.0ZM-435.0 14.0 -448.0 6.0C-405.0 -40.0 -355.0 -121.0 -349.0 -182.0C-301.0 -224.0 -261.0 -100.0 -435.0 14.0Z"/></g>
<g fill="black" opacity=".8" transform="translate(700 400) scale(0.1 -0.1)"><path d="M0.0 0.0 -80.0 28.0C-111.0 -62.0 -155.0 -173.0 -191.0 -246.0L-172.0 -252.0C-124.0 -185.0 -72.0 -92.0 -37.0 -17.0C-17.0 -18.0 -4.0 -11.0 0.0 0.0ZM-436.0 21.0 -448.0 13.0C-406.0 -39.0 -353.0 -126.0 -344.0 -190.0C-292.0 -233.0 -257.0 -102.0 -436.0 21.0Z"/></g>
<g fill="red" transform="translate(800 400) scale(0.1 -0.1)"><path d="M0.0 0.0 -180.0 55.0C-198.0 -55.0 -226.0 -184.0 -250.0 -263.0L-237.0 -270.0C-166.0 -208.0 -96.0 -118.0 -40.0 -21.0C-17.0 -21.0 -4.0 -13.0 0.0 0.0ZM-512.0 37.0 -521.0 32.0C-487.0 -31.0 -454.0 -114.0 -448.0 -191.0C-326.0 -296.0 -199.0 -54.0 -512.0 37.0Z"/></g>
<g fill="black" opacity=".8" transform="translate(800 400) scale(0.1 -0.1)"><path d="M0.0 0.0 -187.0 50.0C-200.0 -48.0 -225.0 -175.0 -247.0 -258.0L-232.0 -263.0C-161.0 -195.0 -89.0 -102.0 -38.0 -21.0C-15.0 -22.0 -4.0 -12.0 0.0 0.0ZM-517.0 37.0 -524.0 31.0C-489.0 -35.0 -454.0 -122.0 -448.0 -204.0C-321.0 -307.0 -202.0 -54.0 -517.0 37.0Z"/></g>
<g fill="red" transform="translate(900 400) scale(0.1 -0.1)"><path d="M0.0 0.0 -82.0 24.0C-103.0 -35.0 -138.0 -114.0 -169.0 -166.0H-146.0C-106.0 -122.0 -63.0 -64.0 -38.0 -19.0C-17.0 -19.0 -4.0 -11.0 0.0 0.0ZM-359.0 29.0 -372.0 22.0C-343.0 -17.0 -307.0 -82.0 -302.0 -131.0C-257.0 -170.0 -214.0 -68.0 -359.0 29.0Z"/></g>
<g fill="black" opacity=".8" transform="translate(900 400) scale(0.1 -0.1)"><path d="M0.0 0.0 -80.0 27.0C-103.0 -32.0 -138.0 -114.0 -168.0 -167.0L-147.0 -170.0C-107.0 -123.0 -63.0 -62.0 -38.0 -17.0C-17.0 -18.0 -4.0 -11.0 0.0 0.0ZM-358.0 26.0 -370.0 19.0C-341.0 -19.0 -309.0 -82.0 -304.0 -128.0C-260.0 -166.0 -217.0 -65.0 -358.0 26.0Z"/></g>
<g fill="red" transform="translate(1000 400) scale(0.1 -0.1)"><path d="M0.0 0.0 -167.0 41.0C-177.0 -23.0 -198.0 -116.0 -220.0 -178.0H-208.0C-145.0 -132.0 -77.0 -68.0 -37.0 -21.0C-15.0 -21.0 -3.0 -13.0 0.0 0.0ZM-427.0 36.0 -436.0 32.0C-417.0 -12.0 -398.0 -73.0 -398.0 -130.0C-300.0 -223.0 -168.0 -34.0 -427.0 36.0Z"/></g>
<g fill="black" opacity=".8" transform="translate(1000 400) scale(0.1 -0.1)"><path d="M0.0 0.0 -170.0 44.0C-178.0 -21.0 -199.0 -116.0 -218.0 -178.0L-207.0 -180.0C-145.0 -134.0 -78.0 -69.0 -38.0 -19.0C-15.0 -21.0 -4.0 -11.0 0.0 0.0ZM-428.0 37.0 -436.0 31.0C-416.0 -12.0 -397.0 -74.0 -398.0 -130.0C-300.0 -221.0 -168.0 -31.0 -428.0 37.0Z"/></g>
<g fill="red" transform="translate(1100 400) scale(0.1 -0.1)"><path d="M0.0 0.0 -81.0 27.0C-104.0 -56.0 -137.0 -144.0 -167.0 -202.0L-151.0 -210.0C-110.0 -161.0 -67.0 -87.0 -36.0 -18.0C-16.0 -19.0 -4.0 -10.0 0.0 0.0ZM-399.0 18.0 -412.0 11.0C-376.0 -34.0 -330.0 -110.0 -321.0 -165.0C-271.0 -207.0 -230.0 -92.0 -399.0 18.0Z"/></g>
<g fill="black" opacity=".8" transform="translate(1100 400) scale(0.1 -0.1)"><path d="M0.0 0.0 -77.0 27.0C-103.0 -50.0 -138.0 -142.0 -169.0 -201.0L-152.0 -208.0C-111.0 -156.0 -67.0 -80.0 -36.0 -17.0C-16.0 -18.0 -3.0 -10.0 0.0 0.0ZM-400.0 20.0 -412.0 13.0C-374.0 -34.0 -328.0 -112.0 -319.0 -168.0C-270.0 -209.0 -231.0 -90.0 -400.0 20.0Z"/></g>
<g fill="red" transform="translate(1200 400) scale(0.1 -0.1)"><path d="M0.0 0.0 -175.0 60.0C-190.0 -22.0 -210.0 -118.0 -225.0 -176.0L-213.0 -183.0C-156.0 -142.0 -93.0 -81.0 -41.0 -20.0C-19.0 -21.0 -5.0 -12.0 0.0 0.0ZM-468.0 50.0 -476.0 45.0C-442.0 -2.0 -410.0 -72.0 -404.0 -136.0C-292.0 -225.0 -179.0 -4.0 -468.0 50.0Z"/></g>
<g fill="black" opacity=".8" transform="translate(1200 400) scale(0.1 -0.1)"><path d="M0.0 0.0 -174.0 61.0C-187.0 -19.0 -209.0 -120.0 -226.0 -183.0L-215.0 -189.0C-154.0 -143.0 -89.0 -77.0 -40.0 -18.0C-17.0 -21.0 -5.0 -11.0 0.0 0.0ZM-469.0 50.0 -476.0 45.0C-443.0 -2.0 -411.0 -70.0 -405.0 -134.0C-291.0 -223.0 -177.0 1.0 -469.0 50.0Z"/></g>
<g fill="red" transform="translate(1300 400) scale(0.1 -0.1)"><path d="M0.0 0.0 -90.0 19.0C-122.0 -140.0 -181.0 -355.0 -236.0 -510.0H-215.0C-144.0 -361.0 -74.0 -163.0 -38.0 -23.0C-15.0 -22.0 -3.0 -13.0 0.0 0.0ZM-449.0 0.0 -465.0 -8.0C-390.0 -135.0 -362.0 -329.0 -351.0 -429.0C-298.0 -490.0 -256.0 -277.0 -449.0 0.0Z"/></g>
<g fill="black" opacity=".8" transform="translate(1300 400) scale(0.1 -0.1)"><path d="M0.0 0.0 -85.0 19.0C-118.0 -142.0 -176.0 -358.0 -229.0 -511.0L-211.0 -514.0C-142.0 -364.0 -73.0 -164.0 -37.0 -22.0C-14.0 -20.0 -2.0 -13.0 0.0 0.0ZM-451.0 0.0 -466.0 -8.0C-392.0 -134.0 -362.0 -325.0 -351.0 -421.0C-302.0 -480.0 -258.0 -273.0 -451.0 0.0Z"/></g>
<g fill="red" transform="translate(1400 400) scale(0.1 -0.1)"><path d="M0.0 0.0 -196.0 48.0C-208.0 -110.0 -236.0 -340.0 -270.0 -502.0H-247.0C-157.0 -351.0 -81.0 -153.0 -40.0 -24.0C-15.0 -23.0 -4.0 -13.0 0.0 0.0ZM-521.0 30.0 -532.0 24.0C-472.0 -105.0 -462.0 -273.0 -464.0 -380.0C-376.0 -528.0 -162.0 -260.0 -521.0 30.0Z"/></g>
<g fill="black" opacity=".8" transform="translate(1400 400) scale(0.1 -0.1)"><path d="M0.0 0.0 -193.0 55.0C-207.0 -109.0 -238.0 -342.0 -272.0 -505.0L-256.0 -507.0C-164.0 -355.0 -86.0 -157.0 -40.0 -22.0C-14.0 -23.0 -4.0 -12.0 0.0 0.0ZM-519.0 38.0 -529.0 32.0C-470.0 -100.0 -461.0 -272.0 -462.0 -379.0C-378.0 -526.0 -161.0 -264.0 -519.0 38.0Z"/></g>
<g fill="red" transform="translate(1500 400) scale(0.1 -0.1)"><path d="M0.0 0.0 -83.0 21.0C-104.0 -142.0 -142.0 -364.0 -178.0 -525.0H-157.0C-109.0 -368.0 -61.0 -162.0 -37.0 -22.0C-15.0 -21.0 -3.0 -12.0 0.0 0.0ZM-344.0 1.0 -361.0 -5.0C-306.0 -140.0 -294.0 -343.0 -295.0 -441.0C-249.0 -507.0 -187.0 -299.0 -344.0 1.0Z"/></g>
<g fill="black" opacity=".8" transform="translate(1500 400) scale(0.1 -0.1)"><path d="M0.0 0.0 -86.0 13.0C-105.0 -146.0 -144.0 -373.0 -184.0 -538.0L-162.0 -535.0C-107.0 -371.0 -55.0 -163.0 -34.0 -24.0C-13.0 -21.0 -2.0 -13.0 0.0 0.0ZM-343.0 -0.0 -359.0 -6.0C-307.0 -135.0 -291.0 -329.0 -293.0 -436.0C-248.0 -500.0 -199.0 -299.0 -343.0 -0.0Z"/></g>
<g fill="red" transform="translate(1600 400) scale(0.1 -0.1)"><path d="M0.0 0.0 -186.0 39.0C-193.0 -128.0 -212.0 -372.0 -234.0 -546.0H-223.0C-144.0 -379.0 -75.0 -162.0 -39.0 -25.0C-14.0 -24.0 -4.0 -13.0 0.0 0.0ZM-418.0 23.0 -432.0 18.0C-388.0 -124.0 -379.0 -312.0 -376.0 -426.0C-303.0 -553.0 -129.0 -319.0 -418.0 23.0Z"/></g>
<g fill="black" opacity=".8" transform="translate(1600 400) scale(0.1 -0.1)"><path d="M0.0 0.0 -180.0 33.0C-187.0 -127.0 -209.0 -374.0 -236.0 -551.0L-221.0 -549.0C-136.0 -378.0 -65.0 -157.0 -34.0 -23.0C-10.0 -23.0 -3.0 -11.0 0.0 0.0ZM-418.0 21.0 -430.0 16.0C-387.0 -123.0 -380.0 -296.0 -388.0 -414.0C-307.0 -558.0 -123.0 -308.0 -418.0 21.0Z"/></g>
<g fill="red" transform="translate(100 500) scale(0.1 -0.1)"><path d="M0.0 0.0 -85.0 24.0C-105.0 -38.0 -140.0 -123.0 -172.0 -179.0H-149.0C-108.0 -131.0 -63.0 -68.0 -37.0 -18.0C-16.0 -19.0 -4.0 -10.0 0.0 0.0ZM-370.0 18.0 -383.0 11.0C-353.0 -29.0 -316.0 -96.0 -310.0 -147.0C-265.0 -186.0 -221.0 -82.0 -370.0 18.0Z"/></g>
<g fill="black" opacity=".8" transform="translate(100 500) scale(0.1 -0.1)"><path d="M0.0 0.0 -81.0 26.0C-103.0 -37.0 -138.0 -125.0 -170.0 -182.0L-149.0 -184.0C-107.0 -133.0 -63.0 -67.0 -38.0 -17.0C-17.0 -18.0 -3.0 -11.0 0.0 0.0ZM-370.0 24.0 -383.0 17.0C-350.0 -26.0 -318.0 -96.0 -312.0 -143.0C-268.0 -183.0 -224.0 -76.0 -370.0 24.0Z"/></g>
<g fill="red" transform="translate(200 500) scale(0.1 -0.1)"><path d="M0.0 0.0 -170.0 42.0C-180.0 -25.0 -202.0 -121.0 -225.0 -186.0H-213.0C-149.0 -138.0 -78.0 -70.0 -37.0 -20.0C-15.0 -21.0 -4.0 -12.0 0.0 0.0ZM-435.0 37.0 -444.0 33.0C-424.0 -14.0 -406.0 -78.0 -407.0 -138.0C-305.0 -236.0 -167.0 -39.0 -435.0 37.0Z"/></g>
<g fill="black" opacity=".8" transform="translate(200 500) scale(0.1 -0.1)"><path d="M0.0 0.0 -172.0 46.0C-181.0 -23.0 -202.0 -122.0 -222.0 -188.0L-211.0 -190.0C-147.0 -140.0 -79.0 -70.0 -38.0 -19.0C-15.0 -21.0 -4.0 -11.0 0.0 0.0ZM-437.0 38.0 -445.0 33.0C-421.0 -13.0 -404.0 -80.0 -405.0 -136.0C-309.0 -231.0 -167.0 -38.0 -437.0 38.0Z"/></g>
<g fill="red" transform="translate(300 500) scale(0.1 -0.1)"><path d="M0.0 0.0 -80.0 30.0C-107.0 -54.0 -145.0 -142.0 -179.0 -199.0L-163.0 -207.0C-117.0 -160.0 -71.0 -87.0 -37.0 -17.0C-16.0 -18.0 -5.0 -9.0 0.0 0.0ZM-397.0 21.0 -410.0 14.0C-374.0 -31.0 -328.0 -107.0 -319.0 -162.0C-269.0 -204.0 -228.0 -89.0 -397.0 21.0Z"/></g>
<g fill="black" opacity=".8" transform="translate(300 500) scale(0.1 -0.1)"><path d="M0.0 0.0 -81.0 31.0C-110.0 -49.0 -147.0 -143.0 -178.0 -203.0L-160.0 -211.0C-119.0 -159.0 -72.0 -82.0 -38.0 -17.0C-17.0 -19.0 -4.0 -11.0 0.0 0.0ZM-399.0 24.0 -412.0 16.0C-375.0 -29.0 -326.0 -105.0 -319.0 -162.0C-268.0 -205.0 -225.0 -86.0 -399.0 24.0Z"/></g>
<g fill="red" transform="translate(400 500) scale(0.1 -0.1)"><path d="M0.0 0.0 -184.0 63.0C-200.0 -24.0 -221.0 -127.0 -238.0 -188.0L-226.0 -195.0C-164.0 -151.0 -97.0 -87.0 -42.0 -20.0C-19.0 -21.0 -5.0 -13.0 0.0 0.0ZM-494.0 53.0 -502.0 48.0C-467.0 -1.0 -434.0 -72.0 -428.0 -138.0C-310.0 -232.0 -190.0 1.0 -494.0 53.0Z"/></g>
<g fill="black" opacity=".8" transform="translate(400 500) scale(0.1 -0.1)"><path d="M0.0 0.0 -182.0 66.0C-197.0 -20.0 -220.0 -125.0 -237.0 -190.0L-224.0 -197.0C-162.0 -149.0 -96.0 -84.0 -43.0 -19.0C-18.0 -22.0 -5.0 -12.0 0.0 0.0ZM-494.0 52.0 -502.0 46.0C-469.0 -1.0 -434.0 -71.0 -428.0 -138.0C-309.0 -230.0 -192.0 -1.0 -494.0 52.0Z"/></g>
<g fill="red" transform="translate(500 500) scale(0.1 -0.1)"><path d="M0.0 0.0 -77.0 33.0C-98.0 -26.0 -127.0 -86.0 -154.0 -124.0L-139.0 -134.0C-104.0 -105.0 -65.0 -61.0 -36.0 -15.0C-16.0 -17.0 -4.0 -9.0 0.0 0.0ZM-355.0 36.0 -368.0 29.0C-339.0 -5.0 -305.0 -64.0 -298.0 -108.0C-252.0 -146.0 -209.0 -47.0 -355.0 36.0Z"/></g>
<g fill="black" opacity=".8" transform="translate(500 500) scale(0.1 -0.1)"><path d="M0.0 0.0 -75.0 27.0C-98.0 -25.0 -129.0 -90.0 -156.0 -129.0L-138.0 -134.0C-103.0 -102.0 -62.0 -56.0 -36.0 -15.0C-16.0 -17.0 -4.0 -10.0 0.0 0.0ZM-356.0 26.0 -368.0 20.0C-342.0 -10.0 -302.0 -60.0 -296.0 -103.0C-251.0 -139.0 -212.0 -46.0 -356.0 26.0Z"/></g>
<g fill="red" transform="translate(600 500) scale(0.1 -0.1)"><path d="M0.0 0.0 -165.0 57.0C-175.0 -4.0 -188.0 -73.0 -198.0 -114.0L-186.0 -121.0C-139.0 -96.0 -86.0 -58.0 -40.0 -21.0C-18.0 -21.0 -5.0 -13.0 0.0 0.0ZM-423.0 43.0 -431.0 38.0C-405.0 5.0 -379.0 -47.0 -374.0 -95.0C-272.0 -170.0 -166.0 24.0 -423.0 43.0Z"/></g>
<g fill="black" opacity=".8" transform="translate(600 500) scale(0.1 -0.1)"><path d="M0.0 0.0 -161.0 53.0C-172.0 -5.0 -192.0 -78.0 -207.0 -123.0L-197.0 -128.0C-143.0 -100.0 -82.0 -58.0 -38.0 -17.0C-16.0 -20.0 -4.0 -11.0 0.0 0.0ZM-421.0 45.0 -428.0 40.0C-406.0 9.0 -379.0 -37.0 -376.0 -88.0C-270.0 -166.0 -168.0 27.0 -421.0 45.0Z"/></g>
<g fill="red" transform="translate(700 500) scale(0.1 -0.1)"><path d="M0.0 0.0 -84.0 24.0C-96.0 -43.0 -118.0 -137.0 -137.0 -200.0H-117.0C-86.0 -143.0 -55.0 -72.0 -37.0 -19.0C-16.0 -20.0 -4.0 -11.0 0.0 0.0ZM-299.0 21.0 -314.0 16.0C-289.0 -30.0 -265.0 -104.0 -266.0 -160.0C-223.0 -205.0 -173.0 -96.0 -299.0 21.0Z"/></g>
<g fill="black" opacity=".8" transform="translate(700 500) scale(0.1 -0.1)"><path d="M0.0 0.0 -80.0 22.0C-94.0 -42.0 -119.0 -137.0 -143.0 -201.0H-121.0C-88.0 -143.0 -53.0 -69.0 -36.0 -18.0C-15.0 -19.0 -3.0 -11.0 0.0 0.0ZM-297.0 22.0 -310.0 16.0C-287.0 -33.0 -265.0 -109.0 -266.0 -161.0C-225.0 -204.0 -178.0 -98.0 -297.0 22.0Z"/></g>
<g fill="red" transform="translate(800 500) scale(0.1 -0.1)"><path d="M0.0 0.0 -155.0 48.0C-163.0 -23.0 -179.0 -129.0 -192.0 -201.0H-179.0C-129.0 -143.0 -73.0 -68.0 -38.0 -19.0C-16.0 -21.0 -4.0 -12.0 0.0 0.0ZM-361.0 44.0 -372.0 40.0C-355.0 -12.0 -341.0 -82.0 -347.0 -145.0C-261.0 -240.0 -132.0 -63.0 -361.0 44.0Z"/></g>
<g fill="black" opacity=".8" transform="translate(800 500) scale(0.1 -0.1)"><path d="M0.0 0.0 -159.0 42.0C-164.0 -26.0 -181.0 -130.0 -196.0 -202.0L-186.0 -203.0C-130.0 -145.0 -69.0 -67.0 -36.0 -18.0C-14.0 -20.0 -4.0 -11.0 0.0 0.0ZM-364.0 36.0 -372.0 32.0C-355.0 -17.0 -342.0 -83.0 -345.0 -140.0C-260.0 -230.0 -133.0 -54.0 -364.0 36.0Z"/></g>
<g fill="red" transform="translate(900 500) scale(0.1 -0.1)"><path d="M0.0 0.0 -85.0 26.0C-121.0 -131.0 -190.0 -341.0 -255.0 -490.0H-234.0C-155.0 -347.0 -78.0 -156.0 -38.0 -19.0C-16.0 -20.0 -4.0 -11.0 0.0 0.0ZM-555.0 18.0 -573.0 13.0C-521.0 -100.0 -457.0 -281.0 -458.0 -409.0C-398.0 -472.0 -360.0 -268.0 -555.0 18.0Z"/></g>
<g fill="black" opacity=".8" transform="translate(900 500) scale(0.1 -0.1)"><path d="M0.0 0.0 -88.0 25.0C-125.0 -134.0 -192.0 -344.0 -252.0 -493.0L-231.0 -495.0C-158.0 -351.0 -81.0 -158.0 -39.0 -20.0C-16.0 -19.0 -4.0 -12.0 0.0 0.0ZM-553.0 13.0 -571.0 7.0C-521.0 -104.0 -462.0 -280.0 -463.0 -405.0C-401.0 -469.0 -363.0 -260.0 -553.0 13.0Z"/></g>
<g fill="red" transform="translate(1000 500) scale(0.1 -0.1)"><path d="M0.0 0.0 -205.0 51.0C-230.0 -108.0 -279.0 -346.0 -327.0 -512.0H-301.0C-195.0 -359.0 -96.0 -154.0 -40.0 -24.0C-15.0 -24.0 -4.0 -13.0 0.0 0.0ZM-647.0 39.0 -659.0 35.0C-609.0 -106.0 -560.0 -269.0 -555.0 -417.0C-400.0 -565.0 -289.0 -219.0 -647.0 39.0Z"/></g>
<g fill="black" opacity=".8" transform="translate(1000 500) scale(0.1 -0.1)"><path d="M0.0 0.0 -208.0 54.0C-230.0 -112.0 -274.0 -349.0 -317.0 -512.0L-298.0 -514.0C-195.0 -363.0 -99.0 -162.0 -43.0 -24.0C-16.0 -24.0 -5.0 -13.0 0.0 0.0ZM-644.0 39.0 -656.0 34.0C-608.0 -104.0 -563.0 -269.0 -560.0 -416.0C-405.0 -558.0 -294.0 -212.0 -644.0 39.0Z"/></g>
<g fill="red" transform="translate(1100 500) scale(0.1 -0.1)"><path d="M0.0 0.0 -61.0 51.0C-138.0 13.0 -290.0 -38.0 -413.0 -63.0L-407.0 -81.0C-280.0 -66.0 -135.0 -30.0 -44.0 0.0C-24.0 -8.0 -8.0 -8.0 0.0 0.0ZM-808.0 55.0 -821.0 48.0C-790.0 7.0 -750.0 -62.0 -739.0 -111.0C-693.0 -148.0 -653.0 -48.0 -808.0 55.0Z"/></g>
<g fill="black" opacity=".8" transform="translate(1100 500) scale(0.1 -0.1)"><path d="M0.0 0.0 -62.0 50.0C-140.0 14.0 -290.0 -39.0 -415.0 -65.0L-407.0 -82.0C-280.0 -66.0 -133.0 -30.0 -45.0 -0.0C-23.0 -8.0 -8.0 -8.0 0.0 0.0ZM-809.0 57.0 -822.0 51.0C-792.0 9.0 -748.0 -59.0 -738.0 -111.0C-691.0 -150.0 -650.0 -48.0 -809.0 57.0Z"/></g>
<g fill="red" transform="translate(1200 500) scale(0.1 -0.1)"><path d="M0.0 0.0 -143.0 132.0C-204.0 84.0 -327.0 14.0 -426.0 -25.0L-424.0 -35.0C-302.0 -33.0 -160.0 -19.0 -72.0 0.0C-38.0 -12.0 -13.0 -11.0 0.0 0.0ZM-884.0 131.0 -894.0 126.0C-871.0 80.0 -846.0 14.0 -843.0 -44.0C-748.0 -128.0 -634.0 57.0 -884.0 131.0Z"/></g>
<g fill="black" opacity=".8" transform="translate(1200 500) scale(0.1 -0.1)"><path d="M0.0 0.0 -143.0 133.0C-203.0 86.0 -326.0 16.0 -425.0 -23.0L-422.0 -33.0C-299.0 -30.0 -158.0 -17.0 -71.0 1.0C-36.0 -12.0 -13.0 -10.0 0.0 0.0ZM-884.0 133.0 -894.0 127.0C-874.0 80.0 -847.0 16.0 -845.0 -46.0C-747.0 -132.0 -634.0 55.0 -884.0 133.0Z"/></g>
<g fill="red" transform="translate(1300 500) scale(0.1 -0.1)"><path d="M0.0 0.0 -80.0 26.0C-103.0 -23.0 -140.0 -91.0 -171.0 -135.0H-147.0C-109.0 -100.0 -66.0 -54.0 -39.0 -17.0C-18.0 -18.0 -5.0 -10.0 0.0 0.0ZM-460.0 24.0 -472.0 16.0C-436.0 -14.0 -394.0 -69.0 -384.0 -110.0C-336.0 -144.0 -299.0 -39.0 -460.0 24.0Z"/></g>
<g fill="black" opacity=".8" transform="translate(1300 500) scale(0.1 -0.1)"><path d="M0.0 0.0 -79.0 24.0C-101.0 -26.0 -136.0 -93.0 -168.0 -136.0L-145.0 -137.0C-104.0 -101.0 -61.0 -56.0 -38.0 -17.0C-17.0 -17.0 -3.0 -11.0 0.0 0.0ZM-465.0 25.0 -476.0 17.0C-442.0 -11.0 -389.0 -62.0 -379.0 -108.0C-329.0 -142.0 -296.0 -40.0 -465.0 25.0Z"/></g>
<g fill="red" transform="translate(1400 500) scale(0.1 -0.1)"><path d="M0.0 0.0 -187.0 36.0C-196.0 -20.0 -215.0 -102.0 -234.0 -156.0H-208.0C-147.0 -119.0 -80.0 -64.0 -37.0 -23.0C-14.0 -22.0 -3.0 -13.0 0.0 0.0ZM-521.0 31.0 -527.0 26.0C-496.0 -9.0 -465.0 -66.0 -459.0 -120.0C-329.0 -208.0 -209.0 36.0 -521.0 31.0Z"/></g>
<g fill="black" opacity=".8" transform="translate(1400 500) scale(0.1 -0.1)"><path d="M0.0 0.0 -188.0 40.0C-197.0 -17.0 -218.0 -98.0 -239.0 -151.0L-228.0 -152.0C-159.0 -117.0 -80.0 -62.0 -34.0 -20.0C-12.0 -21.0 -3.0 -12.0 0.0 0.0ZM-519.0 34.0 -524.0 29.0C-497.0 -9.0 -463.0 -62.0 -457.0 -123.0C-326.0 -214.0 -215.0 22.0 -519.0 34.0Z"/></g>
<g fill="red" transform="translate(1500 500) scale(0.1 -0.1)"><path d="M0.0 0.0 -81.0 27.0C-104.0 -56.0 -137.0 -144.0 -167.0 -202.0L-151.0 -210.0C-110.0 -161.0 -67.0 -87.0 -36.0 -18.0C-16.0 -19.0 -4.0 -10.0 0.0 0.0ZM-391.0 18.0 -404.0 11.0C-368.0 -34.0 -322.0 -110.0 -313.0 -165.0C-263.0 -207.0 -222.0 -92.0 -391.0 18.0Z"/></g>
<g fill="black" opacity=".8" transform="translate(1500 500) scale(0.1 -0.1)"><path d="M0.0 0.0 -76.0 27.0C-103.0 -51.0 -139.0 -144.0 -169.0 -203.0L-153.0 -211.0C-111.0 -157.0 -67.0 -81.0 -36.0 -17.0C-16.0 -18.0 -3.0 -10.0 0.0 0.0ZM-392.0 20.0 -404.0 13.0C-366.0 -34.0 -319.0 -111.0 -311.0 -168.0C-262.0 -208.0 -225.0 -89.0 -392.0 20.0Z"/></g>
<g fill="red" transform="translate(1600 500) scale(0.1 -0.1)"><path d="M0.0 0.0 -171.0 58.0C-186.0 -26.0 -207.0 -124.0 -223.0 -184.0L-211.0 -191.0C-154.0 -147.0 -92.0 -84.0 -41.0 -20.0C-18.0 -21.0 -5.0 -13.0 0.0 0.0ZM-458.0 48.0 -467.0 43.0C-432.0 -6.0 -398.0 -77.0 -392.0 -142.0C-282.0 -230.0 -171.0 -11.0 -458.0 48.0Z"/></g>
<g fill="black" opacity=".8" transform="translate(1600 500) scale(0.1 -0.1)"><path d="M0.0 0.0 -172.0 59.0C-185.0 -23.0 -206.0 -125.0 -223.0 -189.0L-211.0 -195.0C-150.0 -147.0 -87.0 -80.0 -40.0 -18.0C-16.0 -21.0 -5.0 -11.0 0.0 0.0ZM-458.0 47.0 -466.0 42.0C-433.0 -6.0 -401.0 -75.0 -395.0 -140.0C-281.0 -229.0 -170.0 -5.0 -458.0 47.0Z"/></g>
<g fill="red" transform="translate(100 600) scale(0.1 -0.1)"><path d="M0.0 0.0 -82.0 24.0C-106.0 -35.0 -148.0 -115.0 -184.0 -166.0H-161.0C-115.0 -124.0 -67.0 -65.0 -39.0 -18.0C-17.0 -19.0 -4.0 -11.0 0.0 0.0ZM-481.0 16.0 -493.0 8.0C-451.0 -28.0 -399.0 -92.0 -385.0 -140.0C-332.0 -175.0 -298.0 -61.0 -481.0 16.0Z"/></g>
<g fill="black" opacity=".8" transform="translate(100 600) scale(0.1 -0.1)"><path d="M0.0 0.0 -82.0 25.0C-107.0 -38.0 -144.0 -116.0 -178.0 -167.0L-156.0 -169.0C-112.0 -126.0 -66.0 -69.0 -39.0 -19.0C-17.0 -19.0 -4.0 -11.0 0.0 0.0ZM-485.0 22.0 -496.0 14.0C-454.0 -22.0 -397.0 -86.0 -385.0 -137.0C-331.0 -174.0 -297.0 -57.0 -485.0 22.0Z"/></g>
<g fill="red" transform="translate(200 600) scale(0.1 -0.1)"><path d="M0.0 0.0 -202.0 42.0C-209.0 -20.0 -225.0 -111.0 -242.0 -172.0H-234.0C-164.0 -130.0 -83.0 -67.0 -37.0 -22.0C-14.0 -22.0 -3.0 -13.0 0.0 0.0ZM-530.0 35.0 -536.0 30.0C-498.0 -11.0 -464.0 -76.0 -457.0 -137.0C-321.0 -232.0 -199.0 29.0 -530.0 35.0Z"/></g>
<g fill="black" opacity=".8" transform="translate(200 600) scale(0.1 -0.1)"><path d="M0.0 0.0 -196.0 47.0C-206.0 -21.0 -226.0 -111.0 -246.0 -170.0L-234.0 -172.0C-164.0 -133.0 -85.0 -72.0 -37.0 -21.0C-14.0 -22.0 -3.0 -12.0 0.0 0.0ZM-528.0 39.0 -534.0 33.0C-500.0 -9.0 -465.0 -71.0 -457.0 -135.0C-323.0 -231.0 -199.0 20.0 -528.0 39.0Z"/></g>
<g fill="red" transform="translate(300 600) scale(0.1 -0.1)"><path d="M0.0 0.0 -80.0 27.0C-96.0 -31.0 -133.0 -143.0 -165.0 -216.0L-152.0 -222.0C-106.0 -156.0 -58.0 -69.0 -34.0 -18.0C-13.0 -20.0 -2.0 -9.0 0.0 0.0ZM-338.0 19.0 -352.0 14.0C-327.0 -35.0 -296.0 -113.0 -292.0 -170.0C-245.0 -215.0 -198.0 -106.0 -338.0 19.0Z"/></g>
<g fill="black" opacity=".8" transform="translate(300 600) scale(0.1 -0.1)"><path d="M0.0 0.0 -79.0 24.0C-99.0 -46.0 -133.0 -144.0 -164.0 -209.0L-144.0 -212.0C-104.0 -152.0 -60.0 -74.0 -36.0 -17.0C-16.0 -18.0 -3.0 -11.0 0.0 0.0ZM-339.0 22.0 -351.0 15.0C-321.0 -37.0 -295.0 -119.0 -292.0 -171.0C-249.0 -214.0 -204.0 -101.0 -339.0 22.0Z"/></g>
<g fill="red" transform="translate(400 600) scale(0.1 -0.1)"><path d="M0.0 0.0 -167.0 50.0C-170.0 -5.0 -186.0 -123.0 -201.0 -201.0L-192.0 -205.0C-133.0 -148.0 -69.0 -68.0 -38.0 -21.0C-15.0 -22.0 -3.0 -10.0 0.0 0.0ZM-401.0 38.0 -411.0 34.0C-390.0 -16.0 -376.0 -83.0 -383.0 -145.0C-287.0 -246.0 -148.0 -53.0 -401.0 38.0Z"/></g>
<g fill="black" opacity=".8" transform="translate(400 600) scale(0.1 -0.1)"><path d="M0.0 0.0 -162.0 49.0C-171.0 -24.0 -192.0 -132.0 -212.0 -204.0L-202.0 -207.0C-141.0 -149.0 -77.0 -72.0 -39.0 -18.0C-15.0 -20.0 -4.0 -11.0 0.0 0.0ZM-402.0 42.0 -411.0 37.0C-387.0 -14.0 -373.0 -86.0 -375.0 -144.0C-289.0 -237.0 -151.0 -54.0 -402.0 42.0Z"/></g>
<g fill="red" transform="translate(500 600) scale(0.1 -0.1)"><path d="M0.0 0.0 -74.0 36.0C-107.0 -35.0 -151.0 -110.0 -184.0 -155.0L-170.0 -166.0C-126.0 -129.0 -77.0 -69.0 -38.0 -14.0C-18.0 -17.0 -5.0 -10.0 0.0 0.0ZM-402.0 26.0 -414.0 18.0C-374.0 -18.0 -324.0 -81.0 -311.0 -128.0C-259.0 -164.0 -223.0 -51.0 -402.0 26.0Z"/></g>
<g fill="black" opacity=".8" transform="translate(500 600) scale(0.1 -0.1)"><path d="M0.0 0.0 -71.0 29.0C-105.0 -40.0 -148.0 -114.0 -184.0 -157.0L-169.0 -168.0C-124.0 -131.0 -73.0 -71.0 -35.0 -14.0C-16.0 -16.0 -4.0 -10.0 0.0 0.0ZM-404.0 23.0 -413.0 15.0C-374.0 -18.0 -321.0 -77.0 -309.0 -124.0C-259.0 -158.0 -229.0 -51.0 -404.0 23.0Z"/></g>
<g fill="red" transform="translate(600 600) scale(0.1 -0.1)"><path d="M0.0 0.0 -165.0 58.0C-177.0 -16.0 -193.0 -100.0 -207.0 -152.0L-195.0 -159.0C-142.0 -124.0 -86.0 -73.0 -40.0 -20.0C-18.0 -21.0 -4.0 -13.0 0.0 0.0ZM-455.0 43.0 -463.0 38.0C-429.0 -4.0 -394.0 -69.0 -386.0 -128.0C-270.0 -211.0 -161.0 13.0 -455.0 43.0Z"/></g>
<g fill="black" opacity=".8" transform="translate(600 600) scale(0.1 -0.1)"><path d="M0.0 0.0 -164.0 56.0C-178.0 -20.0 -200.0 -105.0 -218.0 -154.0L-206.0 -162.0C-147.0 -129.0 -88.0 -78.0 -38.0 -18.0C-16.0 -20.0 -4.0 -11.0 0.0 0.0ZM-453.0 42.0 -459.0 36.0C-426.0 -3.0 -394.0 -63.0 -386.0 -121.0C-271.0 -204.0 -165.0 14.0 -453.0 42.0Z"/></g>
<g fill="red" transform="translate(700 600) scale(0.1 -0.1)"><path d="M0.0 0.0 -78.0 31.0C-99.0 -22.0 -133.0 -95.0 -162.0 -142.0H-138.0C-102.0 -103.0 -62.0 -54.0 -39.0 -15.0C-18.0 -17.0 -5.0 -10.0 0.0 0.0ZM-363.0 26.0 -376.0 19.0C-349.0 -13.0 -315.0 -70.0 -305.0 -109.0C-260.0 -143.0 -220.0 -52.0 -363.0 26.0Z"/></g>
<g fill="black" opacity=".8" transform="translate(700 600) scale(0.1 -0.1)"><path d="M0.0 0.0 -86.0 28.0C-106.0 -25.0 -134.0 -98.0 -159.0 -143.0L-136.0 -145.0C-101.0 -107.0 -63.0 -58.0 -40.0 -18.0C-18.0 -20.0 -4.0 -12.0 0.0 0.0ZM-365.0 28.0 -378.0 21.0C-351.0 -10.0 -314.0 -63.0 -308.0 -107.0C-261.0 -146.0 -216.0 -48.0 -365.0 28.0Z"/></g>
<g fill="red" transform="translate(800 600) scale(0.1 -0.1)"><path d="M0.0 0.0 -180.0 44.0C-190.0 -15.0 -210.0 -101.0 -229.0 -158.0H-219.0C-155.0 -119.0 -80.0 -62.0 -37.0 -20.0C-14.0 -21.0 -3.0 -12.0 0.0 0.0ZM-441.0 35.0 -448.0 30.0C-424.0 -3.0 -403.0 -56.0 -403.0 -105.0C-292.0 -195.0 -162.0 14.0 -441.0 35.0Z"/></g>
<g fill="black" opacity=".8" transform="translate(800 600) scale(0.1 -0.1)"><path d="M0.0 0.0 -182.0 46.0C-189.0 -14.0 -205.0 -98.0 -220.0 -152.0L-209.0 -154.0C-149.0 -117.0 -81.0 -64.0 -39.0 -21.0C-15.0 -22.0 -4.0 -12.0 0.0 0.0ZM-440.0 38.0 -448.0 33.0C-428.0 -2.0 -404.0 -54.0 -404.0 -108.0C-293.0 -198.0 -165.0 4.0 -440.0 38.0Z"/></g>
<g fill="red" transform="translate(900 600) scale(0.1 -0.1)"><path d="M0.0 0.0 -82.0 19.0C-101.0 -105.0 -131.0 -281.0 -155.0 -405.0H-134.0C-100.0 -285.0 -59.0 -128.0 -37.0 -22.0C-14.0 -22.0 -3.0 -13.0 0.0 0.0ZM-290.0 11.0 -307.0 4.0C-260.0 -99.0 -249.0 -257.0 -247.0 -334.0C-209.0 -388.0 -156.0 -224.0 -290.0 11.0Z"/></g>
<g fill="black" opacity=".8" transform="translate(900 600) scale(0.1 -0.1)"><path d="M0.0 0.0 -89.0 19.0C-104.0 -106.0 -130.0 -280.0 -157.0 -404.0L-136.0 -405.0C-96.0 -286.0 -56.0 -131.0 -37.0 -23.0C-14.0 -22.0 -2.0 -13.0 0.0 0.0ZM-291.0 8.0 -307.0 2.0C-265.0 -99.0 -249.0 -250.0 -249.0 -332.0C-204.0 -392.0 -149.0 -225.0 -291.0 8.0Z"/></g>
<g fill="red" transform="translate(1000 600) scale(0.1 -0.1)"><path d="M0.0 0.0 -172.0 44.0C-180.0 -83.0 -198.0 -268.0 -216.0 -399.0H-204.0C-137.0 -278.0 -74.0 -122.0 -38.0 -23.0C-15.0 -22.0 -4.0 -13.0 0.0 0.0ZM-368.0 35.0 -380.0 29.0C-341.0 -60.0 -336.0 -182.0 -340.0 -255.0C-270.0 -374.0 -88.0 -163.0 -368.0 35.0Z"/></g>
<g fill="black" opacity=".8" transform="translate(1000 600) scale(0.1 -0.1)"><path d="M0.0 0.0 -176.0 51.0C-182.0 -73.0 -196.0 -258.0 -212.0 -387.0L-199.0 -388.0C-133.0 -270.0 -74.0 -118.0 -40.0 -21.0C-15.0 -23.0 -4.0 -12.0 0.0 0.0ZM-369.0 40.0 -380.0 35.0C-344.0 -60.0 -336.0 -185.0 -341.0 -270.0C-264.0 -391.0 -90.0 -177.0 -369.0 40.0Z"/></g>
<g fill="red" transform="translate(1100 600) scale(0.1 -0.1)"><path d="M0.0 0.0 -84.0 28.0C-114.0 -30.0 -162.0 -110.0 -200.0 -162.0H-177.0C-128.0 -120.0 -74.0 -62.0 -41.0 -17.0C-19.0 -19.0 -5.0 -11.0 0.0 0.0ZM-516.0 23.0 -527.0 14.0C-481.0 -19.0 -424.0 -80.0 -412.0 -130.0C-355.0 -165.0 -325.0 -42.0 -516.0 23.0Z"/></g>
<g fill="black" opacity=".8" transform="translate(1100 600) scale(0.1 -0.1)"><path d="M0.0 0.0 -83.0 28.0C-112.0 -31.0 -159.0 -106.0 -201.0 -154.0L-179.0 -156.0C-127.0 -117.0 -72.0 -63.0 -41.0 -18.0C-18.0 -18.0 -4.0 -11.0 0.0 0.0ZM-511.0 26.0 -523.0 17.0C-479.0 -20.0 -428.0 -83.0 -414.0 -129.0C-362.0 -166.0 -325.0 -52.0 -511.0 26.0Z"/></g>
<g fill="red" transform="translate(1200 600) scale(0.1 -0.1)"><path d="M0.0 0.0 -200.0 56.0C-212.0 -7.0 -237.0 -100.0 -260.0 -163.0H-252.0C-177.0 -122.0 -89.0 -61.0 -38.0 -19.0C-15.0 -20.0 -4.0 -12.0 0.0 0.0ZM-553.0 42.0 -560.0 37.0C-534.0 -1.0 -509.0 -57.0 -506.0 -112.0C-383.0 -208.0 -247.0 23.0 -553.0 42.0Z"/></g>
<g fill="black" opacity=".8" transform="translate(1200 600) scale(0.1 -0.1)"><path d="M0.0 0.0 -195.0 55.0C-208.0 -9.0 -237.0 -97.0 -265.0 -154.0L-254.0 -156.0C-177.0 -120.0 -92.0 -65.0 -41.0 -19.0C-16.0 -22.0 -4.0 -12.0 0.0 0.0ZM-562.0 48.0 -568.0 42.0C-535.0 0.0 -506.0 -62.0 -501.0 -120.0C-377.0 -219.0 -234.0 16.0 -562.0 48.0Z"/></g>
<g fill="red" transform="translate(1300 600) scale(0.1 -0.1)"><path d="M0.0 0.0 -90.0 19.0C-121.0 -134.0 -177.0 -341.0 -230.0 -489.0H-209.0C-141.0 -347.0 -73.0 -157.0 -38.0 -23.0C-15.0 -22.0 -4.0 -13.0 0.0 0.0ZM-420.0 5.0 -436.0 -3.0C-367.0 -119.0 -341.0 -297.0 -331.0 -389.0C-281.0 -448.0 -237.0 -250.0 -420.0 5.0Z"/></g>
<g fill="black" opacity=".8" transform="translate(1300 600) scale(0.1 -0.1)"><path d="M0.0 0.0 -93.0 22.0C-125.0 -133.0 -179.0 -338.0 -228.0 -483.0L-207.0 -487.0C-142.0 -347.0 -77.0 -159.0 -40.0 -24.0C-16.0 -23.0 -3.0 -14.0 0.0 0.0ZM-421.0 7.0 -437.0 -1.0C-371.0 -119.0 -341.0 -298.0 -332.0 -393.0C-278.0 -455.0 -230.0 -251.0 -421.0 7.0Z"/></g>
<g fill="red" transform="translate(1400 600) scale(0.1 -0.1)"><path d="M0.0 0.0 -195.0 48.0C-207.0 -108.0 -235.0 -337.0 -269.0 -498.0H-258.0C-163.0 -348.0 -82.0 -152.0 -39.0 -24.0C-14.0 -23.0 -3.0 -13.0 0.0 0.0ZM-468.0 28.0 -479.0 22.0C-423.0 -96.0 -414.0 -251.0 -417.0 -349.0C-330.0 -493.0 -117.0 -234.0 -468.0 28.0Z"/></g>
<g fill="black" opacity=".8" transform="translate(1400 600) scale(0.1 -0.1)"><path d="M0.0 0.0 -198.0 51.0C-208.0 -107.0 -232.0 -330.0 -260.0 -485.0L-244.0 -488.0C-158.0 -344.0 -85.0 -155.0 -42.0 -25.0C-15.0 -25.0 -4.0 -13.0 0.0 0.0ZM-467.0 33.0 -479.0 27.0C-428.0 -96.0 -418.0 -257.0 -421.0 -362.0C-328.0 -508.0 -118.0 -242.0 -467.0 33.0Z"/></g>
<g fill="red" transform="translate(1500 600) scale(0.1 -0.1)"><path d="M0.0 0.0 -85.0 17.0C-106.0 -118.0 -150.0 -294.0 -199.0 -423.0H-179.0C-117.0 -300.0 -64.0 -142.0 -37.0 -23.0C-15.0 -21.0 -3.0 -12.0 0.0 0.0ZM-469.0 11.0 -487.0 6.0C-446.0 -95.0 -399.0 -254.0 -402.0 -368.0C-345.0 -428.0 -303.0 -244.0 -469.0 11.0Z"/></g>
<g fill="black" opacity=".8" transform="translate(1500 600) scale(0.1 -0.1)"><path d="M0.0 0.0 -88.0 17.0C-109.0 -114.0 -155.0 -295.0 -202.0 -426.0L-180.0 -425.0C-121.0 -299.0 -64.0 -137.0 -38.0 -23.0C-15.0 -21.0 -3.0 -12.0 0.0 0.0ZM-467.0 11.0 -485.0 6.0C-443.0 -97.0 -403.0 -258.0 -404.0 -366.0C-347.0 -427.0 -305.0 -237.0 -467.0 11.0Z"/></g>
<g fill="red" transform="translate(1600 600) scale(0.1 -0.1)"><path d="M0.0 0.0 -186.0 45.0C-201.0 -89.0 -234.0 -283.0 -272.0 -419.0H-261.0C-168.0 -297.0 -83.0 -134.0 -39.0 -23.0C-14.0 -23.0 -4.0 -13.0 0.0 0.0ZM-498.0 38.0 -510.0 34.0C-475.0 -78.0 -446.0 -208.0 -450.0 -328.0C-316.0 -466.0 -189.0 -170.0 -498.0 38.0Z"/></g>
<g fill="black" opacity=".8" transform="translate(1600 600) scale(0.1 -0.1)"><path d="M0.0 0.0 -192.0 46.0C-204.0 -85.0 -233.0 -283.0 -265.0 -425.0L-251.0 -424.0C-164.0 -295.0 -80.0 -125.0 -40.0 -23.0C-14.0 -24.0 -4.0 -12.0 0.0 0.0ZM-501.0 38.0 -513.0 34.0C-473.0 -77.0 -444.0 -213.0 -446.0 -329.0C-317.0 -458.0 -194.0 -164.0 -501.0 38.0Z"/></g>
<g fill="red" transform="translate(100 700) scale(0.1 -0.1)"><path d="M0.0 0.0 -81.0 24.0C-103.0 -38.0 -141.0 -123.0 -175.0 -179.0H-152.0C-110.0 -132.0 -64.0 -68.0 -38.0 -18.0C-17.0 -19.0 -4.0 -11.0 0.0 0.0ZM-353.0 29.0 -366.0 22.0C-336.0 -18.0 -299.0 -85.0 -293.0 -135.0C-249.0 -174.0 -207.0 -71.0 -353.0 29.0Z"/></g>
<g fill="black" opacity=".8" transform="translate(100 700) scale(0.1 -0.1)"><path d="M0.0 0.0 -80.0 28.0C-105.0 -36.0 -141.0 -122.0 -172.0 -177.0L-152.0 -181.0C-111.0 -132.0 -65.0 -67.0 -38.0 -16.0C-17.0 -18.0 -4.0 -11.0 0.0 0.0ZM-353.0 26.0 -365.0 19.0C-335.0 -21.0 -301.0 -86.0 -296.0 -133.0C-252.0 -172.0 -209.0 -69.0 -353.0 26.0Z"/></g>
<g fill="red" transform="translate(200 700) scale(0.1 -0.1)"><path d="M0.0 0.0 -166.0 41.0C-176.0 -26.0 -198.0 -122.0 -222.0 -187.0H-209.0C-146.0 -138.0 -77.0 -70.0 -38.0 -21.0C-15.0 -21.0 -4.0 -12.0 0.0 0.0ZM-425.0 36.0 -434.0 32.0C-413.0 -16.0 -392.0 -81.0 -392.0 -140.0C-291.0 -234.0 -162.0 -40.0 -425.0 36.0Z"/></g>
<g fill="black" opacity=".8" transform="translate(200 700) scale(0.1 -0.1)"><path d="M0.0 0.0 -168.0 46.0C-177.0 -26.0 -199.0 -124.0 -218.0 -188.0L-206.0 -192.0C-145.0 -143.0 -80.0 -75.0 -38.0 -19.0C-15.0 -21.0 -4.0 -11.0 0.0 0.0ZM-425.0 36.0 -433.0 31.0C-412.0 -15.0 -392.0 -80.0 -392.0 -139.0C-294.0 -231.0 -164.0 -37.0 -425.0 36.0Z"/></g>
<g fill="red" transform="translate(300 700) scale(0.1 -0.1)"><path d="M0.0 0.0 -76.0 29.0C-109.0 -66.0 -151.0 -176.0 -182.0 -246.0L-166.0 -255.0C-124.0 -191.0 -75.0 -95.0 -37.0 -17.0C-16.0 -18.0 -5.0 -9.0 0.0 0.0ZM-404.0 11.0 -417.0 3.0C-374.0 -43.0 -324.0 -124.0 -318.0 -185.0C-270.0 -227.0 -230.0 -103.0 -404.0 11.0Z"/></g>
<g fill="black" opacity=".8" transform="translate(300 700) scale(0.1 -0.1)"><path d="M0.0 0.0 -84.0 31.0C-115.0 -62.0 -154.0 -175.0 -186.0 -248.0L-167.0 -255.0C-123.0 -189.0 -73.0 -94.0 -39.0 -18.0C-17.0 -19.0 -4.0 -11.0 0.0 0.0ZM-407.0 22.0 -419.0 13.0C-377.0 -38.0 -325.0 -124.0 -317.0 -187.0C-265.0 -231.0 -224.0 -101.0 -407.0 22.0Z"/></g>
<g fill="red" transform="translate(400 700) scale(0.1 -0.1)"><path d="M0.0 0.0 -189.0 59.0C-206.0 -49.0 -234.0 -175.0 -258.0 -252.0L-246.0 -259.0C-172.0 -200.0 -99.0 -115.0 -41.0 -21.0C-18.0 -21.0 -4.0 -13.0 0.0 0.0ZM-506.0 33.0 -514.0 28.0C-481.0 -32.0 -448.0 -112.0 -442.0 -187.0C-317.0 -292.0 -187.0 -47.0 -506.0 33.0Z"/></g>
<g fill="black" opacity=".8" transform="translate(400 700) scale(0.1 -0.1)"><path d="M0.0 0.0 -192.0 56.0C-205.0 -46.0 -226.0 -173.0 -245.0 -254.0L-229.0 -260.0C-161.0 -194.0 -93.0 -104.0 -41.0 -22.0C-16.0 -23.0 -4.0 -12.0 0.0 0.0ZM-509.0 41.0 -518.0 34.0C-482.0 -28.0 -448.0 -114.0 -442.0 -193.0C-318.0 -296.0 -188.0 -49.0 -509.0 41.0Z"/></g>
<g fill="red" transform="translate(500 700) scale(0.1 -0.1)"><path d="M0.0 0.0 -75.0 35.0C-107.0 -36.0 -147.0 -111.0 -178.0 -157.0L-163.0 -167.0C-121.0 -130.0 -74.0 -70.0 -37.0 -15.0C-17.0 -18.0 -5.0 -10.0 0.0 0.0ZM-429.0 28.0 -440.0 19.0C-395.0 -16.0 -336.0 -79.0 -320.0 -128.0C-264.0 -161.0 -234.0 -42.0 -429.0 28.0Z"/></g>
<g fill="black" opacity=".8" transform="translate(500 700) scale(0.1 -0.1)"><path d="M0.0 0.0 -77.0 31.0C-110.0 -40.0 -150.0 -114.0 -183.0 -158.0L-167.0 -168.0C-124.0 -132.0 -75.0 -73.0 -38.0 -16.0C-17.0 -18.0 -4.0 -10.0 0.0 0.0ZM-424.0 24.0 -435.0 16.0C-394.0 -18.0 -337.0 -78.0 -324.0 -127.0C-271.0 -163.0 -236.0 -52.0 -424.0 24.0Z"/></g>
<g fill="red" transform="translate(600 700) scale(0.1 -0.1)"><path d="M0.0 0.0 -178.0 69.0C-193.0 -9.0 -214.0 -97.0 -232.0 -150.0L-221.0 -158.0C-160.0 -124.0 -96.0 -74.0 -42.0 -19.0C-19.0 -21.0 -5.0 -13.0 0.0 0.0ZM-485.0 62.0 -492.0 57.0C-457.0 14.0 -422.0 -51.0 -414.0 -112.0C-291.0 -198.0 -179.0 37.0 -485.0 62.0Z"/></g>
<g fill="black" opacity=".8" transform="translate(600 700) scale(0.1 -0.1)"><path d="M0.0 0.0 -179.0 65.0C-193.0 -13.0 -215.0 -96.0 -231.0 -144.0L-218.0 -152.0C-159.0 -123.0 -96.0 -77.0 -42.0 -19.0C-18.0 -21.0 -5.0 -12.0 0.0 0.0ZM-488.0 50.0 -495.0 44.0C-460.0 8.0 -422.0 -49.0 -413.0 -108.0C-289.0 -194.0 -178.0 38.0 -488.0 50.0Z"/></g>
<g fill="red" transform="translate(700 700) scale(0.1 -0.1)"><path d="M0.0 0.0 -84.0 23.0C-102.0 -47.0 -133.0 -141.0 -163.0 -206.0H-141.0C-101.0 -148.0 -60.0 -75.0 -37.0 -19.0C-16.0 -20.0 -4.0 -11.0 0.0 0.0ZM-468.0 24.0 -482.0 17.0C-447.0 -28.0 -407.0 -104.0 -402.0 -160.0C-353.0 -204.0 -308.0 -87.0 -468.0 24.0Z"/></g>
<g fill="black" opacity=".8" transform="translate(700 700) scale(0.1 -0.1)"><path d="M0.0 0.0 -85.0 25.0C-104.0 -44.0 -136.0 -140.0 -168.0 -206.0L-144.0 -205.0C-103.0 -146.0 -60.0 -73.0 -39.0 -19.0C-17.0 -19.0 -3.0 -11.0 0.0 0.0ZM-470.0 23.0 -484.0 16.0C-452.0 -28.0 -401.0 -103.0 -398.0 -167.0C-347.0 -211.0 -305.0 -92.0 -470.0 23.0Z"/></g>
<g fill="red" transform="translate(800 700) scale(0.1 -0.1)"><path d="M0.0 0.0 -196.0 55.0C-213.0 -22.0 -244.0 -140.0 -268.0 -219.0H-259.0C-184.0 -158.0 -93.0 -72.0 -39.0 -20.0C-16.0 -20.0 -4.0 -12.0 0.0 0.0ZM-576.0 46.0 -584.0 40.0C-541.0 -13.0 -500.0 -93.0 -490.0 -166.0C-369.0 -257.0 -260.0 -15.0 -576.0 46.0Z"/></g>
<g fill="black" opacity=".8" transform="translate(800 700) scale(0.1 -0.1)"><path d="M0.0 0.0 -199.0 49.0C-211.0 -25.0 -239.0 -137.0 -262.0 -213.0H-249.0C-174.0 -156.0 -87.0 -75.0 -38.0 -20.0C-14.0 -22.0 -4.0 -12.0 0.0 0.0ZM-571.0 44.0 -578.0 39.0C-549.0 -16.0 -511.0 -87.0 -505.0 -166.0C-367.0 -266.0 -262.0 -10.0 -571.0 44.0Z"/></g>
<g fill="red" transform="translate(900 700) scale(0.1 -0.1)"><path d="M0.0 0.0 -82.0 27.0C-114.0 -41.0 -168.0 -133.0 -213.0 -193.0H-189.0C-135.0 -142.0 -75.0 -72.0 -40.0 -17.0C-18.0 -18.0 -5.0 -10.0 0.0 0.0ZM-511.0 26.0 -523.0 17.0C-476.0 -23.0 -420.0 -95.0 -411.0 -152.0C-355.0 -194.0 -317.0 -63.0 -511.0 26.0Z"/></g>
<g fill="black" opacity=".8" transform="translate(900 700) scale(0.1 -0.1)"><path d="M0.0 0.0 -82.0 29.0C-115.0 -41.0 -166.0 -127.0 -212.0 -183.0L-192.0 -188.0C-136.0 -141.0 -77.0 -74.0 -40.0 -17.0C-18.0 -18.0 -4.0 -11.0 0.0 0.0ZM-507.0 26.0 -520.0 17.0C-476.0 -27.0 -423.0 -101.0 -411.0 -155.0C-358.0 -195.0 -320.0 -72.0 -507.0 26.0Z"/></g>
<g fill="red" transform="translate(1000 700) scale(0.1 -0.1)"><path d="M0.0 0.0 -192.0 59.0C-208.0 -10.0 -238.0 -112.0 -266.0 -181.0H-256.0C-180.0 -133.0 -91.0 -65.0 -39.0 -18.0C-16.0 -20.0 -5.0 -12.0 0.0 0.0ZM-558.0 57.0 -566.0 52.0C-532.0 1.0 -502.0 -71.0 -497.0 -139.0C-372.0 -243.0 -239.0 3.0 -558.0 57.0Z"/></g>
<g fill="black" opacity=".8" transform="translate(1000 700) scale(0.1 -0.1)"><path d="M0.0 0.0 -191.0 61.0C-207.0 -14.0 -239.0 -113.0 -268.0 -177.0L-256.0 -181.0C-180.0 -138.0 -97.0 -74.0 -43.0 -19.0C-18.0 -22.0 -5.0 -12.0 0.0 0.0ZM-561.0 52.0 -568.0 46.0C-533.0 -3.0 -502.0 -73.0 -496.0 -138.0C-371.0 -238.0 -237.0 4.0 -561.0 52.0Z"/></g>
<g fill="red" transform="translate(1100 700) scale(0.1 -0.1)"><path d="M0.0 0.0 -77.0 33.0C-105.0 -37.0 -140.0 -112.0 -169.0 -159.0L-153.0 -169.0C-114.0 -130.0 -71.0 -69.0 -37.0 -15.0C-17.0 -18.0 -5.0 -9.0 0.0 0.0ZM-312.0 28.0 -325.0 21.0C-294.0 -15.0 -262.0 -77.0 -260.0 -126.0C-212.0 -168.0 -163.0 -57.0 -312.0 28.0Z"/></g>
<g fill="black" opacity=".8" transform="translate(1100 700) scale(0.1 -0.1)"><path d="M0.0 0.0 -77.0 31.0C-106.0 -37.0 -141.0 -115.0 -169.0 -161.0L-153.0 -171.0C-114.0 -131.0 -70.0 -70.0 -37.0 -16.0C-17.0 -18.0 -4.0 -11.0 0.0 0.0ZM-312.0 28.0 -324.0 21.0C-299.0 -15.0 -261.0 -74.0 -256.0 -124.0C-208.0 -163.0 -168.0 -60.0 -312.0 28.0Z"/></g>
<g fill="red" transform="translate(1200 700) scale(0.1 -0.1)"><path d="M0.0 0.0 -158.0 54.0C-169.0 -22.0 -186.0 -109.0 -201.0 -163.0L-187.0 -170.0C-136.0 -132.0 -83.0 -77.0 -40.0 -20.0C-18.0 -20.0 -5.0 -12.0 0.0 0.0ZM-365.0 35.0 -374.0 30.0C-347.0 -7.0 -320.0 -64.0 -317.0 -115.0C-222.0 -189.0 -121.0 -6.0 -365.0 35.0Z"/></g>
<g fill="black" opacity=".8" transform="translate(1200 700) scale(0.1 -0.1)"><path d="M0.0 0.0 -157.0 52.0C-166.0 -21.0 -183.0 -108.0 -195.0 -161.0L-184.0 -169.0C-134.0 -130.0 -83.0 -76.0 -41.0 -19.0C-17.0 -21.0 -4.0 -12.0 0.0 0.0ZM-363.0 39.0 -371.0 34.0C-351.0 -4.0 -326.0 -59.0 -325.0 -116.0C-222.0 -198.0 -117.0 -4.0 -363.0 39.0Z"/></g>
</svg>
