<?xml version="1.0" encoding="UTF-8"?>
<svg width="1700" height="300" xmlns="http://www.w3.org/2000/svg">
<rect width="100%" height="100%" fill="white"/>
<g fill="green" transform="translate(100 100) scale(0.1 -0.1)"><path d="M0.0 0.0 -80.0 10.0V-890.0H-71.0C-54.0 -890.0 -36.0 -878.0 -36.0 -869.0V-27.0C-11.0 -23.0 -3.0 -14.0 0.0 0.0ZM-275.0 -625.0 -229.0 -677.0C-221.0 -671.0 -217.0 -659.0 -218.0 -649.0C-144.0 -583.0 -85.0 -525.0 -44.0 -486.0L-54.0 -473.0C-145.0 -539.0 -237.0 -602.0 -275.0 -625.0ZM-242.0 -151.0 -254.0 -159.0C-209.0 -202.0 -156.0 -279.0 -150.0 -339.0C-96.0 -383.0 -53.0 -249.0 -242.0 -151.0Z"/></g>
<g fill="green" transform="translate(200 100) scale(0.1 -0.1)"><path d="M0.0 0.0 -179.0 17.0V-932.0H-152.0C-99.0 -932.0 -37.0 -898.0 -37.0 -883.0V-29.0C-9.0 -25.0 -2.0 -14.0 0.0 0.0ZM-374.0 -582.0 -287.0 -751.0C-274.0 -744.0 -265.0 -728.0 -264.0 -714.0C-193.0 -608.0 -146.0 -519.0 -121.0 -467.0L-124.0 -461.0C-225.0 -514.0 -333.0 -565.0 -374.0 -582.0ZM-334.0 -131.0 -343.0 -135.0C-319.0 -195.0 -302.0 -273.0 -308.0 -345.0C-197.0 -460.0 -48.0 -235.0 -334.0 -131.0Z"/></g>
<g fill="green" transform="translate(300 100) scale(0.1 -0.1)"><path d="M0.0 0.0 -80.0 10.0V-890.0H-71.0C-54.0 -890.0 -36.0 -878.0 -36.0 -869.0V-27.0C-11.0 -23.0 -3.0 -14.0 0.0 0.0ZM-275.0 -625.0 -229.0 -677.0C-221.0 -671.0 -217.0 -659.0 -218.0 -649.0C-144.0 -583.0 -85.0 -525.0 -44.0 -486.0L-54.0 -473.0C-145.0 -539.0 -237.0 -602.0 -275.0 -625.0ZM-242.0 -151.0 -254.0 -159.0C-209.0 -202.0 -156.0 -279.0 -150.0 -339.0C-96.0 -383.0 -53.0 -249.0 -242.0 -151.0Z"/></g>
<g fill="green" transform="translate(400 100) scale(0.1 -0.1)"><path d="M0.0 0.0 -179.0 17.0V-932.0H-152.0C-99.0 -932.0 -37.0 -898.0 -37.0 -883.0V-29.0C-9.0 -25.0 -2.0 -14.0 0.0 0.0ZM-374.0 -582.0 -287.0 -751.0C-274.0 -744.0 -265.0 -728.0 -264.0 -714.0C-193.0 -608.0 -146.0 -519.0 -121.0 -467.0L-124.0 -461.0C-225.0 -514.0 -333.0 -565.0 -374.0 -582.0ZM-334.0 -131.0 -343.0 -135.0C-319.0 -195.0 -302.0 -273.0 -308.0 -345.0C-197.0 -460.0 -48.0 -235.0 -334.0 -131.0Z"/></g>
<g fill="red" transform="translate(100 200) scale(0.1 -0.1)"><path d="M0.0 0.0 -80.0 10.0V-890.0H-71.0C-54.0 -890.0 -36.0 -878.0 -36.0 -869.0V-27.0C-11.0 -23.0 -3.0 -14.0 0.0 0.0ZM-275.0 -625.0 -229.0 -677.0C-221.0 -671.0 -217.0 -659.0 -218.0 -649.0C-144.0 -583.0 -85.0 -525.0 -44.0 -486.0L-54.0 -473.0C-145.0 -539.0 -237.0 -602.0 -275.0 -625.0ZM-242.0 -151.0 -254.0 -159.0C-209.0 -202.0 -156.0 -279.0 -150.0 -339.0C-96.0 -383.0 -53.0 -249.0 -242.0 -151.0Z"/></g>
<g fill="black" opacity=".8" transform="translate(100 200) scale(0.1 -0.1)"><path d="M0.0 0.0 -80.0 10.0V-890.0H-71.0C-54.0 -890.0 -36.0 -878.0 -36.0 -869.0V-27.0C-11.0 -23.0 -3.0 -14.0 0.0 0.0ZM-275.0 -625.0 -229.0 -677.0C-221.0 -671.0 -217.0 -659.0 -218.0 -649.0C-144.0 -583.0 -85.0 -525.0 -44.0 -486.0L-54.0 -473.0C-145.0 -539.0 -237.0 -602.0 -275.0 -625.0ZM-242.0 -151.0 -254.0 -159.0C-209.0 -202.0 -156.0 -279.0 -150.0 -339.0C-96.0 -383.0 -53.0 -249.0 -242.0 -151.0Z"/></g>
<g fill="red" transform="translate(200 200) scale(0.1 -0.1)"><path d="M0.0 0.0 -179.0 17.0V-932.0H-152.0C-99.0 -932.0 -37.0 -898.0 -37.0 -883.0V-29.0C-9.0 -25.0 -2.0 -14.0 0.0 0.0ZM-374.0 -582.0 -287.0 -751.0C-274.0 -744.0 -265.0 -728.0 -264.0 -714.0C-193.0 -608.0 -146.0 -519.0 -121.0 -467.0L-124.0 -461.0C-225.0 -514.0 -333.0 -565.0 -374.0 -582.0ZM-334.0 -131.0 -343.0 -135.0C-319.0 -195.0 -302.0 -273.0 -308.0 -345.0C-197.0 -460.0 -48.0 -235.0 -334.0 -131.0Z"/></g>
<g fill="black" opacity=".8" transform="translate(200 200) scale(0.1 -0.1)"><path d="M0.0 0.0 -179.0 17.0V-932.0H-152.0C-99.0 -932.0 -37.0 -898.0 -37.0 -883.0V-29.0C-9.0 -25.0 -2.0 -14.0 0.0 0.0ZM-374.0 -582.0 -287.0 -751.0C-274.0 -744.0 -265.0 -728.0 -264.0 -714.0C-193.0 -608.0 -146.0 -519.0 -121.0 -467.0L-124.0 -461.0C-225.0 -514.0 -333.0 -565.0 -374.0 -582.0ZM-334.0 -131.0 -343.0 -135.0C-319.0 -195.0 -302.0 -273.0 -308.0 -345.0C-197.0 -460.0 -48.0 -235.0 -334.0 -131.0Z"/></g>
</svg>
