<?xml version="1.0" encoding="UTF-8"?>
<svg width="1700" height="900" xmlns="http://www.w3.org/2000/svg">
<rect width="100%" height="100%" fill="white"/>
<g fill="green" transform="translate(100 100) scale(0.1 -0.1)"><path d="M0.0 -0.0 2.0 2.0H-246.0V3.0H-2.0C-2.0 3.0 -2.0 3.0 -3.0 3.0C-1.0 1.0 0.0 0.0 0.0 0.0Z"/></g>
<g fill="green" transform="translate(200 100) scale(0.1 -0.1)"><path d="M0.0 0.0 -11.0 -13.0H-329.0V-12.0H20.0C20.0 -12.0 21.0 -12.0 21.0 -13.0C13.0 -8.0 0.0 0.0 0.0 0.0Z"/></g>
<g fill="green" transform="translate(300 100) scale(0.1 -0.1)"><path d="M0.0 -0.0 -38.0 -47.0H-797.0L-789.0 -75.0H48.0C61.0 -75.0 70.0 -71.0 72.0 -60.0C45.0 -34.0 0.0 0.0 0.0 0.0Z"/></g>
<g fill="green" transform="translate(400 100) scale(0.1 -0.1)"><path d="M0.0 0.0 -82.0 -106.0H-851.0L-843.0 -132.0H120.0C134.0 -132.0 146.0 -128.0 149.0 -118.0C93.0 -71.0 0.0 0.0 0.0 0.0Z"/></g>
<g fill="green" transform="translate(500 100) scale(0.1 -0.1)"><path d="M0.0 0.0 -31.0 -38.0H-190.0L-183.0 -64.0H38.0C49.0 -64.0 57.0 -60.0 59.0 -50.0C37.0 -28.0 0.0 0.0 0.0 0.0Z"/></g>
<g fill="green" transform="translate(600 100) scale(0.1 -0.1)"><path d="M0.0 0.0 -64.0 -88.0H-233.0L-226.0 -112.0H90.0C102.0 -112.0 112.0 -108.0 115.0 -99.0C72.0 -59.0 0.0 0.0 0.0 0.0Z"/></g>
<g fill="green" transform="translate(700 100) scale(0.1 -0.1)"><path d="M0.0 -0.0 4.0 6.0H-328.0V7.0H-7.0C-8.0 7.0 -9.0 7.0 -8.0 7.0C-5.0 4.0 0.0 0.0 0.0 0.0Z"/></g>
<g fill="green" transform="translate(800 100) scale(0.1 -0.1)"><path d="M0.0 0.0 -8.0 -12.0H-249.0L-250.0 -11.0H15.0C14.0 -11.0 15.0 -11.0 15.0 -12.0C10.0 -8.0 0.0 0.0 0.0 0.0Z"/></g>
<g fill="green" transform="translate(900 100) scale(0.1 -0.1)"><path d="M0.0 0.0 -8.0 -10.0H-248.0V-12.0H11.0C13.0 -12.0 15.0 -12.0 14.0 -10.0C9.0 -7.0 0.0 0.0 0.0 0.0Z"/></g>
<g fill="green" transform="translate(1000 100) scale(0.1 -0.1)"><path d="M0.0 0.0 -6.0 -1.0H-328.0L-327.0 -4.0H10.0C11.0 -4.0 13.0 -3.0 13.0 -3.0C7.0 -1.0 0.0 0.0 0.0 0.0Z"/></g>
<g fill="red" transform="translate(100 200) scale(0.1 -0.1)"><path d="M0.0 0.0 -46.0 -56.0H-550.0L-542.0 -86.0H59.0C73.0 -86.0 83.0 -81.0 84.0 -70.0C52.0 -40.0 0.0 0.0 0.0 0.0Z"/></g>
<g fill="black" opacity=".8" transform="translate(100 200) scale(0.1 -0.1)"><path d="M0.0 0.0 -45.0 -55.0H-550.0L-541.0 -88.0H56.0C71.0 -88.0 82.0 -83.0 84.0 -70.0C52.0 -40.0 0.0 0.0 0.0 0.0Z"/></g>
<g fill="red" transform="translate(200 200) scale(0.1 -0.1)"><path d="M0.0 0.0 -79.0 -99.0H-567.0L-559.0 -127.0H112.0C127.0 -127.0 139.0 -122.0 142.0 -111.0C88.0 -66.0 0.0 0.0 0.0 0.0Z"/></g>
<g fill="black" opacity=".8" transform="translate(200 200) scale(0.1 -0.1)"><path d="M0.0 0.0 -77.0 -99.0H-567.0L-559.0 -130.0H108.0C123.0 -130.0 136.0 -124.0 139.0 -113.0C86.0 -67.0 0.0 0.0 0.0 0.0Z"/></g>
<g fill="red" transform="translate(300 200) scale(0.1 -0.1)"><path d="M0.0 0.0 -46.0 -57.0H-726.0L-717.0 -87.0H60.0C74.0 -87.0 84.0 -82.0 86.0 -71.0C53.0 -40.0 0.0 0.0 0.0 0.0Z"/></g>
<g fill="black" opacity=".8" transform="translate(300 200) scale(0.1 -0.1)"><path d="M0.0 0.0 -46.0 -56.0H-725.0L-717.0 -89.0H57.0C72.0 -89.0 83.0 -84.0 86.0 -71.0C53.0 -40.0 0.0 0.0 0.0 0.0Z"/></g>
<g fill="red" transform="translate(400 200) scale(0.1 -0.1)"><path d="M0.0 0.0 -81.0 -103.0H-700.0L-692.0 -131.0H117.0C132.0 -131.0 144.0 -126.0 147.0 -115.0C92.0 -69.0 0.0 0.0 0.0 0.0Z"/></g>
<g fill="black" opacity=".8" transform="translate(400 200) scale(0.1 -0.1)"><path d="M0.0 0.0 -80.0 -102.0H-700.0L-692.0 -133.0H113.0C128.0 -133.0 142.0 -128.0 145.0 -117.0C90.0 -70.0 0.0 0.0 0.0 0.0Z"/></g>
<g fill="red" transform="translate(500 200) scale(0.1 -0.1)"><path d="M0.0 0.0 -49.0 -61.0H-830.0L-821.0 -91.0H64.0C78.0 -91.0 87.0 -86.0 90.0 -75.0C56.0 -43.0 0.0 0.0 0.0 0.0Z"/></g>
<g fill="black" opacity=".8" transform="translate(500 200) scale(0.1 -0.1)"><path d="M0.0 0.0 -49.0 -59.0H-829.0L-820.0 -93.0H61.0C76.0 -93.0 87.0 -88.0 90.0 -75.0C56.0 -42.0 0.0 0.0 0.0 0.0Z"/></g>
<g fill="red" transform="translate(600 200) scale(0.1 -0.1)"><path d="M0.0 0.0 -83.0 -105.0H-805.0L-797.0 -133.0H119.0C134.0 -133.0 146.0 -128.0 149.0 -117.0C93.0 -70.0 0.0 0.0 0.0 0.0Z"/></g>
<g fill="black" opacity=".8" transform="translate(600 200) scale(0.1 -0.1)"><path d="M0.0 0.0 -82.0 -103.0H-805.0L-796.0 -135.0H116.0C132.0 -135.0 146.0 -129.0 149.0 -118.0C92.0 -70.0 0.0 0.0 0.0 0.0Z"/></g>
<g fill="red" transform="translate(700 200) scale(0.1 -0.1)"><path d="M0.0 0.0 -44.0 -53.0H-617.0L-609.0 -83.0H54.0C68.0 -83.0 78.0 -78.0 81.0 -67.0C49.0 -38.0 0.0 0.0 0.0 0.0Z"/></g>
<g fill="black" opacity=".8" transform="translate(700 200) scale(0.1 -0.1)"><path d="M0.0 0.0 -43.0 -52.0H-617.0L-608.0 -84.0H53.0C67.0 -84.0 77.0 -80.0 80.0 -67.0C50.0 -38.0 0.0 0.0 0.0 0.0Z"/></g>
<g fill="red" transform="translate(800 200) scale(0.1 -0.1)"><path d="M0.0 0.0 -81.0 -104.0H-598.0L-590.0 -132.0H118.0C133.0 -132.0 145.0 -127.0 148.0 -116.0C93.0 -69.0 0.0 0.0 0.0 0.0Z"/></g>
<g fill="black" opacity=".8" transform="translate(800 200) scale(0.1 -0.1)"><path d="M0.0 0.0 -80.0 -105.0H-598.0L-590.0 -135.0H113.0C128.0 -135.0 141.0 -130.0 144.0 -118.0C90.0 -71.0 0.0 0.0 0.0 0.0Z"/></g>
<g fill="red" transform="translate(900 200) scale(0.1 -0.1)"><path d="M0.0 0.0 -44.0 -54.0H-834.0L-825.0 -84.0H56.0C69.0 -84.0 79.0 -79.0 82.0 -68.0C51.0 -38.0 0.0 0.0 0.0 0.0Z"/></g>
<g fill="black" opacity=".8" transform="translate(900 200) scale(0.1 -0.1)"><path d="M0.0 0.0 -44.0 -53.0H-833.0L-825.0 -85.0H54.0C69.0 -85.0 79.0 -81.0 82.0 -68.0C50.0 -38.0 0.0 0.0 0.0 0.0Z"/></g>
<g fill="red" transform="translate(1000 200) scale(0.1 -0.1)"><path d="M0.0 0.0 -83.0 -107.0H-791.0L-783.0 -135.0H121.0C136.0 -135.0 148.0 -130.0 151.0 -119.0C95.0 -71.0 0.0 0.0 0.0 0.0Z"/></g>
<g fill="black" opacity=".8" transform="translate(1000 200) scale(0.1 -0.1)"><path d="M0.0 0.0 -82.0 -106.0H-791.0L-783.0 -136.0H118.0C133.0 -136.0 147.0 -131.0 150.0 -120.0C93.0 -72.0 0.0 0.0 0.0 0.0Z"/></g>
<g fill="red" transform="translate(1100 200) scale(0.1 -0.1)"><path d="M0.0 0.0 -41.0 -52.0H-597.0L-589.0 -82.0H52.0C66.0 -82.0 76.0 -77.0 78.0 -66.0C48.0 -37.0 0.0 0.0 0.0 0.0Z"/></g>
<g fill="black" opacity=".8" transform="translate(1100 200) scale(0.1 -0.1)"><path d="M0.0 0.0 -43.0 -52.0H-596.0L-589.0 -81.0H53.0C67.0 -81.0 77.0 -77.0 79.0 -65.0C49.0 -37.0 0.0 0.0 0.0 0.0Z"/></g>
<g fill="red" transform="translate(1200 200) scale(0.1 -0.1)"><path d="M0.0 0.0 -68.0 -87.0H-594.0L-586.0 -115.0H96.0C111.0 -115.0 122.0 -110.0 124.0 -99.0C78.0 -59.0 0.0 0.0 0.0 0.0Z"/></g>
<g fill="black" opacity=".8" transform="translate(1200 200) scale(0.1 -0.1)"><path d="M0.0 0.0 -69.0 -86.0H-594.0L-586.0 -115.0H97.0C110.0 -115.0 122.0 -110.0 125.0 -100.0C77.0 -59.0 0.0 0.0 0.0 0.0Z"/></g>
<g fill="red" transform="translate(1300 200) scale(0.1 -0.1)"><path d="M0.0 0.0 -44.0 -54.0H-816.0L-807.0 -84.0H56.0C70.0 -84.0 79.0 -79.0 82.0 -68.0C50.0 -38.0 0.0 0.0 0.0 0.0Z"/></g>
<g fill="black" opacity=".8" transform="translate(1300 200) scale(0.1 -0.1)"><path d="M0.0 0.0 -45.0 -54.0H-815.0L-807.0 -84.0H56.0C69.0 -84.0 79.0 -80.0 82.0 -68.0C50.0 -39.0 0.0 0.0 0.0 0.0Z"/></g>
<g fill="red" transform="translate(1400 200) scale(0.1 -0.1)"><path d="M0.0 0.0 -71.0 -92.0H-784.0L-776.0 -120.0H100.0C114.0 -120.0 126.0 -115.0 128.0 -104.0C80.0 -62.0 0.0 0.0 0.0 0.0Z"/></g>
<g fill="black" opacity=".8" transform="translate(1400 200) scale(0.1 -0.1)"><path d="M0.0 0.0 -72.0 -89.0H-783.0L-775.0 -118.0H103.0C117.0 -118.0 129.0 -113.0 132.0 -103.0C82.0 -61.0 0.0 0.0 0.0 0.0Z"/></g>
<g fill="red" transform="translate(1500 200) scale(0.1 -0.1)"><path d="M0.0 0.0 -41.0 -50.0H-601.0L-593.0 -80.0H50.0C63.0 -80.0 73.0 -75.0 76.0 -64.0C46.0 -36.0 0.0 0.0 0.0 0.0Z"/></g>
<g fill="black" opacity=".8" transform="translate(1500 200) scale(0.1 -0.1)"><path d="M0.0 0.0 -41.0 -49.0H-601.0L-592.0 -80.0H50.0C63.0 -80.0 73.0 -76.0 76.0 -64.0C47.0 -36.0 0.0 0.0 0.0 0.0Z"/></g>
<g fill="red" transform="translate(1600 200) scale(0.1 -0.1)"><path d="M0.0 0.0 -77.0 -101.0H-537.0L-529.0 -129.0H108.0C122.0 -129.0 134.0 -124.0 137.0 -113.0C86.0 -67.0 0.0 0.0 0.0 0.0Z"/></g>
<g fill="black" opacity=".8" transform="translate(1600 200) scale(0.1 -0.1)"><path d="M0.0 0.0 -76.0 -100.0H-537.0L-529.0 -129.0H107.0C121.0 -129.0 133.0 -124.0 137.0 -114.0C86.0 -68.0 0.0 0.0 0.0 0.0Z"/></g>
<g fill="red" transform="translate(100 300) scale(0.1 -0.1)"><path d="M0.0 0.0 -41.0 -50.0H-439.0L-431.0 -80.0H51.0C64.0 -80.0 73.0 -75.0 76.0 -64.0C47.0 -36.0 0.0 0.0 0.0 0.0Z"/></g>
<g fill="black" opacity=".8" transform="translate(100 300) scale(0.1 -0.1)"><path d="M0.0 0.0 -41.0 -49.0H-439.0L-430.0 -81.0H50.0C63.0 -81.0 73.0 -76.0 76.0 -64.0C47.0 -36.0 0.0 0.0 0.0 0.0Z"/></g>
<g fill="red" transform="translate(200 300) scale(0.1 -0.1)"><path d="M0.0 0.0 -74.0 -99.0H-404.0L-396.0 -127.0H105.0C120.0 -127.0 131.0 -122.0 134.0 -111.0C84.0 -66.0 0.0 0.0 0.0 0.0Z"/></g>
<g fill="black" opacity=".8" transform="translate(200 300) scale(0.1 -0.1)"><path d="M0.0 0.0 -74.0 -98.0H-404.0L-396.0 -128.0H103.0C117.0 -128.0 129.0 -123.0 133.0 -112.0C83.0 -67.0 0.0 0.0 0.0 0.0Z"/></g>
<g fill="red" transform="translate(300 300) scale(0.1 -0.1)"><path d="M0.0 0.0 -42.0 -53.0H-579.0L-570.0 -86.0H54.0C68.0 -86.0 78.0 -83.0 81.0 -70.0C50.0 -40.0 0.0 0.0 0.0 0.0Z"/></g>
<g fill="black" opacity=".8" transform="translate(300 300) scale(0.1 -0.1)"><path d="M0.0 0.0 -44.0 -53.0H-578.0L-570.0 -86.0H54.0C68.0 -86.0 78.0 -82.0 82.0 -69.0C50.0 -38.0 0.0 0.0 0.0 0.0Z"/></g>
<g fill="red" transform="translate(400 300) scale(0.1 -0.1)"><path d="M0.0 0.0 -79.0 -106.0H-530.0L-521.0 -138.0H110.0C126.0 -138.0 138.0 -133.0 141.0 -122.0C88.0 -73.0 0.0 0.0 0.0 0.0Z"/></g>
<g fill="black" opacity=".8" transform="translate(400 300) scale(0.1 -0.1)"><path d="M0.0 0.0 -79.0 -105.0H-529.0L-521.0 -136.0H112.0C127.0 -136.0 140.0 -131.0 144.0 -120.0C90.0 -71.0 0.0 0.0 0.0 0.0Z"/></g>
<g fill="red" transform="translate(500 300) scale(0.1 -0.1)"><path d="M0.0 0.0 -40.0 -50.0H-582.0L-574.0 -80.0H51.0C64.0 -80.0 73.0 -75.0 76.0 -64.0C47.0 -36.0 0.0 0.0 0.0 0.0Z"/></g>
<g fill="black" opacity=".8" transform="translate(500 300) scale(0.1 -0.1)"><path d="M0.0 0.0 -40.0 -49.0H-582.0L-573.0 -81.0H50.0C63.0 -81.0 73.0 -76.0 76.0 -64.0C47.0 -36.0 0.0 0.0 0.0 0.0Z"/></g>
<g fill="red" transform="translate(600 300) scale(0.1 -0.1)"><path d="M0.0 0.0 -84.0 -112.0H-582.0L-574.0 -140.0H121.0C136.0 -140.0 148.0 -135.0 151.0 -124.0C95.0 -74.0 0.0 0.0 0.0 0.0Z"/></g>
<g fill="black" opacity=".8" transform="translate(600 300) scale(0.1 -0.1)"><path d="M0.0 0.0 -83.0 -111.0H-582.0L-574.0 -141.0H119.0C134.0 -141.0 147.0 -136.0 150.0 -125.0C94.0 -75.0 0.0 0.0 0.0 0.0Z"/></g>
<g fill="red" transform="translate(700 300) scale(0.1 -0.1)"><path d="M0.0 0.0 -42.0 -50.0H-832.0L-823.0 -80.0H50.0C63.0 -80.0 72.0 -75.0 75.0 -64.0C46.0 -36.0 0.0 0.0 0.0 0.0Z"/></g>
<g fill="black" opacity=".8" transform="translate(700 300) scale(0.1 -0.1)"><path d="M0.0 0.0 -41.0 -49.0H-831.0L-823.0 -80.0H50.0C64.0 -80.0 73.0 -76.0 76.0 -64.0C47.0 -36.0 0.0 0.0 0.0 0.0Z"/></g>
<g fill="red" transform="translate(800 300) scale(0.1 -0.1)"><path d="M0.0 0.0 -84.0 -112.0H-797.0L-789.0 -140.0H121.0C136.0 -140.0 148.0 -135.0 151.0 -124.0C95.0 -74.0 0.0 0.0 0.0 0.0Z"/></g>
<g fill="black" opacity=".8" transform="translate(800 300) scale(0.1 -0.1)"><path d="M0.0 0.0 -84.0 -110.0H-797.0L-789.0 -139.0H122.0C137.0 -139.0 149.0 -134.0 153.0 -124.0C96.0 -74.0 0.0 0.0 0.0 0.0Z"/></g>
<g fill="red" transform="translate(900 300) scale(0.1 -0.1)"><path d="M0.0 0.0 -41.0 -50.0H-748.0L-739.0 -80.0H50.0C64.0 -80.0 74.0 -75.0 76.0 -64.0C47.0 -36.0 0.0 0.0 0.0 0.0Z"/></g>
<g fill="black" opacity=".8" transform="translate(900 300) scale(0.1 -0.1)"><path d="M0.0 0.0 -41.0 -49.0H-747.0L-739.0 -81.0H50.0C64.0 -81.0 73.0 -76.0 76.0 -64.0C47.0 -36.0 0.0 0.0 0.0 0.0Z"/></g>
<g fill="red" transform="translate(1000 300) scale(0.1 -0.1)"><path d="M0.0 0.0 -84.0 -112.0H-717.0L-709.0 -140.0H122.0C137.0 -140.0 149.0 -135.0 152.0 -124.0C96.0 -74.0 0.0 0.0 0.0 0.0Z"/></g>
<g fill="black" opacity=".8" transform="translate(1000 300) scale(0.1 -0.1)"><path d="M0.0 0.0 -84.0 -111.0H-717.0L-709.0 -140.0H121.0C136.0 -140.0 149.0 -136.0 152.0 -124.0C95.0 -75.0 0.0 0.0 0.0 0.0Z"/></g>
<g fill="red" transform="translate(1100 300) scale(0.1 -0.1)"><path d="M0.0 0.0 -39.0 -49.0H-392.0L-384.0 -79.0H49.0C63.0 -79.0 72.0 -74.0 75.0 -63.0C46.0 -35.0 0.0 0.0 0.0 0.0Z"/></g>
<g fill="black" opacity=".8" transform="translate(1100 300) scale(0.1 -0.1)"><path d="M0.0 0.0 -40.0 -49.0H-391.0L-383.0 -80.0H49.0C62.0 -80.0 72.0 -75.0 75.0 -63.0C46.0 -35.0 0.0 0.0 0.0 0.0Z"/></g>
<g fill="red" transform="translate(1200 300) scale(0.1 -0.1)"><path d="M0.0 0.0 -72.0 -95.0H-345.0L-337.0 -123.0H102.0C116.0 -123.0 127.0 -118.0 130.0 -107.0C82.0 -64.0 0.0 0.0 0.0 0.0Z"/></g>
<g fill="black" opacity=".8" transform="translate(1200 300) scale(0.1 -0.1)"><path d="M0.0 0.0 -71.0 -95.0H-345.0L-337.0 -125.0H99.0C113.0 -125.0 125.0 -120.0 128.0 -109.0C80.0 -65.0 0.0 0.0 0.0 0.0Z"/></g>
<g fill="red" transform="translate(1300 300) scale(0.1 -0.1)"><path d="M0.0 0.0 -40.0 -49.0H-531.0L-523.0 -79.0H48.0C62.0 -79.0 71.0 -74.0 74.0 -63.0C45.0 -35.0 0.0 0.0 0.0 0.0Z"/></g>
<g fill="black" opacity=".8" transform="translate(1300 300) scale(0.1 -0.1)"><path d="M0.0 0.0 -40.0 -48.0H-530.0L-522.0 -79.0H49.0C62.0 -79.0 71.0 -75.0 75.0 -63.0C46.0 -35.0 0.0 0.0 0.0 0.0Z"/></g>
<g fill="red" transform="translate(1400 300) scale(0.1 -0.1)"><path d="M0.0 0.0 -73.0 -98.0H-473.0L-465.0 -126.0H104.0C119.0 -126.0 130.0 -121.0 133.0 -110.0C84.0 -66.0 0.0 0.0 0.0 0.0Z"/></g>
<g fill="black" opacity=".8" transform="translate(1400 300) scale(0.1 -0.1)"><path d="M0.0 0.0 -73.0 -97.0H-473.0L-465.0 -126.0H103.0C117.0 -126.0 129.0 -122.0 132.0 -111.0C83.0 -66.0 0.0 0.0 0.0 0.0Z"/></g>
<g fill="red" transform="translate(1500 300) scale(0.1 -0.1)"><path d="M0.0 0.0 -43.0 -53.0H-792.0L-783.0 -83.0H53.0C67.0 -83.0 77.0 -78.0 79.0 -67.0C48.0 -38.0 0.0 0.0 0.0 0.0Z"/></g>
<g fill="black" opacity=".8" transform="translate(1500 300) scale(0.1 -0.1)"><path d="M0.0 0.0 -43.0 -52.0H-791.0L-783.0 -83.0H54.0C68.0 -83.0 77.0 -79.0 80.0 -66.0C49.0 -38.0 0.0 0.0 0.0 0.0Z"/></g>
<g fill="red" transform="translate(1600 300) scale(0.1 -0.1)"><path d="M0.0 0.0 -81.0 -101.0H-789.0L-781.0 -129.0H117.0C132.0 -129.0 143.0 -124.0 146.0 -113.0C91.0 -67.0 0.0 0.0 0.0 0.0Z"/></g>
<g fill="black" opacity=".8" transform="translate(1600 300) scale(0.1 -0.1)"><path d="M0.0 0.0 -79.0 -101.0H-789.0L-781.0 -130.0H114.0C129.0 -130.0 141.0 -125.0 145.0 -115.0C90.0 -69.0 0.0 0.0 0.0 0.0Z"/></g>
<g fill="red" transform="translate(100 400) scale(0.1 -0.1)"><path d="M0.0 0.0 -40.0 -49.0H-369.0L-361.0 -79.0H49.0C63.0 -79.0 72.0 -74.0 74.0 -63.0C46.0 -35.0 0.0 0.0 0.0 0.0Z"/></g>
<g fill="black" opacity=".8" transform="translate(100 400) scale(0.1 -0.1)"><path d="M0.0 0.0 -40.0 -49.0H-369.0L-360.0 -79.0H49.0C62.0 -79.0 72.0 -75.0 75.0 -63.0C46.0 -35.0 0.0 0.0 0.0 0.0Z"/></g>
<g fill="red" transform="translate(200 400) scale(0.1 -0.1)"><path d="M0.0 0.0 -72.0 -95.0H-350.0L-342.0 -123.0H101.0C116.0 -123.0 127.0 -118.0 130.0 -107.0C82.0 -64.0 0.0 0.0 0.0 0.0Z"/></g>
<g fill="black" opacity=".8" transform="translate(200 400) scale(0.1 -0.1)"><path d="M0.0 0.0 -71.0 -95.0H-350.0L-342.0 -124.0H99.0C113.0 -124.0 125.0 -119.0 128.0 -108.0C80.0 -65.0 0.0 0.0 0.0 0.0Z"/></g>
<g fill="red" transform="translate(300 400) scale(0.1 -0.1)"><path d="M0.0 0.0 -40.0 -49.0H-494.0L-486.0 -79.0H49.0C63.0 -79.0 72.0 -74.0 74.0 -63.0C46.0 -35.0 0.0 0.0 0.0 0.0Z"/></g>
<g fill="black" opacity=".8" transform="translate(300 400) scale(0.1 -0.1)"><path d="M0.0 0.0 -40.0 -49.0H-493.0L-485.0 -79.0H49.0C62.0 -79.0 72.0 -75.0 75.0 -63.0C46.0 -35.0 0.0 0.0 0.0 0.0Z"/></g>
<g fill="red" transform="translate(400 400) scale(0.1 -0.1)"><path d="M0.0 0.0 -73.0 -98.0H-459.0L-451.0 -126.0H104.0C119.0 -126.0 130.0 -121.0 133.0 -110.0C84.0 -66.0 0.0 0.0 0.0 0.0Z"/></g>
<g fill="black" opacity=".8" transform="translate(400 400) scale(0.1 -0.1)"><path d="M0.0 0.0 -73.0 -97.0H-459.0L-451.0 -126.0H103.0C117.0 -126.0 129.0 -121.0 133.0 -111.0C83.0 -66.0 0.0 0.0 0.0 0.0Z"/></g>
<g fill="red" transform="translate(500 400) scale(0.1 -0.1)"><path d="M0.0 0.0 -42.0 -50.0H-412.0L-404.0 -80.0H50.0C64.0 -80.0 73.0 -75.0 76.0 -64.0C46.0 -36.0 0.0 0.0 0.0 0.0Z"/></g>
<g fill="black" opacity=".8" transform="translate(500 400) scale(0.1 -0.1)"><path d="M0.0 0.0 -41.0 -50.0H-411.0L-404.0 -80.0H50.0C64.0 -80.0 73.0 -76.0 76.0 -64.0C47.0 -36.0 0.0 0.0 0.0 0.0Z"/></g>
<g fill="red" transform="translate(600 400) scale(0.1 -0.1)"><path d="M0.0 0.0 -68.0 -90.0H-388.0L-380.0 -118.0H94.0C109.0 -118.0 120.0 -113.0 122.0 -102.0C77.0 -61.0 0.0 0.0 0.0 0.0Z"/></g>
<g fill="black" opacity=".8" transform="translate(600 400) scale(0.1 -0.1)"><path d="M0.0 0.0 -68.0 -89.0H-388.0L-380.0 -118.0H94.0C108.0 -118.0 120.0 -113.0 123.0 -102.0C76.0 -61.0 0.0 0.0 0.0 0.0Z"/></g>
<g fill="red" transform="translate(700 400) scale(0.1 -0.1)"><path d="M0.0 0.0 -41.0 -50.0H-564.0L-556.0 -80.0H50.0C64.0 -80.0 72.0 -75.0 75.0 -64.0C46.0 -36.0 0.0 0.0 0.0 0.0Z"/></g>
<g fill="black" opacity=".8" transform="translate(700 400) scale(0.1 -0.1)"><path d="M0.0 0.0 -41.0 -50.0H-564.0L-555.0 -80.0H50.0C63.0 -80.0 73.0 -76.0 76.0 -63.0C47.0 -36.0 0.0 0.0 0.0 0.0Z"/></g>
<g fill="red" transform="translate(800 400) scale(0.1 -0.1)"><path d="M0.0 0.0 -74.0 -98.0H-534.0L-526.0 -126.0H104.0C119.0 -126.0 130.0 -121.0 133.0 -110.0C84.0 -66.0 0.0 0.0 0.0 0.0Z"/></g>
<g fill="black" opacity=".8" transform="translate(800 400) scale(0.1 -0.1)"><path d="M0.0 0.0 -74.0 -97.0H-534.0L-526.0 -126.0H104.0C118.0 -126.0 131.0 -121.0 134.0 -110.0C83.0 -66.0 0.0 0.0 0.0 0.0Z"/></g>
<g fill="red" transform="translate(900 400) scale(0.1 -0.1)"><path d="M0.0 0.0 -41.0 -50.0H-495.0L-487.0 -80.0H50.0C64.0 -80.0 72.0 -75.0 75.0 -64.0C46.0 -36.0 0.0 0.0 0.0 0.0Z"/></g>
<g fill="black" opacity=".8" transform="translate(900 400) scale(0.1 -0.1)"><path d="M0.0 0.0 -41.0 -50.0H-494.0L-487.0 -79.0H51.0C64.0 -79.0 73.0 -75.0 76.0 -63.0C47.0 -36.0 0.0 0.0 0.0 0.0Z"/></g>
<g fill="red" transform="translate(1000 400) scale(0.1 -0.1)"><path d="M0.0 0.0 -68.0 -90.0H-477.0L-469.0 -118.0H94.0C108.0 -118.0 119.0 -113.0 122.0 -102.0C77.0 -61.0 0.0 0.0 0.0 0.0Z"/></g>
<g fill="black" opacity=".8" transform="translate(1000 400) scale(0.1 -0.1)"><path d="M0.0 0.0 -68.0 -88.0H-476.0L-468.0 -117.0H96.0C109.0 -117.0 121.0 -112.0 124.0 -102.0C77.0 -60.0 0.0 0.0 0.0 0.0Z"/></g>
<g fill="red" transform="translate(1100 400) scale(0.1 -0.1)"><path d="M0.0 0.0 -39.0 -50.0H-567.0L-559.0 -80.0H51.0C65.0 -80.0 73.0 -75.0 76.0 -64.0C47.0 -36.0 0.0 0.0 0.0 0.0Z"/></g>
<g fill="black" opacity=".8" transform="translate(1100 400) scale(0.1 -0.1)"><path d="M0.0 0.0 -41.0 -50.0H-566.0L-558.0 -81.0H50.0C64.0 -81.0 73.0 -76.0 77.0 -64.0C47.0 -36.0 0.0 0.0 0.0 0.0Z"/></g>
<g fill="red" transform="translate(1200 400) scale(0.1 -0.1)"><path d="M0.0 0.0 -74.0 -99.0H-516.0L-508.0 -127.0H106.0C120.0 -127.0 132.0 -122.0 135.0 -111.0C85.0 -66.0 0.0 0.0 0.0 0.0Z"/></g>
<g fill="black" opacity=".8" transform="translate(1200 400) scale(0.1 -0.1)"><path d="M0.0 0.0 -74.0 -98.0H-516.0L-508.0 -127.0H105.0C119.0 -127.0 131.0 -122.0 134.0 -112.0C84.0 -67.0 0.0 0.0 0.0 0.0Z"/></g>
<g fill="red" transform="translate(1300 400) scale(0.1 -0.1)"><path d="M0.0 0.0 -41.0 -50.0H-416.0L-408.0 -80.0H49.0C63.0 -80.0 72.0 -75.0 75.0 -64.0C46.0 -36.0 0.0 0.0 0.0 0.0Z"/></g>
<g fill="black" opacity=".8" transform="translate(1300 400) scale(0.1 -0.1)"><path d="M0.0 0.0 -41.0 -49.0H-416.0L-407.0 -80.0H49.0C63.0 -80.0 72.0 -76.0 76.0 -63.0C47.0 -36.0 0.0 0.0 0.0 0.0Z"/></g>
<g fill="red" transform="translate(1400 400) scale(0.1 -0.1)"><path d="M0.0 0.0 -72.0 -97.0H-374.0L-366.0 -125.0H103.0C117.0 -125.0 129.0 -120.0 132.0 -109.0C83.0 -65.0 0.0 0.0 0.0 0.0Z"/></g>
<g fill="black" opacity=".8" transform="translate(1400 400) scale(0.1 -0.1)"><path d="M0.0 0.0 -72.0 -97.0H-374.0L-366.0 -126.0H101.0C115.0 -126.0 127.0 -121.0 130.0 -110.0C81.0 -66.0 0.0 0.0 0.0 0.0Z"/></g>
<g fill="red" transform="translate(1500 400) scale(0.1 -0.1)"><path d="M0.0 0.0 -39.0 -49.0H-406.0L-398.0 -79.0H48.0C61.0 -79.0 71.0 -74.0 74.0 -63.0C45.0 -35.0 0.0 0.0 0.0 0.0Z"/></g>
<g fill="black" opacity=".8" transform="translate(1500 400) scale(0.1 -0.1)"><path d="M0.0 0.0 -40.0 -48.0H-405.0L-398.0 -79.0H49.0C62.0 -79.0 71.0 -74.0 75.0 -62.0C46.0 -35.0 0.0 0.0 0.0 0.0Z"/></g>
<g fill="red" transform="translate(1600 400) scale(0.1 -0.1)"><path d="M0.0 0.0 -71.0 -93.0H-377.0L-369.0 -121.0H98.0C112.0 -121.0 124.0 -116.0 126.0 -105.0C79.0 -62.0 0.0 0.0 0.0 0.0Z"/></g>
<g fill="black" opacity=".8" transform="translate(1600 400) scale(0.1 -0.1)"><path d="M0.0 0.0 -70.0 -93.0H-377.0L-369.0 -121.0H97.0C111.0 -121.0 123.0 -116.0 126.0 -106.0C79.0 -63.0 0.0 0.0 0.0 0.0Z"/></g>
<g fill="red" transform="translate(100 500) scale(0.1 -0.1)"><path d="M0.0 0.0 -39.0 -49.0H-507.0L-499.0 -79.0H49.0C61.0 -79.0 71.0 -74.0 73.0 -63.0C46.0 -35.0 0.0 0.0 0.0 0.0Z"/></g>
<g fill="black" opacity=".8" transform="translate(100 500) scale(0.1 -0.1)"><path d="M0.0 0.0 -40.0 -49.0H-506.0L-499.0 -79.0H49.0C62.0 -79.0 72.0 -74.0 75.0 -62.0C46.0 -35.0 0.0 0.0 0.0 0.0Z"/></g>
<g fill="red" transform="translate(200 500) scale(0.1 -0.1)"><path d="M0.0 0.0 -72.0 -95.0H-467.0L-459.0 -123.0H101.0C116.0 -123.0 127.0 -118.0 130.0 -107.0C82.0 -64.0 0.0 0.0 0.0 0.0Z"/></g>
<g fill="black" opacity=".8" transform="translate(200 500) scale(0.1 -0.1)"><path d="M0.0 0.0 -72.0 -95.0H-467.0L-459.0 -123.0H101.0C114.0 -123.0 126.0 -118.0 130.0 -108.0C81.0 -64.0 0.0 0.0 0.0 0.0Z"/></g>
<g fill="red" transform="translate(300 500) scale(0.1 -0.1)"><path d="M0.0 0.0 -43.0 -53.0H-529.0L-520.0 -86.0H53.0C68.0 -86.0 78.0 -83.0 81.0 -70.0C49.0 -40.0 0.0 0.0 0.0 0.0Z"/></g>
<g fill="black" opacity=".8" transform="translate(300 500) scale(0.1 -0.1)"><path d="M0.0 0.0 -44.0 -54.0H-528.0L-520.0 -86.0H55.0C69.0 -86.0 79.0 -81.0 82.0 -68.0C51.0 -39.0 0.0 0.0 0.0 0.0Z"/></g>
<g fill="red" transform="translate(400 500) scale(0.1 -0.1)"><path d="M0.0 0.0 -72.0 -96.0H-504.0L-495.0 -128.0H99.0C115.0 -128.0 126.0 -123.0 129.0 -112.0C80.0 -67.0 0.0 0.0 0.0 0.0Z"/></g>
<g fill="black" opacity=".8" transform="translate(400 500) scale(0.1 -0.1)"><path d="M0.0 0.0 -73.0 -95.0H-503.0L-494.0 -125.0H102.0C117.0 -125.0 130.0 -120.0 133.0 -109.0C83.0 -65.0 0.0 0.0 0.0 0.0Z"/></g>
<g fill="red" transform="translate(500 500) scale(0.1 -0.1)"><path d="M0.0 0.0 -42.0 -53.0H-436.0L-427.0 -86.0H54.0C68.0 -86.0 78.0 -83.0 81.0 -70.0C50.0 -40.0 0.0 0.0 0.0 0.0Z"/></g>
<g fill="black" opacity=".8" transform="translate(500 500) scale(0.1 -0.1)"><path d="M0.0 0.0 -44.0 -54.0H-435.0L-427.0 -86.0H54.0C68.0 -86.0 79.0 -82.0 82.0 -68.0C50.0 -39.0 0.0 0.0 0.0 0.0Z"/></g>
<g fill="red" transform="translate(600 500) scale(0.1 -0.1)"><path d="M0.0 0.0 -71.0 -96.0H-396.0L-387.0 -128.0H99.0C115.0 -128.0 126.0 -123.0 130.0 -112.0C81.0 -67.0 0.0 0.0 0.0 0.0Z"/></g>
<g fill="black" opacity=".8" transform="translate(600 500) scale(0.1 -0.1)"><path d="M0.0 0.0 -73.0 -96.0H-395.0L-387.0 -127.0H101.0C115.0 -127.0 128.0 -121.0 131.0 -110.0C82.0 -65.0 0.0 0.0 0.0 0.0Z"/></g>
<g fill="red" transform="translate(700 500) scale(0.1 -0.1)"><path d="M0.0 0.0 -43.0 -54.0H-470.0L-462.0 -84.0H56.0C70.0 -84.0 79.0 -79.0 82.0 -68.0C50.0 -38.0 0.0 0.0 0.0 0.0Z"/></g>
<g fill="black" opacity=".8" transform="translate(700 500) scale(0.1 -0.1)"><path d="M0.0 0.0 -44.0 -53.0H-470.0L-461.0 -86.0H53.0C68.0 -86.0 78.0 -81.0 81.0 -68.0C50.0 -38.0 0.0 0.0 0.0 0.0Z"/></g>
<g fill="red" transform="translate(800 500) scale(0.1 -0.1)"><path d="M0.0 0.0 -77.0 -106.0H-444.0L-436.0 -134.0H107.0C122.0 -134.0 133.0 -129.0 136.0 -118.0C86.0 -71.0 0.0 0.0 0.0 0.0Z"/></g>
<g fill="black" opacity=".8" transform="translate(800 500) scale(0.1 -0.1)"><path d="M0.0 0.0 -77.0 -102.0H-444.0L-435.0 -133.0H108.0C123.0 -133.0 136.0 -128.0 139.0 -117.0C87.0 -69.0 0.0 0.0 0.0 0.0Z"/></g>
<g fill="red" transform="translate(900 500) scale(0.1 -0.1)"><path d="M0.0 0.0 -40.0 -50.0H-328.0L-320.0 -80.0H50.0C64.0 -80.0 74.0 -75.0 76.0 -64.0C47.0 -36.0 0.0 0.0 0.0 0.0Z"/></g>
<g fill="black" opacity=".8" transform="translate(900 500) scale(0.1 -0.1)"><path d="M0.0 0.0 -40.0 -49.0H-328.0L-320.0 -81.0H50.0C64.0 -81.0 74.0 -76.0 76.0 -64.0C47.0 -36.0 0.0 0.0 0.0 0.0Z"/></g>
<g fill="red" transform="translate(1000 500) scale(0.1 -0.1)"><path d="M0.0 0.0 -75.0 -99.0H-367.0L-359.0 -127.0H105.0C120.0 -127.0 131.0 -122.0 134.0 -111.0C84.0 -66.0 0.0 0.0 0.0 0.0Z"/></g>
<g fill="black" opacity=".8" transform="translate(1000 500) scale(0.1 -0.1)"><path d="M0.0 0.0 -74.0 -99.0H-367.0L-358.0 -128.0H103.0C118.0 -128.0 130.0 -123.0 133.0 -112.0C83.0 -67.0 0.0 0.0 0.0 0.0Z"/></g>
<g fill="red" transform="translate(1100 500) scale(0.1 -0.1)"><path d="M0.0 0.0 -42.0 -50.0H-486.0L-478.0 -80.0H50.0C63.0 -80.0 73.0 -75.0 76.0 -64.0C46.0 -36.0 0.0 0.0 0.0 0.0Z"/></g>
<g fill="black" opacity=".8" transform="translate(1100 500) scale(0.1 -0.1)"><path d="M0.0 0.0 -41.0 -49.0H-486.0L-477.0 -81.0H49.0C63.0 -81.0 73.0 -76.0 76.0 -64.0C47.0 -36.0 0.0 0.0 0.0 0.0Z"/></g>
<g fill="red" transform="translate(1200 500) scale(0.1 -0.1)"><path d="M0.0 0.0 -76.0 -101.0H-429.0L-421.0 -129.0H108.0C123.0 -129.0 134.0 -124.0 137.0 -113.0C86.0 -67.0 0.0 0.0 0.0 0.0Z"/></g>
<g fill="black" opacity=".8" transform="translate(1200 500) scale(0.1 -0.1)"><path d="M0.0 0.0 -75.0 -101.0H-429.0L-421.0 -130.0H105.0C120.0 -130.0 132.0 -125.0 135.0 -114.0C85.0 -68.0 0.0 0.0 0.0 0.0Z"/></g>
<g fill="red" transform="translate(1300 500) scale(0.1 -0.1)"><path d="M0.0 0.0 -41.0 -50.0H-481.0L-473.0 -80.0H50.0C64.0 -80.0 73.0 -75.0 76.0 -64.0C46.0 -36.0 0.0 0.0 0.0 0.0Z"/></g>
<g fill="black" opacity=".8" transform="translate(1300 500) scale(0.1 -0.1)"><path d="M0.0 0.0 -42.0 -49.0H-480.0L-472.0 -81.0H49.0C63.0 -81.0 72.0 -77.0 77.0 -64.0C47.0 -36.0 0.0 0.0 0.0 0.0Z"/></g>
<g fill="red" transform="translate(1400 500) scale(0.1 -0.1)"><path d="M0.0 0.0 -72.0 -94.0H-359.0L-351.0 -122.0H99.0C114.0 -122.0 125.0 -117.0 128.0 -106.0C80.0 -63.0 0.0 0.0 0.0 0.0Z"/></g>
<g fill="black" opacity=".8" transform="translate(1400 500) scale(0.1 -0.1)"><path d="M0.0 0.0 -70.0 -94.0H-359.0L-351.0 -124.0H97.0C110.0 -124.0 123.0 -119.0 126.0 -107.0C79.0 -64.0 0.0 0.0 0.0 0.0Z"/></g>
<g fill="red" transform="translate(1500 500) scale(0.1 -0.1)"><path d="M0.0 0.0 -47.0 -56.0H-348.0L-340.0 -86.0H58.0C72.0 -86.0 82.0 -81.0 84.0 -70.0C51.0 -40.0 0.0 0.0 0.0 0.0Z"/></g>
<g fill="black" opacity=".8" transform="translate(1500 500) scale(0.1 -0.1)"><path d="M0.0 0.0 -46.0 -55.0H-347.0L-339.0 -88.0H56.0C70.0 -88.0 81.0 -84.0 84.0 -70.0C52.0 -40.0 0.0 0.0 0.0 0.0Z"/></g>
<g fill="red" transform="translate(1600 500) scale(0.1 -0.1)"><path d="M0.0 0.0 -73.0 -92.0H-309.0L-301.0 -120.0H103.0C118.0 -120.0 129.0 -115.0 132.0 -104.0C82.0 -61.0 0.0 0.0 0.0 0.0Z"/></g>
<g fill="black" opacity=".8" transform="translate(1600 500) scale(0.1 -0.1)"><path d="M0.0 0.0 -70.0 -92.0H-309.0L-301.0 -124.0H96.0C111.0 -124.0 123.0 -119.0 127.0 -107.0C79.0 -63.0 0.0 0.0 0.0 0.0Z"/></g>
<g fill="red" transform="translate(100 600) scale(0.1 -0.1)"><path d="M0.0 0.0 -45.0 -54.0H-415.0L-407.0 -84.0H54.0C68.0 -84.0 78.0 -79.0 81.0 -68.0C49.0 -38.0 0.0 0.0 0.0 0.0Z"/></g>
<g fill="black" opacity=".8" transform="translate(100 600) scale(0.1 -0.1)"><path d="M0.0 0.0 -44.0 -53.0H-414.0L-406.0 -85.0H54.0C68.0 -85.0 78.0 -81.0 81.0 -68.0C50.0 -38.0 0.0 0.0 0.0 0.0Z"/></g>
<g fill="red" transform="translate(200 600) scale(0.1 -0.1)"><path d="M0.0 0.0 -69.0 -87.0H-361.0L-353.0 -115.0H96.0C111.0 -115.0 122.0 -110.0 125.0 -99.0C78.0 -58.0 0.0 0.0 0.0 0.0Z"/></g>
<g fill="black" opacity=".8" transform="translate(200 600) scale(0.1 -0.1)"><path d="M0.0 0.0 -67.0 -87.0H-361.0L-353.0 -118.0H92.0C106.0 -118.0 118.0 -112.0 121.0 -101.0C75.0 -60.0 0.0 0.0 0.0 0.0Z"/></g>
<g fill="red" transform="translate(300 600) scale(0.1 -0.1)"><path d="M0.0 0.0 -49.0 -61.0H-461.0L-453.0 -91.0H64.0C78.0 -91.0 88.0 -86.0 91.0 -75.0C56.0 -43.0 0.0 0.0 0.0 0.0Z"/></g>
<g fill="black" opacity=".8" transform="translate(300 600) scale(0.1 -0.1)"><path d="M0.0 0.0 -49.0 -59.0H-461.0L-452.0 -94.0H60.0C75.0 -94.0 87.0 -89.0 90.0 -75.0C55.0 -42.0 0.0 0.0 0.0 0.0Z"/></g>
<g fill="red" transform="translate(400 600) scale(0.1 -0.1)"><path d="M0.0 0.0 -77.0 -98.0H-411.0L-403.0 -126.0H110.0C125.0 -126.0 136.0 -121.0 139.0 -110.0C87.0 -65.0 0.0 0.0 0.0 0.0Z"/></g>
<g fill="black" opacity=".8" transform="translate(400 600) scale(0.1 -0.1)"><path d="M0.0 0.0 -75.0 -97.0H-412.0L-403.0 -131.0H103.0C118.0 -131.0 132.0 -125.0 135.0 -112.0C84.0 -67.0 0.0 0.0 0.0 0.0Z"/></g>
<g fill="red" transform="translate(500 600) scale(0.1 -0.1)"><path d="M0.0 0.0 -40.0 -48.0H-747.0L-738.0 -78.0H47.0C61.0 -78.0 70.0 -73.0 73.0 -62.0C44.0 -35.0 0.0 0.0 0.0 0.0Z"/></g>
<g fill="black" opacity=".8" transform="translate(500 600) scale(0.1 -0.1)"><path d="M0.0 0.0 -40.0 -49.0H-746.0L-739.0 -76.0H50.0C63.0 -76.0 72.0 -72.0 74.0 -61.0C46.0 -35.0 0.0 0.0 0.0 0.0Z"/></g>
<g fill="red" transform="translate(600 600) scale(0.1 -0.1)"><path d="M0.0 0.0 -65.0 -84.0H-713.0L-705.0 -112.0H90.0C104.0 -112.0 115.0 -107.0 118.0 -96.0C74.0 -57.0 0.0 0.0 0.0 0.0Z"/></g>
<g fill="black" opacity=".8" transform="translate(600 600) scale(0.1 -0.1)"><path d="M0.0 0.0 -66.0 -83.0H-712.0L-705.0 -109.0H95.0C107.0 -109.0 119.0 -104.0 121.0 -95.0C75.0 -57.0 0.0 0.0 0.0 0.0Z"/></g>
<g fill="red" transform="translate(700 600) scale(0.1 -0.1)"><path d="M0.0 0.0 -46.0 -57.0H-804.0L-794.0 -90.0H58.0C73.0 -90.0 83.0 -87.0 86.0 -74.0C52.0 -42.0 0.0 0.0 0.0 0.0Z"/></g>
<g fill="black" opacity=".8" transform="translate(700 600) scale(0.1 -0.1)"><path d="M0.0 0.0 -47.0 -57.0H-803.0L-794.0 -90.0H58.0C73.0 -90.0 84.0 -85.0 87.0 -72.0C54.0 -41.0 0.0 0.0 0.0 0.0Z"/></g>
<g fill="red" transform="translate(800 600) scale(0.1 -0.1)"><path d="M0.0 0.0 -82.0 -110.0H-795.0L-786.0 -142.0H116.0C132.0 -142.0 144.0 -137.0 147.0 -126.0C92.0 -76.0 0.0 0.0 0.0 0.0Z"/></g>
<g fill="black" opacity=".8" transform="translate(800 600) scale(0.1 -0.1)"><path d="M0.0 0.0 -84.0 -108.0H-794.0L-785.0 -139.0H120.0C136.0 -139.0 150.0 -134.0 153.0 -122.0C95.0 -73.0 0.0 0.0 0.0 0.0Z"/></g>
<g fill="red" transform="translate(900 600) scale(0.1 -0.1)"><path d="M0.0 0.0 -43.0 -53.0H-603.0L-595.0 -83.0H53.0C67.0 -83.0 77.0 -78.0 79.0 -67.0C48.0 -38.0 0.0 0.0 0.0 0.0Z"/></g>
<g fill="black" opacity=".8" transform="translate(900 600) scale(0.1 -0.1)"><path d="M0.0 0.0 -43.0 -52.0H-602.0L-594.0 -84.0H53.0C66.0 -84.0 76.0 -79.0 80.0 -67.0C49.0 -37.0 0.0 0.0 0.0 0.0Z"/></g>
<g fill="red" transform="translate(1000 600) scale(0.1 -0.1)"><path d="M0.0 0.0 -77.0 -96.0H-528.0L-520.0 -124.0H110.0C124.0 -124.0 136.0 -119.0 139.0 -108.0C86.0 -64.0 0.0 0.0 0.0 0.0Z"/></g>
<g fill="black" opacity=".8" transform="translate(1000 600) scale(0.1 -0.1)"><path d="M0.0 0.0 -74.0 -97.0H-528.0L-520.0 -127.0H104.0C118.0 -127.0 131.0 -122.0 134.0 -111.0C84.0 -66.0 0.0 0.0 0.0 0.0Z"/></g>
<g fill="red" transform="translate(1100 600) scale(0.1 -0.1)"><path d="M0.0 0.0 -40.0 -50.0H-402.0L-394.0 -80.0H50.0C64.0 -80.0 74.0 -75.0 76.0 -64.0C47.0 -36.0 0.0 0.0 0.0 0.0Z"/></g>
<g fill="black" opacity=".8" transform="translate(1100 600) scale(0.1 -0.1)"><path d="M0.0 0.0 -41.0 -50.0H-401.0L-394.0 -80.0H51.0C64.0 -80.0 74.0 -76.0 76.0 -64.0C47.0 -36.0 0.0 0.0 0.0 0.0Z"/></g>
<g fill="red" transform="translate(1200 600) scale(0.1 -0.1)"><path d="M0.0 0.0 -68.0 -90.0H-416.0L-408.0 -118.0H94.0C109.0 -118.0 120.0 -113.0 122.0 -102.0C77.0 -61.0 0.0 0.0 0.0 0.0Z"/></g>
<g fill="black" opacity=".8" transform="translate(1200 600) scale(0.1 -0.1)"><path d="M0.0 0.0 -68.0 -89.0H-416.0L-407.0 -117.0H95.0C109.0 -117.0 121.0 -112.0 124.0 -102.0C77.0 -60.0 0.0 0.0 0.0 0.0Z"/></g>
<g fill="red" transform="translate(1300 600) scale(0.1 -0.1)"><path d="M0.0 0.0 -40.0 -50.0H-596.0L-588.0 -80.0H50.0C64.0 -80.0 73.0 -75.0 76.0 -64.0C46.0 -36.0 0.0 0.0 0.0 0.0Z"/></g>
<g fill="black" opacity=".8" transform="translate(1300 600) scale(0.1 -0.1)"><path d="M0.0 0.0 -41.0 -50.0H-595.0L-588.0 -79.0H51.0C64.0 -79.0 74.0 -75.0 77.0 -63.0C47.0 -36.0 0.0 0.0 0.0 0.0Z"/></g>
<g fill="red" transform="translate(1400 600) scale(0.1 -0.1)"><path d="M0.0 0.0 -68.0 -90.0H-566.0L-558.0 -118.0H94.0C108.0 -118.0 119.0 -113.0 122.0 -102.0C77.0 -61.0 0.0 0.0 0.0 0.0Z"/></g>
<g fill="black" opacity=".8" transform="translate(1400 600) scale(0.1 -0.1)"><path d="M0.0 0.0 -69.0 -88.0H-565.0L-557.0 -116.0H97.0C110.0 -116.0 122.0 -111.0 125.0 -101.0C78.0 -60.0 0.0 0.0 0.0 0.0Z"/></g>
<g fill="red" transform="translate(1500 600) scale(0.1 -0.1)"><path d="M0.0 0.0 -41.0 -50.0H-527.0L-519.0 -80.0H50.0C64.0 -80.0 73.0 -75.0 76.0 -64.0C46.0 -36.0 0.0 0.0 0.0 0.0Z"/></g>
<g fill="black" opacity=".8" transform="translate(1500 600) scale(0.1 -0.1)"><path d="M0.0 0.0 -41.0 -50.0H-526.0L-519.0 -80.0H51.0C64.0 -80.0 74.0 -76.0 77.0 -63.0C47.0 -36.0 0.0 0.0 0.0 0.0Z"/></g>
<g fill="red" transform="translate(1600 600) scale(0.1 -0.1)"><path d="M0.0 0.0 -68.0 -90.0H-491.0L-483.0 -118.0H94.0C108.0 -118.0 119.0 -113.0 122.0 -102.0C77.0 -61.0 0.0 0.0 0.0 0.0Z"/></g>
<g fill="black" opacity=".8" transform="translate(1600 600) scale(0.1 -0.1)"><path d="M0.0 0.0 -68.0 -88.0H-490.0L-483.0 -117.0H96.0C109.0 -117.0 121.0 -112.0 124.0 -102.0C77.0 -60.0 0.0 0.0 0.0 0.0Z"/></g>
<g fill="red" transform="translate(100 700) scale(0.1 -0.1)"><path d="M0.0 0.0 -42.0 -52.0H-459.0L-451.0 -82.0H52.0C66.0 -82.0 75.0 -77.0 78.0 -66.0C47.0 -37.0 0.0 0.0 0.0 0.0Z"/></g>
<g fill="black" opacity=".8" transform="translate(100 700) scale(0.1 -0.1)"><path d="M0.0 0.0 -43.0 -52.0H-458.0L-451.0 -82.0H53.0C66.0 -82.0 76.0 -78.0 79.0 -65.0C49.0 -37.0 0.0 0.0 0.0 0.0Z"/></g>
<g fill="red" transform="translate(200 700) scale(0.1 -0.1)"><path d="M0.0 0.0 -68.0 -87.0H-454.0L-446.0 -115.0H96.0C110.0 -115.0 121.0 -110.0 124.0 -99.0C77.0 -59.0 0.0 0.0 0.0 0.0Z"/></g>
<g fill="black" opacity=".8" transform="translate(200 700) scale(0.1 -0.1)"><path d="M0.0 0.0 -68.0 -87.0H-454.0L-446.0 -116.0H94.0C108.0 -116.0 120.0 -111.0 123.0 -100.0C76.0 -59.0 0.0 0.0 0.0 0.0Z"/></g>
<g fill="red" transform="translate(300 700) scale(0.1 -0.1)"><path d="M0.0 0.0 -44.0 -54.0H-613.0L-605.0 -84.0H56.0C70.0 -84.0 79.0 -79.0 82.0 -68.0C50.0 -38.0 0.0 0.0 0.0 0.0Z"/></g>
<g fill="black" opacity=".8" transform="translate(300 700) scale(0.1 -0.1)"><path d="M0.0 0.0 -44.0 -54.0H-612.0L-605.0 -85.0H55.0C69.0 -85.0 79.0 -80.0 82.0 -68.0C50.0 -39.0 0.0 0.0 0.0 0.0Z"/></g>
<g fill="red" transform="translate(400 700) scale(0.1 -0.1)"><path d="M0.0 0.0 -71.0 -92.0H-592.0L-584.0 -120.0H100.0C115.0 -120.0 126.0 -115.0 129.0 -104.0C81.0 -62.0 0.0 0.0 0.0 0.0Z"/></g>
<g fill="black" opacity=".8" transform="translate(400 700) scale(0.1 -0.1)"><path d="M0.0 0.0 -71.0 -90.0H-592.0L-583.0 -120.0H100.0C114.0 -120.0 127.0 -115.0 130.0 -104.0C80.0 -62.0 0.0 0.0 0.0 0.0Z"/></g>
<g fill="red" transform="translate(500 700) scale(0.1 -0.1)"><path d="M0.0 0.0 -43.0 -52.0H-833.0L-824.0 -82.0H53.0C67.0 -82.0 75.0 -77.0 78.0 -66.0C48.0 -37.0 0.0 0.0 0.0 0.0Z"/></g>
<g fill="black" opacity=".8" transform="translate(500 700) scale(0.1 -0.1)"><path d="M0.0 0.0 -43.0 -52.0H-832.0L-824.0 -82.0H53.0C67.0 -82.0 76.0 -78.0 79.0 -65.0C49.0 -37.0 0.0 0.0 0.0 0.0Z"/></g>
<g fill="red" transform="translate(600 700) scale(0.1 -0.1)"><path d="M0.0 0.0 -77.0 -100.0H-813.0L-805.0 -128.0H111.0C126.0 -128.0 137.0 -123.0 140.0 -112.0C88.0 -67.0 0.0 0.0 0.0 0.0Z"/></g>
<g fill="black" opacity=".8" transform="translate(600 700) scale(0.1 -0.1)"><path d="M0.0 0.0 -78.0 -99.0H-813.0L-805.0 -127.0H112.0C126.0 -127.0 139.0 -122.0 142.0 -112.0C88.0 -67.0 0.0 0.0 0.0 0.0Z"/></g>
<g fill="red" transform="translate(700 700) scale(0.1 -0.1)"><path d="M0.0 0.0 -42.0 -50.0H-357.0L-349.0 -80.0H49.0C63.0 -80.0 73.0 -75.0 75.0 -64.0C46.0 -36.0 0.0 0.0 0.0 0.0Z"/></g>
<g fill="black" opacity=".8" transform="translate(700 700) scale(0.1 -0.1)"><path d="M0.0 0.0 -41.0 -50.0H-356.0L-349.0 -80.0H50.0C63.0 -80.0 73.0 -76.0 76.0 -63.0C47.0 -36.0 0.0 0.0 0.0 0.0Z"/></g>
<g fill="red" transform="translate(800 700) scale(0.1 -0.1)"><path d="M0.0 0.0 -68.0 -91.0H-332.0L-324.0 -119.0H94.0C109.0 -119.0 120.0 -114.0 122.0 -103.0C77.0 -61.0 0.0 0.0 0.0 0.0Z"/></g>
<g fill="black" opacity=".8" transform="translate(800 700) scale(0.1 -0.1)"><path d="M0.0 0.0 -68.0 -90.0H-332.0L-324.0 -119.0H94.0C108.0 -119.0 119.0 -114.0 123.0 -103.0C76.0 -61.0 0.0 0.0 0.0 0.0Z"/></g>
<g fill="red" transform="translate(900 700) scale(0.1 -0.1)"><path d="M0.0 0.0 -40.0 -50.0H-453.0L-445.0 -80.0H50.0C64.0 -80.0 73.0 -75.0 76.0 -64.0C47.0 -36.0 0.0 0.0 0.0 0.0Z"/></g>
<g fill="black" opacity=".8" transform="translate(900 700) scale(0.1 -0.1)"><path d="M0.0 0.0 -41.0 -49.0H-453.0L-445.0 -80.0H50.0C63.0 -80.0 73.0 -76.0 76.0 -64.0C47.0 -36.0 0.0 0.0 0.0 0.0Z"/></g>
<g fill="red" transform="translate(1000 700) scale(0.1 -0.1)"><path d="M0.0 0.0 -70.0 -101.0H-432.0L-424.0 -129.0H94.0C109.0 -129.0 120.0 -124.0 123.0 -113.0C78.0 -68.0 0.0 0.0 0.0 0.0Z"/></g>
<g fill="black" opacity=".8" transform="translate(1000 700) scale(0.1 -0.1)"><path d="M0.0 0.0 -72.0 -96.0H-431.0L-423.0 -125.0H101.0C115.0 -125.0 127.0 -120.0 131.0 -109.0C81.0 -65.0 0.0 0.0 0.0 0.0Z"/></g>
<g fill="red" transform="translate(1100 700) scale(0.1 -0.1)"><path d="M0.0 0.0 -42.0 -50.0H-297.0L-289.0 -80.0H50.0C64.0 -80.0 72.0 -75.0 75.0 -64.0C46.0 -36.0 0.0 0.0 0.0 0.0Z"/></g>
<g fill="black" opacity=".8" transform="translate(1100 700) scale(0.1 -0.1)"><path d="M0.0 0.0 -41.0 -49.0H-297.0L-289.0 -80.0H50.0C63.0 -80.0 73.0 -76.0 76.0 -63.0C47.0 -36.0 0.0 0.0 0.0 0.0Z"/></g>
<g fill="red" transform="translate(1200 700) scale(0.1 -0.1)"><path d="M0.0 0.0 -64.0 -96.0H-263.0L-255.0 -126.0H85.0C99.0 -126.0 110.0 -121.0 113.0 -110.0C72.0 -67.0 0.0 0.0 0.0 0.0Z"/></g>
<g fill="black" opacity=".8" transform="translate(1200 700) scale(0.1 -0.1)"><path d="M0.0 0.0 -68.0 -91.0H-262.0L-254.0 -120.0H93.0C107.0 -120.0 119.0 -115.0 122.0 -105.0C76.0 -62.0 0.0 0.0 0.0 0.0Z"/></g>
<g fill="red" transform="translate(1300 700) scale(0.1 -0.1)"><path d="M0.0 0.0 -41.0 -50.0H-398.0L-390.0 -80.0H50.0C63.0 -80.0 73.0 -75.0 76.0 -64.0C46.0 -36.0 0.0 0.0 0.0 0.0Z"/></g>
<g fill="black" opacity=".8" transform="translate(1300 700) scale(0.1 -0.1)"><path d="M0.0 0.0 -41.0 -49.0H-398.0L-390.0 -80.0H50.0C63.0 -80.0 73.0 -76.0 76.0 -64.0C47.0 -36.0 0.0 0.0 0.0 0.0Z"/></g>
<g fill="red" transform="translate(1400 700) scale(0.1 -0.1)"><path d="M0.0 0.0 -64.0 -96.0H-333.0L-325.0 -126.0H85.0C100.0 -126.0 110.0 -121.0 113.0 -110.0C72.0 -67.0 0.0 0.0 0.0 0.0Z"/></g>
<g fill="black" opacity=".8" transform="translate(1400 700) scale(0.1 -0.1)"><path d="M0.0 0.0 -68.0 -91.0H-332.0L-324.0 -120.0H94.0C108.0 -120.0 120.0 -115.0 123.0 -104.0C77.0 -62.0 0.0 0.0 0.0 0.0Z"/></g>
<g fill="red" transform="translate(1500 700) scale(0.1 -0.1)"><path d="M0.0 0.0 -36.0 -44.0H-250.0L-242.0 -74.0H43.0C56.0 -74.0 65.0 -69.0 68.0 -58.0C42.0 -32.0 0.0 0.0 0.0 0.0Z"/></g>
<g fill="black" opacity=".8" transform="translate(1500 700) scale(0.1 -0.1)"><path d="M0.0 0.0 -37.0 -45.0H-249.0L-242.0 -72.0H46.0C58.0 -72.0 67.0 -68.0 69.0 -57.0C43.0 -33.0 0.0 0.0 0.0 0.0Z"/></g>
<g fill="red" transform="translate(1600 700) scale(0.1 -0.1)"><path d="M0.0 0.0 -55.0 -73.0H-254.0L-246.0 -101.0H74.0C88.0 -101.0 98.0 -96.0 101.0 -85.0C63.0 -50.0 0.0 0.0 0.0 0.0Z"/></g>
<g fill="black" opacity=".8" transform="translate(1600 700) scale(0.1 -0.1)"><path d="M0.0 0.0 -56.0 -73.0H-253.0L-246.0 -99.0H77.0C89.0 -99.0 99.0 -94.0 102.0 -85.0C63.0 -50.0 0.0 0.0 0.0 0.0Z"/></g>
<g fill="red" transform="translate(100 800) scale(0.1 -0.1)"><path d="M0.0 0.0 -31.0 -38.0H-245.0L-237.0 -68.0H35.0C48.0 -68.0 56.0 -63.0 59.0 -52.0C37.0 -28.0 0.0 0.0 0.0 0.0Z"/></g>
<g fill="black" opacity=".8" transform="translate(100 800) scale(0.1 -0.1)"><path d="M0.0 0.0 -33.0 -39.0H-244.0L-237.0 -66.0H39.0C50.0 -66.0 57.0 -62.0 61.0 -51.0C37.0 -28.0 0.0 0.0 0.0 0.0Z"/></g>
<g fill="red" transform="translate(200 800) scale(0.1 -0.1)"><path d="M0.0 0.0 -58.0 -86.0H-182.0L-174.0 -114.0H76.0C90.0 -114.0 100.0 -109.0 103.0 -98.0C66.0 -59.0 0.0 0.0 0.0 0.0Z"/></g>
<g fill="black" opacity=".8" transform="translate(200 800) scale(0.1 -0.1)"><path d="M0.0 0.0 -61.0 -84.0H-180.0L-174.0 -109.0H84.0C95.0 -109.0 106.0 -105.0 109.0 -95.0C68.0 -57.0 0.0 0.0 0.0 0.0Z"/></g>
</svg>
