<?xml version="1.0" encoding="UTF-8"?>
<svg width="1700" height="300" xmlns="http://www.w3.org/2000/svg">
<rect width="100%" height="100%" fill="white"/>
<g fill="green" transform="translate(100 100) scale(0.1 -0.1)"><path d="M-0.0 -0.0 8.0 -27.0H605.0C616.0 -27.0 625.0 -23.0 628.0 -13.0C602.0 12.0 562.0 43.0 562.0 43.0L525.0 0.0H0.0ZM289.0 473.0V-18.0H329.0V441.0C349.0 445.0 357.0 454.0 360.0 466.0L289.0 473.0ZM104.0 260.0 120.0 234.0H587.0C599.0 234.0 608.0 238.0 610.0 248.0C585.0 272.0 541.0 307.0 541.0 307.0L504.0 260.0H104.0ZM131.0 452.0C117.0 304.0 78.0 164.0 23.0 65.0L38.0 57.0C108.0 144.0 154.0 274.0 179.0 416.0C198.0 419.0 207.0 428.0 209.0 440.0L131.0 452.0ZM354.0 -9.0V-469.0C354.0 -502.0 366.0 -515.0 423.0 -515.0H502.0C619.0 -515.0 640.0 -509.0 640.0 -491.0C640.0 -482.0 637.0 -477.0 621.0 -471.0L618.0 -314.0H605.0C597.0 -377.0 587.0 -450.0 582.0 -465.0C579.0 -476.0 576.0 -478.0 569.0 -479.0C558.0 -481.0 533.0 -482.0 498.0 -482.0H427.0C396.0 -482.0 394.0 -475.0 394.0 -460.0V-39.0C394.0 -31.0 394.0 -21.0 394.0 -9.0H354.0ZM179.0 -15.0C170.0 -251.0 123.0 -397.0 -71.0 -516.0L-63.0 -530.0C156.0 -420.0 208.0 -271.0 223.0 -15.0H179.0Z"/></g>
<g fill="green" transform="translate(200 100) scale(0.1 -0.1)"><path d="M0.0 0.0 7.0 -25.0H626.0C639.0 -25.0 650.0 -21.0 652.0 -11.0C608.0 32.0 530.0 97.0 530.0 97.0L461.0 0.0H0.0ZM252.0 495.0V-12.0H389.0V454.0C415.0 458.0 422.0 468.0 424.0 482.0L252.0 495.0ZM113.0 255.0 135.0 230.0H612.0C624.0 230.0 635.0 235.0 637.0 244.0C596.0 286.0 522.0 352.0 522.0 352.0L456.0 255.0H113.0ZM78.0 446.0C77.0 302.0 55.0 146.0 21.0 35.0L32.0 29.0C123.0 111.0 185.0 234.0 225.0 391.0C245.0 393.0 256.0 401.0 259.0 414.0L78.0 446.0ZM325.0 6.0V-430.0C325.0 -515.0 344.0 -539.0 438.0 -539.0H505.0C635.0 -539.0 676.0 -511.0 676.0 -461.0C676.0 -436.0 670.0 -421.0 640.0 -405.0L636.0 -248.0H628.0C607.0 -315.0 589.0 -375.0 577.0 -396.0C571.0 -408.0 567.0 -410.0 558.0 -411.0C549.0 -411.0 537.0 -411.0 522.0 -411.0H478.0C461.0 -411.0 458.0 -406.0 458.0 -393.0V-29.0C458.0 -20.0 458.0 -4.0 458.0 6.0H325.0ZM119.0 5.0C123.0 -205.0 103.0 -413.0 -56.0 -564.0L-50.0 -571.0C205.0 -456.0 255.0 -237.0 265.0 6.0L119.0 5.0Z"/></g>
<g fill="green" transform="translate(300 100) scale(0.1 -0.1)"><path d="M-0.0 -0.0 5.0 -16.0H394.0C400.0 -16.0 405.0 -14.0 407.0 -8.0C392.0 7.0 370.0 24.0 370.0 24.0L348.0 0.0H0.0ZM191.0 333.0V-12.0H214.0V315.0C226.0 318.0 230.0 323.0 232.0 330.0L191.0 333.0ZM64.0 184.0 80.0 169.0H392.0C399.0 169.0 405.0 171.0 406.0 177.0C391.0 191.0 364.0 212.0 364.0 212.0L342.0 184.0H64.0ZM84.0 321.0C77.0 215.0 53.0 116.0 15.0 45.0L24.0 41.0C73.0 104.0 101.0 197.0 116.0 300.0C127.0 303.0 132.0 308.0 133.0 316.0L84.0 321.0ZM229.0 -6.0V-336.0C229.0 -357.0 237.0 -365.0 274.0 -365.0H328.0C405.0 -365.0 419.0 -362.0 419.0 -352.0C419.0 -346.0 417.0 -343.0 407.0 -339.0L405.0 -232.0H397.0C392.0 -275.0 386.0 -325.0 383.0 -335.0C381.0 -343.0 379.0 -344.0 374.0 -345.0C367.0 -346.0 350.0 -347.0 325.0 -347.0H276.0C254.0 -347.0 253.0 -341.0 253.0 -331.0V-25.0C253.0 -20.0 253.0 -13.0 253.0 -6.0H229.0ZM112.0 -11.0C107.0 -176.0 75.0 -280.0 -56.0 -365.0L-51.0 -373.0C97.0 -293.0 128.0 -187.0 138.0 -11.0H112.0Z"/></g>
<g fill="green" transform="translate(400 100) scale(0.1 -0.1)"><path d="M0.0 0.0 4.0 -15.0H413.0C421.0 -15.0 428.0 -12.0 429.0 -7.0C401.0 21.0 351.0 63.0 351.0 63.0L306.0 0.0H0.0ZM168.0 353.0V-6.0H256.0V327.0C272.0 330.0 276.0 336.0 278.0 345.0L168.0 353.0ZM74.0 184.0 98.0 169.0H408.0C415.0 169.0 422.0 172.0 423.0 177.0C397.0 204.0 350.0 248.0 350.0 248.0L307.0 184.0H74.0ZM50.0 315.0C51.0 214.0 37.0 104.0 15.0 24.0L21.0 21.0C84.0 81.0 124.0 170.0 149.0 283.0C160.0 285.0 167.0 289.0 169.0 297.0L50.0 315.0ZM213.0 7.0V-311.0C213.0 -366.0 228.0 -381.0 289.0 -381.0H336.0C425.0 -381.0 452.0 -363.0 452.0 -331.0C452.0 -315.0 447.0 -306.0 428.0 -295.0L425.0 -184.0H421.0C407.0 -231.0 395.0 -273.0 386.0 -288.0C383.0 -297.0 380.0 -298.0 374.0 -299.0C368.0 -299.0 358.0 -299.0 347.0 -299.0H312.0C300.0 -299.0 298.0 -296.0 298.0 -287.0V-15.0C298.0 -9.0 298.0 1.0 298.0 7.0H213.0ZM74.0 6.0C78.0 -141.0 66.0 -292.0 -43.0 -400.0L-39.0 -403.0C136.0 -320.0 161.0 -160.0 167.0 7.0L74.0 6.0Z"/></g>
<g fill="green" transform="translate(500 100) scale(0.1 -0.1)"><path d="M0.0 0.0 9.0 -33.0H704.0C719.0 -33.0 730.0 -28.0 732.0 -15.0C698.0 16.0 646.0 59.0 646.0 59.0L597.0 0.0H0.0ZM341.0 361.0V-16.0H390.0V318.0C418.0 322.0 430.0 335.0 434.0 350.0L341.0 361.0ZM147.0 189.0V157.0H652.0C668.0 157.0 679.0 162.0 680.0 174.0C649.0 205.0 599.0 246.0 599.0 246.0L554.0 189.0H147.0ZM179.0 355.0C153.0 233.0 105.0 117.0 50.0 41.0L68.0 29.0C136.0 93.0 192.0 195.0 228.0 306.0C250.0 306.0 263.0 317.0 268.0 328.0L179.0 355.0ZM416.0 1.0V-349.0C416.0 -388.0 429.0 -403.0 493.0 -403.0H579.0C706.0 -403.0 732.0 -394.0 732.0 -369.0C732.0 -359.0 728.0 -352.0 710.0 -346.0L706.0 -194.0H690.0C680.0 -257.0 670.0 -325.0 664.0 -342.0C661.0 -352.0 659.0 -353.0 649.0 -354.0C638.0 -356.0 611.0 -357.0 575.0 -357.0H501.0C469.0 -357.0 465.0 -352.0 465.0 -338.0V-33.0C465.0 -24.0 465.0 -12.0 465.0 1.0H416.0ZM232.0 1.0C220.0 -203.0 163.0 -316.0 -39.0 -405.0L-33.0 -422.0C195.0 -348.0 273.0 -230.0 292.0 1.0H232.0Z"/></g>
<g fill="green" transform="translate(600 100) scale(0.1 -0.1)"><path d="M0.0 0.0 9.0 -31.0H703.0C718.0 -31.0 731.0 -26.0 734.0 -14.0C686.0 32.0 603.0 100.0 603.0 100.0L530.0 0.0H0.0ZM294.0 374.0V-21.0H441.0V329.0C470.0 333.0 479.0 344.0 480.0 359.0L294.0 374.0ZM144.0 184.0 136.0 152.0H677.0C692.0 152.0 704.0 159.0 707.0 170.0C656.0 216.0 574.0 279.0 574.0 279.0L499.0 184.0H144.0ZM120.0 364.0C114.0 237.0 85.0 105.0 44.0 14.0L59.0 5.0C148.0 67.0 217.0 165.0 262.0 295.0C287.0 296.0 301.0 306.0 305.0 322.0L120.0 364.0ZM368.0 -7.0V-295.0C368.0 -386.0 386.0 -412.0 489.0 -412.0H560.0C699.0 -412.0 743.0 -381.0 743.0 -326.0C743.0 -299.0 737.0 -282.0 705.0 -266.0L700.0 -134.0H689.0C667.0 -196.0 651.0 -243.0 639.0 -261.0C632.0 -271.0 626.0 -274.0 616.0 -275.0C607.0 -275.0 593.0 -275.0 578.0 -275.0H531.0C513.0 -275.0 510.0 -270.0 510.0 -256.0V-45.0C510.0 -36.0 510.0 -18.0 510.0 -7.0H368.0ZM160.0 -8.0C162.0 -184.0 142.0 -321.0 -24.0 -422.0L-20.0 -435.0C236.0 -369.0 316.0 -226.0 323.0 -8.0H160.0Z"/></g>
<g fill="green" transform="translate(700 100) scale(0.1 -0.1)"><path d="M0.0 0.0 10.0 -34.0H617.0C633.0 -34.0 643.0 -29.0 646.0 -16.0C613.0 16.0 558.0 58.0 558.0 58.0L510.0 0.0H0.0ZM278.0 491.0V-23.0H331.0V452.0C355.0 455.0 366.0 466.0 368.0 482.0L278.0 491.0ZM105.0 275.0V241.0H569.0C584.0 241.0 594.0 246.0 597.0 259.0C565.0 290.0 510.0 334.0 510.0 334.0L464.0 275.0H105.0ZM119.0 452.0C100.0 310.0 58.0 172.0 4.0 76.0L24.0 66.0C90.0 149.0 140.0 275.0 171.0 406.0C196.0 408.0 207.0 419.0 211.0 432.0L119.0 452.0ZM363.0 -18.0V-464.0C363.0 -502.0 375.0 -518.0 436.0 -518.0H510.0C627.0 -518.0 651.0 -508.0 651.0 -486.0C651.0 -474.0 647.0 -468.0 628.0 -461.0L624.0 -304.0H607.0C599.0 -367.0 588.0 -440.0 583.0 -456.0C579.0 -467.0 575.0 -469.0 569.0 -471.0C559.0 -471.0 537.0 -472.0 506.0 -472.0H445.0C417.0 -472.0 416.0 -467.0 416.0 -451.0V-52.0C416.0 -44.0 416.0 -32.0 416.0 -18.0H363.0ZM185.0 -23.0C178.0 -256.0 135.0 -400.0 -53.0 -522.0L-43.0 -540.0C172.0 -431.0 229.0 -283.0 243.0 -23.0H185.0Z"/></g>
<g fill="green" transform="translate(800 100) scale(0.1 -0.1)"><path d="M0.0 0.0 9.0 -32.0H628.0C645.0 -32.0 658.0 -27.0 661.0 -14.0C610.0 35.0 521.0 108.0 521.0 108.0L443.0 0.0H0.0ZM234.0 495.0V-18.0H391.0V446.0C422.0 452.0 431.0 464.0 433.0 479.0L234.0 495.0ZM100.0 253.0 99.0 221.0H600.0C615.0 221.0 629.0 227.0 631.0 239.0C586.0 286.0 506.0 357.0 506.0 357.0L435.0 253.0H100.0ZM59.0 440.0C55.0 301.0 31.0 152.0 -2.0 48.0L12.0 39.0C103.0 113.0 170.0 227.0 218.0 370.0C243.0 371.0 257.0 381.0 262.0 397.0L59.0 440.0ZM330.0 -1.0V-431.0C330.0 -526.0 343.0 -556.0 443.0 -556.0H497.0C615.0 -556.0 662.0 -524.0 662.0 -468.0C662.0 -439.0 656.0 -420.0 622.0 -402.0L618.0 -249.0H607.0C586.0 -314.0 566.0 -375.0 555.0 -394.0C548.0 -406.0 544.0 -408.0 536.0 -408.0C530.0 -408.0 525.0 -408.0 517.0 -408.0H500.0C487.0 -408.0 485.0 -403.0 485.0 -390.0V-42.0C485.0 -32.0 485.0 -13.0 485.0 -1.0H330.0ZM122.0 -1.0C124.0 -213.0 96.0 -423.0 -54.0 -578.0L-46.0 -589.0C197.0 -466.0 273.0 -249.0 290.0 0.0L122.0 -1.0Z"/></g>
<g fill="red" transform="translate(100 200) scale(0.1 -0.1)"><path d="M0.0 0.0 8.0 -30.0H651.0C664.0 -30.0 674.0 -25.0 677.0 -14.0C647.0 14.0 601.0 50.0 601.0 50.0L559.0 0.0H0.0ZM313.0 421.0V-17.0H357.0V384.0C381.0 388.0 391.0 398.0 394.0 412.0L313.0 421.0ZM124.0 227.0 132.0 198.0H617.0C631.0 198.0 641.0 203.0 643.0 214.0C615.0 241.0 568.0 278.0 568.0 278.0L527.0 227.0H124.0ZM153.0 407.0C134.0 271.0 91.0 142.0 36.0 54.0L52.0 44.0C121.0 120.0 172.0 237.0 202.0 365.0C222.0 366.0 233.0 376.0 236.0 388.0L153.0 407.0ZM383.0 -5.0V-413.0C383.0 -449.0 395.0 -463.0 455.0 -463.0H538.0C660.0 -463.0 683.0 -455.0 683.0 -434.0C683.0 -425.0 680.0 -419.0 662.0 -413.0L659.0 -258.0H645.0C636.0 -321.0 626.0 -392.0 620.0 -408.0C617.0 -418.0 615.0 -420.0 606.0 -421.0C596.0 -423.0 569.0 -423.0 534.0 -423.0H461.0C430.0 -423.0 427.0 -418.0 427.0 -403.0V-36.0C427.0 -28.0 427.0 -17.0 427.0 -5.0H383.0ZM204.0 -7.0C193.0 -229.0 142.0 -359.0 -56.0 -464.0L-49.0 -480.0C174.0 -386.0 238.0 -252.0 255.0 -7.0H204.0Z"/></g>
<g fill="black" opacity=".8" transform="translate(100 200) scale(0.1 -0.1)"><path d="M0.0 0.0 8.0 -30.0H651.0C664.0 -30.0 674.0 -25.0 676.0 -14.0C647.0 14.0 601.0 50.0 601.0 50.0L559.0 0.0H0.0ZM313.0 421.0V-17.0H357.0V384.0C381.0 388.0 391.0 399.0 395.0 412.0L313.0 421.0ZM124.0 227.0 133.0 198.0H617.0C631.0 198.0 641.0 203.0 643.0 213.0C615.0 241.0 568.0 279.0 568.0 279.0L527.0 227.0H124.0ZM153.0 407.0C134.0 271.0 91.0 142.0 36.0 54.0L52.0 44.0C121.0 120.0 172.0 237.0 202.0 365.0C222.0 366.0 233.0 376.0 237.0 388.0L153.0 407.0ZM383.0 -4.0V-413.0C383.0 -449.0 395.0 -463.0 456.0 -463.0H538.0C660.0 -463.0 683.0 -455.0 683.0 -434.0C683.0 -425.0 679.0 -419.0 663.0 -413.0L659.0 -258.0H645.0C636.0 -321.0 626.0 -392.0 620.0 -408.0C617.0 -418.0 615.0 -420.0 606.0 -421.0C595.0 -423.0 569.0 -424.0 534.0 -424.0H462.0C430.0 -424.0 427.0 -418.0 427.0 -403.0V-36.0C427.0 -28.0 427.0 -17.0 427.0 -4.0H383.0ZM204.0 -8.0C193.0 -229.0 142.0 -359.0 -56.0 -464.0L-49.0 -480.0C174.0 -386.0 238.0 -252.0 255.0 -8.0H204.0Z"/></g>
<g fill="red" transform="translate(200 200) scale(0.1 -0.1)"><path d="M0.0 0.0 8.0 -28.0H662.0C676.0 -28.0 688.0 -23.0 690.0 -12.0C644.0 32.0 564.0 98.0 564.0 98.0L493.0 0.0H0.0ZM271.0 439.0V-16.0H413.0V396.0C441.0 400.0 448.0 410.0 450.0 425.0L271.0 439.0ZM128.0 222.0 136.0 194.0H642.0C656.0 194.0 667.0 199.0 670.0 210.0C624.0 253.0 546.0 318.0 546.0 318.0L476.0 222.0H128.0ZM98.0 408.0C94.0 272.0 69.0 127.0 32.0 25.0L45.0 18.0C135.0 91.0 200.0 202.0 242.0 346.0C265.0 348.0 277.0 357.0 280.0 371.0L98.0 408.0ZM345.0 0.0V-367.0C345.0 -455.0 363.0 -480.0 462.0 -480.0H531.0C665.0 -480.0 707.0 -451.0 707.0 -398.0C707.0 -372.0 701.0 -356.0 670.0 -340.0L666.0 -195.0H656.0C635.0 -259.0 618.0 -314.0 606.0 -333.0C600.0 -344.0 595.0 -346.0 585.0 -347.0C576.0 -347.0 563.0 -347.0 548.0 -347.0H503.0C485.0 -347.0 482.0 -343.0 482.0 -329.0V-36.0C482.0 -27.0 482.0 -11.0 482.0 0.0H345.0ZM138.0 -1.0C141.0 -195.0 121.0 -370.0 -41.0 -498.0L-36.0 -508.0C219.0 -416.0 283.0 -232.0 292.0 -1.0H138.0Z"/></g>
<g fill="black" opacity=".8" transform="translate(200 200) scale(0.1 -0.1)"><path d="M0.0 0.0 8.0 -28.0H662.0C676.0 -28.0 688.0 -23.0 690.0 -12.0C644.0 32.0 564.0 98.0 564.0 98.0L493.0 0.0H0.0ZM272.0 439.0V-16.0H413.0V396.0C441.0 400.0 449.0 410.0 450.0 425.0L272.0 439.0ZM127.0 222.0 135.0 194.0H642.0C656.0 194.0 667.0 200.0 670.0 209.0C624.0 253.0 546.0 318.0 546.0 318.0L476.0 222.0H127.0ZM98.0 408.0C94.0 272.0 69.0 127.0 32.0 25.0L45.0 18.0C135.0 90.0 200.0 202.0 242.0 346.0C265.0 348.0 277.0 357.0 280.0 371.0L98.0 408.0ZM345.0 -0.0V-367.0C345.0 -455.0 364.0 -480.0 462.0 -480.0H531.0C665.0 -480.0 707.0 -450.0 707.0 -398.0C707.0 -372.0 701.0 -356.0 670.0 -340.0L666.0 -195.0H656.0C635.0 -260.0 618.0 -313.0 606.0 -333.0C599.0 -344.0 595.0 -347.0 585.0 -348.0C576.0 -348.0 563.0 -348.0 548.0 -348.0H503.0C485.0 -348.0 482.0 -343.0 482.0 -329.0V-36.0C482.0 -27.0 482.0 -11.0 482.0 -0.0H345.0ZM138.0 -1.0C141.0 -195.0 121.0 -370.0 -41.0 -498.0L-36.0 -508.0C219.0 -415.0 283.0 -232.0 292.0 -1.0H138.0Z"/></g>
<g fill="red" transform="translate(300 200) scale(0.1 -0.1)"><path d="M0.0 0.0 8.0 -30.0H526.0C540.0 -30.0 549.0 -25.0 552.0 -14.0C523.0 14.0 476.0 50.0 476.0 50.0L435.0 0.0H0.0ZM236.0 432.0V-20.0H281.0V398.0C302.0 401.0 311.0 410.0 313.0 424.0L236.0 432.0ZM88.0 242.0V213.0H485.0C498.0 213.0 507.0 218.0 510.0 229.0C482.0 256.0 434.0 293.0 434.0 293.0L394.0 242.0H88.0ZM99.0 396.0C83.0 272.0 47.0 152.0 1.0 68.0L18.0 59.0C75.0 132.0 118.0 242.0 144.0 357.0C165.0 358.0 175.0 367.0 178.0 379.0L99.0 396.0ZM310.0 -17.0V-407.0C310.0 -440.0 320.0 -454.0 372.0 -454.0H435.0C536.0 -454.0 556.0 -445.0 556.0 -426.0C556.0 -416.0 553.0 -411.0 536.0 -405.0L533.0 -269.0H519.0C512.0 -323.0 502.0 -387.0 497.0 -401.0C494.0 -410.0 491.0 -412.0 485.0 -413.0C477.0 -413.0 458.0 -414.0 432.0 -414.0H380.0C356.0 -414.0 355.0 -410.0 355.0 -396.0V-46.0C355.0 -39.0 355.0 -29.0 355.0 -17.0H310.0ZM157.0 -21.0C151.0 -224.0 115.0 -350.0 -46.0 -457.0L-38.0 -473.0C146.0 -376.0 194.0 -247.0 206.0 -21.0H157.0Z"/></g>
<g fill="black" opacity=".8" transform="translate(300 200) scale(0.1 -0.1)"><path d="M0.0 0.0 9.0 -29.0H527.0C540.0 -29.0 549.0 -25.0 551.0 -14.0C523.0 14.0 476.0 50.0 476.0 50.0L434.0 0.0H0.0ZM236.0 431.0V-20.0H282.0V398.0C302.0 401.0 312.0 410.0 313.0 424.0L236.0 431.0ZM88.0 242.0V213.0H485.0C498.0 213.0 507.0 217.0 510.0 229.0C482.0 255.0 434.0 293.0 434.0 293.0L395.0 242.0H88.0ZM99.0 396.0C83.0 272.0 47.0 151.0 1.0 67.0L18.0 59.0C75.0 132.0 117.0 242.0 144.0 356.0C166.0 358.0 175.0 368.0 178.0 379.0L99.0 396.0ZM309.0 -17.0V-407.0C309.0 -440.0 320.0 -454.0 372.0 -454.0H435.0C535.0 -454.0 556.0 -445.0 556.0 -426.0C556.0 -416.0 553.0 -411.0 536.0 -404.0L533.0 -269.0H518.0C511.0 -323.0 502.0 -386.0 498.0 -400.0C494.0 -410.0 491.0 -412.0 485.0 -414.0C477.0 -413.0 459.0 -414.0 432.0 -414.0H380.0C356.0 -414.0 356.0 -410.0 356.0 -396.0V-46.0C356.0 -39.0 356.0 -29.0 356.0 -17.0H309.0ZM156.0 -21.0C151.0 -224.0 114.0 -350.0 -47.0 -457.0L-38.0 -473.0C147.0 -377.0 195.0 -247.0 207.0 -21.0H156.0Z"/></g>
<g fill="red" transform="translate(400 200) scale(0.1 -0.1)"><path d="M0.0 0.0 8.0 -28.0H537.0C552.0 -28.0 563.0 -23.0 565.0 -12.0C521.0 30.0 444.0 93.0 444.0 93.0L376.0 0.0H0.0ZM198.0 435.0V-15.0H334.0V392.0C361.0 397.0 368.0 407.0 370.0 421.0L198.0 435.0ZM84.0 223.0V195.0H512.0C526.0 195.0 537.0 200.0 540.0 211.0C501.0 251.0 432.0 312.0 432.0 312.0L371.0 223.0H84.0ZM48.0 384.0C44.0 264.0 24.0 134.0 -4.0 43.0L8.0 36.0C86.0 101.0 144.0 200.0 185.0 323.0C207.0 325.0 219.0 334.0 223.0 347.0L48.0 384.0ZM282.0 0.0V-380.0C282.0 -462.0 293.0 -489.0 379.0 -489.0H425.0C525.0 -489.0 565.0 -461.0 565.0 -412.0C565.0 -387.0 560.0 -371.0 531.0 -355.0L528.0 -222.0H518.0C500.0 -278.0 483.0 -332.0 474.0 -348.0C468.0 -358.0 464.0 -360.0 457.0 -360.0C452.0 -360.0 448.0 -360.0 442.0 -360.0H429.0C418.0 -360.0 416.0 -356.0 416.0 -344.0V-36.0C416.0 -27.0 416.0 -11.0 416.0 0.0H282.0ZM103.0 0.0C104.0 -185.0 80.0 -371.0 -48.0 -508.0L-41.0 -518.0C167.0 -408.0 232.0 -216.0 248.0 0.0H103.0Z"/></g>
<g fill="black" opacity=".8" transform="translate(400 200) scale(0.1 -0.1)"><path d="M0.0 0.0 8.0 -28.0H537.0C552.0 -28.0 563.0 -23.0 565.0 -12.0C521.0 30.0 444.0 93.0 444.0 93.0L377.0 0.0H0.0ZM198.0 434.0V-15.0H334.0V392.0C361.0 397.0 368.0 407.0 370.0 420.0L198.0 434.0ZM83.0 223.0V195.0H513.0C525.0 195.0 538.0 200.0 539.0 210.0C501.0 251.0 432.0 312.0 432.0 312.0L371.0 223.0H83.0ZM47.0 384.0C44.0 263.0 23.0 134.0 -5.0 43.0L7.0 36.0C86.0 100.0 144.0 200.0 185.0 324.0C207.0 325.0 219.0 333.0 223.0 347.0L47.0 384.0ZM282.0 -1.0V-380.0C282.0 -462.0 293.0 -488.0 379.0 -488.0H425.0C525.0 -488.0 566.0 -461.0 566.0 -412.0C566.0 -387.0 560.0 -371.0 531.0 -355.0L528.0 -222.0H518.0C500.0 -278.0 483.0 -331.0 473.0 -348.0C467.0 -358.0 464.0 -360.0 457.0 -360.0C452.0 -360.0 448.0 -360.0 442.0 -360.0H429.0C418.0 -360.0 416.0 -356.0 416.0 -345.0V-36.0C416.0 -27.0 416.0 -11.0 416.0 -1.0H282.0ZM103.0 -1.0C105.0 -186.0 80.0 -371.0 -48.0 -508.0L-41.0 -517.0C167.0 -408.0 233.0 -216.0 248.0 0.0L103.0 -1.0Z"/></g>
<g fill="red" transform="translate(500 200) scale(0.1 -0.1)"><path d="M0.0 0.0 7.0 -29.0H504.0C518.0 -29.0 527.0 -24.0 529.0 -13.0C499.0 15.0 450.0 54.0 450.0 54.0L407.0 0.0H0.0ZM232.0 239.0V-14.0H276.0V202.0C300.0 205.0 311.0 215.0 313.0 229.0L232.0 239.0ZM108.0 127.0 93.0 98.0H440.0C454.0 98.0 463.0 103.0 464.0 114.0C436.0 141.0 393.0 176.0 393.0 176.0L354.0 127.0H108.0ZM121.0 224.0C97.0 150.0 61.0 77.0 25.0 32.0L41.0 21.0C84.0 58.0 127.0 119.0 157.0 181.0C177.0 179.0 188.0 188.0 193.0 197.0L121.0 224.0ZM300.0 -5.0V-212.0C300.0 -243.0 309.0 -256.0 356.0 -256.0H412.0C501.0 -256.0 521.0 -246.0 521.0 -225.0C521.0 -216.0 518.0 -210.0 502.0 -205.0L499.0 -103.0H485.0C478.0 -145.0 470.0 -191.0 465.0 -204.0C463.0 -210.0 461.0 -211.0 454.0 -212.0C448.0 -212.0 431.0 -212.0 410.0 -212.0H366.0C347.0 -212.0 344.0 -211.0 344.0 -201.0V-31.0C344.0 -25.0 344.0 -15.0 344.0 -5.0H300.0ZM172.0 -2.0C164.0 -133.0 127.0 -202.0 -7.0 -259.0L-2.0 -275.0C151.0 -231.0 212.0 -158.0 225.0 -2.0H172.0Z"/></g>
<g fill="black" opacity=".8" transform="translate(500 200) scale(0.1 -0.1)"><path d="M0.0 0.0 8.0 -29.0H504.0C519.0 -29.0 527.0 -25.0 528.0 -13.0C498.0 15.0 450.0 54.0 450.0 54.0L406.0 0.0H0.0ZM233.0 238.0V-15.0H277.0V202.0C301.0 204.0 311.0 215.0 314.0 229.0L233.0 238.0ZM108.0 127.0 93.0 99.0H440.0C454.0 99.0 463.0 103.0 464.0 113.0C436.0 141.0 393.0 176.0 393.0 176.0L354.0 127.0H108.0ZM121.0 224.0C97.0 150.0 61.0 77.0 24.0 31.0L41.0 21.0C84.0 58.0 126.0 119.0 157.0 181.0C177.0 180.0 188.0 189.0 194.0 196.0L121.0 224.0ZM299.0 -4.0V-211.0C299.0 -243.0 308.0 -256.0 356.0 -256.0H413.0C500.0 -256.0 521.0 -246.0 521.0 -225.0C521.0 -215.0 517.0 -210.0 503.0 -205.0L499.0 -103.0H484.0C477.0 -146.0 470.0 -191.0 466.0 -204.0C463.0 -211.0 461.0 -211.0 454.0 -212.0C448.0 -212.0 432.0 -213.0 410.0 -213.0H367.0C347.0 -213.0 345.0 -210.0 345.0 -201.0V-31.0C345.0 -25.0 345.0 -14.0 345.0 -4.0H299.0ZM171.0 -3.0C165.0 -133.0 126.0 -202.0 -7.0 -260.0L-2.0 -274.0C151.0 -231.0 213.0 -157.0 226.0 -3.0H171.0Z"/></g>
<g fill="red" transform="translate(600 200) scale(0.1 -0.1)"><path d="M0.0 0.0 8.0 -28.0H492.0C506.0 -28.0 516.0 -23.0 519.0 -12.0C480.0 24.0 415.0 76.0 415.0 76.0L358.0 0.0H0.0ZM193.0 233.0V-20.0H310.0V195.0C334.0 199.0 341.0 208.0 342.0 220.0L193.0 233.0ZM94.0 111.0 66.0 83.0H461.0C475.0 83.0 485.0 88.0 488.0 99.0C448.0 134.0 386.0 180.0 386.0 180.0L330.0 111.0H94.0ZM75.0 228.0C67.0 149.0 45.0 69.0 17.0 15.0L30.0 7.0C90.0 40.0 142.0 95.0 179.0 167.0C201.0 167.0 213.0 176.0 217.0 189.0L75.0 228.0ZM261.0 -12.0V-177.0C261.0 -247.0 268.0 -270.0 344.0 -270.0H384.0C470.0 -270.0 505.0 -246.0 505.0 -202.0C505.0 -181.0 501.0 -166.0 476.0 -154.0L473.0 -72.0H462.0C447.0 -111.0 435.0 -142.0 428.0 -152.0C423.0 -158.0 418.0 -160.0 411.0 -160.0C407.0 -160.0 403.0 -160.0 398.0 -160.0H386.0C377.0 -160.0 375.0 -157.0 375.0 -147.0V-43.0C375.0 -36.0 375.0 -22.0 375.0 -12.0H261.0ZM118.0 -12.0C117.0 -127.0 98.0 -209.0 -9.0 -272.0L-5.0 -285.0C159.0 -243.0 238.0 -160.0 248.0 -13.0L118.0 -12.0Z"/></g>
<g fill="black" opacity=".8" transform="translate(600 200) scale(0.1 -0.1)"><path d="M0.0 0.0 8.0 -28.0H492.0C506.0 -28.0 517.0 -23.0 519.0 -13.0C481.0 24.0 416.0 76.0 416.0 76.0L358.0 0.0H0.0ZM193.0 232.0V-21.0H310.0V194.0C334.0 199.0 341.0 208.0 342.0 219.0L193.0 232.0ZM93.0 111.0 65.0 83.0H462.0C475.0 83.0 485.0 88.0 487.0 98.0C448.0 134.0 387.0 180.0 387.0 180.0L330.0 111.0H93.0ZM74.0 227.0C67.0 148.0 44.0 69.0 16.0 15.0L29.0 6.0C90.0 39.0 142.0 94.0 179.0 167.0C200.0 167.0 213.0 175.0 218.0 189.0L74.0 227.0ZM261.0 -13.0V-177.0C261.0 -247.0 269.0 -270.0 345.0 -270.0H383.0C470.0 -270.0 506.0 -245.0 506.0 -203.0C506.0 -181.0 501.0 -166.0 476.0 -153.0L472.0 -71.0H462.0C447.0 -111.0 435.0 -141.0 427.0 -151.0C422.0 -158.0 417.0 -160.0 411.0 -160.0C408.0 -160.0 403.0 -160.0 398.0 -160.0H386.0C377.0 -160.0 375.0 -157.0 375.0 -147.0V-43.0C375.0 -36.0 375.0 -21.0 375.0 -13.0H261.0ZM118.0 -13.0C118.0 -128.0 98.0 -209.0 -9.0 -271.0L-5.0 -284.0C159.0 -242.0 239.0 -160.0 249.0 -13.0H118.0Z"/></g>
</svg>
