<?xml version="1.0" encoding="UTF-8"?>
<svg width="1700" height="800" xmlns="http://www.w3.org/2000/svg">
<rect width="100%" height="100%" fill="white"/>
<g fill="green" transform="translate(100 100) scale(0.1 -0.1)"><path d="M-0.0 0.0C-10.0 -0.0 -47.0 -0.0 -47.0 -0.0V-21.0C-27.0 -24.0 -10.0 -26.0 3.0 -33.0C29.0 -48.0 36.0 -111.0 26.0 -216.0C25.0 -244.0 29.0 -265.0 44.0 -265.0C69.0 -265.0 81.0 -245.0 82.0 -204.0C86.0 -124.0 64.0 -81.0 64.0 -40.0C64.0 -18.0 74.0 10.0 89.0 40.0C115.0 90.0 286.0 376.0 372.0 527.0L356.0 536.0C49.0 52.0 49.0 52.0 26.0 18.0C14.0 1.0 11.0 0.0 0.0 0.0ZM-21.0 529.0 -29.0 518.0C29.0 486.0 113.0 424.0 144.0 379.0C204.0 355.0 216.0 471.0 -21.0 529.0Z"/></g>
<g fill="green" transform="translate(200 100) scale(0.1 -0.1)"><path d="M0.0 0.0C-10.0 0.0 -54.0 0.0 -54.0 0.0V-15.0C-32.0 -17.0 -8.0 -25.0 8.0 -35.0C36.0 -53.0 42.0 -140.0 21.0 -248.0C33.0 -287.0 62.0 -299.0 88.0 -299.0C146.0 -299.0 188.0 -263.0 190.0 -209.0C191.0 -130.0 147.0 -104.0 148.0 -48.0C147.0 -20.0 166.0 24.0 185.0 63.0C216.0 129.0 358.0 394.0 445.0 547.0L435.0 552.0C85.0 67.0 85.0 67.0 41.0 20.0C25.0 0.0 20.0 0.0 0.0 0.0ZM-21.0 534.0 -26.0 529.0C36.0 482.0 96.0 405.0 120.0 332.0C270.0 253.0 354.0 546.0 -21.0 534.0Z"/></g>
<g fill="green" transform="translate(300 100) scale(0.1 -0.1)"><path d="M-0.0 0.0C-6.0 0.0 -31.0 0.0 -31.0 0.0V-13.0C-19.0 -15.0 -7.0 -16.0 2.0 -20.0C20.0 -30.0 25.0 -69.0 19.0 -138.0C18.0 -156.0 20.0 -170.0 30.0 -170.0C45.0 -170.0 53.0 -158.0 53.0 -131.0C56.0 -78.0 41.0 -53.0 41.0 -26.0C42.0 -12.0 49.0 6.0 61.0 26.0C82.0 61.0 220.0 269.0 291.0 379.0L281.0 386.0C35.0 33.0 35.0 33.0 18.0 11.0C9.0 1.0 7.0 0.0 0.0 0.0ZM-16.0 332.0 -20.0 324.0C21.0 305.0 84.0 267.0 109.0 240.0C149.0 230.0 149.0 301.0 -16.0 332.0Z"/></g>
<g fill="green" transform="translate(400 100) scale(0.1 -0.1)"><path d="M0.0 0.0C-6.0 0.0 -38.0 0.0 -38.0 0.0V-9.0C-23.0 -10.0 -5.0 -16.0 6.0 -23.0C25.0 -35.0 30.0 -89.0 16.0 -161.0C24.0 -186.0 43.0 -194.0 60.0 -194.0C97.0 -194.0 124.0 -171.0 125.0 -135.0C125.0 -87.0 98.0 -71.0 100.0 -35.0C100.0 -16.0 116.0 15.0 132.0 43.0C159.0 90.0 281.0 285.0 356.0 400.0L351.0 403.0C64.0 47.0 64.0 47.0 29.0 13.0C17.0 0.0 14.0 0.0 0.0 0.0ZM-17.0 330.0 -19.0 327.0C28.0 298.0 77.0 248.0 99.0 200.0C204.0 157.0 242.0 360.0 -17.0 330.0Z"/></g>
<g fill="green" transform="translate(500 100) scale(0.1 -0.1)"><path d="M0.0 0.0C-10.0 -0.0 -36.0 0.0 -36.0 -0.0V-23.0C-18.0 -25.0 -7.0 -26.0 4.0 -34.0C23.0 -47.0 30.0 -114.0 19.0 -205.0C18.0 -230.0 23.0 -249.0 36.0 -249.0C61.0 -249.0 72.0 -228.0 73.0 -193.0C77.0 -120.0 56.0 -74.0 56.0 -36.0C56.0 -13.0 61.0 17.0 69.0 46.0C79.0 93.0 147.0 332.0 181.0 461.0L162.0 465.0C29.0 54.0 29.0 54.0 20.0 21.0C12.0 0.0 9.0 0.0 0.0 0.0ZM-20.0 603.0 -30.0 594.0C16.0 558.0 75.0 491.0 88.0 439.0C143.0 404.0 175.0 526.0 -20.0 603.0Z"/></g>
<g fill="green" transform="translate(600 100) scale(0.1 -0.1)"><path d="M0.0 0.0C-10.0 0.0 -41.0 0.0 -41.0 0.0V-16.0C-22.0 -17.0 -5.0 -22.0 8.0 -31.0C29.0 -45.0 32.0 -141.0 12.0 -228.0C23.0 -266.0 55.0 -274.0 79.0 -274.0C137.0 -274.0 175.0 -237.0 177.0 -189.0C179.0 -105.0 131.0 -81.0 129.0 -28.0C128.0 -2.0 133.0 35.0 137.0 72.0C147.0 137.0 190.0 386.0 217.0 521.0L204.0 523.0C45.0 59.0 45.0 59.0 28.0 21.0C19.0 0.0 15.0 0.0 0.0 0.0ZM-24.0 619.0 -31.0 614.0C13.0 567.0 49.0 495.0 56.0 429.0C175.0 339.0 285.0 580.0 -24.0 619.0Z"/></g>
<g fill="green" transform="translate(700 100) scale(0.1 -0.1)"><path d="M0.0 0.0C-11.0 0.0 -54.0 0.0 -54.0 0.0V-22.0C-32.0 -25.0 -11.0 -28.0 3.0 -37.0C31.0 -52.0 37.0 -124.0 27.0 -244.0C25.0 -279.0 31.0 -301.0 47.0 -301.0C74.0 -301.0 88.0 -279.0 89.0 -232.0C94.0 -145.0 72.0 -90.0 71.0 -47.0C72.0 -25.0 83.0 0.0 99.0 26.0C126.0 65.0 300.0 292.0 384.0 409.0L368.0 419.0C58.0 49.0 58.0 49.0 30.0 16.0C16.0 0.0 12.0 0.0 0.0 0.0ZM-7.0 543.0 -16.0 531.0C46.0 498.0 135.0 434.0 167.0 388.0C233.0 361.0 248.0 486.0 -7.0 543.0Z"/></g>
<g fill="green" transform="translate(800 100) scale(0.1 -0.1)"><path d="M0.0 0.0C-11.0 0.0 -58.0 0.0 -58.0 0.0V-17.0C-34.0 -19.0 -10.0 -28.0 7.0 -39.0C38.0 -58.0 44.0 -155.0 22.0 -280.0C33.0 -321.0 63.0 -338.0 90.0 -338.0C150.0 -338.0 199.0 -300.0 201.0 -239.0C204.0 -150.0 157.0 -119.0 156.0 -57.0C155.0 -30.0 175.0 14.0 195.0 48.0C226.0 99.0 363.0 300.0 447.0 419.0L436.0 424.0C96.0 63.0 96.0 63.0 47.0 19.0C28.0 0.0 22.0 0.0 0.0 0.0ZM-7.0 543.0 -12.0 538.0C47.0 488.0 103.0 408.0 125.0 332.0C286.0 238.0 396.0 549.0 -7.0 543.0Z"/></g>
<g fill="green" transform="translate(900 100) scale(0.1 -0.1)"><path d="M0.0 0.0C-13.0 0.0 -57.0 0.0 -57.0 -0.0V-26.0C-33.0 -30.0 -13.0 -32.0 2.0 -42.0C30.0 -58.0 38.0 -128.0 26.0 -246.0C26.0 -279.0 34.0 -301.0 52.0 -301.0C84.0 -301.0 100.0 -276.0 102.0 -230.0C106.0 -143.0 79.0 -94.0 79.0 -47.0C79.0 -21.0 90.0 13.0 104.0 47.0C127.0 98.0 278.0 374.0 354.0 516.0L333.0 525.0C54.0 60.0 54.0 60.0 29.0 22.0C16.0 0.0 13.0 0.0 0.0 0.0ZM-36.0 530.0 -50.0 520.0C2.0 466.0 71.0 375.0 93.0 310.0C158.0 265.0 196.0 405.0 -36.0 530.0Z"/></g>
<g fill="green" transform="translate(1000 100) scale(0.1 -0.1)"><path d="M0.0 0.0C-13.0 0.0 -63.0 0.0 -63.0 0.0V-22.0C-36.0 -24.0 -11.0 -32.0 7.0 -44.0C37.0 -63.0 44.0 -157.0 23.0 -279.0C34.0 -322.0 65.0 -339.0 94.0 -339.0C162.0 -339.0 206.0 -299.0 208.0 -239.0C211.0 -148.0 159.0 -113.0 160.0 -52.0C159.0 -20.0 177.0 30.0 195.0 72.0C223.0 142.0 355.0 423.0 435.0 584.0L418.0 590.0C88.0 77.0 88.0 77.0 45.0 25.0C28.0 0.0 22.0 0.0 0.0 0.0ZM-28.0 554.0 -39.0 549.0C6.0 484.0 48.0 390.0 59.0 304.0C201.0 198.0 329.0 481.0 -28.0 554.0Z"/></g>
<g fill="green" transform="translate(1100 100) scale(0.1 -0.1)"><path d="M-0.0 0.0C-11.0 0.0 -49.0 -0.0 -49.0 0.0V-22.0C-27.0 -25.0 -11.0 -27.0 3.0 -35.0C29.0 -50.0 36.0 -114.0 25.0 -220.0C25.0 -247.0 29.0 -270.0 46.0 -270.0C73.0 -270.0 84.0 -248.0 85.0 -207.0C89.0 -126.0 67.0 -83.0 67.0 -41.0C66.0 -17.0 77.0 14.0 91.0 49.0C118.0 104.0 295.0 424.0 382.0 592.0L365.0 601.0C49.0 57.0 49.0 57.0 25.0 20.0C13.0 2.0 11.0 0.0 0.0 0.0ZM-18.0 523.0 -27.0 511.0C29.0 481.0 106.0 422.0 136.0 377.0C197.0 351.0 213.0 470.0 -18.0 523.0Z"/></g>
<g fill="green" transform="translate(1200 100) scale(0.1 -0.1)"><path d="M0.0 0.0C-11.0 0.0 -55.0 0.0 -55.0 0.0V-16.0C-32.0 -18.0 -10.0 -26.0 7.0 -36.0C34.0 -53.0 40.0 -142.0 19.0 -251.0C31.0 -290.0 61.0 -303.0 87.0 -303.0C147.0 -303.0 191.0 -266.0 194.0 -212.0C195.0 -130.0 149.0 -103.0 149.0 -47.0C148.0 -20.0 165.0 22.0 182.0 59.0C209.0 119.0 338.0 359.0 415.0 496.0L403.0 501.0C83.0 64.0 83.0 64.0 42.0 20.0C26.0 0.0 20.0 0.0 0.0 0.0ZM-10.0 538.0 -16.0 534.0C43.0 483.0 97.0 403.0 116.0 326.0C270.0 235.0 374.0 535.0 -10.0 538.0Z"/></g>
<g fill="red" transform="translate(100 200) scale(0.1 -0.1)"><path d="M0.0 0.0C-11.0 0.0 -45.0 0.0 -45.0 0.0V-24.0C-24.0 -26.0 -10.0 -27.0 4.0 -36.0C24.0 -49.0 30.0 -118.0 19.0 -219.0C18.0 -248.0 24.0 -267.0 39.0 -267.0C65.0 -267.0 77.0 -245.0 79.0 -206.0C83.0 -131.0 63.0 -79.0 62.0 -41.0C62.0 -19.0 69.0 8.0 78.0 35.0C92.0 72.0 180.0 270.0 221.0 372.0L203.0 378.0C40.0 50.0 40.0 50.0 22.0 19.0C13.0 0.0 9.0 0.0 0.0 0.0ZM-17.0 527.0 -28.0 518.0C20.0 483.0 81.0 419.0 99.0 369.0C157.0 335.0 187.0 459.0 -17.0 527.0Z"/></g>
<g fill="black" opacity=".8" transform="translate(100 200) scale(0.1 -0.1)"><path d="M0.0 0.0C-11.0 0.0 -44.0 0.0 -44.0 0.0V-22.0C-24.0 -25.0 -9.0 -27.0 3.0 -36.0C24.0 -49.0 30.0 -117.0 19.0 -217.0C18.0 -247.0 25.0 -266.0 40.0 -266.0C66.0 -266.0 78.0 -244.0 79.0 -205.0C84.0 -130.0 63.0 -79.0 63.0 -41.0C63.0 -19.0 70.0 8.0 80.0 35.0C94.0 72.0 185.0 268.0 228.0 370.0L210.0 376.0C40.0 50.0 40.0 50.0 23.0 18.0C13.0 -0.0 10.0 0.0 0.0 0.0ZM-9.0 528.0 -20.0 518.0C25.0 482.0 82.0 417.0 97.0 367.0C155.0 331.0 188.0 452.0 -9.0 528.0Z"/></g>
<g fill="red" transform="translate(200 200) scale(0.1 -0.1)"><path d="M0.0 0.0C-11.0 0.0 -46.0 0.0 -46.0 0.0V-17.0C-25.0 -19.0 -9.0 -25.0 5.0 -34.0C29.0 -49.0 32.0 -142.0 13.0 -244.0C23.0 -281.0 52.0 -294.0 77.0 -294.0C134.0 -294.0 176.0 -260.0 178.0 -208.0C181.0 -121.0 134.0 -94.0 132.0 -38.0C131.0 -15.0 139.0 21.0 147.0 50.0C158.0 95.0 214.0 266.0 247.0 359.0L233.0 363.0C60.0 53.0 60.0 53.0 35.0 19.0C22.0 0.0 17.0 0.0 0.0 0.0ZM-17.0 541.0 -24.0 536.0C19.0 486.0 53.0 411.0 57.0 341.0C187.0 240.0 314.0 499.0 -17.0 541.0Z"/></g>
<g fill="black" opacity=".8" transform="translate(200 200) scale(0.1 -0.1)"><path d="M0.0 0.0C-11.0 0.0 -46.0 0.0 -46.0 0.0V-18.0C-25.0 -19.0 -8.0 -25.0 6.0 -35.0C29.0 -49.0 33.0 -143.0 14.0 -243.0C23.0 -280.0 52.0 -294.0 76.0 -294.0C133.0 -294.0 175.0 -258.0 177.0 -206.0C180.0 -121.0 133.0 -92.0 130.0 -38.0C130.0 -15.0 138.0 21.0 145.0 51.0C158.0 96.0 213.0 267.0 246.0 361.0L232.0 364.0C60.0 53.0 60.0 53.0 35.0 19.0C22.0 0.0 17.0 0.0 0.0 0.0ZM-6.0 544.0 -14.0 540.0C23.0 490.0 53.0 416.0 57.0 348.0C181.0 247.0 312.0 493.0 -6.0 544.0Z"/></g>
<g fill="red" transform="translate(300 200) scale(0.1 -0.1)"><path d="M0.0 0.0C-11.0 0.0 -53.0 0.0 -53.0 0.0V-23.0C-31.0 -26.0 -11.0 -28.0 4.0 -37.0C32.0 -53.0 39.0 -126.0 28.0 -247.0C27.0 -282.0 32.0 -304.0 48.0 -304.0C75.0 -304.0 90.0 -281.0 92.0 -234.0C96.0 -145.0 72.0 -91.0 72.0 -46.0C72.0 -24.0 83.0 3.0 98.0 29.0C125.0 72.0 291.0 311.0 375.0 437.0L358.0 447.0C57.0 51.0 57.0 51.0 30.0 18.0C17.0 0.0 13.0 0.0 0.0 0.0ZM-9.0 544.0 -20.0 534.0C37.0 493.0 117.0 418.0 145.0 366.0C207.0 334.0 229.0 457.0 -9.0 544.0Z"/></g>
<g fill="black" opacity=".8" transform="translate(300 200) scale(0.1 -0.1)"><path d="M0.0 0.0C-12.0 0.0 -55.0 0.0 -55.0 0.0V-23.0C-33.0 -27.0 -12.0 -29.0 3.0 -39.0C31.0 -54.0 37.0 -126.0 27.0 -246.0C25.0 -280.0 32.0 -302.0 49.0 -302.0C77.0 -302.0 92.0 -279.0 93.0 -232.0C98.0 -145.0 75.0 -92.0 74.0 -47.0C75.0 -24.0 86.0 3.0 101.0 32.0C127.0 73.0 293.0 311.0 374.0 433.0L356.0 443.0C57.0 52.0 57.0 52.0 30.0 18.0C16.0 -0.0 12.0 0.0 0.0 0.0ZM-15.0 537.0 -26.0 526.0C33.0 486.0 115.0 413.0 144.0 361.0C210.0 328.0 232.0 458.0 -15.0 537.0Z"/></g>
<g fill="red" transform="translate(400 200) scale(0.1 -0.1)"><path d="M0.0 0.0C-11.0 0.0 -58.0 0.0 -58.0 0.0V-17.0C-33.0 -20.0 -9.0 -28.0 8.0 -39.0C39.0 -59.0 45.0 -156.0 22.0 -282.0C34.0 -324.0 64.0 -340.0 92.0 -340.0C152.0 -340.0 200.0 -302.0 202.0 -241.0C204.0 -151.0 157.0 -121.0 156.0 -57.0C156.0 -28.0 176.0 18.0 196.0 54.0C227.0 111.0 361.0 329.0 446.0 460.0L435.0 466.0C94.0 67.0 94.0 67.0 46.0 20.0C27.0 0.0 22.0 0.0 0.0 0.0ZM-8.0 538.0 -15.0 533.0C34.0 479.0 82.0 399.0 99.0 322.0C247.0 225.0 363.0 512.0 -8.0 538.0Z"/></g>
<g fill="black" opacity=".8" transform="translate(400 200) scale(0.1 -0.1)"><path d="M0.0 0.0C-12.0 0.0 -60.0 0.0 -60.0 0.0V-19.0C-35.0 -21.0 -10.0 -29.0 7.0 -41.0C38.0 -60.0 44.0 -156.0 22.0 -281.0C33.0 -322.0 63.0 -340.0 91.0 -340.0C153.0 -340.0 201.0 -301.0 203.0 -240.0C206.0 -150.0 158.0 -118.0 157.0 -56.0C156.0 -27.0 176.0 18.0 195.0 54.0C225.0 110.0 360.0 332.0 442.0 461.0L429.0 467.0C94.0 67.0 94.0 67.0 47.0 21.0C28.0 0.0 22.0 0.0 0.0 0.0ZM-13.0 544.0 -20.0 539.0C34.0 484.0 85.0 400.0 104.0 321.0C259.0 223.0 376.0 524.0 -13.0 544.0Z"/></g>
<g fill="red" transform="translate(500 200) scale(0.1 -0.1)"><path d="M0.0 0.0C-11.0 0.0 -46.0 0.0 -46.0 0.0V-22.0C-24.0 -24.0 -10.0 -27.0 3.0 -36.0C24.0 -49.0 30.0 -117.0 19.0 -216.0C19.0 -245.0 25.0 -265.0 41.0 -265.0C68.0 -265.0 80.0 -242.0 82.0 -203.0C86.0 -128.0 65.0 -79.0 65.0 -40.0C64.0 -16.0 72.0 11.0 81.0 40.0C97.0 81.0 198.0 305.0 246.0 421.0L227.0 427.0C41.0 53.0 41.0 53.0 23.0 20.0C13.0 0.0 10.0 0.0 0.0 0.0ZM-16.0 519.0 -27.0 510.0C20.0 474.0 81.0 410.0 99.0 361.0C157.0 326.0 187.0 451.0 -16.0 519.0Z"/></g>
<g fill="black" opacity=".8" transform="translate(500 200) scale(0.1 -0.1)"><path d="M0.0 0.0C-11.0 0.0 -44.0 0.0 -44.0 0.0V-23.0C-24.0 -25.0 -9.0 -27.0 3.0 -36.0C24.0 -49.0 31.0 -115.0 20.0 -215.0C19.0 -243.0 26.0 -263.0 41.0 -263.0C67.0 -263.0 79.0 -241.0 81.0 -202.0C85.0 -127.0 63.0 -79.0 63.0 -40.0C63.0 -17.0 71.0 11.0 81.0 40.0C96.0 82.0 194.0 306.0 242.0 422.0L223.0 428.0C39.0 52.0 39.0 52.0 23.0 19.0C13.0 0.0 10.0 0.0 0.0 0.0ZM-16.0 529.0 -27.0 520.0C19.0 482.0 77.0 414.0 93.0 362.0C150.0 326.0 182.0 448.0 -16.0 529.0Z"/></g>
<g fill="red" transform="translate(600 200) scale(0.1 -0.1)"><path d="M0.0 0.0C-11.0 0.0 -47.0 0.0 -47.0 0.0V-18.0C-25.0 -20.0 -8.0 -25.0 6.0 -34.0C30.0 -50.0 34.0 -142.0 14.0 -244.0C24.0 -281.0 52.0 -294.0 77.0 -294.0C133.0 -294.0 172.0 -260.0 174.0 -208.0C177.0 -122.0 131.0 -92.0 129.0 -38.0C128.0 -13.0 136.0 24.0 144.0 56.0C157.0 108.0 224.0 316.0 262.0 429.0L247.0 433.0C58.0 57.0 58.0 57.0 33.0 20.0C21.0 0.0 17.0 0.0 0.0 0.0ZM-12.0 551.0 -20.0 546.0C19.0 494.0 54.0 419.0 62.0 349.0C187.0 251.0 309.0 499.0 -12.0 551.0Z"/></g>
<g fill="black" opacity=".8" transform="translate(600 200) scale(0.1 -0.1)"><path d="M0.0 0.0C-11.0 0.0 -47.0 0.0 -47.0 0.0V-18.0C-26.0 -19.0 -8.0 -25.0 6.0 -35.0C29.0 -49.0 34.0 -141.0 15.0 -241.0C24.0 -278.0 54.0 -291.0 78.0 -291.0C136.0 -291.0 177.0 -255.0 179.0 -204.0C182.0 -120.0 135.0 -92.0 133.0 -38.0C132.0 -13.0 141.0 25.0 150.0 57.0C164.0 110.0 230.0 311.0 270.0 423.0L256.0 426.0C61.0 57.0 61.0 57.0 35.0 20.0C22.0 0.0 17.0 0.0 0.0 0.0ZM-12.0 548.0 -20.0 544.0C19.0 492.0 52.0 416.0 57.0 346.0C182.0 248.0 306.0 497.0 -12.0 548.0Z"/></g>
<g fill="red" transform="translate(700 200) scale(0.1 -0.1)"><path d="M0.0 0.0C-11.0 0.0 -45.0 0.0 -45.0 0.0V-24.0C-24.0 -26.0 -10.0 -28.0 3.0 -36.0C25.0 -50.0 32.0 -117.0 21.0 -219.0C20.0 -248.0 26.0 -267.0 40.0 -267.0C66.0 -267.0 79.0 -245.0 81.0 -206.0C85.0 -130.0 63.0 -80.0 63.0 -41.0C63.0 -18.0 70.0 10.0 81.0 38.0C97.0 80.0 197.0 301.0 245.0 418.0L226.0 424.0C40.0 52.0 40.0 52.0 24.0 20.0C14.0 0.0 10.0 0.0 0.0 0.0ZM-14.0 576.0 -25.0 567.0C23.0 530.0 86.0 463.0 102.0 411.0C160.0 376.0 192.0 501.0 -14.0 576.0Z"/></g>
<g fill="black" opacity=".8" transform="translate(700 200) scale(0.1 -0.1)"><path d="M0.0 0.0C-11.0 0.0 -44.0 0.0 -44.0 0.0V-23.0C-24.0 -26.0 -9.0 -27.0 4.0 -37.0C25.0 -50.0 32.0 -120.0 21.0 -223.0C20.0 -252.0 26.0 -272.0 40.0 -272.0C67.0 -272.0 79.0 -250.0 80.0 -210.0C85.0 -132.0 64.0 -81.0 63.0 -41.0C63.0 -18.0 71.0 10.0 81.0 38.0C95.0 80.0 192.0 301.0 238.0 418.0L220.0 424.0C39.0 52.0 39.0 52.0 24.0 19.0C13.0 -0.0 10.0 0.0 0.0 0.0ZM-13.0 574.0 -24.0 564.0C26.0 527.0 90.0 460.0 107.0 408.0C166.0 373.0 197.0 499.0 -13.0 574.0Z"/></g>
<g fill="red" transform="translate(800 200) scale(0.1 -0.1)"><path d="M0.0 0.0C-11.0 0.0 -48.0 0.0 -48.0 0.0V-17.0C-27.0 -19.0 -9.0 -25.0 6.0 -34.0C30.0 -50.0 34.0 -143.0 14.0 -244.0C25.0 -282.0 56.0 -294.0 83.0 -294.0C143.0 -294.0 186.0 -258.0 188.0 -206.0C191.0 -120.0 142.0 -94.0 140.0 -38.0C139.0 -13.0 148.0 25.0 157.0 58.0C171.0 111.0 241.0 314.0 281.0 426.0L268.0 429.0C64.0 58.0 64.0 58.0 36.0 20.0C23.0 0.0 18.0 0.0 0.0 0.0ZM-26.0 597.0 -34.0 592.0C10.0 538.0 48.0 460.0 55.0 386.0C187.0 285.0 311.0 547.0 -26.0 597.0Z"/></g>
<g fill="black" opacity=".8" transform="translate(800 200) scale(0.1 -0.1)"><path d="M0.0 0.0C-11.0 0.0 -47.0 0.0 -47.0 0.0V-17.0C-26.0 -19.0 -8.0 -25.0 7.0 -35.0C31.0 -50.0 35.0 -148.0 15.0 -250.0C25.0 -289.0 56.0 -301.0 81.0 -301.0C140.0 -301.0 183.0 -264.0 185.0 -211.0C188.0 -123.0 140.0 -95.0 137.0 -38.0C136.0 -13.0 145.0 26.0 153.0 59.0C168.0 114.0 231.0 322.0 270.0 437.0L256.0 440.0C61.0 58.0 61.0 58.0 35.0 20.0C22.0 0.0 17.0 0.0 0.0 0.0ZM-13.0 588.0 -20.0 583.0C24.0 533.0 60.0 457.0 68.0 387.0C199.0 288.0 323.0 548.0 -13.0 588.0Z"/></g>
<g fill="red" transform="translate(900 200) scale(0.1 -0.1)"><path d="M0.0 0.0C-11.0 0.0 -46.0 0.0 -46.0 0.0V-24.0C-24.0 -26.0 -10.0 -27.0 3.0 -36.0C25.0 -50.0 31.0 -118.0 20.0 -219.0C19.0 -247.0 25.0 -267.0 41.0 -267.0C67.0 -267.0 79.0 -245.0 81.0 -206.0C84.0 -129.0 64.0 -80.0 63.0 -41.0C63.0 -17.0 71.0 11.0 80.0 40.0C97.0 84.0 201.0 319.0 251.0 441.0L232.0 447.0C40.0 53.0 40.0 53.0 22.0 20.0C13.0 1.0 9.0 0.0 0.0 0.0ZM-17.0 527.0 -28.0 518.0C20.0 483.0 81.0 419.0 99.0 369.0C157.0 335.0 187.0 459.0 -17.0 527.0Z"/></g>
<g fill="black" opacity=".8" transform="translate(900 200) scale(0.1 -0.1)"><path d="M0.0 0.0C-11.0 0.0 -45.0 0.0 -45.0 0.0V-23.0C-24.0 -25.0 -10.0 -27.0 3.0 -37.0C25.0 -49.0 31.0 -117.0 20.0 -218.0C19.0 -246.0 25.0 -267.0 41.0 -267.0C68.0 -267.0 80.0 -244.0 81.0 -205.0C85.0 -129.0 64.0 -80.0 64.0 -41.0C64.0 -17.0 72.0 12.0 81.0 42.0C97.0 85.0 201.0 319.0 249.0 441.0L231.0 447.0C40.0 53.0 40.0 53.0 22.0 20.0C12.0 1.0 10.0 0.0 0.0 0.0ZM-10.0 531.0 -21.0 521.0C25.0 487.0 82.0 424.0 99.0 375.0C156.0 340.0 188.0 462.0 -10.0 531.0Z"/></g>
<g fill="red" transform="translate(1000 200) scale(0.1 -0.1)"><path d="M0.0 0.0C-11.0 0.0 -47.0 0.0 -47.0 0.0V-17.0C-25.0 -19.0 -9.0 -25.0 5.0 -34.0C29.0 -49.0 33.0 -142.0 13.0 -244.0C23.0 -281.0 52.0 -294.0 78.0 -294.0C135.0 -294.0 176.0 -260.0 178.0 -208.0C181.0 -121.0 134.0 -93.0 132.0 -38.0C131.0 -14.0 139.0 22.0 147.0 51.0C159.0 97.0 218.0 275.0 251.0 371.0L237.0 375.0C61.0 54.0 61.0 54.0 35.0 19.0C22.0 0.0 17.0 0.0 0.0 0.0ZM-5.0 554.0 -12.0 549.0C31.0 499.0 65.0 424.0 69.0 354.0C199.0 253.0 326.0 512.0 -5.0 554.0Z"/></g>
<g fill="black" opacity=".8" transform="translate(1000 200) scale(0.1 -0.1)"><path d="M0.0 0.0C-11.0 0.0 -47.0 0.0 -47.0 0.0V-18.0C-26.0 -19.0 -9.0 -25.0 6.0 -35.0C29.0 -49.0 33.0 -143.0 13.0 -244.0C23.0 -281.0 53.0 -294.0 77.0 -294.0C135.0 -294.0 178.0 -258.0 181.0 -206.0C184.0 -120.0 136.0 -92.0 133.0 -38.0C132.0 -14.0 140.0 21.0 148.0 52.0C161.0 98.0 219.0 275.0 253.0 372.0L238.0 375.0C61.0 54.0 61.0 54.0 36.0 19.0C23.0 0.0 17.0 0.0 0.0 0.0ZM-3.0 552.0 -11.0 548.0C29.0 496.0 59.0 421.0 64.0 350.0C194.0 246.0 327.0 503.0 -3.0 552.0Z"/></g>
<g fill="red" transform="translate(1100 200) scale(0.1 -0.1)"><path d="M0.0 0.0C-11.0 0.0 -43.0 0.0 -43.0 0.0V-23.0C-23.0 -25.0 -9.0 -27.0 4.0 -36.0C24.0 -49.0 31.0 -118.0 19.0 -217.0C19.0 -246.0 25.0 -265.0 40.0 -265.0C67.0 -265.0 80.0 -242.0 82.0 -204.0C86.0 -129.0 64.0 -79.0 64.0 -40.0C64.0 -17.0 70.0 11.0 79.0 39.0C93.0 81.0 178.0 295.0 219.0 406.0L200.0 412.0C38.0 52.0 38.0 52.0 23.0 20.0C14.0 0.0 10.0 0.0 0.0 0.0ZM-14.0 552.0 -25.0 543.0C24.0 504.0 88.0 435.0 106.0 382.0C165.0 344.0 196.0 472.0 -14.0 552.0Z"/></g>
<g fill="black" opacity=".8" transform="translate(1100 200) scale(0.1 -0.1)"><path d="M0.0 0.0C-11.0 0.0 -44.0 0.0 -44.0 0.0V-23.0C-24.0 -25.0 -9.0 -27.0 3.0 -37.0C25.0 -49.0 31.0 -118.0 20.0 -220.0C19.0 -249.0 26.0 -269.0 40.0 -269.0C67.0 -269.0 79.0 -246.0 80.0 -207.0C85.0 -131.0 64.0 -80.0 63.0 -41.0C64.0 -18.0 71.0 10.0 81.0 38.0C96.0 78.0 192.0 291.0 237.0 402.0L218.0 408.0C40.0 52.0 40.0 52.0 23.0 19.0C13.0 -0.0 10.0 0.0 0.0 0.0ZM-12.0 544.0 -23.0 534.0C24.0 497.0 84.0 431.0 100.0 380.0C158.0 344.0 190.0 467.0 -12.0 544.0Z"/></g>
<g fill="red" transform="translate(1200 200) scale(0.1 -0.1)"><path d="M0.0 0.0C-11.0 0.0 -47.0 0.0 -47.0 0.0V-17.0C-26.0 -19.0 -9.0 -25.0 6.0 -34.0C30.0 -50.0 34.0 -145.0 14.0 -249.0C24.0 -287.0 54.0 -300.0 79.0 -300.0C136.0 -300.0 178.0 -265.0 180.0 -212.0C183.0 -124.0 136.0 -96.0 134.0 -39.0C133.0 -15.0 141.0 22.0 150.0 53.0C163.0 102.0 228.0 292.0 265.0 395.0L251.0 399.0C62.0 56.0 62.0 56.0 35.0 19.0C22.0 0.0 17.0 0.0 0.0 0.0ZM-11.0 560.0 -19.0 555.0C22.0 499.0 60.0 419.0 69.0 345.0C197.0 245.0 319.0 499.0 -11.0 560.0Z"/></g>
<g fill="black" opacity=".8" transform="translate(1200 200) scale(0.1 -0.1)"><path d="M0.0 0.0C-11.0 0.0 -47.0 0.0 -47.0 0.0V-18.0C-26.0 -19.0 -8.0 -25.0 6.0 -35.0C30.0 -49.0 34.0 -145.0 14.0 -246.0C24.0 -284.0 54.0 -297.0 78.0 -297.0C136.0 -297.0 179.0 -260.0 181.0 -208.0C184.0 -122.0 136.0 -93.0 134.0 -38.0C133.0 -14.0 141.0 23.0 149.0 55.0C163.0 104.0 223.0 292.0 259.0 397.0L245.0 399.0C61.0 56.0 61.0 56.0 35.0 20.0C22.0 0.0 17.0 0.0 0.0 0.0ZM-9.0 560.0 -16.0 556.0C23.0 505.0 55.0 430.0 61.0 360.0C189.0 260.0 317.0 512.0 -9.0 560.0Z"/></g>
<g fill="red" transform="translate(1300 200) scale(0.1 -0.1)"><path d="M0.0 0.0C-11.0 0.0 -45.0 0.0 -45.0 0.0V-24.0C-24.0 -26.0 -10.0 -28.0 3.0 -36.0C26.0 -50.0 33.0 -118.0 21.0 -219.0C21.0 -247.0 26.0 -267.0 41.0 -267.0C68.0 -267.0 80.0 -245.0 82.0 -206.0C86.0 -129.0 64.0 -80.0 64.0 -40.0C63.0 -17.0 71.0 13.0 81.0 43.0C99.0 90.0 208.0 340.0 260.0 471.0L241.0 477.0C40.0 55.0 40.0 55.0 23.0 21.0C14.0 1.0 10.0 0.0 0.0 0.0ZM-16.0 578.0 -27.0 569.0C20.0 532.0 81.0 464.0 96.0 411.0C154.0 374.0 187.0 500.0 -16.0 578.0Z"/></g>
<g fill="black" opacity=".8" transform="translate(1300 200) scale(0.1 -0.1)"><path d="M0.0 0.0C-11.0 0.0 -44.0 0.0 -44.0 0.0V-23.0C-24.0 -26.0 -9.0 -27.0 3.0 -36.0C26.0 -50.0 32.0 -119.0 21.0 -222.0C21.0 -250.0 26.0 -271.0 41.0 -271.0C69.0 -271.0 80.0 -248.0 81.0 -209.0C86.0 -130.0 64.0 -81.0 64.0 -41.0C64.0 -17.0 72.0 13.0 82.0 43.0C99.0 89.0 209.0 338.0 262.0 470.0L243.0 476.0C40.0 55.0 40.0 55.0 23.0 20.0C13.0 1.0 10.0 0.0 0.0 0.0ZM-14.0 566.0 -24.0 556.0C26.0 521.0 90.0 456.0 109.0 406.0C168.0 372.0 198.0 496.0 -14.0 566.0Z"/></g>
<g fill="red" transform="translate(1400 200) scale(0.1 -0.1)"><path d="M0.0 0.0C-11.0 0.0 -48.0 0.0 -48.0 0.0V-17.0C-27.0 -19.0 -9.0 -25.0 6.0 -34.0C31.0 -51.0 35.0 -146.0 14.0 -249.0C26.0 -288.0 57.0 -300.0 84.0 -300.0C144.0 -300.0 187.0 -264.0 189.0 -210.0C192.0 -123.0 143.0 -97.0 141.0 -39.0C140.0 -14.0 149.0 25.0 159.0 59.0C174.0 113.0 247.0 323.0 290.0 438.0L277.0 442.0C65.0 59.0 65.0 59.0 36.0 20.0C23.0 0.0 18.0 0.0 0.0 0.0ZM-25.0 577.0 -32.0 571.0C19.0 521.0 66.0 441.0 80.0 367.0C218.0 274.0 328.0 548.0 -25.0 577.0Z"/></g>
<g fill="black" opacity=".8" transform="translate(1400 200) scale(0.1 -0.1)"><path d="M0.0 0.0C-11.0 0.0 -48.0 0.0 -48.0 0.0V-17.0C-27.0 -19.0 -8.0 -25.0 7.0 -35.0C31.0 -50.0 35.0 -147.0 15.0 -249.0C25.0 -288.0 57.0 -300.0 82.0 -300.0C142.0 -300.0 185.0 -262.0 187.0 -209.0C190.0 -122.0 141.0 -95.0 139.0 -39.0C138.0 -13.0 147.0 25.0 156.0 60.0C172.0 115.0 243.0 328.0 285.0 445.0L271.0 448.0C63.0 59.0 63.0 59.0 36.0 20.0C23.0 0.0 18.0 0.0 0.0 0.0ZM-11.0 583.0 -18.0 579.0C28.0 528.0 66.0 451.0 75.0 378.0C210.0 279.0 334.0 547.0 -11.0 583.0Z"/></g>
<g fill="red" transform="translate(1500 200) scale(0.1 -0.1)"><path d="M0.0 0.0C-11.0 0.0 -46.0 0.0 -46.0 0.0V-23.0C-25.0 -25.0 -10.0 -27.0 3.0 -36.0C25.0 -50.0 31.0 -117.0 20.0 -218.0C20.0 -247.0 25.0 -267.0 41.0 -267.0C67.0 -267.0 79.0 -245.0 81.0 -206.0C85.0 -129.0 64.0 -80.0 64.0 -41.0C63.0 -18.0 71.0 11.0 81.0 41.0C98.0 85.0 208.0 323.0 262.0 447.0L242.0 453.0C41.0 53.0 41.0 53.0 23.0 20.0C13.0 1.0 10.0 0.0 0.0 0.0ZM-17.0 534.0 -28.0 525.0C20.0 490.0 81.0 426.0 99.0 376.0C157.0 342.0 187.0 466.0 -17.0 534.0Z"/></g>
<g fill="black" opacity=".8" transform="translate(1500 200) scale(0.1 -0.1)"><path d="M0.0 0.0C-11.0 0.0 -45.0 0.0 -45.0 0.0V-23.0C-24.0 -25.0 -10.0 -27.0 3.0 -36.0C25.0 -49.0 31.0 -116.0 20.0 -217.0C20.0 -245.0 26.0 -266.0 41.0 -266.0C68.0 -266.0 80.0 -243.0 81.0 -204.0C85.0 -128.0 64.0 -80.0 64.0 -41.0C63.0 -17.0 72.0 12.0 81.0 42.0C98.0 85.0 206.0 323.0 257.0 447.0L239.0 453.0C40.0 53.0 40.0 53.0 23.0 20.0C12.0 1.0 10.0 0.0 0.0 0.0ZM-12.0 531.0 -23.0 520.0C24.0 486.0 83.0 423.0 100.0 373.0C158.0 339.0 189.0 460.0 -12.0 531.0Z"/></g>
<g fill="red" transform="translate(1600 200) scale(0.1 -0.1)"><path d="M0.0 0.0C-11.0 0.0 -47.0 0.0 -47.0 0.0V-17.0C-26.0 -19.0 -9.0 -25.0 5.0 -34.0C30.0 -50.0 33.0 -142.0 14.0 -244.0C24.0 -281.0 53.0 -294.0 78.0 -294.0C136.0 -294.0 177.0 -260.0 179.0 -208.0C182.0 -121.0 135.0 -94.0 133.0 -39.0C132.0 -14.0 140.0 22.0 149.0 53.0C162.0 101.0 228.0 290.0 265.0 392.0L251.0 396.0C62.0 56.0 62.0 56.0 35.0 19.0C22.0 0.0 17.0 0.0 0.0 0.0ZM-13.0 544.0 -20.0 539.0C24.0 490.0 61.0 415.0 66.0 344.0C198.0 245.0 321.0 507.0 -13.0 544.0Z"/></g>
<g fill="black" opacity=".8" transform="translate(1600 200) scale(0.1 -0.1)"><path d="M0.0 0.0C-11.0 0.0 -48.0 0.0 -48.0 0.0V-18.0C-26.0 -19.0 -9.0 -25.0 6.0 -35.0C29.0 -49.0 33.0 -142.0 14.0 -243.0C24.0 -281.0 54.0 -294.0 78.0 -294.0C136.0 -294.0 178.0 -257.0 181.0 -206.0C184.0 -121.0 137.0 -93.0 134.0 -39.0C133.0 -14.0 142.0 22.0 151.0 54.0C165.0 102.0 230.0 289.0 268.0 393.0L254.0 396.0C62.0 55.0 62.0 55.0 36.0 19.0C23.0 0.0 17.0 0.0 0.0 0.0ZM-6.0 550.0 -13.0 546.0C28.0 495.0 61.0 419.0 67.0 348.0C197.0 247.0 326.0 505.0 -6.0 550.0Z"/></g>
<g fill="red" transform="translate(100 300) scale(0.1 -0.1)"><path d="M0.0 0.0C-11.0 0.0 -44.0 0.0 -44.0 0.0V-24.0C-24.0 -26.0 -10.0 -28.0 4.0 -36.0C26.0 -50.0 33.0 -118.0 21.0 -219.0C21.0 -247.0 26.0 -267.0 41.0 -267.0C68.0 -267.0 80.0 -244.0 82.0 -206.0C86.0 -128.0 64.0 -80.0 64.0 -40.0C63.0 -16.0 71.0 13.0 81.0 44.0C98.0 91.0 205.0 344.0 257.0 477.0L237.0 483.0C40.0 55.0 40.0 55.0 23.0 21.0C14.0 1.0 10.0 0.0 0.0 0.0ZM-29.0 577.0 -40.0 567.0C16.0 530.0 89.0 462.0 112.0 410.0C174.0 376.0 198.0 506.0 -29.0 577.0Z"/></g>
<g fill="black" opacity=".8" transform="translate(100 300) scale(0.1 -0.1)"><path d="M0.0 0.0C-11.0 0.0 -43.0 0.0 -43.0 0.0V-23.0C-23.0 -26.0 -9.0 -27.0 4.0 -36.0C26.0 -50.0 32.0 -119.0 21.0 -220.0C20.0 -248.0 26.0 -268.0 41.0 -268.0C68.0 -268.0 80.0 -246.0 81.0 -207.0C85.0 -129.0 63.0 -81.0 63.0 -40.0C63.0 -16.0 70.0 14.0 80.0 45.0C96.0 92.0 200.0 345.0 250.0 479.0L231.0 485.0C38.0 55.0 38.0 55.0 23.0 21.0C13.0 0.0 10.0 0.0 0.0 0.0ZM-16.0 577.0 -27.0 567.0C22.0 531.0 86.0 464.0 104.0 413.0C163.0 378.0 193.0 503.0 -16.0 577.0Z"/></g>
<g fill="red" transform="translate(200 300) scale(0.1 -0.1)"><path d="M0.0 0.0C-11.0 0.0 -47.0 0.0 -47.0 0.0V-17.0C-26.0 -19.0 -8.0 -25.0 7.0 -34.0C31.0 -50.0 34.0 -145.0 14.0 -244.0C25.0 -283.0 57.0 -294.0 83.0 -294.0C144.0 -294.0 186.0 -257.0 188.0 -205.0C190.0 -118.0 141.0 -92.0 139.0 -36.0C138.0 -10.0 146.0 29.0 155.0 64.0C168.0 122.0 233.0 348.0 272.0 471.0L258.0 475.0C60.0 60.0 60.0 60.0 34.0 21.0C22.0 0.0 17.0 0.0 0.0 0.0ZM-23.0 598.0 -30.0 592.0C19.0 541.0 61.0 461.0 70.0 386.0C206.0 286.0 325.0 559.0 -23.0 598.0Z"/></g>
<g fill="black" opacity=".8" transform="translate(200 300) scale(0.1 -0.1)"><path d="M0.0 0.0C-11.0 0.0 -47.0 0.0 -47.0 0.0V-17.0C-26.0 -19.0 -8.0 -25.0 7.0 -35.0C31.0 -50.0 35.0 -147.0 14.0 -246.0C25.0 -285.0 57.0 -297.0 82.0 -297.0C142.0 -297.0 185.0 -259.0 187.0 -207.0C189.0 -120.0 140.0 -93.0 138.0 -37.0C137.0 -11.0 146.0 28.0 155.0 64.0C169.0 122.0 237.0 348.0 278.0 472.0L264.0 476.0C60.0 60.0 60.0 60.0 35.0 21.0C22.0 0.0 17.0 0.0 0.0 0.0ZM-15.0 594.0 -22.0 590.0C24.0 539.0 63.0 462.0 71.0 390.0C204.0 292.0 325.0 556.0 -15.0 594.0Z"/></g>
<g fill="red" transform="translate(300 300) scale(0.1 -0.1)"><path d="M0.0 0.0C-11.0 0.0 -44.0 0.0 -44.0 0.0V-24.0C-23.0 -26.0 -10.0 -28.0 4.0 -36.0C26.0 -50.0 33.0 -119.0 21.0 -219.0C21.0 -246.0 26.0 -267.0 42.0 -267.0C68.0 -267.0 81.0 -244.0 83.0 -206.0C86.0 -128.0 64.0 -81.0 64.0 -40.0C63.0 -15.0 71.0 16.0 81.0 48.0C97.0 99.0 203.0 367.0 255.0 510.0L235.0 515.0C38.0 57.0 38.0 57.0 22.0 22.0C13.0 1.0 10.0 0.0 0.0 0.0ZM-16.0 577.0 -27.0 568.0C22.0 531.0 86.0 464.0 104.0 413.0C163.0 378.0 193.0 504.0 -16.0 577.0Z"/></g>
<g fill="black" opacity=".8" transform="translate(300 300) scale(0.1 -0.1)"><path d="M0.0 0.0C-11.0 0.0 -43.0 0.0 -43.0 0.0V-24.0C-22.0 -26.0 -9.0 -27.0 4.0 -36.0C25.0 -50.0 32.0 -119.0 21.0 -219.0C20.0 -246.0 26.0 -267.0 41.0 -267.0C69.0 -267.0 80.0 -244.0 81.0 -206.0C85.0 -128.0 63.0 -80.0 63.0 -40.0C63.0 -15.0 70.0 16.0 80.0 49.0C96.0 98.0 204.0 368.0 255.0 510.0L236.0 516.0C38.0 57.0 38.0 57.0 22.0 21.0C12.0 1.0 10.0 0.0 0.0 0.0ZM-15.0 575.0 -26.0 565.0C23.0 531.0 85.0 466.0 103.0 416.0C162.0 381.0 192.0 506.0 -15.0 575.0Z"/></g>
<g fill="red" transform="translate(400 300) scale(0.1 -0.1)"><path d="M0.0 0.0C-11.0 0.0 -46.0 0.0 -46.0 0.0V-17.0C-25.0 -19.0 -8.0 -25.0 7.0 -34.0C31.0 -50.0 34.0 -145.0 13.0 -244.0C25.0 -283.0 57.0 -294.0 83.0 -294.0C144.0 -294.0 186.0 -257.0 188.0 -205.0C190.0 -118.0 141.0 -92.0 139.0 -36.0C138.0 -10.0 145.0 29.0 154.0 64.0C166.0 121.0 228.0 342.0 265.0 462.0L251.0 466.0C59.0 60.0 59.0 60.0 34.0 20.0C22.0 0.0 17.0 0.0 0.0 0.0ZM-8.0 597.0 -15.0 591.0C31.0 539.0 72.0 461.0 80.0 387.0C214.0 287.0 335.0 554.0 -8.0 597.0Z"/></g>
<g fill="black" opacity=".8" transform="translate(400 300) scale(0.1 -0.1)"><path d="M0.0 0.0C-11.0 0.0 -47.0 0.0 -47.0 0.0V-17.0C-26.0 -19.0 -8.0 -25.0 7.0 -34.0C30.0 -49.0 34.0 -146.0 14.0 -245.0C25.0 -284.0 57.0 -295.0 82.0 -295.0C142.0 -295.0 185.0 -257.0 188.0 -206.0C190.0 -118.0 140.0 -91.0 138.0 -36.0C137.0 -10.0 145.0 28.0 153.0 63.0C167.0 120.0 230.0 340.0 268.0 460.0L254.0 463.0C59.0 59.0 59.0 59.0 35.0 21.0C23.0 0.0 17.0 0.0 0.0 0.0ZM-11.0 596.0 -18.0 591.0C28.0 540.0 65.0 462.0 73.0 390.0C207.0 289.0 332.0 557.0 -11.0 596.0Z"/></g>
<g fill="red" transform="translate(500 300) scale(0.1 -0.1)"><path d="M0.0 0.0C-11.0 0.0 -44.0 0.0 -44.0 0.0V-24.0C-24.0 -26.0 -10.0 -28.0 4.0 -36.0C25.0 -50.0 32.0 -118.0 21.0 -219.0C20.0 -247.0 26.0 -267.0 41.0 -267.0C67.0 -267.0 80.0 -245.0 82.0 -206.0C86.0 -129.0 63.0 -80.0 63.0 -40.0C63.0 -17.0 70.0 13.0 80.0 43.0C97.0 89.0 199.0 334.0 249.0 462.0L230.0 468.0C39.0 55.0 39.0 55.0 23.0 21.0C14.0 1.0 10.0 0.0 0.0 0.0ZM-10.0 575.0 -21.0 566.0C28.0 529.0 92.0 462.0 110.0 411.0C169.0 376.0 199.0 502.0 -10.0 575.0Z"/></g>
<g fill="black" opacity=".8" transform="translate(500 300) scale(0.1 -0.1)"><path d="M0.0 0.0C-11.0 0.0 -43.0 0.0 -43.0 0.0V-23.0C-23.0 -25.0 -9.0 -27.0 4.0 -36.0C26.0 -50.0 32.0 -119.0 21.0 -221.0C20.0 -249.0 26.0 -270.0 41.0 -270.0C67.0 -270.0 79.0 -248.0 80.0 -209.0C84.0 -130.0 63.0 -81.0 63.0 -41.0C63.0 -17.0 70.0 12.0 80.0 43.0C96.0 88.0 201.0 333.0 251.0 463.0L233.0 469.0C39.0 54.0 39.0 54.0 23.0 20.0C13.0 0.0 10.0 0.0 0.0 0.0ZM-12.0 575.0 -22.0 564.0C28.0 531.0 92.0 467.0 111.0 418.0C170.0 384.0 199.0 509.0 -12.0 575.0Z"/></g>
<g fill="red" transform="translate(600 300) scale(0.1 -0.1)"><path d="M0.0 0.0C-11.0 0.0 -47.0 0.0 -47.0 0.0V-17.0C-26.0 -19.0 -9.0 -25.0 6.0 -34.0C30.0 -50.0 34.0 -144.0 13.0 -244.0C25.0 -282.0 56.0 -294.0 83.0 -294.0C143.0 -294.0 186.0 -258.0 188.0 -205.0C191.0 -119.0 142.0 -94.0 139.0 -37.0C138.0 -12.0 147.0 26.0 156.0 59.0C170.0 112.0 236.0 319.0 275.0 432.0L262.0 436.0C62.0 58.0 62.0 58.0 35.0 20.0C22.0 0.0 18.0 0.0 0.0 0.0ZM-9.0 600.0 -16.0 594.0C32.0 543.0 72.0 464.0 79.0 390.0C214.0 289.0 335.0 559.0 -9.0 600.0Z"/></g>
<g fill="black" opacity=".8" transform="translate(600 300) scale(0.1 -0.1)"><path d="M0.0 0.0C-11.0 0.0 -47.0 0.0 -47.0 0.0V-17.0C-26.0 -18.0 -8.0 -25.0 7.0 -34.0C31.0 -49.0 35.0 -147.0 14.0 -248.0C25.0 -287.0 56.0 -299.0 81.0 -299.0C141.0 -299.0 184.0 -261.0 186.0 -208.0C189.0 -121.0 140.0 -93.0 138.0 -37.0C137.0 -12.0 145.0 25.0 153.0 59.0C168.0 113.0 232.0 321.0 270.0 435.0L257.0 438.0C61.0 57.0 61.0 57.0 35.0 20.0C23.0 0.0 17.0 0.0 0.0 0.0ZM-10.0 591.0 -17.0 587.0C29.0 536.0 67.0 461.0 76.0 389.0C211.0 290.0 335.0 557.0 -10.0 591.0Z"/></g>
<g fill="red" transform="translate(700 300) scale(0.1 -0.1)"><path d="M0.0 0.0C-11.0 0.0 -43.0 0.0 -43.0 0.0V-24.0C-23.0 -26.0 -9.0 -28.0 4.0 -36.0C25.0 -49.0 31.0 -119.0 20.0 -219.0C19.0 -248.0 25.0 -267.0 39.0 -267.0C65.0 -267.0 78.0 -245.0 80.0 -206.0C84.0 -131.0 62.0 -79.0 62.0 -41.0C62.0 -18.0 69.0 10.0 78.0 37.0C92.0 77.0 175.0 283.0 217.0 391.0L197.0 396.0C38.0 51.0 38.0 51.0 23.0 20.0C14.0 0.0 10.0 0.0 0.0 0.0ZM-5.0 562.0 -16.0 553.0C29.0 516.0 87.0 449.0 101.0 397.0C159.0 360.0 193.0 484.0 -5.0 562.0Z"/></g>
<g fill="black" opacity=".8" transform="translate(700 300) scale(0.1 -0.1)"><path d="M0.0 0.0C-11.0 0.0 -42.0 0.0 -42.0 0.0V-23.0C-23.0 -25.0 -9.0 -27.0 3.0 -36.0C24.0 -49.0 30.0 -119.0 20.0 -219.0C18.0 -248.0 25.0 -267.0 39.0 -267.0C66.0 -267.0 78.0 -245.0 79.0 -207.0C84.0 -131.0 63.0 -80.0 62.0 -40.0C62.0 -18.0 69.0 10.0 78.0 38.0C91.0 78.0 173.0 283.0 212.0 392.0L193.0 397.0C37.0 52.0 37.0 52.0 23.0 19.0C13.0 -0.0 10.0 0.0 0.0 0.0ZM-13.0 564.0 -24.0 555.0C22.0 517.0 81.0 448.0 95.0 396.0C153.0 358.0 187.0 483.0 -13.0 564.0Z"/></g>
<g fill="red" transform="translate(800 300) scale(0.1 -0.1)"><path d="M0.0 0.0C-11.0 0.0 -45.0 0.0 -45.0 0.0V-17.0C-24.0 -19.0 -7.0 -24.0 6.0 -33.0C30.0 -49.0 33.0 -146.0 12.0 -244.0C24.0 -283.0 56.0 -294.0 82.0 -294.0C142.0 -294.0 184.0 -258.0 186.0 -205.0C189.0 -117.0 139.0 -92.0 136.0 -35.0C135.0 -10.0 142.0 28.0 148.0 61.0C158.0 114.0 205.0 317.0 234.0 426.0L219.0 429.0C56.0 57.0 56.0 57.0 33.0 20.0C21.0 0.0 17.0 0.0 0.0 0.0ZM-7.0 576.0 -15.0 571.0C21.0 523.0 47.0 452.0 46.0 386.0C169.0 281.0 307.0 526.0 -7.0 576.0Z"/></g>
<g fill="black" opacity=".8" transform="translate(800 300) scale(0.1 -0.1)"><path d="M0.0 0.0C-11.0 0.0 -46.0 0.0 -46.0 0.0V-18.0C-25.0 -19.0 -7.0 -25.0 7.0 -34.0C30.0 -49.0 33.0 -146.0 14.0 -245.0C23.0 -283.0 54.0 -295.0 79.0 -295.0C137.0 -295.0 178.0 -258.0 181.0 -206.0C184.0 -119.0 135.0 -91.0 133.0 -36.0C132.0 -11.0 139.0 26.0 145.0 59.0C157.0 112.0 209.0 312.0 240.0 422.0L226.0 424.0C56.0 56.0 56.0 56.0 33.0 20.0C22.0 0.0 17.0 0.0 0.0 0.0ZM-13.0 580.0 -21.0 576.0C18.0 525.0 50.0 450.0 55.0 382.0C179.0 282.0 305.0 529.0 -13.0 580.0Z"/></g>
<g fill="red" transform="translate(900 300) scale(0.1 -0.1)"><path d="M0.0 0.0C-11.0 0.0 -43.0 0.0 -43.0 0.0V-24.0C-23.0 -26.0 -9.0 -28.0 4.0 -36.0C25.0 -50.0 31.0 -119.0 20.0 -219.0C19.0 -247.0 25.0 -267.0 40.0 -267.0C66.0 -267.0 79.0 -245.0 81.0 -206.0C84.0 -130.0 63.0 -80.0 63.0 -40.0C62.0 -17.0 69.0 12.0 78.0 40.0C93.0 83.0 183.0 308.0 227.0 427.0L208.0 433.0C38.0 53.0 38.0 53.0 23.0 21.0C14.0 0.0 10.0 0.0 0.0 0.0ZM-13.0 562.0 -24.0 553.0C21.0 516.0 79.0 449.0 93.0 397.0C151.0 360.0 185.0 484.0 -13.0 562.0Z"/></g>
<g fill="black" opacity=".8" transform="translate(900 300) scale(0.1 -0.1)"><path d="M0.0 0.0C-11.0 0.0 -43.0 0.0 -43.0 0.0V-23.0C-23.0 -26.0 -9.0 -27.0 3.0 -37.0C25.0 -50.0 31.0 -119.0 20.0 -219.0C19.0 -247.0 25.0 -267.0 40.0 -267.0C67.0 -267.0 79.0 -245.0 80.0 -206.0C84.0 -130.0 63.0 -80.0 63.0 -40.0C63.0 -17.0 70.0 12.0 79.0 41.0C93.0 84.0 184.0 310.0 227.0 428.0L208.0 434.0C38.0 53.0 38.0 53.0 23.0 20.0C13.0 0.0 10.0 0.0 0.0 0.0ZM-14.0 562.0 -25.0 552.0C22.0 515.0 81.0 448.0 96.0 396.0C154.0 360.0 188.0 484.0 -14.0 562.0Z"/></g>
<g fill="red" transform="translate(1000 300) scale(0.1 -0.1)"><path d="M0.0 0.0C-11.0 0.0 -46.0 0.0 -46.0 0.0V-17.0C-25.0 -19.0 -8.0 -24.0 6.0 -34.0C30.0 -49.0 33.0 -145.0 12.0 -244.0C24.0 -283.0 56.0 -294.0 82.0 -294.0C142.0 -294.0 185.0 -258.0 187.0 -205.0C189.0 -117.0 140.0 -92.0 137.0 -35.0C136.0 -10.0 143.0 27.0 150.0 60.0C161.0 113.0 214.0 316.0 246.0 426.0L232.0 429.0C58.0 57.0 58.0 57.0 34.0 20.0C21.0 0.0 17.0 0.0 0.0 0.0ZM0.0 576.0 -7.0 571.0C31.0 522.0 59.0 450.0 60.0 382.0C185.0 278.0 320.0 528.0 0.0 576.0Z"/></g>
<g fill="black" opacity=".8" transform="translate(1000 300) scale(0.1 -0.1)"><path d="M0.0 0.0C-11.0 0.0 -46.0 0.0 -46.0 0.0V-18.0C-25.0 -19.0 -8.0 -25.0 7.0 -35.0C29.0 -49.0 33.0 -145.0 13.0 -245.0C24.0 -283.0 55.0 -295.0 79.0 -295.0C138.0 -295.0 180.0 -258.0 182.0 -206.0C185.0 -119.0 137.0 -91.0 134.0 -36.0C133.0 -11.0 141.0 26.0 147.0 59.0C160.0 112.0 215.0 313.0 248.0 423.0L233.0 426.0C58.0 57.0 58.0 57.0 34.0 20.0C22.0 0.0 17.0 0.0 0.0 0.0ZM-11.0 580.0 -19.0 575.0C22.0 524.0 54.0 449.0 59.0 378.0C186.0 278.0 315.0 531.0 -11.0 580.0Z"/></g>
<g fill="red" transform="translate(1100 300) scale(0.1 -0.1)"><path d="M0.0 0.0C-11.0 0.0 -44.0 0.0 -44.0 0.0V-23.0C-23.0 -25.0 -9.0 -27.0 4.0 -37.0C23.0 -50.0 29.0 -119.0 19.0 -217.0C19.0 -247.0 24.0 -265.0 40.0 -265.0C67.0 -265.0 80.0 -243.0 82.0 -204.0C86.0 -129.0 64.0 -79.0 64.0 -41.0C63.0 -17.0 70.0 10.0 79.0 38.0C92.0 77.0 176.0 285.0 216.0 394.0L197.0 399.0C38.0 52.0 38.0 52.0 22.0 19.0C14.0 0.0 10.0 0.0 0.0 0.0ZM-3.0 561.0 -15.0 553.0C30.0 514.0 86.0 445.0 98.0 392.0C154.0 352.0 191.0 478.0 -3.0 561.0Z"/></g>
<g fill="black" opacity=".8" transform="translate(1100 300) scale(0.1 -0.1)"><path d="M0.0 0.0C-11.0 0.0 -42.0 0.0 -42.0 0.0V-23.0C-23.0 -25.0 -9.0 -27.0 3.0 -37.0C24.0 -49.0 30.0 -118.0 19.0 -218.0C18.0 -247.0 25.0 -266.0 39.0 -266.0C66.0 -266.0 78.0 -244.0 79.0 -206.0C83.0 -130.0 62.0 -79.0 62.0 -40.0C62.0 -17.0 69.0 11.0 78.0 38.0C90.0 78.0 171.0 285.0 209.0 394.0L191.0 399.0C37.0 52.0 37.0 52.0 22.0 19.0C13.0 -0.0 10.0 0.0 0.0 0.0ZM-12.0 560.0 -23.0 550.0C22.0 513.0 80.0 446.0 93.0 394.0C151.0 356.0 185.0 481.0 -12.0 560.0Z"/></g>
<g fill="red" transform="translate(1200 300) scale(0.1 -0.1)"><path d="M0.0 0.0C-11.0 0.0 -45.0 0.0 -45.0 0.0V-18.0C-24.0 -20.0 -8.0 -25.0 6.0 -34.0C29.0 -49.0 33.0 -144.0 13.0 -244.0C23.0 -281.0 51.0 -294.0 76.0 -294.0C131.0 -294.0 170.0 -260.0 172.0 -208.0C175.0 -120.0 129.0 -91.0 127.0 -36.0C126.0 -11.0 132.0 25.0 139.0 56.0C149.0 106.0 199.0 302.0 228.0 408.0L213.0 411.0C54.0 56.0 54.0 56.0 32.0 20.0C20.0 0.0 16.0 0.0 0.0 0.0ZM-5.0 578.0 -13.0 573.0C20.0 522.0 48.0 450.0 51.0 382.0C171.0 280.0 303.0 517.0 -5.0 578.0Z"/></g>
<g fill="black" opacity=".8" transform="translate(1200 300) scale(0.1 -0.1)"><path d="M0.0 0.0C-11.0 0.0 -45.0 0.0 -45.0 0.0V-18.0C-24.0 -19.0 -8.0 -25.0 6.0 -34.0C29.0 -48.0 33.0 -145.0 13.0 -243.0C23.0 -281.0 54.0 -293.0 78.0 -293.0C136.0 -293.0 177.0 -257.0 179.0 -205.0C183.0 -118.0 134.0 -90.0 131.0 -35.0C131.0 -11.0 137.0 25.0 143.0 57.0C154.0 108.0 201.0 299.0 230.0 404.0L216.0 407.0C55.0 55.0 55.0 55.0 33.0 20.0C22.0 0.0 16.0 0.0 0.0 0.0ZM-11.0 577.0 -19.0 573.0C20.0 522.0 50.0 448.0 54.0 379.0C177.0 278.0 307.0 524.0 -11.0 577.0Z"/></g>
<g fill="red" transform="translate(1300 300) scale(0.1 -0.1)"><path d="M0.0 0.0C-11.0 0.0 -46.0 0.0 -46.0 0.0V-23.0C-25.0 -25.0 -10.0 -27.0 3.0 -36.0C25.0 -50.0 31.0 -117.0 20.0 -218.0C20.0 -247.0 25.0 -267.0 41.0 -267.0C67.0 -267.0 79.0 -245.0 81.0 -206.0C84.0 -129.0 64.0 -80.0 64.0 -41.0C63.0 -17.0 71.0 10.0 81.0 40.0C98.0 82.0 207.0 314.0 260.0 436.0L241.0 442.0C41.0 53.0 41.0 53.0 23.0 20.0C13.0 1.0 10.0 0.0 0.0 0.0ZM-3.0 533.0 -14.0 524.0C34.0 489.0 95.0 425.0 113.0 376.0C171.0 341.0 201.0 465.0 -3.0 533.0Z"/></g>
<g fill="black" opacity=".8" transform="translate(1300 300) scale(0.1 -0.1)"><path d="M0.0 0.0C-11.0 0.0 -44.0 0.0 -44.0 0.0V-23.0C-24.0 -25.0 -9.0 -27.0 3.0 -36.0C25.0 -49.0 31.0 -116.0 21.0 -217.0C20.0 -246.0 26.0 -266.0 41.0 -266.0C67.0 -266.0 79.0 -244.0 80.0 -205.0C84.0 -129.0 64.0 -80.0 63.0 -41.0C63.0 -18.0 71.0 11.0 81.0 40.0C98.0 83.0 205.0 314.0 257.0 436.0L238.0 442.0C40.0 52.0 40.0 52.0 23.0 19.0C13.0 0.0 10.0 0.0 0.0 0.0ZM-13.0 540.0 -23.0 529.0C25.0 495.0 87.0 430.0 105.0 381.0C163.0 347.0 192.0 469.0 -13.0 540.0Z"/></g>
<g fill="red" transform="translate(1400 300) scale(0.1 -0.1)"><path d="M0.0 0.0C-11.0 0.0 -48.0 0.0 -48.0 0.0V-17.0C-26.0 -19.0 -9.0 -25.0 6.0 -34.0C30.0 -50.0 34.0 -142.0 14.0 -244.0C25.0 -281.0 53.0 -294.0 79.0 -294.0C137.0 -294.0 177.0 -259.0 179.0 -207.0C182.0 -121.0 135.0 -94.0 133.0 -38.0C133.0 -14.0 141.0 24.0 151.0 55.0C164.0 106.0 235.0 307.0 275.0 416.0L261.0 420.0C62.0 57.0 62.0 57.0 35.0 20.0C22.0 0.0 17.0 0.0 0.0 0.0ZM-7.0 561.0 -14.0 556.0C29.0 506.0 63.0 431.0 67.0 361.0C197.0 260.0 324.0 519.0 -7.0 561.0Z"/></g>
<g fill="black" opacity=".8" transform="translate(1400 300) scale(0.1 -0.1)"><path d="M0.0 0.0C-11.0 0.0 -48.0 0.0 -48.0 0.0V-17.0C-26.0 -18.0 -8.0 -25.0 6.0 -35.0C30.0 -49.0 34.0 -143.0 15.0 -244.0C25.0 -282.0 55.0 -295.0 79.0 -295.0C137.0 -295.0 179.0 -258.0 182.0 -206.0C184.0 -121.0 137.0 -94.0 135.0 -39.0C134.0 -14.0 144.0 23.0 153.0 56.0C168.0 107.0 237.0 303.0 279.0 412.0L265.0 416.0C63.0 56.0 63.0 56.0 36.0 20.0C23.0 0.0 17.0 0.0 0.0 0.0ZM-9.0 556.0 -16.0 552.0C27.0 501.0 62.0 426.0 70.0 356.0C201.0 258.0 324.0 516.0 -9.0 556.0Z"/></g>
<g fill="red" transform="translate(1500 300) scale(0.1 -0.1)"><path d="M0.0 0.0C-11.0 0.0 -44.0 0.0 -44.0 0.0V-23.0C-23.0 -25.0 -9.0 -27.0 4.0 -37.0C23.0 -50.0 29.0 -119.0 18.0 -217.0C18.0 -247.0 24.0 -265.0 40.0 -265.0C67.0 -265.0 79.0 -243.0 81.0 -204.0C85.0 -130.0 64.0 -79.0 64.0 -41.0C63.0 -17.0 70.0 10.0 78.0 38.0C91.0 77.0 174.0 285.0 214.0 394.0L195.0 398.0C38.0 52.0 38.0 52.0 22.0 19.0C13.0 0.0 9.0 0.0 0.0 0.0ZM-8.0 539.0 -20.0 530.0C24.0 493.0 79.0 426.0 92.0 375.0C149.0 336.0 185.0 461.0 -8.0 539.0Z"/></g>
<g fill="black" opacity=".8" transform="translate(1500 300) scale(0.1 -0.1)"><path d="M0.0 0.0C-11.0 0.0 -44.0 0.0 -44.0 0.0V-23.0C-23.0 -25.0 -9.0 -27.0 3.0 -37.0C24.0 -49.0 30.0 -118.0 19.0 -218.0C18.0 -247.0 25.0 -267.0 40.0 -267.0C67.0 -267.0 79.0 -244.0 80.0 -206.0C84.0 -130.0 64.0 -80.0 63.0 -41.0C63.0 -18.0 70.0 10.0 79.0 38.0C93.0 78.0 181.0 286.0 222.0 394.0L203.0 400.0C38.0 52.0 38.0 52.0 23.0 19.0C13.0 -0.0 10.0 0.0 0.0 0.0ZM-11.0 541.0 -22.0 531.0C23.0 494.0 78.0 427.0 93.0 376.0C150.0 338.0 185.0 462.0 -11.0 541.0Z"/></g>
<g fill="red" transform="translate(1600 300) scale(0.1 -0.1)"><path d="M0.0 0.0C-11.0 0.0 -45.0 0.0 -45.0 0.0V-17.0C-24.0 -19.0 -8.0 -24.0 6.0 -33.0C29.0 -49.0 32.0 -145.0 12.0 -244.0C23.0 -282.0 55.0 -294.0 81.0 -294.0C141.0 -294.0 185.0 -258.0 187.0 -205.0C190.0 -117.0 140.0 -93.0 137.0 -36.0C136.0 -12.0 142.0 25.0 149.0 56.0C159.0 104.0 206.0 286.0 233.0 384.0L220.0 387.0C58.0 55.0 58.0 55.0 34.0 19.0C22.0 0.0 17.0 0.0 0.0 0.0ZM3.0 557.0 -4.0 552.0C29.0 501.0 56.0 429.0 58.0 360.0C186.0 252.0 326.0 501.0 3.0 557.0Z"/></g>
<g fill="black" opacity=".8" transform="translate(1600 300) scale(0.1 -0.1)"><path d="M0.0 0.0C-11.0 0.0 -46.0 0.0 -46.0 0.0V-18.0C-25.0 -19.0 -8.0 -25.0 6.0 -35.0C29.0 -49.0 32.0 -144.0 13.0 -244.0C22.0 -281.0 53.0 -295.0 77.0 -295.0C135.0 -295.0 177.0 -258.0 179.0 -206.0C182.0 -120.0 134.0 -91.0 131.0 -37.0C131.0 -13.0 138.0 23.0 144.0 54.0C156.0 101.0 206.0 281.0 236.0 380.0L222.0 382.0C58.0 54.0 58.0 54.0 34.0 20.0C22.0 0.0 17.0 0.0 0.0 0.0ZM-8.0 559.0 -15.0 555.0C21.0 504.0 50.0 429.0 53.0 359.0C177.0 257.0 311.0 503.0 -8.0 559.0Z"/></g>
<g fill="red" transform="translate(100 400) scale(0.1 -0.1)"><path d="M0.0 0.0C-11.0 0.0 -45.0 0.0 -45.0 0.0V-23.0C-24.0 -25.0 -10.0 -27.0 3.0 -37.0C24.0 -50.0 30.0 -118.0 19.0 -217.0C18.0 -247.0 25.0 -265.0 41.0 -265.0C67.0 -265.0 80.0 -243.0 82.0 -204.0C85.0 -130.0 64.0 -79.0 64.0 -41.0C64.0 -17.0 71.0 10.0 79.0 38.0C94.0 79.0 184.0 294.0 227.0 405.0L208.0 411.0C39.0 52.0 39.0 52.0 22.0 19.0C13.0 0.0 9.0 0.0 0.0 0.0ZM-2.0 541.0 -13.0 532.0C33.0 497.0 91.0 433.0 107.0 384.0C165.0 348.0 197.0 471.0 -2.0 541.0Z"/></g>
<g fill="black" opacity=".8" transform="translate(100 400) scale(0.1 -0.1)"><path d="M0.0 0.0C-11.0 0.0 -43.0 0.0 -43.0 0.0V-23.0C-23.0 -25.0 -9.0 -27.0 3.0 -36.0C24.0 -49.0 30.0 -117.0 19.0 -216.0C19.0 -245.0 25.0 -265.0 40.0 -265.0C66.0 -265.0 78.0 -242.0 79.0 -204.0C83.0 -129.0 63.0 -79.0 62.0 -40.0C62.0 -17.0 69.0 11.0 79.0 39.0C92.0 79.0 182.0 292.0 224.0 404.0L206.0 410.0C38.0 52.0 38.0 52.0 22.0 19.0C13.0 -0.0 10.0 0.0 0.0 0.0ZM-12.0 543.0 -23.0 534.0C23.0 498.0 80.0 432.0 95.0 381.0C152.0 345.0 185.0 468.0 -12.0 543.0Z"/></g>
<g fill="red" transform="translate(200 400) scale(0.1 -0.1)"><path d="M0.0 0.0C-11.0 0.0 -45.0 0.0 -45.0 0.0V-18.0C-24.0 -20.0 -8.0 -25.0 6.0 -34.0C29.0 -49.0 33.0 -143.0 13.0 -244.0C23.0 -281.0 51.0 -294.0 76.0 -294.0C131.0 -294.0 171.0 -260.0 173.0 -208.0C176.0 -121.0 130.0 -92.0 127.0 -37.0C126.0 -13.0 133.0 23.0 141.0 54.0C152.0 103.0 206.0 295.0 238.0 399.0L223.0 402.0C56.0 55.0 56.0 55.0 33.0 20.0C21.0 0.0 16.0 0.0 0.0 0.0ZM-4.0 560.0 -12.0 555.0C21.0 504.0 49.0 432.0 52.0 364.0C172.0 262.0 304.0 499.0 -4.0 560.0Z"/></g>
<g fill="black" opacity=".8" transform="translate(200 400) scale(0.1 -0.1)"><path d="M0.0 0.0C-11.0 0.0 -46.0 0.0 -46.0 0.0V-18.0C-25.0 -19.0 -8.0 -25.0 6.0 -34.0C29.0 -48.0 33.0 -143.0 13.0 -242.0C23.0 -279.0 53.0 -292.0 77.0 -292.0C135.0 -292.0 176.0 -255.0 179.0 -204.0C182.0 -118.0 134.0 -91.0 131.0 -36.0C131.0 -12.0 138.0 24.0 145.0 55.0C157.0 104.0 210.0 290.0 242.0 393.0L228.0 396.0C58.0 54.0 58.0 54.0 34.0 20.0C22.0 0.0 17.0 0.0 0.0 0.0ZM-9.0 561.0 -16.0 557.0C22.0 506.0 53.0 432.0 57.0 363.0C182.0 263.0 311.0 511.0 -9.0 561.0Z"/></g>
<g fill="red" transform="translate(300 400) scale(0.1 -0.1)"><path d="M0.0 0.0C-11.0 0.0 -47.0 0.0 -47.0 0.0V-23.0C-25.0 -25.0 -10.0 -27.0 3.0 -36.0C25.0 -50.0 31.0 -117.0 20.0 -218.0C20.0 -247.0 25.0 -267.0 41.0 -267.0C67.0 -267.0 79.0 -245.0 81.0 -206.0C85.0 -129.0 64.0 -80.0 64.0 -41.0C64.0 -17.0 72.0 10.0 82.0 40.0C100.0 83.0 213.0 318.0 269.0 441.0L249.0 447.0C42.0 53.0 42.0 53.0 23.0 20.0C13.0 1.0 10.0 0.0 0.0 0.0ZM-9.0 533.0 -20.0 524.0C24.0 489.0 79.0 425.0 93.0 376.0C150.0 338.0 184.0 461.0 -9.0 533.0Z"/></g>
<g fill="black" opacity=".8" transform="translate(300 400) scale(0.1 -0.1)"><path d="M0.0 0.0C-11.0 0.0 -45.0 0.0 -45.0 0.0V-23.0C-25.0 -25.0 -10.0 -27.0 3.0 -36.0C26.0 -50.0 32.0 -117.0 21.0 -220.0C20.0 -248.0 26.0 -269.0 42.0 -269.0C69.0 -269.0 81.0 -247.0 82.0 -207.0C86.0 -130.0 65.0 -81.0 64.0 -41.0C64.0 -18.0 73.0 11.0 83.0 40.0C100.0 84.0 214.0 320.0 268.0 444.0L250.0 451.0C42.0 53.0 42.0 53.0 24.0 19.0C13.0 0.0 10.0 0.0 0.0 0.0ZM-13.0 537.0 -24.0 527.0C25.0 491.0 87.0 426.0 106.0 376.0C165.0 342.0 194.0 465.0 -13.0 537.0Z"/></g>
<g fill="red" transform="translate(400 400) scale(0.1 -0.1)"><path d="M0.0 0.0C-11.0 0.0 -49.0 0.0 -49.0 0.0V-17.0C-27.0 -19.0 -9.0 -25.0 5.0 -34.0C31.0 -50.0 34.0 -142.0 14.0 -244.0C26.0 -281.0 56.0 -294.0 83.0 -294.0C143.0 -294.0 187.0 -259.0 188.0 -206.0C191.0 -121.0 143.0 -95.0 141.0 -39.0C140.0 -14.0 150.0 24.0 160.0 56.0C175.0 107.0 251.0 307.0 294.0 416.0L281.0 420.0C67.0 58.0 67.0 58.0 37.0 19.0C23.0 0.0 18.0 0.0 0.0 0.0ZM-2.0 557.0 -9.0 552.0C34.0 502.0 68.0 428.0 72.0 356.0C210.0 249.0 344.0 522.0 -2.0 557.0Z"/></g>
<g fill="black" opacity=".8" transform="translate(400 400) scale(0.1 -0.1)"><path d="M0.0 0.0C-11.0 0.0 -49.0 0.0 -49.0 0.0V-17.0C-27.0 -19.0 -9.0 -25.0 6.0 -35.0C30.0 -50.0 35.0 -144.0 15.0 -247.0C25.0 -285.0 56.0 -298.0 80.0 -298.0C139.0 -298.0 181.0 -262.0 184.0 -209.0C186.0 -123.0 139.0 -95.0 137.0 -40.0C136.0 -15.0 146.0 23.0 156.0 56.0C172.0 107.0 247.0 305.0 292.0 416.0L278.0 420.0C66.0 57.0 66.0 57.0 37.0 20.0C23.0 0.0 18.0 0.0 0.0 0.0ZM-9.0 554.0 -16.0 550.0C27.0 498.0 64.0 422.0 72.0 350.0C205.0 251.0 329.0 514.0 -9.0 554.0Z"/></g>
<g fill="red" transform="translate(500 400) scale(0.1 -0.1)"><path d="M0.0 0.0C-11.0 0.0 -42.0 0.0 -42.0 0.0V-24.0C-22.0 -26.0 -9.0 -27.0 4.0 -36.0C24.0 -49.0 30.0 -120.0 19.0 -219.0C18.0 -248.0 24.0 -267.0 39.0 -267.0C64.0 -267.0 77.0 -245.0 79.0 -207.0C83.0 -131.0 62.0 -79.0 62.0 -40.0C61.0 -17.0 67.0 11.0 75.0 38.0C88.0 78.0 161.0 284.0 196.0 392.0L176.0 396.0C36.0 52.0 36.0 52.0 22.0 21.0C13.0 0.0 10.0 0.0 0.0 0.0ZM0.0 579.0 -12.0 571.0C28.0 533.0 76.0 465.0 85.0 413.0C139.0 372.0 180.0 494.0 0.0 579.0Z"/></g>
<g fill="black" opacity=".8" transform="translate(500 400) scale(0.1 -0.1)"><path d="M0.0 0.0C-11.0 0.0 -42.0 0.0 -42.0 0.0V-24.0C-22.0 -26.0 -9.0 -27.0 4.0 -37.0C23.0 -50.0 29.0 -121.0 18.0 -220.0C17.0 -249.0 24.0 -269.0 39.0 -269.0C66.0 -269.0 78.0 -246.0 79.0 -208.0C83.0 -132.0 63.0 -80.0 62.0 -41.0C62.0 -17.0 69.0 11.0 76.0 40.0C88.0 79.0 160.0 284.0 192.0 391.0L173.0 395.0C35.0 53.0 35.0 53.0 22.0 20.0C12.0 -0.0 9.0 0.0 0.0 0.0ZM-8.0 569.0 -19.0 559.0C25.0 523.0 78.0 457.0 90.0 405.0C148.0 367.0 185.0 493.0 -8.0 569.0Z"/></g>
<g fill="red" transform="translate(600 400) scale(0.1 -0.1)"><path d="M0.0 0.0C-11.0 0.0 -43.0 0.0 -43.0 0.0V-17.0C-22.0 -19.0 -7.0 -24.0 6.0 -33.0C29.0 -48.0 31.0 -146.0 11.0 -245.0C21.0 -282.0 53.0 -294.0 78.0 -294.0C136.0 -294.0 179.0 -258.0 181.0 -206.0C184.0 -116.0 135.0 -91.0 131.0 -34.0C130.0 -10.0 134.0 25.0 139.0 54.0C146.0 100.0 176.0 269.0 195.0 360.0L180.0 363.0C52.0 53.0 52.0 53.0 32.0 19.0C20.0 0.0 16.0 0.0 0.0 0.0ZM-6.0 582.0 -14.0 577.0C21.0 527.0 45.0 454.0 41.0 386.0C163.0 275.0 307.0 520.0 -6.0 582.0Z"/></g>
<g fill="black" opacity=".8" transform="translate(600 400) scale(0.1 -0.1)"><path d="M0.0 0.0C-11.0 0.0 -44.0 0.0 -44.0 0.0V-18.0C-23.0 -19.0 -8.0 -25.0 6.0 -34.0C28.0 -47.0 31.0 -147.0 11.0 -245.0C21.0 -282.0 52.0 -295.0 76.0 -295.0C135.0 -295.0 177.0 -258.0 180.0 -206.0C183.0 -117.0 134.0 -89.0 130.0 -34.0C129.0 -10.0 134.0 24.0 137.0 54.0C144.0 100.0 175.0 270.0 192.0 362.0L177.0 364.0C51.0 52.0 51.0 52.0 33.0 20.0C21.0 0.0 16.0 0.0 0.0 0.0ZM-5.0 589.0 -13.0 585.0C23.0 533.0 48.0 459.0 48.0 390.0C171.0 283.0 313.0 528.0 -5.0 589.0Z"/></g>
<g fill="red" transform="translate(700 400) scale(0.1 -0.1)"><path d="M0.0 0.0C-11.0 0.0 -45.0 0.0 -45.0 0.0V-22.0C-24.0 -24.0 -10.0 -26.0 3.0 -36.0C24.0 -49.0 30.0 -117.0 18.0 -216.0C18.0 -246.0 25.0 -265.0 40.0 -265.0C67.0 -265.0 79.0 -242.0 81.0 -204.0C85.0 -129.0 64.0 -78.0 64.0 -40.0C64.0 -17.0 70.0 10.0 79.0 37.0C93.0 76.0 180.0 282.0 221.0 388.0L202.0 393.0C39.0 52.0 39.0 52.0 22.0 20.0C13.0 0.0 9.0 0.0 0.0 0.0ZM-7.0 533.0 -19.0 524.0C24.0 489.0 76.0 424.0 89.0 375.0C144.0 337.0 181.0 458.0 -7.0 533.0Z"/></g>
<g fill="black" opacity=".8" transform="translate(700 400) scale(0.1 -0.1)"><path d="M0.0 0.0C-11.0 0.0 -43.0 0.0 -43.0 0.0V-23.0C-23.0 -25.0 -9.0 -27.0 3.0 -36.0C24.0 -49.0 30.0 -116.0 19.0 -215.0C18.0 -244.0 25.0 -263.0 40.0 -263.0C66.0 -263.0 79.0 -241.0 80.0 -203.0C84.0 -128.0 63.0 -79.0 62.0 -40.0C63.0 -18.0 70.0 11.0 79.0 38.0C91.0 77.0 175.0 281.0 215.0 388.0L196.0 393.0C38.0 51.0 38.0 51.0 23.0 19.0C13.0 -0.0 10.0 0.0 0.0 0.0ZM-16.0 539.0 -27.0 530.0C17.0 490.0 74.0 420.0 87.0 367.0C144.0 329.0 179.0 452.0 -16.0 539.0Z"/></g>
<g fill="red" transform="translate(800 400) scale(0.1 -0.1)"><path d="M0.0 0.0C-11.0 0.0 -45.0 0.0 -45.0 0.0V-18.0C-24.0 -20.0 -8.0 -25.0 6.0 -34.0C29.0 -49.0 33.0 -144.0 14.0 -244.0C23.0 -281.0 52.0 -294.0 77.0 -294.0C132.0 -294.0 171.0 -260.0 173.0 -208.0C176.0 -121.0 130.0 -91.0 127.0 -36.0C127.0 -12.0 133.0 25.0 141.0 57.0C152.0 108.0 208.0 312.0 241.0 423.0L226.0 426.0C55.0 57.0 55.0 57.0 32.0 20.0C20.0 0.0 16.0 0.0 0.0 0.0ZM-25.0 553.0 -33.0 548.0C4.0 497.0 37.0 424.0 43.0 355.0C167.0 257.0 292.0 501.0 -25.0 553.0Z"/></g>
<g fill="black" opacity=".8" transform="translate(800 400) scale(0.1 -0.1)"><path d="M0.0 0.0C-11.0 0.0 -46.0 0.0 -46.0 0.0V-18.0C-25.0 -19.0 -8.0 -25.0 6.0 -35.0C29.0 -49.0 33.0 -142.0 14.0 -241.0C23.0 -278.0 53.0 -291.0 77.0 -291.0C135.0 -291.0 175.0 -254.0 177.0 -203.0C181.0 -118.0 133.0 -90.0 131.0 -36.0C130.0 -11.0 138.0 26.0 145.0 58.0C157.0 110.0 213.0 309.0 246.0 419.0L232.0 422.0C57.0 57.0 57.0 57.0 33.0 20.0C22.0 0.0 17.0 0.0 0.0 0.0ZM-14.0 556.0 -22.0 552.0C15.0 501.0 44.0 426.0 48.0 357.0C168.0 259.0 295.0 499.0 -14.0 556.0Z"/></g>
<g fill="red" transform="translate(900 400) scale(0.1 -0.1)"><path d="M0.0 0.0C-11.0 0.0 -42.0 0.0 -42.0 0.0V-24.0C-22.0 -26.0 -9.0 -27.0 4.0 -36.0C25.0 -50.0 32.0 -120.0 21.0 -219.0C20.0 -246.0 25.0 -267.0 41.0 -267.0C68.0 -267.0 80.0 -244.0 82.0 -206.0C86.0 -128.0 63.0 -80.0 63.0 -39.0C63.0 -14.0 69.0 17.0 78.0 50.0C93.0 100.0 184.0 366.0 231.0 508.0L211.0 512.0C36.0 58.0 36.0 58.0 22.0 22.0C13.0 1.0 10.0 0.0 0.0 0.0ZM-29.0 575.0 -40.0 566.0C7.0 530.0 67.0 464.0 82.0 412.0C140.0 377.0 172.0 501.0 -29.0 575.0Z"/></g>
<g fill="black" opacity=".8" transform="translate(900 400) scale(0.1 -0.1)"><path d="M0.0 0.0C-11.0 0.0 -43.0 0.0 -43.0 0.0V-24.0C-22.0 -27.0 -9.0 -28.0 3.0 -37.0C25.0 -51.0 32.0 -119.0 21.0 -217.0C20.0 -244.0 26.0 -265.0 41.0 -265.0C69.0 -265.0 81.0 -242.0 82.0 -204.0C86.0 -127.0 63.0 -80.0 63.0 -39.0C63.0 -15.0 70.0 18.0 79.0 50.0C94.0 100.0 189.0 366.0 236.0 506.0L216.0 512.0C36.0 58.0 36.0 58.0 22.0 22.0C13.0 0.0 10.0 0.0 0.0 0.0ZM-23.0 579.0 -34.0 570.0C13.0 530.0 72.0 459.0 88.0 404.0C146.0 366.0 181.0 494.0 -23.0 579.0Z"/></g>
<g fill="red" transform="translate(1000 400) scale(0.1 -0.1)"><path d="M0.0 0.0C-11.0 0.0 -46.0 0.0 -46.0 0.0V-17.0C-25.0 -19.0 -7.0 -24.0 7.0 -34.0C31.0 -50.0 35.0 -146.0 14.0 -244.0C26.0 -284.0 58.0 -294.0 84.0 -294.0C145.0 -294.0 186.0 -257.0 188.0 -205.0C190.0 -117.0 141.0 -91.0 139.0 -35.0C138.0 -8.0 146.0 32.0 154.0 70.0C167.0 133.0 232.0 380.0 270.0 514.0L256.0 517.0C57.0 63.0 57.0 63.0 33.0 21.0C21.0 0.0 17.0 0.0 0.0 0.0ZM-17.0 596.0 -25.0 591.0C15.0 539.0 50.0 464.0 57.0 394.0C185.0 294.0 310.0 547.0 -17.0 596.0Z"/></g>
<g fill="black" opacity=".8" transform="translate(1000 400) scale(0.1 -0.1)"><path d="M0.0 0.0C-11.0 0.0 -47.0 0.0 -47.0 0.0V-18.0C-26.0 -19.0 -7.0 -25.0 7.0 -35.0C30.0 -50.0 34.0 -146.0 14.0 -243.0C25.0 -282.0 57.0 -293.0 83.0 -293.0C144.0 -293.0 184.0 -255.0 187.0 -203.0C189.0 -117.0 139.0 -89.0 138.0 -34.0C137.0 -7.0 145.0 32.0 152.0 70.0C165.0 133.0 228.0 380.0 266.0 515.0L252.0 518.0C56.0 62.0 56.0 62.0 33.0 22.0C22.0 0.0 17.0 0.0 0.0 0.0ZM-20.0 601.0 -28.0 597.0C15.0 544.0 51.0 465.0 58.0 392.0C185.0 293.0 308.0 549.0 -20.0 601.0Z"/></g>
<g fill="red" transform="translate(1100 400) scale(0.1 -0.1)"><path d="M0.0 0.0C-11.0 0.0 -42.0 0.0 -42.0 0.0V-24.0C-22.0 -26.0 -9.0 -27.0 4.0 -36.0C24.0 -49.0 30.0 -120.0 19.0 -219.0C18.0 -248.0 24.0 -267.0 39.0 -267.0C65.0 -267.0 77.0 -245.0 79.0 -206.0C83.0 -131.0 62.0 -79.0 62.0 -40.0C61.0 -17.0 68.0 11.0 76.0 39.0C88.0 79.0 164.0 288.0 200.0 398.0L180.0 402.0C36.0 52.0 36.0 52.0 22.0 21.0C13.0 0.0 10.0 0.0 0.0 0.0ZM-8.0 570.0 -19.0 561.0C27.0 524.0 86.0 457.0 101.0 405.0C159.0 369.0 192.0 493.0 -8.0 570.0Z"/></g>
<g fill="black" opacity=".8" transform="translate(1100 400) scale(0.1 -0.1)"><path d="M0.0 0.0C-11.0 0.0 -42.0 0.0 -42.0 0.0V-23.0C-23.0 -25.0 -9.0 -27.0 4.0 -37.0C24.0 -49.0 30.0 -120.0 19.0 -220.0C18.0 -249.0 25.0 -269.0 39.0 -269.0C66.0 -269.0 78.0 -247.0 79.0 -208.0C83.0 -132.0 63.0 -80.0 62.0 -41.0C62.0 -18.0 69.0 10.0 78.0 38.0C91.0 78.0 174.0 286.0 212.0 395.0L194.0 400.0C37.0 52.0 37.0 52.0 23.0 19.0C13.0 -0.0 10.0 0.0 0.0 0.0ZM-10.0 569.0 -21.0 559.0C25.0 523.0 84.0 456.0 99.0 405.0C157.0 368.0 191.0 493.0 -10.0 569.0Z"/></g>
<g fill="red" transform="translate(1200 400) scale(0.1 -0.1)"><path d="M0.0 0.0C-11.0 0.0 -45.0 0.0 -45.0 0.0V-17.0C-25.0 -19.0 -8.0 -24.0 6.0 -33.0C30.0 -49.0 33.0 -145.0 12.0 -244.0C23.0 -282.0 55.0 -294.0 81.0 -294.0C141.0 -294.0 184.0 -258.0 186.0 -205.0C189.0 -118.0 140.0 -93.0 137.0 -36.0C136.0 -12.0 143.0 26.0 150.0 57.0C160.0 106.0 211.0 294.0 240.0 396.0L227.0 399.0C58.0 56.0 58.0 56.0 34.0 19.0C22.0 0.0 17.0 0.0 0.0 0.0ZM-4.0 585.0 -12.0 580.0C27.0 530.0 54.0 456.0 54.0 387.0C179.0 280.0 316.0 531.0 -4.0 585.0Z"/></g>
<g fill="black" opacity=".8" transform="translate(1200 400) scale(0.1 -0.1)"><path d="M0.0 0.0C-11.0 0.0 -45.0 0.0 -45.0 0.0V-18.0C-24.0 -19.0 -8.0 -25.0 6.0 -34.0C29.0 -48.0 33.0 -147.0 13.0 -246.0C23.0 -284.0 54.0 -296.0 78.0 -296.0C137.0 -296.0 179.0 -259.0 181.0 -207.0C184.0 -119.0 136.0 -91.0 133.0 -36.0C132.0 -11.0 139.0 25.0 144.0 57.0C155.0 107.0 203.0 296.0 231.0 399.0L217.0 402.0C56.0 55.0 56.0 55.0 34.0 20.0C22.0 0.0 17.0 0.0 0.0 0.0ZM-10.0 585.0 -17.0 580.0C23.0 530.0 54.0 456.0 58.0 387.0C184.0 285.0 315.0 536.0 -10.0 585.0Z"/></g>
<g fill="red" transform="translate(1300 400) scale(0.1 -0.1)"><path d="M0.0 0.0C-11.0 0.0 -45.0 0.0 -45.0 0.0V-24.0C-24.0 -26.0 -10.0 -28.0 3.0 -36.0C25.0 -49.0 31.0 -117.0 20.0 -219.0C19.0 -248.0 25.0 -267.0 39.0 -267.0C65.0 -267.0 78.0 -245.0 80.0 -206.0C84.0 -131.0 63.0 -80.0 63.0 -41.0C62.0 -19.0 70.0 7.0 79.0 33.0C95.0 71.0 184.0 266.0 228.0 367.0L208.0 372.0C40.0 50.0 40.0 50.0 24.0 19.0C14.0 0.0 10.0 0.0 0.0 0.0ZM-20.0 581.0 -32.0 573.0C17.0 529.0 79.0 452.0 92.0 394.0C149.0 353.0 187.0 485.0 -20.0 581.0Z"/></g>
<g fill="black" opacity=".8" transform="translate(1300 400) scale(0.1 -0.1)"><path d="M0.0 0.0C-11.0 0.0 -43.0 0.0 -43.0 0.0V-23.0C-23.0 -26.0 -9.0 -27.0 4.0 -37.0C25.0 -50.0 31.0 -121.0 20.0 -224.0C18.0 -254.0 25.0 -274.0 40.0 -274.0C66.0 -274.0 79.0 -251.0 80.0 -212.0C85.0 -134.0 63.0 -81.0 63.0 -42.0C63.0 -19.0 70.0 9.0 79.0 35.0C92.0 73.0 174.0 268.0 212.0 371.0L194.0 376.0C38.0 51.0 38.0 51.0 23.0 19.0C13.0 -1.0 10.0 0.0 0.0 0.0ZM-11.0 573.0 -22.0 564.0C26.0 526.0 87.0 458.0 101.0 405.0C160.0 368.0 194.0 494.0 -11.0 573.0Z"/></g>
<g fill="red" transform="translate(1400 400) scale(0.1 -0.1)"><path d="M0.0 0.0C-11.0 0.0 -46.0 0.0 -46.0 0.0V-17.0C-25.0 -19.0 -8.0 -25.0 6.0 -33.0C30.0 -49.0 33.0 -145.0 12.0 -244.0C24.0 -282.0 55.0 -294.0 81.0 -294.0C141.0 -294.0 185.0 -258.0 186.0 -205.0C189.0 -118.0 140.0 -93.0 137.0 -36.0C136.0 -12.0 143.0 26.0 150.0 57.0C161.0 106.0 212.0 294.0 242.0 396.0L228.0 399.0C59.0 56.0 59.0 56.0 34.0 19.0C22.0 0.0 17.0 0.0 0.0 0.0ZM-14.0 596.0 -22.0 591.0C18.0 539.0 53.0 464.0 60.0 394.0C188.0 294.0 313.0 547.0 -14.0 596.0Z"/></g>
<g fill="black" opacity=".8" transform="translate(1400 400) scale(0.1 -0.1)"><path d="M0.0 0.0C-11.0 0.0 -46.0 0.0 -46.0 0.0V-18.0C-25.0 -19.0 -8.0 -25.0 7.0 -35.0C30.0 -50.0 34.0 -149.0 14.0 -250.0C23.0 -289.0 55.0 -302.0 79.0 -302.0C138.0 -302.0 181.0 -264.0 183.0 -211.0C186.0 -122.0 137.0 -94.0 134.0 -37.0C133.0 -12.0 141.0 25.0 147.0 57.0C159.0 108.0 210.0 299.0 240.0 404.0L226.0 407.0C58.0 56.0 58.0 56.0 34.0 20.0C22.0 0.0 17.0 0.0 0.0 0.0ZM-11.0 587.0 -19.0 583.0C21.0 532.0 53.0 458.0 58.0 389.0C184.0 287.0 314.0 539.0 -11.0 587.0Z"/></g>
<g fill="red" transform="translate(1500 400) scale(0.1 -0.1)"><path d="M0.0 0.0C-11.0 0.0 -42.0 0.0 -42.0 0.0V-24.0C-22.0 -26.0 -9.0 -27.0 4.0 -36.0C24.0 -50.0 31.0 -120.0 19.0 -219.0C19.0 -248.0 24.0 -267.0 39.0 -267.0C65.0 -267.0 78.0 -245.0 80.0 -206.0C84.0 -130.0 62.0 -79.0 62.0 -40.0C62.0 -16.0 68.0 12.0 76.0 41.0C89.0 84.0 166.0 302.0 204.0 419.0L184.0 424.0C36.0 54.0 36.0 54.0 22.0 21.0C13.0 0.0 10.0 0.0 0.0 0.0ZM-14.0 576.0 -25.0 567.0C23.0 530.0 86.0 463.0 102.0 411.0C160.0 376.0 192.0 501.0 -14.0 576.0Z"/></g>
<g fill="black" opacity=".8" transform="translate(1500 400) scale(0.1 -0.1)"><path d="M0.0 0.0C-11.0 0.0 -42.0 0.0 -42.0 0.0V-23.0C-23.0 -25.0 -8.0 -27.0 4.0 -36.0C25.0 -49.0 31.0 -119.0 21.0 -219.0C19.0 -248.0 25.0 -268.0 39.0 -268.0C66.0 -268.0 78.0 -246.0 79.0 -207.0C83.0 -130.0 62.0 -80.0 62.0 -40.0C62.0 -17.0 69.0 11.0 78.0 39.0C92.0 81.0 183.0 300.0 226.0 417.0L208.0 422.0C38.0 52.0 38.0 52.0 23.0 19.0C13.0 -0.0 10.0 0.0 0.0 0.0ZM-14.0 579.0 -25.0 569.0C24.0 532.0 88.0 464.0 104.0 413.0C162.0 378.0 193.0 502.0 -14.0 579.0Z"/></g>
<g fill="red" transform="translate(1600 400) scale(0.1 -0.1)"><path d="M0.0 0.0C-11.0 0.0 -47.0 0.0 -47.0 0.0V-17.0C-26.0 -19.0 -8.0 -25.0 6.0 -34.0C31.0 -50.0 34.0 -144.0 14.0 -244.0C25.0 -283.0 57.0 -294.0 83.0 -294.0C144.0 -294.0 186.0 -258.0 188.0 -205.0C190.0 -119.0 141.0 -93.0 139.0 -37.0C138.0 -11.0 147.0 28.0 156.0 62.0C169.0 118.0 236.0 335.0 275.0 453.0L261.0 457.0C61.0 60.0 61.0 60.0 35.0 20.0C22.0 0.0 17.0 0.0 0.0 0.0ZM-8.0 597.0 -15.0 592.0C28.0 540.0 65.0 463.0 73.0 391.0C204.0 291.0 327.0 551.0 -8.0 597.0Z"/></g>
<g fill="black" opacity=".8" transform="translate(1600 400) scale(0.1 -0.1)"><path d="M0.0 0.0C-11.0 0.0 -46.0 0.0 -46.0 0.0V-17.0C-25.0 -18.0 -7.0 -24.0 7.0 -34.0C31.0 -49.0 35.0 -147.0 14.0 -246.0C25.0 -285.0 56.0 -296.0 81.0 -296.0C140.0 -296.0 181.0 -259.0 183.0 -207.0C186.0 -120.0 138.0 -92.0 136.0 -37.0C135.0 -11.0 143.0 27.0 151.0 62.0C165.0 119.0 225.0 336.0 263.0 456.0L249.0 458.0C59.0 58.0 59.0 58.0 34.0 20.0C22.0 0.0 17.0 0.0 0.0 0.0ZM-16.0 592.0 -23.0 588.0C21.0 538.0 58.0 463.0 66.0 394.0C194.0 298.0 314.0 554.0 -16.0 592.0Z"/></g>
<g fill="red" transform="translate(100 500) scale(0.1 -0.1)"><path d="M0.0 0.0C-11.0 0.0 -43.0 0.0 -43.0 0.0V-24.0C-22.0 -26.0 -9.0 -27.0 4.0 -36.0C24.0 -49.0 30.0 -120.0 19.0 -219.0C18.0 -248.0 24.0 -267.0 39.0 -267.0C65.0 -267.0 77.0 -245.0 79.0 -206.0C83.0 -131.0 62.0 -79.0 62.0 -40.0C62.0 -17.0 68.0 11.0 76.0 38.0C89.0 78.0 165.0 284.0 201.0 392.0L181.0 396.0C36.0 52.0 36.0 52.0 22.0 20.0C13.0 0.0 10.0 0.0 0.0 0.0ZM-15.0 574.0 -26.0 565.0C19.0 529.0 78.0 463.0 92.0 411.0C150.0 375.0 183.0 499.0 -15.0 574.0Z"/></g>
<g fill="black" opacity=".8" transform="translate(100 500) scale(0.1 -0.1)"><path d="M0.0 0.0C-11.0 0.0 -42.0 0.0 -42.0 0.0V-23.0C-22.0 -25.0 -8.0 -27.0 4.0 -37.0C24.0 -49.0 30.0 -120.0 19.0 -220.0C18.0 -249.0 25.0 -269.0 39.0 -269.0C65.0 -269.0 78.0 -246.0 79.0 -208.0C83.0 -132.0 62.0 -80.0 62.0 -41.0C62.0 -17.0 68.0 11.0 77.0 38.0C89.0 78.0 167.0 284.0 203.0 393.0L184.0 398.0C36.0 52.0 36.0 52.0 22.0 20.0C13.0 -0.0 10.0 0.0 0.0 0.0ZM-11.0 577.0 -22.0 568.0C24.0 531.0 83.0 463.0 97.0 411.0C155.0 374.0 189.0 500.0 -11.0 577.0Z"/></g>
<g fill="red" transform="translate(200 500) scale(0.1 -0.1)"><path d="M0.0 0.0C-11.0 0.0 -44.0 0.0 -44.0 0.0V-17.0C-24.0 -19.0 -7.0 -24.0 6.0 -33.0C30.0 -49.0 33.0 -146.0 12.0 -244.0C23.0 -283.0 55.0 -294.0 81.0 -294.0C141.0 -294.0 184.0 -258.0 186.0 -205.0C189.0 -117.0 139.0 -92.0 136.0 -35.0C135.0 -10.0 141.0 27.0 147.0 59.0C156.0 111.0 201.0 306.0 227.0 411.0L213.0 414.0C55.0 56.0 55.0 56.0 33.0 20.0C21.0 0.0 17.0 0.0 0.0 0.0ZM-7.0 596.0 -15.0 591.0C21.0 540.0 54.0 467.0 60.0 398.0C185.0 297.0 313.0 544.0 -7.0 596.0Z"/></g>
<g fill="black" opacity=".8" transform="translate(200 500) scale(0.1 -0.1)"><path d="M0.0 0.0C-11.0 0.0 -45.0 0.0 -45.0 0.0V-18.0C-24.0 -19.0 -7.0 -24.0 7.0 -34.0C29.0 -48.0 33.0 -147.0 13.0 -245.0C23.0 -284.0 54.0 -296.0 78.0 -296.0C137.0 -296.0 179.0 -258.0 181.0 -207.0C185.0 -118.0 136.0 -90.0 132.0 -35.0C132.0 -10.0 138.0 26.0 143.0 59.0C154.0 110.0 198.0 306.0 225.0 413.0L211.0 415.0C54.0 55.0 54.0 55.0 33.0 20.0C21.0 0.0 16.0 0.0 0.0 0.0ZM-12.0 593.0 -19.0 589.0C20.0 539.0 51.0 464.0 56.0 396.0C180.0 295.0 310.0 544.0 -12.0 593.0Z"/></g>
<g fill="red" transform="translate(300 500) scale(0.1 -0.1)"><path d="M0.0 0.0C-11.0 0.0 -42.0 0.0 -42.0 0.0V-24.0C-22.0 -26.0 -9.0 -27.0 4.0 -36.0C24.0 -50.0 31.0 -121.0 19.0 -219.0C19.0 -247.0 24.0 -267.0 39.0 -267.0C66.0 -267.0 78.0 -244.0 80.0 -206.0C84.0 -130.0 62.0 -79.0 62.0 -40.0C62.0 -16.0 68.0 14.0 76.0 44.0C89.0 89.0 167.0 319.0 205.0 442.0L184.0 447.0C35.0 55.0 35.0 55.0 22.0 22.0C13.0 1.0 10.0 0.0 0.0 0.0ZM-8.0 574.0 -20.0 566.0C22.0 529.0 70.0 464.0 81.0 413.0C135.0 374.0 174.0 495.0 -8.0 574.0Z"/></g>
<g fill="black" opacity=".8" transform="translate(300 500) scale(0.1 -0.1)"><path d="M0.0 0.0C-11.0 0.0 -42.0 0.0 -42.0 0.0V-24.0C-21.0 -26.0 -9.0 -27.0 4.0 -37.0C24.0 -50.0 30.0 -120.0 19.0 -218.0C18.0 -245.0 24.0 -266.0 39.0 -266.0C67.0 -266.0 78.0 -243.0 79.0 -205.0C84.0 -129.0 62.0 -79.0 62.0 -40.0C62.0 -16.0 68.0 14.0 76.0 45.0C88.0 89.0 167.0 320.0 203.0 441.0L184.0 446.0C35.0 55.0 35.0 55.0 21.0 21.0C12.0 0.0 10.0 0.0 0.0 0.0ZM-14.0 576.0 -25.0 567.0C20.0 530.0 75.0 462.0 87.0 409.0C145.0 371.0 182.0 497.0 -14.0 576.0Z"/></g>
<g fill="red" transform="translate(400 500) scale(0.1 -0.1)"><path d="M0.0 0.0C-11.0 0.0 -44.0 0.0 -44.0 0.0V-17.0C-23.0 -19.0 -7.0 -24.0 7.0 -33.0C29.0 -49.0 32.0 -146.0 12.0 -244.0C23.0 -283.0 53.0 -294.0 79.0 -294.0C136.0 -294.0 177.0 -258.0 179.0 -206.0C182.0 -117.0 133.0 -90.0 130.0 -34.0C130.0 -9.0 135.0 28.0 140.0 60.0C149.0 113.0 191.0 317.0 215.0 426.0L201.0 429.0C52.0 57.0 52.0 57.0 31.0 20.0C20.0 0.0 16.0 0.0 0.0 0.0ZM-7.0 595.0 -15.0 590.0C18.0 539.0 48.0 468.0 53.0 401.0C176.0 300.0 306.0 540.0 -7.0 595.0Z"/></g>
<g fill="black" opacity=".8" transform="translate(400 500) scale(0.1 -0.1)"><path d="M0.0 0.0C-11.0 0.0 -45.0 0.0 -45.0 0.0V-18.0C-24.0 -19.0 -8.0 -25.0 7.0 -34.0C28.0 -48.0 32.0 -146.0 12.0 -242.0C22.0 -280.0 54.0 -292.0 78.0 -292.0C138.0 -292.0 180.0 -254.0 182.0 -204.0C185.0 -115.0 135.0 -88.0 132.0 -33.0C131.0 -8.0 137.0 28.0 141.0 61.0C150.0 114.0 190.0 316.0 214.0 425.0L199.0 428.0C51.0 56.0 51.0 56.0 32.0 21.0C21.0 0.0 16.0 0.0 0.0 0.0ZM-11.0 598.0 -19.0 594.0C19.0 542.0 48.0 466.0 51.0 396.0C175.0 292.0 309.0 540.0 -11.0 598.0Z"/></g>
<g fill="red" transform="translate(500 500) scale(0.1 -0.1)"><path d="M0.0 0.0C-11.0 0.0 -45.0 0.0 -45.0 0.0V-23.0C-24.0 -25.0 -9.0 -26.0 4.0 -36.0C23.0 -49.0 29.0 -117.0 18.0 -217.0C17.0 -246.0 24.0 -265.0 39.0 -265.0C65.0 -265.0 78.0 -242.0 80.0 -204.0C84.0 -130.0 63.0 -79.0 63.0 -41.0C63.0 -18.0 70.0 8.0 77.0 34.0C91.0 69.0 168.0 252.0 204.0 347.0L185.0 352.0C39.0 49.0 39.0 49.0 22.0 19.0C13.0 0.0 9.0 0.0 0.0 0.0ZM-16.0 500.0 -28.0 492.0C16.0 455.0 70.0 390.0 83.0 340.0C139.0 303.0 175.0 425.0 -16.0 500.0Z"/></g>
<g fill="black" opacity=".8" transform="translate(500 500) scale(0.1 -0.1)"><path d="M0.0 0.0C-11.0 0.0 -45.0 0.0 -45.0 0.0V-23.0C-25.0 -25.0 -9.0 -27.0 3.0 -37.0C23.0 -49.0 29.0 -117.0 19.0 -217.0C18.0 -247.0 25.0 -266.0 40.0 -266.0C67.0 -266.0 80.0 -243.0 81.0 -205.0C85.0 -131.0 64.0 -80.0 64.0 -41.0C64.0 -19.0 71.0 8.0 80.0 34.0C93.0 69.0 176.0 252.0 214.0 346.0L196.0 352.0C40.0 49.0 40.0 49.0 23.0 18.0C13.0 -0.0 10.0 0.0 0.0 0.0ZM-10.0 509.0 -22.0 499.0C20.0 460.0 72.0 392.0 84.0 340.0C141.0 301.0 178.0 423.0 -10.0 509.0Z"/></g>
<g fill="red" transform="translate(600 500) scale(0.1 -0.1)"><path d="M0.0 0.0C-11.0 0.0 -45.0 0.0 -45.0 0.0V-17.0C-24.0 -19.0 -9.0 -25.0 5.0 -34.0C29.0 -49.0 32.0 -143.0 12.0 -244.0C22.0 -281.0 53.0 -294.0 79.0 -294.0C137.0 -294.0 180.0 -259.0 182.0 -206.0C186.0 -119.0 137.0 -93.0 134.0 -37.0C133.0 -14.0 140.0 21.0 147.0 50.0C156.0 93.0 202.0 252.0 228.0 338.0L214.0 342.0C59.0 52.0 59.0 52.0 35.0 18.0C22.0 0.0 17.0 0.0 0.0 0.0ZM-10.0 527.0 -17.0 522.0C16.0 471.0 43.0 399.0 45.0 330.0C173.0 222.0 313.0 471.0 -10.0 527.0Z"/></g>
<g fill="black" opacity=".8" transform="translate(600 500) scale(0.1 -0.1)"><path d="M0.0 0.0C-11.0 0.0 -46.0 0.0 -46.0 0.0V-19.0C-25.0 -20.0 -9.0 -26.0 5.0 -35.0C28.0 -49.0 32.0 -142.0 13.0 -242.0C22.0 -278.0 51.0 -293.0 74.0 -293.0C131.0 -293.0 172.0 -258.0 174.0 -206.0C178.0 -121.0 131.0 -91.0 128.0 -38.0C127.0 -15.0 135.0 20.0 141.0 49.0C152.0 91.0 201.0 251.0 229.0 339.0L214.0 341.0C59.0 52.0 59.0 52.0 35.0 19.0C22.0 0.0 17.0 0.0 0.0 0.0ZM-5.0 528.0 -14.0 524.0C18.0 472.0 41.0 398.0 42.0 329.0C161.0 225.0 298.0 460.0 -5.0 528.0Z"/></g>
<g fill="red" transform="translate(700 500) scale(0.1 -0.1)"><path d="M0.0 0.0C-11.0 0.0 -42.0 0.0 -42.0 0.0V-24.0C-22.0 -26.0 -9.0 -27.0 4.0 -36.0C24.0 -49.0 29.0 -120.0 18.0 -219.0C18.0 -248.0 24.0 -267.0 38.0 -267.0C63.0 -267.0 76.0 -245.0 78.0 -207.0C82.0 -132.0 61.0 -79.0 61.0 -40.0C61.0 -17.0 67.0 10.0 74.0 35.0C86.0 73.0 152.0 262.0 184.0 363.0L165.0 367.0C35.0 51.0 35.0 51.0 22.0 20.0C13.0 0.0 10.0 0.0 0.0 0.0ZM0.0 562.0 -12.0 554.0C33.0 516.0 86.0 449.0 99.0 396.0C154.0 358.0 191.0 482.0 0.0 562.0Z"/></g>
<g fill="black" opacity=".8" transform="translate(700 500) scale(0.1 -0.1)"><path d="M0.0 0.0C-11.0 0.0 -41.0 0.0 -41.0 0.0V-23.0C-22.0 -25.0 -8.0 -26.0 3.0 -36.0C23.0 -48.0 29.0 -117.0 19.0 -214.0C17.0 -243.0 24.0 -262.0 38.0 -262.0C63.0 -262.0 76.0 -240.0 77.0 -203.0C81.0 -129.0 61.0 -77.0 60.0 -40.0C61.0 -17.0 66.0 10.0 75.0 35.0C86.0 72.0 156.0 260.0 189.0 359.0L170.0 364.0C35.0 50.0 35.0 50.0 22.0 19.0C13.0 -1.0 9.0 0.0 0.0 0.0ZM-12.0 560.0 -22.0 551.0C22.0 514.0 79.0 446.0 91.0 394.0C147.0 357.0 182.0 480.0 -12.0 560.0Z"/></g>
<g fill="red" transform="translate(800 500) scale(0.1 -0.1)"><path d="M0.0 0.0C-11.0 0.0 -44.0 0.0 -44.0 0.0V-18.0C-23.0 -20.0 -7.0 -25.0 6.0 -34.0C29.0 -49.0 32.0 -144.0 13.0 -244.0C22.0 -281.0 49.0 -294.0 73.0 -294.0C126.0 -294.0 162.0 -260.0 164.0 -210.0C168.0 -122.0 123.0 -90.0 121.0 -36.0C120.0 -11.0 125.0 24.0 131.0 55.0C140.0 105.0 187.0 302.0 213.0 408.0L198.0 411.0C50.0 56.0 50.0 56.0 30.0 20.0C19.0 0.0 15.0 0.0 0.0 0.0ZM-5.0 566.0 -13.0 561.0C23.0 515.0 51.0 445.0 51.0 382.0C165.0 287.0 289.0 515.0 -5.0 566.0Z"/></g>
<g fill="black" opacity=".8" transform="translate(800 500) scale(0.1 -0.1)"><path d="M0.0 0.0C-11.0 0.0 -43.0 0.0 -43.0 0.0V-17.0C-23.0 -18.0 -7.0 -24.0 7.0 -33.0C29.0 -47.0 32.0 -143.0 13.0 -239.0C22.0 -276.0 53.0 -288.0 76.0 -288.0C133.0 -288.0 173.0 -252.0 175.0 -202.0C179.0 -115.0 131.0 -88.0 128.0 -34.0C127.0 -10.0 133.0 26.0 138.0 57.0C149.0 107.0 190.0 297.0 215.0 400.0L202.0 402.0C52.0 54.0 52.0 54.0 32.0 20.0C21.0 0.0 16.0 0.0 0.0 0.0ZM-13.0 575.0 -20.0 571.0C17.0 522.0 45.0 449.0 49.0 383.0C168.0 285.0 294.0 523.0 -13.0 575.0Z"/></g>
<g fill="red" transform="translate(900 500) scale(0.1 -0.1)"><path d="M0.0 0.0C-11.0 0.0 -43.0 0.0 -43.0 0.0V-24.0C-23.0 -26.0 -9.0 -28.0 4.0 -36.0C25.0 -50.0 31.0 -119.0 20.0 -219.0C19.0 -248.0 25.0 -267.0 39.0 -267.0C65.0 -267.0 78.0 -245.0 80.0 -206.0C84.0 -130.0 62.0 -79.0 62.0 -40.0C62.0 -17.0 68.0 11.0 77.0 40.0C91.0 82.0 174.0 300.0 215.0 416.0L196.0 421.0C37.0 53.0 37.0 53.0 22.0 21.0C13.0 0.0 10.0 0.0 0.0 0.0ZM-23.0 577.0 -34.0 568.0C16.0 531.0 81.0 464.0 100.0 413.0C159.0 378.0 188.0 505.0 -23.0 577.0Z"/></g>
<g fill="black" opacity=".8" transform="translate(900 500) scale(0.1 -0.1)"><path d="M0.0 0.0C-11.0 0.0 -41.0 0.0 -41.0 0.0V-23.0C-22.0 -25.0 -8.0 -27.0 4.0 -36.0C25.0 -49.0 31.0 -118.0 21.0 -218.0C19.0 -247.0 25.0 -266.0 39.0 -266.0C65.0 -266.0 77.0 -245.0 78.0 -206.0C83.0 -129.0 61.0 -79.0 61.0 -40.0C61.0 -17.0 68.0 11.0 77.0 39.0C91.0 81.0 179.0 302.0 222.0 419.0L203.0 424.0C37.0 52.0 37.0 52.0 23.0 20.0C13.0 -0.0 10.0 0.0 0.0 0.0ZM-15.0 584.0 -26.0 575.0C23.0 538.0 88.0 470.0 104.0 418.0C162.0 383.0 193.0 508.0 -15.0 584.0Z"/></g>
<g fill="red" transform="translate(1000 500) scale(0.1 -0.1)"><path d="M0.0 0.0C-11.0 0.0 -46.0 0.0 -46.0 0.0V-17.0C-25.0 -19.0 -7.0 -24.0 7.0 -34.0C31.0 -50.0 34.0 -146.0 13.0 -244.0C25.0 -283.0 57.0 -294.0 83.0 -294.0C144.0 -294.0 186.0 -257.0 187.0 -205.0C190.0 -117.0 140.0 -92.0 138.0 -35.0C137.0 -9.0 144.0 30.0 152.0 65.0C164.0 123.0 223.0 349.0 258.0 471.0L244.0 475.0C58.0 60.0 58.0 60.0 33.0 21.0C21.0 0.0 17.0 0.0 0.0 0.0ZM-6.0 598.0 -13.0 592.0C32.0 546.0 70.0 473.0 77.0 405.0C209.0 310.0 327.0 571.0 -6.0 598.0Z"/></g>
<g fill="black" opacity=".8" transform="translate(1000 500) scale(0.1 -0.1)"><path d="M0.0 0.0C-11.0 0.0 -45.0 0.0 -45.0 0.0V-17.0C-25.0 -18.0 -7.0 -24.0 7.0 -34.0C31.0 -49.0 35.0 -146.0 14.0 -244.0C25.0 -283.0 56.0 -294.0 81.0 -294.0C140.0 -294.0 181.0 -257.0 183.0 -205.0C186.0 -118.0 137.0 -91.0 135.0 -36.0C134.0 -10.0 142.0 28.0 150.0 64.0C164.0 122.0 224.0 345.0 261.0 468.0L248.0 471.0C57.0 59.0 57.0 59.0 33.0 20.0C21.0 0.0 17.0 0.0 0.0 0.0ZM-18.0 597.0 -25.0 592.0C20.0 543.0 57.0 469.0 66.0 400.0C193.0 305.0 311.0 560.0 -18.0 597.0Z"/></g>
<g fill="red" transform="translate(1100 500) scale(0.1 -0.1)"><path d="M0.0 0.0C-11.0 0.0 -43.0 0.0 -43.0 0.0V-24.0C-23.0 -26.0 -9.0 -28.0 4.0 -36.0C25.0 -50.0 31.0 -119.0 20.0 -219.0C19.0 -248.0 25.0 -267.0 39.0 -267.0C65.0 -267.0 78.0 -245.0 80.0 -206.0C84.0 -130.0 62.0 -79.0 62.0 -40.0C62.0 -17.0 68.0 11.0 77.0 40.0C91.0 82.0 174.0 300.0 215.0 416.0L196.0 421.0C37.0 53.0 37.0 53.0 22.0 21.0C13.0 0.0 10.0 0.0 0.0 0.0ZM-16.0 568.0 -28.0 559.0C17.0 522.0 73.0 455.0 86.0 403.0C143.0 365.0 178.0 489.0 -16.0 568.0Z"/></g>
<g fill="black" opacity=".8" transform="translate(1100 500) scale(0.1 -0.1)"><path d="M0.0 0.0C-11.0 0.0 -43.0 0.0 -43.0 0.0V-24.0C-22.0 -26.0 -9.0 -27.0 3.0 -37.0C24.0 -50.0 30.0 -119.0 19.0 -219.0C18.0 -247.0 25.0 -267.0 40.0 -267.0C67.0 -267.0 79.0 -244.0 80.0 -206.0C84.0 -130.0 63.0 -80.0 62.0 -40.0C63.0 -17.0 69.0 12.0 78.0 41.0C91.0 83.0 173.0 301.0 212.0 416.0L193.0 421.0C37.0 53.0 37.0 53.0 22.0 20.0C13.0 -0.0 10.0 0.0 0.0 0.0ZM-14.0 563.0 -25.0 554.0C21.0 516.0 77.0 448.0 91.0 395.0C148.0 357.0 184.0 483.0 -14.0 563.0Z"/></g>
<g fill="red" transform="translate(1200 500) scale(0.1 -0.1)"><path d="M0.0 0.0C-11.0 0.0 -45.0 0.0 -45.0 0.0V-17.0C-24.0 -19.0 -7.0 -24.0 6.0 -33.0C30.0 -49.0 33.0 -146.0 12.0 -244.0C23.0 -283.0 55.0 -294.0 81.0 -294.0C141.0 -294.0 184.0 -258.0 186.0 -205.0C189.0 -117.0 139.0 -92.0 136.0 -34.0C135.0 -10.0 141.0 28.0 147.0 60.0C157.0 112.0 202.0 310.0 229.0 417.0L215.0 420.0C55.0 56.0 55.0 56.0 33.0 20.0C21.0 0.0 17.0 0.0 0.0 0.0ZM-7.0 572.0 -15.0 567.0C21.0 519.0 47.0 448.0 46.0 382.0C169.0 277.0 307.0 522.0 -7.0 572.0Z"/></g>
<g fill="black" opacity=".8" transform="translate(1200 500) scale(0.1 -0.1)"><path d="M0.0 0.0C-11.0 0.0 -46.0 0.0 -46.0 0.0V-18.0C-24.0 -19.0 -8.0 -25.0 6.0 -35.0C29.0 -49.0 33.0 -146.0 13.0 -244.0C23.0 -282.0 54.0 -294.0 78.0 -294.0C137.0 -294.0 179.0 -257.0 181.0 -206.0C184.0 -118.0 135.0 -90.0 133.0 -35.0C132.0 -10.0 138.0 26.0 144.0 59.0C155.0 111.0 202.0 309.0 230.0 417.0L216.0 419.0C55.0 56.0 55.0 56.0 33.0 20.0C22.0 0.0 17.0 0.0 0.0 0.0ZM-11.0 583.0 -19.0 578.0C19.0 527.0 49.0 451.0 52.0 381.0C176.0 279.0 308.0 527.0 -11.0 583.0Z"/></g>
<g fill="red" transform="translate(1300 500) scale(0.1 -0.1)"><path d="M0.0 0.0C-11.0 0.0 -45.0 0.0 -45.0 0.0V-22.0C-24.0 -24.0 -10.0 -27.0 3.0 -36.0C23.0 -49.0 29.0 -116.0 18.0 -216.0C18.0 -246.0 24.0 -265.0 40.0 -265.0C66.0 -265.0 78.0 -243.0 80.0 -204.0C84.0 -130.0 64.0 -79.0 64.0 -41.0C64.0 -18.0 71.0 7.0 79.0 32.0C94.0 67.0 178.0 249.0 218.0 343.0L199.0 349.0C41.0 49.0 41.0 49.0 23.0 19.0C13.0 0.0 9.0 0.0 0.0 0.0ZM-11.0 508.0 -22.0 499.0C24.0 463.0 82.0 399.0 98.0 350.0C156.0 314.0 188.0 438.0 -11.0 508.0Z"/></g>
<g fill="black" opacity=".8" transform="translate(1300 500) scale(0.1 -0.1)"><path d="M0.0 0.0C-11.0 0.0 -44.0 0.0 -44.0 0.0V-23.0C-24.0 -25.0 -9.0 -27.0 3.0 -37.0C24.0 -49.0 29.0 -117.0 19.0 -218.0C18.0 -248.0 25.0 -267.0 39.0 -267.0C66.0 -267.0 78.0 -245.0 79.0 -206.0C84.0 -131.0 64.0 -79.0 63.0 -41.0C63.0 -19.0 70.0 7.0 79.0 33.0C92.0 68.0 176.0 251.0 214.0 345.0L196.0 351.0C39.0 49.0 39.0 49.0 23.0 18.0C13.0 -0.0 10.0 0.0 0.0 0.0ZM-6.0 522.0 -18.0 512.0C26.0 477.0 81.0 412.0 94.0 362.0C151.0 325.0 186.0 447.0 -6.0 522.0Z"/></g>
<g fill="red" transform="translate(1400 500) scale(0.1 -0.1)"><path d="M0.0 0.0C-11.0 0.0 -45.0 0.0 -45.0 0.0V-18.0C-24.0 -20.0 -9.0 -25.0 5.0 -34.0C28.0 -49.0 32.0 -142.0 12.0 -244.0C22.0 -280.0 50.0 -294.0 74.0 -294.0C129.0 -294.0 170.0 -261.0 172.0 -209.0C175.0 -122.0 129.0 -93.0 126.0 -38.0C125.0 -15.0 132.0 19.0 139.0 46.0C149.0 87.0 195.0 240.0 221.0 323.0L206.0 327.0C57.0 51.0 57.0 51.0 34.0 18.0C21.0 0.0 16.0 0.0 0.0 0.0ZM4.0 553.0 -4.0 548.0C29.0 497.0 57.0 425.0 60.0 357.0C180.0 255.0 312.0 492.0 4.0 553.0Z"/></g>
<g fill="black" opacity=".8" transform="translate(1400 500) scale(0.1 -0.1)"><path d="M0.0 0.0C-11.0 0.0 -46.0 0.0 -46.0 0.0V-18.0C-24.0 -19.0 -9.0 -25.0 5.0 -35.0C28.0 -48.0 31.0 -143.0 13.0 -243.0C21.0 -280.0 51.0 -294.0 74.0 -294.0C130.0 -294.0 173.0 -258.0 175.0 -207.0C179.0 -120.0 132.0 -92.0 128.0 -38.0C127.0 -15.0 134.0 19.0 141.0 47.0C151.0 88.0 196.0 239.0 223.0 322.0L209.0 325.0C58.0 50.0 58.0 50.0 35.0 18.0C22.0 0.0 17.0 0.0 0.0 0.0ZM-2.0 539.0 -10.0 536.0C24.0 485.0 49.0 412.0 51.0 344.0C173.0 241.0 310.0 482.0 -2.0 539.0Z"/></g>
<g fill="red" transform="translate(1500 500) scale(0.1 -0.1)"><path d="M0.0 0.0C-11.0 0.0 -46.0 0.0 -46.0 0.0V-22.0C-25.0 -24.0 -10.0 -27.0 3.0 -36.0C25.0 -49.0 31.0 -116.0 20.0 -216.0C19.0 -245.0 26.0 -265.0 42.0 -265.0C69.0 -265.0 81.0 -242.0 83.0 -202.0C86.0 -128.0 65.0 -79.0 65.0 -40.0C65.0 -16.0 73.0 11.0 82.0 40.0C99.0 83.0 207.0 316.0 258.0 436.0L239.0 442.0C41.0 54.0 41.0 54.0 23.0 20.0C13.0 1.0 11.0 0.0 0.0 0.0ZM4.0 543.0 -7.0 534.0C39.0 499.0 97.0 435.0 113.0 386.0C171.0 350.0 203.0 473.0 4.0 543.0Z"/></g>
<g fill="black" opacity=".8" transform="translate(1500 500) scale(0.1 -0.1)"><path d="M0.0 0.0C-11.0 0.0 -44.0 0.0 -44.0 0.0V-22.0C-23.0 -25.0 -9.0 -27.0 3.0 -36.0C25.0 -49.0 31.0 -116.0 20.0 -216.0C19.0 -245.0 25.0 -265.0 40.0 -265.0C67.0 -265.0 78.0 -243.0 79.0 -204.0C83.0 -128.0 63.0 -79.0 62.0 -40.0C62.0 -17.0 70.0 11.0 80.0 40.0C96.0 83.0 202.0 315.0 252.0 436.0L234.0 442.0C40.0 52.0 40.0 52.0 23.0 19.0C12.0 0.0 10.0 0.0 0.0 0.0ZM-11.0 542.0 -21.0 532.0C27.0 499.0 88.0 436.0 106.0 388.0C164.0 355.0 193.0 475.0 -11.0 542.0Z"/></g>
<g fill="red" transform="translate(1600 500) scale(0.1 -0.1)"><path d="M0.0 0.0C-11.0 0.0 -47.0 0.0 -47.0 0.0V-18.0C-26.0 -20.0 -9.0 -25.0 5.0 -34.0C30.0 -50.0 33.0 -142.0 14.0 -243.0C24.0 -281.0 52.0 -294.0 77.0 -294.0C132.0 -294.0 172.0 -260.0 174.0 -209.0C177.0 -122.0 131.0 -93.0 129.0 -39.0C128.0 -14.0 137.0 22.0 145.0 53.0C159.0 102.0 226.0 298.0 264.0 404.0L250.0 408.0C60.0 56.0 60.0 56.0 34.0 19.0C21.0 0.0 17.0 0.0 0.0 0.0ZM1.0 560.0 -7.0 555.0C30.0 505.0 64.0 432.0 70.0 364.0C194.0 267.0 317.0 510.0 1.0 560.0Z"/></g>
<g fill="black" opacity=".8" transform="translate(1600 500) scale(0.1 -0.1)"><path d="M0.0 0.0C-11.0 0.0 -47.0 0.0 -47.0 0.0V-17.0C-26.0 -18.0 -8.0 -25.0 6.0 -34.0C30.0 -49.0 34.0 -143.0 14.0 -243.0C24.0 -280.0 54.0 -293.0 78.0 -293.0C136.0 -293.0 178.0 -257.0 181.0 -205.0C184.0 -120.0 136.0 -92.0 134.0 -38.0C133.0 -14.0 142.0 23.0 150.0 54.0C165.0 104.0 229.0 294.0 268.0 399.0L254.0 402.0C62.0 55.0 62.0 55.0 35.0 19.0C23.0 0.0 17.0 0.0 0.0 0.0ZM-7.0 559.0 -14.0 555.0C29.0 505.0 64.0 431.0 71.0 361.0C202.0 262.0 326.0 521.0 -7.0 559.0Z"/></g>
<g fill="red" transform="translate(100 600) scale(0.1 -0.1)"><path d="M0.0 0.0C-11.0 0.0 -45.0 0.0 -45.0 0.0V-24.0C-25.0 -26.0 -9.0 -28.0 4.0 -36.0C26.0 -50.0 32.0 -121.0 21.0 -226.0C20.0 -257.0 26.0 -276.0 40.0 -276.0C66.0 -276.0 79.0 -254.0 81.0 -214.0C85.0 -136.0 64.0 -82.0 63.0 -42.0C63.0 -20.0 71.0 6.0 81.0 32.0C96.0 69.0 189.0 265.0 233.0 367.0L215.0 372.0C42.0 50.0 42.0 50.0 24.0 19.0C15.0 0.0 11.0 0.0 0.0 0.0ZM-15.0 570.0 -26.0 561.0C21.0 524.0 83.0 457.0 98.0 405.0C156.0 369.0 188.0 495.0 -15.0 570.0Z"/></g>
<g fill="black" opacity=".8" transform="translate(100 600) scale(0.1 -0.1)"><path d="M0.0 0.0C-11.0 0.0 -44.0 0.0 -44.0 0.0V-23.0C-24.0 -25.0 -9.0 -27.0 4.0 -37.0C25.0 -50.0 31.0 -121.0 20.0 -225.0C18.0 -255.0 25.0 -275.0 40.0 -275.0C66.0 -275.0 79.0 -253.0 80.0 -213.0C84.0 -135.0 64.0 -81.0 63.0 -42.0C64.0 -19.0 70.0 8.0 80.0 34.0C93.0 72.0 180.0 268.0 220.0 371.0L201.0 376.0C39.0 51.0 39.0 51.0 23.0 19.0C13.0 -0.0 10.0 0.0 0.0 0.0ZM-7.0 568.0 -17.0 557.0C31.0 522.0 91.0 457.0 107.0 407.0C166.0 371.0 199.0 496.0 -7.0 568.0Z"/></g>
<g fill="red" transform="translate(200 600) scale(0.1 -0.1)"><path d="M0.0 0.0C-11.0 0.0 -45.0 0.0 -45.0 0.0V-17.0C-24.0 -19.0 -9.0 -25.0 6.0 -33.0C29.0 -49.0 32.0 -144.0 12.0 -244.0C23.0 -282.0 54.0 -294.0 80.0 -294.0C140.0 -294.0 184.0 -258.0 186.0 -205.0C189.0 -118.0 140.0 -93.0 136.0 -36.0C136.0 -13.0 142.0 24.0 149.0 53.0C159.0 99.0 206.0 270.0 233.0 362.0L220.0 366.0C59.0 54.0 59.0 54.0 35.0 19.0C22.0 0.0 17.0 0.0 0.0 0.0ZM-8.0 586.0 -15.0 581.0C28.0 531.0 62.0 455.0 66.0 384.0C195.0 281.0 323.0 541.0 -8.0 586.0Z"/></g>
<g fill="black" opacity=".8" transform="translate(200 600) scale(0.1 -0.1)"><path d="M0.0 0.0C-11.0 0.0 -46.0 0.0 -46.0 0.0V-18.0C-25.0 -19.0 -8.0 -25.0 6.0 -35.0C30.0 -49.0 33.0 -149.0 13.0 -251.0C23.0 -289.0 54.0 -303.0 78.0 -303.0C136.0 -303.0 180.0 -266.0 183.0 -212.0C186.0 -123.0 137.0 -94.0 134.0 -38.0C133.0 -14.0 140.0 22.0 147.0 52.0C158.0 98.0 206.0 271.0 236.0 366.0L222.0 369.0C59.0 53.0 59.0 53.0 35.0 19.0C22.0 0.0 17.0 0.0 0.0 0.0ZM-6.0 582.0 -13.0 578.0C27.0 527.0 58.0 453.0 63.0 384.0C192.0 281.0 326.0 537.0 -6.0 582.0Z"/></g>
<g fill="red" transform="translate(300 600) scale(0.1 -0.1)"><path d="M0.0 0.0C-11.0 0.0 -44.0 0.0 -44.0 0.0V-22.0C-23.0 -24.0 -9.0 -26.0 4.0 -36.0C23.0 -49.0 29.0 -118.0 17.0 -216.0C17.0 -246.0 24.0 -265.0 39.0 -265.0C65.0 -265.0 79.0 -242.0 81.0 -204.0C84.0 -130.0 63.0 -77.0 63.0 -40.0C63.0 -17.0 69.0 9.0 77.0 35.0C89.0 71.0 163.0 256.0 198.0 353.0L179.0 358.0C38.0 51.0 38.0 51.0 22.0 20.0C14.0 0.0 10.0 0.0 0.0 0.0ZM-15.0 520.0 -26.0 512.0C17.0 476.0 73.0 412.0 86.0 363.0C143.0 325.0 177.0 448.0 -15.0 520.0Z"/></g>
<g fill="black" opacity=".8" transform="translate(300 600) scale(0.1 -0.1)"><path d="M0.0 0.0C-11.0 0.0 -43.0 0.0 -43.0 0.0V-23.0C-23.0 -25.0 -9.0 -27.0 3.0 -37.0C23.0 -49.0 29.0 -117.0 18.0 -216.0C17.0 -245.0 24.0 -264.0 39.0 -264.0C66.0 -264.0 78.0 -242.0 79.0 -204.0C84.0 -130.0 63.0 -79.0 62.0 -41.0C63.0 -18.0 70.0 9.0 78.0 35.0C90.0 71.0 166.0 255.0 201.0 350.0L182.0 355.0C38.0 50.0 38.0 50.0 22.0 19.0C12.0 -0.0 10.0 0.0 0.0 0.0ZM-9.0 522.0 -21.0 513.0C21.0 475.0 72.0 408.0 84.0 356.0C140.0 317.0 178.0 440.0 -9.0 522.0Z"/></g>
<g fill="red" transform="translate(400 600) scale(0.1 -0.1)"><path d="M0.0 0.0C-11.0 0.0 -44.0 0.0 -44.0 0.0V-18.0C-23.0 -20.0 -8.0 -25.0 6.0 -34.0C28.0 -49.0 31.0 -143.0 12.0 -244.0C21.0 -281.0 50.0 -294.0 74.0 -294.0C129.0 -294.0 169.0 -260.0 171.0 -209.0C175.0 -121.0 129.0 -92.0 126.0 -37.0C125.0 -14.0 131.0 21.0 137.0 48.0C145.0 91.0 188.0 252.0 211.0 338.0L197.0 342.0C55.0 52.0 55.0 52.0 33.0 19.0C21.0 0.0 16.0 0.0 0.0 0.0ZM-15.0 537.0 -23.0 532.0C10.0 481.0 38.0 409.0 41.0 341.0C161.0 239.0 293.0 476.0 -15.0 537.0Z"/></g>
<g fill="black" opacity=".8" transform="translate(400 600) scale(0.1 -0.1)"><path d="M0.0 0.0C-11.0 0.0 -45.0 0.0 -45.0 0.0V-18.0C-24.0 -19.0 -9.0 -25.0 5.0 -35.0C27.0 -48.0 31.0 -142.0 12.0 -241.0C21.0 -277.0 51.0 -291.0 74.0 -291.0C130.0 -291.0 172.0 -255.0 174.0 -204.0C178.0 -118.0 130.0 -89.0 127.0 -36.0C126.0 -13.0 132.0 21.0 138.0 50.0C147.0 93.0 188.0 252.0 211.0 340.0L196.0 342.0C55.0 51.0 55.0 51.0 34.0 19.0C22.0 0.0 16.0 0.0 0.0 0.0ZM-5.0 542.0 -13.0 538.0C18.0 486.0 41.0 413.0 42.0 345.0C160.0 241.0 298.0 476.0 -5.0 542.0Z"/></g>
<g fill="red" transform="translate(500 600) scale(0.1 -0.1)"><path d="M0.0 0.0C-11.0 0.0 -43.0 0.0 -43.0 0.0V-24.0C-23.0 -26.0 -9.0 -28.0 4.0 -36.0C25.0 -50.0 31.0 -119.0 20.0 -219.0C19.0 -248.0 25.0 -267.0 40.0 -267.0C66.0 -267.0 78.0 -245.0 80.0 -206.0C84.0 -130.0 63.0 -80.0 62.0 -40.0C62.0 -17.0 69.0 11.0 78.0 39.0C92.0 81.0 179.0 298.0 221.0 412.0L202.0 418.0C38.0 53.0 38.0 53.0 23.0 20.0C14.0 0.0 10.0 0.0 0.0 0.0ZM-17.0 572.0 -28.0 563.0C20.0 526.0 83.0 459.0 99.0 407.0C157.0 372.0 189.0 497.0 -17.0 572.0Z"/></g>
<g fill="black" opacity=".8" transform="translate(500 600) scale(0.1 -0.1)"><path d="M0.0 0.0C-11.0 0.0 -41.0 0.0 -41.0 0.0V-23.0C-22.0 -26.0 -8.0 -27.0 4.0 -36.0C24.0 -49.0 31.0 -118.0 20.0 -217.0C19.0 -245.0 25.0 -265.0 39.0 -265.0C66.0 -265.0 78.0 -243.0 79.0 -205.0C83.0 -129.0 62.0 -79.0 61.0 -40.0C62.0 -17.0 68.0 12.0 77.0 41.0C89.0 83.0 168.0 299.0 206.0 414.0L187.0 419.0C36.0 53.0 36.0 53.0 22.0 20.0C13.0 -0.0 10.0 0.0 0.0 0.0ZM-16.0 574.0 -27.0 564.0C19.0 526.0 78.0 457.0 91.0 403.0C149.0 366.0 183.0 491.0 -16.0 574.0Z"/></g>
<g fill="red" transform="translate(600 600) scale(0.1 -0.1)"><path d="M0.0 0.0C-11.0 0.0 -44.0 0.0 -44.0 0.0V-18.0C-23.0 -19.0 -7.0 -25.0 7.0 -34.0C30.0 -49.0 33.0 -146.0 13.0 -244.0C23.0 -282.0 52.0 -294.0 77.0 -294.0C134.0 -294.0 172.0 -259.0 174.0 -208.0C177.0 -119.0 130.0 -90.0 128.0 -34.0C127.0 -9.0 132.0 28.0 138.0 62.0C148.0 118.0 196.0 336.0 223.0 453.0L208.0 457.0C51.0 58.0 51.0 58.0 31.0 21.0C20.0 0.0 16.0 0.0 0.0 0.0ZM-29.0 590.0 -37.0 584.0C8.0 534.0 46.0 456.0 52.0 385.0C175.0 289.0 291.0 539.0 -29.0 590.0Z"/></g>
<g fill="black" opacity=".8" transform="translate(600 600) scale(0.1 -0.1)"><path d="M0.0 0.0C-11.0 0.0 -45.0 0.0 -45.0 0.0V-18.0C-24.0 -19.0 -7.0 -24.0 7.0 -34.0C30.0 -48.0 33.0 -145.0 13.0 -242.0C23.0 -280.0 55.0 -292.0 79.0 -292.0C138.0 -292.0 179.0 -255.0 181.0 -204.0C184.0 -116.0 135.0 -89.0 133.0 -34.0C132.0 -9.0 139.0 29.0 144.0 63.0C156.0 119.0 206.0 332.0 236.0 449.0L222.0 452.0C54.0 58.0 54.0 58.0 32.0 21.0C21.0 0.0 16.0 0.0 0.0 0.0ZM-16.0 591.0 -24.0 586.0C16.0 536.0 48.0 461.0 53.0 392.0C176.0 293.0 301.0 540.0 -16.0 591.0Z"/></g>
<g fill="red" transform="translate(700 600) scale(0.1 -0.1)"><path d="M0.0 0.0C-11.0 0.0 -43.0 0.0 -43.0 0.0V-24.0C-23.0 -26.0 -9.0 -28.0 4.0 -36.0C24.0 -49.0 31.0 -119.0 19.0 -219.0C19.0 -248.0 25.0 -267.0 39.0 -267.0C65.0 -267.0 78.0 -245.0 80.0 -206.0C83.0 -131.0 62.0 -79.0 62.0 -41.0C62.0 -17.0 68.0 10.0 77.0 37.0C91.0 77.0 171.0 284.0 211.0 391.0L192.0 396.0C38.0 52.0 38.0 52.0 23.0 20.0C14.0 0.0 10.0 0.0 0.0 0.0ZM-16.0 572.0 -27.0 563.0C21.0 526.0 84.0 459.0 100.0 407.0C158.0 372.0 190.0 497.0 -16.0 572.0Z"/></g>
<g fill="black" opacity=".8" transform="translate(700 600) scale(0.1 -0.1)"><path d="M0.0 0.0C-11.0 0.0 -41.0 0.0 -41.0 0.0V-23.0C-22.0 -25.0 -8.0 -27.0 4.0 -36.0C24.0 -49.0 30.0 -119.0 19.0 -218.0C18.0 -247.0 25.0 -266.0 39.0 -266.0C65.0 -266.0 77.0 -244.0 78.0 -206.0C83.0 -130.0 62.0 -79.0 61.0 -40.0C62.0 -17.0 68.0 11.0 77.0 38.0C88.0 78.0 165.0 283.0 201.0 391.0L182.0 396.0C36.0 52.0 36.0 52.0 22.0 20.0C13.0 -0.0 10.0 0.0 0.0 0.0ZM-13.0 572.0 -24.0 563.0C22.0 526.0 81.0 457.0 94.0 405.0C151.0 368.0 186.0 493.0 -13.0 572.0Z"/></g>
<g fill="red" transform="translate(800 600) scale(0.1 -0.1)"><path d="M0.0 0.0C-11.0 0.0 -44.0 0.0 -44.0 0.0V-18.0C-23.0 -19.0 -7.0 -25.0 6.0 -34.0C29.0 -49.0 33.0 -145.0 13.0 -244.0C23.0 -282.0 52.0 -294.0 77.0 -294.0C133.0 -294.0 172.0 -259.0 174.0 -208.0C177.0 -119.0 130.0 -91.0 127.0 -35.0C127.0 -10.0 132.0 26.0 138.0 58.0C148.0 110.0 194.0 311.0 221.0 420.0L207.0 423.0C52.0 56.0 52.0 56.0 31.0 20.0C20.0 0.0 16.0 0.0 0.0 0.0ZM-29.0 590.0 -37.0 584.0C8.0 534.0 46.0 456.0 52.0 385.0C175.0 289.0 291.0 539.0 -29.0 590.0Z"/></g>
<g fill="black" opacity=".8" transform="translate(800 600) scale(0.1 -0.1)"><path d="M0.0 0.0C-11.0 0.0 -45.0 0.0 -45.0 0.0V-18.0C-24.0 -19.0 -7.0 -24.0 7.0 -34.0C29.0 -48.0 33.0 -146.0 13.0 -243.0C23.0 -281.0 54.0 -293.0 78.0 -293.0C136.0 -293.0 178.0 -256.0 180.0 -205.0C183.0 -117.0 135.0 -90.0 132.0 -35.0C131.0 -10.0 137.0 27.0 143.0 59.0C153.0 112.0 199.0 312.0 227.0 421.0L213.0 423.0C54.0 56.0 54.0 56.0 32.0 20.0C21.0 0.0 16.0 0.0 0.0 0.0ZM-13.0 588.0 -21.0 584.0C18.0 534.0 49.0 460.0 53.0 392.0C176.0 292.0 304.0 538.0 -13.0 588.0Z"/></g>
<g fill="red" transform="translate(900 600) scale(0.1 -0.1)"><path d="M0.0 0.0C-11.0 0.0 -42.0 0.0 -42.0 0.0V-24.0C-21.0 -26.0 -9.0 -27.0 4.0 -36.0C24.0 -50.0 30.0 -121.0 19.0 -219.0C18.0 -247.0 24.0 -267.0 39.0 -267.0C65.0 -267.0 78.0 -244.0 80.0 -206.0C83.0 -130.0 62.0 -79.0 62.0 -40.0C61.0 -16.0 67.0 13.0 75.0 43.0C87.0 86.0 158.0 307.0 193.0 425.0L173.0 430.0C34.0 54.0 34.0 54.0 21.0 21.0C13.0 0.0 10.0 0.0 0.0 0.0ZM-3.0 572.0 -15.0 564.0C28.0 528.0 79.0 463.0 91.0 413.0C146.0 375.0 183.0 496.0 -3.0 572.0Z"/></g>
<g fill="black" opacity=".8" transform="translate(900 600) scale(0.1 -0.1)"><path d="M0.0 0.0C-11.0 0.0 -42.0 0.0 -42.0 0.0V-24.0C-22.0 -26.0 -9.0 -28.0 4.0 -38.0C23.0 -50.0 30.0 -121.0 18.0 -220.0C18.0 -248.0 24.0 -269.0 39.0 -269.0C67.0 -269.0 79.0 -245.0 80.0 -207.0C84.0 -131.0 63.0 -80.0 63.0 -41.0C63.0 -16.0 69.0 14.0 77.0 44.0C88.0 86.0 160.0 306.0 193.0 422.0L173.0 426.0C35.0 55.0 35.0 55.0 21.0 21.0C12.0 0.0 10.0 0.0 0.0 0.0ZM-11.0 571.0 -23.0 561.0C21.0 524.0 72.0 457.0 84.0 404.0C141.0 364.0 180.0 491.0 -11.0 571.0Z"/></g>
<g fill="red" transform="translate(1000 600) scale(0.1 -0.1)"><path d="M0.0 0.0C-11.0 0.0 -43.0 0.0 -43.0 0.0V-17.0C-22.0 -19.0 -7.0 -24.0 6.0 -33.0C29.0 -48.0 32.0 -146.0 11.0 -245.0C22.0 -283.0 53.0 -294.0 78.0 -294.0C136.0 -294.0 178.0 -258.0 180.0 -206.0C183.0 -117.0 134.0 -90.0 130.0 -34.0C129.0 -10.0 134.0 26.0 138.0 56.0C145.0 104.0 178.0 284.0 198.0 381.0L183.0 384.0C51.0 54.0 51.0 54.0 31.0 19.0C20.0 0.0 16.0 0.0 0.0 0.0ZM0.0 595.0 -9.0 591.0C15.0 534.0 34.0 461.0 32.0 391.0C147.0 278.0 297.0 504.0 0.0 595.0Z"/></g>
<g fill="black" opacity=".8" transform="translate(1000 600) scale(0.1 -0.1)"><path d="M0.0 0.0C-11.0 0.0 -44.0 0.0 -44.0 0.0V-18.0C-23.0 -19.0 -8.0 -25.0 6.0 -34.0C27.0 -48.0 31.0 -147.0 11.0 -244.0C21.0 -282.0 53.0 -294.0 77.0 -294.0C136.0 -294.0 179.0 -257.0 181.0 -206.0C185.0 -116.0 135.0 -87.0 131.0 -33.0C130.0 -9.0 134.0 26.0 137.0 57.0C144.0 105.0 174.0 286.0 191.0 382.0L175.0 384.0C50.0 53.0 50.0 53.0 32.0 20.0C21.0 0.0 16.0 0.0 0.0 0.0ZM-6.0 594.0 -15.0 590.0C20.0 537.0 45.0 462.0 44.0 391.0C167.0 283.0 310.0 528.0 -6.0 594.0Z"/></g>
<g fill="red" transform="translate(1100 600) scale(0.1 -0.1)"><path d="M0.0 0.0C-11.0 0.0 -40.0 0.0 -40.0 0.0V-23.0C-23.0 -25.0 -11.0 -27.0 0.0 -33.0C18.0 -44.0 23.0 -91.0 14.0 -168.0C15.0 -190.0 23.0 -203.0 35.0 -203.0C60.0 -203.0 73.0 -184.0 75.0 -154.0C77.0 -100.0 58.0 -65.0 58.0 -33.0C57.0 -13.0 63.0 14.0 69.0 39.0C77.0 71.0 123.0 227.0 144.0 303.0L124.0 307.0C30.0 45.0 30.0 45.0 19.0 19.0C11.0 0.0 9.0 0.0 0.0 0.0ZM-22.0 396.0 -36.0 391.0C-12.0 345.0 14.0 272.0 16.0 218.0C60.0 173.0 108.0 279.0 -22.0 396.0Z"/></g>
<g fill="black" opacity=".8" transform="translate(1100 600) scale(0.1 -0.1)"><path d="M0.0 0.0C-10.0 0.0 -36.0 0.0 -36.0 0.0V-20.0C-20.0 -23.0 -9.0 -23.0 2.0 -32.0C17.0 -42.0 23.0 -95.0 14.0 -173.0C14.0 -195.0 21.0 -210.0 34.0 -210.0C58.0 -210.0 69.0 -191.0 70.0 -161.0C74.0 -103.0 55.0 -65.0 54.0 -33.0C55.0 -13.0 60.0 13.0 66.0 37.0C73.0 69.0 117.0 227.0 139.0 308.0L121.0 311.0C28.0 44.0 28.0 44.0 17.0 18.0C10.0 -1.0 8.0 0.0 0.0 0.0ZM-23.0 391.0 -36.0 384.0C-9.0 341.0 18.0 271.0 20.0 219.0C64.0 177.0 109.0 282.0 -23.0 391.0Z"/></g>
<g fill="red" transform="translate(1200 600) scale(0.1 -0.1)"><path d="M0.0 0.0C-11.0 0.0 -41.0 0.0 -41.0 0.0V-19.0C-22.0 -20.0 -10.0 -24.0 2.0 -32.0C20.0 -43.0 23.0 -109.0 10.0 -185.0C17.0 -213.0 39.0 -226.0 60.0 -226.0C112.0 -226.0 141.0 -198.0 143.0 -160.0C146.0 -93.0 105.0 -67.0 104.0 -27.0C103.0 -5.0 107.0 26.0 111.0 52.0C116.0 91.0 147.0 253.0 162.0 339.0L146.0 342.0C42.0 50.0 42.0 50.0 27.0 19.0C17.0 0.0 14.0 0.0 0.0 0.0ZM-6.0 427.0 -18.0 423.0C-6.0 371.0 2.0 300.0 -7.0 239.0C68.0 148.0 190.0 306.0 -6.0 427.0Z"/></g>
<g fill="black" opacity=".8" transform="translate(1200 600) scale(0.1 -0.1)"><path d="M0.0 0.0C-10.0 0.0 -39.0 0.0 -39.0 0.0V-18.0C-20.0 -18.0 -8.0 -22.0 4.0 -31.0C20.0 -41.0 24.0 -114.0 11.0 -191.0C16.0 -220.0 41.0 -232.0 59.0 -232.0C108.0 -232.0 138.0 -203.0 140.0 -163.0C143.0 -94.0 103.0 -68.0 101.0 -27.0C101.0 -6.0 105.0 24.0 108.0 51.0C114.0 92.0 143.0 254.0 159.0 342.0L144.0 343.0C40.0 48.0 40.0 48.0 26.0 18.0C17.0 0.0 13.0 0.0 0.0 0.0ZM-15.0 420.0 -25.0 417.0C-11.0 367.0 -3.0 301.0 -10.0 242.0C70.0 151.0 192.0 316.0 -15.0 420.0Z"/></g>
<g fill="red" transform="translate(1300 600) scale(0.1 -0.1)"><path d="M0.0 0.0C-11.0 0.0 -43.0 0.0 -43.0 0.0V-24.0C-22.0 -26.0 -9.0 -27.0 4.0 -36.0C25.0 -50.0 31.0 -120.0 20.0 -219.0C19.0 -247.0 25.0 -267.0 40.0 -267.0C66.0 -267.0 79.0 -244.0 81.0 -206.0C85.0 -129.0 63.0 -80.0 62.0 -40.0C62.0 -16.0 69.0 14.0 77.0 43.0C91.0 89.0 177.0 323.0 220.0 448.0L200.0 453.0C37.0 55.0 37.0 55.0 22.0 21.0C13.0 1.0 10.0 0.0 0.0 0.0ZM-10.0 574.0 -21.0 565.0C24.0 529.0 83.0 463.0 97.0 411.0C155.0 375.0 188.0 499.0 -10.0 574.0Z"/></g>
<g fill="black" opacity=".8" transform="translate(1300 600) scale(0.1 -0.1)"><path d="M0.0 0.0C-11.0 0.0 -42.0 0.0 -42.0 0.0V-24.0C-22.0 -26.0 -9.0 -27.0 4.0 -37.0C25.0 -50.0 31.0 -120.0 20.0 -220.0C19.0 -248.0 25.0 -268.0 40.0 -268.0C67.0 -268.0 79.0 -245.0 80.0 -207.0C84.0 -130.0 63.0 -80.0 62.0 -40.0C62.0 -17.0 69.0 13.0 78.0 43.0C92.0 88.0 182.0 322.0 225.0 446.0L206.0 451.0C37.0 54.0 37.0 54.0 22.0 20.0C13.0 0.0 10.0 0.0 0.0 0.0ZM-14.0 576.0 -25.0 566.0C22.0 530.0 82.0 463.0 97.0 411.0C156.0 375.0 189.0 501.0 -14.0 576.0Z"/></g>
<g fill="red" transform="translate(1400 600) scale(0.1 -0.1)"><path d="M0.0 0.0C-11.0 0.0 -46.0 0.0 -46.0 0.0V-17.0C-25.0 -19.0 -8.0 -24.0 6.0 -34.0C30.0 -49.0 33.0 -145.0 13.0 -244.0C24.0 -283.0 56.0 -294.0 82.0 -294.0C143.0 -294.0 185.0 -258.0 187.0 -205.0C190.0 -117.0 140.0 -92.0 138.0 -35.0C137.0 -10.0 144.0 28.0 151.0 61.0C163.0 115.0 218.0 323.0 250.0 435.0L236.0 439.0C58.0 58.0 58.0 58.0 34.0 20.0C22.0 0.0 17.0 0.0 0.0 0.0ZM-7.0 596.0 -15.0 591.0C21.0 540.0 54.0 467.0 60.0 398.0C185.0 297.0 313.0 544.0 -7.0 596.0Z"/></g>
<g fill="black" opacity=".8" transform="translate(1400 600) scale(0.1 -0.1)"><path d="M0.0 0.0C-11.0 0.0 -46.0 0.0 -46.0 0.0V-18.0C-25.0 -19.0 -8.0 -25.0 7.0 -34.0C30.0 -49.0 33.0 -147.0 13.0 -245.0C24.0 -284.0 55.0 -296.0 80.0 -296.0C140.0 -296.0 182.0 -258.0 184.0 -206.0C187.0 -118.0 138.0 -91.0 135.0 -35.0C134.0 -10.0 141.0 27.0 147.0 61.0C159.0 116.0 212.0 324.0 244.0 438.0L229.0 441.0C56.0 57.0 56.0 57.0 34.0 20.0C22.0 0.0 17.0 0.0 0.0 0.0ZM-12.0 595.0 -20.0 590.0C22.0 539.0 56.0 463.0 61.0 393.0C190.0 292.0 318.0 548.0 -12.0 595.0Z"/></g>
<g fill="red" transform="translate(1500 600) scale(0.1 -0.1)"><path d="M0.0 0.0C-11.0 0.0 -44.0 0.0 -44.0 0.0V-24.0C-23.0 -26.0 -10.0 -28.0 4.0 -36.0C25.0 -50.0 32.0 -119.0 21.0 -219.0C20.0 -247.0 26.0 -267.0 41.0 -267.0C67.0 -267.0 80.0 -245.0 82.0 -206.0C85.0 -129.0 63.0 -80.0 63.0 -40.0C63.0 -16.0 70.0 13.0 80.0 43.0C96.0 89.0 196.0 334.0 245.0 463.0L226.0 468.0C39.0 55.0 39.0 55.0 23.0 21.0C14.0 1.0 10.0 0.0 0.0 0.0ZM-15.0 574.0 -26.0 565.0C27.0 525.0 96.0 452.0 116.0 397.0C176.0 360.0 206.0 491.0 -15.0 574.0Z"/></g>
<g fill="black" opacity=".8" transform="translate(1500 600) scale(0.1 -0.1)"><path d="M0.0 0.0C-11.0 0.0 -44.0 0.0 -44.0 0.0V-24.0C-24.0 -26.0 -9.0 -28.0 3.0 -38.0C26.0 -51.0 32.0 -122.0 21.0 -225.0C20.0 -253.0 26.0 -274.0 42.0 -274.0C69.0 -274.0 82.0 -251.0 83.0 -212.0C87.0 -133.0 65.0 -82.0 65.0 -41.0C65.0 -17.0 72.0 13.0 82.0 44.0C97.0 90.0 196.0 333.0 243.0 462.0L224.0 468.0C39.0 56.0 39.0 56.0 23.0 21.0C13.0 0.0 10.0 0.0 0.0 0.0ZM-17.0 579.0 -28.0 568.0C21.0 530.0 83.0 460.0 100.0 407.0C159.0 369.0 193.0 498.0 -17.0 579.0Z"/></g>
<g fill="red" transform="translate(1600 600) scale(0.1 -0.1)"><path d="M0.0 0.0C-11.0 0.0 -47.0 0.0 -47.0 0.0V-17.0C-25.0 -19.0 -7.0 -25.0 7.0 -34.0C32.0 -51.0 36.0 -151.0 14.0 -255.0C26.0 -295.0 58.0 -306.0 84.0 -306.0C144.0 -306.0 187.0 -268.0 189.0 -214.0C191.0 -124.0 142.0 -97.0 139.0 -38.0C139.0 -12.0 147.0 28.0 155.0 63.0C168.0 121.0 230.0 342.0 267.0 462.0L253.0 466.0C60.0 60.0 60.0 60.0 34.0 21.0C22.0 0.0 17.0 0.0 0.0 0.0ZM-16.0 608.0 -24.0 603.0C21.0 548.0 56.0 467.0 59.0 391.0C190.0 283.0 322.0 550.0 -16.0 608.0Z"/></g>
<g fill="black" opacity=".8" transform="translate(1600 600) scale(0.1 -0.1)"><path d="M0.0 0.0C-11.0 0.0 -48.0 0.0 -48.0 0.0V-18.0C-26.0 -19.0 -8.0 -26.0 7.0 -36.0C31.0 -51.0 35.0 -149.0 14.0 -251.0C25.0 -291.0 57.0 -303.0 83.0 -303.0C144.0 -303.0 187.0 -265.0 189.0 -212.0C192.0 -123.0 142.0 -94.0 140.0 -38.0C139.0 -11.0 147.0 28.0 155.0 63.0C169.0 120.0 232.0 341.0 270.0 462.0L256.0 465.0C61.0 60.0 61.0 60.0 35.0 21.0C23.0 0.0 18.0 0.0 0.0 0.0ZM-14.0 597.0 -22.0 593.0C21.0 540.0 57.0 461.0 63.0 388.0C195.0 286.0 324.0 549.0 -14.0 597.0Z"/></g>
<g fill="red" transform="translate(100 700) scale(0.1 -0.1)"><path d="M0.0 0.0C-11.0 0.0 -45.0 0.0 -45.0 0.0V-24.0C-23.0 -26.0 -9.0 -28.0 4.0 -36.0C24.0 -49.0 30.0 -118.0 19.0 -219.0C18.0 -248.0 24.0 -267.0 40.0 -267.0C65.0 -267.0 77.0 -245.0 79.0 -206.0C83.0 -131.0 63.0 -80.0 62.0 -41.0C62.0 -18.0 69.0 10.0 77.0 37.0C92.0 77.0 180.0 288.0 221.0 397.0L203.0 402.0C39.0 52.0 39.0 52.0 22.0 20.0C13.0 0.0 9.0 0.0 0.0 0.0ZM-19.0 518.0 -30.0 509.0C18.0 474.0 79.0 410.0 97.0 360.0C155.0 326.0 185.0 450.0 -19.0 518.0Z"/></g>
<g fill="black" opacity=".8" transform="translate(100 700) scale(0.1 -0.1)"><path d="M0.0 0.0C-11.0 0.0 -43.0 0.0 -43.0 0.0V-22.0C-23.0 -24.0 -9.0 -26.0 3.0 -35.0C24.0 -48.0 30.0 -113.0 19.0 -211.0C19.0 -239.0 25.0 -259.0 39.0 -259.0C65.0 -259.0 77.0 -237.0 78.0 -199.0C82.0 -126.0 62.0 -77.0 61.0 -40.0C62.0 -18.0 69.0 10.0 78.0 37.0C93.0 76.0 190.0 287.0 236.0 396.0L218.0 402.0C39.0 50.0 39.0 50.0 22.0 18.0C12.0 0.0 10.0 0.0 0.0 0.0ZM-11.0 516.0 -21.0 506.0C24.0 472.0 81.0 409.0 97.0 361.0C153.0 327.0 184.0 445.0 -11.0 516.0Z"/></g>
<g fill="red" transform="translate(200 700) scale(0.1 -0.1)"><path d="M0.0 0.0C-11.0 0.0 -47.0 0.0 -47.0 0.0V-17.0C-26.0 -19.0 -10.0 -25.0 4.0 -33.0C27.0 -48.0 31.0 -134.0 12.0 -228.0C23.0 -263.0 51.0 -277.0 76.0 -277.0C135.0 -277.0 175.0 -243.0 177.0 -194.0C180.0 -113.0 133.0 -87.0 131.0 -36.0C130.0 -12.0 138.0 23.0 146.0 52.0C159.0 97.0 221.0 275.0 255.0 371.0L241.0 375.0C61.0 54.0 61.0 54.0 35.0 19.0C22.0 0.0 17.0 0.0 0.0 0.0ZM-6.0 531.0 -13.0 526.0C30.0 476.0 64.0 401.0 68.0 331.0C198.0 230.0 325.0 489.0 -6.0 531.0Z"/></g>
<g fill="black" opacity=".8" transform="translate(200 700) scale(0.1 -0.1)"><path d="M0.0 0.0C-11.0 0.0 -46.0 0.0 -46.0 0.0V-17.0C-25.0 -18.0 -8.0 -24.0 6.0 -34.0C28.0 -48.0 32.0 -139.0 14.0 -237.0C23.0 -273.0 52.0 -286.0 75.0 -286.0C131.0 -286.0 172.0 -251.0 174.0 -201.0C177.0 -117.0 131.0 -90.0 129.0 -37.0C128.0 -14.0 137.0 21.0 144.0 51.0C158.0 97.0 217.0 273.0 252.0 371.0L239.0 374.0C60.0 53.0 60.0 53.0 34.0 19.0C22.0 0.0 17.0 0.0 0.0 0.0ZM-7.0 533.0 -14.0 529.0C24.0 480.0 55.0 407.0 61.0 340.0C185.0 242.0 310.0 487.0 -7.0 533.0Z"/></g>
<g fill="red" transform="translate(300 700) scale(0.1 -0.1)"><path d="M0.0 0.0C-11.0 0.0 -47.0 0.0 -47.0 0.0V-24.0C-25.0 -26.0 -10.0 -27.0 3.0 -36.0C25.0 -50.0 31.0 -117.0 20.0 -219.0C20.0 -247.0 25.0 -267.0 41.0 -267.0C67.0 -267.0 79.0 -245.0 81.0 -206.0C85.0 -129.0 64.0 -80.0 64.0 -41.0C64.0 -18.0 72.0 10.0 82.0 40.0C100.0 83.0 213.0 318.0 269.0 440.0L249.0 447.0C42.0 53.0 42.0 53.0 23.0 20.0C13.0 1.0 10.0 0.0 0.0 0.0ZM-17.0 527.0 -28.0 518.0C20.0 483.0 81.0 419.0 99.0 369.0C157.0 335.0 187.0 459.0 -17.0 527.0Z"/></g>
<g fill="black" opacity=".8" transform="translate(300 700) scale(0.1 -0.1)"><path d="M0.0 0.0C-11.0 0.0 -45.0 0.0 -45.0 0.0V-23.0C-24.0 -25.0 -10.0 -27.0 3.0 -37.0C25.0 -50.0 31.0 -117.0 20.0 -218.0C20.0 -246.0 26.0 -267.0 41.0 -267.0C69.0 -267.0 81.0 -244.0 82.0 -205.0C86.0 -129.0 65.0 -80.0 64.0 -41.0C64.0 -17.0 72.0 12.0 82.0 41.0C98.0 85.0 204.0 319.0 254.0 441.0L236.0 447.0C40.0 53.0 40.0 53.0 23.0 20.0C13.0 0.0 10.0 0.0 0.0 0.0ZM-15.0 535.0 -26.0 524.0C21.0 488.0 80.0 421.0 97.0 370.0C155.0 334.0 187.0 457.0 -15.0 535.0Z"/></g>
<g fill="red" transform="translate(400 700) scale(0.1 -0.1)"><path d="M0.0 0.0C-11.0 0.0 -48.0 0.0 -48.0 0.0V-17.0C-26.0 -19.0 -9.0 -25.0 6.0 -34.0C30.0 -50.0 34.0 -142.0 14.0 -244.0C25.0 -281.0 53.0 -294.0 79.0 -294.0C137.0 -294.0 177.0 -259.0 179.0 -207.0C182.0 -121.0 135.0 -94.0 133.0 -38.0C133.0 -14.0 141.0 24.0 151.0 55.0C164.0 106.0 235.0 307.0 275.0 416.0L261.0 420.0C62.0 57.0 62.0 57.0 35.0 20.0C22.0 0.0 17.0 0.0 0.0 0.0ZM-22.0 557.0 -29.0 552.0C14.0 502.0 48.0 427.0 52.0 357.0C182.0 256.0 309.0 515.0 -22.0 557.0Z"/></g>
<g fill="black" opacity=".8" transform="translate(400 700) scale(0.1 -0.1)"><path d="M0.0 0.0C-11.0 0.0 -48.0 0.0 -48.0 0.0V-18.0C-27.0 -19.0 -9.0 -25.0 6.0 -35.0C30.0 -50.0 34.0 -143.0 15.0 -245.0C25.0 -282.0 55.0 -296.0 79.0 -296.0C138.0 -296.0 180.0 -259.0 182.0 -207.0C185.0 -122.0 137.0 -93.0 135.0 -39.0C134.0 -14.0 144.0 24.0 153.0 57.0C168.0 109.0 236.0 308.0 277.0 419.0L263.0 422.0C63.0 57.0 63.0 57.0 36.0 20.0C23.0 0.0 17.0 0.0 0.0 0.0ZM-10.0 553.0 -18.0 549.0C23.0 497.0 57.0 421.0 63.0 349.0C192.0 249.0 318.0 505.0 -10.0 553.0Z"/></g>
<g fill="red" transform="translate(500 700) scale(0.1 -0.1)"><path d="M0.0 0.0C-11.0 0.0 -40.0 0.0 -40.0 0.0V-24.0C-19.0 -26.0 -7.0 -27.0 5.0 -37.0C24.0 -51.0 31.0 -128.0 19.0 -228.0C18.0 -257.0 23.0 -278.0 39.0 -278.0C65.0 -278.0 78.0 -254.0 80.0 -215.0C84.0 -135.0 62.0 -81.0 61.0 -40.0C61.0 -15.0 66.0 15.0 72.0 45.0C81.0 91.0 136.0 318.0 165.0 444.0L145.0 447.0C32.0 57.0 32.0 57.0 20.0 23.0C13.0 1.0 10.0 0.0 0.0 0.0ZM-25.0 588.0 -38.0 581.0C5.0 530.0 54.0 443.0 59.0 377.0C114.0 329.0 162.0 468.0 -25.0 588.0Z"/></g>
<g fill="black" opacity=".8" transform="translate(500 700) scale(0.1 -0.1)"><path d="M0.0 0.0C-12.0 0.0 -43.0 0.0 -43.0 0.0V-26.0C-22.0 -28.0 -9.0 -29.0 3.0 -40.0C23.0 -53.0 30.0 -124.0 18.0 -224.0C18.0 -252.0 25.0 -272.0 41.0 -272.0C70.0 -272.0 83.0 -247.0 85.0 -209.0C89.0 -133.0 66.0 -82.0 65.0 -41.0C65.0 -16.0 71.0 17.0 78.0 49.0C87.0 94.0 144.0 319.0 171.0 438.0L149.0 442.0C33.0 58.0 33.0 58.0 22.0 23.0C13.0 -0.0 10.0 0.0 0.0 0.0ZM-23.0 585.0 -36.0 576.0C5.0 530.0 51.0 450.0 59.0 388.0C116.0 341.0 165.0 476.0 -23.0 585.0Z"/></g>
<g fill="red" transform="translate(600 700) scale(0.1 -0.1)"><path d="M0.0 0.0C-11.0 0.0 -42.0 0.0 -42.0 0.0V-17.0C-22.0 -19.0 -6.0 -24.0 8.0 -33.0C30.0 -48.0 32.0 -149.0 11.0 -245.0C23.0 -285.0 56.0 -294.0 82.0 -294.0C142.0 -294.0 183.0 -257.0 185.0 -205.0C188.0 -114.0 137.0 -89.0 134.0 -31.0C133.0 -5.0 137.0 33.0 141.0 67.0C147.0 127.0 175.0 345.0 194.0 463.0L179.0 466.0C47.0 58.0 47.0 58.0 30.0 21.0C20.0 0.0 16.0 0.0 0.0 0.0ZM-27.0 614.0 -35.0 609.0C1.0 553.0 26.0 474.0 21.0 401.0C139.0 290.0 279.0 534.0 -27.0 614.0Z"/></g>
<g fill="black" opacity=".8" transform="translate(600 700) scale(0.1 -0.1)"><path d="M0.0 0.0C-12.0 0.0 -46.0 0.0 -46.0 0.0V-20.0C-24.0 -21.0 -8.0 -26.0 7.0 -36.0C28.0 -50.0 32.0 -150.0 12.0 -247.0C22.0 -286.0 55.0 -298.0 80.0 -298.0C143.0 -298.0 183.0 -260.0 185.0 -208.0C189.0 -116.0 137.0 -86.0 134.0 -31.0C133.0 -4.0 136.0 34.0 139.0 69.0C145.0 127.0 173.0 349.0 189.0 468.0L172.0 471.0C47.0 60.0 47.0 60.0 31.0 23.0C21.0 0.0 16.0 0.0 0.0 0.0ZM-19.0 614.0 -29.0 610.0C2.0 552.0 23.0 471.0 19.0 397.0C134.0 286.0 281.0 521.0 -19.0 614.0Z"/></g>
</svg>
