<?xml version="1.0" encoding="UTF-8"?>
<svg width="1700" height="400" xmlns="http://www.w3.org/2000/svg">
<rect width="100%" height="100%" fill="white"/>
<g fill="green" transform="translate(100 100) scale(0.1 -0.1)"><path d="M0.0 0.0 -84.0 46.0C-134.0 -31.0 -205.0 -118.0 -264.0 -172.0L-251.0 -189.0C-179.0 -144.0 -101.0 -74.0 -44.0 -11.0C-19.0 -17.0 -7.0 -11.0 0.0 0.0ZM-252.0 -236.0 -263.0 -251.0C-156.0 -313.0 -64.0 -406.0 -36.0 -468.0C30.0 -509.0 68.0 -358.0 -252.0 -236.0ZM-411.0 393.0 -424.0 384.0C-389.0 351.0 -350.0 291.0 -342.0 246.0C-286.0 203.0 -237.0 326.0 -411.0 393.0ZM-786.0 -413.0 -726.0 -472.0C-718.0 -465.0 -713.0 -451.0 -714.0 -439.0C-619.0 -356.0 -544.0 -284.0 -493.0 -235.0L-505.0 -219.0C-621.0 -303.0 -738.0 -384.0 -786.0 -413.0ZM-210.0 77.0 -300.0 89.0V-590.0C-300.0 -638.0 -282.0 -658.0 -204.0 -658.0H-95.0C69.0 -657.0 101.0 -650.0 101.0 -621.0C101.0 -610.0 96.0 -603.0 72.0 -596.0L69.0 -420.0H53.0C43.0 -494.0 30.0 -574.0 23.0 -591.0C20.0 -602.0 15.0 -605.0 5.0 -606.0C-11.0 -608.0 -47.0 -609.0 -98.0 -609.0H-198.0C-242.0 -609.0 -249.0 -600.0 -249.0 -578.0V47.0C-223.0 50.0 -212.0 62.0 -210.0 77.0ZM-410.0 76.0 -503.0 86.0V-246.0C-503.0 -434.0 -565.0 -580.0 -828.0 -673.0L-815.0 -692.0C-518.0 -599.0 -453.0 -442.0 -451.0 -246.0V45.0C-423.0 49.0 -415.0 59.0 -410.0 76.0Z"/></g>
<g fill="green" transform="translate(200 100) scale(0.1 -0.1)"><path d="M0.0 0.0 -167.0 104.0C-204.0 31.0 -260.0 -56.0 -306.0 -110.0L-293.0 -121.0C-211.0 -95.0 -123.0 -58.0 -47.0 -15.0C-20.0 -20.0 -6.0 -12.0 0.0 0.0ZM-284.0 -152.0 -293.0 -163.0C-225.0 -226.0 -172.0 -311.0 -157.0 -367.0C-19.0 -459.0 124.0 -184.0 -284.0 -152.0ZM-515.0 463.0 -522.0 457.0C-492.0 423.0 -464.0 362.0 -460.0 307.0C-316.0 210.0 -178.0 479.0 -515.0 463.0ZM-868.0 -277.0 -762.0 -418.0C-749.0 -412.0 -740.0 -397.0 -737.0 -381.0C-656.0 -289.0 -602.0 -218.0 -567.0 -170.0L-572.0 -160.0C-693.0 -211.0 -815.0 -258.0 -868.0 -277.0ZM-230.0 133.0 -416.0 150.0V-502.0C-416.0 -601.0 -387.0 -628.0 -269.0 -628.0H-172.0C3.0 -628.0 56.0 -601.0 56.0 -541.0C56.0 -515.0 44.0 -498.0 6.0 -480.0L1.0 -365.0H-12.0C-30.0 -416.0 -49.0 -462.0 -61.0 -478.0C-70.0 -486.0 -81.0 -489.0 -94.0 -489.0C-107.0 -489.0 -132.0 -491.0 -157.0 -491.0H-233.0C-263.0 -491.0 -270.0 -484.0 -270.0 -463.0V101.0C-243.0 105.0 -232.0 117.0 -230.0 133.0ZM-445.0 134.0 -627.0 152.0V-196.0C-627.0 -388.0 -688.0 -552.0 -938.0 -662.0L-930.0 -674.0C-574.0 -589.0 -489.0 -411.0 -486.0 -197.0V102.0C-457.0 107.0 -448.0 118.0 -445.0 134.0Z"/></g>
<g fill="green" transform="translate(300 100) scale(0.1 -0.1)"><path d="M0.0 0.0 -75.0 40.0C-120.0 -30.0 -182.0 -105.0 -233.0 -152.0L-222.0 -167.0C-158.0 -128.0 -90.0 -67.0 -39.0 -10.0C-16.0 -15.0 -6.0 -10.0 0.0 0.0ZM-223.0 -206.0 -232.0 -220.0C-134.0 -276.0 -53.0 -359.0 -28.0 -413.0C30.0 -450.0 65.0 -316.0 -223.0 -206.0ZM-341.0 381.0 -352.0 373.0C-322.0 346.0 -289.0 296.0 -282.0 258.0C-233.0 221.0 -190.0 328.0 -341.0 381.0ZM-705.0 -364.0 -652.0 -416.0C-645.0 -410.0 -641.0 -397.0 -641.0 -387.0C-555.0 -312.0 -488.0 -248.0 -441.0 -204.0L-452.0 -189.0C-557.0 -265.0 -662.0 -338.0 -705.0 -364.0ZM-187.0 54.0 -266.0 65.0V-512.0C-266.0 -555.0 -250.0 -572.0 -180.0 -572.0H-81.0C68.0 -571.0 97.0 -565.0 97.0 -539.0C97.0 -530.0 92.0 -523.0 71.0 -517.0L68.0 -357.0H54.0C45.0 -424.0 33.0 -497.0 27.0 -512.0C25.0 -522.0 20.0 -525.0 11.0 -526.0C-4.0 -528.0 -37.0 -529.0 -83.0 -529.0H-175.0C-215.0 -529.0 -221.0 -521.0 -221.0 -502.0V27.0C-198.0 30.0 -189.0 41.0 -187.0 54.0ZM-366.0 53.0 -448.0 62.0V-215.0C-448.0 -378.0 -504.0 -506.0 -744.0 -586.0L-732.0 -603.0C-462.0 -523.0 -404.0 -385.0 -402.0 -215.0V26.0C-377.0 29.0 -370.0 38.0 -366.0 53.0Z"/></g>
<g fill="green" transform="translate(400 100) scale(0.1 -0.1)"><path d="M0.0 0.0 -148.0 91.0C-182.0 26.0 -233.0 -47.0 -274.0 -92.0L-262.0 -102.0C-189.0 -81.0 -112.0 -52.0 -42.0 -14.0C-17.0 -18.0 -5.0 -11.0 0.0 0.0ZM-254.0 -129.0 -262.0 -140.0C-199.0 -195.0 -151.0 -270.0 -137.0 -317.0C-14.0 -397.0 114.0 -151.0 -254.0 -129.0ZM-437.0 446.0 -442.0 440.0C-416.0 413.0 -391.0 362.0 -387.0 316.0C-255.0 230.0 -133.0 473.0 -437.0 446.0ZM-779.0 -237.0 -684.0 -361.0C-672.0 -356.0 -664.0 -343.0 -662.0 -329.0C-588.0 -248.0 -540.0 -187.0 -508.0 -145.0L-512.0 -136.0C-621.0 -180.0 -731.0 -221.0 -779.0 -237.0ZM-207.0 107.0 -372.0 121.0V-431.0C-372.0 -519.0 -346.0 -543.0 -240.0 -543.0H-151.0C8.0 -543.0 55.0 -519.0 55.0 -466.0C55.0 -443.0 44.0 -428.0 10.0 -412.0L6.0 -311.0H-6.0C-22.0 -356.0 -39.0 -396.0 -49.0 -410.0C-57.0 -417.0 -67.0 -420.0 -79.0 -420.0C-91.0 -420.0 -114.0 -422.0 -138.0 -422.0H-209.0C-236.0 -422.0 -243.0 -416.0 -243.0 -397.0V78.0C-219.0 82.0 -209.0 92.0 -207.0 107.0ZM-400.0 107.0 -561.0 123.0V-163.0C-561.0 -330.0 -616.0 -477.0 -845.0 -574.0L-838.0 -585.0C-514.0 -510.0 -439.0 -351.0 -436.0 -164.0V79.0C-411.0 83.0 -403.0 93.0 -400.0 107.0Z"/></g>
<g fill="green" transform="translate(500 100) scale(0.1 -0.1)"><path d="M0.0 0.0 -80.0 40.0C-112.0 -21.0 -175.0 -116.0 -224.0 -178.0L-213.0 -190.0C-149.0 -137.0 -81.0 -65.0 -40.0 -15.0C-18.0 -19.0 -4.0 -10.0 0.0 0.0ZM-208.0 -267.0 -220.0 -276.0C-167.0 -321.0 -98.0 -405.0 -85.0 -468.0C-25.0 -512.0 12.0 -370.0 -208.0 -267.0ZM-511.0 47.0 -525.0 41.0C-493.0 -9.0 -458.0 -90.0 -455.0 -149.0C-404.0 -199.0 -349.0 -74.0 -511.0 47.0ZM-571.0 -421.0 -506.0 -471.0C-499.0 -463.0 -496.0 -450.0 -499.0 -438.0C-447.0 -368.0 -405.0 -306.0 -379.0 -267.0L-392.0 -254.0C-464.0 -325.0 -539.0 -393.0 -571.0 -421.0ZM-166.0 180.0 -252.0 191.0V-678.0C-252.0 -715.0 -240.0 -736.0 -183.0 -736.0H-128.0C-28.0 -735.0 -2.0 -728.0 -2.0 -705.0C-2.0 -694.0 -7.0 -688.0 -28.0 -682.0L-32.0 -556.0H-46.0C-54.0 -605.0 -64.0 -670.0 -70.0 -680.0C-72.0 -687.0 -76.0 -688.0 -82.0 -688.0C-91.0 -690.0 -108.0 -690.0 -131.0 -690.0H-176.0C-200.0 -690.0 -205.0 -682.0 -205.0 -664.0V150.0C-177.0 155.0 -168.0 165.0 -166.0 180.0ZM-313.0 178.0 -399.0 187.0V-308.0C-399.0 -504.0 -448.0 -637.0 -607.0 -738.0L-591.0 -752.0C-406.0 -649.0 -352.0 -507.0 -351.0 -306.0V148.0C-324.0 152.0 -318.0 162.0 -313.0 178.0Z"/></g>
<g fill="green" transform="translate(600 100) scale(0.1 -0.1)"><path d="M0.0 0.0 -145.0 97.0C-166.0 33.0 -209.0 -84.0 -243.0 -156.0L-232.0 -164.0C-164.0 -118.0 -88.0 -52.0 -44.0 -10.0C-21.0 -17.0 -6.0 -9.0 0.0 0.0ZM-213.0 -195.0 -224.0 -201.0C-192.0 -255.0 -155.0 -332.0 -148.0 -402.0C-36.0 -490.0 75.0 -274.0 -213.0 -195.0ZM-565.0 105.0 -578.0 100.0C-554.0 40.0 -532.0 -46.0 -535.0 -118.0C-450.0 -205.0 -342.0 -21.0 -565.0 105.0ZM-613.0 -311.0 -543.0 -437.0C-531.0 -431.0 -523.0 -416.0 -522.0 -402.0C-460.0 -326.0 -416.0 -262.0 -388.0 -222.0L-393.0 -212.0C-483.0 -255.0 -575.0 -296.0 -613.0 -311.0ZM-166.0 208.0 -321.0 224.0V-627.0C-321.0 -702.0 -304.0 -728.0 -222.0 -728.0H-166.0C-54.0 -728.0 -15.0 -705.0 -15.0 -659.0C-15.0 -638.0 -26.0 -624.0 -53.0 -609.0L-58.0 -494.0H-71.0C-81.0 -536.0 -96.0 -591.0 -105.0 -605.0C-111.0 -613.0 -119.0 -614.0 -127.0 -613.0C-133.0 -613.0 -145.0 -615.0 -156.0 -615.0H-184.0C-202.0 -615.0 -205.0 -609.0 -205.0 -591.0V177.0C-178.0 182.0 -168.0 193.0 -166.0 208.0ZM-322.0 209.0 -473.0 225.0V-297.0C-473.0 -499.0 -530.0 -637.0 -697.0 -743.0L-686.0 -755.0C-445.0 -664.0 -364.0 -516.0 -362.0 -297.0V179.0C-334.0 184.0 -326.0 195.0 -322.0 209.0Z"/></g>
<g fill="green" transform="translate(700 100) scale(0.1 -0.1)"><path d="M0.0 0.0 -80.0 48.0C-133.0 -32.0 -213.0 -120.0 -281.0 -174.0L-267.0 -191.0C-189.0 -147.0 -104.0 -74.0 -44.0 -8.0C-20.0 -15.0 -8.0 -11.0 0.0 0.0ZM-268.0 -225.0 -278.0 -243.0C-148.0 -308.0 -38.0 -402.0 -1.0 -462.0C63.0 -496.0 91.0 -352.0 -268.0 -225.0ZM-496.0 308.0 -510.0 298.0C-469.0 260.0 -422.0 190.0 -416.0 137.0C-365.0 94.0 -320.0 219.0 -496.0 308.0ZM-835.0 -403.0 -783.0 -465.0C-774.0 -460.0 -768.0 -447.0 -768.0 -435.0C-657.0 -353.0 -570.0 -283.0 -510.0 -235.0L-520.0 -218.0C-651.0 -299.0 -782.0 -376.0 -835.0 -403.0ZM-219.0 48.0 -307.0 60.0V-582.0C-307.0 -630.0 -289.0 -650.0 -208.0 -650.0H-94.0C74.0 -649.0 107.0 -642.0 107.0 -613.0C107.0 -602.0 101.0 -595.0 78.0 -589.0L76.0 -435.0H60.0C50.0 -500.0 37.0 -569.0 31.0 -585.0C27.0 -595.0 22.0 -597.0 12.0 -598.0C-4.0 -600.0 -43.0 -601.0 -96.0 -601.0H-203.0C-250.0 -601.0 -257.0 -593.0 -257.0 -569.0V19.0C-231.0 22.0 -221.0 34.0 -219.0 48.0ZM-438.0 49.0 -530.0 59.0V-222.0C-530.0 -408.0 -588.0 -568.0 -854.0 -668.0L-842.0 -688.0C-541.0 -588.0 -481.0 -416.0 -479.0 -222.0V19.0C-452.0 22.0 -443.0 32.0 -438.0 49.0Z"/></g>
<g fill="green" transform="translate(800 100) scale(0.1 -0.1)"><path d="M0.0 0.0 -159.0 102.0C-199.0 34.0 -260.0 -44.0 -311.0 -91.0L-298.0 -103.0C-215.0 -84.0 -124.0 -54.0 -46.0 -15.0C-19.0 -20.0 -6.0 -12.0 0.0 0.0ZM-303.0 -121.0 -311.0 -134.0C-230.0 -201.0 -169.0 -289.0 -149.0 -339.0C-11.0 -425.0 129.0 -146.0 -303.0 -121.0ZM-602.0 397.0 -609.0 391.0C-578.0 352.0 -552.0 287.0 -550.0 227.0C-406.0 119.0 -252.0 391.0 -602.0 397.0ZM-911.0 -231.0 -802.0 -376.0C-789.0 -371.0 -779.0 -357.0 -776.0 -341.0C-688.0 -248.0 -631.0 -179.0 -594.0 -131.0L-598.0 -122.0C-726.0 -170.0 -856.0 -213.0 -911.0 -231.0ZM-239.0 129.0 -434.0 147.0V-435.0C-434.0 -540.0 -402.0 -568.0 -276.0 -568.0L-174.0 -567.0C12.0 -567.0 69.0 -539.0 69.0 -476.0C69.0 -449.0 56.0 -430.0 15.0 -412.0L11.0 -296.0H-1.0C-21.0 -349.0 -41.0 -392.0 -54.0 -409.0C-64.0 -418.0 -75.0 -421.0 -89.0 -421.0C-103.0 -421.0 -129.0 -423.0 -156.0 -423.0H-239.0C-270.0 -423.0 -278.0 -416.0 -278.0 -395.0V98.0C-252.0 102.0 -241.0 114.0 -239.0 129.0ZM-467.0 133.0 -656.0 151.0V-168.0C-656.0 -348.0 -716.0 -504.0 -963.0 -608.0L-957.0 -619.0C-596.0 -543.0 -509.0 -373.0 -506.0 -169.0V101.0C-478.0 106.0 -469.0 117.0 -467.0 133.0Z"/></g>
<g fill="green" transform="translate(900 100) scale(0.1 -0.1)"><path d="M0.0 0.0 -81.0 57.0C-151.0 -41.0 -224.0 -121.0 -278.0 -166.0L-264.0 -185.0C-199.0 -149.0 -122.0 -84.0 -47.0 -8.0C-23.0 -17.0 -8.0 -10.0 0.0 0.0ZM-264.0 -234.0 -276.0 -248.0C-190.0 -299.0 -84.0 -392.0 -51.0 -457.0C16.0 -495.0 36.0 -346.0 -264.0 -234.0ZM-460.0 427.0 -473.0 416.0C-430.0 380.0 -377.0 315.0 -362.0 267.0C-304.0 230.0 -266.0 354.0 -460.0 427.0ZM-797.0 -419.0 -743.0 -479.0C-735.0 -472.0 -730.0 -457.0 -730.0 -445.0C-634.0 -359.0 -556.0 -284.0 -503.0 -232.0L-516.0 -216.0C-632.0 -304.0 -750.0 -390.0 -797.0 -419.0ZM-224.0 84.0 -316.0 96.0V-570.0C-316.0 -620.0 -297.0 -640.0 -218.0 -640.0H-107.0C59.0 -639.0 93.0 -631.0 93.0 -602.0C93.0 -590.0 87.0 -584.0 62.0 -577.0L60.0 -394.0H44.0C34.0 -471.0 21.0 -554.0 14.0 -571.0C10.0 -583.0 5.0 -586.0 -6.0 -587.0C-22.0 -588.0 -57.0 -589.0 -110.0 -589.0H-212.0C-257.0 -589.0 -264.0 -581.0 -264.0 -559.0V53.0C-238.0 57.0 -226.0 69.0 -224.0 84.0ZM-420.0 83.0 -515.0 94.0V-205.0C-515.0 -390.0 -570.0 -547.0 -821.0 -646.0L-808.0 -665.0C-523.0 -566.0 -463.0 -399.0 -462.0 -206.0V52.0C-434.0 56.0 -425.0 66.0 -420.0 83.0Z"/></g>
<g fill="green" transform="translate(1000 100) scale(0.1 -0.1)"><path d="M0.0 0.0 -170.0 84.0C-213.0 -14.0 -254.0 -95.0 -284.0 -144.0L-268.0 -154.0C-200.0 -122.0 -131.0 -79.0 -51.0 -20.0C-23.0 -24.0 -7.0 -14.0 0.0 0.0ZM-275.0 -195.0 -284.0 -204.0C-226.0 -255.0 -166.0 -334.0 -144.0 -401.0C4.0 -485.0 113.0 -205.0 -275.0 -195.0ZM-554.0 446.0 -561.0 439.0C-527.0 408.0 -488.0 348.0 -477.0 295.0C-330.0 209.0 -210.0 480.0 -554.0 446.0ZM-852.0 -324.0 -751.0 -471.0C-738.0 -464.0 -730.0 -448.0 -727.0 -432.0C-658.0 -339.0 -610.0 -263.0 -580.0 -216.0L-586.0 -206.0C-694.0 -257.0 -806.0 -306.0 -852.0 -324.0ZM-226.0 112.0 -410.0 129.0V-502.0C-410.0 -603.0 -383.0 -631.0 -268.0 -631.0L-174.0 -630.0C-3.0 -630.0 49.0 -596.0 49.0 -537.0C49.0 -510.0 36.0 -492.0 -1.0 -475.0L-7.0 -395.0H-20.0C-35.0 -432.0 -52.0 -464.0 -64.0 -475.0C-72.0 -480.0 -84.0 -483.0 -97.0 -483.0C-109.0 -483.0 -134.0 -485.0 -158.0 -485.0H-230.0C-258.0 -485.0 -265.0 -479.0 -265.0 -457.0V79.0C-239.0 83.0 -227.0 96.0 -226.0 112.0ZM-433.0 116.0 -613.0 133.0V-204.0C-613.0 -385.0 -665.0 -542.0 -886.0 -651.0L-877.0 -663.0C-554.0 -577.0 -476.0 -406.0 -473.0 -205.0V83.0C-444.0 88.0 -435.0 99.0 -433.0 116.0Z"/></g>
<g fill="green" transform="translate(1100 100) scale(0.1 -0.1)"><path d="M0.0 0.0 -78.0 48.0C-112.0 -2.0 -194.0 -95.0 -264.0 -156.0L-255.0 -169.0C-171.0 -121.0 -84.0 -50.0 -40.0 -8.0C-18.0 -15.0 -5.0 -10.0 0.0 0.0ZM-263.0 -219.0 -272.0 -234.0C-158.0 -291.0 -63.0 -377.0 -29.0 -434.0C43.0 -471.0 75.0 -315.0 -263.0 -219.0ZM-418.0 372.0 -429.0 363.0C-399.0 339.0 -365.0 293.0 -353.0 257.0C-294.0 217.0 -246.0 332.0 -418.0 372.0ZM-804.0 -376.0 -750.0 -434.0C-742.0 -428.0 -736.0 -416.0 -736.0 -405.0C-638.0 -332.0 -561.0 -269.0 -509.0 -226.0L-517.0 -211.0C-636.0 -282.0 -755.0 -352.0 -804.0 -376.0ZM-220.0 120.0 -302.0 131.0V-569.0C-302.0 -618.0 -282.0 -636.0 -205.0 -636.0H-88.0C82.0 -636.0 114.0 -630.0 114.0 -603.0C114.0 -593.0 109.0 -586.0 88.0 -579.0L84.0 -411.0H69.0C59.0 -483.0 47.0 -558.0 40.0 -574.0C37.0 -584.0 33.0 -588.0 21.0 -589.0C5.0 -591.0 -35.0 -593.0 -91.0 -593.0H-200.0C-249.0 -593.0 -256.0 -582.0 -256.0 -559.0V92.0C-231.0 95.0 -221.0 105.0 -220.0 120.0ZM-431.0 118.0 -515.0 127.0V-248.0C-515.0 -444.0 -587.0 -575.0 -856.0 -656.0L-846.0 -674.0C-544.0 -593.0 -470.0 -450.0 -468.0 -248.0V89.0C-442.0 94.0 -435.0 103.0 -431.0 118.0Z"/></g>
<g fill="green" transform="translate(1200 100) scale(0.1 -0.1)"><path d="M0.0 0.0 -159.0 115.0C-181.0 67.0 -239.0 -39.0 -288.0 -106.0L-281.0 -114.0C-194.0 -84.0 -98.0 -39.0 -41.0 -9.0C-17.0 -16.0 -5.0 -8.0 0.0 0.0ZM-271.0 -141.0 -279.0 -151.0C-215.0 -221.0 -171.0 -307.0 -160.0 -365.0C-24.0 -466.0 131.0 -193.0 -271.0 -141.0ZM-490.0 449.0 -496.0 444.0C-472.0 413.0 -452.0 359.0 -452.0 309.0C-314.0 209.0 -172.0 465.0 -490.0 449.0ZM-884.0 -286.0 -777.0 -437.0C-764.0 -431.0 -755.0 -417.0 -752.0 -401.0C-668.0 -300.0 -612.0 -221.0 -580.0 -169.0L-583.0 -162.0C-705.0 -216.0 -831.0 -266.0 -884.0 -286.0ZM-210.0 176.0 -396.0 194.0V-506.0C-396.0 -603.0 -365.0 -631.0 -249.0 -631.0H-155.0C15.0 -631.0 69.0 -608.0 69.0 -548.0C69.0 -523.0 57.0 -506.0 19.0 -488.0L14.0 -352.0H3.0C-16.0 -410.0 -36.0 -463.0 -50.0 -483.0C-59.0 -493.0 -69.0 -496.0 -81.0 -496.0C-94.0 -496.0 -117.0 -497.0 -140.0 -497.0H-211.0C-241.0 -497.0 -248.0 -490.0 -248.0 -469.0V146.0C-222.0 150.0 -212.0 161.0 -210.0 176.0ZM-428.0 177.0 -613.0 195.0V-202.0C-613.0 -410.0 -691.0 -572.0 -963.0 -677.0L-959.0 -688.0C-574.0 -615.0 -469.0 -437.0 -466.0 -203.0V147.0C-438.0 152.0 -431.0 163.0 -428.0 177.0Z"/></g>
<g fill="green" transform="translate(1300 100) scale(0.1 -0.1)"><path d="M0.0 0.0 -86.0 45.0C-134.0 -30.0 -202.0 -115.0 -258.0 -166.0L-244.0 -184.0C-175.0 -141.0 -100.0 -73.0 -46.0 -12.0C-19.0 -17.0 -8.0 -12.0 0.0 0.0ZM-248.0 -228.0 -260.0 -244.0C-151.0 -308.0 -65.0 -401.0 -39.0 -463.0C26.0 -507.0 71.0 -355.0 -248.0 -228.0ZM-409.0 402.0 -423.0 393.0C-384.0 357.0 -341.0 293.0 -332.0 245.0C-273.0 201.0 -225.0 330.0 -409.0 402.0ZM-760.0 -411.0 -697.0 -471.0C-688.0 -463.0 -684.0 -450.0 -685.0 -437.0C-591.0 -354.0 -516.0 -281.0 -467.0 -233.0L-479.0 -216.0C-594.0 -301.0 -711.0 -381.0 -760.0 -411.0ZM-197.0 101.0 -289.0 114.0V-577.0C-289.0 -626.0 -271.0 -646.0 -192.0 -646.0H-84.0C80.0 -645.0 111.0 -637.0 111.0 -608.0C111.0 -597.0 107.0 -591.0 83.0 -584.0L80.0 -407.0H63.0C53.0 -480.0 39.0 -561.0 32.0 -578.0C29.0 -589.0 24.0 -592.0 14.0 -593.0C-2.0 -596.0 -37.0 -596.0 -87.0 -596.0H-187.0C-230.0 -596.0 -237.0 -587.0 -237.0 -565.0V71.0C-210.0 74.0 -199.0 86.0 -197.0 101.0ZM-386.0 101.0 -482.0 111.0V-225.0C-482.0 -418.0 -542.0 -572.0 -809.0 -671.0L-796.0 -690.0C-494.0 -591.0 -430.0 -426.0 -428.0 -225.0V69.0C-399.0 73.0 -391.0 83.0 -386.0 101.0Z"/></g>
<g fill="green" transform="translate(1400 100) scale(0.1 -0.1)"><path d="M0.0 0.0 -187.0 120.0C-224.0 48.0 -283.0 -40.0 -331.0 -96.0L-319.0 -107.0C-229.0 -86.0 -130.0 -54.0 -49.0 -14.0C-21.0 -20.0 -6.0 -12.0 0.0 0.0ZM-306.0 -147.0 -316.0 -158.0C-247.0 -229.0 -197.0 -321.0 -187.0 -379.0C-51.0 -480.0 106.0 -203.0 -306.0 -147.0ZM-556.0 464.0 -562.0 458.0C-529.0 423.0 -497.0 361.0 -492.0 303.0C-338.0 199.0 -190.0 485.0 -556.0 464.0ZM-897.0 -294.0 -772.0 -428.0C-759.0 -421.0 -752.0 -405.0 -750.0 -389.0C-674.0 -286.0 -624.0 -207.0 -591.0 -154.0L-597.0 -144.0C-720.0 -208.0 -843.0 -270.0 -897.0 -294.0ZM-243.0 147.0 -437.0 165.0V-504.0C-437.0 -607.0 -407.0 -634.0 -285.0 -634.0H-185.0C-6.0 -634.0 50.0 -607.0 50.0 -544.0C50.0 -517.0 37.0 -500.0 -2.0 -481.0L-8.0 -360.0H-20.0C-40.0 -413.0 -60.0 -462.0 -72.0 -478.0C-81.0 -487.0 -93.0 -491.0 -106.0 -490.0C-119.0 -490.0 -145.0 -493.0 -170.0 -493.0H-248.0C-278.0 -493.0 -286.0 -485.0 -286.0 -464.0V114.0C-257.0 118.0 -246.0 130.0 -243.0 147.0ZM-467.0 146.0 -657.0 164.0V-194.0C-657.0 -380.0 -701.0 -547.0 -914.0 -667.0L-905.0 -678.0C-583.0 -583.0 -512.0 -403.0 -509.0 -195.0V113.0C-479.0 118.0 -470.0 129.0 -467.0 146.0Z"/></g>
<g fill="red" transform="translate(100 200) scale(0.1 -0.1)"><path d="M0.0 0.0 -68.0 55.0C-104.0 5.0 -187.0 -85.0 -251.0 -140.0L-240.0 -151.0C-167.0 -109.0 -84.0 -45.0 -40.0 -6.0C-22.0 -14.0 -5.0 -8.0 0.0 0.0ZM-244.0 -233.0 -254.0 -245.0C-182.0 -282.0 -85.0 -355.0 -52.0 -412.0C14.0 -441.0 24.0 -304.0 -244.0 -233.0ZM-619.0 29.0 -632.0 21.0C-590.0 -23.0 -536.0 -97.0 -522.0 -152.0C-467.0 -192.0 -430.0 -72.0 -619.0 29.0ZM-654.0 -368.0 -607.0 -423.0C-599.0 -418.0 -594.0 -408.0 -594.0 -397.0C-516.0 -338.0 -455.0 -288.0 -414.0 -256.0L-421.0 -242.0C-517.0 -296.0 -613.0 -349.0 -654.0 -368.0ZM-188.0 204.0 -268.0 214.0V-607.0C-268.0 -650.0 -252.0 -669.0 -188.0 -669.0H-107.0C17.0 -669.0 46.0 -662.0 46.0 -640.0C46.0 -629.0 40.0 -625.0 22.0 -619.0L18.0 -506.0H5.0C-3.0 -552.0 -14.0 -607.0 -19.0 -617.0C-23.0 -622.0 -26.0 -624.0 -35.0 -625.0C-45.0 -626.0 -73.0 -627.0 -109.0 -627.0H-183.0C-219.0 -627.0 -224.0 -619.0 -224.0 -596.0V177.0C-199.0 181.0 -190.0 190.0 -188.0 204.0ZM-364.0 202.0 -443.0 211.0V-223.0C-443.0 -423.0 -491.0 -573.0 -664.0 -680.0L-650.0 -694.0C-452.0 -587.0 -400.0 -426.0 -399.0 -223.0V175.0C-374.0 178.0 -366.0 188.0 -364.0 202.0Z"/></g>
<g fill="black" opacity=".8" transform="translate(100 200) scale(0.1 -0.1)"><path d="M0.0 0.0 -71.0 51.0C-104.0 -0.0 -186.0 -94.0 -250.0 -153.0L-241.0 -164.0C-165.0 -118.0 -83.0 -48.0 -41.0 -7.0C-21.0 -15.0 -5.0 -9.0 0.0 0.0ZM-246.0 -225.0 -256.0 -238.0C-176.0 -279.0 -80.0 -359.0 -48.0 -416.0C16.0 -450.0 33.0 -309.0 -246.0 -225.0ZM-612.0 34.0 -626.0 25.0C-584.0 -22.0 -532.0 -102.0 -521.0 -162.0C-467.0 -205.0 -426.0 -80.0 -612.0 34.0ZM-655.0 -375.0 -606.0 -430.0C-597.0 -424.0 -592.0 -414.0 -592.0 -402.0C-515.0 -339.0 -452.0 -283.0 -413.0 -249.0L-420.0 -234.0C-516.0 -295.0 -614.0 -353.0 -655.0 -375.0ZM-189.0 205.0 -269.0 216.0V-609.0C-269.0 -651.0 -253.0 -670.0 -189.0 -670.0H-112.0C11.0 -670.0 39.0 -662.0 39.0 -640.0C39.0 -630.0 33.0 -625.0 15.0 -620.0L12.0 -509.0H-2.0C-11.0 -553.0 -21.0 -607.0 -26.0 -617.0C-30.0 -623.0 -33.0 -624.0 -43.0 -625.0C-53.0 -627.0 -78.0 -627.0 -114.0 -627.0H-185.0C-220.0 -627.0 -225.0 -619.0 -225.0 -597.0V177.0C-198.0 182.0 -190.0 191.0 -189.0 205.0ZM-361.0 205.0 -442.0 214.0V-230.0C-442.0 -433.0 -493.0 -582.0 -675.0 -686.0L-664.0 -701.0C-454.0 -595.0 -398.0 -436.0 -397.0 -229.0V177.0C-372.0 181.0 -365.0 190.0 -361.0 205.0Z"/></g>
<g fill="red" transform="translate(200 200) scale(0.1 -0.1)"><path d="M0.0 0.0 -154.0 113.0C-170.0 59.0 -216.0 -61.0 -250.0 -134.0L-244.0 -139.0C-170.0 -100.0 -81.0 -39.0 -41.0 -6.0C-21.0 -14.0 -6.0 -8.0 0.0 0.0ZM-244.0 -164.0 -253.0 -169.0C-216.0 -231.0 -176.0 -315.0 -164.0 -391.0C-44.0 -486.0 68.0 -250.0 -244.0 -164.0ZM-685.0 77.0 -695.0 73.0C-670.0 16.0 -649.0 -60.0 -651.0 -130.0C-546.0 -233.0 -413.0 -22.0 -685.0 77.0ZM-726.0 -291.0 -646.0 -444.0C-634.0 -438.0 -625.0 -424.0 -623.0 -410.0C-557.0 -317.0 -511.0 -240.0 -486.0 -195.0L-488.0 -188.0C-585.0 -233.0 -686.0 -276.0 -726.0 -291.0ZM-176.0 228.0 -352.0 247.0V-554.0C-352.0 -645.0 -327.0 -673.0 -230.0 -673.0H-165.0C-35.0 -673.0 13.0 -646.0 13.0 -591.0C13.0 -566.0 1.0 -549.0 -32.0 -532.0L-37.0 -419.0H-46.0C-60.0 -463.0 -78.0 -511.0 -91.0 -527.0C-98.0 -535.0 -108.0 -537.0 -116.0 -538.0C-125.0 -538.0 -137.0 -538.0 -149.0 -538.0H-187.0C-206.0 -538.0 -212.0 -531.0 -212.0 -512.0V200.0C-186.0 204.0 -177.0 215.0 -176.0 228.0ZM-361.0 232.0 -534.0 248.0V-266.0C-534.0 -457.0 -586.0 -586.0 -726.0 -689.0L-720.0 -698.0C-484.0 -620.0 -399.0 -479.0 -397.0 -266.0V203.0C-371.0 207.0 -363.0 218.0 -361.0 232.0Z"/></g>
<g fill="black" opacity=".8" transform="translate(200 200) scale(0.1 -0.1)"><path d="M0.0 0.0 -154.0 110.0C-170.0 59.0 -215.0 -60.0 -250.0 -134.0L-244.0 -140.0C-169.0 -101.0 -82.0 -40.0 -42.0 -7.0C-20.0 -16.0 -6.0 -7.0 0.0 0.0ZM-246.0 -169.0 -255.0 -176.0C-214.0 -242.0 -174.0 -327.0 -165.0 -400.0C-46.0 -496.0 71.0 -263.0 -246.0 -169.0ZM-679.0 79.0 -689.0 74.0C-664.0 18.0 -640.0 -61.0 -642.0 -131.0C-542.0 -233.0 -411.0 -27.0 -679.0 79.0ZM-732.0 -316.0 -637.0 -456.0C-625.0 -449.0 -618.0 -435.0 -618.0 -420.0C-555.0 -320.0 -512.0 -238.0 -489.0 -189.0L-493.0 -183.0C-589.0 -240.0 -693.0 -296.0 -732.0 -316.0ZM-176.0 234.0 -351.0 253.0V-547.0C-351.0 -635.0 -327.0 -664.0 -231.0 -664.0L-166.0 -662.0C-36.0 -662.0 13.0 -637.0 13.0 -583.0C13.0 -560.0 -1.0 -543.0 -33.0 -527.0L-39.0 -407.0H-48.0C-62.0 -452.0 -80.0 -504.0 -92.0 -520.0C-99.0 -530.0 -108.0 -532.0 -117.0 -530.0C-124.0 -530.0 -139.0 -532.0 -151.0 -532.0H-189.0C-208.0 -532.0 -214.0 -526.0 -214.0 -507.0V204.0C-188.0 209.0 -178.0 220.0 -176.0 234.0ZM-361.0 238.0 -533.0 254.0V-262.0C-533.0 -454.0 -585.0 -585.0 -731.0 -690.0L-725.0 -699.0C-484.0 -619.0 -398.0 -477.0 -396.0 -262.0V208.0C-369.0 213.0 -363.0 224.0 -361.0 238.0Z"/></g>
<g fill="red" transform="translate(300 200) scale(0.1 -0.1)"><path d="M0.0 0.0 -71.0 40.0C-107.0 -14.0 -180.0 -96.0 -245.0 -147.0L-233.0 -161.0C-159.0 -118.0 -80.0 -54.0 -38.0 -7.0C-16.0 -13.0 -7.0 -10.0 0.0 0.0ZM-241.0 -180.0 -249.0 -197.0C-125.0 -258.0 -33.0 -340.0 1.0 -392.0C61.0 -423.0 92.0 -290.0 -241.0 -180.0ZM-408.0 315.0 -420.0 307.0C-386.0 277.0 -348.0 221.0 -341.0 178.0C-291.0 140.0 -249.0 251.0 -408.0 315.0ZM-742.0 -339.0 -693.0 -393.0C-685.0 -388.0 -680.0 -378.0 -680.0 -367.0C-580.0 -297.0 -503.0 -237.0 -449.0 -195.0L-457.0 -181.0C-575.0 -250.0 -693.0 -316.0 -742.0 -339.0ZM-192.0 78.0 -269.0 88.0V-490.0C-269.0 -535.0 -252.0 -551.0 -179.0 -551.0H-71.0C85.0 -551.0 114.0 -545.0 114.0 -520.0C114.0 -510.0 109.0 -505.0 90.0 -499.0L87.0 -358.0H73.0C64.0 -418.0 53.0 -480.0 47.0 -495.0C43.0 -503.0 39.0 -506.0 30.0 -507.0C15.0 -509.0 -23.0 -510.0 -73.0 -510.0H-175.0C-219.0 -510.0 -225.0 -502.0 -225.0 -480.0V53.0C-203.0 55.0 -194.0 65.0 -192.0 78.0ZM-386.0 79.0 -465.0 88.0V-189.0C-465.0 -362.0 -525.0 -497.0 -781.0 -580.0L-772.0 -598.0C-484.0 -516.0 -423.0 -369.0 -421.0 -189.0V53.0C-397.0 56.0 -389.0 65.0 -386.0 79.0Z"/></g>
<g fill="black" opacity=".8" transform="translate(300 200) scale(0.1 -0.1)"><path d="M0.0 0.0 -70.0 43.0C-107.0 -12.0 -181.0 -91.0 -244.0 -141.0L-234.0 -154.0C-159.0 -115.0 -82.0 -52.0 -38.0 -7.0C-16.0 -12.0 -6.0 -10.0 0.0 0.0ZM-241.0 -184.0 -249.0 -201.0C-128.0 -258.0 -35.0 -338.0 -0.0 -388.0C60.0 -420.0 89.0 -286.0 -241.0 -184.0ZM-412.0 312.0 -423.0 303.0C-389.0 276.0 -350.0 224.0 -341.0 183.0C-291.0 147.0 -252.0 255.0 -412.0 312.0ZM-741.0 -336.0 -695.0 -391.0C-687.0 -386.0 -682.0 -376.0 -681.0 -365.0C-581.0 -297.0 -503.0 -239.0 -450.0 -199.0L-457.0 -184.0C-575.0 -250.0 -693.0 -314.0 -741.0 -336.0ZM-193.0 77.0 -268.0 89.0V-490.0C-268.0 -535.0 -250.0 -551.0 -177.0 -551.0H-70.0C87.0 -550.0 117.0 -544.0 117.0 -519.0C117.0 -511.0 112.0 -504.0 93.0 -499.0L90.0 -358.0H76.0C67.0 -417.0 55.0 -480.0 49.0 -494.0C46.0 -503.0 42.0 -506.0 32.0 -507.0C17.0 -509.0 -21.0 -510.0 -71.0 -510.0H-174.0C-219.0 -510.0 -225.0 -502.0 -225.0 -480.0V52.0C-202.0 55.0 -194.0 65.0 -193.0 77.0ZM-387.0 78.0 -465.0 86.0V-187.0C-465.0 -359.0 -524.0 -494.0 -774.0 -577.0L-765.0 -594.0C-483.0 -511.0 -423.0 -364.0 -421.0 -187.0V52.0C-398.0 55.0 -390.0 63.0 -387.0 78.0Z"/></g>
<g fill="red" transform="translate(400 200) scale(0.1 -0.1)"><path d="M0.0 0.0 -151.0 107.0C-178.0 61.0 -237.0 -18.0 -286.0 -68.0L-278.0 -77.0C-196.0 -62.0 -102.0 -35.0 -38.0 -10.0C-15.0 -15.0 -5.0 -9.0 0.0 0.0ZM-278.0 -101.0 -285.0 -112.0C-212.0 -182.0 -166.0 -267.0 -154.0 -312.0C-35.0 -401.0 113.0 -150.0 -278.0 -101.0ZM-516.0 391.0 -521.0 386.0C-494.0 355.0 -472.0 303.0 -471.0 253.0C-337.0 154.0 -194.0 403.0 -516.0 391.0ZM-851.0 -235.0 -730.0 -359.0C-719.0 -353.0 -712.0 -340.0 -711.0 -326.0C-636.0 -227.0 -588.0 -154.0 -558.0 -104.0L-562.0 -97.0C-680.0 -157.0 -799.0 -213.0 -851.0 -235.0ZM-213.0 144.0 -390.0 160.0V-387.0C-390.0 -482.0 -359.0 -506.0 -245.0 -506.0H-152.0C15.0 -506.0 68.0 -485.0 68.0 -426.0C68.0 -402.0 57.0 -386.0 20.0 -369.0L16.0 -246.0H6.0C-14.0 -301.0 -33.0 -347.0 -46.0 -365.0C-55.0 -374.0 -65.0 -377.0 -77.0 -378.0C-90.0 -378.0 -113.0 -379.0 -136.0 -379.0H-212.0C-240.0 -379.0 -248.0 -372.0 -248.0 -353.0V117.0C-224.0 120.0 -215.0 130.0 -213.0 144.0ZM-423.0 146.0 -598.0 162.0V-146.0C-598.0 -314.0 -652.0 -457.0 -873.0 -554.0L-869.0 -563.0C-540.0 -495.0 -460.0 -338.0 -458.0 -146.0V118.0C-433.0 122.0 -425.0 132.0 -423.0 146.0Z"/></g>
<g fill="black" opacity=".8" transform="translate(400 200) scale(0.1 -0.1)"><path d="M0.0 0.0 -152.0 108.0C-179.0 63.0 -237.0 -17.0 -286.0 -67.0L-278.0 -76.0C-195.0 -61.0 -103.0 -35.0 -39.0 -10.0C-15.0 -16.0 -4.0 -9.0 0.0 0.0ZM-277.0 -98.0 -284.0 -109.0C-213.0 -178.0 -167.0 -261.0 -155.0 -307.0C-33.0 -395.0 111.0 -144.0 -277.0 -98.0ZM-519.0 391.0 -523.0 385.0C-498.0 355.0 -476.0 304.0 -475.0 255.0C-339.0 153.0 -195.0 404.0 -519.0 391.0ZM-847.0 -223.0 -735.0 -353.0C-723.0 -348.0 -716.0 -335.0 -715.0 -321.0C-636.0 -226.0 -587.0 -155.0 -557.0 -107.0L-559.0 -100.0C-676.0 -153.0 -796.0 -204.0 -847.0 -223.0ZM-212.0 142.0 -390.0 159.0V-391.0C-390.0 -486.0 -360.0 -511.0 -246.0 -511.0L-152.0 -510.0C16.0 -510.0 69.0 -488.0 69.0 -430.0C69.0 -406.0 56.0 -390.0 19.0 -373.0L15.0 -253.0H6.0C-14.0 -305.0 -33.0 -350.0 -45.0 -367.0C-54.0 -377.0 -64.0 -381.0 -76.0 -380.0C-89.0 -380.0 -113.0 -382.0 -137.0 -382.0H-212.0C-240.0 -382.0 -248.0 -375.0 -248.0 -356.0V114.0C-224.0 118.0 -214.0 128.0 -212.0 142.0ZM-424.0 143.0 -599.0 159.0V-147.0C-599.0 -313.0 -653.0 -456.0 -870.0 -554.0L-866.0 -563.0C-541.0 -494.0 -460.0 -338.0 -457.0 -148.0V116.0C-433.0 120.0 -426.0 130.0 -424.0 143.0Z"/></g>
<g fill="red" transform="translate(500 200) scale(0.1 -0.1)"><path d="M0.0 0.0 -68.0 53.0C-122.0 -19.0 -189.0 -90.0 -238.0 -130.0L-227.0 -145.0C-168.0 -114.0 -99.0 -61.0 -40.0 -6.0C-21.0 -14.0 -6.0 -8.0 0.0 0.0ZM-230.0 -206.0 -240.0 -217.0C-174.0 -255.0 -84.0 -329.0 -55.0 -385.0C7.0 -416.0 21.0 -284.0 -230.0 -206.0ZM-427.0 327.0 -438.0 318.0C-401.0 289.0 -353.0 236.0 -336.0 198.0C-282.0 167.0 -251.0 273.0 -427.0 327.0ZM-671.0 -352.0 -625.0 -404.0C-618.0 -398.0 -613.0 -386.0 -614.0 -376.0C-534.0 -308.0 -470.0 -249.0 -427.0 -209.0L-436.0 -195.0C-533.0 -263.0 -631.0 -329.0 -671.0 -352.0ZM-192.0 121.0 -270.0 131.0V-502.0C-270.0 -546.0 -253.0 -563.0 -186.0 -563.0H-90.0C51.0 -563.0 80.0 -556.0 80.0 -532.0C80.0 -522.0 75.0 -517.0 55.0 -511.0L52.0 -356.0H39.0C30.0 -421.0 19.0 -492.0 13.0 -506.0C10.0 -515.0 6.0 -518.0 -4.0 -519.0C-17.0 -520.0 -48.0 -521.0 -93.0 -521.0H-181.0C-220.0 -521.0 -226.0 -513.0 -226.0 -493.0V95.0C-204.0 98.0 -194.0 108.0 -192.0 121.0ZM-359.0 119.0 -438.0 128.0V-179.0C-438.0 -348.0 -487.0 -482.0 -692.0 -570.0L-680.0 -585.0C-448.0 -498.0 -395.0 -354.0 -394.0 -180.0V93.0C-370.0 96.0 -362.0 105.0 -359.0 119.0Z"/></g>
<g fill="black" opacity=".8" transform="translate(500 200) scale(0.1 -0.1)"><path d="M0.0 0.0 -70.0 51.0C-122.0 -22.0 -189.0 -95.0 -238.0 -138.0L-228.0 -152.0C-167.0 -119.0 -98.0 -62.0 -40.0 -7.0C-20.0 -15.0 -6.0 -9.0 0.0 0.0ZM-232.0 -201.0 -241.0 -213.0C-171.0 -253.0 -82.0 -332.0 -53.0 -387.0C8.0 -421.0 25.0 -287.0 -232.0 -201.0ZM-423.0 329.0 -434.0 320.0C-397.0 289.0 -351.0 233.0 -335.0 192.0C-282.0 159.0 -249.0 268.0 -423.0 329.0ZM-671.0 -356.0 -624.0 -408.0C-617.0 -401.0 -613.0 -389.0 -612.0 -379.0C-533.0 -308.0 -469.0 -247.0 -426.0 -206.0L-436.0 -191.0C-533.0 -263.0 -631.0 -332.0 -671.0 -356.0ZM-192.0 122.0 -270.0 132.0V-503.0C-270.0 -547.0 -253.0 -563.0 -186.0 -563.0H-93.0C48.0 -563.0 77.0 -556.0 77.0 -532.0C77.0 -522.0 72.0 -517.0 52.0 -511.0L49.0 -358.0H35.0C27.0 -421.0 15.0 -492.0 9.0 -505.0C7.0 -515.0 2.0 -518.0 -8.0 -519.0C-21.0 -520.0 -51.0 -521.0 -95.0 -521.0H-182.0C-221.0 -521.0 -227.0 -513.0 -227.0 -494.0V94.0C-203.0 99.0 -194.0 108.0 -192.0 122.0ZM-357.0 120.0 -438.0 130.0V-182.0C-438.0 -353.0 -489.0 -487.0 -700.0 -573.0L-689.0 -588.0C-449.0 -502.0 -393.0 -359.0 -393.0 -183.0V94.0C-368.0 97.0 -361.0 106.0 -357.0 120.0Z"/></g>
<g fill="red" transform="translate(600 200) scale(0.1 -0.1)"><path d="M0.0 0.0 -153.0 86.0C-182.0 9.0 -218.0 -77.0 -243.0 -129.0L-232.0 -136.0C-170.0 -104.0 -102.0 -59.0 -43.0 -13.0C-21.0 -18.0 -6.0 -11.0 0.0 0.0ZM-234.0 -174.0 -242.0 -180.0C-201.0 -227.0 -155.0 -298.0 -139.0 -364.0C-12.0 -445.0 86.0 -203.0 -234.0 -174.0ZM-505.0 339.0 -511.0 334.0C-483.0 304.0 -453.0 252.0 -445.0 204.0C-319.0 126.0 -211.0 358.0 -505.0 339.0ZM-732.0 -295.0 -648.0 -432.0C-637.0 -426.0 -629.0 -412.0 -627.0 -398.0C-568.0 -313.0 -526.0 -242.0 -502.0 -200.0L-506.0 -192.0C-598.0 -237.0 -693.0 -280.0 -732.0 -295.0ZM-187.0 132.0 -349.0 148.0V-474.0C-349.0 -562.0 -325.0 -587.0 -227.0 -587.0H-151.0C-10.0 -587.0 35.0 -558.0 35.0 -506.0C35.0 -482.0 24.0 -466.0 -8.0 -451.0L-13.0 -374.0H-23.0C-36.0 -407.0 -52.0 -439.0 -63.0 -450.0C-70.0 -455.0 -81.0 -457.0 -90.0 -458.0C-101.0 -458.0 -119.0 -459.0 -137.0 -459.0H-192.0C-215.0 -459.0 -221.0 -453.0 -221.0 -434.0V105.0C-197.0 108.0 -188.0 119.0 -187.0 132.0ZM-366.0 135.0 -526.0 150.0V-202.0C-526.0 -368.0 -572.0 -503.0 -745.0 -600.0L-738.0 -610.0C-474.0 -534.0 -403.0 -387.0 -401.0 -202.0V107.0C-376.0 111.0 -368.0 121.0 -366.0 135.0Z"/></g>
<g fill="black" opacity=".8" transform="translate(600 200) scale(0.1 -0.1)"><path d="M0.0 0.0 -153.0 84.0C-182.0 9.0 -218.0 -77.0 -243.0 -130.0L-232.0 -136.0C-169.0 -105.0 -103.0 -60.0 -44.0 -14.0C-19.0 -19.0 -6.0 -10.0 0.0 0.0ZM-235.0 -176.0 -244.0 -183.0C-200.0 -233.0 -155.0 -305.0 -140.0 -369.0C-14.0 -450.0 88.0 -210.0 -235.0 -176.0ZM-502.0 341.0 -508.0 334.0C-480.0 305.0 -448.0 251.0 -440.0 204.0C-316.0 125.0 -210.0 354.0 -502.0 341.0ZM-735.0 -309.0 -643.0 -439.0C-631.0 -432.0 -625.0 -418.0 -624.0 -405.0C-566.0 -315.0 -527.0 -242.0 -504.0 -197.0L-508.0 -190.0C-600.0 -241.0 -697.0 -292.0 -735.0 -309.0ZM-186.0 136.0 -348.0 151.0V-470.0C-348.0 -557.0 -325.0 -582.0 -228.0 -582.0L-151.0 -581.0C-10.0 -581.0 36.0 -553.0 36.0 -502.0C36.0 -479.0 23.0 -463.0 -8.0 -448.0L-14.0 -367.0H-24.0C-37.0 -401.0 -52.0 -435.0 -63.0 -446.0C-69.0 -452.0 -80.0 -455.0 -90.0 -454.0C-100.0 -454.0 -119.0 -456.0 -138.0 -456.0H-193.0C-215.0 -456.0 -222.0 -451.0 -222.0 -431.0V106.0C-198.0 110.0 -188.0 121.0 -186.0 136.0ZM-366.0 138.0 -525.0 153.0V-200.0C-525.0 -366.0 -571.0 -502.0 -748.0 -601.0L-741.0 -611.0C-474.0 -534.0 -403.0 -386.0 -400.0 -201.0V109.0C-375.0 114.0 -368.0 124.0 -366.0 138.0Z"/></g>
<g fill="red" transform="translate(700 200) scale(0.1 -0.1)"><path d="M0.0 0.0 -71.0 46.0C-104.0 -8.0 -180.0 -105.0 -240.0 -167.0L-229.0 -177.0C-158.0 -126.0 -79.0 -54.0 -38.0 -9.0C-19.0 -16.0 -4.0 -8.0 0.0 0.0ZM-229.0 -237.0 -240.0 -247.0C-178.0 -289.0 -97.0 -368.0 -74.0 -429.0C-12.0 -465.0 11.0 -328.0 -229.0 -237.0ZM-565.0 27.0 -578.0 20.0C-543.0 -27.0 -500.0 -106.0 -493.0 -164.0C-441.0 -208.0 -396.0 -88.0 -565.0 27.0ZM-625.0 -384.0 -571.0 -435.0C-564.0 -429.0 -560.0 -417.0 -561.0 -407.0C-497.0 -345.0 -447.0 -291.0 -413.0 -257.0L-422.0 -244.0C-505.0 -304.0 -589.0 -362.0 -625.0 -384.0ZM-183.0 191.0 -263.0 201.0V-623.0C-263.0 -663.0 -248.0 -682.0 -189.0 -682.0H-118.0C-6.0 -682.0 22.0 -676.0 22.0 -653.0C22.0 -643.0 16.0 -638.0 -3.0 -632.0L-6.0 -519.0H-20.0C-28.0 -565.0 -37.0 -621.0 -42.0 -630.0C-46.0 -636.0 -49.0 -637.0 -56.0 -638.0C-66.0 -639.0 -90.0 -640.0 -121.0 -640.0H-183.0C-214.0 -640.0 -219.0 -632.0 -219.0 -611.0V164.0C-194.0 168.0 -185.0 177.0 -183.0 191.0ZM-350.0 190.0 -429.0 199.0V-257.0C-429.0 -457.0 -486.0 -592.0 -669.0 -688.0L-657.0 -703.0C-446.0 -606.0 -386.0 -460.0 -385.0 -257.0V163.0C-360.0 166.0 -353.0 176.0 -350.0 190.0Z"/></g>
<g fill="black" opacity=".8" transform="translate(700 200) scale(0.1 -0.1)"><path d="M0.0 0.0 -70.0 48.0C-102.0 -3.0 -179.0 -98.0 -239.0 -159.0L-231.0 -169.0C-158.0 -120.0 -79.0 -50.0 -38.0 -9.0C-19.0 -16.0 -4.0 -9.0 0.0 0.0ZM-232.0 -238.0 -242.0 -249.0C-177.0 -286.0 -88.0 -364.0 -62.0 -422.0C2.0 -456.0 19.0 -317.0 -232.0 -238.0ZM-569.0 29.0 -582.0 21.0C-547.0 -23.0 -505.0 -97.0 -496.0 -152.0C-445.0 -195.0 -400.0 -78.0 -569.0 29.0ZM-625.0 -379.0 -574.0 -430.0C-567.0 -425.0 -562.0 -413.0 -563.0 -402.0C-497.0 -340.0 -443.0 -285.0 -409.0 -250.0L-418.0 -237.0C-503.0 -298.0 -590.0 -357.0 -625.0 -379.0ZM-187.0 191.0 -265.0 201.0V-626.0C-265.0 -665.0 -250.0 -684.0 -191.0 -684.0H-123.0C-11.0 -684.0 17.0 -677.0 17.0 -656.0C17.0 -645.0 11.0 -640.0 -8.0 -634.0L-11.0 -522.0H-24.0C-32.0 -567.0 -42.0 -623.0 -47.0 -632.0C-50.0 -638.0 -53.0 -640.0 -62.0 -640.0C-71.0 -641.0 -94.0 -642.0 -125.0 -642.0H-186.0C-218.0 -642.0 -223.0 -634.0 -223.0 -614.0V163.0C-196.0 168.0 -188.0 177.0 -187.0 191.0ZM-353.0 189.0 -431.0 198.0V-265.0C-431.0 -460.0 -483.0 -593.0 -648.0 -688.0L-635.0 -702.0C-444.0 -605.0 -388.0 -463.0 -388.0 -264.0V162.0C-363.0 166.0 -357.0 175.0 -353.0 189.0Z"/></g>
<g fill="red" transform="translate(800 200) scale(0.1 -0.1)"><path d="M0.0 0.0 -136.0 91.0C-151.0 35.0 -191.0 -86.0 -222.0 -160.0L-214.0 -166.0C-149.0 -118.0 -75.0 -48.0 -39.0 -9.0C-19.0 -15.0 -5.0 -8.0 0.0 0.0ZM-208.0 -170.0 -218.0 -175.0C-186.0 -234.0 -153.0 -314.0 -145.0 -386.0C-36.0 -479.0 77.0 -263.0 -208.0 -170.0ZM-591.0 79.0 -603.0 75.0C-581.0 16.0 -562.0 -65.0 -566.0 -134.0C-483.0 -222.0 -374.0 -44.0 -591.0 79.0ZM-656.0 -314.0 -579.0 -455.0C-567.0 -449.0 -559.0 -435.0 -557.0 -421.0C-496.0 -334.0 -453.0 -262.0 -429.0 -219.0L-432.0 -211.0C-523.0 -256.0 -618.0 -299.0 -656.0 -314.0ZM-152.0 215.0 -312.0 232.0V-571.0C-312.0 -651.0 -291.0 -678.0 -204.0 -678.0H-146.0C-29.0 -678.0 14.0 -654.0 14.0 -605.0C14.0 -582.0 3.0 -567.0 -26.0 -552.0L-31.0 -439.0H-41.0C-53.0 -482.0 -69.0 -532.0 -80.0 -547.0C-87.0 -555.0 -95.0 -556.0 -103.0 -557.0C-110.0 -557.0 -122.0 -557.0 -133.0 -557.0H-165.0C-183.0 -557.0 -187.0 -551.0 -187.0 -533.0V186.0C-162.0 190.0 -153.0 201.0 -152.0 215.0ZM-316.0 218.0 -473.0 233.0V-281.0C-473.0 -480.0 -539.0 -608.0 -712.0 -704.0L-705.0 -715.0C-447.0 -640.0 -354.0 -500.0 -352.0 -281.0V189.0C-326.0 193.0 -318.0 204.0 -316.0 218.0Z"/></g>
<g fill="black" opacity=".8" transform="translate(800 200) scale(0.1 -0.1)"><path d="M0.0 0.0 -134.0 93.0C-149.0 41.0 -189.0 -79.0 -220.0 -153.0L-212.0 -158.0C-147.0 -112.0 -73.0 -44.0 -40.0 -8.0C-19.0 -16.0 -6.0 -7.0 0.0 0.0ZM-210.0 -183.0 -219.0 -189.0C-186.0 -245.0 -148.0 -320.0 -137.0 -392.0C-22.0 -478.0 81.0 -258.0 -210.0 -183.0ZM-596.0 77.0 -607.0 73.0C-585.0 17.0 -565.0 -61.0 -569.0 -127.0C-484.0 -217.0 -373.0 -37.0 -596.0 77.0ZM-651.0 -308.0 -579.0 -447.0C-567.0 -441.0 -559.0 -427.0 -558.0 -413.0C-496.0 -329.0 -451.0 -257.0 -427.0 -215.0L-430.0 -208.0C-519.0 -252.0 -615.0 -293.0 -651.0 -308.0ZM-154.0 220.0 -313.0 237.0V-571.0C-313.0 -649.0 -293.0 -677.0 -208.0 -677.0L-151.0 -676.0C-36.0 -676.0 6.0 -652.0 6.0 -605.0C6.0 -584.0 -6.0 -568.0 -35.0 -554.0L-40.0 -441.0H-50.0C-61.0 -482.0 -77.0 -533.0 -88.0 -548.0C-94.0 -556.0 -102.0 -557.0 -110.0 -557.0C-116.0 -557.0 -128.0 -558.0 -139.0 -558.0H-168.0C-186.0 -558.0 -190.0 -552.0 -190.0 -534.0V191.0C-165.0 196.0 -156.0 207.0 -154.0 220.0ZM-318.0 224.0 -474.0 240.0V-277.0C-474.0 -475.0 -539.0 -603.0 -712.0 -699.0L-705.0 -710.0C-449.0 -635.0 -355.0 -496.0 -353.0 -277.0V196.0C-327.0 201.0 -321.0 212.0 -318.0 224.0Z"/></g>
<g fill="red" transform="translate(900 200) scale(0.1 -0.1)"><path d="M0.0 0.0 -72.0 43.0C-103.0 -9.0 -173.0 -105.0 -230.0 -165.0L-218.0 -175.0C-151.0 -124.0 -77.0 -54.0 -39.0 -11.0C-19.0 -17.0 -4.0 -9.0 0.0 0.0ZM-218.0 -220.0 -229.0 -230.0C-167.0 -274.0 -86.0 -355.0 -64.0 -417.0C-2.0 -453.0 22.0 -315.0 -218.0 -220.0ZM-554.0 48.0 -568.0 42.0C-531.0 -9.0 -487.0 -93.0 -480.0 -154.0C-427.0 -199.0 -381.0 -75.0 -554.0 48.0ZM-594.0 -377.0 -537.0 -426.0C-530.0 -419.0 -527.0 -409.0 -528.0 -397.0C-461.0 -329.0 -408.0 -270.0 -373.0 -230.0L-383.0 -218.0C-469.0 -286.0 -557.0 -352.0 -594.0 -377.0ZM-173.0 207.0 -253.0 217.0V-609.0C-253.0 -647.0 -240.0 -666.0 -184.0 -666.0H-123.0C-20.0 -666.0 5.0 -659.0 5.0 -638.0C5.0 -627.0 0.0 -623.0 -19.0 -617.0L-22.0 -504.0H-35.0C-43.0 -548.0 -53.0 -606.0 -58.0 -615.0C-61.0 -620.0 -64.0 -622.0 -71.0 -622.0C-80.0 -623.0 -99.0 -624.0 -125.0 -624.0H-178.0C-204.0 -624.0 -209.0 -616.0 -209.0 -597.0V180.0C-184.0 184.0 -175.0 193.0 -173.0 207.0ZM-330.0 209.0 -409.0 218.0V-253.0C-409.0 -447.0 -458.0 -579.0 -615.0 -677.0L-602.0 -691.0C-419.0 -591.0 -366.0 -449.0 -365.0 -252.0V182.0C-340.0 185.0 -332.0 195.0 -330.0 209.0Z"/></g>
<g fill="black" opacity=".8" transform="translate(900 200) scale(0.1 -0.1)"><path d="M0.0 0.0 -71.0 48.0C-103.0 -5.0 -176.0 -95.0 -230.0 -152.0L-221.0 -163.0C-154.0 -118.0 -81.0 -51.0 -39.0 -10.0C-20.0 -16.0 -4.0 -9.0 0.0 0.0ZM-223.0 -232.0 -234.0 -242.0C-177.0 -278.0 -95.0 -355.0 -71.0 -413.0C-9.0 -450.0 11.0 -311.0 -223.0 -232.0ZM-558.0 43.0 -571.0 36.0C-533.0 -11.0 -488.0 -87.0 -477.0 -144.0C-424.0 -186.0 -382.0 -66.0 -558.0 43.0ZM-586.0 -376.0 -534.0 -427.0C-526.0 -420.0 -522.0 -409.0 -523.0 -398.0C-462.0 -336.0 -411.0 -280.0 -380.0 -246.0L-389.0 -233.0C-469.0 -294.0 -552.0 -353.0 -586.0 -376.0ZM-174.0 210.0 -253.0 221.0V-608.0C-253.0 -647.0 -239.0 -666.0 -181.0 -666.0H-116.0C-8.0 -666.0 18.0 -658.0 18.0 -637.0C18.0 -627.0 13.0 -622.0 -5.0 -617.0L-9.0 -502.0H-22.0C-30.0 -547.0 -40.0 -605.0 -45.0 -614.0C-48.0 -620.0 -52.0 -622.0 -60.0 -622.0C-69.0 -624.0 -89.0 -624.0 -118.0 -624.0H-176.0C-205.0 -624.0 -210.0 -616.0 -210.0 -596.0V182.0C-183.0 187.0 -175.0 196.0 -174.0 210.0ZM-325.0 209.0 -404.0 217.0V-244.0C-404.0 -440.0 -453.0 -576.0 -613.0 -675.0L-600.0 -688.0C-414.0 -587.0 -360.0 -442.0 -360.0 -243.0V181.0C-335.0 185.0 -329.0 194.0 -325.0 209.0Z"/></g>
<g fill="red" transform="translate(1000 200) scale(0.1 -0.1)"><path d="M0.0 0.0 -147.0 96.0C-160.0 42.0 -197.0 -74.0 -226.0 -146.0L-219.0 -152.0C-153.0 -109.0 -76.0 -44.0 -40.0 -9.0C-19.0 -15.0 -6.0 -8.0 0.0 0.0ZM-214.0 -195.0 -224.0 -200.0C-196.0 -260.0 -166.0 -341.0 -162.0 -414.0C-57.0 -508.0 59.0 -298.0 -214.0 -195.0ZM-598.0 81.0 -609.0 77.0C-589.0 20.0 -572.0 -57.0 -577.0 -124.0C-491.0 -216.0 -374.0 -35.0 -598.0 81.0ZM-655.0 -354.0 -559.0 -468.0C-549.0 -460.0 -544.0 -445.0 -545.0 -432.0C-491.0 -334.0 -453.0 -253.0 -430.0 -204.0L-436.0 -196.0C-524.0 -264.0 -617.0 -331.0 -655.0 -354.0ZM-169.0 233.0 -323.0 250.0V-569.0C-323.0 -645.0 -304.0 -670.0 -222.0 -670.0L-168.0 -671.0C-59.0 -671.0 -19.0 -648.0 -19.0 -601.0C-19.0 -580.0 -29.0 -566.0 -57.0 -551.0L-62.0 -437.0H-72.0C-83.0 -479.0 -99.0 -532.0 -109.0 -546.0C-115.0 -554.0 -123.0 -556.0 -130.0 -556.0C-137.0 -556.0 -147.0 -557.0 -157.0 -557.0H-185.0C-201.0 -557.0 -205.0 -550.0 -205.0 -533.0V205.0C-179.0 209.0 -171.0 220.0 -169.0 233.0ZM-318.0 237.0 -475.0 252.0V-267.0C-475.0 -460.0 -526.0 -590.0 -665.0 -694.0L-657.0 -703.0C-435.0 -620.0 -357.0 -479.0 -355.0 -267.0V208.0C-328.0 212.0 -321.0 223.0 -318.0 237.0Z"/></g>
<g fill="black" opacity=".8" transform="translate(1000 200) scale(0.1 -0.1)"><path d="M0.0 0.0 -148.0 100.0C-163.0 43.0 -201.0 -75.0 -230.0 -149.0L-223.0 -154.0C-155.0 -111.0 -79.0 -45.0 -42.0 -8.0C-20.0 -16.0 -6.0 -7.0 0.0 0.0ZM-218.0 -189.0 -228.0 -194.0C-198.0 -251.0 -163.0 -329.0 -155.0 -404.0C-42.0 -494.0 63.0 -277.0 -218.0 -189.0ZM-614.0 75.0 -624.0 70.0C-600.0 15.0 -576.0 -63.0 -577.0 -130.0C-486.0 -220.0 -376.0 -33.0 -614.0 75.0ZM-647.0 -328.0 -565.0 -459.0C-553.0 -452.0 -547.0 -438.0 -547.0 -424.0C-492.0 -334.0 -453.0 -258.0 -432.0 -213.0L-436.0 -206.0C-521.0 -258.0 -612.0 -311.0 -647.0 -328.0ZM-159.0 224.0 -319.0 241.0V-575.0C-319.0 -654.0 -300.0 -681.0 -216.0 -681.0L-159.0 -680.0C-46.0 -680.0 -4.0 -655.0 -4.0 -607.0C-4.0 -586.0 -16.0 -571.0 -44.0 -556.0L-50.0 -447.0H-60.0C-71.0 -486.0 -87.0 -536.0 -97.0 -550.0C-103.0 -558.0 -111.0 -560.0 -119.0 -559.0C-125.0 -559.0 -137.0 -560.0 -147.0 -560.0H-175.0C-192.0 -560.0 -197.0 -555.0 -197.0 -536.0V194.0C-171.0 199.0 -161.0 209.0 -159.0 224.0ZM-322.0 226.0 -479.0 241.0V-278.0C-479.0 -468.0 -529.0 -595.0 -666.0 -698.0L-658.0 -708.0C-440.0 -625.0 -360.0 -487.0 -358.0 -278.0V197.0C-331.0 202.0 -325.0 213.0 -322.0 226.0Z"/></g>
<g fill="red" transform="translate(1100 200) scale(0.1 -0.1)"><path d="M0.0 0.0 -72.0 41.0C-100.0 -8.0 -164.0 -97.0 -214.0 -154.0L-203.0 -164.0C-141.0 -117.0 -73.0 -52.0 -38.0 -12.0C-18.0 -17.0 -4.0 -9.0 0.0 0.0ZM-212.0 -222.0 -223.0 -232.0C-167.0 -272.0 -95.0 -347.0 -75.0 -405.0C-16.0 -443.0 12.0 -309.0 -212.0 -222.0ZM-507.0 45.0 -520.0 39.0C-486.0 -9.0 -445.0 -88.0 -438.0 -146.0C-386.0 -190.0 -340.0 -70.0 -507.0 45.0ZM-527.0 -373.0 -465.0 -419.0C-459.0 -411.0 -457.0 -400.0 -459.0 -389.0C-410.0 -326.0 -370.0 -271.0 -346.0 -236.0L-357.0 -224.0C-425.0 -287.0 -495.0 -348.0 -527.0 -373.0ZM-158.0 217.0 -238.0 227.0V-587.0C-238.0 -625.0 -225.0 -643.0 -170.0 -643.0H-110.0C-9.0 -644.0 16.0 -636.0 16.0 -615.0C16.0 -605.0 11.0 -601.0 -7.0 -595.0L-11.0 -482.0H-24.0C-32.0 -526.0 -41.0 -583.0 -46.0 -592.0C-50.0 -598.0 -53.0 -600.0 -59.0 -601.0C-68.0 -602.0 -87.0 -602.0 -113.0 -602.0H-164.0C-190.0 -602.0 -194.0 -595.0 -194.0 -575.0V190.0C-169.0 194.0 -160.0 203.0 -158.0 217.0ZM-284.0 215.0 -363.0 224.0V-242.0C-363.0 -436.0 -414.0 -566.0 -579.0 -663.0L-566.0 -677.0C-375.0 -579.0 -320.0 -439.0 -319.0 -242.0V188.0C-294.0 191.0 -287.0 201.0 -284.0 215.0Z"/></g>
<g fill="black" opacity=".8" transform="translate(1100 200) scale(0.1 -0.1)"><path d="M0.0 0.0 -70.0 43.0C-98.0 -6.0 -163.0 -91.0 -212.0 -146.0L-203.0 -156.0C-141.0 -112.0 -75.0 -49.0 -38.0 -11.0C-18.0 -16.0 -4.0 -9.0 0.0 0.0ZM-205.0 -224.0 -216.0 -234.0C-167.0 -269.0 -96.0 -342.0 -77.0 -398.0C-19.0 -436.0 7.0 -303.0 -205.0 -224.0ZM-516.0 41.0 -528.0 34.0C-493.0 -11.0 -451.0 -85.0 -441.0 -140.0C-390.0 -182.0 -347.0 -65.0 -516.0 41.0ZM-529.0 -364.0 -475.0 -412.0C-468.0 -404.0 -465.0 -394.0 -466.0 -383.0C-413.0 -323.0 -370.0 -270.0 -344.0 -237.0L-353.0 -224.0C-424.0 -284.0 -498.0 -341.0 -529.0 -364.0ZM-156.0 214.0 -233.0 224.0V-587.0C-233.0 -624.0 -220.0 -642.0 -166.0 -642.0H-109.0C-11.0 -641.0 14.0 -634.0 14.0 -614.0C14.0 -604.0 9.0 -600.0 -9.0 -595.0L-13.0 -483.0H-26.0C-33.0 -526.0 -43.0 -583.0 -48.0 -591.0C-50.0 -598.0 -54.0 -599.0 -61.0 -599.0C-69.0 -602.0 -87.0 -601.0 -111.0 -601.0H-162.0C-187.0 -601.0 -192.0 -593.0 -192.0 -576.0V186.0C-165.0 192.0 -158.0 200.0 -156.0 214.0ZM-290.0 212.0 -367.0 221.0V-239.0C-367.0 -427.0 -413.0 -557.0 -562.0 -652.0L-549.0 -665.0C-376.0 -567.0 -325.0 -429.0 -324.0 -237.0V185.0C-300.0 189.0 -294.0 198.0 -290.0 212.0Z"/></g>
<g fill="red" transform="translate(1200 200) scale(0.1 -0.1)"><path d="M0.0 0.0 -148.0 99.0C-162.0 45.0 -200.0 -71.0 -230.0 -143.0L-222.0 -149.0C-155.0 -106.0 -77.0 -43.0 -40.0 -8.0C-19.0 -15.0 -5.0 -8.0 0.0 0.0ZM-217.0 -194.0 -227.0 -199.0C-194.0 -255.0 -157.0 -334.0 -148.0 -403.0C-42.0 -489.0 62.0 -280.0 -217.0 -194.0ZM-589.0 62.0 -600.0 57.0C-569.0 4.0 -536.0 -74.0 -531.0 -139.0C-441.0 -217.0 -347.0 -33.0 -589.0 62.0ZM-608.0 -342.0 -509.0 -455.0C-499.0 -447.0 -494.0 -431.0 -496.0 -418.0C-454.0 -325.0 -424.0 -247.0 -407.0 -202.0L-413.0 -194.0C-492.0 -257.0 -574.0 -320.0 -608.0 -342.0ZM-148.0 221.0 -300.0 237.0V-561.0C-300.0 -635.0 -282.0 -660.0 -202.0 -660.0H-150.0C-45.0 -660.0 -5.0 -638.0 -5.0 -592.0C-5.0 -572.0 -15.0 -558.0 -42.0 -543.0L-47.0 -431.0H-57.0C-68.0 -473.0 -83.0 -525.0 -94.0 -538.0C-100.0 -546.0 -107.0 -547.0 -113.0 -548.0C-120.0 -548.0 -130.0 -548.0 -139.0 -548.0H-165.0C-180.0 -548.0 -184.0 -542.0 -184.0 -525.0V192.0C-159.0 196.0 -150.0 207.0 -148.0 221.0ZM-307.0 224.0 -456.0 238.0V-277.0C-456.0 -462.0 -499.0 -585.0 -621.0 -687.0L-612.0 -696.0C-415.0 -611.0 -345.0 -478.0 -344.0 -276.0V195.0C-318.0 199.0 -310.0 210.0 -307.0 224.0Z"/></g>
<g fill="black" opacity=".8" transform="translate(1200 200) scale(0.1 -0.1)"><path d="M0.0 0.0 -148.0 101.0C-161.0 47.0 -199.0 -69.0 -226.0 -142.0L-219.0 -147.0C-153.0 -105.0 -77.0 -42.0 -41.0 -7.0C-20.0 -15.0 -5.0 -7.0 0.0 0.0ZM-209.0 -184.0 -219.0 -189.0C-194.0 -245.0 -163.0 -321.0 -159.0 -393.0C-53.0 -483.0 52.0 -279.0 -209.0 -184.0ZM-582.0 69.0 -592.0 64.0C-569.0 10.0 -544.0 -65.0 -545.0 -131.0C-459.0 -217.0 -354.0 -37.0 -582.0 69.0ZM-604.0 -324.0 -523.0 -444.0C-511.0 -437.0 -506.0 -423.0 -507.0 -410.0C-457.0 -323.0 -422.0 -249.0 -402.0 -205.0L-406.0 -198.0C-486.0 -251.0 -572.0 -306.0 -604.0 -324.0ZM-152.0 220.0 -304.0 237.0V-569.0C-304.0 -643.0 -287.0 -668.0 -209.0 -668.0L-156.0 -667.0C-52.0 -667.0 -12.0 -645.0 -12.0 -600.0C-12.0 -579.0 -24.0 -565.0 -50.0 -551.0L-56.0 -444.0H-66.0C-76.0 -482.0 -91.0 -532.0 -100.0 -545.0C-105.0 -553.0 -114.0 -555.0 -121.0 -553.0C-126.0 -553.0 -137.0 -556.0 -146.0 -556.0H-170.0C-185.0 -556.0 -190.0 -550.0 -190.0 -532.0V191.0C-164.0 196.0 -155.0 206.0 -152.0 220.0ZM-306.0 221.0 -455.0 236.0V-274.0C-455.0 -456.0 -497.0 -580.0 -614.0 -682.0L-605.0 -692.0C-413.0 -607.0 -343.0 -474.0 -340.0 -274.0V194.0C-315.0 198.0 -309.0 208.0 -306.0 221.0Z"/></g>
<g fill="red" transform="translate(1300 200) scale(0.1 -0.1)"><path d="M0.0 0.0 -72.0 41.0C-100.0 -8.0 -164.0 -97.0 -214.0 -154.0L-203.0 -164.0C-141.0 -117.0 -73.0 -52.0 -38.0 -12.0C-18.0 -17.0 -4.0 -9.0 0.0 0.0ZM-197.0 -237.0 -208.0 -246.0C-155.0 -287.0 -88.0 -361.0 -72.0 -419.0C-14.0 -457.0 17.0 -325.0 -197.0 -237.0ZM-515.0 32.0 -528.0 26.0C-495.0 -20.0 -456.0 -95.0 -450.0 -150.0C-399.0 -195.0 -352.0 -77.0 -515.0 32.0ZM-544.0 -383.0 -486.0 -431.0C-479.0 -424.0 -476.0 -413.0 -478.0 -402.0C-422.0 -339.0 -378.0 -284.0 -350.0 -250.0L-360.0 -237.0C-435.0 -299.0 -511.0 -359.0 -544.0 -383.0ZM-150.0 200.0 -230.0 210.0V-618.0C-230.0 -654.0 -218.0 -673.0 -165.0 -673.0H-112.0C-19.0 -673.0 5.0 -666.0 5.0 -645.0C5.0 -635.0 1.0 -630.0 -18.0 -624.0L-22.0 -511.0H-35.0C-42.0 -555.0 -52.0 -613.0 -57.0 -622.0C-60.0 -627.0 -63.0 -629.0 -68.0 -630.0C-76.0 -631.0 -93.0 -631.0 -115.0 -631.0H-159.0C-182.0 -631.0 -186.0 -624.0 -186.0 -606.0V173.0C-161.0 177.0 -152.0 186.0 -150.0 200.0ZM-294.0 198.0 -373.0 207.0V-260.0C-373.0 -448.0 -416.0 -579.0 -560.0 -680.0L-545.0 -693.0C-378.0 -591.0 -330.0 -450.0 -329.0 -259.0V171.0C-304.0 174.0 -297.0 184.0 -294.0 198.0Z"/></g>
<g fill="black" opacity=".8" transform="translate(1300 200) scale(0.1 -0.1)"><path d="M0.0 0.0 -74.0 40.0C-100.0 -10.0 -164.0 -100.0 -214.0 -158.0L-204.0 -168.0C-140.0 -120.0 -73.0 -53.0 -38.0 -13.0C-17.0 -17.0 -4.0 -10.0 0.0 0.0ZM-204.0 -238.0 -215.0 -248.0C-158.0 -289.0 -90.0 -366.0 -74.0 -424.0C-16.0 -464.0 17.0 -329.0 -204.0 -238.0ZM-511.0 31.0 -524.0 25.0C-490.0 -23.0 -452.0 -100.0 -446.0 -157.0C-396.0 -203.0 -347.0 -82.0 -511.0 31.0ZM-542.0 -382.0 -483.0 -431.0C-476.0 -423.0 -473.0 -412.0 -475.0 -401.0C-421.0 -338.0 -378.0 -282.0 -351.0 -248.0L-362.0 -234.0C-434.0 -298.0 -510.0 -357.0 -542.0 -382.0ZM-156.0 199.0 -235.0 210.0V-620.0C-235.0 -656.0 -223.0 -675.0 -168.0 -675.0H-112.0C-13.0 -674.0 11.0 -667.0 11.0 -646.0C11.0 -636.0 7.0 -631.0 -12.0 -626.0L-16.0 -513.0H-29.0C-37.0 -556.0 -47.0 -615.0 -52.0 -623.0C-54.0 -629.0 -58.0 -631.0 -64.0 -631.0C-73.0 -633.0 -91.0 -633.0 -114.0 -633.0H-163.0C-187.0 -633.0 -192.0 -625.0 -192.0 -607.0V171.0C-165.0 176.0 -157.0 185.0 -156.0 199.0ZM-295.0 198.0 -375.0 206.0V-265.0C-375.0 -457.0 -422.0 -588.0 -578.0 -686.0L-564.0 -699.0C-383.0 -599.0 -331.0 -459.0 -330.0 -264.0V170.0C-305.0 174.0 -299.0 183.0 -295.0 198.0Z"/></g>
<g fill="red" transform="translate(1400 200) scale(0.1 -0.1)"><path d="M0.0 0.0 -146.0 105.0C-162.0 51.0 -205.0 -65.0 -238.0 -137.0L-231.0 -143.0C-161.0 -102.0 -79.0 -41.0 -40.0 -7.0C-20.0 -14.0 -6.0 -8.0 0.0 0.0ZM-213.0 -169.0 -223.0 -174.0C-194.0 -231.0 -162.0 -309.0 -156.0 -379.0C-52.0 -470.0 61.0 -262.0 -213.0 -169.0ZM-574.0 87.0 -586.0 83.0C-568.0 22.0 -556.0 -60.0 -564.0 -131.0C-485.0 -222.0 -372.0 -48.0 -574.0 87.0ZM-620.0 -294.0 -549.0 -421.0C-538.0 -415.0 -530.0 -401.0 -529.0 -388.0C-469.0 -308.0 -427.0 -242.0 -401.0 -202.0L-405.0 -193.0C-493.0 -237.0 -583.0 -279.0 -620.0 -294.0ZM-162.0 216.0 -316.0 233.0V-586.0C-316.0 -662.0 -297.0 -687.0 -215.0 -687.0L-161.0 -688.0C-52.0 -688.0 -12.0 -665.0 -12.0 -618.0C-12.0 -597.0 -22.0 -583.0 -50.0 -568.0L-55.0 -454.0H-65.0C-76.0 -496.0 -92.0 -549.0 -102.0 -563.0C-108.0 -571.0 -116.0 -573.0 -123.0 -573.0C-130.0 -573.0 -140.0 -574.0 -150.0 -574.0H-178.0C-194.0 -574.0 -198.0 -567.0 -198.0 -550.0V188.0C-172.0 192.0 -164.0 203.0 -162.0 216.0ZM-317.0 217.0 -468.0 232.0V-277.0C-468.0 -468.0 -520.0 -596.0 -663.0 -697.0L-654.0 -707.0C-433.0 -624.0 -356.0 -486.0 -354.0 -277.0V189.0C-328.0 193.0 -320.0 203.0 -317.0 217.0Z"/></g>
<g fill="black" opacity=".8" transform="translate(1400 200) scale(0.1 -0.1)"><path d="M0.0 0.0 -148.0 105.0C-164.0 52.0 -207.0 -64.0 -240.0 -136.0L-232.0 -143.0C-162.0 -102.0 -81.0 -41.0 -41.0 -7.0C-20.0 -15.0 -5.0 -7.0 0.0 0.0ZM-217.0 -176.0 -227.0 -182.0C-196.0 -240.0 -164.0 -319.0 -160.0 -388.0C-55.0 -479.0 60.0 -271.0 -217.0 -176.0ZM-581.0 80.0 -592.0 75.0C-569.0 18.0 -547.0 -62.0 -550.0 -131.0C-463.0 -221.0 -351.0 -38.0 -581.0 80.0ZM-618.0 -307.0 -536.0 -427.0C-525.0 -421.0 -519.0 -406.0 -519.0 -393.0C-462.0 -309.0 -423.0 -239.0 -400.0 -196.0L-404.0 -188.0C-491.0 -239.0 -581.0 -289.0 -618.0 -307.0ZM-161.0 220.0 -316.0 236.0V-582.0C-316.0 -656.0 -298.0 -682.0 -216.0 -682.0H-161.0C-52.0 -682.0 -11.0 -660.0 -11.0 -614.0C-11.0 -593.0 -23.0 -579.0 -50.0 -564.0L-55.0 -448.0H-66.0C-77.0 -490.0 -93.0 -544.0 -102.0 -559.0C-108.0 -568.0 -116.0 -569.0 -123.0 -568.0C-129.0 -568.0 -141.0 -570.0 -151.0 -570.0H-178.0C-195.0 -570.0 -199.0 -564.0 -199.0 -546.0V190.0C-173.0 195.0 -164.0 205.0 -161.0 220.0ZM-319.0 220.0 -471.0 235.0V-277.0C-471.0 -465.0 -517.0 -595.0 -651.0 -699.0L-642.0 -710.0C-431.0 -622.0 -358.0 -483.0 -356.0 -277.0V192.0C-329.0 196.0 -322.0 207.0 -319.0 220.0Z"/></g>
<g fill="red" transform="translate(1500 200) scale(0.1 -0.1)"><path d="M0.0 0.0 -67.0 44.0C-116.0 -32.0 -179.0 -109.0 -226.0 -154.0L-212.0 -168.0C-158.0 -130.0 -93.0 -69.0 -39.0 -9.0C-20.0 -15.0 -6.0 -8.0 0.0 0.0ZM-209.0 -212.0 -220.0 -223.0C-159.0 -264.0 -74.0 -341.0 -50.0 -398.0C1.0 -429.0 17.0 -312.0 -209.0 -212.0ZM-545.0 49.0 -559.0 42.0C-516.0 -10.0 -464.0 -97.0 -458.0 -160.0C-413.0 -200.0 -378.0 -83.0 -545.0 49.0ZM-572.0 -366.0 -523.0 -415.0C-516.0 -409.0 -513.0 -398.0 -514.0 -387.0C-447.0 -321.0 -393.0 -264.0 -357.0 -226.0L-368.0 -213.0C-451.0 -279.0 -536.0 -342.0 -572.0 -366.0ZM-162.0 131.0 -240.0 141.0V-549.0C-240.0 -586.0 -228.0 -604.0 -172.0 -604.0H-109.0C-6.0 -604.0 19.0 -596.0 19.0 -575.0C19.0 -564.0 14.0 -560.0 -5.0 -555.0L-7.0 -451.0H-20.0C-28.0 -492.0 -37.0 -544.0 -42.0 -553.0C-46.0 -559.0 -49.0 -559.0 -55.0 -560.0C-64.0 -561.0 -84.0 -561.0 -111.0 -561.0H-166.0C-192.0 -561.0 -196.0 -556.0 -196.0 -537.0V105.0C-173.0 108.0 -164.0 118.0 -162.0 131.0ZM-307.0 132.0 -386.0 141.0V-192.0C-386.0 -362.0 -422.0 -508.0 -579.0 -611.0L-566.0 -626.0C-383.0 -522.0 -343.0 -366.0 -342.0 -192.0V106.0C-318.0 108.0 -310.0 118.0 -307.0 132.0Z"/></g>
<g fill="black" opacity=".8" transform="translate(1500 200) scale(0.1 -0.1)"><path d="M0.0 0.0 -67.0 46.0C-115.0 -31.0 -179.0 -106.0 -225.0 -150.0L-213.0 -163.0C-158.0 -128.0 -94.0 -67.0 -40.0 -8.0C-20.0 -15.0 -6.0 -9.0 0.0 0.0ZM-211.0 -213.0 -221.0 -225.0C-160.0 -263.0 -72.0 -339.0 -47.0 -395.0C4.0 -426.0 18.0 -308.0 -211.0 -213.0ZM-547.0 48.0 -561.0 40.0C-518.0 -10.0 -466.0 -94.0 -458.0 -156.0C-415.0 -194.0 -381.0 -79.0 -547.0 48.0ZM-571.0 -364.0 -525.0 -413.0C-517.0 -408.0 -514.0 -397.0 -514.0 -386.0C-447.0 -320.0 -392.0 -263.0 -356.0 -226.0L-367.0 -212.0C-450.0 -278.0 -536.0 -340.0 -571.0 -364.0ZM-163.0 131.0 -240.0 141.0V-550.0C-240.0 -587.0 -228.0 -605.0 -171.0 -605.0H-110.0C-7.0 -604.0 19.0 -596.0 19.0 -575.0C19.0 -565.0 13.0 -560.0 -6.0 -556.0L-8.0 -452.0H-21.0C-28.0 -492.0 -38.0 -545.0 -42.0 -553.0C-45.0 -560.0 -50.0 -560.0 -56.0 -560.0C-65.0 -562.0 -84.0 -562.0 -111.0 -562.0H-167.0C-193.0 -562.0 -198.0 -556.0 -198.0 -539.0V104.0C-172.0 109.0 -165.0 119.0 -163.0 131.0ZM-308.0 131.0 -386.0 140.0V-193.0C-386.0 -362.0 -421.0 -508.0 -572.0 -610.0L-558.0 -624.0C-382.0 -520.0 -343.0 -365.0 -343.0 -193.0V106.0C-319.0 108.0 -312.0 117.0 -308.0 131.0Z"/></g>
<g fill="red" transform="translate(1600 200) scale(0.1 -0.1)"><path d="M0.0 0.0 -138.0 76.0C-167.0 2.0 -201.0 -82.0 -226.0 -132.0L-214.0 -140.0C-158.0 -107.0 -96.0 -59.0 -42.0 -14.0C-20.0 -18.0 -6.0 -11.0 0.0 0.0ZM-222.0 -164.0 -231.0 -170.0C-192.0 -218.0 -147.0 -291.0 -132.0 -354.0C-27.0 -426.0 58.0 -220.0 -222.0 -164.0ZM-622.0 75.0 -632.0 70.0C-603.0 17.0 -574.0 -59.0 -571.0 -125.0C-479.0 -208.0 -375.0 -18.0 -622.0 75.0ZM-623.0 -275.0 -541.0 -390.0C-531.0 -384.0 -524.0 -370.0 -524.0 -357.0C-474.0 -279.0 -439.0 -215.0 -417.0 -176.0L-422.0 -167.0C-504.0 -214.0 -588.0 -259.0 -623.0 -275.0ZM-170.0 155.0 -321.0 170.0V-466.0C-321.0 -545.0 -303.0 -569.0 -217.0 -569.0H-157.0C-40.0 -569.0 1.0 -541.0 1.0 -494.0C1.0 -472.0 -9.0 -457.0 -38.0 -443.0L-42.0 -366.0H-52.0C-63.0 -397.0 -77.0 -432.0 -87.0 -441.0C-93.0 -447.0 -102.0 -448.0 -110.0 -449.0C-118.0 -449.0 -131.0 -450.0 -144.0 -450.0H-182.0C-199.0 -450.0 -204.0 -444.0 -204.0 -428.0V127.0C-180.0 131.0 -171.0 142.0 -170.0 155.0ZM-325.0 159.0 -472.0 173.0V-223.0C-472.0 -375.0 -504.0 -489.0 -615.0 -581.0L-606.0 -591.0C-418.0 -513.0 -361.0 -390.0 -360.0 -223.0V131.0C-335.0 135.0 -327.0 145.0 -325.0 159.0Z"/></g>
<g fill="black" opacity=".8" transform="translate(1600 200) scale(0.1 -0.1)"><path d="M0.0 0.0 -138.0 77.0C-167.0 4.0 -202.0 -80.0 -226.0 -130.0L-214.0 -137.0C-157.0 -105.0 -96.0 -58.0 -43.0 -13.0C-20.0 -19.0 -6.0 -10.0 0.0 0.0ZM-222.0 -166.0 -231.0 -173.0C-192.0 -220.0 -146.0 -291.0 -131.0 -354.0C-22.0 -424.0 58.0 -216.0 -222.0 -166.0ZM-624.0 75.0 -634.0 69.0C-606.0 17.0 -576.0 -58.0 -573.0 -123.0C-480.0 -207.0 -375.0 -18.0 -624.0 75.0ZM-620.0 -269.0 -543.0 -385.0C-532.0 -380.0 -526.0 -366.0 -526.0 -354.0C-474.0 -277.0 -439.0 -214.0 -416.0 -176.0L-420.0 -168.0C-502.0 -211.0 -587.0 -255.0 -620.0 -269.0ZM-169.0 156.0 -321.0 171.0V-467.0C-321.0 -546.0 -303.0 -571.0 -218.0 -571.0L-158.0 -569.0C-40.0 -569.0 0.0 -542.0 0.0 -496.0C0.0 -474.0 -12.0 -459.0 -40.0 -446.0L-45.0 -369.0H-55.0C-65.0 -398.0 -79.0 -433.0 -88.0 -442.0C-93.0 -448.0 -102.0 -450.0 -111.0 -449.0C-118.0 -449.0 -132.0 -451.0 -146.0 -451.0H-182.0C-199.0 -451.0 -204.0 -446.0 -204.0 -429.0V127.0C-181.0 132.0 -171.0 142.0 -169.0 156.0ZM-326.0 160.0 -473.0 173.0V-223.0C-473.0 -373.0 -505.0 -487.0 -614.0 -580.0L-605.0 -589.0C-420.0 -511.0 -361.0 -389.0 -359.0 -223.0V132.0C-335.0 136.0 -328.0 146.0 -326.0 160.0Z"/></g>
<g fill="red" transform="translate(100 300) scale(0.1 -0.1)"><path d="M0.0 0.0 -70.0 48.0C-103.0 -4.0 -180.0 -97.0 -240.0 -156.0L-230.0 -167.0C-159.0 -119.0 -80.0 -51.0 -38.0 -9.0C-20.0 -16.0 -4.0 -9.0 0.0 0.0ZM-232.0 -241.0 -242.0 -252.0C-172.0 -291.0 -75.0 -367.0 -44.0 -425.0C21.0 -455.0 33.0 -317.0 -232.0 -241.0ZM-574.0 22.0 -587.0 15.0C-553.0 -30.0 -512.0 -105.0 -504.0 -160.0C-453.0 -204.0 -407.0 -86.0 -574.0 22.0ZM-622.0 -386.0 -567.0 -436.0C-560.0 -429.0 -556.0 -419.0 -557.0 -408.0C-489.0 -341.0 -435.0 -284.0 -399.0 -246.0L-408.0 -233.0C-496.0 -298.0 -584.0 -362.0 -622.0 -386.0ZM-186.0 181.0 -266.0 191.0V-634.0C-266.0 -673.0 -252.0 -692.0 -194.0 -692.0H-128.0C-20.0 -692.0 8.0 -686.0 8.0 -664.0C8.0 -653.0 2.0 -648.0 -17.0 -642.0L-21.0 -529.0H-33.0C-41.0 -575.0 -51.0 -631.0 -56.0 -641.0C-60.0 -646.0 -63.0 -648.0 -70.0 -648.0C-79.0 -649.0 -101.0 -650.0 -130.0 -650.0H-188.0C-217.0 -650.0 -222.0 -642.0 -222.0 -622.0V154.0C-197.0 158.0 -188.0 167.0 -186.0 181.0ZM-348.0 179.0 -427.0 188.0V-274.0C-427.0 -464.0 -471.0 -598.0 -619.0 -699.0L-604.0 -712.0C-433.0 -610.0 -384.0 -466.0 -383.0 -273.0V152.0C-358.0 155.0 -351.0 165.0 -348.0 179.0Z"/></g>
<g fill="black" opacity=".8" transform="translate(100 300) scale(0.1 -0.1)"><path d="M0.0 0.0 -72.0 47.0C-105.0 -9.0 -180.0 -103.0 -239.0 -163.0L-229.0 -174.0C-158.0 -125.0 -82.0 -54.0 -39.0 -10.0C-19.0 -16.0 -4.0 -9.0 0.0 0.0ZM-229.0 -241.0 -239.0 -252.0C-173.0 -292.0 -85.0 -372.0 -59.0 -430.0C2.0 -465.0 22.0 -328.0 -229.0 -241.0ZM-573.0 18.0 -586.0 11.0C-550.0 -37.0 -508.0 -115.0 -500.0 -173.0C-450.0 -218.0 -405.0 -98.0 -573.0 18.0ZM-621.0 -387.0 -569.0 -438.0C-561.0 -432.0 -557.0 -421.0 -558.0 -410.0C-491.0 -345.0 -438.0 -289.0 -403.0 -253.0L-412.0 -240.0C-498.0 -303.0 -585.0 -363.0 -621.0 -387.0ZM-183.0 180.0 -262.0 190.0V-632.0C-262.0 -671.0 -249.0 -690.0 -189.0 -690.0H-123.0C-13.0 -690.0 14.0 -683.0 14.0 -661.0C14.0 -651.0 8.0 -645.0 -11.0 -640.0L-14.0 -529.0H-27.0C-35.0 -573.0 -45.0 -629.0 -50.0 -638.0C-53.0 -644.0 -57.0 -645.0 -64.0 -645.0C-74.0 -647.0 -96.0 -647.0 -125.0 -647.0H-184.0C-214.0 -647.0 -219.0 -639.0 -219.0 -620.0V152.0C-192.0 157.0 -184.0 166.0 -183.0 180.0ZM-347.0 179.0 -427.0 187.0V-265.0C-427.0 -459.0 -476.0 -596.0 -641.0 -695.0L-627.0 -709.0C-437.0 -608.0 -383.0 -462.0 -383.0 -264.0V151.0C-358.0 155.0 -352.0 164.0 -347.0 179.0Z"/></g>
<g fill="red" transform="translate(200 300) scale(0.1 -0.1)"><path d="M0.0 0.0 -134.0 96.0C-150.0 42.0 -193.0 -72.0 -226.0 -142.0L-218.0 -148.0C-152.0 -105.0 -76.0 -42.0 -40.0 -8.0C-20.0 -15.0 -6.0 -8.0 0.0 0.0ZM-221.0 -198.0 -229.0 -204.0C-189.0 -254.0 -140.0 -329.0 -121.0 -396.0C-1.0 -472.0 89.0 -244.0 -221.0 -198.0ZM-618.0 67.0 -629.0 62.0C-605.0 7.0 -582.0 -71.0 -583.0 -138.0C-494.0 -226.0 -384.0 -41.0 -618.0 67.0ZM-649.0 -296.0 -576.0 -427.0C-565.0 -421.0 -557.0 -407.0 -556.0 -394.0C-495.0 -312.0 -452.0 -243.0 -426.0 -203.0L-430.0 -194.0C-519.0 -239.0 -612.0 -281.0 -649.0 -296.0ZM-162.0 218.0 -319.0 235.0V-563.0C-319.0 -641.0 -299.0 -667.0 -215.0 -667.0H-158.0C-45.0 -667.0 -4.0 -644.0 -4.0 -596.0C-4.0 -575.0 -14.0 -560.0 -43.0 -545.0L-47.0 -432.0H-58.0C-69.0 -475.0 -85.0 -526.0 -96.0 -540.0C-102.0 -548.0 -110.0 -549.0 -117.0 -550.0C-125.0 -550.0 -135.0 -550.0 -146.0 -550.0H-176.0C-193.0 -550.0 -197.0 -544.0 -197.0 -526.0V190.0C-172.0 194.0 -163.0 205.0 -162.0 218.0ZM-327.0 225.0 -481.0 240.0V-269.0C-481.0 -466.0 -545.0 -593.0 -715.0 -689.0L-708.0 -699.0C-455.0 -623.0 -365.0 -485.0 -363.0 -269.0V197.0C-337.0 201.0 -329.0 211.0 -327.0 225.0Z"/></g>
<g fill="black" opacity=".8" transform="translate(200 300) scale(0.1 -0.1)"><path d="M0.0 0.0 -136.0 93.0C-154.0 38.0 -195.0 -78.0 -228.0 -148.0L-219.0 -155.0C-153.0 -111.0 -79.0 -46.0 -41.0 -9.0C-19.0 -16.0 -6.0 -8.0 0.0 0.0ZM-216.0 -179.0 -226.0 -185.0C-190.0 -241.0 -150.0 -318.0 -139.0 -387.0C-24.0 -472.0 79.0 -253.0 -216.0 -179.0ZM-611.0 71.0 -622.0 66.0C-600.0 9.0 -579.0 -72.0 -582.0 -141.0C-496.0 -232.0 -382.0 -49.0 -611.0 71.0ZM-652.0 -298.0 -579.0 -434.0C-567.0 -428.0 -559.0 -414.0 -558.0 -400.0C-495.0 -318.0 -451.0 -248.0 -425.0 -206.0L-429.0 -199.0C-519.0 -242.0 -615.0 -284.0 -652.0 -298.0ZM-161.0 213.0 -320.0 230.0V-565.0C-320.0 -644.0 -300.0 -671.0 -214.0 -671.0L-156.0 -670.0C-39.0 -670.0 3.0 -646.0 3.0 -599.0C3.0 -577.0 -9.0 -561.0 -38.0 -547.0L-42.0 -435.0H-53.0C-64.0 -477.0 -80.0 -527.0 -91.0 -541.0C-97.0 -550.0 -105.0 -551.0 -113.0 -550.0C-120.0 -550.0 -132.0 -551.0 -144.0 -551.0H-175.0C-193.0 -551.0 -197.0 -546.0 -197.0 -528.0V184.0C-172.0 189.0 -162.0 200.0 -161.0 213.0ZM-325.0 217.0 -481.0 233.0V-273.0C-481.0 -467.0 -542.0 -595.0 -709.0 -692.0L-701.0 -703.0C-452.0 -626.0 -363.0 -487.0 -361.0 -273.0V188.0C-335.0 193.0 -328.0 204.0 -325.0 217.0Z"/></g>
<g fill="red" transform="translate(300 300) scale(0.1 -0.1)"><path d="M0.0 0.0 -72.0 41.0C-100.0 -8.0 -164.0 -97.0 -214.0 -154.0L-203.0 -164.0C-141.0 -117.0 -73.0 -52.0 -38.0 -12.0C-18.0 -17.0 -4.0 -9.0 0.0 0.0ZM-205.0 -247.0 -216.0 -256.0C-163.0 -297.0 -96.0 -371.0 -80.0 -429.0C-22.0 -467.0 9.0 -335.0 -205.0 -247.0ZM-516.0 12.0 -529.0 6.0C-496.0 -40.0 -457.0 -115.0 -451.0 -170.0C-400.0 -215.0 -353.0 -97.0 -516.0 12.0ZM-544.0 -375.0 -487.0 -424.0C-480.0 -417.0 -477.0 -407.0 -479.0 -396.0C-426.0 -337.0 -384.0 -286.0 -357.0 -254.0L-367.0 -241.0C-439.0 -298.0 -511.0 -353.0 -544.0 -375.0ZM-159.0 190.0 -239.0 200.0V-626.0C-239.0 -664.0 -226.0 -683.0 -170.0 -683.0H-109.0C-6.0 -683.0 19.0 -676.0 19.0 -655.0C19.0 -644.0 14.0 -640.0 -5.0 -634.0L-8.0 -521.0H-21.0C-29.0 -565.0 -39.0 -623.0 -44.0 -632.0C-47.0 -637.0 -50.0 -639.0 -57.0 -639.0C-66.0 -640.0 -85.0 -641.0 -111.0 -641.0H-164.0C-190.0 -641.0 -195.0 -633.0 -195.0 -614.0V163.0C-170.0 167.0 -161.0 176.0 -159.0 190.0ZM-303.0 188.0 -382.0 197.0V-270.0C-382.0 -461.0 -430.0 -592.0 -586.0 -690.0L-572.0 -703.0C-391.0 -604.0 -339.0 -464.0 -338.0 -269.0V161.0C-313.0 164.0 -306.0 174.0 -303.0 188.0Z"/></g>
<g fill="black" opacity=".8" transform="translate(300 300) scale(0.1 -0.1)"><path d="M0.0 0.0 -74.0 39.0C-99.0 -10.0 -164.0 -101.0 -214.0 -161.0L-204.0 -171.0C-140.0 -121.0 -72.0 -53.0 -38.0 -13.0C-17.0 -17.0 -4.0 -10.0 0.0 0.0ZM-204.0 -241.0 -215.0 -251.0C-156.0 -293.0 -88.0 -370.0 -72.0 -428.0C-14.0 -468.0 19.0 -333.0 -204.0 -241.0ZM-512.0 18.0 -526.0 12.0C-493.0 -36.0 -457.0 -113.0 -452.0 -170.0C-402.0 -217.0 -353.0 -97.0 -512.0 18.0ZM-545.0 -384.0 -486.0 -432.0C-479.0 -425.0 -476.0 -414.0 -478.0 -403.0C-424.0 -340.0 -381.0 -284.0 -355.0 -250.0L-365.0 -237.0C-438.0 -300.0 -513.0 -359.0 -545.0 -384.0ZM-157.0 193.0 -236.0 204.0V-628.0C-236.0 -664.0 -224.0 -683.0 -169.0 -683.0H-114.0C-16.0 -682.0 8.0 -675.0 8.0 -654.0C8.0 -644.0 3.0 -639.0 -15.0 -634.0L-19.0 -522.0H-32.0C-40.0 -565.0 -50.0 -623.0 -55.0 -631.0C-57.0 -637.0 -61.0 -638.0 -67.0 -638.0C-76.0 -641.0 -93.0 -641.0 -116.0 -641.0H-164.0C-188.0 -641.0 -193.0 -633.0 -193.0 -615.0V165.0C-166.0 170.0 -158.0 179.0 -157.0 193.0ZM-298.0 192.0 -378.0 200.0V-274.0C-378.0 -465.0 -426.0 -595.0 -580.0 -692.0L-566.0 -706.0C-386.0 -606.0 -334.0 -467.0 -333.0 -272.0V164.0C-308.0 168.0 -302.0 177.0 -298.0 192.0Z"/></g>
<g fill="red" transform="translate(400 300) scale(0.1 -0.1)"><path d="M0.0 0.0 -146.0 105.0C-162.0 51.0 -205.0 -65.0 -238.0 -137.0L-231.0 -143.0C-161.0 -102.0 -79.0 -41.0 -40.0 -7.0C-20.0 -14.0 -6.0 -8.0 0.0 0.0ZM-213.0 -169.0 -223.0 -174.0C-196.0 -231.0 -167.0 -309.0 -164.0 -379.0C-60.0 -472.0 56.0 -267.0 -213.0 -169.0ZM-582.0 68.0 -593.0 64.0C-568.0 7.0 -546.0 -70.0 -547.0 -137.0C-454.0 -229.0 -337.0 -38.0 -582.0 68.0ZM-605.0 -288.0 -534.0 -415.0C-523.0 -409.0 -515.0 -395.0 -514.0 -382.0C-454.0 -302.0 -412.0 -236.0 -386.0 -196.0L-390.0 -187.0C-478.0 -231.0 -568.0 -273.0 -605.0 -288.0ZM-162.0 216.0 -316.0 233.0V-586.0C-316.0 -662.0 -297.0 -687.0 -215.0 -687.0L-161.0 -688.0C-52.0 -688.0 -12.0 -665.0 -12.0 -618.0C-12.0 -597.0 -22.0 -583.0 -50.0 -568.0L-55.0 -454.0H-65.0C-76.0 -496.0 -92.0 -549.0 -102.0 -563.0C-108.0 -571.0 -116.0 -573.0 -123.0 -573.0C-130.0 -573.0 -140.0 -574.0 -150.0 -574.0H-178.0C-194.0 -574.0 -198.0 -567.0 -198.0 -550.0V188.0C-172.0 192.0 -164.0 203.0 -162.0 216.0ZM-317.0 217.0 -468.0 232.0V-280.0C-468.0 -468.0 -513.0 -597.0 -641.0 -701.0L-632.0 -711.0C-427.0 -624.0 -356.0 -485.0 -354.0 -280.0V189.0C-328.0 193.0 -320.0 203.0 -317.0 217.0Z"/></g>
<g fill="black" opacity=".8" transform="translate(400 300) scale(0.1 -0.1)"><path d="M0.0 0.0 -144.0 103.0C-159.0 52.0 -203.0 -64.0 -238.0 -136.0L-230.0 -143.0C-160.0 -102.0 -79.0 -41.0 -41.0 -7.0C-19.0 -15.0 -5.0 -7.0 0.0 0.0ZM-214.0 -173.0 -224.0 -179.0C-192.0 -238.0 -160.0 -315.0 -155.0 -383.0C-51.0 -472.0 64.0 -266.0 -214.0 -173.0ZM-576.0 73.0 -587.0 69.0C-565.0 11.0 -545.0 -70.0 -549.0 -140.0C-465.0 -230.0 -352.0 -50.0 -576.0 73.0ZM-612.0 -299.0 -534.0 -419.0C-522.0 -413.0 -516.0 -399.0 -516.0 -386.0C-457.0 -304.0 -417.0 -237.0 -392.0 -195.0L-396.0 -186.0C-484.0 -234.0 -575.0 -282.0 -612.0 -299.0ZM-159.0 219.0 -313.0 235.0V-582.0C-313.0 -656.0 -295.0 -682.0 -214.0 -682.0H-160.0C-51.0 -682.0 -11.0 -660.0 -11.0 -615.0C-11.0 -594.0 -22.0 -580.0 -49.0 -566.0L-54.0 -447.0H-65.0C-76.0 -490.0 -91.0 -545.0 -101.0 -560.0C-107.0 -569.0 -114.0 -570.0 -122.0 -569.0C-128.0 -569.0 -139.0 -571.0 -149.0 -571.0H-176.0C-193.0 -571.0 -197.0 -565.0 -197.0 -548.0V190.0C-171.0 195.0 -162.0 205.0 -159.0 219.0ZM-316.0 220.0 -466.0 235.0V-278.0C-466.0 -468.0 -516.0 -597.0 -659.0 -700.0L-650.0 -711.0C-431.0 -625.0 -355.0 -486.0 -353.0 -278.0V192.0C-326.0 196.0 -320.0 207.0 -316.0 220.0Z"/></g>
</svg>
