<?xml version="1.0" encoding="UTF-8"?>
<svg width="1700" height="300" xmlns="http://www.w3.org/2000/svg">
<rect width="100%" height="100%" fill="white"/>
<g fill="green" transform="translate(100 100) scale(0.1 -0.1)"><path d="M0.0 0.0V-618.0H9.0C25.0 -618.0 44.0 -607.0 44.0 -599.0V-37.0C69.0 -34.0 77.0 -24.0 80.0 -10.0L0.0 0.0ZM-165.0 225.0V196.0H139.0V225.0H-165.0ZM-164.0 74.0V44.0H140.0V74.0H-164.0ZM-105.0 -101.0V-130.0H142.0V-101.0H-105.0ZM117.0 225.0V-3.0H123.0C138.0 -3.0 160.0 9.0 161.0 15.0V186.0C180.0 190.0 198.0 198.0 205.0 206.0L137.0 257.0L107.0 225.0H117.0ZM-182.0 225.0V-38.0C-182.0 -231.0 -192.0 -436.0 -291.0 -603.0L-273.0 -614.0C-146.0 -446.0 -137.0 -212.0 -137.0 -37.0V225.0H-127.0L-182.0 253.0V235.0V225.0ZM-120.0 -101.0V-519.0H-114.0C-91.0 -519.0 -75.0 -507.0 -75.0 -503.0V-101.0H-63.0L-120.0 -74.0V-101.0ZM234.0 199.0V-424.0H243.0C260.0 -424.0 278.0 -413.0 278.0 -404.0V162.0C303.0 165.0 312.0 175.0 315.0 189.0L234.0 199.0ZM373.0 279.0V-534.0C373.0 -550.0 368.0 -555.0 350.0 -555.0C333.0 -555.0 244.0 -547.0 244.0 -547.0V-564.0C281.0 -569.0 305.0 -574.0 318.0 -583.0C330.0 -591.0 336.0 -605.0 338.0 -618.0C409.0 -610.0 417.0 -582.0 417.0 -539.0V242.0C441.0 245.0 451.0 255.0 454.0 269.0L373.0 279.0ZM118.0 -101.0V-438.0C118.0 -449.0 115.0 -453.0 105.0 -453.0C93.0 -453.0 52.0 -449.0 52.0 -449.0V-466.0C73.0 -469.0 84.0 -475.0 92.0 -482.0C100.0 -490.0 103.0 -505.0 104.0 -516.0C156.0 -510.0 162.0 -486.0 162.0 -442.0V-140.0C182.0 -137.0 200.0 -128.0 206.0 -121.0L134.0 -68.0L108.0 -101.0H118.0Z"/></g>
<g fill="green" transform="translate(200 100) scale(0.1 -0.1)"><path d="M0.0 0.0V-623.0H17.0C53.0 -623.0 94.0 -604.0 94.0 -594.0V-41.0C121.0 -37.0 129.0 -27.0 131.0 -13.0L0.0 0.0ZM-116.0 247.0V219.0H111.0V247.0H-116.0ZM-116.0 66.0V38.0H125.0V66.0H-116.0ZM-77.0 -123.0V-151.0H207.0V-123.0H-77.0ZM74.0 247.0V7.0H96.0C137.0 7.0 196.0 32.0 197.0 41.0V204.0C213.0 208.0 224.0 215.0 228.0 221.0L119.0 303.0L65.0 247.0H74.0ZM-173.0 247.0V10.0C-173.0 -176.0 -169.0 -404.0 -219.0 -586.0L-207.0 -593.0C-62.0 -420.0 -60.0 -164.0 -60.0 10.0V247.0H-42.0L-173.0 294.0V257.0V247.0ZM-106.0 -123.0V-523.0H-92.0C-50.0 -523.0 -24.0 -503.0 -24.0 -497.0V-123.0H-11.0L-106.0 -85.0V-123.0ZM227.0 210.0V-376.0H246.0C285.0 -376.0 329.0 -356.0 329.0 -347.0V169.0C355.0 173.0 363.0 183.0 366.0 197.0L227.0 210.0ZM360.0 317.0V-480.0C360.0 -492.0 355.0 -496.0 341.0 -496.0C322.0 -496.0 237.0 -491.0 237.0 -491.0V-505.0C280.0 -513.0 299.0 -525.0 312.0 -542.0C325.0 -560.0 330.0 -588.0 332.0 -624.0C457.0 -613.0 473.0 -569.0 473.0 -488.0V274.0C498.0 278.0 508.0 287.0 510.0 302.0L360.0 317.0ZM118.0 -123.0V-407.0C118.0 -418.0 116.0 -422.0 106.0 -422.0C96.0 -422.0 72.0 -420.0 72.0 -420.0V-435.0C91.0 -439.0 99.0 -449.0 105.0 -461.0C111.0 -474.0 112.0 -495.0 113.0 -521.0C195.0 -513.0 205.0 -479.0 205.0 -416.0V-168.0C226.0 -164.0 241.0 -155.0 248.0 -147.0L150.0 -74.0L108.0 -123.0H118.0Z"/></g>
<g fill="green" transform="translate(300 100) scale(0.1 -0.1)"><path d="M0.0 0.0V-618.0H9.0C25.0 -618.0 44.0 -607.0 44.0 -599.0V-37.0C69.0 -34.0 77.0 -24.0 80.0 -10.0L0.0 0.0ZM-165.0 225.0V196.0H139.0V225.0H-165.0ZM-164.0 74.0V44.0H140.0V74.0H-164.0ZM-105.0 -101.0V-130.0H142.0V-101.0H-105.0ZM117.0 225.0V-3.0H123.0C138.0 -3.0 160.0 9.0 161.0 15.0V186.0C180.0 190.0 198.0 198.0 205.0 206.0L137.0 257.0L107.0 225.0H117.0ZM-182.0 225.0V-38.0C-182.0 -231.0 -192.0 -436.0 -291.0 -603.0L-273.0 -614.0C-146.0 -446.0 -137.0 -212.0 -137.0 -37.0V225.0H-127.0L-182.0 253.0V235.0V225.0ZM-120.0 -101.0V-519.0H-114.0C-91.0 -519.0 -75.0 -507.0 -75.0 -503.0V-101.0H-63.0L-120.0 -74.0V-101.0ZM234.0 199.0V-424.0H243.0C260.0 -424.0 278.0 -413.0 278.0 -404.0V162.0C303.0 165.0 312.0 175.0 315.0 189.0L234.0 199.0ZM373.0 279.0V-534.0C373.0 -550.0 368.0 -555.0 350.0 -555.0C333.0 -555.0 244.0 -547.0 244.0 -547.0V-564.0C281.0 -569.0 305.0 -574.0 318.0 -583.0C330.0 -591.0 336.0 -605.0 338.0 -618.0C409.0 -610.0 417.0 -582.0 417.0 -539.0V242.0C441.0 245.0 451.0 255.0 454.0 269.0L373.0 279.0ZM118.0 -101.0V-438.0C118.0 -449.0 115.0 -453.0 105.0 -453.0C93.0 -453.0 52.0 -449.0 52.0 -449.0V-466.0C73.0 -469.0 84.0 -475.0 92.0 -482.0C100.0 -490.0 103.0 -505.0 104.0 -516.0C156.0 -510.0 162.0 -486.0 162.0 -442.0V-140.0C182.0 -137.0 200.0 -128.0 206.0 -121.0L134.0 -68.0L108.0 -101.0H118.0Z"/></g>
<g fill="green" transform="translate(400 100) scale(0.1 -0.1)"><path d="M0.0 0.0V-623.0H17.0C53.0 -623.0 94.0 -604.0 94.0 -594.0V-41.0C121.0 -37.0 129.0 -27.0 131.0 -13.0L0.0 0.0ZM-116.0 247.0V219.0H111.0V247.0H-116.0ZM-116.0 66.0V38.0H125.0V66.0H-116.0ZM-77.0 -123.0V-151.0H207.0V-123.0H-77.0ZM74.0 247.0V7.0H96.0C137.0 7.0 196.0 32.0 197.0 41.0V204.0C213.0 208.0 224.0 215.0 228.0 221.0L119.0 303.0L65.0 247.0H74.0ZM-173.0 247.0V10.0C-173.0 -176.0 -169.0 -404.0 -219.0 -586.0L-207.0 -593.0C-62.0 -420.0 -60.0 -164.0 -60.0 10.0V247.0H-42.0L-173.0 294.0V257.0V247.0ZM-106.0 -123.0V-523.0H-92.0C-50.0 -523.0 -24.0 -503.0 -24.0 -497.0V-123.0H-11.0L-106.0 -85.0V-123.0ZM227.0 210.0V-376.0H246.0C285.0 -376.0 329.0 -356.0 329.0 -347.0V169.0C355.0 173.0 363.0 183.0 366.0 197.0L227.0 210.0ZM360.0 317.0V-480.0C360.0 -492.0 355.0 -496.0 341.0 -496.0C322.0 -496.0 237.0 -491.0 237.0 -491.0V-505.0C280.0 -513.0 299.0 -525.0 312.0 -542.0C325.0 -560.0 330.0 -588.0 332.0 -624.0C457.0 -613.0 473.0 -569.0 473.0 -488.0V274.0C498.0 278.0 508.0 287.0 510.0 302.0L360.0 317.0ZM118.0 -123.0V-407.0C118.0 -418.0 116.0 -422.0 106.0 -422.0C96.0 -422.0 72.0 -420.0 72.0 -420.0V-435.0C91.0 -439.0 99.0 -449.0 105.0 -461.0C111.0 -474.0 112.0 -495.0 113.0 -521.0C195.0 -513.0 205.0 -479.0 205.0 -416.0V-168.0C226.0 -164.0 241.0 -155.0 248.0 -147.0L150.0 -74.0L108.0 -123.0H118.0Z"/></g>
<g fill="red" transform="translate(100 200) scale(0.1 -0.1)"><path d="M0.0 0.0V-618.0H9.0C25.0 -618.0 44.0 -607.0 44.0 -599.0V-37.0C69.0 -34.0 77.0 -24.0 80.0 -10.0L0.0 0.0ZM-165.0 225.0V196.0H139.0V225.0H-165.0ZM-164.0 74.0V44.0H140.0V74.0H-164.0ZM-105.0 -101.0V-130.0H142.0V-101.0H-105.0ZM117.0 225.0V-3.0H123.0C138.0 -3.0 160.0 9.0 161.0 15.0V186.0C180.0 190.0 198.0 198.0 205.0 206.0L137.0 257.0L107.0 225.0H117.0ZM-182.0 225.0V-38.0C-182.0 -231.0 -192.0 -436.0 -291.0 -603.0L-273.0 -614.0C-146.0 -446.0 -137.0 -212.0 -137.0 -37.0V225.0H-127.0L-182.0 253.0V235.0V225.0ZM-120.0 -101.0V-519.0H-114.0C-91.0 -519.0 -75.0 -507.0 -75.0 -503.0V-101.0H-63.0L-120.0 -74.0V-101.0ZM234.0 199.0V-424.0H243.0C260.0 -424.0 278.0 -413.0 278.0 -404.0V162.0C303.0 165.0 312.0 175.0 315.0 189.0L234.0 199.0ZM373.0 279.0V-534.0C373.0 -550.0 368.0 -555.0 350.0 -555.0C333.0 -555.0 244.0 -547.0 244.0 -547.0V-564.0C281.0 -569.0 305.0 -574.0 318.0 -583.0C330.0 -591.0 336.0 -605.0 338.0 -618.0C409.0 -610.0 417.0 -582.0 417.0 -539.0V242.0C441.0 245.0 451.0 255.0 454.0 269.0L373.0 279.0ZM118.0 -101.0V-438.0C118.0 -449.0 115.0 -453.0 105.0 -453.0C93.0 -453.0 52.0 -449.0 52.0 -449.0V-466.0C73.0 -469.0 84.0 -475.0 92.0 -482.0C100.0 -490.0 103.0 -505.0 104.0 -516.0C156.0 -510.0 162.0 -486.0 162.0 -442.0V-140.0C182.0 -137.0 200.0 -128.0 206.0 -121.0L134.0 -68.0L108.0 -101.0H118.0Z"/></g>
<g fill="black" opacity=".8" transform="translate(100 200) scale(0.1 -0.1)"><path d="M0.0 0.0V-618.0H9.0C25.0 -618.0 44.0 -607.0 44.0 -599.0V-37.0C69.0 -34.0 77.0 -24.0 80.0 -10.0L0.0 0.0ZM-165.0 225.0V196.0H139.0V225.0H-165.0ZM-164.0 74.0V44.0H140.0V74.0H-164.0ZM-105.0 -101.0V-130.0H142.0V-101.0H-105.0ZM117.0 225.0V-3.0H123.0C138.0 -3.0 160.0 9.0 161.0 15.0V186.0C180.0 190.0 198.0 198.0 205.0 206.0L137.0 257.0L107.0 225.0H117.0ZM-182.0 225.0V-38.0C-182.0 -231.0 -192.0 -436.0 -291.0 -603.0L-273.0 -614.0C-146.0 -446.0 -137.0 -212.0 -137.0 -37.0V225.0H-127.0L-182.0 253.0V235.0V225.0ZM-120.0 -101.0V-519.0H-114.0C-91.0 -519.0 -75.0 -507.0 -75.0 -503.0V-101.0H-63.0L-120.0 -74.0V-101.0ZM234.0 199.0V-424.0H243.0C260.0 -424.0 278.0 -413.0 278.0 -404.0V162.0C303.0 165.0 312.0 175.0 315.0 189.0L234.0 199.0ZM373.0 279.0V-534.0C373.0 -550.0 368.0 -555.0 350.0 -555.0C333.0 -555.0 244.0 -547.0 244.0 -547.0V-564.0C281.0 -569.0 305.0 -574.0 318.0 -583.0C330.0 -591.0 336.0 -605.0 338.0 -618.0C409.0 -610.0 417.0 -582.0 417.0 -539.0V242.0C441.0 245.0 451.0 255.0 454.0 269.0L373.0 279.0ZM118.0 -101.0V-438.0C118.0 -449.0 115.0 -453.0 105.0 -453.0C93.0 -453.0 52.0 -449.0 52.0 -449.0V-466.0C73.0 -469.0 84.0 -475.0 92.0 -482.0C100.0 -490.0 103.0 -505.0 104.0 -516.0C156.0 -510.0 162.0 -486.0 162.0 -442.0V-140.0C182.0 -137.0 200.0 -128.0 206.0 -121.0L134.0 -68.0L108.0 -101.0H118.0Z"/></g>
<g fill="red" transform="translate(200 200) scale(0.1 -0.1)"><path d="M0.0 0.0V-623.0H17.0C53.0 -623.0 94.0 -604.0 94.0 -594.0V-41.0C121.0 -37.0 129.0 -27.0 131.0 -13.0L0.0 0.0ZM-116.0 247.0V219.0H111.0V247.0H-116.0ZM-116.0 66.0V38.0H125.0V66.0H-116.0ZM-77.0 -123.0V-151.0H207.0V-123.0H-77.0ZM74.0 247.0V7.0H96.0C137.0 7.0 196.0 32.0 197.0 41.0V204.0C213.0 208.0 224.0 215.0 228.0 221.0L119.0 303.0L65.0 247.0H74.0ZM-173.0 247.0V10.0C-173.0 -176.0 -169.0 -404.0 -219.0 -586.0L-207.0 -593.0C-62.0 -420.0 -60.0 -164.0 -60.0 10.0V247.0H-42.0L-173.0 294.0V257.0V247.0ZM-106.0 -123.0V-523.0H-92.0C-50.0 -523.0 -24.0 -503.0 -24.0 -497.0V-123.0H-11.0L-106.0 -85.0V-123.0ZM227.0 210.0V-376.0H246.0C285.0 -376.0 329.0 -356.0 329.0 -347.0V169.0C355.0 173.0 363.0 183.0 366.0 197.0L227.0 210.0ZM360.0 317.0V-480.0C360.0 -492.0 355.0 -496.0 341.0 -496.0C322.0 -496.0 237.0 -491.0 237.0 -491.0V-505.0C280.0 -513.0 299.0 -525.0 312.0 -542.0C325.0 -560.0 330.0 -588.0 332.0 -624.0C457.0 -613.0 473.0 -569.0 473.0 -488.0V274.0C498.0 278.0 508.0 287.0 510.0 302.0L360.0 317.0ZM118.0 -123.0V-407.0C118.0 -418.0 116.0 -422.0 106.0 -422.0C96.0 -422.0 72.0 -420.0 72.0 -420.0V-435.0C91.0 -439.0 99.0 -449.0 105.0 -461.0C111.0 -474.0 112.0 -495.0 113.0 -521.0C195.0 -513.0 205.0 -479.0 205.0 -416.0V-168.0C226.0 -164.0 241.0 -155.0 248.0 -147.0L150.0 -74.0L108.0 -123.0H118.0Z"/></g>
<g fill="black" opacity=".8" transform="translate(200 200) scale(0.1 -0.1)"><path d="M0.0 0.0V-623.0H17.0C53.0 -623.0 94.0 -604.0 94.0 -594.0V-41.0C121.0 -37.0 129.0 -27.0 131.0 -13.0L0.0 0.0ZM-116.0 247.0V219.0H111.0V247.0H-116.0ZM-116.0 66.0V38.0H125.0V66.0H-116.0ZM-77.0 -123.0V-151.0H207.0V-123.0H-77.0ZM74.0 247.0V7.0H96.0C137.0 7.0 196.0 32.0 197.0 41.0V204.0C213.0 208.0 224.0 215.0 228.0 221.0L119.0 303.0L65.0 247.0H74.0ZM-173.0 247.0V10.0C-173.0 -176.0 -169.0 -404.0 -219.0 -586.0L-207.0 -593.0C-62.0 -420.0 -60.0 -164.0 -60.0 10.0V247.0H-42.0L-173.0 294.0V257.0V247.0ZM-106.0 -123.0V-523.0H-92.0C-50.0 -523.0 -24.0 -503.0 -24.0 -497.0V-123.0H-11.0L-106.0 -85.0V-123.0ZM227.0 210.0V-376.0H246.0C285.0 -376.0 329.0 -356.0 329.0 -347.0V169.0C355.0 173.0 363.0 183.0 366.0 197.0L227.0 210.0ZM360.0 317.0V-480.0C360.0 -492.0 355.0 -496.0 341.0 -496.0C322.0 -496.0 237.0 -491.0 237.0 -491.0V-505.0C280.0 -513.0 299.0 -525.0 312.0 -542.0C325.0 -560.0 330.0 -588.0 332.0 -624.0C457.0 -613.0 473.0 -569.0 473.0 -488.0V274.0C498.0 278.0 508.0 287.0 510.0 302.0L360.0 317.0ZM118.0 -123.0V-407.0C118.0 -418.0 116.0 -422.0 106.0 -422.0C96.0 -422.0 72.0 -420.0 72.0 -420.0V-435.0C91.0 -439.0 99.0 -449.0 105.0 -461.0C111.0 -474.0 112.0 -495.0 113.0 -521.0C195.0 -513.0 205.0 -479.0 205.0 -416.0V-168.0C226.0 -164.0 241.0 -155.0 248.0 -147.0L150.0 -74.0L108.0 -123.0H118.0Z"/></g>
</svg>
