<?xml version="1.0" encoding="UTF-8"?>
<svg width="1700" height="300" xmlns="http://www.w3.org/2000/svg">
<rect width="100%" height="100%" fill="white"/>
<g fill="green" transform="translate(100 100) scale(0.1 -0.1)"><path d="M-0.0 0.0V-154.0C0.0 -302.0 -17.0 -460.0 -143.0 -592.0L-126.0 -611.0C43.0 -480.0 58.0 -290.0 58.0 -153.0V0.0H72.0L2.0 35.0L0.0 12.0ZM29.0 0.0V-39.0H902.0C920.0 -39.0 931.0 -33.0 935.0 -18.0C898.0 17.0 837.0 63.0 837.0 63.0L785.0 0.0Z"/></g>
<g fill="green" transform="translate(200 100) scale(0.1 -0.1)"><path d="M0.0 0.0V-182.0C0.0 -328.0 -15.0 -500.0 -154.0 -632.0L-146.0 -642.0C158.0 -532.0 190.0 -325.0 190.0 -181.0V0.0H217.0L7.0 65.0L0.0 13.0ZM77.0 0.0V-37.0H936.0C954.0 -37.0 969.0 -30.0 973.0 -16.0C912.0 38.0 813.0 118.0 813.0 118.0L723.0 0.0Z"/></g>
<g fill="green" transform="translate(300 100) scale(0.1 -0.1)"><path d="M-0.0 0.0V-82.0C0.0 -174.0 -13.0 -273.0 -107.0 -357.0L-95.0 -372.0C32.0 -289.0 44.0 -167.0 44.0 -81.0V0.0H55.0L2.0 26.0L0.0 9.0ZM22.0 0.0V-29.0H666.0C679.0 -29.0 687.0 -25.0 690.0 -14.0C663.0 12.0 618.0 46.0 618.0 46.0L579.0 0.0Z"/></g>
<g fill="green" transform="translate(400 100) scale(0.1 -0.1)"><path d="M0.0 0.0V-112.0C0.0 -201.0 -13.0 -305.0 -124.0 -384.0L-118.0 -392.0C116.0 -329.0 144.0 -200.0 144.0 -111.0V0.0H164.0L6.0 45.0L0.0 10.0ZM52.0 0.0V-28.0H683.0C696.0 -28.0 707.0 -23.0 710.0 -12.0C665.0 28.0 593.0 88.0 593.0 88.0L526.0 0.0Z"/></g>
<g fill="green" transform="translate(500 100) scale(0.1 -0.1)"><path d="M0.0 0.0V-309.0C0.0 -510.0 -14.0 -715.0 -139.0 -878.0L-119.0 -894.0C46.0 -731.0 58.0 -497.0 58.0 -308.0V0.0H72.0L6.0 33.0L0.0 13.0ZM36.0 0.0V-38.0H736.0C754.0 -38.0 765.0 -32.0 768.0 -18.0C732.0 18.0 670.0 65.0 670.0 65.0L617.0 0.0Z"/></g>
<g fill="green" transform="translate(600 100) scale(0.1 -0.1)"><path d="M0.0 0.0V-315.0C0.0 -518.0 -7.0 -742.0 -117.0 -916.0L-105.0 -926.0C155.0 -766.0 172.0 -513.0 172.0 -314.0V0.0H198.0L23.0 62.0L0.0 13.0ZM89.0 0.0V-37.0H783.0C801.0 -37.0 816.0 -30.0 820.0 -16.0C758.0 36.0 660.0 110.0 660.0 110.0L571.0 0.0Z"/></g>
<g fill="green" transform="translate(700 100) scale(0.1 -0.1)"><path d="M0.0 0.0V-142.0C0.0 -297.0 -13.0 -469.0 -114.0 -615.0L-100.0 -627.0C31.0 -481.0 43.0 -280.0 43.0 -142.0V0.0H53.0L-4.0 28.0L0.0 9.0ZM14.0 0.0V-30.0H890.0C904.0 -30.0 913.0 -26.0 916.0 -13.0C885.0 14.0 837.0 51.0 837.0 51.0L795.0 0.0Z"/></g>
<g fill="green" transform="translate(800 100) scale(0.1 -0.1)"><path d="M0.0 0.0V-139.0C0.0 -297.0 -10.0 -502.0 -112.0 -663.0L-106.0 -668.0C136.0 -532.0 155.0 -290.0 155.0 -139.0V0.0H176.0L-13.0 70.0L0.0 10.0ZM75.0 0.0V-28.0H945.0C958.0 -28.0 970.0 -22.0 973.0 -12.0C922.0 33.0 838.0 100.0 838.0 100.0L763.0 0.0Z"/></g>
<g fill="red" transform="translate(100 200) scale(0.1 -0.1)"><path d="M0.0 0.0V-250.0C0.0 -439.0 -10.0 -639.0 -107.0 -804.0L-90.0 -815.0C35.0 -650.0 44.0 -421.0 44.0 -250.0V0.0H54.0L0.0 27.0V10.0ZM23.0 0.0V-30.0H777.0C791.0 -30.0 801.0 -25.0 804.0 -14.0C772.0 15.0 723.0 53.0 723.0 53.0L680.0 0.0Z"/></g>
<g fill="black" opacity=".8" transform="translate(100 200) scale(0.1 -0.1)"><path d="M0.0 0.0V-246.0C0.0 -436.0 -11.0 -639.0 -112.0 -805.0L-96.0 -815.0C33.0 -648.0 43.0 -418.0 43.0 -246.0V0.0H53.0L-1.0 27.0L0.0 10.0ZM19.0 0.0V-29.0H777.0C791.0 -29.0 800.0 -25.0 802.0 -13.0C772.0 15.0 723.0 52.0 723.0 52.0L680.0 0.0Z"/></g>
<g fill="red" transform="translate(200 200) scale(0.1 -0.1)"><path d="M0.0 0.0V-233.0C0.0 -425.0 -2.0 -661.0 -78.0 -846.0L-70.0 -852.0C134.0 -684.0 142.0 -417.0 142.0 -232.0V0.0H163.0L0.0 68.0V10.0ZM85.0 0.0V-28.0H840.0C854.0 -28.0 866.0 -23.0 869.0 -12.0C818.0 32.0 733.0 96.0 733.0 96.0L658.0 0.0Z"/></g>
<g fill="black" opacity=".8" transform="translate(200 200) scale(0.1 -0.1)"><path d="M0.0 0.0V-229.0C0.0 -424.0 -5.0 -663.0 -88.0 -851.0L-79.0 -856.0C134.0 -688.0 143.0 -416.0 143.0 -229.0V0.0H164.0L-2.0 68.0L0.0 10.0ZM83.0 0.0V-28.0H840.0C853.0 -28.0 865.0 -22.0 868.0 -12.0C816.0 32.0 733.0 95.0 733.0 95.0L659.0 0.0Z"/></g>
<g fill="red" transform="translate(300 200) scale(0.1 -0.1)"><path d="M0.0 0.0V-175.0C0.0 -325.0 -17.0 -481.0 -129.0 -609.0L-114.0 -622.0C31.0 -494.0 44.0 -312.0 44.0 -175.0V0.0H54.0L0.0 27.0V10.0ZM18.0 0.0V-30.0H689.0C702.0 -30.0 712.0 -25.0 715.0 -14.0C684.0 15.0 634.0 53.0 634.0 53.0L591.0 0.0Z"/></g>
<g fill="black" opacity=".8" transform="translate(300 200) scale(0.1 -0.1)"><path d="M0.0 0.0V-183.0C0.0 -328.0 -12.0 -482.0 -111.0 -609.0L-97.0 -621.0C34.0 -495.0 45.0 -317.0 45.0 -182.0V0.0H56.0L2.0 27.0L0.0 10.0ZM23.0 0.0V-30.0H697.0C711.0 -30.0 720.0 -26.0 723.0 -14.0C694.0 14.0 646.0 50.0 646.0 50.0L604.0 0.0Z"/></g>
<g fill="red" transform="translate(400 200) scale(0.1 -0.1)"><path d="M0.0 0.0V-181.0C0.0 -333.0 -12.0 -512.0 -129.0 -652.0L-122.0 -659.0C124.0 -539.0 145.0 -329.0 145.0 -181.0V0.0H166.0L0.0 56.0V10.0ZM53.0 0.0V-28.0H747.0C762.0 -28.0 773.0 -23.0 776.0 -12.0C724.0 31.0 640.0 93.0 640.0 93.0L565.0 0.0Z"/></g>
<g fill="black" opacity=".8" transform="translate(400 200) scale(0.1 -0.1)"><path d="M0.0 0.0V-190.0C0.0 -337.0 -8.0 -509.0 -105.0 -644.0L-97.0 -651.0C126.0 -533.0 144.0 -332.0 144.0 -189.0V0.0H165.0L6.0 55.0L0.0 10.0ZM69.0 0.0V-29.0H736.0C750.0 -29.0 762.0 -23.0 765.0 -12.0C716.0 30.0 637.0 92.0 637.0 92.0L565.0 0.0Z"/></g>
<g fill="red" transform="translate(500 200) scale(0.1 -0.1)"><path d="M0.0 0.0V-250.0C0.0 -439.0 -10.0 -639.0 -107.0 -804.0L-90.0 -815.0C35.0 -650.0 44.0 -421.0 44.0 -250.0V0.0H54.0L0.0 27.0V10.0ZM23.0 0.0V-30.0H754.0C768.0 -30.0 778.0 -25.0 780.0 -14.0C749.0 15.0 700.0 53.0 700.0 53.0L657.0 0.0Z"/></g>
<g fill="black" opacity=".8" transform="translate(500 200) scale(0.1 -0.1)"><path d="M0.0 0.0V-252.0C0.0 -440.0 -11.0 -640.0 -114.0 -802.0L-98.0 -813.0C35.0 -650.0 45.0 -424.0 45.0 -252.0V0.0H55.0L0.0 27.0V10.0ZM21.0 0.0V-30.0H755.0C769.0 -30.0 779.0 -26.0 781.0 -14.0C750.0 15.0 700.0 54.0 700.0 54.0L656.0 0.0Z"/></g>
<g fill="red" transform="translate(600 200) scale(0.1 -0.1)"><path d="M0.0 0.0V-234.0C0.0 -430.0 -7.0 -665.0 -106.0 -850.0L-98.0 -856.0C135.0 -692.0 147.0 -423.0 147.0 -233.0V0.0H169.0L0.0 68.0V10.0ZM77.0 0.0V-28.0H813.0C828.0 -28.0 839.0 -23.0 842.0 -12.0C791.0 32.0 706.0 96.0 706.0 96.0L631.0 0.0Z"/></g>
<g fill="black" opacity=".8" transform="translate(600 200) scale(0.1 -0.1)"><path d="M0.0 0.0V-239.0C0.0 -432.0 -5.0 -664.0 -91.0 -846.0L-82.0 -852.0C135.0 -688.0 145.0 -425.0 145.0 -239.0V0.0H166.0L2.0 65.0L0.0 10.0ZM82.0 0.0V-29.0H814.0C828.0 -29.0 840.0 -23.0 843.0 -12.0C791.0 32.0 706.0 96.0 706.0 96.0L631.0 0.0Z"/></g>
<g fill="red" transform="translate(700 200) scale(0.1 -0.1)"><path d="M0.0 0.0V-252.0C0.0 -442.0 -10.0 -642.0 -106.0 -808.0L-90.0 -819.0C35.0 -653.0 44.0 -423.0 44.0 -251.0V0.0H54.0L0.0 27.0V10.0ZM32.0 0.0V-30.0H786.0C800.0 -30.0 810.0 -25.0 813.0 -14.0C781.0 15.0 732.0 53.0 732.0 53.0L689.0 0.0Z"/></g>
<g fill="black" opacity=".8" transform="translate(700 200) scale(0.1 -0.1)"><path d="M0.0 0.0V-250.0C0.0 -439.0 -12.0 -641.0 -116.0 -805.0L-100.0 -816.0C35.0 -651.0 46.0 -423.0 46.0 -250.0V0.0H56.0L-0.0 28.0V10.0ZM21.0 0.0V-31.0H775.0C790.0 -31.0 799.0 -26.0 802.0 -14.0C771.0 15.0 720.0 54.0 720.0 54.0L675.0 0.0Z"/></g>
<g fill="red" transform="translate(800 200) scale(0.1 -0.1)"><path d="M0.0 0.0V-234.0C0.0 -428.0 -4.0 -665.0 -88.0 -850.0L-79.0 -856.0C137.0 -689.0 147.0 -420.0 147.0 -234.0V0.0H169.0L0.0 68.0V10.0ZM96.0 0.0V-28.0H823.0C837.0 -28.0 849.0 -23.0 852.0 -12.0C801.0 32.0 716.0 96.0 716.0 96.0L641.0 0.0Z"/></g>
<g fill="black" opacity=".8" transform="translate(800 200) scale(0.1 -0.1)"><path d="M0.0 0.0V-237.0C0.0 -432.0 -5.0 -666.0 -94.0 -850.0L-85.0 -856.0C137.0 -691.0 148.0 -424.0 148.0 -237.0V0.0H170.0L2.0 67.0L0.0 11.0ZM83.0 0.0V-30.0H835.0C849.0 -30.0 862.0 -23.0 865.0 -13.0C811.0 32.0 726.0 97.0 726.0 97.0L649.0 0.0Z"/></g>
<g fill="red" transform="translate(900 200) scale(0.1 -0.1)"><path d="M0.0 0.0V-250.0C0.0 -440.0 -12.0 -640.0 -116.0 -804.0L-99.0 -815.0C33.0 -651.0 44.0 -423.0 44.0 -249.0V0.0H54.0L0.0 27.0V10.0ZM16.0 0.0V-30.0H770.0C784.0 -30.0 794.0 -25.0 797.0 -14.0C765.0 15.0 716.0 53.0 716.0 53.0L673.0 0.0Z"/></g>
<g fill="black" opacity=".8" transform="translate(900 200) scale(0.1 -0.1)"><path d="M0.0 0.0V-249.0C0.0 -440.0 -11.0 -644.0 -111.0 -812.0L-95.0 -822.0C33.0 -654.0 43.0 -422.0 43.0 -249.0V0.0H53.0L-1.0 27.0L0.0 10.0ZM19.0 0.0V-29.0H776.0C790.0 -29.0 799.0 -25.0 801.0 -13.0C771.0 15.0 722.0 52.0 722.0 52.0L679.0 0.0Z"/></g>
<g fill="red" transform="translate(1000 200) scale(0.1 -0.1)"><path d="M0.0 0.0V-236.0C0.0 -432.0 -3.0 -671.0 -81.0 -859.0L-72.0 -865.0C134.0 -694.0 142.0 -423.0 142.0 -236.0V0.0H163.0L0.0 66.0V10.0ZM90.0 0.0V-28.0H845.0C859.0 -28.0 871.0 -23.0 874.0 -12.0C823.0 32.0 738.0 96.0 738.0 96.0L663.0 0.0Z"/></g>
<g fill="black" opacity=".8" transform="translate(1000 200) scale(0.1 -0.1)"><path d="M0.0 0.0V-230.0C0.0 -428.0 -4.0 -668.0 -87.0 -858.0L-78.0 -863.0C134.0 -693.0 143.0 -419.0 143.0 -230.0V0.0H163.0L-2.0 68.0L0.0 10.0ZM83.0 0.0V-28.0H840.0C853.0 -28.0 865.0 -22.0 868.0 -12.0C816.0 32.0 733.0 94.0 733.0 94.0L658.0 0.0Z"/></g>
<g fill="red" transform="translate(1100 200) scale(0.1 -0.1)"><path d="M0.0 0.0V-250.0C0.0 -446.0 -14.0 -652.0 -123.0 -820.0L-106.0 -832.0C32.0 -662.0 44.0 -427.0 44.0 -250.0V0.0H54.0L0.0 27.0V9.0ZM9.0 0.0V-30.0H763.0C777.0 -30.0 787.0 -25.0 790.0 -14.0C758.0 14.0 709.0 53.0 709.0 53.0L666.0 0.0Z"/></g>
<g fill="black" opacity=".8" transform="translate(1100 200) scale(0.1 -0.1)"><path d="M0.0 0.0V-254.0C0.0 -446.0 -11.0 -651.0 -111.0 -818.0L-95.0 -828.0C33.0 -660.0 43.0 -429.0 43.0 -254.0V0.0H53.0L-1.0 27.0L0.0 10.0ZM19.0 0.0V-29.0H766.0C780.0 -29.0 789.0 -25.0 791.0 -13.0C761.0 15.0 712.0 53.0 712.0 53.0L669.0 0.0Z"/></g>
<g fill="red" transform="translate(1200 200) scale(0.1 -0.1)"><path d="M0.0 0.0V-237.0C0.0 -435.0 -4.0 -674.0 -90.0 -863.0L-81.0 -869.0C130.0 -698.0 140.0 -426.0 140.0 -237.0V0.0H161.0L0.0 66.0V10.0ZM73.0 0.0V-28.0H830.0C845.0 -28.0 856.0 -23.0 859.0 -12.0C808.0 31.0 724.0 94.0 724.0 94.0L650.0 0.0Z"/></g>
<g fill="black" opacity=".8" transform="translate(1200 200) scale(0.1 -0.1)"><path d="M0.0 0.0V-236.0C0.0 -434.0 -4.0 -675.0 -86.0 -864.0L-77.0 -870.0C134.0 -699.0 142.0 -426.0 142.0 -236.0V0.0H163.0L-1.0 67.0L0.0 10.0ZM83.0 0.0V-28.0H829.0C842.0 -28.0 854.0 -22.0 857.0 -12.0C805.0 32.0 722.0 94.0 722.0 94.0L648.0 0.0Z"/></g>
<g fill="red" transform="translate(1300 200) scale(0.1 -0.1)"><path d="M0.0 0.0V-113.0C0.0 -233.0 -11.0 -364.0 -102.0 -476.0L-89.0 -490.0C33.0 -379.0 44.0 -221.0 44.0 -112.0V0.0H54.0L0.0 27.0V9.0ZM19.0 0.0V-30.0H772.0C786.0 -30.0 795.0 -25.0 798.0 -14.0C769.0 12.0 724.0 47.0 724.0 47.0L685.0 0.0Z"/></g>
<g fill="black" opacity=".8" transform="translate(1300 200) scale(0.1 -0.1)"><path d="M0.0 0.0V-109.0C0.0 -231.0 -13.0 -364.0 -109.0 -477.0L-97.0 -490.0C31.0 -378.0 43.0 -219.0 43.0 -109.0V0.0H54.0L-1.0 27.0L0.0 9.0ZM18.0 0.0V-29.0H769.0C783.0 -29.0 791.0 -25.0 794.0 -13.0C765.0 13.0 719.0 48.0 719.0 48.0L679.0 0.0Z"/></g>
<g fill="red" transform="translate(1400 200) scale(0.1 -0.1)"><path d="M0.0 0.0V-129.0C0.0 -247.0 -9.0 -395.0 -106.0 -509.0L-100.0 -516.0C125.0 -420.0 147.0 -243.0 147.0 -128.0V0.0H168.0L0.0 56.0V10.0ZM70.0 0.0V-28.0H799.0C813.0 -28.0 824.0 -23.0 827.0 -12.0C782.0 30.0 706.0 93.0 706.0 93.0L638.0 0.0Z"/></g>
<g fill="black" opacity=".8" transform="translate(1400 200) scale(0.1 -0.1)"><path d="M0.0 0.0V-123.0C0.0 -245.0 -11.0 -396.0 -117.0 -514.0L-111.0 -520.0C125.0 -423.0 148.0 -241.0 148.0 -123.0V0.0H168.0L-3.0 57.0L0.0 10.0ZM63.0 0.0V-28.0H804.0C817.0 -28.0 829.0 -22.0 832.0 -12.0C784.0 30.0 707.0 93.0 707.0 93.0L637.0 0.0Z"/></g>
<g fill="red" transform="translate(1500 200) scale(0.1 -0.1)"><path d="M0.0 0.0V-240.0C0.0 -384.0 -9.0 -528.0 -99.0 -641.0L-84.0 -654.0C36.0 -541.0 45.0 -376.0 45.0 -239.0V0.0H55.0L7.0 24.0L0.0 10.0ZM30.0 0.0V-29.0H501.0C515.0 -29.0 523.0 -24.0 526.0 -14.0C499.0 13.0 453.0 48.0 453.0 48.0L414.0 0.0Z"/></g>
<g fill="black" opacity=".8" transform="translate(1500 200) scale(0.1 -0.1)"><path d="M0.0 0.0V-237.0C0.0 -382.0 -10.0 -528.0 -103.0 -643.0L-88.0 -655.0C35.0 -540.0 44.0 -374.0 44.0 -236.0V0.0H55.0L6.0 24.0L0.0 10.0ZM29.0 0.0V-28.0H500.0C513.0 -28.0 521.0 -24.0 523.0 -14.0C497.0 13.0 451.0 48.0 451.0 48.0L411.0 0.0Z"/></g>
<g fill="red" transform="translate(1600 200) scale(0.1 -0.1)"><path d="M0.0 0.0V-250.0C0.0 -394.0 -3.0 -546.0 -76.0 -664.0L-67.0 -672.0C113.0 -561.0 125.0 -391.0 125.0 -249.0V0.0H145.0L25.0 41.0L0.0 10.0ZM70.0 0.0V-28.0H527.0C541.0 -28.0 552.0 -23.0 555.0 -12.0C511.0 26.0 440.0 80.0 440.0 80.0L376.0 0.0Z"/></g>
<g fill="black" opacity=".8" transform="translate(1600 200) scale(0.1 -0.1)"><path d="M0.0 0.0V-245.0C0.0 -391.0 -5.0 -547.0 -87.0 -668.0L-77.0 -676.0C113.0 -563.0 126.0 -388.0 126.0 -244.0V0.0H145.0L22.0 42.0L0.0 10.0ZM64.0 0.0V-28.0H530.0C543.0 -28.0 554.0 -23.0 557.0 -12.0C511.0 26.0 440.0 80.0 440.0 80.0L374.0 0.0Z"/></g>
</svg>
