<?xml version="1.0" encoding="UTF-8"?>
<svg width="1700" height="300" xmlns="http://www.w3.org/2000/svg">
<rect width="100%" height="100%" fill="white"/>
<g fill="green" transform="translate(100 100) scale(0.1 -0.1)"><path d="M-0.0 -0.0 -65.0 -81.0H-461.0L-454.0 -132.0H79.0C102.0 -132.0 117.0 -124.0 122.0 -105.0C76.0 -59.0 0.0 0.0 0.0 0.0ZM111.0 497.0 -23.0 515.0V-642.0C-23.0 -705.0 -2.0 -734.0 96.0 -734.0H215.0C405.0 -735.0 447.0 -726.0 447.0 -692.0C447.0 -676.0 437.0 -669.0 406.0 -660.0L399.0 -551.0H377.0C366.0 -589.0 352.0 -652.0 344.0 -660.0C337.0 -666.0 331.0 -667.0 322.0 -669.0C305.0 -670.0 263.0 -671.0 214.0 -671.0H107.0C59.0 -671.0 53.0 -659.0 53.0 -629.0V452.0C93.0 458.0 108.0 475.0 111.0 497.0Z"/></g>
<g fill="green" transform="translate(200 100) scale(0.1 -0.1)"><path d="M0.0 0.0 -104.0 -159.0H-413.0L-407.0 -207.0H134.0C159.0 -207.0 177.0 -199.0 182.0 -180.0C116.0 -109.0 0.0 0.0 0.0 0.0ZM291.0 416.0 1.0 445.0V-641.0C1.0 -775.0 20.0 -823.0 165.0 -823.0H257.0C433.0 -823.0 507.0 -781.0 507.0 -697.0C507.0 -657.0 489.0 -630.0 442.0 -603.0L434.0 -471.0H417.0C404.0 -514.0 378.0 -579.0 361.0 -597.0C350.0 -606.0 335.0 -608.0 325.0 -608.0C318.0 -609.0 300.0 -609.0 285.0 -609.0H253.0C231.0 -609.0 233.0 -599.0 233.0 -578.0V369.0C274.0 375.0 289.0 394.0 291.0 416.0Z"/></g>
<g fill="green" transform="translate(300 100) scale(0.1 -0.1)"><path d="M0.0 0.0 -38.0 -49.0H-213.0L-208.0 -80.0H46.0C61.0 -80.0 70.0 -76.0 73.0 -64.0C46.0 -36.0 0.0 0.0 0.0 0.0ZM289.0 343.0 206.0 355.0V-351.0C206.0 -378.0 211.0 -396.0 253.0 -396.0H277.0C339.0 -397.0 356.0 -390.0 356.0 -374.0C356.0 -364.0 350.0 -360.0 333.0 -355.0L328.0 -346.0H314.0C311.0 -337.0 304.0 -361.0 301.0 -359.0C296.0 -359.0 293.0 -358.0 294.0 -358.0C289.0 -358.0 280.0 -358.0 277.0 -358.0H262.0C254.0 -358.0 254.0 -353.0 254.0 -342.0V315.0C279.0 319.0 288.0 330.0 289.0 343.0Z"/></g>
<g fill="green" transform="translate(400 100) scale(0.1 -0.1)"><path d="M0.0 0.0 -57.0 -92.0H-197.0L-193.0 -122.0H70.0C85.0 -122.0 96.0 -117.0 99.0 -105.0C63.0 -64.0 0.0 0.0 0.0 0.0ZM400.0 293.0 226.0 310.0V-335.0C226.0 -400.0 215.0 -433.0 279.0 -433.0H300.0C346.0 -433.0 383.0 -407.0 383.0 -365.0C383.0 -341.0 374.0 -325.0 354.0 -309.0L348.0 -272.0H337.0C341.0 -270.0 328.0 -302.0 321.0 -307.0C317.0 -308.0 309.0 -308.0 309.0 -307.0C314.0 -307.0 314.0 -307.0 318.0 -307.0H353.0C354.0 -307.0 365.0 -302.0 365.0 -298.0V264.0C390.0 267.0 399.0 279.0 400.0 293.0Z"/></g>
<g fill="green" transform="translate(500 100) scale(0.1 -0.1)"><path d="M0.0 0.0 -49.0 -59.0H-245.0L-246.0 -95.0H59.0C76.0 -95.0 87.0 -89.0 90.0 -76.0C55.0 -43.0 0.0 0.0 0.0 0.0ZM-341.0 209.0 -436.0 222.0V-588.0C-436.0 -642.0 -413.0 -662.0 -326.0 -662.0L-192.0 -661.0C-1.0 -662.0 35.0 -658.0 35.0 -629.0C35.0 -619.0 30.0 -612.0 6.0 -606.0L2.0 -388.0H-16.0C-28.0 -477.0 -41.0 -578.0 -49.0 -597.0C-53.0 -610.0 -58.0 -613.0 -70.0 -616.0C-89.0 -618.0 -134.0 -619.0 -195.0 -619.0H-322.0C-375.0 -619.0 -382.0 -608.0 -382.0 -583.0V177.0C-354.0 181.0 -343.0 193.0 -341.0 209.0Z"/></g>
<g fill="green" transform="translate(600 100) scale(0.1 -0.1)"><path d="M0.0 0.0 -80.0 -130.0H-180.0L-183.0 -164.0H105.0C124.0 -164.0 136.0 -158.0 140.0 -145.0C91.0 -89.0 0.0 0.0 0.0 0.0ZM-210.0 153.0 -423.0 175.0V-630.0C-423.0 -736.0 -393.0 -768.0 -271.0 -768.0H-175.0C-2.0 -768.0 59.0 -742.0 59.0 -675.0C59.0 -646.0 48.0 -627.0 9.0 -607.0L6.0 -373.0H-7.0C-30.0 -466.0 -55.0 -560.0 -72.0 -592.0C-81.0 -609.0 -87.0 -612.0 -100.0 -613.0C-111.0 -614.0 -131.0 -615.0 -156.0 -615.0H-221.0C-248.0 -615.0 -252.0 -606.0 -252.0 -586.0V119.0C-223.0 124.0 -212.0 137.0 -210.0 153.0Z"/></g>
<g fill="green" transform="translate(700 100) scale(0.1 -0.1)"><path d="M0.0 -0.0 -76.0 -94.0H-759.0L-752.0 -149.0H93.0C119.0 -149.0 136.0 -140.0 142.0 -120.0C87.0 -68.0 0.0 0.0 0.0 0.0ZM-41.0 481.0 -184.0 500.0V-567.0C-184.0 -650.0 -152.0 -679.0 -14.0 -679.0H203.0C505.0 -680.0 563.0 -668.0 563.0 -625.0C563.0 -607.0 549.0 -598.0 513.0 -588.0L506.0 -467.0H484.0C469.0 -524.0 454.0 -574.0 443.0 -588.0C434.0 -595.0 427.0 -599.0 408.0 -600.0C379.0 -603.0 302.0 -605.0 203.0 -605.0H-6.0C-92.0 -605.0 -102.0 -591.0 -102.0 -552.0V434.0C-61.0 438.0 -44.0 457.0 -41.0 481.0Z"/></g>
<g fill="green" transform="translate(800 100) scale(0.1 -0.1)"><path d="M0.0 0.0 -114.0 -154.0H-675.0L-669.0 -205.0H153.0C179.0 -205.0 199.0 -197.0 204.0 -176.0C127.0 -105.0 0.0 0.0 0.0 0.0ZM204.0 391.0 -113.0 421.0V-563.0C-113.0 -729.0 -67.0 -774.0 126.0 -774.0H284.0C566.0 -774.0 656.0 -729.0 656.0 -626.0C656.0 -581.0 634.0 -551.0 571.0 -522.0L563.0 -377.0H545.0C517.0 -442.0 488.0 -498.0 466.0 -520.0C452.0 -531.0 433.0 -535.0 412.0 -535.0C392.0 -538.0 352.0 -538.0 314.0 -538.0H194.0C149.0 -538.0 141.0 -527.0 141.0 -496.0V341.0C185.0 348.0 202.0 367.0 204.0 391.0Z"/></g>
<g fill="green" transform="translate(900 100) scale(0.1 -0.1)"><path d="M-0.0 0.0 -64.0 -79.0H-441.0L-430.0 -126.0H78.0C100.0 -126.0 113.0 -119.0 118.0 -101.0C74.0 -57.0 0.0 0.0 0.0 0.0ZM109.0 568.0 -17.0 584.0V-636.0C-17.0 -700.0 7.0 -730.0 101.0 -730.0H218.0C404.0 -732.0 446.0 -723.0 446.0 -690.0C446.0 -675.0 438.0 -669.0 408.0 -660.0L401.0 -548.0H381.0C369.0 -590.0 355.0 -651.0 347.0 -660.0C341.0 -665.0 334.0 -667.0 326.0 -669.0C309.0 -670.0 268.0 -671.0 217.0 -671.0H112.0C61.0 -671.0 54.0 -657.0 54.0 -623.0V525.0C93.0 531.0 107.0 547.0 109.0 568.0Z"/></g>
<g fill="green" transform="translate(1000 100) scale(0.1 -0.1)"><path d="M0.0 0.0 -102.0 -143.0H-425.0L-416.0 -188.0H136.0C159.0 -188.0 176.0 -180.0 181.0 -163.0C114.0 -97.0 0.0 0.0 0.0 0.0ZM256.0 514.0 -18.0 542.0V-617.0C-18.0 -749.0 10.0 -793.0 152.0 -793.0H242.0C422.0 -793.0 494.0 -759.0 494.0 -678.0C494.0 -641.0 475.0 -617.0 428.0 -590.0L420.0 -475.0H404.0C391.0 -514.0 365.0 -571.0 348.0 -587.0C336.0 -594.0 320.0 -596.0 310.0 -597.0C301.0 -598.0 284.0 -598.0 268.0 -598.0H230.0C204.0 -598.0 201.0 -587.0 201.0 -561.0V469.0C240.0 474.0 254.0 493.0 256.0 514.0Z"/></g>
<g fill="green" transform="translate(1100 100) scale(0.1 -0.1)"><path d="M-0.0 -0.0 -52.0 -66.0H-466.0L-461.0 -110.0H63.0C83.0 -110.0 96.0 -103.0 99.0 -87.0C62.0 -48.0 0.0 0.0 0.0 0.0ZM125.0 499.0 7.0 515.0V-622.0C7.0 -683.0 29.0 -710.0 120.0 -710.0H230.0C403.0 -711.0 446.0 -705.0 446.0 -676.0C446.0 -660.0 438.0 -655.0 409.0 -647.0L403.0 -567.0H384.0C374.0 -599.0 362.0 -642.0 355.0 -647.0C349.0 -652.0 343.0 -653.0 334.0 -655.0C317.0 -656.0 279.0 -658.0 231.0 -658.0H130.0C80.0 -658.0 72.0 -644.0 72.0 -611.0V459.0C108.0 465.0 122.0 480.0 125.0 499.0Z"/></g>
<g fill="green" transform="translate(1200 100) scale(0.1 -0.1)"><path d="M0.0 0.0 -99.0 -161.0H-434.0L-430.0 -202.0H129.0C152.0 -202.0 168.0 -195.0 172.0 -179.0C111.0 -110.0 0.0 0.0 0.0 0.0ZM247.0 393.0 -11.0 420.0V-652.0C-11.0 -787.0 23.0 -827.0 165.0 -827.0H257.0C442.0 -827.0 511.0 -786.0 511.0 -705.0C511.0 -670.0 491.0 -643.0 444.0 -619.0L437.0 -528.0H422.0C407.0 -561.0 384.0 -605.0 367.0 -617.0C354.0 -624.0 336.0 -627.0 325.0 -627.0C315.0 -628.0 296.0 -628.0 280.0 -628.0H230.0C204.0 -628.0 196.0 -618.0 196.0 -591.0V351.0C233.0 357.0 247.0 374.0 247.0 393.0Z"/></g>
<g fill="green" transform="translate(1300 100) scale(0.1 -0.1)"><path d="M-0.0 0.0 -61.0 -77.0H-487.0L-475.0 -126.0H74.0C96.0 -126.0 111.0 -119.0 116.0 -100.0C72.0 -56.0 0.0 0.0 0.0 0.0ZM116.0 490.0 -15.0 507.0V-654.0C-15.0 -714.0 5.0 -744.0 98.0 -744.0H207.0C386.0 -744.0 426.0 -734.0 426.0 -700.0C426.0 -683.0 416.0 -677.0 386.0 -668.0L380.0 -570.0H359.0C348.0 -603.0 333.0 -662.0 326.0 -669.0C319.0 -674.0 314.0 -675.0 306.0 -677.0C290.0 -677.0 251.0 -679.0 206.0 -679.0H109.0C65.0 -679.0 59.0 -667.0 59.0 -637.0V446.0C98.0 451.0 113.0 468.0 116.0 490.0Z"/></g>
<g fill="green" transform="translate(1400 100) scale(0.1 -0.1)"><path d="M0.0 0.0 -103.0 -162.0H-436.0L-425.0 -209.0H134.0C158.0 -209.0 176.0 -201.0 181.0 -182.0C117.0 -111.0 0.0 0.0 0.0 0.0ZM285.0 419.0 2.0 447.0V-633.0C2.0 -771.0 24.0 -817.0 169.0 -817.0H264.0C445.0 -817.0 517.0 -768.0 517.0 -684.0C517.0 -644.0 498.0 -616.0 451.0 -589.0L443.0 -490.0H426.0C414.0 -522.0 389.0 -572.0 373.0 -587.0C361.0 -594.0 344.0 -595.0 334.0 -595.0C326.0 -596.0 306.0 -597.0 291.0 -597.0H252.0C228.0 -597.0 229.0 -586.0 229.0 -565.0V373.0C268.0 379.0 283.0 397.0 285.0 419.0Z"/></g>
<g fill="red" transform="translate(100 200) scale(0.1 -0.1)"><path d="M0.0 0.0 -44.0 -53.0H-548.0V-83.0H54.0C68.0 -83.0 78.0 -78.0 80.0 -67.0C49.0 -38.0 0.0 0.0 0.0 0.0ZM-477.0 241.0 -558.0 251.0V-494.0C-558.0 -567.0 -522.0 -586.0 -406.0 -586.0H-192.0C84.0 -586.0 136.0 -582.0 136.0 -550.0C136.0 -538.0 129.0 -533.0 104.0 -526.0L103.0 -330.0H89.0C74.0 -432.0 61.0 -495.0 52.0 -518.0C47.0 -529.0 41.0 -536.0 19.0 -538.0C-10.0 -542.0 -83.0 -544.0 -193.0 -544.0H-407.0C-500.0 -544.0 -514.0 -528.0 -514.0 -488.0V214.0C-490.0 217.0 -479.0 228.0 -477.0 241.0Z"/></g>
<g fill="black" opacity=".8" transform="translate(100 200) scale(0.1 -0.1)"><path d="M0.0 0.0 -44.0 -53.0H-550.0L-547.0 -82.0H53.0C69.0 -82.0 78.0 -77.0 80.0 -67.0C48.0 -38.0 0.0 0.0 0.0 0.0ZM-477.0 241.0 -558.0 251.0V-496.0C-558.0 -567.0 -521.0 -586.0 -407.0 -586.0L-192.0 -585.0C84.0 -587.0 136.0 -582.0 136.0 -550.0C136.0 -538.0 130.0 -532.0 105.0 -526.0L102.0 -330.0H89.0C74.0 -432.0 61.0 -496.0 52.0 -518.0C47.0 -529.0 41.0 -536.0 21.0 -538.0C-10.0 -541.0 -83.0 -545.0 -192.0 -545.0H-407.0C-500.0 -545.0 -513.0 -529.0 -513.0 -489.0V214.0C-490.0 216.0 -479.0 227.0 -477.0 241.0Z"/></g>
<g fill="red" transform="translate(200 200) scale(0.1 -0.1)"><path d="M0.0 0.0 -84.0 -117.0H-484.0V-145.0H121.0C136.0 -145.0 148.0 -140.0 151.0 -129.0C96.0 -78.0 0.0 0.0 0.0 0.0ZM-370.0 176.0 -563.0 196.0V-541.0C-563.0 -681.0 -483.0 -699.0 -317.0 -699.0H-154.0C140.0 -699.0 210.0 -672.0 210.0 -591.0C210.0 -563.0 193.0 -544.0 137.0 -525.0L133.0 -349.0H124.0C84.0 -446.0 59.0 -495.0 38.0 -521.0C24.0 -536.0 8.0 -542.0 -17.0 -544.0C-47.0 -546.0 -91.0 -547.0 -140.0 -547.0H-320.0C-378.0 -547.0 -407.0 -537.0 -407.0 -497.0V148.0C-381.0 152.0 -371.0 163.0 -370.0 176.0Z"/></g>
<g fill="black" opacity=".8" transform="translate(200 200) scale(0.1 -0.1)"><path d="M0.0 0.0 -83.0 -118.0H-486.0V-145.0H120.0C136.0 -145.0 148.0 -140.0 151.0 -129.0C96.0 -79.0 0.0 0.0 0.0 0.0ZM-370.0 177.0 -562.0 196.0V-541.0C-562.0 -681.0 -482.0 -698.0 -317.0 -698.0H-154.0C140.0 -698.0 209.0 -671.0 209.0 -590.0C209.0 -563.0 191.0 -543.0 136.0 -524.0L134.0 -351.0H122.0C83.0 -446.0 59.0 -495.0 37.0 -522.0C22.0 -536.0 7.0 -541.0 -18.0 -543.0C-47.0 -546.0 -91.0 -548.0 -140.0 -548.0H-320.0C-378.0 -548.0 -406.0 -536.0 -406.0 -497.0V147.0C-381.0 152.0 -370.0 162.0 -370.0 177.0Z"/></g>
<g fill="red" transform="translate(300 200) scale(0.1 -0.1)"><path d="M0.0 0.0 -41.0 -50.0H-347.0L-339.0 -80.0H50.0C64.0 -80.0 73.0 -75.0 76.0 -64.0C47.0 -36.0 0.0 0.0 0.0 0.0ZM-280.0 270.0 -360.0 280.0V-504.0C-360.0 -559.0 -335.0 -578.0 -253.0 -578.0H-120.0C65.0 -578.0 102.0 -572.0 102.0 -546.0C102.0 -535.0 96.0 -530.0 75.0 -524.0L73.0 -355.0H59.0C47.0 -430.0 35.0 -501.0 28.0 -518.0C24.0 -527.0 20.0 -531.0 7.0 -533.0C-11.0 -535.0 -57.0 -536.0 -122.0 -536.0H-250.0C-307.0 -536.0 -316.0 -524.0 -316.0 -495.0V243.0C-292.0 247.0 -282.0 257.0 -280.0 270.0Z"/></g>
<g fill="black" opacity=".8" transform="translate(300 200) scale(0.1 -0.1)"><path d="M0.0 0.0 -42.0 -51.0H-342.0L-334.0 -79.0H50.0C65.0 -79.0 74.0 -75.0 77.0 -64.0C47.0 -36.0 0.0 0.0 0.0 0.0ZM-280.0 271.0 -359.0 280.0V-504.0C-359.0 -556.0 -334.0 -577.0 -254.0 -577.0L-121.0 -576.0C64.0 -577.0 99.0 -571.0 99.0 -544.0C99.0 -534.0 95.0 -529.0 74.0 -523.0L71.0 -355.0H58.0C46.0 -430.0 33.0 -501.0 26.0 -518.0C23.0 -526.0 18.0 -531.0 7.0 -533.0C-13.0 -534.0 -58.0 -536.0 -123.0 -536.0H-250.0C-307.0 -536.0 -315.0 -524.0 -315.0 -495.0V244.0C-291.0 246.0 -281.0 257.0 -280.0 271.0Z"/></g>
<g fill="red" transform="translate(400 200) scale(0.1 -0.1)"><path d="M0.0 0.0 -74.0 -106.0H-310.0L-302.0 -134.0H102.0C117.0 -134.0 128.0 -129.0 131.0 -118.0C84.0 -71.0 0.0 0.0 0.0 0.0ZM-185.0 242.0 -365.0 261.0V-504.0C-365.0 -612.0 -321.0 -636.0 -199.0 -636.0H-96.0C95.0 -636.0 151.0 -611.0 151.0 -547.0C151.0 -522.0 138.0 -505.0 97.0 -487.0L93.0 -348.0H83.0C61.0 -411.0 39.0 -462.0 24.0 -482.0C14.0 -493.0 2.0 -496.0 -12.0 -497.0C-28.0 -498.0 -53.0 -499.0 -81.0 -499.0H-173.0C-208.0 -499.0 -221.0 -491.0 -221.0 -464.0V214.0C-196.0 218.0 -187.0 229.0 -185.0 242.0Z"/></g>
<g fill="black" opacity=".8" transform="translate(400 200) scale(0.1 -0.1)"><path d="M0.0 0.0 -73.0 -106.0H-303.0L-298.0 -134.0H103.0C117.0 -134.0 128.0 -129.0 132.0 -118.0C85.0 -72.0 0.0 0.0 0.0 0.0ZM-187.0 244.0 -367.0 262.0V-505.0C-367.0 -614.0 -321.0 -637.0 -199.0 -637.0H-95.0C99.0 -637.0 155.0 -611.0 155.0 -548.0C155.0 -523.0 141.0 -505.0 101.0 -487.0L98.0 -343.0H87.0C64.0 -409.0 42.0 -461.0 27.0 -483.0C16.0 -494.0 5.0 -496.0 -10.0 -497.0C-26.0 -499.0 -51.0 -501.0 -80.0 -501.0H-173.0C-209.0 -501.0 -222.0 -491.0 -222.0 -465.0V215.0C-198.0 219.0 -188.0 230.0 -187.0 244.0Z"/></g>
<g fill="red" transform="translate(500 200) scale(0.1 -0.1)"><path d="M0.0 0.0 -36.0 -44.0H-255.0V-74.0H43.0C56.0 -74.0 65.0 -69.0 67.0 -58.0C42.0 -32.0 0.0 0.0 0.0 0.0ZM-198.0 234.0 -278.0 244.0V-530.0C-278.0 -577.0 -259.0 -595.0 -188.0 -595.0H-89.0C57.0 -595.0 89.0 -592.0 89.0 -569.0C89.0 -559.0 84.0 -555.0 64.0 -549.0L61.0 -401.0H47.0C37.0 -463.0 26.0 -531.0 21.0 -544.0C17.0 -552.0 13.0 -555.0 3.0 -557.0C-11.0 -558.0 -44.0 -559.0 -91.0 -559.0H-184.0C-227.0 -559.0 -234.0 -549.0 -234.0 -524.0V207.0C-210.0 211.0 -200.0 221.0 -198.0 234.0Z"/></g>
<g fill="black" opacity=".8" transform="translate(500 200) scale(0.1 -0.1)"><path d="M0.0 0.0 -35.0 -44.0H-256.0L-254.0 -73.0H42.0C56.0 -73.0 65.0 -69.0 67.0 -58.0C41.0 -32.0 0.0 0.0 0.0 0.0ZM-198.0 234.0 -278.0 245.0V-531.0C-278.0 -577.0 -258.0 -595.0 -188.0 -595.0H-89.0C57.0 -595.0 89.0 -592.0 89.0 -569.0C89.0 -559.0 85.0 -554.0 64.0 -549.0L61.0 -401.0H47.0C37.0 -462.0 26.0 -531.0 21.0 -543.0C17.0 -552.0 13.0 -555.0 4.0 -557.0C-11.0 -558.0 -44.0 -560.0 -90.0 -560.0H-184.0C-227.0 -560.0 -234.0 -549.0 -234.0 -525.0V207.0C-210.0 210.0 -200.0 221.0 -198.0 234.0Z"/></g>
<g fill="red" transform="translate(600 200) scale(0.1 -0.1)"><path d="M0.0 0.0 -72.0 -125.0H-210.0V-153.0H95.0C110.0 -153.0 121.0 -148.0 124.0 -137.0C82.0 -85.0 0.0 0.0 0.0 0.0ZM-118.0 167.0 -297.0 186.0V-572.0C-297.0 -672.0 -264.0 -698.0 -155.0 -698.0H-73.0C83.0 -698.0 135.0 -669.0 135.0 -609.0C135.0 -584.0 123.0 -566.0 87.0 -549.0L83.0 -401.0H73.0C54.0 -462.0 34.0 -521.0 20.0 -541.0C11.0 -552.0 1.0 -555.0 -10.0 -556.0C-21.0 -556.0 -39.0 -557.0 -58.0 -557.0H-119.0C-144.0 -557.0 -153.0 -549.0 -153.0 -528.0V139.0C-128.0 143.0 -119.0 154.0 -118.0 167.0Z"/></g>
<g fill="black" opacity=".8" transform="translate(600 200) scale(0.1 -0.1)"><path d="M0.0 0.0 -71.0 -125.0H-211.0V-153.0H94.0C110.0 -153.0 121.0 -148.0 124.0 -137.0C82.0 -86.0 0.0 0.0 0.0 0.0ZM-118.0 167.0 -296.0 186.0V-572.0C-296.0 -672.0 -263.0 -698.0 -155.0 -698.0H-73.0C83.0 -698.0 134.0 -668.0 134.0 -609.0C134.0 -584.0 121.0 -565.0 86.0 -548.0L84.0 -402.0H72.0C54.0 -462.0 34.0 -520.0 20.0 -541.0C10.0 -552.0 0.0 -555.0 -11.0 -555.0C-21.0 -556.0 -39.0 -557.0 -58.0 -557.0H-119.0C-144.0 -557.0 -152.0 -549.0 -152.0 -528.0V138.0C-128.0 143.0 -118.0 154.0 -118.0 167.0Z"/></g>
<g fill="red" transform="translate(700 200) scale(0.1 -0.1)"><path d="M0.0 0.0 -38.0 -48.0H-451.0L-443.0 -78.0H47.0C60.0 -78.0 69.0 -73.0 72.0 -62.0C45.0 -35.0 0.0 0.0 0.0 0.0ZM180.0 363.0 102.0 373.0V-286.0C102.0 -328.0 117.0 -345.0 183.0 -345.0L272.0 -346.0C404.0 -346.0 434.0 -339.0 434.0 -318.0C434.0 -307.0 426.0 -304.0 407.0 -298.0L403.0 -297.0H392.0C386.0 -300.0 379.0 -301.0 374.0 -302.0C369.0 -302.0 365.0 -303.0 358.0 -303.0C346.0 -304.0 313.0 -305.0 273.0 -305.0H189.0C151.0 -305.0 146.0 -297.0 146.0 -275.0V337.0C169.0 340.0 178.0 350.0 180.0 363.0Z"/></g>
<g fill="black" opacity=".8" transform="translate(700 200) scale(0.1 -0.1)"><path d="M0.0 0.0 -38.0 -49.0H-451.0L-442.0 -77.0H46.0C61.0 -77.0 70.0 -73.0 72.0 -62.0C45.0 -35.0 0.0 0.0 0.0 0.0ZM179.0 363.0 102.0 373.0V-287.0C102.0 -328.0 117.0 -346.0 182.0 -346.0H272.0C404.0 -347.0 433.0 -338.0 433.0 -318.0C433.0 -306.0 426.0 -303.0 407.0 -298.0L403.0 -297.0H392.0C386.0 -300.0 379.0 -301.0 374.0 -302.0C369.0 -301.0 365.0 -303.0 359.0 -302.0C346.0 -303.0 313.0 -305.0 273.0 -305.0H189.0C151.0 -305.0 146.0 -297.0 146.0 -275.0V337.0C169.0 339.0 179.0 350.0 179.0 363.0Z"/></g>
<g fill="red" transform="translate(800 200) scale(0.1 -0.1)"><path d="M0.0 0.0 -62.0 -82.0H-429.0L-421.0 -110.0H83.0C97.0 -110.0 108.0 -105.0 111.0 -94.0C69.0 -56.0 0.0 0.0 0.0 0.0ZM292.0 313.0 123.0 329.0V-264.0C123.0 -354.0 146.0 -379.0 245.0 -379.0H317.0C454.0 -379.0 500.0 -351.0 500.0 -297.0C500.0 -273.0 486.0 -256.0 453.0 -240.0L447.0 -238.0H438.0C429.0 -241.0 416.0 -244.0 406.0 -245.0C398.0 -246.0 383.0 -247.0 375.0 -247.0C365.0 -248.0 347.0 -248.0 333.0 -248.0H284.0C263.0 -248.0 258.0 -242.0 258.0 -225.0V286.0C282.0 289.0 291.0 300.0 292.0 313.0Z"/></g>
<g fill="black" opacity=".8" transform="translate(800 200) scale(0.1 -0.1)"><path d="M0.0 0.0 -61.0 -83.0H-429.0L-422.0 -110.0H83.0C97.0 -110.0 108.0 -105.0 110.0 -94.0C69.0 -57.0 0.0 0.0 0.0 0.0ZM291.0 313.0 123.0 329.0V-263.0C123.0 -355.0 146.0 -379.0 245.0 -379.0H317.0C455.0 -379.0 500.0 -351.0 500.0 -297.0C500.0 -273.0 486.0 -255.0 453.0 -239.0L448.0 -238.0H437.0C429.0 -240.0 416.0 -243.0 406.0 -246.0C397.0 -245.0 383.0 -247.0 374.0 -246.0C366.0 -248.0 348.0 -249.0 333.0 -249.0H285.0C263.0 -249.0 258.0 -242.0 258.0 -225.0V286.0C282.0 289.0 291.0 299.0 291.0 313.0Z"/></g>
<g fill="red" transform="translate(900 200) scale(0.1 -0.1)"><path d="M0.0 0.0 -44.0 -53.0H-414.0V-83.0H54.0C68.0 -83.0 78.0 -78.0 81.0 -67.0C49.0 -38.0 0.0 0.0 0.0 0.0ZM-359.0 150.0 -437.0 160.0V-397.0C-437.0 -451.0 -413.0 -467.0 -320.0 -467.0H-156.0C62.0 -467.0 99.0 -462.0 99.0 -433.0C99.0 -423.0 92.0 -418.0 71.0 -412.0L69.0 -245.0H56.0C44.0 -323.0 32.0 -387.0 25.0 -406.0C20.0 -415.0 16.0 -420.0 0.0 -422.0C-21.0 -424.0 -78.0 -425.0 -158.0 -425.0H-319.0C-384.0 -425.0 -393.0 -416.0 -393.0 -390.0V125.0C-371.0 127.0 -361.0 137.0 -359.0 150.0Z"/></g>
<g fill="black" opacity=".8" transform="translate(900 200) scale(0.1 -0.1)"><path d="M0.0 0.0 -43.0 -53.0H-420.0L-417.0 -82.0H53.0C68.0 -82.0 78.0 -78.0 81.0 -67.0C48.0 -38.0 0.0 0.0 0.0 0.0ZM-360.0 150.0 -437.0 160.0V-400.0C-437.0 -453.0 -412.0 -469.0 -321.0 -469.0L-155.0 -468.0C64.0 -469.0 101.0 -462.0 101.0 -433.0C101.0 -423.0 94.0 -417.0 73.0 -412.0L71.0 -245.0H57.0C45.0 -322.0 34.0 -388.0 26.0 -406.0C22.0 -416.0 18.0 -421.0 3.0 -422.0C-20.0 -424.0 -77.0 -426.0 -157.0 -426.0H-320.0C-384.0 -426.0 -392.0 -416.0 -392.0 -391.0V125.0C-371.0 125.0 -361.0 136.0 -360.0 150.0Z"/></g>
<g fill="red" transform="translate(1000 200) scale(0.1 -0.1)"><path d="M0.0 0.0 -68.0 -95.0H-337.0V-123.0H95.0C109.0 -123.0 120.0 -118.0 123.0 -107.0C78.0 -64.0 0.0 0.0 0.0 0.0ZM-219.0 114.0 -398.0 130.0V-410.0C-398.0 -517.0 -354.0 -539.0 -225.0 -539.0H-102.0C111.0 -539.0 168.0 -512.0 168.0 -447.0C168.0 -420.0 157.0 -404.0 115.0 -387.0L111.0 -216.0H102.0C74.0 -298.0 53.0 -355.0 37.0 -380.0C28.0 -393.0 19.0 -397.0 1.0 -398.0C-18.0 -400.0 -51.0 -400.0 -86.0 -400.0H-204.0C-242.0 -400.0 -254.0 -393.0 -254.0 -370.0V87.0C-230.0 90.0 -221.0 100.0 -219.0 114.0Z"/></g>
<g fill="black" opacity=".8" transform="translate(1000 200) scale(0.1 -0.1)"><path d="M0.0 0.0 -67.0 -95.0H-344.0L-342.0 -123.0H94.0C108.0 -123.0 119.0 -118.0 122.0 -107.0C78.0 -65.0 0.0 0.0 0.0 0.0ZM-218.0 113.0 -396.0 130.0V-409.0C-396.0 -516.0 -352.0 -536.0 -225.0 -536.0H-103.0C107.0 -536.0 164.0 -510.0 164.0 -446.0C164.0 -420.0 152.0 -402.0 111.0 -385.0L109.0 -222.0H98.0C71.0 -300.0 50.0 -355.0 34.0 -380.0C25.0 -393.0 16.0 -396.0 -2.0 -396.0C-19.0 -399.0 -52.0 -400.0 -87.0 -400.0H-203.0C-242.0 -400.0 -252.0 -392.0 -252.0 -370.0V86.0C-229.0 90.0 -219.0 99.0 -218.0 113.0Z"/></g>
<g fill="red" transform="translate(1100 200) scale(0.1 -0.1)"><path d="M0.0 0.0 -44.0 -53.0H-295.0V-83.0H54.0C68.0 -83.0 76.0 -78.0 79.0 -67.0C49.0 -38.0 0.0 0.0 0.0 0.0ZM-243.0 294.0 -323.0 304.0V-483.0C-323.0 -537.0 -299.0 -556.0 -217.0 -556.0H-87.0C95.0 -557.0 131.0 -554.0 131.0 -528.0C131.0 -519.0 126.0 -514.0 105.0 -508.0L102.0 -342.0H88.0C77.0 -416.0 65.0 -486.0 58.0 -502.0C54.0 -511.0 49.0 -515.0 37.0 -517.0C19.0 -519.0 -24.0 -520.0 -89.0 -520.0H-214.0C-270.0 -520.0 -279.0 -508.0 -279.0 -479.0V267.0C-254.0 271.0 -245.0 281.0 -243.0 294.0Z"/></g>
<g fill="black" opacity=".8" transform="translate(1100 200) scale(0.1 -0.1)"><path d="M0.0 0.0 -44.0 -53.0H-301.0L-297.0 -82.0H53.0C68.0 -82.0 76.0 -77.0 79.0 -67.0C49.0 -38.0 0.0 0.0 0.0 0.0ZM-244.0 294.0 -323.0 304.0V-485.0C-323.0 -538.0 -298.0 -558.0 -218.0 -558.0L-86.0 -557.0C96.0 -559.0 132.0 -554.0 132.0 -528.0C132.0 -519.0 128.0 -514.0 107.0 -508.0L103.0 -342.0H89.0C78.0 -416.0 66.0 -486.0 59.0 -502.0C56.0 -511.0 50.0 -515.0 39.0 -517.0C20.0 -519.0 -24.0 -521.0 -88.0 -521.0H-214.0C-271.0 -521.0 -279.0 -508.0 -279.0 -480.0V267.0C-254.0 270.0 -245.0 281.0 -244.0 294.0Z"/></g>
<g fill="red" transform="translate(1200 200) scale(0.1 -0.1)"><path d="M0.0 0.0 -73.0 -101.0H-267.0V-129.0H101.0C116.0 -129.0 127.0 -124.0 130.0 -113.0C82.0 -68.0 0.0 0.0 0.0 0.0ZM-152.0 259.0 -333.0 278.0V-504.0C-333.0 -606.0 -291.0 -631.0 -173.0 -631.0H-77.0C103.0 -631.0 159.0 -613.0 159.0 -551.0C159.0 -526.0 147.0 -511.0 108.0 -493.0L103.0 -326.0H94.0C71.0 -399.0 49.0 -462.0 33.0 -485.0C24.0 -497.0 14.0 -501.0 0.0 -502.0C-14.0 -503.0 -36.0 -503.0 -62.0 -503.0H-143.0C-175.0 -503.0 -188.0 -495.0 -188.0 -469.0V231.0C-162.0 234.0 -153.0 246.0 -152.0 259.0Z"/></g>
<g fill="black" opacity=".8" transform="translate(1200 200) scale(0.1 -0.1)"><path d="M0.0 0.0 -72.0 -101.0H-273.0L-272.0 -129.0H100.0C116.0 -129.0 126.0 -124.0 129.0 -114.0C82.0 -68.0 0.0 0.0 0.0 0.0ZM-150.0 259.0 -331.0 278.0V-503.0C-331.0 -605.0 -290.0 -629.0 -174.0 -629.0H-78.0C100.0 -629.0 156.0 -611.0 156.0 -550.0C156.0 -526.0 143.0 -510.0 104.0 -492.0L101.0 -330.0H90.0C69.0 -401.0 47.0 -462.0 31.0 -485.0C21.0 -496.0 12.0 -499.0 -2.0 -501.0C-16.0 -502.0 -37.0 -503.0 -63.0 -503.0H-142.0C-175.0 -503.0 -186.0 -494.0 -186.0 -468.0V229.0C-161.0 233.0 -151.0 245.0 -150.0 259.0Z"/></g>
<g fill="red" transform="translate(1300 200) scale(0.1 -0.1)"><path d="M0.0 0.0 -44.0 -53.0H-414.0V-83.0H54.0C68.0 -83.0 78.0 -78.0 81.0 -67.0C49.0 -38.0 0.0 0.0 0.0 0.0ZM-354.0 168.0 -432.0 178.0V-392.0C-432.0 -450.0 -406.0 -465.0 -310.0 -465.0H-136.0C91.0 -465.0 131.0 -460.0 131.0 -432.0C131.0 -422.0 124.0 -416.0 102.0 -410.0L100.0 -241.0H86.0C74.0 -321.0 64.0 -384.0 56.0 -403.0C51.0 -414.0 46.0 -418.0 29.0 -420.0C6.0 -423.0 -54.0 -424.0 -138.0 -424.0H-309.0C-379.0 -424.0 -388.0 -414.0 -388.0 -387.0V142.0C-366.0 145.0 -356.0 155.0 -354.0 168.0Z"/></g>
<g fill="black" opacity=".8" transform="translate(1300 200) scale(0.1 -0.1)"><path d="M0.0 0.0 -44.0 -54.0H-408.0L-409.0 -83.0H54.0C69.0 -83.0 79.0 -78.0 82.0 -68.0C49.0 -39.0 0.0 0.0 0.0 0.0ZM-354.0 168.0 -432.0 179.0V-392.0C-432.0 -448.0 -405.0 -463.0 -310.0 -463.0H-137.0C89.0 -464.0 129.0 -458.0 129.0 -431.0C129.0 -421.0 123.0 -415.0 101.0 -410.0L98.0 -241.0H84.0C72.0 -321.0 62.0 -385.0 54.0 -403.0C49.0 -413.0 44.0 -418.0 29.0 -419.0C5.0 -422.0 -55.0 -424.0 -138.0 -424.0H-309.0C-378.0 -424.0 -387.0 -413.0 -387.0 -387.0V143.0C-365.0 144.0 -355.0 155.0 -354.0 168.0Z"/></g>
<g fill="red" transform="translate(1400 200) scale(0.1 -0.1)"><path d="M0.0 0.0 -69.0 -95.0H-347.0V-123.0H94.0C109.0 -123.0 120.0 -118.0 122.0 -107.0C77.0 -64.0 0.0 0.0 0.0 0.0ZM-214.0 115.0 -393.0 132.0V-424.0C-393.0 -528.0 -350.0 -550.0 -222.0 -550.0H-102.0C106.0 -550.0 164.0 -529.0 164.0 -465.0C164.0 -439.0 153.0 -423.0 111.0 -407.0L108.0 -232.0H98.0C70.0 -314.0 49.0 -374.0 33.0 -399.0C24.0 -413.0 15.0 -417.0 -2.0 -418.0C-21.0 -419.0 -52.0 -420.0 -86.0 -420.0H-200.0C-237.0 -420.0 -249.0 -413.0 -249.0 -389.0V88.0C-225.0 92.0 -216.0 102.0 -214.0 115.0Z"/></g>
<g fill="black" opacity=".8" transform="translate(1400 200) scale(0.1 -0.1)"><path d="M0.0 0.0 -68.0 -95.0H-339.0L-342.0 -122.0H95.0C110.0 -122.0 120.0 -118.0 123.0 -107.0C77.0 -65.0 0.0 0.0 0.0 0.0ZM-216.0 116.0 -395.0 133.0V-425.0C-395.0 -530.0 -350.0 -551.0 -222.0 -551.0H-101.0C110.0 -551.0 168.0 -530.0 168.0 -466.0C168.0 -440.0 156.0 -424.0 115.0 -407.0L113.0 -227.0H102.0C74.0 -311.0 52.0 -373.0 36.0 -400.0C26.0 -413.0 18.0 -417.0 -0.0 -418.0C-18.0 -420.0 -49.0 -421.0 -85.0 -421.0H-200.0C-239.0 -421.0 -251.0 -413.0 -251.0 -389.0V88.0C-227.0 93.0 -217.0 102.0 -216.0 116.0Z"/></g>
</svg>
