<?xml version="1.0" encoding="UTF-8"?>
<svg width="1700" height="300" xmlns="http://www.w3.org/2000/svg">
<rect width="100%" height="100%" fill="white"/>
<g fill="green" transform="translate(100 100) scale(0.1 -0.1)"><path d="M0.0 0.0 7.0 -29.0H235.0C249.0 -29.0 259.0 -24.0 261.0 -13.0C232.0 14.0 185.0 51.0 185.0 51.0L144.0 0.0H0.0ZM255.0 -143.0 263.0 -173.0H499.0C513.0 -173.0 522.0 -168.0 525.0 -157.0C500.0 -131.0 459.0 -95.0 459.0 -95.0L422.0 -143.0H255.0ZM34.0 -315.0V-344.0H187.0V-315.0H34.0ZM389.0 52.0V-620.0C389.0 -635.0 385.0 -639.0 369.0 -639.0C353.0 -639.0 276.0 -633.0 276.0 -633.0V-650.0C310.0 -654.0 330.0 -659.0 342.0 -667.0C353.0 -675.0 357.0 -689.0 359.0 -703.0C426.0 -695.0 433.0 -668.0 433.0 -625.0V15.0C457.0 19.0 466.0 28.0 469.0 42.0L389.0 52.0ZM-31.0 -608.0 3.0 -674.0C12.0 -671.0 20.0 -663.0 23.0 -652.0C133.0 -614.0 216.0 -583.0 275.0 -560.0L272.0 -544.0C146.0 -573.0 23.0 -599.0 -31.0 -608.0ZM27.0 -401.0 12.0 -405.0C27.0 -445.0 43.0 -506.0 42.0 -552.0C81.0 -594.0 133.0 -507.0 27.0 -401.0ZM269.0 -273.0 256.0 -278.0C279.0 -323.0 305.0 -395.0 305.0 -448.0C349.0 -493.0 400.0 -386.0 269.0 -273.0ZM158.0 -396.0C150.0 -455.0 135.0 -536.0 124.0 -591.0H143.0C165.0 -542.0 187.0 -481.0 200.0 -438.0C221.0 -438.0 233.0 -428.0 237.0 -416.0L158.0 -396.0ZM12.0 -124.0V-384.0H19.0C38.0 -384.0 57.0 -373.0 57.0 -369.0V-153.0H193.0V-124.0H62.0L12.0 -100.0V-124.0ZM167.0 -124.0V-373.0H173.0C188.0 -373.0 210.0 -361.0 211.0 -355.0V-160.0C228.0 -157.0 244.0 -149.0 250.0 -142.0L186.0 -94.0L158.0 -124.0H167.0ZM-70.0 136.0V-118.0C-70.0 -305.0 -69.0 -517.0 -131.0 -692.0L-113.0 -702.0C-25.0 -526.0 -26.0 -284.0 -26.0 -118.0V136.0H-16.0L-70.0 164.0V146.0V136.0ZM-46.0 136.0V107.0H510.0C524.0 107.0 533.0 112.0 536.0 123.0C505.0 151.0 456.0 190.0 456.0 190.0L412.0 136.0H-46.0Z"/></g>
<g fill="green" transform="translate(200 100) scale(0.1 -0.1)"><path d="M0.0 0.0 8.0 -28.0H265.0C279.0 -28.0 289.0 -23.0 292.0 -12.0C257.0 27.0 194.0 85.0 194.0 85.0L138.0 0.0H0.0ZM230.0 -156.0 237.0 -184.0H484.0C498.0 -184.0 507.0 -179.0 509.0 -168.0C487.0 -135.0 440.0 -83.0 440.0 -83.0L400.0 -156.0H230.0ZM56.0 -304.0V-332.0H159.0V-304.0H56.0ZM315.0 74.0V-589.0C315.0 -600.0 311.0 -604.0 298.0 -604.0C283.0 -604.0 215.0 -599.0 215.0 -599.0V-614.0C250.0 -621.0 266.0 -632.0 278.0 -649.0C288.0 -666.0 292.0 -692.0 294.0 -726.0C402.0 -715.0 416.0 -673.0 416.0 -597.0V33.0C440.0 37.0 450.0 46.0 452.0 60.0L315.0 74.0ZM-50.0 -579.0 3.0 -704.0C14.0 -701.0 24.0 -693.0 30.0 -680.0C143.0 -626.0 221.0 -584.0 273.0 -554.0L272.0 -542.0C139.0 -560.0 6.0 -575.0 -50.0 -579.0ZM16.0 -386.0 4.0 -390.0C14.0 -430.0 19.0 -489.0 10.0 -538.0C73.0 -617.0 188.0 -488.0 16.0 -386.0ZM238.0 -244.0 226.0 -248.0C239.0 -301.0 248.0 -372.0 240.0 -434.0C317.0 -526.0 439.0 -364.0 238.0 -244.0ZM127.0 -378.0C125.0 -443.0 119.0 -537.0 112.0 -601.0H127.0C163.0 -547.0 199.0 -477.0 222.0 -429.0C244.0 -428.0 255.0 -418.0 258.0 -406.0L127.0 -378.0ZM14.0 -102.0V-382.0H26.0C62.0 -382.0 98.0 -363.0 98.0 -356.0V-130.0H166.0V-102.0H102.0L14.0 -65.0V-102.0ZM132.0 -102.0V-372.0H146.0C173.0 -372.0 215.0 -355.0 216.0 -348.0V-141.0C232.0 -137.0 245.0 -130.0 250.0 -124.0L164.0 -59.0L124.0 -102.0H132.0ZM-108.0 136.0V-102.0C-108.0 -295.0 -108.0 -527.0 -175.0 -714.0L-162.0 -721.0C-11.0 -543.0 -7.0 -281.0 -7.0 -101.0V136.0H9.0L-108.0 179.0V146.0V136.0ZM-61.0 136.0V108.0H480.0C494.0 108.0 505.0 113.0 508.0 124.0C463.0 162.0 390.0 217.0 390.0 217.0L325.0 136.0H-61.0Z"/></g>
<g fill="green" transform="translate(300 100) scale(0.1 -0.1)"><path d="M0.0 0.0 7.0 -29.0H235.0C249.0 -29.0 259.0 -24.0 261.0 -13.0C232.0 14.0 185.0 51.0 185.0 51.0L144.0 0.0H0.0ZM255.0 -143.0 263.0 -173.0H499.0C513.0 -173.0 522.0 -168.0 525.0 -157.0C500.0 -131.0 459.0 -95.0 459.0 -95.0L422.0 -143.0H255.0ZM34.0 -315.0V-344.0H187.0V-315.0H34.0ZM389.0 52.0V-620.0C389.0 -635.0 385.0 -639.0 369.0 -639.0C353.0 -639.0 276.0 -633.0 276.0 -633.0V-650.0C310.0 -654.0 330.0 -659.0 342.0 -667.0C353.0 -675.0 357.0 -689.0 359.0 -703.0C426.0 -695.0 433.0 -668.0 433.0 -625.0V15.0C457.0 19.0 466.0 28.0 469.0 42.0L389.0 52.0ZM-31.0 -608.0 3.0 -674.0C12.0 -671.0 20.0 -663.0 23.0 -652.0C133.0 -614.0 216.0 -583.0 275.0 -560.0L272.0 -544.0C146.0 -573.0 23.0 -599.0 -31.0 -608.0ZM27.0 -401.0 12.0 -405.0C27.0 -445.0 43.0 -506.0 42.0 -552.0C81.0 -594.0 133.0 -507.0 27.0 -401.0ZM269.0 -273.0 256.0 -278.0C279.0 -323.0 305.0 -395.0 305.0 -448.0C349.0 -493.0 400.0 -386.0 269.0 -273.0ZM158.0 -396.0C150.0 -455.0 135.0 -536.0 124.0 -591.0H143.0C165.0 -542.0 187.0 -481.0 200.0 -438.0C221.0 -438.0 233.0 -428.0 237.0 -416.0L158.0 -396.0ZM12.0 -124.0V-384.0H19.0C38.0 -384.0 57.0 -373.0 57.0 -369.0V-153.0H193.0V-124.0H62.0L12.0 -100.0V-124.0ZM167.0 -124.0V-373.0H173.0C188.0 -373.0 210.0 -361.0 211.0 -355.0V-160.0C228.0 -157.0 244.0 -149.0 250.0 -142.0L186.0 -94.0L158.0 -124.0H167.0ZM-70.0 136.0V-118.0C-70.0 -305.0 -69.0 -517.0 -131.0 -692.0L-113.0 -702.0C-25.0 -526.0 -26.0 -284.0 -26.0 -118.0V136.0H-16.0L-70.0 164.0V146.0V136.0ZM-46.0 136.0V107.0H510.0C524.0 107.0 533.0 112.0 536.0 123.0C505.0 151.0 456.0 190.0 456.0 190.0L412.0 136.0H-46.0Z"/></g>
<g fill="green" transform="translate(400 100) scale(0.1 -0.1)"><path d="M0.0 0.0 8.0 -28.0H265.0C279.0 -28.0 289.0 -23.0 292.0 -12.0C257.0 27.0 194.0 85.0 194.0 85.0L138.0 0.0H0.0ZM230.0 -156.0 237.0 -184.0H484.0C498.0 -184.0 507.0 -179.0 509.0 -168.0C487.0 -135.0 440.0 -83.0 440.0 -83.0L400.0 -156.0H230.0ZM56.0 -304.0V-332.0H159.0V-304.0H56.0ZM315.0 74.0V-589.0C315.0 -600.0 311.0 -604.0 298.0 -604.0C283.0 -604.0 215.0 -599.0 215.0 -599.0V-614.0C250.0 -621.0 266.0 -632.0 278.0 -649.0C288.0 -666.0 292.0 -692.0 294.0 -726.0C402.0 -715.0 416.0 -673.0 416.0 -597.0V33.0C440.0 37.0 450.0 46.0 452.0 60.0L315.0 74.0ZM-50.0 -579.0 3.0 -704.0C14.0 -701.0 24.0 -693.0 30.0 -680.0C143.0 -626.0 221.0 -584.0 273.0 -554.0L272.0 -542.0C139.0 -560.0 6.0 -575.0 -50.0 -579.0ZM16.0 -386.0 4.0 -390.0C14.0 -430.0 19.0 -489.0 10.0 -538.0C73.0 -617.0 188.0 -488.0 16.0 -386.0ZM238.0 -244.0 226.0 -248.0C239.0 -301.0 248.0 -372.0 240.0 -434.0C317.0 -526.0 439.0 -364.0 238.0 -244.0ZM127.0 -378.0C125.0 -443.0 119.0 -537.0 112.0 -601.0H127.0C163.0 -547.0 199.0 -477.0 222.0 -429.0C244.0 -428.0 255.0 -418.0 258.0 -406.0L127.0 -378.0ZM14.0 -102.0V-382.0H26.0C62.0 -382.0 98.0 -363.0 98.0 -356.0V-130.0H166.0V-102.0H102.0L14.0 -65.0V-102.0ZM132.0 -102.0V-372.0H146.0C173.0 -372.0 215.0 -355.0 216.0 -348.0V-141.0C232.0 -137.0 245.0 -130.0 250.0 -124.0L164.0 -59.0L124.0 -102.0H132.0ZM-108.0 136.0V-102.0C-108.0 -295.0 -108.0 -527.0 -175.0 -714.0L-162.0 -721.0C-11.0 -543.0 -7.0 -281.0 -7.0 -101.0V136.0H9.0L-108.0 179.0V146.0V136.0ZM-61.0 136.0V108.0H480.0C494.0 108.0 505.0 113.0 508.0 124.0C463.0 162.0 390.0 217.0 390.0 217.0L325.0 136.0H-61.0Z"/></g>
<g fill="red" transform="translate(100 200) scale(0.1 -0.1)"><path d="M0.0 0.0 7.0 -29.0H235.0C249.0 -29.0 259.0 -24.0 261.0 -13.0C232.0 14.0 185.0 51.0 185.0 51.0L144.0 0.0H0.0ZM255.0 -143.0 263.0 -173.0H499.0C513.0 -173.0 522.0 -168.0 525.0 -157.0C500.0 -131.0 459.0 -95.0 459.0 -95.0L422.0 -143.0H255.0ZM34.0 -315.0V-344.0H187.0V-315.0H34.0ZM389.0 52.0V-620.0C389.0 -635.0 385.0 -639.0 369.0 -639.0C353.0 -639.0 276.0 -633.0 276.0 -633.0V-650.0C310.0 -654.0 330.0 -659.0 342.0 -667.0C353.0 -675.0 357.0 -689.0 359.0 -703.0C426.0 -695.0 433.0 -668.0 433.0 -625.0V15.0C457.0 19.0 466.0 28.0 469.0 42.0L389.0 52.0ZM-31.0 -608.0 3.0 -674.0C12.0 -671.0 20.0 -663.0 23.0 -652.0C133.0 -614.0 216.0 -583.0 275.0 -560.0L272.0 -544.0C146.0 -573.0 23.0 -599.0 -31.0 -608.0ZM27.0 -401.0 12.0 -405.0C27.0 -445.0 43.0 -506.0 42.0 -552.0C81.0 -594.0 133.0 -507.0 27.0 -401.0ZM269.0 -273.0 256.0 -278.0C279.0 -323.0 305.0 -395.0 305.0 -448.0C349.0 -493.0 400.0 -386.0 269.0 -273.0ZM158.0 -396.0C150.0 -455.0 135.0 -536.0 124.0 -591.0H143.0C165.0 -542.0 187.0 -481.0 200.0 -438.0C221.0 -438.0 233.0 -428.0 237.0 -416.0L158.0 -396.0ZM12.0 -124.0V-384.0H19.0C38.0 -384.0 57.0 -373.0 57.0 -369.0V-153.0H193.0V-124.0H62.0L12.0 -100.0V-124.0ZM167.0 -124.0V-373.0H173.0C188.0 -373.0 210.0 -361.0 211.0 -355.0V-160.0C228.0 -157.0 244.0 -149.0 250.0 -142.0L186.0 -94.0L158.0 -124.0H167.0ZM-70.0 136.0V-118.0C-70.0 -305.0 -69.0 -517.0 -131.0 -692.0L-113.0 -702.0C-25.0 -526.0 -26.0 -284.0 -26.0 -118.0V136.0H-16.0L-70.0 164.0V146.0V136.0ZM-46.0 136.0V107.0H510.0C524.0 107.0 533.0 112.0 536.0 123.0C505.0 151.0 456.0 190.0 456.0 190.0L412.0 136.0H-46.0Z"/></g>
<g fill="black" opacity=".8" transform="translate(100 200) scale(0.1 -0.1)"><path d="M0.0 0.0 7.0 -29.0H235.0C249.0 -29.0 259.0 -24.0 261.0 -13.0C232.0 14.0 185.0 51.0 185.0 51.0L144.0 0.0H0.0ZM255.0 -143.0 263.0 -173.0H499.0C513.0 -173.0 522.0 -168.0 525.0 -157.0C500.0 -131.0 459.0 -95.0 459.0 -95.0L422.0 -143.0H255.0ZM34.0 -315.0V-344.0H187.0V-315.0H34.0ZM389.0 52.0V-620.0C389.0 -635.0 385.0 -639.0 369.0 -639.0C353.0 -639.0 276.0 -633.0 276.0 -633.0V-650.0C310.0 -654.0 330.0 -659.0 342.0 -667.0C353.0 -675.0 357.0 -689.0 359.0 -703.0C426.0 -695.0 433.0 -668.0 433.0 -625.0V15.0C457.0 19.0 466.0 28.0 469.0 42.0L389.0 52.0ZM-31.0 -608.0 3.0 -674.0C12.0 -671.0 20.0 -663.0 23.0 -652.0C133.0 -614.0 216.0 -583.0 275.0 -560.0L272.0 -544.0C146.0 -573.0 23.0 -599.0 -31.0 -608.0ZM27.0 -401.0 12.0 -405.0C27.0 -445.0 43.0 -506.0 42.0 -552.0C81.0 -594.0 133.0 -507.0 27.0 -401.0ZM269.0 -273.0 256.0 -278.0C279.0 -323.0 305.0 -395.0 305.0 -448.0C349.0 -493.0 400.0 -386.0 269.0 -273.0ZM158.0 -396.0C150.0 -455.0 135.0 -536.0 124.0 -591.0H143.0C165.0 -542.0 187.0 -481.0 200.0 -438.0C221.0 -438.0 233.0 -428.0 237.0 -416.0L158.0 -396.0ZM12.0 -124.0V-384.0H19.0C38.0 -384.0 57.0 -373.0 57.0 -369.0V-153.0H193.0V-124.0H62.0L12.0 -100.0V-124.0ZM167.0 -124.0V-373.0H173.0C188.0 -373.0 210.0 -361.0 211.0 -355.0V-160.0C228.0 -157.0 244.0 -149.0 250.0 -142.0L186.0 -94.0L158.0 -124.0H167.0ZM-70.0 136.0V-118.0C-70.0 -305.0 -69.0 -517.0 -131.0 -692.0L-113.0 -702.0C-25.0 -526.0 -26.0 -284.0 -26.0 -118.0V136.0H-16.0L-70.0 164.0V146.0V136.0ZM-46.0 136.0V107.0H510.0C524.0 107.0 533.0 112.0 536.0 123.0C505.0 151.0 456.0 190.0 456.0 190.0L412.0 136.0H-46.0Z"/></g>
<g fill="red" transform="translate(200 200) scale(0.1 -0.1)"><path d="M0.0 0.0 8.0 -28.0H265.0C279.0 -28.0 289.0 -23.0 292.0 -12.0C257.0 27.0 194.0 85.0 194.0 85.0L138.0 0.0H0.0ZM230.0 -156.0 237.0 -184.0H484.0C498.0 -184.0 507.0 -179.0 509.0 -168.0C487.0 -135.0 440.0 -83.0 440.0 -83.0L400.0 -156.0H230.0ZM56.0 -304.0V-332.0H159.0V-304.0H56.0ZM315.0 74.0V-589.0C315.0 -600.0 311.0 -604.0 298.0 -604.0C283.0 -604.0 215.0 -599.0 215.0 -599.0V-614.0C250.0 -621.0 266.0 -632.0 278.0 -649.0C288.0 -666.0 292.0 -692.0 294.0 -726.0C402.0 -715.0 416.0 -673.0 416.0 -597.0V33.0C440.0 37.0 450.0 46.0 452.0 60.0L315.0 74.0ZM-50.0 -579.0 3.0 -704.0C14.0 -701.0 24.0 -693.0 30.0 -680.0C143.0 -626.0 221.0 -584.0 273.0 -554.0L272.0 -542.0C139.0 -560.0 6.0 -575.0 -50.0 -579.0ZM16.0 -386.0 4.0 -390.0C14.0 -430.0 19.0 -489.0 10.0 -538.0C73.0 -617.0 188.0 -488.0 16.0 -386.0ZM238.0 -244.0 226.0 -248.0C239.0 -301.0 248.0 -372.0 240.0 -434.0C317.0 -526.0 439.0 -364.0 238.0 -244.0ZM127.0 -378.0C125.0 -443.0 119.0 -537.0 112.0 -601.0H127.0C163.0 -547.0 199.0 -477.0 222.0 -429.0C244.0 -428.0 255.0 -418.0 258.0 -406.0L127.0 -378.0ZM14.0 -102.0V-382.0H26.0C62.0 -382.0 98.0 -363.0 98.0 -356.0V-130.0H166.0V-102.0H102.0L14.0 -65.0V-102.0ZM132.0 -102.0V-372.0H146.0C173.0 -372.0 215.0 -355.0 216.0 -348.0V-141.0C232.0 -137.0 245.0 -130.0 250.0 -124.0L164.0 -59.0L124.0 -102.0H132.0ZM-108.0 136.0V-102.0C-108.0 -295.0 -108.0 -527.0 -175.0 -714.0L-162.0 -721.0C-11.0 -543.0 -7.0 -281.0 -7.0 -101.0V136.0H9.0L-108.0 179.0V146.0V136.0ZM-61.0 136.0V108.0H480.0C494.0 108.0 505.0 113.0 508.0 124.0C463.0 162.0 390.0 217.0 390.0 217.0L325.0 136.0H-61.0Z"/></g>
<g fill="black" opacity=".8" transform="translate(200 200) scale(0.1 -0.1)"><path d="M0.0 0.0 8.0 -28.0H265.0C279.0 -28.0 289.0 -23.0 292.0 -12.0C257.0 27.0 194.0 85.0 194.0 85.0L138.0 0.0H0.0ZM230.0 -156.0 237.0 -184.0H484.0C498.0 -184.0 507.0 -179.0 509.0 -168.0C487.0 -135.0 440.0 -83.0 440.0 -83.0L400.0 -156.0H230.0ZM56.0 -304.0V-332.0H159.0V-304.0H56.0ZM315.0 74.0V-589.0C315.0 -600.0 311.0 -604.0 298.0 -604.0C283.0 -604.0 215.0 -599.0 215.0 -599.0V-614.0C250.0 -621.0 266.0 -632.0 278.0 -649.0C288.0 -666.0 292.0 -692.0 294.0 -726.0C402.0 -715.0 416.0 -673.0 416.0 -597.0V33.0C440.0 37.0 450.0 46.0 452.0 60.0L315.0 74.0ZM-50.0 -579.0 3.0 -704.0C14.0 -701.0 24.0 -693.0 30.0 -680.0C143.0 -626.0 221.0 -584.0 273.0 -554.0L272.0 -542.0C139.0 -560.0 6.0 -575.0 -50.0 -579.0ZM16.0 -386.0 4.0 -390.0C14.0 -430.0 19.0 -489.0 10.0 -538.0C73.0 -617.0 188.0 -488.0 16.0 -386.0ZM238.0 -244.0 226.0 -248.0C239.0 -301.0 248.0 -372.0 240.0 -434.0C317.0 -526.0 439.0 -364.0 238.0 -244.0ZM127.0 -378.0C125.0 -443.0 119.0 -537.0 112.0 -601.0H127.0C163.0 -547.0 199.0 -477.0 222.0 -429.0C244.0 -428.0 255.0 -418.0 258.0 -406.0L127.0 -378.0ZM14.0 -102.0V-382.0H26.0C62.0 -382.0 98.0 -363.0 98.0 -356.0V-130.0H166.0V-102.0H102.0L14.0 -65.0V-102.0ZM132.0 -102.0V-372.0H146.0C173.0 -372.0 215.0 -355.0 216.0 -348.0V-141.0C232.0 -137.0 245.0 -130.0 250.0 -124.0L164.0 -59.0L124.0 -102.0H132.0ZM-108.0 136.0V-102.0C-108.0 -295.0 -108.0 -527.0 -175.0 -714.0L-162.0 -721.0C-11.0 -543.0 -7.0 -281.0 -7.0 -101.0V136.0H9.0L-108.0 179.0V146.0V136.0ZM-61.0 136.0V108.0H480.0C494.0 108.0 505.0 113.0 508.0 124.0C463.0 162.0 390.0 217.0 390.0 217.0L325.0 136.0H-61.0Z"/></g>
</svg>
