<?xml version="1.0" encoding="UTF-8"?>
<svg width="1700" height="300" xmlns="http://www.w3.org/2000/svg">
<rect width="100%" height="100%" fill="white"/>
<g fill="green" transform="translate(100 100) scale(0.1 -0.1)"><path d="M-0.0 0.0H-247.0L-238.0 -30.0H0.0ZM363.0 36.0 333.0 0.0H161.0L169.0 -30.0H394.0C408.0 -30.0 416.0 -25.0 419.0 -14.0C397.0 9.0 363.0 36.0 363.0 36.0ZM211.0 90.0 136.0 99.0V-88.0H145.0C160.0 -88.0 177.0 -77.0 177.0 -70.0V66.0C199.0 68.0 209.0 77.0 211.0 90.0ZM42.0 89.0 -33.0 98.0V-89.0H-24.0C-9.0 -89.0 8.0 -78.0 8.0 -71.0V65.0C30.0 67.0 40.0 76.0 42.0 89.0ZM6.0 -441.0C31.0 -441.0 41.0 -435.0 45.0 -425.0L-32.0 -400.0C-72.0 -483.0 -165.0 -596.0 -261.0 -660.0L-248.0 -674.0C-140.0 -616.0 -48.0 -520.0 6.0 -441.0ZM-111.0 -546.0 -122.0 -556.0C-81.0 -584.0 -28.0 -638.0 -12.0 -678.0C35.0 -706.0 59.0 -609.0 -111.0 -546.0ZM188.0 -491.0H194.0C103.0 -671.0 -37.0 -742.0 -261.0 -795.0L-252.0 -815.0C-5.0 -771.0 136.0 -696.0 238.0 -526.0C260.0 -525.0 273.0 -522.0 281.0 -515.0L220.0 -460.0ZM174.0 -115.0H130.0V-280.0H174.0ZM10.0 -114.0H-34.0V-279.0H10.0ZM225.0 -491.0H-69.0L-98.0 -521.0H225.0ZM-152.0 -306.0V-138.0H304.0V-108.0H-147.0L-196.0 -83.0V-321.0H-189.0C-171.0 -321.0 -152.0 -310.0 -152.0 -306.0ZM276.0 -108.0H285.0V-316.0H291.0C306.0 -316.0 328.0 -305.0 329.0 -299.0V-144.0C346.0 -141.0 362.0 -134.0 368.0 -127.0L304.0 -78.0ZM310.0 -258.0H-168.0V-288.0H310.0ZM326.0 -360.0H337.0C328.0 -390.0 304.0 -452.0 292.0 -481.0L307.0 -488.0C330.0 -465.0 368.0 -423.0 387.0 -396.0C406.0 -395.0 418.0 -394.0 425.0 -388.0L361.0 -325.0ZM-220.0 -322.0 -239.0 -321.0C-238.0 -365.0 -262.0 -418.0 -285.0 -437.0C-301.0 -450.0 -310.0 -468.0 -300.0 -483.0C-288.0 -498.0 -260.0 -491.0 -245.0 -476.0C-222.0 -452.0 -205.0 -396.0 -220.0 -322.0ZM358.0 -360.0H-232.0V-390.0H358.0Z"/></g>
<g fill="green" transform="translate(200 100) scale(0.1 -0.1)"><path d="M0.0 0.0H-227.0L-218.0 -28.0H0.0ZM328.0 80.0 271.0 0.0H129.0L137.0 -28.0H402.0C416.0 -28.0 427.0 -23.0 429.0 -12.0C392.0 25.0 328.0 80.0 328.0 80.0ZM259.0 90.0 104.0 103.0V-106.0H127.0C173.0 -106.0 230.0 -88.0 230.0 -81.0V68.0C251.0 71.0 257.0 79.0 259.0 90.0ZM75.0 90.0 -77.0 103.0V-115.0H-55.0C-9.0 -115.0 47.0 -97.0 47.0 -90.0V68.0C68.0 71.0 74.0 79.0 75.0 90.0ZM56.0 -458.0C87.0 -457.0 99.0 -449.0 103.0 -436.0L-68.0 -379.0C-93.0 -468.0 -166.0 -600.0 -256.0 -679.0L-248.0 -687.0C-115.0 -639.0 -4.0 -545.0 56.0 -458.0ZM-95.0 -576.0 -102.0 -582.0C-77.0 -605.0 -44.0 -648.0 -32.0 -686.0C79.0 -739.0 151.0 -541.0 -95.0 -576.0ZM157.0 -492.0H166.0C91.0 -655.0 -48.0 -764.0 -257.0 -833.0L-251.0 -846.0C45.0 -810.0 202.0 -708.0 304.0 -543.0C328.0 -541.0 343.0 -537.0 350.0 -527.0L222.0 -426.0ZM201.0 -125.0H100.0V-292.0H201.0ZM61.0 -125.0H-38.0V-292.0H61.0ZM233.0 -492.0H-23.0L-50.0 -520.0H233.0ZM-77.0 -307.0V-153.0H294.0V-125.0H-70.0L-205.0 -73.0V-344.0H-187.0C-135.0 -344.0 -77.0 -317.0 -77.0 -307.0ZM232.0 -125.0H241.0V-327.0H265.0C307.0 -327.0 375.0 -306.0 375.0 -298.0V-169.0C392.0 -165.0 402.0 -158.0 407.0 -152.0L289.0 -65.0ZM304.0 -274.0H-119.0V-302.0H304.0ZM274.0 -361.0H285.0C280.0 -396.0 269.0 -460.0 262.0 -495.0L271.0 -501.0C311.0 -479.0 372.0 -440.0 408.0 -414.0C429.0 -413.0 438.0 -411.0 446.0 -402.0L337.0 -298.0ZM-171.0 -313.0H-184.0C-179.0 -342.0 -211.0 -378.0 -233.0 -393.0C-267.0 -410.0 -290.0 -442.0 -277.0 -482.0C-262.0 -525.0 -204.0 -535.0 -177.0 -514.0C-140.0 -484.0 -130.0 -411.0 -171.0 -313.0ZM330.0 -361.0H-188.0V-389.0H330.0Z"/></g>
<g fill="green" transform="translate(300 100) scale(0.1 -0.1)"><path d="M-0.0 0.0H-243.0L-234.0 -30.0H0.0ZM358.0 35.0 328.0 0.0H159.0L167.0 -30.0H388.0C402.0 -30.0 410.0 -25.0 413.0 -14.0C391.0 9.0 358.0 35.0 358.0 35.0ZM208.0 89.0 134.0 97.0V-87.0H143.0C158.0 -87.0 174.0 -76.0 174.0 -69.0V65.0C196.0 67.0 206.0 76.0 208.0 89.0ZM41.0 88.0 -33.0 96.0V-88.0H-24.0C-9.0 -88.0 8.0 -77.0 8.0 -70.0V64.0C29.0 66.0 39.0 75.0 41.0 88.0ZM6.0 -434.0C30.0 -434.0 40.0 -428.0 44.0 -418.0L-32.0 -394.0C-71.0 -475.0 -163.0 -586.0 -257.0 -649.0L-245.0 -663.0C-138.0 -606.0 -48.0 -512.0 6.0 -434.0ZM-109.0 -537.0 -120.0 -547.0C-80.0 -575.0 -28.0 -628.0 -12.0 -667.0C34.0 -695.0 58.0 -599.0 -109.0 -537.0ZM185.0 -483.0H191.0C101.0 -660.0 -37.0 -730.0 -257.0 -782.0L-249.0 -802.0C-5.0 -759.0 134.0 -685.0 234.0 -517.0C256.0 -517.0 269.0 -514.0 276.0 -507.0L216.0 -453.0ZM171.0 -113.0H128.0V-275.0H171.0ZM10.0 -112.0H-34.0V-274.0H10.0ZM221.0 -483.0H-68.0L-97.0 -513.0H221.0ZM-150.0 -301.0V-136.0H299.0V-106.0H-145.0L-193.0 -82.0V-316.0H-186.0C-169.0 -316.0 -150.0 -305.0 -150.0 -301.0ZM272.0 -106.0H281.0V-311.0H286.0C301.0 -311.0 323.0 -300.0 324.0 -294.0V-142.0C341.0 -139.0 356.0 -132.0 362.0 -125.0L299.0 -77.0ZM305.0 -254.0H-166.0V-283.0H305.0ZM321.0 -354.0H332.0C323.0 -384.0 299.0 -445.0 288.0 -473.0L302.0 -480.0C325.0 -457.0 362.0 -416.0 381.0 -389.0C400.0 -388.0 412.0 -387.0 418.0 -382.0L355.0 -320.0ZM-217.0 -317.0 -236.0 -316.0C-235.0 -359.0 -258.0 -411.0 -281.0 -430.0C-297.0 -443.0 -306.0 -460.0 -296.0 -475.0C-284.0 -490.0 -256.0 -483.0 -242.0 -468.0C-219.0 -445.0 -202.0 -389.0 -217.0 -317.0ZM352.0 -354.0H-229.0V-384.0H352.0Z"/></g>
<g fill="green" transform="translate(400 100) scale(0.1 -0.1)"><path d="M0.0 0.0H-224.0L-215.0 -28.0H0.0ZM323.0 79.0 267.0 0.0H127.0L134.0 -28.0H396.0C409.0 -28.0 420.0 -23.0 422.0 -12.0C386.0 25.0 323.0 79.0 323.0 79.0ZM255.0 89.0 102.0 101.0V-104.0H125.0C170.0 -104.0 226.0 -87.0 226.0 -80.0V67.0C247.0 70.0 253.0 78.0 255.0 89.0ZM73.0 89.0 -76.0 101.0V-113.0H-54.0C-9.0 -113.0 46.0 -95.0 46.0 -89.0V67.0C67.0 70.0 72.0 78.0 73.0 89.0ZM55.0 -451.0C85.0 -450.0 97.0 -442.0 101.0 -429.0L-67.0 -373.0C-92.0 -460.0 -164.0 -590.0 -253.0 -668.0L-245.0 -676.0C-114.0 -629.0 -4.0 -536.0 55.0 -451.0ZM-94.0 -567.0 -101.0 -573.0C-76.0 -595.0 -44.0 -638.0 -32.0 -675.0C77.0 -727.0 148.0 -532.0 -94.0 -567.0ZM154.0 -484.0H163.0C89.0 -644.0 -48.0 -752.0 -254.0 -819.0L-248.0 -832.0C44.0 -797.0 198.0 -697.0 299.0 -534.0C323.0 -532.0 337.0 -528.0 344.0 -519.0L218.0 -419.0ZM198.0 -123.0H98.0V-287.0H198.0ZM60.0 -123.0H-38.0V-287.0H60.0ZM229.0 -484.0H-23.0L-50.0 -512.0H229.0ZM-76.0 -302.0V-150.0H289.0V-123.0H-69.0L-202.0 -72.0V-338.0H-185.0C-133.0 -338.0 -76.0 -312.0 -76.0 -302.0ZM228.0 -123.0H237.0V-322.0H261.0C302.0 -322.0 369.0 -301.0 369.0 -293.0V-166.0C386.0 -162.0 396.0 -155.0 400.0 -150.0L284.0 -64.0ZM299.0 -269.0H-117.0V-297.0H299.0ZM270.0 -355.0H280.0C275.0 -390.0 265.0 -453.0 258.0 -487.0L267.0 -493.0C306.0 -471.0 366.0 -433.0 401.0 -407.0C422.0 -406.0 431.0 -404.0 439.0 -395.0L332.0 -293.0ZM-169.0 -308.0H-182.0C-177.0 -337.0 -208.0 -372.0 -230.0 -387.0C-263.0 -403.0 -286.0 -435.0 -273.0 -474.0C-258.0 -517.0 -201.0 -527.0 -175.0 -506.0C-138.0 -476.0 -129.0 -404.0 -169.0 -308.0ZM324.0 -355.0H-186.0V-383.0H324.0Z"/></g>
<g fill="green" transform="translate(500 100) scale(0.1 -0.1)"><path d="M0.0 0.0H-214.0L-205.0 -30.0H0.0ZM317.0 37.0 288.0 0.0H126.0L134.0 -30.0H350.0C363.0 -30.0 371.0 -25.0 374.0 -14.0C353.0 9.0 317.0 37.0 317.0 37.0ZM194.0 84.0 118.0 94.0V-96.0H127.0C142.0 -96.0 160.0 -85.0 160.0 -78.0V60.0C182.0 62.0 192.0 71.0 194.0 84.0ZM59.0 83.0 -17.0 93.0V-97.0H-8.0C7.0 -97.0 24.0 -86.0 24.0 -79.0V59.0C47.0 61.0 57.0 70.0 59.0 83.0ZM37.0 -444.0C63.0 -443.0 73.0 -438.0 76.0 -428.0L-3.0 -405.0C-36.0 -485.0 -111.0 -593.0 -192.0 -656.0L-178.0 -668.0C-85.0 -613.0 -6.0 -519.0 37.0 -444.0ZM-81.0 -556.0 -92.0 -566.0C-50.0 -593.0 2.0 -646.0 19.0 -685.0C70.0 -715.0 96.0 -610.0 -81.0 -556.0ZM195.0 -497.0H201.0C123.0 -660.0 4.0 -752.0 -177.0 -821.0L-166.0 -838.0C37.0 -776.0 159.0 -683.0 247.0 -532.0C269.0 -531.0 282.0 -528.0 291.0 -521.0L227.0 -465.0ZM174.0 -128.0H132.0V-304.0H174.0ZM37.0 -128.0H-4.0V-304.0H37.0ZM225.0 -497.0H-32.0L-61.0 -527.0H225.0ZM-100.0 -342.0V-158.0H285.0V-128.0H-95.0L-142.0 -103.0V-356.0H-135.0C-117.0 -356.0 -100.0 -346.0 -100.0 -342.0ZM261.0 -128.0H270.0V-351.0H277.0C291.0 -351.0 311.0 -340.0 312.0 -334.0V-164.0C330.0 -161.0 347.0 -154.0 353.0 -147.0L289.0 -98.0ZM284.0 -290.0H-121.0V-321.0H284.0ZM292.0 -384.0H298.0C290.0 -410.0 270.0 -465.0 260.0 -491.0L276.0 -498.0C296.0 -480.0 330.0 -443.0 346.0 -421.0C365.0 -420.0 377.0 -418.0 385.0 -411.0L327.0 -349.0ZM-137.0 -345.0 -156.0 -344.0C-156.0 -386.0 -182.0 -434.0 -206.0 -450.0C-222.0 -462.0 -230.0 -481.0 -221.0 -494.0C-211.0 -510.0 -184.0 -503.0 -168.0 -489.0C-144.0 -466.0 -123.0 -416.0 -137.0 -345.0ZM328.0 -384.0H-149.0V-414.0H328.0Z"/></g>
<g fill="green" transform="translate(600 100) scale(0.1 -0.1)"><path d="M0.0 0.0H-182.0L-173.0 -28.0H0.0ZM333.0 71.0 282.0 0.0H180.0L189.0 -28.0H397.0C412.0 -28.0 422.0 -23.0 424.0 -12.0C391.0 22.0 333.0 71.0 333.0 71.0ZM292.0 86.0 138.0 100.0V-113.0H160.0C207.0 -113.0 264.0 -94.0 264.0 -87.0V64.0C285.0 67.0 291.0 75.0 292.0 86.0ZM121.0 86.0 -33.0 100.0V-117.0H-11.0C35.0 -117.0 91.0 -100.0 91.0 -92.0V64.0C112.0 67.0 119.0 75.0 121.0 86.0ZM111.0 -460.0C141.0 -458.0 152.0 -451.0 156.0 -438.0L-6.0 -398.0C-30.0 -489.0 -95.0 -617.0 -177.0 -698.0L-169.0 -706.0C-44.0 -651.0 57.0 -551.0 111.0 -460.0ZM-35.0 -570.0 -42.0 -576.0C-12.0 -600.0 15.0 -644.0 17.0 -686.0C126.0 -756.0 219.0 -548.0 -35.0 -570.0ZM190.0 -491.0H198.0C141.0 -657.0 36.0 -774.0 -132.0 -852.0L-125.0 -865.0C122.0 -815.0 245.0 -702.0 325.0 -540.0C349.0 -538.0 364.0 -533.0 371.0 -523.0L249.0 -428.0ZM227.0 -145.0H142.0V-315.0H227.0ZM100.0 -145.0H15.0V-315.0H100.0ZM221.0 -491.0H18.0L-9.0 -519.0H221.0ZM-25.0 -337.0V-163.0H309.0V-134.0H-19.0L-133.0 -89.0V-370.0H-117.0C-74.0 -370.0 -25.0 -346.0 -25.0 -337.0ZM259.0 -134.0H268.0V-348.0H286.0C321.0 -348.0 375.0 -329.0 376.0 -322.0V-176.0C392.0 -173.0 404.0 -165.0 410.0 -158.0L308.0 -83.0ZM327.0 -304.0H-84.0V-332.0H327.0ZM283.0 -382.0H287.0C285.0 -411.0 281.0 -466.0 278.0 -497.0L288.0 -503.0C324.0 -487.0 378.0 -456.0 410.0 -436.0C430.0 -434.0 440.0 -432.0 448.0 -424.0L346.0 -319.0ZM-88.0 -306.0H-102.0C-97.0 -339.0 -126.0 -377.0 -150.0 -391.0C-182.0 -407.0 -203.0 -435.0 -193.0 -472.0C-180.0 -511.0 -131.0 -520.0 -102.0 -502.0C-63.0 -477.0 -45.0 -404.0 -88.0 -306.0ZM375.0 -382.0H-99.0V-410.0H375.0Z"/></g>
<g fill="red" transform="translate(100 200) scale(0.1 -0.1)"><path d="M0.0 0.0H-247.0L-238.0 -30.0H0.0ZM363.0 36.0 333.0 0.0H161.0L169.0 -30.0H394.0C408.0 -30.0 416.0 -25.0 419.0 -14.0C397.0 9.0 363.0 36.0 363.0 36.0ZM211.0 90.0 136.0 99.0V-88.0H145.0C160.0 -88.0 177.0 -77.0 177.0 -70.0V66.0C199.0 68.0 209.0 77.0 211.0 90.0ZM42.0 89.0 -33.0 98.0V-89.0H-24.0C-9.0 -89.0 8.0 -78.0 8.0 -71.0V65.0C30.0 67.0 40.0 76.0 42.0 89.0ZM6.0 -441.0C31.0 -441.0 41.0 -435.0 45.0 -425.0L-32.0 -400.0C-72.0 -483.0 -165.0 -596.0 -261.0 -660.0L-248.0 -674.0C-140.0 -616.0 -48.0 -520.0 6.0 -441.0ZM-111.0 -546.0 -122.0 -556.0C-81.0 -584.0 -28.0 -638.0 -12.0 -678.0C35.0 -706.0 59.0 -609.0 -111.0 -546.0ZM188.0 -491.0H194.0C103.0 -671.0 -37.0 -742.0 -261.0 -795.0L-252.0 -815.0C-5.0 -771.0 136.0 -696.0 238.0 -526.0C260.0 -525.0 273.0 -522.0 281.0 -515.0L220.0 -460.0ZM174.0 -115.0H130.0V-280.0H174.0ZM10.0 -114.0H-34.0V-279.0H10.0ZM225.0 -491.0H-69.0L-98.0 -521.0H225.0ZM-152.0 -306.0V-138.0H304.0V-108.0H-147.0L-196.0 -83.0V-321.0H-189.0C-171.0 -321.0 -152.0 -310.0 -152.0 -306.0ZM276.0 -108.0H285.0V-316.0H291.0C306.0 -316.0 328.0 -305.0 329.0 -299.0V-144.0C346.0 -141.0 362.0 -134.0 368.0 -127.0L304.0 -78.0ZM310.0 -258.0H-168.0V-288.0H310.0ZM326.0 -360.0H337.0C328.0 -390.0 304.0 -452.0 292.0 -481.0L307.0 -488.0C330.0 -465.0 368.0 -423.0 387.0 -396.0C406.0 -395.0 418.0 -394.0 425.0 -388.0L361.0 -325.0ZM-220.0 -322.0 -239.0 -321.0C-238.0 -365.0 -262.0 -418.0 -285.0 -437.0C-301.0 -450.0 -310.0 -468.0 -300.0 -483.0C-288.0 -498.0 -260.0 -491.0 -245.0 -476.0C-222.0 -452.0 -205.0 -396.0 -220.0 -322.0ZM358.0 -360.0H-232.0V-390.0H358.0Z"/></g>
<g fill="black" opacity=".8" transform="translate(100 200) scale(0.1 -0.1)"><path d="M0.0 0.0H-247.0L-238.0 -30.0H0.0ZM363.0 36.0 333.0 0.0H161.0L169.0 -30.0H394.0C408.0 -30.0 416.0 -25.0 419.0 -14.0C397.0 9.0 363.0 36.0 363.0 36.0ZM211.0 90.0 136.0 99.0V-88.0H145.0C160.0 -88.0 177.0 -77.0 177.0 -70.0V66.0C199.0 68.0 209.0 77.0 211.0 90.0ZM42.0 89.0 -33.0 98.0V-89.0H-24.0C-9.0 -89.0 8.0 -78.0 8.0 -71.0V65.0C30.0 67.0 40.0 76.0 42.0 89.0ZM6.0 -441.0C31.0 -441.0 41.0 -435.0 45.0 -425.0L-32.0 -400.0C-72.0 -483.0 -165.0 -596.0 -261.0 -660.0L-248.0 -674.0C-140.0 -616.0 -48.0 -520.0 6.0 -441.0ZM-111.0 -546.0 -122.0 -556.0C-81.0 -584.0 -28.0 -638.0 -12.0 -678.0C35.0 -706.0 59.0 -609.0 -111.0 -546.0ZM188.0 -491.0H194.0C103.0 -671.0 -37.0 -742.0 -261.0 -795.0L-252.0 -815.0C-5.0 -771.0 136.0 -696.0 238.0 -526.0C260.0 -525.0 273.0 -522.0 281.0 -515.0L220.0 -460.0ZM174.0 -115.0H130.0V-280.0H174.0ZM10.0 -114.0H-34.0V-279.0H10.0ZM225.0 -491.0H-69.0L-98.0 -521.0H225.0ZM-152.0 -306.0V-138.0H304.0V-108.0H-147.0L-196.0 -83.0V-321.0H-189.0C-171.0 -321.0 -152.0 -310.0 -152.0 -306.0ZM276.0 -108.0H285.0V-316.0H291.0C306.0 -316.0 328.0 -305.0 329.0 -299.0V-144.0C346.0 -141.0 362.0 -134.0 368.0 -127.0L304.0 -78.0ZM310.0 -258.0H-168.0V-288.0H310.0ZM326.0 -360.0H337.0C328.0 -390.0 304.0 -452.0 292.0 -481.0L307.0 -488.0C330.0 -465.0 368.0 -423.0 387.0 -396.0C406.0 -395.0 418.0 -394.0 425.0 -388.0L361.0 -325.0ZM-220.0 -322.0 -239.0 -321.0C-238.0 -365.0 -262.0 -418.0 -285.0 -437.0C-301.0 -450.0 -310.0 -468.0 -300.0 -483.0C-288.0 -498.0 -260.0 -491.0 -245.0 -476.0C-222.0 -452.0 -205.0 -396.0 -220.0 -322.0ZM358.0 -360.0H-232.0V-390.0H358.0Z"/></g>
<g fill="red" transform="translate(200 200) scale(0.1 -0.1)"><path d="M0.0 0.0H-227.0L-218.0 -28.0H0.0ZM328.0 80.0 271.0 0.0H129.0L137.0 -28.0H402.0C416.0 -28.0 427.0 -23.0 429.0 -12.0C392.0 25.0 328.0 80.0 328.0 80.0ZM259.0 90.0 104.0 103.0V-106.0H127.0C173.0 -106.0 230.0 -88.0 230.0 -81.0V68.0C251.0 71.0 257.0 79.0 259.0 90.0ZM75.0 90.0 -77.0 103.0V-115.0H-55.0C-9.0 -115.0 47.0 -97.0 47.0 -90.0V68.0C68.0 71.0 74.0 79.0 75.0 90.0ZM56.0 -458.0C87.0 -457.0 99.0 -449.0 103.0 -436.0L-68.0 -379.0C-93.0 -468.0 -166.0 -600.0 -256.0 -679.0L-248.0 -687.0C-115.0 -639.0 -4.0 -545.0 56.0 -458.0ZM-95.0 -576.0 -102.0 -582.0C-77.0 -605.0 -44.0 -648.0 -32.0 -686.0C79.0 -739.0 151.0 -541.0 -95.0 -576.0ZM157.0 -492.0H166.0C91.0 -655.0 -48.0 -764.0 -257.0 -833.0L-251.0 -846.0C45.0 -810.0 202.0 -708.0 304.0 -543.0C328.0 -541.0 343.0 -537.0 350.0 -527.0L222.0 -426.0ZM201.0 -125.0H100.0V-292.0H201.0ZM61.0 -125.0H-38.0V-292.0H61.0ZM233.0 -492.0H-23.0L-50.0 -520.0H233.0ZM-77.0 -307.0V-153.0H294.0V-125.0H-70.0L-205.0 -73.0V-344.0H-187.0C-135.0 -344.0 -77.0 -317.0 -77.0 -307.0ZM232.0 -125.0H241.0V-327.0H265.0C307.0 -327.0 375.0 -306.0 375.0 -298.0V-169.0C392.0 -165.0 402.0 -158.0 407.0 -152.0L289.0 -65.0ZM304.0 -274.0H-119.0V-302.0H304.0ZM274.0 -361.0H285.0C280.0 -396.0 269.0 -460.0 262.0 -495.0L271.0 -501.0C311.0 -479.0 372.0 -440.0 408.0 -414.0C429.0 -413.0 438.0 -411.0 446.0 -402.0L337.0 -298.0ZM-171.0 -313.0H-184.0C-179.0 -342.0 -211.0 -378.0 -233.0 -393.0C-267.0 -410.0 -290.0 -442.0 -277.0 -482.0C-262.0 -525.0 -204.0 -535.0 -177.0 -514.0C-140.0 -484.0 -130.0 -411.0 -171.0 -313.0ZM330.0 -361.0H-188.0V-389.0H330.0Z"/></g>
<g fill="black" opacity=".8" transform="translate(200 200) scale(0.1 -0.1)"><path d="M0.0 0.0H-227.0L-218.0 -28.0H0.0ZM328.0 80.0 271.0 0.0H129.0L137.0 -28.0H402.0C416.0 -28.0 427.0 -23.0 429.0 -12.0C392.0 25.0 328.0 80.0 328.0 80.0ZM259.0 90.0 104.0 103.0V-106.0H127.0C173.0 -106.0 230.0 -88.0 230.0 -81.0V68.0C251.0 71.0 257.0 79.0 259.0 90.0ZM75.0 90.0 -77.0 103.0V-115.0H-55.0C-9.0 -115.0 47.0 -97.0 47.0 -90.0V68.0C68.0 71.0 74.0 79.0 75.0 90.0ZM56.0 -458.0C87.0 -457.0 99.0 -449.0 103.0 -436.0L-68.0 -379.0C-93.0 -468.0 -166.0 -600.0 -256.0 -679.0L-248.0 -687.0C-115.0 -639.0 -4.0 -545.0 56.0 -458.0ZM-95.0 -576.0 -102.0 -582.0C-77.0 -605.0 -44.0 -648.0 -32.0 -686.0C79.0 -739.0 151.0 -541.0 -95.0 -576.0ZM157.0 -492.0H166.0C91.0 -655.0 -48.0 -764.0 -257.0 -833.0L-251.0 -846.0C45.0 -810.0 202.0 -708.0 304.0 -543.0C328.0 -541.0 343.0 -537.0 350.0 -527.0L222.0 -426.0ZM201.0 -125.0H100.0V-292.0H201.0ZM61.0 -125.0H-38.0V-292.0H61.0ZM233.0 -492.0H-23.0L-50.0 -520.0H233.0ZM-77.0 -307.0V-153.0H294.0V-125.0H-70.0L-205.0 -73.0V-344.0H-187.0C-135.0 -344.0 -77.0 -317.0 -77.0 -307.0ZM232.0 -125.0H241.0V-327.0H265.0C307.0 -327.0 375.0 -306.0 375.0 -298.0V-169.0C392.0 -165.0 402.0 -158.0 407.0 -152.0L289.0 -65.0ZM304.0 -274.0H-119.0V-302.0H304.0ZM274.0 -361.0H285.0C280.0 -396.0 269.0 -460.0 262.0 -495.0L271.0 -501.0C311.0 -479.0 372.0 -440.0 408.0 -414.0C429.0 -413.0 438.0 -411.0 446.0 -402.0L337.0 -298.0ZM-171.0 -313.0H-184.0C-179.0 -342.0 -211.0 -378.0 -233.0 -393.0C-267.0 -410.0 -290.0 -442.0 -277.0 -482.0C-262.0 -525.0 -204.0 -535.0 -177.0 -514.0C-140.0 -484.0 -130.0 -411.0 -171.0 -313.0ZM330.0 -361.0H-188.0V-389.0H330.0Z"/></g>
<g fill="red" transform="translate(300 200) scale(0.1 -0.1)"><path d="M0.0 0.0H-210.0L-201.0 -30.0H0.0ZM312.0 36.0 283.0 0.0H124.0L132.0 -30.0H344.0C357.0 -30.0 365.0 -25.0 368.0 -14.0C347.0 9.0 312.0 36.0 312.0 36.0ZM191.0 83.0 116.0 92.0V-95.0H125.0C140.0 -95.0 157.0 -84.0 157.0 -77.0V59.0C179.0 61.0 189.0 70.0 191.0 83.0ZM58.0 82.0 -17.0 91.0V-96.0H-8.0C7.0 -96.0 24.0 -85.0 24.0 -78.0V58.0C46.0 60.0 56.0 69.0 58.0 82.0ZM37.0 -437.0C62.0 -436.0 72.0 -431.0 75.0 -421.0L-3.0 -399.0C-35.0 -477.0 -109.0 -583.0 -188.0 -645.0L-175.0 -657.0C-83.0 -603.0 -6.0 -511.0 37.0 -437.0ZM-79.0 -547.0 -90.0 -557.0C-49.0 -584.0 2.0 -636.0 19.0 -674.0C69.0 -704.0 95.0 -600.0 -79.0 -547.0ZM192.0 -489.0H198.0C121.0 -649.0 4.0 -740.0 -173.0 -808.0L-163.0 -825.0C37.0 -764.0 157.0 -672.0 243.0 -523.0C265.0 -523.0 278.0 -520.0 286.0 -513.0L223.0 -458.0ZM171.0 -126.0H130.0V-299.0H171.0ZM37.0 -126.0H-4.0V-299.0H37.0ZM221.0 -489.0H-31.0L-60.0 -519.0H221.0ZM-98.0 -337.0V-156.0H280.0V-126.0H-93.0L-139.0 -102.0V-351.0H-132.0C-115.0 -351.0 -98.0 -341.0 -98.0 -337.0ZM257.0 -126.0H266.0V-346.0H272.0C286.0 -346.0 306.0 -335.0 307.0 -329.0V-162.0C325.0 -159.0 341.0 -152.0 347.0 -145.0L284.0 -97.0ZM279.0 -286.0H-119.0V-316.0H279.0ZM287.0 -378.0H293.0C285.0 -404.0 265.0 -458.0 256.0 -483.0L271.0 -490.0C291.0 -472.0 324.0 -436.0 340.0 -414.0C359.0 -413.0 371.0 -411.0 378.0 -405.0L321.0 -344.0ZM-134.0 -340.0 -153.0 -339.0C-153.0 -380.0 -178.0 -427.0 -202.0 -443.0C-218.0 -455.0 -226.0 -473.0 -217.0 -486.0C-207.0 -502.0 -180.0 -495.0 -165.0 -481.0C-141.0 -459.0 -120.0 -409.0 -134.0 -340.0ZM322.0 -378.0H-146.0V-408.0H322.0Z"/></g>
<g fill="black" opacity=".8" transform="translate(300 200) scale(0.1 -0.1)"><path d="M0.0 0.0H-210.0L-201.0 -30.0H0.0ZM312.0 36.0 283.0 0.0H124.0L132.0 -30.0H344.0C357.0 -30.0 365.0 -25.0 368.0 -14.0C347.0 9.0 312.0 36.0 312.0 36.0ZM191.0 83.0 116.0 92.0V-95.0H125.0C140.0 -95.0 157.0 -84.0 157.0 -77.0V59.0C179.0 61.0 189.0 70.0 191.0 83.0ZM58.0 82.0 -17.0 91.0V-96.0H-8.0C7.0 -96.0 24.0 -85.0 24.0 -78.0V58.0C46.0 60.0 56.0 69.0 58.0 82.0ZM37.0 -437.0C62.0 -436.0 72.0 -431.0 75.0 -421.0L-3.0 -399.0C-35.0 -477.0 -109.0 -583.0 -188.0 -645.0L-175.0 -657.0C-83.0 -603.0 -6.0 -511.0 37.0 -437.0ZM-79.0 -547.0 -90.0 -557.0C-49.0 -584.0 2.0 -636.0 19.0 -674.0C69.0 -704.0 95.0 -600.0 -79.0 -547.0ZM192.0 -489.0H198.0C121.0 -649.0 4.0 -740.0 -173.0 -808.0L-163.0 -825.0C37.0 -764.0 157.0 -672.0 243.0 -523.0C265.0 -523.0 278.0 -520.0 286.0 -513.0L223.0 -458.0ZM171.0 -126.0H130.0V-299.0H171.0ZM37.0 -126.0H-4.0V-299.0H37.0ZM221.0 -489.0H-31.0L-60.0 -519.0H221.0ZM-98.0 -337.0V-156.0H280.0V-126.0H-93.0L-139.0 -102.0V-351.0H-132.0C-115.0 -351.0 -98.0 -341.0 -98.0 -337.0ZM257.0 -126.0H266.0V-346.0H272.0C286.0 -346.0 306.0 -335.0 307.0 -329.0V-162.0C325.0 -159.0 341.0 -152.0 347.0 -145.0L284.0 -97.0ZM279.0 -286.0H-119.0V-316.0H279.0ZM287.0 -378.0H293.0C285.0 -404.0 265.0 -458.0 256.0 -483.0L271.0 -490.0C291.0 -472.0 324.0 -436.0 340.0 -414.0C359.0 -413.0 371.0 -411.0 378.0 -405.0L321.0 -344.0ZM-134.0 -340.0 -153.0 -339.0C-153.0 -380.0 -178.0 -427.0 -202.0 -443.0C-218.0 -455.0 -226.0 -473.0 -217.0 -486.0C-207.0 -502.0 -180.0 -495.0 -165.0 -481.0C-141.0 -459.0 -120.0 -409.0 -134.0 -340.0ZM322.0 -378.0H-146.0V-408.0H322.0Z"/></g>
<g fill="red" transform="translate(400 200) scale(0.1 -0.1)"><path d="M0.0 0.0H-179.0L-170.0 -28.0H0.0ZM328.0 70.0 278.0 0.0H178.0L186.0 -28.0H391.0C405.0 -28.0 415.0 -23.0 417.0 -12.0C385.0 22.0 328.0 70.0 328.0 70.0ZM288.0 85.0 136.0 98.0V-111.0H158.0C204.0 -111.0 260.0 -93.0 260.0 -86.0V63.0C281.0 66.0 287.0 74.0 288.0 85.0ZM119.0 85.0 -32.0 98.0V-115.0H-10.0C35.0 -115.0 90.0 -98.0 90.0 -91.0V63.0C111.0 66.0 117.0 74.0 119.0 85.0ZM110.0 -453.0C139.0 -451.0 150.0 -444.0 154.0 -431.0L-5.0 -392.0C-29.0 -481.0 -93.0 -607.0 -174.0 -687.0L-166.0 -695.0C-43.0 -641.0 57.0 -542.0 110.0 -453.0ZM-34.0 -561.0 -41.0 -567.0C-11.0 -590.0 15.0 -634.0 17.0 -675.0C124.0 -744.0 216.0 -539.0 -34.0 -561.0ZM187.0 -483.0H195.0C139.0 -646.0 36.0 -762.0 -129.0 -838.0L-122.0 -851.0C121.0 -802.0 241.0 -691.0 320.0 -531.0C344.0 -529.0 358.0 -524.0 365.0 -515.0L245.0 -421.0ZM224.0 -143.0H140.0V-310.0H224.0ZM99.0 -143.0H15.0V-310.0H99.0ZM217.0 -483.0H18.0L-9.0 -511.0H217.0ZM-24.0 -332.0V-160.0H304.0V-132.0H-18.0L-130.0 -88.0V-364.0H-115.0C-72.0 -364.0 -24.0 -341.0 -24.0 -332.0ZM255.0 -132.0H264.0V-343.0H282.0C316.0 -343.0 369.0 -324.0 370.0 -317.0V-173.0C386.0 -170.0 398.0 -162.0 403.0 -156.0L303.0 -82.0ZM322.0 -299.0H-82.0V-327.0H322.0ZM279.0 -376.0H282.0C280.0 -405.0 277.0 -459.0 274.0 -489.0L284.0 -495.0C319.0 -479.0 372.0 -449.0 403.0 -429.0C423.0 -427.0 433.0 -425.0 441.0 -417.0L341.0 -314.0ZM-86.0 -301.0H-100.0C-95.0 -334.0 -123.0 -371.0 -147.0 -385.0C-178.0 -400.0 -199.0 -428.0 -189.0 -464.0C-176.0 -503.0 -128.0 -512.0 -100.0 -494.0C-61.0 -469.0 -44.0 -397.0 -86.0 -301.0ZM369.0 -376.0H-97.0V-404.0H369.0Z"/></g>
<g fill="black" opacity=".8" transform="translate(400 200) scale(0.1 -0.1)"><path d="M0.0 0.0H-179.0L-170.0 -28.0H0.0ZM328.0 70.0 278.0 0.0H178.0L186.0 -28.0H391.0C405.0 -28.0 415.0 -23.0 417.0 -12.0C385.0 22.0 328.0 70.0 328.0 70.0ZM288.0 85.0 136.0 98.0V-111.0H158.0C204.0 -111.0 260.0 -93.0 260.0 -86.0V63.0C281.0 66.0 287.0 74.0 288.0 85.0ZM119.0 85.0 -32.0 98.0V-115.0H-10.0C35.0 -115.0 90.0 -98.0 90.0 -91.0V63.0C111.0 66.0 117.0 74.0 119.0 85.0ZM110.0 -453.0C139.0 -451.0 150.0 -444.0 154.0 -431.0L-5.0 -392.0C-29.0 -481.0 -93.0 -607.0 -174.0 -687.0L-166.0 -695.0C-43.0 -641.0 57.0 -542.0 110.0 -453.0ZM-34.0 -561.0 -41.0 -567.0C-11.0 -590.0 15.0 -634.0 17.0 -675.0C124.0 -744.0 216.0 -539.0 -34.0 -561.0ZM187.0 -483.0H195.0C139.0 -646.0 36.0 -762.0 -129.0 -838.0L-122.0 -851.0C121.0 -802.0 241.0 -691.0 320.0 -531.0C344.0 -529.0 358.0 -524.0 365.0 -515.0L245.0 -421.0ZM224.0 -143.0H140.0V-310.0H224.0ZM99.0 -143.0H15.0V-310.0H99.0ZM217.0 -483.0H18.0L-9.0 -511.0H217.0ZM-24.0 -332.0V-160.0H304.0V-132.0H-18.0L-130.0 -88.0V-364.0H-115.0C-72.0 -364.0 -24.0 -341.0 -24.0 -332.0ZM255.0 -132.0H264.0V-343.0H282.0C316.0 -343.0 369.0 -324.0 370.0 -317.0V-173.0C386.0 -170.0 398.0 -162.0 403.0 -156.0L303.0 -82.0ZM322.0 -299.0H-82.0V-327.0H322.0ZM279.0 -376.0H282.0C280.0 -405.0 277.0 -459.0 274.0 -489.0L284.0 -495.0C319.0 -479.0 372.0 -449.0 403.0 -429.0C423.0 -427.0 433.0 -425.0 441.0 -417.0L341.0 -314.0ZM-86.0 -301.0H-100.0C-95.0 -334.0 -123.0 -371.0 -147.0 -385.0C-178.0 -400.0 -199.0 -428.0 -189.0 -464.0C-176.0 -503.0 -128.0 -512.0 -100.0 -494.0C-61.0 -469.0 -44.0 -397.0 -86.0 -301.0ZM369.0 -376.0H-97.0V-404.0H369.0Z"/></g>
</svg>
