<?xml version="1.0" encoding="UTF-8"?>
<svg width="1700" height="300" xmlns="http://www.w3.org/2000/svg">
<rect width="100%" height="100%" fill="white"/>
<g fill="green" transform="translate(100 100) scale(0.1 -0.1)"><path d="M0.0 0.0 -73.0 16.0C-91.0 -63.0 -140.0 -218.0 -168.0 -288.0L-147.0 -264.0C-159.0 -267.0 -175.0 -275.0 -185.0 -282.0L-142.0 -317.0L-121.0 -300.0H-128.0C-99.0 -220.0 -51.0 -79.0 -34.0 -6.0L-47.0 -21.0C-16.0 -25.0 -3.0 -13.0 0.0 0.0ZM99.0 -271.0H109.0C71.0 -571.0 -34.0 -781.0 -330.0 -873.0L-322.0 -889.0C5.0 -803.0 108.0 -592.0 155.0 -306.0C176.0 -304.0 187.0 -302.0 195.0 -293.0L133.0 -237.0ZM121.0 -483.0 102.0 -493.0C159.0 -697.0 285.0 -822.0 488.0 -888.0C496.0 -866.0 513.0 -852.0 534.0 -850.0L536.0 -841.0C324.0 -788.0 180.0 -671.0 121.0 -483.0ZM440.0 -425.0 397.0 -479.0H-329.0L-320.0 -509.0H497.0C510.0 -509.0 520.0 -504.0 522.0 -493.0C491.0 -463.0 440.0 -425.0 440.0 -425.0ZM153.0 -271.0H-155.0V-301.0H153.0Z"/></g>
<g fill="green" transform="translate(200 100) scale(0.1 -0.1)"><path d="M0.0 0.0 -176.0 44.0C-190.0 -24.0 -243.0 -199.0 -276.0 -273.0L-237.0 -236.0C-256.0 -243.0 -281.0 -262.0 -295.0 -276.0L-166.0 -345.0L-129.0 -302.0H-135.0C-108.0 -228.0 -56.0 -65.0 -36.0 0.0L-48.0 -22.0C-18.0 -25.0 -4.0 -13.0 0.0 0.0ZM-38.0 -274.0H-24.0C-53.0 -563.0 -169.0 -780.0 -441.0 -889.0L-436.0 -899.0C-46.0 -826.0 84.0 -614.0 135.0 -333.0C159.0 -329.0 169.0 -325.0 176.0 -312.0L42.0 -194.0ZM84.0 -460.0 74.0 -465.0C114.0 -722.0 206.0 -817.0 368.0 -896.0C388.0 -816.0 433.0 -764.0 498.0 -747.0L499.0 -735.0C318.0 -704.0 145.0 -654.0 84.0 -460.0ZM361.0 -372.0 290.0 -471.0H-432.0L-424.0 -499.0H459.0C473.0 -499.0 485.0 -494.0 487.0 -483.0C441.0 -439.0 361.0 -372.0 361.0 -372.0ZM80.0 -274.0H-204.0V-302.0H80.0Z"/></g>
<g fill="green" transform="translate(300 100) scale(0.1 -0.1)"><path d="M0.0 0.0 -73.0 16.0C-91.0 -63.0 -140.0 -218.0 -168.0 -288.0L-147.0 -264.0C-159.0 -267.0 -175.0 -275.0 -185.0 -282.0L-142.0 -317.0L-121.0 -300.0H-128.0C-99.0 -220.0 -51.0 -79.0 -34.0 -6.0L-47.0 -21.0C-16.0 -25.0 -3.0 -13.0 0.0 0.0ZM99.0 -271.0H109.0C71.0 -571.0 -34.0 -781.0 -330.0 -873.0L-322.0 -889.0C5.0 -803.0 108.0 -592.0 155.0 -306.0C176.0 -304.0 187.0 -302.0 195.0 -293.0L133.0 -237.0ZM121.0 -483.0 102.0 -493.0C159.0 -697.0 285.0 -822.0 488.0 -888.0C496.0 -866.0 513.0 -852.0 534.0 -850.0L536.0 -841.0C324.0 -788.0 180.0 -671.0 121.0 -483.0ZM440.0 -425.0 397.0 -479.0H-329.0L-320.0 -509.0H497.0C510.0 -509.0 520.0 -504.0 522.0 -493.0C491.0 -463.0 440.0 -425.0 440.0 -425.0ZM153.0 -271.0H-155.0V-301.0H153.0Z"/></g>
<g fill="green" transform="translate(400 100) scale(0.1 -0.1)"><path d="M0.0 0.0 -176.0 44.0C-190.0 -24.0 -243.0 -199.0 -276.0 -273.0L-237.0 -236.0C-256.0 -243.0 -281.0 -262.0 -295.0 -276.0L-166.0 -345.0L-129.0 -302.0H-135.0C-108.0 -228.0 -56.0 -65.0 -36.0 0.0L-48.0 -22.0C-18.0 -25.0 -4.0 -13.0 0.0 0.0ZM-38.0 -274.0H-24.0C-53.0 -563.0 -169.0 -780.0 -441.0 -889.0L-436.0 -899.0C-46.0 -826.0 84.0 -614.0 135.0 -333.0C159.0 -329.0 169.0 -325.0 176.0 -312.0L42.0 -194.0ZM84.0 -460.0 74.0 -465.0C114.0 -722.0 206.0 -817.0 368.0 -896.0C388.0 -816.0 433.0 -764.0 498.0 -747.0L499.0 -735.0C318.0 -704.0 145.0 -654.0 84.0 -460.0ZM361.0 -372.0 290.0 -471.0H-432.0L-424.0 -499.0H459.0C473.0 -499.0 485.0 -494.0 487.0 -483.0C441.0 -439.0 361.0 -372.0 361.0 -372.0ZM80.0 -274.0H-204.0V-302.0H80.0Z"/></g>
<g fill="red" transform="translate(100 200) scale(0.1 -0.1)"><path d="M0.0 0.0 -73.0 16.0C-91.0 -63.0 -140.0 -218.0 -168.0 -288.0L-147.0 -264.0C-159.0 -267.0 -175.0 -275.0 -185.0 -282.0L-142.0 -317.0L-121.0 -300.0H-128.0C-99.0 -220.0 -51.0 -79.0 -34.0 -6.0L-47.0 -21.0C-16.0 -25.0 -3.0 -13.0 0.0 0.0ZM99.0 -271.0H109.0C71.0 -571.0 -34.0 -781.0 -330.0 -873.0L-322.0 -889.0C5.0 -803.0 108.0 -592.0 155.0 -306.0C176.0 -304.0 187.0 -302.0 195.0 -293.0L133.0 -237.0ZM121.0 -483.0 102.0 -493.0C159.0 -697.0 285.0 -822.0 488.0 -888.0C496.0 -866.0 513.0 -852.0 534.0 -850.0L536.0 -841.0C324.0 -788.0 180.0 -671.0 121.0 -483.0ZM440.0 -425.0 397.0 -479.0H-329.0L-320.0 -509.0H497.0C510.0 -509.0 520.0 -504.0 522.0 -493.0C491.0 -463.0 440.0 -425.0 440.0 -425.0ZM153.0 -271.0H-155.0V-301.0H153.0Z"/></g>
<g fill="black" opacity=".8" transform="translate(100 200) scale(0.1 -0.1)"><path d="M0.0 0.0 -73.0 16.0C-91.0 -63.0 -140.0 -218.0 -168.0 -288.0L-147.0 -264.0C-159.0 -267.0 -175.0 -275.0 -185.0 -282.0L-142.0 -317.0L-121.0 -300.0H-128.0C-99.0 -220.0 -51.0 -79.0 -34.0 -6.0L-47.0 -21.0C-16.0 -25.0 -3.0 -13.0 0.0 0.0ZM99.0 -271.0H109.0C71.0 -571.0 -34.0 -781.0 -330.0 -873.0L-322.0 -889.0C5.0 -803.0 108.0 -592.0 155.0 -306.0C176.0 -304.0 187.0 -302.0 195.0 -293.0L133.0 -237.0ZM121.0 -483.0 102.0 -493.0C159.0 -697.0 285.0 -822.0 488.0 -888.0C496.0 -866.0 513.0 -852.0 534.0 -850.0L536.0 -841.0C324.0 -788.0 180.0 -671.0 121.0 -483.0ZM440.0 -425.0 397.0 -479.0H-329.0L-320.0 -509.0H497.0C510.0 -509.0 520.0 -504.0 522.0 -493.0C491.0 -463.0 440.0 -425.0 440.0 -425.0ZM153.0 -271.0H-155.0V-301.0H153.0Z"/></g>
<g fill="red" transform="translate(200 200) scale(0.1 -0.1)"><path d="M0.0 0.0 -176.0 44.0C-190.0 -24.0 -243.0 -199.0 -276.0 -273.0L-237.0 -236.0C-256.0 -243.0 -281.0 -262.0 -295.0 -276.0L-166.0 -345.0L-129.0 -302.0H-135.0C-108.0 -228.0 -56.0 -65.0 -36.0 0.0L-48.0 -22.0C-18.0 -25.0 -4.0 -13.0 0.0 0.0ZM-38.0 -274.0H-24.0C-53.0 -563.0 -169.0 -780.0 -441.0 -889.0L-436.0 -899.0C-46.0 -826.0 84.0 -614.0 135.0 -333.0C159.0 -329.0 169.0 -325.0 176.0 -312.0L42.0 -194.0ZM84.0 -460.0 74.0 -465.0C114.0 -722.0 206.0 -817.0 368.0 -896.0C388.0 -816.0 433.0 -764.0 498.0 -747.0L499.0 -735.0C318.0 -704.0 145.0 -654.0 84.0 -460.0ZM361.0 -372.0 290.0 -471.0H-432.0L-424.0 -499.0H459.0C473.0 -499.0 485.0 -494.0 487.0 -483.0C441.0 -439.0 361.0 -372.0 361.0 -372.0ZM80.0 -274.0H-204.0V-302.0H80.0Z"/></g>
<g fill="black" opacity=".8" transform="translate(200 200) scale(0.1 -0.1)"><path d="M0.0 0.0 -176.0 44.0C-190.0 -24.0 -243.0 -199.0 -276.0 -273.0L-237.0 -236.0C-256.0 -243.0 -281.0 -262.0 -295.0 -276.0L-166.0 -345.0L-129.0 -302.0H-135.0C-108.0 -228.0 -56.0 -65.0 -36.0 0.0L-48.0 -22.0C-18.0 -25.0 -4.0 -13.0 0.0 0.0ZM-38.0 -274.0H-24.0C-53.0 -563.0 -169.0 -780.0 -441.0 -889.0L-436.0 -899.0C-46.0 -826.0 84.0 -614.0 135.0 -333.0C159.0 -329.0 169.0 -325.0 176.0 -312.0L42.0 -194.0ZM84.0 -460.0 74.0 -465.0C114.0 -722.0 206.0 -817.0 368.0 -896.0C388.0 -816.0 433.0 -764.0 498.0 -747.0L499.0 -735.0C318.0 -704.0 145.0 -654.0 84.0 -460.0ZM361.0 -372.0 290.0 -471.0H-432.0L-424.0 -499.0H459.0C473.0 -499.0 485.0 -494.0 487.0 -483.0C441.0 -439.0 361.0 -372.0 361.0 -372.0ZM80.0 -274.0H-204.0V-302.0H80.0Z"/></g>
</svg>
