<?xml version="1.0" encoding="UTF-8"?>
<svg width="1700" height="300" xmlns="http://www.w3.org/2000/svg">
<rect width="100%" height="100%" fill="white"/>
<g fill="green" transform="translate(100 100) scale(0.1 -0.1)"><path d="M0.0 0.0C-26.0 -99.0 -72.0 -192.0 -120.0 -251.0L-106.0 -263.0C-45.0 -214.0 10.0 -135.0 46.0 -46.0C67.0 -48.0 78.0 -39.0 82.0 -27.0L0.0 0.0ZM362.0 61.0C283.0 32.0 138.0 -8.0 23.0 -27.0L29.0 -46.0C147.0 -37.0 286.0 -15.0 377.0 2.0C398.0 -7.0 416.0 -8.0 425.0 1.0L362.0 61.0ZM309.0 -19.0 298.0 -29.0C359.0 -70.0 439.0 -143.0 463.0 -201.0C526.0 -233.0 548.0 -102.0 309.0 -19.0ZM151.0 -47.0 138.0 -53.0C164.0 -85.0 194.0 -138.0 198.0 -180.0C250.0 -223.0 301.0 -116.0 151.0 -47.0ZM-140.0 -593.0 -132.0 -622.0H493.0C507.0 -622.0 517.0 -617.0 519.0 -606.0C490.0 -578.0 443.0 -542.0 443.0 -542.0L401.0 -593.0H-140.0ZM207.0 -588.0 189.0 -594.0C217.0 -675.0 283.0 -787.0 482.0 -850.0C486.0 -822.0 502.0 -817.0 529.0 -815.0L531.0 -805.0C321.0 -748.0 239.0 -663.0 207.0 -588.0ZM149.0 -494.0C144.0 -647.0 72.0 -785.0 -140.0 -841.0L-134.0 -854.0C95.0 -804.0 182.0 -677.0 203.0 -533.0C222.0 -532.0 236.0 -528.0 239.0 -509.0L149.0 -494.0ZM-129.0 -448.0 -96.0 -519.0C-86.0 -517.0 -76.0 -511.0 -70.0 -499.0C149.0 -478.0 309.0 -461.0 426.0 -446.0L424.0 -426.0C190.0 -437.0 -31.0 -447.0 -129.0 -448.0ZM-26.0 -278.0 -35.0 -289.0C8.0 -308.0 62.0 -350.0 84.0 -383.0C143.0 -407.0 161.0 -295.0 -26.0 -278.0ZM120.0 -157.0C91.0 -216.0 57.0 -275.0 29.0 -313.0L44.0 -324.0C79.0 -295.0 121.0 -251.0 156.0 -209.0C175.0 -212.0 188.0 -205.0 193.0 -196.0L120.0 -157.0ZM292.0 -208.0C232.0 -293.0 149.0 -396.0 86.0 -464.0L122.0 -458.0C188.0 -403.0 267.0 -328.0 324.0 -262.0C348.0 -268.0 366.0 -260.0 374.0 -248.0L292.0 -208.0ZM305.0 -342.0 295.0 -353.0C351.0 -388.0 426.0 -453.0 451.0 -501.0C514.0 -532.0 533.0 -403.0 305.0 -342.0Z"/></g>
<g fill="green" transform="translate(200 100) scale(0.1 -0.1)"><path d="M0.0 0.0C-10.0 -97.0 -36.0 -199.0 -66.0 -266.0L-52.0 -275.0C17.0 -229.0 77.0 -158.0 122.0 -69.0C144.0 -70.0 156.0 -61.0 160.0 -48.0L0.0 0.0ZM390.0 74.0C323.0 42.0 188.0 -14.0 93.0 -47.0L96.0 -61.0C207.0 -58.0 351.0 -50.0 437.0 -43.0C467.0 -55.0 491.0 -57.0 505.0 -47.0L390.0 74.0ZM339.0 -42.0 330.0 -48.0C377.0 -96.0 435.0 -173.0 459.0 -239.0C571.0 -302.0 638.0 -84.0 339.0 -42.0ZM195.0 -58.0 186.0 -62.0C204.0 -96.0 218.0 -149.0 213.0 -195.0C299.0 -280.0 426.0 -113.0 195.0 -58.0ZM-72.0 -635.0 -64.0 -664.0H562.0C577.0 -664.0 586.0 -658.0 589.0 -647.0C547.0 -610.0 477.0 -558.0 477.0 -558.0L415.0 -635.0H-72.0ZM304.0 -631.0 290.0 -634.0C308.0 -724.0 366.0 -842.0 509.0 -887.0C510.0 -811.0 541.0 -782.0 604.0 -767.0V-753.0C423.0 -736.0 327.0 -691.0 304.0 -631.0ZM153.0 -516.0C162.0 -635.0 112.0 -792.0 -73.0 -877.0L-69.0 -887.0C167.0 -827.0 272.0 -700.0 295.0 -566.0C322.0 -565.0 333.0 -556.0 335.0 -539.0L153.0 -516.0ZM-56.0 -443.0 4.0 -585.0C15.0 -584.0 27.0 -577.0 34.0 -564.0C242.0 -512.0 379.0 -473.0 471.0 -442.0V-427.0C248.0 -438.0 36.0 -443.0 -56.0 -443.0ZM3.0 -260.0 -5.0 -266.0C29.0 -302.0 78.0 -359.0 101.0 -408.0C211.0 -457.0 271.0 -260.0 3.0 -260.0ZM144.0 -161.0C128.0 -222.0 108.0 -290.0 92.0 -330.0L104.0 -337.0C153.0 -314.0 207.0 -277.0 253.0 -240.0C275.0 -242.0 288.0 -234.0 293.0 -222.0L144.0 -161.0ZM332.0 -202.0C278.0 -298.0 199.0 -412.0 124.0 -492.0L148.0 -487.0C247.0 -427.0 372.0 -345.0 448.0 -271.0C475.0 -274.0 488.0 -265.0 493.0 -252.0L332.0 -202.0ZM329.0 -367.0 320.0 -374.0C370.0 -414.0 440.0 -481.0 476.0 -539.0C601.0 -582.0 640.0 -356.0 329.0 -367.0Z"/></g>
<g fill="green" transform="translate(300 100) scale(0.1 -0.1)"><path d="M0.0 0.0C-22.0 -84.0 -62.0 -162.0 -103.0 -211.0L-91.0 -221.0C-39.0 -180.0 8.0 -114.0 39.0 -39.0C56.0 -40.0 65.0 -33.0 68.0 -23.0L0.0 0.0ZM302.0 52.0C236.0 27.0 115.0 -6.0 18.0 -22.0L24.0 -38.0C122.0 -31.0 239.0 -12.0 315.0 2.0C333.0 -5.0 348.0 -6.0 355.0 1.0L302.0 52.0ZM258.0 -14.0 249.0 -23.0C301.0 -57.0 370.0 -117.0 391.0 -165.0C444.0 -190.0 461.0 -82.0 258.0 -14.0ZM126.0 -39.0 115.0 -44.0C137.0 -71.0 163.0 -115.0 167.0 -150.0C211.0 -186.0 254.0 -96.0 126.0 -39.0ZM-121.0 -493.0 -115.0 -517.0H415.0C427.0 -517.0 435.0 -513.0 437.0 -504.0C413.0 -480.0 374.0 -451.0 374.0 -451.0L338.0 -493.0H-121.0ZM187.0 -481.0 171.0 -485.0C195.0 -554.0 252.0 -650.0 424.0 -705.0C425.0 -681.0 437.0 -678.0 459.0 -677.0L461.0 -669.0C282.0 -619.0 214.0 -545.0 187.0 -481.0ZM124.0 -411.0C121.0 -539.0 56.0 -658.0 -117.0 -701.0L-112.0 -711.0C73.0 -673.0 152.0 -565.0 170.0 -443.0C186.0 -443.0 198.0 -440.0 200.0 -424.0L124.0 -411.0ZM-114.0 -372.0 -85.0 -431.0C-77.0 -429.0 -69.0 -424.0 -64.0 -415.0C122.0 -396.0 258.0 -381.0 357.0 -368.0L355.0 -352.0C157.0 -361.0 -31.0 -370.0 -114.0 -372.0ZM-21.0 -234.0 -28.0 -243.0C7.0 -258.0 52.0 -292.0 71.0 -318.0C120.0 -337.0 134.0 -245.0 -21.0 -234.0ZM98.0 -129.0C74.0 -179.0 46.0 -229.0 22.0 -262.0L35.0 -271.0C64.0 -246.0 99.0 -208.0 128.0 -173.0C144.0 -175.0 155.0 -169.0 159.0 -162.0L98.0 -129.0ZM244.0 -172.0C192.0 -244.0 126.0 -329.0 75.0 -385.0L108.0 -379.0C160.0 -333.0 222.0 -273.0 270.0 -217.0C291.0 -223.0 307.0 -215.0 314.0 -205.0L244.0 -172.0ZM256.0 -282.0 248.0 -291.0C294.0 -320.0 358.0 -375.0 379.0 -414.0C432.0 -440.0 448.0 -332.0 256.0 -282.0Z"/></g>
<g fill="green" transform="translate(400 100) scale(0.1 -0.1)"><path d="M0.0 0.0C-8.0 -81.0 -30.0 -166.0 -55.0 -221.0L-43.0 -229.0C14.0 -190.0 64.0 -131.0 101.0 -57.0C119.0 -58.0 129.0 -51.0 132.0 -40.0L0.0 0.0ZM329.0 64.0C273.0 38.0 159.0 -9.0 80.0 -37.0L83.0 -48.0C175.0 -46.0 296.0 -39.0 368.0 -34.0C393.0 -44.0 413.0 -46.0 425.0 -38.0L329.0 64.0ZM286.0 -32.0 278.0 -37.0C319.0 -78.0 369.0 -143.0 392.0 -199.0C485.0 -249.0 537.0 -67.0 286.0 -32.0ZM165.0 -47.0 158.0 -50.0C174.0 -79.0 186.0 -123.0 182.0 -162.0C255.0 -232.0 359.0 -91.0 165.0 -47.0ZM-61.0 -529.0 -55.0 -554.0H478.0C490.0 -554.0 497.0 -549.0 500.0 -539.0C465.0 -509.0 407.0 -466.0 407.0 -466.0L356.0 -529.0H-61.0ZM274.0 -520.0 260.0 -519.0C276.0 -596.0 326.0 -696.0 451.0 -735.0C449.0 -671.0 474.0 -647.0 527.0 -635.0V-623.0C373.0 -609.0 293.0 -571.0 274.0 -520.0ZM131.0 -429.0C140.0 -524.0 94.0 -660.0 -56.0 -730.0L-53.0 -738.0C134.0 -689.0 230.0 -581.0 250.0 -472.0C273.0 -471.0 282.0 -464.0 284.0 -449.0L131.0 -429.0ZM-46.0 -368.0 4.0 -486.0C13.0 -486.0 23.0 -480.0 29.0 -469.0C205.0 -425.0 322.0 -392.0 400.0 -366.0V-353.0C211.0 -363.0 32.0 -368.0 -46.0 -368.0ZM6.0 -215.0 -1.0 -220.0C27.0 -250.0 69.0 -299.0 90.0 -340.0C182.0 -379.0 230.0 -216.0 6.0 -215.0ZM123.0 -133.0C110.0 -184.0 93.0 -242.0 80.0 -276.0L90.0 -282.0C131.0 -262.0 177.0 -230.0 215.0 -198.0C233.0 -200.0 244.0 -193.0 248.0 -183.0L123.0 -133.0ZM282.0 -164.0C236.0 -247.0 172.0 -342.0 110.0 -410.0L132.0 -405.0C213.0 -353.0 317.0 -284.0 382.0 -220.0C405.0 -222.0 416.0 -214.0 420.0 -203.0L282.0 -164.0ZM275.0 -304.0 267.0 -310.0C311.0 -344.0 373.0 -400.0 407.0 -449.0C513.0 -481.0 539.0 -290.0 275.0 -304.0Z"/></g>
<g fill="green" transform="translate(500 100) scale(0.1 -0.1)"><path d="M0.0 0.0C-28.0 -97.0 -71.0 -193.0 -116.0 -253.0L-98.0 -266.0C-40.0 -217.0 15.0 -138.0 55.0 -55.0C78.0 -57.0 91.0 -46.0 95.0 -34.0L0.0 0.0ZM344.0 46.0C271.0 17.0 137.0 -19.0 28.0 -35.0L35.0 -56.0C146.0 -53.0 277.0 -39.0 363.0 -25.0C385.0 -36.0 406.0 -37.0 416.0 -27.0L344.0 46.0ZM260.0 -38.0 247.0 -49.0C307.0 -90.0 384.0 -161.0 408.0 -218.0C474.0 -254.0 503.0 -114.0 260.0 -38.0ZM127.0 -62.0 112.0 -69.0C137.0 -98.0 163.0 -147.0 167.0 -186.0C220.0 -229.0 276.0 -125.0 127.0 -62.0ZM-128.0 -627.0 -120.0 -661.0H438.0C455.0 -661.0 465.0 -656.0 468.0 -643.0C439.0 -613.0 390.0 -576.0 390.0 -576.0L349.0 -627.0H-128.0ZM-381.0 -927.0 -346.0 -987.0C-333.0 -991.0 -316.0 -995.0 -285.0 -991.0C-199.0 -951.0 -132.0 -919.0 -83.0 -898.0L-88.0 -883.0C-216.0 -904.0 -332.0 -924.0 -381.0 -927.0ZM133.0 -510.0C133.0 -652.0 102.0 -796.0 -95.0 -866.0L-82.0 -880.0C139.0 -814.0 183.0 -677.0 195.0 -549.0C216.0 -546.0 228.0 -539.0 230.0 -522.0L133.0 -510.0ZM-121.0 -490.0 -93.0 -568.0C-80.0 -565.0 -68.0 -559.0 -62.0 -544.0C129.0 -523.0 274.0 -504.0 380.0 -489.0L378.0 -467.0C168.0 -478.0 -33.0 -489.0 -121.0 -490.0ZM-37.0 -311.0 -48.0 -325.0C-2.0 -342.0 52.0 -382.0 74.0 -417.0C137.0 -442.0 157.0 -322.0 -37.0 -311.0ZM125.0 -189.0C91.0 -247.0 53.0 -302.0 21.0 -338.0L38.0 -353.0C75.0 -328.0 121.0 -288.0 159.0 -250.0C183.0 -256.0 198.0 -248.0 204.0 -238.0L125.0 -189.0ZM262.0 -263.0C197.0 -350.0 116.0 -442.0 52.0 -504.0L99.0 -495.0C161.0 -449.0 234.0 -389.0 293.0 -326.0C323.0 -333.0 345.0 -324.0 355.0 -309.0L262.0 -263.0ZM253.0 -383.0 241.0 -396.0C299.0 -430.0 374.0 -497.0 396.0 -550.0C462.0 -586.0 487.0 -445.0 253.0 -383.0Z"/></g>
<g fill="green" transform="translate(600 100) scale(0.1 -0.1)"><path d="M0.0 0.0C-10.0 -93.0 -31.0 -195.0 -55.0 -263.0L-38.0 -272.0C26.0 -226.0 86.0 -156.0 132.0 -76.0C157.0 -76.0 171.0 -66.0 175.0 -51.0L0.0 0.0ZM369.0 64.0C313.0 31.0 200.0 -22.0 117.0 -52.0L122.0 -70.0C218.0 -68.0 340.0 -58.0 413.0 -49.0C443.0 -62.0 469.0 -63.0 482.0 -53.0L369.0 64.0ZM296.0 -55.0 287.0 -63.0C335.0 -104.0 397.0 -176.0 422.0 -237.0C544.0 -295.0 606.0 -63.0 296.0 -55.0ZM178.0 -66.0 168.0 -70.0C183.0 -98.0 192.0 -145.0 184.0 -186.0C275.0 -282.0 431.0 -115.0 178.0 -66.0ZM-55.0 -645.0 -45.0 -679.0H521.0C538.0 -679.0 549.0 -672.0 553.0 -659.0C505.0 -619.0 427.0 -563.0 427.0 -563.0L359.0 -645.0H-55.0ZM-335.0 -895.0 -272.0 -1038.0C-257.0 -1045.0 -234.0 -1045.0 -201.0 -1032.0C-115.0 -976.0 -55.0 -935.0 -12.0 -908.0L-13.0 -894.0C-154.0 -900.0 -281.0 -901.0 -335.0 -895.0ZM135.0 -530.0C141.0 -645.0 121.0 -783.0 -33.0 -869.0L-24.0 -880.0C200.0 -816.0 268.0 -697.0 286.0 -580.0C313.0 -578.0 324.0 -568.0 326.0 -551.0L135.0 -530.0ZM-50.0 -450.0 15.0 -601.0C28.0 -599.0 41.0 -592.0 49.0 -576.0C238.0 -527.0 364.0 -490.0 449.0 -461.0V-443.0C240.0 -450.0 39.0 -451.0 -50.0 -450.0ZM-5.0 -287.0 -13.0 -296.0C20.0 -325.0 70.0 -377.0 93.0 -421.0C214.0 -468.0 271.0 -252.0 -5.0 -287.0ZM132.0 -185.0C119.0 -243.0 104.0 -306.0 89.0 -344.0L105.0 -352.0C150.0 -332.0 201.0 -298.0 243.0 -266.0C267.0 -268.0 282.0 -258.0 288.0 -245.0L132.0 -185.0ZM306.0 -236.0C251.0 -323.0 182.0 -417.0 119.0 -485.0L152.0 -478.0C233.0 -429.0 348.0 -373.0 423.0 -312.0C456.0 -316.0 471.0 -306.0 477.0 -291.0L306.0 -236.0ZM312.0 -380.0 300.0 -387.0C342.0 -424.0 402.0 -486.0 433.0 -541.0C556.0 -590.0 613.0 -371.0 312.0 -380.0Z"/></g>
<g fill="green" transform="translate(700 100) scale(0.1 -0.1)"><path d="M0.0 0.0C-18.0 -91.0 -54.0 -176.0 -98.0 -231.0L-82.0 -242.0C-29.0 -198.0 15.0 -124.0 41.0 -42.0C63.0 -42.0 74.0 -32.0 77.0 -20.0L0.0 0.0ZM352.0 58.0C279.0 31.0 140.0 -6.0 29.0 -23.0L36.0 -43.0C147.0 -32.0 279.0 -11.0 363.0 7.0C382.0 -1.0 400.0 -2.0 408.0 6.0L352.0 58.0ZM288.0 -21.0 276.0 -31.0C337.0 -73.0 410.0 -148.0 427.0 -211.0C487.0 -246.0 514.0 -111.0 288.0 -21.0ZM146.0 -40.0 133.0 -47.0C155.0 -79.0 176.0 -133.0 174.0 -174.0C221.0 -218.0 275.0 -117.0 146.0 -40.0ZM-93.0 -616.0 -85.0 -645.0H453.0C467.0 -645.0 479.0 -640.0 480.0 -628.0C450.0 -600.0 401.0 -563.0 401.0 -563.0L359.0 -616.0H-93.0ZM256.0 -582.0H232.0C257.0 -683.0 317.0 -808.0 514.0 -877.0C510.0 -852.0 520.0 -850.0 545.0 -850.0L548.0 -839.0C346.0 -775.0 282.0 -676.0 256.0 -582.0ZM134.0 -525.0C132.0 -685.0 98.0 -792.0 -146.0 -866.0L-136.0 -888.0C133.0 -818.0 170.0 -708.0 182.0 -560.0C204.0 -559.0 215.0 -550.0 216.0 -534.0L134.0 -525.0ZM-95.0 -467.0 -70.0 -533.0C-60.0 -532.0 -50.0 -526.0 -44.0 -514.0C152.0 -499.0 297.0 -486.0 409.0 -477.0L407.0 -456.0C195.0 -462.0 -6.0 -468.0 -95.0 -467.0ZM-37.0 -266.0 -46.0 -278.0C-3.0 -299.0 53.0 -348.0 73.0 -385.0C129.0 -412.0 151.0 -299.0 -37.0 -266.0ZM118.0 -159.0C88.0 -217.0 53.0 -274.0 25.0 -309.0L40.0 -321.0C74.0 -292.0 114.0 -250.0 149.0 -210.0C167.0 -213.0 181.0 -205.0 186.0 -196.0L118.0 -159.0ZM279.0 -210.0C227.0 -284.0 120.0 -412.0 31.0 -486.0L48.0 -493.0C149.0 -427.0 260.0 -319.0 314.0 -252.0C335.0 -256.0 344.0 -251.0 349.0 -243.0L279.0 -210.0ZM280.0 -357.0 269.0 -368.0C327.0 -404.0 399.0 -472.0 420.0 -523.0C481.0 -556.0 502.0 -425.0 280.0 -357.0Z"/></g>
<g fill="green" transform="translate(800 100) scale(0.1 -0.1)"><path d="M0.0 0.0C-10.0 -95.0 -35.0 -196.0 -65.0 -261.0L-51.0 -270.0C18.0 -226.0 80.0 -156.0 125.0 -66.0C149.0 -67.0 160.0 -57.0 164.0 -43.0L0.0 0.0ZM341.0 77.0C285.0 45.0 169.0 -10.0 87.0 -42.0L90.0 -55.0C188.0 -54.0 312.0 -47.0 389.0 -40.0C418.0 -53.0 443.0 -55.0 457.0 -45.0L341.0 77.0ZM302.0 -46.0 292.0 -52.0C333.0 -98.0 375.0 -171.0 388.0 -234.0C497.0 -310.0 591.0 -95.0 302.0 -46.0ZM170.0 -53.0 160.0 -56.0C175.0 -90.0 184.0 -141.0 178.0 -185.0C259.0 -273.0 394.0 -117.0 170.0 -53.0ZM-39.0 -661.0 -31.0 -690.0H493.0C509.0 -690.0 518.0 -684.0 521.0 -673.0C481.0 -636.0 412.0 -580.0 412.0 -580.0L352.0 -661.0H-39.0ZM321.0 -632.0 300.0 -622.0C316.0 -709.0 371.0 -847.0 498.0 -903.0C490.0 -821.0 519.0 -793.0 584.0 -778.0L585.0 -765.0C428.0 -741.0 341.0 -689.0 321.0 -632.0ZM104.0 -548.0C106.0 -686.0 83.0 -810.0 -122.0 -904.0L-116.0 -918.0C188.0 -852.0 237.0 -733.0 255.0 -589.0C280.0 -588.0 289.0 -576.0 291.0 -560.0L104.0 -548.0ZM-59.0 -469.0 0.0 -613.0C11.0 -611.0 24.0 -605.0 31.0 -592.0C216.0 -548.0 336.0 -516.0 418.0 -491.0V-476.0C217.0 -477.0 26.0 -472.0 -59.0 -469.0ZM-23.0 -281.0 -31.0 -287.0C4.0 -321.0 50.0 -377.0 71.0 -425.0C185.0 -478.0 250.0 -271.0 -23.0 -281.0ZM119.0 -168.0C103.0 -224.0 86.0 -286.0 74.0 -322.0L87.0 -330.0C130.0 -309.0 180.0 -276.0 224.0 -247.0C246.0 -250.0 260.0 -241.0 264.0 -229.0L119.0 -168.0ZM295.0 -226.0C253.0 -303.0 160.0 -429.0 83.0 -504.0L92.0 -509.0C209.0 -458.0 340.0 -366.0 405.0 -306.0C427.0 -309.0 439.0 -305.0 445.0 -293.0L295.0 -226.0ZM303.0 -396.0 293.0 -402.0C330.0 -444.0 376.0 -510.0 394.0 -567.0C504.0 -632.0 584.0 -426.0 303.0 -396.0Z"/></g>
<g fill="green" transform="translate(900 100) scale(0.1 -0.1)"><path d="M0.0 0.0C-26.0 -95.0 -72.0 -182.0 -120.0 -237.0L-106.0 -249.0C-47.0 -204.0 8.0 -130.0 43.0 -45.0C64.0 -47.0 75.0 -38.0 79.0 -26.0L0.0 0.0ZM381.0 64.0C299.0 34.0 146.0 -8.0 26.0 -26.0L32.0 -45.0C156.0 -36.0 301.0 -10.0 395.0 8.0C415.0 -1.0 432.0 -2.0 441.0 8.0L381.0 64.0ZM336.0 -26.0 325.0 -35.0C380.0 -76.0 454.0 -150.0 475.0 -207.0C535.0 -242.0 561.0 -112.0 336.0 -26.0ZM157.0 -47.0 144.0 -53.0C171.0 -87.0 200.0 -141.0 202.0 -186.0C252.0 -228.0 302.0 -123.0 157.0 -47.0ZM-171.0 -592.0 -162.0 -620.0H520.0C534.0 -620.0 543.0 -616.0 545.0 -604.0C516.0 -577.0 470.0 -540.0 470.0 -540.0L428.0 -592.0H-171.0ZM198.0 -591.0 181.0 -598.0C212.0 -669.0 286.0 -778.0 499.0 -842.0C505.0 -815.0 521.0 -810.0 548.0 -807.0L550.0 -797.0C327.0 -741.0 234.0 -657.0 198.0 -591.0ZM151.0 -491.0C138.0 -642.0 69.0 -764.0 -177.0 -829.0L-170.0 -844.0C96.0 -786.0 175.0 -670.0 201.0 -529.0C220.0 -529.0 233.0 -523.0 237.0 -506.0L151.0 -491.0ZM-129.0 -450.0 -95.0 -519.0C-85.0 -517.0 -75.0 -511.0 -69.0 -499.0C158.0 -480.0 323.0 -466.0 441.0 -453.0L439.0 -433.0C200.0 -442.0 -27.0 -450.0 -129.0 -450.0ZM-40.0 -273.0 -50.0 -282.0C-5.0 -308.0 50.0 -357.0 70.0 -397.0C126.0 -424.0 148.0 -310.0 -40.0 -273.0ZM135.0 -154.0C102.0 -216.0 62.0 -280.0 30.0 -321.0L45.0 -332.0C83.0 -301.0 131.0 -252.0 167.0 -205.0C187.0 -209.0 200.0 -203.0 206.0 -194.0L135.0 -154.0ZM302.0 -210.0C244.0 -285.0 152.0 -400.0 90.0 -474.0L116.0 -473.0C188.0 -409.0 276.0 -321.0 332.0 -263.0C351.0 -270.0 367.0 -265.0 374.0 -255.0L302.0 -210.0ZM323.0 -351.0 312.0 -362.0C366.0 -397.0 436.0 -461.0 458.0 -510.0C517.0 -541.0 539.0 -415.0 323.0 -351.0Z"/></g>
<g fill="green" transform="translate(1000 100) scale(0.1 -0.1)"><path d="M0.0 0.0C-10.0 -100.0 -40.0 -199.0 -77.0 -266.0L-64.0 -274.0C13.0 -233.0 77.0 -166.0 123.0 -73.0C145.0 -74.0 158.0 -66.0 162.0 -53.0L0.0 0.0ZM411.0 57.0C336.0 22.0 188.0 -33.0 80.0 -65.0L84.0 -80.0C207.0 -78.0 363.0 -68.0 457.0 -58.0C488.0 -70.0 511.0 -72.0 525.0 -62.0L411.0 57.0ZM329.0 -58.0 320.0 -64.0C365.0 -108.0 417.0 -179.0 437.0 -241.0C550.0 -307.0 624.0 -88.0 329.0 -58.0ZM180.0 -67.0 171.0 -72.0C190.0 -108.0 205.0 -164.0 200.0 -214.0C287.0 -299.0 414.0 -128.0 180.0 -67.0ZM-104.0 -622.0 -96.0 -651.0H560.0C576.0 -651.0 585.0 -645.0 588.0 -634.0C546.0 -596.0 474.0 -543.0 474.0 -543.0L411.0 -622.0H-104.0ZM291.0 -623.0 278.0 -627.0C296.0 -720.0 355.0 -845.0 494.0 -893.0C497.0 -812.0 530.0 -780.0 597.0 -762.0V-749.0C415.0 -731.0 315.0 -684.0 291.0 -623.0ZM152.0 -507.0C150.0 -642.0 106.0 -790.0 -99.0 -885.0L-94.0 -896.0C182.0 -830.0 268.0 -702.0 294.0 -556.0C320.0 -555.0 331.0 -547.0 333.0 -531.0L152.0 -507.0ZM-70.0 -443.0 -7.0 -578.0C4.0 -576.0 15.0 -569.0 22.0 -556.0C229.0 -500.0 366.0 -458.0 460.0 -424.0L459.0 -411.0C235.0 -428.0 22.0 -441.0 -70.0 -443.0ZM-9.0 -257.0 -17.0 -263.0C15.0 -298.0 57.0 -354.0 73.0 -403.0C180.0 -461.0 254.0 -265.0 -9.0 -257.0ZM139.0 -163.0C119.0 -223.0 96.0 -289.0 78.0 -328.0L90.0 -335.0C139.0 -314.0 194.0 -279.0 241.0 -244.0C263.0 -248.0 277.0 -240.0 282.0 -228.0L139.0 -163.0ZM315.0 -215.0C269.0 -297.0 189.0 -407.0 117.0 -478.0H134.0C234.0 -429.0 352.0 -352.0 418.0 -292.0C441.0 -296.0 454.0 -290.0 460.0 -279.0L315.0 -215.0ZM350.0 -365.0 341.0 -372.0C385.0 -410.0 443.0 -475.0 469.0 -531.0C586.0 -584.0 644.0 -367.0 350.0 -365.0Z"/></g>
<g fill="green" transform="translate(1100 100) scale(0.1 -0.1)"><path d="M0.0 0.0C-26.0 -101.0 -69.0 -202.0 -112.0 -268.0L-97.0 -278.0C-41.0 -223.0 13.0 -136.0 49.0 -47.0C70.0 -48.0 81.0 -40.0 86.0 -28.0L0.0 0.0ZM360.0 57.0C281.0 29.0 135.0 -11.0 20.0 -30.0L25.0 -48.0C144.0 -41.0 284.0 -21.0 377.0 -5.0C398.0 -14.0 416.0 -15.0 426.0 -6.0L360.0 57.0ZM322.0 -22.0 310.0 -30.0C365.0 -77.0 438.0 -158.0 456.0 -217.0C519.0 -255.0 552.0 -123.0 322.0 -22.0ZM160.0 -48.0 147.0 -54.0C171.0 -86.0 202.0 -142.0 209.0 -183.0C260.0 -226.0 311.0 -121.0 160.0 -48.0ZM-103.0 -588.0 -95.0 -616.0H482.0C495.0 -616.0 504.0 -611.0 507.0 -600.0C478.0 -573.0 432.0 -537.0 432.0 -537.0L391.0 -588.0H-103.0ZM223.0 -583.0 205.0 -588.0C230.0 -674.0 289.0 -783.0 472.0 -843.0C475.0 -814.0 493.0 -807.0 520.0 -804.0L522.0 -795.0C326.0 -742.0 252.0 -660.0 223.0 -583.0ZM169.0 -485.0C164.0 -627.0 95.0 -768.0 -114.0 -832.0L-107.0 -845.0C122.0 -788.0 206.0 -658.0 226.0 -524.0C245.0 -523.0 258.0 -518.0 262.0 -499.0L169.0 -485.0ZM-93.0 -443.0 -58.0 -516.0C-49.0 -513.0 -39.0 -507.0 -33.0 -495.0C174.0 -475.0 326.0 -458.0 433.0 -444.0L432.0 -425.0C211.0 -434.0 0.0 -442.0 -93.0 -443.0ZM-5.0 -258.0 -15.0 -269.0C33.0 -291.0 91.0 -338.0 110.0 -377.0C170.0 -404.0 189.0 -282.0 -5.0 -258.0ZM135.0 -166.0C111.0 -215.0 83.0 -264.0 59.0 -295.0L74.0 -307.0C105.0 -285.0 142.0 -252.0 173.0 -219.0C191.0 -223.0 204.0 -215.0 210.0 -207.0L135.0 -166.0ZM310.0 -210.0C254.0 -292.0 173.0 -384.0 107.0 -447.0L141.0 -441.0C208.0 -393.0 289.0 -328.0 346.0 -265.0C370.0 -269.0 385.0 -262.0 394.0 -249.0L310.0 -210.0ZM318.0 -347.0 308.0 -358.0C366.0 -392.0 441.0 -456.0 467.0 -506.0C528.0 -536.0 547.0 -409.0 318.0 -347.0Z"/></g>
<g fill="green" transform="translate(1200 100) scale(0.1 -0.1)"><path d="M0.0 0.0C-12.0 -101.0 -38.0 -214.0 -65.0 -286.0L-51.0 -294.0C17.0 -241.0 79.0 -162.0 127.0 -69.0C148.0 -70.0 161.0 -60.0 165.0 -48.0L0.0 0.0ZM387.0 67.0C317.0 30.0 176.0 -28.0 72.0 -61.0L74.0 -75.0C195.0 -72.0 346.0 -62.0 438.0 -50.0C468.0 -62.0 492.0 -63.0 505.0 -53.0L387.0 67.0ZM374.0 -57.0 365.0 -63.0C408.0 -112.0 456.0 -188.0 469.0 -255.0C576.0 -329.0 663.0 -114.0 374.0 -57.0ZM214.0 -76.0 204.0 -79.0C219.0 -109.0 228.0 -156.0 221.0 -198.0C301.0 -283.0 432.0 -130.0 214.0 -76.0ZM-63.0 -630.0 -56.0 -659.0H547.0C561.0 -659.0 570.0 -653.0 573.0 -642.0C529.0 -605.0 456.0 -556.0 456.0 -556.0L392.0 -630.0H-63.0ZM303.0 -626.0 289.0 -629.0C306.0 -729.0 358.0 -842.0 503.0 -885.0C504.0 -814.0 534.0 -788.0 592.0 -774.0V-760.0C411.0 -742.0 324.0 -695.0 303.0 -626.0ZM169.0 -516.0C179.0 -648.0 136.0 -795.0 -73.0 -870.0L-70.0 -882.0C189.0 -827.0 281.0 -707.0 299.0 -563.0C325.0 -561.0 336.0 -551.0 338.0 -536.0L169.0 -516.0ZM-49.0 -442.0 14.0 -587.0C25.0 -586.0 36.0 -578.0 43.0 -565.0C246.0 -516.0 378.0 -480.0 467.0 -450.0L466.0 -436.0C248.0 -443.0 41.0 -444.0 -49.0 -442.0ZM7.0 -262.0 -1.0 -268.0C35.0 -300.0 79.0 -357.0 94.0 -405.0C200.0 -460.0 267.0 -262.0 7.0 -262.0ZM148.0 -161.0C130.0 -224.0 106.0 -291.0 86.0 -331.0L97.0 -339.0C149.0 -318.0 207.0 -282.0 253.0 -242.0C276.0 -245.0 289.0 -237.0 293.0 -225.0L148.0 -161.0ZM336.0 -208.0C276.0 -305.0 182.0 -424.0 95.0 -505.0L118.0 -502.0C225.0 -441.0 362.0 -353.0 442.0 -277.0C469.0 -280.0 482.0 -271.0 487.0 -259.0L336.0 -208.0ZM339.0 -364.0 331.0 -371.0C382.0 -409.0 443.0 -475.0 470.0 -533.0C593.0 -586.0 648.0 -354.0 339.0 -364.0Z"/></g>
<g fill="red" transform="translate(100 200) scale(0.1 -0.1)"><path d="M0.0 0.0C-21.0 -91.0 -56.0 -181.0 -96.0 -239.0L-80.0 -249.0C-31.0 -200.0 14.0 -123.0 43.0 -43.0C64.0 -43.0 75.0 -34.0 79.0 -23.0L0.0 0.0ZM362.0 55.0C287.0 28.0 141.0 -10.0 27.0 -27.0L31.0 -46.0C149.0 -38.0 287.0 -16.0 375.0 3.0C395.0 -6.0 411.0 -7.0 420.0 1.0L362.0 55.0ZM322.0 -32.0 310.0 -40.0C358.0 -87.0 419.0 -169.0 429.0 -230.0C486.0 -274.0 526.0 -140.0 322.0 -32.0ZM156.0 -45.0 143.0 -51.0C164.0 -85.0 188.0 -142.0 189.0 -184.0C233.0 -226.0 285.0 -129.0 156.0 -45.0ZM-95.0 -596.0 -87.0 -625.0H464.0C478.0 -625.0 486.0 -620.0 489.0 -609.0C460.0 -582.0 414.0 -545.0 414.0 -545.0L373.0 -596.0H-95.0ZM205.0 -596.0 187.0 -602.0C212.0 -687.0 269.0 -795.0 447.0 -854.0C453.0 -828.0 470.0 -822.0 495.0 -819.0L497.0 -807.0C305.0 -756.0 233.0 -673.0 205.0 -596.0ZM156.0 -498.0C147.0 -642.0 114.0 -743.0 -148.0 -831.0L-138.0 -852.0C155.0 -771.0 189.0 -665.0 204.0 -534.0C225.0 -532.0 235.0 -521.0 238.0 -508.0L156.0 -498.0ZM-71.0 -454.0 -41.0 -520.0C-33.0 -518.0 -23.0 -512.0 -17.0 -500.0C177.0 -488.0 319.0 -477.0 421.0 -468.0V-449.0C215.0 -453.0 18.0 -456.0 -71.0 -454.0ZM-28.0 -243.0 -39.0 -253.0C11.0 -283.0 71.0 -341.0 86.0 -389.0C141.0 -421.0 165.0 -298.0 -28.0 -243.0ZM144.0 -167.0C115.0 -217.0 81.0 -268.0 55.0 -298.0L70.0 -311.0C102.0 -288.0 142.0 -253.0 174.0 -218.0C193.0 -223.0 206.0 -216.0 212.0 -208.0L144.0 -167.0ZM303.0 -214.0C256.0 -278.0 149.0 -397.0 66.0 -467.0L76.0 -477.0C174.0 -415.0 286.0 -314.0 339.0 -260.0C355.0 -263.0 363.0 -261.0 368.0 -253.0L303.0 -214.0ZM308.0 -367.0 297.0 -377.0C353.0 -411.0 421.0 -475.0 440.0 -528.0C496.0 -560.0 519.0 -435.0 308.0 -367.0Z"/></g>
<g fill="black" opacity=".8" transform="translate(100 200) scale(0.1 -0.1)"><path d="M0.0 0.0C-20.0 -90.0 -55.0 -178.0 -94.0 -237.0L-77.0 -246.0C-30.0 -199.0 15.0 -122.0 43.0 -43.0C64.0 -43.0 75.0 -34.0 79.0 -22.0L0.0 0.0ZM363.0 56.0C288.0 29.0 142.0 -10.0 27.0 -26.0L33.0 -45.0C150.0 -37.0 288.0 -15.0 377.0 2.0C395.0 -6.0 412.0 -7.0 421.0 2.0L363.0 56.0ZM323.0 -31.0 310.0 -38.0C359.0 -85.0 420.0 -167.0 430.0 -228.0C487.0 -271.0 528.0 -138.0 323.0 -31.0ZM158.0 -43.0 145.0 -50.0C166.0 -83.0 189.0 -140.0 190.0 -182.0C235.0 -224.0 287.0 -127.0 158.0 -43.0ZM-94.0 -598.0 -85.0 -625.0H466.0C479.0 -625.0 489.0 -621.0 491.0 -609.0C462.0 -583.0 416.0 -546.0 416.0 -546.0L375.0 -598.0H-94.0ZM206.0 -597.0 188.0 -603.0C212.0 -688.0 270.0 -794.0 449.0 -854.0C454.0 -828.0 471.0 -821.0 498.0 -817.0L500.0 -807.0C307.0 -756.0 235.0 -674.0 206.0 -597.0ZM156.0 -499.0C147.0 -642.0 112.0 -744.0 -147.0 -830.0L-136.0 -851.0C153.0 -772.0 188.0 -665.0 205.0 -534.0C226.0 -534.0 236.0 -523.0 239.0 -509.0L156.0 -499.0ZM-66.0 -456.0 -37.0 -523.0C-28.0 -520.0 -18.0 -514.0 -12.0 -502.0C181.0 -489.0 323.0 -478.0 425.0 -470.0L424.0 -450.0C219.0 -454.0 22.0 -457.0 -66.0 -456.0ZM-26.0 -243.0 -37.0 -253.0C12.0 -283.0 72.0 -340.0 87.0 -388.0C142.0 -420.0 167.0 -296.0 -26.0 -243.0ZM146.0 -165.0C117.0 -215.0 83.0 -266.0 56.0 -297.0L71.0 -310.0C103.0 -287.0 144.0 -251.0 176.0 -216.0C194.0 -221.0 208.0 -213.0 215.0 -205.0L146.0 -165.0ZM303.0 -214.0C255.0 -278.0 150.0 -397.0 66.0 -469.0L77.0 -477.0C175.0 -414.0 286.0 -315.0 339.0 -259.0C356.0 -263.0 363.0 -261.0 369.0 -253.0L303.0 -214.0ZM308.0 -364.0 296.0 -375.0C353.0 -409.0 420.0 -474.0 440.0 -527.0C495.0 -558.0 519.0 -433.0 308.0 -364.0Z"/></g>
<g fill="red" transform="translate(200 200) scale(0.1 -0.1)"><path d="M0.0 0.0C-12.0 -102.0 -40.0 -210.0 -72.0 -281.0L-60.0 -288.0C15.0 -241.0 81.0 -166.0 129.0 -70.0C152.0 -70.0 165.0 -61.0 169.0 -48.0L0.0 0.0ZM364.0 51.0C296.0 12.0 161.0 -44.0 57.0 -75.0L59.0 -88.0C180.0 -87.0 323.0 -76.0 414.0 -62.0C444.0 -75.0 467.0 -75.0 480.0 -65.0L364.0 51.0ZM332.0 -75.0 323.0 -81.0C358.0 -124.0 388.0 -191.0 389.0 -251.0C494.0 -338.0 607.0 -126.0 332.0 -75.0ZM179.0 -80.0 169.0 -84.0C182.0 -115.0 187.0 -162.0 178.0 -204.0C255.0 -292.0 393.0 -146.0 179.0 -80.0ZM-64.0 -629.0 -56.0 -657.0H484.0C498.0 -657.0 509.0 -652.0 512.0 -641.0C468.0 -603.0 395.0 -550.0 395.0 -550.0L331.0 -629.0H-64.0ZM257.0 -629.0 244.0 -633.0C259.0 -726.0 305.0 -851.0 423.0 -900.0C426.0 -822.0 457.0 -794.0 519.0 -777.0V-765.0C363.0 -743.0 277.0 -692.0 257.0 -629.0ZM129.0 -525.0C124.0 -685.0 109.0 -794.0 -131.0 -884.0L-125.0 -899.0C221.0 -836.0 250.0 -723.0 267.0 -564.0C289.0 -561.0 299.0 -550.0 301.0 -537.0L129.0 -525.0ZM-62.0 -456.0 2.0 -593.0C13.0 -591.0 24.0 -584.0 31.0 -571.0C213.0 -526.0 331.0 -494.0 411.0 -466.0L410.0 -453.0C211.0 -457.0 22.0 -458.0 -62.0 -456.0ZM-22.0 -273.0 -30.0 -279.0C5.0 -308.0 39.0 -361.0 45.0 -408.0C149.0 -474.0 232.0 -272.0 -22.0 -273.0ZM121.0 -168.0C100.0 -226.0 75.0 -287.0 55.0 -324.0L67.0 -333.0C114.0 -314.0 170.0 -283.0 216.0 -250.0C238.0 -254.0 252.0 -246.0 257.0 -235.0L121.0 -168.0ZM286.0 -240.0C243.0 -306.0 139.0 -427.0 56.0 -494.0L62.0 -503.0C180.0 -460.0 312.0 -374.0 373.0 -324.0C392.0 -328.0 405.0 -326.0 411.0 -316.0L286.0 -240.0ZM332.0 -381.0 324.0 -387.0C359.0 -424.0 390.0 -486.0 392.0 -541.0C496.0 -621.0 600.0 -413.0 332.0 -381.0Z"/></g>
<g fill="black" opacity=".8" transform="translate(200 200) scale(0.1 -0.1)"><path d="M0.0 0.0C-12.0 -101.0 -40.0 -209.0 -73.0 -278.0L-59.0 -285.0C15.0 -239.0 81.0 -165.0 129.0 -70.0C151.0 -71.0 165.0 -61.0 169.0 -48.0L0.0 0.0ZM363.0 52.0C296.0 13.0 160.0 -43.0 56.0 -73.0L59.0 -87.0C179.0 -87.0 322.0 -76.0 413.0 -61.0C443.0 -74.0 466.0 -75.0 479.0 -65.0L363.0 52.0ZM330.0 -75.0 320.0 -81.0C356.0 -124.0 386.0 -190.0 388.0 -250.0C492.0 -334.0 604.0 -123.0 330.0 -75.0ZM178.0 -80.0 167.0 -83.0C180.0 -114.0 186.0 -161.0 178.0 -204.0C255.0 -291.0 392.0 -145.0 178.0 -80.0ZM-65.0 -629.0 -59.0 -658.0H484.0C499.0 -658.0 508.0 -652.0 511.0 -641.0C469.0 -604.0 395.0 -551.0 395.0 -551.0L332.0 -629.0H-65.0ZM254.0 -630.0 241.0 -634.0C256.0 -727.0 304.0 -851.0 423.0 -900.0C426.0 -823.0 458.0 -794.0 518.0 -777.0L519.0 -765.0C360.0 -743.0 275.0 -693.0 254.0 -630.0ZM128.0 -525.0C123.0 -684.0 108.0 -795.0 -129.0 -884.0L-123.0 -900.0C218.0 -836.0 247.0 -723.0 264.0 -564.0C287.0 -562.0 296.0 -551.0 298.0 -538.0L128.0 -525.0ZM-63.0 -455.0 2.0 -594.0C13.0 -592.0 23.0 -584.0 30.0 -571.0C211.0 -526.0 328.0 -493.0 410.0 -465.0L408.0 -453.0C209.0 -457.0 21.0 -458.0 -63.0 -455.0ZM-24.0 -273.0 -32.0 -279.0C3.0 -308.0 38.0 -362.0 45.0 -408.0C150.0 -473.0 232.0 -270.0 -24.0 -273.0ZM122.0 -167.0C101.0 -225.0 77.0 -284.0 59.0 -320.0L70.0 -328.0C117.0 -311.0 172.0 -281.0 216.0 -249.0C239.0 -255.0 254.0 -246.0 257.0 -234.0L122.0 -167.0ZM287.0 -237.0C244.0 -305.0 140.0 -426.0 56.0 -494.0L62.0 -502.0C181.0 -460.0 313.0 -372.0 375.0 -321.0C395.0 -325.0 407.0 -322.0 414.0 -313.0L287.0 -237.0ZM333.0 -379.0 324.0 -386.0C359.0 -422.0 390.0 -485.0 393.0 -539.0C496.0 -617.0 599.0 -412.0 333.0 -379.0Z"/></g>
<g fill="red" transform="translate(300 200) scale(0.1 -0.1)"><path d="M0.0 0.0C-26.0 -95.0 -71.0 -184.0 -117.0 -241.0L-103.0 -252.0C-45.0 -205.0 9.0 -130.0 44.0 -45.0C65.0 -47.0 76.0 -38.0 80.0 -27.0L0.0 0.0ZM380.0 63.0C299.0 34.0 146.0 -8.0 26.0 -27.0L31.0 -46.0C155.0 -37.0 301.0 -12.0 395.0 7.0C416.0 -2.0 432.0 -3.0 441.0 6.0L380.0 63.0ZM339.0 -26.0 328.0 -35.0C382.0 -77.0 454.0 -153.0 474.0 -210.0C534.0 -247.0 562.0 -116.0 339.0 -26.0ZM160.0 -47.0 147.0 -53.0C173.0 -87.0 202.0 -142.0 205.0 -186.0C254.0 -228.0 305.0 -124.0 160.0 -47.0ZM-161.0 -590.0 -153.0 -619.0H518.0C532.0 -619.0 540.0 -614.0 543.0 -603.0C514.0 -576.0 468.0 -539.0 468.0 -539.0L426.0 -590.0H-161.0ZM202.0 -590.0 185.0 -597.0C216.0 -669.0 288.0 -777.0 497.0 -840.0C503.0 -813.0 520.0 -808.0 546.0 -805.0L548.0 -794.0C328.0 -739.0 237.0 -656.0 202.0 -590.0ZM157.0 -489.0C143.0 -637.0 74.0 -759.0 -170.0 -827.0L-163.0 -842.0C102.0 -782.0 181.0 -665.0 207.0 -528.0C226.0 -527.0 239.0 -521.0 243.0 -505.0L157.0 -489.0ZM-119.0 -449.0 -84.0 -518.0C-75.0 -516.0 -65.0 -510.0 -59.0 -498.0C165.0 -480.0 328.0 -466.0 443.0 -452.0L442.0 -433.0C206.0 -442.0 -18.0 -449.0 -119.0 -449.0ZM-34.0 -268.0 -44.0 -277.0C2.0 -304.0 58.0 -354.0 77.0 -395.0C134.0 -423.0 155.0 -307.0 -34.0 -268.0ZM139.0 -156.0C107.0 -216.0 68.0 -277.0 38.0 -316.0L53.0 -328.0C90.0 -298.0 136.0 -252.0 172.0 -207.0C192.0 -211.0 205.0 -205.0 210.0 -196.0L139.0 -156.0ZM307.0 -210.0C250.0 -285.0 158.0 -397.0 95.0 -469.0H121.0C193.0 -407.0 281.0 -321.0 337.0 -264.0C356.0 -270.0 372.0 -265.0 379.0 -255.0L307.0 -210.0ZM326.0 -352.0 316.0 -362.0C369.0 -397.0 440.0 -461.0 462.0 -511.0C521.0 -542.0 543.0 -416.0 326.0 -352.0Z"/></g>
<g fill="black" opacity=".8" transform="translate(300 200) scale(0.1 -0.1)"><path d="M0.0 0.0C-26.0 -95.0 -71.0 -184.0 -118.0 -241.0L-104.0 -253.0C-46.0 -206.0 9.0 -130.0 44.0 -45.0C65.0 -47.0 76.0 -38.0 80.0 -26.0L0.0 0.0ZM381.0 63.0C299.0 33.0 145.0 -9.0 25.0 -27.0L31.0 -45.0C155.0 -37.0 301.0 -11.0 395.0 6.0C415.0 -3.0 432.0 -4.0 441.0 6.0L381.0 63.0ZM339.0 -27.0 328.0 -35.0C381.0 -78.0 454.0 -154.0 473.0 -211.0C533.0 -247.0 562.0 -117.0 339.0 -27.0ZM159.0 -47.0 146.0 -53.0C173.0 -87.0 202.0 -142.0 205.0 -187.0C254.0 -229.0 304.0 -124.0 159.0 -47.0ZM-162.0 -591.0 -153.0 -619.0H517.0C531.0 -619.0 540.0 -615.0 542.0 -603.0C513.0 -576.0 467.0 -539.0 467.0 -539.0L426.0 -591.0H-162.0ZM202.0 -590.0 185.0 -597.0C215.0 -669.0 287.0 -777.0 497.0 -840.0C502.0 -813.0 519.0 -808.0 546.0 -804.0L548.0 -795.0C328.0 -740.0 237.0 -656.0 202.0 -590.0ZM156.0 -489.0C143.0 -637.0 75.0 -760.0 -171.0 -827.0L-163.0 -842.0C103.0 -782.0 181.0 -665.0 207.0 -527.0C226.0 -527.0 238.0 -521.0 243.0 -504.0L156.0 -489.0ZM-120.0 -449.0 -86.0 -518.0C-76.0 -516.0 -66.0 -510.0 -60.0 -498.0C164.0 -479.0 327.0 -465.0 443.0 -453.0L441.0 -433.0C205.0 -441.0 -19.0 -449.0 -120.0 -449.0ZM-35.0 -268.0 -45.0 -277.0C1.0 -304.0 57.0 -354.0 76.0 -396.0C133.0 -423.0 155.0 -307.0 -35.0 -268.0ZM139.0 -156.0C107.0 -216.0 68.0 -277.0 37.0 -317.0L52.0 -328.0C89.0 -299.0 136.0 -252.0 171.0 -207.0C191.0 -212.0 204.0 -205.0 210.0 -197.0L139.0 -156.0ZM306.0 -210.0C249.0 -285.0 158.0 -397.0 95.0 -470.0L121.0 -469.0C193.0 -407.0 281.0 -321.0 337.0 -264.0C356.0 -270.0 372.0 -265.0 379.0 -255.0L306.0 -210.0ZM326.0 -352.0 315.0 -363.0C370.0 -398.0 440.0 -462.0 462.0 -511.0C520.0 -542.0 542.0 -416.0 326.0 -352.0Z"/></g>
<g fill="red" transform="translate(400 200) scale(0.1 -0.1)"><path d="M0.0 0.0C-11.0 -101.0 -40.0 -202.0 -76.0 -270.0L-64.0 -278.0C13.0 -235.0 78.0 -166.0 124.0 -73.0C146.0 -74.0 159.0 -66.0 163.0 -53.0L0.0 0.0ZM410.0 55.0C334.0 19.0 185.0 -37.0 75.0 -69.0L78.0 -83.0C204.0 -81.0 361.0 -70.0 457.0 -60.0C488.0 -72.0 511.0 -73.0 525.0 -63.0L410.0 55.0ZM337.0 -61.0 329.0 -67.0C372.0 -111.0 422.0 -182.0 439.0 -244.0C551.0 -313.0 630.0 -95.0 337.0 -61.0ZM184.0 -71.0 175.0 -76.0C193.0 -111.0 207.0 -166.0 201.0 -214.0C287.0 -300.0 415.0 -132.0 184.0 -71.0ZM-102.0 -621.0 -94.0 -649.0H557.0C572.0 -649.0 582.0 -644.0 585.0 -633.0C541.0 -595.0 469.0 -542.0 469.0 -542.0L405.0 -621.0H-102.0ZM290.0 -622.0 277.0 -626.0C295.0 -721.0 352.0 -845.0 492.0 -893.0C495.0 -812.0 528.0 -781.0 594.0 -764.0V-751.0C412.0 -733.0 313.0 -685.0 290.0 -622.0ZM155.0 -507.0C154.0 -645.0 111.0 -791.0 -99.0 -883.0L-94.0 -894.0C186.0 -830.0 270.0 -703.0 295.0 -556.0C320.0 -554.0 331.0 -545.0 333.0 -530.0L155.0 -507.0ZM-68.0 -443.0 -5.0 -578.0C6.0 -576.0 17.0 -569.0 24.0 -556.0C230.0 -501.0 366.0 -460.0 458.0 -426.0L457.0 -413.0C235.0 -429.0 24.0 -441.0 -68.0 -443.0ZM-8.0 -258.0 -16.0 -264.0C17.0 -298.0 57.0 -353.0 71.0 -402.0C177.0 -462.0 253.0 -264.0 -8.0 -258.0ZM140.0 -163.0C120.0 -223.0 96.0 -288.0 77.0 -327.0L89.0 -335.0C138.0 -314.0 194.0 -280.0 242.0 -245.0C264.0 -248.0 277.0 -240.0 283.0 -229.0L140.0 -163.0ZM317.0 -216.0C269.0 -298.0 185.0 -410.0 110.0 -482.0H127.0C229.0 -432.0 350.0 -354.0 417.0 -293.0C440.0 -297.0 454.0 -291.0 459.0 -280.0L317.0 -216.0ZM352.0 -364.0 344.0 -371.0C388.0 -409.0 444.0 -473.0 467.0 -529.0C584.0 -585.0 646.0 -366.0 352.0 -364.0Z"/></g>
<g fill="black" opacity=".8" transform="translate(400 200) scale(0.1 -0.1)"><path d="M0.0 0.0C-10.0 -101.0 -40.0 -203.0 -77.0 -271.0L-64.0 -279.0C13.0 -236.0 77.0 -167.0 124.0 -73.0C146.0 -74.0 159.0 -66.0 163.0 -53.0L0.0 0.0ZM410.0 55.0C335.0 19.0 185.0 -36.0 75.0 -68.0L79.0 -83.0C204.0 -81.0 362.0 -71.0 457.0 -60.0C488.0 -72.0 511.0 -73.0 525.0 -63.0L410.0 55.0ZM338.0 -62.0 329.0 -68.0C373.0 -112.0 422.0 -183.0 439.0 -245.0C551.0 -314.0 630.0 -95.0 338.0 -62.0ZM185.0 -71.0 175.0 -76.0C194.0 -111.0 207.0 -166.0 202.0 -215.0C287.0 -300.0 415.0 -132.0 185.0 -71.0ZM-102.0 -621.0 -94.0 -650.0H556.0C572.0 -650.0 581.0 -644.0 584.0 -633.0C542.0 -595.0 469.0 -543.0 469.0 -543.0L405.0 -621.0H-102.0ZM291.0 -622.0 278.0 -626.0C296.0 -721.0 353.0 -845.0 493.0 -893.0C496.0 -813.0 528.0 -781.0 594.0 -764.0V-751.0C412.0 -732.0 314.0 -685.0 291.0 -622.0ZM156.0 -507.0C154.0 -645.0 112.0 -791.0 -99.0 -883.0L-94.0 -895.0C187.0 -830.0 270.0 -704.0 295.0 -555.0C321.0 -554.0 332.0 -546.0 334.0 -530.0L156.0 -507.0ZM-68.0 -443.0 -5.0 -578.0C6.0 -576.0 17.0 -569.0 24.0 -556.0C230.0 -501.0 366.0 -460.0 459.0 -426.0L458.0 -413.0C235.0 -429.0 23.0 -441.0 -68.0 -443.0ZM-8.0 -257.0 -16.0 -263.0C16.0 -298.0 57.0 -354.0 71.0 -402.0C177.0 -462.0 253.0 -265.0 -8.0 -257.0ZM140.0 -163.0C119.0 -223.0 96.0 -289.0 77.0 -328.0L88.0 -335.0C138.0 -315.0 194.0 -280.0 241.0 -244.0C263.0 -249.0 277.0 -241.0 282.0 -229.0L140.0 -163.0ZM316.0 -216.0C269.0 -299.0 185.0 -410.0 110.0 -481.0L127.0 -482.0C229.0 -432.0 350.0 -354.0 417.0 -293.0C440.0 -297.0 453.0 -291.0 459.0 -281.0L316.0 -216.0ZM352.0 -364.0 344.0 -371.0C388.0 -409.0 444.0 -474.0 468.0 -530.0C584.0 -585.0 646.0 -367.0 352.0 -364.0Z"/></g>
<g fill="red" transform="translate(500 200) scale(0.1 -0.1)"><path d="M0.0 0.0C-25.0 -99.0 -68.0 -194.0 -114.0 -254.0L-100.0 -265.0C-42.0 -214.0 11.0 -133.0 45.0 -45.0C66.0 -46.0 77.0 -37.0 81.0 -26.0L0.0 0.0ZM349.0 55.0C274.0 28.0 133.0 -10.0 22.0 -28.0L26.0 -47.0C141.0 -39.0 276.0 -19.0 363.0 -1.0C384.0 -10.0 401.0 -11.0 410.0 -3.0L349.0 55.0ZM299.0 -26.0 287.0 -35.0C344.0 -79.0 416.0 -156.0 434.0 -215.0C494.0 -252.0 524.0 -120.0 299.0 -26.0ZM144.0 -49.0 131.0 -55.0C155.0 -87.0 184.0 -142.0 188.0 -183.0C236.0 -225.0 287.0 -122.0 144.0 -49.0ZM-109.0 -590.0 -101.0 -619.0H459.0C473.0 -619.0 482.0 -614.0 484.0 -604.0C456.0 -576.0 409.0 -540.0 409.0 -540.0L368.0 -590.0H-109.0ZM197.0 -590.0 179.0 -596.0C204.0 -682.0 261.0 -793.0 439.0 -853.0C445.0 -826.0 462.0 -820.0 487.0 -818.0L489.0 -807.0C297.0 -753.0 225.0 -669.0 197.0 -590.0ZM146.0 -492.0C146.0 -644.0 96.0 -769.0 -131.0 -838.0L-124.0 -854.0C127.0 -792.0 187.0 -670.0 199.0 -529.0C219.0 -527.0 231.0 -520.0 234.0 -503.0L146.0 -492.0ZM-113.0 -444.0 -83.0 -513.0C-74.0 -511.0 -64.0 -505.0 -58.0 -493.0C146.0 -476.0 295.0 -461.0 405.0 -448.0L404.0 -429.0C186.0 -437.0 -21.0 -445.0 -113.0 -444.0ZM-26.0 -263.0 -36.0 -274.0C10.0 -296.0 66.0 -343.0 85.0 -380.0C143.0 -407.0 162.0 -291.0 -26.0 -263.0ZM119.0 -167.0C92.0 -219.0 61.0 -272.0 36.0 -304.0L51.0 -316.0C83.0 -291.0 121.0 -254.0 153.0 -218.0C172.0 -222.0 185.0 -215.0 190.0 -206.0L119.0 -167.0ZM289.0 -210.0C235.0 -288.0 144.0 -393.0 71.0 -459.0H97.0C177.0 -405.0 269.0 -323.0 324.0 -260.0C346.0 -264.0 359.0 -258.0 366.0 -247.0L289.0 -210.0ZM295.0 -354.0 285.0 -365.0C342.0 -398.0 415.0 -461.0 438.0 -510.0C499.0 -541.0 518.0 -414.0 295.0 -354.0Z"/></g>
<g fill="black" opacity=".8" transform="translate(500 200) scale(0.1 -0.1)"><path d="M0.0 0.0C-23.0 -96.0 -63.0 -188.0 -107.0 -248.0L-92.0 -259.0C-37.0 -209.0 13.0 -130.0 45.0 -45.0C67.0 -46.0 77.0 -37.0 81.0 -25.0L0.0 0.0ZM352.0 57.0C276.0 29.0 136.0 -9.0 24.0 -27.0L30.0 -46.0C144.0 -37.0 278.0 -17.0 366.0 -1.0C386.0 -9.0 404.0 -10.0 413.0 -2.0L352.0 57.0ZM300.0 -22.0 288.0 -31.0C346.0 -74.0 420.0 -150.0 438.0 -209.0C499.0 -245.0 528.0 -113.0 300.0 -22.0ZM150.0 -45.0 137.0 -51.0C160.0 -83.0 187.0 -136.0 190.0 -177.0C239.0 -220.0 291.0 -117.0 150.0 -45.0ZM-105.0 -593.0 -97.0 -621.0H465.0C478.0 -621.0 488.0 -616.0 490.0 -605.0C461.0 -578.0 415.0 -542.0 415.0 -542.0L374.0 -593.0H-105.0ZM199.0 -593.0 182.0 -599.0C207.0 -684.0 264.0 -792.0 445.0 -852.0C449.0 -825.0 466.0 -819.0 493.0 -816.0L495.0 -806.0C301.0 -753.0 228.0 -670.0 199.0 -593.0ZM149.0 -495.0C146.0 -644.0 91.0 -770.0 -127.0 -836.0L-119.0 -852.0C121.0 -792.0 185.0 -671.0 202.0 -532.0C222.0 -531.0 234.0 -525.0 237.0 -507.0L149.0 -495.0ZM-100.0 -449.0 -69.0 -518.0C-60.0 -516.0 -50.0 -510.0 -44.0 -498.0C157.0 -480.0 306.0 -464.0 415.0 -452.0L413.0 -432.0C197.0 -441.0 -9.0 -448.0 -100.0 -449.0ZM-21.0 -263.0 -31.0 -275.0C14.0 -295.0 70.0 -341.0 90.0 -378.0C147.0 -404.0 167.0 -288.0 -21.0 -263.0ZM124.0 -161.0C97.0 -215.0 66.0 -268.0 39.0 -301.0L54.0 -313.0C87.0 -287.0 126.0 -249.0 159.0 -213.0C177.0 -216.0 190.0 -209.0 195.0 -200.0L124.0 -161.0ZM289.0 -209.0C234.0 -288.0 145.0 -394.0 72.0 -460.0L101.0 -459.0C179.0 -404.0 268.0 -323.0 324.0 -259.0C347.0 -264.0 360.0 -257.0 368.0 -246.0L289.0 -209.0ZM295.0 -347.0 284.0 -358.0C341.0 -392.0 414.0 -457.0 438.0 -506.0C499.0 -538.0 518.0 -410.0 295.0 -347.0Z"/></g>
<g fill="red" transform="translate(600 200) scale(0.1 -0.1)"><path d="M0.0 0.0C-11.0 -99.0 -36.0 -207.0 -64.0 -277.0L-51.0 -285.0C18.0 -235.0 79.0 -159.0 124.0 -67.0C147.0 -67.0 159.0 -58.0 163.0 -45.0L0.0 0.0ZM368.0 69.0C304.0 35.0 176.0 -21.0 83.0 -53.0L85.0 -66.0C195.0 -64.0 332.0 -55.0 416.0 -46.0C446.0 -58.0 469.0 -59.0 483.0 -49.0L368.0 69.0ZM340.0 -52.0 331.0 -58.0C373.0 -106.0 420.0 -181.0 434.0 -247.0C542.0 -321.0 629.0 -106.0 340.0 -52.0ZM195.0 -65.0 185.0 -69.0C200.0 -100.0 209.0 -148.0 202.0 -190.0C282.0 -276.0 414.0 -123.0 195.0 -65.0ZM-50.0 -633.0 -42.0 -661.0H521.0C535.0 -661.0 545.0 -656.0 548.0 -645.0C505.0 -608.0 435.0 -556.0 435.0 -556.0L373.0 -633.0H-50.0ZM282.0 -632.0 269.0 -636.0C285.0 -725.0 335.0 -841.0 462.0 -886.0C464.0 -812.0 494.0 -785.0 554.0 -770.0V-757.0C391.0 -738.0 303.0 -691.0 282.0 -632.0ZM143.0 -521.0C149.0 -653.0 115.0 -787.0 -92.0 -870.0L-87.0 -882.0C192.0 -824.0 266.0 -707.0 285.0 -565.0C310.0 -563.0 320.0 -553.0 322.0 -538.0L143.0 -521.0ZM-52.0 -447.0 8.0 -588.0C19.0 -587.0 31.0 -580.0 38.0 -567.0C235.0 -521.0 363.0 -487.0 449.0 -459.0V-445.0C237.0 -449.0 36.0 -449.0 -52.0 -447.0ZM-1.0 -265.0 -9.0 -271.0C26.0 -304.0 71.0 -360.0 88.0 -408.0C192.0 -461.0 257.0 -267.0 -1.0 -265.0ZM132.0 -163.0C114.0 -226.0 91.0 -294.0 73.0 -335.0L85.0 -343.0C134.0 -319.0 190.0 -281.0 236.0 -242.0C258.0 -244.0 271.0 -236.0 276.0 -224.0L132.0 -163.0ZM311.0 -219.0C261.0 -303.0 172.0 -419.0 94.0 -494.0H111.0C217.0 -440.0 346.0 -357.0 417.0 -292.0C441.0 -295.0 454.0 -288.0 459.0 -276.0L311.0 -219.0ZM317.0 -375.0 309.0 -382.0C355.0 -421.0 411.0 -487.0 434.0 -545.0C552.0 -602.0 615.0 -380.0 317.0 -375.0Z"/></g>
<g fill="black" opacity=".8" transform="translate(600 200) scale(0.1 -0.1)"><path d="M0.0 0.0C-11.0 -96.0 -36.0 -201.0 -64.0 -269.0L-50.0 -277.0C18.0 -230.0 78.0 -157.0 124.0 -67.0C146.0 -68.0 158.0 -59.0 162.0 -46.0L0.0 0.0ZM365.0 71.0C302.0 37.0 174.0 -19.0 82.0 -51.0L85.0 -64.0C193.0 -62.0 330.0 -54.0 413.0 -44.0C442.0 -57.0 467.0 -58.0 480.0 -48.0L365.0 71.0ZM334.0 -50.0 325.0 -56.0C367.0 -102.0 415.0 -176.0 430.0 -241.0C538.0 -312.0 622.0 -98.0 334.0 -50.0ZM191.0 -63.0 181.0 -66.0C196.0 -98.0 206.0 -147.0 200.0 -189.0C281.0 -275.0 412.0 -120.0 191.0 -63.0ZM-54.0 -634.0 -47.0 -663.0H522.0C536.0 -663.0 545.0 -657.0 548.0 -646.0C507.0 -609.0 436.0 -558.0 436.0 -558.0L375.0 -634.0H-54.0ZM274.0 -634.0 261.0 -639.0C278.0 -727.0 330.0 -842.0 461.0 -887.0C463.0 -813.0 494.0 -785.0 553.0 -770.0L554.0 -757.0C386.0 -738.0 296.0 -693.0 274.0 -634.0ZM139.0 -521.0C146.0 -650.0 111.0 -788.0 -87.0 -871.0L-83.0 -883.0C183.0 -824.0 260.0 -705.0 278.0 -566.0C304.0 -565.0 314.0 -554.0 316.0 -539.0L139.0 -521.0ZM-53.0 -446.0 7.0 -589.0C18.0 -587.0 30.0 -580.0 37.0 -567.0C231.0 -520.0 358.0 -486.0 443.0 -458.0V-443.0C233.0 -449.0 34.0 -448.0 -53.0 -446.0ZM-5.0 -266.0 -13.0 -272.0C22.0 -305.0 67.0 -361.0 86.0 -408.0C195.0 -460.0 258.0 -261.0 -5.0 -266.0ZM134.0 -162.0C118.0 -222.0 98.0 -286.0 82.0 -324.0L94.0 -332.0C141.0 -311.0 194.0 -276.0 239.0 -241.0C261.0 -244.0 274.0 -236.0 279.0 -224.0L134.0 -162.0ZM315.0 -212.0C263.0 -300.0 175.0 -418.0 95.0 -495.0L114.0 -494.0C220.0 -438.0 350.0 -352.0 423.0 -284.0C448.0 -287.0 461.0 -280.0 466.0 -268.0L315.0 -212.0ZM319.0 -372.0 310.0 -378.0C354.0 -417.0 411.0 -483.0 436.0 -539.0C553.0 -594.0 613.0 -376.0 319.0 -372.0Z"/></g>
<g fill="red" transform="translate(700 200) scale(0.1 -0.1)"><path d="M0.0 0.0C-17.0 -85.0 -51.0 -163.0 -92.0 -213.0L-77.0 -224.0C-27.0 -183.0 14.0 -116.0 39.0 -40.0C60.0 -41.0 71.0 -31.0 74.0 -20.0L0.0 0.0ZM349.0 56.0C278.0 30.0 140.0 -6.0 31.0 -22.0L37.0 -42.0C147.0 -32.0 277.0 -10.0 359.0 9.0C378.0 1.0 394.0 0.0 402.0 7.0L349.0 56.0ZM288.0 -25.0 277.0 -35.0C332.0 -75.0 399.0 -148.0 414.0 -207.0C470.0 -244.0 498.0 -113.0 288.0 -25.0ZM143.0 -40.0 130.0 -46.0C151.0 -78.0 170.0 -130.0 167.0 -171.0C210.0 -213.0 263.0 -117.0 143.0 -40.0ZM-106.0 -596.0 -98.0 -625.0H448.0C462.0 -625.0 472.0 -620.0 474.0 -609.0C445.0 -582.0 398.0 -545.0 398.0 -545.0L357.0 -596.0H-106.0ZM185.0 -596.0 167.0 -602.0C192.0 -686.0 250.0 -794.0 432.0 -854.0C438.0 -830.0 453.0 -826.0 478.0 -824.0L480.0 -812.0C285.0 -758.0 214.0 -673.0 185.0 -596.0ZM129.0 -507.0C122.0 -659.0 95.0 -752.0 -158.0 -831.0L-148.0 -853.0C132.0 -779.0 159.0 -679.0 173.0 -541.0C194.0 -540.0 204.0 -529.0 206.0 -516.0L129.0 -507.0ZM-89.0 -456.0 -65.0 -519.0C-55.0 -518.0 -45.0 -512.0 -40.0 -500.0C151.0 -488.0 292.0 -477.0 399.0 -469.0L398.0 -449.0C193.0 -454.0 -2.0 -458.0 -89.0 -456.0ZM-45.0 -257.0 -54.0 -267.0C-11.0 -292.0 43.0 -343.0 61.0 -382.0C114.0 -410.0 137.0 -300.0 -45.0 -257.0ZM123.0 -154.0C91.0 -212.0 53.0 -270.0 24.0 -305.0L39.0 -317.0C74.0 -288.0 116.0 -244.0 151.0 -203.0C170.0 -207.0 183.0 -200.0 188.0 -191.0L123.0 -154.0ZM272.0 -208.0C223.0 -275.0 113.0 -404.0 28.0 -478.0L39.0 -489.0C140.0 -421.0 252.0 -309.0 304.0 -250.0C321.0 -254.0 330.0 -251.0 334.0 -244.0L272.0 -208.0ZM275.0 -353.0 264.0 -363.0C318.0 -398.0 385.0 -463.0 403.0 -514.0C460.0 -547.0 483.0 -421.0 275.0 -353.0Z"/></g>
<g fill="black" opacity=".8" transform="translate(700 200) scale(0.1 -0.1)"><path d="M0.0 0.0C-17.0 -85.0 -52.0 -163.0 -94.0 -214.0L-78.0 -224.0C-28.0 -185.0 14.0 -117.0 39.0 -41.0C60.0 -41.0 71.0 -31.0 73.0 -19.0L0.0 0.0ZM349.0 56.0C277.0 30.0 140.0 -7.0 30.0 -22.0L37.0 -42.0C147.0 -32.0 277.0 -10.0 359.0 8.0C377.0 0.0 394.0 -1.0 402.0 7.0L349.0 56.0ZM288.0 -26.0 277.0 -35.0C332.0 -76.0 398.0 -148.0 413.0 -209.0C469.0 -244.0 498.0 -114.0 288.0 -26.0ZM142.0 -40.0 129.0 -47.0C151.0 -79.0 170.0 -131.0 166.0 -172.0C211.0 -214.0 263.0 -118.0 142.0 -40.0ZM-107.0 -597.0 -99.0 -625.0H447.0C461.0 -625.0 472.0 -621.0 473.0 -608.0C444.0 -581.0 397.0 -545.0 397.0 -545.0L356.0 -597.0H-107.0ZM185.0 -596.0 167.0 -601.0C192.0 -686.0 250.0 -794.0 432.0 -855.0C437.0 -830.0 451.0 -826.0 478.0 -823.0L480.0 -812.0C285.0 -759.0 214.0 -674.0 185.0 -596.0ZM128.0 -507.0C122.0 -659.0 96.0 -752.0 -159.0 -830.0L-148.0 -853.0C133.0 -779.0 159.0 -679.0 173.0 -539.0C194.0 -539.0 204.0 -529.0 205.0 -515.0L128.0 -507.0ZM-91.0 -456.0 -67.0 -519.0C-57.0 -518.0 -47.0 -512.0 -41.0 -500.0C150.0 -487.0 291.0 -476.0 398.0 -469.0L396.0 -448.0C192.0 -453.0 -4.0 -457.0 -91.0 -456.0ZM-46.0 -257.0 -55.0 -267.0C-12.0 -292.0 42.0 -343.0 60.0 -383.0C113.0 -411.0 137.0 -300.0 -46.0 -257.0ZM123.0 -154.0C91.0 -212.0 53.0 -270.0 23.0 -305.0L38.0 -317.0C73.0 -288.0 115.0 -245.0 150.0 -204.0C168.0 -208.0 182.0 -200.0 188.0 -192.0L123.0 -154.0ZM271.0 -209.0C222.0 -274.0 113.0 -405.0 28.0 -479.0L39.0 -489.0C140.0 -420.0 252.0 -309.0 304.0 -249.0C322.0 -254.0 329.0 -251.0 334.0 -244.0L271.0 -209.0ZM275.0 -354.0 264.0 -364.0C318.0 -399.0 385.0 -464.0 403.0 -515.0C459.0 -547.0 482.0 -421.0 275.0 -354.0Z"/></g>
<g fill="red" transform="translate(800 200) scale(0.1 -0.1)"><path d="M0.0 0.0C-10.0 -93.0 -35.0 -187.0 -67.0 -250.0L-55.0 -258.0C16.0 -219.0 78.0 -154.0 122.0 -67.0C145.0 -67.0 157.0 -58.0 161.0 -45.0L0.0 0.0ZM338.0 63.0C280.0 31.0 164.0 -22.0 79.0 -52.0L82.0 -65.0C182.0 -64.0 306.0 -56.0 383.0 -48.0C412.0 -61.0 435.0 -62.0 449.0 -52.0L338.0 63.0ZM279.0 -54.0 270.0 -60.0C307.0 -101.0 345.0 -167.0 355.0 -225.0C462.0 -300.0 556.0 -91.0 279.0 -54.0ZM152.0 -56.0 142.0 -60.0C157.0 -94.0 166.0 -144.0 159.0 -188.0C239.0 -275.0 372.0 -121.0 152.0 -56.0ZM-55.0 -631.0 -47.0 -659.0H470.0C485.0 -659.0 495.0 -654.0 498.0 -643.0C458.0 -606.0 390.0 -551.0 390.0 -551.0L331.0 -631.0H-55.0ZM239.0 -631.0 226.0 -635.0C242.0 -712.0 292.0 -838.0 401.0 -889.0C403.0 -808.0 435.0 -778.0 499.0 -761.0V-749.0C352.0 -728.0 261.0 -680.0 239.0 -631.0ZM96.0 -525.0C91.0 -667.0 75.0 -779.0 -130.0 -876.0L-123.0 -890.0C192.0 -822.0 224.0 -707.0 243.0 -564.0C266.0 -562.0 275.0 -551.0 277.0 -537.0L96.0 -525.0ZM-64.0 -453.0 -6.0 -588.0C5.0 -586.0 17.0 -580.0 24.0 -567.0C199.0 -523.0 314.0 -491.0 392.0 -465.0V-451.0C200.0 -455.0 17.0 -455.0 -64.0 -453.0ZM-31.0 -273.0 -39.0 -279.0C-6.0 -310.0 34.0 -362.0 50.0 -408.0C160.0 -465.0 231.0 -262.0 -31.0 -273.0ZM110.0 -166.0C93.0 -218.0 76.0 -275.0 64.0 -309.0L77.0 -317.0C116.0 -298.0 165.0 -269.0 208.0 -244.0C229.0 -246.0 243.0 -238.0 248.0 -227.0L110.0 -166.0ZM272.0 -229.0C236.0 -293.0 147.0 -411.0 75.0 -477.0L81.0 -485.0C193.0 -443.0 314.0 -360.0 370.0 -311.0C389.0 -315.0 402.0 -313.0 408.0 -302.0L272.0 -229.0ZM302.0 -382.0 293.0 -388.0C324.0 -427.0 360.0 -489.0 370.0 -542.0C471.0 -612.0 561.0 -419.0 302.0 -382.0Z"/></g>
<g fill="black" opacity=".8" transform="translate(800 200) scale(0.1 -0.1)"><path d="M0.0 0.0C-10.0 -93.0 -36.0 -188.0 -68.0 -251.0L-55.0 -259.0C16.0 -220.0 78.0 -155.0 122.0 -67.0C145.0 -67.0 157.0 -58.0 161.0 -45.0L0.0 0.0ZM338.0 63.0C281.0 31.0 164.0 -21.0 79.0 -51.0L82.0 -65.0C182.0 -65.0 306.0 -57.0 384.0 -48.0C412.0 -61.0 436.0 -62.0 449.0 -53.0L338.0 63.0ZM280.0 -55.0 270.0 -61.0C308.0 -102.0 345.0 -168.0 356.0 -226.0C462.0 -301.0 557.0 -92.0 280.0 -55.0ZM152.0 -57.0 143.0 -60.0C158.0 -94.0 166.0 -144.0 160.0 -189.0C239.0 -274.0 372.0 -122.0 152.0 -57.0ZM-55.0 -631.0 -47.0 -659.0H469.0C485.0 -659.0 494.0 -653.0 497.0 -642.0C458.0 -606.0 390.0 -551.0 390.0 -551.0L331.0 -631.0H-55.0ZM240.0 -630.0 227.0 -635.0C243.0 -712.0 293.0 -838.0 402.0 -888.0C403.0 -808.0 435.0 -778.0 499.0 -761.0V-749.0C352.0 -727.0 263.0 -680.0 240.0 -630.0ZM97.0 -525.0C92.0 -667.0 76.0 -779.0 -130.0 -876.0L-123.0 -890.0C193.0 -822.0 225.0 -708.0 244.0 -564.0C267.0 -563.0 276.0 -551.0 278.0 -537.0L97.0 -525.0ZM-65.0 -453.0 -6.0 -589.0C5.0 -586.0 17.0 -580.0 24.0 -567.0C199.0 -523.0 314.0 -491.0 393.0 -465.0V-452.0C200.0 -456.0 17.0 -455.0 -65.0 -453.0ZM-31.0 -272.0 -38.0 -278.0C-6.0 -310.0 34.0 -363.0 50.0 -408.0C160.0 -464.0 231.0 -264.0 -31.0 -272.0ZM110.0 -166.0C93.0 -218.0 75.0 -277.0 62.0 -310.0L75.0 -318.0C116.0 -299.0 165.0 -269.0 207.0 -243.0C229.0 -247.0 243.0 -238.0 247.0 -227.0L110.0 -166.0ZM271.0 -229.0C235.0 -294.0 146.0 -411.0 75.0 -477.0L80.0 -484.0C192.0 -443.0 313.0 -360.0 369.0 -312.0C389.0 -316.0 400.0 -313.0 407.0 -303.0L271.0 -229.0ZM302.0 -382.0 292.0 -388.0C323.0 -427.0 359.0 -489.0 370.0 -542.0C471.0 -612.0 561.0 -420.0 302.0 -382.0Z"/></g>
<g fill="red" transform="translate(900 200) scale(0.1 -0.1)"><path d="M0.0 0.0C-20.0 -91.0 -56.0 -182.0 -94.0 -241.0L-79.0 -251.0C-28.0 -202.0 17.0 -125.0 46.0 -44.0C67.0 -44.0 78.0 -35.0 82.0 -24.0L0.0 0.0ZM354.0 57.0C279.0 30.0 138.0 -8.0 27.0 -26.0L32.0 -45.0C146.0 -37.0 281.0 -16.0 369.0 1.0C389.0 -8.0 406.0 -9.0 415.0 -1.0L354.0 57.0ZM305.0 -18.0 293.0 -27.0C349.0 -71.0 421.0 -148.0 439.0 -207.0C500.0 -244.0 529.0 -112.0 305.0 -18.0ZM158.0 -41.0 145.0 -47.0C167.0 -78.0 191.0 -131.0 193.0 -171.0C241.0 -214.0 294.0 -114.0 158.0 -41.0ZM-91.0 -592.0 -84.0 -621.0H467.0C481.0 -621.0 490.0 -616.0 493.0 -605.0C463.0 -578.0 417.0 -541.0 417.0 -541.0L376.0 -592.0H-91.0ZM208.0 -592.0 190.0 -598.0C215.0 -682.0 272.0 -788.0 451.0 -846.0C456.0 -819.0 472.0 -814.0 499.0 -811.0L501.0 -800.0C308.0 -749.0 237.0 -668.0 208.0 -592.0ZM157.0 -497.0C149.0 -639.0 93.0 -762.0 -119.0 -830.0L-112.0 -846.0C122.0 -784.0 188.0 -666.0 208.0 -535.0C228.0 -534.0 240.0 -527.0 243.0 -511.0L157.0 -497.0ZM-73.0 -452.0 -42.0 -521.0C-33.0 -519.0 -23.0 -513.0 -18.0 -501.0C177.0 -484.0 321.0 -469.0 426.0 -457.0L425.0 -438.0C215.0 -446.0 16.0 -452.0 -73.0 -452.0ZM-13.0 -256.0 -22.0 -267.0C23.0 -289.0 79.0 -336.0 98.0 -373.0C156.0 -400.0 175.0 -284.0 -13.0 -256.0ZM134.0 -156.0C108.0 -209.0 76.0 -261.0 51.0 -293.0L66.0 -305.0C98.0 -280.0 136.0 -243.0 169.0 -208.0C187.0 -211.0 200.0 -204.0 205.0 -195.0L134.0 -156.0ZM294.0 -208.0C240.0 -286.0 149.0 -391.0 76.0 -457.0H103.0C182.0 -403.0 273.0 -321.0 328.0 -258.0C350.0 -262.0 364.0 -256.0 371.0 -245.0L294.0 -208.0ZM297.0 -341.0 287.0 -351.0C342.0 -387.0 415.0 -453.0 438.0 -504.0C498.0 -537.0 519.0 -408.0 297.0 -341.0Z"/></g>
<g fill="black" opacity=".8" transform="translate(900 200) scale(0.1 -0.1)"><path d="M0.0 0.0C-22.0 -95.0 -61.0 -187.0 -103.0 -248.0L-87.0 -258.0C-35.0 -208.0 14.0 -128.0 45.0 -45.0C66.0 -45.0 77.0 -36.0 81.0 -24.0L0.0 0.0ZM351.0 56.0C276.0 28.0 135.0 -9.0 24.0 -27.0L30.0 -46.0C143.0 -38.0 278.0 -18.0 366.0 -1.0C386.0 -10.0 403.0 -11.0 412.0 -2.0L351.0 56.0ZM304.0 -23.0 292.0 -32.0C347.0 -76.0 417.0 -154.0 434.0 -214.0C494.0 -251.0 526.0 -120.0 304.0 -23.0ZM152.0 -45.0 139.0 -51.0C161.0 -82.0 187.0 -137.0 190.0 -177.0C239.0 -220.0 290.0 -119.0 152.0 -45.0ZM-96.0 -591.0 -88.0 -619.0H460.0C474.0 -619.0 484.0 -614.0 486.0 -603.0C457.0 -576.0 411.0 -540.0 411.0 -540.0L370.0 -591.0H-96.0ZM205.0 -589.0 188.0 -594.0C212.0 -681.0 268.0 -789.0 446.0 -848.0C450.0 -821.0 466.0 -814.0 493.0 -812.0L495.0 -802.0C304.0 -749.0 234.0 -667.0 205.0 -589.0ZM153.0 -493.0C148.0 -638.0 98.0 -761.0 -125.0 -831.0L-116.0 -848.0C130.0 -784.0 189.0 -665.0 205.0 -530.0C225.0 -529.0 237.0 -522.0 240.0 -505.0L153.0 -493.0ZM-88.0 -447.0 -58.0 -516.0C-48.0 -514.0 -38.0 -508.0 -33.0 -496.0C164.0 -479.0 310.0 -464.0 415.0 -453.0L414.0 -434.0C203.0 -441.0 1.0 -447.0 -88.0 -447.0ZM-19.0 -256.0 -28.0 -267.0C18.0 -289.0 74.0 -337.0 93.0 -377.0C150.0 -404.0 171.0 -286.0 -19.0 -256.0ZM129.0 -162.0C103.0 -213.0 72.0 -264.0 46.0 -296.0L61.0 -308.0C93.0 -284.0 131.0 -249.0 163.0 -214.0C181.0 -218.0 194.0 -210.0 200.0 -202.0L129.0 -162.0ZM293.0 -210.0C240.0 -285.0 149.0 -391.0 74.0 -457.0H99.0C180.0 -403.0 273.0 -321.0 328.0 -258.0C350.0 -262.0 362.0 -257.0 369.0 -246.0L293.0 -210.0ZM297.0 -349.0 287.0 -360.0C344.0 -394.0 416.0 -458.0 439.0 -509.0C498.0 -539.0 518.0 -413.0 297.0 -349.0Z"/></g>
<g fill="red" transform="translate(1000 200) scale(0.1 -0.1)"><path d="M0.0 0.0C-11.0 -95.0 -36.0 -197.0 -63.0 -264.0L-50.0 -272.0C17.0 -226.0 78.0 -155.0 124.0 -68.0C146.0 -68.0 159.0 -59.0 163.0 -46.0L0.0 0.0ZM359.0 68.0C295.0 34.0 167.0 -22.0 74.0 -54.0L76.0 -67.0C186.0 -65.0 323.0 -56.0 407.0 -47.0C437.0 -59.0 460.0 -60.0 474.0 -50.0L359.0 68.0ZM331.0 -52.0 322.0 -58.0C362.0 -103.0 406.0 -174.0 418.0 -236.0C525.0 -308.0 612.0 -99.0 331.0 -52.0ZM186.0 -65.0 176.0 -69.0C191.0 -100.0 200.0 -148.0 193.0 -190.0C273.0 -276.0 405.0 -123.0 186.0 -65.0ZM-59.0 -633.0 -51.0 -661.0H512.0C526.0 -661.0 536.0 -656.0 539.0 -645.0C496.0 -608.0 426.0 -556.0 426.0 -556.0L364.0 -633.0H-59.0ZM264.0 -632.0 251.0 -636.0C268.0 -725.0 320.0 -841.0 453.0 -886.0C455.0 -812.0 486.0 -785.0 546.0 -770.0V-757.0C376.0 -738.0 286.0 -692.0 264.0 -632.0ZM134.0 -521.0C140.0 -653.0 107.0 -788.0 -90.0 -871.0L-85.0 -883.0C181.0 -823.0 251.0 -704.0 268.0 -565.0C292.0 -562.0 303.0 -552.0 305.0 -537.0L134.0 -521.0ZM-53.0 -446.0 7.0 -588.0C18.0 -586.0 30.0 -579.0 37.0 -566.0C224.0 -520.0 346.0 -486.0 428.0 -458.0V-444.0C225.0 -448.0 32.0 -448.0 -53.0 -446.0ZM-11.0 -269.0 -19.0 -275.0C16.0 -306.0 59.0 -359.0 76.0 -406.0C188.0 -461.0 255.0 -254.0 -11.0 -269.0ZM134.0 -163.0C119.0 -217.0 101.0 -275.0 87.0 -309.0L99.0 -318.0C143.0 -300.0 194.0 -272.0 238.0 -242.0C260.0 -244.0 273.0 -236.0 278.0 -225.0L134.0 -163.0ZM315.0 -209.0C262.0 -297.0 169.0 -418.0 86.0 -497.0H104.0C214.0 -440.0 347.0 -351.0 420.0 -282.0C445.0 -285.0 458.0 -278.0 463.0 -266.0L315.0 -209.0ZM321.0 -368.0 313.0 -374.0C355.0 -413.0 406.0 -476.0 427.0 -531.0C541.0 -589.0 608.0 -375.0 321.0 -368.0Z"/></g>
<g fill="black" opacity=".8" transform="translate(1000 200) scale(0.1 -0.1)"><path d="M0.0 0.0C-11.0 -97.0 -37.0 -204.0 -65.0 -272.0L-51.0 -280.0C17.0 -232.0 79.0 -158.0 125.0 -67.0C147.0 -68.0 159.0 -58.0 163.0 -46.0L0.0 0.0ZM362.0 67.0C298.0 32.0 169.0 -24.0 74.0 -56.0L77.0 -69.0C188.0 -67.0 326.0 -58.0 411.0 -48.0C440.0 -60.0 464.0 -61.0 477.0 -51.0L362.0 67.0ZM337.0 -55.0 328.0 -61.0C369.0 -108.0 412.0 -180.0 423.0 -243.0C529.0 -318.0 620.0 -107.0 337.0 -55.0ZM191.0 -68.0 181.0 -71.0C195.0 -102.0 203.0 -149.0 197.0 -191.0C275.0 -276.0 408.0 -126.0 191.0 -68.0ZM-53.0 -631.0 -46.0 -660.0H510.0C525.0 -660.0 534.0 -654.0 537.0 -643.0C495.0 -606.0 424.0 -555.0 424.0 -555.0L362.0 -631.0H-53.0ZM273.0 -629.0 260.0 -633.0C276.0 -723.0 326.0 -840.0 455.0 -885.0C457.0 -811.0 487.0 -784.0 546.0 -769.0L547.0 -756.0C381.0 -737.0 294.0 -690.0 273.0 -629.0ZM139.0 -520.0C144.0 -656.0 113.0 -787.0 -94.0 -869.0L-89.0 -882.0C191.0 -823.0 258.0 -707.0 275.0 -564.0C300.0 -562.0 310.0 -551.0 312.0 -536.0L139.0 -520.0ZM-53.0 -446.0 8.0 -588.0C19.0 -587.0 31.0 -579.0 37.0 -567.0C228.0 -521.0 351.0 -487.0 435.0 -460.0L434.0 -446.0C228.0 -450.0 33.0 -449.0 -53.0 -446.0ZM-7.0 -267.0 -15.0 -273.0C20.0 -304.0 62.0 -360.0 78.0 -406.0C185.0 -461.0 253.0 -262.0 -7.0 -267.0ZM132.0 -163.0C115.0 -221.0 94.0 -285.0 77.0 -322.0L89.0 -330.0C136.0 -310.0 190.0 -276.0 234.0 -242.0C257.0 -245.0 270.0 -237.0 274.0 -225.0L132.0 -163.0ZM310.0 -216.0C259.0 -301.0 165.0 -420.0 84.0 -495.0L100.0 -496.0C210.0 -443.0 342.0 -355.0 413.0 -290.0C437.0 -293.0 450.0 -286.0 455.0 -275.0L310.0 -216.0ZM320.0 -371.0 312.0 -378.0C355.0 -416.0 405.0 -481.0 426.0 -537.0C540.0 -597.0 609.0 -381.0 320.0 -371.0Z"/></g>
<g fill="red" transform="translate(1100 200) scale(0.1 -0.1)"><path d="M0.0 0.0C-21.0 -77.0 -52.0 -155.0 -85.0 -205.0L-69.0 -215.0C-26.0 -174.0 15.0 -110.0 45.0 -45.0C65.0 -46.0 76.0 -37.0 80.0 -27.0L0.0 0.0ZM289.0 35.0C230.0 12.0 118.0 -17.0 27.0 -30.0L32.0 -48.0C125.0 -46.0 234.0 -35.0 304.0 -22.0C323.0 -31.0 339.0 -32.0 348.0 -24.0L289.0 35.0ZM220.0 -39.0 209.0 -48.0C254.0 -84.0 310.0 -148.0 324.0 -197.0C377.0 -233.0 409.0 -113.0 220.0 -39.0ZM108.0 -52.0 95.0 -58.0C113.0 -83.0 132.0 -125.0 133.0 -158.0C174.0 -194.0 222.0 -111.0 108.0 -52.0ZM-88.0 -533.0 -81.0 -562.0H353.0C367.0 -562.0 375.0 -558.0 378.0 -547.0C353.0 -522.0 312.0 -490.0 312.0 -490.0L278.0 -533.0H-88.0ZM-377.0 -817.0 -343.0 -872.0C-334.0 -869.0 -328.0 -861.0 -325.0 -849.0C-244.0 -816.0 -182.0 -786.0 -140.0 -766.0L-145.0 -752.0C-239.0 -780.0 -335.0 -807.0 -377.0 -817.0ZM113.0 -434.0C111.0 -549.0 106.0 -652.0 -82.0 -727.0L-69.0 -743.0C146.0 -672.0 155.0 -566.0 162.0 -466.0C181.0 -463.0 189.0 -453.0 191.0 -442.0L113.0 -434.0ZM-74.0 -420.0 -52.0 -484.0C-42.0 -482.0 -32.0 -477.0 -27.0 -464.0C120.0 -450.0 233.0 -437.0 315.0 -427.0L314.0 -409.0C152.0 -415.0 -5.0 -421.0 -74.0 -420.0ZM-34.0 -250.0 -44.0 -261.0C-3.0 -281.0 45.0 -321.0 61.0 -357.0C112.0 -382.0 132.0 -276.0 -34.0 -250.0ZM117.0 -165.0C88.0 -211.0 54.0 -254.0 28.0 -281.0L42.0 -295.0C73.0 -276.0 111.0 -246.0 143.0 -217.0C163.0 -223.0 176.0 -216.0 182.0 -208.0L117.0 -165.0ZM222.0 -229.0C173.0 -293.0 93.0 -378.0 30.0 -431.0H58.0C125.0 -389.0 201.0 -327.0 249.0 -279.0C271.0 -284.0 286.0 -279.0 293.0 -268.0L222.0 -229.0ZM209.0 -337.0 198.0 -347.0C247.0 -376.0 307.0 -432.0 322.0 -480.0C375.0 -511.0 398.0 -393.0 209.0 -337.0Z"/></g>
<g fill="black" opacity=".8" transform="translate(1100 200) scale(0.1 -0.1)"><path d="M0.0 0.0C-21.0 -77.0 -52.0 -155.0 -86.0 -205.0L-68.0 -214.0C-26.0 -175.0 15.0 -110.0 46.0 -46.0C65.0 -46.0 76.0 -37.0 79.0 -27.0L0.0 0.0ZM289.0 35.0C230.0 11.0 118.0 -18.0 26.0 -29.0L33.0 -47.0C125.0 -46.0 234.0 -34.0 305.0 -23.0C322.0 -31.0 340.0 -32.0 348.0 -24.0L289.0 35.0ZM221.0 -39.0 209.0 -48.0C254.0 -85.0 310.0 -148.0 324.0 -197.0C377.0 -232.0 410.0 -113.0 221.0 -39.0ZM107.0 -51.0 94.0 -58.0C113.0 -83.0 131.0 -125.0 133.0 -158.0C174.0 -194.0 223.0 -112.0 107.0 -51.0ZM-88.0 -534.0 -82.0 -562.0H352.0C367.0 -562.0 375.0 -559.0 378.0 -547.0C353.0 -522.0 312.0 -491.0 312.0 -491.0L278.0 -534.0H-88.0ZM-377.0 -817.0 -342.0 -872.0C-334.0 -870.0 -328.0 -860.0 -324.0 -850.0C-244.0 -815.0 -183.0 -786.0 -140.0 -766.0L-144.0 -753.0C-238.0 -780.0 -335.0 -807.0 -377.0 -817.0ZM112.0 -435.0C111.0 -548.0 107.0 -653.0 -83.0 -726.0L-68.0 -742.0C147.0 -672.0 155.0 -566.0 163.0 -464.0C182.0 -463.0 190.0 -453.0 191.0 -442.0L112.0 -435.0ZM-74.0 -421.0 -52.0 -485.0C-42.0 -482.0 -32.0 -477.0 -27.0 -465.0C120.0 -450.0 233.0 -436.0 315.0 -427.0L314.0 -409.0C153.0 -414.0 -5.0 -420.0 -74.0 -421.0ZM-35.0 -250.0 -45.0 -261.0C-3.0 -280.0 45.0 -321.0 61.0 -358.0C111.0 -382.0 132.0 -276.0 -35.0 -250.0ZM117.0 -164.0C88.0 -210.0 55.0 -253.0 27.0 -281.0L42.0 -295.0C72.0 -276.0 111.0 -246.0 142.0 -217.0C163.0 -223.0 176.0 -216.0 182.0 -208.0L117.0 -164.0ZM222.0 -230.0C172.0 -292.0 93.0 -379.0 29.0 -432.0L58.0 -431.0C125.0 -388.0 201.0 -326.0 249.0 -279.0C272.0 -284.0 286.0 -279.0 294.0 -268.0L222.0 -230.0ZM209.0 -337.0 198.0 -348.0C247.0 -376.0 307.0 -433.0 322.0 -480.0C374.0 -511.0 398.0 -393.0 209.0 -337.0Z"/></g>
<g fill="red" transform="translate(1200 200) scale(0.1 -0.1)"><path d="M0.0 0.0C-9.0 -80.0 -27.0 -167.0 -48.0 -225.0L-35.0 -232.0C22.0 -194.0 75.0 -134.0 115.0 -65.0C137.0 -65.0 149.0 -56.0 153.0 -43.0L0.0 0.0ZM297.0 42.0C250.0 12.0 157.0 -33.0 85.0 -57.0L89.0 -72.0C172.0 -71.0 272.0 -61.0 334.0 -51.0C360.0 -62.0 381.0 -62.0 392.0 -53.0L297.0 42.0ZM238.0 -62.0 230.0 -69.0C265.0 -100.0 305.0 -155.0 316.0 -203.0C417.0 -261.0 489.0 -68.0 238.0 -62.0ZM138.0 -65.0 129.0 -69.0C139.0 -91.0 143.0 -128.0 134.0 -160.0C207.0 -244.0 346.0 -111.0 138.0 -65.0ZM-43.0 -542.0 -35.0 -570.0H399.0C413.0 -570.0 424.0 -565.0 427.0 -554.0C385.0 -519.0 318.0 -471.0 318.0 -471.0L259.0 -542.0H-43.0ZM-365.0 -778.0 -304.0 -911.0C-293.0 -910.0 -282.0 -903.0 -276.0 -889.0C-195.0 -842.0 -141.0 -807.0 -107.0 -782.0L-108.0 -771.0C-211.0 -776.0 -318.0 -778.0 -365.0 -778.0ZM98.0 -452.0C96.0 -567.0 98.0 -659.0 -52.0 -735.0L-43.0 -747.0C194.0 -690.0 213.0 -597.0 225.0 -489.0C245.0 -486.0 254.0 -477.0 256.0 -464.0L98.0 -452.0ZM-45.0 -386.0 11.0 -511.0C22.0 -509.0 33.0 -503.0 40.0 -489.0C185.0 -451.0 281.0 -423.0 346.0 -400.0V-386.0C183.0 -388.0 26.0 -388.0 -45.0 -386.0ZM-18.0 -251.0 -25.0 -258.0C3.0 -279.0 38.0 -320.0 50.0 -356.0C151.0 -403.0 210.0 -216.0 -18.0 -251.0ZM99.0 -161.0C86.0 -208.0 72.0 -256.0 59.0 -286.0L73.0 -294.0C108.0 -279.0 151.0 -255.0 186.0 -231.0C207.0 -233.0 220.0 -225.0 225.0 -214.0L99.0 -161.0ZM233.0 -219.0C193.0 -277.0 125.0 -357.0 70.0 -408.0H90.0C165.0 -376.0 263.0 -329.0 319.0 -291.0C343.0 -295.0 356.0 -289.0 362.0 -278.0L233.0 -219.0ZM262.0 -327.0 253.0 -333.0C280.0 -363.0 311.0 -412.0 321.0 -456.0C414.0 -515.0 494.0 -341.0 262.0 -327.0Z"/></g>
<g fill="black" opacity=".8" transform="translate(1200 200) scale(0.1 -0.1)"><path d="M0.0 0.0C-9.0 -80.0 -28.0 -168.0 -49.0 -225.0L-35.0 -232.0C21.0 -194.0 75.0 -134.0 115.0 -65.0C137.0 -65.0 149.0 -57.0 152.0 -44.0L0.0 0.0ZM297.0 43.0C251.0 12.0 157.0 -32.0 84.0 -56.0L89.0 -71.0C172.0 -72.0 272.0 -61.0 334.0 -50.0C360.0 -62.0 381.0 -62.0 392.0 -54.0L297.0 43.0ZM238.0 -63.0 229.0 -70.0C266.0 -101.0 305.0 -155.0 317.0 -203.0C417.0 -261.0 489.0 -67.0 238.0 -63.0ZM138.0 -66.0 129.0 -69.0C140.0 -91.0 143.0 -127.0 134.0 -160.0C208.0 -243.0 346.0 -111.0 138.0 -66.0ZM-43.0 -541.0 -35.0 -571.0H399.0C413.0 -571.0 422.0 -565.0 426.0 -553.0C385.0 -519.0 317.0 -471.0 317.0 -471.0L260.0 -541.0H-43.0ZM-365.0 -778.0 -305.0 -912.0C-293.0 -911.0 -282.0 -903.0 -275.0 -889.0C-195.0 -842.0 -141.0 -807.0 -107.0 -781.0L-108.0 -770.0C-212.0 -775.0 -317.0 -778.0 -365.0 -778.0ZM99.0 -452.0C96.0 -566.0 98.0 -659.0 -52.0 -735.0L-43.0 -747.0C195.0 -691.0 213.0 -597.0 225.0 -489.0C246.0 -487.0 254.0 -477.0 256.0 -464.0L99.0 -452.0ZM-46.0 -386.0 12.0 -511.0C23.0 -509.0 33.0 -503.0 40.0 -489.0C184.0 -451.0 281.0 -423.0 347.0 -400.0L346.0 -386.0C182.0 -389.0 25.0 -388.0 -46.0 -386.0ZM-18.0 -250.0 -25.0 -258.0C2.0 -278.0 38.0 -321.0 50.0 -356.0C152.0 -403.0 210.0 -216.0 -18.0 -250.0ZM99.0 -161.0C86.0 -207.0 72.0 -256.0 59.0 -286.0L73.0 -294.0C108.0 -280.0 152.0 -254.0 186.0 -230.0C206.0 -234.0 220.0 -225.0 224.0 -214.0L99.0 -161.0ZM232.0 -218.0C192.0 -277.0 125.0 -357.0 70.0 -407.0L90.0 -408.0C165.0 -376.0 263.0 -329.0 319.0 -291.0C344.0 -294.0 356.0 -289.0 362.0 -278.0L232.0 -218.0ZM263.0 -327.0 252.0 -333.0C279.0 -363.0 310.0 -412.0 322.0 -456.0C414.0 -514.0 494.0 -341.0 263.0 -327.0Z"/></g>
</svg>
