<?xml version="1.0" encoding="UTF-8"?>
<svg width="1700" height="300" xmlns="http://www.w3.org/2000/svg">
<rect width="100%" height="100%" fill="white"/>
<g fill="green" transform="translate(100 100) scale(0.1 -0.1)"><path d="M0.0 0.0H11.0C6.0 -30.0 -8.0 -84.0 -18.0 -114.0L-3.0 -122.0C20.0 -100.0 48.0 -64.0 65.0 -37.0C83.0 -36.0 95.0 -34.0 102.0 -28.0L36.0 36.0L0.0 0.0ZM-685.0 45.0 -704.0 44.0C-701.0 -18.0 -739.0 -69.0 -781.0 -87.0C-798.0 -97.0 -809.0 -114.0 -802.0 -129.0C-793.0 -147.0 -762.0 -145.0 -739.0 -131.0C-703.0 -110.0 -662.0 -54.0 -685.0 45.0ZM36.0 0.0H-696.0V-30.0H36.0V0.0ZM-435.0 -349.0V-126.0H-479.0V-364.0H-473.0C-450.0 -364.0 -435.0 -353.0 -435.0 -349.0Z"/></g>
<g fill="green" transform="translate(200 100) scale(0.1 -0.1)"><path d="M0.0 0.0H11.0C12.0 -32.0 11.0 -87.0 8.0 -122.0L14.0 -128.0C60.0 -112.0 118.0 -81.0 152.0 -57.0C173.0 -55.0 183.0 -52.0 191.0 -44.0L69.0 70.0L0.0 0.0ZM-600.0 60.0H-612.0C-611.0 23.0 -652.0 -12.0 -683.0 -26.0C-721.0 -42.0 -748.0 -75.0 -737.0 -120.0C-723.0 -168.0 -666.0 -184.0 -630.0 -164.0C-579.0 -136.0 -553.0 -53.0 -600.0 60.0ZM78.0 0.0H-607.0V-28.0H78.0V0.0ZM-309.0 -380.0V-139.0H-439.0V-404.0H-415.0C-349.0 -404.0 -310.0 -385.0 -309.0 -380.0Z"/></g>
<g fill="green" transform="translate(300 100) scale(0.1 -0.1)"><path d="M0.0 0.0H11.0C6.0 -30.0 -8.0 -84.0 -18.0 -114.0L-3.0 -122.0C20.0 -100.0 48.0 -64.0 65.0 -37.0C83.0 -36.0 95.0 -34.0 102.0 -28.0L36.0 36.0L0.0 0.0ZM-685.0 45.0 -704.0 44.0C-701.0 -18.0 -739.0 -69.0 -781.0 -87.0C-798.0 -97.0 -809.0 -114.0 -802.0 -129.0C-793.0 -147.0 -762.0 -145.0 -739.0 -131.0C-703.0 -110.0 -662.0 -54.0 -685.0 45.0ZM36.0 0.0H-696.0V-30.0H36.0V0.0ZM-435.0 -349.0V-126.0H-479.0V-364.0H-473.0C-450.0 -364.0 -435.0 -353.0 -435.0 -349.0Z"/></g>
<g fill="green" transform="translate(400 100) scale(0.1 -0.1)"><path d="M0.0 0.0H11.0C12.0 -32.0 11.0 -87.0 8.0 -122.0L14.0 -128.0C60.0 -112.0 118.0 -81.0 152.0 -57.0C173.0 -55.0 183.0 -52.0 191.0 -44.0L69.0 70.0L0.0 0.0ZM-600.0 60.0H-612.0C-611.0 23.0 -652.0 -12.0 -683.0 -26.0C-721.0 -42.0 -748.0 -75.0 -737.0 -120.0C-723.0 -168.0 -666.0 -184.0 -630.0 -164.0C-579.0 -136.0 -553.0 -53.0 -600.0 60.0ZM78.0 0.0H-607.0V-28.0H78.0V0.0ZM-309.0 -380.0V-139.0H-439.0V-404.0H-415.0C-349.0 -404.0 -310.0 -385.0 -309.0 -380.0Z"/></g>
<g fill="red" transform="translate(100 200) scale(0.1 -0.1)"><path d="M0.0 0.0H11.0C6.0 -30.0 -8.0 -84.0 -18.0 -114.0L-3.0 -122.0C20.0 -100.0 48.0 -64.0 65.0 -37.0C83.0 -36.0 95.0 -34.0 102.0 -28.0L36.0 36.0L0.0 0.0ZM-685.0 45.0 -704.0 44.0C-701.0 -18.0 -739.0 -69.0 -781.0 -87.0C-798.0 -97.0 -809.0 -114.0 -802.0 -129.0C-793.0 -147.0 -762.0 -145.0 -739.0 -131.0C-703.0 -110.0 -662.0 -54.0 -685.0 45.0ZM36.0 0.0H-696.0V-30.0H36.0V0.0ZM-435.0 -349.0V-126.0H-479.0V-364.0H-473.0C-450.0 -364.0 -435.0 -353.0 -435.0 -349.0Z"/></g>
<g fill="black" opacity=".8" transform="translate(100 200) scale(0.1 -0.1)"><path d="M0.0 0.0H11.0C6.0 -30.0 -8.0 -84.0 -18.0 -114.0L-3.0 -122.0C20.0 -100.0 48.0 -64.0 65.0 -37.0C83.0 -36.0 95.0 -34.0 102.0 -28.0L36.0 36.0L0.0 0.0ZM-685.0 45.0 -704.0 44.0C-701.0 -18.0 -739.0 -69.0 -781.0 -87.0C-798.0 -97.0 -809.0 -114.0 -802.0 -129.0C-793.0 -147.0 -762.0 -145.0 -739.0 -131.0C-703.0 -110.0 -662.0 -54.0 -685.0 45.0ZM36.0 0.0H-696.0V-30.0H36.0V0.0ZM-435.0 -349.0V-126.0H-479.0V-364.0H-473.0C-450.0 -364.0 -435.0 -353.0 -435.0 -349.0Z"/></g>
<g fill="red" transform="translate(200 200) scale(0.1 -0.1)"><path d="M0.0 0.0H11.0C12.0 -32.0 11.0 -87.0 8.0 -122.0L14.0 -128.0C60.0 -112.0 118.0 -81.0 152.0 -57.0C173.0 -55.0 183.0 -52.0 191.0 -44.0L69.0 70.0L0.0 0.0ZM-600.0 60.0H-612.0C-611.0 23.0 -652.0 -12.0 -683.0 -26.0C-721.0 -42.0 -748.0 -75.0 -737.0 -120.0C-723.0 -168.0 -666.0 -184.0 -630.0 -164.0C-579.0 -136.0 -553.0 -53.0 -600.0 60.0ZM78.0 0.0H-607.0V-28.0H78.0V0.0ZM-309.0 -380.0V-139.0H-439.0V-404.0H-415.0C-349.0 -404.0 -310.0 -385.0 -309.0 -380.0Z"/></g>
<g fill="black" opacity=".8" transform="translate(200 200) scale(0.1 -0.1)"><path d="M0.0 0.0H11.0C12.0 -32.0 11.0 -87.0 8.0 -122.0L14.0 -128.0C60.0 -112.0 118.0 -81.0 152.0 -57.0C173.0 -55.0 183.0 -52.0 191.0 -44.0L69.0 70.0L0.0 0.0ZM-600.0 60.0H-612.0C-611.0 23.0 -652.0 -12.0 -683.0 -26.0C-721.0 -42.0 -748.0 -75.0 -737.0 -120.0C-723.0 -168.0 -666.0 -184.0 -630.0 -164.0C-579.0 -136.0 -553.0 -53.0 -600.0 60.0ZM78.0 0.0H-607.0V-28.0H78.0V0.0ZM-309.0 -380.0V-139.0H-439.0V-404.0H-415.0C-349.0 -404.0 -310.0 -385.0 -309.0 -380.0Z"/></g>
</svg>
