<?xml version="1.0" encoding="UTF-8"?>
<svg width="1700" height="900" xmlns="http://www.w3.org/2000/svg">
<rect width="100%" height="100%" fill="white"/>
<g fill="green" transform="translate(100 100) scale(0.1 -0.1)"><path d="M0.0 -0.0H-34.0V-193.0L-21.0 -158.0C-38.0 -162.0 -61.0 -174.0 -71.0 -182.0L-5.0 -233.0L19.0 -196.0H10.0V-6.0ZM47.0 19.0 -34.0 29.0V-47.0H10.0V-8.0C34.0 -4.0 45.0 5.0 47.0 19.0ZM908.0 10.0 826.0 19.0V-244.0H835.0C852.0 -244.0 870.0 -232.0 870.0 -226.0V-17.0C895.0 -14.0 905.0 -5.0 908.0 10.0ZM479.0 1.0 393.0 12.0V-181.0H437.0V-27.0C464.0 -23.0 477.0 -14.0 479.0 1.0ZM752.0 -261.0H54.0L53.0 -291.0H752.0Z"/></g>
<g fill="green" transform="translate(200 100) scale(0.1 -0.1)"><path d="M0.0 0.0H-131.0V-229.0L-106.0 -189.0C-126.0 -197.0 -154.0 -224.0 -170.0 -245.0L0.0 -345.0L51.0 -252.0H43.0V-26.0ZM94.0 15.0 -131.0 36.0V-41.0H43.0V-23.0C80.0 -18.0 91.0 -5.0 94.0 15.0ZM888.0 13.0 667.0 31.0V-323.0H696.0C767.0 -323.0 844.0 -298.0 844.0 -287.0V-21.0C878.0 -15.0 886.0 -3.0 888.0 13.0ZM486.0 -45.0 267.0 -29.0V-242.0H443.0V-78.0C476.0 -73.0 484.0 -61.0 486.0 -45.0ZM618.0 -315.0H93.0L92.0 -343.0H618.0Z"/></g>
<g fill="green" transform="translate(300 100) scale(0.1 -0.1)"><path d="M0.0 0.0H-15.0V-18.0L-10.0 0.0C-19.0 -2.0 -30.0 -8.0 -35.0 -11.0L-3.0 -39.0L9.0 -18.0H5.0V-3.0ZM21.0 4.0 -15.0 8.0V-26.0H5.0V-8.0C15.0 -6.0 20.0 -2.0 21.0 4.0ZM614.0 -6.0 576.0 -2.0V-35.0H580.0C588.0 -35.0 596.0 -30.0 596.0 -28.0V-18.0C607.0 -17.0 612.0 -13.0 614.0 -6.0ZM321.0 -76.0 278.0 -70.0V-10.0H298.0V-90.0C312.0 -87.0 320.0 -83.0 321.0 -76.0ZM491.0 -90.0H60.0L59.0 -104.0H491.0Z"/></g>
<g fill="green" transform="translate(400 100) scale(0.1 -0.1)"><path d="M0.0 0.0H-78.0V-51.0L-65.0 -32.0C-75.0 -36.0 -89.0 -51.0 -98.0 -63.0L0.0 -127.0L30.0 -65.0H26.0V-16.0ZM58.0 -1.0 -78.0 12.0V-23.0H26.0V-24.0C49.0 -21.0 56.0 -13.0 58.0 -1.0ZM598.0 -4.0 467.0 6.0V-101.0H484.0C527.0 -101.0 573.0 -88.0 573.0 -82.0V-23.0C593.0 -20.0 597.0 -13.0 598.0 -4.0ZM323.0 -121.0 195.0 -112.0V-62.0H299.0V-138.0C318.0 -136.0 322.0 -129.0 323.0 -121.0ZM389.0 -135.0H101.0V-148.0H389.0Z"/></g>
<g fill="green" transform="translate(500 100) scale(0.1 -0.1)"><path d="M0.0 0.0H-30.0V-621.0L-15.0 -595.0C-28.0 -599.0 -45.0 -610.0 -53.0 -618.0L-3.0 -657.0L14.0 -628.0H9.0V-5.0ZM41.0 17.0 -30.0 26.0V-40.0H9.0V-6.0C30.0 -3.0 39.0 5.0 41.0 17.0ZM477.0 8.0 406.0 17.0V-697.0H414.0C429.0 -697.0 445.0 -686.0 445.0 -680.0V-15.0C467.0 -12.0 474.0 -4.0 477.0 8.0ZM260.0 158.0 187.0 167.0V-615.0H226.0V133.0C249.0 137.0 258.0 145.0 260.0 158.0ZM331.0 -664.0H50.0L49.0 -690.0H331.0Z"/></g>
<g fill="green" transform="translate(600 100) scale(0.1 -0.1)"><path d="M0.0 0.0H-93.0V-694.0L-73.0 -660.0C-88.0 -667.0 -110.0 -686.0 -121.0 -702.0L2.0 -784.0L39.0 -710.0H30.0V-18.0ZM67.0 7.0 -93.0 22.0V-45.0H30.0V-22.0C56.0 -18.0 65.0 -8.0 67.0 7.0ZM466.0 5.0 307.0 20.0V-808.0H331.0C378.0 -808.0 433.0 -777.0 433.0 -763.0V-21.0C458.0 -17.0 464.0 -8.0 466.0 5.0ZM272.0 92.0 109.0 107.0V-702.0H235.0V64.0C262.0 67.0 270.0 78.0 272.0 92.0ZM249.0 -744.0H96.0L95.0 -768.0H249.0Z"/></g>
<g fill="green" transform="translate(700 100) scale(0.1 -0.1)"><path d="M0.0 -0.0H-35.0V-244.0L-22.0 -208.0C-40.0 -211.0 -64.0 -221.0 -74.0 -231.0L-5.0 -282.0L20.0 -247.0H10.0V-6.0ZM49.0 14.0 -35.0 25.0V-53.0H10.0V-14.0C35.0 -10.0 46.0 0.0 49.0 14.0ZM892.0 7.0 807.0 16.0V-310.0H816.0C834.0 -310.0 853.0 -298.0 853.0 -292.0V-21.0C878.0 -18.0 888.0 -9.0 892.0 7.0ZM468.0 254.0 386.0 264.0V-224.0H431.0V227.0C456.0 230.0 466.0 239.0 468.0 254.0ZM813.0 -6.0H-47.0L-39.0 -37.0H813.0Z"/></g>
<g fill="green" transform="translate(800 100) scale(0.1 -0.1)"><path d="M0.0 0.0H-122.0V-237.0L-98.0 -197.0C-119.0 -205.0 -147.0 -231.0 -163.0 -251.0L-1.0 -340.0L47.0 -259.0H41.0V-24.0ZM84.0 27.0 -122.0 47.0V-32.0H41.0V-7.0C73.0 -2.0 82.0 10.0 84.0 27.0ZM871.0 27.0 668.0 43.0V-341.0H697.0C761.0 -341.0 834.0 -316.0 834.0 -305.0V-3.0C862.0 1.0 869.0 12.0 871.0 27.0ZM482.0 227.0 273.0 244.0V-239.0H439.0V194.0C471.0 200.0 480.0 211.0 482.0 227.0ZM737.0 -31.0H-18.0L-11.0 -60.0H737.0Z"/></g>
<g fill="green" transform="translate(900 100) scale(0.1 -0.1)"><path d="M0.0 0.0H-37.0V-132.0L-23.0 -95.0C-41.0 -99.0 -65.0 -112.0 -76.0 -121.0L-5.0 -172.0L20.0 -136.0H11.0V-6.0ZM51.0 36.0 -37.0 47.0V-35.0H11.0V6.0C36.0 11.0 48.0 20.0 51.0 36.0ZM895.0 34.0 807.0 43.0V-193.0H817.0C834.0 -193.0 854.0 -181.0 854.0 -174.0V5.0C881.0 8.0 892.0 18.0 895.0 34.0ZM476.0 122.0 386.0 133.0V-117.0H433.0V93.0C461.0 96.0 474.0 106.0 476.0 122.0ZM706.0 -407.0H103.0L96.0 -439.0H706.0Z"/></g>
<g fill="green" transform="translate(1000 100) scale(0.1 -0.1)"><path d="M0.0 0.0H-133.0V-178.0L-108.0 -136.0C-129.0 -144.0 -159.0 -172.0 -175.0 -194.0L0.0 -287.0L51.0 -202.0H44.0V-27.0ZM93.0 26.0 -133.0 47.0V-35.0H44.0V-11.0C80.0 -6.0 91.0 7.0 93.0 26.0ZM907.0 18.0 680.0 37.0V-276.0H710.0C783.0 -276.0 862.0 -252.0 862.0 -242.0V-16.0C897.0 -10.0 905.0 3.0 907.0 18.0ZM496.0 80.0 272.0 97.0V-189.0H452.0V47.0C486.0 52.0 494.0 64.0 496.0 80.0ZM612.0 -460.0H123.0L116.0 -490.0H612.0Z"/></g>
<g fill="green" transform="translate(1100 100) scale(0.1 -0.1)"><path d="M0.0 -0.0H-46.0V-198.0L-27.0 -153.0C-49.0 -159.0 -79.0 -174.0 -92.0 -186.0L-6.0 -246.0L25.0 -204.0H14.0V-8.0ZM65.0 50.0 -46.0 64.0V-39.0H14.0V13.0C47.0 18.0 62.0 30.0 65.0 50.0ZM890.0 46.0 780.0 59.0V-268.0H792.0C815.0 -268.0 839.0 -253.0 839.0 -244.0V10.0C873.0 14.0 886.0 26.0 890.0 46.0ZM474.0 -20.0 364.0 -6.0V-189.0H423.0V-55.0C457.0 -52.0 472.0 -40.0 474.0 -20.0ZM717.0 -258.0H50.0L49.0 -299.0H717.0Z"/></g>
<g fill="green" transform="translate(1200 100) scale(0.1 -0.1)"><path d="M0.0 0.0H-142.0V-221.0L-111.0 -169.0C-136.0 -179.0 -172.0 -210.0 -191.0 -234.0L-1.0 -331.0L55.0 -245.0H46.0V-28.0ZM97.0 33.0 -142.0 56.0V-48.0H46.0V-6.0C82.0 -1.0 94.0 13.0 97.0 33.0ZM923.0 33.0 680.0 53.0V-325.0H713.0C789.0 -325.0 874.0 -299.0 874.0 -288.0V-5.0C911.0 2.0 920.0 15.0 923.0 33.0ZM510.0 -41.0 268.0 -23.0V-230.0H460.0V-81.0C497.0 -75.0 508.0 -60.0 510.0 -41.0ZM649.0 -297.0H70.0V-335.0H649.0Z"/></g>
<g fill="green" transform="translate(1300 100) scale(0.1 -0.1)"><path d="M0.0 0.0H-36.0V-221.0L-22.0 -185.0C-40.0 -189.0 -64.0 -202.0 -74.0 -210.0L-5.0 -264.0L20.0 -225.0H11.0V-6.0ZM50.0 -12.0 -36.0 -1.0V-82.0H11.0V-41.0C36.0 -37.0 48.0 -27.0 50.0 -12.0ZM919.0 -17.0 833.0 -8.0V-292.0H842.0C861.0 -292.0 880.0 -280.0 880.0 -274.0V-46.0C906.0 -42.0 916.0 -33.0 919.0 -17.0ZM489.0 -39.0 400.0 -27.0V-216.0H446.0V-68.0C474.0 -63.0 487.0 -54.0 489.0 -39.0ZM777.0 -316.0H56.0L50.0 -348.0H777.0Z"/></g>
<g fill="green" transform="translate(1400 100) scale(0.1 -0.1)"><path d="M0.0 0.0H-135.0V-182.0L-108.0 -139.0C-129.0 -148.0 -159.0 -175.0 -175.0 -197.0L1.0 -300.0L53.0 -205.0H45.0V-27.0ZM101.0 18.0 -135.0 40.0V-41.0H45.0V-24.0C86.0 -18.0 98.0 -4.0 101.0 18.0ZM867.0 16.0 643.0 34.0V-293.0H671.0C743.0 -293.0 821.0 -268.0 821.0 -257.0V-19.0C856.0 -14.0 865.0 -1.0 867.0 16.0ZM478.0 -12.0 253.0 4.0V-196.0H435.0V-46.0C469.0 -41.0 477.0 -29.0 478.0 -12.0ZM649.0 -295.0H71.0L66.0 -324.0H649.0Z"/></g>
<g fill="green" transform="translate(1500 100) scale(0.1 -0.1)"><path d="M0.0 -0.0H-26.0V-203.0L-18.0 -173.0C-33.0 -174.0 -54.0 -183.0 -62.0 -189.0L-5.0 -236.0L16.0 -201.0H8.0V-5.0ZM37.0 29.0 -26.0 37.0V-22.0H7.0V8.0C26.0 11.0 35.0 18.0 37.0 29.0ZM888.0 14.0 826.0 21.0V-213.0H833.0C846.0 -213.0 860.0 -203.0 860.0 -198.0V-6.0C879.0 -4.0 886.0 3.0 888.0 14.0ZM454.0 0.0 389.0 9.0V-193.0H422.0V-22.0C443.0 -18.0 453.0 -11.0 454.0 0.0ZM834.0 -287.0H-22.0L-14.0 -310.0H834.0Z"/></g>
<g fill="green" transform="translate(1600 100) scale(0.1 -0.1)"><path d="M0.0 0.0H-109.0V-238.0L-89.0 -208.0C-106.0 -215.0 -130.0 -237.0 -144.0 -255.0L-3.0 -347.0L43.0 -258.0H36.0V-21.0ZM75.0 19.0 -109.0 36.0V-23.0H36.0V-12.0C65.0 -7.0 74.0 3.0 75.0 19.0ZM873.0 20.0 692.0 34.0V-299.0H717.0C775.0 -299.0 840.0 -277.0 840.0 -267.0V-7.0C865.0 -1.0 871.0 8.0 873.0 20.0ZM464.0 -60.0 283.0 -48.0V-250.0H424.0V-90.0C454.0 -85.0 461.0 -75.0 464.0 -60.0ZM706.0 -340.0H-20.0L-13.0 -361.0H706.0Z"/></g>
<g fill="green" transform="translate(100 200) scale(0.1 -0.1)"><path d="M0.0 0.0H-43.0V-173.0L-25.0 -131.0C-45.0 -137.0 -72.0 -152.0 -85.0 -162.0L-6.0 -220.0L23.0 -179.0H13.0V-8.0ZM59.0 17.0 -43.0 29.0V-67.0H13.0V-17.0C43.0 -12.0 56.0 -1.0 59.0 17.0ZM916.0 11.0 813.0 23.0V-248.0H824.0C845.0 -248.0 868.0 -234.0 868.0 -226.0V-22.0C899.0 -19.0 912.0 -8.0 916.0 11.0ZM489.0 8.0 383.0 21.0V-157.0H439.0V-26.0C471.0 -22.0 487.0 -11.0 489.0 8.0ZM791.0 -250.0H41.0L35.0 -288.0H791.0Z"/></g>
<g fill="green" transform="translate(200 200) scale(0.1 -0.1)"><path d="M0.0 0.0H-151.0V-229.0L-121.0 -180.0C-145.0 -189.0 -178.0 -221.0 -197.0 -245.0L0.0 -352.0L58.0 -256.0H49.0V-30.0ZM109.0 13.0 -151.0 38.0V-60.0H49.0V-32.0C91.0 -26.0 104.0 -11.0 109.0 13.0ZM885.0 11.0 628.0 32.0V-347.0H662.0C743.0 -347.0 833.0 -318.0 833.0 -306.0V-30.0C873.0 -22.0 882.0 -8.0 885.0 11.0ZM493.0 -49.0 239.0 -30.0V-244.0H446.0V-86.0C482.0 -81.0 492.0 -67.0 493.0 -49.0ZM634.0 -324.0H63.0L58.0 -359.0H634.0Z"/></g>
<g fill="green" transform="translate(300 200) scale(0.1 -0.1)"><path d="M0.0 0.0H-37.0V-202.0L-22.0 -165.0C-40.0 -169.0 -64.0 -183.0 -75.0 -191.0L-5.0 -243.0L20.0 -206.0H11.0V-7.0ZM51.0 37.0 -37.0 48.0V-35.0H10.0V8.0C37.0 12.0 49.0 22.0 51.0 37.0ZM924.0 34.0 834.0 44.0V-234.0H844.0C863.0 -234.0 882.0 -221.0 882.0 -215.0V4.0C910.0 8.0 920.0 17.0 924.0 34.0ZM488.0 -3.0 394.0 9.0V-192.0H441.0V-34.0C471.0 -30.0 486.0 -20.0 488.0 -3.0ZM770.0 -258.0H51.0L49.0 -291.0H770.0Z"/></g>
<g fill="green" transform="translate(400 200) scale(0.1 -0.1)"><path d="M0.0 0.0H-140.0V-237.0L-113.0 -194.0C-135.0 -202.0 -164.0 -231.0 -181.0 -253.0L0.0 -352.0L53.0 -262.0H46.0V-27.0ZM97.0 28.0 -140.0 50.0V-34.0H46.0V-11.0C84.0 -6.0 95.0 7.0 97.0 28.0ZM883.0 30.0 645.0 50.0V-300.0H675.0C752.0 -300.0 834.0 -276.0 834.0 -265.0V-7.0C872.0 -1.0 880.0 12.0 883.0 30.0ZM478.0 -37.0 249.0 -20.0V-250.0H435.0V-71.0C468.0 -65.0 476.0 -53.0 478.0 -37.0ZM584.0 -313.0H97.0L94.0 -344.0H584.0Z"/></g>
<g fill="red" transform="translate(100 300) scale(0.1 -0.1)"><path d="M0.0 0.0H-34.0V-543.0L-18.0 -513.0C-32.0 -517.0 -52.0 -529.0 -61.0 -538.0L-4.0 -579.0L17.0 -551.0H10.0V-6.0ZM47.0 21.0 -34.0 31.0V-45.0H10.0V-6.0C34.0 -2.0 45.0 7.0 47.0 21.0ZM552.0 19.0 471.0 29.0V-611.0H480.0C497.0 -611.0 515.0 -601.0 515.0 -593.0V-7.0C540.0 -4.0 549.0 5.0 552.0 19.0ZM298.0 251.0 218.0 261.0V-539.0H262.0V224.0C286.0 228.0 295.0 237.0 298.0 251.0ZM495.0 -521.0H-15.0V-551.0H495.0Z"/></g>
<g fill="black" opacity=".8" transform="translate(100 300) scale(0.1 -0.1)"><path d="M0.0 0.0H-35.0V-544.0L-19.0 -513.0C-35.0 -516.0 -55.0 -528.0 -65.0 -537.0L-4.0 -581.0L17.0 -550.0H11.0V-6.0ZM49.0 27.0 -35.0 38.0V-40.0H10.0V-1.0C35.0 3.0 46.0 12.0 49.0 27.0ZM557.0 25.0 474.0 35.0V-610.0H483.0C501.0 -610.0 519.0 -599.0 519.0 -592.0V-2.0C545.0 1.0 553.0 10.0 557.0 25.0ZM299.0 249.0 218.0 259.0V-536.0H262.0V221.0C287.0 225.0 297.0 234.0 299.0 249.0ZM491.0 -522.0H-17.0L-16.0 -553.0H491.0Z"/></g>
<g fill="red" transform="translate(200 300) scale(0.1 -0.1)"><path d="M0.0 0.0H-107.0V-573.0L-84.0 -534.0C-102.0 -542.0 -126.0 -564.0 -139.0 -582.0L3.0 -661.0L43.0 -592.0H36.0V-21.0ZM72.0 30.0 -107.0 47.0V-30.0H36.0V2.0C62.0 6.0 69.0 15.0 72.0 30.0ZM535.0 34.0 355.0 50.0V-656.0H382.0C436.0 -656.0 500.0 -625.0 500.0 -612.0V7.0C526.0 11.0 533.0 21.0 535.0 34.0ZM305.0 221.0 124.0 237.0V-580.0H268.0V191.0C296.0 196.0 303.0 206.0 305.0 221.0ZM401.0 -564.0H-7.0V-592.0H401.0Z"/></g>
<g fill="black" opacity=".8" transform="translate(200 300) scale(0.1 -0.1)"><path d="M0.0 0.0H-102.0V-570.0L-80.0 -532.0C-99.0 -539.0 -124.0 -561.0 -137.0 -579.0L0.0 -656.0L41.0 -589.0H34.0V-19.0ZM69.0 29.0 -102.0 45.0V-33.0H34.0V-1.0C60.0 4.0 68.0 14.0 69.0 29.0ZM530.0 30.0 357.0 46.0V-665.0H383.0C434.0 -665.0 496.0 -636.0 496.0 -624.0V2.0C521.0 6.0 527.0 16.0 530.0 30.0ZM301.0 223.0 125.0 239.0V-574.0H262.0V193.0C291.0 198.0 300.0 208.0 301.0 223.0ZM404.0 -562.0H-8.0V-591.0H404.0Z"/></g>
<g fill="red" transform="translate(300 300) scale(0.1 -0.1)"><path d="M0.0 0.0H-34.0V-200.0L-18.0 -170.0C-32.0 -175.0 -52.0 -187.0 -61.0 -195.0L-4.0 -232.0L17.0 -208.0H10.0V-6.0ZM47.0 17.0 -34.0 27.0V-49.0H10.0V-10.0C34.0 -6.0 45.0 3.0 47.0 17.0ZM453.0 27.0 371.0 36.0V-264.0H380.0C397.0 -264.0 415.0 -254.0 415.0 -247.0V0.0C440.0 3.0 450.0 12.0 453.0 27.0ZM247.0 92.0 166.0 102.0V-194.0H209.0V66.0C234.0 69.0 244.0 78.0 247.0 92.0ZM405.0 -179.0H-7.0V-209.0H405.0Z"/></g>
<g fill="black" opacity=".8" transform="translate(300 300) scale(0.1 -0.1)"><path d="M0.0 0.0H-34.0V-203.0L-18.0 -172.0C-33.0 -176.0 -52.0 -188.0 -62.0 -197.0L-4.0 -235.0L17.0 -210.0H12.0V-7.0ZM48.0 24.0 -34.0 34.0V-43.0H10.0V-4.0C34.0 -0.0 45.0 9.0 48.0 24.0ZM453.0 29.0 371.0 40.0V-261.0H379.0C397.0 -261.0 415.0 -251.0 415.0 -245.0V3.0C440.0 6.0 448.0 14.0 453.0 29.0ZM248.0 91.0 170.0 101.0V-197.0H213.0V66.0C236.0 68.0 247.0 76.0 248.0 91.0ZM414.0 -183.0H-11.0L-16.0 -214.0H414.0Z"/></g>
<g fill="red" transform="translate(400 300) scale(0.1 -0.1)"><path d="M0.0 0.0H-96.0V-203.0L-74.0 -165.0C-92.0 -172.0 -115.0 -193.0 -128.0 -209.0L1.0 -264.0L36.0 -220.0H32.0V-19.0ZM68.0 29.0 -96.0 45.0V-32.0H32.0V1.0C57.0 5.0 65.0 14.0 68.0 29.0ZM432.0 45.0 273.0 59.0V-251.0H294.0C342.0 -251.0 395.0 -233.0 395.0 -225.0V17.0C422.0 22.0 429.0 32.0 432.0 45.0ZM251.0 106.0 89.0 120.0V-208.0H220.0V82.0C243.0 86.0 249.0 94.0 251.0 106.0ZM363.0 -192.0H-17.0V-220.0H363.0Z"/></g>
<g fill="black" opacity=".8" transform="translate(400 300) scale(0.1 -0.1)"><path d="M0.0 0.0H-93.0V-196.0L-72.0 -159.0C-90.0 -166.0 -114.0 -186.0 -126.0 -202.0L-0.0 -256.0L35.0 -213.0H31.0V-18.0ZM63.0 29.0 -93.0 45.0V-32.0H31.0V2.0C53.0 6.0 61.0 15.0 63.0 29.0ZM433.0 31.0 272.0 45.0V-264.0H295.0C343.0 -264.0 400.0 -245.0 400.0 -238.0V6.0C425.0 9.0 429.0 18.0 433.0 31.0ZM247.0 108.0 89.0 121.0V-199.0H217.0V83.0C240.0 86.0 248.0 96.0 247.0 108.0ZM344.0 -188.0H-22.0L-26.0 -216.0H344.0Z"/></g>
<g fill="red" transform="translate(500 300) scale(0.1 -0.1)"><path d="M0.0 0.0H-34.0V-200.0L-18.0 -170.0C-32.0 -175.0 -52.0 -187.0 -61.0 -195.0L-4.0 -232.0L17.0 -208.0H10.0V-6.0ZM47.0 18.0 -34.0 28.0V-48.0H10.0V-9.0C34.0 -5.0 45.0 4.0 47.0 18.0ZM501.0 27.0 419.0 36.0V-264.0H428.0C445.0 -264.0 463.0 -254.0 463.0 -247.0V0.0C488.0 3.0 498.0 12.0 501.0 27.0ZM271.0 92.0 190.0 102.0V-194.0H234.0V66.0C258.0 69.0 269.0 78.0 271.0 92.0ZM446.0 -179.0H-13.0V-209.0H446.0Z"/></g>
<g fill="black" opacity=".8" transform="translate(500 300) scale(0.1 -0.1)"><path d="M0.0 0.0H-35.0V-202.0L-18.0 -170.0C-34.0 -174.0 -54.0 -186.0 -65.0 -195.0L-4.0 -235.0L17.0 -209.0H12.0V-7.0ZM49.0 24.0 -35.0 34.0V-44.0H11.0V-4.0C35.0 -1.0 46.0 9.0 49.0 24.0ZM503.0 27.0 420.0 38.0V-265.0H429.0C447.0 -265.0 465.0 -255.0 465.0 -249.0V1.0C490.0 4.0 499.0 12.0 503.0 27.0ZM274.0 96.0 194.0 106.0V-195.0H238.0V70.0C262.0 72.0 273.0 80.0 274.0 96.0ZM443.0 -179.0H-2.0L-6.0 -211.0H443.0Z"/></g>
<g fill="red" transform="translate(600 300) scale(0.1 -0.1)"><path d="M0.0 0.0H-99.0V-203.0L-77.0 -165.0C-94.0 -172.0 -118.0 -193.0 -131.0 -210.0L1.0 -265.0L37.0 -220.0H32.0V-20.0ZM69.0 29.0 -99.0 45.0V-32.0H32.0V1.0C58.0 4.0 66.0 14.0 69.0 29.0ZM500.0 26.0 327.0 40.0V-275.0H350.0C404.0 -275.0 463.0 -256.0 463.0 -248.0V-3.0C491.0 2.0 498.0 12.0 500.0 26.0ZM281.0 106.0 111.0 120.0V-208.0H251.0V82.0C274.0 85.0 280.0 94.0 281.0 106.0ZM371.0 -192.0H-9.0V-220.0H371.0Z"/></g>
<g fill="black" opacity=".8" transform="translate(600 300) scale(0.1 -0.1)"><path d="M0.0 0.0H-98.0V-201.0L-75.0 -163.0C-94.0 -169.0 -118.0 -191.0 -132.0 -207.0L-0.0 -267.0L37.0 -218.0H32.0V-19.0ZM66.0 27.0 -98.0 44.0V-35.0H32.0V-1.0C56.0 3.0 64.0 13.0 66.0 27.0ZM493.0 28.0 326.0 42.0V-278.0H349.0C399.0 -278.0 459.0 -259.0 459.0 -251.0V2.0C484.0 5.0 490.0 15.0 493.0 28.0ZM281.0 103.0 114.0 117.0V-204.0H249.0V77.0C273.0 80.0 281.0 90.0 281.0 103.0ZM382.0 -191.0H-6.0L-8.0 -220.0H382.0Z"/></g>
<g fill="red" transform="translate(700 300) scale(0.1 -0.1)"><path d="M0.0 0.0H-34.0V-195.0L-21.0 -161.0C-37.0 -166.0 -60.0 -175.0 -70.0 -184.0L-5.0 -229.0L19.0 -199.0H10.0V-6.0ZM48.0 13.0 -34.0 23.0V-53.0H10.0V-15.0C34.0 -11.0 46.0 -2.0 48.0 13.0ZM676.0 14.0 594.0 23.0V-269.0H603.0C620.0 -269.0 638.0 -258.0 638.0 -251.0V-13.0C663.0 -10.0 673.0 -1.0 676.0 14.0ZM361.0 329.0 285.0 338.0V-179.0H329.0V304.0C351.0 307.0 359.0 316.0 361.0 329.0ZM632.0 -170.0H-24.0V-200.0H632.0Z"/></g>
<g fill="black" opacity=".8" transform="translate(700 300) scale(0.1 -0.1)"><path d="M0.0 0.0H-34.0V-195.0L-21.0 -162.0C-38.0 -164.0 -59.0 -175.0 -69.0 -184.0L-4.0 -228.0L18.0 -200.0H11.0V-6.0ZM48.0 12.0 -34.0 22.0V-54.0H10.0V-17.0C34.0 -12.0 44.0 -3.0 48.0 12.0ZM676.0 15.0 594.0 24.0V-272.0H603.0C620.0 -272.0 639.0 -262.0 639.0 -256.0V-11.0C663.0 -9.0 672.0 -0.0 676.0 15.0ZM361.0 331.0 285.0 340.0V-179.0H328.0V307.0C351.0 309.0 359.0 317.0 361.0 331.0ZM633.0 -170.0H-25.0L-27.0 -200.0H633.0Z"/></g>
<g fill="red" transform="translate(800 300) scale(0.1 -0.1)"><path d="M0.0 0.0H-104.0V-160.0L-82.0 -123.0C-101.0 -130.0 -128.0 -153.0 -142.0 -170.0L-1.0 -239.0L40.0 -179.0H35.0V-21.0ZM72.0 36.0 -104.0 53.0V-24.0H35.0V7.0C61.0 11.0 70.0 21.0 72.0 36.0ZM665.0 33.0 494.0 47.0V-263.0H518.0C571.0 -263.0 632.0 -243.0 632.0 -235.0V8.0C656.0 11.0 663.0 21.0 665.0 33.0ZM372.0 353.0 195.0 368.0V-162.0H335.0V324.0C363.0 329.0 370.0 339.0 372.0 353.0ZM614.0 -151.0H-43.0V-179.0H614.0Z"/></g>
<g fill="black" opacity=".8" transform="translate(800 300) scale(0.1 -0.1)"><path d="M0.0 0.0H-103.0V-160.0L-82.0 -123.0C-101.0 -130.0 -128.0 -152.0 -141.0 -170.0L-1.0 -236.0L39.0 -180.0H35.0V-21.0ZM70.0 36.0 -103.0 53.0V-23.0H35.0V6.0C61.0 11.0 69.0 22.0 70.0 36.0ZM665.0 32.0 493.0 45.0V-261.0H518.0C571.0 -261.0 634.0 -240.0 634.0 -231.0V6.0C657.0 9.0 663.0 19.0 665.0 32.0ZM373.0 350.0 194.0 366.0V-160.0H336.0V322.0C364.0 327.0 372.0 336.0 373.0 350.0ZM609.0 -152.0H-47.0L-48.0 -180.0H609.0Z"/></g>
<g fill="red" transform="translate(900 300) scale(0.1 -0.1)"><path d="M0.0 0.0H-34.0V-459.0L-18.0 -430.0C-32.0 -434.0 -52.0 -445.0 -61.0 -454.0L-4.0 -491.0L17.0 -467.0H10.0V-6.0ZM48.0 43.0 -34.0 53.0V-23.0H10.0V15.0C35.0 19.0 46.0 28.0 48.0 43.0ZM308.0 46.0 227.0 56.0V-553.0H236.0C253.0 -553.0 271.0 -542.0 271.0 -534.0V20.0C296.0 23.0 305.0 32.0 308.0 46.0ZM171.0 222.0 95.0 231.0V-458.0H139.0V197.0C161.0 199.0 169.0 208.0 171.0 222.0ZM259.0 -438.0H-16.0V-468.0H259.0Z"/></g>
<g fill="black" opacity=".8" transform="translate(900 300) scale(0.1 -0.1)"><path d="M0.0 0.0H-36.0V-462.0L-17.0 -431.0C-33.0 -436.0 -53.0 -447.0 -63.0 -457.0L-3.0 -495.0L17.0 -470.0H12.0V-6.0ZM51.0 41.0 -36.0 52.0V-27.0H11.0V13.0C36.0 16.0 47.0 26.0 51.0 41.0ZM309.0 44.0 225.0 56.0V-537.0H234.0C252.0 -537.0 271.0 -527.0 271.0 -519.0V18.0C297.0 21.0 305.0 29.0 309.0 44.0ZM173.0 215.0 95.0 224.0V-458.0H140.0V189.0C164.0 191.0 172.0 200.0 173.0 215.0ZM258.0 -439.0H-19.0L-20.0 -471.0H258.0Z"/></g>
<g fill="red" transform="translate(1000 300) scale(0.1 -0.1)"><path d="M0.0 0.0H-80.0V-478.0L-60.0 -442.0C-77.0 -448.0 -99.0 -467.0 -111.0 -481.0L0.0 -531.0L31.0 -492.0H26.0V-16.0ZM49.0 30.0 -80.0 43.0V-34.0H26.0V10.0C42.0 13.0 47.0 20.0 49.0 30.0ZM337.0 33.0 196.0 46.0V-554.0H218.0C259.0 -554.0 310.0 -531.0 310.0 -521.0V11.0C329.0 14.0 335.0 22.0 337.0 33.0ZM198.0 204.0 57.0 217.0V-473.0H166.0V178.0C189.0 182.0 196.0 191.0 198.0 204.0ZM260.0 -464.0H-34.0V-492.0H260.0Z"/></g>
<g fill="black" opacity=".8" transform="translate(1000 300) scale(0.1 -0.1)"><path d="M0.0 0.0H-78.0V-478.0L-58.0 -440.0C-75.0 -447.0 -99.0 -465.0 -111.0 -480.0L-0.0 -530.0L31.0 -491.0H26.0V-15.0ZM49.0 33.0 -78.0 47.0V-33.0H26.0V11.0C42.0 15.0 49.0 23.0 49.0 33.0ZM335.0 35.0 198.0 48.0V-566.0H220.0C258.0 -566.0 307.0 -543.0 307.0 -533.0V13.0C327.0 16.0 331.0 23.0 335.0 35.0ZM201.0 212.0 59.0 226.0V-476.0H167.0V185.0C190.0 189.0 200.0 199.0 201.0 212.0ZM262.0 -461.0H-33.0L-32.0 -490.0H262.0Z"/></g>
<g fill="red" transform="translate(1100 300) scale(0.1 -0.1)"><path d="M0.0 0.0H-34.0V-639.0L-18.0 -610.0C-32.0 -615.0 -52.0 -627.0 -61.0 -634.0L-4.0 -677.0L17.0 -647.0H10.0V-6.0ZM49.0 22.0 -34.0 32.0V-44.0H10.0V-6.0C35.0 -3.0 47.0 7.0 49.0 22.0ZM414.0 20.0 334.0 30.0V-711.0H343.0C360.0 -711.0 378.0 -699.0 378.0 -691.0V-7.0C403.0 -3.0 412.0 6.0 414.0 20.0ZM227.0 160.0 147.0 170.0V-639.0H191.0V133.0C215.0 137.0 224.0 146.0 227.0 160.0ZM350.0 -618.0H-10.0V-648.0H350.0Z"/></g>
<g fill="black" opacity=".8" transform="translate(1100 300) scale(0.1 -0.1)"><path d="M0.0 0.0H-36.0V-640.0L-18.0 -609.0C-34.0 -613.0 -55.0 -626.0 -64.0 -635.0L-3.0 -678.0L17.0 -648.0H12.0V-6.0ZM51.0 20.0 -36.0 32.0V-49.0H11.0V-8.0C37.0 -5.0 48.0 5.0 51.0 20.0ZM418.0 22.0 333.0 33.0V-717.0H342.0C361.0 -717.0 380.0 -705.0 380.0 -698.0V-6.0C407.0 -1.0 414.0 7.0 418.0 22.0ZM230.0 170.0 149.0 181.0V-643.0H194.0V142.0C220.0 146.0 229.0 155.0 230.0 170.0ZM343.0 -618.0H-8.0L-9.0 -650.0H343.0Z"/></g>
<g fill="red" transform="translate(1200 300) scale(0.1 -0.1)"><path d="M0.0 0.0H-93.0V-616.0L-71.0 -579.0C-89.0 -586.0 -112.0 -606.0 -125.0 -622.0L1.0 -695.0L39.0 -632.0H31.0V-18.0ZM67.0 32.0 -93.0 48.0V-29.0H31.0V4.0C56.0 8.0 65.0 18.0 67.0 32.0ZM396.0 36.0 241.0 51.0V-714.0H263.0C309.0 -714.0 361.0 -687.0 361.0 -675.0V10.0C387.0 13.0 394.0 23.0 396.0 36.0ZM235.0 214.0 76.0 229.0V-621.0H199.0V185.0C226.0 189.0 233.0 199.0 235.0 214.0ZM295.0 -604.0H-4.0V-632.0H295.0Z"/></g>
<g fill="black" opacity=".8" transform="translate(1200 300) scale(0.1 -0.1)"><path d="M0.0 0.0H-91.0V-616.0L-68.0 -576.0C-86.0 -584.0 -112.0 -603.0 -124.0 -620.0L1.0 -688.0L37.0 -631.0H30.0V-17.0ZM62.0 35.0 -91.0 49.0V-31.0H30.0V7.0C53.0 11.0 62.0 21.0 62.0 35.0ZM395.0 38.0 241.0 53.0V-711.0H264.0C308.0 -711.0 362.0 -684.0 362.0 -671.0V13.0C386.0 15.0 392.0 24.0 395.0 38.0ZM231.0 204.0 73.0 219.0V-618.0H195.0V174.0C221.0 178.0 230.0 189.0 231.0 204.0ZM294.0 -604.0H-10.0L-11.0 -633.0H294.0Z"/></g>
<g fill="red" transform="translate(1300 300) scale(0.1 -0.1)"><path d="M0.0 0.0H-34.0V-195.0L-21.0 -161.0C-37.0 -166.0 -60.0 -175.0 -70.0 -184.0L-5.0 -229.0L19.0 -199.0H10.0V-6.0ZM48.0 30.0 -34.0 40.0V-36.0H10.0V2.0C35.0 6.0 46.0 15.0 48.0 30.0ZM677.0 31.0 595.0 40.0V-238.0H604.0C621.0 -238.0 639.0 -227.0 639.0 -220.0V4.0C664.0 7.0 674.0 16.0 677.0 31.0ZM360.0 75.0 279.0 85.0V-187.0H323.0V49.0C347.0 52.0 358.0 61.0 360.0 75.0ZM618.0 -169.0H-19.0V-199.0H618.0Z"/></g>
<g fill="black" opacity=".8" transform="translate(1300 300) scale(0.1 -0.1)"><path d="M0.0 0.0H-35.0V-192.0L-21.0 -157.0C-38.0 -161.0 -61.0 -172.0 -71.0 -181.0L-5.0 -228.0L19.0 -196.0H11.0V-6.0ZM50.0 33.0 -35.0 44.0V-35.0H11.0V5.0C36.0 8.0 47.0 18.0 50.0 33.0ZM682.0 32.0 598.0 41.0V-244.0H607.0C625.0 -244.0 644.0 -233.0 644.0 -227.0V4.0C669.0 7.0 678.0 16.0 682.0 32.0ZM361.0 74.0 280.0 85.0V-185.0H324.0V48.0C349.0 51.0 359.0 60.0 361.0 74.0ZM605.0 -165.0H-11.0L-9.0 -197.0H605.0Z"/></g>
<g fill="red" transform="translate(1400 300) scale(0.1 -0.1)"><path d="M0.0 0.0H-106.0V-174.0L-84.0 -136.0C-103.0 -144.0 -129.0 -167.0 -144.0 -185.0L-1.0 -254.0L41.0 -193.0H36.0V-21.0ZM73.0 35.0 -106.0 52.0V-25.0H36.0V6.0C63.0 10.0 71.0 20.0 73.0 35.0ZM698.0 37.0 516.0 52.0V-258.0H540.0C598.0 -258.0 661.0 -238.0 661.0 -230.0V9.0C689.0 13.0 696.0 24.0 698.0 37.0ZM384.0 80.0 204.0 94.0V-178.0H348.0V52.0C375.0 56.0 382.0 66.0 384.0 80.0ZM554.0 -165.0H-2.0V-193.0H554.0Z"/></g>
<g fill="black" opacity=".8" transform="translate(1400 300) scale(0.1 -0.1)"><path d="M0.0 0.0H-105.0V-177.0L-82.0 -138.0C-101.0 -146.0 -129.0 -168.0 -143.0 -187.0L-2.0 -257.0L40.0 -195.0H35.0V-20.0ZM70.0 33.0 -105.0 51.0V-28.0H35.0V5.0C60.0 9.0 69.0 19.0 70.0 33.0ZM693.0 35.0 516.0 49.0V-254.0H541.0C595.0 -254.0 659.0 -234.0 659.0 -226.0V8.0C684.0 12.0 690.0 22.0 693.0 35.0ZM382.0 81.0 203.0 95.0V-180.0H344.0V51.0C372.0 56.0 381.0 67.0 382.0 81.0ZM562.0 -167.0H-15.0L-12.0 -196.0H562.0Z"/></g>
<g fill="red" transform="translate(1500 300) scale(0.1 -0.1)"><path d="M0.0 0.0H-34.0V-459.0L-18.0 -430.0C-32.0 -434.0 -52.0 -445.0 -61.0 -454.0L-4.0 -491.0L17.0 -467.0H10.0V-6.0ZM48.0 43.0 -34.0 53.0V-23.0H10.0V15.0C35.0 19.0 46.0 28.0 48.0 43.0ZM310.0 46.0 229.0 56.0V-516.0H238.0C255.0 -516.0 273.0 -506.0 273.0 -498.0V20.0C298.0 23.0 307.0 32.0 310.0 46.0ZM173.0 209.0 97.0 218.0V-452.0H141.0V184.0C163.0 186.0 171.0 195.0 173.0 209.0ZM258.0 -438.0H-8.0V-468.0H258.0Z"/></g>
<g fill="black" opacity=".8" transform="translate(1500 300) scale(0.1 -0.1)"><path d="M0.0 0.0H-34.0V-455.0L-16.0 -427.0C-31.0 -431.0 -50.0 -442.0 -59.0 -451.0L-3.0 -487.0L16.0 -463.0H11.0V-6.0ZM48.0 42.0 -34.0 53.0V-22.0H10.0V16.0C34.0 19.0 44.0 28.0 48.0 42.0ZM309.0 45.0 230.0 56.0V-520.0H238.0C256.0 -520.0 273.0 -510.0 273.0 -504.0V20.0C298.0 23.0 305.0 31.0 309.0 45.0ZM172.0 207.0 98.0 216.0V-452.0H140.0V182.0C162.0 184.0 171.0 193.0 172.0 207.0ZM262.0 -437.0H-20.0V-467.0H262.0Z"/></g>
<g fill="red" transform="translate(1600 300) scale(0.1 -0.1)"><path d="M0.0 0.0H-77.0V-478.0L-57.0 -442.0C-74.0 -449.0 -96.0 -467.0 -108.0 -481.0L0.0 -529.0L31.0 -492.0H25.0V-15.0ZM48.0 30.0 -77.0 43.0V-34.0H25.0V11.0C41.0 14.0 47.0 20.0 48.0 30.0ZM326.0 33.0 190.0 46.0V-554.0H211.0C250.0 -554.0 299.0 -531.0 299.0 -522.0V11.0C318.0 15.0 324.0 23.0 326.0 33.0ZM192.0 197.0 55.0 210.0V-480.0H160.0V171.0C183.0 175.0 190.0 184.0 192.0 197.0ZM253.0 -464.0H-31.0V-492.0H253.0Z"/></g>
<g fill="black" opacity=".8" transform="translate(1600 300) scale(0.1 -0.1)"><path d="M0.0 0.0H-77.0V-478.0L-57.0 -443.0C-73.0 -449.0 -96.0 -466.0 -107.0 -480.0L-0.0 -530.0L30.0 -491.0H25.0V-14.0ZM48.0 32.0 -77.0 46.0V-30.0H25.0V11.0C41.0 15.0 48.0 22.0 48.0 32.0ZM325.0 35.0 192.0 47.0V-555.0H214.0C251.0 -555.0 299.0 -533.0 299.0 -523.0V13.0C318.0 16.0 322.0 23.0 325.0 35.0ZM193.0 198.0 57.0 212.0V-477.0H161.0V173.0C183.0 176.0 192.0 186.0 193.0 198.0ZM246.0 -466.0H-29.0L-28.0 -494.0H246.0Z"/></g>
<g fill="red" transform="translate(100 400) scale(0.1 -0.1)"><path d="M0.0 0.0H-34.0V-126.0L-21.0 -92.0C-37.0 -96.0 -60.0 -106.0 -70.0 -115.0L-5.0 -160.0L19.0 -129.0H10.0V-6.0ZM48.0 50.0 -34.0 60.0V-16.0H10.0V22.0C34.0 26.0 46.0 35.0 48.0 50.0ZM676.0 51.0 595.0 60.0V-164.0H604.0C620.0 -164.0 638.0 -153.0 638.0 -146.0V24.0C664.0 27.0 674.0 36.0 676.0 51.0ZM360.0 74.0 279.0 84.0V-119.0H322.0V48.0C347.0 51.0 358.0 60.0 360.0 74.0ZM617.0 -99.0H-12.0V-129.0H617.0Z"/></g>
<g fill="black" opacity=".8" transform="translate(100 400) scale(0.1 -0.1)"><path d="M0.0 0.0H-35.0V-125.0L-21.0 -90.0C-38.0 -93.0 -61.0 -105.0 -72.0 -114.0L-5.0 -159.0L19.0 -129.0H11.0V-7.0ZM51.0 47.0 -35.0 58.0V-22.0H10.0V18.0C36.0 22.0 47.0 32.0 51.0 47.0ZM681.0 47.0 596.0 57.0V-165.0H605.0C623.0 -165.0 641.0 -154.0 641.0 -148.0V20.0C667.0 23.0 677.0 31.0 681.0 47.0ZM359.0 75.0 277.0 86.0V-116.0H322.0V49.0C347.0 51.0 358.0 60.0 359.0 75.0ZM607.0 -97.0H-12.0L-10.0 -129.0H607.0Z"/></g>
<g fill="red" transform="translate(200 400) scale(0.1 -0.1)"><path d="M0.0 0.0H-106.0V-123.0L-84.0 -85.0C-103.0 -93.0 -129.0 -116.0 -144.0 -134.0L-1.0 -203.0L41.0 -142.0H36.0V-21.0ZM74.0 34.0 -106.0 51.0V-26.0H36.0V5.0C63.0 9.0 71.0 19.0 74.0 34.0ZM696.0 36.0 514.0 51.0V-185.0H538.0C596.0 -185.0 659.0 -168.0 659.0 -160.0V8.0C687.0 13.0 694.0 23.0 696.0 36.0ZM384.0 72.0 204.0 85.0V-125.0H348.0V43.0C375.0 48.0 382.0 58.0 384.0 72.0ZM556.0 -114.0H0.0V-142.0H556.0Z"/></g>
<g fill="black" opacity=".8" transform="translate(200 400) scale(0.1 -0.1)"><path d="M0.0 0.0H-106.0V-125.0L-83.0 -86.0C-103.0 -93.0 -130.0 -117.0 -145.0 -135.0L-2.0 -201.0L40.0 -144.0H35.0V-21.0ZM69.0 37.0 -106.0 55.0V-25.0H35.0V10.0C59.0 14.0 68.0 24.0 69.0 37.0ZM696.0 40.0 515.0 54.0V-185.0H541.0C597.0 -185.0 662.0 -167.0 662.0 -159.0V12.0C688.0 17.0 693.0 26.0 696.0 40.0ZM381.0 71.0 201.0 85.0V-128.0H344.0V42.0C371.0 47.0 380.0 57.0 381.0 71.0ZM551.0 -114.0H-14.0L-11.0 -144.0H551.0Z"/></g>
<g fill="red" transform="translate(300 400) scale(0.1 -0.1)"><path d="M0.0 0.0H-34.0V-459.0L-18.0 -430.0C-32.0 -434.0 -52.0 -445.0 -61.0 -454.0L-4.0 -491.0L17.0 -467.0H10.0V-6.0ZM48.0 43.0 -34.0 53.0V-23.0H10.0V15.0C35.0 19.0 46.0 28.0 48.0 43.0ZM319.0 46.0 238.0 56.0V-544.0H247.0C264.0 -544.0 282.0 -533.0 282.0 -525.0V20.0C307.0 23.0 316.0 32.0 319.0 46.0ZM180.0 209.0 104.0 218.0V-452.0H148.0V184.0C170.0 186.0 178.0 195.0 180.0 209.0ZM259.0 -438.0H-16.0V-468.0H259.0Z"/></g>
<g fill="black" opacity=".8" transform="translate(300 400) scale(0.1 -0.1)"><path d="M0.0 0.0H-35.0V-462.0L-17.0 -432.0C-33.0 -437.0 -52.0 -448.0 -62.0 -458.0L-3.0 -496.0L16.0 -471.0H12.0V-6.0ZM50.0 39.0 -35.0 50.0V-29.0H11.0V11.0C36.0 14.0 47.0 24.0 50.0 39.0ZM318.0 42.0 234.0 53.0V-538.0H243.0C261.0 -538.0 280.0 -527.0 280.0 -520.0V16.0C306.0 19.0 313.0 27.0 318.0 42.0ZM179.0 213.0 100.0 222.0V-458.0H145.0V187.0C169.0 189.0 177.0 198.0 179.0 213.0ZM257.0 -437.0H-11.0L-12.0 -469.0H257.0Z"/></g>
<g fill="red" transform="translate(400 400) scale(0.1 -0.1)"><path d="M0.0 0.0H-76.0V-478.0L-57.0 -443.0C-73.0 -449.0 -96.0 -467.0 -107.0 -480.0L-1.0 -529.0L30.0 -492.0H24.0V-15.0ZM48.0 32.0 -76.0 44.0V-33.0H24.0V12.0C40.0 15.0 46.0 22.0 48.0 32.0ZM332.0 33.0 200.0 46.0V-581.0H220.0C258.0 -581.0 304.0 -559.0 304.0 -550.0V12.0C324.0 15.0 330.0 23.0 332.0 33.0ZM200.0 210.0 60.0 223.0V-476.0H168.0V184.0C191.0 188.0 198.0 197.0 200.0 210.0ZM226.0 -464.0H-30.0V-492.0H226.0Z"/></g>
<g fill="black" opacity=".8" transform="translate(400 400) scale(0.1 -0.1)"><path d="M0.0 0.0H-81.0V-482.0L-60.0 -445.0C-77.0 -452.0 -101.0 -470.0 -113.0 -485.0L-0.0 -537.0L32.0 -497.0H26.0V-15.0ZM52.0 32.0 -81.0 45.0V-34.0H26.0V9.0C44.0 12.0 51.0 20.0 52.0 32.0ZM335.0 33.0 194.0 46.0V-571.0H216.0C256.0 -571.0 306.0 -547.0 306.0 -537.0V10.0C327.0 13.0 331.0 21.0 335.0 33.0ZM201.0 207.0 57.0 221.0V-482.0H168.0V181.0C191.0 184.0 200.0 194.0 201.0 207.0ZM246.0 -464.0H-16.0L-17.0 -493.0H246.0Z"/></g>
<g fill="red" transform="translate(500 400) scale(0.1 -0.1)"><path d="M0.0 0.0H-34.0V-459.0L-18.0 -430.0C-32.0 -434.0 -52.0 -445.0 -61.0 -454.0L-4.0 -491.0L17.0 -467.0H10.0V-6.0ZM48.0 43.0 -34.0 53.0V-23.0H10.0V15.0C35.0 19.0 46.0 28.0 48.0 43.0ZM306.0 46.0 225.0 56.0V-516.0H234.0C251.0 -516.0 269.0 -506.0 269.0 -498.0V20.0C294.0 23.0 303.0 32.0 306.0 46.0ZM171.0 209.0 95.0 218.0V-452.0H139.0V184.0C161.0 186.0 169.0 195.0 171.0 209.0ZM250.0 -438.0H-16.0V-468.0H250.0Z"/></g>
<g fill="black" opacity=".8" transform="translate(500 400) scale(0.1 -0.1)"><path d="M0.0 0.0H-34.0V-457.0L-17.0 -428.0C-32.0 -432.0 -51.0 -443.0 -60.0 -452.0L-3.0 -489.0L16.0 -465.0H11.0V-6.0ZM48.0 43.0 -34.0 54.0V-22.0H10.0V16.0C34.0 19.0 45.0 28.0 48.0 43.0ZM306.0 46.0 225.0 57.0V-523.0H234.0C251.0 -523.0 269.0 -513.0 269.0 -506.0V21.0C294.0 24.0 301.0 32.0 306.0 46.0ZM170.0 214.0 96.0 223.0V-453.0H138.0V189.0C161.0 191.0 169.0 199.0 170.0 214.0ZM257.0 -439.0H-19.0V-469.0H257.0Z"/></g>
<g fill="red" transform="translate(600 400) scale(0.1 -0.1)"><path d="M0.0 0.0H-77.0V-478.0L-57.0 -442.0C-74.0 -449.0 -96.0 -467.0 -108.0 -481.0L0.0 -529.0L31.0 -492.0H25.0V-15.0ZM48.0 30.0 -77.0 43.0V-34.0H25.0V11.0C41.0 14.0 47.0 20.0 48.0 30.0ZM326.0 33.0 190.0 46.0V-554.0H211.0C250.0 -554.0 299.0 -531.0 299.0 -522.0V11.0C318.0 15.0 324.0 23.0 326.0 33.0ZM192.0 214.0 55.0 227.0V-477.0H160.0V188.0C183.0 192.0 190.0 201.0 192.0 214.0ZM253.0 -464.0H-31.0V-492.0H253.0Z"/></g>
<g fill="black" opacity=".8" transform="translate(600 400) scale(0.1 -0.1)"><path d="M0.0 0.0H-76.0V-476.0L-56.0 -440.0C-73.0 -447.0 -96.0 -464.0 -107.0 -478.0L-0.0 -527.0L30.0 -489.0H25.0V-14.0ZM47.0 34.0 -76.0 47.0V-29.0H25.0V13.0C40.0 16.0 47.0 24.0 47.0 34.0ZM324.0 36.0 192.0 48.0V-554.0H213.0C250.0 -554.0 298.0 -532.0 298.0 -522.0V14.0C317.0 17.0 321.0 25.0 324.0 36.0ZM193.0 209.0 57.0 222.0V-474.0H161.0V183.0C183.0 186.0 192.0 196.0 193.0 209.0ZM247.0 -464.0H-29.0V-492.0H247.0Z"/></g>
<g fill="red" transform="translate(700 400) scale(0.1 -0.1)"><path d="M0.0 0.0H-34.0V-497.0L-18.0 -467.0C-32.0 -471.0 -52.0 -483.0 -61.0 -492.0L-4.0 -528.0L17.0 -504.0H10.0V-6.0ZM48.0 33.0 -34.0 43.0V-33.0H10.0V5.0C35.0 9.0 46.0 18.0 48.0 33.0ZM291.0 36.0 210.0 46.0V-563.0H219.0C236.0 -563.0 254.0 -552.0 254.0 -544.0V10.0C279.0 13.0 288.0 22.0 291.0 36.0ZM167.0 199.0 91.0 208.0V-499.0H135.0V174.0C157.0 176.0 165.0 185.0 167.0 199.0ZM226.0 -474.0H-16.0V-504.0H226.0Z"/></g>
<g fill="black" opacity=".8" transform="translate(700 400) scale(0.1 -0.1)"><path d="M0.0 0.0H-32.0V-494.0L-16.0 -467.0C-30.0 -470.0 -48.0 -481.0 -57.0 -490.0L-3.0 -526.0L15.0 -502.0H11.0V-6.0ZM46.0 33.0 -32.0 44.0V-29.0H10.0V8.0C33.0 10.0 43.0 19.0 46.0 33.0ZM289.0 36.0 212.0 46.0V-563.0H220.0C238.0 -563.0 255.0 -553.0 255.0 -547.0V12.0C278.0 15.0 285.0 22.0 289.0 36.0ZM162.0 193.0 91.0 202.0V-493.0H131.0V169.0C153.0 171.0 161.0 179.0 162.0 193.0ZM235.0 -474.0H-14.0L-15.0 -503.0H235.0Z"/></g>
<g fill="red" transform="translate(800 400) scale(0.1 -0.1)"><path d="M0.0 0.0H-72.0V-497.0L-53.0 -462.0C-69.0 -468.0 -92.0 -485.0 -103.0 -498.0L-1.0 -546.0L29.0 -510.0H23.0V-14.0ZM46.0 32.0 -72.0 44.0V-33.0H23.0V12.0C39.0 15.0 45.0 22.0 46.0 32.0ZM301.0 34.0 175.0 46.0V-572.0H194.0C230.0 -572.0 274.0 -551.0 274.0 -542.0V12.0C293.0 15.0 299.0 23.0 301.0 34.0ZM179.0 197.0 50.0 210.0V-499.0H147.0V172.0C169.0 175.0 177.0 184.0 179.0 197.0ZM230.0 -482.0H-26.0V-510.0H230.0Z"/></g>
<g fill="black" opacity=".8" transform="translate(800 400) scale(0.1 -0.1)"><path d="M0.0 0.0H-73.0V-497.0L-53.0 -462.0C-69.0 -469.0 -91.0 -485.0 -102.0 -499.0L-0.0 -548.0L29.0 -509.0H24.0V-14.0ZM46.0 32.0 -73.0 44.0V-28.0H24.0V11.0C39.0 14.0 46.0 22.0 46.0 32.0ZM300.0 34.0 175.0 46.0V-578.0H195.0C229.0 -578.0 274.0 -556.0 274.0 -546.0V14.0C293.0 16.0 297.0 23.0 300.0 34.0ZM180.0 202.0 50.0 215.0V-496.0H149.0V177.0C170.0 180.0 179.0 190.0 180.0 202.0ZM228.0 -483.0H-24.0L-23.0 -509.0H228.0Z"/></g>
<g fill="red" transform="translate(900 400) scale(0.1 -0.1)"><path d="M0.0 0.0H-34.0V-149.0L-21.0 -114.0C-37.0 -119.0 -60.0 -130.0 -70.0 -138.0L-5.0 -182.0L19.0 -153.0H10.0V-6.0ZM48.0 40.0 -34.0 50.0V-26.0H10.0V13.0C35.0 16.0 46.0 26.0 48.0 40.0ZM670.0 34.0 588.0 43.0V-199.0H597.0C614.0 -199.0 632.0 -188.0 632.0 -181.0V7.0C657.0 10.0 667.0 19.0 670.0 34.0ZM354.0 93.0 273.0 103.0V-136.0H317.0V67.0C341.0 70.0 352.0 79.0 354.0 93.0ZM612.0 -123.0H-7.0V-153.0H612.0Z"/></g>
<g fill="black" opacity=".8" transform="translate(900 400) scale(0.1 -0.1)"><path d="M0.0 0.0H-35.0V-150.0L-20.0 -116.0C-37.0 -119.0 -60.0 -130.0 -70.0 -140.0L-5.0 -185.0L19.0 -154.0H11.0V-6.0ZM49.0 39.0 -35.0 50.0V-28.0H10.0V11.0C35.0 15.0 46.0 24.0 49.0 39.0ZM672.0 36.0 589.0 46.0V-200.0H598.0C615.0 -200.0 634.0 -189.0 634.0 -183.0V10.0C659.0 12.0 668.0 21.0 672.0 36.0ZM355.0 98.0 274.0 108.0V-138.0H319.0V72.0C343.0 74.0 354.0 83.0 355.0 98.0ZM603.0 -124.0H-14.0L-12.0 -156.0H603.0Z"/></g>
<g fill="red" transform="translate(1000 400) scale(0.1 -0.1)"><path d="M0.0 0.0H-104.0V-174.0L-82.0 -137.0C-101.0 -144.0 -128.0 -167.0 -142.0 -184.0L-2.0 -253.0L40.0 -193.0H34.0V-21.0ZM71.0 32.0 -104.0 49.0V-28.0H34.0V3.0C60.0 7.0 68.0 17.0 71.0 32.0ZM690.0 30.0 510.0 45.0V-251.0H534.0C590.0 -251.0 653.0 -232.0 653.0 -224.0V2.0C681.0 6.0 688.0 17.0 690.0 30.0ZM380.0 73.0 196.0 87.0V-175.0H343.0V45.0C371.0 49.0 378.0 59.0 380.0 73.0ZM551.0 -165.0H-5.0V-193.0H551.0Z"/></g>
<g fill="black" opacity=".8" transform="translate(1000 400) scale(0.1 -0.1)"><path d="M0.0 0.0H-106.0V-172.0L-83.0 -134.0C-102.0 -142.0 -129.0 -165.0 -144.0 -183.0L-2.0 -253.0L40.0 -191.0H35.0V-21.0ZM70.0 28.0 -106.0 46.0V-33.0H35.0V-0.0C60.0 4.0 68.0 14.0 70.0 28.0ZM688.0 29.0 508.0 43.0V-249.0H534.0C589.0 -249.0 654.0 -229.0 654.0 -220.0V1.0C680.0 6.0 685.0 16.0 688.0 29.0ZM380.0 69.0 199.0 83.0V-176.0H343.0V40.0C370.0 44.0 379.0 55.0 380.0 69.0ZM549.0 -163.0H-13.0L-11.0 -192.0H549.0Z"/></g>
<g fill="red" transform="translate(1100 400) scale(0.1 -0.1)"><path d="M0.0 0.0H-34.0V-223.0L-21.0 -189.0C-37.0 -193.0 -60.0 -204.0 -70.0 -212.0L-5.0 -256.0L19.0 -227.0H10.0V-6.0ZM48.0 11.0 -34.0 21.0V-55.0H10.0V-17.0C35.0 -13.0 46.0 -4.0 48.0 11.0ZM683.0 9.0 601.0 18.0V-287.0H610.0C627.0 -287.0 645.0 -277.0 645.0 -269.0V-18.0C670.0 -15.0 680.0 -6.0 683.0 9.0ZM356.0 49.0 279.0 58.0V-219.0H323.0V24.0C345.0 27.0 354.0 36.0 356.0 49.0ZM630.0 -197.0H-17.0V-227.0H630.0Z"/></g>
<g fill="black" opacity=".8" transform="translate(1100 400) scale(0.1 -0.1)"><path d="M0.0 0.0H-34.0V-227.0L-20.0 -193.0C-37.0 -196.0 -60.0 -207.0 -70.0 -216.0L-5.0 -264.0L19.0 -231.0H11.0V-6.0ZM49.0 12.0 -34.0 23.0V-55.0H11.0V-16.0C35.0 -12.0 46.0 -3.0 49.0 12.0ZM679.0 7.0 597.0 17.0V-289.0H606.0C624.0 -289.0 642.0 -278.0 642.0 -272.0V-19.0C666.0 -16.0 675.0 -7.0 679.0 7.0ZM358.0 58.0 279.0 68.0V-220.0H323.0V32.0C347.0 35.0 357.0 44.0 358.0 58.0ZM642.0 -201.0H-33.0L-31.0 -232.0H642.0Z"/></g>
<g fill="red" transform="translate(1200 400) scale(0.1 -0.1)"><path d="M0.0 0.0H-104.0V-211.0L-82.0 -174.0C-101.0 -181.0 -128.0 -204.0 -142.0 -221.0L-2.0 -290.0L40.0 -230.0H34.0V-21.0ZM71.0 24.0 -104.0 41.0V-36.0H34.0V-5.0C60.0 -1.0 68.0 9.0 71.0 24.0ZM665.0 25.0 494.0 39.0V-303.0H518.0C571.0 -303.0 632.0 -282.0 632.0 -274.0V-1.0C656.0 3.0 663.0 13.0 665.0 25.0ZM373.0 71.0 196.0 85.0V-219.0H336.0V43.0C364.0 47.0 371.0 57.0 373.0 71.0ZM586.0 -202.0H-71.0V-230.0H586.0Z"/></g>
<g fill="black" opacity=".8" transform="translate(1200 400) scale(0.1 -0.1)"><path d="M0.0 0.0H-105.0V-207.0L-82.0 -169.0C-101.0 -177.0 -128.0 -199.0 -143.0 -217.0L-2.0 -293.0L41.0 -226.0H35.0V-21.0ZM74.0 24.0 -105.0 42.0V-36.0H35.0V-7.0C62.0 -2.0 72.0 8.0 74.0 24.0ZM668.0 25.0 492.0 39.0V-302.0H517.0C571.0 -302.0 635.0 -280.0 635.0 -270.0V-2.0C659.0 2.0 666.0 12.0 668.0 25.0ZM372.0 63.0 191.0 77.0V-213.0H334.0V33.0C362.0 37.0 371.0 48.0 372.0 63.0ZM586.0 -199.0H-52.0L-49.0 -226.0H586.0Z"/></g>
<g fill="red" transform="translate(1300 400) scale(0.1 -0.1)"><path d="M0.0 0.0H-34.0V-459.0L-18.0 -430.0C-32.0 -434.0 -52.0 -445.0 -61.0 -454.0L-4.0 -491.0L17.0 -467.0H10.0V-6.0ZM48.0 30.0 -34.0 40.0V-36.0H10.0V2.0C35.0 6.0 46.0 15.0 48.0 30.0ZM298.0 33.0 217.0 43.0V-529.0H226.0C243.0 -529.0 261.0 -519.0 261.0 -511.0V7.0C286.0 10.0 295.0 19.0 298.0 33.0ZM168.0 196.0 92.0 205.0V-465.0H136.0V171.0C158.0 173.0 166.0 182.0 168.0 196.0ZM236.0 -437.0H-16.0V-467.0H236.0Z"/></g>
<g fill="black" opacity=".8" transform="translate(1300 400) scale(0.1 -0.1)"><path d="M0.0 0.0H-33.0V-458.0L-16.0 -430.0C-31.0 -433.0 -49.0 -444.0 -58.0 -454.0L-3.0 -490.0L16.0 -466.0H11.0V-6.0ZM47.0 31.0 -33.0 42.0V-33.0H10.0V5.0C34.0 8.0 44.0 17.0 47.0 31.0ZM296.0 34.0 218.0 45.0V-531.0H226.0C243.0 -531.0 261.0 -522.0 261.0 -515.0V9.0C285.0 12.0 292.0 20.0 296.0 34.0ZM166.0 191.0 94.0 200.0V-456.0H135.0V166.0C158.0 169.0 165.0 177.0 166.0 191.0ZM243.0 -436.0H-13.0L-15.0 -466.0H243.0Z"/></g>
<g fill="red" transform="translate(1400 400) scale(0.1 -0.1)"><path d="M0.0 0.0H-75.0V-455.0L-56.0 -420.0C-72.0 -426.0 -95.0 -443.0 -106.0 -457.0L-1.0 -505.0L29.0 -468.0H23.0V-14.0ZM47.0 33.0 -75.0 45.0V-32.0H23.0V13.0C39.0 16.0 45.0 23.0 47.0 33.0ZM313.0 34.0 182.0 47.0V-544.0H202.0C240.0 -544.0 286.0 -522.0 286.0 -513.0V13.0C305.0 16.0 311.0 24.0 313.0 34.0ZM185.0 198.0 52.0 211.0V-460.0H153.0V173.0C176.0 176.0 183.0 185.0 185.0 198.0ZM241.0 -440.0H-29.0V-468.0H241.0Z"/></g>
<g fill="black" opacity=".8" transform="translate(1400 400) scale(0.1 -0.1)"><path d="M0.0 0.0H-74.0V-457.0L-55.0 -422.0C-71.0 -429.0 -94.0 -445.0 -104.0 -459.0L-0.0 -509.0L30.0 -470.0H24.0V-14.0ZM48.0 31.0 -74.0 44.0V-31.0H24.0V9.0C40.0 13.0 48.0 21.0 48.0 31.0ZM310.0 33.0 182.0 44.0V-544.0H203.0C238.0 -544.0 285.0 -522.0 285.0 -512.0V12.0C303.0 14.0 307.0 22.0 310.0 33.0ZM187.0 202.0 54.0 216.0V-456.0H156.0V177.0C178.0 180.0 187.0 190.0 187.0 202.0ZM244.0 -442.0H-26.0V-469.0H244.0Z"/></g>
<g fill="red" transform="translate(1500 400) scale(0.1 -0.1)"><path d="M0.0 0.0H-34.0V-163.0L-21.0 -129.0C-37.0 -133.0 -60.0 -144.0 -70.0 -152.0L-5.0 -196.0L19.0 -167.0H10.0V-6.0ZM48.0 31.0 -34.0 41.0V-35.0H10.0V3.0C35.0 7.0 46.0 16.0 48.0 31.0ZM672.0 32.0 590.0 41.0V-210.0H599.0C616.0 -210.0 634.0 -198.0 634.0 -192.0V5.0C659.0 8.0 669.0 17.0 672.0 32.0ZM357.0 73.0 276.0 83.0V-152.0H320.0V47.0C344.0 50.0 355.0 59.0 357.0 73.0ZM620.0 -137.0H-17.0V-167.0H620.0Z"/></g>
<g fill="black" opacity=".8" transform="translate(1500 400) scale(0.1 -0.1)"><path d="M0.0 0.0H-35.0V-163.0L-20.0 -130.0C-37.0 -133.0 -59.0 -145.0 -69.0 -153.0L-5.0 -198.0L18.0 -168.0H11.0V-7.0ZM49.0 28.0 -35.0 39.0V-40.0H10.0V0.0C35.0 4.0 46.0 13.0 49.0 28.0ZM671.0 30.0 587.0 39.0V-207.0H596.0C614.0 -207.0 633.0 -197.0 633.0 -191.0V2.0C658.0 6.0 667.0 14.0 671.0 30.0ZM355.0 73.0 274.0 84.0V-156.0H318.0V47.0C343.0 49.0 354.0 58.0 355.0 73.0ZM624.0 -136.0H-21.0L-22.0 -168.0H624.0Z"/></g>
<g fill="red" transform="translate(1600 400) scale(0.1 -0.1)"><path d="M0.0 0.0H-107.0V-151.0L-85.0 -113.0C-104.0 -121.0 -130.0 -144.0 -145.0 -161.0L-2.0 -231.0L40.0 -170.0H35.0V-21.0ZM72.0 35.0 -107.0 52.0V-25.0H35.0V6.0C62.0 10.0 70.0 20.0 72.0 35.0ZM645.0 37.0 463.0 52.0V-217.0H487.0C545.0 -217.0 608.0 -198.0 608.0 -190.0V9.0C636.0 13.0 643.0 24.0 645.0 37.0ZM359.0 81.0 179.0 94.0V-154.0H323.0V52.0C350.0 57.0 357.0 67.0 359.0 81.0ZM541.0 -142.0H-25.0V-170.0H541.0Z"/></g>
<g fill="black" opacity=".8" transform="translate(1600 400) scale(0.1 -0.1)"><path d="M0.0 0.0H-108.0V-151.0L-85.0 -113.0C-105.0 -120.0 -131.0 -143.0 -146.0 -161.0L-1.0 -231.0L41.0 -171.0H36.0V-21.0ZM73.0 33.0 -108.0 51.0V-28.0H36.0V3.0C63.0 7.0 72.0 17.0 73.0 33.0ZM649.0 36.0 466.0 51.0V-215.0H491.0C548.0 -215.0 613.0 -196.0 613.0 -188.0V7.0C640.0 12.0 646.0 22.0 649.0 36.0ZM357.0 82.0 175.0 96.0V-156.0H321.0V53.0C348.0 58.0 356.0 68.0 357.0 82.0ZM531.0 -142.0H-28.0V-171.0H531.0Z"/></g>
<g fill="red" transform="translate(100 500) scale(0.1 -0.1)"><path d="M0.0 0.0H-34.0V-112.0L-21.0 -78.0C-37.0 -82.0 -60.0 -93.0 -70.0 -101.0L-5.0 -146.0L19.0 -115.0H10.0V-6.0ZM48.0 40.0 -34.0 50.0V-26.0H10.0V12.0C34.0 16.0 46.0 25.0 48.0 40.0ZM678.0 37.0 596.0 46.0V-151.0H605.0C622.0 -151.0 640.0 -139.0 640.0 -132.0V10.0C665.0 13.0 675.0 22.0 678.0 37.0ZM353.0 68.0 272.0 78.0V-101.0H316.0V42.0C340.0 45.0 351.0 54.0 353.0 68.0ZM619.0 -85.0H-23.0V-115.0H619.0Z"/></g>
<g fill="black" opacity=".8" transform="translate(100 500) scale(0.1 -0.1)"><path d="M0.0 0.0H-34.0V-111.0L-20.0 -77.0C-37.0 -81.0 -58.0 -92.0 -69.0 -101.0L-5.0 -145.0L18.0 -115.0H11.0V-7.0ZM48.0 37.0 -34.0 47.0V-29.0H10.0V9.0C34.0 13.0 45.0 22.0 48.0 37.0ZM676.0 36.0 595.0 46.0V-150.0H603.0C621.0 -150.0 638.0 -140.0 638.0 -134.0V10.0C663.0 13.0 672.0 21.0 676.0 36.0ZM357.0 69.0 277.0 79.0V-101.0H320.0V43.0C345.0 46.0 356.0 54.0 357.0 69.0ZM621.0 -85.0H-18.0L-17.0 -115.0H621.0Z"/></g>
<g fill="red" transform="translate(200 500) scale(0.1 -0.1)"><path d="M0.0 0.0H-107.0V-118.0L-85.0 -81.0C-104.0 -88.0 -130.0 -111.0 -145.0 -129.0L-1.0 -199.0L41.0 -138.0H35.0V-21.0ZM72.0 29.0 -107.0 46.0V-31.0H35.0V0.0C62.0 4.0 70.0 14.0 72.0 29.0ZM672.0 27.0 490.0 42.0V-176.0H514.0C572.0 -176.0 635.0 -159.0 635.0 -151.0V-1.0C663.0 4.0 670.0 14.0 672.0 27.0ZM369.0 59.0 189.0 72.0V-124.0H333.0V30.0C360.0 35.0 367.0 45.0 369.0 59.0ZM539.0 -110.0H-17.0V-138.0H539.0Z"/></g>
<g fill="black" opacity=".8" transform="translate(200 500) scale(0.1 -0.1)"><path d="M0.0 0.0H-107.0V-118.0L-84.0 -81.0C-103.0 -88.0 -129.0 -111.0 -144.0 -129.0L-2.0 -197.0L40.0 -138.0H35.0V-21.0ZM71.0 31.0 -107.0 49.0V-28.0H35.0V2.0C61.0 7.0 69.0 16.0 71.0 31.0ZM671.0 33.0 490.0 48.0V-179.0H515.0C571.0 -179.0 636.0 -161.0 636.0 -153.0V6.0C663.0 10.0 668.0 20.0 671.0 33.0ZM368.0 57.0 189.0 71.0V-123.0H332.0V29.0C359.0 34.0 367.0 44.0 368.0 57.0ZM538.0 -110.0H-20.0L-18.0 -138.0H538.0Z"/></g>
<g fill="red" transform="translate(300 500) scale(0.1 -0.1)"><path d="M0.0 0.0H-34.0V-140.0L-21.0 -105.0C-37.0 -109.0 -60.0 -120.0 -70.0 -129.0L-5.0 -173.0L19.0 -143.0H10.0V-6.0ZM48.0 16.0 -34.0 26.0V-50.0H10.0V-12.0C34.0 -8.0 46.0 1.0 48.0 16.0ZM708.0 17.0 626.0 26.0V-198.0H635.0C652.0 -198.0 670.0 -187.0 670.0 -180.0V-10.0C695.0 -7.0 705.0 2.0 708.0 17.0ZM376.0 48.0 295.0 58.0V-131.0H339.0V22.0C363.0 25.0 374.0 34.0 376.0 48.0ZM649.0 -113.0H-12.0V-143.0H649.0Z"/></g>
<g fill="black" opacity=".8" transform="translate(300 500) scale(0.1 -0.1)"><path d="M0.0 0.0H-33.0V-140.0L-20.0 -107.0C-36.0 -111.0 -58.0 -121.0 -67.0 -130.0L-5.0 -175.0L18.0 -144.0H11.0V-6.0ZM47.0 17.0 -33.0 28.0V-47.0H10.0V-9.0C33.0 -6.0 44.0 3.0 47.0 17.0ZM710.0 16.0 631.0 25.0V-191.0H639.0C656.0 -191.0 674.0 -181.0 674.0 -175.0V-10.0C697.0 -7.0 706.0 1.0 710.0 16.0ZM376.0 47.0 298.0 58.0V-133.0H340.0V22.0C364.0 25.0 375.0 33.0 376.0 47.0ZM638.0 -115.0H-5.0L-6.0 -144.0H638.0Z"/></g>
<g fill="red" transform="translate(400 500) scale(0.1 -0.1)"><path d="M0.0 0.0H-106.0V-119.0L-83.0 -80.0C-101.0 -88.0 -126.0 -111.0 -139.0 -128.0L2.0 -194.0L41.0 -138.0H36.0V-21.0ZM73.0 24.0 -106.0 41.0V-36.0H36.0V-5.0C63.0 -1.0 71.0 9.0 73.0 24.0ZM700.0 26.0 518.0 41.0V-182.0H542.0C600.0 -182.0 663.0 -164.0 663.0 -157.0V-2.0C691.0 3.0 698.0 13.0 700.0 26.0ZM381.0 62.0 201.0 75.0V-126.0H345.0V33.0C372.0 38.0 379.0 48.0 381.0 62.0ZM557.0 -110.0H1.0V-138.0H557.0Z"/></g>
<g fill="black" opacity=".8" transform="translate(400 500) scale(0.1 -0.1)"><path d="M0.0 0.0H-107.0V-116.0L-84.0 -78.0C-103.0 -86.0 -129.0 -108.0 -144.0 -126.0L-1.0 -199.0L41.0 -135.0H36.0V-21.0ZM74.0 28.0 -107.0 46.0V-29.0H36.0V-3.0C64.0 2.0 73.0 12.0 74.0 28.0ZM695.0 29.0 515.0 43.0V-191.0H539.0C596.0 -191.0 660.0 -173.0 660.0 -164.0V1.0C686.0 5.0 692.0 15.0 695.0 29.0ZM383.0 62.0 202.0 75.0V-121.0H347.0V33.0C374.0 37.0 382.0 48.0 383.0 62.0ZM565.0 -108.0H-6.0V-136.0H565.0Z"/></g>
<g fill="red" transform="translate(500 500) scale(0.1 -0.1)"><path d="M0.0 0.0H-34.0V-112.0L-21.0 -78.0C-37.0 -82.0 -60.0 -93.0 -70.0 -101.0L-5.0 -146.0L19.0 -115.0H10.0V-6.0ZM48.0 32.0 -34.0 42.0V-34.0H10.0V4.0C34.0 8.0 46.0 17.0 48.0 32.0ZM694.0 33.0 612.0 42.0V-150.0H621.0C638.0 -150.0 656.0 -139.0 656.0 -132.0V6.0C681.0 9.0 691.0 18.0 694.0 33.0ZM366.0 67.0 285.0 77.0V-102.0H329.0V41.0C353.0 44.0 364.0 53.0 366.0 67.0ZM706.0 -249.0H-40.0V-279.0H706.0Z"/></g>
<g fill="black" opacity=".8" transform="translate(500 500) scale(0.1 -0.1)"><path d="M0.0 0.0H-34.0V-113.0L-21.0 -79.0C-38.0 -81.0 -61.0 -93.0 -72.0 -101.0L-5.0 -147.0L19.0 -116.0H12.0V-7.0ZM49.0 31.0 -34.0 42.0V-36.0H10.0V3.0C34.0 7.0 45.0 16.0 49.0 31.0ZM696.0 32.0 614.0 42.0V-148.0H623.0C640.0 -148.0 659.0 -138.0 659.0 -131.0V6.0C683.0 9.0 692.0 17.0 696.0 32.0ZM364.0 69.0 286.0 80.0V-105.0H328.0V44.0C352.0 47.0 364.0 55.0 364.0 69.0ZM698.0 -250.0H-33.0L-36.0 -281.0H698.0Z"/></g>
<g fill="red" transform="translate(600 500) scale(0.1 -0.1)"><path d="M0.0 0.0H-107.0V-104.0L-85.0 -67.0C-104.0 -74.0 -130.0 -97.0 -145.0 -115.0L-2.0 -185.0L40.0 -124.0H35.0V-21.0ZM72.0 34.0 -107.0 51.0V-26.0H35.0V5.0C62.0 9.0 70.0 19.0 72.0 34.0ZM681.0 34.0 499.0 49.0V-164.0H523.0C581.0 -164.0 644.0 -147.0 644.0 -140.0V6.0C672.0 11.0 679.0 21.0 681.0 34.0ZM365.0 78.0 185.0 91.0V-110.0H329.0V49.0C356.0 54.0 363.0 64.0 365.0 78.0ZM596.0 -253.0H-80.0V-281.0H596.0Z"/></g>
<g fill="black" opacity=".8" transform="translate(600 500) scale(0.1 -0.1)"><path d="M0.0 0.0H-108.0V-104.0L-85.0 -67.0C-105.0 -74.0 -132.0 -97.0 -147.0 -116.0L-3.0 -185.0L40.0 -124.0H36.0V-21.0ZM72.0 36.0 -108.0 54.0V-24.0H36.0V5.0C62.0 10.0 71.0 20.0 72.0 36.0ZM678.0 37.0 495.0 51.0V-164.0H520.0C577.0 -164.0 643.0 -146.0 643.0 -138.0V9.0C669.0 14.0 674.0 24.0 678.0 37.0ZM366.0 75.0 186.0 89.0V-111.0H330.0V47.0C358.0 51.0 366.0 61.0 366.0 75.0ZM606.0 -252.0H-81.0L-82.0 -280.0H606.0Z"/></g>
<g fill="red" transform="translate(700 500) scale(0.1 -0.1)"><path d="M0.0 0.0H-34.0V-191.0L-21.0 -157.0C-37.0 -161.0 -60.0 -171.0 -70.0 -179.0L-5.0 -225.0L19.0 -194.0H10.0V-6.0ZM48.0 13.0 -34.0 23.0V-53.0H10.0V-15.0C34.0 -11.0 46.0 -2.0 48.0 13.0ZM685.0 17.0 603.0 26.0V-257.0H612.0C629.0 -257.0 647.0 -246.0 647.0 -239.0V-10.0C672.0 -7.0 682.0 2.0 685.0 17.0ZM363.0 70.0 286.0 79.0V-184.0H330.0V45.0C352.0 48.0 361.0 57.0 363.0 70.0ZM628.0 -166.0H-19.0V-196.0H628.0Z"/></g>
<g fill="black" opacity=".8" transform="translate(700 500) scale(0.1 -0.1)"><path d="M0.0 0.0H-35.0V-190.0L-21.0 -156.0C-39.0 -159.0 -62.0 -170.0 -72.0 -179.0L-5.0 -227.0L19.0 -194.0H11.0V-6.0ZM50.0 17.0 -35.0 28.0V-51.0H11.0V-12.0C35.0 -8.0 47.0 1.0 50.0 17.0ZM684.0 15.0 602.0 24.0V-252.0H610.0C629.0 -252.0 647.0 -242.0 647.0 -235.0V-12.0C672.0 -9.0 681.0 -1.0 684.0 15.0ZM362.0 61.0 283.0 72.0V-185.0H327.0V36.0C351.0 38.0 361.0 47.0 362.0 61.0ZM633.0 -164.0H-26.0L-24.0 -196.0H633.0Z"/></g>
<g fill="red" transform="translate(800 500) scale(0.1 -0.1)"><path d="M0.0 0.0H-104.0V-142.0L-82.0 -104.0C-101.0 -111.0 -128.0 -134.0 -142.0 -152.0L-1.0 -220.0L40.0 -160.0H35.0V-21.0ZM71.0 37.0 -104.0 54.0V-23.0H35.0V9.0C61.0 13.0 69.0 23.0 71.0 37.0ZM685.0 40.0 514.0 54.0V-233.0H538.0C591.0 -233.0 652.0 -213.0 652.0 -205.0V15.0C676.0 19.0 683.0 28.0 685.0 40.0ZM380.0 82.0 203.0 95.0V-148.0H343.0V53.0C371.0 58.0 378.0 68.0 380.0 82.0ZM605.0 -135.0H-52.0V-163.0H605.0Z"/></g>
<g fill="black" opacity=".8" transform="translate(800 500) scale(0.1 -0.1)"><path d="M0.0 0.0H-103.0V-145.0L-80.0 -106.0C-99.0 -114.0 -127.0 -136.0 -141.0 -154.0L-2.0 -225.0L40.0 -163.0H34.0V-20.0ZM71.0 32.0 -103.0 49.0V-29.0H34.0V2.0C61.0 7.0 70.0 17.0 71.0 32.0ZM686.0 33.0 514.0 46.0V-234.0H539.0C591.0 -234.0 654.0 -214.0 654.0 -206.0V7.0C678.0 10.0 684.0 20.0 686.0 33.0ZM380.0 93.0 203.0 106.0V-148.0H342.0V62.0C370.0 67.0 379.0 78.0 380.0 93.0ZM604.0 -136.0H-48.0L-45.0 -164.0H604.0Z"/></g>
<g fill="red" transform="translate(900 500) scale(0.1 -0.1)"><path d="M0.0 0.0H-34.0V-102.0L-21.0 -68.0C-37.0 -73.0 -60.0 -84.0 -70.0 -92.0L-5.0 -136.0L19.0 -106.0H10.0V-6.0ZM48.0 46.0 -34.0 56.0V-20.0H10.0V18.0C34.0 22.0 46.0 31.0 48.0 46.0ZM622.0 50.0 541.0 59.0V-156.0H550.0C566.0 -156.0 584.0 -145.0 584.0 -138.0V23.0C610.0 26.0 620.0 35.0 622.0 50.0ZM330.0 73.0 249.0 83.0V-96.0H292.0V47.0C317.0 50.0 328.0 59.0 330.0 73.0ZM478.0 -386.0H61.0V-416.0H478.0Z"/></g>
<g fill="black" opacity=".8" transform="translate(900 500) scale(0.1 -0.1)"><path d="M0.0 0.0H-34.0V-103.0L-20.0 -70.0C-37.0 -74.0 -58.0 -86.0 -68.0 -94.0L-4.0 -137.0L18.0 -108.0H11.0V-6.0ZM49.0 45.0 -34.0 55.0V-22.0H11.0V17.0C34.0 21.0 45.0 29.0 49.0 45.0ZM619.0 48.0 537.0 57.0V-155.0H546.0C562.0 -155.0 581.0 -145.0 581.0 -139.0V22.0C606.0 25.0 615.0 33.0 619.0 48.0ZM332.0 73.0 252.0 83.0V-95.0H295.0V47.0C320.0 49.0 331.0 58.0 332.0 73.0ZM492.0 -384.0H73.0L65.0 -415.0H492.0Z"/></g>
<g fill="red" transform="translate(1000 500) scale(0.1 -0.1)"><path d="M0.0 0.0H-104.0V-128.0L-82.0 -90.0C-101.0 -97.0 -128.0 -120.0 -142.0 -138.0L-1.0 -206.0L40.0 -147.0H35.0V-21.0ZM72.0 30.0 -104.0 47.0V-30.0H35.0V1.0C61.0 5.0 70.0 15.0 72.0 30.0ZM650.0 26.0 471.0 41.0V-200.0H495.0C551.0 -200.0 613.0 -182.0 613.0 -175.0V-2.0C641.0 3.0 648.0 13.0 650.0 26.0ZM358.0 64.0 181.0 77.0V-138.0H321.0V35.0C349.0 40.0 356.0 50.0 358.0 64.0ZM457.0 -408.0H53.0V-436.0H457.0Z"/></g>
<g fill="black" opacity=".8" transform="translate(1000 500) scale(0.1 -0.1)"><path d="M0.0 0.0H-104.0V-128.0L-82.0 -90.0C-100.0 -97.0 -127.0 -120.0 -140.0 -138.0L-1.0 -203.0L39.0 -146.0H34.0V-21.0ZM69.0 32.0 -104.0 49.0V-28.0H34.0V4.0C59.0 8.0 68.0 18.0 69.0 32.0ZM651.0 27.0 472.0 42.0V-201.0H496.0C552.0 -201.0 615.0 -183.0 615.0 -176.0V-0.0C643.0 4.0 648.0 15.0 651.0 27.0ZM358.0 63.0 181.0 77.0V-135.0H322.0V36.0C349.0 40.0 357.0 50.0 358.0 63.0ZM452.0 -410.0H58.0L52.0 -438.0H452.0Z"/></g>
<g fill="red" transform="translate(1100 500) scale(0.1 -0.1)"><path d="M0.0 0.0H-33.0V-112.0L-20.0 -78.0C-36.0 -82.0 -59.0 -93.0 -69.0 -100.0L-5.0 -145.0L19.0 -115.0H9.0V-6.0ZM47.0 32.0 -33.0 42.0V-34.0H9.0V5.0C34.0 8.0 45.0 18.0 47.0 32.0ZM723.0 36.0 641.0 45.0V-142.0H650.0C667.0 -142.0 685.0 -131.0 685.0 -124.0V9.0C710.0 12.0 721.0 21.0 723.0 36.0ZM382.0 67.0 301.0 77.0V-98.0H345.0V41.0C369.0 44.0 380.0 53.0 382.0 67.0ZM658.0 -85.0H-22.0V-115.0H658.0Z"/></g>
<g fill="black" opacity=".8" transform="translate(1100 500) scale(0.1 -0.1)"><path d="M0.0 0.0H-33.0V-113.0L-20.0 -79.0C-37.0 -82.0 -59.0 -93.0 -69.0 -101.0L-5.0 -146.0L18.0 -116.0H11.0V-6.0ZM47.0 33.0 -33.0 44.0V-32.0H10.0V6.0C34.0 10.0 44.0 19.0 47.0 33.0ZM720.0 34.0 639.0 43.0V-146.0H648.0C665.0 -146.0 683.0 -135.0 683.0 -130.0V8.0C707.0 11.0 716.0 19.0 720.0 34.0ZM378.0 71.0 300.0 82.0V-103.0H342.0V46.0C366.0 48.0 377.0 57.0 378.0 71.0ZM672.0 -86.0H-24.0L-23.0 -117.0H672.0Z"/></g>
<g fill="red" transform="translate(1200 500) scale(0.1 -0.1)"><path d="M0.0 0.0H-107.0V-104.0L-85.0 -67.0C-104.0 -74.0 -130.0 -97.0 -145.0 -115.0L-2.0 -185.0L40.0 -124.0H35.0V-21.0ZM72.0 34.0 -107.0 51.0V-26.0H35.0V5.0C62.0 9.0 70.0 19.0 72.0 34.0ZM699.0 44.0 519.0 59.0V-159.0H543.0C600.0 -159.0 663.0 -142.0 663.0 -135.0V16.0C690.0 21.0 697.0 31.0 699.0 44.0ZM379.0 79.0 200.0 92.0V-109.0H342.0V50.0C370.0 55.0 377.0 65.0 379.0 79.0ZM586.0 -96.0H-32.0V-124.0H586.0Z"/></g>
<g fill="black" opacity=".8" transform="translate(1200 500) scale(0.1 -0.1)"><path d="M0.0 0.0H-109.0V-102.0L-86.0 -65.0C-106.0 -72.0 -132.0 -95.0 -146.0 -113.0L-2.0 -183.0L40.0 -122.0H36.0V-21.0ZM72.0 35.0 -109.0 53.0V-23.0H36.0V5.0C63.0 10.0 71.0 20.0 72.0 35.0ZM702.0 38.0 518.0 52.0V-156.0H543.0C601.0 -156.0 666.0 -138.0 666.0 -131.0V10.0C693.0 14.0 699.0 24.0 702.0 38.0ZM381.0 74.0 200.0 88.0V-107.0H346.0V46.0C372.0 51.0 380.0 61.0 381.0 74.0ZM576.0 -95.0H-29.0L-28.0 -123.0H576.0Z"/></g>
<g fill="red" transform="translate(1300 500) scale(0.1 -0.1)"><path d="M0.0 0.0H-34.0V-116.0L-21.0 -83.0C-37.0 -87.0 -60.0 -98.0 -70.0 -105.0L-5.0 -150.0L19.0 -120.0H10.0V-6.0ZM48.0 32.0 -34.0 42.0V-34.0H10.0V4.0C34.0 8.0 46.0 17.0 48.0 32.0ZM703.0 33.0 621.0 42.0V-159.0H630.0C647.0 -159.0 665.0 -148.0 665.0 -141.0V6.0C690.0 9.0 700.0 18.0 703.0 33.0ZM366.0 65.0 285.0 75.0V-114.0H329.0V39.0C353.0 42.0 364.0 51.0 366.0 65.0ZM641.0 -90.0H-20.0V-120.0H641.0Z"/></g>
<g fill="black" opacity=".8" transform="translate(1300 500) scale(0.1 -0.1)"><path d="M0.0 0.0H-33.0V-118.0L-19.0 -85.0C-36.0 -88.0 -58.0 -100.0 -67.0 -108.0L-5.0 -151.0L18.0 -122.0H11.0V-6.0ZM47.0 30.0 -33.0 41.0V-34.0H10.0V4.0C33.0 7.0 44.0 16.0 47.0 30.0ZM701.0 33.0 620.0 42.0V-152.0H629.0C646.0 -152.0 663.0 -142.0 663.0 -137.0V7.0C688.0 10.0 696.0 17.0 701.0 33.0ZM370.0 62.0 292.0 73.0V-111.0H333.0V37.0C357.0 39.0 369.0 48.0 370.0 62.0ZM642.0 -90.0H-14.0L-15.0 -120.0H642.0Z"/></g>
<g fill="red" transform="translate(1400 500) scale(0.1 -0.1)"><path d="M0.0 0.0H-106.0V-95.0L-84.0 -58.0C-103.0 -65.0 -129.0 -88.0 -144.0 -106.0L-1.0 -175.0L41.0 -114.0H36.0V-21.0ZM73.0 33.0 -106.0 50.0V-27.0H36.0V4.0C63.0 8.0 71.0 18.0 73.0 33.0ZM679.0 36.0 497.0 50.0V-140.0H521.0C579.0 -140.0 642.0 -124.0 642.0 -117.0V8.0C670.0 12.0 677.0 22.0 679.0 36.0ZM368.0 79.0 188.0 92.0V-104.0H332.0V50.0C359.0 55.0 366.0 65.0 368.0 79.0ZM535.0 -86.0H-21.0V-114.0H535.0Z"/></g>
<g fill="black" opacity=".8" transform="translate(1400 500) scale(0.1 -0.1)"><path d="M0.0 0.0H-108.0V-95.0L-85.0 -59.0C-104.0 -65.0 -130.0 -88.0 -144.0 -106.0L-1.0 -174.0L40.0 -115.0H36.0V-21.0ZM72.0 36.0 -108.0 54.0V-21.0H36.0V7.0C63.0 11.0 71.0 21.0 72.0 36.0ZM677.0 39.0 495.0 54.0V-147.0H519.0C576.0 -147.0 641.0 -130.0 641.0 -122.0V12.0C668.0 15.0 673.0 26.0 677.0 39.0ZM368.0 80.0 190.0 94.0V-100.0H334.0V52.0C359.0 57.0 367.0 67.0 368.0 80.0ZM545.0 -86.0H-16.0V-114.0H545.0Z"/></g>
<g fill="red" transform="translate(1500 500) scale(0.1 -0.1)"><path d="M0.0 0.0H-34.0V-126.0L-21.0 -92.0C-37.0 -96.0 -60.0 -106.0 -70.0 -115.0L-5.0 -160.0L19.0 -129.0H10.0V-6.0ZM48.0 32.0 -34.0 42.0V-34.0H10.0V4.0C34.0 8.0 46.0 17.0 48.0 32.0ZM723.0 33.0 641.0 42.0V-168.0H650.0C667.0 -168.0 685.0 -157.0 685.0 -150.0V6.0C710.0 9.0 720.0 18.0 723.0 33.0ZM377.0 65.0 296.0 75.0V-114.0H340.0V39.0C364.0 42.0 375.0 51.0 377.0 65.0ZM663.0 -99.0H-8.0V-129.0H663.0Z"/></g>
<g fill="black" opacity=".8" transform="translate(1500 500) scale(0.1 -0.1)"><path d="M0.0 0.0H-33.0V-126.0L-20.0 -93.0C-36.0 -96.0 -58.0 -107.0 -68.0 -115.0L-5.0 -159.0L18.0 -129.0H11.0V-6.0ZM47.0 31.0 -33.0 41.0V-33.0H10.0V5.0C33.0 8.0 44.0 17.0 47.0 31.0ZM723.0 31.0 643.0 40.0V-163.0H651.0C669.0 -163.0 686.0 -153.0 686.0 -147.0V5.0C710.0 8.0 719.0 16.0 723.0 31.0ZM380.0 64.0 303.0 74.0V-117.0H344.0V39.0C368.0 42.0 379.0 50.0 380.0 64.0ZM656.0 -100.0H-13.0L-12.0 -130.0H656.0Z"/></g>
<g fill="red" transform="translate(1600 500) scale(0.1 -0.1)"><path d="M0.0 0.0H-107.0V-114.0L-85.0 -76.0C-104.0 -83.0 -130.0 -107.0 -145.0 -124.0L-2.0 -194.0L40.0 -133.0H35.0V-21.0ZM72.0 30.0 -107.0 47.0V-30.0H35.0V1.0C62.0 5.0 70.0 15.0 72.0 30.0ZM713.0 32.0 531.0 47.0V-162.0H555.0C613.0 -162.0 676.0 -145.0 676.0 -138.0V4.0C704.0 9.0 711.0 19.0 713.0 32.0ZM383.0 70.0 203.0 83.0V-123.0H347.0V41.0C374.0 46.0 381.0 56.0 383.0 70.0ZM577.0 -105.0H-3.0V-133.0H577.0Z"/></g>
<g fill="black" opacity=".8" transform="translate(1600 500) scale(0.1 -0.1)"><path d="M0.0 0.0H-108.0V-112.0L-85.0 -75.0C-104.0 -82.0 -130.0 -105.0 -144.0 -123.0L-2.0 -193.0L40.0 -131.0H36.0V-21.0ZM72.0 34.0 -108.0 51.0V-23.0H36.0V4.0C62.0 9.0 71.0 19.0 72.0 34.0ZM710.0 36.0 529.0 50.0V-171.0H553.0C611.0 -171.0 675.0 -153.0 675.0 -145.0V8.0C702.0 12.0 708.0 22.0 710.0 36.0ZM387.0 70.0 207.0 84.0V-116.0H351.0V41.0C378.0 46.0 386.0 56.0 387.0 70.0ZM572.0 -105.0H-13.0L-11.0 -132.0H572.0Z"/></g>
<g fill="red" transform="translate(100 600) scale(0.1 -0.1)"><path d="M0.0 0.0H-34.0V-459.0L-18.0 -430.0C-32.0 -434.0 -52.0 -445.0 -61.0 -454.0L-4.0 -491.0L17.0 -467.0H10.0V-6.0ZM48.0 43.0 -34.0 53.0V-23.0H10.0V15.0C35.0 19.0 46.0 28.0 48.0 43.0ZM275.0 46.0 194.0 56.0V-516.0H203.0C220.0 -516.0 238.0 -506.0 238.0 -498.0V20.0C263.0 23.0 272.0 32.0 275.0 46.0ZM155.0 209.0 79.0 218.0V-452.0H123.0V184.0C145.0 186.0 153.0 195.0 155.0 209.0ZM226.0 -438.0H-16.0V-468.0H226.0Z"/></g>
<g fill="black" opacity=".8" transform="translate(100 600) scale(0.1 -0.1)"><path d="M0.0 0.0H-33.0V-455.0L-16.0 -427.0C-31.0 -431.0 -49.0 -442.0 -58.0 -451.0L-3.0 -486.0L15.0 -463.0H11.0V-6.0ZM47.0 44.0 -33.0 54.0V-19.0H10.0V18.0C34.0 21.0 44.0 29.0 47.0 44.0ZM275.0 47.0 197.0 57.0V-521.0H205.0C222.0 -521.0 239.0 -511.0 239.0 -505.0V22.0C263.0 25.0 270.0 33.0 275.0 47.0ZM153.0 207.0 81.0 216.0V-452.0H123.0V183.0C145.0 185.0 153.0 193.0 153.0 207.0ZM227.0 -437.0H-19.0V-467.0H227.0Z"/></g>
<g fill="red" transform="translate(200 600) scale(0.1 -0.1)"><path d="M0.0 0.0H-72.0V-479.0L-53.0 -443.0C-69.0 -449.0 -92.0 -467.0 -103.0 -480.0L-1.0 -527.0L29.0 -491.0H23.0V-14.0ZM46.0 33.0 -72.0 45.0V-32.0H23.0V13.0C39.0 16.0 45.0 23.0 46.0 33.0ZM301.0 35.0 175.0 47.0V-553.0H194.0C230.0 -553.0 274.0 -532.0 274.0 -523.0V13.0C293.0 16.0 299.0 24.0 301.0 35.0ZM179.0 198.0 50.0 211.0V-479.0H147.0V173.0C169.0 176.0 177.0 185.0 179.0 198.0ZM230.0 -463.0H-26.0V-491.0H230.0Z"/></g>
<g fill="black" opacity=".8" transform="translate(200 600) scale(0.1 -0.1)"><path d="M0.0 0.0H-72.0V-478.0L-53.0 -443.0C-69.0 -450.0 -91.0 -466.0 -102.0 -480.0L-1.0 -526.0L28.0 -490.0H23.0V-13.0ZM44.0 32.0 -72.0 45.0V-29.0H23.0V12.0C37.0 16.0 44.0 23.0 44.0 32.0ZM299.0 34.0 174.0 46.0V-555.0H195.0C229.0 -555.0 274.0 -533.0 274.0 -524.0V14.0C292.0 17.0 296.0 24.0 299.0 34.0ZM179.0 199.0 50.0 212.0V-476.0H148.0V174.0C170.0 177.0 179.0 187.0 179.0 199.0ZM226.0 -465.0H-30.0L-29.0 -492.0H226.0Z"/></g>
<g fill="red" transform="translate(300 600) scale(0.1 -0.1)"><path d="M0.0 0.0H-34.0V-112.0L-21.0 -78.0C-37.0 -82.0 -60.0 -93.0 -70.0 -101.0L-5.0 -146.0L19.0 -115.0H10.0V-6.0ZM48.0 32.0 -34.0 42.0V-34.0H10.0V4.0C34.0 8.0 46.0 17.0 48.0 32.0ZM680.0 33.0 598.0 42.0V-150.0H607.0C624.0 -150.0 642.0 -139.0 642.0 -132.0V6.0C667.0 9.0 677.0 18.0 680.0 33.0ZM366.0 67.0 285.0 77.0V-102.0H329.0V41.0C353.0 44.0 364.0 53.0 366.0 67.0ZM628.0 -85.0H-19.0V-115.0H628.0Z"/></g>
<g fill="black" opacity=".8" transform="translate(300 600) scale(0.1 -0.1)"><path d="M0.0 0.0H-34.0V-111.0L-20.0 -77.0C-37.0 -81.0 -59.0 -92.0 -69.0 -101.0L-5.0 -145.0L19.0 -115.0H11.0V-7.0ZM49.0 34.0 -34.0 44.0V-33.0H10.0V6.0C35.0 10.0 46.0 19.0 49.0 34.0ZM684.0 35.0 601.0 44.0V-153.0H610.0C628.0 -153.0 646.0 -143.0 646.0 -137.0V8.0C671.0 11.0 680.0 19.0 684.0 35.0ZM362.0 71.0 281.0 81.0V-102.0H325.0V45.0C349.0 47.0 361.0 56.0 362.0 71.0ZM624.0 -85.0H-14.0V-116.0H624.0Z"/></g>
<g fill="red" transform="translate(400 600) scale(0.1 -0.1)"><path d="M0.0 0.0H-107.0V-104.0L-85.0 -67.0C-104.0 -74.0 -130.0 -97.0 -145.0 -115.0L-2.0 -185.0L40.0 -124.0H35.0V-21.0ZM72.0 34.0 -107.0 51.0V-26.0H35.0V5.0C62.0 9.0 70.0 19.0 72.0 34.0ZM678.0 34.0 496.0 49.0V-164.0H520.0C578.0 -164.0 641.0 -147.0 641.0 -140.0V6.0C669.0 11.0 676.0 21.0 678.0 34.0ZM379.0 78.0 199.0 91.0V-110.0H343.0V49.0C370.0 54.0 377.0 64.0 379.0 78.0ZM534.0 -96.0H-22.0V-124.0H534.0Z"/></g>
<g fill="black" opacity=".8" transform="translate(400 600) scale(0.1 -0.1)"><path d="M0.0 0.0H-107.0V-104.0L-84.0 -66.0C-104.0 -73.0 -130.0 -96.0 -145.0 -114.0L-2.0 -181.0L40.0 -123.0H36.0V-21.0ZM71.0 33.0 -107.0 51.0V-27.0H36.0V4.0C62.0 9.0 70.0 19.0 71.0 33.0ZM677.0 36.0 495.0 50.0V-165.0H520.0C576.0 -165.0 642.0 -148.0 642.0 -140.0V8.0C668.0 12.0 674.0 22.0 677.0 36.0ZM371.0 74.0 191.0 88.0V-108.0H336.0V45.0C362.0 50.0 370.0 60.0 371.0 74.0ZM546.0 -95.0H-17.0V-124.0H546.0Z"/></g>
<g fill="red" transform="translate(500 600) scale(0.1 -0.1)"><path d="M0 0.0H-34.0V-459.0L-18.0 -430.0C-32.0 -434.0 -52.0 -445.0 -61.0 -454.0L-4.0 -491.0L17.0 -467.0H10.0V-6.0ZM48.0 43.0 -34.0 53.0V-23.0H10.0V15.0C35.0 19.0 46.0 28.0 48.0 43.0ZM275.0 46.0 194.0 56.0V-535.0H203.0C220.0 -535.0 238.0 -523.0 238.0 -515.0V20.0C263.0 23.0 272.0 32.0 275.0 46.0ZM155.0 209.0 79.0 218.0V-452.0H123.0V184.0C145.0 186.0 153.0 195.0 155.0 209.0ZM226.0 -438.0H-16.0V-468.0H226.0Z"/></g>
<g fill="black" opacity=".8" transform="translate(500 600) scale(0.1 -0.1)"><path d="M0.0 0.0H-33.0V-461.0L-16.0 -433.0C-30.0 -437.0 -49.0 -448.0 -58.0 -457.0L-3.0 -492.0L15.0 -469.0H11.0V-6.0ZM47.0 41.0 -33.0 52.0V-22.0H10.0V15.0C34.0 18.0 44.0 27.0 47.0 41.0ZM273.0 43.0 194.0 54.0V-529.0H203.0C219.0 -529.0 237.0 -520.0 237.0 -513.0V19.0C261.0 22.0 268.0 30.0 273.0 43.0ZM153.0 210.0 80.0 219.0V-457.0H122.0V186.0C144.0 188.0 152.0 196.0 153.0 210.0ZM228.0 -441.0H-20.0L-21.0 -471.0H228.0Z"/></g>
<g fill="red" transform="translate(600 600) scale(0.1 -0.1)"><path d="M0 0.0H-71.0V-493.0L-52.0 -458.0C-68.0 -464.0 -91.0 -481.0 -102.0 -494.0L-2.0 -540.0L28.0 -505.0H22.0V-14.0ZM45.0 31.0 -71.0 43.0V-34.0H22.0V11.0C38.0 14.0 44.0 21.0 45.0 31.0ZM290.0 33.0 172.0 45.0V-569.0H190.0C222.0 -569.0 262.0 -549.0 262.0 -540.0V11.0C282.0 15.0 288.0 22.0 290.0 33.0ZM176.0 197.0 51.0 209.0V-495.0H144.0V171.0C167.0 175.0 174.0 184.0 176.0 197.0ZM231.0 -477.0H-25.0V-505.0H231.0Z"/></g>
<g fill="black" opacity=".8" transform="translate(600 600) scale(0.1 -0.1)"><path d="M0.0 0.0H-73.0V-490.0L-54.0 -456.0C-70.0 -462.0 -92.0 -479.0 -103.0 -493.0L-0.0 -540.0L29.0 -504.0H24.0V-14.0ZM46.0 30.0 -73.0 42.0V-32.0H24.0V9.0C38.0 13.0 45.0 20.0 46.0 30.0ZM294.0 31.0 166.0 43.0V-572.0H188.0C222.0 -572.0 269.0 -550.0 269.0 -540.0V11.0C287.0 13.0 291.0 21.0 294.0 31.0ZM178.0 195.0 46.0 208.0V-489.0H147.0V170.0C168.0 173.0 177.0 183.0 178.0 195.0ZM222.0 -476.0H-30.0V-502.0H222.0Z"/></g>
<g fill="red" transform="translate(700 600) scale(0.1 -0.1)"><path d="M0.0 0.0H-34.0V-241.0L-18.0 -212.0C-32.0 -217.0 -52.0 -229.0 -61.0 -236.0L-4.0 -279.0L17.0 -249.0H10.0V-6.0ZM47.0 21.0 -34.0 31.0V-45.0H10.0V-6.0C34.0 -3.0 45.0 7.0 47.0 21.0ZM511.0 14.0 430.0 24.0V-299.0H439.0C456.0 -299.0 474.0 -288.0 474.0 -281.0V-12.0C499.0 -9.0 509.0 0.0 511.0 14.0ZM279.0 60.0 198.0 70.0V-230.0H242.0V34.0C266.0 37.0 277.0 46.0 279.0 60.0ZM457.0 -219.0H-6.0V-249.0H457.0Z"/></g>
<g fill="black" opacity=".8" transform="translate(700 600) scale(0.1 -0.1)"><path d="M0.0 0.0H-32.0V-237.0L-17.0 -207.0C-33.0 -211.0 -52.0 -222.0 -62.0 -230.0L-4.0 -271.0L17.0 -243.0H11.0V-6.0ZM46.0 14.0 -32.0 23.0V-50.0H10.0V-12.0C33.0 -9.0 43.0 -0.0 46.0 14.0ZM512.0 13.0 434.0 23.0V-303.0H442.0C459.0 -303.0 476.0 -294.0 476.0 -288.0V-12.0C499.0 -9.0 508.0 -1.0 512.0 13.0ZM277.0 58.0 201.0 67.0V-232.0H243.0V33.0C266.0 36.0 276.0 44.0 277.0 58.0ZM450.0 -216.0H-2.0L-5.0 -245.0H450.0Z"/></g>
<g fill="red" transform="translate(800 600) scale(0.1 -0.1)"><path d="M0.0 0.0H-96.0V-230.0L-74.0 -193.0C-91.0 -200.0 -115.0 -221.0 -128.0 -237.0L1.0 -311.0L39.0 -247.0H31.0V-19.0ZM67.0 15.0 -96.0 31.0V-46.0H31.0V-12.0C56.0 -9.0 64.0 1.0 67.0 15.0ZM502.0 16.0 344.0 30.0V-317.0H365.0C413.0 -317.0 468.0 -297.0 468.0 -289.0V-10.0C493.0 -6.0 500.0 4.0 502.0 16.0ZM288.0 62.0 126.0 75.0V-234.0H252.0V33.0C279.0 38.0 287.0 48.0 288.0 62.0ZM418.0 -219.0H19.0V-247.0H418.0Z"/></g>
<g fill="black" opacity=".8" transform="translate(800 600) scale(0.1 -0.1)"><path d="M0.0 0.0H-94.0V-232.0L-72.0 -196.0C-89.0 -202.0 -114.0 -222.0 -126.0 -238.0L-0.0 -302.0L36.0 -248.0H31.0V-18.0ZM66.0 21.0 -94.0 37.0V-37.0H31.0V-7.0C55.0 -3.0 63.0 6.0 66.0 21.0ZM504.0 21.0 345.0 34.0V-319.0H367.0C415.0 -319.0 472.0 -299.0 472.0 -291.0V-4.0C495.0 -0.0 501.0 9.0 504.0 21.0ZM287.0 63.0 126.0 76.0V-236.0H255.0V37.0C279.0 40.0 287.0 50.0 287.0 63.0ZM400.0 -223.0H-6.0L-7.0 -250.0H400.0Z"/></g>
<g fill="red" transform="translate(900 600) scale(0.1 -0.1)"><path d="M0.0 0.0H-34.0V-570.0L-18.0 -541.0C-32.0 -545.0 -52.0 -557.0 -61.0 -566.0L-4.0 -608.0L17.0 -578.0H10.0V-6.0ZM47.0 21.0 -34.0 31.0V-45.0H10.0V-6.0C34.0 -2.0 45.0 7.0 47.0 21.0ZM532.0 19.0 451.0 29.0V-634.0H460.0C477.0 -634.0 495.0 -623.0 495.0 -615.0V-7.0C520.0 -4.0 529.0 5.0 532.0 19.0ZM287.0 258.0 207.0 268.0V-560.0H251.0V231.0C275.0 235.0 284.0 244.0 287.0 258.0ZM476.0 -549.0H-16.0V-579.0H476.0Z"/></g>
<g fill="black" opacity=".8" transform="translate(900 600) scale(0.1 -0.1)"><path d="M0.0 0.0H-35.0V-568.0L-18.0 -537.0C-34.0 -540.0 -54.0 -552.0 -64.0 -561.0L-4.0 -605.0L17.0 -574.0H11.0V-6.0ZM48.0 26.0 -35.0 36.0V-41.0H10.0V-1.0C35.0 2.0 45.0 12.0 48.0 26.0ZM535.0 21.0 453.0 31.0V-638.0H462.0C479.0 -638.0 498.0 -626.0 498.0 -619.0V-5.0C523.0 -2.0 531.0 7.0 535.0 21.0ZM287.0 252.0 207.0 262.0V-558.0H251.0V225.0C275.0 228.0 285.0 238.0 287.0 252.0ZM475.0 -547.0H-20.0L-19.0 -578.0H475.0Z"/></g>
<g fill="red" transform="translate(1000 600) scale(0.1 -0.1)"><path d="M0.0 0.0H-106.0V-619.0L-83.0 -581.0C-101.0 -588.0 -125.0 -611.0 -138.0 -628.0L2.0 -706.0L42.0 -638.0H34.0V-21.0ZM71.0 24.0 -106.0 41.0V-36.0H34.0V-4.0C60.0 0.0 68.0 9.0 71.0 24.0ZM515.0 28.0 338.0 44.0V-721.0H364.0C418.0 -721.0 480.0 -690.0 480.0 -677.0V1.0C506.0 5.0 513.0 15.0 515.0 28.0ZM295.0 195.0 117.0 211.0V-625.0H258.0V166.0C286.0 170.0 293.0 180.0 295.0 195.0ZM387.0 -610.0H-7.0V-638.0H387.0Z"/></g>
<g fill="black" opacity=".8" transform="translate(1000 600) scale(0.1 -0.1)"><path d="M0.0 0.0H-101.0V-620.0L-79.0 -582.0C-97.0 -589.0 -122.0 -611.0 -135.0 -628.0L0.0 -707.0L41.0 -638.0H33.0V-19.0ZM69.0 22.0 -101.0 38.0V-39.0H33.0V-8.0C59.0 -3.0 68.0 6.0 69.0 22.0ZM512.0 23.0 340.0 38.0V-723.0H366.0C417.0 -723.0 478.0 -693.0 478.0 -679.0V-5.0C503.0 -1.0 509.0 9.0 512.0 23.0ZM294.0 201.0 118.0 217.0V-624.0H255.0V171.0C283.0 175.0 292.0 186.0 294.0 201.0ZM386.0 -612.0H-10.0L-9.0 -640.0H386.0Z"/></g>
<g fill="red" transform="translate(1100 600) scale(0.1 -0.1)"><path d="M0.0 0.0H-34.0V-195.0L-21.0 -161.0C-37.0 -166.0 -60.0 -175.0 -70.0 -184.0L-5.0 -229.0L19.0 -199.0H10.0V-6.0ZM49.0 13.0 -33.0 23.0V-53.0H11.0V-15.0C35.0 -11.0 47.0 -2.0 49.0 13.0ZM518.0 14.0 436.0 23.0V-265.0H445.0C462.0 -265.0 480.0 -253.0 480.0 -246.0V-13.0C505.0 -10.0 515.0 -1.0 518.0 14.0ZM279.0 52.0 200.0 61.0V-183.0H246.0V27.0C268.0 30.0 277.0 39.0 279.0 52.0ZM457.0 -170.0H-16.0V-200.0H457.0Z"/></g>
<g fill="black" opacity=".8" transform="translate(1100 600) scale(0.1 -0.1)"><path d="M0.0 0.0H-34.0V-192.0L-18.0 -160.0C-34.0 -165.0 -55.0 -176.0 -65.0 -185.0L-4.0 -226.0L17.0 -198.0H11.0V-6.0ZM48.0 15.0 -34.0 25.0V-52.0H11.0V-13.0C35.0 -9.0 45.0 -0.0 48.0 15.0ZM516.0 13.0 435.0 23.0V-262.0H443.0C461.0 -262.0 479.0 -253.0 479.0 -246.0V-12.0C503.0 -10.0 512.0 -2.0 516.0 13.0ZM279.0 47.0 201.0 57.0V-184.0H245.0V22.0C268.0 25.0 278.0 33.0 279.0 47.0ZM466.0 -168.0H-9.0L-13.0 -199.0H466.0Z"/></g>
<g fill="red" transform="translate(1200 600) scale(0.1 -0.1)"><path d="M0.0 0.0H-95.0V-198.0L-74.0 -161.0C-93.0 -168.0 -119.0 -189.0 -133.0 -205.0L-2.0 -271.0L37.0 -215.0H31.0V-19.0ZM69.0 15.0 -95.0 31.0V-46.0H31.0V-14.0C57.0 -10.0 66.0 0.0 69.0 15.0ZM515.0 22.0 351.0 36.0V-288.0H374.0C424.0 -288.0 483.0 -268.0 483.0 -260.0V-3.0C507.0 1.0 514.0 10.0 515.0 22.0ZM295.0 36.0 124.0 49.0V-208.0H258.0V7.0C286.0 12.0 293.0 22.0 295.0 36.0ZM421.0 -187.0H-21.0V-215.0H421.0Z"/></g>
<g fill="black" opacity=".8" transform="translate(1200 600) scale(0.1 -0.1)"><path d="M0.0 0.0H-97.0V-199.0L-74.0 -161.0C-92.0 -168.0 -117.0 -189.0 -131.0 -206.0L-1.0 -270.0L37.0 -216.0H32.0V-19.0ZM68.0 18.0 -97.0 35.0V-43.0H32.0V-11.0C56.0 -7.0 65.0 3.0 68.0 18.0ZM515.0 18.0 350.0 31.0V-293.0H374.0C423.0 -293.0 482.0 -272.0 482.0 -264.0V-8.0C506.0 -4.0 512.0 5.0 515.0 18.0ZM295.0 40.0 128.0 54.0V-204.0H262.0V13.0C286.0 16.0 295.0 27.0 295.0 40.0ZM420.0 -188.0H-19.0L-20.0 -216.0H420.0Z"/></g>
<g fill="red" transform="translate(1300 600) scale(0.1 -0.1)"><path d="M0.0 0.0H-34.0V-418.0L-21.0 -383.0C-37.0 -387.0 -60.0 -398.0 -70.0 -407.0L-5.0 -451.0L19.0 -421.0H10.0V-6.0ZM48.0 23.0 -34.0 33.0V-43.0H10.0V-5.0C35.0 -1.0 46.0 8.0 48.0 23.0ZM546.0 24.0 465.0 34.0V-484.0H474.0C491.0 -484.0 509.0 -473.0 509.0 -466.0V-2.0C534.0 1.0 543.0 10.0 546.0 24.0ZM296.0 172.0 215.0 182.0V-405.0H259.0V145.0C283.0 149.0 293.0 158.0 296.0 172.0ZM493.0 -391.0H-12.0V-421.0H493.0Z"/></g>
<g fill="black" opacity=".8" transform="translate(1300 600) scale(0.1 -0.1)"><path d="M0.0 0.0H-34.0V-411.0L-18.0 -381.0C-33.0 -384.0 -53.0 -396.0 -62.0 -405.0L-4.0 -447.0L17.0 -418.0H11.0V-6.0ZM47.0 14.0 -34.0 24.0V-51.0H10.0V-12.0C34.0 -9.0 44.0 0.0 47.0 14.0ZM542.0 12.0 462.0 22.0V-476.0H470.0C488.0 -476.0 506.0 -466.0 506.0 -460.0V-13.0C530.0 -10.0 538.0 -2.0 542.0 12.0ZM292.0 160.0 213.0 170.0V-403.0H256.0V134.0C280.0 137.0 291.0 146.0 292.0 160.0ZM494.0 -385.0H-17.0L-18.0 -415.0H494.0Z"/></g>
<g fill="red" transform="translate(1400 600) scale(0.1 -0.1)"><path d="M0.0 0.0H-97.0V-430.0L-76.0 -393.0C-95.0 -400.0 -121.0 -421.0 -135.0 -438.0L-2.0 -504.0L37.0 -447.0H31.0V-19.0ZM69.0 12.0 -97.0 28.0V-49.0H31.0V-17.0C57.0 -13.0 66.0 -3.0 69.0 12.0ZM500.0 12.0 331.0 27.0V-531.0H354.0C406.0 -531.0 463.0 -508.0 463.0 -497.0V-16.0C490.0 -12.0 498.0 -2.0 500.0 12.0ZM286.0 124.0 114.0 139.0V-438.0H249.0V96.0C276.0 100.0 284.0 110.0 286.0 124.0ZM382.0 -419.0H-22.0V-447.0H382.0Z"/></g>
<g fill="black" opacity=".8" transform="translate(1400 600) scale(0.1 -0.1)"><path d="M0.0 0.0H-102.0V-437.0L-80.0 -400.0C-98.0 -407.0 -123.0 -429.0 -136.0 -446.0L0.0 -520.0L40.0 -456.0H34.0V-20.0ZM71.0 20.0 -102.0 37.0V-39.0H34.0V-11.0C60.0 -6.0 70.0 4.0 71.0 20.0ZM503.0 21.0 330.0 36.0V-530.0H355.0C407.0 -530.0 468.0 -504.0 468.0 -492.0V-7.0C494.0 -2.0 500.0 7.0 503.0 21.0ZM287.0 136.0 113.0 151.0V-443.0H252.0V108.0C278.0 111.0 287.0 122.0 287.0 136.0ZM389.0 -425.0H-11.0L-13.0 -453.0H389.0Z"/></g>
<g fill="red" transform="translate(1500 600) scale(0.1 -0.1)"><path d="M0.0 0.0H-34.0V-145.0L-21.0 -110.0C-37.0 -114.0 -60.0 -125.0 -70.0 -133.0L-5.0 -178.0L19.0 -148.0H10.0V-6.0ZM48.0 24.0 -34.0 34.0V-42.0H10.0V-4.0C34.0 0.0 46.0 9.0 48.0 24.0ZM560.0 17.0 478.0 26.0V-194.0H487.0C504.0 -194.0 522.0 -182.0 522.0 -175.0V-10.0C547.0 -7.0 557.0 2.0 560.0 17.0ZM296.0 59.0 223.0 68.0V-139.0H266.0V36.0C286.0 39.0 294.0 47.0 296.0 59.0ZM509.0 -118.0H-11.0V-148.0H509.0Z"/></g>
<g fill="black" opacity=".8" transform="translate(1500 600) scale(0.1 -0.1)"><path d="M0.0 0.0H-32.0V-144.0L-18.0 -113.0C-33.0 -117.0 -53.0 -128.0 -63.0 -136.0L-4.0 -176.0L17.0 -149.0H11.0V-6.0ZM46.0 20.0 -32.0 29.0V-44.0H10.0V-6.0C33.0 -3.0 43.0 6.0 46.0 20.0ZM555.0 21.0 477.0 31.0V-194.0H485.0C502.0 -194.0 519.0 -185.0 519.0 -180.0V-4.0C543.0 -1.0 551.0 6.0 555.0 21.0ZM297.0 59.0 222.0 69.0V-136.0H263.0V34.0C286.0 37.0 297.0 45.0 297.0 59.0ZM520.0 -119.0H-18.0L-21.0 -148.0H520.0Z"/></g>
<g fill="red" transform="translate(1600 600) scale(0.1 -0.1)"><path d="M0.0 0.0H-94.0V-142.0L-73.0 -105.0C-92.0 -112.0 -118.0 -133.0 -132.0 -149.0L-2.0 -214.0L37.0 -159.0H31.0V-18.0ZM69.0 29.0 -94.0 45.0V-32.0H31.0V0.0C57.0 4.0 66.0 14.0 69.0 29.0ZM531.0 30.0 364.0 44.0V-211.0H387.0C439.0 -211.0 498.0 -193.0 498.0 -185.0V5.0C523.0 9.0 529.0 18.0 531.0 30.0ZM299.0 59.0 135.0 72.0V-152.0H271.0V35.0C292.0 39.0 298.0 47.0 299.0 59.0ZM445.0 -131.0H-35.0V-159.0H445.0Z"/></g>
<g fill="black" opacity=".8" transform="translate(1600 600) scale(0.1 -0.1)"><path d="M0.0 0.0H-98.0V-142.0L-77.0 -106.0C-95.0 -112.0 -119.0 -133.0 -132.0 -150.0L-1.0 -212.0L37.0 -160.0H33.0V-19.0ZM67.0 25.0 -98.0 42.0V-33.0H33.0V-4.0C57.0 1.0 65.0 10.0 67.0 25.0ZM534.0 27.0 367.0 40.0V-211.0H390.0C441.0 -211.0 501.0 -192.0 501.0 -185.0V0.0C526.0 4.0 531.0 13.0 534.0 27.0ZM299.0 61.0 133.0 74.0V-147.0H267.0V35.0C291.0 39.0 299.0 49.0 299.0 61.0ZM439.0 -132.0H-27.0L-29.0 -159.0H439.0Z"/></g>
<g fill="red" transform="translate(100 700) scale(0.1 -0.1)"><path d="M0.0 0.0H-34.0V-167.0L-21.0 -133.0C-37.0 -137.0 -60.0 -148.0 -70.0 -157.0L-5.0 -201.0L19.0 -171.0H10.0V-6.0ZM48.0 31.0 -34.0 41.0V-35.0H10.0V3.0C35.0 7.0 46.0 16.0 48.0 31.0ZM692.0 32.0 610.0 41.0V-210.0H619.0C636.0 -210.0 654.0 -198.0 654.0 -192.0V5.0C679.0 8.0 689.0 17.0 692.0 32.0ZM360.0 73.0 279.0 83.0V-161.0H323.0V47.0C347.0 50.0 358.0 59.0 360.0 73.0ZM634.0 -141.0H-27.0V-171.0H634.0Z"/></g>
<g fill="black" opacity=".8" transform="translate(100 700) scale(0.1 -0.1)"><path d="M0.0 0.0H-34.0V-167.0L-20.0 -134.0C-37.0 -137.0 -58.0 -148.0 -68.0 -156.0L-5.0 -201.0L18.0 -171.0H11.0V-7.0ZM48.0 28.0 -34.0 38.0V-39.0H10.0V0.0C34.0 4.0 45.0 13.0 48.0 28.0ZM688.0 29.0 607.0 39.0V-206.0H615.0C633.0 -206.0 651.0 -196.0 651.0 -190.0V3.0C676.0 6.0 684.0 14.0 688.0 29.0ZM364.0 69.0 284.0 79.0V-160.0H327.0V42.0C352.0 45.0 363.0 54.0 364.0 69.0ZM636.0 -138.0H-19.0V-169.0H636.0Z"/></g>
<g fill="red" transform="translate(200 700) scale(0.1 -0.1)"><path d="M0.0 0.0H-107.0V-141.0L-85.0 -104.0C-104.0 -111.0 -130.0 -134.0 -145.0 -152.0L-2.0 -222.0L40.0 -161.0H35.0V-21.0ZM72.0 35.0 -107.0 52.0V-25.0H35.0V6.0C62.0 10.0 70.0 20.0 72.0 35.0ZM661.0 37.0 479.0 52.0V-207.0H503.0C561.0 -207.0 624.0 -189.0 624.0 -181.0V9.0C652.0 13.0 659.0 24.0 661.0 37.0ZM360.0 81.0 180.0 94.0V-145.0H324.0V52.0C351.0 57.0 358.0 67.0 360.0 81.0ZM535.0 -133.0H-21.0V-161.0H535.0Z"/></g>
<g fill="black" opacity=".8" transform="translate(200 700) scale(0.1 -0.1)"><path d="M0.0 0.0H-108.0V-145.0L-85.0 -108.0C-105.0 -115.0 -131.0 -138.0 -145.0 -156.0L-1.0 -226.0L40.0 -165.0H36.0V-21.0ZM73.0 35.0 -108.0 53.0V-24.0H36.0V5.0C63.0 9.0 72.0 19.0 73.0 35.0ZM662.0 38.0 479.0 53.0V-204.0H503.0C560.0 -204.0 626.0 -185.0 626.0 -177.0V10.0C653.0 14.0 658.0 24.0 662.0 38.0ZM362.0 85.0 181.0 99.0V-151.0H326.0V57.0C353.0 61.0 361.0 72.0 362.0 85.0ZM538.0 -135.0H-23.0V-163.0H538.0Z"/></g>
<g fill="red" transform="translate(300 700) scale(0.1 -0.1)"><path d="M0.0 0.0H-34.0V-589.0L-18.0 -560.0C-32.0 -564.0 -52.0 -575.0 -61.0 -584.0L-4.0 -626.0L17.0 -597.0H10.0V-6.0ZM47.0 21.0 -34.0 31.0V-45.0H10.0V-6.0C34.0 -2.0 45.0 7.0 47.0 21.0ZM441.0 18.0 360.0 28.0V-663.0H369.0C386.0 -663.0 404.0 -652.0 404.0 -643.0V-9.0C429.0 -5.0 438.0 4.0 441.0 18.0ZM241.0 233.0 161.0 243.0V-585.0H205.0V206.0C229.0 210.0 238.0 219.0 241.0 233.0ZM379.0 -568.0H-14.0V-598.0H379.0Z"/></g>
<g fill="black" opacity=".8" transform="translate(300 700) scale(0.1 -0.1)"><path d="M0.0 0.0H-34.0V-591.0L-17.0 -562.0C-32.0 -565.0 -51.0 -577.0 -60.0 -586.0L-3.0 -627.0L16.0 -599.0H11.0V-6.0ZM47.0 22.0 -34.0 32.0V-44.0H10.0V-5.0C34.0 -2.0 44.0 8.0 47.0 22.0ZM441.0 21.0 360.0 31.0V-663.0H369.0C386.0 -663.0 404.0 -652.0 404.0 -645.0V-5.0C429.0 -1.0 436.0 7.0 441.0 21.0ZM240.0 233.0 163.0 242.0V-586.0H206.0V206.0C230.0 209.0 239.0 218.0 240.0 233.0ZM378.0 -568.0H-12.0L-13.0 -599.0H378.0Z"/></g>
<g fill="red" transform="translate(400 700) scale(0.1 -0.1)"><path d="M0.0 0.0H-93.0V-616.0L-71.0 -579.0C-89.0 -586.0 -112.0 -606.0 -125.0 -622.0L1.0 -695.0L39.0 -632.0H31.0V-18.0ZM67.0 32.0 -93.0 48.0V-29.0H31.0V4.0C56.0 8.0 65.0 18.0 67.0 32.0ZM410.0 36.0 255.0 51.0V-714.0H277.0C323.0 -714.0 375.0 -687.0 375.0 -675.0V10.0C401.0 13.0 408.0 23.0 410.0 36.0ZM239.0 214.0 80.0 229.0V-621.0H203.0V185.0C230.0 189.0 237.0 199.0 239.0 214.0ZM309.0 -604.0H10.0V-632.0H309.0Z"/></g>
<g fill="black" opacity=".8" transform="translate(400 700) scale(0.1 -0.1)"><path d="M0.0 0.0H-93.0V-616.0L-72.0 -579.0C-89.0 -586.0 -113.0 -606.0 -125.0 -622.0L1.0 -693.0L37.0 -633.0H31.0V-17.0ZM63.0 26.0 -93.0 41.0V-35.0H31.0V-3.0C54.0 2.0 63.0 11.0 63.0 26.0ZM412.0 27.0 253.0 42.0V-712.0H277.0C323.0 -712.0 379.0 -684.0 379.0 -671.0V1.0C403.0 5.0 408.0 14.0 412.0 27.0ZM241.0 215.0 79.0 230.0V-619.0H205.0V186.0C231.0 190.0 239.0 201.0 241.0 215.0ZM299.0 -604.0H-4.0L-5.0 -632.0H299.0Z"/></g>
<g fill="red" transform="translate(500 700) scale(0.1 -0.1)"><path d="M0.0 0.0H-34.0V-574.0L-18.0 -546.0C-32.0 -550.0 -52.0 -562.0 -61.0 -569.0L-4.0 -612.0L17.0 -582.0H10.0V-6.0ZM47.0 23.0 -34.0 33.0V-43.0H10.0V-4.0C34.0 0.0 45.0 9.0 47.0 23.0ZM516.0 21.0 435.0 31.0V-642.0H444.0C461.0 -642.0 479.0 -630.0 479.0 -622.0V-5.0C504.0 -2.0 513.0 7.0 516.0 21.0ZM276.0 251.0 196.0 261.0V-567.0H240.0V224.0C264.0 228.0 273.0 237.0 276.0 251.0ZM453.0 -553.0H-15.0V-583.0H453.0Z"/></g>
<g fill="black" opacity=".8" transform="translate(500 700) scale(0.1 -0.1)"><path d="M0.0 0.0H-34.0V-575.0L-18.0 -545.0C-33.0 -548.0 -53.0 -560.0 -63.0 -569.0L-4.0 -612.0L16.0 -582.0H11.0V-6.0ZM47.0 25.0 -34.0 35.0V-41.0H10.0V-2.0C34.0 1.0 44.0 11.0 47.0 25.0ZM515.0 22.0 434.0 32.0V-643.0H443.0C460.0 -643.0 479.0 -632.0 479.0 -625.0V-5.0C503.0 -1.0 511.0 7.0 515.0 22.0ZM277.0 250.0 198.0 260.0V-566.0H242.0V223.0C266.0 226.0 276.0 235.0 277.0 250.0ZM455.0 -553.0H-18.0L-17.0 -583.0H455.0Z"/></g>
<g fill="red" transform="translate(600 700) scale(0.1 -0.1)"><path d="M0.0 0.0H-102.0V-620.0L-80.0 -582.0C-97.0 -589.0 -121.0 -611.0 -134.0 -627.0L1.0 -704.0L41.0 -638.0H33.0V-20.0ZM69.0 24.0 -102.0 41.0V-36.0H33.0V-4.0C58.0 0.0 67.0 10.0 69.0 24.0ZM485.0 28.0 316.0 44.0V-721.0H341.0C392.0 -721.0 451.0 -691.0 451.0 -679.0V1.0C477.0 5.0 483.0 15.0 485.0 28.0ZM279.0 206.0 107.0 222.0V-628.0H242.0V177.0C269.0 181.0 277.0 191.0 279.0 206.0ZM358.0 -610.0H-7.0V-638.0H358.0Z"/></g>
<g fill="black" opacity=".8" transform="translate(600 700) scale(0.1 -0.1)"><path d="M0.0 0.0H-100.0V-621.0L-78.0 -583.0C-96.0 -591.0 -121.0 -612.0 -133.0 -629.0L0.0 -706.0L40.0 -639.0H33.0V-19.0ZM68.0 23.0 -100.0 40.0V-37.0H33.0V-7.0C58.0 -2.0 67.0 8.0 68.0 23.0ZM485.0 24.0 315.0 40.0V-720.0H341.0C391.0 -720.0 451.0 -690.0 451.0 -676.0V-3.0C477.0 1.0 482.0 11.0 485.0 24.0ZM279.0 207.0 106.0 223.0V-625.0H241.0V178.0C269.0 182.0 277.0 193.0 279.0 207.0ZM359.0 -611.0H-5.0V-639.0H359.0Z"/></g>
<g fill="red" transform="translate(700 700) scale(0.1 -0.1)"><path d="M0.0 0.0H-34.0V-459.0L-21.0 -425.0C-37.0 -429.0 -60.0 -439.0 -70.0 -448.0L-5.0 -493.0L19.0 -462.0H10.0V-6.0ZM48.0 23.0 -34.0 33.0V-43.0H10.0V-5.0C35.0 -1.0 46.0 8.0 48.0 23.0ZM479.0 24.0 398.0 34.0V-526.0H407.0C424.0 -526.0 442.0 -514.0 442.0 -506.0V-2.0C467.0 1.0 476.0 10.0 479.0 24.0ZM259.0 210.0 179.0 220.0V-450.0H223.0V183.0C247.0 187.0 257.0 196.0 259.0 210.0ZM422.0 -433.0H-22.0V-463.0H422.0Z"/></g>
<g fill="black" opacity=".8" transform="translate(700 700) scale(0.1 -0.1)"><path d="M0.0 0.0H-34.0V-451.0L-18.0 -421.0C-34.0 -424.0 -54.0 -436.0 -63.0 -445.0L-4.0 -487.0L17.0 -458.0H11.0V-6.0ZM48.0 18.0 -34.0 28.0V-49.0H10.0V-10.0C35.0 -6.0 45.0 3.0 48.0 18.0ZM476.0 19.0 395.0 29.0V-524.0H403.0C421.0 -524.0 440.0 -514.0 440.0 -507.0V-8.0C464.0 -4.0 472.0 4.0 476.0 19.0ZM259.0 201.0 181.0 210.0V-446.0H224.0V174.0C248.0 178.0 257.0 186.0 259.0 201.0ZM428.0 -428.0H-19.0L-21.0 -459.0H428.0Z"/></g>
<g fill="red" transform="translate(800 700) scale(0.1 -0.1)"><path d="M0.0 0.0H-90.0V-445.0L-70.0 -408.0C-88.0 -415.0 -114.0 -435.0 -128.0 -451.0L-2.0 -515.0L36.0 -460.0H30.0V-18.0ZM67.0 26.0 -90.0 42.0V-35.0H30.0V-2.0C56.0 2.0 64.0 12.0 67.0 26.0ZM455.0 22.0 293.0 37.0V-540.0H315.0C364.0 -540.0 418.0 -516.0 418.0 -506.0V-6.0C446.0 -2.0 453.0 8.0 455.0 22.0ZM267.0 198.0 95.0 213.0V-439.0H230.0V169.0C257.0 173.0 265.0 183.0 267.0 198.0ZM378.0 -432.0H-26.0V-460.0H378.0Z"/></g>
<g fill="black" opacity=".8" transform="translate(800 700) scale(0.1 -0.1)"><path d="M0.0 0.0H-93.0V-447.0L-72.0 -410.0C-90.0 -417.0 -115.0 -437.0 -127.0 -453.0L0.0 -520.0L37.0 -464.0H31.0V-18.0ZM64.0 29.0 -93.0 44.0V-33.0H31.0V0.0C54.0 5.0 63.0 15.0 64.0 29.0ZM455.0 30.0 297.0 44.0V-542.0H320.0C367.0 -542.0 423.0 -517.0 423.0 -506.0V4.0C447.0 8.0 452.0 17.0 455.0 30.0ZM263.0 207.0 100.0 222.0V-450.0H228.0V179.0C253.0 183.0 262.0 193.0 263.0 207.0ZM373.0 -436.0H-27.0L-28.0 -464.0H373.0Z"/></g>
<g fill="red" transform="translate(900 700) scale(0.1 -0.1)"><path d="M0.0 0.0H-34.0V-200.0L-18.0 -170.0C-32.0 -175.0 -52.0 -187.0 -61.0 -195.0L-4.0 -232.0L17.0 -208.0H10.0V-6.0ZM47.0 17.0 -34.0 27.0V-49.0H10.0V-10.0C34.0 -6.0 45.0 3.0 47.0 17.0ZM543.0 27.0 461.0 36.0V-264.0H470.0C487.0 -264.0 505.0 -254.0 505.0 -247.0V0.0C530.0 3.0 540.0 12.0 543.0 27.0ZM294.0 92.0 213.0 102.0V-194.0H257.0V66.0C281.0 69.0 292.0 78.0 294.0 92.0ZM476.0 -179.0H-7.0V-209.0H476.0Z"/></g>
<g fill="black" opacity=".8" transform="translate(900 700) scale(0.1 -0.1)"><path d="M0.0 0.0H-36.0V-201.0L-19.0 -168.0C-36.0 -173.0 -57.0 -185.0 -68.0 -194.0L-4.0 -237.0L18.0 -209.0H12.0V-7.0ZM51.0 21.0 -36.0 31.0V-50.0H11.0V-8.0C37.0 -5.0 48.0 5.0 51.0 21.0ZM545.0 25.0 457.0 35.0V-268.0H466.0C485.0 -268.0 504.0 -258.0 504.0 -252.0V-3.0C530.0 -0.0 540.0 8.0 545.0 25.0ZM297.0 97.0 212.0 108.0V-193.0H258.0V70.0C284.0 72.0 295.0 81.0 297.0 97.0ZM485.0 -177.0H-1.0L-7.0 -211.0H485.0Z"/></g>
<g fill="red" transform="translate(1000 700) scale(0.1 -0.1)"><path d="M0.0 0.0H-112.0V-202.0L-88.0 -163.0C-107.0 -170.0 -130.0 -194.0 -144.0 -212.0L3.0 -272.0L41.0 -222.0H37.0V-22.0ZM73.0 25.0 -112.0 43.0V-34.0H37.0V-3.0C63.0 1.0 70.0 11.0 73.0 25.0ZM529.0 23.0 343.0 38.0V-290.0H368.0C427.0 -290.0 492.0 -270.0 492.0 -262.0V-5.0C520.0 -1.0 527.0 9.0 529.0 23.0ZM294.0 106.0 116.0 120.0V-208.0H264.0V81.0C287.0 85.0 293.0 94.0 294.0 106.0ZM401.0 -194.0H-17.0V-222.0H401.0Z"/></g>
<g fill="black" opacity=".8" transform="translate(1000 700) scale(0.1 -0.1)"><path d="M0.0 0.0H-106.0V-203.0L-82.0 -163.0C-101.0 -170.0 -127.0 -193.0 -141.0 -210.0L-0.0 -275.0L40.0 -222.0H35.0V-21.0ZM73.0 26.0 -106.0 45.0V-39.0H35.0V-4.0C61.0 0.0 70.0 11.0 73.0 26.0ZM524.0 27.0 344.0 43.0V-286.0H369.0C424.0 -286.0 488.0 -265.0 488.0 -257.0V-1.0C515.0 3.0 521.0 13.0 524.0 27.0ZM299.0 102.0 120.0 117.0V-208.0H265.0V75.0C290.0 78.0 299.0 89.0 299.0 102.0ZM406.0 -194.0H-4.0L-8.0 -224.0H406.0Z"/></g>
<g fill="red" transform="translate(1100 700) scale(0.1 -0.1)"><path d="M0.0 0.0H-34.0V-233.0L-21.0 -198.0C-37.0 -202.0 -60.0 -213.0 -70.0 -222.0L-5.0 -266.0L19.0 -235.0H10.0V-6.0ZM48.0 30.0 -34.0 40.0V-36.0H10.0V2.0C34.0 6.0 46.0 15.0 48.0 30.0ZM699.0 31.0 618.0 40.0V-274.0H627.0C644.0 -274.0 662.0 -263.0 662.0 -257.0V4.0C687.0 7.0 697.0 16.0 699.0 31.0ZM377.0 75.0 296.0 85.0V-224.0H340.0V49.0C364.0 52.0 375.0 61.0 377.0 75.0ZM647.0 -205.0H-19.0V-235.0H647.0Z"/></g>
<g fill="black" opacity=".8" transform="translate(1100 700) scale(0.1 -0.1)"><path d="M0.0 0.0H-34.0V-233.0L-20.0 -199.0C-37.0 -202.0 -59.0 -214.0 -68.0 -222.0L-5.0 -268.0L18.0 -237.0H11.0V-6.0ZM48.0 29.0 -34.0 39.0V-37.0H10.0V2.0C34.0 5.0 45.0 15.0 48.0 29.0ZM701.0 28.0 620.0 38.0V-272.0H628.0C646.0 -272.0 664.0 -261.0 664.0 -256.0V2.0C689.0 5.0 697.0 13.0 701.0 28.0ZM370.0 75.0 290.0 86.0V-226.0H332.0V49.0C357.0 52.0 369.0 61.0 370.0 75.0ZM644.0 -205.0H-20.0L-19.0 -235.0H644.0Z"/></g>
<g fill="red" transform="translate(1200 700) scale(0.1 -0.1)"><path d="M0.0 0.0H-107.0V-220.0L-85.0 -183.0C-104.0 -190.0 -130.0 -213.0 -145.0 -231.0L-2.0 -300.0L40.0 -240.0H35.0V-21.0ZM72.0 34.0 -107.0 51.0V-26.0H35.0V5.0C62.0 9.0 70.0 19.0 72.0 34.0ZM678.0 36.0 496.0 51.0V-291.0H521.0C578.0 -291.0 641.0 -271.0 641.0 -262.0V8.0C669.0 12.0 676.0 22.0 678.0 36.0ZM359.0 79.0 179.0 93.0V-226.0H323.0V51.0C350.0 55.0 357.0 65.0 359.0 79.0ZM534.0 -212.0H-22.0V-241.0H534.0Z"/></g>
<g fill="black" opacity=".8" transform="translate(1200 700) scale(0.1 -0.1)"><path d="M0.0 0.0H-109.0V-222.0L-86.0 -185.0C-106.0 -192.0 -132.0 -215.0 -146.0 -233.0L-1.0 -308.0L42.0 -242.0H36.0V-21.0ZM74.0 33.0 -109.0 51.0V-26.0H36.0V2.0C64.0 7.0 73.0 17.0 74.0 33.0ZM675.0 37.0 491.0 52.0V-286.0H516.0C573.0 -286.0 639.0 -265.0 639.0 -256.0V8.0C666.0 12.0 672.0 22.0 675.0 37.0ZM369.0 79.0 186.0 94.0V-228.0H332.0V50.0C360.0 55.0 368.0 65.0 369.0 79.0ZM541.0 -213.0H-19.0L-18.0 -241.0H541.0Z"/></g>
<g fill="red" transform="translate(1300 700) scale(0.1 -0.1)"><path d="M0.0 0.0H-34.0V-172.0L-21.0 -138.0C-37.0 -142.0 -60.0 -153.0 -70.0 -162.0L-5.0 -206.0L19.0 -175.0H10.0V-6.0ZM48.0 29.0 -34.0 39.0V-37.0H10.0V1.0C35.0 5.0 46.0 14.0 48.0 29.0ZM701.0 30.0 619.0 39.0V-226.0H628.0C645.0 -226.0 663.0 -214.0 663.0 -207.0V3.0C688.0 6.0 698.0 15.0 701.0 30.0ZM375.0 73.0 294.0 83.0V-161.0H338.0V47.0C362.0 50.0 373.0 59.0 375.0 73.0ZM538.0 -271.0H70.0V-301.0H538.0Z"/></g>
<g fill="black" opacity=".8" transform="translate(1300 700) scale(0.1 -0.1)"><path d="M0.0 0.0H-33.0V-171.0L-19.0 -140.0C-35.0 -143.0 -56.0 -155.0 -65.0 -163.0L-4.0 -206.0L17.0 -176.0H10.0V-6.0ZM46.0 27.0 -33.0 37.0V-37.0H10.0V0.0C33.0 4.0 44.0 13.0 46.0 27.0ZM694.0 29.0 615.0 38.0V-221.0H623.0C640.0 -221.0 658.0 -211.0 658.0 -205.0V3.0C682.0 6.0 691.0 14.0 694.0 29.0ZM371.0 69.0 292.0 80.0V-165.0H334.0V44.0C359.0 46.0 370.0 55.0 371.0 69.0ZM559.0 -274.0H56.0L51.0 -304.0H559.0Z"/></g>
<g fill="red" transform="translate(1400 700) scale(0.1 -0.1)"><path d="M0.0 0.0H-107.0V-165.0L-85.0 -127.0C-104.0 -134.0 -130.0 -158.0 -145.0 -175.0L-2.0 -245.0L40.0 -184.0H35.0V-21.0ZM72.0 32.0 -107.0 49.0V-28.0H35.0V3.0C62.0 7.0 70.0 17.0 72.0 32.0ZM678.0 34.0 496.0 49.0V-233.0H520.0C578.0 -233.0 641.0 -215.0 641.0 -207.0V6.0C669.0 10.0 676.0 21.0 678.0 34.0ZM372.0 77.0 192.0 91.0V-171.0H336.0V49.0C363.0 53.0 370.0 63.0 372.0 77.0ZM479.0 -280.0H47.0V-308.0H479.0Z"/></g>
<g fill="black" opacity=".8" transform="translate(1400 700) scale(0.1 -0.1)"><path d="M0.0 0.0H-110.0V-164.0L-87.0 -127.0C-106.0 -134.0 -131.0 -157.0 -145.0 -175.0L0.0 -248.0L42.0 -184.0H37.0V-22.0ZM76.0 31.0 -110.0 49.0V-25.0H37.0V0.0C66.0 4.0 75.0 15.0 76.0 31.0ZM683.0 29.0 496.0 45.0V-234.0H521.0C580.0 -234.0 645.0 -215.0 645.0 -207.0V1.0C674.0 5.0 680.0 15.0 683.0 29.0ZM375.0 81.0 192.0 95.0V-171.0H339.0V53.0C367.0 57.0 374.0 67.0 375.0 81.0ZM473.0 -279.0H71.0L67.0 -306.0H473.0Z"/></g>
<g fill="red" transform="translate(1500 700) scale(0.1 -0.1)"><path d="M0.0 0.0H-33.0V-112.0L-20.0 -78.0C-36.0 -82.0 -59.0 -93.0 -69.0 -100.0L-5.0 -145.0L19.0 -115.0H9.0V-6.0ZM47.0 32.0 -33.0 42.0V-34.0H9.0V5.0C34.0 8.0 45.0 18.0 47.0 32.0ZM690.0 33.0 609.0 42.0V-150.0H618.0C634.0 -150.0 651.0 -139.0 651.0 -132.0V6.0C677.0 9.0 687.0 18.0 690.0 33.0ZM371.0 67.0 291.0 77.0V-102.0H333.0V41.0C358.0 44.0 369.0 53.0 371.0 67.0ZM633.0 -85.0H-18.0V-115.0H633.0Z"/></g>
<g fill="black" opacity=".8" transform="translate(1500 700) scale(0.1 -0.1)"><path d="M0.0 0.0H-34.0V-113.0L-20.0 -79.0C-36.0 -83.0 -58.0 -94.0 -68.0 -102.0L-5.0 -146.0L18.0 -117.0H11.0V-7.0ZM48.0 30.0 -34.0 40.0V-36.0H10.0V3.0C34.0 6.0 45.0 16.0 48.0 30.0ZM690.0 32.0 608.0 41.0V-150.0H617.0C635.0 -150.0 652.0 -140.0 652.0 -135.0V5.0C677.0 8.0 686.0 16.0 690.0 32.0ZM365.0 70.0 285.0 81.0V-103.0H328.0V44.0C352.0 47.0 364.0 55.0 365.0 70.0ZM638.0 -85.0H-16.0L-17.0 -116.0H638.0Z"/></g>
<g fill="red" transform="translate(1600 700) scale(0.1 -0.1)"><path d="M0.0 0.0H-107.0V-104.0L-85.0 -67.0C-104.0 -74.0 -130.0 -97.0 -145.0 -115.0L-2.0 -185.0L40.0 -124.0H35.0V-21.0ZM72.0 34.0 -107.0 51.0V-26.0H35.0V5.0C62.0 9.0 70.0 19.0 72.0 34.0ZM664.0 34.0 482.0 49.0V-164.0H506.0C564.0 -164.0 627.0 -147.0 627.0 -140.0V6.0C655.0 11.0 662.0 21.0 664.0 34.0ZM364.0 78.0 184.0 91.0V-110.0H328.0V49.0C355.0 54.0 362.0 64.0 364.0 78.0ZM534.0 -96.0H-22.0V-124.0H534.0Z"/></g>
<g fill="black" opacity=".8" transform="translate(1600 700) scale(0.1 -0.1)"><path d="M0.0 0.0H-109.0V-105.0L-86.0 -67.0C-106.0 -74.0 -131.0 -97.0 -146.0 -115.0L-1.0 -184.0L40.0 -125.0H36.0V-21.0ZM73.0 33.0 -109.0 51.0V-26.0H36.0V3.0C63.0 7.0 72.0 17.0 73.0 33.0ZM666.0 36.0 480.0 50.0V-161.0H505.0C563.0 -161.0 629.0 -143.0 629.0 -135.0V7.0C657.0 11.0 662.0 21.0 666.0 36.0ZM364.0 74.0 182.0 88.0V-110.0H329.0V47.0C355.0 51.0 363.0 61.0 364.0 74.0ZM535.0 -96.0H-17.0L-18.0 -124.0H535.0Z"/></g>
<g fill="red" transform="translate(100 800) scale(0.1 -0.1)"><path d="M0.0 0.0H-34.0V-579.0L-18.0 -550.0C-32.0 -555.0 -52.0 -567.0 -61.0 -574.0L-4.0 -617.0L17.0 -587.0H10.0V-6.0ZM47.0 22.0 -34.0 32.0V-44.0H10.0V-5.0C34.0 -1.0 45.0 8.0 47.0 22.0ZM452.0 19.0 371.0 29.0V-653.0H380.0C397.0 -653.0 415.0 -641.0 415.0 -633.0V-7.0C440.0 -4.0 449.0 5.0 452.0 19.0ZM247.0 220.0 167.0 230.0V-584.0H211.0V193.0C235.0 197.0 244.0 206.0 247.0 220.0ZM392.0 -561.0H-15.0V-591.0H392.0Z"/></g>
<g fill="black" opacity=".8" transform="translate(100 800) scale(0.1 -0.1)"><path d="M0.0 0.0H-35.0V-583.0L-18.0 -553.0C-33.0 -557.0 -53.0 -569.0 -63.0 -578.0L-4.0 -620.0L17.0 -591.0H11.0V-6.0ZM49.0 25.0 -35.0 35.0V-43.0H10.0V-3.0C35.0 0.0 46.0 10.0 49.0 25.0ZM454.0 23.0 371.0 33.0V-658.0H380.0C398.0 -658.0 417.0 -646.0 417.0 -639.0V-4.0C442.0 -1.0 450.0 8.0 454.0 23.0ZM247.0 226.0 167.0 236.0V-577.0H211.0V199.0C236.0 202.0 246.0 211.0 247.0 226.0ZM393.0 -563.0H-16.0V-594.0H393.0Z"/></g>
<g fill="red" transform="translate(200 800) scale(0.1 -0.1)"><path d="M0.0 0.0H-98.0V-620.0L-76.0 -583.0C-93.0 -590.0 -117.0 -611.0 -130.0 -627.0L1.0 -702.0L39.0 -637.0H32.0V-19.0ZM68.0 26.0 -98.0 42.0V-35.0H32.0V-2.0C57.0 2.0 65.0 11.0 68.0 26.0ZM434.0 30.0 272.0 45.0V-720.0H296.0C344.0 -720.0 400.0 -692.0 400.0 -679.0V3.0C425.0 7.0 432.0 17.0 434.0 30.0ZM255.0 204.0 89.0 220.0V-625.0H218.0V175.0C245.0 179.0 252.0 189.0 255.0 204.0ZM326.0 -609.0H-6.0V-637.0H326.0Z"/></g>
<g fill="black" opacity=".8" transform="translate(200 800) scale(0.1 -0.1)"><path d="M0.0 0.0H-95.0V-618.0L-73.0 -580.0C-91.0 -587.0 -116.0 -607.0 -128.0 -624.0L0.0 -697.0L38.0 -635.0H31.0V-18.0ZM65.0 24.0 -95.0 40.0V-39.0H31.0V-5.0C55.0 0.0 64.0 10.0 65.0 24.0ZM434.0 26.0 271.0 41.0V-719.0H296.0C343.0 -719.0 401.0 -690.0 401.0 -677.0V-1.0C425.0 3.0 431.0 12.0 434.0 26.0ZM253.0 198.0 87.0 214.0V-621.0H216.0V169.0C243.0 173.0 252.0 184.0 253.0 198.0ZM321.0 -608.0H-10.0V-636.0H321.0Z"/></g>
<g fill="red" transform="translate(300 800) scale(0.1 -0.1)"><path d="M0.0 0.0H-34.0V-200.0L-18.0 -170.0C-32.0 -175.0 -52.0 -187.0 -61.0 -195.0L-4.0 -232.0L17.0 -208.0H10.0V-6.0ZM47.0 18.0 -34.0 28.0V-48.0H10.0V-9.0C34.0 -5.0 45.0 4.0 47.0 18.0ZM464.0 27.0 382.0 36.0V-264.0H391.0C408.0 -264.0 426.0 -254.0 426.0 -247.0V0.0C451.0 3.0 461.0 12.0 464.0 27.0ZM264.0 92.0 183.0 102.0V-194.0H227.0V66.0C251.0 69.0 262.0 78.0 264.0 92.0ZM411.0 -350.0H66.0L37.0 -380.0H411.0Z"/></g>
<g fill="black" opacity=".8" transform="translate(300 800) scale(0.1 -0.1)"><path d="M0.0 0.0H-35.0V-198.0L-18.0 -167.0C-34.0 -171.0 -53.0 -184.0 -63.0 -192.0L-4.0 -231.0L17.0 -206.0H12.0V-6.0ZM48.0 20.0 -35.0 31.0V-47.0H11.0V-7.0C35.0 -4.0 45.0 5.0 48.0 20.0ZM473.0 27.0 390.0 37.0V-267.0H398.0C416.0 -267.0 434.0 -258.0 434.0 -251.0V1.0C459.0 4.0 468.0 12.0 473.0 27.0ZM262.0 93.0 181.0 103.0V-192.0H225.0V66.0C250.0 69.0 261.0 78.0 262.0 93.0ZM381.0 -349.0H51.0L39.0 -381.0H381.0Z"/></g>
<g fill="red" transform="translate(400 800) scale(0.1 -0.1)"><path d="M0.0 0.0H-99.0V-203.0L-77.0 -165.0C-94.0 -172.0 -118.0 -193.0 -131.0 -210.0L1.0 -265.0L37.0 -220.0H32.0V-20.0ZM69.0 29.0 -99.0 45.0V-32.0H32.0V1.0C58.0 4.0 66.0 14.0 69.0 29.0ZM463.0 25.0 290.0 40.0V-288.0H313.0C367.0 -288.0 426.0 -269.0 426.0 -261.0V-3.0C454.0 2.0 461.0 12.0 463.0 25.0ZM266.0 106.0 96.0 120.0V-208.0H236.0V82.0C259.0 85.0 265.0 94.0 266.0 106.0ZM305.0 -358.0H68.0L41.0 -386.0H305.0Z"/></g>
<g fill="black" opacity=".8" transform="translate(400 800) scale(0.1 -0.1)"><path d="M0.0 0.0H-99.0V-204.0L-77.0 -166.0C-95.0 -172.0 -120.0 -194.0 -132.0 -210.0L1.0 -270.0L37.0 -222.0H33.0V-20.0ZM69.0 26.0 -99.0 43.0V-36.0H33.0V-4.0C58.0 1.0 67.0 11.0 69.0 26.0ZM459.0 23.0 288.0 38.0V-286.0H311.0C363.0 -286.0 423.0 -266.0 423.0 -258.0V-4.0C451.0 -0.0 456.0 10.0 459.0 23.0ZM263.0 106.0 95.0 120.0V-210.0H232.0V81.0C256.0 84.0 264.0 94.0 263.0 106.0ZM312.0 -359.0H42.0L32.0 -388.0H312.0Z"/></g>
<g fill="red" transform="translate(500 800) scale(0.1 -0.1)"><path d="M0.0 0.0H-34.0V-233.0L-18.0 -203.0C-32.0 -208.0 -52.0 -219.0 -61.0 -228.0L-4.0 -270.0L17.0 -240.0H10.0V-6.0ZM47.0 18.0 -34.0 28.0V-48.0H10.0V-9.0C34.0 -5.0 45.0 4.0 47.0 18.0ZM534.0 12.0 453.0 21.0V-293.0H462.0C479.0 -293.0 497.0 -282.0 497.0 -276.0V-15.0C522.0 -12.0 532.0 -3.0 534.0 12.0ZM293.0 52.0 212.0 62.0V-234.0H256.0V26.0C280.0 29.0 291.0 38.0 293.0 52.0ZM476.0 -211.0H-2.0V-241.0H476.0Z"/></g>
<g fill="black" opacity=".8" transform="translate(500 800) scale(0.1 -0.1)"><path d="M0.0 0.0H-33.0V-236.0L-18.0 -205.0C-34.0 -209.0 -54.0 -220.0 -63.0 -228.0L-4.0 -270.0L17.0 -241.0H11.0V-6.0ZM47.0 17.0 -33.0 27.0V-47.0H10.0V-9.0C34.0 -6.0 44.0 3.0 47.0 17.0ZM534.0 16.0 455.0 26.0V-297.0H463.0C480.0 -297.0 498.0 -287.0 498.0 -281.0V-9.0C522.0 -6.0 530.0 2.0 534.0 16.0ZM287.0 52.0 211.0 62.0V-230.0H253.0V27.0C276.0 30.0 286.0 38.0 287.0 52.0ZM477.0 -211.0H-8.0L-10.0 -241.0H477.0Z"/></g>
<g fill="red" transform="translate(600 800) scale(0.1 -0.1)"><path d="M0.0 0.0H-96.0V-230.0L-74.0 -193.0C-91.0 -200.0 -115.0 -221.0 -128.0 -237.0L1.0 -311.0L39.0 -247.0H31.0V-19.0ZM67.0 30.0 -96.0 46.0V-31.0H31.0V2.0C56.0 6.0 65.0 15.0 67.0 30.0ZM521.0 31.0 363.0 45.0V-320.0H385.0C432.0 -320.0 487.0 -300.0 487.0 -292.0V5.0C512.0 9.0 519.0 18.0 521.0 31.0ZM295.0 56.0 133.0 69.0V-235.0H259.0V28.0C286.0 32.0 294.0 42.0 295.0 56.0ZM417.0 -219.0H-15.0V-247.0H417.0Z"/></g>
<g fill="black" opacity=".8" transform="translate(600 800) scale(0.1 -0.1)"><path d="M0.0 0.0H-96.0V-231.0L-74.0 -195.0C-92.0 -202.0 -116.0 -222.0 -129.0 -239.0L-1.0 -304.0L37.0 -248.0H32.0V-19.0ZM67.0 22.0 -96.0 39.0V-36.0H32.0V-6.0C56.0 -2.0 65.0 8.0 67.0 22.0ZM522.0 24.0 359.0 37.0V-314.0H382.0C431.0 -314.0 490.0 -294.0 490.0 -285.0V-2.0C514.0 2.0 519.0 11.0 522.0 24.0ZM296.0 56.0 131.0 69.0V-236.0H263.0V29.0C287.0 32.0 295.0 43.0 296.0 56.0ZM416.0 -220.0H-12.0L-13.0 -247.0H416.0Z"/></g>
<g fill="red" transform="translate(700 800) scale(0.1 -0.1)"><path d="M0.0 0.0H-34.0V-557.0L-18.0 -527.0C-32.0 -531.0 -52.0 -543.0 -61.0 -552.0L-4.0 -594.0L17.0 -565.0H10.0V-6.0ZM47.0 14.0 -34.0 24.0V-52.0H10.0V-13.0C34.0 -9.0 45.0 0.0 47.0 14.0ZM463.0 12.0 382.0 22.0V-655.0H391.0C408.0 -655.0 426.0 -644.0 426.0 -636.0V-14.0C451.0 -11.0 460.0 -2.0 463.0 12.0ZM257.0 223.0 177.0 233.0V-548.0H221.0V196.0C245.0 200.0 254.0 209.0 257.0 223.0ZM392.0 -535.0H-15.0V-565.0H392.0Z"/></g>
<g fill="black" opacity=".8" transform="translate(700 800) scale(0.1 -0.1)"><path d="M0.0 0.0H-34.0V-561.0L-17.0 -531.0C-32.0 -535.0 -52.0 -547.0 -61.0 -556.0L-3.0 -598.0L16.0 -569.0H11.0V-6.0ZM48.0 10.0 -34.0 20.0V-56.0H10.0V-17.0C34.0 -14.0 45.0 -5.0 48.0 10.0ZM462.0 7.0 381.0 18.0V-647.0H390.0C407.0 -647.0 426.0 -636.0 426.0 -629.0V-19.0C450.0 -15.0 458.0 -7.0 462.0 7.0ZM254.0 230.0 175.0 240.0V-554.0H219.0V204.0C243.0 207.0 252.0 216.0 254.0 230.0ZM392.0 -538.0H-4.0L-7.0 -568.0H392.0Z"/></g>
<g fill="red" transform="translate(800 800) scale(0.1 -0.1)"><path d="M0.0 0.0H-92.0V-588.0L-71.0 -551.0C-88.0 -558.0 -111.0 -578.0 -124.0 -594.0L0.0 -666.0L37.0 -604.0H30.0V-18.0ZM66.0 13.0 -92.0 29.0V-48.0H30.0V-15.0C55.0 -11.0 63.0 -1.0 66.0 13.0ZM435.0 7.0 275.0 22.0V-697.0H298.0C346.0 -697.0 401.0 -670.0 401.0 -658.0V-20.0C426.0 -16.0 433.0 -6.0 435.0 7.0ZM256.0 217.0 90.0 232.0V-589.0H219.0V188.0C246.0 192.0 253.0 202.0 256.0 217.0ZM316.0 -576.0H-2.0V-604.0H316.0Z"/></g>
<g fill="black" opacity=".8" transform="translate(800 800) scale(0.1 -0.1)"><path d="M0.0 0.0H-96.0V-585.0L-74.0 -548.0C-92.0 -555.0 -116.0 -575.0 -128.0 -592.0L1.0 -666.0L39.0 -602.0H32.0V-18.0ZM68.0 19.0 -96.0 35.0V-42.0H32.0V-11.0C57.0 -7.0 66.0 3.0 68.0 19.0ZM435.0 18.0 272.0 33.0V-700.0H296.0C344.0 -700.0 401.0 -671.0 401.0 -658.0V-8.0C426.0 -5.0 432.0 5.0 435.0 18.0ZM257.0 209.0 89.0 225.0V-590.0H221.0V181.0C247.0 184.0 256.0 195.0 257.0 209.0ZM324.0 -573.0H4.0L2.0 -601.0H324.0Z"/></g>
<g fill="red" transform="translate(900 800) scale(0.1 -0.1)"><path d="M0.0 0.0H-34.0V-459.0L-18.0 -430.0C-32.0 -434.0 -52.0 -445.0 -61.0 -454.0L-4.0 -491.0L17.0 -467.0H10.0V-6.0ZM48.0 43.0 -34.0 53.0V-23.0H10.0V15.0C35.0 19.0 46.0 28.0 48.0 43.0ZM319.0 46.0 238.0 56.0V-544.0H247.0C264.0 -544.0 282.0 -533.0 282.0 -525.0V20.0C307.0 23.0 316.0 32.0 319.0 46.0ZM180.0 209.0 104.0 218.0V-452.0H148.0V184.0C170.0 186.0 178.0 195.0 180.0 209.0ZM259.0 -438.0H-16.0V-468.0H259.0Z"/></g>
<g fill="black" opacity=".8" transform="translate(900 800) scale(0.1 -0.1)"><path d="M0.0 0.0H-35.0V-463.0L-17.0 -433.0C-32.0 -437.0 -52.0 -449.0 -61.0 -459.0L-3.0 -496.0L16.0 -471.0H12.0V-6.0ZM50.0 39.0 -35.0 49.0V-29.0H11.0V11.0C36.0 14.0 46.0 23.0 50.0 39.0ZM318.0 42.0 234.0 53.0V-537.0H243.0C261.0 -537.0 280.0 -527.0 280.0 -520.0V15.0C305.0 19.0 313.0 27.0 318.0 42.0ZM178.0 213.0 101.0 222.0V-459.0H145.0V187.0C168.0 189.0 177.0 198.0 178.0 213.0ZM256.0 -437.0H-11.0L-12.0 -469.0H256.0Z"/></g>
<g fill="red" transform="translate(1000 800) scale(0.1 -0.1)"><path d="M0.0 0.0H-75.0V-478.0L-56.0 -443.0C-72.0 -449.0 -95.0 -467.0 -106.0 -480.0L-1.0 -528.0L29.0 -492.0H23.0V-14.0ZM47.0 32.0 -75.0 44.0V-33.0H23.0V12.0C39.0 15.0 45.0 22.0 47.0 32.0ZM330.0 34.0 203.0 46.0V-581.0H223.0C259.0 -581.0 303.0 -560.0 303.0 -550.0V12.0C323.0 15.0 329.0 23.0 330.0 34.0ZM200.0 210.0 61.0 223.0V-476.0H168.0V184.0C191.0 188.0 198.0 197.0 200.0 210.0ZM227.0 -464.0H-29.0V-492.0H227.0Z"/></g>
<g fill="black" opacity=".8" transform="translate(1000 800) scale(0.1 -0.1)"><path d="M0.0 0.0H-80.0V-482.0L-59.0 -445.0C-76.0 -452.0 -100.0 -470.0 -112.0 -485.0L-0.0 -537.0L32.0 -497.0H26.0V-15.0ZM51.0 31.0 -80.0 45.0V-34.0H26.0V9.0C43.0 12.0 51.0 20.0 51.0 31.0ZM335.0 33.0 195.0 46.0V-570.0H217.0C256.0 -570.0 306.0 -547.0 306.0 -537.0V10.0C327.0 13.0 331.0 21.0 335.0 33.0ZM201.0 207.0 58.0 221.0V-482.0H168.0V181.0C191.0 184.0 200.0 194.0 201.0 207.0ZM246.0 -464.0H-16.0L-17.0 -492.0H246.0Z"/></g>
<g fill="red" transform="translate(1100 800) scale(0.1 -0.1)"><path d="M0.0 0.0H-34.0V-547.0L-18.0 -517.0C-32.0 -522.0 -52.0 -534.0 -61.0 -542.0L-4.0 -584.0L17.0 -555.0H10.0V-6.0ZM47.0 21.0 -34.0 31.0V-45.0H10.0V-6.0C34.0 -2.0 45.0 7.0 47.0 21.0ZM400.0 18.0 319.0 28.0V-635.0H328.0C345.0 -635.0 363.0 -624.0 363.0 -616.0V-8.0C388.0 -5.0 397.0 4.0 400.0 18.0ZM221.0 211.0 141.0 221.0V-538.0H185.0V184.0C209.0 188.0 219.0 197.0 221.0 211.0ZM334.0 -525.0H-26.0V-555.0H334.0Z"/></g>
<g fill="black" opacity=".8" transform="translate(1100 800) scale(0.1 -0.1)"><path d="M0.0 0.0H-34.0V-550.0L-17.0 -521.0C-32.0 -525.0 -51.0 -536.0 -60.0 -545.0L-3.0 -585.0L16.0 -558.0H11.0V-6.0ZM48.0 19.0 -34.0 30.0V-46.0H10.0V-8.0C34.0 -4.0 44.0 5.0 48.0 19.0ZM399.0 17.0 319.0 28.0V-632.0H328.0C345.0 -632.0 363.0 -621.0 363.0 -615.0V-8.0C387.0 -5.0 395.0 3.0 399.0 17.0ZM220.0 219.0 143.0 229.0V-545.0H187.0V194.0C210.0 197.0 218.0 205.0 220.0 219.0ZM335.0 -528.0H-10.0L-11.0 -558.0H335.0Z"/></g>
<g fill="red" transform="translate(1200 800) scale(0.1 -0.1)"><path d="M0.0 0.0H-83.0V-575.0L-63.0 -539.0C-79.0 -546.0 -102.0 -565.0 -114.0 -579.0L-1.0 -648.0L34.0 -590.0H26.0V-16.0ZM63.0 17.0 -83.0 32.0V-45.0H26.0V-11.0C51.0 -7.0 60.0 3.0 63.0 17.0ZM396.0 19.0 245.0 33.0V-677.0H267.0C311.0 -677.0 362.0 -652.0 362.0 -640.0V-8.0C387.0 -4.0 394.0 5.0 396.0 19.0ZM229.0 212.0 75.0 227.0V-576.0H192.0V184.0C219.0 188.0 227.0 198.0 229.0 212.0ZM293.0 -562.0H-6.0V-590.0H293.0Z"/></g>
<g fill="black" opacity=".8" transform="translate(1200 800) scale(0.1 -0.1)"><path d="M0.0 0.0H-87.0V-572.0L-66.0 -535.0C-83.0 -543.0 -107.0 -561.0 -119.0 -577.0L1.0 -643.0L36.0 -587.0H29.0V-17.0ZM60.0 22.0 -87.0 37.0V-39.0H29.0V-5.0C50.0 -0.0 59.0 9.0 60.0 22.0ZM391.0 23.0 242.0 36.0V-680.0H266.0C308.0 -680.0 361.0 -652.0 361.0 -640.0V-2.0C383.0 1.0 388.0 10.0 391.0 23.0ZM233.0 203.0 78.0 218.0V-574.0H198.0V175.0C223.0 178.0 232.0 189.0 233.0 203.0ZM297.0 -559.0H-9.0L-10.0 -586.0H297.0Z"/></g>
</svg>
