<?xml version="1.0" encoding="UTF-8"?>
<svg width="1700" height="300" xmlns="http://www.w3.org/2000/svg">
<rect width="100%" height="100%" fill="white"/>
<g fill="green" transform="translate(100 100) scale(0.1 -0.1)"><path d="M0.0 0.0V-490.0C0.0 -532.0 16.0 -547.0 84.0 -547.0H187.0C335.0 -547.0 364.0 -540.0 364.0 -517.0C364.0 -507.0 359.0 -502.0 339.0 -496.0L336.0 -357.0H323.0C314.0 -415.0 303.0 -477.0 298.0 -492.0C295.0 -500.0 291.0 -503.0 281.0 -504.0C267.0 -506.0 233.0 -506.0 185.0 -506.0H89.0C49.0 -506.0 44.0 -500.0 44.0 -481.0V-36.0C65.0 -32.0 74.0 -22.0 76.0 -10.0ZM-255.0 -6.0C-258.0 -200.0 -263.0 -402.0 -532.0 -548.0L-518.0 -566.0C-223.0 -424.0 -218.0 -219.0 -209.0 -40.0C-188.0 -37.0 -179.0 -27.0 -177.0 -15.0ZM-229.0 314.0C-283.0 191.0 -398.0 44.0 -534.0 -43.0L-523.0 -58.0C-372.0 22.0 -250.0 157.0 -190.0 269.0C-165.0 266.0 -157.0 269.0 -152.0 280.0ZM-3.0 308.0 -12.0 295.0C110.0 223.0 221.0 101.0 265.0 19.0C309.0 -32.0 340.0 16.0 279.0 95.0C228.0 160.0 130.0 240.0 -3.0 308.0Z"/></g>
<g fill="green" transform="translate(200 100) scale(0.1 -0.1)"><path d="M0.0 0.0V-467.0C0.0 -562.0 26.0 -588.0 136.0 -588.0H220.0C374.0 -588.0 426.0 -559.0 426.0 -500.0C426.0 -474.0 418.0 -458.0 382.0 -441.0L378.0 -295.0H369.0C347.0 -359.0 327.0 -414.0 315.0 -434.0C307.0 -445.0 300.0 -448.0 288.0 -449.0C276.0 -449.0 258.0 -449.0 238.0 -449.0H174.0C151.0 -449.0 145.0 -444.0 145.0 -428.0V-42.0C168.0 -39.0 177.0 -29.0 178.0 -15.0ZM-240.0 -4.0C-242.0 -238.0 -233.0 -434.0 -500.0 -596.0L-491.0 -608.0C-114.0 -481.0 -106.0 -278.0 -94.0 -46.0C-71.0 -42.0 -62.0 -33.0 -60.0 -19.0ZM-223.0 320.0C-266.0 200.0 -366.0 41.0 -495.0 -58.0L-488.0 -67.0C-309.0 -8.0 -172.0 108.0 -90.0 218.0C-66.0 216.0 -57.0 223.0 -52.0 233.0ZM9.0 307.0 3.0 299.0C107.0 227.0 184.0 102.0 215.0 25.0C291.0 -96.0 415.0 14.0 342.0 121.0C279.0 211.0 162.0 269.0 9.0 307.0Z"/></g>
<g fill="green" transform="translate(300 100) scale(0.1 -0.1)"><path d="M0.0 0.0V-490.0C0.0 -532.0 16.0 -547.0 84.0 -547.0H187.0C335.0 -547.0 364.0 -540.0 364.0 -517.0C364.0 -507.0 359.0 -502.0 339.0 -496.0L336.0 -357.0H323.0C314.0 -415.0 303.0 -477.0 298.0 -492.0C295.0 -500.0 291.0 -503.0 281.0 -504.0C267.0 -506.0 233.0 -506.0 185.0 -506.0H89.0C49.0 -506.0 44.0 -500.0 44.0 -481.0V-36.0C65.0 -32.0 74.0 -22.0 76.0 -10.0ZM-255.0 -6.0C-258.0 -200.0 -263.0 -402.0 -532.0 -548.0L-518.0 -566.0C-223.0 -424.0 -218.0 -219.0 -209.0 -40.0C-188.0 -37.0 -179.0 -27.0 -177.0 -15.0ZM-229.0 314.0C-283.0 191.0 -398.0 44.0 -534.0 -43.0L-523.0 -58.0C-372.0 22.0 -250.0 157.0 -190.0 269.0C-165.0 266.0 -157.0 269.0 -152.0 280.0ZM-3.0 308.0 -12.0 295.0C110.0 223.0 221.0 101.0 265.0 19.0C309.0 -32.0 340.0 16.0 279.0 95.0C228.0 160.0 130.0 240.0 -3.0 308.0Z"/></g>
<g fill="green" transform="translate(400 100) scale(0.1 -0.1)"><path d="M0.0 0.0V-467.0C0.0 -562.0 26.0 -588.0 136.0 -588.0H220.0C374.0 -588.0 426.0 -559.0 426.0 -500.0C426.0 -474.0 418.0 -458.0 382.0 -441.0L378.0 -295.0H369.0C347.0 -359.0 327.0 -414.0 315.0 -434.0C307.0 -445.0 300.0 -448.0 288.0 -449.0C276.0 -449.0 258.0 -449.0 238.0 -449.0H174.0C151.0 -449.0 145.0 -444.0 145.0 -428.0V-42.0C168.0 -39.0 177.0 -29.0 178.0 -15.0ZM-240.0 -4.0C-242.0 -238.0 -233.0 -434.0 -500.0 -596.0L-491.0 -608.0C-114.0 -481.0 -106.0 -278.0 -94.0 -46.0C-71.0 -42.0 -62.0 -33.0 -60.0 -19.0ZM-223.0 320.0C-266.0 200.0 -366.0 41.0 -495.0 -58.0L-488.0 -67.0C-309.0 -8.0 -172.0 108.0 -90.0 218.0C-66.0 216.0 -57.0 223.0 -52.0 233.0ZM9.0 307.0 3.0 299.0C107.0 227.0 184.0 102.0 215.0 25.0C291.0 -96.0 415.0 14.0 342.0 121.0C279.0 211.0 162.0 269.0 9.0 307.0Z"/></g>
<g fill="red" transform="translate(100 200) scale(0.1 -0.1)"><path d="M0.0 0.0V-490.0C0.0 -532.0 16.0 -547.0 84.0 -547.0H187.0C335.0 -547.0 364.0 -540.0 364.0 -517.0C364.0 -507.0 359.0 -502.0 339.0 -496.0L336.0 -357.0H323.0C314.0 -415.0 303.0 -477.0 298.0 -492.0C295.0 -500.0 291.0 -503.0 281.0 -504.0C267.0 -506.0 233.0 -506.0 185.0 -506.0H89.0C49.0 -506.0 44.0 -500.0 44.0 -481.0V-36.0C65.0 -32.0 74.0 -22.0 76.0 -10.0ZM-255.0 -6.0C-258.0 -200.0 -263.0 -402.0 -532.0 -548.0L-518.0 -566.0C-223.0 -424.0 -218.0 -219.0 -209.0 -40.0C-188.0 -37.0 -179.0 -27.0 -177.0 -15.0ZM-229.0 314.0C-283.0 191.0 -398.0 44.0 -534.0 -43.0L-523.0 -58.0C-372.0 22.0 -250.0 157.0 -190.0 269.0C-165.0 266.0 -157.0 269.0 -152.0 280.0ZM-3.0 308.0 -12.0 295.0C110.0 223.0 221.0 101.0 265.0 19.0C309.0 -32.0 340.0 16.0 279.0 95.0C228.0 160.0 130.0 240.0 -3.0 308.0Z"/></g>
<g fill="black" opacity=".8" transform="translate(100 200) scale(0.1 -0.1)"><path d="M0.0 0.0V-490.0C0.0 -532.0 16.0 -547.0 84.0 -547.0H187.0C335.0 -547.0 364.0 -540.0 364.0 -517.0C364.0 -507.0 359.0 -502.0 339.0 -496.0L336.0 -357.0H323.0C314.0 -415.0 303.0 -477.0 298.0 -492.0C295.0 -500.0 291.0 -503.0 281.0 -504.0C267.0 -506.0 233.0 -506.0 185.0 -506.0H89.0C49.0 -506.0 44.0 -500.0 44.0 -481.0V-36.0C65.0 -32.0 74.0 -22.0 76.0 -10.0ZM-255.0 -6.0C-258.0 -200.0 -263.0 -402.0 -532.0 -548.0L-518.0 -566.0C-223.0 -424.0 -218.0 -219.0 -209.0 -40.0C-188.0 -37.0 -179.0 -27.0 -177.0 -15.0ZM-229.0 314.0C-283.0 191.0 -398.0 44.0 -534.0 -43.0L-523.0 -58.0C-372.0 22.0 -250.0 157.0 -190.0 269.0C-165.0 266.0 -157.0 269.0 -152.0 280.0ZM-3.0 308.0 -12.0 295.0C110.0 223.0 221.0 101.0 265.0 19.0C309.0 -32.0 340.0 16.0 279.0 95.0C228.0 160.0 130.0 240.0 -3.0 308.0Z"/></g>
<g fill="red" transform="translate(200 200) scale(0.1 -0.1)"><path d="M0.0 0.0V-467.0C0.0 -562.0 26.0 -588.0 136.0 -588.0H220.0C374.0 -588.0 426.0 -559.0 426.0 -500.0C426.0 -474.0 418.0 -458.0 382.0 -441.0L378.0 -295.0H369.0C347.0 -359.0 327.0 -414.0 315.0 -434.0C307.0 -445.0 300.0 -448.0 288.0 -449.0C276.0 -449.0 258.0 -449.0 238.0 -449.0H174.0C151.0 -449.0 145.0 -444.0 145.0 -428.0V-42.0C168.0 -39.0 177.0 -29.0 178.0 -15.0ZM-240.0 -4.0C-242.0 -238.0 -233.0 -434.0 -500.0 -596.0L-491.0 -608.0C-114.0 -481.0 -106.0 -278.0 -94.0 -46.0C-71.0 -42.0 -62.0 -33.0 -60.0 -19.0ZM-223.0 320.0C-266.0 200.0 -366.0 41.0 -495.0 -58.0L-488.0 -67.0C-309.0 -8.0 -172.0 108.0 -90.0 218.0C-66.0 216.0 -57.0 223.0 -52.0 233.0ZM9.0 307.0 3.0 299.0C107.0 227.0 184.0 102.0 215.0 25.0C291.0 -96.0 415.0 14.0 342.0 121.0C279.0 211.0 162.0 269.0 9.0 307.0Z"/></g>
<g fill="black" opacity=".8" transform="translate(200 200) scale(0.1 -0.1)"><path d="M0.0 0.0V-467.0C0.0 -562.0 26.0 -588.0 136.0 -588.0H220.0C374.0 -588.0 426.0 -559.0 426.0 -500.0C426.0 -474.0 418.0 -458.0 382.0 -441.0L378.0 -295.0H369.0C347.0 -359.0 327.0 -414.0 315.0 -434.0C307.0 -445.0 300.0 -448.0 288.0 -449.0C276.0 -449.0 258.0 -449.0 238.0 -449.0H174.0C151.0 -449.0 145.0 -444.0 145.0 -428.0V-42.0C168.0 -39.0 177.0 -29.0 178.0 -15.0ZM-240.0 -4.0C-242.0 -238.0 -233.0 -434.0 -500.0 -596.0L-491.0 -608.0C-114.0 -481.0 -106.0 -278.0 -94.0 -46.0C-71.0 -42.0 -62.0 -33.0 -60.0 -19.0ZM-223.0 320.0C-266.0 200.0 -366.0 41.0 -495.0 -58.0L-488.0 -67.0C-309.0 -8.0 -172.0 108.0 -90.0 218.0C-66.0 216.0 -57.0 223.0 -52.0 233.0ZM9.0 307.0 3.0 299.0C107.0 227.0 184.0 102.0 215.0 25.0C291.0 -96.0 415.0 14.0 342.0 121.0C279.0 211.0 162.0 269.0 9.0 307.0Z"/></g>
</svg>
