<?xml version="1.0" encoding="UTF-8"?>
<svg width="1700" height="900" xmlns="http://www.w3.org/2000/svg">
<rect width="100%" height="100%" fill="white"/>
<g fill="green" transform="translate(100 100) scale(0.1 -0.1)"><path d="M-0.0 -0.0H-52.0V-264.0L-31.0 -214.0C-55.0 -221.0 -88.0 -237.0 -103.0 -251.0L-7.0 -314.0L28.0 -271.0H16.0V-9.0ZM74.0 60.0 -52.0 75.0V-41.0H16.0V17.0C53.0 23.0 71.0 36.0 74.0 60.0ZM945.0 273.0 819.0 286.0V-95.0H832.0C858.0 -95.0 885.0 -78.0 885.0 -68.0V231.0C925.0 235.0 940.0 249.0 945.0 273.0ZM441.0 92.0 321.0 106.0V-256.0H388.0V54.0C423.0 57.0 438.0 71.0 441.0 92.0ZM372.0 -467.0H-370.0L-357.0 -512.0H372.0Z"/></g>
<g fill="green" transform="translate(200 100) scale(0.1 -0.1)"><path d="M0.0 0.0H-143.0V-269.0L-111.0 -213.0C-138.0 -223.0 -177.0 -256.0 -197.0 -280.0L-2.0 -369.0L55.0 -295.0H47.0V-29.0ZM95.0 48.0 -143.0 70.0V-47.0H47.0V9.0C81.0 14.0 92.0 27.0 95.0 48.0ZM986.0 250.0 738.0 271.0V-124.0H771.0C849.0 -124.0 935.0 -99.0 935.0 -88.0V211.0C973.0 218.0 983.0 232.0 986.0 250.0ZM485.0 82.0 237.0 101.0V-277.0H434.0V41.0C472.0 47.0 483.0 62.0 485.0 82.0ZM317.0 -489.0H-412.0L-401.0 -532.0H317.0Z"/></g>
<g fill="green" transform="translate(300 100) scale(0.1 -0.1)"><path d="M0.0 0.0H-33.0V-85.0L-20.0 -52.0C-36.0 -57.0 -57.0 -67.0 -67.0 -76.0L-5.0 -116.0L18.0 -89.0H11.0V-6.0ZM48.0 45.0 -33.0 54.0V-20.0H10.0V17.0C34.0 21.0 46.0 29.0 48.0 45.0ZM654.0 263.0 573.0 271.0V125.0H581.0C597.0 125.0 614.0 136.0 614.0 142.0V236.0C641.0 238.0 650.0 247.0 654.0 263.0ZM282.0 14.0 206.0 22.0V-81.0H249.0V-10.0C271.0 -9.0 281.0 0.0 282.0 14.0ZM132.0 -259.0H-364.0L-350.0 -288.0H132.0Z"/></g>
<g fill="green" transform="translate(400 100) scale(0.1 -0.1)"><path d="M0.0 0.0H-90.0V-88.0L-70.0 -52.0C-87.0 -58.0 -112.0 -79.0 -125.0 -94.0L-2.0 -147.0L34.0 -104.0H30.0V-19.0ZM59.0 32.0 -90.0 45.0V-29.0H30.0V8.0C50.0 11.0 57.0 19.0 59.0 32.0ZM699.0 239.0 542.0 252.0V109.0H562.0C613.0 109.0 667.0 122.0 667.0 128.0V214.0C691.0 219.0 697.0 228.0 699.0 239.0ZM322.0 5.0 165.0 16.0V-93.0H290.0V-21.0C314.0 -17.0 321.0 -7.0 322.0 5.0ZM108.0 -273.0H-402.0L-390.0 -300.0H108.0Z"/></g>
<g fill="green" transform="translate(500 100) scale(0.1 -0.1)"><path d="M-0.0 0.0H-48.0V-689.0L-25.0 -649.0C-45.0 -655.0 -72.0 -671.0 -84.0 -684.0L-5.0 -735.0L23.0 -700.0H15.0V-8.0ZM67.0 59.0 -48.0 73.0V-33.0H15.0V20.0C49.0 26.0 65.0 38.0 67.0 59.0ZM504.0 269.0 390.0 282.0V-548.0H402.0C426.0 -548.0 450.0 -533.0 450.0 -522.0V231.0C487.0 235.0 499.0 248.0 504.0 269.0ZM219.0 250.0 112.0 262.0V-688.0H173.0V215.0C204.0 217.0 215.0 230.0 219.0 250.0ZM-5.0 -725.0H-416.0L-400.0 -766.0H-5.0Z"/></g>
<g fill="green" transform="translate(600 100) scale(0.1 -0.1)"><path d="M0.0 0.0H-105.0V-735.0L-78.0 -685.0C-100.0 -694.0 -132.0 -719.0 -147.0 -737.0L0.0 -807.0L43.0 -753.0H33.0V-21.0ZM68.0 40.0 -105.0 56.0V-51.0H33.0V11.0C57.0 15.0 65.0 24.0 68.0 40.0ZM556.0 239.0 371.0 257.0V-612.0H398.0C452.0 -612.0 516.0 -581.0 516.0 -568.0V207.0C545.0 213.0 554.0 224.0 556.0 239.0ZM267.0 219.0 77.0 237.0V-737.0H223.0V183.0C255.0 187.0 265.0 200.0 267.0 219.0ZM-18.0 -776.0H-442.0L-427.0 -815.0H-18.0Z"/></g>
<g fill="green" transform="translate(700 100) scale(0.1 -0.1)"><path d="M0.0 -0.0H-51.0V-272.0L-32.0 -219.0C-57.0 -225.0 -92.0 -240.0 -107.0 -254.0L-8.0 -323.0L29.0 -275.0H15.0V-9.0ZM74.0 55.0 -51.0 70.0V-46.0H15.0V12.0C53.0 17.0 71.0 31.0 74.0 55.0ZM858.0 -130.0 736.0 -117.0V-558.0H749.0C775.0 -558.0 802.0 -540.0 802.0 -530.0V-170.0C839.0 -167.0 854.0 -153.0 858.0 -130.0ZM514.0 102.0 397.0 116.0V-257.0H462.0V65.0C497.0 68.0 511.0 82.0 514.0 102.0ZM1218.0 289.0H-137.0L-121.0 244.0H1218.0Z"/></g>
<g fill="green" transform="translate(800 100) scale(0.1 -0.1)"><path d="M0.0 0.0H-147.0V-252.0L-116.0 -197.0C-144.0 -207.0 -184.0 -241.0 -206.0 -266.0L-5.0 -367.0L56.0 -280.0H48.0V-29.0ZM97.0 50.0 -147.0 73.0V-44.0H48.0V10.0C83.0 16.0 94.0 29.0 97.0 50.0ZM879.0 -128.0 628.0 -107.0V-595.0H663.0C741.0 -595.0 832.0 -565.0 832.0 -553.0V-164.0C866.0 -158.0 876.0 -145.0 879.0 -128.0ZM540.0 93.0 286.0 111.0V-258.0H485.0V49.0C526.0 56.0 538.0 71.0 540.0 93.0ZM1122.0 264.0H-151.0L-137.0 222.0H1122.0Z"/></g>
<g fill="green" transform="translate(900 100) scale(0.1 -0.1)"><path d="M0.0 0.0H-59.0V-66.0L-35.0 -9.0C-62.0 -17.0 -100.0 -36.0 -117.0 -50.0L-8.0 -121.0L32.0 -74.0H18.0V-10.0ZM83.0 68.0 -59.0 85.0V-47.0H18.0V20.0C60.0 26.0 80.0 41.0 83.0 68.0ZM941.0 -66.0 800.0 -51.0V-320.0H815.0C844.0 -320.0 875.0 -301.0 875.0 -290.0V-112.0C919.0 -108.0 935.0 -92.0 941.0 -66.0ZM549.0 11.0 409.0 28.0V-58.0H484.0V-33.0C526.0 -29.0 545.0 -13.0 549.0 11.0ZM50.0 -703.0H-615.0L-601.0 -755.0H50.0Z"/></g>
<g fill="green" transform="translate(1000 100) scale(0.1 -0.1)"><path d="M0.0 0.0H-173.0V-72.0L-136.0 -8.0C-167.0 -19.0 -212.0 -58.0 -235.0 -87.0L-2.0 -187.0L65.0 -104.0H57.0V-35.0ZM116.0 55.0 -173.0 82.0V-51.0H57.0V8.0C100.0 14.0 113.0 30.0 116.0 55.0ZM992.0 -95.0 689.0 -70.0V-353.0H728.0C825.0 -353.0 932.0 -327.0 932.0 -316.0V-141.0C978.0 -132.0 989.0 -116.0 992.0 -95.0ZM587.0 17.0 291.0 38.0V-85.0H531.0V-29.0C574.0 -22.0 585.0 -5.0 587.0 17.0ZM-44.0 -716.0H-675.0L-663.0 -765.0H-44.0Z"/></g>
<g fill="green" transform="translate(1100 100) scale(0.1 -0.1)"><path d="M-0.0 0.0H-44.0V-200.0L-27.0 -156.0C-48.0 -161.0 -78.0 -175.0 -91.0 -187.0L-6.0 -243.0L25.0 -204.0H13.0V-8.0ZM63.0 68.0 -44.0 80.0V-19.0H13.0V31.0C45.0 35.0 61.0 47.0 63.0 68.0ZM877.0 226.0 769.0 237.0V-64.0H780.0C803.0 -64.0 826.0 -49.0 826.0 -40.0V191.0C860.0 194.0 873.0 206.0 877.0 226.0ZM411.0 36.0 307.0 48.0V-192.0H364.0V3.0C395.0 5.0 408.0 17.0 411.0 36.0ZM651.0 -724.0H108.0L107.0 -763.0H651.0Z"/></g>
<g fill="green" transform="translate(1200 100) scale(0.1 -0.1)"><path d="M0.0 0.0H-126.0V-221.0L-98.0 -173.0C-122.0 -181.0 -155.0 -211.0 -173.0 -231.0L-1.0 -313.0L49.0 -244.0H42.0V-25.0ZM81.0 40.0 -126.0 60.0V-40.0H42.0V7.0C71.0 12.0 80.0 23.0 81.0 40.0ZM921.0 199.0 705.0 217.0V-101.0H734.0C802.0 -101.0 877.0 -80.0 877.0 -72.0V165.0C910.0 171.0 918.0 183.0 921.0 199.0ZM455.0 16.0 241.0 32.0V-229.0H408.0V-21.0C443.0 -15.0 453.0 -2.0 455.0 16.0ZM613.0 -774.0H84.0L82.0 -810.0H613.0Z"/></g>
<g fill="green" transform="translate(1300 100) scale(0.1 -0.1)"><path d="M0.0 0.0H-54.0V-216.0L-33.0 -163.0C-58.0 -170.0 -93.0 -185.0 -109.0 -201.0L-8.0 -264.0L30.0 -223.0H17.0V-9.0ZM78.0 74.0 -54.0 89.0V-32.0H16.0V28.0C55.0 35.0 74.0 48.0 78.0 74.0ZM918.0 267.0 786.0 281.0V-95.0H800.0C827.0 -95.0 856.0 -78.0 856.0 -67.0V224.0C897.0 228.0 913.0 242.0 918.0 267.0ZM436.0 357.0 315.0 370.0V-199.0H385.0V319.0C420.0 320.0 433.0 335.0 436.0 357.0ZM361.0 -499.0H-344.0L-334.0 -547.0H361.0Z"/></g>
<g fill="green" transform="translate(1400 100) scale(0.1 -0.1)"><path d="M0.0 0.0H-140.0V-205.0L-108.0 -147.0C-136.0 -157.0 -177.0 -191.0 -197.0 -215.0L-3.0 -290.0L52.0 -231.0H47.0V-29.0ZM88.0 65.0 -140.0 86.0V-36.0H47.0V30.0C76.0 35.0 86.0 46.0 88.0 65.0ZM991.0 237.0 749.0 257.0V-99.0H782.0C858.0 -99.0 944.0 -75.0 944.0 -65.0V200.0C978.0 207.0 988.0 220.0 991.0 237.0ZM497.0 363.0 252.0 383.0V-205.0H445.0V321.0C483.0 328.0 494.0 343.0 497.0 363.0ZM382.0 -503.0H-409.0L-400.0 -547.0H382.0Z"/></g>
<g fill="green" transform="translate(1500 100) scale(0.1 -0.1)"><path d="M0.0 -0.0H-50.0V-276.0L-29.0 -229.0C-52.0 -236.0 -83.0 -252.0 -98.0 -265.0L-7.0 -326.0L27.0 -284.0H15.0V-9.0ZM71.0 46.0 -50.0 61.0V-53.0H15.0V5.0C52.0 11.0 68.0 24.0 71.0 46.0ZM986.0 256.0 863.0 268.0V-111.0H875.0C901.0 -111.0 928.0 -95.0 928.0 -85.0V214.0C967.0 218.0 982.0 232.0 986.0 256.0ZM469.0 98.0 349.0 112.0V-267.0H415.0V59.0C450.0 63.0 466.0 77.0 469.0 98.0ZM204.0 -433.0H-180.0V-477.0H204.0Z"/></g>
<g fill="green" transform="translate(1600 100) scale(0.1 -0.1)"><path d="M0.0 0.0H-149.0V-272.0L-117.0 -216.0C-144.0 -226.0 -181.0 -260.0 -202.0 -284.0L-1.0 -378.0L57.0 -299.0H49.0V-30.0ZM101.0 48.0 -149.0 71.0V-44.0H49.0V7.0C86.0 12.0 98.0 26.0 101.0 48.0ZM988.0 249.0 732.0 270.0V-132.0H765.0C847.0 -132.0 935.0 -107.0 935.0 -95.0V208.0C975.0 215.0 985.0 230.0 988.0 249.0ZM489.0 100.0 234.0 120.0V-280.0H439.0V61.0C477.0 66.0 487.0 81.0 489.0 100.0ZM165.0 -433.0H-239.0L-241.0 -475.0H165.0Z"/></g>
<g fill="green" transform="translate(100 200) scale(0.1 -0.1)"><path d="M0.0 0.0H-40.0V-257.0L-25.0 -217.0C-44.0 -222.0 -70.0 -235.0 -82.0 -246.0L-6.0 -299.0L22.0 -261.0H13.0V-7.0ZM56.0 32.0 -40.0 44.0V-46.0H13.0V0.0C40.0 5.0 54.0 14.0 56.0 32.0ZM960.0 246.0 863.0 256.0V-62.0H873.0C893.0 -62.0 913.0 -48.0 913.0 -41.0V213.0C945.0 216.0 956.0 227.0 960.0 246.0ZM442.0 116.0 346.0 128.0V-247.0H397.0V85.0C426.0 89.0 438.0 100.0 442.0 116.0ZM416.0 -465.0H-397.0L-380.0 -500.0H416.0Z"/></g>
<g fill="green" transform="translate(200 200) scale(0.1 -0.1)"><path d="M0.0 0.0H-133.0V-285.0L-106.0 -240.0C-128.0 -249.0 -159.0 -278.0 -176.0 -299.0L0.0 -390.0L51.0 -310.0H44.0V-27.0ZM92.0 29.0 -133.0 50.0V-40.0H44.0V-8.0C78.0 -3.0 89.0 9.0 92.0 29.0ZM954.0 234.0 727.0 253.0V-121.0H756.0C830.0 -121.0 908.0 -97.0 908.0 -86.0V199.0C943.0 205.0 952.0 218.0 954.0 234.0ZM460.0 73.0 235.0 90.0V-297.0H417.0V39.0C450.0 44.0 459.0 56.0 460.0 73.0ZM287.0 -509.0H-413.0L-398.0 -542.0H287.0Z"/></g>
<g fill="green" transform="translate(300 200) scale(0.1 -0.1)"><path d="M-0.0 0.0H-48.0V-302.0L-29.0 -255.0C-52.0 -262.0 -83.0 -277.0 -97.0 -289.0L-7.0 -350.0L26.0 -308.0H15.0V-8.0ZM69.0 26.0 -48.0 40.0V-68.0H15.0V-14.0C49.0 -9.0 66.0 3.0 69.0 26.0ZM957.0 249.0 840.0 260.0V-127.0H852.0C876.0 -127.0 901.0 -111.0 901.0 -102.0V209.0C938.0 213.0 952.0 226.0 957.0 249.0ZM441.0 58.0 330.0 71.0V-301.0H392.0V22.0C424.0 25.0 438.0 38.0 441.0 58.0ZM381.0 -512.0H-384.0L-372.0 -554.0H381.0Z"/></g>
<g fill="green" transform="translate(400 200) scale(0.1 -0.1)"><path d="M0.0 0.0H-136.0V-237.0L-106.0 -184.0C-131.0 -194.0 -168.0 -224.0 -186.0 -247.0L-1.0 -336.0L54.0 -261.0H46.0V-28.0ZM95.0 47.0 -136.0 69.0V-40.0H46.0V8.0C81.0 13.0 92.0 26.0 95.0 47.0ZM964.0 260.0 730.0 279.0V-79.0H760.0C834.0 -79.0 914.0 -55.0 914.0 -45.0V223.0C951.0 228.0 961.0 242.0 964.0 260.0ZM468.0 111.0 232.0 130.0V-244.0H420.0V73.0C456.0 78.0 467.0 92.0 468.0 111.0ZM340.0 -464.0H-426.0L-416.0 -504.0H340.0Z"/></g>
<g fill="green" transform="translate(500 200) scale(0.1 -0.1)"><path d="M-0.0 -0.0H-64.0V-254.0L-36.0 -195.0C-64.0 -204.0 -103.0 -225.0 -121.0 -242.0L-8.0 -313.0L33.0 -266.0H19.0V-11.0ZM90.0 61.0 -64.0 80.0V-63.0H20.0V9.0C65.0 16.0 86.0 33.0 90.0 61.0ZM967.0 289.0 812.0 305.0V-101.0H828.0C860.0 -101.0 894.0 -80.0 894.0 -69.0V238.0C942.0 243.0 961.0 260.0 967.0 289.0ZM459.0 92.0 311.0 109.0V-242.0H393.0V45.0C436.0 49.0 455.0 66.0 459.0 92.0ZM411.0 -464.0H-372.0L-378.0 -520.0H411.0Z"/></g>
<g fill="green" transform="translate(600 200) scale(0.1 -0.1)"><path d="M0.0 0.0H-171.0V-268.0L-132.0 -199.0C-165.0 -211.0 -210.0 -250.0 -234.0 -279.0L-1.0 -376.0L64.0 -299.0H56.0V-34.0ZM115.0 51.0 -171.0 78.0V-65.0H56.0V3.0C97.0 9.0 111.0 25.0 115.0 51.0ZM982.0 265.0 685.0 291.0V-130.0H723.0C816.0 -130.0 918.0 -101.0 918.0 -89.0V217.0C965.0 225.0 978.0 243.0 982.0 265.0ZM490.0 90.0 195.0 113.0V-277.0H434.0V44.0C476.0 51.0 488.0 68.0 490.0 90.0ZM293.0 -485.0H-393.0L-400.0 -537.0H293.0Z"/></g>
<g fill="red" transform="translate(100 300) scale(0.1 -0.1)"><path d="M0.0 0.0H-34.0V-543.0L-18.0 -513.0C-32.0 -517.0 -52.0 -529.0 -61.0 -538.0L-4.0 -579.0L17.0 -551.0H10.0V-6.0ZM47.0 21.0 -34.0 31.0V-45.0H10.0V-6.0C34.0 -2.0 45.0 7.0 47.0 21.0ZM552.0 19.0 471.0 29.0V-611.0H480.0C497.0 -611.0 515.0 -601.0 515.0 -593.0V-7.0C540.0 -4.0 549.0 5.0 552.0 19.0ZM298.0 251.0 218.0 261.0V-539.0H262.0V224.0C286.0 228.0 295.0 237.0 298.0 251.0ZM495.0 -521.0H-15.0V-551.0H495.0Z"/></g>
<g fill="black" opacity=".8" transform="translate(100 300) scale(0.1 -0.1)"><path d="M0.0 0.0H-34.0V-544.0L-19.0 -513.0C-35.0 -516.0 -56.0 -528.0 -65.0 -538.0L-5.0 -581.0L18.0 -549.0H11.0V-6.0ZM48.0 22.0 -34.0 33.0V-47.0H11.0V-5.0C35.0 -2.0 47.0 7.0 48.0 22.0ZM557.0 27.0 474.0 36.0V-609.0H483.0C501.0 -609.0 519.0 -597.0 519.0 -589.0V-0.0C545.0 2.0 554.0 12.0 557.0 27.0ZM299.0 250.0 217.0 260.0V-536.0H261.0V222.0C286.0 225.0 294.0 235.0 299.0 250.0ZM489.0 -522.0H-14.0L-12.0 -553.0H489.0Z"/></g>
<g fill="red" transform="translate(200 300) scale(0.1 -0.1)"><path d="M0.0 0.0H-107.0V-573.0L-84.0 -534.0C-102.0 -542.0 -126.0 -564.0 -139.0 -582.0L3.0 -661.0L43.0 -592.0H36.0V-21.0ZM72.0 30.0 -107.0 47.0V-30.0H36.0V2.0C62.0 6.0 69.0 15.0 72.0 30.0ZM535.0 34.0 355.0 50.0V-656.0H382.0C436.0 -656.0 500.0 -625.0 500.0 -612.0V7.0C526.0 11.0 533.0 21.0 535.0 34.0ZM305.0 221.0 124.0 237.0V-580.0H268.0V191.0C296.0 196.0 303.0 206.0 305.0 221.0ZM401.0 -564.0H-7.0V-592.0H401.0Z"/></g>
<g fill="black" opacity=".8" transform="translate(200 300) scale(0.1 -0.1)"><path d="M0.0 0.0H-103.0V-571.0L-81.0 -532.0C-100.0 -539.0 -123.0 -562.0 -137.0 -578.0L1.0 -656.0L41.0 -590.0H34.0V-20.0ZM71.0 25.0 -103.0 43.0V-36.0H34.0V-3.0C60.0 2.0 69.0 10.0 71.0 25.0ZM531.0 33.0 357.0 48.0V-664.0H381.0C435.0 -664.0 496.0 -636.0 496.0 -624.0V5.0C522.0 9.0 530.0 19.0 531.0 33.0ZM300.0 223.0 124.0 239.0V-575.0H262.0V194.0C291.0 197.0 299.0 207.0 300.0 223.0ZM408.0 -563.0H-10.0L-8.0 -591.0H408.0Z"/></g>
<g fill="red" transform="translate(300 300) scale(0.1 -0.1)"><path d="M0.0 0.0H-34.0V-200.0L-18.0 -170.0C-32.0 -175.0 -52.0 -187.0 -61.0 -195.0L-4.0 -232.0L17.0 -208.0H10.0V-6.0ZM47.0 17.0 -34.0 27.0V-49.0H10.0V-10.0C34.0 -6.0 45.0 3.0 47.0 17.0ZM453.0 27.0 371.0 36.0V-264.0H380.0C397.0 -264.0 415.0 -254.0 415.0 -247.0V0.0C440.0 3.0 450.0 12.0 453.0 27.0ZM247.0 92.0 166.0 102.0V-194.0H209.0V66.0C234.0 69.0 244.0 78.0 247.0 92.0ZM379.0 -350.0H72.0L43.0 -380.0H379.0Z"/></g>
<g fill="black" opacity=".8" transform="translate(300 300) scale(0.1 -0.1)"><path d="M0.0 0.0H-33.0V-204.0L-18.0 -173.0C-33.0 -177.0 -54.0 -190.0 -63.0 -198.0L-5.0 -236.0L17.0 -211.0H10.0V-6.0ZM47.0 22.0 -33.0 32.0V-46.0H10.0V-5.0C35.0 -3.0 46.0 7.0 47.0 22.0ZM455.0 34.0 373.0 42.0V-259.0H381.0C398.0 -259.0 417.0 -247.0 417.0 -241.0V8.0C442.0 10.0 452.0 19.0 455.0 34.0ZM247.0 91.0 167.0 99.0V-197.0H210.0V64.0C234.0 66.0 244.0 75.0 247.0 91.0ZM386.0 -354.0H74.0L55.0 -385.0H386.0Z"/></g>
<g fill="red" transform="translate(400 300) scale(0.1 -0.1)"><path d="M0.0 0.0H-96.0V-203.0L-74.0 -165.0C-92.0 -172.0 -115.0 -193.0 -128.0 -209.0L1.0 -264.0L36.0 -220.0H32.0V-19.0ZM68.0 29.0 -96.0 45.0V-32.0H32.0V1.0C57.0 5.0 65.0 14.0 68.0 29.0ZM432.0 45.0 273.0 59.0V-251.0H294.0C342.0 -251.0 395.0 -233.0 395.0 -225.0V17.0C422.0 22.0 429.0 32.0 432.0 45.0ZM251.0 106.0 89.0 120.0V-208.0H220.0V82.0C243.0 86.0 249.0 94.0 251.0 106.0ZM323.0 -358.0H86.0L59.0 -386.0H323.0Z"/></g>
<g fill="black" opacity=".8" transform="translate(400 300) scale(0.1 -0.1)"><path d="M0.0 0.0H-94.0V-200.0L-74.0 -162.0C-92.0 -168.0 -113.0 -189.0 -127.0 -204.0L1.0 -259.0L35.0 -217.0H32.0V-19.0ZM64.0 26.0 -94.0 42.0V-35.0H32.0V-0.0C54.0 4.0 62.0 12.0 64.0 26.0ZM432.0 38.0 272.0 52.0V-259.0H291.0C343.0 -259.0 398.0 -241.0 398.0 -235.0V11.0C422.0 15.0 430.0 25.0 432.0 38.0ZM245.0 108.0 85.0 121.0V-202.0H215.0V84.0C238.0 88.0 244.0 97.0 245.0 108.0ZM317.0 -355.0H77.0L58.0 -381.0H317.0Z"/></g>
<g fill="red" transform="translate(500 300) scale(0.1 -0.1)"><path d="M0.0 0.0H-34.0V-200.0L-18.0 -170.0C-32.0 -175.0 -52.0 -187.0 -61.0 -195.0L-4.0 -232.0L17.0 -208.0H10.0V-6.0ZM47.0 18.0 -34.0 28.0V-48.0H10.0V-9.0C34.0 -5.0 45.0 4.0 47.0 18.0ZM501.0 27.0 419.0 36.0V-264.0H428.0C445.0 -264.0 463.0 -254.0 463.0 -247.0V0.0C488.0 3.0 498.0 12.0 501.0 27.0ZM271.0 92.0 190.0 102.0V-194.0H234.0V66.0C258.0 69.0 269.0 78.0 271.0 92.0ZM-152.0 -506.0H-323.0V-536.0H-152.0Z"/></g>
<g fill="black" opacity=".8" transform="translate(500 300) scale(0.1 -0.1)"><path d="M0.0 0.0H-33.0V-201.0L-18.0 -170.0C-33.0 -175.0 -52.0 -187.0 -62.0 -195.0L-5.0 -233.0L17.0 -207.0H11.0V-6.0ZM47.0 22.0 -33.0 32.0V-45.0H10.0V-5.0C34.0 -1.0 45.0 7.0 47.0 22.0ZM501.0 30.0 421.0 38.0V-265.0H429.0C445.0 -265.0 463.0 -254.0 463.0 -248.0V3.0C489.0 5.0 497.0 14.0 501.0 30.0ZM275.0 93.0 195.0 102.0V-197.0H237.0V67.0C261.0 69.0 272.0 78.0 275.0 93.0ZM-151.0 -506.0H-325.0V-537.0H-151.0Z"/></g>
<g fill="red" transform="translate(600 300) scale(0.1 -0.1)"><path d="M0.0 0.0H-99.0V-203.0L-77.0 -165.0C-94.0 -172.0 -118.0 -193.0 -131.0 -210.0L1.0 -265.0L37.0 -220.0H32.0V-20.0ZM69.0 29.0 -99.0 45.0V-32.0H32.0V1.0C58.0 4.0 66.0 14.0 69.0 29.0ZM500.0 26.0 327.0 40.0V-275.0H350.0C404.0 -275.0 463.0 -256.0 463.0 -248.0V-3.0C491.0 2.0 498.0 12.0 500.0 26.0ZM281.0 106.0 111.0 120.0V-208.0H251.0V82.0C274.0 85.0 280.0 94.0 281.0 106.0ZM-201.0 -499.0H-361.0V-527.0H-201.0Z"/></g>
<g fill="black" opacity=".8" transform="translate(600 300) scale(0.1 -0.1)"><path d="M0.0 0.0H-98.0V-201.0L-77.0 -163.0C-94.0 -170.0 -117.0 -191.0 -130.0 -207.0L1.0 -265.0L37.0 -219.0H33.0V-20.0ZM68.0 29.0 -98.0 44.0V-31.0H33.0V2.0C57.0 5.0 66.0 14.0 68.0 29.0ZM497.0 26.0 327.0 40.0V-276.0H348.0C403.0 -276.0 462.0 -258.0 462.0 -250.0V-2.0C488.0 3.0 495.0 13.0 497.0 26.0ZM280.0 106.0 113.0 119.0V-206.0H250.0V81.0C274.0 84.0 280.0 94.0 280.0 106.0ZM-202.0 -499.0H-358.0L-359.0 -526.0H-202.0Z"/></g>
<g fill="red" transform="translate(700 300) scale(0.1 -0.1)"><path d="M0.0 0.0H-34.0V-195.0L-21.0 -161.0C-37.0 -166.0 -60.0 -175.0 -70.0 -184.0L-5.0 -229.0L19.0 -199.0H10.0V-6.0ZM48.0 13.0 -34.0 23.0V-53.0H10.0V-15.0C34.0 -11.0 46.0 -2.0 48.0 13.0ZM676.0 14.0 594.0 23.0V-269.0H603.0C620.0 -269.0 638.0 -258.0 638.0 -251.0V-13.0C663.0 -10.0 673.0 -1.0 676.0 14.0ZM361.0 329.0 285.0 338.0V-179.0H329.0V304.0C351.0 307.0 359.0 316.0 361.0 329.0ZM632.0 -170.0H-24.0V-200.0H632.0Z"/></g>
<g fill="black" opacity=".8" transform="translate(700 300) scale(0.1 -0.1)"><path d="M0.0 0.0H-32.0V-197.0L-21.0 -162.0C-37.0 -166.0 -60.0 -176.0 -70.0 -186.0L-6.0 -229.0L19.0 -199.0H11.0V-6.0ZM48.0 20.0 -32.0 30.0V-47.0H9.0V-8.0C34.0 -4.0 45.0 5.0 48.0 20.0ZM677.0 16.0 596.0 24.0V-273.0H604.0C621.0 -273.0 639.0 -262.0 639.0 -255.0V-10.0C664.0 -8.0 674.0 0.0 677.0 16.0ZM363.0 331.0 287.0 339.0V-180.0H329.0V306.0C352.0 307.0 360.0 317.0 363.0 331.0ZM638.0 -170.0H-20.0L-22.0 -201.0H638.0Z"/></g>
<g fill="red" transform="translate(800 300) scale(0.1 -0.1)"><path d="M0.0 0.0H-104.0V-160.0L-82.0 -123.0C-101.0 -130.0 -128.0 -153.0 -142.0 -170.0L-1.0 -239.0L40.0 -179.0H35.0V-21.0ZM72.0 36.0 -104.0 53.0V-24.0H35.0V7.0C61.0 11.0 70.0 21.0 72.0 36.0ZM665.0 33.0 494.0 47.0V-263.0H518.0C571.0 -263.0 632.0 -243.0 632.0 -235.0V8.0C656.0 11.0 663.0 21.0 665.0 33.0ZM372.0 353.0 195.0 368.0V-162.0H335.0V324.0C363.0 329.0 370.0 339.0 372.0 353.0ZM614.0 -151.0H-43.0V-179.0H614.0Z"/></g>
<g fill="black" opacity=".8" transform="translate(800 300) scale(0.1 -0.1)"><path d="M0.0 0.0H-104.0V-161.0L-83.0 -123.0C-102.0 -130.0 -127.0 -154.0 -141.0 -171.0L-1.0 -234.0L38.0 -181.0H36.0V-21.0ZM69.0 40.0 -104.0 57.0V-19.0H36.0V14.0C59.0 18.0 68.0 26.0 69.0 40.0ZM664.0 30.0 492.0 43.0V-258.0H514.0C570.0 -258.0 632.0 -238.0 632.0 -231.0V4.0C655.0 8.0 662.0 18.0 664.0 30.0ZM370.0 351.0 194.0 366.0V-161.0H334.0V323.0C361.0 328.0 369.0 337.0 370.0 351.0ZM608.0 -151.0H-43.0L-46.0 -177.0H608.0Z"/></g>
<g fill="red" transform="translate(900 300) scale(0.1 -0.1)"><path d="M0.0 0.0H-34.0V-459.0L-18.0 -430.0C-32.0 -434.0 -52.0 -445.0 -61.0 -454.0L-4.0 -491.0L17.0 -467.0H10.0V-6.0ZM48.0 43.0 -34.0 53.0V-23.0H10.0V15.0C35.0 19.0 46.0 28.0 48.0 43.0ZM308.0 46.0 227.0 56.0V-553.0H236.0C253.0 -553.0 271.0 -542.0 271.0 -534.0V20.0C296.0 23.0 305.0 32.0 308.0 46.0ZM171.0 222.0 95.0 231.0V-458.0H139.0V197.0C161.0 199.0 169.0 208.0 171.0 222.0ZM259.0 -438.0H-16.0V-468.0H259.0Z"/></g>
<g fill="black" opacity=".8" transform="translate(900 300) scale(0.1 -0.1)"><path d="M0.0 0.0H-35.0V-462.0L-18.0 -431.0C-33.0 -436.0 -54.0 -447.0 -63.0 -457.0L-4.0 -495.0L17.0 -469.0H11.0V-6.0ZM50.0 42.0 -35.0 52.0V-27.0H10.0V13.0C36.0 17.0 48.0 27.0 50.0 42.0ZM309.0 45.0 225.0 54.0V-538.0H234.0C252.0 -538.0 270.0 -527.0 270.0 -519.0V18.0C297.0 20.0 305.0 30.0 309.0 45.0ZM175.0 215.0 96.0 223.0V-458.0H141.0V189.0C164.0 189.0 172.0 199.0 175.0 215.0ZM258.0 -439.0H-17.0L-20.0 -470.0H258.0Z"/></g>
<g fill="red" transform="translate(1000 300) scale(0.1 -0.1)"><path d="M0.0 0.0H-80.0V-478.0L-60.0 -442.0C-77.0 -448.0 -99.0 -467.0 -111.0 -481.0L0.0 -531.0L31.0 -492.0H26.0V-16.0ZM49.0 30.0 -80.0 43.0V-34.0H26.0V10.0C42.0 13.0 47.0 20.0 49.0 30.0ZM337.0 33.0 196.0 46.0V-554.0H218.0C259.0 -554.0 310.0 -531.0 310.0 -521.0V11.0C329.0 14.0 335.0 22.0 337.0 33.0ZM198.0 204.0 57.0 217.0V-473.0H166.0V178.0C189.0 182.0 196.0 191.0 198.0 204.0ZM260.0 -464.0H-34.0V-492.0H260.0Z"/></g>
<g fill="black" opacity=".8" transform="translate(1000 300) scale(0.1 -0.1)"><path d="M0.0 0.0H-78.0V-477.0L-59.0 -440.0C-76.0 -446.0 -98.0 -465.0 -110.0 -478.0L-0.0 -528.0L31.0 -491.0H25.0V-15.0ZM49.0 33.0 -78.0 45.0V-34.0H25.0V12.0C42.0 16.0 48.0 22.0 49.0 33.0ZM335.0 34.0 200.0 47.0V-566.0H219.0C259.0 -566.0 307.0 -543.0 307.0 -535.0V11.0C326.0 15.0 333.0 23.0 335.0 34.0ZM200.0 213.0 61.0 226.0V-476.0H167.0V186.0C191.0 190.0 198.0 199.0 200.0 213.0ZM262.0 -464.0H-30.0L-32.0 -491.0H262.0Z"/></g>
<g fill="red" transform="translate(1100 300) scale(0.1 -0.1)"><path d="M0.0 0.0H-34.0V-639.0L-18.0 -610.0C-32.0 -615.0 -52.0 -627.0 -61.0 -634.0L-4.0 -677.0L17.0 -647.0H10.0V-6.0ZM49.0 22.0 -34.0 32.0V-44.0H10.0V-6.0C35.0 -3.0 47.0 7.0 49.0 22.0ZM414.0 20.0 334.0 30.0V-711.0H343.0C360.0 -711.0 378.0 -699.0 378.0 -691.0V-7.0C403.0 -3.0 412.0 6.0 414.0 20.0ZM227.0 160.0 147.0 170.0V-639.0H191.0V133.0C215.0 137.0 224.0 146.0 227.0 160.0ZM350.0 -618.0H-10.0V-648.0H350.0Z"/></g>
<g fill="black" opacity=".8" transform="translate(1100 300) scale(0.1 -0.1)"><path d="M0.0 0.0H-36.0V-638.0L-19.0 -607.0C-35.0 -611.0 -56.0 -624.0 -66.0 -633.0L-5.0 -676.0L18.0 -645.0H11.0V-6.0ZM51.0 13.0 -36.0 24.0V-59.0H11.0V-16.0C38.0 -13.0 50.0 -2.0 51.0 13.0ZM419.0 21.0 332.0 30.0V-717.0H341.0C360.0 -717.0 378.0 -705.0 378.0 -696.0V-9.0C406.0 -6.0 415.0 5.0 419.0 21.0ZM229.0 173.0 145.0 183.0V-640.0H191.0V144.0C216.0 146.0 225.0 156.0 229.0 173.0ZM338.0 -615.0H-4.0L-7.0 -648.0H338.0Z"/></g>
<g fill="red" transform="translate(1200 300) scale(0.1 -0.1)"><path d="M0.0 0.0H-93.0V-616.0L-71.0 -579.0C-89.0 -586.0 -112.0 -606.0 -125.0 -622.0L1.0 -695.0L39.0 -632.0H31.0V-18.0ZM67.0 32.0 -93.0 48.0V-29.0H31.0V4.0C56.0 8.0 65.0 18.0 67.0 32.0ZM396.0 36.0 241.0 51.0V-714.0H263.0C309.0 -714.0 361.0 -687.0 361.0 -675.0V10.0C387.0 13.0 394.0 23.0 396.0 36.0ZM235.0 214.0 76.0 229.0V-621.0H199.0V185.0C226.0 189.0 233.0 199.0 235.0 214.0ZM295.0 -604.0H-4.0V-632.0H295.0Z"/></g>
<g fill="black" opacity=".8" transform="translate(1200 300) scale(0.1 -0.1)"><path d="M0.0 0.0H-92.0V-617.0L-70.0 -577.0C-88.0 -584.0 -112.0 -605.0 -125.0 -619.0L2.0 -689.0L39.0 -633.0H30.0V-18.0ZM64.0 30.0 -92.0 45.0V-38.0H30.0V3.0C55.0 7.0 62.0 15.0 64.0 30.0ZM397.0 41.0 241.0 55.0V-712.0H262.0C308.0 -712.0 362.0 -684.0 362.0 -674.0V14.0C387.0 17.0 395.0 27.0 397.0 41.0ZM231.0 202.0 71.0 218.0V-618.0H195.0V174.0C222.0 177.0 231.0 187.0 231.0 202.0ZM309.0 -605.0H-7.0L-10.0 -634.0H309.0Z"/></g>
<g fill="red" transform="translate(1300 300) scale(0.1 -0.1)"><path d="M0.0 0.0H-34.0V-195.0L-21.0 -161.0C-37.0 -166.0 -60.0 -175.0 -70.0 -184.0L-5.0 -229.0L19.0 -199.0H10.0V-6.0ZM48.0 30.0 -34.0 40.0V-36.0H10.0V2.0C35.0 6.0 46.0 15.0 48.0 30.0ZM677.0 31.0 595.0 40.0V-238.0H604.0C621.0 -238.0 639.0 -227.0 639.0 -220.0V4.0C664.0 7.0 674.0 16.0 677.0 31.0ZM360.0 75.0 279.0 85.0V-187.0H323.0V49.0C347.0 52.0 358.0 61.0 360.0 75.0ZM608.0 -333.0H133.0L112.0 -363.0H608.0Z"/></g>
<g fill="black" opacity=".8" transform="translate(1300 300) scale(0.1 -0.1)"><path d="M0.0 0.0H-34.0V-191.0L-21.0 -156.0C-38.0 -160.0 -62.0 -171.0 -72.0 -180.0L-6.0 -226.0L20.0 -194.0H10.0V-6.0ZM50.0 40.0 -34.0 50.0V-29.0H10.0V11.0C36.0 14.0 48.0 24.0 50.0 40.0ZM681.0 35.0 597.0 43.0V-244.0H605.0C623.0 -244.0 642.0 -232.0 642.0 -225.0V7.0C668.0 9.0 678.0 19.0 681.0 35.0ZM361.0 75.0 279.0 84.0V-184.0H324.0V48.0C349.0 50.0 359.0 60.0 361.0 75.0ZM614.0 -341.0H125.0L123.0 -372.0H614.0Z"/></g>
<g fill="red" transform="translate(1400 300) scale(0.1 -0.1)"><path d="M0.0 0.0H-106.0V-174.0L-84.0 -136.0C-103.0 -144.0 -129.0 -167.0 -144.0 -185.0L-1.0 -254.0L41.0 -193.0H36.0V-21.0ZM73.0 35.0 -106.0 52.0V-25.0H36.0V6.0C63.0 10.0 71.0 20.0 73.0 35.0ZM698.0 37.0 516.0 52.0V-258.0H540.0C598.0 -258.0 661.0 -238.0 661.0 -230.0V9.0C689.0 13.0 696.0 24.0 698.0 37.0ZM384.0 80.0 204.0 94.0V-178.0H348.0V52.0C375.0 56.0 382.0 66.0 384.0 80.0ZM596.0 -360.0H109.0L89.0 -388.0H596.0Z"/></g>
<g fill="black" opacity=".8" transform="translate(1400 300) scale(0.1 -0.1)"><path d="M0.0 0.0H-104.0V-178.0L-82.0 -139.0C-101.0 -146.0 -127.0 -170.0 -142.0 -187.0L-1.0 -256.0L40.0 -197.0H35.0V-21.0ZM68.0 36.0 -104.0 52.0V-27.0H35.0V8.0C59.0 13.0 67.0 22.0 68.0 36.0ZM694.0 34.0 518.0 48.0V-253.0H541.0C597.0 -253.0 659.0 -234.0 659.0 -227.0V7.0C685.0 11.0 691.0 21.0 694.0 34.0ZM381.0 81.0 205.0 95.0V-182.0H342.0V52.0C371.0 56.0 379.0 67.0 381.0 81.0ZM591.0 -351.0H100.0L97.0 -379.0H591.0Z"/></g>
<g fill="red" transform="translate(1500 300) scale(0.1 -0.1)"><path d="M0.0 0.0H-34.0V-459.0L-18.0 -430.0C-32.0 -434.0 -52.0 -445.0 -61.0 -454.0L-4.0 -491.0L17.0 -467.0H10.0V-6.0ZM48.0 43.0 -34.0 53.0V-23.0H10.0V15.0C35.0 19.0 46.0 28.0 48.0 43.0ZM310.0 46.0 229.0 56.0V-516.0H238.0C255.0 -516.0 273.0 -506.0 273.0 -498.0V20.0C298.0 23.0 307.0 32.0 310.0 46.0ZM173.0 209.0 97.0 218.0V-452.0H141.0V184.0C163.0 186.0 171.0 195.0 173.0 209.0ZM258.0 -438.0H-8.0V-468.0H258.0Z"/></g>
<g fill="black" opacity=".8" transform="translate(1500 300) scale(0.1 -0.1)"><path d="M0.0 0.0H-33.0V-456.0L-17.0 -427.0C-31.0 -431.0 -51.0 -443.0 -59.0 -452.0L-4.0 -487.0L16.0 -463.0H10.0V-6.0ZM47.0 39.0 -33.0 48.0V-27.0H10.0V11.0C34.0 15.0 45.0 24.0 47.0 39.0ZM309.0 48.0 229.0 56.0V-520.0H237.0C255.0 -520.0 272.0 -509.0 272.0 -502.0V22.0C297.0 24.0 305.0 33.0 309.0 48.0ZM172.0 209.0 97.0 216.0V-451.0H139.0V183.0C161.0 184.0 169.0 193.0 172.0 209.0ZM261.0 -436.0H-13.0L-16.0 -466.0H261.0Z"/></g>
<g fill="red" transform="translate(1600 300) scale(0.1 -0.1)"><path d="M0.0 0.0H-77.0V-478.0L-57.0 -442.0C-74.0 -449.0 -96.0 -467.0 -108.0 -481.0L0.0 -529.0L31.0 -492.0H25.0V-15.0ZM48.0 30.0 -77.0 43.0V-34.0H25.0V11.0C41.0 14.0 47.0 20.0 48.0 30.0ZM326.0 33.0 190.0 46.0V-554.0H211.0C250.0 -554.0 299.0 -531.0 299.0 -522.0V11.0C318.0 15.0 324.0 23.0 326.0 33.0ZM192.0 197.0 55.0 210.0V-480.0H160.0V171.0C183.0 175.0 190.0 184.0 192.0 197.0ZM253.0 -464.0H-31.0V-492.0H253.0Z"/></g>
<g fill="black" opacity=".8" transform="translate(1600 300) scale(0.1 -0.1)"><path d="M0.0 0.0H-77.0V-478.0L-58.0 -443.0C-74.0 -449.0 -95.0 -467.0 -107.0 -479.0L0.0 -530.0L30.0 -492.0H25.0V-15.0ZM49.0 29.0 -77.0 41.0V-33.0H25.0V9.0C41.0 13.0 47.0 19.0 49.0 29.0ZM326.0 37.0 195.0 50.0V-556.0H213.0C253.0 -556.0 299.0 -533.0 299.0 -525.0V15.0C318.0 19.0 325.0 27.0 326.0 37.0ZM192.0 198.0 57.0 211.0V-477.0H161.0V173.0C184.0 176.0 191.0 185.0 192.0 198.0ZM249.0 -467.0H-21.0L-23.0 -493.0H249.0Z"/></g>
<g fill="red" transform="translate(100 400) scale(0.1 -0.1)"><path d="M0.0 0.0H-34.0V-126.0L-21.0 -92.0C-37.0 -96.0 -60.0 -106.0 -70.0 -115.0L-5.0 -160.0L19.0 -129.0H10.0V-6.0ZM48.0 50.0 -34.0 60.0V-16.0H10.0V22.0C34.0 26.0 46.0 35.0 48.0 50.0ZM676.0 51.0 595.0 60.0V-164.0H604.0C620.0 -164.0 638.0 -153.0 638.0 -146.0V24.0C664.0 27.0 674.0 36.0 676.0 51.0ZM360.0 74.0 279.0 84.0V-119.0H322.0V48.0C347.0 51.0 358.0 60.0 360.0 74.0ZM617.0 -99.0H-12.0V-129.0H617.0Z"/></g>
<g fill="black" opacity=".8" transform="translate(100 400) scale(0.1 -0.1)"><path d="M0.0 0.0H-35.0V-125.0L-22.0 -89.0C-39.0 -93.0 -63.0 -104.0 -74.0 -113.0L-6.0 -159.0L20.0 -128.0H11.0V-7.0ZM51.0 43.0 -35.0 53.0V-28.0H10.0V14.0C37.0 17.0 49.0 27.0 51.0 43.0ZM680.0 49.0 594.0 58.0V-165.0H602.0C621.0 -165.0 640.0 -152.0 640.0 -146.0V21.0C667.0 22.0 677.0 32.0 680.0 49.0ZM361.0 78.0 277.0 87.0V-114.0H323.0V51.0C348.0 52.0 359.0 62.0 361.0 78.0ZM610.0 -96.0H5.0L6.0 -128.0H610.0Z"/></g>
<g fill="red" transform="translate(200 400) scale(0.1 -0.1)"><path d="M0.0 0.0H-106.0V-123.0L-84.0 -85.0C-103.0 -93.0 -129.0 -116.0 -144.0 -134.0L-1.0 -203.0L41.0 -142.0H36.0V-21.0ZM74.0 34.0 -106.0 51.0V-26.0H36.0V5.0C63.0 9.0 71.0 19.0 74.0 34.0ZM696.0 36.0 514.0 51.0V-185.0H538.0C596.0 -185.0 659.0 -168.0 659.0 -160.0V8.0C687.0 13.0 694.0 23.0 696.0 36.0ZM384.0 72.0 204.0 85.0V-125.0H348.0V43.0C375.0 48.0 382.0 58.0 384.0 72.0ZM556.0 -114.0H0.0V-142.0H556.0Z"/></g>
<g fill="black" opacity=".8" transform="translate(200 400) scale(0.1 -0.1)"><path d="M0.0 0.0H-106.0V-123.0L-84.0 -84.0C-104.0 -91.0 -130.0 -115.0 -146.0 -132.0L-2.0 -200.0L40.0 -143.0H35.0V-21.0ZM69.0 35.0 -106.0 52.0V-29.0H35.0V7.0C60.0 12.0 68.0 21.0 69.0 35.0ZM694.0 42.0 514.0 56.0V-189.0H538.0C596.0 -189.0 660.0 -171.0 660.0 -164.0V14.0C685.0 19.0 692.0 29.0 694.0 42.0ZM380.0 69.0 200.0 82.0V-128.0H343.0V39.0C371.0 44.0 379.0 55.0 380.0 69.0ZM565.0 -116.0H-18.0L-19.0 -145.0H565.0Z"/></g>
<g fill="red" transform="translate(300 400) scale(0.1 -0.1)"><path d="M0.0 0.0H-34.0V-459.0L-18.0 -430.0C-32.0 -434.0 -52.0 -445.0 -61.0 -454.0L-4.0 -491.0L17.0 -467.0H10.0V-6.0ZM48.0 43.0 -34.0 53.0V-23.0H10.0V15.0C35.0 19.0 46.0 28.0 48.0 43.0ZM319.0 46.0 238.0 56.0V-544.0H247.0C264.0 -544.0 282.0 -533.0 282.0 -525.0V20.0C307.0 23.0 316.0 32.0 319.0 46.0ZM180.0 209.0 104.0 218.0V-452.0H148.0V184.0C170.0 186.0 178.0 195.0 180.0 209.0ZM259.0 -438.0H-16.0V-468.0H259.0Z"/></g>
<g fill="black" opacity=".8" transform="translate(300 400) scale(0.1 -0.1)"><path d="M0.0 0.0H-35.0V-461.0L-18.0 -431.0C-33.0 -435.0 -53.0 -447.0 -63.0 -456.0L-4.0 -494.0L17.0 -468.0H11.0V-6.0ZM49.0 40.0 -35.0 50.0V-30.0H10.0V11.0C36.0 15.0 48.0 25.0 49.0 40.0ZM319.0 40.0 235.0 49.0V-540.0H244.0C262.0 -540.0 280.0 -529.0 280.0 -521.0V13.0C307.0 15.0 315.0 25.0 319.0 40.0ZM182.0 214.0 102.0 222.0V-456.0H147.0V187.0C170.0 188.0 179.0 198.0 182.0 214.0ZM249.0 -437.0H-16.0L-20.0 -469.0H249.0Z"/></g>
<g fill="red" transform="translate(400 400) scale(0.1 -0.1)"><path d="M0.0 0.0H-76.0V-478.0L-57.0 -443.0C-73.0 -449.0 -96.0 -467.0 -107.0 -480.0L-1.0 -529.0L30.0 -492.0H24.0V-15.0ZM48.0 32.0 -76.0 44.0V-33.0H24.0V12.0C40.0 15.0 46.0 22.0 48.0 32.0ZM332.0 33.0 200.0 46.0V-581.0H220.0C258.0 -581.0 304.0 -559.0 304.0 -550.0V12.0C324.0 15.0 330.0 23.0 332.0 33.0ZM200.0 210.0 60.0 223.0V-476.0H168.0V184.0C191.0 188.0 198.0 197.0 200.0 210.0ZM226.0 -464.0H-30.0V-492.0H226.0Z"/></g>
<g fill="black" opacity=".8" transform="translate(400 400) scale(0.1 -0.1)"><path d="M0.0 0.0H-81.0V-482.0L-61.0 -444.0C-78.0 -450.0 -101.0 -469.0 -113.0 -483.0L0.0 -535.0L32.0 -496.0H26.0V-16.0ZM52.0 31.0 -81.0 44.0V-35.0H26.0V10.0C44.0 13.0 50.0 20.0 52.0 31.0ZM336.0 30.0 196.0 43.0V-574.0H216.0C258.0 -574.0 307.0 -551.0 307.0 -542.0V6.0C327.0 10.0 334.0 19.0 336.0 30.0ZM202.0 207.0 59.0 220.0V-481.0H169.0V181.0C193.0 184.0 200.0 194.0 202.0 207.0ZM238.0 -465.0H-26.0L-30.0 -492.0H238.0Z"/></g>
<g fill="red" transform="translate(500 400) scale(0.1 -0.1)"><path d="M0.0 0.0H-34.0V-459.0L-18.0 -430.0C-32.0 -434.0 -52.0 -445.0 -61.0 -454.0L-4.0 -491.0L17.0 -467.0H10.0V-6.0ZM48.0 43.0 -34.0 53.0V-23.0H10.0V15.0C35.0 19.0 46.0 28.0 48.0 43.0ZM306.0 46.0 225.0 56.0V-516.0H234.0C251.0 -516.0 269.0 -506.0 269.0 -498.0V20.0C294.0 23.0 303.0 32.0 306.0 46.0ZM171.0 209.0 95.0 218.0V-452.0H139.0V184.0C161.0 186.0 169.0 195.0 171.0 209.0ZM250.0 -438.0H-16.0V-468.0H250.0Z"/></g>
<g fill="black" opacity=".8" transform="translate(500 400) scale(0.1 -0.1)"><path d="M0.0 0.0H-33.0V-457.0L-17.0 -428.0C-32.0 -432.0 -51.0 -444.0 -60.0 -453.0L-4.0 -489.0L17.0 -464.0H10.0V-6.0ZM47.0 39.0 -33.0 49.0V-27.0H10.0V12.0C35.0 15.0 46.0 24.0 47.0 39.0ZM305.0 48.0 225.0 57.0V-523.0H234.0C251.0 -523.0 268.0 -512.0 268.0 -504.0V22.0C294.0 24.0 302.0 34.0 305.0 48.0ZM171.0 215.0 95.0 223.0V-453.0H138.0V190.0C160.0 190.0 168.0 200.0 171.0 215.0ZM254.0 -438.0H-16.0L-19.0 -468.0H254.0Z"/></g>
<g fill="red" transform="translate(600 400) scale(0.1 -0.1)"><path d="M0.0 0.0H-77.0V-478.0L-57.0 -442.0C-74.0 -449.0 -96.0 -467.0 -108.0 -481.0L0.0 -529.0L31.0 -492.0H25.0V-15.0ZM48.0 30.0 -77.0 43.0V-34.0H25.0V11.0C41.0 14.0 47.0 20.0 48.0 30.0ZM326.0 33.0 190.0 46.0V-554.0H211.0C250.0 -554.0 299.0 -531.0 299.0 -522.0V11.0C318.0 15.0 324.0 23.0 326.0 33.0ZM192.0 214.0 55.0 227.0V-477.0H160.0V188.0C183.0 192.0 190.0 201.0 192.0 214.0ZM253.0 -464.0H-31.0V-492.0H253.0Z"/></g>
<g fill="black" opacity=".8" transform="translate(600 400) scale(0.1 -0.1)"><path d="M0.0 0.0H-76.0V-476.0L-58.0 -440.0C-74.0 -446.0 -95.0 -464.0 -107.0 -477.0L0.0 -526.0L30.0 -489.0H25.0V-15.0ZM48.0 31.0 -76.0 43.0V-33.0H25.0V10.0C41.0 14.0 47.0 20.0 48.0 31.0ZM326.0 38.0 194.0 51.0V-554.0H213.0C252.0 -554.0 298.0 -532.0 298.0 -524.0V16.0C317.0 20.0 324.0 28.0 326.0 38.0ZM192.0 209.0 57.0 221.0V-475.0H161.0V183.0C184.0 187.0 191.0 196.0 192.0 209.0ZM249.0 -465.0H-26.0L-28.0 -491.0H249.0Z"/></g>
<g fill="red" transform="translate(700 400) scale(0.1 -0.1)"><path d="M0.0 0.0H-34.0V-497.0L-18.0 -467.0C-32.0 -471.0 -52.0 -483.0 -61.0 -492.0L-4.0 -528.0L17.0 -504.0H10.0V-6.0ZM48.0 33.0 -34.0 43.0V-33.0H10.0V5.0C35.0 9.0 46.0 18.0 48.0 33.0ZM291.0 36.0 210.0 46.0V-563.0H219.0C236.0 -563.0 254.0 -552.0 254.0 -544.0V10.0C279.0 13.0 288.0 22.0 291.0 36.0ZM167.0 199.0 91.0 208.0V-499.0H135.0V174.0C157.0 176.0 165.0 185.0 167.0 199.0ZM226.0 -474.0H-16.0V-504.0H226.0Z"/></g>
<g fill="black" opacity=".8" transform="translate(700 400) scale(0.1 -0.1)"><path d="M0.0 0.0H-32.0V-494.0L-16.0 -467.0C-30.0 -471.0 -49.0 -482.0 -57.0 -490.0L-4.0 -525.0L16.0 -501.0H10.0V-6.0ZM45.0 30.0 -32.0 39.0V-34.0H9.0V4.0C33.0 7.0 44.0 16.0 45.0 30.0ZM290.0 37.0 213.0 46.0V-563.0H221.0C238.0 -563.0 254.0 -552.0 254.0 -545.0V12.0C279.0 14.0 287.0 23.0 290.0 37.0ZM162.0 194.0 90.0 202.0V-493.0H131.0V169.0C152.0 170.0 159.0 179.0 162.0 194.0ZM228.0 -473.0H-14.0L-17.0 -502.0H228.0Z"/></g>
<g fill="red" transform="translate(800 400) scale(0.1 -0.1)"><path d="M0.0 0.0H-72.0V-497.0L-53.0 -462.0C-69.0 -468.0 -92.0 -485.0 -103.0 -498.0L-1.0 -546.0L29.0 -510.0H23.0V-14.0ZM46.0 32.0 -72.0 44.0V-33.0H23.0V12.0C39.0 15.0 45.0 22.0 46.0 32.0ZM301.0 34.0 175.0 46.0V-572.0H194.0C230.0 -572.0 274.0 -551.0 274.0 -542.0V12.0C293.0 15.0 299.0 23.0 301.0 34.0ZM179.0 197.0 50.0 210.0V-499.0H147.0V172.0C169.0 175.0 177.0 184.0 179.0 197.0ZM230.0 -482.0H-26.0V-510.0H230.0Z"/></g>
<g fill="black" opacity=".8" transform="translate(800 400) scale(0.1 -0.1)"><path d="M0.0 0.0H-73.0V-498.0L-55.0 -463.0C-70.0 -469.0 -91.0 -486.0 -102.0 -498.0L1.0 -548.0L30.0 -510.0H24.0V-14.0ZM47.0 29.0 -73.0 41.0V-32.0H24.0V9.0C40.0 13.0 46.0 19.0 47.0 29.0ZM301.0 36.0 176.0 48.0V-577.0H194.0C231.0 -577.0 275.0 -555.0 275.0 -547.0V15.0C293.0 18.0 300.0 26.0 301.0 36.0ZM179.0 203.0 50.0 215.0V-496.0H149.0V178.0C172.0 181.0 178.0 190.0 179.0 203.0ZM228.0 -485.0H-24.0L-26.0 -510.0H228.0Z"/></g>
<g fill="red" transform="translate(900 400) scale(0.1 -0.1)"><path d="M0.0 0.0H-34.0V-223.0L-21.0 -189.0C-37.0 -193.0 -60.0 -204.0 -70.0 -212.0L-5.0 -256.0L19.0 -227.0H10.0V-6.0ZM48.0 11.0 -34.0 21.0V-55.0H10.0V-17.0C35.0 -13.0 46.0 -4.0 48.0 11.0ZM683.0 9.0 601.0 18.0V-287.0H610.0C627.0 -287.0 645.0 -277.0 645.0 -269.0V-18.0C670.0 -15.0 680.0 -6.0 683.0 9.0ZM356.0 49.0 279.0 58.0V-219.0H323.0V24.0C345.0 27.0 354.0 36.0 356.0 49.0ZM630.0 -197.0H-17.0V-227.0H630.0Z"/></g>
<g fill="black" opacity=".8" transform="translate(900 400) scale(0.1 -0.1)"><path d="M0.0 0.0H-32.0V-230.0L-20.0 -196.0C-37.0 -200.0 -59.0 -211.0 -69.0 -219.0L-6.0 -264.0L19.0 -232.0H10.0V-6.0ZM47.0 22.0 -32.0 32.0V-44.0H10.0V-5.0C34.0 -2.0 45.0 7.0 47.0 22.0ZM680.0 11.0 601.0 18.0V-291.0H609.0C626.0 -291.0 643.0 -279.0 643.0 -273.0V-16.0C668.0 -14.0 677.0 -5.0 680.0 11.0ZM363.0 56.0 285.0 65.0V-224.0H327.0V31.0C350.0 33.0 360.0 42.0 363.0 56.0ZM640.0 -199.0H-38.0L-34.0 -229.0H640.0Z"/></g>
<g fill="red" transform="translate(1000 400) scale(0.1 -0.1)"><path d="M0.0 0.0H-104.0V-211.0L-82.0 -174.0C-101.0 -181.0 -128.0 -204.0 -142.0 -221.0L-2.0 -290.0L40.0 -230.0H34.0V-21.0ZM71.0 24.0 -104.0 41.0V-36.0H34.0V-5.0C60.0 -1.0 68.0 9.0 71.0 24.0ZM665.0 25.0 494.0 39.0V-303.0H518.0C571.0 -303.0 632.0 -282.0 632.0 -274.0V-1.0C656.0 3.0 663.0 13.0 665.0 25.0ZM373.0 71.0 196.0 85.0V-219.0H336.0V43.0C364.0 47.0 371.0 57.0 373.0 71.0ZM586.0 -202.0H-71.0V-230.0H586.0Z"/></g>
<g fill="black" opacity=".8" transform="translate(1000 400) scale(0.1 -0.1)"><path d="M0.0 0.0H-104.0V-207.0L-83.0 -170.0C-101.0 -177.0 -126.0 -200.0 -141.0 -216.0L-1.0 -290.0L40.0 -226.0H35.0V-21.0ZM71.0 30.0 -104.0 47.0V-29.0H35.0V1.0C61.0 5.0 70.0 15.0 71.0 30.0ZM669.0 21.0 493.0 36.0V-296.0H516.0C572.0 -296.0 634.0 -276.0 634.0 -268.0V-5.0C660.0 -1.0 667.0 9.0 669.0 21.0ZM370.0 65.0 194.0 78.0V-213.0H333.0V37.0C361.0 41.0 369.0 51.0 370.0 65.0ZM574.0 -200.0H-51.0L-47.0 -227.0H574.0Z"/></g>
<g fill="red" transform="translate(1100 400) scale(0.1 -0.1)"><path d="M0.0 0.0H-34.0V-459.0L-18.0 -430.0C-32.0 -434.0 -52.0 -445.0 -61.0 -454.0L-4.0 -491.0L17.0 -467.0H10.0V-6.0ZM48.0 30.0 -34.0 40.0V-36.0H10.0V2.0C35.0 6.0 46.0 15.0 48.0 30.0ZM298.0 33.0 217.0 43.0V-529.0H226.0C243.0 -529.0 261.0 -519.0 261.0 -511.0V7.0C286.0 10.0 295.0 19.0 298.0 33.0ZM168.0 196.0 92.0 205.0V-465.0H136.0V171.0C158.0 173.0 166.0 182.0 168.0 196.0ZM236.0 -437.0H-16.0V-467.0H236.0Z"/></g>
<g fill="black" opacity=".8" transform="translate(1100 400) scale(0.1 -0.1)"><path d="M0.0 0.0H-32.0V-458.0L-17.0 -430.0C-31.0 -434.0 -50.0 -445.0 -59.0 -454.0L-4.0 -489.0L16.0 -465.0H10.0V-6.0ZM47.0 32.0 -32.0 41.0V-33.0H9.0V5.0C34.0 8.0 45.0 17.0 47.0 32.0ZM298.0 36.0 219.0 44.0V-532.0H227.0C244.0 -532.0 261.0 -521.0 261.0 -513.0V10.0C286.0 12.0 294.0 21.0 298.0 36.0ZM168.0 192.0 94.0 199.0V-456.0H136.0V167.0C158.0 167.0 165.0 176.0 168.0 192.0ZM237.0 -435.0H-15.0L-18.0 -465.0H237.0Z"/></g>
<g fill="red" transform="translate(1200 400) scale(0.1 -0.1)"><path d="M0.0 0.0H-75.0V-455.0L-56.0 -420.0C-72.0 -426.0 -95.0 -443.0 -106.0 -457.0L-1.0 -505.0L29.0 -468.0H23.0V-14.0ZM47.0 33.0 -75.0 45.0V-32.0H23.0V13.0C39.0 16.0 45.0 23.0 47.0 33.0ZM313.0 34.0 182.0 47.0V-544.0H202.0C240.0 -544.0 286.0 -522.0 286.0 -513.0V13.0C305.0 16.0 311.0 24.0 313.0 34.0ZM185.0 198.0 52.0 211.0V-460.0H153.0V173.0C176.0 176.0 183.0 185.0 185.0 198.0ZM241.0 -440.0H-29.0V-468.0H241.0Z"/></g>
<g fill="black" opacity=".8" transform="translate(1200 400) scale(0.1 -0.1)"><path d="M0.0 0.0H-74.0V-459.0L-56.0 -423.0C-72.0 -429.0 -93.0 -447.0 -104.0 -459.0L0.0 -508.0L30.0 -471.0H24.0V-15.0ZM48.0 31.0 -74.0 43.0V-32.0H24.0V11.0C41.0 14.0 47.0 20.0 48.0 31.0ZM311.0 34.0 184.0 46.0V-542.0H201.0C239.0 -542.0 284.0 -521.0 284.0 -513.0V12.0C303.0 15.0 310.0 23.0 311.0 34.0ZM186.0 203.0 54.0 216.0V-457.0H155.0V179.0C178.0 182.0 185.0 190.0 186.0 203.0ZM240.0 -443.0H-26.0L-30.0 -469.0H240.0Z"/></g>
<g fill="red" transform="translate(1300 400) scale(0.1 -0.1)"><path d="M0.0 0.0H-34.0V-163.0L-21.0 -129.0C-37.0 -133.0 -60.0 -144.0 -70.0 -152.0L-5.0 -196.0L19.0 -167.0H10.0V-6.0ZM48.0 31.0 -34.0 41.0V-35.0H10.0V3.0C35.0 7.0 46.0 16.0 48.0 31.0ZM672.0 32.0 590.0 41.0V-210.0H599.0C616.0 -210.0 634.0 -198.0 634.0 -192.0V5.0C659.0 8.0 669.0 17.0 672.0 32.0ZM357.0 73.0 276.0 83.0V-152.0H320.0V47.0C344.0 50.0 355.0 59.0 357.0 73.0ZM620.0 -137.0H-17.0V-167.0H620.0Z"/></g>
<g fill="black" opacity=".8" transform="translate(1300 400) scale(0.1 -0.1)"><path d="M0.0 0.0H-34.0V-163.0L-20.0 -128.0C-37.0 -133.0 -60.0 -144.0 -70.0 -153.0L-6.0 -198.0L19.0 -167.0H10.0V-6.0ZM49.0 23.0 -34.0 33.0V-46.0H10.0V-5.0C35.0 -2.0 47.0 8.0 49.0 23.0ZM670.0 30.0 586.0 38.0V-208.0H595.0C612.0 -208.0 631.0 -196.0 631.0 -190.0V3.0C657.0 5.0 667.0 14.0 670.0 30.0ZM356.0 75.0 274.0 84.0V-153.0H318.0V48.0C342.0 51.0 353.0 60.0 356.0 75.0ZM622.0 -137.0H-14.0L-18.0 -168.0H622.0Z"/></g>
<g fill="red" transform="translate(1400 400) scale(0.1 -0.1)"><path d="M0.0 0.0H-107.0V-151.0L-85.0 -113.0C-104.0 -121.0 -130.0 -144.0 -145.0 -161.0L-2.0 -231.0L40.0 -170.0H35.0V-21.0ZM72.0 35.0 -107.0 52.0V-25.0H35.0V6.0C62.0 10.0 70.0 20.0 72.0 35.0ZM645.0 37.0 463.0 52.0V-217.0H487.0C545.0 -217.0 608.0 -198.0 608.0 -190.0V9.0C636.0 13.0 643.0 24.0 645.0 37.0ZM359.0 81.0 179.0 94.0V-154.0H323.0V52.0C350.0 57.0 357.0 67.0 359.0 81.0ZM541.0 -142.0H-25.0V-170.0H541.0Z"/></g>
<g fill="black" opacity=".8" transform="translate(1400 400) scale(0.1 -0.1)"><path d="M0.0 0.0H-108.0V-150.0L-86.0 -111.0C-105.0 -118.0 -131.0 -142.0 -146.0 -159.0L-1.0 -230.0L41.0 -170.0H36.0V-22.0ZM74.0 29.0 -108.0 47.0V-32.0H36.0V-0.0C63.0 4.0 72.0 14.0 74.0 29.0ZM650.0 37.0 468.0 52.0V-219.0H490.0C550.0 -219.0 614.0 -199.0 614.0 -192.0V9.0C641.0 13.0 648.0 24.0 650.0 37.0ZM358.0 79.0 175.0 93.0V-156.0H322.0V52.0C350.0 56.0 357.0 66.0 358.0 79.0ZM539.0 -142.0H-21.0L-26.0 -169.0H539.0Z"/></g>
<g fill="red" transform="translate(1500 400) scale(0.1 -0.1)"><path d="M0.0 0.0H-34.0V-112.0L-21.0 -78.0C-37.0 -82.0 -60.0 -93.0 -70.0 -101.0L-5.0 -146.0L19.0 -115.0H10.0V-6.0ZM48.0 40.0 -34.0 50.0V-26.0H10.0V12.0C34.0 16.0 46.0 25.0 48.0 40.0ZM678.0 37.0 596.0 46.0V-151.0H605.0C622.0 -151.0 640.0 -139.0 640.0 -132.0V10.0C665.0 13.0 675.0 22.0 678.0 37.0ZM353.0 68.0 272.0 78.0V-101.0H316.0V42.0C340.0 45.0 351.0 54.0 353.0 68.0ZM582.0 -454.0H15.0V-484.0H582.0Z"/></g>
<g fill="black" opacity=".8" transform="translate(1500 400) scale(0.1 -0.1)"><path d="M0.0 0.0H-33.0V-110.0L-20.0 -75.0C-37.0 -79.0 -59.0 -90.0 -70.0 -99.0L-5.0 -142.0L19.0 -112.0H10.0V-6.0ZM47.0 34.0 -33.0 44.0V-33.0H10.0V7.0C34.0 10.0 46.0 19.0 47.0 34.0ZM676.0 37.0 595.0 45.0V-152.0H603.0C620.0 -152.0 638.0 -140.0 638.0 -134.0V11.0C664.0 13.0 673.0 22.0 676.0 37.0ZM355.0 68.0 275.0 78.0V-100.0H317.0V42.0C342.0 44.0 352.0 54.0 355.0 68.0ZM584.0 -453.0H28.0L23.0 -484.0H584.0Z"/></g>
<g fill="red" transform="translate(1600 400) scale(0.1 -0.1)"><path d="M0.0 0.0H-107.0V-118.0L-85.0 -81.0C-104.0 -88.0 -130.0 -111.0 -145.0 -129.0L-1.0 -199.0L41.0 -138.0H35.0V-21.0ZM72.0 29.0 -107.0 46.0V-31.0H35.0V0.0C62.0 4.0 70.0 14.0 72.0 29.0ZM672.0 27.0 490.0 42.0V-176.0H514.0C572.0 -176.0 635.0 -159.0 635.0 -151.0V-1.0C663.0 4.0 670.0 14.0 672.0 27.0ZM369.0 59.0 189.0 72.0V-124.0H333.0V30.0C360.0 35.0 367.0 45.0 369.0 59.0ZM497.0 -480.0H31.0V-508.0H497.0Z"/></g>
<g fill="black" opacity=".8" transform="translate(1600 400) scale(0.1 -0.1)"><path d="M0.0 0.0H-107.0V-119.0L-86.0 -81.0C-104.0 -87.0 -129.0 -112.0 -144.0 -128.0L0.0 -197.0L40.0 -139.0H36.0V-21.0ZM72.0 27.0 -107.0 45.0V-31.0H36.0V-2.0C62.0 3.0 71.0 12.0 72.0 27.0ZM674.0 30.0 492.0 45.0V-178.0H515.0C574.0 -178.0 638.0 -160.0 638.0 -154.0V2.0C665.0 7.0 672.0 17.0 674.0 30.0ZM367.0 58.0 188.0 71.0V-126.0H331.0V30.0C359.0 35.0 366.0 45.0 367.0 58.0ZM497.0 -482.0H25.0L19.0 -508.0H497.0Z"/></g>
<g fill="red" transform="translate(100 500) scale(0.1 -0.1)"><path d="M0.0 0.0H-34.0V-140.0L-21.0 -105.0C-37.0 -109.0 -60.0 -120.0 -70.0 -129.0L-5.0 -173.0L19.0 -143.0H10.0V-6.0ZM48.0 16.0 -34.0 26.0V-50.0H10.0V-12.0C34.0 -8.0 46.0 1.0 48.0 16.0ZM708.0 17.0 626.0 26.0V-198.0H635.0C652.0 -198.0 670.0 -187.0 670.0 -180.0V-10.0C695.0 -7.0 705.0 2.0 708.0 17.0ZM376.0 48.0 295.0 58.0V-131.0H339.0V22.0C363.0 25.0 374.0 34.0 376.0 48.0ZM604.0 -498.0H28.0V-528.0H604.0Z"/></g>
<g fill="black" opacity=".8" transform="translate(100 500) scale(0.1 -0.1)"><path d="M0.0 0.0H-32.0V-140.0L-20.0 -106.0C-36.0 -110.0 -59.0 -121.0 -69.0 -129.0L-5.0 -173.0L19.0 -142.0H10.0V-6.0ZM46.0 22.0 -32.0 31.0V-44.0H10.0V-5.0C33.0 -2.0 45.0 7.0 46.0 22.0ZM711.0 17.0 632.0 25.0V-193.0H640.0C656.0 -193.0 674.0 -181.0 674.0 -175.0V-9.0C699.0 -7.0 708.0 2.0 711.0 17.0ZM374.0 46.0 295.0 55.0V-133.0H336.0V20.0C360.0 22.0 371.0 31.0 374.0 46.0ZM602.0 -500.0H41.0L36.0 -531.0H602.0Z"/></g>
<g fill="red" transform="translate(200 500) scale(0.1 -0.1)"><path d="M0.0 0.0H-106.0V-119.0L-83.0 -80.0C-101.0 -88.0 -126.0 -111.0 -139.0 -128.0L2.0 -194.0L41.0 -138.0H36.0V-21.0ZM73.0 24.0 -106.0 41.0V-36.0H36.0V-5.0C63.0 -1.0 71.0 9.0 73.0 24.0ZM700.0 26.0 518.0 41.0V-182.0H542.0C600.0 -182.0 663.0 -164.0 663.0 -157.0V-2.0C691.0 3.0 698.0 13.0 700.0 26.0ZM381.0 62.0 201.0 75.0V-126.0H345.0V33.0C372.0 38.0 379.0 48.0 381.0 62.0ZM522.0 -501.0H42.0V-529.0H522.0Z"/></g>
<g fill="black" opacity=".8" transform="translate(200 500) scale(0.1 -0.1)"><path d="M0.0 0.0H-108.0V-118.0L-86.0 -80.0C-105.0 -87.0 -129.0 -111.0 -144.0 -127.0L0.0 -199.0L42.0 -137.0H37.0V-22.0ZM74.0 28.0 -108.0 46.0V-28.0H37.0V-1.0C64.0 4.0 73.0 13.0 74.0 28.0ZM697.0 25.0 515.0 40.0V-186.0H538.0C597.0 -186.0 660.0 -168.0 660.0 -162.0V-3.0C688.0 1.0 695.0 12.0 697.0 25.0ZM379.0 63.0 200.0 77.0V-125.0H344.0V36.0C371.0 40.0 379.0 50.0 379.0 63.0ZM527.0 -500.0H33.0L28.0 -526.0H527.0Z"/></g>
<g fill="red" transform="translate(300 500) scale(0.1 -0.1)"><path d="M0.0 0.0H-34.0V-112.0L-21.0 -78.0C-37.0 -82.0 -60.0 -93.0 -70.0 -101.0L-5.0 -146.0L19.0 -115.0H10.0V-6.0ZM48.0 32.0 -34.0 42.0V-34.0H10.0V4.0C34.0 8.0 46.0 17.0 48.0 32.0ZM694.0 33.0 612.0 42.0V-150.0H621.0C638.0 -150.0 656.0 -139.0 656.0 -132.0V6.0C681.0 9.0 691.0 18.0 694.0 33.0ZM366.0 67.0 285.0 77.0V-102.0H329.0V41.0C353.0 44.0 364.0 53.0 366.0 67.0ZM706.0 -249.0H-40.0V-279.0H706.0Z"/></g>
<g fill="black" opacity=".8" transform="translate(300 500) scale(0.1 -0.1)"><path d="M0.0 0.0H-33.0V-113.0L-21.0 -78.0C-38.0 -82.0 -61.0 -93.0 -71.0 -102.0L-6.0 -147.0L19.0 -116.0H10.0V-6.0ZM48.0 26.0 -33.0 35.0V-42.0H10.0V-2.0C34.0 1.0 46.0 10.0 48.0 26.0ZM693.0 33.0 611.0 41.0V-154.0H620.0C637.0 -154.0 654.0 -141.0 654.0 -136.0V7.0C680.0 8.0 690.0 18.0 693.0 33.0ZM363.0 72.0 283.0 81.0V-103.0H326.0V46.0C350.0 48.0 360.0 57.0 363.0 72.0ZM699.0 -245.0H-59.0L-60.0 -276.0H699.0Z"/></g>
<g fill="red" transform="translate(400 500) scale(0.1 -0.1)"><path d="M0.0 0.0H-107.0V-104.0L-85.0 -67.0C-104.0 -74.0 -130.0 -97.0 -145.0 -115.0L-2.0 -185.0L40.0 -124.0H35.0V-21.0ZM72.0 34.0 -107.0 51.0V-26.0H35.0V5.0C62.0 9.0 70.0 19.0 72.0 34.0ZM681.0 34.0 499.0 49.0V-164.0H523.0C581.0 -164.0 644.0 -147.0 644.0 -140.0V6.0C672.0 11.0 679.0 21.0 681.0 34.0ZM365.0 78.0 185.0 91.0V-110.0H329.0V49.0C356.0 54.0 363.0 64.0 365.0 78.0ZM596.0 -253.0H-80.0V-281.0H596.0Z"/></g>
<g fill="black" opacity=".8" transform="translate(400 500) scale(0.1 -0.1)"><path d="M0.0 0.0H-108.0V-103.0L-86.0 -64.0C-105.0 -71.0 -130.0 -95.0 -145.0 -112.0L-1.0 -182.0L40.0 -123.0H37.0V-22.0ZM73.0 28.0 -108.0 46.0V-31.0H37.0V-2.0C63.0 3.0 72.0 12.0 73.0 28.0ZM682.0 36.0 500.0 51.0V-163.0H523.0C582.0 -163.0 646.0 -145.0 646.0 -138.0V8.0C673.0 12.0 680.0 23.0 682.0 36.0ZM371.0 73.0 190.0 86.0V-109.0H336.0V45.0C363.0 50.0 370.0 60.0 371.0 73.0ZM601.0 -257.0H-57.0L-59.0 -284.0H601.0Z"/></g>
<g fill="red" transform="translate(500 500) scale(0.1 -0.1)"><path d="M0.0 0.0H-34.0V-191.0L-21.0 -157.0C-37.0 -161.0 -60.0 -171.0 -70.0 -179.0L-5.0 -225.0L19.0 -194.0H10.0V-6.0ZM48.0 13.0 -34.0 23.0V-53.0H10.0V-15.0C34.0 -11.0 46.0 -2.0 48.0 13.0ZM685.0 17.0 603.0 26.0V-257.0H612.0C629.0 -257.0 647.0 -246.0 647.0 -239.0V-10.0C672.0 -7.0 682.0 2.0 685.0 17.0ZM363.0 70.0 286.0 79.0V-184.0H330.0V45.0C352.0 48.0 361.0 57.0 363.0 70.0ZM628.0 -166.0H-19.0V-196.0H628.0Z"/></g>
<g fill="black" opacity=".8" transform="translate(500 500) scale(0.1 -0.1)"><path d="M0.0 0.0H-34.0V-193.0L-21.0 -157.0C-38.0 -162.0 -61.0 -172.0 -72.0 -181.0L-6.0 -227.0L19.0 -195.0H10.0V-6.0ZM49.0 24.0 -34.0 34.0V-45.0H10.0V-5.0C35.0 -2.0 47.0 7.0 49.0 24.0ZM687.0 18.0 604.0 26.0V-252.0H613.0C630.0 -252.0 648.0 -240.0 648.0 -234.0V-10.0C674.0 -8.0 684.0 1.0 687.0 18.0ZM365.0 61.0 286.0 70.0V-187.0H329.0V35.0C353.0 36.0 363.0 46.0 365.0 61.0ZM632.0 -162.0H-24.0L-21.0 -193.0H632.0Z"/></g>
<g fill="red" transform="translate(600 500) scale(0.1 -0.1)"><path d="M0.0 0.0H-104.0V-142.0L-82.0 -104.0C-101.0 -111.0 -128.0 -134.0 -142.0 -152.0L-1.0 -220.0L40.0 -160.0H35.0V-21.0ZM71.0 37.0 -104.0 54.0V-23.0H35.0V9.0C61.0 13.0 69.0 23.0 71.0 37.0ZM685.0 40.0 514.0 54.0V-233.0H538.0C591.0 -233.0 652.0 -213.0 652.0 -205.0V15.0C676.0 19.0 683.0 28.0 685.0 40.0ZM380.0 82.0 203.0 95.0V-148.0H343.0V53.0C371.0 58.0 378.0 68.0 380.0 82.0ZM605.0 -135.0H-52.0V-163.0H605.0Z"/></g>
<g fill="black" opacity=".8" transform="translate(600 500) scale(0.1 -0.1)"><path d="M0.0 0.0H-103.0V-145.0L-81.0 -107.0C-100.0 -114.0 -126.0 -137.0 -141.0 -154.0L-2.0 -224.0L40.0 -164.0H35.0V-21.0ZM70.0 36.0 -103.0 53.0V-26.0H35.0V8.0C60.0 12.0 68.0 22.0 70.0 36.0ZM686.0 32.0 512.0 46.0V-229.0H535.0C591.0 -229.0 652.0 -210.0 652.0 -203.0V6.0C677.0 9.0 684.0 19.0 686.0 32.0ZM378.0 93.0 203.0 106.0V-149.0H341.0V64.0C369.0 69.0 377.0 79.0 378.0 93.0ZM601.0 -138.0H-49.0L-47.0 -166.0H601.0Z"/></g>
<g fill="red" transform="translate(700 500) scale(0.1 -0.1)"><path d="M0.0 0.0H-34.0V-102.0L-21.0 -68.0C-37.0 -73.0 -60.0 -84.0 -70.0 -92.0L-5.0 -136.0L19.0 -106.0H10.0V-6.0ZM48.0 46.0 -34.0 56.0V-20.0H10.0V18.0C34.0 22.0 46.0 31.0 48.0 46.0ZM622.0 50.0 541.0 59.0V-156.0H550.0C566.0 -156.0 584.0 -145.0 584.0 -138.0V23.0C610.0 26.0 620.0 35.0 622.0 50.0ZM330.0 73.0 249.0 83.0V-96.0H292.0V47.0C317.0 50.0 328.0 59.0 330.0 73.0ZM203.0 -741.0H-87.0V-771.0H203.0Z"/></g>
<g fill="black" opacity=".8" transform="translate(700 500) scale(0.1 -0.1)"><path d="M0.0 0.0H-35.0V-104.0L-21.0 -69.0C-37.0 -74.0 -60.0 -85.0 -70.0 -94.0L-5.0 -136.0L19.0 -108.0H11.0V-6.0ZM49.0 48.0 -35.0 58.0V-21.0H10.0V20.0C35.0 23.0 48.0 32.0 49.0 48.0ZM624.0 47.0 540.0 56.0V-158.0H548.0C566.0 -158.0 584.0 -146.0 584.0 -139.0V20.0C611.0 22.0 621.0 32.0 624.0 47.0ZM332.0 76.0 248.0 86.0V-96.0H292.0V49.0C318.0 51.0 328.0 60.0 332.0 76.0ZM202.0 -737.0H-86.0L-89.0 -769.0H202.0Z"/></g>
<g fill="red" transform="translate(800 500) scale(0.1 -0.1)"><path d="M0.0 0.0H-104.0V-128.0L-82.0 -90.0C-101.0 -97.0 -128.0 -120.0 -142.0 -138.0L-1.0 -206.0L40.0 -147.0H35.0V-21.0ZM72.0 30.0 -104.0 47.0V-30.0H35.0V1.0C61.0 5.0 70.0 15.0 72.0 30.0ZM650.0 26.0 471.0 41.0V-200.0H495.0C551.0 -200.0 613.0 -182.0 613.0 -175.0V-2.0C641.0 3.0 648.0 13.0 650.0 26.0ZM358.0 64.0 181.0 77.0V-138.0H321.0V35.0C349.0 40.0 356.0 50.0 358.0 64.0ZM147.0 -771.0H-113.0V-799.0H147.0Z"/></g>
<g fill="black" opacity=".8" transform="translate(800 500) scale(0.1 -0.1)"><path d="M0.0 0.0H-106.0V-130.0L-83.0 -91.0C-102.0 -98.0 -128.0 -122.0 -142.0 -138.0L0.0 -202.0L40.0 -150.0H36.0V-21.0ZM69.0 31.0 -106.0 48.0V-31.0H36.0V3.0C60.0 8.0 68.0 17.0 69.0 31.0ZM651.0 24.0 469.0 39.0V-194.0H492.0C551.0 -194.0 615.0 -177.0 615.0 -171.0V-4.0C642.0 1.0 649.0 11.0 651.0 24.0ZM357.0 61.0 179.0 75.0V-137.0H321.0V33.0C348.0 38.0 355.0 48.0 357.0 61.0ZM149.0 -774.0H-110.0L-113.0 -802.0H149.0Z"/></g>
<g fill="red" transform="translate(900 500) scale(0.1 -0.1)"><path d="M0.0 0.0H-33.0V-112.0L-20.0 -78.0C-36.0 -82.0 -59.0 -93.0 -69.0 -100.0L-5.0 -145.0L19.0 -115.0H9.0V-6.0ZM47.0 32.0 -33.0 42.0V-34.0H9.0V5.0C34.0 8.0 45.0 18.0 47.0 32.0ZM723.0 36.0 641.0 45.0V-142.0H650.0C667.0 -142.0 685.0 -131.0 685.0 -124.0V9.0C710.0 12.0 721.0 21.0 723.0 36.0ZM382.0 67.0 301.0 77.0V-98.0H345.0V41.0C369.0 44.0 380.0 53.0 382.0 67.0ZM704.0 -303.0H397.0L384.0 -333.0H704.0Z"/></g>
<g fill="black" opacity=".8" transform="translate(900 500) scale(0.1 -0.1)"><path d="M0.0 0.0H-32.0V-113.0L-19.0 -79.0C-35.0 -83.0 -58.0 -94.0 -68.0 -102.0L-6.0 -145.0L19.0 -115.0H9.0V-6.0ZM46.0 32.0 -32.0 41.0V-35.0H9.0V5.0C34.0 8.0 45.0 17.0 46.0 32.0ZM722.0 37.0 642.0 44.0V-146.0H650.0C667.0 -146.0 685.0 -135.0 685.0 -128.0V10.0C710.0 12.0 720.0 21.0 722.0 37.0ZM381.0 70.0 301.0 79.0V-100.0H343.0V44.0C368.0 46.0 378.0 55.0 381.0 70.0ZM701.0 -298.0H387.0L368.0 -328.0H701.0Z"/></g>
<g fill="red" transform="translate(1000 500) scale(0.1 -0.1)"><path d="M0.0 0.0H-107.0V-104.0L-85.0 -67.0C-104.0 -74.0 -130.0 -97.0 -145.0 -115.0L-2.0 -185.0L40.0 -124.0H35.0V-21.0ZM72.0 34.0 -107.0 51.0V-26.0H35.0V5.0C62.0 9.0 70.0 19.0 72.0 34.0ZM699.0 44.0 519.0 59.0V-159.0H543.0C600.0 -159.0 663.0 -142.0 663.0 -135.0V16.0C690.0 21.0 697.0 31.0 699.0 44.0ZM379.0 79.0 200.0 92.0V-109.0H342.0V50.0C370.0 55.0 377.0 65.0 379.0 79.0ZM657.0 -302.0H350.0L338.0 -330.0H657.0Z"/></g>
<g fill="black" opacity=".8" transform="translate(1000 500) scale(0.1 -0.1)"><path d="M0.0 0.0H-109.0V-103.0L-87.0 -65.0C-106.0 -71.0 -130.0 -96.0 -146.0 -113.0L-0.0 -184.0L41.0 -123.0H37.0V-21.0ZM72.0 32.0 -109.0 49.0V-26.0H37.0V3.0C63.0 8.0 72.0 17.0 72.0 32.0ZM700.0 44.0 519.0 58.0V-155.0H541.0C601.0 -155.0 664.0 -138.0 664.0 -131.0V16.0C691.0 20.0 697.0 30.0 700.0 44.0ZM380.0 76.0 201.0 89.0V-108.0H344.0V49.0C372.0 53.0 379.0 63.0 380.0 76.0ZM660.0 -307.0H369.0L349.0 -333.0H660.0Z"/></g>
<g fill="red" transform="translate(1100 500) scale(0.1 -0.1)"><path d="M0.0 0.0H-34.0V-116.0L-21.0 -83.0C-37.0 -87.0 -60.0 -98.0 -70.0 -105.0L-5.0 -150.0L19.0 -120.0H10.0V-6.0ZM48.0 32.0 -34.0 42.0V-34.0H10.0V4.0C34.0 8.0 46.0 17.0 48.0 32.0ZM703.0 33.0 621.0 42.0V-159.0H630.0C647.0 -159.0 665.0 -148.0 665.0 -141.0V6.0C690.0 9.0 700.0 18.0 703.0 33.0ZM366.0 65.0 285.0 75.0V-114.0H329.0V39.0C353.0 42.0 364.0 51.0 366.0 65.0ZM133.0 -630.0H-53.0V-660.0H133.0Z"/></g>
<g fill="black" opacity=".8" transform="translate(1100 500) scale(0.1 -0.1)"><path d="M0.0 0.0H-31.0V-115.0L-19.0 -84.0C-34.0 -88.0 -55.0 -99.0 -65.0 -106.0L-5.0 -147.0L18.0 -119.0H10.0V-6.0ZM45.0 21.0 -31.0 30.0V-44.0H9.0V-5.0C33.0 -2.0 43.0 6.0 45.0 21.0ZM697.0 33.0 619.0 41.0V-155.0H626.0C643.0 -155.0 660.0 -144.0 660.0 -138.0V7.0C685.0 9.0 694.0 18.0 697.0 33.0ZM367.0 60.0 288.0 69.0V-110.0H329.0V34.0C353.0 36.0 364.0 45.0 367.0 60.0ZM138.0 -629.0H-51.0L-57.0 -658.0H138.0Z"/></g>
<g fill="red" transform="translate(1200 500) scale(0.1 -0.1)"><path d="M0.0 0.0H-106.0V-95.0L-84.0 -58.0C-103.0 -65.0 -129.0 -88.0 -144.0 -106.0L-1.0 -175.0L41.0 -114.0H36.0V-21.0ZM73.0 33.0 -106.0 50.0V-27.0H36.0V4.0C63.0 8.0 71.0 18.0 73.0 33.0ZM679.0 36.0 497.0 50.0V-140.0H521.0C579.0 -140.0 642.0 -124.0 642.0 -117.0V8.0C670.0 12.0 677.0 22.0 679.0 36.0ZM368.0 79.0 188.0 92.0V-104.0H332.0V50.0C359.0 55.0 366.0 65.0 368.0 79.0ZM103.0 -611.0H-95.0V-639.0H103.0Z"/></g>
<g fill="black" opacity=".8" transform="translate(1200 500) scale(0.1 -0.1)"><path d="M0.0 0.0H-108.0V-96.0L-86.0 -58.0C-104.0 -65.0 -128.0 -89.0 -142.0 -105.0L1.0 -173.0L41.0 -115.0H37.0V-22.0ZM74.0 31.0 -108.0 49.0V-25.0H37.0V2.0C65.0 6.0 73.0 16.0 74.0 31.0ZM683.0 39.0 501.0 53.0V-146.0H522.0C583.0 -146.0 646.0 -130.0 646.0 -123.0V10.0C675.0 14.0 681.0 25.0 683.0 39.0ZM370.0 83.0 190.0 97.0V-103.0H336.0V57.0C363.0 61.0 369.0 71.0 370.0 83.0ZM97.0 -613.0H-88.0L-94.0 -639.0H97.0Z"/></g>
<g fill="red" transform="translate(1300 500) scale(0.1 -0.1)"><path d="M0.0 0.0H-34.0V-126.0L-21.0 -92.0C-37.0 -96.0 -60.0 -106.0 -70.0 -115.0L-5.0 -160.0L19.0 -129.0H10.0V-6.0ZM48.0 32.0 -34.0 42.0V-34.0H10.0V4.0C34.0 8.0 46.0 17.0 48.0 32.0ZM723.0 33.0 641.0 42.0V-168.0H650.0C667.0 -168.0 685.0 -157.0 685.0 -150.0V6.0C710.0 9.0 720.0 18.0 723.0 33.0ZM377.0 65.0 296.0 75.0V-114.0H340.0V39.0C364.0 42.0 375.0 51.0 377.0 65.0ZM663.0 -99.0H-8.0V-129.0H663.0Z"/></g>
<g fill="black" opacity=".8" transform="translate(1300 500) scale(0.1 -0.1)"><path d="M0.0 0.0H-32.0V-126.0L-20.0 -92.0C-37.0 -96.0 -59.0 -107.0 -70.0 -115.0L-6.0 -160.0L19.0 -128.0H10.0V-6.0ZM47.0 26.0 -32.0 36.0V-40.0H9.0V-1.0C34.0 2.0 45.0 11.0 47.0 26.0ZM722.0 33.0 642.0 41.0V-162.0H650.0C667.0 -162.0 685.0 -150.0 685.0 -144.0V7.0C710.0 8.0 719.0 17.0 722.0 33.0ZM380.0 67.0 302.0 76.0V-116.0H344.0V41.0C368.0 43.0 378.0 52.0 380.0 67.0ZM657.0 -100.0H2.0V-130.0H657.0Z"/></g>
<g fill="red" transform="translate(1400 500) scale(0.1 -0.1)"><path d="M0.0 0.0H-107.0V-114.0L-85.0 -76.0C-104.0 -83.0 -130.0 -107.0 -145.0 -124.0L-2.0 -194.0L40.0 -133.0H35.0V-21.0ZM72.0 30.0 -107.0 47.0V-30.0H35.0V1.0C62.0 5.0 70.0 15.0 72.0 30.0ZM713.0 32.0 531.0 47.0V-162.0H555.0C613.0 -162.0 676.0 -145.0 676.0 -138.0V4.0C704.0 9.0 711.0 19.0 713.0 32.0ZM383.0 70.0 203.0 83.0V-123.0H347.0V41.0C374.0 46.0 381.0 56.0 383.0 70.0ZM577.0 -105.0H-3.0V-133.0H577.0Z"/></g>
<g fill="black" opacity=".8" transform="translate(1400 500) scale(0.1 -0.1)"><path d="M0.0 0.0H-108.0V-111.0L-86.0 -73.0C-105.0 -80.0 -130.0 -104.0 -145.0 -121.0L-1.0 -193.0L40.0 -131.0H36.0V-22.0ZM73.0 31.0 -108.0 48.0V-28.0H36.0V1.0C63.0 6.0 71.0 15.0 73.0 31.0ZM710.0 39.0 528.0 54.0V-173.0H551.0C611.0 -173.0 674.0 -155.0 674.0 -148.0V12.0C700.0 16.0 707.0 27.0 710.0 39.0ZM386.0 68.0 205.0 81.0V-117.0H350.0V40.0C378.0 44.0 385.0 54.0 386.0 68.0ZM586.0 -106.0H-13.0L-15.0 -132.0H586.0Z"/></g>
<g fill="red" transform="translate(1500 500) scale(0.1 -0.1)"><path d="M0.0 0.0H-34.0V-459.0L-18.0 -430.0C-32.0 -434.0 -52.0 -445.0 -61.0 -454.0L-4.0 -491.0L17.0 -467.0H10.0V-6.0ZM48.0 43.0 -34.0 53.0V-23.0H10.0V15.0C35.0 19.0 46.0 28.0 48.0 43.0ZM275.0 46.0 194.0 56.0V-516.0H203.0C220.0 -516.0 238.0 -506.0 238.0 -498.0V20.0C263.0 23.0 272.0 32.0 275.0 46.0ZM155.0 209.0 79.0 218.0V-452.0H123.0V184.0C145.0 186.0 153.0 195.0 155.0 209.0ZM226.0 -438.0H-16.0V-468.0H226.0Z"/></g>
<g fill="black" opacity=".8" transform="translate(1500 500) scale(0.1 -0.1)"><path d="M0.0 0.0H-32.0V-456.0L-16.0 -428.0C-31.0 -432.0 -50.0 -443.0 -58.0 -452.0L-4.0 -487.0L16.0 -463.0H10.0V-6.0ZM46.0 41.0 -32.0 50.0V-23.0H9.0V14.0C34.0 18.0 45.0 27.0 46.0 41.0ZM274.0 49.0 197.0 58.0V-521.0H204.0C221.0 -521.0 238.0 -510.0 238.0 -502.0V24.0C263.0 26.0 271.0 35.0 274.0 49.0ZM155.0 208.0 81.0 216.0V-452.0H123.0V184.0C144.0 184.0 152.0 193.0 155.0 208.0ZM227.0 -436.0H-14.0L-16.0 -466.0H227.0Z"/></g>
<g fill="red" transform="translate(1600 500) scale(0.1 -0.1)"><path d="M0.0 0.0H-72.0V-479.0L-53.0 -443.0C-69.0 -449.0 -92.0 -467.0 -103.0 -480.0L-1.0 -527.0L29.0 -491.0H23.0V-14.0ZM46.0 33.0 -72.0 45.0V-32.0H23.0V13.0C39.0 16.0 45.0 23.0 46.0 33.0ZM301.0 35.0 175.0 47.0V-553.0H194.0C230.0 -553.0 274.0 -532.0 274.0 -523.0V13.0C293.0 16.0 299.0 24.0 301.0 35.0ZM179.0 198.0 50.0 211.0V-479.0H147.0V173.0C169.0 176.0 177.0 185.0 179.0 198.0ZM230.0 -463.0H-26.0V-491.0H230.0Z"/></g>
<g fill="black" opacity=".8" transform="translate(1600 500) scale(0.1 -0.1)"><path d="M0.0 0.0H-72.0V-478.0L-54.0 -443.0C-70.0 -449.0 -90.0 -467.0 -102.0 -478.0L0.0 -525.0L29.0 -491.0H23.0V-14.0ZM45.0 30.0 -72.0 41.0V-32.0H23.0V11.0C38.0 14.0 44.0 20.0 45.0 30.0ZM300.0 37.0 176.0 49.0V-555.0H193.0C230.0 -555.0 274.0 -533.0 274.0 -525.0V16.0C292.0 19.0 298.0 27.0 300.0 37.0ZM179.0 199.0 50.0 211.0V-477.0H148.0V175.0C171.0 178.0 177.0 187.0 179.0 199.0ZM229.0 -467.0H-25.0L-27.0 -492.0H229.0Z"/></g>
<g fill="red" transform="translate(100 600) scale(0.1 -0.1)"><path d="M0.0 0.0H-34.0V-112.0L-21.0 -78.0C-37.0 -82.0 -60.0 -93.0 -70.0 -101.0L-5.0 -146.0L19.0 -115.0H10.0V-6.0ZM48.0 32.0 -34.0 42.0V-34.0H10.0V4.0C34.0 8.0 46.0 17.0 48.0 32.0ZM680.0 33.0 598.0 42.0V-150.0H607.0C624.0 -150.0 642.0 -139.0 642.0 -132.0V6.0C667.0 9.0 677.0 18.0 680.0 33.0ZM366.0 67.0 285.0 77.0V-102.0H329.0V41.0C353.0 44.0 364.0 53.0 366.0 67.0ZM628.0 -85.0H-19.0V-115.0H628.0Z"/></g>
<g fill="black" opacity=".8" transform="translate(100 600) scale(0.1 -0.1)"><path d="M0.0 0.0H-34.0V-111.0L-21.0 -76.0C-37.0 -80.0 -60.0 -91.0 -71.0 -100.0L-6.0 -144.0L19.0 -114.0H10.0V-6.0ZM49.0 31.0 -34.0 40.0V-38.0H10.0V2.0C35.0 6.0 47.0 15.0 49.0 31.0ZM685.0 35.0 602.0 43.0V-153.0H610.0C627.0 -153.0 646.0 -141.0 646.0 -135.0V8.0C672.0 10.0 682.0 19.0 685.0 35.0ZM363.0 73.0 282.0 82.0V-100.0H326.0V47.0C351.0 49.0 361.0 58.0 363.0 73.0ZM618.0 -86.0H-12.0L-14.0 -117.0H618.0Z"/></g>
<g fill="red" transform="translate(200 600) scale(0.1 -0.1)"><path d="M0.0 0.0H-107.0V-104.0L-85.0 -67.0C-104.0 -74.0 -130.0 -97.0 -145.0 -115.0L-2.0 -185.0L40.0 -124.0H35.0V-21.0ZM72.0 34.0 -107.0 51.0V-26.0H35.0V5.0C62.0 9.0 70.0 19.0 72.0 34.0ZM678.0 34.0 496.0 49.0V-164.0H520.0C578.0 -164.0 641.0 -147.0 641.0 -140.0V6.0C669.0 11.0 676.0 21.0 678.0 34.0ZM379.0 78.0 199.0 91.0V-110.0H343.0V49.0C370.0 54.0 377.0 64.0 379.0 78.0ZM534.0 -96.0H-22.0V-124.0H534.0Z"/></g>
<g fill="black" opacity=".8" transform="translate(200 600) scale(0.1 -0.1)"><path d="M0.0 0.0H-107.0V-102.0L-86.0 -63.0C-105.0 -70.0 -130.0 -95.0 -146.0 -112.0L-1.0 -180.0L40.0 -122.0H36.0V-22.0ZM72.0 31.0 -107.0 48.0V-29.0H36.0V2.0C62.0 7.0 70.0 16.0 72.0 31.0ZM677.0 36.0 496.0 51.0V-169.0H519.0C578.0 -169.0 642.0 -151.0 642.0 -144.0V9.0C668.0 13.0 675.0 24.0 677.0 36.0ZM371.0 71.0 191.0 84.0V-107.0H336.0V43.0C363.0 48.0 371.0 58.0 371.0 71.0ZM547.0 -96.0H-27.0L-30.0 -123.0H547.0Z"/></g>
<g fill="red" transform="translate(300 600) scale(0.1 -0.1)"><path d="M0 0.0H-34.0V-459.0L-18.0 -430.0C-32.0 -434.0 -52.0 -445.0 -61.0 -454.0L-4.0 -491.0L17.0 -467.0H10.0V-6.0ZM48.0 43.0 -34.0 53.0V-23.0H10.0V15.0C35.0 19.0 46.0 28.0 48.0 43.0ZM275.0 46.0 194.0 56.0V-535.0H203.0C220.0 -535.0 238.0 -523.0 238.0 -515.0V20.0C263.0 23.0 272.0 32.0 275.0 46.0ZM155.0 209.0 79.0 218.0V-452.0H123.0V184.0C145.0 186.0 153.0 195.0 155.0 209.0ZM226.0 -438.0H-16.0V-468.0H226.0Z"/></g>
<g fill="black" opacity=".8" transform="translate(300 600) scale(0.1 -0.1)"><path d="M0.0 0.0H-32.0V-462.0L-16.0 -434.0C-30.0 -438.0 -49.0 -449.0 -58.0 -458.0L-4.0 -492.0L16.0 -469.0H10.0V-6.0ZM46.0 41.0 -32.0 51.0V-23.0H9.0V15.0C34.0 18.0 45.0 27.0 46.0 41.0ZM271.0 46.0 194.0 54.0V-531.0H202.0C218.0 -531.0 235.0 -520.0 235.0 -512.0V20.0C260.0 22.0 268.0 31.0 271.0 46.0ZM154.0 211.0 81.0 218.0V-457.0H122.0V186.0C144.0 187.0 151.0 196.0 154.0 211.0ZM232.0 -440.0H-15.0L-17.0 -469.0H232.0Z"/></g>
<g fill="red" transform="translate(400 600) scale(0.1 -0.1)"><path d="M0 0.0H-71.0V-493.0L-52.0 -458.0C-68.0 -464.0 -91.0 -481.0 -102.0 -494.0L-2.0 -540.0L28.0 -505.0H22.0V-14.0ZM45.0 31.0 -71.0 43.0V-34.0H22.0V11.0C38.0 14.0 44.0 21.0 45.0 31.0ZM290.0 33.0 172.0 45.0V-569.0H190.0C222.0 -569.0 262.0 -549.0 262.0 -540.0V11.0C282.0 15.0 288.0 22.0 290.0 33.0ZM176.0 197.0 51.0 209.0V-495.0H144.0V171.0C167.0 175.0 174.0 184.0 176.0 197.0ZM231.0 -477.0H-25.0V-505.0H231.0Z"/></g>
<g fill="black" opacity=".8" transform="translate(400 600) scale(0.1 -0.1)"><path d="M0.0 0.0H-73.0V-491.0L-55.0 -456.0C-70.0 -461.0 -91.0 -479.0 -102.0 -491.0L0.0 -539.0L29.0 -503.0H24.0V-14.0ZM46.0 29.0 -73.0 40.0V-33.0H24.0V9.0C39.0 13.0 44.0 18.0 46.0 29.0ZM294.0 32.0 169.0 44.0V-572.0H186.0C224.0 -572.0 268.0 -550.0 268.0 -542.0V10.0C286.0 14.0 293.0 22.0 294.0 32.0ZM177.0 196.0 48.0 208.0V-489.0H146.0V171.0C169.0 174.0 176.0 183.0 177.0 196.0ZM224.0 -477.0H-22.0L-24.0 -502.0H224.0Z"/></g>
<g fill="red" transform="translate(500 600) scale(0.1 -0.1)"><path d="M0.0 0.0H-34.0V-241.0L-18.0 -212.0C-32.0 -217.0 -52.0 -229.0 -61.0 -236.0L-4.0 -279.0L17.0 -249.0H10.0V-6.0ZM47.0 21.0 -34.0 31.0V-45.0H10.0V-6.0C34.0 -3.0 45.0 7.0 47.0 21.0ZM511.0 14.0 430.0 24.0V-299.0H439.0C456.0 -299.0 474.0 -288.0 474.0 -281.0V-12.0C499.0 -9.0 509.0 0.0 511.0 14.0ZM279.0 60.0 198.0 70.0V-230.0H242.0V34.0C266.0 37.0 277.0 46.0 279.0 60.0ZM457.0 -219.0H-6.0V-249.0H457.0Z"/></g>
<g fill="black" opacity=".8" transform="translate(500 600) scale(0.1 -0.1)"><path d="M0.0 0.0H-32.0V-239.0L-18.0 -208.0C-33.0 -212.0 -54.0 -223.0 -63.0 -231.0L-5.0 -271.0L17.0 -243.0H10.0V-6.0ZM46.0 25.0 -32.0 34.0V-40.0H9.0V-2.0C33.0 1.0 44.0 10.0 46.0 25.0ZM512.0 16.0 434.0 23.0V-304.0H442.0C458.0 -304.0 476.0 -293.0 476.0 -287.0V-10.0C500.0 -8.0 509.0 1.0 512.0 16.0ZM280.0 57.0 203.0 65.0V-233.0H244.0V32.0C267.0 33.0 277.0 42.0 280.0 57.0ZM468.0 -216.0H13.0L7.0 -246.0H468.0Z"/></g>
<g fill="red" transform="translate(600 600) scale(0.1 -0.1)"><path d="M0.0 0.0H-96.0V-230.0L-74.0 -193.0C-91.0 -200.0 -115.0 -221.0 -128.0 -237.0L1.0 -311.0L39.0 -247.0H31.0V-19.0ZM67.0 15.0 -96.0 31.0V-46.0H31.0V-12.0C56.0 -9.0 64.0 1.0 67.0 15.0ZM502.0 16.0 344.0 30.0V-317.0H365.0C413.0 -317.0 468.0 -297.0 468.0 -289.0V-10.0C493.0 -6.0 500.0 4.0 502.0 16.0ZM288.0 62.0 126.0 75.0V-234.0H252.0V33.0C279.0 38.0 287.0 48.0 288.0 62.0ZM418.0 -219.0H19.0V-247.0H418.0Z"/></g>
<g fill="black" opacity=".8" transform="translate(600 600) scale(0.1 -0.1)"><path d="M0.0 0.0H-93.0V-232.0L-73.0 -196.0C-91.0 -202.0 -113.0 -223.0 -126.0 -238.0L-0.0 -300.0L36.0 -249.0H31.0V-19.0ZM63.0 27.0 -93.0 42.0V-32.0H31.0V1.0C54.0 5.0 62.0 13.0 63.0 27.0ZM500.0 20.0 342.0 33.0V-316.0H362.0C412.0 -316.0 467.0 -297.0 467.0 -290.0V-5.0C491.0 -2.0 498.0 8.0 500.0 20.0ZM284.0 64.0 125.0 76.0V-236.0H252.0V38.0C276.0 42.0 283.0 51.0 284.0 64.0ZM408.0 -224.0H7.0L1.0 -249.0H408.0Z"/></g>
<g fill="red" transform="translate(700 600) scale(0.1 -0.1)"><path d="M0.0 0.0H-34.0V-570.0L-18.0 -541.0C-32.0 -545.0 -52.0 -557.0 -61.0 -566.0L-4.0 -608.0L17.0 -578.0H10.0V-6.0ZM47.0 21.0 -34.0 31.0V-45.0H10.0V-6.0C34.0 -2.0 45.0 7.0 47.0 21.0ZM532.0 19.0 451.0 29.0V-634.0H460.0C477.0 -634.0 495.0 -623.0 495.0 -615.0V-7.0C520.0 -4.0 529.0 5.0 532.0 19.0ZM287.0 258.0 207.0 268.0V-560.0H251.0V231.0C275.0 235.0 284.0 244.0 287.0 258.0ZM476.0 -549.0H-16.0V-579.0H476.0Z"/></g>
<g fill="black" opacity=".8" transform="translate(700 600) scale(0.1 -0.1)"><path d="M0.0 0.0H-34.0V-569.0L-19.0 -539.0C-33.0 -542.0 -54.0 -554.0 -63.0 -563.0L-5.0 -606.0L17.0 -575.0H10.0V-6.0ZM46.0 27.0 -34.0 37.0V-40.0H10.0V1.0C34.0 4.0 45.0 13.0 46.0 27.0ZM534.0 26.0 454.0 35.0V-637.0H462.0C480.0 -637.0 497.0 -625.0 497.0 -617.0V-1.0C523.0 1.0 531.0 11.0 534.0 26.0ZM289.0 252.0 208.0 262.0V-560.0H251.0V225.0C276.0 228.0 284.0 237.0 289.0 252.0ZM479.0 -547.0H-17.0L-14.0 -577.0H479.0Z"/></g>
<g fill="red" transform="translate(800 600) scale(0.1 -0.1)"><path d="M0.0 0.0H-106.0V-619.0L-83.0 -581.0C-101.0 -588.0 -125.0 -611.0 -138.0 -628.0L2.0 -706.0L42.0 -638.0H34.0V-21.0ZM71.0 24.0 -106.0 41.0V-36.0H34.0V-4.0C60.0 0.0 68.0 9.0 71.0 24.0ZM515.0 28.0 338.0 44.0V-721.0H364.0C418.0 -721.0 480.0 -690.0 480.0 -677.0V1.0C506.0 5.0 513.0 15.0 515.0 28.0ZM295.0 195.0 117.0 211.0V-625.0H258.0V166.0C286.0 170.0 293.0 180.0 295.0 195.0ZM387.0 -610.0H-7.0V-638.0H387.0Z"/></g>
<g fill="black" opacity=".8" transform="translate(800 600) scale(0.1 -0.1)"><path d="M0.0 0.0H-102.0V-620.0L-80.0 -582.0C-98.0 -590.0 -121.0 -612.0 -135.0 -628.0L2.0 -706.0L41.0 -639.0H33.0V-20.0ZM69.0 22.0 -102.0 39.0V-38.0H33.0V-6.0C59.0 -1.0 67.0 7.0 69.0 22.0ZM512.0 24.0 340.0 39.0V-720.0H364.0C417.0 -720.0 477.0 -690.0 477.0 -679.0V-4.0C503.0 0.0 511.0 10.0 512.0 24.0ZM291.0 202.0 118.0 218.0V-626.0H254.0V173.0C282.0 177.0 290.0 186.0 291.0 202.0ZM384.0 -613.0H-8.0L-5.0 -640.0H384.0Z"/></g>
<g fill="red" transform="translate(900 600) scale(0.1 -0.1)"><path d="M0.0 0.0H-34.0V-195.0L-21.0 -161.0C-37.0 -166.0 -60.0 -175.0 -70.0 -184.0L-5.0 -229.0L19.0 -199.0H10.0V-6.0ZM49.0 13.0 -33.0 23.0V-53.0H11.0V-15.0C35.0 -11.0 47.0 -2.0 49.0 13.0ZM518.0 14.0 436.0 23.0V-265.0H445.0C462.0 -265.0 480.0 -253.0 480.0 -246.0V-13.0C505.0 -10.0 515.0 -1.0 518.0 14.0ZM279.0 52.0 200.0 61.0V-183.0H246.0V27.0C268.0 30.0 277.0 39.0 279.0 52.0ZM457.0 -170.0H-16.0V-200.0H457.0Z"/></g>
<g fill="black" opacity=".8" transform="translate(900 600) scale(0.1 -0.1)"><path d="M0.0 0.0H-33.0V-196.0L-19.0 -164.0C-34.0 -168.0 -55.0 -179.0 -65.0 -188.0L-5.0 -228.0L18.0 -200.0H10.0V-6.0ZM47.0 30.0 -33.0 39.0V-36.0H10.0V3.0C34.0 6.0 45.0 15.0 47.0 30.0ZM519.0 18.0 439.0 26.0V-263.0H447.0C464.0 -263.0 482.0 -251.0 482.0 -245.0V-8.0C507.0 -7.0 516.0 3.0 519.0 18.0ZM285.0 46.0 207.0 54.0V-189.0H249.0V20.0C272.0 22.0 282.0 31.0 285.0 46.0ZM474.0 -170.0H-13.0L-18.0 -200.0H474.0Z"/></g>
<g fill="red" transform="translate(1000 600) scale(0.1 -0.1)"><path d="M0.0 0.0H-95.0V-198.0L-74.0 -161.0C-93.0 -168.0 -119.0 -189.0 -133.0 -205.0L-2.0 -271.0L37.0 -215.0H31.0V-19.0ZM69.0 15.0 -95.0 31.0V-46.0H31.0V-14.0C57.0 -10.0 66.0 0.0 69.0 15.0ZM515.0 22.0 351.0 36.0V-288.0H374.0C424.0 -288.0 483.0 -268.0 483.0 -260.0V-3.0C507.0 1.0 514.0 10.0 515.0 22.0ZM295.0 36.0 124.0 49.0V-208.0H258.0V7.0C286.0 12.0 293.0 22.0 295.0 36.0ZM421.0 -187.0H-21.0V-215.0H421.0Z"/></g>
<g fill="black" opacity=".8" transform="translate(1000 600) scale(0.1 -0.1)"><path d="M0.0 0.0H-95.0V-199.0L-75.0 -162.0C-93.0 -169.0 -116.0 -190.0 -130.0 -205.0L-1.0 -267.0L36.0 -217.0H32.0V-19.0ZM64.0 26.0 -95.0 42.0V-33.0H32.0V0.0C55.0 4.0 62.0 13.0 64.0 26.0ZM512.0 16.0 350.0 30.0V-286.0H370.0C423.0 -286.0 479.0 -267.0 479.0 -260.0V-10.0C504.0 -6.0 510.0 4.0 512.0 16.0ZM291.0 43.0 129.0 55.0V-204.0H259.0V17.0C284.0 21.0 291.0 30.0 291.0 43.0ZM404.0 -188.0H-18.0L-24.0 -214.0H404.0Z"/></g>
<g fill="red" transform="translate(1100 600) scale(0.1 -0.1)"><path d="M0.0 0.0H-34.0V-418.0L-21.0 -383.0C-37.0 -387.0 -60.0 -398.0 -70.0 -407.0L-5.0 -451.0L19.0 -421.0H10.0V-6.0ZM48.0 23.0 -34.0 33.0V-43.0H10.0V-5.0C35.0 -1.0 46.0 8.0 48.0 23.0ZM546.0 24.0 465.0 34.0V-484.0H474.0C491.0 -484.0 509.0 -473.0 509.0 -466.0V-2.0C534.0 1.0 543.0 10.0 546.0 24.0ZM296.0 172.0 215.0 182.0V-405.0H259.0V145.0C283.0 149.0 293.0 158.0 296.0 172.0ZM493.0 -391.0H-12.0V-421.0H493.0Z"/></g>
<g fill="black" opacity=".8" transform="translate(1100 600) scale(0.1 -0.1)"><path d="M0.0 0.0H-32.0V-410.0L-18.0 -380.0C-33.0 -383.0 -53.0 -396.0 -62.0 -404.0L-5.0 -445.0L17.0 -415.0H10.0V-6.0ZM45.0 17.0 -32.0 27.0V-48.0H10.0V-9.0C33.0 -5.0 44.0 4.0 45.0 17.0ZM541.0 12.0 463.0 21.0V-479.0H471.0C488.0 -479.0 505.0 -467.0 505.0 -461.0V-14.0C530.0 -12.0 538.0 -3.0 541.0 12.0ZM295.0 161.0 215.0 170.0V-402.0H257.0V134.0C281.0 137.0 290.0 146.0 295.0 161.0ZM493.0 -386.0H-20.0L-24.0 -416.0H493.0Z"/></g>
<g fill="red" transform="translate(1200 600) scale(0.1 -0.1)"><path d="M0.0 0.0H-97.0V-430.0L-76.0 -393.0C-95.0 -400.0 -121.0 -421.0 -135.0 -438.0L-2.0 -504.0L37.0 -447.0H31.0V-19.0ZM69.0 12.0 -97.0 28.0V-49.0H31.0V-17.0C57.0 -13.0 66.0 -3.0 69.0 12.0ZM500.0 12.0 331.0 27.0V-531.0H354.0C406.0 -531.0 463.0 -508.0 463.0 -497.0V-16.0C490.0 -12.0 498.0 -2.0 500.0 12.0ZM286.0 124.0 114.0 139.0V-438.0H249.0V96.0C276.0 100.0 284.0 110.0 286.0 124.0ZM382.0 -419.0H-22.0V-447.0H382.0Z"/></g>
<g fill="black" opacity=".8" transform="translate(1200 600) scale(0.1 -0.1)"><path d="M0.0 0.0H-102.0V-437.0L-81.0 -399.0C-99.0 -406.0 -121.0 -429.0 -135.0 -444.0L1.0 -518.0L40.0 -456.0H34.0V-20.0ZM71.0 20.0 -102.0 37.0V-37.0H34.0V-9.0C60.0 -4.0 69.0 5.0 71.0 20.0ZM504.0 18.0 332.0 33.0V-531.0H354.0C409.0 -531.0 469.0 -506.0 469.0 -496.0V-10.0C495.0 -6.0 503.0 5.0 504.0 18.0ZM287.0 136.0 115.0 150.0V-443.0H253.0V109.0C280.0 112.0 287.0 121.0 287.0 136.0ZM382.0 -425.0H-8.0L-12.0 -450.0H382.0Z"/></g>
<g fill="red" transform="translate(1300 600) scale(0.1 -0.1)"><path d="M0.0 0.0H-34.0V-145.0L-21.0 -110.0C-37.0 -114.0 -60.0 -125.0 -70.0 -133.0L-5.0 -178.0L19.0 -148.0H10.0V-6.0ZM48.0 24.0 -34.0 34.0V-42.0H10.0V-4.0C34.0 0.0 46.0 9.0 48.0 24.0ZM560.0 17.0 478.0 26.0V-194.0H487.0C504.0 -194.0 522.0 -182.0 522.0 -175.0V-10.0C547.0 -7.0 557.0 2.0 560.0 17.0ZM296.0 59.0 223.0 68.0V-139.0H266.0V36.0C286.0 39.0 294.0 47.0 296.0 59.0ZM509.0 -118.0H-11.0V-148.0H509.0Z"/></g>
<g fill="black" opacity=".8" transform="translate(1300 600) scale(0.1 -0.1)"><path d="M0.0 0.0H-31.0V-145.0L-18.0 -113.0C-33.0 -117.0 -54.0 -128.0 -63.0 -137.0L-5.0 -176.0L17.0 -149.0H10.0V-6.0ZM45.0 22.0 -31.0 31.0V-42.0H9.0V-4.0C33.0 -1.0 43.0 8.0 45.0 22.0ZM555.0 23.0 478.0 30.0V-196.0H486.0C502.0 -196.0 519.0 -185.0 519.0 -179.0V-3.0C543.0 -1.0 552.0 8.0 555.0 23.0ZM299.0 59.0 223.0 68.0V-136.0H264.0V34.0C287.0 36.0 297.0 45.0 299.0 59.0ZM519.0 -120.0H-17.0L-24.0 -150.0H519.0Z"/></g>
<g fill="red" transform="translate(1400 600) scale(0.1 -0.1)"><path d="M0.0 0.0H-94.0V-142.0L-73.0 -105.0C-92.0 -112.0 -118.0 -133.0 -132.0 -149.0L-2.0 -214.0L37.0 -159.0H31.0V-18.0ZM69.0 29.0 -94.0 45.0V-32.0H31.0V0.0C57.0 4.0 66.0 14.0 69.0 29.0ZM531.0 30.0 364.0 44.0V-211.0H387.0C439.0 -211.0 498.0 -193.0 498.0 -185.0V5.0C523.0 9.0 529.0 18.0 531.0 30.0ZM299.0 59.0 135.0 72.0V-152.0H271.0V35.0C292.0 39.0 298.0 47.0 299.0 59.0ZM445.0 -131.0H-35.0V-159.0H445.0Z"/></g>
<g fill="black" opacity=".8" transform="translate(1400 600) scale(0.1 -0.1)"><path d="M0.0 0.0H-97.0V-141.0L-77.0 -105.0C-95.0 -111.0 -117.0 -133.0 -131.0 -148.0L-0.0 -210.0L36.0 -159.0H33.0V-19.0ZM66.0 25.0 -97.0 41.0V-31.0H33.0V-2.0C56.0 2.0 65.0 11.0 66.0 25.0ZM535.0 26.0 370.0 40.0V-211.0H390.0C444.0 -211.0 501.0 -194.0 501.0 -187.0V0.0C526.0 4.0 533.0 14.0 535.0 26.0ZM299.0 60.0 135.0 73.0V-146.0H268.0V36.0C292.0 40.0 298.0 49.0 299.0 60.0ZM433.0 -130.0H-18.0L-26.0 -155.0H433.0Z"/></g>
<g fill="red" transform="translate(1500 600) scale(0.1 -0.1)"><path d="M0.0 0.0H-34.0V-167.0L-21.0 -133.0C-37.0 -137.0 -60.0 -148.0 -70.0 -157.0L-5.0 -201.0L19.0 -171.0H10.0V-6.0ZM48.0 31.0 -34.0 41.0V-35.0H10.0V3.0C35.0 7.0 46.0 16.0 48.0 31.0ZM692.0 32.0 610.0 41.0V-210.0H619.0C636.0 -210.0 654.0 -198.0 654.0 -192.0V5.0C679.0 8.0 689.0 17.0 692.0 32.0ZM360.0 73.0 279.0 83.0V-161.0H323.0V47.0C347.0 50.0 358.0 59.0 360.0 73.0ZM634.0 -141.0H-27.0V-171.0H634.0Z"/></g>
<g fill="black" opacity=".8" transform="translate(1500 600) scale(0.1 -0.1)"><path d="M0.0 0.0H-33.0V-165.0L-20.0 -131.0C-37.0 -135.0 -59.0 -147.0 -70.0 -155.0L-6.0 -200.0L19.0 -169.0H10.0V-6.0ZM48.0 19.0 -33.0 29.0V-49.0H10.0V-9.0C35.0 -6.0 46.0 4.0 48.0 19.0ZM688.0 29.0 606.0 37.0V-207.0H614.0C632.0 -207.0 650.0 -194.0 650.0 -188.0V2.0C676.0 4.0 685.0 13.0 688.0 29.0ZM364.0 72.0 283.0 81.0V-156.0H326.0V45.0C351.0 47.0 361.0 57.0 364.0 72.0ZM627.0 -139.0H-17.0L-21.0 -170.0H627.0Z"/></g>
<g fill="red" transform="translate(1600 600) scale(0.1 -0.1)"><path d="M0.0 0.0H-107.0V-141.0L-85.0 -104.0C-104.0 -111.0 -130.0 -134.0 -145.0 -152.0L-2.0 -222.0L40.0 -161.0H35.0V-21.0ZM72.0 35.0 -107.0 52.0V-25.0H35.0V6.0C62.0 10.0 70.0 20.0 72.0 35.0ZM661.0 37.0 479.0 52.0V-207.0H503.0C561.0 -207.0 624.0 -189.0 624.0 -181.0V9.0C652.0 13.0 659.0 24.0 661.0 37.0ZM360.0 81.0 180.0 94.0V-145.0H324.0V52.0C351.0 57.0 358.0 67.0 360.0 81.0ZM535.0 -133.0H-21.0V-161.0H535.0Z"/></g>
<g fill="black" opacity=".8" transform="translate(1600 600) scale(0.1 -0.1)"><path d="M0.0 0.0H-109.0V-144.0L-87.0 -106.0C-106.0 -113.0 -131.0 -137.0 -146.0 -154.0L-1.0 -226.0L41.0 -165.0H37.0V-22.0ZM75.0 29.0 -109.0 47.0V-31.0H37.0V-1.0C64.0 4.0 73.0 13.0 75.0 29.0ZM663.0 41.0 480.0 55.0V-209.0H503.0C563.0 -209.0 626.0 -190.0 626.0 -182.0V13.0C654.0 16.0 661.0 27.0 663.0 41.0ZM363.0 82.0 180.0 96.0V-150.0H328.0V55.0C355.0 59.0 363.0 69.0 363.0 82.0ZM544.0 -136.0H-25.0L-30.0 -163.0H544.0Z"/></g>
<g fill="red" transform="translate(100 700) scale(0.1 -0.1)"><path d="M0.0 0.0H-34.0V-589.0L-18.0 -560.0C-32.0 -564.0 -52.0 -575.0 -61.0 -584.0L-4.0 -626.0L17.0 -597.0H10.0V-6.0ZM47.0 21.0 -34.0 31.0V-45.0H10.0V-6.0C34.0 -2.0 45.0 7.0 47.0 21.0ZM441.0 18.0 360.0 28.0V-663.0H369.0C386.0 -663.0 404.0 -652.0 404.0 -643.0V-9.0C429.0 -5.0 438.0 4.0 441.0 18.0ZM241.0 233.0 161.0 243.0V-585.0H205.0V206.0C229.0 210.0 238.0 219.0 241.0 233.0ZM379.0 -568.0H-14.0V-598.0H379.0Z"/></g>
<g fill="black" opacity=".8" transform="translate(100 700) scale(0.1 -0.1)"><path d="M0.0 0.0H-33.0V-590.0L-17.0 -561.0C-32.0 -565.0 -52.0 -577.0 -61.0 -586.0L-4.0 -626.0L17.0 -597.0H10.0V-6.0ZM46.0 19.0 -33.0 29.0V-48.0H10.0V-8.0C34.0 -4.0 45.0 5.0 46.0 19.0ZM440.0 23.0 360.0 31.0V-663.0H368.0C386.0 -663.0 403.0 -651.0 403.0 -644.0V-4.0C429.0 -2.0 437.0 8.0 440.0 23.0ZM241.0 234.0 161.0 243.0V-586.0H204.0V206.0C228.0 209.0 236.0 218.0 241.0 234.0ZM381.0 -568.0H-4.0L-7.0 -599.0H381.0Z"/></g>
<g fill="red" transform="translate(200 700) scale(0.1 -0.1)"><path d="M0.0 0.0H-93.0V-616.0L-71.0 -579.0C-89.0 -586.0 -112.0 -606.0 -125.0 -622.0L1.0 -695.0L39.0 -632.0H31.0V-18.0ZM67.0 32.0 -93.0 48.0V-29.0H31.0V4.0C56.0 8.0 65.0 18.0 67.0 32.0ZM410.0 36.0 255.0 51.0V-714.0H277.0C323.0 -714.0 375.0 -687.0 375.0 -675.0V10.0C401.0 13.0 408.0 23.0 410.0 36.0ZM239.0 214.0 80.0 229.0V-621.0H203.0V185.0C230.0 189.0 237.0 199.0 239.0 214.0ZM309.0 -604.0H10.0V-632.0H309.0Z"/></g>
<g fill="black" opacity=".8" transform="translate(200 700) scale(0.1 -0.1)"><path d="M0.0 0.0H-94.0V-617.0L-73.0 -579.0C-90.0 -586.0 -112.0 -607.0 -125.0 -622.0L2.0 -692.0L38.0 -634.0H31.0V-18.0ZM65.0 23.0 -94.0 39.0V-38.0H31.0V-4.0C55.0 1.0 63.0 9.0 65.0 23.0ZM412.0 29.0 253.0 44.0V-712.0H275.0C323.0 -712.0 378.0 -683.0 378.0 -673.0V3.0C403.0 6.0 410.0 16.0 412.0 29.0ZM239.0 214.0 78.0 230.0V-620.0H204.0V187.0C231.0 190.0 238.0 199.0 239.0 214.0ZM307.0 -604.0H5.0L3.0 -631.0H307.0Z"/></g>
<g fill="red" transform="translate(300 700) scale(0.1 -0.1)"><path d="M0.0 0.0H-34.0V-574.0L-18.0 -546.0C-32.0 -550.0 -52.0 -562.0 -61.0 -569.0L-4.0 -612.0L17.0 -582.0H10.0V-6.0ZM47.0 23.0 -34.0 33.0V-43.0H10.0V-4.0C34.0 0.0 45.0 9.0 47.0 23.0ZM516.0 21.0 435.0 31.0V-642.0H444.0C461.0 -642.0 479.0 -630.0 479.0 -622.0V-5.0C504.0 -2.0 513.0 7.0 516.0 21.0ZM276.0 251.0 196.0 261.0V-567.0H240.0V224.0C264.0 228.0 273.0 237.0 276.0 251.0ZM453.0 -553.0H-15.0V-583.0H453.0Z"/></g>
<g fill="black" opacity=".8" transform="translate(300 700) scale(0.1 -0.1)"><path d="M0.0 0.0H-33.0V-575.0L-18.0 -545.0C-33.0 -548.0 -53.0 -561.0 -62.0 -570.0L-4.0 -611.0L17.0 -581.0H10.0V-6.0ZM46.0 23.0 -33.0 33.0V-44.0H10.0V-3.0C34.0 0.0 45.0 9.0 46.0 23.0ZM515.0 24.0 435.0 33.0V-643.0H443.0C461.0 -643.0 478.0 -631.0 478.0 -624.0V-3.0C504.0 -1.0 512.0 9.0 515.0 24.0ZM279.0 251.0 199.0 260.0V-567.0H241.0V223.0C266.0 226.0 274.0 236.0 279.0 251.0ZM454.0 -553.0H-16.0L-15.0 -583.0H454.0Z"/></g>
<g fill="red" transform="translate(400 700) scale(0.1 -0.1)"><path d="M0.0 0.0H-102.0V-620.0L-80.0 -582.0C-97.0 -589.0 -121.0 -611.0 -134.0 -627.0L1.0 -704.0L41.0 -638.0H33.0V-20.0ZM69.0 24.0 -102.0 41.0V-36.0H33.0V-4.0C58.0 0.0 67.0 10.0 69.0 24.0ZM485.0 28.0 316.0 44.0V-721.0H341.0C392.0 -721.0 451.0 -691.0 451.0 -679.0V1.0C477.0 5.0 483.0 15.0 485.0 28.0ZM279.0 206.0 107.0 222.0V-628.0H242.0V177.0C269.0 181.0 277.0 191.0 279.0 206.0ZM358.0 -610.0H-7.0V-638.0H358.0Z"/></g>
<g fill="black" opacity=".8" transform="translate(400 700) scale(0.1 -0.1)"><path d="M0.0 0.0H-101.0V-621.0L-79.0 -583.0C-97.0 -591.0 -120.0 -613.0 -133.0 -628.0L2.0 -705.0L40.0 -640.0H33.0V-20.0ZM69.0 21.0 -101.0 38.0V-39.0H33.0V-7.0C59.0 -2.0 67.0 6.0 69.0 21.0ZM486.0 25.0 316.0 41.0V-718.0H339.0C392.0 -718.0 452.0 -689.0 452.0 -677.0V-2.0C477.0 2.0 485.0 12.0 486.0 25.0ZM278.0 207.0 106.0 223.0V-626.0H241.0V179.0C269.0 182.0 277.0 192.0 278.0 207.0ZM357.0 -611.0H-5.0L-4.0 -638.0H357.0Z"/></g>
<g fill="red" transform="translate(500 700) scale(0.1 -0.1)"><path d="M0.0 0.0H-34.0V-459.0L-21.0 -425.0C-37.0 -429.0 -60.0 -439.0 -70.0 -448.0L-5.0 -493.0L19.0 -462.0H10.0V-6.0ZM48.0 23.0 -34.0 33.0V-43.0H10.0V-5.0C35.0 -1.0 46.0 8.0 48.0 23.0ZM479.0 24.0 398.0 34.0V-526.0H407.0C424.0 -526.0 442.0 -514.0 442.0 -506.0V-2.0C467.0 1.0 476.0 10.0 479.0 24.0ZM259.0 210.0 179.0 220.0V-450.0H223.0V183.0C247.0 187.0 257.0 196.0 259.0 210.0ZM422.0 -433.0H-22.0V-463.0H422.0Z"/></g>
<g fill="black" opacity=".8" transform="translate(500 700) scale(0.1 -0.1)"><path d="M0.0 0.0H-33.0V-451.0L-18.0 -420.0C-34.0 -424.0 -54.0 -436.0 -64.0 -445.0L-5.0 -485.0L17.0 -457.0H10.0V-6.0ZM47.0 19.0 -33.0 29.0V-49.0H10.0V-9.0C35.0 -6.0 46.0 4.0 47.0 19.0ZM476.0 19.0 395.0 27.0V-526.0H403.0C421.0 -526.0 439.0 -514.0 439.0 -507.0V-8.0C464.0 -6.0 473.0 3.0 476.0 19.0ZM260.0 201.0 181.0 210.0V-445.0H224.0V174.0C248.0 176.0 256.0 186.0 260.0 201.0ZM427.0 -428.0H-21.0L-24.0 -459.0H427.0Z"/></g>
<g fill="red" transform="translate(600 700) scale(0.1 -0.1)"><path d="M0.0 0.0H-90.0V-445.0L-70.0 -408.0C-88.0 -415.0 -114.0 -435.0 -128.0 -451.0L-2.0 -515.0L36.0 -460.0H30.0V-18.0ZM67.0 26.0 -90.0 42.0V-35.0H30.0V-2.0C56.0 2.0 64.0 12.0 67.0 26.0ZM455.0 22.0 293.0 37.0V-540.0H315.0C364.0 -540.0 418.0 -516.0 418.0 -506.0V-6.0C446.0 -2.0 453.0 8.0 455.0 22.0ZM267.0 198.0 95.0 213.0V-439.0H230.0V169.0C257.0 173.0 265.0 183.0 267.0 198.0ZM378.0 -432.0H-26.0V-460.0H378.0Z"/></g>
<g fill="black" opacity=".8" transform="translate(600 700) scale(0.1 -0.1)"><path d="M0.0 0.0H-94.0V-448.0L-73.0 -410.0C-91.0 -417.0 -114.0 -438.0 -127.0 -453.0L1.0 -518.0L37.0 -465.0H31.0V-19.0ZM64.0 28.0 -94.0 44.0V-34.0H31.0V2.0C55.0 6.0 62.0 14.0 64.0 28.0ZM457.0 29.0 298.0 43.0V-541.0H319.0C368.0 -541.0 423.0 -517.0 423.0 -508.0V3.0C447.0 6.0 455.0 16.0 457.0 29.0ZM262.0 207.0 101.0 221.0V-450.0H228.0V180.0C254.0 183.0 261.0 193.0 262.0 207.0ZM373.0 -437.0H-22.0L-25.0 -464.0H373.0Z"/></g>
<g fill="red" transform="translate(700 700) scale(0.1 -0.1)"><path d="M0.0 0.0H-34.0V-200.0L-18.0 -170.0C-32.0 -175.0 -52.0 -187.0 -61.0 -195.0L-4.0 -232.0L17.0 -208.0H10.0V-6.0ZM47.0 17.0 -34.0 27.0V-49.0H10.0V-10.0C34.0 -6.0 45.0 3.0 47.0 17.0ZM543.0 27.0 461.0 36.0V-264.0H470.0C487.0 -264.0 505.0 -254.0 505.0 -247.0V0.0C530.0 3.0 540.0 12.0 543.0 27.0ZM294.0 92.0 213.0 102.0V-194.0H257.0V66.0C281.0 69.0 292.0 78.0 294.0 92.0ZM476.0 -350.0H85.0L56.0 -380.0H476.0Z"/></g>
<g fill="black" opacity=".8" transform="translate(700 700) scale(0.1 -0.1)"><path d="M0.0 0.0H-36.0V-200.0L-20.0 -166.0C-36.0 -171.0 -59.0 -184.0 -69.0 -193.0L-5.0 -235.0L19.0 -207.0H11.0V-7.0ZM51.0 25.0 -36.0 36.0V-47.0H11.0V-4.0C37.0 -1.0 49.0 10.0 51.0 25.0ZM550.0 25.0 462.0 33.0V-269.0H471.0C489.0 -269.0 509.0 -256.0 509.0 -250.0V-4.0C536.0 -2.0 546.0 8.0 550.0 25.0ZM300.0 97.0 214.0 107.0V-191.0H260.0V69.0C286.0 71.0 297.0 81.0 300.0 97.0ZM467.0 -348.0H83.0L65.0 -382.0H467.0Z"/></g>
<g fill="red" transform="translate(800 700) scale(0.1 -0.1)"><path d="M0.0 0.0H-112.0V-202.0L-88.0 -163.0C-107.0 -170.0 -130.0 -194.0 -144.0 -212.0L3.0 -272.0L41.0 -222.0H37.0V-22.0ZM73.0 25.0 -112.0 43.0V-34.0H37.0V-3.0C63.0 1.0 70.0 11.0 73.0 25.0ZM529.0 23.0 343.0 38.0V-290.0H368.0C427.0 -290.0 492.0 -270.0 492.0 -262.0V-5.0C520.0 -1.0 527.0 9.0 529.0 23.0ZM294.0 106.0 116.0 120.0V-208.0H264.0V81.0C287.0 85.0 293.0 94.0 294.0 106.0ZM369.0 -360.0H95.0L68.0 -388.0H369.0Z"/></g>
<g fill="black" opacity=".8" transform="translate(800 700) scale(0.1 -0.1)"><path d="M0.0 0.0H-107.0V-205.0L-84.0 -164.0C-104.0 -171.0 -128.0 -195.0 -143.0 -212.0L1.0 -277.0L40.0 -225.0H36.0V-21.0ZM72.0 27.0 -107.0 45.0V-37.0H36.0V-2.0C62.0 2.0 71.0 12.0 72.0 27.0ZM523.0 27.0 342.0 42.0V-285.0H364.0C422.0 -285.0 485.0 -265.0 485.0 -258.0V-3.0C512.0 2.0 520.0 13.0 523.0 27.0ZM296.0 102.0 117.0 117.0V-210.0H263.0V76.0C289.0 80.0 296.0 89.0 296.0 102.0ZM380.0 -361.0H86.0L68.0 -389.0H380.0Z"/></g>
<g fill="red" transform="translate(900 700) scale(0.1 -0.1)"><path d="M0.0 0.0H-34.0V-233.0L-21.0 -198.0C-37.0 -202.0 -60.0 -213.0 -70.0 -222.0L-5.0 -266.0L19.0 -235.0H10.0V-6.0ZM48.0 30.0 -34.0 40.0V-36.0H10.0V2.0C34.0 6.0 46.0 15.0 48.0 30.0ZM699.0 31.0 618.0 40.0V-274.0H627.0C644.0 -274.0 662.0 -263.0 662.0 -257.0V4.0C687.0 7.0 697.0 16.0 699.0 31.0ZM377.0 75.0 296.0 85.0V-224.0H340.0V49.0C364.0 52.0 375.0 61.0 377.0 75.0ZM647.0 -205.0H-19.0V-235.0H647.0Z"/></g>
<g fill="black" opacity=".8" transform="translate(900 700) scale(0.1 -0.1)"><path d="M0.0 0.0H-33.0V-231.0L-20.0 -197.0C-37.0 -201.0 -59.0 -212.0 -70.0 -221.0L-6.0 -266.0L19.0 -234.0H10.0V-6.0ZM48.0 21.0 -33.0 31.0V-47.0H10.0V-7.0C35.0 -4.0 46.0 5.0 48.0 21.0ZM701.0 28.0 619.0 36.0V-273.0H627.0C645.0 -273.0 662.0 -261.0 662.0 -254.0V1.0C688.0 3.0 698.0 12.0 701.0 28.0ZM370.0 78.0 289.0 88.0V-222.0H332.0V51.0C357.0 54.0 367.0 64.0 370.0 78.0ZM635.0 -204.0H-16.0L-17.0 -235.0H635.0Z"/></g>
<g fill="red" transform="translate(1000 700) scale(0.1 -0.1)"><path d="M0.0 0.0H-107.0V-220.0L-85.0 -183.0C-104.0 -190.0 -130.0 -213.0 -145.0 -231.0L-2.0 -300.0L40.0 -240.0H35.0V-21.0ZM72.0 34.0 -107.0 51.0V-26.0H35.0V5.0C62.0 9.0 70.0 19.0 72.0 34.0ZM678.0 36.0 496.0 51.0V-291.0H521.0C578.0 -291.0 641.0 -271.0 641.0 -262.0V8.0C669.0 12.0 676.0 22.0 678.0 36.0ZM359.0 79.0 179.0 93.0V-226.0H323.0V51.0C350.0 55.0 357.0 65.0 359.0 79.0ZM534.0 -212.0H-22.0V-241.0H534.0Z"/></g>
<g fill="black" opacity=".8" transform="translate(1000 700) scale(0.1 -0.1)"><path d="M0.0 0.0H-110.0V-221.0L-88.0 -183.0C-107.0 -190.0 -132.0 -214.0 -147.0 -231.0L-0.0 -308.0L42.0 -242.0H37.0V-22.0ZM76.0 28.0 -110.0 46.0V-32.0H37.0V-3.0C65.0 2.0 74.0 12.0 76.0 28.0ZM677.0 38.0 492.0 53.0V-291.0H515.0C575.0 -291.0 640.0 -270.0 640.0 -261.0V10.0C667.0 14.0 675.0 25.0 677.0 38.0ZM371.0 77.0 186.0 91.0V-228.0H334.0V48.0C362.0 52.0 370.0 62.0 371.0 77.0ZM547.0 -214.0H-23.0L-24.0 -241.0H547.0Z"/></g>
<g fill="red" transform="translate(1100 700) scale(0.1 -0.1)"><path d="M0.0 0.0H-34.0V-172.0L-21.0 -138.0C-37.0 -142.0 -60.0 -153.0 -70.0 -162.0L-5.0 -206.0L19.0 -175.0H10.0V-6.0ZM48.0 29.0 -34.0 39.0V-37.0H10.0V1.0C35.0 5.0 46.0 14.0 48.0 29.0ZM701.0 30.0 619.0 39.0V-226.0H628.0C645.0 -226.0 663.0 -214.0 663.0 -207.0V3.0C688.0 6.0 698.0 15.0 701.0 30.0ZM375.0 73.0 294.0 83.0V-161.0H338.0V47.0C362.0 50.0 373.0 59.0 375.0 73.0ZM538.0 -271.0H70.0V-301.0H538.0Z"/></g>
<g fill="black" opacity=".8" transform="translate(1100 700) scale(0.1 -0.1)"><path d="M0.0 0.0H-33.0V-173.0L-20.0 -140.0C-36.0 -144.0 -59.0 -155.0 -69.0 -164.0L-6.0 -208.0L19.0 -177.0H10.0V-6.0ZM48.0 26.0 -33.0 36.0V-42.0H10.0V-1.0C35.0 2.0 46.0 11.0 48.0 26.0ZM700.0 27.0 618.0 35.0V-221.0H626.0C643.0 -221.0 661.0 -209.0 661.0 -203.0V-0.0C687.0 2.0 697.0 11.0 700.0 27.0ZM372.0 74.0 291.0 83.0V-164.0H334.0V47.0C359.0 50.0 369.0 59.0 372.0 74.0ZM540.0 -272.0H72.0L66.0 -303.0H540.0Z"/></g>
<g fill="red" transform="translate(1200 700) scale(0.1 -0.1)"><path d="M0.0 0.0H-107.0V-165.0L-85.0 -127.0C-104.0 -134.0 -130.0 -158.0 -145.0 -175.0L-2.0 -245.0L40.0 -184.0H35.0V-21.0ZM72.0 32.0 -107.0 49.0V-28.0H35.0V3.0C62.0 7.0 70.0 17.0 72.0 32.0ZM678.0 34.0 496.0 49.0V-233.0H520.0C578.0 -233.0 641.0 -215.0 641.0 -207.0V6.0C669.0 10.0 676.0 21.0 678.0 34.0ZM372.0 77.0 192.0 91.0V-171.0H336.0V49.0C363.0 53.0 370.0 63.0 372.0 77.0ZM479.0 -280.0H47.0V-308.0H479.0Z"/></g>
<g fill="black" opacity=".8" transform="translate(1200 700) scale(0.1 -0.1)"><path d="M0.0 0.0H-109.0V-164.0L-87.0 -126.0C-106.0 -132.0 -131.0 -157.0 -147.0 -174.0L-0.0 -247.0L42.0 -184.0H37.0V-22.0ZM74.0 30.0 -109.0 48.0V-29.0H37.0V1.0C64.0 5.0 73.0 15.0 74.0 30.0ZM681.0 33.0 497.0 48.0V-235.0H520.0C580.0 -235.0 645.0 -216.0 645.0 -208.0V5.0C672.0 9.0 679.0 20.0 681.0 33.0ZM374.0 77.0 191.0 91.0V-170.0H338.0V49.0C366.0 53.0 373.0 63.0 374.0 77.0ZM477.0 -279.0H54.0L47.0 -306.0H477.0Z"/></g>
<g fill="red" transform="translate(1300 700) scale(0.1 -0.1)"><path d="M0.0 0.0H-33.0V-112.0L-20.0 -78.0C-36.0 -82.0 -59.0 -93.0 -69.0 -100.0L-5.0 -145.0L19.0 -115.0H9.0V-6.0ZM47.0 32.0 -33.0 42.0V-34.0H9.0V5.0C34.0 8.0 45.0 18.0 47.0 32.0ZM365.0 -533.0 288.0 -524.0V-829.0H297.0C314.0 -829.0 332.0 -818.0 332.0 -811.0V-557.0C354.0 -555.0 363.0 -546.0 365.0 -533.0ZM371.0 67.0 291.0 77.0V-102.0H333.0V41.0C358.0 44.0 369.0 53.0 371.0 67.0ZM633.0 -85.0H-18.0V-115.0H633.0Z"/></g>
<g fill="black" opacity=".8" transform="translate(1300 700) scale(0.1 -0.1)"><path d="M0.0 0.0H-33.0V-112.0L-19.0 -78.0C-36.0 -81.0 -59.0 -93.0 -68.0 -100.0L-6.0 -144.0L19.0 -114.0H10.0V-6.0ZM47.0 30.0 -33.0 40.0V-38.0H9.0V3.0C35.0 5.0 46.0 15.0 47.0 30.0ZM366.0 -532.0 288.0 -524.0V-829.0H297.0C314.0 -829.0 332.0 -817.0 332.0 -811.0V-556.0C355.0 -556.0 363.0 -546.0 366.0 -532.0ZM372.0 68.0 291.0 77.0V-102.0H332.0V41.0C358.0 43.0 368.0 53.0 372.0 68.0ZM632.0 -84.0H-16.0L-18.0 -116.0H632.0Z"/></g>
<g fill="red" transform="translate(1400 700) scale(0.1 -0.1)"><path d="M0.0 0.0H-107.0V-104.0L-85.0 -67.0C-104.0 -74.0 -130.0 -97.0 -145.0 -115.0L-2.0 -185.0L40.0 -124.0H35.0V-21.0ZM72.0 34.0 -107.0 51.0V-26.0H35.0V5.0C62.0 9.0 70.0 19.0 72.0 34.0ZM359.0 -523.0 176.0 -508.0V-859.0H202.0C259.0 -859.0 326.0 -837.0 326.0 -829.0V-548.0C351.0 -544.0 357.0 -535.0 359.0 -523.0ZM364.0 78.0 184.0 91.0V-110.0H328.0V49.0C355.0 54.0 362.0 64.0 364.0 78.0ZM534.0 -96.0H-22.0V-124.0H534.0Z"/></g>
<g fill="black" opacity=".8" transform="translate(1400 700) scale(0.1 -0.1)"><path d="M0.0 0.0H-107.0V-104.0L-87.0 -67.0C-105.0 -73.0 -130.0 -97.0 -145.0 -114.0L-2.0 -184.0L40.0 -125.0H36.0V-21.0ZM71.0 32.0 -107.0 49.0V-28.0H36.0V3.0C62.0 8.0 70.0 17.0 71.0 32.0ZM359.0 -522.0 177.0 -507.0V-860.0H200.0C259.0 -860.0 327.0 -838.0 327.0 -831.0V-548.0C351.0 -544.0 357.0 -534.0 359.0 -522.0ZM363.0 78.0 184.0 90.0V-109.0H328.0V49.0C356.0 54.0 363.0 64.0 363.0 78.0ZM536.0 -98.0H-21.0L-23.0 -124.0H536.0Z"/></g>
<g fill="red" transform="translate(1500 700) scale(0.1 -0.1)"><path d="M0.0 0.0H-34.0V-579.0L-18.0 -550.0C-32.0 -555.0 -52.0 -567.0 -61.0 -574.0L-4.0 -617.0L17.0 -587.0H10.0V-6.0ZM47.0 22.0 -34.0 32.0V-44.0H10.0V-5.0C34.0 -1.0 45.0 8.0 47.0 22.0ZM452.0 19.0 371.0 29.0V-653.0H380.0C397.0 -653.0 415.0 -641.0 415.0 -633.0V-7.0C440.0 -4.0 449.0 5.0 452.0 19.0ZM247.0 220.0 167.0 230.0V-584.0H211.0V193.0C235.0 197.0 244.0 206.0 247.0 220.0ZM392.0 -561.0H-15.0V-591.0H392.0Z"/></g>
<g fill="black" opacity=".8" transform="translate(1500 700) scale(0.1 -0.1)"><path d="M0.0 0.0H-34.0V-584.0L-18.0 -554.0C-33.0 -557.0 -54.0 -570.0 -63.0 -579.0L-4.0 -620.0L17.0 -590.0H10.0V-6.0ZM47.0 25.0 -34.0 35.0V-43.0H11.0V-2.0C35.0 1.0 46.0 11.0 47.0 25.0ZM453.0 25.0 372.0 34.0V-658.0H380.0C398.0 -658.0 416.0 -646.0 416.0 -638.0V-3.0C442.0 -0.0 450.0 10.0 453.0 25.0ZM249.0 227.0 167.0 236.0V-578.0H211.0V199.0C236.0 201.0 244.0 211.0 249.0 227.0ZM396.0 -562.0H-13.0V-593.0H396.0Z"/></g>
<g fill="red" transform="translate(1600 700) scale(0.1 -0.1)"><path d="M0.0 0.0H-98.0V-620.0L-76.0 -583.0C-93.0 -590.0 -117.0 -611.0 -130.0 -627.0L1.0 -702.0L39.0 -637.0H32.0V-19.0ZM68.0 26.0 -98.0 42.0V-35.0H32.0V-2.0C57.0 2.0 65.0 11.0 68.0 26.0ZM434.0 30.0 272.0 45.0V-720.0H296.0C344.0 -720.0 400.0 -692.0 400.0 -679.0V3.0C425.0 7.0 432.0 17.0 434.0 30.0ZM255.0 204.0 89.0 220.0V-625.0H218.0V175.0C245.0 179.0 252.0 189.0 255.0 204.0ZM326.0 -609.0H-6.0V-637.0H326.0Z"/></g>
<g fill="black" opacity=".8" transform="translate(1600 700) scale(0.1 -0.1)"><path d="M0.0 0.0H-96.0V-618.0L-74.0 -580.0C-92.0 -587.0 -115.0 -609.0 -128.0 -623.0L2.0 -695.0L39.0 -636.0H31.0V-19.0ZM65.0 24.0 -96.0 39.0V-39.0H31.0V-3.0C55.0 1.0 63.0 9.0 65.0 24.0ZM434.0 26.0 272.0 41.0V-717.0H294.0C344.0 -717.0 400.0 -689.0 400.0 -678.0V-1.0C425.0 3.0 433.0 13.0 434.0 26.0ZM251.0 199.0 87.0 214.0V-622.0H216.0V171.0C243.0 174.0 251.0 183.0 251.0 199.0ZM322.0 -608.0H-6.0V-635.0H322.0Z"/></g>
<g fill="red" transform="translate(100 800) scale(0.1 -0.1)"><path d="M0.0 0.0H-34.0V-200.0L-18.0 -170.0C-32.0 -175.0 -52.0 -187.0 -61.0 -195.0L-4.0 -232.0L17.0 -208.0H10.0V-6.0ZM47.0 18.0 -34.0 28.0V-48.0H10.0V-9.0C34.0 -5.0 45.0 4.0 47.0 18.0ZM464.0 27.0 382.0 36.0V-264.0H391.0C408.0 -264.0 426.0 -254.0 426.0 -247.0V0.0C451.0 3.0 461.0 12.0 464.0 27.0ZM264.0 92.0 183.0 102.0V-194.0H227.0V66.0C251.0 69.0 262.0 78.0 264.0 92.0ZM-139.0 -396.0H-381.0L-386.0 -426.0H-139.0Z"/></g>
<g fill="black" opacity=".8" transform="translate(100 800) scale(0.1 -0.1)"><path d="M0.0 0.0H-34.0V-199.0L-18.0 -168.0C-33.0 -173.0 -53.0 -185.0 -63.0 -194.0L-5.0 -231.0L17.0 -206.0H11.0V-6.0ZM48.0 21.0 -34.0 31.0V-47.0H11.0V-6.0C35.0 -2.0 46.0 7.0 48.0 21.0ZM468.0 28.0 385.0 37.0V-269.0H394.0C410.0 -269.0 429.0 -258.0 429.0 -251.0V0.0C456.0 2.0 464.0 12.0 468.0 28.0ZM261.0 95.0 178.0 104.0V-194.0H222.0V68.0C247.0 70.0 258.0 80.0 261.0 95.0ZM-143.0 -396.0H-383.0L-384.0 -427.0H-143.0Z"/></g>
<g fill="red" transform="translate(200 800) scale(0.1 -0.1)"><path d="M0.0 0.0H-99.0V-203.0L-77.0 -165.0C-94.0 -172.0 -118.0 -193.0 -131.0 -210.0L1.0 -265.0L37.0 -220.0H32.0V-20.0ZM69.0 29.0 -99.0 45.0V-32.0H32.0V1.0C58.0 4.0 66.0 14.0 69.0 29.0ZM463.0 25.0 290.0 40.0V-288.0H313.0C367.0 -288.0 426.0 -269.0 426.0 -261.0V-3.0C454.0 2.0 461.0 12.0 463.0 25.0ZM266.0 106.0 96.0 120.0V-208.0H236.0V82.0C259.0 85.0 265.0 94.0 266.0 106.0ZM-214.0 -392.0H-408.0L-413.0 -420.0H-214.0Z"/></g>
<g fill="black" opacity=".8" transform="translate(200 800) scale(0.1 -0.1)"><path d="M0.0 0.0H-99.0V-204.0L-78.0 -165.0C-95.0 -172.0 -119.0 -193.0 -132.0 -209.0L1.0 -266.0L37.0 -222.0H33.0V-20.0ZM68.0 28.0 -99.0 44.0V-34.0H33.0V0.0C57.0 4.0 66.0 13.0 68.0 28.0ZM461.0 23.0 290.0 38.0V-285.0H310.0C366.0 -285.0 425.0 -266.0 425.0 -259.0V-5.0C452.0 -0.0 459.0 10.0 461.0 23.0ZM264.0 104.0 95.0 117.0V-209.0H235.0V79.0C258.0 82.0 264.0 92.0 264.0 104.0ZM-210.0 -392.0H-409.0L-410.0 -419.0H-210.0Z"/></g>
<g fill="red" transform="translate(300 800) scale(0.1 -0.1)"><path d="M0.0 0.0H-34.0V-233.0L-18.0 -203.0C-32.0 -208.0 -52.0 -219.0 -61.0 -228.0L-4.0 -270.0L17.0 -240.0H10.0V-6.0ZM47.0 18.0 -34.0 28.0V-48.0H10.0V-9.0C34.0 -5.0 45.0 4.0 47.0 18.0ZM534.0 12.0 453.0 21.0V-293.0H462.0C479.0 -293.0 497.0 -282.0 497.0 -276.0V-15.0C522.0 -12.0 532.0 -3.0 534.0 12.0ZM293.0 52.0 212.0 62.0V-234.0H256.0V26.0C280.0 29.0 291.0 38.0 293.0 52.0ZM476.0 -211.0H-2.0V-241.0H476.0Z"/></g>
<g fill="black" opacity=".8" transform="translate(300 800) scale(0.1 -0.1)"><path d="M0.0 0.0H-32.0V-237.0L-18.0 -206.0C-34.0 -210.0 -54.0 -221.0 -64.0 -229.0L-5.0 -269.0L17.0 -241.0H10.0V-6.0ZM46.0 24.0 -32.0 34.0V-41.0H9.0V-2.0C34.0 0.0 44.0 10.0 46.0 24.0ZM535.0 18.0 457.0 25.0V-298.0H464.0C481.0 -298.0 498.0 -287.0 498.0 -281.0V-8.0C523.0 -7.0 532.0 3.0 535.0 18.0ZM290.0 52.0 213.0 60.0V-231.0H255.0V26.0C278.0 28.0 288.0 37.0 290.0 52.0ZM479.0 -211.0H-3.0L-7.0 -241.0H479.0Z"/></g>
<g fill="red" transform="translate(400 800) scale(0.1 -0.1)"><path d="M0.0 0.0H-96.0V-230.0L-74.0 -193.0C-91.0 -200.0 -115.0 -221.0 -128.0 -237.0L1.0 -311.0L39.0 -247.0H31.0V-19.0ZM67.0 30.0 -96.0 46.0V-31.0H31.0V2.0C56.0 6.0 65.0 15.0 67.0 30.0ZM521.0 31.0 363.0 45.0V-320.0H385.0C432.0 -320.0 487.0 -300.0 487.0 -292.0V5.0C512.0 9.0 519.0 18.0 521.0 31.0ZM295.0 56.0 133.0 69.0V-235.0H259.0V28.0C286.0 32.0 294.0 42.0 295.0 56.0ZM417.0 -219.0H-15.0V-247.0H417.0Z"/></g>
<g fill="black" opacity=".8" transform="translate(400 800) scale(0.1 -0.1)"><path d="M0.0 0.0H-95.0V-232.0L-75.0 -195.0C-93.0 -201.0 -115.0 -223.0 -129.0 -238.0L-0.0 -302.0L37.0 -249.0H32.0V-19.0ZM65.0 26.0 -95.0 42.0V-32.0H32.0V-0.0C55.0 4.0 63.0 12.0 65.0 26.0ZM521.0 22.0 360.0 36.0V-313.0H380.0C432.0 -313.0 488.0 -294.0 488.0 -286.0V-4.0C513.0 0.0 519.0 10.0 521.0 22.0ZM294.0 56.0 132.0 69.0V-236.0H261.0V30.0C287.0 34.0 293.0 43.0 294.0 56.0ZM413.0 -220.0H-8.0L-13.0 -246.0H413.0Z"/></g>
<g fill="red" transform="translate(500 800) scale(0.1 -0.1)"><path d="M0.0 0.0H-34.0V-557.0L-18.0 -527.0C-32.0 -531.0 -52.0 -543.0 -61.0 -552.0L-4.0 -594.0L17.0 -565.0H10.0V-6.0ZM47.0 14.0 -34.0 24.0V-52.0H10.0V-13.0C34.0 -9.0 45.0 0.0 47.0 14.0ZM463.0 12.0 382.0 22.0V-655.0H391.0C408.0 -655.0 426.0 -644.0 426.0 -636.0V-14.0C451.0 -11.0 460.0 -2.0 463.0 12.0ZM257.0 223.0 177.0 233.0V-548.0H221.0V196.0C245.0 200.0 254.0 209.0 257.0 223.0ZM392.0 -535.0H-15.0V-565.0H392.0Z"/></g>
<g fill="black" opacity=".8" transform="translate(500 800) scale(0.1 -0.1)"><path d="M0.0 0.0H-33.0V-560.0L-18.0 -531.0C-32.0 -534.0 -52.0 -547.0 -61.0 -555.0L-4.0 -596.0L17.0 -566.0H10.0V-6.0ZM46.0 18.0 -33.0 29.0V-48.0H10.0V-8.0C34.0 -5.0 45.0 4.0 46.0 18.0ZM463.0 5.0 383.0 14.0V-650.0H392.0C409.0 -650.0 426.0 -638.0 426.0 -631.0V-21.0C452.0 -19.0 460.0 -10.0 463.0 5.0ZM258.0 230.0 178.0 239.0V-554.0H220.0V202.0C245.0 205.0 253.0 215.0 258.0 230.0ZM393.0 -539.0H-11.0L-13.0 -569.0H393.0Z"/></g>
<g fill="red" transform="translate(600 800) scale(0.1 -0.1)"><path d="M0.0 0.0H-92.0V-588.0L-71.0 -551.0C-88.0 -558.0 -111.0 -578.0 -124.0 -594.0L0.0 -666.0L37.0 -604.0H30.0V-18.0ZM66.0 13.0 -92.0 29.0V-48.0H30.0V-15.0C55.0 -11.0 63.0 -1.0 66.0 13.0ZM435.0 7.0 275.0 22.0V-697.0H298.0C346.0 -697.0 401.0 -670.0 401.0 -658.0V-20.0C426.0 -16.0 433.0 -6.0 435.0 7.0ZM256.0 217.0 90.0 232.0V-589.0H219.0V188.0C246.0 192.0 253.0 202.0 256.0 217.0ZM316.0 -576.0H-2.0V-604.0H316.0Z"/></g>
<g fill="black" opacity=".8" transform="translate(600 800) scale(0.1 -0.1)"><path d="M0.0 0.0H-96.0V-585.0L-75.0 -547.0C-93.0 -554.0 -115.0 -576.0 -128.0 -590.0L2.0 -663.0L39.0 -603.0H31.0V-19.0ZM66.0 23.0 -96.0 39.0V-37.0H31.0V-4.0C56.0 1.0 64.0 9.0 66.0 23.0ZM434.0 13.0 272.0 27.0V-699.0H294.0C344.0 -699.0 400.0 -671.0 400.0 -660.0V-14.0C425.0 -11.0 433.0 -0.0 434.0 13.0ZM255.0 210.0 90.0 226.0V-589.0H220.0V183.0C247.0 186.0 254.0 195.0 255.0 210.0ZM316.0 -574.0H-4.0L-6.0 -600.0H316.0Z"/></g>
<g fill="red" transform="translate(700 800) scale(0.1 -0.1)"><path d="M0.0 0.0H-34.0V-459.0L-18.0 -430.0C-32.0 -434.0 -52.0 -445.0 -61.0 -454.0L-4.0 -491.0L17.0 -467.0H10.0V-6.0ZM48.0 43.0 -34.0 53.0V-23.0H10.0V15.0C35.0 19.0 46.0 28.0 48.0 43.0ZM319.0 46.0 238.0 56.0V-544.0H247.0C264.0 -544.0 282.0 -533.0 282.0 -525.0V20.0C307.0 23.0 316.0 32.0 319.0 46.0ZM180.0 209.0 104.0 218.0V-452.0H148.0V184.0C170.0 186.0 178.0 195.0 180.0 209.0ZM259.0 -438.0H-16.0V-468.0H259.0Z"/></g>
<g fill="black" opacity=".8" transform="translate(700 800) scale(0.1 -0.1)"><path d="M0.0 0.0H-34.0V-461.0L-18.0 -431.0C-33.0 -435.0 -53.0 -447.0 -62.0 -456.0L-4.0 -494.0L17.0 -468.0H11.0V-6.0ZM49.0 40.0 -34.0 50.0V-29.0H10.0V11.0C36.0 15.0 47.0 25.0 49.0 40.0ZM318.0 40.0 235.0 49.0V-540.0H244.0C262.0 -540.0 280.0 -529.0 280.0 -521.0V13.0C306.0 15.0 315.0 24.0 318.0 40.0ZM181.0 214.0 103.0 222.0V-456.0H147.0V188.0C170.0 188.0 178.0 198.0 181.0 214.0ZM248.0 -437.0H-15.0L-19.0 -468.0H248.0Z"/></g>
<g fill="red" transform="translate(800 800) scale(0.1 -0.1)"><path d="M0.0 0.0H-75.0V-478.0L-56.0 -443.0C-72.0 -449.0 -95.0 -467.0 -106.0 -480.0L-1.0 -528.0L29.0 -492.0H23.0V-14.0ZM47.0 32.0 -75.0 44.0V-33.0H23.0V12.0C39.0 15.0 45.0 22.0 47.0 32.0ZM330.0 34.0 203.0 46.0V-581.0H223.0C259.0 -581.0 303.0 -560.0 303.0 -550.0V12.0C323.0 15.0 329.0 23.0 330.0 34.0ZM200.0 210.0 61.0 223.0V-476.0H168.0V184.0C191.0 188.0 198.0 197.0 200.0 210.0ZM227.0 -464.0H-29.0V-492.0H227.0Z"/></g>
<g fill="black" opacity=".8" transform="translate(800 800) scale(0.1 -0.1)"><path d="M0.0 0.0H-80.0V-482.0L-61.0 -444.0C-78.0 -450.0 -100.0 -470.0 -112.0 -483.0L0.0 -535.0L32.0 -496.0H26.0V-16.0ZM51.0 31.0 -80.0 44.0V-35.0H26.0V10.0C44.0 13.0 50.0 20.0 51.0 31.0ZM336.0 30.0 197.0 43.0V-574.0H217.0C258.0 -574.0 307.0 -551.0 307.0 -542.0V6.0C327.0 10.0 334.0 19.0 336.0 30.0ZM201.0 207.0 59.0 220.0V-480.0H169.0V181.0C193.0 184.0 200.0 194.0 201.0 207.0ZM239.0 -465.0H-26.0L-29.0 -492.0H239.0Z"/></g>
<g fill="red" transform="translate(900 800) scale(0.1 -0.1)"><path d="M0.0 0.0H-34.0V-547.0L-18.0 -517.0C-32.0 -522.0 -52.0 -534.0 -61.0 -542.0L-4.0 -584.0L17.0 -555.0H10.0V-6.0ZM47.0 21.0 -34.0 31.0V-45.0H10.0V-6.0C34.0 -2.0 45.0 7.0 47.0 21.0ZM400.0 18.0 319.0 28.0V-635.0H328.0C345.0 -635.0 363.0 -624.0 363.0 -616.0V-8.0C388.0 -5.0 397.0 4.0 400.0 18.0ZM221.0 211.0 141.0 221.0V-538.0H185.0V184.0C209.0 188.0 219.0 197.0 221.0 211.0ZM334.0 -525.0H-26.0V-555.0H334.0Z"/></g>
<g fill="black" opacity=".8" transform="translate(900 800) scale(0.1 -0.1)"><path d="M0.0 0.0H-33.0V-550.0L-17.0 -521.0C-32.0 -525.0 -52.0 -537.0 -60.0 -546.0L-4.0 -584.0L17.0 -557.0H10.0V-6.0ZM46.0 26.0 -33.0 36.0V-40.0H10.0V-1.0C34.0 2.0 45.0 11.0 46.0 26.0ZM400.0 18.0 321.0 27.0V-634.0H329.0C347.0 -634.0 364.0 -622.0 364.0 -615.0V-8.0C389.0 -6.0 397.0 3.0 400.0 18.0ZM223.0 219.0 146.0 228.0V-546.0H188.0V192.0C211.0 194.0 219.0 204.0 223.0 219.0ZM338.0 -528.0H-16.0V-558.0H338.0Z"/></g>
<g fill="red" transform="translate(1000 800) scale(0.1 -0.1)"><path d="M0.0 0.0H-83.0V-575.0L-63.0 -539.0C-79.0 -546.0 -102.0 -565.0 -114.0 -579.0L-1.0 -648.0L34.0 -590.0H26.0V-16.0ZM63.0 17.0 -83.0 32.0V-45.0H26.0V-11.0C51.0 -7.0 60.0 3.0 63.0 17.0ZM396.0 19.0 245.0 33.0V-677.0H267.0C311.0 -677.0 362.0 -652.0 362.0 -640.0V-8.0C387.0 -4.0 394.0 5.0 396.0 19.0ZM229.0 212.0 75.0 227.0V-576.0H192.0V184.0C219.0 188.0 227.0 198.0 229.0 212.0ZM293.0 -562.0H-6.0V-590.0H293.0Z"/></g>
<g fill="black" opacity=".8" transform="translate(1000 800) scale(0.1 -0.1)"><path d="M0.0 0.0H-88.0V-572.0L-68.0 -535.0C-84.0 -542.0 -106.0 -562.0 -118.0 -576.0L1.0 -641.0L36.0 -588.0H29.0V-17.0ZM59.0 26.0 -88.0 40.0V-36.0H29.0V1.0C50.0 5.0 57.0 13.0 59.0 26.0ZM390.0 20.0 242.0 33.0V-677.0H262.0C307.0 -677.0 359.0 -650.0 359.0 -640.0V-5.0C382.0 -2.0 389.0 8.0 390.0 20.0ZM230.0 204.0 78.0 219.0V-574.0H196.0V178.0C222.0 181.0 229.0 190.0 230.0 204.0ZM291.0 -561.0H-15.0L-16.0 -587.0H291.0Z"/></g>
</svg>
