<?xml version="1.0" encoding="UTF-8"?>
<svg width="1700" height="300" xmlns="http://www.w3.org/2000/svg">
<rect width="100%" height="100%" fill="white"/>
<g fill="green" transform="translate(100 100) scale(0.1 -0.1)"><path d="M0.0 0.0V-341.0H10.0C26.0 -341.0 44.0 -331.0 44.0 -325.0V-36.0C69.0 -32.0 79.0 -23.0 81.0 -9.0ZM237.0 -300.0V-900.0H246.0C263.0 -900.0 282.0 -889.0 282.0 -881.0V-336.0C306.0 -333.0 315.0 -324.0 318.0 -310.0ZM-376.0 -152.0 -368.0 -182.0H415.0C428.0 -182.0 438.0 -177.0 440.0 -166.0C411.0 -137.0 363.0 -101.0 363.0 -101.0L322.0 -152.0ZM-201.0 -775.0V-804.0H262.0V-775.0Z"/></g>
<g fill="green" transform="translate(200 100) scale(0.1 -0.1)"><path d="M0.0 0.0V-365.0H24.0C80.0 -365.0 142.0 -345.0 142.0 -336.0V-43.0C170.0 -39.0 177.0 -29.0 179.0 -15.0ZM216.0 -313.0V-945.0H242.0C298.0 -945.0 361.0 -917.0 361.0 -906.0V-358.0C389.0 -354.0 396.0 -343.0 398.0 -329.0ZM-333.0 -179.0 -325.0 -207.0H476.0C491.0 -207.0 502.0 -202.0 505.0 -191.0C458.0 -149.0 379.0 -86.0 379.0 -86.0L310.0 -179.0ZM-172.0 -819.0V-847.0H318.0V-819.0Z"/></g>
<g fill="green" transform="translate(300 100) scale(0.1 -0.1)"><path d="M0.0 0.0V-341.0H10.0C26.0 -341.0 44.0 -331.0 44.0 -325.0V-36.0C69.0 -32.0 79.0 -23.0 81.0 -9.0ZM237.0 -300.0V-900.0H246.0C263.0 -900.0 282.0 -889.0 282.0 -881.0V-336.0C306.0 -333.0 315.0 -324.0 318.0 -310.0ZM-376.0 -152.0 -368.0 -182.0H415.0C428.0 -182.0 438.0 -177.0 440.0 -166.0C411.0 -137.0 363.0 -101.0 363.0 -101.0L322.0 -152.0ZM-201.0 -775.0V-804.0H262.0V-775.0Z"/></g>
<g fill="green" transform="translate(400 100) scale(0.1 -0.1)"><path d="M0.0 0.0V-365.0H24.0C80.0 -365.0 142.0 -345.0 142.0 -336.0V-43.0C170.0 -39.0 177.0 -29.0 179.0 -15.0ZM216.0 -313.0V-945.0H242.0C298.0 -945.0 361.0 -917.0 361.0 -906.0V-358.0C389.0 -354.0 396.0 -343.0 398.0 -329.0ZM-333.0 -179.0 -325.0 -207.0H476.0C491.0 -207.0 502.0 -202.0 505.0 -191.0C458.0 -149.0 379.0 -86.0 379.0 -86.0L310.0 -179.0ZM-172.0 -819.0V-847.0H318.0V-819.0Z"/></g>
<g fill="red" transform="translate(100 200) scale(0.1 -0.1)"><path d="M0.0 0.0V-341.0H10.0C26.0 -341.0 44.0 -331.0 44.0 -325.0V-36.0C69.0 -32.0 79.0 -23.0 81.0 -9.0ZM237.0 -300.0V-900.0H246.0C263.0 -900.0 282.0 -889.0 282.0 -881.0V-336.0C306.0 -333.0 315.0 -324.0 318.0 -310.0ZM-376.0 -152.0 -368.0 -182.0H415.0C428.0 -182.0 438.0 -177.0 440.0 -166.0C411.0 -137.0 363.0 -101.0 363.0 -101.0L322.0 -152.0ZM-201.0 -775.0V-804.0H262.0V-775.0Z"/></g>
<g fill="black" opacity=".8" transform="translate(100 200) scale(0.1 -0.1)"><path d="M0.0 0.0V-341.0H10.0C26.0 -341.0 44.0 -331.0 44.0 -325.0V-36.0C69.0 -32.0 79.0 -23.0 81.0 -9.0ZM237.0 -300.0V-900.0H246.0C263.0 -900.0 282.0 -889.0 282.0 -881.0V-336.0C306.0 -333.0 315.0 -324.0 318.0 -310.0ZM-376.0 -152.0 -368.0 -182.0H415.0C428.0 -182.0 438.0 -177.0 440.0 -166.0C411.0 -137.0 363.0 -101.0 363.0 -101.0L322.0 -152.0ZM-201.0 -775.0V-804.0H262.0V-775.0Z"/></g>
<g fill="red" transform="translate(200 200) scale(0.1 -0.1)"><path d="M0.0 0.0V-365.0H24.0C80.0 -365.0 142.0 -345.0 142.0 -336.0V-43.0C170.0 -39.0 177.0 -29.0 179.0 -15.0ZM216.0 -313.0V-945.0H242.0C298.0 -945.0 361.0 -917.0 361.0 -906.0V-358.0C389.0 -354.0 396.0 -343.0 398.0 -329.0ZM-333.0 -179.0 -325.0 -207.0H476.0C491.0 -207.0 502.0 -202.0 505.0 -191.0C458.0 -149.0 379.0 -86.0 379.0 -86.0L310.0 -179.0ZM-172.0 -819.0V-847.0H318.0V-819.0Z"/></g>
<g fill="black" opacity=".8" transform="translate(200 200) scale(0.1 -0.1)"><path d="M0.0 0.0V-365.0H24.0C80.0 -365.0 142.0 -345.0 142.0 -336.0V-43.0C170.0 -39.0 177.0 -29.0 179.0 -15.0ZM216.0 -313.0V-945.0H242.0C298.0 -945.0 361.0 -917.0 361.0 -906.0V-358.0C389.0 -354.0 396.0 -343.0 398.0 -329.0ZM-333.0 -179.0 -325.0 -207.0H476.0C491.0 -207.0 502.0 -202.0 505.0 -191.0C458.0 -149.0 379.0 -86.0 379.0 -86.0L310.0 -179.0ZM-172.0 -819.0V-847.0H318.0V-819.0Z"/></g>
</svg>
