<?xml version="1.0" encoding="UTF-8"?>
<svg width="1700" height="300" xmlns="http://www.w3.org/2000/svg">
<rect width="100%" height="100%" fill="white"/>
<g fill="green" transform="translate(100 100) scale(0.1 -0.1)"><path d="M-0.0 0.0 9.0 -30.0H232.0V0.0H0.0ZM73.0 -291.0 58.0 -321.0H260.0V-291.0H73.0ZM202.0 0.0C158.0 -92.0 75.0 -245.0 6.0 -362.0C23.0 -370.0 36.0 -372.0 48.0 -370.0C111.0 -265.0 194.0 -119.0 236.0 -39.0C258.0 -37.0 277.0 -33.0 285.0 -26.0L223.0 31.0L192.0 0.0H202.0ZM239.0 -291.0C217.0 -497.0 160.0 -687.0 -15.0 -808.0L-5.0 -824.0C193.0 -709.0 252.0 -521.0 283.0 -325.0C304.0 -323.0 314.0 -321.0 319.0 -313.0L261.0 -259.0L230.0 -291.0H239.0ZM106.0 -437.0 133.0 -398.0 103.0 -387.0 89.0 -429.0C62.0 -460.0 17.0 -505.0 -8.0 -529.0L36.0 -567.0C41.0 -561.0 43.0 -554.0 37.0 -545.0C56.0 -518.0 88.0 -466.0 106.0 -437.0ZM106.0 -437.0 89.0 -446.0C185.0 -742.0 334.0 -798.0 635.0 -798.0C693.0 -798.0 814.0 -798.0 866.0 -798.0C868.0 -779.0 880.0 -766.0 902.0 -764.0V-749.0C834.0 -750.0 702.0 -751.0 640.0 -751.0C347.0 -751.0 194.0 -708.0 106.0 -437.0Z"/></g>
<g fill="green" transform="translate(200 100) scale(0.1 -0.1)"><path d="M0.0 0.0 9.0 -28.0H224.0V0.0H0.0ZM99.0 -297.0 85.0 -325.0H265.0V-297.0H99.0ZM153.0 0.0C120.0 -90.0 57.0 -241.0 2.0 -355.0C56.0 -376.0 98.0 -378.0 133.0 -368.0C179.0 -276.0 246.0 -134.0 279.0 -55.0C302.0 -52.0 317.0 -45.0 325.0 -36.0L201.0 66.0L141.0 0.0H153.0ZM199.0 -297.0C186.0 -512.0 140.0 -721.0 -27.0 -848.0L-19.0 -859.0C232.0 -753.0 307.0 -557.0 336.0 -345.0C359.0 -342.0 367.0 -338.0 374.0 -327.0L254.0 -227.0L187.0 -297.0H199.0ZM108.0 -448.0 142.0 -402.0 89.0 -387.0 86.0 -444.0C55.0 -471.0 -4.0 -513.0 -39.0 -533.0L39.0 -635.0C48.0 -628.0 52.0 -616.0 45.0 -603.0C61.0 -566.0 92.0 -490.0 108.0 -448.0ZM108.0 -448.0 100.0 -452.0C182.0 -772.0 344.0 -836.0 693.0 -836.0C728.0 -836.0 810.0 -836.0 846.0 -836.0C848.0 -780.0 873.0 -729.0 922.0 -717.0V-706.0C864.0 -707.0 750.0 -707.0 702.0 -707.0C367.0 -707.0 200.0 -670.0 108.0 -448.0Z"/></g>
<g fill="green" transform="translate(300 100) scale(0.1 -0.1)"><path d="M0.0 0.0 9.0 -30.0H230.0V0.0H0.0ZM72.0 -288.0 57.0 -317.0H257.0V-288.0H72.0ZM200.0 0.0C156.0 -91.0 74.0 -242.0 6.0 -358.0C23.0 -366.0 36.0 -368.0 47.0 -366.0C110.0 -262.0 192.0 -118.0 233.0 -39.0C255.0 -37.0 274.0 -33.0 282.0 -26.0L221.0 31.0L190.0 0.0H200.0ZM236.0 -288.0C215.0 -491.0 158.0 -679.0 -15.0 -799.0L-5.0 -814.0C191.0 -701.0 249.0 -515.0 280.0 -321.0C301.0 -319.0 311.0 -317.0 315.0 -309.0L258.0 -256.0L228.0 -288.0H236.0ZM105.0 -432.0 132.0 -393.0 102.0 -382.0 88.0 -424.0C61.0 -455.0 17.0 -499.0 -8.0 -523.0L36.0 -560.0C41.0 -554.0 43.0 -548.0 37.0 -539.0C55.0 -512.0 87.0 -460.0 105.0 -432.0ZM105.0 -432.0 88.0 -441.0C183.0 -733.0 330.0 -789.0 628.0 -789.0C685.0 -789.0 804.0 -789.0 856.0 -789.0C858.0 -770.0 870.0 -757.0 891.0 -755.0V-740.0C824.0 -741.0 694.0 -742.0 633.0 -742.0C343.0 -742.0 192.0 -700.0 105.0 -432.0Z"/></g>
<g fill="green" transform="translate(400 100) scale(0.1 -0.1)"><path d="M0.0 0.0 9.0 -28.0H222.0V0.0H0.0ZM98.0 -294.0 84.0 -321.0H262.0V-294.0H98.0ZM151.0 0.0C119.0 -89.0 56.0 -238.0 2.0 -351.0C55.0 -372.0 97.0 -374.0 131.0 -364.0C177.0 -273.0 243.0 -132.0 276.0 -54.0C299.0 -51.0 313.0 -44.0 321.0 -36.0L199.0 65.0L139.0 0.0H151.0ZM197.0 -294.0C184.0 -506.0 138.0 -713.0 -27.0 -838.0L-19.0 -849.0C229.0 -744.0 303.0 -551.0 332.0 -341.0C355.0 -338.0 363.0 -334.0 370.0 -323.0L251.0 -224.0L185.0 -294.0H197.0ZM107.0 -443.0 140.0 -397.0 88.0 -383.0 85.0 -439.0C54.0 -466.0 -4.0 -507.0 -39.0 -527.0L39.0 -628.0C47.0 -621.0 51.0 -609.0 44.0 -596.0C60.0 -560.0 91.0 -485.0 107.0 -443.0ZM107.0 -443.0 99.0 -447.0C180.0 -763.0 340.0 -826.0 685.0 -826.0C720.0 -826.0 801.0 -826.0 836.0 -826.0C838.0 -771.0 863.0 -720.0 911.0 -709.0V-698.0C854.0 -699.0 742.0 -699.0 694.0 -699.0C363.0 -699.0 198.0 -662.0 107.0 -443.0Z"/></g>
<g fill="green" transform="translate(500 100) scale(0.1 -0.1)"><path d="M0.0 0.0 9.0 -30.0H214.0V0.0H0.0ZM80.0 -288.0 65.0 -318.0H249.0V-288.0H80.0ZM196.0 0.0C156.0 -93.0 80.0 -249.0 16.0 -367.0C35.0 -375.0 47.0 -376.0 59.0 -374.0C117.0 -268.0 193.0 -119.0 231.0 -39.0C253.0 -37.0 271.0 -33.0 279.0 -25.0L217.0 31.0L187.0 0.0H196.0ZM225.0 -288.0C207.0 -491.0 157.0 -685.0 -7.0 -810.0L4.0 -826.0C192.0 -706.0 244.0 -516.0 270.0 -322.0C290.0 -320.0 300.0 -318.0 307.0 -310.0L248.0 -256.0L216.0 -288.0H225.0ZM101.0 -471.0 136.0 -429.0 103.0 -416.0 84.0 -464.0C60.0 -487.0 20.0 -517.0 -3.0 -533.0L38.0 -580.0C44.0 -575.0 46.0 -569.0 42.0 -560.0C59.0 -537.0 84.0 -496.0 101.0 -471.0ZM101.0 -471.0 84.0 -480.0C191.0 -750.0 352.0 -800.0 671.0 -800.0C723.0 -800.0 836.0 -800.0 883.0 -800.0C885.0 -781.0 897.0 -769.0 918.0 -766.0V-751.0C854.0 -752.0 732.0 -752.0 676.0 -752.0C365.0 -752.0 197.0 -714.0 101.0 -471.0Z"/></g>
<g fill="green" transform="translate(600 100) scale(0.1 -0.1)"><path d="M0.0 0.0 9.0 -28.0H184.0V0.0H0.0ZM112.0 -292.0 98.0 -320.0H278.0V-292.0H112.0ZM145.0 0.0C115.0 -89.0 58.0 -238.0 8.0 -351.0C60.0 -370.0 101.0 -371.0 135.0 -361.0C178.0 -270.0 239.0 -131.0 269.0 -54.0C292.0 -51.0 307.0 -44.0 314.0 -35.0L191.0 65.0L134.0 0.0H145.0ZM198.0 -292.0C188.0 -504.0 153.0 -718.0 -1.0 -852.0L7.0 -863.0C244.0 -748.0 308.0 -547.0 332.0 -340.0C354.0 -336.0 363.0 -332.0 369.0 -322.0L251.0 -223.0L187.0 -292.0H198.0ZM107.0 -432.0 144.0 -393.0 101.0 -376.0 89.0 -425.0C66.0 -441.0 24.0 -464.0 1.0 -474.0L45.0 -545.0C51.0 -542.0 54.0 -534.0 51.0 -526.0C65.0 -503.0 91.0 -459.0 107.0 -432.0ZM107.0 -432.0 98.0 -436.0C163.0 -772.0 310.0 -841.0 633.0 -841.0C688.0 -841.0 820.0 -841.0 875.0 -841.0C877.0 -786.0 902.0 -736.0 953.0 -723.0V-712.0C875.0 -714.0 708.0 -714.0 640.0 -714.0C335.0 -714.0 190.0 -678.0 107.0 -432.0Z"/></g>
<g fill="green" transform="translate(700 100) scale(0.1 -0.1)"><path d="M-0.0 0.0 9.0 -30.0H214.0V0.0H0.0ZM63.0 -278.0 48.0 -308.0H246.0V-278.0H63.0ZM192.0 0.0C149.0 -94.0 68.0 -249.0 0.0 -368.0C18.0 -376.0 30.0 -378.0 43.0 -376.0C104.0 -269.0 185.0 -120.0 227.0 -39.0C249.0 -37.0 268.0 -33.0 276.0 -26.0L213.0 31.0L182.0 0.0H192.0ZM224.0 -278.0C204.0 -489.0 149.0 -689.0 -26.0 -817.0L-16.0 -832.0C183.0 -711.0 240.0 -514.0 269.0 -314.0C289.0 -312.0 300.0 -308.0 305.0 -300.0L246.0 -246.0L215.0 -278.0H224.0ZM92.0 -428.0 114.0 -395.0 84.0 -382.0 74.0 -419.0C47.0 -448.0 -3.0 -494.0 -30.0 -517.0L17.0 -565.0C22.0 -559.0 26.0 -551.0 19.0 -541.0C39.0 -513.0 74.0 -457.0 92.0 -428.0ZM92.0 -428.0 75.0 -436.0C164.0 -755.0 306.0 -813.0 598.0 -813.0C668.0 -813.0 808.0 -813.0 869.0 -813.0C871.0 -794.0 884.0 -780.0 905.0 -778.0V-764.0C830.0 -766.0 675.0 -766.0 603.0 -766.0C320.0 -766.0 176.0 -720.0 92.0 -428.0Z"/></g>
<g fill="green" transform="translate(800 100) scale(0.1 -0.1)"><path d="M0.0 0.0 9.0 -28.0H212.0V0.0H0.0ZM91.0 -299.0 77.0 -327.0H259.0V-299.0H91.0ZM152.0 0.0C120.0 -91.0 58.0 -243.0 4.0 -358.0C58.0 -378.0 100.0 -380.0 135.0 -370.0C181.0 -277.0 246.0 -134.0 279.0 -55.0C302.0 -52.0 317.0 -45.0 325.0 -36.0L200.0 66.0L140.0 0.0H152.0ZM187.0 -299.0C175.0 -515.0 132.0 -728.0 -32.0 -859.0L-24.0 -870.0C225.0 -760.0 297.0 -560.0 324.0 -347.0C347.0 -344.0 356.0 -340.0 362.0 -329.0L242.0 -228.0L175.0 -299.0H187.0ZM98.0 -447.0 121.0 -409.0 73.0 -397.0 75.0 -444.0C45.0 -474.0 -15.0 -519.0 -51.0 -542.0L33.0 -641.0C42.0 -634.0 45.0 -621.0 37.0 -608.0C53.0 -570.0 83.0 -489.0 98.0 -447.0ZM98.0 -447.0 89.0 -451.0C166.0 -781.0 324.0 -847.0 668.0 -847.0C711.0 -847.0 812.0 -847.0 856.0 -847.0C858.0 -791.0 883.0 -740.0 933.0 -727.0V-716.0C867.0 -718.0 732.0 -718.0 676.0 -718.0C348.0 -718.0 188.0 -681.0 98.0 -447.0Z"/></g>
<g fill="red" transform="translate(100 200) scale(0.1 -0.1)"><path d="M0.0 0.0 9.0 -30.0H214.0V0.0H0.0ZM80.0 -288.0 65.0 -318.0H249.0V-288.0H80.0ZM196.0 0.0C156.0 -93.0 80.0 -249.0 16.0 -367.0C35.0 -375.0 47.0 -376.0 59.0 -374.0C117.0 -268.0 193.0 -119.0 231.0 -39.0C253.0 -37.0 271.0 -33.0 279.0 -25.0L217.0 31.0L187.0 0.0H196.0ZM225.0 -288.0C207.0 -491.0 157.0 -685.0 -7.0 -810.0L4.0 -826.0C192.0 -706.0 244.0 -516.0 270.0 -322.0C290.0 -320.0 300.0 -318.0 307.0 -310.0L248.0 -256.0L216.0 -288.0H225.0ZM101.0 -471.0 136.0 -429.0 103.0 -416.0 84.0 -464.0C60.0 -487.0 20.0 -517.0 -3.0 -533.0L38.0 -580.0C44.0 -575.0 46.0 -569.0 42.0 -560.0C59.0 -537.0 84.0 -496.0 101.0 -471.0ZM101.0 -471.0 84.0 -480.0C191.0 -750.0 352.0 -800.0 671.0 -800.0C723.0 -800.0 836.0 -800.0 883.0 -800.0C885.0 -781.0 897.0 -769.0 918.0 -766.0V-751.0C854.0 -752.0 732.0 -752.0 676.0 -752.0C365.0 -752.0 197.0 -714.0 101.0 -471.0Z"/></g>
<g fill="black" opacity=".8" transform="translate(100 200) scale(0.1 -0.1)"><path d="M0.0 0.0 9.0 -30.0H214.0V0.0H0.0ZM80.0 -288.0 65.0 -318.0H249.0V-288.0H80.0ZM196.0 0.0C156.0 -93.0 80.0 -249.0 16.0 -367.0C35.0 -375.0 47.0 -376.0 59.0 -374.0C117.0 -268.0 193.0 -119.0 231.0 -39.0C253.0 -37.0 271.0 -33.0 279.0 -25.0L217.0 31.0L187.0 0.0H196.0ZM225.0 -288.0C207.0 -491.0 157.0 -685.0 -7.0 -810.0L4.0 -826.0C192.0 -706.0 244.0 -516.0 270.0 -322.0C290.0 -320.0 300.0 -318.0 307.0 -310.0L248.0 -256.0L216.0 -288.0H225.0ZM101.0 -471.0 136.0 -429.0 103.0 -416.0 84.0 -464.0C60.0 -487.0 20.0 -517.0 -3.0 -533.0L38.0 -580.0C44.0 -575.0 46.0 -569.0 42.0 -560.0C59.0 -537.0 84.0 -496.0 101.0 -471.0ZM101.0 -471.0 84.0 -480.0C191.0 -750.0 352.0 -800.0 671.0 -800.0C723.0 -800.0 836.0 -800.0 883.0 -800.0C885.0 -781.0 897.0 -769.0 918.0 -766.0V-751.0C854.0 -752.0 732.0 -752.0 676.0 -752.0C365.0 -752.0 197.0 -714.0 101.0 -471.0Z"/></g>
<g fill="red" transform="translate(200 200) scale(0.1 -0.1)"><path d="M0.0 0.0 9.0 -28.0H184.0V0.0H0.0ZM112.0 -292.0 98.0 -320.0H278.0V-292.0H112.0ZM145.0 0.0C115.0 -89.0 58.0 -238.0 8.0 -351.0C60.0 -370.0 101.0 -371.0 135.0 -361.0C178.0 -270.0 239.0 -131.0 269.0 -54.0C292.0 -51.0 307.0 -44.0 314.0 -35.0L191.0 65.0L134.0 0.0H145.0ZM198.0 -292.0C188.0 -504.0 153.0 -718.0 -1.0 -852.0L7.0 -863.0C244.0 -748.0 308.0 -547.0 332.0 -340.0C354.0 -336.0 363.0 -332.0 369.0 -322.0L251.0 -223.0L187.0 -292.0H198.0ZM107.0 -432.0 144.0 -393.0 101.0 -376.0 89.0 -425.0C66.0 -441.0 24.0 -464.0 1.0 -474.0L45.0 -545.0C51.0 -542.0 54.0 -534.0 51.0 -526.0C65.0 -503.0 91.0 -459.0 107.0 -432.0ZM107.0 -432.0 98.0 -436.0C163.0 -772.0 310.0 -841.0 633.0 -841.0C688.0 -841.0 820.0 -841.0 875.0 -841.0C877.0 -786.0 902.0 -736.0 953.0 -723.0V-712.0C875.0 -714.0 708.0 -714.0 640.0 -714.0C335.0 -714.0 190.0 -678.0 107.0 -432.0Z"/></g>
<g fill="black" opacity=".8" transform="translate(200 200) scale(0.1 -0.1)"><path d="M0.0 0.0 9.0 -28.0H184.0V0.0H0.0ZM112.0 -292.0 98.0 -320.0H278.0V-292.0H112.0ZM145.0 0.0C115.0 -89.0 58.0 -238.0 8.0 -351.0C60.0 -370.0 101.0 -371.0 135.0 -361.0C178.0 -270.0 239.0 -131.0 269.0 -54.0C292.0 -51.0 307.0 -44.0 314.0 -35.0L191.0 65.0L134.0 0.0H145.0ZM198.0 -292.0C188.0 -504.0 153.0 -718.0 -1.0 -852.0L7.0 -863.0C244.0 -748.0 308.0 -547.0 332.0 -340.0C354.0 -336.0 363.0 -332.0 369.0 -322.0L251.0 -223.0L187.0 -292.0H198.0ZM107.0 -432.0 144.0 -393.0 101.0 -376.0 89.0 -425.0C66.0 -441.0 24.0 -464.0 1.0 -474.0L45.0 -545.0C51.0 -542.0 54.0 -534.0 51.0 -526.0C65.0 -503.0 91.0 -459.0 107.0 -432.0ZM107.0 -432.0 98.0 -436.0C163.0 -772.0 310.0 -841.0 633.0 -841.0C688.0 -841.0 820.0 -841.0 875.0 -841.0C877.0 -786.0 902.0 -736.0 953.0 -723.0V-712.0C875.0 -714.0 708.0 -714.0 640.0 -714.0C335.0 -714.0 190.0 -678.0 107.0 -432.0Z"/></g>
<g fill="red" transform="translate(300 200) scale(0.1 -0.1)"><path d="M0.0 0.0 9.0 -30.0H229.0V0.0H0.0ZM71.0 -289.0 56.0 -319.0H258.0V-289.0H71.0ZM200.0 0.0C156.0 -92.0 74.0 -246.0 5.0 -363.0C22.0 -371.0 35.0 -373.0 47.0 -371.0C110.0 -266.0 192.0 -119.0 234.0 -39.0C256.0 -37.0 275.0 -33.0 283.0 -26.0L221.0 31.0L190.0 0.0H200.0ZM236.0 -289.0C215.0 -496.0 158.0 -687.0 -17.0 -809.0L-7.0 -825.0C191.0 -709.0 250.0 -520.0 280.0 -323.0C301.0 -321.0 311.0 -319.0 317.0 -311.0L258.0 -257.0L227.0 -289.0H236.0ZM104.0 -435.0 130.0 -397.0 100.0 -386.0 86.0 -427.0C59.0 -458.0 14.0 -503.0 -12.0 -527.0L33.0 -567.0C38.0 -561.0 40.0 -553.0 34.0 -544.0C53.0 -517.0 86.0 -464.0 104.0 -435.0ZM104.0 -435.0 87.0 -444.0C181.0 -744.0 329.0 -800.0 629.0 -800.0C689.0 -800.0 813.0 -800.0 866.0 -800.0C868.0 -781.0 880.0 -768.0 902.0 -766.0V-751.0C833.0 -752.0 697.0 -753.0 634.0 -753.0C342.0 -753.0 191.0 -710.0 104.0 -435.0Z"/></g>
<g fill="black" opacity=".8" transform="translate(300 200) scale(0.1 -0.1)"><path d="M0.0 0.0 9.0 -30.0H229.0V0.0H0.0ZM71.0 -289.0 56.0 -319.0H258.0V-289.0H71.0ZM200.0 0.0C156.0 -92.0 74.0 -246.0 5.0 -363.0C22.0 -371.0 35.0 -373.0 47.0 -371.0C110.0 -266.0 192.0 -119.0 234.0 -39.0C256.0 -37.0 275.0 -33.0 283.0 -26.0L221.0 31.0L190.0 0.0H200.0ZM236.0 -289.0C215.0 -496.0 158.0 -687.0 -17.0 -809.0L-7.0 -825.0C191.0 -709.0 250.0 -520.0 281.0 -323.0C301.0 -321.0 312.0 -319.0 317.0 -311.0L258.0 -257.0L227.0 -289.0H236.0ZM104.0 -435.0 130.0 -397.0 100.0 -386.0 86.0 -427.0C59.0 -458.0 14.0 -503.0 -12.0 -527.0L33.0 -567.0C38.0 -561.0 40.0 -553.0 34.0 -544.0C53.0 -517.0 86.0 -464.0 104.0 -435.0ZM104.0 -435.0 87.0 -444.0C181.0 -744.0 329.0 -800.0 629.0 -800.0C689.0 -800.0 813.0 -800.0 866.0 -800.0C868.0 -781.0 880.0 -768.0 902.0 -766.0V-751.0C833.0 -753.0 697.0 -753.0 634.0 -753.0C342.0 -753.0 191.0 -710.0 104.0 -435.0Z"/></g>
<g fill="red" transform="translate(400 200) scale(0.1 -0.1)"><path d="M0.0 0.0 9.0 -28.0H222.0V0.0H0.0ZM98.0 -297.0 84.0 -325.0H264.0V-297.0H98.0ZM153.0 0.0C120.0 -90.0 57.0 -241.0 2.0 -355.0C56.0 -376.0 98.0 -378.0 133.0 -368.0C179.0 -276.0 246.0 -134.0 279.0 -55.0C302.0 -52.0 317.0 -45.0 325.0 -36.0L201.0 66.0L141.0 0.0H153.0ZM197.0 -297.0C184.0 -512.0 139.0 -722.0 -28.0 -850.0L-20.0 -861.0C231.0 -754.0 305.0 -557.0 334.0 -345.0C357.0 -342.0 365.0 -338.0 372.0 -327.0L252.0 -227.0L185.0 -297.0H197.0ZM106.0 -448.0 138.0 -403.0 86.0 -389.0 84.0 -444.0C53.0 -471.0 -6.0 -514.0 -41.0 -534.0L38.0 -636.0C47.0 -629.0 51.0 -617.0 44.0 -604.0C60.0 -567.0 91.0 -490.0 106.0 -448.0ZM106.0 -448.0 98.0 -452.0C179.0 -773.0 341.0 -838.0 689.0 -838.0C725.0 -838.0 810.0 -838.0 847.0 -838.0C849.0 -782.0 874.0 -731.0 924.0 -719.0V-708.0C864.0 -709.0 747.0 -709.0 697.0 -709.0C364.0 -709.0 198.0 -672.0 106.0 -448.0Z"/></g>
<g fill="black" opacity=".8" transform="translate(400 200) scale(0.1 -0.1)"><path d="M0.0 0.0 9.0 -28.0H222.0V0.0H0.0ZM98.0 -297.0 84.0 -325.0H264.0V-297.0H98.0ZM153.0 0.0C120.0 -90.0 57.0 -241.0 2.0 -355.0C56.0 -376.0 98.0 -378.0 133.0 -368.0C179.0 -276.0 246.0 -134.0 279.0 -55.0C302.0 -52.0 317.0 -45.0 325.0 -36.0L201.0 66.0L141.0 0.0H153.0ZM197.0 -297.0C184.0 -512.0 139.0 -722.0 -28.0 -850.0L-20.0 -861.0C231.0 -754.0 305.0 -557.0 334.0 -345.0C357.0 -342.0 365.0 -338.0 372.0 -327.0L252.0 -227.0L185.0 -297.0H197.0ZM106.0 -448.0 138.0 -403.0 86.0 -389.0 84.0 -444.0C53.0 -471.0 -6.0 -514.0 -41.0 -534.0L38.0 -636.0C47.0 -629.0 51.0 -617.0 44.0 -604.0C60.0 -567.0 90.0 -490.0 106.0 -448.0ZM106.0 -448.0 98.0 -452.0C179.0 -773.0 341.0 -838.0 689.0 -838.0C725.0 -838.0 810.0 -838.0 847.0 -838.0C849.0 -782.0 874.0 -731.0 924.0 -719.0V-708.0C864.0 -709.0 747.0 -709.0 697.0 -709.0C364.0 -709.0 198.0 -672.0 106.0 -448.0Z"/></g>
<g fill="red" transform="translate(500 200) scale(0.1 -0.1)"><path d="M0.0 0.0 9.0 -30.0H200.0V0.0H0.0ZM67.0 -273.0 52.0 -303.0H236.0V-273.0H67.0ZM186.0 0.0C146.0 -93.0 70.0 -249.0 6.0 -367.0C25.0 -375.0 37.0 -376.0 49.0 -374.0C107.0 -268.0 182.0 -119.0 221.0 -39.0C243.0 -37.0 261.0 -33.0 269.0 -25.0L207.0 31.0L177.0 0.0H186.0ZM212.0 -273.0C195.0 -480.0 145.0 -680.0 -21.0 -809.0L-10.0 -824.0C180.0 -701.0 232.0 -505.0 257.0 -308.0C277.0 -306.0 287.0 -303.0 294.0 -295.0L235.0 -241.0L203.0 -273.0H212.0ZM88.0 -444.0 115.0 -410.0 83.0 -396.0 70.0 -436.0C45.0 -460.0 -1.0 -496.0 -27.0 -514.0L18.0 -567.0C24.0 -562.0 27.0 -554.0 22.0 -544.0C40.0 -519.0 71.0 -471.0 88.0 -444.0ZM88.0 -444.0 71.0 -452.0C166.0 -751.0 314.0 -805.0 614.0 -805.0C679.0 -805.0 813.0 -805.0 870.0 -805.0C872.0 -786.0 884.0 -773.0 905.0 -770.0V-756.0C833.0 -758.0 686.0 -758.0 619.0 -758.0C327.0 -758.0 176.0 -716.0 88.0 -444.0Z"/></g>
<g fill="black" opacity=".8" transform="translate(500 200) scale(0.1 -0.1)"><path d="M0.0 0.0 9.0 -30.0H200.0V0.0H0.0ZM66.0 -273.0 51.0 -302.0H236.0V-273.0H66.0ZM186.0 0.0C146.0 -94.0 70.0 -249.0 6.0 -367.0C26.0 -375.0 37.0 -377.0 49.0 -375.0C107.0 -268.0 182.0 -119.0 221.0 -39.0C243.0 -37.0 261.0 -33.0 269.0 -25.0L207.0 31.0L177.0 0.0H186.0ZM212.0 -273.0C196.0 -479.0 145.0 -680.0 -21.0 -809.0L-10.0 -823.0C180.0 -701.0 232.0 -505.0 258.0 -308.0C277.0 -306.0 288.0 -302.0 293.0 -294.0L235.0 -241.0L204.0 -273.0H212.0ZM88.0 -445.0 115.0 -410.0 83.0 -396.0 70.0 -436.0C45.0 -460.0 -1.0 -496.0 -27.0 -514.0L18.0 -566.0C24.0 -561.0 28.0 -555.0 22.0 -545.0C40.0 -519.0 70.0 -470.0 88.0 -445.0ZM88.0 -445.0 71.0 -453.0C166.0 -751.0 314.0 -805.0 614.0 -805.0C679.0 -805.0 812.0 -805.0 870.0 -805.0C872.0 -786.0 885.0 -773.0 904.0 -770.0V-756.0C833.0 -758.0 686.0 -758.0 619.0 -758.0C328.0 -758.0 176.0 -716.0 88.0 -445.0Z"/></g>
<g fill="red" transform="translate(600 200) scale(0.1 -0.1)"><path d="M0.0 0.0 9.0 -28.0H184.0V0.0H0.0ZM98.0 -292.0 84.0 -320.0H264.0V-292.0H98.0ZM145.0 0.0C115.0 -89.0 58.0 -238.0 8.0 -351.0C60.0 -370.0 101.0 -371.0 135.0 -361.0C178.0 -270.0 239.0 -131.0 269.0 -54.0C292.0 -51.0 307.0 -44.0 314.0 -35.0L191.0 65.0L134.0 0.0H145.0ZM184.0 -292.0C174.0 -504.0 139.0 -718.0 -15.0 -852.0L-7.0 -863.0C230.0 -748.0 294.0 -547.0 318.0 -340.0C340.0 -336.0 349.0 -332.0 355.0 -322.0L237.0 -223.0L173.0 -292.0H184.0ZM96.0 -432.0 121.0 -399.0 80.0 -386.0 76.0 -427.0C51.0 -449.0 3.0 -482.0 -25.0 -498.0L36.0 -577.0C43.0 -572.0 46.0 -562.0 40.0 -552.0C55.0 -524.0 82.0 -464.0 96.0 -432.0ZM96.0 -432.0 87.0 -436.0C152.0 -772.0 299.0 -841.0 622.0 -841.0C677.0 -841.0 809.0 -841.0 864.0 -841.0C866.0 -786.0 891.0 -736.0 942.0 -723.0V-712.0C864.0 -714.0 697.0 -714.0 629.0 -714.0C324.0 -714.0 179.0 -678.0 96.0 -432.0Z"/></g>
<g fill="black" opacity=".8" transform="translate(600 200) scale(0.1 -0.1)"><path d="M0.0 0.0 9.0 -28.0H184.0V0.0H0.0ZM98.0 -293.0 84.0 -320.0H264.0V-293.0H98.0ZM145.0 0.0C116.0 -89.0 58.0 -238.0 8.0 -351.0C60.0 -370.0 101.0 -372.0 134.0 -362.0C178.0 -270.0 239.0 -130.0 270.0 -53.0C293.0 -50.0 307.0 -43.0 314.0 -35.0L192.0 64.0L134.0 0.0H145.0ZM184.0 -293.0C174.0 -504.0 138.0 -718.0 -15.0 -852.0L-7.0 -863.0C230.0 -748.0 294.0 -548.0 317.0 -340.0C340.0 -336.0 349.0 -332.0 355.0 -322.0L237.0 -222.0L173.0 -293.0H184.0ZM96.0 -432.0 120.0 -398.0 80.0 -386.0 76.0 -427.0C51.0 -450.0 3.0 -482.0 -25.0 -498.0L37.0 -576.0C43.0 -572.0 45.0 -562.0 40.0 -552.0C55.0 -524.0 81.0 -464.0 96.0 -432.0ZM96.0 -432.0 87.0 -436.0C152.0 -772.0 298.0 -840.0 622.0 -840.0C677.0 -840.0 809.0 -840.0 865.0 -840.0C867.0 -786.0 892.0 -735.0 942.0 -723.0V-712.0C864.0 -714.0 697.0 -714.0 628.0 -714.0C324.0 -714.0 180.0 -678.0 96.0 -432.0Z"/></g>
</svg>
