<?xml version="1.0" encoding="UTF-8"?>
<svg width="1700" height="300" xmlns="http://www.w3.org/2000/svg">
<rect width="100%" height="100%" fill="white"/>
<g fill="green" transform="translate(100 100) scale(0.1 -0.1)"><path d="M0.0 0.0 7.0 -29.0H570.0C584.0 -29.0 592.0 -24.0 595.0 -14.0C568.0 13.0 524.0 47.0 524.0 47.0L485.0 0.0H0.0ZM261.0 505.0C261.0 85.0 291.0 -241.0 492.0 -358.0C532.0 -386.0 581.0 -404.0 592.0 -380.0C596.0 -372.0 594.0 -364.0 570.0 -340.0L582.0 -199.0L568.0 -197.0C559.0 -238.0 546.0 -282.0 536.0 -307.0C528.0 -327.0 525.0 -328.0 508.0 -316.0C325.0 -211.0 301.0 112.0 305.0 467.0C329.0 470.0 338.0 482.0 340.0 494.0L261.0 505.0ZM389.0 91.0 378.0 82.0C402.0 65.0 432.0 34.0 443.0 10.0C484.0 -15.0 514.0 63.0 389.0 91.0ZM474.0 -63.0C389.0 -215.0 257.0 -309.0 120.0 -362.0L128.0 -380.0C274.0 -337.0 420.0 -244.0 505.0 -105.0C525.0 -108.0 534.0 -104.0 539.0 -95.0L474.0 -63.0ZM25.0 381.0 13.0 374.0C42.0 348.0 76.0 304.0 87.0 270.0C131.0 241.0 164.0 327.0 25.0 381.0ZM179.0 209.0 166.0 203.0C191.0 169.0 219.0 112.0 223.0 71.0C265.0 35.0 308.0 126.0 179.0 209.0ZM116.0 -96.0 105.0 -105.0C144.0 -135.0 196.0 -186.0 213.0 -224.0C265.0 -253.0 293.0 -151.0 116.0 -96.0ZM186.0 369.0C144.0 279.0 92.0 178.0 54.0 114.0L69.0 104.0C116.0 162.0 172.0 248.0 217.0 322.0C237.0 320.0 249.0 328.0 254.0 338.0L186.0 369.0ZM5.0 121.0 33.0 63.0C42.0 65.0 50.0 71.0 55.0 83.0C127.0 100.0 181.0 114.0 217.0 124.0L215.0 141.0C132.0 131.0 45.0 123.0 5.0 121.0ZM329.0 375.0 317.0 366.0C348.0 341.0 387.0 296.0 397.0 261.0C442.0 233.0 473.0 322.0 329.0 375.0ZM493.0 241.0 480.0 234.0C513.0 197.0 550.0 135.0 554.0 88.0C599.0 49.0 642.0 156.0 493.0 241.0ZM511.0 386.0C465.0 296.0 406.0 193.0 364.0 131.0L380.0 120.0C430.0 177.0 492.0 263.0 541.0 339.0C562.0 335.0 574.0 343.0 579.0 353.0L511.0 386.0ZM444.0 503.0C426.0 444.0 401.0 384.0 379.0 345.0L395.0 335.0C425.0 367.0 458.0 414.0 482.0 458.0C502.0 456.0 514.0 465.0 518.0 476.0L444.0 503.0ZM134.0 506.0C111.0 448.0 82.0 387.0 60.0 348.0L75.0 338.0C106.0 370.0 142.0 417.0 172.0 459.0C191.0 457.0 202.0 465.0 207.0 475.0L134.0 506.0ZM327.0 143.0 353.0 84.0C362.0 86.0 370.0 92.0 375.0 104.0C452.0 119.0 509.0 132.0 548.0 142.0L546.0 159.0C459.0 151.0 368.0 144.0 327.0 143.0ZM88.0 0.0C86.0 -141.0 81.0 -276.0 -43.0 -378.0L-28.0 -395.0C122.0 -294.0 132.0 -153.0 136.0 0.0H88.0Z"/></g>
<g fill="green" transform="translate(200 100) scale(0.1 -0.1)"><path d="M0.0 0.0 8.0 -28.0H621.0C635.0 -28.0 645.0 -23.0 648.0 -12.0C614.0 23.0 555.0 74.0 555.0 74.0L503.0 0.0H0.0ZM243.0 530.0C243.0 120.0 253.0 -209.0 459.0 -371.0C506.0 -405.0 578.0 -440.0 618.0 -391.0C633.0 -374.0 627.0 -344.0 594.0 -291.0L613.0 -125.0L603.0 -123.0C586.0 -166.0 562.0 -221.0 546.0 -248.0C537.0 -265.0 531.0 -266.0 517.0 -254.0C365.0 -137.0 357.0 141.0 364.0 484.0C390.0 488.0 399.0 500.0 400.0 513.0L243.0 530.0ZM438.0 106.0 428.0 101.0C440.0 84.0 452.0 53.0 452.0 25.0C523.0 -33.0 618.0 93.0 438.0 106.0ZM464.0 -29.0C407.0 -201.0 297.0 -322.0 170.0 -388.0L177.0 -402.0C339.0 -361.0 474.0 -272.0 559.0 -107.0C585.0 -111.0 595.0 -106.0 601.0 -94.0L464.0 -29.0ZM-4.0 386.0 -14.0 380.0C9.0 352.0 36.0 305.0 43.0 265.0C122.0 210.0 199.0 358.0 -4.0 386.0ZM158.0 215.0 147.0 210.0C168.0 172.0 191.0 115.0 192.0 66.0C269.0 -2.0 364.0 149.0 158.0 215.0ZM172.0 -105.0 163.0 -111.0C191.0 -142.0 213.0 -196.0 210.0 -243.0C300.0 -319.0 405.0 -140.0 172.0 -105.0ZM161.0 387.0C128.0 295.0 84.0 190.0 52.0 125.0L66.0 117.0C124.0 168.0 189.0 245.0 243.0 318.0C264.0 316.0 277.0 324.0 282.0 335.0L161.0 387.0ZM-11.0 144.0 48.0 28.0C59.0 30.0 69.0 37.0 75.0 50.0C144.0 92.0 191.0 123.0 221.0 145.0L220.0 157.0C128.0 150.0 32.0 145.0 -11.0 144.0ZM350.0 384.0 341.0 378.0C366.0 354.0 389.0 312.0 392.0 274.0C474.0 216.0 554.0 374.0 350.0 384.0ZM513.0 242.0 502.0 237.0C525.0 197.0 548.0 136.0 549.0 85.0C625.0 16.0 718.0 169.0 513.0 242.0ZM519.0 400.0C483.0 312.0 436.0 213.0 401.0 153.0L414.0 144.0C474.0 191.0 540.0 261.0 595.0 329.0C616.0 325.0 629.0 333.0 635.0 344.0L519.0 400.0ZM455.0 523.0C442.0 461.0 423.0 395.0 405.0 353.0L420.0 345.0C462.0 372.0 507.0 415.0 543.0 460.0C564.0 459.0 576.0 468.0 581.0 479.0L455.0 523.0ZM103.0 526.0C91.0 459.0 72.0 387.0 54.0 340.0L68.0 332.0C112.0 364.0 159.0 412.0 195.0 463.0C217.0 463.0 229.0 471.0 233.0 483.0L103.0 526.0ZM350.0 170.0 400.0 51.0C412.0 52.0 422.0 59.0 428.0 73.0C489.0 113.0 533.0 144.0 559.0 165.0L558.0 177.0C476.0 173.0 389.0 170.0 350.0 170.0ZM69.0 0.0C68.0 -158.0 72.0 -291.0 -37.0 -403.0L-27.0 -416.0C172.0 -323.0 193.0 -178.0 199.0 0.0H69.0Z"/></g>
<g fill="green" transform="translate(300 100) scale(0.1 -0.1)"><path d="M0.0 0.0 7.0 -29.0H570.0C584.0 -29.0 592.0 -24.0 595.0 -14.0C568.0 13.0 524.0 47.0 524.0 47.0L485.0 0.0H0.0ZM261.0 505.0C261.0 85.0 291.0 -241.0 492.0 -358.0C532.0 -386.0 581.0 -404.0 592.0 -380.0C596.0 -372.0 594.0 -364.0 570.0 -340.0L582.0 -199.0L568.0 -197.0C559.0 -238.0 546.0 -282.0 536.0 -307.0C528.0 -327.0 525.0 -328.0 508.0 -316.0C325.0 -211.0 301.0 112.0 305.0 467.0C329.0 470.0 338.0 482.0 340.0 494.0L261.0 505.0ZM389.0 91.0 378.0 82.0C402.0 65.0 432.0 34.0 443.0 10.0C484.0 -15.0 514.0 63.0 389.0 91.0ZM474.0 -63.0C389.0 -215.0 257.0 -309.0 120.0 -362.0L128.0 -380.0C274.0 -337.0 420.0 -244.0 505.0 -105.0C525.0 -108.0 534.0 -104.0 539.0 -95.0L474.0 -63.0ZM25.0 381.0 13.0 374.0C42.0 348.0 76.0 304.0 87.0 270.0C131.0 241.0 164.0 327.0 25.0 381.0ZM179.0 209.0 166.0 203.0C191.0 169.0 219.0 112.0 223.0 71.0C265.0 35.0 308.0 126.0 179.0 209.0ZM116.0 -96.0 105.0 -105.0C144.0 -135.0 196.0 -186.0 213.0 -224.0C265.0 -253.0 293.0 -151.0 116.0 -96.0ZM186.0 369.0C144.0 279.0 92.0 178.0 54.0 114.0L69.0 104.0C116.0 162.0 172.0 248.0 217.0 322.0C237.0 320.0 249.0 328.0 254.0 338.0L186.0 369.0ZM5.0 121.0 33.0 63.0C42.0 65.0 50.0 71.0 55.0 83.0C127.0 100.0 181.0 114.0 217.0 124.0L215.0 141.0C132.0 131.0 45.0 123.0 5.0 121.0ZM329.0 375.0 317.0 366.0C348.0 341.0 387.0 296.0 397.0 261.0C442.0 233.0 473.0 322.0 329.0 375.0ZM493.0 241.0 480.0 234.0C513.0 197.0 550.0 135.0 554.0 88.0C599.0 49.0 642.0 156.0 493.0 241.0ZM511.0 386.0C465.0 296.0 406.0 193.0 364.0 131.0L380.0 120.0C430.0 177.0 492.0 263.0 541.0 339.0C562.0 335.0 574.0 343.0 579.0 353.0L511.0 386.0ZM444.0 503.0C426.0 444.0 401.0 384.0 379.0 345.0L395.0 335.0C425.0 367.0 458.0 414.0 482.0 458.0C502.0 456.0 514.0 465.0 518.0 476.0L444.0 503.0ZM134.0 506.0C111.0 448.0 82.0 387.0 60.0 348.0L75.0 338.0C106.0 370.0 142.0 417.0 172.0 459.0C191.0 457.0 202.0 465.0 207.0 475.0L134.0 506.0ZM327.0 143.0 353.0 84.0C362.0 86.0 370.0 92.0 375.0 104.0C452.0 119.0 509.0 132.0 548.0 142.0L546.0 159.0C459.0 151.0 368.0 144.0 327.0 143.0ZM88.0 0.0C86.0 -141.0 81.0 -276.0 -43.0 -378.0L-28.0 -395.0C122.0 -294.0 132.0 -153.0 136.0 0.0H88.0Z"/></g>
<g fill="green" transform="translate(400 100) scale(0.1 -0.1)"><path d="M0.0 0.0 8.0 -28.0H621.0C635.0 -28.0 645.0 -23.0 648.0 -12.0C614.0 23.0 555.0 74.0 555.0 74.0L503.0 0.0H0.0ZM243.0 530.0C243.0 120.0 253.0 -209.0 459.0 -371.0C506.0 -405.0 578.0 -440.0 618.0 -391.0C633.0 -374.0 627.0 -344.0 594.0 -291.0L613.0 -125.0L603.0 -123.0C586.0 -166.0 562.0 -221.0 546.0 -248.0C537.0 -265.0 531.0 -266.0 517.0 -254.0C365.0 -137.0 357.0 141.0 364.0 484.0C390.0 488.0 399.0 500.0 400.0 513.0L243.0 530.0ZM438.0 106.0 428.0 101.0C440.0 84.0 452.0 53.0 452.0 25.0C523.0 -33.0 618.0 93.0 438.0 106.0ZM464.0 -29.0C407.0 -201.0 297.0 -322.0 170.0 -388.0L177.0 -402.0C339.0 -361.0 474.0 -272.0 559.0 -107.0C585.0 -111.0 595.0 -106.0 601.0 -94.0L464.0 -29.0ZM-4.0 386.0 -14.0 380.0C9.0 352.0 36.0 305.0 43.0 265.0C122.0 210.0 199.0 358.0 -4.0 386.0ZM158.0 215.0 147.0 210.0C168.0 172.0 191.0 115.0 192.0 66.0C269.0 -2.0 364.0 149.0 158.0 215.0ZM172.0 -105.0 163.0 -111.0C191.0 -142.0 213.0 -196.0 210.0 -243.0C300.0 -319.0 405.0 -140.0 172.0 -105.0ZM161.0 387.0C128.0 295.0 84.0 190.0 52.0 125.0L66.0 117.0C124.0 168.0 189.0 245.0 243.0 318.0C264.0 316.0 277.0 324.0 282.0 335.0L161.0 387.0ZM-11.0 144.0 48.0 28.0C59.0 30.0 69.0 37.0 75.0 50.0C144.0 92.0 191.0 123.0 221.0 145.0L220.0 157.0C128.0 150.0 32.0 145.0 -11.0 144.0ZM350.0 384.0 341.0 378.0C366.0 354.0 389.0 312.0 392.0 274.0C474.0 216.0 554.0 374.0 350.0 384.0ZM513.0 242.0 502.0 237.0C525.0 197.0 548.0 136.0 549.0 85.0C625.0 16.0 718.0 169.0 513.0 242.0ZM519.0 400.0C483.0 312.0 436.0 213.0 401.0 153.0L414.0 144.0C474.0 191.0 540.0 261.0 595.0 329.0C616.0 325.0 629.0 333.0 635.0 344.0L519.0 400.0ZM455.0 523.0C442.0 461.0 423.0 395.0 405.0 353.0L420.0 345.0C462.0 372.0 507.0 415.0 543.0 460.0C564.0 459.0 576.0 468.0 581.0 479.0L455.0 523.0ZM103.0 526.0C91.0 459.0 72.0 387.0 54.0 340.0L68.0 332.0C112.0 364.0 159.0 412.0 195.0 463.0C217.0 463.0 229.0 471.0 233.0 483.0L103.0 526.0ZM350.0 170.0 400.0 51.0C412.0 52.0 422.0 59.0 428.0 73.0C489.0 113.0 533.0 144.0 559.0 165.0L558.0 177.0C476.0 173.0 389.0 170.0 350.0 170.0ZM69.0 0.0C68.0 -158.0 72.0 -291.0 -37.0 -403.0L-27.0 -416.0C172.0 -323.0 193.0 -178.0 199.0 0.0H69.0Z"/></g>
<g fill="red" transform="translate(100 200) scale(0.1 -0.1)"><path d="M0.0 0 7.0 -29.0H570.0C584.0 -29.0 592.0 -24.0 595.0 -14.0C568.0 13.0 524.0 47.0 524.0 47.0L485.0 0.0H0.0ZM261.0 505.0C261.0 85.0 291.0 -241.0 492.0 -358.0C532.0 -386.0 581.0 -404.0 592.0 -380.0C596.0 -372.0 594.0 -364.0 570.0 -340.0L582.0 -199.0L568.0 -197.0C559.0 -238.0 546.0 -282.0 536.0 -307.0C528.0 -327.0 525.0 -328.0 508.0 -316.0C325.0 -211.0 301.0 112.0 305.0 467.0C329.0 470.0 338.0 482.0 340.0 494.0L261.0 505.0ZM389.0 91.0 378.0 82.0C402.0 65.0 432.0 34.0 443.0 10.0C484.0 -15.0 514.0 63.0 389.0 91.0ZM474.0 -63.0C389.0 -215.0 257.0 -309.0 120.0 -362.0L128.0 -380.0C274.0 -337.0 420.0 -244.0 505.0 -105.0C525.0 -108.0 534.0 -104.0 539.0 -95.0L474.0 -63.0ZM25.0 381.0 13.0 374.0C42.0 348.0 76.0 304.0 87.0 270.0C131.0 241.0 164.0 327.0 25.0 381.0ZM179.0 209.0 166.0 203.0C191.0 169.0 219.0 112.0 223.0 71.0C265.0 35.0 308.0 126.0 179.0 209.0ZM116.0 -96.0 105.0 -105.0C144.0 -135.0 196.0 -186.0 213.0 -224.0C265.0 -253.0 293.0 -151.0 116.0 -96.0ZM186.0 369.0C144.0 279.0 92.0 178.0 54.0 114.0L69.0 104.0C116.0 162.0 172.0 248.0 217.0 322.0C237.0 320.0 249.0 328.0 254.0 338.0L186.0 369.0ZM5.0 121.0 33.0 63.0C42.0 65.0 50.0 71.0 55.0 83.0C127.0 100.0 181.0 114.0 217.0 124.0L215.0 141.0C132.0 131.0 45.0 123.0 5.0 121.0ZM329.0 375.0 317.0 366.0C348.0 341.0 387.0 296.0 397.0 261.0C442.0 233.0 473.0 322.0 329.0 375.0ZM493.0 241.0 480.0 234.0C513.0 197.0 550.0 135.0 554.0 88.0C599.0 49.0 642.0 156.0 493.0 241.0ZM511.0 386.0C465.0 296.0 406.0 193.0 364.0 131.0L380.0 120.0C430.0 177.0 492.0 263.0 541.0 339.0C562.0 335.0 574.0 343.0 579.0 353.0L511.0 386.0ZM444.0 503.0C426.0 444.0 401.0 384.0 379.0 345.0L395.0 335.0C425.0 367.0 458.0 414.0 482.0 458.0C502.0 456.0 514.0 465.0 518.0 476.0L444.0 503.0ZM134.0 506.0C111.0 448.0 82.0 387.0 60.0 348.0L75.0 338.0C106.0 370.0 142.0 417.0 172.0 459.0C191.0 457.0 202.0 465.0 207.0 475.0L134.0 506.0ZM327.0 143.0 353.0 84.0C362.0 86.0 370.0 92.0 375.0 104.0C452.0 119.0 509.0 132.0 548.0 142.0L546.0 159.0C459.0 151.0 368.0 144.0 327.0 143.0ZM88.0 0.0C86.0 -141.0 81.0 -276.0 -43.0 -378.0L-28.0 -395.0C122.0 -294.0 132.0 -153.0 136.0 0.0H88.0Z"/></g>
<g fill="black" opacity=".8" transform="translate(100 200) scale(0.1 -0.1)"><path d="M0.0 0.0 7.0 -29.0H570.0C584.0 -29.0 592.0 -24.0 595.0 -14.0C568.0 13.0 524.0 47.0 524.0 47.0L485.0 0.0H0.0ZM261.0 505.0C261.0 85.0 291.0 -241.0 492.0 -358.0C532.0 -386.0 581.0 -404.0 592.0 -380.0C596.0 -372.0 594.0 -364.0 570.0 -340.0L582.0 -199.0L568.0 -197.0C559.0 -238.0 546.0 -282.0 536.0 -307.0C528.0 -327.0 525.0 -328.0 508.0 -316.0C325.0 -211.0 301.0 112.0 305.0 467.0C329.0 470.0 338.0 482.0 340.0 494.0L261.0 505.0ZM389.0 91.0 378.0 82.0C402.0 65.0 432.0 34.0 443.0 10.0C484.0 -15.0 514.0 63.0 389.0 91.0ZM474.0 -63.0C389.0 -215.0 257.0 -309.0 120.0 -362.0L128.0 -380.0C274.0 -337.0 420.0 -244.0 505.0 -105.0C525.0 -108.0 534.0 -104.0 539.0 -95.0L474.0 -63.0ZM25.0 381.0 13.0 374.0C42.0 348.0 76.0 304.0 87.0 270.0C131.0 241.0 164.0 327.0 25.0 381.0ZM179.0 209.0 166.0 203.0C191.0 169.0 219.0 112.0 223.0 71.0C265.0 35.0 308.0 126.0 179.0 209.0ZM116.0 -96.0 105.0 -105.0C144.0 -135.0 196.0 -186.0 213.0 -224.0C265.0 -253.0 293.0 -151.0 116.0 -96.0ZM186.0 369.0C144.0 279.0 92.0 178.0 54.0 114.0L69.0 104.0C116.0 162.0 172.0 248.0 217.0 322.0C237.0 320.0 249.0 328.0 254.0 338.0L186.0 369.0ZM5.0 121.0 33.0 63.0C42.0 65.0 50.0 71.0 55.0 83.0C127.0 100.0 181.0 114.0 217.0 124.0L215.0 141.0C132.0 131.0 45.0 123.0 5.0 121.0ZM329.0 375.0 317.0 366.0C348.0 341.0 387.0 296.0 397.0 261.0C442.0 233.0 473.0 322.0 329.0 375.0ZM493.0 241.0 480.0 234.0C513.0 197.0 550.0 135.0 554.0 88.0C599.0 49.0 642.0 156.0 493.0 241.0ZM511.0 386.0C465.0 296.0 406.0 193.0 364.0 131.0L380.0 120.0C430.0 177.0 492.0 263.0 541.0 339.0C562.0 335.0 574.0 343.0 579.0 353.0L511.0 386.0ZM444.0 503.0C426.0 444.0 401.0 384.0 379.0 345.0L395.0 335.0C425.0 367.0 458.0 414.0 482.0 458.0C502.0 456.0 514.0 465.0 518.0 476.0L444.0 503.0ZM134.0 506.0C111.0 448.0 82.0 387.0 60.0 348.0L75.0 338.0C106.0 370.0 142.0 417.0 172.0 459.0C191.0 457.0 202.0 465.0 207.0 475.0L134.0 506.0ZM327.0 143.0 353.0 84.0C362.0 86.0 370.0 92.0 375.0 104.0C452.0 119.0 509.0 132.0 548.0 142.0L546.0 159.0C459.0 151.0 368.0 144.0 327.0 143.0ZM88.0 0.0C86.0 -141.0 81.0 -276.0 -43.0 -378.0L-28.0 -395.0C122.0 -294.0 132.0 -153.0 136.0 0.0H88.0Z"/></g>
<g fill="red" transform="translate(200 200) scale(0.1 -0.1)"><path d="M0.0 0 8.0 -28.0H621.0C635.0 -28.0 645.0 -23.0 648.0 -12.0C614.0 23.0 555.0 74.0 555.0 74.0L503.0 0.0H0.0ZM243.0 530.0C243.0 120.0 253.0 -209.0 459.0 -371.0C506.0 -405.0 578.0 -440.0 618.0 -391.0C633.0 -374.0 627.0 -344.0 594.0 -291.0L613.0 -125.0L603.0 -123.0C586.0 -166.0 562.0 -221.0 546.0 -248.0C537.0 -265.0 531.0 -266.0 517.0 -254.0C365.0 -137.0 357.0 141.0 364.0 484.0C390.0 488.0 399.0 500.0 400.0 513.0L243.0 530.0ZM438.0 106.0 428.0 101.0C440.0 84.0 452.0 53.0 452.0 25.0C523.0 -33.0 618.0 93.0 438.0 106.0ZM464.0 -29.0C407.0 -201.0 297.0 -322.0 170.0 -388.0L177.0 -402.0C339.0 -361.0 474.0 -272.0 559.0 -107.0C585.0 -111.0 595.0 -106.0 601.0 -94.0L464.0 -29.0ZM-4.0 386.0 -14.0 380.0C9.0 352.0 36.0 305.0 43.0 265.0C122.0 210.0 199.0 358.0 -4.0 386.0ZM158.0 215.0 147.0 210.0C168.0 172.0 191.0 115.0 192.0 66.0C269.0 -2.0 364.0 149.0 158.0 215.0ZM172.0 -105.0 163.0 -111.0C191.0 -142.0 213.0 -196.0 210.0 -243.0C300.0 -319.0 405.0 -140.0 172.0 -105.0ZM161.0 387.0C128.0 295.0 84.0 190.0 52.0 125.0L66.0 117.0C124.0 168.0 189.0 245.0 243.0 318.0C264.0 316.0 277.0 324.0 282.0 335.0L161.0 387.0ZM-11.0 144.0 48.0 28.0C59.0 30.0 69.0 37.0 75.0 50.0C144.0 92.0 191.0 123.0 221.0 145.0L220.0 157.0C128.0 150.0 32.0 145.0 -11.0 144.0ZM350.0 384.0 341.0 378.0C366.0 354.0 389.0 312.0 392.0 274.0C474.0 216.0 554.0 374.0 350.0 384.0ZM513.0 242.0 502.0 237.0C525.0 197.0 548.0 136.0 549.0 85.0C625.0 16.0 718.0 169.0 513.0 242.0ZM519.0 400.0C483.0 312.0 436.0 213.0 401.0 153.0L414.0 144.0C474.0 191.0 540.0 261.0 595.0 329.0C616.0 325.0 629.0 333.0 635.0 344.0L519.0 400.0ZM455.0 523.0C442.0 461.0 423.0 395.0 405.0 353.0L420.0 345.0C462.0 372.0 507.0 415.0 543.0 460.0C564.0 459.0 576.0 468.0 581.0 479.0L455.0 523.0ZM103.0 526.0C91.0 459.0 72.0 387.0 54.0 340.0L68.0 332.0C112.0 364.0 159.0 412.0 195.0 463.0C217.0 463.0 229.0 471.0 233.0 483.0L103.0 526.0ZM350.0 170.0 400.0 51.0C412.0 52.0 422.0 59.0 428.0 73.0C489.0 113.0 533.0 144.0 559.0 165.0L558.0 177.0C476.0 173.0 389.0 170.0 350.0 170.0ZM69.0 0.0C68.0 -158.0 72.0 -291.0 -37.0 -403.0L-27.0 -416.0C172.0 -323.0 193.0 -178.0 199.0 0.0H69.0Z"/></g>
<g fill="black" opacity=".8" transform="translate(200 200) scale(0.1 -0.1)"><path d="M0.0 0.0 8.0 -28.0H621.0C635.0 -28.0 645.0 -23.0 648.0 -12.0C614.0 23.0 555.0 74.0 555.0 74.0L503.0 0.0H0.0ZM243.0 530.0C243.0 120.0 253.0 -209.0 459.0 -371.0C506.0 -405.0 578.0 -440.0 618.0 -391.0C633.0 -374.0 627.0 -344.0 594.0 -291.0L613.0 -125.0L603.0 -123.0C586.0 -166.0 562.0 -221.0 546.0 -248.0C537.0 -265.0 531.0 -266.0 517.0 -254.0C365.0 -137.0 357.0 141.0 364.0 484.0C390.0 488.0 399.0 500.0 400.0 513.0L243.0 530.0ZM438.0 106.0 428.0 101.0C440.0 84.0 452.0 53.0 452.0 25.0C523.0 -33.0 618.0 93.0 438.0 106.0ZM464.0 -29.0C407.0 -201.0 297.0 -322.0 170.0 -388.0L177.0 -402.0C339.0 -361.0 474.0 -272.0 559.0 -107.0C585.0 -111.0 595.0 -106.0 601.0 -94.0L464.0 -29.0ZM-4.0 386.0 -14.0 380.0C9.0 352.0 36.0 305.0 43.0 265.0C122.0 210.0 199.0 358.0 -4.0 386.0ZM158.0 215.0 147.0 210.0C168.0 172.0 191.0 115.0 192.0 66.0C269.0 -2.0 364.0 149.0 158.0 215.0ZM172.0 -105.0 163.0 -111.0C191.0 -142.0 213.0 -196.0 210.0 -243.0C300.0 -319.0 405.0 -140.0 172.0 -105.0ZM161.0 387.0C128.0 295.0 84.0 190.0 52.0 125.0L66.0 117.0C124.0 168.0 189.0 245.0 243.0 318.0C264.0 316.0 277.0 324.0 282.0 335.0L161.0 387.0ZM-11.0 144.0 48.0 28.0C59.0 30.0 69.0 37.0 75.0 50.0C144.0 92.0 191.0 123.0 221.0 145.0L220.0 157.0C128.0 150.0 32.0 145.0 -11.0 144.0ZM350.0 384.0 341.0 378.0C366.0 354.0 389.0 312.0 392.0 274.0C474.0 216.0 554.0 374.0 350.0 384.0ZM513.0 242.0 502.0 237.0C525.0 197.0 548.0 136.0 549.0 85.0C625.0 16.0 718.0 169.0 513.0 242.0ZM519.0 400.0C483.0 312.0 436.0 213.0 401.0 153.0L414.0 144.0C474.0 191.0 540.0 261.0 595.0 329.0C616.0 325.0 629.0 333.0 635.0 344.0L519.0 400.0ZM455.0 523.0C442.0 461.0 423.0 395.0 405.0 353.0L420.0 345.0C462.0 372.0 507.0 415.0 543.0 460.0C564.0 459.0 576.0 468.0 581.0 479.0L455.0 523.0ZM103.0 526.0C91.0 459.0 72.0 387.0 54.0 340.0L68.0 332.0C112.0 364.0 159.0 412.0 195.0 463.0C217.0 463.0 229.0 471.0 233.0 483.0L103.0 526.0ZM350.0 170.0 400.0 51.0C412.0 52.0 422.0 59.0 428.0 73.0C489.0 113.0 533.0 144.0 559.0 165.0L558.0 177.0C476.0 173.0 389.0 170.0 350.0 170.0ZM69.0 0.0C68.0 -158.0 72.0 -291.0 -37.0 -403.0L-27.0 -416.0C172.0 -323.0 193.0 -178.0 199.0 0.0H69.0Z"/></g>
</svg>
