<?xml version="1.0" encoding="UTF-8"?>
<svg width="1700" height="400" xmlns="http://www.w3.org/2000/svg">
<rect width="100%" height="100%" fill="white"/>
<g fill="green" transform="translate(100 100) scale(0.1 -0.1)"><path d="M-0.0 -0.0V-901.0H9.0C26.0 -901.0 43.0 -889.0 43.0 -880.0V-37.0C68.0 -33.0 76.0 -23.0 79.0 -9.0ZM-84.0 -203.0C-86.0 -278.0 -117.0 -361.0 -148.0 -394.0C-163.0 -411.0 -171.0 -431.0 -159.0 -445.0C-143.0 -461.0 -113.0 -447.0 -97.0 -424.0C-71.0 -390.0 -46.0 -309.0 -65.0 -204.0ZM92.0 -174.0 78.0 -180.0C109.0 -226.0 141.0 -301.0 143.0 -356.0C192.0 -402.0 241.0 -287.0 92.0 -174.0Z"/></g>
<g fill="green" transform="translate(200 100) scale(0.1 -0.1)"><path d="M0.0 0.0V-941.0H29.0C83.0 -941.0 143.0 -913.0 143.0 -902.0V-46.0C170.0 -42.0 178.0 -31.0 180.0 -17.0ZM-74.0 -183.0C-68.0 -251.0 -99.0 -322.0 -129.0 -351.0C-156.0 -370.0 -171.0 -401.0 -156.0 -432.0C-137.0 -467.0 -87.0 -468.0 -60.0 -439.0C-22.0 -397.0 -6.0 -306.0 -60.0 -183.0ZM148.0 -163.0 138.0 -168.0C157.0 -210.0 171.0 -272.0 167.0 -326.0C250.0 -413.0 372.0 -246.0 148.0 -163.0Z"/></g>
<g fill="green" transform="translate(300 100) scale(0.1 -0.1)"><path d="M0.0 0.0V-865.0H9.0C25.0 -865.0 41.0 -854.0 41.0 -845.0V-36.0C65.0 -32.0 73.0 -22.0 76.0 -9.0ZM-81.0 -195.0C-83.0 -268.0 -113.0 -347.0 -143.0 -379.0C-157.0 -395.0 -165.0 -415.0 -153.0 -428.0C-138.0 -443.0 -109.0 -430.0 -94.0 -408.0C-69.0 -375.0 -44.0 -297.0 -63.0 -196.0ZM89.0 -168.0 75.0 -174.0C105.0 -218.0 136.0 -290.0 138.0 -343.0C185.0 -388.0 232.0 -277.0 89.0 -168.0Z"/></g>
<g fill="green" transform="translate(400 100) scale(0.1 -0.1)"><path d="M0.0 0.0V-904.0H28.0C80.0 -904.0 138.0 -877.0 138.0 -866.0V-44.0C164.0 -40.0 171.0 -30.0 173.0 -16.0ZM-72.0 -176.0C-66.0 -241.0 -96.0 -309.0 -125.0 -337.0C-151.0 -355.0 -165.0 -385.0 -151.0 -415.0C-133.0 -449.0 -85.0 -450.0 -59.0 -422.0C-22.0 -382.0 -6.0 -294.0 -58.0 -176.0ZM143.0 -156.0 133.0 -161.0C151.0 -202.0 165.0 -261.0 161.0 -313.0C241.0 -397.0 358.0 -236.0 143.0 -156.0Z"/></g>
<g fill="green" transform="translate(500 100) scale(0.1 -0.1)"><path d="M0.0 -0.0V-904.0H9.0C26.0 -904.0 45.0 -892.0 45.0 -883.0V-37.0C68.0 -33.0 76.0 -23.0 79.0 -9.0ZM-76.0 -220.0C-71.0 -286.0 -91.0 -366.0 -114.0 -400.0C-129.0 -417.0 -135.0 -437.0 -124.0 -451.0C-108.0 -466.0 -79.0 -452.0 -65.0 -429.0C-45.0 -395.0 -34.0 -317.0 -59.0 -220.0ZM72.0 -184.0 59.0 -190.0C83.0 -231.0 107.0 -299.0 106.0 -350.0C152.0 -396.0 206.0 -289.0 72.0 -184.0Z"/></g>
<g fill="green" transform="translate(600 100) scale(0.1 -0.1)"><path d="M0.0 0.0V-944.0H26.0C75.0 -944.0 128.0 -919.0 128.0 -908.0V-45.0C154.0 -41.0 162.0 -30.0 165.0 -16.0ZM-49.0 -194.0C-41.0 -266.0 -65.0 -349.0 -89.0 -383.0C-109.0 -404.0 -117.0 -433.0 -100.0 -456.0C-79.0 -481.0 -35.0 -473.0 -18.0 -441.0C7.0 -394.0 11.0 -306.0 -33.0 -194.0ZM128.0 -196.0 116.0 -201.0C131.0 -240.0 145.0 -298.0 142.0 -346.0C202.0 -411.0 291.0 -289.0 128.0 -196.0Z"/></g>
<g fill="green" transform="translate(700 100) scale(0.1 -0.1)"><path d="M0.0 0.0V-939.0H9.0C27.0 -939.0 45.0 -926.0 45.0 -917.0V-39.0C71.0 -34.0 79.0 -24.0 82.0 -9.0ZM-81.0 -190.0C-82.0 -266.0 -113.0 -353.0 -144.0 -385.0C-160.0 -402.0 -167.0 -424.0 -155.0 -438.0C-139.0 -454.0 -108.0 -440.0 -91.0 -417.0C-65.0 -382.0 -41.0 -298.0 -62.0 -192.0ZM81.0 -150.0 68.0 -155.0C94.0 -194.0 122.0 -255.0 126.0 -301.0C173.0 -344.0 223.0 -239.0 81.0 -150.0Z"/></g>
<g fill="green" transform="translate(800 100) scale(0.1 -0.1)"><path d="M0.0 0.0V-980.0H28.0C82.0 -980.0 140.0 -953.0 140.0 -941.0V-47.0C169.0 -43.0 177.0 -32.0 179.0 -17.0ZM-62.0 -160.0C-55.0 -228.0 -85.0 -304.0 -110.0 -334.0C-138.0 -357.0 -150.0 -389.0 -133.0 -419.0C-112.0 -455.0 -58.0 -452.0 -35.0 -419.0C-3.0 -371.0 4.0 -280.0 -48.0 -160.0ZM144.0 -111.0 135.0 -116.0C154.0 -156.0 169.0 -215.0 165.0 -267.0C253.0 -357.0 382.0 -183.0 144.0 -111.0Z"/></g>
<g fill="green" transform="translate(900 100) scale(0.1 -0.1)"><path d="M0.0 -0.0V-908.0H9.0C26.0 -908.0 44.0 -896.0 44.0 -887.0V-37.0C69.0 -33.0 77.0 -23.0 80.0 -9.0ZM-90.0 -176.0C-90.0 -252.0 -119.0 -338.0 -149.0 -371.0C-165.0 -388.0 -172.0 -408.0 -160.0 -422.0C-144.0 -438.0 -113.0 -423.0 -99.0 -401.0C-73.0 -365.0 -50.0 -282.0 -71.0 -177.0ZM92.0 -152.0 79.0 -158.0C108.0 -204.0 141.0 -278.0 144.0 -333.0C193.0 -377.0 241.0 -264.0 92.0 -152.0Z"/></g>
<g fill="green" transform="translate(1000 100) scale(0.1 -0.1)"><path d="M0.0 0.0V-948.0H29.0C82.0 -948.0 143.0 -921.0 143.0 -910.0V-46.0C170.0 -42.0 178.0 -31.0 180.0 -17.0ZM-75.0 -195.0C-68.0 -256.0 -101.0 -321.0 -129.0 -347.0C-159.0 -368.0 -177.0 -401.0 -161.0 -436.0C-140.0 -476.0 -85.0 -480.0 -57.0 -451.0C-18.0 -407.0 -5.0 -316.0 -62.0 -195.0ZM147.0 -191.0 137.0 -196.0C159.0 -236.0 175.0 -297.0 172.0 -350.0C261.0 -438.0 384.0 -262.0 147.0 -191.0Z"/></g>
<g fill="red" transform="translate(100 200) scale(0.1 -0.1)"><path d="M0.0 0.0V-908.0H9.0C26.0 -908.0 44.0 -896.0 44.0 -887.0V-37.0C69.0 -33.0 77.0 -23.0 80.0 -9.0ZM-84.0 -197.0C-84.0 -270.0 -113.0 -351.0 -142.0 -384.0C-157.0 -401.0 -164.0 -421.0 -152.0 -435.0C-137.0 -451.0 -106.0 -437.0 -91.0 -414.0C-67.0 -380.0 -45.0 -300.0 -65.0 -198.0ZM79.0 -150.0 66.0 -157.0C97.0 -197.0 134.0 -263.0 140.0 -313.0C189.0 -353.0 233.0 -245.0 79.0 -150.0Z"/></g>
<g fill="black" opacity=".8" transform="translate(100 200) scale(0.1 -0.1)"><path d="M0.0 0.0V-910.0H9.0C26.0 -910.0 44.0 -898.0 44.0 -889.0V-37.0C69.0 -33.0 77.0 -23.0 80.0 -9.0ZM-84.0 -186.0C-84.0 -261.0 -112.0 -345.0 -141.0 -378.0C-157.0 -394.0 -164.0 -415.0 -152.0 -429.0C-136.0 -444.0 -106.0 -430.0 -91.0 -408.0C-66.0 -373.0 -44.0 -291.0 -65.0 -188.0ZM85.0 -155.0 72.0 -161.0C99.0 -204.0 129.0 -272.0 131.0 -322.0C179.0 -366.0 228.0 -258.0 85.0 -155.0Z"/></g>
<g fill="red" transform="translate(200 200) scale(0.1 -0.1)"><path d="M0.0 0.0V-949.0H28.0C81.0 -949.0 140.0 -922.0 140.0 -911.0V-46.0C168.0 -42.0 175.0 -31.0 177.0 -17.0ZM-63.0 -178.0C-57.0 -241.0 -88.0 -309.0 -114.0 -337.0C-143.0 -358.0 -158.0 -390.0 -142.0 -423.0C-121.0 -459.0 -68.0 -461.0 -42.0 -429.0C-7.0 -386.0 3.0 -296.0 -49.0 -178.0ZM145.0 -166.0 135.0 -171.0C154.0 -211.0 170.0 -271.0 167.0 -323.0C250.0 -407.0 368.0 -242.0 145.0 -166.0Z"/></g>
<g fill="black" opacity=".8" transform="translate(200 200) scale(0.1 -0.1)"><path d="M0.0 0.0V-950.0H28.0C80.0 -950.0 139.0 -923.0 139.0 -912.0V-46.0C166.0 -42.0 174.0 -31.0 176.0 -17.0ZM-67.0 -180.0C-59.0 -245.0 -90.0 -316.0 -116.0 -344.0C-144.0 -366.0 -158.0 -397.0 -142.0 -429.0C-121.0 -465.0 -69.0 -465.0 -44.0 -434.0C-10.0 -389.0 0.0 -299.0 -53.0 -180.0ZM142.0 -161.0 132.0 -166.0C152.0 -205.0 167.0 -265.0 164.0 -316.0C248.0 -401.0 367.0 -235.0 142.0 -161.0Z"/></g>
<g fill="red" transform="translate(300 200) scale(0.1 -0.1)"><path d="M0.0 0.0V-908.0H9.0C26.0 -908.0 44.0 -896.0 44.0 -887.0V-37.0C69.0 -33.0 77.0 -23.0 80.0 -9.0ZM-87.0 -167.0C-87.0 -242.0 -115.0 -328.0 -145.0 -361.0C-160.0 -378.0 -167.0 -399.0 -155.0 -412.0C-140.0 -428.0 -108.0 -413.0 -94.0 -391.0C-69.0 -355.0 -47.0 -272.0 -68.0 -168.0ZM85.0 -150.0 71.0 -156.0C99.0 -202.0 132.0 -275.0 134.0 -331.0C182.0 -376.0 231.0 -263.0 85.0 -150.0Z"/></g>
<g fill="black" opacity=".8" transform="translate(300 200) scale(0.1 -0.1)"><path d="M0.0 0.0V-909.0H9.0C26.0 -909.0 44.0 -897.0 44.0 -888.0V-37.0C69.0 -33.0 77.0 -23.0 80.0 -9.0ZM-87.0 -175.0C-87.0 -250.0 -116.0 -335.0 -145.0 -368.0C-161.0 -385.0 -168.0 -405.0 -156.0 -419.0C-140.0 -435.0 -109.0 -420.0 -95.0 -398.0C-70.0 -362.0 -47.0 -280.0 -69.0 -176.0ZM87.0 -147.0 75.0 -153.0C102.0 -196.0 133.0 -266.0 136.0 -318.0C184.0 -361.0 232.0 -252.0 87.0 -147.0Z"/></g>
<g fill="red" transform="translate(400 200) scale(0.1 -0.1)"><path d="M0.0 0.0V-949.0H28.0C81.0 -949.0 140.0 -922.0 140.0 -911.0V-46.0C168.0 -42.0 175.0 -31.0 177.0 -17.0ZM-70.0 -195.0C-63.0 -255.0 -94.0 -321.0 -119.0 -347.0C-150.0 -368.0 -167.0 -402.0 -150.0 -437.0C-129.0 -476.0 -73.0 -479.0 -46.0 -448.0C-10.0 -404.0 -2.0 -313.0 -57.0 -195.0ZM143.0 -166.0 133.0 -171.0C154.0 -210.0 171.0 -269.0 167.0 -322.0C256.0 -409.0 381.0 -233.0 143.0 -166.0Z"/></g>
<g fill="black" opacity=".8" transform="translate(400 200) scale(0.1 -0.1)"><path d="M0.0 0.0V-949.0H28.0C81.0 -949.0 140.0 -922.0 140.0 -911.0V-46.0C168.0 -42.0 175.0 -31.0 177.0 -17.0ZM-70.0 -186.0C-63.0 -247.0 -95.0 -314.0 -121.0 -341.0C-151.0 -363.0 -167.0 -395.0 -151.0 -429.0C-129.0 -468.0 -75.0 -470.0 -49.0 -440.0C-12.0 -395.0 -2.0 -305.0 -57.0 -186.0ZM144.0 -173.0 134.0 -178.0C155.0 -218.0 171.0 -277.0 168.0 -329.0C256.0 -416.0 378.0 -243.0 144.0 -173.0Z"/></g>
<g fill="red" transform="translate(500 200) scale(0.1 -0.1)"><path d="M0.0 0.0V-908.0H9.0C26.0 -908.0 44.0 -896.0 44.0 -887.0V-37.0C69.0 -33.0 77.0 -23.0 80.0 -9.0ZM-87.0 -167.0C-87.0 -242.0 -115.0 -328.0 -145.0 -361.0C-160.0 -378.0 -167.0 -399.0 -155.0 -412.0C-140.0 -428.0 -108.0 -413.0 -94.0 -391.0C-69.0 -355.0 -47.0 -272.0 -68.0 -168.0ZM90.0 -141.0 76.0 -147.0C101.0 -188.0 130.0 -255.0 132.0 -305.0C178.0 -348.0 228.0 -242.0 90.0 -141.0Z"/></g>
<g fill="black" opacity=".8" transform="translate(500 200) scale(0.1 -0.1)"><path d="M0.0 0.0V-908.0H9.0C26.0 -908.0 44.0 -896.0 44.0 -887.0V-37.0C69.0 -33.0 77.0 -23.0 80.0 -9.0ZM-87.0 -168.0C-87.0 -243.0 -116.0 -329.0 -145.0 -361.0C-161.0 -378.0 -168.0 -399.0 -156.0 -412.0C-140.0 -428.0 -109.0 -413.0 -95.0 -392.0C-70.0 -356.0 -47.0 -273.0 -69.0 -169.0ZM86.0 -140.0 74.0 -145.0C100.0 -188.0 131.0 -255.0 135.0 -305.0C182.0 -347.0 230.0 -240.0 86.0 -140.0Z"/></g>
<g fill="red" transform="translate(600 200) scale(0.1 -0.1)"><path d="M0.0 0.0V-949.0H28.0C81.0 -949.0 140.0 -922.0 140.0 -911.0V-46.0C168.0 -42.0 175.0 -31.0 177.0 -17.0ZM-70.0 -180.0C-63.0 -240.0 -94.0 -306.0 -119.0 -332.0C-150.0 -353.0 -167.0 -387.0 -150.0 -422.0C-129.0 -461.0 -73.0 -464.0 -46.0 -433.0C-10.0 -389.0 -2.0 -298.0 -57.0 -180.0ZM143.0 -166.0 133.0 -171.0C154.0 -210.0 171.0 -269.0 167.0 -322.0C256.0 -409.0 381.0 -233.0 143.0 -166.0Z"/></g>
<g fill="black" opacity=".8" transform="translate(600 200) scale(0.1 -0.1)"><path d="M0.0 0.0V-948.0H28.0C80.0 -948.0 140.0 -922.0 140.0 -910.0V-46.0C167.0 -42.0 175.0 -31.0 177.0 -17.0ZM-69.0 -182.0C-62.0 -242.0 -94.0 -308.0 -119.0 -334.0C-149.0 -356.0 -166.0 -389.0 -149.0 -423.0C-128.0 -463.0 -72.0 -465.0 -46.0 -435.0C-10.0 -389.0 -1.0 -300.0 -56.0 -182.0ZM143.0 -166.0 134.0 -171.0C155.0 -210.0 171.0 -268.0 168.0 -319.0C258.0 -407.0 382.0 -231.0 143.0 -166.0Z"/></g>
<g fill="red" transform="translate(700 200) scale(0.1 -0.1)"><path d="M0.0 0.0V-908.0H9.0C26.0 -908.0 44.0 -896.0 44.0 -887.0V-37.0C69.0 -33.0 77.0 -23.0 80.0 -9.0ZM-77.0 -198.0C-77.0 -270.0 -106.0 -352.0 -135.0 -385.0C-150.0 -401.0 -157.0 -422.0 -145.0 -436.0C-130.0 -452.0 -99.0 -438.0 -84.0 -415.0C-60.0 -381.0 -38.0 -301.0 -58.0 -199.0ZM80.0 -164.0 66.0 -170.0C93.0 -210.0 121.0 -277.0 123.0 -327.0C170.0 -371.0 221.0 -264.0 80.0 -164.0Z"/></g>
<g fill="black" opacity=".8" transform="translate(700 200) scale(0.1 -0.1)"><path d="M0.0 0.0V-908.0H9.0C26.0 -908.0 44.0 -896.0 44.0 -887.0V-37.0C69.0 -33.0 77.0 -23.0 80.0 -9.0ZM-82.0 -196.0C-81.0 -268.0 -107.0 -352.0 -135.0 -384.0C-151.0 -401.0 -158.0 -422.0 -146.0 -436.0C-130.0 -451.0 -100.0 -437.0 -85.0 -414.0C-61.0 -380.0 -41.0 -299.0 -63.0 -197.0ZM82.0 -163.0 69.0 -169.0C95.0 -211.0 124.0 -279.0 126.0 -329.0C173.0 -374.0 223.0 -265.0 82.0 -163.0Z"/></g>
<g fill="red" transform="translate(800 200) scale(0.1 -0.1)"><path d="M0.0 0.0V-949.0H28.0C81.0 -949.0 140.0 -922.0 140.0 -911.0V-46.0C168.0 -42.0 175.0 -31.0 177.0 -17.0ZM-63.0 -179.0C-56.0 -246.0 -85.0 -321.0 -110.0 -351.0C-136.0 -372.0 -149.0 -403.0 -132.0 -432.0C-112.0 -464.0 -62.0 -462.0 -39.0 -431.0C-7.0 -386.0 1.0 -296.0 -48.0 -179.0ZM141.0 -166.0 130.0 -171.0C149.0 -211.0 166.0 -271.0 163.0 -322.0C241.0 -401.0 351.0 -245.0 141.0 -166.0Z"/></g>
<g fill="black" opacity=".8" transform="translate(800 200) scale(0.1 -0.1)"><path d="M0.0 0.0V-949.0H28.0C79.0 -949.0 136.0 -922.0 136.0 -911.0V-46.0C164.0 -42.0 171.0 -31.0 174.0 -16.0ZM-62.0 -182.0C-55.0 -248.0 -84.0 -323.0 -110.0 -352.0C-136.0 -374.0 -148.0 -405.0 -132.0 -434.0C-111.0 -467.0 -61.0 -465.0 -38.0 -434.0C-6.0 -388.0 3.0 -299.0 -48.0 -182.0ZM139.0 -164.0 129.0 -169.0C147.0 -209.0 162.0 -268.0 159.0 -319.0C237.0 -399.0 350.0 -243.0 139.0 -164.0Z"/></g>
<g fill="red" transform="translate(900 200) scale(0.1 -0.1)"><path d="M0.0 0.0V-908.0H9.0C26.0 -908.0 45.0 -896.0 45.0 -887.0V-37.0C69.0 -33.0 77.0 -23.0 80.0 -9.0ZM-83.0 -197.0C-80.0 -268.0 -103.0 -350.0 -129.0 -384.0C-144.0 -401.0 -151.0 -422.0 -139.0 -435.0C-123.0 -451.0 -93.0 -437.0 -79.0 -413.0C-57.0 -379.0 -41.0 -298.0 -64.0 -198.0ZM82.0 -150.0 68.0 -156.0C93.0 -197.0 120.0 -264.0 121.0 -314.0C168.0 -358.0 219.0 -252.0 82.0 -150.0Z"/></g>
<g fill="black" opacity=".8" transform="translate(900 200) scale(0.1 -0.1)"><path d="M0.0 0.0V-908.0H9.0C26.0 -908.0 44.0 -896.0 44.0 -887.0V-37.0C69.0 -33.0 77.0 -23.0 80.0 -9.0ZM-82.0 -190.0C-80.0 -262.0 -106.0 -346.0 -134.0 -379.0C-149.0 -395.0 -156.0 -416.0 -144.0 -430.0C-128.0 -445.0 -98.0 -431.0 -84.0 -409.0C-60.0 -374.0 -42.0 -293.0 -64.0 -191.0ZM81.0 -158.0 68.0 -164.0C93.0 -205.0 122.0 -272.0 124.0 -323.0C170.0 -367.0 221.0 -259.0 81.0 -158.0Z"/></g>
<g fill="red" transform="translate(1000 200) scale(0.1 -0.1)"><path d="M0.0 0.0V-949.0H26.0C76.0 -949.0 131.0 -924.0 131.0 -913.0V-45.0C158.0 -41.0 165.0 -31.0 168.0 -16.0ZM-67.0 -178.0C-60.0 -245.0 -89.0 -320.0 -114.0 -350.0C-140.0 -371.0 -153.0 -402.0 -136.0 -431.0C-116.0 -463.0 -66.0 -461.0 -43.0 -430.0C-11.0 -385.0 -3.0 -295.0 -52.0 -178.0ZM136.0 -170.0 125.0 -175.0C144.0 -217.0 160.0 -279.0 157.0 -333.0C234.0 -411.0 342.0 -256.0 136.0 -170.0Z"/></g>
<g fill="black" opacity=".8" transform="translate(1000 200) scale(0.1 -0.1)"><path d="M0.0 0.0V-948.0H27.0C79.0 -948.0 135.0 -922.0 135.0 -911.0V-45.0C162.0 -41.0 170.0 -31.0 173.0 -16.0ZM-61.0 -184.0C-54.0 -249.0 -83.0 -323.0 -108.0 -352.0C-134.0 -374.0 -146.0 -405.0 -130.0 -434.0C-109.0 -468.0 -58.0 -466.0 -35.0 -435.0C-4.0 -389.0 4.0 -300.0 -47.0 -184.0ZM138.0 -171.0 127.0 -176.0C146.0 -215.0 161.0 -273.0 158.0 -323.0C237.0 -403.0 348.0 -247.0 138.0 -171.0Z"/></g>
<g fill="red" transform="translate(1100 200) scale(0.1 -0.1)"><path d="M0.0 0.0V-908.0H9.0C26.0 -908.0 44.0 -896.0 44.0 -887.0V-37.0C69.0 -33.0 77.0 -23.0 80.0 -9.0ZM-77.0 -198.0C-77.0 -273.0 -105.0 -359.0 -135.0 -394.0C-150.0 -410.0 -157.0 -432.0 -145.0 -445.0C-129.0 -461.0 -98.0 -446.0 -83.0 -423.0C-59.0 -387.0 -37.0 -304.0 -58.0 -199.0ZM80.0 -164.0 66.0 -170.0C93.0 -215.0 123.0 -288.0 124.0 -342.0C170.0 -389.0 223.0 -275.0 80.0 -164.0Z"/></g>
<g fill="black" opacity=".8" transform="translate(1100 200) scale(0.1 -0.1)"><path d="M0.0 0.0V-909.0H9.0C26.0 -909.0 44.0 -897.0 44.0 -888.0V-37.0C69.0 -33.0 77.0 -23.0 80.0 -9.0ZM-81.0 -203.0C-80.0 -275.0 -106.0 -358.0 -134.0 -391.0C-150.0 -408.0 -156.0 -428.0 -145.0 -442.0C-129.0 -458.0 -99.0 -444.0 -84.0 -421.0C-60.0 -386.0 -41.0 -306.0 -63.0 -204.0ZM82.0 -170.0 69.0 -176.0C96.0 -218.0 124.0 -288.0 126.0 -339.0C173.0 -385.0 224.0 -275.0 82.0 -170.0Z"/></g>
<g fill="red" transform="translate(1200 200) scale(0.1 -0.1)"><path d="M0.0 0.0V-949.0H28.0C80.0 -949.0 137.0 -922.0 137.0 -911.0V-46.0C164.0 -42.0 172.0 -31.0 174.0 -17.0ZM-63.0 -179.0C-56.0 -249.0 -84.0 -327.0 -110.0 -358.0C-136.0 -379.0 -148.0 -410.0 -131.0 -439.0C-110.0 -471.0 -60.0 -468.0 -38.0 -435.0C-6.0 -390.0 2.0 -298.0 -48.0 -179.0ZM141.0 -166.0 130.0 -170.0C148.0 -214.0 162.0 -277.0 157.0 -331.0C233.0 -412.0 345.0 -257.0 141.0 -166.0Z"/></g>
<g fill="black" opacity=".8" transform="translate(1200 200) scale(0.1 -0.1)"><path d="M0.0 0.0V-949.0H28.0C80.0 -949.0 137.0 -923.0 137.0 -911.0V-46.0C163.0 -42.0 171.0 -31.0 174.0 -17.0ZM-62.0 -184.0C-55.0 -253.0 -84.0 -328.0 -110.0 -359.0C-135.0 -379.0 -147.0 -410.0 -131.0 -438.0C-110.0 -470.0 -61.0 -468.0 -39.0 -437.0C-7.0 -392.0 3.0 -302.0 -48.0 -184.0ZM139.0 -169.0 129.0 -174.0C147.0 -214.0 161.0 -274.0 158.0 -325.0C233.0 -404.0 344.0 -252.0 139.0 -169.0Z"/></g>
<g fill="red" transform="translate(1300 200) scale(0.1 -0.1)"><path d="M0.0 0.0V-908.0H9.0C26.0 -908.0 44.0 -896.0 44.0 -887.0V-37.0C69.0 -33.0 77.0 -23.0 80.0 -9.0ZM-77.0 -206.0C-77.0 -279.0 -106.0 -361.0 -135.0 -394.0C-150.0 -410.0 -157.0 -431.0 -145.0 -445.0C-130.0 -461.0 -99.0 -447.0 -84.0 -424.0C-60.0 -390.0 -38.0 -310.0 -58.0 -207.0ZM80.0 -173.0 66.0 -179.0C93.0 -219.0 121.0 -286.0 123.0 -335.0C170.0 -380.0 221.0 -272.0 80.0 -173.0Z"/></g>
<g fill="black" opacity=".8" transform="translate(1300 200) scale(0.1 -0.1)"><path d="M0.0 0.0V-911.0H9.0C26.0 -911.0 44.0 -899.0 44.0 -890.0V-37.0C69.0 -33.0 77.0 -23.0 80.0 -9.0ZM-80.0 -206.0C-80.0 -278.0 -107.0 -361.0 -135.0 -394.0C-150.0 -411.0 -157.0 -431.0 -145.0 -445.0C-129.0 -461.0 -100.0 -447.0 -84.0 -424.0C-60.0 -390.0 -40.0 -309.0 -62.0 -207.0ZM82.0 -172.0 69.0 -177.0C96.0 -220.0 124.0 -289.0 125.0 -340.0C173.0 -385.0 224.0 -276.0 82.0 -172.0Z"/></g>
<g fill="red" transform="translate(1400 200) scale(0.1 -0.1)"><path d="M0.0 0.0V-949.0H28.0C81.0 -949.0 139.0 -922.0 139.0 -911.0V-46.0C167.0 -42.0 174.0 -31.0 176.0 -17.0ZM-63.0 -193.0C-56.0 -260.0 -85.0 -335.0 -110.0 -365.0C-136.0 -386.0 -149.0 -417.0 -132.0 -446.0C-112.0 -478.0 -62.0 -476.0 -39.0 -445.0C-7.0 -400.0 1.0 -310.0 -48.0 -193.0ZM146.0 -165.0 135.0 -170.0C152.0 -205.0 167.0 -259.0 164.0 -306.0C237.0 -380.0 345.0 -235.0 146.0 -165.0Z"/></g>
<g fill="black" opacity=".8" transform="translate(1400 200) scale(0.1 -0.1)"><path d="M0.0 0.0V-952.0H28.0C80.0 -952.0 137.0 -925.0 137.0 -914.0V-46.0C164.0 -42.0 172.0 -31.0 174.0 -17.0ZM-62.0 -181.0C-55.0 -251.0 -83.0 -327.0 -110.0 -358.0C-135.0 -379.0 -146.0 -410.0 -130.0 -437.0C-110.0 -469.0 -61.0 -466.0 -39.0 -435.0C-7.0 -389.0 3.0 -300.0 -47.0 -181.0ZM140.0 -162.0 129.0 -167.0C147.0 -207.0 161.0 -267.0 157.0 -319.0C233.0 -398.0 345.0 -246.0 140.0 -162.0Z"/></g>
<g fill="red" transform="translate(1500 200) scale(0.1 -0.1)"><path d="M0.0 0.0V-908.0H9.0C26.0 -908.0 44.0 -896.0 44.0 -887.0V-37.0C69.0 -33.0 77.0 -23.0 80.0 -9.0ZM-84.0 -190.0C-84.0 -263.0 -113.0 -344.0 -142.0 -377.0C-157.0 -394.0 -163.0 -414.0 -152.0 -428.0C-137.0 -444.0 -106.0 -430.0 -91.0 -407.0C-67.0 -373.0 -45.0 -293.0 -65.0 -191.0ZM80.0 -164.0 66.0 -170.0C93.0 -210.0 121.0 -277.0 123.0 -327.0C170.0 -371.0 221.0 -264.0 80.0 -164.0Z"/></g>
<g fill="black" opacity=".8" transform="translate(1500 200) scale(0.1 -0.1)"><path d="M0.0 0.0V-908.0H9.0C26.0 -908.0 44.0 -896.0 44.0 -887.0V-37.0C69.0 -33.0 77.0 -23.0 80.0 -9.0ZM-82.0 -193.0C-80.0 -265.0 -107.0 -348.0 -134.0 -381.0C-150.0 -398.0 -156.0 -418.0 -145.0 -432.0C-129.0 -447.0 -99.0 -433.0 -84.0 -411.0C-60.0 -376.0 -41.0 -295.0 -64.0 -194.0ZM81.0 -160.0 68.0 -166.0C94.0 -208.0 122.0 -275.0 124.0 -325.0C171.0 -369.0 221.0 -262.0 81.0 -160.0Z"/></g>
<g fill="red" transform="translate(1600 200) scale(0.1 -0.1)"><path d="M0.0 0.0V-949.0H27.0C78.0 -949.0 134.0 -923.0 134.0 -912.0V-45.0C161.0 -41.0 169.0 -31.0 171.0 -17.0ZM-64.0 -179.0C-57.0 -249.0 -83.0 -329.0 -108.0 -360.0C-132.0 -381.0 -143.0 -411.0 -127.0 -437.0C-107.0 -466.0 -60.0 -460.0 -39.0 -429.0C-10.0 -385.0 -2.0 -295.0 -49.0 -179.0ZM137.0 -166.0 126.0 -171.0C145.0 -211.0 162.0 -272.0 160.0 -324.0C234.0 -399.0 337.0 -248.0 137.0 -166.0Z"/></g>
<g fill="black" opacity=".8" transform="translate(1600 200) scale(0.1 -0.1)"><path d="M0.0 0.0V-948.0H27.0C79.0 -948.0 136.0 -922.0 136.0 -910.0V-45.0C163.0 -41.0 170.0 -31.0 173.0 -16.0ZM-62.0 -183.0C-54.0 -249.0 -83.0 -322.0 -108.0 -352.0C-134.0 -374.0 -147.0 -405.0 -130.0 -434.0C-110.0 -467.0 -59.0 -465.0 -36.0 -434.0C-5.0 -388.0 3.0 -299.0 -47.0 -183.0ZM138.0 -168.0 128.0 -173.0C146.0 -212.0 161.0 -271.0 158.0 -321.0C236.0 -401.0 348.0 -246.0 138.0 -168.0Z"/></g>
<g fill="red" transform="translate(100 300) scale(0.1 -0.1)"><path d="M0.0 0.0V-908.0H9.0C26.0 -908.0 45.0 -896.0 45.0 -887.0V-37.0C69.0 -33.0 77.0 -23.0 80.0 -9.0ZM-82.0 -201.0C-78.0 -269.0 -100.0 -351.0 -125.0 -384.0C-140.0 -400.0 -145.0 -421.0 -134.0 -435.0C-119.0 -450.0 -88.0 -436.0 -75.0 -413.0C-54.0 -379.0 -40.0 -299.0 -64.0 -202.0ZM80.0 -171.0 66.0 -176.0C90.0 -218.0 115.0 -285.0 114.0 -336.0C159.0 -382.0 212.0 -275.0 80.0 -171.0Z"/></g>
<g fill="black" opacity=".8" transform="translate(100 300) scale(0.1 -0.1)"><path d="M0.0 0.0V-906.0H9.0C26.0 -906.0 44.0 -894.0 44.0 -885.0V-37.0C68.0 -33.0 76.0 -23.0 79.0 -9.0ZM-79.0 -203.0C-76.0 -272.0 -100.0 -354.0 -126.0 -387.0C-141.0 -404.0 -148.0 -425.0 -136.0 -438.0C-121.0 -454.0 -91.0 -440.0 -76.0 -417.0C-54.0 -383.0 -38.0 -303.0 -61.0 -203.0ZM77.0 -168.0 64.0 -174.0C89.0 -214.0 115.0 -281.0 116.0 -330.0C162.0 -375.0 214.0 -269.0 77.0 -168.0Z"/></g>
<g fill="red" transform="translate(200 300) scale(0.1 -0.1)"><path d="M0.0 0.0V-949.0H26.0C75.0 -949.0 129.0 -924.0 129.0 -913.0V-45.0C156.0 -41.0 164.0 -31.0 166.0 -16.0ZM-58.0 -185.0C-50.0 -251.0 -77.0 -325.0 -101.0 -355.0C-127.0 -376.0 -139.0 -407.0 -123.0 -436.0C-102.0 -468.0 -52.0 -465.0 -30.0 -433.0C0.0 -389.0 6.0 -299.0 -43.0 -185.0ZM127.0 -166.0 115.0 -170.0C132.0 -212.0 147.0 -274.0 144.0 -326.0C213.0 -400.0 315.0 -258.0 127.0 -166.0Z"/></g>
<g fill="black" opacity=".8" transform="translate(200 300) scale(0.1 -0.1)"><path d="M0.0 0.0V-946.0H27.0C77.0 -946.0 132.0 -920.0 132.0 -909.0V-45.0C159.0 -41.0 167.0 -30.0 169.0 -16.0ZM-56.0 -184.0C-48.0 -252.0 -75.0 -330.0 -100.0 -361.0C-123.0 -382.0 -133.0 -413.0 -117.0 -439.0C-96.0 -469.0 -48.0 -464.0 -28.0 -433.0C1.0 -386.0 7.0 -298.0 -41.0 -184.0ZM134.0 -171.0 123.0 -176.0C140.0 -215.0 155.0 -273.0 151.0 -323.0C223.0 -397.0 326.0 -254.0 134.0 -171.0Z"/></g>
<g fill="red" transform="translate(300 300) scale(0.1 -0.1)"><path d="M0.0 0.0V-908.0H9.0C26.0 -908.0 44.0 -896.0 44.0 -887.0V-37.0C69.0 -33.0 77.0 -23.0 80.0 -9.0ZM-84.0 -190.0C-84.0 -263.0 -113.0 -344.0 -142.0 -377.0C-157.0 -394.0 -163.0 -414.0 -152.0 -428.0C-137.0 -444.0 -106.0 -430.0 -91.0 -407.0C-67.0 -373.0 -45.0 -293.0 -65.0 -191.0ZM80.0 -164.0 66.0 -170.0C93.0 -210.0 121.0 -277.0 123.0 -327.0C170.0 -371.0 221.0 -264.0 80.0 -164.0Z"/></g>
<g fill="black" opacity=".8" transform="translate(300 300) scale(0.1 -0.1)"><path d="M0.0 0.0V-907.0H9.0C26.0 -907.0 44.0 -895.0 44.0 -886.0V-37.0C69.0 -33.0 77.0 -23.0 80.0 -9.0ZM-81.0 -194.0C-80.0 -266.0 -106.0 -349.0 -134.0 -382.0C-149.0 -399.0 -156.0 -419.0 -144.0 -433.0C-128.0 -448.0 -98.0 -434.0 -83.0 -412.0C-60.0 -377.0 -41.0 -297.0 -63.0 -195.0ZM80.0 -161.0 67.0 -166.0C93.0 -207.0 121.0 -274.0 123.0 -324.0C169.0 -368.0 220.0 -261.0 80.0 -161.0Z"/></g>
<g fill="red" transform="translate(400 300) scale(0.1 -0.1)"><path d="M0.0 0.0V-949.0H27.0C78.0 -949.0 134.0 -923.0 134.0 -912.0V-45.0C161.0 -41.0 169.0 -31.0 171.0 -17.0ZM-64.0 -179.0C-57.0 -249.0 -83.0 -329.0 -108.0 -360.0C-132.0 -381.0 -143.0 -411.0 -127.0 -437.0C-107.0 -466.0 -60.0 -460.0 -39.0 -429.0C-10.0 -385.0 -2.0 -295.0 -49.0 -179.0ZM137.0 -166.0 126.0 -171.0C143.0 -206.0 157.0 -259.0 154.0 -304.0C226.0 -376.0 330.0 -236.0 137.0 -166.0Z"/></g>
<g fill="black" opacity=".8" transform="translate(400 300) scale(0.1 -0.1)"><path d="M0.0 0.0V-947.0H27.0C79.0 -947.0 135.0 -921.0 135.0 -910.0V-45.0C162.0 -41.0 170.0 -31.0 172.0 -16.0ZM-61.0 -180.0C-53.0 -246.0 -82.0 -321.0 -107.0 -351.0C-133.0 -372.0 -145.0 -403.0 -128.0 -432.0C-107.0 -465.0 -57.0 -462.0 -35.0 -431.0C-4.0 -385.0 4.0 -296.0 -46.0 -180.0ZM138.0 -162.0 128.0 -167.0C146.0 -206.0 161.0 -264.0 157.0 -315.0C235.0 -394.0 347.0 -240.0 138.0 -162.0Z"/></g>
<g fill="red" transform="translate(500 300) scale(0.1 -0.1)"><path d="M0.0 0.0V-908.0H9.0C26.0 -908.0 44.0 -896.0 44.0 -887.0V-37.0C69.0 -33.0 77.0 -23.0 80.0 -9.0ZM-88.0 -197.0C-84.0 -268.0 -106.0 -350.0 -132.0 -384.0C-147.0 -401.0 -154.0 -422.0 -141.0 -435.0C-126.0 -451.0 -95.0 -436.0 -82.0 -413.0C-60.0 -378.0 -45.0 -297.0 -69.0 -198.0ZM91.0 -171.0 77.0 -177.0C103.0 -217.0 131.0 -284.0 133.0 -335.0C179.0 -378.0 230.0 -271.0 91.0 -171.0Z"/></g>
<g fill="black" opacity=".8" transform="translate(500 300) scale(0.1 -0.1)"><path d="M0.0 0.0V-907.0H9.0C26.0 -907.0 44.0 -895.0 44.0 -886.0V-37.0C69.0 -33.0 77.0 -23.0 80.0 -9.0ZM-82.0 -197.0C-80.0 -268.0 -106.0 -352.0 -133.0 -385.0C-149.0 -401.0 -155.0 -422.0 -144.0 -436.0C-128.0 -451.0 -98.0 -437.0 -83.0 -414.0C-60.0 -380.0 -41.0 -299.0 -64.0 -198.0ZM81.0 -165.0 68.0 -170.0C95.0 -213.0 123.0 -281.0 124.0 -332.0C171.0 -377.0 222.0 -268.0 81.0 -165.0Z"/></g>
<g fill="red" transform="translate(600 300) scale(0.1 -0.1)"><path d="M0.0 0.0V-949.0H27.0C78.0 -949.0 134.0 -923.0 134.0 -912.0V-45.0C161.0 -41.0 169.0 -31.0 171.0 -17.0ZM-56.0 -179.0C-49.0 -246.0 -78.0 -321.0 -103.0 -351.0C-129.0 -372.0 -142.0 -403.0 -125.0 -432.0C-105.0 -464.0 -55.0 -462.0 -32.0 -431.0C0.0 -386.0 8.0 -296.0 -41.0 -179.0ZM136.0 -180.0 126.0 -184.0C143.0 -222.0 156.0 -278.0 152.0 -327.0C234.0 -411.0 357.0 -251.0 136.0 -180.0Z"/></g>
<g fill="black" opacity=".8" transform="translate(600 300) scale(0.1 -0.1)"><path d="M0.0 0.0V-947.0H27.0C79.0 -947.0 136.0 -921.0 136.0 -910.0V-46.0C163.0 -42.0 170.0 -31.0 173.0 -16.0ZM-62.0 -185.0C-54.0 -252.0 -83.0 -327.0 -109.0 -357.0C-134.0 -378.0 -146.0 -409.0 -130.0 -438.0C-109.0 -470.0 -59.0 -468.0 -37.0 -437.0C-5.0 -391.0 3.0 -302.0 -47.0 -185.0ZM138.0 -173.0 128.0 -178.0C146.0 -218.0 161.0 -277.0 157.0 -327.0C234.0 -406.0 344.0 -253.0 138.0 -173.0Z"/></g>
<g fill="red" transform="translate(700 300) scale(0.1 -0.1)"><path d="M0.0 0.0V-908.0H9.0C26.0 -908.0 45.0 -896.0 45.0 -887.0V-37.0C69.0 -33.0 77.0 -23.0 80.0 -9.0ZM-83.0 -197.0C-79.0 -268.0 -101.0 -350.0 -127.0 -384.0C-142.0 -401.0 -149.0 -422.0 -136.0 -435.0C-121.0 -451.0 -90.0 -436.0 -77.0 -413.0C-55.0 -378.0 -40.0 -297.0 -64.0 -198.0ZM89.0 -166.0 75.0 -172.0C99.0 -212.0 124.0 -279.0 124.0 -330.0C170.0 -374.0 223.0 -269.0 89.0 -166.0Z"/></g>
<g fill="black" opacity=".8" transform="translate(700 300) scale(0.1 -0.1)"><path d="M0.0 0.0V-910.0H9.0C26.0 -910.0 45.0 -898.0 45.0 -889.0V-37.0C69.0 -33.0 77.0 -23.0 80.0 -9.0ZM-82.0 -196.0C-79.0 -266.0 -102.0 -350.0 -128.0 -383.0C-143.0 -400.0 -149.0 -420.0 -138.0 -434.0C-122.0 -450.0 -92.0 -435.0 -78.0 -413.0C-56.0 -378.0 -41.0 -297.0 -65.0 -197.0ZM79.0 -165.0 66.0 -171.0C91.0 -213.0 119.0 -282.0 120.0 -334.0C167.0 -379.0 218.0 -271.0 79.0 -165.0Z"/></g>
<g fill="red" transform="translate(800 300) scale(0.1 -0.1)"><path d="M0.0 0.0V-949.0H28.0C81.0 -949.0 140.0 -922.0 140.0 -911.0V-46.0C168.0 -42.0 175.0 -31.0 177.0 -17.0ZM-50.0 -195.0C-43.0 -262.0 -72.0 -337.0 -97.0 -367.0C-123.0 -388.0 -136.0 -419.0 -119.0 -448.0C-99.0 -480.0 -49.0 -478.0 -26.0 -447.0C6.0 -402.0 14.0 -312.0 -35.0 -195.0ZM141.0 -193.0 130.0 -198.0C147.0 -238.0 163.0 -299.0 160.0 -351.0C230.0 -424.0 331.0 -280.0 141.0 -193.0Z"/></g>
<g fill="black" opacity=".8" transform="translate(800 300) scale(0.1 -0.1)"><path d="M0.0 0.0V-950.0H27.0C77.0 -950.0 134.0 -925.0 134.0 -914.0V-45.0C160.0 -41.0 168.0 -30.0 171.0 -16.0ZM-58.0 -195.0C-51.0 -261.0 -78.0 -336.0 -103.0 -367.0C-128.0 -388.0 -140.0 -420.0 -123.0 -448.0C-101.0 -480.0 -52.0 -477.0 -31.0 -446.0C-0.0 -399.0 6.0 -310.0 -44.0 -195.0ZM135.0 -195.0 124.0 -200.0C142.0 -239.0 157.0 -298.0 155.0 -348.0C228.0 -422.0 331.0 -277.0 135.0 -195.0Z"/></g>
<g fill="red" transform="translate(900 300) scale(0.1 -0.1)"><path d="M0.0 0.0V-908.0H9.0C26.0 -908.0 45.0 -896.0 45.0 -887.0V-37.0C69.0 -33.0 77.0 -23.0 80.0 -9.0ZM-80.0 -193.0C-74.0 -261.0 -94.0 -342.0 -118.0 -376.0C-133.0 -393.0 -138.0 -413.0 -127.0 -427.0C-112.0 -442.0 -81.0 -428.0 -68.0 -405.0C-49.0 -370.0 -37.0 -291.0 -62.0 -193.0ZM66.0 -161.0 53.0 -167.0C77.0 -207.0 105.0 -274.0 106.0 -325.0C152.0 -369.0 203.0 -263.0 66.0 -161.0Z"/></g>
<g fill="black" opacity=".8" transform="translate(900 300) scale(0.1 -0.1)"><path d="M0.0 0.0V-908.0H9.0C26.0 -908.0 45.0 -896.0 45.0 -887.0V-38.0C68.0 -33.0 76.0 -23.0 79.0 -9.0ZM-77.0 -197.0C-74.0 -265.0 -96.0 -348.0 -121.0 -380.0C-136.0 -397.0 -142.0 -418.0 -131.0 -431.0C-115.0 -446.0 -86.0 -432.0 -72.0 -410.0C-50.0 -376.0 -36.0 -296.0 -60.0 -197.0ZM72.0 -159.0 59.0 -165.0C82.0 -203.0 106.0 -264.0 107.0 -311.0C152.0 -355.0 204.0 -253.0 72.0 -159.0Z"/></g>
<g fill="red" transform="translate(1000 300) scale(0.1 -0.1)"><path d="M0.0 0.0V-949.0H26.0C76.0 -949.0 130.0 -924.0 130.0 -913.0V-45.0C158.0 -41.0 165.0 -31.0 167.0 -16.0ZM-49.0 -181.0C-41.0 -246.0 -66.0 -324.0 -86.0 -355.0C-110.0 -378.0 -120.0 -409.0 -102.0 -436.0C-80.0 -465.0 -31.0 -459.0 -13.0 -426.0C12.0 -378.0 11.0 -290.0 -34.0 -181.0ZM128.0 -156.0 117.0 -160.0C135.0 -201.0 151.0 -261.0 147.0 -313.0C225.0 -393.0 338.0 -237.0 128.0 -156.0Z"/></g>
<g fill="black" opacity=".8" transform="translate(1000 300) scale(0.1 -0.1)"><path d="M0.0 0.0V-948.0H26.0C75.0 -948.0 129.0 -924.0 129.0 -912.0V-45.0C156.0 -41.0 164.0 -30.0 166.0 -16.0ZM-50.0 -179.0C-42.0 -246.0 -68.0 -325.0 -90.0 -356.0C-114.0 -379.0 -123.0 -409.0 -106.0 -435.0C-84.0 -464.0 -36.0 -458.0 -18.0 -426.0C8.0 -377.0 11.0 -290.0 -35.0 -179.0ZM130.0 -163.0 119.0 -168.0C136.0 -206.0 151.0 -262.0 148.0 -309.0C218.0 -382.0 320.0 -242.0 130.0 -163.0Z"/></g>
<g fill="red" transform="translate(1100 300) scale(0.1 -0.1)"><path d="M0.0 0.0V-908.0H9.0C26.0 -908.0 45.0 -896.0 45.0 -887.0V-37.0C69.0 -33.0 77.0 -23.0 80.0 -9.0ZM-74.0 -178.0C-70.0 -246.0 -92.0 -329.0 -117.0 -361.0C-132.0 -377.0 -137.0 -399.0 -126.0 -412.0C-111.0 -427.0 -80.0 -413.0 -67.0 -391.0C-46.0 -356.0 -32.0 -276.0 -56.0 -179.0ZM66.0 -137.0 54.0 -142.0C73.0 -174.0 95.0 -225.0 97.0 -265.0C139.0 -305.0 191.0 -212.0 66.0 -137.0Z"/></g>
<g fill="black" opacity=".8" transform="translate(1100 300) scale(0.1 -0.1)"><path d="M0.0 0.0V-910.0H9.0C26.0 -910.0 45.0 -898.0 45.0 -889.0V-38.0C69.0 -33.0 77.0 -23.0 80.0 -9.0ZM-76.0 -177.0C-71.0 -245.0 -92.0 -328.0 -115.0 -360.0C-131.0 -376.0 -136.0 -398.0 -124.0 -411.0C-109.0 -425.0 -80.0 -412.0 -66.0 -390.0C-46.0 -355.0 -33.0 -275.0 -59.0 -179.0ZM64.0 -137.0 52.0 -142.0C71.0 -176.0 93.0 -228.0 95.0 -269.0C138.0 -310.0 189.0 -216.0 64.0 -137.0Z"/></g>
<g fill="red" transform="translate(1200 300) scale(0.1 -0.1)"><path d="M0.0 0.0V-949.0H25.0C73.0 -949.0 125.0 -925.0 125.0 -914.0V-45.0C153.0 -41.0 160.0 -30.0 162.0 -16.0ZM-41.0 -168.0C-33.0 -233.0 -58.0 -311.0 -76.0 -342.0C-101.0 -366.0 -110.0 -397.0 -91.0 -423.0C-69.0 -453.0 -18.0 -446.0 -2.0 -411.0C21.0 -362.0 17.0 -275.0 -26.0 -168.0ZM127.0 -147.0 116.0 -152.0C133.0 -186.0 148.0 -238.0 146.0 -282.0C215.0 -350.0 312.0 -215.0 127.0 -147.0Z"/></g>
<g fill="black" opacity=".8" transform="translate(1200 300) scale(0.1 -0.1)"><path d="M0.0 0.0V-950.0H25.0C73.0 -950.0 124.0 -926.0 124.0 -914.0V-44.0C152.0 -40.0 159.0 -30.0 161.0 -15.0ZM-43.0 -168.0C-34.0 -232.0 -59.0 -310.0 -77.0 -340.0C-101.0 -365.0 -109.0 -396.0 -91.0 -422.0C-68.0 -453.0 -17.0 -445.0 -2.0 -411.0C20.0 -360.0 17.0 -274.0 -28.0 -168.0ZM124.0 -145.0 114.0 -150.0C131.0 -186.0 147.0 -238.0 144.0 -283.0C216.0 -355.0 317.0 -214.0 124.0 -145.0Z"/></g>
<g fill="red" transform="translate(1300 300) scale(0.1 -0.1)"><path d="M0.0 0.0V-908.0H9.0C26.0 -908.0 45.0 -896.0 45.0 -887.0V-37.0C69.0 -33.0 77.0 -23.0 80.0 -9.0ZM-80.0 -193.0C-74.0 -261.0 -94.0 -342.0 -118.0 -376.0C-133.0 -393.0 -138.0 -413.0 -127.0 -427.0C-112.0 -442.0 -81.0 -428.0 -68.0 -405.0C-49.0 -370.0 -37.0 -291.0 -62.0 -193.0ZM66.0 -161.0 53.0 -167.0C77.0 -207.0 105.0 -274.0 106.0 -325.0C152.0 -369.0 203.0 -263.0 66.0 -161.0Z"/></g>
<g fill="black" opacity=".8" transform="translate(1300 300) scale(0.1 -0.1)"><path d="M0.0 0.0V-909.0H9.0C26.0 -909.0 46.0 -897.0 46.0 -888.0V-37.0C69.0 -33.0 77.0 -23.0 80.0 -9.0ZM-82.0 -193.0C-75.0 -259.0 -93.0 -342.0 -115.0 -376.0C-131.0 -393.0 -136.0 -413.0 -125.0 -427.0C-109.0 -442.0 -79.0 -427.0 -67.0 -405.0C-47.0 -369.0 -38.0 -289.0 -65.0 -193.0ZM72.0 -162.0 60.0 -168.0C82.0 -209.0 107.0 -275.0 107.0 -326.0C153.0 -370.0 205.0 -265.0 72.0 -162.0Z"/></g>
<g fill="red" transform="translate(1400 300) scale(0.1 -0.1)"><path d="M0.0 0.0V-949.0H25.0C73.0 -949.0 126.0 -925.0 126.0 -914.0V-45.0C153.0 -41.0 160.0 -30.0 163.0 -16.0ZM-53.0 -206.0C-45.0 -271.0 -70.0 -349.0 -90.0 -380.0C-114.0 -403.0 -124.0 -434.0 -106.0 -461.0C-84.0 -490.0 -35.0 -484.0 -17.0 -451.0C8.0 -403.0 7.0 -315.0 -38.0 -206.0ZM127.0 -227.0 115.0 -232.0C132.0 -267.0 149.0 -321.0 147.0 -366.0C211.0 -428.0 298.0 -302.0 127.0 -227.0Z"/></g>
<g fill="black" opacity=".8" transform="translate(1400 300) scale(0.1 -0.1)"><path d="M0.0 0.0V-949.0H26.0C74.0 -949.0 128.0 -925.0 128.0 -914.0V-45.0C154.0 -41.0 162.0 -30.0 165.0 -16.0ZM-50.0 -206.0C-41.0 -270.0 -67.0 -347.0 -89.0 -378.0C-112.0 -401.0 -123.0 -432.0 -105.0 -459.0C-82.0 -489.0 -33.0 -484.0 -15.0 -452.0C11.0 -403.0 12.0 -315.0 -35.0 -206.0ZM127.0 -224.0 115.0 -229.0C133.0 -266.0 149.0 -322.0 147.0 -369.0C212.0 -435.0 302.0 -304.0 127.0 -224.0Z"/></g>
<g fill="red" transform="translate(1500 300) scale(0.1 -0.1)"><path d="M0.0 0.0V-908.0H9.0C26.0 -908.0 44.0 -896.0 44.0 -887.0V-37.0C69.0 -33.0 77.0 -23.0 80.0 -9.0ZM-86.0 -197.0C-82.0 -268.0 -104.0 -350.0 -130.0 -384.0C-145.0 -401.0 -152.0 -422.0 -139.0 -435.0C-124.0 -451.0 -93.0 -436.0 -80.0 -413.0C-58.0 -378.0 -43.0 -297.0 -67.0 -198.0ZM80.0 -150.0 66.0 -156.0C91.0 -197.0 118.0 -264.0 119.0 -314.0C166.0 -358.0 217.0 -252.0 80.0 -150.0Z"/></g>
<g fill="black" opacity=".8" transform="translate(1500 300) scale(0.1 -0.1)"><path d="M0.0 0.0V-910.0H9.0C26.0 -910.0 45.0 -898.0 45.0 -889.0V-37.0C69.0 -33.0 77.0 -23.0 80.0 -9.0ZM-82.0 -190.0C-79.0 -262.0 -104.0 -345.0 -131.0 -378.0C-147.0 -395.0 -153.0 -416.0 -141.0 -429.0C-126.0 -445.0 -95.0 -430.0 -81.0 -408.0C-58.0 -373.0 -41.0 -292.0 -64.0 -191.0ZM79.0 -157.0 66.0 -163.0C91.0 -204.0 118.0 -270.0 120.0 -319.0C167.0 -363.0 217.0 -257.0 79.0 -157.0Z"/></g>
<g fill="red" transform="translate(1600 300) scale(0.1 -0.1)"><path d="M0.0 0.0V-949.0H27.0C78.0 -949.0 134.0 -923.0 134.0 -912.0V-45.0C161.0 -41.0 169.0 -31.0 171.0 -17.0ZM-55.0 -180.0C-48.0 -247.0 -77.0 -322.0 -102.0 -352.0C-128.0 -373.0 -141.0 -404.0 -124.0 -433.0C-104.0 -465.0 -54.0 -463.0 -31.0 -432.0C1.0 -387.0 9.0 -297.0 -40.0 -180.0ZM136.0 -178.0 126.0 -183.0C144.0 -220.0 159.0 -276.0 156.0 -325.0C239.0 -407.0 359.0 -245.0 136.0 -178.0Z"/></g>
<g fill="black" opacity=".8" transform="translate(1600 300) scale(0.1 -0.1)"><path d="M0.0 0.0V-950.0H27.0C78.0 -950.0 134.0 -925.0 134.0 -913.0V-45.0C161.0 -41.0 169.0 -31.0 171.0 -16.0ZM-59.0 -184.0C-51.0 -250.0 -80.0 -324.0 -104.0 -354.0C-129.0 -376.0 -142.0 -407.0 -125.0 -436.0C-103.0 -469.0 -53.0 -466.0 -31.0 -435.0C-1.0 -388.0 5.0 -299.0 -45.0 -184.0ZM136.0 -172.0 126.0 -177.0C144.0 -215.0 160.0 -273.0 156.0 -323.0C233.0 -401.0 343.0 -248.0 136.0 -172.0Z"/></g>
</svg>
