<?xml version="1.0" encoding="UTF-8"?>
<svg width="1700" height="300" xmlns="http://www.w3.org/2000/svg">
<rect width="100%" height="100%" fill="white"/>
<g fill="green" transform="translate(100 100) scale(0.1 -0.1)"><path d="M0.0 0.0 9.0 -30.0H865.0C879.0 -30.0 888.0 -25.0 891.0 -14.0C861.0 14.0 814.0 51.0 814.0 51.0L772.0 0.0ZM641.0 273.0V-13.0H686.0V234.0C705.0 238.0 722.0 246.0 729.0 254.0L662.0 306.0L632.0 273.0ZM126.0 273.0 135.0 244.0H670.0V273.0ZM291.0 -124.0 264.0 -153.0H668.0V-124.0Z"/></g>
<g fill="green" transform="translate(200 100) scale(0.1 -0.1)"><path d="M0.0 0.0 8.0 -28.0H921.0C936.0 -28.0 947.0 -23.0 950.0 -12.0C900.0 30.0 818.0 92.0 818.0 92.0L746.0 0.0ZM591.0 281.0V3.0H738.0V233.0C759.0 237.0 771.0 246.0 777.0 254.0L648.0 351.0L581.0 281.0ZM153.0 281.0 162.0 253.0H671.0V281.0ZM308.0 -120.0 283.0 -148.0H677.0V-120.0Z"/></g>
<g fill="green" transform="translate(300 100) scale(0.1 -0.1)"><path d="M0.0 0.0 9.0 -30.0H865.0C879.0 -30.0 888.0 -25.0 891.0 -14.0C861.0 14.0 814.0 51.0 814.0 51.0L772.0 0.0ZM641.0 273.0V-13.0H686.0V234.0C705.0 238.0 722.0 246.0 729.0 254.0L662.0 306.0L632.0 273.0ZM126.0 273.0 135.0 244.0H670.0V273.0ZM291.0 -124.0 264.0 -153.0H668.0V-124.0Z"/></g>
<g fill="green" transform="translate(400 100) scale(0.1 -0.1)"><path d="M0.0 0.0 8.0 -28.0H921.0C936.0 -28.0 947.0 -23.0 950.0 -12.0C900.0 30.0 818.0 92.0 818.0 92.0L746.0 0.0ZM591.0 281.0V3.0H738.0V233.0C759.0 237.0 771.0 246.0 777.0 254.0L648.0 351.0L581.0 281.0ZM153.0 281.0 162.0 253.0H671.0V281.0ZM308.0 -120.0 283.0 -148.0H677.0V-120.0Z"/></g>
<g fill="red" transform="translate(100 200) scale(0.1 -0.1)"><path d="M0.0 0.0 9.0 -30.0H865.0C879.0 -30.0 888.0 -25.0 891.0 -14.0C861.0 14.0 814.0 51.0 814.0 51.0L772.0 0.0ZM641.0 273.0V-13.0H686.0V234.0C705.0 238.0 722.0 246.0 729.0 254.0L662.0 306.0L632.0 273.0ZM126.0 273.0 135.0 244.0H670.0V273.0ZM291.0 -124.0 264.0 -153.0H668.0V-124.0Z"/></g>
<g fill="black" opacity=".8" transform="translate(100 200) scale(0.1 -0.1)"><path d="M0.0 0.0 9.0 -30.0H865.0C879.0 -30.0 888.0 -25.0 891.0 -14.0C861.0 14.0 814.0 51.0 814.0 51.0L772.0 0.0ZM641.0 273.0V-13.0H686.0V234.0C705.0 238.0 722.0 246.0 729.0 254.0L662.0 306.0L632.0 273.0ZM126.0 273.0 135.0 244.0H670.0V273.0ZM291.0 -124.0 264.0 -153.0H668.0V-124.0Z"/></g>
<g fill="red" transform="translate(200 200) scale(0.1 -0.1)"><path d="M0.0 0.0 8.0 -28.0H921.0C936.0 -28.0 947.0 -23.0 950.0 -12.0C900.0 30.0 818.0 92.0 818.0 92.0L746.0 0.0ZM591.0 281.0V3.0H738.0V233.0C759.0 237.0 771.0 246.0 777.0 254.0L648.0 351.0L581.0 281.0ZM153.0 281.0 162.0 253.0H671.0V281.0ZM308.0 -120.0 283.0 -148.0H677.0V-120.0Z"/></g>
<g fill="black" opacity=".8" transform="translate(200 200) scale(0.1 -0.1)"><path d="M0.0 0.0 8.0 -28.0H921.0C936.0 -28.0 947.0 -23.0 950.0 -12.0C900.0 30.0 818.0 92.0 818.0 92.0L746.0 0.0ZM591.0 281.0V3.0H738.0V233.0C759.0 237.0 771.0 246.0 777.0 254.0L648.0 351.0L581.0 281.0ZM153.0 281.0 162.0 253.0H671.0V281.0ZM308.0 -120.0 283.0 -148.0H677.0V-120.0Z"/></g>
</svg>
