<?xml version="1.0" encoding="UTF-8"?>
<svg width="1700" height="400" xmlns="http://www.w3.org/2000/svg">
<rect width="100%" height="100%" fill="white"/>
<g fill="green" transform="translate(100 100) scale(0.1 -0.1)"><path d="M0.0 0.0 -87.0 34.0C-108.0 -29.0 -146.0 -116.0 -176.0 -173.0H-154.0C-112.0 -126.0 -66.0 -63.0 -39.0 -17.0C-18.0 -20.0 -5.0 -12.0 0.0 0.0ZM-428.0 22.0 -440.0 14.0C-402.0 -24.0 -355.0 -92.0 -345.0 -142.0C-291.0 -181.0 -250.0 -65.0 -428.0 22.0ZM-245.0 -522.0V-506.0H-294.0C-329.0 -632.0 -396.0 -752.0 -495.0 -841.0L-481.0 -859.0C-365.0 -773.0 -287.0 -658.0 -245.0 -522.0ZM-219.0 -907.0V-161.0H-264.0V-925.0H-258.0C-234.0 -925.0 -219.0 -912.0 -219.0 -907.0ZM-36.0 -510.0H-413.0L-421.0 -541.0H-36.0ZM-65.0 -343.0H-377.0L-385.0 -374.0H-65.0ZM-71.0 -510.0H-61.0C-66.0 -652.0 -77.0 -721.0 -92.0 -737.0C-99.0 -743.0 -106.0 -744.0 -118.0 -744.0C-133.0 -744.0 -170.0 -741.0 -194.0 -739.0V-759.0C-174.0 -761.0 -153.0 -765.0 -145.0 -772.0C-135.0 -779.0 -132.0 -793.0 -132.0 -804.0C-109.0 -804.0 -85.0 -798.0 -66.0 -781.0C-37.0 -757.0 -24.0 -689.0 -17.0 -544.0C2.0 -542.0 14.0 -537.0 20.0 -529.0L-42.0 -478.0ZM-112.0 -162.0H-101.0V-416.0H-95.0C-79.0 -416.0 -57.0 -404.0 -56.0 -398.0V-204.0C-35.0 -198.0 -15.0 -191.0 -8.0 -183.0L-80.0 -128.0ZM-64.0 -162.0H-455.0L-445.0 -192.0H-64.0ZM-346.0 -342.0 -406.0 -313.0C-413.0 -373.0 -434.0 -483.0 -448.0 -531.0L-427.0 -495.0C-443.0 -498.0 -469.0 -506.0 -484.0 -514.0L-425.0 -567.0L-395.0 -539.0H-405.0C-391.0 -484.0 -371.0 -391.0 -363.0 -337.0L-370.0 -342.0Z"/></g>
<g fill="green" transform="translate(200 100) scale(0.1 -0.1)"><path d="M0.0 0.0 -183.0 51.0C-192.0 -14.0 -208.0 -115.0 -221.0 -180.0H-210.0C-152.0 -131.0 -83.0 -62.0 -40.0 -20.0C-16.0 -21.0 -5.0 -12.0 0.0 0.0ZM-445.0 49.0 -454.0 44.0C-419.0 -4.0 -389.0 -74.0 -385.0 -138.0C-271.0 -231.0 -153.0 -5.0 -445.0 49.0ZM-185.0 -518.0V-502.0H-318.0C-348.0 -631.0 -413.0 -758.0 -510.0 -844.0L-501.0 -856.0C-345.0 -779.0 -237.0 -666.0 -185.0 -518.0ZM-166.0 -896.0V-161.0H-291.0V-929.0H-268.0C-204.0 -929.0 -166.0 -903.0 -166.0 -896.0ZM-68.0 -503.0H-358.0L-366.0 -532.0H-68.0ZM-92.0 -342.0H-328.0L-335.0 -370.0H-92.0ZM-126.0 -503.0H-116.0C-115.0 -628.0 -114.0 -675.0 -121.0 -685.0C-123.0 -689.0 -127.0 -690.0 -138.0 -690.0C-151.0 -690.0 -176.0 -690.0 -188.0 -688.0V-701.0C-164.0 -709.0 -154.0 -717.0 -144.0 -732.0C-134.0 -747.0 -132.0 -764.0 -132.0 -797.0C-83.0 -797.0 -53.0 -792.0 -27.0 -773.0C7.0 -747.0 9.0 -705.0 7.0 -551.0C26.0 -547.0 37.0 -541.0 44.0 -533.0L-65.0 -446.0ZM-154.0 -163.0H-144.0V-401.0H-121.0C-81.0 -401.0 -14.0 -382.0 -13.0 -376.0V-214.0C9.0 -209.0 23.0 -199.0 29.0 -191.0L-96.0 -98.0ZM-118.0 -163.0H-435.0L-426.0 -191.0H-118.0ZM-279.0 -342.0 -425.0 -276.0C-428.0 -338.0 -443.0 -466.0 -456.0 -522.0L-425.0 -484.0C-445.0 -490.0 -470.0 -507.0 -484.0 -520.0L-367.0 -585.0L-325.0 -532.0H-332.0C-323.0 -482.0 -308.0 -381.0 -303.0 -336.0L-317.0 -342.0Z"/></g>
<g fill="green" transform="translate(300 100) scale(0.1 -0.1)"><path d="M0.0 0.0 -69.0 27.0C-85.0 -24.0 -116.0 -94.0 -139.0 -140.0H-122.0C-89.0 -102.0 -52.0 -51.0 -30.0 -13.0C-14.0 -16.0 -4.0 -10.0 0.0 0.0ZM-342.0 16.0 -351.0 10.0C-320.0 -20.0 -282.0 -75.0 -274.0 -114.0C-231.0 -144.0 -200.0 -53.0 -342.0 16.0ZM-198.0 -413.0V-401.0H-236.0C-258.0 -499.0 -302.0 -593.0 -372.0 -664.0L-361.0 -678.0C-278.0 -609.0 -225.0 -519.0 -198.0 -413.0ZM-177.0 -720.0V-130.0H-212.0V-734.0H-207.0C-188.0 -734.0 -177.0 -724.0 -177.0 -720.0ZM-49.0 -406.0H-311.0L-318.0 -430.0H-49.0ZM-69.0 -275.0H-284.0L-290.0 -299.0H-69.0ZM-76.0 -406.0H-68.0C-72.0 -518.0 -80.0 -570.0 -91.0 -583.0C-97.0 -588.0 -102.0 -588.0 -111.0 -588.0C-122.0 -588.0 -148.0 -586.0 -165.0 -585.0V-600.0C-151.0 -602.0 -136.0 -605.0 -131.0 -610.0C-123.0 -615.0 -121.0 -626.0 -121.0 -635.0C-104.0 -635.0 -86.0 -630.0 -71.0 -617.0C-49.0 -599.0 -39.0 -547.0 -34.0 -432.0C-19.0 -431.0 -10.0 -427.0 -5.0 -420.0L-53.0 -381.0ZM-107.0 -132.0H-99.0V-332.0H-94.0C-81.0 -332.0 -64.0 -323.0 -64.0 -318.0V-165.0C-47.0 -160.0 -31.0 -155.0 -25.0 -148.0L-82.0 -105.0ZM-68.0 -132.0H-346.0L-338.0 -155.0H-68.0ZM-261.0 -274.0 -308.0 -252.0C-313.0 -299.0 -329.0 -385.0 -341.0 -422.0L-324.0 -394.0C-336.0 -396.0 -357.0 -403.0 -369.0 -409.0L-323.0 -450.0L-299.0 -428.0H-307.0C-296.0 -385.0 -281.0 -313.0 -274.0 -270.0L-280.0 -274.0Z"/></g>
<g fill="green" transform="translate(400 100) scale(0.1 -0.1)"><path d="M0.0 0.0 -143.0 39.0C-150.0 -13.0 -163.0 -95.0 -173.0 -147.0H-164.0C-119.0 -107.0 -65.0 -50.0 -31.0 -16.0C-12.0 -16.0 -4.0 -9.0 0.0 0.0ZM-346.0 38.0 -353.0 34.0C-324.0 -5.0 -300.0 -61.0 -296.0 -112.0C-207.0 -185.0 -117.0 -7.0 -346.0 38.0ZM-144.0 -411.0V-399.0H-242.0C-262.0 -499.0 -308.0 -597.0 -378.0 -663.0L-371.0 -673.0C-257.0 -613.0 -180.0 -525.0 -144.0 -411.0ZM-128.0 -709.0V-130.0H-222.0V-734.0H-205.0C-156.0 -734.0 -128.0 -714.0 -128.0 -709.0ZM-66.0 -400.0H-257.0L-263.0 -423.0H-66.0ZM-84.0 -274.0H-233.0L-239.0 -296.0H-84.0ZM-108.0 -400.0H-100.0C-99.0 -499.0 -98.0 -535.0 -102.0 -543.0C-104.0 -546.0 -107.0 -546.0 -115.0 -546.0C-125.0 -546.0 -142.0 -547.0 -150.0 -545.0V-555.0C-132.0 -561.0 -126.0 -567.0 -118.0 -578.0C-111.0 -589.0 -110.0 -600.0 -110.0 -625.0C-72.0 -625.0 -50.0 -621.0 -30.0 -607.0C-5.0 -587.0 -5.0 -557.0 -7.0 -437.0C7.0 -434.0 16.0 -430.0 21.0 -423.0L-62.0 -357.0ZM-131.0 -133.0H-123.0V-317.0H-105.0C-75.0 -317.0 -23.0 -304.0 -22.0 -299.0V-173.0C-4.0 -169.0 7.0 -161.0 12.0 -155.0L-86.0 -82.0ZM-109.0 -133.0H-317.0L-310.0 -155.0H-109.0ZM-202.0 -274.0 -315.0 -224.0C-317.0 -272.0 -327.0 -372.0 -337.0 -416.0L-314.0 -386.0C-329.0 -391.0 -348.0 -404.0 -359.0 -414.0L-268.0 -464.0L-236.0 -423.0H-242.0C-235.0 -384.0 -224.0 -305.0 -221.0 -270.0L-231.0 -274.0Z"/></g>
<g fill="green" transform="translate(500 100) scale(0.1 -0.1)"><path d="M0.0 0.0 -93.0 46.0C-118.0 -12.0 -162.0 -88.0 -197.0 -136.0H-169.0C-124.0 -100.0 -76.0 -53.0 -47.0 -16.0C-23.0 -21.0 -6.0 -13.0 0.0 0.0ZM-568.0 34.0 -582.0 23.0C-538.0 -10.0 -487.0 -71.0 -474.0 -116.0C-414.0 -157.0 -370.0 -29.0 -568.0 34.0ZM-316.0 -470.0V-451.0H-379.0C-476.0 -564.0 -634.0 -665.0 -810.0 -732.0L-798.0 -754.0C-602.0 -695.0 -425.0 -598.0 -316.0 -470.0ZM-286.0 -749.0V-129.0H-340.0V-771.0H-332.0C-304.0 -771.0 -286.0 -755.0 -286.0 -749.0ZM121.0 -448.0H-676.0L-689.0 -485.0H121.0ZM54.0 -291.0H-627.0L-639.0 -328.0H54.0ZM76.0 -448.0H88.0C80.0 -558.0 63.0 -630.0 44.0 -646.0C34.0 -653.0 21.0 -655.0 0.0 -655.0C-23.0 -655.0 -98.0 -649.0 -142.0 -646.0L-143.0 -669.0C-106.0 -672.0 -64.0 -680.0 -51.0 -689.0C-36.0 -699.0 -34.0 -715.0 -34.0 -730.0C5.0 -731.0 45.0 -721.0 70.0 -702.0C108.0 -674.0 130.0 -603.0 139.0 -489.0C163.0 -486.0 177.0 -480.0 185.0 -472.0L111.0 -410.0ZM8.0 -125.0H19.0V-380.0H26.0C45.0 -380.0 71.0 -365.0 72.0 -358.0V-169.0C93.0 -165.0 113.0 -157.0 120.0 -148.0L44.0 -89.0ZM53.0 -125.0H-741.0L-729.0 -160.0H53.0ZM-596.0 -291.0 -665.0 -255.0C-676.0 -315.0 -702.0 -423.0 -718.0 -470.0L-692.0 -430.0C-712.0 -433.0 -743.0 -442.0 -761.0 -451.0L-692.0 -515.0L-657.0 -481.0H-669.0C-652.0 -429.0 -626.0 -337.0 -615.0 -285.0L-624.0 -291.0Z"/></g>
<g fill="green" transform="translate(600 100) scale(0.1 -0.1)"><path d="M0.0 0.0 -216.0 65.0C-226.0 6.0 -242.0 -87.0 -256.0 -145.0H-243.0C-177.0 -108.0 -98.0 -55.0 -47.0 -22.0C-19.0 -24.0 -6.0 -14.0 0.0 0.0ZM-579.0 66.0 -588.0 60.0C-556.0 20.0 -528.0 -43.0 -525.0 -102.0C-388.0 -209.0 -234.0 52.0 -579.0 66.0ZM-241.0 -452.0V-433.0H-439.0C-514.0 -547.0 -656.0 -657.0 -833.0 -723.0L-825.0 -738.0C-566.0 -690.0 -354.0 -597.0 -241.0 -452.0ZM-202.0 -704.0V-125.0H-380.0V-740.0H-347.0C-256.0 -740.0 -203.0 -710.0 -202.0 -704.0ZM70.0 -430.0H-612.0L-625.0 -464.0H70.0ZM13.0 -273.0H-554.0L-566.0 -306.0H13.0ZM-2.0 -430.0H9.0C7.0 -509.0 1.0 -551.0 -9.0 -559.0C-15.0 -563.0 -23.0 -564.0 -41.0 -564.0C-61.0 -564.0 -123.0 -563.0 -153.0 -559.0V-573.0C-110.0 -584.0 -86.0 -595.0 -66.0 -616.0C-48.0 -637.0 -45.0 -666.0 -45.0 -712.0C31.0 -713.0 71.0 -704.0 107.0 -684.0C155.0 -657.0 170.0 -608.0 175.0 -491.0C198.0 -486.0 210.0 -479.0 219.0 -470.0L78.0 -357.0ZM-45.0 -122.0H-34.0V-340.0H-3.0C49.0 -340.0 134.0 -314.0 136.0 -306.0V-183.0C161.0 -176.0 176.0 -166.0 182.0 -156.0L27.0 -42.0ZM-8.0 -122.0H-738.0L-727.0 -155.0H-8.0ZM-492.0 -273.0 -680.0 -188.0C-690.0 -254.0 -719.0 -387.0 -740.0 -447.0L-695.0 -403.0C-722.0 -410.0 -755.0 -430.0 -772.0 -448.0L-621.0 -531.0L-567.0 -464.0H-575.0C-560.0 -415.0 -532.0 -311.0 -521.0 -265.0L-539.0 -273.0Z"/></g>
<g fill="green" transform="translate(700 100) scale(0.1 -0.1)"><path d="M0.0 0.0 -88.0 26.0C-105.0 -32.0 -136.0 -113.0 -161.0 -166.0H-137.0C-102.0 -121.0 -64.0 -64.0 -41.0 -19.0C-18.0 -21.0 -5.0 -12.0 0.0 0.0ZM-349.0 20.0 -362.0 13.0C-332.0 -26.0 -298.0 -92.0 -293.0 -140.0C-245.0 -182.0 -197.0 -75.0 -349.0 20.0ZM-181.0 -531.0V-514.0H-233.0C-273.0 -650.0 -346.0 -780.0 -450.0 -878.0L-436.0 -896.0C-314.0 -800.0 -229.0 -676.0 -181.0 -531.0ZM-168.0 -955.0V-160.0H-216.0V-973.0H-209.0C-184.0 -973.0 -168.0 -959.0 -168.0 -955.0ZM14.0 -514.0H-392.0L-394.0 -547.0H14.0ZM-7.0 -338.0H-359.0V-371.0H-7.0ZM-15.0 -514.0H-4.0C-10.0 -657.0 -20.0 -724.0 -33.0 -741.0C-37.0 -746.0 -41.0 -748.0 -51.0 -748.0C-65.0 -748.0 -107.0 -746.0 -130.0 -743.0L-129.0 -763.0C-108.0 -765.0 -84.0 -770.0 -74.0 -776.0C-63.0 -783.0 -58.0 -798.0 -58.0 -807.0C-39.0 -808.0 -19.0 -801.0 -3.0 -786.0C26.0 -761.0 34.0 -693.0 41.0 -549.0C62.0 -548.0 74.0 -543.0 81.0 -535.0L15.0 -480.0ZM-50.0 -155.0H-40.0V-419.0H-34.0C-17.0 -419.0 6.0 -406.0 7.0 -400.0V-195.0C26.0 -191.0 44.0 -183.0 50.0 -176.0L-19.0 -122.0ZM-5.0 -155.0H-428.0L-417.0 -187.0H-5.0ZM-310.0 -338.0 -375.0 -308.0C-379.0 -372.0 -398.0 -488.0 -409.0 -539.0L-389.0 -500.0C-407.0 -503.0 -432.0 -512.0 -447.0 -522.0L-384.0 -576.0L-353.0 -547.0H-364.0C-352.0 -488.0 -335.0 -390.0 -329.0 -333.0L-337.0 -338.0Z"/></g>
<g fill="green" transform="translate(800 100) scale(0.1 -0.1)"><path d="M0.0 0.0 -174.0 48.0C-181.0 -13.0 -195.0 -103.0 -211.0 -162.0H-197.0C-141.0 -120.0 -79.0 -62.0 -41.0 -21.0C-16.0 -22.0 -4.0 -12.0 0.0 0.0ZM-398.0 42.0 -408.0 37.0C-384.0 -5.0 -363.0 -68.0 -364.0 -125.0C-265.0 -215.0 -139.0 -22.0 -398.0 42.0ZM-152.0 -512.0V-495.0H-299.0C-332.0 -640.0 -399.0 -792.0 -499.0 -897.0L-489.0 -908.0C-324.0 -814.0 -207.0 -680.0 -152.0 -512.0ZM-151.0 -956.0V-149.0H-275.0V-990.0H-252.0C-189.0 -990.0 -151.0 -963.0 -151.0 -956.0ZM-27.0 -494.0H-394.0L-396.0 -525.0H-27.0ZM-44.0 -325.0H-379.0V-354.0H-44.0ZM-94.0 -494.0H-84.0C-86.0 -623.0 -89.0 -678.0 -99.0 -692.0C-101.0 -696.0 -104.0 -697.0 -111.0 -697.0C-124.0 -697.0 -150.0 -696.0 -171.0 -694.0V-707.0C-146.0 -715.0 -129.0 -729.0 -119.0 -746.0C-110.0 -761.0 -106.0 -785.0 -107.0 -813.0C-70.0 -812.0 -36.0 -806.0 -11.0 -788.0C29.0 -758.0 36.0 -696.0 40.0 -544.0C60.0 -541.0 72.0 -534.0 79.0 -525.0L-32.0 -435.0ZM-112.0 -148.0H-103.0V-415.0H-79.0C-38.0 -415.0 25.0 -388.0 26.0 -379.0V-192.0C43.0 -189.0 54.0 -181.0 59.0 -174.0L-56.0 -89.0ZM-45.0 -148.0H-456.0L-447.0 -177.0H-45.0ZM-287.0 -325.0 -430.0 -258.0C-432.0 -323.0 -446.0 -457.0 -458.0 -515.0L-427.0 -475.0C-448.0 -482.0 -473.0 -498.0 -488.0 -511.0L-372.0 -577.0L-331.0 -525.0H-338.0C-329.0 -472.0 -316.0 -367.0 -312.0 -318.0L-327.0 -325.0Z"/></g>
<g fill="green" transform="translate(900 100) scale(0.1 -0.1)"><path d="M0.0 0.0 -81.0 36.0C-103.0 -27.0 -143.0 -112.0 -174.0 -168.0H-155.0C-111.0 -122.0 -63.0 -59.0 -35.0 -14.0C-17.0 -18.0 -5.0 -11.0 0.0 0.0ZM-407.0 27.0 -418.0 19.0C-378.0 -19.0 -328.0 -86.0 -317.0 -137.0C-264.0 -175.0 -226.0 -58.0 -407.0 27.0ZM-237.0 -511.0V-496.0H-283.0C-322.0 -624.0 -399.0 -743.0 -510.0 -828.0L-498.0 -844.0C-370.0 -763.0 -284.0 -648.0 -237.0 -511.0ZM-206.0 -877.0V-153.0H-247.0V-893.0H-242.0C-220.0 -893.0 -206.0 -882.0 -206.0 -877.0ZM-16.0 -496.0H-404.0L-416.0 -524.0H-16.0ZM-56.0 -329.0H-368.0L-380.0 -357.0H-56.0ZM-54.0 -496.0H-45.0C-50.0 -648.0 -63.0 -728.0 -82.0 -745.0C-90.0 -751.0 -99.0 -751.0 -113.0 -751.0C-129.0 -751.0 -168.0 -748.0 -195.0 -746.0V-764.0C-174.0 -767.0 -152.0 -771.0 -144.0 -778.0C-135.0 -786.0 -134.0 -799.0 -134.0 -810.0C-107.0 -810.0 -79.0 -804.0 -59.0 -785.0C-28.0 -759.0 -11.0 -681.0 -5.0 -527.0C12.0 -525.0 23.0 -521.0 30.0 -513.0L-28.0 -467.0ZM-95.0 -154.0H-84.0V-389.0H-79.0C-64.0 -389.0 -44.0 -379.0 -43.0 -373.0V-194.0C-22.0 -188.0 -3.0 -182.0 4.0 -174.0L-65.0 -121.0ZM-54.0 -154.0H-431.0L-422.0 -181.0H-54.0ZM-341.0 -328.0 -395.0 -302.0C-403.0 -360.0 -426.0 -467.0 -441.0 -514.0L-421.0 -481.0C-436.0 -484.0 -460.0 -492.0 -474.0 -499.0L-421.0 -547.0L-393.0 -522.0H-402.0C-387.0 -468.0 -365.0 -377.0 -356.0 -324.0L-362.0 -328.0Z"/></g>
<g fill="green" transform="translate(1000 100) scale(0.1 -0.1)"><path d="M0.0 0.0 -183.0 52.0C-193.0 -9.0 -209.0 -108.0 -220.0 -171.0H-212.0C-154.0 -123.0 -82.0 -56.0 -37.0 -18.0C-15.0 -19.0 -4.0 -12.0 0.0 0.0ZM-456.0 51.0 -463.0 47.0C-424.0 -3.0 -390.0 -74.0 -384.0 -141.0C-262.0 -232.0 -152.0 8.0 -456.0 51.0ZM-203.0 -523.0V-508.0H-339.0C-366.0 -635.0 -430.0 -758.0 -528.0 -839.0L-521.0 -849.0C-360.0 -778.0 -253.0 -669.0 -203.0 -523.0ZM-184.0 -885.0V-163.0H-311.0V-918.0H-288.0C-222.0 -918.0 -184.0 -893.0 -184.0 -885.0ZM-88.0 -506.0H-374.0L-386.0 -533.0H-88.0ZM-108.0 -351.0H-343.0L-353.0 -376.0H-108.0ZM-151.0 -506.0H-142.0C-139.0 -645.0 -136.0 -694.0 -143.0 -703.0C-145.0 -706.0 -150.0 -708.0 -164.0 -708.0C-177.0 -708.0 -202.0 -709.0 -209.0 -706.0V-718.0C-184.0 -726.0 -177.0 -733.0 -168.0 -748.0C-157.0 -764.0 -156.0 -787.0 -156.0 -828.0C-101.0 -829.0 -72.0 -819.0 -46.0 -800.0C-10.0 -773.0 -10.0 -734.0 -15.0 -552.0C3.0 -549.0 13.0 -543.0 19.0 -536.0L-88.0 -449.0ZM-179.0 -162.0H-170.0V-397.0H-147.0C-108.0 -397.0 -40.0 -382.0 -39.0 -377.0V-213.0C-17.0 -208.0 -2.0 -198.0 4.0 -190.0L-122.0 -96.0ZM-130.0 -162.0H-442.0L-434.0 -187.0H-130.0ZM-291.0 -351.0 -434.0 -286.0C-439.0 -345.0 -456.0 -469.0 -471.0 -523.0L-439.0 -488.0C-459.0 -494.0 -482.0 -510.0 -497.0 -523.0L-382.0 -585.0L-340.0 -533.0H-347.0C-337.0 -485.0 -319.0 -387.0 -313.0 -344.0L-327.0 -351.0Z"/></g>
<g fill="red" transform="translate(100 200) scale(0.1 -0.1)"><path d="M0.0 0.0 -83.0 33.0C-102.0 -24.0 -135.0 -102.0 -163.0 -153.0H-141.0C-103.0 -111.0 -62.0 -57.0 -38.0 -16.0C-18.0 -18.0 -4.0 -11.0 0.0 0.0ZM-396.0 26.0 -409.0 19.0C-374.0 -20.0 -333.0 -86.0 -325.0 -136.0C-274.0 -177.0 -230.0 -63.0 -396.0 26.0ZM-219.0 -497.0V-481.0H-270.0C-329.0 -607.0 -434.0 -725.0 -563.0 -808.0L-551.0 -825.0C-403.0 -746.0 -288.0 -633.0 -219.0 -497.0ZM-196.0 -855.0V-142.0H-240.0V-872.0H-234.0C-211.0 -872.0 -196.0 -859.0 -196.0 -855.0ZM67.0 -481.0H-473.0L-481.0 -511.0H67.0ZM23.0 -313.0H-438.0L-447.0 -343.0H23.0ZM37.0 -481.0H47.0C40.0 -618.0 26.0 -696.0 7.0 -713.0C-1.0 -719.0 -9.0 -720.0 -24.0 -720.0C-42.0 -720.0 -96.0 -716.0 -127.0 -714.0L-128.0 -732.0C-102.0 -735.0 -70.0 -741.0 -60.0 -748.0C-49.0 -756.0 -46.0 -770.0 -46.0 -781.0C-17.0 -781.0 13.0 -774.0 32.0 -757.0C64.0 -730.0 82.0 -652.0 89.0 -514.0C108.0 -512.0 120.0 -508.0 127.0 -500.0L65.0 -450.0ZM-23.0 -142.0H-13.0V-378.0H-7.0C8.0 -378.0 30.0 -367.0 31.0 -361.0V-181.0C50.0 -177.0 68.0 -170.0 75.0 -162.0L7.0 -110.0ZM26.0 -142.0H-508.0L-499.0 -172.0H26.0ZM-396.0 -313.0 -453.0 -284.0C-462.0 -344.0 -486.0 -453.0 -501.0 -501.0L-480.0 -466.0C-496.0 -469.0 -521.0 -477.0 -536.0 -485.0L-479.0 -537.0L-450.0 -510.0H-460.0C-444.0 -455.0 -421.0 -362.0 -412.0 -308.0L-419.0 -313.0Z"/></g>
<g fill="black" opacity=".8" transform="translate(100 200) scale(0.1 -0.1)"><path d="M0.0 0.0 -84.0 34.0C-104.0 -24.0 -141.0 -101.0 -169.0 -151.0H-147.0C-107.0 -110.0 -65.0 -57.0 -39.0 -15.0C-19.0 -19.0 -5.0 -11.0 0.0 0.0ZM-399.0 28.0 -411.0 20.0C-376.0 -17.0 -334.0 -80.0 -326.0 -127.0C-275.0 -167.0 -231.0 -54.0 -399.0 28.0ZM-216.0 -497.0V-481.0H-269.0C-330.0 -609.0 -437.0 -728.0 -572.0 -812.0L-560.0 -829.0C-407.0 -750.0 -287.0 -636.0 -216.0 -497.0ZM-194.0 -855.0V-142.0H-240.0V-873.0H-234.0C-209.0 -873.0 -194.0 -860.0 -194.0 -855.0ZM63.0 -476.0H-471.0L-480.0 -508.0H63.0ZM19.0 -308.0H-434.0L-441.0 -340.0H19.0ZM27.0 -476.0H38.0C31.0 -615.0 17.0 -692.0 -1.0 -709.0C-7.0 -715.0 -16.0 -716.0 -31.0 -716.0C-48.0 -716.0 -102.0 -713.0 -134.0 -710.0L-133.0 -729.0C-107.0 -732.0 -76.0 -738.0 -66.0 -745.0C-54.0 -753.0 -52.0 -768.0 -52.0 -779.0C-23.0 -780.0 6.0 -772.0 25.0 -754.0C59.0 -727.0 74.0 -651.0 81.0 -511.0C101.0 -509.0 113.0 -505.0 121.0 -497.0L56.0 -444.0ZM-18.0 -138.0H-8.0V-381.0H-2.0C14.0 -381.0 37.0 -369.0 37.0 -363.0V-177.0C57.0 -173.0 75.0 -166.0 81.0 -158.0L13.0 -105.0ZM21.0 -138.0H-504.0L-494.0 -168.0H21.0ZM-394.0 -308.0 -455.0 -279.0C-462.0 -340.0 -484.0 -449.0 -498.0 -498.0L-477.0 -461.0C-494.0 -464.0 -520.0 -473.0 -535.0 -482.0L-475.0 -535.0L-445.0 -507.0H-455.0C-441.0 -451.0 -420.0 -358.0 -411.0 -304.0L-419.0 -308.0Z"/></g>
<g fill="red" transform="translate(200 200) scale(0.1 -0.1)"><path d="M0.0 0.0 -189.0 54.0C-197.0 -3.0 -211.0 -90.0 -223.0 -148.0H-214.0C-154.0 -109.0 -83.0 -53.0 -38.0 -19.0C-15.0 -20.0 -4.0 -12.0 0.0 0.0ZM-461.0 52.0 -469.0 47.0C-439.0 3.0 -414.0 -62.0 -414.0 -122.0C-298.0 -221.0 -165.0 5.0 -461.0 52.0ZM-198.0 -488.0V-472.0H-362.0C-401.0 -599.0 -480.0 -729.0 -593.0 -813.0L-585.0 -824.0C-399.0 -751.0 -263.0 -639.0 -198.0 -488.0ZM-185.0 -858.0V-131.0H-327.0V-894.0H-301.0C-227.0 -894.0 -185.0 -866.0 -185.0 -858.0ZM-10.0 -470.0H-473.0L-481.0 -498.0H-10.0ZM-48.0 -311.0H-436.0L-444.0 -339.0H-48.0ZM-81.0 -470.0H-71.0C-72.0 -594.0 -73.0 -645.0 -83.0 -656.0C-87.0 -660.0 -92.0 -662.0 -105.0 -662.0C-120.0 -662.0 -157.0 -661.0 -176.0 -659.0V-670.0C-144.0 -679.0 -128.0 -691.0 -116.0 -709.0C-103.0 -727.0 -101.0 -759.0 -101.0 -799.0C-45.0 -799.0 -11.0 -788.0 17.0 -770.0C60.0 -740.0 67.0 -687.0 68.0 -520.0C87.0 -517.0 98.0 -510.0 105.0 -502.0L-12.0 -407.0ZM-119.0 -131.0H-109.0V-371.0H-85.0C-41.0 -371.0 30.0 -350.0 31.0 -343.0V-182.0C52.0 -177.0 65.0 -168.0 71.0 -160.0L-58.0 -64.0ZM-64.0 -131.0H-544.0L-535.0 -159.0H-64.0ZM-356.0 -311.0 -512.0 -241.0C-519.0 -302.0 -540.0 -430.0 -557.0 -486.0L-521.0 -449.0C-543.0 -456.0 -569.0 -472.0 -584.0 -487.0L-460.0 -554.0L-415.0 -498.0H-422.0C-409.0 -450.0 -389.0 -349.0 -381.0 -304.0L-396.0 -311.0Z"/></g>
<g fill="black" opacity=".8" transform="translate(200 200) scale(0.1 -0.1)"><path d="M0.0 0.0 -186.0 54.0C-194.0 -3.0 -209.0 -91.0 -222.0 -148.0H-211.0C-153.0 -109.0 -83.0 -54.0 -40.0 -20.0C-16.0 -21.0 -4.0 -12.0 0.0 0.0ZM-460.0 51.0 -468.0 46.0C-439.0 4.0 -413.0 -59.0 -411.0 -119.0C-294.0 -212.0 -167.0 12.0 -460.0 51.0ZM-193.0 -491.0V-475.0H-357.0C-401.0 -607.0 -490.0 -740.0 -614.0 -828.0L-607.0 -838.0C-409.0 -765.0 -264.0 -649.0 -193.0 -491.0ZM-180.0 -857.0V-141.0H-321.0V-891.0H-295.0C-223.0 -891.0 -180.0 -864.0 -180.0 -857.0ZM-12.0 -471.0H-472.0L-480.0 -501.0H-12.0ZM-38.0 -312.0H-442.0L-448.0 -340.0H-38.0ZM-84.0 -471.0H-74.0C-75.0 -593.0 -77.0 -645.0 -87.0 -656.0C-90.0 -660.0 -95.0 -661.0 -108.0 -661.0C-123.0 -661.0 -160.0 -661.0 -180.0 -658.0V-670.0C-149.0 -679.0 -132.0 -691.0 -120.0 -709.0C-107.0 -727.0 -104.0 -757.0 -105.0 -796.0C-51.0 -797.0 -17.0 -786.0 12.0 -768.0C55.0 -738.0 63.0 -683.0 65.0 -522.0C85.0 -519.0 96.0 -512.0 103.0 -504.0L-15.0 -408.0ZM-109.0 -137.0H-101.0V-383.0H-75.0C-31.0 -383.0 39.0 -360.0 40.0 -352.0V-186.0C59.0 -182.0 72.0 -174.0 78.0 -166.0L-50.0 -72.0ZM-43.0 -137.0H-546.0L-538.0 -165.0H-43.0ZM-359.0 -312.0 -512.0 -241.0C-518.0 -303.0 -538.0 -432.0 -555.0 -489.0L-519.0 -450.0C-541.0 -457.0 -567.0 -473.0 -583.0 -488.0L-459.0 -556.0L-414.0 -501.0H-422.0C-410.0 -451.0 -390.0 -350.0 -383.0 -304.0L-399.0 -312.0Z"/></g>
<g fill="red" transform="translate(300 200) scale(0.1 -0.1)"><path d="M0.0 0.0 -82.0 29.0C-104.0 -25.0 -141.0 -100.0 -170.0 -148.0H-147.0C-109.0 -109.0 -66.0 -56.0 -39.0 -16.0C-18.0 -18.0 -5.0 -10.0 0.0 0.0ZM-382.0 25.0 -394.0 17.0C-357.0 -16.0 -313.0 -75.0 -302.0 -120.0C-254.0 -155.0 -218.0 -49.0 -382.0 25.0ZM-179.0 -483.0V-467.0H-230.0C-282.0 -595.0 -376.0 -715.0 -497.0 -802.0L-485.0 -818.0C-345.0 -735.0 -240.0 -621.0 -179.0 -483.0ZM-177.0 -861.0V-135.0H-221.0V-878.0H-215.0C-192.0 -878.0 -177.0 -865.0 -177.0 -861.0ZM39.0 -467.0H-429.0V-497.0H39.0ZM16.0 -304.0H-396.0V-334.0H16.0ZM14.0 -467.0H24.0C18.0 -609.0 8.0 -683.0 -8.0 -700.0C-11.0 -704.0 -16.0 -706.0 -26.0 -706.0C-40.0 -706.0 -86.0 -703.0 -110.0 -701.0V-718.0C-87.0 -721.0 -60.0 -727.0 -50.0 -734.0C-40.0 -740.0 -34.0 -754.0 -34.0 -764.0C-13.0 -764.0 7.0 -757.0 22.0 -744.0C51.0 -717.0 60.0 -643.0 68.0 -500.0C86.0 -498.0 98.0 -494.0 105.0 -486.0L42.0 -435.0ZM-19.0 -135.0H-9.0V-384.0H-3.0C12.0 -384.0 34.0 -372.0 35.0 -367.0V-174.0C54.0 -170.0 72.0 -163.0 79.0 -155.0L11.0 -102.0ZM16.0 -135.0H-471.0L-462.0 -165.0H16.0ZM-354.0 -304.0 -412.0 -275.0C-418.0 -334.0 -438.0 -442.0 -449.0 -488.0L-430.0 -453.0C-446.0 -456.0 -470.0 -464.0 -484.0 -473.0L-427.0 -524.0L-398.0 -497.0H-408.0C-395.0 -443.0 -378.0 -351.0 -371.0 -299.0L-378.0 -304.0Z"/></g>
<g fill="black" opacity=".8" transform="translate(300 200) scale(0.1 -0.1)"><path d="M0.0 0.0 -81.0 30.0C-100.0 -26.0 -133.0 -101.0 -159.0 -150.0H-138.0C-101.0 -109.0 -62.0 -57.0 -38.0 -16.0C-18.0 -19.0 -5.0 -11.0 0.0 0.0ZM-361.0 25.0 -372.0 18.0C-340.0 -19.0 -302.0 -80.0 -296.0 -126.0C-248.0 -166.0 -205.0 -59.0 -361.0 25.0ZM-192.0 -490.0V-474.0H-242.0C-295.0 -602.0 -388.0 -720.0 -510.0 -806.0L-498.0 -823.0C-358.0 -741.0 -254.0 -627.0 -192.0 -490.0ZM-174.0 -857.0V-142.0H-218.0V-874.0H-212.0C-189.0 -874.0 -174.0 -862.0 -174.0 -857.0ZM49.0 -471.0H-424.0L-431.0 -501.0H49.0ZM13.0 -305.0H-390.0L-394.0 -336.0H13.0ZM17.0 -471.0H27.0C20.0 -608.0 8.0 -680.0 -8.0 -697.0C-14.0 -702.0 -20.0 -704.0 -33.0 -704.0C-49.0 -704.0 -97.0 -701.0 -125.0 -698.0V-716.0C-101.0 -719.0 -73.0 -725.0 -63.0 -731.0C-53.0 -739.0 -50.0 -753.0 -50.0 -763.0C-25.0 -764.0 0.0 -756.0 18.0 -740.0C49.0 -714.0 62.0 -642.0 68.0 -503.0C88.0 -502.0 99.0 -498.0 107.0 -490.0L44.0 -439.0ZM-23.0 -137.0H-14.0V-376.0H-8.0C8.0 -376.0 29.0 -365.0 30.0 -359.0V-175.0C49.0 -171.0 66.0 -164.0 71.0 -157.0L6.0 -106.0ZM15.0 -137.0H-454.0L-444.0 -167.0H15.0ZM-348.0 -305.0 -407.0 -278.0C-413.0 -337.0 -434.0 -445.0 -446.0 -492.0L-426.0 -457.0C-443.0 -459.0 -467.0 -468.0 -482.0 -477.0L-424.0 -527.0L-395.0 -501.0H-405.0C-392.0 -446.0 -372.0 -354.0 -365.0 -301.0L-372.0 -305.0Z"/></g>
<g fill="red" transform="translate(400 200) scale(0.1 -0.1)"><path d="M0.0 0.0 -163.0 54.0C-175.0 -4.0 -198.0 -88.0 -220.0 -144.0H-207.0C-147.0 -106.0 -80.0 -54.0 -38.0 -17.0C-16.0 -19.0 -4.0 -12.0 0.0 0.0ZM-430.0 52.0 -439.0 47.0C-412.0 6.0 -386.0 -56.0 -384.0 -112.0C-283.0 -197.0 -168.0 0.0 -430.0 52.0ZM-175.0 -476.0V-460.0H-322.0C-356.0 -593.0 -424.0 -736.0 -522.0 -830.0L-513.0 -841.0C-350.0 -755.0 -232.0 -633.0 -175.0 -476.0ZM-170.0 -864.0V-134.0H-296.0V-897.0H-273.0C-208.0 -897.0 -170.0 -871.0 -170.0 -864.0ZM-45.0 -460.0H-415.0V-488.0H-45.0ZM-59.0 -302.0H-400.0V-330.0H-59.0ZM-93.0 -460.0H-83.0C-86.0 -583.0 -90.0 -639.0 -101.0 -654.0C-103.0 -659.0 -107.0 -660.0 -113.0 -660.0C-127.0 -660.0 -155.0 -659.0 -179.0 -657.0V-668.0C-152.0 -676.0 -133.0 -692.0 -123.0 -708.0C-113.0 -724.0 -110.0 -749.0 -111.0 -776.0C-71.0 -775.0 -37.0 -770.0 -12.0 -752.0C28.0 -722.0 37.0 -657.0 42.0 -508.0C59.0 -505.0 72.0 -498.0 78.0 -490.0L-30.0 -402.0ZM-100.0 -133.0H-91.0V-386.0H-69.0C-28.0 -386.0 32.0 -360.0 32.0 -352.0V-176.0C49.0 -172.0 59.0 -165.0 64.0 -159.0L-46.0 -77.0ZM-55.0 -133.0H-506.0L-497.0 -161.0H-55.0ZM-336.0 -302.0 -475.0 -240.0C-477.0 -300.0 -490.0 -425.0 -502.0 -479.0L-471.0 -442.0C-491.0 -449.0 -516.0 -464.0 -530.0 -477.0L-418.0 -540.0L-377.0 -488.0H-385.0C-376.0 -439.0 -364.0 -341.0 -360.0 -295.0L-374.0 -302.0Z"/></g>
<g fill="black" opacity=".8" transform="translate(400 200) scale(0.1 -0.1)"><path d="M0.0 0.0 -175.0 50.0C-183.0 -5.0 -196.0 -91.0 -210.0 -145.0H-199.0C-143.0 -107.0 -79.0 -54.0 -38.0 -19.0C-15.0 -20.0 -3.0 -12.0 0.0 0.0ZM-422.0 46.0 -430.0 42.0C-403.0 1.0 -380.0 -60.0 -379.0 -117.0C-272.0 -205.0 -151.0 1.0 -422.0 46.0ZM-174.0 -482.0V-466.0H-327.0C-365.0 -598.0 -443.0 -734.0 -555.0 -824.0L-547.0 -835.0C-367.0 -757.0 -236.0 -638.0 -174.0 -482.0ZM-166.0 -862.0V-139.0H-297.0V-895.0H-273.0C-205.0 -895.0 -166.0 -869.0 -166.0 -862.0ZM-19.0 -463.0H-432.0L-438.0 -492.0H-19.0ZM-40.0 -307.0H-409.0L-413.0 -333.0H-40.0ZM-88.0 -463.0H-78.0C-79.0 -586.0 -82.0 -638.0 -91.0 -650.0C-94.0 -653.0 -98.0 -654.0 -109.0 -654.0C-123.0 -654.0 -155.0 -654.0 -174.0 -651.0V-663.0C-146.0 -671.0 -130.0 -684.0 -119.0 -701.0C-108.0 -717.0 -105.0 -745.0 -106.0 -781.0C-59.0 -781.0 -26.0 -771.0 0.0 -754.0C42.0 -725.0 49.0 -669.0 51.0 -511.0C70.0 -509.0 81.0 -502.0 88.0 -494.0L-23.0 -403.0ZM-109.0 -136.0H-101.0V-381.0H-77.0C-36.0 -381.0 29.0 -358.0 30.0 -350.0V-181.0C48.0 -177.0 60.0 -169.0 65.0 -162.0L-53.0 -74.0ZM-41.0 -136.0H-497.0L-489.0 -162.0H-41.0ZM-323.0 -307.0 -467.0 -240.0C-472.0 -300.0 -489.0 -426.0 -504.0 -481.0L-471.0 -444.0C-492.0 -450.0 -516.0 -466.0 -532.0 -479.0L-415.0 -544.0L-373.0 -492.0H-380.0C-370.0 -443.0 -352.0 -344.0 -347.0 -299.0L-362.0 -307.0Z"/></g>
<g fill="red" transform="translate(500 200) scale(0.1 -0.1)"><path d="M0.0 0.0 -83.0 33.0C-102.0 -23.0 -134.0 -101.0 -162.0 -153.0H-140.0C-102.0 -111.0 -62.0 -56.0 -38.0 -15.0C-18.0 -17.0 -5.0 -10.0 0.0 0.0ZM-383.0 26.0 -396.0 19.0C-361.0 -19.0 -321.0 -84.0 -313.0 -134.0C-263.0 -174.0 -219.0 -62.0 -383.0 26.0ZM-213.0 -497.0V-481.0H-264.0C-317.0 -607.0 -411.0 -724.0 -531.0 -809.0L-519.0 -825.0C-380.0 -744.0 -275.0 -632.0 -213.0 -497.0ZM-189.0 -855.0V-142.0H-233.0V-872.0H-227.0C-204.0 -872.0 -189.0 -859.0 -189.0 -855.0ZM60.0 -465.0H-442.0L-450.0 -495.0H60.0ZM10.0 -296.0H-409.0L-418.0 -326.0H10.0ZM21.0 -465.0H31.0C25.0 -611.0 10.0 -691.0 -8.0 -708.0C-16.0 -714.0 -24.0 -716.0 -39.0 -716.0C-57.0 -716.0 -108.0 -712.0 -138.0 -709.0L-139.0 -728.0C-114.0 -731.0 -84.0 -737.0 -73.0 -744.0C-63.0 -752.0 -60.0 -765.0 -60.0 -777.0C-32.0 -777.0 -2.0 -769.0 17.0 -753.0C49.0 -725.0 66.0 -645.0 73.0 -498.0C92.0 -496.0 104.0 -492.0 111.0 -484.0L49.0 -434.0ZM-25.0 -128.0H-15.0V-368.0H-9.0C6.0 -368.0 28.0 -357.0 29.0 -351.0V-167.0C48.0 -163.0 66.0 -156.0 72.0 -148.0L5.0 -96.0ZM14.0 -128.0H-459.0L-450.0 -158.0H14.0ZM-366.0 -296.0 -423.0 -268.0C-431.0 -328.0 -455.0 -437.0 -468.0 -485.0L-448.0 -450.0C-464.0 -453.0 -489.0 -461.0 -503.0 -469.0L-447.0 -521.0L-418.0 -494.0H-428.0C-413.0 -439.0 -390.0 -346.0 -382.0 -292.0L-389.0 -296.0Z"/></g>
<g fill="black" opacity=".8" transform="translate(500 200) scale(0.1 -0.1)"><path d="M0.0 0.0 -81.0 33.0C-101.0 -24.0 -137.0 -100.0 -165.0 -150.0H-143.0C-105.0 -109.0 -63.0 -56.0 -37.0 -15.0C-18.0 -18.0 -5.0 -11.0 0.0 0.0ZM-378.0 28.0 -390.0 20.0C-354.0 -16.0 -313.0 -79.0 -305.0 -126.0C-256.0 -165.0 -214.0 -55.0 -378.0 28.0ZM-205.0 -492.0V-476.0H-256.0C-312.0 -604.0 -413.0 -722.0 -543.0 -806.0L-532.0 -822.0C-384.0 -743.0 -272.0 -629.0 -205.0 -492.0ZM-183.0 -849.0V-141.0H-227.0V-866.0H-221.0C-198.0 -866.0 -183.0 -854.0 -183.0 -849.0ZM56.0 -471.0H-443.0L-452.0 -501.0H56.0ZM13.0 -305.0H-407.0L-414.0 -335.0H13.0ZM20.0 -471.0H30.0C24.0 -613.0 11.0 -690.0 -8.0 -707.0C-14.0 -713.0 -22.0 -714.0 -37.0 -714.0C-54.0 -714.0 -104.0 -711.0 -135.0 -708.0L-134.0 -726.0C-109.0 -729.0 -81.0 -735.0 -70.0 -742.0C-60.0 -750.0 -58.0 -764.0 -58.0 -774.0C-30.0 -775.0 -2.0 -768.0 17.0 -750.0C50.0 -723.0 65.0 -646.0 72.0 -504.0C91.0 -502.0 102.0 -498.0 110.0 -490.0L48.0 -440.0ZM-22.0 -137.0H-12.0V-372.0H-7.0C9.0 -372.0 30.0 -361.0 31.0 -355.0V-175.0C50.0 -171.0 67.0 -164.0 74.0 -156.0L7.0 -105.0ZM15.0 -137.0H-471.0L-461.0 -165.0H15.0ZM-369.0 -305.0 -427.0 -277.0C-434.0 -336.0 -456.0 -444.0 -469.0 -492.0L-449.0 -457.0C-466.0 -460.0 -490.0 -468.0 -504.0 -477.0L-448.0 -527.0L-418.0 -500.0H-428.0C-414.0 -446.0 -393.0 -354.0 -385.0 -301.0L-392.0 -305.0Z"/></g>
<g fill="red" transform="translate(600 200) scale(0.1 -0.1)"><path d="M0.0 0.0 -185.0 53.0C-193.0 -4.0 -208.0 -91.0 -220.0 -149.0H-210.0C-151.0 -109.0 -82.0 -54.0 -39.0 -19.0C-16.0 -21.0 -4.0 -13.0 0.0 0.0ZM-447.0 51.0 -455.0 46.0C-423.0 3.0 -395.0 -61.0 -392.0 -121.0C-275.0 -213.0 -152.0 13.0 -447.0 51.0ZM-189.0 -488.0V-472.0H-350.0C-386.0 -599.0 -461.0 -730.0 -569.0 -815.0L-562.0 -826.0C-382.0 -752.0 -252.0 -639.0 -189.0 -488.0ZM-179.0 -862.0V-152.0H-318.0V-897.0H-292.0C-221.0 -897.0 -179.0 -870.0 -179.0 -862.0ZM-14.0 -467.0H-458.0L-466.0 -495.0H-14.0ZM-46.0 -305.0H-424.0L-432.0 -333.0H-46.0ZM-93.0 -467.0H-83.0C-84.0 -600.0 -85.0 -653.0 -95.0 -664.0C-99.0 -669.0 -104.0 -670.0 -117.0 -670.0C-132.0 -670.0 -166.0 -670.0 -183.0 -668.0V-679.0C-153.0 -688.0 -138.0 -700.0 -127.0 -717.0C-115.0 -735.0 -113.0 -765.0 -113.0 -805.0C-59.0 -805.0 -24.0 -795.0 3.0 -775.0C46.0 -746.0 52.0 -692.0 54.0 -517.0C73.0 -514.0 84.0 -507.0 91.0 -499.0L-25.0 -405.0ZM-124.0 -142.0H-114.0V-382.0H-90.0C-47.0 -382.0 22.0 -360.0 23.0 -354.0V-191.0C43.0 -187.0 56.0 -178.0 62.0 -171.0L-64.0 -77.0ZM-48.0 -142.0H-514.0L-505.0 -170.0H-48.0ZM-339.0 -305.0 -492.0 -235.0C-498.0 -297.0 -519.0 -426.0 -535.0 -483.0L-500.0 -446.0C-522.0 -453.0 -547.0 -469.0 -562.0 -484.0L-440.0 -550.0L-396.0 -495.0H-404.0C-391.0 -445.0 -372.0 -343.0 -364.0 -297.0L-379.0 -305.0Z"/></g>
<g fill="black" opacity=".8" transform="translate(600 200) scale(0.1 -0.1)"><path d="M0.0 0.0 -180.0 52.0C-189.0 -3.0 -203.0 -91.0 -216.0 -146.0H-206.0C-149.0 -107.0 -81.0 -53.0 -38.0 -19.0C-15.0 -20.0 -3.0 -12.0 0.0 0.0ZM-446.0 49.0 -453.0 45.0C-423.0 2.0 -397.0 -61.0 -394.0 -120.0C-280.0 -210.0 -158.0 10.0 -446.0 49.0ZM-190.0 -490.0V-474.0H-347.0C-386.0 -605.0 -469.0 -738.0 -586.0 -824.0L-578.0 -834.0C-390.0 -761.0 -255.0 -645.0 -190.0 -490.0ZM-178.0 -857.0V-142.0H-314.0V-890.0H-289.0C-219.0 -890.0 -179.0 -864.0 -178.0 -857.0ZM-25.0 -470.0H-450.0L-459.0 -499.0H-25.0ZM-48.0 -314.0H-423.0L-430.0 -341.0H-48.0ZM-96.0 -470.0H-87.0C-87.0 -597.0 -88.0 -649.0 -98.0 -660.0C-101.0 -663.0 -106.0 -665.0 -119.0 -665.0C-133.0 -665.0 -167.0 -665.0 -184.0 -662.0V-674.0C-155.0 -682.0 -140.0 -694.0 -129.0 -711.0C-117.0 -728.0 -114.0 -758.0 -115.0 -798.0C-62.0 -799.0 -29.0 -787.0 -2.0 -769.0C40.0 -740.0 47.0 -687.0 48.0 -519.0C67.0 -517.0 78.0 -510.0 84.0 -502.0L-29.0 -409.0ZM-120.0 -138.0H-112.0V-382.0H-87.0C-46.0 -382.0 22.0 -360.0 24.0 -353.0V-186.0C43.0 -182.0 55.0 -173.0 61.0 -166.0L-63.0 -74.0ZM-52.0 -138.0H-518.0L-510.0 -164.0H-52.0ZM-341.0 -314.0 -488.0 -246.0C-494.0 -306.0 -513.0 -432.0 -529.0 -487.0L-495.0 -450.0C-517.0 -457.0 -541.0 -473.0 -557.0 -487.0L-437.0 -552.0L-394.0 -499.0H-401.0C-390.0 -450.0 -371.0 -351.0 -364.0 -306.0L-379.0 -314.0Z"/></g>
<g fill="red" transform="translate(700 200) scale(0.1 -0.1)"><path d="M0.0 0.0 -83.0 33.0C-102.0 -24.0 -135.0 -102.0 -163.0 -153.0H-141.0C-103.0 -111.0 -62.0 -57.0 -38.0 -16.0C-18.0 -18.0 -4.0 -11.0 0.0 0.0ZM-412.0 30.0 -424.0 23.0C-391.0 -14.0 -351.0 -77.0 -344.0 -126.0C-293.0 -165.0 -249.0 -54.0 -412.0 30.0ZM-224.0 -497.0V-481.0H-275.0C-339.0 -609.0 -451.0 -728.0 -590.0 -810.0L-578.0 -827.0C-422.0 -749.0 -298.0 -636.0 -224.0 -497.0ZM-202.0 -855.0V-142.0H-246.0V-872.0H-240.0C-217.0 -872.0 -202.0 -859.0 -202.0 -855.0ZM51.0 -481.0H-475.0L-483.0 -511.0H51.0ZM17.0 -313.0H-430.0L-439.0 -343.0H17.0ZM23.0 -481.0H33.0C26.0 -618.0 12.0 -696.0 -7.0 -713.0C-15.0 -719.0 -23.0 -720.0 -38.0 -720.0C-56.0 -720.0 -110.0 -716.0 -141.0 -714.0L-142.0 -732.0C-116.0 -735.0 -84.0 -741.0 -74.0 -748.0C-63.0 -756.0 -60.0 -770.0 -60.0 -781.0C-31.0 -781.0 -1.0 -774.0 18.0 -757.0C50.0 -730.0 68.0 -652.0 75.0 -514.0C94.0 -512.0 106.0 -508.0 113.0 -500.0L51.0 -450.0ZM-23.0 -142.0H-13.0V-378.0H-7.0C8.0 -378.0 30.0 -367.0 31.0 -361.0V-181.0C50.0 -177.0 68.0 -170.0 75.0 -162.0L7.0 -110.0ZM10.0 -142.0H-505.0L-496.0 -172.0H10.0ZM-397.0 -313.0 -454.0 -284.0C-463.0 -344.0 -487.0 -453.0 -502.0 -501.0L-481.0 -466.0C-497.0 -469.0 -522.0 -477.0 -537.0 -485.0L-480.0 -537.0L-451.0 -510.0H-461.0C-445.0 -455.0 -422.0 -362.0 -413.0 -308.0L-420.0 -313.0Z"/></g>
<g fill="black" opacity=".8" transform="translate(700 200) scale(0.1 -0.1)"><path d="M0.0 0.0 -84.0 35.0C-105.0 -23.0 -143.0 -102.0 -173.0 -153.0H-151.0C-110.0 -111.0 -65.0 -57.0 -39.0 -15.0C-19.0 -19.0 -5.0 -11.0 0.0 0.0ZM-411.0 29.0 -423.0 21.0C-385.0 -16.0 -341.0 -80.0 -332.0 -128.0C-280.0 -168.0 -237.0 -52.0 -411.0 29.0ZM-226.0 -500.0V-483.0H-278.0C-339.0 -612.0 -448.0 -731.0 -586.0 -814.0L-574.0 -831.0C-418.0 -753.0 -297.0 -639.0 -226.0 -500.0ZM-201.0 -854.0V-143.0H-247.0V-871.0H-240.0C-216.0 -871.0 -201.0 -859.0 -201.0 -854.0ZM60.0 -479.0H-477.0L-487.0 -510.0H60.0ZM13.0 -311.0H-439.0L-448.0 -342.0H13.0ZM22.0 -479.0H32.0C26.0 -621.0 11.0 -700.0 -8.0 -718.0C-15.0 -723.0 -24.0 -724.0 -40.0 -724.0C-58.0 -724.0 -111.0 -721.0 -144.0 -718.0V-737.0C-117.0 -740.0 -87.0 -746.0 -76.0 -753.0C-65.0 -762.0 -63.0 -776.0 -63.0 -788.0C-33.0 -788.0 -2.0 -781.0 18.0 -762.0C52.0 -734.0 69.0 -656.0 75.0 -513.0C95.0 -511.0 107.0 -507.0 115.0 -499.0L51.0 -447.0ZM-24.0 -139.0H-14.0V-381.0H-9.0C8.0 -381.0 30.0 -369.0 31.0 -363.0V-179.0C51.0 -174.0 69.0 -167.0 75.0 -160.0L6.0 -106.0ZM14.0 -139.0H-509.0L-499.0 -169.0H14.0ZM-402.0 -310.0 -462.0 -281.0C-469.0 -342.0 -493.0 -451.0 -507.0 -500.0L-486.0 -464.0C-503.0 -467.0 -528.0 -476.0 -543.0 -484.0L-485.0 -536.0L-454.0 -509.0H-465.0C-450.0 -453.0 -428.0 -360.0 -419.0 -306.0L-426.0 -310.0Z"/></g>
<g fill="red" transform="translate(800 200) scale(0.1 -0.1)"><path d="M0.0 0.0 -189.0 54.0C-197.0 -3.0 -211.0 -90.0 -223.0 -148.0H-214.0C-154.0 -109.0 -83.0 -53.0 -38.0 -19.0C-15.0 -20.0 -4.0 -12.0 0.0 0.0ZM-480.0 52.0 -488.0 47.0C-454.0 4.0 -425.0 -61.0 -421.0 -122.0C-301.0 -215.0 -178.0 17.0 -480.0 52.0ZM-200.0 -497.0V-481.0H-364.0C-405.0 -609.0 -490.0 -740.0 -610.0 -823.0L-602.0 -834.0C-409.0 -762.0 -268.0 -650.0 -200.0 -497.0ZM-192.0 -860.0V-142.0H-334.0V-896.0H-308.0C-234.0 -896.0 -192.0 -868.0 -192.0 -860.0ZM-17.0 -481.0H-480.0L-488.0 -509.0H-17.0ZM-55.0 -322.0H-443.0L-451.0 -350.0H-55.0ZM-89.0 -481.0H-79.0C-80.0 -605.0 -81.0 -656.0 -91.0 -667.0C-95.0 -671.0 -100.0 -673.0 -113.0 -673.0C-128.0 -673.0 -165.0 -672.0 -184.0 -670.0V-681.0C-152.0 -690.0 -136.0 -702.0 -124.0 -720.0C-111.0 -738.0 -109.0 -770.0 -109.0 -810.0C-53.0 -810.0 -19.0 -799.0 9.0 -781.0C52.0 -751.0 59.0 -698.0 60.0 -531.0C79.0 -528.0 90.0 -521.0 97.0 -513.0L-20.0 -418.0ZM-123.0 -142.0H-113.0V-382.0H-89.0C-45.0 -382.0 26.0 -361.0 27.0 -354.0V-193.0C48.0 -188.0 61.0 -179.0 67.0 -171.0L-62.0 -75.0ZM-60.0 -142.0H-540.0L-531.0 -170.0H-60.0ZM-370.0 -322.0 -526.0 -252.0C-533.0 -313.0 -554.0 -441.0 -571.0 -497.0L-535.0 -460.0C-557.0 -467.0 -583.0 -483.0 -598.0 -498.0L-474.0 -565.0L-429.0 -509.0H-436.0C-423.0 -461.0 -403.0 -360.0 -395.0 -315.0L-410.0 -322.0Z"/></g>
<g fill="black" opacity=".8" transform="translate(800 200) scale(0.1 -0.1)"><path d="M0.0 0.0 -189.0 55.0C-198.0 -2.0 -213.0 -93.0 -226.0 -151.0H-215.0C-156.0 -110.0 -85.0 -54.0 -40.0 -19.0C-16.0 -21.0 -4.0 -13.0 0.0 0.0ZM-473.0 53.0 -481.0 48.0C-449.0 4.0 -420.0 -61.0 -418.0 -122.0C-297.0 -216.0 -170.0 16.0 -473.0 53.0ZM-202.0 -498.0V-482.0H-366.0C-409.0 -613.0 -499.0 -744.0 -624.0 -829.0L-617.0 -840.0C-419.0 -768.0 -273.0 -654.0 -202.0 -498.0ZM-186.0 -856.0V-145.0H-330.0V-891.0H-304.0C-230.0 -891.0 -187.0 -864.0 -186.0 -856.0ZM-21.0 -478.0H-474.0L-484.0 -507.0H-21.0ZM-48.0 -319.0H-442.0L-449.0 -347.0H-48.0ZM-93.0 -478.0H-83.0C-83.0 -603.0 -85.0 -655.0 -94.0 -665.0C-97.0 -669.0 -103.0 -670.0 -117.0 -670.0C-132.0 -670.0 -170.0 -671.0 -188.0 -667.0V-679.0C-156.0 -688.0 -141.0 -700.0 -128.0 -718.0C-115.0 -735.0 -113.0 -766.0 -113.0 -808.0C-57.0 -808.0 -22.0 -797.0 6.0 -778.0C50.0 -749.0 57.0 -697.0 58.0 -529.0C77.0 -526.0 88.0 -519.0 95.0 -511.0L-23.0 -414.0ZM-120.0 -141.0H-111.0V-385.0H-85.0C-42.0 -385.0 30.0 -363.0 31.0 -356.0V-191.0C51.0 -187.0 65.0 -178.0 70.0 -170.0L-60.0 -73.0ZM-55.0 -141.0H-550.0L-541.0 -168.0H-55.0ZM-363.0 -319.0 -518.0 -248.0C-524.0 -310.0 -545.0 -439.0 -562.0 -495.0L-526.0 -457.0C-548.0 -464.0 -574.0 -480.0 -590.0 -495.0L-465.0 -563.0L-420.0 -507.0H-427.0C-415.0 -458.0 -394.0 -357.0 -387.0 -311.0L-403.0 -319.0Z"/></g>
<g fill="red" transform="translate(900 200) scale(0.1 -0.1)"><path d="M0.0 0.0 -83.0 31.0C-102.0 -25.0 -134.0 -103.0 -162.0 -155.0H-139.0C-102.0 -112.0 -62.0 -57.0 -38.0 -16.0C-18.0 -18.0 -5.0 -10.0 0.0 0.0ZM-367.0 29.0 -380.0 22.0C-346.0 -16.0 -307.0 -80.0 -300.0 -129.0C-250.0 -169.0 -206.0 -58.0 -367.0 29.0ZM-199.0 -505.0V-489.0H-250.0C-304.0 -613.0 -401.0 -726.0 -524.0 -807.0L-513.0 -824.0C-371.0 -746.0 -263.0 -638.0 -199.0 -505.0ZM-182.0 -861.0V-157.0H-226.0V-878.0H-220.0C-197.0 -878.0 -182.0 -865.0 -182.0 -861.0ZM51.0 -478.0H-443.0L-451.0 -508.0H51.0ZM5.0 -314.0H-400.0L-409.0 -344.0H5.0ZM13.0 -478.0H23.0C17.0 -619.0 5.0 -694.0 -13.0 -710.0C-20.0 -716.0 -27.0 -717.0 -42.0 -717.0C-60.0 -717.0 -108.0 -713.0 -138.0 -711.0V-730.0C-114.0 -733.0 -85.0 -738.0 -76.0 -745.0C-65.0 -753.0 -62.0 -767.0 -62.0 -778.0C-35.0 -778.0 -6.0 -771.0 13.0 -754.0C43.0 -728.0 59.0 -654.0 65.0 -511.0C84.0 -509.0 96.0 -505.0 103.0 -497.0L41.0 -447.0ZM-29.0 -145.0H-19.0V-385.0H-13.0C2.0 -385.0 24.0 -374.0 25.0 -368.0V-183.0C44.0 -180.0 61.0 -172.0 67.0 -165.0L0.0 -113.0ZM7.0 -145.0H-456.0L-447.0 -175.0H7.0ZM-364.0 -314.0 -422.0 -286.0C-429.0 -345.0 -451.0 -453.0 -463.0 -499.0L-444.0 -464.0C-460.0 -467.0 -484.0 -475.0 -498.0 -483.0L-442.0 -535.0L-412.0 -508.0H-422.0C-408.0 -454.0 -389.0 -362.0 -381.0 -309.0L-388.0 -314.0Z"/></g>
<g fill="black" opacity=".8" transform="translate(900 200) scale(0.1 -0.1)"><path d="M0.0 0.0 -83.0 31.0C-102.0 -26.0 -136.0 -102.0 -163.0 -152.0H-141.0C-103.0 -111.0 -63.0 -57.0 -39.0 -16.0C-18.0 -19.0 -5.0 -11.0 0.0 0.0ZM-376.0 25.0 -388.0 18.0C-355.0 -19.0 -316.0 -81.0 -308.0 -128.0C-260.0 -168.0 -216.0 -59.0 -376.0 25.0ZM-202.0 -495.0V-479.0H-253.0C-306.0 -606.0 -400.0 -725.0 -522.0 -811.0L-510.0 -828.0C-370.0 -746.0 -264.0 -632.0 -202.0 -495.0ZM-183.0 -863.0V-144.0H-228.0V-880.0H-222.0C-198.0 -880.0 -183.0 -867.0 -183.0 -863.0ZM44.0 -476.0H-435.0L-442.0 -507.0H44.0ZM8.0 -310.0H-400.0L-405.0 -341.0H8.0ZM11.0 -476.0H21.0C15.0 -613.0 3.0 -686.0 -13.0 -703.0C-19.0 -708.0 -26.0 -709.0 -40.0 -709.0C-56.0 -709.0 -104.0 -706.0 -133.0 -704.0L-132.0 -722.0C-108.0 -725.0 -80.0 -731.0 -70.0 -737.0C-59.0 -745.0 -57.0 -759.0 -57.0 -769.0C-31.0 -770.0 -5.0 -763.0 13.0 -746.0C44.0 -720.0 57.0 -648.0 64.0 -509.0C83.0 -508.0 95.0 -504.0 103.0 -496.0L39.0 -444.0ZM-30.0 -140.0H-20.0V-382.0H-15.0C2.0 -382.0 23.0 -370.0 24.0 -364.0V-178.0C43.0 -174.0 60.0 -167.0 67.0 -160.0L-0.0 -108.0ZM10.0 -140.0H-468.0L-457.0 -170.0H10.0ZM-359.0 -310.0 -419.0 -281.0C-425.0 -341.0 -446.0 -450.0 -459.0 -498.0L-439.0 -462.0C-456.0 -464.0 -480.0 -473.0 -495.0 -482.0L-436.0 -533.0L-406.0 -506.0H-417.0C-403.0 -451.0 -384.0 -359.0 -376.0 -305.0L-384.0 -310.0Z"/></g>
<g fill="red" transform="translate(1000 200) scale(0.1 -0.1)"><path d="M0.0 0.0 -181.0 53.0C-189.0 -4.0 -204.0 -91.0 -217.0 -148.0H-206.0C-149.0 -109.0 -81.0 -54.0 -39.0 -19.0C-16.0 -20.0 -5.0 -12.0 0.0 0.0ZM-428.0 45.0 -436.0 40.0C-408.0 1.0 -383.0 -59.0 -382.0 -114.0C-272.0 -204.0 -147.0 9.0 -428.0 45.0ZM-182.0 -491.0V-475.0H-339.0C-379.0 -597.0 -459.0 -719.0 -573.0 -798.0L-566.0 -809.0C-383.0 -741.0 -248.0 -636.0 -182.0 -491.0ZM-163.0 -863.0V-144.0H-299.0V-898.0H-274.0C-204.0 -898.0 -163.0 -871.0 -163.0 -863.0ZM-20.0 -464.0H-436.0L-444.0 -492.0H-20.0ZM-22.0 -315.0H-414.0L-422.0 -343.0H-22.0ZM-96.0 -464.0H-86.0C-87.0 -587.0 -88.0 -636.0 -97.0 -646.0C-101.0 -650.0 -106.0 -652.0 -119.0 -652.0C-133.0 -652.0 -166.0 -651.0 -183.0 -649.0V-661.0C-154.0 -669.0 -140.0 -680.0 -128.0 -697.0C-117.0 -714.0 -115.0 -743.0 -115.0 -781.0C-62.0 -781.0 -29.0 -771.0 -2.0 -753.0C39.0 -725.0 45.0 -675.0 46.0 -513.0C66.0 -510.0 77.0 -503.0 84.0 -495.0L-30.0 -403.0ZM-103.0 -131.0H-93.0V-388.0H-70.0C-27.0 -388.0 40.0 -365.0 41.0 -358.0V-179.0C60.0 -175.0 73.0 -166.0 78.0 -159.0L-44.0 -68.0ZM-25.0 -131.0H-495.0L-486.0 -159.0H-25.0ZM-324.0 -316.0 -466.0 -250.0C-471.0 -308.0 -489.0 -428.0 -503.0 -481.0L-471.0 -444.0C-491.0 -451.0 -516.0 -466.0 -530.0 -480.0L-416.0 -544.0L-375.0 -492.0H-382.0C-371.0 -446.0 -354.0 -352.0 -348.0 -309.0L-362.0 -316.0Z"/></g>
<g fill="black" opacity=".8" transform="translate(1000 200) scale(0.1 -0.1)"><path d="M0.0 0.0 -178.0 51.0C-186.0 -6.0 -200.0 -93.0 -214.0 -149.0H-202.0C-146.0 -110.0 -80.0 -55.0 -39.0 -19.0C-15.0 -20.0 -4.0 -12.0 0.0 0.0ZM-432.0 47.0 -440.0 43.0C-413.0 1.0 -388.0 -61.0 -387.0 -119.0C-278.0 -209.0 -155.0 2.0 -432.0 47.0ZM-178.0 -487.0V-471.0H-332.0C-371.0 -603.0 -451.0 -737.0 -564.0 -827.0L-556.0 -837.0C-374.0 -760.0 -242.0 -643.0 -178.0 -487.0ZM-168.0 -864.0V-141.0H-301.0V-897.0H-276.0C-208.0 -897.0 -168.0 -871.0 -168.0 -864.0ZM-20.0 -467.0H-434.0L-441.0 -497.0H-20.0ZM-43.0 -310.0H-409.0L-414.0 -337.0H-43.0ZM-88.0 -467.0H-79.0C-79.0 -590.0 -82.0 -641.0 -91.0 -653.0C-94.0 -656.0 -98.0 -658.0 -109.0 -658.0C-123.0 -658.0 -156.0 -657.0 -175.0 -654.0V-666.0C-146.0 -675.0 -131.0 -687.0 -119.0 -704.0C-108.0 -720.0 -105.0 -748.0 -106.0 -784.0C-58.0 -784.0 -24.0 -774.0 2.0 -757.0C43.0 -728.0 50.0 -673.0 52.0 -517.0C72.0 -514.0 83.0 -508.0 89.0 -499.0L-23.0 -408.0ZM-111.0 -138.0H-103.0V-383.0H-78.0C-37.0 -383.0 30.0 -360.0 31.0 -352.0V-185.0C49.0 -181.0 62.0 -173.0 67.0 -165.0L-54.0 -76.0ZM-47.0 -138.0H-503.0L-495.0 -165.0H-47.0ZM-327.0 -310.0 -474.0 -242.0C-478.0 -303.0 -496.0 -430.0 -511.0 -486.0L-477.0 -448.0C-499.0 -455.0 -524.0 -471.0 -539.0 -484.0L-420.0 -550.0L-378.0 -497.0H-385.0C-374.0 -448.0 -357.0 -348.0 -351.0 -303.0L-366.0 -310.0Z"/></g>
<g fill="red" transform="translate(1100 200) scale(0.1 -0.1)"><path d="M0.0 0.0 -83.0 30.0C-101.0 -24.0 -131.0 -98.0 -157.0 -147.0H-135.0C-100.0 -107.0 -61.0 -55.0 -39.0 -16.0C-18.0 -18.0 -5.0 -10.0 0.0 0.0ZM-370.0 27.0 -382.0 20.0C-350.0 -15.0 -313.0 -75.0 -307.0 -122.0C-258.0 -160.0 -214.0 -53.0 -370.0 27.0ZM-210.0 -509.0V-493.0H-260.0C-309.0 -619.0 -398.0 -735.0 -516.0 -819.0L-503.0 -836.0C-368.0 -755.0 -268.0 -644.0 -210.0 -509.0ZM-181.0 -876.0V-163.0H-225.0V-893.0H-219.0C-196.0 -893.0 -181.0 -880.0 -181.0 -876.0ZM33.0 -493.0H-432.0L-440.0 -523.0H33.0ZM4.0 -320.0H-392.0L-401.0 -350.0H4.0ZM6.0 -493.0H16.0C11.0 -633.0 -1.0 -705.0 -17.0 -721.0C-24.0 -727.0 -31.0 -728.0 -46.0 -728.0C-62.0 -728.0 -108.0 -725.0 -137.0 -723.0V-741.0C-114.0 -744.0 -86.0 -749.0 -78.0 -756.0C-67.0 -764.0 -64.0 -777.0 -64.0 -789.0C-38.0 -789.0 -10.0 -782.0 9.0 -765.0C38.0 -740.0 53.0 -668.0 58.0 -526.0C77.0 -524.0 89.0 -520.0 96.0 -512.0L34.0 -462.0ZM-33.0 -140.0H-23.0V-397.0H-17.0C-2.0 -397.0 20.0 -385.0 21.0 -379.0V-178.0C40.0 -174.0 57.0 -167.0 63.0 -160.0L-4.0 -108.0ZM13.0 -140.0H-455.0L-446.0 -170.0H13.0ZM-361.0 -320.0 -420.0 -292.0C-425.0 -354.0 -443.0 -465.0 -454.0 -515.0L-435.0 -479.0C-452.0 -482.0 -475.0 -491.0 -489.0 -499.0L-431.0 -550.0L-402.0 -523.0H-412.0C-400.0 -466.0 -384.0 -370.0 -378.0 -315.0L-385.0 -320.0Z"/></g>
<g fill="black" opacity=".8" transform="translate(1100 200) scale(0.1 -0.1)"><path d="M0.0 0.0 -85.0 30.0C-103.0 -27.0 -137.0 -105.0 -164.0 -156.0H-141.0C-104.0 -114.0 -64.0 -59.0 -39.0 -17.0C-18.0 -20.0 -5.0 -12.0 0.0 0.0ZM-377.0 24.0 -389.0 17.0C-356.0 -20.0 -318.0 -84.0 -311.0 -131.0C-262.0 -172.0 -217.0 -62.0 -377.0 24.0ZM-202.0 -505.0V-489.0H-253.0C-304.0 -618.0 -394.0 -740.0 -514.0 -828.0L-501.0 -846.0C-364.0 -761.0 -261.0 -644.0 -202.0 -505.0ZM-183.0 -885.0V-148.0H-230.0V-903.0H-223.0C-199.0 -903.0 -183.0 -890.0 -183.0 -885.0ZM38.0 -487.0H-432.0L-438.0 -518.0H38.0ZM4.0 -318.0H-397.0L-401.0 -349.0H4.0ZM5.0 -487.0H16.0C9.0 -625.0 -2.0 -696.0 -18.0 -713.0C-24.0 -719.0 -30.0 -720.0 -43.0 -720.0C-59.0 -720.0 -106.0 -717.0 -134.0 -714.0L-133.0 -734.0C-109.0 -736.0 -82.0 -742.0 -72.0 -748.0C-61.0 -756.0 -58.0 -770.0 -58.0 -780.0C-34.0 -781.0 -9.0 -774.0 9.0 -758.0C40.0 -732.0 52.0 -660.0 59.0 -521.0C79.0 -519.0 91.0 -515.0 99.0 -507.0L34.0 -454.0ZM-35.0 -144.0H-25.0V-393.0H-20.0C-3.0 -393.0 19.0 -381.0 20.0 -375.0V-183.0C39.0 -179.0 57.0 -172.0 63.0 -164.0L-5.0 -111.0ZM6.0 -144.0H-467.0L-456.0 -174.0H6.0ZM-355.0 -318.0 -416.0 -289.0C-422.0 -350.0 -443.0 -460.0 -455.0 -509.0L-435.0 -472.0C-452.0 -475.0 -477.0 -484.0 -492.0 -493.0L-432.0 -546.0L-402.0 -517.0H-412.0C-399.0 -461.0 -380.0 -368.0 -372.0 -313.0L-380.0 -318.0Z"/></g>
<g fill="red" transform="translate(1200 200) scale(0.1 -0.1)"><path d="M0.0 0.0 -178.0 48.0C-186.0 -10.0 -201.0 -96.0 -215.0 -153.0H-204.0C-147.0 -113.0 -80.0 -57.0 -38.0 -20.0C-16.0 -21.0 -4.0 -12.0 0.0 0.0ZM-422.0 41.0 -430.0 36.0C-401.0 -6.0 -377.0 -69.0 -376.0 -126.0C-266.0 -218.0 -142.0 -5.0 -422.0 41.0ZM-170.0 -489.0V-473.0H-324.0C-367.0 -611.0 -456.0 -749.0 -585.0 -838.0L-577.0 -850.0C-378.0 -772.0 -238.0 -651.0 -170.0 -489.0ZM-163.0 -871.0V-151.0H-296.0V-905.0H-271.0C-203.0 -905.0 -163.0 -879.0 -163.0 -871.0ZM-9.0 -473.0H-430.0L-438.0 -501.0H-9.0ZM-34.0 -308.0H-398.0L-406.0 -336.0H-34.0ZM-84.0 -473.0H-74.0C-75.0 -605.0 -76.0 -656.0 -86.0 -667.0C-90.0 -671.0 -95.0 -673.0 -107.0 -673.0C-121.0 -673.0 -151.0 -672.0 -167.0 -670.0V-682.0C-140.0 -690.0 -127.0 -701.0 -116.0 -717.0C-105.0 -734.0 -103.0 -762.0 -103.0 -798.0C-52.0 -798.0 -19.0 -789.0 8.0 -771.0C48.0 -742.0 54.0 -692.0 55.0 -522.0C74.0 -518.0 86.0 -512.0 93.0 -504.0L-20.0 -413.0ZM-108.0 -144.0H-98.0V-393.0H-75.0C-33.0 -393.0 32.0 -370.0 33.0 -362.0V-191.0C52.0 -187.0 64.0 -179.0 69.0 -171.0L-50.0 -82.0ZM-29.0 -144.0H-485.0L-476.0 -172.0H-29.0ZM-320.0 -309.0 -466.0 -241.0C-470.0 -304.0 -485.0 -434.0 -498.0 -490.0L-466.0 -454.0C-487.0 -460.0 -511.0 -476.0 -525.0 -490.0L-409.0 -553.0L-367.0 -501.0H-375.0C-364.0 -450.0 -350.0 -348.0 -345.0 -302.0L-359.0 -309.0Z"/></g>
<g fill="black" opacity=".8" transform="translate(1200 200) scale(0.1 -0.1)"><path d="M0.0 0.0 -179.0 51.0C-187.0 -7.0 -201.0 -96.0 -215.0 -153.0H-203.0C-146.0 -113.0 -81.0 -57.0 -40.0 -20.0C-16.0 -21.0 -4.0 -12.0 0.0 0.0ZM-430.0 47.0 -438.0 42.0C-411.0 -0.0 -387.0 -63.0 -386.0 -121.0C-278.0 -211.0 -154.0 -2.0 -430.0 47.0ZM-174.0 -494.0V-478.0H-328.0C-366.0 -613.0 -445.0 -751.0 -557.0 -844.0L-548.0 -855.0C-368.0 -774.0 -237.0 -653.0 -174.0 -494.0ZM-165.0 -885.0V-143.0H-297.0V-919.0H-273.0C-205.0 -919.0 -166.0 -892.0 -165.0 -885.0ZM-20.0 -475.0H-430.0L-435.0 -505.0H-20.0ZM-42.0 -314.0H-406.0L-410.0 -342.0H-42.0ZM-88.0 -475.0H-79.0C-79.0 -598.0 -82.0 -650.0 -92.0 -662.0C-94.0 -666.0 -99.0 -667.0 -109.0 -667.0C-123.0 -667.0 -155.0 -667.0 -174.0 -664.0V-677.0C-146.0 -685.0 -130.0 -697.0 -119.0 -715.0C-108.0 -731.0 -105.0 -757.0 -105.0 -792.0C-59.0 -791.0 -25.0 -783.0 1.0 -765.0C42.0 -736.0 50.0 -680.0 52.0 -525.0C72.0 -522.0 83.0 -515.0 90.0 -507.0L-23.0 -415.0ZM-111.0 -141.0H-102.0V-391.0H-77.0C-36.0 -391.0 31.0 -367.0 32.0 -359.0V-188.0C50.0 -184.0 62.0 -176.0 68.0 -168.0L-53.0 -79.0ZM-47.0 -141.0H-499.0L-490.0 -169.0H-47.0ZM-322.0 -314.0 -469.0 -246.0C-474.0 -308.0 -491.0 -438.0 -505.0 -494.0L-472.0 -455.0C-494.0 -462.0 -519.0 -478.0 -534.0 -492.0L-415.0 -558.0L-372.0 -505.0H-379.0C-369.0 -455.0 -352.0 -353.0 -347.0 -307.0L-362.0 -314.0Z"/></g>
<g fill="red" transform="translate(1300 200) scale(0.1 -0.1)"><path d="M0.0 0.0 -80.0 35.0C-105.0 -22.0 -146.0 -100.0 -180.0 -151.0H-157.0C-113.0 -110.0 -67.0 -56.0 -39.0 -15.0C-19.0 -18.0 -5.0 -11.0 0.0 0.0ZM-390.0 31.0 -402.0 23.0C-362.0 -12.0 -314.0 -74.0 -302.0 -121.0C-250.0 -157.0 -214.0 -45.0 -390.0 31.0ZM-197.0 -488.0V-472.0H-248.0C-309.0 -608.0 -418.0 -732.0 -559.0 -818.0L-548.0 -835.0C-388.0 -753.0 -268.0 -634.0 -197.0 -488.0ZM-186.0 -852.0V-139.0H-230.0V-869.0H-224.0C-201.0 -869.0 -186.0 -856.0 -186.0 -852.0ZM45.0 -472.0H-439.0L-447.0 -502.0H45.0ZM2.0 -308.0H-408.0L-417.0 -338.0H2.0ZM9.0 -472.0H19.0C13.0 -608.0 1.0 -681.0 -16.0 -697.0C-23.0 -703.0 -30.0 -705.0 -45.0 -705.0C-62.0 -705.0 -111.0 -700.0 -140.0 -698.0L-141.0 -716.0C-116.0 -719.0 -88.0 -725.0 -79.0 -731.0C-67.0 -739.0 -65.0 -753.0 -65.0 -765.0C-38.0 -765.0 -10.0 -757.0 10.0 -741.0C40.0 -715.0 55.0 -643.0 61.0 -505.0C80.0 -503.0 92.0 -499.0 99.0 -491.0L37.0 -441.0ZM-30.0 -139.0H-20.0V-375.0H-14.0C1.0 -375.0 23.0 -364.0 24.0 -358.0V-177.0C43.0 -174.0 60.0 -166.0 66.0 -159.0L-1.0 -107.0ZM6.0 -139.0H-467.0L-458.0 -169.0H6.0ZM-367.0 -308.0 -425.0 -280.0C-432.0 -339.0 -454.0 -447.0 -466.0 -493.0L-447.0 -458.0C-463.0 -461.0 -487.0 -469.0 -501.0 -477.0L-445.0 -529.0L-415.0 -502.0H-425.0C-411.0 -448.0 -392.0 -356.0 -384.0 -303.0L-391.0 -308.0Z"/></g>
<g fill="black" opacity=".8" transform="translate(1300 200) scale(0.1 -0.1)"><path d="M0.0 0.0 -82.0 33.0C-101.0 -25.0 -138.0 -102.0 -166.0 -152.0H-145.0C-105.0 -111.0 -63.0 -56.0 -37.0 -15.0C-18.0 -19.0 -5.0 -11.0 0.0 0.0ZM-383.0 27.0 -395.0 20.0C-359.0 -17.0 -317.0 -80.0 -309.0 -127.0C-260.0 -167.0 -217.0 -55.0 -383.0 27.0ZM-210.0 -494.0V-478.0H-260.0C-314.0 -606.0 -412.0 -724.0 -539.0 -808.0L-527.0 -825.0C-382.0 -745.0 -273.0 -632.0 -210.0 -494.0ZM-187.0 -853.0V-143.0H-231.0V-870.0H-225.0C-202.0 -870.0 -187.0 -858.0 -187.0 -853.0ZM46.0 -475.0H-440.0L-449.0 -505.0H46.0ZM4.0 -308.0H-404.0L-411.0 -338.0H4.0ZM11.0 -475.0H21.0C14.0 -616.0 1.0 -693.0 -17.0 -710.0C-23.0 -716.0 -32.0 -716.0 -46.0 -716.0C-63.0 -716.0 -112.0 -713.0 -142.0 -711.0L-141.0 -729.0C-117.0 -732.0 -89.0 -738.0 -79.0 -744.0C-68.0 -753.0 -66.0 -766.0 -66.0 -777.0C-39.0 -778.0 -11.0 -770.0 8.0 -753.0C40.0 -726.0 56.0 -650.0 62.0 -507.0C81.0 -506.0 92.0 -502.0 100.0 -494.0L38.0 -444.0ZM-32.0 -139.0H-22.0V-376.0H-16.0C-0.0 -376.0 21.0 -365.0 22.0 -359.0V-177.0C41.0 -173.0 58.0 -166.0 65.0 -159.0L-2.0 -107.0ZM6.0 -139.0H-469.0L-459.0 -168.0H6.0ZM-366.0 -308.0 -425.0 -280.0C-431.0 -340.0 -454.0 -448.0 -467.0 -495.0L-447.0 -460.0C-464.0 -463.0 -488.0 -472.0 -502.0 -480.0L-445.0 -530.0L-416.0 -503.0H-426.0C-412.0 -449.0 -391.0 -357.0 -383.0 -304.0L-390.0 -308.0Z"/></g>
<g fill="red" transform="translate(1400 200) scale(0.1 -0.1)"><path d="M0.0 0.0 -172.0 51.0C-180.0 -8.0 -196.0 -96.0 -209.0 -154.0H-198.0C-143.0 -113.0 -79.0 -55.0 -39.0 -19.0C-16.0 -20.0 -5.0 -12.0 0.0 0.0ZM-451.0 49.0 -459.0 44.0C-429.0 2.0 -403.0 -60.0 -402.0 -118.0C-290.0 -210.0 -165.0 7.0 -451.0 49.0ZM-190.0 -492.0V-476.0H-334.0C-380.0 -618.0 -477.0 -759.0 -613.0 -850.0L-605.0 -862.0C-402.0 -782.0 -260.0 -658.0 -190.0 -492.0ZM-168.0 -863.0V-143.0H-299.0V-897.0H-275.0C-208.0 -897.0 -169.0 -871.0 -168.0 -863.0ZM-46.0 -476.0H-429.0L-437.0 -504.0H-46.0ZM-75.0 -319.0H-397.0L-405.0 -347.0H-75.0ZM-98.0 -476.0H-88.0C-89.0 -604.0 -90.0 -655.0 -100.0 -666.0C-103.0 -670.0 -109.0 -672.0 -121.0 -672.0C-136.0 -672.0 -168.0 -671.0 -185.0 -669.0V-680.0C-156.0 -689.0 -142.0 -700.0 -131.0 -717.0C-119.0 -734.0 -117.0 -763.0 -117.0 -801.0C-65.0 -801.0 -32.0 -792.0 -4.0 -773.0C37.0 -744.0 43.0 -693.0 44.0 -525.0C64.0 -522.0 75.0 -515.0 82.0 -507.0L-32.0 -415.0ZM-122.0 -143.0H-112.0V-383.0H-89.0C-46.0 -383.0 21.0 -361.0 22.0 -354.0V-191.0C41.0 -187.0 54.0 -178.0 59.0 -171.0L-63.0 -80.0ZM-68.0 -143.0H-519.0L-510.0 -171.0H-68.0ZM-327.0 -319.0 -476.0 -250.0C-481.0 -311.0 -500.0 -437.0 -515.0 -492.0L-481.0 -455.0C-502.0 -462.0 -527.0 -478.0 -542.0 -492.0L-423.0 -557.0L-380.0 -504.0H-387.0C-376.0 -455.0 -358.0 -356.0 -352.0 -312.0L-366.0 -319.0Z"/></g>
<g fill="black" opacity=".8" transform="translate(1400 200) scale(0.1 -0.1)"><path d="M0.0 0.0 -181.0 52.0C-189.0 -4.0 -204.0 -93.0 -217.0 -150.0H-206.0C-149.0 -109.0 -81.0 -54.0 -38.0 -19.0C-15.0 -20.0 -4.0 -12.0 0.0 0.0ZM-446.0 49.0 -454.0 45.0C-423.0 2.0 -396.0 -62.0 -393.0 -122.0C-278.0 -212.0 -158.0 9.0 -446.0 49.0ZM-190.0 -493.0V-477.0H-345.0C-383.0 -607.0 -463.0 -739.0 -578.0 -825.0L-571.0 -835.0C-386.0 -762.0 -254.0 -647.0 -190.0 -493.0ZM-177.0 -859.0V-144.0H-312.0V-893.0H-288.0C-218.0 -893.0 -178.0 -867.0 -177.0 -859.0ZM-31.0 -473.0H-440.0L-449.0 -502.0H-31.0ZM-53.0 -317.0H-413.0L-419.0 -344.0H-53.0ZM-100.0 -473.0H-91.0C-91.0 -600.0 -92.0 -652.0 -101.0 -663.0C-104.0 -666.0 -109.0 -667.0 -122.0 -667.0C-136.0 -667.0 -169.0 -668.0 -185.0 -664.0V-676.0C-156.0 -685.0 -142.0 -696.0 -131.0 -713.0C-119.0 -730.0 -117.0 -759.0 -117.0 -798.0C-65.0 -798.0 -32.0 -787.0 -5.0 -769.0C36.0 -740.0 42.0 -689.0 43.0 -522.0C62.0 -520.0 72.0 -513.0 79.0 -505.0L-34.0 -413.0ZM-125.0 -141.0H-116.0V-383.0H-92.0C-50.0 -383.0 18.0 -362.0 19.0 -355.0V-189.0C38.0 -184.0 51.0 -176.0 56.0 -168.0L-67.0 -77.0ZM-60.0 -141.0H-509.0L-501.0 -167.0H-60.0ZM-334.0 -317.0 -482.0 -249.0C-487.0 -310.0 -506.0 -436.0 -522.0 -491.0L-488.0 -454.0C-509.0 -460.0 -533.0 -476.0 -549.0 -490.0L-430.0 -555.0L-387.0 -502.0H-394.0C-383.0 -453.0 -364.0 -354.0 -358.0 -310.0L-373.0 -317.0Z"/></g>
<g fill="red" transform="translate(1500 200) scale(0.1 -0.1)"><path d="M0.0 0.0 -74.0 33.0C-94.0 -9.0 -126.0 -66.0 -153.0 -102.0H-129.0C-95.0 -75.0 -61.0 -42.0 -39.0 -13.0C-19.0 -16.0 -5.0 -10.0 0.0 0.0ZM-424.0 29.0 -436.0 21.0C-405.0 -6.0 -371.0 -55.0 -364.0 -92.0C-318.0 -127.0 -279.0 -28.0 -424.0 29.0ZM-218.0 -380.0V-364.0H-272.0C-362.0 -465.0 -509.0 -556.0 -668.0 -616.0L-659.0 -634.0C-482.0 -580.0 -320.0 -493.0 -218.0 -380.0ZM-199.0 -640.0V-98.0H-243.0V-657.0H-237.0C-214.0 -657.0 -199.0 -644.0 -199.0 -640.0ZM158.0 -356.0H-558.0L-565.0 -386.0H158.0ZM100.0 -222.0H-514.0L-521.0 -252.0H100.0ZM126.0 -356.0H136.0C129.0 -445.0 115.0 -505.0 99.0 -519.0C92.0 -524.0 83.0 -526.0 66.0 -526.0C46.0 -526.0 -23.0 -521.0 -60.0 -518.0L-61.0 -536.0C-29.0 -539.0 11.0 -547.0 23.0 -554.0C36.0 -562.0 39.0 -575.0 39.0 -587.0C70.0 -588.0 103.0 -579.0 122.0 -565.0C153.0 -541.0 170.0 -480.0 177.0 -389.0C197.0 -387.0 209.0 -383.0 216.0 -376.0L154.0 -325.0ZM66.0 -89.0H74.0V-301.0H80.0C95.0 -301.0 117.0 -289.0 118.0 -283.0V-122.0C133.0 -121.0 147.0 -114.0 152.0 -107.0L93.0 -61.0ZM97.0 -89.0H-602.0L-593.0 -119.0H97.0ZM-476.0 -222.0 -533.0 -193.0C-541.0 -244.0 -564.0 -336.0 -576.0 -375.0L-555.0 -342.0C-572.0 -344.0 -597.0 -352.0 -611.0 -360.0L-555.0 -413.0L-526.0 -385.0H-536.0C-522.0 -340.0 -500.0 -262.0 -492.0 -217.0L-500.0 -222.0Z"/></g>
<g fill="black" opacity=".8" transform="translate(1500 200) scale(0.1 -0.1)"><path d="M0.0 0.0 -77.0 32.0C-94.0 -11.0 -126.0 -66.0 -150.0 -101.0H-125.0C-94.0 -75.0 -61.0 -43.0 -40.0 -14.0C-19.0 -18.0 -5.0 -11.0 0.0 0.0ZM-411.0 28.0 -423.0 19.0C-392.0 -8.0 -361.0 -56.0 -354.0 -90.0C-309.0 -126.0 -268.0 -28.0 -411.0 28.0ZM-212.0 -384.0V-368.0H-267.0C-356.0 -467.0 -498.0 -555.0 -653.0 -615.0L-644.0 -633.0C-472.0 -579.0 -312.0 -495.0 -212.0 -384.0ZM-197.0 -632.0V-101.0H-244.0V-650.0H-236.0C-212.0 -650.0 -197.0 -636.0 -197.0 -632.0ZM155.0 -361.0H-557.0L-564.0 -393.0H155.0ZM102.0 -227.0H-519.0L-523.0 -259.0H102.0ZM122.0 -361.0H133.0C125.0 -449.0 111.0 -507.0 97.0 -522.0C91.0 -527.0 82.0 -529.0 65.0 -529.0C47.0 -529.0 -22.0 -524.0 -59.0 -521.0V-540.0C-27.0 -543.0 12.0 -551.0 24.0 -557.0C38.0 -565.0 41.0 -579.0 41.0 -591.0C71.0 -592.0 102.0 -583.0 121.0 -569.0C153.0 -545.0 168.0 -485.0 175.0 -395.0C197.0 -394.0 208.0 -389.0 216.0 -382.0L152.0 -328.0ZM69.0 -92.0H77.0V-306.0H83.0C100.0 -306.0 122.0 -293.0 122.0 -287.0V-126.0C138.0 -125.0 152.0 -118.0 157.0 -111.0L98.0 -64.0ZM102.0 -92.0H-606.0L-596.0 -122.0H102.0ZM-479.0 -227.0 -540.0 -197.0C-546.0 -250.0 -566.0 -342.0 -578.0 -382.0L-557.0 -347.0C-575.0 -349.0 -600.0 -358.0 -615.0 -367.0L-555.0 -420.0L-525.0 -391.0H-536.0C-523.0 -346.0 -504.0 -268.0 -496.0 -223.0L-505.0 -227.0Z"/></g>
<g fill="red" transform="translate(1600 200) scale(0.1 -0.1)"><path d="M0.0 0.0 -168.0 56.0C-176.0 12.0 -190.0 -52.0 -204.0 -94.0H-193.0C-139.0 -72.0 -77.0 -40.0 -38.0 -17.0C-16.0 -19.0 -4.0 -11.0 0.0 0.0ZM-449.0 56.0 -456.0 51.0C-438.0 24.0 -424.0 -21.0 -426.0 -63.0C-324.0 -152.0 -185.0 38.0 -449.0 56.0ZM-171.0 -349.0V-333.0H-356.0C-420.0 -443.0 -544.0 -557.0 -700.0 -625.0L-694.0 -636.0C-458.0 -584.0 -269.0 -489.0 -171.0 -349.0ZM-161.0 -622.0V-82.0H-306.0V-654.0H-279.0C-205.0 -654.0 -162.0 -628.0 -161.0 -622.0ZM109.0 -329.0H-552.0L-559.0 -357.0H109.0ZM41.0 -196.0H-507.0L-514.0 -224.0H41.0ZM44.0 -329.0H54.0C48.0 -403.0 39.0 -447.0 26.0 -457.0C20.0 -461.0 13.0 -462.0 -1.0 -462.0C-19.0 -462.0 -77.0 -460.0 -112.0 -457.0V-467.0C-72.0 -476.0 -44.0 -491.0 -27.0 -510.0C-11.0 -528.0 -8.0 -561.0 -8.0 -597.0C51.0 -597.0 88.0 -588.0 118.0 -571.0C165.0 -545.0 183.0 -487.0 193.0 -380.0C212.0 -377.0 223.0 -371.0 231.0 -363.0L112.0 -267.0ZM-1.0 -76.0H8.0V-274.0H33.0C78.0 -274.0 145.0 -248.0 146.0 -239.0V-121.0C163.0 -117.0 173.0 -110.0 178.0 -103.0L57.0 -15.0ZM48.0 -76.0H-637.0L-628.0 -104.0H48.0ZM-433.0 -196.0 -588.0 -126.0C-594.0 -181.0 -613.0 -295.0 -628.0 -345.0L-592.0 -308.0C-614.0 -315.0 -640.0 -331.0 -654.0 -346.0L-531.0 -413.0L-487.0 -357.0H-494.0C-483.0 -315.0 -465.0 -228.0 -458.0 -189.0L-473.0 -196.0Z"/></g>
<g fill="black" opacity=".8" transform="translate(1600 200) scale(0.1 -0.1)"><path d="M0.0 0.0 -172.0 52.0C-178.0 8.0 -190.0 -58.0 -204.0 -99.0H-190.0C-138.0 -76.0 -78.0 -44.0 -39.0 -19.0C-15.0 -20.0 -4.0 -11.0 0.0 0.0ZM-447.0 50.0 -455.0 45.0C-437.0 18.0 -422.0 -27.0 -423.0 -69.0C-321.0 -155.0 -187.0 35.0 -447.0 50.0ZM-176.0 -357.0V-341.0H-356.0C-422.0 -445.0 -547.0 -553.0 -701.0 -619.0L-694.0 -631.0C-465.0 -582.0 -276.0 -491.0 -176.0 -357.0ZM-158.0 -603.0V-89.0H-306.0V-633.0H-279.0C-202.0 -633.0 -158.0 -607.0 -158.0 -603.0ZM101.0 -336.0H-552.0L-559.0 -366.0H101.0ZM58.0 -203.0H-514.0L-519.0 -231.0H58.0ZM34.0 -336.0H43.0C39.0 -401.0 30.0 -441.0 19.0 -451.0C14.0 -454.0 7.0 -454.0 -5.0 -454.0C-22.0 -454.0 -77.0 -453.0 -110.0 -449.0V-460.0C-72.0 -470.0 -46.0 -484.0 -28.0 -503.0C-14.0 -521.0 -10.0 -552.0 -11.0 -588.0C45.0 -588.0 81.0 -578.0 111.0 -563.0C156.0 -537.0 173.0 -481.0 183.0 -388.0C202.0 -385.0 213.0 -379.0 220.0 -370.0L102.0 -274.0ZM5.0 -83.0H13.0V-282.0H40.0C84.0 -282.0 152.0 -255.0 154.0 -245.0V-128.0C171.0 -124.0 181.0 -117.0 185.0 -110.0L63.0 -21.0ZM61.0 -83.0H-646.0L-637.0 -111.0H61.0ZM-428.0 -203.0 -582.0 -131.0C-591.0 -187.0 -614.0 -301.0 -632.0 -352.0L-594.0 -314.0C-617.0 -321.0 -645.0 -336.0 -660.0 -351.0L-534.0 -421.0L-490.0 -366.0H-497.0C-484.0 -324.0 -461.0 -236.0 -453.0 -195.0L-468.0 -203.0Z"/></g>
<g fill="red" transform="translate(100 300) scale(0.1 -0.1)"><path d="M0.0 0.0 -82.0 35.0C-102.0 -19.0 -137.0 -94.0 -166.0 -142.0H-143.0C-105.0 -104.0 -63.0 -53.0 -38.0 -15.0C-18.0 -18.0 -5.0 -11.0 0.0 0.0ZM-440.0 22.0 -452.0 14.0C-415.0 -18.0 -371.0 -76.0 -360.0 -119.0C-308.0 -154.0 -271.0 -45.0 -440.0 22.0ZM-248.0 -445.0V-429.0H-298.0C-351.0 -534.0 -442.0 -632.0 -554.0 -703.0L-542.0 -720.0C-413.0 -654.0 -310.0 -560.0 -248.0 -445.0ZM-227.0 -742.0V-130.0H-271.0V-760.0H-265.0C-242.0 -760.0 -227.0 -747.0 -227.0 -742.0ZM24.0 -429.0H-474.0L-482.0 -459.0H24.0ZM-17.0 -286.0H-436.0L-445.0 -316.0H-17.0ZM-11.0 -429.0H-1.0C-7.0 -543.0 -19.0 -605.0 -34.0 -619.0C-41.0 -625.0 -49.0 -626.0 -63.0 -626.0C-80.0 -626.0 -127.0 -622.0 -155.0 -620.0L-156.0 -639.0C-132.0 -641.0 -105.0 -647.0 -96.0 -654.0C-85.0 -661.0 -82.0 -674.0 -82.0 -686.0C-56.0 -686.0 -29.0 -679.0 -10.0 -664.0C19.0 -641.0 34.0 -580.0 41.0 -462.0C60.0 -460.0 72.0 -455.0 78.0 -448.0L17.0 -398.0ZM-58.0 -130.0H-48.0V-359.0H-42.0C-27.0 -359.0 -5.0 -347.0 -4.0 -341.0V-169.0C15.0 -165.0 33.0 -158.0 40.0 -150.0L-28.0 -98.0ZM-15.0 -130.0H-520.0L-511.0 -160.0H-15.0ZM-410.0 -286.0 -467.0 -257.0C-475.0 -310.0 -496.0 -407.0 -509.0 -448.0L-488.0 -414.0C-504.0 -417.0 -529.0 -424.0 -544.0 -432.0L-487.0 -485.0L-458.0 -457.0H-468.0C-454.0 -410.0 -434.0 -328.0 -426.0 -281.0L-433.0 -286.0Z"/></g>
<g fill="black" opacity=".8" transform="translate(100 300) scale(0.1 -0.1)"><path d="M0.0 0.0 -80.0 35.0C-100.0 -19.0 -137.0 -93.0 -166.0 -140.0H-144.0C-105.0 -103.0 -63.0 -53.0 -38.0 -14.0C-18.0 -18.0 -5.0 -11.0 0.0 0.0ZM-442.0 24.0 -454.0 16.0C-417.0 -16.0 -373.0 -74.0 -363.0 -116.0C-312.0 -152.0 -275.0 -44.0 -442.0 24.0ZM-251.0 -443.0V-428.0H-300.0C-354.0 -534.0 -448.0 -633.0 -564.0 -703.0L-552.0 -721.0C-420.0 -655.0 -313.0 -560.0 -251.0 -443.0ZM-225.0 -743.0V-131.0H-269.0V-761.0H-263.0C-240.0 -761.0 -225.0 -748.0 -225.0 -743.0ZM24.0 -430.0H-471.0L-481.0 -460.0H24.0ZM-17.0 -286.0H-434.0L-443.0 -316.0H-17.0ZM-12.0 -430.0H-2.0C-7.0 -543.0 -19.0 -604.0 -34.0 -619.0C-42.0 -624.0 -50.0 -625.0 -65.0 -625.0C-81.0 -625.0 -128.0 -622.0 -157.0 -620.0V-638.0C-133.0 -641.0 -107.0 -646.0 -98.0 -653.0C-87.0 -660.0 -85.0 -673.0 -85.0 -685.0C-58.0 -685.0 -31.0 -678.0 -11.0 -662.0C18.0 -640.0 33.0 -579.0 40.0 -463.0C59.0 -461.0 70.0 -456.0 77.0 -448.0L17.0 -399.0ZM-59.0 -131.0H-49.0V-357.0H-43.0C-28.0 -357.0 -7.0 -345.0 -6.0 -340.0V-169.0C13.0 -164.0 31.0 -158.0 37.0 -150.0L-29.0 -100.0ZM-17.0 -131.0H-519.0L-509.0 -159.0H-17.0ZM-407.0 -285.0 -464.0 -257.0C-472.0 -310.0 -493.0 -407.0 -506.0 -449.0L-485.0 -415.0C-501.0 -418.0 -526.0 -425.0 -541.0 -433.0L-485.0 -484.0L-456.0 -457.0H-466.0C-452.0 -409.0 -432.0 -328.0 -423.0 -280.0L-430.0 -285.0Z"/></g>
<g fill="red" transform="translate(200 300) scale(0.1 -0.1)"><path d="M0.0 0.0 -178.0 51.0C-186.0 -6.0 -201.0 -94.0 -213.0 -151.0H-202.0C-146.0 -111.0 -81.0 -54.0 -39.0 -19.0C-16.0 -20.0 -5.0 -12.0 0.0 0.0ZM-451.0 51.0 -459.0 46.0C-428.0 6.0 -400.0 -55.0 -396.0 -111.0C-285.0 -199.0 -167.0 18.0 -451.0 51.0ZM-189.0 -437.0V-421.0H-329.0C-373.0 -527.0 -458.0 -630.0 -571.0 -697.0L-563.0 -710.0C-391.0 -653.0 -258.0 -563.0 -189.0 -437.0ZM-161.0 -713.0V-132.0H-294.0V-744.0H-270.0C-202.0 -744.0 -162.0 -719.0 -161.0 -713.0ZM-11.0 -421.0H-408.0L-416.0 -449.0H-11.0ZM-40.0 -278.0H-371.0L-379.0 -306.0H-40.0ZM-68.0 -421.0H-58.0C-59.0 -510.0 -60.0 -548.0 -67.0 -556.0C-70.0 -560.0 -75.0 -561.0 -87.0 -561.0C-101.0 -561.0 -136.0 -560.0 -154.0 -558.0V-570.0C-126.0 -578.0 -111.0 -587.0 -99.0 -602.0C-87.0 -618.0 -85.0 -636.0 -85.0 -669.0C-31.0 -669.0 -1.0 -665.0 26.0 -647.0C61.0 -624.0 67.0 -585.0 68.0 -469.0C86.0 -465.0 97.0 -459.0 104.0 -451.0L-6.0 -364.0ZM-95.0 -132.0H-85.0V-334.0H-62.0C-21.0 -334.0 46.0 -314.0 47.0 -308.0V-182.0C68.0 -177.0 81.0 -168.0 87.0 -160.0L-37.0 -68.0ZM-66.0 -132.0H-503.0L-494.0 -160.0H-66.0ZM-328.0 -278.0 -475.0 -212.0C-481.0 -269.0 -501.0 -385.0 -516.0 -437.0L-482.0 -400.0C-503.0 -406.0 -529.0 -422.0 -543.0 -436.0L-425.0 -502.0L-382.0 -449.0H-389.0C-378.0 -404.0 -359.0 -313.0 -352.0 -272.0L-366.0 -278.0Z"/></g>
<g fill="black" opacity=".8" transform="translate(200 300) scale(0.1 -0.1)"><path d="M0.0 0.0 -176.0 51.0C-185.0 -5.0 -199.0 -93.0 -211.0 -148.0H-200.0C-145.0 -109.0 -80.0 -53.0 -38.0 -19.0C-15.0 -20.0 -5.0 -11.0 0.0 0.0ZM-450.0 50.0 -458.0 46.0C-427.0 6.0 -401.0 -54.0 -398.0 -109.0C-287.0 -198.0 -168.0 18.0 -450.0 50.0ZM-187.0 -434.0V-419.0H-330.0C-373.0 -527.0 -461.0 -632.0 -578.0 -699.0L-570.0 -711.0C-393.0 -655.0 -257.0 -564.0 -187.0 -434.0ZM-161.0 -718.0V-130.0H-293.0V-748.0H-269.0C-201.0 -748.0 -162.0 -723.0 -161.0 -718.0ZM-9.0 -419.0H-413.0L-422.0 -447.0H-9.0ZM-44.0 -278.0H-374.0L-383.0 -304.0H-44.0ZM-64.0 -419.0H-55.0C-55.0 -511.0 -57.0 -550.0 -64.0 -558.0C-68.0 -561.0 -73.0 -562.0 -85.0 -562.0C-99.0 -562.0 -136.0 -562.0 -153.0 -559.0V-571.0C-125.0 -579.0 -111.0 -587.0 -98.0 -603.0C-86.0 -618.0 -84.0 -637.0 -84.0 -672.0C-29.0 -672.0 1.0 -666.0 28.0 -649.0C63.0 -626.0 70.0 -587.0 71.0 -466.0C89.0 -462.0 99.0 -457.0 106.0 -449.0L-3.0 -362.0ZM-96.0 -130.0H-87.0V-332.0H-63.0C-23.0 -332.0 44.0 -313.0 45.0 -306.0V-180.0C66.0 -174.0 79.0 -165.0 85.0 -158.0L-39.0 -66.0ZM-67.0 -130.0H-502.0L-493.0 -157.0H-67.0ZM-329.0 -278.0 -475.0 -212.0C-481.0 -268.0 -499.0 -384.0 -514.0 -435.0L-481.0 -399.0C-502.0 -405.0 -527.0 -421.0 -541.0 -434.0L-423.0 -499.0L-381.0 -447.0H-388.0C-377.0 -403.0 -359.0 -312.0 -352.0 -272.0L-366.0 -278.0Z"/></g>
<g fill="red" transform="translate(300 300) scale(0.1 -0.1)"><path d="M0.0 0.0 -80.0 34.0C-105.0 -23.0 -147.0 -101.0 -180.0 -152.0H-158.0C-114.0 -111.0 -68.0 -56.0 -39.0 -15.0C-19.0 -18.0 -5.0 -11.0 0.0 0.0ZM-403.0 28.0 -415.0 20.0C-379.0 -15.0 -336.0 -77.0 -327.0 -125.0C-276.0 -162.0 -236.0 -52.0 -403.0 28.0ZM-221.0 -489.0V-473.0H-271.0C-328.0 -604.0 -431.0 -723.0 -564.0 -807.0L-552.0 -824.0C-401.0 -744.0 -287.0 -630.0 -221.0 -489.0ZM-185.0 -853.0V-140.0H-229.0V-870.0H-223.0C-200.0 -870.0 -185.0 -857.0 -185.0 -853.0ZM32.0 -473.0H-424.0L-432.0 -503.0H32.0ZM-5.0 -308.0H-396.0L-405.0 -338.0H-5.0ZM-9.0 -473.0H1.0C-4.0 -616.0 -16.0 -689.0 -32.0 -705.0C-39.0 -711.0 -47.0 -712.0 -61.0 -712.0C-78.0 -712.0 -124.0 -708.0 -152.0 -706.0L-153.0 -725.0C-129.0 -728.0 -102.0 -733.0 -93.0 -740.0C-82.0 -748.0 -80.0 -761.0 -80.0 -773.0C-53.0 -773.0 -26.0 -766.0 -7.0 -749.0C23.0 -723.0 38.0 -651.0 43.0 -506.0C62.0 -504.0 74.0 -500.0 81.0 -492.0L19.0 -442.0ZM-42.0 -140.0H-32.0V-376.0H-26.0C-11.0 -376.0 11.0 -365.0 12.0 -359.0V-178.0C31.0 -174.0 48.0 -167.0 54.0 -160.0L-13.0 -108.0ZM-4.0 -140.0H-477.0L-468.0 -170.0H-4.0ZM-359.0 -307.0 -417.0 -280.0C-424.0 -339.0 -444.0 -447.0 -456.0 -494.0L-437.0 -458.0C-452.0 -461.0 -477.0 -470.0 -491.0 -478.0L-434.0 -529.0L-405.0 -502.0H-414.0C-401.0 -448.0 -383.0 -356.0 -375.0 -303.0L-382.0 -307.0Z"/></g>
<g fill="black" opacity=".8" transform="translate(300 300) scale(0.1 -0.1)"><path d="M0.0 0.0 -81.0 34.0C-102.0 -24.0 -139.0 -103.0 -167.0 -154.0H-146.0C-106.0 -112.0 -63.0 -56.0 -37.0 -15.0C-18.0 -18.0 -5.0 -11.0 0.0 0.0ZM-393.0 27.0 -404.0 19.0C-368.0 -17.0 -325.0 -80.0 -316.0 -128.0C-265.0 -167.0 -224.0 -55.0 -393.0 27.0ZM-218.0 -493.0V-477.0H-267.0C-320.0 -603.0 -415.0 -720.0 -540.0 -803.0L-528.0 -820.0C-386.0 -741.0 -279.0 -629.0 -218.0 -493.0ZM-193.0 -848.0V-143.0H-237.0V-864.0H-231.0C-208.0 -864.0 -193.0 -852.0 -193.0 -848.0ZM37.0 -474.0H-440.0L-449.0 -504.0H37.0ZM-5.0 -309.0H-403.0L-412.0 -339.0H-5.0ZM1.0 -474.0H11.0C5.0 -615.0 -8.0 -691.0 -26.0 -708.0C-33.0 -714.0 -42.0 -714.0 -56.0 -714.0C-73.0 -714.0 -121.0 -711.0 -150.0 -709.0V-727.0C-126.0 -730.0 -99.0 -735.0 -89.0 -742.0C-78.0 -750.0 -77.0 -764.0 -77.0 -775.0C-49.0 -775.0 -21.0 -768.0 -2.0 -750.0C30.0 -724.0 46.0 -649.0 52.0 -507.0C71.0 -505.0 82.0 -501.0 90.0 -493.0L28.0 -443.0ZM-42.0 -140.0H-32.0V-377.0H-26.0C-11.0 -377.0 10.0 -365.0 11.0 -359.0V-179.0C31.0 -175.0 49.0 -168.0 55.0 -160.0L-12.0 -108.0ZM-3.0 -140.0H-470.0L-460.0 -169.0H-3.0ZM-368.0 -309.0 -426.0 -282.0C-433.0 -340.0 -455.0 -447.0 -469.0 -494.0L-449.0 -459.0C-465.0 -462.0 -489.0 -471.0 -504.0 -479.0L-448.0 -529.0L-418.0 -503.0H-428.0C-414.0 -449.0 -393.0 -358.0 -385.0 -305.0L-392.0 -309.0Z"/></g>
<g fill="red" transform="translate(400 300) scale(0.1 -0.1)"><path d="M0.0 0.0 -175.0 54.0C-184.0 -4.0 -201.0 -90.0 -215.0 -147.0H-205.0C-147.0 -108.0 -80.0 -54.0 -38.0 -19.0C-16.0 -20.0 -4.0 -12.0 0.0 0.0ZM-448.0 52.0 -456.0 47.0C-427.0 5.0 -403.0 -58.0 -402.0 -115.0C-292.0 -207.0 -168.0 6.0 -448.0 52.0ZM-195.0 -485.0V-469.0H-349.0C-387.0 -605.0 -467.0 -742.0 -583.0 -832.0L-575.0 -843.0C-389.0 -764.0 -258.0 -644.0 -195.0 -485.0ZM-176.0 -858.0V-138.0H-306.0V-892.0H-282.0C-215.0 -892.0 -176.0 -866.0 -176.0 -858.0ZM-39.0 -469.0H-460.0L-468.0 -497.0H-39.0ZM-66.0 -313.0H-430.0L-438.0 -341.0H-66.0ZM-102.0 -469.0H-92.0C-93.0 -598.0 -94.0 -648.0 -104.0 -659.0C-107.0 -663.0 -112.0 -665.0 -125.0 -665.0C-139.0 -665.0 -169.0 -664.0 -185.0 -662.0V-674.0C-157.0 -682.0 -144.0 -693.0 -134.0 -709.0C-122.0 -726.0 -121.0 -754.0 -121.0 -790.0C-70.0 -790.0 -37.0 -781.0 -10.0 -763.0C30.0 -734.0 36.0 -685.0 37.0 -518.0C56.0 -514.0 67.0 -508.0 74.0 -500.0L-38.0 -409.0ZM-131.0 -138.0H-121.0V-378.0H-98.0C-56.0 -378.0 9.0 -355.0 10.0 -348.0V-185.0C29.0 -181.0 41.0 -173.0 46.0 -165.0L-73.0 -76.0ZM-67.0 -138.0H-523.0L-514.0 -166.0H-67.0ZM-332.0 -313.0 -477.0 -245.0C-482.0 -306.0 -499.0 -431.0 -514.0 -485.0L-481.0 -449.0C-501.0 -455.0 -526.0 -471.0 -540.0 -485.0L-424.0 -549.0L-383.0 -497.0H-390.0C-379.0 -448.0 -362.0 -350.0 -356.0 -306.0L-371.0 -313.0Z"/></g>
<g fill="black" opacity=".8" transform="translate(400 300) scale(0.1 -0.1)"><path d="M0.0 0.0 -181.0 52.0C-190.0 -5.0 -205.0 -95.0 -217.0 -152.0H-207.0C-150.0 -111.0 -81.0 -54.0 -38.0 -19.0C-15.0 -20.0 -4.0 -12.0 0.0 0.0ZM-449.0 50.0 -457.0 46.0C-425.0 1.0 -397.0 -63.0 -394.0 -124.0C-278.0 -214.0 -159.0 10.0 -449.0 50.0ZM-192.0 -493.0V-477.0H-344.0C-381.0 -605.0 -461.0 -733.0 -574.0 -817.0L-567.0 -827.0C-385.0 -756.0 -255.0 -644.0 -192.0 -493.0ZM-178.0 -851.0V-146.0H-312.0V-885.0H-287.0C-218.0 -885.0 -178.0 -859.0 -178.0 -851.0ZM-36.0 -474.0H-431.0L-441.0 -502.0H-36.0ZM-60.0 -319.0H-402.0L-409.0 -345.0H-60.0ZM-104.0 -474.0H-95.0C-94.0 -599.0 -95.0 -650.0 -103.0 -660.0C-106.0 -663.0 -111.0 -665.0 -124.0 -665.0C-138.0 -665.0 -171.0 -665.0 -186.0 -662.0V-674.0C-157.0 -682.0 -144.0 -693.0 -133.0 -709.0C-121.0 -726.0 -119.0 -753.0 -120.0 -793.0C-67.0 -793.0 -34.0 -783.0 -7.0 -765.0C33.0 -736.0 38.0 -687.0 38.0 -522.0C57.0 -519.0 67.0 -513.0 74.0 -505.0L-38.0 -414.0ZM-130.0 -143.0H-121.0V-381.0H-96.0C-55.0 -381.0 13.0 -361.0 14.0 -354.0V-191.0C34.0 -187.0 47.0 -178.0 52.0 -170.0L-72.0 -78.0ZM-69.0 -143.0H-502.0L-494.0 -169.0H-69.0ZM-330.0 -319.0 -477.0 -251.0C-482.0 -311.0 -501.0 -436.0 -517.0 -491.0L-483.0 -454.0C-504.0 -461.0 -529.0 -477.0 -544.0 -490.0L-425.0 -555.0L-382.0 -502.0H-389.0C-378.0 -454.0 -359.0 -356.0 -353.0 -311.0L-368.0 -319.0Z"/></g>
<g fill="red" transform="translate(500 300) scale(0.1 -0.1)"><path d="M0.0 0.0 -81.0 24.0C-97.0 -29.0 -124.0 -104.0 -147.0 -153.0H-125.0C-93.0 -112.0 -59.0 -59.0 -38.0 -18.0C-17.0 -19.0 -4.0 -11.0 0.0 0.0ZM-302.0 17.0 -315.0 11.0C-289.0 -25.0 -259.0 -85.0 -255.0 -130.0C-210.0 -168.0 -166.0 -72.0 -302.0 17.0ZM-156.0 -480.0V-464.0H-204.0C-241.0 -586.0 -308.0 -703.0 -400.0 -792.0L-387.0 -808.0C-278.0 -721.0 -201.0 -610.0 -156.0 -480.0ZM-145.0 -867.0V-141.0H-189.0V-884.0H-183.0C-160.0 -884.0 -145.0 -871.0 -145.0 -867.0ZM14.0 -463.0H-337.0V-493.0H14.0ZM-7.0 -307.0H-306.0V-337.0H-7.0ZM-16.0 -463.0H-6.0C-12.0 -593.0 -21.0 -654.0 -33.0 -669.0C-37.0 -674.0 -40.0 -676.0 -48.0 -676.0C-61.0 -676.0 -100.0 -673.0 -120.0 -671.0V-689.0C-101.0 -691.0 -78.0 -696.0 -69.0 -701.0C-59.0 -707.0 -54.0 -721.0 -54.0 -730.0C-37.0 -730.0 -19.0 -723.0 -5.0 -711.0C21.0 -688.0 28.0 -626.0 35.0 -495.0C54.0 -494.0 66.0 -489.0 72.0 -482.0L11.0 -432.0ZM-46.0 -141.0H-37.0V-381.0H-31.0C-16.0 -381.0 6.0 -370.0 7.0 -364.0V-177.0C24.0 -174.0 40.0 -167.0 46.0 -160.0L-18.0 -111.0ZM-4.0 -141.0H-369.0L-360.0 -171.0H-4.0ZM-262.0 -307.0 -321.0 -280.0C-325.0 -337.0 -340.0 -441.0 -350.0 -486.0L-331.0 -450.0C-347.0 -453.0 -370.0 -461.0 -384.0 -470.0L-326.0 -521.0L-297.0 -493.0H-307.0C-297.0 -442.0 -284.0 -354.0 -279.0 -303.0L-286.0 -307.0Z"/></g>
<g fill="black" opacity=".8" transform="translate(500 300) scale(0.1 -0.1)"><path d="M0.0 0.0 -78.0 23.0C-93.0 -29.0 -121.0 -102.0 -143.0 -149.0H-122.0C-91.0 -109.0 -57.0 -58.0 -36.0 -16.0C-16.0 -19.0 -5.0 -11.0 0.0 0.0ZM-304.0 18.0 -315.0 12.0C-288.0 -23.0 -258.0 -83.0 -254.0 -126.0C-211.0 -163.0 -168.0 -68.0 -304.0 18.0ZM-157.0 -477.0V-462.0H-203.0C-238.0 -586.0 -302.0 -703.0 -395.0 -792.0L-383.0 -807.0C-274.0 -721.0 -199.0 -608.0 -157.0 -477.0ZM-145.0 -861.0V-144.0H-188.0V-876.0H-182.0C-159.0 -876.0 -145.0 -864.0 -145.0 -861.0ZM12.0 -462.0H-342.0L-344.0 -491.0H12.0ZM-7.0 -303.0H-313.0V-332.0H-7.0ZM-14.0 -462.0H-4.0C-9.0 -593.0 -18.0 -654.0 -30.0 -670.0C-34.0 -675.0 -38.0 -676.0 -47.0 -676.0C-59.0 -676.0 -96.0 -674.0 -117.0 -672.0L-116.0 -689.0C-97.0 -691.0 -76.0 -696.0 -67.0 -701.0C-57.0 -707.0 -53.0 -721.0 -53.0 -729.0C-36.0 -730.0 -18.0 -723.0 -4.0 -710.0C22.0 -687.0 30.0 -624.0 36.0 -493.0C54.0 -492.0 65.0 -488.0 71.0 -480.0L13.0 -432.0ZM-44.0 -139.0H-35.0V-374.0H-30.0C-15.0 -374.0 5.0 -363.0 6.0 -357.0V-175.0C23.0 -171.0 39.0 -164.0 45.0 -158.0L-17.0 -110.0ZM-5.0 -139.0H-372.0L-362.0 -167.0H-5.0ZM-269.0 -303.0 -326.0 -277.0C-330.0 -334.0 -347.0 -438.0 -357.0 -484.0L-339.0 -449.0C-355.0 -452.0 -377.0 -460.0 -391.0 -469.0L-335.0 -517.0L-307.0 -491.0H-317.0C-306.0 -438.0 -291.0 -350.0 -286.0 -299.0L-293.0 -303.0Z"/></g>
<g fill="red" transform="translate(600 300) scale(0.1 -0.1)"><path d="M0.0 0.0 -161.0 42.0C-165.0 -12.0 -176.0 -90.0 -188.0 -142.0H-175.0C-125.0 -106.0 -71.0 -56.0 -37.0 -20.0C-15.0 -21.0 -4.0 -12.0 0.0 0.0ZM-358.0 38.0 -368.0 33.0C-345.0 -5.0 -325.0 -63.0 -326.0 -115.0C-236.0 -196.0 -122.0 -21.0 -358.0 38.0ZM-143.0 -461.0V-445.0H-274.0C-303.0 -577.0 -359.0 -716.0 -444.0 -812.0L-434.0 -824.0C-292.0 -735.0 -191.0 -613.0 -143.0 -461.0ZM-136.0 -863.0V-132.0H-250.0V-895.0H-229.0C-171.0 -895.0 -136.0 -870.0 -136.0 -863.0ZM-33.0 -445.0H-370.0V-473.0H-33.0ZM-42.0 -289.0H-355.0V-317.0H-42.0ZM-100.0 -445.0H-90.0C-92.0 -559.0 -94.0 -607.0 -102.0 -620.0C-104.0 -624.0 -107.0 -625.0 -112.0 -625.0C-124.0 -625.0 -145.0 -624.0 -163.0 -623.0V-635.0C-141.0 -642.0 -126.0 -655.0 -118.0 -670.0C-110.0 -684.0 -107.0 -707.0 -107.0 -731.0C-75.0 -730.0 -44.0 -726.0 -22.0 -709.0C14.0 -682.0 20.0 -626.0 23.0 -491.0C41.0 -488.0 53.0 -481.0 59.0 -473.0L-43.0 -391.0ZM-109.0 -132.0H-100.0V-372.0H-79.0C-40.0 -372.0 17.0 -347.0 18.0 -339.0V-173.0C34.0 -170.0 44.0 -163.0 49.0 -157.0L-57.0 -78.0ZM-36.0 -132.0H-416.0L-407.0 -160.0H-36.0ZM-248.0 -289.0 -377.0 -228.0C-381.0 -288.0 -397.0 -409.0 -410.0 -462.0L-380.0 -426.0C-400.0 -432.0 -423.0 -446.0 -437.0 -459.0L-332.0 -520.0L-294.0 -473.0H-301.0C-291.0 -424.0 -276.0 -328.0 -271.0 -283.0L-284.0 -289.0Z"/></g>
<g fill="black" opacity=".8" transform="translate(600 300) scale(0.1 -0.1)"><path d="M0.0 0.0 -155.0 43.0C-161.0 -11.0 -174.0 -92.0 -188.0 -145.0H-176.0C-126.0 -107.0 -70.0 -55.0 -36.0 -19.0C-14.0 -19.0 -3.0 -11.0 0.0 0.0ZM-354.0 37.0 -362.0 33.0C-340.0 -5.0 -321.0 -62.0 -322.0 -113.0C-233.0 -194.0 -122.0 -20.0 -354.0 37.0ZM-136.0 -463.0V-448.0H-268.0C-295.0 -579.0 -353.0 -716.0 -441.0 -811.0L-432.0 -820.0C-286.0 -736.0 -183.0 -614.0 -136.0 -463.0ZM-137.0 -866.0V-135.0H-247.0V-896.0H-226.0C-170.0 -896.0 -137.0 -872.0 -137.0 -866.0ZM-30.0 -446.0H-350.0L-352.0 -474.0H-30.0ZM-44.0 -295.0H-337.0L-338.0 -320.0H-44.0ZM-91.0 -446.0H-82.0C-83.0 -566.0 -86.0 -616.0 -95.0 -629.0C-97.0 -632.0 -99.0 -633.0 -106.0 -633.0C-117.0 -633.0 -139.0 -633.0 -157.0 -630.0V-642.0C-135.0 -649.0 -121.0 -662.0 -112.0 -677.0C-104.0 -690.0 -101.0 -712.0 -102.0 -738.0C-69.0 -738.0 -39.0 -731.0 -16.0 -715.0C20.0 -688.0 25.0 -632.0 29.0 -490.0C46.0 -488.0 57.0 -482.0 63.0 -474.0L-35.0 -394.0ZM-106.0 -134.0H-99.0V-375.0H-77.0C-41.0 -375.0 15.0 -351.0 16.0 -343.0V-172.0C31.0 -170.0 41.0 -163.0 46.0 -157.0L-57.0 -81.0ZM-43.0 -134.0H-402.0L-394.0 -159.0H-43.0ZM-253.0 -295.0 -380.0 -236.0C-382.0 -293.0 -394.0 -413.0 -405.0 -465.0L-378.0 -430.0C-396.0 -436.0 -418.0 -450.0 -432.0 -462.0L-328.0 -520.0L-292.0 -474.0H-299.0C-290.0 -426.0 -279.0 -332.0 -275.0 -289.0L-289.0 -295.0Z"/></g>
<g fill="red" transform="translate(700 300) scale(0.1 -0.1)"><path d="M0.0 0.0 -81.0 24.0C-97.0 -29.0 -124.0 -104.0 -147.0 -153.0H-125.0C-93.0 -112.0 -59.0 -59.0 -38.0 -18.0C-17.0 -19.0 -4.0 -11.0 0.0 0.0ZM-320.0 17.0 -333.0 11.0C-307.0 -25.0 -277.0 -85.0 -273.0 -130.0C-228.0 -168.0 -184.0 -72.0 -320.0 17.0ZM-165.0 -488.0V-472.0H-213.0C-252.0 -602.0 -322.0 -725.0 -421.0 -819.0L-407.0 -835.0C-293.0 -744.0 -211.0 -626.0 -165.0 -488.0ZM-156.0 -867.0V-141.0H-200.0V-884.0H-194.0C-171.0 -884.0 -156.0 -871.0 -156.0 -867.0ZM12.0 -472.0H-366.0V-502.0H12.0ZM-8.0 -307.0H-345.0V-337.0H-8.0ZM-17.0 -472.0H-7.0C-13.0 -602.0 -22.0 -663.0 -34.0 -678.0C-38.0 -683.0 -41.0 -685.0 -49.0 -685.0C-62.0 -685.0 -101.0 -682.0 -121.0 -680.0V-698.0C-102.0 -700.0 -79.0 -705.0 -70.0 -710.0C-60.0 -716.0 -55.0 -730.0 -55.0 -739.0C-38.0 -739.0 -20.0 -732.0 -6.0 -720.0C20.0 -697.0 27.0 -635.0 34.0 -504.0C53.0 -503.0 65.0 -498.0 71.0 -491.0L10.0 -441.0ZM-44.0 -141.0H-35.0V-370.0H-29.0C-14.0 -370.0 8.0 -358.0 9.0 -352.0V-177.0C26.0 -174.0 42.0 -167.0 48.0 -160.0L-16.0 -111.0ZM-6.0 -141.0H-408.0L-399.0 -171.0H-6.0ZM-294.0 -307.0 -353.0 -280.0C-359.0 -339.0 -378.0 -447.0 -389.0 -494.0L-370.0 -458.0C-386.0 -461.0 -409.0 -470.0 -424.0 -478.0L-366.0 -529.0L-337.0 -502.0H-347.0C-334.0 -447.0 -318.0 -356.0 -311.0 -303.0L-318.0 -307.0Z"/></g>
<g fill="black" opacity=".8" transform="translate(700 300) scale(0.1 -0.1)"><path d="M0.0 0.0 -81.0 25.0C-97.0 -29.0 -127.0 -104.0 -150.0 -153.0H-129.0C-95.0 -112.0 -59.0 -59.0 -37.0 -17.0C-17.0 -19.0 -5.0 -11.0 0.0 0.0ZM-328.0 20.0 -340.0 13.0C-311.0 -23.0 -278.0 -84.0 -273.0 -129.0C-228.0 -167.0 -184.0 -67.0 -328.0 20.0ZM-172.0 -489.0V-474.0H-220.0C-258.0 -599.0 -328.0 -719.0 -427.0 -808.0L-415.0 -825.0C-299.0 -737.0 -218.0 -623.0 -172.0 -489.0ZM-158.0 -875.0V-147.0H-202.0V-892.0H-196.0C-173.0 -892.0 -158.0 -879.0 -158.0 -875.0ZM15.0 -473.0H-367.0L-370.0 -503.0H15.0ZM-7.0 -311.0H-337.0L-338.0 -341.0H-7.0ZM-13.0 -473.0H-3.0C-8.0 -607.0 -18.0 -671.0 -31.0 -687.0C-35.0 -692.0 -39.0 -693.0 -49.0 -693.0C-63.0 -693.0 -102.0 -691.0 -124.0 -689.0L-123.0 -707.0C-104.0 -709.0 -81.0 -714.0 -72.0 -719.0C-62.0 -726.0 -58.0 -740.0 -58.0 -748.0C-39.0 -749.0 -19.0 -742.0 -4.0 -728.0C23.0 -705.0 32.0 -640.0 38.0 -505.0C58.0 -504.0 68.0 -500.0 75.0 -492.0L15.0 -442.0ZM-46.0 -142.0H-37.0V-383.0H-31.0C-16.0 -383.0 5.0 -372.0 6.0 -366.0V-179.0C24.0 -175.0 41.0 -168.0 46.0 -162.0L-17.0 -112.0ZM-5.0 -142.0H-399.0L-389.0 -171.0H-5.0ZM-293.0 -311.0 -352.0 -283.0C-356.0 -342.0 -374.0 -449.0 -385.0 -496.0L-366.0 -460.0C-383.0 -463.0 -406.0 -471.0 -420.0 -480.0L-362.0 -530.0L-334.0 -503.0H-344.0C-332.0 -449.0 -316.0 -359.0 -310.0 -306.0L-317.0 -311.0Z"/></g>
<g fill="red" transform="translate(800 300) scale(0.1 -0.1)"><path d="M0.0 0.0 -161.0 42.0C-166.0 -17.0 -178.0 -102.0 -191.0 -160.0H-179.0C-126.0 -118.0 -71.0 -61.0 -37.0 -20.0C-15.0 -21.0 -4.0 -12.0 0.0 0.0ZM-375.0 37.0 -385.0 32.0C-362.0 -6.0 -342.0 -64.0 -343.0 -116.0C-253.0 -197.0 -139.0 -22.0 -375.0 37.0ZM-145.0 -485.0V-469.0H-276.0C-307.0 -601.0 -370.0 -739.0 -461.0 -834.0L-451.0 -846.0C-303.0 -758.0 -197.0 -637.0 -145.0 -485.0ZM-142.0 -875.0V-144.0H-256.0V-907.0H-235.0C-177.0 -907.0 -142.0 -882.0 -142.0 -875.0ZM-28.0 -469.0H-365.0V-497.0H-28.0ZM-41.0 -314.0H-354.0V-342.0H-41.0ZM-88.0 -469.0H-78.0C-80.0 -583.0 -82.0 -631.0 -90.0 -644.0C-92.0 -648.0 -95.0 -649.0 -100.0 -649.0C-112.0 -649.0 -133.0 -648.0 -151.0 -647.0V-659.0C-129.0 -666.0 -114.0 -679.0 -106.0 -694.0C-98.0 -708.0 -95.0 -731.0 -95.0 -755.0C-63.0 -754.0 -32.0 -750.0 -10.0 -733.0C26.0 -706.0 32.0 -650.0 35.0 -515.0C53.0 -512.0 65.0 -505.0 71.0 -497.0L-31.0 -415.0ZM-111.0 -144.0H-102.0V-384.0H-81.0C-42.0 -384.0 15.0 -359.0 16.0 -351.0V-185.0C32.0 -182.0 42.0 -175.0 47.0 -169.0L-59.0 -90.0ZM-55.0 -144.0H-435.0L-426.0 -172.0H-55.0ZM-270.0 -314.0 -405.0 -250.0C-409.0 -310.0 -425.0 -433.0 -438.0 -486.0L-407.0 -450.0C-427.0 -456.0 -451.0 -471.0 -465.0 -484.0L-356.0 -546.0L-317.0 -497.0H-324.0C-314.0 -448.0 -299.0 -352.0 -294.0 -307.0L-308.0 -314.0Z"/></g>
<g fill="black" opacity=".8" transform="translate(800 300) scale(0.1 -0.1)"><path d="M0.0 0.0 -163.0 45.0C-169.0 -11.0 -182.0 -95.0 -197.0 -149.0H-184.0C-132.0 -110.0 -74.0 -56.0 -37.0 -19.0C-15.0 -20.0 -4.0 -11.0 0.0 0.0ZM-376.0 40.0 -385.0 35.0C-361.0 -4.0 -341.0 -63.0 -341.0 -117.0C-246.0 -200.0 -131.0 -16.0 -376.0 40.0ZM-147.0 -475.0V-460.0H-284.0C-314.0 -592.0 -377.0 -731.0 -471.0 -826.0L-462.0 -836.0C-308.0 -751.0 -198.0 -629.0 -147.0 -475.0ZM-145.0 -878.0V-139.0H-261.0V-909.0H-239.0C-180.0 -909.0 -145.0 -885.0 -145.0 -878.0ZM-29.0 -458.0H-369.0L-372.0 -487.0H-29.0ZM-45.0 -303.0H-354.0L-355.0 -329.0H-45.0ZM-92.0 -458.0H-82.0C-84.0 -579.0 -86.0 -630.0 -95.0 -643.0C-97.0 -646.0 -100.0 -647.0 -108.0 -647.0C-120.0 -647.0 -144.0 -647.0 -163.0 -644.0V-656.0C-139.0 -664.0 -124.0 -676.0 -115.0 -692.0C-106.0 -706.0 -103.0 -729.0 -104.0 -757.0C-67.0 -756.0 -36.0 -750.0 -13.0 -733.0C25.0 -705.0 31.0 -649.0 34.0 -504.0C52.0 -502.0 63.0 -495.0 69.0 -487.0L-34.0 -403.0ZM-109.0 -138.0H-101.0V-382.0H-79.0C-41.0 -382.0 18.0 -359.0 19.0 -350.0V-179.0C36.0 -176.0 46.0 -168.0 51.0 -162.0L-57.0 -82.0ZM-47.0 -138.0H-427.0L-419.0 -164.0H-47.0ZM-271.0 -303.0 -404.0 -241.0C-406.0 -300.0 -419.0 -424.0 -431.0 -477.0L-402.0 -441.0C-422.0 -447.0 -445.0 -462.0 -459.0 -474.0L-351.0 -535.0L-313.0 -487.0H-319.0C-310.0 -438.0 -298.0 -341.0 -294.0 -296.0L-307.0 -303.0Z"/></g>
<g fill="red" transform="translate(900 300) scale(0.1 -0.1)"><path d="M0.0 0.0 -83.0 31.0C-102.0 -25.0 -134.0 -103.0 -162.0 -155.0H-139.0C-102.0 -112.0 -62.0 -57.0 -38.0 -16.0C-18.0 -18.0 -5.0 -10.0 0.0 0.0ZM-371.0 24.0 -384.0 17.0C-350.0 -21.0 -311.0 -85.0 -304.0 -134.0C-254.0 -174.0 -210.0 -63.0 -371.0 24.0ZM-208.0 -494.0V-478.0H-259.0C-311.0 -606.0 -404.0 -724.0 -526.0 -809.0L-514.0 -826.0C-374.0 -744.0 -269.0 -631.0 -208.0 -494.0ZM-181.0 -856.0V-143.0H-225.0V-873.0H-219.0C-196.0 -873.0 -181.0 -860.0 -181.0 -856.0ZM52.0 -476.0H-442.0L-450.0 -506.0H52.0ZM19.0 -312.0H-400.0L-409.0 -342.0H19.0ZM24.0 -476.0H34.0C28.0 -617.0 16.0 -692.0 -2.0 -708.0C-9.0 -714.0 -16.0 -715.0 -31.0 -715.0C-49.0 -715.0 -97.0 -711.0 -127.0 -709.0V-728.0C-103.0 -731.0 -74.0 -736.0 -65.0 -743.0C-54.0 -751.0 -51.0 -765.0 -51.0 -776.0C-24.0 -776.0 5.0 -769.0 24.0 -752.0C54.0 -726.0 70.0 -652.0 76.0 -509.0C95.0 -507.0 107.0 -503.0 114.0 -495.0L52.0 -445.0ZM-19.0 -143.0H-9.0V-379.0H-3.0C12.0 -379.0 34.0 -368.0 35.0 -362.0V-181.0C54.0 -178.0 71.0 -170.0 77.0 -163.0L10.0 -111.0ZM21.0 -143.0H-471.0L-462.0 -173.0H21.0ZM-373.0 -312.0 -431.0 -284.0C-438.0 -343.0 -460.0 -451.0 -472.0 -497.0L-453.0 -462.0C-469.0 -465.0 -493.0 -473.0 -507.0 -481.0L-451.0 -533.0L-421.0 -506.0H-431.0C-417.0 -452.0 -398.0 -360.0 -390.0 -307.0L-397.0 -312.0Z"/></g>
<g fill="black" opacity=".8" transform="translate(900 300) scale(0.1 -0.1)"><path d="M0.0 0.0 -83.0 32.0C-102.0 -25.0 -137.0 -101.0 -164.0 -151.0H-142.0C-104.0 -110.0 -63.0 -57.0 -38.0 -15.0C-18.0 -19.0 -5.0 -11.0 0.0 0.0ZM-375.0 27.0 -388.0 19.0C-353.0 -18.0 -314.0 -80.0 -307.0 -127.0C-258.0 -167.0 -214.0 -57.0 -375.0 27.0ZM-202.0 -496.0V-480.0H-253.0C-309.0 -609.0 -408.0 -728.0 -535.0 -814.0L-524.0 -831.0C-378.0 -750.0 -267.0 -635.0 -202.0 -496.0ZM-181.0 -862.0V-143.0H-227.0V-879.0H-220.0C-197.0 -879.0 -181.0 -866.0 -181.0 -862.0ZM55.0 -476.0H-442.0L-450.0 -507.0H55.0ZM15.0 -308.0H-407.0L-412.0 -339.0H15.0ZM20.0 -476.0H31.0C24.0 -616.0 11.0 -691.0 -6.0 -708.0C-12.0 -713.0 -20.0 -715.0 -34.0 -715.0C-50.0 -715.0 -100.0 -712.0 -130.0 -709.0V-727.0C-105.0 -730.0 -76.0 -736.0 -66.0 -743.0C-55.0 -751.0 -52.0 -765.0 -52.0 -775.0C-26.0 -776.0 2.0 -769.0 20.0 -752.0C52.0 -725.0 66.0 -650.0 73.0 -509.0C93.0 -508.0 104.0 -503.0 112.0 -496.0L49.0 -444.0ZM-22.0 -138.0H-12.0V-379.0H-6.0C10.0 -379.0 32.0 -368.0 33.0 -362.0V-177.0C52.0 -173.0 69.0 -166.0 75.0 -158.0L8.0 -106.0ZM17.0 -138.0H-473.0L-462.0 -168.0H17.0ZM-366.0 -308.0 -426.0 -280.0C-432.0 -340.0 -454.0 -449.0 -466.0 -497.0L-446.0 -461.0C-463.0 -464.0 -488.0 -473.0 -502.0 -482.0L-444.0 -533.0L-414.0 -506.0H-425.0C-411.0 -451.0 -391.0 -358.0 -383.0 -304.0L-390.0 -308.0Z"/></g>
<g fill="red" transform="translate(1000 300) scale(0.1 -0.1)"><path d="M0.0 0.0 -181.0 53.0C-189.0 -4.0 -204.0 -91.0 -217.0 -148.0H-206.0C-149.0 -109.0 -81.0 -54.0 -39.0 -19.0C-16.0 -20.0 -5.0 -12.0 0.0 0.0ZM-433.0 51.0 -441.0 46.0C-411.0 4.0 -385.0 -60.0 -383.0 -118.0C-270.0 -211.0 -146.0 8.0 -433.0 51.0ZM-182.0 -490.0V-474.0H-339.0C-378.0 -606.0 -458.0 -739.0 -573.0 -826.0L-565.0 -837.0C-379.0 -761.0 -246.0 -645.0 -182.0 -490.0ZM-173.0 -860.0V-141.0H-309.0V-895.0H-284.0C-214.0 -895.0 -173.0 -868.0 -173.0 -860.0ZM-11.0 -474.0H-446.0L-454.0 -502.0H-11.0ZM-41.0 -317.0H-414.0L-422.0 -345.0H-41.0ZM-86.0 -474.0H-76.0C-77.0 -602.0 -78.0 -653.0 -88.0 -664.0C-91.0 -668.0 -97.0 -670.0 -109.0 -670.0C-124.0 -670.0 -156.0 -669.0 -173.0 -667.0V-678.0C-144.0 -687.0 -130.0 -698.0 -119.0 -715.0C-107.0 -732.0 -105.0 -761.0 -105.0 -799.0C-53.0 -799.0 -20.0 -790.0 8.0 -771.0C49.0 -742.0 55.0 -691.0 56.0 -523.0C76.0 -520.0 87.0 -513.0 94.0 -505.0L-20.0 -413.0ZM-113.0 -141.0H-103.0V-381.0H-80.0C-37.0 -381.0 30.0 -359.0 31.0 -352.0V-189.0C50.0 -185.0 63.0 -176.0 68.0 -169.0L-54.0 -78.0ZM-54.0 -141.0H-505.0L-496.0 -169.0H-54.0ZM-337.0 -317.0 -486.0 -248.0C-491.0 -309.0 -510.0 -435.0 -525.0 -490.0L-491.0 -453.0C-512.0 -460.0 -537.0 -476.0 -552.0 -490.0L-433.0 -555.0L-390.0 -502.0H-397.0C-386.0 -453.0 -368.0 -354.0 -362.0 -310.0L-376.0 -317.0Z"/></g>
<g fill="black" opacity=".8" transform="translate(1000 300) scale(0.1 -0.1)"><path d="M0.0 0.0 -180.0 52.0C-188.0 -4.0 -202.0 -91.0 -216.0 -147.0H-205.0C-148.0 -108.0 -81.0 -54.0 -39.0 -19.0C-16.0 -20.0 -4.0 -12.0 0.0 0.0ZM-440.0 48.0 -448.0 44.0C-419.0 2.0 -394.0 -61.0 -392.0 -119.0C-281.0 -209.0 -157.0 6.0 -440.0 48.0ZM-183.0 -490.0V-474.0H-341.0C-381.0 -607.0 -463.0 -743.0 -580.0 -832.0L-572.0 -842.0C-385.0 -766.0 -249.0 -647.0 -183.0 -490.0ZM-173.0 -867.0V-141.0H-309.0V-901.0H-284.0C-214.0 -901.0 -174.0 -874.0 -173.0 -867.0ZM-19.0 -470.0H-449.0L-456.0 -499.0H-19.0ZM-42.0 -312.0H-423.0L-429.0 -339.0H-42.0ZM-90.0 -470.0H-80.0C-81.0 -595.0 -83.0 -648.0 -93.0 -659.0C-96.0 -662.0 -100.0 -664.0 -112.0 -664.0C-126.0 -664.0 -160.0 -664.0 -179.0 -661.0V-673.0C-150.0 -681.0 -134.0 -694.0 -122.0 -711.0C-111.0 -728.0 -108.0 -757.0 -109.0 -795.0C-59.0 -795.0 -25.0 -785.0 2.0 -767.0C45.0 -737.0 52.0 -682.0 54.0 -520.0C73.0 -517.0 84.0 -510.0 91.0 -502.0L-23.0 -409.0ZM-113.0 -138.0H-104.0V-385.0H-79.0C-37.0 -385.0 30.0 -362.0 31.0 -354.0V-185.0C50.0 -181.0 62.0 -172.0 67.0 -165.0L-55.0 -74.0ZM-44.0 -138.0H-517.0L-509.0 -165.0H-44.0ZM-338.0 -312.0 -486.0 -243.0C-491.0 -305.0 -510.0 -432.0 -525.0 -488.0L-491.0 -450.0C-513.0 -457.0 -538.0 -473.0 -554.0 -487.0L-434.0 -553.0L-390.0 -499.0H-398.0C-387.0 -450.0 -368.0 -350.0 -362.0 -304.0L-377.0 -312.0Z"/></g>
<g fill="red" transform="translate(1100 300) scale(0.1 -0.1)"><path d="M0.0 0.0 -83.0 33.0C-102.0 -23.0 -134.0 -101.0 -162.0 -153.0H-140.0C-102.0 -111.0 -62.0 -56.0 -38.0 -15.0C-18.0 -17.0 -5.0 -10.0 0.0 0.0ZM-383.0 26.0 -396.0 19.0C-361.0 -19.0 -321.0 -84.0 -313.0 -134.0C-263.0 -174.0 -219.0 -62.0 -383.0 26.0ZM-213.0 -498.0V-482.0H-264.0C-320.0 -609.0 -420.0 -727.0 -546.0 -811.0L-534.0 -828.0C-389.0 -748.0 -279.0 -635.0 -213.0 -498.0ZM-189.0 -855.0V-142.0H-233.0V-872.0H-227.0C-204.0 -872.0 -189.0 -859.0 -189.0 -855.0ZM68.0 -468.0H-463.0L-471.0 -498.0H68.0ZM10.0 -299.0H-419.0L-428.0 -329.0H10.0ZM20.0 -468.0H30.0C24.0 -614.0 9.0 -694.0 -9.0 -711.0C-17.0 -717.0 -25.0 -719.0 -40.0 -719.0C-58.0 -719.0 -109.0 -715.0 -139.0 -712.0L-140.0 -731.0C-115.0 -734.0 -85.0 -740.0 -74.0 -747.0C-64.0 -755.0 -61.0 -768.0 -61.0 -780.0C-33.0 -780.0 -3.0 -772.0 16.0 -756.0C48.0 -728.0 65.0 -648.0 72.0 -501.0C91.0 -499.0 103.0 -495.0 110.0 -487.0L48.0 -437.0ZM-25.0 -129.0H-15.0V-365.0H-9.0C6.0 -365.0 28.0 -354.0 29.0 -348.0V-168.0C48.0 -164.0 66.0 -157.0 72.0 -149.0L4.0 -97.0ZM11.0 -129.0H-490.0L-481.0 -159.0H11.0ZM-389.0 -299.0 -446.0 -271.0C-454.0 -331.0 -478.0 -440.0 -491.0 -488.0L-471.0 -453.0C-487.0 -456.0 -512.0 -464.0 -526.0 -472.0L-470.0 -524.0L-441.0 -497.0H-451.0C-436.0 -442.0 -413.0 -349.0 -405.0 -295.0L-412.0 -299.0Z"/></g>
<g fill="black" opacity=".8" transform="translate(1100 300) scale(0.1 -0.1)"><path d="M0.0 0.0 -82.0 33.0C-102.0 -24.0 -138.0 -101.0 -167.0 -151.0H-145.0C-106.0 -110.0 -63.0 -56.0 -38.0 -15.0C-18.0 -19.0 -5.0 -11.0 0.0 0.0ZM-387.0 28.0 -399.0 20.0C-364.0 -16.0 -322.0 -79.0 -313.0 -126.0C-264.0 -166.0 -221.0 -54.0 -387.0 28.0ZM-211.0 -493.0V-477.0H-262.0C-320.0 -605.0 -423.0 -723.0 -555.0 -806.0L-543.0 -823.0C-393.0 -744.0 -279.0 -631.0 -211.0 -493.0ZM-188.0 -849.0V-141.0H-233.0V-866.0H-227.0C-203.0 -866.0 -188.0 -853.0 -188.0 -849.0ZM57.0 -473.0H-453.0L-462.0 -503.0H57.0ZM13.0 -306.0H-416.0L-424.0 -336.0H13.0ZM21.0 -473.0H31.0C24.0 -613.0 11.0 -691.0 -8.0 -708.0C-14.0 -713.0 -23.0 -714.0 -38.0 -714.0C-55.0 -714.0 -106.0 -711.0 -137.0 -708.0V-727.0C-111.0 -730.0 -82.0 -736.0 -72.0 -742.0C-61.0 -751.0 -59.0 -765.0 -59.0 -776.0C-31.0 -777.0 -2.0 -769.0 18.0 -751.0C50.0 -724.0 66.0 -647.0 72.0 -506.0C92.0 -504.0 103.0 -500.0 111.0 -492.0L48.0 -441.0ZM-23.0 -137.0H-13.0V-375.0H-8.0C9.0 -375.0 30.0 -363.0 31.0 -357.0V-176.0C50.0 -171.0 68.0 -165.0 74.0 -157.0L7.0 -105.0ZM15.0 -137.0H-482.0L-472.0 -166.0H15.0ZM-378.0 -306.0 -437.0 -278.0C-444.0 -337.0 -466.0 -445.0 -480.0 -493.0L-459.0 -458.0C-476.0 -461.0 -501.0 -469.0 -515.0 -478.0L-458.0 -529.0L-428.0 -502.0H-439.0C-424.0 -447.0 -403.0 -355.0 -395.0 -302.0L-402.0 -306.0Z"/></g>
<g fill="red" transform="translate(1200 300) scale(0.1 -0.1)"><path d="M0.0 0.0 -185.0 53.0C-193.0 -4.0 -208.0 -91.0 -220.0 -149.0H-210.0C-151.0 -109.0 -82.0 -54.0 -39.0 -19.0C-16.0 -21.0 -4.0 -13.0 0.0 0.0ZM-447.0 51.0 -455.0 46.0C-423.0 3.0 -395.0 -61.0 -392.0 -121.0C-275.0 -213.0 -152.0 13.0 -447.0 51.0ZM-189.0 -492.0V-476.0H-350.0C-388.0 -604.0 -467.0 -736.0 -581.0 -820.0L-573.0 -831.0C-388.0 -757.0 -254.0 -644.0 -189.0 -492.0ZM-179.0 -861.0V-142.0H-318.0V-896.0H-292.0C-221.0 -896.0 -179.0 -869.0 -179.0 -861.0ZM-10.0 -465.0H-459.0L-467.0 -493.0H-10.0ZM-42.0 -307.0H-425.0L-433.0 -335.0H-42.0ZM-93.0 -465.0H-83.0C-84.0 -598.0 -85.0 -652.0 -95.0 -662.0C-99.0 -667.0 -104.0 -669.0 -117.0 -669.0C-132.0 -669.0 -167.0 -668.0 -185.0 -666.0V-677.0C-155.0 -686.0 -140.0 -698.0 -128.0 -715.0C-115.0 -733.0 -114.0 -763.0 -114.0 -803.0C-59.0 -803.0 -25.0 -792.0 3.0 -773.0C45.0 -744.0 52.0 -690.0 53.0 -515.0C72.0 -512.0 83.0 -505.0 91.0 -497.0L-26.0 -403.0ZM-124.0 -129.0H-114.0V-369.0H-90.0C-47.0 -369.0 22.0 -347.0 23.0 -341.0V-178.0C43.0 -174.0 56.0 -165.0 62.0 -158.0L-64.0 -64.0ZM-58.0 -129.0H-524.0L-515.0 -157.0H-58.0ZM-339.0 -307.0 -492.0 -237.0C-498.0 -298.0 -519.0 -425.0 -535.0 -480.0L-500.0 -444.0C-521.0 -450.0 -546.0 -466.0 -561.0 -481.0L-439.0 -548.0L-396.0 -493.0H-403.0C-391.0 -444.0 -371.0 -344.0 -364.0 -299.0L-379.0 -307.0Z"/></g>
<g fill="black" opacity=".8" transform="translate(1200 300) scale(0.1 -0.1)"><path d="M0.0 0.0 -182.0 53.0C-191.0 -3.0 -206.0 -91.0 -219.0 -147.0H-208.0C-151.0 -108.0 -82.0 -53.0 -39.0 -19.0C-15.0 -20.0 -4.0 -12.0 0.0 0.0ZM-453.0 50.0 -460.0 46.0C-430.0 3.0 -403.0 -60.0 -400.0 -120.0C-284.0 -211.0 -162.0 12.0 -453.0 50.0ZM-192.0 -491.0V-475.0H-352.0C-392.0 -605.0 -476.0 -737.0 -596.0 -823.0L-588.0 -833.0C-398.0 -761.0 -259.0 -646.0 -192.0 -491.0ZM-180.0 -854.0V-143.0H-318.0V-888.0H-292.0C-221.0 -888.0 -180.0 -862.0 -180.0 -854.0ZM-23.0 -471.0H-456.0L-465.0 -500.0H-23.0ZM-47.0 -315.0H-428.0L-434.0 -341.0H-47.0ZM-94.0 -471.0H-85.0C-85.0 -596.0 -86.0 -648.0 -96.0 -659.0C-99.0 -662.0 -104.0 -664.0 -117.0 -664.0C-131.0 -664.0 -166.0 -664.0 -184.0 -660.0V-672.0C-154.0 -681.0 -139.0 -693.0 -127.0 -710.0C-115.0 -727.0 -112.0 -757.0 -113.0 -797.0C-60.0 -798.0 -26.0 -787.0 1.0 -769.0C44.0 -739.0 51.0 -687.0 52.0 -520.0C71.0 -518.0 82.0 -511.0 88.0 -503.0L-27.0 -409.0ZM-119.0 -138.0H-111.0V-382.0H-85.0C-43.0 -382.0 26.0 -360.0 27.0 -353.0V-187.0C46.0 -182.0 59.0 -174.0 64.0 -166.0L-61.0 -74.0ZM-52.0 -138.0H-527.0L-518.0 -165.0H-52.0ZM-346.0 -315.0 -496.0 -245.0C-502.0 -306.0 -522.0 -433.0 -538.0 -488.0L-503.0 -451.0C-525.0 -458.0 -549.0 -473.0 -566.0 -488.0L-444.0 -554.0L-401.0 -500.0H-408.0C-396.0 -451.0 -377.0 -352.0 -370.0 -307.0L-385.0 -315.0Z"/></g>
<g fill="red" transform="translate(1300 300) scale(0.1 -0.1)"><path d="M0.0 0.0 -74.0 33.0C-92.0 -7.0 -122.0 -60.0 -147.0 -93.0H-123.0C-92.0 -69.0 -59.0 -39.0 -39.0 -13.0C-19.0 -16.0 -5.0 -9.0 0.0 0.0ZM-384.0 29.0 -396.0 21.0C-366.0 -4.0 -335.0 -47.0 -327.0 -80.0C-282.0 -113.0 -244.0 -18.0 -384.0 29.0ZM-201.0 -364.0V-348.0H-255.0C-348.0 -441.0 -496.0 -521.0 -655.0 -574.0L-646.0 -591.0C-470.0 -545.0 -306.0 -468.0 -201.0 -364.0ZM-188.0 -564.0V-92.0H-232.0V-581.0H-226.0C-203.0 -581.0 -188.0 -568.0 -188.0 -564.0ZM161.0 -339.0H-546.0L-553.0 -369.0H161.0ZM105.0 -212.0H-514.0L-521.0 -242.0H105.0ZM124.0 -339.0H134.0C127.0 -428.0 113.0 -488.0 97.0 -502.0C90.0 -507.0 81.0 -509.0 64.0 -509.0C44.0 -509.0 -25.0 -504.0 -62.0 -501.0L-63.0 -519.0C-31.0 -522.0 9.0 -530.0 21.0 -537.0C34.0 -545.0 37.0 -558.0 37.0 -570.0C68.0 -571.0 101.0 -562.0 120.0 -548.0C151.0 -524.0 168.0 -463.0 175.0 -372.0C195.0 -370.0 207.0 -366.0 214.0 -359.0L152.0 -308.0ZM82.0 -84.0H90.0V-279.0H96.0C111.0 -279.0 133.0 -267.0 134.0 -261.0V-117.0C149.0 -116.0 163.0 -109.0 168.0 -102.0L109.0 -56.0ZM111.0 -84.0H-592.0L-583.0 -114.0H111.0ZM-480.0 -213.0 -537.0 -185.0C-544.0 -234.0 -562.0 -321.0 -573.0 -359.0L-553.0 -325.0C-570.0 -328.0 -593.0 -336.0 -608.0 -344.0L-551.0 -396.0L-522.0 -368.0H-532.0C-520.0 -326.0 -503.0 -251.0 -496.0 -209.0L-503.0 -213.0Z"/></g>
<g fill="black" opacity=".8" transform="translate(1300 300) scale(0.1 -0.1)"><path d="M0.0 0.0 -70.0 34.0C-88.0 -8.0 -121.0 -60.0 -146.0 -93.0H-124.0C-92.0 -68.0 -58.0 -38.0 -36.0 -11.0C-18.0 -16.0 -5.0 -10.0 0.0 0.0ZM-400.0 31.0 -411.0 23.0C-378.0 -3.0 -344.0 -49.0 -336.0 -82.0C-293.0 -115.0 -256.0 -19.0 -400.0 31.0ZM-210.0 -358.0V-343.0H-262.0C-354.0 -438.0 -503.0 -520.0 -664.0 -573.0L-657.0 -589.0C-479.0 -544.0 -314.0 -464.0 -210.0 -358.0ZM-191.0 -573.0V-90.0H-234.0V-590.0H-227.0C-205.0 -590.0 -191.0 -578.0 -191.0 -573.0ZM166.0 -335.0H-549.0L-560.0 -363.0H166.0ZM105.0 -206.0H-511.0L-519.0 -235.0H105.0ZM131.0 -335.0H141.0C133.0 -424.0 118.0 -488.0 101.0 -502.0C94.0 -508.0 83.0 -509.0 65.0 -509.0C46.0 -509.0 -24.0 -504.0 -63.0 -502.0V-518.0C-30.0 -522.0 9.0 -529.0 21.0 -536.0C34.0 -545.0 35.0 -557.0 35.0 -569.0C68.0 -571.0 102.0 -561.0 122.0 -546.0C155.0 -521.0 173.0 -457.0 179.0 -366.0C199.0 -364.0 209.0 -360.0 218.0 -353.0L158.0 -305.0ZM78.0 -82.0H85.0V-274.0H90.0C106.0 -274.0 126.0 -263.0 126.0 -257.0V-114.0C142.0 -112.0 155.0 -106.0 160.0 -99.0L104.0 -55.0ZM105.0 -82.0H-589.0L-579.0 -109.0H105.0ZM-478.0 -207.0 -532.0 -180.0C-540.0 -228.0 -561.0 -315.0 -573.0 -352.0L-553.0 -320.0C-570.0 -322.0 -593.0 -331.0 -607.0 -339.0L-554.0 -387.0L-526.0 -361.0H-535.0C-522.0 -319.0 -502.0 -246.0 -492.0 -203.0L-500.0 -207.0Z"/></g>
<g fill="red" transform="translate(1400 300) scale(0.1 -0.1)"><path d="M0.0 0.0 -172.0 48.0C-177.0 6.0 -187.0 -57.0 -197.0 -98.0H-186.0C-134.0 -75.0 -76.0 -43.0 -38.0 -19.0C-15.0 -20.0 -4.0 -12.0 0.0 0.0ZM-451.0 45.0 -458.0 40.0C-438.0 14.0 -418.0 -31.0 -417.0 -73.0C-311.0 -153.0 -189.0 43.0 -451.0 45.0ZM-197.0 -353.0V-337.0H-365.0C-435.0 -431.0 -562.0 -524.0 -716.0 -580.0L-710.0 -593.0C-486.0 -551.0 -299.0 -474.0 -197.0 -353.0ZM-162.0 -533.0V-94.0H-314.0V-563.0H-286.0C-208.0 -563.0 -163.0 -539.0 -162.0 -533.0ZM78.0 -332.0H-560.0L-567.0 -360.0H78.0ZM64.0 -206.0H-526.0L-533.0 -234.0H64.0ZM6.0 -332.0H16.0C13.0 -389.0 7.0 -422.0 -1.0 -429.0C-6.0 -432.0 -12.0 -434.0 -25.0 -434.0C-41.0 -434.0 -89.0 -432.0 -116.0 -429.0V-440.0C-81.0 -449.0 -59.0 -462.0 -44.0 -480.0C-29.0 -498.0 -27.0 -531.0 -27.0 -568.0C29.0 -568.0 64.0 -559.0 92.0 -544.0C135.0 -520.0 149.0 -473.0 155.0 -383.0C174.0 -380.0 185.0 -373.0 192.0 -365.0L74.0 -271.0ZM-5.0 -87.0H4.0V-273.0H29.0C74.0 -273.0 141.0 -246.0 142.0 -238.0V-132.0C159.0 -128.0 169.0 -121.0 174.0 -114.0L53.0 -26.0ZM67.0 -87.0H-661.0L-652.0 -115.0H67.0ZM-426.0 -206.0 -576.0 -136.0C-588.0 -189.0 -619.0 -295.0 -640.0 -343.0L-600.0 -307.0C-623.0 -313.0 -651.0 -328.0 -667.0 -343.0L-545.0 -413.0L-500.0 -360.0H-507.0C-491.0 -320.0 -462.0 -238.0 -450.0 -199.0L-465.0 -206.0Z"/></g>
<g fill="black" opacity=".8" transform="translate(1400 300) scale(0.1 -0.1)"><path d="M0.0 0.0 -169.0 52.0C-176.0 12.0 -187.0 -51.0 -199.0 -89.0H-188.0C-137.0 -68.0 -76.0 -38.0 -36.0 -17.0C-14.0 -18.0 -3.0 -11.0 0.0 0.0ZM-452.0 51.0 -458.0 47.0C-437.0 19.0 -419.0 -25.0 -418.0 -68.0C-311.0 -151.0 -186.0 48.0 -452.0 51.0ZM-190.0 -345.0V-330.0H-367.0C-431.0 -426.0 -555.0 -523.0 -708.0 -580.0L-703.0 -590.0C-475.0 -551.0 -287.0 -470.0 -190.0 -345.0ZM-168.0 -555.0V-86.0H-316.0V-584.0H-289.0C-212.0 -584.0 -169.0 -560.0 -168.0 -555.0ZM87.0 -322.0H-554.0L-564.0 -350.0H87.0ZM45.0 -200.0H-513.0L-522.0 -225.0H45.0ZM19.0 -322.0H27.0C25.0 -391.0 17.0 -431.0 8.0 -439.0C2.0 -441.0 -5.0 -442.0 -20.0 -442.0C-37.0 -442.0 -92.0 -442.0 -120.0 -437.0V-447.0C-82.0 -456.0 -59.0 -469.0 -42.0 -488.0C-27.0 -506.0 -24.0 -540.0 -25.0 -581.0C36.0 -582.0 70.0 -569.0 100.0 -554.0C145.0 -529.0 160.0 -479.0 168.0 -372.0C185.0 -370.0 195.0 -364.0 201.0 -356.0L87.0 -262.0ZM-11.0 -79.0H-4.0V-264.0H23.0C65.0 -264.0 133.0 -241.0 135.0 -232.0V-123.0C152.0 -119.0 162.0 -113.0 166.0 -105.0L46.0 -17.0ZM49.0 -79.0H-643.0L-635.0 -104.0H49.0ZM-432.0 -200.0 -582.0 -131.0C-592.0 -182.0 -617.0 -288.0 -636.0 -336.0L-598.0 -301.0C-621.0 -308.0 -646.0 -322.0 -662.0 -338.0L-540.0 -404.0L-496.0 -350.0H-503.0C-489.0 -312.0 -464.0 -229.0 -455.0 -192.0L-470.0 -200.0Z"/></g>
<g fill="red" transform="translate(1500 300) scale(0.1 -0.1)"><path d="M0.0 0.0 -83.0 33.0C-102.0 -24.0 -135.0 -102.0 -163.0 -153.0H-141.0C-103.0 -111.0 -62.0 -57.0 -38.0 -16.0C-18.0 -18.0 -4.0 -11.0 0.0 0.0ZM-366.0 26.0 -378.0 19.0C-345.0 -17.0 -306.0 -78.0 -299.0 -125.0C-248.0 -164.0 -204.0 -54.0 -366.0 26.0ZM-209.0 -497.0V-481.0H-260.0C-316.0 -607.0 -417.0 -726.0 -542.0 -810.0L-530.0 -827.0C-386.0 -746.0 -275.0 -633.0 -209.0 -497.0ZM-186.0 -855.0V-142.0H-230.0V-872.0H-224.0C-201.0 -872.0 -186.0 -859.0 -186.0 -855.0ZM52.0 -480.0H-455.0L-463.0 -510.0H52.0ZM1.0 -316.0H-404.0L-413.0 -346.0H1.0ZM22.0 -480.0H32.0C25.0 -617.0 11.0 -695.0 -8.0 -712.0C-16.0 -718.0 -24.0 -719.0 -39.0 -719.0C-57.0 -719.0 -111.0 -715.0 -142.0 -713.0L-143.0 -731.0C-117.0 -734.0 -85.0 -740.0 -75.0 -747.0C-64.0 -755.0 -61.0 -769.0 -61.0 -780.0C-32.0 -780.0 -2.0 -773.0 17.0 -756.0C49.0 -729.0 67.0 -651.0 74.0 -513.0C93.0 -511.0 105.0 -507.0 112.0 -499.0L50.0 -449.0ZM-27.0 -142.0H-17.0V-387.0H-11.0C4.0 -387.0 26.0 -375.0 27.0 -369.0V-181.0C46.0 -177.0 64.0 -170.0 71.0 -162.0L3.0 -109.0ZM14.0 -142.0H-464.0L-455.0 -172.0H14.0ZM-360.0 -316.0 -418.0 -287.0C-427.0 -346.0 -451.0 -454.0 -465.0 -500.0L-444.0 -465.0C-460.0 -468.0 -485.0 -477.0 -499.0 -485.0L-442.0 -537.0L-413.0 -509.0H-422.0C-407.0 -456.0 -385.0 -364.0 -376.0 -312.0L-383.0 -316.0Z"/></g>
<g fill="black" opacity=".8" transform="translate(1500 300) scale(0.1 -0.1)"><path d="M0.0 0.0 -82.0 32.0C-102.0 -25.0 -138.0 -102.0 -166.0 -152.0H-144.0C-105.0 -111.0 -63.0 -57.0 -38.0 -15.0C-18.0 -19.0 -5.0 -11.0 0.0 0.0ZM-381.0 27.0 -393.0 19.0C-358.0 -18.0 -318.0 -81.0 -310.0 -128.0C-260.0 -168.0 -217.0 -57.0 -381.0 27.0ZM-207.0 -497.0V-481.0H-258.0C-313.0 -610.0 -412.0 -729.0 -540.0 -814.0L-528.0 -831.0C-382.0 -750.0 -271.0 -635.0 -207.0 -497.0ZM-185.0 -861.0V-143.0H-230.0V-878.0H-224.0C-200.0 -878.0 -185.0 -866.0 -185.0 -861.0ZM51.0 -477.0H-444.0L-452.0 -508.0H51.0ZM10.0 -310.0H-408.0L-414.0 -340.0H10.0ZM16.0 -477.0H26.0C20.0 -618.0 7.0 -694.0 -11.0 -711.0C-17.0 -717.0 -25.0 -718.0 -39.0 -718.0C-56.0 -718.0 -106.0 -715.0 -136.0 -712.0L-135.0 -730.0C-110.0 -733.0 -82.0 -739.0 -72.0 -746.0C-61.0 -754.0 -59.0 -768.0 -59.0 -778.0C-32.0 -779.0 -4.0 -772.0 15.0 -754.0C47.0 -728.0 62.0 -652.0 68.0 -510.0C88.0 -509.0 99.0 -504.0 107.0 -497.0L44.0 -445.0ZM-26.0 -139.0H-16.0V-380.0H-11.0C5.0 -380.0 27.0 -368.0 28.0 -362.0V-178.0C47.0 -174.0 64.0 -167.0 71.0 -159.0L4.0 -107.0ZM12.0 -139.0H-474.0L-464.0 -169.0H12.0ZM-368.0 -309.0 -428.0 -281.0C-434.0 -341.0 -456.0 -450.0 -469.0 -498.0L-449.0 -462.0C-466.0 -465.0 -490.0 -474.0 -505.0 -483.0L-447.0 -534.0L-417.0 -507.0H-428.0C-414.0 -452.0 -393.0 -359.0 -385.0 -305.0L-392.0 -309.0Z"/></g>
<g fill="red" transform="translate(1600 300) scale(0.1 -0.1)"><path d="M0.0 0.0 -189.0 54.0C-197.0 -3.0 -211.0 -90.0 -223.0 -148.0H-214.0C-154.0 -109.0 -83.0 -53.0 -38.0 -19.0C-15.0 -20.0 -4.0 -12.0 0.0 0.0ZM-446.0 52.0 -454.0 47.0C-421.0 4.0 -391.0 -61.0 -387.0 -121.0C-272.0 -211.0 -153.0 13.0 -446.0 52.0ZM-184.0 -499.0V-483.0H-348.0C-393.0 -618.0 -485.0 -755.0 -616.0 -842.0L-609.0 -853.0C-403.0 -778.0 -256.0 -660.0 -184.0 -499.0ZM-182.0 -861.0V-142.0H-321.0V-896.0H-295.0C-224.0 -896.0 -182.0 -869.0 -182.0 -861.0ZM-17.0 -481.0H-423.0L-431.0 -509.0H-17.0ZM-23.0 -324.0H-411.0L-419.0 -352.0H-23.0ZM-96.0 -481.0H-86.0C-87.0 -588.0 -88.0 -634.0 -97.0 -644.0C-100.0 -648.0 -105.0 -649.0 -118.0 -649.0C-133.0 -649.0 -170.0 -648.0 -189.0 -646.0V-657.0C-157.0 -666.0 -141.0 -678.0 -129.0 -696.0C-116.0 -714.0 -114.0 -746.0 -114.0 -786.0C-58.0 -786.0 -25.0 -775.0 2.0 -758.0C45.0 -730.0 52.0 -679.0 53.0 -531.0C72.0 -528.0 83.0 -521.0 90.0 -513.0L-28.0 -419.0ZM-124.0 -142.0H-114.0V-403.0H-90.0C-47.0 -403.0 22.0 -382.0 23.0 -375.0V-192.0C44.0 -188.0 57.0 -179.0 63.0 -171.0L-64.0 -76.0ZM-26.0 -142.0H-506.0L-497.0 -170.0H-26.0ZM-345.0 -324.0 -492.0 -261.0C-495.0 -321.0 -510.0 -447.0 -522.0 -503.0L-489.0 -465.0C-512.0 -472.0 -539.0 -487.0 -555.0 -501.0L-438.0 -572.0L-388.0 -508.0H-397.0C-387.0 -460.0 -374.0 -362.0 -370.0 -317.0L-384.0 -324.0Z"/></g>
<g fill="black" opacity=".8" transform="translate(1600 300) scale(0.1 -0.1)"><path d="M0.0 0.0 -181.0 52.0C-189.0 -4.0 -204.0 -93.0 -217.0 -149.0H-206.0C-149.0 -109.0 -81.0 -54.0 -39.0 -19.0C-16.0 -20.0 -4.0 -12.0 0.0 0.0ZM-444.0 49.0 -452.0 45.0C-423.0 2.0 -397.0 -61.0 -395.0 -121.0C-281.0 -211.0 -158.0 7.0 -444.0 49.0ZM-187.0 -493.0V-477.0H-344.0C-383.0 -609.0 -465.0 -743.0 -582.0 -832.0L-574.0 -842.0C-387.0 -766.0 -252.0 -649.0 -187.0 -493.0ZM-176.0 -866.0V-143.0H-311.0V-900.0H-287.0C-217.0 -900.0 -176.0 -874.0 -176.0 -866.0ZM-24.0 -473.0H-447.0L-455.0 -502.0H-24.0ZM-47.0 -315.0H-420.0L-426.0 -342.0H-47.0ZM-94.0 -473.0H-85.0C-85.0 -599.0 -87.0 -651.0 -96.0 -662.0C-99.0 -665.0 -104.0 -667.0 -116.0 -667.0C-130.0 -667.0 -164.0 -667.0 -182.0 -664.0V-676.0C-153.0 -684.0 -137.0 -696.0 -126.0 -714.0C-114.0 -731.0 -112.0 -760.0 -112.0 -798.0C-61.0 -799.0 -28.0 -788.0 -0.0 -770.0C42.0 -741.0 48.0 -687.0 50.0 -523.0C69.0 -520.0 80.0 -513.0 86.0 -505.0L-27.0 -412.0ZM-118.0 -139.0H-110.0V-385.0H-84.0C-43.0 -385.0 25.0 -363.0 27.0 -355.0V-187.0C45.0 -183.0 58.0 -175.0 63.0 -167.0L-60.0 -76.0ZM-51.0 -139.0H-516.0L-508.0 -166.0H-51.0ZM-338.0 -315.0 -486.0 -247.0C-492.0 -308.0 -510.0 -435.0 -526.0 -491.0L-492.0 -453.0C-513.0 -460.0 -538.0 -476.0 -554.0 -490.0L-434.0 -556.0L-391.0 -502.0H-398.0C-387.0 -453.0 -368.0 -353.0 -361.0 -308.0L-377.0 -315.0Z"/></g>
</svg>
