<?xml version="1.0" encoding="UTF-8"?>
<svg width="1700" height="300" xmlns="http://www.w3.org/2000/svg">
<rect width="100%" height="100%" fill="white"/>
<g fill="green" transform="translate(100 100) scale(0.1 -0.1)"><path d="M0.0 0.0H-163.0L-154.0 -30.0H0.0ZM-34.0 0.0H-22.0C-44.0 -191.0 -111.0 -387.0 -237.0 -524.0L-222.0 -537.0C-83.0 -408.0 -10.0 -230.0 20.0 -36.0C41.0 -34.0 53.0 -33.0 61.0 -26.0L0.0 33.0ZM357.0 232.0H-97.0L-88.0 202.0H357.0ZM344.0 232.0H356.0C318.0 188.0 235.0 111.0 166.0 70.0H188.0C262.0 101.0 347.0 159.0 401.0 199.0C422.0 199.0 435.0 200.0 443.0 207.0L380.0 266.0ZM509.0 -20.0 434.0 21.0C412.0 -19.0 367.0 -84.0 327.0 -127.0L339.0 -140.0C390.0 -108.0 443.0 -62.0 472.0 -28.0C494.0 -34.0 502.0 -30.0 509.0 -20.0ZM304.0 78.0 283.0 73.0C312.0 -182.0 369.0 -410.0 486.0 -543.0C495.0 -522.0 512.0 -510.0 530.0 -509.0L533.0 -499.0C409.0 -389.0 337.0 -145.0 304.0 78.0ZM218.0 83.0 138.0 93.0V-543.0C138.0 -560.0 132.0 -566.0 112.0 -566.0C92.0 -566.0 -15.0 -558.0 -15.0 -558.0V-574.0C30.0 -579.0 57.0 -585.0 73.0 -593.0C86.0 -600.0 92.0 -611.0 95.0 -624.0C173.0 -616.0 182.0 -589.0 182.0 -547.0V58.0C206.0 60.0 215.0 69.0 218.0 83.0ZM231.0 -15.0 204.0 -48.0H45.0L53.0 -78.0H261.0C274.0 -78.0 282.0 -73.0 284.0 -62.0C264.0 -40.0 231.0 -15.0 231.0 -15.0ZM259.0 -148.0 229.0 -184.0H24.0L32.0 -214.0H292.0C306.0 -214.0 315.0 -209.0 317.0 -198.0C294.0 -175.0 259.0 -148.0 259.0 -148.0ZM290.0 -296.0 256.0 -336.0H-27.0L-19.0 -366.0H329.0C341.0 -366.0 350.0 -361.0 353.0 -350.0C329.0 -325.0 290.0 -296.0 290.0 -296.0Z"/></g>
<g fill="green" transform="translate(200 100) scale(0.1 -0.1)"><path d="M0.0 0.0H-155.0L-146.0 -28.0H0.0ZM-79.0 0.0H-66.0C-68.0 -171.0 -102.0 -358.0 -192.0 -541.0L-182.0 -549.0C-36.0 -421.0 28.0 -231.0 53.0 -57.0C76.0 -54.0 88.0 -50.0 96.0 -41.0L-16.0 65.0ZM369.0 248.0H-106.0L-97.0 220.0H369.0ZM297.0 248.0H309.0C278.0 203.0 210.0 123.0 154.0 80.0H166.0C265.0 106.0 375.0 154.0 459.0 199.0C481.0 201.0 492.0 204.0 500.0 213.0L373.0 322.0ZM572.0 -36.0 426.0 62.0C411.0 15.0 372.0 -69.0 340.0 -123.0L349.0 -132.0C413.0 -108.0 484.0 -74.0 534.0 -48.0C557.0 -51.0 567.0 -46.0 572.0 -36.0ZM311.0 102.0 298.0 99.0C317.0 -198.0 354.0 -404.0 460.0 -545.0C480.0 -483.0 520.0 -443.0 566.0 -432.0L569.0 -422.0C445.0 -328.0 350.0 -130.0 311.0 102.0ZM270.0 104.0 106.0 119.0V-468.0C106.0 -480.0 101.0 -484.0 86.0 -484.0C66.0 -484.0 -35.0 -478.0 -35.0 -478.0V-491.0C16.0 -500.0 35.0 -513.0 51.0 -530.0C67.0 -548.0 71.0 -575.0 74.0 -613.0C215.0 -601.0 235.0 -557.0 235.0 -472.0V77.0C258.0 80.0 268.0 89.0 270.0 104.0ZM259.0 29.0 218.0 -26.0H43.0L51.0 -54.0H308.0C321.0 -54.0 330.0 -49.0 333.0 -38.0C305.0 -10.0 259.0 29.0 259.0 29.0ZM260.0 -108.0 217.0 -166.0H33.0L41.0 -194.0H313.0C326.0 -194.0 336.0 -189.0 338.0 -178.0C309.0 -149.0 260.0 -108.0 260.0 -108.0ZM275.0 -242.0 225.0 -310.0H-6.0L2.0 -338.0H339.0C353.0 -338.0 363.0 -333.0 366.0 -322.0C332.0 -289.0 275.0 -242.0 275.0 -242.0Z"/></g>
<g fill="green" transform="translate(300 100) scale(0.1 -0.1)"><path d="M0.0 0.0H-163.0L-154.0 -30.0H0.0ZM-34.0 0.0H-22.0C-44.0 -191.0 -111.0 -387.0 -237.0 -524.0L-222.0 -537.0C-83.0 -408.0 -10.0 -230.0 20.0 -36.0C41.0 -34.0 53.0 -33.0 61.0 -26.0L0.0 33.0ZM357.0 232.0H-97.0L-88.0 202.0H357.0ZM344.0 232.0H356.0C318.0 188.0 235.0 111.0 166.0 70.0H188.0C262.0 101.0 347.0 159.0 401.0 199.0C422.0 199.0 435.0 200.0 443.0 207.0L380.0 266.0ZM509.0 -20.0 434.0 21.0C412.0 -19.0 367.0 -84.0 327.0 -127.0L339.0 -140.0C390.0 -108.0 443.0 -62.0 472.0 -28.0C494.0 -34.0 502.0 -30.0 509.0 -20.0ZM304.0 78.0 283.0 73.0C312.0 -182.0 369.0 -410.0 486.0 -543.0C495.0 -522.0 512.0 -510.0 530.0 -509.0L533.0 -499.0C409.0 -389.0 337.0 -145.0 304.0 78.0ZM218.0 83.0 138.0 93.0V-543.0C138.0 -560.0 132.0 -566.0 112.0 -566.0C92.0 -566.0 -15.0 -558.0 -15.0 -558.0V-574.0C30.0 -579.0 57.0 -585.0 73.0 -593.0C86.0 -600.0 92.0 -611.0 95.0 -624.0C173.0 -616.0 182.0 -589.0 182.0 -547.0V58.0C206.0 60.0 215.0 69.0 218.0 83.0ZM231.0 -15.0 204.0 -48.0H45.0L53.0 -78.0H261.0C274.0 -78.0 282.0 -73.0 284.0 -62.0C264.0 -40.0 231.0 -15.0 231.0 -15.0ZM259.0 -148.0 229.0 -184.0H24.0L32.0 -214.0H292.0C306.0 -214.0 315.0 -209.0 317.0 -198.0C294.0 -175.0 259.0 -148.0 259.0 -148.0ZM290.0 -296.0 256.0 -336.0H-27.0L-19.0 -366.0H329.0C341.0 -366.0 350.0 -361.0 353.0 -350.0C329.0 -325.0 290.0 -296.0 290.0 -296.0Z"/></g>
<g fill="green" transform="translate(400 100) scale(0.1 -0.1)"><path d="M0.0 0.0H-155.0L-146.0 -28.0H0.0ZM-79.0 0.0H-66.0C-68.0 -171.0 -102.0 -358.0 -192.0 -541.0L-182.0 -549.0C-36.0 -421.0 28.0 -231.0 53.0 -57.0C76.0 -54.0 88.0 -50.0 96.0 -41.0L-16.0 65.0ZM369.0 248.0H-106.0L-97.0 220.0H369.0ZM297.0 248.0H309.0C278.0 203.0 210.0 123.0 154.0 80.0H166.0C265.0 106.0 375.0 154.0 459.0 199.0C481.0 201.0 492.0 204.0 500.0 213.0L373.0 322.0ZM572.0 -36.0 426.0 62.0C411.0 15.0 372.0 -69.0 340.0 -123.0L349.0 -132.0C413.0 -108.0 484.0 -74.0 534.0 -48.0C557.0 -51.0 567.0 -46.0 572.0 -36.0ZM311.0 102.0 298.0 99.0C317.0 -198.0 354.0 -404.0 460.0 -545.0C480.0 -483.0 520.0 -443.0 566.0 -432.0L569.0 -422.0C445.0 -328.0 350.0 -130.0 311.0 102.0ZM270.0 104.0 106.0 119.0V-468.0C106.0 -480.0 101.0 -484.0 86.0 -484.0C66.0 -484.0 -35.0 -478.0 -35.0 -478.0V-491.0C16.0 -500.0 35.0 -513.0 51.0 -530.0C67.0 -548.0 71.0 -575.0 74.0 -613.0C215.0 -601.0 235.0 -557.0 235.0 -472.0V77.0C258.0 80.0 268.0 89.0 270.0 104.0ZM259.0 29.0 218.0 -26.0H43.0L51.0 -54.0H308.0C321.0 -54.0 330.0 -49.0 333.0 -38.0C305.0 -10.0 259.0 29.0 259.0 29.0ZM260.0 -108.0 217.0 -166.0H33.0L41.0 -194.0H313.0C326.0 -194.0 336.0 -189.0 338.0 -178.0C309.0 -149.0 260.0 -108.0 260.0 -108.0ZM275.0 -242.0 225.0 -310.0H-6.0L2.0 -338.0H339.0C353.0 -338.0 363.0 -333.0 366.0 -322.0C332.0 -289.0 275.0 -242.0 275.0 -242.0Z"/></g>
<g fill="red" transform="translate(100 200) scale(0.1 -0.1)"><path d="M0.0 0.0H-163.0L-154.0 -30.0H0.0ZM-34.0 0.0H-22.0C-44.0 -191.0 -111.0 -387.0 -237.0 -524.0L-222.0 -537.0C-83.0 -408.0 -10.0 -230.0 20.0 -36.0C41.0 -34.0 53.0 -33.0 61.0 -26.0L0.0 33.0ZM357.0 232.0H-97.0L-88.0 202.0H357.0ZM344.0 232.0H356.0C318.0 188.0 235.0 111.0 166.0 70.0H188.0C262.0 101.0 347.0 159.0 401.0 199.0C422.0 199.0 435.0 200.0 443.0 207.0L380.0 266.0ZM509.0 -20.0 434.0 21.0C412.0 -19.0 367.0 -84.0 327.0 -127.0L339.0 -140.0C390.0 -108.0 443.0 -62.0 472.0 -28.0C494.0 -34.0 502.0 -30.0 509.0 -20.0ZM304.0 78.0 283.0 73.0C312.0 -182.0 369.0 -410.0 486.0 -543.0C495.0 -522.0 512.0 -510.0 530.0 -509.0L533.0 -499.0C409.0 -389.0 337.0 -145.0 304.0 78.0ZM218.0 83.0 138.0 93.0V-543.0C138.0 -560.0 132.0 -566.0 112.0 -566.0C92.0 -566.0 -15.0 -558.0 -15.0 -558.0V-574.0C30.0 -579.0 57.0 -585.0 73.0 -593.0C86.0 -600.0 92.0 -611.0 95.0 -624.0C173.0 -616.0 182.0 -589.0 182.0 -547.0V58.0C206.0 60.0 215.0 69.0 218.0 83.0ZM231.0 -15.0 204.0 -48.0H45.0L53.0 -78.0H261.0C274.0 -78.0 282.0 -73.0 284.0 -62.0C264.0 -40.0 231.0 -15.0 231.0 -15.0ZM259.0 -148.0 229.0 -184.0H24.0L32.0 -214.0H292.0C306.0 -214.0 315.0 -209.0 317.0 -198.0C294.0 -175.0 259.0 -148.0 259.0 -148.0ZM290.0 -296.0 256.0 -336.0H-27.0L-19.0 -366.0H329.0C341.0 -366.0 350.0 -361.0 353.0 -350.0C329.0 -325.0 290.0 -296.0 290.0 -296.0Z"/></g>
<g fill="black" opacity=".8" transform="translate(100 200) scale(0.1 -0.1)"><path d="M0.0 0.0H-163.0L-154.0 -30.0H0.0ZM-34.0 0.0H-22.0C-44.0 -191.0 -111.0 -387.0 -237.0 -524.0L-222.0 -537.0C-83.0 -408.0 -10.0 -230.0 20.0 -36.0C41.0 -34.0 53.0 -33.0 61.0 -26.0L0.0 33.0ZM357.0 232.0H-97.0L-88.0 202.0H357.0ZM344.0 232.0H356.0C318.0 188.0 235.0 111.0 166.0 70.0H188.0C262.0 101.0 347.0 159.0 401.0 199.0C422.0 199.0 435.0 200.0 443.0 207.0L380.0 266.0ZM509.0 -20.0 434.0 21.0C412.0 -19.0 367.0 -84.0 327.0 -127.0L339.0 -140.0C390.0 -108.0 443.0 -62.0 472.0 -28.0C494.0 -34.0 502.0 -30.0 509.0 -20.0ZM304.0 78.0 283.0 73.0C312.0 -182.0 369.0 -410.0 486.0 -543.0C495.0 -522.0 512.0 -510.0 530.0 -509.0L533.0 -499.0C409.0 -389.0 337.0 -145.0 304.0 78.0ZM218.0 83.0 138.0 93.0V-543.0C138.0 -560.0 132.0 -566.0 112.0 -566.0C92.0 -566.0 -15.0 -558.0 -15.0 -558.0V-574.0C30.0 -579.0 57.0 -585.0 73.0 -593.0C86.0 -600.0 92.0 -611.0 95.0 -624.0C173.0 -616.0 182.0 -589.0 182.0 -547.0V58.0C206.0 60.0 215.0 69.0 218.0 83.0ZM231.0 -15.0 204.0 -48.0H45.0L53.0 -78.0H261.0C274.0 -78.0 282.0 -73.0 284.0 -62.0C264.0 -40.0 231.0 -15.0 231.0 -15.0ZM259.0 -148.0 229.0 -184.0H24.0L32.0 -214.0H292.0C306.0 -214.0 315.0 -209.0 317.0 -198.0C294.0 -175.0 259.0 -148.0 259.0 -148.0ZM290.0 -296.0 256.0 -336.0H-27.0L-19.0 -366.0H329.0C341.0 -366.0 350.0 -361.0 353.0 -350.0C329.0 -325.0 290.0 -296.0 290.0 -296.0Z"/></g>
<g fill="red" transform="translate(200 200) scale(0.1 -0.1)"><path d="M0.0 0.0H-155.0L-146.0 -28.0H0.0ZM-79.0 0.0H-66.0C-68.0 -171.0 -102.0 -358.0 -192.0 -541.0L-182.0 -549.0C-36.0 -421.0 28.0 -231.0 53.0 -57.0C76.0 -54.0 88.0 -50.0 96.0 -41.0L-16.0 65.0ZM369.0 248.0H-106.0L-97.0 220.0H369.0ZM297.0 248.0H309.0C278.0 203.0 210.0 123.0 154.0 80.0H166.0C265.0 106.0 375.0 154.0 459.0 199.0C481.0 201.0 492.0 204.0 500.0 213.0L373.0 322.0ZM572.0 -36.0 426.0 62.0C411.0 15.0 372.0 -69.0 340.0 -123.0L349.0 -132.0C413.0 -108.0 484.0 -74.0 534.0 -48.0C557.0 -51.0 567.0 -46.0 572.0 -36.0ZM311.0 102.0 298.0 99.0C317.0 -198.0 354.0 -404.0 460.0 -545.0C480.0 -483.0 520.0 -443.0 566.0 -432.0L569.0 -422.0C445.0 -328.0 350.0 -130.0 311.0 102.0ZM270.0 104.0 106.0 119.0V-468.0C106.0 -480.0 101.0 -484.0 86.0 -484.0C66.0 -484.0 -35.0 -478.0 -35.0 -478.0V-491.0C16.0 -500.0 35.0 -513.0 51.0 -530.0C67.0 -548.0 71.0 -575.0 74.0 -613.0C215.0 -601.0 235.0 -557.0 235.0 -472.0V77.0C258.0 80.0 268.0 89.0 270.0 104.0ZM259.0 29.0 218.0 -26.0H43.0L51.0 -54.0H308.0C321.0 -54.0 330.0 -49.0 333.0 -38.0C305.0 -10.0 259.0 29.0 259.0 29.0ZM260.0 -108.0 217.0 -166.0H33.0L41.0 -194.0H313.0C326.0 -194.0 336.0 -189.0 338.0 -178.0C309.0 -149.0 260.0 -108.0 260.0 -108.0ZM275.0 -242.0 225.0 -310.0H-6.0L2.0 -338.0H339.0C353.0 -338.0 363.0 -333.0 366.0 -322.0C332.0 -289.0 275.0 -242.0 275.0 -242.0Z"/></g>
<g fill="black" opacity=".8" transform="translate(200 200) scale(0.1 -0.1)"><path d="M0.0 0.0H-155.0L-146.0 -28.0H0.0ZM-79.0 0.0H-66.0C-68.0 -171.0 -102.0 -358.0 -192.0 -541.0L-182.0 -549.0C-36.0 -421.0 28.0 -231.0 53.0 -57.0C76.0 -54.0 88.0 -50.0 96.0 -41.0L-16.0 65.0ZM369.0 248.0H-106.0L-97.0 220.0H369.0ZM297.0 248.0H309.0C278.0 203.0 210.0 123.0 154.0 80.0H166.0C265.0 106.0 375.0 154.0 459.0 199.0C481.0 201.0 492.0 204.0 500.0 213.0L373.0 322.0ZM572.0 -36.0 426.0 62.0C411.0 15.0 372.0 -69.0 340.0 -123.0L349.0 -132.0C413.0 -108.0 484.0 -74.0 534.0 -48.0C557.0 -51.0 567.0 -46.0 572.0 -36.0ZM311.0 102.0 298.0 99.0C317.0 -198.0 354.0 -404.0 460.0 -545.0C480.0 -483.0 520.0 -443.0 566.0 -432.0L569.0 -422.0C445.0 -328.0 350.0 -130.0 311.0 102.0ZM270.0 104.0 106.0 119.0V-468.0C106.0 -480.0 101.0 -484.0 86.0 -484.0C66.0 -484.0 -35.0 -478.0 -35.0 -478.0V-491.0C16.0 -500.0 35.0 -513.0 51.0 -530.0C67.0 -548.0 71.0 -575.0 74.0 -613.0C215.0 -601.0 235.0 -557.0 235.0 -472.0V77.0C258.0 80.0 268.0 89.0 270.0 104.0ZM259.0 29.0 218.0 -26.0H43.0L51.0 -54.0H308.0C321.0 -54.0 330.0 -49.0 333.0 -38.0C305.0 -10.0 259.0 29.0 259.0 29.0ZM260.0 -108.0 217.0 -166.0H33.0L41.0 -194.0H313.0C326.0 -194.0 336.0 -189.0 338.0 -178.0C309.0 -149.0 260.0 -108.0 260.0 -108.0ZM275.0 -242.0 225.0 -310.0H-6.0L2.0 -338.0H339.0C353.0 -338.0 363.0 -333.0 366.0 -322.0C332.0 -289.0 275.0 -242.0 275.0 -242.0Z"/></g>
</svg>
