<?xml version="1.0" encoding="UTF-8"?>
<svg width="1700" height="300" xmlns="http://www.w3.org/2000/svg">
<rect width="100%" height="100%" fill="white"/>
<g fill="green" transform="translate(100 100) scale(0.1 -0.1)"><path d="M0.0 0.0 -74.0 10.0V-326.0C-74.0 -367.0 -59.0 -381.0 18.0 -381.0H146.0C319.0 -381.0 348.0 -374.0 348.0 -350.0C348.0 -341.0 343.0 -335.0 323.0 -330.0L321.0 -200.0H307.0C298.0 -256.0 290.0 -309.0 283.0 -325.0C279.0 -335.0 276.0 -337.0 263.0 -339.0C247.0 -340.0 203.0 -341.0 144.0 -341.0H22.0C-25.0 -341.0 -30.0 -336.0 -30.0 -318.0V-24.0C-11.0 -21.0 -1.0 -12.0 0.0 0.0ZM-344.0 407.0H-391.0C-403.0 321.0 -444.0 140.0 -469.0 59.0L-447.0 94.0C-464.0 90.0 -489.0 82.0 -502.0 74.0L-444.0 22.0L-416.0 49.0H-425.0C-400.0 145.0 -360.0 315.0 -344.0 407.0ZM-64.0 405.0H-114.0C-119.0 126.0 -131.0 -176.0 -560.0 -405.0L-547.0 -424.0C-92.0 -201.0 -75.0 106.0 -64.0 405.0ZM245.0 131.0 202.0 79.0H-445.0V49.0H297.0C311.0 49.0 320.0 54.0 322.0 65.0C292.0 94.0 245.0 131.0 245.0 131.0ZM204.0 470.0 162.0 418.0H-504.0L-495.0 388.0H256.0C269.0 388.0 279.0 393.0 282.0 404.0C252.0 433.0 204.0 470.0 204.0 470.0Z"/></g>
<g fill="green" transform="translate(200 100) scale(0.1 -0.1)"><path d="M0.0 0.0 -172.0 14.0V-296.0C-172.0 -388.0 -149.0 -411.0 -40.0 -411.0H50.0C207.0 -411.0 257.0 -383.0 257.0 -326.0C257.0 -300.0 250.0 -284.0 214.0 -269.0L211.0 -144.0H201.0C179.0 -203.0 162.0 -247.0 150.0 -264.0C142.0 -274.0 136.0 -277.0 123.0 -277.0C111.0 -278.0 90.0 -278.0 68.0 -278.0H-4.0C-28.0 -278.0 -32.0 -274.0 -32.0 -260.0V-25.0C-11.0 -22.0 -2.0 -13.0 0.0 0.0ZM-356.0 405.0H-513.0C-519.0 336.0 -551.0 145.0 -576.0 60.0L-537.0 98.0C-560.0 90.0 -586.0 72.0 -601.0 56.0L-465.0 -15.0L-416.0 48.0H-423.0C-403.0 138.0 -369.0 326.0 -356.0 405.0ZM-105.0 405.0H-264.0C-266.0 100.0 -260.0 -185.0 -690.0 -431.0L-681.0 -445.0C-132.0 -251.0 -117.0 56.0 -105.0 405.0ZM84.0 176.0 2.0 76.0H-500.0V48.0H202.0C217.0 48.0 229.0 53.0 232.0 64.0C176.0 110.0 84.0 176.0 84.0 176.0ZM40.0 505.0 -37.0 417.0H-628.0L-620.0 389.0H153.0C168.0 389.0 180.0 394.0 183.0 405.0C127.0 447.0 40.0 505.0 40.0 505.0Z"/></g>
<g fill="green" transform="translate(300 100) scale(0.1 -0.1)"><path d="M0.0 0.0 -62.0 8.0V-281.0C-62.0 -315.0 -49.0 -327.0 15.0 -327.0H121.0C264.0 -327.0 288.0 -321.0 288.0 -301.0C288.0 -294.0 284.0 -289.0 267.0 -285.0L266.0 -175.0H254.0C247.0 -222.0 240.0 -267.0 234.0 -280.0C231.0 -289.0 228.0 -290.0 217.0 -292.0C204.0 -293.0 168.0 -294.0 119.0 -294.0H18.0C-21.0 -294.0 -25.0 -290.0 -25.0 -274.0V-20.0C-9.0 -17.0 -1.0 -10.0 0.0 0.0ZM-290.0 348.0H-329.0C-339.0 274.0 -374.0 119.0 -395.0 50.0L-377.0 79.0C-391.0 76.0 -412.0 69.0 -423.0 63.0L-374.0 19.0L-351.0 42.0H-359.0C-337.0 124.0 -303.0 269.0 -290.0 348.0ZM-58.0 346.0H-99.0C-103.0 109.0 -112.0 -151.0 -470.0 -348.0L-459.0 -364.0C-80.0 -172.0 -67.0 92.0 -58.0 346.0ZM201.0 110.0 165.0 67.0H-375.0V42.0H245.0C256.0 42.0 264.0 46.0 265.0 55.0C241.0 79.0 201.0 110.0 201.0 110.0ZM168.0 400.0 133.0 356.0H-423.0L-416.0 331.0H212.0C222.0 331.0 231.0 336.0 233.0 345.0C208.0 369.0 168.0 400.0 168.0 400.0Z"/></g>
<g fill="green" transform="translate(400 100) scale(0.1 -0.1)"><path d="M0.0 0.0 -143.0 12.0V-256.0C-143.0 -332.0 -124.0 -352.0 -33.0 -352.0H41.0C172.0 -352.0 214.0 -328.0 214.0 -281.0C214.0 -259.0 208.0 -246.0 178.0 -233.0L175.0 -128.0H167.0C149.0 -177.0 135.0 -215.0 125.0 -229.0C118.0 -237.0 113.0 -240.0 102.0 -240.0C92.0 -241.0 75.0 -241.0 56.0 -241.0H-3.0C-23.0 -241.0 -27.0 -237.0 -27.0 -226.0V-21.0C-9.0 -18.0 -2.0 -11.0 0.0 0.0ZM-297.0 346.0H-428.0C-433.0 287.0 -461.0 124.0 -482.0 51.0L-450.0 83.0C-469.0 76.0 -490.0 61.0 -503.0 48.0L-390.0 -11.0L-349.0 41.0H-355.0C-338.0 118.0 -309.0 279.0 -297.0 346.0ZM-91.0 346.0H-222.0C-224.0 86.0 -218.0 -158.0 -577.0 -369.0L-569.0 -381.0C-112.0 -214.0 -100.0 49.0 -91.0 346.0ZM67.0 148.0 -2.0 64.0H-416.0L-417.0 41.0H166.0C178.0 41.0 189.0 45.0 191.0 54.0C144.0 93.0 67.0 148.0 67.0 148.0ZM30.0 429.0 -34.0 355.0H-523.0L-517.0 332.0H124.0C137.0 332.0 147.0 336.0 150.0 345.0C103.0 380.0 30.0 429.0 30.0 429.0Z"/></g>
<g fill="green" transform="translate(500 100) scale(0.1 -0.1)"><path d="M0.0 0.0 -85.0 12.0V-245.0C-85.0 -292.0 -69.0 -305.0 23.0 -305.0H182.0C394.0 -305.0 426.0 -297.0 426.0 -270.0C426.0 -258.0 419.0 -252.0 398.0 -246.0L395.0 -114.0H379.0C369.0 -172.0 359.0 -224.0 351.0 -242.0C346.0 -252.0 343.0 -255.0 329.0 -257.0C310.0 -258.0 254.0 -258.0 181.0 -258.0H28.0C-29.0 -258.0 -34.0 -254.0 -34.0 -237.0V-27.0C-13.0 -25.0 -2.0 -13.0 0.0 0.0ZM-352.0 352.0H-407.0C-419.0 280.0 -456.0 128.0 -480.0 57.0L-454.0 97.0C-474.0 93.0 -503.0 83.0 -520.0 73.0L-452.0 13.0L-419.0 45.0H-429.0C-406.0 126.0 -369.0 273.0 -352.0 352.0ZM-13.0 348.0H-70.0C-78.0 95.0 -106.0 -144.0 -603.0 -324.0L-589.0 -345.0C-63.0 -172.0 -29.0 74.0 -13.0 348.0ZM323.0 140.0 275.0 80.0H-461.0L-453.0 45.0H382.0C399.0 45.0 409.0 51.0 413.0 64.0C377.0 97.0 323.0 140.0 323.0 140.0ZM261.0 431.0 212.0 371.0H-536.0L-525.0 336.0H321.0C338.0 336.0 349.0 341.0 353.0 354.0C317.0 388.0 261.0 431.0 261.0 431.0Z"/></g>
<g fill="green" transform="translate(600 100) scale(0.1 -0.1)"><path d="M0.0 0.0 -200.0 14.0V-215.0C-200.0 -321.0 -175.0 -347.0 -47.0 -347.0H62.0C245.0 -347.0 304.0 -315.0 304.0 -249.0C304.0 -219.0 296.0 -200.0 254.0 -183.0L252.0 -55.0H240.0C213.0 -120.0 194.0 -161.0 180.0 -179.0C172.0 -190.0 165.0 -193.0 149.0 -193.0C136.0 -194.0 109.0 -194.0 83.0 -194.0H-5.0C-33.0 -194.0 -36.0 -190.0 -36.0 -176.0V-29.0C-13.0 -26.0 -2.0 -16.0 0.0 0.0ZM-401.0 350.0H-584.0C-589.0 289.0 -616.0 129.0 -637.0 55.0L-592.0 99.0C-619.0 90.0 -650.0 69.0 -667.0 50.0L-507.0 -33.0L-451.0 42.0H-459.0C-441.0 119.0 -411.0 280.0 -401.0 350.0ZM-78.0 351.0H-275.0C-279.0 81.0 -279.0 -155.0 -769.0 -357.0L-761.0 -372.0C-131.0 -219.0 -99.0 36.0 -78.0 351.0ZM138.0 188.0 48.0 75.0H-589.0L-580.0 42.0H267.0C285.0 42.0 297.0 48.0 301.0 61.0C240.0 112.0 138.0 188.0 138.0 188.0ZM88.0 473.0 -2.0 371.0H-728.0L-718.0 338.0H220.0C237.0 338.0 250.0 344.0 253.0 357.0C189.0 406.0 88.0 473.0 88.0 473.0Z"/></g>
<g fill="red" transform="translate(100 200) scale(0.1 -0.1)"><path d="M0.0 0.0 -74.0 10.0V-326.0C-74.0 -367.0 -59.0 -381.0 18.0 -381.0H146.0C319.0 -381.0 348.0 -374.0 348.0 -350.0C348.0 -341.0 343.0 -335.0 323.0 -330.0L321.0 -200.0H307.0C298.0 -256.0 290.0 -309.0 283.0 -325.0C279.0 -335.0 276.0 -337.0 263.0 -339.0C247.0 -340.0 203.0 -341.0 144.0 -341.0H22.0C-25.0 -341.0 -30.0 -336.0 -30.0 -318.0V-24.0C-11.0 -21.0 -1.0 -12.0 0.0 0.0ZM-344.0 407.0H-391.0C-403.0 321.0 -444.0 140.0 -469.0 59.0L-447.0 94.0C-464.0 90.0 -489.0 82.0 -502.0 74.0L-444.0 22.0L-416.0 49.0H-425.0C-400.0 145.0 -360.0 315.0 -344.0 407.0ZM-64.0 405.0H-114.0C-119.0 126.0 -131.0 -176.0 -560.0 -405.0L-547.0 -424.0C-92.0 -201.0 -75.0 106.0 -64.0 405.0ZM245.0 131.0 202.0 79.0H-445.0V49.0H297.0C311.0 49.0 320.0 54.0 322.0 65.0C292.0 94.0 245.0 131.0 245.0 131.0ZM204.0 470.0 162.0 418.0H-504.0L-495.0 388.0H256.0C269.0 388.0 279.0 393.0 282.0 404.0C252.0 433.0 204.0 470.0 204.0 470.0Z"/></g>
<g fill="black" opacity=".8" transform="translate(100 200) scale(0.1 -0.1)"><path d="M0.0 0.0 -74.0 10.0V-326.0C-74.0 -367.0 -59.0 -381.0 18.0 -381.0H146.0C319.0 -381.0 348.0 -374.0 348.0 -350.0C348.0 -341.0 343.0 -335.0 323.0 -330.0L321.0 -200.0H307.0C298.0 -256.0 290.0 -309.0 283.0 -325.0C279.0 -335.0 276.0 -337.0 263.0 -339.0C247.0 -340.0 203.0 -341.0 144.0 -341.0H22.0C-25.0 -341.0 -30.0 -336.0 -30.0 -318.0V-24.0C-11.0 -21.0 -1.0 -12.0 0.0 0.0ZM-344.0 407.0H-391.0C-403.0 321.0 -444.0 140.0 -469.0 59.0L-447.0 94.0C-464.0 90.0 -489.0 82.0 -502.0 74.0L-444.0 22.0L-416.0 49.0H-425.0C-400.0 145.0 -360.0 315.0 -344.0 407.0ZM-64.0 405.0H-114.0C-119.0 126.0 -131.0 -176.0 -560.0 -405.0L-547.0 -424.0C-92.0 -201.0 -75.0 106.0 -64.0 405.0ZM245.0 131.0 202.0 79.0H-445.0V49.0H297.0C311.0 49.0 320.0 54.0 322.0 65.0C292.0 94.0 245.0 131.0 245.0 131.0ZM204.0 470.0 162.0 418.0H-504.0L-495.0 388.0H256.0C269.0 388.0 279.0 393.0 282.0 404.0C252.0 433.0 204.0 470.0 204.0 470.0Z"/></g>
<g fill="red" transform="translate(200 200) scale(0.1 -0.1)"><path d="M0.0 0.0 -172.0 14.0V-296.0C-172.0 -388.0 -149.0 -411.0 -40.0 -411.0H50.0C207.0 -411.0 257.0 -383.0 257.0 -326.0C257.0 -300.0 250.0 -284.0 214.0 -269.0L211.0 -144.0H201.0C179.0 -203.0 162.0 -247.0 150.0 -264.0C142.0 -274.0 136.0 -277.0 123.0 -277.0C111.0 -278.0 90.0 -278.0 68.0 -278.0H-4.0C-28.0 -278.0 -32.0 -274.0 -32.0 -260.0V-25.0C-11.0 -22.0 -2.0 -13.0 0.0 0.0ZM-356.0 405.0H-513.0C-519.0 336.0 -551.0 145.0 -576.0 60.0L-537.0 98.0C-560.0 90.0 -586.0 72.0 -601.0 56.0L-465.0 -15.0L-416.0 48.0H-423.0C-403.0 138.0 -369.0 326.0 -356.0 405.0ZM-105.0 405.0H-264.0C-266.0 100.0 -260.0 -185.0 -690.0 -431.0L-681.0 -445.0C-132.0 -251.0 -117.0 56.0 -105.0 405.0ZM84.0 176.0 2.0 76.0H-500.0V48.0H202.0C217.0 48.0 229.0 53.0 232.0 64.0C176.0 110.0 84.0 176.0 84.0 176.0ZM40.0 505.0 -37.0 417.0H-628.0L-620.0 389.0H153.0C168.0 389.0 180.0 394.0 183.0 405.0C127.0 447.0 40.0 505.0 40.0 505.0Z"/></g>
<g fill="black" opacity=".8" transform="translate(200 200) scale(0.1 -0.1)"><path d="M0.0 0.0 -172.0 14.0V-296.0C-172.0 -388.0 -149.0 -411.0 -40.0 -411.0H50.0C207.0 -411.0 257.0 -383.0 257.0 -326.0C257.0 -300.0 250.0 -284.0 214.0 -269.0L211.0 -144.0H201.0C179.0 -203.0 162.0 -247.0 150.0 -264.0C142.0 -274.0 136.0 -277.0 123.0 -277.0C111.0 -278.0 90.0 -278.0 68.0 -278.0H-4.0C-28.0 -278.0 -32.0 -274.0 -32.0 -260.0V-25.0C-11.0 -22.0 -2.0 -13.0 0.0 0.0ZM-356.0 405.0H-513.0C-519.0 336.0 -551.0 145.0 -576.0 60.0L-537.0 98.0C-560.0 90.0 -586.0 72.0 -601.0 56.0L-465.0 -15.0L-416.0 48.0H-423.0C-403.0 138.0 -369.0 326.0 -356.0 405.0ZM-105.0 405.0H-264.0C-266.0 100.0 -260.0 -185.0 -690.0 -431.0L-681.0 -445.0C-132.0 -251.0 -117.0 56.0 -105.0 405.0ZM84.0 176.0 2.0 76.0H-500.0V48.0H202.0C217.0 48.0 229.0 53.0 232.0 64.0C176.0 110.0 84.0 176.0 84.0 176.0ZM40.0 505.0 -37.0 417.0H-628.0L-620.0 389.0H153.0C168.0 389.0 180.0 394.0 183.0 405.0C127.0 447.0 40.0 505.0 40.0 505.0Z"/></g>
<g fill="red" transform="translate(300 200) scale(0.1 -0.1)"><path d="M0.0 0.0 -73.0 10.0V-200.0C-73.0 -240.0 -59.0 -251.0 20.0 -251.0H157.0C339.0 -251.0 366.0 -244.0 366.0 -221.0C366.0 -211.0 360.0 -206.0 342.0 -201.0L340.0 -89.0H326.0C318.0 -138.0 309.0 -182.0 302.0 -197.0C298.0 -206.0 295.0 -208.0 283.0 -210.0C267.0 -211.0 219.0 -211.0 156.0 -211.0H24.0C-25.0 -211.0 -29.0 -208.0 -29.0 -193.0V-23.0C-11.0 -21.0 -2.0 -11.0 0.0 0.0ZM-298.0 293.0H-345.0C-355.0 233.0 -386.0 107.0 -406.0 48.0L-384.0 82.0C-401.0 79.0 -426.0 70.0 -441.0 62.0L-382.0 10.0L-354.0 38.0H-363.0C-343.0 105.0 -312.0 227.0 -298.0 293.0ZM-7.0 289.0H-55.0C-62.0 78.0 -87.0 -119.0 -513.0 -267.0L-501.0 -285.0C-51.0 -143.0 -21.0 60.0 -7.0 289.0ZM279.0 119.0 238.0 68.0H-391.0L-383.0 38.0H330.0C344.0 38.0 353.0 43.0 356.0 54.0C326.0 82.0 279.0 119.0 279.0 119.0ZM225.0 361.0 183.0 309.0H-455.0L-446.0 279.0H277.0C291.0 279.0 301.0 284.0 304.0 295.0C273.0 324.0 225.0 361.0 225.0 361.0Z"/></g>
<g fill="black" opacity=".8" transform="translate(300 200) scale(0.1 -0.1)"><path d="M0.0 0.0 -73.0 10.0V-200.0C-73.0 -240.0 -59.0 -251.0 20.0 -251.0H157.0C339.0 -251.0 366.0 -244.0 366.0 -221.0C366.0 -211.0 360.0 -206.0 342.0 -201.0L340.0 -89.0H326.0C318.0 -138.0 309.0 -182.0 302.0 -197.0C298.0 -206.0 295.0 -208.0 283.0 -210.0C267.0 -211.0 219.0 -211.0 156.0 -211.0H24.0C-25.0 -211.0 -29.0 -208.0 -29.0 -193.0V-23.0C-11.0 -21.0 -2.0 -11.0 0.0 0.0ZM-298.0 293.0H-345.0C-355.0 233.0 -386.0 107.0 -406.0 48.0L-384.0 82.0C-401.0 79.0 -426.0 70.0 -441.0 62.0L-382.0 10.0L-354.0 38.0H-363.0C-343.0 105.0 -312.0 227.0 -298.0 293.0ZM-7.0 289.0H-55.0C-62.0 78.0 -87.0 -119.0 -513.0 -267.0L-501.0 -285.0C-51.0 -143.0 -21.0 60.0 -7.0 289.0ZM279.0 119.0 238.0 68.0H-391.0L-383.0 38.0H330.0C344.0 38.0 353.0 43.0 356.0 54.0C326.0 82.0 279.0 119.0 279.0 119.0ZM225.0 361.0 183.0 309.0H-455.0L-446.0 279.0H277.0C291.0 279.0 301.0 284.0 304.0 295.0C273.0 324.0 225.0 361.0 225.0 361.0Z"/></g>
<g fill="red" transform="translate(400 200) scale(0.1 -0.1)"><path d="M0.0 0.0 -171.0 12.0V-175.0C-171.0 -265.0 -150.0 -288.0 -40.0 -288.0H53.0C210.0 -288.0 261.0 -260.0 261.0 -204.0C261.0 -178.0 254.0 -162.0 218.0 -147.0L216.0 -39.0H206.0C183.0 -94.0 167.0 -129.0 155.0 -144.0C148.0 -153.0 142.0 -156.0 128.0 -156.0C117.0 -157.0 94.0 -157.0 71.0 -157.0H-4.0C-28.0 -157.0 -31.0 -153.0 -31.0 -142.0V-25.0C-11.0 -22.0 -2.0 -14.0 0.0 0.0ZM-342.0 291.0H-499.0C-503.0 240.0 -526.0 108.0 -543.0 46.0L-505.0 84.0C-528.0 76.0 -554.0 58.0 -569.0 42.0L-432.0 -29.0L-384.0 35.0H-391.0C-376.0 99.0 -351.0 233.0 -342.0 291.0ZM-64.0 292.0H-233.0C-237.0 67.0 -237.0 -128.0 -656.0 -295.0L-649.0 -308.0C-111.0 -182.0 -82.0 29.0 -64.0 292.0ZM121.0 160.0 44.0 63.0H-505.0L-497.0 35.0H231.0C246.0 35.0 257.0 40.0 260.0 51.0C208.0 95.0 121.0 160.0 121.0 160.0ZM78.0 397.0 1.0 309.0H-623.0L-615.0 281.0H191.0C206.0 281.0 217.0 286.0 220.0 297.0C165.0 339.0 78.0 397.0 78.0 397.0Z"/></g>
<g fill="black" opacity=".8" transform="translate(400 200) scale(0.1 -0.1)"><path d="M0.0 0.0 -171.0 12.0V-175.0C-171.0 -265.0 -150.0 -288.0 -40.0 -288.0H53.0C210.0 -288.0 261.0 -260.0 261.0 -204.0C261.0 -178.0 254.0 -162.0 218.0 -147.0L216.0 -39.0H206.0C183.0 -94.0 167.0 -129.0 155.0 -144.0C148.0 -153.0 142.0 -156.0 128.0 -156.0C117.0 -157.0 94.0 -157.0 71.0 -157.0H-4.0C-28.0 -157.0 -31.0 -153.0 -31.0 -142.0V-25.0C-11.0 -22.0 -2.0 -14.0 0.0 0.0ZM-342.0 291.0H-499.0C-503.0 240.0 -526.0 108.0 -543.0 46.0L-505.0 84.0C-528.0 76.0 -554.0 58.0 -569.0 42.0L-432.0 -29.0L-384.0 35.0H-391.0C-376.0 99.0 -351.0 233.0 -342.0 291.0ZM-64.0 292.0H-233.0C-237.0 67.0 -237.0 -128.0 -656.0 -295.0L-649.0 -308.0C-111.0 -182.0 -82.0 29.0 -64.0 292.0ZM121.0 160.0 44.0 63.0H-505.0L-497.0 35.0H231.0C246.0 35.0 257.0 40.0 260.0 51.0C208.0 95.0 121.0 160.0 121.0 160.0ZM78.0 397.0 1.0 309.0H-623.0L-615.0 281.0H191.0C206.0 281.0 217.0 286.0 220.0 297.0C165.0 339.0 78.0 397.0 78.0 397.0Z"/></g>
</svg>
