<?xml version="1.0" encoding="UTF-8"?>
<svg width="1700" height="300" xmlns="http://www.w3.org/2000/svg">
<rect width="100%" height="100%" fill="white"/>
<g fill="green" transform="translate(100 100) scale(0.1 -0.1)"><path d="M0.0 0.0V-30.0H385.0C399.0 -30.0 408.0 -25.0 410.0 -14.0C381.0 14.0 335.0 50.0 335.0 50.0L293.0 0.0ZM-3.0 -20.0 -20.0 -48.0C27.0 -323.0 126.0 -556.0 373.0 -691.0C381.0 -670.0 400.0 -660.0 419.0 -659.0L422.0 -649.0C158.0 -531.0 50.0 -292.0 -3.0 -20.0ZM267.0 0.0C227.0 -305.0 97.0 -527.0 -198.0 -674.0L-188.0 -688.0C138.0 -551.0 271.0 -327.0 323.0 0.0ZM46.0 222.0C13.0 40.0 -56.0 -129.0 -137.0 -241.0L-121.0 -250.0C-26.0 -151.0 49.0 6.0 94.0 179.0C117.0 179.0 128.0 189.0 132.0 201.0Z"/></g>
<g fill="green" transform="translate(200 100) scale(0.1 -0.1)"><path d="M0.0 0.0V-28.0H390.0C405.0 -28.0 416.0 -23.0 419.0 -12.0C372.0 30.0 293.0 93.0 293.0 93.0L223.0 0.0ZM5.0 -26.0 -6.0 -46.0C20.0 -371.0 87.0 -599.0 299.0 -712.0C315.0 -642.0 353.0 -601.0 422.0 -583.0L425.0 -573.0C169.0 -488.0 45.0 -321.0 5.0 -26.0ZM185.0 0.0C169.0 -284.0 62.0 -542.0 -238.0 -705.0L-233.0 -714.0C170.0 -595.0 305.0 -325.0 345.0 0.0ZM-8.0 242.0C-24.0 63.0 -75.0 -124.0 -137.0 -247.0L-126.0 -254.0C1.0 -161.0 90.0 -23.0 151.0 172.0C175.0 173.0 187.0 182.0 191.0 196.0Z"/></g>
<g fill="green" transform="translate(300 100) scale(0.1 -0.1)"><path d="M0.0 0.0V-30.0H383.0C397.0 -30.0 406.0 -25.0 408.0 -14.0C379.0 14.0 333.0 50.0 333.0 50.0L292.0 0.0ZM-3.0 -20.0 -20.0 -48.0C27.0 -321.0 125.0 -553.0 371.0 -688.0C379.0 -667.0 398.0 -657.0 417.0 -656.0L420.0 -646.0C157.0 -528.0 50.0 -291.0 -3.0 -20.0ZM266.0 0.0C226.0 -303.0 97.0 -524.0 -197.0 -671.0L-187.0 -685.0C137.0 -548.0 270.0 -325.0 321.0 0.0ZM46.0 221.0C13.0 40.0 -56.0 -128.0 -136.0 -240.0L-120.0 -249.0C-26.0 -150.0 49.0 6.0 94.0 178.0C116.0 178.0 127.0 188.0 131.0 200.0Z"/></g>
<g fill="green" transform="translate(400 100) scale(0.1 -0.1)"><path d="M0.0 0.0V-28.0H388.0C403.0 -28.0 414.0 -23.0 417.0 -12.0C370.0 30.0 292.0 93.0 292.0 93.0L222.0 0.0ZM5.0 -26.0 -6.0 -46.0C20.0 -369.0 87.0 -596.0 297.0 -708.0C313.0 -639.0 351.0 -598.0 420.0 -580.0L423.0 -570.0C168.0 -486.0 45.0 -319.0 5.0 -26.0ZM184.0 0.0C168.0 -283.0 62.0 -539.0 -237.0 -701.0L-232.0 -710.0C169.0 -592.0 304.0 -323.0 343.0 0.0ZM-8.0 241.0C-24.0 63.0 -75.0 -123.0 -136.0 -246.0L-125.0 -253.0C1.0 -160.0 90.0 -23.0 150.0 171.0C174.0 172.0 186.0 181.0 190.0 195.0Z"/></g>
<g fill="green" transform="translate(500 100) scale(0.1 -0.1)"><path d="M0.0 0.0V-30.0H389.0C403.0 -30.0 412.0 -25.0 414.0 -14.0C385.0 13.0 338.0 51.0 338.0 51.0L296.0 0.0ZM0.0 -22.0 -17.0 -51.0C29.0 -322.0 127.0 -553.0 374.0 -686.0C382.0 -665.0 401.0 -655.0 420.0 -654.0L423.0 -645.0C158.0 -528.0 52.0 -293.0 0.0 -22.0ZM252.0 0.0C214.0 -312.0 85.0 -535.0 -217.0 -684.0L-207.0 -699.0C125.0 -559.0 256.0 -334.0 306.0 0.0ZM41.0 209.0C10.0 35.0 -55.0 -128.0 -130.0 -236.0L-114.0 -246.0C-27.0 -149.0 43.0 4.0 84.0 168.0C106.0 168.0 117.0 178.0 121.0 190.0Z"/></g>
<g fill="green" transform="translate(600 100) scale(0.1 -0.1)"><path d="M0.0 0.0V-28.0H393.0C408.0 -28.0 419.0 -23.0 422.0 -12.0C375.0 30.0 296.0 93.0 296.0 93.0L227.0 0.0ZM-2.0 -31.0 -12.0 -50.0C21.0 -360.0 99.0 -590.0 311.0 -713.0C328.0 -644.0 366.0 -602.0 437.0 -585.0L440.0 -575.0C186.0 -485.0 46.0 -313.0 -2.0 -31.0ZM170.0 0.0C154.0 -291.0 49.0 -546.0 -260.0 -706.0L-254.0 -716.0C152.0 -597.0 285.0 -331.0 322.0 0.0ZM-9.0 217.0C-26.0 41.0 -79.0 -140.0 -141.0 -261.0L-130.0 -268.0C-8.0 -176.0 79.0 -40.0 137.0 150.0C161.0 150.0 173.0 159.0 177.0 173.0Z"/></g>
<g fill="red" transform="translate(100 200) scale(0.1 -0.1)"><path d="M0.0 0.0V-30.0H383.0C397.0 -30.0 406.0 -25.0 408.0 -14.0C379.0 14.0 333.0 50.0 333.0 50.0L292.0 0.0ZM-3.0 -20.0 -20.0 -48.0C27.0 -321.0 125.0 -553.0 371.0 -688.0C379.0 -667.0 398.0 -657.0 417.0 -656.0L420.0 -646.0C157.0 -528.0 50.0 -291.0 -3.0 -20.0ZM266.0 0.0C226.0 -303.0 97.0 -524.0 -197.0 -671.0L-187.0 -685.0C137.0 -548.0 270.0 -325.0 321.0 0.0ZM46.0 221.0C13.0 40.0 -56.0 -128.0 -136.0 -240.0L-120.0 -249.0C-26.0 -150.0 49.0 6.0 94.0 178.0C116.0 178.0 127.0 188.0 131.0 200.0Z"/></g>
<g fill="black" opacity=".8" transform="translate(100 200) scale(0.1 -0.1)"><path d="M0.0 0.0V-30.0H383.0C397.0 -30.0 406.0 -25.0 408.0 -14.0C379.0 14.0 333.0 50.0 333.0 50.0L292.0 0.0ZM-3.0 -20.0 -20.0 -48.0C27.0 -321.0 125.0 -553.0 371.0 -688.0C379.0 -667.0 398.0 -657.0 417.0 -656.0L420.0 -646.0C157.0 -528.0 50.0 -291.0 -3.0 -20.0ZM266.0 0.0C226.0 -303.0 97.0 -524.0 -197.0 -671.0L-187.0 -685.0C137.0 -548.0 270.0 -325.0 321.0 0.0ZM46.0 221.0C13.0 40.0 -56.0 -128.0 -136.0 -240.0L-120.0 -249.0C-26.0 -150.0 49.0 6.0 94.0 178.0C116.0 178.0 127.0 188.0 131.0 200.0Z"/></g>
<g fill="red" transform="translate(200 200) scale(0.1 -0.1)"><path d="M0.0 0.0V-28.0H388.0C403.0 -28.0 414.0 -23.0 417.0 -12.0C370.0 30.0 292.0 93.0 292.0 93.0L222.0 0.0ZM5.0 -26.0 -6.0 -46.0C20.0 -369.0 87.0 -596.0 297.0 -708.0C313.0 -639.0 351.0 -598.0 420.0 -580.0L423.0 -570.0C168.0 -486.0 45.0 -319.0 5.0 -26.0ZM184.0 0.0C168.0 -283.0 62.0 -539.0 -237.0 -701.0L-232.0 -710.0C169.0 -592.0 304.0 -323.0 343.0 0.0ZM-8.0 241.0C-24.0 63.0 -75.0 -123.0 -136.0 -246.0L-125.0 -253.0C1.0 -160.0 90.0 -23.0 150.0 171.0C174.0 172.0 186.0 181.0 190.0 195.0Z"/></g>
<g fill="black" opacity=".8" transform="translate(200 200) scale(0.1 -0.1)"><path d="M0.0 0.0V-28.0H388.0C403.0 -28.0 414.0 -23.0 417.0 -12.0C370.0 30.0 292.0 93.0 292.0 93.0L222.0 0.0ZM5.0 -26.0 -6.0 -46.0C20.0 -369.0 87.0 -596.0 297.0 -708.0C313.0 -639.0 351.0 -598.0 420.0 -580.0L423.0 -570.0C168.0 -486.0 45.0 -319.0 5.0 -26.0ZM184.0 0.0C168.0 -283.0 62.0 -539.0 -237.0 -701.0L-232.0 -710.0C169.0 -592.0 304.0 -323.0 343.0 0.0ZM-8.0 241.0C-24.0 63.0 -75.0 -123.0 -136.0 -246.0L-125.0 -253.0C1.0 -160.0 90.0 -23.0 150.0 171.0C174.0 172.0 186.0 181.0 190.0 195.0Z"/></g>
<g fill="red" transform="translate(300 200) scale(0.1 -0.1)"><path d="M0.0 0.0V-30.0H389.0C403.0 -30.0 412.0 -25.0 414.0 -14.0C385.0 13.0 338.0 51.0 338.0 51.0L296.0 0.0ZM0.0 -22.0 -17.0 -51.0C29.0 -322.0 127.0 -553.0 374.0 -686.0C382.0 -665.0 401.0 -655.0 420.0 -654.0L423.0 -645.0C158.0 -528.0 52.0 -293.0 0.0 -22.0ZM252.0 0.0C214.0 -312.0 85.0 -535.0 -217.0 -684.0L-207.0 -699.0C125.0 -559.0 256.0 -334.0 306.0 0.0ZM41.0 209.0C10.0 35.0 -55.0 -128.0 -130.0 -236.0L-114.0 -246.0C-27.0 -149.0 43.0 4.0 84.0 168.0C106.0 168.0 117.0 178.0 121.0 190.0Z"/></g>
<g fill="black" opacity=".8" transform="translate(300 200) scale(0.1 -0.1)"><path d="M0.0 0.0V-30.0H389.0C403.0 -30.0 412.0 -25.0 414.0 -14.0C385.0 13.0 338.0 51.0 338.0 51.0L296.0 0.0ZM0.0 -22.0 -17.0 -51.0C29.0 -322.0 127.0 -553.0 374.0 -686.0C382.0 -665.0 401.0 -655.0 420.0 -654.0L423.0 -645.0C158.0 -528.0 52.0 -293.0 0.0 -22.0ZM252.0 0.0C214.0 -312.0 85.0 -535.0 -217.0 -684.0L-207.0 -699.0C125.0 -559.0 256.0 -334.0 306.0 0.0ZM41.0 209.0C10.0 35.0 -55.0 -128.0 -130.0 -236.0L-114.0 -246.0C-27.0 -149.0 43.0 4.0 84.0 168.0C106.0 168.0 117.0 178.0 121.0 190.0Z"/></g>
<g fill="red" transform="translate(400 200) scale(0.1 -0.1)"><path d="M0.0 0.0V-28.0H393.0C408.0 -28.0 419.0 -23.0 422.0 -12.0C375.0 30.0 296.0 93.0 296.0 93.0L227.0 0.0ZM-2.0 -31.0 -12.0 -50.0C21.0 -360.0 99.0 -590.0 311.0 -713.0C328.0 -644.0 366.0 -602.0 437.0 -585.0L440.0 -575.0C186.0 -485.0 46.0 -313.0 -2.0 -31.0ZM170.0 0.0C154.0 -291.0 49.0 -546.0 -260.0 -706.0L-254.0 -716.0C152.0 -597.0 285.0 -331.0 322.0 0.0ZM-9.0 217.0C-26.0 41.0 -79.0 -140.0 -141.0 -261.0L-130.0 -268.0C-8.0 -176.0 79.0 -40.0 137.0 150.0C161.0 150.0 173.0 159.0 177.0 173.0Z"/></g>
<g fill="black" opacity=".8" transform="translate(400 200) scale(0.1 -0.1)"><path d="M0.0 0.0V-28.0H393.0C408.0 -28.0 419.0 -23.0 422.0 -12.0C375.0 30.0 296.0 93.0 296.0 93.0L227.0 0.0ZM-2.0 -31.0 -12.0 -50.0C21.0 -360.0 99.0 -590.0 311.0 -713.0C328.0 -644.0 366.0 -602.0 437.0 -585.0L440.0 -575.0C186.0 -485.0 46.0 -313.0 -2.0 -31.0ZM170.0 0.0C154.0 -291.0 49.0 -546.0 -260.0 -706.0L-254.0 -716.0C152.0 -597.0 285.0 -331.0 322.0 0.0ZM-9.0 217.0C-26.0 41.0 -79.0 -140.0 -141.0 -261.0L-130.0 -268.0C-8.0 -176.0 79.0 -40.0 137.0 150.0C161.0 150.0 173.0 159.0 177.0 173.0Z"/></g>
</svg>
