<?xml version="1.0" encoding="UTF-8"?>
<svg width="1700" height="300" xmlns="http://www.w3.org/2000/svg">
<rect width="100%" height="100%" fill="white"/>
<g fill="green" transform="translate(100 100) scale(0.1 -0.1)"><path d="M0.0 0.0 -75.0 8.0C-77.0 -104.0 -81.0 -196.0 -260.0 -262.0L-246.0 -278.0C-42.0 -216.0 -36.0 -121.0 -30.0 -24.0C-10.0 -21.0 -2.0 -11.0 0.0 0.0ZM203.0 234.0 122.0 244.0V-288.0H131.0C148.0 -288.0 166.0 -277.0 166.0 -269.0V208.0C191.0 211.0 200.0 220.0 203.0 234.0ZM511.0 139.0 468.0 86.0H-262.0L-253.0 56.0H565.0C578.0 56.0 588.0 61.0 591.0 72.0C560.0 101.0 511.0 139.0 511.0 139.0ZM397.0 -3.0 326.0 7.0V-196.0C326.0 -228.0 335.0 -240.0 388.0 -240.0H456.0C562.0 -240.0 584.0 -234.0 584.0 -215.0C584.0 -204.0 576.0 -202.0 559.0 -197.0H556.0H546.0C542.0 -198.0 535.0 -200.0 530.0 -200.0C527.0 -200.0 523.0 -201.0 517.0 -201.0C509.0 -201.0 485.0 -201.0 459.0 -201.0H396.0C372.0 -201.0 370.0 -198.0 370.0 -186.0V-26.0C386.0 -23.0 396.0 -15.0 397.0 -3.0ZM268.0 226.0 259.0 214.0C305.0 193.0 363.0 151.0 383.0 115.0C436.0 91.0 449.0 198.0 268.0 226.0Z"/></g>
<g fill="green" transform="translate(200 100) scale(0.1 -0.1)"><path d="M0.0 0.0 -173.0 13.0C-175.0 -112.0 -172.0 -215.0 -314.0 -302.0L-306.0 -314.0C-64.0 -249.0 -44.0 -145.0 -32.0 -26.0C-11.0 -23.0 -2.0 -13.0 0.0 0.0ZM228.0 239.0 45.0 255.0V-276.0H71.0C128.0 -276.0 192.0 -251.0 192.0 -240.0V211.0C219.0 215.0 226.0 225.0 228.0 239.0ZM462.0 168.0 394.0 84.0H-314.0L-306.0 56.0H557.0C572.0 56.0 583.0 61.0 586.0 72.0C539.0 112.0 462.0 168.0 462.0 168.0ZM434.0 3.0 274.0 15.0V-160.0C274.0 -239.0 285.0 -263.0 376.0 -263.0H434.0C544.0 -263.0 589.0 -240.0 589.0 -190.0C589.0 -167.0 580.0 -155.0 551.0 -140.0L545.0 -138.0H536.0C528.0 -140.0 516.0 -142.0 509.0 -143.0C503.0 -144.0 489.0 -145.0 482.0 -145.0C475.0 -145.0 462.0 -146.0 453.0 -146.0H420.0C406.0 -146.0 404.0 -142.0 404.0 -132.0V-22.0C424.0 -19.0 432.0 -10.0 434.0 3.0ZM242.0 229.0 235.0 223.0C265.0 198.0 297.0 152.0 307.0 110.0C419.0 49.0 499.0 258.0 242.0 229.0Z"/></g>
<g fill="green" transform="translate(300 100) scale(0.1 -0.1)"><path d="M0.0 0.0 -75.0 8.0C-77.0 -104.0 -81.0 -196.0 -260.0 -262.0L-246.0 -278.0C-42.0 -216.0 -36.0 -121.0 -30.0 -24.0C-10.0 -21.0 -2.0 -11.0 0.0 0.0ZM203.0 234.0 122.0 244.0V-288.0H131.0C148.0 -288.0 166.0 -277.0 166.0 -269.0V208.0C191.0 211.0 200.0 220.0 203.0 234.0ZM511.0 139.0 468.0 86.0H-262.0L-253.0 56.0H565.0C578.0 56.0 588.0 61.0 591.0 72.0C560.0 101.0 511.0 139.0 511.0 139.0ZM397.0 -3.0 326.0 7.0V-196.0C326.0 -228.0 335.0 -240.0 388.0 -240.0H456.0C562.0 -240.0 584.0 -234.0 584.0 -215.0C584.0 -204.0 576.0 -202.0 559.0 -197.0H556.0H546.0C542.0 -198.0 535.0 -200.0 530.0 -200.0C527.0 -200.0 523.0 -201.0 517.0 -201.0C509.0 -201.0 485.0 -201.0 459.0 -201.0H396.0C372.0 -201.0 370.0 -198.0 370.0 -186.0V-26.0C386.0 -23.0 396.0 -15.0 397.0 -3.0ZM268.0 226.0 259.0 214.0C305.0 193.0 363.0 151.0 383.0 115.0C436.0 91.0 449.0 198.0 268.0 226.0Z"/></g>
<g fill="green" transform="translate(400 100) scale(0.1 -0.1)"><path d="M0.0 0.0 -173.0 13.0C-175.0 -112.0 -172.0 -215.0 -314.0 -302.0L-306.0 -314.0C-64.0 -249.0 -44.0 -145.0 -32.0 -26.0C-11.0 -23.0 -2.0 -13.0 0.0 0.0ZM228.0 239.0 45.0 255.0V-276.0H71.0C128.0 -276.0 192.0 -251.0 192.0 -240.0V211.0C219.0 215.0 226.0 225.0 228.0 239.0ZM462.0 168.0 394.0 84.0H-314.0L-306.0 56.0H557.0C572.0 56.0 583.0 61.0 586.0 72.0C539.0 112.0 462.0 168.0 462.0 168.0ZM434.0 3.0 274.0 15.0V-160.0C274.0 -239.0 285.0 -263.0 376.0 -263.0H434.0C544.0 -263.0 589.0 -240.0 589.0 -190.0C589.0 -167.0 580.0 -155.0 551.0 -140.0L545.0 -138.0H536.0C528.0 -140.0 516.0 -142.0 509.0 -143.0C503.0 -144.0 489.0 -145.0 482.0 -145.0C475.0 -145.0 462.0 -146.0 453.0 -146.0H420.0C406.0 -146.0 404.0 -142.0 404.0 -132.0V-22.0C424.0 -19.0 432.0 -10.0 434.0 3.0ZM242.0 229.0 235.0 223.0C265.0 198.0 297.0 152.0 307.0 110.0C419.0 49.0 499.0 258.0 242.0 229.0Z"/></g>
<g fill="red" transform="translate(100 200) scale(0.1 -0.1)"><path d="M0.0 0.0 -75.0 8.0C-77.0 -104.0 -81.0 -196.0 -260.0 -262.0L-246.0 -278.0C-42.0 -216.0 -36.0 -121.0 -30.0 -24.0C-10.0 -21.0 -2.0 -11.0 0.0 0.0ZM203.0 234.0 122.0 244.0V-288.0H131.0C148.0 -288.0 166.0 -277.0 166.0 -269.0V208.0C191.0 211.0 200.0 220.0 203.0 234.0ZM511.0 139.0 468.0 86.0H-262.0L-253.0 56.0H565.0C578.0 56.0 588.0 61.0 591.0 72.0C560.0 101.0 511.0 139.0 511.0 139.0ZM397.0 -3.0 326.0 7.0V-196.0C326.0 -228.0 335.0 -240.0 388.0 -240.0H456.0C562.0 -240.0 584.0 -234.0 584.0 -215.0C584.0 -204.0 576.0 -202.0 559.0 -197.0H556.0H546.0C542.0 -198.0 535.0 -200.0 530.0 -200.0C527.0 -200.0 523.0 -201.0 517.0 -201.0C509.0 -201.0 485.0 -201.0 459.0 -201.0H396.0C372.0 -201.0 370.0 -198.0 370.0 -186.0V-26.0C386.0 -23.0 396.0 -15.0 397.0 -3.0ZM268.0 226.0 259.0 214.0C305.0 193.0 363.0 151.0 383.0 115.0C436.0 91.0 449.0 198.0 268.0 226.0Z"/></g>
<g fill="black" opacity=".8" transform="translate(100 200) scale(0.1 -0.1)"><path d="M0.0 0.0 -75.0 8.0C-77.0 -104.0 -81.0 -196.0 -260.0 -262.0L-246.0 -278.0C-42.0 -216.0 -36.0 -121.0 -30.0 -24.0C-10.0 -21.0 -2.0 -11.0 0.0 0.0ZM203.0 234.0 122.0 244.0V-288.0H131.0C148.0 -288.0 166.0 -277.0 166.0 -269.0V208.0C191.0 211.0 200.0 220.0 203.0 234.0ZM511.0 139.0 468.0 86.0H-262.0L-253.0 56.0H565.0C578.0 56.0 588.0 61.0 591.0 72.0C560.0 101.0 511.0 139.0 511.0 139.0ZM397.0 -3.0 326.0 7.0V-196.0C326.0 -228.0 335.0 -240.0 388.0 -240.0H456.0C562.0 -240.0 584.0 -234.0 584.0 -215.0C584.0 -204.0 576.0 -202.0 559.0 -197.0H556.0H546.0C542.0 -198.0 535.0 -200.0 530.0 -200.0C527.0 -200.0 523.0 -201.0 517.0 -201.0C509.0 -201.0 485.0 -201.0 459.0 -201.0H396.0C372.0 -201.0 370.0 -198.0 370.0 -186.0V-26.0C386.0 -23.0 396.0 -15.0 397.0 -3.0ZM268.0 226.0 259.0 214.0C305.0 193.0 363.0 151.0 383.0 115.0C436.0 91.0 449.0 198.0 268.0 226.0Z"/></g>
<g fill="red" transform="translate(200 200) scale(0.1 -0.1)"><path d="M0.0 0.0 -173.0 13.0C-175.0 -112.0 -172.0 -215.0 -314.0 -302.0L-306.0 -314.0C-64.0 -249.0 -44.0 -145.0 -32.0 -26.0C-11.0 -23.0 -2.0 -13.0 0.0 0.0ZM228.0 239.0 45.0 255.0V-276.0H71.0C128.0 -276.0 192.0 -251.0 192.0 -240.0V211.0C219.0 215.0 226.0 225.0 228.0 239.0ZM462.0 168.0 394.0 84.0H-314.0L-306.0 56.0H557.0C572.0 56.0 583.0 61.0 586.0 72.0C539.0 112.0 462.0 168.0 462.0 168.0ZM434.0 3.0 274.0 15.0V-160.0C274.0 -239.0 285.0 -263.0 376.0 -263.0H434.0C544.0 -263.0 589.0 -240.0 589.0 -190.0C589.0 -167.0 580.0 -155.0 551.0 -140.0L545.0 -138.0H536.0C528.0 -140.0 516.0 -142.0 509.0 -143.0C503.0 -144.0 489.0 -145.0 482.0 -145.0C475.0 -145.0 462.0 -146.0 453.0 -146.0H420.0C406.0 -146.0 404.0 -142.0 404.0 -132.0V-22.0C424.0 -19.0 432.0 -10.0 434.0 3.0ZM242.0 229.0 235.0 223.0C265.0 198.0 297.0 152.0 307.0 110.0C419.0 49.0 499.0 258.0 242.0 229.0Z"/></g>
<g fill="black" opacity=".8" transform="translate(200 200) scale(0.1 -0.1)"><path d="M0.0 0.0 -173.0 13.0C-175.0 -112.0 -172.0 -215.0 -314.0 -302.0L-306.0 -314.0C-64.0 -249.0 -44.0 -145.0 -32.0 -26.0C-11.0 -23.0 -2.0 -13.0 0.0 0.0ZM228.0 239.0 45.0 255.0V-276.0H71.0C128.0 -276.0 192.0 -251.0 192.0 -240.0V211.0C219.0 215.0 226.0 225.0 228.0 239.0ZM462.0 168.0 394.0 84.0H-314.0L-306.0 56.0H557.0C572.0 56.0 583.0 61.0 586.0 72.0C539.0 112.0 462.0 168.0 462.0 168.0ZM434.0 3.0 274.0 15.0V-160.0C274.0 -239.0 285.0 -263.0 376.0 -263.0H434.0C544.0 -263.0 589.0 -240.0 589.0 -190.0C589.0 -167.0 580.0 -155.0 551.0 -140.0L545.0 -138.0H536.0C528.0 -140.0 516.0 -142.0 509.0 -143.0C503.0 -144.0 489.0 -145.0 482.0 -145.0C475.0 -145.0 462.0 -146.0 453.0 -146.0H420.0C406.0 -146.0 404.0 -142.0 404.0 -132.0V-22.0C424.0 -19.0 432.0 -10.0 434.0 3.0ZM242.0 229.0 235.0 223.0C265.0 198.0 297.0 152.0 307.0 110.0C419.0 49.0 499.0 258.0 242.0 229.0Z"/></g>
</svg>
