<?xml version="1.0" encoding="UTF-8"?>
<svg width="1700" height="300" xmlns="http://www.w3.org/2000/svg">
<rect width="100%" height="100%" fill="white"/>
<g fill="green" transform="translate(100 100) scale(0.1 -0.1)"><path d="M0.0 0.0 -12.0 -8.0C20.0 -35.0 56.0 -84.0 64.0 -121.0C111.0 -154.0 148.0 -55.0 0.0 0.0ZM170.0 -255.0H181.0C171.0 -397.0 150.0 -495.0 126.0 -516.0C116.0 -524.0 107.0 -526.0 89.0 -526.0C69.0 -526.0 -2.0 -520.0 -42.0 -516.0L-43.0 -535.0C-8.0 -539.0 32.0 -547.0 45.0 -555.0C59.0 -563.0 63.0 -577.0 63.0 -591.0C97.0 -591.0 132.0 -581.0 154.0 -562.0C191.0 -532.0 216.0 -432.0 226.0 -288.0C246.0 -287.0 259.0 -283.0 265.0 -275.0L201.0 -222.0ZM11.0 -131.0H-40.0C-47.0 -327.0 -84.0 -464.0 -228.0 -579.0L-218.0 -594.0C-53.0 -489.0 -4.0 -349.0 11.0 -131.0ZM215.0 -255.0H-22.0L-31.0 -285.0H215.0ZM230.0 -87.0 192.0 -131.0H-165.0L-157.0 -161.0H276.0C290.0 -161.0 299.0 -156.0 302.0 -145.0C273.0 -119.0 230.0 -87.0 230.0 -87.0ZM161.0 263.0H117.0V29.0H161.0ZM51.0 263.0H7.0V29.0H51.0ZM240.0 43.0H-87.0V13.0H240.0ZM-110.0 289.0V-32.0H-104.0C-81.0 -32.0 -67.0 -20.0 -67.0 -15.0V233.0H222.0V-19.0H228.0C247.0 -19.0 265.0 -6.0 265.0 -2.0V230.0C284.0 233.0 295.0 239.0 301.0 246.0L243.0 292.0L219.0 263.0H-55.0ZM-242.0 25.0 -255.0 19.0C-228.0 -17.0 -194.0 -76.0 -185.0 -120.0C-137.0 -157.0 -92.0 -59.0 -242.0 25.0ZM-200.0 317.0 -279.0 326.0V-588.0H-269.0C-254.0 -588.0 -235.0 -576.0 -235.0 -567.0V289.0C-210.0 293.0 -202.0 302.0 -200.0 317.0ZM-237.0 76.0V92.0H-283.0C-307.0 -78.0 -352.0 -248.0 -432.0 -383.0L-415.0 -396.0C-319.0 -262.0 -265.0 -100.0 -237.0 76.0ZM-167.0 132.0 -201.0 92.0H-396.0L-388.0 62.0H-130.0C-117.0 62.0 -108.0 67.0 -105.0 78.0C-130.0 102.0 -167.0 132.0 -167.0 132.0Z"/></g>
<g fill="green" transform="translate(200 100) scale(0.1 -0.1)"><path d="M0.0 0.0 -7.0 -6.0C17.0 -29.0 37.0 -72.0 36.0 -111.0C138.0 -187.0 247.0 7.0 0.0 0.0ZM142.0 -248.0H152.0C147.0 -385.0 138.0 -457.0 120.0 -472.0C114.0 -478.0 107.0 -479.0 93.0 -479.0C74.0 -479.0 20.0 -476.0 -13.0 -474.0L-14.0 -487.0C22.0 -494.0 50.0 -507.0 65.0 -522.0C79.0 -538.0 82.0 -564.0 82.0 -595.0C134.0 -595.0 169.0 -585.0 197.0 -565.0C240.0 -534.0 255.0 -460.0 262.0 -294.0C282.0 -291.0 294.0 -285.0 301.0 -277.0L199.0 -193.0ZM67.0 -129.0H-55.0C-52.0 -311.0 -66.0 -465.0 -198.0 -586.0L-192.0 -598.0C8.0 -502.0 59.0 -342.0 67.0 -129.0ZM209.0 -248.0H19.0L5.0 -276.0H209.0ZM233.0 -52.0 177.0 -129.0H-115.0L-107.0 -157.0H306.0C320.0 -157.0 330.0 -152.0 333.0 -141.0C296.0 -105.0 233.0 -52.0 233.0 -52.0ZM166.0 269.0H98.0V9.0H166.0ZM70.0 269.0H1.0V9.0H70.0ZM257.0 28.0H-70.0V0.0H257.0ZM-128.0 312.0V-49.0H-111.0C-61.0 -49.0 -30.0 -31.0 -30.0 -24.0V241.0H195.0V-39.0H213.0C264.0 -39.0 297.0 -20.0 297.0 -16.0V234.0C318.0 237.0 328.0 243.0 334.0 252.0L239.0 324.0L191.0 269.0H-19.0ZM-211.0 14.0 -224.0 10.0C-206.0 -33.0 -190.0 -98.0 -193.0 -151.0C-133.0 -215.0 -49.0 -86.0 -211.0 14.0ZM-170.0 336.0 -302.0 350.0V-603.0H-283.0C-248.0 -603.0 -207.0 -581.0 -207.0 -569.0V308.0C-181.0 312.0 -173.0 322.0 -170.0 336.0ZM-207.0 82.0V98.0H-308.0C-318.0 -75.0 -338.0 -263.0 -388.0 -406.0L-373.0 -416.0C-279.0 -276.0 -228.0 -108.0 -207.0 82.0ZM-174.0 161.0 -214.0 98.0H-366.0L-358.0 70.0H-128.0C-115.0 70.0 -105.0 75.0 -103.0 86.0C-128.0 116.0 -174.0 161.0 -174.0 161.0Z"/></g>
<g fill="green" transform="translate(300 100) scale(0.1 -0.1)"><path d="M0.0 0.0 -12.0 -8.0C20.0 -35.0 56.0 -84.0 64.0 -121.0C111.0 -154.0 148.0 -55.0 0.0 0.0ZM170.0 -255.0H181.0C171.0 -397.0 150.0 -495.0 126.0 -516.0C116.0 -524.0 107.0 -526.0 89.0 -526.0C69.0 -526.0 -2.0 -520.0 -42.0 -516.0L-43.0 -535.0C-8.0 -539.0 32.0 -547.0 45.0 -555.0C59.0 -563.0 63.0 -577.0 63.0 -591.0C97.0 -591.0 132.0 -581.0 154.0 -562.0C191.0 -532.0 216.0 -432.0 226.0 -288.0C246.0 -287.0 259.0 -283.0 265.0 -275.0L201.0 -222.0ZM11.0 -131.0H-40.0C-47.0 -327.0 -84.0 -464.0 -228.0 -579.0L-218.0 -594.0C-53.0 -489.0 -4.0 -349.0 11.0 -131.0ZM215.0 -255.0H-22.0L-31.0 -285.0H215.0ZM230.0 -87.0 192.0 -131.0H-165.0L-157.0 -161.0H276.0C290.0 -161.0 299.0 -156.0 302.0 -145.0C273.0 -119.0 230.0 -87.0 230.0 -87.0ZM161.0 263.0H117.0V29.0H161.0ZM51.0 263.0H7.0V29.0H51.0ZM240.0 43.0H-87.0V13.0H240.0ZM-110.0 289.0V-32.0H-104.0C-81.0 -32.0 -67.0 -20.0 -67.0 -15.0V233.0H222.0V-19.0H228.0C247.0 -19.0 265.0 -6.0 265.0 -2.0V230.0C284.0 233.0 295.0 239.0 301.0 246.0L243.0 292.0L219.0 263.0H-55.0ZM-242.0 25.0 -255.0 19.0C-228.0 -17.0 -194.0 -76.0 -185.0 -120.0C-137.0 -157.0 -92.0 -59.0 -242.0 25.0ZM-200.0 317.0 -279.0 326.0V-588.0H-269.0C-254.0 -588.0 -235.0 -576.0 -235.0 -567.0V289.0C-210.0 293.0 -202.0 302.0 -200.0 317.0ZM-237.0 76.0V92.0H-283.0C-307.0 -78.0 -352.0 -248.0 -432.0 -383.0L-415.0 -396.0C-319.0 -262.0 -265.0 -100.0 -237.0 76.0ZM-167.0 132.0 -201.0 92.0H-396.0L-388.0 62.0H-130.0C-117.0 62.0 -108.0 67.0 -105.0 78.0C-130.0 102.0 -167.0 132.0 -167.0 132.0Z"/></g>
<g fill="green" transform="translate(400 100) scale(0.1 -0.1)"><path d="M0.0 0.0 -7.0 -6.0C17.0 -29.0 37.0 -72.0 36.0 -111.0C138.0 -187.0 247.0 7.0 0.0 0.0ZM142.0 -248.0H152.0C147.0 -385.0 138.0 -457.0 120.0 -472.0C114.0 -478.0 107.0 -479.0 93.0 -479.0C74.0 -479.0 20.0 -476.0 -13.0 -474.0L-14.0 -487.0C22.0 -494.0 50.0 -507.0 65.0 -522.0C79.0 -538.0 82.0 -564.0 82.0 -595.0C134.0 -595.0 169.0 -585.0 197.0 -565.0C240.0 -534.0 255.0 -460.0 262.0 -294.0C282.0 -291.0 294.0 -285.0 301.0 -277.0L199.0 -193.0ZM67.0 -129.0H-55.0C-52.0 -311.0 -66.0 -465.0 -198.0 -586.0L-192.0 -598.0C8.0 -502.0 59.0 -342.0 67.0 -129.0ZM209.0 -248.0H19.0L5.0 -276.0H209.0ZM233.0 -52.0 177.0 -129.0H-115.0L-107.0 -157.0H306.0C320.0 -157.0 330.0 -152.0 333.0 -141.0C296.0 -105.0 233.0 -52.0 233.0 -52.0ZM166.0 269.0H98.0V9.0H166.0ZM70.0 269.0H1.0V9.0H70.0ZM257.0 28.0H-70.0V0.0H257.0ZM-128.0 312.0V-49.0H-111.0C-61.0 -49.0 -30.0 -31.0 -30.0 -24.0V241.0H195.0V-39.0H213.0C264.0 -39.0 297.0 -20.0 297.0 -16.0V234.0C318.0 237.0 328.0 243.0 334.0 252.0L239.0 324.0L191.0 269.0H-19.0ZM-211.0 14.0 -224.0 10.0C-206.0 -33.0 -190.0 -98.0 -193.0 -151.0C-133.0 -215.0 -49.0 -86.0 -211.0 14.0ZM-170.0 336.0 -302.0 350.0V-603.0H-283.0C-248.0 -603.0 -207.0 -581.0 -207.0 -569.0V308.0C-181.0 312.0 -173.0 322.0 -170.0 336.0ZM-207.0 82.0V98.0H-308.0C-318.0 -75.0 -338.0 -263.0 -388.0 -406.0L-373.0 -416.0C-279.0 -276.0 -228.0 -108.0 -207.0 82.0ZM-174.0 161.0 -214.0 98.0H-366.0L-358.0 70.0H-128.0C-115.0 70.0 -105.0 75.0 -103.0 86.0C-128.0 116.0 -174.0 161.0 -174.0 161.0Z"/></g>
<g fill="red" transform="translate(100 200) scale(0.1 -0.1)"><path d="M0.0 0.0 -12.0 -8.0C20.0 -35.0 56.0 -84.0 64.0 -121.0C111.0 -154.0 148.0 -55.0 0.0 0.0ZM170.0 -255.0H181.0C171.0 -397.0 150.0 -495.0 126.0 -516.0C116.0 -524.0 107.0 -526.0 89.0 -526.0C69.0 -526.0 -2.0 -520.0 -42.0 -516.0L-43.0 -535.0C-8.0 -539.0 32.0 -547.0 45.0 -555.0C59.0 -563.0 63.0 -577.0 63.0 -591.0C97.0 -591.0 132.0 -581.0 154.0 -562.0C191.0 -532.0 216.0 -432.0 226.0 -288.0C246.0 -287.0 259.0 -283.0 265.0 -275.0L201.0 -222.0ZM11.0 -131.0H-40.0C-47.0 -327.0 -84.0 -464.0 -228.0 -579.0L-218.0 -594.0C-53.0 -489.0 -4.0 -349.0 11.0 -131.0ZM215.0 -255.0H-22.0L-31.0 -285.0H215.0ZM230.0 -87.0 192.0 -131.0H-165.0L-157.0 -161.0H276.0C290.0 -161.0 299.0 -156.0 302.0 -145.0C273.0 -119.0 230.0 -87.0 230.0 -87.0ZM161.0 263.0H117.0V29.0H161.0ZM51.0 263.0H7.0V29.0H51.0ZM240.0 43.0H-87.0V13.0H240.0ZM-110.0 289.0V-32.0H-104.0C-81.0 -32.0 -67.0 -20.0 -67.0 -15.0V233.0H222.0V-19.0H228.0C247.0 -19.0 265.0 -6.0 265.0 -2.0V230.0C284.0 233.0 295.0 239.0 301.0 246.0L243.0 292.0L219.0 263.0H-55.0ZM-242.0 25.0 -255.0 19.0C-228.0 -17.0 -194.0 -76.0 -185.0 -120.0C-137.0 -157.0 -92.0 -59.0 -242.0 25.0ZM-200.0 317.0 -279.0 326.0V-588.0H-269.0C-254.0 -588.0 -235.0 -576.0 -235.0 -567.0V289.0C-210.0 293.0 -202.0 302.0 -200.0 317.0ZM-237.0 76.0V92.0H-283.0C-307.0 -78.0 -352.0 -248.0 -432.0 -383.0L-415.0 -396.0C-319.0 -262.0 -265.0 -100.0 -237.0 76.0ZM-167.0 132.0 -201.0 92.0H-396.0L-388.0 62.0H-130.0C-117.0 62.0 -108.0 67.0 -105.0 78.0C-130.0 102.0 -167.0 132.0 -167.0 132.0Z"/></g>
<g fill="black" opacity=".8" transform="translate(100 200) scale(0.1 -0.1)"><path d="M0.0 0.0 -12.0 -8.0C20.0 -35.0 56.0 -84.0 64.0 -121.0C111.0 -154.0 148.0 -55.0 0.0 0.0ZM170.0 -255.0H181.0C171.0 -397.0 150.0 -495.0 126.0 -516.0C116.0 -524.0 107.0 -526.0 89.0 -526.0C69.0 -526.0 -2.0 -520.0 -42.0 -516.0L-43.0 -535.0C-8.0 -539.0 32.0 -547.0 45.0 -555.0C59.0 -563.0 63.0 -577.0 63.0 -591.0C97.0 -591.0 132.0 -581.0 154.0 -562.0C191.0 -532.0 216.0 -432.0 226.0 -288.0C246.0 -287.0 259.0 -283.0 265.0 -275.0L201.0 -222.0ZM11.0 -131.0H-40.0C-47.0 -327.0 -84.0 -464.0 -228.0 -579.0L-218.0 -594.0C-53.0 -489.0 -4.0 -349.0 11.0 -131.0ZM215.0 -255.0H-22.0L-31.0 -285.0H215.0ZM230.0 -87.0 192.0 -131.0H-165.0L-157.0 -161.0H276.0C290.0 -161.0 299.0 -156.0 302.0 -145.0C273.0 -119.0 230.0 -87.0 230.0 -87.0ZM161.0 263.0H117.0V29.0H161.0ZM51.0 263.0H7.0V29.0H51.0ZM240.0 43.0H-87.0V13.0H240.0ZM-110.0 289.0V-32.0H-104.0C-81.0 -32.0 -67.0 -20.0 -67.0 -15.0V233.0H222.0V-19.0H228.0C247.0 -19.0 265.0 -6.0 265.0 -2.0V230.0C284.0 233.0 295.0 239.0 301.0 246.0L243.0 292.0L219.0 263.0H-55.0ZM-242.0 25.0 -255.0 19.0C-228.0 -17.0 -194.0 -76.0 -185.0 -120.0C-137.0 -157.0 -92.0 -59.0 -242.0 25.0ZM-200.0 317.0 -279.0 326.0V-588.0H-269.0C-254.0 -588.0 -235.0 -576.0 -235.0 -567.0V289.0C-210.0 293.0 -202.0 302.0 -200.0 317.0ZM-237.0 76.0V92.0H-283.0C-307.0 -78.0 -352.0 -248.0 -432.0 -383.0L-415.0 -396.0C-319.0 -262.0 -265.0 -100.0 -237.0 76.0ZM-167.0 132.0 -201.0 92.0H-396.0L-388.0 62.0H-130.0C-117.0 62.0 -108.0 67.0 -105.0 78.0C-130.0 102.0 -167.0 132.0 -167.0 132.0Z"/></g>
<g fill="red" transform="translate(200 200) scale(0.1 -0.1)"><path d="M0.0 0.0 -7.0 -6.0C17.0 -29.0 37.0 -72.0 36.0 -111.0C138.0 -187.0 247.0 7.0 0.0 0.0ZM142.0 -248.0H152.0C147.0 -385.0 138.0 -457.0 120.0 -472.0C114.0 -478.0 107.0 -479.0 93.0 -479.0C74.0 -479.0 20.0 -476.0 -13.0 -474.0L-14.0 -487.0C22.0 -494.0 50.0 -507.0 65.0 -522.0C79.0 -538.0 82.0 -564.0 82.0 -595.0C134.0 -595.0 169.0 -585.0 197.0 -565.0C240.0 -534.0 255.0 -460.0 262.0 -294.0C282.0 -291.0 294.0 -285.0 301.0 -277.0L199.0 -193.0ZM67.0 -129.0H-55.0C-52.0 -311.0 -66.0 -465.0 -198.0 -586.0L-192.0 -598.0C8.0 -502.0 59.0 -342.0 67.0 -129.0ZM209.0 -248.0H19.0L5.0 -276.0H209.0ZM233.0 -52.0 177.0 -129.0H-115.0L-107.0 -157.0H306.0C320.0 -157.0 330.0 -152.0 333.0 -141.0C296.0 -105.0 233.0 -52.0 233.0 -52.0ZM166.0 269.0H98.0V9.0H166.0ZM70.0 269.0H1.0V9.0H70.0ZM257.0 28.0H-70.0V0.0H257.0ZM-128.0 312.0V-49.0H-111.0C-61.0 -49.0 -30.0 -31.0 -30.0 -24.0V241.0H195.0V-39.0H213.0C264.0 -39.0 297.0 -20.0 297.0 -16.0V234.0C318.0 237.0 328.0 243.0 334.0 252.0L239.0 324.0L191.0 269.0H-19.0ZM-211.0 14.0 -224.0 10.0C-206.0 -33.0 -190.0 -98.0 -193.0 -151.0C-133.0 -215.0 -49.0 -86.0 -211.0 14.0ZM-170.0 336.0 -302.0 350.0V-603.0H-283.0C-248.0 -603.0 -207.0 -581.0 -207.0 -569.0V308.0C-181.0 312.0 -173.0 322.0 -170.0 336.0ZM-207.0 82.0V98.0H-308.0C-318.0 -75.0 -338.0 -263.0 -388.0 -406.0L-373.0 -416.0C-279.0 -276.0 -228.0 -108.0 -207.0 82.0ZM-174.0 161.0 -214.0 98.0H-366.0L-358.0 70.0H-128.0C-115.0 70.0 -105.0 75.0 -103.0 86.0C-128.0 116.0 -174.0 161.0 -174.0 161.0Z"/></g>
<g fill="black" opacity=".8" transform="translate(200 200) scale(0.1 -0.1)"><path d="M0.0 0.0 -7.0 -6.0C17.0 -29.0 37.0 -72.0 36.0 -111.0C138.0 -187.0 247.0 7.0 0.0 0.0ZM142.0 -248.0H152.0C147.0 -385.0 138.0 -457.0 120.0 -472.0C114.0 -478.0 107.0 -479.0 93.0 -479.0C74.0 -479.0 20.0 -476.0 -13.0 -474.0L-14.0 -487.0C22.0 -494.0 50.0 -507.0 65.0 -522.0C79.0 -538.0 82.0 -564.0 82.0 -595.0C134.0 -595.0 169.0 -585.0 197.0 -565.0C240.0 -534.0 255.0 -460.0 262.0 -294.0C282.0 -291.0 294.0 -285.0 301.0 -277.0L199.0 -193.0ZM67.0 -129.0H-55.0C-52.0 -311.0 -66.0 -465.0 -198.0 -586.0L-192.0 -598.0C8.0 -502.0 59.0 -342.0 67.0 -129.0ZM209.0 -248.0H19.0L5.0 -276.0H209.0ZM233.0 -52.0 177.0 -129.0H-115.0L-107.0 -157.0H306.0C320.0 -157.0 330.0 -152.0 333.0 -141.0C296.0 -105.0 233.0 -52.0 233.0 -52.0ZM166.0 269.0H98.0V9.0H166.0ZM70.0 269.0H1.0V9.0H70.0ZM257.0 28.0H-70.0V0.0H257.0ZM-128.0 312.0V-49.0H-111.0C-61.0 -49.0 -30.0 -31.0 -30.0 -24.0V241.0H195.0V-39.0H213.0C264.0 -39.0 297.0 -20.0 297.0 -16.0V234.0C318.0 237.0 328.0 243.0 334.0 252.0L239.0 324.0L191.0 269.0H-19.0ZM-211.0 14.0 -224.0 10.0C-206.0 -33.0 -190.0 -98.0 -193.0 -151.0C-133.0 -215.0 -49.0 -86.0 -211.0 14.0ZM-170.0 336.0 -302.0 350.0V-603.0H-283.0C-248.0 -603.0 -207.0 -581.0 -207.0 -569.0V308.0C-181.0 312.0 -173.0 322.0 -170.0 336.0ZM-207.0 82.0V98.0H-308.0C-318.0 -75.0 -338.0 -263.0 -388.0 -406.0L-373.0 -416.0C-279.0 -276.0 -228.0 -108.0 -207.0 82.0ZM-174.0 161.0 -214.0 98.0H-366.0L-358.0 70.0H-128.0C-115.0 70.0 -105.0 75.0 -103.0 86.0C-128.0 116.0 -174.0 161.0 -174.0 161.0Z"/></g>
</svg>
