<?xml version="1.0" encoding="UTF-8"?>
<svg width="1700" height="300" xmlns="http://www.w3.org/2000/svg">
<rect width="100%" height="100%" fill="white"/>
<g fill="green" transform="translate(100 100) scale(0.1 -0.1)"><path d="M0.0 0.0V-29.0H284.0V0.0H0.0ZM-5.0 -140.0V-169.0H274.0V-140.0H-5.0ZM-28.0 0.0V-296.0C-28.0 -483.0 -37.0 -677.0 -132.0 -832.0L-115.0 -843.0C9.0 -688.0 16.0 -469.0 16.0 -295.0V0.0H27.0L-28.0 28.0V10.0V0.0ZM-6.0 -338.0 2.0 -367.0H311.0C325.0 -367.0 334.0 -362.0 336.0 -351.0C312.0 -327.0 273.0 -296.0 273.0 -296.0L240.0 -338.0H-6.0ZM-20.0 -545.0 -12.0 -575.0H330.0C343.0 -575.0 352.0 -570.0 354.0 -559.0C331.0 -535.0 292.0 -504.0 292.0 -504.0L259.0 -545.0H-20.0ZM73.0 -218.0V-555.0H116.0V-253.0C138.0 -249.0 146.0 -240.0 148.0 -227.0L73.0 -218.0ZM192.0 -218.0V-555.0H235.0V-253.0C257.0 -249.0 266.0 -240.0 268.0 -227.0L192.0 -218.0ZM252.0 0.0V-207.0H258.0C272.0 -207.0 295.0 -198.0 296.0 -193.0V-31.0C309.0 -28.0 321.0 -22.0 326.0 -16.0L271.0 26.0L245.0 0.0H252.0ZM187.0 -611.0 176.0 -619.0C211.0 -648.0 253.0 -698.0 262.0 -739.0C317.0 -776.0 355.0 -660.0 187.0 -611.0ZM79.0 -609.0C60.0 -678.0 14.0 -771.0 -44.0 -829.0L-33.0 -843.0C39.0 -794.0 95.0 -716.0 125.0 -655.0C148.0 -658.0 155.0 -653.0 161.0 -642.0L79.0 -609.0ZM290.0 -375.0 299.0 -404.0H603.0V-375.0H290.0ZM559.0 -375.0C520.0 -586.0 419.0 -739.0 190.0 -827.0L198.0 -844.0C451.0 -765.0 551.0 -612.0 603.0 -409.0C625.0 -408.0 635.0 -405.0 643.0 -398.0L584.0 -342.0L549.0 -375.0H559.0ZM384.0 -376.0 364.0 -384.0C394.0 -607.0 466.0 -754.0 628.0 -841.0C638.0 -817.0 655.0 -803.0 677.0 -801.0L680.0 -792.0C507.0 -722.0 416.0 -582.0 384.0 -376.0ZM386.0 9.0V-20.0H557.0V9.0H386.0ZM367.0 9.0V-87.0C367.0 -162.0 362.0 -234.0 299.0 -296.0L311.0 -311.0C404.0 -250.0 411.0 -159.0 411.0 -86.0V9.0H421.0L367.0 37.0V19.0V9.0ZM516.0 9.0V-252.0C516.0 -280.0 524.0 -293.0 561.0 -293.0H596.0C659.0 -293.0 676.0 -284.0 676.0 -266.0C676.0 -257.0 674.0 -252.0 659.0 -246.0L656.0 -132.0H642.0C636.0 -177.0 627.0 -231.0 623.0 -244.0C621.0 -252.0 618.0 -253.0 613.0 -253.0C610.0 -254.0 602.0 -254.0 595.0 -254.0H571.0C561.0 -254.0 558.0 -252.0 558.0 -242.0V-29.0C577.0 -26.0 587.0 -21.0 592.0 -15.0L535.0 38.0L508.0 9.0H516.0Z"/></g>
<g fill="green" transform="translate(200 100) scale(0.1 -0.1)"><path d="M0.0 0.0V-28.0H208.0V0.0H0.0ZM-7.0 -158.0V-186.0H201.0V-158.0H-7.0ZM-73.0 0.0V-306.0C-73.0 -493.0 -69.0 -707.0 -124.0 -875.0L-111.0 -882.0C34.0 -718.0 35.0 -483.0 35.0 -305.0V0.0H52.0L-73.0 45.0V10.0V0.0ZM-6.0 -375.0 1.0 -403.0H320.0C333.0 -403.0 342.0 -398.0 345.0 -387.0C322.0 -354.0 275.0 -301.0 275.0 -301.0L235.0 -375.0H-6.0ZM-4.0 -571.0 4.0 -599.0H327.0C341.0 -599.0 350.0 -594.0 353.0 -583.0C327.0 -548.0 276.0 -494.0 276.0 -494.0L232.0 -571.0H-4.0ZM57.0 -245.0V-592.0H136.0V-274.0C150.0 -271.0 156.0 -264.0 157.0 -255.0L57.0 -245.0ZM165.0 -245.0V-592.0H247.0V-274.0C261.0 -271.0 266.0 -264.0 267.0 -255.0L165.0 -245.0ZM156.0 0.0V-228.0H177.0C216.0 -228.0 277.0 -207.0 278.0 -200.0V-43.0C295.0 -40.0 306.0 -32.0 311.0 -26.0L200.0 56.0L147.0 0.0H156.0ZM177.0 -619.0 168.0 -624.0C188.0 -661.0 209.0 -716.0 212.0 -766.0C304.0 -845.0 418.0 -671.0 177.0 -619.0ZM51.0 -616.0C39.0 -694.0 4.0 -804.0 -50.0 -874.0L-42.0 -885.0C47.0 -840.0 114.0 -764.0 155.0 -693.0C179.0 -695.0 187.0 -688.0 192.0 -678.0L51.0 -616.0ZM283.0 -371.0 292.0 -399.0H524.0V-371.0H283.0ZM468.0 -371.0C449.0 -586.0 385.0 -768.0 186.0 -873.0L193.0 -886.0C462.0 -802.0 553.0 -629.0 591.0 -418.0C613.0 -415.0 622.0 -411.0 628.0 -401.0L518.0 -307.0L457.0 -371.0H468.0ZM351.0 -373.0 338.0 -378.0C356.0 -664.0 409.0 -781.0 542.0 -882.0C562.0 -818.0 603.0 -778.0 656.0 -767.0L658.0 -756.0C501.0 -696.0 385.0 -608.0 351.0 -373.0ZM340.0 -3.0V-31.0H514.0V-3.0H340.0ZM316.0 -3.0V-80.0C316.0 -156.0 318.0 -250.0 279.0 -326.0L288.0 -337.0C405.0 -268.0 418.0 -152.0 418.0 -80.0V-3.0H435.0L316.0 53.0V7.0V-3.0ZM453.0 -3.0V-222.0C453.0 -285.0 459.0 -308.0 525.0 -308.0H553.0C619.0 -308.0 655.0 -284.0 655.0 -245.0C655.0 -225.0 652.0 -213.0 629.0 -201.0L626.0 -99.0H615.0C601.0 -144.0 588.0 -185.0 581.0 -197.0C577.0 -205.0 573.0 -206.0 568.0 -206.0C567.0 -206.0 567.0 -206.0 566.0 -206.0C560.0 -206.0 559.0 -203.0 559.0 -194.0V-40.0C575.0 -37.0 584.0 -32.0 590.0 -25.0L495.0 54.0L443.0 -3.0H453.0Z"/></g>
<g fill="green" transform="translate(300 100) scale(0.1 -0.1)"><path d="M0.0 0.0V-26.0H249.0V0.0H0.0ZM-5.0 -127.0V-152.0H240.0V-127.0H-5.0ZM-25.0 0.0V-271.0C-25.0 -442.0 -34.0 -618.0 -119.0 -759.0L-104.0 -769.0C7.0 -628.0 13.0 -429.0 13.0 -271.0V0.0H23.0L-25.0 25.0V9.0V0.0ZM-8.0 -307.0 -1.0 -333.0H273.0C285.0 -333.0 293.0 -328.0 295.0 -318.0C274.0 -297.0 239.0 -269.0 239.0 -269.0L210.0 -307.0H-8.0ZM-20.0 -497.0 -13.0 -523.0H289.0C301.0 -523.0 309.0 -519.0 311.0 -509.0C290.0 -488.0 256.0 -460.0 256.0 -460.0L227.0 -497.0H-20.0ZM63.0 -198.0V-505.0H101.0V-229.0C121.0 -225.0 128.0 -217.0 130.0 -206.0L63.0 -198.0ZM168.0 -198.0V-505.0H206.0V-229.0C226.0 -225.0 234.0 -217.0 236.0 -206.0L168.0 -198.0ZM220.0 0.0V-187.0H225.0C237.0 -187.0 258.0 -179.0 259.0 -174.0V-27.0C270.0 -25.0 280.0 -19.0 285.0 -14.0L237.0 23.0L214.0 0.0H220.0ZM164.0 -556.0 154.0 -563.0C185.0 -590.0 222.0 -635.0 230.0 -672.0C279.0 -705.0 313.0 -602.0 164.0 -556.0ZM68.0 -555.0C51.0 -618.0 11.0 -703.0 -41.0 -756.0L-31.0 -769.0C33.0 -723.0 83.0 -652.0 109.0 -596.0C130.0 -598.0 136.0 -594.0 141.0 -584.0L68.0 -555.0ZM251.0 -342.0 259.0 -368.0H528.0V-342.0H251.0ZM489.0 -342.0C455.0 -535.0 365.0 -675.0 158.0 -756.0L165.0 -771.0C394.0 -698.0 482.0 -558.0 528.0 -372.0C547.0 -371.0 556.0 -369.0 563.0 -362.0L511.0 -313.0L480.0 -342.0H489.0ZM336.0 -343.0 318.0 -350.0C343.0 -552.0 405.0 -687.0 548.0 -767.0C557.0 -745.0 572.0 -733.0 592.0 -731.0L594.0 -723.0C441.0 -659.0 363.0 -530.0 336.0 -343.0ZM337.0 8.0V-17.0H487.0V8.0H337.0ZM320.0 8.0V-80.0C320.0 -148.0 316.0 -213.0 260.0 -269.0L271.0 -282.0C353.0 -227.0 359.0 -145.0 359.0 -79.0V8.0H368.0L320.0 33.0V17.0V8.0ZM451.0 8.0V-231.0C451.0 -256.0 458.0 -267.0 491.0 -267.0H521.0C576.0 -267.0 591.0 -259.0 591.0 -243.0C591.0 -235.0 589.0 -231.0 576.0 -226.0L573.0 -121.0H561.0C555.0 -162.0 547.0 -212.0 544.0 -224.0C542.0 -231.0 539.0 -232.0 535.0 -232.0C532.0 -233.0 526.0 -233.0 520.0 -233.0H500.0C491.0 -233.0 488.0 -231.0 488.0 -222.0V-25.0C505.0 -23.0 514.0 -18.0 518.0 -13.0L468.0 34.0L444.0 8.0H451.0Z"/></g>
<g fill="green" transform="translate(400 100) scale(0.1 -0.1)"><path d="M0.0 0.0V-25.0H179.0V0.0H0.0ZM-7.0 -143.0V-168.0H173.0V-143.0H-7.0ZM-65.0 0.0V-281.0C-65.0 -451.0 -61.0 -645.0 -110.0 -797.0L-98.0 -804.0C30.0 -655.0 30.0 -442.0 30.0 -280.0V0.0H45.0L-65.0 40.0V9.0V0.0ZM-6.0 -342.0 0.0 -366.0H281.0C292.0 -366.0 300.0 -362.0 303.0 -352.0C283.0 -323.0 241.0 -275.0 241.0 -275.0L206.0 -342.0H-6.0ZM-4.0 -521.0 4.0 -546.0H286.0C299.0 -546.0 306.0 -542.0 309.0 -532.0C286.0 -501.0 241.0 -452.0 241.0 -452.0L202.0 -521.0H-4.0ZM50.0 -223.0V-540.0H119.0V-249.0C131.0 -246.0 137.0 -240.0 138.0 -232.0L50.0 -223.0ZM144.0 -223.0V-540.0H216.0V-249.0C229.0 -246.0 233.0 -240.0 234.0 -232.0L144.0 -223.0ZM133.0 0.0V-207.0H152.0C187.0 -207.0 241.0 -188.0 242.0 -182.0V-38.0C257.0 -35.0 266.0 -28.0 271.0 -23.0L172.0 50.0L125.0 0.0H133.0ZM155.0 -565.0 147.0 -569.0C165.0 -603.0 183.0 -653.0 185.0 -698.0C266.0 -770.0 370.0 -616.0 155.0 -565.0ZM43.0 -563.0C32.0 -634.0 2.0 -735.0 -46.0 -799.0L-39.0 -809.0C41.0 -767.0 100.0 -696.0 136.0 -631.0C157.0 -633.0 164.0 -627.0 169.0 -618.0L43.0 -563.0ZM245.0 -338.0 253.0 -362.0H455.0V-338.0H245.0ZM407.0 -338.0C391.0 -535.0 336.0 -702.0 155.0 -798.0L162.0 -810.0C406.0 -732.0 484.0 -573.0 516.0 -380.0C535.0 -377.0 543.0 -373.0 548.0 -364.0L451.0 -281.0L397.0 -338.0H407.0ZM306.0 -340.0 294.0 -344.0C308.0 -605.0 352.0 -711.0 468.0 -804.0C487.0 -747.0 524.0 -712.0 571.0 -703.0L573.0 -693.0C434.0 -637.0 334.0 -555.0 306.0 -340.0ZM294.0 -3.0V-28.0H448.0V-3.0H294.0ZM274.0 -3.0V-73.0C274.0 -142.0 276.0 -227.0 242.0 -296.0L250.0 -306.0C353.0 -243.0 364.0 -138.0 364.0 -73.0V-3.0H379.0L274.0 47.0V6.0V-3.0ZM394.0 -3.0V-204.0C394.0 -260.0 400.0 -280.0 458.0 -280.0H482.0C540.0 -280.0 572.0 -259.0 572.0 -224.0C572.0 -207.0 569.0 -196.0 549.0 -185.0L546.0 -91.0H536.0C524.0 -133.0 512.0 -170.0 506.0 -181.0C502.0 -189.0 499.0 -190.0 495.0 -190.0C494.0 -190.0 494.0 -190.0 493.0 -190.0H494.0C489.0 -190.0 488.0 -187.0 488.0 -179.0V-36.0C502.0 -33.0 510.0 -29.0 515.0 -22.0L431.0 48.0L386.0 -3.0H394.0Z"/></g>
<g fill="green" transform="translate(500 100) scale(0.1 -0.1)"><path d="M0.0 0.0V-32.0H362.0V0.0H0.0ZM0.0 -104.0V-138.0H361.0V-104.0H0.0ZM-19.0 0.0V-146.0C-19.0 -260.0 -23.0 -384.0 -97.0 -487.0L-82.0 -501.0C25.0 -399.0 32.0 -254.0 32.0 -144.0V0.0H43.0L-19.0 31.0V11.0V0.0ZM40.0 -227.0 48.0 -259.0H392.0C408.0 -259.0 417.0 -254.0 419.0 -243.0C393.0 -217.0 353.0 -188.0 353.0 -188.0L319.0 -227.0H40.0ZM16.0 -332.0 25.0 -366.0H419.0C433.0 -366.0 443.0 -360.0 446.0 -348.0C420.0 -322.0 377.0 -288.0 377.0 -288.0L340.0 -332.0H16.0ZM112.0 -152.0V-352.0H161.0V-185.0C179.0 -181.0 187.0 -174.0 189.0 -161.0L112.0 -152.0ZM246.0 -152.0V-352.0H295.0V-185.0C313.0 -181.0 321.0 -174.0 323.0 -161.0L246.0 -152.0ZM344.0 0.0V-166.0H351.0C368.0 -166.0 393.0 -153.0 394.0 -147.0V-40.0C412.0 -36.0 430.0 -28.0 436.0 -21.0L365.0 33.0L335.0 0.0H344.0ZM237.0 -382.0 227.0 -394.0C267.0 -410.0 314.0 -447.0 331.0 -480.0C390.0 -506.0 411.0 -388.0 237.0 -382.0ZM131.0 -372.0C104.0 -409.0 44.0 -457.0 -10.0 -483.0L3.0 -498.0C67.0 -483.0 132.0 -450.0 168.0 -420.0C191.0 -427.0 199.0 -422.0 207.0 -412.0L131.0 -372.0ZM439.0 -223.0 449.0 -255.0H792.0V-223.0H439.0ZM740.0 -223.0C690.0 -338.0 575.0 -417.0 414.0 -462.0L423.0 -481.0C602.0 -446.0 720.0 -372.0 786.0 -259.0C812.0 -258.0 824.0 -255.0 833.0 -247.0L768.0 -188.0L729.0 -223.0H740.0ZM510.0 -223.0 489.0 -233.0C553.0 -381.0 672.0 -456.0 862.0 -497.0C868.0 -476.0 883.0 -461.0 904.0 -459.0L906.0 -447.0C711.0 -418.0 574.0 -353.0 510.0 -223.0ZM522.0 1.0V-32.0H729.0V1.0H522.0ZM507.0 1.0V-42.0C507.0 -95.0 498.0 -145.0 422.0 -191.0L433.0 -210.0C546.0 -166.0 556.0 -96.0 556.0 -41.0V1.0H567.0L507.0 32.0V12.0V1.0ZM682.0 1.0V-127.0C682.0 -159.0 691.0 -173.0 738.0 -173.0H792.0C882.0 -173.0 901.0 -165.0 901.0 -143.0C901.0 -132.0 896.0 -127.0 877.0 -122.0L875.0 -67.0H861.0C856.0 -92.0 848.0 -115.0 843.0 -123.0C841.0 -128.0 838.0 -128.0 832.0 -128.0C826.0 -129.0 810.0 -128.0 793.0 -128.0H749.0C733.0 -128.0 731.0 -127.0 731.0 -117.0V-41.0C749.0 -38.0 761.0 -33.0 768.0 -26.0L703.0 32.0L673.0 1.0H682.0Z"/></g>
<g fill="green" transform="translate(600 100) scale(0.1 -0.1)"><path d="M0.0 0.0V-31.0H323.0V0.0H0.0ZM0.0 -107.0V-138.0H322.0V-107.0H0.0ZM-67.0 0.0V-136.0C-67.0 -258.0 -70.0 -408.0 -138.0 -528.0L-128.0 -537.0C45.0 -429.0 61.0 -251.0 61.0 -136.0V0.0H81.0L-67.0 52.0V11.0V0.0ZM14.0 -227.0 23.0 -259.0H406.0C421.0 -259.0 431.0 -253.0 434.0 -241.0C402.0 -211.0 352.0 -171.0 352.0 -171.0L307.0 -227.0H14.0ZM-4.0 -327.0 4.0 -358.0H429.0C443.0 -358.0 455.0 -352.0 457.0 -340.0C423.0 -308.0 367.0 -264.0 367.0 -264.0L318.0 -327.0H-4.0ZM79.0 -151.0V-344.0H177.0V-183.0C193.0 -180.0 198.0 -173.0 199.0 -163.0L79.0 -151.0ZM221.0 -151.0V-344.0H320.0V-183.0C335.0 -180.0 341.0 -173.0 343.0 -163.0L221.0 -151.0ZM269.0 0.0V-156.0H291.0C331.0 -156.0 396.0 -135.0 397.0 -127.0V-47.0C415.0 -44.0 428.0 -35.0 433.0 -28.0L315.0 58.0L259.0 0.0H269.0ZM222.0 -361.0 214.0 -369.0C243.0 -390.0 280.0 -432.0 294.0 -470.0C404.0 -518.0 463.0 -316.0 222.0 -361.0ZM106.0 -339.0C84.0 -385.0 32.0 -446.0 -24.0 -480.0L-14.0 -494.0C65.0 -486.0 146.0 -461.0 196.0 -425.0C221.0 -429.0 231.0 -423.0 236.0 -413.0L106.0 -339.0ZM425.0 -233.0 435.0 -265.0H755.0V-233.0H425.0ZM670.0 -233.0C628.0 -340.0 526.0 -425.0 389.0 -474.0L395.0 -488.0C578.0 -462.0 728.0 -393.0 804.0 -279.0C829.0 -277.0 839.0 -274.0 847.0 -264.0L729.0 -167.0L658.0 -233.0H670.0ZM486.0 -233.0 474.0 -241.0C533.0 -408.0 650.0 -478.0 826.0 -523.0C837.0 -457.0 868.0 -411.0 919.0 -393.0L918.0 -381.0C737.0 -376.0 562.0 -346.0 486.0 -233.0ZM512.0 0.0V-31.0H716.0V0.0H512.0ZM457.0 0.0V-43.0C457.0 -94.0 457.0 -164.0 408.0 -219.0L416.0 -230.0C563.0 -187.0 585.0 -93.0 585.0 -43.0V0.0H605.0L457.0 53.0V11.0V0.0ZM634.0 0.0V-99.0C634.0 -169.0 640.0 -195.0 722.0 -195.0H762.0C848.0 -195.0 890.0 -176.0 890.0 -130.0C890.0 -107.0 885.0 -96.0 857.0 -82.0L853.0 -38.0H842.0C830.0 -60.0 817.0 -77.0 810.0 -83.0C806.0 -86.0 797.0 -87.0 791.0 -87.0C787.0 -87.0 784.0 -87.0 780.0 -87.0H769.0C760.0 -87.0 758.0 -85.0 758.0 -74.0V-40.0C776.0 -37.0 787.0 -31.0 794.0 -25.0L684.0 64.0L622.0 0.0H634.0Z"/></g>
<g fill="red" transform="translate(100 200) scale(0.1 -0.1)"><path d="M0.0 0.0V-29.0H284.0V0.0H0.0ZM-5.0 -140.0V-169.0H274.0V-140.0H-5.0ZM-28.0 0.0V-296.0C-28.0 -483.0 -37.0 -677.0 -132.0 -832.0L-115.0 -843.0C9.0 -688.0 16.0 -469.0 16.0 -295.0V0.0H27.0L-28.0 28.0V10.0V0.0ZM-6.0 -338.0 2.0 -367.0H311.0C325.0 -367.0 334.0 -362.0 336.0 -351.0C312.0 -327.0 273.0 -296.0 273.0 -296.0L240.0 -338.0H-6.0ZM-20.0 -545.0 -12.0 -575.0H330.0C343.0 -575.0 352.0 -570.0 354.0 -559.0C331.0 -535.0 292.0 -504.0 292.0 -504.0L259.0 -545.0H-20.0ZM73.0 -218.0V-555.0H116.0V-253.0C138.0 -249.0 146.0 -240.0 148.0 -227.0L73.0 -218.0ZM192.0 -218.0V-555.0H235.0V-253.0C257.0 -249.0 266.0 -240.0 268.0 -227.0L192.0 -218.0ZM252.0 0.0V-207.0H258.0C272.0 -207.0 295.0 -198.0 296.0 -193.0V-31.0C309.0 -28.0 321.0 -22.0 326.0 -16.0L271.0 26.0L245.0 0.0H252.0ZM187.0 -611.0 176.0 -619.0C211.0 -648.0 253.0 -698.0 262.0 -739.0C317.0 -776.0 355.0 -660.0 187.0 -611.0ZM79.0 -609.0C60.0 -678.0 14.0 -771.0 -44.0 -829.0L-33.0 -843.0C39.0 -794.0 95.0 -716.0 125.0 -655.0C148.0 -658.0 155.0 -653.0 161.0 -642.0L79.0 -609.0ZM290.0 -375.0 299.0 -404.0H603.0V-375.0H290.0ZM559.0 -375.0C520.0 -586.0 419.0 -739.0 190.0 -827.0L198.0 -844.0C451.0 -765.0 551.0 -612.0 603.0 -409.0C625.0 -408.0 635.0 -405.0 643.0 -398.0L584.0 -342.0L549.0 -375.0H559.0ZM384.0 -376.0 364.0 -384.0C394.0 -607.0 466.0 -754.0 628.0 -841.0C638.0 -817.0 655.0 -803.0 677.0 -801.0L680.0 -792.0C507.0 -722.0 416.0 -582.0 384.0 -376.0ZM386.0 9.0V-20.0H557.0V9.0H386.0ZM367.0 9.0V-87.0C367.0 -162.0 362.0 -234.0 299.0 -296.0L311.0 -311.0C404.0 -250.0 411.0 -159.0 411.0 -86.0V9.0H421.0L367.0 37.0V19.0V9.0ZM516.0 9.0V-252.0C516.0 -280.0 524.0 -293.0 561.0 -293.0H596.0C659.0 -293.0 676.0 -284.0 676.0 -266.0C676.0 -257.0 674.0 -252.0 659.0 -246.0L656.0 -132.0H642.0C636.0 -177.0 627.0 -231.0 623.0 -244.0C621.0 -252.0 618.0 -253.0 613.0 -253.0C610.0 -254.0 602.0 -254.0 595.0 -254.0H571.0C561.0 -254.0 558.0 -252.0 558.0 -242.0V-29.0C577.0 -26.0 587.0 -21.0 592.0 -15.0L535.0 38.0L508.0 9.0H516.0Z"/></g>
<g fill="black" opacity=".8" transform="translate(100 200) scale(0.1 -0.1)"><path d="M0.0 0.0V-29.0H284.0V0.0H0.0ZM-5.0 -140.0V-169.0H274.0V-140.0H-5.0ZM-28.0 0.0V-296.0C-28.0 -483.0 -37.0 -677.0 -132.0 -832.0L-115.0 -843.0C9.0 -688.0 16.0 -469.0 16.0 -295.0V0.0H27.0L-28.0 28.0V10.0V0.0ZM-6.0 -338.0 2.0 -367.0H311.0C325.0 -367.0 334.0 -362.0 336.0 -351.0C312.0 -327.0 273.0 -296.0 273.0 -296.0L240.0 -338.0H-6.0ZM-20.0 -545.0 -12.0 -575.0H330.0C343.0 -575.0 352.0 -570.0 354.0 -559.0C331.0 -535.0 292.0 -504.0 292.0 -504.0L259.0 -545.0H-20.0ZM73.0 -218.0V-555.0H116.0V-253.0C138.0 -249.0 146.0 -240.0 148.0 -227.0L73.0 -218.0ZM192.0 -218.0V-555.0H235.0V-253.0C257.0 -249.0 266.0 -240.0 268.0 -227.0L192.0 -218.0ZM252.0 0.0V-207.0H258.0C272.0 -207.0 295.0 -198.0 296.0 -193.0V-31.0C309.0 -28.0 321.0 -22.0 326.0 -16.0L271.0 26.0L245.0 0.0H252.0ZM187.0 -611.0 176.0 -619.0C211.0 -648.0 253.0 -698.0 262.0 -739.0C317.0 -776.0 355.0 -660.0 187.0 -611.0ZM79.0 -609.0C60.0 -678.0 14.0 -771.0 -44.0 -829.0L-33.0 -843.0C39.0 -794.0 95.0 -716.0 125.0 -655.0C148.0 -658.0 155.0 -653.0 161.0 -642.0L79.0 -609.0ZM290.0 -375.0 299.0 -404.0H603.0V-375.0H290.0ZM559.0 -375.0C520.0 -586.0 419.0 -739.0 190.0 -827.0L198.0 -844.0C451.0 -765.0 551.0 -612.0 603.0 -409.0C625.0 -408.0 635.0 -405.0 643.0 -398.0L584.0 -342.0L549.0 -375.0H559.0ZM384.0 -376.0 364.0 -384.0C394.0 -607.0 466.0 -754.0 628.0 -841.0C638.0 -817.0 655.0 -803.0 677.0 -801.0L680.0 -792.0C507.0 -722.0 416.0 -582.0 384.0 -376.0ZM386.0 9.0V-20.0H557.0V9.0H386.0ZM367.0 9.0V-87.0C367.0 -162.0 362.0 -234.0 299.0 -296.0L311.0 -311.0C404.0 -250.0 411.0 -159.0 411.0 -86.0V9.0H421.0L367.0 37.0V19.0V9.0ZM516.0 9.0V-252.0C516.0 -280.0 524.0 -293.0 561.0 -293.0H596.0C659.0 -293.0 676.0 -284.0 676.0 -266.0C676.0 -257.0 674.0 -252.0 659.0 -246.0L656.0 -132.0H642.0C636.0 -177.0 627.0 -231.0 623.0 -244.0C621.0 -252.0 618.0 -253.0 613.0 -253.0C610.0 -254.0 602.0 -254.0 595.0 -254.0H571.0C561.0 -254.0 558.0 -252.0 558.0 -242.0V-29.0C577.0 -26.0 587.0 -21.0 592.0 -15.0L535.0 38.0L508.0 9.0H516.0Z"/></g>
<g fill="red" transform="translate(200 200) scale(0.1 -0.1)"><path d="M0.0 0.0V-28.0H208.0V0.0H0.0ZM-7.0 -158.0V-186.0H201.0V-158.0H-7.0ZM-73.0 0.0V-306.0C-73.0 -493.0 -69.0 -707.0 -124.0 -875.0L-111.0 -882.0C34.0 -718.0 35.0 -483.0 35.0 -305.0V0.0H52.0L-73.0 45.0V10.0V0.0ZM-6.0 -375.0 1.0 -403.0H320.0C333.0 -403.0 342.0 -398.0 345.0 -387.0C322.0 -354.0 275.0 -301.0 275.0 -301.0L235.0 -375.0H-6.0ZM-4.0 -571.0 4.0 -599.0H327.0C341.0 -599.0 350.0 -594.0 353.0 -583.0C327.0 -548.0 276.0 -494.0 276.0 -494.0L232.0 -571.0H-4.0ZM57.0 -245.0V-592.0H136.0V-274.0C150.0 -271.0 156.0 -264.0 157.0 -255.0L57.0 -245.0ZM165.0 -245.0V-592.0H247.0V-274.0C261.0 -271.0 266.0 -264.0 267.0 -255.0L165.0 -245.0ZM156.0 0.0V-228.0H177.0C216.0 -228.0 277.0 -207.0 278.0 -200.0V-43.0C295.0 -40.0 306.0 -32.0 311.0 -26.0L200.0 56.0L147.0 0.0H156.0ZM177.0 -619.0 168.0 -624.0C188.0 -661.0 209.0 -716.0 212.0 -766.0C304.0 -845.0 418.0 -671.0 177.0 -619.0ZM51.0 -616.0C39.0 -694.0 4.0 -804.0 -50.0 -874.0L-42.0 -885.0C47.0 -840.0 114.0 -764.0 155.0 -693.0C179.0 -695.0 187.0 -688.0 192.0 -678.0L51.0 -616.0ZM283.0 -371.0 292.0 -399.0H524.0V-371.0H283.0ZM468.0 -371.0C449.0 -586.0 385.0 -768.0 186.0 -873.0L193.0 -886.0C462.0 -802.0 553.0 -629.0 591.0 -418.0C613.0 -415.0 622.0 -411.0 628.0 -401.0L518.0 -307.0L457.0 -371.0H468.0ZM351.0 -373.0 338.0 -378.0C356.0 -664.0 409.0 -781.0 542.0 -882.0C562.0 -818.0 603.0 -778.0 656.0 -767.0L658.0 -756.0C501.0 -696.0 385.0 -608.0 351.0 -373.0ZM340.0 -3.0V-31.0H514.0V-3.0H340.0ZM316.0 -3.0V-80.0C316.0 -156.0 318.0 -250.0 279.0 -326.0L288.0 -337.0C405.0 -268.0 418.0 -152.0 418.0 -80.0V-3.0H435.0L316.0 53.0V7.0V-3.0ZM453.0 -3.0V-222.0C453.0 -285.0 459.0 -308.0 525.0 -308.0H553.0C619.0 -308.0 655.0 -284.0 655.0 -245.0C655.0 -225.0 652.0 -213.0 629.0 -201.0L626.0 -99.0H615.0C601.0 -144.0 588.0 -185.0 581.0 -197.0C577.0 -205.0 573.0 -206.0 568.0 -206.0C567.0 -206.0 567.0 -206.0 566.0 -206.0C560.0 -206.0 559.0 -203.0 559.0 -194.0V-40.0C575.0 -37.0 584.0 -32.0 590.0 -25.0L495.0 54.0L443.0 -3.0H453.0Z"/></g>
<g fill="black" opacity=".8" transform="translate(200 200) scale(0.1 -0.1)"><path d="M0.0 0.0V-28.0H208.0V0.0H0.0ZM-7.0 -158.0V-186.0H201.0V-158.0H-7.0ZM-73.0 0.0V-306.0C-73.0 -493.0 -69.0 -707.0 -124.0 -875.0L-111.0 -882.0C34.0 -718.0 35.0 -483.0 35.0 -305.0V0.0H52.0L-73.0 45.0V10.0V0.0ZM-6.0 -375.0 1.0 -403.0H320.0C333.0 -403.0 342.0 -398.0 345.0 -387.0C322.0 -354.0 275.0 -301.0 275.0 -301.0L235.0 -375.0H-6.0ZM-4.0 -571.0 4.0 -599.0H327.0C341.0 -599.0 350.0 -594.0 353.0 -583.0C327.0 -548.0 276.0 -494.0 276.0 -494.0L232.0 -571.0H-4.0ZM57.0 -245.0V-592.0H136.0V-274.0C150.0 -271.0 156.0 -264.0 157.0 -255.0L57.0 -245.0ZM165.0 -245.0V-592.0H247.0V-274.0C261.0 -271.0 266.0 -264.0 267.0 -255.0L165.0 -245.0ZM156.0 0.0V-228.0H177.0C216.0 -228.0 277.0 -207.0 278.0 -200.0V-43.0C295.0 -40.0 306.0 -32.0 311.0 -26.0L200.0 56.0L147.0 0.0H156.0ZM177.0 -619.0 168.0 -624.0C188.0 -661.0 209.0 -716.0 212.0 -766.0C304.0 -845.0 418.0 -671.0 177.0 -619.0ZM51.0 -616.0C39.0 -694.0 4.0 -804.0 -50.0 -874.0L-42.0 -885.0C47.0 -840.0 114.0 -764.0 155.0 -693.0C179.0 -695.0 187.0 -688.0 192.0 -678.0L51.0 -616.0ZM283.0 -371.0 292.0 -399.0H524.0V-371.0H283.0ZM468.0 -371.0C449.0 -586.0 385.0 -768.0 186.0 -873.0L193.0 -886.0C462.0 -802.0 553.0 -629.0 591.0 -418.0C613.0 -415.0 622.0 -411.0 628.0 -401.0L518.0 -307.0L457.0 -371.0H468.0ZM351.0 -373.0 338.0 -378.0C356.0 -664.0 409.0 -781.0 542.0 -882.0C562.0 -818.0 603.0 -778.0 656.0 -767.0L658.0 -756.0C501.0 -696.0 385.0 -608.0 351.0 -373.0ZM340.0 -3.0V-31.0H514.0V-3.0H340.0ZM316.0 -3.0V-80.0C316.0 -156.0 318.0 -250.0 279.0 -326.0L288.0 -337.0C405.0 -268.0 418.0 -152.0 418.0 -80.0V-3.0H435.0L316.0 53.0V7.0V-3.0ZM453.0 -3.0V-222.0C453.0 -285.0 459.0 -308.0 525.0 -308.0H553.0C619.0 -308.0 655.0 -284.0 655.0 -245.0C655.0 -225.0 652.0 -213.0 629.0 -201.0L626.0 -99.0H615.0C601.0 -144.0 588.0 -185.0 581.0 -197.0C577.0 -205.0 573.0 -206.0 568.0 -206.0C567.0 -206.0 567.0 -206.0 566.0 -206.0C560.0 -206.0 559.0 -203.0 559.0 -194.0V-40.0C575.0 -37.0 584.0 -32.0 590.0 -25.0L495.0 54.0L443.0 -3.0H453.0Z"/></g>
<g fill="red" transform="translate(300 200) scale(0.1 -0.1)"><path d="M0.0 0.0V-29.0H327.0V0.0H0.0ZM0.0 -91.0V-121.0H327.0V-91.0H0.0ZM-16.0 0.0V-121.0C-16.0 -219.0 -20.0 -325.0 -84.0 -414.0L-71.0 -427.0C23.0 -339.0 29.0 -214.0 29.0 -120.0V0.0H39.0L-16.0 28.0V10.0V0.0ZM38.0 -196.0 45.0 -225.0H354.0C368.0 -225.0 376.0 -220.0 378.0 -210.0C355.0 -187.0 319.0 -161.0 319.0 -161.0L289.0 -196.0H38.0ZM16.0 -284.0 24.0 -314.0H378.0C391.0 -314.0 400.0 -309.0 403.0 -298.0C379.0 -275.0 341.0 -244.0 341.0 -244.0L308.0 -284.0H16.0ZM102.0 -132.0V-302.0H146.0V-161.0C162.0 -157.0 169.0 -151.0 171.0 -140.0L102.0 -132.0ZM222.0 -132.0V-302.0H266.0V-161.0C282.0 -157.0 289.0 -151.0 291.0 -140.0L222.0 -132.0ZM312.0 0.0V-146.0H318.0C333.0 -146.0 356.0 -134.0 357.0 -128.0V-36.0C373.0 -33.0 389.0 -25.0 395.0 -19.0L331.0 30.0L304.0 0.0H312.0ZM214.0 -327.0 205.0 -338.0C241.0 -352.0 283.0 -384.0 299.0 -413.0C352.0 -435.0 369.0 -330.0 214.0 -327.0ZM120.0 -318.0C95.0 -349.0 41.0 -389.0 -7.0 -410.0L5.0 -424.0C61.0 -412.0 120.0 -386.0 152.0 -361.0C173.0 -367.0 180.0 -363.0 187.0 -354.0L120.0 -318.0ZM400.0 -190.0 409.0 -219.0H717.0V-190.0H400.0ZM670.0 -190.0C625.0 -287.0 521.0 -353.0 382.0 -391.0L390.0 -408.0C545.0 -379.0 651.0 -318.0 711.0 -222.0C734.0 -221.0 745.0 -219.0 753.0 -211.0L695.0 -159.0L660.0 -190.0H670.0ZM462.0 -190.0 443.0 -199.0C502.0 -326.0 611.0 -389.0 782.0 -423.0C787.0 -404.0 800.0 -391.0 819.0 -389.0L820.0 -378.0C645.0 -355.0 521.0 -301.0 462.0 -190.0ZM473.0 0.0V-29.0H659.0V0.0H473.0ZM460.0 0.0V-35.0C460.0 -81.0 452.0 -124.0 383.0 -164.0L393.0 -181.0C495.0 -143.0 504.0 -82.0 504.0 -34.0V0.0H514.0L460.0 28.0V10.0V0.0ZM617.0 0.0V-106.0C617.0 -135.0 625.0 -147.0 668.0 -147.0H717.0C799.0 -147.0 816.0 -140.0 816.0 -120.0C816.0 -110.0 811.0 -106.0 794.0 -102.0L792.0 -56.0H780.0C775.0 -77.0 768.0 -96.0 764.0 -103.0C762.0 -107.0 759.0 -107.0 754.0 -107.0C748.0 -108.0 734.0 -107.0 718.0 -107.0H678.0C663.0 -107.0 661.0 -106.0 661.0 -97.0V-37.0C677.0 -35.0 688.0 -30.0 694.0 -24.0L636.0 28.0L609.0 0.0H617.0Z"/></g>
<g fill="black" opacity=".8" transform="translate(300 200) scale(0.1 -0.1)"><path d="M0.0 0.0V-29.0H327.0V0.0H0.0ZM0.0 -91.0V-121.0H327.0V-91.0H0.0ZM-16.0 0.0V-121.0C-16.0 -219.0 -20.0 -325.0 -84.0 -414.0L-71.0 -427.0C23.0 -339.0 29.0 -214.0 29.0 -120.0V0.0H39.0L-16.0 28.0V10.0V0.0ZM38.0 -196.0 45.0 -225.0H354.0C368.0 -225.0 376.0 -220.0 378.0 -210.0C355.0 -187.0 319.0 -161.0 319.0 -161.0L289.0 -196.0H38.0ZM16.0 -284.0 24.0 -314.0H378.0C391.0 -314.0 400.0 -309.0 403.0 -298.0C379.0 -275.0 341.0 -244.0 341.0 -244.0L308.0 -284.0H16.0ZM102.0 -132.0V-302.0H146.0V-161.0C162.0 -157.0 169.0 -151.0 171.0 -140.0L102.0 -132.0ZM222.0 -132.0V-302.0H266.0V-161.0C282.0 -157.0 289.0 -151.0 291.0 -140.0L222.0 -132.0ZM312.0 0.0V-146.0H318.0C333.0 -146.0 356.0 -134.0 357.0 -128.0V-36.0C373.0 -33.0 389.0 -25.0 395.0 -19.0L331.0 30.0L304.0 0.0H312.0ZM214.0 -327.0 205.0 -338.0C241.0 -352.0 283.0 -384.0 299.0 -413.0C352.0 -435.0 369.0 -330.0 214.0 -327.0ZM120.0 -318.0C95.0 -349.0 41.0 -389.0 -7.0 -410.0L5.0 -424.0C61.0 -412.0 120.0 -386.0 152.0 -361.0C173.0 -367.0 180.0 -363.0 187.0 -354.0L120.0 -318.0ZM400.0 -190.0 409.0 -219.0H717.0V-190.0H400.0ZM670.0 -190.0C625.0 -287.0 521.0 -353.0 382.0 -391.0L390.0 -408.0C545.0 -379.0 651.0 -318.0 711.0 -222.0C734.0 -221.0 745.0 -219.0 753.0 -211.0L695.0 -159.0L660.0 -190.0H670.0ZM462.0 -190.0 443.0 -199.0C502.0 -326.0 611.0 -389.0 782.0 -423.0C787.0 -404.0 800.0 -391.0 819.0 -389.0L820.0 -378.0C645.0 -355.0 521.0 -301.0 462.0 -190.0ZM473.0 0.0V-29.0H659.0V0.0H473.0ZM460.0 0.0V-35.0C460.0 -81.0 452.0 -124.0 383.0 -164.0L393.0 -181.0C495.0 -143.0 504.0 -82.0 504.0 -34.0V0.0H514.0L460.0 28.0V10.0V0.0ZM617.0 0.0V-106.0C617.0 -135.0 625.0 -147.0 668.0 -147.0H717.0C799.0 -147.0 816.0 -140.0 816.0 -120.0C816.0 -110.0 811.0 -106.0 794.0 -102.0L792.0 -56.0H780.0C775.0 -77.0 768.0 -96.0 764.0 -103.0C762.0 -107.0 759.0 -107.0 754.0 -107.0C748.0 -108.0 734.0 -107.0 718.0 -107.0H678.0C663.0 -107.0 661.0 -106.0 661.0 -97.0V-37.0C677.0 -35.0 688.0 -30.0 694.0 -24.0L636.0 28.0L609.0 0.0H617.0Z"/></g>
<g fill="red" transform="translate(400 200) scale(0.1 -0.1)"><path d="M0.0 0.0V-28.0H294.0V0.0H0.0ZM0.0 -92.0V-120.0H294.0V-92.0H0.0ZM-59.0 0.0V-111.0C-59.0 -216.0 -62.0 -346.0 -124.0 -450.0L-115.0 -459.0C41.0 -366.0 56.0 -210.0 56.0 -111.0V0.0H74.0L-59.0 47.0V10.0V0.0ZM14.0 -194.0 22.0 -222.0H367.0C380.0 -222.0 389.0 -217.0 392.0 -206.0C363.0 -180.0 318.0 -145.0 318.0 -145.0L278.0 -194.0H14.0ZM-4.0 -277.0 4.0 -305.0H388.0C401.0 -305.0 411.0 -300.0 413.0 -289.0C382.0 -261.0 332.0 -222.0 332.0 -222.0L288.0 -277.0H-4.0ZM72.0 -129.0V-292.0H160.0V-158.0C174.0 -155.0 179.0 -149.0 180.0 -140.0L72.0 -129.0ZM200.0 -129.0V-292.0H289.0V-158.0C303.0 -155.0 308.0 -149.0 310.0 -140.0L200.0 -129.0ZM246.0 0.0V-135.0H266.0C302.0 -135.0 360.0 -116.0 361.0 -109.0V-42.0C377.0 -39.0 388.0 -31.0 393.0 -25.0L287.0 52.0L237.0 0.0H246.0ZM200.0 -307.0 193.0 -314.0C220.0 -332.0 254.0 -369.0 267.0 -402.0C366.0 -443.0 415.0 -261.0 200.0 -307.0ZM98.0 -286.0C77.0 -325.0 30.0 -377.0 -20.0 -405.0L-11.0 -418.0C59.0 -413.0 132.0 -393.0 177.0 -363.0C199.0 -367.0 208.0 -362.0 213.0 -353.0L98.0 -286.0ZM387.0 -200.0 396.0 -228.0H686.0V-200.0H387.0ZM609.0 -200.0C570.0 -289.0 477.0 -359.0 358.0 -399.0L364.0 -412.0C522.0 -392.0 659.0 -337.0 729.0 -241.0C751.0 -239.0 760.0 -236.0 767.0 -227.0L662.0 -141.0L598.0 -200.0H609.0ZM441.0 -200.0 430.0 -207.0C485.0 -349.0 593.0 -408.0 752.0 -445.0C762.0 -386.0 789.0 -345.0 834.0 -329.0L833.0 -318.0C670.0 -317.0 511.0 -293.0 441.0 -200.0ZM466.0 0.0V-28.0H650.0V0.0H466.0ZM415.0 0.0V-36.0C415.0 -80.0 415.0 -141.0 371.0 -189.0L378.0 -199.0C511.0 -162.0 531.0 -79.0 531.0 -36.0V0.0H549.0L415.0 47.0V10.0V0.0ZM575.0 0.0V-81.0C575.0 -144.0 581.0 -167.0 655.0 -167.0H691.0C769.0 -167.0 807.0 -151.0 807.0 -109.0C807.0 -89.0 802.0 -79.0 777.0 -66.0L773.0 -30.0H763.0C753.0 -49.0 741.0 -62.0 735.0 -67.0C731.0 -70.0 723.0 -71.0 718.0 -71.0C714.0 -71.0 711.0 -71.0 707.0 -71.0H697.0C689.0 -71.0 687.0 -69.0 687.0 -59.0V-36.0C703.0 -33.0 713.0 -28.0 719.0 -22.0L620.0 58.0L565.0 0.0H575.0Z"/></g>
<g fill="black" opacity=".8" transform="translate(400 200) scale(0.1 -0.1)"><path d="M0.0 0.0V-28.0H294.0V0.0H0.0ZM0.0 -92.0V-120.0H294.0V-92.0H0.0ZM-59.0 0.0V-111.0C-59.0 -216.0 -62.0 -346.0 -124.0 -450.0L-115.0 -459.0C41.0 -366.0 56.0 -210.0 56.0 -111.0V0.0H74.0L-59.0 47.0V10.0V0.0ZM14.0 -194.0 22.0 -222.0H367.0C380.0 -222.0 389.0 -217.0 392.0 -206.0C363.0 -180.0 318.0 -145.0 318.0 -145.0L278.0 -194.0H14.0ZM-4.0 -277.0 4.0 -305.0H388.0C401.0 -305.0 411.0 -300.0 413.0 -289.0C382.0 -261.0 332.0 -222.0 332.0 -222.0L288.0 -277.0H-4.0ZM72.0 -129.0V-292.0H160.0V-158.0C174.0 -155.0 179.0 -149.0 180.0 -140.0L72.0 -129.0ZM200.0 -129.0V-292.0H289.0V-158.0C303.0 -155.0 308.0 -149.0 310.0 -140.0L200.0 -129.0ZM246.0 0.0V-135.0H266.0C302.0 -135.0 360.0 -116.0 361.0 -109.0V-42.0C377.0 -39.0 388.0 -31.0 393.0 -25.0L287.0 52.0L237.0 0.0H246.0ZM200.0 -307.0 193.0 -314.0C220.0 -332.0 254.0 -369.0 267.0 -402.0C366.0 -443.0 415.0 -261.0 200.0 -307.0ZM98.0 -286.0C77.0 -325.0 30.0 -377.0 -20.0 -405.0L-11.0 -418.0C59.0 -413.0 132.0 -393.0 177.0 -363.0C199.0 -367.0 208.0 -362.0 213.0 -353.0L98.0 -286.0ZM387.0 -200.0 396.0 -228.0H686.0V-200.0H387.0ZM609.0 -200.0C570.0 -289.0 477.0 -359.0 358.0 -399.0L364.0 -412.0C522.0 -392.0 659.0 -337.0 729.0 -241.0C751.0 -239.0 760.0 -236.0 767.0 -227.0L662.0 -141.0L598.0 -200.0H609.0ZM441.0 -200.0 430.0 -207.0C485.0 -349.0 593.0 -408.0 752.0 -445.0C762.0 -386.0 789.0 -345.0 834.0 -329.0L833.0 -318.0C670.0 -317.0 511.0 -293.0 441.0 -200.0ZM466.0 0.0V-28.0H650.0V0.0H466.0ZM415.0 0.0V-36.0C415.0 -80.0 415.0 -141.0 371.0 -189.0L378.0 -199.0C511.0 -162.0 531.0 -79.0 531.0 -36.0V0.0H549.0L415.0 47.0V10.0V0.0ZM575.0 0.0V-81.0C575.0 -144.0 581.0 -167.0 655.0 -167.0H691.0C769.0 -167.0 807.0 -151.0 807.0 -109.0C807.0 -89.0 802.0 -79.0 777.0 -66.0L773.0 -30.0H763.0C753.0 -49.0 741.0 -62.0 735.0 -67.0C731.0 -70.0 723.0 -71.0 718.0 -71.0C714.0 -71.0 711.0 -71.0 707.0 -71.0H697.0C689.0 -71.0 687.0 -69.0 687.0 -59.0V-36.0C703.0 -33.0 713.0 -28.0 719.0 -22.0L620.0 58.0L565.0 0.0H575.0Z"/></g>
</svg>
