<?xml version="1.0" encoding="UTF-8"?>
<svg width="1700" height="400" xmlns="http://www.w3.org/2000/svg">
<rect width="100%" height="100%" fill="white"/>
<g fill="green" transform="translate(100 100) scale(0.1 -0.1)"><path d="M-0.0 -0.0 -53.0 25.0C-57.0 -157.0 -90.0 -497.0 -112.0 -638.0L-96.0 -606.0C-110.0 -609.0 -131.0 -618.0 -143.0 -626.0L-91.0 -669.0L-65.0 -644.0H-73.0C-50.0 -465.0 -23.0 -166.0 -15.0 4.0L-21.0 0.0ZM325.0 0.0H335.0C332.0 -444.0 324.0 -723.0 287.0 -763.0C277.0 -775.0 272.0 -778.0 252.0 -778.0C233.0 -778.0 175.0 -771.0 136.0 -766.0L135.0 -786.0C168.0 -790.0 204.0 -799.0 216.0 -806.0C228.0 -815.0 230.0 -827.0 230.0 -840.0C267.0 -840.0 301.0 -825.0 323.0 -791.0C360.0 -733.0 371.0 -471.0 374.0 -30.0C394.0 -28.0 405.0 -24.0 413.0 -16.0L352.0 33.0ZM408.0 -573.0 374.0 -618.0H-80.0V-645.0H447.0C459.0 -645.0 467.0 -641.0 470.0 -631.0C446.0 -605.0 408.0 -573.0 408.0 -573.0ZM436.0 -352.0 404.0 -400.0H-201.0L-197.0 -427.0H474.0C487.0 -427.0 495.0 -422.0 496.0 -412.0C474.0 -387.0 436.0 -352.0 436.0 -352.0ZM359.0 0.0H-24.0V-26.0H359.0ZM77.0 -405.0 66.0 -413.0C108.0 -449.0 159.0 -514.0 171.0 -565.0C219.0 -599.0 248.0 -489.0 77.0 -405.0ZM72.0 -79.0 62.0 -87.0C104.0 -122.0 153.0 -186.0 163.0 -237.0C212.0 -273.0 245.0 -157.0 72.0 -79.0Z"/></g>
<g fill="green" transform="translate(200 100) scale(0.1 -0.1)"><path d="M0.0 0.0 -144.0 60.0C-145.0 -112.0 -167.0 -478.0 -192.0 -632.0L-164.0 -597.0C-182.0 -605.0 -203.0 -619.0 -215.0 -632.0L-102.0 -691.0L-62.0 -637.0H-68.0C-49.0 -471.0 -28.0 -135.0 -24.0 6.0L-34.0 0.0ZM192.0 0.0H204.0C201.0 -458.0 198.0 -653.0 160.0 -690.0C150.0 -699.0 140.0 -703.0 126.0 -703.0C106.0 -703.0 61.0 -701.0 29.0 -699.0V-709.0C70.0 -720.0 94.0 -735.0 109.0 -756.0C122.0 -774.0 125.0 -803.0 125.0 -851.0C183.0 -851.0 230.0 -833.0 266.0 -792.0C323.0 -727.0 326.0 -585.0 330.0 -49.0C353.0 -46.0 366.0 -38.0 373.0 -29.0L263.0 73.0ZM364.0 -538.0 319.0 -612.0H-170.0V-637.0H419.0C432.0 -637.0 440.0 -633.0 443.0 -623.0C416.0 -590.0 364.0 -538.0 364.0 -538.0ZM386.0 -324.0 347.0 -400.0H-267.0L-262.0 -425.0H429.0C441.0 -425.0 449.0 -420.0 452.0 -410.0C431.0 -377.0 386.0 -324.0 386.0 -324.0ZM253.0 0.0H-94.0V-25.0H253.0ZM5.0 -381.0 -3.0 -385.0C17.0 -430.0 35.0 -494.0 35.0 -551.0C131.0 -640.0 252.0 -454.0 5.0 -381.0ZM10.0 -56.0 2.0 -60.0C24.0 -101.0 46.0 -160.0 48.0 -213.0C140.0 -293.0 249.0 -116.0 10.0 -56.0Z"/></g>
<g fill="green" transform="translate(300 100) scale(0.1 -0.1)"><path d="M0.0 0.0 -31.0 14.0C-33.0 -108.0 -54.0 -336.0 -68.0 -430.0L-59.0 -411.0C-67.0 -413.0 -79.0 -418.0 -86.0 -423.0L-57.0 -448.0L-41.0 -434.0H-46.0C-31.0 -313.0 -14.0 -112.0 -9.0 2.0L-12.0 0.0ZM219.0 0.0H225.0C224.0 -300.0 221.0 -492.0 196.0 -518.0C190.0 -526.0 188.0 -528.0 175.0 -528.0C164.0 -528.0 129.0 -523.0 105.0 -520.0V-532.0C125.0 -534.0 147.0 -540.0 154.0 -544.0C161.0 -550.0 162.0 -557.0 162.0 -565.0C185.0 -565.0 206.0 -555.0 219.0 -533.0C241.0 -495.0 247.0 -315.0 248.0 -18.0C260.0 -16.0 267.0 -14.0 272.0 -9.0L235.0 20.0ZM269.0 -392.0 249.0 -418.0H-45.0V-434.0H292.0C299.0 -434.0 304.0 -432.0 306.0 -426.0C291.0 -411.0 269.0 -392.0 269.0 -392.0ZM294.0 -328.0 277.0 -357.0H-156.0L-152.0 -373.0H315.0C323.0 -373.0 328.0 -370.0 328.0 -364.0C316.0 -350.0 294.0 -328.0 294.0 -328.0ZM239.0 0.0H-10.0V-15.0H239.0ZM57.0 -280.0 51.0 -285.0C78.0 -308.0 111.0 -349.0 118.0 -383.0C148.0 -404.0 165.0 -333.0 57.0 -280.0ZM49.0 -54.0 43.0 -59.0C71.0 -82.0 102.0 -123.0 108.0 -158.0C140.0 -181.0 160.0 -104.0 49.0 -54.0Z"/></g>
<g fill="green" transform="translate(400 100) scale(0.1 -0.1)"><path d="M0.0 0.0 -88.0 35.0C-87.0 -79.0 -100.0 -324.0 -116.0 -426.0L-99.0 -406.0C-110.0 -411.0 -122.0 -419.0 -128.0 -427.0L-60.0 -462.0L-36.0 -429.0H-40.0C-28.0 -317.0 -16.0 -91.0 -15.0 3.0L-20.0 0.0ZM132.0 0.0H140.0C139.0 -306.0 140.0 -437.0 116.0 -461.0C110.0 -467.0 104.0 -470.0 95.0 -470.0C83.0 -470.0 55.0 -468.0 34.0 -467.0V-473.0C61.0 -480.0 76.0 -490.0 86.0 -503.0C94.0 -515.0 96.0 -534.0 96.0 -567.0C132.0 -567.0 162.0 -553.0 184.0 -526.0C219.0 -484.0 217.0 -391.0 218.0 -30.0C232.0 -28.0 240.0 -23.0 244.0 -18.0L177.0 46.0ZM243.0 -369.0 215.0 -414.0H-118.0V-429.0H276.0C284.0 -429.0 289.0 -426.0 291.0 -421.0C274.0 -401.0 243.0 -369.0 243.0 -369.0ZM271.0 -314.0 253.0 -358.0H-202.0L-197.0 -372.0H288.0C295.0 -372.0 299.0 -369.0 301.0 -363.0C293.0 -345.0 271.0 -314.0 271.0 -314.0ZM165.0 0.0H-65.0V-15.0H165.0ZM10.0 -261.0 5.0 -263.0C17.0 -293.0 28.0 -335.0 29.0 -372.0C91.0 -430.0 169.0 -311.0 10.0 -261.0ZM11.0 -34.0 6.0 -36.0C20.0 -63.0 34.0 -102.0 35.0 -137.0C94.0 -189.0 164.0 -75.0 11.0 -34.0Z"/></g>
<g fill="green" transform="translate(500 100) scale(0.1 -0.1)"><path d="M-0.0 -0.0 -68.0 34.0C-80.0 -136.0 -126.0 -450.0 -155.0 -581.0L-133.0 -541.0C-152.0 -545.0 -178.0 -556.0 -194.0 -566.0L-127.0 -623.0L-95.0 -590.0H-104.0C-75.0 -427.0 -33.0 -151.0 -18.0 6.0L-27.0 0.0ZM468.0 0.0H481.0C473.0 -383.0 454.0 -649.0 413.0 -690.0C400.0 -704.0 391.0 -706.0 368.0 -706.0C342.0 -706.0 259.0 -698.0 209.0 -692.0L208.0 -716.0C249.0 -721.0 301.0 -732.0 317.0 -741.0C333.0 -752.0 336.0 -768.0 336.0 -783.0C382.0 -784.0 425.0 -768.0 453.0 -733.0C501.0 -674.0 524.0 -421.0 532.0 -38.0C556.0 -36.0 570.0 -31.0 579.0 -21.0L503.0 40.0ZM599.0 -503.0 554.0 -557.0H-120.0V-591.0H654.0C669.0 -591.0 680.0 -586.0 684.0 -573.0C650.0 -541.0 599.0 -503.0 599.0 -503.0ZM592.0 173.0 545.0 113.0H-87.0L-106.0 78.0H653.0C669.0 78.0 680.0 84.0 682.0 97.0C647.0 131.0 592.0 173.0 592.0 173.0ZM511.0 0.0H-48.0V-34.0H511.0ZM87.0 -358.0 76.0 -371.0C140.0 -402.0 224.0 -467.0 254.0 -518.0C317.0 -548.0 332.0 -416.0 87.0 -358.0ZM109.0 -75.0 98.0 -89.0C159.0 -118.0 237.0 -179.0 266.0 -227.0C328.0 -256.0 343.0 -129.0 109.0 -75.0Z"/></g>
<g fill="green" transform="translate(600 100) scale(0.1 -0.1)"><path d="M0.0 0.0 -190.0 94.0C-199.0 -73.0 -238.0 -429.0 -273.0 -581.0L-233.0 -537.0C-257.0 -547.0 -286.0 -565.0 -302.0 -583.0L-153.0 -662.0L-100.0 -591.0H-107.0C-81.0 -437.0 -43.0 -118.0 -31.0 9.0L-46.0 0.0ZM296.0 0.0H310.0C302.0 -411.0 288.0 -606.0 247.0 -643.0C236.0 -653.0 224.0 -658.0 206.0 -658.0C181.0 -658.0 118.0 -654.0 76.0 -652.0V-664.0C127.0 -678.0 158.0 -695.0 178.0 -720.0C195.0 -742.0 199.0 -778.0 199.0 -830.0C275.0 -830.0 330.0 -813.0 374.0 -771.0C445.0 -703.0 460.0 -549.0 471.0 -61.0C498.0 -58.0 514.0 -48.0 523.0 -38.0L383.0 87.0ZM509.0 -459.0 441.0 -559.0H-203.0V-591.0H597.0C614.0 -591.0 625.0 -586.0 628.0 -573.0C586.0 -528.0 509.0 -459.0 509.0 -459.0ZM461.0 216.0 377.0 109.0H-161.0L-180.0 76.0H578.0C595.0 76.0 609.0 83.0 612.0 96.0C554.0 146.0 461.0 216.0 461.0 216.0ZM380.0 0.0H-128.0V-32.0H380.0ZM-8.0 -350.0 -15.0 -357.0C24.0 -395.0 69.0 -459.0 85.0 -517.0C225.0 -598.0 331.0 -339.0 -8.0 -350.0ZM13.0 -61.0 6.0 -68.0C42.0 -105.0 85.0 -166.0 99.0 -222.0C232.0 -300.0 335.0 -55.0 13.0 -61.0Z"/></g>
<g fill="green" transform="translate(700 100) scale(0.1 -0.1)"><path d="M-0.0 0.0 -66.0 31.0C-65.0 -167.0 -91.0 -538.0 -109.0 -692.0L-91.0 -652.0C-108.0 -657.0 -133.0 -667.0 -148.0 -677.0L-83.0 -730.0L-51.0 -698.0H-61.0C-41.0 -504.0 -23.0 -179.0 -18.0 5.0L-25.0 0.0ZM219.0 0.0H231.0C231.0 -493.0 228.0 -765.0 194.0 -806.0C185.0 -819.0 179.0 -820.0 157.0 -820.0C136.0 -820.0 77.0 -816.0 36.0 -811.0V-833.0C70.0 -837.0 107.0 -847.0 121.0 -855.0C133.0 -865.0 135.0 -881.0 135.0 -895.0C173.0 -895.0 212.0 -880.0 235.0 -842.0C274.0 -782.0 278.0 -528.0 279.0 -36.0C303.0 -35.0 316.0 -30.0 325.0 -20.0L252.0 39.0ZM300.0 -613.0 261.0 -666.0H-84.0V-699.0H344.0C358.0 -699.0 368.0 -694.0 372.0 -682.0C344.0 -652.0 300.0 -613.0 300.0 -613.0ZM325.0 -210.0 284.0 -266.0H-162.0L-142.0 -299.0H372.0C388.0 -299.0 397.0 -293.0 399.0 -281.0C372.0 -252.0 325.0 -210.0 325.0 -210.0ZM266.0 0.0H-31.0V-32.0H266.0ZM56.0 -415.0 40.0 -421.0C67.0 -467.0 95.0 -541.0 95.0 -595.0C140.0 -641.0 196.0 -535.0 56.0 -415.0ZM60.0 -81.0 46.0 -87.0C71.0 -129.0 98.0 -201.0 97.0 -252.0C144.0 -297.0 202.0 -191.0 60.0 -81.0Z"/></g>
<g fill="green" transform="translate(800 100) scale(0.1 -0.1)"><path d="M0.0 0.0 -160.0 68.0C-160.0 -120.0 -181.0 -516.0 -205.0 -682.0L-173.0 -639.0C-194.0 -648.0 -220.0 -665.0 -234.0 -679.0L-107.0 -748.0L-62.0 -687.0H-69.0C-49.0 -506.0 -30.0 -148.0 -27.0 7.0L-40.0 0.0ZM99.0 0.0H113.0C106.0 -521.0 96.0 -724.0 52.0 -766.0C40.0 -777.0 29.0 -781.0 13.0 -781.0C-8.0 -781.0 -48.0 -780.0 -75.0 -778.0V-792.0C-37.0 -803.0 -17.0 -816.0 -2.0 -837.0C10.0 -855.0 12.0 -883.0 12.0 -925.0C71.0 -925.0 125.0 -913.0 165.0 -868.0C229.0 -799.0 240.0 -651.0 247.0 -55.0C274.0 -51.0 289.0 -43.0 298.0 -33.0L175.0 79.0ZM269.0 -572.0 225.0 -656.0H-126.0V-687.0H316.0C330.0 -687.0 341.0 -682.0 343.0 -670.0C320.0 -632.0 269.0 -572.0 269.0 -572.0ZM268.0 -169.0 219.0 -262.0H-218.0L-196.0 -293.0H323.0C338.0 -293.0 348.0 -287.0 351.0 -275.0C326.0 -236.0 268.0 -169.0 268.0 -169.0ZM168.0 0.0H-53.0V-31.0H168.0ZM-21.0 -399.0 -32.0 -403.0C-22.0 -453.0 -22.0 -521.0 -37.0 -580.0C40.0 -692.0 207.0 -530.0 -21.0 -399.0ZM-15.0 -75.0 -27.0 -78.0C-14.0 -123.0 -3.0 -186.0 -10.0 -241.0C69.0 -335.0 210.0 -180.0 -15.0 -75.0Z"/></g>
<g fill="green" transform="translate(900 100) scale(0.1 -0.1)"><path d="M0.0 0.0 -65.0 31.0C-72.0 -152.0 -112.0 -492.0 -138.0 -634.0L-118.0 -596.0C-135.0 -599.0 -160.0 -610.0 -176.0 -619.0L-112.0 -672.0L-81.0 -642.0H-90.0C-64.0 -464.0 -30.0 -165.0 -18.0 5.0L-26.0 0.0ZM326.0 -1.0H338.0C329.0 -441.0 306.0 -722.0 261.0 -767.0C247.0 -781.0 240.0 -785.0 216.0 -785.0C194.0 -785.0 122.0 -776.0 76.0 -771.0L75.0 -794.0C113.0 -798.0 156.0 -809.0 170.0 -817.0C185.0 -827.0 189.0 -842.0 189.0 -857.0C231.0 -857.0 272.0 -841.0 299.0 -804.0C348.0 -741.0 375.0 -474.0 384.0 -36.0C407.0 -35.0 421.0 -30.0 429.0 -21.0L358.0 37.0ZM418.0 -554.0 377.0 -610.0H-116.0V-643.0H465.0C480.0 -643.0 489.0 -638.0 492.0 -626.0C465.0 -595.0 418.0 -554.0 418.0 -554.0ZM431.0 -351.0 393.0 -407.0H-215.0L-220.0 -439.0H476.0C490.0 -439.0 500.0 -433.0 502.0 -421.0C475.0 -391.0 431.0 -351.0 431.0 -351.0ZM368.0 -1.0H-44.0V-32.0H368.0ZM46.0 -385.0 33.0 -396.0C88.0 -437.0 154.0 -513.0 170.0 -573.0C227.0 -612.0 253.0 -479.0 46.0 -385.0ZM43.0 -71.0 31.0 -82.0C86.0 -121.0 152.0 -195.0 166.0 -255.0C221.0 -293.0 251.0 -159.0 43.0 -71.0Z"/></g>
<g fill="green" transform="translate(1000 100) scale(0.1 -0.1)"><path d="M0.0 0.0 -158.0 62.0C-160.0 -112.0 -187.0 -474.0 -213.0 -627.0L-181.0 -586.0C-202.0 -595.0 -228.0 -611.0 -242.0 -625.0L-117.0 -695.0L-71.0 -635.0H-79.0C-57.0 -469.0 -33.0 -140.0 -27.0 7.0L-39.0 0.0ZM194.0 0.0H207.0C201.0 -446.0 191.0 -638.0 152.0 -676.0C140.0 -686.0 130.0 -690.0 113.0 -690.0C91.0 -690.0 38.0 -687.0 2.0 -685.0L1.0 -698.0C45.0 -710.0 73.0 -725.0 90.0 -747.0C105.0 -766.0 107.0 -797.0 108.0 -843.0C172.0 -843.0 222.0 -827.0 261.0 -786.0C323.0 -721.0 335.0 -572.0 343.0 -55.0C369.0 -52.0 383.0 -43.0 392.0 -33.0L269.0 77.0ZM379.0 -528.0 330.0 -605.0H-174.0V-635.0H441.0C456.0 -635.0 466.0 -630.0 469.0 -618.0C438.0 -582.0 379.0 -528.0 379.0 -528.0ZM392.0 -321.0 345.0 -405.0H-271.0L-279.0 -435.0H443.0C458.0 -435.0 468.0 -429.0 471.0 -417.0C444.0 -378.0 392.0 -321.0 392.0 -321.0ZM301.0 0.0H-105.0V-30.0H301.0ZM-2.0 -361.0 -13.0 -367.0C13.0 -415.0 40.0 -488.0 42.0 -551.0C142.0 -632.0 244.0 -434.0 -2.0 -361.0ZM8.0 -60.0 -3.0 -66.0C25.0 -108.0 53.0 -172.0 57.0 -228.0C153.0 -302.0 249.0 -114.0 8.0 -60.0Z"/></g>
<g fill="red" transform="translate(100 200) scale(0.1 -0.1)"><path d="M0.0 0.0 -61.0 29.0C-65.0 -127.0 -94.0 -415.0 -113.0 -537.0L-95.0 -501.0C-111.0 -505.0 -134.0 -514.0 -148.0 -522.0L-88.0 -572.0L-60.0 -543.0H-69.0C-48.0 -393.0 -25.0 -139.0 -17.0 4.0L-24.0 0.0ZM190.0 -1.0H200.0C192.0 -385.0 171.0 -591.0 135.0 -629.0C123.0 -640.0 117.0 -642.0 97.0 -642.0C78.0 -642.0 25.0 -637.0 -10.0 -634.0L-11.0 -653.0C18.0 -657.0 50.0 -665.0 61.0 -672.0C73.0 -681.0 76.0 -695.0 76.0 -708.0C109.0 -708.0 145.0 -696.0 168.0 -664.0C210.0 -612.0 234.0 -416.0 242.0 -34.0C264.0 -33.0 276.0 -28.0 283.0 -20.0L219.0 33.0ZM251.0 -462.0 216.0 -514.0H-109.0V-544.0H290.0C304.0 -544.0 313.0 -539.0 315.0 -528.0C292.0 -500.0 251.0 -462.0 251.0 -462.0ZM269.0 -205.0 233.0 -254.0H-156.0L-148.0 -284.0H308.0C321.0 -284.0 330.0 -279.0 333.0 -268.0C309.0 -241.0 269.0 -205.0 269.0 -205.0ZM230.0 -1.0H-45.0V-31.0H230.0ZM19.0 -302.0 5.0 -309.0C37.0 -351.0 72.0 -422.0 74.0 -474.0C117.0 -514.0 158.0 -409.0 19.0 -302.0ZM24.0 -54.0 11.0 -61.0C44.0 -100.0 82.0 -167.0 85.0 -218.0C127.0 -255.0 167.0 -152.0 24.0 -54.0Z"/></g>
<g fill="black" opacity=".8" transform="translate(100 200) scale(0.1 -0.1)"><path d="M0.0 0.0 -61.0 29.0C-64.0 -127.0 -91.0 -416.0 -109.0 -537.0L-92.0 -501.0C-108.0 -505.0 -130.0 -515.0 -145.0 -523.0L-86.0 -573.0L-57.0 -544.0H-65.0C-46.0 -393.0 -25.0 -139.0 -17.0 5.0L-23.0 0.0ZM186.0 -1.0H197.0C191.0 -382.0 175.0 -601.0 139.0 -638.0C129.0 -650.0 123.0 -652.0 101.0 -652.0C83.0 -652.0 24.0 -646.0 -15.0 -642.0L-14.0 -662.0C17.0 -665.0 52.0 -675.0 64.0 -682.0C76.0 -690.0 80.0 -705.0 80.0 -718.0C114.0 -718.0 151.0 -705.0 173.0 -673.0C214.0 -621.0 233.0 -413.0 240.0 -33.0C261.0 -33.0 274.0 -28.0 281.0 -20.0L216.0 33.0ZM257.0 -464.0 221.0 -514.0H-98.0V-545.0H299.0C312.0 -545.0 321.0 -540.0 324.0 -529.0C299.0 -502.0 257.0 -464.0 257.0 -464.0ZM265.0 -206.0 229.0 -256.0H-152.0L-146.0 -286.0H306.0C320.0 -286.0 329.0 -280.0 331.0 -269.0C306.0 -243.0 265.0 -206.0 265.0 -206.0ZM229.0 -1.0H-41.0V-30.0H229.0ZM18.0 -310.0 5.0 -318.0C40.0 -357.0 79.0 -425.0 83.0 -476.0C127.0 -515.0 165.0 -409.0 18.0 -310.0ZM21.0 -56.0 9.0 -64.0C43.0 -100.0 82.0 -165.0 87.0 -215.0C130.0 -251.0 169.0 -149.0 21.0 -56.0Z"/></g>
<g fill="red" transform="translate(200 200) scale(0.1 -0.1)"><path d="M0.0 0.0 -137.0 50.0C-137.0 -98.0 -155.0 -405.0 -173.0 -534.0L-146.0 -496.0C-165.0 -503.0 -189.0 -518.0 -202.0 -531.0L-92.0 -592.0L-52.0 -540.0H-60.0C-43.0 -398.0 -27.0 -123.0 -24.0 6.0L-36.0 0.0ZM93.0 0.0H105.0C97.0 -405.0 84.0 -558.0 49.0 -592.0C39.0 -601.0 30.0 -604.0 15.0 -604.0C-3.0 -604.0 -36.0 -603.0 -59.0 -601.0L-60.0 -615.0C-29.0 -623.0 -13.0 -632.0 0.0 -650.0C10.0 -664.0 12.0 -685.0 12.0 -712.0C61.0 -712.0 107.0 -707.0 140.0 -673.0C192.0 -619.0 207.0 -504.0 216.0 -48.0C239.0 -44.0 252.0 -38.0 260.0 -29.0L155.0 64.0ZM235.0 -442.0 195.0 -512.0H-102.0V-540.0H281.0C294.0 -540.0 304.0 -535.0 306.0 -524.0C282.0 -492.0 235.0 -442.0 235.0 -442.0ZM243.0 -174.0 199.0 -254.0H-191.0L-183.0 -282.0H292.0C306.0 -282.0 315.0 -277.0 318.0 -266.0C293.0 -230.0 243.0 -174.0 243.0 -174.0ZM203.0 0.0H-48.0V-28.0H203.0ZM-18.0 -291.0 -30.0 -295.0C-16.0 -341.0 -5.0 -407.0 -11.0 -462.0C54.0 -538.0 157.0 -398.0 -18.0 -291.0ZM-9.0 -62.0 -21.0 -66.0C-6.0 -105.0 8.0 -163.0 6.0 -210.0C69.0 -276.0 162.0 -149.0 -9.0 -62.0Z"/></g>
<g fill="black" opacity=".8" transform="translate(200 200) scale(0.1 -0.1)"><path d="M0.0 0.0 -136.0 53.0C-136.0 -95.0 -158.0 -401.0 -178.0 -529.0L-149.0 -491.0C-168.0 -499.0 -192.0 -514.0 -204.0 -526.0L-96.0 -588.0L-56.0 -536.0H-64.0C-45.0 -394.0 -27.0 -120.0 -24.0 6.0L-35.0 0.0ZM91.0 0.0H103.0C95.0 -393.0 82.0 -549.0 48.0 -583.0C37.0 -592.0 29.0 -596.0 13.0 -596.0C-5.0 -596.0 -44.0 -593.0 -70.0 -592.0L-71.0 -605.0C-37.0 -615.0 -18.0 -625.0 -4.0 -642.0C7.0 -658.0 8.0 -682.0 9.0 -714.0C61.0 -714.0 105.0 -705.0 138.0 -670.0C192.0 -617.0 207.0 -494.0 216.0 -48.0C239.0 -45.0 252.0 -38.0 260.0 -29.0L154.0 65.0ZM238.0 -441.0 199.0 -508.0H-109.0V-536.0H281.0C294.0 -536.0 304.0 -531.0 306.0 -520.0C283.0 -488.0 238.0 -441.0 238.0 -441.0ZM234.0 -174.0 191.0 -252.0H-188.0L-184.0 -279.0H281.0C295.0 -279.0 304.0 -274.0 306.0 -263.0C283.0 -228.0 234.0 -174.0 234.0 -174.0ZM187.0 0.0H-58.0V-28.0H187.0ZM-19.0 -296.0 -30.0 -300.0C-16.0 -342.0 -5.0 -404.0 -13.0 -456.0C53.0 -533.0 161.0 -393.0 -19.0 -296.0ZM-10.0 -60.0 -22.0 -64.0C-5.0 -100.0 11.0 -154.0 8.0 -200.0C75.0 -266.0 169.0 -132.0 -10.0 -60.0Z"/></g>
<g fill="red" transform="translate(300 200) scale(0.1 -0.1)"><path d="M0.0 0.0 -60.0 29.0C-62.0 -157.0 -92.0 -503.0 -111.0 -647.0L-93.0 -612.0C-109.0 -616.0 -133.0 -625.0 -146.0 -633.0L-87.0 -682.0L-58.0 -654.0H-67.0C-45.0 -472.0 -23.0 -168.0 -16.0 5.0L-23.0 0.0ZM276.0 1.0H287.0C284.0 -460.0 276.0 -727.0 239.0 -768.0C229.0 -780.0 223.0 -783.0 202.0 -783.0C182.0 -783.0 122.0 -776.0 83.0 -772.0L82.0 -792.0C116.0 -797.0 152.0 -806.0 165.0 -814.0C177.0 -823.0 180.0 -837.0 180.0 -851.0C217.0 -851.0 254.0 -836.0 277.0 -801.0C317.0 -742.0 327.0 -491.0 330.0 -33.0C353.0 -31.0 365.0 -26.0 373.0 -18.0L306.0 37.0ZM358.0 -574.0 321.0 -624.0H-82.0V-654.0H401.0C415.0 -654.0 423.0 -649.0 426.0 -638.0C401.0 -610.0 358.0 -574.0 358.0 -574.0ZM387.0 -265.0 349.0 -317.0H-169.0L-161.0 -347.0H429.0C443.0 -347.0 452.0 -342.0 455.0 -331.0C429.0 -303.0 387.0 -265.0 387.0 -265.0ZM322.0 1.0H-24.0V-29.0H322.0ZM55.0 -399.0 42.0 -407.0C81.0 -446.0 127.0 -514.0 137.0 -565.0C185.0 -602.0 222.0 -492.0 55.0 -399.0ZM63.0 -80.0 50.0 -88.0C89.0 -126.0 133.0 -192.0 141.0 -244.0C190.0 -283.0 230.0 -169.0 63.0 -80.0Z"/></g>
<g fill="black" opacity=".8" transform="translate(300 200) scale(0.1 -0.1)"><path d="M0.0 0.0 -60.0 28.0C-62.0 -157.0 -92.0 -503.0 -113.0 -647.0L-95.0 -611.0C-111.0 -615.0 -134.0 -625.0 -148.0 -634.0L-89.0 -682.0L-60.0 -653.0H-69.0C-47.0 -472.0 -24.0 -168.0 -17.0 5.0L-23.0 0.0ZM274.0 -0.0H285.0C282.0 -455.0 275.0 -725.0 239.0 -765.0C229.0 -778.0 223.0 -780.0 202.0 -780.0C182.0 -780.0 122.0 -774.0 82.0 -769.0L81.0 -790.0C115.0 -794.0 152.0 -803.0 165.0 -811.0C177.0 -820.0 180.0 -834.0 180.0 -848.0C217.0 -848.0 254.0 -833.0 277.0 -798.0C315.0 -739.0 325.0 -486.0 328.0 -33.0C350.0 -32.0 362.0 -27.0 371.0 -18.0L304.0 36.0ZM357.0 -575.0 320.0 -624.0H-86.0V-654.0H398.0C412.0 -654.0 421.0 -650.0 424.0 -639.0C398.0 -611.0 357.0 -575.0 357.0 -575.0ZM380.0 -265.0 343.0 -317.0H-178.0L-168.0 -347.0H423.0C437.0 -347.0 446.0 -342.0 447.0 -331.0C422.0 -303.0 380.0 -265.0 380.0 -265.0ZM314.0 -0.0H-30.0V-29.0H314.0ZM62.0 -397.0 49.0 -405.0C85.0 -445.0 128.0 -514.0 135.0 -567.0C182.0 -606.0 222.0 -496.0 62.0 -397.0ZM62.0 -77.0 50.0 -85.0C86.0 -122.0 127.0 -190.0 133.0 -241.0C181.0 -280.0 224.0 -169.0 62.0 -77.0Z"/></g>
<g fill="red" transform="translate(400 200) scale(0.1 -0.1)"><path d="M0.0 0.0 -151.0 64.0C-150.0 -112.0 -170.0 -483.0 -192.0 -639.0L-163.0 -600.0C-183.0 -608.0 -206.0 -624.0 -220.0 -638.0L-100.0 -701.0L-58.0 -644.0H-65.0C-46.0 -475.0 -29.0 -138.0 -26.0 7.0L-38.0 0.0ZM142.0 0.0H155.0C151.0 -473.0 146.0 -667.0 107.0 -705.0C97.0 -715.0 86.0 -719.0 71.0 -719.0C50.0 -719.0 6.0 -717.0 -25.0 -715.0V-727.0C15.0 -738.0 39.0 -752.0 54.0 -774.0C66.0 -791.0 70.0 -821.0 69.0 -867.0C128.0 -867.0 178.0 -851.0 216.0 -809.0C275.0 -743.0 281.0 -601.0 286.0 -52.0C310.0 -48.0 324.0 -41.0 332.0 -31.0L215.0 76.0ZM312.0 -538.0 267.0 -616.0H-161.0V-644.0H364.0C378.0 -644.0 387.0 -639.0 390.0 -628.0C364.0 -593.0 312.0 -538.0 312.0 -538.0ZM325.0 -232.0 280.0 -315.0H-237.0L-229.0 -343.0H376.0C390.0 -343.0 399.0 -338.0 402.0 -327.0C377.0 -290.0 325.0 -232.0 325.0 -232.0ZM224.0 0.0H-79.0V-28.0H224.0ZM-11.0 -379.0 -21.0 -383.0C-6.0 -426.0 4.0 -486.0 -3.0 -540.0C83.0 -636.0 222.0 -466.0 -11.0 -379.0ZM1.0 -67.0 -9.0 -71.0C8.0 -112.0 23.0 -171.0 20.0 -223.0C106.0 -309.0 230.0 -143.0 1.0 -67.0Z"/></g>
<g fill="black" opacity=".8" transform="translate(400 200) scale(0.1 -0.1)"><path d="M0.0 0.0 -151.0 64.0C-152.0 -112.0 -174.0 -483.0 -199.0 -639.0L-169.0 -601.0C-188.0 -609.0 -212.0 -624.0 -225.0 -638.0L-105.0 -702.0L-63.0 -645.0H-69.0C-50.0 -476.0 -29.0 -138.0 -25.0 7.0L-37.0 0.0ZM149.0 0.0H161.0C156.0 -474.0 149.0 -668.0 109.0 -707.0C98.0 -717.0 87.0 -721.0 72.0 -721.0C52.0 -721.0 9.0 -719.0 -21.0 -717.0V-729.0C18.0 -740.0 40.0 -754.0 56.0 -775.0C68.0 -793.0 71.0 -821.0 71.0 -865.0C129.0 -865.0 179.0 -851.0 217.0 -809.0C277.0 -743.0 285.0 -600.0 291.0 -52.0C315.0 -48.0 329.0 -40.0 337.0 -31.0L221.0 75.0ZM319.0 -539.0 274.0 -617.0H-148.0V-645.0H371.0C384.0 -645.0 394.0 -640.0 396.0 -629.0C371.0 -594.0 319.0 -539.0 319.0 -539.0ZM327.0 -231.0 282.0 -315.0H-237.0L-226.0 -343.0H377.0C391.0 -343.0 400.0 -338.0 403.0 -327.0C379.0 -290.0 327.0 -231.0 327.0 -231.0ZM218.0 0.0H-76.0V-28.0H218.0ZM-8.0 -378.0 -18.0 -382.0C-2.0 -429.0 10.0 -494.0 4.0 -552.0C91.0 -648.0 227.0 -473.0 -8.0 -378.0ZM-2.0 -64.0 -12.0 -68.0C7.0 -110.0 25.0 -170.0 23.0 -223.0C109.0 -307.0 228.0 -141.0 -2.0 -64.0Z"/></g>
<g fill="red" transform="translate(500 200) scale(0.1 -0.1)"><path d="M0.0 0.0 -60.0 29.0C-65.0 -157.0 -99.0 -502.0 -122.0 -647.0L-104.0 -611.0C-120.0 -615.0 -144.0 -625.0 -157.0 -633.0L-97.0 -682.0L-69.0 -654.0H-79.0C-54.0 -472.0 -25.0 -168.0 -17.0 5.0L-23.0 0.0ZM297.0 0.0H308.0C303.0 -449.0 292.0 -726.0 254.0 -769.0C242.0 -781.0 237.0 -784.0 215.0 -784.0C195.0 -784.0 132.0 -777.0 89.0 -772.0L88.0 -792.0C124.0 -798.0 162.0 -806.0 176.0 -815.0C189.0 -824.0 191.0 -838.0 191.0 -852.0C230.0 -852.0 269.0 -837.0 292.0 -802.0C334.0 -741.0 347.0 -479.0 351.0 -34.0C374.0 -32.0 386.0 -27.0 394.0 -19.0L327.0 36.0ZM372.0 -575.0 335.0 -625.0H-100.0V-655.0H415.0C429.0 -655.0 438.0 -650.0 441.0 -639.0C415.0 -611.0 372.0 -575.0 372.0 -575.0ZM391.0 -266.0 353.0 -318.0H-165.0L-157.0 -348.0H433.0C447.0 -348.0 456.0 -343.0 459.0 -332.0C433.0 -304.0 391.0 -266.0 391.0 -266.0ZM326.0 0.0H-34.0V-30.0H326.0ZM62.0 -399.0 49.0 -407.0C91.0 -449.0 143.0 -521.0 155.0 -575.0C204.0 -613.0 240.0 -499.0 62.0 -399.0ZM60.0 -76.0 48.0 -84.0C89.0 -124.0 138.0 -193.0 147.0 -245.0C198.0 -285.0 236.0 -168.0 60.0 -76.0Z"/></g>
<g fill="black" opacity=".8" transform="translate(500 200) scale(0.1 -0.1)"><path d="M0.0 0.0 -61.0 29.0C-65.0 -157.0 -97.0 -504.0 -118.0 -649.0L-101.0 -612.0C-117.0 -616.0 -140.0 -626.0 -154.0 -635.0L-94.0 -684.0L-64.0 -655.0H-73.0C-51.0 -473.0 -25.0 -168.0 -17.0 5.0L-24.0 0.0ZM289.0 -0.0H300.0C297.0 -455.0 287.0 -728.0 249.0 -769.0C238.0 -782.0 232.0 -784.0 211.0 -784.0C190.0 -784.0 127.0 -778.0 86.0 -773.0L85.0 -795.0C120.0 -799.0 158.0 -809.0 172.0 -816.0C185.0 -826.0 187.0 -840.0 187.0 -854.0C226.0 -854.0 264.0 -839.0 287.0 -803.0C328.0 -744.0 341.0 -487.0 345.0 -34.0C367.0 -33.0 380.0 -28.0 388.0 -19.0L320.0 36.0ZM375.0 -575.0 337.0 -625.0H-92.0V-656.0H419.0C432.0 -656.0 441.0 -652.0 445.0 -640.0C418.0 -611.0 375.0 -575.0 375.0 -575.0ZM396.0 -262.0 359.0 -316.0H-181.0L-174.0 -346.0H440.0C455.0 -346.0 464.0 -341.0 466.0 -329.0C440.0 -301.0 396.0 -262.0 396.0 -262.0ZM330.0 -0.0H-33.0V-30.0H330.0ZM61.0 -397.0 48.0 -406.0C88.0 -446.0 135.0 -517.0 144.0 -570.0C194.0 -610.0 231.0 -496.0 61.0 -397.0ZM62.0 -77.0 50.0 -85.0C89.0 -123.0 135.0 -192.0 142.0 -244.0C192.0 -284.0 233.0 -168.0 62.0 -77.0Z"/></g>
<g fill="red" transform="translate(600 200) scale(0.1 -0.1)"><path d="M0.0 0.0 -153.0 65.0C-159.0 -111.0 -193.0 -481.0 -224.0 -637.0L-193.0 -599.0C-214.0 -607.0 -238.0 -622.0 -252.0 -636.0L-130.0 -702.0L-87.0 -645.0H-94.0C-69.0 -477.0 -35.0 -139.0 -25.0 6.0L-37.0 0.0ZM171.0 0.0H184.0C175.0 -467.0 162.0 -668.0 117.0 -709.0C106.0 -719.0 95.0 -723.0 79.0 -723.0C57.0 -723.0 12.0 -721.0 -20.0 -718.0L-21.0 -730.0C20.0 -741.0 44.0 -756.0 59.0 -778.0C71.0 -796.0 74.0 -826.0 74.0 -871.0C135.0 -871.0 185.0 -856.0 225.0 -813.0C289.0 -744.0 304.0 -592.0 314.0 -53.0C339.0 -49.0 354.0 -41.0 362.0 -31.0L245.0 76.0ZM333.0 -539.0 289.0 -617.0H-144.0V-645.0H386.0C399.0 -645.0 409.0 -640.0 411.0 -629.0C385.0 -594.0 333.0 -539.0 333.0 -539.0ZM340.0 -231.0 295.0 -314.0H-226.0L-218.0 -342.0H392.0C405.0 -342.0 415.0 -337.0 417.0 -326.0C392.0 -289.0 340.0 -231.0 340.0 -231.0ZM218.0 0.0H-85.0V-28.0H218.0ZM-7.0 -378.0 -17.0 -382.0C2.0 -433.0 15.0 -503.0 9.0 -565.0C101.0 -664.0 236.0 -478.0 -7.0 -378.0ZM-1.0 -61.0 -11.0 -66.0C12.0 -110.0 36.0 -175.0 38.0 -231.0C131.0 -314.0 243.0 -133.0 -1.0 -61.0Z"/></g>
<g fill="black" opacity=".8" transform="translate(600 200) scale(0.1 -0.1)"><path d="M0.0 0.0 -155.0 65.0C-156.0 -112.0 -180.0 -484.0 -205.0 -641.0L-174.0 -602.0C-194.0 -610.0 -219.0 -626.0 -232.0 -640.0L-110.0 -706.0L-66.0 -647.0H-73.0C-52.0 -478.0 -31.0 -139.0 -26.0 7.0L-38.0 0.0ZM160.0 0.0H173.0C168.0 -473.0 160.0 -668.0 119.0 -707.0C108.0 -717.0 98.0 -721.0 82.0 -721.0C61.0 -721.0 16.0 -719.0 -16.0 -717.0V-729.0C25.0 -741.0 48.0 -755.0 64.0 -776.0C77.0 -794.0 80.0 -824.0 80.0 -869.0C140.0 -869.0 191.0 -854.0 229.0 -811.0C290.0 -745.0 299.0 -600.0 306.0 -53.0C331.0 -50.0 345.0 -41.0 353.0 -32.0L234.0 76.0ZM335.0 -539.0 289.0 -619.0H-154.0V-647.0H390.0C404.0 -647.0 414.0 -643.0 417.0 -631.0C390.0 -595.0 335.0 -539.0 335.0 -539.0ZM342.0 -228.0 295.0 -314.0H-240.0L-233.0 -343.0H395.0C410.0 -343.0 419.0 -337.0 422.0 -325.0C396.0 -288.0 342.0 -228.0 342.0 -228.0ZM236.0 0.0H-82.0V-29.0H236.0ZM-8.0 -378.0 -17.0 -382.0C1.0 -429.0 16.0 -496.0 11.0 -555.0C102.0 -650.0 235.0 -468.0 -8.0 -378.0ZM-0.0 -64.0 -10.0 -68.0C10.0 -111.0 30.0 -172.0 30.0 -226.0C119.0 -309.0 236.0 -136.0 -0.0 -64.0Z"/></g>
<g fill="red" transform="translate(700 200) scale(0.1 -0.1)"><path d="M0.0 0.0 -60.0 30.0C-64.0 -112.0 -93.0 -374.0 -110.0 -484.0L-93.0 -449.0C-108.0 -453.0 -131.0 -462.0 -145.0 -470.0L-85.0 -520.0L-57.0 -491.0H-66.0C-46.0 -355.0 -24.0 -125.0 -16.0 5.0L-23.0 0.0ZM250.0 0.0H261.0C256.0 -337.0 244.0 -537.0 213.0 -570.0C204.0 -581.0 197.0 -583.0 177.0 -583.0C158.0 -583.0 96.0 -577.0 57.0 -573.0L56.0 -592.0C89.0 -597.0 127.0 -605.0 140.0 -613.0C152.0 -622.0 155.0 -635.0 155.0 -649.0C190.0 -649.0 226.0 -637.0 248.0 -608.0C286.0 -560.0 300.0 -369.0 305.0 -33.0C326.0 -32.0 338.0 -27.0 345.0 -19.0L280.0 34.0ZM357.0 -414.0 319.0 -462.0H-98.0V-492.0H402.0C415.0 -492.0 425.0 -487.0 427.0 -476.0C401.0 -449.0 357.0 -414.0 357.0 -414.0ZM328.0 180.0 287.0 130.0H-56.0V100.0H378.0C391.0 100.0 401.0 105.0 404.0 116.0C375.0 144.0 328.0 180.0 328.0 180.0ZM294.0 0.0H-52.0V-30.0H294.0ZM45.0 -280.0 33.0 -288.0C67.0 -319.0 110.0 -374.0 123.0 -413.0C167.0 -445.0 199.0 -351.0 45.0 -280.0ZM62.0 -62.0 50.0 -70.0C83.0 -98.0 124.0 -148.0 137.0 -184.0C180.0 -213.0 211.0 -125.0 62.0 -62.0Z"/></g>
<g fill="black" opacity=".8" transform="translate(700 200) scale(0.1 -0.1)"><path d="M0.0 0.0 -63.0 31.0C-68.0 -110.0 -98.0 -370.0 -117.0 -479.0L-99.0 -442.0C-115.0 -446.0 -138.0 -455.0 -153.0 -465.0L-92.0 -516.0L-62.0 -486.0H-71.0C-51.0 -352.0 -26.0 -124.0 -16.0 5.0L-24.0 0.0ZM257.0 -0.0H269.0C264.0 -328.0 250.0 -524.0 219.0 -556.0C209.0 -568.0 202.0 -568.0 182.0 -568.0C161.0 -568.0 96.0 -564.0 57.0 -560.0V-579.0C89.0 -583.0 129.0 -592.0 143.0 -600.0C155.0 -609.0 158.0 -625.0 158.0 -637.0C193.0 -638.0 231.0 -626.0 253.0 -596.0C293.0 -549.0 309.0 -363.0 314.0 -34.0C336.0 -33.0 349.0 -29.0 356.0 -20.0L288.0 35.0ZM352.0 -407.0 313.0 -455.0H-100.0V-486.0H397.0C411.0 -486.0 421.0 -482.0 424.0 -470.0C395.0 -443.0 352.0 -407.0 352.0 -407.0ZM343.0 183.0 301.0 130.0H-52.0L-55.0 99.0H395.0C410.0 99.0 419.0 104.0 421.0 116.0C391.0 145.0 343.0 183.0 343.0 183.0ZM301.0 -0.0H-45.0V-31.0H301.0ZM39.0 -274.0 27.0 -282.0C65.0 -315.0 112.0 -373.0 125.0 -417.0C171.0 -450.0 202.0 -349.0 39.0 -274.0ZM60.0 -55.0 48.0 -65.0C84.0 -94.0 128.0 -148.0 141.0 -188.0C186.0 -217.0 217.0 -125.0 60.0 -55.0Z"/></g>
<g fill="red" transform="translate(800 200) scale(0.1 -0.1)"><path d="M0.0 0.0 -153.0 73.0C-157.0 -62.0 -182.0 -347.0 -205.0 -468.0L-174.0 -430.0C-194.0 -438.0 -219.0 -454.0 -232.0 -468.0L-111.0 -533.0L-68.0 -476.0H-75.0C-56.0 -351.0 -32.0 -98.0 -25.0 7.0L-39.0 0.0ZM148.0 0.0H160.0C151.0 -353.0 137.0 -502.0 102.0 -534.0C93.0 -543.0 83.0 -546.0 68.0 -546.0C48.0 -546.0 7.0 -544.0 -20.0 -542.0V-554.0C15.0 -564.0 35.0 -575.0 49.0 -595.0C61.0 -611.0 63.0 -636.0 63.0 -671.0C120.0 -670.0 166.0 -663.0 202.0 -628.0C258.0 -574.0 275.0 -458.0 285.0 -50.0C308.0 -47.0 321.0 -40.0 329.0 -31.0L216.0 69.0ZM310.0 -363.0 260.0 -448.0H-98.0V-476.0H370.0C384.0 -476.0 394.0 -471.0 396.0 -460.0C367.0 -422.0 310.0 -363.0 310.0 -363.0ZM250.0 227.0 183.0 135.0H-100.0V107.0H341.0C356.0 107.0 367.0 112.0 370.0 123.0C325.0 165.0 250.0 227.0 250.0 227.0ZM224.0 0.0H-65.0V-28.0H224.0ZM-22.0 -262.0 -31.0 -267.0C-8.0 -301.0 12.0 -354.0 12.0 -401.0C101.0 -479.0 212.0 -305.0 -22.0 -262.0ZM-8.0 -49.0 -17.0 -54.0C4.0 -86.0 27.0 -137.0 32.0 -181.0C120.0 -249.0 218.0 -85.0 -8.0 -49.0Z"/></g>
<g fill="black" opacity=".8" transform="translate(800 200) scale(0.1 -0.1)"><path d="M0.0 0.0 -154.0 74.0C-159.0 -64.0 -187.0 -353.0 -212.0 -475.0L-179.0 -436.0C-200.0 -444.0 -226.0 -460.0 -239.0 -474.0L-117.0 -542.0L-73.0 -483.0H-80.0C-59.0 -355.0 -33.0 -101.0 -26.0 7.0L-39.0 0.0ZM142.0 0.0H155.0C145.0 -355.0 128.0 -505.0 93.0 -537.0C83.0 -547.0 74.0 -551.0 58.0 -551.0C39.0 -551.0 -5.0 -548.0 -33.0 -546.0V-559.0C3.0 -570.0 23.0 -581.0 39.0 -599.0C51.0 -615.0 52.0 -642.0 53.0 -675.0C110.0 -675.0 157.0 -667.0 193.0 -633.0C251.0 -580.0 269.0 -459.0 280.0 -51.0C304.0 -48.0 317.0 -40.0 326.0 -32.0L211.0 69.0ZM301.0 -373.0 251.0 -454.0H-117.0V-483.0H359.0C372.0 -483.0 384.0 -478.0 385.0 -467.0C357.0 -430.0 301.0 -373.0 301.0 -373.0ZM252.0 223.0 184.0 131.0H-96.0L-99.0 101.0H343.0C359.0 101.0 370.0 108.0 373.0 119.0C328.0 161.0 252.0 223.0 252.0 223.0ZM223.0 0.0H-65.0V-30.0H223.0ZM-26.0 -272.0 -35.0 -278.0C-13.0 -311.0 7.0 -365.0 8.0 -411.0C95.0 -487.0 204.0 -315.0 -26.0 -272.0ZM-10.0 -61.0 -19.0 -65.0C2.0 -96.0 26.0 -146.0 29.0 -190.0C116.0 -257.0 213.0 -93.0 -10.0 -61.0Z"/></g>
<g fill="red" transform="translate(900 200) scale(0.1 -0.1)"><path d="M0.0 0.0 -60.0 30.0C-73.0 -112.0 -118.0 -373.0 -146.0 -483.0L-126.0 -449.0C-142.0 -452.0 -166.0 -461.0 -179.0 -469.0L-121.0 -520.0L-93.0 -491.0H-101.0C-73.0 -356.0 -31.0 -125.0 -16.0 5.0L-24.0 0.0ZM427.0 0.0H438.0C428.0 -317.0 403.0 -536.0 363.0 -573.0C350.0 -584.0 342.0 -587.0 322.0 -587.0C300.0 -587.0 229.0 -580.0 187.0 -575.0L186.0 -595.0C221.0 -600.0 264.0 -609.0 277.0 -617.0C291.0 -626.0 294.0 -639.0 294.0 -653.0C334.0 -653.0 371.0 -640.0 397.0 -611.0C442.0 -559.0 471.0 -349.0 481.0 -33.0C502.0 -32.0 515.0 -27.0 522.0 -19.0L457.0 34.0ZM537.0 -413.0 497.0 -462.0H-123.0V-492.0H585.0C599.0 -492.0 608.0 -487.0 611.0 -476.0C582.0 -448.0 537.0 -413.0 537.0 -413.0ZM522.0 184.0 481.0 133.0H-56.0L-77.0 103.0H574.0C587.0 103.0 597.0 108.0 599.0 119.0C569.0 149.0 522.0 184.0 522.0 184.0ZM465.0 0.0H-50.0V-30.0H465.0ZM71.0 -293.0 62.0 -305.0C119.0 -331.0 195.0 -387.0 222.0 -431.0C278.0 -456.0 287.0 -338.0 71.0 -293.0ZM94.0 -63.0 85.0 -75.0C141.0 -100.0 214.0 -152.0 241.0 -194.0C295.0 -217.0 303.0 -104.0 94.0 -63.0Z"/></g>
<g fill="black" opacity=".8" transform="translate(900 200) scale(0.1 -0.1)"><path d="M0.0 0.0 -60.0 30.0C-72.0 -112.0 -114.0 -373.0 -140.0 -483.0L-121.0 -447.0C-138.0 -451.0 -160.0 -460.0 -175.0 -469.0L-116.0 -520.0L-87.0 -491.0H-95.0C-69.0 -356.0 -30.0 -125.0 -16.0 5.0L-24.0 0.0ZM419.0 -0.0H430.0C422.0 -315.0 402.0 -541.0 364.0 -576.0C352.0 -589.0 344.0 -590.0 324.0 -590.0C301.0 -590.0 225.0 -583.0 181.0 -578.0L180.0 -599.0C216.0 -603.0 263.0 -613.0 277.0 -621.0C292.0 -631.0 295.0 -645.0 295.0 -658.0C335.0 -659.0 374.0 -645.0 399.0 -615.0C442.0 -564.0 467.0 -349.0 475.0 -34.0C496.0 -32.0 509.0 -28.0 517.0 -19.0L450.0 35.0ZM536.0 -414.0 496.0 -461.0H-112.0V-492.0H585.0C599.0 -492.0 609.0 -487.0 612.0 -476.0C582.0 -448.0 536.0 -414.0 536.0 -414.0ZM524.0 184.0 483.0 132.0H-69.0L-90.0 101.0H579.0C593.0 101.0 603.0 106.0 605.0 117.0C573.0 147.0 524.0 184.0 524.0 184.0ZM457.0 -0.0H-46.0V-30.0H457.0ZM71.0 -295.0 61.0 -307.0C121.0 -333.0 200.0 -389.0 229.0 -435.0C286.0 -460.0 294.0 -341.0 71.0 -295.0ZM92.0 -61.0 82.0 -75.0C139.0 -99.0 213.0 -152.0 241.0 -194.0C296.0 -217.0 305.0 -105.0 92.0 -61.0Z"/></g>
<g fill="red" transform="translate(1000 200) scale(0.1 -0.1)"><path d="M0.0 0.0 -166.0 80.0C-173.0 -60.0 -206.0 -358.0 -235.0 -486.0L-201.0 -447.0C-222.0 -456.0 -247.0 -472.0 -261.0 -488.0L-131.0 -556.0L-85.0 -495.0H-92.0C-70.0 -366.0 -37.0 -99.0 -27.0 8.0L-41.0 0.0ZM266.0 0.0H278.0C270.0 -344.0 258.0 -506.0 223.0 -538.0C214.0 -546.0 204.0 -550.0 188.0 -550.0C166.0 -550.0 113.0 -547.0 78.0 -545.0V-556.0C121.0 -567.0 147.0 -581.0 164.0 -603.0C179.0 -622.0 182.0 -651.0 182.0 -692.0C248.0 -692.0 296.0 -681.0 334.0 -645.0C394.0 -588.0 408.0 -461.0 417.0 -53.0C441.0 -50.0 454.0 -42.0 462.0 -33.0L341.0 75.0ZM455.0 -379.0 393.0 -467.0H-170.0V-495.0H538.0C552.0 -495.0 562.0 -490.0 565.0 -479.0C525.0 -439.0 455.0 -379.0 455.0 -379.0ZM409.0 220.0 332.0 125.0H-138.0L-158.0 97.0H518.0C533.0 97.0 545.0 102.0 548.0 113.0C493.0 159.0 409.0 220.0 409.0 220.0ZM370.0 0.0H-124.0V-28.0H370.0ZM-11.0 -284.0 -18.0 -290.0C17.0 -325.0 61.0 -384.0 79.0 -437.0C205.0 -502.0 287.0 -270.0 -11.0 -284.0ZM10.0 -49.0 3.0 -55.0C34.0 -89.0 72.0 -145.0 86.0 -195.0C202.0 -261.0 289.0 -48.0 10.0 -49.0Z"/></g>
<g fill="black" opacity=".8" transform="translate(1000 200) scale(0.1 -0.1)"><path d="M0.0 0.0 -167.0 83.0C-175.0 -58.0 -211.0 -356.0 -242.0 -483.0L-206.0 -445.0C-228.0 -454.0 -254.0 -469.0 -267.0 -485.0L-137.0 -556.0L-90.0 -493.0H-96.0C-73.0 -364.0 -39.0 -99.0 -27.0 8.0L-41.0 0.0ZM268.0 0.0H281.0C273.0 -337.0 259.0 -501.0 225.0 -532.0C215.0 -541.0 205.0 -546.0 188.0 -546.0C167.0 -546.0 110.0 -542.0 72.0 -540.0V-551.0C117.0 -563.0 145.0 -578.0 163.0 -599.0C178.0 -619.0 181.0 -651.0 182.0 -695.0C249.0 -695.0 296.0 -680.0 334.0 -645.0C396.0 -588.0 411.0 -455.0 421.0 -53.0C445.0 -51.0 459.0 -42.0 467.0 -34.0L344.0 75.0ZM456.0 -378.0 395.0 -465.0H-180.0V-493.0H535.0C550.0 -493.0 560.0 -488.0 563.0 -477.0C524.0 -438.0 456.0 -378.0 456.0 -378.0ZM408.0 221.0 332.0 128.0H-131.0L-153.0 99.0H515.0C530.0 99.0 543.0 105.0 546.0 116.0C492.0 161.0 408.0 221.0 408.0 221.0ZM350.0 0.0H-117.0V-28.0H350.0ZM-7.0 -289.0 -14.0 -296.0C23.0 -327.0 67.0 -383.0 84.0 -433.0C209.0 -498.0 290.0 -267.0 -7.0 -289.0ZM13.0 -52.0 7.0 -58.0C40.0 -89.0 81.0 -142.0 95.0 -190.0C213.0 -253.0 295.0 -35.0 13.0 -52.0Z"/></g>
<g fill="red" transform="translate(1100 200) scale(0.1 -0.1)"><path d="M0.0 0.0 -60.0 30.0C-69.0 -88.0 -103.0 -306.0 -124.0 -398.0L-104.0 -363.0C-121.0 -367.0 -145.0 -376.0 -159.0 -384.0L-99.0 -434.0L-71.0 -406.0H-80.0C-58.0 -294.0 -27.0 -103.0 -16.0 5.0L-24.0 0.0ZM298.0 0.0H309.0C301.0 -260.0 282.0 -450.0 250.0 -482.0C239.0 -493.0 231.0 -495.0 210.0 -495.0C189.0 -495.0 113.0 -487.0 69.0 -483.0L68.0 -501.0C105.0 -506.0 150.0 -515.0 165.0 -524.0C179.0 -532.0 183.0 -547.0 183.0 -560.0C220.0 -560.0 258.0 -548.0 281.0 -521.0C323.0 -475.0 344.0 -293.0 352.0 -33.0C373.0 -32.0 385.0 -27.0 392.0 -20.0L328.0 33.0ZM402.0 -329.0 363.0 -377.0H-100.0V-407.0H450.0C464.0 -407.0 472.0 -402.0 475.0 -391.0C447.0 -364.0 402.0 -329.0 402.0 -329.0ZM385.0 154.0 345.0 104.0H-63.0L-84.0 74.0H436.0C449.0 74.0 458.0 79.0 461.0 90.0C431.0 119.0 385.0 154.0 385.0 154.0ZM336.0 0.0H-42.0V-30.0H336.0ZM27.0 -232.0 17.0 -244.0C72.0 -269.0 144.0 -323.0 169.0 -365.0C221.0 -390.0 231.0 -280.0 27.0 -232.0ZM45.0 -44.0 35.0 -56.0C86.0 -80.0 151.0 -129.0 174.0 -168.0C222.0 -192.0 234.0 -91.0 45.0 -44.0Z"/></g>
<g fill="black" opacity=".8" transform="translate(1100 200) scale(0.1 -0.1)"><path d="M0.0 0.0 -59.0 29.0C-69.0 -90.0 -104.0 -307.0 -126.0 -398.0L-108.0 -364.0C-124.0 -368.0 -145.0 -377.0 -160.0 -385.0L-103.0 -434.0L-76.0 -407.0H-83.0C-61.0 -294.0 -29.0 -103.0 -15.0 5.0L-23.0 0.0ZM300.0 -1.0H311.0C302.0 -264.0 278.0 -445.0 243.0 -477.0C231.0 -488.0 224.0 -490.0 204.0 -490.0C184.0 -490.0 115.0 -483.0 75.0 -479.0V-498.0C107.0 -501.0 149.0 -511.0 162.0 -518.0C175.0 -527.0 178.0 -541.0 178.0 -553.0C214.0 -554.0 250.0 -542.0 273.0 -515.0C316.0 -471.0 344.0 -297.0 354.0 -32.0C373.0 -31.0 386.0 -27.0 393.0 -19.0L330.0 32.0ZM398.0 -331.0 360.0 -377.0H-112.0V-407.0H443.0C456.0 -407.0 465.0 -403.0 468.0 -392.0C441.0 -366.0 398.0 -331.0 398.0 -331.0ZM379.0 155.0 341.0 106.0H-61.0L-79.0 77.0H428.0C441.0 77.0 451.0 82.0 453.0 93.0C424.0 121.0 379.0 155.0 379.0 155.0ZM340.0 -1.0H-51.0V-29.0H340.0ZM29.0 -226.0 20.0 -238.0C72.0 -265.0 137.0 -319.0 159.0 -362.0C208.0 -389.0 221.0 -280.0 29.0 -226.0ZM49.0 -44.0 39.0 -56.0C88.0 -80.0 151.0 -131.0 172.0 -172.0C220.0 -194.0 231.0 -95.0 49.0 -44.0Z"/></g>
<g fill="red" transform="translate(1200 200) scale(0.1 -0.1)"><path d="M0.0 0.0 -144.0 70.0C-152.0 -48.0 -185.0 -291.0 -211.0 -396.0L-179.0 -358.0C-200.0 -365.0 -225.0 -381.0 -239.0 -394.0L-123.0 -460.0L-80.0 -406.0H-88.0C-66.0 -299.0 -35.0 -85.0 -24.0 7.0L-37.0 0.0ZM183.0 0.0H194.0C185.0 -268.0 170.0 -402.0 139.0 -429.0C130.0 -437.0 121.0 -440.0 105.0 -440.0C85.0 -440.0 31.0 -437.0 -3.0 -434.0L-4.0 -446.0C35.0 -456.0 63.0 -470.0 78.0 -489.0C92.0 -505.0 95.0 -535.0 95.0 -573.0C154.0 -573.0 195.0 -560.0 230.0 -530.0C285.0 -482.0 305.0 -363.0 316.0 -49.0C338.0 -46.0 351.0 -39.0 359.0 -30.0L248.0 65.0ZM341.0 -309.0 293.0 -378.0H-149.0V-406.0H401.0C415.0 -406.0 425.0 -401.0 427.0 -390.0C396.0 -357.0 341.0 -309.0 341.0 -309.0ZM288.0 188.0 223.0 108.0H-97.0L-125.0 80.0H377.0C392.0 80.0 403.0 85.0 405.0 96.0C359.0 136.0 288.0 188.0 288.0 188.0ZM262.0 0.0H-94.0V-28.0H262.0ZM-15.0 -232.0 -23.0 -239.0C9.0 -263.0 44.0 -309.0 53.0 -350.0C149.0 -402.0 213.0 -220.0 -15.0 -232.0ZM4.0 -52.0 -4.0 -59.0C26.0 -81.0 59.0 -123.0 69.0 -161.0C165.0 -210.0 227.0 -31.0 4.0 -52.0Z"/></g>
<g fill="black" opacity=".8" transform="translate(1200 200) scale(0.1 -0.1)"><path d="M0.0 0.0 -144.0 68.0C-151.0 -50.0 -182.0 -293.0 -207.0 -397.0L-175.0 -361.0C-194.0 -369.0 -219.0 -383.0 -231.0 -397.0L-118.0 -462.0L-76.0 -407.0H-83.0C-62.0 -299.0 -34.0 -86.0 -25.0 7.0L-37.0 0.0ZM187.0 0.0H198.0C189.0 -278.0 172.0 -409.0 142.0 -436.0C133.0 -445.0 125.0 -448.0 109.0 -448.0C91.0 -448.0 42.0 -444.0 11.0 -443.0L10.0 -455.0C47.0 -465.0 70.0 -476.0 86.0 -494.0C99.0 -510.0 101.0 -536.0 102.0 -568.0C158.0 -568.0 200.0 -559.0 233.0 -530.0C286.0 -484.0 305.0 -373.0 317.0 -48.0C338.0 -45.0 350.0 -38.0 359.0 -30.0L250.0 63.0ZM343.0 -307.0 293.0 -379.0H-133.0V-407.0H407.0C420.0 -407.0 431.0 -402.0 432.0 -392.0C401.0 -357.0 343.0 -307.0 343.0 -307.0ZM297.0 188.0 231.0 105.0H-101.0L-122.0 78.0H386.0C401.0 78.0 413.0 84.0 415.0 95.0C369.0 135.0 297.0 188.0 297.0 188.0ZM284.0 0.0H-89.0V-27.0H284.0ZM-16.0 -223.0 -24.0 -230.0C5.0 -258.0 41.0 -310.0 51.0 -354.0C147.0 -406.0 211.0 -225.0 -16.0 -223.0ZM3.0 -48.0 -6.0 -54.0C22.0 -80.0 55.0 -127.0 65.0 -168.0C157.0 -218.0 221.0 -45.0 3.0 -48.0Z"/></g>
<g fill="red" transform="translate(1300 200) scale(0.1 -0.1)"><path d="M0.0 0.0 -60.0 30.0C-65.0 -112.0 -94.0 -374.0 -113.0 -484.0L-94.0 -449.0C-110.0 -453.0 -134.0 -462.0 -147.0 -470.0L-88.0 -520.0L-60.0 -491.0H-69.0C-48.0 -355.0 -24.0 -125.0 -16.0 5.0L-23.0 0.0ZM248.0 0.0H259.0C256.0 -330.0 247.0 -524.0 219.0 -556.0C210.0 -566.0 203.0 -567.0 184.0 -567.0C164.0 -567.0 103.0 -563.0 65.0 -559.0L64.0 -577.0C96.0 -582.0 134.0 -590.0 147.0 -598.0C159.0 -606.0 161.0 -621.0 161.0 -633.0C196.0 -634.0 231.0 -622.0 253.0 -593.0C289.0 -547.0 299.0 -363.0 303.0 -33.0C324.0 -32.0 336.0 -27.0 343.0 -19.0L278.0 34.0ZM331.0 -414.0 293.0 -462.0H-87.0V-492.0H376.0C390.0 -492.0 399.0 -487.0 402.0 -476.0C374.0 -449.0 331.0 -414.0 331.0 -414.0ZM328.0 181.0 287.0 131.0H-33.0V101.0H378.0C392.0 101.0 400.0 106.0 403.0 117.0C375.0 145.0 328.0 181.0 328.0 181.0ZM284.0 0.0H-29.0V-30.0H284.0ZM43.0 -283.0 31.0 -291.0C64.0 -322.0 104.0 -377.0 115.0 -417.0C158.0 -449.0 193.0 -356.0 43.0 -283.0ZM68.0 -57.0 56.0 -65.0C84.0 -93.0 119.0 -144.0 129.0 -180.0C171.0 -211.0 206.0 -125.0 68.0 -57.0Z"/></g>
<g fill="black" opacity=".8" transform="translate(1300 200) scale(0.1 -0.1)"><path d="M0.0 0.0 -59.0 29.0C-62.0 -113.0 -88.0 -377.0 -105.0 -487.0L-88.0 -452.0C-104.0 -456.0 -125.0 -465.0 -139.0 -474.0L-82.0 -522.0L-53.0 -494.0H-62.0C-44.0 -357.0 -23.0 -126.0 -15.0 5.0L-22.0 0.0ZM237.0 0.0H248.0C246.0 -336.0 239.0 -530.0 212.0 -560.0C204.0 -572.0 197.0 -571.0 179.0 -571.0C159.0 -571.0 100.0 -568.0 63.0 -564.0L64.0 -582.0C94.0 -585.0 131.0 -595.0 144.0 -602.0C155.0 -611.0 157.0 -625.0 157.0 -637.0C190.0 -638.0 225.0 -626.0 245.0 -597.0C280.0 -552.0 289.0 -369.0 292.0 -32.0C312.0 -31.0 324.0 -27.0 331.0 -18.0L267.0 34.0ZM326.0 -420.0 290.0 -464.0H-85.0V-494.0H368.0C381.0 -494.0 390.0 -490.0 394.0 -479.0C366.0 -453.0 326.0 -420.0 326.0 -420.0ZM324.0 182.0 284.0 133.0H-45.0L-42.0 103.0H373.0C388.0 103.0 396.0 108.0 398.0 119.0C370.0 145.0 324.0 182.0 324.0 182.0ZM279.0 0.0H-37.0V-29.0H279.0ZM47.0 -283.0 35.0 -290.0C66.0 -322.0 103.0 -377.0 112.0 -418.0C153.0 -451.0 190.0 -360.0 47.0 -283.0ZM68.0 -58.0 57.0 -66.0C84.0 -95.0 117.0 -146.0 127.0 -182.0C169.0 -212.0 204.0 -129.0 68.0 -58.0Z"/></g>
<g fill="red" transform="translate(1400 200) scale(0.1 -0.1)"><path d="M0.0 0.0 -150.0 72.0C-154.0 -68.0 -180.0 -361.0 -204.0 -486.0L-173.0 -447.0C-193.0 -455.0 -217.0 -471.0 -231.0 -485.0L-112.0 -549.0L-69.0 -493.0H-76.0C-57.0 -363.0 -32.0 -102.0 -25.0 7.0L-38.0 0.0ZM121.0 0.0H133.0C124.0 -366.0 109.0 -521.0 73.0 -553.0C63.0 -562.0 54.0 -566.0 39.0 -566.0C19.0 -566.0 -22.0 -564.0 -49.0 -561.0V-574.0C-14.0 -583.0 6.0 -595.0 20.0 -614.0C31.0 -630.0 34.0 -655.0 34.0 -689.0C89.0 -689.0 135.0 -681.0 171.0 -646.0C228.0 -591.0 245.0 -471.0 255.0 -50.0C278.0 -46.0 292.0 -39.0 300.0 -30.0L188.0 68.0ZM269.0 -390.0 224.0 -465.0H-110.0V-493.0H321.0C334.0 -493.0 344.0 -488.0 346.0 -477.0C320.0 -443.0 269.0 -390.0 269.0 -390.0ZM219.0 220.0 153.0 130.0H-97.0V102.0H308.0C323.0 102.0 334.0 107.0 336.0 118.0C293.0 159.0 219.0 220.0 219.0 220.0ZM179.0 0.0H-67.0V-28.0H179.0ZM-32.0 -286.0 -41.0 -291.0C-22.0 -323.0 -6.0 -373.0 -8.0 -417.0C77.0 -496.0 194.0 -331.0 -32.0 -286.0ZM-16.0 -64.0 -25.0 -69.0C-8.0 -99.0 12.0 -146.0 14.0 -188.0C98.0 -258.0 202.0 -101.0 -16.0 -64.0Z"/></g>
<g fill="black" opacity=".8" transform="translate(1400 200) scale(0.1 -0.1)"><path d="M0.0 0.0 -148.0 72.0C-152.0 -66.0 -178.0 -359.0 -202.0 -483.0L-171.0 -445.0C-190.0 -453.0 -215.0 -468.0 -227.0 -482.0L-110.0 -546.0L-68.0 -490.0H-75.0C-55.0 -360.0 -31.0 -101.0 -25.0 7.0L-37.0 0.0ZM125.0 0.0H138.0C129.0 -367.0 114.0 -520.0 79.0 -551.0C69.0 -561.0 60.0 -565.0 45.0 -565.0C27.0 -565.0 -12.0 -562.0 -38.0 -561.0V-573.0C-4.0 -583.0 14.0 -594.0 29.0 -611.0C40.0 -627.0 42.0 -652.0 42.0 -685.0C96.0 -685.0 142.0 -677.0 177.0 -643.0C233.0 -590.0 249.0 -472.0 259.0 -48.0C281.0 -45.0 294.0 -38.0 303.0 -31.0L192.0 68.0ZM276.0 -382.0 229.0 -462.0H-108.0V-490.0H329.0C342.0 -490.0 353.0 -485.0 354.0 -475.0C328.0 -438.0 276.0 -382.0 276.0 -382.0ZM230.0 223.0 166.0 133.0H-91.0L-86.0 105.0H317.0C332.0 105.0 343.0 111.0 345.0 122.0C304.0 161.0 230.0 223.0 230.0 223.0ZM189.0 0.0H-54.0V-28.0H189.0ZM-26.0 -282.0 -34.0 -287.0C-17.0 -320.0 -3.0 -370.0 -6.0 -414.0C75.0 -496.0 197.0 -335.0 -26.0 -282.0ZM-12.0 -61.0 -21.0 -65.0C-4.0 -96.0 15.0 -144.0 16.0 -187.0C98.0 -258.0 204.0 -104.0 -12.0 -61.0Z"/></g>
<g fill="red" transform="translate(1500 200) scale(0.1 -0.1)"><path d="M0.0 0.0 -60.0 30.0C-64.0 -112.0 -93.0 -374.0 -110.0 -484.0L-93.0 -449.0C-108.0 -453.0 -131.0 -462.0 -145.0 -470.0L-85.0 -520.0L-57.0 -491.0H-66.0C-46.0 -355.0 -24.0 -125.0 -16.0 5.0L-23.0 0.0ZM281.0 0.0H292.0C289.0 -330.0 280.0 -524.0 252.0 -556.0C243.0 -566.0 236.0 -567.0 217.0 -567.0C197.0 -567.0 136.0 -563.0 98.0 -559.0L97.0 -577.0C129.0 -582.0 167.0 -590.0 180.0 -598.0C192.0 -606.0 194.0 -621.0 194.0 -633.0C229.0 -634.0 264.0 -622.0 286.0 -593.0C322.0 -547.0 332.0 -363.0 336.0 -33.0C357.0 -32.0 369.0 -27.0 376.0 -19.0L311.0 34.0ZM371.0 -418.0 336.0 -462.0H-91.0V-492.0H411.0C425.0 -492.0 434.0 -487.0 437.0 -476.0C411.0 -450.0 371.0 -418.0 371.0 -418.0ZM392.0 181.0 352.0 131.0H-70.0V101.0H442.0C456.0 101.0 465.0 106.0 468.0 117.0C439.0 145.0 392.0 181.0 392.0 181.0ZM323.0 0.0H-42.0V-30.0H323.0ZM57.0 -279.0 45.0 -287.0C83.0 -321.0 131.0 -381.0 144.0 -426.0C190.0 -457.0 221.0 -360.0 57.0 -279.0ZM75.0 -55.0 63.0 -63.0C99.0 -95.0 145.0 -151.0 160.0 -190.0C204.0 -220.0 235.0 -128.0 75.0 -55.0Z"/></g>
<g fill="black" opacity=".8" transform="translate(1500 200) scale(0.1 -0.1)"><path d="M0.0 0.0 -59.0 29.0C-64.0 -113.0 -94.0 -375.0 -114.0 -485.0L-96.0 -450.0C-112.0 -454.0 -134.0 -463.0 -148.0 -472.0L-90.0 -520.0L-62.0 -492.0H-71.0C-50.0 -356.0 -25.0 -125.0 -15.0 5.0L-22.0 0.0ZM289.0 -0.0H300.0C296.0 -329.0 286.0 -532.0 256.0 -563.0C247.0 -575.0 240.0 -575.0 221.0 -575.0C201.0 -575.0 138.0 -571.0 99.0 -566.0L100.0 -585.0C131.0 -589.0 171.0 -598.0 184.0 -605.0C196.0 -614.0 198.0 -629.0 198.0 -641.0C233.0 -642.0 268.0 -629.0 290.0 -600.0C327.0 -554.0 339.0 -362.0 343.0 -32.0C364.0 -31.0 376.0 -27.0 383.0 -18.0L319.0 34.0ZM385.0 -418.0 349.0 -463.0H-91.0V-492.0H429.0C442.0 -492.0 451.0 -488.0 455.0 -477.0C427.0 -451.0 385.0 -418.0 385.0 -418.0ZM381.0 181.0 341.0 131.0H-52.0L-55.0 101.0H432.0C446.0 101.0 455.0 106.0 457.0 117.0C428.0 145.0 381.0 181.0 381.0 181.0ZM329.0 -0.0H-39.0V-29.0H329.0ZM55.0 -286.0 44.0 -295.0C83.0 -325.0 131.0 -380.0 146.0 -421.0C191.0 -452.0 219.0 -354.0 55.0 -286.0ZM76.0 -59.0 65.0 -69.0C100.0 -96.0 145.0 -147.0 159.0 -185.0C205.0 -212.0 232.0 -122.0 76.0 -59.0Z"/></g>
<g fill="red" transform="translate(1600 200) scale(0.1 -0.1)"><path d="M0.0 0.0 -152.0 73.0C-159.0 -66.0 -190.0 -360.0 -218.0 -485.0L-185.0 -447.0C-206.0 -454.0 -231.0 -470.0 -245.0 -484.0L-124.0 -550.0L-80.0 -493.0H-87.0C-65.0 -364.0 -35.0 -102.0 -25.0 7.0L-38.0 0.0ZM171.0 0.0H183.0C174.0 -363.0 159.0 -517.0 123.0 -550.0C114.0 -558.0 104.0 -562.0 89.0 -562.0C69.0 -562.0 28.0 -560.0 1.0 -558.0L0.0 -570.0C36.0 -580.0 56.0 -591.0 70.0 -611.0C82.0 -627.0 84.0 -652.0 84.0 -687.0C140.0 -687.0 187.0 -679.0 223.0 -644.0C281.0 -589.0 297.0 -470.0 308.0 -50.0C331.0 -47.0 344.0 -40.0 352.0 -31.0L239.0 69.0ZM325.0 -380.0 275.0 -465.0H-139.0V-493.0H386.0C399.0 -493.0 409.0 -488.0 412.0 -477.0C382.0 -439.0 325.0 -380.0 325.0 -380.0ZM299.0 222.0 232.0 130.0H-88.0V102.0H391.0C405.0 102.0 416.0 107.0 419.0 118.0C375.0 160.0 299.0 222.0 299.0 222.0ZM238.0 0.0H-51.0V-28.0H238.0ZM-12.0 -287.0 -21.0 -292.0C2.0 -326.0 22.0 -379.0 22.0 -426.0C111.0 -504.0 222.0 -330.0 -12.0 -287.0ZM2.0 -64.0 -7.0 -69.0C14.0 -101.0 37.0 -152.0 42.0 -196.0C130.0 -264.0 228.0 -100.0 2.0 -64.0Z"/></g>
<g fill="black" opacity=".8" transform="translate(1600 200) scale(0.1 -0.1)"><path d="M0.0 0.0 -153.0 75.0C-158.0 -64.0 -187.0 -358.0 -212.0 -482.0L-180.0 -445.0C-200.0 -453.0 -224.0 -468.0 -237.0 -482.0L-117.0 -547.0L-74.0 -490.0H-80.0C-60.0 -360.0 -33.0 -100.0 -25.0 7.0L-38.0 0.0ZM166.0 0.0H179.0C170.0 -358.0 156.0 -514.0 121.0 -545.0C112.0 -554.0 102.0 -558.0 87.0 -558.0C68.0 -558.0 24.0 -555.0 -5.0 -554.0V-566.0C32.0 -576.0 53.0 -588.0 68.0 -607.0C80.0 -624.0 83.0 -650.0 83.0 -687.0C140.0 -687.0 187.0 -677.0 222.0 -642.0C280.0 -588.0 295.0 -466.0 304.0 -50.0C327.0 -47.0 340.0 -39.0 348.0 -31.0L235.0 69.0ZM327.0 -380.0 276.0 -462.0H-128.0V-490.0H387.0C400.0 -490.0 411.0 -485.0 412.0 -474.0C383.0 -437.0 327.0 -380.0 327.0 -380.0ZM281.0 220.0 214.0 130.0H-103.0L-105.0 102.0H373.0C388.0 102.0 399.0 108.0 401.0 119.0C357.0 159.0 281.0 220.0 281.0 220.0ZM233.0 0.0H-72.0V-28.0H233.0ZM-20.0 -284.0 -28.0 -289.0C-5.0 -322.0 17.0 -373.0 20.0 -419.0C113.0 -496.0 224.0 -316.0 -20.0 -284.0ZM-5.0 -58.0 -13.0 -62.0C9.0 -93.0 34.0 -143.0 38.0 -187.0C131.0 -255.0 230.0 -84.0 -5.0 -58.0Z"/></g>
<g fill="red" transform="translate(100 300) scale(0.1 -0.1)"><path d="M0.0 0.0 -59.0 28.0C-61.0 -158.0 -91.0 -504.0 -110.0 -648.0L-93.0 -612.0C-108.0 -616.0 -132.0 -626.0 -145.0 -634.0L-87.0 -683.0L-58.0 -655.0H-68.0C-45.0 -473.0 -23.0 -169.0 -17.0 4.0L-23.0 0.0ZM300.0 0.0H311.0C309.0 -454.0 304.0 -729.0 269.0 -769.0C259.0 -781.0 254.0 -784.0 232.0 -784.0C212.0 -784.0 150.0 -777.0 109.0 -773.0L107.0 -793.0C143.0 -798.0 181.0 -807.0 195.0 -815.0C207.0 -824.0 210.0 -838.0 210.0 -853.0C248.0 -853.0 285.0 -837.0 308.0 -802.0C345.0 -743.0 352.0 -485.0 355.0 -34.0C377.0 -32.0 389.0 -27.0 397.0 -19.0L330.0 36.0ZM398.0 -576.0 361.0 -626.0H-79.0V-656.0H441.0C454.0 -656.0 464.0 -651.0 466.0 -640.0C440.0 -612.0 398.0 -576.0 398.0 -576.0ZM422.0 -266.0 386.0 -318.0H-211.0L-203.0 -348.0H466.0C480.0 -348.0 489.0 -343.0 490.0 -332.0C466.0 -304.0 422.0 -266.0 422.0 -266.0ZM336.0 0.0H-29.0V-30.0H336.0ZM75.0 -400.0 62.0 -408.0C100.0 -447.0 145.0 -516.0 154.0 -567.0C202.0 -606.0 241.0 -496.0 75.0 -400.0ZM73.0 -77.0 60.0 -85.0C97.0 -122.0 140.0 -188.0 147.0 -239.0C195.0 -278.0 237.0 -165.0 73.0 -77.0Z"/></g>
<g fill="black" opacity=".8" transform="translate(100 300) scale(0.1 -0.1)"><path d="M0.0 0.0 -58.0 28.0C-62.0 -157.0 -94.0 -503.0 -116.0 -646.0L-99.0 -611.0C-114.0 -615.0 -137.0 -624.0 -150.0 -633.0L-93.0 -680.0L-65.0 -653.0H-73.0C-51.0 -471.0 -24.0 -168.0 -16.0 4.0L-23.0 0.0ZM311.0 -0.0H322.0C319.0 -451.0 311.0 -727.0 274.0 -767.0C264.0 -780.0 258.0 -782.0 237.0 -782.0C217.0 -782.0 156.0 -776.0 115.0 -771.0L114.0 -792.0C149.0 -796.0 187.0 -805.0 199.0 -813.0C212.0 -822.0 214.0 -836.0 214.0 -849.0C252.0 -849.0 289.0 -834.0 312.0 -799.0C351.0 -740.0 362.0 -481.0 365.0 -32.0C386.0 -31.0 398.0 -26.0 406.0 -18.0L341.0 35.0ZM398.0 -576.0 362.0 -624.0H-86.0V-654.0H441.0C453.0 -654.0 462.0 -649.0 466.0 -638.0C440.0 -611.0 398.0 -576.0 398.0 -576.0ZM422.0 -267.0 386.0 -318.0H-181.0L-175.0 -348.0H465.0C479.0 -348.0 487.0 -342.0 489.0 -331.0C464.0 -304.0 422.0 -267.0 422.0 -267.0ZM350.0 -0.0H-29.0V-28.0H350.0ZM71.0 -402.0 59.0 -411.0C100.0 -449.0 148.0 -517.0 159.0 -569.0C208.0 -605.0 243.0 -494.0 71.0 -402.0ZM71.0 -79.0 60.0 -87.0C100.0 -123.0 147.0 -190.0 156.0 -241.0C206.0 -278.0 243.0 -163.0 71.0 -79.0Z"/></g>
<g fill="red" transform="translate(200 300) scale(0.1 -0.1)"><path d="M0.0 0.0 -158.0 64.0C-157.0 -111.0 -176.0 -484.0 -200.0 -641.0L-169.0 -602.0C-189.0 -610.0 -213.0 -627.0 -226.0 -641.0L-102.0 -705.0L-58.0 -646.0H-65.0C-47.0 -478.0 -29.0 -138.0 -26.0 7.0L-38.0 0.0ZM182.0 0.0H195.0C191.0 -473.0 186.0 -667.0 147.0 -705.0C137.0 -714.0 126.0 -719.0 111.0 -719.0C90.0 -719.0 46.0 -717.0 15.0 -714.0V-726.0C55.0 -737.0 79.0 -752.0 94.0 -774.0C107.0 -792.0 110.0 -821.0 110.0 -868.0C169.0 -868.0 219.0 -852.0 257.0 -810.0C316.0 -743.0 322.0 -602.0 327.0 -53.0C352.0 -49.0 366.0 -41.0 374.0 -31.0L256.0 76.0ZM358.0 -537.0 311.0 -618.0H-154.0V-646.0H413.0C427.0 -646.0 436.0 -641.0 439.0 -630.0C412.0 -594.0 358.0 -537.0 358.0 -537.0ZM364.0 -227.0 317.0 -315.0H-251.0L-243.0 -343.0H419.0C433.0 -343.0 442.0 -338.0 445.0 -327.0C419.0 -289.0 364.0 -227.0 364.0 -227.0ZM231.0 0.0H-72.0V-28.0H231.0ZM4.0 -379.0 -6.0 -384.0C17.0 -428.0 38.0 -493.0 38.0 -550.0C133.0 -639.0 254.0 -452.0 4.0 -379.0ZM8.0 -62.0 -1.0 -67.0C21.0 -106.0 45.0 -165.0 49.0 -217.0C141.0 -294.0 248.0 -118.0 8.0 -62.0Z"/></g>
<g fill="black" opacity=".8" transform="translate(200 300) scale(0.1 -0.1)"><path d="M0.0 0.0 -153.0 65.0C-154.0 -110.0 -178.0 -483.0 -204.0 -640.0L-173.0 -602.0C-193.0 -610.0 -216.0 -625.0 -229.0 -639.0L-109.0 -703.0L-66.0 -645.0H-72.0C-52.0 -477.0 -30.0 -137.0 -26.0 7.0L-37.0 0.0ZM178.0 0.0H191.0C186.0 -469.0 180.0 -666.0 140.0 -705.0C129.0 -714.0 119.0 -718.0 104.0 -718.0C83.0 -718.0 38.0 -716.0 6.0 -714.0V-726.0C47.0 -737.0 71.0 -752.0 86.0 -773.0C100.0 -791.0 102.0 -821.0 102.0 -868.0C163.0 -868.0 212.0 -851.0 250.0 -809.0C310.0 -743.0 317.0 -598.0 322.0 -52.0C347.0 -49.0 361.0 -40.0 368.0 -31.0L252.0 76.0ZM354.0 -539.0 307.0 -618.0H-162.0V-645.0H410.0C424.0 -645.0 433.0 -641.0 436.0 -630.0C408.0 -595.0 354.0 -539.0 354.0 -539.0ZM363.0 -234.0 317.0 -318.0H-245.0L-238.0 -345.0H416.0C430.0 -345.0 439.0 -340.0 442.0 -329.0C416.0 -292.0 363.0 -234.0 363.0 -234.0ZM245.0 0.0H-87.0V-27.0H245.0ZM-3.0 -382.0 -12.0 -386.0C8.0 -432.0 24.0 -497.0 21.0 -555.0C117.0 -649.0 248.0 -462.0 -3.0 -382.0ZM4.0 -61.0 -5.0 -66.0C16.0 -107.0 37.0 -168.0 38.0 -222.0C131.0 -305.0 247.0 -127.0 4.0 -61.0Z"/></g>
<g fill="red" transform="translate(300 300) scale(0.1 -0.1)"><path d="M0.0 0.0 -61.0 29.0C-63.0 -157.0 -93.0 -503.0 -112.0 -648.0L-94.0 -612.0C-110.0 -616.0 -134.0 -626.0 -147.0 -634.0L-87.0 -683.0L-58.0 -654.0H-68.0C-46.0 -472.0 -23.0 -168.0 -17.0 4.0L-24.0 0.0ZM253.0 0.0H264.0C262.0 -454.0 257.0 -728.0 222.0 -769.0C212.0 -781.0 207.0 -784.0 185.0 -784.0C165.0 -784.0 103.0 -777.0 62.0 -772.0L61.0 -793.0C96.0 -798.0 135.0 -806.0 148.0 -815.0C161.0 -824.0 163.0 -838.0 163.0 -852.0C201.0 -852.0 238.0 -836.0 261.0 -801.0C298.0 -742.0 305.0 -484.0 307.0 -34.0C329.0 -32.0 341.0 -27.0 349.0 -19.0L283.0 36.0ZM340.0 -576.0 302.0 -626.0H-82.0V-656.0H383.0C396.0 -656.0 405.0 -651.0 408.0 -640.0C382.0 -612.0 340.0 -576.0 340.0 -576.0ZM352.0 -266.0 316.0 -318.0H-166.0L-158.0 -348.0H396.0C409.0 -348.0 418.0 -343.0 420.0 -332.0C396.0 -304.0 352.0 -266.0 352.0 -266.0ZM301.0 0.0H-31.0V-30.0H301.0ZM58.0 -400.0 45.0 -407.0C78.0 -446.0 116.0 -513.0 122.0 -564.0C168.0 -604.0 210.0 -496.0 58.0 -400.0ZM56.0 -77.0 43.0 -84.0C76.0 -121.0 112.0 -185.0 115.0 -235.0C162.0 -275.0 208.0 -166.0 56.0 -77.0Z"/></g>
<g fill="black" opacity=".8" transform="translate(300 300) scale(0.1 -0.1)"><path d="M0.0 0.0 -61.0 29.0C-62.0 -157.0 -92.0 -503.0 -111.0 -647.0L-94.0 -611.0C-110.0 -615.0 -133.0 -624.0 -147.0 -633.0L-87.0 -682.0L-58.0 -653.0H-67.0C-46.0 -472.0 -24.0 -168.0 -17.0 5.0L-23.0 0.0ZM252.0 -0.0H263.0C261.0 -457.0 253.0 -723.0 218.0 -764.0C208.0 -776.0 202.0 -778.0 181.0 -778.0C161.0 -778.0 102.0 -773.0 61.0 -768.0V-789.0C94.0 -793.0 131.0 -802.0 144.0 -810.0C156.0 -819.0 159.0 -834.0 159.0 -847.0C196.0 -847.0 233.0 -833.0 256.0 -797.0C295.0 -739.0 305.0 -489.0 307.0 -34.0C330.0 -32.0 342.0 -28.0 350.0 -19.0L283.0 36.0ZM332.0 -574.0 296.0 -624.0H-86.0V-654.0H374.0C388.0 -654.0 397.0 -650.0 400.0 -639.0C374.0 -610.0 332.0 -574.0 332.0 -574.0ZM355.0 -266.0 318.0 -319.0H-176.0L-165.0 -349.0H398.0C413.0 -349.0 421.0 -343.0 423.0 -332.0C398.0 -305.0 355.0 -266.0 355.0 -266.0ZM294.0 -0.0H-31.0V-30.0H294.0ZM56.0 -394.0 42.0 -401.0C77.0 -442.0 115.0 -513.0 121.0 -565.0C167.0 -606.0 210.0 -498.0 56.0 -394.0ZM56.0 -76.0 44.0 -83.0C77.0 -122.0 115.0 -190.0 119.0 -241.0C167.0 -282.0 212.0 -172.0 56.0 -76.0Z"/></g>
<g fill="red" transform="translate(400 300) scale(0.1 -0.1)"><path d="M0.0 0.0 -147.0 64.0C-146.0 -112.0 -166.0 -482.0 -188.0 -638.0L-159.0 -599.0C-179.0 -607.0 -203.0 -623.0 -216.0 -636.0L-99.0 -699.0L-57.0 -644.0H-64.0C-46.0 -474.0 -28.0 -138.0 -25.0 7.0L-37.0 0.0ZM121.0 0.0H134.0C130.0 -470.0 125.0 -663.0 86.0 -701.0C76.0 -710.0 66.0 -715.0 51.0 -715.0C29.0 -715.0 -15.0 -713.0 -45.0 -710.0V-723.0C-6.0 -733.0 18.0 -748.0 33.0 -769.0C46.0 -787.0 49.0 -816.0 49.0 -862.0C108.0 -862.0 157.0 -846.0 195.0 -804.0C253.0 -739.0 259.0 -597.0 264.0 -52.0C289.0 -48.0 303.0 -41.0 311.0 -31.0L194.0 76.0ZM305.0 -540.0 261.0 -616.0H-148.0V-644.0H356.0C370.0 -644.0 379.0 -639.0 382.0 -628.0C356.0 -594.0 305.0 -540.0 305.0 -540.0ZM300.0 -235.0 256.0 -315.0H-237.0L-229.0 -343.0H349.0C363.0 -343.0 372.0 -338.0 375.0 -327.0C350.0 -291.0 300.0 -235.0 300.0 -235.0ZM216.0 0.0H-87.0V-28.0H216.0ZM-14.0 -379.0 -24.0 -383.0C-11.0 -430.0 -4.0 -494.0 -14.0 -551.0C71.0 -653.0 217.0 -481.0 -14.0 -379.0ZM-10.0 -62.0 -20.0 -66.0C-6.0 -108.0 5.0 -166.0 0.0 -218.0C83.0 -308.0 214.0 -147.0 -10.0 -62.0Z"/></g>
<g fill="black" opacity=".8" transform="translate(400 300) scale(0.1 -0.1)"><path d="M0.0 0.0 -151.0 63.0C-151.0 -113.0 -173.0 -483.0 -196.0 -639.0L-166.0 -599.0C-186.0 -608.0 -210.0 -624.0 -223.0 -637.0L-104.0 -702.0L-61.0 -644.0H-68.0C-49.0 -475.0 -29.0 -139.0 -25.0 6.0L-37.0 0.0ZM132.0 0.0H145.0C139.0 -477.0 131.0 -669.0 90.0 -708.0C79.0 -718.0 69.0 -722.0 54.0 -722.0C34.0 -722.0 -8.0 -720.0 -37.0 -718.0V-731.0C1.0 -742.0 23.0 -755.0 38.0 -775.0C50.0 -793.0 52.0 -821.0 52.0 -863.0C110.0 -863.0 160.0 -850.0 197.0 -808.0C257.0 -743.0 266.0 -601.0 273.0 -52.0C298.0 -48.0 311.0 -40.0 320.0 -31.0L204.0 75.0ZM299.0 -538.0 256.0 -616.0H-140.0V-644.0H349.0C362.0 -644.0 372.0 -640.0 374.0 -629.0C350.0 -593.0 299.0 -538.0 299.0 -538.0ZM306.0 -232.0 262.0 -316.0H-232.0L-220.0 -344.0H355.0C369.0 -344.0 378.0 -339.0 381.0 -328.0C358.0 -291.0 306.0 -232.0 306.0 -232.0ZM204.0 0.0H-69.0V-29.0H204.0ZM-11.0 -375.0 -21.0 -379.0C-7.0 -426.0 2.0 -492.0 -6.0 -549.0C76.0 -647.0 215.0 -479.0 -11.0 -375.0ZM-5.0 -66.0 -16.0 -69.0C2.0 -111.0 18.0 -172.0 15.0 -225.0C96.0 -309.0 217.0 -149.0 -5.0 -66.0Z"/></g>
</svg>
