<?xml version="1.0" encoding="UTF-8"?>
<svg width="1700" height="400" xmlns="http://www.w3.org/2000/svg">
<rect width="100%" height="100%" fill="white"/>
<g fill="green" transform="translate(100 100) scale(0.1 -0.1)"><path d="M-0.0 0.0V-660.0C-0.0 -731.0 24.0 -757.0 141.0 -757.0H305.0C548.0 -757.0 595.0 -742.0 595.0 -700.0C595.0 -681.0 586.0 -672.0 549.0 -660.0L543.0 -468.0H518.0C504.0 -549.0 486.0 -635.0 476.0 -657.0C470.0 -670.0 463.0 -673.0 447.0 -674.0C428.0 -676.0 372.0 -677.0 303.0 -677.0H154.0C95.0 -677.0 88.0 -669.0 89.0 -641.0V-67.0C124.0 -61.0 144.0 -43.0 147.0 -20.0L0.0 0.0ZM-741.0 -698.0 -668.0 -819.0C-650.0 -813.0 -636.0 -799.0 -628.0 -774.0C-377.0 -705.0 -189.0 -645.0 -57.0 -602.0L-64.0 -570.0C-344.0 -626.0 -619.0 -681.0 -741.0 -698.0ZM443.0 -126.0C358.0 -191.0 183.0 -299.0 47.0 -359.0L60.0 -386.0C216.0 -345.0 395.0 -267.0 492.0 -219.0C520.0 -228.0 539.0 -228.0 551.0 -216.0L443.0 -126.0ZM-554.0 -3.0V-720.0L-464.0 -703.0V-66.0C-425.0 -60.0 -408.0 -43.0 -403.0 -20.0L-554.0 -3.0ZM-505.0 -272.0V-332.0H-104.0C-76.0 -332.0 -58.0 -322.0 -53.0 -300.0C-106.0 -247.0 -190.0 -181.0 -190.0 -181.0L-264.0 -272.0H-505.0Z"/></g>
<g fill="green" transform="translate(200 100) scale(0.1 -0.1)"><path d="M0.0 0.0V-602.0C0.0 -761.0 30.0 -810.0 217.0 -810.0H344.0C581.0 -810.0 672.0 -766.0 672.0 -665.0C672.0 -619.0 657.0 -591.0 597.0 -562.0L589.0 -402.0H569.0C539.0 -475.0 508.0 -536.0 489.0 -557.0C477.0 -570.0 461.0 -573.0 443.0 -574.0C428.0 -575.0 403.0 -575.0 377.0 -575.0H300.0C267.0 -575.0 261.0 -567.0 261.0 -542.0V-78.0C303.0 -71.0 321.0 -53.0 324.0 -26.0L0.0 0.0ZM-720.0 -596.0 -592.0 -894.0C-568.0 -889.0 -545.0 -872.0 -533.0 -846.0C-276.0 -725.0 -107.0 -635.0 2.0 -567.0L-0.0 -546.0C-299.0 -572.0 -594.0 -592.0 -720.0 -596.0ZM421.0 -85.0C372.0 -161.0 249.0 -312.0 157.0 -393.0L168.0 -411.0C314.0 -390.0 493.0 -338.0 578.0 -303.0C617.0 -317.0 644.0 -316.0 660.0 -298.0L421.0 -85.0ZM-547.0 -1.0V-715.0L-286.0 -660.0V-76.0C-238.0 -68.0 -226.0 -51.0 -222.0 -27.0L-547.0 -1.0ZM-392.0 -301.0V-357.0H-20.0C7.0 -357.0 27.0 -347.0 33.0 -325.0C-31.0 -253.0 -146.0 -144.0 -146.0 -144.0L-247.0 -301.0H-392.0Z"/></g>
<g fill="green" transform="translate(300 100) scale(0.1 -0.1)"><path d="M0.0 0.0V-271.0C-0.0 -317.0 15.0 -332.0 91.0 -332.0H200.0C361.0 -332.0 391.0 -322.0 391.0 -294.0C391.0 -282.0 385.0 -276.0 360.0 -268.0L357.0 -158.0H340.0C332.0 -206.0 320.0 -253.0 313.0 -267.0C310.0 -275.0 305.0 -277.0 294.0 -277.0C283.0 -278.0 245.0 -279.0 200.0 -279.0H101.0C63.0 -279.0 59.0 -275.0 60.0 -259.0V-43.0C81.0 -40.0 95.0 -28.0 96.0 -13.0L0.0 0.0ZM-482.0 -300.0 -433.0 -379.0C-421.0 -375.0 -412.0 -366.0 -406.0 -349.0C-244.0 -307.0 -123.0 -271.0 -39.0 -245.0L-43.0 -224.0C-224.0 -257.0 -402.0 -290.0 -482.0 -300.0ZM292.0 -34.0C238.0 -68.0 124.0 -129.0 35.0 -162.0L42.0 -180.0C146.0 -160.0 262.0 -117.0 323.0 -93.0C338.0 -98.0 349.0 -99.0 358.0 -93.0L292.0 -34.0ZM-367.0 -2.0V-320.0L-307.0 -311.0V-42.0C-282.0 -39.0 -271.0 -28.0 -267.0 -13.0L-367.0 -2.0ZM-333.0 -117.0V-157.0H-70.0C-51.0 -157.0 -39.0 -151.0 -36.0 -136.0C-71.0 -100.0 -126.0 -57.0 -126.0 -57.0L-175.0 -117.0H-333.0Z"/></g>
<g fill="green" transform="translate(400 100) scale(0.1 -0.1)"><path d="M0.0 0.0V-226.0C0.0 -328.0 18.0 -360.0 143.0 -360.0H228.0C384.0 -360.0 445.0 -334.0 445.0 -268.0C445.0 -238.0 436.0 -220.0 397.0 -201.0L392.0 -118.0H378.0C358.0 -160.0 338.0 -189.0 327.0 -200.0C319.0 -208.0 308.0 -209.0 296.0 -210.0C286.0 -211.0 269.0 -211.0 251.0 -211.0H198.0C176.0 -211.0 172.0 -206.0 172.0 -191.0V-50.0C199.0 -45.0 211.0 -34.0 213.0 -16.0L0.0 0.0ZM-472.0 -231.0 -388.0 -427.0C-372.0 -423.0 -357.0 -413.0 -349.0 -395.0C-183.0 -321.0 -74.0 -266.0 -4.0 -224.0L-5.0 -210.0C-199.0 -222.0 -390.0 -230.0 -472.0 -231.0ZM280.0 3.0C248.0 -43.0 160.0 -140.0 96.0 -190.0L102.0 -202.0C204.0 -194.0 326.0 -163.0 380.0 -144.0C404.0 -154.0 422.0 -155.0 433.0 -143.0L280.0 3.0ZM-361.0 -1.0V-314.0L-188.0 -280.0V-48.0C-158.0 -43.0 -150.0 -32.0 -147.0 -17.0L-361.0 -1.0ZM-249.0 -131.0V-168.0H-11.0C7.0 -168.0 20.0 -162.0 25.0 -147.0C-18.0 -101.0 -92.0 -34.0 -92.0 -34.0L-158.0 -131.0H-249.0Z"/></g>
<g fill="green" transform="translate(500 100) scale(0.1 -0.1)"><path d="M-0.0 0.0V-812.0C0.0 -857.0 14.0 -878.0 77.0 -878.0H133.0C240.0 -878.0 269.0 -868.0 269.0 -841.0C269.0 -828.0 264.0 -822.0 240.0 -813.0L235.0 -664.0H218.0C208.0 -721.0 195.0 -798.0 190.0 -811.0C186.0 -819.0 183.0 -821.0 177.0 -821.0C169.0 -822.0 151.0 -823.0 130.0 -823.0H86.0C63.0 -823.0 59.0 -815.0 59.0 -795.0V-48.0C87.0 -44.0 100.0 -30.0 102.0 -14.0L0.0 0.0ZM-333.0 -838.0 -286.0 -918.0C-274.0 -913.0 -266.0 -903.0 -261.0 -886.0C-160.0 -840.0 -79.0 -800.0 -25.0 -772.0L-31.0 -752.0C-153.0 -790.0 -278.0 -826.0 -333.0 -838.0ZM214.0 -223.0C174.0 -268.0 91.0 -360.0 38.0 -415.0L49.0 -427.0C120.0 -384.0 213.0 -317.0 254.0 -285.0C271.0 -289.0 280.0 -286.0 285.0 -279.0L214.0 -223.0ZM-257.0 -4.0V-849.0L-197.0 -830.0V-50.0C-168.0 -45.0 -157.0 -32.0 -153.0 -16.0L-257.0 -4.0ZM-220.0 -349.0V-390.0H-46.0C-27.0 -390.0 -14.0 -383.0 -11.0 -368.0C-46.0 -333.0 -100.0 -289.0 -100.0 -289.0L-150.0 -349.0H-220.0Z"/></g>
<g fill="green" transform="translate(600 100) scale(0.1 -0.1)"><path d="M0.0 0.0V-771.0C0.0 -870.0 12.0 -907.0 112.0 -907.0H153.0C255.0 -907.0 308.0 -874.0 308.0 -812.0C308.0 -783.0 299.0 -764.0 266.0 -744.0L259.0 -596.0H246.0C232.0 -650.0 210.0 -717.0 198.0 -735.0C192.0 -746.0 184.0 -747.0 178.0 -747.0C175.0 -747.0 175.0 -747.0 173.0 -747.0H179.0C169.0 -747.0 167.0 -741.0 167.0 -723.0V-57.0C199.0 -52.0 210.0 -38.0 212.0 -20.0L0.0 0.0ZM-309.0 -765.0 -226.0 -963.0C-210.0 -959.0 -194.0 -946.0 -188.0 -928.0C-87.0 -840.0 -17.0 -772.0 26.0 -725.0L24.0 -714.0C-111.0 -738.0 -251.0 -760.0 -309.0 -765.0ZM203.0 -199.0C190.0 -249.0 143.0 -370.0 115.0 -437.0L126.0 -446.0C185.0 -417.0 282.0 -362.0 311.0 -334.0C323.0 -341.0 333.0 -340.0 338.0 -331.0L203.0 -199.0ZM-247.0 0.0V-838.0L-85.0 -792.0V-54.0C-51.0 -49.0 -42.0 -36.0 -39.0 -19.0L-247.0 0.0ZM-160.0 -364.0V-402.0H18.0C35.0 -402.0 48.0 -395.0 52.0 -381.0C21.0 -334.0 -43.0 -258.0 -43.0 -258.0L-98.0 -364.0H-160.0Z"/></g>
<g fill="green" transform="translate(700 100) scale(0.1 -0.1)"><path d="M0.0 0.0V-666.0C0.0 -732.0 24.0 -755.0 136.0 -755.0H306.0C550.0 -755.0 594.0 -743.0 594.0 -706.0C594.0 -690.0 585.0 -682.0 553.0 -673.0L548.0 -490.0H526.0C514.0 -567.0 497.0 -647.0 489.0 -668.0C482.0 -680.0 476.0 -683.0 460.0 -684.0C439.0 -687.0 380.0 -688.0 304.0 -688.0H144.0C82.0 -688.0 74.0 -679.0 75.0 -651.0V-57.0C106.0 -53.0 123.0 -37.0 126.0 -17.0L0.0 0.0ZM-758.0 -677.0 -699.0 -784.0C-684.0 -780.0 -671.0 -768.0 -664.0 -747.0C-395.0 -682.0 -194.0 -626.0 -49.0 -584.0L-55.0 -555.0C-349.0 -609.0 -634.0 -662.0 -758.0 -677.0ZM426.0 -106.0C336.0 -180.0 164.0 -277.0 26.0 -333.0L39.0 -360.0C188.0 -322.0 362.0 -249.0 467.0 -191.0C497.0 -202.0 518.0 -200.0 530.0 -186.0L426.0 -106.0ZM-544.0 -2.0V-692.0L-468.0 -680.0V-54.0C-435.0 -49.0 -422.0 -35.0 -419.0 -17.0L-544.0 -2.0ZM-507.0 -236.0V-285.0H-96.0C-73.0 -285.0 -58.0 -277.0 -54.0 -259.0C-98.0 -214.0 -172.0 -157.0 -172.0 -157.0L-234.0 -236.0H-507.0Z"/></g>
<g fill="green" transform="translate(800 100) scale(0.1 -0.1)"><path d="M0.0 0.0V-642.0C0.0 -790.0 36.0 -830.0 209.0 -830.0H344.0C584.0 -830.0 664.0 -786.0 664.0 -695.0C664.0 -653.0 650.0 -627.0 594.0 -601.0L587.0 -443.0H570.0C542.0 -515.0 512.0 -575.0 494.0 -596.0C482.0 -609.0 467.0 -612.0 449.0 -614.0C432.0 -614.0 401.0 -615.0 371.0 -615.0H273.0C237.0 -615.0 231.0 -607.0 231.0 -583.0V-68.0C267.0 -63.0 282.0 -47.0 285.0 -23.0L0.0 0.0ZM-734.0 -598.0 -625.0 -856.0C-604.0 -852.0 -585.0 -838.0 -574.0 -816.0C-296.0 -712.0 -117.0 -636.0 0.0 -576.0L-1.0 -557.0C-308.0 -579.0 -607.0 -596.0 -734.0 -598.0ZM397.0 -79.0C346.0 -162.0 240.0 -286.0 153.0 -359.0L161.0 -375.0C298.0 -352.0 451.0 -308.0 546.0 -266.0C592.0 -279.0 619.0 -274.0 634.0 -256.0L397.0 -79.0ZM-533.0 -3.0V-697.0L-302.0 -649.0V-67.0C-261.0 -60.0 -251.0 -45.0 -248.0 -25.0L-533.0 -3.0ZM-404.0 -277.0V-324.0H-39.0C-15.0 -324.0 2.0 -316.0 7.0 -297.0C-53.0 -231.0 -161.0 -130.0 -161.0 -130.0L-256.0 -277.0H-404.0Z"/></g>
<g fill="green" transform="translate(900 100) scale(0.1 -0.1)"><path d="M0.0 0.0V-653.0C-0.0 -720.0 23.0 -743.0 137.0 -743.0L308.0 -744.0C550.0 -744.0 596.0 -731.0 596.0 -693.0C596.0 -677.0 588.0 -668.0 555.0 -658.0L550.0 -465.0H527.0C513.0 -547.0 497.0 -631.0 489.0 -653.0C483.0 -666.0 476.0 -670.0 459.0 -671.0C439.0 -674.0 380.0 -674.0 305.0 -674.0H146.0C83.0 -674.0 76.0 -665.0 77.0 -638.0V-59.0C109.0 -54.0 126.0 -38.0 130.0 -17.0L0.0 0.0ZM-733.0 -707.0 -664.0 -818.0C-649.0 -813.0 -636.0 -800.0 -628.0 -779.0C-381.0 -708.0 -199.0 -647.0 -68.0 -602.0L-74.0 -574.0C-349.0 -633.0 -616.0 -689.0 -733.0 -707.0ZM447.0 -149.0C362.0 -216.0 184.0 -322.0 38.0 -380.0L50.0 -405.0C211.0 -363.0 390.0 -285.0 490.0 -235.0C521.0 -244.0 542.0 -243.0 552.0 -231.0L447.0 -149.0ZM-546.0 -1.0V-713.0L-467.0 -695.0V-62.0C-428.0 -56.0 -411.0 -40.0 -406.0 -15.0L-546.0 -1.0ZM-507.0 -294.0V-346.0H-111.0C-87.0 -346.0 -71.0 -338.0 -67.0 -319.0C-115.0 -270.0 -191.0 -211.0 -191.0 -211.0L-260.0 -294.0H-507.0Z"/></g>
<g fill="green" transform="translate(1000 100) scale(0.1 -0.1)"><path d="M0.0 0.0V-595.0C0.0 -739.0 33.0 -781.0 206.0 -781.0H337.0C572.0 -781.0 655.0 -743.0 655.0 -652.0C655.0 -611.0 640.0 -586.0 584.0 -560.0L577.0 -410.0H560.0C532.0 -478.0 504.0 -535.0 486.0 -555.0C474.0 -568.0 459.0 -572.0 441.0 -572.0C425.0 -573.0 396.0 -573.0 366.0 -573.0H273.0C237.0 -573.0 231.0 -565.0 231.0 -542.0V-69.0C269.0 -62.0 285.0 -47.0 286.0 -24.0L0.0 0.0ZM-720.0 -617.0 -601.0 -888.0C-580.0 -883.0 -560.0 -867.0 -550.0 -845.0C-288.0 -719.0 -117.0 -626.0 -8.0 -556.0L-10.0 -539.0C-306.0 -577.0 -598.0 -609.0 -720.0 -617.0ZM423.0 -137.0C366.0 -201.0 232.0 -323.0 130.0 -390.0L138.0 -407.0C284.0 -393.0 464.0 -359.0 555.0 -334.0C596.0 -348.0 625.0 -347.0 642.0 -331.0L423.0 -137.0ZM-561.0 0.0V-716.0L-328.0 -674.0V-69.0C-282.0 -63.0 -271.0 -46.0 -267.0 -23.0L-561.0 0.0ZM-443.0 -320.0V-368.0H-41.0C-16.0 -368.0 1.0 -360.0 7.0 -341.0C-59.0 -273.0 -175.0 -173.0 -175.0 -173.0L-276.0 -320.0H-443.0Z"/></g>
<g fill="red" transform="translate(100 200) scale(0.1 -0.1)"><path d="M0.0 0.0V-520.0C0.0 -560.0 14.0 -576.0 78.0 -576.0H171.0C306.0 -576.0 333.0 -568.0 333.0 -546.0C333.0 -536.0 328.0 -531.0 309.0 -525.0L306.0 -383.0H292.0C284.0 -442.0 273.0 -506.0 269.0 -521.0C265.0 -530.0 262.0 -532.0 252.0 -533.0C240.0 -534.0 209.0 -535.0 168.0 -535.0H84.0C49.0 -535.0 44.0 -529.0 44.0 -510.0V-35.0C65.0 -31.0 74.0 -23.0 76.0 -10.0L0.0 0.0ZM-441.0 -538.0 -397.0 -600.0C-388.0 -597.0 -382.0 -589.0 -378.0 -577.0C-226.0 -535.0 -115.0 -499.0 -36.0 -473.0L-40.0 -456.0C-206.0 -492.0 -369.0 -527.0 -441.0 -538.0ZM237.0 -112.0C186.0 -160.0 89.0 -222.0 14.0 -262.0L26.0 -278.0C107.0 -245.0 210.0 -196.0 265.0 -157.0C280.0 -162.0 292.0 -161.0 299.0 -153.0L237.0 -112.0ZM-314.0 -1.0V-533.0L-269.0 -525.0V-34.0C-248.0 -31.0 -239.0 -23.0 -237.0 -10.0L-314.0 -1.0ZM-291.0 -202.0V-231.0H-71.0C-57.0 -231.0 -49.0 -226.0 -46.0 -216.0C-73.0 -189.0 -118.0 -156.0 -118.0 -156.0L-155.0 -202.0H-291.0Z"/></g>
<g fill="black" opacity=".8" transform="translate(100 200) scale(0.1 -0.1)"><path d="M0.0 0.0V-509.0C0.0 -549.0 14.0 -563.0 79.0 -563.0L171.0 -564.0C308.0 -564.0 335.0 -557.0 335.0 -535.0C335.0 -526.0 330.0 -521.0 311.0 -515.0L308.0 -395.0H294.0C287.0 -444.0 276.0 -499.0 272.0 -512.0C268.0 -519.0 265.0 -521.0 256.0 -521.0C244.0 -523.0 212.0 -524.0 170.0 -524.0H83.0C48.0 -524.0 43.0 -517.0 44.0 -500.0V-34.0C63.0 -33.0 73.0 -22.0 75.0 -10.0L0.0 0.0ZM-424.0 -522.0 -388.0 -587.0C-380.0 -584.0 -372.0 -577.0 -368.0 -564.0C-221.0 -523.0 -111.0 -488.0 -31.0 -462.0L-35.0 -445.0C-197.0 -480.0 -356.0 -513.0 -424.0 -522.0ZM245.0 -111.0C193.0 -157.0 95.0 -222.0 16.0 -261.0L25.0 -275.0C110.0 -247.0 212.0 -198.0 271.0 -162.0C289.0 -168.0 302.0 -165.0 308.0 -157.0L245.0 -111.0ZM-306.0 -1.0V-527.0L-261.0 -517.0V-35.0C-239.0 -31.0 -231.0 -22.0 -229.0 -10.0L-306.0 -1.0ZM-284.0 -200.0V-228.0H-56.0C-42.0 -228.0 -33.0 -224.0 -31.0 -213.0C-57.0 -186.0 -100.0 -152.0 -100.0 -152.0L-138.0 -200.0H-284.0Z"/></g>
<g fill="red" transform="translate(200 200) scale(0.1 -0.1)"><path d="M0.0 0.0V-484.0C0.0 -571.0 19.0 -597.0 116.0 -597.0H184.0C311.0 -597.0 358.0 -569.0 358.0 -516.0C358.0 -491.0 350.0 -476.0 318.0 -460.0L314.0 -349.0H304.0C288.0 -396.0 271.0 -440.0 260.0 -455.0C253.0 -463.0 245.0 -465.0 236.0 -466.0C228.0 -466.0 214.0 -466.0 200.0 -466.0H158.0C140.0 -466.0 136.0 -461.0 136.0 -447.0V-42.0C158.0 -38.0 167.0 -28.0 169.0 -15.0L0.0 0.0ZM-411.0 -468.0 -355.0 -621.0C-343.0 -618.0 -331.0 -609.0 -325.0 -596.0C-168.0 -528.0 -62.0 -475.0 5.0 -436.0L4.0 -425.0C-168.0 -446.0 -341.0 -464.0 -411.0 -468.0ZM224.0 -106.0C197.0 -146.0 141.0 -205.0 93.0 -241.0L101.0 -253.0C170.0 -243.0 269.0 -225.0 318.0 -208.0C333.0 -214.0 343.0 -215.0 349.0 -208.0L224.0 -106.0ZM-300.0 -1.0V-528.0L-165.0 -487.0V-43.0C-137.0 -39.0 -130.0 -29.0 -128.0 -15.0L-300.0 -1.0ZM-241.0 -212.0V-240.0H-27.0C-13.0 -240.0 -3.0 -235.0 0.0 -224.0C-33.0 -185.0 -96.0 -124.0 -96.0 -124.0L-150.0 -212.0H-241.0Z"/></g>
<g fill="black" opacity=".8" transform="translate(200 200) scale(0.1 -0.1)"><path d="M0.0 0.0V-492.0C0.0 -578.0 21.0 -602.0 118.0 -602.0H191.0C324.0 -602.0 369.0 -576.0 369.0 -523.0C369.0 -499.0 361.0 -484.0 330.0 -468.0L325.0 -362.0H315.0C300.0 -406.0 281.0 -450.0 271.0 -463.0C264.0 -472.0 256.0 -474.0 246.0 -475.0C237.0 -475.0 222.0 -475.0 206.0 -475.0H157.0C137.0 -475.0 134.0 -470.0 134.0 -455.0V-42.0C157.0 -38.0 165.0 -29.0 166.0 -15.0L0.0 0.0ZM-408.0 -474.0 -343.0 -629.0C-331.0 -626.0 -320.0 -617.0 -314.0 -604.0C-160.0 -535.0 -60.0 -484.0 4.0 -446.0L3.0 -436.0C-169.0 -455.0 -338.0 -472.0 -408.0 -474.0ZM227.0 -102.0C199.0 -150.0 138.0 -225.0 90.0 -270.0L95.0 -279.0C170.0 -263.0 261.0 -235.0 314.0 -211.0C339.0 -219.0 354.0 -216.0 362.0 -206.0L227.0 -102.0ZM-304.0 -2.0V-529.0L-171.0 -501.0V-41.0C-145.0 -37.0 -139.0 -27.0 -136.0 -15.0L-304.0 -2.0ZM-238.0 -222.0V-249.0H-21.0C-7.0 -249.0 3.0 -245.0 7.0 -234.0C-29.0 -194.0 -93.0 -133.0 -93.0 -133.0L-149.0 -222.0H-238.0Z"/></g>
<g fill="red" transform="translate(300 200) scale(0.1 -0.1)"><path d="M0.0 0.0V-389.0C0.0 -422.0 11.0 -436.0 63.0 -436.0H129.0C232.0 -436.0 254.0 -429.0 254.0 -409.0C254.0 -399.0 249.0 -395.0 232.0 -389.0L229.0 -297.0H217.0C210.0 -335.0 201.0 -378.0 196.0 -388.0C193.0 -394.0 190.0 -395.0 183.0 -396.0C176.0 -396.0 154.0 -397.0 128.0 -397.0H71.0C47.0 -397.0 44.0 -393.0 44.0 -378.0V-34.0C62.0 -30.0 72.0 -21.0 73.0 -10.0L0.0 0.0ZM-356.0 -396.0 -326.0 -456.0C-317.0 -453.0 -309.0 -446.0 -306.0 -434.0C-185.0 -400.0 -92.0 -371.0 -26.0 -350.0L-29.0 -334.0C-165.0 -361.0 -298.0 -388.0 -356.0 -396.0ZM189.0 -78.0C157.0 -109.0 83.0 -169.0 30.0 -203.0L37.0 -214.0C103.0 -191.0 180.0 -149.0 217.0 -126.0C230.0 -131.0 239.0 -130.0 244.0 -124.0L189.0 -78.0ZM-251.0 -1.0V-403.0L-207.0 -397.0V-31.0C-188.0 -28.0 -181.0 -20.0 -179.0 -10.0L-251.0 -1.0ZM-224.0 -149.0V-179.0H-42.0C-28.0 -179.0 -19.0 -174.0 -17.0 -163.0C-42.0 -139.0 -82.0 -107.0 -82.0 -107.0L-116.0 -149.0H-224.0Z"/></g>
<g fill="black" opacity=".8" transform="translate(300 200) scale(0.1 -0.1)"><path d="M0.0 0.0V-391.0C0.0 -424.0 11.0 -436.0 63.0 -436.0H133.0C240.0 -436.0 262.0 -430.0 262.0 -411.0C262.0 -403.0 257.0 -399.0 241.0 -394.0L239.0 -301.0H227.0C221.0 -339.0 212.0 -382.0 208.0 -392.0C205.0 -397.0 202.0 -399.0 195.0 -399.0C187.0 -400.0 162.0 -401.0 132.0 -401.0H68.0C42.0 -401.0 39.0 -396.0 39.0 -382.0V-30.0C56.0 -29.0 65.0 -19.0 66.0 -9.0L0.0 0.0ZM-333.0 -398.0 -303.0 -452.0C-295.0 -450.0 -289.0 -444.0 -285.0 -432.0C-171.0 -401.0 -83.0 -374.0 -21.0 -354.0L-24.0 -339.0C-152.0 -365.0 -278.0 -391.0 -333.0 -398.0ZM191.0 -77.0C151.0 -112.0 75.0 -163.0 17.0 -194.0L24.0 -206.0C90.0 -185.0 169.0 -146.0 214.0 -120.0C227.0 -125.0 236.0 -123.0 242.0 -117.0L191.0 -77.0ZM-243.0 -2.0V-407.0L-203.0 -400.0V-29.0C-186.0 -27.0 -180.0 -19.0 -177.0 -10.0L-243.0 -2.0ZM-221.0 -147.0V-173.0H-42.0C-30.0 -173.0 -21.0 -169.0 -20.0 -160.0C-42.0 -136.0 -79.0 -107.0 -79.0 -107.0L-111.0 -147.0H-221.0Z"/></g>
<g fill="red" transform="translate(400 200) scale(0.1 -0.1)"><path d="M0.0 0.0V-378.0C0.0 -452.0 12.0 -476.0 93.0 -476.0H143.0C242.0 -476.0 282.0 -450.0 282.0 -404.0C282.0 -382.0 275.0 -368.0 248.0 -355.0L244.0 -279.0H234.0C222.0 -312.0 208.0 -343.0 200.0 -353.0C195.0 -358.0 187.0 -360.0 180.0 -360.0C175.0 -360.0 166.0 -360.0 157.0 -360.0H134.0C121.0 -360.0 119.0 -356.0 119.0 -344.0V-39.0C139.0 -36.0 148.0 -26.0 150.0 -13.0L0.0 0.0ZM-321.0 -351.0 -266.0 -494.0C-254.0 -492.0 -242.0 -484.0 -236.0 -471.0C-125.0 -417.0 -50.0 -377.0 -2.0 -347.0L-3.0 -336.0C-134.0 -345.0 -265.0 -350.0 -321.0 -351.0ZM184.0 -54.0C164.0 -89.0 110.0 -165.0 72.0 -206.0L79.0 -214.0C142.0 -198.0 219.0 -166.0 253.0 -147.0C269.0 -153.0 280.0 -152.0 287.0 -144.0L184.0 -54.0ZM-239.0 -1.0V-414.0L-122.0 -390.0V-39.0C-98.0 -35.0 -91.0 -26.0 -89.0 -14.0L-239.0 -1.0ZM-179.0 -159.0V-187.0H-14.0C-1.0 -187.0 9.0 -182.0 11.0 -171.0C-16.0 -135.0 -70.0 -78.0 -70.0 -78.0L-116.0 -159.0H-179.0Z"/></g>
<g fill="black" opacity=".8" transform="translate(400 200) scale(0.1 -0.1)"><path d="M0.0 0.0V-376.0C0.0 -448.0 15.0 -470.0 96.0 -470.0H152.0C256.0 -470.0 295.0 -447.0 295.0 -403.0C295.0 -382.0 289.0 -369.0 263.0 -355.0L259.0 -270.0H250.0C237.0 -306.0 221.0 -341.0 213.0 -352.0C208.0 -359.0 200.0 -360.0 193.0 -361.0C187.0 -361.0 176.0 -361.0 166.0 -361.0H133.0C119.0 -361.0 116.0 -357.0 116.0 -345.0V-36.0C136.0 -33.0 143.0 -25.0 145.0 -12.0L0.0 0.0ZM-319.0 -355.0 -264.0 -487.0C-253.0 -484.0 -243.0 -477.0 -238.0 -465.0C-120.0 -412.0 -43.0 -373.0 6.0 -343.0V-335.0C-129.0 -345.0 -263.0 -354.0 -319.0 -355.0ZM178.0 -59.0C159.0 -101.0 114.0 -170.0 79.0 -211.0L84.0 -218.0C144.0 -203.0 216.0 -175.0 255.0 -153.0C273.0 -160.0 284.0 -158.0 290.0 -149.0L178.0 -59.0ZM-234.0 -2.0V-406.0L-119.0 -379.0V-34.0C-98.0 -31.0 -92.0 -23.0 -91.0 -13.0L-234.0 -2.0ZM-168.0 -165.0V-189.0H-9.0C4.0 -189.0 12.0 -185.0 16.0 -175.0C-12.0 -142.0 -62.0 -92.0 -62.0 -92.0L-106.0 -165.0H-168.0Z"/></g>
<g fill="red" transform="translate(500 200) scale(0.1 -0.1)"><path d="M0.0 0.0V-272.0C0.0 -311.0 14.0 -324.0 85.0 -324.0H203.0C364.0 -324.0 391.0 -317.0 391.0 -294.0C391.0 -285.0 385.0 -280.0 366.0 -275.0L363.0 -184.0H350.0C344.0 -224.0 335.0 -261.0 329.0 -273.0C325.0 -280.0 321.0 -281.0 310.0 -282.0C296.0 -283.0 255.0 -284.0 203.0 -284.0H90.0C48.0 -284.0 44.0 -280.0 44.0 -265.0V-33.0C62.0 -31.0 72.0 -22.0 73.0 -10.0L0.0 0.0ZM-491.0 -275.0 -452.0 -341.0C-444.0 -339.0 -436.0 -332.0 -431.0 -320.0C-254.0 -289.0 -125.0 -262.0 -34.0 -242.0L-37.0 -225.0C-226.0 -247.0 -409.0 -269.0 -491.0 -275.0ZM268.0 -33.0C212.0 -68.0 100.0 -116.0 9.0 -141.0L15.0 -159.0C110.0 -143.0 220.0 -109.0 286.0 -83.0C306.0 -90.0 322.0 -90.0 329.0 -81.0L268.0 -33.0ZM-347.0 -1.0V-292.0L-303.0 -286.0V-32.0C-284.0 -29.0 -275.0 -21.0 -274.0 -10.0L-347.0 -1.0ZM-341.0 -91.0V-120.0H-67.0C-53.0 -120.0 -45.0 -115.0 -42.0 -104.0C-69.0 -78.0 -113.0 -43.0 -113.0 -43.0L-150.0 -91.0H-341.0Z"/></g>
<g fill="black" opacity=".8" transform="translate(500 200) scale(0.1 -0.1)"><path d="M0.0 0.0V-275.0C0.0 -316.0 15.0 -327.0 86.0 -327.0H202.0C363.0 -327.0 390.0 -321.0 390.0 -298.0C390.0 -289.0 385.0 -284.0 365.0 -279.0L363.0 -177.0H349.0C343.0 -221.0 332.0 -263.0 327.0 -276.0C323.0 -283.0 319.0 -285.0 308.0 -285.0C295.0 -287.0 254.0 -288.0 201.0 -288.0H91.0C49.0 -288.0 44.0 -283.0 45.0 -267.0V-33.0C62.0 -31.0 73.0 -22.0 74.0 -10.0L0.0 0.0ZM-495.0 -283.0 -459.0 -348.0C-451.0 -346.0 -443.0 -339.0 -438.0 -326.0C-261.0 -287.0 -130.0 -255.0 -34.0 -229.0L-37.0 -212.0C-229.0 -244.0 -415.0 -275.0 -495.0 -283.0ZM278.0 -21.0C220.0 -64.0 108.0 -115.0 15.0 -144.0L21.0 -161.0C120.0 -144.0 232.0 -105.0 301.0 -72.0C318.0 -79.0 331.0 -78.0 340.0 -70.0L278.0 -21.0ZM-357.0 -1.0V-294.0L-311.0 -289.0V-31.0C-291.0 -28.0 -284.0 -20.0 -282.0 -9.0L-357.0 -1.0ZM-335.0 -90.0V-119.0H-64.0C-51.0 -119.0 -42.0 -115.0 -40.0 -104.0C-66.0 -76.0 -110.0 -42.0 -110.0 -42.0L-148.0 -90.0H-335.0Z"/></g>
<g fill="red" transform="translate(600 200) scale(0.1 -0.1)"><path d="M0.0 0.0V-261.0C0.0 -348.0 23.0 -371.0 135.0 -371.0H231.0C394.0 -371.0 445.0 -350.0 445.0 -294.0C445.0 -270.0 436.0 -255.0 400.0 -240.0L396.0 -163.0H386.0C368.0 -201.0 351.0 -228.0 340.0 -239.0C332.0 -246.0 322.0 -248.0 309.0 -249.0C297.0 -249.0 272.0 -250.0 248.0 -250.0H169.0C144.0 -250.0 140.0 -245.0 140.0 -232.0V-39.0C161.0 -36.0 170.0 -27.0 172.0 -13.0L0.0 0.0ZM-491.0 -233.0 -419.0 -388.0C-407.0 -386.0 -395.0 -378.0 -388.0 -365.0C-198.0 -304.0 -78.0 -260.0 2.0 -224.0L1.0 -212.0C-207.0 -224.0 -405.0 -232.0 -491.0 -233.0ZM263.0 -11.0C228.0 -58.0 154.0 -127.0 89.0 -167.0L93.0 -178.0C185.0 -168.0 285.0 -145.0 345.0 -121.0C378.0 -129.0 398.0 -125.0 409.0 -114.0L263.0 -11.0ZM-351.0 -1.0V-291.0L-207.0 -273.0V-37.0C-185.0 -33.0 -180.0 -25.0 -179.0 -14.0L-351.0 -1.0ZM-284.0 -114.0V-142.0H-20.0C-6.0 -142.0 4.0 -137.0 7.0 -126.0C-30.0 -86.0 -97.0 -25.0 -97.0 -25.0L-156.0 -114.0H-284.0Z"/></g>
<g fill="black" opacity=".8" transform="translate(600 200) scale(0.1 -0.1)"><path d="M0.0 0.0V-260.0C0.0 -349.0 24.0 -371.0 134.0 -371.0H226.0C385.0 -371.0 434.0 -347.0 434.0 -292.0C434.0 -266.0 426.0 -251.0 392.0 -235.0L388.0 -156.0H377.0C359.0 -196.0 341.0 -223.0 331.0 -234.0C323.0 -242.0 313.0 -243.0 301.0 -245.0C289.0 -245.0 266.0 -246.0 243.0 -246.0H169.0C143.0 -246.0 139.0 -241.0 139.0 -227.0V-39.0C160.0 -36.0 169.0 -27.0 171.0 -13.0L0.0 0.0ZM-484.0 -237.0 -419.0 -392.0C-406.0 -389.0 -395.0 -382.0 -389.0 -368.0C-203.0 -308.0 -85.0 -265.0 -8.0 -230.0V-218.0C-208.0 -229.0 -402.0 -237.0 -484.0 -237.0ZM259.0 -3.0C224.0 -52.0 148.0 -120.0 87.0 -159.0L89.0 -170.0C184.0 -161.0 283.0 -141.0 347.0 -118.0C378.0 -127.0 396.0 -125.0 406.0 -113.0L259.0 -3.0ZM-352.0 -3.0V-298.0L-211.0 -273.0V-39.0C-188.0 -35.0 -182.0 -26.0 -179.0 -14.0L-352.0 -3.0ZM-270.0 -114.0V-141.0H-32.0C-17.0 -141.0 -8.0 -138.0 -3.0 -126.0C-43.0 -86.0 -111.0 -28.0 -111.0 -28.0L-172.0 -114.0H-270.0Z"/></g>
<g fill="red" transform="translate(700 200) scale(0.1 -0.1)"><path d="M0.0 0.0V-577.0C0.0 -618.0 15.0 -634.0 81.0 -634.0H175.0C313.0 -634.0 342.0 -627.0 342.0 -605.0C342.0 -595.0 336.0 -590.0 317.0 -584.0L314.0 -462.0H301.0C292.0 -512.0 282.0 -569.0 277.0 -581.0C273.0 -588.0 270.0 -590.0 260.0 -591.0C248.0 -593.0 215.0 -593.0 174.0 -593.0H86.0C49.0 -593.0 44.0 -586.0 44.0 -566.0V-35.0C66.0 -32.0 75.0 -22.0 77.0 -10.0L0.0 0.0ZM-440.0 -584.0 -411.0 -651.0C-402.0 -648.0 -393.0 -640.0 -390.0 -628.0C-236.0 -580.0 -117.0 -538.0 -28.0 -507.0L-32.0 -490.0C-204.0 -533.0 -371.0 -573.0 -440.0 -584.0ZM259.0 -105.0C184.0 -180.0 88.0 -254.0 18.0 -297.0L27.0 -313.0C104.0 -283.0 202.0 -226.0 282.0 -165.0C300.0 -174.0 309.0 -173.0 318.0 -165.0L259.0 -105.0ZM-311.0 0.0V-591.0L-266.0 -576.0V-36.0C-242.0 -32.0 -232.0 -23.0 -230.0 -10.0L-311.0 0.0ZM-294.0 -215.0V-244.0H-58.0C-45.0 -244.0 -35.0 -239.0 -33.0 -228.0C-61.0 -201.0 -109.0 -164.0 -109.0 -164.0L-149.0 -215.0H-294.0Z"/></g>
<g fill="black" opacity=".8" transform="translate(700 200) scale(0.1 -0.1)"><path d="M0.0 0.0V-582.0C0.0 -623.0 15.0 -639.0 82.0 -639.0H176.0C317.0 -639.0 345.0 -632.0 345.0 -609.0C345.0 -599.0 340.0 -594.0 320.0 -589.0L317.0 -460.0H302.0C295.0 -512.0 283.0 -571.0 279.0 -585.0C275.0 -592.0 271.0 -594.0 262.0 -594.0C250.0 -597.0 217.0 -597.0 174.0 -597.0H86.0C50.0 -597.0 45.0 -590.0 46.0 -571.0V-36.0C67.0 -35.0 77.0 -23.0 79.0 -11.0L0.0 0.0ZM-442.0 -588.0 -406.0 -655.0C-397.0 -653.0 -389.0 -645.0 -384.0 -632.0C-230.0 -589.0 -113.0 -553.0 -28.0 -525.0L-33.0 -507.0C-204.0 -543.0 -370.0 -578.0 -442.0 -588.0ZM250.0 -124.0C196.0 -175.0 94.0 -245.0 16.0 -287.0L25.0 -302.0C111.0 -272.0 216.0 -218.0 278.0 -178.0C297.0 -185.0 310.0 -182.0 317.0 -173.0L250.0 -124.0ZM-315.0 -2.0V-593.0L-268.0 -583.0V-36.0C-246.0 -32.0 -238.0 -23.0 -236.0 -11.0L-315.0 -2.0ZM-292.0 -219.0V-249.0H-55.0C-41.0 -249.0 -31.0 -244.0 -29.0 -233.0C-56.0 -205.0 -101.0 -170.0 -101.0 -170.0L-140.0 -219.0H-292.0Z"/></g>
<g fill="red" transform="translate(800 200) scale(0.1 -0.1)"><path d="M0.0 0.0V-569.0C0.0 -662.0 24.0 -687.0 126.0 -687.0H199.0C338.0 -687.0 387.0 -659.0 387.0 -603.0C387.0 -577.0 377.0 -561.0 344.0 -544.0L339.0 -422.0H330.0C313.0 -474.0 294.0 -522.0 282.0 -539.0C275.0 -548.0 266.0 -550.0 256.0 -551.0C247.0 -551.0 231.0 -551.0 216.0 -551.0H166.0C146.0 -551.0 140.0 -546.0 140.0 -529.0V-43.0C164.0 -40.0 173.0 -30.0 175.0 -16.0L0.0 0.0ZM-418.0 -557.0 -359.0 -710.0C-347.0 -708.0 -336.0 -698.0 -330.0 -685.0C-174.0 -614.0 -70.0 -559.0 -4.0 -519.0L-5.0 -508.0C-176.0 -532.0 -348.0 -552.0 -418.0 -557.0ZM239.0 -113.0C198.0 -181.0 142.0 -253.0 100.0 -296.0L106.0 -307.0C172.0 -295.0 256.0 -270.0 331.0 -232.0C358.0 -240.0 370.0 -237.0 379.0 -225.0L239.0 -113.0ZM-298.0 0.0V-609.0L-158.0 -568.0V-43.0C-129.0 -39.0 -123.0 -29.0 -121.0 -15.0L-298.0 0.0ZM-232.0 -254.0V-282.0H-21.0C-7.0 -282.0 4.0 -277.0 6.0 -266.0C-28.0 -225.0 -93.0 -161.0 -93.0 -161.0L-150.0 -254.0H-232.0Z"/></g>
<g fill="black" opacity=".8" transform="translate(800 200) scale(0.1 -0.1)"><path d="M0.0 0.0V-570.0C0.0 -661.0 22.0 -686.0 123.0 -686.0H198.0C335.0 -686.0 382.0 -657.0 382.0 -602.0C382.0 -576.0 374.0 -559.0 341.0 -543.0L336.0 -425.0H325.0C310.0 -473.0 290.0 -522.0 279.0 -537.0C271.0 -547.0 263.0 -549.0 253.0 -550.0C244.0 -549.0 229.0 -550.0 213.0 -550.0H165.0C144.0 -550.0 141.0 -544.0 141.0 -529.0V-44.0C165.0 -41.0 174.0 -30.0 176.0 -16.0L0.0 0.0ZM-423.0 -539.0 -356.0 -700.0C-343.0 -697.0 -331.0 -688.0 -325.0 -674.0C-164.0 -604.0 -60.0 -552.0 7.0 -512.0V-502.0C-173.0 -520.0 -349.0 -537.0 -423.0 -539.0ZM230.0 -114.0C203.0 -168.0 146.0 -249.0 100.0 -299.0L106.0 -308.0C181.0 -288.0 271.0 -255.0 325.0 -226.0C352.0 -234.0 367.0 -230.0 374.0 -219.0L230.0 -114.0ZM-308.0 -2.0V-596.0L-169.0 -564.0V-43.0C-143.0 -39.0 -136.0 -29.0 -134.0 -16.0L-308.0 -2.0ZM-239.0 -245.0V-274.0H-20.0C-5.0 -274.0 5.0 -269.0 9.0 -258.0C-27.0 -216.0 -93.0 -151.0 -93.0 -151.0L-150.0 -245.0H-239.0Z"/></g>
<g fill="red" transform="translate(900 200) scale(0.1 -0.1)"><path d="M0.0 0.0V-389.0C0.0 -431.0 15.0 -445.0 90.0 -445.0H211.0C379.0 -445.0 407.0 -438.0 407.0 -415.0C407.0 -405.0 402.0 -401.0 383.0 -395.0L380.0 -274.0H367.0C358.0 -326.0 348.0 -377.0 342.0 -391.0C339.0 -400.0 335.0 -402.0 323.0 -403.0C308.0 -405.0 266.0 -405.0 210.0 -405.0H94.0C49.0 -405.0 44.0 -400.0 44.0 -381.0V-34.0C64.0 -31.0 73.0 -21.0 75.0 -10.0L0.0 0.0ZM-507.0 -398.0 -474.0 -463.0C-465.0 -461.0 -456.0 -453.0 -452.0 -441.0C-268.0 -397.0 -130.0 -358.0 -27.0 -331.0L-31.0 -313.0C-232.0 -351.0 -424.0 -388.0 -507.0 -398.0ZM293.0 -57.0C237.0 -102.0 119.0 -164.0 19.0 -198.0L27.0 -215.0C132.0 -191.0 249.0 -144.0 318.0 -106.0C339.0 -112.0 354.0 -111.0 361.0 -102.0L293.0 -57.0ZM-372.0 -1.0V-403.0L-327.0 -397.0V-32.0C-308.0 -29.0 -300.0 -21.0 -299.0 -10.0L-372.0 -1.0ZM-341.0 -137.0V-166.0H-61.0C-48.0 -166.0 -39.0 -161.0 -36.0 -151.0C-63.0 -124.0 -108.0 -90.0 -108.0 -90.0L-145.0 -137.0H-341.0Z"/></g>
<g fill="black" opacity=".8" transform="translate(900 200) scale(0.1 -0.1)"><path d="M0.0 0.0V-386.0C0.0 -429.0 16.0 -442.0 90.0 -442.0H209.0C376.0 -442.0 404.0 -435.0 404.0 -412.0C404.0 -403.0 399.0 -397.0 379.0 -393.0L376.0 -276.0H362.0C355.0 -326.0 344.0 -374.0 339.0 -388.0C335.0 -396.0 331.0 -399.0 319.0 -399.0C305.0 -401.0 263.0 -402.0 208.0 -402.0H93.0C50.0 -402.0 44.0 -396.0 45.0 -378.0V-34.0C64.0 -33.0 74.0 -22.0 76.0 -10.0L0.0 0.0ZM-514.0 -395.0 -478.0 -462.0C-469.0 -460.0 -461.0 -452.0 -456.0 -440.0C-272.0 -397.0 -136.0 -361.0 -36.0 -333.0L-39.0 -315.0C-239.0 -351.0 -431.0 -385.0 -514.0 -395.0ZM288.0 -56.0C227.0 -105.0 110.0 -164.0 13.0 -198.0L20.0 -216.0C123.0 -193.0 240.0 -148.0 312.0 -109.0C333.0 -116.0 347.0 -115.0 355.0 -106.0L288.0 -56.0ZM-367.0 -1.0V-401.0L-321.0 -394.0V-33.0C-300.0 -30.0 -292.0 -21.0 -290.0 -9.0L-367.0 -1.0ZM-347.0 -136.0V-164.0H-67.0C-53.0 -164.0 -44.0 -160.0 -42.0 -150.0C-68.0 -121.0 -114.0 -86.0 -114.0 -86.0L-153.0 -136.0H-347.0Z"/></g>
<g fill="red" transform="translate(1000 200) scale(0.1 -0.1)"><path d="M0.0 0.0V-372.0C0.0 -465.0 25.0 -488.0 137.0 -488.0H229.0C390.0 -488.0 441.0 -462.0 441.0 -404.0C441.0 -378.0 431.0 -362.0 395.0 -347.0L391.0 -258.0H381.0C363.0 -300.0 345.0 -332.0 334.0 -345.0C326.0 -352.0 315.0 -354.0 303.0 -355.0C291.0 -356.0 268.0 -356.0 246.0 -356.0H172.0C147.0 -356.0 142.0 -351.0 142.0 -336.0V-41.0C164.0 -37.0 173.0 -28.0 174.0 -14.0L0.0 0.0ZM-502.0 -345.0 -438.0 -504.0C-425.0 -501.0 -414.0 -493.0 -407.0 -480.0C-209.0 -414.0 -82.0 -365.0 1.0 -326.0V-314.0C-210.0 -330.0 -416.0 -343.0 -502.0 -345.0ZM261.0 -38.0C226.0 -90.0 151.0 -170.0 88.0 -218.0L91.0 -227.0C191.0 -210.0 285.0 -182.0 350.0 -160.0C386.0 -169.0 406.0 -165.0 417.0 -155.0L261.0 -38.0ZM-381.0 -2.0V-410.0L-237.0 -376.0V-38.0C-215.0 -35.0 -210.0 -26.0 -209.0 -15.0L-381.0 -2.0ZM-276.0 -159.0V-187.0H-25.0C-10.0 -187.0 0.0 -182.0 3.0 -171.0C-38.0 -129.0 -111.0 -66.0 -111.0 -66.0L-176.0 -159.0H-276.0Z"/></g>
<g fill="black" opacity=".8" transform="translate(1000 200) scale(0.1 -0.1)"><path d="M0.0 0.0V-374.0C0.0 -466.0 26.0 -489.0 137.0 -489.0H233.0C396.0 -489.0 446.0 -462.0 446.0 -406.0C446.0 -380.0 437.0 -364.0 402.0 -347.0L397.0 -253.0H387.0C369.0 -297.0 349.0 -332.0 339.0 -345.0C330.0 -354.0 320.0 -355.0 308.0 -357.0C296.0 -357.0 272.0 -358.0 249.0 -358.0H172.0C146.0 -358.0 142.0 -352.0 142.0 -337.0V-41.0C164.0 -38.0 173.0 -29.0 174.0 -14.0L0.0 0.0ZM-502.0 -349.0 -434.0 -508.0C-421.0 -505.0 -410.0 -497.0 -404.0 -484.0C-210.0 -417.0 -86.0 -369.0 -6.0 -330.0V-319.0C-214.0 -334.0 -417.0 -347.0 -502.0 -349.0ZM267.0 -45.0C230.0 -98.0 155.0 -166.0 92.0 -209.0L95.0 -219.0C189.0 -208.0 291.0 -186.0 358.0 -161.0C391.0 -170.0 410.0 -167.0 420.0 -155.0L267.0 -45.0ZM-365.0 -3.0V-408.0L-222.0 -381.0V-41.0C-197.0 -37.0 -191.0 -27.0 -188.0 -15.0L-365.0 -3.0ZM-290.0 -163.0V-190.0H-36.0C-21.0 -190.0 -11.0 -186.0 -7.0 -175.0C-48.0 -133.0 -120.0 -70.0 -120.0 -70.0L-183.0 -163.0H-290.0Z"/></g>
<g fill="red" transform="translate(1100 200) scale(0.1 -0.1)"><path d="M0.0 0.0V-779.0C0.0 -818.0 12.0 -836.0 70.0 -836.0H136.0C245.0 -836.0 270.0 -829.0 270.0 -807.0C270.0 -797.0 265.0 -793.0 247.0 -787.0L243.0 -671.0H230.0C222.0 -717.0 212.0 -774.0 207.0 -784.0C204.0 -790.0 202.0 -792.0 195.0 -793.0C185.0 -794.0 163.0 -794.0 134.0 -794.0H75.0C47.0 -794.0 43.0 -787.0 42.0 -768.0V-38.0C67.0 -34.0 75.0 -23.0 77.0 -10.0L0.0 0.0ZM-344.0 -800.0 -309.0 -864.0C-300.0 -861.0 -292.0 -853.0 -289.0 -841.0C-171.0 -801.0 -81.0 -767.0 -17.0 -742.0L-21.0 -726.0C-155.0 -759.0 -287.0 -790.0 -344.0 -800.0ZM191.0 -194.0C157.0 -245.0 77.0 -334.0 16.0 -389.0L28.0 -400.0C100.0 -355.0 184.0 -286.0 227.0 -244.0C248.0 -249.0 264.0 -241.0 267.0 -231.0L191.0 -194.0ZM-239.0 -1.0V-798.0L-194.0 -784.0V-38.0C-170.0 -35.0 -161.0 -25.0 -159.0 -11.0L-239.0 -1.0ZM-218.0 -312.0V-342.0H-38.0C-24.0 -342.0 -15.0 -337.0 -12.0 -326.0C-40.0 -300.0 -85.0 -264.0 -85.0 -264.0L-124.0 -312.0H-218.0Z"/></g>
<g fill="black" opacity=".8" transform="translate(1100 200) scale(0.1 -0.1)"><path d="M0.0 0.0V-790.0C0.0 -829.0 13.0 -845.0 70.0 -845.0L132.0 -846.0C238.0 -846.0 264.0 -839.0 264.0 -819.0C264.0 -810.0 259.0 -805.0 241.0 -799.0L238.0 -661.0H224.0C216.0 -714.0 205.0 -783.0 203.0 -795.0C198.0 -802.0 196.0 -804.0 189.0 -804.0C180.0 -806.0 158.0 -807.0 129.0 -807.0H73.0C46.0 -807.0 41.0 -798.0 41.0 -779.0V-35.0C64.0 -34.0 73.0 -22.0 76.0 -10.0L0.0 0.0ZM-339.0 -798.0 -306.0 -860.0C-298.0 -858.0 -292.0 -850.0 -288.0 -838.0C-174.0 -796.0 -85.0 -760.0 -21.0 -733.0L-26.0 -717.0C-156.0 -754.0 -285.0 -787.0 -339.0 -798.0ZM197.0 -206.0C153.0 -259.0 73.0 -338.0 16.0 -387.0L26.0 -398.0C92.0 -359.0 178.0 -298.0 227.0 -258.0C246.0 -263.0 257.0 -258.0 261.0 -250.0L197.0 -206.0ZM-241.0 -2.0V-797.0L-198.0 -783.0V-37.0C-175.0 -33.0 -168.0 -23.0 -166.0 -11.0L-241.0 -2.0ZM-219.0 -315.0V-342.0H-41.0C-28.0 -342.0 -18.0 -338.0 -17.0 -328.0C-41.0 -302.0 -83.0 -269.0 -83.0 -269.0L-119.0 -315.0H-219.0Z"/></g>
<g fill="red" transform="translate(1200 200) scale(0.1 -0.1)"><path d="M0.0 0.0V-783.0C0.0 -863.0 16.0 -890.0 98.0 -890.0H146.0C247.0 -890.0 288.0 -863.0 288.0 -814.0C288.0 -792.0 279.0 -776.0 251.0 -760.0L246.0 -625.0H236.0C224.0 -674.0 207.0 -736.0 196.0 -753.0C190.0 -762.0 183.0 -763.0 177.0 -764.0C172.0 -764.0 165.0 -764.0 159.0 -764.0H142.0C131.0 -764.0 128.0 -758.0 128.0 -743.0V-46.0C153.0 -42.0 162.0 -31.0 163.0 -17.0L0.0 0.0ZM-315.0 -757.0 -247.0 -911.0C-235.0 -908.0 -224.0 -897.0 -219.0 -884.0C-101.0 -806.0 -23.0 -744.0 26.0 -703.0L24.0 -694.0C-115.0 -723.0 -257.0 -749.0 -315.0 -757.0ZM169.0 -211.0C156.0 -252.0 123.0 -335.0 97.0 -387.0L104.0 -392.0C162.0 -367.0 232.0 -331.0 266.0 -309.0C286.0 -315.0 299.0 -308.0 304.0 -300.0L169.0 -211.0ZM-234.0 0.0V-800.0L-111.0 -770.0V-44.0C-83.0 -40.0 -76.0 -29.0 -74.0 -15.0L-234.0 0.0ZM-192.0 -347.0V-375.0H0.0C14.0 -375.0 24.0 -370.0 26.0 -359.0C-2.0 -317.0 -63.0 -248.0 -63.0 -248.0L-115.0 -347.0H-192.0Z"/></g>
<g fill="black" opacity=".8" transform="translate(1200 200) scale(0.1 -0.1)"><path d="M0.0 0.0V-780.0C0.0 -862.0 18.0 -888.0 99.0 -888.0H148.0C250.0 -888.0 290.0 -858.0 290.0 -809.0C290.0 -786.0 282.0 -770.0 254.0 -754.0L249.0 -615.0H240.0C228.0 -665.0 209.0 -728.0 198.0 -745.0C192.0 -756.0 186.0 -757.0 180.0 -758.0C175.0 -757.0 168.0 -758.0 161.0 -758.0H143.0C129.0 -758.0 127.0 -752.0 127.0 -736.0V-44.0C152.0 -41.0 159.0 -30.0 161.0 -16.0L0.0 0.0ZM-316.0 -750.0 -254.0 -900.0C-242.0 -897.0 -231.0 -887.0 -227.0 -875.0C-107.0 -802.0 -29.0 -747.0 20.0 -707.0L19.0 -699.0C-120.0 -723.0 -259.0 -746.0 -316.0 -750.0ZM179.0 -205.0C162.0 -255.0 126.0 -340.0 100.0 -394.0L107.0 -401.0C157.0 -373.0 230.0 -333.0 269.0 -303.0C288.0 -309.0 298.0 -304.0 303.0 -296.0L179.0 -205.0ZM-235.0 -1.0V-798.0L-112.0 -763.0V-43.0C-86.0 -39.0 -79.0 -28.0 -77.0 -15.0L-235.0 -1.0ZM-185.0 -339.0V-365.0H-6.0C7.0 -365.0 16.0 -361.0 19.0 -351.0C-8.0 -311.0 -65.0 -247.0 -65.0 -247.0L-114.0 -339.0H-185.0Z"/></g>
<g fill="red" transform="translate(1300 200) scale(0.1 -0.1)"><path d="M0.0 0.0V-373.0C0.0 -415.0 16.0 -428.0 90.0 -428.0H212.0C379.0 -428.0 408.0 -422.0 408.0 -398.0C408.0 -389.0 402.0 -384.0 382.0 -378.0L380.0 -259.0H366.0C358.0 -311.0 349.0 -360.0 343.0 -374.0C339.0 -383.0 335.0 -385.0 323.0 -386.0C308.0 -388.0 266.0 -388.0 211.0 -388.0H94.0C49.0 -388.0 44.0 -383.0 44.0 -365.0V-34.0C63.0 -31.0 73.0 -21.0 75.0 -10.0L0.0 0.0ZM-499.0 -387.0 -456.0 -451.0C-447.0 -448.0 -439.0 -441.0 -436.0 -428.0C-256.0 -385.0 -126.0 -349.0 -34.0 -322.0L-37.0 -304.0C-230.0 -341.0 -416.0 -376.0 -499.0 -387.0ZM295.0 -56.0C235.0 -98.0 113.0 -155.0 11.0 -185.0L18.0 -203.0C125.0 -183.0 245.0 -140.0 318.0 -106.0C339.0 -113.0 353.0 -112.0 361.0 -103.0L295.0 -56.0ZM-357.0 0.0V-393.0L-312.0 -387.0V-31.0C-293.0 -28.0 -285.0 -20.0 -284.0 -9.0L-357.0 0.0ZM-334.0 -128.0V-157.0H-59.0C-45.0 -157.0 -37.0 -152.0 -34.0 -142.0C-61.0 -115.0 -105.0 -81.0 -105.0 -81.0L-143.0 -128.0H-334.0Z"/></g>
<g fill="black" opacity=".8" transform="translate(1300 200) scale(0.1 -0.1)"><path d="M0.0 0.0V-369.0C0.0 -413.0 16.0 -426.0 90.0 -426.0H207.0C373.0 -426.0 402.0 -419.0 402.0 -395.0C402.0 -385.0 396.0 -380.0 374.0 -374.0L372.0 -259.0H357.0C350.0 -308.0 339.0 -357.0 334.0 -371.0C329.0 -378.0 325.0 -381.0 314.0 -381.0C300.0 -383.0 259.0 -384.0 206.0 -384.0H95.0C53.0 -384.0 47.0 -378.0 48.0 -360.0V-36.0C67.0 -34.0 79.0 -24.0 80.0 -11.0L0.0 0.0ZM-509.0 -380.0 -471.0 -449.0C-461.0 -447.0 -453.0 -439.0 -448.0 -425.0C-267.0 -383.0 -133.0 -347.0 -35.0 -319.0L-39.0 -301.0C-236.0 -336.0 -426.0 -370.0 -509.0 -380.0ZM288.0 -51.0C227.0 -97.0 111.0 -157.0 17.0 -191.0L24.0 -209.0C126.0 -187.0 243.0 -142.0 313.0 -105.0C333.0 -112.0 346.0 -111.0 355.0 -102.0L288.0 -51.0ZM-367.0 -1.0V-389.0L-318.0 -382.0V-34.0C-296.0 -32.0 -288.0 -23.0 -286.0 -10.0L-367.0 -1.0ZM-344.0 -131.0V-162.0H-66.0C-52.0 -162.0 -42.0 -157.0 -40.0 -146.0C-68.0 -116.0 -116.0 -79.0 -116.0 -79.0L-156.0 -131.0H-344.0Z"/></g>
<g fill="red" transform="translate(1400 200) scale(0.1 -0.1)"><path d="M0.0 0.0V-351.0C0.0 -446.0 27.0 -469.0 141.0 -469.0H237.0C404.0 -469.0 456.0 -442.0 456.0 -383.0C456.0 -357.0 447.0 -341.0 410.0 -325.0L406.0 -211.0H396.0C375.0 -265.0 357.0 -305.0 344.0 -321.0C336.0 -330.0 328.0 -333.0 314.0 -334.0C301.0 -334.0 278.0 -335.0 254.0 -335.0H175.0C149.0 -335.0 144.0 -330.0 144.0 -315.0V-40.0C165.0 -37.0 175.0 -28.0 176.0 -14.0L0.0 0.0ZM-493.0 -330.0 -418.0 -487.0C-406.0 -485.0 -395.0 -477.0 -388.0 -464.0C-201.0 -400.0 -83.0 -354.0 -5.0 -317.0L-6.0 -305.0C-212.0 -319.0 -408.0 -328.0 -493.0 -330.0ZM263.0 -40.0C231.0 -88.0 164.0 -164.0 107.0 -209.0L110.0 -218.0C202.0 -204.0 301.0 -180.0 362.0 -156.0C397.0 -163.0 417.0 -158.0 428.0 -146.0L263.0 -40.0ZM-352.0 -2.0V-383.0L-208.0 -358.0V-41.0C-184.0 -37.0 -178.0 -28.0 -176.0 -16.0L-352.0 -2.0ZM-267.0 -156.0V-184.0H-41.0C-27.0 -184.0 -16.0 -179.0 -14.0 -168.0C-54.0 -128.0 -124.0 -70.0 -124.0 -70.0L-185.0 -156.0H-267.0Z"/></g>
<g fill="black" opacity=".8" transform="translate(1400 200) scale(0.1 -0.1)"><path d="M0.0 0.0V-352.0C0.0 -447.0 25.0 -472.0 139.0 -472.0H232.0C394.0 -472.0 446.0 -445.0 446.0 -386.0C446.0 -359.0 438.0 -342.0 401.0 -326.0L397.0 -232.0H385.0C367.0 -276.0 347.0 -311.0 336.0 -323.0C328.0 -332.0 318.0 -334.0 306.0 -335.0C294.0 -335.0 272.0 -336.0 250.0 -336.0H178.0C153.0 -336.0 149.0 -331.0 149.0 -316.0V-43.0C172.0 -40.0 181.0 -30.0 183.0 -14.0L0.0 0.0ZM-496.0 -329.0 -426.0 -496.0C-412.0 -493.0 -400.0 -485.0 -393.0 -470.0C-204.0 -403.0 -83.0 -354.0 -5.0 -315.0V-303.0C-211.0 -317.0 -412.0 -328.0 -496.0 -329.0ZM268.0 -33.0C233.0 -86.0 157.0 -161.0 95.0 -206.0L99.0 -217.0C194.0 -205.0 298.0 -181.0 363.0 -156.0C394.0 -165.0 412.0 -162.0 423.0 -150.0L268.0 -33.0ZM-362.0 -2.0V-393.0L-213.0 -365.0V-42.0C-187.0 -38.0 -180.0 -28.0 -178.0 -16.0L-362.0 -2.0ZM-279.0 -156.0V-186.0H-30.0C-15.0 -186.0 -4.0 -181.0 0.0 -169.0C-41.0 -126.0 -113.0 -62.0 -113.0 -62.0L-177.0 -156.0H-279.0Z"/></g>
<g fill="red" transform="translate(1500 200) scale(0.1 -0.1)"><path d="M0.0 0.0V-802.0C0.0 -844.0 16.0 -862.0 77.0 -862.0H155.0C275.0 -862.0 303.0 -854.0 303.0 -832.0C303.0 -822.0 299.0 -817.0 279.0 -811.0L276.0 -646.0H262.0C253.0 -712.0 241.0 -791.0 237.0 -805.0C233.0 -814.0 230.0 -817.0 221.0 -818.0C211.0 -819.0 185.0 -820.0 151.0 -820.0H82.0C49.0 -820.0 44.0 -811.0 44.0 -789.0V-38.0C69.0 -34.0 78.0 -23.0 80.0 -10.0L0.0 0.0ZM-378.0 -807.0 -343.0 -881.0C-334.0 -878.0 -325.0 -870.0 -321.0 -858.0C-189.0 -814.0 -90.0 -776.0 -18.0 -749.0L-22.0 -733.0C-170.0 -767.0 -316.0 -798.0 -378.0 -807.0ZM239.0 -215.0C184.0 -267.0 88.0 -352.0 21.0 -402.0L31.0 -414.0C106.0 -374.0 211.0 -311.0 269.0 -271.0C289.0 -277.0 299.0 -275.0 303.0 -268.0L239.0 -215.0ZM-280.0 0.0V-811.0L-235.0 -796.0V-38.0C-211.0 -34.0 -202.0 -24.0 -200.0 -10.0L-280.0 0.0ZM-255.0 -326.0V-356.0H-51.0C-37.0 -356.0 -28.0 -351.0 -25.0 -340.0C-53.0 -314.0 -95.0 -280.0 -95.0 -280.0L-133.0 -326.0H-255.0Z"/></g>
<g fill="black" opacity=".8" transform="translate(1500 200) scale(0.1 -0.1)"><path d="M0.0 0.0V-797.0C0.0 -838.0 14.0 -856.0 78.0 -856.0L153.0 -857.0C273.0 -857.0 302.0 -849.0 302.0 -827.0C302.0 -817.0 297.0 -811.0 277.0 -805.0L274.0 -658.0H259.0C250.0 -715.0 238.0 -787.0 236.0 -801.0C231.0 -809.0 228.0 -811.0 220.0 -811.0C209.0 -814.0 184.0 -814.0 149.0 -814.0H81.0C50.0 -814.0 45.0 -805.0 45.0 -785.0V-38.0C69.0 -36.0 79.0 -24.0 82.0 -11.0L0.0 0.0ZM-381.0 -815.0 -343.0 -883.0C-334.0 -880.0 -327.0 -872.0 -323.0 -859.0C-197.0 -812.0 -100.0 -773.0 -29.0 -743.0L-34.0 -726.0C-179.0 -766.0 -321.0 -803.0 -381.0 -815.0ZM228.0 -214.0C180.0 -268.0 88.0 -353.0 19.0 -404.0L29.0 -417.0C107.0 -375.0 205.0 -311.0 259.0 -269.0C281.0 -275.0 293.0 -270.0 298.0 -261.0L228.0 -214.0ZM-275.0 -2.0V-813.0L-228.0 -797.0V-41.0C-202.0 -36.0 -194.0 -26.0 -191.0 -11.0L-275.0 -2.0ZM-251.0 -330.0V-360.0H-51.0C-37.0 -360.0 -26.0 -356.0 -24.0 -345.0C-52.0 -316.0 -97.0 -280.0 -97.0 -280.0L-138.0 -330.0H-251.0Z"/></g>
<g fill="red" transform="translate(1600 200) scale(0.1 -0.1)"><path d="M0.0 0.0V-777.0C0.0 -867.0 20.0 -895.0 111.0 -895.0H165.0C279.0 -895.0 324.0 -865.0 324.0 -810.0C324.0 -786.0 314.0 -769.0 283.0 -751.0L278.0 -616.0H269.0C255.0 -667.0 237.0 -725.0 225.0 -743.0C218.0 -753.0 210.0 -755.0 203.0 -755.0C197.0 -755.0 189.0 -755.0 181.0 -755.0H158.0C144.0 -755.0 140.0 -749.0 140.0 -733.0V-47.0C165.0 -43.0 174.0 -32.0 175.0 -18.0L0.0 0.0ZM-361.0 -748.0 -284.0 -913.0C-272.0 -910.0 -260.0 -900.0 -255.0 -887.0C-128.0 -807.0 -46.0 -748.0 4.0 -705.0L3.0 -696.0C-147.0 -721.0 -298.0 -742.0 -361.0 -748.0ZM208.0 -219.0C187.0 -266.0 144.0 -354.0 113.0 -405.0L121.0 -415.0C172.0 -391.0 259.0 -355.0 298.0 -330.0C319.0 -337.0 329.0 -333.0 335.0 -326.0L208.0 -219.0ZM-275.0 0.0V-809.0L-138.0 -776.0V-45.0C-110.0 -41.0 -103.0 -30.0 -101.0 -16.0L-275.0 0.0ZM-228.0 -358.0V-386.0H-11.0C3.0 -386.0 13.0 -381.0 16.0 -370.0C-16.0 -327.0 -81.0 -259.0 -81.0 -259.0L-137.0 -358.0H-228.0Z"/></g>
<g fill="black" opacity=".8" transform="translate(1600 200) scale(0.1 -0.1)"><path d="M0.0 0.0V-777.0C0.0 -866.0 20.0 -893.0 110.0 -893.0H168.0C284.0 -893.0 328.0 -863.0 328.0 -810.0C328.0 -785.0 320.0 -768.0 289.0 -751.0L283.0 -610.0H274.0C261.0 -662.0 240.0 -725.0 229.0 -743.0C222.0 -754.0 215.0 -756.0 207.0 -756.0C201.0 -755.0 192.0 -756.0 183.0 -756.0H156.0C140.0 -756.0 137.0 -750.0 137.0 -733.0V-47.0C164.0 -43.0 172.0 -32.0 173.0 -17.0L0.0 0.0ZM-360.0 -762.0 -291.0 -926.0C-278.0 -923.0 -266.0 -912.0 -261.0 -899.0C-127.0 -816.0 -39.0 -753.0 16.0 -709.0L15.0 -700.0C-140.0 -729.0 -297.0 -756.0 -360.0 -762.0ZM210.0 -215.0C187.0 -265.0 137.0 -353.0 100.0 -407.0L107.0 -415.0C168.0 -390.0 256.0 -352.0 302.0 -324.0C322.0 -331.0 335.0 -328.0 341.0 -319.0L210.0 -215.0ZM-276.0 -1.0V-814.0L-142.0 -780.0V-46.0C-113.0 -42.0 -105.0 -30.0 -103.0 -16.0L-276.0 -1.0ZM-223.0 -353.0V-382.0H-12.0C3.0 -382.0 13.0 -377.0 16.0 -366.0C-17.0 -323.0 -81.0 -255.0 -81.0 -255.0L-137.0 -353.0H-223.0Z"/></g>
<g fill="red" transform="translate(100 300) scale(0.1 -0.1)"><path d="M0.0 0.0V-362.0C0.0 -398.0 12.0 -411.0 71.0 -411.0H154.0C276.0 -411.0 301.0 -404.0 301.0 -383.0C301.0 -373.0 296.0 -369.0 277.0 -363.0L274.0 -276.0H262.0C255.0 -313.0 246.0 -352.0 241.0 -362.0C238.0 -368.0 234.0 -369.0 226.0 -370.0C216.0 -371.0 188.0 -371.0 154.0 -371.0H78.0C47.0 -371.0 44.0 -367.0 44.0 -352.0V-34.0C63.0 -30.0 72.0 -21.0 74.0 -9.0L0.0 0.0ZM-369.0 -392.0 -332.0 -452.0C-323.0 -449.0 -316.0 -441.0 -312.0 -429.0C-190.0 -392.0 -98.0 -360.0 -33.0 -337.0L-37.0 -322.0C-174.0 -352.0 -309.0 -382.0 -369.0 -392.0ZM224.0 -76.0C180.0 -109.0 90.0 -165.0 20.0 -197.0L27.0 -209.0C107.0 -188.0 200.0 -146.0 249.0 -122.0C262.0 -127.0 272.0 -127.0 277.0 -121.0L224.0 -76.0ZM-282.0 0.0V-398.0L-237.0 -391.0V-33.0C-216.0 -30.0 -207.0 -21.0 -204.0 -8.0L-282.0 0.0ZM-253.0 -155.0V-185.0H-57.0C-44.0 -185.0 -34.0 -180.0 -32.0 -169.0C-59.0 -142.0 -102.0 -108.0 -102.0 -108.0L-141.0 -155.0H-253.0Z"/></g>
<g fill="black" opacity=".8" transform="translate(100 300) scale(0.1 -0.1)"><path d="M0.0 0.0V-368.0C0.0 -404.0 12.0 -417.0 71.0 -417.0H153.0C275.0 -417.0 299.0 -410.0 299.0 -389.0C299.0 -380.0 295.0 -375.0 276.0 -369.0L273.0 -267.0H260.0C253.0 -309.0 243.0 -355.0 239.0 -367.0C236.0 -373.0 232.0 -375.0 224.0 -375.0C215.0 -377.0 187.0 -377.0 152.0 -377.0H77.0C48.0 -377.0 44.0 -372.0 45.0 -358.0V-33.0C63.0 -32.0 73.0 -22.0 74.0 -10.0L0.0 0.0ZM-369.0 -392.0 -332.0 -454.0C-323.0 -451.0 -316.0 -444.0 -311.0 -431.0C-189.0 -394.0 -97.0 -364.0 -32.0 -340.0L-35.0 -325.0C-173.0 -354.0 -309.0 -383.0 -369.0 -392.0ZM225.0 -82.0C182.0 -115.0 94.0 -172.0 24.0 -205.0L31.0 -218.0C111.0 -195.0 202.0 -153.0 251.0 -129.0C265.0 -133.0 275.0 -132.0 281.0 -127.0L225.0 -82.0ZM-278.0 -1.0V-401.0L-233.0 -391.0V-34.0C-211.0 -32.0 -203.0 -23.0 -200.0 -10.0L-278.0 -1.0ZM-253.0 -160.0V-190.0H-54.0C-40.0 -190.0 -30.0 -186.0 -28.0 -174.0C-55.0 -146.0 -97.0 -114.0 -97.0 -114.0L-135.0 -160.0H-253.0Z"/></g>
<g fill="red" transform="translate(200 300) scale(0.1 -0.1)"><path d="M0.0 0.0V-333.0C0.0 -414.0 14.0 -440.0 109.0 -440.0H167.0C281.0 -440.0 329.0 -421.0 329.0 -369.0C329.0 -346.0 321.0 -332.0 290.0 -316.0L286.0 -244.0H276.0C262.0 -276.0 247.0 -304.0 237.0 -314.0C231.0 -320.0 221.0 -321.0 213.0 -322.0C207.0 -322.0 196.0 -322.0 186.0 -322.0H155.0C140.0 -322.0 137.0 -317.0 137.0 -305.0V-40.0C159.0 -36.0 168.0 -27.0 169.0 -14.0L0.0 0.0ZM-365.0 -344.0 -299.0 -500.0C-287.0 -497.0 -275.0 -489.0 -269.0 -476.0C-138.0 -413.0 -53.0 -365.0 2.0 -330.0L1.0 -320.0C-151.0 -333.0 -301.0 -342.0 -365.0 -344.0ZM206.0 -74.0C188.0 -104.0 139.0 -172.0 104.0 -207.0L108.0 -214.0C174.0 -211.0 255.0 -197.0 291.0 -188.0C309.0 -195.0 321.0 -194.0 329.0 -185.0L206.0 -74.0ZM-281.0 0.0V-390.0L-144.0 -366.0V-38.0C-120.0 -35.0 -114.0 -26.0 -112.0 -14.0L-281.0 0.0ZM-197.0 -184.0V-212.0H-16.0C-2.0 -212.0 8.0 -207.0 11.0 -196.0C-23.0 -159.0 -85.0 -103.0 -85.0 -103.0L-139.0 -184.0H-197.0Z"/></g>
<g fill="black" opacity=".8" transform="translate(200 300) scale(0.1 -0.1)"><path d="M0.0 0.0V-336.0C0.0 -415.0 16.0 -440.0 108.0 -440.0H171.0C289.0 -440.0 334.0 -418.0 334.0 -368.0C334.0 -345.0 327.0 -331.0 298.0 -315.0L293.0 -232.0H283.0C269.0 -269.0 252.0 -302.0 243.0 -313.0C237.0 -320.0 229.0 -321.0 220.0 -322.0C213.0 -322.0 201.0 -323.0 188.0 -323.0H150.0C133.0 -323.0 130.0 -318.0 130.0 -305.0V-40.0C152.0 -36.0 161.0 -27.0 162.0 -13.0L0.0 0.0ZM-359.0 -340.0 -294.0 -492.0C-282.0 -488.0 -271.0 -480.0 -265.0 -466.0C-137.0 -402.0 -52.0 -353.0 1.0 -317.0L0.0 -307.0C-149.0 -324.0 -297.0 -337.0 -359.0 -340.0ZM214.0 -64.0C189.0 -102.0 124.0 -177.0 77.0 -218.0L82.0 -227.0C156.0 -217.0 249.0 -191.0 291.0 -174.0C310.0 -182.0 324.0 -182.0 332.0 -173.0L214.0 -64.0ZM-278.0 -1.0V-398.0L-148.0 -372.0V-38.0C-123.0 -35.0 -117.0 -25.0 -114.0 -13.0L-278.0 -1.0ZM-205.0 -173.0V-200.0H-11.0C3.0 -200.0 12.0 -196.0 16.0 -185.0C-17.0 -148.0 -76.0 -93.0 -76.0 -93.0L-129.0 -173.0H-205.0Z"/></g>
<g fill="red" transform="translate(300 300) scale(0.1 -0.1)"><path d="M0.0 0.0V-360.0C0.0 -401.0 14.0 -415.0 87.0 -415.0H206.0C367.0 -415.0 396.0 -408.0 396.0 -385.0C396.0 -376.0 390.0 -371.0 371.0 -365.0L368.0 -250.0H355.0C346.0 -300.0 338.0 -348.0 332.0 -362.0C328.0 -370.0 324.0 -372.0 312.0 -374.0C298.0 -375.0 257.0 -375.0 204.0 -375.0H92.0C49.0 -375.0 44.0 -370.0 44.0 -353.0V-34.0C63.0 -31.0 73.0 -21.0 75.0 -9.0L0.0 0.0ZM-505.0 -392.0 -466.0 -458.0C-457.0 -455.0 -449.0 -447.0 -445.0 -435.0C-272.0 -388.0 -145.0 -347.0 -51.0 -317.0L-54.0 -300.0C-244.0 -341.0 -426.0 -380.0 -505.0 -392.0ZM291.0 -72.0C234.0 -118.0 117.0 -180.0 17.0 -213.0L24.0 -229.0C131.0 -207.0 244.0 -162.0 314.0 -127.0C337.0 -135.0 352.0 -135.0 359.0 -126.0L291.0 -72.0ZM-359.0 0.0V-389.0L-314.0 -379.0V-36.0C-290.0 -32.0 -280.0 -23.0 -277.0 -8.0L-359.0 0.0ZM-343.0 -157.0V-187.0H-73.0C-59.0 -187.0 -50.0 -182.0 -48.0 -171.0C-76.0 -143.0 -121.0 -108.0 -121.0 -108.0L-162.0 -157.0H-343.0Z"/></g>
<g fill="black" opacity=".8" transform="translate(300 300) scale(0.1 -0.1)"><path d="M0.0 0.0V-363.0C0.0 -405.0 15.0 -417.0 88.0 -417.0L208.0 -418.0C372.0 -418.0 401.0 -411.0 401.0 -389.0C401.0 -381.0 396.0 -375.0 376.0 -370.0L374.0 -252.0H360.0C353.0 -303.0 343.0 -352.0 339.0 -366.0C335.0 -374.0 330.0 -377.0 318.0 -377.0C304.0 -380.0 262.0 -380.0 207.0 -380.0H91.0C47.0 -380.0 42.0 -373.0 43.0 -357.0V-32.0C61.0 -31.0 70.0 -21.0 73.0 -9.0L0.0 0.0ZM-497.0 -393.0 -457.0 -459.0C-449.0 -457.0 -442.0 -449.0 -436.0 -438.0C-264.0 -393.0 -139.0 -355.0 -46.0 -326.0L-49.0 -309.0C-238.0 -347.0 -418.0 -383.0 -497.0 -393.0ZM294.0 -74.0C236.0 -120.0 117.0 -181.0 15.0 -214.0L22.0 -231.0C130.0 -207.0 247.0 -161.0 318.0 -125.0C338.0 -132.0 353.0 -130.0 360.0 -122.0L294.0 -74.0ZM-362.0 0.0V-393.0L-318.0 -384.0V-34.0C-295.0 -31.0 -285.0 -22.0 -282.0 -7.0L-362.0 0.0ZM-343.0 -158.0V-186.0H-74.0C-61.0 -186.0 -52.0 -182.0 -50.0 -172.0C-77.0 -143.0 -121.0 -110.0 -121.0 -110.0L-160.0 -158.0H-343.0Z"/></g>
<g fill="red" transform="translate(400 300) scale(0.1 -0.1)"><path d="M0.0 0.0V-340.0C0.0 -427.0 24.0 -449.0 132.0 -449.0H226.0C388.0 -449.0 437.0 -424.0 437.0 -370.0C437.0 -346.0 427.0 -331.0 392.0 -317.0L388.0 -231.0H378.0C361.0 -272.0 345.0 -303.0 334.0 -315.0C326.0 -322.0 316.0 -325.0 304.0 -325.0C292.0 -326.0 267.0 -326.0 242.0 -326.0H163.0C137.0 -326.0 132.0 -321.0 132.0 -307.0V-39.0C153.0 -36.0 163.0 -27.0 164.0 -14.0L0.0 0.0ZM-487.0 -352.0 -416.0 -508.0C-404.0 -506.0 -393.0 -497.0 -387.0 -484.0C-207.0 -409.0 -91.0 -353.0 -16.0 -311.0L-17.0 -300.0C-213.0 -325.0 -406.0 -346.0 -487.0 -352.0ZM287.0 -72.0C238.0 -116.0 137.0 -185.0 58.0 -225.0L62.0 -236.0C164.0 -226.0 282.0 -205.0 355.0 -185.0C387.0 -195.0 409.0 -193.0 421.0 -183.0L287.0 -72.0ZM-374.0 0.0V-408.0L-239.0 -389.0V-42.0C-211.0 -38.0 -204.0 -28.0 -202.0 -14.0L-374.0 0.0ZM-318.0 -178.0V-206.0H-45.0C-30.0 -206.0 -20.0 -201.0 -17.0 -190.0C-60.0 -149.0 -134.0 -88.0 -134.0 -88.0L-199.0 -178.0H-318.0Z"/></g>
<g fill="black" opacity=".8" transform="translate(400 300) scale(0.1 -0.1)"><path d="M0.0 0.0V-337.0C0.0 -424.0 25.0 -446.0 132.0 -446.0H226.0C385.0 -446.0 434.0 -423.0 434.0 -370.0C434.0 -345.0 425.0 -330.0 390.0 -315.0L386.0 -228.0H377.0C359.0 -269.0 342.0 -301.0 331.0 -313.0C323.0 -321.0 313.0 -324.0 301.0 -324.0C289.0 -324.0 266.0 -325.0 242.0 -325.0H164.0C138.0 -325.0 133.0 -320.0 133.0 -306.0V-39.0C155.0 -35.0 164.0 -27.0 164.0 -14.0L0.0 0.0ZM-490.0 -346.0 -422.0 -503.0C-410.0 -499.0 -399.0 -491.0 -393.0 -478.0C-207.0 -403.0 -88.0 -348.0 -12.0 -305.0V-296.0C-213.0 -320.0 -409.0 -341.0 -490.0 -346.0ZM275.0 -75.0C234.0 -117.0 146.0 -177.0 75.0 -214.0L77.0 -224.0C174.0 -218.0 286.0 -205.0 353.0 -190.0C383.0 -199.0 403.0 -197.0 414.0 -187.0L275.0 -75.0ZM-375.0 -1.0V-400.0L-239.0 -380.0V-39.0C-213.0 -37.0 -207.0 -26.0 -204.0 -13.0L-375.0 -1.0ZM-313.0 -178.0V-203.0H-41.0C-26.0 -203.0 -17.0 -200.0 -13.0 -189.0C-56.0 -148.0 -131.0 -89.0 -131.0 -89.0L-196.0 -178.0H-313.0Z"/></g>
<g fill="red" transform="translate(500 300) scale(0.1 -0.1)"><path d="M0.0 0.0V-813.0C0.0 -851.0 13.0 -870.0 71.0 -870.0H136.0C243.0 -870.0 269.0 -863.0 269.0 -842.0C269.0 -831.0 264.0 -826.0 245.0 -820.0L241.0 -678.0H228.0C219.0 -733.0 209.0 -804.0 204.0 -816.0C201.0 -824.0 198.0 -826.0 191.0 -827.0C182.0 -828.0 160.0 -828.0 133.0 -828.0H75.0C48.0 -828.0 44.0 -820.0 44.0 -800.0V-38.0C69.0 -34.0 77.0 -23.0 79.0 -10.0L0.0 0.0ZM-329.0 -824.0 -291.0 -886.0C-282.0 -882.0 -275.0 -875.0 -272.0 -862.0C-165.0 -820.0 -82.0 -784.0 -25.0 -759.0L-29.0 -743.0C-153.0 -779.0 -276.0 -813.0 -329.0 -824.0ZM199.0 -225.0C153.0 -273.0 72.0 -351.0 17.0 -397.0L27.0 -408.0C90.0 -372.0 177.0 -314.0 225.0 -280.0C244.0 -285.0 254.0 -284.0 259.0 -276.0L199.0 -225.0ZM-233.0 -6.0V-826.0L-189.0 -810.0V-41.0C-167.0 -37.0 -159.0 -28.0 -157.0 -15.0L-233.0 -6.0ZM-215.0 -335.0V-365.0H-49.0C-35.0 -365.0 -26.0 -360.0 -23.0 -349.0C-51.0 -322.0 -96.0 -287.0 -96.0 -287.0L-135.0 -335.0H-215.0Z"/></g>
<g fill="black" opacity=".8" transform="translate(500 300) scale(0.1 -0.1)"><path d="M0.0 0.0V-809.0C0.0 -850.0 14.0 -869.0 73.0 -869.0H133.0C239.0 -869.0 266.0 -861.0 266.0 -838.0C266.0 -828.0 261.0 -822.0 241.0 -816.0L237.0 -673.0H222.0C214.0 -727.0 202.0 -800.0 198.0 -812.0C194.0 -819.0 192.0 -821.0 185.0 -821.0C176.0 -823.0 156.0 -824.0 130.0 -824.0H78.0C52.0 -824.0 48.0 -815.0 48.0 -796.0V-40.0C73.0 -37.0 83.0 -25.0 85.0 -11.0L0.0 0.0ZM-338.0 -822.0 -301.0 -891.0C-291.0 -888.0 -284.0 -879.0 -280.0 -865.0C-170.0 -822.0 -83.0 -784.0 -22.0 -757.0L-27.0 -739.0C-156.0 -777.0 -284.0 -811.0 -338.0 -822.0ZM203.0 -214.0C160.0 -265.0 79.0 -349.0 23.0 -401.0L34.0 -413.0C101.0 -371.0 190.0 -308.0 236.0 -270.0C255.0 -275.0 266.0 -271.0 270.0 -262.0L203.0 -214.0ZM-247.0 -3.0V-826.0L-198.0 -810.0V-42.0C-173.0 -37.0 -164.0 -26.0 -162.0 -13.0L-247.0 -3.0ZM-219.0 -330.0V-362.0H-42.0C-27.0 -362.0 -16.0 -357.0 -14.0 -345.0C-43.0 -316.0 -89.0 -279.0 -89.0 -279.0L-130.0 -330.0H-219.0Z"/></g>
<g fill="red" transform="translate(600 300) scale(0.1 -0.1)"><path d="M0.0 0.0V-789.0C0.0 -877.0 18.0 -905.0 105.0 -905.0H155.0C261.0 -905.0 305.0 -874.0 305.0 -820.0C305.0 -795.0 295.0 -778.0 266.0 -761.0L261.0 -620.0H251.0C239.0 -671.0 220.0 -733.0 208.0 -752.0C202.0 -762.0 194.0 -763.0 188.0 -764.0C183.0 -764.0 177.0 -764.0 171.0 -764.0H155.0C143.0 -764.0 140.0 -758.0 140.0 -742.0V-47.0C165.0 -43.0 174.0 -32.0 176.0 -18.0L0.0 0.0ZM-320.0 -763.0 -254.0 -921.0C-241.0 -919.0 -230.0 -908.0 -225.0 -895.0C-104.0 -819.0 -23.0 -761.0 26.0 -720.0L25.0 -711.0C-117.0 -735.0 -261.0 -757.0 -320.0 -763.0ZM192.0 -200.0C172.0 -264.0 131.0 -387.0 101.0 -462.0L111.0 -470.0C162.0 -423.0 243.0 -347.0 281.0 -302.0C303.0 -308.0 313.0 -304.0 318.0 -296.0L192.0 -200.0ZM-237.0 -2.0V-815.0L-99.0 -769.0V-43.0C-74.0 -39.0 -68.0 -30.0 -66.0 -17.0L-237.0 -2.0ZM-166.0 -345.0V-373.0H8.0C21.0 -373.0 31.0 -368.0 34.0 -357.0C7.0 -318.0 -50.0 -254.0 -50.0 -254.0L-98.0 -345.0H-166.0Z"/></g>
<g fill="black" opacity=".8" transform="translate(600 300) scale(0.1 -0.1)"><path d="M0.0 0.0V-789.0C0.0 -878.0 16.0 -907.0 104.0 -907.0H150.0C252.0 -907.0 297.0 -876.0 297.0 -822.0C297.0 -797.0 289.0 -780.0 259.0 -763.0L253.0 -619.0H242.0C230.0 -671.0 209.0 -736.0 198.0 -754.0C192.0 -765.0 185.0 -766.0 179.0 -766.0C175.0 -766.0 171.0 -766.0 166.0 -766.0H156.0C144.0 -766.0 142.0 -760.0 142.0 -743.0V-49.0C169.0 -45.0 178.0 -33.0 179.0 -18.0L0.0 0.0ZM-314.0 -766.0 -245.0 -933.0C-232.0 -930.0 -219.0 -919.0 -214.0 -904.0C-100.0 -826.0 -25.0 -766.0 23.0 -724.0L21.0 -715.0C-117.0 -739.0 -257.0 -761.0 -314.0 -766.0ZM187.0 -205.0C172.0 -256.0 133.0 -354.0 106.0 -413.0L115.0 -421.0C168.0 -392.0 249.0 -346.0 284.0 -316.0C301.0 -322.0 311.0 -319.0 316.0 -310.0L187.0 -205.0ZM-239.0 -1.0V-822.0L-102.0 -783.0V-47.0C-73.0 -43.0 -65.0 -31.0 -63.0 -17.0L-239.0 -1.0ZM-176.0 -351.0V-382.0H2.0C17.0 -382.0 27.0 -377.0 31.0 -365.0C2.0 -323.0 -57.0 -254.0 -57.0 -254.0L-108.0 -351.0H-176.0Z"/></g>
<g fill="red" transform="translate(700 300) scale(0.1 -0.1)"><path d="M0.0 0.0V-390.0C0.0 -423.0 10.0 -437.0 63.0 -437.0H127.0C229.0 -437.0 250.0 -429.0 250.0 -409.0C250.0 -399.0 246.0 -395.0 228.0 -389.0L225.0 -297.0H213.0C206.0 -335.0 198.0 -378.0 192.0 -388.0C189.0 -394.0 186.0 -395.0 181.0 -396.0C173.0 -396.0 152.0 -397.0 125.0 -397.0H70.0C47.0 -397.0 44.0 -393.0 44.0 -379.0V-34.0C62.0 -30.0 72.0 -21.0 73.0 -10.0L0.0 0.0ZM-328.0 -391.0 -297.0 -451.0C-288.0 -448.0 -281.0 -441.0 -278.0 -429.0C-167.0 -398.0 -83.0 -370.0 -23.0 -351.0L-26.0 -335.0C-151.0 -360.0 -274.0 -384.0 -328.0 -391.0ZM186.0 -71.0C151.0 -102.0 76.0 -159.0 18.0 -192.0L25.0 -205.0C96.0 -181.0 175.0 -141.0 217.0 -116.0C231.0 -121.0 240.0 -119.0 245.0 -113.0L186.0 -71.0ZM-250.0 -1.0V-403.0L-206.0 -397.0V-31.0C-187.0 -28.0 -180.0 -20.0 -178.0 -10.0L-250.0 -1.0ZM-223.0 -149.0V-179.0H-41.0C-27.0 -179.0 -18.0 -174.0 -16.0 -163.0C-41.0 -139.0 -81.0 -107.0 -81.0 -107.0L-115.0 -149.0H-223.0Z"/></g>
<g fill="black" opacity=".8" transform="translate(700 300) scale(0.1 -0.1)"><path d="M0.0 0.0V-390.0C0.0 -424.0 11.0 -436.0 63.0 -436.0H130.0C235.0 -436.0 256.0 -429.0 256.0 -410.0C256.0 -402.0 252.0 -397.0 235.0 -392.0L232.0 -299.0H220.0C215.0 -336.0 205.0 -380.0 201.0 -390.0C198.0 -396.0 195.0 -397.0 189.0 -397.0C181.0 -398.0 157.0 -399.0 129.0 -399.0H69.0C44.0 -399.0 40.0 -394.0 41.0 -381.0V-31.0C58.0 -30.0 67.0 -20.0 68.0 -9.0L0.0 0.0ZM-324.0 -399.0 -293.0 -455.0C-285.0 -452.0 -279.0 -446.0 -275.0 -434.0C-165.0 -402.0 -80.0 -376.0 -21.0 -356.0L-24.0 -341.0C-148.0 -367.0 -271.0 -392.0 -324.0 -399.0ZM189.0 -79.0C150.0 -112.0 76.0 -164.0 20.0 -196.0L27.0 -208.0C92.0 -186.0 171.0 -147.0 213.0 -123.0C225.0 -127.0 234.0 -125.0 240.0 -120.0L189.0 -79.0ZM-239.0 -2.0V-410.0L-198.0 -402.0V-30.0C-180.0 -28.0 -174.0 -20.0 -171.0 -10.0L-239.0 -2.0ZM-216.0 -151.0V-177.0H-41.0C-29.0 -177.0 -20.0 -174.0 -18.0 -163.0C-42.0 -139.0 -80.0 -109.0 -80.0 -109.0L-113.0 -151.0H-216.0Z"/></g>
<g fill="red" transform="translate(800 300) scale(0.1 -0.1)"><path d="M0.0 0.0V-373.0C0.0 -449.0 12.0 -474.0 96.0 -474.0H147.0C248.0 -474.0 289.0 -448.0 289.0 -401.0C289.0 -379.0 282.0 -365.0 254.0 -351.0L250.0 -277.0H240.0C228.0 -309.0 214.0 -339.0 205.0 -348.0C200.0 -354.0 192.0 -355.0 185.0 -356.0C179.0 -356.0 170.0 -356.0 162.0 -356.0H138.0C126.0 -356.0 123.0 -352.0 123.0 -340.0V-39.0C144.0 -36.0 153.0 -27.0 155.0 -13.0L0.0 0.0ZM-309.0 -351.0 -241.0 -493.0C-230.0 -491.0 -219.0 -484.0 -212.0 -470.0C-114.0 -417.0 -49.0 -377.0 -7.0 -348.0L-8.0 -337.0C-131.0 -345.0 -254.0 -350.0 -309.0 -351.0ZM178.0 -52.0C158.0 -87.0 105.0 -163.0 67.0 -204.0L73.0 -212.0C139.0 -200.0 221.0 -172.0 257.0 -156.0C274.0 -163.0 286.0 -162.0 293.0 -154.0L178.0 -52.0ZM-234.0 -1.0V-414.0L-113.0 -389.0V-39.0C-89.0 -35.0 -82.0 -26.0 -81.0 -14.0L-234.0 -1.0ZM-173.0 -176.0V-204.0H-13.0C1.0 -204.0 10.0 -199.0 13.0 -188.0C-15.0 -152.0 -68.0 -95.0 -68.0 -95.0L-115.0 -176.0H-173.0Z"/></g>
<g fill="black" opacity=".8" transform="translate(800 300) scale(0.1 -0.1)"><path d="M0.0 0.0V-371.0C0.0 -444.0 14.0 -467.0 96.0 -467.0H149.0C251.0 -467.0 291.0 -445.0 291.0 -399.0C291.0 -378.0 285.0 -364.0 258.0 -350.0L254.0 -266.0H245.0C232.0 -301.0 216.0 -336.0 208.0 -347.0C202.0 -354.0 195.0 -355.0 188.0 -356.0C182.0 -356.0 173.0 -356.0 164.0 -356.0H136.0C122.0 -356.0 120.0 -352.0 120.0 -340.0V-37.0C140.0 -34.0 148.0 -25.0 149.0 -13.0L0.0 0.0ZM-310.0 -353.0 -254.0 -490.0C-242.0 -487.0 -232.0 -480.0 -227.0 -467.0C-114.0 -413.0 -40.0 -373.0 7.0 -343.0L6.0 -334.0C-125.0 -344.0 -255.0 -353.0 -310.0 -353.0ZM177.0 -58.0C160.0 -99.0 114.0 -172.0 80.0 -214.0L85.0 -221.0C145.0 -207.0 219.0 -177.0 255.0 -155.0C272.0 -162.0 283.0 -160.0 289.0 -152.0L177.0 -58.0ZM-230.0 -2.0V-407.0L-111.0 -379.0V-35.0C-90.0 -32.0 -84.0 -23.0 -82.0 -13.0L-230.0 -2.0ZM-160.0 -166.0V-192.0H-5.0C8.0 -192.0 17.0 -188.0 20.0 -178.0C-7.0 -144.0 -57.0 -93.0 -57.0 -93.0L-101.0 -166.0H-160.0Z"/></g>
<g fill="red" transform="translate(900 300) scale(0.1 -0.1)"><path d="M0.0 0.0V-788.0C0.0 -826.0 12.0 -843.0 69.0 -843.0L133.0 -844.0C237.0 -844.0 263.0 -837.0 263.0 -816.0C263.0 -806.0 258.0 -801.0 239.0 -795.0L236.0 -679.0H222.0C215.0 -724.0 205.0 -783.0 201.0 -793.0C197.0 -799.0 194.0 -801.0 188.0 -801.0C179.0 -803.0 157.0 -803.0 130.0 -803.0H74.0C47.0 -803.0 43.0 -795.0 42.0 -775.0V-38.0C67.0 -34.0 75.0 -23.0 77.0 -10.0L0.0 0.0ZM-332.0 -798.0 -296.0 -862.0C-288.0 -859.0 -280.0 -851.0 -277.0 -839.0C-170.0 -801.0 -89.0 -768.0 -32.0 -745.0L-36.0 -729.0C-158.0 -760.0 -279.0 -789.0 -332.0 -798.0ZM191.0 -215.0C157.0 -265.0 77.0 -355.0 16.0 -410.0L28.0 -421.0C100.0 -376.0 184.0 -307.0 227.0 -264.0C248.0 -270.0 264.0 -261.0 267.0 -251.0L191.0 -215.0ZM-244.0 -1.0V-798.0L-199.0 -784.0V-38.0C-175.0 -35.0 -166.0 -25.0 -164.0 -11.0L-244.0 -1.0ZM-223.0 -333.0V-363.0H-43.0C-29.0 -363.0 -20.0 -358.0 -17.0 -347.0C-45.0 -320.0 -90.0 -285.0 -90.0 -285.0L-128.0 -333.0H-223.0Z"/></g>
<g fill="black" opacity=".8" transform="translate(900 300) scale(0.1 -0.1)"><path d="M0.0 0.0V-790.0C0.0 -828.0 13.0 -845.0 70.0 -845.0L133.0 -846.0C239.0 -846.0 264.0 -839.0 264.0 -818.0C264.0 -810.0 260.0 -805.0 242.0 -799.0L239.0 -660.0H226.0C217.0 -713.0 206.0 -783.0 204.0 -795.0C199.0 -802.0 197.0 -804.0 191.0 -804.0C181.0 -806.0 159.0 -807.0 130.0 -807.0H73.0C45.0 -807.0 41.0 -798.0 41.0 -779.0V-35.0C64.0 -33.0 72.0 -22.0 75.0 -10.0L0.0 0.0ZM-336.0 -805.0 -302.0 -867.0C-294.0 -864.0 -288.0 -856.0 -284.0 -845.0C-173.0 -802.0 -87.0 -765.0 -25.0 -737.0L-29.0 -722.0C-157.0 -760.0 -283.0 -794.0 -336.0 -805.0ZM200.0 -214.0C157.0 -266.0 76.0 -347.0 17.0 -396.0L27.0 -407.0C94.0 -367.0 182.0 -305.0 230.0 -265.0C250.0 -271.0 261.0 -266.0 265.0 -257.0L200.0 -214.0ZM-241.0 -2.0V-801.0L-199.0 -786.0V-38.0C-175.0 -34.0 -167.0 -24.0 -164.0 -11.0L-241.0 -2.0ZM-219.0 -325.0V-353.0H-43.0C-31.0 -353.0 -21.0 -348.0 -20.0 -338.0C-44.0 -312.0 -85.0 -280.0 -85.0 -280.0L-123.0 -325.0H-219.0Z"/></g>
<g fill="red" transform="translate(1000 300) scale(0.1 -0.1)"><path d="M0.0 0.0V-776.0C0.0 -856.0 16.0 -883.0 98.0 -883.0H146.0C247.0 -884.0 288.0 -855.0 288.0 -806.0C288.0 -783.0 279.0 -767.0 251.0 -752.0L246.0 -617.0H236.0C224.0 -666.0 207.0 -727.0 196.0 -744.0C190.0 -753.0 183.0 -755.0 177.0 -755.0C172.0 -755.0 165.0 -755.0 159.0 -755.0H142.0C130.0 -755.0 128.0 -749.0 128.0 -734.0V-45.0C153.0 -41.0 162.0 -30.0 163.0 -17.0L0.0 0.0ZM-325.0 -757.0 -257.0 -911.0C-245.0 -908.0 -234.0 -897.0 -229.0 -884.0C-111.0 -806.0 -33.0 -744.0 16.0 -703.0L14.0 -694.0C-125.0 -723.0 -267.0 -749.0 -325.0 -757.0ZM169.0 -211.0C156.0 -252.0 123.0 -335.0 97.0 -387.0L104.0 -392.0C162.0 -367.0 232.0 -331.0 266.0 -309.0C286.0 -315.0 299.0 -308.0 304.0 -300.0L169.0 -211.0ZM-244.0 0.0V-800.0L-121.0 -770.0V-44.0C-93.0 -40.0 -86.0 -29.0 -84.0 -15.0L-244.0 0.0ZM-202.0 -347.0V-375.0H-10.0C4.0 -375.0 14.0 -370.0 16.0 -359.0C-12.0 -317.0 -73.0 -248.0 -73.0 -248.0L-125.0 -347.0H-202.0Z"/></g>
<g fill="black" opacity=".8" transform="translate(1000 300) scale(0.1 -0.1)"><path d="M0.0 0.0V-775.0C0.0 -856.0 18.0 -881.0 98.0 -881.0H147.0C248.0 -881.0 288.0 -852.0 288.0 -805.0C288.0 -782.0 280.0 -766.0 252.0 -751.0L247.0 -613.0H238.0C227.0 -663.0 208.0 -725.0 197.0 -742.0C191.0 -753.0 185.0 -754.0 179.0 -754.0C174.0 -754.0 167.0 -754.0 160.0 -754.0H141.0C127.0 -754.0 125.0 -749.0 125.0 -733.0V-43.0C149.0 -40.0 157.0 -29.0 158.0 -16.0L0.0 0.0ZM-315.0 -757.0 -252.0 -906.0C-240.0 -903.0 -229.0 -893.0 -225.0 -881.0C-108.0 -804.0 -30.0 -747.0 18.0 -705.0L17.0 -698.0C-120.0 -725.0 -259.0 -751.0 -315.0 -757.0ZM183.0 -217.0C164.0 -265.0 124.0 -347.0 94.0 -399.0L101.0 -405.0C153.0 -380.0 230.0 -342.0 269.0 -315.0C287.0 -321.0 298.0 -317.0 303.0 -310.0L183.0 -217.0ZM-240.0 -1.0V-803.0L-119.0 -770.0V-42.0C-92.0 -39.0 -86.0 -28.0 -83.0 -15.0L-240.0 -1.0ZM-195.0 -347.0V-373.0H-8.0C5.0 -373.0 14.0 -369.0 17.0 -359.0C-12.0 -320.0 -70.0 -256.0 -70.0 -256.0L-119.0 -347.0H-195.0Z"/></g>
<g fill="red" transform="translate(1100 300) scale(0.1 -0.1)"><path d="M0.0 0.0V-352.0C0.0 -387.0 11.0 -400.0 66.0 -400.0H137.0C246.0 -400.0 269.0 -392.0 269.0 -371.0C269.0 -362.0 265.0 -357.0 247.0 -351.0L244.0 -252.0H231.0C224.0 -293.0 215.0 -339.0 210.0 -350.0C208.0 -356.0 205.0 -358.0 197.0 -358.0C189.0 -359.0 165.0 -359.0 136.0 -359.0H73.0C47.0 -359.0 44.0 -356.0 44.0 -342.0V-34.0C62.0 -31.0 72.0 -22.0 73.0 -10.0L0.0 0.0ZM-317.0 -382.0 -279.0 -442.0C-270.0 -439.0 -263.0 -432.0 -259.0 -419.0C-155.0 -386.0 -76.0 -357.0 -22.0 -337.0L-26.0 -321.0C-145.0 -348.0 -264.0 -374.0 -317.0 -382.0ZM209.0 -83.0C171.0 -116.0 93.0 -176.0 33.0 -209.0L40.0 -222.0C111.0 -196.0 192.0 -152.0 234.0 -127.0C247.0 -130.0 256.0 -129.0 261.0 -124.0L209.0 -83.0ZM-245.0 -2.0V-395.0L-200.0 -381.0V-36.0C-179.0 -33.0 -169.0 -24.0 -167.0 -11.0L-245.0 -2.0ZM-221.0 -164.0V-194.0H-45.0C-31.0 -194.0 -22.0 -189.0 -19.0 -178.0C-47.0 -151.0 -89.0 -118.0 -89.0 -118.0L-126.0 -164.0H-221.0Z"/></g>
<g fill="black" opacity=".8" transform="translate(1100 300) scale(0.1 -0.1)"><path d="M0.0 0.0V-351.0C0.0 -386.0 11.0 -399.0 66.0 -399.0H134.0C242.0 -399.0 265.0 -391.0 265.0 -370.0C265.0 -361.0 261.0 -356.0 242.0 -349.0L240.0 -253.0H226.0C219.0 -293.0 210.0 -338.0 205.0 -348.0C203.0 -354.0 199.0 -356.0 192.0 -356.0C185.0 -357.0 161.0 -358.0 133.0 -358.0H73.0C48.0 -358.0 45.0 -353.0 46.0 -340.0V-34.0C64.0 -32.0 74.0 -22.0 75.0 -10.0L0.0 0.0ZM-323.0 -379.0 -284.0 -441.0C-275.0 -437.0 -269.0 -430.0 -264.0 -417.0C-161.0 -383.0 -83.0 -353.0 -29.0 -332.0L-33.0 -317.0C-152.0 -344.0 -270.0 -371.0 -323.0 -379.0ZM205.0 -85.0C168.0 -112.0 89.0 -168.0 29.0 -200.0L36.0 -212.0C108.0 -190.0 191.0 -149.0 232.0 -130.0C243.0 -134.0 251.0 -133.0 257.0 -129.0L205.0 -85.0ZM-250.0 -2.0V-391.0L-204.0 -380.0V-35.0C-183.0 -33.0 -174.0 -23.0 -170.0 -10.0L-250.0 -2.0ZM-223.0 -162.0V-193.0H-49.0C-35.0 -193.0 -25.0 -189.0 -23.0 -177.0C-50.0 -149.0 -92.0 -115.0 -92.0 -115.0L-131.0 -162.0H-223.0Z"/></g>
<g fill="red" transform="translate(1200 300) scale(0.1 -0.1)"><path d="M0.0 0.0V-312.0C0.0 -387.0 12.0 -412.0 100.0 -412.0H155.0C261.0 -412.0 305.0 -392.0 305.0 -344.0C305.0 -322.0 298.0 -309.0 270.0 -295.0L266.0 -203.0H256.0C241.0 -244.0 226.0 -280.0 217.0 -292.0C211.0 -299.0 205.0 -300.0 197.0 -300.0C191.0 -301.0 181.0 -301.0 171.0 -301.0H142.0C128.0 -301.0 125.0 -297.0 125.0 -285.0V-39.0C146.0 -35.0 155.0 -26.0 156.0 -13.0L0.0 0.0ZM-310.0 -326.0 -248.0 -472.0C-236.0 -469.0 -225.0 -459.0 -220.0 -446.0C-111.0 -379.0 -37.0 -327.0 9.0 -291.0L8.0 -281.0C-123.0 -302.0 -255.0 -321.0 -310.0 -326.0ZM195.0 -61.0C172.0 -97.0 109.0 -176.0 65.0 -217.0L71.0 -225.0C142.0 -214.0 231.0 -186.0 270.0 -170.0C286.0 -177.0 299.0 -177.0 306.0 -169.0L195.0 -61.0ZM-247.0 1.0V-389.0L-123.0 -356.0V-37.0C-98.0 -33.0 -92.0 -24.0 -90.0 -12.0L-247.0 1.0ZM-171.0 -165.0V-193.0H9.0C22.0 -193.0 32.0 -188.0 35.0 -177.0C6.0 -142.0 -47.0 -89.0 -47.0 -89.0L-94.0 -165.0H-171.0Z"/></g>
<g fill="black" opacity=".8" transform="translate(1200 300) scale(0.1 -0.1)"><path d="M0.0 0.0V-312.0C0.0 -388.0 12.0 -414.0 100.0 -414.0H152.0C256.0 -414.0 300.0 -393.0 300.0 -344.0C300.0 -322.0 293.0 -308.0 266.0 -293.0L261.0 -214.0H250.0C237.0 -248.0 221.0 -280.0 213.0 -290.0C207.0 -298.0 200.0 -298.0 192.0 -298.0C187.0 -299.0 179.0 -299.0 169.0 -299.0H146.0C132.0 -299.0 129.0 -295.0 129.0 -283.0V-40.0C152.0 -36.0 161.0 -27.0 162.0 -13.0L0.0 0.0ZM-313.0 -324.0 -248.0 -476.0C-236.0 -472.0 -224.0 -464.0 -219.0 -450.0C-112.0 -386.0 -41.0 -338.0 4.0 -303.0L3.0 -294.0C-127.0 -309.0 -258.0 -321.0 -313.0 -324.0ZM197.0 -62.0C177.0 -95.0 116.0 -175.0 74.0 -217.0L80.0 -225.0C148.0 -215.0 239.0 -187.0 272.0 -172.0C286.0 -180.0 298.0 -181.0 305.0 -173.0L197.0 -62.0ZM-249.0 -0.0V-384.0L-120.0 -356.0V-38.0C-95.0 -35.0 -89.0 -25.0 -86.0 -13.0L-249.0 -0.0ZM-173.0 -170.0V-198.0H-1.0C13.0 -198.0 22.0 -194.0 27.0 -183.0C-4.0 -147.0 -59.0 -94.0 -59.0 -94.0L-108.0 -170.0H-173.0Z"/></g>
<g fill="red" transform="translate(1300 300) scale(0.1 -0.1)"><path d="M0.0 0.0V-805.0C0.0 -843.0 13.0 -862.0 69.0 -862.0H132.0C237.0 -862.0 262.0 -854.0 262.0 -833.0C262.0 -823.0 258.0 -818.0 239.0 -811.0L235.0 -646.0H221.0C213.0 -709.0 201.0 -792.0 197.0 -806.0C194.0 -815.0 190.0 -817.0 184.0 -818.0C175.0 -820.0 155.0 -820.0 129.0 -820.0H75.0C49.0 -820.0 45.0 -812.0 45.0 -792.0V-38.0C69.0 -34.0 77.0 -23.0 79.0 -10.0L0.0 0.0ZM-342.0 -824.0 -309.0 -883.0C-300.0 -879.0 -293.0 -870.0 -291.0 -859.0C-178.0 -808.0 -89.0 -763.0 -24.0 -732.0L-30.0 -716.0C-160.0 -764.0 -288.0 -809.0 -342.0 -824.0ZM208.0 -225.0C161.0 -268.0 79.0 -337.0 23.0 -378.0L33.0 -388.0C95.0 -357.0 183.0 -307.0 232.0 -276.0C251.0 -282.0 260.0 -281.0 264.0 -273.0L208.0 -225.0ZM-242.0 0.0V-815.0L-197.0 -801.0V-38.0C-173.0 -34.0 -164.0 -24.0 -162.0 -10.0L-242.0 0.0ZM-215.0 -314.0V-344.0H-30.0C-17.0 -344.0 -8.0 -339.0 -5.0 -328.0C-29.0 -303.0 -68.0 -269.0 -68.0 -269.0L-103.0 -314.0H-215.0Z"/></g>
<g fill="black" opacity=".8" transform="translate(1300 300) scale(0.1 -0.1)"><path d="M0.0 0.0V-800.0C0.0 -840.0 14.0 -857.0 72.0 -857.0L134.0 -858.0C241.0 -858.0 267.0 -850.0 267.0 -829.0C267.0 -819.0 262.0 -814.0 243.0 -807.0L240.0 -666.0H225.0C217.0 -720.0 205.0 -791.0 202.0 -803.0C198.0 -811.0 196.0 -813.0 189.0 -813.0C180.0 -815.0 159.0 -816.0 131.0 -816.0H76.0C49.0 -816.0 45.0 -807.0 45.0 -787.0V-38.0C69.0 -36.0 78.0 -24.0 81.0 -11.0L0.0 0.0ZM-340.0 -812.0 -305.0 -878.0C-296.0 -875.0 -289.0 -867.0 -285.0 -854.0C-173.0 -811.0 -85.0 -774.0 -23.0 -746.0L-28.0 -729.0C-157.0 -767.0 -286.0 -801.0 -340.0 -812.0ZM202.0 -212.0C159.0 -263.0 77.0 -346.0 20.0 -397.0L31.0 -408.0C98.0 -367.0 187.0 -305.0 234.0 -266.0C253.0 -271.0 264.0 -266.0 268.0 -258.0L202.0 -212.0ZM-246.0 -3.0V-813.0L-200.0 -797.0V-40.0C-175.0 -36.0 -167.0 -25.0 -165.0 -12.0L-246.0 -3.0ZM-221.0 -325.0V-355.0H-42.0C-28.0 -355.0 -18.0 -350.0 -16.0 -339.0C-43.0 -311.0 -87.0 -276.0 -87.0 -276.0L-126.0 -325.0H-221.0Z"/></g>
<g fill="red" transform="translate(1400 300) scale(0.1 -0.1)"><path d="M0.0 0.0V-782.0C0.0 -866.0 18.0 -893.0 103.0 -893.0H154.0C263.0 -893.0 304.0 -861.0 304.0 -811.0C304.0 -788.0 296.0 -771.0 267.0 -756.0L262.0 -597.0H252.0C239.0 -655.0 220.0 -726.0 209.0 -746.0C203.0 -757.0 196.0 -759.0 190.0 -759.0C184.0 -760.0 176.0 -760.0 168.0 -760.0H145.0C131.0 -760.0 128.0 -753.0 128.0 -737.0V-45.0C153.0 -42.0 162.0 -31.0 163.0 -17.0L0.0 0.0ZM-305.0 -770.0 -243.0 -919.0C-230.0 -916.0 -219.0 -906.0 -214.0 -893.0C-97.0 -822.0 -17.0 -767.0 32.0 -729.0L31.0 -719.0C-107.0 -743.0 -248.0 -764.0 -305.0 -770.0ZM205.0 -218.0C181.0 -263.0 132.0 -345.0 98.0 -393.0L106.0 -402.0C157.0 -380.0 242.0 -347.0 282.0 -323.0C302.0 -330.0 312.0 -327.0 317.0 -320.0L205.0 -218.0ZM-245.0 -1.0V-814.0L-120.0 -780.0V-45.0C-92.0 -41.0 -85.0 -30.0 -83.0 -16.0L-245.0 -1.0ZM-170.0 -342.0V-370.0H-5.0C8.0 -370.0 18.0 -365.0 20.0 -354.0C-6.0 -316.0 -60.0 -254.0 -60.0 -254.0L-107.0 -342.0H-170.0Z"/></g>
<g fill="black" opacity=".8" transform="translate(1400 300) scale(0.1 -0.1)"><path d="M0.0 0.0V-783.0C0.0 -869.0 17.0 -897.0 102.0 -897.0H150.0C253.0 -897.0 295.0 -866.0 295.0 -815.0C295.0 -790.0 287.0 -774.0 258.0 -757.0L252.0 -616.0H243.0C231.0 -667.0 211.0 -731.0 200.0 -748.0C194.0 -759.0 187.0 -761.0 181.0 -761.0C176.0 -760.0 170.0 -761.0 164.0 -761.0H150.0C137.0 -761.0 135.0 -755.0 135.0 -739.0V-46.0C161.0 -43.0 169.0 -31.0 170.0 -17.0L0.0 0.0ZM-317.0 -760.0 -251.0 -919.0C-238.0 -916.0 -226.0 -905.0 -222.0 -891.0C-105.0 -815.0 -28.0 -757.0 21.0 -715.0L20.0 -707.0C-119.0 -731.0 -260.0 -755.0 -317.0 -760.0ZM185.0 -207.0C168.0 -258.0 130.0 -349.0 102.0 -405.0L110.0 -412.0C163.0 -385.0 241.0 -342.0 279.0 -312.0C296.0 -319.0 307.0 -315.0 311.0 -307.0L185.0 -207.0ZM-240.0 -1.0V-812.0L-110.0 -775.0V-45.0C-82.0 -41.0 -74.0 -30.0 -72.0 -16.0L-240.0 -1.0ZM-184.0 -347.0V-376.0H-2.0C12.0 -376.0 21.0 -371.0 25.0 -360.0C-4.0 -319.0 -63.0 -252.0 -63.0 -252.0L-113.0 -347.0H-184.0Z"/></g>
</svg>
