<?xml version="1.0" encoding="UTF-8"?>
<svg width="1700" height="300" xmlns="http://www.w3.org/2000/svg">
<rect width="100%" height="100%" fill="white"/>
<g fill="green" transform="translate(100 100) scale(0.1 -0.1)"><path d="M-0.0 -0.0 -75.0 37.0C-93.0 -117.0 -151.0 -403.0 -185.0 -523.0L-160.0 -481.0C-180.0 -485.0 -210.0 -495.0 -227.0 -505.0L-155.0 -569.0L-119.0 -533.0H-129.0C-94.0 -388.0 -40.0 -136.0 -19.0 5.0L-30.0 0.0ZM582.0 1.0H595.0C579.0 -317.0 541.0 -557.0 491.0 -599.0C475.0 -612.0 465.0 -615.0 441.0 -615.0C413.0 -615.0 328.0 -608.0 279.0 -602.0L277.0 -626.0C319.0 -631.0 370.0 -643.0 386.0 -653.0C402.0 -662.0 406.0 -678.0 406.0 -695.0C456.0 -695.0 499.0 -682.0 532.0 -649.0C590.0 -589.0 634.0 -359.0 649.0 -40.0C674.0 -40.0 691.0 -34.0 700.0 -24.0L619.0 43.0ZM749.0 -502.0 699.0 -559.0H-208.0L-204.0 -597.0H809.0C826.0 -597.0 837.0 -591.0 841.0 -577.0C804.0 -544.0 749.0 -502.0 749.0 -502.0ZM777.0 -235.0 728.0 -294.0H-333.0L-324.0 -331.0H837.0C854.0 -331.0 866.0 -325.0 869.0 -311.0C834.0 -277.0 777.0 -235.0 777.0 -235.0ZM629.0 1.0H-63.0V-37.0H629.0ZM115.0 -350.0 102.0 -364.0C168.0 -398.0 252.0 -469.0 278.0 -526.0C349.0 -563.0 374.0 -412.0 115.0 -350.0ZM147.0 -117.0 136.0 -133.0C210.0 -167.0 293.0 -234.0 322.0 -285.0C388.0 -314.0 406.0 -172.0 147.0 -117.0Z"/></g>
<g fill="green" transform="translate(200 100) scale(0.1 -0.1)"><path d="M0.0 0.0 -203.0 97.0C-215.0 -57.0 -263.0 -385.0 -300.0 -527.0L-256.0 -479.0C-282.0 -490.0 -314.0 -510.0 -333.0 -529.0L-174.0 -615.0L-115.0 -540.0H-124.0C-95.0 -400.0 -49.0 -108.0 -33.0 10.0L-50.0 0.0ZM397.0 0.0H411.0C400.0 -350.0 381.0 -548.0 341.0 -584.0C328.0 -594.0 318.0 -599.0 296.0 -599.0C265.0 -599.0 189.0 -595.0 138.0 -592.0V-606.0C195.0 -618.0 232.0 -634.0 254.0 -658.0C277.0 -680.0 282.0 -709.0 281.0 -747.0C370.0 -747.0 428.0 -742.0 473.0 -702.0C544.0 -639.0 566.0 -474.0 578.0 -64.0C607.0 -60.0 623.0 -51.0 633.0 -40.0L485.0 89.0ZM633.0 -457.0 546.0 -571.0H-267.0L-265.0 -606.0H752.0C770.0 -606.0 782.0 -600.0 787.0 -586.0C730.0 -534.0 633.0 -457.0 633.0 -457.0ZM668.0 -186.0 586.0 -298.0H-436.0L-429.0 -332.0H782.0C800.0 -332.0 813.0 -326.0 817.0 -312.0C761.0 -262.0 668.0 -186.0 668.0 -186.0ZM554.0 0.0H-150.0V-35.0H554.0ZM12.0 -357.0 4.0 -365.0C57.0 -403.0 117.0 -474.0 140.0 -539.0C304.0 -618.0 402.0 -312.0 12.0 -357.0ZM32.0 -116.0 25.0 -127.0C80.0 -164.0 131.0 -230.0 147.0 -286.0C295.0 -361.0 387.0 -77.0 32.0 -116.0Z"/></g>
<g fill="green" transform="translate(300 100) scale(0.1 -0.1)"><path d="M-0.0 0.0 -51.0 25.0C-66.0 -67.0 -109.0 -240.0 -133.0 -312.0L-116.0 -284.0C-129.0 -287.0 -150.0 -293.0 -162.0 -300.0L-113.0 -344.0L-88.0 -319.0H-95.0C-70.0 -233.0 -29.0 -81.0 -13.0 3.0L-21.0 0.0ZM439.0 1.0H448.0C435.0 -176.0 405.0 -325.0 370.0 -352.0C358.0 -361.0 351.0 -363.0 335.0 -363.0C315.0 -363.0 255.0 -358.0 222.0 -354.0L220.0 -370.0C249.0 -373.0 285.0 -382.0 296.0 -389.0C307.0 -394.0 310.0 -405.0 310.0 -417.0C345.0 -417.0 373.0 -409.0 397.0 -388.0C438.0 -349.0 473.0 -205.0 485.0 -27.0C501.0 -27.0 513.0 -23.0 519.0 -17.0L464.0 29.0ZM566.0 -306.0 531.0 -344.0H-155.0L-152.0 -370.0H608.0C620.0 -370.0 627.0 -366.0 630.0 -357.0C604.0 -334.0 566.0 -306.0 566.0 -306.0ZM587.0 -142.0 552.0 -182.0H-255.0L-249.0 -207.0H629.0C641.0 -207.0 649.0 -203.0 651.0 -194.0C627.0 -170.0 587.0 -142.0 587.0 -142.0ZM473.0 1.0H-47.0V-25.0H473.0ZM85.0 -213.0 77.0 -224.0C125.0 -244.0 188.0 -289.0 208.0 -327.0C259.0 -350.0 271.0 -244.0 85.0 -213.0ZM114.0 -81.0 107.0 -93.0C162.0 -114.0 224.0 -157.0 247.0 -190.0C293.0 -206.0 300.0 -109.0 114.0 -81.0Z"/></g>
<g fill="green" transform="translate(400 100) scale(0.1 -0.1)"><path d="M0.0 0.0 -142.0 70.0C-151.0 -25.0 -185.0 -229.0 -210.0 -318.0L-179.0 -285.0C-196.0 -293.0 -219.0 -307.0 -232.0 -320.0L-121.0 -380.0L-80.0 -327.0H-86.0C-67.0 -243.0 -35.0 -63.0 -23.0 7.0L-35.0 0.0ZM306.0 0.0H315.0C308.0 -201.0 294.0 -329.0 269.0 -351.0C261.0 -358.0 254.0 -361.0 239.0 -361.0C217.0 -361.0 161.0 -358.0 124.0 -356.0V-365.0C164.0 -373.0 191.0 -384.0 207.0 -400.0C224.0 -415.0 228.0 -434.0 227.0 -457.0C291.0 -457.0 330.0 -456.0 360.0 -431.0C408.0 -391.0 423.0 -281.0 431.0 -44.0C451.0 -41.0 461.0 -35.0 468.0 -28.0L366.0 60.0ZM475.0 -275.0 409.0 -356.0H-195.0L-194.0 -380.0H566.0C578.0 -380.0 586.0 -376.0 590.0 -366.0C547.0 -329.0 475.0 -275.0 475.0 -275.0ZM503.0 -108.0 442.0 -187.0H-332.0L-327.0 -209.0H591.0C603.0 -209.0 612.0 -205.0 615.0 -196.0C572.0 -161.0 503.0 -108.0 503.0 -108.0ZM431.0 0.0H-112.0V-24.0H431.0ZM11.0 -223.0 7.0 -229.0C49.0 -251.0 98.0 -297.0 120.0 -340.0C242.0 -386.0 296.0 -162.0 11.0 -223.0ZM28.0 -83.0 24.0 -91.0C66.0 -113.0 105.0 -157.0 119.0 -193.0C227.0 -241.0 282.0 -34.0 28.0 -83.0Z"/></g>
<g fill="green" transform="translate(500 100) scale(0.1 -0.1)"><path d="M-0.0 0.0 -75.0 37.0C-86.0 -173.0 -141.0 -563.0 -173.0 -725.0L-151.0 -682.0C-169.0 -687.0 -198.0 -698.0 -215.0 -708.0L-142.0 -770.0L-107.0 -735.0H-117.0C-82.0 -532.0 -36.0 -188.0 -19.0 6.0L-29.0 0.0ZM340.0 1.0H353.0C343.0 -471.0 319.0 -805.0 267.0 -856.0C251.0 -872.0 242.0 -876.0 215.0 -876.0C186.0 -876.0 90.0 -867.0 31.0 -859.0L29.0 -884.0C80.0 -891.0 139.0 -904.0 157.0 -916.0C175.0 -926.0 179.0 -947.0 179.0 -965.0C233.0 -965.0 282.0 -945.0 313.0 -903.0C371.0 -828.0 398.0 -510.0 408.0 -41.0C435.0 -41.0 450.0 -34.0 461.0 -24.0L378.0 44.0ZM440.0 -561.0 401.0 -611.0H-74.0L-77.0 -649.0H483.0C499.0 -649.0 510.0 -643.0 513.0 -629.0C486.0 -599.0 440.0 -561.0 440.0 -561.0ZM486.0 -206.0 441.0 -263.0H-346.0L-330.0 -300.0H533.0C550.0 -300.0 562.0 -294.0 565.0 -280.0C536.0 -248.0 486.0 -206.0 486.0 -206.0ZM376.0 1.0H-57.0V-37.0H376.0ZM24.0 -337.0 8.0 -349.0C67.0 -394.0 139.0 -479.0 153.0 -546.0C218.0 -590.0 254.0 -442.0 24.0 -337.0ZM90.0 -8.0 72.0 -15.0C106.0 -60.0 163.0 -145.0 173.0 -211.0C231.0 -260.0 279.0 -126.0 90.0 -8.0Z"/></g>
<g fill="green" transform="translate(600 100) scale(0.1 -0.1)"><path d="M0.0 0.0 -177.0 87.0C-187.0 -125.0 -235.0 -564.0 -274.0 -752.0L-236.0 -705.0C-261.0 -715.0 -291.0 -733.0 -310.0 -749.0L-167.0 -830.0L-114.0 -762.0H-123.0C-90.0 -561.0 -45.0 -162.0 -30.0 9.0L-45.0 0.0ZM193.0 0.0H209.0C193.0 -526.0 166.0 -795.0 108.0 -847.0C91.0 -861.0 79.0 -866.0 55.0 -866.0C22.0 -866.0 -54.0 -863.0 -109.0 -858.0L-108.0 -874.0C-51.0 -886.0 -12.0 -903.0 10.0 -928.0C31.0 -948.0 36.0 -982.0 35.0 -1022.0C121.0 -1022.0 184.0 -1011.0 234.0 -961.0C315.0 -880.0 345.0 -659.0 362.0 -63.0C393.0 -59.0 411.0 -50.0 422.0 -38.0L279.0 91.0ZM374.0 -548.0 319.0 -638.0H-91.0L-95.0 -672.0H439.0C455.0 -672.0 466.0 -667.0 470.0 -653.0C437.0 -612.0 374.0 -548.0 374.0 -548.0ZM410.0 -191.0 351.0 -286.0H-442.0L-428.0 -320.0H484.0C500.0 -320.0 512.0 -314.0 515.0 -300.0C478.0 -258.0 410.0 -191.0 410.0 -191.0ZM303.0 0.0H-100.0V-35.0H303.0ZM-44.0 -336.0 -57.0 -342.0C-19.0 -394.0 12.0 -477.0 12.0 -548.0C127.0 -650.0 262.0 -418.0 -44.0 -336.0ZM-16.0 -4.0 -29.0 -7.0C-5.0 -59.0 25.0 -142.0 25.0 -218.0C145.0 -332.0 297.0 -106.0 -16.0 -4.0Z"/></g>
<g fill="green" transform="translate(700 100) scale(0.1 -0.1)"><path d="M0.0 0.0 -86.0 42.0C-99.0 -102.0 -143.0 -370.0 -170.0 -483.0L-142.0 -434.0C-166.0 -438.0 -200.0 -450.0 -220.0 -462.0L-136.0 -535.0L-94.0 -493.0H-107.0C-78.0 -359.0 -39.0 -126.0 -22.0 6.0L-34.0 0.0ZM540.0 2.0H554.0C539.0 -342.0 505.0 -516.0 462.0 -553.0C448.0 -566.0 438.0 -568.0 415.0 -568.0C389.0 -568.0 326.0 -564.0 288.0 -560.0L286.0 -587.0C319.0 -591.0 355.0 -600.0 368.0 -610.0C383.0 -618.0 387.0 -633.0 387.0 -651.0C429.0 -651.0 473.0 -642.0 505.0 -611.0C560.0 -557.0 602.0 -391.0 615.0 -45.0C643.0 -44.0 662.0 -38.0 672.0 -26.0L581.0 49.0ZM724.0 -588.0 671.0 -651.0H-299.0L-288.0 -694.0H785.0C805.0 -694.0 817.0 -687.0 821.0 -671.0C783.0 -635.0 724.0 -588.0 724.0 -588.0ZM725.0 -328.0 678.0 -392.0H-189.0L-186.0 -434.0H779.0C798.0 -434.0 811.0 -427.0 816.0 -411.0C782.0 -375.0 725.0 -328.0 725.0 -328.0ZM601.0 2.0H-63.0V-42.0H601.0ZM153.0 -443.0 134.0 -454.0C174.0 -494.0 222.0 -566.0 234.0 -619.0C301.0 -668.0 359.0 -532.0 153.0 -443.0ZM130.0 -229.0 118.0 -249.0C199.0 -284.0 262.0 -343.0 285.0 -382.0C351.0 -412.0 382.0 -278.0 130.0 -229.0Z"/></g>
<g fill="green" transform="translate(800 100) scale(0.1 -0.1)"><path d="M0.0 0.0 -211.0 96.0C-224.0 -49.0 -273.0 -350.0 -308.0 -479.0L-260.0 -426.0C-291.0 -436.0 -327.0 -459.0 -349.0 -478.0L-180.0 -574.0L-116.0 -495.0H-128.0C-98.0 -366.0 -51.0 -105.0 -35.0 10.0L-54.0 0.0ZM372.0 0.0H387.0C377.0 -349.0 357.0 -508.0 322.0 -541.0C309.0 -551.0 300.0 -556.0 277.0 -556.0C251.0 -556.0 192.0 -553.0 156.0 -550.0L155.0 -569.0C201.0 -579.0 229.0 -593.0 247.0 -615.0C266.0 -636.0 269.0 -662.0 269.0 -699.0C347.0 -699.0 405.0 -696.0 450.0 -659.0C518.0 -600.0 541.0 -467.0 552.0 -68.0C583.0 -63.0 602.0 -54.0 612.0 -42.0L459.0 86.0ZM606.0 -539.0 515.0 -663.0H-393.0L-384.0 -704.0H728.0C749.0 -704.0 763.0 -697.0 768.0 -681.0C709.0 -624.0 606.0 -539.0 606.0 -539.0ZM632.0 -279.0 558.0 -387.0H-258.0L-255.0 -427.0H731.0C751.0 -427.0 764.0 -420.0 768.0 -404.0C719.0 -354.0 632.0 -279.0 632.0 -279.0ZM524.0 0.0H-131.0V-40.0H524.0ZM28.0 -472.0 17.0 -479.0C53.0 -516.0 92.0 -581.0 101.0 -641.0C251.0 -734.0 385.0 -456.0 28.0 -472.0ZM34.0 -247.0 25.0 -263.0C83.0 -294.0 124.0 -348.0 133.0 -383.0C258.0 -440.0 335.0 -188.0 34.0 -247.0Z"/></g>
<g fill="green" transform="translate(900 100) scale(0.1 -0.1)"><path d="M0.0 0.0 -56.0 27.0C-73.0 -132.0 -127.0 -430.0 -160.0 -555.0L-140.0 -523.0C-156.0 -526.0 -179.0 -534.0 -191.0 -541.0L-137.0 -589.0L-110.0 -563.0H-118.0C-85.0 -409.0 -33.0 -145.0 -15.0 3.0L-22.0 0.0ZM584.0 0.0H594.0C580.0 -301.0 549.0 -580.0 502.0 -622.0C486.0 -634.0 481.0 -637.0 459.0 -637.0C434.0 -637.0 356.0 -629.0 308.0 -623.0L305.0 -641.0C347.0 -646.0 395.0 -658.0 411.0 -667.0C424.0 -674.0 426.0 -687.0 426.0 -700.0C474.0 -700.0 509.0 -688.0 538.0 -656.0C589.0 -597.0 623.0 -333.0 636.0 -32.0C656.0 -31.0 669.0 -27.0 676.0 -19.0L613.0 34.0ZM727.0 -528.0 681.0 -580.0H-177.0L-174.0 -608.0H786.0C799.0 -608.0 808.0 -604.0 812.0 -593.0C777.0 -565.0 727.0 -528.0 727.0 -528.0ZM759.0 -259.0 714.0 -312.0H-294.0L-287.0 -339.0H820.0C833.0 -339.0 843.0 -335.0 845.0 -324.0C812.0 -295.0 759.0 -259.0 759.0 -259.0ZM609.0 0.0H-41.0V-29.0H609.0ZM127.0 -366.0 117.0 -378.0C187.0 -415.0 274.0 -488.0 299.0 -549.0C363.0 -583.0 382.0 -435.0 127.0 -366.0ZM153.0 -100.0 144.0 -112.0C215.0 -153.0 297.0 -230.0 319.0 -289.0C380.0 -321.0 400.0 -175.0 153.0 -100.0Z"/></g>
<g fill="green" transform="translate(1000 100) scale(0.1 -0.1)"><path d="M0.0 0.0 -176.0 76.0C-187.0 -71.0 -231.0 -394.0 -267.0 -532.0L-231.0 -495.0C-251.0 -505.0 -275.0 -521.0 -290.0 -537.0L-155.0 -606.0L-107.0 -542.0H-112.0C-86.0 -405.0 -42.0 -108.0 -27.0 7.0L-40.0 0.0ZM421.0 0.0H432.0C424.0 -329.0 411.0 -541.0 373.0 -575.0C361.0 -583.0 352.0 -588.0 333.0 -588.0C302.0 -588.0 226.0 -584.0 171.0 -581.0L170.0 -589.0C229.0 -602.0 268.0 -617.0 290.0 -640.0C312.0 -660.0 319.0 -686.0 317.0 -722.0C405.0 -722.0 455.0 -717.0 495.0 -678.0C558.0 -616.0 572.0 -446.0 581.0 -53.0C606.0 -50.0 618.0 -42.0 626.0 -33.0L501.0 82.0ZM640.0 -465.0 565.0 -563.0H-224.0L-222.0 -589.0H749.0C762.0 -589.0 772.0 -585.0 776.0 -574.0C726.0 -530.0 640.0 -465.0 640.0 -465.0ZM665.0 -187.0 590.0 -291.0H-376.0L-370.0 -316.0H773.0C787.0 -316.0 798.0 -312.0 801.0 -301.0C750.0 -256.0 665.0 -187.0 665.0 -187.0ZM533.0 0.0H-139.0V-26.0H533.0ZM47.0 -345.0 42.0 -352.0C98.0 -396.0 155.0 -470.0 176.0 -541.0C331.0 -624.0 423.0 -324.0 47.0 -345.0ZM51.0 -85.0 48.0 -94.0C110.0 -134.0 164.0 -204.0 181.0 -266.0C328.0 -342.0 410.0 -51.0 51.0 -85.0Z"/></g>
<g fill="green" transform="translate(1100 100) scale(0.1 -0.1)"><path d="M-0.0 -0.0 -78.0 39.0C-95.0 -115.0 -150.0 -399.0 -184.0 -518.0L-158.0 -474.0C-179.0 -478.0 -210.0 -489.0 -228.0 -499.0L-153.0 -566.0L-116.0 -528.0H-126.0C-92.0 -384.0 -40.0 -134.0 -20.0 6.0L-32.0 0.0ZM589.0 1.0H603.0C588.0 -346.0 552.0 -571.0 506.0 -612.0C489.0 -624.0 479.0 -628.0 455.0 -628.0C428.0 -628.0 347.0 -621.0 299.0 -615.0L298.0 -641.0C337.0 -646.0 386.0 -657.0 400.0 -666.0C418.0 -676.0 421.0 -691.0 421.0 -709.0C469.0 -709.0 514.0 -696.0 546.0 -664.0C602.0 -605.0 644.0 -389.0 657.0 -42.0C684.0 -41.0 701.0 -35.0 710.0 -24.0L627.0 43.0ZM749.0 -491.0 695.0 -554.0H-206.0L-202.0 -593.0H813.0C831.0 -593.0 843.0 -587.0 847.0 -572.0C808.0 -536.0 749.0 -491.0 749.0 -491.0ZM769.0 -230.0 717.0 -293.0H-316.0L-307.0 -331.0H830.0C848.0 -331.0 860.0 -325.0 863.0 -311.0C827.0 -275.0 769.0 -230.0 769.0 -230.0ZM644.0 1.0H-67.0V-39.0H644.0ZM117.0 -368.0 105.0 -385.0C173.0 -413.0 265.0 -476.0 300.0 -526.0C372.0 -556.0 384.0 -412.0 117.0 -368.0ZM129.0 -125.0 119.0 -144.0C201.0 -170.0 296.0 -225.0 335.0 -269.0C404.0 -290.0 406.0 -152.0 129.0 -125.0Z"/></g>
<g fill="green" transform="translate(1200 100) scale(0.1 -0.1)"><path d="M0.0 0.0 -216.0 105.0C-225.0 -49.0 -267.0 -376.0 -301.0 -518.0L-256.0 -468.0C-283.0 -480.0 -316.0 -501.0 -335.0 -521.0L-166.0 -611.0L-105.0 -531.0H-114.0C-88.0 -392.0 -48.0 -104.0 -35.0 10.0L-53.0 0.0ZM378.0 0.0H393.0C384.0 -370.0 371.0 -539.0 335.0 -573.0C324.0 -582.0 313.0 -587.0 293.0 -587.0C267.0 -587.0 205.0 -584.0 166.0 -582.0V-596.0C217.0 -609.0 246.0 -625.0 266.0 -652.0C285.0 -676.0 288.0 -711.0 288.0 -760.0C369.0 -760.0 428.0 -748.0 473.0 -708.0C544.0 -644.0 560.0 -511.0 570.0 -67.0C599.0 -63.0 616.0 -53.0 626.0 -42.0L471.0 92.0ZM629.0 -443.0 541.0 -561.0H-282.0L-280.0 -597.0H749.0C767.0 -597.0 780.0 -591.0 785.0 -576.0C727.0 -522.0 629.0 -443.0 629.0 -443.0ZM653.0 -183.0 569.0 -302.0H-436.0L-429.0 -337.0H767.0C786.0 -337.0 799.0 -331.0 804.0 -316.0C748.0 -264.0 653.0 -183.0 653.0 -183.0ZM527.0 0.0H-166.0V-36.0H527.0ZM-1.0 -368.0 -9.0 -375.0C35.0 -413.0 96.0 -480.0 124.0 -541.0C292.0 -614.0 386.0 -311.0 -1.0 -368.0ZM23.0 -113.0 16.0 -125.0C62.0 -160.0 113.0 -221.0 133.0 -272.0C281.0 -339.0 369.0 -67.0 23.0 -113.0Z"/></g>
<g fill="red" transform="translate(100 200) scale(0.1 -0.1)"><path d="M0.0 0.0 -60.0 29.0C-65.0 -157.0 -99.0 -502.0 -122.0 -647.0L-104.0 -611.0C-120.0 -615.0 -144.0 -625.0 -157.0 -633.0L-97.0 -682.0L-69.0 -654.0H-79.0C-54.0 -472.0 -25.0 -168.0 -17.0 5.0L-23.0 0.0ZM297.0 0.0H308.0C303.0 -449.0 292.0 -726.0 254.0 -769.0C242.0 -781.0 237.0 -784.0 215.0 -784.0C195.0 -784.0 132.0 -777.0 89.0 -772.0L88.0 -792.0C124.0 -798.0 162.0 -806.0 176.0 -815.0C189.0 -824.0 191.0 -838.0 191.0 -852.0C230.0 -852.0 269.0 -837.0 292.0 -802.0C334.0 -741.0 347.0 -479.0 351.0 -34.0C374.0 -32.0 386.0 -27.0 394.0 -19.0L327.0 36.0ZM372.0 -575.0 335.0 -625.0H-100.0V-655.0H415.0C429.0 -655.0 438.0 -650.0 441.0 -639.0C415.0 -611.0 372.0 -575.0 372.0 -575.0ZM391.0 -266.0 353.0 -318.0H-165.0L-157.0 -348.0H433.0C447.0 -348.0 456.0 -343.0 459.0 -332.0C433.0 -304.0 391.0 -266.0 391.0 -266.0ZM326.0 0.0H-34.0V-30.0H326.0ZM62.0 -399.0 49.0 -407.0C91.0 -449.0 143.0 -521.0 155.0 -575.0C204.0 -613.0 240.0 -499.0 62.0 -399.0ZM60.0 -76.0 48.0 -84.0C89.0 -124.0 138.0 -193.0 147.0 -245.0C198.0 -285.0 236.0 -168.0 60.0 -76.0Z"/></g>
<g fill="black" opacity=".8" transform="translate(100 200) scale(0.1 -0.1)"><path d="M0.0 0.0 -60.0 29.0C-65.0 -157.0 -99.0 -503.0 -122.0 -647.0L-104.0 -611.0C-120.0 -615.0 -144.0 -625.0 -157.0 -633.0L-98.0 -682.0L-69.0 -654.0H-79.0C-54.0 -472.0 -25.0 -168.0 -16.0 5.0L-23.0 0.0ZM297.0 1.0H308.0C302.0 -449.0 291.0 -727.0 255.0 -768.0C241.0 -781.0 238.0 -785.0 216.0 -785.0C195.0 -785.0 133.0 -777.0 89.0 -772.0L87.0 -792.0C125.0 -798.0 163.0 -807.0 175.0 -816.0C190.0 -823.0 191.0 -837.0 191.0 -851.0C231.0 -851.0 269.0 -837.0 292.0 -803.0C334.0 -741.0 347.0 -480.0 351.0 -35.0C374.0 -32.0 385.0 -28.0 394.0 -18.0L328.0 35.0ZM372.0 -575.0 334.0 -625.0H-100.0L-99.0 -654.0H415.0C429.0 -654.0 438.0 -650.0 441.0 -638.0C416.0 -611.0 372.0 -575.0 372.0 -575.0ZM392.0 -266.0 353.0 -319.0H-165.0L-157.0 -347.0H432.0C446.0 -347.0 456.0 -343.0 459.0 -332.0C434.0 -304.0 392.0 -266.0 392.0 -266.0ZM326.0 1.0H-35.0V-31.0H326.0ZM63.0 -398.0 49.0 -408.0C91.0 -449.0 143.0 -520.0 155.0 -575.0C206.0 -613.0 241.0 -498.0 63.0 -398.0ZM61.0 -76.0 47.0 -84.0C89.0 -124.0 139.0 -193.0 147.0 -245.0C198.0 -285.0 236.0 -169.0 61.0 -76.0Z"/></g>
<g fill="red" transform="translate(200 200) scale(0.1 -0.1)"><path d="M0.0 0.0 -153.0 65.0C-159.0 -111.0 -193.0 -481.0 -224.0 -637.0L-193.0 -599.0C-214.0 -607.0 -238.0 -622.0 -252.0 -636.0L-130.0 -702.0L-87.0 -645.0H-94.0C-69.0 -477.0 -35.0 -139.0 -25.0 6.0L-37.0 0.0ZM171.0 0.0H184.0C175.0 -467.0 162.0 -668.0 117.0 -709.0C106.0 -719.0 95.0 -723.0 79.0 -723.0C57.0 -723.0 12.0 -721.0 -20.0 -718.0L-21.0 -730.0C20.0 -741.0 44.0 -756.0 59.0 -778.0C71.0 -796.0 74.0 -826.0 74.0 -871.0C135.0 -871.0 185.0 -856.0 225.0 -813.0C289.0 -744.0 304.0 -592.0 314.0 -53.0C339.0 -49.0 354.0 -41.0 362.0 -31.0L245.0 76.0ZM333.0 -539.0 289.0 -617.0H-144.0V-645.0H386.0C399.0 -645.0 409.0 -640.0 411.0 -629.0C385.0 -594.0 333.0 -539.0 333.0 -539.0ZM340.0 -231.0 295.0 -314.0H-226.0L-218.0 -342.0H392.0C405.0 -342.0 415.0 -337.0 417.0 -326.0C392.0 -289.0 340.0 -231.0 340.0 -231.0ZM218.0 0.0H-85.0V-28.0H218.0ZM-7.0 -378.0 -17.0 -382.0C2.0 -433.0 15.0 -503.0 9.0 -565.0C101.0 -664.0 236.0 -478.0 -7.0 -378.0ZM-1.0 -61.0 -11.0 -66.0C12.0 -110.0 36.0 -175.0 38.0 -231.0C131.0 -314.0 243.0 -133.0 -1.0 -61.0Z"/></g>
<g fill="black" opacity=".8" transform="translate(200 200) scale(0.1 -0.1)"><path d="M0.0 0.0 -153.0 66.0C-159.0 -111.0 -194.0 -480.0 -224.0 -636.0L-193.0 -599.0C-214.0 -607.0 -237.0 -623.0 -253.0 -635.0L-129.0 -703.0L-87.0 -644.0H-93.0C-68.0 -476.0 -35.0 -139.0 -25.0 5.0L-37.0 0.0ZM170.0 0.0H183.0C175.0 -467.0 161.0 -668.0 118.0 -709.0C106.0 -719.0 96.0 -723.0 78.0 -723.0C56.0 -723.0 12.0 -722.0 -20.0 -718.0L-21.0 -730.0C20.0 -742.0 43.0 -755.0 59.0 -778.0C70.0 -795.0 74.0 -827.0 73.0 -871.0C136.0 -871.0 186.0 -856.0 226.0 -814.0C290.0 -744.0 304.0 -593.0 313.0 -52.0C339.0 -49.0 354.0 -41.0 362.0 -31.0L245.0 76.0ZM333.0 -540.0 290.0 -617.0H-145.0L-143.0 -644.0H387.0C399.0 -644.0 409.0 -641.0 412.0 -629.0C386.0 -594.0 333.0 -540.0 333.0 -540.0ZM339.0 -231.0 295.0 -314.0H-227.0L-217.0 -341.0H393.0C405.0 -341.0 414.0 -337.0 417.0 -325.0C392.0 -290.0 339.0 -231.0 339.0 -231.0ZM218.0 0.0H-85.0V-27.0H218.0ZM-7.0 -379.0 -17.0 -382.0C1.0 -433.0 14.0 -503.0 9.0 -565.0C101.0 -664.0 235.0 -478.0 -7.0 -379.0ZM-2.0 -61.0 -11.0 -67.0C12.0 -110.0 36.0 -176.0 37.0 -231.0C130.0 -314.0 242.0 -133.0 -2.0 -61.0Z"/></g>
<g fill="red" transform="translate(300 200) scale(0.1 -0.1)"><path d="M0.0 0.0 -60.0 29.0C-72.0 -158.0 -121.0 -506.0 -151.0 -652.0L-132.0 -617.0C-148.0 -621.0 -172.0 -630.0 -185.0 -638.0L-126.0 -688.0L-97.0 -660.0H-107.0C-75.0 -478.0 -31.0 -170.0 -16.0 4.0L-23.0 0.0ZM442.0 0.0H453.0C443.0 -392.0 420.0 -702.0 372.0 -749.0C358.0 -762.0 352.0 -765.0 328.0 -765.0C304.0 -765.0 224.0 -757.0 174.0 -751.0L172.0 -770.0C215.0 -776.0 264.0 -787.0 281.0 -797.0C294.0 -806.0 297.0 -821.0 297.0 -835.0C345.0 -835.0 384.0 -820.0 412.0 -783.0C463.0 -718.0 488.0 -424.0 498.0 -34.0C520.0 -33.0 533.0 -28.0 541.0 -20.0L473.0 37.0ZM555.0 -580.0 514.0 -630.0H-129.0V-660.0H605.0C619.0 -660.0 628.0 -655.0 631.0 -644.0C601.0 -616.0 555.0 -580.0 555.0 -580.0ZM589.0 -265.0 547.0 -318.0H-267.0L-258.0 -348.0H642.0C656.0 -348.0 666.0 -343.0 669.0 -332.0C638.0 -303.0 589.0 -265.0 589.0 -265.0ZM466.0 0.0H-39.0V-30.0H466.0ZM86.0 -382.0 74.0 -391.0C133.0 -436.0 204.0 -517.0 219.0 -582.0C278.0 -623.0 312.0 -480.0 86.0 -382.0ZM117.0 -70.0 105.0 -78.0C156.0 -125.0 218.0 -209.0 229.0 -273.0C286.0 -316.0 326.0 -176.0 117.0 -70.0Z"/></g>
<g fill="black" opacity=".8" transform="translate(300 200) scale(0.1 -0.1)"><path d="M0.0 0.0 -60.0 29.0C-72.0 -158.0 -121.0 -507.0 -151.0 -652.0L-132.0 -617.0C-148.0 -621.0 -172.0 -630.0 -185.0 -638.0L-126.0 -688.0L-98.0 -660.0H-107.0C-75.0 -478.0 -31.0 -170.0 -16.0 4.0L-23.0 0.0ZM442.0 0.0H453.0C442.0 -392.0 419.0 -703.0 373.0 -748.0C357.0 -762.0 352.0 -765.0 329.0 -765.0C304.0 -765.0 225.0 -757.0 174.0 -750.0L171.0 -770.0C216.0 -776.0 265.0 -788.0 281.0 -798.0C295.0 -805.0 297.0 -821.0 297.0 -835.0C345.0 -835.0 384.0 -820.0 412.0 -784.0C463.0 -718.0 488.0 -424.0 498.0 -34.0C520.0 -33.0 533.0 -28.0 541.0 -20.0L473.0 37.0ZM555.0 -580.0 514.0 -630.0H-129.0L-128.0 -660.0H605.0C618.0 -660.0 628.0 -655.0 631.0 -644.0C601.0 -616.0 555.0 -580.0 555.0 -580.0ZM590.0 -265.0 547.0 -319.0H-267.0L-258.0 -348.0H642.0C656.0 -348.0 666.0 -343.0 669.0 -332.0C639.0 -303.0 590.0 -265.0 590.0 -265.0ZM466.0 0.0H-39.0V-31.0H466.0ZM86.0 -381.0 73.0 -392.0C133.0 -436.0 204.0 -517.0 219.0 -582.0C279.0 -623.0 313.0 -480.0 86.0 -381.0ZM117.0 -70.0 104.0 -79.0C156.0 -125.0 219.0 -209.0 229.0 -273.0C286.0 -316.0 326.0 -177.0 117.0 -70.0Z"/></g>
<g fill="red" transform="translate(400 200) scale(0.1 -0.1)"><path d="M0.0 0.0 -166.0 71.0C-176.0 -105.0 -220.0 -482.0 -257.0 -642.0L-223.0 -603.0C-244.0 -612.0 -269.0 -628.0 -284.0 -643.0L-154.0 -712.0L-107.0 -651.0H-114.0C-85.0 -484.0 -41.0 -137.0 -26.0 7.0L-39.0 0.0ZM303.0 0.0H316.0C305.0 -425.0 287.0 -665.0 239.0 -707.0C226.0 -718.0 215.0 -723.0 196.0 -723.0C165.0 -723.0 93.0 -719.0 40.0 -715.0L39.0 -726.0C95.0 -738.0 133.0 -754.0 154.0 -777.0C174.0 -796.0 180.0 -823.0 179.0 -861.0C262.0 -861.0 315.0 -853.0 358.0 -808.0C426.0 -738.0 446.0 -546.0 458.0 -55.0C484.0 -51.0 498.0 -43.0 507.0 -33.0L382.0 82.0ZM493.0 -534.0 433.0 -623.0H-163.0V-651.0H573.0C587.0 -651.0 597.0 -646.0 600.0 -635.0C562.0 -595.0 493.0 -534.0 493.0 -534.0ZM517.0 -213.0 455.0 -307.0H-338.0L-330.0 -335.0H599.0C613.0 -335.0 624.0 -330.0 626.0 -319.0C587.0 -277.0 517.0 -213.0 517.0 -213.0ZM391.0 0.0H-108.0V-28.0H391.0ZM18.0 -363.0 10.0 -369.0C54.0 -420.0 90.0 -499.0 95.0 -571.0C220.0 -670.0 342.0 -417.0 18.0 -363.0ZM25.0 -59.0 17.0 -65.0C63.0 -112.0 103.0 -187.0 110.0 -255.0C236.0 -347.0 347.0 -96.0 25.0 -59.0Z"/></g>
<g fill="black" opacity=".8" transform="translate(400 200) scale(0.1 -0.1)"><path d="M0.0 0.0 -166.0 72.0C-176.0 -105.0 -220.0 -482.0 -257.0 -641.0L-223.0 -603.0C-244.0 -612.0 -268.0 -628.0 -284.0 -643.0L-154.0 -713.0L-107.0 -651.0H-113.0C-85.0 -483.0 -41.0 -136.0 -26.0 7.0L-39.0 0.0ZM303.0 0.0H315.0C305.0 -425.0 287.0 -665.0 240.0 -707.0C226.0 -717.0 216.0 -722.0 195.0 -722.0C165.0 -722.0 93.0 -719.0 40.0 -715.0L39.0 -726.0C95.0 -738.0 133.0 -753.0 154.0 -777.0C174.0 -795.0 180.0 -824.0 178.0 -860.0C262.0 -860.0 315.0 -853.0 358.0 -809.0C427.0 -738.0 446.0 -546.0 457.0 -54.0C484.0 -51.0 498.0 -43.0 507.0 -33.0L382.0 83.0ZM493.0 -534.0 433.0 -623.0H-163.0V-650.0H574.0C587.0 -650.0 597.0 -647.0 600.0 -635.0C562.0 -595.0 493.0 -534.0 493.0 -534.0ZM516.0 -213.0 455.0 -307.0H-338.0L-330.0 -334.0H599.0C613.0 -334.0 624.0 -330.0 626.0 -318.0C587.0 -277.0 516.0 -213.0 516.0 -213.0ZM391.0 0.0H-108.0V-28.0H391.0ZM18.0 -363.0 10.0 -369.0C53.0 -420.0 89.0 -499.0 95.0 -571.0C220.0 -670.0 342.0 -417.0 18.0 -363.0ZM24.0 -59.0 17.0 -65.0C63.0 -112.0 103.0 -188.0 109.0 -255.0C235.0 -347.0 347.0 -96.0 24.0 -59.0Z"/></g>
<g fill="red" transform="translate(500 200) scale(0.1 -0.1)"><path d="M0.0 0.0 -60.0 30.0C-73.0 -112.0 -118.0 -373.0 -146.0 -483.0L-126.0 -449.0C-142.0 -452.0 -166.0 -461.0 -179.0 -469.0L-121.0 -520.0L-93.0 -491.0H-101.0C-73.0 -356.0 -31.0 -125.0 -16.0 5.0L-24.0 0.0ZM427.0 0.0H438.0C428.0 -317.0 403.0 -536.0 363.0 -573.0C350.0 -584.0 342.0 -587.0 322.0 -587.0C300.0 -587.0 229.0 -580.0 187.0 -575.0L186.0 -595.0C221.0 -600.0 264.0 -609.0 277.0 -617.0C291.0 -626.0 294.0 -639.0 294.0 -653.0C334.0 -653.0 371.0 -640.0 397.0 -611.0C442.0 -559.0 471.0 -349.0 481.0 -33.0C502.0 -32.0 515.0 -27.0 522.0 -19.0L457.0 34.0ZM537.0 -413.0 497.0 -462.0H-123.0V-492.0H585.0C599.0 -492.0 608.0 -487.0 611.0 -476.0C582.0 -448.0 537.0 -413.0 537.0 -413.0ZM561.0 -177.0 520.0 -226.0H-270.0L-261.0 -256.0H609.0C623.0 -256.0 632.0 -251.0 634.0 -240.0C606.0 -212.0 561.0 -177.0 561.0 -177.0ZM465.0 0.0H-50.0V-30.0H465.0ZM71.0 -293.0 62.0 -305.0C119.0 -331.0 195.0 -387.0 222.0 -431.0C278.0 -456.0 287.0 -338.0 71.0 -293.0ZM94.0 -63.0 85.0 -75.0C141.0 -100.0 214.0 -152.0 241.0 -194.0C295.0 -217.0 303.0 -104.0 94.0 -63.0Z"/></g>
<g fill="black" opacity=".8" transform="translate(500 200) scale(0.1 -0.1)"><path d="M0.0 0.0 -60.0 30.0C-73.0 -111.0 -118.0 -374.0 -146.0 -483.0L-126.0 -449.0C-142.0 -452.0 -166.0 -461.0 -180.0 -469.0L-122.0 -520.0L-93.0 -491.0H-101.0C-73.0 -356.0 -31.0 -125.0 -16.0 5.0L-25.0 0.0ZM427.0 1.0H438.0C427.0 -317.0 402.0 -537.0 364.0 -573.0C349.0 -584.0 342.0 -587.0 322.0 -587.0C300.0 -587.0 230.0 -580.0 187.0 -575.0L186.0 -595.0C221.0 -600.0 264.0 -610.0 277.0 -617.0C292.0 -625.0 294.0 -638.0 294.0 -653.0C335.0 -653.0 372.0 -641.0 397.0 -612.0C442.0 -559.0 471.0 -349.0 481.0 -33.0C502.0 -32.0 515.0 -27.0 522.0 -19.0L457.0 34.0ZM537.0 -413.0 496.0 -462.0H-123.0L-122.0 -492.0H585.0C599.0 -492.0 608.0 -487.0 611.0 -476.0C582.0 -448.0 537.0 -413.0 537.0 -413.0ZM561.0 -176.0 519.0 -226.0H-270.0L-261.0 -255.0H608.0C622.0 -255.0 632.0 -251.0 634.0 -240.0C607.0 -212.0 561.0 -176.0 561.0 -176.0ZM465.0 1.0H-50.0V-30.0H465.0ZM72.0 -292.0 62.0 -306.0C119.0 -331.0 195.0 -386.0 222.0 -431.0C279.0 -456.0 288.0 -338.0 72.0 -292.0ZM94.0 -63.0 85.0 -75.0C141.0 -100.0 214.0 -152.0 241.0 -194.0C295.0 -217.0 303.0 -105.0 94.0 -63.0Z"/></g>
<g fill="red" transform="translate(600 200) scale(0.1 -0.1)"><path d="M0.0 0.0 -166.0 80.0C-173.0 -60.0 -206.0 -358.0 -235.0 -486.0L-201.0 -447.0C-222.0 -456.0 -247.0 -472.0 -261.0 -488.0L-131.0 -556.0L-85.0 -495.0H-92.0C-70.0 -366.0 -37.0 -99.0 -27.0 8.0L-41.0 0.0ZM266.0 0.0H278.0C270.0 -344.0 258.0 -506.0 223.0 -538.0C214.0 -546.0 204.0 -550.0 188.0 -550.0C166.0 -550.0 113.0 -547.0 78.0 -545.0V-556.0C121.0 -567.0 147.0 -581.0 164.0 -603.0C179.0 -622.0 182.0 -651.0 182.0 -692.0C248.0 -692.0 296.0 -681.0 334.0 -645.0C394.0 -588.0 408.0 -461.0 417.0 -53.0C441.0 -50.0 454.0 -42.0 462.0 -33.0L341.0 75.0ZM455.0 -379.0 393.0 -467.0H-170.0V-495.0H538.0C552.0 -495.0 562.0 -490.0 565.0 -479.0C525.0 -439.0 455.0 -379.0 455.0 -379.0ZM475.0 -143.0 412.0 -235.0H-367.0L-359.0 -263.0H559.0C573.0 -263.0 584.0 -258.0 587.0 -247.0C546.0 -206.0 475.0 -143.0 475.0 -143.0ZM370.0 0.0H-124.0V-28.0H370.0ZM-11.0 -284.0 -18.0 -290.0C17.0 -325.0 61.0 -384.0 79.0 -437.0C205.0 -502.0 287.0 -270.0 -11.0 -284.0ZM10.0 -49.0 3.0 -55.0C34.0 -89.0 72.0 -145.0 86.0 -195.0C202.0 -261.0 289.0 -48.0 10.0 -49.0Z"/></g>
<g fill="black" opacity=".8" transform="translate(600 200) scale(0.1 -0.1)"><path d="M0.0 0.0 -166.0 81.0C-173.0 -60.0 -207.0 -357.0 -235.0 -486.0L-201.0 -447.0C-221.0 -457.0 -247.0 -473.0 -262.0 -488.0L-131.0 -557.0L-85.0 -495.0H-91.0C-70.0 -365.0 -37.0 -99.0 -27.0 7.0L-40.0 0.0ZM265.0 0.0H278.0C270.0 -344.0 257.0 -506.0 223.0 -538.0C214.0 -546.0 204.0 -550.0 188.0 -550.0C165.0 -550.0 113.0 -548.0 78.0 -545.0V-556.0C121.0 -567.0 147.0 -580.0 163.0 -603.0C179.0 -622.0 182.0 -652.0 181.0 -692.0C248.0 -692.0 297.0 -681.0 334.0 -645.0C394.0 -588.0 408.0 -461.0 417.0 -53.0C441.0 -50.0 454.0 -42.0 462.0 -33.0L340.0 75.0ZM456.0 -380.0 393.0 -467.0H-170.0V-495.0H539.0C552.0 -495.0 562.0 -491.0 566.0 -479.0C525.0 -439.0 456.0 -380.0 456.0 -380.0ZM475.0 -143.0 412.0 -236.0H-367.0L-359.0 -262.0H559.0C573.0 -262.0 583.0 -258.0 587.0 -246.0C546.0 -206.0 475.0 -143.0 475.0 -143.0ZM370.0 0.0H-124.0V-28.0H370.0ZM-11.0 -284.0 -18.0 -289.0C16.0 -325.0 60.0 -384.0 79.0 -437.0C205.0 -502.0 287.0 -270.0 -11.0 -284.0ZM10.0 -49.0 3.0 -56.0C34.0 -89.0 72.0 -145.0 85.0 -194.0C201.0 -261.0 288.0 -48.0 10.0 -49.0Z"/></g>
<g fill="red" transform="translate(700 200) scale(0.1 -0.1)"><path d="M0.0 0.0 -60.0 30.0C-64.0 -112.0 -93.0 -374.0 -110.0 -484.0L-93.0 -449.0C-108.0 -453.0 -131.0 -462.0 -145.0 -470.0L-85.0 -520.0L-57.0 -491.0H-66.0C-46.0 -355.0 -24.0 -125.0 -16.0 5.0L-23.0 0.0ZM169.0 1.0H179.0C174.0 -358.0 161.0 -548.0 129.0 -581.0C120.0 -592.0 113.0 -594.0 94.0 -594.0C76.0 -594.0 21.0 -589.0 -13.0 -585.0L-14.0 -605.0C15.0 -609.0 48.0 -616.0 59.0 -624.0C71.0 -632.0 74.0 -646.0 74.0 -660.0C106.0 -660.0 142.0 -647.0 163.0 -619.0C201.0 -570.0 217.0 -389.0 222.0 -32.0C243.0 -31.0 255.0 -26.0 263.0 -18.0L198.0 35.0ZM239.0 -423.0 212.0 -461.0H-85.0V-491.0H267.0C280.0 -491.0 288.0 -486.0 290.0 -475.0C272.0 -452.0 239.0 -423.0 239.0 -423.0ZM255.0 -179.0 226.0 -221.0H-158.0L-150.0 -251.0H282.0C295.0 -251.0 304.0 -246.0 307.0 -235.0C288.0 -211.0 255.0 -179.0 255.0 -179.0ZM205.0 1.0H-42.0V-29.0H205.0ZM21.0 -274.0 7.0 -280.0C31.0 -314.0 57.0 -372.0 59.0 -414.0C100.0 -451.0 143.0 -361.0 21.0 -274.0ZM38.0 -56.0 25.0 -62.0C47.0 -92.0 72.0 -143.0 76.0 -180.0C115.0 -215.0 156.0 -132.0 38.0 -56.0Z"/></g>
<g fill="black" opacity=".8" transform="translate(700 200) scale(0.1 -0.1)"><path d="M0.0 0.0 -60.0 29.0C-64.0 -112.0 -93.0 -375.0 -110.0 -483.0L-93.0 -449.0C-108.0 -453.0 -131.0 -462.0 -145.0 -470.0L-86.0 -519.0L-57.0 -490.0H-66.0C-46.0 -355.0 -24.0 -125.0 -15.0 5.0L-24.0 0.0ZM169.0 2.0H179.0C173.0 -358.0 161.0 -548.0 130.0 -580.0C119.0 -592.0 113.0 -594.0 95.0 -594.0C76.0 -594.0 22.0 -590.0 -13.0 -585.0L-15.0 -605.0C16.0 -609.0 49.0 -617.0 59.0 -625.0C72.0 -631.0 74.0 -646.0 74.0 -660.0C107.0 -660.0 142.0 -648.0 163.0 -620.0C201.0 -570.0 217.0 -389.0 222.0 -32.0C243.0 -31.0 254.0 -26.0 263.0 -18.0L198.0 34.0ZM239.0 -423.0 211.0 -461.0H-86.0L-85.0 -491.0H266.0C280.0 -491.0 288.0 -486.0 290.0 -475.0C272.0 -452.0 239.0 -423.0 239.0 -423.0ZM256.0 -178.0 225.0 -221.0H-159.0L-150.0 -250.0H281.0C295.0 -250.0 303.0 -246.0 307.0 -235.0C289.0 -211.0 256.0 -178.0 256.0 -178.0ZM205.0 2.0H-42.0V-29.0H205.0ZM22.0 -273.0 7.0 -281.0C30.0 -314.0 58.0 -371.0 59.0 -414.0C101.0 -450.0 144.0 -361.0 22.0 -273.0ZM39.0 -55.0 24.0 -62.0C47.0 -92.0 73.0 -144.0 76.0 -181.0C115.0 -215.0 156.0 -133.0 39.0 -55.0Z"/></g>
<g fill="red" transform="translate(800 200) scale(0.1 -0.1)"><path d="M0.0 0.0 -126.0 61.0C-132.0 -85.0 -165.0 -380.0 -190.0 -506.0L-162.0 -469.0C-182.0 -475.0 -206.0 -489.0 -220.0 -501.0L-116.0 -563.0L-77.0 -514.0H-85.0C-62.0 -377.0 -32.0 -114.0 -22.0 7.0L-34.0 0.0ZM78.0 0.0H90.0C79.0 -383.0 59.0 -544.0 20.0 -580.0C9.0 -590.0 0.0 -593.0 -16.0 -593.0C-35.0 -593.0 -74.0 -591.0 -101.0 -588.0V-603.0C-70.0 -610.0 -50.0 -621.0 -38.0 -637.0C-27.0 -651.0 -25.0 -673.0 -25.0 -702.0C25.0 -702.0 69.0 -694.0 104.0 -660.0C159.0 -605.0 182.0 -473.0 194.0 -47.0C217.0 -43.0 231.0 -37.0 239.0 -28.0L137.0 61.0ZM195.0 -420.0 158.0 -486.0H-115.0V-514.0H234.0C247.0 -514.0 256.0 -509.0 258.0 -498.0C237.0 -468.0 195.0 -420.0 195.0 -420.0ZM215.0 -179.0 181.0 -240.0H-209.0L-201.0 -268.0H250.0C263.0 -268.0 272.0 -263.0 274.0 -252.0C255.0 -223.0 215.0 -179.0 215.0 -179.0ZM149.0 0.0H-54.0V-28.0H149.0ZM-38.0 -288.0 -49.0 -292.0C-37.0 -327.0 -31.0 -379.0 -41.0 -423.0C23.0 -500.0 139.0 -371.0 -38.0 -288.0ZM-21.0 -64.0 -33.0 -68.0C-22.0 -101.0 -12.0 -150.0 -17.0 -191.0C46.0 -261.0 150.0 -140.0 -21.0 -64.0Z"/></g>
<g fill="black" opacity=".8" transform="translate(800 200) scale(0.1 -0.1)"><path d="M0.0 0.0 -126.0 62.0C-133.0 -85.0 -166.0 -380.0 -190.0 -505.0L-162.0 -469.0C-182.0 -476.0 -206.0 -490.0 -221.0 -501.0L-116.0 -564.0L-76.0 -514.0H-85.0C-62.0 -377.0 -32.0 -114.0 -22.0 6.0L-34.0 0.0ZM78.0 0.0H90.0C79.0 -383.0 58.0 -544.0 20.0 -579.0C9.0 -590.0 0.0 -593.0 -17.0 -593.0C-35.0 -593.0 -75.0 -592.0 -101.0 -588.0L-100.0 -603.0C-70.0 -610.0 -50.0 -620.0 -38.0 -637.0C-27.0 -650.0 -25.0 -674.0 -25.0 -702.0C25.0 -702.0 69.0 -694.0 104.0 -661.0C160.0 -606.0 182.0 -473.0 194.0 -47.0C217.0 -43.0 232.0 -37.0 240.0 -28.0L137.0 61.0ZM195.0 -420.0 158.0 -486.0H-115.0V-514.0H235.0C247.0 -514.0 256.0 -510.0 259.0 -498.0C238.0 -468.0 195.0 -420.0 195.0 -420.0ZM214.0 -179.0 181.0 -240.0H-210.0L-201.0 -267.0H251.0C263.0 -267.0 271.0 -262.0 273.0 -252.0C254.0 -224.0 214.0 -179.0 214.0 -179.0ZM149.0 0.0H-54.0V-28.0H149.0ZM-38.0 -289.0 -49.0 -292.0C-37.0 -327.0 -32.0 -379.0 -41.0 -423.0C23.0 -500.0 138.0 -371.0 -38.0 -289.0ZM-22.0 -64.0 -33.0 -68.0C-23.0 -100.0 -12.0 -151.0 -18.0 -190.0C46.0 -262.0 149.0 -140.0 -22.0 -64.0Z"/></g>
<g fill="red" transform="translate(900 200) scale(0.1 -0.1)"><path d="M0.0 0.0 -60.0 29.0C-69.0 -71.0 -98.0 -256.0 -117.0 -335.0L-97.0 -300.0C-114.0 -303.0 -138.0 -312.0 -152.0 -320.0L-93.0 -371.0L-64.0 -342.0H-74.0C-54.0 -248.0 -27.0 -87.0 -16.0 4.0L-24.0 0.0ZM435.0 1.0H445.0C435.0 -242.0 411.0 -357.0 382.0 -383.0C373.0 -391.0 366.0 -393.0 350.0 -393.0C333.0 -393.0 294.0 -390.0 270.0 -388.0L269.0 -407.0C289.0 -409.0 311.0 -414.0 320.0 -421.0C329.0 -427.0 332.0 -436.0 332.0 -448.0C360.0 -448.0 390.0 -443.0 412.0 -422.0C449.0 -386.0 478.0 -276.0 487.0 -32.0C507.0 -30.0 520.0 -26.0 527.0 -18.0L463.0 34.0ZM572.0 -445.0 531.0 -494.0H-241.0L-232.0 -524.0H622.0C636.0 -524.0 645.0 -519.0 648.0 -508.0C618.0 -480.0 572.0 -445.0 572.0 -445.0ZM565.0 -267.0 530.0 -314.0H-100.0V-344.0H608.0C621.0 -344.0 630.0 -339.0 633.0 -328.0C607.0 -301.0 565.0 -267.0 565.0 -267.0ZM479.0 1.0H-41.0V-29.0H479.0ZM136.0 -357.0 124.0 -365.0C154.0 -393.0 191.0 -442.0 203.0 -478.0C251.0 -511.0 289.0 -415.0 136.0 -357.0ZM97.0 -197.0 91.0 -214.0C160.0 -237.0 212.0 -276.0 233.0 -302.0C283.0 -320.0 298.0 -219.0 97.0 -197.0Z"/></g>
<g fill="black" opacity=".8" transform="translate(900 200) scale(0.1 -0.1)"><path d="M0.0 0.0 -60.0 29.0C-69.0 -70.0 -98.0 -257.0 -117.0 -335.0L-97.0 -300.0C-114.0 -303.0 -138.0 -312.0 -152.0 -320.0L-94.0 -371.0L-64.0 -341.0H-74.0C-54.0 -249.0 -27.0 -87.0 -16.0 4.0L-24.0 0.0ZM435.0 1.0H445.0C434.0 -242.0 411.0 -358.0 383.0 -382.0C372.0 -391.0 366.0 -393.0 351.0 -393.0C333.0 -393.0 295.0 -390.0 270.0 -388.0L268.0 -407.0C290.0 -409.0 311.0 -415.0 319.0 -422.0C330.0 -426.0 332.0 -435.0 332.0 -448.0C360.0 -448.0 390.0 -443.0 412.0 -423.0C450.0 -386.0 478.0 -276.0 487.0 -32.0C507.0 -30.0 520.0 -27.0 526.0 -18.0L463.0 34.0ZM572.0 -445.0 531.0 -494.0H-241.0L-232.0 -523.0H621.0C636.0 -523.0 644.0 -519.0 648.0 -508.0C618.0 -480.0 572.0 -445.0 572.0 -445.0ZM566.0 -266.0 530.0 -315.0H-100.0V-343.0H607.0C621.0 -343.0 630.0 -339.0 633.0 -328.0C608.0 -301.0 566.0 -266.0 566.0 -266.0ZM479.0 1.0H-42.0V-30.0H479.0ZM137.0 -356.0 124.0 -365.0C153.0 -393.0 191.0 -441.0 203.0 -478.0C252.0 -511.0 290.0 -415.0 137.0 -356.0ZM98.0 -197.0 90.0 -214.0C160.0 -238.0 213.0 -277.0 233.0 -302.0C283.0 -319.0 298.0 -220.0 98.0 -197.0Z"/></g>
<g fill="red" transform="translate(1000 200) scale(0.1 -0.1)"><path d="M0.0 0.0 -157.0 68.0C-166.0 -28.0 -198.0 -230.0 -223.0 -317.0L-188.0 -279.0C-210.0 -287.0 -235.0 -303.0 -250.0 -318.0L-126.0 -386.0L-80.0 -328.0H-88.0C-68.0 -244.0 -36.0 -69.0 -25.0 7.0L-39.0 0.0ZM304.0 0.0H315.0C310.0 -235.0 301.0 -331.0 279.0 -352.0C272.0 -358.0 265.0 -361.0 251.0 -361.0C234.0 -361.0 198.0 -359.0 177.0 -358.0L176.0 -370.0C207.0 -378.0 224.0 -388.0 236.0 -405.0C248.0 -421.0 250.0 -440.0 250.0 -471.0C303.0 -471.0 343.0 -467.0 374.0 -441.0C420.0 -401.0 431.0 -325.0 437.0 -49.0C458.0 -45.0 471.0 -39.0 478.0 -30.0L368.0 62.0ZM486.0 -395.0 417.0 -489.0H-324.0L-316.0 -517.0H581.0C596.0 -517.0 607.0 -512.0 610.0 -501.0C564.0 -458.0 486.0 -395.0 486.0 -395.0ZM496.0 -218.0 440.0 -300.0H-147.0V-328.0H571.0C585.0 -328.0 595.0 -323.0 598.0 -312.0C561.0 -274.0 496.0 -218.0 496.0 -218.0ZM404.0 0.0H-105.0V-28.0H404.0ZM38.0 -369.0 31.0 -374.0C56.0 -401.0 86.0 -447.0 95.0 -490.0C211.0 -557.0 306.0 -346.0 38.0 -369.0ZM36.0 -204.0 31.0 -217.0C78.0 -238.0 111.0 -273.0 122.0 -294.0C216.0 -326.0 257.0 -136.0 36.0 -204.0Z"/></g>
<g fill="black" opacity=".8" transform="translate(1000 200) scale(0.1 -0.1)"><path d="M0.0 0.0 -158.0 69.0C-166.0 -27.0 -199.0 -230.0 -223.0 -316.0L-188.0 -279.0C-210.0 -287.0 -235.0 -304.0 -251.0 -317.0L-125.0 -387.0L-80.0 -328.0H-87.0C-68.0 -244.0 -36.0 -68.0 -25.0 6.0L-39.0 0.0ZM304.0 0.0H314.0C310.0 -235.0 300.0 -332.0 280.0 -352.0C272.0 -358.0 265.0 -361.0 250.0 -361.0C234.0 -361.0 198.0 -360.0 178.0 -358.0L176.0 -370.0C207.0 -378.0 224.0 -388.0 236.0 -405.0C248.0 -420.0 250.0 -440.0 250.0 -471.0C304.0 -471.0 344.0 -467.0 375.0 -442.0C421.0 -401.0 431.0 -325.0 436.0 -49.0C458.0 -45.0 471.0 -38.0 478.0 -30.0L368.0 62.0ZM486.0 -396.0 417.0 -489.0H-324.0L-316.0 -517.0H582.0C596.0 -517.0 606.0 -513.0 610.0 -501.0C565.0 -458.0 486.0 -396.0 486.0 -396.0ZM496.0 -218.0 440.0 -301.0H-148.0L-147.0 -327.0H572.0C586.0 -327.0 594.0 -323.0 598.0 -312.0C561.0 -275.0 496.0 -218.0 496.0 -218.0ZM404.0 0.0H-105.0V-28.0H404.0ZM38.0 -369.0 31.0 -374.0C56.0 -401.0 85.0 -447.0 95.0 -490.0C211.0 -557.0 306.0 -347.0 38.0 -369.0ZM36.0 -204.0 31.0 -217.0C78.0 -237.0 111.0 -274.0 121.0 -294.0C215.0 -326.0 256.0 -136.0 36.0 -204.0Z"/></g>
</svg>
