<?xml version="1.0" encoding="UTF-8"?>
<svg width="1700" height="400" xmlns="http://www.w3.org/2000/svg">
<rect width="100%" height="100%" fill="white"/>
<g fill="green" transform="translate(100 100) scale(0.1 -0.1)"><path d="M0.0 -0.0 22.0 -51.0C119.0 5.0 219.0 67.0 272.0 97.0L264.0 114.0C155.0 64.0 46.0 17.0 0.0 0.0ZM57.0 884.0H19.0V40.0C19.0 18.0 15.0 12.0 -14.0 -1.0L14.0 -62.0C25.0 -57.0 48.0 -36.0 38.0 1.0L21.0 -21.0L68.0 -12.0V878.0ZM19.0 930.0V835.0C51.0 835.0 68.0 835.0 68.0 835.0V900.0H81.0ZM274.0 657.0H225.0C229.0 406.0 256.0 148.0 385.0 -5.0C417.0 -45.0 463.0 -66.0 482.0 -46.0C490.0 -36.0 489.0 -26.0 467.0 6.0L480.0 143.0L465.0 146.0C456.0 110.0 444.0 70.0 435.0 49.0C428.0 31.0 422.0 31.0 411.0 44.0C300.0 167.0 266.0 458.0 274.0 657.0ZM373.0 900.0H384.0V577.0H390.0C407.0 577.0 432.0 591.0 433.0 597.0V857.0C455.0 861.0 474.0 869.0 482.0 878.0L406.0 937.0ZM421.0 671.0H41.0V637.0H421.0ZM437.0 900.0H43.0V867.0H437.0ZM404.0 471.0 361.0 417.0H41.0V384.0H458.0C473.0 384.0 482.0 390.0 486.0 402.0C454.0 432.0 404.0 471.0 404.0 471.0Z"/></g>
<g fill="green" transform="translate(200 100) scale(0.1 -0.1)"><path d="M0.0 0.0 69.0 -143.0C167.0 -62.0 247.0 20.0 284.0 61.0L282.0 71.0C167.0 40.0 49.0 10.0 0.0 0.0ZM145.0 843.0H36.0V66.0C36.0 35.0 27.0 23.0 -24.0 -5.0L62.0 -157.0C94.0 -140.0 131.0 -89.0 111.0 1.0L46.0 -51.0L181.0 -24.0V821.0ZM36.0 888.0V763.0C137.0 763.0 181.0 763.0 181.0 763.0V829.0H196.0ZM373.0 578.0H238.0C235.0 347.0 240.0 98.0 348.0 -73.0C374.0 -113.0 450.0 -157.0 505.0 -113.0C534.0 -89.0 523.0 -52.0 501.0 5.0L517.0 157.0L505.0 161.0C491.0 122.0 473.0 79.0 458.0 56.0C451.0 41.0 443.0 40.0 434.0 53.0C367.0 160.0 356.0 381.0 373.0 578.0ZM372.0 829.0H383.0V521.0H407.0C452.0 521.0 521.0 545.0 522.0 553.0V778.0C543.0 783.0 556.0 792.0 562.0 799.0L434.0 896.0ZM466.0 597.0H127.0V566.0H466.0ZM465.0 829.0H126.0V798.0H465.0ZM435.0 450.0 371.0 362.0H123.0V331.0H519.0C535.0 331.0 546.0 336.0 549.0 348.0C507.0 390.0 435.0 450.0 435.0 450.0Z"/></g>
<g fill="green" transform="translate(300 100) scale(0.1 -0.1)"><path d="M0.0 0.0 19.0 -44.0C102.0 4.0 188.0 58.0 233.0 83.0L226.0 98.0C133.0 55.0 39.0 15.0 0.0 0.0ZM50.0 776.0H17.0V35.0C17.0 16.0 13.0 10.0 -12.0 -1.0L12.0 -54.0C22.0 -50.0 42.0 -31.0 33.0 1.0L18.0 -18.0L59.0 -10.0V771.0ZM17.0 816.0V733.0C45.0 733.0 59.0 733.0 59.0 733.0V789.0H71.0ZM232.0 578.0H189.0C192.0 362.0 212.0 137.0 317.0 -1.0C343.0 -37.0 383.0 -57.0 400.0 -40.0C408.0 -31.0 407.0 -22.0 388.0 7.0L400.0 127.0L387.0 129.0C379.0 98.0 368.0 63.0 361.0 45.0C354.0 29.0 349.0 29.0 340.0 41.0C251.0 152.0 224.0 407.0 232.0 578.0ZM311.0 789.0H321.0V507.0H326.0C341.0 507.0 363.0 519.0 364.0 524.0V752.0C383.0 755.0 399.0 762.0 406.0 770.0L340.0 822.0ZM354.0 591.0H35.0V561.0H354.0ZM370.0 789.0H37.0V761.0H370.0ZM334.0 413.0 297.0 366.0H35.0V337.0H381.0C394.0 337.0 402.0 342.0 405.0 353.0C378.0 379.0 334.0 413.0 334.0 413.0Z"/></g>
<g fill="green" transform="translate(400 100) scale(0.1 -0.1)"><path d="M0.0 0.0 61.0 -124.0C143.0 -55.0 210.0 16.0 241.0 51.0L239.0 60.0C142.0 34.0 42.0 8.0 0.0 0.0ZM127.0 739.0H32.0V58.0C32.0 31.0 24.0 21.0 -20.0 -4.0L55.0 -137.0C83.0 -122.0 115.0 -77.0 97.0 1.0L41.0 -44.0L158.0 -20.0V720.0ZM32.0 777.0V669.0C120.0 669.0 158.0 669.0 158.0 669.0V726.0H172.0ZM319.0 505.0H203.0C199.0 309.0 200.0 93.0 284.0 -60.0C304.0 -96.0 369.0 -136.0 419.0 -98.0C444.0 -78.0 435.0 -45.0 417.0 5.0L431.0 138.0L420.0 142.0C408.0 108.0 393.0 71.0 380.0 51.0C374.0 38.0 368.0 37.0 360.0 49.0C310.0 144.0 304.0 337.0 319.0 505.0ZM315.0 726.0H324.0V457.0H345.0C384.0 457.0 443.0 478.0 444.0 485.0V682.0C462.0 686.0 474.0 694.0 479.0 700.0L368.0 784.0ZM399.0 523.0H114.0V496.0H399.0ZM397.0 726.0H112.0V699.0H397.0ZM365.0 392.0 310.0 317.0H110.0V290.0H435.0C449.0 290.0 459.0 295.0 461.0 305.0C426.0 341.0 365.0 392.0 365.0 392.0Z"/></g>
<g fill="green" transform="translate(500 100) scale(0.1 -0.1)"><path d="M0.0 -0.0 16.0 -49.0C170.0 -4.0 315.0 45.0 405.0 72.0L399.0 91.0C231.0 50.0 68.0 11.0 0.0 0.0ZM44.0 569.0H7.0V25.0C7.0 7.0 3.0 2.0 -23.0 -11.0L4.0 -68.0C16.0 -63.0 37.0 -44.0 27.0 -9.0L11.0 -29.0L55.0 -22.0V563.0ZM7.0 624.0V531.0C38.0 531.0 55.0 531.0 55.0 531.0V594.0H67.0ZM377.0 418.0H328.0C350.0 231.0 469.0 60.0 699.0 -34.0C751.0 -57.0 796.0 -66.0 808.0 -44.0C813.0 -33.0 810.0 -25.0 782.0 -4.0L791.0 107.0L776.0 109.0C768.0 78.0 757.0 44.0 748.0 24.0C741.0 11.0 732.0 9.0 712.0 15.0C505.0 88.0 389.0 266.0 377.0 418.0ZM636.0 594.0H646.0V351.0H652.0C668.0 351.0 693.0 365.0 694.0 370.0V556.0C712.0 559.0 729.0 567.0 736.0 574.0L666.0 627.0ZM675.0 448.0H32.0V415.0H675.0ZM680.0 594.0H31.0V562.0H680.0ZM728.0 317.0 687.0 265.0H38.0V233.0H780.0C795.0 233.0 804.0 239.0 808.0 251.0C776.0 280.0 728.0 317.0 728.0 317.0Z"/></g>
<g fill="green" transform="translate(600 100) scale(0.1 -0.1)"><path d="M0.0 0.0 49.0 -130.0C220.0 -59.0 359.0 11.0 435.0 51.0L433.0 64.0C253.0 34.0 73.0 7.0 0.0 0.0ZM149.0 515.0H31.0V60.0C31.0 33.0 21.0 21.0 -34.0 -8.0L42.0 -147.0C73.0 -131.0 108.0 -89.0 95.0 -3.0L35.0 -51.0L188.0 -23.0V492.0ZM31.0 602.0V475.0C141.0 475.0 188.0 475.0 188.0 475.0V540.0H202.0ZM529.0 356.0H382.0C393.0 185.0 466.0 10.0 682.0 -93.0C739.0 -117.0 825.0 -137.0 861.0 -79.0C882.0 -47.0 870.0 -18.0 835.0 20.0L847.0 142.0L837.0 146.0C821.0 109.0 800.0 69.0 786.0 50.0C777.0 37.0 766.0 34.0 747.0 41.0C600.0 103.0 531.0 216.0 529.0 356.0ZM618.0 540.0H629.0V317.0H656.0C706.0 317.0 779.0 345.0 780.0 355.0V491.0C800.0 494.0 810.0 504.0 816.0 510.0L684.0 608.0ZM703.0 383.0H113.0V353.0H703.0ZM721.0 540.0H125.0V509.0H721.0ZM749.0 301.0 684.0 219.0H125.0V189.0H837.0C853.0 189.0 863.0 193.0 866.0 205.0C822.0 245.0 749.0 301.0 749.0 301.0Z"/></g>
<g fill="green" transform="translate(700 100) scale(0.1 -0.1)"><path d="M0.0 0.0 22.0 -48.0C106.0 13.0 193.0 79.0 236.0 111.0L227.0 125.0C134.0 71.0 40.0 19.0 0.0 0.0ZM56.0 881.0H20.0V42.0C20.0 20.0 16.0 15.0 -11.0 3.0L15.0 -55.0C25.0 -51.0 47.0 -30.0 38.0 5.0L22.0 -16.0L66.0 -8.0V876.0ZM20.0 922.0V834.0C50.0 834.0 66.0 834.0 66.0 834.0V894.0H78.0ZM280.0 646.0H233.0C234.0 352.0 256.0 88.0 417.0 -26.0C453.0 -55.0 497.0 -70.0 511.0 -48.0C517.0 -39.0 515.0 -30.0 494.0 -5.0L505.0 123.0L491.0 125.0C481.0 88.0 470.0 50.0 461.0 29.0C455.0 12.0 449.0 11.0 436.0 21.0C298.0 114.0 269.0 412.0 280.0 646.0ZM374.0 894.0H385.0V580.0H390.0C406.0 580.0 430.0 593.0 431.0 599.0V854.0C452.0 857.0 470.0 865.0 477.0 874.0L406.0 930.0ZM411.0 644.0H45.0V612.0H411.0ZM413.0 894.0H48.0V864.0H413.0ZM423.0 469.0 382.0 418.0H47.0V387.0H473.0C487.0 387.0 497.0 393.0 500.0 404.0C470.0 432.0 423.0 469.0 423.0 469.0Z"/></g>
<g fill="green" transform="translate(800 100) scale(0.1 -0.1)"><path d="M0.0 0.0 64.0 -139.0C156.0 -51.0 230.0 38.0 263.0 81.0L261.0 90.0C154.0 51.0 44.0 13.0 0.0 0.0ZM122.0 860.0H25.0V56.0C25.0 27.0 18.0 16.0 -24.0 -8.0L57.0 -149.0C85.0 -134.0 120.0 -85.0 100.0 -3.0L40.0 -50.0L154.0 -27.0V840.0ZM25.0 893.0V778.0C114.0 778.0 154.0 778.0 154.0 778.0V840.0H168.0ZM335.0 603.0H206.0C205.0 319.0 219.0 49.0 384.0 -99.0C423.0 -133.0 495.0 -164.0 539.0 -118.0C562.0 -94.0 552.0 -62.0 526.0 -12.0L541.0 136.0L530.0 139.0C515.0 100.0 496.0 54.0 480.0 29.0C473.0 15.0 465.0 14.0 452.0 25.0C341.0 121.0 320.0 368.0 335.0 603.0ZM336.0 840.0H346.0V524.0H369.0C410.0 524.0 477.0 544.0 478.0 551.0V788.0C500.0 793.0 514.0 803.0 521.0 811.0L395.0 906.0ZM400.0 605.0H89.0V576.0H400.0ZM398.0 840.0H88.0V811.0H398.0ZM416.0 474.0 342.0 371.0H81.0V342.0H518.0C533.0 342.0 545.0 347.0 548.0 358.0C500.0 404.0 416.0 474.0 416.0 474.0Z"/></g>
<g fill="red" transform="translate(100 200) scale(0.1 -0.1)"><path d="M0.0 0.0 20.0 -45.0C121.0 13.0 221.0 76.0 276.0 108.0L268.0 123.0C157.0 69.0 46.0 18.0 0.0 0.0ZM52.0 777.0H18.0V37.0C18.0 17.0 14.0 12.0 -12.0 0.0L13.0 -55.0C23.0 -50.0 44.0 -31.0 35.0 2.0L20.0 -17.0L62.0 -9.0V771.0ZM18.0 818.0V732.0C47.0 732.0 62.0 732.0 62.0 732.0V791.0H74.0ZM310.0 567.0H265.0C273.0 302.0 329.0 70.0 524.0 -26.0C567.0 -50.0 610.0 -63.0 622.0 -40.0C627.0 -30.0 625.0 -22.0 601.0 -1.0L611.0 116.0L598.0 118.0C589.0 83.0 577.0 48.0 569.0 28.0C563.0 13.0 556.0 11.0 540.0 19.0C365.0 97.0 307.0 354.0 310.0 567.0ZM449.0 791.0H459.0V504.0H465.0C480.0 504.0 502.0 517.0 503.0 523.0V752.0C523.0 756.0 540.0 763.0 547.0 771.0L479.0 824.0ZM492.0 571.0H43.0V541.0H492.0ZM494.0 791.0H45.0V761.0H494.0ZM526.0 409.0 485.0 359.0H50.0V329.0H576.0C590.0 329.0 599.0 334.0 602.0 345.0C573.0 373.0 526.0 409.0 526.0 409.0Z"/></g>
<g fill="black" opacity=".8" transform="translate(100 200) scale(0.1 -0.1)"><path d="M0.0 0.0 20.0 -48.0C128.0 7.0 235.0 67.0 294.0 98.0L286.0 113.0C167.0 64.0 50.0 16.0 0.0 0.0ZM52.0 769.0H15.0V36.0C15.0 15.0 11.0 11.0 -15.0 -2.0L11.0 -59.0C22.0 -55.0 43.0 -35.0 34.0 0.0L18.0 -20.0L62.0 -13.0V764.0ZM15.0 815.0V725.0C46.0 725.0 62.0 725.0 62.0 725.0V786.0H74.0ZM314.0 564.0H267.0C275.0 306.0 331.0 75.0 517.0 -30.0C559.0 -56.0 603.0 -69.0 616.0 -47.0C622.0 -37.0 620.0 -28.0 596.0 -5.0L606.0 116.0L592.0 118.0C583.0 83.0 572.0 47.0 563.0 26.0C557.0 11.0 549.0 9.0 534.0 18.0C371.0 102.0 311.0 358.0 314.0 564.0ZM466.0 786.0H477.0V498.0H482.0C498.0 498.0 522.0 511.0 523.0 517.0V747.0C543.0 750.0 561.0 758.0 568.0 766.0L497.0 821.0ZM503.0 572.0H40.0V540.0H503.0ZM506.0 786.0H42.0V756.0H506.0ZM531.0 414.0 490.0 363.0H44.0V332.0H581.0C596.0 332.0 605.0 338.0 609.0 349.0C578.0 378.0 531.0 414.0 531.0 414.0Z"/></g>
<g fill="red" transform="translate(200 200) scale(0.1 -0.1)"><path d="M0.0 0.0 61.0 -135.0C183.0 -45.0 279.0 43.0 326.0 89.0L323.0 98.0C191.0 54.0 55.0 14.0 0.0 0.0ZM134.0 740.0H34.0V57.0C34.0 29.0 26.0 18.0 -24.0 -8.0L54.0 -146.0C82.0 -130.0 116.0 -84.0 98.0 -3.0L39.0 -49.0L167.0 -25.0V720.0ZM34.0 788.0V674.0C127.0 674.0 167.0 674.0 167.0 674.0V734.0H181.0ZM400.0 499.0H270.0C273.0 268.0 317.0 39.0 503.0 -95.0C548.0 -125.0 626.0 -153.0 667.0 -105.0C689.0 -78.0 678.0 -47.0 649.0 -3.0L664.0 133.0L654.0 135.0C638.0 98.0 617.0 56.0 603.0 34.0C594.0 21.0 585.0 20.0 570.0 29.0C437.0 115.0 393.0 306.0 400.0 499.0ZM435.0 736.0H445.0V450.0H468.0C511.0 450.0 579.0 471.0 581.0 478.0V686.0C601.0 690.0 614.0 700.0 621.0 707.0L495.0 802.0ZM509.0 511.0H115.0V483.0H509.0ZM511.0 734.0H117.0V706.0H511.0ZM530.0 394.0 460.0 298.0H135.0V270.0H626.0C641.0 270.0 652.0 275.0 655.0 286.0C609.0 329.0 530.0 394.0 530.0 394.0Z"/></g>
<g fill="black" opacity=".8" transform="translate(200 200) scale(0.1 -0.1)"><path d="M0.0 0.0 58.0 -135.0C178.0 -53.0 275.0 29.0 322.0 71.0L320.0 81.0C188.0 45.0 54.0 11.0 0.0 0.0ZM130.0 737.0H27.0V57.0C27.0 29.0 19.0 17.0 -27.0 -8.0L51.0 -148.0C80.0 -132.0 115.0 -86.0 98.0 -3.0L38.0 -50.0L165.0 -26.0V716.0ZM27.0 789.0V670.0C122.0 670.0 165.0 670.0 165.0 670.0V733.0H179.0ZM401.0 516.0H267.0C270.0 270.0 305.0 33.0 490.0 -98.0C536.0 -128.0 613.0 -154.0 653.0 -104.0C675.0 -77.0 665.0 -47.0 635.0 -1.0L649.0 137.0L639.0 140.0C623.0 102.0 604.0 58.0 588.0 35.0C581.0 22.0 572.0 20.0 556.0 29.0C431.0 113.0 393.0 313.0 401.0 516.0ZM434.0 733.0H444.0V450.0H468.0C512.0 450.0 581.0 473.0 582.0 481.0V682.0C603.0 686.0 616.0 696.0 623.0 704.0L495.0 800.0ZM504.0 526.0H96.0V497.0H504.0ZM509.0 733.0H99.0V703.0H509.0ZM532.0 413.0 461.0 317.0H95.0V288.0H630.0C645.0 288.0 657.0 292.0 660.0 304.0C613.0 348.0 532.0 413.0 532.0 413.0Z"/></g>
<g fill="red" transform="translate(300 200) scale(0.1 -0.1)"><path d="M0.0 0.0 18.0 -46.0C125.0 5.0 231.0 61.0 290.0 90.0L284.0 105.0C166.0 59.0 49.0 15.0 0.0 0.0ZM51.0 784.0H17.0V35.0C17.0 16.0 13.0 11.0 -13.0 -2.0L12.0 -55.0C22.0 -51.0 43.0 -33.0 34.0 0.0L19.0 -19.0L61.0 -11.0V778.0ZM17.0 826.0V740.0C46.0 740.0 61.0 740.0 61.0 740.0V799.0H73.0ZM289.0 576.0H245.0C252.0 334.0 295.0 99.0 446.0 -21.0C480.0 -52.0 523.0 -68.0 538.0 -48.0C544.0 -39.0 542.0 -31.0 521.0 -5.0L532.0 116.0L518.0 118.0C510.0 84.0 499.0 49.0 491.0 30.0C484.0 14.0 478.0 13.0 466.0 23.0C334.0 121.0 285.0 383.0 289.0 576.0ZM406.0 799.0H416.0V504.0H422.0C437.0 504.0 459.0 516.0 460.0 522.0V760.0C480.0 764.0 497.0 771.0 504.0 779.0L436.0 832.0ZM456.0 591.0H39.0V561.0H456.0ZM460.0 799.0H43.0V769.0H460.0ZM453.0 419.0 413.0 369.0H46.0V339.0H503.0C517.0 339.0 526.0 344.0 529.0 355.0C499.0 383.0 453.0 419.0 453.0 419.0Z"/></g>
<g fill="black" opacity=".8" transform="translate(300 200) scale(0.1 -0.1)"><path d="M0.0 0.0 20.0 -47.0C119.0 6.0 219.0 64.0 274.0 92.0L266.0 108.0C156.0 60.0 46.0 16.0 0.0 0.0ZM52.0 782.0H16.0V36.0C16.0 16.0 12.0 10.0 -14.0 -2.0L12.0 -58.0C22.0 -54.0 43.0 -34.0 34.0 0.0L18.0 -20.0L62.0 -12.0V777.0ZM16.0 827.0V738.0C46.0 738.0 62.0 738.0 62.0 738.0V798.0H74.0ZM283.0 578.0H237.0C243.0 337.0 285.0 106.0 437.0 -17.0C473.0 -48.0 516.0 -64.0 531.0 -44.0C538.0 -35.0 536.0 -26.0 514.0 1.0L525.0 124.0L511.0 126.0C502.0 92.0 491.0 56.0 483.0 36.0C476.0 20.0 470.0 19.0 457.0 29.0C325.0 128.0 278.0 386.0 283.0 578.0ZM406.0 798.0H417.0V508.0H422.0C438.0 508.0 462.0 521.0 463.0 527.0V759.0C482.0 762.0 500.0 770.0 507.0 778.0L437.0 833.0ZM447.0 589.0H38.0V558.0H447.0ZM456.0 798.0H40.0V768.0H456.0ZM453.0 419.0 413.0 369.0H40.0V338.0H503.0C517.0 338.0 526.0 344.0 529.0 355.0C500.0 383.0 453.0 419.0 453.0 419.0Z"/></g>
<g fill="red" transform="translate(400 200) scale(0.1 -0.1)"><path d="M0.0 0.0 61.0 -129.0C169.0 -53.0 256.0 22.0 298.0 60.0L296.0 70.0C174.0 39.0 51.0 10.0 0.0 0.0ZM140.0 747.0H37.0V64.0C37.0 36.0 29.0 24.0 -22.0 -3.0L57.0 -144.0C87.0 -128.0 121.0 -81.0 103.0 3.0L42.0 -45.0L174.0 -20.0V727.0ZM37.0 794.0V679.0C133.0 679.0 174.0 679.0 174.0 679.0V739.0H188.0ZM377.0 510.0H239.0C238.0 304.0 265.0 80.0 398.0 -76.0C430.0 -111.0 509.0 -152.0 563.0 -107.0C592.0 -81.0 579.0 -42.0 555.0 11.0L571.0 151.0L561.0 154.0C546.0 117.0 526.0 77.0 512.0 56.0C504.0 43.0 495.0 42.0 485.0 53.0C392.0 148.0 365.0 331.0 377.0 510.0ZM385.0 739.0H395.0V461.0H418.0C459.0 461.0 524.0 483.0 525.0 490.0V693.0C543.0 697.0 555.0 705.0 560.0 712.0L442.0 800.0ZM472.0 529.0H111.0V501.0H472.0ZM472.0 739.0H111.0V711.0H472.0ZM454.0 403.0 390.0 316.0H103.0V288.0H539.0C553.0 288.0 564.0 293.0 567.0 304.0C525.0 344.0 454.0 403.0 454.0 403.0Z"/></g>
<g fill="black" opacity=".8" transform="translate(400 200) scale(0.1 -0.1)"><path d="M0.0 0.0 61.0 -133.0C166.0 -55.0 252.0 23.0 293.0 62.0L291.0 72.0C172.0 40.0 50.0 10.0 0.0 0.0ZM132.0 747.0H30.0V59.0C30.0 31.0 22.0 20.0 -25.0 -6.0L54.0 -146.0C83.0 -130.0 117.0 -84.0 99.0 -1.0L40.0 -48.0L166.0 -23.0V726.0ZM30.0 794.0V678.0C124.0 678.0 166.0 678.0 166.0 678.0V739.0H180.0ZM374.0 517.0H245.0C245.0 292.0 266.0 62.0 407.0 -82.0C442.0 -115.0 515.0 -148.0 560.0 -103.0C584.0 -78.0 574.0 -46.0 550.0 2.0L564.0 140.0L553.0 144.0C539.0 107.0 521.0 66.0 506.0 44.0C499.0 30.0 491.0 29.0 479.0 40.0C387.0 130.0 362.0 328.0 374.0 517.0ZM391.0 739.0H401.0V459.0H424.0C467.0 459.0 533.0 481.0 534.0 489.0V691.0C554.0 695.0 566.0 704.0 572.0 711.0L450.0 803.0ZM470.0 531.0H107.0V502.0H470.0ZM472.0 739.0H108.0V710.0H472.0ZM469.0 408.0 405.0 321.0H105.0V292.0H555.0C570.0 292.0 581.0 297.0 584.0 308.0C542.0 349.0 469.0 408.0 469.0 408.0Z"/></g>
<g fill="red" transform="translate(500 200) scale(0.1 -0.1)"><path d="M0.0 0.0 19.0 -46.0C115.0 5.0 211.0 62.0 262.0 90.0L255.0 104.0C150.0 59.0 45.0 15.0 0.0 0.0ZM48.0 772.0H14.0V28.0C14.0 7.0 10.0 3.0 -16.0 -10.0L9.0 -63.0C19.0 -60.0 40.0 -40.0 31.0 -8.0L16.0 -26.0L58.0 -19.0V766.0ZM14.0 818.0V732.0C43.0 732.0 58.0 732.0 58.0 732.0V791.0H70.0ZM278.0 562.0H233.0C239.0 291.0 281.0 60.0 467.0 -32.0C509.0 -55.0 551.0 -67.0 562.0 -44.0C567.0 -35.0 565.0 -27.0 542.0 -6.0L552.0 111.0L538.0 113.0C531.0 77.0 520.0 43.0 511.0 23.0C505.0 7.0 498.0 6.0 482.0 13.0C320.0 87.0 273.0 345.0 278.0 562.0ZM411.0 791.0H421.0V492.0H427.0C442.0 492.0 464.0 504.0 465.0 510.0V752.0C485.0 756.0 502.0 763.0 509.0 771.0L441.0 824.0ZM456.0 570.0H44.0V540.0H456.0ZM458.0 791.0H46.0V761.0H458.0ZM480.0 416.0 441.0 367.0H47.0V337.0H529.0C543.0 337.0 551.0 342.0 554.0 353.0C526.0 381.0 480.0 416.0 480.0 416.0Z"/></g>
<g fill="black" opacity=".8" transform="translate(500 200) scale(0.1 -0.1)"><path d="M0.0 0.0 20.0 -46.0C114.0 9.0 209.0 69.0 260.0 99.0L252.0 113.0C148.0 64.0 44.0 17.0 0.0 0.0ZM51.0 769.0H16.0V36.0C16.0 16.0 12.0 12.0 -13.0 0.0L12.0 -55.0C22.0 -51.0 42.0 -31.0 34.0 2.0L18.0 -18.0L60.0 -10.0V764.0ZM16.0 811.0V726.0C45.0 726.0 60.0 726.0 60.0 726.0V783.0H72.0ZM290.0 563.0H245.0C250.0 301.0 293.0 70.0 467.0 -29.0C505.0 -54.0 547.0 -67.0 559.0 -45.0C565.0 -36.0 562.0 -28.0 541.0 -6.0L551.0 111.0L537.0 113.0C528.0 79.0 517.0 44.0 509.0 24.0C503.0 9.0 497.0 7.0 482.0 16.0C332.0 96.0 284.0 354.0 290.0 563.0ZM417.0 783.0H427.0V501.0H432.0C447.0 501.0 471.0 514.0 472.0 519.0V746.0C491.0 749.0 507.0 756.0 514.0 765.0L447.0 817.0ZM452.0 566.0H40.0V536.0H452.0ZM453.0 783.0H42.0V755.0H453.0ZM476.0 412.0 437.0 364.0H44.0V334.0H524.0C537.0 334.0 547.0 340.0 549.0 351.0C521.0 377.0 476.0 412.0 476.0 412.0Z"/></g>
<g fill="red" transform="translate(600 200) scale(0.1 -0.1)"><path d="M0.0 0.0 55.0 -136.0C162.0 -58.0 248.0 20.0 289.0 60.0L287.0 69.0C169.0 38.0 49.0 9.0 0.0 0.0ZM125.0 744.0H28.0V52.0C28.0 24.0 21.0 13.0 -20.0 -11.0L54.0 -144.0C82.0 -129.0 115.0 -84.0 98.0 -6.0L41.0 -50.0L156.0 -28.0V725.0ZM28.0 787.0V674.0C117.0 674.0 156.0 674.0 156.0 674.0V734.0H170.0ZM362.0 509.0H235.0C236.0 255.0 264.0 19.0 441.0 -105.0C485.0 -132.0 555.0 -157.0 594.0 -110.0C614.0 -84.0 604.0 -55.0 576.0 -13.0L590.0 122.0L579.0 124.0C565.0 87.0 545.0 44.0 532.0 22.0C524.0 10.0 515.0 8.0 502.0 16.0C382.0 96.0 352.0 302.0 362.0 509.0ZM377.0 734.0H387.0V443.0H409.0C451.0 443.0 516.0 465.0 517.0 472.0V685.0C538.0 689.0 551.0 698.0 557.0 706.0L435.0 798.0ZM446.0 523.0H90.0V495.0H446.0ZM448.0 734.0H92.0V706.0H448.0ZM470.0 411.0 400.0 315.0H94.0V287.0H567.0C581.0 287.0 592.0 292.0 595.0 303.0C549.0 346.0 470.0 411.0 470.0 411.0Z"/></g>
<g fill="black" opacity=".8" transform="translate(600 200) scale(0.1 -0.1)"><path d="M0.0 0.0 57.0 -130.0C162.0 -49.0 247.0 32.0 288.0 73.0L286.0 82.0C168.0 46.0 48.0 11.0 0.0 0.0ZM120.0 743.0H24.0V53.0C24.0 26.0 17.0 16.0 -25.0 -8.0L50.0 -141.0C77.0 -127.0 110.0 -81.0 93.0 -3.0L36.0 -48.0L151.0 -25.0V724.0ZM24.0 786.0V675.0C112.0 675.0 151.0 675.0 151.0 675.0V734.0H165.0ZM360.0 522.0H233.0C235.0 270.0 263.0 32.0 439.0 -96.0C482.0 -126.0 553.0 -151.0 593.0 -104.0C613.0 -80.0 603.0 -50.0 576.0 -6.0L589.0 129.0L579.0 132.0C564.0 95.0 546.0 52.0 531.0 29.0C524.0 16.0 516.0 15.0 501.0 24.0C382.0 107.0 350.0 315.0 360.0 522.0ZM381.0 734.0H391.0V453.0H413.0C454.0 453.0 519.0 473.0 520.0 480.0V685.0C541.0 689.0 553.0 699.0 560.0 706.0L438.0 797.0ZM443.0 527.0H86.0V500.0H443.0ZM446.0 734.0H88.0V706.0H446.0ZM471.0 415.0 401.0 320.0H82.0V292.0H567.0C582.0 292.0 593.0 297.0 596.0 308.0C550.0 351.0 471.0 415.0 471.0 415.0Z"/></g>
<g fill="red" transform="translate(700 200) scale(0.1 -0.1)"><path d="M0.0 0.0 20.0 -46.0C113.0 9.0 206.0 69.0 255.0 99.0L247.0 114.0C145.0 64.0 43.0 17.0 0.0 0.0ZM51.0 779.0H17.0V38.0C17.0 17.0 13.0 12.0 -13.0 0.0L15.0 -60.0C26.0 -55.0 48.0 -34.0 38.0 0.0L21.0 -19.0L61.0 -11.0V773.0ZM17.0 820.0V734.0C46.0 734.0 61.0 734.0 61.0 734.0V793.0H73.0ZM299.0 571.0H254.0C260.0 323.0 302.0 89.0 458.0 -24.0C493.0 -54.0 536.0 -69.0 550.0 -48.0C555.0 -39.0 554.0 -30.0 533.0 -6.0L544.0 114.0L530.0 116.0C522.0 82.0 510.0 47.0 502.0 28.0C496.0 12.0 489.0 11.0 477.0 21.0C341.0 113.0 294.0 373.0 299.0 571.0ZM430.0 793.0H440.0V511.0H446.0C461.0 511.0 483.0 523.0 484.0 529.0V754.0C504.0 758.0 521.0 765.0 528.0 773.0L460.0 826.0ZM461.0 573.0H30.0V543.0H461.0ZM463.0 793.0H32.0V763.0H463.0ZM469.0 418.0 430.0 370.0H32.0V340.0H517.0C531.0 340.0 539.0 345.0 542.0 356.0C515.0 383.0 469.0 418.0 469.0 418.0Z"/></g>
<g fill="black" opacity=".8" transform="translate(700 200) scale(0.1 -0.1)"><path d="M0.0 0.0 20.0 -46.0C116.0 9.0 213.0 69.0 264.0 98.0L256.0 113.0C150.0 64.0 45.0 17.0 0.0 0.0ZM51.0 781.0H16.0V37.0C16.0 16.0 12.0 11.0 -13.0 -0.0L12.0 -56.0C22.0 -52.0 43.0 -32.0 34.0 2.0L19.0 -18.0L61.0 -11.0V776.0ZM16.0 824.0V738.0C46.0 738.0 61.0 738.0 61.0 738.0V796.0H73.0ZM290.0 573.0H244.0C250.0 314.0 292.0 80.0 461.0 -26.0C498.0 -53.0 541.0 -66.0 554.0 -45.0C560.0 -36.0 558.0 -28.0 536.0 -4.0L546.0 116.0L533.0 117.0C523.0 83.0 513.0 47.0 504.0 27.0C498.0 12.0 492.0 11.0 478.0 20.0C331.0 106.0 284.0 366.0 290.0 573.0ZM416.0 796.0H426.0V509.0H431.0C447.0 509.0 470.0 522.0 471.0 527.0V758.0C491.0 761.0 508.0 769.0 514.0 777.0L446.0 830.0ZM452.0 579.0H40.0V547.0H452.0ZM455.0 796.0H42.0V767.0H455.0ZM472.0 419.0 432.0 369.0H43.0V339.0H520.0C534.0 339.0 543.0 345.0 546.0 356.0C517.0 383.0 472.0 419.0 472.0 419.0Z"/></g>
<g fill="red" transform="translate(800 200) scale(0.1 -0.1)"><path d="M0.0 0.0 53.0 -131.0C157.0 -52.0 243.0 28.0 284.0 68.0L281.0 78.0C166.0 43.0 48.0 11.0 0.0 0.0ZM113.0 754.0H16.0V55.0C16.0 27.0 10.0 16.0 -31.0 -7.0L45.0 -142.0C73.0 -127.0 105.0 -82.0 89.0 -3.0L32.0 -48.0L145.0 -25.0V735.0ZM16.0 797.0V684.0C106.0 684.0 146.0 684.0 146.0 684.0V744.0H159.0ZM366.0 536.0H240.0C240.0 285.0 265.0 40.0 424.0 -101.0C463.0 -133.0 535.0 -164.0 578.0 -119.0C600.0 -95.0 590.0 -63.0 564.0 -17.0L579.0 124.0L569.0 126.0C554.0 89.0 535.0 46.0 521.0 24.0C513.0 11.0 505.0 9.0 492.0 19.0C382.0 110.0 354.0 328.0 366.0 536.0ZM395.0 744.0H405.0V462.0H427.0C468.0 462.0 533.0 483.0 534.0 490.0V695.0C555.0 699.0 568.0 708.0 574.0 716.0L452.0 807.0ZM454.0 538.0H84.0V510.0H454.0ZM456.0 744.0H86.0V716.0H456.0ZM464.0 425.0 395.0 329.0H79.0V301.0H561.0C575.0 301.0 587.0 306.0 589.0 317.0C543.0 360.0 464.0 425.0 464.0 425.0Z"/></g>
<g fill="black" opacity=".8" transform="translate(800 200) scale(0.1 -0.1)"><path d="M0.0 0.0 59.0 -132.0C164.0 -51.0 249.0 30.0 290.0 71.0L288.0 81.0C170.0 45.0 49.0 11.0 0.0 0.0ZM124.0 753.0H26.0V55.0C26.0 27.0 18.0 17.0 -25.0 -8.0L52.0 -143.0C80.0 -129.0 113.0 -83.0 95.0 -3.0L38.0 -48.0L156.0 -25.0V733.0ZM26.0 797.0V683.0C116.0 683.0 156.0 683.0 156.0 683.0V744.0H170.0ZM365.0 527.0H237.0C238.0 279.0 264.0 40.0 432.0 -93.0C473.0 -124.0 545.0 -152.0 587.0 -105.0C608.0 -80.0 598.0 -50.0 571.0 -4.0L585.0 133.0L575.0 136.0C560.0 99.0 541.0 56.0 527.0 33.0C519.0 20.0 511.0 18.0 497.0 28.0C384.0 114.0 354.0 322.0 365.0 527.0ZM385.0 744.0H394.0V460.0H418.0C459.0 460.0 525.0 481.0 526.0 488.0V694.0C546.0 699.0 559.0 708.0 566.0 716.0L443.0 808.0ZM452.0 534.0H92.0V506.0H452.0ZM454.0 744.0H94.0V715.0H454.0ZM472.0 418.0 403.0 324.0H89.0V296.0H566.0C581.0 296.0 592.0 301.0 595.0 311.0C550.0 354.0 472.0 418.0 472.0 418.0Z"/></g>
<g fill="red" transform="translate(900 200) scale(0.1 -0.1)"><path d="M0.0 0.0 20.0 -45.0C120.0 13.0 219.0 75.0 272.0 106.0L265.0 122.0C155.0 69.0 46.0 18.0 0.0 0.0ZM51.0 779.0H17.0V39.0C17.0 19.0 13.0 14.0 -13.0 2.0L12.0 -53.0C22.0 -48.0 43.0 -29.0 34.0 4.0L19.0 -15.0L61.0 -7.0V773.0ZM17.0 820.0V734.0C46.0 734.0 61.0 734.0 61.0 734.0V793.0H73.0ZM312.0 571.0H267.0C274.0 305.0 324.0 70.0 509.0 -29.0C551.0 -54.0 593.0 -66.0 606.0 -45.0C611.0 -35.0 609.0 -27.0 586.0 -6.0L596.0 113.0L582.0 115.0C573.0 80.0 563.0 45.0 555.0 25.0C548.0 9.0 541.0 8.0 525.0 16.0C362.0 96.0 308.0 357.0 312.0 571.0ZM469.0 793.0H479.0V511.0H485.0C500.0 511.0 522.0 523.0 523.0 529.0V754.0C543.0 758.0 560.0 765.0 567.0 773.0L499.0 826.0ZM501.0 573.0H42.0V543.0H501.0ZM503.0 793.0H44.0V763.0H503.0ZM519.0 420.0 478.0 370.0H43.0V340.0H569.0C583.0 340.0 592.0 345.0 595.0 356.0C566.0 384.0 519.0 420.0 519.0 420.0Z"/></g>
<g fill="black" opacity=".8" transform="translate(900 200) scale(0.1 -0.1)"><path d="M0.0 0.0 20.0 -48.0C126.0 8.0 231.0 69.0 289.0 99.0L281.0 115.0C164.0 65.0 49.0 17.0 0.0 0.0ZM52.0 781.0H16.0V37.0C16.0 16.0 12.0 11.0 -15.0 -1.0L12.0 -59.0C22.0 -55.0 44.0 -34.0 34.0 1.0L19.0 -20.0L62.0 -12.0V776.0ZM16.0 826.0V737.0C46.0 737.0 62.0 737.0 62.0 737.0V798.0H74.0ZM311.0 573.0H264.0C271.0 311.0 324.0 77.0 508.0 -29.0C550.0 -56.0 594.0 -69.0 607.0 -47.0C613.0 -37.0 610.0 -29.0 587.0 -5.0L597.0 117.0L583.0 119.0C574.0 84.0 563.0 47.0 554.0 27.0C547.0 11.0 540.0 10.0 525.0 18.0C364.0 104.0 307.0 364.0 311.0 573.0ZM458.0 798.0H468.0V507.0H474.0C490.0 507.0 514.0 520.0 515.0 526.0V759.0C535.0 762.0 553.0 770.0 560.0 778.0L489.0 833.0ZM495.0 580.0H41.0V548.0H495.0ZM497.0 798.0H43.0V767.0H497.0ZM521.0 420.0 480.0 369.0H44.0V338.0H572.0C586.0 338.0 596.0 344.0 599.0 355.0C568.0 383.0 521.0 420.0 521.0 420.0Z"/></g>
<g fill="red" transform="translate(1000 200) scale(0.1 -0.1)"><path d="M0.0 0.0 61.0 -126.0C177.0 -35.0 268.0 53.0 313.0 98.0L310.0 108.0C183.0 60.0 53.0 15.0 0.0 0.0ZM132.0 754.0H30.0V61.0C30.0 34.0 22.0 22.0 -27.0 -4.0L52.0 -144.0C81.0 -128.0 115.0 -82.0 97.0 1.0L37.0 -46.0L166.0 -21.0V734.0ZM30.0 799.0V684.0C124.0 684.0 166.0 684.0 166.0 684.0V744.0H179.0ZM404.0 536.0H274.0C274.0 271.0 299.0 24.0 476.0 -106.0C519.0 -136.0 591.0 -163.0 632.0 -115.0C653.0 -89.0 643.0 -58.0 615.0 -14.0L630.0 126.0L619.0 128.0C604.0 91.0 584.0 46.0 570.0 24.0C562.0 11.0 553.0 9.0 540.0 18.0C421.0 102.0 392.0 319.0 404.0 536.0ZM439.0 744.0H449.0V462.0H472.0C515.0 462.0 582.0 483.0 583.0 490.0V694.0C604.0 698.0 617.0 708.0 623.0 715.0L498.0 809.0ZM490.0 538.0H106.0V510.0H490.0ZM492.0 744.0H108.0V716.0H492.0ZM519.0 425.0 450.0 329.0H106.0V301.0H616.0C631.0 301.0 642.0 306.0 644.0 317.0C599.0 360.0 519.0 425.0 519.0 425.0Z"/></g>
<g fill="black" opacity=".8" transform="translate(1000 200) scale(0.1 -0.1)"><path d="M0.0 0.0 59.0 -136.0C176.0 -53.0 271.0 30.0 317.0 72.0L315.0 82.0C185.0 46.0 53.0 11.0 0.0 0.0ZM130.0 750.0H26.0V57.0C26.0 29.0 19.0 17.0 -27.0 -8.0L52.0 -148.0C81.0 -133.0 116.0 -86.0 98.0 -3.0L38.0 -50.0L164.0 -26.0V730.0ZM26.0 800.0V682.0C122.0 682.0 164.0 682.0 164.0 682.0V745.0H178.0ZM396.0 525.0H261.0C264.0 275.0 297.0 35.0 481.0 -98.0C526.0 -129.0 602.0 -156.0 643.0 -106.0C665.0 -79.0 655.0 -48.0 626.0 -2.0L640.0 137.0L629.0 140.0C614.0 102.0 594.0 58.0 579.0 35.0C571.0 21.0 562.0 19.0 547.0 29.0C423.0 114.0 386.0 319.0 396.0 525.0ZM425.0 745.0H435.0V458.0H459.0C503.0 458.0 572.0 480.0 573.0 488.0V693.0C594.0 698.0 607.0 708.0 614.0 715.0L486.0 811.0ZM494.0 534.0H95.0V505.0H494.0ZM499.0 745.0H98.0V715.0H499.0ZM522.0 420.0 450.0 323.0H93.0V294.0H620.0C635.0 294.0 647.0 298.0 650.0 309.0C603.0 354.0 522.0 420.0 522.0 420.0Z"/></g>
<g fill="red" transform="translate(1100 200) scale(0.1 -0.1)"><path d="M0.0 0.0 15.0 -46.0C157.0 -3.0 291.0 43.0 373.0 69.0L368.0 86.0C213.0 47.0 63.0 11.0 0.0 0.0ZM40.0 513.0H6.0V24.0C6.0 7.0 2.0 3.0 -22.0 -10.0L3.0 -63.0C14.0 -58.0 34.0 -40.0 25.0 -8.0L10.0 -26.0L50.0 -19.0V507.0ZM6.0 564.0V478.0C35.0 478.0 50.0 478.0 50.0 478.0V537.0H62.0ZM358.0 373.0H313.0C334.0 186.0 447.0 28.0 678.0 -42.0C729.0 -59.0 771.0 -65.0 780.0 -43.0C784.0 -33.0 780.0 -26.0 754.0 -9.0L762.0 91.0L748.0 93.0C741.0 63.0 730.0 32.0 722.0 14.0C716.0 2.0 707.0 -1.0 687.0 4.0C481.0 58.0 370.0 221.0 358.0 373.0ZM608.0 537.0H617.0V317.0H623.0C638.0 317.0 660.0 329.0 661.0 335.0V501.0C678.0 504.0 694.0 511.0 700.0 518.0L636.0 567.0ZM636.0 396.0H31.0V366.0H636.0ZM635.0 537.0H30.0V507.0H635.0ZM705.0 289.0 667.0 242.0H37.0V212.0H751.0C765.0 212.0 774.0 217.0 777.0 228.0C749.0 255.0 705.0 289.0 705.0 289.0Z"/></g>
<g fill="black" opacity=".8" transform="translate(1100 200) scale(0.1 -0.1)"><path d="M0.0 0.0 15.0 -44.0C155.0 -1.0 287.0 47.0 368.0 72.0L362.0 89.0C210.0 49.0 62.0 11.0 0.0 0.0ZM40.0 514.0H7.0V24.0C7.0 7.0 3.0 3.0 -21.0 -9.0L4.0 -61.0C15.0 -57.0 34.0 -39.0 25.0 -7.0L10.0 -25.0L50.0 -19.0V509.0ZM7.0 564.0V480.0C35.0 480.0 50.0 480.0 50.0 480.0V536.0H61.0ZM359.0 374.0H314.0C334.0 182.0 447.0 25.0 681.0 -42.0C732.0 -58.0 773.0 -64.0 782.0 -42.0C786.0 -32.0 783.0 -25.0 756.0 -9.0L764.0 89.0L750.0 90.0C742.0 61.0 732.0 31.0 724.0 12.0C718.0 1.0 709.0 -2.0 689.0 2.0C480.0 54.0 370.0 218.0 359.0 374.0ZM606.0 536.0H615.0V318.0H620.0C635.0 318.0 658.0 330.0 659.0 335.0V503.0C675.0 505.0 690.0 512.0 696.0 519.0L633.0 567.0ZM637.0 395.0H31.0V365.0H637.0ZM635.0 536.0H31.0V508.0H635.0ZM703.0 287.0 666.0 240.0H38.0V211.0H749.0C763.0 211.0 772.0 217.0 775.0 228.0C746.0 254.0 703.0 287.0 703.0 287.0Z"/></g>
<g fill="red" transform="translate(1200 200) scale(0.1 -0.1)"><path d="M0.0 0.0 42.0 -122.0C202.0 -55.0 332.0 11.0 403.0 48.0L401.0 60.0C234.0 32.0 68.0 7.0 0.0 0.0ZM126.0 470.0H19.0V50.0C19.0 25.0 12.0 14.0 -33.0 -11.0L34.0 -135.0C62.0 -121.0 93.0 -83.0 83.0 -7.0L30.0 -49.0L161.0 -25.0V449.0ZM19.0 551.0V434.0C118.0 434.0 161.0 434.0 161.0 434.0V494.0H174.0ZM481.0 337.0H346.0C357.0 151.0 433.0 -19.0 668.0 -98.0C729.0 -116.0 808.0 -127.0 835.0 -71.0C851.0 -40.0 840.0 -16.0 804.0 14.0L815.0 126.0L805.0 129.0C790.0 94.0 770.0 55.0 757.0 37.0C748.0 25.0 737.0 22.0 718.0 27.0C556.0 76.0 485.0 190.0 481.0 337.0ZM569.0 494.0H579.0V287.0H604.0C650.0 287.0 718.0 313.0 719.0 322.0V447.0C738.0 450.0 749.0 459.0 754.0 466.0L630.0 558.0ZM636.0 354.0H80.0V326.0H636.0ZM654.0 494.0H93.0V466.0H654.0ZM709.0 289.0 643.0 205.0H84.0V177.0H800.0C815.0 177.0 825.0 182.0 828.0 193.0C783.0 232.0 709.0 289.0 709.0 289.0Z"/></g>
<g fill="black" opacity=".8" transform="translate(1200 200) scale(0.1 -0.1)"><path d="M0.0 0.0 43.0 -119.0C203.0 -50.0 332.0 18.0 403.0 56.0L401.0 68.0C234.0 37.0 67.0 8.0 0.0 0.0ZM129.0 472.0H24.0V51.0C24.0 27.0 15.0 17.0 -32.0 -9.0L36.0 -133.0C63.0 -119.0 95.0 -81.0 83.0 -5.0L30.0 -47.0L163.0 -23.0V452.0ZM24.0 550.0V436.0C121.0 436.0 163.0 436.0 163.0 436.0V495.0H176.0ZM483.0 332.0H349.0C360.0 152.0 436.0 -17.0 668.0 -100.0C729.0 -119.0 807.0 -130.0 836.0 -74.0C852.0 -44.0 841.0 -20.0 806.0 12.0L817.0 122.0L808.0 126.0C792.0 91.0 772.0 53.0 758.0 34.0C750.0 23.0 740.0 20.0 719.0 25.0C559.0 76.0 487.0 188.0 483.0 332.0ZM572.0 495.0H581.0V287.0H606.0C652.0 287.0 719.0 311.0 720.0 320.0V449.0C739.0 451.0 749.0 461.0 755.0 467.0L632.0 558.0ZM637.0 350.0H88.0V323.0H637.0ZM654.0 495.0H99.0V467.0H654.0ZM705.0 284.0 639.0 201.0H98.0V174.0H795.0C810.0 174.0 820.0 178.0 822.0 189.0C779.0 228.0 705.0 284.0 705.0 284.0Z"/></g>
<g fill="red" transform="translate(1300 200) scale(0.1 -0.1)"><path d="M0.0 0.0 20.0 -46.0C101.0 2.0 186.0 56.0 230.0 82.0L223.0 97.0C131.0 54.0 39.0 15.0 0.0 0.0ZM50.0 775.0H16.0V35.0C16.0 15.0 12.0 10.0 -14.0 -2.0L11.0 -57.0C21.0 -52.0 42.0 -33.0 33.0 0.0L18.0 -19.0L60.0 -11.0V769.0ZM16.0 817.0V731.0C45.0 731.0 60.0 731.0 60.0 731.0V790.0H72.0ZM227.0 579.0H183.0C187.0 365.0 206.0 141.0 311.0 1.0C338.0 -36.0 379.0 -56.0 396.0 -38.0C404.0 -29.0 403.0 -20.0 384.0 9.0L396.0 132.0L382.0 135.0C375.0 103.0 363.0 67.0 356.0 49.0C350.0 33.0 345.0 33.0 335.0 45.0C246.0 157.0 220.0 410.0 227.0 579.0ZM311.0 790.0H321.0V508.0H327.0C342.0 508.0 364.0 520.0 365.0 526.0V751.0C385.0 755.0 402.0 762.0 409.0 770.0L341.0 823.0ZM349.0 591.0H36.0V561.0H349.0ZM368.0 790.0H36.0V760.0H368.0ZM337.0 414.0 299.0 367.0H34.0V337.0H383.0C397.0 337.0 405.0 342.0 408.0 353.0C381.0 380.0 337.0 414.0 337.0 414.0Z"/></g>
<g fill="black" opacity=".8" transform="translate(1300 200) scale(0.1 -0.1)"><path d="M0.0 0.0 19.0 -44.0C102.0 4.0 188.0 58.0 233.0 83.0L226.0 98.0C133.0 55.0 39.0 15.0 0.0 0.0ZM50.0 776.0H17.0V35.0C17.0 16.0 13.0 10.0 -12.0 -1.0L12.0 -54.0C22.0 -50.0 42.0 -31.0 33.0 1.0L18.0 -18.0L59.0 -10.0V771.0ZM17.0 816.0V733.0C45.0 733.0 59.0 733.0 59.0 733.0V789.0H71.0ZM232.0 578.0H189.0C192.0 362.0 212.0 137.0 317.0 -1.0C343.0 -37.0 383.0 -57.0 400.0 -40.0C408.0 -31.0 407.0 -22.0 388.0 7.0L400.0 127.0L387.0 129.0C379.0 98.0 368.0 63.0 361.0 45.0C354.0 29.0 349.0 29.0 340.0 41.0C251.0 152.0 224.0 407.0 232.0 578.0ZM311.0 789.0H321.0V507.0H326.0C341.0 507.0 363.0 519.0 364.0 524.0V752.0C383.0 755.0 399.0 762.0 406.0 770.0L340.0 822.0ZM354.0 591.0H35.0V561.0H354.0ZM370.0 789.0H37.0V761.0H370.0ZM334.0 413.0 297.0 366.0H35.0V337.0H381.0C394.0 337.0 402.0 342.0 405.0 353.0C378.0 379.0 334.0 413.0 334.0 413.0Z"/></g>
<g fill="red" transform="translate(1400 200) scale(0.1 -0.1)"><path d="M0.0 0.0 61.0 -129.0C142.0 -59.0 209.0 12.0 239.0 47.0L237.0 56.0C141.0 31.0 42.0 8.0 0.0 0.0ZM123.0 737.0H27.0V55.0C27.0 27.0 20.0 17.0 -21.0 -7.0L53.0 -139.0C81.0 -124.0 113.0 -80.0 97.0 -2.0L41.0 -47.0L154.0 -24.0V718.0ZM27.0 778.0V666.0C115.0 666.0 154.0 666.0 154.0 666.0V726.0H168.0ZM316.0 510.0H203.0C200.0 301.0 198.0 83.0 288.0 -61.0C310.0 -95.0 373.0 -131.0 418.0 -93.0C441.0 -73.0 432.0 -43.0 413.0 4.0L427.0 137.0L415.0 140.0C404.0 106.0 389.0 68.0 377.0 48.0C371.0 35.0 364.0 34.0 357.0 45.0C305.0 136.0 301.0 336.0 316.0 510.0ZM314.0 726.0H324.0V456.0H345.0C385.0 456.0 446.0 478.0 447.0 485.0V680.0C466.0 684.0 478.0 692.0 483.0 699.0L369.0 785.0ZM397.0 526.0H108.0V498.0H397.0ZM397.0 726.0H108.0V698.0H397.0ZM375.0 396.0 320.0 321.0H103.0V293.0H447.0C461.0 293.0 471.0 298.0 473.0 309.0C437.0 345.0 375.0 396.0 375.0 396.0Z"/></g>
<g fill="black" opacity=".8" transform="translate(1400 200) scale(0.1 -0.1)"><path d="M0.0 0.0 61.0 -124.0C143.0 -55.0 210.0 16.0 241.0 51.0L239.0 60.0C142.0 34.0 42.0 8.0 0.0 0.0ZM127.0 739.0H32.0V58.0C32.0 31.0 24.0 21.0 -20.0 -4.0L55.0 -137.0C83.0 -122.0 115.0 -77.0 97.0 1.0L41.0 -44.0L158.0 -20.0V720.0ZM32.0 777.0V669.0C120.0 669.0 158.0 669.0 158.0 669.0V726.0H172.0ZM319.0 505.0H203.0C199.0 309.0 200.0 93.0 284.0 -60.0C304.0 -96.0 369.0 -136.0 419.0 -98.0C444.0 -78.0 435.0 -45.0 417.0 5.0L431.0 138.0L420.0 142.0C408.0 108.0 393.0 71.0 380.0 51.0C374.0 38.0 368.0 37.0 360.0 49.0C310.0 144.0 304.0 337.0 319.0 505.0ZM315.0 726.0H324.0V457.0H345.0C384.0 457.0 443.0 478.0 444.0 485.0V682.0C462.0 686.0 474.0 694.0 479.0 700.0L368.0 784.0ZM399.0 523.0H114.0V496.0H399.0ZM397.0 726.0H112.0V699.0H397.0ZM365.0 392.0 310.0 317.0H110.0V290.0H435.0C449.0 290.0 459.0 295.0 461.0 305.0C426.0 341.0 365.0 392.0 365.0 392.0Z"/></g>
<g fill="red" transform="translate(1500 200) scale(0.1 -0.1)"><path d="M0.0 0.0 20.0 -46.0C113.0 9.0 206.0 69.0 255.0 99.0L247.0 114.0C145.0 64.0 43.0 17.0 0.0 0.0ZM51.0 779.0H17.0V39.0C17.0 19.0 13.0 14.0 -13.0 2.0L12.0 -53.0C22.0 -48.0 43.0 -29.0 34.0 4.0L19.0 -15.0L61.0 -7.0V773.0ZM17.0 820.0V734.0C46.0 734.0 61.0 734.0 61.0 734.0V793.0H73.0ZM278.0 571.0H233.0C238.0 309.0 276.0 74.0 443.0 -28.0C480.0 -54.0 523.0 -67.0 535.0 -46.0C540.0 -36.0 538.0 -28.0 517.0 -6.0L528.0 113.0L514.0 115.0C505.0 80.0 494.0 45.0 486.0 25.0C480.0 10.0 473.0 9.0 460.0 18.0C316.0 100.0 272.0 362.0 278.0 571.0ZM392.0 793.0H402.0V511.0H408.0C423.0 511.0 445.0 523.0 446.0 529.0V754.0C466.0 758.0 483.0 765.0 490.0 773.0L422.0 826.0ZM425.0 573.0H42.0V543.0H425.0ZM426.0 793.0H43.0V763.0H426.0ZM467.0 418.0 428.0 370.0H48.0V340.0H515.0C528.0 340.0 538.0 345.0 540.0 356.0C512.0 383.0 467.0 418.0 467.0 418.0Z"/></g>
<g fill="black" opacity=".8" transform="translate(1500 200) scale(0.1 -0.1)"><path d="M0.0 0.0 20.0 -45.0C111.0 10.0 202.0 70.0 250.0 100.0L242.0 114.0C142.0 64.0 42.0 17.0 0.0 0.0ZM51.0 780.0H17.0V37.0C17.0 17.0 13.0 12.0 -12.0 1.0L12.0 -54.0C22.0 -50.0 43.0 -30.0 34.0 3.0L19.0 -17.0L60.0 -10.0V775.0ZM17.0 821.0V737.0C45.0 737.0 60.0 737.0 60.0 737.0V794.0H72.0ZM284.0 571.0H239.0C243.0 306.0 281.0 72.0 449.0 -28.0C487.0 -53.0 528.0 -66.0 541.0 -45.0C546.0 -36.0 544.0 -28.0 523.0 -6.0L533.0 112.0L520.0 113.0C510.0 79.0 500.0 44.0 492.0 24.0C485.0 9.0 479.0 8.0 465.0 16.0C319.0 98.0 277.0 360.0 284.0 571.0ZM401.0 794.0H412.0V510.0H417.0C432.0 510.0 455.0 522.0 456.0 527.0V757.0C475.0 759.0 491.0 767.0 498.0 775.0L431.0 827.0ZM436.0 573.0H41.0V543.0H436.0ZM437.0 794.0H43.0V765.0H437.0ZM458.0 418.0 419.0 369.0H44.0V340.0H505.0C518.0 340.0 528.0 345.0 531.0 356.0C502.0 383.0 458.0 418.0 458.0 418.0Z"/></g>
<g fill="red" transform="translate(1600 200) scale(0.1 -0.1)"><path d="M0.0 0.0 60.0 -132.0C162.0 -48.0 244.0 35.0 282.0 77.0L280.0 86.0C165.0 48.0 48.0 12.0 0.0 0.0ZM119.0 754.0H23.0V53.0C23.0 25.0 17.0 14.0 -23.0 -9.0L51.0 -141.0C79.0 -126.0 111.0 -82.0 94.0 -4.0L39.0 -48.0L150.0 -26.0V735.0ZM23.0 796.0V684.0C111.0 684.0 150.0 684.0 150.0 684.0V744.0H164.0ZM347.0 536.0H221.0C222.0 277.0 249.0 35.0 426.0 -91.0C469.0 -120.0 540.0 -146.0 578.0 -99.0C599.0 -74.0 589.0 -44.0 561.0 -1.0L575.0 135.0L564.0 137.0C550.0 100.0 531.0 57.0 517.0 35.0C509.0 22.0 500.0 20.0 487.0 29.0C366.0 111.0 336.0 324.0 347.0 536.0ZM363.0 744.0H373.0V462.0H395.0C436.0 462.0 501.0 483.0 502.0 490.0V695.0C523.0 699.0 536.0 708.0 542.0 716.0L420.0 807.0ZM426.0 538.0H80.0V510.0H426.0ZM428.0 744.0H82.0V716.0H428.0ZM460.0 425.0 391.0 329.0H75.0V301.0H557.0C571.0 301.0 583.0 306.0 585.0 317.0C539.0 360.0 460.0 425.0 460.0 425.0Z"/></g>
<g fill="black" opacity=".8" transform="translate(1600 200) scale(0.1 -0.1)"><path d="M0.0 0.0 58.0 -130.0C158.0 -49.0 239.0 33.0 278.0 74.0L276.0 83.0C162.0 47.0 46.0 11.0 0.0 0.0ZM118.0 756.0H23.0V53.0C23.0 26.0 16.0 15.0 -24.0 -8.0L51.0 -140.0C78.0 -126.0 110.0 -81.0 93.0 -3.0L36.0 -47.0L149.0 -25.0V737.0ZM23.0 795.0V686.0C110.0 686.0 149.0 686.0 149.0 686.0V744.0H163.0ZM348.0 530.0H223.0C225.0 276.0 249.0 34.0 422.0 -96.0C463.0 -126.0 533.0 -152.0 573.0 -105.0C593.0 -81.0 584.0 -52.0 557.0 -8.0L570.0 128.0L560.0 131.0C546.0 94.0 527.0 51.0 512.0 28.0C505.0 15.0 497.0 14.0 483.0 24.0C367.0 107.0 337.0 321.0 348.0 530.0ZM365.0 744.0H375.0V460.0H397.0C437.0 460.0 501.0 480.0 502.0 487.0V696.0C523.0 700.0 536.0 709.0 542.0 717.0L422.0 807.0ZM426.0 535.0H85.0V508.0H426.0ZM428.0 744.0H86.0V717.0H428.0ZM452.0 421.0 382.0 326.0H80.0V298.0H548.0C562.0 298.0 574.0 303.0 576.0 313.0C531.0 356.0 452.0 421.0 452.0 421.0Z"/></g>
<g fill="red" transform="translate(100 300) scale(0.1 -0.1)"><path d="M0.0 0.0 20.0 -46.0C111.0 9.0 203.0 68.0 251.0 98.0L244.0 112.0C143.0 63.0 43.0 17.0 0.0 0.0ZM51.0 779.0H17.0V39.0C17.0 19.0 13.0 14.0 -13.0 2.0L12.0 -53.0C22.0 -48.0 43.0 -29.0 34.0 4.0L19.0 -15.0L61.0 -7.0V773.0ZM17.0 820.0V734.0C46.0 734.0 61.0 734.0 61.0 734.0V793.0H73.0ZM284.0 571.0H239.0C244.0 310.0 279.0 75.0 441.0 -27.0C477.0 -54.0 519.0 -67.0 532.0 -46.0C538.0 -37.0 536.0 -29.0 515.0 -6.0L525.0 113.0L511.0 115.0C503.0 80.0 491.0 45.0 483.0 26.0C477.0 10.0 472.0 9.0 458.0 18.0C319.0 101.0 278.0 363.0 284.0 571.0ZM402.0 793.0H412.0V511.0H418.0C433.0 511.0 455.0 523.0 456.0 529.0V754.0C476.0 758.0 493.0 765.0 500.0 773.0L432.0 826.0ZM430.0 573.0H42.0V543.0H430.0ZM432.0 793.0H44.0V763.0H432.0ZM453.0 418.0 415.0 370.0H48.0V340.0H499.0C513.0 340.0 523.0 345.0 525.0 356.0C497.0 383.0 453.0 418.0 453.0 418.0Z"/></g>
<g fill="black" opacity=".8" transform="translate(100 300) scale(0.1 -0.1)"><path d="M0.0 0.0 20.0 -45.0C107.0 11.0 196.0 71.0 242.0 101.0L233.0 114.0C137.0 65.0 41.0 17.0 0.0 0.0ZM51.0 779.0H17.0V37.0C17.0 17.0 13.0 12.0 -12.0 1.0L12.0 -52.0C22.0 -49.0 42.0 -29.0 34.0 3.0L19.0 -16.0L60.0 -9.0V775.0ZM17.0 819.0V737.0C45.0 737.0 60.0 737.0 60.0 737.0V793.0H71.0ZM279.0 570.0H235.0C238.0 303.0 273.0 68.0 441.0 -29.0C478.0 -54.0 519.0 -66.0 531.0 -45.0C536.0 -36.0 534.0 -28.0 513.0 -6.0L523.0 110.0L510.0 111.0C501.0 77.0 490.0 42.0 482.0 23.0C476.0 8.0 470.0 6.0 456.0 15.0C312.0 94.0 272.0 357.0 279.0 570.0ZM392.0 793.0H402.0V510.0H407.0C422.0 510.0 444.0 522.0 445.0 528.0V756.0C464.0 758.0 481.0 766.0 487.0 774.0L421.0 826.0ZM425.0 570.0H41.0V540.0H425.0ZM425.0 793.0H43.0V765.0H425.0ZM448.0 417.0 410.0 369.0H44.0V340.0H494.0C507.0 340.0 517.0 346.0 519.0 356.0C492.0 383.0 448.0 417.0 448.0 417.0Z"/></g>
<g fill="red" transform="translate(200 300) scale(0.1 -0.1)"><path d="M0.0 0.0 59.0 -132.0C154.0 -51.0 230.0 30.0 265.0 69.0L263.0 78.0C155.0 44.0 45.0 11.0 0.0 0.0ZM113.0 754.0H18.0V51.0C18.0 24.0 12.0 13.0 -26.0 -9.0L48.0 -141.0C75.0 -126.0 107.0 -82.0 91.0 -5.0L35.0 -49.0L144.0 -27.0V735.0ZM18.0 796.0V684.0C105.0 684.0 144.0 684.0 144.0 684.0V744.0H157.0ZM332.0 536.0H207.0C208.0 278.0 233.0 37.0 405.0 -90.0C447.0 -119.0 517.0 -145.0 556.0 -99.0C576.0 -74.0 566.0 -45.0 539.0 -2.0L553.0 134.0L542.0 136.0C528.0 100.0 509.0 56.0 495.0 34.0C487.0 21.0 479.0 20.0 466.0 29.0C349.0 111.0 321.0 325.0 332.0 536.0ZM345.0 744.0H355.0V462.0H377.0C417.0 462.0 482.0 483.0 483.0 490.0V695.0C503.0 699.0 517.0 708.0 523.0 716.0L402.0 807.0ZM408.0 538.0H71.0V510.0H408.0ZM410.0 744.0H73.0V716.0H410.0ZM438.0 425.0 368.0 329.0H57.0V301.0H534.0C549.0 301.0 560.0 306.0 563.0 317.0C517.0 360.0 438.0 425.0 438.0 425.0Z"/></g>
<g fill="black" opacity=".8" transform="translate(200 300) scale(0.1 -0.1)"><path d="M0.0 0.0 57.0 -128.0C154.0 -47.0 233.0 35.0 270.0 75.0L268.0 84.0C158.0 47.0 45.0 12.0 0.0 0.0ZM115.0 758.0H22.0V51.0C22.0 25.0 16.0 15.0 -24.0 -8.0L50.0 -138.0C77.0 -125.0 109.0 -80.0 91.0 -4.0L36.0 -47.0L145.0 -25.0V739.0ZM22.0 795.0V687.0C107.0 687.0 145.0 687.0 145.0 687.0V745.0H158.0ZM338.0 533.0H215.0C216.0 274.0 240.0 32.0 413.0 -97.0C455.0 -126.0 524.0 -151.0 562.0 -106.0C582.0 -82.0 573.0 -53.0 546.0 -9.0L560.0 125.0L549.0 128.0C535.0 92.0 517.0 49.0 502.0 26.0C495.0 13.0 487.0 12.0 473.0 21.0C356.0 104.0 327.0 320.0 338.0 533.0ZM353.0 745.0H362.0V461.0H384.0C424.0 461.0 487.0 480.0 488.0 487.0V696.0C508.0 701.0 521.0 710.0 528.0 718.0L409.0 807.0ZM411.0 536.0H81.0V509.0H411.0ZM412.0 745.0H82.0V718.0H412.0ZM439.0 423.0 369.0 327.0H76.0V300.0H535.0C550.0 300.0 561.0 304.0 564.0 314.0C518.0 357.0 439.0 423.0 439.0 423.0Z"/></g>
<g fill="red" transform="translate(300 300) scale(0.1 -0.1)"><path d="M0.0 0.0 20.0 -46.0C111.0 9.0 203.0 68.0 251.0 98.0L244.0 112.0C143.0 63.0 43.0 17.0 0.0 0.0ZM51.0 779.0H17.0V39.0C17.0 19.0 13.0 14.0 -13.0 2.0L12.0 -53.0C22.0 -48.0 43.0 -29.0 34.0 4.0L19.0 -15.0L61.0 -7.0V773.0ZM17.0 820.0V734.0C46.0 734.0 61.0 734.0 61.0 734.0V793.0H73.0ZM278.0 571.0H233.0C238.0 310.0 273.0 75.0 435.0 -27.0C471.0 -54.0 513.0 -67.0 526.0 -46.0C532.0 -37.0 530.0 -29.0 509.0 -6.0L519.0 113.0L505.0 115.0C497.0 80.0 485.0 45.0 477.0 26.0C471.0 10.0 466.0 9.0 452.0 18.0C313.0 101.0 272.0 363.0 278.0 571.0ZM388.0 793.0H398.0V511.0H404.0C419.0 511.0 441.0 523.0 442.0 529.0V754.0C462.0 758.0 479.0 765.0 486.0 773.0L418.0 826.0ZM419.0 573.0H41.0V543.0H419.0ZM421.0 793.0H43.0V763.0H421.0ZM434.0 418.0 395.0 370.0H38.0V340.0H480.0C494.0 340.0 503.0 345.0 506.0 356.0C478.0 383.0 434.0 418.0 434.0 418.0Z"/></g>
<g fill="black" opacity=".8" transform="translate(300 300) scale(0.1 -0.1)"><path d="M0.0 0.0 20.0 -45.0C109.0 10.0 199.0 70.0 245.0 99.0L237.0 113.0C140.0 64.0 41.0 17.0 0.0 0.0ZM51.0 780.0H17.0V37.0C17.0 17.0 13.0 12.0 -12.0 1.0L12.0 -53.0C22.0 -50.0 43.0 -30.0 34.0 3.0L19.0 -17.0L60.0 -9.0V775.0ZM17.0 820.0V737.0C45.0 737.0 60.0 737.0 60.0 737.0V793.0H72.0ZM278.0 571.0H234.0C238.0 308.0 273.0 75.0 437.0 -27.0C474.0 -52.0 515.0 -66.0 527.0 -45.0C533.0 -36.0 531.0 -28.0 510.0 -5.0L520.0 112.0L507.0 113.0C498.0 80.0 487.0 45.0 479.0 25.0C473.0 10.0 467.0 9.0 453.0 17.0C312.0 100.0 271.0 362.0 278.0 571.0ZM391.0 793.0H402.0V510.0H407.0C422.0 510.0 444.0 522.0 445.0 528.0V757.0C464.0 759.0 481.0 767.0 487.0 775.0L421.0 827.0ZM426.0 573.0H40.0V543.0H426.0ZM428.0 793.0H43.0V765.0H428.0ZM445.0 417.0 407.0 369.0H43.0V340.0H492.0C506.0 340.0 515.0 346.0 518.0 356.0C490.0 383.0 445.0 417.0 445.0 417.0Z"/></g>
<g fill="red" transform="translate(400 300) scale(0.1 -0.1)"><path d="M0.0 0.0 54.0 -129.0C156.0 -53.0 239.0 25.0 279.0 63.0L276.0 73.0C163.0 40.0 48.0 10.0 0.0 0.0ZM114.0 754.0H19.0V51.0C19.0 24.0 13.0 13.0 -25.0 -9.0L49.0 -141.0C76.0 -126.0 108.0 -82.0 92.0 -5.0L36.0 -49.0L145.0 -27.0V735.0ZM19.0 796.0V684.0C106.0 684.0 145.0 684.0 145.0 684.0V744.0H158.0ZM342.0 536.0H217.0C218.0 278.0 243.0 37.0 415.0 -90.0C457.0 -119.0 527.0 -145.0 566.0 -99.0C586.0 -74.0 576.0 -45.0 549.0 -2.0L563.0 134.0L552.0 136.0C538.0 100.0 519.0 56.0 505.0 34.0C497.0 21.0 489.0 20.0 476.0 29.0C359.0 111.0 331.0 325.0 342.0 536.0ZM355.0 744.0H365.0V462.0H387.0C427.0 462.0 492.0 483.0 493.0 490.0V695.0C513.0 699.0 527.0 708.0 533.0 716.0L412.0 807.0ZM418.0 538.0H81.0V510.0H418.0ZM420.0 744.0H83.0V716.0H420.0ZM448.0 425.0 378.0 329.0H67.0V301.0H544.0C559.0 301.0 570.0 306.0 573.0 317.0C527.0 360.0 448.0 425.0 448.0 425.0Z"/></g>
<g fill="black" opacity=".8" transform="translate(400 300) scale(0.1 -0.1)"><path d="M0.0 0.0 58.0 -129.0C156.0 -49.0 235.0 33.0 272.0 73.0L270.0 82.0C159.0 46.0 46.0 11.0 0.0 0.0ZM117.0 756.0H24.0V53.0C24.0 26.0 17.0 16.0 -24.0 -8.0L51.0 -139.0C78.0 -125.0 110.0 -80.0 92.0 -3.0L37.0 -47.0L148.0 -25.0V737.0ZM24.0 795.0V686.0C110.0 686.0 148.0 686.0 148.0 686.0V744.0H161.0ZM342.0 530.0H219.0C219.0 278.0 242.0 37.0 409.0 -94.0C449.0 -124.0 518.0 -151.0 558.0 -105.0C579.0 -81.0 569.0 -52.0 543.0 -8.0L557.0 127.0L547.0 130.0C532.0 94.0 514.0 51.0 499.0 29.0C492.0 16.0 485.0 14.0 471.0 24.0C358.0 108.0 331.0 322.0 342.0 530.0ZM357.0 744.0H366.0V461.0H388.0C428.0 461.0 491.0 480.0 492.0 487.0V695.0C513.0 700.0 526.0 709.0 532.0 717.0L413.0 806.0ZM418.0 535.0H85.0V508.0H418.0ZM419.0 744.0H86.0V716.0H419.0ZM441.0 420.0 372.0 326.0H80.0V298.0H535.0C550.0 298.0 561.0 303.0 563.0 313.0C519.0 356.0 441.0 420.0 441.0 420.0Z"/></g>
</svg>
