<?xml version="1.0" encoding="UTF-8"?>
<svg width="1700" height="300" xmlns="http://www.w3.org/2000/svg">
<rect width="100%" height="100%" fill="white"/>
<g fill="green" transform="translate(100 100) scale(0.1 -0.1)"><path d="M-0.0 0.0 -16.0 -17.0C41.0 -47.0 112.0 -105.0 140.0 -150.0C216.0 -189.0 251.0 -37.0 0.0 0.0ZM-676.0 -166.0 -662.0 -216.0H522.0C544.0 -216.0 560.0 -207.0 565.0 -189.0C517.0 -143.0 443.0 -86.0 443.0 -86.0L377.0 -166.0H-676.0ZM-127.0 24.0C-137.0 -267.0 -188.0 -429.0 -700.0 -559.0L-685.0 -595.0C-128.0 -474.0 -75.0 -303.0 -52.0 -33.0C-16.0 -30.0 1.0 -13.0 4.0 8.0L-127.0 24.0ZM-29.0 -167.0 -58.0 -181.0C31.0 -383.0 205.0 -523.0 502.0 -598.0C512.0 -560.0 537.0 -543.0 572.0 -539.0L574.0 -521.0C266.0 -464.0 63.0 -346.0 -29.0 -167.0Z"/></g>
<g fill="green" transform="translate(200 100) scale(0.1 -0.1)"><path d="M0.0 0.0 -13.0 -9.0C12.0 -39.0 43.0 -94.0 50.0 -143.0C191.0 -232.0 323.0 20.0 0.0 0.0ZM-710.0 -156.0 -697.0 -203.0H515.0C538.0 -203.0 557.0 -195.0 560.0 -176.0C493.0 -112.0 376.0 -19.0 376.0 -19.0L275.0 -156.0H-710.0ZM-242.0 33.0C-250.0 -224.0 -283.0 -405.0 -725.0 -557.0L-715.0 -582.0C-95.0 -481.0 -37.0 -292.0 -5.0 -33.0C32.0 -28.0 49.0 -10.0 52.0 12.0L-242.0 33.0ZM-21.0 -156.0 -40.0 -166.0C30.0 -373.0 174.0 -516.0 401.0 -591.0C416.0 -477.0 467.0 -414.0 556.0 -387.0V-368.0C304.0 -350.0 71.0 -291.0 -21.0 -156.0Z"/></g>
<g fill="green" transform="translate(300 100) scale(0.1 -0.1)"><path d="M0.0 0.0 -7.0 -8.0C19.0 -18.0 50.0 -38.0 63.0 -55.0C97.0 -73.0 112.0 -4.0 0.0 0.0ZM-418.0 -50.0 -411.0 -75.0H199.0C209.0 -75.0 217.0 -70.0 220.0 -61.0C197.0 -39.0 162.0 -12.0 162.0 -12.0L131.0 -50.0H-418.0ZM-132.0 35.0C-139.0 -96.0 -158.0 -154.0 -423.0 -209.0L-416.0 -228.0C-129.0 -177.0 -110.0 -113.0 -97.0 8.0C-79.0 9.0 -72.0 18.0 -71.0 27.0L-132.0 35.0ZM-77.0 -51.0 -91.0 -58.0C-45.0 -145.0 44.0 -200.0 190.0 -231.0C195.0 -214.0 206.0 -207.0 222.0 -205.0L223.0 -197.0C71.0 -174.0 -31.0 -128.0 -77.0 -51.0Z"/></g>
<g fill="green" transform="translate(400 100) scale(0.1 -0.1)"><path d="M0.0 0.0 -6.0 -4.0C0.0 -10.0 8.0 -25.0 9.0 -38.0C65.0 -72.0 121.0 22.0 0.0 0.0ZM-451.0 -28.0 -445.0 -51.0H182.0C192.0 -51.0 202.0 -47.0 203.0 -38.0C171.0 -7.0 113.0 38.0 113.0 38.0L65.0 -28.0H-451.0ZM-203.0 48.0C-211.0 -58.0 -225.0 -119.0 -450.0 -181.0L-445.0 -194.0C-128.0 -157.0 -105.0 -86.0 -88.0 18.0C-71.0 21.0 -63.0 29.0 -62.0 39.0L-203.0 48.0ZM-96.0 -28.0 -106.0 -33.0C-66.0 -115.0 16.0 -171.0 127.0 -202.0C134.0 -153.0 156.0 -127.0 197.0 -115.0V-106.0C75.0 -100.0 -45.0 -81.0 -96.0 -28.0Z"/></g>
<g fill="green" transform="translate(500 100) scale(0.1 -0.1)"><path d="M-0.0 0.0 -14.0 -7.0C17.0 -49.0 54.0 -119.0 59.0 -172.0C105.0 -218.0 153.0 -105.0 0.0 0.0ZM168.0 -215.0 177.0 -248.0H681.0C695.0 -248.0 705.0 -242.0 709.0 -230.0C680.0 -201.0 635.0 -167.0 635.0 -167.0L595.0 -215.0H168.0ZM390.0 -66.0C382.0 -311.0 378.0 -425.0 116.0 -537.0L129.0 -561.0C423.0 -454.0 423.0 -329.0 436.0 -103.0C461.0 -100.0 469.0 -87.0 472.0 -76.0L390.0 -66.0ZM459.0 -215.0 439.0 -222.0C457.0 -322.0 504.0 -474.0 667.0 -563.0C675.0 -539.0 689.0 -538.0 713.0 -537.0L715.0 -524.0C536.0 -437.0 480.0 -314.0 459.0 -215.0Z"/></g>
<g fill="green" transform="translate(600 100) scale(0.1 -0.1)"><path d="M0.0 0.0 -11.0 -4.0C0.0 -46.0 7.0 -104.0 1.0 -156.0C82.0 -251.0 219.0 -90.0 0.0 0.0ZM155.0 -210.0 163.0 -241.0H674.0C689.0 -241.0 702.0 -236.0 703.0 -223.0C660.0 -183.0 583.0 -125.0 583.0 -125.0L517.0 -210.0H155.0ZM337.0 -81.0C327.0 -293.0 330.0 -419.0 139.0 -534.0L148.0 -552.0C470.0 -467.0 468.0 -326.0 484.0 -127.0C506.0 -123.0 517.0 -112.0 520.0 -99.0L337.0 -81.0ZM474.0 -209.0 459.0 -213.0C474.0 -310.0 518.0 -491.0 602.0 -560.0C606.0 -470.0 639.0 -439.0 711.0 -420.0L710.0 -407.0C575.0 -365.0 495.0 -288.0 474.0 -209.0Z"/></g>
<g fill="green" transform="translate(700 100) scale(0.1 -0.1)"><path d="M-0.0 0.0 -18.0 -18.0C39.0 -56.0 118.0 -122.0 151.0 -169.0C231.0 -210.0 278.0 -57.0 0.0 0.0ZM-613.0 -200.0 -598.0 -255.0H440.0C465.0 -255.0 483.0 -245.0 487.0 -225.0C435.0 -176.0 355.0 -114.0 355.0 -114.0L284.0 -200.0H-613.0ZM-153.0 28.0C-145.0 -302.0 -211.0 -522.0 -668.0 -652.0L-653.0 -684.0C-154.0 -565.0 -76.0 -341.0 -64.0 -35.0C-28.0 -31.0 -6.0 -17.0 -2.0 11.0L-153.0 28.0ZM-66.0 -201.0 -98.0 -214.0C-19.0 -437.0 133.0 -603.0 415.0 -686.0C425.0 -641.0 457.0 -620.0 498.0 -614.0L499.0 -593.0C207.0 -535.0 19.0 -391.0 -66.0 -201.0Z"/></g>
<g fill="green" transform="translate(800 100) scale(0.1 -0.1)"><path d="M0.0 0.0 -15.0 -9.0C9.0 -44.0 33.0 -106.0 30.0 -163.0C183.0 -283.0 369.0 -6.0 0.0 0.0ZM-615.0 -191.0 -601.0 -243.0H449.0C474.0 -243.0 494.0 -234.0 498.0 -213.0C433.0 -148.0 321.0 -55.0 321.0 -55.0L223.0 -191.0H-615.0ZM-260.0 31.0C-245.0 -239.0 -289.0 -491.0 -669.0 -652.0L-659.0 -676.0C-128.0 -565.0 -26.0 -332.0 -3.0 -44.0C40.0 -38.0 58.0 -19.0 62.0 8.0L-260.0 31.0ZM-12.0 -189.0 -32.0 -197.0C14.0 -426.0 110.0 -599.0 324.0 -691.0C341.0 -561.0 402.0 -489.0 497.0 -462.0V-441.0C257.0 -417.0 57.0 -323.0 -12.0 -189.0Z"/></g>
<g fill="green" transform="translate(900 100) scale(0.1 -0.1)"><path d="M0.0 0.0 -10.0 -14.0C51.0 -42.0 132.0 -97.0 164.0 -138.0C238.0 -164.0 249.0 -19.0 0.0 0.0ZM-683.0 -165.0 -672.0 -202.0H495.0C513.0 -202.0 525.0 -196.0 529.0 -183.0C488.0 -145.0 426.0 -97.0 426.0 -97.0L369.0 -165.0H-683.0ZM-133.0 4.0C-141.0 -244.0 -206.0 -407.0 -689.0 -524.0L-679.0 -549.0C-161.0 -440.0 -92.0 -275.0 -71.0 -41.0C-44.0 -39.0 -29.0 -27.0 -27.0 -9.0L-133.0 4.0ZM-60.0 -163.0 -82.0 -177.0C29.0 -398.0 236.0 -497.0 490.0 -551.0C497.0 -521.0 518.0 -497.0 543.0 -492.0V-480.0C287.0 -450.0 51.0 -356.0 -60.0 -163.0Z"/></g>
<g fill="green" transform="translate(1000 100) scale(0.1 -0.1)"><path d="M0.0 0.0 -7.0 -8.0C31.0 -42.0 84.0 -103.0 104.0 -157.0C258.0 -221.0 338.0 58.0 0.0 0.0ZM-699.0 -181.0 -690.0 -216.0H531.0C550.0 -216.0 565.0 -210.0 568.0 -196.0C504.0 -139.0 396.0 -57.0 396.0 -57.0L301.0 -181.0H-699.0ZM-212.0 17.0C-215.0 -234.0 -256.0 -431.0 -721.0 -586.0L-715.0 -602.0C-103.0 -500.0 -36.0 -304.0 -7.0 -37.0C24.0 -33.0 38.0 -19.0 40.0 -1.0L-212.0 17.0ZM-26.0 -184.0 -36.0 -192.0C50.0 -441.0 213.0 -529.0 444.0 -593.0C463.0 -499.0 510.0 -424.0 579.0 -399.0V-385.0C350.0 -384.0 87.0 -345.0 -26.0 -184.0Z"/></g>
<g fill="green" transform="translate(1100 100) scale(0.1 -0.1)"><path d="M0.0 0.0 -19.0 -19.0C33.0 -46.0 94.0 -99.0 118.0 -143.0C194.0 -184.0 236.0 -35.0 0.0 0.0ZM-687.0 -154.0 -672.0 -208.0H535.0C558.0 -208.0 574.0 -199.0 580.0 -179.0C531.0 -130.0 453.0 -70.0 453.0 -70.0L384.0 -154.0H-687.0ZM-125.0 15.0C-142.0 -263.0 -190.0 -412.0 -704.0 -549.0L-685.0 -591.0C-122.0 -464.0 -75.0 -300.0 -47.0 -49.0C-7.0 -46.0 10.0 -24.0 14.0 -3.0L-125.0 15.0ZM-26.0 -156.0 -57.0 -170.0C18.0 -360.0 173.0 -513.0 504.0 -594.0C515.0 -552.0 541.0 -540.0 580.0 -536.0L583.0 -516.0C236.0 -449.0 55.0 -328.0 -26.0 -156.0Z"/></g>
<g fill="green" transform="translate(1200 100) scale(0.1 -0.1)"><path d="M0.0 0.0 -16.0 -10.0C14.0 -43.0 51.0 -102.0 61.0 -155.0C204.0 -243.0 334.0 11.0 0.0 0.0ZM-715.0 -166.0 -701.0 -218.0H511.0C536.0 -218.0 556.0 -209.0 559.0 -188.0C494.0 -124.0 379.0 -29.0 379.0 -29.0L280.0 -166.0H-715.0ZM-237.0 6.0C-253.0 -249.0 -281.0 -408.0 -714.0 -557.0L-701.0 -587.0C-85.0 -484.0 -40.0 -309.0 -5.0 -64.0C35.0 -59.0 52.0 -39.0 56.0 -16.0L-237.0 6.0ZM-20.0 -169.0 -43.0 -180.0C16.0 -372.0 152.0 -529.0 386.0 -599.0C396.0 -480.0 446.0 -426.0 542.0 -397.0V-375.0C267.0 -355.0 58.0 -300.0 -20.0 -169.0Z"/></g>
<g fill="red" transform="translate(100 200) scale(0.1 -0.1)"><path d="M0.0 0.0 -10.0 -10.0C26.0 -34.0 78.0 -75.0 99.0 -104.0C148.0 -125.0 170.0 -35.0 0.0 0.0ZM-395.0 -127.0 -387.0 -157.0H246.0C260.0 -157.0 270.0 -152.0 272.0 -141.0C242.0 -114.0 196.0 -78.0 196.0 -78.0L155.0 -127.0H-395.0ZM-111.0 5.0C-107.0 -186.0 -158.0 -335.0 -425.0 -415.0L-417.0 -430.0C-128.0 -357.0 -69.0 -209.0 -60.0 -31.0C-41.0 -29.0 -28.0 -22.0 -25.0 -5.0L-111.0 5.0ZM-71.0 -127.0 -89.0 -135.0C-33.0 -292.0 72.0 -385.0 241.0 -429.0C246.0 -404.0 264.0 -387.0 286.0 -383.0V-372.0C116.0 -346.0 -12.0 -260.0 -71.0 -127.0Z"/></g>
<g fill="black" opacity=".8" transform="translate(100 200) scale(0.1 -0.1)"><path d="M0.0 0.0 -10.0 -11.0C27.0 -35.0 81.0 -75.0 104.0 -102.0C155.0 -123.0 178.0 -30.0 0.0 0.0ZM-397.0 -128.0 -388.0 -160.0H249.0C263.0 -160.0 273.0 -155.0 276.0 -143.0C245.0 -114.0 197.0 -76.0 197.0 -76.0L154.0 -128.0H-397.0ZM-115.0 8.0C-107.0 -186.0 -158.0 -334.0 -427.0 -412.0L-418.0 -428.0C-127.0 -357.0 -66.0 -209.0 -60.0 -30.0C-40.0 -28.0 -26.0 -20.0 -23.0 -2.0L-115.0 8.0ZM-73.0 -128.0 -91.0 -136.0C-36.0 -289.0 68.0 -383.0 236.0 -429.0C241.0 -401.0 261.0 -385.0 285.0 -380.0V-369.0C113.0 -342.0 -14.0 -256.0 -73.0 -128.0Z"/></g>
<g fill="red" transform="translate(200 200) scale(0.1 -0.1)"><path d="M0.0 0.0 -8.0 -6.0C16.0 -31.0 43.0 -75.0 48.0 -115.0C152.0 -181.0 246.0 10.0 0.0 0.0ZM-389.0 -140.0 -381.0 -168.0H273.0C287.0 -168.0 298.0 -163.0 301.0 -152.0C261.0 -115.0 195.0 -63.0 195.0 -63.0L137.0 -140.0H-389.0ZM-161.0 2.0C-149.0 -165.0 -180.0 -340.0 -415.0 -448.0L-410.0 -459.0C-94.0 -384.0 -25.0 -228.0 -11.0 -40.0C14.0 -38.0 24.0 -27.0 26.0 -11.0L-161.0 2.0ZM-22.0 -140.0 -31.0 -144.0C1.0 -316.0 63.0 -406.0 200.0 -462.0C213.0 -388.0 250.0 -338.0 302.0 -321.0V-310.0C159.0 -300.0 26.0 -243.0 -22.0 -140.0Z"/></g>
<g fill="black" opacity=".8" transform="translate(200 200) scale(0.1 -0.1)"><path d="M0.0 0.0 -8.0 -5.0C15.0 -31.0 42.0 -76.0 44.0 -117.0C152.0 -187.0 255.0 8.0 0.0 0.0ZM-381.0 -142.0 -374.0 -172.0H273.0C288.0 -172.0 300.0 -167.0 302.0 -155.0C263.0 -116.0 197.0 -62.0 197.0 -62.0L139.0 -142.0H-381.0ZM-164.0 5.0C-149.0 -165.0 -182.0 -341.0 -422.0 -446.0L-417.0 -458.0C-100.0 -385.0 -24.0 -229.0 -12.0 -40.0C15.0 -36.0 25.0 -25.0 28.0 -9.0L-164.0 5.0ZM-17.0 -143.0 -27.0 -147.0C2.0 -313.0 61.0 -406.0 200.0 -462.0C212.0 -384.0 250.0 -333.0 305.0 -316.0V-303.0C157.0 -295.0 29.0 -239.0 -17.0 -143.0Z"/></g>
<g fill="red" transform="translate(300 200) scale(0.1 -0.1)"><path d="M0.0 0.0 -9.0 -11.0C30.0 -30.0 83.0 -66.0 108.0 -90.0C159.0 -107.0 175.0 -13.0 0.0 0.0ZM-408.0 -113.0 -400.0 -142.0H247.0C261.0 -142.0 271.0 -137.0 273.0 -127.0C243.0 -99.0 197.0 -64.0 197.0 -64.0L156.0 -113.0H-408.0ZM-119.0 15.0C-111.0 -159.0 -157.0 -288.0 -430.0 -357.0L-424.0 -373.0C-128.0 -310.0 -72.0 -182.0 -68.0 -19.0C-49.0 -17.0 -36.0 -10.0 -34.0 7.0L-119.0 15.0ZM-74.0 -113.0 -91.0 -122.0C-33.0 -257.0 75.0 -336.0 228.0 -375.0C233.0 -350.0 251.0 -334.0 274.0 -330.0V-319.0C118.0 -297.0 -13.0 -226.0 -74.0 -113.0Z"/></g>
<g fill="black" opacity=".8" transform="translate(300 200) scale(0.1 -0.1)"><path d="M0.0 0.0 -8.0 -9.0C28.0 -30.0 80.0 -66.0 102.0 -91.0C149.0 -110.0 165.0 -21.0 0.0 0.0ZM-406.0 -112.0 -399.0 -139.0H243.0C256.0 -139.0 265.0 -134.0 267.0 -124.0C239.0 -99.0 197.0 -65.0 197.0 -65.0L158.0 -112.0H-406.0ZM-116.0 13.0C-111.0 -163.0 -157.0 -289.0 -427.0 -360.0L-421.0 -375.0C-129.0 -310.0 -76.0 -184.0 -68.0 -20.0C-51.0 -18.0 -39.0 -12.0 -37.0 3.0L-116.0 13.0ZM-73.0 -111.0 -89.0 -119.0C-29.0 -261.0 82.0 -338.0 235.0 -376.0C240.0 -353.0 257.0 -338.0 277.0 -333.0L276.0 -324.0C121.0 -303.0 -11.0 -231.0 -73.0 -111.0Z"/></g>
<g fill="red" transform="translate(400 200) scale(0.1 -0.1)"><path d="M0.0 0.0 -7.0 -5.0C13.0 -27.0 37.0 -66.0 41.0 -102.0C142.0 -166.0 236.0 19.0 0.0 0.0ZM-394.0 -120.0 -386.0 -148.0H266.0C280.0 -148.0 291.0 -143.0 293.0 -132.0C257.0 -94.0 193.0 -38.0 193.0 -38.0L137.0 -120.0H-394.0ZM-169.0 21.0C-156.0 -139.0 -190.0 -293.0 -445.0 -385.0L-440.0 -397.0C-111.0 -334.0 -39.0 -195.0 -27.0 -20.0C-3.0 -17.0 8.0 -7.0 10.0 9.0L-169.0 21.0ZM-27.0 -120.0 -37.0 -124.0C-1.0 -274.0 65.0 -351.0 203.0 -398.0C214.0 -325.0 250.0 -276.0 301.0 -260.0V-249.0C159.0 -246.0 23.0 -204.0 -27.0 -120.0Z"/></g>
<g fill="black" opacity=".8" transform="translate(400 200) scale(0.1 -0.1)"><path d="M0.0 0.0 -6.0 -5.0C14.0 -26.0 39.0 -64.0 44.0 -99.0C140.0 -155.0 223.0 20.0 0.0 0.0ZM-403.0 -116.0 -397.0 -142.0H266.0C279.0 -142.0 289.0 -138.0 292.0 -128.0C254.0 -91.0 189.0 -40.0 189.0 -40.0L133.0 -116.0H-403.0ZM-167.0 18.0C-157.0 -139.0 -187.0 -291.0 -436.0 -387.0L-431.0 -398.0C-104.0 -333.0 -40.0 -194.0 -27.0 -21.0C-4.0 -18.0 6.0 -9.0 7.0 6.0L-167.0 18.0ZM-34.0 -117.0 -42.0 -121.0C-4.0 -277.0 69.0 -350.0 203.0 -398.0C215.0 -331.0 249.0 -283.0 297.0 -268.0V-257.0C160.0 -253.0 21.0 -209.0 -34.0 -117.0Z"/></g>
<g fill="red" transform="translate(500 200) scale(0.1 -0.1)"><path d="M0.0 0.0 -9.0 -12.0C32.0 -27.0 84.0 -60.0 105.0 -86.0C159.0 -103.0 168.0 -2.0 0.0 0.0ZM-558.0 -99.0 -549.0 -128.0H337.0C351.0 -128.0 360.0 -124.0 363.0 -113.0C333.0 -84.0 285.0 -47.0 285.0 -47.0L242.0 -99.0H-558.0ZM-136.0 0.0C-148.0 -157.0 -196.0 -263.0 -551.0 -350.0L-542.0 -372.0C-158.0 -291.0 -110.0 -181.0 -90.0 -37.0C-68.0 -35.0 -57.0 -23.0 -55.0 -10.0L-136.0 0.0ZM-85.0 -99.0 -102.0 -109.0C-28.0 -262.0 114.0 -335.0 325.0 -373.0C331.0 -349.0 346.0 -334.0 367.0 -330.0L368.0 -320.0C153.0 -297.0 -9.0 -234.0 -85.0 -99.0Z"/></g>
<g fill="black" opacity=".8" transform="translate(500 200) scale(0.1 -0.1)"><path d="M0.0 0.0 -9.0 -12.0C32.0 -28.0 84.0 -59.0 105.0 -86.0C158.0 -103.0 168.0 -3.0 0.0 0.0ZM-558.0 -99.0 -549.0 -128.0H337.0C350.0 -128.0 359.0 -124.0 363.0 -113.0C333.0 -84.0 285.0 -47.0 285.0 -47.0L242.0 -99.0H-558.0ZM-136.0 1.0C-148.0 -158.0 -196.0 -263.0 -551.0 -349.0L-541.0 -372.0C-158.0 -292.0 -110.0 -181.0 -90.0 -37.0C-68.0 -36.0 -57.0 -23.0 -55.0 -10.0L-136.0 1.0ZM-85.0 -98.0 -102.0 -108.0C-28.0 -262.0 115.0 -335.0 326.0 -373.0C332.0 -349.0 347.0 -335.0 368.0 -330.0V-321.0C153.0 -298.0 -9.0 -234.0 -85.0 -98.0Z"/></g>
<g fill="red" transform="translate(600 200) scale(0.1 -0.1)"><path d="M0.0 0.0 -7.0 -7.0C27.0 -32.0 73.0 -78.0 93.0 -119.0C208.0 -159.0 254.0 48.0 0.0 0.0ZM-564.0 -132.0 -556.0 -160.0H353.0C368.0 -160.0 379.0 -155.0 381.0 -144.0C337.0 -103.0 262.0 -42.0 262.0 -42.0L196.0 -132.0H-564.0ZM-189.0 -3.0C-197.0 -178.0 -226.0 -301.0 -566.0 -409.0L-560.0 -424.0C-113.0 -351.0 -72.0 -222.0 -48.0 -43.0C-24.0 -41.0 -14.0 -30.0 -12.0 -16.0L-189.0 -3.0ZM-61.0 -136.0 -71.0 -143.0C-13.0 -317.0 104.0 -379.0 283.0 -418.0C294.0 -349.0 326.0 -300.0 379.0 -281.0V-269.0C194.0 -271.0 14.0 -252.0 -61.0 -136.0Z"/></g>
<g fill="black" opacity=".8" transform="translate(600 200) scale(0.1 -0.1)"><path d="M0.0 0.0 -7.0 -6.0C27.0 -32.0 73.0 -78.0 92.0 -119.0C207.0 -158.0 253.0 47.0 0.0 0.0ZM-564.0 -131.0 -557.0 -160.0H353.0C368.0 -160.0 379.0 -154.0 381.0 -143.0C337.0 -103.0 261.0 -43.0 261.0 -43.0L195.0 -131.0H-564.0ZM-190.0 -3.0C-198.0 -178.0 -226.0 -301.0 -566.0 -409.0L-560.0 -424.0C-113.0 -350.0 -72.0 -222.0 -48.0 -44.0C-24.0 -41.0 -14.0 -30.0 -12.0 -16.0L-190.0 -3.0ZM-61.0 -137.0 -71.0 -143.0C-14.0 -317.0 105.0 -379.0 283.0 -418.0C293.0 -349.0 326.0 -301.0 379.0 -281.0V-269.0C193.0 -272.0 14.0 -253.0 -61.0 -137.0Z"/></g>
<g fill="red" transform="translate(700 200) scale(0.1 -0.1)"><path d="M0.0 0.0 -13.0 -7.0C18.0 -49.0 58.0 -118.0 65.0 -169.0C112.0 -209.0 155.0 -101.0 0.0 0.0ZM183.0 -221.0 191.0 -251.0H640.0C654.0 -251.0 663.0 -246.0 666.0 -235.0C639.0 -208.0 596.0 -175.0 596.0 -175.0L558.0 -221.0H183.0ZM378.0 -81.0C374.0 -308.0 358.0 -440.0 132.0 -548.0L144.0 -568.0C398.0 -464.0 413.0 -326.0 423.0 -117.0C445.0 -114.0 454.0 -103.0 457.0 -90.0L378.0 -81.0ZM429.0 -221.0 410.0 -227.0C429.0 -339.0 476.0 -485.0 627.0 -568.0C634.0 -544.0 648.0 -540.0 671.0 -538.0L673.0 -526.0C509.0 -448.0 452.0 -327.0 429.0 -221.0Z"/></g>
<g fill="black" opacity=".8" transform="translate(700 200) scale(0.1 -0.1)"><path d="M0.0 0.0 -13.0 -7.0C18.0 -49.0 58.0 -118.0 65.0 -169.0C112.0 -209.0 154.0 -101.0 0.0 0.0ZM183.0 -221.0 191.0 -251.0H641.0C654.0 -251.0 663.0 -246.0 666.0 -235.0C639.0 -208.0 596.0 -176.0 596.0 -176.0L558.0 -221.0H183.0ZM378.0 -81.0C374.0 -309.0 358.0 -440.0 133.0 -548.0L145.0 -567.0C397.0 -465.0 413.0 -326.0 423.0 -117.0C445.0 -114.0 454.0 -102.0 457.0 -90.0L378.0 -81.0ZM429.0 -220.0 410.0 -227.0C429.0 -339.0 476.0 -485.0 627.0 -568.0C634.0 -544.0 649.0 -540.0 672.0 -538.0L673.0 -526.0C509.0 -449.0 452.0 -328.0 429.0 -220.0Z"/></g>
<g fill="red" transform="translate(800 200) scale(0.1 -0.1)"><path d="M0.0 0.0 -10.0 -4.0C11.0 -52.0 31.0 -118.0 30.0 -178.0C125.0 -271.0 252.0 -83.0 0.0 0.0ZM195.0 -244.0 203.0 -272.0H656.0C670.0 -272.0 681.0 -267.0 683.0 -256.0C643.0 -219.0 575.0 -166.0 575.0 -166.0L515.0 -244.0H195.0ZM350.0 -106.0C348.0 -318.0 344.0 -469.0 169.0 -588.0L177.0 -603.0C458.0 -512.0 471.0 -357.0 484.0 -149.0C506.0 -147.0 516.0 -137.0 519.0 -123.0L350.0 -106.0ZM476.0 -244.0 463.0 -247.0C472.0 -369.0 503.0 -538.0 588.0 -604.0C593.0 -517.0 627.0 -480.0 694.0 -461.0L693.0 -449.0C564.0 -413.0 491.0 -336.0 476.0 -244.0Z"/></g>
<g fill="black" opacity=".8" transform="translate(800 200) scale(0.1 -0.1)"><path d="M0.0 0.0 -10.0 -4.0C11.0 -52.0 31.0 -118.0 30.0 -178.0C124.0 -270.0 251.0 -83.0 0.0 0.0ZM196.0 -243.0 202.0 -272.0H655.0C670.0 -272.0 681.0 -267.0 683.0 -255.0C643.0 -219.0 575.0 -166.0 575.0 -166.0L514.0 -243.0H196.0ZM350.0 -105.0C347.0 -318.0 344.0 -469.0 169.0 -588.0L177.0 -603.0C458.0 -512.0 471.0 -357.0 484.0 -150.0C506.0 -146.0 516.0 -136.0 519.0 -123.0L350.0 -105.0ZM475.0 -245.0 463.0 -247.0C472.0 -369.0 503.0 -538.0 588.0 -604.0C593.0 -517.0 627.0 -480.0 694.0 -461.0L693.0 -449.0C563.0 -413.0 492.0 -336.0 475.0 -245.0Z"/></g>
<g fill="red" transform="translate(900 200) scale(0.1 -0.1)"><path d="M0.0 0.0 -11.0 -10.0C9.0 -21.0 31.0 -42.0 41.0 -59.0C75.0 -80.0 103.0 -16.0 0.0 0.0ZM-324.0 -59.0 -316.0 -89.0H187.0C199.0 -89.0 208.0 -84.0 211.0 -73.0C186.0 -48.0 146.0 -17.0 146.0 -17.0L112.0 -59.0H-324.0ZM-97.0 20.0C-102.0 -111.0 -122.0 -182.0 -340.0 -242.0L-330.0 -264.0C-87.0 -209.0 -66.0 -130.0 -55.0 -14.0C-34.0 -12.0 -25.0 -1.0 -23.0 11.0L-97.0 20.0ZM-49.0 -62.0 -66.0 -68.0C-45.0 -143.0 3.0 -225.0 163.0 -266.0C169.0 -243.0 183.0 -239.0 206.0 -238.0L208.0 -226.0C37.0 -190.0 -23.0 -129.0 -49.0 -62.0Z"/></g>
<g fill="black" opacity=".8" transform="translate(900 200) scale(0.1 -0.1)"><path d="M0.0 0.0 -11.0 -10.0C8.0 -22.0 30.0 -42.0 40.0 -59.0C73.0 -81.0 102.0 -18.0 0.0 0.0ZM-324.0 -59.0 -316.0 -89.0H186.0C198.0 -89.0 206.0 -84.0 210.0 -72.0C185.0 -47.0 146.0 -17.0 146.0 -17.0L112.0 -59.0H-324.0ZM-97.0 20.0C-102.0 -113.0 -121.0 -182.0 -340.0 -242.0L-329.0 -264.0C-87.0 -209.0 -67.0 -131.0 -55.0 -15.0C-34.0 -13.0 -26.0 -1.0 -23.0 10.0L-97.0 20.0ZM-49.0 -61.0 -66.0 -67.0C-44.0 -144.0 5.0 -225.0 165.0 -266.0C170.0 -243.0 185.0 -241.0 206.0 -238.0L208.0 -227.0C38.0 -191.0 -23.0 -130.0 -49.0 -61.0Z"/></g>
<g fill="red" transform="translate(1000 200) scale(0.1 -0.1)"><path d="M0.0 0.0 -10.0 -5.0C-1.0 -17.0 7.0 -40.0 6.0 -61.0C65.0 -111.0 147.0 -8.0 0.0 0.0ZM-333.0 -61.0 -325.0 -89.0H160.0C173.0 -89.0 183.0 -84.0 185.0 -73.0C158.0 -43.0 109.0 2.0 109.0 2.0L67.0 -61.0H-333.0ZM-156.0 11.0C-160.0 -96.0 -173.0 -165.0 -337.0 -225.0L-330.0 -242.0C-85.0 -199.0 -58.0 -124.0 -44.0 -25.0C-23.0 -23.0 -14.0 -12.0 -12.0 1.0L-156.0 11.0ZM-46.0 -61.0 -60.0 -66.0C-47.0 -134.0 -7.0 -222.0 93.0 -255.0C96.0 -194.0 120.0 -175.0 170.0 -162.0V-150.0C41.0 -137.0 -27.0 -104.0 -46.0 -61.0Z"/></g>
<g fill="black" opacity=".8" transform="translate(1000 200) scale(0.1 -0.1)"><path d="M0.0 0.0 -10.0 -5.0C-1.0 -17.0 8.0 -39.0 6.0 -60.0C64.0 -109.0 145.0 -9.0 0.0 0.0ZM-334.0 -59.0 -327.0 -88.0H160.0C173.0 -88.0 183.0 -83.0 185.0 -71.0C158.0 -42.0 108.0 2.0 108.0 2.0L66.0 -59.0H-334.0ZM-156.0 11.0C-161.0 -95.0 -172.0 -165.0 -336.0 -225.0L-329.0 -241.0C-85.0 -199.0 -58.0 -125.0 -44.0 -25.0C-23.0 -22.0 -15.0 -12.0 -12.0 0.0L-156.0 11.0ZM-47.0 -61.0 -61.0 -66.0C-48.0 -134.0 -6.0 -221.0 93.0 -255.0C95.0 -196.0 120.0 -177.0 169.0 -164.0V-151.0C41.0 -138.0 -27.0 -105.0 -47.0 -61.0Z"/></g>
<g fill="red" transform="translate(1100 200) scale(0.1 -0.1)"><path d="M0.0 0.0 -9.0 -11.0C33.0 -29.0 86.0 -67.0 107.0 -97.0C159.0 -119.0 173.0 -16.0 0.0 0.0ZM-539.0 -105.0 -530.0 -135.0H342.0C356.0 -135.0 366.0 -130.0 369.0 -119.0C338.0 -90.0 290.0 -53.0 290.0 -53.0L247.0 -105.0H-539.0ZM-127.0 19.0C-137.0 -169.0 -177.0 -277.0 -546.0 -364.0L-537.0 -386.0C-139.0 -305.0 -99.0 -193.0 -81.0 -16.0C-59.0 -14.0 -48.0 -4.0 -46.0 9.0L-127.0 19.0ZM-63.0 -105.0 -81.0 -115.0C-6.0 -266.0 137.0 -345.0 338.0 -387.0C344.0 -365.0 359.0 -350.0 379.0 -347.0L380.0 -337.0C176.0 -309.0 12.0 -238.0 -63.0 -105.0Z"/></g>
<g fill="black" opacity=".8" transform="translate(1100 200) scale(0.1 -0.1)"><path d="M0.0 0.0 -9.0 -11.0C33.0 -30.0 87.0 -67.0 109.0 -96.0C162.0 -119.0 177.0 -13.0 0.0 0.0ZM-540.0 -105.0 -531.0 -137.0H343.0C358.0 -137.0 368.0 -131.0 371.0 -120.0C339.0 -90.0 291.0 -52.0 291.0 -52.0L247.0 -105.0H-540.0ZM-129.0 21.0C-137.0 -169.0 -177.0 -277.0 -547.0 -362.0L-538.0 -385.0C-139.0 -305.0 -97.0 -193.0 -81.0 -15.0C-58.0 -14.0 -47.0 -3.0 -45.0 11.0L-129.0 21.0ZM-64.0 -105.0 -82.0 -115.0C-7.0 -265.0 135.0 -344.0 335.0 -387.0C341.0 -364.0 358.0 -349.0 378.0 -346.0L379.0 -335.0C174.0 -307.0 11.0 -236.0 -64.0 -105.0Z"/></g>
<g fill="red" transform="translate(1200 200) scale(0.1 -0.1)"><path d="M0.0 0.0 -7.0 -6.0C14.0 -25.0 42.0 -61.0 52.0 -93.0C152.0 -141.0 218.0 37.0 0.0 0.0ZM-570.0 -99.0 -562.0 -127.0H349.0C363.0 -127.0 375.0 -122.0 377.0 -111.0C329.0 -68.0 247.0 -6.0 247.0 -6.0L176.0 -99.0H-570.0ZM-205.0 32.0C-212.0 -142.0 -237.0 -266.0 -571.0 -374.0L-566.0 -388.0C-109.0 -319.0 -70.0 -189.0 -46.0 -9.0C-23.0 -6.0 -12.0 5.0 -11.0 19.0L-205.0 32.0ZM-62.0 -99.0 -72.0 -106.0C-10.0 -267.0 110.0 -341.0 277.0 -389.0C290.0 -319.0 323.0 -271.0 377.0 -253.0V-242.0C206.0 -236.0 18.0 -205.0 -62.0 -99.0Z"/></g>
<g fill="black" opacity=".8" transform="translate(1200 200) scale(0.1 -0.1)"><path d="M0.0 0.0 -7.0 -6.0C13.0 -25.0 41.0 -62.0 50.0 -94.0C152.0 -144.0 223.0 36.0 0.0 0.0ZM-566.0 -100.0 -558.0 -129.0H349.0C363.0 -129.0 376.0 -124.0 378.0 -112.0C330.0 -69.0 248.0 -5.0 248.0 -5.0L177.0 -100.0H-566.0ZM-206.0 34.0C-212.0 -142.0 -238.0 -266.0 -575.0 -373.0L-570.0 -388.0C-112.0 -320.0 -69.0 -190.0 -46.0 -9.0C-22.0 -5.0 -11.0 6.0 -10.0 20.0L-206.0 34.0ZM-59.0 -101.0 -70.0 -107.0C-10.0 -266.0 109.0 -341.0 277.0 -389.0C289.0 -317.0 323.0 -269.0 379.0 -250.0V-238.0C205.0 -234.0 19.0 -203.0 -59.0 -101.0Z"/></g>
</svg>
