<?xml version="1.0" encoding="UTF-8"?>
<svg width="1700" height="300" xmlns="http://www.w3.org/2000/svg">
<rect width="100%" height="100%" fill="white"/>
<g fill="green" transform="translate(100 100) scale(0.1 -0.1)"><path d="M0.0 0.0H-215.0V-30.0H0.0ZM-208.0 -15.0H-241.0V-343.0C-241.0 -359.0 -244.0 -364.0 -264.0 -374.0L-234.0 -435.0C-222.0 -430.0 -203.0 -408.0 -211.0 -377.0L-229.0 -393.0L-198.0 -386.0V-21.0ZM-241.0 28.0V-60.0C-213.0 -60.0 -198.0 -60.0 -198.0 -60.0V-1.0H-188.0ZM-76.0 -239.0 -88.0 -247.0C-53.0 -281.0 -10.0 -341.0 -1.0 -386.0C45.0 -421.0 82.0 -318.0 -76.0 -239.0ZM-256.0 -376.0 -228.0 -418.0C-146.0 -378.0 -61.0 -329.0 -20.0 -307.0L-26.0 -292.0C-119.0 -328.0 -213.0 -363.0 -256.0 -376.0ZM93.0 -142.0 81.0 -150.0C111.0 -177.0 141.0 -229.0 141.0 -269.0C189.0 -308.0 233.0 -203.0 93.0 -142.0ZM312.0 21.0 232.0 31.0V-359.0C232.0 -373.0 228.0 -378.0 212.0 -378.0C196.0 -378.0 113.0 -371.0 113.0 -371.0V-388.0C148.0 -392.0 170.0 -398.0 183.0 -405.0C194.0 -413.0 198.0 -426.0 201.0 -439.0C268.0 -431.0 276.0 -404.0 276.0 -363.0V-4.0C299.0 -1.0 309.0 7.0 312.0 21.0ZM317.0 -23.0 283.0 -69.0H35.0L43.0 -99.0H350.0C364.0 -99.0 373.0 -94.0 376.0 -83.0C354.0 -57.0 317.0 -23.0 317.0 -23.0ZM135.0 229.0H91.0V71.0H135.0ZM-28.0 229.0H-72.0V71.0H-28.0ZM260.0 229.0H268.0V38.0H274.0C289.0 38.0 311.0 50.0 312.0 56.0V196.0C328.0 198.0 343.0 205.0 348.0 211.0L287.0 258.0ZM-201.0 47.0V200.0H283.0V229.0H-196.0L-245.0 254.0V33.0H-238.0C-220.0 33.0 -201.0 43.0 -201.0 47.0ZM289.0 87.0H-223.0V57.0H289.0ZM334.0 407.0 277.0 466.0C155.0 433.0 -72.0 399.0 -256.0 388.0L-254.0 368.0C-65.0 369.0 147.0 388.0 288.0 411.0C309.0 400.0 326.0 400.0 334.0 407.0ZM292.0 335.0 217.0 372.0C201.0 336.0 165.0 270.0 135.0 226.0L147.0 218.0C188.0 252.0 234.0 295.0 257.0 322.0C277.0 318.0 289.0 327.0 292.0 335.0ZM-14.0 373.0 -26.0 365.0C1.0 340.0 27.0 292.0 27.0 254.0C72.0 216.0 116.0 315.0 -14.0 373.0ZM-174.0 353.0 -186.0 345.0C-160.0 321.0 -136.0 280.0 -136.0 246.0C-93.0 208.0 -49.0 303.0 -174.0 353.0ZM-34.0 0.0H-24.0V-246.0H-18.0C-3.0 -246.0 19.0 -234.0 20.0 -229.0V-39.0C39.0 -35.0 56.0 -28.0 63.0 -20.0L-4.0 33.0ZM-6.0 -182.0H-218.0V-212.0H-6.0ZM-4.0 -90.0H-216.0V-120.0H-4.0Z"/></g>
<g fill="green" transform="translate(200 100) scale(0.1 -0.1)"><path d="M0.0 0.0H-160.0V-28.0H0.0ZM-145.0 -26.0H-224.0V-279.0C-224.0 -299.0 -229.0 -307.0 -259.0 -326.0L-183.0 -450.0C-158.0 -435.0 -131.0 -390.0 -150.0 -322.0L-201.0 -363.0L-120.0 -334.0V-42.0ZM-224.0 47.0V-60.0C-152.0 -60.0 -120.0 -60.0 -120.0 -60.0V0.0H-107.0ZM-50.0 -228.0 -60.0 -233.0C-37.0 -274.0 -18.0 -335.0 -20.0 -389.0C72.0 -475.0 193.0 -295.0 -50.0 -228.0ZM-247.0 -326.0 -172.0 -433.0C-87.0 -374.0 -17.0 -316.0 17.0 -285.0L14.0 -274.0C-91.0 -297.0 -198.0 -319.0 -247.0 -326.0ZM90.0 -113.0 80.0 -118.0C97.0 -156.0 112.0 -212.0 107.0 -260.0C182.0 -338.0 293.0 -188.0 90.0 -113.0ZM362.0 23.0 215.0 36.0V-312.0C215.0 -322.0 211.0 -326.0 199.0 -326.0C183.0 -326.0 114.0 -321.0 114.0 -321.0V-335.0C151.0 -342.0 166.0 -354.0 178.0 -371.0C189.0 -388.0 192.0 -414.0 194.0 -451.0C311.0 -440.0 327.0 -397.0 327.0 -318.0V-3.0C350.0 0.0 359.0 8.0 362.0 23.0ZM356.0 -10.0 320.0 -68.0H56.0L64.0 -96.0H396.0C408.0 -96.0 417.0 -91.0 419.0 -80.0C396.0 -52.0 356.0 -10.0 356.0 -10.0ZM186.0 219.0H77.0V74.0H186.0ZM25.0 219.0H-84.0V74.0H25.0ZM232.0 231.0H241.0V33.0H261.0C297.0 33.0 355.0 52.0 356.0 59.0V189.0C373.0 191.0 384.0 200.0 389.0 205.0L283.0 285.0ZM-137.0 59.0V203.0H293.0V231.0H-130.0L-245.0 276.0V27.0H-230.0C-187.0 27.0 -137.0 50.0 -137.0 59.0ZM307.0 89.0H-165.0V61.0H307.0ZM374.0 373.0 248.0 508.0C141.0 465.0 -68.0 408.0 -230.0 382.0L-228.0 370.0C-52.0 359.0 164.0 364.0 302.0 379.0C336.0 364.0 361.0 364.0 374.0 373.0ZM347.0 329.0 183.0 395.0C174.0 353.0 146.0 270.0 124.0 214.0L130.0 210.0C195.0 239.0 271.0 286.0 308.0 313.0C330.0 310.0 344.0 319.0 347.0 329.0ZM-25.0 382.0 -33.0 378.0C-18.0 352.0 -9.0 309.0 -16.0 270.0C73.0 180.0 216.0 346.0 -25.0 382.0ZM-186.0 364.0 -194.0 359.0C-179.0 335.0 -167.0 294.0 -173.0 254.0C-80.0 168.0 59.0 339.0 -186.0 364.0ZM-46.0 0.0H-38.0V-217.0H-20.0C16.0 -217.0 69.0 -197.0 70.0 -190.0V-40.0C85.0 -37.0 96.0 -30.0 101.0 -24.0L2.0 50.0ZM5.0 -163.0H-155.0V-191.0H5.0ZM4.0 -80.0H-155.0V-108.0H4.0Z"/></g>
<g fill="green" transform="translate(300 100) scale(0.1 -0.1)"><path d="M0.0 0.0H-211.0V-29.0H0.0ZM-204.0 -15.0H-236.0V-336.0C-236.0 -352.0 -239.0 -357.0 -259.0 -367.0L-229.0 -426.0C-218.0 -422.0 -199.0 -400.0 -207.0 -370.0L-225.0 -385.0L-194.0 -378.0V-21.0ZM-236.0 27.0V-59.0C-209.0 -59.0 -194.0 -59.0 -194.0 -59.0V-1.0H-184.0ZM-74.0 -234.0 -86.0 -242.0C-52.0 -275.0 -10.0 -334.0 -1.0 -378.0C44.0 -413.0 80.0 -312.0 -74.0 -234.0ZM-251.0 -369.0 -224.0 -410.0C-143.0 -371.0 -60.0 -322.0 -20.0 -301.0L-26.0 -286.0C-117.0 -321.0 -209.0 -356.0 -251.0 -369.0ZM91.0 -139.0 80.0 -147.0C109.0 -173.0 138.0 -224.0 138.0 -264.0C186.0 -302.0 229.0 -199.0 91.0 -139.0ZM306.0 21.0 228.0 30.0V-352.0C228.0 -366.0 224.0 -371.0 208.0 -371.0C192.0 -371.0 111.0 -364.0 111.0 -364.0V-380.0C145.0 -384.0 167.0 -390.0 180.0 -397.0C190.0 -405.0 194.0 -418.0 197.0 -430.0C263.0 -422.0 271.0 -396.0 271.0 -356.0V-4.0C293.0 -1.0 303.0 7.0 306.0 21.0ZM311.0 -22.0 278.0 -68.0H34.0L42.0 -97.0H343.0C357.0 -97.0 366.0 -92.0 369.0 -81.0C347.0 -56.0 311.0 -22.0 311.0 -22.0ZM132.0 225.0H89.0V70.0H132.0ZM-27.0 225.0H-71.0V70.0H-27.0ZM255.0 225.0H263.0V37.0H269.0C284.0 37.0 305.0 49.0 306.0 55.0V192.0C322.0 194.0 337.0 201.0 342.0 207.0L282.0 253.0ZM-197.0 46.0V196.0H278.0V225.0H-192.0L-240.0 249.0V32.0H-233.0C-216.0 32.0 -197.0 42.0 -197.0 46.0ZM284.0 85.0H-219.0V56.0H284.0ZM328.0 399.0 272.0 457.0C152.0 425.0 -70.0 391.0 -251.0 381.0L-249.0 361.0C-64.0 362.0 144.0 380.0 283.0 403.0C303.0 392.0 320.0 392.0 328.0 399.0ZM286.0 328.0 213.0 365.0C197.0 329.0 162.0 265.0 133.0 222.0L144.0 214.0C185.0 247.0 230.0 289.0 252.0 316.0C272.0 312.0 284.0 321.0 286.0 328.0ZM-14.0 366.0 -25.0 358.0C1.0 333.0 27.0 286.0 27.0 249.0C71.0 212.0 114.0 309.0 -14.0 366.0ZM-170.0 346.0 -182.0 338.0C-157.0 315.0 -133.0 274.0 -133.0 241.0C-91.0 204.0 -48.0 297.0 -170.0 346.0ZM-33.0 0.0H-23.0V-241.0H-18.0C-3.0 -241.0 19.0 -229.0 20.0 -224.0V-38.0C38.0 -34.0 55.0 -27.0 62.0 -20.0L-4.0 32.0ZM-6.0 -178.0H-214.0V-208.0H-6.0ZM-4.0 -88.0H-212.0V-118.0H-4.0Z"/></g>
<g fill="green" transform="translate(400 100) scale(0.1 -0.1)"><path d="M0.0 0.0H-157.0V-27.0H0.0ZM-142.0 -26.0H-219.0V-273.0C-219.0 -293.0 -224.0 -301.0 -254.0 -320.0L-179.0 -441.0C-155.0 -426.0 -128.0 -382.0 -147.0 -316.0L-197.0 -356.0L-117.0 -327.0V-41.0ZM-219.0 46.0V-59.0C-149.0 -59.0 -117.0 -59.0 -117.0 -59.0V0.0H-105.0ZM-49.0 -224.0 -59.0 -228.0C-36.0 -269.0 -17.0 -329.0 -19.0 -382.0C71.0 -466.0 189.0 -289.0 -49.0 -224.0ZM-242.0 -320.0 -168.0 -424.0C-85.0 -367.0 -17.0 -310.0 17.0 -279.0L14.0 -269.0C-89.0 -291.0 -194.0 -313.0 -242.0 -320.0ZM88.0 -111.0 79.0 -116.0C95.0 -153.0 110.0 -208.0 105.0 -255.0C179.0 -331.0 287.0 -184.0 88.0 -111.0ZM355.0 23.0 211.0 35.0V-306.0C211.0 -316.0 207.0 -320.0 195.0 -320.0C180.0 -320.0 112.0 -315.0 112.0 -315.0V-328.0C148.0 -335.0 163.0 -347.0 175.0 -364.0C186.0 -380.0 188.0 -406.0 190.0 -442.0C305.0 -431.0 321.0 -389.0 321.0 -312.0V-3.0C343.0 0.0 352.0 8.0 355.0 23.0ZM349.0 -10.0 314.0 -67.0H55.0L63.0 -94.0H388.0C400.0 -94.0 409.0 -89.0 411.0 -78.0C388.0 -51.0 349.0 -10.0 349.0 -10.0ZM182.0 215.0H76.0V72.0H182.0ZM24.0 215.0H-82.0V72.0H24.0ZM228.0 226.0H236.0V32.0H256.0C291.0 32.0 348.0 51.0 349.0 58.0V185.0C366.0 187.0 377.0 196.0 382.0 201.0L278.0 279.0ZM-135.0 58.0V199.0H288.0V226.0H-128.0L-240.0 271.0V26.0H-226.0C-184.0 26.0 -135.0 49.0 -135.0 58.0ZM302.0 87.0H-162.0V60.0H302.0ZM367.0 366.0 243.0 498.0C138.0 456.0 -66.0 400.0 -225.0 375.0L-223.0 363.0C-51.0 352.0 161.0 357.0 296.0 372.0C330.0 357.0 354.0 357.0 367.0 366.0ZM340.0 322.0 180.0 387.0C171.0 346.0 143.0 265.0 122.0 210.0L128.0 206.0C191.0 234.0 266.0 280.0 302.0 307.0C324.0 304.0 338.0 313.0 340.0 322.0ZM-25.0 375.0 -33.0 371.0C-18.0 345.0 -9.0 303.0 -16.0 265.0C71.0 176.0 212.0 339.0 -25.0 375.0ZM-183.0 357.0 -190.0 352.0C-176.0 328.0 -164.0 288.0 -170.0 249.0C-79.0 165.0 58.0 332.0 -183.0 357.0ZM-45.0 0.0H-37.0V-213.0H-19.0C16.0 -213.0 68.0 -193.0 69.0 -186.0V-39.0C84.0 -36.0 94.0 -29.0 99.0 -24.0L2.0 49.0ZM5.0 -160.0H-152.0V-187.0H5.0ZM4.0 -78.0H-152.0V-106.0H4.0Z"/></g>
<g fill="green" transform="translate(500 100) scale(0.1 -0.1)"><path d="M0.0 0.0H-216.0V-31.0H0.0ZM-210.0 -20.0H-241.0V-355.0C-241.0 -370.0 -244.0 -374.0 -263.0 -385.0L-235.0 -444.0C-223.0 -439.0 -203.0 -417.0 -213.0 -388.0L-229.0 -402.0L-202.0 -396.0V-26.0ZM-241.0 28.0V-60.0C-215.0 -60.0 -200.0 -60.0 -200.0 -60.0V0.0H-189.0ZM-79.0 -243.0 -92.0 -251.0C-56.0 -286.0 -12.0 -347.0 -3.0 -393.0C44.0 -428.0 81.0 -323.0 -79.0 -243.0ZM-257.0 -387.0 -230.0 -430.0C-148.0 -388.0 -64.0 -338.0 -23.0 -314.0L-28.0 -299.0C-122.0 -337.0 -215.0 -374.0 -257.0 -387.0ZM89.0 -164.0 77.0 -172.0C106.0 -198.0 133.0 -249.0 133.0 -288.0C180.0 -330.0 226.0 -224.0 89.0 -164.0ZM304.0 17.0 222.0 27.0V-370.0C222.0 -384.0 218.0 -389.0 202.0 -389.0C187.0 -389.0 108.0 -383.0 108.0 -383.0V-399.0C142.0 -403.0 163.0 -409.0 175.0 -417.0C186.0 -425.0 190.0 -438.0 191.0 -451.0C259.0 -443.0 267.0 -417.0 267.0 -374.0V-8.0C290.0 -5.0 301.0 3.0 304.0 17.0ZM305.0 -39.0 271.0 -85.0H30.0L38.0 -116.0H339.0C353.0 -116.0 362.0 -111.0 365.0 -100.0C343.0 -73.0 305.0 -39.0 305.0 -39.0ZM129.0 228.0H86.0V60.0H129.0ZM-35.0 228.0H-77.0V60.0H-35.0ZM245.0 228.0H253.0V35.0H260.0C274.0 35.0 296.0 47.0 296.0 54.0V195.0C313.0 197.0 328.0 204.0 334.0 210.0L273.0 257.0ZM-207.0 44.0V199.0H269.0V228.0H-202.0L-249.0 253.0V30.0H-242.0C-225.0 30.0 -207.0 40.0 -207.0 44.0ZM277.0 88.0H-227.0V58.0H277.0ZM315.0 408.0 256.0 468.0C141.0 434.0 -77.0 398.0 -254.0 386.0L-251.0 365.0C-69.0 367.0 134.0 388.0 269.0 412.0C290.0 401.0 307.0 400.0 315.0 408.0ZM288.0 338.0 211.0 376.0C195.0 339.0 159.0 272.0 128.0 227.0L140.0 219.0C182.0 254.0 229.0 298.0 252.0 325.0C272.0 321.0 285.0 330.0 288.0 338.0ZM-22.0 376.0 -34.0 368.0C-6.0 343.0 19.0 295.0 19.0 258.0C64.0 218.0 110.0 318.0 -22.0 376.0ZM-189.0 355.0 -201.0 346.0C-175.0 323.0 -152.0 282.0 -153.0 248.0C-108.0 210.0 -64.0 306.0 -189.0 355.0ZM-35.0 0.0H-25.0V-253.0H-19.0C-4.0 -253.0 17.0 -241.0 18.0 -235.0V-40.0C38.0 -36.0 55.0 -28.0 62.0 -20.0L-6.0 32.0ZM-4.0 -184.0H-216.0V-214.0H-4.0ZM-3.0 -89.0H-214.0V-120.0H-3.0Z"/></g>
<g fill="green" transform="translate(600 100) scale(0.1 -0.1)"><path d="M0.0 0.0H-161.0V-28.0H0.0ZM-145.0 -19.0H-224.0V-294.0C-224.0 -315.0 -228.0 -323.0 -252.0 -340.0L-176.0 -462.0C-151.0 -448.0 -124.0 -403.0 -141.0 -336.0L-193.0 -375.0L-121.0 -349.0V-34.0ZM-224.0 47.0V-61.0C-152.0 -61.0 -121.0 -61.0 -121.0 -61.0V0.0H-107.0ZM-62.0 -231.0 -73.0 -236.0C-50.0 -276.0 -30.0 -336.0 -31.0 -388.0C58.0 -471.0 174.0 -296.0 -62.0 -231.0ZM-243.0 -339.0 -168.0 -446.0C-89.0 -388.0 -23.0 -331.0 8.0 -300.0L5.0 -289.0C-94.0 -311.0 -196.0 -332.0 -243.0 -339.0ZM80.0 -115.0 68.0 -120.0C85.0 -158.0 98.0 -215.0 93.0 -262.0C165.0 -339.0 277.0 -194.0 80.0 -115.0ZM341.0 27.0 194.0 40.0V-328.0C194.0 -338.0 190.0 -342.0 178.0 -342.0C163.0 -342.0 96.0 -337.0 96.0 -337.0V-352.0C132.0 -359.0 147.0 -371.0 158.0 -388.0C169.0 -405.0 171.0 -431.0 174.0 -467.0C290.0 -457.0 306.0 -414.0 306.0 -334.0V1.0C329.0 4.0 338.0 12.0 341.0 27.0ZM339.0 -6.0 304.0 -66.0H67.0L75.0 -94.0H379.0C392.0 -94.0 401.0 -89.0 403.0 -78.0C381.0 -50.0 339.0 -6.0 339.0 -6.0ZM178.0 227.0H74.0V75.0H178.0ZM27.0 227.0H-77.0V75.0H27.0ZM218.0 235.0H227.0V40.0H246.0C282.0 40.0 339.0 59.0 340.0 66.0V193.0C357.0 195.0 368.0 204.0 373.0 210.0L268.0 289.0ZM-122.0 56.0V207.0H262.0V235.0H-115.0L-229.0 280.0V25.0H-214.0C-171.0 25.0 -122.0 48.0 -122.0 56.0ZM263.0 88.0H-161.0V59.0H263.0ZM355.0 381.0 232.0 514.0C129.0 472.0 -71.0 418.0 -227.0 392.0L-224.0 379.0C-55.0 368.0 151.0 373.0 284.0 386.0C317.0 372.0 342.0 372.0 355.0 381.0ZM338.0 344.0 186.0 407.0C176.0 364.0 151.0 276.0 131.0 219.0L138.0 215.0C197.0 248.0 266.0 299.0 299.0 328.0C322.0 325.0 335.0 334.0 338.0 344.0ZM-11.0 378.0 -20.0 373.0C-5.0 348.0 4.0 305.0 -2.0 267.0C83.0 181.0 221.0 339.0 -11.0 378.0ZM-165.0 365.0 -174.0 360.0C-159.0 336.0 -148.0 296.0 -154.0 259.0C-65.0 177.0 69.0 340.0 -165.0 365.0ZM-53.0 0.0H-45.0V-222.0H-27.0C7.0 -222.0 61.0 -203.0 62.0 -196.0V-41.0C77.0 -38.0 88.0 -31.0 92.0 -24.0L-6.0 49.0ZM-10.0 -168.0H-166.0V-196.0H-10.0ZM-12.0 -83.0H-167.0V-112.0H-12.0Z"/></g>
<g fill="green" transform="translate(700 100) scale(0.1 -0.1)"><path d="M0.0 0.0H-208.0V-30.0H0.0ZM-210.0 -13.0H-244.0V-343.0C-244.0 -359.0 -247.0 -365.0 -267.0 -374.0L-236.0 -437.0C-224.0 -432.0 -205.0 -409.0 -213.0 -377.0L-232.0 -394.0L-199.0 -387.0V-19.0ZM-244.0 28.0V-61.0C-215.0 -61.0 -200.0 -61.0 -200.0 -61.0V-1.0H-190.0ZM-83.0 -245.0 -95.0 -253.0C-60.0 -287.0 -17.0 -347.0 -8.0 -393.0C39.0 -428.0 76.0 -324.0 -83.0 -245.0ZM-259.0 -376.0 -230.0 -419.0C-145.0 -380.0 -57.0 -332.0 -14.0 -310.0L-21.0 -293.0C-117.0 -329.0 -214.0 -363.0 -259.0 -376.0ZM77.0 -135.0 65.0 -143.0C96.0 -171.0 128.0 -224.0 129.0 -265.0C178.0 -302.0 221.0 -196.0 77.0 -135.0ZM313.0 22.0 233.0 32.0V-359.0C233.0 -375.0 229.0 -380.0 212.0 -380.0C195.0 -380.0 107.0 -372.0 107.0 -372.0V-390.0C144.0 -394.0 167.0 -400.0 181.0 -407.0C193.0 -415.0 197.0 -428.0 199.0 -441.0C269.0 -433.0 277.0 -405.0 277.0 -363.0V-3.0C300.0 0.0 310.0 8.0 313.0 22.0ZM317.0 -20.0 284.0 -66.0H39.0L48.0 -96.0H351.0C363.0 -96.0 374.0 -91.0 377.0 -80.0C354.0 -54.0 317.0 -20.0 317.0 -20.0ZM131.0 233.0H86.0V72.0H131.0ZM-28.0 233.0H-73.0V72.0H-28.0ZM248.0 233.0H256.0V36.0H262.0C278.0 36.0 300.0 48.0 301.0 54.0V199.0C317.0 201.0 332.0 208.0 337.0 215.0L275.0 262.0ZM-192.0 45.0V203.0H280.0V233.0H-187.0L-237.0 258.0V31.0H-230.0C-211.0 31.0 -192.0 41.0 -192.0 45.0ZM278.0 85.0H-213.0V54.0H278.0ZM315.0 412.0 256.0 471.0C137.0 434.0 -88.0 395.0 -271.0 381.0L-269.0 362.0C-80.0 365.0 130.0 389.0 268.0 415.0C289.0 405.0 306.0 405.0 315.0 412.0ZM281.0 336.0 206.0 373.0C189.0 337.0 153.0 270.0 123.0 226.0L135.0 218.0C176.0 252.0 223.0 296.0 246.0 323.0C266.0 319.0 278.0 328.0 281.0 336.0ZM-16.0 376.0 -28.0 368.0C-1.0 343.0 24.0 296.0 24.0 259.0C69.0 220.0 114.0 319.0 -16.0 376.0ZM-185.0 357.0 -198.0 349.0C-171.0 325.0 -147.0 283.0 -147.0 249.0C-104.0 211.0 -59.0 307.0 -185.0 357.0ZM-43.0 0.0H-33.0V-251.0H-27.0C-11.0 -251.0 11.0 -239.0 12.0 -233.0V-39.0C31.0 -35.0 49.0 -28.0 56.0 -20.0L-13.0 33.0ZM-13.0 -188.0H-222.0V-218.0H-13.0ZM-9.0 -92.0H-219.0V-122.0H-9.0Z"/></g>
<g fill="green" transform="translate(800 100) scale(0.1 -0.1)"><path d="M0.0 0.0H-166.0V-28.0H0.0ZM-162.0 -27.0H-243.0V-271.0C-243.0 -290.0 -248.0 -299.0 -281.0 -318.0L-202.0 -445.0C-177.0 -430.0 -148.0 -383.0 -169.0 -313.0L-221.0 -355.0L-136.0 -325.0V-43.0ZM-243.0 48.0V-60.0C-169.0 -60.0 -136.0 -60.0 -136.0 -60.0V0.0H-122.0ZM-54.0 -226.0 -63.0 -231.0C-42.0 -270.0 -25.0 -326.0 -29.0 -379.0C66.0 -468.0 193.0 -287.0 -54.0 -226.0ZM-270.0 -320.0 -193.0 -431.0C-98.0 -368.0 -23.0 -308.0 15.0 -275.0L13.0 -264.0C-102.0 -290.0 -218.0 -312.0 -270.0 -320.0ZM83.0 -113.0 74.0 -118.0C92.0 -156.0 108.0 -214.0 104.0 -264.0C183.0 -343.0 296.0 -186.0 83.0 -113.0ZM367.0 21.0 217.0 34.0V-299.0C217.0 -309.0 213.0 -313.0 201.0 -313.0C185.0 -313.0 111.0 -308.0 111.0 -308.0V-322.0C150.0 -329.0 166.0 -341.0 179.0 -358.0C190.0 -376.0 193.0 -403.0 195.0 -441.0C316.0 -430.0 333.0 -385.0 333.0 -305.0V-5.0C355.0 -2.0 365.0 6.0 367.0 21.0ZM362.0 -12.0 324.0 -69.0H47.0L55.0 -97.0H402.0C415.0 -97.0 424.0 -92.0 426.0 -81.0C403.0 -53.0 362.0 -12.0 362.0 -12.0ZM198.0 217.0H80.0V85.0H198.0ZM35.0 217.0H-83.0V85.0H35.0ZM234.0 233.0H243.0V40.0H263.0C302.0 40.0 362.0 60.0 363.0 67.0V189.0C380.0 192.0 391.0 200.0 396.0 206.0L286.0 288.0ZM-132.0 68.0V204.0H304.0V233.0H-125.0L-243.0 278.0V36.0H-228.0C-183.0 36.0 -132.0 59.0 -132.0 68.0ZM286.0 95.0H-183.0V67.0H286.0ZM383.0 377.0 250.0 515.0C135.0 468.0 -89.0 406.0 -263.0 378.0V365.0C-72.0 356.0 161.0 364.0 309.0 382.0C344.0 366.0 369.0 367.0 383.0 377.0ZM336.0 326.0 162.0 399.0C153.0 356.0 124.0 271.0 102.0 213.0L107.0 208.0C177.0 237.0 257.0 283.0 296.0 311.0C318.0 307.0 332.0 316.0 336.0 326.0ZM-21.0 390.0 -28.0 386.0C-13.0 358.0 -3.0 312.0 -10.0 271.0C79.0 182.0 216.0 347.0 -21.0 390.0ZM-184.0 376.0 -193.0 371.0C-177.0 343.0 -162.0 299.0 -167.0 257.0C-74.0 170.0 59.0 343.0 -184.0 376.0ZM-59.0 0.0H-51.0V-214.0H-32.0C5.0 -214.0 61.0 -194.0 62.0 -187.0V-40.0C77.0 -37.0 88.0 -30.0 93.0 -24.0L-10.0 52.0ZM16.0 -161.0H-152.0V-189.0H16.0ZM15.0 -78.0H-152.0V-106.0H15.0Z"/></g>
<g fill="red" transform="translate(100 200) scale(0.1 -0.1)"><path d="M0.0 0.0H-214.0V-30.0H0.0ZM-207.0 -19.0H-239.0V-349.0C-239.0 -364.0 -242.0 -368.0 -261.0 -379.0L-233.0 -438.0C-221.0 -433.0 -202.0 -411.0 -210.0 -382.0L-227.0 -397.0L-199.0 -391.0V-25.0ZM-239.0 28.0V-59.0C-212.0 -59.0 -198.0 -59.0 -198.0 -59.0V0.0H-187.0ZM-78.0 -240.0 -90.0 -248.0C-55.0 -282.0 -12.0 -342.0 -3.0 -388.0C44.0 -423.0 81.0 -319.0 -78.0 -240.0ZM-255.0 -381.0 -227.0 -424.0C-146.0 -382.0 -63.0 -333.0 -22.0 -310.0L-27.0 -295.0C-120.0 -332.0 -213.0 -368.0 -255.0 -381.0ZM90.0 -157.0 78.0 -165.0C107.0 -192.0 134.0 -242.0 134.0 -281.0C180.0 -322.0 226.0 -217.0 90.0 -157.0ZM303.0 18.0 223.0 28.0V-364.0C223.0 -378.0 219.0 -383.0 203.0 -383.0C187.0 -383.0 108.0 -377.0 108.0 -377.0V-393.0C142.0 -397.0 163.0 -403.0 175.0 -410.0C186.0 -418.0 190.0 -431.0 192.0 -444.0C259.0 -436.0 267.0 -410.0 267.0 -368.0V-7.0C290.0 -4.0 300.0 4.0 303.0 18.0ZM305.0 -35.0 272.0 -81.0H31.0L39.0 -111.0H339.0C353.0 -111.0 361.0 -106.0 364.0 -95.0C342.0 -69.0 305.0 -35.0 305.0 -35.0ZM129.0 227.0H87.0V62.0H129.0ZM-33.0 227.0H-75.0V62.0H-33.0ZM247.0 227.0H255.0V36.0H261.0C275.0 36.0 297.0 48.0 297.0 54.0V193.0C314.0 195.0 328.0 202.0 334.0 208.0L274.0 255.0ZM-204.0 45.0V197.0H270.0V227.0H-199.0L-246.0 251.0V31.0H-239.0C-222.0 31.0 -204.0 41.0 -204.0 45.0ZM277.0 87.0H-224.0V57.0H277.0ZM317.0 405.0 259.0 463.0C143.0 430.0 -75.0 395.0 -252.0 383.0L-249.0 363.0C-67.0 364.0 136.0 385.0 271.0 408.0C292.0 398.0 309.0 397.0 317.0 405.0ZM286.0 335.0 211.0 372.0C195.0 336.0 159.0 269.0 129.0 225.0L141.0 217.0C182.0 251.0 228.0 294.0 251.0 322.0C271.0 318.0 283.0 327.0 286.0 335.0ZM-20.0 372.0 -32.0 364.0C-5.0 339.0 21.0 292.0 21.0 254.0C66.0 216.0 110.0 315.0 -20.0 372.0ZM-184.0 351.0 -196.0 343.0C-170.0 320.0 -147.0 279.0 -147.0 245.0C-103.0 208.0 -60.0 303.0 -184.0 351.0ZM-34.0 0.0H-24.0V-249.0H-18.0C-4.0 -249.0 17.0 -237.0 18.0 -232.0V-39.0C38.0 -35.0 55.0 -28.0 62.0 -20.0L-5.0 32.0ZM-5.0 -182.0H-215.0V-212.0H-5.0ZM-3.0 -89.0H-213.0V-119.0H-3.0Z"/></g>
<g fill="black" opacity=".8" transform="translate(100 200) scale(0.1 -0.1)"><path d="M0.0 0.0H-214.0V-30.0H0.0ZM-208.0 -19.0H-239.0V-349.0C-239.0 -364.0 -242.0 -369.0 -261.0 -379.0L-233.0 -438.0C-221.0 -433.0 -201.0 -411.0 -211.0 -382.0L-227.0 -396.0L-199.0 -390.0V-25.0ZM-239.0 28.0V-60.0C-213.0 -60.0 -198.0 -60.0 -198.0 -60.0V-0.0H-187.0ZM-77.0 -240.0 -90.0 -248.0C-55.0 -282.0 -12.0 -342.0 -3.0 -388.0C44.0 -423.0 80.0 -319.0 -77.0 -240.0ZM-255.0 -381.0 -228.0 -424.0C-146.0 -383.0 -63.0 -333.0 -22.0 -310.0L-28.0 -295.0C-120.0 -332.0 -213.0 -368.0 -255.0 -381.0ZM89.0 -157.0 78.0 -165.0C106.0 -191.0 134.0 -242.0 134.0 -281.0C181.0 -322.0 226.0 -217.0 89.0 -157.0ZM303.0 18.0 223.0 28.0V-364.0C223.0 -378.0 219.0 -383.0 203.0 -383.0C187.0 -383.0 108.0 -377.0 108.0 -377.0V-393.0C142.0 -397.0 163.0 -403.0 176.0 -411.0C186.0 -419.0 190.0 -432.0 192.0 -444.0C259.0 -436.0 267.0 -410.0 267.0 -368.0V-7.0C289.0 -4.0 300.0 4.0 303.0 18.0ZM305.0 -35.0 272.0 -81.0H31.0L39.0 -111.0H339.0C353.0 -111.0 362.0 -106.0 365.0 -95.0C343.0 -69.0 305.0 -35.0 305.0 -35.0ZM129.0 226.0H86.0V62.0H129.0ZM-33.0 226.0H-75.0V62.0H-33.0ZM246.0 226.0H254.0V35.0H261.0C275.0 35.0 297.0 47.0 297.0 54.0V193.0C314.0 195.0 329.0 202.0 335.0 208.0L274.0 255.0ZM-204.0 44.0V197.0H270.0V226.0H-199.0L-246.0 251.0V30.0H-239.0C-222.0 30.0 -204.0 40.0 -204.0 44.0ZM278.0 87.0H-224.0V57.0H278.0ZM317.0 404.0 259.0 464.0C143.0 430.0 -75.0 395.0 -252.0 383.0L-250.0 363.0C-68.0 364.0 136.0 384.0 271.0 408.0C292.0 397.0 309.0 396.0 317.0 404.0ZM286.0 334.0 211.0 372.0C195.0 335.0 159.0 269.0 129.0 225.0L140.0 217.0C182.0 251.0 228.0 295.0 251.0 322.0C271.0 318.0 284.0 327.0 286.0 334.0ZM-20.0 372.0 -32.0 364.0C-4.0 339.0 21.0 292.0 21.0 255.0C65.0 216.0 111.0 315.0 -20.0 372.0ZM-184.0 351.0 -196.0 343.0C-170.0 320.0 -147.0 279.0 -148.0 245.0C-104.0 208.0 -60.0 303.0 -184.0 351.0ZM-34.0 0.0H-24.0V-249.0H-19.0C-4.0 -249.0 17.0 -237.0 18.0 -231.0V-39.0C38.0 -35.0 55.0 -28.0 62.0 -20.0L-6.0 32.0ZM-4.0 -182.0H-215.0V-212.0H-4.0ZM-3.0 -88.0H-213.0V-119.0H-3.0Z"/></g>
<g fill="red" transform="translate(200 200) scale(0.1 -0.1)"><path d="M0.0 0.0H-160.0V-28.0H0.0ZM-144.0 -21.0H-222.0V-288.0C-222.0 -308.0 -226.0 -316.0 -251.0 -334.0L-176.0 -456.0C-151.0 -441.0 -124.0 -396.0 -142.0 -330.0L-193.0 -369.0L-119.0 -343.0V-36.0ZM-222.0 46.0V-60.0C-151.0 -60.0 -119.0 -60.0 -119.0 -60.0V0.0H-106.0ZM-59.0 -228.0 -69.0 -233.0C-47.0 -273.0 -27.0 -333.0 -28.0 -385.0C61.0 -468.0 177.0 -293.0 -59.0 -228.0ZM-242.0 -333.0 -168.0 -439.0C-88.0 -382.0 -21.0 -324.0 10.0 -294.0L7.0 -283.0C-92.0 -305.0 -195.0 -326.0 -242.0 -333.0ZM81.0 -114.0 70.0 -119.0C87.0 -156.0 100.0 -212.0 95.0 -259.0C168.0 -336.0 278.0 -191.0 81.0 -114.0ZM343.0 26.0 197.0 39.0V-322.0C197.0 -332.0 193.0 -336.0 181.0 -336.0C166.0 -336.0 99.0 -331.0 99.0 -331.0V-345.0C135.0 -352.0 150.0 -364.0 161.0 -381.0C172.0 -398.0 175.0 -424.0 177.0 -459.0C293.0 -449.0 308.0 -407.0 308.0 -328.0V0.0C331.0 3.0 340.0 11.0 343.0 26.0ZM340.0 -7.0 305.0 -66.0H64.0L72.0 -94.0H379.0C392.0 -94.0 401.0 -89.0 403.0 -78.0C381.0 -50.0 340.0 -7.0 340.0 -7.0ZM178.0 223.0H74.0V74.0H178.0ZM26.0 223.0H-78.0V74.0H26.0ZM219.0 232.0H228.0V38.0H248.0C283.0 38.0 340.0 57.0 341.0 64.0V190.0C358.0 193.0 369.0 201.0 374.0 207.0L269.0 285.0ZM-124.0 57.0V204.0H267.0V232.0H-117.0L-231.0 277.0V25.0H-216.0C-173.0 25.0 -124.0 48.0 -124.0 57.0ZM271.0 87.0H-161.0V59.0H271.0ZM357.0 376.0 234.0 508.0C131.0 466.0 -70.0 412.0 -225.0 386.0L-223.0 373.0C-54.0 363.0 153.0 368.0 286.0 381.0C319.0 367.0 344.0 367.0 357.0 376.0ZM337.0 338.0 183.0 401.0C174.0 358.0 149.0 272.0 128.0 216.0L135.0 212.0C195.0 244.0 265.0 293.0 299.0 322.0C321.0 319.0 334.0 328.0 337.0 338.0ZM-14.0 376.0 -23.0 371.0C-8.0 346.0 1.0 303.0 -5.0 265.0C80.0 179.0 218.0 338.0 -14.0 376.0ZM-169.0 361.0 -177.0 356.0C-162.0 333.0 -152.0 293.0 -157.0 256.0C-68.0 173.0 66.0 337.0 -169.0 361.0ZM-51.0 0.0H-43.0V-219.0H-25.0C9.0 -219.0 62.0 -200.0 63.0 -193.0V-40.0C78.0 -37.0 89.0 -30.0 93.0 -24.0L-4.0 49.0ZM-7.0 -165.0H-162.0V-193.0H-7.0ZM-8.0 -82.0H-163.0V-110.0H-8.0Z"/></g>
<g fill="black" opacity=".8" transform="translate(200 200) scale(0.1 -0.1)"><path d="M0.0 0.0H-159.0V-28.0H0.0ZM-144.0 -21.0H-222.0V-288.0C-222.0 -309.0 -226.0 -317.0 -251.0 -334.0L-176.0 -455.0C-151.0 -441.0 -124.0 -396.0 -142.0 -330.0L-193.0 -369.0L-119.0 -342.0V-35.0ZM-222.0 47.0V-60.0C-151.0 -60.0 -119.0 -60.0 -119.0 -60.0V0.0H-106.0ZM-59.0 -229.0 -69.0 -233.0C-46.0 -273.0 -27.0 -333.0 -28.0 -385.0C61.0 -468.0 177.0 -293.0 -59.0 -229.0ZM-242.0 -333.0 -167.0 -439.0C-88.0 -382.0 -22.0 -325.0 10.0 -294.0L7.0 -283.0C-92.0 -305.0 -195.0 -326.0 -242.0 -333.0ZM81.0 -114.0 70.0 -119.0C87.0 -156.0 100.0 -213.0 95.0 -259.0C168.0 -336.0 278.0 -191.0 81.0 -114.0ZM343.0 26.0 197.0 39.0V-322.0C197.0 -332.0 193.0 -336.0 181.0 -336.0C166.0 -336.0 99.0 -331.0 99.0 -331.0V-345.0C135.0 -352.0 150.0 -364.0 161.0 -381.0C172.0 -397.0 174.0 -423.0 177.0 -459.0C292.0 -449.0 308.0 -406.0 308.0 -328.0V0.0C331.0 3.0 340.0 11.0 343.0 26.0ZM340.0 -7.0 305.0 -66.0H64.0L72.0 -94.0H380.0C392.0 -94.0 401.0 -89.0 403.0 -78.0C381.0 -50.0 340.0 -7.0 340.0 -7.0ZM178.0 223.0H74.0V74.0H178.0ZM26.0 223.0H-78.0V74.0H26.0ZM220.0 232.0H228.0V38.0H247.0C283.0 38.0 340.0 57.0 341.0 64.0V190.0C358.0 192.0 369.0 201.0 374.0 207.0L269.0 285.0ZM-125.0 56.0V204.0H267.0V232.0H-118.0L-231.0 277.0V25.0H-216.0C-173.0 25.0 -125.0 48.0 -125.0 56.0ZM271.0 87.0H-161.0V59.0H271.0ZM356.0 376.0 234.0 508.0C131.0 466.0 -69.0 412.0 -226.0 387.0L-223.0 374.0C-54.0 363.0 153.0 368.0 286.0 381.0C319.0 367.0 343.0 367.0 356.0 376.0ZM337.0 337.0 184.0 401.0C174.0 358.0 148.0 272.0 128.0 216.0L135.0 212.0C195.0 244.0 265.0 293.0 298.0 322.0C321.0 319.0 334.0 328.0 337.0 337.0ZM-14.0 376.0 -23.0 371.0C-8.0 346.0 1.0 303.0 -5.0 266.0C80.0 179.0 218.0 338.0 -14.0 376.0ZM-169.0 362.0 -177.0 357.0C-162.0 333.0 -151.0 293.0 -157.0 256.0C-68.0 174.0 66.0 337.0 -169.0 362.0ZM-51.0 0.0H-43.0V-219.0H-25.0C9.0 -219.0 62.0 -200.0 63.0 -193.0V-40.0C78.0 -37.0 89.0 -30.0 93.0 -24.0L-4.0 49.0ZM-6.0 -165.0H-162.0V-193.0H-6.0ZM-8.0 -81.0H-163.0V-110.0H-8.0Z"/></g>
<g fill="red" transform="translate(300 200) scale(0.1 -0.1)"><path d="M0.0 0.0H-210.0V-30.0H0.0ZM-209.0 -14.0H-243.0V-343.0C-243.0 -359.0 -246.0 -364.0 -266.0 -374.0L-236.0 -436.0C-224.0 -431.0 -205.0 -409.0 -212.0 -377.0L-231.0 -394.0L-199.0 -387.0V-20.0ZM-243.0 28.0V-60.0C-214.0 -60.0 -199.0 -60.0 -199.0 -60.0V-1.0H-189.0ZM-81.0 -243.0 -93.0 -251.0C-58.0 -285.0 -15.0 -345.0 -6.0 -391.0C41.0 -426.0 78.0 -322.0 -81.0 -243.0ZM-258.0 -376.0 -229.0 -419.0C-145.0 -379.0 -58.0 -331.0 -16.0 -309.0L-22.0 -293.0C-117.0 -329.0 -214.0 -363.0 -258.0 -376.0ZM82.0 -137.0 70.0 -145.0C101.0 -173.0 132.0 -225.0 133.0 -266.0C181.0 -304.0 225.0 -198.0 82.0 -137.0ZM313.0 22.0 233.0 32.0V-359.0C233.0 -374.0 229.0 -379.0 212.0 -379.0C195.0 -379.0 109.0 -372.0 109.0 -372.0V-389.0C145.0 -393.0 168.0 -399.0 181.0 -406.0C193.0 -414.0 197.0 -427.0 200.0 -440.0C269.0 -432.0 277.0 -405.0 277.0 -363.0V-3.0C300.0 0.0 310.0 8.0 313.0 22.0ZM317.0 -21.0 284.0 -67.0H38.0L46.0 -97.0H351.0C364.0 -97.0 373.0 -92.0 376.0 -81.0C354.0 -55.0 317.0 -21.0 317.0 -21.0ZM132.0 232.0H88.0V72.0H132.0ZM-28.0 232.0H-72.0V72.0H-28.0ZM252.0 232.0H260.0V37.0H266.0C281.0 37.0 303.0 49.0 304.0 55.0V198.0C320.0 200.0 335.0 207.0 340.0 213.0L279.0 261.0ZM-195.0 46.0V202.0H281.0V232.0H-190.0L-239.0 257.0V32.0H-232.0C-214.0 32.0 -195.0 42.0 -195.0 46.0ZM281.0 85.0H-216.0V55.0H281.0ZM321.0 411.0 262.0 469.0C142.0 434.0 -83.0 396.0 -267.0 383.0L-264.0 364.0C-75.0 366.0 135.0 389.0 274.0 414.0C295.0 404.0 312.0 404.0 321.0 411.0ZM284.0 336.0 209.0 373.0C193.0 337.0 157.0 270.0 127.0 226.0L139.0 218.0C180.0 252.0 226.0 295.0 249.0 323.0C269.0 319.0 281.0 328.0 284.0 336.0ZM-16.0 375.0 -28.0 367.0C-1.0 342.0 25.0 295.0 25.0 257.0C70.0 219.0 114.0 318.0 -16.0 375.0ZM-182.0 356.0 -194.0 348.0C-168.0 324.0 -144.0 282.0 -143.0 248.0C-100.0 210.0 -56.0 306.0 -182.0 356.0ZM-40.0 0.0H-30.0V-249.0H-24.0C-9.0 -249.0 13.0 -237.0 14.0 -232.0V-39.0C33.0 -35.0 51.0 -28.0 58.0 -20.0L-10.0 33.0ZM-11.0 -186.0H-221.0V-216.0H-11.0ZM-8.0 -92.0H-218.0V-122.0H-8.0Z"/></g>
<g fill="black" opacity=".8" transform="translate(300 200) scale(0.1 -0.1)"><path d="M0.0 0.0H-210.0V-30.0H0.0ZM-209.0 -14.0H-243.0V-343.0C-243.0 -359.0 -246.0 -365.0 -266.0 -374.0L-235.0 -436.0C-223.0 -431.0 -204.0 -409.0 -212.0 -377.0L-231.0 -394.0L-199.0 -387.0V-20.0ZM-243.0 28.0V-61.0C-214.0 -61.0 -199.0 -61.0 -199.0 -61.0V-1.0H-189.0ZM-81.0 -243.0 -93.0 -251.0C-58.0 -285.0 -15.0 -345.0 -6.0 -391.0C41.0 -426.0 78.0 -322.0 -81.0 -243.0ZM-258.0 -376.0 -229.0 -419.0C-145.0 -379.0 -58.0 -331.0 -16.0 -309.0L-22.0 -293.0C-118.0 -329.0 -214.0 -363.0 -258.0 -376.0ZM82.0 -137.0 70.0 -145.0C100.0 -173.0 132.0 -225.0 133.0 -266.0C181.0 -304.0 225.0 -198.0 82.0 -137.0ZM313.0 22.0 233.0 32.0V-359.0C233.0 -374.0 229.0 -379.0 212.0 -379.0C195.0 -379.0 109.0 -372.0 109.0 -372.0V-389.0C145.0 -393.0 168.0 -399.0 182.0 -406.0C193.0 -414.0 197.0 -427.0 200.0 -440.0C269.0 -432.0 277.0 -405.0 277.0 -363.0V-3.0C300.0 -0.0 310.0 8.0 313.0 22.0ZM317.0 -21.0 284.0 -67.0H38.0L47.0 -97.0H351.0C363.0 -97.0 374.0 -92.0 377.0 -81.0C354.0 -55.0 317.0 -21.0 317.0 -21.0ZM132.0 232.0H87.0V72.0H132.0ZM-28.0 232.0H-73.0V72.0H-28.0ZM252.0 232.0H260.0V37.0H266.0C281.0 37.0 303.0 49.0 304.0 55.0V198.0C320.0 200.0 335.0 207.0 340.0 214.0L279.0 261.0ZM-195.0 46.0V202.0H281.0V232.0H-190.0L-239.0 257.0V32.0H-232.0C-214.0 32.0 -195.0 42.0 -195.0 46.0ZM281.0 86.0H-216.0V55.0H281.0ZM321.0 411.0 262.0 470.0C142.0 434.0 -83.0 396.0 -267.0 383.0L-265.0 364.0C-76.0 366.0 135.0 389.0 274.0 414.0C295.0 404.0 312.0 404.0 321.0 411.0ZM284.0 336.0 209.0 373.0C193.0 337.0 157.0 270.0 127.0 226.0L139.0 218.0C180.0 252.0 226.0 296.0 249.0 323.0C269.0 319.0 281.0 328.0 284.0 336.0ZM-15.0 375.0 -27.0 367.0C-0.0 342.0 25.0 295.0 25.0 258.0C70.0 219.0 115.0 318.0 -15.0 375.0ZM-182.0 356.0 -194.0 348.0C-168.0 324.0 -144.0 282.0 -144.0 248.0C-101.0 210.0 -56.0 306.0 -182.0 356.0ZM-40.0 0.0H-30.0V-250.0H-24.0C-9.0 -250.0 13.0 -238.0 14.0 -232.0V-39.0C33.0 -35.0 51.0 -28.0 58.0 -20.0L-10.0 33.0ZM-11.0 -186.0H-221.0V-216.0H-11.0ZM-8.0 -91.0H-218.0V-121.0H-8.0Z"/></g>
<g fill="red" transform="translate(400 200) scale(0.1 -0.1)"><path d="M0.0 0.0H-165.0V-28.0H0.0ZM-157.0 -27.0H-237.0V-273.0C-237.0 -292.0 -242.0 -301.0 -274.0 -321.0L-196.0 -447.0C-171.0 -431.0 -143.0 -385.0 -163.0 -316.0L-215.0 -357.0L-131.0 -328.0V-43.0ZM-237.0 47.0V-60.0C-164.0 -60.0 -131.0 -60.0 -131.0 -60.0V0.0H-118.0ZM-53.0 -226.0 -62.0 -231.0C-41.0 -271.0 -23.0 -329.0 -26.0 -382.0C68.0 -470.0 193.0 -289.0 -53.0 -226.0ZM-263.0 -322.0 -187.0 -431.0C-95.0 -370.0 -21.0 -310.0 16.0 -278.0L13.0 -267.0C-99.0 -292.0 -212.0 -314.0 -263.0 -322.0ZM85.0 -113.0 75.0 -118.0C93.0 -156.0 109.0 -213.0 105.0 -263.0C183.0 -342.0 295.0 -186.0 85.0 -113.0ZM365.0 22.0 216.0 35.0V-303.0C216.0 -313.0 212.0 -317.0 200.0 -317.0C184.0 -317.0 112.0 -312.0 112.0 -312.0V-326.0C150.0 -333.0 166.0 -345.0 178.0 -362.0C189.0 -380.0 193.0 -407.0 194.0 -444.0C315.0 -433.0 331.0 -389.0 331.0 -309.0V-4.0C353.0 -1.0 363.0 7.0 365.0 22.0ZM360.0 -12.0 323.0 -69.0H50.0L58.0 -97.0H400.0C413.0 -97.0 422.0 -92.0 424.0 -81.0C401.0 -53.0 360.0 -12.0 360.0 -12.0ZM194.0 217.0H79.0V81.0H194.0ZM32.0 217.0H-83.0V81.0H32.0ZM233.0 232.0H242.0V38.0H263.0C300.0 38.0 360.0 58.0 361.0 65.0V189.0C378.0 192.0 389.0 200.0 394.0 206.0L285.0 287.0ZM-133.0 66.0V204.0H301.0V232.0H-126.0L-244.0 278.0V33.0H-229.0C-184.0 33.0 -133.0 56.0 -133.0 66.0ZM292.0 93.0H-178.0V65.0H292.0ZM381.0 376.0 250.0 513.0C137.0 467.0 -83.0 407.0 -253.0 379.0L-252.0 366.0C-66.0 357.0 162.0 364.0 307.0 381.0C342.0 366.0 367.0 366.0 381.0 376.0ZM339.0 327.0 168.0 398.0C159.0 355.0 131.0 270.0 108.0 213.0L114.0 209.0C182.0 238.0 261.0 284.0 300.0 312.0C322.0 308.0 335.0 317.0 339.0 327.0ZM-22.0 388.0 -30.0 384.0C-15.0 356.0 -5.0 311.0 -12.0 270.0C77.0 181.0 216.0 347.0 -22.0 388.0ZM-185.0 372.0 -193.0 367.0C-177.0 341.0 -164.0 297.0 -169.0 256.0C-76.0 169.0 59.0 342.0 -185.0 372.0ZM-55.0 0.0H-47.0V-215.0H-28.0C8.0 -215.0 63.0 -195.0 64.0 -188.0V-40.0C79.0 -37.0 90.0 -30.0 95.0 -24.0L-7.0 51.0ZM12.0 -161.0H-153.0V-189.0H12.0ZM12.0 -79.0H-153.0V-107.0H12.0Z"/></g>
<g fill="black" opacity=".8" transform="translate(400 200) scale(0.1 -0.1)"><path d="M0.0 0.0H-164.0V-28.0H0.0ZM-157.0 -27.0H-237.0V-273.0C-237.0 -293.0 -242.0 -301.0 -274.0 -320.0L-196.0 -446.0C-171.0 -431.0 -143.0 -385.0 -163.0 -316.0L-215.0 -357.0L-131.0 -328.0V-43.0ZM-237.0 48.0V-60.0C-164.0 -60.0 -131.0 -60.0 -131.0 -60.0V0.0H-118.0ZM-53.0 -227.0 -62.0 -232.0C-41.0 -271.0 -23.0 -329.0 -26.0 -382.0C68.0 -470.0 193.0 -289.0 -53.0 -227.0ZM-263.0 -322.0 -187.0 -432.0C-95.0 -370.0 -21.0 -310.0 16.0 -278.0L13.0 -267.0C-99.0 -292.0 -212.0 -314.0 -263.0 -322.0ZM85.0 -113.0 76.0 -118.0C93.0 -156.0 109.0 -213.0 105.0 -263.0C183.0 -342.0 295.0 -187.0 85.0 -113.0ZM366.0 22.0 216.0 35.0V-303.0C216.0 -313.0 212.0 -317.0 200.0 -317.0C184.0 -317.0 112.0 -312.0 112.0 -312.0V-326.0C150.0 -333.0 166.0 -345.0 179.0 -362.0C190.0 -380.0 193.0 -406.0 195.0 -444.0C315.0 -433.0 331.0 -389.0 331.0 -309.0V-4.0C354.0 -1.0 363.0 7.0 366.0 22.0ZM360.0 -11.0 323.0 -69.0H50.0L58.0 -97.0H400.0C413.0 -97.0 422.0 -92.0 424.0 -81.0C401.0 -53.0 360.0 -11.0 360.0 -11.0ZM194.0 218.0H79.0V82.0H194.0ZM32.0 218.0H-83.0V82.0H32.0ZM233.0 232.0H242.0V38.0H262.0C301.0 38.0 360.0 58.0 361.0 65.0V189.0C378.0 192.0 389.0 200.0 394.0 206.0L285.0 287.0ZM-133.0 65.0V204.0H301.0V232.0H-126.0L-244.0 277.0V33.0H-229.0C-184.0 33.0 -133.0 56.0 -133.0 65.0ZM292.0 93.0H-178.0V65.0H292.0ZM380.0 376.0 249.0 513.0C137.0 467.0 -83.0 407.0 -253.0 379.0V366.0C-66.0 357.0 162.0 364.0 307.0 381.0C342.0 365.0 367.0 366.0 380.0 376.0ZM339.0 327.0 168.0 398.0C159.0 355.0 131.0 271.0 109.0 213.0L114.0 209.0C182.0 238.0 261.0 284.0 300.0 312.0C322.0 308.0 336.0 317.0 339.0 327.0ZM-22.0 388.0 -29.0 384.0C-14.0 356.0 -5.0 311.0 -12.0 271.0C77.0 181.0 216.0 347.0 -22.0 388.0ZM-185.0 372.0 -193.0 367.0C-178.0 341.0 -163.0 298.0 -169.0 256.0C-76.0 169.0 59.0 342.0 -185.0 372.0ZM-55.0 0.0H-47.0V-215.0H-28.0C8.0 -215.0 63.0 -195.0 64.0 -188.0V-40.0C79.0 -37.0 90.0 -30.0 95.0 -24.0L-6.0 51.0ZM13.0 -162.0H-153.0V-190.0H13.0ZM12.0 -79.0H-153.0V-107.0H12.0Z"/></g>
<g fill="red" transform="translate(500 200) scale(0.1 -0.1)"><path d="M0.0 0.0H-205.0V-30.0H0.0ZM-207.0 -18.0H-239.0V-348.0C-239.0 -363.0 -242.0 -367.0 -261.0 -378.0L-233.0 -437.0C-221.0 -432.0 -202.0 -410.0 -210.0 -381.0L-227.0 -396.0L-199.0 -390.0V-24.0ZM-239.0 28.0V-59.0C-212.0 -59.0 -198.0 -59.0 -198.0 -59.0V0.0H-187.0ZM-85.0 -244.0 -97.0 -252.0C-62.0 -286.0 -19.0 -346.0 -10.0 -392.0C37.0 -427.0 74.0 -323.0 -85.0 -244.0ZM-255.0 -380.0 -227.0 -423.0C-144.0 -382.0 -59.0 -334.0 -17.0 -311.0L-22.0 -295.0C-117.0 -332.0 -212.0 -367.0 -255.0 -380.0ZM72.0 -154.0 60.0 -162.0C90.0 -189.0 118.0 -239.0 119.0 -278.0C165.0 -318.0 210.0 -213.0 72.0 -154.0ZM299.0 18.0 219.0 28.0V-363.0C219.0 -378.0 215.0 -383.0 198.0 -383.0C182.0 -383.0 100.0 -377.0 100.0 -377.0V-393.0C135.0 -397.0 157.0 -403.0 169.0 -410.0C181.0 -418.0 185.0 -431.0 186.0 -444.0C255.0 -436.0 263.0 -410.0 263.0 -367.0V-7.0C286.0 -4.0 296.0 4.0 299.0 18.0ZM299.0 -35.0 267.0 -81.0H34.0L42.0 -111.0H334.0C346.0 -111.0 355.0 -106.0 358.0 -95.0C336.0 -69.0 299.0 -35.0 299.0 -35.0ZM122.0 228.0H80.0V60.0H122.0ZM-34.0 228.0H-76.0V60.0H-34.0ZM229.0 228.0H237.0V33.0H243.0C257.0 33.0 279.0 45.0 279.0 51.0V194.0C296.0 196.0 310.0 203.0 316.0 209.0L256.0 256.0ZM-194.0 42.0V198.0H261.0V228.0H-189.0L-236.0 252.0V28.0H-229.0C-212.0 28.0 -194.0 38.0 -194.0 42.0ZM260.0 84.0H-213.0V54.0H260.0ZM290.0 406.0 230.0 463.0C120.0 427.0 -91.0 386.0 -264.0 371.0L-260.0 352.0C-82.0 356.0 114.0 382.0 244.0 408.0C264.0 399.0 281.0 398.0 290.0 406.0ZM271.0 333.0 196.0 370.0C180.0 334.0 144.0 267.0 114.0 223.0L126.0 215.0C167.0 249.0 213.0 292.0 236.0 320.0C256.0 316.0 268.0 325.0 271.0 333.0ZM-24.0 372.0 -36.0 364.0C-9.0 339.0 16.0 293.0 16.0 257.0C60.0 218.0 105.0 316.0 -24.0 372.0ZM-197.0 352.0 -209.0 344.0C-183.0 321.0 -160.0 280.0 -160.0 246.0C-116.0 209.0 -73.0 304.0 -197.0 352.0ZM-43.0 0.0H-33.0V-253.0H-27.0C-12.0 -253.0 8.0 -241.0 9.0 -235.0V-39.0C29.0 -35.0 47.0 -28.0 54.0 -20.0L-14.0 32.0ZM-11.0 -186.0H-216.0V-216.0H-11.0ZM-8.0 -90.0H-213.0V-120.0H-8.0Z"/></g>
<g fill="black" opacity=".8" transform="translate(500 200) scale(0.1 -0.1)"><path d="M0.0 0.0H-205.0V-30.0H0.0ZM-208.0 -18.0H-239.0V-348.0C-239.0 -363.0 -242.0 -368.0 -261.0 -378.0L-232.0 -437.0C-221.0 -433.0 -201.0 -410.0 -211.0 -381.0L-228.0 -395.0L-199.0 -389.0V-24.0ZM-239.0 27.0V-60.0C-213.0 -60.0 -198.0 -60.0 -198.0 -60.0V0.0H-187.0ZM-84.0 -244.0 -97.0 -252.0C-62.0 -286.0 -19.0 -346.0 -10.0 -392.0C37.0 -427.0 73.0 -323.0 -84.0 -244.0ZM-255.0 -380.0 -228.0 -423.0C-144.0 -383.0 -59.0 -334.0 -17.0 -311.0L-23.0 -294.0C-118.0 -331.0 -212.0 -367.0 -255.0 -380.0ZM71.0 -154.0 60.0 -162.0C89.0 -188.0 117.0 -239.0 118.0 -279.0C166.0 -318.0 210.0 -213.0 71.0 -154.0ZM299.0 18.0 219.0 27.0V-363.0C219.0 -379.0 215.0 -384.0 198.0 -384.0C182.0 -384.0 100.0 -377.0 100.0 -377.0V-393.0C135.0 -397.0 157.0 -403.0 170.0 -411.0C181.0 -419.0 185.0 -432.0 185.0 -444.0C255.0 -436.0 263.0 -410.0 263.0 -367.0V-7.0C285.0 -4.0 296.0 4.0 299.0 18.0ZM299.0 -35.0 267.0 -81.0H33.0L42.0 -111.0H333.0C345.0 -111.0 356.0 -106.0 359.0 -95.0C336.0 -69.0 299.0 -35.0 299.0 -35.0ZM122.0 228.0H79.0V60.0H122.0ZM-34.0 228.0H-77.0V60.0H-34.0ZM228.0 228.0H236.0V32.0H243.0C258.0 32.0 279.0 44.0 279.0 51.0V194.0C296.0 196.0 311.0 203.0 317.0 210.0L256.0 256.0ZM-194.0 41.0V198.0H261.0V228.0H-189.0L-236.0 252.0V27.0H-229.0C-212.0 27.0 -194.0 37.0 -194.0 41.0ZM261.0 84.0H-213.0V54.0H261.0ZM290.0 405.0 230.0 464.0C120.0 427.0 -91.0 386.0 -264.0 372.0L-261.0 352.0C-83.0 356.0 114.0 381.0 244.0 408.0C264.0 398.0 281.0 397.0 290.0 405.0ZM271.0 332.0 196.0 370.0C179.0 333.0 144.0 267.0 114.0 223.0L125.0 215.0C167.0 249.0 214.0 293.0 236.0 320.0C256.0 316.0 269.0 325.0 271.0 332.0ZM-24.0 372.0 -35.0 364.0C-8.0 339.0 16.0 293.0 16.0 258.0C60.0 218.0 106.0 316.0 -24.0 372.0ZM-196.0 352.0 -209.0 343.0C-183.0 321.0 -160.0 279.0 -161.0 246.0C-117.0 209.0 -73.0 304.0 -196.0 352.0ZM-43.0 0.0H-33.0V-253.0H-28.0C-12.0 -253.0 9.0 -241.0 10.0 -234.0V-39.0C29.0 -35.0 47.0 -27.0 54.0 -20.0L-15.0 31.0ZM-11.0 -186.0H-216.0V-216.0H-11.0ZM-8.0 -89.0H-213.0V-120.0H-8.0Z"/></g>
<g fill="red" transform="translate(600 200) scale(0.1 -0.1)"><path d="M0.0 0.0H-165.0V-28.0H0.0ZM-159.0 -20.0H-238.0V-280.0C-238.0 -299.0 -242.0 -308.0 -268.0 -326.0L-191.0 -449.0C-166.0 -434.0 -138.0 -388.0 -157.0 -321.0L-209.0 -360.0L-134.0 -334.0V-35.0ZM-238.0 46.0V-60.0C-166.0 -60.0 -134.0 -60.0 -134.0 -60.0V0.0H-120.0ZM-65.0 -224.0 -74.0 -229.0C-55.0 -266.0 -37.0 -321.0 -39.0 -371.0C51.0 -455.0 171.0 -282.0 -65.0 -224.0ZM-261.0 -327.0 -186.0 -435.0C-99.0 -375.0 -28.0 -316.0 6.0 -285.0L4.0 -274.0C-103.0 -298.0 -212.0 -319.0 -261.0 -327.0ZM71.0 -113.0 60.0 -118.0C78.0 -155.0 92.0 -212.0 88.0 -261.0C163.0 -338.0 274.0 -188.0 71.0 -113.0ZM339.0 25.0 192.0 38.0V-309.0C192.0 -319.0 188.0 -323.0 176.0 -323.0C161.0 -323.0 91.0 -318.0 91.0 -318.0V-332.0C128.0 -339.0 144.0 -351.0 155.0 -368.0C166.0 -386.0 169.0 -413.0 171.0 -448.0C290.0 -438.0 305.0 -395.0 305.0 -315.0V-1.0C327.0 2.0 337.0 10.0 339.0 25.0ZM338.0 -8.0 302.0 -66.0H57.0L65.0 -94.0H377.0C391.0 -94.0 400.0 -89.0 402.0 -78.0C380.0 -50.0 338.0 -8.0 338.0 -8.0ZM186.0 220.0H76.0V84.0H186.0ZM36.0 220.0H-74.0V84.0H36.0ZM215.0 232.0H224.0V46.0H244.0C281.0 46.0 339.0 66.0 340.0 73.0V189.0C357.0 193.0 368.0 200.0 373.0 207.0L266.0 286.0ZM-114.0 65.0V204.0H268.0V232.0H-107.0L-223.0 277.0V33.0H-208.0C-163.0 33.0 -114.0 56.0 -114.0 65.0ZM237.0 92.0H-176.0V64.0H237.0ZM358.0 378.0 230.0 511.0C121.0 466.0 -91.0 408.0 -255.0 380.0L-254.0 366.0C-74.0 358.0 145.0 366.0 285.0 382.0C319.0 367.0 344.0 368.0 358.0 378.0ZM320.0 335.0 161.0 403.0C152.0 360.0 127.0 271.0 106.0 214.0L113.0 209.0C175.0 242.0 247.0 290.0 282.0 320.0C304.0 316.0 316.0 325.0 320.0 335.0ZM-6.0 379.0 -15.0 374.0C0.0 347.0 10.0 302.0 4.0 262.0C87.0 179.0 217.0 334.0 -6.0 379.0ZM-160.0 369.0 -169.0 364.0C-153.0 338.0 -141.0 295.0 -145.0 257.0C-58.0 175.0 68.0 337.0 -160.0 369.0ZM-65.0 0.0H-57.0V-215.0H-38.0C-4.0 -215.0 51.0 -196.0 52.0 -189.0V-40.0C67.0 -37.0 78.0 -30.0 82.0 -24.0L-18.0 50.0ZM0.0 -162.0H-160.0V-190.0H0.0ZM-1.0 -80.0H-161.0V-108.0H-1.0Z"/></g>
<g fill="black" opacity=".8" transform="translate(600 200) scale(0.1 -0.1)"><path d="M0.0 0.0H-164.0V-27.0H0.0ZM-159.0 -20.0H-238.0V-280.0C-238.0 -300.0 -242.0 -309.0 -269.0 -326.0L-191.0 -448.0C-167.0 -434.0 -138.0 -388.0 -157.0 -321.0L-209.0 -360.0L-134.0 -333.0V-34.0ZM-238.0 47.0V-60.0C-166.0 -60.0 -134.0 -60.0 -134.0 -60.0V0.0H-120.0ZM-65.0 -225.0 -75.0 -229.0C-54.0 -267.0 -36.0 -321.0 -39.0 -371.0C51.0 -455.0 170.0 -282.0 -65.0 -225.0ZM-261.0 -327.0 -185.0 -435.0C-98.0 -375.0 -29.0 -317.0 6.0 -284.0L4.0 -274.0C-103.0 -298.0 -212.0 -319.0 -261.0 -327.0ZM71.0 -113.0 61.0 -118.0C78.0 -155.0 92.0 -213.0 88.0 -261.0C163.0 -337.0 274.0 -188.0 71.0 -113.0ZM339.0 25.0 192.0 37.0V-309.0C192.0 -319.0 188.0 -323.0 176.0 -323.0C162.0 -323.0 91.0 -318.0 91.0 -318.0V-332.0C128.0 -339.0 144.0 -351.0 156.0 -368.0C167.0 -385.0 168.0 -412.0 171.0 -448.0C289.0 -438.0 306.0 -394.0 306.0 -315.0V-1.0C327.0 2.0 337.0 10.0 339.0 25.0ZM338.0 -8.0 302.0 -66.0H57.0L65.0 -93.0H377.0C391.0 -93.0 400.0 -88.0 402.0 -77.0C380.0 -50.0 338.0 -8.0 338.0 -8.0ZM186.0 221.0H76.0V84.0H186.0ZM36.0 221.0H-74.0V84.0H36.0ZM216.0 232.0H224.0V46.0H243.0C281.0 46.0 339.0 66.0 340.0 73.0V189.0C357.0 192.0 368.0 200.0 373.0 207.0L266.0 286.0ZM-115.0 64.0V204.0H268.0V232.0H-108.0L-222.0 277.0V33.0H-208.0C-164.0 33.0 -115.0 56.0 -115.0 64.0ZM237.0 92.0H-176.0V64.0H237.0ZM357.0 378.0 229.0 511.0C120.0 466.0 -90.0 408.0 -255.0 381.0L-254.0 367.0C-74.0 358.0 145.0 366.0 285.0 382.0C319.0 367.0 343.0 368.0 357.0 378.0ZM320.0 334.0 162.0 403.0C152.0 360.0 126.0 272.0 107.0 214.0L113.0 209.0C175.0 241.0 247.0 290.0 281.0 320.0C304.0 316.0 317.0 325.0 320.0 334.0ZM-7.0 379.0 -15.0 374.0C0.0 347.0 10.0 302.0 4.0 263.0C87.0 179.0 217.0 333.0 -7.0 379.0ZM-160.0 370.0 -169.0 365.0C-154.0 337.0 -140.0 295.0 -145.0 257.0C-58.0 176.0 68.0 337.0 -160.0 370.0ZM-65.0 0.0H-57.0V-215.0H-38.0C-4.0 -215.0 52.0 -196.0 53.0 -189.0V-40.0C68.0 -37.0 78.0 -30.0 82.0 -24.0L-18.0 50.0ZM1.0 -163.0H-160.0V-190.0H1.0ZM-1.0 -79.0H-161.0V-108.0H-1.0Z"/></g>
</svg>
