<?xml version="1.0" encoding="UTF-8"?>
<svg width="1700" height="300" xmlns="http://www.w3.org/2000/svg">
<rect width="100%" height="100%" fill="white"/>
<g fill="green" transform="translate(100 100) scale(0.1 -0.1)"><path d="M0.0 0.0 11.0 -41.0H322.0C341.0 -41.0 354.0 -34.0 358.0 -19.0C321.0 18.0 264.0 65.0 264.0 65.0L213.0 0.0ZM134.0 355.0V-435.0L195.0 -415.0V355.0ZM706.0 -262.0 688.0 -270.0C730.0 -336.0 776.0 -441.0 779.0 -520.0C848.0 -584.0 918.0 -416.0 706.0 -262.0ZM432.0 -13.0 440.0 -53.0H865.0C882.0 -53.0 896.0 -46.0 898.0 -32.0C860.0 6.0 799.0 55.0 799.0 55.0L746.0 -13.0ZM492.0 215.0 493.0 175.0H665.0C684.0 175.0 695.0 182.0 699.0 197.0C663.0 232.0 603.0 280.0 603.0 280.0L552.0 215.0Z"/></g>
<g fill="green" transform="translate(200 100) scale(0.1 -0.1)"><path d="M0.0 0.0 11.0 -38.0H383.0C401.0 -38.0 414.0 -31.0 418.0 -16.0C382.0 32.0 311.0 110.0 311.0 110.0L249.0 0.0ZM95.0 359.0V-435.0L278.0 -373.0V359.0ZM744.0 -239.0 730.0 -244.0C758.0 -319.0 783.0 -417.0 779.0 -506.0C905.0 -631.0 1064.0 -376.0 744.0 -239.0ZM461.0 13.0 469.0 -26.0H940.0C959.0 -26.0 973.0 -19.0 977.0 -4.0C929.0 48.0 841.0 126.0 841.0 126.0L765.0 13.0ZM543.0 247.0 544.0 209.0H751.0C769.0 209.0 783.0 216.0 787.0 231.0C745.0 279.0 668.0 350.0 668.0 350.0L600.0 247.0Z"/></g>
<g fill="green" transform="translate(300 100) scale(0.1 -0.1)"><path d="M0.0 0.0 9.0 -32.0H189.0C203.0 -32.0 214.0 -26.0 217.0 -15.0C188.0 14.0 145.0 50.0 145.0 50.0L107.0 0.0ZM74.0 263.0V-323.0L121.0 -306.0V263.0ZM545.0 -210.0 530.0 -215.0C559.0 -268.0 589.0 -352.0 589.0 -414.0C641.0 -465.0 699.0 -337.0 545.0 -210.0ZM384.0 44.0 390.0 13.0H633.0C645.0 13.0 657.0 19.0 658.0 29.0C629.0 58.0 583.0 96.0 583.0 96.0L542.0 44.0ZM462.0 134.0 461.0 103.0H500.0C515.0 103.0 523.0 108.0 526.0 120.0C499.0 146.0 454.0 183.0 454.0 183.0L415.0 134.0Z"/></g>
<g fill="green" transform="translate(400 100) scale(0.1 -0.1)"><path d="M0.0 0.0 9.0 -29.0H235.0C249.0 -29.0 258.0 -24.0 262.0 -12.0C237.0 23.0 187.0 83.0 187.0 83.0L144.0 0.0ZM45.0 267.0V-322.0L183.0 -268.0V267.0ZM579.0 -193.0 568.0 -196.0C586.0 -257.0 602.0 -334.0 597.0 -403.0C688.0 -501.0 813.0 -314.0 579.0 -193.0ZM407.0 71.0 414.0 41.0H695.0C709.0 41.0 720.0 46.0 723.0 58.0C689.0 97.0 626.0 155.0 626.0 155.0L572.0 71.0ZM508.0 163.0 507.0 134.0H570.0C583.0 134.0 594.0 139.0 597.0 151.0C568.0 186.0 515.0 238.0 515.0 238.0L467.0 163.0Z"/></g>
<g fill="green" transform="translate(500 100) scale(0.1 -0.1)"><path d="M0.0 0.0 9.0 -34.0H640.0C655.0 -34.0 666.0 -28.0 669.0 -16.0C636.0 17.0 582.0 58.0 582.0 58.0L536.0 0.0ZM295.0 359.0V-437.0L345.0 -434.0V359.0ZM445.0 -81.0 431.0 -89.0C494.0 -158.0 566.0 -270.0 575.0 -358.0C645.0 -417.0 696.0 -238.0 445.0 -81.0ZM-90.0 -348.0 -77.0 -380.0H653.0C667.0 -380.0 680.0 -375.0 682.0 -363.0C648.0 -330.0 594.0 -288.0 594.0 -288.0L547.0 -348.0ZM291.0 265.0 294.0 232.0H898.0C915.0 232.0 925.0 238.0 928.0 250.0C895.0 282.0 840.0 324.0 840.0 324.0L792.0 265.0Z"/></g>
<g fill="green" transform="translate(600 100) scale(0.1 -0.1)"><path d="M0.0 0.0 9.0 -31.0H692.0C707.0 -31.0 719.0 -25.0 723.0 -13.0C671.0 33.0 584.0 103.0 584.0 103.0L507.0 0.0ZM259.0 362.0V-445.0L429.0 -440.0V362.0ZM523.0 -39.0 513.0 -42.0C552.0 -125.0 583.0 -230.0 584.0 -331.0C731.0 -470.0 902.0 -171.0 523.0 -39.0ZM-87.0 -335.0 -74.0 -367.0H716.0C733.0 -367.0 745.0 -361.0 748.0 -349.0C698.0 -299.0 608.0 -224.0 608.0 -224.0L529.0 -335.0ZM337.0 287.0 339.0 255.0H974.0C990.0 255.0 1002.0 261.0 1007.0 274.0C956.0 318.0 870.0 384.0 870.0 384.0L795.0 287.0Z"/></g>
<g fill="green" transform="translate(700 100) scale(0.1 -0.1)"><path d="M0.0 0.0 10.0 -36.0H371.0C387.0 -36.0 399.0 -30.0 402.0 -17.0C369.0 16.0 318.0 58.0 318.0 58.0L273.0 0.0ZM160.0 332.0V-403.0L214.0 -387.0V332.0ZM732.0 -290.0 719.0 -299.0C758.0 -334.0 805.0 -392.0 819.0 -439.0C880.0 -479.0 923.0 -353.0 732.0 -290.0ZM412.0 -90.0 413.0 -125.0H1033.0C1049.0 -125.0 1060.0 -119.0 1062.0 -106.0C1028.0 -73.0 973.0 -30.0 973.0 -30.0L924.0 -90.0ZM13.0 325.0 21.0 289.0H402.0C418.0 289.0 429.0 295.0 432.0 308.0C399.0 340.0 345.0 383.0 345.0 383.0L299.0 325.0Z"/></g>
<g fill="green" transform="translate(800 100) scale(0.1 -0.1)"><path d="M0.0 0.0 10.0 -33.0H429.0C446.0 -33.0 457.0 -27.0 460.0 -14.0C423.0 31.0 351.0 102.0 351.0 102.0L288.0 0.0ZM124.0 334.0V-406.0L292.0 -350.0V334.0ZM700.0 -283.0 691.0 -289.0C724.0 -324.0 757.0 -383.0 764.0 -436.0C877.0 -512.0 979.0 -295.0 700.0 -283.0ZM449.0 -102.0V-136.0H1072.0C1089.0 -136.0 1102.0 -130.0 1105.0 -117.0C1051.0 -68.0 958.0 2.0 958.0 2.0L876.0 -102.0ZM12.0 328.0 21.0 295.0H455.0C472.0 295.0 485.0 301.0 488.0 314.0C440.0 365.0 354.0 440.0 354.0 440.0L278.0 328.0Z"/></g>
<g fill="red" transform="translate(100 200) scale(0.1 -0.1)"><path d="M0.0 0.0 8.0 -30.0H674.0C688.0 -30.0 697.0 -25.0 700.0 -14.0C670.0 15.0 620.0 53.0 620.0 53.0L578.0 0.0ZM314.0 342.0V-415.0H358.0V342.0ZM464.0 -101.0 453.0 -110.0C513.0 -156.0 587.0 -236.0 603.0 -301.0C667.0 -343.0 699.0 -194.0 464.0 -101.0ZM-105.0 -401.0 -96.0 -430.0H771.0C785.0 -430.0 795.0 -426.0 798.0 -415.0C766.0 -385.0 716.0 -347.0 716.0 -347.0L672.0 -401.0ZM-47.0 342.0 -38.0 312.0H714.0C728.0 312.0 738.0 317.0 740.0 328.0C709.0 358.0 659.0 396.0 659.0 396.0L614.0 342.0Z"/></g>
<g fill="black" opacity=".8" transform="translate(100 200) scale(0.1 -0.1)"><path d="M0.0 0.0 8.0 -30.0H674.0C687.0 -30.0 698.0 -25.0 700.0 -15.0C670.0 16.0 620.0 53.0 620.0 53.0L578.0 0.0ZM313.0 343.0V-414.0H358.0V343.0ZM463.0 -101.0 453.0 -109.0C514.0 -157.0 586.0 -236.0 603.0 -301.0C668.0 -343.0 700.0 -194.0 463.0 -101.0ZM-104.0 -402.0 -96.0 -431.0H771.0C784.0 -431.0 795.0 -426.0 797.0 -415.0C766.0 -386.0 716.0 -348.0 716.0 -348.0L672.0 -402.0ZM-46.0 342.0 -38.0 312.0H713.0C728.0 312.0 738.0 317.0 740.0 328.0C709.0 358.0 658.0 396.0 658.0 396.0L614.0 342.0Z"/></g>
<g fill="red" transform="translate(200 200) scale(0.1 -0.1)"><path d="M0.0 0.0 8.0 -28.0H724.0C739.0 -28.0 750.0 -23.0 753.0 -12.0C700.0 33.0 613.0 98.0 613.0 98.0L535.0 0.0ZM279.0 344.0V-424.0H439.0V344.0ZM492.0 -69.0 485.0 -74.0C528.0 -128.0 565.0 -206.0 573.0 -281.0C712.0 -386.0 842.0 -114.0 492.0 -69.0ZM-96.0 -416.0 -88.0 -444.0H809.0C825.0 -444.0 836.0 -439.0 839.0 -428.0C783.0 -381.0 690.0 -311.0 690.0 -311.0L607.0 -416.0ZM-37.0 344.0 -29.0 316.0H766.0C781.0 316.0 793.0 321.0 796.0 332.0C741.0 378.0 649.0 447.0 649.0 447.0L568.0 344.0Z"/></g>
<g fill="black" opacity=".8" transform="translate(200 200) scale(0.1 -0.1)"><path d="M0.0 0.0 8.0 -27.0H724.0C739.0 -27.0 749.0 -22.0 753.0 -12.0C700.0 32.0 612.0 97.0 612.0 97.0L534.0 0.0ZM279.0 344.0V-425.0L439.0 -424.0V344.0ZM492.0 -70.0 486.0 -74.0C528.0 -129.0 565.0 -206.0 573.0 -282.0C711.0 -386.0 842.0 -114.0 492.0 -70.0ZM-95.0 -416.0 -88.0 -444.0H809.0C824.0 -444.0 836.0 -439.0 838.0 -428.0C784.0 -381.0 690.0 -311.0 690.0 -311.0L607.0 -416.0ZM-37.0 344.0 -29.0 316.0H766.0C781.0 316.0 792.0 321.0 797.0 332.0C741.0 379.0 649.0 447.0 649.0 447.0L568.0 344.0Z"/></g>
<g fill="red" transform="translate(300 200) scale(0.1 -0.1)"><path d="M0.0 0.0 8.0 -30.0H267.0C281.0 -30.0 290.0 -25.0 293.0 -14.0C266.0 13.0 224.0 48.0 224.0 48.0L186.0 0.0ZM114.0 264.0V-324.0L158.0 -311.0V264.0ZM481.0 -165.0 467.0 -171.0C501.0 -224.0 538.0 -310.0 539.0 -374.0C591.0 -424.0 644.0 -293.0 481.0 -165.0ZM255.0 -38.0 263.0 -67.0H580.0C593.0 -67.0 603.0 -62.0 605.0 -52.0C577.0 -24.0 532.0 12.0 532.0 12.0L493.0 -38.0ZM412.0 146.0V117.0H558.0C572.0 117.0 580.0 122.0 583.0 133.0C556.0 159.0 512.0 194.0 512.0 194.0L474.0 146.0Z"/></g>
<g fill="black" opacity=".8" transform="translate(300 200) scale(0.1 -0.1)"><path d="M0.0 0.0 9.0 -30.0H267.0C280.0 -30.0 291.0 -25.0 294.0 -14.0C266.0 14.0 223.0 48.0 223.0 48.0L187.0 0.0ZM114.0 264.0V-323.0L158.0 -311.0V264.0ZM481.0 -165.0 467.0 -170.0C501.0 -224.0 537.0 -310.0 539.0 -374.0C591.0 -424.0 644.0 -293.0 481.0 -165.0ZM255.0 -38.0 263.0 -68.0H581.0C592.0 -68.0 604.0 -62.0 605.0 -52.0C577.0 -25.0 533.0 12.0 533.0 12.0L493.0 -38.0ZM413.0 146.0 412.0 117.0H557.0C572.0 117.0 580.0 122.0 582.0 133.0C556.0 158.0 512.0 194.0 512.0 194.0L474.0 146.0Z"/></g>
<g fill="red" transform="translate(400 200) scale(0.1 -0.1)"><path d="M0.0 0.0 8.0 -28.0H311.0C324.0 -28.0 334.0 -23.0 337.0 -12.0C309.0 24.0 255.0 81.0 255.0 81.0L208.0 0.0ZM85.0 267.0V-324.0L220.0 -285.0V267.0ZM525.0 -143.0 514.0 -147.0C535.0 -209.0 553.0 -288.0 549.0 -360.0C646.0 -461.0 773.0 -263.0 525.0 -143.0ZM272.0 -15.0 280.0 -43.0H640.0C654.0 -43.0 664.0 -38.0 667.0 -27.0C632.0 11.0 568.0 69.0 568.0 69.0L513.0 -15.0ZM457.0 173.0V145.0H625.0C638.0 145.0 648.0 150.0 651.0 161.0C620.0 195.0 564.0 246.0 564.0 246.0L515.0 173.0Z"/></g>
<g fill="black" opacity=".8" transform="translate(400 200) scale(0.1 -0.1)"><path d="M0.0 0.0 9.0 -27.0H311.0C324.0 -27.0 333.0 -23.0 337.0 -11.0C308.0 23.0 254.0 81.0 254.0 81.0L208.0 0.0ZM85.0 268.0V-324.0L220.0 -284.0V268.0ZM525.0 -144.0 515.0 -146.0C535.0 -209.0 553.0 -288.0 549.0 -360.0C645.0 -461.0 773.0 -264.0 525.0 -144.0ZM272.0 -15.0 280.0 -43.0H640.0C653.0 -43.0 664.0 -38.0 667.0 -27.0C632.0 12.0 569.0 69.0 569.0 69.0L514.0 -15.0ZM457.0 173.0V145.0H625.0C637.0 145.0 648.0 150.0 651.0 162.0C620.0 196.0 565.0 246.0 565.0 246.0L515.0 173.0Z"/></g>
<g fill="red" transform="translate(500 200) scale(0.1 -0.1)"><path d="M0.0 0.0 8.0 -30.0H286.0C300.0 -30.0 309.0 -25.0 312.0 -14.0C285.0 13.0 243.0 48.0 243.0 48.0L205.0 0.0ZM122.0 273.0V-332.0L167.0 -318.0V273.0ZM630.0 -257.0 619.0 -265.0C649.0 -291.0 687.0 -336.0 698.0 -371.0C748.0 -403.0 783.0 -303.0 630.0 -257.0ZM381.0 -53.0V-83.0H885.0C899.0 -83.0 907.0 -78.0 910.0 -67.0C881.0 -39.0 835.0 -3.0 835.0 -3.0L794.0 -53.0ZM-7.0 273.0 1.0 243.0H298.0C311.0 243.0 320.0 248.0 322.0 259.0C295.0 286.0 250.0 321.0 250.0 321.0L212.0 273.0Z"/></g>
<g fill="black" opacity=".8" transform="translate(500 200) scale(0.1 -0.1)"><path d="M0.0 0.0 9.0 -30.0H286.0C299.0 -30.0 310.0 -25.0 312.0 -14.0C284.0 13.0 242.0 48.0 242.0 48.0L206.0 0.0ZM122.0 273.0V-332.0L167.0 -318.0V273.0ZM630.0 -257.0 618.0 -264.0C649.0 -291.0 686.0 -335.0 698.0 -372.0C748.0 -403.0 784.0 -303.0 630.0 -257.0ZM381.0 -54.0V-83.0H885.0C898.0 -83.0 908.0 -78.0 909.0 -67.0C881.0 -40.0 836.0 -4.0 836.0 -4.0L794.0 -54.0ZM-6.0 273.0 1.0 243.0H297.0C310.0 243.0 320.0 248.0 322.0 259.0C295.0 285.0 250.0 321.0 250.0 321.0L212.0 273.0Z"/></g>
<g fill="red" transform="translate(600 200) scale(0.1 -0.1)"><path d="M0.0 0.0 8.0 -28.0H335.0C349.0 -28.0 359.0 -23.0 361.0 -12.0C331.0 26.0 273.0 85.0 273.0 85.0L222.0 0.0ZM92.0 275.0V-334.0L232.0 -284.0V275.0ZM595.0 -253.0 587.0 -259.0C614.0 -284.0 642.0 -330.0 648.0 -370.0C740.0 -429.0 819.0 -255.0 595.0 -253.0ZM414.0 -65.0V-93.0H916.0C930.0 -93.0 941.0 -88.0 944.0 -77.0C898.0 -37.0 821.0 21.0 821.0 21.0L753.0 -65.0ZM-10.0 275.0 -2.0 247.0H340.0C354.0 247.0 365.0 252.0 367.0 263.0C327.0 305.0 256.0 368.0 256.0 368.0L193.0 275.0Z"/></g>
<g fill="black" opacity=".8" transform="translate(600 200) scale(0.1 -0.1)"><path d="M0.0 0.0 9.0 -27.0H335.0C349.0 -27.0 358.0 -23.0 361.0 -11.0C331.0 25.0 272.0 85.0 272.0 85.0L221.0 0.0ZM92.0 275.0V-334.0L232.0 -283.0V275.0ZM595.0 -254.0 588.0 -258.0C615.0 -285.0 642.0 -330.0 648.0 -370.0C739.0 -429.0 819.0 -256.0 595.0 -254.0ZM415.0 -65.0 414.0 -93.0H916.0C930.0 -93.0 941.0 -89.0 943.0 -78.0C898.0 -37.0 821.0 20.0 821.0 20.0L753.0 -65.0ZM-10.0 275.0 -3.0 247.0H340.0C354.0 247.0 365.0 252.0 367.0 263.0C327.0 306.0 257.0 369.0 257.0 369.0L193.0 275.0Z"/></g>
</svg>
