<?xml version="1.0" encoding="UTF-8"?>
<svg width="1700" height="300" xmlns="http://www.w3.org/2000/svg">
<rect width="100%" height="100%" fill="white"/>
<g fill="green" transform="translate(100 100) scale(0.1 -0.1)"><path d="M0.0 0.0V-299.0L44.0 -304.0V0.0H0.0ZM24.0 -139.0V-168.0H286.0C299.0 -168.0 308.0 -163.0 311.0 -152.0C285.0 -128.0 242.0 -96.0 242.0 -96.0L206.0 -139.0H24.0ZM-202.0 -138.0 -218.0 -148.0C-134.0 -301.0 -21.0 -334.0 191.0 -334.0C253.0 -334.0 387.0 -334.0 442.0 -334.0C444.0 -317.0 455.0 -305.0 474.0 -303.0V-288.0C405.0 -290.0 258.0 -290.0 195.0 -290.0C-11.0 -290.0 -128.0 -270.0 -202.0 -138.0ZM-204.0 -70.0C-225.0 -187.0 -283.0 -308.0 -420.0 -378.0L-410.0 -392.0C-256.0 -327.0 -193.0 -215.0 -164.0 -109.0C-144.0 -109.0 -132.0 -102.0 -127.0 -88.0L-204.0 -70.0ZM-390.0 0.0 -381.0 -29.0H398.0V0.0H-390.0ZM379.0 0.0C367.0 -31.0 337.0 -91.0 318.0 -123.0L333.0 -130.0C362.0 -106.0 407.0 -65.0 429.0 -36.0C448.0 -35.0 460.0 -34.0 467.0 -27.0L403.0 36.0L368.0 0.0H379.0Z"/></g>
<g fill="green" transform="translate(200 100) scale(0.1 -0.1)"><path d="M0.0 0.0V-294.0L147.0 -306.0V0.0H0.0ZM78.0 -134.0V-162.0H394.0C409.0 -162.0 420.0 -157.0 422.0 -146.0C374.0 -109.0 297.0 -58.0 297.0 -58.0L230.0 -134.0H78.0ZM-165.0 -132.0 -173.0 -136.0C-108.0 -327.0 3.0 -373.0 230.0 -373.0C286.0 -373.0 425.0 -373.0 480.0 -373.0C480.0 -320.0 501.0 -271.0 545.0 -260.0V-248.0C470.0 -250.0 303.0 -250.0 234.0 -250.0C17.0 -250.0 -95.0 -235.0 -165.0 -132.0ZM-228.0 -60.0C-233.0 -171.0 -269.0 -310.0 -390.0 -405.0L-384.0 -415.0C-193.0 -348.0 -113.0 -234.0 -80.0 -118.0C-55.0 -117.0 -44.0 -108.0 -41.0 -93.0L-228.0 -60.0ZM-365.0 0.0 -356.0 -28.0H411.0V0.0H-365.0ZM357.0 0.0C355.0 -27.0 349.0 -73.0 343.0 -101.0L351.0 -107.0C395.0 -96.0 454.0 -74.0 490.0 -55.0C511.0 -53.0 521.0 -51.0 529.0 -42.0L413.0 67.0L346.0 0.0H357.0Z"/></g>
<g fill="green" transform="translate(300 100) scale(0.1 -0.1)"><path d="M0.0 0.0V-299.0L44.0 -304.0V0.0H0.0ZM24.0 -139.0V-168.0H286.0C299.0 -168.0 308.0 -163.0 311.0 -152.0C285.0 -128.0 242.0 -96.0 242.0 -96.0L206.0 -139.0H24.0ZM-202.0 -138.0 -218.0 -148.0C-134.0 -301.0 -21.0 -334.0 191.0 -334.0C253.0 -334.0 387.0 -334.0 442.0 -334.0C444.0 -317.0 455.0 -305.0 474.0 -303.0V-288.0C405.0 -290.0 258.0 -290.0 195.0 -290.0C-11.0 -290.0 -128.0 -270.0 -202.0 -138.0ZM-204.0 -70.0C-225.0 -187.0 -283.0 -308.0 -420.0 -378.0L-410.0 -392.0C-256.0 -327.0 -193.0 -215.0 -164.0 -109.0C-144.0 -109.0 -132.0 -102.0 -127.0 -88.0L-204.0 -70.0ZM-390.0 0.0 -381.0 -29.0H398.0V0.0H-390.0ZM379.0 0.0C367.0 -31.0 337.0 -91.0 318.0 -123.0L333.0 -130.0C362.0 -106.0 407.0 -65.0 429.0 -36.0C448.0 -35.0 460.0 -34.0 467.0 -27.0L403.0 36.0L368.0 0.0H379.0Z"/></g>
<g fill="green" transform="translate(400 100) scale(0.1 -0.1)"><path d="M0.0 0.0V-294.0L147.0 -306.0V0.0H0.0ZM78.0 -134.0V-162.0H394.0C409.0 -162.0 420.0 -157.0 422.0 -146.0C374.0 -109.0 297.0 -58.0 297.0 -58.0L230.0 -134.0H78.0ZM-165.0 -132.0 -173.0 -136.0C-108.0 -327.0 3.0 -373.0 230.0 -373.0C286.0 -373.0 425.0 -373.0 480.0 -373.0C480.0 -320.0 501.0 -271.0 545.0 -260.0V-248.0C470.0 -250.0 303.0 -250.0 234.0 -250.0C17.0 -250.0 -95.0 -235.0 -165.0 -132.0ZM-228.0 -60.0C-233.0 -171.0 -269.0 -310.0 -390.0 -405.0L-384.0 -415.0C-193.0 -348.0 -113.0 -234.0 -80.0 -118.0C-55.0 -117.0 -44.0 -108.0 -41.0 -93.0L-228.0 -60.0ZM-365.0 0.0 -356.0 -28.0H411.0V0.0H-365.0ZM357.0 0.0C355.0 -27.0 349.0 -73.0 343.0 -101.0L351.0 -107.0C395.0 -96.0 454.0 -74.0 490.0 -55.0C511.0 -53.0 521.0 -51.0 529.0 -42.0L413.0 67.0L346.0 0.0H357.0Z"/></g>
<g fill="red" transform="translate(100 200) scale(0.1 -0.1)"><path d="M0.0 0.0V-299.0L44.0 -304.0V0.0H0.0ZM24.0 -139.0V-168.0H286.0C299.0 -168.0 308.0 -163.0 311.0 -152.0C285.0 -128.0 242.0 -96.0 242.0 -96.0L206.0 -139.0H24.0ZM-202.0 -138.0 -218.0 -148.0C-134.0 -301.0 -21.0 -334.0 191.0 -334.0C253.0 -334.0 387.0 -334.0 442.0 -334.0C444.0 -317.0 455.0 -305.0 474.0 -303.0V-288.0C405.0 -290.0 258.0 -290.0 195.0 -290.0C-11.0 -290.0 -128.0 -270.0 -202.0 -138.0ZM-204.0 -70.0C-225.0 -187.0 -283.0 -308.0 -420.0 -378.0L-410.0 -392.0C-256.0 -327.0 -193.0 -215.0 -164.0 -109.0C-144.0 -109.0 -132.0 -102.0 -127.0 -88.0L-204.0 -70.0ZM-390.0 0.0 -381.0 -29.0H398.0V0.0H-390.0ZM379.0 0.0C367.0 -31.0 337.0 -91.0 318.0 -123.0L333.0 -130.0C362.0 -106.0 407.0 -65.0 429.0 -36.0C448.0 -35.0 460.0 -34.0 467.0 -27.0L403.0 36.0L368.0 0.0H379.0Z"/></g>
<g fill="black" opacity=".8" transform="translate(100 200) scale(0.1 -0.1)"><path d="M0.0 0.0V-299.0L44.0 -304.0V0.0H0.0ZM24.0 -139.0V-168.0H286.0C299.0 -168.0 308.0 -163.0 311.0 -152.0C285.0 -128.0 242.0 -96.0 242.0 -96.0L206.0 -139.0H24.0ZM-202.0 -138.0 -218.0 -148.0C-134.0 -301.0 -21.0 -334.0 191.0 -334.0C253.0 -334.0 387.0 -334.0 442.0 -334.0C444.0 -317.0 455.0 -305.0 474.0 -303.0V-288.0C405.0 -290.0 258.0 -290.0 195.0 -290.0C-11.0 -290.0 -128.0 -270.0 -202.0 -138.0ZM-204.0 -70.0C-225.0 -187.0 -283.0 -308.0 -420.0 -378.0L-410.0 -392.0C-256.0 -327.0 -193.0 -215.0 -164.0 -109.0C-144.0 -109.0 -132.0 -102.0 -127.0 -88.0L-204.0 -70.0ZM-390.0 0.0 -381.0 -29.0H398.0V0.0H-390.0ZM379.0 0.0C367.0 -31.0 337.0 -91.0 318.0 -123.0L333.0 -130.0C362.0 -106.0 407.0 -65.0 429.0 -36.0C448.0 -35.0 460.0 -34.0 467.0 -27.0L403.0 36.0L368.0 0.0H379.0Z"/></g>
<g fill="red" transform="translate(200 200) scale(0.1 -0.1)"><path d="M0.0 0.0V-294.0L147.0 -306.0V0.0H0.0ZM78.0 -134.0V-162.0H394.0C409.0 -162.0 420.0 -157.0 422.0 -146.0C374.0 -109.0 297.0 -58.0 297.0 -58.0L230.0 -134.0H78.0ZM-165.0 -132.0 -173.0 -136.0C-108.0 -327.0 3.0 -373.0 230.0 -373.0C286.0 -373.0 425.0 -373.0 480.0 -373.0C480.0 -320.0 501.0 -271.0 545.0 -260.0V-248.0C470.0 -250.0 303.0 -250.0 234.0 -250.0C17.0 -250.0 -95.0 -235.0 -165.0 -132.0ZM-228.0 -60.0C-233.0 -171.0 -269.0 -310.0 -390.0 -405.0L-384.0 -415.0C-193.0 -348.0 -113.0 -234.0 -80.0 -118.0C-55.0 -117.0 -44.0 -108.0 -41.0 -93.0L-228.0 -60.0ZM-365.0 0.0 -356.0 -28.0H411.0V0.0H-365.0ZM357.0 0.0C355.0 -27.0 349.0 -73.0 343.0 -101.0L351.0 -107.0C395.0 -96.0 454.0 -74.0 490.0 -55.0C511.0 -53.0 521.0 -51.0 529.0 -42.0L413.0 67.0L346.0 0.0H357.0Z"/></g>
<g fill="black" opacity=".8" transform="translate(200 200) scale(0.1 -0.1)"><path d="M0.0 0.0V-294.0L147.0 -306.0V0.0H0.0ZM78.0 -134.0V-162.0H394.0C409.0 -162.0 420.0 -157.0 422.0 -146.0C374.0 -109.0 297.0 -58.0 297.0 -58.0L230.0 -134.0H78.0ZM-165.0 -132.0 -173.0 -136.0C-108.0 -327.0 3.0 -373.0 230.0 -373.0C286.0 -373.0 425.0 -373.0 480.0 -373.0C480.0 -320.0 501.0 -271.0 545.0 -260.0V-248.0C470.0 -250.0 303.0 -250.0 234.0 -250.0C17.0 -250.0 -95.0 -235.0 -165.0 -132.0ZM-228.0 -60.0C-233.0 -171.0 -269.0 -310.0 -390.0 -405.0L-384.0 -415.0C-193.0 -348.0 -113.0 -234.0 -80.0 -118.0C-55.0 -117.0 -44.0 -108.0 -41.0 -93.0L-228.0 -60.0ZM-365.0 0.0 -356.0 -28.0H411.0V0.0H-365.0ZM357.0 0.0C355.0 -27.0 349.0 -73.0 343.0 -101.0L351.0 -107.0C395.0 -96.0 454.0 -74.0 490.0 -55.0C511.0 -53.0 521.0 -51.0 529.0 -42.0L413.0 67.0L346.0 0.0H357.0Z"/></g>
</svg>
