<?xml version="1.0" encoding="UTF-8"?>
<svg width="1700" height="300" xmlns="http://www.w3.org/2000/svg">
<rect width="100%" height="100%" fill="white"/>
<g fill="green" transform="translate(100 100) scale(0.1 -0.1)"><path d="M-0.0 -0.0V-479.0H52.0V0.0ZM-380.0 4.0V-578.0H-370.0C-348.0 -578.0 -328.0 -565.0 -328.0 -558.0V-31.0H425.0V4.0H-321.0L-380.0 35.0ZM383.0 4.0V-566.0H390.0C408.0 -566.0 434.0 -550.0 435.0 -543.0V-43.0C459.0 -38.0 479.0 -28.0 487.0 -19.0L407.0 43.0L371.0 4.0ZM-362.0 -223.0V-258.0H414.0V-223.0ZM-363.0 -460.0V-495.0H414.0V-460.0Z"/></g>
<g fill="green" transform="translate(200 100) scale(0.1 -0.1)"><path d="M0.0 0.0V-488.0H166.0V0.0ZM-361.0 0.0V-604.0H-336.0C-266.0 -604.0 -194.0 -565.0 -194.0 -548.0V-33.0H435.0V0.0H-182.0L-361.0 69.0ZM366.0 0.0V-593.0H395.0C452.0 -593.0 536.0 -562.0 537.0 -553.0V-61.0C562.0 -55.0 577.0 -44.0 584.0 -34.0L429.0 84.0L354.0 0.0ZM-275.0 -232.0V-265.0H429.0V-232.0ZM-275.0 -471.0V-504.0H429.0V-471.0Z"/></g>
<g fill="green" transform="translate(300 100) scale(0.1 -0.1)"><path d="M0.0 0.0V-326.0H40.0V0.0ZM-329.0 4.0V-393.0H-322.0C-305.0 -393.0 -289.0 -384.0 -289.0 -378.0V-23.0H367.0V4.0H-284.0L-329.0 28.0ZM331.0 4.0V-390.0H337.0C350.0 -390.0 370.0 -378.0 371.0 -372.0V-32.0C390.0 -28.0 405.0 -20.0 411.0 -14.0L350.0 34.0L322.0 4.0ZM-317.0 -150.0V-177.0H356.0V-150.0ZM-318.0 -311.0V-338.0H356.0V-311.0Z"/></g>
<g fill="green" transform="translate(400 100) scale(0.1 -0.1)"><path d="M0.0 0.0V-332.0H137.0V0.0ZM-311.0 0.0V-415.0H-291.0C-235.0 -415.0 -176.0 -384.0 -176.0 -370.0V-25.0H372.0V0.0H-166.0L-311.0 55.0ZM319.0 0.0V-413.0H342.0C388.0 -413.0 456.0 -389.0 457.0 -382.0V-48.0C476.0 -43.0 488.0 -35.0 493.0 -27.0L369.0 67.0L309.0 0.0ZM-242.0 -156.0V-182.0H365.0V-156.0ZM-242.0 -317.0V-343.0H365.0V-317.0Z"/></g>
<g fill="green" transform="translate(500 100) scale(0.1 -0.1)"><path d="M0.0 0.0V-616.0H45.0V0.0ZM-133.0 0.0V-745.0H-123.0C-103.0 -745.0 -88.0 -733.0 -88.0 -727.0V-31.0H156.0V0.0H-83.0L-133.0 26.0ZM136.0 0.0V-706.0H142.0C157.0 -706.0 180.0 -693.0 180.0 -686.0V-42.0C201.0 -37.0 219.0 -29.0 224.0 -20.0L156.0 33.0L126.0 0.0ZM-109.0 -297.0V-327.0H159.0V-297.0ZM-109.0 -604.0V-634.0H156.0V-604.0Z"/></g>
<g fill="green" transform="translate(600 100) scale(0.1 -0.1)"><path d="M0.0 0.0V-632.0H91.0V0.0ZM-134.0 0.0V-759.0H-117.0C-68.0 -759.0 -27.0 -732.0 -27.0 -719.0V-28.0H178.0V0.0H-23.0L-134.0 48.0ZM119.0 0.0V-715.0H137.0C176.0 -715.0 229.0 -690.0 229.0 -682.0V-45.0C249.0 -41.0 262.0 -33.0 268.0 -25.0L161.0 58.0L109.0 0.0ZM-78.0 -306.0V-335.0H185.0V-306.0ZM-78.0 -623.0V-651.0H185.0V-623.0Z"/></g>
<g fill="red" transform="translate(100 200) scale(0.1 -0.1)"><path d="M0.0 0.0V-581.0H44.0V0.0ZM-134.0 0.0V-719.0H-125.0C-105.0 -719.0 -90.0 -707.0 -90.0 -702.0V-30.0H155.0V0.0H-85.0L-134.0 26.0ZM136.0 0.0V-675.0H142.0C157.0 -675.0 179.0 -662.0 180.0 -655.0V-40.0C200.0 -36.0 218.0 -28.0 223.0 -20.0L156.0 33.0L126.0 0.0ZM-111.0 -279.0V-309.0H155.0V-279.0ZM-111.0 -568.0V-597.0H155.0V-568.0Z"/></g>
<g fill="black" opacity=".8" transform="translate(100 200) scale(0.1 -0.1)"><path d="M0.0 0.0V-582.0H43.0V0.0ZM-135.0 0.0V-703.0H-125.0C-106.0 -703.0 -92.0 -692.0 -92.0 -686.0V-30.0H158.0V0.0H-87.0L-135.0 25.0ZM138.0 0.0V-667.0H143.0C158.0 -667.0 180.0 -655.0 180.0 -648.0V-40.0C200.0 -35.0 217.0 -27.0 222.0 -19.0L157.0 32.0L128.0 0.0ZM-112.0 -280.0V-309.0H160.0V-280.0ZM-112.0 -570.0V-599.0H157.0V-570.0Z"/></g>
<g fill="red" transform="translate(200 200) scale(0.1 -0.1)"><path d="M0.0 0.0V-581.0H89.0V0.0ZM-136.0 0.0V-725.0H-119.0C-72.0 -725.0 -31.0 -700.0 -31.0 -687.0V-28.0H180.0V0.0H-26.0L-136.0 47.0ZM121.0 0.0V-660.0H139.0C176.0 -660.0 228.0 -636.0 229.0 -628.0V-43.0C247.0 -40.0 259.0 -32.0 265.0 -25.0L163.0 56.0L112.0 0.0ZM-80.0 -282.0V-310.0H195.0V-282.0ZM-80.0 -576.0V-604.0H195.0V-576.0Z"/></g>
<g fill="black" opacity=".8" transform="translate(200 200) scale(0.1 -0.1)"><path d="M0.0 0.0V-597.0H89.0V0.0ZM-135.0 0.0V-717.0H-119.0C-71.0 -717.0 -31.0 -691.0 -31.0 -678.0V-27.0H178.0V0.0H-27.0L-135.0 46.0ZM122.0 0.0V-676.0H139.0C177.0 -676.0 228.0 -652.0 228.0 -645.0V-43.0C247.0 -39.0 260.0 -32.0 266.0 -24.0L162.0 56.0L112.0 0.0ZM-81.0 -289.0V-317.0H184.0V-289.0ZM-81.0 -588.0V-615.0H184.0V-588.0Z"/></g>
<g fill="red" transform="translate(300 200) scale(0.1 -0.1)"><path d="M0.0 0.0V-484.0H44.0V0.0ZM-323.0 0.0V-579.0H-315.0C-296.0 -579.0 -280.0 -568.0 -280.0 -562.0V-29.0H366.0V0.0H-274.0L-323.0 26.0ZM326.0 0.0V-576.0H332.0C348.0 -576.0 369.0 -562.0 370.0 -556.0V-39.0C390.0 -35.0 407.0 -27.0 414.0 -19.0L346.0 34.0L316.0 0.0ZM-313.0 -228.0V-258.0H357.0V-228.0ZM-314.0 -467.0V-496.0H356.0V-467.0Z"/></g>
<g fill="black" opacity=".8" transform="translate(300 200) scale(0.1 -0.1)"><path d="M0.0 0.0V-483.0H49.0V0.0ZM-322.0 3.0V-583.0H-312.0C-291.0 -583.0 -273.0 -570.0 -273.0 -564.0V-30.0H361.0V3.0H-267.0L-322.0 32.0ZM324.0 3.0V-567.0H331.0C348.0 -567.0 372.0 -552.0 373.0 -545.0V-41.0C395.0 -36.0 414.0 -27.0 421.0 -18.0L347.0 40.0L313.0 3.0ZM-303.0 -226.0V-259.0H353.0V-226.0ZM-304.0 -466.0V-498.0H352.0V-466.0Z"/></g>
<g fill="red" transform="translate(400 200) scale(0.1 -0.1)"><path d="M0.0 0.0V-492.0H140.0V0.0ZM-306.0 0.0V-600.0H-284.0C-225.0 -600.0 -166.0 -567.0 -166.0 -552.0V-28.0H356.0V0.0H-156.0L-306.0 58.0ZM311.0 0.0V-593.0H335.0C384.0 -593.0 453.0 -565.0 454.0 -556.0V-51.0C474.0 -46.0 487.0 -37.0 493.0 -29.0L365.0 71.0L301.0 0.0ZM-235.0 -235.0V-263.0H364.0V-235.0ZM-235.0 -477.0V-505.0H364.0V-477.0Z"/></g>
<g fill="black" opacity=".8" transform="translate(400 200) scale(0.1 -0.1)"><path d="M0.0 0.0V-493.0H146.0V0.0ZM-307.0 0.0V-606.0H-284.0C-221.0 -606.0 -157.0 -570.0 -157.0 -555.0V-31.0H373.0V0.0H-147.0L-307.0 62.0ZM308.0 0.0V-589.0H334.0C386.0 -589.0 461.0 -561.0 461.0 -552.0V-56.0C484.0 -50.0 499.0 -40.0 505.0 -31.0L365.0 76.0L297.0 0.0ZM-230.0 -235.0V-266.0H369.0V-235.0ZM-230.0 -477.0V-508.0H369.0V-477.0Z"/></g>
<g fill="red" transform="translate(500 200) scale(0.1 -0.1)"><path d="M0.0 0.0V-607.0H44.0V0.0ZM-125.0 0.0V-711.0H-116.0C-97.0 -711.0 -81.0 -700.0 -81.0 -694.0V-30.0H144.0V0.0H-76.0L-125.0 26.0ZM128.0 0.0V-696.0H134.0C150.0 -696.0 171.0 -683.0 172.0 -676.0V-40.0C192.0 -36.0 210.0 -28.0 216.0 -20.0L148.0 34.0L118.0 0.0ZM-102.0 -293.0V-322.0H150.0V-293.0ZM-102.0 -596.0V-626.0H145.0V-596.0Z"/></g>
<g fill="black" opacity=".8" transform="translate(500 200) scale(0.1 -0.1)"><path d="M0.0 0.0V-604.0H44.0V0.0ZM-130.0 0.0V-731.0H-121.0C-101.0 -731.0 -86.0 -719.0 -86.0 -713.0V-30.0H153.0V0.0H-81.0L-130.0 26.0ZM133.0 0.0V-692.0H139.0C154.0 -692.0 176.0 -680.0 176.0 -673.0V-41.0C197.0 -36.0 215.0 -28.0 220.0 -20.0L153.0 32.0L123.0 0.0ZM-107.0 -291.0V-321.0H156.0V-291.0ZM-107.0 -592.0V-622.0H153.0V-592.0Z"/></g>
<g fill="red" transform="translate(600 200) scale(0.1 -0.1)"><path d="M0.0 0.0V-630.0H89.0V0.0ZM-136.0 0.0V-737.0H-119.0C-71.0 -737.0 -31.0 -712.0 -31.0 -699.0V-28.0H180.0V0.0H-26.0L-136.0 47.0ZM121.0 0.0V-711.0H139.0C177.0 -711.0 228.0 -686.0 229.0 -678.0V-43.0C247.0 -40.0 259.0 -32.0 265.0 -25.0L163.0 56.0L112.0 0.0ZM-80.0 -302.0V-330.0H195.0V-302.0ZM-80.0 -617.0V-645.0H195.0V-617.0Z"/></g>
<g fill="black" opacity=".8" transform="translate(600 200) scale(0.1 -0.1)"><path d="M0.0 0.0V-620.0H89.0V0.0ZM-131.0 0.0V-744.0H-115.0C-67.0 -744.0 -26.0 -718.0 -26.0 -705.0V-27.0H174.0V0.0H-23.0L-131.0 47.0ZM117.0 0.0V-701.0H134.0C173.0 -701.0 224.0 -677.0 224.0 -669.0V-44.0C244.0 -40.0 257.0 -32.0 263.0 -25.0L158.0 57.0L107.0 0.0ZM-76.0 -300.0V-329.0H181.0V-300.0ZM-76.0 -611.0V-638.0H181.0V-611.0Z"/></g>
<g fill="red" transform="translate(700 200) scale(0.1 -0.1)"><path d="M0.0 0.0V-621.0H44.0V0.0ZM-141.0 0.0V-727.0H-132.0C-112.0 -727.0 -97.0 -715.0 -97.0 -709.0V-30.0H170.0V0.0H-92.0L-141.0 26.0ZM142.0 0.0V-701.0H148.0C164.0 -701.0 186.0 -687.0 187.0 -680.0V-40.0C206.0 -36.0 224.0 -28.0 230.0 -20.0L162.0 34.0L133.0 0.0ZM-117.0 -299.0V-328.0H173.0V-299.0ZM-117.0 -607.0V-637.0H168.0V-607.0Z"/></g>
<g fill="black" opacity=".8" transform="translate(700 200) scale(0.1 -0.1)"><path d="M0.0 0.0V-613.0H45.0V0.0ZM-139.0 0.0V-741.0H-129.0C-109.0 -741.0 -94.0 -729.0 -94.0 -723.0V-31.0H162.0V0.0H-89.0L-139.0 26.0ZM142.0 0.0V-703.0H148.0C163.0 -703.0 186.0 -690.0 186.0 -683.0V-42.0C207.0 -37.0 225.0 -29.0 230.0 -20.0L162.0 33.0L132.0 0.0ZM-115.0 -295.0V-325.0H165.0V-295.0ZM-115.0 -601.0V-631.0H162.0V-601.0Z"/></g>
<g fill="red" transform="translate(800 200) scale(0.1 -0.1)"><path d="M0.0 0.0V-638.0H89.0V0.0ZM-137.0 0.0V-746.0H-120.0C-72.0 -746.0 -32.0 -720.0 -32.0 -707.0V-28.0H179.0V0.0H-27.0L-137.0 47.0ZM123.0 0.0V-719.0H141.0C179.0 -719.0 230.0 -694.0 231.0 -686.0V-43.0C249.0 -40.0 261.0 -32.0 267.0 -25.0L165.0 56.0L114.0 0.0ZM-81.0 -307.0V-335.0H194.0V-307.0ZM-81.0 -629.0V-657.0H194.0V-629.0Z"/></g>
<g fill="black" opacity=".8" transform="translate(800 200) scale(0.1 -0.1)"><path d="M0.0 0.0V-629.0H93.0V0.0ZM-139.0 0.0V-755.0H-122.0C-73.0 -755.0 -31.0 -728.0 -31.0 -715.0V-28.0H184.0V0.0H-27.0L-139.0 48.0ZM125.0 0.0V-712.0H143.0C183.0 -712.0 236.0 -687.0 236.0 -679.0V-45.0C256.0 -41.0 269.0 -33.0 276.0 -25.0L167.0 59.0L115.0 0.0ZM-83.0 -304.0V-333.0H191.0V-304.0ZM-83.0 -619.0V-648.0H191.0V-619.0Z"/></g>
<g fill="red" transform="translate(900 200) scale(0.1 -0.1)"><path d="M0.0 0.0V-326.0H44.0V0.0ZM-327.0 6.0V-394.0H-319.0C-301.0 -394.0 -283.0 -383.0 -283.0 -378.0V-23.0H362.0V6.0H-277.0L-327.0 32.0ZM329.0 6.0V-384.0H335.0C350.0 -384.0 372.0 -371.0 373.0 -365.0V-33.0C393.0 -29.0 410.0 -21.0 417.0 -14.0L349.0 39.0L319.0 6.0ZM-309.0 -149.0V-178.0H352.0V-149.0ZM-309.0 -310.0V-340.0H352.0V-310.0Z"/></g>
<g fill="black" opacity=".8" transform="translate(900 200) scale(0.1 -0.1)"><path d="M0.0 0.0V-326.0H40.0V0.0ZM-329.0 4.0V-393.0H-322.0C-305.0 -393.0 -289.0 -384.0 -289.0 -378.0V-23.0H367.0V4.0H-284.0L-329.0 28.0ZM331.0 4.0V-390.0H337.0C350.0 -390.0 370.0 -378.0 371.0 -372.0V-32.0C390.0 -28.0 405.0 -20.0 411.0 -14.0L350.0 34.0L322.0 4.0ZM-317.0 -150.0V-177.0H356.0V-150.0ZM-318.0 -311.0V-338.0H356.0V-311.0Z"/></g>
<g fill="red" transform="translate(1000 200) scale(0.1 -0.1)"><path d="M0.0 0.0V-331.0H140.0V0.0ZM-313.0 0.0V-418.0H-292.0C-234.0 -418.0 -171.0 -386.0 -171.0 -372.0V-28.0H383.0V0.0H-160.0L-313.0 58.0ZM317.0 0.0V-412.0H342.0C389.0 -412.0 461.0 -387.0 462.0 -380.0V-51.0C483.0 -47.0 495.0 -37.0 501.0 -29.0L370.0 70.0L307.0 0.0ZM-238.0 -155.0V-183.0H371.0V-155.0ZM-238.0 -317.0V-345.0H371.0V-317.0Z"/></g>
<g fill="black" opacity=".8" transform="translate(1000 200) scale(0.1 -0.1)"><path d="M0.0 0.0V-332.0H137.0V0.0ZM-311.0 0.0V-415.0H-291.0C-235.0 -415.0 -176.0 -384.0 -176.0 -370.0V-25.0H372.0V0.0H-166.0L-311.0 55.0ZM319.0 0.0V-413.0H342.0C388.0 -413.0 456.0 -389.0 457.0 -382.0V-48.0C476.0 -43.0 488.0 -35.0 493.0 -27.0L369.0 67.0L309.0 0.0ZM-242.0 -156.0V-182.0H365.0V-156.0ZM-242.0 -317.0V-343.0H365.0V-317.0Z"/></g>
<g fill="red" transform="translate(1100 200) scale(0.1 -0.1)"><path d="M0.0 0.0V-581.0H44.0V0.0ZM-125.0 0.0V-719.0H-116.0C-95.0 -719.0 -81.0 -707.0 -81.0 -701.0V-30.0H144.0V0.0H-76.0L-125.0 26.0ZM126.0 0.0V-675.0H132.0C148.0 -675.0 170.0 -662.0 170.0 -655.0V-40.0C190.0 -36.0 208.0 -28.0 214.0 -20.0L146.0 33.0L116.0 0.0ZM-102.0 -279.0V-308.0H150.0V-279.0ZM-102.0 -567.0V-597.0H145.0V-567.0Z"/></g>
<g fill="black" opacity=".8" transform="translate(1100 200) scale(0.1 -0.1)"><path d="M0.0 0.0V-586.0H43.0V0.0ZM-123.0 0.0V-709.0H-114.0C-95.0 -709.0 -80.0 -698.0 -80.0 -692.0V-29.0H145.0V0.0H-76.0L-123.0 25.0ZM126.0 0.0V-672.0H132.0C146.0 -672.0 168.0 -660.0 168.0 -653.0V-40.0C188.0 -35.0 205.0 -27.0 209.0 -19.0L145.0 31.0L116.0 0.0ZM-100.0 -283.0V-311.0H148.0V-283.0ZM-100.0 -575.0V-603.0H145.0V-575.0Z"/></g>
<g fill="red" transform="translate(1200 200) scale(0.1 -0.1)"><path d="M0.0 0.0V-594.0H81.0V0.0ZM-128.0 0.0V-725.0H-112.0C-67.0 -725.0 -30.0 -701.0 -30.0 -689.0V-28.0H155.0V0.0H-25.0L-128.0 45.0ZM111.0 0.0V-681.0H127.0C162.0 -681.0 210.0 -658.0 211.0 -650.0V-43.0C229.0 -39.0 242.0 -32.0 248.0 -24.0L150.0 53.0L102.0 0.0ZM-75.0 -287.0V-315.0H161.0V-287.0ZM-75.0 -586.0V-614.0H161.0V-586.0Z"/></g>
<g fill="black" opacity=".8" transform="translate(1200 200) scale(0.1 -0.1)"><path d="M0.0 0.0V-602.0H85.0V0.0ZM-124.0 0.0V-722.0H-108.0C-62.0 -722.0 -23.0 -697.0 -23.0 -684.0V-26.0H166.0V0.0H-20.0L-124.0 45.0ZM110.0 0.0V-680.0H127.0C164.0 -680.0 213.0 -656.0 213.0 -649.0V-42.0C232.0 -39.0 245.0 -31.0 250.0 -24.0L149.0 55.0L100.0 0.0ZM-72.0 -291.0V-319.0H173.0V-291.0ZM-72.0 -593.0V-620.0H173.0V-593.0Z"/></g>
<g fill="red" transform="translate(1300 200) scale(0.1 -0.1)"><path d="M0.0 0.0V-572.0H45.0V0.0ZM-168.0 0.0V-699.0H-159.0C-140.0 -699.0 -124.0 -688.0 -124.0 -682.0V-30.0H189.0V0.0H-119.0L-168.0 26.0ZM175.0 0.0V-650.0H181.0C196.0 -650.0 218.0 -637.0 219.0 -631.0V-40.0C239.0 -36.0 256.0 -28.0 262.0 -20.0L194.0 33.0L165.0 0.0ZM-145.0 -277.0V-306.0H192.0V-277.0ZM-145.0 -560.0V-589.0H192.0V-560.0Z"/></g>
<g fill="black" opacity=".8" transform="translate(1300 200) scale(0.1 -0.1)"><path d="M0.0 0.0V-573.0H45.0V0.0ZM-167.0 1.0V-693.0H-157.0C-138.0 -693.0 -123.0 -681.0 -123.0 -675.0V-30.0H193.0V1.0H-117.0L-167.0 27.0ZM170.0 1.0V-660.0H176.0C191.0 -660.0 214.0 -647.0 214.0 -640.0V-41.0C235.0 -36.0 252.0 -28.0 257.0 -19.0L190.0 33.0L160.0 1.0ZM-145.0 -275.0V-305.0H193.0V-275.0ZM-145.0 -560.0V-590.0H191.0V-560.0Z"/></g>
<g fill="red" transform="translate(1400 200) scale(0.1 -0.1)"><path d="M0.0 0.0V-590.0H105.0V0.0ZM-164.0 0.0V-713.0H-145.0C-91.0 -713.0 -44.0 -684.0 -44.0 -670.0V-28.0H209.0V0.0H-38.0L-164.0 52.0ZM151.0 0.0V-664.0H171.0C215.0 -664.0 275.0 -638.0 276.0 -629.0V-49.0C297.0 -44.0 310.0 -36.0 317.0 -27.0L199.0 65.0L141.0 0.0ZM-103.0 -288.0V-316.0H200.0V-288.0ZM-103.0 -580.0V-608.0H200.0V-580.0Z"/></g>
<g fill="black" opacity=".8" transform="translate(1400 200) scale(0.1 -0.1)"><path d="M0.0 0.0V-588.0H100.0V0.0ZM-165.0 0.0V-708.0H-147.0C-97.0 -708.0 -52.0 -680.0 -52.0 -667.0V-28.0H212.0V0.0H-47.0L-165.0 50.0ZM154.0 0.0V-671.0H173.0C213.0 -671.0 269.0 -646.0 269.0 -638.0V-46.0C289.0 -42.0 302.0 -34.0 308.0 -26.0L197.0 60.0L144.0 0.0ZM-106.0 -284.0V-312.0H217.0V-284.0ZM-106.0 -577.0V-605.0H217.0V-577.0Z"/></g>
<g fill="red" transform="translate(1500 200) scale(0.1 -0.1)"><path d="M0.0 0.0V-573.0H45.0V0.0ZM-157.0 0.0V-700.0H-148.0C-129.0 -700.0 -113.0 -688.0 -113.0 -682.0V-30.0H190.0V0.0H-108.0L-157.0 26.0ZM161.0 0.0V-650.0H167.0C183.0 -650.0 204.0 -638.0 205.0 -631.0V-40.0C225.0 -36.0 243.0 -28.0 249.0 -20.0L181.0 33.0L151.0 0.0ZM-134.0 -277.0V-307.0H184.0V-277.0ZM-134.0 -560.0V-589.0H184.0V-560.0Z"/></g>
<g fill="black" opacity=".8" transform="translate(1500 200) scale(0.1 -0.1)"><path d="M0.0 0.0V-575.0H44.0V0.0ZM-158.0 1.0V-696.0H-149.0C-129.0 -696.0 -114.0 -684.0 -114.0 -678.0V-30.0H183.0V1.0H-109.0L-158.0 26.0ZM161.0 1.0V-662.0H167.0C182.0 -662.0 204.0 -649.0 205.0 -642.0V-41.0C225.0 -36.0 243.0 -28.0 248.0 -19.0L181.0 33.0L151.0 1.0ZM-136.0 -276.0V-306.0H184.0V-276.0ZM-136.0 -563.0V-592.0H182.0V-563.0Z"/></g>
<g fill="red" transform="translate(1600 200) scale(0.1 -0.1)"><path d="M0.0 0.0V-590.0H103.0V0.0ZM-156.0 0.0V-713.0H-137.0C-85.0 -713.0 -39.0 -685.0 -39.0 -671.0V-28.0H217.0V0.0H-33.0L-156.0 51.0ZM141.0 0.0V-677.0H160.0C202.0 -677.0 259.0 -651.0 261.0 -643.0V-48.0C281.0 -44.0 295.0 -35.0 301.0 -27.0L187.0 63.0L131.0 0.0ZM-95.0 -288.0V-316.0H208.0V-288.0ZM-95.0 -580.0V-608.0H208.0V-580.0Z"/></g>
<g fill="black" opacity=".8" transform="translate(1600 200) scale(0.1 -0.1)"><path d="M0.0 0.0V-590.0H97.0V0.0ZM-157.0 0.0V-711.0H-140.0C-90.0 -711.0 -47.0 -683.0 -47.0 -670.0V-27.0H203.0V0.0H-42.0L-157.0 49.0ZM145.0 0.0V-672.0H164.0C203.0 -672.0 258.0 -648.0 258.0 -640.0V-45.0C278.0 -41.0 291.0 -33.0 297.0 -25.0L188.0 59.0L135.0 0.0ZM-99.0 -285.0V-314.0H208.0V-285.0ZM-99.0 -580.0V-608.0H208.0V-580.0Z"/></g>
</svg>
