<?xml version="1.0" encoding="UTF-8"?>
<svg width="1700" height="300" xmlns="http://www.w3.org/2000/svg">
<rect width="100%" height="100%" fill="white"/>
<g fill="green" transform="translate(100 100) scale(0.1 -0.1)"><path d="M0.0 0.0C-64.0 -231.0 -218.0 -403.0 -490.0 -496.0L-481.0 -513.0C-182.0 -428.0 -34.0 -260.0 45.0 -35.0C68.0 -34.0 79.0 -31.0 87.0 -23.0L27.0 34.0L-10.0 0.0ZM-303.0 0.0 -322.0 -9.0C-260.0 -265.0 -112.0 -425.0 123.0 -509.0C133.0 -484.0 152.0 -470.0 175.0 -468.0L177.0 -459.0C-69.0 -391.0 -238.0 -237.0 -303.0 0.0ZM-406.0 231.0V201.0H81.0V231.0ZM-403.0 0.0V-29.0H18.0V0.0ZM-200.0 390.0V-15.0H-156.0V353.0C-132.0 357.0 -121.0 367.0 -119.0 381.0ZM-430.0 231.0V41.0C-430.0 -140.0 -445.0 -337.0 -556.0 -502.0L-539.0 -514.0C-399.0 -349.0 -386.0 -121.0 -386.0 42.0V231.0H-376.0L-430.0 258.0V241.0ZM55.0 231.0C45.0 194.0 20.0 114.0 7.0 76.0L22.0 69.0C46.0 101.0 89.0 160.0 111.0 192.0C130.0 193.0 142.0 195.0 149.0 202.0L81.0 268.0L44.0 231.0Z"/></g>
<g fill="green" transform="translate(200 100) scale(0.1 -0.1)"><path d="M0.0 0.0C-53.0 -236.0 -199.0 -433.0 -451.0 -543.0L-445.0 -554.0C-111.0 -476.0 56.0 -292.0 139.0 -54.0C164.0 -51.0 174.0 -48.0 181.0 -36.0L61.0 72.0L-13.0 0.0ZM-229.0 0.0 -242.0 -6.0C-196.0 -303.0 -84.0 -448.0 97.0 -553.0C119.0 -488.0 163.0 -446.0 222.0 -436.0L224.0 -425.0C22.0 -360.0 -166.0 -248.0 -229.0 0.0ZM-311.0 226.0V198.0H97.0V226.0ZM-308.0 0.0V-28.0H57.0V0.0ZM-184.0 392.0V-25.0H-47.0V344.0C-12.0 349.0 -4.0 361.0 -2.0 378.0ZM-404.0 226.0V18.0C-404.0 -163.0 -412.0 -378.0 -515.0 -548.0L-506.0 -555.0C-283.0 -403.0 -268.0 -155.0 -268.0 18.0V226.0H-248.0L-404.0 279.0V236.0ZM39.0 226.0C36.0 186.0 29.0 113.0 23.0 70.0L31.0 65.0C74.0 92.0 136.0 139.0 172.0 170.0C193.0 171.0 203.0 174.0 211.0 183.0L95.0 293.0L28.0 226.0Z"/></g>
<g fill="green" transform="translate(300 100) scale(0.1 -0.1)"><path d="M0.0 0.0C-64.0 -231.0 -218.0 -403.0 -490.0 -496.0L-481.0 -513.0C-182.0 -428.0 -34.0 -260.0 45.0 -35.0C68.0 -34.0 79.0 -31.0 87.0 -23.0L27.0 34.0L-10.0 0.0ZM-303.0 0.0 -322.0 -9.0C-260.0 -265.0 -112.0 -425.0 123.0 -509.0C133.0 -484.0 152.0 -470.0 175.0 -468.0L177.0 -459.0C-69.0 -391.0 -238.0 -237.0 -303.0 0.0ZM-406.0 231.0V201.0H81.0V231.0ZM-403.0 0.0V-29.0H18.0V0.0ZM-200.0 390.0V-15.0H-156.0V353.0C-132.0 357.0 -121.0 367.0 -119.0 381.0ZM-430.0 231.0V41.0C-430.0 -140.0 -445.0 -337.0 -556.0 -502.0L-539.0 -514.0C-399.0 -349.0 -386.0 -121.0 -386.0 42.0V231.0H-376.0L-430.0 258.0V241.0ZM55.0 231.0C45.0 194.0 20.0 114.0 7.0 76.0L22.0 69.0C46.0 101.0 89.0 160.0 111.0 192.0C130.0 193.0 142.0 195.0 149.0 202.0L81.0 268.0L44.0 231.0Z"/></g>
<g fill="green" transform="translate(400 100) scale(0.1 -0.1)"><path d="M0.0 0.0C-53.0 -236.0 -199.0 -433.0 -451.0 -543.0L-445.0 -554.0C-111.0 -476.0 56.0 -292.0 139.0 -54.0C164.0 -51.0 174.0 -48.0 181.0 -36.0L61.0 72.0L-13.0 0.0ZM-229.0 0.0 -242.0 -6.0C-196.0 -303.0 -84.0 -448.0 97.0 -553.0C119.0 -488.0 163.0 -446.0 222.0 -436.0L224.0 -425.0C22.0 -360.0 -166.0 -248.0 -229.0 0.0ZM-311.0 226.0V198.0H97.0V226.0ZM-308.0 0.0V-28.0H57.0V0.0ZM-184.0 392.0V-25.0H-47.0V344.0C-12.0 349.0 -4.0 361.0 -2.0 378.0ZM-404.0 226.0V18.0C-404.0 -163.0 -412.0 -378.0 -515.0 -548.0L-506.0 -555.0C-283.0 -403.0 -268.0 -155.0 -268.0 18.0V226.0H-248.0L-404.0 279.0V236.0ZM39.0 226.0C36.0 186.0 29.0 113.0 23.0 70.0L31.0 65.0C74.0 92.0 136.0 139.0 172.0 170.0C193.0 171.0 203.0 174.0 211.0 183.0L95.0 293.0L28.0 226.0Z"/></g>
<g fill="red" transform="translate(100 200) scale(0.1 -0.1)"><path d="M0.0 0.0C-64.0 -231.0 -218.0 -403.0 -490.0 -496.0L-481.0 -513.0C-182.0 -428.0 -34.0 -260.0 45.0 -35.0C68.0 -34.0 79.0 -31.0 87.0 -23.0L27.0 34.0L-10.0 0.0ZM-303.0 0.0 -322.0 -9.0C-260.0 -265.0 -112.0 -425.0 123.0 -509.0C133.0 -484.0 152.0 -470.0 175.0 -468.0L177.0 -459.0C-69.0 -391.0 -238.0 -237.0 -303.0 0.0ZM-406.0 231.0V201.0H81.0V231.0ZM-403.0 0.0V-29.0H18.0V0.0ZM-200.0 390.0V-15.0H-156.0V353.0C-132.0 357.0 -121.0 367.0 -119.0 381.0ZM-430.0 231.0V41.0C-430.0 -140.0 -445.0 -337.0 -556.0 -502.0L-539.0 -514.0C-399.0 -349.0 -386.0 -121.0 -386.0 42.0V231.0H-376.0L-430.0 258.0V241.0ZM55.0 231.0C45.0 194.0 20.0 114.0 7.0 76.0L22.0 69.0C46.0 101.0 89.0 160.0 111.0 192.0C130.0 193.0 142.0 195.0 149.0 202.0L81.0 268.0L44.0 231.0Z"/></g>
<g fill="black" opacity=".8" transform="translate(100 200) scale(0.1 -0.1)"><path d="M0.0 0.0C-64.0 -231.0 -218.0 -403.0 -490.0 -496.0L-481.0 -513.0C-182.0 -428.0 -34.0 -260.0 45.0 -35.0C68.0 -34.0 79.0 -31.0 87.0 -23.0L27.0 34.0L-10.0 0.0ZM-303.0 0.0 -322.0 -9.0C-260.0 -265.0 -112.0 -425.0 123.0 -509.0C133.0 -484.0 152.0 -470.0 175.0 -468.0L177.0 -459.0C-69.0 -391.0 -238.0 -237.0 -303.0 0.0ZM-406.0 231.0V201.0H81.0V231.0ZM-403.0 0.0V-29.0H18.0V0.0ZM-200.0 390.0V-15.0H-156.0V353.0C-132.0 357.0 -121.0 367.0 -119.0 381.0ZM-430.0 231.0V41.0C-430.0 -140.0 -445.0 -337.0 -556.0 -502.0L-539.0 -514.0C-399.0 -349.0 -386.0 -121.0 -386.0 42.0V231.0H-376.0L-430.0 258.0V241.0ZM55.0 231.0C45.0 194.0 20.0 114.0 7.0 76.0L22.0 69.0C46.0 101.0 89.0 160.0 111.0 192.0C130.0 193.0 142.0 195.0 149.0 202.0L81.0 268.0L44.0 231.0Z"/></g>
<g fill="red" transform="translate(200 200) scale(0.1 -0.1)"><path d="M0.0 0.0C-53.0 -236.0 -199.0 -433.0 -451.0 -543.0L-445.0 -554.0C-111.0 -476.0 56.0 -292.0 139.0 -54.0C164.0 -51.0 174.0 -48.0 181.0 -36.0L61.0 72.0L-13.0 0.0ZM-229.0 0.0 -242.0 -6.0C-196.0 -303.0 -84.0 -448.0 97.0 -553.0C119.0 -488.0 163.0 -446.0 222.0 -436.0L224.0 -425.0C22.0 -360.0 -166.0 -248.0 -229.0 0.0ZM-311.0 226.0V198.0H97.0V226.0ZM-308.0 0.0V-28.0H57.0V0.0ZM-184.0 392.0V-25.0H-47.0V344.0C-12.0 349.0 -4.0 361.0 -2.0 378.0ZM-404.0 226.0V18.0C-404.0 -163.0 -412.0 -378.0 -515.0 -548.0L-506.0 -555.0C-283.0 -403.0 -268.0 -155.0 -268.0 18.0V226.0H-248.0L-404.0 279.0V236.0ZM39.0 226.0C36.0 186.0 29.0 113.0 23.0 70.0L31.0 65.0C74.0 92.0 136.0 139.0 172.0 170.0C193.0 171.0 203.0 174.0 211.0 183.0L95.0 293.0L28.0 226.0Z"/></g>
<g fill="black" opacity=".8" transform="translate(200 200) scale(0.1 -0.1)"><path d="M0.0 0.0C-53.0 -236.0 -199.0 -433.0 -451.0 -543.0L-445.0 -554.0C-111.0 -476.0 56.0 -292.0 139.0 -54.0C164.0 -51.0 174.0 -48.0 181.0 -36.0L61.0 72.0L-13.0 0.0ZM-229.0 0.0 -242.0 -6.0C-196.0 -303.0 -84.0 -448.0 97.0 -553.0C119.0 -488.0 163.0 -446.0 222.0 -436.0L224.0 -425.0C22.0 -360.0 -166.0 -248.0 -229.0 0.0ZM-311.0 226.0V198.0H97.0V226.0ZM-308.0 0.0V-28.0H57.0V0.0ZM-184.0 392.0V-25.0H-47.0V344.0C-12.0 349.0 -4.0 361.0 -2.0 378.0ZM-404.0 226.0V18.0C-404.0 -163.0 -412.0 -378.0 -515.0 -548.0L-506.0 -555.0C-283.0 -403.0 -268.0 -155.0 -268.0 18.0V226.0H-248.0L-404.0 279.0V236.0ZM39.0 226.0C36.0 186.0 29.0 113.0 23.0 70.0L31.0 65.0C74.0 92.0 136.0 139.0 172.0 170.0C193.0 171.0 203.0 174.0 211.0 183.0L95.0 293.0L28.0 226.0Z"/></g>
</svg>
