<?xml version="1.0" encoding="UTF-8"?>
<svg width="1700" height="300" xmlns="http://www.w3.org/2000/svg">
<rect width="100%" height="100%" fill="white"/>
<g fill="green" transform="translate(100 100) scale(0.1 -0.1)"><path d="M0.0 0.0V-267.0C0.0 -281.0 -4.0 -287.0 -23.0 -287.0C-46.0 -287.0 -146.0 -280.0 -146.0 -280.0V-296.0C-104.0 -299.0 -77.0 -306.0 -63.0 -314.0C-50.0 -321.0 -44.0 -333.0 -41.0 -346.0C36.0 -338.0 45.0 -311.0 45.0 -271.0V-39.0C64.0 -36.0 82.0 -28.0 88.0 -21.0L16.0 32.0L-9.0 0.0H0.0ZM-577.0 0.0V-340.0H-570.0C-551.0 -340.0 -532.0 -329.0 -532.0 -324.0V-30.0H32.0V0.0H-527.0L-577.0 26.0V0.0ZM-494.0 -161.0 -458.0 -222.0C-449.0 -219.0 -441.0 -213.0 -436.0 -201.0C-278.0 -180.0 -165.0 -164.0 -86.0 -151.0L-88.0 -132.0C-256.0 -146.0 -419.0 -159.0 -494.0 -161.0ZM-180.0 -62.0 -192.0 -71.0C-145.0 -108.0 -90.0 -176.0 -79.0 -229.0C-29.0 -264.0 3.0 -148.0 -180.0 -62.0ZM-515.0 358.0V45.0H-508.0C-489.0 45.0 -470.0 56.0 -470.0 61.0V328.0H-41.0V358.0H-465.0L-515.0 382.0V358.0ZM-67.0 358.0V55.0H-61.0C-46.0 55.0 -23.0 67.0 -22.0 73.0V318.0C-2.0 322.0 14.0 330.0 21.0 338.0L-47.0 390.0L-76.0 358.0H-67.0ZM-499.0 114.0V85.0H-45.0V114.0H-499.0ZM-499.0 236.0V207.0H-45.0V236.0H-499.0ZM-293.0 358.0V-166.0H-249.0V358.0H-293.0Z"/></g>
<g fill="green" transform="translate(200 100) scale(0.1 -0.1)"><path d="M0.0 0.0V-214.0C0.0 -226.0 -4.0 -232.0 -18.0 -232.0C-39.0 -232.0 -129.0 -226.0 -129.0 -226.0V-238.0C-80.0 -247.0 -63.0 -259.0 -49.0 -274.0C-34.0 -290.0 -30.0 -315.0 -28.0 -349.0C115.0 -338.0 136.0 -297.0 136.0 -225.0V-50.0C157.0 -46.0 169.0 -37.0 176.0 -29.0L49.0 66.0L-10.0 0.0H0.0ZM-513.0 0.0V-349.0H-494.0C-440.0 -349.0 -381.0 -320.0 -381.0 -308.0V-28.0H39.0V0.0H-373.0L-513.0 54.0V0.0ZM-368.0 -102.0 -304.0 -239.0C-293.0 -237.0 -282.0 -230.0 -275.0 -217.0C-161.0 -171.0 -87.0 -139.0 -39.0 -113.0V-101.0C-174.0 -103.0 -308.0 -104.0 -368.0 -102.0ZM-106.0 -39.0 -117.0 -43.0C-101.0 -81.0 -89.0 -137.0 -95.0 -185.0C-18.0 -267.0 102.0 -116.0 -106.0 -39.0ZM-462.0 370.0V37.0H-443.0C-389.0 37.0 -332.0 66.0 -332.0 78.0V342.0H-41.0V370.0H-326.0L-462.0 423.0V370.0ZM-59.0 370.0V54.0H-36.0C8.0 54.0 73.0 81.0 74.0 89.0V320.0C94.0 325.0 108.0 334.0 114.0 342.0L-10.0 435.0L-69.0 370.0H-59.0ZM-375.0 121.0V93.0H-10.0V121.0H-375.0ZM-375.0 246.0V218.0H-10.0V246.0H-375.0ZM-262.0 370.0V-135.0H-133.0V370.0H-262.0Z"/></g>
<g fill="green" transform="translate(300 100) scale(0.1 -0.1)"><path d="M0.0 0.0V-267.0C0.0 -281.0 -4.0 -287.0 -23.0 -287.0C-46.0 -287.0 -146.0 -280.0 -146.0 -280.0V-296.0C-104.0 -299.0 -77.0 -306.0 -63.0 -314.0C-50.0 -321.0 -44.0 -333.0 -41.0 -346.0C36.0 -338.0 45.0 -311.0 45.0 -271.0V-39.0C64.0 -36.0 82.0 -28.0 88.0 -21.0L16.0 32.0L-9.0 0.0H0.0ZM-577.0 0.0V-340.0H-570.0C-551.0 -340.0 -532.0 -329.0 -532.0 -324.0V-30.0H32.0V0.0H-527.0L-577.0 26.0V0.0ZM-494.0 -161.0 -458.0 -222.0C-449.0 -219.0 -441.0 -213.0 -436.0 -201.0C-278.0 -180.0 -165.0 -164.0 -86.0 -151.0L-88.0 -132.0C-256.0 -146.0 -419.0 -159.0 -494.0 -161.0ZM-180.0 -62.0 -192.0 -71.0C-145.0 -108.0 -90.0 -176.0 -79.0 -229.0C-29.0 -264.0 3.0 -148.0 -180.0 -62.0ZM-515.0 358.0V45.0H-508.0C-489.0 45.0 -470.0 56.0 -470.0 61.0V328.0H-41.0V358.0H-465.0L-515.0 382.0V358.0ZM-67.0 358.0V55.0H-61.0C-46.0 55.0 -23.0 67.0 -22.0 73.0V318.0C-2.0 322.0 14.0 330.0 21.0 338.0L-47.0 390.0L-76.0 358.0H-67.0ZM-499.0 114.0V85.0H-45.0V114.0H-499.0ZM-499.0 236.0V207.0H-45.0V236.0H-499.0ZM-293.0 358.0V-166.0H-249.0V358.0H-293.0Z"/></g>
<g fill="green" transform="translate(400 100) scale(0.1 -0.1)"><path d="M0.0 0.0V-214.0C0.0 -226.0 -4.0 -232.0 -18.0 -232.0C-39.0 -232.0 -129.0 -226.0 -129.0 -226.0V-238.0C-80.0 -247.0 -63.0 -259.0 -49.0 -274.0C-34.0 -290.0 -30.0 -315.0 -28.0 -349.0C115.0 -338.0 136.0 -297.0 136.0 -225.0V-50.0C157.0 -46.0 169.0 -37.0 176.0 -29.0L49.0 66.0L-10.0 0.0H0.0ZM-513.0 0.0V-349.0H-494.0C-440.0 -349.0 -381.0 -320.0 -381.0 -308.0V-28.0H39.0V0.0H-373.0L-513.0 54.0V0.0ZM-368.0 -102.0 -304.0 -239.0C-293.0 -237.0 -282.0 -230.0 -275.0 -217.0C-161.0 -171.0 -87.0 -139.0 -39.0 -113.0V-101.0C-174.0 -103.0 -308.0 -104.0 -368.0 -102.0ZM-106.0 -39.0 -117.0 -43.0C-101.0 -81.0 -89.0 -137.0 -95.0 -185.0C-18.0 -267.0 102.0 -116.0 -106.0 -39.0ZM-462.0 370.0V37.0H-443.0C-389.0 37.0 -332.0 66.0 -332.0 78.0V342.0H-41.0V370.0H-326.0L-462.0 423.0V370.0ZM-59.0 370.0V54.0H-36.0C8.0 54.0 73.0 81.0 74.0 89.0V320.0C94.0 325.0 108.0 334.0 114.0 342.0L-10.0 435.0L-69.0 370.0H-59.0ZM-375.0 121.0V93.0H-10.0V121.0H-375.0ZM-375.0 246.0V218.0H-10.0V246.0H-375.0ZM-262.0 370.0V-135.0H-133.0V370.0H-262.0Z"/></g>
<g fill="red" transform="translate(100 200) scale(0.1 -0.1)"><path d="M0.0 0.0V-267.0C0.0 -281.0 -4.0 -287.0 -23.0 -287.0C-46.0 -287.0 -146.0 -280.0 -146.0 -280.0V-296.0C-104.0 -299.0 -77.0 -306.0 -63.0 -314.0C-50.0 -321.0 -44.0 -333.0 -41.0 -346.0C36.0 -338.0 45.0 -311.0 45.0 -271.0V-39.0C64.0 -36.0 82.0 -28.0 88.0 -21.0L16.0 32.0L-9.0 0.0H0.0ZM-577.0 0.0V-340.0H-570.0C-551.0 -340.0 -532.0 -329.0 -532.0 -324.0V-30.0H32.0V0.0H-527.0L-577.0 26.0V0.0ZM-494.0 -161.0 -458.0 -222.0C-449.0 -219.0 -441.0 -213.0 -436.0 -201.0C-278.0 -180.0 -165.0 -164.0 -86.0 -151.0L-88.0 -132.0C-256.0 -146.0 -419.0 -159.0 -494.0 -161.0ZM-180.0 -62.0 -192.0 -71.0C-145.0 -108.0 -90.0 -176.0 -79.0 -229.0C-29.0 -264.0 3.0 -148.0 -180.0 -62.0ZM-515.0 358.0V45.0H-508.0C-489.0 45.0 -470.0 56.0 -470.0 61.0V328.0H-41.0V358.0H-465.0L-515.0 382.0V358.0ZM-67.0 358.0V55.0H-61.0C-46.0 55.0 -23.0 67.0 -22.0 73.0V318.0C-2.0 322.0 14.0 330.0 21.0 338.0L-47.0 390.0L-76.0 358.0H-67.0ZM-499.0 114.0V85.0H-45.0V114.0H-499.0ZM-499.0 236.0V207.0H-45.0V236.0H-499.0ZM-293.0 358.0V-166.0H-249.0V358.0H-293.0Z"/></g>
<g fill="black" opacity=".8" transform="translate(100 200) scale(0.1 -0.1)"><path d="M0.0 0.0V-267.0C0.0 -281.0 -4.0 -287.0 -23.0 -287.0C-46.0 -287.0 -146.0 -280.0 -146.0 -280.0V-296.0C-104.0 -299.0 -77.0 -306.0 -63.0 -314.0C-50.0 -321.0 -44.0 -333.0 -41.0 -346.0C36.0 -338.0 45.0 -311.0 45.0 -271.0V-39.0C64.0 -36.0 82.0 -28.0 88.0 -21.0L16.0 32.0L-9.0 0.0H0.0ZM-577.0 0.0V-340.0H-570.0C-551.0 -340.0 -532.0 -329.0 -532.0 -324.0V-30.0H32.0V0.0H-527.0L-577.0 26.0V0.0ZM-494.0 -161.0 -458.0 -222.0C-449.0 -219.0 -441.0 -213.0 -436.0 -201.0C-278.0 -180.0 -165.0 -164.0 -86.0 -151.0L-88.0 -132.0C-256.0 -146.0 -419.0 -159.0 -494.0 -161.0ZM-180.0 -62.0 -192.0 -71.0C-145.0 -108.0 -90.0 -176.0 -79.0 -229.0C-29.0 -264.0 3.0 -148.0 -180.0 -62.0ZM-515.0 358.0V45.0H-508.0C-489.0 45.0 -470.0 56.0 -470.0 61.0V328.0H-41.0V358.0H-465.0L-515.0 382.0V358.0ZM-67.0 358.0V55.0H-61.0C-46.0 55.0 -23.0 67.0 -22.0 73.0V318.0C-2.0 322.0 14.0 330.0 21.0 338.0L-47.0 390.0L-76.0 358.0H-67.0ZM-499.0 114.0V85.0H-45.0V114.0H-499.0ZM-499.0 236.0V207.0H-45.0V236.0H-499.0ZM-293.0 358.0V-166.0H-249.0V358.0H-293.0Z"/></g>
<g fill="red" transform="translate(200 200) scale(0.1 -0.1)"><path d="M0.0 0.0V-214.0C0.0 -226.0 -4.0 -232.0 -18.0 -232.0C-39.0 -232.0 -129.0 -226.0 -129.0 -226.0V-238.0C-80.0 -247.0 -63.0 -259.0 -49.0 -274.0C-34.0 -290.0 -30.0 -315.0 -28.0 -349.0C115.0 -338.0 136.0 -297.0 136.0 -225.0V-50.0C157.0 -46.0 169.0 -37.0 176.0 -29.0L49.0 66.0L-10.0 0.0H0.0ZM-513.0 0.0V-349.0H-494.0C-440.0 -349.0 -381.0 -320.0 -381.0 -308.0V-28.0H39.0V0.0H-373.0L-513.0 54.0V0.0ZM-368.0 -102.0 -304.0 -239.0C-293.0 -237.0 -282.0 -230.0 -275.0 -217.0C-161.0 -171.0 -87.0 -139.0 -39.0 -113.0V-101.0C-174.0 -103.0 -308.0 -104.0 -368.0 -102.0ZM-106.0 -39.0 -117.0 -43.0C-101.0 -81.0 -89.0 -137.0 -95.0 -185.0C-18.0 -267.0 102.0 -116.0 -106.0 -39.0ZM-462.0 370.0V37.0H-443.0C-389.0 37.0 -332.0 66.0 -332.0 78.0V342.0H-41.0V370.0H-326.0L-462.0 423.0V370.0ZM-59.0 370.0V54.0H-36.0C8.0 54.0 73.0 81.0 74.0 89.0V320.0C94.0 325.0 108.0 334.0 114.0 342.0L-10.0 435.0L-69.0 370.0H-59.0ZM-375.0 121.0V93.0H-10.0V121.0H-375.0ZM-375.0 246.0V218.0H-10.0V246.0H-375.0ZM-262.0 370.0V-135.0H-133.0V370.0H-262.0Z"/></g>
<g fill="black" opacity=".8" transform="translate(200 200) scale(0.1 -0.1)"><path d="M0.0 0.0V-214.0C0.0 -226.0 -4.0 -232.0 -18.0 -232.0C-39.0 -232.0 -129.0 -226.0 -129.0 -226.0V-238.0C-80.0 -247.0 -63.0 -259.0 -49.0 -274.0C-34.0 -290.0 -30.0 -315.0 -28.0 -349.0C115.0 -338.0 136.0 -297.0 136.0 -225.0V-50.0C157.0 -46.0 169.0 -37.0 176.0 -29.0L49.0 66.0L-10.0 0.0H0.0ZM-513.0 0.0V-349.0H-494.0C-440.0 -349.0 -381.0 -320.0 -381.0 -308.0V-28.0H39.0V0.0H-373.0L-513.0 54.0V0.0ZM-368.0 -102.0 -304.0 -239.0C-293.0 -237.0 -282.0 -230.0 -275.0 -217.0C-161.0 -171.0 -87.0 -139.0 -39.0 -113.0V-101.0C-174.0 -103.0 -308.0 -104.0 -368.0 -102.0ZM-106.0 -39.0 -117.0 -43.0C-101.0 -81.0 -89.0 -137.0 -95.0 -185.0C-18.0 -267.0 102.0 -116.0 -106.0 -39.0ZM-462.0 370.0V37.0H-443.0C-389.0 37.0 -332.0 66.0 -332.0 78.0V342.0H-41.0V370.0H-326.0L-462.0 423.0V370.0ZM-59.0 370.0V54.0H-36.0C8.0 54.0 73.0 81.0 74.0 89.0V320.0C94.0 325.0 108.0 334.0 114.0 342.0L-10.0 435.0L-69.0 370.0H-59.0ZM-375.0 121.0V93.0H-10.0V121.0H-375.0ZM-375.0 246.0V218.0H-10.0V246.0H-375.0ZM-262.0 370.0V-135.0H-133.0V370.0H-262.0Z"/></g>
</svg>
