<?xml version="1.0" encoding="UTF-8"?>
<svg width="1700" height="500" xmlns="http://www.w3.org/2000/svg">
<rect width="100%" height="100%" fill="white"/>
<g fill="green" transform="translate(100 100) scale(0.1 -0.1)"><path d="M0.0 0.0 -12.0 -9.0C34.0 -47.0 94.0 -116.0 109.0 -168.0C163.0 -203.0 193.0 -86.0 -0.0 -0.0ZM134.0 -888.0V-402.0L88.0 -446.0V-907.0H96.0C117.0 -907.0 134.0 -894.0 134.0 -888.0ZM126.0 -442.0 116.0 -452.0C168.0 -486.0 242.0 -552.0 266.0 -598.0C324.0 -628.0 344.0 -511.0 126.0 -442.0ZM212.0 -199.0H224.0C166.0 -343.0 13.0 -524.0 -132.0 -625.0L-119.0 -639.0C36.0 -544.0 193.0 -380.0 263.0 -234.0C288.0 -232.0 301.0 -232.0 310.0 -225.0L249.0 -165.0ZM244.0 -199.0H-125.0L-116.0 -229.0H244.0Z"/></g>
<g fill="green" transform="translate(200 100) scale(0.1 -0.1)"><path d="M0.0 0.0 -7.0 -5.0C27.0 -49.0 66.0 -115.0 81.0 -178.0C215.0 -262.0 324.0 -11.0 0.0 0.0ZM224.0 -920.0V-418.0L77.0 -537.0V-963.0H104.0C178.0 -963.0 224.0 -928.0 224.0 -920.0ZM208.0 -429.0 201.0 -433.0C236.0 -478.0 270.0 -545.0 277.0 -607.0C404.0 -700.0 528.0 -457.0 208.0 -429.0ZM197.0 -219.0H210.0C164.0 -367.0 41.0 -562.0 -103.0 -686.0L-96.0 -694.0C93.0 -603.0 265.0 -434.0 352.0 -283.0C378.0 -280.0 389.0 -277.0 399.0 -267.0L275.0 -146.0ZM272.0 -219.0H-89.0L-79.0 -247.0H272.0Z"/></g>
<g fill="green" transform="translate(300 100) scale(0.1 -0.1)"><path d="M0.0 0.0 -11.0 -8.0C32.0 -44.0 89.0 -109.0 103.0 -158.0C154.0 -191.0 181.0 -81.0 -0.0 0.0ZM127.0 -829.0V-376.0L84.0 -417.0V-847.0H92.0C111.0 -847.0 127.0 -835.0 127.0 -829.0ZM120.0 -413.0 111.0 -423.0C160.0 -455.0 230.0 -517.0 253.0 -560.0C308.0 -588.0 326.0 -478.0 120.0 -413.0ZM202.0 -185.0H213.0C158.0 -321.0 13.0 -490.0 -124.0 -584.0L-112.0 -597.0C35.0 -509.0 183.0 -355.0 250.0 -218.0C273.0 -216.0 285.0 -216.0 294.0 -210.0L237.0 -154.0ZM232.0 -185.0H-118.0L-110.0 -213.0H232.0Z"/></g>
<g fill="green" transform="translate(400 100) scale(0.1 -0.1)"><path d="M0.0 0.0 -7.0 -5.0C26.0 -46.0 64.0 -109.0 79.0 -168.0C205.0 -246.0 305.0 -9.0 0.0 0.0ZM213.0 -860.0V-392.0L75.0 -503.0V-900.0H100.0C170.0 -900.0 213.0 -867.0 213.0 -860.0ZM198.0 -401.0 191.0 -404.0C225.0 -447.0 257.0 -510.0 264.0 -568.0C384.0 -655.0 500.0 -425.0 198.0 -401.0ZM189.0 -204.0H201.0C158.0 -343.0 41.0 -526.0 -95.0 -642.0L-89.0 -650.0C89.0 -565.0 252.0 -406.0 334.0 -264.0C359.0 -262.0 369.0 -259.0 378.0 -249.0L262.0 -136.0ZM258.0 -204.0H-83.0L-73.0 -231.0H258.0Z"/></g>
<g fill="green" transform="translate(500 100) scale(0.1 -0.1)"><path d="M0.0 0.0 -13.0 -8.0C27.0 -43.0 75.0 -106.0 87.0 -153.0C140.0 -190.0 177.0 -76.0 0.0 0.0ZM112.0 -943.0V-404.0L64.0 -450.0V-964.0H72.0C94.0 -964.0 112.0 -950.0 112.0 -943.0ZM98.0 -443.0 86.0 -452.0C119.0 -481.0 161.0 -536.0 173.0 -574.0C222.0 -607.0 257.0 -506.0 98.0 -443.0ZM139.0 -218.0H151.0C110.0 -357.0 0.0 -553.0 -105.0 -669.0L-90.0 -681.0C28.0 -572.0 143.0 -397.0 195.0 -256.0C218.0 -254.0 232.0 -254.0 240.0 -246.0L176.0 -183.0ZM175.0 -219.0H-86.0L-76.0 -251.0H175.0Z"/></g>
<g fill="green" transform="translate(600 100) scale(0.1 -0.1)"><path d="M0.0 0.0 -8.0 -4.0C8.0 -41.0 21.0 -95.0 17.0 -147.0C128.0 -256.0 298.0 -49.0 0.0 0.0ZM169.0 -973.0V-411.0L31.0 -526.0V-1016.0H56.0C125.0 -1016.0 170.0 -981.0 169.0 -973.0ZM157.0 -427.0 148.0 -431.0C175.0 -467.0 195.0 -524.0 192.0 -575.0C293.0 -662.0 420.0 -465.0 157.0 -427.0ZM91.0 -239.0H105.0C79.0 -385.0 -3.0 -567.0 -117.0 -701.0L-108.0 -710.0C55.0 -615.0 183.0 -450.0 245.0 -302.0C271.0 -299.0 283.0 -296.0 293.0 -286.0L167.0 -166.0ZM177.0 -239.0H-90.0L-80.0 -269.0H177.0Z"/></g>
<g fill="green" transform="translate(700 100) scale(0.1 -0.1)"><path d="M0.0 0.0 -12.0 -9.0C34.0 -47.0 95.0 -116.0 110.0 -168.0C163.0 -202.0 193.0 -86.0 0.0 0.0ZM112.0 -881.0V-409.0L66.0 -452.0V-900.0H74.0C95.0 -900.0 112.0 -888.0 112.0 -881.0ZM109.0 -452.0 98.0 -462.0C159.0 -502.0 246.0 -577.0 273.0 -631.0C335.0 -661.0 352.0 -536.0 109.0 -452.0ZM205.0 -198.0H217.0C156.0 -339.0 -4.0 -512.0 -154.0 -608.0L-142.0 -622.0C18.0 -532.0 182.0 -376.0 256.0 -233.0C280.0 -230.0 294.0 -231.0 303.0 -224.0L243.0 -165.0ZM244.0 -198.0H-147.0L-138.0 -228.0H244.0Z"/></g>
<g fill="green" transform="translate(800 100) scale(0.1 -0.1)"><path d="M0.0 0.0 -7.0 -5.0C28.0 -49.0 68.0 -114.0 84.0 -177.0C219.0 -259.0 323.0 -6.0 0.0 0.0ZM207.0 -905.0V-422.0L60.0 -540.0V-948.0H87.0C161.0 -948.0 207.0 -913.0 207.0 -905.0ZM191.0 -459.0 183.0 -463.0C215.0 -517.0 251.0 -592.0 260.0 -660.0C385.0 -756.0 508.0 -518.0 191.0 -459.0ZM198.0 -211.0H211.0C163.0 -358.0 35.0 -551.0 -114.0 -671.0L-107.0 -680.0C85.0 -591.0 263.0 -424.0 353.0 -274.0C379.0 -272.0 390.0 -268.0 400.0 -259.0L277.0 -138.0ZM289.0 -211.0H-101.0L-91.0 -239.0H289.0Z"/></g>
<g fill="red" transform="translate(100 200) scale(0.1 -0.1)"><path d="M0.0 0.0 -12.0 -9.0C31.0 -45.0 86.0 -109.0 100.0 -158.0C152.0 -192.0 184.0 -80.0 0.0 0.0ZM102.0 -883.0V-403.0L57.0 -446.0V-903.0H64.0C85.0 -903.0 102.0 -889.0 102.0 -883.0ZM91.0 -443.0 80.0 -452.0C125.0 -486.0 186.0 -547.0 204.0 -593.0C258.0 -624.0 285.0 -513.0 91.0 -443.0ZM159.0 -204.0H171.0C122.0 -344.0 -10.0 -528.0 -136.0 -634.0L-123.0 -645.0C14.0 -547.0 150.0 -381.0 211.0 -239.0C235.0 -237.0 247.0 -237.0 256.0 -230.0L195.0 -170.0ZM197.0 -204.0H-125.0L-116.0 -234.0H197.0Z"/></g>
<g fill="black" opacity=".8" transform="translate(100 200) scale(0.1 -0.1)"><path d="M0.0 0.0 -12.0 -8.0C30.0 -44.0 84.0 -109.0 97.0 -158.0C149.0 -193.0 182.0 -80.0 0.0 0.0ZM106.0 -894.0V-401.0L60.0 -444.0V-913.0H68.0C89.0 -913.0 106.0 -901.0 106.0 -894.0ZM99.0 -441.0 87.0 -451.0C136.0 -486.0 202.0 -552.0 222.0 -599.0C277.0 -630.0 302.0 -517.0 99.0 -441.0ZM169.0 -204.0H180.0C129.0 -341.0 -5.0 -520.0 -132.0 -623.0L-119.0 -636.0C19.0 -540.0 158.0 -379.0 221.0 -240.0C244.0 -237.0 258.0 -238.0 266.0 -230.0L206.0 -171.0ZM207.0 -204.0H-119.0L-110.0 -235.0H207.0Z"/></g>
<g fill="red" transform="translate(200 200) scale(0.1 -0.1)"><path d="M0.0 0.0 -7.0 -5.0C21.0 -45.0 53.0 -103.0 63.0 -160.0C189.0 -247.0 308.0 -13.0 0.0 0.0ZM188.0 -913.0V-409.0L45.0 -525.0V-955.0H72.0C143.0 -955.0 188.0 -921.0 188.0 -913.0ZM168.0 -448.0 161.0 -453.0C196.0 -494.0 221.0 -560.0 219.0 -620.0C338.0 -720.0 472.0 -483.0 168.0 -448.0ZM147.0 -223.0H161.0C122.0 -371.0 12.0 -565.0 -121.0 -694.0L-114.0 -701.0C65.0 -608.0 222.0 -437.0 301.0 -286.0C326.0 -284.0 338.0 -280.0 347.0 -270.0L224.0 -150.0ZM235.0 -223.0H-97.0L-88.0 -251.0H235.0Z"/></g>
<g fill="black" opacity=".8" transform="translate(200 200) scale(0.1 -0.1)"><path d="M0.0 0.0 -7.0 -5.0C18.0 -44.0 45.0 -103.0 51.0 -159.0C172.0 -253.0 305.0 -26.0 0.0 0.0ZM182.0 -919.0V-410.0L42.0 -524.0V-961.0H67.0C138.0 -961.0 183.0 -926.0 182.0 -919.0ZM168.0 -441.0 160.0 -445.0C188.0 -491.0 216.0 -558.0 220.0 -618.0C331.0 -708.0 453.0 -495.0 168.0 -441.0ZM144.0 -219.0H157.0C120.0 -363.0 15.0 -547.0 -115.0 -671.0L-108.0 -680.0C68.0 -590.0 220.0 -427.0 295.0 -281.0C321.0 -279.0 332.0 -275.0 342.0 -266.0L220.0 -147.0ZM234.0 -219.0H-96.0L-86.0 -248.0H234.0Z"/></g>
<g fill="red" transform="translate(300 200) scale(0.1 -0.1)"><path d="M0.0 0.0 -12.0 -9.0C33.0 -47.0 93.0 -116.0 108.0 -167.0C161.0 -202.0 192.0 -86.0 0.0 0.0ZM127.0 -883.0V-403.0L82.0 -446.0V-903.0H89.0C110.0 -903.0 127.0 -889.0 127.0 -883.0ZM119.0 -442.0 108.0 -452.0C167.0 -491.0 248.0 -563.0 275.0 -615.0C334.0 -646.0 352.0 -525.0 119.0 -442.0ZM215.0 -205.0H227.0C167.0 -345.0 8.0 -518.0 -140.0 -614.0L-127.0 -628.0C31.0 -538.0 193.0 -382.0 266.0 -239.0C291.0 -238.0 304.0 -237.0 313.0 -230.0L252.0 -171.0ZM253.0 -204.0H-135.0L-126.0 -234.0H253.0Z"/></g>
<g fill="black" opacity=".8" transform="translate(300 200) scale(0.1 -0.1)"><path d="M0.0 0.0 -12.0 -9.0C34.0 -47.0 94.0 -116.0 109.0 -168.0C163.0 -203.0 193.0 -86.0 0.0 0.0ZM125.0 -885.0V-405.0L79.0 -449.0V-904.0H87.0C108.0 -904.0 125.0 -891.0 125.0 -885.0ZM119.0 -446.0 108.0 -456.0C164.0 -493.0 244.0 -562.0 269.0 -612.0C329.0 -642.0 347.0 -521.0 119.0 -446.0ZM209.0 -199.0H221.0C162.0 -341.0 6.0 -519.0 -141.0 -618.0L-129.0 -632.0C28.0 -539.0 188.0 -378.0 260.0 -234.0C285.0 -231.0 298.0 -232.0 307.0 -225.0L246.0 -165.0ZM244.0 -199.0H-134.0L-125.0 -229.0H244.0Z"/></g>
<g fill="red" transform="translate(400 200) scale(0.1 -0.1)"><path d="M0.0 0.0 -7.0 -5.0C25.0 -48.0 62.0 -112.0 75.0 -173.0C206.0 -259.0 320.0 -15.0 0.0 0.0ZM218.0 -912.0V-413.0L73.0 -530.0V-955.0H100.0C172.0 -955.0 217.0 -921.0 218.0 -912.0ZM209.0 -444.0 201.0 -449.0C230.0 -498.0 263.0 -567.0 271.0 -631.0C388.0 -722.0 507.0 -499.0 209.0 -444.0ZM196.0 -220.0H209.0C163.0 -365.0 40.0 -553.0 -103.0 -674.0L-96.0 -682.0C91.0 -594.0 262.0 -431.0 349.0 -283.0C375.0 -280.0 386.0 -277.0 395.0 -267.0L273.0 -148.0ZM269.0 -220.0H-92.0L-83.0 -248.0H269.0Z"/></g>
<g fill="black" opacity=".8" transform="translate(400 200) scale(0.1 -0.1)"><path d="M0.0 0.0 -7.0 -5.0C27.0 -49.0 67.0 -115.0 82.0 -178.0C217.0 -261.0 324.0 -9.0 0.0 0.0ZM217.0 -914.0V-420.0L70.0 -538.0V-957.0H97.0C171.0 -957.0 217.0 -922.0 217.0 -914.0ZM201.0 -442.0 193.0 -446.0C227.0 -494.0 262.0 -565.0 270.0 -629.0C396.0 -723.0 520.0 -482.0 201.0 -442.0ZM197.0 -216.0H210.0C164.0 -363.0 38.0 -557.0 -108.0 -680.0L-101.0 -688.0C90.0 -598.0 264.0 -430.0 352.0 -279.0C378.0 -277.0 389.0 -273.0 399.0 -264.0L276.0 -143.0ZM279.0 -216.0H-94.0L-84.0 -244.0H279.0Z"/></g>
<g fill="red" transform="translate(500 200) scale(0.1 -0.1)"><path d="M0.0 0.0 -12.0 -8.0C27.0 -42.0 74.0 -102.0 86.0 -147.0C136.0 -182.0 170.0 -74.0 0.0 0.0ZM106.0 -883.0V-390.0L61.0 -433.0V-903.0H68.0C89.0 -903.0 106.0 -889.0 106.0 -883.0ZM101.0 -437.0 89.0 -446.0C133.0 -480.0 189.0 -540.0 205.0 -585.0C257.0 -616.0 285.0 -511.0 101.0 -437.0ZM153.0 -204.0H165.0C119.0 -335.0 -2.0 -511.0 -117.0 -613.0L-103.0 -625.0C22.0 -529.0 148.0 -372.0 205.0 -239.0C228.0 -237.0 241.0 -237.0 250.0 -230.0L189.0 -171.0ZM191.0 -204.0H-108.0L-99.0 -234.0H191.0Z"/></g>
<g fill="black" opacity=".8" transform="translate(500 200) scale(0.1 -0.1)"><path d="M0.0 0.0 -12.0 -8.0C28.0 -42.0 78.0 -104.0 90.0 -151.0C141.0 -185.0 174.0 -76.0 0.0 0.0ZM97.0 -881.0V-391.0L52.0 -434.0V-901.0H60.0C80.0 -901.0 97.0 -889.0 97.0 -881.0ZM90.0 -431.0 78.0 -440.0C122.0 -474.0 181.0 -536.0 198.0 -581.0C251.0 -612.0 278.0 -504.0 90.0 -431.0ZM149.0 -202.0H161.0C114.0 -335.0 -9.0 -512.0 -125.0 -615.0L-112.0 -627.0C16.0 -531.0 143.0 -372.0 202.0 -238.0C223.0 -235.0 237.0 -236.0 245.0 -229.0L186.0 -170.0ZM188.0 -203.0H-110.0L-101.0 -233.0H188.0Z"/></g>
<g fill="red" transform="translate(600 200) scale(0.1 -0.1)"><path d="M0.0 0.0 -7.0 -4.0C11.0 -42.0 27.0 -96.0 26.0 -149.0C137.0 -250.0 288.0 -44.0 0.0 0.0ZM163.0 -902.0V-392.0L30.0 -501.0V-943.0H55.0C121.0 -943.0 163.0 -910.0 163.0 -902.0ZM153.0 -432.0 144.0 -437.0C167.0 -482.0 193.0 -547.0 196.0 -605.0C297.0 -693.0 416.0 -499.0 153.0 -432.0ZM116.0 -214.0H129.0C100.0 -353.0 11.0 -527.0 -106.0 -651.0L-98.0 -659.0C65.0 -571.0 197.0 -416.0 262.0 -274.0C287.0 -271.0 298.0 -268.0 307.0 -258.0L188.0 -144.0ZM198.0 -214.0H-96.0L-87.0 -242.0H198.0Z"/></g>
<g fill="black" opacity=".8" transform="translate(600 200) scale(0.1 -0.1)"><path d="M0.0 0.0 -8.0 -4.0C14.0 -41.0 35.0 -96.0 38.0 -149.0C151.0 -245.0 292.0 -32.0 0.0 0.0ZM166.0 -905.0V-399.0L31.0 -509.0V-946.0H55.0C123.0 -946.0 166.0 -912.0 166.0 -905.0ZM153.0 -432.0 144.0 -435.0C170.0 -479.0 195.0 -543.0 196.0 -599.0C299.0 -686.0 419.0 -487.0 153.0 -432.0ZM119.0 -217.0H132.0C100.0 -357.0 6.0 -533.0 -116.0 -655.0L-108.0 -665.0C58.0 -577.0 198.0 -419.0 266.0 -277.0C292.0 -275.0 303.0 -271.0 312.0 -262.0L193.0 -147.0ZM210.0 -217.0H-95.0L-85.0 -245.0H210.0Z"/></g>
<g fill="red" transform="translate(700 200) scale(0.1 -0.1)"><path d="M0.0 0.0 -12.0 -8.0C30.0 -44.0 81.0 -106.0 95.0 -154.0C146.0 -188.0 179.0 -78.0 0.0 0.0ZM90.0 -892.0V-404.0L45.0 -447.0V-913.0H52.0C73.0 -913.0 90.0 -899.0 90.0 -892.0ZM86.0 -438.0 75.0 -448.0C121.0 -480.0 183.0 -541.0 202.0 -586.0C255.0 -615.0 281.0 -506.0 86.0 -438.0ZM148.0 -204.0H160.0C113.0 -338.0 -10.0 -518.0 -129.0 -621.0L-116.0 -633.0C14.0 -536.0 142.0 -375.0 200.0 -239.0C223.0 -237.0 236.0 -237.0 245.0 -230.0L184.0 -170.0ZM181.0 -204.0H-118.0L-109.0 -234.0H181.0Z"/></g>
<g fill="black" opacity=".8" transform="translate(700 200) scale(0.1 -0.1)"><path d="M0.0 0.0 -12.0 -8.0C29.0 -43.0 81.0 -107.0 94.0 -155.0C145.0 -189.0 178.0 -78.0 0.0 0.0ZM97.0 -890.0V-399.0L51.0 -442.0V-910.0H59.0C80.0 -910.0 97.0 -898.0 97.0 -890.0ZM91.0 -440.0 79.0 -449.0C126.0 -485.0 191.0 -551.0 211.0 -598.0C266.0 -629.0 291.0 -518.0 91.0 -440.0ZM157.0 -204.0H168.0C119.0 -339.0 -11.0 -516.0 -133.0 -619.0L-120.0 -631.0C14.0 -535.0 148.0 -376.0 210.0 -240.0C232.0 -237.0 246.0 -238.0 254.0 -231.0L194.0 -171.0ZM197.0 -204.0H-119.0L-110.0 -235.0H197.0Z"/></g>
<g fill="red" transform="translate(800 200) scale(0.1 -0.1)"><path d="M0.0 0.0 -7.0 -5.0C16.0 -43.0 41.0 -98.0 46.0 -152.0C166.0 -244.0 297.0 -23.0 0.0 0.0ZM168.0 -911.0V-419.0L29.0 -531.0V-953.0H55.0C124.0 -953.0 168.0 -919.0 168.0 -911.0ZM158.0 -446.0 150.0 -451.0C179.0 -496.0 203.0 -562.0 202.0 -622.0C313.0 -720.0 445.0 -501.0 158.0 -446.0ZM144.0 -221.0H157.0C120.0 -362.0 15.0 -541.0 -115.0 -662.0L-107.0 -670.0C67.0 -584.0 218.0 -426.0 294.0 -282.0C319.0 -280.0 330.0 -276.0 339.0 -267.0L219.0 -150.0ZM226.0 -221.0H-92.0L-83.0 -249.0H226.0Z"/></g>
<g fill="black" opacity=".8" transform="translate(800 200) scale(0.1 -0.1)"><path d="M0.0 0.0 -8.0 -4.0C16.0 -43.0 40.0 -99.0 44.0 -154.0C162.0 -249.0 299.0 -29.0 0.0 0.0ZM170.0 -913.0V-407.0L32.0 -519.0V-955.0H57.0C126.0 -955.0 171.0 -921.0 170.0 -913.0ZM157.0 -444.0 148.0 -448.0C175.0 -495.0 201.0 -562.0 204.0 -621.0C310.0 -710.0 432.0 -506.0 157.0 -444.0ZM130.0 -217.0H143.0C109.0 -359.0 9.0 -540.0 -118.0 -663.0L-111.0 -672.0C61.0 -583.0 208.0 -423.0 280.0 -278.0C306.0 -277.0 317.0 -273.0 327.0 -264.0L206.0 -146.0ZM224.0 -217.0H-98.0L-88.0 -246.0H224.0Z"/></g>
<g fill="red" transform="translate(900 200) scale(0.1 -0.1)"><path d="M0.0 0.0 -12.0 -8.0C27.0 -42.0 74.0 -102.0 86.0 -147.0C136.0 -182.0 170.0 -74.0 0.0 0.0ZM86.0 -883.0V-390.0L41.0 -433.0V-903.0H48.0C69.0 -903.0 86.0 -889.0 86.0 -883.0ZM80.0 -437.0 68.0 -446.0C112.0 -480.0 168.0 -540.0 184.0 -585.0C236.0 -616.0 264.0 -511.0 80.0 -437.0ZM132.0 -204.0H144.0C101.0 -333.0 -15.0 -510.0 -123.0 -613.0L-109.0 -625.0C11.0 -528.0 130.0 -371.0 185.0 -239.0C207.0 -238.0 220.0 -237.0 228.0 -230.0L167.0 -171.0ZM177.0 -204.0H-108.0L-99.0 -234.0H177.0Z"/></g>
<g fill="black" opacity=".8" transform="translate(900 200) scale(0.1 -0.1)"><path d="M0.0 0.0 -12.0 -7.0C27.0 -41.0 75.0 -102.0 87.0 -148.0C137.0 -182.0 170.0 -74.0 0.0 0.0ZM88.0 -882.0V-391.0L43.0 -433.0V-902.0H51.0C71.0 -902.0 88.0 -890.0 88.0 -882.0ZM81.0 -431.0 69.0 -440.0C112.0 -474.0 169.0 -537.0 185.0 -582.0C237.0 -613.0 265.0 -507.0 81.0 -431.0ZM136.0 -203.0H148.0C103.0 -334.0 -15.0 -510.0 -125.0 -613.0L-112.0 -625.0C11.0 -529.0 133.0 -371.0 189.0 -239.0C210.0 -236.0 224.0 -237.0 232.0 -230.0L173.0 -172.0ZM177.0 -204.0H-109.0L-100.0 -234.0H177.0Z"/></g>
<g fill="red" transform="translate(1000 200) scale(0.1 -0.1)"><path d="M0.0 0.0 -7.0 -4.0C12.0 -40.0 33.0 -91.0 34.0 -142.0C148.0 -236.0 288.0 -26.0 0.0 0.0ZM153.0 -902.0V-392.0L20.0 -501.0V-943.0H45.0C111.0 -943.0 153.0 -910.0 153.0 -902.0ZM143.0 -432.0 134.0 -437.0C158.0 -483.0 183.0 -547.0 186.0 -606.0C293.0 -698.0 419.0 -494.0 143.0 -432.0ZM98.0 -214.0H111.0C83.0 -352.0 -3.0 -526.0 -116.0 -651.0L-108.0 -659.0C51.0 -571.0 180.0 -415.0 245.0 -274.0C269.0 -271.0 280.0 -268.0 289.0 -258.0L170.0 -144.0ZM198.0 -214.0H-96.0L-87.0 -242.0H198.0Z"/></g>
<g fill="black" opacity=".8" transform="translate(1000 200) scale(0.1 -0.1)"><path d="M0.0 0.0 -8.0 -4.0C11.0 -40.0 29.0 -93.0 29.0 -143.0C139.0 -242.0 287.0 -36.0 0.0 0.0ZM153.0 -903.0V-396.0L20.0 -505.0V-944.0H44.0C111.0 -944.0 153.0 -911.0 153.0 -903.0ZM141.0 -436.0 131.0 -439.0C156.0 -484.0 178.0 -548.0 179.0 -603.0C277.0 -690.0 396.0 -500.0 141.0 -436.0ZM103.0 -216.0H116.0C87.0 -355.0 -2.0 -528.0 -120.0 -650.0L-112.0 -660.0C50.0 -572.0 184.0 -416.0 250.0 -275.0C275.0 -274.0 286.0 -270.0 295.0 -261.0L177.0 -147.0ZM199.0 -216.0H-97.0L-87.0 -245.0H199.0Z"/></g>
<g fill="red" transform="translate(1100 200) scale(0.1 -0.1)"><path d="M0.0 0.0 -12.0 -9.0C31.0 -44.0 83.0 -108.0 98.0 -156.0C149.0 -190.0 181.0 -79.0 0.0 0.0ZM106.0 -880.0V-396.0L61.0 -439.0V-900.0H68.0C89.0 -900.0 106.0 -887.0 106.0 -880.0ZM103.0 -442.0 92.0 -452.0C143.0 -488.0 212.0 -554.0 235.0 -603.0C290.0 -633.0 314.0 -519.0 103.0 -442.0ZM168.0 -204.0H180.0C128.0 -339.0 -9.0 -514.0 -138.0 -613.0L-125.0 -626.0C14.0 -532.0 155.0 -376.0 220.0 -238.0C243.0 -237.0 256.0 -236.0 265.0 -230.0L204.0 -170.0ZM210.0 -204.0H-122.0L-113.0 -234.0H210.0Z"/></g>
<g fill="black" opacity=".8" transform="translate(1100 200) scale(0.1 -0.1)"><path d="M0.0 0.0 -12.0 -8.0C30.0 -44.0 83.0 -108.0 96.0 -156.0C148.0 -191.0 180.0 -79.0 0.0 0.0ZM105.0 -885.0V-396.0L59.0 -439.0V-904.0H67.0C88.0 -904.0 105.0 -892.0 105.0 -885.0ZM98.0 -437.0 87.0 -446.0C134.0 -481.0 199.0 -546.0 219.0 -592.0C274.0 -622.0 298.0 -511.0 98.0 -437.0ZM167.0 -202.0H178.0C128.0 -338.0 -5.0 -515.0 -130.0 -617.0L-117.0 -630.0C19.0 -534.0 156.0 -375.0 219.0 -237.0C241.0 -234.0 255.0 -235.0 263.0 -228.0L203.0 -169.0ZM204.0 -202.0H-118.0L-109.0 -232.0H204.0Z"/></g>
<g fill="red" transform="translate(1200 200) scale(0.1 -0.1)"><path d="M0.0 0.0 -7.0 -5.0C20.0 -46.0 50.0 -107.0 58.0 -165.0C182.0 -256.0 308.0 -24.0 0.0 0.0ZM174.0 -913.0V-409.0L33.0 -524.0V-955.0H59.0C129.0 -955.0 174.0 -921.0 174.0 -913.0ZM155.0 -423.0 147.0 -428.0C178.0 -475.0 213.0 -543.0 223.0 -605.0C340.0 -692.0 453.0 -469.0 155.0 -423.0ZM132.0 -220.0H145.0C109.0 -359.0 8.0 -539.0 -115.0 -661.0L-108.0 -669.0C60.0 -581.0 208.0 -423.0 284.0 -282.0C308.0 -279.0 320.0 -276.0 329.0 -266.0L207.0 -148.0ZM235.0 -219.0H-106.0L-97.0 -247.0H235.0Z"/></g>
<g fill="black" opacity=".8" transform="translate(1200 200) scale(0.1 -0.1)"><path d="M0.0 0.0 -7.0 -5.0C18.0 -44.0 44.0 -102.0 50.0 -158.0C170.0 -250.0 302.0 -26.0 0.0 0.0ZM180.0 -910.0V-406.0L42.0 -519.0V-951.0H67.0C137.0 -951.0 181.0 -917.0 180.0 -910.0ZM167.0 -436.0 158.0 -440.0C187.0 -485.0 214.0 -551.0 218.0 -610.0C327.0 -700.0 448.0 -488.0 167.0 -436.0ZM142.0 -217.0H155.0C119.0 -359.0 15.0 -541.0 -114.0 -664.0L-106.0 -673.0C67.0 -584.0 217.0 -423.0 292.0 -278.0C317.0 -276.0 328.0 -272.0 338.0 -263.0L217.0 -146.0ZM230.0 -217.0H-95.0L-85.0 -245.0H230.0Z"/></g>
<g fill="red" transform="translate(1300 200) scale(0.1 -0.1)"><path d="M0.0 0.0 -12.0 -8.0C28.0 -42.0 76.0 -103.0 89.0 -149.0C139.0 -184.0 173.0 -75.0 0.0 0.0ZM98.0 -892.0V-395.0L53.0 -438.0V-912.0H60.0C81.0 -912.0 98.0 -897.0 98.0 -892.0ZM82.0 -428.0 71.0 -437.0C115.0 -472.0 176.0 -534.0 194.0 -581.0C247.0 -611.0 274.0 -503.0 82.0 -428.0ZM149.0 -204.0H161.0C115.0 -335.0 -6.0 -511.0 -121.0 -613.0L-107.0 -625.0C18.0 -529.0 144.0 -372.0 201.0 -239.0C224.0 -237.0 237.0 -237.0 246.0 -230.0L185.0 -171.0ZM179.0 -204.0H-101.0L-92.0 -234.0H179.0Z"/></g>
<g fill="black" opacity=".8" transform="translate(1300 200) scale(0.1 -0.1)"><path d="M0.0 0.0 -12.0 -8.0C27.0 -42.0 77.0 -104.0 89.0 -150.0C140.0 -185.0 173.0 -75.0 0.0 0.0ZM97.0 -888.0V-392.0L51.0 -435.0V-908.0H59.0C80.0 -908.0 97.0 -896.0 97.0 -888.0ZM88.0 -431.0 77.0 -441.0C119.0 -474.0 175.0 -535.0 191.0 -579.0C243.0 -610.0 271.0 -504.0 88.0 -431.0ZM144.0 -204.0H156.0C111.0 -337.0 -9.0 -516.0 -122.0 -621.0L-108.0 -633.0C16.0 -535.0 140.0 -374.0 197.0 -240.0C219.0 -237.0 233.0 -238.0 241.0 -231.0L181.0 -172.0ZM183.0 -205.0H-106.0L-97.0 -235.0H183.0Z"/></g>
<g fill="red" transform="translate(1400 200) scale(0.1 -0.1)"><path d="M0.0 0.0 -7.0 -4.0C13.0 -44.0 34.0 -100.0 35.0 -155.0C150.0 -253.0 294.0 -39.0 0.0 0.0ZM154.0 -914.0V-408.0L20.0 -518.0V-954.0H44.0C111.0 -954.0 154.0 -922.0 154.0 -914.0ZM144.0 -418.0 135.0 -423.0C162.0 -468.0 186.0 -534.0 186.0 -593.0C285.0 -681.0 403.0 -485.0 144.0 -418.0ZM117.0 -223.0H130.0C97.0 -362.0 -1.0 -535.0 -127.0 -656.0L-119.0 -664.0C51.0 -579.0 193.0 -425.0 265.0 -283.0C289.0 -281.0 301.0 -277.0 309.0 -268.0L190.0 -153.0ZM208.0 -223.0H-95.0L-86.0 -251.0H208.0Z"/></g>
<g fill="black" opacity=".8" transform="translate(1400 200) scale(0.1 -0.1)"><path d="M0.0 0.0 -8.0 -4.0C12.0 -41.0 31.0 -95.0 32.0 -147.0C144.0 -245.0 291.0 -36.0 0.0 0.0ZM162.0 -912.0V-399.0L28.0 -509.0V-953.0H52.0C120.0 -953.0 163.0 -920.0 162.0 -912.0ZM150.0 -431.0 141.0 -434.0C167.0 -478.0 190.0 -540.0 191.0 -595.0C292.0 -682.0 413.0 -486.0 150.0 -431.0ZM111.0 -219.0H124.0C94.0 -359.0 3.0 -535.0 -117.0 -659.0L-109.0 -669.0C55.0 -580.0 192.0 -421.0 259.0 -279.0C284.0 -278.0 295.0 -274.0 304.0 -265.0L185.0 -149.0ZM202.0 -219.0H-94.0L-84.0 -248.0H202.0Z"/></g>
<g fill="red" transform="translate(1500 200) scale(0.1 -0.1)"><path d="M0.0 0.0 -12.0 -8.0C27.0 -42.0 74.0 -102.0 86.0 -147.0C136.0 -182.0 170.0 -74.0 0.0 0.0ZM102.0 -883.0V-390.0L57.0 -433.0V-903.0H64.0C85.0 -903.0 102.0 -889.0 102.0 -883.0ZM94.0 -408.0 83.0 -417.0C120.0 -445.0 168.0 -498.0 183.0 -536.0C232.0 -566.0 261.0 -467.0 94.0 -408.0ZM135.0 -204.0H147.0C105.0 -340.0 -7.0 -528.0 -116.0 -637.0L-102.0 -649.0C19.0 -546.0 135.0 -377.0 188.0 -239.0C211.0 -238.0 223.0 -237.0 231.0 -230.0L170.0 -170.0ZM178.0 -204.0H-107.0L-98.0 -234.0H178.0Z"/></g>
<g fill="black" opacity=".8" transform="translate(1500 200) scale(0.1 -0.1)"><path d="M0.0 0.0 -12.0 -7.0C27.0 -42.0 76.0 -103.0 88.0 -149.0C138.0 -184.0 171.0 -74.0 0.0 0.0ZM112.0 -882.0V-383.0L67.0 -426.0V-902.0H75.0C95.0 -902.0 112.0 -889.0 112.0 -882.0ZM100.0 -419.0 89.0 -429.0C125.0 -457.0 171.0 -512.0 185.0 -549.0C234.0 -580.0 264.0 -481.0 100.0 -419.0ZM149.0 -202.0H160.0C117.0 -336.0 3.0 -519.0 -105.0 -625.0L-91.0 -637.0C29.0 -537.0 147.0 -373.0 201.0 -238.0C223.0 -236.0 236.0 -236.0 244.0 -229.0L184.0 -170.0ZM182.0 -203.0H-90.0L-81.0 -233.0H182.0Z"/></g>
<g fill="red" transform="translate(1600 200) scale(0.1 -0.1)"><path d="M0.0 0.0 -8.0 -4.0C12.0 -47.0 31.0 -106.0 31.0 -164.0C145.0 -268.0 295.0 -53.0 0.0 0.0ZM175.0 -912.0V-402.0L42.0 -511.0V-953.0H67.0C133.0 -953.0 175.0 -920.0 175.0 -912.0ZM170.0 -402.0 162.0 -406.0C180.0 -441.0 199.0 -493.0 201.0 -542.0C300.0 -628.0 428.0 -442.0 170.0 -402.0ZM120.0 -224.0H133.0C104.0 -363.0 15.0 -537.0 -102.0 -661.0L-94.0 -669.0C69.0 -581.0 201.0 -426.0 266.0 -284.0C291.0 -281.0 302.0 -278.0 311.0 -268.0L192.0 -154.0ZM205.0 -224.0H-89.0L-80.0 -252.0H205.0Z"/></g>
<g fill="black" opacity=".8" transform="translate(1600 200) scale(0.1 -0.1)"><path d="M0.0 0.0 -8.0 -4.0C12.0 -41.0 30.0 -95.0 31.0 -147.0C141.0 -245.0 289.0 -38.0 0.0 0.0ZM174.0 -912.0V-392.0L41.0 -501.0V-952.0H64.0C131.0 -952.0 174.0 -919.0 174.0 -912.0ZM161.0 -405.0 153.0 -408.0C181.0 -445.0 203.0 -501.0 202.0 -551.0C304.0 -635.0 424.0 -437.0 161.0 -405.0ZM110.0 -222.0H123.0C95.0 -361.0 8.0 -537.0 -107.0 -662.0L-99.0 -671.0C61.0 -582.0 193.0 -424.0 257.0 -282.0C282.0 -280.0 293.0 -277.0 302.0 -267.0L183.0 -153.0ZM189.0 -222.0H-85.0L-75.0 -251.0H189.0Z"/></g>
<g fill="red" transform="translate(100 300) scale(0.1 -0.1)"><path d="M0.0 0.0 -12.0 -8.0C30.0 -44.0 81.0 -106.0 95.0 -154.0C146.0 -188.0 179.0 -78.0 0.0 0.0ZM114.0 -884.0V-391.0L69.0 -434.0V-904.0H76.0C97.0 -904.0 114.0 -890.0 114.0 -884.0ZM101.0 -436.0 90.0 -445.0C130.0 -473.0 181.0 -524.0 198.0 -561.0C249.0 -590.0 275.0 -487.0 101.0 -436.0ZM171.0 -199.0H183.0C135.0 -335.0 8.0 -516.0 -114.0 -620.0L-100.0 -632.0C32.0 -535.0 163.0 -372.0 223.0 -234.0C247.0 -232.0 259.0 -232.0 268.0 -225.0L207.0 -165.0ZM206.0 -199.0H-93.0L-84.0 -229.0H206.0Z"/></g>
<g fill="black" opacity=".8" transform="translate(100 300) scale(0.1 -0.1)"><path d="M0.0 0.0 -12.0 -8.0C29.0 -43.0 81.0 -106.0 94.0 -154.0C145.0 -188.0 177.0 -78.0 0.0 0.0ZM110.0 -882.0V-390.0L65.0 -434.0V-902.0H73.0C93.0 -902.0 110.0 -889.0 110.0 -882.0ZM101.0 -429.0 90.0 -439.0C133.0 -471.0 191.0 -531.0 209.0 -574.0C261.0 -604.0 288.0 -498.0 101.0 -429.0ZM163.0 -201.0H174.0C127.0 -337.0 0.0 -517.0 -120.0 -620.0L-106.0 -633.0C25.0 -535.0 156.0 -374.0 215.0 -237.0C237.0 -234.0 251.0 -235.0 259.0 -228.0L199.0 -169.0ZM198.0 -202.0H-106.0L-97.0 -232.0H198.0Z"/></g>
<g fill="red" transform="translate(200 300) scale(0.1 -0.1)"><path d="M0.0 0.0 -7.0 -5.0C16.0 -43.0 41.0 -98.0 46.0 -152.0C166.0 -244.0 297.0 -23.0 0.0 0.0ZM178.0 -911.0V-398.0L39.0 -512.0V-953.0H65.0C134.0 -953.0 178.0 -919.0 178.0 -911.0ZM155.0 -430.0 147.0 -435.0C180.0 -474.0 210.0 -536.0 214.0 -592.0C329.0 -679.0 445.0 -456.0 155.0 -430.0ZM134.0 -211.0H147.0C112.0 -356.0 11.0 -542.0 -117.0 -669.0L-109.0 -677.0C64.0 -586.0 211.0 -421.0 285.0 -273.0C309.0 -270.0 321.0 -267.0 330.0 -257.0L209.0 -139.0ZM216.0 -211.0H-87.0L-78.0 -239.0H216.0Z"/></g>
<g fill="black" opacity=".8" transform="translate(200 300) scale(0.1 -0.1)"><path d="M0.0 0.0 -8.0 -4.0C16.0 -43.0 40.0 -100.0 45.0 -155.0C162.0 -248.0 298.0 -29.0 0.0 0.0ZM181.0 -910.0V-400.0L44.0 -512.0V-951.0H69.0C138.0 -951.0 182.0 -917.0 181.0 -910.0ZM168.0 -422.0 159.0 -425.0C188.0 -467.0 214.0 -529.0 216.0 -584.0C324.0 -671.0 445.0 -463.0 168.0 -422.0ZM133.0 -219.0H146.0C113.0 -360.0 14.0 -540.0 -110.0 -664.0L-102.0 -673.0C67.0 -584.0 211.0 -423.0 282.0 -280.0C307.0 -278.0 318.0 -274.0 328.0 -265.0L208.0 -149.0ZM216.0 -219.0H-90.0L-80.0 -247.0H216.0Z"/></g>
<g fill="red" transform="translate(300 300) scale(0.1 -0.1)"><path d="M0.0 0.0 -12.0 -8.0C27.0 -42.0 74.0 -102.0 86.0 -147.0C136.0 -182.0 170.0 -74.0 0.0 0.0ZM102.0 -886.0V-386.0L57.0 -429.0V-907.0H64.0C85.0 -907.0 102.0 -893.0 102.0 -886.0ZM91.0 -432.0 79.0 -440.0C114.0 -471.0 158.0 -526.0 170.0 -565.0C217.0 -598.0 251.0 -499.0 91.0 -432.0ZM133.0 -209.0H145.0C106.0 -341.0 1.0 -525.0 -99.0 -634.0L-86.0 -645.0C27.0 -543.0 136.0 -378.0 186.0 -244.0C208.0 -243.0 221.0 -242.0 229.0 -235.0L168.0 -175.0ZM169.0 -209.0H-78.0L-69.0 -239.0H169.0Z"/></g>
<g fill="black" opacity=".8" transform="translate(300 300) scale(0.1 -0.1)"><path d="M0.0 0.0 -12.0 -7.0C26.0 -41.0 73.0 -101.0 84.0 -146.0C134.0 -181.0 169.0 -73.0 0.0 0.0ZM102.0 -891.0V-385.0L57.0 -429.0V-912.0H65.0C85.0 -912.0 102.0 -899.0 102.0 -891.0ZM91.0 -423.0 79.0 -432.0C113.0 -461.0 158.0 -516.0 170.0 -554.0C219.0 -586.0 250.0 -487.0 91.0 -423.0ZM134.0 -206.0H145.0C105.0 -338.0 -4.0 -521.0 -106.0 -630.0L-92.0 -641.0C23.0 -540.0 135.0 -375.0 187.0 -242.0C208.0 -240.0 222.0 -240.0 230.0 -233.0L169.0 -173.0ZM170.0 -207.0H-89.0L-80.0 -237.0H170.0Z"/></g>
<g fill="red" transform="translate(400 300) scale(0.1 -0.1)"><path d="M0.0 0.0 -7.0 -4.0C9.0 -39.0 25.0 -89.0 23.0 -138.0C131.0 -237.0 283.0 -37.0 0.0 0.0ZM158.0 -916.0V-381.0L25.0 -491.0V-957.0H50.0C116.0 -957.0 158.0 -925.0 158.0 -916.0ZM148.0 -409.0 139.0 -414.0C165.0 -451.0 188.0 -508.0 187.0 -560.0C284.0 -642.0 399.0 -453.0 148.0 -409.0ZM90.0 -224.0H103.0C77.0 -362.0 -4.0 -538.0 -113.0 -665.0L-105.0 -673.0C50.0 -583.0 175.0 -425.0 237.0 -284.0C261.0 -281.0 272.0 -278.0 281.0 -268.0L162.0 -154.0ZM179.0 -224.0H-86.0L-77.0 -252.0H179.0Z"/></g>
<g fill="black" opacity=".8" transform="translate(400 300) scale(0.1 -0.1)"><path d="M0.0 0.0 -8.0 -4.0C9.0 -39.0 23.0 -91.0 20.0 -141.0C127.0 -243.0 284.0 -44.0 0.0 0.0ZM159.0 -919.0V-392.0L28.0 -501.0V-959.0H51.0C117.0 -959.0 160.0 -926.0 159.0 -919.0ZM148.0 -413.0 139.0 -416.0C165.0 -454.0 184.0 -510.0 183.0 -560.0C279.0 -644.0 399.0 -456.0 148.0 -413.0ZM92.0 -224.0H105.0C79.0 -363.0 -2.0 -536.0 -113.0 -662.0L-105.0 -671.0C52.0 -581.0 177.0 -424.0 238.0 -284.0C263.0 -282.0 274.0 -278.0 283.0 -269.0L164.0 -155.0ZM176.0 -224.0H-88.0L-78.0 -253.0H176.0Z"/></g>
<g fill="red" transform="translate(500 300) scale(0.1 -0.1)"><path d="M0.0 0.0 -12.0 -8.0C25.0 -41.0 70.0 -100.0 82.0 -143.0C131.0 -177.0 167.0 -71.0 0.0 0.0ZM105.0 -885.0V-381.0L61.0 -423.0V-907.0H67.0C88.0 -907.0 105.0 -892.0 105.0 -885.0ZM98.0 -429.0 86.0 -438.0C127.0 -471.0 179.0 -529.0 195.0 -573.0C244.0 -604.0 273.0 -502.0 98.0 -429.0ZM134.0 -208.0H146.0C107.0 -341.0 0.0 -528.0 -102.0 -638.0L-88.0 -648.0C27.0 -546.0 137.0 -378.0 187.0 -243.0C209.0 -242.0 222.0 -241.0 230.0 -234.0L169.0 -174.0ZM172.0 -208.0H-84.0L-75.0 -238.0H172.0Z"/></g>
<g fill="black" opacity=".8" transform="translate(500 300) scale(0.1 -0.1)"><path d="M0.0 0.0 -12.0 -7.0C26.0 -41.0 72.0 -101.0 83.0 -146.0C134.0 -181.0 168.0 -72.0 0.0 0.0ZM96.0 -895.0V-388.0L50.0 -432.0V-915.0H58.0C78.0 -915.0 96.0 -902.0 96.0 -895.0ZM85.0 -427.0 73.0 -436.0C109.0 -467.0 156.0 -523.0 169.0 -564.0C218.0 -595.0 249.0 -495.0 85.0 -427.0ZM129.0 -207.0H141.0C100.0 -338.0 -9.0 -521.0 -111.0 -629.0L-97.0 -640.0C18.0 -539.0 131.0 -376.0 183.0 -243.0C204.0 -241.0 218.0 -241.0 226.0 -234.0L165.0 -175.0ZM167.0 -208.0H-93.0L-84.0 -238.0H167.0Z"/></g>
<g fill="red" transform="translate(600 300) scale(0.1 -0.1)"><path d="M0.0 0.0 -7.0 -4.0C7.0 -37.0 19.0 -85.0 15.0 -132.0C119.0 -233.0 279.0 -42.0 0.0 0.0ZM153.0 -918.0V-386.0L23.0 -494.0V-958.0H47.0C111.0 -958.0 153.0 -926.0 153.0 -918.0ZM147.0 -440.0 138.0 -445.0C161.0 -479.0 179.0 -532.0 176.0 -580.0C267.0 -662.0 384.0 -485.0 147.0 -440.0ZM76.0 -225.0H89.0C66.0 -361.0 -10.0 -531.0 -112.0 -658.0L-104.0 -665.0C45.0 -576.0 163.0 -422.0 221.0 -284.0C245.0 -282.0 257.0 -278.0 265.0 -269.0L147.0 -156.0ZM146.0 -225.0H-86.0L-77.0 -253.0H146.0Z"/></g>
<g fill="black" opacity=".8" transform="translate(600 300) scale(0.1 -0.1)"><path d="M0.0 0.0 -8.0 -4.0C8.0 -39.0 21.0 -90.0 18.0 -140.0C124.0 -243.0 284.0 -44.0 0.0 0.0ZM153.0 -920.0V-394.0L21.0 -503.0V-961.0H45.0C111.0 -961.0 154.0 -927.0 153.0 -920.0ZM142.0 -422.0 132.0 -425.0C157.0 -465.0 177.0 -523.0 175.0 -574.0C270.0 -659.0 391.0 -473.0 142.0 -422.0ZM88.0 -223.0H101.0C76.0 -362.0 -5.0 -535.0 -117.0 -660.0L-108.0 -670.0C49.0 -580.0 174.0 -424.0 234.0 -283.0C259.0 -281.0 271.0 -278.0 280.0 -268.0L160.0 -154.0ZM177.0 -223.0H-92.0L-82.0 -253.0H177.0Z"/></g>
<g fill="red" transform="translate(700 300) scale(0.1 -0.1)"><path d="M0.0 0.0 -12.0 -8.0C28.0 -42.0 76.0 -103.0 89.0 -149.0C139.0 -184.0 173.0 -75.0 0.0 0.0ZM98.0 -892.0V-395.0L53.0 -438.0V-912.0H60.0C81.0 -912.0 98.0 -897.0 98.0 -892.0ZM81.0 -428.0 69.0 -436.0C105.0 -467.0 150.0 -523.0 163.0 -564.0C211.0 -596.0 245.0 -495.0 81.0 -428.0ZM146.0 -204.0H158.0C112.0 -336.0 -9.0 -514.0 -124.0 -617.0L-110.0 -629.0C16.0 -532.0 141.0 -373.0 198.0 -239.0C221.0 -237.0 234.0 -237.0 243.0 -230.0L182.0 -170.0ZM174.0 -204.0H-101.0L-92.0 -234.0H174.0Z"/></g>
<g fill="black" opacity=".8" transform="translate(700 300) scale(0.1 -0.1)"><path d="M0.0 0.0 -12.0 -7.0C27.0 -42.0 75.0 -103.0 87.0 -149.0C138.0 -184.0 172.0 -74.0 0.0 0.0ZM104.0 -889.0V-388.0L59.0 -431.0V-909.0H67.0C87.0 -909.0 104.0 -896.0 104.0 -889.0ZM94.0 -426.0 83.0 -435.0C120.0 -465.0 169.0 -522.0 183.0 -562.0C233.0 -593.0 263.0 -491.0 94.0 -426.0ZM144.0 -204.0H155.0C112.0 -338.0 -3.0 -520.0 -111.0 -627.0L-98.0 -638.0C23.0 -539.0 142.0 -375.0 197.0 -240.0C218.0 -238.0 232.0 -238.0 240.0 -231.0L179.0 -172.0ZM180.0 -205.0H-95.0L-86.0 -235.0H180.0Z"/></g>
<g fill="red" transform="translate(800 300) scale(0.1 -0.1)"><path d="M0.0 0.0 -7.0 -4.0C11.0 -40.0 30.0 -92.0 31.0 -142.0C142.0 -238.0 287.0 -31.0 0.0 0.0ZM168.0 -913.0V-399.0L34.0 -510.0V-954.0H58.0C125.0 -954.0 168.0 -921.0 168.0 -913.0ZM148.0 -407.0 140.0 -412.0C171.0 -452.0 197.0 -513.0 198.0 -570.0C309.0 -659.0 431.0 -443.0 148.0 -407.0ZM110.0 -223.0H123.0C93.0 -367.0 4.0 -548.0 -115.0 -677.0L-107.0 -684.0C58.0 -593.0 192.0 -430.0 258.0 -284.0C283.0 -281.0 294.0 -278.0 303.0 -268.0L183.0 -152.0ZM189.0 -223.0H-86.0L-77.0 -251.0H189.0Z"/></g>
<g fill="black" opacity=".8" transform="translate(800 300) scale(0.1 -0.1)"><path d="M0.0 0.0 -8.0 -4.0C11.0 -40.0 29.0 -94.0 29.0 -146.0C139.0 -245.0 289.0 -39.0 0.0 0.0ZM166.0 -916.0V-395.0L33.0 -505.0V-957.0H57.0C124.0 -957.0 167.0 -924.0 166.0 -916.0ZM154.0 -417.0 145.0 -420.0C172.0 -459.0 194.0 -518.0 194.0 -570.0C294.0 -655.0 415.0 -460.0 154.0 -417.0ZM106.0 -222.0H119.0C90.0 -362.0 3.0 -537.0 -112.0 -663.0L-104.0 -672.0C57.0 -582.0 189.0 -424.0 253.0 -282.0C278.0 -280.0 289.0 -277.0 298.0 -267.0L179.0 -153.0ZM190.0 -222.0H-89.0L-79.0 -251.0H190.0Z"/></g>
<g fill="red" transform="translate(900 300) scale(0.1 -0.1)"><path d="M0.0 0.0 -12.0 -8.0C27.0 -42.0 74.0 -102.0 86.0 -147.0C136.0 -182.0 170.0 -74.0 0.0 0.0ZM96.0 -888.0V-395.0L51.0 -438.0V-908.0H58.0C79.0 -908.0 96.0 -894.0 96.0 -888.0ZM84.0 -432.0 72.0 -440.0C109.0 -475.0 155.0 -536.0 166.0 -582.0C214.0 -616.0 249.0 -513.0 84.0 -432.0ZM137.0 -209.0H149.0C106.0 -338.0 -10.0 -515.0 -118.0 -618.0L-104.0 -630.0C16.0 -533.0 135.0 -376.0 190.0 -244.0C212.0 -243.0 225.0 -242.0 233.0 -235.0L172.0 -176.0ZM168.0 -209.0H-98.0L-89.0 -239.0H168.0Z"/></g>
<g fill="black" opacity=".8" transform="translate(900 300) scale(0.1 -0.1)"><path d="M0.0 0.0 -12.0 -7.0C26.0 -41.0 73.0 -102.0 85.0 -147.0C135.0 -182.0 169.0 -73.0 0.0 0.0ZM98.0 -890.0V-388.0L52.0 -431.0V-910.0H60.0C81.0 -910.0 98.0 -898.0 98.0 -890.0ZM88.0 -426.0 76.0 -435.0C113.0 -466.0 161.0 -523.0 175.0 -564.0C224.0 -595.0 255.0 -494.0 88.0 -426.0ZM134.0 -205.0H146.0C104.0 -337.0 -7.0 -519.0 -112.0 -626.0L-99.0 -637.0C19.0 -537.0 134.0 -375.0 188.0 -242.0C209.0 -239.0 223.0 -240.0 231.0 -232.0L170.0 -173.0ZM172.0 -206.0H-95.0L-86.0 -237.0H172.0Z"/></g>
<g fill="red" transform="translate(1000 300) scale(0.1 -0.1)"><path d="M0.0 0.0 -7.0 -4.0C9.0 -39.0 25.0 -89.0 23.0 -138.0C131.0 -237.0 283.0 -37.0 0.0 0.0ZM158.0 -911.0V-397.0L25.0 -506.0V-952.0H50.0C116.0 -952.0 158.0 -920.0 158.0 -911.0ZM140.0 -410.0 131.0 -416.0C162.0 -451.0 182.0 -510.0 176.0 -562.0C271.0 -648.0 388.0 -454.0 140.0 -410.0ZM98.0 -229.0H111.0C83.0 -367.0 -3.0 -541.0 -116.0 -666.0L-108.0 -674.0C51.0 -586.0 180.0 -430.0 245.0 -289.0C269.0 -286.0 280.0 -283.0 289.0 -273.0L170.0 -159.0ZM198.0 -229.0H-96.0L-87.0 -257.0H198.0Z"/></g>
<g fill="black" opacity=".8" transform="translate(1000 300) scale(0.1 -0.1)"><path d="M0.0 0.0 -8.0 -4.0C9.0 -39.0 24.0 -92.0 23.0 -142.0C130.0 -243.0 285.0 -42.0 0.0 0.0ZM157.0 -916.0V-394.0L25.0 -503.0V-957.0H49.0C115.0 -957.0 158.0 -923.0 157.0 -916.0ZM146.0 -421.0 136.0 -424.0C162.0 -464.0 182.0 -523.0 181.0 -574.0C278.0 -659.0 399.0 -470.0 146.0 -421.0ZM95.0 -222.0H108.0C81.0 -361.0 -2.0 -534.0 -115.0 -659.0L-107.0 -669.0C51.0 -579.0 179.0 -423.0 241.0 -282.0C267.0 -280.0 278.0 -276.0 287.0 -267.0L168.0 -153.0ZM183.0 -222.0H-91.0L-81.0 -251.0H183.0Z"/></g>
<g fill="red" transform="translate(1100 300) scale(0.1 -0.1)"><path d="M0.0 0.0 -12.0 -8.0C25.0 -41.0 70.0 -100.0 82.0 -143.0C131.0 -177.0 167.0 -71.0 0.0 0.0ZM100.0 -885.0V-388.0L56.0 -430.0V-905.0H62.0C83.0 -905.0 100.0 -890.0 100.0 -885.0ZM81.0 -424.0 70.0 -433.0C105.0 -459.0 149.0 -508.0 164.0 -543.0C211.0 -572.0 241.0 -476.0 81.0 -424.0ZM130.0 -217.0H142.0C102.0 -344.0 -5.0 -521.0 -106.0 -626.0L-92.0 -637.0C21.0 -539.0 132.0 -382.0 183.0 -252.0C205.0 -251.0 218.0 -250.0 226.0 -243.0L165.0 -184.0ZM168.0 -217.0H-84.0L-75.0 -247.0H168.0Z"/></g>
<g fill="black" opacity=".8" transform="translate(1100 300) scale(0.1 -0.1)"><path d="M0.0 0.0 -12.0 -7.0C26.0 -41.0 73.0 -101.0 84.0 -146.0C134.0 -181.0 168.0 -73.0 0.0 0.0ZM97.0 -889.0V-387.0L51.0 -430.0V-910.0H59.0C80.0 -910.0 97.0 -897.0 97.0 -889.0ZM86.0 -425.0 75.0 -434.0C111.0 -464.0 158.0 -521.0 171.0 -561.0C220.0 -592.0 251.0 -492.0 86.0 -425.0ZM131.0 -205.0H143.0C102.0 -337.0 -8.0 -518.0 -111.0 -626.0L-97.0 -637.0C19.0 -537.0 132.0 -374.0 185.0 -242.0C206.0 -239.0 219.0 -240.0 227.0 -232.0L167.0 -173.0ZM169.0 -206.0H-93.0L-84.0 -237.0H169.0Z"/></g>
<g fill="red" transform="translate(1200 300) scale(0.1 -0.1)"><path d="M0.0 0.0 -7.0 -4.0C7.0 -39.0 20.0 -89.0 17.0 -138.0C122.0 -241.0 282.0 -46.0 0.0 0.0ZM158.0 -913.0V-381.0L28.0 -489.0V-953.0H52.0C116.0 -953.0 158.0 -921.0 158.0 -913.0ZM152.0 -424.0 143.0 -429.0C169.0 -473.0 190.0 -537.0 188.0 -595.0C289.0 -687.0 415.0 -489.0 152.0 -424.0ZM90.0 -230.0H103.0C77.0 -361.0 -5.0 -523.0 -113.0 -642.0L-105.0 -650.0C48.0 -567.0 173.0 -422.0 235.0 -289.0C259.0 -286.0 270.0 -283.0 279.0 -273.0L161.0 -161.0ZM179.0 -230.0H-86.0L-77.0 -258.0H179.0Z"/></g>
<g fill="black" opacity=".8" transform="translate(1200 300) scale(0.1 -0.1)"><path d="M0.0 0.0 -8.0 -4.0C9.0 -39.0 23.0 -91.0 20.0 -140.0C127.0 -242.0 284.0 -43.0 0.0 0.0ZM155.0 -915.0V-393.0L23.0 -501.0V-955.0H47.0C113.0 -955.0 156.0 -922.0 155.0 -915.0ZM143.0 -420.0 134.0 -423.0C159.0 -462.0 179.0 -520.0 178.0 -572.0C274.0 -656.0 393.0 -469.0 143.0 -420.0ZM91.0 -222.0H104.0C78.0 -360.0 -4.0 -533.0 -115.0 -658.0L-107.0 -667.0C50.0 -578.0 176.0 -422.0 237.0 -281.0C262.0 -280.0 273.0 -276.0 282.0 -267.0L163.0 -153.0ZM179.0 -222.0H-91.0L-81.0 -251.0H179.0Z"/></g>
<g fill="red" transform="translate(1300 300) scale(0.1 -0.1)"><path d="M0.0 0.0 -12.0 -8.0C27.0 -42.0 74.0 -102.0 86.0 -147.0C136.0 -182.0 170.0 -74.0 0.0 0.0ZM106.0 -886.0V-373.0L61.0 -416.0V-907.0H68.0C89.0 -907.0 106.0 -892.0 106.0 -886.0ZM101.0 -417.0 89.0 -425.0C122.0 -453.0 162.0 -504.0 174.0 -542.0C220.0 -574.0 254.0 -477.0 101.0 -417.0ZM139.0 -199.0H151.0C110.0 -328.0 0.0 -507.0 -105.0 -612.0L-90.0 -624.0C25.0 -525.0 140.0 -366.0 192.0 -234.0C214.0 -233.0 227.0 -232.0 235.0 -225.0L174.0 -166.0ZM178.0 -199.0H-93.0L-84.0 -229.0H178.0Z"/></g>
<g fill="black" opacity=".8" transform="translate(1300 300) scale(0.1 -0.1)"><path d="M0.0 0.0 -12.0 -7.0C26.0 -41.0 73.0 -101.0 84.0 -145.0C134.0 -180.0 167.0 -72.0 0.0 0.0ZM104.0 -880.0V-381.0L59.0 -423.0V-900.0H67.0C87.0 -900.0 104.0 -887.0 104.0 -880.0ZM92.0 -417.0 81.0 -427.0C115.0 -455.0 160.0 -510.0 173.0 -547.0C220.0 -578.0 251.0 -480.0 92.0 -417.0ZM136.0 -202.0H147.0C107.0 -334.0 -2.0 -515.0 -105.0 -622.0L-91.0 -633.0C24.0 -534.0 137.0 -371.0 189.0 -238.0C210.0 -236.0 223.0 -236.0 231.0 -229.0L172.0 -171.0ZM171.0 -203.0H-88.0L-79.0 -233.0H171.0Z"/></g>
<g fill="red" transform="translate(1400 300) scale(0.1 -0.1)"><path d="M0.0 0.0 -7.0 -4.0C9.0 -39.0 25.0 -89.0 23.0 -138.0C131.0 -237.0 283.0 -37.0 0.0 0.0ZM158.0 -910.0V-400.0L25.0 -509.0V-951.0H50.0C116.0 -951.0 158.0 -918.0 158.0 -910.0ZM145.0 -404.0 136.0 -409.0C163.0 -444.0 183.0 -500.0 179.0 -550.0C271.0 -632.0 385.0 -448.0 145.0 -404.0ZM98.0 -219.0H111.0C84.0 -357.0 -1.0 -531.0 -113.0 -656.0L-105.0 -664.0C53.0 -575.0 181.0 -419.0 245.0 -279.0C269.0 -276.0 280.0 -273.0 289.0 -263.0L170.0 -149.0ZM174.0 -219.0H-91.0L-82.0 -247.0H174.0Z"/></g>
<g fill="black" opacity=".8" transform="translate(1400 300) scale(0.1 -0.1)"><path d="M0.0 0.0 -8.0 -4.0C9.0 -39.0 25.0 -91.0 23.0 -141.0C129.0 -241.0 283.0 -42.0 0.0 0.0ZM161.0 -908.0V-388.0L31.0 -496.0V-948.0H54.0C120.0 -948.0 162.0 -915.0 161.0 -908.0ZM150.0 -407.0 141.0 -410.0C167.0 -447.0 187.0 -503.0 186.0 -552.0C283.0 -635.0 402.0 -446.0 150.0 -407.0ZM96.0 -221.0H108.0C83.0 -359.0 1.0 -530.0 -110.0 -655.0L-102.0 -664.0C54.0 -576.0 180.0 -420.0 240.0 -280.0C265.0 -278.0 276.0 -275.0 285.0 -265.0L167.0 -153.0ZM178.0 -221.0H-87.0L-77.0 -250.0H178.0Z"/></g>
<g fill="red" transform="translate(1500 300) scale(0.1 -0.1)"><path d="M0.0 0.0 -12.0 -8.0C28.0 -42.0 76.0 -103.0 89.0 -149.0C139.0 -184.0 173.0 -75.0 0.0 0.0ZM108.0 -884.0V-380.0L63.0 -423.0V-906.0H70.0C91.0 -906.0 108.0 -891.0 108.0 -884.0ZM102.0 -433.0 91.0 -442.0C135.0 -477.0 196.0 -539.0 214.0 -586.0C267.0 -616.0 294.0 -508.0 102.0 -433.0ZM151.0 -199.0H163.0C119.0 -331.0 1.0 -512.0 -111.0 -616.0L-97.0 -628.0C26.0 -530.0 148.0 -368.0 204.0 -234.0C226.0 -233.0 239.0 -232.0 247.0 -225.0L186.0 -165.0ZM184.0 -199.0H-96.0L-87.0 -229.0H184.0Z"/></g>
<g fill="black" opacity=".8" transform="translate(1500 300) scale(0.1 -0.1)"><path d="M0.0 0.0 -12.0 -8.0C28.0 -42.0 78.0 -104.0 90.0 -151.0C141.0 -185.0 174.0 -76.0 0.0 0.0ZM104.0 -883.0V-389.0L58.0 -432.0V-903.0H66.0C87.0 -903.0 104.0 -890.0 104.0 -883.0ZM94.0 -428.0 83.0 -437.0C124.0 -469.0 179.0 -529.0 195.0 -571.0C247.0 -601.0 275.0 -497.0 94.0 -428.0ZM151.0 -202.0H162.0C117.0 -336.0 -4.0 -516.0 -118.0 -620.0L-105.0 -632.0C21.0 -534.0 146.0 -373.0 203.0 -238.0C225.0 -236.0 239.0 -236.0 247.0 -229.0L187.0 -170.0ZM188.0 -203.0H-103.0L-94.0 -233.0H188.0Z"/></g>
<g fill="red" transform="translate(1600 300) scale(0.1 -0.1)"><path d="M0.0 0.0 -7.0 -4.0C12.0 -41.0 31.0 -94.0 32.0 -146.0C145.0 -243.0 289.0 -34.0 0.0 0.0ZM173.0 -911.0V-393.0L39.0 -504.0V-952.0H63.0C130.0 -952.0 173.0 -919.0 173.0 -911.0ZM161.0 -422.0 152.0 -427.0C182.0 -466.0 205.0 -528.0 203.0 -583.0C299.0 -667.0 412.0 -474.0 161.0 -422.0ZM110.0 -220.0H123.0C93.0 -356.0 3.0 -527.0 -112.0 -649.0L-104.0 -656.0C56.0 -571.0 190.0 -418.0 258.0 -280.0C282.0 -278.0 293.0 -274.0 302.0 -265.0L183.0 -150.0ZM197.0 -220.0H-87.0L-78.0 -248.0H197.0Z"/></g>
<g fill="black" opacity=".8" transform="translate(1600 300) scale(0.1 -0.1)"><path d="M0.0 0.0 -8.0 -4.0C13.0 -41.0 34.0 -96.0 36.0 -149.0C149.0 -246.0 292.0 -34.0 0.0 0.0ZM170.0 -909.0V-397.0L36.0 -508.0V-950.0H60.0C128.0 -950.0 171.0 -917.0 170.0 -909.0ZM158.0 -422.0 149.0 -426.0C176.0 -467.0 200.0 -528.0 201.0 -583.0C304.0 -669.0 424.0 -469.0 158.0 -422.0ZM118.0 -219.0H131.0C100.0 -359.0 7.0 -536.0 -112.0 -660.0L-105.0 -669.0C60.0 -580.0 198.0 -422.0 265.0 -279.0C291.0 -277.0 302.0 -274.0 311.0 -264.0L191.0 -149.0ZM204.0 -219.0H-91.0L-81.0 -248.0H204.0Z"/></g>
<g fill="red" transform="translate(100 400) scale(0.1 -0.1)"><path d="M0.0 0.0 -12.0 -8.0C27.0 -42.0 74.0 -102.0 86.0 -147.0C136.0 -182.0 170.0 -74.0 0.0 0.0ZM87.0 -881.0V-381.0L42.0 -424.0V-902.0H49.0C70.0 -902.0 87.0 -888.0 87.0 -881.0ZM80.0 -423.0 68.0 -432.0C110.0 -466.0 164.0 -527.0 180.0 -572.0C230.0 -603.0 259.0 -498.0 80.0 -423.0ZM135.0 -204.0H147.0C101.0 -335.0 -22.0 -511.0 -139.0 -613.0L-125.0 -625.0C2.0 -530.0 129.0 -372.0 187.0 -239.0C210.0 -237.0 223.0 -237.0 232.0 -230.0L171.0 -170.0ZM184.0 -204.0H-115.0L-106.0 -234.0H184.0Z"/></g>
<g fill="black" opacity=".8" transform="translate(100 400) scale(0.1 -0.1)"><path d="M0.0 0.0 -12.0 -7.0C26.0 -41.0 74.0 -102.0 86.0 -147.0C136.0 -181.0 170.0 -73.0 0.0 0.0ZM89.0 -883.0V-390.0L43.0 -432.0V-903.0H51.0C71.0 -903.0 89.0 -890.0 89.0 -883.0ZM81.0 -429.0 69.0 -438.0C110.0 -472.0 166.0 -534.0 181.0 -578.0C233.0 -609.0 261.0 -504.0 81.0 -429.0ZM134.0 -204.0H145.0C101.0 -334.0 -14.0 -511.0 -123.0 -615.0L-110.0 -626.0C11.0 -529.0 131.0 -371.0 187.0 -240.0C208.0 -237.0 222.0 -238.0 230.0 -230.0L170.0 -172.0ZM174.0 -204.0H-106.0L-97.0 -235.0H174.0Z"/></g>
<g fill="red" transform="translate(200 400) scale(0.1 -0.1)"><path d="M0.0 0.0 -8.0 -4.0C8.0 -46.0 21.0 -102.0 17.0 -158.0C124.0 -267.0 287.0 -64.0 0.0 0.0ZM153.0 -906.0V-396.0L20.0 -505.0V-947.0H45.0C111.0 -947.0 153.0 -914.0 153.0 -906.0ZM135.0 -428.0 125.0 -433.0C149.0 -478.0 174.0 -543.0 178.0 -601.0C274.0 -684.0 386.0 -498.0 135.0 -428.0ZM102.0 -218.0H115.0C85.0 -358.0 -5.0 -531.0 -124.0 -655.0L-116.0 -663.0C48.0 -576.0 182.0 -420.0 248.0 -278.0C273.0 -275.0 284.0 -272.0 293.0 -262.0L174.0 -148.0ZM195.0 -218.0H-99.0L-90.0 -246.0H195.0Z"/></g>
<g fill="black" opacity=".8" transform="translate(200 400) scale(0.1 -0.1)"><path d="M0.0 0.0 -8.0 -4.0C11.0 -40.0 27.0 -92.0 26.0 -142.0C135.0 -241.0 285.0 -38.0 0.0 0.0ZM151.0 -905.0V-395.0L19.0 -503.0V-945.0H43.0C109.0 -945.0 152.0 -912.0 151.0 -905.0ZM140.0 -433.0 130.0 -436.0C154.0 -481.0 176.0 -543.0 177.0 -598.0C273.0 -684.0 393.0 -496.0 140.0 -433.0ZM99.0 -217.0H112.0C84.0 -355.0 -3.0 -527.0 -119.0 -650.0L-111.0 -660.0C49.0 -572.0 181.0 -416.0 245.0 -276.0C271.0 -275.0 282.0 -271.0 291.0 -262.0L172.0 -148.0ZM194.0 -217.0H-96.0L-86.0 -246.0H194.0Z"/></g>
<g fill="red" transform="translate(300 400) scale(0.1 -0.1)"><path d="M0.0 0.0 -12.0 -8.0C29.0 -43.0 79.0 -105.0 92.0 -152.0C142.0 -186.0 176.0 -77.0 0.0 0.0ZM103.0 -877.0V-377.0L58.0 -420.0V-898.0H65.0C86.0 -898.0 103.0 -884.0 103.0 -877.0ZM97.0 -421.0 86.0 -430.0C132.0 -465.0 196.0 -529.0 215.0 -576.0C268.0 -606.0 294.0 -496.0 97.0 -421.0ZM149.0 -186.0H161.0C116.0 -320.0 -6.0 -502.0 -121.0 -607.0L-107.0 -619.0C20.0 -520.0 145.0 -358.0 201.0 -221.0C224.0 -220.0 237.0 -219.0 246.0 -212.0L185.0 -152.0ZM184.0 -186.0H-101.0L-92.0 -216.0H184.0Z"/></g>
<g fill="black" opacity=".8" transform="translate(300 400) scale(0.1 -0.1)"><path d="M0.0 0.0 -12.0 -8.0C28.0 -42.0 79.0 -104.0 92.0 -151.0C142.0 -185.0 174.0 -76.0 0.0 0.0ZM103.0 -866.0V-385.0L59.0 -427.0V-886.0H67.0C87.0 -886.0 103.0 -873.0 103.0 -866.0ZM95.0 -424.0 85.0 -433.0C128.0 -466.0 187.0 -527.0 205.0 -570.0C257.0 -600.0 283.0 -494.0 95.0 -424.0ZM157.0 -198.0H169.0C121.0 -330.0 -4.0 -506.0 -122.0 -607.0L-109.0 -619.0C21.0 -524.0 150.0 -367.0 209.0 -233.0C230.0 -230.0 244.0 -231.0 252.0 -224.0L193.0 -166.0ZM194.0 -198.0H-108.0L-100.0 -228.0H194.0Z"/></g>
<g fill="red" transform="translate(400 400) scale(0.1 -0.1)"><path d="M0.0 0.0 -7.0 -4.0C13.0 -41.0 35.0 -94.0 37.0 -146.0C152.0 -240.0 291.0 -27.0 0.0 0.0ZM181.0 -898.0V-389.0L44.0 -501.0V-940.0H69.0C137.0 -940.0 181.0 -907.0 181.0 -898.0ZM164.0 -422.0 156.0 -427.0C180.0 -467.0 206.0 -526.0 211.0 -581.0C319.0 -667.0 439.0 -464.0 164.0 -422.0ZM122.0 -202.0H135.0C103.0 -341.0 9.0 -519.0 -111.0 -643.0L-103.0 -651.0C62.0 -563.0 201.0 -405.0 271.0 -263.0C296.0 -260.0 307.0 -257.0 316.0 -247.0L196.0 -131.0ZM233.0 -202.0H-85.0L-76.0 -230.0H233.0Z"/></g>
<g fill="black" opacity=".8" transform="translate(400 400) scale(0.1 -0.1)"><path d="M0.0 0.0 -8.0 -4.0C16.0 -42.0 39.0 -98.0 44.0 -151.0C158.0 -243.0 292.0 -29.0 0.0 0.0ZM174.0 -892.0V-394.0L39.0 -504.0V-932.0H64.0C131.0 -932.0 174.0 -899.0 174.0 -892.0ZM161.0 -421.0 152.0 -424.0C180.0 -467.0 205.0 -529.0 208.0 -584.0C312.0 -670.0 431.0 -468.0 161.0 -421.0ZM129.0 -214.0H142.0C109.0 -352.0 12.0 -529.0 -110.0 -649.0L-103.0 -659.0C63.0 -571.0 205.0 -414.0 275.0 -273.0C300.0 -271.0 311.0 -268.0 320.0 -258.0L202.0 -145.0ZM214.0 -214.0H-91.0L-81.0 -242.0H214.0Z"/></g>
<g fill="red" transform="translate(500 400) scale(0.1 -0.1)"><path d="M0.0 0.0 -12.0 -8.0C29.0 -43.0 79.0 -105.0 92.0 -152.0C142.0 -186.0 176.0 -77.0 0.0 0.0ZM89.0 -880.0V-400.0L44.0 -443.0V-900.0H51.0C72.0 -900.0 89.0 -886.0 89.0 -880.0ZM84.0 -428.0 72.0 -437.0C116.0 -472.0 173.0 -536.0 188.0 -583.0C241.0 -616.0 270.0 -507.0 84.0 -428.0ZM149.0 -204.0H161.0C113.0 -336.0 -12.0 -512.0 -132.0 -613.0L-118.0 -625.0C11.0 -530.0 142.0 -373.0 201.0 -239.0C224.0 -237.0 237.0 -237.0 246.0 -230.0L185.0 -170.0ZM193.0 -204.0H-115.0L-106.0 -234.0H193.0Z"/></g>
<g fill="black" opacity=".8" transform="translate(500 400) scale(0.1 -0.1)"><path d="M0.0 0.0 -12.0 -8.0C28.0 -42.0 78.0 -104.0 90.0 -150.0C140.0 -184.0 173.0 -75.0 0.0 0.0ZM92.0 -878.0V-391.0L47.0 -433.0V-897.0H55.0C75.0 -897.0 92.0 -885.0 92.0 -878.0ZM85.0 -431.0 74.0 -440.0C118.0 -475.0 179.0 -539.0 197.0 -584.0C250.0 -615.0 276.0 -507.0 85.0 -431.0ZM146.0 -201.0H157.0C111.0 -333.0 -13.0 -508.0 -128.0 -610.0L-115.0 -622.0C12.0 -527.0 139.0 -370.0 198.0 -237.0C219.0 -234.0 233.0 -235.0 241.0 -228.0L182.0 -170.0ZM186.0 -202.0H-113.0L-104.0 -232.0H186.0Z"/></g>
<g fill="red" transform="translate(600 400) scale(0.1 -0.1)"><path d="M0.0 0.0 -7.0 -4.0C13.0 -41.0 35.0 -94.0 37.0 -146.0C152.0 -240.0 291.0 -27.0 0.0 0.0ZM163.0 -900.0V-403.0L26.0 -514.0V-941.0H51.0C119.0 -941.0 163.0 -908.0 163.0 -900.0ZM153.0 -435.0 143.0 -440.0C162.0 -481.0 183.0 -541.0 185.0 -594.0C269.0 -672.0 377.0 -508.0 153.0 -435.0ZM122.0 -212.0H135.0C102.0 -351.0 5.0 -527.0 -118.0 -649.0L-110.0 -657.0C57.0 -570.0 199.0 -414.0 271.0 -273.0C296.0 -270.0 307.0 -267.0 316.0 -257.0L196.0 -141.0ZM222.0 -212.0H-96.0L-87.0 -240.0H222.0Z"/></g>
<g fill="black" opacity=".8" transform="translate(600 400) scale(0.1 -0.1)"><path d="M0.0 0.0 -8.0 -4.0C14.0 -41.0 34.0 -95.0 37.0 -148.0C149.0 -243.0 291.0 -32.0 0.0 0.0ZM160.0 -900.0V-398.0L26.0 -507.0V-941.0H50.0C118.0 -941.0 161.0 -907.0 160.0 -900.0ZM148.0 -436.0 139.0 -439.0C164.0 -485.0 189.0 -549.0 190.0 -606.0C292.0 -693.0 411.0 -497.0 148.0 -436.0ZM116.0 -215.0H129.0C98.0 -354.0 4.0 -529.0 -118.0 -650.0L-110.0 -660.0C55.0 -572.0 195.0 -415.0 263.0 -274.0C288.0 -273.0 299.0 -269.0 309.0 -260.0L190.0 -145.0ZM210.0 -215.0H-97.0L-87.0 -243.0H210.0Z"/></g>
<g fill="red" transform="translate(700 400) scale(0.1 -0.1)"><path d="M0.0 0.0 -12.0 -8.0C25.0 -41.0 70.0 -100.0 82.0 -143.0C131.0 -177.0 167.0 -71.0 0.0 0.0ZM85.0 -883.0V-383.0L41.0 -425.0V-904.0H47.0C68.0 -904.0 85.0 -890.0 85.0 -883.0ZM73.0 -412.0 61.0 -421.0C102.0 -454.0 154.0 -512.0 170.0 -556.0C219.0 -587.0 248.0 -485.0 73.0 -412.0ZM124.0 -203.0H136.0C95.0 -331.0 -13.0 -508.0 -116.0 -612.0L-102.0 -623.0C12.0 -526.0 125.0 -368.0 177.0 -238.0C199.0 -237.0 212.0 -236.0 220.0 -229.0L159.0 -170.0ZM167.0 -203.0H-104.0L-95.0 -233.0H167.0Z"/></g>
<g fill="black" opacity=".8" transform="translate(700 400) scale(0.1 -0.1)"><path d="M0.0 0.0 -12.0 -7.0C25.0 -40.0 71.0 -99.0 82.0 -143.0C131.0 -177.0 165.0 -71.0 0.0 0.0ZM88.0 -879.0V-383.0L43.0 -426.0V-899.0H51.0C71.0 -899.0 88.0 -886.0 88.0 -879.0ZM79.0 -422.0 67.0 -431.0C104.0 -462.0 152.0 -520.0 165.0 -561.0C214.0 -592.0 245.0 -492.0 79.0 -422.0ZM124.0 -203.0H135.0C94.0 -332.0 -13.0 -510.0 -114.0 -615.0L-101.0 -626.0C13.0 -528.0 125.0 -369.0 177.0 -239.0C197.0 -236.0 211.0 -237.0 219.0 -230.0L159.0 -172.0ZM163.0 -204.0H-96.0L-87.0 -234.0H163.0Z"/></g>
<g fill="red" transform="translate(800 400) scale(0.1 -0.1)"><path d="M0.0 0.0 -7.0 -4.0C7.0 -37.0 19.0 -85.0 15.0 -132.0C119.0 -233.0 279.0 -42.0 0.0 0.0ZM148.0 -905.0V-386.0L18.0 -494.0V-945.0H42.0C106.0 -945.0 148.0 -913.0 148.0 -905.0ZM137.0 -430.0 128.0 -435.0C145.0 -469.0 162.0 -521.0 163.0 -568.0C250.0 -647.0 366.0 -484.0 137.0 -430.0ZM85.0 -215.0H98.0C73.0 -352.0 -6.0 -522.0 -115.0 -648.0L-106.0 -655.0C48.0 -567.0 170.0 -414.0 230.0 -274.0C254.0 -272.0 266.0 -268.0 274.0 -259.0L156.0 -146.0ZM183.0 -215.0H-96.0L-87.0 -243.0H183.0Z"/></g>
<g fill="black" opacity=".8" transform="translate(800 400) scale(0.1 -0.1)"><path d="M0.0 0.0 -8.0 -4.0C8.0 -38.0 21.0 -88.0 17.0 -136.0C121.0 -238.0 278.0 -43.0 0.0 0.0ZM145.0 -901.0V-388.0L16.0 -494.0V-941.0H39.0C104.0 -941.0 146.0 -908.0 145.0 -901.0ZM134.0 -422.0 124.0 -425.0C148.0 -466.0 167.0 -525.0 166.0 -577.0C258.0 -660.0 377.0 -480.0 134.0 -422.0ZM84.0 -218.0H97.0C72.0 -354.0 -8.0 -523.0 -117.0 -645.0L-109.0 -655.0C45.0 -568.0 168.0 -414.0 228.0 -276.0C253.0 -275.0 264.0 -271.0 273.0 -262.0L156.0 -150.0ZM176.0 -218.0H-93.0L-83.0 -247.0H176.0Z"/></g>
</svg>
