<?xml version="1.0" encoding="UTF-8"?>
<svg width="1700" height="300" xmlns="http://www.w3.org/2000/svg">
<rect width="100%" height="100%" fill="white"/>
<g fill="green" transform="translate(100 100) scale(0.1 -0.1)"><path d="M0.0 0.0C-38.0 -180.0 -111.0 -345.0 -193.0 -453.0L-178.0 -464.0C-83.0 -366.0 -5.0 -211.0 41.0 -41.0C63.0 -42.0 73.0 -32.0 77.0 -20.0ZM386.0 0.0C345.0 -184.0 267.0 -349.0 177.0 -455.0L192.0 -467.0C295.0 -371.0 380.0 -218.0 431.0 -43.0C453.0 -44.0 465.0 -34.0 467.0 -23.0ZM37.0 -225.0V-907.0H43.0C66.0 -907.0 81.0 -894.0 81.0 -890.0V-225.0ZM502.0 -225.0V-823.0C502.0 -839.0 497.0 -844.0 477.0 -844.0C456.0 -844.0 350.0 -836.0 350.0 -836.0V-852.0C396.0 -857.0 423.0 -862.0 439.0 -872.0C451.0 -880.0 458.0 -894.0 459.0 -907.0C536.0 -898.0 546.0 -866.0 546.0 -825.0V-225.0ZM327.0 -225.0V-255.0H712.0C726.0 -255.0 735.0 -250.0 737.0 -239.0C708.0 -210.0 661.0 -174.0 661.0 -174.0L619.0 -225.0ZM-60.0 -225.0V-255.0H262.0C275.0 -255.0 284.0 -250.0 287.0 -239.0C260.0 -212.0 215.0 -177.0 215.0 -177.0L177.0 -225.0Z"/></g>
<g fill="green" transform="translate(200 100) scale(0.1 -0.1)"><path d="M0.0 0.0C-25.0 -180.0 -87.0 -368.0 -152.0 -490.0L-141.0 -497.0C-13.0 -402.0 84.0 -264.0 153.0 -74.0C176.0 -74.0 189.0 -66.0 193.0 -52.0ZM404.0 3.0C376.0 -171.0 309.0 -351.0 241.0 -466.0L251.0 -473.0C384.0 -387.0 488.0 -261.0 563.0 -78.0C587.0 -78.0 600.0 -70.0 604.0 -57.0ZM50.0 -251.0V-947.0H78.0C154.0 -947.0 198.0 -919.0 199.0 -911.0V-251.0ZM505.0 -251.0V-772.0C505.0 -783.0 500.0 -790.0 485.0 -790.0C462.0 -790.0 356.0 -784.0 356.0 -784.0V-796.0C412.0 -806.0 433.0 -823.0 449.0 -844.0C465.0 -866.0 471.0 -901.0 472.0 -949.0C629.0 -938.0 653.0 -872.0 653.0 -777.0V-251.0ZM391.0 -251.0V-279.0H780.0C794.0 -279.0 805.0 -274.0 808.0 -263.0C763.0 -220.0 686.0 -157.0 686.0 -157.0L618.0 -251.0ZM-16.0 -251.0V-279.0H309.0C323.0 -279.0 334.0 -274.0 337.0 -263.0C293.0 -221.0 217.0 -159.0 217.0 -159.0L150.0 -251.0Z"/></g>
<g fill="green" transform="translate(300 100) scale(0.1 -0.1)"><path d="M0.0 0.0C-38.0 -180.0 -111.0 -345.0 -193.0 -453.0L-178.0 -464.0C-83.0 -366.0 -5.0 -211.0 41.0 -41.0C63.0 -42.0 73.0 -32.0 77.0 -20.0ZM386.0 0.0C345.0 -184.0 267.0 -349.0 177.0 -455.0L192.0 -467.0C295.0 -371.0 380.0 -218.0 431.0 -43.0C453.0 -44.0 465.0 -34.0 467.0 -23.0ZM37.0 -225.0V-907.0H43.0C66.0 -907.0 81.0 -894.0 81.0 -890.0V-225.0ZM502.0 -225.0V-823.0C502.0 -839.0 497.0 -844.0 477.0 -844.0C456.0 -844.0 350.0 -836.0 350.0 -836.0V-852.0C396.0 -857.0 423.0 -862.0 439.0 -872.0C451.0 -880.0 458.0 -894.0 459.0 -907.0C536.0 -898.0 546.0 -866.0 546.0 -825.0V-225.0ZM327.0 -225.0V-255.0H712.0C726.0 -255.0 735.0 -250.0 737.0 -239.0C708.0 -210.0 661.0 -174.0 661.0 -174.0L619.0 -225.0ZM-60.0 -225.0V-255.0H262.0C275.0 -255.0 284.0 -250.0 287.0 -239.0C260.0 -212.0 215.0 -177.0 215.0 -177.0L177.0 -225.0Z"/></g>
<g fill="green" transform="translate(400 100) scale(0.1 -0.1)"><path d="M0.0 0.0C-25.0 -180.0 -87.0 -368.0 -152.0 -490.0L-141.0 -497.0C-13.0 -402.0 84.0 -264.0 153.0 -74.0C176.0 -74.0 189.0 -66.0 193.0 -52.0ZM404.0 3.0C376.0 -171.0 309.0 -351.0 241.0 -466.0L251.0 -473.0C384.0 -387.0 488.0 -261.0 563.0 -78.0C587.0 -78.0 600.0 -70.0 604.0 -57.0ZM50.0 -251.0V-947.0H78.0C154.0 -947.0 198.0 -919.0 199.0 -911.0V-251.0ZM505.0 -251.0V-772.0C505.0 -783.0 500.0 -790.0 485.0 -790.0C462.0 -790.0 356.0 -784.0 356.0 -784.0V-796.0C412.0 -806.0 433.0 -823.0 449.0 -844.0C465.0 -866.0 471.0 -901.0 472.0 -949.0C629.0 -938.0 653.0 -872.0 653.0 -777.0V-251.0ZM391.0 -251.0V-279.0H780.0C794.0 -279.0 805.0 -274.0 808.0 -263.0C763.0 -220.0 686.0 -157.0 686.0 -157.0L618.0 -251.0ZM-16.0 -251.0V-279.0H309.0C323.0 -279.0 334.0 -274.0 337.0 -263.0C293.0 -221.0 217.0 -159.0 217.0 -159.0L150.0 -251.0Z"/></g>
<g fill="red" transform="translate(100 200) scale(0.1 -0.1)"><path d="M0.0 0.0C-38.0 -180.0 -111.0 -345.0 -193.0 -453.0L-178.0 -464.0C-83.0 -366.0 -5.0 -211.0 41.0 -41.0C63.0 -42.0 73.0 -32.0 77.0 -20.0ZM386.0 0.0C345.0 -184.0 267.0 -349.0 177.0 -455.0L192.0 -467.0C295.0 -371.0 380.0 -218.0 431.0 -43.0C453.0 -44.0 465.0 -34.0 467.0 -23.0ZM37.0 -225.0V-907.0H43.0C66.0 -907.0 81.0 -894.0 81.0 -890.0V-225.0ZM502.0 -225.0V-823.0C502.0 -839.0 497.0 -844.0 477.0 -844.0C456.0 -844.0 350.0 -836.0 350.0 -836.0V-852.0C396.0 -857.0 423.0 -862.0 439.0 -872.0C451.0 -880.0 458.0 -894.0 459.0 -907.0C536.0 -898.0 546.0 -866.0 546.0 -825.0V-225.0ZM327.0 -225.0V-255.0H712.0C726.0 -255.0 735.0 -250.0 737.0 -239.0C708.0 -210.0 661.0 -174.0 661.0 -174.0L619.0 -225.0ZM-60.0 -225.0V-255.0H262.0C275.0 -255.0 284.0 -250.0 287.0 -239.0C260.0 -212.0 215.0 -177.0 215.0 -177.0L177.0 -225.0Z"/></g>
<g fill="black" opacity=".8" transform="translate(100 200) scale(0.1 -0.1)"><path d="M0.0 0.0C-38.0 -180.0 -111.0 -345.0 -193.0 -453.0L-178.0 -464.0C-83.0 -366.0 -5.0 -211.0 41.0 -41.0C63.0 -42.0 73.0 -32.0 77.0 -20.0ZM386.0 0.0C345.0 -184.0 267.0 -349.0 177.0 -455.0L192.0 -467.0C295.0 -371.0 380.0 -218.0 431.0 -43.0C453.0 -44.0 465.0 -34.0 467.0 -23.0ZM37.0 -225.0V-907.0H43.0C66.0 -907.0 81.0 -894.0 81.0 -890.0V-225.0ZM502.0 -225.0V-823.0C502.0 -839.0 497.0 -844.0 477.0 -844.0C456.0 -844.0 350.0 -836.0 350.0 -836.0V-852.0C396.0 -857.0 423.0 -862.0 439.0 -872.0C451.0 -880.0 458.0 -894.0 459.0 -907.0C536.0 -898.0 546.0 -866.0 546.0 -825.0V-225.0ZM327.0 -225.0V-255.0H712.0C726.0 -255.0 735.0 -250.0 737.0 -239.0C708.0 -210.0 661.0 -174.0 661.0 -174.0L619.0 -225.0ZM-60.0 -225.0V-255.0H262.0C275.0 -255.0 284.0 -250.0 287.0 -239.0C260.0 -212.0 215.0 -177.0 215.0 -177.0L177.0 -225.0Z"/></g>
<g fill="red" transform="translate(200 200) scale(0.1 -0.1)"><path d="M0.0 0.0C-25.0 -180.0 -87.0 -368.0 -152.0 -490.0L-141.0 -497.0C-13.0 -402.0 84.0 -264.0 153.0 -74.0C176.0 -74.0 189.0 -66.0 193.0 -52.0ZM404.0 3.0C376.0 -171.0 309.0 -351.0 241.0 -466.0L251.0 -473.0C384.0 -387.0 488.0 -261.0 563.0 -78.0C587.0 -78.0 600.0 -70.0 604.0 -57.0ZM50.0 -251.0V-947.0H78.0C154.0 -947.0 198.0 -919.0 199.0 -911.0V-251.0ZM505.0 -251.0V-772.0C505.0 -783.0 500.0 -790.0 485.0 -790.0C462.0 -790.0 356.0 -784.0 356.0 -784.0V-796.0C412.0 -806.0 433.0 -823.0 449.0 -844.0C465.0 -866.0 471.0 -901.0 472.0 -949.0C629.0 -938.0 653.0 -872.0 653.0 -777.0V-251.0ZM391.0 -251.0V-279.0H780.0C794.0 -279.0 805.0 -274.0 808.0 -263.0C763.0 -220.0 686.0 -157.0 686.0 -157.0L618.0 -251.0ZM-16.0 -251.0V-279.0H309.0C323.0 -279.0 334.0 -274.0 337.0 -263.0C293.0 -221.0 217.0 -159.0 217.0 -159.0L150.0 -251.0Z"/></g>
<g fill="black" opacity=".8" transform="translate(200 200) scale(0.1 -0.1)"><path d="M0.0 0.0C-25.0 -180.0 -87.0 -368.0 -152.0 -490.0L-141.0 -497.0C-13.0 -402.0 84.0 -264.0 153.0 -74.0C176.0 -74.0 189.0 -66.0 193.0 -52.0ZM404.0 3.0C376.0 -171.0 309.0 -351.0 241.0 -466.0L251.0 -473.0C384.0 -387.0 488.0 -261.0 563.0 -78.0C587.0 -78.0 600.0 -70.0 604.0 -57.0ZM50.0 -251.0V-947.0H78.0C154.0 -947.0 198.0 -919.0 199.0 -911.0V-251.0ZM505.0 -251.0V-772.0C505.0 -783.0 500.0 -790.0 485.0 -790.0C462.0 -790.0 356.0 -784.0 356.0 -784.0V-796.0C412.0 -806.0 433.0 -823.0 449.0 -844.0C465.0 -866.0 471.0 -901.0 472.0 -949.0C629.0 -938.0 653.0 -872.0 653.0 -777.0V-251.0ZM391.0 -251.0V-279.0H780.0C794.0 -279.0 805.0 -274.0 808.0 -263.0C763.0 -220.0 686.0 -157.0 686.0 -157.0L618.0 -251.0ZM-16.0 -251.0V-279.0H309.0C323.0 -279.0 334.0 -274.0 337.0 -263.0C293.0 -221.0 217.0 -159.0 217.0 -159.0L150.0 -251.0Z"/></g>
</svg>
