<?xml version="1.0" encoding="UTF-8"?>
<svg width="1700" height="300" xmlns="http://www.w3.org/2000/svg">
<rect width="100%" height="100%" fill="white"/>
<g fill="green" transform="translate(100 100) scale(0.1 -0.1)"><path d="M0.0 -0.0V592.0H475.0V623.0H5.0L-45.0 651.0V-18.0H-37.0C-15.0 -18.0 0.0 -6.0 0.0 0.0ZM433.0 623.0H443.0V74.0C443.0 60.0 439.0 55.0 424.0 55.0C409.0 55.0 336.0 61.0 336.0 61.0V43.0C367.0 40.0 388.0 34.0 399.0 25.0C409.0 17.0 413.0 0.0 415.0 -14.0C481.0 -6.0 488.0 23.0 488.0 67.0V583.0C509.0 586.0 527.0 594.0 534.0 602.0L460.0 657.0L433.0 623.0ZM327.0 99.0V611.0H282.0V82.0H288.0C311.0 82.0 327.0 95.0 327.0 99.0ZM164.0 73.0V611.0H119.0V56.0H125.0C149.0 56.0 164.0 69.0 164.0 73.0ZM459.0 876.0 418.0 826.0H-64.0L-56.0 795.0H509.0C523.0 795.0 532.0 800.0 535.0 812.0C506.0 840.0 459.0 876.0 459.0 876.0ZM244.0 813.0H183.0C173.0 762.0 149.0 667.0 133.0 609.0H160.0C188.0 664.0 224.0 758.0 244.0 813.0Z"/></g>
<g fill="green" transform="translate(200 100) scale(0.1 -0.1)"><path d="M0.0 0.0V614.0H361.0V643.0H7.0L-129.0 697.0V-45.0H-108.0C-53.0 -45.0 0.0 -14.0 0.0 0.0ZM286.0 643.0H296.0V105.0C296.0 94.0 293.0 87.0 280.0 87.0C263.0 87.0 207.0 92.0 207.0 92.0V78.0C243.0 71.0 256.0 58.0 266.0 42.0C276.0 25.0 278.0 -1.0 280.0 -37.0C407.0 -26.0 423.0 15.0 423.0 95.0V593.0C445.0 597.0 459.0 606.0 465.0 614.0L344.0 709.0L286.0 643.0ZM260.0 122.0V630.0H165.0V98.0H181.0C230.0 98.0 259.0 117.0 260.0 122.0ZM130.0 82.0V630.0H35.0V57.0H52.0C100.0 57.0 129.0 76.0 130.0 82.0ZM350.0 921.0 281.0 827.0H-134.0L-126.0 798.0H444.0C458.0 798.0 470.0 803.0 473.0 814.0C427.0 858.0 350.0 921.0 350.0 921.0ZM236.0 818.0H53.0C53.0 771.0 49.0 684.0 41.0 628.0H89.0C138.0 678.0 200.0 763.0 236.0 818.0Z"/></g>
<g fill="green" transform="translate(300 100) scale(0.1 -0.1)"><path d="M0.0 0.0V571.0H458.0V601.0H5.0L-43.0 628.0V-17.0H-36.0C-14.0 -17.0 0.0 -6.0 0.0 0.0ZM417.0 601.0H427.0V72.0C427.0 58.0 423.0 53.0 408.0 53.0C394.0 53.0 323.0 59.0 323.0 59.0V42.0C353.0 39.0 374.0 33.0 384.0 24.0C394.0 17.0 398.0 0.0 400.0 -13.0C463.0 -6.0 470.0 22.0 470.0 65.0V562.0C490.0 565.0 508.0 573.0 515.0 581.0L443.0 634.0L417.0 601.0ZM315.0 96.0V589.0H272.0V80.0H278.0C300.0 80.0 315.0 92.0 315.0 96.0ZM158.0 71.0V589.0H115.0V54.0H121.0C144.0 54.0 158.0 67.0 158.0 71.0ZM442.0 844.0 402.0 796.0H-61.0L-54.0 766.0H490.0C503.0 766.0 512.0 771.0 515.0 783.0C487.0 810.0 442.0 844.0 442.0 844.0ZM235.0 783.0H176.0C167.0 734.0 143.0 643.0 128.0 588.0H154.0C181.0 640.0 216.0 731.0 235.0 783.0Z"/></g>
<g fill="green" transform="translate(400 100) scale(0.1 -0.1)"><path d="M0.0 0.0V592.0H347.0V620.0H7.0L-124.0 672.0V-43.0H-104.0C-51.0 -43.0 0.0 -13.0 0.0 0.0ZM275.0 620.0H285.0V101.0C285.0 91.0 282.0 84.0 269.0 84.0C253.0 84.0 198.0 89.0 198.0 89.0V75.0C233.0 69.0 246.0 56.0 255.0 41.0C265.0 24.0 267.0 -1.0 269.0 -35.0C391.0 -25.0 407.0 15.0 407.0 92.0V572.0C428.0 576.0 442.0 585.0 447.0 592.0L331.0 684.0L275.0 620.0ZM250.0 119.0V607.0H159.0V96.0H174.0C221.0 96.0 249.0 114.0 250.0 119.0ZM125.0 80.0V607.0H34.0V56.0H50.0C96.0 56.0 124.0 74.0 125.0 80.0ZM337.0 888.0 270.0 797.0H-129.0L-121.0 769.0H427.0C441.0 769.0 452.0 774.0 455.0 785.0C411.0 827.0 337.0 888.0 337.0 888.0ZM227.0 788.0H51.0C51.0 743.0 47.0 660.0 39.0 606.0H86.0C133.0 654.0 193.0 735.0 227.0 788.0Z"/></g>
<g fill="green" transform="translate(500 100) scale(0.1 -0.1)"><path d="M0.0 0.0V558.0H509.0V588.0H5.0L-44.0 614.0V-17.0H-36.0C-16.0 -17.0 0.0 -6.0 0.0 0.0ZM484.0 588.0H493.0V69.0C493.0 56.0 490.0 51.0 477.0 51.0C462.0 51.0 399.0 56.0 399.0 56.0V39.0C427.0 36.0 446.0 31.0 456.0 22.0C464.0 16.0 468.0 1.0 470.0 -12.0C530.0 -4.0 536.0 21.0 536.0 63.0V549.0C557.0 552.0 574.0 560.0 580.0 567.0L509.0 621.0L484.0 588.0ZM360.0 41.0V581.0H316.0V24.0H322.0C344.0 24.0 360.0 37.0 360.0 41.0ZM175.0 42.0V581.0H132.0V26.0H138.0C161.0 26.0 175.0 39.0 175.0 42.0ZM509.0 839.0 469.0 790.0H-54.0L-47.0 760.0H558.0C571.0 760.0 580.0 765.0 583.0 777.0C555.0 804.0 509.0 839.0 509.0 839.0ZM271.0 781.0H212.0C203.0 728.0 180.0 630.0 163.0 570.0H190.0C216.0 628.0 251.0 725.0 271.0 781.0Z"/></g>
<g fill="green" transform="translate(600 100) scale(0.1 -0.1)"><path d="M0.0 0.0V607.0H393.0V636.0H7.0L-130.0 689.0V-45.0H-108.0C-53.0 -45.0 0.0 -15.0 0.0 0.0ZM320.0 636.0H330.0V104.0C330.0 94.0 327.0 87.0 316.0 87.0C303.0 87.0 277.0 90.0 277.0 90.0V77.0C302.0 72.0 311.0 57.0 316.0 41.0C322.0 24.0 323.0 -3.0 324.0 -41.0C441.0 -30.0 454.0 11.0 454.0 93.0V587.0C476.0 591.0 489.0 600.0 496.0 607.0L377.0 700.0L320.0 636.0ZM285.0 13.0V628.0H182.0V-14.0H200.0C252.0 -14.0 283.0 8.0 285.0 13.0ZM140.0 15.0V628.0H39.0V-12.0H58.0C109.0 -12.0 139.0 9.0 140.0 15.0ZM382.0 890.0 314.0 797.0H-108.0L-100.0 769.0H474.0C488.0 769.0 499.0 774.0 502.0 785.0C457.0 828.0 382.0 890.0 382.0 890.0ZM256.0 786.0H79.0C79.0 742.0 77.0 661.0 69.0 608.0H116.0C163.0 654.0 221.0 735.0 256.0 786.0Z"/></g>
<g fill="green" transform="translate(700 100) scale(0.1 -0.1)"><path d="M0.0 -0.0V581.0H471.0V612.0H5.0L-46.0 640.0V-17.0H-38.0C-15.0 -17.0 0.0 -6.0 0.0 0.0ZM410.0 612.0H420.0V66.0C420.0 52.0 417.0 49.0 403.0 49.0C388.0 49.0 324.0 54.0 324.0 54.0V35.0C353.0 31.0 371.0 25.0 382.0 18.0C391.0 9.0 394.0 -8.0 396.0 -22.0C459.0 -15.0 466.0 14.0 466.0 60.0V572.0C487.0 575.0 506.0 583.0 513.0 591.0L438.0 647.0L410.0 612.0ZM307.0 98.0V614.0H261.0V81.0H267.0C291.0 81.0 307.0 94.0 307.0 98.0ZM155.0 68.0V614.0H109.0V51.0H115.0C140.0 51.0 155.0 64.0 155.0 68.0ZM461.0 886.0 420.0 835.0H-81.0L-73.0 804.0H511.0C527.0 804.0 536.0 809.0 539.0 821.0C508.0 850.0 461.0 886.0 461.0 886.0ZM241.0 837.0H179.0C166.0 776.0 141.0 661.0 120.0 593.0H148.0C179.0 659.0 219.0 771.0 241.0 837.0Z"/></g>
<g fill="green" transform="translate(800 100) scale(0.1 -0.1)"><path d="M0.0 0.0V588.0H379.0V617.0H7.0L-132.0 673.0V-46.0H-111.0C-55.0 -46.0 0.0 -14.0 0.0 0.0ZM304.0 617.0H314.0V99.0C314.0 89.0 312.0 82.0 298.0 82.0C283.0 82.0 236.0 85.0 236.0 85.0V72.0C270.0 65.0 281.0 51.0 289.0 36.0C298.0 18.0 300.0 -9.0 301.0 -47.0C431.0 -35.0 448.0 8.0 448.0 89.0V566.0C471.0 570.0 484.0 579.0 490.0 588.0L364.0 685.0L304.0 617.0ZM282.0 121.0V618.0H175.0V95.0H193.0C248.0 95.0 282.0 116.0 282.0 121.0ZM139.0 77.0V618.0H37.0V51.0H55.0C108.0 51.0 139.0 71.0 139.0 77.0ZM365.0 935.0 295.0 839.0H-159.0L-151.0 809.0H461.0C475.0 809.0 488.0 815.0 491.0 826.0C444.0 870.0 365.0 935.0 365.0 935.0ZM236.0 841.0H50.0C50.0 783.0 45.0 676.0 37.0 607.0H84.0C136.0 669.0 199.0 775.0 236.0 841.0Z"/></g>
<g fill="red" transform="translate(100 200) scale(0.1 -0.1)"><path d="M0.0 0.0V552.0H507.0V582.0H5.0L-44.0 608.0V-17.0H-36.0C-16.0 -17.0 0.0 -6.0 0.0 0.0ZM472.0 582.0H482.0V65.0C482.0 52.0 479.0 47.0 466.0 47.0C451.0 47.0 393.0 52.0 393.0 52.0V35.0C420.0 32.0 437.0 26.0 447.0 18.0C455.0 11.0 458.0 -3.0 460.0 -16.0C519.0 -9.0 525.0 16.0 525.0 59.0V543.0C546.0 546.0 563.0 554.0 570.0 561.0L498.0 615.0L472.0 582.0ZM349.0 40.0V582.0H305.0V23.0H311.0C334.0 23.0 349.0 36.0 349.0 40.0ZM171.0 40.0V582.0H127.0V23.0H133.0C156.0 23.0 171.0 36.0 171.0 40.0ZM510.0 844.0 470.0 795.0H-62.0L-54.0 765.0H559.0C572.0 765.0 581.0 770.0 584.0 781.0C556.0 809.0 510.0 844.0 510.0 844.0ZM269.0 793.0H210.0C199.0 735.0 176.0 627.0 157.0 561.0H184.0C212.0 625.0 249.0 731.0 269.0 793.0Z"/></g>
<g fill="black" opacity=".8" transform="translate(100 200) scale(0.1 -0.1)"><path d="M0.0 0.0V552.0H507.0V582.0H5.0L-45.0 608.0V-16.0H-37.0C-16.0 -16.0 0.0 -6.0 0.0 0.0ZM472.0 582.0H481.0V65.0C481.0 52.0 479.0 48.0 466.0 48.0C451.0 48.0 393.0 52.0 393.0 52.0V35.0C420.0 31.0 437.0 26.0 447.0 18.0C455.0 12.0 458.0 -3.0 460.0 -16.0C519.0 -9.0 525.0 16.0 525.0 59.0V543.0C546.0 546.0 563.0 554.0 569.0 561.0L498.0 616.0L472.0 582.0ZM350.0 40.0V583.0H305.0V23.0H311.0C334.0 23.0 350.0 36.0 350.0 40.0ZM170.0 39.0V583.0H127.0V23.0H133.0C156.0 23.0 170.0 36.0 170.0 39.0ZM510.0 844.0 470.0 795.0H-63.0L-56.0 765.0H559.0C573.0 765.0 582.0 770.0 585.0 782.0C556.0 809.0 510.0 844.0 510.0 844.0ZM269.0 793.0H210.0C199.0 735.0 176.0 627.0 156.0 562.0H184.0C211.0 625.0 248.0 732.0 269.0 793.0Z"/></g>
<g fill="red" transform="translate(200 200) scale(0.1 -0.1)"><path d="M0.0 0.0V595.0H402.0V623.0H7.0L-131.0 678.0V-45.0H-110.0C-54.0 -45.0 0.0 -15.0 0.0 0.0ZM329.0 623.0H339.0V100.0C339.0 90.0 337.0 84.0 325.0 84.0C313.0 84.0 289.0 86.0 289.0 86.0V73.0C314.0 68.0 322.0 53.0 327.0 37.0C333.0 20.0 334.0 -8.0 334.0 -46.0C453.0 -36.0 468.0 7.0 468.0 89.0V574.0C489.0 578.0 502.0 587.0 509.0 595.0L387.0 689.0L329.0 623.0ZM296.0 12.0V623.0H187.0V-16.0H207.0C262.0 -16.0 295.0 6.0 296.0 12.0ZM145.0 12.0V623.0H40.0V-16.0H59.0C113.0 -16.0 145.0 6.0 145.0 12.0ZM389.0 897.0 321.0 803.0H-121.0L-113.0 775.0H483.0C497.0 775.0 508.0 780.0 511.0 791.0C466.0 834.0 389.0 897.0 389.0 897.0ZM256.0 797.0H78.0C78.0 748.0 74.0 657.0 67.0 598.0H114.0C161.0 651.0 221.0 741.0 256.0 797.0Z"/></g>
<g fill="black" opacity=".8" transform="translate(200 200) scale(0.1 -0.1)"><path d="M0.0 0.0V594.0H402.0V623.0H7.0L-132.0 677.0V-46.0H-110.0C-54.0 -46.0 0.0 -15.0 0.0 0.0ZM329.0 623.0H339.0V101.0C339.0 91.0 337.0 84.0 325.0 84.0C313.0 84.0 292.0 86.0 292.0 86.0V74.0C316.0 69.0 324.0 53.0 328.0 38.0C333.0 20.0 334.0 -7.0 335.0 -46.0C453.0 -35.0 467.0 7.0 467.0 90.0V573.0C489.0 577.0 502.0 586.0 509.0 594.0L387.0 688.0L329.0 623.0ZM296.0 12.0V622.0H187.0V-16.0H206.0C261.0 -16.0 295.0 7.0 296.0 12.0ZM145.0 12.0V622.0H40.0V-15.0H60.0C113.0 -15.0 144.0 6.0 145.0 12.0ZM390.0 897.0 321.0 803.0H-121.0L-113.0 775.0H483.0C497.0 775.0 508.0 780.0 511.0 791.0C466.0 834.0 390.0 897.0 390.0 897.0ZM256.0 798.0H77.0C77.0 748.0 75.0 657.0 67.0 597.0H113.0C162.0 649.0 220.0 741.0 256.0 798.0Z"/></g>
<g fill="red" transform="translate(300 200) scale(0.1 -0.1)"><path d="M0.0 0.0V580.0H464.0V610.0H5.0L-44.0 637.0V-18.0H-36.0C-15.0 -18.0 0.0 -6.0 0.0 0.0ZM425.0 610.0H435.0V73.0C435.0 59.0 431.0 54.0 417.0 54.0C402.0 54.0 332.0 60.0 332.0 60.0V43.0C362.0 40.0 382.0 34.0 393.0 25.0C402.0 17.0 406.0 1.0 408.0 -13.0C472.0 -5.0 479.0 23.0 479.0 66.0V571.0C499.0 574.0 517.0 582.0 524.0 589.0L452.0 643.0L425.0 610.0ZM321.0 95.0V597.0H277.0V78.0H283.0C306.0 78.0 321.0 91.0 321.0 95.0ZM161.0 72.0V597.0H117.0V55.0H123.0C146.0 55.0 161.0 68.0 161.0 72.0ZM452.0 855.0 412.0 806.0H-65.0L-57.0 776.0H501.0C514.0 776.0 523.0 781.0 526.0 792.0C498.0 820.0 452.0 855.0 452.0 855.0ZM238.0 792.0H179.0C169.0 743.0 146.0 652.0 131.0 596.0H157.0C184.0 649.0 219.0 739.0 238.0 792.0Z"/></g>
<g fill="black" opacity=".8" transform="translate(300 200) scale(0.1 -0.1)"><path d="M0.0 0.0V578.0H465.0V608.0H5.0L-44.0 635.0V-17.0H-36.0C-14.0 -17.0 0.0 -6.0 0.0 0.0ZM424.0 608.0H434.0V73.0C434.0 59.0 430.0 54.0 415.0 54.0C401.0 54.0 330.0 60.0 330.0 60.0V42.0C360.0 39.0 381.0 33.0 391.0 24.0C401.0 17.0 405.0 0.0 407.0 -13.0C471.0 -6.0 478.0 22.0 478.0 66.0V569.0C498.0 572.0 516.0 580.0 523.0 588.0L451.0 641.0L424.0 608.0ZM320.0 95.0V596.0H277.0V79.0H283.0C305.0 79.0 320.0 91.0 320.0 95.0ZM160.0 71.0V596.0H117.0V54.0H123.0C146.0 54.0 160.0 67.0 160.0 71.0ZM450.0 854.0 409.0 806.0H-62.0L-54.0 775.0H498.0C512.0 775.0 521.0 780.0 524.0 792.0C495.0 820.0 450.0 854.0 450.0 854.0ZM239.0 793.0H179.0C170.0 743.0 146.0 651.0 131.0 594.0H157.0C184.0 648.0 220.0 740.0 239.0 793.0Z"/></g>
<g fill="red" transform="translate(400 200) scale(0.1 -0.1)"><path d="M0.0 0.0V597.0H351.0V625.0H7.0L-125.0 678.0V-44.0H-105.0C-51.0 -44.0 0.0 -14.0 0.0 0.0ZM278.0 625.0H288.0V107.0C288.0 96.0 285.0 90.0 273.0 90.0C258.0 90.0 214.0 94.0 214.0 94.0V80.0C245.0 74.0 257.0 61.0 265.0 45.0C273.0 28.0 275.0 2.0 276.0 -34.0C396.0 -24.0 411.0 17.0 411.0 96.0V576.0C432.0 580.0 446.0 589.0 452.0 597.0L334.0 689.0L278.0 625.0ZM253.0 120.0V611.0H161.0V97.0H177.0C224.0 97.0 252.0 115.0 253.0 120.0ZM127.0 81.0V611.0H35.0V57.0H51.0C98.0 57.0 126.0 76.0 127.0 81.0ZM340.0 899.0 273.0 807.0H-131.0L-123.0 779.0H432.0C446.0 779.0 457.0 784.0 460.0 795.0C416.0 837.0 340.0 899.0 340.0 899.0ZM231.0 797.0H53.0C53.0 751.0 48.0 666.0 41.0 612.0H88.0C135.0 661.0 196.0 744.0 231.0 797.0Z"/></g>
<g fill="black" opacity=".8" transform="translate(400 200) scale(0.1 -0.1)"><path d="M0.0 0.0V600.0H353.0V628.0H7.0L-126.0 681.0V-44.0H-105.0C-52.0 -44.0 0.0 -13.0 0.0 0.0ZM280.0 628.0H290.0V102.0C290.0 92.0 287.0 85.0 274.0 85.0C258.0 85.0 203.0 90.0 203.0 90.0V76.0C238.0 70.0 251.0 57.0 260.0 41.0C270.0 24.0 272.0 -1.0 274.0 -36.0C398.0 -25.0 414.0 15.0 414.0 93.0V579.0C435.0 583.0 449.0 592.0 454.0 600.0L337.0 693.0L280.0 628.0ZM254.0 117.0V615.0H162.0V93.0H177.0C225.0 93.0 253.0 112.0 254.0 117.0ZM127.0 79.0V615.0H34.0V54.0H51.0C98.0 54.0 126.0 73.0 127.0 79.0ZM343.0 899.0 275.0 807.0H-130.0L-122.0 779.0H434.0C448.0 779.0 459.0 784.0 462.0 795.0C418.0 837.0 343.0 899.0 343.0 899.0ZM231.0 798.0H52.0C52.0 752.0 49.0 668.0 41.0 613.0H88.0C136.0 662.0 196.0 744.0 231.0 798.0Z"/></g>
<g fill="red" transform="translate(500 200) scale(0.1 -0.1)"><path d="M0.0 0.0V560.0H456.0V590.0H5.0L-44.0 616.0V-17.0H-36.0C-15.0 -17.0 0.0 -6.0 0.0 0.0ZM401.0 590.0H411.0V65.0C411.0 51.0 407.0 47.0 393.0 47.0C378.0 47.0 311.0 52.0 311.0 52.0V35.0C341.0 32.0 359.0 25.0 370.0 18.0C380.0 9.0 383.0 -6.0 385.0 -20.0C448.0 -13.0 455.0 15.0 455.0 59.0V551.0C475.0 554.0 493.0 562.0 500.0 569.0L428.0 623.0L401.0 590.0ZM300.0 96.0V590.0H256.0V80.0H262.0C285.0 80.0 300.0 91.0 300.0 96.0ZM152.0 65.0V590.0H108.0V48.0H114.0C137.0 48.0 152.0 61.0 152.0 65.0ZM438.0 852.0 398.0 803.0H-65.0L-57.0 773.0H487.0C501.0 773.0 509.0 778.0 512.0 789.0C484.0 817.0 438.0 852.0 438.0 852.0ZM234.0 803.0H175.0C163.0 745.0 139.0 637.0 120.0 572.0H146.0C176.0 635.0 214.0 740.0 234.0 803.0Z"/></g>
<g fill="black" opacity=".8" transform="translate(500 200) scale(0.1 -0.1)"><path d="M0.0 0.0V565.0H456.0V595.0H5.0L-44.0 622.0V-16.0H-37.0C-14.0 -16.0 0.0 -6.0 0.0 0.0ZM403.0 595.0H413.0V67.0C413.0 53.0 409.0 49.0 395.0 49.0C381.0 49.0 316.0 55.0 316.0 55.0V37.0C345.0 33.0 364.0 27.0 374.0 20.0C383.0 12.0 386.0 -5.0 388.0 -18.0C450.0 -12.0 457.0 16.0 457.0 61.0V556.0C477.0 559.0 495.0 567.0 502.0 575.0L429.0 628.0L403.0 595.0ZM303.0 95.0V592.0H259.0V79.0H265.0C288.0 79.0 303.0 91.0 303.0 95.0ZM152.0 68.0V592.0H109.0V51.0H115.0C138.0 51.0 152.0 64.0 152.0 68.0ZM444.0 852.0 404.0 803.0H-72.0L-65.0 773.0H492.0C506.0 773.0 515.0 778.0 518.0 790.0C489.0 817.0 444.0 852.0 444.0 852.0ZM233.0 799.0H174.0C163.0 744.0 138.0 640.0 120.0 578.0H147.0C175.0 638.0 213.0 740.0 233.0 799.0Z"/></g>
<g fill="red" transform="translate(600 200) scale(0.1 -0.1)"><path d="M0.0 0.0V584.0H364.0V612.0H7.0L-128.0 666.0V-44.0H-108.0C-53.0 -44.0 0.0 -14.0 0.0 0.0ZM291.0 612.0H301.0V88.0C301.0 76.0 298.0 69.0 283.0 69.0C264.0 69.0 190.0 74.0 190.0 74.0V61.0C233.0 54.0 248.0 41.0 260.0 27.0C273.0 12.0 276.0 -13.0 278.0 -46.0C412.0 -36.0 431.0 4.0 431.0 79.0V563.0C451.0 567.0 464.0 576.0 471.0 584.0L349.0 678.0L291.0 612.0ZM268.0 110.0V612.0H166.0V85.0H184.0C236.0 85.0 268.0 104.0 268.0 110.0ZM132.0 70.0V612.0H34.0V45.0H51.0C102.0 45.0 132.0 64.0 132.0 70.0ZM351.0 898.0 284.0 805.0H-144.0L-136.0 777.0H444.0C458.0 777.0 469.0 782.0 472.0 793.0C427.0 835.0 351.0 898.0 351.0 898.0ZM227.0 805.0H49.0C49.0 754.0 44.0 658.0 37.0 597.0H83.0C131.0 653.0 192.0 746.0 227.0 805.0Z"/></g>
<g fill="black" opacity=".8" transform="translate(600 200) scale(0.1 -0.1)"><path d="M0.0 0.0V576.0H359.0V604.0H7.0L-126.0 657.0V-44.0H-106.0C-52.0 -44.0 0.0 -13.0 0.0 0.0ZM287.0 604.0H297.0V97.0C297.0 88.0 295.0 81.0 281.0 81.0C266.0 81.0 217.0 85.0 217.0 85.0V71.0C251.0 65.0 262.0 52.0 270.0 37.0C279.0 20.0 281.0 -6.0 283.0 -41.0C407.0 -31.0 424.0 11.0 424.0 88.0V555.0C445.0 559.0 459.0 568.0 464.0 576.0L344.0 669.0L287.0 604.0ZM264.0 118.0V600.0H166.0V94.0H182.0C233.0 94.0 264.0 113.0 264.0 118.0ZM131.0 77.0V600.0H35.0V52.0H52.0C101.0 52.0 131.0 71.0 131.0 77.0ZM347.0 898.0 279.0 806.0H-145.0L-137.0 777.0H438.0C452.0 777.0 464.0 783.0 467.0 794.0C422.0 836.0 347.0 898.0 347.0 898.0ZM227.0 804.0H49.0C49.0 752.0 45.0 656.0 37.0 593.0H83.0C132.0 649.0 193.0 744.0 227.0 804.0Z"/></g>
<g fill="red" transform="translate(700 200) scale(0.1 -0.1)"><path d="M0.0 0.0V560.0H456.0V590.0H5.0L-44.0 616.0V-17.0H-36.0C-15.0 -17.0 0.0 -6.0 0.0 0.0ZM401.0 590.0H411.0V64.0C411.0 51.0 408.0 47.0 395.0 47.0C381.0 47.0 322.0 52.0 322.0 52.0V35.0C349.0 31.0 365.0 25.0 376.0 18.0C384.0 9.0 387.0 -6.0 389.0 -20.0C448.0 -13.0 455.0 14.0 455.0 58.0V551.0C475.0 554.0 493.0 562.0 500.0 569.0L428.0 623.0L401.0 590.0ZM300.0 88.0V590.0H256.0V71.0H262.0C285.0 71.0 300.0 84.0 300.0 88.0ZM151.0 65.0V590.0H107.0V48.0H113.0C136.0 48.0 151.0 61.0 151.0 65.0ZM453.0 851.0 414.0 802.0H-82.0L-74.0 772.0H502.0C516.0 772.0 525.0 777.0 528.0 788.0C499.0 816.0 453.0 851.0 453.0 851.0ZM233.0 802.0H174.0C162.0 744.0 138.0 636.0 119.0 571.0H145.0C175.0 634.0 213.0 739.0 233.0 802.0Z"/></g>
<g fill="black" opacity=".8" transform="translate(700 200) scale(0.1 -0.1)"><path d="M0.0 0.0V556.0H458.0V586.0H5.0L-44.0 613.0V-16.0H-37.0C-14.0 -16.0 0.0 -6.0 0.0 0.0ZM399.0 586.0H409.0V63.0C409.0 50.0 406.0 47.0 393.0 47.0C379.0 47.0 318.0 51.0 318.0 51.0V34.0C345.0 30.0 363.0 24.0 373.0 17.0C382.0 9.0 385.0 -8.0 387.0 -21.0C446.0 -15.0 453.0 13.0 453.0 58.0V547.0C473.0 550.0 492.0 558.0 499.0 566.0L426.0 620.0L399.0 586.0ZM299.0 89.0V589.0H255.0V73.0H261.0C284.0 73.0 299.0 85.0 299.0 89.0ZM150.0 63.0V589.0H106.0V46.0H112.0C136.0 46.0 150.0 59.0 150.0 63.0ZM449.0 850.0 409.0 801.0H-77.0L-70.0 771.0H497.0C512.0 771.0 521.0 776.0 524.0 788.0C494.0 816.0 449.0 850.0 449.0 850.0ZM235.0 804.0H175.0C163.0 744.0 138.0 633.0 118.0 568.0H145.0C175.0 631.0 214.0 740.0 235.0 804.0Z"/></g>
<g fill="red" transform="translate(800 200) scale(0.1 -0.1)"><path d="M0.0 0.0V560.0H365.0V588.0H7.0L-126.0 642.0V-44.0H-106.0C-52.0 -44.0 0.0 -14.0 0.0 0.0ZM293.0 588.0H303.0V102.0C303.0 93.0 301.0 87.0 289.0 87.0C278.0 87.0 253.0 89.0 253.0 89.0V76.0C278.0 70.0 286.0 56.0 291.0 41.0C297.0 23.0 298.0 -4.0 298.0 -42.0C416.0 -32.0 431.0 11.0 431.0 91.0V539.0C452.0 543.0 465.0 552.0 471.0 560.0L350.0 653.0L293.0 588.0ZM272.0 112.0V588.0H170.0V87.0H188.0C240.0 87.0 272.0 107.0 272.0 112.0ZM135.0 72.0V588.0H37.0V47.0H54.0C105.0 47.0 135.0 67.0 135.0 72.0ZM351.0 899.0 284.0 806.0H-153.0L-145.0 778.0H444.0C458.0 778.0 469.0 783.0 472.0 794.0C428.0 836.0 351.0 899.0 351.0 899.0ZM229.0 806.0H51.0C51.0 750.0 45.0 646.0 38.0 580.0H84.0C133.0 641.0 194.0 743.0 229.0 806.0Z"/></g>
<g fill="black" opacity=".8" transform="translate(800 200) scale(0.1 -0.1)"><path d="M0.0 0.0V565.0H368.0V593.0H7.0L-127.0 647.0V-44.0H-107.0C-53.0 -44.0 0.0 -13.0 0.0 0.0ZM297.0 593.0H307.0V95.0C307.0 86.0 305.0 79.0 291.0 79.0C277.0 79.0 234.0 82.0 234.0 82.0V69.0C266.0 63.0 277.0 49.0 283.0 35.0C292.0 17.0 294.0 -9.0 295.0 -45.0C419.0 -34.0 435.0 8.0 435.0 86.0V544.0C457.0 548.0 470.0 557.0 475.0 565.0L355.0 659.0L297.0 593.0ZM275.0 106.0V595.0H171.0V81.0H188.0C241.0 81.0 275.0 101.0 275.0 106.0ZM135.0 68.0V595.0H36.0V43.0H54.0C105.0 43.0 135.0 62.0 135.0 68.0ZM355.0 899.0 288.0 806.0H-151.0L-143.0 777.0H447.0C461.0 777.0 473.0 783.0 476.0 794.0C431.0 836.0 355.0 899.0 355.0 899.0ZM229.0 808.0H51.0C51.0 752.0 46.0 650.0 38.0 583.0H84.0C134.0 642.0 194.0 744.0 229.0 808.0Z"/></g>
</svg>
