<?xml version="1.0" encoding="UTF-8"?>
<svg width="1700" height="300" xmlns="http://www.w3.org/2000/svg">
<rect width="100%" height="100%" fill="white"/>
<g fill="green" transform="translate(100 100) scale(0.1 -0.1)"><path d="M-0.0 0.0 -13.0 -8.0C28.0 -51.0 70.0 -128.0 68.0 -188.0C119.0 -236.0 170.0 -102.0 0.0 0.0ZM124.0 517.0 38.0 538.0C26.0 494.0 4.0 427.0 -8.0 390.0H22.0C41.0 420.0 69.0 464.0 86.0 497.0C106.0 497.0 120.0 504.0 124.0 517.0ZM-1.0 324.0 -14.0 316.0C28.0 274.0 71.0 201.0 72.0 143.0C122.0 97.0 170.0 227.0 -1.0 324.0ZM352.0 139.0 313.0 90.0H-266.0L-257.0 60.0H399.0C413.0 60.0 423.0 65.0 425.0 76.0C396.0 104.0 352.0 139.0 352.0 139.0ZM212.0 399.0H223.0V-311.0C223.0 -327.0 218.0 -333.0 200.0 -333.0C181.0 -333.0 90.0 -325.0 90.0 -325.0V-342.0C128.0 -347.0 153.0 -353.0 167.0 -361.0C179.0 -369.0 184.0 -382.0 187.0 -393.0C260.0 -387.0 268.0 -358.0 268.0 -317.0V356.0C291.0 360.0 310.0 368.0 319.0 377.0L241.0 436.0ZM252.0 399.0H-117.0V368.0H252.0ZM-144.0 409.0V116.0C-144.0 -67.0 -166.0 -241.0 -301.0 -378.0L-285.0 -390.0C-118.0 -254.0 -99.0 -55.0 -99.0 119.0V399.0H-89.0L-144.0 428.0Z"/></g>
<g fill="green" transform="translate(200 100) scale(0.1 -0.1)"><path d="M0.0 0.0 -9.0 -5.0C17.0 -55.0 37.0 -127.0 31.0 -192.0C138.0 -298.0 281.0 -82.0 0.0 0.0ZM214.0 498.0 8.0 528.0C6.0 477.0 1.0 403.0 -3.0 360.0H36.0C73.0 388.0 136.0 437.0 172.0 468.0C194.0 470.0 210.0 478.0 214.0 498.0ZM3.0 308.0 -6.0 303.0C20.0 257.0 41.0 191.0 37.0 130.0C142.0 29.0 282.0 241.0 3.0 308.0ZM371.0 159.0 317.0 69.0H-256.0L-248.0 40.0H440.0C454.0 40.0 464.0 45.0 467.0 56.0C434.0 96.0 371.0 159.0 371.0 159.0ZM175.0 373.0H187.0V-273.0C187.0 -286.0 182.0 -293.0 167.0 -293.0C148.0 -293.0 64.0 -288.0 64.0 -288.0V-301.0C110.0 -310.0 127.0 -326.0 140.0 -347.0C154.0 -368.0 159.0 -403.0 161.0 -449.0C308.0 -435.0 329.0 -384.0 329.0 -289.0V319.0C351.0 324.0 367.0 333.0 374.0 342.0L241.0 448.0ZM275.0 373.0H-65.0V344.0H275.0ZM-160.0 383.0V123.0C-160.0 -62.0 -168.0 -270.0 -274.0 -433.0L-265.0 -440.0C-35.0 -292.0 -21.0 -55.0 -21.0 124.0V373.0H1.0L-160.0 427.0Z"/></g>
<g fill="green" transform="translate(300 100) scale(0.1 -0.1)"><path d="M0.0 0.0 -13.0 -8.0C27.0 -50.0 68.0 -125.0 66.0 -184.0C116.0 -230.0 166.0 -100.0 0.0 0.0ZM121.0 505.0 37.0 525.0C25.0 482.0 4.0 417.0 -8.0 380.0H21.0C40.0 410.0 67.0 453.0 84.0 485.0C104.0 485.0 117.0 492.0 121.0 505.0ZM-1.0 316.0 -14.0 308.0C27.0 267.0 69.0 196.0 70.0 139.0C119.0 94.0 166.0 221.0 -1.0 316.0ZM344.0 135.0 306.0 88.0H-259.0L-251.0 58.0H390.0C403.0 58.0 413.0 63.0 415.0 74.0C387.0 101.0 344.0 135.0 344.0 135.0ZM207.0 389.0H218.0V-304.0C218.0 -319.0 213.0 -325.0 195.0 -325.0C177.0 -325.0 88.0 -317.0 88.0 -317.0V-334.0C125.0 -339.0 149.0 -345.0 163.0 -353.0C175.0 -360.0 180.0 -373.0 183.0 -384.0C254.0 -378.0 262.0 -350.0 262.0 -310.0V347.0C284.0 351.0 303.0 359.0 311.0 368.0L235.0 425.0ZM246.0 389.0H-114.0V359.0H246.0ZM-141.0 399.0V114.0C-141.0 -65.0 -162.0 -235.0 -293.0 -369.0L-278.0 -381.0C-115.0 -248.0 -97.0 -53.0 -97.0 116.0V389.0H-87.0L-141.0 417.0Z"/></g>
<g fill="green" transform="translate(400 100) scale(0.1 -0.1)"><path d="M0.0 0.0 -9.0 -5.0C17.0 -54.0 36.0 -124.0 30.0 -187.0C135.0 -291.0 274.0 -80.0 0.0 0.0ZM209.0 486.0 8.0 515.0C6.0 466.0 1.0 393.0 -3.0 352.0H35.0C72.0 379.0 133.0 427.0 168.0 457.0C190.0 459.0 205.0 467.0 209.0 486.0ZM3.0 301.0 -6.0 296.0C20.0 251.0 40.0 186.0 36.0 127.0C139.0 28.0 275.0 235.0 3.0 301.0ZM362.0 155.0 309.0 67.0H-250.0L-242.0 39.0H430.0C443.0 39.0 453.0 44.0 456.0 55.0C424.0 94.0 362.0 155.0 362.0 155.0ZM171.0 364.0H182.0V-267.0C182.0 -279.0 178.0 -286.0 163.0 -286.0C144.0 -286.0 62.0 -281.0 62.0 -281.0V-294.0C107.0 -303.0 124.0 -318.0 137.0 -339.0C150.0 -359.0 155.0 -393.0 157.0 -438.0C301.0 -425.0 321.0 -375.0 321.0 -282.0V311.0C343.0 316.0 358.0 325.0 365.0 334.0L235.0 437.0ZM269.0 364.0H-63.0V336.0H269.0ZM-156.0 374.0V120.0C-156.0 -60.0 -164.0 -263.0 -267.0 -423.0L-258.0 -429.0C-34.0 -285.0 -20.0 -53.0 -20.0 121.0V364.0H1.0L-156.0 417.0Z"/></g>
<g fill="green" transform="translate(500 100) scale(0.1 -0.1)"><path d="M-0.0 0.0 -13.0 -8.0C27.0 -50.0 68.0 -125.0 66.0 -184.0C115.0 -230.0 165.0 -100.0 0.0 0.0ZM114.0 516.0 31.0 536.0C21.0 501.0 4.0 446.0 -5.0 417.0H24.0C40.0 440.0 63.0 472.0 77.0 497.0C97.0 496.0 110.0 503.0 114.0 516.0ZM2.0 342.0 -11.0 334.0C28.0 296.0 67.0 229.0 67.0 175.0C115.0 133.0 162.0 254.0 2.0 342.0ZM338.0 158.0 300.0 112.0H-278.0L-270.0 82.0H382.0C396.0 82.0 405.0 87.0 408.0 98.0C381.0 125.0 338.0 158.0 338.0 158.0ZM206.0 429.0H217.0V-299.0C217.0 -314.0 212.0 -320.0 194.0 -320.0C176.0 -320.0 87.0 -313.0 87.0 -313.0V-329.0C124.0 -334.0 148.0 -339.0 162.0 -347.0C174.0 -354.0 179.0 -367.0 182.0 -380.0C253.0 -372.0 261.0 -345.0 261.0 -304.0V387.0C283.0 391.0 302.0 399.0 310.0 408.0L234.0 465.0ZM239.0 429.0H-117.0V399.0H239.0ZM-131.0 439.0V89.0C-131.0 -102.0 -164.0 -253.0 -330.0 -365.0L-316.0 -379.0C-116.0 -268.0 -87.0 -94.0 -87.0 91.0V429.0H-77.0L-131.0 457.0Z"/></g>
<g fill="green" transform="translate(600 100) scale(0.1 -0.1)"><path d="M0.0 0.0 -9.0 -5.0C18.0 -57.0 37.0 -130.0 31.0 -196.0C135.0 -300.0 273.0 -87.0 0.0 0.0ZM178.0 492.0 -21.0 520.0C-22.0 468.0 -27.0 392.0 -30.0 348.0H7.0C43.0 378.0 103.0 430.0 137.0 463.0C160.0 465.0 174.0 473.0 178.0 492.0ZM5.0 309.0 -4.0 304.0C21.0 259.0 39.0 194.0 35.0 135.0C136.0 37.0 271.0 239.0 5.0 309.0ZM366.0 171.0 317.0 75.0H-261.0L-253.0 47.0H424.0C438.0 47.0 447.0 52.0 450.0 63.0C423.0 104.0 366.0 171.0 366.0 171.0ZM180.0 371.0H191.0V-268.0C191.0 -281.0 187.0 -288.0 172.0 -288.0C153.0 -288.0 71.0 -283.0 71.0 -283.0V-296.0C116.0 -305.0 133.0 -319.0 146.0 -341.0C159.0 -361.0 164.0 -394.0 166.0 -439.0C309.0 -427.0 328.0 -376.0 328.0 -284.0V318.0C351.0 323.0 365.0 332.0 372.0 342.0L243.0 443.0ZM242.0 371.0H-80.0V343.0H242.0ZM-162.0 381.0V110.0C-162.0 -78.0 -176.0 -278.0 -309.0 -436.0L-301.0 -444.0C-46.0 -303.0 -28.0 -72.0 -28.0 111.0V371.0H-7.0L-162.0 424.0Z"/></g>
<g fill="red" transform="translate(100 200) scale(0.1 -0.1)"><path d="M0.0 0.0 -13.0 -8.0C27.0 -50.0 68.0 -125.0 66.0 -184.0C116.0 -230.0 166.0 -100.0 0.0 0.0ZM121.0 505.0 37.0 525.0C25.0 482.0 4.0 417.0 -8.0 380.0H21.0C40.0 410.0 67.0 453.0 84.0 485.0C104.0 485.0 117.0 492.0 121.0 505.0ZM-1.0 316.0 -14.0 308.0C27.0 267.0 69.0 196.0 70.0 139.0C119.0 94.0 166.0 221.0 -1.0 316.0ZM344.0 135.0 306.0 88.0H-259.0L-251.0 58.0H390.0C403.0 58.0 413.0 63.0 415.0 74.0C387.0 101.0 344.0 135.0 344.0 135.0ZM207.0 389.0H218.0V-304.0C218.0 -319.0 213.0 -325.0 195.0 -325.0C177.0 -325.0 88.0 -317.0 88.0 -317.0V-334.0C125.0 -339.0 149.0 -345.0 163.0 -353.0C175.0 -360.0 180.0 -373.0 183.0 -384.0C254.0 -378.0 262.0 -350.0 262.0 -310.0V347.0C284.0 351.0 303.0 359.0 311.0 368.0L235.0 425.0ZM246.0 389.0H-114.0V359.0H246.0ZM-141.0 399.0V114.0C-141.0 -65.0 -162.0 -235.0 -293.0 -369.0L-278.0 -381.0C-115.0 -248.0 -97.0 -53.0 -97.0 116.0V389.0H-87.0L-141.0 417.0Z"/></g>
<g fill="black" opacity=".8" transform="translate(100 200) scale(0.1 -0.1)"><path d="M0.0 0.0 -13.0 -8.0C27.0 -50.0 68.0 -125.0 66.0 -184.0C116.0 -230.0 166.0 -100.0 0.0 0.0ZM121.0 505.0 37.0 525.0C25.0 482.0 4.0 417.0 -8.0 380.0H21.0C40.0 410.0 67.0 453.0 84.0 485.0C104.0 485.0 117.0 492.0 121.0 505.0ZM-1.0 316.0 -14.0 308.0C27.0 267.0 69.0 196.0 70.0 139.0C119.0 94.0 166.0 221.0 -1.0 316.0ZM344.0 135.0 306.0 88.0H-259.0L-251.0 58.0H390.0C403.0 58.0 413.0 63.0 415.0 74.0C387.0 101.0 344.0 135.0 344.0 135.0ZM207.0 389.0H218.0V-304.0C218.0 -319.0 213.0 -325.0 195.0 -325.0C177.0 -325.0 88.0 -317.0 88.0 -317.0V-334.0C125.0 -339.0 149.0 -345.0 163.0 -353.0C175.0 -360.0 180.0 -373.0 183.0 -384.0C254.0 -378.0 262.0 -350.0 262.0 -310.0V347.0C284.0 351.0 303.0 359.0 311.0 368.0L235.0 425.0ZM246.0 389.0H-114.0V359.0H246.0ZM-141.0 399.0V114.0C-141.0 -65.0 -162.0 -235.0 -293.0 -369.0L-278.0 -381.0C-115.0 -248.0 -97.0 -53.0 -97.0 116.0V389.0H-87.0L-141.0 417.0Z"/></g>
<g fill="red" transform="translate(200 200) scale(0.1 -0.1)"><path d="M0.0 0.0 -9.0 -5.0C17.0 -54.0 36.0 -124.0 30.0 -187.0C135.0 -291.0 274.0 -80.0 0.0 0.0ZM209.0 486.0 8.0 515.0C6.0 466.0 1.0 393.0 -3.0 352.0H35.0C72.0 379.0 133.0 427.0 168.0 457.0C190.0 459.0 205.0 467.0 209.0 486.0ZM3.0 301.0 -6.0 296.0C20.0 251.0 40.0 186.0 36.0 127.0C139.0 28.0 275.0 235.0 3.0 301.0ZM362.0 155.0 309.0 67.0H-250.0L-242.0 39.0H430.0C443.0 39.0 453.0 44.0 456.0 55.0C424.0 94.0 362.0 155.0 362.0 155.0ZM171.0 364.0H182.0V-267.0C182.0 -279.0 178.0 -286.0 163.0 -286.0C144.0 -286.0 62.0 -281.0 62.0 -281.0V-294.0C107.0 -303.0 124.0 -318.0 137.0 -339.0C150.0 -359.0 155.0 -393.0 157.0 -438.0C301.0 -425.0 321.0 -375.0 321.0 -282.0V311.0C343.0 316.0 358.0 325.0 365.0 334.0L235.0 437.0ZM269.0 364.0H-63.0V336.0H269.0ZM-156.0 374.0V120.0C-156.0 -60.0 -164.0 -263.0 -267.0 -423.0L-258.0 -429.0C-34.0 -285.0 -20.0 -53.0 -20.0 121.0V364.0H1.0L-156.0 417.0Z"/></g>
<g fill="black" opacity=".8" transform="translate(200 200) scale(0.1 -0.1)"><path d="M0.0 0.0 -9.0 -5.0C17.0 -54.0 36.0 -124.0 30.0 -187.0C135.0 -291.0 274.0 -80.0 0.0 0.0ZM209.0 486.0 8.0 515.0C6.0 466.0 1.0 393.0 -3.0 352.0H35.0C72.0 379.0 133.0 427.0 168.0 457.0C190.0 459.0 205.0 467.0 209.0 486.0ZM3.0 301.0 -6.0 296.0C20.0 251.0 40.0 186.0 36.0 127.0C139.0 28.0 275.0 235.0 3.0 301.0ZM362.0 155.0 309.0 67.0H-250.0L-242.0 39.0H430.0C443.0 39.0 453.0 44.0 456.0 55.0C424.0 94.0 362.0 155.0 362.0 155.0ZM171.0 364.0H182.0V-267.0C182.0 -279.0 178.0 -286.0 163.0 -286.0C144.0 -286.0 62.0 -281.0 62.0 -281.0V-294.0C107.0 -303.0 124.0 -318.0 137.0 -339.0C150.0 -359.0 155.0 -393.0 157.0 -438.0C301.0 -425.0 321.0 -375.0 321.0 -282.0V311.0C343.0 316.0 358.0 325.0 365.0 334.0L235.0 437.0ZM269.0 364.0H-63.0V336.0H269.0ZM-156.0 374.0V120.0C-156.0 -60.0 -164.0 -263.0 -267.0 -423.0L-258.0 -429.0C-34.0 -285.0 -20.0 -53.0 -20.0 121.0V364.0H1.0L-156.0 417.0Z"/></g>
<g fill="red" transform="translate(300 200) scale(0.1 -0.1)"><path d="M0.0 0.0 -13.0 -8.0C27.0 -50.0 68.0 -125.0 66.0 -184.0C115.0 -230.0 165.0 -100.0 0.0 0.0ZM114.0 516.0 31.0 536.0C21.0 501.0 4.0 446.0 -5.0 417.0H24.0C40.0 440.0 63.0 472.0 77.0 497.0C97.0 496.0 110.0 503.0 114.0 516.0ZM2.0 342.0 -11.0 334.0C28.0 296.0 67.0 229.0 67.0 175.0C115.0 133.0 162.0 254.0 2.0 342.0ZM338.0 158.0 300.0 112.0H-278.0L-270.0 82.0H382.0C396.0 82.0 405.0 87.0 408.0 98.0C381.0 125.0 338.0 158.0 338.0 158.0ZM206.0 429.0H217.0V-299.0C217.0 -314.0 212.0 -320.0 194.0 -320.0C176.0 -320.0 87.0 -313.0 87.0 -313.0V-329.0C124.0 -334.0 148.0 -339.0 162.0 -347.0C174.0 -354.0 179.0 -367.0 182.0 -380.0C253.0 -372.0 261.0 -345.0 261.0 -304.0V387.0C283.0 391.0 302.0 399.0 310.0 408.0L234.0 465.0ZM239.0 429.0H-117.0V399.0H239.0ZM-131.0 439.0V89.0C-131.0 -102.0 -164.0 -253.0 -330.0 -365.0L-316.0 -379.0C-116.0 -268.0 -87.0 -94.0 -87.0 91.0V429.0H-77.0L-131.0 457.0Z"/></g>
<g fill="black" opacity=".8" transform="translate(300 200) scale(0.1 -0.1)"><path d="M0.0 0.0 -13.0 -8.0C27.0 -50.0 68.0 -125.0 66.0 -184.0C115.0 -230.0 165.0 -100.0 0.0 0.0ZM114.0 516.0 31.0 536.0C21.0 501.0 4.0 446.0 -5.0 417.0H24.0C40.0 440.0 63.0 472.0 77.0 497.0C97.0 496.0 110.0 503.0 114.0 516.0ZM2.0 342.0 -11.0 334.0C28.0 296.0 67.0 229.0 67.0 175.0C115.0 133.0 162.0 254.0 2.0 342.0ZM338.0 158.0 300.0 112.0H-278.0L-270.0 82.0H382.0C396.0 82.0 405.0 87.0 408.0 98.0C381.0 125.0 338.0 158.0 338.0 158.0ZM206.0 429.0H217.0V-299.0C217.0 -314.0 212.0 -320.0 194.0 -320.0C176.0 -320.0 87.0 -313.0 87.0 -313.0V-329.0C124.0 -334.0 148.0 -339.0 162.0 -347.0C174.0 -354.0 179.0 -367.0 182.0 -380.0C253.0 -372.0 261.0 -345.0 261.0 -304.0V387.0C283.0 391.0 302.0 399.0 310.0 408.0L234.0 465.0ZM239.0 429.0H-117.0V399.0H239.0ZM-131.0 439.0V89.0C-131.0 -102.0 -164.0 -253.0 -330.0 -365.0L-316.0 -379.0C-116.0 -268.0 -87.0 -94.0 -87.0 91.0V429.0H-77.0L-131.0 457.0Z"/></g>
<g fill="red" transform="translate(400 200) scale(0.1 -0.1)"><path d="M0.0 0.0 -9.0 -5.0C18.0 -57.0 37.0 -130.0 31.0 -196.0C135.0 -300.0 273.0 -87.0 0.0 0.0ZM178.0 492.0 -21.0 520.0C-22.0 468.0 -27.0 392.0 -30.0 348.0H7.0C43.0 378.0 103.0 430.0 137.0 463.0C160.0 465.0 174.0 473.0 178.0 492.0ZM5.0 309.0 -4.0 304.0C21.0 259.0 39.0 194.0 35.0 135.0C136.0 37.0 271.0 239.0 5.0 309.0ZM366.0 171.0 317.0 75.0H-261.0L-253.0 47.0H424.0C438.0 47.0 447.0 52.0 450.0 63.0C423.0 104.0 366.0 171.0 366.0 171.0ZM180.0 371.0H191.0V-268.0C191.0 -281.0 187.0 -288.0 172.0 -288.0C153.0 -288.0 71.0 -283.0 71.0 -283.0V-296.0C116.0 -305.0 133.0 -319.0 146.0 -341.0C159.0 -361.0 164.0 -394.0 166.0 -439.0C309.0 -427.0 328.0 -376.0 328.0 -284.0V318.0C351.0 323.0 365.0 332.0 372.0 342.0L243.0 443.0ZM242.0 371.0H-80.0V343.0H242.0ZM-162.0 381.0V110.0C-162.0 -78.0 -176.0 -278.0 -309.0 -436.0L-301.0 -444.0C-46.0 -303.0 -28.0 -72.0 -28.0 111.0V371.0H-7.0L-162.0 424.0Z"/></g>
<g fill="black" opacity=".8" transform="translate(400 200) scale(0.1 -0.1)"><path d="M0.0 0.0 -9.0 -5.0C18.0 -57.0 37.0 -130.0 31.0 -196.0C135.0 -300.0 273.0 -87.0 0.0 0.0ZM178.0 492.0 -21.0 520.0C-22.0 468.0 -27.0 392.0 -30.0 348.0H7.0C43.0 378.0 103.0 430.0 137.0 463.0C160.0 465.0 174.0 473.0 178.0 492.0ZM5.0 309.0 -4.0 304.0C21.0 259.0 39.0 194.0 35.0 135.0C136.0 37.0 271.0 239.0 5.0 309.0ZM366.0 171.0 317.0 75.0H-261.0L-253.0 47.0H424.0C438.0 47.0 447.0 52.0 450.0 63.0C423.0 104.0 366.0 171.0 366.0 171.0ZM180.0 371.0H191.0V-268.0C191.0 -281.0 187.0 -288.0 172.0 -288.0C153.0 -288.0 71.0 -283.0 71.0 -283.0V-296.0C116.0 -305.0 133.0 -319.0 146.0 -341.0C159.0 -361.0 164.0 -394.0 166.0 -439.0C309.0 -427.0 328.0 -376.0 328.0 -284.0V318.0C351.0 323.0 365.0 332.0 372.0 342.0L243.0 443.0ZM242.0 371.0H-80.0V343.0H242.0ZM-162.0 381.0V110.0C-162.0 -78.0 -176.0 -278.0 -309.0 -436.0L-301.0 -444.0C-46.0 -303.0 -28.0 -72.0 -28.0 111.0V371.0H-7.0L-162.0 424.0Z"/></g>
</svg>
