<?xml version="1.0" encoding="UTF-8"?>
<svg width="1700" height="300" xmlns="http://www.w3.org/2000/svg">
<rect width="100%" height="100%" fill="white"/>
<g fill="green" transform="translate(100 100) scale(0.1 -0.1)"><path d="M0.0 0.0H-44.0V-478.0C-44.0 -514.0 -32.0 -529.0 24.0 -529.0H96.0C208.0 -530.0 233.0 -523.0 233.0 -502.0C233.0 -492.0 225.0 -489.0 207.0 -484.0H203.0H193.0C188.0 -486.0 182.0 -487.0 177.0 -487.0C173.0 -488.0 169.0 -488.0 163.0 -488.0C153.0 -489.0 127.0 -489.0 98.0 -489.0H32.0C4.0 -489.0 0.0 -484.0 0.0 -467.0V-32.0C0.0 -23.0 0.0 -14.0 0.0 0.0ZM-216.0 -206.0V4.0H-260.0V-207.0C-260.0 -350.0 -287.0 -489.0 -455.0 -600.0L-442.0 -615.0C-242.0 -511.0 -217.0 -353.0 -216.0 -206.0ZM224.0 -716.0H-475.0V-746.0H224.0ZM-502.0 -170.0V-816.0H-496.0C-473.0 -816.0 -459.0 -803.0 -459.0 -799.0V-226.0H200.0V-812.0H206.0C224.0 -812.0 244.0 -799.0 244.0 -795.0V-230.0C265.0 -227.0 277.0 -222.0 284.0 -214.0L221.0 -164.0L197.0 -196.0H-447.0ZM246.0 57.0 203.0 4.0H-583.0L-574.0 -26.0H300.0C315.0 -26.0 323.0 -21.0 326.0 -10.0C296.0 19.0 246.0 57.0 246.0 57.0Z"/></g>
<g fill="green" transform="translate(200 100) scale(0.1 -0.1)"><path d="M0.0 0.0H-133.0V-452.0C-133.0 -533.0 -120.0 -560.0 -32.0 -560.0H19.0C127.0 -560.0 168.0 -538.0 168.0 -484.0C168.0 -460.0 158.0 -442.0 127.0 -428.0L122.0 -425.0H113.0C105.0 -427.0 94.0 -429.0 86.0 -430.0C79.0 -431.0 66.0 -432.0 60.0 -432.0C53.0 -432.0 44.0 -432.0 37.0 -432.0H15.0C3.0 -432.0 0.0 -428.0 0.0 -414.0V-38.0C0.0 -27.0 0.0 -13.0 0.0 0.0ZM-206.0 -228.0V0.0H-341.0V-228.0C-341.0 -360.0 -347.0 -498.0 -435.0 -605.0L-428.0 -613.0C-223.0 -516.0 -206.0 -359.0 -206.0 -228.0ZM158.0 -713.0H-494.0V-741.0H158.0ZM-576.0 -151.0V-837.0H-550.0C-478.0 -837.0 -435.0 -811.0 -435.0 -802.0V-235.0H102.0V-833.0H128.0C203.0 -833.0 250.0 -804.0 250.0 -797.0V-248.0C274.0 -243.0 285.0 -235.0 292.0 -225.0L168.0 -127.0L97.0 -207.0H-424.0ZM170.0 99.0 91.0 0.0H-641.0L-633.0 -28.0H286.0C301.0 -28.0 313.0 -23.0 316.0 -12.0C261.0 33.0 170.0 99.0 170.0 99.0Z"/></g>
<g fill="green" transform="translate(300 100) scale(0.1 -0.1)"><path d="M0.0 0.0H-44.0V-478.0C-44.0 -514.0 -32.0 -529.0 24.0 -529.0H96.0C208.0 -530.0 233.0 -523.0 233.0 -502.0C233.0 -492.0 225.0 -489.0 207.0 -484.0H203.0H193.0C188.0 -486.0 182.0 -487.0 177.0 -487.0C173.0 -488.0 169.0 -488.0 163.0 -488.0C153.0 -489.0 127.0 -489.0 98.0 -489.0H32.0C4.0 -489.0 0.0 -484.0 0.0 -467.0V-32.0C0.0 -23.0 0.0 -14.0 0.0 0.0ZM-216.0 -206.0V4.0H-260.0V-207.0C-260.0 -350.0 -287.0 -489.0 -455.0 -600.0L-442.0 -615.0C-242.0 -511.0 -217.0 -353.0 -216.0 -206.0ZM224.0 -716.0H-475.0V-746.0H224.0ZM-502.0 -170.0V-816.0H-496.0C-473.0 -816.0 -459.0 -803.0 -459.0 -799.0V-226.0H200.0V-812.0H206.0C224.0 -812.0 244.0 -799.0 244.0 -795.0V-230.0C265.0 -227.0 277.0 -222.0 284.0 -214.0L221.0 -164.0L197.0 -196.0H-447.0ZM246.0 57.0 203.0 4.0H-583.0L-574.0 -26.0H300.0C315.0 -26.0 323.0 -21.0 326.0 -10.0C296.0 19.0 246.0 57.0 246.0 57.0Z"/></g>
<g fill="green" transform="translate(400 100) scale(0.1 -0.1)"><path d="M0.0 0.0H-133.0V-452.0C-133.0 -533.0 -120.0 -560.0 -32.0 -560.0H19.0C127.0 -560.0 168.0 -538.0 168.0 -484.0C168.0 -460.0 158.0 -442.0 127.0 -428.0L122.0 -425.0H113.0C105.0 -427.0 94.0 -429.0 86.0 -430.0C79.0 -431.0 66.0 -432.0 60.0 -432.0C53.0 -432.0 44.0 -432.0 37.0 -432.0H15.0C3.0 -432.0 0.0 -428.0 0.0 -414.0V-38.0C0.0 -27.0 0.0 -13.0 0.0 0.0ZM-206.0 -228.0V0.0H-341.0V-228.0C-341.0 -360.0 -347.0 -498.0 -435.0 -605.0L-428.0 -613.0C-223.0 -516.0 -206.0 -359.0 -206.0 -228.0ZM158.0 -713.0H-494.0V-741.0H158.0ZM-576.0 -151.0V-837.0H-550.0C-478.0 -837.0 -435.0 -811.0 -435.0 -802.0V-235.0H102.0V-833.0H128.0C203.0 -833.0 250.0 -804.0 250.0 -797.0V-248.0C274.0 -243.0 285.0 -235.0 292.0 -225.0L168.0 -127.0L97.0 -207.0H-424.0ZM170.0 99.0 91.0 0.0H-641.0L-633.0 -28.0H286.0C301.0 -28.0 313.0 -23.0 316.0 -12.0C261.0 33.0 170.0 99.0 170.0 99.0Z"/></g>
<g fill="red" transform="translate(100 200) scale(0.1 -0.1)"><path d="M0.0 0.0H-44.0V-478.0C-44.0 -514.0 -32.0 -529.0 24.0 -529.0H96.0C208.0 -530.0 233.0 -523.0 233.0 -502.0C233.0 -492.0 225.0 -489.0 207.0 -484.0H203.0H193.0C188.0 -486.0 182.0 -487.0 177.0 -487.0C173.0 -488.0 169.0 -488.0 163.0 -488.0C153.0 -489.0 127.0 -489.0 98.0 -489.0H32.0C4.0 -489.0 0.0 -484.0 0.0 -467.0V-32.0C0.0 -23.0 0.0 -14.0 0.0 0.0ZM-216.0 -206.0V4.0H-260.0V-207.0C-260.0 -350.0 -287.0 -489.0 -455.0 -600.0L-442.0 -615.0C-242.0 -511.0 -217.0 -353.0 -216.0 -206.0ZM224.0 -716.0H-475.0V-746.0H224.0ZM-502.0 -170.0V-816.0H-496.0C-473.0 -816.0 -459.0 -803.0 -459.0 -799.0V-226.0H200.0V-812.0H206.0C224.0 -812.0 244.0 -799.0 244.0 -795.0V-230.0C265.0 -227.0 277.0 -222.0 284.0 -214.0L221.0 -164.0L197.0 -196.0H-447.0ZM246.0 57.0 203.0 4.0H-583.0L-574.0 -26.0H300.0C315.0 -26.0 323.0 -21.0 326.0 -10.0C296.0 19.0 246.0 57.0 246.0 57.0Z"/></g>
<g fill="black" opacity=".8" transform="translate(100 200) scale(0.1 -0.1)"><path d="M0.0 0.0H-44.0V-478.0C-44.0 -514.0 -32.0 -529.0 24.0 -529.0H96.0C208.0 -530.0 233.0 -523.0 233.0 -502.0C233.0 -492.0 225.0 -489.0 207.0 -484.0H203.0H193.0C188.0 -486.0 182.0 -487.0 177.0 -487.0C173.0 -488.0 169.0 -488.0 163.0 -488.0C153.0 -489.0 127.0 -489.0 98.0 -489.0H32.0C4.0 -489.0 0.0 -484.0 0.0 -467.0V-32.0C0.0 -23.0 0.0 -14.0 0.0 0.0ZM-216.0 -206.0V4.0H-260.0V-207.0C-260.0 -350.0 -287.0 -489.0 -455.0 -600.0L-442.0 -615.0C-242.0 -511.0 -217.0 -353.0 -216.0 -206.0ZM224.0 -716.0H-475.0V-746.0H224.0ZM-502.0 -170.0V-816.0H-496.0C-473.0 -816.0 -459.0 -803.0 -459.0 -799.0V-226.0H200.0V-812.0H206.0C224.0 -812.0 244.0 -799.0 244.0 -795.0V-230.0C265.0 -227.0 277.0 -222.0 284.0 -214.0L221.0 -164.0L197.0 -196.0H-447.0ZM246.0 57.0 203.0 4.0H-583.0L-574.0 -26.0H300.0C315.0 -26.0 323.0 -21.0 326.0 -10.0C296.0 19.0 246.0 57.0 246.0 57.0Z"/></g>
<g fill="red" transform="translate(200 200) scale(0.1 -0.1)"><path d="M0.0 0.0H-133.0V-452.0C-133.0 -533.0 -120.0 -560.0 -32.0 -560.0H19.0C127.0 -560.0 168.0 -538.0 168.0 -484.0C168.0 -460.0 158.0 -442.0 127.0 -428.0L122.0 -425.0H113.0C105.0 -427.0 94.0 -429.0 86.0 -430.0C79.0 -431.0 66.0 -432.0 60.0 -432.0C53.0 -432.0 44.0 -432.0 37.0 -432.0H15.0C3.0 -432.0 0.0 -428.0 0.0 -414.0V-38.0C0.0 -27.0 0.0 -13.0 0.0 0.0ZM-206.0 -228.0V0.0H-341.0V-228.0C-341.0 -360.0 -347.0 -498.0 -435.0 -605.0L-428.0 -613.0C-223.0 -516.0 -206.0 -359.0 -206.0 -228.0ZM158.0 -713.0H-494.0V-741.0H158.0ZM-576.0 -151.0V-837.0H-550.0C-478.0 -837.0 -435.0 -811.0 -435.0 -802.0V-235.0H102.0V-833.0H128.0C203.0 -833.0 250.0 -804.0 250.0 -797.0V-248.0C274.0 -243.0 285.0 -235.0 292.0 -225.0L168.0 -127.0L97.0 -207.0H-424.0ZM170.0 99.0 91.0 0.0H-641.0L-633.0 -28.0H286.0C301.0 -28.0 313.0 -23.0 316.0 -12.0C261.0 33.0 170.0 99.0 170.0 99.0Z"/></g>
<g fill="black" opacity=".8" transform="translate(200 200) scale(0.1 -0.1)"><path d="M0.0 0.0H-133.0V-452.0C-133.0 -533.0 -120.0 -560.0 -32.0 -560.0H19.0C127.0 -560.0 168.0 -538.0 168.0 -484.0C168.0 -460.0 158.0 -442.0 127.0 -428.0L122.0 -425.0H113.0C105.0 -427.0 94.0 -429.0 86.0 -430.0C79.0 -431.0 66.0 -432.0 60.0 -432.0C53.0 -432.0 44.0 -432.0 37.0 -432.0H15.0C3.0 -432.0 0.0 -428.0 0.0 -414.0V-38.0C0.0 -27.0 0.0 -13.0 0.0 0.0ZM-206.0 -228.0V0.0H-341.0V-228.0C-341.0 -360.0 -347.0 -498.0 -435.0 -605.0L-428.0 -613.0C-223.0 -516.0 -206.0 -359.0 -206.0 -228.0ZM158.0 -713.0H-494.0V-741.0H158.0ZM-576.0 -151.0V-837.0H-550.0C-478.0 -837.0 -435.0 -811.0 -435.0 -802.0V-235.0H102.0V-833.0H128.0C203.0 -833.0 250.0 -804.0 250.0 -797.0V-248.0C274.0 -243.0 285.0 -235.0 292.0 -225.0L168.0 -127.0L97.0 -207.0H-424.0ZM170.0 99.0 91.0 0.0H-641.0L-633.0 -28.0H286.0C301.0 -28.0 313.0 -23.0 316.0 -12.0C261.0 33.0 170.0 99.0 170.0 99.0Z"/></g>
</svg>
