<?xml version="1.0" encoding="UTF-8"?>
<svg width="1700" height="300" xmlns="http://www.w3.org/2000/svg">
<rect width="100%" height="100%" fill="white"/>
<g fill="green" transform="translate(100 100) scale(0.1 -0.1)"><path d="M0.0 0.0V-31.0H154.0V0.0ZM130.0 0.0C117.0 -43.0 86.0 -129.0 57.0 -176.0H77.0C113.0 -140.0 153.0 -73.0 177.0 -36.0C195.0 -35.0 208.0 -33.0 216.0 -26.0L153.0 34.0L119.0 0.0ZM-57.0 -159.0V-362.0C-57.0 -513.0 -60.0 -679.0 -132.0 -816.0L-115.0 -829.0C-19.0 -692.0 -14.0 -500.0 -14.0 -361.0V-159.0H-4.0L-57.0 -131.0V-149.0ZM-38.0 -159.0V-189.0H202.0V-159.0ZM-38.0 -328.0V-359.0H202.0V-328.0ZM-38.0 -503.0V-533.0H202.0V-503.0ZM178.0 -159.0V-746.0C178.0 -761.0 174.0 -766.0 158.0 -766.0C142.0 -766.0 66.0 -759.0 66.0 -759.0V-776.0C99.0 -780.0 119.0 -785.0 131.0 -795.0C142.0 -803.0 147.0 -817.0 148.0 -832.0C216.0 -824.0 223.0 -796.0 223.0 -752.0V-194.0C240.0 -191.0 254.0 -184.0 259.0 -178.0L192.0 -127.0L170.0 -159.0ZM58.0 -159.0V-518.0H102.0V-159.0ZM242.0 51.0 250.0 21.0H525.0V51.0ZM505.0 51.0C501.0 -88.0 493.0 -152.0 478.0 -166.0C471.0 -172.0 464.0 -174.0 452.0 -174.0C435.0 -174.0 396.0 -171.0 370.0 -168.0V-186.0C390.0 -189.0 414.0 -194.0 423.0 -200.0C433.0 -209.0 435.0 -223.0 435.0 -235.0C460.0 -235.0 487.0 -227.0 506.0 -212.0C532.0 -187.0 545.0 -125.0 549.0 18.0C568.0 21.0 581.0 25.0 587.0 31.0L523.0 83.0L495.0 51.0ZM389.0 -253.0V-831.0H398.0C415.0 -831.0 435.0 -818.0 435.0 -810.0V-286.0C454.0 -283.0 462.0 -275.0 464.0 -262.0ZM239.0 -551.0 247.0 -581.0H580.0C592.0 -581.0 602.0 -577.0 604.0 -566.0C579.0 -539.0 534.0 -506.0 534.0 -506.0L498.0 -551.0ZM353.0 51.0C350.0 -36.0 337.0 -146.0 229.0 -238.0L245.0 -253.0C377.0 -166.0 395.0 -47.0 402.0 51.0ZM296.0 -278.0C287.0 -363.0 266.0 -451.0 239.0 -513.0L255.0 -521.0C293.0 -470.0 322.0 -392.0 341.0 -317.0C363.0 -316.0 373.0 -307.0 376.0 -294.0ZM288.0 -386.0V-417.0H554.0C568.0 -417.0 578.0 -412.0 580.0 -400.0C554.0 -376.0 513.0 -342.0 513.0 -342.0L476.0 -386.0ZM23.0 96.0C-7.0 -31.0 -60.0 -153.0 -115.0 -232.0L-98.0 -241.0C-33.0 -171.0 24.0 -60.0 61.0 53.0C82.0 53.0 94.0 62.0 98.0 73.0Z"/></g>
<g fill="green" transform="translate(200 100) scale(0.1 -0.1)"><path d="M0.0 0.0V-29.0H160.0V0.0ZM95.0 0.0C90.0 -39.0 74.0 -118.0 60.0 -161.0H74.0C119.0 -132.0 168.0 -80.0 200.0 -43.0C221.0 -42.0 232.0 -40.0 241.0 -32.0L139.0 58.0L84.0 0.0ZM-79.0 -148.0V-370.0C-79.0 -525.0 -79.0 -701.0 -139.0 -842.0L-126.0 -852.0C12.0 -715.0 19.0 -515.0 19.0 -370.0V-148.0H36.0L-56.0 -114.0L-79.0 -138.0ZM-29.0 -148.0V-177.0H200.0V-148.0ZM-31.0 -327.0V-355.0H198.0V-327.0ZM-31.0 -510.0V-539.0H198.0V-510.0ZM141.0 -148.0V-718.0C141.0 -731.0 138.0 -736.0 125.0 -736.0C111.0 -736.0 54.0 -732.0 54.0 -732.0V-747.0C86.0 -753.0 100.0 -764.0 110.0 -779.0C120.0 -794.0 123.0 -821.0 125.0 -852.0C229.0 -842.0 243.0 -802.0 243.0 -729.0V-186.0C257.0 -184.0 269.0 -177.0 273.0 -172.0L177.0 -98.0L133.0 -148.0ZM43.0 -148.0V-517.0H117.0V-148.0ZM229.0 57.0 239.0 28.0H533.0V57.0ZM475.0 57.0C473.0 -75.0 470.0 -128.0 459.0 -139.0C454.0 -144.0 449.0 -146.0 437.0 -146.0C421.0 -146.0 390.0 -145.0 372.0 -143.0V-157.0C396.0 -163.0 412.0 -173.0 422.0 -187.0C434.0 -201.0 436.0 -228.0 436.0 -258.0C480.0 -258.0 510.0 -250.0 535.0 -232.0C573.0 -205.0 581.0 -152.0 583.0 11.0C603.0 14.0 614.0 20.0 621.0 28.0L520.0 110.0L465.0 57.0ZM373.0 -260.0V-851.0H397.0C441.0 -851.0 496.0 -827.0 496.0 -816.0V-297.0C516.0 -294.0 522.0 -286.0 525.0 -275.0ZM252.0 -570.0 260.0 -599.0H602.0C615.0 -599.0 626.0 -594.0 629.0 -582.0C599.0 -546.0 544.0 -492.0 544.0 -492.0L496.0 -570.0ZM310.0 56.0C309.0 -41.0 308.0 -152.0 237.0 -251.0L249.0 -264.0C391.0 -182.0 425.0 -57.0 431.0 56.0ZM276.0 -284.0C274.0 -368.0 258.0 -453.0 235.0 -515.0L250.0 -524.0C304.0 -481.0 342.0 -416.0 368.0 -340.0C389.0 -339.0 401.0 -330.0 405.0 -317.0ZM312.0 -404.0V-432.0H597.0C611.0 -432.0 620.0 -427.0 623.0 -416.0C595.0 -382.0 543.0 -330.0 543.0 -330.0L497.0 -404.0ZM-29.0 125.0C-41.0 -11.0 -76.0 -151.0 -121.0 -246.0L-108.0 -254.0C-20.0 -182.0 43.0 -73.0 85.0 62.0C108.0 62.0 120.0 71.0 124.0 84.0Z"/></g>
<g fill="green" transform="translate(300 100) scale(0.1 -0.1)"><path d="M0.0 0.0V-30.0H149.0V0.0ZM126.0 0.0C113.0 -42.0 83.0 -125.0 55.0 -170.0H74.0C109.0 -135.0 148.0 -71.0 171.0 -35.0C189.0 -34.0 201.0 -32.0 209.0 -25.0L148.0 33.0L115.0 0.0ZM-55.0 -154.0V-351.0C-55.0 -497.0 -58.0 -658.0 -128.0 -791.0L-111.0 -803.0C-18.0 -670.0 -14.0 -484.0 -14.0 -350.0V-154.0H-4.0L-55.0 -127.0V-144.0ZM-37.0 -154.0V-183.0H195.0V-154.0ZM-37.0 -318.0V-348.0H195.0V-318.0ZM-37.0 -487.0V-516.0H195.0V-487.0ZM172.0 -154.0V-723.0C172.0 -737.0 168.0 -742.0 153.0 -742.0C137.0 -742.0 64.0 -735.0 64.0 -735.0V-752.0C96.0 -756.0 115.0 -761.0 127.0 -770.0C137.0 -778.0 142.0 -792.0 143.0 -806.0C209.0 -798.0 216.0 -771.0 216.0 -729.0V-188.0C232.0 -185.0 246.0 -178.0 251.0 -172.0L186.0 -123.0L164.0 -154.0ZM56.0 -154.0V-502.0H99.0V-154.0ZM234.0 49.0 242.0 20.0H508.0V49.0ZM489.0 49.0C485.0 -85.0 477.0 -147.0 462.0 -161.0C456.0 -166.0 449.0 -168.0 437.0 -168.0C421.0 -168.0 383.0 -165.0 358.0 -163.0V-180.0C377.0 -183.0 400.0 -188.0 409.0 -194.0C419.0 -202.0 421.0 -216.0 421.0 -227.0C445.0 -227.0 471.0 -220.0 489.0 -205.0C515.0 -181.0 527.0 -121.0 531.0 17.0C550.0 20.0 562.0 24.0 568.0 30.0L506.0 80.0L479.0 49.0ZM376.0 -245.0V-805.0H385.0C402.0 -805.0 421.0 -793.0 421.0 -785.0V-277.0C439.0 -274.0 447.0 -266.0 449.0 -254.0ZM231.0 -534.0 239.0 -563.0H561.0C573.0 -563.0 583.0 -559.0 585.0 -548.0C560.0 -522.0 517.0 -490.0 517.0 -490.0L482.0 -534.0ZM342.0 49.0C339.0 -35.0 326.0 -141.0 221.0 -230.0L237.0 -245.0C365.0 -161.0 382.0 -45.0 389.0 49.0ZM287.0 -269.0C278.0 -352.0 257.0 -437.0 231.0 -497.0L247.0 -505.0C284.0 -455.0 312.0 -380.0 330.0 -307.0C351.0 -306.0 361.0 -297.0 364.0 -285.0ZM279.0 -374.0V-404.0H536.0C550.0 -404.0 559.0 -399.0 561.0 -388.0C536.0 -364.0 496.0 -331.0 496.0 -331.0L460.0 -374.0ZM22.0 93.0C-7.0 -30.0 -58.0 -148.0 -111.0 -225.0L-95.0 -234.0C-32.0 -166.0 23.0 -58.0 59.0 51.0C80.0 51.0 91.0 60.0 95.0 71.0Z"/></g>
<g fill="green" transform="translate(400 100) scale(0.1 -0.1)"><path d="M0.0 0.0V-28.0H155.0V0.0ZM92.0 0.0C87.0 -38.0 72.0 -114.0 58.0 -156.0H72.0C115.0 -128.0 163.0 -77.0 194.0 -42.0C214.0 -41.0 225.0 -39.0 233.0 -31.0L135.0 56.0L81.0 0.0ZM-76.0 -143.0V-358.0C-76.0 -508.0 -76.0 -679.0 -134.0 -816.0L-122.0 -825.0C12.0 -693.0 19.0 -499.0 19.0 -358.0V-143.0H35.0L-54.0 -110.0L-76.0 -133.0ZM-28.0 -143.0V-171.0H194.0V-143.0ZM-30.0 -316.0V-344.0H192.0V-316.0ZM-30.0 -494.0V-522.0H192.0V-494.0ZM137.0 -143.0V-696.0C137.0 -708.0 134.0 -713.0 121.0 -713.0C108.0 -713.0 53.0 -709.0 53.0 -709.0V-724.0C84.0 -730.0 97.0 -740.0 107.0 -755.0C116.0 -769.0 119.0 -795.0 121.0 -825.0C222.0 -816.0 235.0 -777.0 235.0 -706.0V-180.0C249.0 -178.0 260.0 -171.0 264.0 -166.0L171.0 -95.0L129.0 -143.0ZM42.0 -143.0V-501.0H113.0V-143.0ZM222.0 55.0 231.0 27.0H516.0V55.0ZM460.0 55.0C458.0 -73.0 455.0 -124.0 445.0 -135.0C440.0 -139.0 435.0 -141.0 423.0 -141.0C408.0 -141.0 378.0 -140.0 360.0 -138.0V-152.0C384.0 -158.0 399.0 -167.0 409.0 -181.0C420.0 -195.0 422.0 -221.0 422.0 -250.0C465.0 -250.0 494.0 -242.0 518.0 -225.0C555.0 -198.0 563.0 -147.0 565.0 11.0C584.0 14.0 595.0 19.0 602.0 27.0L504.0 107.0L450.0 55.0ZM361.0 -252.0V-824.0H384.0C427.0 -824.0 480.0 -801.0 480.0 -791.0V-288.0C500.0 -285.0 506.0 -277.0 508.0 -266.0ZM244.0 -552.0 252.0 -580.0H583.0C596.0 -580.0 606.0 -575.0 609.0 -564.0C580.0 -529.0 527.0 -476.0 527.0 -476.0L480.0 -552.0ZM300.0 54.0C299.0 -40.0 298.0 -147.0 229.0 -243.0L241.0 -255.0C379.0 -176.0 412.0 -55.0 417.0 54.0ZM267.0 -275.0C265.0 -356.0 250.0 -439.0 227.0 -498.0L242.0 -507.0C294.0 -466.0 331.0 -403.0 356.0 -329.0C377.0 -329.0 388.0 -320.0 392.0 -307.0ZM302.0 -391.0V-419.0H578.0C592.0 -419.0 601.0 -414.0 604.0 -403.0C576.0 -370.0 526.0 -320.0 526.0 -320.0L482.0 -391.0ZM-28.0 121.0C-39.0 -11.0 -73.0 -146.0 -117.0 -238.0L-104.0 -246.0C-19.0 -176.0 42.0 -71.0 82.0 60.0C105.0 60.0 116.0 69.0 120.0 82.0Z"/></g>
<g fill="green" transform="translate(500 100) scale(0.1 -0.1)"><path d="M0.0 0.0V-30.0H162.0V0.0ZM142.0 0.0C130.0 -45.0 100.0 -138.0 75.0 -186.0H93.0C127.0 -147.0 164.0 -75.0 186.0 -35.0C205.0 -34.0 216.0 -32.0 224.0 -26.0L163.0 33.0L131.0 0.0ZM-52.0 -169.0V-363.0C-52.0 -506.0 -54.0 -664.0 -124.0 -795.0L-108.0 -807.0C-14.0 -676.0 -10.0 -494.0 -10.0 -362.0V-169.0H0.0L-52.0 -143.0V-160.0ZM-34.0 -169.0V-199.0H218.0V-169.0ZM-34.0 -334.0V-364.0H218.0V-334.0ZM-34.0 -502.0V-532.0H218.0V-502.0ZM195.0 -169.0V-724.0C195.0 -739.0 190.0 -745.0 173.0 -745.0C154.0 -745.0 66.0 -737.0 66.0 -737.0V-754.0C103.0 -758.0 127.0 -764.0 140.0 -772.0C151.0 -780.0 156.0 -793.0 159.0 -807.0C231.0 -799.0 239.0 -771.0 239.0 -730.0V-204.0C255.0 -201.0 270.0 -194.0 275.0 -188.0L210.0 -139.0L187.0 -169.0ZM69.0 -169.0V-518.0H111.0V-169.0ZM254.0 49.0 263.0 20.0H552.0V49.0ZM533.0 49.0C531.0 -98.0 525.0 -162.0 512.0 -175.0C506.0 -181.0 500.0 -182.0 487.0 -182.0C473.0 -182.0 435.0 -179.0 410.0 -178.0V-196.0C429.0 -199.0 452.0 -204.0 461.0 -210.0C472.0 -218.0 473.0 -232.0 473.0 -242.0C497.0 -242.0 522.0 -235.0 539.0 -220.0C564.0 -196.0 573.0 -134.0 576.0 17.0C595.0 20.0 605.0 24.0 612.0 30.0L550.0 80.0L523.0 49.0ZM411.0 -262.0V-808.0H420.0C437.0 -808.0 456.0 -796.0 456.0 -788.0V-294.0C474.0 -291.0 482.0 -283.0 484.0 -271.0ZM258.0 -550.0 266.0 -579.0H597.0C610.0 -579.0 619.0 -574.0 622.0 -563.0C596.0 -538.0 554.0 -505.0 554.0 -505.0L518.0 -550.0ZM367.0 49.0C364.0 -43.0 354.0 -154.0 250.0 -243.0L266.0 -259.0C393.0 -172.0 407.0 -54.0 414.0 49.0ZM302.0 -280.0C296.0 -364.0 278.0 -450.0 253.0 -512.0L271.0 -521.0C306.0 -469.0 332.0 -392.0 347.0 -317.0C368.0 -316.0 377.0 -306.0 380.0 -295.0ZM307.0 -376.0V-406.0H583.0C596.0 -406.0 605.0 -401.0 607.0 -390.0C583.0 -366.0 542.0 -333.0 542.0 -333.0L507.0 -376.0ZM13.0 100.0C-15.0 -22.0 -64.0 -143.0 -118.0 -221.0L-101.0 -232.0C-40.0 -161.0 14.0 -51.0 50.0 60.0C71.0 59.0 81.0 69.0 85.0 80.0Z"/></g>
<g fill="green" transform="translate(600 100) scale(0.1 -0.1)"><path d="M0.0 0.0V-28.0H146.0V0.0ZM94.0 0.0C88.0 -44.0 72.0 -133.0 56.0 -181.0H69.0C117.0 -147.0 171.0 -85.0 205.0 -44.0C225.0 -42.0 236.0 -40.0 244.0 -31.0L141.0 59.0L82.0 0.0ZM-91.0 -170.0V-378.0C-91.0 -523.0 -91.0 -689.0 -149.0 -822.0L-137.0 -831.0C1.0 -704.0 7.0 -515.0 7.0 -378.0V-170.0H24.0L-91.0 -127.0V-160.0ZM-25.0 -170.0V-198.0H197.0V-170.0ZM-27.0 -341.0V-369.0H195.0V-341.0ZM-27.0 -515.0V-543.0H195.0V-515.0ZM140.0 -170.0V-691.0C140.0 -703.0 136.0 -709.0 122.0 -709.0C105.0 -709.0 29.0 -704.0 29.0 -704.0V-719.0C68.0 -726.0 85.0 -737.0 98.0 -753.0C109.0 -769.0 114.0 -795.0 116.0 -829.0C231.0 -818.0 246.0 -777.0 246.0 -702.0V-208.0C261.0 -206.0 271.0 -199.0 275.0 -193.0L177.0 -119.0L132.0 -170.0ZM31.0 -170.0V-524.0H114.0V-170.0ZM241.0 49.0 250.0 21.0H520.0V49.0ZM469.0 49.0C467.0 -81.0 462.0 -133.0 450.0 -145.0C446.0 -149.0 440.0 -151.0 428.0 -151.0C413.0 -151.0 383.0 -150.0 364.0 -148.0V-162.0C389.0 -168.0 403.0 -177.0 413.0 -191.0C424.0 -205.0 426.0 -231.0 426.0 -261.0C469.0 -261.0 499.0 -252.0 523.0 -235.0C561.0 -208.0 571.0 -154.0 574.0 5.0C593.0 8.0 604.0 13.0 611.0 21.0L513.0 101.0L459.0 49.0ZM378.0 -261.0V-829.0H400.0C442.0 -829.0 493.0 -806.0 493.0 -796.0V-297.0C514.0 -294.0 520.0 -285.0 522.0 -274.0ZM258.0 -572.0 266.0 -600.0H592.0C606.0 -600.0 615.0 -595.0 618.0 -584.0C589.0 -549.0 536.0 -496.0 536.0 -496.0L489.0 -572.0ZM317.0 49.0C316.0 -52.0 316.0 -168.0 245.0 -271.0L257.0 -284.0C397.0 -197.0 429.0 -68.0 434.0 49.0ZM271.0 -279.0C273.0 -367.0 266.0 -464.0 249.0 -536.0L265.0 -543.0C314.0 -491.0 347.0 -413.0 369.0 -326.0C391.0 -324.0 401.0 -314.0 404.0 -301.0ZM313.0 -394.0V-422.0H580.0C593.0 -422.0 603.0 -417.0 605.0 -406.0C578.0 -373.0 528.0 -323.0 528.0 -323.0L483.0 -394.0ZM-41.0 117.0C-61.0 -13.0 -105.0 -147.0 -153.0 -234.0L-140.0 -242.0C-51.0 -176.0 23.0 -77.0 76.0 50.0C99.0 50.0 111.0 59.0 115.0 72.0Z"/></g>
<g fill="red" transform="translate(100 200) scale(0.1 -0.1)"><path d="M0.0 0.0V-30.0H149.0V0.0ZM126.0 0.0C113.0 -42.0 83.0 -125.0 55.0 -170.0H74.0C109.0 -135.0 148.0 -71.0 171.0 -35.0C189.0 -34.0 201.0 -32.0 209.0 -25.0L148.0 33.0L115.0 0.0ZM-55.0 -154.0V-351.0C-55.0 -497.0 -58.0 -658.0 -128.0 -791.0L-111.0 -803.0C-18.0 -670.0 -14.0 -484.0 -14.0 -350.0V-154.0H-4.0L-55.0 -127.0V-144.0ZM-37.0 -154.0V-183.0H195.0V-154.0ZM-37.0 -318.0V-348.0H195.0V-318.0ZM-37.0 -487.0V-516.0H195.0V-487.0ZM172.0 -154.0V-723.0C172.0 -737.0 168.0 -742.0 153.0 -742.0C137.0 -742.0 64.0 -735.0 64.0 -735.0V-752.0C96.0 -756.0 115.0 -761.0 127.0 -770.0C137.0 -778.0 142.0 -792.0 143.0 -806.0C209.0 -798.0 216.0 -771.0 216.0 -729.0V-188.0C232.0 -185.0 246.0 -178.0 251.0 -172.0L186.0 -123.0L164.0 -154.0ZM56.0 -154.0V-502.0H99.0V-154.0ZM234.0 49.0 242.0 20.0H508.0V49.0ZM489.0 49.0C485.0 -85.0 477.0 -147.0 462.0 -161.0C456.0 -166.0 449.0 -168.0 437.0 -168.0C421.0 -168.0 383.0 -165.0 358.0 -163.0V-180.0C377.0 -183.0 400.0 -188.0 409.0 -194.0C419.0 -202.0 421.0 -216.0 421.0 -227.0C445.0 -227.0 471.0 -220.0 489.0 -205.0C515.0 -181.0 527.0 -121.0 531.0 17.0C550.0 20.0 562.0 24.0 568.0 30.0L506.0 80.0L479.0 49.0ZM376.0 -245.0V-805.0H385.0C402.0 -805.0 421.0 -793.0 421.0 -785.0V-277.0C439.0 -274.0 447.0 -266.0 449.0 -254.0ZM231.0 -534.0 239.0 -563.0H561.0C573.0 -563.0 583.0 -559.0 585.0 -548.0C560.0 -522.0 517.0 -490.0 517.0 -490.0L482.0 -534.0ZM342.0 49.0C339.0 -35.0 326.0 -141.0 221.0 -230.0L237.0 -245.0C365.0 -161.0 382.0 -45.0 389.0 49.0ZM287.0 -269.0C278.0 -352.0 257.0 -437.0 231.0 -497.0L247.0 -505.0C284.0 -455.0 312.0 -380.0 330.0 -307.0C351.0 -306.0 361.0 -297.0 364.0 -285.0ZM279.0 -374.0V-404.0H536.0C550.0 -404.0 559.0 -399.0 561.0 -388.0C536.0 -364.0 496.0 -331.0 496.0 -331.0L460.0 -374.0ZM22.0 93.0C-7.0 -30.0 -58.0 -148.0 -111.0 -225.0L-95.0 -234.0C-32.0 -166.0 23.0 -58.0 59.0 51.0C80.0 51.0 91.0 60.0 95.0 71.0Z"/></g>
<g fill="black" opacity=".8" transform="translate(100 200) scale(0.1 -0.1)"><path d="M0.0 0.0V-30.0H149.0V0.0ZM126.0 0.0C113.0 -42.0 83.0 -125.0 55.0 -170.0H74.0C109.0 -135.0 148.0 -71.0 171.0 -35.0C189.0 -34.0 201.0 -32.0 209.0 -25.0L148.0 33.0L115.0 0.0ZM-55.0 -154.0V-351.0C-55.0 -497.0 -58.0 -658.0 -128.0 -791.0L-111.0 -803.0C-18.0 -670.0 -14.0 -484.0 -14.0 -350.0V-154.0H-4.0L-55.0 -127.0V-144.0ZM-37.0 -154.0V-183.0H195.0V-154.0ZM-37.0 -318.0V-348.0H195.0V-318.0ZM-37.0 -487.0V-516.0H195.0V-487.0ZM172.0 -154.0V-723.0C172.0 -737.0 168.0 -742.0 153.0 -742.0C137.0 -742.0 64.0 -735.0 64.0 -735.0V-752.0C96.0 -756.0 115.0 -761.0 127.0 -770.0C137.0 -778.0 142.0 -792.0 143.0 -806.0C209.0 -798.0 216.0 -771.0 216.0 -729.0V-188.0C232.0 -185.0 246.0 -178.0 251.0 -172.0L186.0 -123.0L164.0 -154.0ZM56.0 -154.0V-502.0H99.0V-154.0ZM234.0 49.0 242.0 20.0H508.0V49.0ZM489.0 49.0C485.0 -85.0 477.0 -147.0 462.0 -161.0C456.0 -166.0 449.0 -168.0 437.0 -168.0C421.0 -168.0 383.0 -165.0 358.0 -163.0V-180.0C377.0 -183.0 400.0 -188.0 409.0 -194.0C419.0 -202.0 421.0 -216.0 421.0 -227.0C445.0 -227.0 471.0 -220.0 489.0 -205.0C515.0 -181.0 527.0 -121.0 531.0 17.0C550.0 20.0 562.0 24.0 568.0 30.0L506.0 80.0L479.0 49.0ZM376.0 -245.0V-805.0H385.0C402.0 -805.0 421.0 -793.0 421.0 -785.0V-277.0C439.0 -274.0 447.0 -266.0 449.0 -254.0ZM231.0 -534.0 239.0 -563.0H561.0C573.0 -563.0 583.0 -559.0 585.0 -548.0C560.0 -522.0 517.0 -490.0 517.0 -490.0L482.0 -534.0ZM342.0 49.0C339.0 -35.0 326.0 -141.0 221.0 -230.0L237.0 -245.0C365.0 -161.0 382.0 -45.0 389.0 49.0ZM287.0 -269.0C278.0 -352.0 257.0 -437.0 231.0 -497.0L247.0 -505.0C284.0 -455.0 312.0 -380.0 330.0 -307.0C351.0 -306.0 361.0 -297.0 364.0 -285.0ZM279.0 -374.0V-404.0H536.0C550.0 -404.0 559.0 -399.0 561.0 -388.0C536.0 -364.0 496.0 -331.0 496.0 -331.0L460.0 -374.0ZM22.0 93.0C-7.0 -30.0 -58.0 -148.0 -111.0 -225.0L-95.0 -234.0C-32.0 -166.0 23.0 -58.0 59.0 51.0C80.0 51.0 91.0 60.0 95.0 71.0Z"/></g>
<g fill="red" transform="translate(200 200) scale(0.1 -0.1)"><path d="M0.0 0.0V-28.0H155.0V0.0ZM92.0 0.0C87.0 -38.0 72.0 -114.0 58.0 -156.0H72.0C115.0 -128.0 163.0 -77.0 194.0 -42.0C214.0 -41.0 225.0 -39.0 233.0 -31.0L135.0 56.0L81.0 0.0ZM-76.0 -143.0V-358.0C-76.0 -508.0 -76.0 -679.0 -134.0 -816.0L-122.0 -825.0C12.0 -693.0 19.0 -499.0 19.0 -358.0V-143.0H35.0L-54.0 -110.0L-76.0 -133.0ZM-28.0 -143.0V-171.0H194.0V-143.0ZM-30.0 -316.0V-344.0H192.0V-316.0ZM-30.0 -494.0V-522.0H192.0V-494.0ZM137.0 -143.0V-696.0C137.0 -708.0 134.0 -713.0 121.0 -713.0C108.0 -713.0 53.0 -709.0 53.0 -709.0V-724.0C84.0 -730.0 97.0 -740.0 107.0 -755.0C116.0 -769.0 119.0 -795.0 121.0 -825.0C222.0 -816.0 235.0 -777.0 235.0 -706.0V-180.0C249.0 -178.0 260.0 -171.0 264.0 -166.0L171.0 -95.0L129.0 -143.0ZM42.0 -143.0V-501.0H113.0V-143.0ZM222.0 55.0 231.0 27.0H516.0V55.0ZM460.0 55.0C458.0 -73.0 455.0 -124.0 445.0 -135.0C440.0 -139.0 435.0 -141.0 423.0 -141.0C408.0 -141.0 378.0 -140.0 360.0 -138.0V-152.0C384.0 -158.0 399.0 -167.0 409.0 -181.0C420.0 -195.0 422.0 -221.0 422.0 -250.0C465.0 -250.0 494.0 -242.0 518.0 -225.0C555.0 -198.0 563.0 -147.0 565.0 11.0C584.0 14.0 595.0 19.0 602.0 27.0L504.0 107.0L450.0 55.0ZM361.0 -252.0V-824.0H384.0C427.0 -824.0 480.0 -801.0 480.0 -791.0V-288.0C500.0 -285.0 506.0 -277.0 508.0 -266.0ZM244.0 -552.0 252.0 -580.0H583.0C596.0 -580.0 606.0 -575.0 609.0 -564.0C580.0 -529.0 527.0 -476.0 527.0 -476.0L480.0 -552.0ZM300.0 54.0C299.0 -40.0 298.0 -147.0 229.0 -243.0L241.0 -255.0C379.0 -176.0 412.0 -55.0 417.0 54.0ZM267.0 -275.0C265.0 -356.0 250.0 -439.0 227.0 -498.0L242.0 -507.0C294.0 -466.0 331.0 -403.0 356.0 -329.0C377.0 -329.0 388.0 -320.0 392.0 -307.0ZM302.0 -391.0V-419.0H578.0C592.0 -419.0 601.0 -414.0 604.0 -403.0C576.0 -370.0 526.0 -320.0 526.0 -320.0L482.0 -391.0ZM-28.0 121.0C-39.0 -11.0 -73.0 -146.0 -117.0 -238.0L-104.0 -246.0C-19.0 -176.0 42.0 -71.0 82.0 60.0C105.0 60.0 116.0 69.0 120.0 82.0Z"/></g>
<g fill="black" opacity=".8" transform="translate(200 200) scale(0.1 -0.1)"><path d="M0.0 0.0V-28.0H155.0V0.0ZM92.0 0.0C87.0 -38.0 72.0 -114.0 58.0 -156.0H72.0C115.0 -128.0 163.0 -77.0 194.0 -42.0C214.0 -41.0 225.0 -39.0 233.0 -31.0L135.0 56.0L81.0 0.0ZM-76.0 -143.0V-358.0C-76.0 -508.0 -76.0 -679.0 -134.0 -816.0L-122.0 -825.0C12.0 -693.0 19.0 -499.0 19.0 -358.0V-143.0H35.0L-54.0 -110.0L-76.0 -133.0ZM-28.0 -143.0V-171.0H194.0V-143.0ZM-30.0 -316.0V-344.0H192.0V-316.0ZM-30.0 -494.0V-522.0H192.0V-494.0ZM137.0 -143.0V-696.0C137.0 -708.0 134.0 -713.0 121.0 -713.0C108.0 -713.0 53.0 -709.0 53.0 -709.0V-724.0C84.0 -730.0 97.0 -740.0 107.0 -755.0C116.0 -769.0 119.0 -795.0 121.0 -825.0C222.0 -816.0 235.0 -777.0 235.0 -706.0V-180.0C249.0 -178.0 260.0 -171.0 264.0 -166.0L171.0 -95.0L129.0 -143.0ZM42.0 -143.0V-501.0H113.0V-143.0ZM222.0 55.0 231.0 27.0H516.0V55.0ZM460.0 55.0C458.0 -73.0 455.0 -124.0 445.0 -135.0C440.0 -139.0 435.0 -141.0 423.0 -141.0C408.0 -141.0 378.0 -140.0 360.0 -138.0V-152.0C384.0 -158.0 399.0 -167.0 409.0 -181.0C420.0 -195.0 422.0 -221.0 422.0 -250.0C465.0 -250.0 494.0 -242.0 518.0 -225.0C555.0 -198.0 563.0 -147.0 565.0 11.0C584.0 14.0 595.0 19.0 602.0 27.0L504.0 107.0L450.0 55.0ZM361.0 -252.0V-824.0H384.0C427.0 -824.0 480.0 -801.0 480.0 -791.0V-288.0C500.0 -285.0 506.0 -277.0 508.0 -266.0ZM244.0 -552.0 252.0 -580.0H583.0C596.0 -580.0 606.0 -575.0 609.0 -564.0C580.0 -529.0 527.0 -476.0 527.0 -476.0L480.0 -552.0ZM300.0 54.0C299.0 -40.0 298.0 -147.0 229.0 -243.0L241.0 -255.0C379.0 -176.0 412.0 -55.0 417.0 54.0ZM267.0 -275.0C265.0 -356.0 250.0 -439.0 227.0 -498.0L242.0 -507.0C294.0 -466.0 331.0 -403.0 356.0 -329.0C377.0 -329.0 388.0 -320.0 392.0 -307.0ZM302.0 -391.0V-419.0H578.0C592.0 -419.0 601.0 -414.0 604.0 -403.0C576.0 -370.0 526.0 -320.0 526.0 -320.0L482.0 -391.0ZM-28.0 121.0C-39.0 -11.0 -73.0 -146.0 -117.0 -238.0L-104.0 -246.0C-19.0 -176.0 42.0 -71.0 82.0 60.0C105.0 60.0 116.0 69.0 120.0 82.0Z"/></g>
<g fill="red" transform="translate(300 200) scale(0.1 -0.1)"><path d="M0.0 0.0V-30.0H162.0V0.0ZM142.0 0.0C130.0 -45.0 100.0 -138.0 75.0 -186.0H93.0C127.0 -147.0 164.0 -75.0 186.0 -35.0C205.0 -34.0 216.0 -32.0 224.0 -26.0L163.0 33.0L131.0 0.0ZM-52.0 -169.0V-363.0C-52.0 -506.0 -54.0 -664.0 -124.0 -795.0L-108.0 -807.0C-14.0 -676.0 -10.0 -494.0 -10.0 -362.0V-169.0H0.0L-52.0 -143.0V-160.0ZM-34.0 -169.0V-199.0H218.0V-169.0ZM-34.0 -334.0V-364.0H218.0V-334.0ZM-34.0 -502.0V-532.0H218.0V-502.0ZM195.0 -169.0V-724.0C195.0 -739.0 190.0 -745.0 173.0 -745.0C154.0 -745.0 66.0 -737.0 66.0 -737.0V-754.0C103.0 -758.0 127.0 -764.0 140.0 -772.0C151.0 -780.0 156.0 -793.0 159.0 -807.0C231.0 -799.0 239.0 -771.0 239.0 -730.0V-204.0C255.0 -201.0 270.0 -194.0 275.0 -188.0L210.0 -139.0L187.0 -169.0ZM69.0 -169.0V-518.0H111.0V-169.0ZM254.0 49.0 263.0 20.0H552.0V49.0ZM533.0 49.0C531.0 -98.0 525.0 -162.0 512.0 -175.0C506.0 -181.0 500.0 -182.0 487.0 -182.0C473.0 -182.0 435.0 -179.0 410.0 -178.0V-196.0C429.0 -199.0 452.0 -204.0 461.0 -210.0C472.0 -218.0 473.0 -232.0 473.0 -242.0C497.0 -242.0 522.0 -235.0 539.0 -220.0C564.0 -196.0 573.0 -134.0 576.0 17.0C595.0 20.0 605.0 24.0 612.0 30.0L550.0 80.0L523.0 49.0ZM411.0 -262.0V-808.0H420.0C437.0 -808.0 456.0 -796.0 456.0 -788.0V-294.0C474.0 -291.0 482.0 -283.0 484.0 -271.0ZM258.0 -550.0 266.0 -579.0H597.0C610.0 -579.0 619.0 -574.0 622.0 -563.0C596.0 -538.0 554.0 -505.0 554.0 -505.0L518.0 -550.0ZM367.0 49.0C364.0 -43.0 354.0 -154.0 250.0 -243.0L266.0 -259.0C393.0 -172.0 407.0 -54.0 414.0 49.0ZM302.0 -280.0C296.0 -364.0 278.0 -450.0 253.0 -512.0L271.0 -521.0C306.0 -469.0 332.0 -392.0 347.0 -317.0C368.0 -316.0 377.0 -306.0 380.0 -295.0ZM307.0 -376.0V-406.0H583.0C596.0 -406.0 605.0 -401.0 607.0 -390.0C583.0 -366.0 542.0 -333.0 542.0 -333.0L507.0 -376.0ZM13.0 100.0C-15.0 -22.0 -64.0 -143.0 -118.0 -221.0L-101.0 -232.0C-40.0 -161.0 14.0 -51.0 50.0 60.0C71.0 59.0 81.0 69.0 85.0 80.0Z"/></g>
<g fill="black" opacity=".8" transform="translate(300 200) scale(0.1 -0.1)"><path d="M0.0 0.0V-30.0H162.0V0.0ZM142.0 0.0C130.0 -45.0 100.0 -138.0 75.0 -186.0H93.0C127.0 -147.0 164.0 -75.0 186.0 -35.0C205.0 -34.0 216.0 -32.0 224.0 -26.0L163.0 33.0L131.0 0.0ZM-52.0 -169.0V-363.0C-52.0 -506.0 -54.0 -664.0 -124.0 -795.0L-108.0 -807.0C-14.0 -676.0 -10.0 -494.0 -10.0 -362.0V-169.0H0.0L-52.0 -143.0V-160.0ZM-34.0 -169.0V-199.0H218.0V-169.0ZM-34.0 -334.0V-364.0H218.0V-334.0ZM-34.0 -502.0V-532.0H218.0V-502.0ZM195.0 -169.0V-724.0C195.0 -739.0 190.0 -745.0 173.0 -745.0C154.0 -745.0 66.0 -737.0 66.0 -737.0V-754.0C103.0 -758.0 127.0 -764.0 140.0 -772.0C151.0 -780.0 156.0 -793.0 159.0 -807.0C231.0 -799.0 239.0 -771.0 239.0 -730.0V-204.0C255.0 -201.0 270.0 -194.0 275.0 -188.0L210.0 -139.0L187.0 -169.0ZM69.0 -169.0V-518.0H111.0V-169.0ZM254.0 49.0 263.0 20.0H552.0V49.0ZM533.0 49.0C531.0 -98.0 525.0 -162.0 512.0 -175.0C506.0 -181.0 500.0 -182.0 487.0 -182.0C473.0 -182.0 435.0 -179.0 410.0 -178.0V-196.0C429.0 -199.0 452.0 -204.0 461.0 -210.0C472.0 -218.0 473.0 -232.0 473.0 -242.0C497.0 -242.0 522.0 -235.0 539.0 -220.0C564.0 -196.0 573.0 -134.0 576.0 17.0C595.0 20.0 605.0 24.0 612.0 30.0L550.0 80.0L523.0 49.0ZM411.0 -262.0V-808.0H420.0C437.0 -808.0 456.0 -796.0 456.0 -788.0V-294.0C474.0 -291.0 482.0 -283.0 484.0 -271.0ZM258.0 -550.0 266.0 -579.0H597.0C610.0 -579.0 619.0 -574.0 622.0 -563.0C596.0 -538.0 554.0 -505.0 554.0 -505.0L518.0 -550.0ZM367.0 49.0C364.0 -43.0 354.0 -154.0 250.0 -243.0L266.0 -259.0C393.0 -172.0 407.0 -54.0 414.0 49.0ZM302.0 -280.0C296.0 -364.0 278.0 -450.0 253.0 -512.0L271.0 -521.0C306.0 -469.0 332.0 -392.0 347.0 -317.0C368.0 -316.0 377.0 -306.0 380.0 -295.0ZM307.0 -376.0V-406.0H583.0C596.0 -406.0 605.0 -401.0 607.0 -390.0C583.0 -366.0 542.0 -333.0 542.0 -333.0L507.0 -376.0ZM13.0 100.0C-15.0 -22.0 -64.0 -143.0 -118.0 -221.0L-101.0 -232.0C-40.0 -161.0 14.0 -51.0 50.0 60.0C71.0 59.0 81.0 69.0 85.0 80.0Z"/></g>
<g fill="red" transform="translate(400 200) scale(0.1 -0.1)"><path d="M0.0 0.0V-28.0H146.0V0.0ZM94.0 0.0C88.0 -44.0 72.0 -133.0 56.0 -181.0H69.0C117.0 -147.0 171.0 -85.0 205.0 -44.0C225.0 -42.0 236.0 -40.0 244.0 -31.0L141.0 59.0L82.0 0.0ZM-91.0 -170.0V-378.0C-91.0 -523.0 -91.0 -689.0 -149.0 -822.0L-137.0 -831.0C1.0 -704.0 7.0 -515.0 7.0 -378.0V-170.0H24.0L-91.0 -127.0V-160.0ZM-25.0 -170.0V-198.0H197.0V-170.0ZM-27.0 -341.0V-369.0H195.0V-341.0ZM-27.0 -515.0V-543.0H195.0V-515.0ZM140.0 -170.0V-691.0C140.0 -703.0 136.0 -709.0 122.0 -709.0C105.0 -709.0 29.0 -704.0 29.0 -704.0V-719.0C68.0 -726.0 85.0 -737.0 98.0 -753.0C109.0 -769.0 114.0 -795.0 116.0 -829.0C231.0 -818.0 246.0 -777.0 246.0 -702.0V-208.0C261.0 -206.0 271.0 -199.0 275.0 -193.0L177.0 -119.0L132.0 -170.0ZM31.0 -170.0V-524.0H114.0V-170.0ZM241.0 49.0 250.0 21.0H520.0V49.0ZM469.0 49.0C467.0 -81.0 462.0 -133.0 450.0 -145.0C446.0 -149.0 440.0 -151.0 428.0 -151.0C413.0 -151.0 383.0 -150.0 364.0 -148.0V-162.0C389.0 -168.0 403.0 -177.0 413.0 -191.0C424.0 -205.0 426.0 -231.0 426.0 -261.0C469.0 -261.0 499.0 -252.0 523.0 -235.0C561.0 -208.0 571.0 -154.0 574.0 5.0C593.0 8.0 604.0 13.0 611.0 21.0L513.0 101.0L459.0 49.0ZM378.0 -261.0V-829.0H400.0C442.0 -829.0 493.0 -806.0 493.0 -796.0V-297.0C514.0 -294.0 520.0 -285.0 522.0 -274.0ZM258.0 -572.0 266.0 -600.0H592.0C606.0 -600.0 615.0 -595.0 618.0 -584.0C589.0 -549.0 536.0 -496.0 536.0 -496.0L489.0 -572.0ZM317.0 49.0C316.0 -52.0 316.0 -168.0 245.0 -271.0L257.0 -284.0C397.0 -197.0 429.0 -68.0 434.0 49.0ZM271.0 -279.0C273.0 -367.0 266.0 -464.0 249.0 -536.0L265.0 -543.0C314.0 -491.0 347.0 -413.0 369.0 -326.0C391.0 -324.0 401.0 -314.0 404.0 -301.0ZM313.0 -394.0V-422.0H580.0C593.0 -422.0 603.0 -417.0 605.0 -406.0C578.0 -373.0 528.0 -323.0 528.0 -323.0L483.0 -394.0ZM-41.0 117.0C-61.0 -13.0 -105.0 -147.0 -153.0 -234.0L-140.0 -242.0C-51.0 -176.0 23.0 -77.0 76.0 50.0C99.0 50.0 111.0 59.0 115.0 72.0Z"/></g>
<g fill="black" opacity=".8" transform="translate(400 200) scale(0.1 -0.1)"><path d="M0.0 0.0V-28.0H146.0V0.0ZM94.0 0.0C88.0 -44.0 72.0 -133.0 56.0 -181.0H69.0C117.0 -147.0 171.0 -85.0 205.0 -44.0C225.0 -42.0 236.0 -40.0 244.0 -31.0L141.0 59.0L82.0 0.0ZM-91.0 -170.0V-378.0C-91.0 -523.0 -91.0 -689.0 -149.0 -822.0L-137.0 -831.0C1.0 -704.0 7.0 -515.0 7.0 -378.0V-170.0H24.0L-91.0 -127.0V-160.0ZM-25.0 -170.0V-198.0H197.0V-170.0ZM-27.0 -341.0V-369.0H195.0V-341.0ZM-27.0 -515.0V-543.0H195.0V-515.0ZM140.0 -170.0V-691.0C140.0 -703.0 136.0 -709.0 122.0 -709.0C105.0 -709.0 29.0 -704.0 29.0 -704.0V-719.0C68.0 -726.0 85.0 -737.0 98.0 -753.0C109.0 -769.0 114.0 -795.0 116.0 -829.0C231.0 -818.0 246.0 -777.0 246.0 -702.0V-208.0C261.0 -206.0 271.0 -199.0 275.0 -193.0L177.0 -119.0L132.0 -170.0ZM31.0 -170.0V-524.0H114.0V-170.0ZM241.0 49.0 250.0 21.0H520.0V49.0ZM469.0 49.0C467.0 -81.0 462.0 -133.0 450.0 -145.0C446.0 -149.0 440.0 -151.0 428.0 -151.0C413.0 -151.0 383.0 -150.0 364.0 -148.0V-162.0C389.0 -168.0 403.0 -177.0 413.0 -191.0C424.0 -205.0 426.0 -231.0 426.0 -261.0C469.0 -261.0 499.0 -252.0 523.0 -235.0C561.0 -208.0 571.0 -154.0 574.0 5.0C593.0 8.0 604.0 13.0 611.0 21.0L513.0 101.0L459.0 49.0ZM378.0 -261.0V-829.0H400.0C442.0 -829.0 493.0 -806.0 493.0 -796.0V-297.0C514.0 -294.0 520.0 -285.0 522.0 -274.0ZM258.0 -572.0 266.0 -600.0H592.0C606.0 -600.0 615.0 -595.0 618.0 -584.0C589.0 -549.0 536.0 -496.0 536.0 -496.0L489.0 -572.0ZM317.0 49.0C316.0 -52.0 316.0 -168.0 245.0 -271.0L257.0 -284.0C397.0 -197.0 429.0 -68.0 434.0 49.0ZM271.0 -279.0C273.0 -367.0 266.0 -464.0 249.0 -536.0L265.0 -543.0C314.0 -491.0 347.0 -413.0 369.0 -326.0C391.0 -324.0 401.0 -314.0 404.0 -301.0ZM313.0 -394.0V-422.0H580.0C593.0 -422.0 603.0 -417.0 605.0 -406.0C578.0 -373.0 528.0 -323.0 528.0 -323.0L483.0 -394.0ZM-41.0 117.0C-61.0 -13.0 -105.0 -147.0 -153.0 -234.0L-140.0 -242.0C-51.0 -176.0 23.0 -77.0 76.0 50.0C99.0 50.0 111.0 59.0 115.0 72.0Z"/></g>
</svg>
