<?xml version="1.0" encoding="UTF-8"?>
<svg width="1700" height="300" xmlns="http://www.w3.org/2000/svg">
<rect width="100%" height="100%" fill="white"/>
<g fill="green" transform="translate(100 100) scale(0.1 -0.1)"><path d="M-0.0 0.0 8.0 -33.0H147.0V-103.0H155.0C174.0 -103.0 196.0 -94.0 196.0 -87.0V-33.0H340.0V-101.0H349.0C374.0 -100.0 388.0 -88.0 388.0 -84.0V-33.0H538.0C553.0 -33.0 563.0 -27.0 566.0 -15.0C538.0 11.0 493.0 48.0 493.0 48.0L453.0 0.0H388.0V69.0C413.0 72.0 423.0 84.0 425.0 99.0L340.0 108.0V0.0H196.0V69.0C220.0 72.0 230.0 84.0 232.0 99.0L147.0 108.0V0.0H0.0ZM92.0 -436.0V-469.0H523.0C538.0 -469.0 548.0 -463.0 551.0 -451.0C520.0 -424.0 474.0 -392.0 474.0 -392.0L434.0 -436.0H92.0ZM90.0 -795.0V-827.0H538.0C554.0 -827.0 563.0 -823.0 566.0 -811.0C534.0 -783.0 488.0 -750.0 488.0 -750.0L446.0 -795.0H90.0ZM88.0 -551.0V-585.0H508.0C523.0 -585.0 533.0 -579.0 536.0 -567.0C507.0 -542.0 464.0 -511.0 464.0 -511.0L427.0 -551.0H88.0ZM88.0 -672.0V-704.0H503.0C517.0 -704.0 527.0 -699.0 530.0 -687.0C501.0 -662.0 457.0 -631.0 457.0 -631.0L420.0 -672.0H88.0ZM262.0 -436.0V-799.0H311.0V-436.0H262.0ZM118.0 -436.0H130.0L103.0 -423.0L70.0 -478.0V-886.0H77.0C101.0 -886.0 118.0 -873.0 118.0 -870.0V-436.0ZM121.0 -317.0C96.0 -406.0 44.0 -515.0 -16.0 -584.0L-2.0 -598.0C71.0 -537.0 129.0 -441.0 164.0 -362.0C188.0 -365.0 197.0 -359.0 203.0 -347.0L121.0 -317.0ZM285.0 -329.0C276.0 -364.0 258.0 -419.0 247.0 -450.0H269.0C287.0 -426.0 310.0 -396.0 326.0 -372.0C350.0 -374.0 364.0 -364.0 368.0 -351.0L285.0 -329.0ZM36.0 -262.0V-294.0H206.0V-262.0H36.0ZM318.0 -262.0V-294.0H484.0V-262.0H318.0ZM184.0 -128.0V-326.0H191.0C208.0 -326.0 232.0 -313.0 233.0 -306.0V-166.0C251.0 -163.0 266.0 -155.0 273.0 -148.0L206.0 -97.0L175.0 -128.0H184.0ZM24.0 -128.0V-336.0H32.0C50.0 -336.0 72.0 -326.0 72.0 -322.0V-161.0H216.0V-128.0H77.0L24.0 -102.0V-128.0ZM464.0 -128.0V-328.0H471.0C488.0 -328.0 511.0 -314.0 512.0 -307.0V-166.0C530.0 -163.0 546.0 -155.0 552.0 -148.0L485.0 -97.0L455.0 -128.0H464.0ZM297.0 -128.0V-335.0H304.0C323.0 -335.0 345.0 -326.0 345.0 -321.0V-161.0H487.0V-128.0H350.0L297.0 -102.0V-128.0Z"/></g>
<g fill="green" transform="translate(200 100) scale(0.1 -0.1)"><path d="M0.0 0.0 8.0 -31.0H104.0V-105.0H129.0C210.0 -105.0 233.0 -86.0 233.0 -79.0V-31.0H317.0V-102.0H343.0C425.0 -102.0 448.0 -84.0 448.0 -76.0V-31.0H568.0C582.0 -31.0 593.0 -25.0 596.0 -13.0C563.0 21.0 508.0 65.0 508.0 65.0L462.0 0.0H448.0V66.0C471.0 71.0 479.0 82.0 480.0 94.0L317.0 108.0V0.0H233.0V66.0C255.0 71.0 261.0 82.0 263.0 94.0L104.0 108.0V0.0H0.0ZM134.0 -457.0V-488.0H551.0C566.0 -488.0 578.0 -482.0 580.0 -470.0C541.0 -434.0 475.0 -383.0 475.0 -383.0L419.0 -457.0H134.0ZM135.0 -832.0V-863.0H570.0C585.0 -863.0 597.0 -857.0 599.0 -845.0C558.0 -806.0 489.0 -750.0 489.0 -750.0L428.0 -832.0H135.0ZM130.0 -579.0V-610.0H537.0C553.0 -610.0 563.0 -605.0 566.0 -593.0C528.0 -556.0 464.0 -504.0 464.0 -504.0L407.0 -579.0H130.0ZM130.0 -705.0V-736.0H534.0C549.0 -736.0 560.0 -730.0 563.0 -718.0C525.0 -682.0 462.0 -629.0 462.0 -629.0L405.0 -705.0H130.0ZM261.0 -457.0V-848.0H383.0V-457.0H261.0ZM183.0 -457.0H197.0L125.0 -429.0L69.0 -509.0V-933.0H89.0C148.0 -933.0 183.0 -907.0 183.0 -899.0V-457.0ZM86.0 -323.0C74.0 -414.0 41.0 -532.0 -2.0 -610.0L8.0 -620.0C95.0 -571.0 169.0 -491.0 216.0 -409.0C241.0 -409.0 252.0 -401.0 257.0 -388.0L86.0 -323.0ZM288.0 -348.0C282.0 -384.0 270.0 -441.0 262.0 -473.0H287.0C319.0 -452.0 363.0 -421.0 391.0 -399.0C414.0 -398.0 429.0 -390.0 432.0 -373.0L288.0 -348.0ZM67.0 -287.0V-318.0H206.0V-287.0H67.0ZM352.0 -287.0V-318.0H498.0V-287.0H352.0ZM158.0 -146.0V-351.0H177.0C211.0 -351.0 267.0 -334.0 269.0 -327.0V-191.0C286.0 -187.0 299.0 -179.0 305.0 -172.0L199.0 -93.0L148.0 -146.0H158.0ZM23.0 -146.0V-362.0H37.0C77.0 -362.0 122.0 -341.0 122.0 -333.0V-177.0H207.0V-146.0H125.0L23.0 -105.0V-146.0ZM443.0 -146.0V-350.0H463.0C498.0 -350.0 556.0 -331.0 558.0 -324.0V-190.0C575.0 -187.0 586.0 -179.0 592.0 -173.0L485.0 -93.0L433.0 -146.0H443.0ZM301.0 -146.0V-362.0H315.0C358.0 -362.0 404.0 -340.0 404.0 -331.0V-177.0H486.0V-146.0H409.0L301.0 -103.0V-146.0Z"/></g>
<g fill="green" transform="translate(300 100) scale(0.1 -0.1)"><path d="M0.0 0.0 7.0 -30.0H130.0V-93.0H137.0C154.0 -93.0 174.0 -85.0 174.0 -79.0V-30.0H302.0V-91.0H310.0C333.0 -90.0 345.0 -80.0 345.0 -76.0V-30.0H478.0C491.0 -30.0 500.0 -24.0 503.0 -13.0C478.0 10.0 438.0 43.0 438.0 43.0L402.0 0.0H345.0V62.0C368.0 65.0 377.0 76.0 379.0 90.0L302.0 98.0V0.0H174.0V62.0C196.0 65.0 205.0 76.0 206.0 90.0L130.0 98.0V0.0H0.0ZM81.0 -394.0V-423.0H466.0C479.0 -423.0 488.0 -418.0 491.0 -407.0C463.0 -383.0 422.0 -354.0 422.0 -354.0L386.0 -394.0H81.0ZM79.0 -716.0V-745.0H479.0C493.0 -745.0 501.0 -741.0 504.0 -730.0C475.0 -705.0 434.0 -676.0 434.0 -676.0L396.0 -716.0H79.0ZM77.0 -497.0V-528.0H453.0C467.0 -528.0 476.0 -522.0 478.0 -511.0C452.0 -489.0 414.0 -461.0 414.0 -461.0L380.0 -497.0H77.0ZM77.0 -605.0V-634.0H448.0C461.0 -634.0 470.0 -630.0 473.0 -619.0C447.0 -597.0 407.0 -569.0 407.0 -569.0L374.0 -605.0H77.0ZM232.0 -394.0V-719.0H276.0V-394.0H232.0ZM105.0 -394.0H116.0L91.0 -382.0L61.0 -432.0V-798.0H68.0C90.0 -798.0 105.0 -786.0 105.0 -784.0V-394.0ZM107.0 -286.0C85.0 -366.0 40.0 -463.0 -13.0 -525.0L-1.0 -537.0C64.0 -483.0 115.0 -397.0 146.0 -326.0C168.0 -329.0 176.0 -324.0 181.0 -313.0L107.0 -286.0ZM253.0 -297.0C245.0 -328.0 228.0 -378.0 218.0 -406.0H238.0C254.0 -385.0 275.0 -357.0 290.0 -335.0C311.0 -337.0 324.0 -328.0 328.0 -317.0L253.0 -297.0ZM29.0 -236.0V-265.0H182.0V-236.0H29.0ZM282.0 -236.0V-265.0H430.0V-236.0H282.0ZM162.0 -116.0V-293.0H168.0C184.0 -293.0 205.0 -282.0 206.0 -275.0V-150.0C223.0 -147.0 236.0 -140.0 243.0 -134.0L182.0 -88.0L154.0 -116.0H162.0ZM19.0 -116.0V-303.0H26.0C43.0 -303.0 62.0 -294.0 62.0 -290.0V-146.0H192.0V-116.0H67.0L19.0 -92.0V-116.0ZM413.0 -116.0V-295.0H419.0C434.0 -295.0 455.0 -282.0 456.0 -276.0V-150.0C472.0 -147.0 486.0 -140.0 492.0 -134.0L431.0 -88.0L404.0 -116.0H413.0ZM263.0 -116.0V-302.0H270.0C287.0 -302.0 307.0 -294.0 307.0 -290.0V-146.0H433.0V-116.0H311.0L263.0 -92.0V-116.0Z"/></g>
<g fill="green" transform="translate(400 100) scale(0.1 -0.1)"><path d="M0.0 0.0 7.0 -28.0H91.0V-95.0H113.0C186.0 -95.0 207.0 -78.0 207.0 -72.0V-28.0H282.0V-92.0H305.0C379.0 -92.0 399.0 -76.0 399.0 -69.0V-28.0H505.0C518.0 -28.0 528.0 -22.0 530.0 -12.0C501.0 19.0 452.0 58.0 452.0 58.0L411.0 0.0H399.0V60.0C420.0 64.0 427.0 74.0 428.0 85.0L282.0 98.0V0.0H207.0V60.0C226.0 64.0 232.0 74.0 233.0 85.0L91.0 98.0V0.0H0.0ZM120.0 -412.0V-440.0H490.0C504.0 -440.0 515.0 -435.0 517.0 -424.0C482.0 -392.0 423.0 -346.0 423.0 -346.0L373.0 -412.0H120.0ZM121.0 -749.0V-777.0H508.0C521.0 -777.0 532.0 -772.0 534.0 -761.0C497.0 -726.0 436.0 -676.0 436.0 -676.0L382.0 -749.0H121.0ZM116.0 -522.0V-550.0H478.0C492.0 -550.0 501.0 -545.0 504.0 -534.0C470.0 -501.0 413.0 -455.0 413.0 -455.0L362.0 -522.0H116.0ZM116.0 -635.0V-663.0H475.0C488.0 -663.0 498.0 -657.0 501.0 -647.0C467.0 -614.0 411.0 -567.0 411.0 -567.0L360.0 -635.0H116.0ZM232.0 -412.0V-764.0H341.0V-412.0H232.0ZM163.0 -412.0H176.0L111.0 -387.0L62.0 -457.0V-841.0H79.0C132.0 -841.0 163.0 -817.0 163.0 -810.0V-412.0ZM75.0 -292.0C65.0 -373.0 37.0 -478.0 1.0 -547.0L10.0 -556.0C86.0 -513.0 151.0 -442.0 193.0 -369.0C215.0 -369.0 225.0 -361.0 229.0 -350.0L75.0 -292.0ZM257.0 -315.0C251.0 -347.0 240.0 -398.0 233.0 -427.0H255.0C284.0 -408.0 323.0 -380.0 348.0 -360.0C368.0 -359.0 382.0 -351.0 385.0 -336.0L257.0 -315.0ZM58.0 -260.0V-288.0H182.0V-260.0H58.0ZM313.0 -260.0V-288.0H444.0V-260.0H313.0ZM140.0 -132.0V-317.0H157.0C187.0 -317.0 237.0 -302.0 239.0 -296.0V-173.0C255.0 -170.0 267.0 -162.0 272.0 -156.0L177.0 -85.0L131.0 -132.0H140.0ZM19.0 -132.0V-327.0H32.0C68.0 -327.0 108.0 -308.0 108.0 -301.0V-160.0H184.0V-132.0H111.0L19.0 -96.0V-132.0ZM394.0 -132.0V-316.0H412.0C444.0 -316.0 496.0 -299.0 498.0 -293.0V-172.0C513.0 -169.0 523.0 -162.0 528.0 -157.0L432.0 -85.0L385.0 -132.0H394.0ZM268.0 -132.0V-327.0H280.0C319.0 -327.0 360.0 -307.0 360.0 -299.0V-160.0H433.0V-132.0H365.0L268.0 -94.0V-132.0Z"/></g>
<g fill="green" transform="translate(500 100) scale(0.1 -0.1)"><path d="M-0.0 0.0 7.0 -30.0H181.0V-93.0H188.0C205.0 -93.0 225.0 -85.0 225.0 -79.0V-30.0H393.0V-91.0H401.0C424.0 -90.0 437.0 -79.0 437.0 -76.0V-30.0H620.0C634.0 -30.0 643.0 -24.0 645.0 -14.0C619.0 13.0 573.0 47.0 573.0 47.0L534.0 0.0H437.0V61.0C459.0 64.0 469.0 75.0 471.0 89.0L393.0 96.0V0.0H225.0V61.0C249.0 64.0 257.0 75.0 259.0 89.0L181.0 96.0V0.0H0.0ZM95.0 -394.0V-424.0H612.0C626.0 -424.0 636.0 -418.0 639.0 -408.0C605.0 -380.0 559.0 -347.0 559.0 -347.0L517.0 -394.0H95.0ZM92.0 -742.0V-771.0H623.0C638.0 -771.0 646.0 -767.0 649.0 -757.0C618.0 -730.0 573.0 -698.0 573.0 -698.0L532.0 -742.0H92.0ZM87.0 -507.0V-538.0H585.0C599.0 -538.0 608.0 -532.0 610.0 -521.0C579.0 -495.0 532.0 -460.0 532.0 -460.0L491.0 -507.0H87.0ZM88.0 -626.0V-654.0H576.0C589.0 -654.0 598.0 -650.0 601.0 -640.0C571.0 -613.0 522.0 -579.0 522.0 -579.0L482.0 -626.0H88.0ZM298.0 -394.0V-750.0H343.0V-394.0H298.0ZM111.0 -394.0H122.0L92.0 -380.0L70.0 -417.0V-806.0H75.0C95.0 -806.0 111.0 -796.0 111.0 -794.0V-394.0ZM133.0 -284.0C106.0 -353.0 34.0 -475.0 -50.0 -552.0L-39.0 -567.0C58.0 -494.0 134.0 -386.0 171.0 -324.0C194.0 -328.0 200.0 -328.0 207.0 -317.0L133.0 -284.0ZM331.0 -297.0C321.0 -327.0 300.0 -379.0 289.0 -405.0H314.0C329.0 -384.0 352.0 -355.0 367.0 -334.0C386.0 -335.0 401.0 -328.0 405.0 -316.0L331.0 -297.0ZM54.0 -238.0V-267.0H243.0V-238.0H54.0ZM361.0 -238.0V-267.0H555.0V-238.0H361.0ZM230.0 -114.0V-301.0H236.0C250.0 -301.0 272.0 -291.0 273.0 -286.0V-145.0C287.0 -143.0 299.0 -137.0 304.0 -131.0L249.0 -88.0L223.0 -114.0H230.0ZM41.0 -114.0V-310.0H48.0C65.0 -310.0 83.0 -301.0 83.0 -297.0V-144.0H250.0V-114.0H89.0L41.0 -90.0V-114.0ZM534.0 -114.0V-310.0H540.0C554.0 -310.0 575.0 -301.0 575.0 -296.0V-145.0C591.0 -143.0 604.0 -137.0 608.0 -131.0L553.0 -88.0L526.0 -114.0H534.0ZM342.0 -114.0V-313.0H348.0C365.0 -313.0 383.0 -305.0 383.0 -301.0V-144.0H553.0V-114.0H388.0L342.0 -91.0V-114.0Z"/></g>
<g fill="green" transform="translate(600 100) scale(0.1 -0.1)"><path d="M0.0 0.0 7.0 -28.0H138.0V-97.0H163.0C236.0 -97.0 261.0 -80.0 261.0 -73.0V-28.0H348.0V-93.0H371.0C444.0 -93.0 471.0 -77.0 471.0 -70.0V-28.0H615.0C629.0 -28.0 639.0 -23.0 641.0 -12.0C606.0 21.0 544.0 65.0 544.0 65.0L494.0 0.0H471.0V59.0C494.0 64.0 502.0 74.0 503.0 86.0L348.0 100.0V0.0H261.0V59.0C284.0 63.0 291.0 74.0 292.0 86.0L138.0 100.0V0.0H0.0ZM134.0 -397.0V-425.0H626.0C640.0 -425.0 651.0 -420.0 653.0 -409.0C611.0 -371.0 541.0 -319.0 541.0 -319.0L480.0 -397.0H134.0ZM134.0 -767.0V-795.0H639.0C652.0 -795.0 664.0 -789.0 666.0 -779.0C622.0 -739.0 549.0 -681.0 549.0 -681.0L484.0 -767.0H134.0ZM127.0 -521.0V-549.0H617.0C632.0 -549.0 642.0 -544.0 645.0 -533.0C603.0 -496.0 535.0 -444.0 535.0 -444.0L473.0 -521.0H127.0ZM127.0 -645.0V-673.0H606.0C621.0 -673.0 632.0 -668.0 634.0 -657.0C592.0 -621.0 524.0 -568.0 524.0 -568.0L463.0 -645.0H127.0ZM289.0 -397.0V-769.0H418.0V-397.0H289.0ZM186.0 -397.0H199.0L130.0 -372.0L58.0 -472.0V-848.0H80.0C148.0 -848.0 186.0 -827.0 186.0 -821.0V-397.0ZM108.0 -266.0C91.0 -335.0 36.0 -466.0 -39.0 -551.0L-32.0 -562.0C82.0 -509.0 175.0 -416.0 225.0 -357.0C249.0 -359.0 255.0 -354.0 260.0 -344.0L108.0 -266.0ZM316.0 -295.0C310.0 -331.0 297.0 -387.0 289.0 -416.0H330.0C358.0 -401.0 403.0 -376.0 434.0 -360.0C455.0 -359.0 471.0 -354.0 475.0 -336.0L316.0 -295.0ZM89.0 -251.0V-279.0H241.0V-251.0H89.0ZM393.0 -251.0V-279.0H547.0V-251.0H393.0ZM180.0 -133.0V-312.0H200.0C237.0 -312.0 292.0 -292.0 294.0 -285.0V-175.0C309.0 -171.0 321.0 -165.0 327.0 -157.0L221.0 -80.0L171.0 -133.0H180.0ZM32.0 -133.0V-330.0H47.0C91.0 -330.0 141.0 -307.0 141.0 -298.0V-161.0H238.0V-133.0H142.0L32.0 -89.0V-133.0ZM484.0 -133.0V-315.0H504.0C542.0 -315.0 601.0 -294.0 603.0 -286.0V-175.0C620.0 -173.0 630.0 -164.0 635.0 -159.0L527.0 -78.0L474.0 -133.0H484.0ZM330.0 -133.0V-323.0H345.0C392.0 -323.0 443.0 -298.0 443.0 -289.0V-161.0H540.0V-133.0H446.0L330.0 -88.0V-133.0Z"/></g>
<g fill="green" transform="translate(700 100) scale(0.1 -0.1)"><path d="M0.0 0.0 8.0 -33.0H150.0V-98.0H158.0C178.0 -98.0 201.0 -89.0 201.0 -82.0V-33.0H338.0V-97.0H347.0C373.0 -96.0 387.0 -83.0 387.0 -79.0V-33.0H540.0C555.0 -33.0 565.0 -27.0 569.0 -15.0C540.0 11.0 494.0 48.0 494.0 48.0L455.0 0.0H387.0V65.0C412.0 68.0 422.0 80.0 424.0 95.0L338.0 105.0V0.0H201.0V65.0C224.0 68.0 234.0 79.0 236.0 95.0L150.0 105.0V0.0H0.0ZM114.0 -424.0V-457.0H494.0C509.0 -457.0 518.0 -451.0 521.0 -439.0C495.0 -412.0 452.0 -379.0 452.0 -379.0L416.0 -424.0H114.0ZM114.0 -786.0V-819.0H521.0C538.0 -819.0 548.0 -814.0 551.0 -802.0C521.0 -773.0 476.0 -737.0 476.0 -737.0L435.0 -786.0H114.0ZM114.0 -541.0V-574.0H479.0C495.0 -574.0 504.0 -568.0 507.0 -556.0C482.0 -531.0 442.0 -500.0 442.0 -500.0L410.0 -541.0H114.0ZM113.0 -661.0V-694.0H480.0C495.0 -694.0 506.0 -689.0 507.0 -677.0C483.0 -652.0 443.0 -620.0 443.0 -620.0L409.0 -661.0H113.0ZM273.0 -424.0V-798.0H322.0V-424.0H273.0ZM141.0 -424.0H153.0L130.0 -412.0L91.0 -477.0V-890.0H99.0C123.0 -890.0 141.0 -875.0 141.0 -870.0V-424.0ZM133.0 -315.0C102.0 -423.0 49.0 -528.0 -6.0 -594.0L10.0 -606.0C76.0 -550.0 136.0 -459.0 175.0 -363.0C199.0 -364.0 210.0 -355.0 215.0 -342.0L133.0 -315.0ZM289.0 -327.0C282.0 -360.0 269.0 -409.0 261.0 -438.0H284.0C301.0 -416.0 321.0 -393.0 335.0 -372.0C358.0 -373.0 371.0 -363.0 375.0 -350.0L289.0 -327.0ZM74.0 -262.0V-294.0H221.0V-262.0H74.0ZM335.0 -262.0V-294.0H481.0V-262.0H335.0ZM194.0 -122.0V-327.0H201.0C217.0 -327.0 242.0 -313.0 243.0 -307.0V-162.0C262.0 -159.0 278.0 -151.0 284.0 -143.0L215.0 -91.0L184.0 -122.0H194.0ZM49.0 -122.0V-336.0H57.0C75.0 -336.0 98.0 -326.0 98.0 -322.0V-156.0H221.0V-122.0H102.0L49.0 -96.0V-122.0ZM460.0 -122.0V-322.0H467.0C484.0 -322.0 509.0 -309.0 510.0 -302.0V-163.0C528.0 -160.0 546.0 -151.0 552.0 -143.0L481.0 -90.0L450.0 -122.0H460.0ZM308.0 -122.0V-324.0H315.0C335.0 -324.0 357.0 -314.0 357.0 -308.0V-156.0H481.0V-122.0H362.0L308.0 -97.0V-122.0Z"/></g>
<g fill="green" transform="translate(800 100) scale(0.1 -0.1)"><path d="M0.0 0.0 8.0 -31.0H114.0V-98.0H140.0C222.0 -98.0 246.0 -79.0 246.0 -72.0V-31.0H334.0V-95.0H360.0C443.0 -95.0 468.0 -76.0 468.0 -68.0V-31.0H596.0C609.0 -31.0 621.0 -25.0 624.0 -13.0C589.0 21.0 532.0 65.0 532.0 65.0L484.0 0.0H468.0V59.0C491.0 64.0 499.0 76.0 500.0 89.0L334.0 102.0V0.0H246.0V59.0C268.0 65.0 275.0 75.0 277.0 88.0L114.0 102.0V0.0H0.0ZM139.0 -468.0V-500.0H543.0C559.0 -500.0 570.0 -494.0 573.0 -482.0C534.0 -445.0 468.0 -391.0 468.0 -391.0L411.0 -468.0H139.0ZM140.0 -833.0V-864.0H562.0C577.0 -864.0 589.0 -858.0 592.0 -846.0C549.0 -808.0 478.0 -751.0 478.0 -751.0L416.0 -833.0H140.0ZM142.0 -585.0V-616.0H523.0C539.0 -616.0 550.0 -611.0 552.0 -599.0C516.0 -562.0 454.0 -510.0 454.0 -510.0L399.0 -585.0H142.0ZM142.0 -706.0V-737.0H533.0C548.0 -737.0 559.0 -731.0 562.0 -719.0C526.0 -683.0 464.0 -629.0 464.0 -629.0L409.0 -706.0H142.0ZM264.0 -468.0V-854.0H386.0V-468.0H264.0ZM198.0 -468.0H212.0L146.0 -442.0L80.0 -533.0V-933.0H101.0C161.0 -933.0 198.0 -906.0 198.0 -897.0V-468.0ZM106.0 -339.0C82.0 -456.0 34.0 -575.0 -17.0 -653.0L-4.0 -662.0C88.0 -608.0 169.0 -523.0 227.0 -417.0C251.0 -417.0 265.0 -408.0 270.0 -394.0L106.0 -339.0ZM284.0 -346.0C282.0 -384.0 277.0 -443.0 272.0 -479.0H290.0C327.0 -456.0 371.0 -424.0 398.0 -401.0C423.0 -400.0 436.0 -390.0 439.0 -375.0L284.0 -346.0ZM88.0 -272.0V-303.0H215.0V-272.0H88.0ZM358.0 -272.0V-303.0H490.0V-272.0H358.0ZM172.0 -131.0V-340.0H190.0C223.0 -340.0 275.0 -321.0 276.0 -313.0V-172.0C291.0 -169.0 302.0 -162.0 307.0 -155.0L210.0 -84.0L163.0 -131.0H172.0ZM35.0 -131.0V-355.0H49.0C87.0 -355.0 131.0 -335.0 131.0 -328.0V-163.0H210.0V-131.0H135.0L35.0 -91.0V-131.0ZM452.0 -131.0V-341.0H470.0C503.0 -341.0 556.0 -321.0 558.0 -314.0V-174.0C575.0 -171.0 586.0 -163.0 592.0 -157.0L492.0 -81.0L442.0 -131.0H452.0ZM310.0 -131.0V-351.0H324.0C363.0 -351.0 406.0 -331.0 406.0 -322.0V-163.0H482.0V-131.0H411.0L310.0 -91.0V-131.0Z"/></g>
<g fill="red" transform="translate(100 200) scale(0.1 -0.1)"><path d="M0.0 0.0 7.0 -30.0H183.0V-88.0H190.0C208.0 -88.0 228.0 -80.0 228.0 -74.0V-30.0H393.0V-87.0H401.0C425.0 -86.0 438.0 -75.0 438.0 -71.0V-30.0H623.0C637.0 -30.0 646.0 -25.0 648.0 -14.0C621.0 13.0 575.0 47.0 575.0 47.0L537.0 0.0H438.0V57.0C461.0 60.0 470.0 71.0 472.0 84.0L393.0 92.0V0.0H228.0V57.0C251.0 60.0 260.0 70.0 262.0 84.0L183.0 92.0V0.0H0.0ZM114.0 -382.0V-412.0H589.0C603.0 -412.0 612.0 -407.0 615.0 -396.0C586.0 -369.0 542.0 -334.0 542.0 -334.0L503.0 -382.0H114.0ZM113.0 -731.0V-761.0H611.0C625.0 -761.0 634.0 -756.0 637.0 -745.0C609.0 -718.0 564.0 -683.0 564.0 -683.0L525.0 -731.0H113.0ZM110.0 -497.0V-526.0H559.0C573.0 -526.0 581.0 -521.0 584.0 -510.0C557.0 -484.0 513.0 -449.0 513.0 -449.0L476.0 -497.0H110.0ZM111.0 -614.0V-643.0H555.0C569.0 -643.0 578.0 -638.0 580.0 -628.0C554.0 -601.0 509.0 -566.0 509.0 -566.0L472.0 -614.0H111.0ZM310.0 -382.0V-744.0H354.0V-382.0H310.0ZM132.0 -382.0H144.0L117.0 -369.0L90.0 -415.0V-806.0H96.0C116.0 -806.0 132.0 -795.0 132.0 -791.0V-382.0ZM143.0 -282.0C111.0 -368.0 39.0 -488.0 -41.0 -563.0L-29.0 -576.0C62.0 -507.0 140.0 -402.0 180.0 -324.0C203.0 -327.0 211.0 -323.0 217.0 -312.0L143.0 -282.0ZM336.0 -294.0C327.0 -323.0 311.0 -370.0 302.0 -396.0H328.0C343.0 -376.0 363.0 -352.0 376.0 -333.0C395.0 -333.0 408.0 -326.0 412.0 -313.0L336.0 -294.0ZM88.0 -239.0V-269.0H255.0V-239.0H88.0ZM377.0 -239.0V-269.0H553.0V-239.0H377.0ZM239.0 -109.0V-301.0H245.0C258.0 -301.0 281.0 -291.0 282.0 -286.0V-142.0C296.0 -139.0 310.0 -133.0 313.0 -127.0L257.0 -83.0L231.0 -109.0H239.0ZM63.0 -109.0V-309.0H70.0C88.0 -309.0 106.0 -300.0 106.0 -296.0V-139.0H255.0V-109.0H111.0L63.0 -86.0V-109.0ZM531.0 -109.0V-304.0H537.0C551.0 -304.0 574.0 -296.0 574.0 -291.0V-143.0C590.0 -140.0 604.0 -133.0 609.0 -127.0L550.0 -82.0L523.0 -109.0H531.0ZM352.0 -109.0V-302.0H359.0C376.0 -302.0 394.0 -292.0 394.0 -288.0V-139.0H548.0V-109.0H399.0L352.0 -87.0V-109.0Z"/></g>
<g fill="black" opacity=".8" transform="translate(100 200) scale(0.1 -0.1)"><path d="M0.0 0.0 7.0 -30.0H184.0V-89.0H191.0C209.0 -89.0 229.0 -81.0 229.0 -75.0V-30.0H391.0V-87.0H399.0C423.0 -86.0 436.0 -75.0 436.0 -72.0V-30.0H622.0C636.0 -30.0 645.0 -24.0 648.0 -14.0C621.0 13.0 574.0 47.0 574.0 47.0L536.0 0.0H436.0V57.0C458.0 60.0 468.0 71.0 470.0 85.0L391.0 93.0V0.0H229.0V57.0C253.0 60.0 261.0 71.0 263.0 85.0L184.0 93.0V0.0H0.0ZM115.0 -383.0V-413.0H586.0C600.0 -413.0 609.0 -407.0 612.0 -397.0C583.0 -369.0 539.0 -335.0 539.0 -335.0L501.0 -383.0H115.0ZM113.0 -734.0V-764.0H608.0C624.0 -764.0 633.0 -759.0 636.0 -749.0C606.0 -721.0 562.0 -686.0 562.0 -686.0L522.0 -734.0H113.0ZM110.0 -498.0V-528.0H559.0C574.0 -528.0 582.0 -522.0 584.0 -511.0C557.0 -485.0 512.0 -450.0 512.0 -450.0L476.0 -498.0H110.0ZM110.0 -616.0V-645.0H556.0C569.0 -645.0 579.0 -641.0 581.0 -631.0C555.0 -604.0 510.0 -569.0 510.0 -569.0L472.0 -616.0H110.0ZM308.0 -383.0V-749.0H353.0V-383.0H308.0ZM131.0 -383.0H142.0L116.0 -370.0L89.0 -416.0V-810.0H95.0C115.0 -810.0 131.0 -798.0 131.0 -794.0V-383.0ZM144.0 -282.0C111.0 -368.0 38.0 -487.0 -41.0 -561.0L-28.0 -574.0C62.0 -506.0 140.0 -402.0 181.0 -325.0C204.0 -327.0 212.0 -324.0 218.0 -313.0L144.0 -282.0ZM335.0 -295.0C326.0 -323.0 310.0 -370.0 301.0 -394.0H327.0C341.0 -375.0 362.0 -352.0 375.0 -334.0C393.0 -334.0 407.0 -327.0 411.0 -315.0L335.0 -295.0ZM88.0 -238.0V-267.0H256.0V-238.0H88.0ZM376.0 -238.0V-267.0H552.0V-238.0H376.0ZM239.0 -109.0V-302.0H245.0C258.0 -302.0 281.0 -291.0 282.0 -287.0V-141.0C297.0 -139.0 310.0 -133.0 314.0 -127.0L257.0 -83.0L231.0 -109.0H239.0ZM63.0 -109.0V-310.0H70.0C87.0 -310.0 106.0 -301.0 106.0 -297.0V-140.0H254.0V-109.0H111.0L63.0 -85.0V-109.0ZM530.0 -109.0V-305.0H536.0C550.0 -305.0 573.0 -297.0 573.0 -292.0V-142.0C589.0 -140.0 604.0 -133.0 608.0 -127.0L549.0 -82.0L522.0 -109.0H530.0ZM352.0 -109.0V-303.0H358.0C376.0 -303.0 394.0 -294.0 394.0 -289.0V-140.0H548.0V-109.0H399.0L352.0 -87.0V-109.0Z"/></g>
<g fill="red" transform="translate(200 200) scale(0.1 -0.1)"><path d="M0.0 0.0 7.0 -28.0H145.0V-90.0H171.0C245.0 -90.0 271.0 -72.0 271.0 -66.0V-28.0H363.0V-86.0H386.0C460.0 -86.0 488.0 -69.0 488.0 -62.0V-28.0H638.0C652.0 -28.0 662.0 -23.0 664.0 -12.0C627.0 21.0 564.0 66.0 564.0 66.0L513.0 0.0H488.0V53.0C512.0 57.0 519.0 68.0 520.0 80.0L363.0 93.0V0.0H271.0V53.0C294.0 57.0 301.0 67.0 303.0 80.0L145.0 93.0V0.0H0.0ZM135.0 -409.0V-437.0H620.0C635.0 -437.0 645.0 -432.0 648.0 -421.0C606.0 -383.0 536.0 -329.0 536.0 -329.0L474.0 -409.0H135.0ZM134.0 -767.0V-795.0H632.0C646.0 -795.0 657.0 -790.0 660.0 -779.0C615.0 -739.0 539.0 -680.0 539.0 -680.0L473.0 -767.0H134.0ZM135.0 -527.0V-555.0H604.0C618.0 -555.0 629.0 -550.0 632.0 -539.0C591.0 -502.0 524.0 -449.0 524.0 -449.0L465.0 -527.0H135.0ZM135.0 -646.0V-674.0H605.0C619.0 -674.0 630.0 -669.0 633.0 -658.0C592.0 -621.0 524.0 -568.0 524.0 -568.0L465.0 -646.0H135.0ZM291.0 -409.0V-772.0H422.0V-409.0H291.0ZM200.0 -409.0H214.0L151.0 -386.0L68.0 -497.0V-846.0H92.0C160.0 -846.0 200.0 -825.0 200.0 -818.0V-409.0ZM128.0 -283.0C99.0 -375.0 31.0 -508.0 -50.0 -593.0L-41.0 -603.0C76.0 -546.0 174.0 -450.0 233.0 -369.0C257.0 -372.0 266.0 -366.0 271.0 -356.0L128.0 -283.0ZM316.0 -295.0C312.0 -334.0 303.0 -392.0 298.0 -425.0H333.0C365.0 -407.0 411.0 -381.0 442.0 -363.0C465.0 -363.0 478.0 -356.0 483.0 -340.0L316.0 -295.0ZM107.0 -242.0V-270.0H248.0V-242.0H107.0ZM397.0 -242.0V-270.0H538.0V-242.0H397.0ZM193.0 -121.0V-307.0H212.0C247.0 -307.0 299.0 -284.0 299.0 -276.0V-159.0C313.0 -156.0 323.0 -150.0 327.0 -144.0L231.0 -74.0L185.0 -121.0H193.0ZM44.0 -121.0V-328.0H59.0C102.0 -328.0 150.0 -306.0 150.0 -297.0V-149.0H243.0V-121.0H153.0L44.0 -78.0V-121.0ZM490.0 -121.0V-311.0H509.0C546.0 -311.0 600.0 -289.0 601.0 -281.0V-162.0C617.0 -159.0 629.0 -152.0 633.0 -146.0L531.0 -69.0L481.0 -121.0H490.0ZM337.0 -121.0V-316.0H352.0C396.0 -316.0 444.0 -293.0 444.0 -285.0V-149.0H536.0V-121.0H447.0L337.0 -78.0V-121.0Z"/></g>
<g fill="black" opacity=".8" transform="translate(200 200) scale(0.1 -0.1)"><path d="M0.0 0.0 7.0 -28.0H147.0V-91.0H173.0C247.0 -91.0 273.0 -74.0 273.0 -67.0V-28.0H363.0V-87.0H386.0C460.0 -87.0 489.0 -70.0 489.0 -63.0V-28.0H640.0C653.0 -28.0 664.0 -23.0 666.0 -12.0C629.0 21.0 565.0 65.0 565.0 65.0L514.0 0.0H489.0V53.0C512.0 58.0 520.0 69.0 521.0 82.0L363.0 95.0V0.0H273.0V53.0C296.0 58.0 303.0 68.0 304.0 81.0L147.0 95.0V0.0H0.0ZM138.0 -407.0V-436.0H619.0C634.0 -436.0 644.0 -431.0 647.0 -420.0C605.0 -381.0 535.0 -326.0 535.0 -326.0L473.0 -407.0H138.0ZM138.0 -768.0V-796.0H632.0C645.0 -796.0 657.0 -790.0 660.0 -780.0C614.0 -741.0 539.0 -682.0 539.0 -682.0L473.0 -768.0H138.0ZM138.0 -526.0V-554.0H605.0C620.0 -554.0 630.0 -549.0 633.0 -538.0C592.0 -501.0 526.0 -449.0 526.0 -449.0L466.0 -526.0H138.0ZM138.0 -646.0V-674.0H605.0C620.0 -674.0 631.0 -669.0 633.0 -658.0C593.0 -622.0 526.0 -568.0 526.0 -568.0L467.0 -646.0H138.0ZM292.0 -407.0V-774.0H421.0V-407.0H292.0ZM199.0 -407.0H212.0L149.0 -384.0L68.0 -493.0V-848.0H91.0C160.0 -848.0 199.0 -826.0 199.0 -819.0V-407.0ZM126.0 -280.0C98.0 -372.0 30.0 -504.0 -52.0 -589.0L-43.0 -599.0C76.0 -542.0 175.0 -444.0 235.0 -364.0C258.0 -366.0 267.0 -360.0 272.0 -349.0L126.0 -280.0ZM312.0 -293.0C310.0 -331.0 303.0 -389.0 298.0 -421.0H333.0C365.0 -405.0 410.0 -379.0 440.0 -362.0C463.0 -361.0 477.0 -354.0 481.0 -338.0L312.0 -293.0ZM108.0 -238.0V-266.0H249.0V-238.0H108.0ZM398.0 -238.0V-266.0H540.0V-238.0H398.0ZM192.0 -120.0V-302.0H212.0C248.0 -302.0 299.0 -280.0 300.0 -273.0V-158.0C313.0 -155.0 324.0 -150.0 329.0 -142.0L231.0 -72.0L184.0 -120.0H192.0ZM43.0 -120.0V-324.0H58.0C100.0 -324.0 149.0 -302.0 149.0 -294.0V-149.0H241.0V-120.0H151.0L43.0 -77.0V-120.0ZM492.0 -120.0V-307.0H510.0C546.0 -307.0 601.0 -285.0 603.0 -277.0V-161.0C620.0 -159.0 630.0 -150.0 635.0 -145.0L533.0 -67.0L482.0 -120.0H492.0ZM338.0 -120.0V-313.0H353.0C396.0 -313.0 445.0 -290.0 445.0 -281.0V-149.0H536.0V-120.0H448.0L338.0 -77.0V-120.0Z"/></g>
<g fill="red" transform="translate(300 200) scale(0.1 -0.1)"><path d="M0.0 0.0 7.0 -30.0H161.0V-93.0H168.0C186.0 -93.0 205.0 -85.0 205.0 -79.0V-30.0H345.0V-91.0H353.0C377.0 -90.0 389.0 -79.0 389.0 -75.0V-30.0H552.0C566.0 -30.0 575.0 -25.0 577.0 -14.0C551.0 12.0 508.0 45.0 508.0 45.0L470.0 0.0H389.0V62.0C412.0 65.0 421.0 76.0 423.0 89.0L345.0 97.0V0.0H205.0V62.0C228.0 65.0 237.0 76.0 239.0 89.0L161.0 97.0V0.0H0.0ZM97.0 -391.0V-421.0H526.0C540.0 -421.0 549.0 -416.0 552.0 -405.0C522.0 -379.0 479.0 -348.0 479.0 -348.0L440.0 -391.0H97.0ZM96.0 -734.0V-764.0H544.0C558.0 -764.0 567.0 -759.0 570.0 -748.0C540.0 -722.0 496.0 -691.0 496.0 -691.0L457.0 -734.0H96.0ZM93.0 -502.0V-532.0H514.0C527.0 -532.0 536.0 -527.0 539.0 -516.0C511.0 -492.0 468.0 -461.0 468.0 -461.0L432.0 -502.0H93.0ZM94.0 -619.0V-648.0H510.0C523.0 -648.0 532.0 -643.0 535.0 -633.0C508.0 -608.0 465.0 -577.0 465.0 -577.0L428.0 -619.0H94.0ZM268.0 -391.0V-749.0H313.0V-391.0H268.0ZM114.0 -391.0H125.0L98.0 -378.0L71.0 -424.0V-810.0H77.0C98.0 -810.0 114.0 -799.0 114.0 -796.0V-391.0ZM126.0 -284.0C100.0 -362.0 40.0 -469.0 -29.0 -537.0L-17.0 -551.0C63.0 -490.0 129.0 -395.0 164.0 -325.0C188.0 -329.0 195.0 -324.0 200.0 -314.0L126.0 -284.0ZM293.0 -299.0C284.0 -326.0 268.0 -372.0 259.0 -397.0H282.0C297.0 -378.0 317.0 -356.0 330.0 -338.0C351.0 -339.0 364.0 -331.0 368.0 -319.0L293.0 -299.0ZM56.0 -231.0V-260.0H223.0V-231.0H56.0ZM327.0 -231.0V-260.0H495.0V-231.0H327.0ZM202.0 -111.0V-299.0H208.0C223.0 -299.0 245.0 -287.0 246.0 -281.0V-145.0C261.0 -142.0 275.0 -135.0 280.0 -129.0L221.0 -84.0L194.0 -111.0H202.0ZM39.0 -111.0V-307.0H46.0C63.0 -307.0 82.0 -298.0 82.0 -294.0V-141.0H227.0V-111.0H87.0L39.0 -88.0V-111.0ZM474.0 -111.0V-303.0H480.0C495.0 -303.0 517.0 -291.0 518.0 -285.0V-145.0C533.0 -142.0 547.0 -135.0 552.0 -129.0L493.0 -84.0L466.0 -111.0H474.0ZM308.0 -111.0V-307.0H315.0C332.0 -307.0 351.0 -298.0 351.0 -294.0V-141.0H496.0V-111.0H356.0L308.0 -88.0V-111.0Z"/></g>
<g fill="black" opacity=".8" transform="translate(300 200) scale(0.1 -0.1)"><path d="M0.0 0.0 7.0 -30.0H159.0V-91.0H166.0C183.0 -91.0 203.0 -83.0 203.0 -77.0V-30.0H350.0V-89.0H358.0C382.0 -88.0 394.0 -77.0 394.0 -74.0V-30.0H555.0C569.0 -30.0 578.0 -24.0 581.0 -13.0C555.0 12.0 511.0 45.0 511.0 45.0L474.0 0.0H394.0V60.0C416.0 63.0 426.0 74.0 428.0 88.0L350.0 95.0V0.0H203.0V60.0C226.0 63.0 234.0 73.0 236.0 88.0L159.0 95.0V0.0H0.0ZM97.0 -388.0V-418.0H534.0C547.0 -418.0 556.0 -412.0 559.0 -402.0C530.0 -376.0 488.0 -344.0 488.0 -344.0L450.0 -388.0H97.0ZM95.0 -725.0V-754.0H550.0C565.0 -754.0 573.0 -750.0 576.0 -739.0C547.0 -713.0 504.0 -681.0 504.0 -681.0L465.0 -725.0H95.0ZM92.0 -497.0V-528.0H513.0C527.0 -528.0 536.0 -522.0 538.0 -511.0C511.0 -487.0 469.0 -455.0 469.0 -455.0L433.0 -497.0H92.0ZM92.0 -611.0V-639.0H508.0C522.0 -639.0 531.0 -635.0 533.0 -625.0C507.0 -600.0 464.0 -569.0 464.0 -569.0L428.0 -611.0H92.0ZM272.0 -388.0V-733.0H316.0V-388.0H272.0ZM117.0 -388.0H128.0L101.0 -376.0L74.0 -422.0V-801.0H80.0C101.0 -801.0 117.0 -790.0 117.0 -787.0V-388.0ZM125.0 -283.0C99.0 -364.0 38.0 -473.0 -29.0 -542.0L-17.0 -555.0C62.0 -492.0 128.0 -397.0 163.0 -324.0C186.0 -327.0 194.0 -324.0 199.0 -312.0L125.0 -283.0ZM297.0 -295.0C288.0 -325.0 271.0 -374.0 262.0 -400.0H285.0C300.0 -379.0 321.0 -354.0 335.0 -333.0C354.0 -334.0 368.0 -327.0 372.0 -315.0L297.0 -295.0ZM57.0 -236.0V-265.0H221.0V-236.0H57.0ZM331.0 -236.0V-265.0H496.0V-236.0H331.0ZM203.0 -112.0V-297.0H209.0C223.0 -297.0 245.0 -286.0 246.0 -281.0V-145.0C262.0 -143.0 274.0 -136.0 280.0 -130.0L222.0 -85.0L195.0 -112.0H203.0ZM40.0 -112.0V-306.0H47.0C64.0 -306.0 83.0 -297.0 83.0 -293.0V-143.0H225.0V-112.0H88.0L40.0 -88.0V-112.0ZM477.0 -112.0V-300.0H483.0C497.0 -300.0 519.0 -290.0 519.0 -284.0V-146.0C535.0 -143.0 549.0 -136.0 554.0 -130.0L495.0 -85.0L468.0 -112.0H477.0ZM310.0 -112.0V-303.0H316.0C334.0 -303.0 352.0 -295.0 352.0 -290.0V-143.0H495.0V-112.0H357.0L310.0 -89.0V-112.0Z"/></g>
<g fill="red" transform="translate(400 200) scale(0.1 -0.1)"><path d="M0.0 0.0 7.0 -28.0H125.0V-96.0H149.0C223.0 -96.0 246.0 -78.0 246.0 -72.0V-28.0H324.0V-92.0H348.0C421.0 -92.0 447.0 -75.0 447.0 -68.0V-28.0H580.0C593.0 -28.0 603.0 -23.0 606.0 -12.0C572.0 20.0 514.0 63.0 514.0 63.0L467.0 0.0H447.0V59.0C469.0 63.0 476.0 74.0 477.0 85.0L324.0 98.0V0.0H246.0V59.0C268.0 63.0 275.0 73.0 276.0 85.0L125.0 98.0V0.0H0.0ZM140.0 -401.0V-429.0H558.0C572.0 -429.0 582.0 -424.0 585.0 -413.0C546.0 -376.0 481.0 -323.0 481.0 -323.0L423.0 -401.0H140.0ZM140.0 -760.0V-788.0H573.0C587.0 -788.0 598.0 -783.0 600.0 -772.0C560.0 -734.0 492.0 -680.0 492.0 -680.0L432.0 -760.0H140.0ZM136.0 -520.0V-548.0H552.0C566.0 -548.0 576.0 -543.0 579.0 -532.0C541.0 -497.0 479.0 -447.0 479.0 -447.0L423.0 -520.0H136.0ZM136.0 -641.0V-669.0H547.0C561.0 -669.0 572.0 -664.0 574.0 -653.0C537.0 -618.0 474.0 -568.0 474.0 -568.0L419.0 -641.0H136.0ZM263.0 -401.0V-772.0H383.0V-401.0H263.0ZM176.0 -401.0H189.0L123.0 -376.0L61.0 -462.0V-847.0H82.0C141.0 -847.0 176.0 -825.0 176.0 -818.0V-401.0ZM94.0 -275.0C76.0 -355.0 30.0 -474.0 -30.0 -550.0L-21.0 -560.0C79.0 -513.0 169.0 -424.0 217.0 -349.0C241.0 -348.0 249.0 -341.0 252.0 -330.0L94.0 -275.0ZM276.0 -296.0C275.0 -329.0 271.0 -380.0 268.0 -409.0H298.0C326.0 -393.0 366.0 -370.0 392.0 -354.0C415.0 -353.0 428.0 -346.0 432.0 -330.0L276.0 -296.0ZM85.0 -235.0V-263.0H221.0V-235.0H85.0ZM362.0 -235.0V-263.0H503.0V-235.0H362.0ZM165.0 -122.0V-299.0H184.0C219.0 -299.0 274.0 -280.0 275.0 -273.0V-163.0C291.0 -160.0 302.0 -153.0 307.0 -147.0L205.0 -71.0L156.0 -122.0H165.0ZM26.0 -122.0V-313.0H40.0C80.0 -313.0 124.0 -292.0 124.0 -284.0V-150.0H210.0V-122.0H127.0L26.0 -82.0V-122.0ZM450.0 -122.0V-299.0H469.0C504.0 -299.0 559.0 -280.0 560.0 -273.0V-163.0C576.0 -160.0 587.0 -153.0 592.0 -147.0L490.0 -71.0L441.0 -122.0H450.0ZM309.0 -122.0V-309.0H323.0C363.0 -309.0 407.0 -288.0 407.0 -280.0V-150.0H493.0V-122.0H410.0L309.0 -82.0V-122.0Z"/></g>
<g fill="black" opacity=".8" transform="translate(400 200) scale(0.1 -0.1)"><path d="M0.0 0.0 7.0 -28.0H120.0V-93.0H144.0C217.0 -93.0 241.0 -76.0 241.0 -70.0V-28.0H324.0V-90.0H347.0C420.0 -90.0 445.0 -73.0 445.0 -66.0V-28.0H574.0C588.0 -28.0 598.0 -22.0 600.0 -12.0C567.0 20.0 510.0 62.0 510.0 62.0L464.0 0.0H445.0V57.0C467.0 61.0 474.0 71.0 475.0 83.0L324.0 97.0V0.0H241.0V57.0C262.0 61.0 269.0 71.0 270.0 83.0L120.0 97.0V0.0H0.0ZM129.0 -407.0V-435.0H560.0C574.0 -435.0 585.0 -430.0 587.0 -419.0C549.0 -383.0 484.0 -333.0 484.0 -333.0L428.0 -407.0H129.0ZM130.0 -757.0V-785.0H575.0C588.0 -785.0 600.0 -779.0 602.0 -769.0C561.0 -732.0 493.0 -677.0 493.0 -677.0L432.0 -757.0H130.0ZM126.0 -522.0V-550.0H548.0C562.0 -550.0 572.0 -545.0 575.0 -534.0C537.0 -499.0 475.0 -450.0 475.0 -450.0L419.0 -522.0H126.0ZM126.0 -639.0V-667.0H545.0C559.0 -667.0 570.0 -661.0 572.0 -651.0C535.0 -616.0 473.0 -566.0 473.0 -566.0L417.0 -639.0H126.0ZM264.0 -407.0V-767.0H383.0V-407.0H264.0ZM181.0 -407.0H194.0L129.0 -382.0L64.0 -473.0V-842.0H84.0C145.0 -842.0 181.0 -820.0 181.0 -813.0V-407.0ZM100.0 -283.0C82.0 -367.0 34.0 -486.0 -27.0 -564.0L-18.0 -573.0C81.0 -523.0 164.0 -438.0 214.0 -364.0C237.0 -365.0 246.0 -359.0 250.0 -348.0L100.0 -283.0ZM287.0 -302.0C283.0 -337.0 273.0 -391.0 267.0 -422.0H297.0C327.0 -404.0 369.0 -378.0 397.0 -360.0C418.0 -359.0 432.0 -352.0 436.0 -336.0L287.0 -302.0ZM83.0 -249.0V-277.0H217.0V-249.0H83.0ZM358.0 -249.0V-277.0H496.0V-249.0H358.0ZM167.0 -126.0V-309.0H185.0C218.0 -309.0 269.0 -291.0 271.0 -284.0V-166.0C286.0 -163.0 297.0 -157.0 302.0 -150.0L205.0 -79.0L158.0 -126.0H167.0ZM31.0 -126.0V-325.0H45.0C84.0 -325.0 129.0 -304.0 129.0 -297.0V-155.0H214.0V-126.0H131.0L31.0 -87.0V-126.0ZM446.0 -126.0V-311.0H464.0C498.0 -311.0 552.0 -292.0 554.0 -284.0V-167.0C570.0 -165.0 580.0 -157.0 585.0 -152.0L485.0 -76.0L436.0 -126.0H446.0ZM305.0 -126.0V-320.0H318.0C360.0 -320.0 405.0 -298.0 405.0 -289.0V-155.0H489.0V-126.0H409.0L305.0 -86.0V-126.0Z"/></g>
<g fill="red" transform="translate(500 200) scale(0.1 -0.1)"><path d="M0.0 0.0 7.0 -30.0H151.0V-93.0H158.0C175.0 -93.0 195.0 -85.0 195.0 -79.0V-30.0H346.0V-92.0H354.0C377.0 -91.0 390.0 -80.0 390.0 -76.0V-30.0H543.0C557.0 -30.0 566.0 -25.0 568.0 -14.0C542.0 11.0 499.0 45.0 499.0 45.0L462.0 0.0H390.0V62.0C413.0 65.0 422.0 76.0 424.0 89.0L346.0 97.0V0.0H195.0V62.0C218.0 65.0 227.0 75.0 229.0 89.0L151.0 97.0V0.0H0.0ZM87.0 -398.0V-428.0H535.0C549.0 -428.0 558.0 -423.0 561.0 -412.0C531.0 -386.0 487.0 -355.0 487.0 -355.0L448.0 -398.0H87.0ZM85.0 -732.0V-761.0H547.0C561.0 -761.0 569.0 -757.0 572.0 -746.0C543.0 -720.0 499.0 -689.0 499.0 -689.0L460.0 -732.0H85.0ZM82.0 -506.0V-536.0H511.0C525.0 -536.0 534.0 -531.0 537.0 -520.0C509.0 -496.0 467.0 -465.0 467.0 -465.0L430.0 -506.0H82.0ZM83.0 -618.0V-647.0H504.0C517.0 -647.0 526.0 -642.0 529.0 -631.0C501.0 -607.0 458.0 -576.0 458.0 -576.0L422.0 -618.0H83.0ZM265.0 -398.0V-733.0H309.0V-398.0H265.0ZM110.0 -398.0H122.0L95.0 -385.0L68.0 -431.0V-808.0H74.0C95.0 -808.0 110.0 -797.0 110.0 -794.0V-398.0ZM118.0 -289.0C94.0 -367.0 38.0 -477.0 -28.0 -547.0L-16.0 -560.0C62.0 -497.0 124.0 -400.0 157.0 -330.0C179.0 -333.0 187.0 -329.0 193.0 -318.0L118.0 -289.0ZM290.0 -299.0C280.0 -332.0 262.0 -385.0 251.0 -414.0H273.0C290.0 -391.0 312.0 -361.0 327.0 -338.0C348.0 -339.0 361.0 -331.0 365.0 -318.0L290.0 -299.0ZM40.0 -243.0V-273.0H207.0V-243.0H40.0ZM319.0 -243.0V-273.0H487.0V-243.0H319.0ZM192.0 -117.0V-300.0H198.0C213.0 -300.0 235.0 -289.0 236.0 -283.0V-151.0C251.0 -148.0 265.0 -141.0 270.0 -135.0L211.0 -90.0L184.0 -117.0H192.0ZM29.0 -117.0V-309.0H36.0C53.0 -309.0 72.0 -300.0 72.0 -296.0V-147.0H217.0V-117.0H77.0L29.0 -94.0V-117.0ZM468.0 -117.0V-304.0H474.0C489.0 -304.0 510.0 -293.0 511.0 -287.0V-151.0C527.0 -148.0 541.0 -141.0 546.0 -135.0L487.0 -90.0L460.0 -117.0H468.0ZM299.0 -117.0V-309.0H306.0C323.0 -309.0 342.0 -300.0 342.0 -296.0V-147.0H487.0V-117.0H347.0L299.0 -94.0V-117.0Z"/></g>
<g fill="black" opacity=".8" transform="translate(500 200) scale(0.1 -0.1)"><path d="M0.0 0.0 7.0 -30.0H152.0V-94.0H159.0C176.0 -94.0 197.0 -86.0 197.0 -80.0V-30.0H342.0V-92.0H351.0C374.0 -91.0 386.0 -81.0 386.0 -77.0V-30.0H541.0C555.0 -30.0 564.0 -24.0 567.0 -14.0C541.0 11.0 498.0 45.0 498.0 45.0L460.0 0.0H386.0V63.0C409.0 66.0 419.0 77.0 421.0 91.0L342.0 99.0V0.0H197.0V63.0C220.0 66.0 229.0 77.0 230.0 91.0L152.0 99.0V0.0H0.0ZM88.0 -400.0V-430.0H530.0C544.0 -430.0 553.0 -424.0 556.0 -414.0C526.0 -388.0 482.0 -357.0 482.0 -357.0L443.0 -400.0H88.0ZM86.0 -737.0V-767.0H543.0C557.0 -767.0 566.0 -763.0 569.0 -752.0C538.0 -726.0 495.0 -695.0 495.0 -695.0L455.0 -737.0H86.0ZM82.0 -508.0V-540.0H512.0C526.0 -540.0 535.0 -534.0 537.0 -523.0C509.0 -499.0 467.0 -468.0 467.0 -468.0L429.0 -508.0H82.0ZM83.0 -623.0V-652.0H505.0C518.0 -652.0 527.0 -647.0 530.0 -637.0C502.0 -612.0 458.0 -582.0 458.0 -582.0L422.0 -623.0H83.0ZM262.0 -400.0V-742.0H307.0V-400.0H262.0ZM109.0 -400.0H120.0L93.0 -387.0L66.0 -433.0V-813.0H72.0C93.0 -813.0 109.0 -802.0 109.0 -800.0V-400.0ZM119.0 -290.0C95.0 -367.0 38.0 -475.0 -28.0 -544.0L-16.0 -557.0C63.0 -495.0 124.0 -399.0 158.0 -330.0C181.0 -334.0 188.0 -330.0 194.0 -319.0L119.0 -290.0ZM288.0 -301.0C279.0 -333.0 260.0 -384.0 249.0 -412.0H272.0C288.0 -390.0 310.0 -362.0 325.0 -340.0C345.0 -341.0 359.0 -333.0 363.0 -321.0L288.0 -301.0ZM40.0 -240.0V-270.0H209.0V-240.0H40.0ZM318.0 -240.0V-270.0H486.0V-240.0H318.0ZM191.0 -117.0V-301.0H197.0C213.0 -301.0 235.0 -290.0 236.0 -284.0V-150.0C252.0 -148.0 264.0 -141.0 271.0 -135.0L211.0 -89.0L184.0 -117.0H191.0ZM28.0 -117.0V-310.0H35.0C52.0 -310.0 71.0 -301.0 71.0 -297.0V-147.0H218.0V-117.0H77.0L28.0 -93.0V-117.0ZM467.0 -117.0V-305.0H473.0C488.0 -305.0 509.0 -294.0 510.0 -288.0V-150.0C526.0 -148.0 540.0 -141.0 545.0 -135.0L486.0 -89.0L458.0 -117.0H467.0ZM298.0 -117.0V-311.0H305.0C322.0 -311.0 342.0 -303.0 342.0 -299.0V-147.0H487.0V-117.0H346.0L298.0 -93.0V-117.0Z"/></g>
<g fill="red" transform="translate(600 200) scale(0.1 -0.1)"><path d="M0.0 0.0 7.0 -28.0H108.0V-96.0H132.0C206.0 -96.0 228.0 -78.0 228.0 -72.0V-28.0H312.0V-93.0H335.0C410.0 -93.0 433.0 -76.0 433.0 -69.0V-28.0H553.0C567.0 -28.0 576.0 -23.0 579.0 -12.0C547.0 20.0 493.0 62.0 493.0 62.0L449.0 0.0H433.0V60.0C455.0 64.0 462.0 74.0 463.0 85.0L312.0 98.0V0.0H228.0V60.0C249.0 64.0 255.0 74.0 257.0 86.0L108.0 98.0V0.0H0.0ZM121.0 -416.0V-444.0H553.0C567.0 -444.0 578.0 -439.0 580.0 -428.0C542.0 -394.0 478.0 -346.0 478.0 -346.0L423.0 -416.0H121.0ZM121.0 -766.0V-794.0H568.0C582.0 -794.0 593.0 -789.0 595.0 -778.0C555.0 -740.0 487.0 -686.0 487.0 -686.0L427.0 -766.0H121.0ZM117.0 -531.0V-559.0H538.0C552.0 -559.0 562.0 -554.0 565.0 -543.0C527.0 -508.0 464.0 -458.0 464.0 -458.0L409.0 -531.0H117.0ZM117.0 -648.0V-676.0H533.0C547.0 -676.0 557.0 -671.0 560.0 -660.0C522.0 -625.0 460.0 -575.0 460.0 -575.0L404.0 -648.0H117.0ZM258.0 -416.0V-774.0H378.0V-416.0H258.0ZM177.0 -416.0H190.0L124.0 -391.0L62.0 -476.0V-853.0H83.0C142.0 -853.0 177.0 -831.0 177.0 -824.0V-416.0ZM93.0 -291.0C79.0 -370.0 40.0 -488.0 -12.0 -565.0L-4.0 -575.0C87.0 -526.0 160.0 -448.0 206.0 -379.0C230.0 -381.0 239.0 -374.0 244.0 -364.0L93.0 -291.0ZM290.0 -315.0C282.0 -351.0 267.0 -406.0 258.0 -436.0H288.0C317.0 -417.0 361.0 -388.0 390.0 -368.0C411.0 -368.0 425.0 -361.0 429.0 -345.0L290.0 -315.0ZM70.0 -268.0V-296.0H206.0V-268.0H70.0ZM347.0 -268.0V-296.0H488.0V-268.0H347.0ZM159.0 -137.0V-327.0H177.0C209.0 -327.0 261.0 -309.0 262.0 -302.0V-178.0C278.0 -174.0 290.0 -167.0 295.0 -161.0L197.0 -88.0L150.0 -137.0H159.0ZM27.0 -137.0V-340.0H41.0C81.0 -340.0 125.0 -319.0 125.0 -311.0V-165.0H211.0V-137.0H128.0L27.0 -97.0V-137.0ZM433.0 -137.0V-327.0H452.0C487.0 -327.0 542.0 -308.0 543.0 -301.0V-178.0C559.0 -175.0 570.0 -168.0 575.0 -162.0L473.0 -86.0L424.0 -137.0H433.0ZM294.0 -137.0V-336.0H308.0C351.0 -336.0 397.0 -314.0 397.0 -306.0V-165.0H480.0V-137.0H401.0L294.0 -95.0V-137.0Z"/></g>
<g fill="black" opacity=".8" transform="translate(600 200) scale(0.1 -0.1)"><path d="M0.0 0.0 7.0 -28.0H111.0V-97.0H135.0C209.0 -97.0 231.0 -80.0 231.0 -73.0V-28.0H312.0V-94.0H336.0C411.0 -94.0 434.0 -78.0 434.0 -70.0V-28.0H556.0C570.0 -28.0 580.0 -23.0 582.0 -12.0C550.0 20.0 495.0 62.0 495.0 62.0L450.0 0.0H434.0V60.0C456.0 65.0 463.0 75.0 464.0 87.0L312.0 100.0V0.0H231.0V60.0C252.0 65.0 259.0 75.0 260.0 87.0L111.0 100.0V0.0H0.0ZM127.0 -413.0V-441.0H551.0C565.0 -441.0 576.0 -436.0 578.0 -425.0C540.0 -390.0 476.0 -341.0 476.0 -341.0L421.0 -413.0H127.0ZM128.0 -768.0V-796.0H567.0C580.0 -796.0 592.0 -790.0 594.0 -780.0C554.0 -742.0 487.0 -688.0 487.0 -688.0L428.0 -768.0H128.0ZM122.0 -530.0V-558.0H540.0C555.0 -558.0 564.0 -553.0 567.0 -542.0C529.0 -507.0 467.0 -458.0 467.0 -458.0L411.0 -530.0H122.0ZM122.0 -649.0V-677.0H534.0C548.0 -677.0 558.0 -671.0 561.0 -661.0C523.0 -626.0 462.0 -576.0 462.0 -576.0L406.0 -649.0H122.0ZM258.0 -413.0V-778.0H377.0V-413.0H258.0ZM175.0 -413.0H188.0L120.0 -387.0L61.0 -470.0V-857.0H81.0C140.0 -857.0 175.0 -833.0 175.0 -827.0V-413.0ZM89.0 -286.0C76.0 -364.0 37.0 -481.0 -15.0 -557.0L-6.0 -567.0C86.0 -520.0 163.0 -439.0 209.0 -370.0C232.0 -371.0 240.0 -364.0 245.0 -353.0L89.0 -286.0ZM284.0 -312.0C278.0 -346.0 266.0 -400.0 259.0 -429.0H288.0C317.0 -411.0 359.0 -384.0 387.0 -365.0C408.0 -364.0 423.0 -358.0 426.0 -341.0L284.0 -312.0ZM71.0 -260.0V-289.0H208.0V-260.0H71.0ZM349.0 -260.0V-289.0H491.0V-260.0H349.0ZM158.0 -134.0V-320.0H176.0C210.0 -320.0 262.0 -303.0 264.0 -296.0V-176.0C280.0 -173.0 292.0 -166.0 298.0 -159.0L197.0 -84.0L149.0 -134.0H158.0ZM25.0 -134.0V-333.0H38.0C78.0 -333.0 123.0 -312.0 123.0 -304.0V-163.0H208.0V-134.0H125.0L25.0 -95.0V-134.0ZM436.0 -134.0V-320.0H455.0C489.0 -320.0 545.0 -302.0 547.0 -295.0V-176.0C563.0 -173.0 573.0 -165.0 578.0 -160.0L476.0 -83.0L426.0 -134.0H436.0ZM297.0 -134.0V-330.0H310.0C353.0 -330.0 398.0 -308.0 398.0 -300.0V-163.0H482.0V-134.0H402.0L297.0 -93.0V-134.0Z"/></g>
<g fill="red" transform="translate(700 200) scale(0.1 -0.1)"><path d="M0.0 0.0 7.0 -30.0H133.0V-88.0H140.0C158.0 -88.0 178.0 -80.0 178.0 -74.0V-30.0H301.0V-87.0H309.0C332.0 -86.0 345.0 -75.0 345.0 -71.0V-30.0H480.0C494.0 -30.0 503.0 -25.0 506.0 -14.0C480.0 10.0 439.0 43.0 439.0 43.0L404.0 0.0H345.0V58.0C368.0 61.0 377.0 72.0 378.0 85.0L301.0 94.0V0.0H178.0V58.0C199.0 61.0 209.0 71.0 210.0 85.0L133.0 94.0V0.0H0.0ZM103.0 -381.0V-411.0H438.0C451.0 -411.0 459.0 -406.0 462.0 -395.0C439.0 -371.0 400.0 -341.0 400.0 -341.0L368.0 -381.0H103.0ZM103.0 -706.0V-736.0H463.0C477.0 -736.0 486.0 -731.0 489.0 -720.0C463.0 -694.0 422.0 -662.0 422.0 -662.0L386.0 -706.0H103.0ZM103.0 -487.0V-516.0H424.0C438.0 -516.0 446.0 -511.0 449.0 -500.0C427.0 -478.0 392.0 -450.0 392.0 -450.0L363.0 -487.0H103.0ZM103.0 -594.0V-624.0H425.0C439.0 -624.0 448.0 -619.0 450.0 -608.0C428.0 -585.0 393.0 -557.0 393.0 -557.0L363.0 -594.0H103.0ZM244.0 -381.0V-716.0H288.0V-381.0H244.0ZM128.0 -381.0H139.0L119.0 -371.0L83.0 -430.0V-801.0H90.0C112.0 -801.0 128.0 -788.0 128.0 -783.0V-381.0ZM119.0 -284.0C91.0 -382.0 45.0 -476.0 -3.0 -535.0L11.0 -546.0C69.0 -496.0 122.0 -415.0 157.0 -327.0C178.0 -328.0 189.0 -319.0 193.0 -308.0L119.0 -284.0ZM257.0 -294.0C251.0 -324.0 240.0 -368.0 232.0 -395.0H253.0C269.0 -375.0 286.0 -354.0 299.0 -335.0C320.0 -336.0 331.0 -327.0 335.0 -315.0L257.0 -294.0ZM67.0 -236.0V-266.0H196.0V-236.0H67.0ZM299.0 -236.0V-266.0H428.0V-236.0H299.0ZM172.0 -110.0V-294.0H178.0C193.0 -294.0 215.0 -282.0 216.0 -276.0V-146.0C233.0 -143.0 248.0 -136.0 253.0 -129.0L191.0 -82.0L163.0 -110.0H172.0ZM44.0 -110.0V-302.0H51.0C68.0 -302.0 88.0 -293.0 88.0 -289.0V-140.0H197.0V-110.0H92.0L44.0 -87.0V-110.0ZM409.0 -110.0V-289.0H415.0C430.0 -289.0 453.0 -277.0 454.0 -271.0V-147.0C470.0 -144.0 486.0 -136.0 492.0 -129.0L428.0 -81.0L400.0 -110.0H409.0ZM274.0 -110.0V-291.0H281.0C299.0 -291.0 319.0 -281.0 319.0 -276.0V-140.0H428.0V-110.0H323.0L274.0 -87.0V-110.0Z"/></g>
<g fill="black" opacity=".8" transform="translate(700 200) scale(0.1 -0.1)"><path d="M0.0 0.0 7.0 -30.0H133.0V-88.0H140.0C158.0 -88.0 179.0 -80.0 179.0 -74.0V-30.0H300.0V-87.0H308.0C332.0 -86.0 344.0 -75.0 344.0 -71.0V-30.0H480.0C493.0 -30.0 502.0 -24.0 506.0 -13.0C480.0 10.0 439.0 43.0 439.0 43.0L404.0 0.0H344.0V58.0C367.0 61.0 376.0 72.0 378.0 86.0L300.0 95.0V0.0H179.0V58.0C200.0 61.0 209.0 71.0 210.0 86.0L133.0 95.0V0.0H0.0ZM103.0 -382.0V-411.0H437.0C450.0 -411.0 458.0 -406.0 461.0 -395.0C438.0 -371.0 400.0 -341.0 400.0 -341.0L368.0 -382.0H103.0ZM103.0 -707.0V-737.0H462.0C477.0 -737.0 486.0 -732.0 489.0 -721.0C462.0 -695.0 422.0 -663.0 422.0 -663.0L385.0 -707.0H103.0ZM103.0 -487.0V-517.0H424.0C439.0 -517.0 447.0 -511.0 449.0 -500.0C427.0 -478.0 392.0 -450.0 392.0 -450.0L363.0 -487.0H103.0ZM102.0 -594.0V-624.0H425.0C439.0 -624.0 449.0 -620.0 450.0 -609.0C429.0 -587.0 393.0 -558.0 393.0 -558.0L363.0 -594.0H102.0ZM243.0 -382.0V-718.0H287.0V-382.0H243.0ZM128.0 -382.0H139.0L118.0 -371.0L82.0 -431.0V-802.0H90.0C112.0 -802.0 128.0 -788.0 128.0 -784.0V-382.0ZM119.0 -284.0C91.0 -383.0 45.0 -476.0 -3.0 -535.0L11.0 -545.0C69.0 -496.0 122.0 -415.0 157.0 -327.0C179.0 -328.0 189.0 -320.0 193.0 -308.0L119.0 -284.0ZM257.0 -295.0C251.0 -324.0 239.0 -368.0 232.0 -394.0H253.0C268.0 -375.0 286.0 -354.0 299.0 -335.0C319.0 -336.0 331.0 -327.0 335.0 -316.0L257.0 -295.0ZM67.0 -236.0V-265.0H197.0V-236.0H67.0ZM299.0 -236.0V-265.0H427.0V-236.0H299.0ZM172.0 -110.0V-294.0H178.0C193.0 -294.0 215.0 -282.0 216.0 -276.0V-146.0C234.0 -143.0 248.0 -136.0 254.0 -129.0L191.0 -82.0L163.0 -110.0H172.0ZM44.0 -110.0V-303.0H51.0C68.0 -303.0 88.0 -294.0 88.0 -290.0V-141.0H197.0V-110.0H92.0L44.0 -86.0V-110.0ZM409.0 -110.0V-289.0H415.0C430.0 -289.0 453.0 -277.0 454.0 -271.0V-147.0C470.0 -144.0 486.0 -136.0 492.0 -129.0L427.0 -81.0L399.0 -110.0H409.0ZM274.0 -110.0V-291.0H281.0C299.0 -291.0 319.0 -282.0 319.0 -277.0V-141.0H427.0V-110.0H323.0L274.0 -87.0V-110.0Z"/></g>
<g fill="red" transform="translate(800 200) scale(0.1 -0.1)"><path d="M0.0 0.0 7.0 -28.0H100.0V-88.0H124.0C198.0 -88.0 219.0 -70.0 219.0 -64.0V-28.0H299.0V-85.0H322.0C397.0 -85.0 419.0 -68.0 419.0 -61.0V-28.0H532.0C545.0 -28.0 555.0 -23.0 558.0 -12.0C526.0 19.0 476.0 59.0 476.0 59.0L433.0 0.0H419.0V53.0C440.0 57.0 447.0 68.0 448.0 79.0L299.0 91.0V0.0H219.0V53.0C239.0 58.0 245.0 67.0 247.0 79.0L100.0 91.0V0.0H0.0ZM124.0 -424.0V-452.0H483.0C497.0 -452.0 507.0 -447.0 510.0 -436.0C475.0 -403.0 416.0 -355.0 416.0 -355.0L365.0 -424.0H124.0ZM124.0 -750.0V-778.0H500.0C514.0 -778.0 524.0 -773.0 527.0 -762.0C489.0 -727.0 425.0 -676.0 425.0 -676.0L369.0 -750.0H124.0ZM127.0 -528.0V-556.0H464.0C478.0 -556.0 488.0 -551.0 490.0 -540.0C458.0 -507.0 402.0 -460.0 402.0 -460.0L354.0 -528.0H127.0ZM127.0 -636.0V-664.0H474.0C487.0 -664.0 497.0 -659.0 500.0 -648.0C468.0 -615.0 412.0 -567.0 412.0 -567.0L363.0 -636.0H127.0ZM235.0 -424.0V-769.0H345.0V-424.0H235.0ZM178.0 -424.0H191.0L132.0 -401.0L73.0 -482.0V-840.0H92.0C145.0 -840.0 178.0 -816.0 178.0 -808.0V-424.0ZM95.0 -308.0C73.0 -415.0 31.0 -522.0 -13.0 -591.0L-1.0 -599.0C79.0 -551.0 151.0 -476.0 203.0 -378.0C225.0 -379.0 238.0 -370.0 242.0 -358.0L95.0 -308.0ZM254.0 -313.0C252.0 -348.0 247.0 -401.0 243.0 -433.0H258.0C291.0 -412.0 331.0 -383.0 356.0 -362.0C378.0 -361.0 389.0 -352.0 392.0 -339.0L254.0 -313.0ZM79.0 -246.0V-274.0H191.0V-246.0H79.0ZM319.0 -246.0V-274.0H436.0V-246.0H319.0ZM154.0 -118.0V-308.0H170.0C199.0 -308.0 246.0 -290.0 246.0 -283.0V-154.0C260.0 -152.0 270.0 -145.0 274.0 -140.0L188.0 -76.0L146.0 -118.0H154.0ZM32.0 -118.0V-321.0H44.0C79.0 -321.0 117.0 -303.0 117.0 -296.0V-146.0H188.0V-118.0H121.0L32.0 -82.0V-118.0ZM403.0 -118.0V-308.0H419.0C449.0 -308.0 496.0 -290.0 497.0 -284.0V-156.0C512.0 -153.0 523.0 -147.0 528.0 -141.0L438.0 -73.0L395.0 -118.0H403.0ZM277.0 -118.0V-317.0H289.0C324.0 -317.0 362.0 -299.0 362.0 -292.0V-146.0H429.0V-118.0H366.0L277.0 -82.0V-118.0Z"/></g>
<g fill="black" opacity=".8" transform="translate(800 200) scale(0.1 -0.1)"><path d="M0.0 0.0 7.0 -28.0H101.0V-88.0H124.0C198.0 -88.0 220.0 -71.0 220.0 -65.0V-28.0H299.0V-85.0H322.0C397.0 -85.0 419.0 -68.0 419.0 -61.0V-28.0H533.0C545.0 -28.0 556.0 -22.0 558.0 -12.0C527.0 19.0 476.0 58.0 476.0 58.0L433.0 0.0H419.0V53.0C440.0 57.0 447.0 68.0 448.0 80.0L299.0 92.0V0.0H220.0V53.0C239.0 58.0 246.0 67.0 247.0 79.0L101.0 92.0V0.0H0.0ZM125.0 -423.0V-452.0H482.0C497.0 -452.0 507.0 -447.0 510.0 -436.0C475.0 -403.0 416.0 -354.0 416.0 -354.0L365.0 -423.0H125.0ZM126.0 -750.0V-778.0H500.0C513.0 -778.0 524.0 -773.0 527.0 -762.0C488.0 -728.0 425.0 -677.0 425.0 -677.0L370.0 -750.0H126.0ZM128.0 -528.0V-556.0H464.0C478.0 -556.0 488.0 -551.0 490.0 -540.0C458.0 -507.0 403.0 -461.0 403.0 -461.0L354.0 -528.0H128.0ZM128.0 -636.0V-664.0H474.0C487.0 -664.0 497.0 -658.0 500.0 -648.0C468.0 -615.0 413.0 -567.0 413.0 -567.0L364.0 -636.0H128.0ZM235.0 -423.0V-770.0H344.0V-423.0H235.0ZM178.0 -423.0H191.0L132.0 -400.0L73.0 -481.0V-841.0H91.0C145.0 -841.0 178.0 -816.0 178.0 -808.0V-423.0ZM95.0 -308.0C73.0 -415.0 30.0 -521.0 -14.0 -590.0L-2.0 -598.0C79.0 -550.0 151.0 -474.0 204.0 -377.0C225.0 -377.0 238.0 -368.0 242.0 -356.0L95.0 -308.0ZM253.0 -313.0C251.0 -347.0 247.0 -400.0 243.0 -433.0H258.0C292.0 -412.0 331.0 -383.0 355.0 -362.0C377.0 -361.0 389.0 -351.0 392.0 -338.0L253.0 -313.0ZM79.0 -245.0V-273.0H191.0V-245.0H79.0ZM319.0 -245.0V-273.0H436.0V-245.0H319.0ZM154.0 -117.0V-306.0H170.0C199.0 -306.0 245.0 -289.0 246.0 -282.0V-154.0C260.0 -152.0 270.0 -145.0 274.0 -139.0L188.0 -76.0L146.0 -117.0H154.0ZM31.0 -117.0V-320.0H44.0C78.0 -320.0 117.0 -302.0 117.0 -296.0V-146.0H187.0V-117.0H121.0L31.0 -82.0V-117.0ZM403.0 -117.0V-307.0H419.0C449.0 -307.0 496.0 -289.0 498.0 -283.0V-156.0C513.0 -153.0 523.0 -146.0 528.0 -141.0L439.0 -73.0L394.0 -117.0H403.0ZM277.0 -117.0V-316.0H289.0C324.0 -316.0 362.0 -298.0 362.0 -290.0V-146.0H429.0V-117.0H367.0L277.0 -82.0V-117.0Z"/></g>
</svg>
