<?xml version="1.0" encoding="UTF-8"?>
<svg width="1700" height="600" xmlns="http://www.w3.org/2000/svg">
<rect width="100%" height="100%" fill="white"/>
<g fill="green" transform="translate(100 100) scale(0.1 -0.1)"><path d="M-0.0 -0.0H11.0C-23.0 -86.0 -87.0 -241.0 -123.0 -315.0C-9.0 -406.0 43.0 -488.0 43.0 -572.0C43.0 -622.0 29.0 -645.0 3.0 -658.0C-8.0 -663.0 -15.0 -664.0 -27.0 -664.0C-56.0 -664.0 -118.0 -664.0 -152.0 -664.0V-683.0C-118.0 -684.0 -88.0 -689.0 -77.0 -694.0C-67.0 -700.0 -63.0 -710.0 -63.0 -723.0C49.0 -718.0 88.0 -676.0 88.0 -578.0C88.0 -490.0 36.0 -405.0 -99.0 -312.0C-57.0 -246.0 14.0 -110.0 48.0 -39.0C72.0 -39.0 86.0 -37.0 94.0 -30.0L35.0 33.0ZM-269.0 32.0V-807.0H-264.0C-240.0 -807.0 -225.0 -794.0 -225.0 -790.0V0.0H-213.0ZM32.0 0.0H-243.0V-30.0H32.0Z"/></g>
<g fill="green" transform="translate(200 100) scale(0.1 -0.1)"><path d="M0.0 0.0H12.0C9.0 -80.0 -8.0 -229.0 -22.0 -309.0C34.0 -371.0 55.0 -452.0 55.0 -525.0C55.0 -552.0 48.0 -566.0 35.0 -575.0C30.0 -579.0 25.0 -581.0 16.0 -581.0C2.0 -581.0 -32.0 -581.0 -51.0 -581.0V-591.0C-28.0 -598.0 -13.0 -609.0 -5.0 -623.0C5.0 -641.0 11.0 -702.0 11.0 -740.0C142.0 -739.0 188.0 -672.0 188.0 -567.0C188.0 -481.0 136.0 -370.0 3.0 -305.0C63.0 -237.0 122.0 -133.0 160.0 -68.0C184.0 -67.0 197.0 -63.0 205.0 -52.0L70.0 69.0ZM-207.0 69.0V-828.0H-182.0C-112.0 -828.0 -71.0 -796.0 -71.0 -787.0V0.0H-56.0ZM56.0 0.0H-128.0V-28.0H56.0Z"/></g>
<g fill="green" transform="translate(300 100) scale(0.1 -0.1)"><path d="M0.0 -0.0H8.0C-19.0 -66.0 -71.0 -186.0 -99.0 -242.0C-6.0 -313.0 38.0 -376.0 38.0 -441.0C38.0 -480.0 27.0 -498.0 5.0 -508.0C-3.0 -512.0 -9.0 -512.0 -18.0 -512.0C-42.0 -512.0 -93.0 -512.0 -121.0 -512.0V-527.0C-93.0 -527.0 -69.0 -531.0 -60.0 -535.0C-52.0 -539.0 -49.0 -546.0 -49.0 -555.0C39.0 -551.0 70.0 -519.0 70.0 -445.0C70.0 -377.0 28.0 -312.0 -81.0 -240.0C-49.0 -189.0 7.0 -84.0 34.0 -29.0C52.0 -29.0 63.0 -27.0 69.0 -22.0L26.0 24.0ZM-216.0 25.0V-596.0H-213.0C-194.0 -596.0 -183.0 -586.0 -183.0 -583.0V0.0H-174.0ZM22.0 0.0H-196.0V-22.0H22.0Z"/></g>
<g fill="green" transform="translate(400 100) scale(0.1 -0.1)"><path d="M0.0 0.0H9.0C7.0 -61.0 -5.0 -174.0 -15.0 -235.0C30.0 -281.0 47.0 -343.0 47.0 -399.0C47.0 -419.0 41.0 -429.0 31.0 -436.0C28.0 -439.0 24.0 -440.0 17.0 -440.0C6.0 -440.0 -21.0 -440.0 -36.0 -440.0V-448.0C-19.0 -453.0 -7.0 -462.0 -1.0 -472.0C7.0 -486.0 12.0 -533.0 12.0 -562.0C112.0 -561.0 148.0 -511.0 148.0 -431.0C148.0 -366.0 108.0 -281.0 4.0 -232.0C50.0 -180.0 94.0 -101.0 122.0 -52.0C140.0 -51.0 150.0 -48.0 156.0 -39.0L53.0 53.0ZM-161.0 55.0V-611.0H-142.0C-88.0 -611.0 -57.0 -587.0 -57.0 -580.0V0.0H-46.0ZM35.0 0.0H-98.0V-21.0H35.0Z"/></g>
<g fill="green" transform="translate(500 100) scale(0.1 -0.1)"><path d="M-0.0 0.0H11.0C-10.0 -80.0 -50.0 -231.0 -75.0 -304.0C-6.0 -386.0 23.0 -464.0 23.0 -545.0C23.0 -592.0 15.0 -613.0 -2.0 -625.0C-10.0 -630.0 -15.0 -631.0 -25.0 -631.0C-42.0 -631.0 -80.0 -631.0 -100.0 -631.0V-649.0C-79.0 -651.0 -60.0 -656.0 -52.0 -661.0C-44.0 -667.0 -41.0 -680.0 -41.0 -696.0C47.0 -692.0 75.0 -656.0 75.0 -553.0C75.0 -467.0 40.0 -387.0 -50.0 -300.0C-18.0 -237.0 35.0 -106.0 59.0 -41.0C82.0 -41.0 95.0 -39.0 103.0 -32.0L37.0 35.0ZM-167.0 27.0V-875.0H-160.0C-137.0 -875.0 -122.0 -860.0 -122.0 -856.0V0.0H-109.0ZM41.0 0.0H-142.0V-31.0H41.0Z"/></g>
<g fill="green" transform="translate(600 100) scale(0.1 -0.1)"><path d="M0.0 0.0H12.0C10.0 -80.0 -5.0 -231.0 -17.0 -310.0C23.0 -377.0 36.0 -460.0 36.0 -535.0C36.0 -567.0 30.0 -583.0 20.0 -592.0C15.0 -596.0 11.0 -598.0 3.0 -598.0C-8.0 -598.0 -32.0 -598.0 -46.0 -598.0V-610.0C-27.0 -616.0 -14.0 -625.0 -8.0 -637.0C0.0 -652.0 5.0 -703.0 5.0 -735.0C115.0 -733.0 150.0 -674.0 150.0 -568.0C150.0 -483.0 109.0 -378.0 8.0 -306.0C56.0 -238.0 105.0 -127.0 136.0 -62.0C160.0 -61.0 172.0 -58.0 181.0 -47.0L62.0 61.0ZM-155.0 50.0V-903.0H-133.0C-70.0 -903.0 -33.0 -872.0 -33.0 -864.0V0.0H-18.0ZM80.0 0.0H-103.0V-29.0H80.0Z"/></g>
<g fill="green" transform="translate(700 100) scale(0.1 -0.1)"><path d="M0.0 0.0H12.0C-26.0 -84.0 -96.0 -233.0 -138.0 -305.0C-21.0 -394.0 27.0 -474.0 27.0 -551.0C27.0 -596.0 12.0 -620.0 -14.0 -632.0C-26.0 -638.0 -34.0 -638.0 -49.0 -638.0C-76.0 -638.0 -135.0 -638.0 -171.0 -638.0V-657.0C-137.0 -659.0 -106.0 -664.0 -95.0 -670.0C-85.0 -676.0 -81.0 -688.0 -81.0 -704.0C36.0 -699.0 78.0 -653.0 78.0 -558.0C78.0 -478.0 29.0 -391.0 -112.0 -302.0C-63.0 -240.0 15.0 -111.0 54.0 -43.0C80.0 -43.0 95.0 -41.0 103.0 -33.0L38.0 35.0ZM-297.0 33.0V-852.0H-291.0C-266.0 -852.0 -250.0 -838.0 -250.0 -834.0V0.0H-238.0ZM39.0 0.0H-274.0V-31.0H39.0Z"/></g>
<g fill="green" transform="translate(800 100) scale(0.1 -0.1)"><path d="M0.0 0.0H13.0C6.0 -82.0 -21.0 -226.0 -42.0 -305.0C18.0 -365.0 41.0 -443.0 41.0 -512.0C41.0 -536.0 33.0 -550.0 18.0 -558.0C12.0 -562.0 6.0 -564.0 -5.0 -564.0C-19.0 -564.0 -54.0 -564.0 -74.0 -564.0V-574.0C-48.0 -581.0 -31.0 -594.0 -22.0 -609.0C-12.0 -630.0 -5.0 -695.0 -5.0 -740.0C141.0 -740.0 190.0 -664.0 190.0 -562.0C190.0 -473.0 129.0 -360.0 -15.0 -302.0C56.0 -237.0 134.0 -139.0 180.0 -75.0C206.0 -75.0 221.0 -70.0 229.0 -60.0L80.0 77.0ZM-240.0 72.0V-869.0H-212.0C-135.0 -869.0 -90.0 -834.0 -90.0 -823.0V0.0H-75.0ZM86.0 0.0H-149.0V-29.0H86.0Z"/></g>
<g fill="red" transform="translate(100 200) scale(0.1 -0.1)"><path d="M0.0 0.0H11.0C-10.0 -76.0 -51.0 -218.0 -76.0 -287.0C-5.0 -365.0 25.0 -438.0 25.0 -515.0C25.0 -559.0 16.0 -580.0 0.0 -591.0C-7.0 -595.0 -13.0 -597.0 -23.0 -597.0C-40.0 -597.0 -80.0 -597.0 -100.0 -597.0V-614.0C-79.0 -616.0 -59.0 -620.0 -51.0 -625.0C-43.0 -631.0 -40.0 -642.0 -40.0 -657.0C45.0 -652.0 74.0 -618.0 73.0 -521.0C73.0 -441.0 38.0 -366.0 -52.0 -283.0C-21.0 -223.0 30.0 -101.0 54.0 -39.0C76.0 -39.0 89.0 -37.0 97.0 -30.0L35.0 34.0ZM-170.0 26.0V-818.0H-164.0C-142.0 -818.0 -127.0 -804.0 -127.0 -800.0V0.0H-115.0ZM27.0 0.0H-149.0V-30.0H27.0Z"/></g>
<g fill="black" opacity=".8" transform="translate(100 200) scale(0.1 -0.1)"><path d="M0.0 0.0H10.0C-11.0 -76.0 -51.0 -220.0 -75.0 -289.0C-6.0 -367.0 24.0 -441.0 24.0 -518.0C24.0 -563.0 16.0 -583.0 -1.0 -594.0C-9.0 -599.0 -14.0 -600.0 -23.0 -600.0C-41.0 -600.0 -79.0 -600.0 -99.0 -600.0V-617.0C-78.0 -619.0 -59.0 -624.0 -51.0 -628.0C-43.0 -634.0 -40.0 -646.0 -40.0 -661.0C45.0 -657.0 72.0 -623.0 72.0 -526.0C72.0 -444.0 38.0 -368.0 -51.0 -285.0C-21.0 -225.0 31.0 -101.0 55.0 -39.0C76.0 -39.0 89.0 -37.0 96.0 -30.0L35.0 33.0ZM-166.0 26.0V-821.0H-160.0C-138.0 -821.0 -124.0 -806.0 -124.0 -803.0V0.0H-112.0ZM38.0 0.0H-143.0V-29.0H38.0Z"/></g>
<g fill="red" transform="translate(200 200) scale(0.1 -0.1)"><path d="M0.0 0.0H11.0C10.0 -74.0 -1.0 -218.0 -11.0 -293.0C26.0 -357.0 38.0 -435.0 38.0 -507.0C38.0 -538.0 33.0 -554.0 25.0 -563.0C21.0 -566.0 16.0 -568.0 9.0 -568.0C-1.0 -568.0 -25.0 -568.0 -37.0 -568.0V-580.0C-19.0 -585.0 -8.0 -594.0 -2.0 -605.0C6.0 -619.0 10.0 -666.0 10.0 -695.0C112.0 -693.0 146.0 -640.0 146.0 -538.0C146.0 -457.0 108.0 -359.0 13.0 -290.0C56.0 -225.0 100.0 -120.0 127.0 -58.0C150.0 -57.0 162.0 -54.0 169.0 -44.0L58.0 58.0ZM-148.0 49.0V-851.0H-127.0C-68.0 -851.0 -33.0 -823.0 -33.0 -814.0V0.0H-19.0ZM76.0 0.0H-103.0V-28.0H76.0Z"/></g>
<g fill="black" opacity=".8" transform="translate(200 200) scale(0.1 -0.1)"><path d="M0.0 0.0H11.0C9.0 -76.0 -5.0 -218.0 -16.0 -293.0C23.0 -356.0 36.0 -434.0 36.0 -505.0C36.0 -535.0 30.0 -550.0 21.0 -559.0C16.0 -562.0 12.0 -564.0 4.0 -564.0C-6.0 -564.0 -30.0 -564.0 -43.0 -564.0V-576.0C-25.0 -581.0 -13.0 -590.0 -7.0 -601.0C1.0 -616.0 6.0 -665.0 6.0 -695.0C111.0 -694.0 145.0 -637.0 145.0 -537.0C145.0 -457.0 106.0 -357.0 7.0 -289.0C54.0 -225.0 101.0 -121.0 130.0 -59.0C153.0 -58.0 164.0 -55.0 173.0 -45.0L59.0 58.0ZM-151.0 49.0V-846.0H-130.0C-69.0 -846.0 -34.0 -817.0 -34.0 -809.0V0.0H-20.0ZM73.0 0.0H-99.0V-27.0H73.0Z"/></g>
<g fill="red" transform="translate(300 200) scale(0.1 -0.1)"><path d="M0.0 0.0H12.0C-15.0 -64.0 -68.0 -178.0 -101.0 -235.0C-9.0 -300.0 33.0 -358.0 33.0 -419.0C33.0 -451.0 23.0 -468.0 5.0 -477.0C-5.0 -482.0 -14.0 -484.0 -27.0 -484.0C-49.0 -484.0 -98.0 -484.0 -127.0 -484.0V-500.0C-98.0 -502.0 -74.0 -506.0 -64.0 -512.0C-55.0 -518.0 -51.0 -530.0 -51.0 -546.0C47.0 -540.0 84.0 -504.0 84.0 -427.0C83.0 -360.0 38.0 -298.0 -75.0 -233.0C-36.0 -185.0 22.0 -92.0 53.0 -41.0C77.0 -41.0 91.0 -39.0 99.0 -32.0L37.0 34.0ZM-195.0 27.0V-665.0H-189.0C-166.0 -665.0 -151.0 -651.0 -151.0 -647.0V0.0H-139.0ZM50.0 0.0H-174.0V-30.0H50.0Z"/></g>
<g fill="black" opacity=".8" transform="translate(300 200) scale(0.1 -0.1)"><path d="M0.0 0.0H9.0C-16.0 -62.0 -63.0 -177.0 -91.0 -231.0C-13.0 -298.0 20.0 -358.0 20.0 -417.0C20.0 -452.0 11.0 -470.0 -8.0 -479.0C-15.0 -483.0 -21.0 -483.0 -32.0 -483.0C-50.0 -483.0 -90.0 -483.0 -114.0 -483.0V-497.0C-91.0 -498.0 -70.0 -502.0 -62.0 -507.0C-55.0 -511.0 -52.0 -520.0 -52.0 -532.0C30.0 -529.0 59.0 -497.0 59.0 -423.0C59.0 -361.0 25.0 -296.0 -71.0 -229.0C-38.0 -182.0 16.0 -83.0 42.0 -32.0C61.0 -32.0 72.0 -30.0 78.0 -25.0L29.0 26.0ZM-196.0 24.0V-651.0H-192.0C-172.0 -651.0 -161.0 -639.0 -161.0 -636.0V0.0H-151.0ZM30.0 0.0H-178.0V-23.0H30.0Z"/></g>
<g fill="red" transform="translate(400 200) scale(0.1 -0.1)"><path d="M0.0 0.0H12.0C10.0 -59.0 -4.0 -166.0 -16.0 -227.0C18.0 -274.0 31.0 -328.0 31.0 -383.0C31.0 -402.0 27.0 -413.0 19.0 -418.0C15.0 -422.0 11.0 -423.0 3.0 -423.0C-6.0 -423.0 -26.0 -423.0 -38.0 -423.0V-434.0C-20.0 -439.0 -10.0 -449.0 -4.0 -461.0C4.0 -477.0 8.0 -528.0 8.0 -558.0C117.0 -557.0 153.0 -504.0 153.0 -421.0C153.0 -353.0 111.0 -271.0 9.0 -225.0C58.0 -179.0 107.0 -109.0 139.0 -63.0C163.0 -63.0 176.0 -59.0 183.0 -50.0L66.0 63.0ZM-162.0 50.0V-662.0H-140.0C-80.0 -662.0 -43.0 -634.0 -43.0 -626.0V0.0H-30.0ZM99.0 0.0H-75.0V-28.0H99.0Z"/></g>
<g fill="black" opacity=".8" transform="translate(400 200) scale(0.1 -0.1)"><path d="M0.0 0.0H10.0C5.0 -62.0 -12.0 -173.0 -26.0 -233.0C15.0 -279.0 31.0 -340.0 31.0 -394.0C31.0 -414.0 24.0 -425.0 14.0 -431.0C11.0 -434.0 6.0 -435.0 -2.0 -435.0C-11.0 -435.0 -35.0 -435.0 -49.0 -435.0V-444.0C-32.0 -449.0 -19.0 -458.0 -13.0 -468.0C-6.0 -483.0 -1.0 -529.0 -1.0 -560.0C101.0 -559.0 135.0 -507.0 135.0 -428.0C135.0 -362.0 93.0 -277.0 -6.0 -230.0C43.0 -180.0 95.0 -103.0 126.0 -54.0C145.0 -54.0 156.0 -51.0 163.0 -42.0L57.0 55.0ZM-163.0 50.0V-666.0H-143.0C-87.0 -666.0 -55.0 -640.0 -55.0 -632.0V0.0H-44.0ZM64.0 0.0H-102.0V-22.0H64.0Z"/></g>
<g fill="red" transform="translate(500 200) scale(0.1 -0.1)"><path d="M0.0 0.0H11.0C-24.0 -84.0 -92.0 -233.0 -133.0 -304.0C-20.0 -393.0 26.0 -473.0 26.0 -550.0C26.0 -596.0 11.0 -620.0 -15.0 -632.0C-25.0 -637.0 -32.0 -638.0 -46.0 -638.0C-73.0 -638.0 -131.0 -638.0 -164.0 -638.0V-656.0C-132.0 -658.0 -102.0 -662.0 -91.0 -668.0C-82.0 -674.0 -78.0 -684.0 -78.0 -700.0C33.0 -694.0 74.0 -649.0 74.0 -557.0C73.0 -477.0 27.0 -391.0 -107.0 -301.0C-62.0 -238.0 13.0 -109.0 50.0 -41.0C74.0 -40.0 90.0 -38.0 98.0 -32.0L36.0 34.0ZM-285.0 32.0V-826.0H-279.0C-256.0 -826.0 -241.0 -813.0 -241.0 -808.0V0.0H-229.0ZM37.0 0.0H-266.0V-30.0H37.0Z"/></g>
<g fill="black" opacity=".8" transform="translate(500 200) scale(0.1 -0.1)"><path d="M0.0 0.0H12.0C-25.0 -84.0 -93.0 -233.0 -133.0 -305.0C-18.0 -394.0 31.0 -473.0 31.0 -551.0C31.0 -597.0 16.0 -621.0 -10.0 -633.0C-21.0 -639.0 -29.0 -639.0 -43.0 -639.0C-70.0 -639.0 -130.0 -639.0 -165.0 -639.0V-658.0C-131.0 -659.0 -101.0 -664.0 -90.0 -670.0C-80.0 -676.0 -76.0 -687.0 -76.0 -703.0C39.0 -698.0 80.0 -653.0 80.0 -558.0C80.0 -477.0 30.0 -391.0 -108.0 -302.0C-61.0 -239.0 14.0 -110.0 52.0 -42.0C77.0 -42.0 92.0 -40.0 100.0 -32.0L37.0 34.0ZM-288.0 32.0V-833.0H-282.0C-258.0 -833.0 -242.0 -819.0 -242.0 -815.0V0.0H-230.0ZM37.0 0.0H-264.0V-30.0H37.0Z"/></g>
<g fill="red" transform="translate(600 200) scale(0.1 -0.1)"><path d="M0.0 0.0H13.0C5.0 -81.0 -21.0 -226.0 -42.0 -304.0C20.0 -367.0 45.0 -445.0 45.0 -515.0C45.0 -542.0 37.0 -557.0 22.0 -565.0C15.0 -569.0 9.0 -571.0 -1.0 -571.0C-15.0 -571.0 -52.0 -571.0 -73.0 -571.0V-581.0C-47.0 -588.0 -30.0 -600.0 -22.0 -614.0C-11.0 -633.0 -5.0 -692.0 -5.0 -733.0C133.0 -733.0 181.0 -663.0 181.0 -561.0C181.0 -472.0 122.0 -362.0 -16.0 -302.0C50.0 -236.0 123.0 -134.0 165.0 -70.0C190.0 -69.0 204.0 -65.0 212.0 -54.0L73.0 71.0ZM-236.0 70.0V-847.0H-210.0C-139.0 -847.0 -96.0 -813.0 -96.0 -803.0V0.0H-82.0ZM82.0 0.0H-154.0V-28.0H82.0Z"/></g>
<g fill="black" opacity=".8" transform="translate(600 200) scale(0.1 -0.1)"><path d="M0.0 0.0H13.0C7.0 -81.0 -18.0 -225.0 -37.0 -303.0C22.0 -363.0 44.0 -441.0 44.0 -511.0C44.0 -535.0 37.0 -549.0 22.0 -557.0C16.0 -561.0 11.0 -563.0 0.0 -563.0C-14.0 -563.0 -48.0 -563.0 -68.0 -563.0V-573.0C-43.0 -580.0 -26.0 -592.0 -18.0 -607.0C-8.0 -627.0 -1.0 -690.0 -1.0 -733.0C140.0 -733.0 188.0 -660.0 188.0 -558.0C188.0 -471.0 130.0 -359.0 -10.0 -300.0C57.0 -235.0 130.0 -136.0 174.0 -73.0C199.0 -72.0 213.0 -68.0 221.0 -58.0L77.0 74.0ZM-230.0 71.0V-851.0H-203.0C-128.0 -851.0 -85.0 -817.0 -85.0 -806.0V0.0H-70.0ZM78.0 0.0H-143.0V-28.0H78.0Z"/></g>
<g fill="red" transform="translate(700 200) scale(0.1 -0.1)"><path d="M0.0 0.0H11.0C-22.0 -84.0 -88.0 -234.0 -125.0 -307.0C-12.0 -395.0 37.0 -473.0 37.0 -555.0C37.0 -601.0 23.0 -624.0 -3.0 -636.0C-13.0 -641.0 -21.0 -642.0 -34.0 -642.0C-61.0 -642.0 -121.0 -642.0 -156.0 -642.0V-660.0C-122.0 -662.0 -91.0 -667.0 -81.0 -673.0C-71.0 -679.0 -67.0 -691.0 -67.0 -706.0C46.0 -700.0 87.0 -657.0 86.0 -562.0C86.0 -477.0 35.0 -393.0 -100.0 -304.0C-56.0 -240.0 17.0 -109.0 53.0 -41.0C77.0 -41.0 92.0 -38.0 100.0 -32.0L36.0 35.0ZM-255.0 27.0V-838.0H-249.0C-226.0 -838.0 -211.0 -826.0 -211.0 -821.0V0.0H-199.0ZM42.0 0.0H-233.0V-30.0H42.0Z"/></g>
<g fill="black" opacity=".8" transform="translate(700 200) scale(0.1 -0.1)"><path d="M0.0 0.0H11.0C-22.0 -83.0 -83.0 -232.0 -119.0 -304.0C-14.0 -391.0 30.0 -471.0 30.0 -550.0C30.0 -596.0 17.0 -619.0 -7.0 -631.0C-18.0 -636.0 -25.0 -637.0 -38.0 -637.0C-63.0 -637.0 -117.0 -637.0 -149.0 -637.0V-655.0C-118.0 -657.0 -90.0 -662.0 -80.0 -667.0C-71.0 -673.0 -67.0 -685.0 -67.0 -700.0C41.0 -695.0 79.0 -653.0 79.0 -556.0C79.0 -474.0 33.0 -390.0 -94.0 -301.0C-51.0 -238.0 19.0 -109.0 53.0 -41.0C78.0 -41.0 92.0 -39.0 100.0 -32.0L37.0 34.0ZM-259.0 31.0V-836.0H-253.0C-229.0 -836.0 -213.0 -823.0 -213.0 -819.0V0.0H-201.0ZM37.0 0.0H-235.0V-30.0H37.0Z"/></g>
<g fill="red" transform="translate(800 200) scale(0.1 -0.1)"><path d="M0.0 0.0H13.0C5.0 -80.0 -21.0 -224.0 -42.0 -301.0C16.0 -363.0 38.0 -441.0 38.0 -510.0C38.0 -538.0 30.0 -553.0 16.0 -561.0C10.0 -565.0 4.0 -567.0 -6.0 -567.0C-18.0 -567.0 -53.0 -567.0 -73.0 -567.0V-578.0C-48.0 -584.0 -32.0 -595.0 -24.0 -609.0C-13.0 -627.0 -8.0 -682.0 -8.0 -723.0C124.0 -722.0 169.0 -654.0 169.0 -553.0C169.0 -466.0 113.0 -359.0 -16.0 -298.0C47.0 -233.0 118.0 -131.0 159.0 -68.0C183.0 -67.0 197.0 -63.0 205.0 -53.0L71.0 68.0ZM-209.0 56.0V-855.0H-183.0C-111.0 -855.0 -69.0 -822.0 -69.0 -812.0V0.0H-55.0ZM77.0 0.0H-136.0V-28.0H77.0Z"/></g>
<g fill="black" opacity=".8" transform="translate(800 200) scale(0.1 -0.1)"><path d="M0.0 0.0H12.0C8.0 -80.0 -14.0 -226.0 -31.0 -304.0C23.0 -365.0 43.0 -444.0 43.0 -515.0C43.0 -541.0 36.0 -556.0 23.0 -564.0C17.0 -568.0 12.0 -570.0 2.0 -570.0C-11.0 -570.0 -43.0 -570.0 -61.0 -570.0V-580.0C-38.0 -587.0 -22.0 -598.0 -14.0 -612.0C-5.0 -631.0 1.0 -691.0 1.0 -731.0C134.0 -731.0 179.0 -661.0 179.0 -559.0C179.0 -472.0 125.0 -363.0 -5.0 -301.0C57.0 -235.0 123.0 -133.0 163.0 -70.0C188.0 -69.0 202.0 -65.0 210.0 -54.0L73.0 71.0ZM-211.0 66.0V-857.0H-185.0C-114.0 -857.0 -72.0 -824.0 -72.0 -814.0V0.0H-57.0ZM76.0 0.0H-132.0V-28.0H76.0Z"/></g>
<g fill="red" transform="translate(900 200) scale(0.1 -0.1)"><path d="M0.0 0.0H11.0C-20.0 -84.0 -79.0 -234.0 -113.0 -307.0C-15.0 -395.0 24.0 -475.0 24.0 -555.0C24.0 -602.0 12.0 -626.0 -11.0 -637.0C-21.0 -642.0 -27.0 -643.0 -39.0 -643.0C-62.0 -643.0 -114.0 -643.0 -144.0 -643.0V-661.0C-114.0 -663.0 -89.0 -667.0 -79.0 -673.0C-70.0 -679.0 -65.0 -690.0 -65.0 -705.0C37.0 -700.0 73.0 -658.0 72.0 -561.0C72.0 -479.0 30.0 -394.0 -89.0 -304.0C-48.0 -240.0 19.0 -108.0 52.0 -40.0C75.0 -40.0 90.0 -38.0 98.0 -31.0L36.0 34.0ZM-265.0 32.0V-834.0H-259.0C-236.0 -834.0 -221.0 -821.0 -221.0 -817.0V0.0H-209.0ZM27.0 0.0H-234.0V-30.0H27.0Z"/></g>
<g fill="black" opacity=".8" transform="translate(900 200) scale(0.1 -0.1)"><path d="M0.0 0.0H11.0C-22.0 -84.0 -84.0 -235.0 -121.0 -308.0C-14.0 -396.0 31.0 -477.0 31.0 -557.0C31.0 -604.0 18.0 -627.0 -6.0 -639.0C-17.0 -645.0 -24.0 -645.0 -37.0 -645.0C-63.0 -645.0 -119.0 -645.0 -151.0 -645.0V-664.0C-120.0 -666.0 -92.0 -671.0 -81.0 -676.0C-71.0 -682.0 -68.0 -694.0 -68.0 -709.0C42.0 -704.0 81.0 -661.0 81.0 -564.0C81.0 -480.0 33.0 -395.0 -96.0 -305.0C-53.0 -241.0 18.0 -110.0 53.0 -41.0C78.0 -41.0 92.0 -39.0 100.0 -32.0L37.0 34.0ZM-263.0 32.0V-842.0H-258.0C-233.0 -842.0 -218.0 -828.0 -218.0 -824.0V0.0H-206.0ZM37.0 0.0H-239.0V-31.0H37.0Z"/></g>
<g fill="red" transform="translate(1000 200) scale(0.1 -0.1)"><path d="M0.0 0.0H12.0C8.0 -81.0 -11.0 -230.0 -27.0 -309.0C24.0 -372.0 43.0 -454.0 43.0 -525.0C43.0 -552.0 35.0 -567.0 23.0 -575.0C16.0 -579.0 11.0 -580.0 2.0 -580.0C-10.0 -580.0 -41.0 -580.0 -59.0 -580.0V-591.0C-35.0 -598.0 -20.0 -609.0 -13.0 -623.0C-3.0 -642.0 3.0 -704.0 3.0 -744.0C134.0 -743.0 179.0 -673.0 179.0 -569.0C179.0 -482.0 125.0 -370.0 -1.0 -306.0C60.0 -238.0 125.0 -135.0 164.0 -69.0C189.0 -68.0 202.0 -64.0 210.0 -53.0L71.0 70.0ZM-224.0 70.0V-864.0H-198.0C-127.0 -864.0 -84.0 -831.0 -84.0 -820.0V0.0H-70.0ZM68.0 0.0H-135.0V-28.0H68.0Z"/></g>
<g fill="black" opacity=".8" transform="translate(1000 200) scale(0.1 -0.1)"><path d="M0.0 0.0H12.0C8.0 -81.0 -14.0 -228.0 -31.0 -307.0C24.0 -369.0 45.0 -449.0 45.0 -521.0C45.0 -547.0 37.0 -561.0 24.0 -570.0C18.0 -574.0 13.0 -576.0 3.0 -576.0C-10.0 -576.0 -43.0 -576.0 -61.0 -576.0V-586.0C-38.0 -593.0 -22.0 -605.0 -14.0 -619.0C-4.0 -638.0 2.0 -699.0 2.0 -739.0C136.0 -738.0 182.0 -668.0 182.0 -565.0C182.0 -477.0 128.0 -367.0 -5.0 -304.0C58.0 -237.0 125.0 -135.0 165.0 -70.0C190.0 -70.0 204.0 -65.0 212.0 -55.0L73.0 71.0ZM-213.0 67.0V-862.0H-187.0C-115.0 -862.0 -73.0 -829.0 -73.0 -819.0V0.0H-58.0ZM75.0 0.0H-134.0V-29.0H75.0Z"/></g>
<g fill="red" transform="translate(1100 200) scale(0.1 -0.1)"><path d="M0.0 0.0H11.0C-20.0 -84.0 -79.0 -234.0 -113.0 -307.0C-15.0 -395.0 24.0 -475.0 24.0 -555.0C24.0 -602.0 12.0 -626.0 -11.0 -637.0C-21.0 -642.0 -27.0 -643.0 -39.0 -643.0C-62.0 -643.0 -114.0 -643.0 -144.0 -643.0V-661.0C-114.0 -663.0 -89.0 -667.0 -79.0 -673.0C-70.0 -679.0 -65.0 -690.0 -65.0 -705.0C37.0 -700.0 73.0 -658.0 72.0 -561.0C72.0 -479.0 30.0 -394.0 -89.0 -304.0C-48.0 -240.0 19.0 -108.0 52.0 -40.0C75.0 -40.0 90.0 -38.0 98.0 -31.0L36.0 34.0ZM-244.0 32.0V-838.0H-238.0C-215.0 -838.0 -200.0 -826.0 -200.0 -821.0V0.0H-188.0ZM40.0 0.0H-221.0V-30.0H40.0Z"/></g>
<g fill="black" opacity=".8" transform="translate(1100 200) scale(0.1 -0.1)"><path d="M0.0 0.0H11.0C-20.0 -82.0 -79.0 -232.0 -114.0 -304.0C-13.0 -391.0 30.0 -470.0 30.0 -549.0C30.0 -596.0 17.0 -618.0 -6.0 -631.0C-16.0 -636.0 -23.0 -636.0 -36.0 -636.0C-60.0 -636.0 -113.0 -636.0 -143.0 -636.0V-655.0C-113.0 -657.0 -87.0 -662.0 -77.0 -667.0C-67.0 -673.0 -64.0 -685.0 -64.0 -700.0C42.0 -695.0 79.0 -654.0 79.0 -556.0C79.0 -473.0 34.0 -390.0 -89.0 -301.0C-47.0 -238.0 21.0 -108.0 54.0 -41.0C78.0 -41.0 92.0 -39.0 100.0 -32.0L37.0 34.0ZM-248.0 31.0V-840.0H-242.0C-218.0 -840.0 -202.0 -826.0 -202.0 -822.0V0.0H-190.0ZM37.0 0.0H-224.0V-30.0H37.0Z"/></g>
<g fill="red" transform="translate(1200 200) scale(0.1 -0.1)"><path d="M0.0 0.0H12.0C8.0 -78.0 -11.0 -223.0 -27.0 -301.0C23.0 -363.0 42.0 -441.0 42.0 -511.0C42.0 -538.0 35.0 -552.0 23.0 -560.0C17.0 -564.0 11.0 -566.0 3.0 -566.0C-9.0 -566.0 -40.0 -566.0 -58.0 -566.0V-576.0C-35.0 -583.0 -20.0 -594.0 -13.0 -608.0C-3.0 -626.0 2.0 -685.0 2.0 -724.0C131.0 -723.0 175.0 -655.0 175.0 -554.0C175.0 -469.0 123.0 -360.0 -2.0 -298.0C58.0 -232.0 121.0 -131.0 159.0 -67.0C183.0 -67.0 197.0 -63.0 204.0 -52.0L70.0 69.0ZM-204.0 69.0V-868.0H-178.0C-108.0 -868.0 -66.0 -835.0 -66.0 -825.0V0.0H-52.0ZM79.0 0.0H-124.0V-28.0H79.0Z"/></g>
<g fill="black" opacity=".8" transform="translate(1200 200) scale(0.1 -0.1)"><path d="M0.0 0.0H12.0C8.0 -80.0 -13.0 -226.0 -29.0 -305.0C23.0 -367.0 43.0 -446.0 43.0 -518.0C43.0 -545.0 36.0 -559.0 23.0 -567.0C17.0 -571.0 12.0 -573.0 3.0 -573.0C-10.0 -573.0 -41.0 -573.0 -59.0 -573.0V-584.0C-36.0 -591.0 -21.0 -602.0 -13.0 -615.0C-4.0 -634.0 2.0 -693.0 2.0 -732.0C132.0 -731.0 176.0 -663.0 176.0 -560.0C176.0 -474.0 123.0 -365.0 -3.0 -301.0C57.0 -235.0 121.0 -133.0 160.0 -69.0C185.0 -68.0 198.0 -64.0 206.0 -53.0L71.0 69.0ZM-204.0 64.0V-861.0H-178.0C-108.0 -861.0 -67.0 -828.0 -67.0 -819.0V0.0H-52.0ZM76.0 0.0H-128.0V-28.0H76.0Z"/></g>
<g fill="red" transform="translate(1300 200) scale(0.1 -0.1)"><path d="M0.0 0.0H11.0C-16.0 -78.0 -68.0 -219.0 -99.0 -288.0C-14.0 -367.0 20.0 -442.0 20.0 -516.0C20.0 -559.0 9.0 -580.0 -11.0 -591.0C-19.0 -596.0 -25.0 -597.0 -38.0 -597.0C-57.0 -597.0 -102.0 -597.0 -128.0 -597.0V-614.0C-102.0 -616.0 -79.0 -621.0 -70.0 -627.0C-62.0 -633.0 -58.0 -645.0 -58.0 -663.0C38.0 -657.0 72.0 -618.0 72.0 -524.0C72.0 -447.0 33.0 -367.0 -74.0 -285.0C-35.0 -225.0 27.0 -104.0 58.0 -42.0C81.0 -41.0 95.0 -39.0 103.0 -32.0L37.0 35.0ZM-222.0 27.0V-851.0H-215.0C-193.0 -851.0 -178.0 -837.0 -178.0 -833.0V0.0H-166.0ZM47.0 0.0H-195.0V-30.0H47.0Z"/></g>
<g fill="black" opacity=".8" transform="translate(1300 200) scale(0.1 -0.1)"><path d="M0.0 0.0H11.0C-17.0 -78.0 -68.0 -220.0 -101.0 -289.0C-16.0 -369.0 18.0 -444.0 18.0 -518.0C18.0 -561.0 7.0 -582.0 -13.0 -593.0C-22.0 -599.0 -29.0 -599.0 -41.0 -599.0C-60.0 -599.0 -103.0 -599.0 -129.0 -599.0V-617.0C-104.0 -619.0 -81.0 -624.0 -72.0 -629.0C-64.0 -635.0 -61.0 -648.0 -61.0 -664.0C36.0 -660.0 69.0 -621.0 69.0 -526.0C69.0 -448.0 32.0 -368.0 -76.0 -285.0C-36.0 -227.0 27.0 -104.0 57.0 -42.0C81.0 -42.0 95.0 -40.0 102.0 -32.0L37.0 34.0ZM-219.0 29.0V-849.0H-212.0C-189.0 -849.0 -173.0 -835.0 -173.0 -831.0V0.0H-161.0ZM41.0 0.0H-196.0V-30.0H41.0Z"/></g>
<g fill="red" transform="translate(1400 200) scale(0.1 -0.1)"><path d="M0.0 0.0H12.0C7.0 -77.0 -13.0 -219.0 -29.0 -294.0C18.0 -356.0 35.0 -433.0 35.0 -501.0C35.0 -528.0 28.0 -543.0 16.0 -551.0C10.0 -554.0 5.0 -556.0 -4.0 -556.0C-15.0 -556.0 -43.0 -556.0 -60.0 -556.0V-567.0C-37.0 -573.0 -23.0 -584.0 -16.0 -597.0C-6.0 -615.0 -2.0 -671.0 -2.0 -709.0C122.0 -708.0 164.0 -642.0 164.0 -542.0C164.0 -458.0 113.0 -353.0 -4.0 -292.0C54.0 -228.0 117.0 -129.0 154.0 -66.0C178.0 -66.0 192.0 -62.0 199.0 -52.0L69.0 67.0ZM-190.0 54.0V-873.0H-166.0C-98.0 -873.0 -58.0 -841.0 -58.0 -831.0V0.0H-45.0ZM85.0 0.0H-128.0V-28.0H85.0Z"/></g>
<g fill="black" opacity=".8" transform="translate(1400 200) scale(0.1 -0.1)"><path d="M0.0 0.0H12.0C7.0 -78.0 -16.0 -219.0 -33.0 -295.0C14.0 -356.0 31.0 -432.0 31.0 -501.0C31.0 -527.0 24.0 -542.0 12.0 -550.0C7.0 -554.0 2.0 -556.0 -8.0 -556.0C-20.0 -556.0 -47.0 -556.0 -63.0 -556.0V-567.0C-41.0 -573.0 -26.0 -584.0 -19.0 -596.0C-11.0 -614.0 -5.0 -670.0 -5.0 -708.0C120.0 -707.0 159.0 -641.0 159.0 -542.0C159.0 -457.0 109.0 -353.0 -7.0 -291.0C51.0 -228.0 116.0 -129.0 154.0 -67.0C179.0 -67.0 192.0 -63.0 200.0 -53.0L70.0 68.0ZM-192.0 57.0V-870.0H-168.0C-100.0 -870.0 -60.0 -838.0 -60.0 -828.0V0.0H-45.0ZM90.0 0.0H-124.0V-28.0H90.0Z"/></g>
<g fill="red" transform="translate(1500 200) scale(0.1 -0.1)"><path d="M0.0 0.0H11.0C-11.0 -77.0 -56.0 -218.0 -84.0 -287.0C-13.0 -366.0 13.0 -439.0 13.0 -514.0C13.0 -556.0 4.0 -578.0 -13.0 -588.0C-20.0 -593.0 -26.0 -594.0 -37.0 -594.0C-53.0 -594.0 -89.0 -594.0 -111.0 -594.0V-611.0C-89.0 -613.0 -70.0 -618.0 -62.0 -624.0C-54.0 -630.0 -51.0 -643.0 -51.0 -660.0C36.0 -655.0 66.0 -618.0 65.0 -522.0C65.0 -444.0 33.0 -366.0 -59.0 -284.0C-23.0 -224.0 31.0 -103.0 59.0 -41.0C81.0 -41.0 95.0 -39.0 103.0 -32.0L37.0 35.0ZM-199.0 27.0V-851.0H-192.0C-170.0 -851.0 -155.0 -837.0 -155.0 -833.0V0.0H-143.0ZM33.0 0.0H-177.0V-30.0H33.0Z"/></g>
<g fill="black" opacity=".8" transform="translate(1500 200) scale(0.1 -0.1)"><path d="M0.0 0.0H11.0C-14.0 -76.0 -62.0 -218.0 -92.0 -287.0C-14.0 -366.0 16.0 -440.0 16.0 -513.0C16.0 -556.0 6.0 -577.0 -12.0 -588.0C-21.0 -594.0 -27.0 -594.0 -39.0 -594.0C-56.0 -594.0 -96.0 -594.0 -119.0 -594.0V-611.0C-96.0 -613.0 -75.0 -618.0 -67.0 -624.0C-59.0 -629.0 -56.0 -643.0 -56.0 -659.0C37.0 -655.0 68.0 -617.0 68.0 -521.0C68.0 -444.0 33.0 -365.0 -67.0 -283.0C-29.0 -225.0 30.0 -103.0 58.0 -41.0C82.0 -41.0 95.0 -39.0 103.0 -32.0L37.0 34.0ZM-199.0 28.0V-853.0H-193.0C-170.0 -853.0 -155.0 -838.0 -155.0 -834.0V0.0H-142.0ZM42.0 0.0H-177.0V-30.0H42.0Z"/></g>
<g fill="red" transform="translate(1600 200) scale(0.1 -0.1)"><path d="M0.0 0.0H12.0C7.0 -77.0 -14.0 -219.0 -30.0 -294.0C11.0 -356.0 26.0 -434.0 26.0 -502.0C26.0 -530.0 19.0 -546.0 8.0 -553.0C2.0 -557.0 -3.0 -559.0 -12.0 -559.0C-21.0 -559.0 -46.0 -559.0 -61.0 -559.0V-570.0C-40.0 -576.0 -27.0 -586.0 -20.0 -599.0C-11.0 -616.0 -6.0 -669.0 -6.0 -705.0C111.0 -704.0 149.0 -640.0 149.0 -541.0C149.0 -458.0 101.0 -354.0 -5.0 -291.0C50.0 -228.0 112.0 -127.0 148.0 -65.0C172.0 -64.0 185.0 -60.0 193.0 -50.0L67.0 65.0ZM-189.0 53.0V-873.0H-165.0C-99.0 -873.0 -60.0 -841.0 -60.0 -832.0V0.0H-47.0ZM86.0 0.0H-127.0V-28.0H86.0Z"/></g>
<g fill="black" opacity=".8" transform="translate(1600 200) scale(0.1 -0.1)"><path d="M0.0 0.0H12.0C7.0 -78.0 -14.0 -219.0 -30.0 -294.0C14.0 -356.0 29.0 -433.0 29.0 -501.0C29.0 -529.0 23.0 -544.0 11.0 -552.0C6.0 -556.0 1.0 -558.0 -8.0 -558.0C-19.0 -558.0 -45.0 -558.0 -60.0 -558.0V-569.0C-39.0 -575.0 -25.0 -585.0 -18.0 -597.0C-10.0 -614.0 -4.0 -668.0 -4.0 -704.0C115.0 -703.0 153.0 -639.0 153.0 -540.0C153.0 -457.0 105.0 -354.0 -5.0 -291.0C51.0 -228.0 112.0 -127.0 148.0 -65.0C172.0 -65.0 186.0 -61.0 194.0 -51.0L68.0 65.0ZM-181.0 54.0V-875.0H-157.0C-91.0 -875.0 -52.0 -843.0 -52.0 -834.0V0.0H-38.0ZM91.0 0.0H-118.0V-28.0H91.0Z"/></g>
<g fill="red" transform="translate(100 300) scale(0.1 -0.1)"><path d="M0.0 0.0H11.0C-14.0 -78.0 -63.0 -220.0 -91.0 -289.0C-7.0 -368.0 30.0 -442.0 30.0 -519.0C30.0 -563.0 20.0 -583.0 1.0 -594.0C-8.0 -599.0 -14.0 -601.0 -25.0 -601.0C-46.0 -601.0 -93.0 -601.0 -119.0 -601.0V-618.0C-92.0 -620.0 -70.0 -624.0 -61.0 -630.0C-52.0 -636.0 -48.0 -648.0 -48.0 -665.0C48.0 -660.0 82.0 -622.0 81.0 -527.0C81.0 -446.0 39.0 -368.0 -67.0 -286.0C-30.0 -226.0 28.0 -103.0 57.0 -41.0C79.0 -40.0 93.0 -38.0 101.0 -32.0L37.0 35.0ZM-196.0 27.0V-851.0H-189.0C-167.0 -851.0 -152.0 -837.0 -152.0 -833.0V0.0H-140.0ZM45.0 0.0H-174.0V-30.0H45.0Z"/></g>
<g fill="black" opacity=".8" transform="translate(100 300) scale(0.1 -0.1)"><path d="M0.0 0.0H11.0C-14.0 -77.0 -60.0 -221.0 -88.0 -291.0C-11.0 -371.0 20.0 -446.0 20.0 -522.0C20.0 -566.0 11.0 -587.0 -8.0 -598.0C-16.0 -603.0 -22.0 -604.0 -33.0 -604.0C-51.0 -604.0 -92.0 -604.0 -115.0 -604.0V-622.0C-92.0 -624.0 -71.0 -628.0 -62.0 -634.0C-54.0 -639.0 -51.0 -652.0 -51.0 -668.0C41.0 -664.0 71.0 -626.0 71.0 -530.0C71.0 -450.0 35.0 -371.0 -64.0 -287.0C-28.0 -228.0 30.0 -103.0 57.0 -41.0C80.0 -41.0 93.0 -39.0 101.0 -32.0L36.0 34.0ZM-193.0 27.0V-845.0H-187.0C-164.0 -845.0 -149.0 -830.0 -149.0 -826.0V0.0H-137.0ZM40.0 0.0H-170.0V-30.0H40.0Z"/></g>
<g fill="red" transform="translate(200 300) scale(0.1 -0.1)"><path d="M0.0 0.0H12.0C11.0 -76.0 -3.0 -221.0 -15.0 -297.0C22.0 -359.0 34.0 -438.0 34.0 -507.0C34.0 -535.0 28.0 -550.0 18.0 -558.0C13.0 -562.0 9.0 -563.0 1.0 -563.0C-9.0 -563.0 -32.0 -563.0 -45.0 -563.0V-574.0C-25.0 -580.0 -13.0 -590.0 -7.0 -603.0C2.0 -620.0 6.0 -676.0 6.0 -711.0C121.0 -710.0 159.0 -646.0 159.0 -546.0C159.0 -463.0 114.0 -358.0 10.0 -294.0C62.0 -228.0 116.0 -127.0 149.0 -64.0C173.0 -64.0 186.0 -60.0 193.0 -49.0L66.0 65.0ZM-171.0 53.0V-873.0H-147.0C-81.0 -873.0 -41.0 -841.0 -41.0 -832.0V0.0H-27.0ZM69.0 0.0H-105.0V-28.0H69.0Z"/></g>
<g fill="black" opacity=".8" transform="translate(200 300) scale(0.1 -0.1)"><path d="M0.0 0.0H12.0C8.0 -78.0 -11.0 -221.0 -25.0 -296.0C18.0 -359.0 33.0 -437.0 33.0 -508.0C33.0 -536.0 27.0 -551.0 16.0 -559.0C11.0 -563.0 6.0 -565.0 -2.0 -565.0C-14.0 -565.0 -39.0 -565.0 -54.0 -565.0V-576.0C-34.0 -582.0 -20.0 -592.0 -14.0 -604.0C-6.0 -621.0 -0.0 -673.0 -0.0 -708.0C116.0 -707.0 153.0 -645.0 153.0 -544.0C153.0 -461.0 108.0 -358.0 -0.0 -293.0C53.0 -229.0 109.0 -126.0 144.0 -64.0C168.0 -63.0 180.0 -60.0 189.0 -49.0L65.0 64.0ZM-173.0 53.0V-869.0H-150.0C-85.0 -869.0 -47.0 -837.0 -47.0 -829.0V0.0H-33.0ZM84.0 0.0H-113.0V-28.0H84.0Z"/></g>
<g fill="red" transform="translate(300 300) scale(0.1 -0.1)"><path d="M0.0 0.0H11.0C-16.0 -78.0 -69.0 -219.0 -101.0 -288.0C-16.0 -367.0 18.0 -442.0 18.0 -516.0C18.0 -558.0 7.0 -580.0 -13.0 -591.0C-22.0 -596.0 -28.0 -597.0 -41.0 -597.0C-60.0 -597.0 -105.0 -597.0 -131.0 -597.0V-614.0C-105.0 -616.0 -82.0 -621.0 -73.0 -627.0C-65.0 -633.0 -61.0 -645.0 -61.0 -663.0C36.0 -657.0 71.0 -618.0 70.0 -524.0C70.0 -447.0 32.0 -367.0 -77.0 -285.0C-37.0 -225.0 26.0 -104.0 57.0 -42.0C81.0 -41.0 95.0 -39.0 103.0 -33.0L37.0 35.0ZM-223.0 27.0V-851.0H-216.0C-194.0 -851.0 -179.0 -837.0 -179.0 -833.0V0.0H-167.0ZM32.0 0.0H-201.0V-30.0H32.0Z"/></g>
<g fill="black" opacity=".8" transform="translate(300 300) scale(0.1 -0.1)"><path d="M0.0 0.0H11.0C-17.0 -77.0 -69.0 -220.0 -101.0 -289.0C-15.0 -369.0 19.0 -444.0 19.0 -518.0C19.0 -561.0 8.0 -582.0 -12.0 -593.0C-21.0 -599.0 -28.0 -599.0 -40.0 -599.0C-60.0 -599.0 -103.0 -599.0 -129.0 -599.0V-617.0C-104.0 -619.0 -81.0 -624.0 -72.0 -629.0C-64.0 -635.0 -60.0 -648.0 -60.0 -664.0C37.0 -660.0 70.0 -620.0 70.0 -525.0C70.0 -448.0 32.0 -368.0 -76.0 -285.0C-37.0 -226.0 26.0 -104.0 57.0 -41.0C80.0 -41.0 94.0 -39.0 102.0 -32.0L37.0 34.0ZM-219.0 29.0V-844.0H-212.0C-189.0 -844.0 -174.0 -830.0 -174.0 -826.0V0.0H-162.0ZM41.0 0.0H-197.0V-30.0H41.0Z"/></g>
<g fill="red" transform="translate(400 300) scale(0.1 -0.1)"><path d="M0.0 0.0H12.0C8.0 -77.0 -12.0 -219.0 -29.0 -295.0C16.0 -355.0 33.0 -433.0 33.0 -500.0C33.0 -527.0 26.0 -542.0 14.0 -550.0C8.0 -554.0 3.0 -555.0 -6.0 -555.0C-16.0 -555.0 -44.0 -555.0 -60.0 -555.0V-566.0C-38.0 -572.0 -24.0 -583.0 -16.0 -596.0C-7.0 -614.0 -2.0 -671.0 -2.0 -710.0C122.0 -709.0 163.0 -642.0 163.0 -543.0C163.0 -459.0 112.0 -353.0 -3.0 -292.0C55.0 -228.0 118.0 -129.0 156.0 -67.0C181.0 -66.0 194.0 -62.0 202.0 -52.0L69.0 68.0ZM-175.0 51.0V-860.0H-153.0C-90.0 -860.0 -53.0 -830.0 -53.0 -821.0V0.0H-39.0ZM84.0 0.0H-119.0V-28.0H84.0Z"/></g>
<g fill="black" opacity=".8" transform="translate(400 300) scale(0.1 -0.1)"><path d="M0.0 0.0H12.0C7.0 -78.0 -15.0 -219.0 -32.0 -294.0C15.0 -355.0 32.0 -431.0 32.0 -500.0C32.0 -526.0 25.0 -541.0 13.0 -549.0C8.0 -553.0 3.0 -555.0 -7.0 -555.0C-19.0 -555.0 -46.0 -555.0 -62.0 -555.0V-565.0C-40.0 -571.0 -26.0 -582.0 -18.0 -595.0C-10.0 -613.0 -4.0 -668.0 -4.0 -706.0C120.0 -705.0 160.0 -640.0 160.0 -540.0C160.0 -457.0 110.0 -352.0 -7.0 -291.0C51.0 -228.0 116.0 -128.0 154.0 -67.0C178.0 -66.0 191.0 -62.0 200.0 -53.0L70.0 67.0ZM-192.0 57.0V-865.0H-167.0C-99.0 -865.0 -60.0 -833.0 -60.0 -824.0V0.0H-45.0ZM89.0 0.0H-123.0V-28.0H89.0Z"/></g>
<g fill="red" transform="translate(500 300) scale(0.1 -0.1)"><path d="M0.0 0.0H11.0C-13.0 -77.0 -60.0 -219.0 -89.0 -288.0C-12.0 -367.0 17.0 -441.0 17.0 -516.0C17.0 -559.0 8.0 -581.0 -10.0 -591.0C-18.0 -596.0 -24.0 -597.0 -36.0 -597.0C-53.0 -597.0 -93.0 -597.0 -117.0 -597.0V-614.0C-93.0 -616.0 -73.0 -621.0 -64.0 -627.0C-56.0 -633.0 -52.0 -645.0 -52.0 -663.0C39.0 -658.0 70.0 -620.0 70.0 -524.0C69.0 -446.0 34.0 -367.0 -64.0 -285.0C-27.0 -225.0 30.0 -103.0 58.0 -41.0C81.0 -41.0 95.0 -39.0 103.0 -32.0L37.0 35.0ZM-193.0 27.0V-851.0H-186.0C-164.0 -851.0 -149.0 -837.0 -149.0 -833.0V0.0H-137.0ZM48.0 0.0H-171.0V-30.0H48.0Z"/></g>
<g fill="black" opacity=".8" transform="translate(500 300) scale(0.1 -0.1)"><path d="M0.0 0.0H11.0C-14.0 -76.0 -61.0 -217.0 -91.0 -285.0C-14.0 -364.0 16.0 -437.0 16.0 -511.0C16.0 -553.0 7.0 -574.0 -11.0 -585.0C-20.0 -590.0 -26.0 -590.0 -38.0 -590.0C-55.0 -590.0 -95.0 -590.0 -118.0 -590.0V-608.0C-95.0 -610.0 -74.0 -615.0 -66.0 -620.0C-58.0 -626.0 -55.0 -639.0 -55.0 -655.0C37.0 -651.0 68.0 -613.0 68.0 -518.0C68.0 -441.0 33.0 -363.0 -66.0 -281.0C-29.0 -223.0 29.0 -102.0 57.0 -41.0C81.0 -41.0 94.0 -39.0 102.0 -32.0L37.0 34.0ZM-198.0 27.0V-845.0H-191.0C-168.0 -845.0 -153.0 -830.0 -153.0 -827.0V0.0H-141.0ZM41.0 0.0H-175.0V-30.0H41.0Z"/></g>
<g fill="red" transform="translate(600 300) scale(0.1 -0.1)"><path d="M0.0 0.0H12.0C8.0 -75.0 -9.0 -213.0 -25.0 -287.0C17.0 -347.0 31.0 -422.0 31.0 -489.0C31.0 -515.0 25.0 -530.0 14.0 -537.0C9.0 -541.0 4.0 -542.0 -5.0 -542.0C-14.0 -542.0 -39.0 -542.0 -54.0 -542.0V-553.0C-33.0 -559.0 -20.0 -570.0 -13.0 -583.0C-4.0 -600.0 0.0 -656.0 0.0 -692.0C119.0 -691.0 158.0 -627.0 158.0 -529.0C158.0 -448.0 110.0 -345.0 1.0 -285.0C56.0 -222.0 115.0 -126.0 151.0 -65.0C175.0 -65.0 188.0 -61.0 196.0 -51.0L68.0 66.0ZM-181.0 54.0V-873.0H-157.0C-90.0 -873.0 -50.0 -841.0 -50.0 -831.0V0.0H-36.0ZM94.0 0.0H-119.0V-28.0H94.0Z"/></g>
<g fill="black" opacity=".8" transform="translate(600 300) scale(0.1 -0.1)"><path d="M0.0 0.0H12.0C7.0 -77.0 -13.0 -217.0 -30.0 -292.0C14.0 -353.0 30.0 -430.0 30.0 -498.0C30.0 -526.0 23.0 -541.0 12.0 -549.0C6.0 -552.0 2.0 -554.0 -7.0 -554.0C-18.0 -554.0 -44.0 -554.0 -59.0 -554.0V-565.0C-38.0 -571.0 -24.0 -581.0 -17.0 -594.0C-9.0 -610.0 -4.0 -663.0 -4.0 -699.0C114.0 -698.0 152.0 -635.0 152.0 -537.0C152.0 -454.0 105.0 -351.0 -5.0 -289.0C50.0 -226.0 111.0 -126.0 147.0 -65.0C171.0 -64.0 184.0 -61.0 192.0 -51.0L67.0 65.0ZM-179.0 53.0V-868.0H-155.0C-90.0 -868.0 -51.0 -836.0 -51.0 -827.0V0.0H-37.0ZM90.0 0.0H-116.0V-28.0H90.0Z"/></g>
<g fill="red" transform="translate(700 300) scale(0.1 -0.1)"><path d="M0.0 0.0H11.0C-11.0 -75.0 -55.0 -212.0 -82.0 -280.0C-13.0 -356.0 13.0 -428.0 13.0 -500.0C13.0 -541.0 4.0 -563.0 -12.0 -572.0C-20.0 -577.0 -25.0 -578.0 -36.0 -578.0C-52.0 -578.0 -89.0 -578.0 -109.0 -578.0V-595.0C-88.0 -597.0 -69.0 -601.0 -61.0 -607.0C-53.0 -613.0 -49.0 -627.0 -49.0 -643.0C36.0 -638.0 66.0 -602.0 65.0 -508.0C65.0 -433.0 33.0 -356.0 -57.0 -276.0C-22.0 -218.0 31.0 -101.0 58.0 -41.0C81.0 -41.0 95.0 -39.0 103.0 -32.0L37.0 35.0ZM-190.0 27.0V-851.0H-183.0C-161.0 -851.0 -146.0 -837.0 -146.0 -833.0V0.0H-134.0ZM43.0 0.0H-167.0V-30.0H43.0Z"/></g>
<g fill="black" opacity=".8" transform="translate(700 300) scale(0.1 -0.1)"><path d="M0.0 0.0H11.0C-13.0 -75.0 -57.0 -214.0 -85.0 -282.0C-14.0 -359.0 12.0 -432.0 12.0 -504.0C12.0 -545.0 4.0 -566.0 -13.0 -577.0C-22.0 -582.0 -27.0 -582.0 -39.0 -582.0C-55.0 -582.0 -90.0 -582.0 -112.0 -582.0V-600.0C-91.0 -602.0 -71.0 -607.0 -64.0 -612.0C-56.0 -618.0 -53.0 -631.0 -53.0 -648.0C36.0 -644.0 65.0 -607.0 65.0 -512.0C65.0 -436.0 33.0 -358.0 -60.0 -278.0C-24.0 -221.0 32.0 -101.0 59.0 -41.0C82.0 -41.0 96.0 -39.0 103.0 -32.0L37.0 34.0ZM-185.0 27.0V-855.0H-178.0C-155.0 -855.0 -141.0 -840.0 -141.0 -836.0V0.0H-128.0ZM43.0 0.0H-164.0V-30.0H43.0Z"/></g>
<g fill="red" transform="translate(800 300) scale(0.1 -0.1)"><path d="M0.0 0.0H12.0C7.0 -77.0 -14.0 -219.0 -31.0 -294.0C10.0 -357.0 25.0 -434.0 25.0 -503.0C25.0 -532.0 18.0 -549.0 7.0 -556.0C1.0 -560.0 -4.0 -561.0 -13.0 -561.0C-22.0 -561.0 -47.0 -561.0 -61.0 -561.0V-573.0C-41.0 -579.0 -27.0 -589.0 -21.0 -601.0C-12.0 -617.0 -7.0 -667.0 -7.0 -703.0C107.0 -702.0 144.0 -639.0 144.0 -540.0C144.0 -457.0 97.0 -355.0 -6.0 -291.0C47.0 -227.0 107.0 -125.0 142.0 -63.0C166.0 -62.0 179.0 -59.0 187.0 -49.0L65.0 63.0ZM-173.0 51.0V-873.0H-150.0C-87.0 -873.0 -48.0 -842.0 -48.0 -833.0V0.0H-35.0ZM102.0 0.0H-111.0V-28.0H102.0Z"/></g>
<g fill="black" opacity=".8" transform="translate(800 300) scale(0.1 -0.1)"><path d="M0.0 0.0H12.0C7.0 -77.0 -14.0 -217.0 -30.0 -291.0C12.0 -352.0 26.0 -429.0 26.0 -497.0C26.0 -525.0 19.0 -540.0 8.0 -548.0C3.0 -552.0 -1.0 -553.0 -11.0 -553.0C-21.0 -553.0 -45.0 -553.0 -60.0 -553.0V-565.0C-39.0 -570.0 -25.0 -581.0 -19.0 -593.0C-11.0 -609.0 -6.0 -661.0 -6.0 -697.0C110.0 -695.0 146.0 -633.0 146.0 -535.0C146.0 -452.0 100.0 -351.0 -5.0 -288.0C49.0 -225.0 109.0 -125.0 144.0 -64.0C168.0 -64.0 181.0 -60.0 190.0 -50.0L66.0 64.0ZM-174.0 51.0V-878.0H-150.0C-85.0 -878.0 -47.0 -846.0 -47.0 -837.0V0.0H-33.0ZM95.0 0.0H-114.0V-28.0H95.0Z"/></g>
<g fill="red" transform="translate(900 300) scale(0.1 -0.1)"><path d="M0.0 0.0H11.0C-17.0 -78.0 -72.0 -219.0 -105.0 -288.0C-15.0 -368.0 20.0 -442.0 20.0 -516.0C20.0 -558.0 9.0 -580.0 -12.0 -591.0C-21.0 -596.0 -27.0 -597.0 -40.0 -597.0C-60.0 -597.0 -107.0 -597.0 -135.0 -597.0V-614.0C-108.0 -617.0 -84.0 -621.0 -75.0 -627.0C-66.0 -633.0 -62.0 -645.0 -62.0 -663.0C37.0 -657.0 73.0 -617.0 72.0 -524.0C72.0 -447.0 32.0 -367.0 -80.0 -285.0C-39.0 -226.0 25.0 -104.0 57.0 -42.0C81.0 -41.0 95.0 -39.0 103.0 -33.0L37.0 35.0ZM-211.0 27.0V-851.0H-204.0C-182.0 -851.0 -167.0 -837.0 -167.0 -833.0V0.0H-155.0ZM36.0 0.0H-188.0V-30.0H36.0Z"/></g>
<g fill="black" opacity=".8" transform="translate(900 300) scale(0.1 -0.1)"><path d="M0.0 0.0H11.0C-17.0 -77.0 -68.0 -219.0 -101.0 -288.0C-17.0 -368.0 16.0 -443.0 16.0 -516.0C16.0 -558.0 6.0 -579.0 -14.0 -591.0C-23.0 -596.0 -30.0 -596.0 -42.0 -596.0C-61.0 -596.0 -104.0 -596.0 -130.0 -596.0V-614.0C-105.0 -616.0 -82.0 -621.0 -73.0 -627.0C-65.0 -632.0 -62.0 -645.0 -62.0 -662.0C35.0 -658.0 68.0 -618.0 68.0 -523.0C68.0 -447.0 31.0 -366.0 -76.0 -284.0C-36.0 -226.0 27.0 -104.0 58.0 -42.0C82.0 -42.0 95.0 -40.0 103.0 -32.0L37.0 34.0ZM-219.0 28.0V-852.0H-212.0C-189.0 -852.0 -174.0 -837.0 -174.0 -834.0V0.0H-161.0ZM42.0 0.0H-197.0V-30.0H42.0Z"/></g>
<g fill="red" transform="translate(1000 300) scale(0.1 -0.1)"><path d="M0.0 0.0H13.0C5.0 -78.0 -21.0 -219.0 -42.0 -294.0C9.0 -356.0 28.0 -433.0 28.0 -500.0C28.0 -527.0 21.0 -543.0 8.0 -550.0C1.0 -554.0 -5.0 -556.0 -15.0 -556.0C-25.0 -556.0 -56.0 -556.0 -73.0 -556.0V-567.0C-49.0 -573.0 -34.0 -584.0 -27.0 -597.0C-17.0 -615.0 -12.0 -668.0 -12.0 -709.0C115.0 -708.0 156.0 -641.0 156.0 -542.0C156.0 -457.0 103.0 -352.0 -16.0 -292.0C45.0 -229.0 116.0 -129.0 156.0 -67.0C180.0 -67.0 194.0 -63.0 202.0 -52.0L70.0 67.0ZM-199.0 51.0V-868.0H-176.0C-113.0 -868.0 -74.0 -838.0 -74.0 -829.0V0.0H-61.0ZM76.0 0.0H-137.0V-28.0H76.0Z"/></g>
<g fill="black" opacity=".8" transform="translate(1000 300) scale(0.1 -0.1)"><path d="M0.0 0.0H12.0C7.0 -78.0 -16.0 -219.0 -34.0 -294.0C13.0 -355.0 30.0 -431.0 30.0 -500.0C30.0 -526.0 23.0 -541.0 11.0 -548.0C5.0 -552.0 0.0 -554.0 -9.0 -554.0C-21.0 -554.0 -48.0 -554.0 -64.0 -554.0V-565.0C-42.0 -571.0 -28.0 -582.0 -20.0 -595.0C-12.0 -613.0 -6.0 -669.0 -6.0 -707.0C119.0 -706.0 159.0 -640.0 159.0 -541.0C159.0 -456.0 108.0 -352.0 -9.0 -291.0C51.0 -228.0 117.0 -129.0 155.0 -67.0C180.0 -67.0 193.0 -63.0 202.0 -53.0L70.0 68.0ZM-194.0 57.0V-873.0H-169.0C-100.0 -873.0 -60.0 -841.0 -60.0 -831.0V0.0H-46.0ZM93.0 0.0H-125.0V-28.0H93.0Z"/></g>
<g fill="red" transform="translate(1100 300) scale(0.1 -0.1)"><path d="M0.0 0.0H11.0C-14.0 -79.0 -64.0 -222.0 -94.0 -293.0C-19.0 -374.0 6.0 -451.0 6.0 -525.0C6.0 -567.0 -4.0 -592.0 -22.0 -602.0C-30.0 -607.0 -37.0 -608.0 -48.0 -608.0C-64.0 -608.0 -102.0 -608.0 -125.0 -608.0V-625.0C-102.0 -627.0 -82.0 -632.0 -74.0 -637.0C-66.0 -643.0 -62.0 -656.0 -62.0 -674.0C27.0 -669.0 59.0 -629.0 58.0 -534.0C58.0 -457.0 27.0 -374.0 -70.0 -290.0C-32.0 -229.0 28.0 -105.0 58.0 -42.0C81.0 -41.0 96.0 -39.0 103.0 -32.0L37.0 35.0ZM-195.0 27.0V-851.0H-188.0C-166.0 -851.0 -151.0 -837.0 -151.0 -833.0V0.0H-139.0ZM60.0 0.0H-173.0V-30.0H60.0Z"/></g>
<g fill="black" opacity=".8" transform="translate(1100 300) scale(0.1 -0.1)"><path d="M0.0 0.0H11.0C-15.0 -77.0 -63.0 -221.0 -93.0 -290.0C-14.0 -371.0 18.0 -446.0 18.0 -521.0C18.0 -564.0 8.0 -585.0 -11.0 -596.0C-20.0 -602.0 -25.0 -602.0 -37.0 -602.0C-56.0 -602.0 -96.0 -602.0 -120.0 -602.0V-620.0C-97.0 -622.0 -75.0 -627.0 -67.0 -632.0C-59.0 -638.0 -55.0 -651.0 -55.0 -667.0C38.0 -663.0 70.0 -625.0 70.0 -528.0C70.0 -450.0 34.0 -370.0 -68.0 -287.0C-30.0 -228.0 29.0 -104.0 58.0 -41.0C81.0 -41.0 95.0 -39.0 102.0 -32.0L37.0 34.0ZM-202.0 28.0V-854.0H-196.0C-172.0 -854.0 -157.0 -839.0 -157.0 -836.0V0.0H-145.0ZM41.0 0.0H-180.0V-30.0H41.0Z"/></g>
<g fill="red" transform="translate(1200 300) scale(0.1 -0.1)"><path d="M0.0 0.0H12.0C8.0 -77.0 -12.0 -220.0 -28.0 -295.0C10.0 -357.0 24.0 -436.0 24.0 -504.0C24.0 -532.0 17.0 -547.0 6.0 -555.0C0.0 -559.0 -5.0 -560.0 -14.0 -560.0C-22.0 -560.0 -45.0 -560.0 -59.0 -560.0V-571.0C-39.0 -577.0 -26.0 -588.0 -19.0 -600.0C-10.0 -618.0 -6.0 -672.0 -6.0 -709.0C112.0 -709.0 149.0 -643.0 149.0 -544.0C149.0 -460.0 101.0 -355.0 -2.0 -293.0C53.0 -228.0 115.0 -128.0 151.0 -65.0C175.0 -65.0 188.0 -61.0 196.0 -51.0L67.0 66.0ZM-185.0 55.0V-873.0H-160.0C-91.0 -873.0 -50.0 -840.0 -50.0 -830.0V0.0H-36.0ZM80.0 0.0H-128.0V-28.0H80.0Z"/></g>
<g fill="black" opacity=".8" transform="translate(1200 300) scale(0.1 -0.1)"><path d="M0.0 0.0H12.0C8.0 -78.0 -13.0 -221.0 -29.0 -297.0C16.0 -359.0 31.0 -437.0 31.0 -507.0C31.0 -535.0 25.0 -549.0 13.0 -558.0C8.0 -561.0 3.0 -563.0 -6.0 -563.0C-17.0 -563.0 -44.0 -563.0 -59.0 -563.0V-574.0C-38.0 -580.0 -24.0 -591.0 -17.0 -603.0C-9.0 -620.0 -3.0 -674.0 -3.0 -711.0C117.0 -710.0 155.0 -646.0 155.0 -545.0C155.0 -461.0 108.0 -357.0 -4.0 -293.0C52.0 -230.0 113.0 -128.0 149.0 -65.0C173.0 -65.0 186.0 -61.0 194.0 -51.0L68.0 66.0ZM-181.0 55.0V-877.0H-158.0C-91.0 -877.0 -52.0 -845.0 -52.0 -836.0V0.0H-38.0ZM89.0 0.0H-118.0V-28.0H89.0Z"/></g>
<g fill="red" transform="translate(1300 300) scale(0.1 -0.1)"><path d="M0.0 0.0H11.0C-17.0 -78.0 -71.0 -219.0 -104.0 -290.0C-22.0 -370.0 6.0 -446.0 6.0 -518.0C6.0 -560.0 -5.0 -583.0 -24.0 -594.0C-33.0 -599.0 -40.0 -600.0 -53.0 -600.0C-69.0 -600.0 -110.0 -600.0 -135.0 -600.0V-617.0C-111.0 -619.0 -89.0 -624.0 -81.0 -629.0C-73.0 -635.0 -68.0 -647.0 -68.0 -666.0C24.0 -660.0 59.0 -620.0 58.0 -527.0C58.0 -452.0 25.0 -369.0 -79.0 -286.0C-38.0 -227.0 25.0 -105.0 57.0 -42.0C81.0 -42.0 96.0 -39.0 104.0 -33.0L37.0 35.0ZM-205.0 27.0V-851.0H-198.0C-176.0 -851.0 -161.0 -837.0 -161.0 -833.0V0.0H-149.0ZM31.0 0.0H-183.0V-30.0H31.0Z"/></g>
<g fill="black" opacity=".8" transform="translate(1300 300) scale(0.1 -0.1)"><path d="M0.0 0.0H11.0C-16.0 -77.0 -65.0 -220.0 -97.0 -289.0C-15.0 -369.0 17.0 -444.0 17.0 -518.0C17.0 -560.0 7.0 -582.0 -12.0 -593.0C-22.0 -599.0 -28.0 -599.0 -40.0 -599.0C-59.0 -599.0 -100.0 -599.0 -125.0 -599.0V-616.0C-101.0 -619.0 -79.0 -623.0 -70.0 -629.0C-62.0 -635.0 -59.0 -648.0 -59.0 -664.0C37.0 -660.0 69.0 -621.0 69.0 -526.0C69.0 -448.0 32.0 -368.0 -72.0 -285.0C-33.0 -227.0 28.0 -104.0 58.0 -42.0C82.0 -42.0 95.0 -40.0 103.0 -32.0L37.0 34.0ZM-210.0 28.0V-854.0H-204.0C-180.0 -854.0 -165.0 -839.0 -165.0 -836.0V0.0H-153.0ZM42.0 0.0H-188.0V-30.0H42.0Z"/></g>
<g fill="red" transform="translate(1400 300) scale(0.1 -0.1)"><path d="M0.0 0.0H12.0C7.0 -77.0 -12.0 -220.0 -28.0 -295.0C12.0 -358.0 26.0 -436.0 26.0 -505.0C26.0 -533.0 20.0 -549.0 8.0 -557.0C3.0 -561.0 -2.0 -562.0 -11.0 -562.0C-20.0 -562.0 -45.0 -562.0 -59.0 -562.0V-573.0C-38.0 -579.0 -25.0 -589.0 -18.0 -602.0C-10.0 -619.0 -5.0 -671.0 -5.0 -707.0C111.0 -706.0 148.0 -643.0 148.0 -543.0C148.0 -459.0 101.0 -356.0 -3.0 -292.0C51.0 -228.0 111.0 -126.0 147.0 -64.0C170.0 -64.0 184.0 -60.0 191.0 -50.0L66.0 64.0ZM-191.0 54.0V-873.0H-167.0C-99.0 -873.0 -58.0 -841.0 -58.0 -831.0V0.0H-45.0ZM74.0 0.0H-134.0V-28.0H74.0Z"/></g>
<g fill="black" opacity=".8" transform="translate(1400 300) scale(0.1 -0.1)"><path d="M0.0 0.0H12.0C7.0 -79.0 -15.0 -220.0 -32.0 -295.0C14.0 -357.0 30.0 -434.0 30.0 -503.0C30.0 -530.0 24.0 -545.0 12.0 -553.0C6.0 -557.0 1.0 -559.0 -8.0 -559.0C-20.0 -559.0 -46.0 -559.0 -62.0 -559.0V-570.0C-40.0 -576.0 -26.0 -586.0 -19.0 -599.0C-10.0 -617.0 -5.0 -671.0 -5.0 -709.0C118.0 -708.0 157.0 -643.0 157.0 -543.0C157.0 -459.0 108.0 -354.0 -6.0 -292.0C51.0 -229.0 115.0 -128.0 152.0 -66.0C177.0 -66.0 190.0 -62.0 198.0 -52.0L69.0 67.0ZM-188.0 56.0V-876.0H-164.0C-96.0 -876.0 -56.0 -844.0 -56.0 -834.0V0.0H-42.0ZM91.0 0.0H-121.0V-28.0H91.0Z"/></g>
<g fill="red" transform="translate(1500 300) scale(0.1 -0.1)"><path d="M0.0 0.0H11.0C-16.0 -78.0 -69.0 -219.0 -100.0 -288.0C-14.0 -367.0 20.0 -442.0 20.0 -516.0C20.0 -559.0 9.0 -580.0 -11.0 -591.0C-20.0 -596.0 -26.0 -597.0 -38.0 -597.0C-58.0 -597.0 -103.0 -597.0 -129.0 -597.0V-614.0C-103.0 -617.0 -80.0 -621.0 -71.0 -627.0C-63.0 -633.0 -59.0 -645.0 -59.0 -663.0C38.0 -657.0 73.0 -618.0 72.0 -524.0C72.0 -447.0 33.0 -367.0 -76.0 -285.0C-36.0 -225.0 26.0 -104.0 58.0 -42.0C81.0 -41.0 95.0 -39.0 103.0 -32.0L37.0 35.0ZM-206.0 27.0V-851.0H-199.0C-177.0 -851.0 -162.0 -837.0 -162.0 -833.0V0.0H-150.0ZM53.0 0.0H-184.0V-30.0H53.0Z"/></g>
<g fill="black" opacity=".8" transform="translate(1500 300) scale(0.1 -0.1)"><path d="M0.0 0.0H11.0C-15.0 -77.0 -65.0 -219.0 -96.0 -288.0C-15.0 -368.0 17.0 -443.0 17.0 -517.0C17.0 -559.0 7.0 -581.0 -12.0 -592.0C-21.0 -597.0 -27.0 -598.0 -39.0 -598.0C-58.0 -598.0 -99.0 -598.0 -124.0 -598.0V-615.0C-100.0 -617.0 -78.0 -622.0 -69.0 -628.0C-61.0 -634.0 -58.0 -646.0 -58.0 -663.0C37.0 -659.0 69.0 -620.0 69.0 -525.0C69.0 -447.0 33.0 -367.0 -71.0 -285.0C-33.0 -226.0 28.0 -104.0 57.0 -41.0C81.0 -41.0 95.0 -39.0 102.0 -32.0L37.0 34.0ZM-209.0 28.0V-850.0H-202.0C-179.0 -850.0 -164.0 -835.0 -164.0 -832.0V0.0H-152.0ZM41.0 0.0H-186.0V-30.0H41.0Z"/></g>
<g fill="red" transform="translate(1600 300) scale(0.1 -0.1)"><path d="M0.0 0.0H12.0C7.0 -77.0 -13.0 -219.0 -29.0 -294.0C18.0 -356.0 35.0 -433.0 35.0 -501.0C35.0 -528.0 28.0 -543.0 16.0 -551.0C10.0 -554.0 5.0 -556.0 -4.0 -556.0C-15.0 -556.0 -43.0 -556.0 -60.0 -556.0V-567.0C-37.0 -573.0 -23.0 -584.0 -16.0 -597.0C-6.0 -615.0 -2.0 -671.0 -2.0 -709.0C122.0 -708.0 164.0 -642.0 164.0 -542.0C164.0 -458.0 113.0 -353.0 -4.0 -292.0C54.0 -228.0 117.0 -129.0 154.0 -66.0C178.0 -66.0 192.0 -62.0 199.0 -52.0L69.0 67.0ZM-184.0 54.0V-873.0H-160.0C-92.0 -873.0 -52.0 -841.0 -52.0 -831.0V0.0H-39.0ZM91.0 0.0H-122.0V-28.0H91.0Z"/></g>
<g fill="black" opacity=".8" transform="translate(1600 300) scale(0.1 -0.1)"><path d="M0.0 0.0H12.0C7.0 -78.0 -14.0 -219.0 -31.0 -295.0C15.0 -356.0 31.0 -433.0 31.0 -502.0C31.0 -529.0 24.0 -544.0 12.0 -552.0C7.0 -556.0 2.0 -557.0 -7.0 -557.0C-19.0 -557.0 -45.0 -557.0 -61.0 -557.0V-568.0C-40.0 -574.0 -25.0 -585.0 -18.0 -598.0C-10.0 -615.0 -4.0 -670.0 -4.0 -707.0C118.0 -706.0 156.0 -641.0 156.0 -541.0C156.0 -458.0 108.0 -354.0 -6.0 -291.0C51.0 -228.0 114.0 -128.0 151.0 -66.0C175.0 -66.0 188.0 -62.0 197.0 -52.0L69.0 66.0ZM-186.0 56.0V-872.0H-162.0C-95.0 -872.0 -55.0 -840.0 -55.0 -831.0V0.0H-41.0ZM90.0 0.0H-120.0V-28.0H90.0Z"/></g>
<g fill="red" transform="translate(100 400) scale(0.1 -0.1)"><path d="M0.0 0.0H11.0C-14.0 -78.0 -63.0 -220.0 -91.0 -289.0C-7.0 -368.0 30.0 -442.0 30.0 -519.0C30.0 -563.0 20.0 -583.0 1.0 -594.0C-8.0 -599.0 -14.0 -601.0 -25.0 -601.0C-46.0 -601.0 -93.0 -601.0 -119.0 -601.0V-618.0C-92.0 -620.0 -70.0 -624.0 -61.0 -630.0C-52.0 -636.0 -48.0 -648.0 -48.0 -665.0C48.0 -660.0 82.0 -622.0 81.0 -527.0C81.0 -446.0 39.0 -368.0 -67.0 -286.0C-30.0 -226.0 28.0 -103.0 57.0 -41.0C79.0 -40.0 93.0 -38.0 101.0 -32.0L37.0 35.0ZM-196.0 27.0V-851.0H-189.0C-167.0 -851.0 -152.0 -837.0 -152.0 -833.0V0.0H-140.0ZM45.0 0.0H-174.0V-30.0H45.0Z"/></g>
<g fill="black" opacity=".8" transform="translate(100 400) scale(0.1 -0.1)"><path d="M0.0 0.0H11.0C-14.0 -77.0 -60.0 -221.0 -89.0 -290.0C-11.0 -370.0 20.0 -445.0 20.0 -520.0C20.0 -564.0 11.0 -585.0 -8.0 -596.0C-16.0 -602.0 -22.0 -602.0 -33.0 -602.0C-51.0 -602.0 -92.0 -602.0 -115.0 -602.0V-620.0C-92.0 -622.0 -71.0 -626.0 -63.0 -632.0C-55.0 -637.0 -51.0 -650.0 -51.0 -666.0C40.0 -662.0 71.0 -624.0 71.0 -528.0C71.0 -448.0 35.0 -370.0 -64.0 -286.0C-28.0 -227.0 29.0 -103.0 57.0 -41.0C80.0 -41.0 93.0 -39.0 101.0 -31.0L36.0 34.0ZM-194.0 27.0V-843.0H-187.0C-164.0 -843.0 -150.0 -829.0 -150.0 -825.0V0.0H-137.0ZM40.0 0.0H-171.0V-30.0H40.0Z"/></g>
<g fill="red" transform="translate(200 400) scale(0.1 -0.1)"><path d="M0.0 0.0H12.0C11.0 -75.0 -3.0 -219.0 -15.0 -294.0C22.0 -356.0 34.0 -434.0 34.0 -503.0C34.0 -530.0 28.0 -545.0 18.0 -553.0C13.0 -557.0 9.0 -558.0 1.0 -558.0C-9.0 -558.0 -31.0 -558.0 -45.0 -558.0V-569.0C-25.0 -575.0 -13.0 -585.0 -7.0 -598.0C2.0 -615.0 6.0 -671.0 6.0 -706.0C121.0 -705.0 159.0 -642.0 159.0 -542.0C159.0 -460.0 114.0 -355.0 10.0 -291.0C62.0 -226.0 116.0 -126.0 149.0 -64.0C172.0 -64.0 185.0 -60.0 193.0 -49.0L66.0 65.0ZM-171.0 53.0V-873.0H-147.0C-81.0 -873.0 -41.0 -841.0 -41.0 -832.0V0.0H-27.0ZM69.0 0.0H-105.0V-28.0H69.0Z"/></g>
<g fill="black" opacity=".8" transform="translate(200 400) scale(0.1 -0.1)"><path d="M0.0 0.0H12.0C8.0 -78.0 -11.0 -220.0 -26.0 -296.0C18.0 -358.0 33.0 -436.0 33.0 -506.0C33.0 -534.0 27.0 -549.0 16.0 -557.0C10.0 -561.0 6.0 -563.0 -3.0 -563.0C-14.0 -563.0 -40.0 -563.0 -54.0 -563.0V-574.0C-34.0 -580.0 -20.0 -590.0 -14.0 -602.0C-6.0 -619.0 -0.0 -671.0 -0.0 -706.0C116.0 -705.0 153.0 -643.0 153.0 -543.0C153.0 -460.0 108.0 -357.0 -1.0 -292.0C52.0 -228.0 109.0 -126.0 144.0 -64.0C168.0 -63.0 180.0 -60.0 189.0 -49.0L65.0 64.0ZM-173.0 53.0V-867.0H-150.0C-86.0 -867.0 -48.0 -836.0 -48.0 -827.0V0.0H-33.0ZM84.0 0.0H-113.0V-28.0H84.0Z"/></g>
<g fill="red" transform="translate(300 400) scale(0.1 -0.1)"><path d="M0.0 0.0H11.0C-10.0 -76.0 -53.0 -217.0 -80.0 -286.0C-13.0 -364.0 11.0 -437.0 11.0 -512.0C11.0 -554.0 2.0 -576.0 -14.0 -586.0C-21.0 -591.0 -26.0 -592.0 -37.0 -592.0C-52.0 -592.0 -87.0 -592.0 -107.0 -592.0V-608.0C-87.0 -611.0 -68.0 -615.0 -60.0 -621.0C-53.0 -627.0 -49.0 -640.0 -49.0 -657.0C35.0 -652.0 64.0 -616.0 63.0 -520.0C63.0 -442.0 33.0 -365.0 -55.0 -283.0C-21.0 -223.0 32.0 -102.0 59.0 -41.0C81.0 -41.0 95.0 -39.0 103.0 -32.0L37.0 35.0ZM-198.0 27.0V-842.0H-191.0C-169.0 -842.0 -154.0 -830.0 -154.0 -825.0V0.0H-142.0ZM38.0 0.0H-176.0V-30.0H38.0Z"/></g>
<g fill="black" opacity=".8" transform="translate(300 400) scale(0.1 -0.1)"><path d="M0.0 0.0H11.0C-14.0 -76.0 -61.0 -217.0 -91.0 -285.0C-14.0 -364.0 16.0 -438.0 16.0 -511.0C16.0 -554.0 7.0 -575.0 -11.0 -586.0C-20.0 -591.0 -26.0 -591.0 -38.0 -591.0C-55.0 -591.0 -94.0 -591.0 -118.0 -591.0V-609.0C-95.0 -611.0 -74.0 -616.0 -66.0 -621.0C-58.0 -627.0 -55.0 -640.0 -55.0 -656.0C37.0 -652.0 68.0 -614.0 68.0 -519.0C68.0 -442.0 33.0 -363.0 -66.0 -282.0C-29.0 -224.0 30.0 -102.0 58.0 -41.0C81.0 -41.0 94.0 -39.0 102.0 -32.0L37.0 34.0ZM-197.0 27.0V-847.0H-190.0C-167.0 -847.0 -153.0 -832.0 -153.0 -828.0V0.0H-140.0ZM41.0 0.0H-175.0V-30.0H41.0Z"/></g>
<g fill="red" transform="translate(400 400) scale(0.1 -0.1)"><path d="M0.0 0.0H12.0C5.0 -78.0 -20.0 -219.0 -39.0 -294.0C7.0 -357.0 23.0 -434.0 23.0 -502.0C23.0 -531.0 16.0 -547.0 4.0 -554.0C-2.0 -559.0 -8.0 -560.0 -17.0 -560.0C-26.0 -560.0 -54.0 -560.0 -70.0 -560.0V-571.0C-48.0 -577.0 -34.0 -588.0 -26.0 -600.0C-17.0 -617.0 -13.0 -667.0 -13.0 -705.0C106.0 -704.0 145.0 -639.0 145.0 -541.0C145.0 -457.0 96.0 -354.0 -13.0 -291.0C43.0 -228.0 109.0 -126.0 146.0 -64.0C170.0 -64.0 184.0 -60.0 192.0 -50.0L66.0 64.0ZM-184.0 52.0V-860.0H-161.0C-95.0 -860.0 -56.0 -829.0 -56.0 -819.0V0.0H-43.0ZM91.0 0.0H-122.0V-28.0H91.0Z"/></g>
<g fill="black" opacity=".8" transform="translate(400 400) scale(0.1 -0.1)"><path d="M0.0 0.0H12.0C7.0 -77.0 -13.0 -218.0 -30.0 -292.0C14.0 -354.0 30.0 -431.0 30.0 -499.0C30.0 -527.0 23.0 -542.0 12.0 -550.0C6.0 -553.0 2.0 -555.0 -7.0 -555.0C-18.0 -555.0 -44.0 -555.0 -59.0 -555.0V-566.0C-38.0 -572.0 -24.0 -583.0 -17.0 -595.0C-9.0 -612.0 -4.0 -665.0 -4.0 -701.0C114.0 -700.0 152.0 -636.0 152.0 -537.0C152.0 -455.0 105.0 -352.0 -4.0 -289.0C50.0 -226.0 111.0 -126.0 147.0 -65.0C171.0 -64.0 184.0 -61.0 192.0 -51.0L67.0 65.0ZM-179.0 53.0V-869.0H-155.0C-89.0 -869.0 -51.0 -838.0 -51.0 -829.0V0.0H-37.0ZM90.0 0.0H-116.0V-28.0H90.0Z"/></g>
<g fill="red" transform="translate(500 400) scale(0.1 -0.1)"><path d="M0.0 0.0H11.0C-11.0 -76.0 -54.0 -217.0 -81.0 -286.0C-13.0 -364.0 11.0 -437.0 11.0 -512.0C11.0 -554.0 2.0 -576.0 -14.0 -586.0C-21.0 -591.0 -27.0 -592.0 -38.0 -592.0C-52.0 -592.0 -88.0 -592.0 -108.0 -592.0V-608.0C-88.0 -611.0 -69.0 -615.0 -61.0 -621.0C-53.0 -627.0 -50.0 -640.0 -50.0 -657.0C35.0 -652.0 64.0 -615.0 63.0 -520.0C63.0 -443.0 32.0 -365.0 -56.0 -283.0C-22.0 -223.0 32.0 -102.0 59.0 -41.0C81.0 -41.0 95.0 -39.0 103.0 -32.0L37.0 35.0ZM-192.0 27.0V-851.0H-185.0C-163.0 -851.0 -148.0 -837.0 -148.0 -833.0V0.0H-136.0ZM35.0 0.0H-170.0V-30.0H35.0Z"/></g>
<g fill="black" opacity=".8" transform="translate(500 400) scale(0.1 -0.1)"><path d="M0.0 0.0H11.0C-13.0 -76.0 -57.0 -217.0 -86.0 -286.0C-13.0 -364.0 15.0 -438.0 15.0 -511.0C15.0 -553.0 6.0 -574.0 -11.0 -585.0C-20.0 -591.0 -26.0 -591.0 -37.0 -591.0C-53.0 -591.0 -91.0 -591.0 -113.0 -591.0V-608.0C-91.0 -611.0 -71.0 -615.0 -63.0 -621.0C-55.0 -626.0 -52.0 -640.0 -52.0 -656.0C37.0 -652.0 67.0 -615.0 67.0 -519.0C67.0 -441.0 34.0 -363.0 -61.0 -282.0C-25.0 -224.0 32.0 -102.0 59.0 -41.0C82.0 -41.0 95.0 -39.0 103.0 -32.0L37.0 34.0ZM-188.0 27.0V-854.0H-181.0C-158.0 -854.0 -143.0 -840.0 -143.0 -836.0V0.0H-131.0ZM42.0 0.0H-165.0V-30.0H42.0Z"/></g>
<g fill="red" transform="translate(600 400) scale(0.1 -0.1)"><path d="M0.0 0.0H12.0C6.0 -77.0 -15.0 -219.0 -32.0 -293.0C8.0 -358.0 21.0 -435.0 21.0 -504.0C21.0 -534.0 15.0 -551.0 4.0 -559.0C-2.0 -563.0 -7.0 -564.0 -16.0 -564.0C-25.0 -564.0 -48.0 -564.0 -62.0 -564.0V-576.0C-42.0 -582.0 -29.0 -591.0 -23.0 -603.0C-14.0 -618.0 -10.0 -666.0 -10.0 -700.0C100.0 -698.0 135.0 -638.0 134.0 -539.0C134.0 -456.0 90.0 -356.0 -7.0 -291.0C44.0 -227.0 103.0 -123.0 136.0 -61.0C160.0 -61.0 173.0 -57.0 180.0 -47.0L62.0 61.0ZM-175.0 52.0V-873.0H-152.0C-86.0 -873.0 -47.0 -842.0 -47.0 -832.0V0.0H-34.0ZM104.0 0.0H-109.0V-28.0H104.0Z"/></g>
<g fill="black" opacity=".8" transform="translate(600 400) scale(0.1 -0.1)"><path d="M0.0 0.0H12.0C8.0 -78.0 -13.0 -219.0 -29.0 -294.0C14.0 -356.0 28.0 -433.0 28.0 -502.0C28.0 -530.0 22.0 -545.0 11.0 -553.0C6.0 -557.0 1.0 -559.0 -8.0 -559.0C-19.0 -559.0 -43.0 -559.0 -58.0 -559.0V-570.0C-38.0 -576.0 -24.0 -586.0 -17.0 -598.0C-9.0 -615.0 -4.0 -667.0 -4.0 -702.0C112.0 -701.0 149.0 -639.0 149.0 -539.0C149.0 -456.0 103.0 -354.0 -4.0 -290.0C50.0 -227.0 109.0 -125.0 144.0 -64.0C168.0 -64.0 181.0 -60.0 190.0 -50.0L66.0 64.0ZM-173.0 52.0V-878.0H-150.0C-85.0 -878.0 -47.0 -846.0 -47.0 -837.0V0.0H-33.0ZM91.0 0.0H-114.0V-28.0H91.0Z"/></g>
<g fill="red" transform="translate(700 400) scale(0.1 -0.1)"><path d="M0.0 0.0H11.0C-20.0 -83.0 -78.0 -234.0 -111.0 -307.0C-10.0 -394.0 34.0 -473.0 34.0 -555.0C34.0 -602.0 21.0 -626.0 -2.0 -637.0C-11.0 -642.0 -18.0 -643.0 -30.0 -643.0C-55.0 -643.0 -110.0 -643.0 -140.0 -643.0V-661.0C-109.0 -663.0 -83.0 -668.0 -73.0 -673.0C-63.0 -679.0 -59.0 -690.0 -59.0 -705.0C45.0 -700.0 82.0 -659.0 82.0 -562.0C81.0 -477.0 35.0 -394.0 -87.0 -304.0C-46.0 -239.0 19.0 -108.0 52.0 -40.0C75.0 -40.0 89.0 -37.0 97.0 -31.0L36.0 34.0ZM-231.0 32.0V-834.0H-225.0C-202.0 -834.0 -187.0 -821.0 -187.0 -817.0V0.0H-175.0ZM39.0 0.0H-213.0V-30.0H39.0Z"/></g>
<g fill="black" opacity=".8" transform="translate(700 400) scale(0.1 -0.1)"><path d="M0.0 0.0H11.0C-19.0 -83.0 -75.0 -234.0 -108.0 -307.0C-10.0 -393.0 32.0 -473.0 32.0 -554.0C32.0 -601.0 20.0 -624.0 -2.0 -636.0C-12.0 -641.0 -19.0 -642.0 -31.0 -642.0C-55.0 -642.0 -107.0 -642.0 -136.0 -642.0V-661.0C-107.0 -662.0 -81.0 -667.0 -71.0 -672.0C-62.0 -678.0 -58.0 -690.0 -58.0 -704.0C45.0 -700.0 81.0 -659.0 81.0 -561.0C81.0 -476.0 36.0 -393.0 -84.0 -303.0C-44.0 -240.0 22.0 -108.0 53.0 -40.0C77.0 -40.0 90.0 -38.0 98.0 -31.0L36.0 34.0ZM-237.0 30.0V-835.0H-231.0C-207.0 -835.0 -192.0 -821.0 -192.0 -817.0V0.0H-180.0ZM36.0 0.0H-212.0V-30.0H36.0Z"/></g>
<g fill="red" transform="translate(800 400) scale(0.1 -0.1)"><path d="M0.0 0.0H12.0C8.0 -80.0 -11.0 -228.0 -27.0 -307.0C25.0 -369.0 45.0 -450.0 45.0 -521.0C45.0 -548.0 37.0 -562.0 24.0 -571.0C18.0 -575.0 13.0 -576.0 4.0 -576.0C-8.0 -576.0 -40.0 -576.0 -58.0 -576.0V-586.0C-34.0 -593.0 -20.0 -605.0 -12.0 -619.0C-2.0 -637.0 3.0 -699.0 3.0 -738.0C135.0 -737.0 180.0 -668.0 180.0 -565.0C180.0 -478.0 127.0 -367.0 -1.0 -304.0C60.0 -236.0 124.0 -134.0 163.0 -69.0C188.0 -68.0 201.0 -64.0 209.0 -53.0L71.0 70.0ZM-190.0 69.0V-855.0H-165.0C-94.0 -855.0 -53.0 -823.0 -53.0 -813.0V0.0H-39.0ZM68.0 0.0H-135.0V-28.0H68.0Z"/></g>
<g fill="black" opacity=".8" transform="translate(800 400) scale(0.1 -0.1)"><path d="M0.0 0.0H12.0C9.0 -80.0 -10.0 -227.0 -24.0 -306.0C27.0 -369.0 45.0 -450.0 45.0 -522.0C45.0 -550.0 38.0 -565.0 26.0 -573.0C21.0 -577.0 16.0 -579.0 7.0 -579.0C-6.0 -579.0 -36.0 -579.0 -54.0 -579.0V-590.0C-32.0 -596.0 -17.0 -607.0 -10.0 -621.0C-0.0 -638.0 5.0 -696.0 5.0 -733.0C131.0 -732.0 174.0 -666.0 174.0 -562.0C174.0 -477.0 124.0 -368.0 1.0 -303.0C59.0 -236.0 118.0 -131.0 154.0 -67.0C179.0 -66.0 192.0 -62.0 200.0 -52.0L69.0 67.0ZM-194.0 62.0V-857.0H-170.0C-101.0 -857.0 -61.0 -825.0 -61.0 -816.0V0.0H-46.0ZM70.0 0.0H-123.0V-28.0H70.0Z"/></g>
<g fill="red" transform="translate(900 400) scale(0.1 -0.1)"><path d="M0.0 0.0H11.0C-18.0 -83.0 -75.0 -234.0 -107.0 -307.0C-12.0 -394.0 27.0 -474.0 27.0 -555.0C27.0 -602.0 15.0 -626.0 -7.0 -637.0C-16.0 -642.0 -22.0 -643.0 -35.0 -643.0C-57.0 -643.0 -108.0 -643.0 -137.0 -643.0V-661.0C-108.0 -663.0 -83.0 -667.0 -74.0 -673.0C-64.0 -679.0 -60.0 -690.0 -60.0 -705.0C40.0 -700.0 75.0 -659.0 75.0 -561.0C75.0 -478.0 33.0 -394.0 -83.0 -304.0C-44.0 -239.0 20.0 -107.0 52.0 -40.0C75.0 -40.0 90.0 -37.0 97.0 -31.0L36.0 34.0ZM-245.0 31.0V-834.0H-239.0C-216.0 -834.0 -201.0 -821.0 -201.0 -817.0V0.0H-189.0ZM28.0 0.0H-214.0V-30.0H28.0Z"/></g>
<g fill="black" opacity=".8" transform="translate(900 400) scale(0.1 -0.1)"><path d="M0.0 0.0H11.0C-20.0 -83.0 -78.0 -234.0 -112.0 -307.0C-11.0 -394.0 32.0 -474.0 32.0 -555.0C32.0 -602.0 20.0 -625.0 -3.0 -637.0C-13.0 -642.0 -20.0 -643.0 -32.0 -643.0C-57.0 -643.0 -110.0 -643.0 -140.0 -643.0V-661.0C-110.0 -663.0 -84.0 -668.0 -74.0 -673.0C-64.0 -679.0 -61.0 -691.0 -61.0 -705.0C45.0 -700.0 81.0 -660.0 81.0 -561.0C81.0 -477.0 35.0 -393.0 -87.0 -304.0C-46.0 -240.0 21.0 -108.0 53.0 -40.0C77.0 -40.0 91.0 -38.0 99.0 -31.0L36.0 34.0ZM-244.0 31.0V-835.0H-238.0C-214.0 -835.0 -199.0 -821.0 -199.0 -817.0V0.0H-187.0ZM36.0 0.0H-219.0V-30.0H36.0Z"/></g>
<g fill="red" transform="translate(1000 400) scale(0.1 -0.1)"><path d="M0.0 0.0H12.0C9.0 -79.0 -9.0 -228.0 -24.0 -307.0C26.0 -370.0 44.0 -451.0 44.0 -522.0C44.0 -549.0 37.0 -564.0 25.0 -572.0C19.0 -576.0 14.0 -577.0 5.0 -577.0C-7.0 -577.0 -37.0 -577.0 -55.0 -577.0V-588.0C-32.0 -595.0 -18.0 -606.0 -10.0 -620.0C0.0 -638.0 5.0 -698.0 5.0 -737.0C133.0 -736.0 177.0 -668.0 177.0 -564.0C177.0 -479.0 125.0 -368.0 2.0 -304.0C60.0 -236.0 122.0 -133.0 160.0 -67.0C184.0 -67.0 197.0 -63.0 205.0 -52.0L70.0 69.0ZM-199.0 64.0V-855.0H-174.0C-104.0 -855.0 -63.0 -823.0 -63.0 -813.0V0.0H-49.0ZM68.0 0.0H-125.0V-28.0H68.0Z"/></g>
<g fill="black" opacity=".8" transform="translate(1000 400) scale(0.1 -0.1)"><path d="M0.0 0.0H12.0C8.0 -80.0 -10.0 -227.0 -26.0 -306.0C26.0 -369.0 45.0 -449.0 45.0 -521.0C45.0 -549.0 38.0 -563.0 26.0 -572.0C20.0 -576.0 16.0 -578.0 6.0 -578.0C-7.0 -578.0 -38.0 -578.0 -55.0 -578.0V-589.0C-33.0 -595.0 -18.0 -606.0 -10.0 -620.0C-1.0 -637.0 5.0 -696.0 5.0 -734.0C133.0 -733.0 176.0 -666.0 176.0 -562.0C176.0 -476.0 125.0 -367.0 -0.0 -303.0C59.0 -236.0 119.0 -132.0 157.0 -68.0C181.0 -67.0 194.0 -63.0 203.0 -52.0L70.0 68.0ZM-199.0 64.0V-857.0H-174.0C-105.0 -857.0 -64.0 -824.0 -64.0 -815.0V0.0H-49.0ZM71.0 0.0H-125.0V-28.0H71.0Z"/></g>
<g fill="red" transform="translate(1100 400) scale(0.1 -0.1)"><path d="M0.0 0.0H11.0C-16.0 -83.0 -68.0 -234.0 -98.0 -307.0C-8.0 -393.0 31.0 -473.0 31.0 -555.0C31.0 -602.0 19.0 -625.0 -1.0 -636.0C-10.0 -641.0 -16.0 -643.0 -27.0 -643.0C-50.0 -643.0 -99.0 -643.0 -126.0 -643.0V-660.0C-98.0 -662.0 -74.0 -667.0 -65.0 -672.0C-56.0 -678.0 -52.0 -690.0 -52.0 -705.0C46.0 -700.0 80.0 -661.0 80.0 -562.0C80.0 -477.0 37.0 -393.0 -74.0 -304.0C-36.0 -239.0 24.0 -107.0 54.0 -40.0C77.0 -40.0 91.0 -38.0 99.0 -31.0L36.0 34.0ZM-243.0 28.0V-834.0H-237.0C-214.0 -834.0 -199.0 -822.0 -199.0 -817.0V0.0H-187.0ZM38.0 0.0H-218.0V-30.0H38.0Z"/></g>
<g fill="black" opacity=".8" transform="translate(1100 400) scale(0.1 -0.1)"><path d="M0.0 0.0H11.0C-18.0 -83.0 -74.0 -235.0 -107.0 -308.0C-10.0 -395.0 33.0 -475.0 33.0 -556.0C33.0 -604.0 21.0 -626.0 -1.0 -639.0C-11.0 -644.0 -18.0 -645.0 -29.0 -645.0C-53.0 -645.0 -106.0 -645.0 -135.0 -645.0V-663.0C-106.0 -665.0 -80.0 -670.0 -70.0 -675.0C-61.0 -681.0 -57.0 -692.0 -57.0 -707.0C46.0 -702.0 81.0 -662.0 81.0 -563.0C81.0 -477.0 36.0 -394.0 -82.0 -305.0C-43.0 -241.0 22.0 -108.0 53.0 -40.0C77.0 -40.0 90.0 -38.0 98.0 -31.0L36.0 34.0ZM-233.0 30.0V-835.0H-228.0C-204.0 -835.0 -189.0 -821.0 -189.0 -817.0V0.0H-177.0ZM36.0 0.0H-208.0V-30.0H36.0Z"/></g>
<g fill="red" transform="translate(1200 400) scale(0.1 -0.1)"><path d="M0.0 0.0H12.0C6.0 -80.0 -15.0 -229.0 -32.0 -307.0C23.0 -373.0 45.0 -453.0 45.0 -527.0C45.0 -559.0 38.0 -575.0 25.0 -584.0C19.0 -588.0 14.0 -589.0 5.0 -589.0C-9.0 -589.0 -42.0 -589.0 -61.0 -589.0V-601.0C-38.0 -607.0 -23.0 -617.0 -15.0 -629.0C-5.0 -645.0 0.0 -696.0 0.0 -731.0C121.0 -729.0 163.0 -668.0 163.0 -564.0C163.0 -477.0 113.0 -372.0 -7.0 -304.0C47.0 -236.0 106.0 -128.0 142.0 -63.0C165.0 -62.0 178.0 -58.0 186.0 -48.0L64.0 63.0ZM-189.0 57.0V-855.0H-165.0C-99.0 -855.0 -59.0 -824.0 -59.0 -815.0V0.0H-45.0ZM69.0 0.0H-110.0V-28.0H69.0Z"/></g>
<g fill="black" opacity=".8" transform="translate(1200 400) scale(0.1 -0.1)"><path d="M0.0 0.0H12.0C9.0 -80.0 -9.0 -228.0 -23.0 -307.0C27.0 -371.0 46.0 -452.0 46.0 -524.0C46.0 -553.0 39.0 -567.0 27.0 -576.0C22.0 -580.0 17.0 -582.0 8.0 -582.0C-5.0 -582.0 -35.0 -582.0 -52.0 -582.0V-593.0C-30.0 -599.0 -16.0 -610.0 -9.0 -623.0C1.0 -640.0 6.0 -698.0 6.0 -735.0C131.0 -733.0 173.0 -668.0 173.0 -564.0C173.0 -478.0 124.0 -370.0 2.0 -303.0C59.0 -236.0 117.0 -131.0 153.0 -66.0C177.0 -66.0 190.0 -62.0 199.0 -51.0L68.0 67.0ZM-191.0 62.0V-858.0H-167.0C-99.0 -858.0 -59.0 -826.0 -59.0 -817.0V0.0H-44.0ZM69.0 0.0H-121.0V-28.0H69.0Z"/></g>
<g fill="red" transform="translate(1300 400) scale(0.1 -0.1)"><path d="M0.0 0.0H11.0C-12.0 -74.0 -56.0 -209.0 -84.0 -276.0C-12.0 -351.0 15.0 -422.0 15.0 -494.0C15.0 -533.0 6.0 -555.0 -10.0 -564.0C-18.0 -568.0 -24.0 -569.0 -36.0 -569.0C-52.0 -569.0 -89.0 -569.0 -111.0 -569.0V-586.0C-89.0 -589.0 -69.0 -593.0 -61.0 -599.0C-54.0 -605.0 -50.0 -618.0 -50.0 -634.0C37.0 -631.0 68.0 -593.0 67.0 -501.0C67.0 -427.0 34.0 -351.0 -59.0 -273.0C-23.0 -215.0 31.0 -100.0 58.0 -41.0C81.0 -41.0 95.0 -39.0 102.0 -32.0L37.0 35.0ZM-217.0 27.0V-834.0H-211.0C-188.0 -834.0 -173.0 -821.0 -173.0 -817.0V0.0H-161.0ZM20.0 0.0H-194.0V-30.0H20.0Z"/></g>
<g fill="black" opacity=".8" transform="translate(1300 400) scale(0.1 -0.1)"><path d="M0.0 0.0H11.0C-15.0 -75.0 -63.0 -213.0 -93.0 -281.0C-16.0 -358.0 13.0 -431.0 13.0 -502.0C13.0 -543.0 4.0 -564.0 -15.0 -575.0C-23.0 -581.0 -30.0 -581.0 -42.0 -581.0C-59.0 -581.0 -97.0 -581.0 -121.0 -581.0V-598.0C-98.0 -600.0 -77.0 -605.0 -69.0 -611.0C-61.0 -616.0 -58.0 -629.0 -58.0 -646.0C34.0 -642.0 65.0 -604.0 65.0 -510.0C65.0 -435.0 31.0 -357.0 -68.0 -277.0C-31.0 -220.0 29.0 -102.0 58.0 -41.0C81.0 -41.0 95.0 -39.0 102.0 -32.0L37.0 34.0ZM-202.0 27.0V-846.0H-195.0C-173.0 -846.0 -158.0 -831.0 -158.0 -827.0V0.0H-146.0ZM42.0 0.0H-181.0V-30.0H42.0Z"/></g>
<g fill="red" transform="translate(1400 400) scale(0.1 -0.1)"><path d="M0.0 0.0H12.0C7.0 -77.0 -13.0 -219.0 -30.0 -294.0C13.0 -356.0 29.0 -434.0 29.0 -502.0C29.0 -529.0 22.0 -545.0 11.0 -553.0C5.0 -556.0 0.0 -558.0 -9.0 -558.0C-19.0 -558.0 -45.0 -558.0 -61.0 -558.0V-569.0C-39.0 -575.0 -25.0 -586.0 -18.0 -598.0C-9.0 -616.0 -5.0 -669.0 -5.0 -706.0C115.0 -706.0 154.0 -641.0 154.0 -542.0C154.0 -458.0 105.0 -354.0 -4.0 -291.0C51.0 -228.0 114.0 -127.0 150.0 -65.0C174.0 -65.0 187.0 -61.0 195.0 -51.0L67.0 66.0ZM-177.0 53.0V-873.0H-153.0C-87.0 -873.0 -47.0 -841.0 -47.0 -832.0V0.0H-33.0ZM98.0 0.0H-115.0V-28.0H98.0Z"/></g>
<g fill="black" opacity=".8" transform="translate(1400 400) scale(0.1 -0.1)"><path d="M0.0 0.0H12.0C7.0 -77.0 -16.0 -215.0 -33.0 -289.0C11.0 -349.0 27.0 -424.0 27.0 -491.0C27.0 -518.0 20.0 -533.0 8.0 -540.0C3.0 -544.0 -2.0 -546.0 -11.0 -546.0C-22.0 -546.0 -48.0 -546.0 -63.0 -546.0V-557.0C-42.0 -563.0 -27.0 -573.0 -21.0 -586.0C-13.0 -603.0 -7.0 -656.0 -7.0 -693.0C113.0 -692.0 151.0 -628.0 151.0 -531.0C151.0 -448.0 103.0 -346.0 -8.0 -286.0C49.0 -224.0 112.0 -126.0 149.0 -65.0C174.0 -65.0 187.0 -61.0 195.0 -52.0L68.0 66.0ZM-184.0 54.0V-867.0H-160.0C-94.0 -867.0 -55.0 -835.0 -55.0 -826.0V0.0H-41.0ZM94.0 0.0H-119.0V-28.0H94.0Z"/></g>
<g fill="red" transform="translate(1500 400) scale(0.1 -0.1)"><path d="M0.0 0.0H11.0C-14.0 -77.0 -62.0 -219.0 -90.0 -288.0C-12.0 -367.0 19.0 -441.0 19.0 -516.0C19.0 -559.0 9.0 -580.0 -9.0 -591.0C-17.0 -596.0 -23.0 -597.0 -35.0 -597.0C-53.0 -597.0 -95.0 -597.0 -119.0 -597.0V-614.0C-94.0 -616.0 -73.0 -621.0 -65.0 -627.0C-57.0 -633.0 -53.0 -645.0 -53.0 -663.0C40.0 -658.0 72.0 -620.0 72.0 -525.0C71.0 -446.0 35.0 -367.0 -66.0 -285.0C-29.0 -225.0 29.0 -103.0 58.0 -41.0C81.0 -41.0 95.0 -39.0 103.0 -32.0L37.0 35.0ZM-207.0 27.0V-851.0H-200.0C-178.0 -851.0 -163.0 -837.0 -163.0 -833.0V0.0H-151.0ZM40.0 0.0H-184.0V-30.0H40.0Z"/></g>
<g fill="black" opacity=".8" transform="translate(1500 400) scale(0.1 -0.1)"><path d="M0.0 0.0H11.0C-15.0 -77.0 -64.0 -219.0 -95.0 -288.0C-14.0 -368.0 17.0 -443.0 17.0 -517.0C17.0 -560.0 7.0 -581.0 -11.0 -592.0C-21.0 -598.0 -27.0 -598.0 -39.0 -598.0C-57.0 -598.0 -98.0 -598.0 -123.0 -598.0V-615.0C-99.0 -618.0 -77.0 -622.0 -68.0 -628.0C-60.0 -634.0 -57.0 -647.0 -57.0 -663.0C37.0 -659.0 69.0 -620.0 69.0 -525.0C69.0 -447.0 33.0 -367.0 -70.0 -285.0C-32.0 -226.0 28.0 -103.0 57.0 -41.0C81.0 -41.0 94.0 -39.0 102.0 -32.0L37.0 34.0ZM-207.0 28.0V-849.0H-200.0C-177.0 -849.0 -162.0 -835.0 -162.0 -831.0V0.0H-150.0ZM41.0 0.0H-184.0V-30.0H41.0Z"/></g>
<g fill="red" transform="translate(1600 400) scale(0.1 -0.1)"><path d="M0.0 0.0H12.0C7.0 -77.0 -13.0 -219.0 -29.0 -294.0C18.0 -356.0 35.0 -433.0 35.0 -501.0C35.0 -528.0 28.0 -543.0 16.0 -551.0C10.0 -554.0 5.0 -556.0 -4.0 -556.0C-15.0 -556.0 -43.0 -556.0 -60.0 -556.0V-567.0C-37.0 -573.0 -23.0 -584.0 -16.0 -597.0C-6.0 -615.0 -2.0 -671.0 -2.0 -709.0C122.0 -708.0 164.0 -642.0 164.0 -542.0C164.0 -458.0 113.0 -353.0 -4.0 -292.0C54.0 -228.0 117.0 -129.0 154.0 -66.0C178.0 -66.0 192.0 -62.0 199.0 -52.0L69.0 67.0ZM-185.0 54.0V-873.0H-161.0C-93.0 -873.0 -53.0 -841.0 -53.0 -831.0V0.0H-40.0ZM90.0 0.0H-123.0V-28.0H90.0Z"/></g>
<g fill="black" opacity=".8" transform="translate(1600 400) scale(0.1 -0.1)"><path d="M0.0 0.0H12.0C7.0 -78.0 -14.0 -219.0 -31.0 -295.0C15.0 -356.0 31.0 -433.0 31.0 -502.0C31.0 -530.0 24.0 -544.0 12.0 -552.0C7.0 -556.0 2.0 -558.0 -7.0 -558.0C-18.0 -558.0 -45.0 -558.0 -60.0 -558.0V-569.0C-39.0 -575.0 -25.0 -586.0 -18.0 -598.0C-9.0 -615.0 -4.0 -670.0 -4.0 -706.0C117.0 -705.0 156.0 -641.0 156.0 -541.0C156.0 -458.0 108.0 -354.0 -5.0 -291.0C51.0 -228.0 113.0 -127.0 150.0 -66.0C174.0 -65.0 187.0 -62.0 196.0 -52.0L68.0 66.0ZM-184.0 55.0V-872.0H-161.0C-94.0 -872.0 -54.0 -840.0 -54.0 -830.0V0.0H-40.0ZM89.0 0.0H-119.0V-28.0H89.0Z"/></g>
<g fill="red" transform="translate(100 500) scale(0.1 -0.1)"><path d="M0.0 0.0H11.0C-15.0 -78.0 -65.0 -220.0 -95.0 -289.0C-15.0 -369.0 16.0 -444.0 16.0 -519.0C16.0 -562.0 6.0 -584.0 -13.0 -595.0C-22.0 -600.0 -27.0 -601.0 -39.0 -601.0C-58.0 -601.0 -100.0 -601.0 -124.0 -601.0V-618.0C-100.0 -620.0 -78.0 -624.0 -70.0 -630.0C-61.0 -635.0 -57.0 -648.0 -57.0 -665.0C35.0 -659.0 67.0 -621.0 67.0 -526.0C66.0 -449.0 31.0 -369.0 -71.0 -286.0C-33.0 -226.0 26.0 -103.0 56.0 -41.0C79.0 -40.0 93.0 -38.0 101.0 -32.0L37.0 35.0ZM-195.0 27.0V-847.0H-188.0C-166.0 -847.0 -151.0 -833.0 -151.0 -830.0V0.0H-139.0ZM42.0 0.0H-172.0V-30.0H42.0Z"/></g>
<g fill="black" opacity=".8" transform="translate(100 500) scale(0.1 -0.1)"><path d="M0.0 0.0H11.0C-14.0 -77.0 -61.0 -220.0 -90.0 -289.0C-13.0 -369.0 18.0 -444.0 18.0 -519.0C18.0 -562.0 9.0 -583.0 -10.0 -594.0C-18.0 -600.0 -24.0 -600.0 -36.0 -600.0C-54.0 -600.0 -94.0 -600.0 -117.0 -600.0V-618.0C-94.0 -620.0 -73.0 -625.0 -65.0 -630.0C-57.0 -636.0 -53.0 -649.0 -53.0 -665.0C39.0 -661.0 70.0 -623.0 70.0 -526.0C70.0 -448.0 34.0 -369.0 -65.0 -286.0C-29.0 -227.0 30.0 -103.0 57.0 -41.0C81.0 -41.0 94.0 -39.0 102.0 -32.0L37.0 34.0ZM-197.0 28.0V-849.0H-190.0C-167.0 -849.0 -152.0 -835.0 -152.0 -831.0V0.0H-140.0ZM41.0 0.0H-174.0V-30.0H41.0Z"/></g>
<g fill="red" transform="translate(200 500) scale(0.1 -0.1)"><path d="M0.0 0.0H12.0C7.0 -77.0 -13.0 -220.0 -29.0 -295.0C17.0 -358.0 33.0 -435.0 33.0 -505.0C33.0 -534.0 27.0 -550.0 15.0 -558.0C10.0 -562.0 5.0 -563.0 -4.0 -563.0C-15.0 -563.0 -42.0 -563.0 -58.0 -563.0V-575.0C-37.0 -581.0 -23.0 -590.0 -16.0 -603.0C-7.0 -619.0 -3.0 -671.0 -3.0 -706.0C115.0 -705.0 154.0 -643.0 154.0 -543.0C154.0 -459.0 106.0 -357.0 -4.0 -292.0C50.0 -228.0 109.0 -126.0 144.0 -63.0C167.0 -63.0 181.0 -59.0 188.0 -49.0L65.0 63.0ZM-176.0 53.0V-873.0H-152.0C-86.0 -873.0 -46.0 -841.0 -46.0 -832.0V0.0H-32.0ZM89.0 0.0H-119.0V-28.0H89.0Z"/></g>
<g fill="black" opacity=".8" transform="translate(200 500) scale(0.1 -0.1)"><path d="M0.0 0.0H12.0C8.0 -78.0 -12.0 -220.0 -28.0 -296.0C16.0 -358.0 32.0 -436.0 32.0 -505.0C32.0 -533.0 25.0 -548.0 14.0 -556.0C8.0 -560.0 4.0 -562.0 -5.0 -562.0C-16.0 -562.0 -42.0 -562.0 -57.0 -562.0V-573.0C-37.0 -579.0 -22.0 -589.0 -16.0 -602.0C-8.0 -618.0 -2.0 -672.0 -2.0 -707.0C116.0 -706.0 153.0 -643.0 153.0 -543.0C153.0 -460.0 107.0 -356.0 -3.0 -292.0C52.0 -229.0 111.0 -126.0 146.0 -65.0C170.0 -64.0 183.0 -60.0 192.0 -50.0L66.0 65.0ZM-177.0 54.0V-872.0H-154.0C-88.0 -872.0 -50.0 -841.0 -50.0 -832.0V0.0H-35.0ZM87.0 0.0H-115.0V-28.0H87.0Z"/></g>
<g fill="red" transform="translate(300 500) scale(0.1 -0.1)"><path d="M0.0 0.0H11.0C-14.0 -77.0 -62.0 -219.0 -90.0 -288.0C-12.0 -367.0 19.0 -441.0 19.0 -516.0C19.0 -559.0 9.0 -580.0 -9.0 -591.0C-17.0 -596.0 -23.0 -597.0 -35.0 -597.0C-53.0 -597.0 -95.0 -597.0 -119.0 -597.0V-614.0C-94.0 -616.0 -73.0 -621.0 -65.0 -627.0C-57.0 -633.0 -53.0 -645.0 -53.0 -663.0C40.0 -658.0 72.0 -620.0 72.0 -525.0C71.0 -446.0 35.0 -367.0 -66.0 -285.0C-29.0 -225.0 29.0 -103.0 58.0 -41.0C81.0 -41.0 95.0 -39.0 103.0 -32.0L37.0 35.0ZM-185.0 27.0V-851.0H-178.0C-156.0 -851.0 -141.0 -837.0 -141.0 -833.0V0.0H-129.0ZM42.0 0.0H-163.0V-30.0H42.0Z"/></g>
<g fill="black" opacity=".8" transform="translate(300 500) scale(0.1 -0.1)"><path d="M0.0 0.0H11.0C-13.0 -76.0 -57.0 -219.0 -85.0 -288.0C-11.0 -367.0 18.0 -441.0 18.0 -516.0C18.0 -559.0 9.0 -580.0 -9.0 -591.0C-17.0 -597.0 -23.0 -597.0 -34.0 -597.0C-51.0 -597.0 -89.0 -597.0 -111.0 -597.0V-614.0C-89.0 -616.0 -69.0 -621.0 -61.0 -627.0C-53.0 -632.0 -50.0 -645.0 -50.0 -661.0C40.0 -657.0 69.0 -620.0 69.0 -524.0C69.0 -445.0 35.0 -367.0 -60.0 -284.0C-25.0 -225.0 31.0 -102.0 58.0 -41.0C81.0 -41.0 94.0 -39.0 101.0 -32.0L37.0 34.0ZM-185.0 27.0V-849.0H-178.0C-156.0 -849.0 -141.0 -834.0 -141.0 -830.0V0.0H-129.0ZM41.0 0.0H-163.0V-30.0H41.0Z"/></g>
<g fill="red" transform="translate(400 500) scale(0.1 -0.1)"><path d="M0.0 0.0H12.0C6.0 -77.0 -15.0 -219.0 -32.0 -293.0C14.0 -357.0 32.0 -434.0 32.0 -504.0C32.0 -535.0 25.0 -551.0 14.0 -559.0C8.0 -563.0 3.0 -564.0 -6.0 -564.0C-17.0 -564.0 -45.0 -564.0 -61.0 -564.0V-576.0C-40.0 -582.0 -26.0 -591.0 -19.0 -603.0C-10.0 -618.0 -6.0 -666.0 -6.0 -699.0C108.0 -698.0 146.0 -639.0 145.0 -539.0C145.0 -455.0 100.0 -356.0 -7.0 -290.0C44.0 -227.0 102.0 -123.0 136.0 -61.0C159.0 -61.0 173.0 -57.0 180.0 -47.0L62.0 61.0ZM-169.0 52.0V-873.0H-146.0C-82.0 -873.0 -44.0 -842.0 -44.0 -833.0V0.0H-30.0ZM67.0 0.0H-93.0V-28.0H67.0Z"/></g>
<g fill="black" opacity=".8" transform="translate(400 500) scale(0.1 -0.1)"><path d="M0.0 0.0H12.0C8.0 -78.0 -11.0 -220.0 -26.0 -295.0C16.0 -357.0 31.0 -435.0 31.0 -505.0C31.0 -534.0 24.0 -549.0 14.0 -557.0C9.0 -561.0 4.0 -563.0 -5.0 -563.0C-16.0 -563.0 -40.0 -563.0 -55.0 -563.0V-574.0C-35.0 -580.0 -21.0 -590.0 -15.0 -602.0C-7.0 -618.0 -1.0 -670.0 -1.0 -704.0C113.0 -703.0 149.0 -642.0 149.0 -541.0C149.0 -459.0 105.0 -356.0 -1.0 -292.0C51.0 -228.0 108.0 -125.0 142.0 -63.0C166.0 -63.0 178.0 -59.0 187.0 -49.0L65.0 63.0ZM-170.0 52.0V-873.0H-147.0C-82.0 -873.0 -45.0 -842.0 -45.0 -833.0V0.0H-30.0ZM87.0 0.0H-111.0V-28.0H87.0Z"/></g>
<g fill="red" transform="translate(500 500) scale(0.1 -0.1)"><path d="M0.0 0.0H11.0C-11.0 -76.0 -54.0 -217.0 -81.0 -286.0C-13.0 -364.0 11.0 -437.0 11.0 -512.0C11.0 -554.0 2.0 -576.0 -14.0 -586.0C-21.0 -591.0 -27.0 -592.0 -38.0 -592.0C-52.0 -592.0 -88.0 -592.0 -108.0 -592.0V-608.0C-88.0 -611.0 -69.0 -615.0 -61.0 -621.0C-53.0 -627.0 -50.0 -640.0 -50.0 -657.0C35.0 -652.0 64.0 -615.0 63.0 -520.0C63.0 -443.0 32.0 -365.0 -56.0 -283.0C-22.0 -223.0 32.0 -102.0 59.0 -41.0C81.0 -41.0 95.0 -39.0 103.0 -32.0L37.0 35.0ZM-176.0 27.0V-851.0H-169.0C-147.0 -851.0 -132.0 -837.0 -132.0 -833.0V0.0H-120.0ZM51.0 0.0H-154.0V-30.0H51.0Z"/></g>
<g fill="black" opacity=".8" transform="translate(500 500) scale(0.1 -0.1)"><path d="M0.0 0.0H11.0C-12.0 -74.0 -56.0 -212.0 -84.0 -279.0C-14.0 -355.0 13.0 -427.0 13.0 -499.0C13.0 -540.0 4.0 -560.0 -13.0 -571.0C-21.0 -576.0 -26.0 -577.0 -38.0 -577.0C-53.0 -577.0 -89.0 -577.0 -110.0 -577.0V-594.0C-89.0 -596.0 -70.0 -601.0 -62.0 -606.0C-55.0 -612.0 -52.0 -625.0 -52.0 -641.0C36.0 -638.0 65.0 -601.0 65.0 -507.0C65.0 -431.0 33.0 -355.0 -59.0 -275.0C-24.0 -219.0 32.0 -100.0 58.0 -41.0C81.0 -41.0 94.0 -39.0 102.0 -32.0L36.0 34.0ZM-182.0 26.0V-843.0H-175.0C-153.0 -843.0 -138.0 -829.0 -138.0 -825.0V0.0H-126.0ZM42.0 0.0H-161.0V-29.0H42.0Z"/></g>
<g fill="red" transform="translate(600 500) scale(0.1 -0.1)"><path d="M0.0 0.0H12.0C7.0 -73.0 -14.0 -207.0 -30.0 -278.0C8.0 -337.0 22.0 -409.0 22.0 -475.0C22.0 -501.0 16.0 -516.0 6.0 -523.0C0.0 -527.0 -5.0 -528.0 -14.0 -528.0C-22.0 -528.0 -46.0 -528.0 -59.0 -528.0V-539.0C-39.0 -545.0 -26.0 -555.0 -20.0 -568.0C-11.0 -584.0 -7.0 -635.0 -7.0 -670.0C107.0 -669.0 144.0 -608.0 144.0 -513.0C143.0 -433.0 97.0 -335.0 -5.0 -276.0C49.0 -216.0 109.0 -122.0 144.0 -64.0C168.0 -63.0 181.0 -60.0 189.0 -50.0L66.0 64.0ZM-169.0 52.0V-873.0H-146.0C-80.0 -873.0 -41.0 -842.0 -41.0 -832.0V0.0H-28.0ZM106.0 0.0H-107.0V-28.0H106.0Z"/></g>
<g fill="black" opacity=".8" transform="translate(600 500) scale(0.1 -0.1)"><path d="M0.0 0.0H12.0C7.0 -76.0 -13.0 -214.0 -29.0 -288.0C12.0 -349.0 26.0 -424.0 26.0 -492.0C26.0 -520.0 20.0 -534.0 9.0 -542.0C4.0 -546.0 -1.0 -548.0 -10.0 -548.0C-20.0 -548.0 -44.0 -548.0 -58.0 -548.0V-559.0C-38.0 -564.0 -25.0 -575.0 -18.0 -586.0C-11.0 -603.0 -5.0 -654.0 -5.0 -689.0C109.0 -687.0 145.0 -626.0 145.0 -529.0C145.0 -447.0 100.0 -347.0 -4.0 -285.0C48.0 -223.0 107.0 -123.0 142.0 -63.0C166.0 -63.0 178.0 -59.0 187.0 -50.0L65.0 63.0ZM-170.0 50.0V-866.0H-148.0C-83.0 -866.0 -46.0 -835.0 -46.0 -826.0V0.0H-32.0ZM93.0 0.0H-112.0V-28.0H93.0Z"/></g>
<g fill="red" transform="translate(700 500) scale(0.1 -0.1)"><path d="M0.0 0.0H11.0C-9.0 -76.0 -49.0 -218.0 -75.0 -287.0C-9.0 -365.0 15.0 -438.0 15.0 -514.0C15.0 -557.0 6.0 -579.0 -9.0 -588.0C-16.0 -593.0 -22.0 -594.0 -32.0 -594.0C-47.0 -594.0 -82.0 -594.0 -100.0 -594.0V-611.0C-81.0 -613.0 -63.0 -618.0 -55.0 -623.0C-48.0 -630.0 -44.0 -643.0 -44.0 -660.0C40.0 -655.0 67.0 -619.0 67.0 -522.0C67.0 -443.0 36.0 -366.0 -50.0 -284.0C-18.0 -224.0 34.0 -102.0 59.0 -41.0C81.0 -40.0 95.0 -38.0 103.0 -32.0L37.0 35.0ZM-166.0 27.0V-851.0H-159.0C-137.0 -851.0 -122.0 -837.0 -122.0 -833.0V0.0H-110.0ZM46.0 0.0H-144.0V-30.0H46.0Z"/></g>
<g fill="black" opacity=".8" transform="translate(700 500) scale(0.1 -0.1)"><path d="M0.0 0.0H11.0C-10.0 -75.0 -51.0 -217.0 -77.0 -286.0C-10.0 -363.0 15.0 -437.0 15.0 -511.0C15.0 -554.0 8.0 -575.0 -9.0 -586.0C-17.0 -591.0 -22.0 -591.0 -33.0 -591.0C-48.0 -591.0 -82.0 -591.0 -102.0 -591.0V-608.0C-82.0 -611.0 -64.0 -616.0 -56.0 -621.0C-49.0 -626.0 -46.0 -640.0 -46.0 -656.0C40.0 -652.0 67.0 -617.0 67.0 -519.0C67.0 -441.0 36.0 -363.0 -52.0 -282.0C-19.0 -224.0 34.0 -101.0 59.0 -41.0C82.0 -41.0 94.0 -39.0 102.0 -32.0L37.0 34.0ZM-169.0 26.0V-854.0H-162.0C-139.0 -854.0 -124.0 -839.0 -124.0 -835.0V0.0H-112.0ZM42.0 0.0H-146.0V-30.0H42.0Z"/></g>
<g fill="red" transform="translate(800 500) scale(0.1 -0.1)"><path d="M0.0 0.0H12.0C6.0 -77.0 -16.0 -219.0 -33.0 -293.0C10.0 -358.0 26.0 -435.0 26.0 -505.0C26.0 -536.0 19.0 -553.0 8.0 -561.0C2.0 -565.0 -3.0 -566.0 -12.0 -566.0C-21.0 -566.0 -47.0 -566.0 -62.0 -566.0V-579.0C-42.0 -584.0 -28.0 -593.0 -22.0 -604.0C-13.0 -619.0 -9.0 -665.0 -9.0 -697.0C100.0 -696.0 135.0 -638.0 135.0 -538.0C135.0 -455.0 91.0 -357.0 -8.0 -290.0C42.0 -227.0 98.0 -122.0 131.0 -60.0C154.0 -59.0 167.0 -56.0 175.0 -46.0L61.0 59.0ZM-168.0 51.0V-873.0H-145.0C-82.0 -873.0 -45.0 -843.0 -45.0 -833.0V0.0H-31.0ZM107.0 0.0H-106.0V-28.0H107.0Z"/></g>
<g fill="black" opacity=".8" transform="translate(800 500) scale(0.1 -0.1)"><path d="M0.0 0.0H12.0C8.0 -77.0 -10.0 -219.0 -24.0 -294.0C16.0 -357.0 29.0 -436.0 29.0 -506.0C29.0 -535.0 22.0 -550.0 12.0 -558.0C7.0 -562.0 3.0 -564.0 -6.0 -564.0C-16.0 -564.0 -39.0 -564.0 -53.0 -564.0V-576.0C-34.0 -581.0 -20.0 -591.0 -14.0 -602.0C-7.0 -618.0 -2.0 -668.0 -2.0 -701.0C109.0 -700.0 143.0 -640.0 143.0 -540.0C143.0 -458.0 101.0 -357.0 1.0 -291.0C51.0 -227.0 105.0 -123.0 137.0 -62.0C161.0 -61.0 173.0 -58.0 182.0 -48.0L63.0 61.0ZM-160.0 49.0V-879.0H-138.0C-75.0 -879.0 -38.0 -848.0 -38.0 -840.0V0.0H-24.0ZM89.0 0.0H-106.0V-28.0H89.0Z"/></g>
<g fill="red" transform="translate(900 500) scale(0.1 -0.1)"><path d="M0.0 0.0H11.0C-18.0 -75.0 -73.0 -210.0 -105.0 -276.0C-14.0 -354.0 24.0 -425.0 24.0 -497.0C24.0 -537.0 13.0 -559.0 -7.0 -568.0C-17.0 -573.0 -23.0 -575.0 -36.0 -575.0C-58.0 -575.0 -106.0 -575.0 -134.0 -575.0V-592.0C-106.0 -594.0 -82.0 -598.0 -73.0 -604.0C-64.0 -609.0 -60.0 -620.0 -60.0 -635.0C38.0 -630.0 73.0 -592.0 72.0 -502.0C72.0 -428.0 31.0 -353.0 -81.0 -273.0C-42.0 -216.0 19.0 -100.0 51.0 -40.0C74.0 -40.0 89.0 -38.0 96.0 -31.0L35.0 33.0ZM-249.0 32.0V-826.0H-243.0C-220.0 -826.0 -205.0 -813.0 -205.0 -808.0V0.0H-193.0ZM33.0 0.0H-228.0V-30.0H33.0Z"/></g>
<g fill="black" opacity=".8" transform="translate(900 500) scale(0.1 -0.1)"><path d="M0.0 0.0H11.0C-19.0 -76.0 -75.0 -213.0 -110.0 -279.0C-19.0 -358.0 17.0 -431.0 17.0 -501.0C17.0 -542.0 5.0 -563.0 -16.0 -574.0C-25.0 -580.0 -32.0 -580.0 -46.0 -580.0C-66.0 -580.0 -111.0 -580.0 -139.0 -580.0V-597.0C-113.0 -599.0 -88.0 -604.0 -79.0 -610.0C-71.0 -615.0 -67.0 -627.0 -67.0 -644.0C32.0 -639.0 67.0 -599.0 67.0 -509.0C67.0 -435.0 28.0 -356.0 -85.0 -276.0C-44.0 -220.0 22.0 -102.0 55.0 -41.0C79.0 -41.0 92.0 -39.0 100.0 -32.0L36.0 33.0ZM-237.0 29.0V-821.0H-230.0C-207.0 -821.0 -192.0 -807.0 -192.0 -803.0V0.0H-181.0ZM40.0 0.0H-216.0V-29.0H40.0Z"/></g>
<g fill="red" transform="translate(1000 500) scale(0.1 -0.1)"><path d="M0.0 0.0H12.0C8.0 -74.0 -10.0 -209.0 -26.0 -283.0C23.0 -341.0 42.0 -413.0 42.0 -478.0C42.0 -502.0 35.0 -516.0 24.0 -523.0C18.0 -527.0 13.0 -528.0 4.0 -528.0C-8.0 -528.0 -38.0 -528.0 -55.0 -528.0V-538.0C-32.0 -545.0 -18.0 -556.0 -11.0 -570.0C-1.0 -589.0 4.0 -649.0 4.0 -687.0C134.0 -686.0 178.0 -620.0 178.0 -523.0C178.0 -442.0 126.0 -338.0 -1.0 -281.0C59.0 -220.0 122.0 -128.0 161.0 -68.0C185.0 -68.0 199.0 -64.0 206.0 -54.0L72.0 70.0ZM-192.0 70.0V-855.0H-166.0C-95.0 -855.0 -52.0 -822.0 -52.0 -812.0V0.0H-38.0ZM86.0 0.0H-117.0V-28.0H86.0Z"/></g>
<g fill="black" opacity=".8" transform="translate(1000 500) scale(0.1 -0.1)"><path d="M0.0 0.0H12.0C6.0 -77.0 -19.0 -211.0 -38.0 -284.0C12.0 -342.0 30.0 -415.0 30.0 -480.0C30.0 -504.0 23.0 -518.0 10.0 -525.0C5.0 -529.0 -0.0 -531.0 -10.0 -531.0C-22.0 -531.0 -51.0 -531.0 -67.0 -531.0V-541.0C-45.0 -547.0 -30.0 -559.0 -22.0 -572.0C-14.0 -590.0 -7.0 -647.0 -7.0 -686.0C120.0 -686.0 162.0 -618.0 162.0 -523.0C162.0 -441.0 109.0 -338.0 -13.0 -281.0C49.0 -221.0 118.0 -127.0 158.0 -68.0C183.0 -68.0 196.0 -63.0 204.0 -54.0L72.0 69.0ZM-204.0 60.0V-839.0H-179.0C-110.0 -839.0 -69.0 -807.0 -69.0 -797.0V0.0H-55.0ZM90.0 0.0H-129.0V-27.0H90.0Z"/></g>
<g fill="red" transform="translate(1100 500) scale(0.1 -0.1)"><path d="M0.0 0.0H11.0C-16.0 -76.0 -68.0 -212.0 -100.0 -281.0C-21.0 -359.0 6.0 -433.0 6.0 -501.0C6.0 -542.0 -4.0 -565.0 -22.0 -574.0C-32.0 -580.0 -39.0 -581.0 -51.0 -581.0C-67.0 -581.0 -107.0 -581.0 -131.0 -581.0V-597.0C-108.0 -600.0 -86.0 -604.0 -78.0 -610.0C-70.0 -616.0 -66.0 -629.0 -66.0 -646.0C25.0 -641.0 59.0 -601.0 58.0 -510.0C58.0 -437.0 25.0 -358.0 -76.0 -277.0C-36.0 -220.0 26.0 -102.0 57.0 -42.0C81.0 -41.0 95.0 -39.0 103.0 -33.0L37.0 35.0ZM-196.0 27.0V-838.0H-190.0C-167.0 -838.0 -152.0 -826.0 -152.0 -821.0V0.0H-140.0ZM49.0 0.0H-180.0V-30.0H49.0Z"/></g>
<g fill="black" opacity=".8" transform="translate(1100 500) scale(0.1 -0.1)"><path d="M0.0 0.0H11.0C-14.0 -75.0 -61.0 -214.0 -92.0 -282.0C-15.0 -359.0 13.0 -432.0 13.0 -504.0C13.0 -545.0 4.0 -566.0 -14.0 -577.0C-23.0 -582.0 -29.0 -582.0 -41.0 -582.0C-58.0 -582.0 -96.0 -582.0 -119.0 -582.0V-600.0C-97.0 -602.0 -76.0 -607.0 -68.0 -612.0C-60.0 -618.0 -57.0 -631.0 -57.0 -648.0C35.0 -644.0 66.0 -606.0 66.0 -512.0C66.0 -436.0 32.0 -358.0 -67.0 -278.0C-29.0 -221.0 30.0 -102.0 58.0 -41.0C82.0 -41.0 95.0 -39.0 102.0 -32.0L37.0 34.0ZM-199.0 27.0V-848.0H-192.0C-169.0 -848.0 -154.0 -833.0 -154.0 -829.0V0.0H-142.0ZM42.0 0.0H-177.0V-30.0H42.0Z"/></g>
<g fill="red" transform="translate(1200 500) scale(0.1 -0.1)"><path d="M0.0 0.0H12.0C5.0 -76.0 -18.0 -216.0 -36.0 -290.0C15.0 -353.0 35.0 -427.0 35.0 -496.0C35.0 -525.0 28.0 -541.0 16.0 -549.0C10.0 -553.0 4.0 -554.0 -5.0 -554.0C-17.0 -554.0 -47.0 -554.0 -65.0 -554.0V-566.0C-42.0 -572.0 -28.0 -581.0 -20.0 -594.0C-11.0 -610.0 -6.0 -660.0 -6.0 -695.0C114.0 -693.0 154.0 -633.0 154.0 -534.0C154.0 -450.0 105.0 -350.0 -10.0 -287.0C44.0 -225.0 106.0 -124.0 142.0 -63.0C166.0 -63.0 179.0 -59.0 187.0 -49.0L65.0 63.0ZM-176.0 53.0V-873.0H-152.0C-87.0 -873.0 -48.0 -842.0 -48.0 -832.0V0.0H-34.0ZM99.0 0.0H-114.0V-28.0H99.0Z"/></g>
<g fill="black" opacity=".8" transform="translate(1200 500) scale(0.1 -0.1)"><path d="M0.0 0.0H12.0C7.0 -77.0 -15.0 -216.0 -32.0 -290.0C12.0 -350.0 27.0 -426.0 27.0 -494.0C27.0 -521.0 20.0 -535.0 9.0 -543.0C3.0 -547.0 -1.0 -548.0 -11.0 -548.0C-22.0 -548.0 -47.0 -548.0 -62.0 -548.0V-560.0C-41.0 -565.0 -27.0 -576.0 -20.0 -588.0C-12.0 -605.0 -6.0 -658.0 -6.0 -695.0C113.0 -694.0 150.0 -630.0 150.0 -533.0C150.0 -450.0 103.0 -348.0 -7.0 -287.0C49.0 -225.0 112.0 -126.0 148.0 -65.0C172.0 -65.0 186.0 -61.0 194.0 -51.0L68.0 65.0ZM-182.0 53.0V-870.0H-158.0C-92.0 -870.0 -53.0 -838.0 -53.0 -829.0V0.0H-39.0ZM94.0 0.0H-118.0V-28.0H94.0Z"/></g>
<g fill="red" transform="translate(1300 500) scale(0.1 -0.1)"><path d="M0.0 0.0H11.0C-10.0 -76.0 -51.0 -218.0 -76.0 -287.0C-5.0 -365.0 25.0 -438.0 25.0 -515.0C25.0 -559.0 17.0 -580.0 1.0 -590.0C-7.0 -595.0 -13.0 -596.0 -23.0 -596.0C-40.0 -596.0 -80.0 -596.0 -100.0 -596.0V-614.0C-79.0 -616.0 -59.0 -620.0 -51.0 -625.0C-43.0 -631.0 -40.0 -642.0 -40.0 -658.0C45.0 -652.0 74.0 -619.0 74.0 -522.0C74.0 -441.0 39.0 -366.0 -51.0 -284.0C-20.0 -223.0 30.0 -101.0 55.0 -40.0C77.0 -39.0 90.0 -37.0 98.0 -31.0L36.0 34.0ZM-171.0 27.0V-818.0H-165.0C-142.0 -818.0 -127.0 -804.0 -127.0 -800.0V0.0H-115.0ZM35.0 0.0H-141.0V-30.0H35.0Z"/></g>
<g fill="black" opacity=".8" transform="translate(1300 500) scale(0.1 -0.1)"><path d="M0.0 0.0H10.0C-11.0 -76.0 -51.0 -220.0 -76.0 -289.0C-6.0 -368.0 24.0 -442.0 24.0 -519.0C24.0 -564.0 16.0 -584.0 -1.0 -596.0C-9.0 -601.0 -14.0 -601.0 -23.0 -601.0C-41.0 -601.0 -79.0 -601.0 -100.0 -601.0V-619.0C-78.0 -620.0 -59.0 -625.0 -51.0 -630.0C-44.0 -635.0 -41.0 -647.0 -41.0 -662.0C45.0 -658.0 73.0 -624.0 73.0 -527.0C73.0 -445.0 38.0 -369.0 -52.0 -286.0C-21.0 -226.0 31.0 -101.0 55.0 -39.0C76.0 -39.0 89.0 -37.0 96.0 -30.0L35.0 33.0ZM-168.0 26.0V-820.0H-162.0C-140.0 -820.0 -125.0 -806.0 -125.0 -802.0V0.0H-113.0ZM38.0 0.0H-144.0V-29.0H38.0Z"/></g>
<g fill="red" transform="translate(1400 500) scale(0.1 -0.1)"><path d="M0.0 0.0H11.0C11.0 -75.0 0.0 -219.0 -10.0 -295.0C32.0 -358.0 47.0 -435.0 47.0 -508.0C47.0 -537.0 41.0 -552.0 32.0 -560.0C27.0 -564.0 23.0 -565.0 16.0 -565.0C5.0 -565.0 -22.0 -565.0 -36.0 -565.0V-577.0C-17.0 -583.0 -5.0 -592.0 1.0 -604.0C10.0 -620.0 14.0 -671.0 14.0 -703.0C125.0 -701.0 163.0 -644.0 163.0 -542.0C163.0 -461.0 122.0 -359.0 14.0 -292.0C62.0 -226.0 107.0 -123.0 137.0 -61.0C160.0 -60.0 172.0 -57.0 180.0 -46.0L61.0 61.0ZM-146.0 48.0V-851.0H-125.0C-67.0 -851.0 -32.0 -823.0 -32.0 -815.0V0.0H-19.0ZM76.0 0.0H-103.0V-28.0H76.0Z"/></g>
<g fill="black" opacity=".8" transform="translate(1400 500) scale(0.1 -0.1)"><path d="M0.0 0.0H11.0C9.0 -76.0 -5.0 -219.0 -16.0 -294.0C23.0 -356.0 37.0 -435.0 37.0 -506.0C37.0 -536.0 31.0 -551.0 21.0 -559.0C16.0 -563.0 13.0 -565.0 5.0 -565.0C-6.0 -565.0 -30.0 -565.0 -43.0 -565.0V-576.0C-25.0 -582.0 -13.0 -590.0 -7.0 -602.0C1.0 -616.0 6.0 -665.0 6.0 -696.0C112.0 -694.0 146.0 -638.0 146.0 -538.0C146.0 -457.0 106.0 -357.0 8.0 -290.0C54.0 -225.0 101.0 -121.0 131.0 -59.0C153.0 -58.0 165.0 -55.0 173.0 -45.0L59.0 58.0ZM-151.0 49.0V-846.0H-130.0C-70.0 -846.0 -35.0 -816.0 -35.0 -809.0V0.0H-20.0ZM72.0 0.0H-99.0V-27.0H72.0Z"/></g>
<g fill="red" transform="translate(1500 500) scale(0.1 -0.1)"><path d="M0.0 0.0H11.0C-11.0 -77.0 -56.0 -218.0 -84.0 -287.0C-13.0 -366.0 13.0 -439.0 13.0 -514.0C13.0 -556.0 4.0 -578.0 -13.0 -588.0C-20.0 -593.0 -26.0 -594.0 -37.0 -594.0C-53.0 -594.0 -89.0 -594.0 -111.0 -594.0V-611.0C-89.0 -613.0 -70.0 -618.0 -62.0 -624.0C-54.0 -630.0 -51.0 -643.0 -51.0 -660.0C36.0 -655.0 66.0 -618.0 65.0 -522.0C65.0 -444.0 33.0 -366.0 -59.0 -284.0C-23.0 -224.0 31.0 -103.0 59.0 -41.0C81.0 -41.0 95.0 -39.0 103.0 -32.0L37.0 35.0ZM-182.0 27.0V-851.0H-175.0C-153.0 -851.0 -138.0 -837.0 -138.0 -833.0V0.0H-126.0ZM50.0 0.0H-160.0V-30.0H50.0Z"/></g>
<g fill="black" opacity=".8" transform="translate(1500 500) scale(0.1 -0.1)"><path d="M0.0 0.0H11.0C-13.0 -76.0 -59.0 -217.0 -88.0 -286.0C-14.0 -364.0 15.0 -438.0 15.0 -511.0C15.0 -554.0 6.0 -575.0 -12.0 -586.0C-21.0 -591.0 -26.0 -591.0 -38.0 -591.0C-55.0 -591.0 -92.0 -591.0 -115.0 -591.0V-609.0C-93.0 -611.0 -73.0 -616.0 -64.0 -621.0C-57.0 -627.0 -54.0 -640.0 -54.0 -657.0C37.0 -653.0 67.0 -615.0 67.0 -519.0C67.0 -442.0 33.0 -364.0 -63.0 -282.0C-26.0 -224.0 31.0 -103.0 59.0 -41.0C82.0 -41.0 95.0 -39.0 103.0 -32.0L37.0 34.0ZM-191.0 27.0V-856.0H-184.0C-161.0 -856.0 -146.0 -841.0 -146.0 -837.0V0.0H-134.0ZM42.0 0.0H-169.0V-30.0H42.0Z"/></g>
<g fill="red" transform="translate(1600 500) scale(0.1 -0.1)"><path d="M0.0 0.0H12.0C4.0 -78.0 -22.0 -219.0 -42.0 -294.0C8.0 -357.0 27.0 -433.0 27.0 -501.0C27.0 -530.0 19.0 -546.0 6.0 -553.0C0.0 -557.0 -6.0 -559.0 -15.0 -559.0C-26.0 -559.0 -56.0 -559.0 -73.0 -559.0V-570.0C-50.0 -576.0 -35.0 -587.0 -27.0 -599.0C-18.0 -616.0 -13.0 -667.0 -13.0 -706.0C110.0 -704.0 150.0 -640.0 150.0 -541.0C150.0 -456.0 99.0 -353.0 -16.0 -291.0C42.0 -229.0 110.0 -127.0 148.0 -65.0C173.0 -65.0 186.0 -61.0 194.0 -51.0L67.0 65.0ZM-190.0 53.0V-873.0H-166.0C-100.0 -873.0 -61.0 -841.0 -61.0 -832.0V0.0H-48.0ZM85.0 0.0H-128.0V-28.0H85.0Z"/></g>
<g fill="black" opacity=".8" transform="translate(1600 500) scale(0.1 -0.1)"><path d="M0.0 0.0H12.0C8.0 -78.0 -13.0 -219.0 -30.0 -294.0C13.0 -356.0 28.0 -433.0 28.0 -502.0C28.0 -530.0 22.0 -545.0 10.0 -553.0C5.0 -557.0 1.0 -559.0 -9.0 -559.0C-19.0 -559.0 -44.0 -559.0 -59.0 -559.0V-570.0C-39.0 -576.0 -25.0 -586.0 -18.0 -598.0C-10.0 -615.0 -4.0 -667.0 -4.0 -703.0C113.0 -702.0 150.0 -639.0 150.0 -540.0C150.0 -456.0 103.0 -354.0 -4.0 -291.0C50.0 -227.0 110.0 -126.0 146.0 -65.0C170.0 -64.0 183.0 -61.0 191.0 -51.0L67.0 65.0ZM-176.0 52.0V-879.0H-153.0C-87.0 -879.0 -49.0 -847.0 -49.0 -838.0V0.0H-34.0ZM92.0 0.0H-115.0V-28.0H92.0Z"/></g>
</svg>
