<?xml version="1.0" encoding="UTF-8"?>
<svg width="1700" height="300" xmlns="http://www.w3.org/2000/svg">
<rect width="100%" height="100%" fill="white"/>
<g fill="green" transform="translate(100 100) scale(0.1 -0.1)"><path d="M-0.0 0.0 -73.0 9.0V-908.0H-65.0C-49.0 -908.0 -33.0 -898.0 -33.0 -889.0V-25.0C-10.0 -21.0 -3.0 -13.0 0.0 0.0ZM213.0 -496.0H-315.0L-307.0 -523.0H213.0ZM166.0 -496.0H175.0C175.0 -632.0 175.0 -714.0 162.0 -729.0C156.0 -735.0 150.0 -737.0 135.0 -737.0C118.0 -737.0 56.0 -731.0 20.0 -728.0L19.0 -744.0C48.0 -748.0 89.0 -755.0 100.0 -761.0C112.0 -768.0 116.0 -782.0 116.0 -792.0C142.0 -792.0 171.0 -784.0 188.0 -768.0C211.0 -743.0 215.0 -665.0 215.0 -526.0C233.0 -524.0 243.0 -520.0 248.0 -514.0L191.0 -468.0ZM179.0 -286.0 142.0 -332.0H-283.0L-276.0 -359.0H225.0C237.0 -359.0 245.0 -355.0 248.0 -345.0C222.0 -319.0 179.0 -286.0 179.0 -286.0ZM190.0 -133.0 151.0 -181.0H-298.0L-291.0 -208.0H237.0C251.0 -208.0 259.0 -203.0 261.0 -193.0C233.0 -167.0 190.0 -133.0 190.0 -133.0Z"/></g>
<g fill="green" transform="translate(200 100) scale(0.1 -0.1)"><path d="M0.0 0.0 -170.0 16.0V-934.0H-144.0C-92.0 -934.0 -34.0 -898.0 -34.0 -884.0V-27.0C-8.0 -23.0 -2.0 -13.0 0.0 0.0ZM138.0 -492.0H-356.0L-348.0 -518.0H138.0ZM88.0 -492.0H97.0C94.0 -639.0 88.0 -703.0 72.0 -718.0C67.0 -722.0 62.0 -724.0 49.0 -724.0C34.0 -724.0 -0.0 -723.0 -19.0 -721.0L-20.0 -731.0C11.0 -739.0 26.0 -747.0 38.0 -765.0C49.0 -781.0 51.0 -797.0 51.0 -830.0C107.0 -829.0 142.0 -827.0 172.0 -805.0C213.0 -775.0 222.0 -721.0 227.0 -540.0C245.0 -537.0 256.0 -530.0 262.0 -523.0L152.0 -433.0ZM98.0 -249.0 32.0 -336.0H-322.0L-314.0 -361.0H192.0C205.0 -361.0 215.0 -357.0 218.0 -347.0C173.0 -307.0 98.0 -249.0 98.0 -249.0ZM133.0 -81.0 64.0 -172.0H-334.0L-327.0 -198.0H232.0C245.0 -198.0 256.0 -193.0 258.0 -183.0C212.0 -142.0 133.0 -81.0 133.0 -81.0Z"/></g>
<g fill="green" transform="translate(300 100) scale(0.1 -0.1)"><path d="M0.0 0.0 -52.0 6.0V-679.0H-46.0C-35.0 -679.0 -24.0 -672.0 -24.0 -666.0V-18.0C-7.0 -15.0 -2.0 -9.0 0.0 0.0ZM158.0 -372.0H-227.0L-221.0 -391.0H158.0ZM120.0 -372.0H126.0C127.0 -474.0 128.0 -537.0 119.0 -548.0C114.0 -553.0 110.0 -554.0 99.0 -554.0C87.0 -554.0 40.0 -549.0 13.0 -547.0V-558.0C34.0 -562.0 66.0 -567.0 74.0 -571.0C82.0 -576.0 85.0 -586.0 85.0 -593.0C104.0 -593.0 125.0 -587.0 138.0 -576.0C154.0 -557.0 156.0 -498.0 155.0 -393.0C168.0 -392.0 175.0 -389.0 178.0 -385.0L138.0 -352.0ZM135.0 -218.0 109.0 -251.0H-206.0L-201.0 -270.0H168.0C176.0 -270.0 182.0 -268.0 184.0 -260.0C166.0 -242.0 135.0 -218.0 135.0 -218.0ZM139.0 -107.0 112.0 -141.0H-214.0L-210.0 -160.0H173.0C183.0 -160.0 188.0 -157.0 190.0 -150.0C170.0 -131.0 139.0 -107.0 139.0 -107.0Z"/></g>
<g fill="green" transform="translate(400 100) scale(0.1 -0.1)"><path d="M0.0 0.0 -123.0 12.0V-700.0H-104.0C-66.0 -700.0 -24.0 -674.0 -24.0 -663.0V-19.0C-6.0 -17.0 -1.0 -9.0 0.0 0.0ZM103.0 -369.0H-260.0L-254.0 -388.0H103.0ZM69.0 -369.0H75.0C73.0 -485.0 69.0 -534.0 56.0 -546.0C52.0 -549.0 49.0 -551.0 39.0 -551.0C28.0 -551.0 4.0 -550.0 -10.0 -548.0L-11.0 -556.0C12.0 -561.0 23.0 -567.0 32.0 -580.0C40.0 -592.0 41.0 -602.0 41.0 -627.0C83.0 -626.0 109.0 -625.0 131.0 -608.0C161.0 -586.0 168.0 -545.0 171.0 -405.0C184.0 -402.0 192.0 -397.0 197.0 -392.0L116.0 -326.0ZM78.0 -190.0 29.0 -254.0H-236.0L-230.0 -272.0H147.0C156.0 -272.0 163.0 -269.0 166.0 -262.0C133.0 -233.0 78.0 -190.0 78.0 -190.0ZM105.0 -65.0 54.0 -132.0H-242.0L-237.0 -151.0H178.0C187.0 -151.0 195.0 -147.0 196.0 -140.0C163.0 -110.0 105.0 -65.0 105.0 -65.0Z"/></g>
<g fill="green" transform="translate(500 100) scale(0.1 -0.1)"><path d="M-0.0 0.0 -87.0 11.0V-904.0H-77.0C-58.0 -904.0 -39.0 -892.0 -39.0 -882.0V-30.0C-12.0 -25.0 -3.0 -15.0 0.0 0.0ZM262.0 -493.0H-416.0L-407.0 -526.0H262.0ZM225.0 -493.0H235.0C232.0 -622.0 224.0 -703.0 207.0 -720.0C200.0 -726.0 192.0 -729.0 174.0 -729.0C153.0 -729.0 83.0 -722.0 43.0 -719.0V-738.0C75.0 -742.0 119.0 -750.0 131.0 -758.0C145.0 -766.0 150.0 -781.0 150.0 -794.0C181.0 -794.0 214.0 -785.0 235.0 -768.0C266.0 -740.0 277.0 -661.0 282.0 -529.0C303.0 -526.0 315.0 -522.0 321.0 -515.0L255.0 -460.0ZM204.0 -257.0 160.0 -312.0H-364.0L-356.0 -344.0H259.0C273.0 -344.0 283.0 -339.0 287.0 -327.0C255.0 -297.0 204.0 -257.0 204.0 -257.0ZM233.0 -87.0 188.0 -144.0H-388.0L-380.0 -176.0H291.0C306.0 -176.0 317.0 -170.0 318.0 -158.0C286.0 -127.0 233.0 -87.0 233.0 -87.0Z"/></g>
<g fill="green" transform="translate(600 100) scale(0.1 -0.1)"><path d="M0.0 0.0 -199.0 18.0V-920.0H-169.0C-108.0 -920.0 -40.0 -883.0 -40.0 -868.0V-31.0C-10.0 -27.0 -2.0 -16.0 0.0 0.0ZM150.0 -481.0H-448.0L-438.0 -512.0H150.0ZM103.0 -481.0H113.0C110.0 -609.0 103.0 -668.0 87.0 -682.0C82.0 -686.0 76.0 -688.0 62.0 -688.0C45.0 -688.0 7.0 -687.0 -14.0 -685.0L-15.0 -698.0C17.0 -706.0 34.0 -716.0 47.0 -735.0C59.0 -752.0 61.0 -777.0 61.0 -813.0C118.0 -812.0 155.0 -807.0 186.0 -786.0C232.0 -755.0 244.0 -697.0 250.0 -534.0C271.0 -531.0 283.0 -523.0 290.0 -515.0L171.0 -418.0ZM109.0 -221.0 37.0 -316.0H-391.0L-381.0 -346.0H212.0C228.0 -346.0 239.0 -341.0 242.0 -330.0C193.0 -285.0 109.0 -221.0 109.0 -221.0ZM133.0 -46.0 57.0 -146.0H-418.0L-410.0 -177.0H240.0C257.0 -177.0 268.0 -171.0 271.0 -159.0C220.0 -114.0 133.0 -46.0 133.0 -46.0Z"/></g>
<g fill="green" transform="translate(700 100) scale(0.1 -0.1)"><path d="M0.0 0.0 -86.0 11.0V-936.0H-77.0C-58.0 -936.0 -39.0 -924.0 -39.0 -914.0V-30.0C-12.0 -25.0 -3.0 -15.0 0.0 0.0ZM198.0 -508.0H-321.0L-312.0 -540.0H198.0ZM163.0 -508.0H174.0C172.0 -646.0 168.0 -719.0 154.0 -734.0C148.0 -740.0 140.0 -742.0 125.0 -742.0C107.0 -742.0 51.0 -738.0 16.0 -735.0V-754.0C43.0 -758.0 79.0 -764.0 90.0 -770.0C102.0 -779.0 106.0 -794.0 106.0 -807.0C134.0 -807.0 164.0 -798.0 183.0 -782.0C210.0 -756.0 218.0 -685.0 221.0 -543.0C241.0 -540.0 254.0 -535.0 260.0 -528.0L193.0 -474.0ZM155.0 -280.0 111.0 -334.0H-280.0L-272.0 -366.0H209.0C225.0 -366.0 234.0 -361.0 237.0 -349.0C206.0 -319.0 155.0 -280.0 155.0 -280.0ZM187.0 -108.0 141.0 -165.0H-311.0L-302.0 -197.0H243.0C259.0 -197.0 268.0 -191.0 271.0 -179.0C238.0 -148.0 187.0 -108.0 187.0 -108.0Z"/></g>
<g fill="green" transform="translate(800 100) scale(0.1 -0.1)"><path d="M0.0 0.0 -189.0 18.0V-956.0H-160.0C-104.0 -956.0 -40.0 -920.0 -40.0 -906.0V-31.0C-10.0 -27.0 -2.0 -15.0 0.0 0.0ZM135.0 -503.0H-354.0L-344.0 -534.0H135.0ZM51.0 -503.0H61.0C59.0 -624.0 55.0 -677.0 41.0 -689.0C36.0 -693.0 32.0 -695.0 16.0 -695.0C0.0 -695.0 -37.0 -694.0 -58.0 -692.0L-59.0 -704.0C-26.0 -713.0 -10.0 -722.0 4.0 -741.0C16.0 -759.0 19.0 -783.0 19.0 -820.0C78.0 -818.0 114.0 -813.0 144.0 -792.0C188.0 -763.0 197.0 -711.0 202.0 -556.0C223.0 -552.0 235.0 -546.0 242.0 -538.0L120.0 -440.0ZM56.0 -241.0 -15.0 -335.0H-319.0L-310.0 -364.0H154.0C168.0 -364.0 180.0 -359.0 183.0 -348.0C136.0 -305.0 56.0 -241.0 56.0 -241.0ZM92.0 -68.0 19.0 -165.0H-348.0L-340.0 -196.0H197.0C212.0 -196.0 224.0 -190.0 227.0 -178.0C178.0 -133.0 92.0 -68.0 92.0 -68.0Z"/></g>
<g fill="red" transform="translate(100 200) scale(0.1 -0.1)"><path d="M0.0 0.0 -80.0 10.0V-898.0H-71.0C-54.0 -898.0 -36.0 -887.0 -36.0 -878.0V-27.0C-11.0 -23.0 -3.0 -14.0 0.0 0.0ZM237.0 -495.0H-368.0L-359.0 -525.0H237.0ZM195.0 -495.0H205.0C204.0 -636.0 202.0 -719.0 188.0 -734.0C182.0 -740.0 174.0 -742.0 159.0 -742.0C140.0 -742.0 77.0 -736.0 40.0 -733.0L39.0 -752.0C70.0 -755.0 109.0 -763.0 121.0 -770.0C134.0 -778.0 138.0 -792.0 138.0 -802.0C166.0 -803.0 197.0 -795.0 215.0 -778.0C241.0 -752.0 247.0 -671.0 248.0 -528.0C268.0 -526.0 279.0 -522.0 285.0 -514.0L223.0 -464.0ZM177.0 -269.0 136.0 -319.0H-318.0L-310.0 -349.0H227.0C241.0 -349.0 249.0 -344.0 252.0 -333.0C223.0 -305.0 177.0 -269.0 177.0 -269.0ZM205.0 -106.0 162.0 -158.0H-342.0L-334.0 -188.0H258.0C272.0 -188.0 281.0 -183.0 284.0 -172.0C253.0 -143.0 205.0 -106.0 205.0 -106.0Z"/></g>
<g fill="black" opacity=".8" transform="translate(100 200) scale(0.1 -0.1)"><path d="M0.0 0.0 -80.0 10.0V-906.0H-71.0C-53.0 -906.0 -36.0 -895.0 -36.0 -886.0V-27.0C-11.0 -23.0 -3.0 -14.0 0.0 0.0ZM237.0 -495.0H-364.0L-356.0 -524.0H237.0ZM195.0 -495.0H204.0C203.0 -627.0 199.0 -709.0 184.0 -725.0C177.0 -731.0 170.0 -733.0 154.0 -733.0C135.0 -733.0 69.0 -727.0 31.0 -724.0V-741.0C61.0 -745.0 104.0 -753.0 115.0 -760.0C128.0 -767.0 133.0 -782.0 133.0 -793.0C161.0 -793.0 192.0 -784.0 211.0 -768.0C238.0 -742.0 245.0 -663.0 248.0 -527.0C267.0 -525.0 278.0 -521.0 284.0 -514.0L222.0 -464.0ZM191.0 -272.0 151.0 -322.0H-322.0L-315.0 -352.0H242.0C255.0 -352.0 263.0 -347.0 267.0 -336.0C238.0 -308.0 191.0 -272.0 191.0 -272.0ZM211.0 -111.0 169.0 -163.0H-342.0L-334.0 -192.0H263.0C278.0 -192.0 287.0 -187.0 289.0 -176.0C259.0 -148.0 211.0 -111.0 211.0 -111.0Z"/></g>
<g fill="red" transform="translate(200 200) scale(0.1 -0.1)"><path d="M0.0 0.0 -187.0 18.0V-918.0H-159.0C-102.0 -918.0 -37.0 -881.0 -37.0 -866.0V-29.0C-9.0 -25.0 -2.0 -14.0 0.0 0.0ZM141.0 -484.0H-396.0L-387.0 -512.0H141.0ZM101.0 -484.0H111.0C106.0 -624.0 98.0 -687.0 82.0 -701.0C77.0 -706.0 70.0 -707.0 57.0 -707.0C41.0 -707.0 5.0 -706.0 -15.0 -704.0L-16.0 -716.0C15.0 -724.0 31.0 -734.0 43.0 -751.0C54.0 -767.0 56.0 -787.0 56.0 -820.0C110.0 -820.0 146.0 -816.0 177.0 -795.0C220.0 -764.0 232.0 -707.0 239.0 -533.0C258.0 -530.0 270.0 -524.0 277.0 -515.0L165.0 -424.0ZM110.0 -233.0 41.0 -324.0H-354.0L-346.0 -352.0H207.0C222.0 -352.0 233.0 -347.0 236.0 -336.0C189.0 -294.0 110.0 -233.0 110.0 -233.0ZM129.0 -64.0 56.0 -159.0H-367.0L-359.0 -187.0H231.0C246.0 -187.0 257.0 -182.0 260.0 -171.0C211.0 -128.0 129.0 -64.0 129.0 -64.0Z"/></g>
<g fill="black" opacity=".8" transform="translate(200 200) scale(0.1 -0.1)"><path d="M0.0 0.0 -184.0 17.0V-927.0H-156.0C-100.0 -927.0 -37.0 -891.0 -37.0 -876.0V-29.0C-9.0 -25.0 -2.0 -14.0 0.0 0.0ZM144.0 -487.0H-401.0L-392.0 -515.0H144.0ZM95.0 -487.0H105.0C102.0 -624.0 95.0 -686.0 79.0 -700.0C74.0 -704.0 69.0 -706.0 55.0 -706.0C39.0 -706.0 3.0 -705.0 -17.0 -703.0L-18.0 -715.0C14.0 -723.0 30.0 -732.0 42.0 -750.0C54.0 -767.0 56.0 -787.0 56.0 -822.0C112.0 -821.0 148.0 -817.0 179.0 -796.0C222.0 -765.0 233.0 -709.0 238.0 -537.0C258.0 -534.0 269.0 -527.0 276.0 -519.0L161.0 -426.0ZM103.0 -235.0 34.0 -326.0H-356.0L-347.0 -354.0H202.0C216.0 -354.0 227.0 -349.0 230.0 -339.0C183.0 -296.0 103.0 -235.0 103.0 -235.0ZM133.0 -64.0 61.0 -159.0H-375.0L-367.0 -188.0H236.0C251.0 -188.0 262.0 -182.0 264.0 -171.0C216.0 -128.0 133.0 -64.0 133.0 -64.0Z"/></g>
<g fill="red" transform="translate(300 200) scale(0.1 -0.1)"><path d="M0.0 0.0 -80.0 10.0V-898.0H-71.0C-54.0 -898.0 -36.0 -887.0 -36.0 -878.0V-27.0C-11.0 -23.0 -3.0 -14.0 0.0 0.0ZM190.0 -484.0H-307.0L-298.0 -514.0H190.0ZM161.0 -484.0H171.0C170.0 -612.0 169.0 -680.0 157.0 -694.0C152.0 -699.0 144.0 -701.0 131.0 -701.0C114.0 -701.0 60.0 -696.0 27.0 -694.0V-712.0C53.0 -715.0 87.0 -721.0 98.0 -727.0C110.0 -735.0 113.0 -749.0 113.0 -760.0C138.0 -761.0 167.0 -753.0 184.0 -737.0C208.0 -715.0 214.0 -649.0 214.0 -517.0C233.0 -515.0 245.0 -510.0 251.0 -503.0L188.0 -453.0ZM151.0 -272.0 110.0 -322.0H-288.0L-280.0 -352.0H202.0C215.0 -352.0 224.0 -347.0 227.0 -336.0C198.0 -308.0 151.0 -272.0 151.0 -272.0ZM173.0 -115.0 131.0 -167.0H-300.0L-292.0 -197.0H226.0C240.0 -197.0 249.0 -192.0 252.0 -181.0C221.0 -152.0 173.0 -115.0 173.0 -115.0Z"/></g>
<g fill="black" opacity=".8" transform="translate(300 200) scale(0.1 -0.1)"><path d="M0.0 0.0 -79.0 10.0V-891.0H-71.0C-53.0 -891.0 -36.0 -881.0 -36.0 -871.0V-27.0C-11.0 -23.0 -3.0 -14.0 0.0 0.0ZM194.0 -485.0H-306.0L-298.0 -514.0H194.0ZM157.0 -485.0H167.0C166.0 -617.0 163.0 -689.0 150.0 -704.0C144.0 -710.0 137.0 -711.0 123.0 -711.0C106.0 -711.0 50.0 -707.0 16.0 -704.0V-722.0C43.0 -726.0 79.0 -732.0 89.0 -737.0C101.0 -745.0 104.0 -759.0 104.0 -771.0C131.0 -771.0 159.0 -763.0 177.0 -748.0C202.0 -723.0 208.0 -653.0 210.0 -517.0C229.0 -514.0 241.0 -510.0 246.0 -503.0L185.0 -454.0ZM155.0 -271.0 115.0 -320.0H-270.0L-262.0 -350.0H205.0C219.0 -350.0 228.0 -345.0 231.0 -334.0C202.0 -307.0 155.0 -271.0 155.0 -271.0ZM180.0 -111.0 138.0 -163.0H-295.0L-287.0 -192.0H232.0C246.0 -192.0 255.0 -187.0 257.0 -176.0C227.0 -147.0 180.0 -111.0 180.0 -111.0Z"/></g>
<g fill="red" transform="translate(400 200) scale(0.1 -0.1)"><path d="M0.0 0.0 -177.0 17.0V-919.0H-150.0C-97.0 -919.0 -37.0 -884.0 -37.0 -870.0V-29.0C-9.0 -25.0 -2.0 -14.0 0.0 0.0ZM135.0 -481.0H-331.0L-322.0 -509.0H135.0ZM55.0 -481.0H65.0C62.0 -605.0 57.0 -659.0 44.0 -671.0C39.0 -675.0 34.0 -677.0 20.0 -677.0C5.0 -677.0 -31.0 -676.0 -51.0 -674.0V-685.0C-20.0 -694.0 -5.0 -703.0 8.0 -720.0C20.0 -737.0 22.0 -758.0 22.0 -792.0C77.0 -792.0 112.0 -787.0 142.0 -767.0C183.0 -738.0 193.0 -688.0 197.0 -530.0C217.0 -527.0 228.0 -521.0 235.0 -513.0L121.0 -420.0ZM67.0 -240.0 0.0 -328.0H-311.0L-303.0 -356.0H160.0C174.0 -356.0 185.0 -351.0 188.0 -340.0C143.0 -299.0 67.0 -240.0 67.0 -240.0ZM102.0 -77.0 32.0 -169.0H-335.0L-327.0 -197.0H201.0C215.0 -197.0 226.0 -192.0 229.0 -181.0C182.0 -139.0 102.0 -77.0 102.0 -77.0Z"/></g>
<g fill="black" opacity=".8" transform="translate(400 200) scale(0.1 -0.1)"><path d="M0.0 0.0 -176.0 17.0V-912.0H-149.0C-97.0 -912.0 -37.0 -878.0 -37.0 -864.0V-29.0C-9.0 -25.0 -2.0 -14.0 0.0 0.0ZM130.0 -480.0H-340.0L-331.0 -509.0H130.0ZM59.0 -480.0H68.0C66.0 -604.0 62.0 -658.0 48.0 -670.0C43.0 -674.0 39.0 -676.0 24.0 -676.0C9.0 -676.0 -25.0 -675.0 -45.0 -673.0L-46.0 -684.0C-15.0 -692.0 0.0 -701.0 13.0 -718.0C24.0 -735.0 27.0 -756.0 27.0 -791.0C83.0 -789.0 117.0 -785.0 146.0 -764.0C187.0 -736.0 196.0 -686.0 201.0 -530.0C220.0 -526.0 231.0 -520.0 238.0 -513.0L124.0 -421.0ZM65.0 -234.0 -2.0 -322.0H-307.0L-299.0 -349.0H158.0C171.0 -349.0 182.0 -344.0 185.0 -334.0C141.0 -294.0 65.0 -234.0 65.0 -234.0ZM100.0 -69.0 31.0 -160.0H-330.0L-323.0 -189.0H199.0C213.0 -189.0 224.0 -183.0 226.0 -172.0C180.0 -130.0 100.0 -69.0 100.0 -69.0Z"/></g>
<g fill="red" transform="translate(500 200) scale(0.1 -0.1)"><path d="M0.0 0.0 -80.0 10.0V-898.0H-71.0C-54.0 -898.0 -36.0 -887.0 -36.0 -878.0V-27.0C-11.0 -23.0 -3.0 -14.0 0.0 0.0ZM212.0 -496.0H-327.0L-318.0 -526.0H212.0ZM168.0 -496.0H178.0C175.0 -633.0 168.0 -712.0 152.0 -728.0C146.0 -733.0 139.0 -735.0 123.0 -735.0C105.0 -735.0 46.0 -730.0 11.0 -728.0V-746.0C40.0 -749.0 76.0 -756.0 87.0 -763.0C99.0 -771.0 102.0 -785.0 102.0 -796.0C131.0 -796.0 161.0 -788.0 179.0 -772.0C208.0 -745.0 217.0 -668.0 221.0 -529.0C240.0 -527.0 252.0 -523.0 258.0 -515.0L196.0 -465.0ZM165.0 -272.0 124.0 -322.0H-265.0L-257.0 -352.0H215.0C229.0 -352.0 238.0 -347.0 240.0 -336.0C212.0 -308.0 165.0 -272.0 165.0 -272.0ZM196.0 -100.0 153.0 -152.0H-301.0L-293.0 -182.0H248.0C262.0 -182.0 271.0 -177.0 274.0 -166.0C244.0 -137.0 196.0 -100.0 196.0 -100.0Z"/></g>
<g fill="black" opacity=".8" transform="translate(500 200) scale(0.1 -0.1)"><path d="M0.0 0.0 -83.0 11.0V-909.0H-74.0C-56.0 -909.0 -38.0 -897.0 -38.0 -888.0V-29.0C-12.0 -24.0 -3.0 -14.0 0.0 0.0ZM204.0 -494.0H-326.0L-317.0 -525.0H204.0ZM168.0 -494.0H178.0C176.0 -627.0 172.0 -701.0 158.0 -716.0C152.0 -722.0 145.0 -724.0 130.0 -724.0C112.0 -724.0 54.0 -719.0 19.0 -716.0V-735.0C47.0 -739.0 84.0 -745.0 94.0 -751.0C106.0 -759.0 110.0 -774.0 110.0 -786.0C138.0 -786.0 168.0 -778.0 186.0 -762.0C213.0 -736.0 221.0 -665.0 223.0 -528.0C243.0 -525.0 255.0 -520.0 261.0 -513.0L197.0 -461.0ZM161.0 -272.0 118.0 -324.0H-285.0L-277.0 -355.0H213.0C228.0 -355.0 236.0 -350.0 239.0 -338.0C210.0 -309.0 161.0 -272.0 161.0 -272.0ZM189.0 -106.0 145.0 -161.0H-313.0L-304.0 -191.0H243.0C259.0 -191.0 267.0 -186.0 270.0 -174.0C238.0 -144.0 189.0 -106.0 189.0 -106.0Z"/></g>
<g fill="red" transform="translate(600 200) scale(0.1 -0.1)"><path d="M0.0 0.0 -179.0 17.0V-919.0H-152.0C-99.0 -919.0 -37.0 -884.0 -37.0 -870.0V-29.0C-9.0 -25.0 -2.0 -14.0 0.0 0.0ZM125.0 -490.0H-360.0L-351.0 -518.0H125.0ZM67.0 -490.0H77.0C74.0 -614.0 69.0 -668.0 56.0 -680.0C51.0 -684.0 46.0 -686.0 32.0 -686.0C17.0 -686.0 -19.0 -685.0 -39.0 -683.0V-694.0C-8.0 -703.0 7.0 -712.0 20.0 -729.0C32.0 -747.0 34.0 -767.0 34.0 -802.0C90.0 -801.0 125.0 -797.0 155.0 -776.0C196.0 -748.0 205.0 -697.0 210.0 -540.0C229.0 -536.0 241.0 -530.0 248.0 -522.0L133.0 -429.0ZM61.0 -225.0 -7.0 -314.0H-318.0L-310.0 -342.0H155.0C169.0 -342.0 180.0 -337.0 183.0 -326.0C137.0 -285.0 61.0 -225.0 61.0 -225.0ZM93.0 -51.0 22.0 -144.0H-340.0L-332.0 -172.0H193.0C208.0 -172.0 219.0 -167.0 222.0 -156.0C174.0 -113.0 93.0 -51.0 93.0 -51.0Z"/></g>
<g fill="black" opacity=".8" transform="translate(600 200) scale(0.1 -0.1)"><path d="M0.0 0.0 -184.0 17.0V-928.0H-156.0C-101.0 -928.0 -38.0 -893.0 -38.0 -879.0V-30.0C-10.0 -26.0 -2.0 -15.0 0.0 0.0ZM134.0 -488.0H-359.0L-349.0 -518.0H134.0ZM61.0 -488.0H70.0C68.0 -610.0 64.0 -664.0 49.0 -676.0C44.0 -680.0 40.0 -682.0 25.0 -682.0C9.0 -682.0 -27.0 -681.0 -47.0 -679.0L-48.0 -691.0C-16.0 -700.0 -0.0 -708.0 13.0 -727.0C25.0 -744.0 27.0 -767.0 27.0 -803.0C85.0 -801.0 120.0 -796.0 149.0 -776.0C192.0 -747.0 201.0 -695.0 206.0 -540.0C227.0 -536.0 238.0 -530.0 245.0 -522.0L127.0 -427.0ZM66.0 -234.0 -3.0 -325.0H-322.0L-313.0 -354.0H162.0C176.0 -354.0 187.0 -349.0 190.0 -338.0C144.0 -296.0 66.0 -234.0 66.0 -234.0ZM100.0 -65.0 28.0 -160.0H-348.0L-340.0 -190.0H202.0C217.0 -190.0 228.0 -184.0 231.0 -172.0C183.0 -129.0 100.0 -65.0 100.0 -65.0Z"/></g>
<g fill="red" transform="translate(700 200) scale(0.1 -0.1)"><path d="M0.0 0.0 -80.0 10.0V-898.0H-71.0C-54.0 -898.0 -36.0 -887.0 -36.0 -878.0V-27.0C-11.0 -23.0 -3.0 -14.0 0.0 0.0ZM192.0 -484.0H-305.0L-296.0 -514.0H192.0ZM156.0 -484.0H166.0C165.0 -620.0 164.0 -694.0 151.0 -709.0C145.0 -715.0 138.0 -716.0 124.0 -716.0C106.0 -716.0 49.0 -712.0 15.0 -709.0L14.0 -726.0C42.0 -730.0 78.0 -736.0 89.0 -743.0C102.0 -751.0 105.0 -765.0 105.0 -777.0C132.0 -777.0 161.0 -769.0 179.0 -752.0C203.0 -727.0 209.0 -655.0 209.0 -517.0C229.0 -515.0 240.0 -510.0 246.0 -503.0L183.0 -453.0ZM157.0 -272.0 115.0 -322.0H-269.0L-261.0 -352.0H207.0C221.0 -352.0 230.0 -347.0 232.0 -336.0C203.0 -308.0 157.0 -272.0 157.0 -272.0ZM180.0 -115.0 137.0 -167.0H-298.0L-290.0 -197.0H233.0C247.0 -197.0 256.0 -192.0 259.0 -181.0C228.0 -152.0 180.0 -115.0 180.0 -115.0Z"/></g>
<g fill="black" opacity=".8" transform="translate(700 200) scale(0.1 -0.1)"><path d="M0.0 0.0 -78.0 10.0V-895.0H-70.0C-53.0 -895.0 -36.0 -884.0 -36.0 -875.0V-27.0C-11.0 -23.0 -3.0 -14.0 0.0 0.0ZM196.0 -487.0H-307.0L-299.0 -516.0H196.0ZM158.0 -487.0H168.0C167.0 -620.0 164.0 -693.0 151.0 -708.0C145.0 -714.0 138.0 -715.0 124.0 -715.0C107.0 -715.0 51.0 -711.0 17.0 -708.0L16.0 -725.0C43.0 -729.0 80.0 -735.0 90.0 -741.0C102.0 -749.0 106.0 -763.0 106.0 -775.0C132.0 -775.0 160.0 -766.0 178.0 -751.0C203.0 -726.0 209.0 -655.0 211.0 -519.0C229.0 -516.0 241.0 -512.0 246.0 -505.0L185.0 -456.0ZM158.0 -273.0 118.0 -322.0H-271.0L-263.0 -351.0H207.0C221.0 -351.0 230.0 -347.0 232.0 -336.0C204.0 -309.0 158.0 -273.0 158.0 -273.0ZM181.0 -114.0 139.0 -166.0H-295.0L-287.0 -195.0H232.0C247.0 -195.0 255.0 -189.0 258.0 -178.0C228.0 -150.0 181.0 -114.0 181.0 -114.0Z"/></g>
<g fill="red" transform="translate(800 200) scale(0.1 -0.1)"><path d="M0.0 0.0 -179.0 17.0V-919.0H-152.0C-99.0 -919.0 -37.0 -884.0 -37.0 -870.0V-29.0C-9.0 -25.0 -2.0 -14.0 0.0 0.0ZM137.0 -481.0H-348.0L-339.0 -509.0H137.0ZM61.0 -481.0H71.0C68.0 -605.0 63.0 -659.0 50.0 -671.0C45.0 -675.0 40.0 -677.0 26.0 -677.0C11.0 -677.0 -25.0 -676.0 -45.0 -674.0V-685.0C-14.0 -694.0 1.0 -703.0 14.0 -720.0C26.0 -738.0 28.0 -758.0 28.0 -793.0C84.0 -792.0 119.0 -788.0 149.0 -767.0C190.0 -739.0 199.0 -688.0 204.0 -531.0C223.0 -527.0 235.0 -521.0 242.0 -513.0L127.0 -420.0ZM73.0 -239.0 5.0 -328.0H-306.0L-298.0 -356.0H167.0C181.0 -356.0 192.0 -351.0 195.0 -340.0C149.0 -299.0 73.0 -239.0 73.0 -239.0ZM108.0 -76.0 37.0 -169.0H-330.0L-322.0 -197.0H208.0C222.0 -197.0 234.0 -192.0 236.0 -181.0C189.0 -138.0 108.0 -76.0 108.0 -76.0Z"/></g>
<g fill="black" opacity=".8" transform="translate(800 200) scale(0.1 -0.1)"><path d="M0.0 0.0 -176.0 17.0V-916.0H-149.0C-96.0 -916.0 -36.0 -882.0 -36.0 -868.0V-28.0C-9.0 -25.0 -2.0 -14.0 0.0 0.0ZM131.0 -482.0H-342.0L-333.0 -511.0H131.0ZM62.0 -482.0H71.0C69.0 -609.0 65.0 -664.0 50.0 -676.0C45.0 -680.0 41.0 -682.0 27.0 -682.0C12.0 -682.0 -23.0 -681.0 -42.0 -679.0L-43.0 -690.0C-12.0 -699.0 3.0 -707.0 16.0 -725.0C27.0 -742.0 29.0 -762.0 29.0 -796.0C85.0 -795.0 120.0 -791.0 149.0 -770.0C190.0 -742.0 199.0 -691.0 204.0 -532.0C223.0 -528.0 234.0 -522.0 241.0 -515.0L127.0 -423.0ZM69.0 -236.0 2.0 -324.0H-309.0L-300.0 -351.0H162.0C175.0 -351.0 186.0 -346.0 189.0 -336.0C144.0 -296.0 69.0 -236.0 69.0 -236.0ZM103.0 -71.0 34.0 -162.0H-330.0L-323.0 -190.0H203.0C216.0 -190.0 228.0 -185.0 230.0 -174.0C184.0 -132.0 103.0 -71.0 103.0 -71.0Z"/></g>
<g fill="red" transform="translate(900 200) scale(0.1 -0.1)"><path d="M0.0 0.0 -80.0 10.0V-898.0H-71.0C-54.0 -898.0 -36.0 -887.0 -36.0 -878.0V-27.0C-11.0 -23.0 -3.0 -14.0 0.0 0.0ZM228.0 -489.0H-353.0L-344.0 -519.0H228.0ZM179.0 -489.0H189.0C187.0 -617.0 182.0 -694.0 167.0 -710.0C161.0 -716.0 154.0 -717.0 138.0 -717.0C119.0 -717.0 55.0 -712.0 19.0 -709.0L18.0 -726.0C48.0 -730.0 88.0 -737.0 100.0 -744.0C113.0 -752.0 116.0 -766.0 116.0 -778.0C145.0 -778.0 176.0 -770.0 194.0 -753.0C222.0 -727.0 230.0 -653.0 232.0 -522.0C251.0 -520.0 263.0 -516.0 269.0 -509.0L207.0 -458.0ZM194.0 -272.0 153.0 -322.0H-319.0L-311.0 -352.0H245.0C257.0 -352.0 267.0 -347.0 270.0 -336.0C241.0 -308.0 194.0 -272.0 194.0 -272.0ZM211.0 -115.0 168.0 -167.0H-345.0L-337.0 -197.0H264.0C278.0 -197.0 288.0 -192.0 289.0 -181.0C260.0 -152.0 211.0 -115.0 211.0 -115.0Z"/></g>
<g fill="black" opacity=".8" transform="translate(900 200) scale(0.1 -0.1)"><path d="M0.0 0.0 -79.0 10.0V-897.0H-70.0C-53.0 -897.0 -36.0 -886.0 -36.0 -877.0V-27.0C-11.0 -23.0 -3.0 -14.0 0.0 0.0ZM228.0 -489.0H-352.0L-344.0 -519.0H228.0ZM187.0 -489.0H197.0C195.0 -621.0 192.0 -700.0 177.0 -716.0C171.0 -722.0 164.0 -724.0 148.0 -724.0C129.0 -724.0 66.0 -718.0 29.0 -715.0L28.0 -732.0C58.0 -736.0 99.0 -744.0 110.0 -750.0C123.0 -758.0 127.0 -772.0 127.0 -784.0C155.0 -784.0 185.0 -775.0 204.0 -759.0C230.0 -733.0 238.0 -657.0 240.0 -522.0C259.0 -519.0 270.0 -515.0 276.0 -509.0L215.0 -459.0ZM184.0 -270.0 144.0 -320.0H-312.0L-304.0 -349.0H234.0C247.0 -349.0 256.0 -344.0 259.0 -333.0C231.0 -306.0 184.0 -270.0 184.0 -270.0ZM205.0 -109.0 163.0 -162.0H-332.0L-325.0 -191.0H256.0C271.0 -191.0 280.0 -185.0 282.0 -174.0C252.0 -146.0 205.0 -109.0 205.0 -109.0Z"/></g>
<g fill="red" transform="translate(1000 200) scale(0.1 -0.1)"><path d="M0.0 0.0 -181.0 17.0V-919.0H-154.0C-99.0 -919.0 -37.0 -883.0 -37.0 -869.0V-29.0C-9.0 -25.0 -2.0 -15.0 0.0 0.0ZM146.0 -481.0H-401.0L-392.0 -509.0H146.0ZM87.0 -481.0H97.0C93.0 -617.0 88.0 -677.0 74.0 -690.0C69.0 -695.0 63.0 -697.0 49.0 -697.0C33.0 -697.0 -3.0 -695.0 -23.0 -694.0V-705.0C8.0 -713.0 24.0 -723.0 36.0 -741.0C49.0 -758.0 51.0 -779.0 51.0 -814.0C107.0 -814.0 143.0 -809.0 174.0 -788.0C217.0 -758.0 227.0 -703.0 232.0 -531.0C251.0 -528.0 263.0 -521.0 270.0 -513.0L154.0 -419.0ZM90.0 -235.0 21.0 -325.0H-355.0L-347.0 -353.0H187.0C201.0 -353.0 212.0 -348.0 215.0 -337.0C168.0 -295.0 90.0 -235.0 90.0 -235.0ZM125.0 -66.0 53.0 -161.0H-384.0L-376.0 -189.0H227.0C242.0 -189.0 253.0 -184.0 256.0 -173.0C207.0 -130.0 125.0 -66.0 125.0 -66.0Z"/></g>
<g fill="black" opacity=".8" transform="translate(1000 200) scale(0.1 -0.1)"><path d="M0.0 0.0 -182.0 17.0V-918.0H-154.0C-99.0 -918.0 -37.0 -882.0 -37.0 -868.0V-29.0C-9.0 -25.0 -2.0 -14.0 0.0 0.0ZM141.0 -482.0H-388.0L-379.0 -510.0H141.0ZM89.0 -482.0H98.0C95.0 -616.0 89.0 -676.0 73.0 -690.0C68.0 -694.0 63.0 -696.0 50.0 -696.0C34.0 -696.0 -1.0 -695.0 -21.0 -693.0L-22.0 -704.0C9.0 -712.0 25.0 -721.0 37.0 -739.0C49.0 -756.0 51.0 -776.0 51.0 -811.0C107.0 -809.0 142.0 -806.0 172.0 -785.0C215.0 -755.0 225.0 -700.0 230.0 -532.0C250.0 -529.0 261.0 -522.0 267.0 -514.0L154.0 -422.0ZM96.0 -233.0 28.0 -323.0H-345.0L-336.0 -350.0H193.0C207.0 -350.0 218.0 -346.0 221.0 -335.0C174.0 -294.0 96.0 -233.0 96.0 -233.0ZM126.0 -64.0 55.0 -158.0H-365.0L-358.0 -186.0H228.0C243.0 -186.0 254.0 -181.0 256.0 -170.0C208.0 -128.0 126.0 -64.0 126.0 -64.0Z"/></g>
<g fill="red" transform="translate(1100 200) scale(0.1 -0.1)"><path d="M0.0 0.0 -80.0 10.0V-703.0H-71.0C-54.0 -703.0 -36.0 -692.0 -36.0 -684.0V-27.0C-11.0 -23.0 -2.0 -14.0 0.0 0.0ZM190.0 -380.0H-335.0L-326.0 -410.0H190.0ZM174.0 -380.0H184.0C179.0 -479.0 169.0 -531.0 155.0 -544.0C150.0 -548.0 142.0 -550.0 128.0 -550.0C111.0 -550.0 63.0 -547.0 34.0 -545.0V-562.0C58.0 -565.0 85.0 -571.0 95.0 -577.0C106.0 -585.0 109.0 -598.0 109.0 -610.0C135.0 -610.0 162.0 -603.0 180.0 -589.0C208.0 -567.0 220.0 -514.0 226.0 -413.0C245.0 -410.0 257.0 -406.0 263.0 -399.0L202.0 -349.0ZM134.0 -183.0 93.0 -233.0H-287.0L-279.0 -263.0H184.0C198.0 -263.0 207.0 -258.0 210.0 -247.0C180.0 -219.0 134.0 -183.0 134.0 -183.0ZM178.0 -37.0 136.0 -89.0H-322.0L-314.0 -119.0H232.0C245.0 -119.0 255.0 -114.0 257.0 -103.0C227.0 -74.0 178.0 -37.0 178.0 -37.0Z"/></g>
<g fill="black" opacity=".8" transform="translate(1100 200) scale(0.1 -0.1)"><path d="M0.0 0.0 -79.0 10.0V-703.0H-70.0C-53.0 -703.0 -36.0 -692.0 -36.0 -684.0V-28.0C-11.0 -23.0 -2.0 -13.0 0.0 0.0ZM192.0 -381.0H-334.0L-326.0 -411.0H192.0ZM176.0 -381.0H185.0C181.0 -478.0 170.0 -531.0 156.0 -544.0C150.0 -549.0 142.0 -551.0 128.0 -551.0C111.0 -551.0 62.0 -547.0 32.0 -545.0L34.0 -562.0C56.0 -566.0 86.0 -571.0 95.0 -577.0C105.0 -585.0 109.0 -597.0 109.0 -610.0C135.0 -610.0 161.0 -602.0 180.0 -590.0C208.0 -567.0 221.0 -514.0 228.0 -413.0C246.0 -410.0 258.0 -406.0 263.0 -400.0L204.0 -350.0ZM136.0 -183.0 96.0 -233.0H-284.0L-277.0 -262.0H186.0C200.0 -262.0 209.0 -258.0 212.0 -246.0C183.0 -220.0 136.0 -183.0 136.0 -183.0ZM179.0 -36.0 139.0 -88.0H-317.0L-310.0 -117.0H233.0C246.0 -117.0 255.0 -112.0 257.0 -101.0C228.0 -72.0 179.0 -36.0 179.0 -36.0Z"/></g>
<g fill="red" transform="translate(1200 200) scale(0.1 -0.1)"><path d="M0.0 0.0 -172.0 16.0V-708.0H-147.0C-96.0 -708.0 -37.0 -680.0 -37.0 -668.0V-28.0C-9.0 -24.0 -2.0 -14.0 0.0 0.0ZM115.0 -368.0H-351.0L-342.0 -396.0H115.0ZM47.0 -368.0H57.0C54.0 -439.0 50.0 -473.0 41.0 -480.0C37.0 -484.0 32.0 -485.0 19.0 -485.0C5.0 -485.0 -28.0 -484.0 -46.0 -483.0V-495.0C-20.0 -502.0 -6.0 -512.0 5.0 -526.0C16.0 -541.0 18.0 -568.0 18.0 -599.0C63.0 -599.0 92.0 -591.0 117.0 -577.0C154.0 -554.0 165.0 -511.0 170.0 -413.0C188.0 -410.0 199.0 -405.0 206.0 -397.0L104.0 -316.0ZM48.0 -156.0 -12.0 -235.0H-304.0L-296.0 -263.0H130.0C144.0 -263.0 155.0 -258.0 157.0 -247.0C117.0 -210.0 48.0 -156.0 48.0 -156.0ZM64.0 -20.0 1.0 -103.0H-343.0L-335.0 -131.0H151.0C166.0 -131.0 176.0 -126.0 179.0 -115.0C136.0 -76.0 64.0 -20.0 64.0 -20.0Z"/></g>
<g fill="black" opacity=".8" transform="translate(1200 200) scale(0.1 -0.1)"><path d="M0.0 0.0 -171.0 16.0V-708.0H-145.0C-94.0 -708.0 -36.0 -681.0 -36.0 -669.0V-27.0C-10.0 -25.0 -1.0 -14.0 0.0 0.0ZM112.0 -369.0H-350.0L-340.0 -398.0H112.0ZM47.0 -369.0H55.0C54.0 -440.0 51.0 -473.0 40.0 -481.0C36.0 -484.0 33.0 -486.0 19.0 -486.0C5.0 -486.0 -26.0 -485.0 -44.0 -483.0L-45.0 -496.0C-19.0 -502.0 -5.0 -511.0 7.0 -526.0C17.0 -541.0 19.0 -568.0 19.0 -600.0C65.0 -598.0 94.0 -591.0 117.0 -576.0C155.0 -554.0 165.0 -511.0 169.0 -415.0C188.0 -411.0 198.0 -406.0 205.0 -399.0L103.0 -318.0ZM47.0 -154.0 -13.0 -233.0H-302.0L-293.0 -260.0H129.0C142.0 -260.0 152.0 -255.0 155.0 -246.0C116.0 -209.0 47.0 -154.0 47.0 -154.0ZM64.0 -17.0 2.0 -99.0H-340.0L-333.0 -128.0H151.0C166.0 -128.0 175.0 -122.0 178.0 -111.0C137.0 -73.0 64.0 -17.0 64.0 -17.0Z"/></g>
<g fill="red" transform="translate(1300 200) scale(0.1 -0.1)"><path d="M0.0 0.0 -80.0 10.0V-898.0H-71.0C-54.0 -898.0 -36.0 -887.0 -36.0 -878.0V-27.0C-11.0 -23.0 -3.0 -14.0 0.0 0.0ZM233.0 -484.0H-362.0L-353.0 -514.0H233.0ZM204.0 -484.0H214.0C211.0 -607.0 204.0 -685.0 188.0 -701.0C181.0 -707.0 174.0 -709.0 157.0 -709.0C138.0 -709.0 70.0 -703.0 32.0 -700.0V-717.0C63.0 -721.0 105.0 -728.0 117.0 -736.0C130.0 -743.0 134.0 -757.0 134.0 -769.0C163.0 -769.0 195.0 -761.0 214.0 -744.0C243.0 -718.0 253.0 -642.0 257.0 -517.0C276.0 -515.0 288.0 -511.0 294.0 -504.0L232.0 -453.0ZM192.0 -264.0 151.0 -314.0H-321.0L-313.0 -344.0H243.0C255.0 -344.0 265.0 -339.0 268.0 -328.0C239.0 -300.0 192.0 -264.0 192.0 -264.0ZM210.0 -99.0 168.0 -151.0H-332.0L-324.0 -181.0H263.0C277.0 -181.0 287.0 -176.0 289.0 -165.0C259.0 -136.0 210.0 -99.0 210.0 -99.0Z"/></g>
<g fill="black" opacity=".8" transform="translate(1300 200) scale(0.1 -0.1)"><path d="M0.0 0.0 -82.0 10.0V-889.0H-73.0C-55.0 -889.0 -37.0 -877.0 -37.0 -868.0V-28.0C-11.0 -24.0 -3.0 -14.0 0.0 0.0ZM233.0 -484.0H-367.0L-358.0 -515.0H233.0ZM196.0 -484.0H205.0C203.0 -613.0 198.0 -691.0 182.0 -707.0C176.0 -713.0 169.0 -715.0 152.0 -715.0C133.0 -715.0 69.0 -709.0 32.0 -706.0V-724.0C61.0 -728.0 102.0 -735.0 114.0 -742.0C126.0 -750.0 131.0 -764.0 131.0 -776.0C159.0 -776.0 190.0 -768.0 210.0 -752.0C238.0 -725.0 246.0 -650.0 250.0 -518.0C269.0 -515.0 281.0 -511.0 287.0 -505.0L224.0 -453.0ZM184.0 -261.0 143.0 -313.0H-322.0L-315.0 -343.0H236.0C250.0 -343.0 259.0 -338.0 262.0 -327.0C232.0 -298.0 184.0 -261.0 184.0 -261.0ZM210.0 -98.0 167.0 -152.0H-345.0L-338.0 -182.0H264.0C278.0 -182.0 288.0 -176.0 290.0 -165.0C259.0 -136.0 210.0 -98.0 210.0 -98.0Z"/></g>
<g fill="red" transform="translate(1400 200) scale(0.1 -0.1)"><path d="M0.0 0.0 -182.0 17.0V-919.0H-155.0C-100.0 -919.0 -37.0 -883.0 -37.0 -869.0V-29.0C-9.0 -25.0 -2.0 -15.0 0.0 0.0ZM141.0 -481.0H-392.0L-383.0 -509.0H141.0ZM82.0 -481.0H92.0C89.0 -604.0 84.0 -659.0 71.0 -671.0C66.0 -675.0 61.0 -677.0 47.0 -677.0C32.0 -677.0 -5.0 -676.0 -25.0 -674.0V-685.0C6.0 -694.0 22.0 -703.0 35.0 -721.0C47.0 -738.0 49.0 -759.0 49.0 -794.0C106.0 -794.0 141.0 -790.0 172.0 -769.0C213.0 -740.0 223.0 -689.0 227.0 -531.0C247.0 -528.0 258.0 -521.0 265.0 -513.0L149.0 -419.0ZM92.0 -226.0 23.0 -317.0H-344.0L-336.0 -345.0H189.0C204.0 -345.0 215.0 -340.0 218.0 -329.0C171.0 -287.0 92.0 -226.0 92.0 -226.0ZM128.0 -55.0 55.0 -150.0H-368.0L-360.0 -178.0H230.0C245.0 -178.0 256.0 -173.0 259.0 -162.0C210.0 -119.0 128.0 -55.0 128.0 -55.0Z"/></g>
<g fill="black" opacity=".8" transform="translate(1400 200) scale(0.1 -0.1)"><path d="M0.0 0.0 -187.0 17.0V-907.0H-158.0C-101.0 -907.0 -38.0 -871.0 -38.0 -857.0V-29.0C-9.0 -26.0 -2.0 -15.0 0.0 0.0ZM141.0 -476.0H-400.0L-391.0 -505.0H141.0ZM87.0 -476.0H96.0C94.0 -603.0 88.0 -660.0 73.0 -673.0C68.0 -677.0 62.0 -679.0 49.0 -679.0C33.0 -679.0 -3.0 -678.0 -24.0 -676.0L-25.0 -688.0C7.0 -696.0 23.0 -705.0 35.0 -724.0C47.0 -740.0 49.0 -763.0 49.0 -797.0C105.0 -796.0 140.0 -792.0 170.0 -771.0C214.0 -742.0 224.0 -687.0 230.0 -526.0C249.0 -523.0 261.0 -516.0 268.0 -508.0L153.0 -415.0ZM93.0 -225.0 24.0 -316.0H-353.0L-344.0 -344.0H191.0C206.0 -344.0 216.0 -339.0 219.0 -329.0C173.0 -286.0 93.0 -225.0 93.0 -225.0ZM121.0 -56.0 49.0 -151.0H-377.0L-370.0 -180.0H224.0C239.0 -180.0 250.0 -175.0 253.0 -163.0C204.0 -120.0 121.0 -56.0 121.0 -56.0Z"/></g>
</svg>
