<?xml version="1.0" encoding="UTF-8"?>
<svg width="1700" height="400" xmlns="http://www.w3.org/2000/svg">
<rect width="100%" height="100%" fill="white"/>
<g fill="green" transform="translate(100 100) scale(0.1 -0.1)"><path d="M0.0 0.0 -36.0 -43.0H-224.0V-74.0H41.0C55.0 -74.0 64.0 -69.0 68.0 -57.0C41.0 -31.0 0.0 0.0 0.0 0.0ZM61.0 -112.0 21.0 -160.0H-226.0V-191.0H110.0C123.0 -191.0 133.0 -186.0 136.0 -174.0C106.0 -146.0 61.0 -112.0 61.0 -112.0ZM29.0 110.0 -11.0 63.0H-226.0V32.0H78.0C92.0 32.0 101.0 37.0 104.0 49.0C75.0 77.0 29.0 110.0 29.0 110.0ZM-768.0 -193.0 -725.0 -257.0C-717.0 -254.0 -709.0 -246.0 -705.0 -234.0C-576.0 -197.0 -481.0 -166.0 -413.0 -145.0L-418.0 -127.0C-562.0 -157.0 -704.0 -184.0 -768.0 -193.0ZM-413.0 -43.0H-723.0L-714.0 -74.0H-413.0ZM-418.0 62.0H-753.0L-744.0 31.0H-418.0ZM-169.0 132.0 -253.0 142.0V-297.0H-244.0C-226.0 -297.0 -207.0 -284.0 -207.0 -277.0V105.0C-181.0 108.0 -171.0 117.0 -169.0 132.0ZM-356.0 131.0 -437.0 141.0V-69.0C-437.0 -185.0 -481.0 -277.0 -672.0 -337.0L-662.0 -353.0C-440.0 -292.0 -393.0 -192.0 -392.0 -70.0V105.0C-367.0 108.0 -359.0 117.0 -356.0 131.0Z"/></g>
<g fill="green" transform="translate(200 100) scale(0.1 -0.1)"><path d="M0.0 0.0 -63.0 -75.0H-203.0V-104.0H87.0C102.0 -104.0 113.0 -99.0 115.0 -88.0C71.0 -51.0 0.0 0.0 0.0 0.0ZM47.0 -116.0 -22.0 -199.0H-195.0V-228.0H146.0C162.0 -228.0 173.0 -223.0 175.0 -211.0C127.0 -172.0 47.0 -116.0 47.0 -116.0ZM18.0 114.0 -50.0 33.0H-198.0V4.0H113.0C128.0 4.0 139.0 9.0 142.0 20.0C94.0 60.0 18.0 114.0 18.0 114.0ZM-781.0 -146.0 -712.0 -276.0C-700.0 -273.0 -689.0 -267.0 -682.0 -253.0C-552.0 -202.0 -466.0 -166.0 -409.0 -138.0L-410.0 -124.0C-563.0 -135.0 -713.0 -144.0 -781.0 -146.0ZM-427.0 -59.0H-729.0L-720.0 -88.0H-427.0ZM-418.0 35.0H-760.0L-751.0 6.0H-418.0ZM-81.0 96.0 -264.0 112.0V-309.0H-240.0C-183.0 -309.0 -120.0 -287.0 -120.0 -278.0V66.0C-90.0 71.0 -83.0 82.0 -81.0 96.0ZM-332.0 96.0 -513.0 112.0V-113.0C-513.0 -220.0 -551.0 -311.0 -717.0 -377.0L-711.0 -387.0C-434.0 -339.0 -367.0 -241.0 -365.0 -114.0V68.0C-341.0 72.0 -334.0 82.0 -332.0 96.0Z"/></g>
<g fill="green" transform="translate(300 100) scale(0.1 -0.1)"><path d="M0.0 0.0 -29.0 -34.0H-191.0V-59.0H33.0C44.0 -59.0 51.0 -55.0 54.0 -45.0C33.0 -25.0 0.0 0.0 0.0 0.0ZM54.0 -76.0 22.0 -114.0H-194.0V-139.0H93.0C104.0 -139.0 112.0 -135.0 114.0 -125.0C90.0 -103.0 54.0 -76.0 54.0 -76.0ZM25.0 76.0 -7.0 38.0H-193.0V14.0H65.0C76.0 14.0 84.0 18.0 86.0 27.0C62.0 50.0 25.0 76.0 25.0 76.0ZM-650.0 -144.0 -614.0 -196.0C-608.0 -193.0 -601.0 -187.0 -598.0 -177.0C-486.0 -147.0 -404.0 -121.0 -344.0 -104.0L-348.0 -89.0C-473.0 -114.0 -595.0 -137.0 -650.0 -144.0ZM-346.0 -34.0H-612.0L-605.0 -59.0H-346.0ZM-351.0 37.0H-638.0L-631.0 13.0H-351.0ZM-148.0 81.0 -215.0 89.0V-202.0H-208.0C-194.0 -202.0 -178.0 -192.0 -178.0 -186.0V59.0C-157.0 62.0 -149.0 69.0 -148.0 81.0ZM-300.0 80.0 -365.0 88.0V-51.0C-365.0 -135.0 -401.0 -201.0 -560.0 -243.0L-553.0 -256.0C-368.0 -213.0 -330.0 -141.0 -329.0 -52.0V59.0C-309.0 62.0 -303.0 69.0 -300.0 80.0Z"/></g>
<g fill="green" transform="translate(400 100) scale(0.1 -0.1)"><path d="M0.0 0.0 -52.0 -60.0H-176.0V-83.0H73.0C85.0 -83.0 94.0 -79.0 95.0 -70.0C59.0 -41.0 0.0 0.0 0.0 0.0ZM43.0 -81.0 -14.0 -147.0H-169.0V-170.0H125.0C139.0 -170.0 147.0 -166.0 149.0 -156.0C109.0 -125.0 43.0 -81.0 43.0 -81.0ZM16.0 80.0 -40.0 15.0H-171.0V-8.0H96.0C108.0 -8.0 117.0 -4.0 120.0 5.0C79.0 37.0 16.0 80.0 16.0 80.0ZM-663.0 -101.0 -607.0 -205.0C-597.0 -202.0 -588.0 -198.0 -582.0 -187.0C-466.0 -147.0 -390.0 -119.0 -339.0 -97.0L-340.0 -85.0C-473.0 -93.0 -603.0 -100.0 -663.0 -101.0ZM-356.0 -46.0H-619.0L-612.0 -69.0H-356.0ZM-348.0 17.0H-647.0L-639.0 -7.0H-348.0ZM-72.0 50.0 -221.0 63.0V-206.0H-202.0C-155.0 -206.0 -104.0 -189.0 -104.0 -183.0V26.0C-79.0 30.0 -74.0 39.0 -72.0 50.0ZM-283.0 49.0 -431.0 62.0V-80.0C-431.0 -156.0 -462.0 -224.0 -604.0 -272.0L-599.0 -280.0C-365.0 -247.0 -311.0 -173.0 -309.0 -81.0V27.0C-290.0 30.0 -285.0 38.0 -283.0 49.0Z"/></g>
<g fill="green" transform="translate(500 100) scale(0.1 -0.1)"><path d="M0.0 0.0 -35.0 -43.0H-141.0V-74.0H40.0C54.0 -74.0 63.0 -69.0 67.0 -57.0C41.0 -31.0 0.0 0.0 0.0 0.0ZM27.0 -226.0 -13.0 -274.0H-144.0V-305.0H73.0C86.0 -305.0 96.0 -300.0 100.0 -288.0C70.0 -260.0 27.0 -226.0 27.0 -226.0ZM7.0 208.0 -31.0 163.0H-146.0V132.0H50.0C65.0 132.0 74.0 137.0 77.0 149.0C50.0 176.0 7.0 208.0 7.0 208.0ZM-529.0 -297.0 -492.0 -358.0C-484.0 -354.0 -477.0 -346.0 -475.0 -333.0C-401.0 -295.0 -343.0 -260.0 -303.0 -239.0L-310.0 -223.0C-399.0 -256.0 -489.0 -285.0 -529.0 -297.0ZM-297.0 -43.0H-501.0L-492.0 -74.0H-297.0ZM-309.0 163.0H-506.0L-497.0 132.0H-309.0ZM-92.0 324.0 -176.0 334.0V-604.0H-167.0C-149.0 -604.0 -130.0 -591.0 -130.0 -582.0V295.0C-103.0 300.0 -95.0 309.0 -92.0 324.0ZM-246.0 323.0 -329.0 333.0V-137.0C-329.0 -342.0 -374.0 -491.0 -534.0 -601.0L-519.0 -616.0C-333.0 -503.0 -284.0 -344.0 -283.0 -137.0V295.0C-257.0 298.0 -248.0 309.0 -246.0 323.0Z"/></g>
<g fill="green" transform="translate(600 100) scale(0.1 -0.1)"><path d="M0.0 0.0 -53.0 -78.0H-84.0V-107.0H66.0C81.0 -107.0 91.0 -102.0 93.0 -91.0C60.0 -55.0 0.0 0.0 0.0 0.0ZM17.0 -230.0 -42.0 -319.0H-79.0V-348.0H96.0C111.0 -348.0 121.0 -343.0 123.0 -331.0C86.0 -291.0 17.0 -230.0 17.0 -230.0ZM11.0 205.0 -45.0 122.0H-80.0V93.0H80.0C94.0 93.0 105.0 98.0 108.0 109.0C72.0 148.0 11.0 205.0 11.0 205.0ZM-534.0 -248.0 -470.0 -394.0C-458.0 -391.0 -446.0 -383.0 -440.0 -368.0C-373.0 -310.0 -325.0 -266.0 -297.0 -237.0L-299.0 -226.0C-393.0 -237.0 -491.0 -245.0 -534.0 -248.0ZM-315.0 -77.0H-499.0L-490.0 -106.0H-315.0ZM-306.0 121.0H-507.0L-498.0 91.0H-306.0ZM-17.0 297.0 -188.0 314.0V-643.0H-163.0C-113.0 -643.0 -57.0 -611.0 -57.0 -598.0V267.0C-27.0 271.0 -20.0 282.0 -17.0 297.0ZM-213.0 299.0 -383.0 314.0V-258.0C-383.0 -446.0 -430.0 -559.0 -557.0 -659.0L-548.0 -670.0C-332.0 -588.0 -252.0 -466.0 -251.0 -258.0V267.0C-223.0 272.0 -215.0 284.0 -213.0 299.0Z"/></g>
<g fill="green" transform="translate(700 100) scale(0.1 -0.1)"><path d="M0.0 0.0 -35.0 -41.0H-220.0V-69.0H39.0C52.0 -69.0 61.0 -65.0 64.0 -54.0C38.0 -29.0 0.0 0.0 0.0 0.0ZM51.0 -118.0 14.0 -163.0H-221.0V-191.0H96.0C108.0 -191.0 117.0 -187.0 120.0 -176.0C92.0 -150.0 51.0 -118.0 51.0 -118.0ZM31.0 120.0 -7.0 75.0H-220.0V47.0H77.0C89.0 47.0 98.0 51.0 101.0 62.0C74.0 88.0 31.0 120.0 31.0 120.0ZM-765.0 -192.0 -727.0 -253.0C-718.0 -251.0 -711.0 -244.0 -707.0 -233.0C-583.0 -203.0 -492.0 -178.0 -428.0 -161.0L-432.0 -144.0C-569.0 -167.0 -703.0 -186.0 -765.0 -192.0ZM-415.0 -45.0H-722.0L-714.0 -73.0H-415.0ZM-416.0 75.0H-754.0L-746.0 47.0H-416.0ZM-172.0 163.0 -249.0 172.0V-275.0H-241.0C-224.0 -275.0 -207.0 -264.0 -207.0 -257.0V138.0C-183.0 141.0 -174.0 149.0 -172.0 163.0ZM-357.0 162.0 -430.0 171.0V-28.0C-430.0 -146.0 -469.0 -247.0 -641.0 -313.0L-631.0 -329.0C-431.0 -261.0 -391.0 -151.0 -390.0 -29.0V138.0C-367.0 141.0 -359.0 149.0 -357.0 162.0Z"/></g>
<g fill="green" transform="translate(800 100) scale(0.1 -0.1)"><path d="M0.0 0.0 -62.0 -72.0H-223.0V-98.0H87.0C100.0 -98.0 111.0 -93.0 113.0 -83.0C69.0 -48.0 0.0 0.0 0.0 0.0ZM40.0 -111.0 -25.0 -187.0H-229.0V-213.0H135.0C149.0 -213.0 159.0 -209.0 161.0 -198.0C115.0 -163.0 40.0 -111.0 40.0 -111.0ZM15.0 137.0 -52.0 58.0H-220.0V32.0H111.0C125.0 32.0 135.0 36.0 138.0 46.0C90.0 85.0 15.0 137.0 15.0 137.0ZM-785.0 -176.0 -720.0 -284.0C-709.0 -281.0 -699.0 -276.0 -693.0 -264.0C-576.0 -222.0 -498.0 -193.0 -447.0 -169.0L-448.0 -156.0C-586.0 -166.0 -721.0 -174.0 -785.0 -176.0ZM-435.0 -66.0H-732.0L-724.0 -93.0H-435.0ZM-433.0 58.0H-769.0L-761.0 32.0H-433.0ZM-93.0 143.0 -265.0 158.0V-279.0H-242.0C-188.0 -279.0 -129.0 -257.0 -129.0 -248.0V115.0C-101.0 119.0 -95.0 130.0 -93.0 143.0ZM-334.0 143.0 -508.0 158.0V-37.0C-508.0 -148.0 -536.0 -259.0 -681.0 -339.0L-676.0 -346.0C-424.0 -289.0 -367.0 -168.0 -365.0 -38.0V117.0C-342.0 120.0 -337.0 130.0 -334.0 143.0Z"/></g>
<g fill="green" transform="translate(900 100) scale(0.1 -0.1)"><path d="M0.0 0.0 -35.0 -43.0H-236.0V-73.0H41.0C55.0 -73.0 63.0 -68.0 67.0 -56.0C41.0 -31.0 0.0 0.0 0.0 0.0ZM64.0 -115.0 23.0 -164.0H-228.0V-194.0H113.0C126.0 -194.0 136.0 -189.0 139.0 -178.0C109.0 -150.0 64.0 -115.0 64.0 -115.0ZM35.0 110.0 -3.0 64.0H-228.0V33.0H84.0C97.0 33.0 106.0 38.0 109.0 50.0C81.0 77.0 35.0 110.0 35.0 110.0ZM-785.0 -205.0 -740.0 -264.0C-733.0 -261.0 -726.0 -252.0 -721.0 -241.0C-594.0 -202.0 -501.0 -170.0 -434.0 -148.0L-439.0 -130.0C-580.0 -164.0 -722.0 -194.0 -785.0 -205.0ZM-430.0 -44.0H-726.0L-717.0 -75.0H-430.0ZM-432.0 63.0H-763.0L-754.0 32.0H-432.0ZM-174.0 130.0 -255.0 139.0V-297.0H-246.0C-228.0 -297.0 -210.0 -284.0 -210.0 -278.0V104.0C-186.0 107.0 -176.0 116.0 -174.0 130.0ZM-375.0 128.0 -455.0 138.0V-36.0C-455.0 -155.0 -497.0 -264.0 -695.0 -332.0L-684.0 -348.0C-456.0 -281.0 -412.0 -163.0 -411.0 -36.0V102.0C-387.0 105.0 -378.0 114.0 -375.0 128.0Z"/></g>
<g fill="green" transform="translate(1000 100) scale(0.1 -0.1)"><path d="M0.0 0.0 -68.0 -77.0H-222.0V-106.0H97.0C112.0 -106.0 123.0 -101.0 125.0 -90.0C77.0 -52.0 0.0 0.0 0.0 0.0ZM46.0 -105.0 -29.0 -193.0H-205.0V-222.0H155.0C172.0 -222.0 182.0 -217.0 185.0 -205.0C132.0 -164.0 46.0 -105.0 46.0 -105.0ZM6.0 115.0 -70.0 28.0H-228.0V-1.0H116.0C131.0 -1.0 143.0 4.0 146.0 15.0C91.0 57.0 6.0 115.0 6.0 115.0ZM-755.0 -151.0 -684.0 -277.0C-672.0 -275.0 -662.0 -269.0 -655.0 -254.0C-530.0 -201.0 -447.0 -164.0 -392.0 -135.0L-393.0 -122.0C-542.0 -136.0 -689.0 -148.0 -755.0 -151.0ZM-417.0 -56.0H-695.0L-686.0 -85.0H-417.0ZM-404.0 33.0H-726.0L-717.0 5.0H-404.0ZM-91.0 90.0 -268.0 105.0V-330.0H-244.0C-188.0 -330.0 -124.0 -306.0 -124.0 -297.0V64.0C-99.0 68.0 -93.0 78.0 -91.0 90.0ZM-325.0 94.0 -505.0 111.0V-108.0C-505.0 -215.0 -539.0 -310.0 -694.0 -377.0L-688.0 -387.0C-424.0 -338.0 -360.0 -236.0 -358.0 -109.0V67.0C-334.0 72.0 -327.0 81.0 -325.0 94.0Z"/></g>
<g fill="green" transform="translate(1100 100) scale(0.1 -0.1)"><path d="M0.0 0.0 -37.0 -46.0H-218.0V-79.0H44.0C60.0 -79.0 70.0 -74.0 72.0 -61.0C43.0 -33.0 0.0 0.0 0.0 0.0ZM59.0 -112.0 18.0 -161.0H-227.0V-194.0H109.0C123.0 -194.0 133.0 -189.0 136.0 -176.0C106.0 -147.0 59.0 -112.0 59.0 -112.0ZM28.0 111.0 -14.0 62.0H-226.0V29.0H79.0C94.0 29.0 103.0 34.0 107.0 47.0C76.0 76.0 28.0 111.0 28.0 111.0ZM-754.0 -165.0 -707.0 -231.0C-699.0 -228.0 -690.0 -220.0 -685.0 -208.0C-565.0 -176.0 -477.0 -150.0 -415.0 -131.0L-420.0 -113.0C-555.0 -135.0 -691.0 -158.0 -754.0 -165.0ZM-431.0 -40.0H-713.0L-704.0 -73.0H-431.0ZM-425.0 60.0H-746.0L-737.0 27.0H-425.0ZM-161.0 136.0 -248.0 146.0V-303.0H-238.0C-219.0 -303.0 -199.0 -289.0 -199.0 -282.0V108.0C-173.0 111.0 -163.0 121.0 -161.0 136.0ZM-360.0 138.0 -446.0 149.0V-59.0C-446.0 -171.0 -490.0 -259.0 -685.0 -318.0L-675.0 -334.0C-447.0 -275.0 -399.0 -180.0 -398.0 -60.0V110.0C-372.0 114.0 -364.0 123.0 -360.0 138.0Z"/></g>
<g fill="green" transform="translate(1200 100) scale(0.1 -0.1)"><path d="M0.0 0.0 -61.0 -78.0H-200.0V-109.0H82.0C97.0 -109.0 108.0 -104.0 111.0 -92.0C69.0 -54.0 0.0 0.0 0.0 0.0ZM35.0 -115.0 -31.0 -201.0H-190.0V-232.0H128.0C144.0 -232.0 156.0 -226.0 157.0 -214.0C113.0 -173.0 35.0 -115.0 35.0 -115.0ZM17.0 104.0 -46.0 24.0H-206.0V-7.0H102.0C117.0 -7.0 128.0 -2.0 131.0 10.0C88.0 50.0 17.0 104.0 17.0 104.0ZM-780.0 -153.0 -704.0 -289.0C-691.0 -285.0 -681.0 -277.0 -675.0 -262.0C-566.0 -202.0 -493.0 -158.0 -446.0 -127.0L-448.0 -113.0C-584.0 -131.0 -720.0 -147.0 -780.0 -153.0ZM-447.0 -50.0H-729.0L-719.0 -80.0H-447.0ZM-450.0 34.0H-749.0L-739.0 3.0H-450.0ZM-82.0 92.0 -273.0 108.0V-335.0H-248.0C-188.0 -335.0 -122.0 -311.0 -122.0 -301.0V60.0C-91.0 66.0 -84.0 77.0 -82.0 92.0ZM-329.0 89.0 -514.0 106.0V-98.0C-514.0 -210.0 -553.0 -314.0 -732.0 -385.0L-725.0 -396.0C-433.0 -343.0 -366.0 -232.0 -364.0 -99.0V60.0C-339.0 64.0 -331.0 74.0 -329.0 89.0Z"/></g>
<g fill="green" transform="translate(1300 100) scale(0.1 -0.1)"><path d="M0.0 0.0 -42.0 -50.0H-223.0V-84.0H48.0C63.0 -84.0 73.0 -79.0 78.0 -66.0C47.0 -36.0 0.0 0.0 0.0 0.0ZM69.0 -108.0 25.0 -162.0H-216.0V-196.0H122.0C137.0 -196.0 147.0 -190.0 151.0 -177.0C119.0 -147.0 69.0 -108.0 69.0 -108.0ZM38.0 104.0 -6.0 51.0H-217.0V17.0H91.0C106.0 17.0 117.0 22.0 120.0 35.0C88.0 66.0 38.0 104.0 38.0 104.0ZM-769.0 -197.0 -731.0 -272.0C-723.0 -269.0 -713.0 -260.0 -708.0 -247.0C-581.0 -211.0 -486.0 -179.0 -417.0 -158.0L-422.0 -139.0C-565.0 -166.0 -706.0 -190.0 -769.0 -197.0ZM-400.0 -47.0H-719.0L-709.0 -81.0H-400.0ZM-404.0 48.0H-753.0L-743.0 14.0H-404.0ZM-147.0 121.0 -241.0 132.0V-296.0H-231.0C-211.0 -296.0 -190.0 -283.0 -190.0 -276.0V91.0C-161.0 94.0 -150.0 104.0 -147.0 121.0ZM-347.0 122.0 -435.0 132.0V-89.0C-435.0 -197.0 -478.0 -279.0 -664.0 -333.0L-653.0 -351.0C-434.0 -294.0 -387.0 -205.0 -386.0 -90.0V93.0C-359.0 97.0 -351.0 106.0 -347.0 122.0Z"/></g>
<g fill="green" transform="translate(1400 100) scale(0.1 -0.1)"><path d="M0.0 0.0 -65.0 -77.0H-206.0V-109.0H87.0C102.0 -109.0 115.0 -103.0 116.0 -91.0C72.0 -53.0 0.0 0.0 0.0 0.0ZM49.0 -110.0 -24.0 -196.0H-200.0V-228.0H152.0C169.0 -228.0 181.0 -222.0 184.0 -209.0C133.0 -168.0 49.0 -110.0 49.0 -110.0ZM19.0 110.0 -50.0 29.0H-198.0V-3.0H113.0C129.0 -3.0 141.0 3.0 144.0 15.0C96.0 56.0 19.0 110.0 19.0 110.0ZM-781.0 -160.0 -711.0 -302.0C-698.0 -299.0 -686.0 -291.0 -679.0 -276.0C-554.0 -220.0 -471.0 -180.0 -417.0 -150.0L-418.0 -136.0C-567.0 -147.0 -715.0 -157.0 -781.0 -160.0ZM-442.0 -61.0H-732.0L-722.0 -92.0H-442.0ZM-433.0 28.0H-772.0L-762.0 -3.0H-433.0ZM-80.0 95.0 -268.0 111.0V-320.0H-244.0C-186.0 -320.0 -122.0 -299.0 -122.0 -289.0V62.0C-91.0 67.0 -82.0 80.0 -80.0 95.0ZM-330.0 100.0 -512.0 116.0V-108.0C-512.0 -210.0 -542.0 -299.0 -684.0 -365.0L-676.0 -376.0C-426.0 -324.0 -367.0 -229.0 -366.0 -109.0V70.0C-340.0 74.0 -333.0 84.0 -330.0 100.0Z"/></g>
<g fill="red" transform="translate(100 200) scale(0.1 -0.1)"><path d="M0.0 0.0 -37.0 -45.0H-177.0V-75.0H43.0C56.0 -75.0 65.0 -70.0 68.0 -59.0C42.0 -33.0 0.0 0.0 0.0 0.0ZM45.0 -163.0 5.0 -211.0H-162.0V-241.0H91.0C105.0 -241.0 114.0 -236.0 117.0 -225.0C89.0 -198.0 45.0 -163.0 45.0 -163.0ZM29.0 150.0 -8.0 104.0H-162.0V74.0H74.0C87.0 74.0 97.0 79.0 99.0 90.0C72.0 117.0 29.0 150.0 29.0 150.0ZM-608.0 -244.0 -577.0 -306.0C-569.0 -303.0 -562.0 -295.0 -558.0 -283.0C-473.0 -250.0 -407.0 -219.0 -361.0 -200.0L-365.0 -184.0C-464.0 -211.0 -565.0 -236.0 -608.0 -244.0ZM-338.0 -46.0H-562.0L-553.0 -76.0H-338.0ZM-341.0 104.0H-588.0L-579.0 74.0H-341.0ZM-108.0 221.0 -189.0 231.0V-423.0H-180.0C-163.0 -423.0 -145.0 -412.0 -145.0 -404.0V195.0C-120.0 198.0 -111.0 207.0 -108.0 221.0ZM-291.0 221.0 -370.0 230.0V-70.0C-370.0 -220.0 -405.0 -345.0 -558.0 -433.0L-545.0 -448.0C-366.0 -359.0 -327.0 -224.0 -326.0 -70.0V195.0C-302.0 198.0 -294.0 207.0 -291.0 221.0Z"/></g>
<g fill="black" opacity=".8" transform="translate(100 200) scale(0.1 -0.1)"><path d="M0.0 0.0 -36.0 -44.0H-177.0V-73.0H42.0C56.0 -73.0 64.0 -69.0 68.0 -57.0C42.0 -32.0 0.0 0.0 0.0 0.0ZM45.0 -164.0 5.0 -213.0H-162.0V-242.0H90.0C104.0 -242.0 113.0 -237.0 117.0 -226.0C88.0 -200.0 45.0 -164.0 45.0 -164.0ZM29.0 151.0 -7.0 106.0H-163.0V76.0H74.0C86.0 76.0 96.0 80.0 99.0 91.0C72.0 118.0 29.0 151.0 29.0 151.0ZM-612.0 -247.0 -579.0 -308.0C-572.0 -305.0 -565.0 -296.0 -561.0 -285.0C-473.0 -251.0 -407.0 -220.0 -358.0 -201.0L-364.0 -185.0C-465.0 -214.0 -567.0 -238.0 -612.0 -247.0ZM-334.0 -45.0H-562.0L-553.0 -75.0H-334.0ZM-337.0 104.0H-588.0L-579.0 74.0H-337.0ZM-109.0 221.0 -189.0 230.0V-423.0H-180.0C-162.0 -423.0 -145.0 -411.0 -145.0 -405.0V194.0C-120.0 198.0 -112.0 207.0 -109.0 221.0ZM-289.0 221.0 -366.0 229.0V-66.0C-366.0 -217.0 -403.0 -344.0 -562.0 -431.0L-549.0 -447.0C-364.0 -358.0 -325.0 -222.0 -324.0 -66.0V194.0C-300.0 197.0 -291.0 206.0 -289.0 221.0Z"/></g>
<g fill="red" transform="translate(200 200) scale(0.1 -0.1)"><path d="M0.0 0.0 -60.0 -74.0H-160.0V-102.0H80.0C94.0 -102.0 105.0 -97.0 107.0 -86.0C67.0 -50.0 0.0 0.0 0.0 0.0ZM28.0 -149.0 -40.0 -235.0H-154.0V-263.0H122.0C137.0 -263.0 148.0 -258.0 151.0 -247.0C104.0 -207.0 28.0 -149.0 28.0 -149.0ZM1.0 163.0 -65.0 80.0H-165.0V52.0H93.0C107.0 52.0 118.0 57.0 121.0 68.0C76.0 107.0 1.0 163.0 1.0 163.0ZM-575.0 -214.0 -513.0 -341.0C-502.0 -339.0 -491.0 -331.0 -486.0 -317.0C-411.0 -264.0 -359.0 -224.0 -327.0 -197.0L-328.0 -186.0C-428.0 -199.0 -530.0 -211.0 -575.0 -214.0ZM-346.0 -66.0H-535.0L-526.0 -94.0H-346.0ZM-336.0 80.0H-563.0L-554.0 52.0H-336.0ZM-58.0 202.0 -218.0 217.0V-470.0H-194.0C-147.0 -470.0 -91.0 -444.0 -91.0 -433.0V177.0C-67.0 180.0 -60.0 190.0 -58.0 202.0ZM-244.0 209.0 -403.0 224.0V-147.0C-403.0 -284.0 -430.0 -386.0 -527.0 -470.0L-519.0 -479.0C-336.0 -410.0 -280.0 -300.0 -279.0 -147.0V182.0C-254.0 186.0 -247.0 195.0 -244.0 209.0Z"/></g>
<g fill="black" opacity=".8" transform="translate(200 200) scale(0.1 -0.1)"><path d="M0.0 0.0 -60.0 -74.0H-157.0V-102.0H81.0C94.0 -102.0 105.0 -96.0 106.0 -86.0C67.0 -51.0 0.0 0.0 0.0 0.0ZM27.0 -149.0 -40.0 -234.0H-149.0V-262.0H121.0C136.0 -262.0 145.0 -257.0 149.0 -245.0C103.0 -206.0 27.0 -149.0 27.0 -149.0ZM1.0 159.0 -65.0 77.0H-162.0V49.0H91.0C105.0 49.0 117.0 54.0 120.0 65.0C74.0 104.0 1.0 159.0 1.0 159.0ZM-580.0 -213.0 -517.0 -340.0C-505.0 -338.0 -495.0 -330.0 -489.0 -316.0C-413.0 -262.0 -359.0 -224.0 -327.0 -196.0L-329.0 -186.0C-429.0 -198.0 -534.0 -210.0 -580.0 -213.0ZM-345.0 -66.0H-534.0L-525.0 -93.0H-345.0ZM-335.0 77.0H-560.0L-551.0 50.0H-335.0ZM-57.0 202.0 -215.0 216.0V-474.0H-192.0C-144.0 -474.0 -89.0 -447.0 -89.0 -436.0V176.0C-66.0 179.0 -59.0 190.0 -57.0 202.0ZM-242.0 210.0 -402.0 225.0V-142.0C-402.0 -281.0 -429.0 -386.0 -528.0 -471.0L-519.0 -480.0C-334.0 -411.0 -277.0 -298.0 -277.0 -143.0V182.0C-251.0 187.0 -245.0 196.0 -242.0 210.0Z"/></g>
<g fill="red" transform="translate(300 200) scale(0.1 -0.1)"><path d="M0.0 0.0 -37.0 -44.0H-209.0V-74.0H42.0C56.0 -74.0 65.0 -69.0 68.0 -58.0C41.0 -32.0 0.0 0.0 0.0 0.0ZM49.0 -133.0 10.0 -182.0H-209.0V-212.0H97.0C111.0 -212.0 120.0 -207.0 123.0 -196.0C94.0 -168.0 49.0 -133.0 49.0 -133.0ZM35.0 126.0 -4.0 78.0H-209.0V48.0H83.0C95.0 48.0 105.0 53.0 108.0 64.0C80.0 91.0 35.0 126.0 35.0 126.0ZM-731.0 -198.0 -694.0 -263.0C-685.0 -260.0 -677.0 -253.0 -673.0 -241.0C-559.0 -213.0 -475.0 -189.0 -416.0 -172.0L-419.0 -156.0C-547.0 -175.0 -674.0 -193.0 -731.0 -198.0ZM-398.0 -44.0H-688.0L-679.0 -74.0H-398.0ZM-399.0 78.0H-721.0L-712.0 48.0H-399.0ZM-150.0 177.0 -231.0 187.0V-331.0H-222.0C-205.0 -331.0 -187.0 -320.0 -187.0 -313.0V151.0C-162.0 154.0 -153.0 163.0 -150.0 177.0ZM-343.0 177.0 -421.0 186.0V-39.0C-421.0 -165.0 -458.0 -274.0 -624.0 -347.0L-612.0 -363.0C-418.0 -288.0 -378.0 -171.0 -377.0 -40.0V152.0C-353.0 155.0 -346.0 163.0 -343.0 177.0Z"/></g>
<g fill="black" opacity=".8" transform="translate(300 200) scale(0.1 -0.1)"><path d="M0.0 0.0 -39.0 -46.0H-208.0V-77.0H44.0C59.0 -77.0 69.0 -73.0 71.0 -61.0C43.0 -33.0 0.0 0.0 0.0 0.0ZM52.0 -130.0 12.0 -180.0H-206.0V-210.0H100.0C114.0 -210.0 123.0 -206.0 126.0 -194.0C97.0 -166.0 52.0 -130.0 52.0 -130.0ZM32.0 128.0 -8.0 79.0H-206.0V48.0H81.0C95.0 48.0 105.0 53.0 108.0 65.0C79.0 93.0 32.0 128.0 32.0 128.0ZM-730.0 -198.0 -692.0 -265.0C-684.0 -263.0 -675.0 -255.0 -670.0 -243.0C-558.0 -214.0 -474.0 -189.0 -415.0 -172.0L-419.0 -154.0C-546.0 -175.0 -672.0 -192.0 -730.0 -198.0ZM-401.0 -46.0H-686.0L-678.0 -77.0H-401.0ZM-398.0 78.0H-719.0L-710.0 47.0H-398.0ZM-147.0 178.0 -231.0 188.0V-322.0H-222.0C-203.0 -322.0 -185.0 -311.0 -185.0 -303.0V151.0C-159.0 154.0 -149.0 163.0 -147.0 178.0ZM-341.0 180.0 -421.0 189.0V-49.0C-421.0 -173.0 -460.0 -274.0 -632.0 -343.0L-620.0 -360.0C-419.0 -288.0 -378.0 -179.0 -377.0 -49.0V153.0C-352.0 157.0 -344.0 165.0 -341.0 180.0Z"/></g>
<g fill="red" transform="translate(400 200) scale(0.1 -0.1)"><path d="M0.0 0.0 -61.0 -75.0H-199.0V-103.0H83.0C97.0 -103.0 108.0 -98.0 110.0 -87.0C68.0 -51.0 0.0 0.0 0.0 0.0ZM36.0 -120.0 -28.0 -200.0H-199.0V-228.0H127.0C141.0 -228.0 152.0 -223.0 155.0 -212.0C110.0 -174.0 36.0 -120.0 36.0 -120.0ZM12.0 131.0 -52.0 52.0H-199.0V24.0H101.0C116.0 24.0 126.0 29.0 129.0 40.0C85.0 78.0 12.0 131.0 12.0 131.0ZM-758.0 -192.0 -690.0 -314.0C-679.0 -311.0 -669.0 -304.0 -663.0 -291.0C-558.0 -242.0 -489.0 -206.0 -443.0 -179.0L-444.0 -167.0C-573.0 -179.0 -700.0 -189.0 -758.0 -192.0ZM-439.0 -67.0H-695.0L-686.0 -95.0H-439.0ZM-439.0 55.0H-728.0L-719.0 27.0H-439.0ZM-79.0 161.0 -256.0 176.0V-350.0H-231.0C-177.0 -350.0 -116.0 -326.0 -116.0 -316.0V132.0C-88.0 136.0 -81.0 147.0 -79.0 161.0ZM-312.0 160.0 -485.0 176.0V-63.0C-485.0 -184.0 -512.0 -298.0 -638.0 -382.0L-632.0 -390.0C-403.0 -327.0 -347.0 -202.0 -345.0 -63.0V134.0C-321.0 137.0 -314.0 146.0 -312.0 160.0Z"/></g>
<g fill="black" opacity=".8" transform="translate(400 200) scale(0.1 -0.1)"><path d="M0.0 0.0 -62.0 -75.0H-205.0V-104.0H83.0C96.0 -104.0 108.0 -99.0 110.0 -88.0C68.0 -51.0 0.0 0.0 0.0 0.0ZM33.0 -123.0 -32.0 -204.0H-208.0V-233.0H127.0C142.0 -233.0 153.0 -228.0 155.0 -216.0C110.0 -178.0 33.0 -123.0 33.0 -123.0ZM14.0 139.0 -51.0 59.0H-206.0V30.0H103.0C117.0 30.0 128.0 35.0 131.0 46.0C86.0 85.0 14.0 139.0 14.0 139.0ZM-748.0 -195.0 -680.0 -317.0C-668.0 -314.0 -657.0 -307.0 -652.0 -293.0C-552.0 -242.0 -485.0 -205.0 -443.0 -178.0L-444.0 -165.0C-568.0 -178.0 -692.0 -190.0 -748.0 -195.0ZM-434.0 -64.0H-699.0L-690.0 -93.0H-434.0ZM-435.0 61.0H-732.0L-723.0 32.0H-435.0ZM-83.0 158.0 -261.0 173.0V-348.0H-237.0C-182.0 -348.0 -121.0 -324.0 -121.0 -314.0V128.0C-92.0 132.0 -85.0 144.0 -83.0 158.0ZM-315.0 160.0 -491.0 176.0V-62.0C-491.0 -183.0 -518.0 -297.0 -653.0 -381.0L-646.0 -390.0C-407.0 -326.0 -351.0 -202.0 -349.0 -63.0V132.0C-324.0 135.0 -318.0 145.0 -315.0 160.0Z"/></g>
<g fill="red" transform="translate(500 200) scale(0.1 -0.1)"><path d="M0.0 0.0 -36.0 -45.0H-131.0V-75.0H43.0C56.0 -75.0 66.0 -70.0 68.0 -59.0C41.0 -33.0 0.0 0.0 0.0 0.0ZM37.0 -145.0 1.0 -190.0H-130.0V-220.0H81.0C95.0 -220.0 103.0 -215.0 106.0 -204.0C80.0 -178.0 37.0 -145.0 37.0 -145.0ZM18.0 135.0 -19.0 90.0H-131.0V60.0H61.0C75.0 60.0 84.0 65.0 87.0 76.0C60.0 102.0 18.0 135.0 18.0 135.0ZM-483.0 -190.0 -455.0 -254.0C-447.0 -251.0 -439.0 -244.0 -435.0 -232.0C-368.0 -206.0 -316.0 -182.0 -280.0 -166.0L-284.0 -151.0C-364.0 -168.0 -447.0 -185.0 -483.0 -190.0ZM-275.0 -37.0H-456.0L-447.0 -67.0H-275.0ZM-274.0 88.0H-474.0L-465.0 58.0H-274.0ZM-68.0 197.0 -149.0 207.0V-402.0H-140.0C-123.0 -402.0 -105.0 -391.0 -105.0 -383.0V171.0C-80.0 174.0 -71.0 183.0 -68.0 197.0ZM-224.0 201.0 -302.0 210.0V-110.0C-302.0 -238.0 -338.0 -325.0 -475.0 -391.0L-464.0 -405.0C-300.0 -337.0 -259.0 -243.0 -258.0 -110.0V175.0C-234.0 178.0 -227.0 187.0 -224.0 201.0Z"/></g>
<g fill="black" opacity=".8" transform="translate(500 200) scale(0.1 -0.1)"><path d="M0.0 0.0 -35.0 -44.0H-131.0V-73.0H42.0C56.0 -73.0 64.0 -69.0 67.0 -57.0C41.0 -32.0 0.0 0.0 0.0 0.0ZM38.0 -145.0 2.0 -190.0H-132.0V-220.0H80.0C94.0 -220.0 102.0 -215.0 106.0 -203.0C80.0 -178.0 38.0 -145.0 38.0 -145.0ZM19.0 134.0 -17.0 90.0H-132.0V61.0H61.0C74.0 61.0 84.0 65.0 87.0 76.0C60.0 102.0 19.0 134.0 19.0 134.0ZM-485.0 -191.0 -454.0 -254.0C-448.0 -250.0 -439.0 -243.0 -436.0 -232.0C-369.0 -206.0 -317.0 -181.0 -279.0 -166.0L-284.0 -151.0C-365.0 -168.0 -447.0 -186.0 -485.0 -191.0ZM-274.0 -35.0H-456.0L-448.0 -65.0H-274.0ZM-273.0 86.0H-473.0L-465.0 58.0H-273.0ZM-70.0 197.0 -149.0 206.0V-404.0H-140.0C-123.0 -404.0 -105.0 -393.0 -105.0 -386.0V170.0C-80.0 174.0 -72.0 183.0 -70.0 197.0ZM-224.0 201.0 -301.0 210.0V-106.0C-301.0 -236.0 -337.0 -326.0 -474.0 -393.0L-463.0 -407.0C-299.0 -336.0 -259.0 -242.0 -258.0 -107.0V174.0C-234.0 179.0 -228.0 187.0 -224.0 201.0Z"/></g>
<g fill="red" transform="translate(600 200) scale(0.1 -0.1)"><path d="M0.0 0.0 -45.0 -67.0H-103.0V-95.0H54.0C67.0 -95.0 77.0 -90.0 79.0 -79.0C51.0 -47.0 0.0 0.0 0.0 0.0ZM16.0 -149.0 -37.0 -225.0H-100.0V-253.0H84.0C97.0 -253.0 108.0 -248.0 110.0 -237.0C76.0 -201.0 16.0 -149.0 16.0 -149.0ZM12.0 129.0 -33.0 63.0H-105.0V35.0H66.0C79.0 35.0 89.0 40.0 91.0 51.0C63.0 83.0 12.0 129.0 12.0 129.0ZM-500.0 -187.0 -440.0 -319.0C-429.0 -316.0 -419.0 -306.0 -415.0 -293.0C-364.0 -236.0 -328.0 -191.0 -307.0 -163.0L-309.0 -153.0C-386.0 -168.0 -466.0 -182.0 -500.0 -187.0ZM-314.0 -51.0H-474.0L-465.0 -79.0H-314.0ZM-317.0 66.0H-487.0L-478.0 38.0H-317.0ZM-31.0 174.0 -185.0 188.0V-453.0H-164.0C-119.0 -453.0 -68.0 -430.0 -68.0 -419.0V145.0C-41.0 149.0 -33.0 160.0 -31.0 174.0ZM-203.0 177.0 -348.0 191.0V-158.0C-348.0 -285.0 -378.0 -375.0 -484.0 -448.0L-475.0 -458.0C-292.0 -395.0 -238.0 -299.0 -237.0 -158.0V150.0C-213.0 154.0 -205.0 163.0 -203.0 177.0Z"/></g>
<g fill="black" opacity=".8" transform="translate(600 200) scale(0.1 -0.1)"><path d="M0.0 0.0 -46.0 -67.0H-100.0V-94.0H55.0C67.0 -94.0 78.0 -89.0 78.0 -78.0C51.0 -48.0 0.0 0.0 0.0 0.0ZM15.0 -148.0 -37.0 -223.0H-95.0V-251.0H83.0C98.0 -251.0 107.0 -245.0 109.0 -234.0C77.0 -199.0 15.0 -148.0 15.0 -148.0ZM12.0 126.0 -33.0 61.0H-102.0V33.0H65.0C78.0 33.0 88.0 38.0 91.0 49.0C62.0 81.0 12.0 126.0 12.0 126.0ZM-503.0 -187.0 -443.0 -318.0C-431.0 -314.0 -422.0 -305.0 -417.0 -292.0C-365.0 -235.0 -327.0 -191.0 -306.0 -163.0L-309.0 -153.0C-385.0 -167.0 -468.0 -181.0 -503.0 -187.0ZM-316.0 -52.0H-474.0L-465.0 -78.0H-316.0ZM-318.0 65.0H-486.0L-477.0 36.0H-318.0ZM-31.0 175.0 -184.0 189.0V-455.0H-163.0C-117.0 -455.0 -67.0 -430.0 -67.0 -420.0V146.0C-40.0 151.0 -33.0 162.0 -31.0 175.0ZM-202.0 178.0 -347.0 191.0V-156.0C-347.0 -283.0 -377.0 -374.0 -481.0 -449.0L-471.0 -459.0C-290.0 -396.0 -236.0 -298.0 -236.0 -156.0V150.0C-211.0 154.0 -205.0 163.0 -202.0 178.0Z"/></g>
<g fill="red" transform="translate(700 200) scale(0.1 -0.1)"><path d="M0.0 0.0 -33.0 -42.0H-169.0V-72.0H40.0C54.0 -72.0 63.0 -67.0 64.0 -56.0C40.0 -31.0 0.0 0.0 0.0 0.0ZM36.0 -175.0 -2.0 -221.0H-169.0V-251.0H81.0C95.0 -251.0 104.0 -246.0 106.0 -235.0C79.0 -208.0 36.0 -175.0 36.0 -175.0ZM21.0 162.0 -15.0 118.0H-169.0V88.0H64.0C77.0 88.0 86.0 93.0 89.0 104.0C63.0 130.0 21.0 162.0 21.0 162.0ZM-593.0 -225.0 -552.0 -280.0C-544.0 -276.0 -538.0 -269.0 -534.0 -258.0C-453.0 -227.0 -393.0 -201.0 -353.0 -184.0L-357.0 -168.0C-451.0 -192.0 -549.0 -216.0 -593.0 -225.0ZM-356.0 -39.0H-551.0L-542.0 -69.0H-356.0ZM-352.0 118.0H-576.0L-567.0 88.0H-352.0ZM-114.0 241.0 -191.0 250.0V-454.0H-182.0C-165.0 -454.0 -147.0 -443.0 -147.0 -435.0V216.0C-125.0 219.0 -117.0 228.0 -114.0 241.0ZM-296.0 242.0 -375.0 251.0V-51.0C-375.0 -211.0 -414.0 -345.0 -583.0 -438.0L-570.0 -452.0C-375.0 -360.0 -332.0 -216.0 -331.0 -51.0V216.0C-307.0 219.0 -299.0 228.0 -296.0 242.0Z"/></g>
<g fill="black" opacity=".8" transform="translate(700 200) scale(0.1 -0.1)"><path d="M0.0 0.0 -33.0 -43.0H-169.0V-73.0H41.0C56.0 -73.0 64.0 -68.0 66.0 -56.0C40.0 -31.0 0.0 0.0 0.0 0.0ZM37.0 -174.0 -2.0 -220.0H-169.0V-250.0H82.0C95.0 -250.0 104.0 -245.0 107.0 -234.0C79.0 -207.0 37.0 -174.0 37.0 -174.0ZM20.0 162.0 -16.0 118.0H-169.0V88.0H64.0C78.0 88.0 86.0 92.0 90.0 104.0C63.0 130.0 20.0 162.0 20.0 162.0ZM-592.0 -224.0 -550.0 -280.0C-544.0 -276.0 -537.0 -268.0 -532.0 -257.0C-453.0 -227.0 -394.0 -200.0 -353.0 -182.0L-358.0 -167.0C-450.0 -191.0 -548.0 -215.0 -592.0 -224.0ZM-358.0 -39.0H-551.0L-542.0 -70.0H-358.0ZM-353.0 117.0H-575.0L-566.0 87.0H-353.0ZM-114.0 242.0 -191.0 250.0V-453.0H-182.0C-165.0 -453.0 -147.0 -441.0 -147.0 -434.0V215.0C-124.0 219.0 -116.0 229.0 -114.0 242.0ZM-296.0 243.0 -376.0 253.0V-54.0C-376.0 -213.0 -415.0 -345.0 -583.0 -438.0L-570.0 -452.0C-375.0 -360.0 -333.0 -219.0 -332.0 -53.0V215.0C-308.0 219.0 -299.0 229.0 -296.0 243.0Z"/></g>
<g fill="red" transform="translate(800 200) scale(0.1 -0.1)"><path d="M0.0 0.0 -56.0 -77.0H-142.0V-105.0H74.0C88.0 -105.0 98.0 -100.0 101.0 -89.0C64.0 -53.0 0.0 0.0 0.0 0.0ZM14.0 -160.0 -47.0 -248.0H-129.0V-276.0H97.0C111.0 -276.0 122.0 -271.0 124.0 -260.0C84.0 -220.0 14.0 -160.0 14.0 -160.0ZM0.0 152.0 -59.0 71.0H-159.0V43.0H79.0C93.0 43.0 103.0 48.0 106.0 59.0C67.0 97.0 0.0 152.0 0.0 152.0ZM-578.0 -212.0 -507.0 -342.0C-496.0 -339.0 -487.0 -330.0 -482.0 -316.0C-421.0 -256.0 -379.0 -210.0 -353.0 -180.0L-355.0 -170.0C-445.0 -189.0 -538.0 -206.0 -578.0 -212.0ZM-353.0 -56.0H-527.0L-518.0 -84.0H-353.0ZM-355.0 82.0H-534.0L-525.0 54.0H-355.0ZM-52.0 205.0 -218.0 220.0V-518.0H-193.0C-143.0 -518.0 -84.0 -489.0 -84.0 -477.0V179.0C-60.0 183.0 -54.0 192.0 -52.0 205.0ZM-237.0 207.0 -402.0 223.0V-150.0C-402.0 -303.0 -439.0 -422.0 -570.0 -514.0L-563.0 -523.0C-339.0 -451.0 -274.0 -322.0 -272.0 -150.0V180.0C-247.0 184.0 -239.0 194.0 -237.0 207.0Z"/></g>
<g fill="black" opacity=".8" transform="translate(800 200) scale(0.1 -0.1)"><path d="M0.0 0.0 -56.0 -77.0H-144.0V-105.0H75.0C88.0 -105.0 98.0 -100.0 101.0 -89.0C64.0 -54.0 0.0 0.0 0.0 0.0ZM13.0 -161.0 -48.0 -249.0H-131.0V-277.0H98.0C113.0 -277.0 122.0 -272.0 124.0 -261.0C85.0 -221.0 13.0 -161.0 13.0 -161.0ZM0.0 155.0 -59.0 73.0H-161.0V45.0H80.0C93.0 45.0 104.0 49.0 107.0 61.0C67.0 99.0 0.0 155.0 0.0 155.0ZM-575.0 -214.0 -505.0 -343.0C-493.0 -340.0 -484.0 -331.0 -479.0 -316.0C-420.0 -255.0 -377.0 -209.0 -353.0 -180.0L-355.0 -169.0C-443.0 -189.0 -535.0 -206.0 -575.0 -214.0ZM-353.0 -56.0H-529.0L-520.0 -84.0H-353.0ZM-354.0 84.0H-536.0L-526.0 55.0H-354.0ZM-54.0 205.0 -219.0 220.0V-517.0H-195.0C-144.0 -517.0 -86.0 -487.0 -86.0 -475.0V179.0C-61.0 183.0 -56.0 192.0 -54.0 205.0ZM-238.0 207.0 -404.0 223.0V-151.0C-404.0 -303.0 -440.0 -422.0 -572.0 -513.0L-564.0 -523.0C-340.0 -451.0 -275.0 -323.0 -273.0 -151.0V179.0C-247.0 183.0 -240.0 193.0 -238.0 207.0Z"/></g>
<g fill="red" transform="translate(900 200) scale(0.1 -0.1)"><path d="M0.0 0.0 -34.0 -41.0H-137.0V-71.0H38.0C52.0 -71.0 61.0 -66.0 63.0 -55.0C39.0 -30.0 0.0 0.0 0.0 0.0ZM27.0 -212.0 -11.0 -257.0H-137.0V-287.0H71.0C84.0 -287.0 93.0 -282.0 96.0 -271.0C69.0 -245.0 27.0 -212.0 27.0 -212.0ZM11.0 194.0 -25.0 151.0H-137.0V121.0H52.0C66.0 121.0 75.0 126.0 77.0 137.0C51.0 163.0 11.0 194.0 11.0 194.0ZM-502.0 -269.0 -469.0 -329.0C-460.0 -325.0 -453.0 -317.0 -451.0 -305.0C-387.0 -272.0 -335.0 -242.0 -302.0 -224.0L-307.0 -209.0C-386.0 -236.0 -467.0 -260.0 -502.0 -269.0ZM-297.0 -41.0H-483.0L-474.0 -71.0H-297.0ZM-299.0 151.0H-485.0L-476.0 121.0H-299.0ZM-84.0 312.0 -164.0 322.0V-578.0H-155.0C-138.0 -578.0 -120.0 -566.0 -120.0 -557.0V285.0C-95.0 289.0 -87.0 298.0 -84.0 312.0ZM-243.0 314.0 -322.0 323.0V-116.0C-322.0 -309.0 -361.0 -454.0 -504.0 -563.0L-489.0 -577.0C-322.0 -466.0 -279.0 -310.0 -278.0 -116.0V287.0C-253.0 290.0 -245.0 300.0 -243.0 314.0Z"/></g>
<g fill="black" opacity=".8" transform="translate(900 200) scale(0.1 -0.1)"><path d="M0.0 0.0 -35.0 -43.0H-134.0V-73.0H40.0C54.0 -73.0 63.0 -69.0 66.0 -57.0C40.0 -31.0 0.0 0.0 0.0 0.0ZM25.0 -215.0 -14.0 -261.0H-136.0V-291.0H69.0C82.0 -291.0 91.0 -287.0 95.0 -275.0C67.0 -248.0 25.0 -215.0 25.0 -215.0ZM9.0 198.0 -28.0 154.0H-138.0V124.0H51.0C66.0 124.0 75.0 128.0 78.0 140.0C51.0 166.0 9.0 198.0 9.0 198.0ZM-505.0 -273.0 -470.0 -333.0C-462.0 -329.0 -455.0 -321.0 -453.0 -309.0C-386.0 -277.0 -334.0 -246.0 -298.0 -228.0L-305.0 -212.0C-385.0 -239.0 -468.0 -263.0 -505.0 -273.0ZM-292.0 -41.0H-478.0L-469.0 -71.0H-292.0ZM-298.0 153.0H-486.0L-477.0 123.0H-298.0ZM-83.0 312.0 -164.0 322.0V-567.0H-155.0C-138.0 -567.0 -119.0 -555.0 -119.0 -546.0V284.0C-94.0 289.0 -86.0 298.0 -83.0 312.0ZM-238.0 313.0 -319.0 323.0V-117.0C-319.0 -309.0 -360.0 -450.0 -510.0 -555.0L-495.0 -569.0C-320.0 -461.0 -275.0 -311.0 -274.0 -117.0V285.0C-249.0 289.0 -241.0 299.0 -238.0 313.0Z"/></g>
<g fill="red" transform="translate(1000 200) scale(0.1 -0.1)"><path d="M0.0 0.0 -50.0 -74.0H-80.0V-102.0H62.0C76.0 -102.0 86.0 -97.0 88.0 -86.0C57.0 -51.0 0.0 0.0 0.0 0.0ZM14.0 -209.0 -42.0 -294.0H-77.0V-322.0H88.0C101.0 -322.0 112.0 -317.0 114.0 -306.0C79.0 -267.0 14.0 -209.0 14.0 -209.0ZM9.0 196.0 -43.0 115.0H-82.0V87.0H74.0C88.0 87.0 98.0 92.0 100.0 103.0C68.0 140.0 9.0 196.0 9.0 196.0ZM-512.0 -247.0 -445.0 -384.0C-434.0 -381.0 -423.0 -373.0 -418.0 -359.0C-362.0 -303.0 -323.0 -261.0 -300.0 -233.0L-301.0 -223.0C-385.0 -234.0 -473.0 -244.0 -512.0 -247.0ZM-323.0 -68.0H-483.0L-474.0 -96.0H-323.0ZM-316.0 115.0H-490.0L-481.0 87.0H-316.0ZM-22.0 294.0 -190.0 310.0V-612.0H-165.0C-116.0 -612.0 -59.0 -580.0 -59.0 -567.0V265.0C-32.0 269.0 -25.0 280.0 -22.0 294.0ZM-209.0 292.0 -367.0 307.0V-210.0C-367.0 -392.0 -407.0 -514.0 -520.0 -617.0L-511.0 -627.0C-317.0 -542.0 -247.0 -410.0 -245.0 -210.0V263.0C-219.0 267.0 -211.0 278.0 -209.0 292.0Z"/></g>
<g fill="black" opacity=".8" transform="translate(1000 200) scale(0.1 -0.1)"><path d="M0.0 0.0 -51.0 -75.0H-88.0V-104.0H62.0C76.0 -104.0 86.0 -99.0 88.0 -88.0C57.0 -53.0 0.0 0.0 0.0 0.0ZM11.0 -214.0 -45.0 -299.0H-86.0V-327.0H85.0C99.0 -327.0 109.0 -322.0 111.0 -311.0C76.0 -272.0 11.0 -214.0 11.0 -214.0ZM9.0 195.0 -44.0 116.0H-90.0V88.0H73.0C86.0 88.0 96.0 93.0 99.0 104.0C66.0 141.0 9.0 195.0 9.0 195.0ZM-513.0 -248.0 -450.0 -386.0C-438.0 -383.0 -427.0 -374.0 -422.0 -360.0C-369.0 -302.0 -330.0 -258.0 -309.0 -230.0L-311.0 -220.0C-391.0 -233.0 -476.0 -243.0 -513.0 -248.0ZM-314.0 -72.0H-479.0L-470.0 -100.0H-314.0ZM-312.0 118.0H-486.0L-477.0 89.0H-312.0ZM-21.0 289.0 -186.0 305.0V-614.0H-162.0C-113.0 -614.0 -59.0 -583.0 -59.0 -570.0V260.0C-31.0 264.0 -24.0 275.0 -21.0 289.0ZM-204.0 291.0 -366.0 306.0V-218.0C-366.0 -398.0 -407.0 -515.0 -523.0 -615.0L-514.0 -625.0C-314.0 -543.0 -242.0 -416.0 -241.0 -218.0V260.0C-214.0 265.0 -206.0 276.0 -204.0 291.0Z"/></g>
<g fill="red" transform="translate(1100 200) scale(0.1 -0.1)"><path d="M0.0 0.0 -35.0 -42.0H-212.0V-72.0H40.0C54.0 -72.0 63.0 -67.0 66.0 -56.0C40.0 -31.0 0.0 0.0 0.0 0.0ZM59.0 -99.0 21.0 -144.0H-212.0V-174.0H105.0C118.0 -174.0 128.0 -169.0 130.0 -158.0C102.0 -131.0 59.0 -99.0 59.0 -99.0ZM26.0 102.0 -12.0 57.0H-212.0V27.0H73.0C87.0 27.0 95.0 32.0 98.0 43.0C70.0 70.0 26.0 102.0 26.0 102.0ZM-726.0 -172.0 -686.0 -234.0C-678.0 -231.0 -670.0 -224.0 -666.0 -212.0C-545.0 -178.0 -456.0 -150.0 -393.0 -130.0L-397.0 -113.0C-532.0 -139.0 -666.0 -164.0 -726.0 -172.0ZM-398.0 -41.0H-683.0L-674.0 -71.0H-398.0ZM-397.0 56.0H-714.0L-705.0 26.0H-397.0ZM-158.0 119.0 -239.0 129.0V-258.0H-230.0C-213.0 -258.0 -195.0 -246.0 -195.0 -239.0V93.0C-170.0 96.0 -160.0 105.0 -158.0 119.0ZM-338.0 120.0 -416.0 129.0V-62.0C-416.0 -165.0 -459.0 -244.0 -645.0 -296.0L-636.0 -311.0C-420.0 -259.0 -373.0 -172.0 -372.0 -63.0V95.0C-348.0 98.0 -341.0 106.0 -338.0 120.0Z"/></g>
<g fill="black" opacity=".8" transform="translate(1100 200) scale(0.1 -0.1)"><path d="M0.0 0.0 -34.0 -41.0H-212.0V-70.0H39.0C52.0 -70.0 61.0 -65.0 64.0 -54.0C39.0 -29.0 0.0 0.0 0.0 0.0ZM58.0 -101.0 20.0 -146.0H-215.0V-175.0H103.0C116.0 -175.0 125.0 -170.0 128.0 -159.0C100.0 -133.0 58.0 -101.0 58.0 -101.0ZM28.0 100.0 -9.0 56.0H-215.0V27.0H74.0C87.0 27.0 96.0 31.0 99.0 42.0C71.0 69.0 28.0 100.0 28.0 100.0ZM-727.0 -171.0 -686.0 -231.0C-678.0 -228.0 -671.0 -221.0 -667.0 -210.0C-546.0 -177.0 -457.0 -149.0 -394.0 -130.0L-398.0 -113.0C-533.0 -139.0 -666.0 -164.0 -727.0 -171.0ZM-396.0 -40.0H-684.0L-676.0 -69.0H-396.0ZM-398.0 54.0H-714.0L-706.0 25.0H-398.0ZM-161.0 118.0 -239.0 127.0V-265.0H-231.0C-214.0 -265.0 -196.0 -253.0 -196.0 -247.0V93.0C-172.0 96.0 -163.0 104.0 -161.0 118.0ZM-340.0 118.0 -416.0 127.0V-55.0C-416.0 -160.0 -457.0 -244.0 -637.0 -299.0L-628.0 -314.0C-418.0 -259.0 -375.0 -167.0 -374.0 -56.0V93.0C-351.0 96.0 -343.0 105.0 -340.0 118.0Z"/></g>
<g fill="red" transform="translate(1200 200) scale(0.1 -0.1)"><path d="M0.0 0.0 -59.0 -71.0H-201.0V-99.0H81.0C95.0 -99.0 106.0 -94.0 108.0 -83.0C67.0 -48.0 0.0 0.0 0.0 0.0ZM41.0 -105.0 -25.0 -184.0H-196.0V-212.0H134.0C149.0 -212.0 160.0 -207.0 162.0 -196.0C116.0 -158.0 41.0 -105.0 41.0 -105.0ZM17.0 107.0 -47.0 31.0H-199.0V3.0H106.0C120.0 3.0 131.0 8.0 134.0 19.0C89.0 56.0 17.0 107.0 17.0 107.0ZM-733.0 -137.0 -665.0 -259.0C-654.0 -256.0 -644.0 -249.0 -638.0 -236.0C-522.0 -186.0 -446.0 -150.0 -395.0 -123.0L-396.0 -110.0C-535.0 -123.0 -672.0 -134.0 -733.0 -137.0ZM-404.0 -50.0H-693.0L-684.0 -78.0H-404.0ZM-399.0 34.0H-721.0L-712.0 6.0H-399.0ZM-82.0 80.0 -256.0 95.0V-279.0H-233.0C-179.0 -279.0 -119.0 -259.0 -119.0 -250.0V52.0C-91.0 56.0 -84.0 67.0 -82.0 80.0ZM-317.0 82.0 -489.0 98.0V-90.0C-489.0 -189.0 -525.0 -278.0 -691.0 -341.0L-686.0 -350.0C-413.0 -305.0 -351.0 -208.0 -349.0 -91.0V56.0C-326.0 60.0 -319.0 69.0 -317.0 82.0Z"/></g>
<g fill="black" opacity=".8" transform="translate(1200 200) scale(0.1 -0.1)"><path d="M0.0 0.0 -59.0 -71.0H-197.0V-98.0H82.0C96.0 -98.0 106.0 -93.0 108.0 -83.0C67.0 -48.0 0.0 0.0 0.0 0.0ZM42.0 -103.0 -22.0 -181.0H-189.0V-208.0H135.0C150.0 -208.0 160.0 -203.0 162.0 -192.0C117.0 -155.0 42.0 -103.0 42.0 -103.0ZM16.0 102.0 -48.0 27.0H-195.0V-1.0H105.0C119.0 -1.0 129.0 4.0 132.0 14.0C87.0 52.0 16.0 102.0 16.0 102.0ZM-740.0 -135.0 -674.0 -256.0C-662.0 -253.0 -652.0 -247.0 -646.0 -234.0C-527.0 -185.0 -448.0 -151.0 -396.0 -124.0L-397.0 -111.0C-538.0 -123.0 -677.0 -133.0 -740.0 -135.0ZM-408.0 -53.0H-690.0L-682.0 -80.0H-408.0ZM-402.0 30.0H-718.0L-709.0 3.0H-402.0ZM-80.0 83.0 -252.0 98.0V-280.0H-230.0C-176.0 -280.0 -116.0 -259.0 -116.0 -251.0V55.0C-88.0 60.0 -82.0 70.0 -80.0 83.0ZM-315.0 82.0 -485.0 98.0V-92.0C-485.0 -191.0 -520.0 -279.0 -678.0 -341.0L-673.0 -350.0C-409.0 -306.0 -348.0 -210.0 -346.0 -93.0V56.0C-323.0 60.0 -317.0 69.0 -315.0 82.0Z"/></g>
<g fill="red" transform="translate(1300 200) scale(0.1 -0.1)"><path d="M0.0 0.0 -34.0 -42.0H-133.0V-72.0H40.0C53.0 -72.0 62.0 -67.0 65.0 -56.0C40.0 -31.0 0.0 0.0 0.0 0.0ZM27.0 -221.0 -11.0 -268.0H-128.0V-298.0H72.0C86.0 -298.0 95.0 -293.0 98.0 -282.0C70.0 -255.0 27.0 -221.0 27.0 -221.0ZM11.0 202.0 -25.0 158.0H-133.0V128.0H54.0C67.0 128.0 76.0 133.0 79.0 144.0C53.0 170.0 11.0 202.0 11.0 202.0ZM-512.0 -294.0 -478.0 -353.0C-470.0 -350.0 -463.0 -342.0 -461.0 -330.0C-389.0 -294.0 -333.0 -263.0 -295.0 -243.0L-300.0 -228.0C-386.0 -257.0 -474.0 -284.0 -512.0 -294.0ZM-276.0 -42.0H-471.0L-462.0 -72.0H-276.0ZM-282.0 158.0H-482.0L-473.0 128.0H-282.0ZM-78.0 314.0 -158.0 324.0V-571.0H-149.0C-132.0 -571.0 -114.0 -560.0 -114.0 -551.0V287.0C-89.0 291.0 -81.0 300.0 -78.0 314.0ZM-230.0 315.0 -309.0 324.0V-115.0C-309.0 -311.0 -355.0 -457.0 -518.0 -562.0L-504.0 -576.0C-316.0 -470.0 -266.0 -314.0 -265.0 -115.0V288.0C-240.0 291.0 -232.0 301.0 -230.0 315.0Z"/></g>
<g fill="black" opacity=".8" transform="translate(1300 200) scale(0.1 -0.1)"><path d="M0.0 0.0 -36.0 -44.0H-135.0V-74.0H41.0C55.0 -74.0 64.0 -70.0 67.0 -58.0C41.0 -32.0 0.0 0.0 0.0 0.0ZM27.0 -218.0 -13.0 -266.0H-131.0V-296.0H71.0C85.0 -296.0 94.0 -291.0 98.0 -280.0C69.0 -253.0 27.0 -218.0 27.0 -218.0ZM13.0 200.0 -24.0 155.0H-133.0V125.0H55.0C69.0 125.0 78.0 129.0 81.0 141.0C55.0 167.0 13.0 200.0 13.0 200.0ZM-504.0 -287.0 -471.0 -348.0C-464.0 -344.0 -457.0 -336.0 -454.0 -324.0C-388.0 -290.0 -336.0 -258.0 -300.0 -239.0L-306.0 -223.0C-386.0 -252.0 -468.0 -277.0 -504.0 -287.0ZM-284.0 -43.0H-472.0L-463.0 -74.0H-284.0ZM-291.0 154.0H-481.0L-472.0 124.0H-291.0ZM-78.0 315.0 -160.0 325.0V-576.0H-151.0C-134.0 -576.0 -115.0 -564.0 -115.0 -555.0V287.0C-89.0 292.0 -81.0 301.0 -78.0 315.0ZM-235.0 315.0 -316.0 325.0V-119.0C-316.0 -313.0 -357.0 -459.0 -504.0 -566.0L-489.0 -581.0C-317.0 -471.0 -273.0 -316.0 -272.0 -118.0V287.0C-247.0 291.0 -238.0 301.0 -235.0 315.0Z"/></g>
<g fill="red" transform="translate(1400 200) scale(0.1 -0.1)"><path d="M0.0 0.0 -51.0 -76.0H-86.0V-104.0H64.0C78.0 -104.0 88.0 -99.0 90.0 -88.0C58.0 -53.0 0.0 0.0 0.0 0.0ZM11.0 -214.0 -46.0 -300.0H-81.0V-328.0H86.0C100.0 -328.0 110.0 -323.0 113.0 -312.0C76.0 -273.0 11.0 -214.0 11.0 -214.0ZM6.0 194.0 -47.0 115.0H-86.0V87.0H73.0C87.0 87.0 97.0 92.0 100.0 103.0C66.0 139.0 6.0 194.0 6.0 194.0ZM-505.0 -253.0 -437.0 -392.0C-426.0 -389.0 -415.0 -381.0 -410.0 -367.0C-354.0 -310.0 -315.0 -267.0 -292.0 -238.0L-294.0 -229.0C-378.0 -240.0 -466.0 -250.0 -505.0 -253.0ZM-303.0 -70.0H-463.0L-454.0 -98.0H-303.0ZM-298.0 115.0H-472.0L-463.0 87.0H-298.0ZM-19.0 292.0 -179.0 308.0V-632.0H-155.0C-109.0 -632.0 -56.0 -602.0 -56.0 -589.0V264.0C-28.0 267.0 -21.0 278.0 -19.0 292.0ZM-197.0 304.0 -358.0 319.0V-208.0C-358.0 -393.0 -398.0 -517.0 -511.0 -622.0L-503.0 -631.0C-306.0 -546.0 -235.0 -411.0 -233.0 -207.0V275.0C-207.0 279.0 -199.0 290.0 -197.0 304.0Z"/></g>
<g fill="black" opacity=".8" transform="translate(1400 200) scale(0.1 -0.1)"><path d="M0.0 0.0 -52.0 -76.0H-90.0V-104.0H65.0C79.0 -104.0 89.0 -99.0 91.0 -88.0C59.0 -53.0 0.0 0.0 0.0 0.0ZM13.0 -214.0 -45.0 -300.0H-87.0V-329.0H91.0C106.0 -329.0 115.0 -324.0 118.0 -312.0C81.0 -273.0 13.0 -214.0 13.0 -214.0ZM6.0 200.0 -49.0 120.0H-90.0V91.0H75.0C88.0 91.0 99.0 96.0 102.0 107.0C66.0 145.0 6.0 200.0 6.0 200.0ZM-499.0 -255.0 -437.0 -393.0C-425.0 -391.0 -414.0 -382.0 -408.0 -368.0C-355.0 -310.0 -316.0 -267.0 -294.0 -239.0L-296.0 -229.0C-376.0 -241.0 -461.0 -251.0 -499.0 -255.0ZM-307.0 -75.0H-464.0L-455.0 -103.0H-307.0ZM-300.0 119.0H-476.0L-467.0 90.0H-300.0ZM-21.0 296.0 -182.0 312.0V-626.0H-159.0C-111.0 -626.0 -58.0 -594.0 -58.0 -582.0V268.0C-31.0 271.0 -24.0 282.0 -21.0 296.0ZM-198.0 301.0 -359.0 315.0V-223.0C-359.0 -403.0 -397.0 -518.0 -500.0 -619.0L-490.0 -629.0C-306.0 -546.0 -236.0 -421.0 -236.0 -223.0V270.0C-208.0 275.0 -201.0 286.0 -198.0 301.0Z"/></g>
<g fill="red" transform="translate(1500 200) scale(0.1 -0.1)"><path d="M0.0 0.0 -34.0 -42.0H-133.0V-72.0H40.0C53.0 -72.0 62.0 -67.0 65.0 -56.0C40.0 -31.0 0.0 0.0 0.0 0.0ZM21.0 -218.0 -17.0 -265.0H-139.0V-295.0H66.0C80.0 -295.0 89.0 -290.0 92.0 -279.0C64.0 -252.0 21.0 -218.0 21.0 -218.0ZM10.0 198.0 -27.0 154.0H-139.0V124.0H52.0C66.0 124.0 75.0 129.0 78.0 140.0C51.0 166.0 10.0 198.0 10.0 198.0ZM-498.0 -277.0 -464.0 -336.0C-456.0 -333.0 -449.0 -325.0 -447.0 -313.0C-381.0 -279.0 -330.0 -248.0 -295.0 -229.0L-300.0 -214.0C-380.0 -242.0 -462.0 -267.0 -498.0 -277.0ZM-286.0 -41.0H-472.0L-463.0 -71.0H-286.0ZM-301.0 155.0H-482.0L-473.0 125.0H-301.0ZM-86.0 310.0 -166.0 320.0V-580.0H-157.0C-140.0 -580.0 -122.0 -568.0 -122.0 -559.0V283.0C-97.0 287.0 -89.0 296.0 -86.0 310.0ZM-239.0 308.0 -318.0 317.0V-122.0C-318.0 -315.0 -356.0 -460.0 -497.0 -569.0L-483.0 -583.0C-318.0 -472.0 -275.0 -316.0 -274.0 -122.0V281.0C-249.0 284.0 -241.0 294.0 -239.0 308.0Z"/></g>
<g fill="black" opacity=".8" transform="translate(1500 200) scale(0.1 -0.1)"><path d="M0.0 0.0 -34.0 -42.0H-134.0V-72.0H39.0C53.0 -72.0 62.0 -67.0 65.0 -56.0C40.0 -30.0 0.0 0.0 0.0 0.0ZM26.0 -216.0 -13.0 -263.0H-135.0V-293.0H70.0C83.0 -293.0 92.0 -288.0 96.0 -276.0C67.0 -249.0 26.0 -216.0 26.0 -216.0ZM8.0 199.0 -28.0 155.0H-137.0V125.0H50.0C64.0 125.0 73.0 130.0 76.0 141.0C50.0 167.0 8.0 199.0 8.0 199.0ZM-501.0 -281.0 -466.0 -339.0C-458.0 -335.0 -451.0 -328.0 -449.0 -315.0C-382.0 -280.0 -328.0 -248.0 -292.0 -228.0L-298.0 -213.0C-380.0 -243.0 -464.0 -270.0 -501.0 -281.0ZM-286.0 -41.0H-473.0L-464.0 -71.0H-286.0ZM-295.0 155.0H-479.0L-471.0 125.0H-295.0ZM-84.0 311.0 -165.0 320.0V-577.0H-156.0C-138.0 -577.0 -120.0 -564.0 -120.0 -556.0V283.0C-94.0 288.0 -87.0 296.0 -84.0 311.0ZM-235.0 310.0 -315.0 320.0V-125.0C-315.0 -320.0 -358.0 -463.0 -510.0 -568.0L-495.0 -583.0C-318.0 -474.0 -272.0 -322.0 -271.0 -124.0V283.0C-246.0 286.0 -238.0 297.0 -235.0 310.0Z"/></g>
<g fill="red" transform="translate(1600 200) scale(0.1 -0.1)"><path d="M0.0 0.0 -51.0 -76.0H-86.0V-104.0H64.0C78.0 -104.0 88.0 -99.0 90.0 -88.0C58.0 -53.0 0.0 0.0 0.0 0.0ZM16.0 -218.0 -41.0 -304.0H-81.0V-332.0H90.0C104.0 -332.0 115.0 -327.0 117.0 -316.0C81.0 -277.0 16.0 -218.0 16.0 -218.0ZM6.0 194.0 -47.0 115.0H-86.0V87.0H73.0C87.0 87.0 97.0 92.0 100.0 103.0C66.0 139.0 6.0 194.0 6.0 194.0ZM-506.0 -241.0 -451.0 -381.0C-439.0 -379.0 -428.0 -370.0 -423.0 -356.0C-363.0 -300.0 -321.0 -255.0 -296.0 -227.0L-298.0 -217.0C-382.0 -229.0 -469.0 -238.0 -506.0 -241.0ZM-303.0 -80.0H-463.0L-454.0 -108.0H-303.0ZM-298.0 115.0H-472.0L-463.0 87.0H-298.0ZM-16.0 287.0 -176.0 303.0V-619.0H-152.0C-106.0 -619.0 -53.0 -589.0 -53.0 -576.0V259.0C-25.0 263.0 -18.0 273.0 -16.0 287.0ZM-196.0 284.0 -357.0 299.0V-255.0C-357.0 -431.0 -399.0 -532.0 -505.0 -625.0L-497.0 -634.0C-308.0 -558.0 -234.0 -449.0 -232.0 -255.0V255.0C-206.0 259.0 -198.0 270.0 -196.0 284.0Z"/></g>
<g fill="black" opacity=".8" transform="translate(1600 200) scale(0.1 -0.1)"><path d="M0.0 0.0 -51.0 -75.0H-82.0V-103.0H63.0C77.0 -103.0 87.0 -98.0 89.0 -88.0C58.0 -53.0 0.0 0.0 0.0 0.0ZM14.0 -217.0 -43.0 -303.0H-77.0V-331.0H89.0C104.0 -331.0 113.0 -326.0 115.0 -315.0C80.0 -276.0 14.0 -217.0 14.0 -217.0ZM8.0 195.0 -45.0 115.0H-82.0V87.0H74.0C87.0 87.0 98.0 92.0 101.0 103.0C67.0 140.0 8.0 195.0 8.0 195.0ZM-503.0 -242.0 -440.0 -382.0C-428.0 -379.0 -417.0 -371.0 -412.0 -356.0C-354.0 -299.0 -312.0 -255.0 -289.0 -227.0L-291.0 -217.0C-375.0 -229.0 -464.0 -238.0 -503.0 -242.0ZM-303.0 -72.0H-469.0L-460.0 -100.0H-303.0ZM-296.0 116.0H-476.0L-467.0 87.0H-296.0ZM-18.0 285.0 -181.0 301.0V-622.0H-157.0C-109.0 -622.0 -55.0 -590.0 -55.0 -578.0V257.0C-27.0 260.0 -21.0 271.0 -18.0 285.0ZM-200.0 288.0 -362.0 302.0V-239.0C-362.0 -419.0 -405.0 -530.0 -522.0 -627.0L-513.0 -638.0C-312.0 -558.0 -238.0 -438.0 -237.0 -239.0V257.0C-210.0 262.0 -202.0 273.0 -200.0 288.0Z"/></g>
<g fill="red" transform="translate(100 300) scale(0.1 -0.1)"><path d="M0.0 0.0 -36.0 -45.0H-131.0V-75.0H43.0C56.0 -75.0 66.0 -70.0 68.0 -59.0C41.0 -33.0 0.0 0.0 0.0 0.0ZM18.0 -219.0 -19.0 -264.0H-131.0V-294.0H61.0C75.0 -294.0 84.0 -289.0 87.0 -278.0C60.0 -252.0 18.0 -219.0 18.0 -219.0ZM9.0 209.0 -28.0 164.0H-131.0V134.0H52.0C66.0 134.0 75.0 139.0 78.0 150.0C51.0 176.0 9.0 209.0 9.0 209.0ZM-504.0 -269.0 -474.0 -331.0C-465.0 -328.0 -458.0 -321.0 -455.0 -309.0C-394.0 -281.0 -346.0 -256.0 -315.0 -240.0L-319.0 -225.0C-393.0 -244.0 -470.0 -262.0 -504.0 -269.0ZM-303.0 -45.0H-479.0L-470.0 -75.0H-303.0ZM-302.0 165.0H-492.0L-483.0 135.0H-302.0ZM-82.0 338.0 -162.0 348.0V-547.0H-153.0C-136.0 -547.0 -118.0 -536.0 -118.0 -527.0V311.0C-93.0 315.0 -85.0 324.0 -82.0 338.0ZM-242.0 340.0 -321.0 349.0V-93.0C-321.0 -284.0 -360.0 -426.0 -500.0 -533.0L-486.0 -547.0C-321.0 -438.0 -278.0 -285.0 -277.0 -93.0V313.0C-252.0 316.0 -244.0 326.0 -242.0 340.0Z"/></g>
<g fill="black" opacity=".8" transform="translate(100 300) scale(0.1 -0.1)"><path d="M0.0 0.0 -35.0 -43.0H-132.0V-71.0H40.0C54.0 -71.0 63.0 -68.0 65.0 -56.0C39.0 -30.0 0.0 0.0 0.0 0.0ZM18.0 -220.0 -19.0 -266.0H-134.0V-294.0H60.0C73.0 -294.0 81.0 -290.0 85.0 -279.0C58.0 -253.0 18.0 -220.0 18.0 -220.0ZM12.0 207.0 -25.0 163.0H-135.0V134.0H52.0C65.0 134.0 75.0 138.0 78.0 149.0C52.0 175.0 12.0 207.0 12.0 207.0ZM-507.0 -270.0 -475.0 -329.0C-467.0 -326.0 -460.0 -319.0 -457.0 -307.0C-395.0 -280.0 -347.0 -255.0 -314.0 -240.0L-320.0 -225.0C-395.0 -245.0 -471.0 -263.0 -507.0 -270.0ZM-300.0 -43.0H-481.0L-473.0 -72.0H-300.0ZM-301.0 163.0H-492.0L-484.0 134.0H-301.0ZM-84.0 337.0 -162.0 346.0V-555.0H-154.0C-136.0 -555.0 -119.0 -544.0 -119.0 -536.0V310.0C-94.0 315.0 -88.0 323.0 -84.0 337.0ZM-243.0 338.0 -320.0 347.0V-84.0C-320.0 -278.0 -357.0 -427.0 -495.0 -537.0L-481.0 -552.0C-319.0 -438.0 -279.0 -280.0 -278.0 -84.0V311.0C-254.0 315.0 -245.0 325.0 -243.0 338.0Z"/></g>
<g fill="red" transform="translate(200 300) scale(0.1 -0.1)"><path d="M0.0 0.0 -50.0 -75.0H-113.0V-103.0H62.0C75.0 -103.0 85.0 -98.0 88.0 -87.0C56.0 -52.0 0.0 0.0 0.0 0.0ZM3.0 -214.0 -52.0 -297.0H-124.0V-325.0H75.0C88.0 -325.0 99.0 -320.0 101.0 -309.0C66.0 -271.0 3.0 -214.0 3.0 -214.0ZM6.0 218.0 -46.0 140.0H-118.0V112.0H72.0C85.0 112.0 95.0 117.0 98.0 128.0C65.0 164.0 6.0 218.0 6.0 218.0ZM-511.0 -276.0 -449.0 -402.0C-438.0 -399.0 -428.0 -389.0 -424.0 -376.0C-388.0 -321.0 -361.0 -278.0 -347.0 -251.0L-349.0 -242.0C-413.0 -257.0 -481.0 -271.0 -511.0 -276.0ZM-322.0 -75.0H-487.0L-478.0 -103.0H-322.0ZM-328.0 140.0H-498.0L-489.0 112.0H-328.0ZM-34.0 321.0 -194.0 337.0V-599.0H-170.0C-124.0 -599.0 -71.0 -568.0 -71.0 -555.0V293.0C-43.0 296.0 -36.0 307.0 -34.0 321.0ZM-209.0 324.0 -369.0 339.0V-163.0C-369.0 -347.0 -404.0 -479.0 -512.0 -590.0L-504.0 -598.0C-312.0 -508.0 -247.0 -364.0 -246.0 -163.0V295.0C-219.0 299.0 -212.0 310.0 -209.0 324.0Z"/></g>
<g fill="black" opacity=".8" transform="translate(200 300) scale(0.1 -0.1)"><path d="M0.0 0.0 -50.0 -75.0H-105.0V-101.0H63.0C75.0 -101.0 85.0 -96.0 88.0 -86.0C56.0 -52.0 0.0 0.0 0.0 0.0ZM4.0 -210.0 -49.0 -292.0H-112.0V-319.0H76.0C89.0 -319.0 98.0 -314.0 100.0 -303.0C67.0 -267.0 4.0 -210.0 4.0 -210.0ZM6.0 212.0 -46.0 133.0H-110.0V107.0H70.0C83.0 107.0 93.0 111.0 96.0 121.0C63.0 158.0 6.0 212.0 6.0 212.0ZM-520.0 -274.0 -458.0 -398.0C-446.0 -395.0 -436.0 -386.0 -432.0 -373.0C-392.0 -320.0 -361.0 -279.0 -346.0 -253.0L-348.0 -243.0C-414.0 -257.0 -487.0 -268.0 -520.0 -274.0ZM-327.0 -76.0H-485.0L-476.0 -103.0H-327.0ZM-331.0 135.0H-495.0L-487.0 107.0H-331.0ZM-32.0 324.0 -190.0 339.0V-601.0H-167.0C-120.0 -601.0 -68.0 -570.0 -68.0 -557.0V296.0C-40.0 299.0 -35.0 310.0 -32.0 324.0ZM-207.0 326.0 -366.0 340.0V-160.0C-366.0 -344.0 -399.0 -479.0 -501.0 -592.0L-493.0 -600.0C-308.0 -509.0 -244.0 -363.0 -243.0 -160.0V297.0C-216.0 301.0 -210.0 312.0 -207.0 326.0Z"/></g>
</svg>
