<?xml version="1.0" encoding="UTF-8"?>
<svg width="1700" height="400" xmlns="http://www.w3.org/2000/svg">
<rect width="100%" height="100%" fill="white"/>
<g fill="green" transform="translate(100 100) scale(0.1 -0.1)"><path d="M0.0 -0.0 -18.0 -11.0C44.0 -144.0 167.0 -268.0 295.0 -337.0C300.0 -320.0 317.0 -313.0 336.0 -313.0L338.0 -303.0C209.0 -244.0 57.0 -123.0 0.0 0.0ZM-0.0 -14.0C23.0 -13.0 33.0 -8.0 36.0 2.0L-43.0 23.0C-98.0 -109.0 -212.0 -266.0 -358.0 -357.0L-347.0 -368.0C-185.0 -286.0 -72.0 -139.0 -0.0 -14.0ZM-52.0 -662.0 -62.0 -677.0C40.0 -748.0 145.0 -834.0 193.0 -897.0C245.0 -941.0 309.0 -842.0 -52.0 -662.0ZM115.0 -120.0 83.0 -159.0 -89.0 -164.0 -87.0 -190.0 153.0 -185.0C163.0 -185.0 173.0 -180.0 174.0 -170.0C151.0 -147.0 115.0 -120.0 115.0 -120.0ZM50.0 -571.0H-396.0L-404.0 -598.0H50.0ZM-189.0 -409.0V-341.0H-178.0L-238.0 -313.0L-232.0 -307.0V-409.0ZM-240.0 -867.0 -233.0 -913.0C-143.0 -868.0 -52.0 -819.0 0.0 -793.0L-5.0 -779.0C-104.0 -818.0 -201.0 -855.0 -240.0 -867.0ZM-199.0 -357.0H-232.0V-835.0C-232.0 -850.0 -238.0 -856.0 -273.0 -880.0L-234.0 -926.0C-225.0 -919.0 -210.0 -893.0 -231.0 -865.0L-240.0 -887.0L-189.0 -863.0V-363.0ZM257.0 -709.0 191.0 -668.0C169.0 -695.0 127.0 -740.0 96.0 -766.0L106.0 -777.0C146.0 -759.0 198.0 -734.0 226.0 -715.0C245.0 -720.0 251.0 -718.0 257.0 -709.0ZM127.0 -342.0H139.0V-662.0H145.0C159.0 -662.0 181.0 -650.0 182.0 -646.0V-382.0C204.0 -378.0 223.0 -371.0 232.0 -362.0L158.0 -306.0ZM160.0 -666.0H-202.0V-696.0H160.0ZM161.0 -530.0H-203.0V-560.0H161.0Z"/></g>
<g fill="green" transform="translate(200 100) scale(0.1 -0.1)"><path d="M0.0 0.0 -12.0 -10.0C45.0 -135.0 142.0 -242.0 261.0 -295.0C266.0 -241.0 296.0 -196.0 350.0 -160.0L352.0 -147.0C227.0 -136.0 70.0 -95.0 0.0 0.0ZM27.0 -20.0C56.0 -20.0 67.0 -11.0 71.0 2.0L-106.0 74.0C-132.0 -41.0 -216.0 -215.0 -334.0 -317.0L-328.0 -321.0C-166.0 -259.0 -44.0 -137.0 27.0 -20.0ZM-43.0 -606.0 -50.0 -615.0C46.0 -701.0 120.0 -806.0 152.0 -877.0C253.0 -981.0 455.0 -744.0 -43.0 -606.0ZM83.0 -58.0 30.0 -135.0 -65.0 -138.0 -63.0 -163.0 158.0 -158.0C170.0 -158.0 180.0 -153.0 183.0 -143.0C147.0 -110.0 83.0 -58.0 83.0 -58.0ZM10.0 -574.0H-412.0L-419.0 -600.0H10.0ZM-119.0 -418.0V-307.0H-106.0L-244.0 -257.0H-242.0V-418.0ZM-262.0 -799.0 -213.0 -908.0C-114.0 -841.0 -32.0 -774.0 8.0 -739.0L6.0 -730.0C-104.0 -761.0 -216.0 -789.0 -262.0 -799.0ZM-150.0 -334.0H-242.0V-755.0C-242.0 -777.0 -249.0 -787.0 -292.0 -814.0L-217.0 -917.0C-195.0 -903.0 -170.0 -864.0 -186.0 -799.0L-232.0 -840.0L-119.0 -795.0V-352.0ZM277.0 -670.0 163.0 -572.0C143.0 -607.0 102.0 -667.0 69.0 -703.0L77.0 -712.0C131.0 -703.0 201.0 -690.0 245.0 -675.0C264.0 -680.0 272.0 -677.0 277.0 -670.0ZM78.0 -307.0H85.0V-604.0H107.0C152.0 -604.0 209.0 -571.0 210.0 -561.0V-343.0C220.0 -341.0 228.0 -336.0 232.0 -331.0L129.0 -255.0ZM126.0 -604.0H-179.0V-630.0H126.0ZM124.0 -481.0H-179.0V-507.0H124.0Z"/></g>
<g fill="green" transform="translate(300 100) scale(0.1 -0.1)"><path d="M0.0 -0.0 -8.0 -3.0C9.0 -82.0 52.0 -163.0 103.0 -212.0C105.0 -205.0 113.0 -203.0 121.0 -203.0V-199.0C67.0 -155.0 17.0 -75.0 0.0 0.0ZM-5.0 -8.0C4.0 -6.0 8.0 -3.0 9.0 1.0L-33.0 5.0C-48.0 -73.0 -80.0 -165.0 -137.0 -221.0L-131.0 -223.0C-63.0 -171.0 -28.0 -81.0 -5.0 -8.0ZM-11.0 -406.0 -17.0 -411.0C-2.0 -454.0 26.0 -502.0 34.0 -532.0C52.0 -557.0 92.0 -522.0 -11.0 -406.0ZM41.0 -111.0 26.0 -129.0 -37.0 -133.0 -39.0 -143.0 58.0 -139.0C61.0 -139.0 66.0 -137.0 66.0 -133.0C56.0 -122.0 41.0 -111.0 41.0 -111.0ZM16.0 -508.0H-246.0L-253.0 -518.0H16.0ZM-78.0 -243.0V-216.0H-73.0L-104.0 -201.0L-97.0 -194.0V-243.0ZM-101.0 -528.0 -99.0 -547.0C-64.0 -523.0 -29.0 -499.0 -8.0 -485.0L-11.0 -479.0C-49.0 -501.0 -87.0 -521.0 -101.0 -528.0ZM-83.0 -222.0H-97.0V-510.0C-97.0 -517.0 -101.0 -520.0 -120.0 -534.0L-100.0 -554.0C-96.0 -551.0 -90.0 -537.0 -103.0 -524.0L-106.0 -536.0L-78.0 -522.0V-225.0ZM82.0 -449.0 48.0 -431.0C45.0 -441.0 36.0 -458.0 29.0 -469.0L33.0 -474.0C47.0 -467.0 62.0 -460.0 69.0 -453.0C78.0 -455.0 79.0 -454.0 82.0 -449.0ZM38.0 -217.0H45.0V-403.0H48.0C54.0 -403.0 64.0 -397.0 65.0 -397.0V-237.0C77.0 -235.0 87.0 -231.0 92.0 -226.0L54.0 -198.0ZM54.0 -448.0H-81.0V-462.0H54.0ZM56.0 -365.0H-82.0V-379.0H56.0Z"/></g>
<g fill="green" transform="translate(400 100) scale(0.1 -0.1)"><path d="M0.0 0.0 -4.0 -3.0C10.0 -72.0 38.0 -132.0 83.0 -165.0C85.0 -138.0 101.0 -114.0 130.0 -95.0L131.0 -90.0C79.0 -79.0 25.0 -55.0 0.0 0.0ZM7.0 -7.0C18.0 -7.0 22.0 -1.0 22.0 5.0L-67.0 39.0C-60.0 -22.0 -66.0 -123.0 -98.0 -184.0L-96.0 -182.0C-39.0 -144.0 -8.0 -74.0 7.0 -7.0ZM-1.0 -363.0 -6.0 -365.0C13.0 -419.0 31.0 -479.0 35.0 -517.0C71.0 -574.0 180.0 -473.0 -1.0 -363.0ZM26.0 -63.0 -4.0 -108.0 -15.0 -111.0 -17.0 -121.0 71.0 -116.0C76.0 -116.0 81.0 -114.0 83.0 -110.0C62.0 -93.0 26.0 -63.0 26.0 -63.0ZM-10.0 -517.0H-275.0L-281.0 -528.0H-10.0ZM-36.0 -233.0V-188.0H-31.0L-103.0 -162.0L-87.0 -151.0V-233.0ZM-96.0 -495.0 -73.0 -539.0C-42.0 -502.0 -17.0 -466.0 -6.0 -447.0L-7.0 -445.0C-43.0 -467.0 -81.0 -487.0 -96.0 -495.0ZM-49.0 -192.0H-87.0V-478.0C-87.0 -488.0 -90.0 -493.0 -109.0 -506.0L-75.0 -541.0C-67.0 -535.0 -59.0 -519.0 -66.0 -495.0L-83.0 -512.0L-36.0 -492.0V-199.0ZM79.0 -420.0 32.0 -376.0C25.0 -389.0 11.0 -411.0 -3.0 -424.0L1.0 -428.0C24.0 -427.0 47.0 -427.0 67.0 -422.0C74.0 -424.0 77.0 -423.0 79.0 -420.0ZM29.0 -188.0H32.0V-361.0H41.0C60.0 -361.0 84.0 -346.0 85.0 -342.0V-204.0C89.0 -203.0 94.0 -201.0 96.0 -198.0L51.0 -165.0ZM36.0 -400.0H-74.0V-411.0H36.0ZM35.0 -325.0H-73.0V-336.0H35.0Z"/></g>
<g fill="green" transform="translate(500 100) scale(0.1 -0.1)"><path d="M0.0 0.0 -24.0 -22.0C117.0 -158.0 367.0 -251.0 598.0 -286.0C606.0 -259.0 628.0 -248.0 659.0 -246.0L662.0 -230.0C440.0 -207.0 125.0 -119.0 0.0 0.0ZM20.0 -20.0C56.0 -23.0 73.0 -17.0 80.0 -3.0L-18.0 49.0C-134.0 -89.0 -359.0 -227.0 -632.0 -295.0L-621.0 -318.0C-336.0 -269.0 -123.0 -148.0 20.0 -20.0ZM-34.0 -578.0 -42.0 -607.0C180.0 -664.0 345.0 -729.0 448.0 -799.0C531.0 -852.0 622.0 -693.0 -34.0 -578.0ZM445.0 312.0 406.0 264.0 46.0 253.0 50.0 212.0 492.0 224.0C509.0 225.0 522.0 233.0 524.0 248.0C494.0 278.0 445.0 312.0 445.0 312.0ZM97.0 -269.0H-465.0L-477.0 -312.0H97.0ZM-302.0 -389.0V-283.0H-284.0L-367.0 -244.0L-364.0 -242.0V-389.0ZM-366.0 -723.0 -352.0 -790.0C-204.0 -757.0 -52.0 -714.0 35.0 -692.0L32.0 -668.0C-135.0 -692.0 -296.0 -716.0 -366.0 -723.0ZM-315.0 -308.0H-364.0V-686.0C-364.0 -707.0 -369.0 -714.0 -402.0 -733.0L-355.0 -812.0C-339.0 -803.0 -314.0 -770.0 -331.0 -727.0L-352.0 -754.0L-302.0 -733.0V-317.0ZM507.0 -602.0 420.0 -542.0C379.0 -579.0 305.0 -639.0 255.0 -671.0L270.0 -686.0C330.0 -666.0 413.0 -633.0 461.0 -610.0C489.0 -617.0 499.0 -614.0 507.0 -602.0ZM274.0 -283.0H289.0V-593.0H298.0C319.0 -593.0 350.0 -576.0 351.0 -570.0V-340.0C381.0 -334.0 408.0 -324.0 418.0 -312.0L317.0 -235.0ZM316.0 -509.0H-322.0V-553.0H316.0ZM316.0 -391.0H-326.0V-435.0H316.0Z"/></g>
<g fill="green" transform="translate(600 100) scale(0.1 -0.1)"><path d="M0.0 0.0 -18.0 -21.0C123.0 -153.0 346.0 -246.0 573.0 -275.0C578.0 -207.0 614.0 -149.0 681.0 -109.0L684.0 -90.0C466.0 -108.0 144.0 -87.0 0.0 0.0ZM79.0 -31.0C127.0 -36.0 149.0 -25.0 159.0 -7.0L-49.0 114.0C-146.0 -18.0 -370.0 -177.0 -638.0 -259.0L-631.0 -274.0C-331.0 -247.0 -84.0 -149.0 79.0 -31.0ZM-17.0 -521.0 -22.0 -539.0C184.0 -606.0 310.0 -702.0 377.0 -770.0C532.0 -905.0 845.0 -571.0 -17.0 -521.0ZM454.0 382.0 397.0 308.0 102.0 299.0 106.0 261.0 531.0 272.0C548.0 272.0 563.0 281.0 565.0 296.0C524.0 331.0 454.0 382.0 454.0 382.0ZM57.0 -240.0H-422.0L-431.0 -280.0H57.0ZM-201.0 -418.0V-245.0H-181.0L-375.0 -175.0L-394.0 -191.0V-418.0ZM-419.0 -631.0 -359.0 -790.0C-173.0 -723.0 -14.0 -653.0 68.0 -615.0L67.0 -597.0C-134.0 -614.0 -334.0 -628.0 -419.0 -631.0ZM-249.0 -295.0H-394.0V-563.0C-394.0 -593.0 -402.0 -608.0 -460.0 -641.0L-370.0 -811.0C-332.0 -793.0 -288.0 -740.0 -301.0 -637.0L-373.0 -694.0L-201.0 -632.0V-323.0ZM555.0 -544.0 392.0 -418.0C364.0 -463.0 310.0 -542.0 269.0 -588.0L282.0 -602.0C348.0 -588.0 450.0 -569.0 505.0 -552.0C535.0 -559.0 548.0 -555.0 555.0 -544.0ZM195.0 -245.0H205.0V-523.0H237.0C302.0 -523.0 386.0 -475.0 388.0 -460.0V-296.0C401.0 -293.0 412.0 -287.0 417.0 -280.0L268.0 -173.0ZM272.0 -452.0H-259.0V-492.0H272.0ZM273.0 -345.0H-258.0V-386.0H273.0Z"/></g>
<g fill="green" transform="translate(700 100) scale(0.1 -0.1)"><path d="M0.0 -0.0 -18.0 -14.0C76.0 -151.0 250.0 -271.0 424.0 -332.0C430.0 -311.0 450.0 -302.0 473.0 -300.0L476.0 -288.0C307.0 -239.0 85.0 -125.0 0.0 0.0ZM3.0 -11.0C31.0 -12.0 43.0 -7.0 46.0 4.0L-40.0 33.0C-128.0 -107.0 -311.0 -268.0 -521.0 -360.0L-510.0 -374.0C-285.0 -295.0 -108.0 -145.0 3.0 -11.0ZM-91.0 -633.0 -98.0 -651.0C68.0 -715.0 219.0 -802.0 287.0 -867.0C353.0 -903.0 396.0 -774.0 -91.0 -633.0ZM-29.0 -307.0 -61.0 -347.0 -230.0 -348.0 -226.0 -378.0 9.0 -377.0C20.0 -377.0 30.0 -372.0 33.0 -361.0C8.0 -336.0 -29.0 -307.0 -29.0 -307.0ZM382.0 -578.0H-192.0L-194.0 -608.0H382.0ZM-265.0 -399.0V-323.0H-252.0L-311.0 -297.0L-312.0 -299.0V-399.0ZM-327.0 -816.0 -320.0 -866.0C-211.0 -823.0 -101.0 -774.0 -37.0 -747.0L-41.0 -731.0C-162.0 -769.0 -279.0 -805.0 -327.0 -816.0ZM-276.0 -341.0H-312.0V-781.0C-312.0 -797.0 -319.0 -804.0 -358.0 -831.0L-316.0 -878.0C-306.0 -871.0 -289.0 -843.0 -313.0 -813.0L-322.0 -837.0L-265.0 -810.0V-348.0ZM354.0 -666.0 286.0 -620.0C252.0 -650.0 187.0 -698.0 139.0 -725.0L150.0 -739.0C207.0 -720.0 279.0 -693.0 319.0 -671.0C340.0 -677.0 347.0 -675.0 354.0 -666.0ZM169.0 -324.0H183.0V-647.0H190.0C205.0 -647.0 228.0 -633.0 230.0 -629.0V-371.0C256.0 -366.0 279.0 -358.0 289.0 -347.0L204.0 -283.0ZM205.0 -631.0H-284.0V-665.0H205.0ZM212.0 -502.0H-282.0V-536.0H212.0Z"/></g>
<g fill="green" transform="translate(800 100) scale(0.1 -0.1)"><path d="M0.0 0.0 -12.0 -12.0C75.0 -147.0 217.0 -254.0 380.0 -300.0C384.0 -238.0 417.0 -186.0 480.0 -147.0L482.0 -132.0C318.0 -133.0 100.0 -99.0 0.0 0.0ZM34.0 -5.0C69.0 -7.0 84.0 2.0 89.0 16.0L-102.0 92.0C-170.0 -29.0 -339.0 -199.0 -527.0 -299.0L-521.0 -307.0C-286.0 -250.0 -89.0 -125.0 34.0 -5.0ZM-72.0 -569.0 -77.0 -579.0C67.0 -662.0 190.0 -770.0 242.0 -835.0C371.0 -919.0 531.0 -646.0 -72.0 -569.0ZM-93.0 -260.0 -150.0 -334.0H-224.0L-220.0 -362.0L-15.0 -361.0C-1.0 -361.0 10.0 -356.0 13.0 -344.0C-27.0 -310.0 -93.0 -260.0 -93.0 -260.0ZM325.0 -558.0H-207.0L-209.0 -586.0H325.0ZM-202.0 -415.0V-287.0H-188.0L-360.0 -225.0L-347.0 -216.0V-415.0ZM-371.0 -712.0 -316.0 -842.0C-176.0 -775.0 -63.0 -706.0 -4.0 -669.0L-6.0 -658.0C-157.0 -683.0 -308.0 -705.0 -371.0 -712.0ZM-239.0 -313.0H-347.0V-660.0C-347.0 -684.0 -355.0 -696.0 -408.0 -728.0L-317.0 -854.0C-290.0 -837.0 -260.0 -789.0 -281.0 -710.0L-338.0 -760.0L-202.0 -706.0V-334.0ZM361.0 -612.0 222.0 -506.0C197.0 -544.0 147.0 -609.0 106.0 -647.0L115.0 -658.0C183.0 -650.0 270.0 -637.0 323.0 -619.0C347.0 -625.0 356.0 -620.0 361.0 -612.0ZM116.0 -287.0H125.0V-568.0H151.0C203.0 -568.0 270.0 -531.0 271.0 -519.0V-329.0C283.0 -326.0 292.0 -321.0 297.0 -315.0L176.0 -227.0ZM176.0 -561.0H-252.0V-590.0H176.0ZM170.0 -447.0H-255.0V-476.0H170.0Z"/></g>
<g fill="green" transform="translate(900 100) scale(0.1 -0.1)"><path d="M0.0 -0.0 -21.0 -13.0C41.0 -149.0 164.0 -279.0 290.0 -351.0C297.0 -335.0 313.0 -327.0 332.0 -328.0L335.0 -317.0C206.0 -255.0 56.0 -127.0 0.0 0.0ZM1.0 -12.0C27.0 -11.0 38.0 -6.0 41.0 5.0L-40.0 30.0C-97.0 -103.0 -221.0 -271.0 -365.0 -366.0L-353.0 -378.0C-192.0 -293.0 -72.0 -139.0 1.0 -12.0ZM-120.0 -683.0 -130.0 -702.0C16.0 -781.0 135.0 -859.0 207.0 -928.0C265.0 -985.0 369.0 -881.0 -120.0 -683.0ZM7.0 -164.0 -25.0 -205.0 -123.0 -215.0 -114.0 -243.0 43.0 -233.0C55.0 -232.0 66.0 -226.0 67.0 -215.0C43.0 -192.0 7.0 -164.0 7.0 -164.0ZM-342.0 -189.0H-511.0L-527.0 -219.0H-342.0ZM-196.0 -415.0V-339.0H-183.0L-239.0 -313.0L-241.0 -316.0V-415.0ZM-253.0 -901.0 -241.0 -952.0C-158.0 -902.0 -72.0 -848.0 -29.0 -820.0L-35.0 -806.0C-125.0 -847.0 -216.0 -887.0 -253.0 -901.0ZM-206.0 -357.0H-241.0V-870.0C-241.0 -886.0 -247.0 -892.0 -281.0 -915.0L-244.0 -959.0C-235.0 -953.0 -218.0 -929.0 -238.0 -901.0L-247.0 -922.0L-196.0 -899.0V-363.0ZM266.0 -720.0 197.0 -673.0C170.0 -705.0 118.0 -758.0 82.0 -788.0L94.0 -799.0C138.0 -778.0 200.0 -747.0 233.0 -726.0C253.0 -731.0 262.0 -729.0 266.0 -720.0ZM119.0 -339.0H132.0V-677.0H138.0C153.0 -677.0 176.0 -664.0 177.0 -659.0V-383.0C202.0 -378.0 222.0 -371.0 231.0 -361.0L152.0 -300.0ZM152.0 -599.0H-219.0V-631.0H152.0ZM161.0 -461.0H-215.0V-494.0H161.0Z"/></g>
<g fill="green" transform="translate(1000 100) scale(0.1 -0.1)"><path d="M0.0 0.0 -14.0 -12.0C43.0 -122.0 136.0 -226.0 247.0 -280.0C253.0 -224.0 283.0 -180.0 335.0 -143.0L337.0 -129.0C223.0 -118.0 66.0 -81.0 0.0 0.0ZM19.0 -17.0C50.0 -16.0 63.0 -7.0 68.0 7.0L-126.0 77.0C-151.0 -27.0 -227.0 -193.0 -322.0 -290.0L-315.0 -295.0C-170.0 -235.0 -48.0 -121.0 19.0 -17.0ZM-69.0 -612.0 -76.0 -624.0C47.0 -712.0 119.0 -814.0 154.0 -880.0C251.0 -1009.0 535.0 -769.0 -69.0 -612.0ZM-20.0 -103.0 -63.0 -169.0 -81.0 -176.0 -72.0 -203.0 39.0 -193.0C52.0 -193.0 62.0 -187.0 65.0 -176.0C35.0 -147.0 -20.0 -103.0 -20.0 -103.0ZM-341.0 -166.0H-539.0L-553.0 -195.0H-341.0ZM-127.0 -407.0V-286.0H-112.0L-237.0 -240.0L-258.0 -258.0V-407.0ZM-277.0 -803.0 -230.0 -923.0C-111.0 -858.0 -11.0 -791.0 40.0 -756.0L38.0 -745.0C-92.0 -771.0 -223.0 -796.0 -277.0 -803.0ZM-160.0 -348.0H-258.0V-752.0C-258.0 -775.0 -265.0 -786.0 -308.0 -813.0L-230.0 -934.0C-204.0 -919.0 -175.0 -875.0 -192.0 -801.0L-244.0 -846.0L-127.0 -799.0V-368.0ZM312.0 -658.0 195.0 -543.0C169.0 -586.0 116.0 -660.0 76.0 -705.0L85.0 -715.0C144.0 -700.0 229.0 -680.0 277.0 -661.0C297.0 -668.0 307.0 -666.0 312.0 -658.0ZM68.0 -286.0H76.0V-601.0H99.0C148.0 -601.0 209.0 -565.0 210.0 -553.0V-323.0C221.0 -321.0 228.0 -316.0 232.0 -311.0L123.0 -231.0ZM133.0 -538.0H-192.0V-567.0H133.0ZM128.0 -404.0H-196.0V-433.0H128.0Z"/></g>
<g fill="green" transform="translate(1100 100) scale(0.1 -0.1)"><path d="M0.0 0.0 -20.0 -11.0C40.0 -146.0 161.0 -268.0 286.0 -335.0C291.0 -317.0 306.0 -310.0 325.0 -311.0L328.0 -300.0C200.0 -244.0 55.0 -125.0 0.0 0.0ZM-1.0 -19.0C22.0 -18.0 32.0 -13.0 36.0 -2.0L-43.0 21.0C-88.0 -113.0 -174.0 -263.0 -309.0 -349.0L-298.0 -361.0C-146.0 -284.0 -60.0 -145.0 -1.0 -19.0ZM-36.0 -655.0 -48.0 -669.0C39.0 -740.0 161.0 -839.0 213.0 -914.0C274.0 -960.0 323.0 -843.0 -36.0 -655.0ZM137.0 -125.0 103.0 -164.0 -69.0 -163.0V-190.0L176.0 -193.0C188.0 -193.0 198.0 -188.0 199.0 -178.0C174.0 -153.0 137.0 -125.0 137.0 -125.0ZM157.0 -479.0H-247.0L-248.0 -507.0H157.0ZM-158.0 -407.0V-336.0H-146.0L-204.0 -309.0H-202.0V-407.0ZM-207.0 -886.0 -197.0 -934.0C-99.0 -885.0 -1.0 -832.0 55.0 -804.0L49.0 -790.0C-58.0 -832.0 -164.0 -873.0 -207.0 -886.0ZM-168.0 -353.0H-202.0V-851.0C-202.0 -868.0 -207.0 -873.0 -238.0 -893.0L-200.0 -944.0C-190.0 -938.0 -174.0 -912.0 -191.0 -883.0L-203.0 -904.0L-158.0 -883.0V-359.0ZM256.0 -701.0 187.0 -657.0C166.0 -685.0 128.0 -731.0 101.0 -758.0L111.0 -769.0C147.0 -751.0 196.0 -726.0 224.0 -707.0C243.0 -711.0 250.0 -710.0 256.0 -701.0ZM123.0 -337.0H135.0V-654.0H141.0C155.0 -654.0 178.0 -642.0 179.0 -638.0V-377.0C201.0 -373.0 219.0 -366.0 228.0 -357.0L154.0 -301.0ZM162.0 -643.0H-178.0V-674.0H162.0ZM157.0 -506.0H-177.0V-537.0H157.0Z"/></g>
<g fill="green" transform="translate(1200 100) scale(0.1 -0.1)"><path d="M0.0 0.0 -13.0 -10.0C46.0 -141.0 147.0 -257.0 269.0 -315.0C274.0 -257.0 305.0 -208.0 361.0 -169.0L363.0 -154.0C235.0 -141.0 73.0 -98.0 0.0 0.0ZM44.0 -36.0C72.0 -37.0 84.0 -28.0 88.0 -14.0L-80.0 68.0C-99.0 -45.0 -177.0 -230.0 -275.0 -335.0L-268.0 -340.0C-127.0 -272.0 -16.0 -148.0 44.0 -36.0ZM-19.0 -620.0 -27.0 -628.0C47.0 -703.0 106.0 -809.0 136.0 -900.0C260.0 -1018.0 459.0 -742.0 -19.0 -620.0ZM119.0 -85.0 66.0 -160.0 -59.0 -159.0 -58.0 -185.0 189.0 -187.0C201.0 -187.0 211.0 -182.0 215.0 -171.0C180.0 -137.0 119.0 -85.0 119.0 -85.0ZM123.0 -487.0H-239.0L-241.0 -515.0H123.0ZM-84.0 -438.0V-322.0H-71.0L-201.0 -275.0L-213.0 -285.0V-438.0ZM-236.0 -824.0 -187.0 -936.0C-72.0 -865.0 23.0 -793.0 71.0 -756.0L68.0 -746.0C-57.0 -781.0 -184.0 -813.0 -236.0 -824.0ZM-117.0 -347.0H-213.0V-780.0C-213.0 -803.0 -220.0 -814.0 -260.0 -838.0L-192.0 -944.0C-168.0 -931.0 -142.0 -895.0 -153.0 -828.0L-199.0 -868.0L-84.0 -824.0V-366.0ZM314.0 -680.0 198.0 -580.0C179.0 -614.0 140.0 -677.0 110.0 -713.0L118.0 -723.0C167.0 -712.0 241.0 -698.0 281.0 -684.0C301.0 -690.0 309.0 -686.0 314.0 -680.0ZM83.0 -322.0H90.0V-624.0H112.0C158.0 -624.0 216.0 -590.0 217.0 -579.0V-357.0C226.0 -355.0 233.0 -351.0 237.0 -346.0L134.0 -270.0ZM133.0 -598.0H-144.0V-625.0H133.0ZM132.0 -478.0H-144.0V-505.0H132.0Z"/></g>
<g fill="green" transform="translate(1300 100) scale(0.1 -0.1)"><path d="M0.0 0.0 -16.0 -9.0C37.0 -149.0 150.0 -277.0 273.0 -348.0C278.0 -332.0 297.0 -327.0 315.0 -329.0L317.0 -321.0C189.0 -259.0 51.0 -133.0 0.0 0.0ZM-3.0 -11.0C18.0 -9.0 27.0 -5.0 28.0 3.0L-49.0 15.0C-104.0 -113.0 -214.0 -259.0 -358.0 -350.0L-349.0 -360.0C-189.0 -278.0 -75.0 -133.0 -3.0 -11.0ZM-100.0 -670.0 -108.0 -684.0C9.0 -754.0 120.0 -833.0 179.0 -898.0C232.0 -943.0 298.0 -843.0 -100.0 -670.0ZM121.0 -92.0 89.0 -133.0 -104.0 -138.0 -100.0 -160.0 163.0 -155.0C172.0 -155.0 181.0 -151.0 182.0 -142.0C160.0 -120.0 121.0 -92.0 121.0 -92.0ZM132.0 -540.0H-327.0L-332.0 -563.0H132.0ZM-197.0 -403.0V-344.0H-187.0L-241.0 -319.0L-233.0 -311.0V-403.0ZM-241.0 -883.0 -235.0 -924.0C-156.0 -874.0 -75.0 -822.0 -30.0 -794.0L-36.0 -783.0C-122.0 -827.0 -208.0 -869.0 -241.0 -883.0ZM-205.0 -357.0H-233.0V-857.0C-233.0 -870.0 -239.0 -875.0 -271.0 -898.0L-237.0 -936.0C-230.0 -930.0 -218.0 -907.0 -237.0 -883.0L-243.0 -903.0L-197.0 -880.0V-361.0ZM247.0 -695.0 185.0 -661.0C161.0 -693.0 108.0 -744.0 63.0 -775.0L74.0 -786.0C127.0 -762.0 186.0 -728.0 217.0 -700.0C235.0 -706.0 239.0 -704.0 247.0 -695.0ZM128.0 -345.0H136.0V-667.0H141.0C153.0 -667.0 172.0 -657.0 172.0 -653.0V-373.0C186.0 -371.0 198.0 -366.0 204.0 -360.0L151.0 -319.0ZM148.0 -652.0H-203.0V-677.0H148.0ZM146.0 -514.0H-205.0V-539.0H146.0Z"/></g>
<g fill="green" transform="translate(1400 100) scale(0.1 -0.1)"><path d="M0.0 0.0 -11.0 -8.0C32.0 -133.0 106.0 -233.0 210.0 -284.0C214.0 -235.0 246.0 -195.0 300.0 -164.0L302.0 -152.0C188.0 -140.0 58.0 -99.0 0.0 0.0ZM6.0 -9.0C33.0 -8.0 42.0 0.0 44.0 12.0L-133.0 59.0C-165.0 -64.0 -255.0 -231.0 -396.0 -338.0L-392.0 -341.0C-204.0 -275.0 -74.0 -141.0 6.0 -9.0ZM-126.0 -610.0 -131.0 -618.0C-16.0 -700.0 60.0 -803.0 98.0 -871.0C205.0 -982.0 437.0 -738.0 -126.0 -610.0ZM84.0 -27.0 34.0 -105.0 -94.0 -108.0 -89.0 -129.0 153.0 -124.0C163.0 -124.0 172.0 -120.0 174.0 -111.0C143.0 -79.0 84.0 -27.0 84.0 -27.0ZM87.0 -523.0H-370.0L-374.0 -546.0H87.0ZM-163.0 -407.0V-310.0H-152.0L-276.0 -265.0L-272.0 -263.0V-407.0ZM-296.0 -816.0 -236.0 -915.0C-150.0 -847.0 -85.0 -783.0 -53.0 -748.0L-55.0 -741.0C-154.0 -775.0 -253.0 -805.0 -296.0 -816.0ZM-190.0 -345.0H-272.0V-772.0C-272.0 -793.0 -278.0 -802.0 -313.0 -825.0L-242.0 -919.0C-222.0 -906.0 -200.0 -869.0 -216.0 -811.0L-258.0 -848.0L-163.0 -808.0V-361.0ZM227.0 -676.0 100.0 -587.0C82.0 -622.0 42.0 -675.0 4.0 -710.0L11.0 -718.0C79.0 -714.0 143.0 -703.0 196.0 -686.0C215.0 -687.0 222.0 -684.0 227.0 -676.0ZM56.0 -310.0H64.0V-614.0H85.0C128.0 -614.0 184.0 -584.0 186.0 -576.0V-348.0C198.0 -345.0 207.0 -339.0 212.0 -333.0L108.0 -255.0ZM119.0 -590.0H-234.0V-613.0H119.0ZM115.0 -466.0H-233.0V-489.0H115.0Z"/></g>
<g fill="green" transform="translate(1500 100) scale(0.1 -0.1)"><path d="M0.0 0.0 -20.0 -13.0C42.0 -129.0 158.0 -241.0 275.0 -307.0C282.0 -288.0 299.0 -279.0 321.0 -279.0L322.0 -268.0C205.0 -214.0 56.0 -105.0 0.0 0.0ZM6.0 -13.0C32.0 -13.0 43.0 -7.0 47.0 3.0L-30.0 28.0C-89.0 -88.0 -219.0 -249.0 -350.0 -340.0L-337.0 -353.0C-193.0 -269.0 -68.0 -125.0 6.0 -13.0ZM-25.0 -628.0 -36.0 -646.0C84.0 -725.0 184.0 -810.0 228.0 -872.0C274.0 -914.0 342.0 -824.0 -25.0 -628.0ZM155.0 -133.0 113.0 -180.0 -115.0 -175.0 -113.0 -205.0 204.0 -212.0C216.0 -213.0 226.0 -208.0 228.0 -197.0C199.0 -166.0 155.0 -133.0 155.0 -133.0ZM39.0 -527.0H-496.0V-557.0H39.0ZM-187.0 -397.0V-322.0H-175.0L-241.0 -291.0L-233.0 -282.0V-397.0ZM-239.0 -828.0 -235.0 -880.0C-130.0 -833.0 -25.0 -780.0 39.0 -753.0L33.0 -736.0C-83.0 -778.0 -194.0 -816.0 -239.0 -828.0ZM-197.0 -341.0H-233.0V-797.0C-233.0 -812.0 -240.0 -818.0 -280.0 -847.0L-236.0 -898.0C-225.0 -890.0 -210.0 -860.0 -234.0 -830.0L-243.0 -853.0L-187.0 -828.0V-347.0ZM268.0 -656.0 203.0 -615.0C174.0 -648.0 123.0 -702.0 86.0 -732.0L96.0 -745.0C140.0 -720.0 200.0 -686.0 233.0 -663.0C254.0 -668.0 261.0 -666.0 268.0 -656.0ZM138.0 -323.0H149.0V-627.0H155.0C170.0 -627.0 193.0 -615.0 194.0 -609.0V-361.0C213.0 -358.0 230.0 -351.0 238.0 -342.0L168.0 -289.0ZM179.0 -648.0H-195.0V-678.0H179.0ZM173.0 -519.0H-204.0V-550.0H173.0Z"/></g>
<g fill="green" transform="translate(1600 100) scale(0.1 -0.1)"><path d="M0.0 0.0 -15.0 -11.0C41.0 -145.0 140.0 -264.0 261.0 -323.0C267.0 -273.0 296.0 -231.0 345.0 -199.0L347.0 -185.0C220.0 -165.0 66.0 -107.0 0.0 0.0ZM23.0 -31.0C53.0 -31.0 65.0 -22.0 68.0 -8.0L-111.0 56.0C-145.0 -69.0 -244.0 -255.0 -372.0 -366.0L-365.0 -372.0C-191.0 -297.0 -55.0 -159.0 23.0 -31.0ZM-77.0 -627.0 -85.0 -639.0C32.0 -736.0 127.0 -843.0 165.0 -904.0C250.0 -994.0 436.0 -783.0 -77.0 -627.0ZM97.0 -87.0 30.0 -179.0 -133.0 -174.0 -131.0 -203.0 188.0 -209.0C203.0 -209.0 214.0 -204.0 218.0 -193.0C173.0 -150.0 97.0 -87.0 97.0 -87.0ZM6.0 -578.0H-475.0L-476.0 -607.0H6.0ZM-122.0 -445.0V-325.0H-108.0L-244.0 -275.0L-251.0 -283.0V-445.0ZM-271.0 -819.0 -219.0 -935.0C-134.0 -871.0 -59.0 -805.0 -25.0 -772.0L-28.0 -761.0C-126.0 -787.0 -229.0 -810.0 -271.0 -819.0ZM-154.0 -353.0H-251.0V-773.0C-251.0 -796.0 -259.0 -806.0 -309.0 -837.0L-224.0 -948.0C-202.0 -933.0 -175.0 -889.0 -195.0 -819.0L-244.0 -864.0L-122.0 -815.0V-372.0ZM268.0 -689.0 154.0 -584.0C130.0 -628.0 83.0 -705.0 45.0 -751.0L54.0 -760.0C110.0 -742.0 189.0 -715.0 234.0 -693.0C254.0 -699.0 263.0 -697.0 268.0 -689.0ZM54.0 -325.0H61.0V-620.0H85.0C132.0 -620.0 193.0 -585.0 193.0 -574.0V-363.0C203.0 -361.0 211.0 -356.0 215.0 -351.0L108.0 -271.0ZM136.0 -627.0H-163.0V-656.0H136.0ZM141.0 -508.0H-158.0V-537.0H141.0Z"/></g>
<g fill="green" transform="translate(100 200) scale(0.1 -0.1)"><path d="M0.0 -0.0 -18.0 -11.0C44.0 -131.0 161.0 -247.0 283.0 -311.0C288.0 -292.0 304.0 -283.0 323.0 -282.0L325.0 -271.0C206.0 -217.0 57.0 -107.0 0.0 0.0ZM-4.0 -13.0C21.0 -12.0 30.0 -7.0 34.0 3.0L-43.0 28.0C-96.0 -98.0 -220.0 -264.0 -353.0 -359.0L-340.0 -370.0C-192.0 -283.0 -74.0 -133.0 -4.0 -13.0ZM-58.0 -658.0 -69.0 -670.0C14.0 -735.0 153.0 -848.0 193.0 -914.0C250.0 -942.0 251.0 -828.0 -58.0 -658.0ZM118.0 -101.0 86.0 -142.0 -103.0 -150.0 -97.0 -177.0 154.0 -168.0C165.0 -168.0 175.0 -162.0 176.0 -152.0C154.0 -129.0 118.0 -101.0 118.0 -101.0ZM60.0 -577.0H-401.0L-410.0 -605.0H60.0ZM-194.0 -412.0V-342.0H-182.0L-246.0 -312.0L-237.0 -303.0V-412.0ZM-250.0 -881.0 -244.0 -930.0C-150.0 -876.0 -54.0 -820.0 1.0 -790.0L-6.0 -776.0C-110.0 -822.0 -211.0 -867.0 -250.0 -881.0ZM-203.0 -359.0H-237.0V-847.0C-237.0 -862.0 -244.0 -868.0 -283.0 -897.0L-243.0 -939.0C-234.0 -932.0 -219.0 -905.0 -244.0 -878.0L-250.0 -901.0L-194.0 -873.0V-365.0ZM250.0 -711.0 189.0 -669.0C162.0 -695.0 119.0 -740.0 89.0 -765.0L98.0 -775.0C136.0 -758.0 189.0 -733.0 220.0 -716.0C238.0 -721.0 245.0 -719.0 250.0 -711.0ZM129.0 -342.0H141.0V-657.0H147.0C162.0 -657.0 184.0 -645.0 185.0 -640.0V-384.0C208.0 -379.0 227.0 -372.0 236.0 -363.0L161.0 -306.0ZM161.0 -659.0H-205.0V-689.0H161.0ZM159.0 -521.0H-201.0V-552.0H159.0Z"/></g>
<g fill="green" transform="translate(200 200) scale(0.1 -0.1)"><path d="M0.0 0.0 -13.0 -11.0C40.0 -137.0 134.0 -253.0 247.0 -313.0C253.0 -258.0 280.0 -211.0 333.0 -174.0L335.0 -160.0C217.0 -143.0 65.0 -96.0 0.0 0.0ZM29.0 -30.0C60.0 -29.0 71.0 -20.0 75.0 -7.0L-112.0 71.0C-137.0 -44.0 -219.0 -225.0 -329.0 -328.0L-323.0 -332.0C-164.0 -268.0 -42.0 -144.0 29.0 -30.0ZM-48.0 -605.0 -56.0 -612.0C26.0 -697.0 130.0 -818.0 171.0 -911.0C301.0 -981.0 361.0 -707.0 -48.0 -605.0ZM67.0 -57.0 17.0 -133.0 -85.0 -139.0 -79.0 -165.0 138.0 -156.0C150.0 -156.0 160.0 -150.0 163.0 -140.0C129.0 -108.0 67.0 -57.0 67.0 -57.0ZM-7.0 -582.0H-403.0L-411.0 -609.0H-7.0ZM-117.0 -433.0V-317.0H-104.0L-232.0 -270.0L-246.0 -283.0V-433.0ZM-264.0 -795.0 -215.0 -919.0C-118.0 -846.0 -39.0 -771.0 -2.0 -733.0L-4.0 -725.0C-111.0 -756.0 -220.0 -785.0 -264.0 -795.0ZM-150.0 -336.0H-246.0V-751.0C-246.0 -773.0 -254.0 -784.0 -306.0 -814.0L-218.0 -928.0C-194.0 -911.0 -168.0 -867.0 -190.0 -796.0L-242.0 -842.0L-117.0 -792.0V-354.0ZM316.0 -652.0 193.0 -544.0C170.0 -583.0 123.0 -655.0 91.0 -696.0L98.0 -705.0C152.0 -691.0 240.0 -672.0 282.0 -655.0C302.0 -661.0 311.0 -659.0 316.0 -652.0ZM62.0 -317.0H69.0V-609.0H92.0C140.0 -609.0 200.0 -574.0 200.0 -563.0V-352.0C208.0 -350.0 214.0 -346.0 218.0 -342.0L114.0 -265.0ZM103.0 -595.0H-179.0V-622.0H103.0ZM101.0 -476.0H-180.0V-503.0H101.0Z"/></g>
<g fill="red" transform="translate(100 300) scale(0.1 -0.1)"><path d="M0.0 0.0 -20.0 -14.0C62.0 -152.0 217.0 -270.0 376.0 -331.0C382.0 -312.0 403.0 -304.0 426.0 -305.0L429.0 -294.0C270.0 -243.0 75.0 -129.0 0.0 0.0ZM4.0 -11.0C31.0 -11.0 43.0 -6.0 46.0 4.0L-38.0 28.0C-119.0 -101.0 -285.0 -250.0 -474.0 -338.0L-464.0 -354.0C-261.0 -276.0 -97.0 -134.0 4.0 -11.0ZM-131.0 -636.0 -138.0 -656.0C51.0 -725.0 204.0 -803.0 290.0 -875.0C358.0 -921.0 428.0 -794.0 -131.0 -636.0ZM64.0 -161.0 27.0 -208.0H-183.0L-175.0 -238.0H111.0C124.0 -238.0 133.0 -233.0 136.0 -222.0C109.0 -195.0 64.0 -161.0 64.0 -161.0ZM200.0 -317.0H-263.0V-347.0H200.0ZM-248.0 -392.0V-317.0H-236.0L-292.0 -291.0V-292.0V-392.0ZM-303.0 -838.0 -295.0 -889.0C-192.0 -838.0 -87.0 -782.0 -28.0 -753.0L-34.0 -738.0C-147.0 -783.0 -258.0 -825.0 -303.0 -838.0ZM-258.0 -334.0H-292.0V-810.0C-292.0 -825.0 -298.0 -831.0 -333.0 -855.0L-295.0 -901.0C-286.0 -894.0 -270.0 -869.0 -290.0 -840.0L-298.0 -862.0L-248.0 -839.0V-340.0ZM343.0 -639.0 276.0 -597.0C238.0 -636.0 162.0 -697.0 101.0 -733.0L113.0 -747.0C181.0 -719.0 262.0 -676.0 306.0 -644.0C327.0 -651.0 335.0 -648.0 343.0 -639.0ZM171.0 -317.0H180.0V-640.0H186.0C201.0 -640.0 223.0 -628.0 224.0 -622.0V-352.0C241.0 -350.0 256.0 -343.0 262.0 -336.0L199.0 -287.0ZM199.0 -573.0H-264.0V-603.0H199.0ZM199.0 -443.0H-264.0V-473.0H199.0Z"/></g>
<g fill="black" opacity=".8" transform="translate(100 300) scale(0.1 -0.1)"><path d="M0.0 0.0 -19.0 -14.0C62.0 -152.0 218.0 -271.0 375.0 -332.0C382.0 -312.0 403.0 -304.0 426.0 -305.0L429.0 -294.0C270.0 -244.0 75.0 -129.0 0.0 0.0ZM4.0 -10.0C32.0 -10.0 43.0 -6.0 46.0 4.0L-38.0 28.0C-119.0 -100.0 -286.0 -250.0 -474.0 -338.0L-464.0 -353.0C-261.0 -277.0 -98.0 -134.0 4.0 -10.0ZM-131.0 -636.0 -138.0 -656.0C51.0 -726.0 204.0 -803.0 290.0 -875.0C357.0 -921.0 428.0 -793.0 -131.0 -636.0ZM64.0 -162.0 27.0 -208.0H-182.0L-175.0 -237.0L111.0 -238.0C123.0 -238.0 133.0 -233.0 136.0 -222.0C109.0 -195.0 64.0 -162.0 64.0 -162.0ZM201.0 -318.0H-263.0V-347.0H201.0ZM-249.0 -392.0V-317.0H-235.0L-292.0 -291.0V-292.0V-392.0ZM-303.0 -838.0 -294.0 -889.0C-192.0 -838.0 -87.0 -782.0 -28.0 -753.0L-34.0 -738.0C-147.0 -782.0 -258.0 -825.0 -303.0 -838.0ZM-258.0 -334.0H-292.0V-810.0C-292.0 -825.0 -298.0 -831.0 -333.0 -855.0L-295.0 -900.0C-286.0 -894.0 -270.0 -869.0 -290.0 -841.0L-298.0 -862.0L-249.0 -839.0V-339.0ZM343.0 -639.0 275.0 -596.0C238.0 -636.0 161.0 -697.0 101.0 -733.0L114.0 -747.0C181.0 -718.0 262.0 -676.0 306.0 -644.0C327.0 -650.0 334.0 -649.0 343.0 -639.0ZM172.0 -317.0H181.0V-640.0H187.0C201.0 -640.0 223.0 -628.0 224.0 -622.0V-352.0C241.0 -350.0 256.0 -344.0 262.0 -336.0L199.0 -287.0ZM199.0 -573.0H-263.0V-603.0H199.0ZM199.0 -443.0H-264.0V-474.0H199.0Z"/></g>
<g fill="red" transform="translate(200 300) scale(0.1 -0.1)"><path d="M0.0 0.0 -14.0 -12.0C57.0 -143.0 174.0 -246.0 316.0 -293.0C320.0 -238.0 355.0 -194.0 414.0 -160.0L415.0 -145.0C269.0 -140.0 83.0 -100.0 0.0 0.0ZM16.0 -9.0C50.0 -9.0 64.0 -1.0 69.0 13.0L-125.0 68.0C-192.0 -60.0 -349.0 -228.0 -540.0 -332.0L-534.0 -341.0C-294.0 -277.0 -103.0 -141.0 16.0 -9.0ZM-155.0 -591.0 -160.0 -603.0C10.0 -683.0 123.0 -786.0 180.0 -851.0C309.0 -962.0 557.0 -683.0 -155.0 -591.0ZM11.0 -116.0 -43.0 -192.0H-190.0L-182.0 -220.0H80.0C94.0 -220.0 104.0 -215.0 107.0 -204.0C72.0 -168.0 11.0 -116.0 11.0 -116.0ZM165.0 -293.0H-282.0V-321.0H165.0ZM-216.0 -416.0V-293.0H-202.0L-345.0 -241.0L-354.0 -248.0V-416.0ZM-381.0 -760.0 -316.0 -885.0C-188.0 -817.0 -88.0 -752.0 -36.0 -715.0L-38.0 -704.0C-179.0 -730.0 -320.0 -753.0 -381.0 -760.0ZM-250.0 -343.0H-354.0V-705.0C-354.0 -729.0 -361.0 -740.0 -405.0 -767.0L-320.0 -895.0C-293.0 -878.0 -263.0 -832.0 -282.0 -755.0L-338.0 -801.0L-216.0 -753.0V-364.0ZM332.0 -631.0 182.0 -525.0C158.0 -569.0 104.0 -640.0 57.0 -684.0L65.0 -694.0C144.0 -684.0 232.0 -664.0 293.0 -641.0C316.0 -645.0 326.0 -640.0 332.0 -631.0ZM82.0 -293.0H91.0V-592.0H118.0C170.0 -592.0 238.0 -556.0 239.0 -545.0V-337.0C254.0 -334.0 263.0 -327.0 268.0 -321.0L144.0 -229.0ZM175.0 -528.0H-276.0V-556.0H175.0ZM171.0 -409.0H-276.0V-437.0H171.0Z"/></g>
<g fill="black" opacity=".8" transform="translate(200 300) scale(0.1 -0.1)"><path d="M0.0 0.0 -14.0 -12.0C57.0 -143.0 174.0 -246.0 316.0 -294.0C320.0 -238.0 355.0 -193.0 413.0 -160.0L415.0 -145.0C270.0 -140.0 83.0 -100.0 0.0 0.0ZM17.0 -9.0C51.0 -10.0 65.0 -2.0 68.0 13.0L-126.0 67.0C-192.0 -60.0 -349.0 -227.0 -540.0 -333.0L-535.0 -341.0C-294.0 -277.0 -103.0 -141.0 17.0 -9.0ZM-155.0 -591.0 -159.0 -603.0C10.0 -683.0 124.0 -786.0 180.0 -850.0C309.0 -962.0 557.0 -683.0 -155.0 -591.0ZM11.0 -116.0 -44.0 -193.0 -191.0 -192.0 -182.0 -219.0 80.0 -220.0C93.0 -220.0 104.0 -215.0 107.0 -203.0C72.0 -168.0 11.0 -116.0 11.0 -116.0ZM166.0 -293.0H-282.0L-283.0 -321.0H166.0ZM-216.0 -416.0V-293.0H-202.0L-345.0 -241.0L-353.0 -248.0V-416.0ZM-381.0 -760.0 -316.0 -885.0C-188.0 -818.0 -88.0 -751.0 -35.0 -715.0L-38.0 -704.0C-179.0 -730.0 -320.0 -753.0 -381.0 -760.0ZM-250.0 -344.0H-353.0V-705.0C-353.0 -729.0 -361.0 -740.0 -405.0 -768.0L-320.0 -894.0C-293.0 -878.0 -263.0 -832.0 -282.0 -755.0L-337.0 -802.0L-216.0 -752.0V-364.0ZM332.0 -631.0 182.0 -525.0C157.0 -569.0 104.0 -639.0 56.0 -684.0L65.0 -694.0C144.0 -684.0 232.0 -664.0 293.0 -642.0C317.0 -645.0 326.0 -641.0 332.0 -631.0ZM82.0 -293.0H92.0V-593.0H118.0C170.0 -593.0 238.0 -556.0 240.0 -545.0V-337.0C254.0 -334.0 263.0 -328.0 269.0 -321.0L145.0 -229.0ZM175.0 -527.0H-276.0V-556.0H175.0ZM171.0 -408.0H-276.0V-438.0H171.0Z"/></g>
<g fill="red" transform="translate(300 300) scale(0.1 -0.1)"><path d="M0.0 0.0 -20.0 -13.0C46.0 -128.0 171.0 -233.0 297.0 -289.0C302.0 -270.0 317.0 -260.0 338.0 -260.0L341.0 -248.0C217.0 -202.0 61.0 -103.0 0.0 0.0ZM-2.0 -15.0C24.0 -15.0 34.0 -10.0 38.0 1.0L-37.0 30.0C-91.0 -91.0 -213.0 -242.0 -348.0 -328.0L-336.0 -342.0C-187.0 -263.0 -71.0 -128.0 -2.0 -15.0ZM-83.0 -606.0 -94.0 -619.0C18.0 -681.0 189.0 -797.0 249.0 -875.0C318.0 -904.0 311.0 -767.0 -83.0 -606.0ZM73.0 -156.0 38.0 -198.0H-143.0L-135.0 -228.0H112.0C125.0 -228.0 135.0 -223.0 137.0 -212.0C112.0 -187.0 73.0 -156.0 73.0 -156.0ZM171.0 -307.0H-207.0V-337.0H171.0ZM-185.0 -382.0V-307.0H-173.0L-229.0 -281.0V-282.0V-382.0ZM-242.0 -839.0 -233.0 -891.0C-130.0 -833.0 -26.0 -772.0 33.0 -740.0L26.0 -726.0C-87.0 -776.0 -198.0 -824.0 -242.0 -839.0ZM-195.0 -326.0H-229.0V-806.0C-229.0 -822.0 -235.0 -827.0 -270.0 -852.0L-232.0 -896.0C-223.0 -890.0 -207.0 -865.0 -227.0 -837.0L-235.0 -859.0L-185.0 -835.0V-332.0ZM277.0 -634.0 216.0 -590.0C183.0 -622.0 128.0 -674.0 90.0 -703.0L99.0 -714.0C144.0 -693.0 208.0 -660.0 245.0 -639.0C263.0 -644.0 272.0 -642.0 277.0 -634.0ZM137.0 -307.0H147.0V-606.0H153.0C168.0 -606.0 190.0 -594.0 191.0 -588.0V-346.0C211.0 -342.0 228.0 -335.0 235.0 -327.0L167.0 -274.0ZM172.0 -555.0H-206.0V-585.0H172.0ZM166.0 -427.0H-199.0V-457.0H166.0Z"/></g>
<g fill="black" opacity=".8" transform="translate(300 300) scale(0.1 -0.1)"><path d="M0.0 0.0 -20.0 -12.0C47.0 -128.0 171.0 -234.0 296.0 -290.0C303.0 -269.0 317.0 -260.0 337.0 -260.0L341.0 -248.0C217.0 -204.0 61.0 -104.0 0.0 0.0ZM-3.0 -14.0C24.0 -14.0 34.0 -9.0 38.0 1.0L-37.0 30.0C-92.0 -90.0 -214.0 -242.0 -348.0 -328.0L-336.0 -341.0C-187.0 -264.0 -72.0 -129.0 -3.0 -14.0ZM-83.0 -606.0 -94.0 -619.0C17.0 -682.0 189.0 -797.0 249.0 -874.0C318.0 -904.0 311.0 -767.0 -83.0 -606.0ZM73.0 -156.0 38.0 -199.0H-143.0L-135.0 -227.0L112.0 -229.0C125.0 -229.0 135.0 -223.0 137.0 -213.0C112.0 -186.0 73.0 -156.0 73.0 -156.0ZM172.0 -308.0H-207.0V-337.0H172.0ZM-187.0 -382.0V-307.0H-173.0L-230.0 -281.0L-229.0 -283.0V-382.0ZM-241.0 -840.0 -232.0 -891.0C-130.0 -833.0 -25.0 -773.0 33.0 -740.0L25.0 -726.0C-87.0 -775.0 -198.0 -824.0 -241.0 -840.0ZM-195.0 -326.0H-229.0V-806.0C-229.0 -822.0 -235.0 -827.0 -269.0 -852.0L-233.0 -895.0C-223.0 -890.0 -207.0 -864.0 -227.0 -838.0L-235.0 -859.0L-187.0 -834.0V-331.0ZM277.0 -635.0 216.0 -590.0C183.0 -622.0 128.0 -673.0 90.0 -703.0L100.0 -714.0C145.0 -692.0 207.0 -661.0 245.0 -639.0C263.0 -644.0 271.0 -643.0 277.0 -635.0ZM137.0 -307.0H148.0V-606.0H154.0C168.0 -606.0 190.0 -594.0 191.0 -588.0V-346.0C212.0 -342.0 228.0 -335.0 236.0 -327.0L167.0 -274.0ZM172.0 -555.0H-205.0V-585.0H172.0ZM166.0 -427.0H-199.0V-458.0H166.0Z"/></g>
<g fill="red" transform="translate(400 300) scale(0.1 -0.1)"><path d="M0.0 0.0 -14.0 -12.0C45.0 -138.0 147.0 -255.0 268.0 -315.0C274.0 -258.0 302.0 -211.0 355.0 -173.0L357.0 -157.0C233.0 -142.0 71.0 -95.0 0.0 0.0ZM37.0 -37.0C68.0 -37.0 81.0 -29.0 86.0 -15.0L-94.0 60.0C-131.0 -51.0 -237.0 -230.0 -352.0 -331.0L-345.0 -338.0C-182.0 -270.0 -42.0 -146.0 37.0 -37.0ZM-76.0 -580.0 -84.0 -588.0C12.0 -658.0 119.0 -773.0 168.0 -876.0C323.0 -955.0 394.0 -644.0 -76.0 -580.0ZM23.0 -144.0 -25.0 -213.0H-153.0L-145.0 -241.0H82.0C95.0 -241.0 105.0 -236.0 108.0 -225.0C77.0 -192.0 23.0 -144.0 23.0 -144.0ZM120.0 -306.0H-188.0V-334.0H120.0ZM-125.0 -428.0V-306.0H-111.0L-228.0 -263.0L-261.0 -289.0V-428.0ZM-284.0 -756.0 -231.0 -887.0C-109.0 -813.0 -11.0 -739.0 38.0 -700.0L36.0 -690.0C-96.0 -720.0 -229.0 -747.0 -284.0 -756.0ZM-159.0 -335.0H-261.0V-708.0C-261.0 -731.0 -269.0 -742.0 -318.0 -770.0L-234.0 -896.0C-207.0 -879.0 -178.0 -834.0 -197.0 -758.0L-252.0 -804.0L-125.0 -755.0V-355.0ZM365.0 -606.0 231.0 -495.0C206.0 -537.0 155.0 -617.0 120.0 -662.0L127.0 -671.0C184.0 -654.0 283.0 -630.0 328.0 -610.0C349.0 -617.0 360.0 -613.0 365.0 -606.0ZM63.0 -306.0H70.0V-588.0H95.0C145.0 -588.0 208.0 -552.0 208.0 -540.0V-341.0C218.0 -339.0 223.0 -335.0 226.0 -331.0L118.0 -251.0ZM127.0 -519.0H-181.0V-547.0H127.0ZM125.0 -410.0H-183.0V-438.0H125.0Z"/></g>
<g fill="black" opacity=".8" transform="translate(400 300) scale(0.1 -0.1)"><path d="M0.0 0.0 -14.0 -12.0C45.0 -138.0 148.0 -256.0 268.0 -316.0C273.0 -259.0 301.0 -210.0 355.0 -173.0L357.0 -157.0C234.0 -141.0 70.0 -95.0 0.0 0.0ZM37.0 -38.0C68.0 -38.0 82.0 -29.0 85.0 -16.0L-95.0 60.0C-131.0 -51.0 -238.0 -230.0 -352.0 -331.0L-346.0 -338.0C-182.0 -270.0 -42.0 -145.0 37.0 -38.0ZM-75.0 -580.0 -83.0 -588.0C12.0 -658.0 119.0 -774.0 169.0 -875.0C323.0 -955.0 394.0 -645.0 -75.0 -580.0ZM22.0 -144.0 -26.0 -213.0 -153.0 -214.0 -145.0 -241.0H82.0C95.0 -241.0 105.0 -235.0 108.0 -224.0C77.0 -192.0 22.0 -144.0 22.0 -144.0ZM121.0 -305.0H-187.0L-188.0 -335.0H121.0ZM-124.0 -428.0V-305.0H-112.0L-228.0 -262.0L-261.0 -289.0V-428.0ZM-284.0 -756.0 -231.0 -886.0C-109.0 -814.0 -11.0 -739.0 39.0 -700.0L36.0 -691.0C-96.0 -720.0 -229.0 -747.0 -284.0 -756.0ZM-160.0 -336.0H-261.0V-708.0C-261.0 -731.0 -269.0 -743.0 -318.0 -770.0L-234.0 -895.0C-206.0 -879.0 -178.0 -834.0 -197.0 -758.0L-252.0 -805.0L-124.0 -755.0V-355.0ZM364.0 -607.0 231.0 -495.0C206.0 -537.0 155.0 -617.0 119.0 -661.0L127.0 -672.0C185.0 -654.0 284.0 -630.0 328.0 -610.0C350.0 -617.0 360.0 -614.0 364.0 -607.0ZM63.0 -305.0H71.0V-589.0H95.0C145.0 -589.0 209.0 -552.0 209.0 -540.0V-341.0C217.0 -339.0 222.0 -336.0 227.0 -331.0L118.0 -250.0ZM127.0 -519.0H-181.0V-547.0H127.0ZM125.0 -409.0H-182.0V-438.0H125.0Z"/></g>
<g fill="red" transform="translate(500 300) scale(0.1 -0.1)"><path d="M0.0 0.0 -21.0 -13.0C32.0 -125.0 133.0 -235.0 237.0 -299.0C243.0 -283.0 257.0 -274.0 276.0 -275.0L279.0 -264.0C174.0 -210.0 48.0 -102.0 0.0 0.0ZM4.0 -12.0C29.0 -12.0 39.0 -6.0 43.0 4.0L-29.0 30.0C-77.0 -82.0 -189.0 -239.0 -301.0 -326.0L-288.0 -339.0C-163.0 -257.0 -57.0 -119.0 4.0 -12.0ZM-82.0 -607.0 -93.0 -625.0C38.0 -702.0 150.0 -784.0 209.0 -851.0C261.0 -899.0 342.0 -805.0 -82.0 -607.0ZM41.0 -166.0 5.0 -209.0H-126.0L-118.0 -239.0H82.0C95.0 -239.0 105.0 -234.0 107.0 -223.0C81.0 -197.0 41.0 -166.0 41.0 -166.0ZM-281.0 -150.0H-496.0L-503.0 -180.0H-281.0ZM-163.0 -376.0V-301.0H-151.0L-207.0 -275.0V-276.0V-376.0ZM-217.0 -817.0 -208.0 -869.0C-119.0 -818.0 -29.0 -763.0 20.0 -736.0L14.0 -721.0C-83.0 -764.0 -178.0 -804.0 -217.0 -817.0ZM-173.0 -320.0H-207.0V-788.0C-207.0 -803.0 -213.0 -809.0 -248.0 -833.0L-210.0 -878.0C-201.0 -871.0 -185.0 -847.0 -205.0 -819.0L-213.0 -840.0L-163.0 -818.0V-326.0ZM240.0 -631.0 178.0 -588.0C149.0 -621.0 99.0 -675.0 64.0 -705.0L74.0 -716.0C115.0 -693.0 175.0 -658.0 208.0 -637.0C227.0 -642.0 236.0 -639.0 240.0 -631.0ZM111.0 -301.0H121.0V-600.0H127.0C142.0 -600.0 164.0 -588.0 165.0 -582.0V-340.0C185.0 -336.0 202.0 -329.0 209.0 -321.0L141.0 -268.0ZM149.0 -543.0H-183.0V-573.0H149.0ZM149.0 -420.0H-183.0V-450.0H149.0Z"/></g>
<g fill="black" opacity=".8" transform="translate(500 300) scale(0.1 -0.1)"><path d="M0.0 0.0 -21.0 -13.0C32.0 -125.0 134.0 -235.0 236.0 -300.0C244.0 -283.0 257.0 -274.0 277.0 -275.0L279.0 -264.0C174.0 -211.0 47.0 -103.0 0.0 0.0ZM3.0 -12.0C29.0 -11.0 39.0 -6.0 43.0 4.0L-29.0 30.0C-78.0 -81.0 -190.0 -239.0 -301.0 -326.0L-288.0 -338.0C-163.0 -258.0 -57.0 -119.0 3.0 -12.0ZM-82.0 -607.0 -93.0 -625.0C38.0 -703.0 150.0 -784.0 210.0 -850.0C261.0 -899.0 343.0 -804.0 -82.0 -607.0ZM41.0 -166.0 4.0 -209.0 -125.0 -210.0 -118.0 -238.0 82.0 -240.0C95.0 -239.0 105.0 -234.0 106.0 -223.0C80.0 -196.0 41.0 -166.0 41.0 -166.0ZM-280.0 -151.0H-496.0L-503.0 -180.0H-280.0ZM-164.0 -376.0V-301.0H-151.0L-207.0 -275.0V-276.0V-376.0ZM-217.0 -818.0 -207.0 -869.0C-119.0 -819.0 -29.0 -764.0 20.0 -736.0L13.0 -721.0C-83.0 -764.0 -178.0 -804.0 -217.0 -818.0ZM-173.0 -320.0H-207.0V-788.0C-207.0 -803.0 -213.0 -809.0 -248.0 -833.0L-210.0 -877.0C-200.0 -872.0 -185.0 -846.0 -205.0 -819.0L-214.0 -839.0L-164.0 -818.0V-325.0ZM240.0 -631.0 178.0 -587.0C149.0 -621.0 98.0 -675.0 64.0 -705.0L75.0 -716.0C115.0 -692.0 174.0 -658.0 207.0 -637.0C227.0 -641.0 236.0 -640.0 240.0 -631.0ZM111.0 -301.0H122.0V-600.0H128.0C142.0 -600.0 164.0 -588.0 165.0 -582.0V-340.0C186.0 -336.0 202.0 -330.0 210.0 -320.0L140.0 -267.0ZM149.0 -544.0H-183.0V-573.0H149.0ZM149.0 -420.0H-184.0V-451.0H149.0Z"/></g>
<g fill="red" transform="translate(600 300) scale(0.1 -0.1)"><path d="M0.0 0.0 -15.0 -12.0C33.0 -122.0 117.0 -231.0 217.0 -288.0C223.0 -239.0 249.0 -200.0 294.0 -167.0L296.0 -153.0C192.0 -134.0 56.0 -85.0 0.0 0.0ZM19.0 -30.0C48.0 -29.0 60.0 -21.0 64.0 -7.0L-112.0 55.0C-135.0 -47.0 -206.0 -215.0 -288.0 -312.0L-280.0 -319.0C-151.0 -251.0 -39.0 -132.0 19.0 -30.0ZM-77.0 -588.0 -85.0 -600.0C27.0 -686.0 105.0 -785.0 140.0 -850.0C228.0 -956.0 448.0 -739.0 -77.0 -588.0ZM0.0 -130.0 -50.0 -201.0H-122.0L-114.0 -229.0H64.0C78.0 -229.0 88.0 -224.0 91.0 -213.0C58.0 -179.0 0.0 -130.0 0.0 -130.0ZM-279.0 -169.0H-487.0L-494.0 -197.0H-279.0ZM-101.0 -404.0V-287.0H-87.0L-195.0 -247.0L-226.0 -272.0V-404.0ZM-244.0 -771.0 -199.0 -887.0C-99.0 -826.0 -13.0 -763.0 29.0 -731.0L27.0 -720.0C-84.0 -743.0 -197.0 -764.0 -244.0 -771.0ZM-132.0 -340.0H-226.0V-724.0C-226.0 -746.0 -233.0 -756.0 -278.0 -783.0L-200.0 -900.0C-176.0 -885.0 -148.0 -842.0 -166.0 -771.0L-216.0 -814.0L-101.0 -769.0V-359.0ZM287.0 -628.0 180.0 -517.0C154.0 -562.0 101.0 -644.0 64.0 -692.0L72.0 -701.0C124.0 -681.0 211.0 -651.0 253.0 -629.0C272.0 -637.0 282.0 -635.0 287.0 -628.0ZM41.0 -287.0H48.0V-577.0H71.0C117.0 -577.0 175.0 -543.0 175.0 -531.0V-321.0C185.0 -319.0 191.0 -315.0 194.0 -311.0L93.0 -236.0ZM122.0 -521.0H-148.0V-549.0H122.0ZM122.0 -402.0H-148.0V-430.0H122.0Z"/></g>
<g fill="black" opacity=".8" transform="translate(600 300) scale(0.1 -0.1)"><path d="M0.0 0.0 -15.0 -11.0C33.0 -122.0 117.0 -231.0 216.0 -289.0C223.0 -239.0 249.0 -199.0 294.0 -167.0L296.0 -153.0C193.0 -134.0 55.0 -85.0 0.0 0.0ZM19.0 -30.0C48.0 -30.0 60.0 -21.0 64.0 -7.0L-113.0 55.0C-135.0 -47.0 -207.0 -215.0 -287.0 -313.0L-280.0 -319.0C-151.0 -251.0 -39.0 -132.0 19.0 -30.0ZM-77.0 -588.0 -85.0 -600.0C27.0 -686.0 105.0 -785.0 140.0 -849.0C228.0 -956.0 448.0 -739.0 -77.0 -588.0ZM-1.0 -130.0 -50.0 -201.0H-122.0L-114.0 -229.0H64.0C77.0 -229.0 87.0 -224.0 91.0 -213.0C57.0 -179.0 -1.0 -130.0 -1.0 -130.0ZM-278.0 -168.0H-487.0L-494.0 -198.0H-278.0ZM-101.0 -404.0V-287.0H-87.0L-195.0 -246.0L-226.0 -273.0V-404.0ZM-244.0 -771.0 -199.0 -887.0C-99.0 -827.0 -12.0 -763.0 30.0 -731.0L27.0 -720.0C-83.0 -742.0 -197.0 -764.0 -244.0 -771.0ZM-132.0 -340.0H-226.0V-724.0C-226.0 -746.0 -233.0 -756.0 -278.0 -783.0L-200.0 -899.0C-176.0 -885.0 -148.0 -842.0 -166.0 -770.0L-215.0 -814.0L-101.0 -768.0V-359.0ZM287.0 -628.0 180.0 -517.0C153.0 -562.0 101.0 -644.0 63.0 -692.0L72.0 -701.0C125.0 -680.0 211.0 -652.0 253.0 -630.0C272.0 -637.0 282.0 -636.0 287.0 -628.0ZM41.0 -287.0H48.0V-577.0H71.0C117.0 -577.0 176.0 -543.0 176.0 -531.0V-321.0C185.0 -319.0 191.0 -315.0 194.0 -311.0L93.0 -236.0ZM122.0 -521.0H-148.0V-549.0H122.0ZM123.0 -401.0H-148.0V-430.0H123.0Z"/></g>
<g fill="red" transform="translate(700 300) scale(0.1 -0.1)"><path d="M0.0 0.0 -17.0 -16.0C80.0 -93.0 242.0 -152.0 393.0 -177.0C399.0 -157.0 415.0 -146.0 438.0 -143.0L440.0 -131.0C300.0 -116.0 86.0 -63.0 0.0 0.0ZM12.0 -7.0C39.0 -10.0 51.0 -5.0 56.0 4.0L-9.0 42.0C-99.0 -44.0 -297.0 -161.0 -477.0 -221.0L-467.0 -238.0C-281.0 -187.0 -97.0 -89.0 12.0 -7.0ZM-68.0 -388.0 -73.0 -407.0C105.0 -448.0 258.0 -516.0 324.0 -565.0C382.0 -582.0 390.0 -466.0 -68.0 -388.0ZM83.0 -83.0 52.0 -122.0H-167.0L-159.0 -152.0H119.0C132.0 -152.0 140.0 -147.0 143.0 -136.0C120.0 -112.0 83.0 -83.0 83.0 -83.0ZM213.0 -190.0H-255.0V-220.0H213.0ZM-241.0 -265.0V-190.0H-228.0L-283.0 -165.0V-166.0V-265.0ZM-296.0 -500.0 -291.0 -550.0C-183.0 -515.0 -72.0 -474.0 -7.0 -454.0L-11.0 -437.0C-132.0 -466.0 -248.0 -493.0 -296.0 -500.0ZM-250.0 -209.0H-283.0V-474.0C-283.0 -487.0 -289.0 -493.0 -323.0 -517.0L-286.0 -561.0C-277.0 -554.0 -261.0 -530.0 -281.0 -503.0L-289.0 -523.0L-241.0 -502.0V-215.0ZM350.0 -388.0 299.0 -348.0C258.0 -378.0 188.0 -425.0 139.0 -449.0L148.0 -461.0C201.0 -443.0 275.0 -411.0 318.0 -392.0C336.0 -397.0 345.0 -395.0 350.0 -388.0ZM182.0 -190.0H192.0V-402.0H198.0C213.0 -402.0 233.0 -390.0 234.0 -384.0V-229.0C254.0 -225.0 272.0 -218.0 278.0 -210.0L211.0 -158.0ZM214.0 -348.0H-254.0V-378.0H214.0ZM214.0 -269.0H-254.0V-299.0H214.0Z"/></g>
<g fill="black" opacity=".8" transform="translate(700 300) scale(0.1 -0.1)"><path d="M0.0 0.0 -16.0 -16.0C80.0 -92.0 243.0 -153.0 393.0 -178.0C400.0 -157.0 415.0 -147.0 438.0 -144.0L440.0 -131.0C301.0 -117.0 85.0 -63.0 0.0 0.0ZM11.0 -7.0C40.0 -10.0 51.0 -5.0 56.0 4.0L-10.0 42.0C-99.0 -43.0 -298.0 -161.0 -477.0 -221.0L-467.0 -236.0C-281.0 -188.0 -98.0 -89.0 11.0 -7.0ZM-69.0 -388.0 -73.0 -407.0C105.0 -449.0 258.0 -515.0 324.0 -564.0C382.0 -582.0 390.0 -465.0 -69.0 -388.0ZM84.0 -83.0 52.0 -122.0H-167.0L-158.0 -152.0L119.0 -153.0C131.0 -152.0 139.0 -147.0 143.0 -137.0C120.0 -111.0 84.0 -83.0 84.0 -83.0ZM213.0 -191.0H-255.0V-220.0H213.0ZM-242.0 -264.0V-190.0H-228.0L-283.0 -165.0V-166.0V-264.0ZM-296.0 -500.0 -290.0 -550.0C-183.0 -515.0 -72.0 -476.0 -6.0 -454.0L-11.0 -437.0C-133.0 -465.0 -248.0 -493.0 -296.0 -500.0ZM-250.0 -209.0H-283.0V-474.0C-283.0 -487.0 -290.0 -492.0 -323.0 -517.0L-287.0 -560.0C-276.0 -555.0 -261.0 -529.0 -282.0 -503.0L-289.0 -523.0L-242.0 -501.0V-215.0ZM350.0 -388.0 299.0 -347.0C258.0 -377.0 187.0 -424.0 140.0 -449.0L149.0 -461.0C202.0 -441.0 274.0 -412.0 317.0 -392.0C336.0 -397.0 344.0 -395.0 350.0 -388.0ZM182.0 -190.0H193.0V-401.0H199.0C213.0 -401.0 233.0 -389.0 234.0 -384.0V-229.0C255.0 -225.0 272.0 -218.0 278.0 -209.0L211.0 -158.0ZM214.0 -349.0H-254.0V-378.0H214.0ZM215.0 -269.0H-254.0V-300.0H215.0Z"/></g>
<g fill="red" transform="translate(800 300) scale(0.1 -0.1)"><path d="M0.0 0.0 -14.0 -14.0C75.0 -115.0 220.0 -195.0 370.0 -226.0C374.0 -180.0 397.0 -142.0 441.0 -115.0L443.0 -101.0C299.0 -103.0 91.0 -72.0 0.0 0.0ZM35.0 -16.0C69.0 -18.0 85.0 -11.0 91.0 1.0L-68.0 66.0C-152.0 -30.0 -336.0 -152.0 -529.0 -220.0L-523.0 -231.0C-296.0 -195.0 -94.0 -105.0 35.0 -16.0ZM-87.0 -375.0 -91.0 -388.0C70.0 -447.0 216.0 -530.0 279.0 -578.0C396.0 -616.0 454.0 -385.0 -87.0 -375.0ZM18.0 -69.0 -29.0 -127.0H-181.0L-173.0 -155.0H78.0C92.0 -155.0 102.0 -150.0 104.0 -139.0C71.0 -109.0 18.0 -69.0 18.0 -69.0ZM166.0 -189.0H-218.0V-217.0H166.0ZM-190.0 -311.0V-189.0H-176.0L-308.0 -140.0L-326.0 -155.0V-311.0ZM-343.0 -436.0 -298.0 -564.0C-175.0 -515.0 -72.0 -463.0 -20.0 -435.0L-21.0 -423.0C-154.0 -431.0 -287.0 -436.0 -343.0 -436.0ZM-224.0 -218.0H-326.0V-388.0C-326.0 -408.0 -334.0 -419.0 -388.0 -449.0L-300.0 -580.0C-273.0 -563.0 -242.0 -515.0 -264.0 -436.0L-322.0 -484.0L-190.0 -433.0V-238.0ZM379.0 -372.0 254.0 -273.0C228.0 -314.0 175.0 -389.0 138.0 -432.0L146.0 -441.0C203.0 -424.0 298.0 -397.0 342.0 -376.0C364.0 -383.0 374.0 -379.0 379.0 -372.0ZM94.0 -189.0H101.0V-374.0H126.0C174.0 -374.0 236.0 -340.0 236.0 -328.0V-224.0C246.0 -222.0 252.0 -218.0 255.0 -214.0L148.0 -136.0ZM171.0 -326.0H-213.0V-354.0H171.0ZM171.0 -257.0H-213.0V-285.0H171.0Z"/></g>
<g fill="black" opacity=".8" transform="translate(800 300) scale(0.1 -0.1)"><path d="M0.0 0.0 -13.0 -14.0C75.0 -114.0 220.0 -196.0 370.0 -227.0C374.0 -181.0 396.0 -140.0 441.0 -115.0L443.0 -101.0C299.0 -103.0 90.0 -72.0 0.0 0.0ZM36.0 -16.0C69.0 -19.0 86.0 -12.0 90.0 1.0L-69.0 66.0C-152.0 -30.0 -337.0 -152.0 -529.0 -220.0L-524.0 -231.0C-296.0 -195.0 -95.0 -105.0 36.0 -16.0ZM-87.0 -376.0 -91.0 -387.0C70.0 -446.0 217.0 -531.0 279.0 -578.0C396.0 -616.0 455.0 -385.0 -87.0 -376.0ZM18.0 -70.0 -29.0 -127.0 -182.0 -128.0 -173.0 -155.0H78.0C91.0 -155.0 102.0 -149.0 104.0 -138.0C70.0 -109.0 18.0 -70.0 18.0 -70.0ZM167.0 -189.0H-217.0L-218.0 -217.0H167.0ZM-190.0 -311.0V-188.0H-177.0L-308.0 -139.0L-326.0 -155.0V-311.0ZM-343.0 -436.0 -298.0 -563.0C-175.0 -516.0 -72.0 -463.0 -19.0 -435.0L-21.0 -424.0C-154.0 -430.0 -287.0 -435.0 -343.0 -436.0ZM-224.0 -219.0H-326.0V-388.0C-326.0 -408.0 -333.0 -420.0 -388.0 -449.0L-300.0 -579.0C-273.0 -563.0 -242.0 -515.0 -264.0 -436.0L-321.0 -484.0L-190.0 -433.0V-238.0ZM378.0 -372.0 254.0 -273.0C227.0 -314.0 176.0 -389.0 138.0 -431.0L146.0 -441.0C204.0 -423.0 299.0 -397.0 342.0 -376.0C364.0 -383.0 374.0 -381.0 378.0 -372.0ZM94.0 -188.0H102.0V-375.0H126.0C174.0 -375.0 237.0 -340.0 237.0 -327.0V-224.0C245.0 -222.0 251.0 -219.0 256.0 -214.0L148.0 -136.0ZM171.0 -326.0H-213.0V-355.0H171.0ZM171.0 -255.0H-213.0V-285.0H171.0Z"/></g>
<g fill="red" transform="translate(900 300) scale(0.1 -0.1)"><path d="M0.0 0.0 -17.0 -16.0C86.0 -97.0 265.0 -145.0 427.0 -159.0C432.0 -140.0 446.0 -131.0 468.0 -130.0L470.0 -118.0C317.0 -113.0 91.0 -69.0 0.0 0.0ZM18.0 -16.0C43.0 -19.0 55.0 -15.0 61.0 -5.0L-3.0 35.0C-84.0 -51.0 -238.0 -130.0 -427.0 -165.0L-420.0 -183.0C-225.0 -160.0 -81.0 -94.0 18.0 -16.0ZM13.0 -325.0 8.0 -345.0C160.0 -379.0 275.0 -422.0 344.0 -470.0C402.0 -502.0 453.0 -389.0 13.0 -325.0ZM340.0 218.0 311.0 185.0H37.0V155.0H374.0C387.0 155.0 396.0 160.0 398.0 171.0C375.0 193.0 340.0 218.0 340.0 218.0ZM232.0 -157.0H-212.0V-187.0H232.0ZM-195.0 -232.0V-157.0H-183.0L-239.0 -131.0V-132.0V-232.0ZM-237.0 -407.0 -228.0 -455.0C-115.0 -436.0 0.0 -410.0 68.0 -397.0L66.0 -379.0C-61.0 -392.0 -184.0 -405.0 -237.0 -407.0ZM-205.0 -176.0H-239.0V-382.0C-239.0 -396.0 -242.0 -401.0 -262.0 -411.0L-229.0 -471.0C-217.0 -465.0 -199.0 -442.0 -209.0 -411.0L-226.0 -429.0L-195.0 -417.0V-182.0ZM365.0 -333.0 307.0 -292.0C277.0 -317.0 227.0 -357.0 194.0 -378.0L203.0 -389.0C243.0 -376.0 300.0 -353.0 333.0 -338.0C352.0 -343.0 360.0 -341.0 365.0 -333.0ZM198.0 -157.0H208.0V-340.0H214.0C229.0 -340.0 251.0 -328.0 252.0 -323.0V-196.0C271.0 -192.0 289.0 -185.0 296.0 -177.0L227.0 -125.0ZM233.0 -291.0H-211.0V-321.0H233.0ZM228.0 -224.0H-216.0V-254.0H228.0Z"/></g>
<g fill="black" opacity=".8" transform="translate(900 300) scale(0.1 -0.1)"><path d="M0.0 0.0 -17.0 -16.0C86.0 -97.0 266.0 -146.0 426.0 -160.0C433.0 -140.0 446.0 -132.0 469.0 -130.0L470.0 -118.0C317.0 -113.0 91.0 -69.0 0.0 0.0ZM17.0 -16.0C42.0 -19.0 55.0 -14.0 61.0 -5.0L-4.0 35.0C-85.0 -50.0 -239.0 -130.0 -427.0 -165.0L-420.0 -182.0C-225.0 -160.0 -81.0 -94.0 17.0 -16.0ZM12.0 -325.0 7.0 -345.0C160.0 -380.0 275.0 -421.0 345.0 -469.0C402.0 -502.0 454.0 -388.0 12.0 -325.0ZM341.0 217.0 311.0 185.0H38.0L37.0 156.0L374.0 154.0C387.0 154.0 395.0 160.0 397.0 170.0C375.0 194.0 341.0 217.0 341.0 217.0ZM232.0 -158.0H-212.0V-187.0H232.0ZM-196.0 -231.0V-157.0H-182.0L-239.0 -131.0V-132.0V-231.0ZM-237.0 -408.0 -227.0 -455.0C-115.0 -436.0 -1.0 -411.0 68.0 -397.0L66.0 -379.0C-61.0 -392.0 -183.0 -405.0 -237.0 -408.0ZM-205.0 -175.0H-239.0V-382.0C-239.0 -396.0 -242.0 -400.0 -262.0 -412.0L-230.0 -471.0C-217.0 -466.0 -200.0 -441.0 -210.0 -411.0L-226.0 -429.0L-196.0 -417.0V-182.0ZM365.0 -333.0 306.0 -291.0C277.0 -317.0 227.0 -356.0 194.0 -377.0L203.0 -389.0C243.0 -375.0 299.0 -354.0 333.0 -339.0C352.0 -343.0 359.0 -341.0 365.0 -333.0ZM198.0 -157.0H209.0V-339.0H215.0C229.0 -339.0 250.0 -327.0 252.0 -324.0V-196.0C272.0 -192.0 290.0 -185.0 296.0 -176.0L228.0 -125.0ZM233.0 -291.0H-211.0V-321.0H233.0ZM229.0 -224.0H-216.0V-255.0H229.0Z"/></g>
<g fill="red" transform="translate(1000 300) scale(0.1 -0.1)"><path d="M0.0 0.0 -13.0 -15.0C93.0 -108.0 262.0 -171.0 431.0 -188.0C434.0 -142.0 457.0 -102.0 502.0 -76.0L504.0 -61.0C344.0 -76.0 107.0 -61.0 0.0 0.0ZM68.0 -30.0C101.0 -34.0 117.0 -27.0 124.0 -15.0L-2.0 73.0C-77.0 -15.0 -250.0 -122.0 -443.0 -174.0L-437.0 -186.0C-228.0 -169.0 -49.0 -105.0 68.0 -30.0ZM8.0 -317.0 5.0 -330.0C144.0 -367.0 231.0 -425.0 278.0 -471.0C388.0 -557.0 582.0 -328.0 8.0 -317.0ZM348.0 247.0 304.0 196.0H54.0V168.0H403.0C416.0 168.0 426.0 173.0 428.0 184.0C397.0 211.0 348.0 247.0 348.0 247.0ZM205.0 -156.0H-151.0V-184.0H205.0ZM-125.0 -278.0V-156.0H-111.0L-246.0 -107.0L-261.0 -119.0V-278.0ZM-279.0 -370.0 -240.0 -480.0C-105.0 -437.0 10.0 -392.0 71.0 -367.0L70.0 -354.0C-74.0 -363.0 -218.0 -369.0 -279.0 -370.0ZM-159.0 -181.0H-261.0V-325.0C-261.0 -346.0 -267.0 -356.0 -307.0 -378.0L-249.0 -496.0C-222.0 -484.0 -191.0 -449.0 -198.0 -378.0L-247.0 -416.0L-125.0 -374.0V-201.0ZM403.0 -326.0 294.0 -244.0C276.0 -274.0 241.0 -329.0 216.0 -359.0L225.0 -369.0C265.0 -358.0 334.0 -343.0 368.0 -331.0C389.0 -337.0 398.0 -333.0 403.0 -326.0ZM145.0 -156.0H151.0V-320.0H174.0C218.0 -320.0 275.0 -288.0 276.0 -277.0V-190.0C285.0 -188.0 292.0 -184.0 295.0 -180.0L194.0 -107.0ZM205.0 -275.0H-151.0V-303.0H205.0ZM208.0 -217.0H-148.0V-245.0H208.0Z"/></g>
<g fill="black" opacity=".8" transform="translate(1000 300) scale(0.1 -0.1)"><path d="M0.0 0.0 -12.0 -15.0C93.0 -108.0 262.0 -171.0 431.0 -189.0C433.0 -143.0 457.0 -101.0 502.0 -76.0L505.0 -62.0C344.0 -76.0 107.0 -61.0 0.0 0.0ZM68.0 -30.0C100.0 -36.0 118.0 -27.0 123.0 -15.0L-3.0 72.0C-77.0 -15.0 -250.0 -122.0 -443.0 -174.0L-438.0 -186.0C-228.0 -169.0 -50.0 -106.0 68.0 -30.0ZM9.0 -317.0 5.0 -329.0C143.0 -366.0 231.0 -426.0 279.0 -471.0C388.0 -557.0 582.0 -328.0 9.0 -317.0ZM348.0 247.0 304.0 196.0 54.0 195.0V168.0H403.0C415.0 168.0 426.0 174.0 428.0 185.0C396.0 211.0 348.0 247.0 348.0 247.0ZM206.0 -156.0H-151.0V-185.0H206.0ZM-125.0 -277.0V-156.0H-112.0L-246.0 -107.0L-261.0 -120.0V-277.0ZM-279.0 -370.0 -240.0 -479.0C-106.0 -438.0 11.0 -392.0 72.0 -368.0L70.0 -355.0C-74.0 -363.0 -218.0 -369.0 -279.0 -370.0ZM-159.0 -182.0H-261.0V-325.0C-261.0 -345.0 -267.0 -357.0 -307.0 -378.0L-249.0 -495.0C-222.0 -484.0 -191.0 -449.0 -197.0 -378.0L-246.0 -416.0L-125.0 -374.0V-201.0ZM402.0 -327.0 294.0 -244.0C275.0 -273.0 242.0 -329.0 216.0 -359.0L225.0 -369.0C265.0 -357.0 335.0 -343.0 368.0 -331.0C389.0 -337.0 398.0 -334.0 402.0 -327.0ZM145.0 -156.0H152.0V-321.0H174.0C217.0 -321.0 276.0 -287.0 277.0 -276.0V-190.0C284.0 -187.0 292.0 -185.0 295.0 -179.0L194.0 -108.0ZM204.0 -275.0H-151.0V-303.0H204.0ZM209.0 -216.0H-148.0V-246.0H209.0Z"/></g>
<g fill="red" transform="translate(1100 300) scale(0.1 -0.1)"><path d="M0.0 0.0 -17.0 -16.0C86.0 -100.0 264.0 -152.0 427.0 -167.0C432.0 -149.0 447.0 -140.0 468.0 -139.0L471.0 -127.0C316.0 -120.0 91.0 -72.0 0.0 0.0ZM14.0 -11.0C40.0 -14.0 52.0 -10.0 57.0 0.0L-7.0 40.0C-93.0 -46.0 -267.0 -134.0 -460.0 -175.0L-452.0 -192.0C-253.0 -164.0 -91.0 -90.0 14.0 -11.0ZM-80.0 -352.0 -84.0 -373.0C99.0 -404.0 240.0 -445.0 328.0 -494.0C393.0 -527.0 447.0 -407.0 -80.0 -352.0ZM264.0 268.0 241.0 236.0 23.0 221.0 33.0 192.0 292.0 210.0C304.0 211.0 313.0 217.0 314.0 228.0C296.0 245.0 264.0 268.0 264.0 268.0ZM-134.0 115.0H-339.0L-354.0 85.0H-134.0ZM-223.0 -238.0V-163.0H-210.0L-263.0 -138.0L-265.0 -142.0V-238.0ZM-271.0 -442.0 -258.0 -490.0C-163.0 -465.0 -63.0 -434.0 -10.0 -419.0L-13.0 -403.0C-120.0 -420.0 -225.0 -437.0 -271.0 -442.0ZM-232.0 -181.0H-265.0V-420.0C-265.0 -434.0 -268.0 -439.0 -288.0 -450.0L-260.0 -499.0C-250.0 -493.0 -232.0 -475.0 -242.0 -447.0L-255.0 -464.0L-223.0 -451.0V-187.0ZM365.0 -356.0 309.0 -314.0C275.0 -341.0 214.0 -385.0 174.0 -408.0L184.0 -418.0C230.0 -404.0 296.0 -377.0 334.0 -361.0C352.0 -366.0 361.0 -364.0 365.0 -356.0ZM195.0 -162.0H205.0V-361.0H211.0C225.0 -361.0 246.0 -349.0 247.0 -344.0V-201.0C267.0 -197.0 285.0 -190.0 291.0 -182.0L224.0 -130.0ZM217.0 -233.0H-242.0V-263.0H217.0ZM222.0 -162.0H-237.0V-192.0H222.0Z"/></g>
<g fill="black" opacity=".8" transform="translate(1100 300) scale(0.1 -0.1)"><path d="M0.0 0.0 -17.0 -16.0C86.0 -100.0 265.0 -153.0 426.0 -168.0C434.0 -149.0 447.0 -141.0 468.0 -139.0L471.0 -128.0C316.0 -121.0 91.0 -72.0 0.0 0.0ZM13.0 -11.0C40.0 -13.0 52.0 -9.0 57.0 -0.0L-8.0 40.0C-93.0 -45.0 -268.0 -134.0 -460.0 -175.0L-452.0 -191.0C-253.0 -165.0 -91.0 -90.0 13.0 -11.0ZM-81.0 -352.0 -84.0 -373.0C98.0 -405.0 239.0 -445.0 329.0 -493.0C392.0 -528.0 447.0 -406.0 -81.0 -352.0ZM265.0 268.0 241.0 235.0 23.0 221.0 33.0 193.0 291.0 209.0C304.0 211.0 313.0 217.0 314.0 227.0C296.0 246.0 265.0 268.0 265.0 268.0ZM-134.0 114.0H-339.0L-354.0 85.0H-134.0ZM-225.0 -238.0V-163.0H-210.0L-263.0 -138.0L-264.0 -142.0V-238.0ZM-270.0 -443.0 -258.0 -490.0C-163.0 -465.0 -63.0 -435.0 -10.0 -419.0L-13.0 -403.0C-120.0 -419.0 -225.0 -437.0 -270.0 -443.0ZM-232.0 -181.0H-264.0V-420.0C-264.0 -434.0 -268.0 -438.0 -288.0 -450.0L-261.0 -499.0C-250.0 -495.0 -232.0 -474.0 -243.0 -447.0L-255.0 -464.0L-225.0 -451.0V-186.0ZM364.0 -356.0 309.0 -314.0C275.0 -341.0 214.0 -385.0 174.0 -408.0L185.0 -417.0C231.0 -403.0 295.0 -378.0 334.0 -361.0C353.0 -366.0 361.0 -364.0 364.0 -356.0ZM195.0 -162.0H205.0V-360.0H212.0C226.0 -360.0 246.0 -348.0 247.0 -345.0V-202.0C268.0 -197.0 286.0 -190.0 291.0 -182.0L225.0 -130.0ZM217.0 -233.0H-241.0V-263.0H217.0ZM222.0 -162.0H-238.0V-193.0H222.0Z"/></g>
<g fill="red" transform="translate(1200 300) scale(0.1 -0.1)"><path d="M0.0 0.0 -13.0 -16.0C87.0 -88.0 242.0 -139.0 394.0 -152.0C398.0 -107.0 420.0 -70.0 463.0 -44.0L465.0 -30.0C323.0 -47.0 98.0 -42.0 0.0 0.0ZM50.0 -17.0C85.0 -20.0 102.0 -13.0 109.0 -1.0L-40.0 80.0C-116.0 2.0 -280.0 -85.0 -467.0 -127.0L-462.0 -139.0C-252.0 -132.0 -71.0 -82.0 50.0 -17.0ZM-39.0 -295.0 -42.0 -308.0C122.0 -344.0 223.0 -405.0 279.0 -453.0C401.0 -542.0 603.0 -293.0 -39.0 -295.0ZM274.0 309.0 249.0 274.0 78.0 262.0 88.0 235.0 305.0 251.0C317.0 251.0 326.0 258.0 327.0 268.0C308.0 285.0 274.0 309.0 274.0 309.0ZM-151.0 170.0H-317.0L-328.0 142.0H-151.0ZM-161.0 -245.0V-123.0H-147.0L-264.0 -80.0L-297.0 -106.0V-245.0ZM-313.0 -341.0 -273.0 -460.0C-130.0 -416.0 -10.0 -371.0 53.0 -345.0V-332.0C-99.0 -338.0 -249.0 -342.0 -313.0 -341.0ZM-195.0 -176.0H-297.0V-291.0C-297.0 -311.0 -303.0 -322.0 -343.0 -343.0L-278.0 -475.0C-249.0 -461.0 -216.0 -421.0 -227.0 -344.0L-282.0 -385.0L-161.0 -342.0V-196.0ZM428.0 -281.0 308.0 -188.0C286.0 -222.0 240.0 -284.0 209.0 -319.0L217.0 -329.0C267.0 -317.0 351.0 -300.0 391.0 -286.0C413.0 -292.0 423.0 -289.0 428.0 -281.0ZM131.0 -123.0H138.0V-296.0H162.0C208.0 -296.0 268.0 -263.0 269.0 -251.0V-157.0C279.0 -155.0 285.0 -151.0 288.0 -147.0L183.0 -72.0ZM188.0 -189.0H-206.0V-217.0H188.0ZM185.0 -123.0H-209.0V-151.0H185.0Z"/></g>
<g fill="black" opacity=".8" transform="translate(1200 300) scale(0.1 -0.1)"><path d="M0.0 0.0 -13.0 -16.0C87.0 -88.0 242.0 -139.0 394.0 -153.0C397.0 -108.0 420.0 -69.0 463.0 -44.0L465.0 -31.0C324.0 -47.0 98.0 -42.0 0.0 0.0ZM50.0 -17.0C85.0 -21.0 102.0 -13.0 109.0 -1.0L-40.0 80.0C-116.0 2.0 -280.0 -85.0 -466.0 -127.0L-463.0 -138.0C-252.0 -133.0 -71.0 -82.0 50.0 -17.0ZM-39.0 -295.0 -41.0 -308.0C122.0 -343.0 224.0 -405.0 279.0 -453.0C400.0 -542.0 604.0 -293.0 -39.0 -295.0ZM274.0 308.0 248.0 274.0 78.0 261.0 88.0 235.0 305.0 251.0C316.0 251.0 326.0 259.0 327.0 269.0C307.0 285.0 274.0 308.0 274.0 308.0ZM-150.0 170.0H-317.0L-328.0 141.0H-150.0ZM-161.0 -245.0V-123.0H-147.0L-264.0 -80.0L-298.0 -107.0V-245.0ZM-313.0 -341.0 -273.0 -459.0C-130.0 -417.0 -10.0 -371.0 54.0 -345.0V-333.0C-99.0 -338.0 -248.0 -342.0 -313.0 -341.0ZM-195.0 -177.0H-298.0V-290.0C-298.0 -310.0 -302.0 -322.0 -343.0 -344.0L-279.0 -474.0C-248.0 -461.0 -216.0 -421.0 -226.0 -344.0L-281.0 -386.0L-161.0 -342.0V-197.0ZM428.0 -282.0 308.0 -187.0C285.0 -222.0 241.0 -283.0 209.0 -319.0L218.0 -329.0C267.0 -316.0 351.0 -300.0 391.0 -287.0C413.0 -292.0 423.0 -291.0 428.0 -282.0ZM131.0 -123.0H139.0V-297.0H161.0C208.0 -297.0 268.0 -262.0 270.0 -251.0V-157.0C278.0 -155.0 285.0 -152.0 289.0 -147.0L183.0 -72.0ZM188.0 -189.0H-206.0V-218.0H188.0ZM186.0 -122.0H-208.0V-151.0H186.0Z"/></g>
<g fill="red" transform="translate(1300 300) scale(0.1 -0.1)"><path d="M0.0 0.0 -18.0 -16.0C82.0 -102.0 255.0 -158.0 414.0 -177.0C420.0 -159.0 434.0 -150.0 455.0 -149.0L458.0 -137.0C306.0 -127.0 88.0 -75.0 0.0 0.0ZM14.0 -11.0C40.0 -14.0 52.0 -10.0 57.0 0.0L-7.0 39.0C-91.0 -49.0 -260.0 -140.0 -450.0 -183.0L-442.0 -201.0C-246.0 -170.0 -88.0 -93.0 14.0 -11.0ZM-95.0 -338.0 -99.0 -359.0C102.0 -396.0 256.0 -442.0 350.0 -499.0C418.0 -534.0 473.0 -406.0 -95.0 -338.0ZM52.0 -56.0 25.0 -88.0H-125.0L-117.0 -118.0H81.0C95.0 -118.0 103.0 -113.0 106.0 -102.0C84.0 -81.0 52.0 -56.0 52.0 -56.0ZM111.0 179.0H-94.0V149.0H111.0ZM-213.0 -228.0V-153.0H-200.0L-242.0 -134.0L-255.0 -150.0V-228.0ZM-263.0 -443.0 -250.0 -491.0C-149.0 -463.0 -45.0 -428.0 11.0 -411.0L8.0 -395.0C-104.0 -416.0 -215.0 -437.0 -263.0 -443.0ZM-222.0 -171.0H-255.0V-419.0C-255.0 -433.0 -258.0 -438.0 -278.0 -449.0L-250.0 -497.0C-240.0 -492.0 -222.0 -473.0 -232.0 -446.0L-245.0 -462.0L-213.0 -450.0V-177.0ZM364.0 -327.0 309.0 -284.0C271.0 -314.0 203.0 -361.0 157.0 -385.0L167.0 -397.0C218.0 -380.0 290.0 -350.0 332.0 -331.0C350.0 -336.0 360.0 -334.0 364.0 -327.0ZM175.0 -152.0H185.0V-351.0H191.0C205.0 -351.0 226.0 -339.0 227.0 -334.0V-191.0C247.0 -187.0 265.0 -180.0 271.0 -172.0L204.0 -120.0ZM207.0 -220.0H-242.0V-250.0H207.0ZM212.0 -152.0H-237.0V-182.0H212.0Z"/></g>
<g fill="black" opacity=".8" transform="translate(1300 300) scale(0.1 -0.1)"><path d="M0.0 0.0 -18.0 -16.0C82.0 -101.0 256.0 -159.0 413.0 -178.0C421.0 -159.0 433.0 -151.0 455.0 -150.0L458.0 -137.0C307.0 -128.0 87.0 -75.0 0.0 0.0ZM13.0 -11.0C40.0 -14.0 52.0 -10.0 57.0 -0.0L-7.0 39.0C-92.0 -48.0 -261.0 -140.0 -450.0 -183.0L-442.0 -199.0C-245.0 -171.0 -88.0 -93.0 13.0 -11.0ZM-96.0 -338.0 -100.0 -359.0C102.0 -398.0 256.0 -442.0 350.0 -498.0C418.0 -534.0 473.0 -404.0 -96.0 -338.0ZM52.0 -56.0 25.0 -89.0 -124.0 -88.0 -117.0 -117.0 81.0 -119.0C94.0 -118.0 102.0 -113.0 106.0 -103.0C83.0 -80.0 52.0 -56.0 52.0 -56.0ZM111.0 178.0H-93.0L-94.0 149.0H111.0ZM-215.0 -227.0V-153.0H-199.0L-242.0 -134.0L-254.0 -150.0V-227.0ZM-262.0 -444.0 -249.0 -491.0C-149.0 -463.0 -45.0 -429.0 11.0 -410.0L7.0 -395.0C-104.0 -416.0 -215.0 -437.0 -262.0 -444.0ZM-222.0 -171.0H-254.0V-419.0C-254.0 -433.0 -258.0 -437.0 -278.0 -449.0L-250.0 -496.0C-239.0 -493.0 -222.0 -473.0 -232.0 -446.0L-245.0 -462.0L-215.0 -450.0V-177.0ZM363.0 -327.0 308.0 -283.0C271.0 -314.0 203.0 -360.0 157.0 -385.0L168.0 -396.0C219.0 -379.0 289.0 -351.0 331.0 -332.0C350.0 -336.0 359.0 -335.0 363.0 -327.0ZM176.0 -152.0H187.0V-350.0H193.0C206.0 -350.0 225.0 -338.0 227.0 -335.0V-192.0C248.0 -187.0 265.0 -181.0 271.0 -171.0L204.0 -120.0ZM207.0 -220.0H-241.0V-250.0H207.0ZM212.0 -152.0H-237.0V-183.0H212.0Z"/></g>
<g fill="red" transform="translate(1400 300) scale(0.1 -0.1)"><path d="M0.0 0.0 -13.0 -15.0C86.0 -97.0 241.0 -160.0 396.0 -180.0C399.0 -132.0 423.0 -92.0 468.0 -64.0L470.0 -49.0C324.0 -63.0 100.0 -51.0 0.0 0.0ZM50.0 -16.0C83.0 -19.0 100.0 -13.0 107.0 -1.0L-32.0 71.0C-114.0 -4.0 -296.0 -104.0 -470.0 -154.0L-464.0 -167.0C-263.0 -144.0 -71.0 -80.0 50.0 -16.0ZM-57.0 -313.0 -60.0 -326.0C103.0 -361.0 205.0 -421.0 261.0 -467.0C383.0 -555.0 584.0 -308.0 -57.0 -313.0ZM34.0 -48.0 2.0 -84.0H-117.0L-109.0 -112.0H69.0C82.0 -112.0 91.0 -107.0 93.0 -96.0C70.0 -74.0 34.0 -48.0 34.0 -48.0ZM110.0 219.0H-60.0V191.0H110.0ZM-166.0 -260.0V-138.0H-152.0L-272.0 -94.0L-302.0 -117.0V-260.0ZM-322.0 -356.0 -282.0 -475.0C-123.0 -432.0 9.0 -387.0 81.0 -361.0L80.0 -347.0C-87.0 -353.0 -252.0 -357.0 -322.0 -356.0ZM-200.0 -191.0H-302.0V-306.0C-302.0 -326.0 -308.0 -337.0 -348.0 -358.0L-283.0 -490.0C-254.0 -476.0 -221.0 -436.0 -232.0 -359.0L-287.0 -400.0L-166.0 -357.0V-211.0ZM419.0 -297.0 300.0 -203.0C276.0 -239.0 227.0 -305.0 193.0 -342.0L201.0 -352.0C253.0 -338.0 341.0 -318.0 382.0 -301.0C404.0 -308.0 414.0 -304.0 419.0 -297.0ZM123.0 -138.0H130.0V-311.0H154.0C200.0 -311.0 260.0 -278.0 261.0 -266.0V-172.0C271.0 -170.0 277.0 -166.0 280.0 -162.0L175.0 -87.0ZM200.0 -202.0H-194.0V-230.0H200.0ZM197.0 -138.0H-197.0V-166.0H197.0Z"/></g>
<g fill="black" opacity=".8" transform="translate(1400 300) scale(0.1 -0.1)"><path d="M0.0 0.0 -13.0 -15.0C86.0 -96.0 241.0 -160.0 396.0 -181.0C398.0 -132.0 423.0 -91.0 468.0 -64.0L470.0 -49.0C325.0 -62.0 100.0 -51.0 0.0 0.0ZM51.0 -16.0C83.0 -21.0 101.0 -13.0 106.0 -1.0L-33.0 70.0C-114.0 -5.0 -297.0 -103.0 -470.0 -155.0L-465.0 -167.0C-263.0 -145.0 -71.0 -80.0 51.0 -16.0ZM-57.0 -314.0 -59.0 -326.0C103.0 -361.0 206.0 -422.0 261.0 -466.0C383.0 -555.0 584.0 -308.0 -57.0 -314.0ZM34.0 -49.0 1.0 -84.0 -118.0 -85.0 -109.0 -112.0H69.0C81.0 -112.0 91.0 -107.0 93.0 -95.0C69.0 -74.0 34.0 -49.0 34.0 -49.0ZM111.0 219.0H-60.0L-61.0 190.0H111.0ZM-166.0 -260.0V-138.0H-153.0L-272.0 -94.0L-303.0 -118.0V-260.0ZM-322.0 -355.0 -282.0 -474.0C-123.0 -433.0 9.0 -387.0 82.0 -361.0L80.0 -348.0C-87.0 -353.0 -252.0 -357.0 -322.0 -355.0ZM-200.0 -192.0H-303.0V-305.0C-303.0 -325.0 -308.0 -338.0 -348.0 -359.0L-284.0 -489.0C-253.0 -476.0 -222.0 -436.0 -231.0 -358.0L-285.0 -401.0L-166.0 -357.0V-212.0ZM418.0 -298.0 300.0 -203.0C275.0 -238.0 228.0 -305.0 192.0 -341.0L202.0 -353.0C254.0 -338.0 342.0 -318.0 382.0 -302.0C405.0 -308.0 415.0 -305.0 418.0 -298.0ZM123.0 -138.0H131.0V-312.0H153.0C200.0 -312.0 261.0 -278.0 262.0 -265.0V-172.0C271.0 -169.0 277.0 -167.0 281.0 -162.0L176.0 -87.0ZM200.0 -201.0H-194.0V-230.0H200.0ZM197.0 -137.0H-197.0V-166.0H197.0Z"/></g>
<g fill="red" transform="translate(1500 300) scale(0.1 -0.1)"><path d="M0.0 0.0 -18.0 -16.0C70.0 -83.0 221.0 -121.0 357.0 -132.0C363.0 -114.0 376.0 -105.0 398.0 -105.0L400.0 -94.0C270.0 -91.0 78.0 -56.0 0.0 0.0ZM17.0 -12.0C42.0 -15.0 54.0 -11.0 59.0 -2.0L2.0 35.0C-72.0 -30.0 -224.0 -105.0 -378.0 -140.0L-370.0 -158.0C-212.0 -132.0 -72.0 -72.0 17.0 -12.0ZM-47.0 -300.0 -52.0 -321.0C123.0 -357.0 257.0 -401.0 339.0 -454.0C398.0 -485.0 443.0 -372.0 -47.0 -300.0ZM332.0 270.0 299.0 231.0H20.0L28.0 201.0H372.0C386.0 201.0 394.0 206.0 396.0 217.0C372.0 241.0 332.0 270.0 332.0 270.0ZM-8.0 168.0H-293.0V138.0H-8.0ZM-183.0 -210.0V-136.0H-171.0L-223.0 -112.0V-113.0V-210.0ZM-223.0 -401.0 -214.0 -450.0C-110.0 -420.0 -3.0 -384.0 58.0 -367.0L54.0 -350.0C-62.0 -373.0 -175.0 -395.0 -223.0 -401.0ZM-191.0 -155.0H-223.0V-382.0C-223.0 -395.0 -226.0 -399.0 -246.0 -411.0L-217.0 -462.0C-206.0 -457.0 -190.0 -437.0 -199.0 -409.0L-212.0 -425.0L-183.0 -414.0V-160.0ZM339.0 -278.0 288.0 -241.0C250.0 -274.0 186.0 -326.0 141.0 -354.0L150.0 -365.0C199.0 -343.0 267.0 -306.0 307.0 -283.0C325.0 -288.0 334.0 -286.0 339.0 -278.0ZM189.0 -135.0H195.0V-305.0H200.0C214.0 -305.0 234.0 -295.0 234.0 -288.0V-164.0C246.0 -162.0 257.0 -156.0 260.0 -151.0L212.0 -113.0ZM216.0 -197.0H-196.0V-223.0H216.0ZM207.0 -135.0H-200.0V-161.0H207.0Z"/></g>
<g fill="black" opacity=".8" transform="translate(1500 300) scale(0.1 -0.1)"><path d="M0.0 0.0 -18.0 -16.0C71.0 -83.0 222.0 -122.0 356.0 -133.0C364.0 -114.0 376.0 -106.0 398.0 -106.0L400.0 -94.0C271.0 -92.0 78.0 -56.0 0.0 0.0ZM16.0 -12.0C42.0 -14.0 54.0 -10.0 59.0 -2.0L1.0 36.0C-73.0 -28.0 -225.0 -105.0 -378.0 -140.0L-370.0 -156.0C-212.0 -133.0 -72.0 -72.0 16.0 -12.0ZM-47.0 -300.0 -52.0 -321.0C123.0 -359.0 257.0 -400.0 339.0 -453.0C398.0 -485.0 443.0 -370.0 -47.0 -300.0ZM333.0 269.0 299.0 230.0 21.0 231.0 28.0 202.0 371.0 200.0C385.0 201.0 393.0 206.0 395.0 216.0C372.0 243.0 333.0 269.0 333.0 269.0ZM-7.0 167.0H-294.0V138.0H-7.0ZM-185.0 -210.0V-137.0H-170.0L-223.0 -112.0L-222.0 -114.0V-210.0ZM-223.0 -402.0 -213.0 -450.0C-110.0 -420.0 -3.0 -385.0 58.0 -367.0L53.0 -350.0C-63.0 -373.0 -175.0 -395.0 -223.0 -402.0ZM-191.0 -155.0H-222.0V-382.0C-222.0 -395.0 -226.0 -398.0 -245.0 -411.0L-218.0 -461.0C-206.0 -458.0 -190.0 -436.0 -200.0 -409.0L-212.0 -425.0L-185.0 -414.0V-159.0ZM339.0 -278.0 287.0 -240.0C250.0 -274.0 185.0 -326.0 141.0 -353.0L151.0 -364.0C200.0 -342.0 266.0 -306.0 306.0 -284.0C325.0 -288.0 333.0 -286.0 339.0 -278.0ZM190.0 -136.0H196.0V-305.0H201.0C215.0 -305.0 234.0 -294.0 234.0 -289.0V-165.0C247.0 -162.0 257.0 -157.0 260.0 -150.0L212.0 -113.0ZM216.0 -197.0H-196.0V-223.0H216.0ZM207.0 -135.0H-200.0V-163.0H207.0Z"/></g>
<g fill="red" transform="translate(1600 300) scale(0.1 -0.1)"><path d="M0.0 0.0 -15.0 -15.0C70.0 -97.0 207.0 -159.0 345.0 -180.0C349.0 -142.0 370.0 -111.0 407.0 -90.0L409.0 -76.0C278.0 -81.0 83.0 -57.0 0.0 0.0ZM45.0 -34.0C77.0 -36.0 92.0 -30.0 98.0 -18.0L-35.0 46.0C-109.0 -41.0 -270.0 -141.0 -450.0 -194.0L-444.0 -207.0C-241.0 -182.0 -68.0 -111.0 45.0 -34.0ZM-85.0 -314.0 -88.0 -328.0C73.0 -364.0 174.0 -423.0 231.0 -471.0C345.0 -553.0 530.0 -321.0 -85.0 -314.0ZM326.0 282.0 289.0 233.0H16.0L24.0 205.0H367.0C380.0 205.0 389.0 210.0 391.0 221.0C367.0 247.0 326.0 282.0 326.0 282.0ZM-19.0 172.0H-232.0V144.0H-19.0ZM-143.0 -268.0V-150.0H-130.0L-226.0 -114.0L-271.0 -150.0V-268.0ZM-290.0 -376.0 -244.0 -488.0C-125.0 -446.0 -24.0 -403.0 28.0 -379.0L27.0 -366.0C-103.0 -372.0 -233.0 -376.0 -290.0 -376.0ZM-174.0 -199.0H-271.0V-328.0C-271.0 -348.0 -277.0 -358.0 -315.0 -378.0L-253.0 -503.0C-226.0 -490.0 -194.0 -452.0 -205.0 -379.0L-256.0 -418.0L-143.0 -378.0V-218.0ZM382.0 -303.0 265.0 -214.0C243.0 -253.0 198.0 -324.0 166.0 -365.0L174.0 -374.0C224.0 -356.0 307.0 -328.0 346.0 -308.0C367.0 -314.0 377.0 -311.0 382.0 -303.0ZM92.0 -150.0H99.0V-318.0H122.0C166.0 -318.0 225.0 -286.0 225.0 -275.0V-184.0C235.0 -182.0 241.0 -178.0 244.0 -174.0L143.0 -100.0ZM184.0 -207.0H-172.0V-235.0H184.0ZM188.0 -150.0H-168.0V-178.0H188.0Z"/></g>
<g fill="black" opacity=".8" transform="translate(1600 300) scale(0.1 -0.1)"><path d="M0.0 0.0 -15.0 -15.0C71.0 -96.0 207.0 -159.0 345.0 -181.0C348.0 -143.0 370.0 -109.0 407.0 -91.0L409.0 -77.0C279.0 -80.0 83.0 -57.0 0.0 0.0ZM45.0 -34.0C77.0 -37.0 93.0 -30.0 97.0 -18.0L-36.0 45.0C-109.0 -41.0 -270.0 -141.0 -449.0 -195.0L-446.0 -207.0C-242.0 -182.0 -68.0 -111.0 45.0 -34.0ZM-84.0 -315.0 -88.0 -328.0C73.0 -363.0 175.0 -423.0 232.0 -470.0C345.0 -553.0 530.0 -320.0 -84.0 -315.0ZM325.0 281.0 288.0 233.0 15.0 231.0 24.0 205.0H367.0C379.0 205.0 389.0 211.0 391.0 222.0C366.0 247.0 325.0 281.0 325.0 281.0ZM-18.0 172.0H-232.0V143.0H-18.0ZM-143.0 -267.0V-150.0H-130.0L-226.0 -114.0L-272.0 -151.0V-267.0ZM-290.0 -375.0 -244.0 -487.0C-125.0 -447.0 -23.0 -403.0 29.0 -379.0L28.0 -367.0C-103.0 -372.0 -233.0 -376.0 -290.0 -375.0ZM-174.0 -200.0H-272.0V-328.0C-272.0 -347.0 -276.0 -358.0 -315.0 -378.0L-253.0 -502.0C-225.0 -490.0 -195.0 -452.0 -204.0 -379.0L-255.0 -418.0L-143.0 -377.0V-218.0ZM381.0 -304.0 264.0 -214.0C242.0 -253.0 199.0 -324.0 165.0 -365.0L174.0 -374.0C224.0 -355.0 308.0 -328.0 346.0 -309.0C367.0 -314.0 377.0 -313.0 381.0 -304.0ZM92.0 -150.0H100.0V-319.0H121.0C166.0 -319.0 225.0 -286.0 227.0 -274.0V-184.0C234.0 -181.0 240.0 -179.0 244.0 -173.0L143.0 -100.0ZM183.0 -207.0H-172.0V-235.0H183.0ZM189.0 -149.0H-168.0V-178.0H189.0Z"/></g>
</svg>
