<?xml version="1.0" encoding="UTF-8"?>
<svg width="1700" height="300" xmlns="http://www.w3.org/2000/svg">
<rect width="100%" height="100%" fill="white"/>
<g fill="green" transform="translate(100 100) scale(0.1 -0.1)"><path d="M0.0 0.0 9.0 -29.0H604.0V0.0ZM-52.0 -383.0 -43.0 -412.0H591.0V-383.0ZM564.0 0.0C574.0 -183.0 622.0 -346.0 768.0 -406.0C806.0 -423.0 844.0 -432.0 855.0 -412.0C861.0 -403.0 856.0 -394.0 835.0 -377.0L844.0 -274.0L831.0 -272.0C823.0 -301.0 813.0 -331.0 805.0 -353.0C800.0 -364.0 797.0 -365.0 782.0 -360.0C664.0 -318.0 619.0 -166.0 611.0 -35.0C630.0 -33.0 644.0 -27.0 650.0 -20.0L586.0 33.0L556.0 0.0ZM552.0 -383.0C559.0 -594.0 602.0 -772.0 772.0 -830.0C813.0 -847.0 851.0 -854.0 861.0 -834.0C865.0 -824.0 861.0 -815.0 840.0 -800.0L847.0 -692.0L834.0 -690.0C826.0 -722.0 817.0 -752.0 808.0 -776.0C804.0 -788.0 799.0 -790.0 783.0 -784.0C644.0 -740.0 603.0 -573.0 600.0 -419.0C618.0 -416.0 631.0 -411.0 638.0 -405.0L574.0 -351.0L544.0 -383.0ZM237.0 -70.0C187.0 -129.0 74.0 -214.0 -24.0 -261.0L-14.0 -276.0C89.0 -237.0 205.0 -165.0 266.0 -111.0C287.0 -115.0 301.0 -113.0 307.0 -103.0ZM146.0 -170.0V-375.0C146.0 -537.0 119.0 -713.0 -49.0 -829.0L-36.0 -844.0C159.0 -730.0 190.0 -542.0 191.0 -377.0V-206.0C214.0 -202.0 222.0 -192.0 225.0 -179.0ZM358.0 -66.0V-847.0H367.0C384.0 -847.0 403.0 -835.0 403.0 -827.0V-100.0C424.0 -97.0 432.0 -88.0 434.0 -75.0ZM620.0 -115.0 611.0 -127.0C669.0 -151.0 745.0 -204.0 773.0 -246.0C832.0 -269.0 839.0 -148.0 620.0 -115.0ZM602.0 -535.0 593.0 -546.0C656.0 -573.0 738.0 -629.0 770.0 -674.0C831.0 -697.0 835.0 -573.0 602.0 -535.0ZM747.0 -433.0C724.0 -468.0 682.0 -525.0 654.0 -558.0L665.0 -568.0C698.0 -543.0 747.0 -503.0 774.0 -480.0C794.0 -484.0 802.0 -482.0 806.0 -474.0ZM763.0 -12.0C740.0 -46.0 701.0 -103.0 673.0 -137.0L684.0 -146.0C718.0 -122.0 764.0 -82.0 791.0 -59.0C809.0 -64.0 818.0 -62.0 823.0 -54.0Z"/></g>
<g fill="green" transform="translate(200 100) scale(0.1 -0.1)"><path d="M0.0 0.0 9.0 -28.0H595.0V0.0ZM-61.0 -382.0 -52.0 -410.0H605.0V-382.0ZM511.0 0.0C523.0 -177.0 575.0 -326.0 738.0 -393.0C790.0 -418.0 858.0 -427.0 884.0 -379.0C897.0 -353.0 888.0 -326.0 856.0 -292.0L861.0 -183.0L851.0 -181.0C841.0 -213.0 829.0 -244.0 817.0 -265.0C811.0 -275.0 806.0 -277.0 791.0 -272.0C689.0 -242.0 649.0 -135.0 642.0 -38.0C659.0 -35.0 674.0 -29.0 680.0 -22.0L559.0 64.0L500.0 0.0ZM516.0 -382.0C527.0 -584.0 576.0 -762.0 741.0 -840.0C791.0 -868.0 859.0 -882.0 888.0 -835.0C903.0 -811.0 895.0 -782.0 863.0 -743.0L869.0 -622.0L859.0 -621.0C848.0 -655.0 836.0 -688.0 824.0 -711.0C818.0 -722.0 812.0 -723.0 797.0 -717.0C690.0 -677.0 652.0 -539.0 647.0 -422.0C665.0 -419.0 680.0 -412.0 686.0 -405.0L565.0 -316.0L505.0 -382.0ZM190.0 -48.0C141.0 -113.0 36.0 -204.0 -60.0 -258.0L-56.0 -268.0C73.0 -243.0 205.0 -196.0 283.0 -149.0C317.0 -155.0 336.0 -149.0 345.0 -137.0ZM95.0 -198.0V-408.0C95.0 -562.0 76.0 -736.0 -60.0 -858.0L-53.0 -866.0C184.0 -772.0 230.0 -579.0 232.0 -409.0V-241.0C257.0 -238.0 265.0 -227.0 267.0 -214.0ZM313.0 -49.0V-865.0H340.0C391.0 -865.0 453.0 -833.0 453.0 -821.0V-91.0C477.0 -87.0 484.0 -78.0 486.0 -65.0ZM649.0 -89.0 641.0 -96.0C680.0 -122.0 727.0 -172.0 746.0 -215.0C851.0 -257.0 897.0 -62.0 649.0 -89.0ZM651.0 -509.0 643.0 -516.0C685.0 -546.0 736.0 -601.0 756.0 -648.0C863.0 -694.0 912.0 -494.0 651.0 -509.0ZM732.0 -392.0C725.0 -427.0 709.0 -495.0 697.0 -535.0L706.0 -544.0C740.0 -523.0 799.0 -492.0 827.0 -473.0C851.0 -476.0 860.0 -471.0 864.0 -462.0ZM742.0 25.0C731.0 -7.0 707.0 -68.0 690.0 -102.0L698.0 -111.0C732.0 -97.0 793.0 -78.0 821.0 -64.0C843.0 -69.0 852.0 -65.0 857.0 -57.0Z"/></g>
<g fill="green" transform="translate(300 100) scale(0.1 -0.1)"><path d="M0.0 0.0 9.0 -29.0H604.0V0.0ZM-52.0 -383.0 -43.0 -412.0H591.0V-383.0ZM564.0 0.0C574.0 -183.0 622.0 -346.0 768.0 -406.0C806.0 -423.0 844.0 -432.0 855.0 -412.0C861.0 -403.0 856.0 -394.0 835.0 -377.0L844.0 -274.0L831.0 -272.0C823.0 -301.0 813.0 -331.0 805.0 -353.0C800.0 -364.0 797.0 -365.0 782.0 -360.0C664.0 -318.0 619.0 -166.0 611.0 -35.0C630.0 -33.0 644.0 -27.0 650.0 -20.0L586.0 33.0L556.0 0.0ZM552.0 -383.0C559.0 -594.0 602.0 -772.0 772.0 -830.0C813.0 -847.0 851.0 -854.0 861.0 -834.0C865.0 -824.0 861.0 -815.0 840.0 -800.0L847.0 -692.0L834.0 -690.0C826.0 -722.0 817.0 -752.0 808.0 -776.0C804.0 -788.0 799.0 -790.0 783.0 -784.0C644.0 -740.0 603.0 -573.0 600.0 -419.0C618.0 -416.0 631.0 -411.0 638.0 -405.0L574.0 -351.0L544.0 -383.0ZM237.0 -70.0C187.0 -129.0 74.0 -214.0 -24.0 -261.0L-14.0 -276.0C89.0 -237.0 205.0 -165.0 266.0 -111.0C287.0 -115.0 301.0 -113.0 307.0 -103.0ZM146.0 -170.0V-375.0C146.0 -537.0 119.0 -713.0 -49.0 -829.0L-36.0 -844.0C159.0 -730.0 190.0 -542.0 191.0 -377.0V-206.0C214.0 -202.0 222.0 -192.0 225.0 -179.0ZM358.0 -66.0V-847.0H367.0C384.0 -847.0 403.0 -835.0 403.0 -827.0V-100.0C424.0 -97.0 432.0 -88.0 434.0 -75.0ZM620.0 -115.0 611.0 -127.0C669.0 -151.0 745.0 -204.0 773.0 -246.0C832.0 -269.0 839.0 -148.0 620.0 -115.0ZM602.0 -535.0 593.0 -546.0C656.0 -573.0 738.0 -629.0 770.0 -674.0C831.0 -697.0 835.0 -573.0 602.0 -535.0ZM747.0 -433.0C724.0 -468.0 682.0 -525.0 654.0 -558.0L665.0 -568.0C698.0 -543.0 747.0 -503.0 774.0 -480.0C794.0 -484.0 802.0 -482.0 806.0 -474.0ZM763.0 -12.0C740.0 -46.0 701.0 -103.0 673.0 -137.0L684.0 -146.0C718.0 -122.0 764.0 -82.0 791.0 -59.0C809.0 -64.0 818.0 -62.0 823.0 -54.0Z"/></g>
<g fill="green" transform="translate(400 100) scale(0.1 -0.1)"><path d="M0.0 0.0 9.0 -28.0H595.0V0.0ZM-61.0 -382.0 -52.0 -410.0H605.0V-382.0ZM511.0 0.0C523.0 -177.0 575.0 -326.0 738.0 -393.0C790.0 -418.0 858.0 -427.0 884.0 -379.0C897.0 -353.0 888.0 -326.0 856.0 -292.0L861.0 -183.0L851.0 -181.0C841.0 -213.0 829.0 -244.0 817.0 -265.0C811.0 -275.0 806.0 -277.0 791.0 -272.0C689.0 -242.0 649.0 -135.0 642.0 -38.0C659.0 -35.0 674.0 -29.0 680.0 -22.0L559.0 64.0L500.0 0.0ZM516.0 -382.0C527.0 -584.0 576.0 -762.0 741.0 -840.0C791.0 -868.0 859.0 -882.0 888.0 -835.0C903.0 -811.0 895.0 -782.0 863.0 -743.0L869.0 -622.0L859.0 -621.0C848.0 -655.0 836.0 -688.0 824.0 -711.0C818.0 -722.0 812.0 -723.0 797.0 -717.0C690.0 -677.0 652.0 -539.0 647.0 -422.0C665.0 -419.0 680.0 -412.0 686.0 -405.0L565.0 -316.0L505.0 -382.0ZM190.0 -48.0C141.0 -113.0 36.0 -204.0 -60.0 -258.0L-56.0 -268.0C73.0 -243.0 205.0 -196.0 283.0 -149.0C317.0 -155.0 336.0 -149.0 345.0 -137.0ZM95.0 -198.0V-408.0C95.0 -562.0 76.0 -736.0 -60.0 -858.0L-53.0 -866.0C184.0 -772.0 230.0 -579.0 232.0 -409.0V-241.0C257.0 -238.0 265.0 -227.0 267.0 -214.0ZM313.0 -49.0V-865.0H340.0C391.0 -865.0 453.0 -833.0 453.0 -821.0V-91.0C477.0 -87.0 484.0 -78.0 486.0 -65.0ZM649.0 -89.0 641.0 -96.0C680.0 -122.0 727.0 -172.0 746.0 -215.0C851.0 -257.0 897.0 -62.0 649.0 -89.0ZM651.0 -509.0 643.0 -516.0C685.0 -546.0 736.0 -601.0 756.0 -648.0C863.0 -694.0 912.0 -494.0 651.0 -509.0ZM732.0 -392.0C725.0 -427.0 709.0 -495.0 697.0 -535.0L706.0 -544.0C740.0 -523.0 799.0 -492.0 827.0 -473.0C851.0 -476.0 860.0 -471.0 864.0 -462.0ZM742.0 25.0C731.0 -7.0 707.0 -68.0 690.0 -102.0L698.0 -111.0C732.0 -97.0 793.0 -78.0 821.0 -64.0C843.0 -69.0 852.0 -65.0 857.0 -57.0Z"/></g>
<g fill="red" transform="translate(100 200) scale(0.1 -0.1)"><path d="M0.0 0.0 9.0 -29.0H604.0V0.0ZM-52.0 -383.0 -43.0 -412.0H591.0V-383.0ZM564.0 0.0C574.0 -183.0 622.0 -346.0 768.0 -406.0C806.0 -423.0 844.0 -432.0 855.0 -412.0C861.0 -403.0 856.0 -394.0 835.0 -377.0L844.0 -274.0L831.0 -272.0C823.0 -301.0 813.0 -331.0 805.0 -353.0C800.0 -364.0 797.0 -365.0 782.0 -360.0C664.0 -318.0 619.0 -166.0 611.0 -35.0C630.0 -33.0 644.0 -27.0 650.0 -20.0L586.0 33.0L556.0 0.0ZM552.0 -383.0C559.0 -594.0 602.0 -772.0 772.0 -830.0C813.0 -847.0 851.0 -854.0 861.0 -834.0C865.0 -824.0 861.0 -815.0 840.0 -800.0L847.0 -692.0L834.0 -690.0C826.0 -722.0 817.0 -752.0 808.0 -776.0C804.0 -788.0 799.0 -790.0 783.0 -784.0C644.0 -740.0 603.0 -573.0 600.0 -419.0C618.0 -416.0 631.0 -411.0 638.0 -405.0L574.0 -351.0L544.0 -383.0ZM237.0 -70.0C187.0 -129.0 74.0 -214.0 -24.0 -261.0L-14.0 -276.0C89.0 -237.0 205.0 -165.0 266.0 -111.0C287.0 -115.0 301.0 -113.0 307.0 -103.0ZM146.0 -170.0V-375.0C146.0 -537.0 119.0 -713.0 -49.0 -829.0L-36.0 -844.0C159.0 -730.0 190.0 -542.0 191.0 -377.0V-206.0C214.0 -202.0 222.0 -192.0 225.0 -179.0ZM358.0 -66.0V-847.0H367.0C384.0 -847.0 403.0 -835.0 403.0 -827.0V-100.0C424.0 -97.0 432.0 -88.0 434.0 -75.0ZM620.0 -115.0 611.0 -127.0C669.0 -151.0 745.0 -204.0 773.0 -246.0C832.0 -269.0 839.0 -148.0 620.0 -115.0ZM602.0 -535.0 593.0 -546.0C656.0 -573.0 738.0 -629.0 770.0 -674.0C831.0 -697.0 835.0 -573.0 602.0 -535.0ZM747.0 -433.0C724.0 -468.0 682.0 -525.0 654.0 -558.0L665.0 -568.0C698.0 -543.0 747.0 -503.0 774.0 -480.0C794.0 -484.0 802.0 -482.0 806.0 -474.0ZM763.0 -12.0C740.0 -46.0 701.0 -103.0 673.0 -137.0L684.0 -146.0C718.0 -122.0 764.0 -82.0 791.0 -59.0C809.0 -64.0 818.0 -62.0 823.0 -54.0Z"/></g>
<g fill="black" opacity=".8" transform="translate(100 200) scale(0.1 -0.1)"><path d="M0.0 0.0 9.0 -29.0H604.0V0.0ZM-52.0 -383.0 -43.0 -412.0H591.0V-383.0ZM564.0 0.0C574.0 -183.0 622.0 -346.0 768.0 -406.0C806.0 -423.0 844.0 -432.0 855.0 -412.0C861.0 -403.0 856.0 -394.0 835.0 -377.0L844.0 -274.0L831.0 -272.0C823.0 -301.0 813.0 -331.0 805.0 -353.0C800.0 -364.0 797.0 -365.0 782.0 -360.0C664.0 -318.0 619.0 -166.0 611.0 -35.0C630.0 -33.0 644.0 -27.0 650.0 -20.0L586.0 33.0L556.0 0.0ZM552.0 -383.0C559.0 -594.0 602.0 -772.0 772.0 -830.0C813.0 -847.0 851.0 -854.0 861.0 -834.0C865.0 -824.0 861.0 -815.0 840.0 -800.0L847.0 -692.0L834.0 -690.0C826.0 -722.0 817.0 -752.0 808.0 -776.0C804.0 -788.0 799.0 -790.0 783.0 -784.0C644.0 -740.0 603.0 -573.0 600.0 -419.0C618.0 -416.0 631.0 -411.0 638.0 -405.0L574.0 -351.0L544.0 -383.0ZM237.0 -70.0C187.0 -129.0 74.0 -214.0 -24.0 -261.0L-14.0 -276.0C89.0 -237.0 205.0 -165.0 266.0 -111.0C287.0 -115.0 301.0 -113.0 307.0 -103.0ZM146.0 -170.0V-375.0C146.0 -537.0 119.0 -713.0 -49.0 -829.0L-36.0 -844.0C159.0 -730.0 190.0 -542.0 191.0 -377.0V-206.0C214.0 -202.0 222.0 -192.0 225.0 -179.0ZM358.0 -66.0V-847.0H367.0C384.0 -847.0 403.0 -835.0 403.0 -827.0V-100.0C424.0 -97.0 432.0 -88.0 434.0 -75.0ZM620.0 -115.0 611.0 -127.0C669.0 -151.0 745.0 -204.0 773.0 -246.0C832.0 -269.0 839.0 -148.0 620.0 -115.0ZM602.0 -535.0 593.0 -546.0C656.0 -573.0 738.0 -629.0 770.0 -674.0C831.0 -697.0 835.0 -573.0 602.0 -535.0ZM747.0 -433.0C724.0 -468.0 682.0 -525.0 654.0 -558.0L665.0 -568.0C698.0 -543.0 747.0 -503.0 774.0 -480.0C794.0 -484.0 802.0 -482.0 806.0 -474.0ZM763.0 -12.0C740.0 -46.0 701.0 -103.0 673.0 -137.0L684.0 -146.0C718.0 -122.0 764.0 -82.0 791.0 -59.0C809.0 -64.0 818.0 -62.0 823.0 -54.0Z"/></g>
<g fill="red" transform="translate(200 200) scale(0.1 -0.1)"><path d="M0.0 0.0 9.0 -28.0H595.0V0.0ZM-61.0 -382.0 -52.0 -410.0H605.0V-382.0ZM511.0 0.0C523.0 -177.0 575.0 -326.0 738.0 -393.0C790.0 -418.0 858.0 -427.0 884.0 -379.0C897.0 -353.0 888.0 -326.0 856.0 -292.0L861.0 -183.0L851.0 -181.0C841.0 -213.0 829.0 -244.0 817.0 -265.0C811.0 -275.0 806.0 -277.0 791.0 -272.0C689.0 -242.0 649.0 -135.0 642.0 -38.0C659.0 -35.0 674.0 -29.0 680.0 -22.0L559.0 64.0L500.0 0.0ZM516.0 -382.0C527.0 -584.0 576.0 -762.0 741.0 -840.0C791.0 -868.0 859.0 -882.0 888.0 -835.0C903.0 -811.0 895.0 -782.0 863.0 -743.0L869.0 -622.0L859.0 -621.0C848.0 -655.0 836.0 -688.0 824.0 -711.0C818.0 -722.0 812.0 -723.0 797.0 -717.0C690.0 -677.0 652.0 -539.0 647.0 -422.0C665.0 -419.0 680.0 -412.0 686.0 -405.0L565.0 -316.0L505.0 -382.0ZM190.0 -48.0C141.0 -113.0 36.0 -204.0 -60.0 -258.0L-56.0 -268.0C73.0 -243.0 205.0 -196.0 283.0 -149.0C317.0 -155.0 336.0 -149.0 345.0 -137.0ZM95.0 -198.0V-408.0C95.0 -562.0 76.0 -736.0 -60.0 -858.0L-53.0 -866.0C184.0 -772.0 230.0 -579.0 232.0 -409.0V-241.0C257.0 -238.0 265.0 -227.0 267.0 -214.0ZM313.0 -49.0V-865.0H340.0C391.0 -865.0 453.0 -833.0 453.0 -821.0V-91.0C477.0 -87.0 484.0 -78.0 486.0 -65.0ZM649.0 -89.0 641.0 -96.0C680.0 -122.0 727.0 -172.0 746.0 -215.0C851.0 -257.0 897.0 -62.0 649.0 -89.0ZM651.0 -509.0 643.0 -516.0C685.0 -546.0 736.0 -601.0 756.0 -648.0C863.0 -694.0 912.0 -494.0 651.0 -509.0ZM732.0 -392.0C725.0 -427.0 709.0 -495.0 697.0 -535.0L706.0 -544.0C740.0 -523.0 799.0 -492.0 827.0 -473.0C851.0 -476.0 860.0 -471.0 864.0 -462.0ZM742.0 25.0C731.0 -7.0 707.0 -68.0 690.0 -102.0L698.0 -111.0C732.0 -97.0 793.0 -78.0 821.0 -64.0C843.0 -69.0 852.0 -65.0 857.0 -57.0Z"/></g>
<g fill="black" opacity=".8" transform="translate(200 200) scale(0.1 -0.1)"><path d="M0.0 0.0 9.0 -28.0H595.0V0.0ZM-61.0 -382.0 -52.0 -410.0H605.0V-382.0ZM511.0 0.0C523.0 -177.0 575.0 -326.0 738.0 -393.0C790.0 -418.0 858.0 -427.0 884.0 -379.0C897.0 -353.0 888.0 -326.0 856.0 -292.0L861.0 -183.0L851.0 -181.0C841.0 -213.0 829.0 -244.0 817.0 -265.0C811.0 -275.0 806.0 -277.0 791.0 -272.0C689.0 -242.0 649.0 -135.0 642.0 -38.0C659.0 -35.0 674.0 -29.0 680.0 -22.0L559.0 64.0L500.0 0.0ZM516.0 -382.0C527.0 -584.0 576.0 -762.0 741.0 -840.0C791.0 -868.0 859.0 -882.0 888.0 -835.0C903.0 -811.0 895.0 -782.0 863.0 -743.0L869.0 -622.0L859.0 -621.0C848.0 -655.0 836.0 -688.0 824.0 -711.0C818.0 -722.0 812.0 -723.0 797.0 -717.0C690.0 -677.0 652.0 -539.0 647.0 -422.0C665.0 -419.0 680.0 -412.0 686.0 -405.0L565.0 -316.0L505.0 -382.0ZM190.0 -48.0C141.0 -113.0 36.0 -204.0 -60.0 -258.0L-56.0 -268.0C73.0 -243.0 205.0 -196.0 283.0 -149.0C317.0 -155.0 336.0 -149.0 345.0 -137.0ZM95.0 -198.0V-408.0C95.0 -562.0 76.0 -736.0 -60.0 -858.0L-53.0 -866.0C184.0 -772.0 230.0 -579.0 232.0 -409.0V-241.0C257.0 -238.0 265.0 -227.0 267.0 -214.0ZM313.0 -49.0V-865.0H340.0C391.0 -865.0 453.0 -833.0 453.0 -821.0V-91.0C477.0 -87.0 484.0 -78.0 486.0 -65.0ZM649.0 -89.0 641.0 -96.0C680.0 -122.0 727.0 -172.0 746.0 -215.0C851.0 -257.0 897.0 -62.0 649.0 -89.0ZM651.0 -509.0 643.0 -516.0C685.0 -546.0 736.0 -601.0 756.0 -648.0C863.0 -694.0 912.0 -494.0 651.0 -509.0ZM732.0 -392.0C725.0 -427.0 709.0 -495.0 697.0 -535.0L706.0 -544.0C740.0 -523.0 799.0 -492.0 827.0 -473.0C851.0 -476.0 860.0 -471.0 864.0 -462.0ZM742.0 25.0C731.0 -7.0 707.0 -68.0 690.0 -102.0L698.0 -111.0C732.0 -97.0 793.0 -78.0 821.0 -64.0C843.0 -69.0 852.0 -65.0 857.0 -57.0Z"/></g>
</svg>
