<?xml version="1.0" encoding="UTF-8"?>
<svg width="1700" height="300" xmlns="http://www.w3.org/2000/svg">
<rect width="100%" height="100%" fill="white"/>
<g fill="green" transform="translate(100 100) scale(0.1 -0.1)"><path d="M0.0 0.0 -12.0 -7.0C31.0 -46.0 81.0 -113.0 92.0 -165.0C147.0 -204.0 186.0 -81.0 0.0 0.0ZM-214.0 -180.0 -205.0 -209.0H667.0C681.0 -209.0 691.0 -204.0 693.0 -194.0C662.0 -164.0 612.0 -126.0 612.0 -126.0L568.0 -180.0ZM205.0 -180.0C199.0 -229.0 187.0 -308.0 178.0 -348.0H203.0C227.0 -307.0 258.0 -234.0 279.0 -180.0ZM432.0 5.0C404.0 -59.0 355.0 -145.0 313.0 -201.0H336.0C387.0 -155.0 444.0 -90.0 478.0 -39.0C499.0 -40.0 511.0 -32.0 516.0 -21.0ZM-47.0 -328.0V-899.0H-39.0C-20.0 -899.0 -4.0 -888.0 -4.0 -882.0V-357.0H496.0V-328.0H2.0L-47.0 -302.0ZM483.0 -328.0V-895.0H489.0C504.0 -895.0 526.0 -882.0 527.0 -876.0V-367.0C547.0 -363.0 564.0 -355.0 570.0 -347.0L503.0 -294.0L473.0 -328.0ZM-22.0 -802.0V-832.0H503.0V-802.0ZM-22.0 -642.0V-671.0H503.0V-642.0ZM-22.0 -484.0V-514.0H503.0V-484.0Z"/></g>
<g fill="green" transform="translate(200 100) scale(0.1 -0.1)"><path d="M0.0 0.0 -7.0 -5.0C23.0 -50.0 54.0 -114.0 63.0 -175.0C188.0 -268.0 313.0 -31.0 0.0 0.0ZM-213.0 -197.0 -205.0 -225.0H705.0C719.0 -225.0 731.0 -220.0 734.0 -209.0C679.0 -164.0 589.0 -99.0 589.0 -99.0L509.0 -197.0ZM158.0 -197.0C158.0 -246.0 158.0 -319.0 157.0 -360.0H171.0C235.0 -323.0 316.0 -255.0 372.0 -197.0ZM363.0 2.0C352.0 -60.0 329.0 -152.0 307.0 -213.0H320.0C389.0 -170.0 469.0 -107.0 516.0 -63.0C540.0 -63.0 551.0 -54.0 554.0 -42.0ZM-57.0 -344.0V-944.0H-34.0C30.0 -944.0 93.0 -909.0 93.0 -893.0V-372.0H503.0V-344.0H102.0L-57.0 -283.0ZM427.0 -344.0V-937.0H452.0C504.0 -937.0 577.0 -908.0 578.0 -899.0V-395.0C599.0 -391.0 611.0 -382.0 618.0 -374.0L484.0 -270.0L417.0 -344.0ZM17.0 -838.0V-866.0H507.0V-838.0ZM17.0 -668.0V-696.0H507.0V-668.0ZM17.0 -504.0V-532.0H507.0V-504.0Z"/></g>
<g fill="green" transform="translate(300 100) scale(0.1 -0.1)"><path d="M0.0 0.0 -12.0 -7.0C31.0 -46.0 81.0 -113.0 92.0 -165.0C147.0 -204.0 186.0 -81.0 0.0 0.0ZM-214.0 -180.0 -205.0 -209.0H667.0C681.0 -209.0 691.0 -204.0 693.0 -194.0C662.0 -164.0 612.0 -126.0 612.0 -126.0L568.0 -180.0ZM205.0 -180.0C199.0 -229.0 187.0 -308.0 178.0 -348.0H203.0C227.0 -307.0 258.0 -234.0 279.0 -180.0ZM432.0 5.0C404.0 -59.0 355.0 -145.0 313.0 -201.0H336.0C387.0 -155.0 444.0 -90.0 478.0 -39.0C499.0 -40.0 511.0 -32.0 516.0 -21.0ZM-47.0 -328.0V-899.0H-39.0C-20.0 -899.0 -4.0 -888.0 -4.0 -882.0V-357.0H496.0V-328.0H2.0L-47.0 -302.0ZM483.0 -328.0V-895.0H489.0C504.0 -895.0 526.0 -882.0 527.0 -876.0V-367.0C547.0 -363.0 564.0 -355.0 570.0 -347.0L503.0 -294.0L473.0 -328.0ZM-22.0 -802.0V-832.0H503.0V-802.0ZM-22.0 -642.0V-671.0H503.0V-642.0ZM-22.0 -484.0V-514.0H503.0V-484.0Z"/></g>
<g fill="green" transform="translate(400 100) scale(0.1 -0.1)"><path d="M0.0 0.0 -7.0 -5.0C23.0 -50.0 54.0 -114.0 63.0 -175.0C188.0 -268.0 313.0 -31.0 0.0 0.0ZM-213.0 -197.0 -205.0 -225.0H705.0C719.0 -225.0 731.0 -220.0 734.0 -209.0C679.0 -164.0 589.0 -99.0 589.0 -99.0L509.0 -197.0ZM158.0 -197.0C158.0 -246.0 158.0 -319.0 157.0 -360.0H171.0C235.0 -323.0 316.0 -255.0 372.0 -197.0ZM363.0 2.0C352.0 -60.0 329.0 -152.0 307.0 -213.0H320.0C389.0 -170.0 469.0 -107.0 516.0 -63.0C540.0 -63.0 551.0 -54.0 554.0 -42.0ZM-57.0 -344.0V-944.0H-34.0C30.0 -944.0 93.0 -909.0 93.0 -893.0V-372.0H503.0V-344.0H102.0L-57.0 -283.0ZM427.0 -344.0V-937.0H452.0C504.0 -937.0 577.0 -908.0 578.0 -899.0V-395.0C599.0 -391.0 611.0 -382.0 618.0 -374.0L484.0 -270.0L417.0 -344.0ZM17.0 -838.0V-866.0H507.0V-838.0ZM17.0 -668.0V-696.0H507.0V-668.0ZM17.0 -504.0V-532.0H507.0V-504.0Z"/></g>
<g fill="red" transform="translate(100 200) scale(0.1 -0.1)"><path d="M0.0 0.0 -12.0 -7.0C31.0 -46.0 81.0 -113.0 92.0 -165.0C147.0 -204.0 186.0 -81.0 0.0 0.0ZM-214.0 -180.0 -205.0 -209.0H667.0C681.0 -209.0 691.0 -204.0 693.0 -194.0C662.0 -164.0 612.0 -126.0 612.0 -126.0L568.0 -180.0ZM205.0 -180.0C199.0 -229.0 187.0 -308.0 178.0 -348.0H203.0C227.0 -307.0 258.0 -234.0 279.0 -180.0ZM432.0 5.0C404.0 -59.0 355.0 -145.0 313.0 -201.0H336.0C387.0 -155.0 444.0 -90.0 478.0 -39.0C499.0 -40.0 511.0 -32.0 516.0 -21.0ZM-47.0 -328.0V-899.0H-39.0C-20.0 -899.0 -4.0 -888.0 -4.0 -882.0V-357.0H496.0V-328.0H2.0L-47.0 -302.0ZM483.0 -328.0V-895.0H489.0C504.0 -895.0 526.0 -882.0 527.0 -876.0V-367.0C547.0 -363.0 564.0 -355.0 570.0 -347.0L503.0 -294.0L473.0 -328.0ZM-22.0 -802.0V-832.0H503.0V-802.0ZM-22.0 -642.0V-671.0H503.0V-642.0ZM-22.0 -484.0V-514.0H503.0V-484.0Z"/></g>
<g fill="black" opacity=".8" transform="translate(100 200) scale(0.1 -0.1)"><path d="M0.0 0.0 -12.0 -7.0C31.0 -46.0 81.0 -113.0 92.0 -165.0C147.0 -204.0 186.0 -81.0 0.0 0.0ZM-214.0 -180.0 -205.0 -209.0H667.0C681.0 -209.0 691.0 -204.0 693.0 -194.0C662.0 -164.0 612.0 -126.0 612.0 -126.0L568.0 -180.0ZM205.0 -180.0C199.0 -229.0 187.0 -308.0 178.0 -348.0H203.0C227.0 -307.0 258.0 -234.0 279.0 -180.0ZM432.0 5.0C404.0 -59.0 355.0 -145.0 313.0 -201.0H336.0C387.0 -155.0 444.0 -90.0 478.0 -39.0C499.0 -40.0 511.0 -32.0 516.0 -21.0ZM-47.0 -328.0V-899.0H-39.0C-20.0 -899.0 -4.0 -888.0 -4.0 -882.0V-357.0H496.0V-328.0H2.0L-47.0 -302.0ZM483.0 -328.0V-895.0H489.0C504.0 -895.0 526.0 -882.0 527.0 -876.0V-367.0C547.0 -363.0 564.0 -355.0 570.0 -347.0L503.0 -294.0L473.0 -328.0ZM-22.0 -802.0V-832.0H503.0V-802.0ZM-22.0 -642.0V-671.0H503.0V-642.0ZM-22.0 -484.0V-514.0H503.0V-484.0Z"/></g>
<g fill="red" transform="translate(200 200) scale(0.1 -0.1)"><path d="M0.0 0.0 -7.0 -5.0C23.0 -50.0 54.0 -114.0 63.0 -175.0C188.0 -268.0 313.0 -31.0 0.0 0.0ZM-213.0 -197.0 -205.0 -225.0H705.0C719.0 -225.0 731.0 -220.0 734.0 -209.0C679.0 -164.0 589.0 -99.0 589.0 -99.0L509.0 -197.0ZM158.0 -197.0C158.0 -246.0 158.0 -319.0 157.0 -360.0H171.0C235.0 -323.0 316.0 -255.0 372.0 -197.0ZM363.0 2.0C352.0 -60.0 329.0 -152.0 307.0 -213.0H320.0C389.0 -170.0 469.0 -107.0 516.0 -63.0C540.0 -63.0 551.0 -54.0 554.0 -42.0ZM-57.0 -344.0V-944.0H-34.0C30.0 -944.0 93.0 -909.0 93.0 -893.0V-372.0H503.0V-344.0H102.0L-57.0 -283.0ZM427.0 -344.0V-937.0H452.0C504.0 -937.0 577.0 -908.0 578.0 -899.0V-395.0C599.0 -391.0 611.0 -382.0 618.0 -374.0L484.0 -270.0L417.0 -344.0ZM17.0 -838.0V-866.0H507.0V-838.0ZM17.0 -668.0V-696.0H507.0V-668.0ZM17.0 -504.0V-532.0H507.0V-504.0Z"/></g>
<g fill="black" opacity=".8" transform="translate(200 200) scale(0.1 -0.1)"><path d="M0.0 0.0 -7.0 -5.0C23.0 -50.0 54.0 -114.0 63.0 -175.0C188.0 -268.0 313.0 -31.0 0.0 0.0ZM-213.0 -197.0 -205.0 -225.0H705.0C719.0 -225.0 731.0 -220.0 734.0 -209.0C679.0 -164.0 589.0 -99.0 589.0 -99.0L509.0 -197.0ZM158.0 -197.0C158.0 -246.0 158.0 -319.0 157.0 -360.0H171.0C235.0 -323.0 316.0 -255.0 372.0 -197.0ZM363.0 2.0C352.0 -60.0 329.0 -152.0 307.0 -213.0H320.0C389.0 -170.0 469.0 -107.0 516.0 -63.0C540.0 -63.0 551.0 -54.0 554.0 -42.0ZM-57.0 -344.0V-944.0H-34.0C30.0 -944.0 93.0 -909.0 93.0 -893.0V-372.0H503.0V-344.0H102.0L-57.0 -283.0ZM427.0 -344.0V-937.0H452.0C504.0 -937.0 577.0 -908.0 578.0 -899.0V-395.0C599.0 -391.0 611.0 -382.0 618.0 -374.0L484.0 -270.0L417.0 -344.0ZM17.0 -838.0V-866.0H507.0V-838.0ZM17.0 -668.0V-696.0H507.0V-668.0ZM17.0 -504.0V-532.0H507.0V-504.0Z"/></g>
</svg>
