<?xml version="1.0" encoding="UTF-8"?>
<svg width="1700" height="300" xmlns="http://www.w3.org/2000/svg">
<rect width="100%" height="100%" fill="white"/>
<g fill="green" transform="translate(100 100) scale(0.1 -0.1)"><path d="M0.0 -0.0V-896.0H8.0C25.0 -896.0 44.0 -884.0 44.0 -876.0V-35.0C66.0 -32.0 73.0 -23.0 75.0 -9.0ZM73.0 -47.0 81.0 -76.0H362.0C375.0 -76.0 384.0 -71.0 387.0 -60.0C363.0 -37.0 326.0 -7.0 326.0 -7.0L294.0 -47.0ZM66.0 -278.0 73.0 -308.0H371.0C385.0 -308.0 394.0 -303.0 396.0 -292.0C373.0 -268.0 336.0 -239.0 336.0 -239.0L305.0 -278.0ZM82.0 -160.0 90.0 -189.0H363.0C376.0 -189.0 385.0 -185.0 388.0 -174.0C366.0 -151.0 333.0 -124.0 333.0 -124.0L304.0 -160.0ZM201.0 -47.0V-298.0H245.0V-47.0ZM410.0 -47.0 418.0 -76.0H715.0C729.0 -76.0 737.0 -71.0 739.0 -60.0C716.0 -37.0 677.0 -6.0 677.0 -6.0L645.0 -47.0ZM404.0 -278.0 412.0 -308.0H724.0C737.0 -308.0 746.0 -303.0 748.0 -292.0C725.0 -267.0 686.0 -237.0 686.0 -237.0L653.0 -278.0ZM421.0 -160.0 429.0 -189.0H708.0C721.0 -189.0 729.0 -185.0 732.0 -174.0C710.0 -151.0 676.0 -123.0 676.0 -123.0L647.0 -160.0ZM542.0 -47.0V-298.0H587.0V-47.0ZM757.0 0.0V-812.0C757.0 -826.0 753.0 -830.0 738.0 -830.0C724.0 -830.0 651.0 -824.0 651.0 -824.0V-841.0C682.0 -845.0 702.0 -850.0 714.0 -859.0C724.0 -867.0 729.0 -882.0 730.0 -896.0C794.0 -888.0 801.0 -861.0 801.0 -817.0V-37.0C825.0 -34.0 835.0 -24.0 838.0 -10.0Z"/></g>
<g fill="green" transform="translate(200 100) scale(0.1 -0.1)"><path d="M0.0 0.0V-927.0H26.0C76.0 -927.0 136.0 -894.0 136.0 -881.0V-42.0C160.0 -38.0 167.0 -29.0 169.0 -16.0ZM139.0 -63.0 147.0 -91.0H397.0C410.0 -91.0 419.0 -86.0 422.0 -75.0C393.0 -48.0 346.0 -13.0 346.0 -13.0L306.0 -63.0ZM133.0 -293.0 141.0 -321.0H408.0C422.0 -321.0 431.0 -316.0 433.0 -305.0C406.0 -279.0 361.0 -246.0 361.0 -246.0L323.0 -293.0ZM146.0 -175.0 154.0 -203.0H391.0C404.0 -203.0 413.0 -198.0 415.0 -187.0C391.0 -163.0 351.0 -133.0 351.0 -133.0L316.0 -175.0ZM206.0 -63.0V-304.0H317.0V-63.0ZM423.0 -63.0 431.0 -91.0H694.0C708.0 -91.0 717.0 -86.0 720.0 -75.0C689.0 -47.0 639.0 -10.0 639.0 -10.0L595.0 -63.0ZM423.0 -293.0 431.0 -321.0H705.0C718.0 -321.0 728.0 -316.0 730.0 -305.0C701.0 -278.0 654.0 -243.0 654.0 -243.0L613.0 -293.0ZM430.0 -175.0 438.0 -203.0H690.0C704.0 -203.0 713.0 -198.0 715.0 -187.0C689.0 -162.0 647.0 -131.0 647.0 -131.0L612.0 -175.0ZM494.0 -63.0V-304.0H607.0V-63.0ZM710.0 -1.0V-760.0C710.0 -769.0 706.0 -773.0 693.0 -773.0C677.0 -773.0 613.0 -769.0 613.0 -769.0V-783.0C651.0 -791.0 665.0 -805.0 677.0 -827.0C687.0 -849.0 691.0 -881.0 692.0 -927.0C830.0 -915.0 848.0 -864.0 848.0 -769.0V-45.0C873.0 -42.0 883.0 -32.0 885.0 -17.0Z"/></g>
<g fill="green" transform="translate(300 100) scale(0.1 -0.1)"><path d="M0.0 0.0V-885.0H8.0C25.0 -885.0 43.0 -873.0 43.0 -865.0V-35.0C65.0 -32.0 72.0 -23.0 74.0 -9.0ZM72.0 -46.0 80.0 -75.0H358.0C370.0 -75.0 379.0 -70.0 382.0 -59.0C359.0 -37.0 322.0 -7.0 322.0 -7.0L290.0 -46.0ZM65.0 -274.0 72.0 -304.0H367.0C380.0 -304.0 389.0 -299.0 391.0 -288.0C368.0 -265.0 332.0 -236.0 332.0 -236.0L301.0 -274.0ZM81.0 -158.0 89.0 -187.0H359.0C372.0 -187.0 380.0 -183.0 383.0 -172.0C362.0 -149.0 329.0 -122.0 329.0 -122.0L300.0 -158.0ZM199.0 -46.0V-294.0H242.0V-46.0ZM405.0 -46.0 413.0 -75.0H706.0C720.0 -75.0 728.0 -70.0 730.0 -59.0C707.0 -37.0 669.0 -6.0 669.0 -6.0L637.0 -46.0ZM399.0 -274.0 407.0 -304.0H715.0C728.0 -304.0 737.0 -299.0 739.0 -288.0C716.0 -264.0 678.0 -234.0 678.0 -234.0L645.0 -274.0ZM416.0 -158.0 424.0 -187.0H699.0C712.0 -187.0 720.0 -183.0 723.0 -172.0C701.0 -149.0 668.0 -121.0 668.0 -121.0L639.0 -158.0ZM535.0 -46.0V-294.0H580.0V-46.0ZM748.0 0.0V-802.0C748.0 -816.0 744.0 -820.0 729.0 -820.0C715.0 -820.0 643.0 -814.0 643.0 -814.0V-831.0C674.0 -835.0 694.0 -840.0 705.0 -848.0C715.0 -856.0 720.0 -871.0 721.0 -885.0C784.0 -877.0 791.0 -850.0 791.0 -807.0V-37.0C815.0 -34.0 825.0 -24.0 828.0 -10.0Z"/></g>
<g fill="green" transform="translate(400 100) scale(0.1 -0.1)"><path d="M0.0 0.0V-916.0H26.0C75.0 -916.0 134.0 -883.0 134.0 -870.0V-41.0C158.0 -38.0 165.0 -29.0 167.0 -16.0ZM137.0 -62.0 145.0 -90.0H392.0C405.0 -90.0 414.0 -85.0 417.0 -74.0C388.0 -47.0 342.0 -13.0 342.0 -13.0L302.0 -62.0ZM131.0 -289.0 139.0 -317.0H403.0C417.0 -317.0 426.0 -312.0 428.0 -301.0C401.0 -275.0 357.0 -243.0 357.0 -243.0L319.0 -289.0ZM144.0 -173.0 152.0 -200.0H386.0C399.0 -200.0 408.0 -196.0 410.0 -185.0C386.0 -161.0 347.0 -131.0 347.0 -131.0L312.0 -173.0ZM203.0 -62.0V-300.0H313.0V-62.0ZM418.0 -62.0 426.0 -90.0H685.0C699.0 -90.0 708.0 -85.0 711.0 -74.0C681.0 -46.0 631.0 -10.0 631.0 -10.0L588.0 -62.0ZM418.0 -289.0 426.0 -317.0H696.0C709.0 -317.0 719.0 -312.0 721.0 -301.0C692.0 -274.0 646.0 -240.0 646.0 -240.0L605.0 -289.0ZM425.0 -173.0 433.0 -200.0H682.0C695.0 -200.0 704.0 -196.0 706.0 -185.0C681.0 -160.0 639.0 -129.0 639.0 -129.0L605.0 -173.0ZM488.0 -62.0V-300.0H600.0V-62.0ZM701.0 -1.0V-751.0C701.0 -760.0 697.0 -763.0 685.0 -763.0C669.0 -763.0 606.0 -760.0 606.0 -760.0V-773.0C643.0 -781.0 657.0 -795.0 669.0 -817.0C679.0 -839.0 683.0 -870.0 684.0 -916.0C820.0 -904.0 838.0 -853.0 838.0 -760.0V-44.0C862.0 -41.0 872.0 -32.0 874.0 -17.0Z"/></g>
<g fill="green" transform="translate(500 100) scale(0.1 -0.1)"><path d="M0.0 0.0V-906.0H8.0C25.0 -906.0 44.0 -894.0 44.0 -886.0V-35.0C67.0 -32.0 74.0 -23.0 76.0 -9.0ZM78.0 -60.0 86.0 -89.0H340.0C354.0 -89.0 363.0 -84.0 366.0 -72.0C342.0 -49.0 304.0 -19.0 304.0 -19.0L272.0 -60.0ZM70.0 -309.0 78.0 -338.0H350.0C364.0 -338.0 373.0 -333.0 375.0 -323.0C352.0 -299.0 315.0 -269.0 315.0 -269.0L283.0 -309.0ZM90.0 -178.0 98.0 -207.0H326.0C338.0 -207.0 347.0 -203.0 350.0 -193.0C329.0 -169.0 294.0 -142.0 294.0 -142.0L266.0 -178.0ZM189.0 -60.0V-325.0H234.0V-60.0ZM418.0 -60.0 426.0 -89.0H702.0C715.0 -89.0 724.0 -84.0 727.0 -72.0C702.0 -49.0 664.0 -18.0 664.0 -18.0L631.0 -60.0ZM412.0 -309.0 420.0 -338.0H711.0C724.0 -338.0 733.0 -333.0 735.0 -323.0C711.0 -298.0 671.0 -267.0 671.0 -267.0L639.0 -309.0ZM432.0 -178.0 440.0 -207.0H692.0C706.0 -207.0 715.0 -203.0 717.0 -193.0C694.0 -169.0 661.0 -141.0 661.0 -141.0L630.0 -178.0ZM544.0 -60.0V-325.0H589.0V-60.0ZM759.0 0.0V-813.0C759.0 -832.0 752.0 -839.0 729.0 -839.0C703.0 -839.0 569.0 -828.0 569.0 -828.0V-845.0C623.0 -852.0 658.0 -859.0 676.0 -868.0C692.0 -876.0 699.0 -891.0 703.0 -906.0C795.0 -896.0 803.0 -863.0 803.0 -819.0V-37.0C828.0 -34.0 838.0 -24.0 841.0 -10.0Z"/></g>
<g fill="green" transform="translate(600 100) scale(0.1 -0.1)"><path d="M0.0 0.0V-937.0H28.0C81.0 -937.0 144.0 -903.0 144.0 -889.0V-42.0C169.0 -39.0 175.0 -29.0 177.0 -17.0ZM146.0 -71.0 154.0 -99.0H414.0C428.0 -99.0 437.0 -94.0 440.0 -83.0C408.0 -49.0 353.0 -1.0 353.0 -1.0L304.0 -71.0ZM140.0 -330.0 148.0 -359.0H426.0C439.0 -359.0 449.0 -353.0 453.0 -342.0C421.0 -310.0 368.0 -264.0 368.0 -264.0L322.0 -330.0ZM151.0 -194.0 159.0 -222.0H411.0C424.0 -222.0 433.0 -217.0 436.0 -206.0C409.0 -176.0 361.0 -134.0 361.0 -134.0L318.0 -194.0ZM209.0 -71.0V-339.0H322.0V-71.0ZM430.0 -71.0 438.0 -99.0H698.0C713.0 -99.0 722.0 -94.0 725.0 -83.0C692.0 -49.0 637.0 -1.0 637.0 -1.0L589.0 -71.0ZM424.0 -330.0 432.0 -359.0H711.0C724.0 -359.0 734.0 -353.0 737.0 -342.0C705.0 -310.0 653.0 -264.0 653.0 -264.0L607.0 -330.0ZM437.0 -194.0 445.0 -222.0H699.0C712.0 -222.0 721.0 -217.0 724.0 -206.0C695.0 -176.0 648.0 -134.0 648.0 -134.0L606.0 -194.0ZM491.0 -71.0V-339.0H605.0V-71.0ZM708.0 -1.0V-759.0C708.0 -771.0 702.0 -777.0 687.0 -777.0C659.0 -777.0 531.0 -769.0 531.0 -769.0V-783.0C592.0 -793.0 616.0 -810.0 637.0 -833.0C657.0 -857.0 664.0 -889.0 667.0 -938.0C832.0 -923.0 855.0 -870.0 855.0 -770.0V-46.0C880.0 -42.0 890.0 -33.0 892.0 -18.0Z"/></g>
<g fill="red" transform="translate(100 200) scale(0.1 -0.1)"><path d="M0.0 0.0V-895.0H8.0C25.0 -895.0 44.0 -883.0 44.0 -875.0V-35.0C66.0 -32.0 73.0 -23.0 75.0 -9.0ZM77.0 -59.0 85.0 -88.0H336.0C349.0 -88.0 358.0 -83.0 361.0 -72.0C337.0 -49.0 300.0 -19.0 300.0 -19.0L268.0 -59.0ZM69.0 -305.0 77.0 -334.0H345.0C359.0 -334.0 368.0 -329.0 370.0 -319.0C347.0 -295.0 311.0 -265.0 311.0 -265.0L279.0 -305.0ZM89.0 -176.0 97.0 -205.0H321.0C333.0 -205.0 342.0 -200.0 345.0 -190.0C324.0 -167.0 290.0 -140.0 290.0 -140.0L262.0 -176.0ZM187.0 -59.0V-320.0H231.0V-59.0ZM413.0 -59.0 421.0 -88.0H693.0C706.0 -88.0 715.0 -83.0 718.0 -72.0C693.0 -49.0 656.0 -18.0 656.0 -18.0L623.0 -59.0ZM407.0 -305.0 415.0 -334.0H702.0C715.0 -334.0 724.0 -329.0 726.0 -319.0C702.0 -294.0 663.0 -263.0 663.0 -263.0L631.0 -305.0ZM427.0 -176.0 435.0 -205.0H684.0C697.0 -205.0 706.0 -200.0 708.0 -190.0C686.0 -167.0 653.0 -139.0 653.0 -139.0L622.0 -176.0ZM537.0 -59.0V-320.0H582.0V-59.0ZM750.0 0.0V-803.0C750.0 -822.0 743.0 -829.0 720.0 -829.0C694.0 -829.0 561.0 -818.0 561.0 -818.0V-835.0C615.0 -841.0 649.0 -849.0 667.0 -858.0C683.0 -866.0 690.0 -880.0 694.0 -895.0C786.0 -885.0 794.0 -852.0 794.0 -809.0V-37.0C818.0 -34.0 828.0 -24.0 831.0 -10.0Z"/></g>
<g fill="black" opacity=".8" transform="translate(100 200) scale(0.1 -0.1)"><path d="M0.0 0.0V-895.0H8.0C25.0 -895.0 43.0 -883.0 43.0 -875.0V-35.0C66.0 -32.0 73.0 -23.0 75.0 -9.0ZM77.0 -59.0 85.0 -88.0H336.0C349.0 -88.0 358.0 -83.0 361.0 -71.0C338.0 -49.0 300.0 -19.0 300.0 -19.0L268.0 -59.0ZM69.0 -305.0 77.0 -334.0H346.0C359.0 -334.0 368.0 -329.0 370.0 -319.0C347.0 -296.0 311.0 -266.0 311.0 -266.0L279.0 -305.0ZM89.0 -176.0 97.0 -205.0H322.0C334.0 -205.0 342.0 -201.0 345.0 -191.0C325.0 -167.0 290.0 -140.0 290.0 -140.0L262.0 -176.0ZM187.0 -59.0V-321.0H231.0V-59.0ZM413.0 -59.0 421.0 -88.0H693.0C706.0 -88.0 715.0 -83.0 718.0 -71.0C693.0 -49.0 656.0 -18.0 656.0 -18.0L623.0 -59.0ZM407.0 -305.0 415.0 -334.0H702.0C715.0 -334.0 724.0 -329.0 726.0 -319.0C702.0 -295.0 663.0 -264.0 663.0 -264.0L631.0 -305.0ZM427.0 -176.0 435.0 -205.0H683.0C697.0 -205.0 706.0 -201.0 708.0 -191.0C685.0 -167.0 653.0 -139.0 653.0 -139.0L622.0 -176.0ZM537.0 -59.0V-321.0H582.0V-59.0ZM750.0 0.0V-803.0C750.0 -822.0 743.0 -829.0 720.0 -829.0C694.0 -829.0 561.0 -818.0 561.0 -818.0V-835.0C615.0 -842.0 650.0 -849.0 667.0 -857.0C683.0 -865.0 690.0 -880.0 694.0 -895.0C785.0 -885.0 793.0 -852.0 793.0 -809.0V-37.0C818.0 -34.0 828.0 -24.0 831.0 -10.0Z"/></g>
<g fill="red" transform="translate(200 200) scale(0.1 -0.1)"><path d="M0.0 0.0V-926.0H28.0C80.0 -926.0 142.0 -892.0 142.0 -878.0V-42.0C167.0 -39.0 173.0 -29.0 175.0 -17.0ZM144.0 -70.0 152.0 -98.0H409.0C423.0 -98.0 432.0 -93.0 435.0 -82.0C403.0 -49.0 349.0 -1.0 349.0 -1.0L300.0 -70.0ZM138.0 -326.0 146.0 -354.0H421.0C434.0 -354.0 444.0 -349.0 447.0 -338.0C416.0 -306.0 364.0 -260.0 364.0 -260.0L318.0 -326.0ZM149.0 -191.0 157.0 -219.0H407.0C420.0 -219.0 429.0 -214.0 432.0 -203.0C404.0 -174.0 357.0 -132.0 357.0 -132.0L315.0 -191.0ZM207.0 -70.0V-335.0H318.0V-70.0ZM425.0 -70.0 433.0 -98.0H690.0C704.0 -98.0 713.0 -93.0 716.0 -82.0C684.0 -49.0 630.0 -1.0 630.0 -1.0L581.0 -70.0ZM419.0 -326.0 427.0 -354.0H702.0C715.0 -354.0 725.0 -349.0 728.0 -338.0C697.0 -306.0 645.0 -260.0 645.0 -260.0L599.0 -326.0ZM432.0 -191.0 440.0 -219.0H690.0C703.0 -219.0 712.0 -214.0 715.0 -203.0C687.0 -174.0 640.0 -132.0 640.0 -132.0L598.0 -191.0ZM485.0 -70.0V-335.0H598.0V-70.0ZM700.0 -1.0V-750.0C700.0 -762.0 694.0 -768.0 678.0 -768.0C651.0 -768.0 523.0 -760.0 523.0 -760.0V-773.0C584.0 -784.0 608.0 -800.0 628.0 -823.0C648.0 -846.0 655.0 -879.0 659.0 -927.0C822.0 -912.0 845.0 -859.0 845.0 -761.0V-46.0C870.0 -42.0 880.0 -33.0 881.0 -18.0Z"/></g>
<g fill="black" opacity=".8" transform="translate(200 200) scale(0.1 -0.1)"><path d="M0.0 0.0V-926.0H28.0C80.0 -926.0 142.0 -892.0 142.0 -878.0V-41.0C167.0 -39.0 173.0 -29.0 175.0 -17.0ZM144.0 -70.0 152.0 -98.0H409.0C423.0 -98.0 432.0 -93.0 435.0 -82.0C403.0 -48.0 349.0 -1.0 349.0 -1.0L300.0 -70.0ZM138.0 -326.0 146.0 -355.0H421.0C434.0 -355.0 444.0 -349.0 448.0 -338.0C416.0 -306.0 364.0 -261.0 364.0 -261.0L318.0 -326.0ZM149.0 -192.0 157.0 -219.0H406.0C419.0 -219.0 428.0 -215.0 431.0 -204.0C404.0 -174.0 357.0 -132.0 357.0 -132.0L314.0 -192.0ZM206.0 -70.0V-335.0H318.0V-70.0ZM425.0 -70.0 433.0 -98.0H689.0C704.0 -98.0 713.0 -93.0 716.0 -82.0C684.0 -48.0 629.0 -1.0 629.0 -1.0L582.0 -70.0ZM419.0 -326.0 427.0 -355.0H702.0C715.0 -355.0 725.0 -349.0 728.0 -338.0C696.0 -306.0 645.0 -261.0 645.0 -261.0L599.0 -326.0ZM432.0 -192.0 440.0 -219.0H691.0C703.0 -219.0 712.0 -215.0 715.0 -204.0C687.0 -174.0 640.0 -132.0 640.0 -132.0L599.0 -192.0ZM485.0 -70.0V-335.0H598.0V-70.0ZM699.0 -1.0V-750.0C699.0 -762.0 693.0 -767.0 679.0 -767.0C651.0 -767.0 524.0 -760.0 524.0 -760.0V-773.0C584.0 -783.0 608.0 -800.0 629.0 -823.0C649.0 -847.0 656.0 -878.0 659.0 -927.0C822.0 -912.0 845.0 -859.0 845.0 -761.0V-45.0C869.0 -41.0 879.0 -33.0 881.0 -18.0Z"/></g>
<g fill="red" transform="translate(300 200) scale(0.1 -0.1)"><path d="M0.0 0.0V-895.0H8.0C25.0 -895.0 44.0 -883.0 44.0 -875.0V-35.0C66.0 -32.0 73.0 -23.0 75.0 -9.0ZM73.0 -48.0 81.0 -77.0H360.0C373.0 -77.0 382.0 -72.0 385.0 -61.0C361.0 -38.0 324.0 -8.0 324.0 -8.0L292.0 -48.0ZM66.0 -283.0 73.0 -313.0H369.0C383.0 -313.0 392.0 -308.0 394.0 -297.0C371.0 -273.0 334.0 -244.0 334.0 -244.0L303.0 -283.0ZM82.0 -163.0 90.0 -192.0H360.0C373.0 -192.0 382.0 -188.0 385.0 -177.0C363.0 -154.0 330.0 -127.0 330.0 -127.0L301.0 -163.0ZM200.0 -48.0V-304.0H244.0V-48.0ZM410.0 -48.0 418.0 -77.0H713.0C727.0 -77.0 735.0 -72.0 737.0 -61.0C714.0 -38.0 675.0 -7.0 675.0 -7.0L643.0 -48.0ZM404.0 -283.0 412.0 -313.0H722.0C735.0 -313.0 744.0 -308.0 746.0 -297.0C723.0 -272.0 684.0 -242.0 684.0 -242.0L651.0 -283.0ZM421.0 -163.0 429.0 -192.0H706.0C719.0 -192.0 727.0 -188.0 730.0 -177.0C708.0 -154.0 674.0 -126.0 674.0 -126.0L645.0 -163.0ZM541.0 -48.0V-304.0H586.0V-48.0ZM756.0 0.0V-809.0C756.0 -824.0 751.0 -829.0 734.0 -829.0C718.0 -829.0 632.0 -822.0 632.0 -822.0V-839.0C668.0 -843.0 691.0 -849.0 704.0 -858.0C716.0 -866.0 721.0 -881.0 723.0 -895.0C793.0 -886.0 800.0 -858.0 800.0 -814.0V-37.0C824.0 -34.0 834.0 -24.0 837.0 -10.0Z"/></g>
<g fill="black" opacity=".8" transform="translate(300 200) scale(0.1 -0.1)"><path d="M0.0 0.0V-895.0H8.0C25.0 -895.0 44.0 -883.0 44.0 -875.0V-35.0C66.0 -32.0 73.0 -23.0 75.0 -9.0ZM74.0 -49.0 82.0 -78.0H358.0C371.0 -78.0 380.0 -73.0 383.0 -62.0C359.0 -39.0 322.0 -9.0 322.0 -9.0L290.0 -49.0ZM66.0 -282.0 74.0 -311.0H367.0C381.0 -311.0 390.0 -306.0 392.0 -296.0C369.0 -272.0 332.0 -243.0 332.0 -243.0L301.0 -282.0ZM83.0 -162.0 91.0 -191.0H357.0C370.0 -191.0 379.0 -187.0 382.0 -176.0C360.0 -153.0 327.0 -126.0 327.0 -126.0L298.0 -162.0ZM199.0 -49.0V-301.0H243.0V-49.0ZM410.0 -49.0 418.0 -78.0H712.0C725.0 -78.0 734.0 -73.0 736.0 -62.0C712.0 -39.0 674.0 -8.0 674.0 -8.0L642.0 -49.0ZM404.0 -282.0 412.0 -311.0H721.0C734.0 -311.0 743.0 -306.0 745.0 -296.0C721.0 -271.0 682.0 -241.0 682.0 -241.0L650.0 -282.0ZM422.0 -162.0 430.0 -191.0H704.0C717.0 -191.0 725.0 -187.0 728.0 -176.0C706.0 -153.0 672.0 -125.0 672.0 -125.0L643.0 -162.0ZM541.0 -49.0V-301.0H586.0V-49.0ZM756.0 0.0V-810.0C756.0 -825.0 751.0 -829.0 735.0 -829.0C719.0 -829.0 638.0 -823.0 638.0 -823.0V-840.0C672.0 -844.0 694.0 -849.0 707.0 -858.0C718.0 -866.0 723.0 -881.0 725.0 -895.0C792.0 -887.0 799.0 -859.0 799.0 -815.0V-37.0C824.0 -34.0 834.0 -24.0 837.0 -10.0Z"/></g>
<g fill="red" transform="translate(400 200) scale(0.1 -0.1)"><path d="M0.0 0.0V-926.0H27.0C77.0 -926.0 137.0 -893.0 137.0 -879.0V-42.0C162.0 -38.0 168.0 -29.0 170.0 -16.0ZM139.0 -64.0 147.0 -92.0H397.0C410.0 -92.0 419.0 -87.0 422.0 -76.0C393.0 -49.0 346.0 -13.0 346.0 -13.0L305.0 -64.0ZM133.0 -297.0 141.0 -325.0H408.0C422.0 -325.0 431.0 -320.0 433.0 -309.0C406.0 -283.0 361.0 -249.0 361.0 -249.0L322.0 -297.0ZM146.0 -177.0 154.0 -205.0H392.0C405.0 -205.0 414.0 -200.0 416.0 -189.0C391.0 -165.0 351.0 -134.0 351.0 -134.0L316.0 -177.0ZM206.0 -64.0V-306.0H317.0V-64.0ZM423.0 -64.0 431.0 -92.0H693.0C707.0 -92.0 716.0 -87.0 719.0 -76.0C688.0 -48.0 638.0 -10.0 638.0 -10.0L593.0 -64.0ZM422.0 -297.0 430.0 -325.0H704.0C717.0 -325.0 727.0 -320.0 729.0 -309.0C700.0 -282.0 653.0 -246.0 653.0 -246.0L611.0 -297.0ZM430.0 -177.0 438.0 -205.0H689.0C703.0 -205.0 712.0 -200.0 714.0 -189.0C688.0 -164.0 646.0 -132.0 646.0 -132.0L610.0 -177.0ZM493.0 -64.0V-306.0H606.0V-64.0ZM707.0 -1.0V-758.0C707.0 -768.0 703.0 -772.0 689.0 -772.0C672.0 -772.0 602.0 -768.0 602.0 -768.0V-781.0C642.0 -790.0 658.0 -804.0 670.0 -826.0C681.0 -848.0 685.0 -881.0 687.0 -927.0C828.0 -915.0 847.0 -863.0 847.0 -768.0V-46.0C872.0 -42.0 882.0 -32.0 883.0 -17.0Z"/></g>
<g fill="black" opacity=".8" transform="translate(400 200) scale(0.1 -0.1)"><path d="M0.0 0.0V-926.0H26.0C77.0 -926.0 137.0 -893.0 137.0 -880.0V-42.0C161.0 -38.0 168.0 -29.0 170.0 -16.0ZM140.0 -64.0 148.0 -92.0H398.0C412.0 -92.0 421.0 -87.0 424.0 -76.0C394.0 -48.0 346.0 -11.0 346.0 -11.0L305.0 -64.0ZM134.0 -297.0 142.0 -326.0H410.0C423.0 -326.0 433.0 -320.0 435.0 -309.0C407.0 -283.0 361.0 -248.0 361.0 -248.0L322.0 -297.0ZM146.0 -177.0 154.0 -205.0H393.0C406.0 -205.0 415.0 -200.0 417.0 -189.0C393.0 -164.0 352.0 -133.0 352.0 -133.0L316.0 -177.0ZM206.0 -64.0V-308.0H317.0V-64.0ZM423.0 -64.0 431.0 -92.0H693.0C707.0 -92.0 716.0 -87.0 719.0 -76.0C688.0 -47.0 637.0 -9.0 637.0 -9.0L593.0 -64.0ZM422.0 -297.0 430.0 -326.0H704.0C717.0 -326.0 727.0 -320.0 729.0 -309.0C700.0 -282.0 652.0 -245.0 652.0 -245.0L611.0 -297.0ZM430.0 -177.0 438.0 -205.0H690.0C704.0 -205.0 713.0 -200.0 715.0 -189.0C688.0 -164.0 646.0 -131.0 646.0 -131.0L610.0 -177.0ZM493.0 -64.0V-308.0H605.0V-64.0ZM708.0 -1.0V-758.0C708.0 -768.0 704.0 -772.0 691.0 -772.0C673.0 -772.0 600.0 -767.0 600.0 -767.0V-781.0C641.0 -789.0 657.0 -804.0 670.0 -826.0C681.0 -848.0 686.0 -880.0 687.0 -927.0C828.0 -914.0 847.0 -863.0 847.0 -768.0V-45.0C872.0 -42.0 882.0 -32.0 884.0 -17.0Z"/></g>
<g fill="red" transform="translate(500 200) scale(0.1 -0.1)"><path d="M0.0 0.0V-895.0H8.0C25.0 -895.0 44.0 -883.0 44.0 -875.0V-35.0C66.0 -32.0 73.0 -23.0 75.0 -9.0ZM73.0 -48.0 81.0 -77.0H360.0C373.0 -77.0 382.0 -72.0 385.0 -61.0C361.0 -38.0 324.0 -8.0 324.0 -8.0L292.0 -48.0ZM66.0 -283.0 73.0 -313.0H369.0C383.0 -313.0 392.0 -308.0 394.0 -297.0C371.0 -273.0 334.0 -244.0 334.0 -244.0L303.0 -283.0ZM82.0 -163.0 90.0 -192.0H360.0C373.0 -192.0 382.0 -188.0 385.0 -177.0C363.0 -154.0 330.0 -127.0 330.0 -127.0L301.0 -163.0ZM200.0 -48.0V-304.0H244.0V-48.0ZM410.0 -48.0 418.0 -77.0H713.0C727.0 -77.0 735.0 -72.0 737.0 -61.0C714.0 -38.0 675.0 -7.0 675.0 -7.0L643.0 -48.0ZM404.0 -283.0 412.0 -313.0H722.0C735.0 -313.0 744.0 -308.0 746.0 -297.0C723.0 -272.0 684.0 -242.0 684.0 -242.0L651.0 -283.0ZM421.0 -163.0 429.0 -192.0H706.0C719.0 -192.0 727.0 -188.0 730.0 -177.0C708.0 -154.0 674.0 -126.0 674.0 -126.0L645.0 -163.0ZM541.0 -48.0V-304.0H586.0V-48.0ZM756.0 0.0V-810.0C756.0 -825.0 752.0 -829.0 737.0 -829.0C722.0 -829.0 649.0 -823.0 649.0 -823.0V-840.0C680.0 -844.0 700.0 -849.0 712.0 -858.0C722.0 -866.0 727.0 -881.0 727.0 -895.0C793.0 -887.0 800.0 -859.0 800.0 -816.0V-37.0C824.0 -34.0 834.0 -24.0 837.0 -10.0Z"/></g>
<g fill="black" opacity=".8" transform="translate(500 200) scale(0.1 -0.1)"><path d="M0.0 0.0V-896.0H8.0C25.0 -896.0 44.0 -884.0 44.0 -876.0V-35.0C66.0 -32.0 73.0 -23.0 75.0 -9.0ZM73.0 -48.0 81.0 -77.0H359.0C372.0 -77.0 381.0 -72.0 384.0 -61.0C360.0 -38.0 323.0 -8.0 323.0 -8.0L291.0 -48.0ZM66.0 -281.0 73.0 -311.0H368.0C382.0 -311.0 391.0 -306.0 393.0 -295.0C370.0 -271.0 333.0 -242.0 333.0 -242.0L302.0 -281.0ZM83.0 -162.0 91.0 -191.0H359.0C372.0 -191.0 381.0 -187.0 384.0 -176.0C362.0 -153.0 329.0 -126.0 329.0 -126.0L300.0 -162.0ZM200.0 -48.0V-300.0H244.0V-48.0ZM410.0 -48.0 418.0 -77.0H713.0C727.0 -77.0 735.0 -72.0 737.0 -61.0C714.0 -38.0 675.0 -7.0 675.0 -7.0L643.0 -48.0ZM404.0 -281.0 412.0 -311.0H722.0C735.0 -311.0 744.0 -306.0 746.0 -295.0C723.0 -270.0 684.0 -240.0 684.0 -240.0L651.0 -281.0ZM422.0 -162.0 430.0 -191.0H705.0C718.0 -191.0 727.0 -187.0 729.0 -176.0C707.0 -153.0 674.0 -125.0 674.0 -125.0L644.0 -162.0ZM541.0 -48.0V-300.0H586.0V-48.0ZM756.0 0.0V-811.0C756.0 -825.0 752.0 -830.0 736.0 -830.0C721.0 -830.0 642.0 -823.0 642.0 -823.0V-840.0C675.0 -845.0 697.0 -850.0 709.0 -859.0C720.0 -867.0 725.0 -882.0 726.0 -896.0C793.0 -888.0 800.0 -860.0 800.0 -816.0V-37.0C824.0 -34.0 834.0 -24.0 837.0 -10.0Z"/></g>
<g fill="red" transform="translate(600 200) scale(0.1 -0.1)"><path d="M0.0 0.0V-926.0H27.0C77.0 -926.0 137.0 -893.0 137.0 -879.0V-42.0C162.0 -38.0 168.0 -29.0 170.0 -16.0ZM139.0 -64.0 147.0 -92.0H397.0C410.0 -92.0 419.0 -87.0 422.0 -76.0C393.0 -49.0 346.0 -13.0 346.0 -13.0L305.0 -64.0ZM133.0 -297.0 141.0 -325.0H408.0C422.0 -325.0 431.0 -320.0 433.0 -309.0C406.0 -283.0 361.0 -249.0 361.0 -249.0L322.0 -297.0ZM146.0 -177.0 154.0 -205.0H392.0C405.0 -205.0 414.0 -200.0 416.0 -189.0C391.0 -165.0 351.0 -134.0 351.0 -134.0L316.0 -177.0ZM206.0 -64.0V-306.0H317.0V-64.0ZM423.0 -64.0 431.0 -92.0H693.0C707.0 -92.0 716.0 -87.0 719.0 -76.0C688.0 -48.0 638.0 -10.0 638.0 -10.0L593.0 -64.0ZM422.0 -297.0 430.0 -325.0H704.0C717.0 -325.0 727.0 -320.0 729.0 -309.0C700.0 -282.0 653.0 -246.0 653.0 -246.0L611.0 -297.0ZM430.0 -177.0 438.0 -205.0H689.0C703.0 -205.0 712.0 -200.0 714.0 -189.0C688.0 -164.0 646.0 -132.0 646.0 -132.0L610.0 -177.0ZM493.0 -64.0V-306.0H606.0V-64.0ZM707.0 -1.0V-758.0C707.0 -768.0 703.0 -772.0 689.0 -772.0C672.0 -772.0 602.0 -768.0 602.0 -768.0V-781.0C642.0 -790.0 658.0 -804.0 670.0 -826.0C681.0 -848.0 685.0 -881.0 687.0 -927.0C828.0 -915.0 847.0 -863.0 847.0 -768.0V-46.0C872.0 -42.0 882.0 -32.0 883.0 -17.0Z"/></g>
<g fill="black" opacity=".8" transform="translate(600 200) scale(0.1 -0.1)"><path d="M0.0 0.0V-927.0H26.0C76.0 -927.0 137.0 -894.0 137.0 -881.0V-42.0C161.0 -38.0 168.0 -29.0 170.0 -16.0ZM139.0 -64.0 147.0 -92.0H398.0C411.0 -92.0 420.0 -87.0 423.0 -76.0C394.0 -48.0 346.0 -12.0 346.0 -12.0L305.0 -64.0ZM133.0 -296.0 141.0 -324.0H409.0C423.0 -324.0 432.0 -319.0 434.0 -308.0C407.0 -282.0 361.0 -248.0 361.0 -248.0L322.0 -296.0ZM146.0 -177.0 154.0 -205.0H392.0C405.0 -205.0 414.0 -200.0 417.0 -189.0C392.0 -164.0 352.0 -133.0 352.0 -133.0L316.0 -177.0ZM206.0 -64.0V-307.0H317.0V-64.0ZM423.0 -64.0 431.0 -92.0H693.0C707.0 -92.0 716.0 -87.0 719.0 -76.0C688.0 -47.0 638.0 -9.0 638.0 -9.0L594.0 -64.0ZM423.0 -296.0 431.0 -324.0H705.0C718.0 -324.0 728.0 -319.0 730.0 -308.0C700.0 -281.0 653.0 -245.0 653.0 -245.0L611.0 -296.0ZM430.0 -177.0 438.0 -205.0H690.0C704.0 -205.0 713.0 -200.0 715.0 -189.0C689.0 -163.0 646.0 -131.0 646.0 -131.0L611.0 -177.0ZM493.0 -64.0V-307.0H606.0V-64.0ZM709.0 -1.0V-759.0C709.0 -768.0 705.0 -772.0 691.0 -772.0C674.0 -772.0 604.0 -768.0 604.0 -768.0V-782.0C644.0 -790.0 659.0 -804.0 672.0 -826.0C683.0 -849.0 687.0 -881.0 689.0 -927.0C829.0 -915.0 848.0 -863.0 848.0 -768.0V-45.0C872.0 -42.0 882.0 -32.0 884.0 -17.0Z"/></g>
<g fill="red" transform="translate(700 200) scale(0.1 -0.1)"><path d="M0.0 0.0V-895.0H8.0C25.0 -895.0 44.0 -883.0 44.0 -875.0V-35.0C66.0 -32.0 73.0 -23.0 75.0 -9.0ZM73.0 -48.0 81.0 -77.0H360.0C373.0 -77.0 382.0 -72.0 385.0 -61.0C361.0 -38.0 324.0 -8.0 324.0 -8.0L292.0 -48.0ZM66.0 -283.0 73.0 -313.0H369.0C383.0 -313.0 392.0 -308.0 394.0 -297.0C371.0 -273.0 334.0 -244.0 334.0 -244.0L303.0 -283.0ZM82.0 -163.0 90.0 -192.0H360.0C373.0 -192.0 382.0 -188.0 385.0 -177.0C363.0 -154.0 330.0 -127.0 330.0 -127.0L301.0 -163.0ZM200.0 -48.0V-304.0H244.0V-48.0ZM410.0 -48.0 418.0 -77.0H713.0C727.0 -77.0 735.0 -72.0 737.0 -61.0C714.0 -38.0 675.0 -7.0 675.0 -7.0L643.0 -48.0ZM404.0 -283.0 412.0 -313.0H722.0C735.0 -313.0 744.0 -308.0 746.0 -297.0C723.0 -272.0 684.0 -242.0 684.0 -242.0L651.0 -283.0ZM421.0 -163.0 429.0 -192.0H706.0C719.0 -192.0 727.0 -188.0 730.0 -177.0C708.0 -154.0 674.0 -126.0 674.0 -126.0L645.0 -163.0ZM541.0 -48.0V-304.0H586.0V-48.0ZM756.0 0.0V-812.0C756.0 -825.0 752.0 -829.0 739.0 -829.0C726.0 -829.0 664.0 -824.0 664.0 -824.0V-841.0C692.0 -844.0 709.0 -849.0 719.0 -858.0C728.0 -866.0 732.0 -881.0 733.0 -895.0C793.0 -887.0 800.0 -861.0 800.0 -817.0V-37.0C824.0 -34.0 834.0 -24.0 837.0 -10.0Z"/></g>
<g fill="black" opacity=".8" transform="translate(700 200) scale(0.1 -0.1)"><path d="M0.0 0.0V-896.0H8.0C25.0 -896.0 44.0 -884.0 44.0 -876.0V-35.0C66.0 -32.0 73.0 -23.0 75.0 -9.0ZM73.0 -47.0 81.0 -76.0H361.0C374.0 -76.0 383.0 -71.0 386.0 -60.0C362.0 -37.0 325.0 -7.0 325.0 -7.0L293.0 -47.0ZM66.0 -279.0 73.0 -309.0H370.0C384.0 -309.0 393.0 -304.0 395.0 -293.0C372.0 -269.0 335.0 -240.0 335.0 -240.0L304.0 -279.0ZM82.0 -161.0 90.0 -190.0H362.0C375.0 -190.0 384.0 -186.0 387.0 -175.0C365.0 -152.0 332.0 -125.0 332.0 -125.0L303.0 -161.0ZM201.0 -47.0V-299.0H245.0V-47.0ZM410.0 -47.0 418.0 -76.0H715.0C728.0 -76.0 737.0 -71.0 739.0 -60.0C715.0 -37.0 677.0 -6.0 677.0 -6.0L644.0 -47.0ZM404.0 -279.0 412.0 -309.0H724.0C737.0 -309.0 746.0 -304.0 748.0 -293.0C724.0 -268.0 685.0 -238.0 685.0 -238.0L652.0 -279.0ZM421.0 -161.0 429.0 -190.0H707.0C720.0 -190.0 728.0 -186.0 731.0 -175.0C709.0 -152.0 675.0 -124.0 675.0 -124.0L646.0 -161.0ZM542.0 -47.0V-299.0H587.0V-47.0ZM757.0 0.0V-812.0C757.0 -826.0 753.0 -830.0 738.0 -830.0C723.0 -830.0 648.0 -824.0 648.0 -824.0V-841.0C680.0 -845.0 700.0 -850.0 713.0 -859.0C723.0 -867.0 728.0 -882.0 729.0 -896.0C794.0 -888.0 801.0 -861.0 801.0 -817.0V-37.0C825.0 -34.0 835.0 -24.0 838.0 -10.0Z"/></g>
<g fill="red" transform="translate(800 200) scale(0.1 -0.1)"><path d="M0.0 0.0V-926.0H26.0C76.0 -926.0 135.0 -893.0 135.0 -880.0V-42.0C159.0 -38.0 166.0 -29.0 168.0 -16.0ZM139.0 -64.0 147.0 -92.0H397.0C410.0 -92.0 419.0 -87.0 422.0 -76.0C393.0 -49.0 346.0 -13.0 346.0 -13.0L305.0 -64.0ZM133.0 -297.0 141.0 -325.0H408.0C422.0 -325.0 431.0 -320.0 433.0 -309.0C406.0 -283.0 361.0 -249.0 361.0 -249.0L322.0 -297.0ZM146.0 -177.0 154.0 -205.0H392.0C405.0 -205.0 414.0 -200.0 416.0 -189.0C391.0 -165.0 351.0 -134.0 351.0 -134.0L316.0 -177.0ZM206.0 -64.0V-306.0H317.0V-64.0ZM423.0 -64.0 431.0 -92.0H693.0C707.0 -92.0 716.0 -87.0 719.0 -76.0C688.0 -48.0 638.0 -10.0 638.0 -10.0L593.0 -64.0ZM422.0 -297.0 430.0 -325.0H704.0C717.0 -325.0 727.0 -320.0 729.0 -309.0C700.0 -282.0 653.0 -246.0 653.0 -246.0L611.0 -297.0ZM430.0 -177.0 438.0 -205.0H689.0C703.0 -205.0 712.0 -200.0 714.0 -189.0C688.0 -164.0 646.0 -132.0 646.0 -132.0L610.0 -177.0ZM493.0 -64.0V-306.0H606.0V-64.0ZM710.0 -1.0V-759.0C710.0 -768.0 706.0 -772.0 693.0 -772.0C677.0 -772.0 614.0 -768.0 614.0 -768.0V-781.0C651.0 -790.0 666.0 -804.0 677.0 -825.0C687.0 -847.0 691.0 -880.0 692.0 -925.0C830.0 -913.0 848.0 -863.0 848.0 -768.0V-45.0C873.0 -42.0 883.0 -32.0 884.0 -17.0Z"/></g>
<g fill="black" opacity=".8" transform="translate(800 200) scale(0.1 -0.1)"><path d="M0.0 0.0V-927.0H26.0C76.0 -927.0 136.0 -894.0 136.0 -881.0V-42.0C160.0 -38.0 167.0 -29.0 169.0 -16.0ZM139.0 -63.0 147.0 -91.0H398.0C411.0 -91.0 420.0 -86.0 423.0 -75.0C394.0 -48.0 346.0 -13.0 346.0 -13.0L306.0 -63.0ZM133.0 -294.0 141.0 -322.0H409.0C423.0 -322.0 432.0 -317.0 434.0 -306.0C407.0 -280.0 361.0 -247.0 361.0 -247.0L323.0 -294.0ZM146.0 -176.0 154.0 -204.0H392.0C405.0 -204.0 414.0 -199.0 416.0 -188.0C392.0 -163.0 351.0 -133.0 351.0 -133.0L316.0 -176.0ZM206.0 -63.0V-305.0H317.0V-63.0ZM423.0 -63.0 431.0 -91.0H694.0C708.0 -91.0 717.0 -86.0 720.0 -75.0C689.0 -47.0 639.0 -10.0 639.0 -10.0L595.0 -63.0ZM423.0 -294.0 431.0 -322.0H705.0C718.0 -322.0 728.0 -317.0 730.0 -306.0C701.0 -279.0 654.0 -244.0 654.0 -244.0L613.0 -294.0ZM430.0 -176.0 438.0 -204.0H690.0C704.0 -204.0 713.0 -199.0 715.0 -188.0C689.0 -163.0 647.0 -131.0 647.0 -131.0L612.0 -176.0ZM494.0 -63.0V-305.0H607.0V-63.0ZM710.0 -1.0V-760.0C710.0 -769.0 706.0 -773.0 693.0 -773.0C676.0 -773.0 610.0 -769.0 610.0 -769.0V-783.0C649.0 -791.0 663.0 -805.0 676.0 -827.0C686.0 -849.0 690.0 -881.0 691.0 -927.0C830.0 -915.0 848.0 -864.0 848.0 -769.0V-45.0C873.0 -42.0 883.0 -32.0 885.0 -17.0Z"/></g>
<g fill="red" transform="translate(900 200) scale(0.1 -0.1)"><path d="M0.0 0.0V-895.0H8.0C25.0 -895.0 44.0 -883.0 44.0 -875.0V-35.0C66.0 -32.0 73.0 -23.0 75.0 -9.0ZM73.0 -47.0 81.0 -76.0H360.0C373.0 -76.0 382.0 -71.0 385.0 -61.0C361.0 -37.0 324.0 -7.0 324.0 -7.0L292.0 -47.0ZM66.0 -270.0 73.0 -300.0H369.0C383.0 -300.0 392.0 -295.0 394.0 -284.0C371.0 -260.0 334.0 -231.0 334.0 -231.0L303.0 -270.0ZM82.0 -155.0 90.0 -185.0H360.0C373.0 -185.0 382.0 -180.0 385.0 -169.0C363.0 -146.0 330.0 -120.0 330.0 -120.0L301.0 -155.0ZM200.0 -47.0V-285.0H244.0V-47.0ZM410.0 -47.0 418.0 -76.0H713.0C727.0 -76.0 735.0 -71.0 737.0 -61.0C714.0 -37.0 675.0 -6.0 675.0 -6.0L643.0 -47.0ZM404.0 -270.0 412.0 -300.0H722.0C735.0 -300.0 744.0 -295.0 746.0 -284.0C723.0 -259.0 684.0 -229.0 684.0 -229.0L651.0 -270.0ZM421.0 -155.0 429.0 -185.0H706.0C719.0 -185.0 727.0 -180.0 730.0 -169.0C708.0 -146.0 674.0 -119.0 674.0 -119.0L645.0 -155.0ZM541.0 -47.0V-285.0H586.0V-47.0ZM756.0 0.0V-809.0C756.0 -824.0 751.0 -829.0 734.0 -829.0C718.0 -829.0 632.0 -822.0 632.0 -822.0V-839.0C668.0 -843.0 691.0 -849.0 704.0 -858.0C716.0 -866.0 721.0 -881.0 723.0 -895.0C793.0 -886.0 800.0 -858.0 800.0 -814.0V-37.0C824.0 -34.0 834.0 -24.0 837.0 -10.0Z"/></g>
<g fill="black" opacity=".8" transform="translate(900 200) scale(0.1 -0.1)"><path d="M0.0 0.0V-892.0H8.0C25.0 -892.0 44.0 -880.0 44.0 -872.0V-35.0C66.0 -32.0 73.0 -23.0 75.0 -9.0ZM73.0 -47.0 81.0 -76.0H361.0C373.0 -76.0 382.0 -71.0 385.0 -60.0C362.0 -37.0 325.0 -7.0 325.0 -7.0L293.0 -47.0ZM66.0 -277.0 73.0 -307.0H370.0C383.0 -307.0 392.0 -302.0 394.0 -291.0C371.0 -267.0 335.0 -238.0 335.0 -238.0L304.0 -277.0ZM82.0 -159.0 90.0 -188.0H362.0C375.0 -188.0 383.0 -184.0 386.0 -173.0C365.0 -150.0 332.0 -123.0 332.0 -123.0L303.0 -159.0ZM200.0 -47.0V-297.0H244.0V-47.0ZM408.0 -47.0 416.0 -76.0H712.0C726.0 -76.0 734.0 -71.0 736.0 -60.0C713.0 -37.0 674.0 -6.0 674.0 -6.0L642.0 -47.0ZM402.0 -277.0 410.0 -307.0H721.0C734.0 -307.0 743.0 -302.0 745.0 -291.0C722.0 -266.0 683.0 -236.0 683.0 -236.0L650.0 -277.0ZM419.0 -159.0 427.0 -188.0H705.0C718.0 -188.0 726.0 -184.0 729.0 -173.0C707.0 -150.0 673.0 -122.0 673.0 -122.0L644.0 -159.0ZM540.0 -47.0V-297.0H585.0V-47.0ZM754.0 0.0V-809.0C754.0 -823.0 750.0 -827.0 735.0 -827.0C721.0 -827.0 648.0 -821.0 648.0 -821.0V-838.0C679.0 -842.0 699.0 -847.0 711.0 -855.0C721.0 -863.0 726.0 -878.0 727.0 -892.0C791.0 -884.0 798.0 -857.0 798.0 -814.0V-37.0C822.0 -34.0 832.0 -24.0 835.0 -10.0Z"/></g>
<g fill="red" transform="translate(1000 200) scale(0.1 -0.1)"><path d="M0.0 0.0V-926.0H26.0C76.0 -926.0 135.0 -893.0 135.0 -880.0V-42.0C159.0 -38.0 166.0 -29.0 168.0 -16.0ZM139.0 -62.0 147.0 -90.0H397.0C410.0 -90.0 419.0 -85.0 422.0 -74.0C393.0 -47.0 346.0 -11.0 346.0 -11.0L305.0 -62.0ZM133.0 -288.0 141.0 -316.0H408.0C422.0 -316.0 431.0 -311.0 433.0 -300.0C406.0 -274.0 361.0 -240.0 361.0 -240.0L322.0 -288.0ZM146.0 -172.0 154.0 -200.0H392.0C405.0 -200.0 414.0 -195.0 416.0 -184.0C391.0 -160.0 351.0 -129.0 351.0 -129.0L316.0 -172.0ZM206.0 -62.0V-304.0H317.0V-62.0ZM423.0 -62.0 431.0 -90.0H693.0C707.0 -90.0 716.0 -85.0 719.0 -74.0C688.0 -46.0 638.0 -8.0 638.0 -8.0L593.0 -62.0ZM422.0 -288.0 430.0 -316.0H704.0C717.0 -316.0 727.0 -311.0 729.0 -300.0C700.0 -273.0 653.0 -237.0 653.0 -237.0L611.0 -288.0ZM430.0 -172.0 438.0 -200.0H689.0C703.0 -200.0 712.0 -195.0 714.0 -184.0C688.0 -159.0 646.0 -127.0 646.0 -127.0L610.0 -172.0ZM493.0 -62.0V-304.0H606.0V-62.0ZM710.0 -1.0V-758.0C710.0 -768.0 706.0 -772.0 692.0 -772.0C675.0 -772.0 605.0 -768.0 605.0 -768.0V-781.0C646.0 -790.0 661.0 -804.0 673.0 -825.0C684.0 -847.0 688.0 -879.0 690.0 -925.0C829.0 -912.0 847.0 -862.0 847.0 -768.0V-45.0C872.0 -42.0 882.0 -32.0 884.0 -17.0Z"/></g>
<g fill="black" opacity=".8" transform="translate(1000 200) scale(0.1 -0.1)"><path d="M0.0 0.0V-923.0H26.0C76.0 -923.0 135.0 -890.0 135.0 -877.0V-42.0C159.0 -38.0 166.0 -29.0 168.0 -16.0ZM138.0 -63.0 146.0 -91.0H395.0C408.0 -91.0 417.0 -86.0 420.0 -75.0C391.0 -48.0 345.0 -13.0 345.0 -13.0L305.0 -63.0ZM132.0 -292.0 140.0 -320.0H406.0C420.0 -320.0 429.0 -315.0 431.0 -304.0C404.0 -278.0 360.0 -245.0 360.0 -245.0L322.0 -292.0ZM145.0 -174.0 153.0 -202.0H389.0C402.0 -202.0 411.0 -197.0 413.0 -186.0C389.0 -162.0 350.0 -132.0 350.0 -132.0L315.0 -174.0ZM205.0 -63.0V-303.0H316.0V-63.0ZM421.0 -63.0 429.0 -91.0H691.0C705.0 -91.0 714.0 -86.0 717.0 -75.0C686.0 -47.0 636.0 -10.0 636.0 -10.0L593.0 -63.0ZM421.0 -292.0 429.0 -320.0H702.0C715.0 -320.0 725.0 -315.0 727.0 -304.0C698.0 -277.0 651.0 -242.0 651.0 -242.0L610.0 -292.0ZM428.0 -174.0 436.0 -202.0H687.0C701.0 -202.0 710.0 -197.0 712.0 -186.0C686.0 -161.0 644.0 -130.0 644.0 -130.0L610.0 -174.0ZM492.0 -63.0V-303.0H605.0V-63.0ZM707.0 -1.0V-757.0C707.0 -766.0 703.0 -770.0 690.0 -770.0C674.0 -770.0 611.0 -766.0 611.0 -766.0V-780.0C648.0 -788.0 662.0 -802.0 674.0 -824.0C684.0 -846.0 688.0 -877.0 689.0 -923.0C827.0 -911.0 845.0 -860.0 845.0 -766.0V-45.0C869.0 -42.0 879.0 -32.0 881.0 -17.0Z"/></g>
</svg>
