<?xml version="1.0" encoding="UTF-8"?>
<svg width="1700" height="300" xmlns="http://www.w3.org/2000/svg">
<rect width="100%" height="100%" fill="white"/>
<g fill="green" transform="translate(100 100) scale(0.1 -0.1)"><path d="M0.0 0.0 -6.0 -17.0C172.0 -73.0 319.0 -158.0 379.0 -214.0C450.0 -240.0 468.0 -92.0 0.0 0.0ZM0.0 -154.0C83.0 -268.0 237.0 -356.0 415.0 -414.0C421.0 -393.0 439.0 -381.0 463.0 -376.0L465.0 -361.0C283.0 -321.0 114.0 -241.0 19.0 -143.0C44.0 -141.0 54.0 -137.0 56.0 -125.0L-31.0 -105.0C-105.0 -223.0 -285.0 -346.0 -475.0 -412.0L-470.0 -430.0C-270.0 -372.0 -94.0 -261.0 0.0 -154.0ZM-5.0 -469.0 -9.0 -487.0C144.0 -523.0 271.0 -586.0 325.0 -632.0C393.0 -650.0 401.0 -510.0 -5.0 -469.0ZM249.0 -380.0 177.0 -341.0C159.0 -374.0 118.0 -437.0 85.0 -477.0L97.0 -486.0C140.0 -455.0 187.0 -418.0 212.0 -392.0C232.0 -397.0 246.0 -389.0 249.0 -380.0ZM-387.0 -583.0 -334.0 -642.0C-326.0 -638.0 -319.0 -630.0 -317.0 -616.0C-170.0 -557.0 -64.0 -508.0 12.0 -473.0L6.0 -457.0C-156.0 -512.0 -316.0 -565.0 -387.0 -583.0ZM45.0 -267.0 -31.0 -257.0V-592.0C-31.0 -607.0 -35.0 -612.0 -53.0 -612.0C-70.0 -612.0 -161.0 -605.0 -161.0 -605.0V-622.0C-123.0 -627.0 -99.0 -632.0 -86.0 -640.0C-74.0 -648.0 -68.0 -660.0 -66.0 -672.0C3.0 -665.0 9.0 -638.0 9.0 -596.0V-291.0C33.0 -288.0 42.0 -281.0 45.0 -267.0ZM-228.0 -347.0 -240.0 -355.0C-206.0 -384.0 -169.0 -438.0 -162.0 -478.0C-112.0 -516.0 -71.0 -408.0 -228.0 -347.0ZM353.0 187.0 296.0 245.0C135.0 212.0 -159.0 174.0 -393.0 160.0L-390.0 140.0C-151.0 144.0 118.0 166.0 304.0 191.0C326.0 179.0 344.0 178.0 353.0 187.0ZM15.0 -79.0V185.0L-29.0 179.0V-97.0H-23.0C-1.0 -97.0 15.0 -84.0 15.0 -79.0ZM-17.0 36.0V52.0H-69.0C-159.0 -57.0 -305.0 -154.0 -469.0 -218.0L-460.0 -236.0C-279.0 -178.0 -117.0 -85.0 -17.0 36.0ZM362.0 103.0 321.0 52.0H-450.0L-441.0 21.0H415.0C429.0 21.0 438.0 26.0 441.0 38.0C411.0 67.0 362.0 103.0 362.0 103.0Z"/></g>
<g fill="green" transform="translate(200 100) scale(0.1 -0.1)"><path d="M0.0 0.0 -3.0 -11.0C128.0 -73.0 235.0 -161.0 276.0 -212.0C406.0 -265.0 480.0 1.0 0.0 0.0ZM-9.0 -200.0C79.0 -308.0 216.0 -383.0 375.0 -421.0C382.0 -367.0 403.0 -301.0 458.0 -280.0V-263.0C277.0 -265.0 111.0 -236.0 4.0 -190.0C43.0 -185.0 55.0 -178.0 58.0 -164.0L-130.0 -103.0C-191.0 -217.0 -350.0 -356.0 -516.0 -432.0L-513.0 -442.0C-299.0 -400.0 -99.0 -284.0 -9.0 -200.0ZM-4.0 -481.0 -7.0 -492.0C104.0 -545.0 192.0 -624.0 225.0 -668.0C355.0 -719.0 426.0 -454.0 -4.0 -481.0ZM262.0 -420.0 127.0 -332.0C114.0 -369.0 79.0 -441.0 52.0 -487.0L59.0 -493.0C117.0 -475.0 188.0 -446.0 222.0 -429.0C243.0 -435.0 257.0 -428.0 262.0 -420.0ZM-452.0 -555.0 -364.0 -680.0C-354.0 -677.0 -345.0 -668.0 -340.0 -654.0C-206.0 -577.0 -118.0 -521.0 -61.0 -479.0L-64.0 -467.0C-225.0 -507.0 -383.0 -542.0 -452.0 -555.0ZM66.0 -315.0 -107.0 -301.0V-559.0C-107.0 -569.0 -111.0 -573.0 -122.0 -573.0C-140.0 -573.0 -223.0 -567.0 -223.0 -567.0V-580.0C-178.0 -588.0 -162.0 -602.0 -150.0 -618.0C-136.0 -637.0 -132.0 -664.0 -130.0 -703.0C13.0 -691.0 33.0 -648.0 33.0 -560.0V-341.0C54.0 -338.0 64.0 -331.0 66.0 -315.0ZM-292.0 -349.0 -300.0 -354.0C-277.0 -384.0 -258.0 -434.0 -258.0 -480.0C-152.0 -565.0 -25.0 -367.0 -292.0 -349.0ZM323.0 138.0 200.0 262.0C53.0 211.0 -231.0 145.0 -449.0 113.0L-447.0 97.0C-214.0 96.0 71.0 117.0 251.0 142.0C286.0 128.0 310.0 128.0 323.0 138.0ZM28.0 -114.0V193.0L-116.0 156.0V-155.0H-89.0C-15.0 -155.0 28.0 -122.0 28.0 -114.0ZM-1.0 23.0V40.0H-200.0C-261.0 -57.0 -374.0 -163.0 -514.0 -227.0L-508.0 -237.0C-286.0 -189.0 -98.0 -103.0 -1.0 23.0ZM291.0 119.0 219.0 40.0H-478.0L-470.0 11.0H396.0C411.0 11.0 422.0 16.0 425.0 27.0C372.0 66.0 291.0 119.0 291.0 119.0Z"/></g>
<g fill="green" transform="translate(300 100) scale(0.1 -0.1)"><path d="M0.0 0.0 -6.0 -17.0C171.0 -72.0 316.0 -156.0 376.0 -212.0C446.0 -237.0 463.0 -91.0 0.0 0.0ZM-1.0 -152.0C80.0 -264.0 232.0 -351.0 408.0 -408.0C414.0 -388.0 432.0 -376.0 455.0 -371.0L457.0 -356.0C278.0 -317.0 111.0 -238.0 17.0 -141.0C42.0 -139.0 52.0 -135.0 54.0 -123.0L-32.0 -104.0C-105.0 -220.0 -283.0 -341.0 -470.0 -406.0L-465.0 -424.0C-268.0 -367.0 -94.0 -257.0 -1.0 -152.0ZM-6.0 -463.0 -10.0 -480.0C141.0 -516.0 266.0 -578.0 319.0 -623.0C386.0 -641.0 394.0 -503.0 -6.0 -463.0ZM244.0 -375.0 173.0 -336.0C155.0 -369.0 115.0 -431.0 83.0 -470.0L94.0 -479.0C137.0 -449.0 183.0 -412.0 208.0 -387.0C227.0 -392.0 241.0 -384.0 244.0 -375.0ZM-383.0 -575.0 -331.0 -633.0C-323.0 -629.0 -316.0 -621.0 -314.0 -608.0C-169.0 -549.0 -64.0 -501.0 11.0 -467.0L5.0 -451.0C-155.0 -505.0 -313.0 -557.0 -383.0 -575.0ZM43.0 -263.0 -32.0 -253.0V-584.0C-32.0 -599.0 -36.0 -604.0 -54.0 -604.0C-71.0 -604.0 -160.0 -597.0 -160.0 -597.0V-614.0C-123.0 -618.0 -99.0 -623.0 -86.0 -631.0C-74.0 -639.0 -69.0 -651.0 -67.0 -663.0C1.0 -656.0 7.0 -629.0 7.0 -588.0V-287.0C31.0 -284.0 40.0 -277.0 43.0 -263.0ZM-226.0 -342.0 -238.0 -350.0C-205.0 -379.0 -168.0 -432.0 -161.0 -472.0C-112.0 -509.0 -71.0 -402.0 -226.0 -342.0ZM349.0 184.0 293.0 242.0C134.0 209.0 -157.0 172.0 -389.0 158.0L-386.0 138.0C-149.0 142.0 117.0 164.0 301.0 188.0C323.0 177.0 340.0 176.0 349.0 184.0ZM15.0 -77.0V182.0L-29.0 177.0V-95.0H-23.0C-1.0 -95.0 15.0 -82.0 15.0 -77.0ZM-17.0 35.0V51.0H-68.0C-157.0 -56.0 -302.0 -152.0 -464.0 -215.0L-455.0 -233.0C-276.0 -176.0 -116.0 -84.0 -17.0 35.0ZM359.0 102.0 318.0 51.0H-445.0L-436.0 21.0H411.0C425.0 21.0 434.0 26.0 437.0 37.0C407.0 66.0 359.0 102.0 359.0 102.0Z"/></g>
<g fill="green" transform="translate(400 100) scale(0.1 -0.1)"><path d="M0.0 0.0 -3.0 -11.0C127.0 -72.0 233.0 -159.0 274.0 -210.0C402.0 -262.0 475.0 1.0 0.0 0.0ZM-10.0 -197.0C77.0 -304.0 212.0 -378.0 369.0 -415.0C375.0 -362.0 396.0 -297.0 450.0 -276.0V-259.0C272.0 -261.0 108.0 -233.0 3.0 -187.0C41.0 -182.0 53.0 -175.0 56.0 -162.0L-130.0 -101.0C-190.0 -214.0 -347.0 -351.0 -510.0 -426.0L-507.0 -436.0C-296.0 -394.0 -99.0 -280.0 -10.0 -197.0ZM-5.0 -474.0 -8.0 -485.0C101.0 -538.0 188.0 -615.0 221.0 -659.0C349.0 -709.0 419.0 -448.0 -5.0 -474.0ZM257.0 -414.0 124.0 -327.0C111.0 -364.0 77.0 -435.0 50.0 -480.0L57.0 -486.0C114.0 -468.0 184.0 -440.0 218.0 -423.0C238.0 -429.0 252.0 -422.0 257.0 -414.0ZM-447.0 -547.0 -361.0 -671.0C-351.0 -668.0 -342.0 -659.0 -337.0 -645.0C-205.0 -569.0 -118.0 -514.0 -61.0 -472.0L-64.0 -461.0C-223.0 -500.0 -379.0 -535.0 -447.0 -547.0ZM64.0 -311.0 -107.0 -297.0V-551.0C-107.0 -561.0 -111.0 -565.0 -122.0 -565.0C-139.0 -565.0 -221.0 -559.0 -221.0 -559.0V-572.0C-177.0 -580.0 -161.0 -594.0 -149.0 -610.0C-136.0 -628.0 -132.0 -655.0 -130.0 -693.0C11.0 -682.0 31.0 -639.0 31.0 -552.0V-336.0C52.0 -333.0 62.0 -326.0 64.0 -311.0ZM-289.0 -344.0 -297.0 -349.0C-275.0 -379.0 -256.0 -428.0 -256.0 -473.0C-151.0 -557.0 -26.0 -362.0 -289.0 -344.0ZM320.0 136.0 198.0 259.0C53.0 208.0 -228.0 143.0 -444.0 111.0L-442.0 96.0C-211.0 95.0 71.0 115.0 249.0 140.0C283.0 126.0 307.0 126.0 320.0 136.0ZM28.0 -112.0V191.0L-114.0 154.0V-152.0H-88.0C-15.0 -152.0 28.0 -120.0 28.0 -112.0ZM-1.0 23.0V39.0H-198.0C-258.0 -56.0 -370.0 -161.0 -508.0 -224.0L-503.0 -234.0C-283.0 -187.0 -97.0 -102.0 -1.0 23.0ZM288.0 117.0 217.0 39.0H-473.0L-465.0 11.0H392.0C407.0 11.0 418.0 16.0 421.0 27.0C369.0 65.0 288.0 117.0 288.0 117.0Z"/></g>
<g fill="green" transform="translate(500 100) scale(0.1 -0.1)"><path d="M0.0 0.0 -10.0 -11.0C37.0 -37.0 100.0 -88.0 122.0 -126.0C178.0 -152.0 197.0 -40.0 0.0 0.0ZM214.0 -161.0C297.0 -270.0 451.0 -354.0 629.0 -408.0C635.0 -390.0 652.0 -376.0 676.0 -372.0L678.0 -357.0C498.0 -320.0 327.0 -244.0 232.0 -150.0C257.0 -148.0 267.0 -144.0 270.0 -132.0L183.0 -113.0C109.0 -226.0 -72.0 -344.0 -261.0 -407.0L-256.0 -425.0C-57.0 -370.0 119.0 -263.0 214.0 -161.0ZM209.0 -463.0 204.0 -480.0C345.0 -520.0 461.0 -585.0 510.0 -630.0C576.0 -650.0 587.0 -515.0 209.0 -463.0ZM449.0 -381.0 380.0 -336.0C359.0 -374.0 311.0 -446.0 275.0 -492.0L285.0 -501.0C333.0 -466.0 385.0 -420.0 413.0 -391.0C431.0 -396.0 445.0 -389.0 449.0 -381.0ZM-153.0 -581.0 -112.0 -641.0C-104.0 -637.0 -97.0 -629.0 -95.0 -617.0C33.0 -560.0 131.0 -511.0 202.0 -477.0L196.0 -461.0C50.0 -514.0 -92.0 -564.0 -153.0 -581.0ZM261.0 -269.0 186.0 -259.0V-590.0C186.0 -605.0 182.0 -610.0 164.0 -610.0C147.0 -610.0 58.0 -603.0 58.0 -603.0V-620.0C95.0 -624.0 119.0 -629.0 132.0 -637.0C144.0 -645.0 149.0 -657.0 151.0 -669.0C219.0 -662.0 225.0 -635.0 225.0 -594.0V-293.0C249.0 -290.0 258.0 -283.0 261.0 -269.0ZM-13.0 -338.0 -25.0 -346.0C8.0 -375.0 45.0 -428.0 52.0 -468.0C101.0 -505.0 142.0 -398.0 -13.0 -338.0ZM183.0 183.0 125.0 238.0C47.0 207.0 -103.0 171.0 -225.0 155.0L-220.0 137.0C-95.0 142.0 47.0 164.0 139.0 184.0C159.0 176.0 175.0 175.0 183.0 183.0ZM10.0 -205.0V182.0L-34.0 173.0V-222.0H-27.0C-6.0 -222.0 10.0 -210.0 10.0 -205.0ZM4.0 47.0V63.0H-46.0C-88.0 -31.0 -159.0 -118.0 -250.0 -183.0L-238.0 -200.0C-131.0 -139.0 -47.0 -55.0 4.0 47.0ZM142.0 110.0 104.0 63.0H-239.0L-231.0 33.0H189.0C202.0 33.0 211.0 38.0 214.0 49.0C187.0 76.0 142.0 110.0 142.0 110.0Z"/></g>
<g fill="green" transform="translate(600 100) scale(0.1 -0.1)"><path d="M0.0 0.0 -8.0 -6.0C18.0 -30.0 44.0 -74.0 49.0 -114.0C149.0 -179.0 238.0 10.0 0.0 0.0ZM186.0 -224.0C271.0 -328.0 406.0 -399.0 569.0 -433.0C574.0 -383.0 594.0 -321.0 647.0 -301.0L646.0 -284.0C473.0 -288.0 303.0 -262.0 199.0 -214.0C236.0 -209.0 247.0 -203.0 251.0 -189.0L71.0 -133.0C11.0 -243.0 -145.0 -373.0 -314.0 -443.0L-310.0 -453.0C-95.0 -415.0 98.0 -307.0 186.0 -224.0ZM213.0 -482.0 209.0 -493.0C313.0 -548.0 395.0 -625.0 425.0 -669.0C550.0 -722.0 625.0 -467.0 213.0 -482.0ZM454.0 -431.0 321.0 -344.0C308.0 -381.0 274.0 -452.0 247.0 -497.0L254.0 -503.0C311.0 -485.0 381.0 -457.0 415.0 -440.0C435.0 -446.0 449.0 -439.0 454.0 -431.0ZM-234.0 -557.0 -149.0 -683.0C-139.0 -679.0 -130.0 -670.0 -126.0 -657.0C-11.0 -586.0 64.0 -533.0 113.0 -495.0L111.0 -484.0C-32.0 -517.0 -172.0 -547.0 -234.0 -557.0ZM263.0 -320.0 95.0 -306.0V-565.0C95.0 -575.0 91.0 -578.0 80.0 -578.0C63.0 -578.0 -19.0 -573.0 -19.0 -573.0V-585.0C25.0 -593.0 41.0 -607.0 53.0 -623.0C66.0 -640.0 70.0 -667.0 72.0 -704.0C211.0 -694.0 230.0 -651.0 230.0 -566.0V-345.0C251.0 -342.0 261.0 -335.0 263.0 -320.0ZM-95.0 -361.0 -102.0 -366.0C-83.0 -393.0 -65.0 -439.0 -65.0 -481.0C38.0 -564.0 163.0 -373.0 -95.0 -361.0ZM159.0 131.0 43.0 247.0C-29.0 204.0 -170.0 150.0 -288.0 125.0L-285.0 112.0C-154.0 105.0 -4.0 115.0 94.0 134.0C125.0 121.0 147.0 122.0 159.0 131.0ZM3.0 -210.0V162.0L-127.0 142.0V-244.0H-103.0C-37.0 -244.0 3.0 -217.0 3.0 -210.0ZM-3.0 31.0V47.0H-162.0C-187.0 -41.0 -234.0 -138.0 -299.0 -202.0L-291.0 -214.0C-163.0 -158.0 -55.0 -76.0 -3.0 31.0ZM79.0 114.0 25.0 47.0H-286.0L-278.0 19.0H152.0C166.0 19.0 176.0 24.0 179.0 35.0C141.0 68.0 79.0 114.0 79.0 114.0Z"/></g>
<g fill="red" transform="translate(100 200) scale(0.1 -0.1)"><path d="M0.0 0.0 -6.0 -17.0C171.0 -72.0 316.0 -156.0 376.0 -212.0C446.0 -237.0 463.0 -91.0 0.0 0.0ZM-1.0 -152.0C80.0 -264.0 232.0 -351.0 408.0 -408.0C414.0 -388.0 432.0 -376.0 455.0 -371.0L457.0 -356.0C278.0 -317.0 111.0 -238.0 17.0 -141.0C42.0 -139.0 52.0 -135.0 54.0 -123.0L-32.0 -104.0C-105.0 -220.0 -283.0 -341.0 -470.0 -406.0L-465.0 -424.0C-268.0 -367.0 -94.0 -257.0 -1.0 -152.0ZM-6.0 -463.0 -10.0 -480.0C141.0 -516.0 266.0 -578.0 319.0 -623.0C386.0 -641.0 394.0 -503.0 -6.0 -463.0ZM244.0 -375.0 173.0 -336.0C155.0 -369.0 115.0 -431.0 83.0 -470.0L94.0 -479.0C137.0 -449.0 183.0 -412.0 208.0 -387.0C227.0 -392.0 241.0 -384.0 244.0 -375.0ZM-383.0 -575.0 -331.0 -633.0C-323.0 -629.0 -316.0 -621.0 -314.0 -608.0C-169.0 -549.0 -64.0 -501.0 11.0 -467.0L5.0 -451.0C-155.0 -505.0 -313.0 -557.0 -383.0 -575.0ZM43.0 -263.0 -32.0 -253.0V-584.0C-32.0 -599.0 -36.0 -604.0 -54.0 -604.0C-71.0 -604.0 -160.0 -597.0 -160.0 -597.0V-614.0C-123.0 -618.0 -99.0 -623.0 -86.0 -631.0C-74.0 -639.0 -69.0 -651.0 -67.0 -663.0C1.0 -656.0 7.0 -629.0 7.0 -588.0V-287.0C31.0 -284.0 40.0 -277.0 43.0 -263.0ZM-226.0 -342.0 -238.0 -350.0C-205.0 -379.0 -168.0 -432.0 -161.0 -472.0C-112.0 -509.0 -71.0 -402.0 -226.0 -342.0ZM349.0 184.0 293.0 242.0C134.0 209.0 -157.0 172.0 -389.0 158.0L-386.0 138.0C-149.0 142.0 117.0 164.0 301.0 188.0C323.0 177.0 340.0 176.0 349.0 184.0ZM15.0 -77.0V182.0L-29.0 177.0V-95.0H-23.0C-1.0 -95.0 15.0 -82.0 15.0 -77.0ZM-17.0 35.0V51.0H-68.0C-157.0 -56.0 -302.0 -152.0 -464.0 -215.0L-455.0 -233.0C-276.0 -176.0 -116.0 -84.0 -17.0 35.0ZM359.0 102.0 318.0 51.0H-445.0L-436.0 21.0H411.0C425.0 21.0 434.0 26.0 437.0 37.0C407.0 66.0 359.0 102.0 359.0 102.0Z"/></g>
<g fill="black" opacity=".8" transform="translate(100 200) scale(0.1 -0.1)"><path d="M0.0 0.0 -6.0 -17.0C171.0 -72.0 316.0 -156.0 376.0 -212.0C446.0 -237.0 463.0 -91.0 0.0 0.0ZM-1.0 -152.0C80.0 -264.0 232.0 -351.0 408.0 -408.0C414.0 -388.0 432.0 -376.0 455.0 -371.0L457.0 -356.0C278.0 -317.0 111.0 -238.0 17.0 -141.0C42.0 -139.0 52.0 -135.0 54.0 -123.0L-32.0 -104.0C-105.0 -220.0 -283.0 -341.0 -470.0 -406.0L-465.0 -424.0C-268.0 -367.0 -94.0 -257.0 -1.0 -152.0ZM-6.0 -463.0 -10.0 -480.0C141.0 -516.0 266.0 -578.0 319.0 -623.0C386.0 -641.0 394.0 -503.0 -6.0 -463.0ZM244.0 -375.0 173.0 -336.0C155.0 -369.0 115.0 -431.0 83.0 -470.0L94.0 -479.0C137.0 -449.0 183.0 -412.0 208.0 -387.0C227.0 -392.0 241.0 -384.0 244.0 -375.0ZM-383.0 -575.0 -331.0 -633.0C-323.0 -629.0 -316.0 -621.0 -314.0 -608.0C-169.0 -549.0 -64.0 -501.0 11.0 -467.0L5.0 -451.0C-155.0 -505.0 -313.0 -557.0 -383.0 -575.0ZM43.0 -263.0 -32.0 -253.0V-584.0C-32.0 -599.0 -36.0 -604.0 -54.0 -604.0C-71.0 -604.0 -160.0 -597.0 -160.0 -597.0V-614.0C-123.0 -618.0 -99.0 -623.0 -86.0 -631.0C-74.0 -639.0 -69.0 -651.0 -67.0 -663.0C1.0 -656.0 7.0 -629.0 7.0 -588.0V-287.0C31.0 -284.0 40.0 -277.0 43.0 -263.0ZM-226.0 -342.0 -238.0 -350.0C-205.0 -379.0 -168.0 -432.0 -161.0 -472.0C-112.0 -509.0 -71.0 -402.0 -226.0 -342.0ZM349.0 184.0 293.0 242.0C134.0 209.0 -157.0 172.0 -389.0 158.0L-386.0 138.0C-149.0 142.0 117.0 164.0 301.0 188.0C323.0 177.0 340.0 176.0 349.0 184.0ZM15.0 -77.0V182.0L-29.0 177.0V-95.0H-23.0C-1.0 -95.0 15.0 -82.0 15.0 -77.0ZM-17.0 35.0V51.0H-68.0C-157.0 -56.0 -302.0 -152.0 -464.0 -215.0L-455.0 -233.0C-276.0 -176.0 -116.0 -84.0 -17.0 35.0ZM359.0 102.0 318.0 51.0H-445.0L-436.0 21.0H411.0C425.0 21.0 434.0 26.0 437.0 37.0C407.0 66.0 359.0 102.0 359.0 102.0Z"/></g>
<g fill="red" transform="translate(200 200) scale(0.1 -0.1)"><path d="M0.0 0.0 -3.0 -11.0C127.0 -72.0 233.0 -159.0 274.0 -210.0C402.0 -262.0 475.0 1.0 0.0 0.0ZM-10.0 -197.0C77.0 -304.0 212.0 -378.0 369.0 -415.0C375.0 -362.0 396.0 -297.0 450.0 -276.0V-259.0C272.0 -261.0 108.0 -233.0 3.0 -187.0C41.0 -182.0 53.0 -175.0 56.0 -162.0L-130.0 -101.0C-190.0 -214.0 -347.0 -351.0 -510.0 -426.0L-507.0 -436.0C-296.0 -394.0 -99.0 -280.0 -10.0 -197.0ZM-5.0 -474.0 -8.0 -485.0C101.0 -538.0 188.0 -615.0 221.0 -659.0C349.0 -709.0 419.0 -448.0 -5.0 -474.0ZM257.0 -414.0 124.0 -327.0C111.0 -364.0 77.0 -435.0 50.0 -480.0L57.0 -486.0C114.0 -468.0 184.0 -440.0 218.0 -423.0C238.0 -429.0 252.0 -422.0 257.0 -414.0ZM-447.0 -547.0 -361.0 -671.0C-351.0 -668.0 -342.0 -659.0 -337.0 -645.0C-205.0 -569.0 -118.0 -514.0 -61.0 -472.0L-64.0 -461.0C-223.0 -500.0 -379.0 -535.0 -447.0 -547.0ZM64.0 -311.0 -107.0 -297.0V-551.0C-107.0 -561.0 -111.0 -565.0 -122.0 -565.0C-139.0 -565.0 -221.0 -559.0 -221.0 -559.0V-572.0C-177.0 -580.0 -161.0 -594.0 -149.0 -610.0C-136.0 -628.0 -132.0 -655.0 -130.0 -693.0C11.0 -682.0 31.0 -639.0 31.0 -552.0V-336.0C52.0 -333.0 62.0 -326.0 64.0 -311.0ZM-289.0 -344.0 -297.0 -349.0C-275.0 -379.0 -256.0 -428.0 -256.0 -473.0C-151.0 -557.0 -26.0 -362.0 -289.0 -344.0ZM320.0 136.0 198.0 259.0C53.0 208.0 -228.0 143.0 -444.0 111.0L-442.0 96.0C-211.0 95.0 71.0 115.0 249.0 140.0C283.0 126.0 307.0 126.0 320.0 136.0ZM28.0 -112.0V191.0L-114.0 154.0V-152.0H-88.0C-15.0 -152.0 28.0 -120.0 28.0 -112.0ZM-1.0 23.0V39.0H-198.0C-258.0 -56.0 -370.0 -161.0 -508.0 -224.0L-503.0 -234.0C-283.0 -187.0 -97.0 -102.0 -1.0 23.0ZM288.0 117.0 217.0 39.0H-473.0L-465.0 11.0H392.0C407.0 11.0 418.0 16.0 421.0 27.0C369.0 65.0 288.0 117.0 288.0 117.0Z"/></g>
<g fill="black" opacity=".8" transform="translate(200 200) scale(0.1 -0.1)"><path d="M0.0 0.0 -3.0 -11.0C127.0 -72.0 233.0 -159.0 274.0 -210.0C402.0 -262.0 475.0 1.0 0.0 0.0ZM-10.0 -197.0C77.0 -304.0 212.0 -378.0 369.0 -415.0C375.0 -362.0 396.0 -297.0 450.0 -276.0V-259.0C272.0 -261.0 108.0 -233.0 3.0 -187.0C41.0 -182.0 53.0 -175.0 56.0 -162.0L-130.0 -101.0C-190.0 -214.0 -347.0 -351.0 -510.0 -426.0L-507.0 -436.0C-296.0 -394.0 -99.0 -280.0 -10.0 -197.0ZM-5.0 -474.0 -8.0 -485.0C101.0 -538.0 188.0 -615.0 221.0 -659.0C349.0 -709.0 419.0 -448.0 -5.0 -474.0ZM257.0 -414.0 124.0 -327.0C111.0 -364.0 77.0 -435.0 50.0 -480.0L57.0 -486.0C114.0 -468.0 184.0 -440.0 218.0 -423.0C238.0 -429.0 252.0 -422.0 257.0 -414.0ZM-447.0 -547.0 -361.0 -671.0C-351.0 -668.0 -342.0 -659.0 -337.0 -645.0C-205.0 -569.0 -118.0 -514.0 -61.0 -472.0L-64.0 -461.0C-223.0 -500.0 -379.0 -535.0 -447.0 -547.0ZM64.0 -311.0 -107.0 -297.0V-551.0C-107.0 -561.0 -111.0 -565.0 -122.0 -565.0C-139.0 -565.0 -221.0 -559.0 -221.0 -559.0V-572.0C-177.0 -580.0 -161.0 -594.0 -149.0 -610.0C-136.0 -628.0 -132.0 -655.0 -130.0 -693.0C11.0 -682.0 31.0 -639.0 31.0 -552.0V-336.0C52.0 -333.0 62.0 -326.0 64.0 -311.0ZM-289.0 -344.0 -297.0 -349.0C-275.0 -379.0 -256.0 -428.0 -256.0 -473.0C-151.0 -557.0 -26.0 -362.0 -289.0 -344.0ZM320.0 136.0 198.0 259.0C53.0 208.0 -228.0 143.0 -444.0 111.0L-442.0 96.0C-211.0 95.0 71.0 115.0 249.0 140.0C283.0 126.0 307.0 126.0 320.0 136.0ZM28.0 -112.0V191.0L-114.0 154.0V-152.0H-88.0C-15.0 -152.0 28.0 -120.0 28.0 -112.0ZM-1.0 23.0V39.0H-198.0C-258.0 -56.0 -370.0 -161.0 -508.0 -224.0L-503.0 -234.0C-283.0 -187.0 -97.0 -102.0 -1.0 23.0ZM288.0 117.0 217.0 39.0H-473.0L-465.0 11.0H392.0C407.0 11.0 418.0 16.0 421.0 27.0C369.0 65.0 288.0 117.0 288.0 117.0Z"/></g>
<g fill="red" transform="translate(300 200) scale(0.1 -0.1)"><path d="M0.0 0.0 -10.0 -11.0C37.0 -37.0 100.0 -88.0 122.0 -126.0C178.0 -152.0 197.0 -40.0 0.0 0.0ZM214.0 -161.0C297.0 -270.0 451.0 -354.0 629.0 -408.0C635.0 -390.0 652.0 -376.0 676.0 -372.0L678.0 -357.0C498.0 -320.0 327.0 -244.0 232.0 -150.0C257.0 -148.0 267.0 -144.0 270.0 -132.0L183.0 -113.0C109.0 -226.0 -72.0 -344.0 -261.0 -407.0L-256.0 -425.0C-57.0 -370.0 119.0 -263.0 214.0 -161.0ZM209.0 -463.0 204.0 -480.0C345.0 -520.0 461.0 -585.0 510.0 -630.0C576.0 -650.0 587.0 -515.0 209.0 -463.0ZM449.0 -381.0 380.0 -336.0C359.0 -374.0 311.0 -446.0 275.0 -492.0L285.0 -501.0C333.0 -466.0 385.0 -420.0 413.0 -391.0C431.0 -396.0 445.0 -389.0 449.0 -381.0ZM-153.0 -581.0 -112.0 -641.0C-104.0 -637.0 -97.0 -629.0 -95.0 -617.0C33.0 -560.0 131.0 -511.0 202.0 -477.0L196.0 -461.0C50.0 -514.0 -92.0 -564.0 -153.0 -581.0ZM261.0 -269.0 186.0 -259.0V-590.0C186.0 -605.0 182.0 -610.0 164.0 -610.0C147.0 -610.0 58.0 -603.0 58.0 -603.0V-620.0C95.0 -624.0 119.0 -629.0 132.0 -637.0C144.0 -645.0 149.0 -657.0 151.0 -669.0C219.0 -662.0 225.0 -635.0 225.0 -594.0V-293.0C249.0 -290.0 258.0 -283.0 261.0 -269.0ZM-13.0 -338.0 -25.0 -346.0C8.0 -375.0 45.0 -428.0 52.0 -468.0C101.0 -505.0 142.0 -398.0 -13.0 -338.0ZM183.0 183.0 125.0 238.0C47.0 207.0 -103.0 171.0 -225.0 155.0L-220.0 137.0C-95.0 142.0 47.0 164.0 139.0 184.0C159.0 176.0 175.0 175.0 183.0 183.0ZM10.0 -205.0V182.0L-34.0 173.0V-222.0H-27.0C-6.0 -222.0 10.0 -210.0 10.0 -205.0ZM4.0 47.0V63.0H-46.0C-88.0 -31.0 -159.0 -118.0 -250.0 -183.0L-238.0 -200.0C-131.0 -139.0 -47.0 -55.0 4.0 47.0ZM142.0 110.0 104.0 63.0H-239.0L-231.0 33.0H189.0C202.0 33.0 211.0 38.0 214.0 49.0C187.0 76.0 142.0 110.0 142.0 110.0Z"/></g>
<g fill="black" opacity=".8" transform="translate(300 200) scale(0.1 -0.1)"><path d="M0.0 0.0 -10.0 -11.0C37.0 -37.0 100.0 -88.0 122.0 -126.0C178.0 -152.0 197.0 -40.0 0.0 0.0ZM214.0 -161.0C297.0 -270.0 451.0 -354.0 629.0 -408.0C635.0 -390.0 652.0 -376.0 676.0 -372.0L678.0 -357.0C498.0 -320.0 327.0 -244.0 232.0 -150.0C257.0 -148.0 267.0 -144.0 270.0 -132.0L183.0 -113.0C109.0 -226.0 -72.0 -344.0 -261.0 -407.0L-256.0 -425.0C-57.0 -370.0 119.0 -263.0 214.0 -161.0ZM209.0 -463.0 204.0 -480.0C345.0 -520.0 461.0 -585.0 510.0 -630.0C576.0 -650.0 587.0 -515.0 209.0 -463.0ZM449.0 -381.0 380.0 -336.0C359.0 -374.0 311.0 -446.0 275.0 -492.0L285.0 -501.0C333.0 -466.0 385.0 -420.0 413.0 -391.0C431.0 -396.0 445.0 -389.0 449.0 -381.0ZM-153.0 -581.0 -112.0 -641.0C-104.0 -637.0 -97.0 -629.0 -95.0 -617.0C33.0 -560.0 131.0 -511.0 202.0 -477.0L196.0 -461.0C50.0 -514.0 -92.0 -564.0 -153.0 -581.0ZM261.0 -269.0 186.0 -259.0V-590.0C186.0 -605.0 182.0 -610.0 164.0 -610.0C147.0 -610.0 58.0 -603.0 58.0 -603.0V-620.0C95.0 -624.0 119.0 -629.0 132.0 -637.0C144.0 -645.0 149.0 -657.0 151.0 -669.0C219.0 -662.0 225.0 -635.0 225.0 -594.0V-293.0C249.0 -290.0 258.0 -283.0 261.0 -269.0ZM-13.0 -338.0 -25.0 -346.0C8.0 -375.0 45.0 -428.0 52.0 -468.0C101.0 -505.0 142.0 -398.0 -13.0 -338.0ZM183.0 183.0 125.0 238.0C47.0 207.0 -103.0 171.0 -225.0 155.0L-220.0 137.0C-95.0 142.0 47.0 164.0 139.0 184.0C159.0 176.0 175.0 175.0 183.0 183.0ZM10.0 -205.0V182.0L-34.0 173.0V-222.0H-27.0C-6.0 -222.0 10.0 -210.0 10.0 -205.0ZM4.0 47.0V63.0H-46.0C-88.0 -31.0 -159.0 -118.0 -250.0 -183.0L-238.0 -200.0C-131.0 -139.0 -47.0 -55.0 4.0 47.0ZM142.0 110.0 104.0 63.0H-239.0L-231.0 33.0H189.0C202.0 33.0 211.0 38.0 214.0 49.0C187.0 76.0 142.0 110.0 142.0 110.0Z"/></g>
<g fill="red" transform="translate(400 200) scale(0.1 -0.1)"><path d="M0.0 0.0 -8.0 -6.0C18.0 -30.0 44.0 -74.0 49.0 -114.0C149.0 -179.0 238.0 10.0 0.0 0.0ZM186.0 -224.0C271.0 -328.0 406.0 -399.0 569.0 -433.0C574.0 -383.0 594.0 -321.0 647.0 -301.0L646.0 -284.0C473.0 -288.0 303.0 -262.0 199.0 -214.0C236.0 -209.0 247.0 -203.0 251.0 -189.0L71.0 -133.0C11.0 -243.0 -145.0 -373.0 -314.0 -443.0L-310.0 -453.0C-95.0 -415.0 98.0 -307.0 186.0 -224.0ZM213.0 -482.0 209.0 -493.0C313.0 -548.0 395.0 -625.0 425.0 -669.0C550.0 -722.0 625.0 -467.0 213.0 -482.0ZM454.0 -431.0 321.0 -344.0C308.0 -381.0 274.0 -452.0 247.0 -497.0L254.0 -503.0C311.0 -485.0 381.0 -457.0 415.0 -440.0C435.0 -446.0 449.0 -439.0 454.0 -431.0ZM-234.0 -557.0 -149.0 -683.0C-139.0 -679.0 -130.0 -670.0 -126.0 -657.0C-11.0 -586.0 64.0 -533.0 113.0 -495.0L111.0 -484.0C-32.0 -517.0 -172.0 -547.0 -234.0 -557.0ZM263.0 -320.0 95.0 -306.0V-565.0C95.0 -575.0 91.0 -578.0 80.0 -578.0C63.0 -578.0 -19.0 -573.0 -19.0 -573.0V-585.0C25.0 -593.0 41.0 -607.0 53.0 -623.0C66.0 -640.0 70.0 -667.0 72.0 -704.0C211.0 -694.0 230.0 -651.0 230.0 -566.0V-345.0C251.0 -342.0 261.0 -335.0 263.0 -320.0ZM-95.0 -361.0 -102.0 -366.0C-83.0 -393.0 -65.0 -439.0 -65.0 -481.0C38.0 -564.0 163.0 -373.0 -95.0 -361.0ZM159.0 131.0 43.0 247.0C-29.0 204.0 -170.0 150.0 -288.0 125.0L-285.0 112.0C-154.0 105.0 -4.0 115.0 94.0 134.0C125.0 121.0 147.0 122.0 159.0 131.0ZM3.0 -210.0V162.0L-127.0 142.0V-244.0H-103.0C-37.0 -244.0 3.0 -217.0 3.0 -210.0ZM-3.0 31.0V47.0H-162.0C-187.0 -41.0 -234.0 -138.0 -299.0 -202.0L-291.0 -214.0C-163.0 -158.0 -55.0 -76.0 -3.0 31.0ZM79.0 114.0 25.0 47.0H-286.0L-278.0 19.0H152.0C166.0 19.0 176.0 24.0 179.0 35.0C141.0 68.0 79.0 114.0 79.0 114.0Z"/></g>
<g fill="black" opacity=".8" transform="translate(400 200) scale(0.1 -0.1)"><path d="M0.0 0.0 -8.0 -6.0C18.0 -30.0 44.0 -74.0 49.0 -114.0C149.0 -179.0 238.0 10.0 0.0 0.0ZM186.0 -224.0C271.0 -328.0 406.0 -399.0 569.0 -433.0C574.0 -383.0 594.0 -321.0 647.0 -301.0L646.0 -284.0C473.0 -288.0 303.0 -262.0 199.0 -214.0C236.0 -209.0 247.0 -203.0 251.0 -189.0L71.0 -133.0C11.0 -243.0 -145.0 -373.0 -314.0 -443.0L-310.0 -453.0C-95.0 -415.0 98.0 -307.0 186.0 -224.0ZM213.0 -482.0 209.0 -493.0C313.0 -548.0 395.0 -625.0 425.0 -669.0C550.0 -722.0 625.0 -467.0 213.0 -482.0ZM454.0 -431.0 321.0 -344.0C308.0 -381.0 274.0 -452.0 247.0 -497.0L254.0 -503.0C311.0 -485.0 381.0 -457.0 415.0 -440.0C435.0 -446.0 449.0 -439.0 454.0 -431.0ZM-234.0 -557.0 -149.0 -683.0C-139.0 -679.0 -130.0 -670.0 -126.0 -657.0C-11.0 -586.0 64.0 -533.0 113.0 -495.0L111.0 -484.0C-32.0 -517.0 -172.0 -547.0 -234.0 -557.0ZM263.0 -320.0 95.0 -306.0V-565.0C95.0 -575.0 91.0 -578.0 80.0 -578.0C63.0 -578.0 -19.0 -573.0 -19.0 -573.0V-585.0C25.0 -593.0 41.0 -607.0 53.0 -623.0C66.0 -640.0 70.0 -667.0 72.0 -704.0C211.0 -694.0 230.0 -651.0 230.0 -566.0V-345.0C251.0 -342.0 261.0 -335.0 263.0 -320.0ZM-95.0 -361.0 -102.0 -366.0C-83.0 -393.0 -65.0 -439.0 -65.0 -481.0C38.0 -564.0 163.0 -373.0 -95.0 -361.0ZM159.0 131.0 43.0 247.0C-29.0 204.0 -170.0 150.0 -288.0 125.0L-285.0 112.0C-154.0 105.0 -4.0 115.0 94.0 134.0C125.0 121.0 147.0 122.0 159.0 131.0ZM3.0 -210.0V162.0L-127.0 142.0V-244.0H-103.0C-37.0 -244.0 3.0 -217.0 3.0 -210.0ZM-3.0 31.0V47.0H-162.0C-187.0 -41.0 -234.0 -138.0 -299.0 -202.0L-291.0 -214.0C-163.0 -158.0 -55.0 -76.0 -3.0 31.0ZM79.0 114.0 25.0 47.0H-286.0L-278.0 19.0H152.0C166.0 19.0 176.0 24.0 179.0 35.0C141.0 68.0 79.0 114.0 79.0 114.0Z"/></g>
</svg>
