<?xml version="1.0" encoding="UTF-8"?>
<svg width="1700" height="300" xmlns="http://www.w3.org/2000/svg">
<rect width="100%" height="100%" fill="white"/>
<g fill="green" transform="translate(100 100) scale(0.1 -0.1)"><path d="M0.0 -0.0 18.0 -44.0C76.0 -6.0 142.0 41.0 169.0 58.0L162.0 73.0C97.0 43.0 31.0 13.0 0.0 0.0ZM45.0 176.0H12.0V29.0C12.0 15.0 9.0 11.0 -13.0 -1.0L12.0 -52.0C23.0 -47.0 42.0 -29.0 33.0 1.0L20.0 -16.0L53.0 -2.0V171.0ZM94.0 163.0 12.0 173.0V96.0H53.0V134.0C80.0 138.0 92.0 148.0 94.0 163.0ZM168.0 164.0 149.0 154.0C180.0 83.0 241.0 9.0 291.0 -34.0C297.0 -13.0 309.0 -3.0 327.0 -3.0L328.0 6.0C274.0 40.0 201.0 102.0 168.0 164.0ZM280.0 158.0 228.0 206.0C180.0 182.0 87.0 151.0 13.0 137.0L19.0 118.0C95.0 125.0 185.0 143.0 241.0 159.0C260.0 151.0 272.0 150.0 280.0 158.0ZM32.0 209.0 -40.0 232.0C-67.0 179.0 -102.0 120.0 -134.0 84.0L-103.0 86.0C-70.0 113.0 -35.0 154.0 -9.0 191.0C13.0 191.0 26.0 198.0 32.0 209.0ZM-221.0 223.0 -233.0 216.0C-212.0 193.0 -190.0 158.0 -183.0 128.0C-142.0 100.0 -104.0 178.0 -221.0 223.0ZM-363.0 145.0H-408.0C-420.0 111.0 -452.0 26.0 -559.0 -44.0L-540.0 -56.0C-406.0 14.0 -377.0 102.0 -363.0 145.0ZM-281.0 153.0H-271.0C-272.0 64.0 -277.0 27.0 -285.0 18.0C-291.0 12.0 -297.0 12.0 -308.0 12.0C-322.0 12.0 -357.0 13.0 -378.0 16.0L-380.0 -3.0C-363.0 -6.0 -341.0 -10.0 -333.0 -14.0C-325.0 -20.0 -322.0 -35.0 -322.0 -45.0C-300.0 -45.0 -277.0 -39.0 -262.0 -27.0C-240.0 -10.0 -234.0 29.0 -232.0 120.0C-213.0 124.0 -202.0 126.0 -195.0 134.0L-255.0 182.0ZM-258.0 153.0H-547.0L-538.0 123.0H-258.0ZM-72.0 90.0 -143.0 98.0V-84.0H-133.0C-120.0 -84.0 -103.0 -73.0 -103.0 -67.0V67.0C-82.0 70.0 -74.0 78.0 -72.0 90.0ZM-182.0 368.0 -194.0 359.0C-172.0 339.0 -154.0 304.0 -152.0 276.0C-109.0 241.0 -67.0 328.0 -182.0 368.0ZM233.0 304.0 188.0 251.0H-530.0L-521.0 221.0H285.0C300.0 221.0 310.0 226.0 313.0 237.0C280.0 267.0 233.0 304.0 233.0 304.0ZM-543.0 -398.0H-523.0L-511.0 -426.0H-543.0ZM-285.0 -274.0H-353.0L-341.0 -302.0H-285.0ZM-370.0 -47.0 -449.0 -38.0V-195.0C-449.0 -314.0 -460.0 -465.0 -534.0 -569.0L-518.0 -583.0C-420.0 -479.0 -405.0 -317.0 -404.0 -197.0V-73.0C-380.0 -70.0 -372.0 -60.0 -370.0 -47.0ZM233.0 -46.0 158.0 -37.0V-578.0H167.0C185.0 -578.0 203.0 -567.0 203.0 -558.0V-70.0C223.0 -67.0 231.0 -58.0 233.0 -46.0Z"/></g>
<g fill="green" transform="translate(200 100) scale(0.1 -0.1)"><path d="M0.0 0.0 32.0 -96.0C97.0 -62.0 164.0 -21.0 192.0 -2.0L190.0 11.0C114.0 6.0 35.0 1.0 0.0 0.0ZM91.0 154.0H12.0V42.0C12.0 25.0 8.0 16.0 -19.0 1.0L31.0 -108.0C55.0 -98.0 84.0 -64.0 75.0 -2.0L32.0 -36.0L117.0 -4.0V138.0ZM138.0 148.0 12.0 160.0V81.0H117.0V129.0C131.0 132.0 137.0 138.0 138.0 148.0ZM167.0 123.0 155.0 116.0C177.0 36.0 224.0 -47.0 282.0 -103.0C295.0 -51.0 319.0 -20.0 355.0 -9.0L357.0 2.0C294.0 26.0 209.0 70.0 167.0 123.0ZM338.0 126.0 240.0 220.0C212.0 186.0 159.0 140.0 110.0 115.0L115.0 101.0C175.0 102.0 242.0 113.0 284.0 125.0C311.0 117.0 329.0 117.0 338.0 126.0ZM100.0 169.0 -34.0 208.0C-54.0 155.0 -81.0 92.0 -102.0 51.0H-85.0C-38.0 78.0 20.0 116.0 62.0 151.0C83.0 151.0 96.0 158.0 100.0 169.0ZM-237.0 211.0 -246.0 205.0C-223.0 175.0 -200.0 125.0 -198.0 84.0C-117.0 20.0 -28.0 176.0 -237.0 211.0ZM-354.0 150.0H-474.0C-481.0 104.0 -496.0 4.0 -559.0 -83.0L-543.0 -94.0C-396.0 -21.0 -366.0 87.0 -354.0 150.0ZM-323.0 154.0H-313.0C-316.0 73.0 -322.0 35.0 -333.0 26.0C-337.0 23.0 -343.0 22.0 -356.0 22.0C-370.0 22.0 -401.0 23.0 -422.0 24.0V10.0C-396.0 5.0 -383.0 -4.0 -372.0 -17.0C-361.0 -31.0 -359.0 -56.0 -358.0 -84.0C-317.0 -84.0 -288.0 -77.0 -264.0 -62.0C-227.0 -39.0 -215.0 3.0 -210.0 111.0C-191.0 113.0 -179.0 119.0 -173.0 126.0L-270.0 204.0ZM-287.0 154.0H-560.0L-551.0 126.0H-287.0ZM-35.0 53.0 -176.0 65.0V-136.0H-155.0C-113.0 -136.0 -62.0 -118.0 -62.0 -111.0V32.0C-43.0 35.0 -37.0 43.0 -35.0 53.0ZM-210.0 330.0 -216.0 325.0C-199.0 306.0 -178.0 270.0 -173.0 235.0C-55.0 166.0 54.0 375.0 -210.0 330.0ZM214.0 326.0 148.0 236.0H-514.0L-506.0 208.0H304.0C319.0 208.0 329.0 213.0 333.0 224.0C289.0 265.0 214.0 326.0 214.0 326.0ZM-548.0 -425.0H-497.0L-486.0 -454.0H-548.0ZM-277.0 -309.0H-313.0L-302.0 -337.0H-277.0ZM-310.0 -101.0 -468.0 -86.0V-227.0C-468.0 -351.0 -471.0 -517.0 -535.0 -635.0L-525.0 -643.0C-373.0 -548.0 -345.0 -361.0 -343.0 -230.0V-127.0C-318.0 -124.0 -312.0 -113.0 -310.0 -101.0ZM289.0 -97.0 130.0 -83.0V-645.0H156.0C202.0 -645.0 261.0 -620.0 261.0 -609.0V-120.0C282.0 -115.0 287.0 -107.0 289.0 -97.0Z"/></g>
<g fill="green" transform="translate(300 100) scale(0.1 -0.1)"><path d="M0.0 0.0 15.0 -37.0C65.0 -4.0 121.0 37.0 144.0 52.0L138.0 64.0C82.0 38.0 26.0 12.0 0.0 0.0ZM38.0 147.0H10.0V24.0C10.0 12.0 8.0 9.0 -10.0 -1.0L10.0 -43.0C19.0 -39.0 35.0 -24.0 28.0 1.0L17.0 -13.0L44.0 -1.0V143.0ZM79.0 130.0 10.0 138.0V74.0H44.0V105.0C67.0 109.0 77.0 117.0 79.0 130.0ZM145.0 129.0 129.0 121.0C157.0 68.0 211.0 8.0 248.0 -27.0C253.0 -9.0 263.0 0.0 278.0 -1.0L279.0 7.0C238.0 34.0 174.0 84.0 145.0 129.0ZM238.0 123.0 194.0 163.0C153.0 143.0 74.0 118.0 9.0 107.0L14.0 91.0C80.0 96.0 156.0 111.0 204.0 124.0C220.0 117.0 231.0 116.0 238.0 123.0ZM24.0 166.0 -37.0 184.0C-61.0 139.0 -91.0 89.0 -118.0 58.0L-90.0 62.0C-62.0 84.0 -33.0 119.0 -11.0 150.0C8.0 151.0 18.0 156.0 24.0 166.0ZM-188.0 176.0 -198.0 170.0C-181.0 151.0 -165.0 123.0 -159.0 99.0C-125.0 76.0 -92.0 140.0 -188.0 176.0ZM-312.0 112.0H-349.0C-360.0 92.0 -389.0 22.0 -480.0 -36.0L-464.0 -46.0C-349.0 13.0 -324.0 85.0 -312.0 112.0ZM-241.0 119.0H-232.0C-233.0 50.0 -237.0 21.0 -243.0 14.0C-248.0 8.0 -253.0 9.0 -262.0 9.0C-274.0 9.0 -304.0 9.0 -322.0 12.0L-324.0 -4.0C-309.0 -7.0 -290.0 -10.0 -283.0 -13.0C-277.0 -18.0 -274.0 -31.0 -274.0 -39.0C-256.0 -39.0 -236.0 -34.0 -224.0 -24.0C-206.0 -10.0 -202.0 21.0 -200.0 92.0C-184.0 95.0 -175.0 97.0 -169.0 104.0L-219.0 143.0ZM-224.0 119.0H-473.0L-466.0 94.0H-224.0ZM-64.0 64.0 -123.0 71.0V-74.0H-114.0C-104.0 -74.0 -90.0 -65.0 -90.0 -60.0V45.0C-73.0 48.0 -66.0 54.0 -64.0 64.0ZM-155.0 295.0 -165.0 288.0C-148.0 272.0 -136.0 244.0 -135.0 221.0C-100.0 192.0 -64.0 262.0 -155.0 295.0ZM199.0 242.0 161.0 197.0H-456.0L-448.0 172.0H243.0C255.0 172.0 264.0 176.0 266.0 185.0C238.0 211.0 199.0 242.0 199.0 242.0ZM-542.0 -351.0H-463.0L-452.0 -374.0H-542.0ZM-296.0 -249.0H-303.0L-291.0 -272.0H-296.0ZM-327.0 -38.0 -393.0 -30.0V-162.0C-393.0 -264.0 -400.0 -397.0 -456.0 -489.0L-442.0 -500.0C-367.0 -409.0 -356.0 -267.0 -356.0 -164.0V-60.0C-336.0 -57.0 -329.0 -49.0 -327.0 -38.0ZM202.0 -37.0 141.0 -30.0V-496.0H148.0C163.0 -496.0 178.0 -487.0 178.0 -479.0V-57.0C194.0 -54.0 201.0 -47.0 202.0 -37.0Z"/></g>
<g fill="green" transform="translate(400 100) scale(0.1 -0.1)"><path d="M0.0 0.0 25.0 -81.0C81.0 -55.0 138.0 -22.0 162.0 -7.0L160.0 4.0C96.0 2.0 29.0 0.0 0.0 0.0ZM77.0 129.0H9.0V36.0C9.0 22.0 6.0 14.0 -17.0 1.0L26.0 -91.0C46.0 -83.0 71.0 -54.0 63.0 -1.0L26.0 -30.0L99.0 -3.0V115.0ZM116.0 119.0 9.0 129.0V63.0H99.0V103.0C110.0 105.0 115.0 110.0 116.0 119.0ZM141.0 94.0 131.0 88.0C151.0 28.0 194.0 -40.0 244.0 -86.0C254.0 -44.0 274.0 -18.0 303.0 -9.0L305.0 0.0C253.0 19.0 178.0 54.0 141.0 94.0ZM289.0 98.0 208.0 177.0C185.0 148.0 141.0 110.0 99.0 89.0L103.0 77.0C154.0 78.0 208.0 87.0 242.0 97.0C265.0 91.0 281.0 90.0 289.0 98.0ZM84.0 132.0 -30.0 163.0C-47.0 118.0 -71.0 65.0 -89.0 31.0L-75.0 32.0C-34.0 55.0 16.0 87.0 53.0 117.0C70.0 117.0 81.0 123.0 84.0 132.0ZM-204.0 167.0 -212.0 162.0C-192.0 136.0 -172.0 93.0 -171.0 58.0C-102.0 4.0 -28.0 136.0 -204.0 167.0ZM-305.0 120.0H-408.0C-415.0 89.0 -429.0 6.0 -480.0 -67.0L-466.0 -76.0C-340.0 -15.0 -316.0 75.0 -305.0 120.0ZM-277.0 123.0H-269.0C-271.0 61.0 -277.0 30.0 -286.0 22.0C-289.0 20.0 -295.0 19.0 -306.0 19.0C-317.0 19.0 -345.0 20.0 -363.0 21.0V10.0C-340.0 5.0 -329.0 -2.0 -320.0 -14.0C-310.0 -25.0 -308.0 -47.0 -307.0 -71.0C-273.0 -71.0 -248.0 -65.0 -228.0 -53.0C-196.0 -33.0 -186.0 2.0 -181.0 87.0C-165.0 89.0 -155.0 94.0 -150.0 100.0L-232.0 165.0ZM-250.0 123.0H-485.0L-477.0 100.0H-250.0ZM-34.0 32.0 -153.0 42.0V-119.0H-135.0C-100.0 -119.0 -56.0 -104.0 -56.0 -98.0V14.0C-40.0 17.0 -35.0 23.0 -34.0 32.0ZM-180.0 261.0 -185.0 256.0C-171.0 242.0 -154.0 213.0 -149.0 185.0C-50.0 129.0 39.0 303.0 -180.0 261.0ZM185.0 262.0 130.0 187.0H-440.0L-433.0 163.0H259.0C271.0 163.0 279.0 168.0 283.0 177.0C247.0 211.0 185.0 262.0 185.0 262.0ZM-546.0 -371.0H-443.0L-432.0 -395.0H-546.0ZM-288.0 -276.0H-267.0L-256.0 -300.0H-288.0ZM-279.0 -85.0 -409.0 -72.0V-188.0C-409.0 -295.0 -409.0 -441.0 -455.0 -544.0L-446.0 -551.0C-329.0 -467.0 -308.0 -302.0 -307.0 -191.0V-106.0C-286.0 -104.0 -281.0 -95.0 -279.0 -85.0ZM252.0 -81.0 122.0 -70.0V-553.0H144.0C181.0 -553.0 230.0 -532.0 230.0 -523.0V-100.0C246.0 -95.0 250.0 -89.0 252.0 -81.0Z"/></g>
<g fill="green" transform="translate(500 100) scale(0.1 -0.1)"><path d="M0.0 -0.0 23.0 -53.0C71.0 -15.0 131.0 38.0 152.0 54.0L143.0 70.0C88.0 43.0 30.0 14.0 0.0 0.0ZM53.0 227.0H13.0V34.0C13.0 17.0 9.0 13.0 -18.0 -1.0L14.0 -69.0C27.0 -62.0 50.0 -40.0 41.0 -1.0L22.0 -22.0L64.0 -4.0V220.0ZM112.0 246.0 13.0 258.0V167.0H64.0V212.0C95.0 217.0 109.0 229.0 112.0 246.0ZM142.0 250.0 119.0 240.0C148.0 119.0 191.0 16.0 236.0 -42.0C242.0 -22.0 257.0 -14.0 278.0 -13.0V-1.0C231.0 47.0 173.0 142.0 142.0 250.0ZM261.0 243.0 205.0 298.0C153.0 271.0 67.0 229.0 15.0 209.0L26.0 196.0C85.0 208.0 174.0 228.0 227.0 241.0C247.0 233.0 256.0 235.0 261.0 243.0ZM77.0 336.0 -5.0 366.0C-38.0 292.0 -70.0 233.0 -101.0 195.0L-77.0 183.0C-42.0 211.0 -1.0 262.0 33.0 316.0C57.0 314.0 71.0 324.0 77.0 336.0ZM-214.0 353.0 -228.0 343.0C-195.0 314.0 -158.0 266.0 -149.0 227.0C-99.0 193.0 -59.0 295.0 -214.0 353.0ZM-294.0 213.0H-345.0C-347.0 170.0 -352.0 56.0 -438.0 -48.0L-413.0 -63.0C-299.0 37.0 -296.0 167.0 -294.0 213.0ZM-239.0 234.0H-227.0C-227.0 86.0 -230.0 33.0 -240.0 21.0C-246.0 14.0 -253.0 14.0 -264.0 14.0C-280.0 14.0 -312.0 15.0 -335.0 17.0L-336.0 -5.0C-318.0 -8.0 -298.0 -12.0 -290.0 -17.0C-280.0 -24.0 -277.0 -39.0 -277.0 -50.0C-254.0 -50.0 -227.0 -46.0 -209.0 -30.0C-185.0 -7.0 -179.0 44.0 -178.0 195.0C-156.0 199.0 -144.0 203.0 -135.0 212.0L-208.0 269.0ZM-199.0 234.0H-430.0L-419.0 199.0H-199.0ZM-33.0 180.0 -120.0 190.0V-103.0H-108.0C-90.0 -103.0 -68.0 -89.0 -68.0 -83.0V153.0C-45.0 157.0 -36.0 167.0 -33.0 180.0ZM-150.0 530.0 -165.0 521.0C-140.0 493.0 -123.0 448.0 -126.0 411.0C-77.0 365.0 -20.0 471.0 -150.0 530.0ZM171.0 442.0 123.0 387.0H-387.0L-378.0 352.0H226.0C243.0 352.0 255.0 358.0 258.0 371.0C223.0 404.0 171.0 442.0 171.0 442.0ZM-448.0 -282.0H-605.0L-601.0 -317.0H-448.0ZM18.0 -201.0H-294.0L-291.0 -236.0H18.0ZM-247.0 -86.0 -339.0 -76.0V-214.0C-339.0 -323.0 -352.0 -467.0 -435.0 -565.0L-416.0 -582.0C-305.0 -483.0 -288.0 -328.0 -287.0 -216.0V-116.0C-258.0 -113.0 -250.0 -101.0 -247.0 -86.0ZM190.0 -86.0 91.0 -74.0V-573.0H102.0C123.0 -573.0 144.0 -560.0 144.0 -550.0V-118.0C175.0 -114.0 187.0 -103.0 190.0 -86.0Z"/></g>
<g fill="green" transform="translate(600 100) scale(0.1 -0.1)"><path d="M0.0 0.0 38.0 -94.0C85.0 -57.0 141.0 -9.0 158.0 9.0L154.0 24.0C94.0 15.0 31.0 4.0 0.0 0.0ZM89.0 203.0H19.0V35.0C19.0 17.0 14.0 8.0 -18.0 -8.0L30.0 -111.0C51.0 -100.0 81.0 -68.0 71.0 -10.0L33.0 -42.0L110.0 -14.0V190.0ZM140.0 231.0 19.0 244.0V151.0H110.0V206.0C129.0 210.0 138.0 218.0 140.0 231.0ZM149.0 217.0 134.0 211.0C150.0 86.0 174.0 -29.0 215.0 -99.0C231.0 -36.0 257.0 -3.0 300.0 10.0L303.0 22.0C244.0 60.0 182.0 137.0 149.0 217.0ZM326.0 230.0 215.0 318.0C184.0 282.0 130.0 223.0 93.0 191.0L104.0 179.0C157.0 192.0 249.0 209.0 291.0 222.0C315.0 218.0 322.0 222.0 326.0 230.0ZM152.0 269.0 29.0 341.0C-5.0 263.0 -38.0 194.0 -61.0 151.0L-42.0 142.0C2.0 170.0 52.0 211.0 104.0 255.0C127.0 252.0 145.0 257.0 152.0 269.0ZM-187.0 326.0 -199.0 319.0C-172.0 286.0 -142.0 231.0 -137.0 185.0C-48.0 120.0 41.0 291.0 -187.0 326.0ZM-262.0 242.0H-368.0C-371.0 171.0 -366.0 42.0 -423.0 -81.0L-402.0 -95.0C-276.0 13.0 -264.0 163.0 -262.0 242.0ZM-260.0 252.0H-248.0C-249.0 89.0 -252.0 32.0 -265.0 20.0C-270.0 14.0 -275.0 14.0 -288.0 14.0C-304.0 14.0 -325.0 13.0 -342.0 14.0V-3.0C-321.0 -7.0 -312.0 -15.0 -302.0 -27.0C-292.0 -41.0 -290.0 -60.0 -289.0 -87.0C-247.0 -87.0 -216.0 -82.0 -190.0 -63.0C-154.0 -34.0 -146.0 15.0 -144.0 204.0C-121.0 207.0 -108.0 214.0 -100.0 221.0L-205.0 306.0ZM-199.0 252.0H-437.0L-427.0 219.0H-199.0ZM5.0 136.0 -125.0 149.0V-144.0H-105.0C-69.0 -144.0 -21.0 -124.0 -21.0 -116.0V114.0C-4.0 118.0 4.0 126.0 5.0 136.0ZM-175.0 490.0 -184.0 484.0C-163.0 457.0 -144.0 410.0 -147.0 364.0C-29.0 271.0 117.0 487.0 -175.0 490.0ZM152.0 456.0 82.0 359.0H-344.0L-334.0 326.0H245.0C263.0 326.0 274.0 332.0 278.0 345.0C232.0 390.0 152.0 456.0 152.0 456.0ZM-441.0 -307.0H-553.0L-551.0 -341.0H-441.0ZM38.0 -237.0H-249.0L-247.0 -270.0H38.0ZM-171.0 -124.0 -363.0 -106.0V-239.0C-363.0 -360.0 -368.0 -526.0 -441.0 -643.0L-431.0 -654.0C-247.0 -561.0 -212.0 -372.0 -210.0 -241.0V-155.0C-181.0 -151.0 -174.0 -139.0 -171.0 -124.0ZM259.0 -124.0 59.0 -106.0V-651.0H88.0C147.0 -651.0 214.0 -625.0 214.0 -613.0V-158.0C248.0 -151.0 256.0 -139.0 259.0 -124.0Z"/></g>
<g fill="green" transform="translate(700 100) scale(0.1 -0.1)"><path d="M0.0 -0.0 18.0 -45.0C79.0 -7.0 146.0 40.0 174.0 57.0L167.0 71.0C100.0 42.0 32.0 12.0 0.0 0.0ZM42.0 174.0H11.0V28.0C11.0 14.0 7.0 11.0 -15.0 -2.0L10.0 -56.0C21.0 -51.0 41.0 -32.0 32.0 -2.0L18.0 -18.0L49.0 -5.0V169.0ZM89.0 151.0 11.0 161.0V87.0H49.0V124.0C75.0 127.0 87.0 137.0 89.0 151.0ZM175.0 163.0 157.0 154.0C186.0 78.0 245.0 5.0 304.0 -38.0C311.0 -17.0 322.0 -6.0 340.0 -6.0L341.0 3.0C278.0 37.0 207.0 97.0 175.0 163.0ZM294.0 158.0 244.0 205.0C194.0 180.0 95.0 149.0 17.0 135.0L22.0 117.0C103.0 123.0 197.0 142.0 256.0 160.0C274.0 151.0 287.0 150.0 294.0 158.0ZM23.0 192.0 -44.0 219.0C-69.0 172.0 -107.0 110.0 -141.0 73.0L-114.0 72.0C-79.0 102.0 -42.0 142.0 -16.0 177.0C5.0 175.0 19.0 182.0 23.0 192.0ZM-232.0 213.0 -243.0 206.0C-222.0 183.0 -199.0 148.0 -192.0 119.0C-153.0 91.0 -117.0 167.0 -232.0 213.0ZM-383.0 137.0H-425.0C-438.0 90.0 -474.0 16.0 -580.0 -45.0L-564.0 -57.0C-436.0 2.0 -399.0 78.0 -383.0 137.0ZM-292.0 143.0H-282.0C-286.0 69.0 -295.0 31.0 -305.0 23.0C-312.0 18.0 -317.0 17.0 -329.0 17.0C-343.0 17.0 -378.0 18.0 -398.0 21.0L-400.0 2.0C-384.0 -1.0 -363.0 -4.0 -355.0 -9.0C-346.0 -15.0 -344.0 -30.0 -344.0 -39.0C-323.0 -39.0 -300.0 -32.0 -286.0 -22.0C-261.0 -3.0 -251.0 35.0 -248.0 112.0C-229.0 115.0 -217.0 117.0 -212.0 125.0L-268.0 171.0ZM-288.0 143.0H-566.0L-557.0 114.0H-288.0ZM-80.0 81.0 -150.0 89.0V-77.0H-140.0C-127.0 -77.0 -110.0 -66.0 -110.0 -60.0V59.0C-90.0 62.0 -82.0 70.0 -80.0 81.0ZM-197.0 362.0 -208.0 352.0C-179.0 331.0 -148.0 294.0 -141.0 263.0C-95.0 232.0 -62.0 326.0 -197.0 362.0ZM248.0 296.0 204.0 243.0H-546.0L-537.0 214.0H301.0C316.0 214.0 325.0 218.0 328.0 229.0C296.0 259.0 248.0 296.0 248.0 296.0ZM65.0 -469.0H-222.0L-212.0 -496.0H65.0ZM-204.0 -243.0H-379.0L-370.0 -271.0H-204.0ZM-371.0 -49.0 -448.0 -41.0V-237.0C-448.0 -347.0 -468.0 -461.0 -576.0 -539.0L-562.0 -553.0C-430.0 -474.0 -405.0 -352.0 -404.0 -238.0V-74.0C-381.0 -72.0 -373.0 -63.0 -371.0 -49.0ZM221.0 -47.0 150.0 -38.0V-554.0H158.0C176.0 -554.0 193.0 -543.0 193.0 -534.0V-70.0C212.0 -67.0 219.0 -58.0 221.0 -47.0Z"/></g>
<g fill="green" transform="translate(800 100) scale(0.1 -0.1)"><path d="M0.0 0.0 38.0 -100.0C105.0 -58.0 170.0 -11.0 199.0 12.0L196.0 23.0C118.0 14.0 36.0 3.0 0.0 0.0ZM89.0 155.0H9.0V35.0C9.0 18.0 5.0 9.0 -22.0 -5.0L29.0 -115.0C53.0 -105.0 81.0 -71.0 73.0 -8.0L29.0 -42.0L115.0 -10.0V139.0ZM134.0 142.0 9.0 154.0V77.0H115.0V124.0C128.0 127.0 134.0 132.0 134.0 142.0ZM171.0 124.0 160.0 118.0C180.0 26.0 225.0 -52.0 293.0 -109.0C306.0 -54.0 331.0 -21.0 369.0 -8.0L371.0 2.0C298.0 23.0 211.0 64.0 171.0 124.0ZM337.0 120.0 233.0 221.0C204.0 189.0 147.0 144.0 96.0 120.0L100.0 107.0C164.0 105.0 236.0 110.0 280.0 120.0C307.0 111.0 327.0 110.0 337.0 120.0ZM84.0 173.0 -52.0 213.0C-69.0 164.0 -93.0 97.0 -113.0 53.0H-99.0C-50.0 81.0 9.0 121.0 48.0 155.0C68.0 155.0 81.0 162.0 84.0 173.0ZM-248.0 214.0 -256.0 208.0C-235.0 180.0 -215.0 133.0 -216.0 93.0C-133.0 26.0 -36.0 183.0 -248.0 214.0ZM-367.0 149.0H-490.0C-496.0 96.0 -515.0 -2.0 -579.0 -86.0L-566.0 -96.0C-426.0 -28.0 -381.0 77.0 -367.0 149.0ZM-342.0 148.0H-333.0C-336.0 74.0 -341.0 38.0 -351.0 29.0C-355.0 26.0 -361.0 25.0 -374.0 25.0C-388.0 25.0 -419.0 26.0 -440.0 27.0V14.0C-413.0 9.0 -400.0 0.0 -389.0 -14.0C-378.0 -28.0 -376.0 -54.0 -375.0 -83.0C-333.0 -83.0 -304.0 -75.0 -281.0 -61.0C-244.0 -38.0 -231.0 3.0 -227.0 105.0C-209.0 107.0 -198.0 113.0 -192.0 120.0L-289.0 198.0ZM-302.0 148.0H-582.0L-574.0 121.0H-302.0ZM-39.0 61.0 -186.0 73.0V-127.0H-164.0C-120.0 -127.0 -67.0 -110.0 -67.0 -103.0V40.0C-47.0 42.0 -41.0 50.0 -39.0 61.0ZM-224.0 344.0 -230.0 339.0C-208.0 317.0 -185.0 277.0 -179.0 238.0C-57.0 168.0 50.0 386.0 -224.0 344.0ZM203.0 333.0 132.0 240.0H-529.0L-521.0 212.0H303.0C318.0 212.0 328.0 217.0 332.0 228.0C284.0 270.0 203.0 333.0 203.0 333.0ZM84.0 -494.0H-170.0L-161.0 -522.0H84.0ZM-182.0 -273.0H-327.0L-318.0 -300.0H-182.0ZM-301.0 -95.0 -464.0 -80.0V-233.0C-464.0 -350.0 -474.0 -492.0 -563.0 -593.0L-556.0 -600.0C-371.0 -522.0 -334.0 -362.0 -332.0 -236.0V-120.0C-308.0 -117.0 -303.0 -107.0 -301.0 -95.0ZM279.0 -87.0 114.0 -73.0V-598.0H141.0C190.0 -598.0 252.0 -573.0 252.0 -563.0V-110.0C272.0 -105.0 277.0 -97.0 279.0 -87.0Z"/></g>
<g fill="green" transform="translate(900 100) scale(0.1 -0.1)"><path d="M0.0 -0.0 17.0 -40.0C79.0 0.0 146.0 46.0 176.0 64.0L169.0 78.0C100.0 46.0 31.0 13.0 0.0 0.0ZM42.0 155.0H12.0V22.0C12.0 9.0 10.0 6.0 -10.0 -5.0L12.0 -50.0C22.0 -44.0 39.0 -28.0 30.0 -3.0L20.0 -17.0L48.0 -6.0V151.0ZM86.0 162.0 12.0 171.0V102.0H48.0V136.0C73.0 139.0 84.0 148.0 86.0 162.0ZM168.0 170.0 151.0 160.0C180.0 85.0 243.0 7.0 304.0 -42.0C311.0 -20.0 322.0 -10.0 338.0 -11.0L341.0 -4.0C273.0 36.0 199.0 104.0 168.0 170.0ZM293.0 168.0 242.0 211.0C198.0 186.0 103.0 157.0 19.0 144.0L23.0 123.0C107.0 129.0 197.0 150.0 252.0 170.0C270.0 162.0 285.0 160.0 293.0 168.0ZM12.0 203.0 -49.0 231.0C-71.0 189.0 -112.0 117.0 -148.0 72.0L-124.0 74.0C-84.0 110.0 -46.0 158.0 -23.0 189.0C-4.0 188.0 9.0 195.0 12.0 203.0ZM-235.0 220.0 -245.0 214.0C-226.0 192.0 -203.0 157.0 -195.0 130.0C-158.0 105.0 -126.0 174.0 -235.0 220.0ZM-397.0 147.0H-440.0C-458.0 85.0 -507.0 6.0 -608.0 -56.0L-597.0 -69.0C-479.0 -11.0 -419.0 66.0 -397.0 147.0ZM-312.0 148.0H-303.0C-305.0 67.0 -312.0 31.0 -320.0 24.0C-325.0 18.0 -330.0 17.0 -341.0 17.0C-353.0 17.0 -385.0 19.0 -404.0 21.0L-405.0 5.0C-390.0 1.0 -371.0 -3.0 -364.0 -6.0C-357.0 -11.0 -355.0 -27.0 -355.0 -36.0C-334.0 -36.0 -313.0 -29.0 -300.0 -18.0C-279.0 -2.0 -272.0 36.0 -269.0 119.0C-251.0 122.0 -241.0 124.0 -235.0 131.0L-289.0 175.0ZM-294.0 148.0H-598.0L-590.0 121.0H-294.0ZM-92.0 83.0 -157.0 91.0V-89.0H-148.0C-136.0 -89.0 -120.0 -79.0 -120.0 -74.0V62.0C-101.0 65.0 -94.0 73.0 -92.0 83.0ZM-204.0 370.0 -214.0 360.0C-180.0 338.0 -142.0 294.0 -130.0 261.0C-85.0 232.0 -58.0 325.0 -204.0 370.0ZM256.0 297.0 213.0 245.0H-573.0L-564.0 218.0H305.0C319.0 218.0 328.0 223.0 331.0 233.0C300.0 261.0 256.0 297.0 256.0 297.0ZM-563.0 -307.0H-614.0L-605.0 -332.0H-563.0ZM-175.0 -224.0H-371.0L-362.0 -250.0H-175.0ZM-375.0 -42.0 -446.0 -34.0V-150.0C-446.0 -258.0 -464.0 -396.0 -562.0 -487.0L-549.0 -501.0C-426.0 -410.0 -406.0 -262.0 -405.0 -152.0V-66.0C-384.0 -63.0 -377.0 -54.0 -375.0 -42.0ZM201.0 -44.0 139.0 -36.0V-493.0H147.0C163.0 -493.0 179.0 -483.0 179.0 -474.0V-64.0C194.0 -61.0 200.0 -53.0 201.0 -44.0Z"/></g>
<g fill="green" transform="translate(1000 100) scale(0.1 -0.1)"><path d="M0.0 0.0 41.0 -99.0C110.0 -54.0 175.0 -4.0 204.0 21.0L203.0 31.0C120.0 18.0 37.0 4.0 0.0 0.0ZM96.0 137.0H13.0V41.0C13.0 24.0 9.0 16.0 -16.0 1.0L36.0 -110.0C61.0 -100.0 89.0 -66.0 80.0 -2.0L35.0 -37.0L123.0 -3.0V120.0ZM140.0 148.0 13.0 159.0V88.0H123.0V132.0C135.0 135.0 140.0 139.0 140.0 148.0ZM184.0 137.0 174.0 130.0C195.0 36.0 245.0 -43.0 313.0 -106.0C328.0 -54.0 356.0 -20.0 394.0 -9.0L396.0 1.0C324.0 28.0 229.0 67.0 184.0 137.0ZM344.0 113.0 263.0 206.0C225.0 176.0 152.0 137.0 87.0 116.0L88.0 101.0C161.0 97.0 230.0 108.0 280.0 117.0C308.0 107.0 331.0 105.0 344.0 113.0ZM76.0 181.0 -62.0 213.0C-75.0 171.0 -100.0 94.0 -122.0 43.0L-111.0 44.0C-56.0 80.0 8.0 128.0 43.0 162.0C63.0 163.0 75.0 172.0 76.0 181.0ZM-248.0 219.0 -256.0 215.0C-238.0 186.0 -224.0 139.0 -226.0 100.0C-150.0 29.0 -46.0 176.0 -248.0 219.0ZM-373.0 162.0H-505.0C-512.0 96.0 -544.0 -14.0 -627.0 -102.0L-618.0 -111.0C-465.0 -41.0 -395.0 68.0 -373.0 162.0ZM-348.0 158.0H-339.0C-342.0 90.0 -348.0 53.0 -359.0 45.0C-363.0 42.0 -369.0 41.0 -381.0 41.0C-395.0 41.0 -430.0 42.0 -452.0 43.0V31.0C-425.0 26.0 -409.0 15.0 -397.0 2.0C-386.0 -13.0 -384.0 -41.0 -384.0 -72.0C-340.0 -72.0 -312.0 -63.0 -288.0 -49.0C-250.0 -26.0 -238.0 18.0 -233.0 116.0C-215.0 117.0 -204.0 124.0 -199.0 131.0L-294.0 208.0ZM-294.0 158.0H-607.0L-598.0 132.0H-294.0ZM-41.0 48.0 -192.0 60.0V-153.0H-170.0C-124.0 -153.0 -69.0 -135.0 -69.0 -129.0V27.0C-50.0 29.0 -43.0 37.0 -41.0 48.0ZM-218.0 348.0 -223.0 344.0C-200.0 322.0 -173.0 283.0 -164.0 245.0C-40.0 181.0 53.0 404.0 -218.0 348.0ZM213.0 338.0 139.0 247.0H-564.0L-557.0 221.0H319.0C334.0 221.0 344.0 226.0 348.0 236.0C297.0 277.0 213.0 338.0 213.0 338.0ZM-547.0 -306.0H-602.0L-594.0 -332.0H-547.0ZM-158.0 -246.0H-348.0L-340.0 -272.0H-158.0ZM-310.0 -85.0 -465.0 -71.0V-146.0C-465.0 -255.0 -467.0 -413.0 -547.0 -522.0L-538.0 -529.0C-368.0 -444.0 -342.0 -265.0 -339.0 -150.0V-109.0C-317.0 -106.0 -311.0 -95.0 -310.0 -85.0ZM258.0 -83.0 103.0 -70.0V-529.0H129.0C175.0 -529.0 235.0 -507.0 235.0 -496.0V-102.0C252.0 -99.0 256.0 -91.0 258.0 -83.0Z"/></g>
<g fill="green" transform="translate(1100 100) scale(0.1 -0.1)"><path d="M0.0 0.0 14.0 -40.0C74.0 -8.0 144.0 31.0 171.0 47.0L166.0 63.0C100.0 37.0 32.0 11.0 0.0 0.0ZM40.0 162.0H6.0V28.0C6.0 13.0 4.0 9.0 -16.0 -3.0L6.0 -44.0C16.0 -40.0 33.0 -24.0 25.0 2.0L15.0 -13.0L48.0 -1.0V157.0ZM89.0 151.0 6.0 161.0V83.0H48.0V122.0C76.0 126.0 87.0 136.0 89.0 151.0ZM152.0 154.0 131.0 145.0C165.0 67.0 231.0 0.0 307.0 -38.0C312.0 -18.0 325.0 -8.0 344.0 -8.0V2.0C266.0 32.0 186.0 85.0 152.0 154.0ZM274.0 155.0 218.0 201.0C178.0 176.0 95.0 143.0 22.0 128.0L29.0 107.0C101.0 115.0 182.0 137.0 233.0 154.0C252.0 147.0 266.0 147.0 274.0 155.0ZM38.0 198.0 -33.0 225.0C-57.0 177.0 -96.0 113.0 -128.0 73.0L-101.0 74.0C-65.0 104.0 -27.0 148.0 -2.0 181.0C20.0 180.0 32.0 188.0 38.0 198.0ZM-196.0 222.0 -209.0 216.0C-189.0 190.0 -167.0 149.0 -162.0 116.0C-120.0 85.0 -79.0 165.0 -196.0 222.0ZM-349.0 156.0H-400.0C-413.0 101.0 -453.0 30.0 -570.0 -25.0L-554.0 -38.0C-410.0 14.0 -366.0 85.0 -349.0 156.0ZM-269.0 162.0H-259.0C-262.0 64.0 -269.0 24.0 -279.0 13.0C-285.0 7.0 -291.0 6.0 -302.0 6.0C-318.0 6.0 -351.0 7.0 -372.0 10.0L-373.0 -9.0C-356.0 -11.0 -336.0 -16.0 -328.0 -20.0C-320.0 -27.0 -316.0 -41.0 -316.0 -53.0C-292.0 -52.0 -269.0 -46.0 -252.0 -34.0C-228.0 -16.0 -219.0 26.0 -216.0 128.0C-196.0 131.0 -185.0 135.0 -178.0 142.0L-241.0 193.0ZM-230.0 162.0H-558.0L-549.0 132.0H-230.0ZM-62.0 91.0 -135.0 99.0V-66.0H-124.0C-111.0 -66.0 -93.0 -54.0 -93.0 -47.0V67.0C-72.0 71.0 -64.0 79.0 -62.0 91.0ZM-200.0 348.0 -212.0 339.0C-187.0 320.0 -163.0 284.0 -157.0 257.0C-112.0 225.0 -75.0 313.0 -200.0 348.0ZM232.0 307.0 187.0 253.0H-575.0L-566.0 223.0H284.0C299.0 223.0 309.0 228.0 313.0 239.0C279.0 269.0 232.0 307.0 232.0 307.0ZM-522.0 -382.0H-538.0L-527.0 -411.0H-522.0ZM-216.0 -266.0H-339.0L-328.0 -295.0H-216.0ZM-361.0 -49.0 -442.0 -40.0V-201.0C-442.0 -328.0 -458.0 -484.0 -550.0 -591.0L-534.0 -605.0C-416.0 -498.0 -397.0 -330.0 -396.0 -203.0V-75.0C-371.0 -72.0 -363.0 -62.0 -361.0 -49.0ZM238.0 -49.0 163.0 -40.0V-602.0H172.0C191.0 -602.0 209.0 -591.0 209.0 -582.0V-73.0C228.0 -70.0 236.0 -61.0 238.0 -49.0Z"/></g>
<g fill="green" transform="translate(1200 100) scale(0.1 -0.1)"><path d="M0.0 0.0 33.0 -93.0C101.0 -56.0 171.0 -12.0 200.0 8.0L198.0 22.0C118.0 11.0 36.0 3.0 0.0 0.0ZM99.0 129.0H16.0V49.0C16.0 32.0 12.0 23.0 -15.0 8.0L37.0 -105.0C62.0 -94.0 92.0 -60.0 82.0 4.0L38.0 -30.0L126.0 3.0V112.0ZM147.0 126.0 16.0 138.0V58.0H126.0V107.0C141.0 110.0 146.0 116.0 147.0 126.0ZM181.0 103.0 169.0 95.0C191.0 22.0 238.0 -50.0 297.0 -101.0C310.0 -47.0 336.0 -14.0 373.0 -2.0L375.0 9.0C310.0 28.0 223.0 55.0 181.0 103.0ZM358.0 101.0 261.0 198.0C228.0 164.0 166.0 118.0 109.0 93.0L112.0 78.0C180.0 78.0 251.0 90.0 299.0 102.0C326.0 92.0 347.0 91.0 358.0 101.0ZM100.0 165.0 -37.0 198.0C-50.0 154.0 -70.0 91.0 -87.0 49.0H-71.0C-27.0 77.0 29.0 116.0 62.0 145.0C85.0 145.0 97.0 155.0 100.0 165.0ZM-234.0 209.0 -244.0 203.0C-223.0 175.0 -202.0 128.0 -201.0 90.0C-125.0 27.0 -36.0 173.0 -234.0 209.0ZM-362.0 127.0H-480.0C-486.0 61.0 -502.0 -22.0 -552.0 -84.0L-539.0 -96.0C-411.0 -45.0 -375.0 39.0 -362.0 127.0ZM-323.0 138.0H-313.0C-316.0 66.0 -322.0 30.0 -332.0 22.0C-336.0 19.0 -343.0 17.0 -356.0 17.0C-369.0 17.0 -401.0 19.0 -423.0 21.0V5.0C-398.0 0.0 -383.0 -9.0 -373.0 -21.0C-362.0 -35.0 -359.0 -60.0 -359.0 -87.0C-319.0 -87.0 -291.0 -80.0 -267.0 -65.0C-231.0 -44.0 -219.0 -2.0 -214.0 95.0C-194.0 98.0 -182.0 103.0 -176.0 111.0L-271.0 187.0ZM-281.0 138.0H-557.0L-548.0 109.0H-281.0ZM-31.0 58.0 -174.0 71.0V-126.0H-153.0C-111.0 -126.0 -60.0 -108.0 -60.0 -100.0V37.0C-39.0 40.0 -34.0 48.0 -31.0 58.0ZM-197.0 333.0 -203.0 328.0C-185.0 308.0 -161.0 272.0 -156.0 236.0C-33.0 167.0 74.0 383.0 -197.0 333.0ZM231.0 323.0 162.0 233.0H-539.0L-530.0 205.0H326.0C341.0 205.0 351.0 210.0 355.0 221.0C308.0 263.0 231.0 323.0 231.0 323.0ZM-544.0 -408.0H-538.0L-529.0 -438.0H-544.0ZM-231.0 -308.0H-330.0L-321.0 -337.0H-231.0ZM-281.0 -104.0 -439.0 -89.0V-284.0C-439.0 -406.0 -453.0 -547.0 -540.0 -649.0L-531.0 -658.0C-355.0 -575.0 -316.0 -419.0 -315.0 -286.0V-130.0C-290.0 -127.0 -283.0 -117.0 -281.0 -104.0ZM277.0 -105.0 120.0 -90.0V-663.0H145.0C191.0 -663.0 249.0 -639.0 249.0 -627.0V-127.0C270.0 -124.0 275.0 -115.0 277.0 -105.0Z"/></g>
<g fill="green" transform="translate(1300 100) scale(0.1 -0.1)"><path d="M0.0 0.0 15.0 -41.0C73.0 -8.0 141.0 32.0 168.0 47.0L162.0 63.0C97.0 37.0 31.0 11.0 0.0 0.0ZM48.0 159.0H16.0V29.0C16.0 15.0 13.0 10.0 -7.0 -1.0L16.0 -45.0C26.0 -41.0 43.0 -24.0 35.0 3.0L24.0 -13.0L57.0 0.0V154.0ZM96.0 174.0 16.0 183.0V107.0H57.0V146.0C83.0 149.0 94.0 159.0 96.0 174.0ZM174.0 173.0 155.0 164.0C182.0 91.0 239.0 19.0 297.0 -23.0C303.0 -4.0 315.0 8.0 332.0 7.0L333.0 17.0C272.0 49.0 204.0 111.0 174.0 173.0ZM278.0 171.0 225.0 217.0C182.0 193.0 96.0 163.0 24.0 149.0L30.0 129.0C103.0 136.0 186.0 155.0 238.0 171.0C258.0 163.0 270.0 163.0 278.0 171.0ZM25.0 217.0 -46.0 238.0C-66.0 196.0 -93.0 144.0 -119.0 115.0L-87.0 118.0C-62.0 141.0 -34.0 172.0 -14.0 198.0C7.0 199.0 20.0 206.0 25.0 217.0ZM-219.0 232.0 -231.0 225.0C-210.0 203.0 -190.0 168.0 -183.0 139.0C-143.0 110.0 -104.0 187.0 -219.0 232.0ZM-358.0 162.0H-403.0C-415.0 109.0 -444.0 19.0 -546.0 -53.0L-528.0 -66.0C-397.0 6.0 -372.0 98.0 -358.0 162.0ZM-282.0 166.0H-272.0C-272.0 78.0 -272.0 44.0 -279.0 36.0C-285.0 30.0 -291.0 30.0 -301.0 30.0C-315.0 30.0 -347.0 31.0 -368.0 34.0L-370.0 15.0C-353.0 12.0 -331.0 8.0 -323.0 4.0C-315.0 -2.0 -313.0 -16.0 -313.0 -26.0C-292.0 -26.0 -269.0 -22.0 -254.0 -9.0C-234.0 7.0 -231.0 42.0 -230.0 133.0C-212.0 137.0 -201.0 140.0 -194.0 147.0L-255.0 196.0ZM-250.0 165.0H-525.0L-516.0 136.0H-250.0ZM-71.0 112.0 -141.0 120.0V-62.0H-131.0C-119.0 -62.0 -102.0 -52.0 -102.0 -45.0V90.0C-81.0 92.0 -73.0 100.0 -71.0 112.0ZM-165.0 377.0 -176.0 368.0C-155.0 350.0 -137.0 318.0 -134.0 293.0C-91.0 260.0 -53.0 344.0 -165.0 377.0ZM249.0 314.0 205.0 262.0H-537.0L-528.0 232.0H301.0C315.0 232.0 324.0 237.0 327.0 248.0C296.0 277.0 249.0 314.0 249.0 314.0ZM-532.0 -378.0H-495.0L-482.0 -405.0H-532.0ZM-292.0 -261.0H-337.0L-324.0 -288.0H-292.0ZM-368.0 -25.0 -446.0 -16.0V-175.0C-446.0 -293.0 -458.0 -445.0 -533.0 -549.0L-517.0 -563.0C-418.0 -458.0 -403.0 -296.0 -402.0 -176.0V-51.0C-378.0 -48.0 -370.0 -38.0 -368.0 -25.0ZM256.0 -21.0 182.0 -12.0V-558.0H191.0C209.0 -558.0 227.0 -547.0 227.0 -539.0V-44.0C246.0 -41.0 254.0 -33.0 256.0 -21.0Z"/></g>
<g fill="green" transform="translate(1400 100) scale(0.1 -0.1)"><path d="M0.0 0.0 29.0 -92.0C98.0 -59.0 169.0 -20.0 199.0 -2.0L197.0 12.0C118.0 6.0 36.0 1.0 0.0 0.0ZM98.0 137.0H18.0V52.0C18.0 36.0 14.0 27.0 -12.0 12.0L38.0 -97.0C62.0 -87.0 91.0 -53.0 82.0 9.0L39.0 -24.0L124.0 7.0V121.0ZM145.0 146.0 18.0 158.0V80.0H124.0V127.0C138.0 130.0 143.0 136.0 145.0 146.0ZM177.0 125.0 165.0 119.0C182.0 29.0 224.0 -47.0 291.0 -102.0C301.0 -50.0 325.0 -16.0 361.0 -5.0L362.0 6.0C291.0 24.0 211.0 70.0 177.0 125.0ZM323.0 125.0 224.0 220.0C197.0 186.0 146.0 141.0 97.0 116.0L101.0 102.0C161.0 102.0 225.0 112.0 267.0 124.0C294.0 115.0 313.0 115.0 323.0 125.0ZM81.0 171.0 -53.0 202.0C-68.0 157.0 -89.0 100.0 -106.0 63.0L-89.0 64.0C-46.0 88.0 8.0 122.0 43.0 151.0C65.0 152.0 77.0 160.0 81.0 171.0ZM-233.0 203.0 -243.0 197.0C-221.0 170.0 -198.0 123.0 -196.0 85.0C-119.0 26.0 -36.0 173.0 -233.0 203.0ZM-357.0 140.0H-472.0C-479.0 82.0 -494.0 -9.0 -559.0 -82.0L-545.0 -94.0C-395.0 -32.0 -369.0 63.0 -357.0 140.0ZM-315.0 149.0H-305.0C-308.0 83.0 -314.0 50.0 -324.0 42.0C-328.0 39.0 -335.0 38.0 -347.0 38.0C-361.0 38.0 -392.0 40.0 -413.0 41.0V26.0C-388.0 21.0 -374.0 12.0 -364.0 0.0C-353.0 -13.0 -351.0 -38.0 -350.0 -64.0C-312.0 -64.0 -284.0 -57.0 -260.0 -43.0C-226.0 -22.0 -213.0 17.0 -208.0 107.0C-189.0 110.0 -177.0 115.0 -171.0 123.0L-265.0 197.0ZM-282.0 149.0H-543.0L-534.0 122.0H-282.0ZM-31.0 73.0 -169.0 85.0V-107.0H-149.0C-108.0 -107.0 -59.0 -91.0 -59.0 -83.0V53.0C-39.0 56.0 -33.0 64.0 -31.0 73.0ZM-210.0 316.0 -216.0 311.0C-200.0 296.0 -180.0 263.0 -175.0 232.0C-59.0 168.0 45.0 371.0 -210.0 316.0ZM240.0 320.0 176.0 233.0H-550.0L-542.0 206.0H326.0C340.0 206.0 351.0 211.0 354.0 222.0C312.0 261.0 240.0 320.0 240.0 320.0ZM-561.0 -424.0H-485.0L-474.0 -453.0H-561.0ZM-310.0 -303.0H-313.0L-301.0 -331.0H-310.0ZM-330.0 -80.0 -482.0 -66.0V-251.0C-482.0 -376.0 -491.0 -527.0 -565.0 -636.0L-555.0 -644.0C-399.0 -555.0 -365.0 -387.0 -364.0 -253.0V-106.0C-339.0 -103.0 -332.0 -92.0 -330.0 -80.0ZM289.0 -75.0 138.0 -61.0V-646.0H163.0C206.0 -646.0 262.0 -621.0 262.0 -610.0V-97.0C282.0 -92.0 287.0 -85.0 289.0 -75.0Z"/></g>
<g fill="green" transform="translate(1500 100) scale(0.1 -0.1)"><path d="M0.0 0.0 19.0 -48.0C77.0 -10.0 142.0 36.0 169.0 53.0L162.0 67.0C97.0 40.0 31.0 12.0 0.0 0.0ZM46.0 176.0H12.0V35.0C12.0 22.0 9.0 16.0 -15.0 5.0L13.0 -53.0C25.0 -48.0 45.0 -28.0 35.0 4.0L20.0 -13.0L54.0 1.0V171.0ZM94.0 168.0 12.0 178.0V101.0H54.0V141.0C79.0 144.0 92.0 154.0 94.0 168.0ZM166.0 163.0 148.0 154.0C177.0 76.0 233.0 -1.0 286.0 -44.0C291.0 -22.0 304.0 -12.0 323.0 -10.0L324.0 -1.0C268.0 31.0 198.0 97.0 166.0 163.0ZM277.0 159.0 228.0 209.0C174.0 185.0 76.0 154.0 3.0 139.0L9.0 123.0C86.0 129.0 181.0 146.0 240.0 161.0C259.0 152.0 270.0 151.0 277.0 159.0ZM36.0 203.0 -36.0 226.0C-64.0 173.0 -95.0 121.0 -125.0 90.0L-95.0 91.0C-64.0 113.0 -32.0 149.0 -5.0 185.0C16.0 185.0 29.0 192.0 36.0 203.0ZM-227.0 217.0 -239.0 210.0C-216.0 187.0 -192.0 153.0 -185.0 124.0C-143.0 96.0 -107.0 176.0 -227.0 217.0ZM-368.0 154.0H-410.0C-421.0 115.0 -448.0 22.0 -573.0 -52.0L-552.0 -65.0C-400.0 13.0 -380.0 108.0 -368.0 154.0ZM-278.0 157.0H-268.0C-270.0 63.0 -277.0 22.0 -286.0 11.0C-292.0 5.0 -299.0 6.0 -310.0 6.0C-324.0 6.0 -360.0 8.0 -381.0 11.0L-383.0 -10.0C-366.0 -12.0 -344.0 -16.0 -336.0 -20.0C-328.0 -26.0 -325.0 -41.0 -325.0 -51.0C-302.0 -51.0 -280.0 -44.0 -265.0 -32.0C-242.0 -15.0 -234.0 29.0 -232.0 124.0C-213.0 128.0 -201.0 130.0 -194.0 138.0L-253.0 185.0ZM-249.0 157.0H-532.0L-523.0 127.0H-249.0ZM-72.0 101.0 -143.0 109.0V-78.0H-133.0C-120.0 -78.0 -103.0 -67.0 -103.0 -61.0V78.0C-82.0 81.0 -74.0 89.0 -72.0 101.0ZM-174.0 367.0 -187.0 359.0C-167.0 338.0 -153.0 303.0 -154.0 274.0C-111.0 237.0 -65.0 324.0 -174.0 367.0ZM238.0 307.0 193.0 254.0H-521.0L-513.0 224.0H292.0C306.0 224.0 316.0 229.0 319.0 240.0C287.0 271.0 238.0 307.0 238.0 307.0ZM-536.0 -376.0H-534.0L-523.0 -405.0H-536.0ZM-269.0 -265.0H-366.0L-354.0 -293.0H-269.0ZM-369.0 -41.0 -448.0 -32.0V-193.0C-448.0 -313.0 -457.0 -465.0 -523.0 -571.0L-507.0 -584.0C-417.0 -478.0 -404.0 -315.0 -403.0 -195.0V-67.0C-379.0 -64.0 -371.0 -54.0 -369.0 -41.0ZM230.0 -41.0 153.0 -31.0V-580.0H162.0C180.0 -580.0 198.0 -568.0 198.0 -560.0V-65.0C220.0 -62.0 228.0 -53.0 230.0 -41.0Z"/></g>
<g fill="green" transform="translate(1600 100) scale(0.1 -0.1)"><path d="M0.0 0.0 33.0 -98.0C104.0 -61.0 175.0 -18.0 207.0 1.0L205.0 15.0C123.0 8.0 38.0 1.0 0.0 0.0ZM84.0 159.0H8.0V38.0C8.0 21.0 4.0 12.0 -24.0 -2.0L25.0 -108.0C48.0 -99.0 76.0 -65.0 68.0 -5.0L26.0 -38.0L109.0 -7.0V144.0ZM130.0 153.0 8.0 165.0V86.0H109.0V133.0C123.0 136.0 129.0 143.0 130.0 153.0ZM159.0 127.0 147.0 119.0C167.0 40.0 210.0 -54.0 254.0 -113.0C269.0 -61.0 292.0 -32.0 327.0 -22.0L329.0 -12.0C277.0 20.0 200.0 72.0 159.0 127.0ZM314.0 136.0 209.0 229.0C187.0 197.0 144.0 149.0 105.0 123.0L111.0 111.0C163.0 112.0 228.0 122.0 265.0 133.0C291.0 126.0 307.0 128.0 314.0 136.0ZM96.0 162.0 -37.0 204.0C-57.0 149.0 -83.0 92.0 -102.0 56.0L-84.0 55.0C-40.0 78.0 14.0 110.0 57.0 144.0C78.0 143.0 91.0 150.0 96.0 162.0ZM-241.0 203.0 -249.0 197.0C-226.0 169.0 -202.0 121.0 -199.0 80.0C-113.0 18.0 -27.0 180.0 -241.0 203.0ZM-362.0 145.0H-477.0C-484.0 93.0 -497.0 -13.0 -588.0 -107.0L-571.0 -118.0C-396.0 -38.0 -373.0 78.0 -362.0 145.0ZM-328.0 142.0H-318.0C-320.0 52.0 -326.0 13.0 -337.0 4.0C-341.0 0.0 -346.0 -1.0 -359.0 -1.0C-374.0 -1.0 -402.0 0.0 -422.0 1.0V-12.0C-396.0 -18.0 -385.0 -26.0 -374.0 -39.0C-363.0 -53.0 -362.0 -77.0 -361.0 -104.0C-320.0 -104.0 -291.0 -97.0 -267.0 -82.0C-231.0 -58.0 -220.0 -17.0 -215.0 99.0C-197.0 101.0 -185.0 107.0 -179.0 114.0L-275.0 192.0ZM-301.0 142.0H-553.0L-544.0 114.0H-301.0ZM-37.0 63.0 -177.0 75.0V-129.0H-156.0C-114.0 -129.0 -63.0 -110.0 -63.0 -103.0V42.0C-46.0 45.0 -39.0 53.0 -37.0 63.0ZM-219.0 326.0 -226.0 321.0C-208.0 300.0 -188.0 262.0 -184.0 225.0C-68.0 152.0 46.0 359.0 -219.0 326.0ZM216.0 318.0 150.0 226.0H-552.0L-544.0 198.0H306.0C321.0 198.0 331.0 203.0 335.0 214.0C292.0 256.0 216.0 318.0 216.0 318.0ZM-547.0 -436.0H-504.0L-493.0 -465.0H-547.0ZM-263.0 -318.0H-312.0L-301.0 -346.0H-263.0ZM-311.0 -114.0 -472.0 -98.0V-212.0C-472.0 -339.0 -473.0 -518.0 -541.0 -644.0L-531.0 -651.0C-373.0 -551.0 -347.0 -348.0 -344.0 -216.0V-140.0C-319.0 -137.0 -313.0 -125.0 -311.0 -114.0ZM285.0 -109.0 119.0 -95.0V-653.0H146.0C194.0 -653.0 255.0 -628.0 255.0 -617.0V-134.0C277.0 -128.0 283.0 -120.0 285.0 -109.0Z"/></g>
<g fill="red" transform="translate(100 200) scale(0.1 -0.1)"><path d="M0.0 0.0 19.0 -47.0C66.0 -16.0 123.0 25.0 145.0 39.0L138.0 53.0C84.0 31.0 28.0 9.0 0.0 0.0ZM40.0 181.0H7.0V31.0C7.0 18.0 3.0 14.0 -20.0 2.0L8.0 -58.0C20.0 -53.0 40.0 -32.0 31.0 0.0L14.0 -17.0L49.0 -4.0V175.0ZM87.0 192.0 7.0 202.0V126.0H49.0V165.0C73.0 168.0 85.0 178.0 87.0 192.0ZM126.0 200.0 107.0 193.0C130.0 80.0 170.0 -5.0 236.0 -53.0C241.0 -35.0 254.0 -26.0 273.0 -23.0V-13.0C206.0 24.0 152.0 100.0 126.0 200.0ZM244.0 201.0 196.0 248.0C148.0 223.0 66.0 187.0 12.0 169.0L20.0 158.0C80.0 167.0 164.0 186.0 213.0 200.0C230.0 193.0 239.0 194.0 244.0 201.0ZM58.0 249.0 -8.0 281.0C-33.0 227.0 -65.0 174.0 -93.0 140.0L-78.0 128.0C-44.0 154.0 -7.0 195.0 22.0 236.0C40.0 233.0 53.0 240.0 58.0 249.0ZM-195.0 275.0 -207.0 267.0C-178.0 242.0 -145.0 199.0 -138.0 166.0C-96.0 136.0 -64.0 222.0 -195.0 275.0ZM-292.0 184.0H-336.0C-340.0 117.0 -354.0 32.0 -454.0 -40.0L-438.0 -55.0C-318.0 14.0 -299.0 108.0 -292.0 184.0ZM-225.0 192.0H-215.0C-219.0 75.0 -229.0 25.0 -242.0 13.0C-247.0 8.0 -253.0 7.0 -264.0 7.0C-278.0 7.0 -307.0 9.0 -326.0 10.0V-9.0C-312.0 -10.0 -296.0 -14.0 -289.0 -20.0C-280.0 -26.0 -278.0 -39.0 -278.0 -48.0C-257.0 -48.0 -235.0 -42.0 -219.0 -30.0C-194.0 -9.0 -182.0 40.0 -178.0 160.0C-159.0 163.0 -147.0 166.0 -141.0 174.0L-200.0 221.0ZM-196.0 193.0H-420.0L-411.0 163.0H-196.0ZM-41.0 145.0 -114.0 154.0V-70.0H-105.0C-88.0 -70.0 -70.0 -58.0 -70.0 -52.0V122.0C-51.0 126.0 -43.0 134.0 -41.0 145.0ZM-159.0 425.0 -171.0 417.0C-142.0 393.0 -113.0 350.0 -109.0 315.0C-63.0 280.0 -23.0 378.0 -159.0 425.0ZM182.0 364.0 142.0 316.0H-404.0L-396.0 286.0H232.0C246.0 286.0 256.0 291.0 259.0 302.0C229.0 330.0 182.0 364.0 182.0 364.0ZM104.0 -286.0H-308.0V-316.0H104.0ZM101.0 -145.0H-301.0V-175.0H101.0ZM-236.0 -68.0 -314.0 -59.0V-216.0C-314.0 -311.0 -335.0 -411.0 -441.0 -479.0L-427.0 -492.0C-295.0 -423.0 -271.0 -315.0 -270.0 -218.0V-92.0C-246.0 -90.0 -239.0 -81.0 -236.0 -68.0ZM160.0 -68.0 79.0 -58.0V-491.0H88.0C105.0 -491.0 123.0 -479.0 123.0 -472.0V-94.0C148.0 -91.0 158.0 -82.0 160.0 -68.0Z"/></g>
<g fill="black" opacity=".8" transform="translate(100 200) scale(0.1 -0.1)"><path d="M0.0 0.0 18.0 -48.0C67.0 -17.0 124.0 25.0 144.0 39.0L138.0 51.0C84.0 32.0 28.0 10.0 0.0 0.0ZM41.0 181.0H7.0V32.0C7.0 18.0 4.0 14.0 -20.0 2.0L8.0 -58.0C19.0 -53.0 39.0 -33.0 31.0 -1.0L15.0 -16.0L48.0 -3.0V175.0ZM88.0 191.0 7.0 201.0V126.0H48.0V166.0C73.0 168.0 85.0 178.0 88.0 191.0ZM125.0 200.0 106.0 194.0C131.0 80.0 169.0 -6.0 235.0 -53.0C240.0 -34.0 253.0 -26.0 273.0 -24.0V-13.0C206.0 24.0 152.0 101.0 125.0 200.0ZM243.0 201.0 196.0 248.0C148.0 222.0 66.0 186.0 12.0 168.0L20.0 159.0C81.0 167.0 163.0 187.0 213.0 201.0C229.0 192.0 240.0 194.0 243.0 201.0ZM57.0 249.0 -7.0 281.0C-33.0 228.0 -65.0 174.0 -93.0 140.0L-78.0 128.0C-44.0 153.0 -7.0 195.0 22.0 235.0C41.0 231.0 53.0 240.0 57.0 249.0ZM-195.0 275.0 -207.0 268.0C-178.0 241.0 -145.0 198.0 -139.0 166.0C-97.0 136.0 -64.0 222.0 -195.0 275.0ZM-293.0 184.0H-334.0C-339.0 117.0 -355.0 32.0 -455.0 -41.0L-438.0 -56.0C-318.0 14.0 -299.0 108.0 -293.0 184.0ZM-225.0 192.0H-214.0C-219.0 75.0 -229.0 25.0 -241.0 13.0C-247.0 7.0 -253.0 7.0 -264.0 7.0C-279.0 7.0 -307.0 9.0 -326.0 11.0V-10.0C-311.0 -11.0 -296.0 -14.0 -289.0 -19.0C-280.0 -26.0 -278.0 -39.0 -278.0 -48.0C-257.0 -47.0 -234.0 -42.0 -219.0 -30.0C-194.0 -8.0 -181.0 40.0 -178.0 160.0C-159.0 162.0 -147.0 167.0 -141.0 174.0L-200.0 221.0ZM-195.0 192.0H-420.0L-411.0 163.0H-195.0ZM-41.0 144.0 -115.0 153.0V-70.0H-103.0C-89.0 -70.0 -70.0 -57.0 -70.0 -52.0V122.0C-51.0 126.0 -43.0 134.0 -41.0 144.0ZM-158.0 425.0 -171.0 417.0C-141.0 392.0 -113.0 350.0 -109.0 314.0C-63.0 280.0 -24.0 378.0 -158.0 425.0ZM182.0 364.0 141.0 315.0H-404.0L-397.0 286.0H233.0C246.0 286.0 256.0 290.0 258.0 301.0C229.0 331.0 182.0 364.0 182.0 364.0ZM103.0 -286.0H-308.0V-316.0H103.0ZM102.0 -145.0H-302.0L-301.0 -176.0H102.0ZM-237.0 -67.0 -314.0 -59.0V-217.0C-314.0 -311.0 -334.0 -411.0 -441.0 -478.0L-427.0 -492.0C-295.0 -423.0 -271.0 -316.0 -271.0 -218.0V-92.0C-246.0 -90.0 -239.0 -81.0 -237.0 -67.0ZM159.0 -68.0 79.0 -58.0V-491.0H87.0C106.0 -491.0 123.0 -479.0 123.0 -471.0V-94.0C148.0 -90.0 157.0 -81.0 159.0 -68.0Z"/></g>
<g fill="red" transform="translate(200 200) scale(0.1 -0.1)"><path d="M0.0 0.0 41.0 -88.0C95.0 -43.0 150.0 8.0 172.0 30.0L168.0 42.0C102.0 24.0 32.0 6.0 0.0 0.0ZM75.0 162.0H11.0V27.0C11.0 10.0 7.0 3.0 -20.0 -11.0L23.0 -103.0C42.0 -94.0 68.0 -65.0 60.0 -13.0L25.0 -41.0L95.0 -16.0V150.0ZM118.0 178.0 11.0 189.0V112.0H95.0V158.0C110.0 161.0 117.0 168.0 118.0 178.0ZM141.0 172.0 129.0 167.0C142.0 55.0 162.0 -40.0 199.0 -102.0C214.0 -46.0 239.0 -14.0 278.0 -3.0L280.0 7.0C227.0 40.0 170.0 98.0 141.0 172.0ZM281.0 174.0 177.0 260.0C151.0 232.0 100.0 183.0 66.0 157.0L74.0 147.0C123.0 153.0 205.0 161.0 245.0 170.0C266.0 164.0 276.0 167.0 281.0 174.0ZM106.0 218.0 -9.0 275.0C-28.0 219.0 -50.0 158.0 -66.0 120.0L-52.0 112.0C-14.0 136.0 29.0 171.0 67.0 203.0C87.0 200.0 101.0 207.0 106.0 218.0ZM-188.0 265.0 -197.0 259.0C-177.0 235.0 -156.0 193.0 -154.0 156.0C-74.0 97.0 12.0 246.0 -188.0 265.0ZM-274.0 183.0H-370.0C-372.0 100.0 -376.0 -6.0 -450.0 -100.0L-436.0 -113.0C-310.0 -32.0 -281.0 87.0 -274.0 183.0ZM-267.0 183.0H-257.0C-258.0 56.0 -261.0 11.0 -271.0 1.0C-275.0 -4.0 -279.0 -5.0 -290.0 -5.0C-304.0 -5.0 -324.0 -5.0 -338.0 -4.0V-18.0C-319.0 -23.0 -310.0 -29.0 -301.0 -41.0C-292.0 -53.0 -291.0 -71.0 -291.0 -95.0C-253.0 -95.0 -227.0 -90.0 -205.0 -74.0C-173.0 -50.0 -166.0 -8.0 -164.0 141.0C-146.0 144.0 -135.0 150.0 -128.0 157.0L-219.0 230.0ZM-216.0 183.0H-429.0L-420.0 155.0H-216.0ZM-8.0 123.0 -131.0 134.0V-112.0H-112.0C-77.0 -112.0 -31.0 -94.0 -31.0 -87.0V103.0C-15.0 106.0 -9.0 113.0 -8.0 123.0ZM-176.0 421.0 -183.0 416.0C-160.0 388.0 -139.0 341.0 -139.0 297.0C-30.0 214.0 92.0 417.0 -176.0 421.0ZM146.0 381.0 78.0 292.0H-401.0L-393.0 264.0H241.0C256.0 264.0 267.0 269.0 270.0 280.0C224.0 321.0 146.0 381.0 146.0 381.0ZM118.0 -332.0H-257.0V-360.0H118.0ZM118.0 -190.0H-257.0V-218.0H118.0ZM-152.0 -113.0 -324.0 -97.0V-216.0C-324.0 -317.0 -337.0 -443.0 -440.0 -531.0L-434.0 -539.0C-227.0 -473.0 -187.0 -330.0 -184.0 -218.0V-139.0C-161.0 -136.0 -154.0 -126.0 -152.0 -113.0ZM211.0 -111.0 32.0 -96.0V-535.0H57.0C112.0 -535.0 174.0 -512.0 174.0 -503.0V-140.0C202.0 -135.0 209.0 -125.0 211.0 -111.0Z"/></g>
<g fill="black" opacity=".8" transform="translate(200 200) scale(0.1 -0.1)"><path d="M0.0 0.0 41.0 -88.0C95.0 -43.0 150.0 9.0 172.0 30.0L168.0 42.0C101.0 25.0 32.0 6.0 0.0 0.0ZM76.0 162.0H11.0V26.0C11.0 10.0 7.0 2.0 -21.0 -10.0L23.0 -103.0C42.0 -94.0 67.0 -65.0 59.0 -12.0L24.0 -40.0L95.0 -15.0V150.0ZM118.0 179.0 11.0 190.0V112.0H95.0V158.0C110.0 161.0 117.0 167.0 118.0 179.0ZM141.0 172.0 130.0 166.0C142.0 56.0 162.0 -40.0 199.0 -102.0C214.0 -45.0 239.0 -14.0 277.0 -2.0L280.0 6.0C227.0 41.0 170.0 98.0 141.0 172.0ZM281.0 175.0 177.0 260.0C150.0 233.0 100.0 183.0 65.0 156.0L72.0 147.0C123.0 153.0 206.0 161.0 244.0 169.0C265.0 164.0 276.0 167.0 281.0 175.0ZM106.0 218.0 -8.0 276.0C-29.0 219.0 -50.0 158.0 -65.0 120.0L-52.0 112.0C-13.0 137.0 29.0 171.0 67.0 204.0C87.0 201.0 101.0 208.0 106.0 218.0ZM-188.0 265.0 -197.0 260.0C-177.0 235.0 -155.0 194.0 -155.0 156.0C-74.0 97.0 12.0 247.0 -188.0 265.0ZM-274.0 184.0H-369.0C-372.0 100.0 -376.0 -6.0 -451.0 -101.0L-437.0 -112.0C-311.0 -32.0 -281.0 87.0 -274.0 184.0ZM-267.0 183.0H-258.0C-258.0 56.0 -260.0 10.0 -270.0 1.0C-274.0 -5.0 -279.0 -6.0 -290.0 -6.0C-304.0 -6.0 -323.0 -6.0 -339.0 -4.0V-17.0C-318.0 -23.0 -310.0 -29.0 -302.0 -40.0C-292.0 -53.0 -291.0 -71.0 -291.0 -95.0C-253.0 -95.0 -226.0 -89.0 -204.0 -74.0C-173.0 -49.0 -166.0 -8.0 -164.0 141.0C-146.0 144.0 -135.0 150.0 -129.0 157.0L-219.0 230.0ZM-216.0 183.0H-429.0L-420.0 155.0H-216.0ZM-7.0 123.0 -131.0 135.0V-112.0H-112.0C-77.0 -112.0 -31.0 -95.0 -31.0 -87.0V103.0C-16.0 106.0 -8.0 112.0 -7.0 123.0ZM-176.0 421.0 -184.0 415.0C-159.0 388.0 -139.0 342.0 -139.0 296.0C-29.0 214.0 93.0 416.0 -176.0 421.0ZM146.0 381.0 77.0 292.0H-402.0L-393.0 263.0H242.0C257.0 263.0 266.0 269.0 270.0 280.0C225.0 322.0 146.0 381.0 146.0 381.0ZM119.0 -331.0H-257.0V-360.0H119.0ZM118.0 -190.0H-258.0V-219.0H118.0ZM-152.0 -114.0 -324.0 -97.0V-216.0C-324.0 -318.0 -337.0 -443.0 -439.0 -531.0L-433.0 -539.0C-227.0 -473.0 -186.0 -330.0 -184.0 -219.0V-139.0C-161.0 -136.0 -155.0 -126.0 -152.0 -114.0ZM211.0 -112.0 31.0 -96.0V-535.0H57.0C112.0 -535.0 174.0 -513.0 174.0 -503.0V-141.0C201.0 -135.0 209.0 -125.0 211.0 -112.0Z"/></g>
<g fill="red" transform="translate(300 200) scale(0.1 -0.1)"><path d="M0.0 0.0 16.0 -42.0C59.0 -15.0 114.0 22.0 133.0 34.0L127.0 49.0C78.0 29.0 26.0 9.0 0.0 0.0ZM43.0 171.0H10.0V28.0C10.0 15.0 7.0 10.0 -14.0 0.0L11.0 -51.0C22.0 -46.0 40.0 -28.0 32.0 1.0L18.0 -15.0L53.0 -2.0V165.0ZM91.0 217.0 10.0 227.0V151.0H53.0V189.0C78.0 193.0 89.0 203.0 91.0 217.0ZM113.0 219.0 93.0 212.0C115.0 96.0 152.0 8.0 214.0 -42.0C219.0 -26.0 232.0 -18.0 249.0 -16.0L250.0 -6.0C186.0 34.0 137.0 116.0 113.0 219.0ZM222.0 222.0 172.0 266.0C133.0 242.0 66.0 206.0 20.0 188.0L29.0 176.0C79.0 186.0 150.0 206.0 191.0 219.0C208.0 213.0 217.0 215.0 222.0 222.0ZM63.0 287.0 -4.0 316.0C-25.0 264.0 -51.0 213.0 -75.0 180.0L-59.0 169.0C-30.0 194.0 3.0 234.0 28.0 272.0C46.0 270.0 58.0 278.0 63.0 287.0ZM-177.0 308.0 -189.0 300.0C-160.0 275.0 -127.0 231.0 -119.0 197.0C-78.0 167.0 -45.0 253.0 -177.0 308.0ZM-254.0 207.0H-301.0C-304.0 134.0 -314.0 38.0 -397.0 -44.0L-381.0 -60.0C-275.0 18.0 -260.0 124.0 -254.0 207.0ZM-208.0 217.0H-198.0C-199.0 82.0 -202.0 34.0 -212.0 22.0C-216.0 17.0 -222.0 16.0 -231.0 16.0C-245.0 16.0 -269.0 18.0 -288.0 19.0V1.0C-274.0 -1.0 -259.0 -5.0 -252.0 -10.0C-244.0 -16.0 -242.0 -28.0 -242.0 -38.0C-222.0 -38.0 -200.0 -34.0 -184.0 -20.0C-163.0 -1.0 -157.0 46.0 -155.0 184.0C-137.0 187.0 -126.0 191.0 -119.0 198.0L-181.0 247.0ZM-157.0 217.0H-371.0L-362.0 187.0H-157.0ZM-29.0 174.0 -102.0 183.0V-68.0H-93.0C-76.0 -68.0 -58.0 -56.0 -58.0 -50.0V151.0C-39.0 155.0 -31.0 163.0 -29.0 174.0ZM-133.0 455.0 -145.0 447.0C-119.0 424.0 -95.0 382.0 -93.0 349.0C-49.0 313.0 -7.0 406.0 -133.0 455.0ZM163.0 391.0 124.0 345.0H-367.0L-359.0 315.0H210.0C224.0 315.0 233.0 320.0 236.0 331.0C207.0 358.0 163.0 391.0 163.0 391.0ZM-432.0 -156.0H-595.0V-186.0H-432.0ZM114.0 -133.0H-246.0V-163.0H114.0ZM-201.0 -60.0 -279.0 -51.0V-151.0C-279.0 -245.0 -294.0 -370.0 -379.0 -454.0L-364.0 -468.0C-253.0 -383.0 -236.0 -248.0 -235.0 -153.0V-84.0C-211.0 -82.0 -204.0 -72.0 -201.0 -60.0ZM161.0 -60.0 80.0 -50.0V-460.0H89.0C106.0 -460.0 124.0 -448.0 124.0 -441.0V-86.0C149.0 -83.0 159.0 -74.0 161.0 -60.0Z"/></g>
<g fill="black" opacity=".8" transform="translate(300 200) scale(0.1 -0.1)"><path d="M0.0 0.0 16.0 -43.0C60.0 -15.0 114.0 22.0 133.0 34.0L127.0 48.0C78.0 30.0 26.0 10.0 0.0 0.0ZM44.0 170.0H10.0V29.0C10.0 15.0 8.0 10.0 -13.0 -0.0L11.0 -51.0C21.0 -46.0 39.0 -28.0 32.0 1.0L18.0 -14.0L53.0 -1.0V165.0ZM92.0 217.0 10.0 226.0V151.0H53.0V190.0C78.0 193.0 89.0 203.0 92.0 217.0ZM112.0 219.0 93.0 212.0C116.0 96.0 151.0 7.0 213.0 -42.0C217.0 -26.0 231.0 -17.0 249.0 -17.0L250.0 -6.0C187.0 34.0 137.0 117.0 112.0 219.0ZM221.0 222.0 172.0 266.0C133.0 241.0 66.0 205.0 20.0 187.0L30.0 176.0C80.0 186.0 149.0 207.0 190.0 219.0C208.0 212.0 218.0 215.0 221.0 222.0ZM62.0 287.0 -3.0 316.0C-25.0 265.0 -51.0 213.0 -74.0 180.0L-59.0 169.0C-30.0 193.0 3.0 235.0 28.0 271.0C47.0 269.0 57.0 278.0 62.0 287.0ZM-177.0 309.0 -189.0 301.0C-160.0 274.0 -128.0 230.0 -120.0 197.0C-78.0 167.0 -45.0 253.0 -177.0 309.0ZM-255.0 207.0H-299.0C-303.0 134.0 -314.0 38.0 -398.0 -45.0L-381.0 -61.0C-276.0 18.0 -260.0 124.0 -255.0 207.0ZM-208.0 216.0H-198.0C-199.0 82.0 -202.0 34.0 -212.0 23.0C-216.0 16.0 -222.0 16.0 -231.0 16.0C-245.0 16.0 -269.0 18.0 -288.0 19.0V0.0C-273.0 -2.0 -258.0 -6.0 -252.0 -9.0C-244.0 -16.0 -242.0 -28.0 -242.0 -38.0C-221.0 -37.0 -199.0 -34.0 -183.0 -20.0C-163.0 -0.0 -157.0 46.0 -155.0 184.0C-136.0 186.0 -126.0 192.0 -118.0 198.0L-181.0 247.0ZM-156.0 216.0H-371.0L-362.0 187.0H-156.0ZM-28.0 173.0 -102.0 183.0V-67.0H-91.0C-77.0 -67.0 -57.0 -56.0 -57.0 -50.0V151.0C-39.0 155.0 -31.0 163.0 -28.0 173.0ZM-132.0 455.0 -144.0 448.0C-118.0 424.0 -95.0 382.0 -93.0 349.0C-49.0 313.0 -8.0 405.0 -132.0 455.0ZM163.0 391.0 123.0 344.0H-367.0L-360.0 315.0H211.0C223.0 315.0 233.0 320.0 236.0 331.0C208.0 359.0 163.0 391.0 163.0 391.0ZM-432.0 -156.0H-595.0L-594.0 -186.0H-432.0ZM114.0 -134.0H-247.0L-245.0 -163.0H114.0ZM-202.0 -59.0 -279.0 -51.0V-152.0C-279.0 -245.0 -294.0 -370.0 -379.0 -454.0L-363.0 -467.0C-253.0 -383.0 -236.0 -249.0 -236.0 -153.0V-85.0C-211.0 -82.0 -205.0 -72.0 -202.0 -59.0ZM160.0 -60.0 80.0 -50.0V-460.0H89.0C106.0 -460.0 124.0 -448.0 124.0 -440.0V-86.0C148.0 -82.0 159.0 -74.0 160.0 -60.0Z"/></g>
<g fill="red" transform="translate(400 200) scale(0.1 -0.1)"><path d="M0.0 0.0 36.0 -79.0C84.0 -40.0 137.0 6.0 155.0 25.0L152.0 38.0C92.0 21.0 29.0 6.0 0.0 0.0ZM82.0 149.0H20.0V38.0C20.0 22.0 16.0 15.0 -10.0 1.0L31.0 -88.0C50.0 -79.0 76.0 -51.0 67.0 -1.0L34.0 -28.0L101.0 -4.0V137.0ZM125.0 191.0 20.0 202.0V125.0H101.0V171.0C117.0 174.0 123.0 181.0 125.0 191.0ZM142.0 188.0 130.0 183.0C140.0 67.0 156.0 -27.0 191.0 -90.0C205.0 -35.0 230.0 -3.0 268.0 7.0L270.0 17.0C218.0 50.0 167.0 112.0 142.0 188.0ZM271.0 187.0 180.0 263.0C151.0 234.0 97.0 186.0 60.0 160.0L68.0 149.0C117.0 158.0 197.0 172.0 237.0 183.0C257.0 177.0 266.0 180.0 271.0 187.0ZM111.0 234.0 3.0 288.0C-16.0 234.0 -37.0 175.0 -52.0 138.0L-38.0 130.0C-3.0 154.0 37.0 189.0 72.0 220.0C92.0 217.0 106.0 224.0 111.0 234.0ZM-161.0 278.0 -171.0 272.0C-151.0 248.0 -130.0 206.0 -127.0 171.0C-55.0 116.0 23.0 252.0 -161.0 278.0ZM-239.0 196.0H-328.0C-329.0 104.0 -331.0 -1.0 -398.0 -91.0L-384.0 -105.0C-267.0 -25.0 -244.0 91.0 -239.0 196.0ZM-228.0 204.0H-218.0C-219.0 73.0 -222.0 28.0 -232.0 18.0C-236.0 13.0 -241.0 12.0 -251.0 12.0C-264.0 12.0 -283.0 12.0 -297.0 13.0V-2.0C-280.0 -6.0 -271.0 -12.0 -263.0 -22.0C-254.0 -34.0 -253.0 -50.0 -253.0 -72.0C-218.0 -72.0 -193.0 -68.0 -171.0 -52.0C-141.0 -29.0 -135.0 13.0 -133.0 164.0C-114.0 167.0 -103.0 172.0 -96.0 179.0L-183.0 249.0ZM-171.0 204.0H-374.0L-365.0 176.0H-171.0ZM6.0 136.0 -107.0 147.0V-108.0H-90.0C-58.0 -108.0 -17.0 -91.0 -17.0 -84.0V117.0C-1.0 120.0 5.0 127.0 6.0 136.0ZM-149.0 426.0 -156.0 421.0C-136.0 397.0 -117.0 355.0 -118.0 315.0C-14.0 237.0 104.0 428.0 -149.0 426.0ZM152.0 392.0 89.0 309.0H-362.0L-354.0 281.0H239.0C253.0 281.0 264.0 286.0 267.0 297.0C224.0 336.0 152.0 392.0 152.0 392.0ZM-444.0 -194.0H-580.0V-222.0H-444.0ZM107.0 -177.0H-234.0V-205.0H107.0ZM-136.0 -99.0 -299.0 -84.0V-203.0C-299.0 -302.0 -310.0 -429.0 -398.0 -518.0L-390.0 -527.0C-207.0 -457.0 -171.0 -314.0 -169.0 -205.0V-125.0C-146.0 -122.0 -138.0 -112.0 -136.0 -99.0ZM198.0 -102.0 30.0 -87.0V-526.0H53.0C104.0 -526.0 161.0 -505.0 161.0 -495.0V-130.0C189.0 -126.0 196.0 -115.0 198.0 -102.0Z"/></g>
<g fill="black" opacity=".8" transform="translate(400 200) scale(0.1 -0.1)"><path d="M0.0 0.0 36.0 -79.0C85.0 -40.0 137.0 7.0 156.0 24.0L152.0 38.0C91.0 22.0 30.0 6.0 0.0 0.0ZM83.0 148.0H20.0V37.0C20.0 22.0 16.0 15.0 -11.0 1.0L32.0 -88.0C50.0 -79.0 75.0 -51.0 66.0 -1.0L33.0 -27.0L101.0 -4.0V137.0ZM125.0 192.0 20.0 203.0V126.0H101.0V171.0C117.0 174.0 123.0 180.0 125.0 192.0ZM143.0 188.0 131.0 182.0C140.0 68.0 156.0 -27.0 191.0 -90.0C205.0 -35.0 230.0 -3.0 267.0 8.0L270.0 17.0C218.0 51.0 167.0 112.0 143.0 188.0ZM271.0 187.0 180.0 263.0C150.0 235.0 97.0 186.0 60.0 159.0L66.0 149.0C117.0 158.0 198.0 173.0 237.0 182.0C257.0 178.0 266.0 180.0 271.0 187.0ZM111.0 234.0 4.0 289.0C-17.0 233.0 -37.0 174.0 -52.0 138.0L-38.0 130.0C-2.0 155.0 37.0 190.0 72.0 220.0C92.0 218.0 107.0 225.0 111.0 234.0ZM-160.0 278.0 -171.0 273.0C-152.0 248.0 -129.0 206.0 -127.0 171.0C-54.0 116.0 23.0 253.0 -160.0 278.0ZM-238.0 196.0H-327.0C-329.0 105.0 -331.0 -1.0 -399.0 -92.0L-385.0 -104.0C-268.0 -25.0 -244.0 91.0 -238.0 196.0ZM-228.0 204.0H-219.0C-218.0 74.0 -221.0 27.0 -231.0 18.0C-235.0 12.0 -241.0 11.0 -251.0 11.0C-264.0 11.0 -283.0 12.0 -297.0 13.0V-1.0C-280.0 -6.0 -271.0 -12.0 -263.0 -22.0C-254.0 -33.0 -252.0 -50.0 -253.0 -73.0C-218.0 -73.0 -192.0 -67.0 -170.0 -52.0C-141.0 -28.0 -135.0 13.0 -133.0 163.0C-114.0 167.0 -103.0 172.0 -96.0 180.0L-183.0 249.0ZM-171.0 204.0H-374.0L-365.0 176.0H-171.0ZM7.0 136.0 -107.0 148.0V-108.0H-90.0C-59.0 -108.0 -17.0 -92.0 -17.0 -84.0V117.0C-2.0 121.0 6.0 127.0 7.0 136.0ZM-149.0 426.0 -157.0 420.0C-135.0 397.0 -116.0 355.0 -118.0 315.0C-14.0 237.0 105.0 427.0 -149.0 426.0ZM152.0 392.0 88.0 309.0H-363.0L-354.0 281.0H239.0C254.0 281.0 264.0 287.0 267.0 297.0C225.0 336.0 152.0 392.0 152.0 392.0ZM-443.0 -193.0H-579.0L-580.0 -222.0H-443.0ZM107.0 -177.0H-234.0V-206.0H107.0ZM-136.0 -99.0 -299.0 -84.0V-204.0C-299.0 -303.0 -310.0 -430.0 -398.0 -518.0L-390.0 -528.0C-207.0 -458.0 -171.0 -314.0 -170.0 -205.0V-125.0C-146.0 -122.0 -138.0 -112.0 -136.0 -99.0ZM199.0 -102.0 29.0 -87.0V-525.0H54.0C104.0 -525.0 161.0 -505.0 161.0 -495.0V-131.0C188.0 -125.0 196.0 -115.0 199.0 -102.0Z"/></g>
<g fill="red" transform="translate(500 200) scale(0.1 -0.1)"><path d="M0.0 0.0 14.0 -42.0C59.0 -20.0 117.0 10.0 137.0 21.0L132.0 36.0C81.0 21.0 27.0 6.0 0.0 0.0ZM41.0 161.0H8.0V31.0C8.0 18.0 5.0 13.0 -16.0 2.0L9.0 -48.0C20.0 -44.0 38.0 -25.0 30.0 3.0L16.0 -12.0L51.0 -1.0V155.0ZM87.0 198.0 8.0 208.0V132.0H51.0V172.0C74.0 175.0 85.0 185.0 87.0 198.0ZM119.0 204.0 99.0 198.0C119.0 81.0 154.0 2.0 233.0 -41.0C237.0 -26.0 250.0 -16.0 268.0 -13.0V-2.0C190.0 30.0 142.0 101.0 119.0 204.0ZM227.0 210.0 177.0 254.0C138.0 230.0 71.0 194.0 25.0 176.0L34.0 164.0C84.0 174.0 155.0 194.0 196.0 207.0C213.0 201.0 222.0 203.0 227.0 210.0ZM60.0 256.0 -6.0 286.0C-24.0 242.0 -47.0 199.0 -67.0 173.0L-52.0 161.0C-27.0 181.0 2.0 211.0 25.0 242.0C43.0 239.0 55.0 247.0 60.0 256.0ZM-173.0 285.0 -185.0 277.0C-156.0 252.0 -125.0 208.0 -119.0 174.0C-78.0 142.0 -44.0 229.0 -173.0 285.0ZM-258.0 204.0H-304.0C-306.0 118.0 -314.0 32.0 -409.0 -38.0L-394.0 -54.0C-275.0 13.0 -263.0 107.0 -258.0 204.0ZM-203.0 210.0H-193.0C-196.0 87.0 -202.0 39.0 -214.0 27.0C-219.0 22.0 -225.0 21.0 -235.0 21.0C-249.0 21.0 -274.0 23.0 -293.0 24.0V5.0C-279.0 4.0 -264.0 0.0 -257.0 -6.0C-248.0 -13.0 -246.0 -23.0 -246.0 -33.0C-226.0 -33.0 -204.0 -29.0 -187.0 -16.0C-163.0 4.0 -154.0 50.0 -151.0 177.0C-133.0 180.0 -121.0 184.0 -115.0 191.0L-176.0 240.0ZM-157.0 210.0H-367.0L-358.0 180.0H-157.0ZM-27.0 171.0 -100.0 180.0V-40.0H-91.0C-74.0 -40.0 -56.0 -28.0 -56.0 -21.0V148.0C-37.0 152.0 -29.0 160.0 -27.0 171.0ZM-137.0 424.0 -148.0 416.0C-122.0 395.0 -96.0 358.0 -92.0 327.0C-47.0 295.0 -10.0 387.0 -137.0 424.0ZM181.0 375.0 143.0 329.0H-394.0L-386.0 299.0H230.0C243.0 299.0 252.0 304.0 255.0 315.0C227.0 342.0 181.0 375.0 181.0 375.0ZM119.0 -258.0H-269.0V-288.0H119.0ZM118.0 -129.0H-260.0V-159.0H118.0ZM-211.0 -49.0 -289.0 -40.0V-201.0C-289.0 -297.0 -310.0 -399.0 -416.0 -469.0L-402.0 -482.0C-270.0 -410.0 -246.0 -301.0 -245.0 -202.0V-73.0C-221.0 -71.0 -214.0 -62.0 -211.0 -49.0ZM182.0 -46.0 101.0 -36.0V-482.0H110.0C127.0 -482.0 145.0 -470.0 145.0 -464.0V-72.0C170.0 -69.0 180.0 -60.0 182.0 -46.0Z"/></g>
<g fill="black" opacity=".8" transform="translate(500 200) scale(0.1 -0.1)"><path d="M0.0 0.0 14.0 -43.0C60.0 -21.0 117.0 10.0 136.0 21.0L132.0 34.0C81.0 22.0 27.0 7.0 0.0 0.0ZM42.0 161.0H8.0V33.0C8.0 18.0 5.0 13.0 -15.0 2.0L9.0 -48.0C19.0 -44.0 37.0 -26.0 30.0 3.0L16.0 -11.0L51.0 0.0V155.0ZM88.0 198.0 8.0 207.0V132.0H51.0V173.0C75.0 175.0 85.0 185.0 88.0 198.0ZM118.0 203.0 98.0 199.0C120.0 81.0 153.0 2.0 232.0 -41.0C236.0 -26.0 249.0 -15.0 268.0 -14.0L267.0 -2.0C191.0 30.0 142.0 103.0 118.0 203.0ZM226.0 210.0 177.0 254.0C138.0 229.0 71.0 193.0 25.0 175.0L34.0 165.0C84.0 174.0 153.0 195.0 196.0 208.0C213.0 200.0 223.0 203.0 226.0 210.0ZM59.0 256.0 -5.0 286.0C-24.0 243.0 -46.0 199.0 -67.0 173.0L-52.0 161.0C-27.0 181.0 2.0 212.0 26.0 240.0C44.0 238.0 55.0 247.0 59.0 256.0ZM-173.0 286.0 -185.0 278.0C-156.0 252.0 -126.0 207.0 -120.0 174.0C-78.0 142.0 -43.0 229.0 -173.0 286.0ZM-259.0 203.0H-302.0C-305.0 118.0 -315.0 33.0 -410.0 -39.0L-394.0 -55.0C-275.0 13.0 -263.0 106.0 -259.0 203.0ZM-203.0 209.0H-192.0C-197.0 88.0 -202.0 39.0 -213.0 27.0C-219.0 21.0 -225.0 21.0 -234.0 21.0C-250.0 21.0 -274.0 23.0 -293.0 25.0V4.0C-278.0 3.0 -263.0 -0.0 -256.0 -5.0C-248.0 -12.0 -246.0 -23.0 -246.0 -33.0C-225.0 -32.0 -203.0 -29.0 -187.0 -16.0C-163.0 5.0 -153.0 50.0 -151.0 177.0C-132.0 178.0 -121.0 185.0 -115.0 191.0L-176.0 240.0ZM-157.0 208.0H-367.0L-358.0 180.0H-157.0ZM-27.0 170.0 -101.0 179.0V-39.0H-89.0C-75.0 -39.0 -56.0 -27.0 -56.0 -20.0V148.0C-37.0 152.0 -30.0 160.0 -27.0 170.0ZM-135.0 424.0 -147.0 417.0C-121.0 395.0 -96.0 358.0 -93.0 327.0C-47.0 295.0 -11.0 386.0 -135.0 424.0ZM181.0 375.0 141.0 328.0H-394.0L-387.0 299.0H231.0C243.0 299.0 251.0 303.0 254.0 314.0C227.0 343.0 181.0 375.0 181.0 375.0ZM119.0 -258.0H-270.0L-268.0 -288.0H119.0ZM119.0 -130.0H-261.0L-259.0 -159.0H119.0ZM-212.0 -48.0 -289.0 -40.0V-202.0C-289.0 -297.0 -310.0 -399.0 -416.0 -468.0L-401.0 -481.0C-270.0 -410.0 -246.0 -301.0 -246.0 -202.0V-73.0C-222.0 -71.0 -214.0 -62.0 -212.0 -48.0ZM181.0 -46.0 101.0 -36.0V-482.0H109.0C128.0 -482.0 144.0 -470.0 144.0 -463.0V-72.0C169.0 -68.0 179.0 -60.0 181.0 -46.0Z"/></g>
<g fill="red" transform="translate(600 200) scale(0.1 -0.1)"><path d="M0.0 0.0 36.0 -79.0C90.0 -38.0 148.0 9.0 170.0 29.0L166.0 42.0C101.0 23.0 31.0 6.0 0.0 0.0ZM81.0 138.0H19.0V39.0C19.0 23.0 15.0 16.0 -11.0 2.0L30.0 -87.0C49.0 -78.0 75.0 -50.0 66.0 0.0L33.0 -26.0L100.0 -3.0V126.0ZM124.0 168.0 19.0 179.0V102.0H100.0V148.0C116.0 151.0 122.0 158.0 124.0 168.0ZM146.0 165.0 134.0 161.0C141.0 45.0 153.0 -39.0 194.0 -96.0C206.0 -40.0 230.0 -6.0 268.0 5.0L269.0 15.0C212.0 40.0 165.0 95.0 146.0 165.0ZM262.0 168.0 157.0 253.0C133.0 225.0 86.0 176.0 54.0 150.0L62.0 140.0C109.0 146.0 188.0 154.0 227.0 164.0C247.0 157.0 257.0 160.0 262.0 168.0ZM93.0 216.0 -17.0 265.0C-30.0 218.0 -44.0 168.0 -54.0 137.0L-39.0 129.0C-10.0 148.0 25.0 176.0 54.0 200.0C75.0 197.0 88.0 205.0 93.0 216.0ZM-170.0 255.0 -180.0 249.0C-161.0 228.0 -140.0 191.0 -137.0 159.0C-64.0 108.0 10.0 242.0 -170.0 255.0ZM-259.0 163.0H-342.0C-343.0 65.0 -342.0 -22.0 -406.0 -92.0L-393.0 -107.0C-279.0 -44.0 -263.0 52.0 -259.0 163.0ZM-239.0 173.0H-229.0C-230.0 59.0 -233.0 19.0 -241.0 10.0C-245.0 6.0 -250.0 4.0 -260.0 4.0C-273.0 4.0 -291.0 5.0 -304.0 6.0V-9.0C-288.0 -14.0 -279.0 -19.0 -272.0 -29.0C-263.0 -40.0 -262.0 -56.0 -262.0 -76.0C-229.0 -76.0 -205.0 -72.0 -184.0 -57.0C-156.0 -36.0 -149.0 2.0 -147.0 133.0C-129.0 137.0 -118.0 141.0 -111.0 149.0L-196.0 216.0ZM-192.0 173.0H-376.0L-367.0 145.0H-192.0ZM2.0 148.0 -111.0 159.0V-73.0H-94.0C-62.0 -73.0 -21.0 -57.0 -21.0 -49.0V129.0C-4.0 132.0 1.0 139.0 2.0 148.0ZM-160.0 403.0 -167.0 398.0C-147.0 374.0 -128.0 332.0 -129.0 292.0C-25.0 214.0 93.0 405.0 -160.0 403.0ZM168.0 369.0 105.0 286.0H-407.0L-399.0 258.0H255.0C269.0 258.0 280.0 263.0 282.0 274.0C240.0 313.0 168.0 369.0 168.0 369.0ZM99.0 -327.0H-242.0V-355.0H99.0ZM99.0 -185.0H-242.0V-213.0H99.0ZM-144.0 -95.0 -307.0 -80.0V-272.0C-307.0 -373.0 -330.0 -472.0 -445.0 -544.0L-439.0 -553.0C-228.0 -497.0 -179.0 -388.0 -177.0 -273.0V-121.0C-154.0 -118.0 -146.0 -109.0 -144.0 -95.0ZM203.0 -94.0 35.0 -79.0V-550.0H58.0C109.0 -550.0 166.0 -528.0 166.0 -519.0V-122.0C194.0 -118.0 201.0 -108.0 203.0 -94.0Z"/></g>
<g fill="black" opacity=".8" transform="translate(600 200) scale(0.1 -0.1)"><path d="M0.0 0.0 35.0 -79.0C91.0 -38.0 148.0 10.0 170.0 28.0L166.0 42.0C100.0 24.0 32.0 6.0 0.0 0.0ZM83.0 137.0H19.0V37.0C19.0 23.0 15.0 15.0 -13.0 3.0L31.0 -87.0C48.0 -78.0 74.0 -50.0 66.0 1.0L32.0 -25.0L100.0 -2.0V126.0ZM124.0 169.0 19.0 180.0V103.0H100.0V147.0C116.0 150.0 122.0 157.0 124.0 169.0ZM147.0 165.0 135.0 159.0C141.0 46.0 153.0 -39.0 194.0 -96.0C206.0 -39.0 230.0 -6.0 267.0 7.0L269.0 15.0C212.0 41.0 165.0 95.0 147.0 165.0ZM262.0 169.0 157.0 253.0C132.0 226.0 85.0 176.0 54.0 148.0L60.0 140.0C109.0 147.0 189.0 155.0 227.0 163.0C246.0 157.0 257.0 160.0 262.0 169.0ZM93.0 216.0 -16.0 266.0C-31.0 218.0 -44.0 167.0 -53.0 136.0L-40.0 129.0C-9.0 148.0 25.0 176.0 54.0 201.0C75.0 198.0 88.0 206.0 93.0 216.0ZM-169.0 255.0 -180.0 249.0C-161.0 229.0 -139.0 192.0 -138.0 159.0C-63.0 109.0 10.0 243.0 -169.0 255.0ZM-259.0 163.0H-341.0C-343.0 65.0 -342.0 -22.0 -406.0 -93.0L-394.0 -106.0C-280.0 -44.0 -263.0 52.0 -259.0 163.0ZM-239.0 172.0H-230.0C-229.0 59.0 -232.0 19.0 -240.0 10.0C-244.0 4.0 -250.0 3.0 -260.0 3.0C-273.0 3.0 -291.0 4.0 -305.0 6.0V-9.0C-288.0 -14.0 -279.0 -19.0 -273.0 -29.0C-263.0 -39.0 -261.0 -56.0 -261.0 -76.0C-229.0 -76.0 -204.0 -71.0 -183.0 -57.0C-157.0 -35.0 -149.0 2.0 -147.0 133.0C-129.0 137.0 -119.0 141.0 -112.0 149.0L-196.0 215.0ZM-192.0 172.0H-375.0L-367.0 146.0H-192.0ZM3.0 148.0 -111.0 160.0V-73.0H-94.0C-63.0 -73.0 -21.0 -58.0 -21.0 -49.0V130.0C-5.0 133.0 2.0 139.0 3.0 148.0ZM-160.0 403.0 -169.0 397.0C-145.0 374.0 -127.0 332.0 -129.0 292.0C-24.0 214.0 94.0 403.0 -160.0 403.0ZM168.0 369.0 103.0 285.0H-409.0L-399.0 258.0H256.0C270.0 258.0 280.0 263.0 283.0 274.0C241.0 313.0 168.0 369.0 168.0 369.0ZM100.0 -326.0H-241.0L-242.0 -355.0H100.0ZM98.0 -185.0H-243.0L-242.0 -214.0H98.0ZM-144.0 -96.0 -307.0 -80.0V-273.0C-307.0 -374.0 -330.0 -473.0 -444.0 -544.0L-439.0 -553.0C-228.0 -498.0 -178.0 -388.0 -178.0 -274.0V-121.0C-154.0 -118.0 -147.0 -108.0 -144.0 -96.0ZM204.0 -95.0 34.0 -79.0V-550.0H58.0C109.0 -550.0 166.0 -529.0 166.0 -518.0V-123.0C193.0 -118.0 201.0 -108.0 204.0 -95.0Z"/></g>
<g fill="red" transform="translate(700 200) scale(0.1 -0.1)"><path d="M0.0 0.0 19.0 -47.0C66.0 -16.0 123.0 25.0 145.0 39.0L138.0 53.0C84.0 31.0 28.0 9.0 0.0 0.0ZM47.0 180.0H14.0V30.0C14.0 17.0 10.0 13.0 -13.0 1.0L15.0 -59.0C27.0 -54.0 47.0 -33.0 38.0 -1.0L21.0 -18.0L56.0 -5.0V174.0ZM94.0 221.0 14.0 231.0V155.0H56.0V194.0C80.0 197.0 92.0 207.0 94.0 221.0ZM141.0 230.0 122.0 223.0C141.0 104.0 174.0 11.0 234.0 -43.0C240.0 -25.0 252.0 -15.0 270.0 -13.0L271.0 -3.0C209.0 39.0 164.0 126.0 141.0 230.0ZM252.0 230.0 204.0 277.0C156.0 252.0 74.0 216.0 20.0 198.0L28.0 187.0C88.0 196.0 172.0 215.0 221.0 229.0C238.0 222.0 247.0 223.0 252.0 230.0ZM50.0 283.0 -16.0 313.0C-37.0 264.0 -62.0 216.0 -86.0 186.0L-70.0 174.0C-42.0 198.0 -10.0 233.0 15.0 269.0C33.0 266.0 46.0 274.0 50.0 283.0ZM-213.0 305.0 -225.0 296.0C-194.0 273.0 -160.0 231.0 -151.0 199.0C-110.0 170.0 -79.0 256.0 -213.0 305.0ZM-300.0 203.0H-342.0C-345.0 125.0 -354.0 24.0 -438.0 -62.0L-422.0 -78.0C-318.0 5.0 -306.0 116.0 -300.0 203.0ZM-239.0 210.0H-229.0C-231.0 92.0 -236.0 45.0 -247.0 35.0C-252.0 30.0 -258.0 29.0 -268.0 29.0C-281.0 29.0 -308.0 31.0 -327.0 32.0L-328.0 13.0C-314.0 11.0 -297.0 8.0 -290.0 2.0C-281.0 -4.0 -280.0 -17.0 -280.0 -25.0C-261.0 -26.0 -239.0 -21.0 -224.0 -8.0C-201.0 12.0 -193.0 57.0 -191.0 178.0C-173.0 181.0 -161.0 184.0 -155.0 192.0L-214.0 239.0ZM-212.0 210.0H-402.0L-393.0 180.0H-212.0ZM-47.0 174.0 -120.0 183.0V-68.0H-111.0C-94.0 -68.0 -76.0 -56.0 -76.0 -50.0V151.0C-57.0 155.0 -49.0 163.0 -47.0 174.0ZM-139.0 473.0 -150.0 465.0C-120.0 440.0 -89.0 397.0 -84.0 361.0C-37.0 326.0 1.0 426.0 -139.0 473.0ZM197.0 393.0 157.0 345.0H-385.0L-377.0 315.0H248.0C261.0 315.0 270.0 320.0 273.0 331.0C244.0 359.0 197.0 393.0 197.0 393.0ZM112.0 -256.0H-305.0V-286.0H112.0ZM111.0 -124.0H-296.0V-154.0H111.0ZM-231.0 -54.0 -309.0 -45.0V-193.0C-309.0 -281.0 -330.0 -376.0 -436.0 -440.0L-422.0 -454.0C-290.0 -388.0 -266.0 -286.0 -265.0 -194.0V-78.0C-241.0 -76.0 -234.0 -67.0 -231.0 -54.0ZM169.0 -51.0 88.0 -41.0V-451.0H97.0C114.0 -451.0 132.0 -439.0 132.0 -432.0V-77.0C157.0 -74.0 167.0 -65.0 169.0 -51.0Z"/></g>
<g fill="black" opacity=".8" transform="translate(700 200) scale(0.1 -0.1)"><path d="M0.0 0.0 19.0 -48.0C67.0 -16.0 124.0 25.0 145.0 39.0L137.0 51.0C84.0 33.0 28.0 10.0 0.0 0.0ZM47.0 180.0H14.0V32.0C14.0 17.0 10.0 13.0 -13.0 1.0L15.0 -60.0C26.0 -54.0 46.0 -33.0 38.0 -1.0L22.0 -17.0L56.0 -3.0V174.0ZM95.0 221.0 14.0 230.0V155.0H56.0V195.0C80.0 197.0 92.0 207.0 95.0 221.0ZM140.0 230.0 122.0 223.0C142.0 104.0 173.0 11.0 233.0 -42.0C239.0 -25.0 252.0 -15.0 270.0 -14.0L271.0 -3.0C209.0 39.0 164.0 128.0 140.0 230.0ZM251.0 230.0 204.0 277.0C156.0 251.0 74.0 215.0 20.0 197.0L28.0 187.0C89.0 196.0 171.0 216.0 220.0 230.0C238.0 221.0 248.0 223.0 251.0 230.0ZM49.0 283.0 -16.0 313.0C-37.0 265.0 -61.0 215.0 -86.0 186.0L-70.0 174.0C-42.0 198.0 -10.0 233.0 15.0 268.0C33.0 265.0 46.0 274.0 49.0 283.0ZM-213.0 306.0 -224.0 297.0C-194.0 272.0 -161.0 230.0 -152.0 200.0C-111.0 169.0 -79.0 256.0 -213.0 306.0ZM-301.0 202.0H-340.0C-345.0 125.0 -355.0 24.0 -439.0 -63.0L-422.0 -78.0C-318.0 5.0 -306.0 116.0 -301.0 202.0ZM-239.0 209.0H-229.0C-232.0 93.0 -236.0 45.0 -246.0 35.0C-252.0 29.0 -258.0 29.0 -268.0 29.0C-282.0 29.0 -308.0 31.0 -327.0 33.0L-328.0 12.0C-313.0 10.0 -297.0 7.0 -290.0 3.0C-281.0 -3.0 -280.0 -17.0 -280.0 -25.0C-261.0 -25.0 -238.0 -21.0 -223.0 -8.0C-201.0 13.0 -193.0 57.0 -191.0 178.0C-173.0 180.0 -161.0 185.0 -155.0 192.0L-214.0 239.0ZM-211.0 209.0H-402.0L-393.0 180.0H-211.0ZM-46.0 173.0 -120.0 182.0V-67.0H-109.0C-95.0 -67.0 -76.0 -56.0 -76.0 -50.0V151.0C-57.0 154.0 -49.0 163.0 -46.0 173.0ZM-138.0 474.0 -150.0 465.0C-119.0 440.0 -89.0 397.0 -85.0 361.0C-38.0 326.0 -0.0 426.0 -138.0 474.0ZM197.0 393.0 156.0 344.0H-385.0L-378.0 315.0H248.0C261.0 315.0 270.0 319.0 272.0 331.0C245.0 360.0 197.0 393.0 197.0 393.0ZM111.0 -257.0H-306.0L-304.0 -286.0H111.0ZM111.0 -125.0H-296.0V-154.0H111.0ZM-232.0 -53.0 -309.0 -45.0V-194.0C-309.0 -280.0 -329.0 -376.0 -436.0 -440.0L-422.0 -454.0C-290.0 -388.0 -266.0 -286.0 -266.0 -194.0V-79.0C-242.0 -76.0 -235.0 -67.0 -232.0 -53.0ZM168.0 -51.0 88.0 -41.0V-451.0H96.0C114.0 -451.0 132.0 -439.0 132.0 -431.0V-77.0C157.0 -73.0 166.0 -65.0 168.0 -51.0Z"/></g>
<g fill="red" transform="translate(800 200) scale(0.1 -0.1)"><path d="M0.0 0.0 41.0 -88.0C95.0 -43.0 150.0 8.0 172.0 30.0L168.0 42.0C102.0 24.0 32.0 6.0 0.0 0.0ZM80.0 167.0H16.0V32.0C16.0 15.0 12.0 8.0 -15.0 -6.0L28.0 -98.0C47.0 -89.0 73.0 -60.0 65.0 -8.0L30.0 -36.0L100.0 -11.0V155.0ZM123.0 202.0 16.0 213.0V136.0H100.0V182.0C115.0 185.0 122.0 192.0 123.0 202.0ZM147.0 203.0 135.0 199.0C143.0 64.0 158.0 -35.0 206.0 -103.0C219.0 -45.0 245.0 -10.0 285.0 1.0L286.0 11.0C223.0 44.0 169.0 116.0 147.0 203.0ZM266.0 199.0 162.0 285.0C136.0 257.0 85.0 208.0 51.0 182.0L59.0 172.0C108.0 178.0 190.0 186.0 230.0 195.0C251.0 189.0 261.0 192.0 266.0 199.0ZM93.0 242.0 -22.0 299.0C-41.0 243.0 -63.0 182.0 -79.0 144.0L-65.0 136.0C-27.0 160.0 16.0 195.0 54.0 227.0C74.0 224.0 88.0 231.0 93.0 242.0ZM-186.0 282.0 -195.0 276.0C-175.0 252.0 -154.0 210.0 -152.0 173.0C-72.0 114.0 14.0 263.0 -186.0 282.0ZM-269.0 207.0H-365.0C-367.0 117.0 -372.0 2.0 -456.0 -99.0L-442.0 -113.0C-306.0 -24.0 -276.0 104.0 -269.0 207.0ZM-262.0 207.0H-252.0C-253.0 80.0 -256.0 35.0 -266.0 25.0C-270.0 20.0 -274.0 19.0 -285.0 19.0C-299.0 19.0 -319.0 19.0 -333.0 20.0V6.0C-314.0 1.0 -305.0 -5.0 -296.0 -17.0C-287.0 -29.0 -286.0 -47.0 -286.0 -71.0C-248.0 -71.0 -222.0 -66.0 -200.0 -50.0C-168.0 -26.0 -161.0 16.0 -159.0 165.0C-141.0 168.0 -130.0 174.0 -123.0 181.0L-214.0 254.0ZM-208.0 207.0H-421.0L-412.0 179.0H-208.0ZM-3.0 147.0 -126.0 158.0V-101.0H-107.0C-72.0 -101.0 -26.0 -84.0 -26.0 -77.0V127.0C-10.0 130.0 -4.0 137.0 -3.0 147.0ZM-183.0 439.0 -190.0 434.0C-167.0 408.0 -147.0 362.0 -147.0 319.0C-38.0 238.0 83.0 440.0 -183.0 439.0ZM153.0 405.0 85.0 316.0H-408.0L-400.0 288.0H248.0C263.0 288.0 274.0 293.0 277.0 304.0C231.0 345.0 153.0 405.0 153.0 405.0ZM123.0 -308.0H-252.0V-336.0H123.0ZM123.0 -166.0H-252.0V-194.0H123.0ZM-174.0 -92.0 -346.0 -76.0V-195.0C-346.0 -296.0 -359.0 -422.0 -462.0 -510.0L-456.0 -518.0C-249.0 -452.0 -209.0 -309.0 -206.0 -197.0V-118.0C-183.0 -115.0 -176.0 -105.0 -174.0 -92.0ZM213.0 -87.0 34.0 -72.0V-511.0H59.0C114.0 -511.0 176.0 -488.0 176.0 -479.0V-116.0C204.0 -111.0 211.0 -101.0 213.0 -87.0Z"/></g>
<g fill="black" opacity=".8" transform="translate(800 200) scale(0.1 -0.1)"><path d="M0.0 0.0 41.0 -88.0C95.0 -43.0 150.0 9.0 172.0 30.0L168.0 42.0C102.0 26.0 33.0 6.0 0.0 0.0ZM81.0 167.0H16.0V31.0C16.0 15.0 12.0 7.0 -16.0 -6.0L28.0 -98.0C47.0 -89.0 72.0 -60.0 65.0 -7.0L29.0 -35.0L100.0 -11.0V155.0ZM123.0 203.0 16.0 214.0V136.0H100.0V182.0C115.0 185.0 122.0 191.0 123.0 203.0ZM147.0 203.0 136.0 198.0C143.0 65.0 158.0 -35.0 206.0 -103.0C219.0 -44.0 244.0 -10.0 284.0 2.0L286.0 11.0C223.0 44.0 170.0 116.0 147.0 203.0ZM266.0 200.0 162.0 286.0C135.0 258.0 84.0 208.0 50.0 181.0L57.0 172.0C108.0 178.0 191.0 186.0 229.0 194.0C251.0 189.0 261.0 192.0 266.0 200.0ZM94.0 242.0 -21.0 300.0C-42.0 243.0 -63.0 181.0 -78.0 143.0L-66.0 136.0C-26.0 160.0 17.0 195.0 54.0 228.0C74.0 225.0 89.0 232.0 94.0 242.0ZM-185.0 282.0 -195.0 276.0C-175.0 252.0 -153.0 210.0 -153.0 173.0C-71.0 114.0 14.0 264.0 -185.0 282.0ZM-269.0 207.0H-365.0C-367.0 118.0 -372.0 2.0 -456.0 -100.0L-443.0 -112.0C-307.0 -24.0 -276.0 104.0 -269.0 207.0ZM-262.0 207.0H-253.0C-253.0 80.0 -255.0 35.0 -265.0 25.0C-269.0 19.0 -274.0 19.0 -285.0 19.0C-299.0 19.0 -319.0 19.0 -334.0 20.0V7.0C-314.0 2.0 -305.0 -5.0 -297.0 -17.0C-287.0 -28.0 -286.0 -47.0 -285.0 -72.0C-248.0 -72.0 -221.0 -65.0 -199.0 -51.0C-169.0 -25.0 -161.0 16.0 -159.0 165.0C-141.0 168.0 -130.0 174.0 -123.0 181.0L-214.0 254.0ZM-208.0 207.0H-421.0L-412.0 180.0H-208.0ZM-2.0 147.0 -126.0 158.0V-101.0H-107.0C-72.0 -101.0 -27.0 -85.0 -27.0 -77.0V127.0C-11.0 130.0 -3.0 137.0 -2.0 147.0ZM-183.0 439.0 -192.0 433.0C-166.0 408.0 -146.0 362.0 -147.0 318.0C-38.0 238.0 84.0 439.0 -183.0 439.0ZM153.0 405.0 84.0 316.0H-409.0L-400.0 287.0H248.0C263.0 287.0 274.0 293.0 277.0 305.0C232.0 345.0 153.0 405.0 153.0 405.0ZM123.0 -307.0H-252.0V-336.0H123.0ZM123.0 -166.0H-253.0L-252.0 -195.0H123.0ZM-174.0 -92.0 -346.0 -76.0V-195.0C-346.0 -297.0 -359.0 -423.0 -462.0 -510.0L-455.0 -518.0C-250.0 -452.0 -208.0 -309.0 -207.0 -198.0V-118.0C-183.0 -115.0 -176.0 -104.0 -174.0 -92.0ZM214.0 -88.0 33.0 -72.0V-511.0H60.0C114.0 -511.0 176.0 -489.0 176.0 -479.0V-117.0C203.0 -110.0 211.0 -101.0 214.0 -88.0Z"/></g>
<g fill="red" transform="translate(900 200) scale(0.1 -0.1)"><path d="M0.0 0.0 16.0 -42.0C59.0 -15.0 114.0 22.0 133.0 34.0L127.0 49.0C78.0 29.0 26.0 9.0 0.0 0.0ZM41.0 177.0H8.0V26.0C8.0 12.0 5.0 9.0 -16.0 -3.0L9.0 -54.0C19.0 -49.0 38.0 -31.0 30.0 -1.0L16.0 -18.0L51.0 -5.0V171.0ZM89.0 198.0 8.0 208.0V132.0H51.0V170.0C76.0 174.0 87.0 184.0 89.0 198.0ZM120.0 210.0 100.0 203.0C122.0 93.0 159.0 11.0 221.0 -35.0C226.0 -20.0 238.0 -11.0 256.0 -10.0V1.0C193.0 38.0 144.0 111.0 120.0 210.0ZM228.0 210.0 178.0 254.0C139.0 230.0 72.0 194.0 26.0 176.0L35.0 164.0C85.0 174.0 156.0 194.0 197.0 207.0C214.0 201.0 223.0 203.0 228.0 210.0ZM60.0 271.0 -6.0 301.0C-28.0 249.0 -56.0 198.0 -81.0 165.0L-65.0 153.0C-36.0 179.0 -1.0 218.0 25.0 257.0C44.0 254.0 56.0 262.0 60.0 271.0ZM-174.0 296.0 -186.0 288.0C-158.0 263.0 -127.0 219.0 -120.0 185.0C-79.0 154.0 -45.0 240.0 -174.0 296.0ZM-251.0 187.0H-297.0C-299.0 123.0 -308.0 40.0 -381.0 -33.0L-365.0 -47.0C-270.0 20.0 -256.0 114.0 -251.0 187.0ZM-203.0 202.0H-193.0C-195.0 83.0 -200.0 37.0 -211.0 27.0C-216.0 22.0 -221.0 21.0 -231.0 21.0C-245.0 21.0 -270.0 22.0 -289.0 23.0V5.0C-275.0 3.0 -260.0 0.0 -253.0 -6.0C-244.0 -13.0 -242.0 -24.0 -242.0 -33.0C-223.0 -33.0 -200.0 -30.0 -184.0 -17.0C-161.0 3.0 -153.0 46.0 -151.0 169.0C-132.0 172.0 -121.0 176.0 -115.0 183.0L-176.0 232.0ZM-172.0 202.0H-372.0L-363.0 172.0H-172.0ZM-27.0 156.0 -100.0 165.0V-64.0H-91.0C-74.0 -64.0 -56.0 -52.0 -56.0 -45.0V133.0C-37.0 137.0 -29.0 145.0 -27.0 156.0ZM-141.0 438.0 -152.0 430.0C-125.0 408.0 -97.0 369.0 -93.0 337.0C-48.0 304.0 -11.0 398.0 -141.0 438.0ZM161.0 375.0 122.0 329.0H-364.0L-356.0 299.0H208.0C222.0 299.0 231.0 304.0 234.0 315.0C205.0 342.0 161.0 375.0 161.0 375.0ZM108.0 -280.0H-270.0V-310.0H108.0ZM109.0 -138.0H-251.0V-168.0H109.0ZM-202.0 -68.0 -280.0 -59.0V-210.0C-280.0 -300.0 -301.0 -397.0 -407.0 -462.0L-393.0 -476.0C-261.0 -409.0 -237.0 -305.0 -236.0 -211.0V-92.0C-212.0 -90.0 -205.0 -81.0 -202.0 -68.0ZM166.0 -65.0 85.0 -55.0V-474.0H94.0C111.0 -474.0 129.0 -463.0 129.0 -455.0V-91.0C154.0 -88.0 164.0 -79.0 166.0 -65.0Z"/></g>
<g fill="black" opacity=".8" transform="translate(900 200) scale(0.1 -0.1)"><path d="M0.0 0.0 16.0 -42.0C60.0 -16.0 115.0 22.0 133.0 34.0L127.0 48.0C78.0 30.0 27.0 10.0 0.0 0.0ZM41.0 176.0H8.0V27.0C8.0 12.0 5.0 9.0 -15.0 -3.0L8.0 -54.0C18.0 -49.0 37.0 -31.0 31.0 -2.0L16.0 -17.0L50.0 -4.0V171.0ZM90.0 198.0 8.0 207.0V132.0H50.0V170.0C76.0 174.0 87.0 184.0 90.0 198.0ZM119.0 210.0 99.0 204.0C123.0 93.0 159.0 11.0 220.0 -35.0C225.0 -20.0 238.0 -11.0 256.0 -11.0L255.0 1.0C194.0 38.0 144.0 112.0 119.0 210.0ZM227.0 210.0 178.0 254.0C139.0 229.0 72.0 193.0 26.0 176.0L36.0 164.0C86.0 174.0 155.0 195.0 197.0 207.0C214.0 200.0 224.0 203.0 227.0 210.0ZM60.0 271.0 -6.0 301.0C-28.0 250.0 -56.0 198.0 -81.0 165.0L-65.0 153.0C-36.0 178.0 -1.0 219.0 25.0 256.0C45.0 253.0 56.0 262.0 60.0 271.0ZM-174.0 297.0 -186.0 289.0C-158.0 263.0 -128.0 218.0 -121.0 185.0C-80.0 154.0 -44.0 240.0 -174.0 297.0ZM-252.0 187.0H-296.0C-298.0 123.0 -308.0 41.0 -382.0 -34.0L-365.0 -48.0C-270.0 20.0 -256.0 114.0 -252.0 187.0ZM-203.0 201.0H-192.0C-196.0 83.0 -200.0 38.0 -210.0 28.0C-216.0 22.0 -221.0 21.0 -231.0 21.0C-246.0 21.0 -270.0 21.0 -289.0 23.0V4.0C-274.0 2.0 -260.0 -1.0 -253.0 -6.0C-244.0 -12.0 -242.0 -24.0 -242.0 -33.0C-223.0 -33.0 -199.0 -30.0 -184.0 -17.0C-161.0 4.0 -153.0 46.0 -151.0 169.0C-132.0 171.0 -121.0 177.0 -115.0 183.0L-176.0 232.0ZM-172.0 201.0H-372.0L-363.0 172.0H-172.0ZM-27.0 155.0 -101.0 164.0V-63.0H-89.0C-75.0 -63.0 -56.0 -51.0 -56.0 -45.0V133.0C-38.0 137.0 -30.0 145.0 -27.0 155.0ZM-140.0 438.0 -151.0 431.0C-124.0 408.0 -97.0 369.0 -94.0 337.0C-49.0 304.0 -12.0 398.0 -140.0 438.0ZM160.0 376.0 121.0 329.0H-364.0L-356.0 300.0H208.0C222.0 300.0 231.0 304.0 234.0 315.0C205.0 343.0 160.0 376.0 160.0 376.0ZM108.0 -280.0H-271.0L-269.0 -309.0H108.0ZM109.0 -139.0H-252.0L-251.0 -169.0H109.0ZM-202.0 -67.0 -280.0 -59.0V-210.0C-280.0 -299.0 -300.0 -396.0 -407.0 -461.0L-392.0 -475.0C-261.0 -409.0 -237.0 -305.0 -237.0 -211.0V-92.0C-212.0 -90.0 -205.0 -81.0 -202.0 -67.0ZM165.0 -65.0 85.0 -55.0V-474.0H93.0C112.0 -474.0 129.0 -463.0 129.0 -455.0V-91.0C153.0 -87.0 163.0 -79.0 165.0 -65.0Z"/></g>
<g fill="red" transform="translate(1000 200) scale(0.1 -0.1)"><path d="M0.0 0.0 36.0 -79.0C79.0 -41.0 128.0 4.0 144.0 23.0L140.0 35.0C86.0 20.0 27.0 6.0 0.0 0.0ZM81.0 153.0H19.0V34.0C19.0 18.0 15.0 11.0 -11.0 -3.0L30.0 -92.0C49.0 -83.0 75.0 -55.0 66.0 -5.0L33.0 -32.0L100.0 -8.0V141.0ZM124.0 178.0 19.0 189.0V112.0H100.0V158.0C116.0 161.0 122.0 168.0 124.0 178.0ZM141.0 175.0 129.0 171.0C139.0 54.0 155.0 -29.0 203.0 -86.0C215.0 -30.0 239.0 4.0 278.0 15.0L279.0 26.0C217.0 49.0 163.0 104.0 141.0 175.0ZM281.0 176.0 183.0 258.0C154.0 229.0 100.0 181.0 63.0 155.0L71.0 144.0C122.0 152.0 205.0 162.0 246.0 172.0C266.0 166.0 276.0 168.0 281.0 176.0ZM110.0 231.0 2.0 285.0C-17.0 231.0 -38.0 172.0 -53.0 135.0L-39.0 127.0C-4.0 151.0 36.0 186.0 71.0 217.0C91.0 214.0 105.0 221.0 110.0 231.0ZM-162.0 275.0 -172.0 269.0C-152.0 245.0 -131.0 203.0 -128.0 168.0C-56.0 113.0 22.0 249.0 -162.0 275.0ZM-235.0 188.0H-323.0C-324.0 107.0 -323.0 14.0 -362.0 -67.0L-348.0 -81.0C-259.0 -10.0 -238.0 96.0 -235.0 188.0ZM-229.0 200.0H-219.0C-220.0 78.0 -223.0 35.0 -232.0 25.0C-236.0 21.0 -241.0 20.0 -251.0 20.0C-264.0 20.0 -283.0 20.0 -297.0 21.0V6.0C-280.0 2.0 -271.0 -4.0 -263.0 -14.0C-254.0 -26.0 -253.0 -42.0 -253.0 -64.0C-218.0 -64.0 -193.0 -60.0 -172.0 -44.0C-142.0 -22.0 -135.0 18.0 -134.0 160.0C-115.0 163.0 -104.0 168.0 -97.0 175.0L-184.0 244.0ZM-172.0 200.0H-375.0L-366.0 172.0H-172.0ZM5.0 133.0 -108.0 144.0V-97.0H-91.0C-59.0 -97.0 -18.0 -81.0 -18.0 -74.0V114.0C-1.0 117.0 4.0 124.0 5.0 133.0ZM-150.0 423.0 -157.0 418.0C-137.0 394.0 -118.0 352.0 -119.0 312.0C-15.0 234.0 103.0 425.0 -150.0 423.0ZM140.0 389.0 77.0 306.0H-323.0L-315.0 278.0H226.0C241.0 278.0 251.0 283.0 254.0 294.0C211.0 333.0 140.0 389.0 140.0 389.0ZM113.0 -307.0H-228.0V-335.0H113.0ZM113.0 -170.0H-228.0V-198.0H113.0ZM-129.0 -92.0 -293.0 -77.0V-253.0C-293.0 -350.0 -311.0 -451.0 -409.0 -524.0L-403.0 -533.0C-208.0 -476.0 -163.0 -364.0 -161.0 -254.0V-118.0C-138.0 -115.0 -131.0 -106.0 -129.0 -92.0ZM206.0 -91.0 38.0 -76.0V-529.0H61.0C112.0 -529.0 169.0 -507.0 169.0 -498.0V-119.0C197.0 -115.0 204.0 -104.0 206.0 -91.0Z"/></g>
<g fill="black" opacity=".8" transform="translate(1000 200) scale(0.1 -0.1)"><path d="M0.0 0.0 35.0 -79.0C80.0 -41.0 128.0 5.0 144.0 22.0L139.0 35.0C85.0 21.0 27.0 6.0 0.0 0.0ZM82.0 152.0H19.0V33.0C19.0 18.0 15.0 10.0 -12.0 -3.0L31.0 -92.0C49.0 -83.0 74.0 -56.0 66.0 -4.0L32.0 -31.0L100.0 -8.0V141.0ZM124.0 179.0 19.0 190.0V112.0H100.0V158.0C116.0 161.0 122.0 167.0 124.0 179.0ZM141.0 174.0 129.0 170.0C139.0 55.0 156.0 -29.0 203.0 -86.0C215.0 -29.0 239.0 3.0 277.0 17.0L279.0 26.0C217.0 49.0 164.0 104.0 141.0 174.0ZM281.0 177.0 182.0 259.0C153.0 230.0 100.0 180.0 62.0 154.0L70.0 144.0C122.0 152.0 206.0 162.0 246.0 171.0C266.0 166.0 275.0 168.0 281.0 177.0ZM110.0 231.0 3.0 287.0C-18.0 231.0 -37.0 172.0 -52.0 135.0L-39.0 127.0C-3.0 151.0 36.0 187.0 71.0 217.0C91.0 215.0 105.0 222.0 110.0 231.0ZM-161.0 275.0 -173.0 269.0C-152.0 245.0 -130.0 203.0 -129.0 168.0C-56.0 114.0 22.0 250.0 -161.0 275.0ZM-234.0 188.0H-323.0C-324.0 108.0 -323.0 14.0 -362.0 -68.0L-349.0 -80.0C-260.0 -10.0 -238.0 96.0 -234.0 188.0ZM-229.0 200.0H-220.0C-220.0 78.0 -222.0 35.0 -231.0 25.0C-235.0 20.0 -241.0 19.0 -251.0 19.0C-264.0 19.0 -283.0 20.0 -298.0 21.0V6.0C-280.0 2.0 -271.0 -4.0 -264.0 -14.0C-255.0 -25.0 -252.0 -42.0 -252.0 -64.0C-218.0 -64.0 -192.0 -59.0 -171.0 -45.0C-143.0 -21.0 -135.0 18.0 -134.0 159.0C-114.0 163.0 -104.0 168.0 -97.0 175.0L-184.0 244.0ZM-172.0 200.0H-375.0L-367.0 173.0H-172.0ZM6.0 133.0 -108.0 145.0V-97.0H-90.0C-60.0 -97.0 -18.0 -82.0 -18.0 -74.0V115.0C-1.0 118.0 5.0 124.0 6.0 133.0ZM-150.0 423.0 -158.0 417.0C-136.0 394.0 -118.0 352.0 -119.0 311.0C-15.0 234.0 104.0 424.0 -150.0 423.0ZM140.0 389.0 76.0 306.0H-324.0L-315.0 278.0H227.0C241.0 278.0 251.0 284.0 254.0 295.0C212.0 333.0 140.0 389.0 140.0 389.0ZM113.0 -306.0H-227.0L-228.0 -335.0H113.0ZM113.0 -170.0H-228.0L-229.0 -199.0H113.0ZM-129.0 -93.0 -293.0 -77.0V-254.0C-293.0 -351.0 -311.0 -451.0 -408.0 -523.0L-402.0 -533.0C-208.0 -477.0 -162.0 -364.0 -162.0 -254.0V-117.0C-138.0 -115.0 -132.0 -106.0 -129.0 -93.0ZM206.0 -91.0 37.0 -76.0V-529.0H62.0C112.0 -529.0 169.0 -507.0 169.0 -498.0V-120.0C197.0 -114.0 203.0 -104.0 206.0 -91.0Z"/></g>
<g fill="red" transform="translate(1100 200) scale(0.1 -0.1)"><path d="M0.0 0.0 15.0 -42.0C75.0 -11.0 145.0 27.0 173.0 42.0L168.0 58.0C100.0 33.0 32.0 9.0 0.0 0.0ZM41.0 158.0H9.0V24.0C9.0 11.0 6.0 7.0 -15.0 -4.0L9.0 -52.0C20.0 -47.0 38.0 -29.0 29.0 -3.0L17.0 -17.0L49.0 -7.0V153.0ZM87.0 196.0 9.0 206.0V130.0H49.0V169.0C74.0 172.0 85.0 182.0 87.0 196.0ZM151.0 213.0 131.0 206.0C155.0 88.0 207.0 1.0 302.0 -52.0C309.0 -33.0 321.0 -21.0 339.0 -20.0L341.0 -10.0C242.0 31.0 177.0 109.0 151.0 213.0ZM290.0 221.0 235.0 265.0C193.0 237.0 107.0 201.0 33.0 183.0L40.0 165.0C115.0 174.0 200.0 199.0 250.0 220.0C268.0 213.0 283.0 213.0 290.0 221.0ZM32.0 249.0 -30.0 287.0C-47.0 250.0 -86.0 180.0 -117.0 136.0L-105.0 127.0C-65.0 164.0 -25.0 209.0 -2.0 238.0C16.0 234.0 29.0 242.0 32.0 249.0ZM-223.0 283.0 -235.0 275.0C-208.0 250.0 -176.0 203.0 -168.0 170.0C-128.0 139.0 -95.0 221.0 -223.0 283.0ZM-366.0 201.0H-415.0C-427.0 89.0 -467.0 9.0 -569.0 -52.0L-561.0 -69.0C-444.0 -16.0 -385.0 65.0 -366.0 201.0ZM-289.0 201.0H-279.0C-284.0 92.0 -294.0 44.0 -307.0 34.0C-312.0 29.0 -317.0 27.0 -329.0 27.0C-343.0 27.0 -371.0 29.0 -390.0 30.0V12.0C-376.0 10.0 -361.0 6.0 -353.0 0.0C-344.0 -7.0 -343.0 -20.0 -343.0 -30.0C-321.0 -30.0 -299.0 -24.0 -283.0 -11.0C-257.0 9.0 -245.0 56.0 -240.0 169.0C-221.0 171.0 -209.0 175.0 -203.0 182.0L-263.0 231.0ZM-259.0 201.0H-539.0L-530.0 171.0H-259.0ZM-70.0 145.0 -143.0 154.0V-61.0H-134.0C-117.0 -61.0 -99.0 -49.0 -99.0 -42.0V122.0C-80.0 126.0 -72.0 134.0 -70.0 145.0ZM-202.0 441.0 -212.0 431.0C-169.0 406.0 -115.0 355.0 -98.0 316.0C-45.0 288.0 -23.0 397.0 -202.0 441.0ZM249.0 375.0 207.0 323.0H-547.0L-538.0 293.0H302.0C316.0 293.0 325.0 298.0 328.0 309.0C297.0 338.0 249.0 375.0 249.0 375.0ZM126.0 -275.0H-357.0V-305.0H126.0ZM134.0 -133.0H-349.0V-163.0H134.0ZM-298.0 -51.0 -376.0 -42.0V-193.0C-376.0 -294.0 -408.0 -396.0 -556.0 -462.0L-544.0 -476.0C-366.0 -409.0 -333.0 -299.0 -332.0 -194.0V-75.0C-308.0 -73.0 -301.0 -64.0 -298.0 -51.0ZM184.0 -50.0 111.0 -41.0V-474.0H120.0C137.0 -474.0 155.0 -462.0 155.0 -455.0V-73.0C174.0 -70.0 182.0 -62.0 184.0 -50.0Z"/></g>
<g fill="black" opacity=".8" transform="translate(1100 200) scale(0.1 -0.1)"><path d="M0.0 0.0 15.0 -43.0C76.0 -11.0 145.0 27.0 173.0 42.0L167.0 56.0C100.0 35.0 32.0 9.0 0.0 0.0ZM42.0 158.0H9.0V26.0C9.0 11.0 6.0 7.0 -14.0 -5.0L9.0 -53.0C19.0 -47.0 37.0 -29.0 29.0 -3.0L18.0 -16.0L49.0 -6.0V153.0ZM88.0 195.0 9.0 205.0V131.0H49.0V170.0C74.0 172.0 85.0 182.0 88.0 195.0ZM150.0 213.0 131.0 206.0C156.0 88.0 206.0 1.0 301.0 -52.0C308.0 -32.0 321.0 -21.0 339.0 -21.0L341.0 -11.0C242.0 31.0 177.0 110.0 150.0 213.0ZM289.0 221.0 235.0 265.0C194.0 237.0 107.0 200.0 33.0 183.0L40.0 165.0C115.0 173.0 199.0 200.0 250.0 221.0C268.0 212.0 284.0 213.0 289.0 221.0ZM30.0 249.0 -30.0 286.0C-46.0 250.0 -85.0 179.0 -117.0 136.0L-104.0 127.0C-65.0 163.0 -25.0 209.0 -2.0 237.0C16.0 232.0 29.0 242.0 30.0 249.0ZM-223.0 283.0 -234.0 276.0C-208.0 249.0 -176.0 203.0 -169.0 170.0C-128.0 139.0 -95.0 221.0 -223.0 283.0ZM-367.0 201.0H-413.0C-427.0 89.0 -467.0 9.0 -570.0 -53.0L-561.0 -70.0C-444.0 -16.0 -385.0 64.0 -367.0 201.0ZM-289.0 200.0H-279.0C-285.0 93.0 -294.0 44.0 -307.0 34.0C-313.0 29.0 -318.0 27.0 -329.0 27.0C-344.0 27.0 -371.0 29.0 -390.0 31.0V12.0C-375.0 9.0 -360.0 5.0 -353.0 1.0C-344.0 -6.0 -343.0 -20.0 -343.0 -30.0C-321.0 -29.0 -298.0 -23.0 -283.0 -11.0C-257.0 10.0 -244.0 56.0 -241.0 169.0C-221.0 170.0 -209.0 176.0 -204.0 182.0L-263.0 232.0ZM-258.0 200.0H-539.0L-530.0 172.0H-258.0ZM-70.0 144.0 -143.0 153.0V-60.0H-132.0C-118.0 -60.0 -99.0 -48.0 -99.0 -42.0V122.0C-80.0 126.0 -72.0 135.0 -70.0 144.0ZM-201.0 442.0 -212.0 431.0C-168.0 405.0 -115.0 355.0 -98.0 316.0C-45.0 288.0 -24.0 397.0 -201.0 442.0ZM249.0 375.0 206.0 322.0H-547.0L-539.0 293.0H302.0C316.0 293.0 324.0 298.0 328.0 309.0C298.0 338.0 249.0 375.0 249.0 375.0ZM126.0 -276.0H-358.0L-356.0 -305.0H126.0ZM134.0 -133.0H-349.0L-348.0 -163.0H134.0ZM-299.0 -50.0 -376.0 -42.0V-193.0C-376.0 -293.0 -408.0 -396.0 -556.0 -461.0L-544.0 -476.0C-366.0 -409.0 -333.0 -299.0 -332.0 -194.0V-75.0C-308.0 -73.0 -301.0 -64.0 -299.0 -50.0ZM183.0 -51.0 111.0 -41.0V-474.0H119.0C138.0 -474.0 154.0 -462.0 154.0 -454.0V-73.0C174.0 -70.0 181.0 -61.0 183.0 -51.0Z"/></g>
<g fill="red" transform="translate(1200 200) scale(0.1 -0.1)"><path d="M0.0 0.0 50.0 -98.0C119.0 -40.0 183.0 22.0 211.0 51.0L208.0 62.0C124.0 35.0 38.0 9.0 0.0 0.0ZM99.0 136.0H19.0V42.0C19.0 24.0 15.0 16.0 -12.0 1.0L39.0 -109.0C63.0 -98.0 92.0 -65.0 83.0 -2.0L40.0 -35.0L125.0 -4.0V120.0ZM145.0 170.0 19.0 182.0V105.0H125.0V152.0C139.0 155.0 144.0 161.0 145.0 170.0ZM192.0 176.0 181.0 171.0C193.0 39.0 222.0 -44.0 291.0 -113.0C306.0 -51.0 338.0 -10.0 382.0 3.0L383.0 13.0C303.0 40.0 224.0 86.0 192.0 176.0ZM330.0 147.0 233.0 247.0C193.0 218.0 114.0 174.0 52.0 150.0L55.0 136.0C128.0 135.0 216.0 142.0 271.0 150.0C297.0 139.0 318.0 138.0 330.0 147.0ZM74.0 234.0 -63.0 276.0C-69.0 237.0 -86.0 160.0 -101.0 109.0L-92.0 105.0C-44.0 139.0 11.0 186.0 38.0 214.0C60.0 213.0 72.0 224.0 74.0 234.0ZM-229.0 274.0 -238.0 269.0C-222.0 245.0 -209.0 204.0 -212.0 168.0C-134.0 98.0 -27.0 243.0 -229.0 274.0ZM-348.0 183.0H-468.0C-471.0 68.0 -496.0 -38.0 -581.0 -116.0L-575.0 -129.0C-440.0 -66.0 -367.0 39.0 -348.0 183.0ZM-330.0 183.0H-320.0C-322.0 89.0 -327.0 49.0 -336.0 40.0C-340.0 36.0 -346.0 34.0 -357.0 34.0C-372.0 34.0 -402.0 35.0 -420.0 37.0V23.0C-397.0 17.0 -382.0 8.0 -372.0 -5.0C-361.0 -19.0 -359.0 -44.0 -360.0 -72.0C-318.0 -72.0 -290.0 -64.0 -266.0 -49.0C-231.0 -26.0 -221.0 20.0 -218.0 139.0C-199.0 142.0 -188.0 148.0 -181.0 156.0L-277.0 233.0ZM-260.0 183.0H-544.0L-535.0 155.0H-260.0ZM-19.0 124.0 -168.0 137.0V-118.0H-146.0C-102.0 -118.0 -48.0 -100.0 -48.0 -92.0V102.0C-27.0 105.0 -21.0 113.0 -19.0 124.0ZM-207.0 442.0 -213.0 437.0C-184.0 409.0 -154.0 360.0 -148.0 313.0C-19.0 235.0 89.0 473.0 -207.0 442.0ZM200.0 406.0 118.0 309.0H-548.0L-540.0 281.0H319.0C334.0 281.0 346.0 286.0 349.0 297.0C292.0 342.0 200.0 406.0 200.0 406.0ZM139.0 -302.0H-336.0V-330.0H139.0ZM135.0 -170.0H-340.0V-198.0H135.0ZM-213.0 -87.0 -390.0 -71.0V-213.0C-390.0 -314.0 -412.0 -424.0 -550.0 -501.0L-545.0 -509.0C-298.0 -453.0 -248.0 -330.0 -245.0 -215.0V-113.0C-223.0 -110.0 -215.0 -100.0 -213.0 -87.0ZM219.0 -86.0 40.0 -71.0V-505.0H66.0C122.0 -505.0 187.0 -482.0 187.0 -472.0V-111.0C211.0 -108.0 217.0 -98.0 219.0 -86.0Z"/></g>
<g fill="black" opacity=".8" transform="translate(1200 200) scale(0.1 -0.1)"><path d="M0.0 0.0 50.0 -98.0C119.0 -40.0 183.0 22.0 211.0 51.0L208.0 62.0C124.0 36.0 39.0 9.0 0.0 0.0ZM100.0 136.0H19.0V40.0C19.0 23.0 14.0 15.0 -13.0 1.0L40.0 -109.0C63.0 -98.0 91.0 -65.0 82.0 -2.0L39.0 -35.0L125.0 -3.0V120.0ZM145.0 171.0 19.0 182.0V105.0H125.0V152.0C139.0 155.0 145.0 160.0 145.0 171.0ZM192.0 176.0 181.0 170.0C193.0 39.0 223.0 -44.0 291.0 -113.0C306.0 -50.0 338.0 -10.0 382.0 4.0L384.0 13.0C303.0 41.0 224.0 86.0 192.0 176.0ZM331.0 148.0 233.0 247.0C192.0 219.0 114.0 174.0 52.0 149.0L53.0 137.0C129.0 135.0 217.0 143.0 271.0 150.0C297.0 139.0 318.0 139.0 331.0 148.0ZM74.0 234.0 -62.0 277.0C-70.0 237.0 -85.0 159.0 -101.0 109.0L-92.0 105.0C-43.0 139.0 11.0 186.0 37.0 214.0C60.0 214.0 73.0 225.0 74.0 234.0ZM-228.0 274.0 -238.0 270.0C-222.0 246.0 -208.0 204.0 -212.0 168.0C-134.0 99.0 -27.0 244.0 -228.0 274.0ZM-348.0 183.0H-468.0C-471.0 69.0 -495.0 -38.0 -581.0 -117.0L-576.0 -128.0C-441.0 -65.0 -367.0 40.0 -348.0 183.0ZM-330.0 183.0H-321.0C-322.0 89.0 -325.0 48.0 -335.0 40.0C-339.0 35.0 -346.0 34.0 -357.0 34.0C-372.0 34.0 -401.0 35.0 -421.0 37.0V22.0C-397.0 17.0 -382.0 8.0 -372.0 -4.0C-362.0 -19.0 -359.0 -44.0 -360.0 -73.0C-317.0 -73.0 -290.0 -64.0 -266.0 -49.0C-232.0 -25.0 -221.0 19.0 -218.0 139.0C-199.0 142.0 -188.0 148.0 -182.0 156.0L-277.0 233.0ZM-260.0 183.0H-544.0L-535.0 155.0H-260.0ZM-18.0 124.0 -168.0 137.0V-118.0H-146.0C-102.0 -118.0 -48.0 -100.0 -48.0 -92.0V103.0C-28.0 105.0 -20.0 113.0 -18.0 124.0ZM-207.0 441.0 -214.0 437.0C-183.0 408.0 -154.0 360.0 -149.0 312.0C-19.0 235.0 90.0 472.0 -207.0 441.0ZM200.0 406.0 117.0 309.0H-549.0L-540.0 281.0H319.0C335.0 281.0 346.0 286.0 349.0 297.0C293.0 342.0 200.0 406.0 200.0 406.0ZM139.0 -301.0H-336.0V-329.0H139.0ZM135.0 -170.0H-340.0V-199.0H135.0ZM-214.0 -87.0 -390.0 -72.0V-213.0C-390.0 -314.0 -412.0 -425.0 -550.0 -501.0L-545.0 -509.0C-298.0 -453.0 -248.0 -330.0 -246.0 -216.0V-113.0C-222.0 -110.0 -215.0 -99.0 -214.0 -87.0ZM219.0 -87.0 39.0 -71.0V-505.0H67.0C122.0 -505.0 188.0 -483.0 188.0 -472.0V-111.0C211.0 -108.0 217.0 -98.0 219.0 -87.0Z"/></g>
<g fill="red" transform="translate(1300 200) scale(0.1 -0.1)"><path d="M0.0 0.0 15.0 -42.0C75.0 -11.0 145.0 27.0 173.0 42.0L168.0 58.0C100.0 33.0 32.0 9.0 0.0 0.0ZM43.0 155.0H11.0V30.0C11.0 17.0 8.0 12.0 -13.0 1.0L11.0 -46.0C22.0 -42.0 40.0 -24.0 31.0 3.0L19.0 -12.0L51.0 -1.0V150.0ZM89.0 161.0 11.0 171.0V95.0H51.0V134.0C76.0 137.0 87.0 147.0 89.0 161.0ZM167.0 164.0 148.0 156.0C175.0 73.0 233.0 3.0 308.0 -38.0C314.0 -18.0 326.0 -6.0 344.0 -5.0L345.0 5.0C267.0 34.0 197.0 93.0 167.0 164.0ZM283.0 166.0 230.0 212.0C185.0 187.0 96.0 156.0 21.0 141.0L27.0 122.0C103.0 129.0 190.0 149.0 243.0 166.0C262.0 159.0 275.0 158.0 283.0 166.0ZM28.0 196.0 -41.0 222.0C-61.0 182.0 -93.0 128.0 -120.0 96.0H-94.0C-64.0 121.0 -33.0 153.0 -11.0 180.0C9.0 179.0 22.0 186.0 28.0 196.0ZM-218.0 219.0 -230.0 212.0C-208.0 189.0 -185.0 152.0 -179.0 122.0C-139.0 92.0 -102.0 170.0 -218.0 219.0ZM-368.0 163.0H-414.0C-426.0 94.0 -460.0 14.0 -578.0 -46.0L-563.0 -60.0C-419.0 0.0 -384.0 80.0 -368.0 163.0ZM-282.0 163.0H-272.0C-275.0 75.0 -282.0 36.0 -292.0 26.0C-298.0 21.0 -304.0 20.0 -315.0 20.0C-329.0 20.0 -362.0 22.0 -383.0 24.0L-384.0 5.0C-368.0 3.0 -348.0 -1.0 -340.0 -6.0C-331.0 -13.0 -329.0 -26.0 -329.0 -36.0C-307.0 -36.0 -285.0 -30.0 -269.0 -18.0C-245.0 -1.0 -237.0 40.0 -233.0 131.0C-215.0 134.0 -203.0 137.0 -197.0 144.0L-256.0 192.0ZM-252.0 163.0H-542.0L-533.0 133.0H-252.0ZM-72.0 107.0 -142.0 115.0V-54.0H-133.0C-119.0 -54.0 -102.0 -43.0 -102.0 -36.0V84.0C-82.0 87.0 -74.0 95.0 -72.0 107.0ZM-185.0 360.0 -196.0 351.0C-170.0 332.0 -143.0 297.0 -136.0 268.0C-91.0 238.0 -57.0 327.0 -185.0 360.0ZM256.0 309.0 213.0 257.0H-563.0L-554.0 227.0H309.0C323.0 227.0 332.0 232.0 335.0 243.0C304.0 272.0 256.0 309.0 256.0 309.0ZM-195.0 -395.0H-362.0L-353.0 -423.0H-195.0ZM-195.0 -236.0H-358.0L-349.0 -264.0H-195.0ZM-364.0 -31.0 -442.0 -22.0V-203.0C-442.0 -321.0 -460.0 -455.0 -559.0 -547.0L-544.0 -560.0C-420.0 -467.0 -399.0 -324.0 -398.0 -204.0V-56.0C-374.0 -53.0 -366.0 -44.0 -364.0 -31.0ZM241.0 -28.0 168.0 -19.0V-560.0H177.0C194.0 -560.0 212.0 -548.0 212.0 -541.0V-51.0C231.0 -48.0 239.0 -40.0 241.0 -28.0Z"/></g>
<g fill="black" opacity=".8" transform="translate(1300 200) scale(0.1 -0.1)"><path d="M0.0 0.0 15.0 -43.0C75.0 -11.0 145.0 27.0 172.0 42.0L167.0 57.0C100.0 34.0 32.0 10.0 0.0 0.0ZM43.0 155.0H11.0V31.0C11.0 17.0 8.0 12.0 -13.0 1.0L11.0 -46.0C22.0 -42.0 39.0 -24.0 31.0 3.0L19.0 -12.0L51.0 -0.0V150.0ZM90.0 161.0 11.0 170.0V95.0H51.0V135.0C76.0 137.0 88.0 147.0 90.0 161.0ZM166.0 164.0 148.0 156.0C175.0 73.0 232.0 3.0 308.0 -38.0C313.0 -18.0 326.0 -6.0 344.0 -5.0L345.0 5.0C267.0 35.0 197.0 94.0 166.0 164.0ZM282.0 166.0 231.0 212.0C185.0 187.0 95.0 156.0 21.0 141.0L27.0 123.0C103.0 129.0 189.0 150.0 243.0 167.0C262.0 158.0 275.0 158.0 282.0 166.0ZM27.0 196.0 -41.0 222.0C-61.0 182.0 -92.0 127.0 -120.0 96.0H-94.0C-64.0 121.0 -33.0 154.0 -11.0 179.0C9.0 178.0 22.0 186.0 27.0 196.0ZM-218.0 219.0 -230.0 213.0C-208.0 189.0 -185.0 152.0 -179.0 122.0C-139.0 92.0 -102.0 170.0 -218.0 219.0ZM-369.0 163.0H-413.0C-426.0 94.0 -460.0 14.0 -579.0 -47.0L-563.0 -60.0C-419.0 0.0 -385.0 79.0 -369.0 163.0ZM-282.0 163.0H-272.0C-275.0 75.0 -282.0 36.0 -292.0 26.0C-298.0 21.0 -304.0 20.0 -315.0 20.0C-330.0 20.0 -362.0 22.0 -383.0 25.0L-384.0 5.0C-368.0 3.0 -348.0 -1.0 -340.0 -6.0C-331.0 -12.0 -329.0 -26.0 -329.0 -36.0C-307.0 -36.0 -284.0 -30.0 -269.0 -18.0C-245.0 -1.0 -236.0 40.0 -234.0 131.0C-215.0 134.0 -203.0 137.0 -197.0 144.0L-256.0 192.0ZM-252.0 162.0H-542.0L-533.0 134.0H-252.0ZM-72.0 106.0 -142.0 114.0V-53.0H-132.0C-120.0 -53.0 -102.0 -43.0 -102.0 -36.0V84.0C-82.0 87.0 -74.0 95.0 -72.0 106.0ZM-184.0 360.0 -196.0 351.0C-170.0 332.0 -143.0 297.0 -137.0 269.0C-91.0 238.0 -57.0 327.0 -184.0 360.0ZM256.0 309.0 212.0 256.0H-563.0L-555.0 227.0H309.0C323.0 227.0 332.0 232.0 335.0 243.0C304.0 272.0 256.0 309.0 256.0 309.0ZM-195.0 -396.0H-363.0L-352.0 -423.0H-195.0ZM-195.0 -236.0H-359.0L-348.0 -264.0H-195.0ZM-364.0 -31.0 -442.0 -22.0V-203.0C-442.0 -321.0 -460.0 -455.0 -559.0 -547.0L-544.0 -560.0C-421.0 -467.0 -399.0 -324.0 -398.0 -204.0V-56.0C-374.0 -53.0 -366.0 -44.0 -364.0 -31.0ZM240.0 -28.0 168.0 -19.0V-560.0H176.0C194.0 -560.0 212.0 -548.0 212.0 -540.0V-51.0C231.0 -48.0 238.0 -40.0 240.0 -28.0Z"/></g>
<g fill="red" transform="translate(1400 200) scale(0.1 -0.1)"><path d="M0.0 0.0 35.0 -95.0C109.0 -54.0 182.0 -8.0 214.0 14.0L212.0 27.0C127.0 14.0 38.0 3.0 0.0 0.0ZM94.0 133.0H14.0V47.0C14.0 30.0 10.0 21.0 -16.0 6.0L34.0 -103.0C58.0 -93.0 87.0 -59.0 78.0 3.0L35.0 -30.0L120.0 1.0V117.0ZM140.0 135.0 14.0 147.0V70.0H120.0V117.0C134.0 120.0 139.0 126.0 140.0 135.0ZM179.0 118.0 167.0 112.0C184.0 21.0 224.0 -55.0 286.0 -111.0C298.0 -57.0 324.0 -22.0 361.0 -11.0L362.0 0.0C294.0 20.0 214.0 60.0 179.0 118.0ZM323.0 114.0 219.0 214.0C192.0 182.0 138.0 137.0 89.0 113.0L93.0 99.0C154.0 97.0 222.0 104.0 266.0 115.0C293.0 105.0 313.0 105.0 323.0 114.0ZM75.0 167.0 -62.0 199.0C-72.0 158.0 -90.0 100.0 -105.0 62.0H-89.0C-47.0 86.0 6.0 120.0 38.0 146.0C60.0 146.0 71.0 155.0 75.0 167.0ZM-242.0 202.0 -251.0 196.0C-231.0 171.0 -211.0 128.0 -210.0 91.0C-131.0 30.0 -42.0 178.0 -242.0 202.0ZM-373.0 129.0H-488.0C-494.0 56.0 -512.0 -32.0 -588.0 -100.0L-576.0 -113.0C-423.0 -56.0 -387.0 35.0 -373.0 129.0ZM-333.0 133.0H-323.0C-326.0 65.0 -332.0 32.0 -341.0 24.0C-345.0 21.0 -351.0 19.0 -363.0 19.0C-377.0 19.0 -408.0 21.0 -427.0 22.0V8.0C-403.0 2.0 -389.0 -6.0 -379.0 -19.0C-368.0 -32.0 -366.0 -57.0 -366.0 -83.0C-327.0 -83.0 -299.0 -76.0 -276.0 -62.0C-241.0 -41.0 -229.0 -1.0 -224.0 90.0C-206.0 93.0 -194.0 98.0 -188.0 106.0L-282.0 181.0ZM-298.0 133.0H-558.0L-549.0 105.0H-298.0ZM-35.0 79.0 -177.0 91.0V-104.0H-156.0C-114.0 -104.0 -62.0 -87.0 -62.0 -79.0V58.0C-42.0 61.0 -37.0 69.0 -35.0 79.0ZM-217.0 329.0 -223.0 324.0C-204.0 304.0 -181.0 266.0 -175.0 230.0C-55.0 161.0 50.0 375.0 -217.0 329.0ZM235.0 320.0 166.0 230.0H-584.0L-576.0 202.0H331.0C345.0 202.0 356.0 207.0 359.0 218.0C313.0 259.0 235.0 320.0 235.0 320.0ZM-214.0 -453.0H-345.0L-336.0 -481.0H-214.0ZM-208.0 -286.0H-330.0L-321.0 -314.0H-208.0ZM-304.0 -92.0 -463.0 -77.0V-260.0C-463.0 -381.0 -478.0 -519.0 -577.0 -618.0L-569.0 -626.0C-379.0 -547.0 -339.0 -394.0 -337.0 -262.0V-118.0C-313.0 -115.0 -306.0 -105.0 -304.0 -92.0ZM273.0 -87.0 114.0 -73.0V-627.0H139.0C186.0 -627.0 245.0 -602.0 245.0 -592.0V-110.0C266.0 -106.0 271.0 -98.0 273.0 -87.0Z"/></g>
<g fill="black" opacity=".8" transform="translate(1400 200) scale(0.1 -0.1)"><path d="M0.0 0.0 35.0 -95.0C109.0 -54.0 181.0 -8.0 214.0 14.0L212.0 27.0C127.0 15.0 39.0 3.0 0.0 0.0ZM95.0 133.0H14.0V46.0C14.0 29.0 10.0 21.0 -17.0 7.0L34.0 -103.0C58.0 -93.0 86.0 -59.0 78.0 3.0L35.0 -30.0L121.0 2.0V117.0ZM140.0 136.0 14.0 147.0V70.0H121.0V117.0C134.0 120.0 139.0 126.0 140.0 136.0ZM179.0 118.0 168.0 111.0C184.0 21.0 224.0 -55.0 286.0 -111.0C299.0 -56.0 324.0 -22.0 361.0 -10.0L362.0 -1.0C294.0 21.0 214.0 60.0 179.0 118.0ZM323.0 115.0 219.0 214.0C191.0 183.0 138.0 137.0 89.0 112.0L92.0 100.0C154.0 97.0 223.0 104.0 266.0 115.0C293.0 105.0 313.0 105.0 323.0 115.0ZM75.0 167.0 -61.0 200.0C-72.0 158.0 -90.0 100.0 -104.0 62.0H-89.0C-47.0 86.0 6.0 120.0 38.0 147.0C60.0 147.0 72.0 156.0 75.0 167.0ZM-242.0 202.0 -251.0 196.0C-231.0 171.0 -211.0 128.0 -210.0 91.0C-131.0 30.0 -42.0 179.0 -242.0 202.0ZM-373.0 129.0H-488.0C-494.0 56.0 -512.0 -32.0 -588.0 -100.0L-577.0 -112.0C-423.0 -56.0 -387.0 35.0 -373.0 129.0ZM-333.0 132.0H-323.0C-326.0 65.0 -331.0 32.0 -340.0 24.0C-344.0 20.0 -351.0 19.0 -363.0 19.0C-377.0 19.0 -407.0 21.0 -428.0 22.0V8.0C-403.0 2.0 -389.0 -6.0 -379.0 -18.0C-368.0 -32.0 -366.0 -57.0 -366.0 -83.0C-327.0 -83.0 -299.0 -76.0 -275.0 -62.0C-241.0 -41.0 -229.0 -2.0 -224.0 90.0C-206.0 93.0 -195.0 98.0 -189.0 106.0L-282.0 181.0ZM-298.0 132.0H-558.0L-549.0 105.0H-298.0ZM-34.0 79.0 -177.0 91.0V-104.0H-156.0C-114.0 -104.0 -63.0 -87.0 -63.0 -79.0V58.0C-43.0 61.0 -37.0 69.0 -34.0 79.0ZM-217.0 329.0 -224.0 324.0C-203.0 304.0 -180.0 266.0 -175.0 230.0C-55.0 161.0 51.0 374.0 -217.0 329.0ZM235.0 320.0 165.0 229.0H-585.0L-576.0 202.0H331.0C345.0 202.0 356.0 207.0 359.0 218.0C313.0 259.0 235.0 320.0 235.0 320.0ZM-214.0 -452.0H-345.0L-336.0 -481.0H-214.0ZM-208.0 -287.0H-331.0L-321.0 -315.0H-208.0ZM-304.0 -92.0 -463.0 -78.0V-260.0C-463.0 -381.0 -478.0 -519.0 -577.0 -618.0L-569.0 -626.0C-380.0 -547.0 -339.0 -394.0 -337.0 -263.0V-118.0C-313.0 -115.0 -306.0 -104.0 -304.0 -92.0ZM273.0 -88.0 113.0 -73.0V-627.0H139.0C186.0 -627.0 245.0 -603.0 245.0 -592.0V-110.0C266.0 -106.0 271.0 -98.0 273.0 -88.0Z"/></g>
</svg>
