<?xml version="1.0" encoding="UTF-8"?>
<svg width="1700" height="300" xmlns="http://www.w3.org/2000/svg">
<rect width="100%" height="100%" fill="white"/>
<g fill="green" transform="translate(100 100) scale(0.1 -0.1)"><path d="M-0.0 -0.0V-273.0C0.0 -423.0 -6.0 -643.0 -75.0 -806.0C-66.0 -809.0 -49.0 -817.0 -42.0 -823.0C26.0 -657.0 37.0 -428.0 37.0 -273.0V0.0ZM-126.0 -317.0V-834.0C-126.0 -928.0 -83.0 -947.0 62.0 -947.0C94.0 -947.0 487.0 -947.0 523.0 -947.0C658.0 -947.0 678.0 -899.0 689.0 -719.0C678.0 -717.0 662.0 -710.0 652.0 -703.0C643.0 -873.0 627.0 -910.0 526.0 -910.0C446.0 -910.0 110.0 -910.0 53.0 -910.0C-66.0 -910.0 -91.0 -894.0 -91.0 -836.0V-317.0Z"/></g>
<g fill="green" transform="translate(200 100) scale(0.1 -0.1)"><path d="M0.0 0.0V-274.0C0.0 -426.0 -2.0 -653.0 -57.0 -819.0C-19.0 -832.0 49.0 -868.0 78.0 -890.0C135.0 -709.0 143.0 -441.0 143.0 -274.0V0.0ZM-189.0 -407.0V-846.0C-189.0 -1004.0 -125.0 -1047.0 99.0 -1047.0C147.0 -1047.0 433.0 -1047.0 484.0 -1047.0C666.0 -1047.0 712.0 -995.0 733.0 -816.0C693.0 -809.0 629.0 -786.0 594.0 -764.0C582.0 -893.0 565.0 -917.0 473.0 -917.0C405.0 -917.0 156.0 -917.0 99.0 -917.0C-23.0 -917.0 -42.0 -907.0 -42.0 -845.0V-407.0Z"/></g>
<g fill="green" transform="translate(300 100) scale(0.1 -0.1)"><path d="M-0.0 -0.0V-168.0C0.0 -256.0 3.0 -411.0 10.0 -527.0C16.0 -528.0 29.0 -533.0 34.0 -536.0C25.0 -419.0 26.0 -258.0 26.0 -168.0V0.0ZM-196.0 -295.0V-574.0C-196.0 -642.0 -161.0 -656.0 -45.0 -656.0C-20.0 -656.0 305.0 -656.0 335.0 -656.0C440.0 -656.0 456.0 -623.0 465.0 -495.0C458.0 -494.0 446.0 -489.0 439.0 -484.0C432.0 -605.0 419.0 -630.0 337.0 -630.0C271.0 -630.0 -7.0 -630.0 -53.0 -630.0C-151.0 -630.0 -172.0 -618.0 -172.0 -575.0V-295.0Z"/></g>
<g fill="green" transform="translate(400 100) scale(0.1 -0.1)"><path d="M0.0 0.0V-166.0C0.0 -265.0 6.0 -428.0 18.0 -555.0C45.0 -560.0 95.0 -577.0 117.0 -588.0C95.0 -453.0 92.0 -265.0 92.0 -166.0V0.0ZM-254.0 -378.0V-609.0C-254.0 -712.0 -203.0 -739.0 -30.0 -739.0C8.0 -739.0 256.0 -739.0 296.0 -739.0C436.0 -739.0 468.0 -707.0 484.0 -585.0C458.0 -581.0 415.0 -567.0 392.0 -554.0C382.0 -643.0 368.0 -658.0 290.0 -658.0C231.0 -658.0 13.0 -658.0 -37.0 -658.0C-142.0 -658.0 -159.0 -650.0 -159.0 -608.0V-378.0Z"/></g>
<g fill="green" transform="translate(500 100) scale(0.1 -0.1)"><path d="M-0.0 0.0V-234.0C0.0 -416.0 -31.0 -639.0 -262.0 -807.0C-251.0 -813.0 -237.0 -822.0 -229.0 -830.0C4.0 -657.0 37.0 -429.0 37.0 -234.0V0.0ZM413.0 -46.0V-737.0C413.0 -816.0 436.0 -831.0 522.0 -831.0C543.0 -831.0 708.0 -831.0 729.0 -831.0C824.0 -831.0 836.0 -769.0 843.0 -540.0C831.0 -538.0 817.0 -531.0 805.0 -522.0C801.0 -745.0 792.0 -793.0 727.0 -793.0C691.0 -793.0 548.0 -793.0 520.0 -793.0C463.0 -793.0 449.0 -784.0 449.0 -738.0V-46.0Z"/></g>
<g fill="green" transform="translate(600 100) scale(0.1 -0.1)"><path d="M0.0 0.0V-214.0C0.0 -364.0 -26.0 -582.0 -250.0 -724.0C-208.0 -753.0 -142.0 -817.0 -114.0 -855.0C145.0 -685.0 181.0 -408.0 181.0 -216.0V0.0ZM353.0 -61.0V-627.0C353.0 -801.0 396.0 -860.0 555.0 -860.0C583.0 -860.0 676.0 -860.0 707.0 -860.0C848.0 -860.0 891.0 -777.0 907.0 -534.0C860.0 -523.0 781.0 -490.0 741.0 -459.0C735.0 -651.0 728.0 -691.0 689.0 -691.0C668.0 -691.0 600.0 -691.0 582.0 -691.0C541.0 -691.0 536.0 -683.0 536.0 -627.0V-61.0Z"/></g>
<g fill="green" transform="translate(700 100) scale(0.1 -0.1)"><path d="M0.0 -0.0V-398.0C0.0 -568.0 -1.0 -734.0 -73.0 -856.0C-68.0 -859.0 -58.0 -866.0 -55.0 -870.0C23.0 -745.0 26.0 -570.0 26.0 -398.0V0.0ZM-46.0 -187.0V-858.0C-46.0 -933.0 -18.0 -949.0 77.0 -949.0C100.0 -949.0 355.0 -949.0 378.0 -949.0C470.0 -949.0 482.0 -908.0 489.0 -784.0C482.0 -782.0 471.0 -777.0 463.0 -772.0C456.0 -888.0 447.0 -924.0 383.0 -924.0C330.0 -924.0 110.0 -924.0 71.0 -924.0C-6.0 -924.0 -22.0 -909.0 -22.0 -861.0V-187.0Z"/></g>
<g fill="green" transform="translate(800 100) scale(0.1 -0.1)"><path d="M0.0 0.0V-409.0C0.0 -582.0 -5.0 -766.0 -60.0 -892.0C-34.0 -904.0 10.0 -936.0 29.0 -958.0C97.0 -817.0 102.0 -604.0 102.0 -407.0V0.0ZM-67.0 -242.0V-889.0C-67.0 -1020.0 -22.0 -1052.0 123.0 -1052.0C155.0 -1052.0 341.0 -1052.0 375.0 -1052.0C498.0 -1052.0 530.0 -1003.0 544.0 -887.0C515.0 -883.0 473.0 -863.0 446.0 -847.0C437.0 -930.0 425.0 -956.0 366.0 -956.0C324.0 -956.0 164.0 -956.0 127.0 -956.0C50.0 -956.0 38.0 -947.0 38.0 -889.0V-242.0Z"/></g>
<g fill="green" transform="translate(900 100) scale(0.1 -0.1)"><path d="M0.0 0.0V-273.0C0.0 -435.0 -24.0 -660.0 -199.0 -820.0C-189.0 -824.0 -171.0 -834.0 -164.0 -842.0C10.0 -680.0 40.0 -443.0 40.0 -273.0V0.0ZM-182.0 -288.0V-825.0C-182.0 -923.0 -133.0 -942.0 19.0 -942.0C52.0 -942.0 485.0 -942.0 523.0 -942.0C657.0 -942.0 680.0 -907.0 691.0 -770.0C679.0 -767.0 661.0 -759.0 651.0 -752.0C641.0 -880.0 625.0 -901.0 527.0 -901.0C441.0 -901.0 71.0 -901.0 10.0 -901.0C-117.0 -901.0 -142.0 -885.0 -142.0 -827.0V-288.0Z"/></g>
<g fill="green" transform="translate(1000 100) scale(0.1 -0.1)"><path d="M0.0 0.0V-298.0C0.0 -449.0 -14.0 -664.0 -152.0 -806.0C-113.0 -825.0 -45.0 -872.0 -19.0 -899.0C137.0 -743.0 163.0 -478.0 163.0 -300.0V0.0ZM-203.0 -368.0V-805.0C-203.0 -982.0 -138.0 -1028.0 103.0 -1028.0C157.0 -1028.0 439.0 -1028.0 497.0 -1028.0C680.0 -1028.0 736.0 -992.0 762.0 -834.0C714.0 -825.0 644.0 -801.0 607.0 -778.0C594.0 -868.0 576.0 -878.0 483.0 -878.0C416.0 -878.0 165.0 -878.0 107.0 -878.0C-17.0 -878.0 -36.0 -869.0 -36.0 -803.0V-368.0Z"/></g>
<g fill="red" transform="translate(100 200) scale(0.1 -0.1)"><path d="M0.0 0.0V-328.0C0.0 -518.0 -23.0 -703.0 -231.0 -842.0C-223.0 -847.0 -214.0 -856.0 -209.0 -862.0C5.0 -718.0 29.0 -528.0 29.0 -328.0V0.0ZM383.0 2.0V-770.0C383.0 -837.0 399.0 -852.0 460.0 -852.0C475.0 -852.0 580.0 -852.0 594.0 -852.0C666.0 -852.0 673.0 -796.0 678.0 -614.0C669.0 -612.0 658.0 -607.0 648.0 -599.0C644.0 -776.0 639.0 -822.0 595.0 -822.0C571.0 -822.0 478.0 -822.0 459.0 -822.0C421.0 -822.0 412.0 -813.0 412.0 -771.0V2.0Z"/></g>
<g fill="black" opacity=".8" transform="translate(100 200) scale(0.1 -0.1)"><path d="M0.0 0.0V-328.0C0.0 -519.0 -24.0 -703.0 -231.0 -842.0C-223.0 -847.0 -213.0 -856.0 -208.0 -862.0C5.0 -719.0 29.0 -528.0 29.0 -328.0V0.0ZM383.0 2.0V-769.0C383.0 -837.0 399.0 -851.0 459.0 -851.0C476.0 -851.0 580.0 -851.0 594.0 -851.0C666.0 -851.0 673.0 -796.0 678.0 -614.0C669.0 -612.0 658.0 -607.0 648.0 -599.0C645.0 -776.0 639.0 -821.0 595.0 -821.0C571.0 -821.0 478.0 -821.0 458.0 -821.0C421.0 -821.0 411.0 -812.0 411.0 -771.0V2.0Z"/></g>
<g fill="red" transform="translate(200 200) scale(0.1 -0.1)"><path d="M0.0 0.0V-318.0C0.0 -483.0 -24.0 -673.0 -221.0 -790.0C-189.0 -816.0 -139.0 -873.0 -118.0 -908.0C117.0 -764.0 146.0 -528.0 146.0 -319.0V0.0ZM352.0 0.0V-692.0C352.0 -845.0 385.0 -893.0 499.0 -893.0C519.0 -893.0 573.0 -893.0 594.0 -893.0C701.0 -893.0 735.0 -818.0 747.0 -629.0C708.0 -620.0 647.0 -592.0 613.0 -566.0C609.0 -715.0 604.0 -754.0 579.0 -754.0C569.0 -754.0 535.0 -754.0 525.0 -754.0C502.0 -754.0 500.0 -747.0 500.0 -693.0V0.0Z"/></g>
<g fill="black" opacity=".8" transform="translate(200 200) scale(0.1 -0.1)"><path d="M0.0 0.0V-318.0C0.0 -483.0 -24.0 -673.0 -221.0 -790.0C-188.0 -816.0 -139.0 -873.0 -118.0 -908.0C117.0 -765.0 146.0 -528.0 146.0 -319.0V0.0ZM352.0 -0.0V-692.0C352.0 -845.0 385.0 -893.0 499.0 -893.0C519.0 -893.0 573.0 -893.0 595.0 -893.0C701.0 -893.0 735.0 -817.0 747.0 -629.0C708.0 -621.0 647.0 -591.0 614.0 -566.0C609.0 -716.0 604.0 -754.0 579.0 -754.0C569.0 -754.0 535.0 -754.0 525.0 -754.0C502.0 -754.0 500.0 -747.0 500.0 -693.0V-0.0Z"/></g>
<g fill="red" transform="translate(300 200) scale(0.1 -0.1)"><path d="M0.0 0.0V-375.0C0.0 -575.0 -33.0 -748.0 -306.0 -870.0C-299.0 -876.0 -291.0 -886.0 -287.0 -893.0C-6.0 -767.0 29.0 -585.0 29.0 -375.0V0.0ZM213.0 0.0V-793.0C213.0 -862.0 235.0 -877.0 304.0 -877.0C320.0 -877.0 482.0 -877.0 498.0 -877.0C566.0 -877.0 576.0 -840.0 581.0 -730.0C572.0 -727.0 560.0 -722.0 551.0 -715.0C546.0 -820.0 541.0 -847.0 501.0 -847.0C468.0 -847.0 327.0 -847.0 302.0 -847.0C252.0 -847.0 243.0 -836.0 243.0 -794.0V0.0Z"/></g>
<g fill="black" opacity=".8" transform="translate(300 200) scale(0.1 -0.1)"><path d="M0.0 0.0V-375.0C0.0 -576.0 -34.0 -748.0 -306.0 -870.0C-299.0 -876.0 -290.0 -886.0 -286.0 -893.0C-6.0 -768.0 29.0 -585.0 29.0 -375.0V0.0ZM213.0 0.0V-792.0C213.0 -862.0 235.0 -876.0 303.0 -876.0C320.0 -876.0 482.0 -876.0 498.0 -876.0C566.0 -876.0 576.0 -840.0 581.0 -730.0C572.0 -727.0 560.0 -721.0 551.0 -715.0C546.0 -820.0 541.0 -846.0 501.0 -846.0C468.0 -846.0 327.0 -846.0 301.0 -846.0C252.0 -846.0 242.0 -836.0 242.0 -795.0V0.0Z"/></g>
<g fill="red" transform="translate(400 200) scale(0.1 -0.1)"><path d="M0.0 0.0V-398.0C0.0 -568.0 -31.0 -736.0 -267.0 -823.0C-239.0 -850.0 -196.0 -910.0 -180.0 -946.0C105.0 -836.0 144.0 -622.0 144.0 -399.0V0.0ZM235.0 0.0V-720.0C235.0 -879.0 269.0 -923.0 393.0 -923.0C420.0 -923.0 489.0 -923.0 517.0 -923.0C618.0 -923.0 658.0 -873.0 675.0 -740.0C633.0 -731.0 576.0 -706.0 544.0 -683.0C538.0 -763.0 531.0 -785.0 502.0 -785.0C488.0 -785.0 432.0 -785.0 418.0 -785.0C385.0 -785.0 382.0 -778.0 382.0 -720.0V0.0Z"/></g>
<g fill="black" opacity=".8" transform="translate(400 200) scale(0.1 -0.1)"><path d="M0.0 0.0V-398.0C0.0 -569.0 -31.0 -735.0 -268.0 -823.0C-238.0 -851.0 -196.0 -910.0 -180.0 -946.0C105.0 -837.0 144.0 -622.0 144.0 -399.0V0.0ZM236.0 -1.0V-720.0C236.0 -879.0 269.0 -924.0 393.0 -924.0C420.0 -924.0 489.0 -924.0 518.0 -924.0C618.0 -924.0 658.0 -872.0 674.0 -740.0C633.0 -732.0 577.0 -705.0 545.0 -683.0C538.0 -763.0 531.0 -785.0 502.0 -785.0C488.0 -785.0 432.0 -785.0 417.0 -785.0C385.0 -785.0 382.0 -778.0 382.0 -719.0V-1.0Z"/></g>
<g fill="red" transform="translate(500 200) scale(0.1 -0.1)"><path d="M0.0 0.0V-244.0C0.0 -370.0 -8.0 -544.0 -88.0 -670.0C-81.0 -673.0 -68.0 -680.0 -63.0 -685.0C17.0 -557.0 30.0 -374.0 30.0 -244.0V0.0ZM-173.0 -260.0V-692.0C-173.0 -769.0 -136.0 -785.0 -14.0 -785.0C12.0 -785.0 355.0 -785.0 385.0 -785.0C494.0 -785.0 511.0 -753.0 520.0 -635.0C511.0 -633.0 498.0 -628.0 490.0 -622.0C482.0 -732.0 469.0 -755.0 389.0 -755.0C320.0 -755.0 27.0 -755.0 -22.0 -755.0C-124.0 -755.0 -144.0 -741.0 -144.0 -693.0V-260.0Z"/></g>
<g fill="black" opacity=".8" transform="translate(500 200) scale(0.1 -0.1)"><path d="M0.0 0.0V-244.0C0.0 -370.0 -9.0 -544.0 -88.0 -670.0C-81.0 -673.0 -68.0 -680.0 -63.0 -685.0C17.0 -557.0 30.0 -375.0 30.0 -244.0V0.0ZM-173.0 -260.0V-692.0C-173.0 -769.0 -135.0 -784.0 -15.0 -784.0C12.0 -784.0 355.0 -784.0 386.0 -784.0C493.0 -784.0 511.0 -753.0 520.0 -635.0C511.0 -633.0 498.0 -628.0 490.0 -622.0C482.0 -732.0 469.0 -754.0 389.0 -754.0C320.0 -754.0 26.0 -754.0 -22.0 -754.0C-124.0 -754.0 -145.0 -741.0 -145.0 -693.0V-260.0Z"/></g>
<g fill="red" transform="translate(600 200) scale(0.1 -0.1)"><path d="M0.0 0.0V-258.0C0.0 -384.0 -4.0 -561.0 -62.0 -684.0C-33.0 -695.0 19.0 -725.0 41.0 -743.0C105.0 -609.0 115.0 -400.0 115.0 -258.0V0.0ZM-203.0 -333.0V-705.0C-203.0 -836.0 -151.0 -869.0 35.0 -869.0C77.0 -869.0 317.0 -869.0 361.0 -869.0C507.0 -869.0 547.0 -837.0 566.0 -714.0C532.0 -708.0 482.0 -691.0 454.0 -674.0C444.0 -751.0 429.0 -764.0 352.0 -764.0C295.0 -764.0 83.0 -764.0 35.0 -764.0C-69.0 -764.0 -85.0 -756.0 -85.0 -704.0V-333.0Z"/></g>
<g fill="black" opacity=".8" transform="translate(600 200) scale(0.1 -0.1)"><path d="M0.0 0.0V-258.0C0.0 -385.0 -4.0 -560.0 -63.0 -684.0C-33.0 -695.0 19.0 -725.0 41.0 -744.0C105.0 -609.0 115.0 -400.0 115.0 -258.0V0.0ZM-203.0 -334.0V-705.0C-203.0 -836.0 -150.0 -869.0 35.0 -869.0C77.0 -869.0 317.0 -869.0 361.0 -869.0C507.0 -869.0 547.0 -836.0 566.0 -714.0C532.0 -708.0 482.0 -690.0 454.0 -674.0C444.0 -751.0 429.0 -764.0 352.0 -764.0C295.0 -764.0 83.0 -764.0 34.0 -764.0C-69.0 -764.0 -85.0 -756.0 -85.0 -704.0V-334.0Z"/></g>
<g fill="red" transform="translate(700 200) scale(0.1 -0.1)"><path d="M0.0 0.0V-128.0C0.0 -258.0 -36.0 -420.0 -277.0 -539.0C-268.0 -544.0 -258.0 -552.0 -252.0 -559.0C-10.0 -437.0 29.0 -270.0 29.0 -128.0V0.0ZM298.0 0.0V-470.0C298.0 -526.0 317.0 -537.0 381.0 -537.0C395.0 -537.0 525.0 -537.0 540.0 -537.0C606.0 -537.0 616.0 -500.0 621.0 -357.0C611.0 -355.0 600.0 -350.0 591.0 -343.0C588.0 -482.0 582.0 -507.0 539.0 -507.0C512.0 -507.0 400.0 -507.0 380.0 -507.0C337.0 -507.0 328.0 -501.0 328.0 -470.0V0.0Z"/></g>
<g fill="black" opacity=".8" transform="translate(700 200) scale(0.1 -0.1)"><path d="M0.0 0.0V-129.0C0.0 -259.0 -37.0 -421.0 -277.0 -539.0C-268.0 -544.0 -257.0 -552.0 -251.0 -558.0C-10.0 -438.0 28.0 -271.0 28.0 -129.0V0.0ZM298.0 -1.0V-470.0C298.0 -526.0 318.0 -536.0 380.0 -536.0C395.0 -536.0 524.0 -536.0 541.0 -536.0C605.0 -536.0 616.0 -499.0 621.0 -357.0C612.0 -355.0 600.0 -350.0 591.0 -343.0C588.0 -483.0 582.0 -506.0 539.0 -506.0C512.0 -506.0 400.0 -506.0 379.0 -506.0C337.0 -506.0 327.0 -501.0 327.0 -470.0V-1.0Z"/></g>
<g fill="red" transform="translate(800 200) scale(0.1 -0.1)"><path d="M0.0 0.0V-126.0C0.0 -221.0 -27.0 -366.0 -251.0 -450.0C-220.0 -475.0 -172.0 -529.0 -153.0 -560.0C107.0 -456.0 146.0 -262.0 146.0 -129.0V0.0ZM277.0 0.0V-357.0C277.0 -492.0 307.0 -537.0 429.0 -537.0C452.0 -537.0 504.0 -537.0 529.0 -537.0C630.0 -537.0 667.0 -487.0 681.0 -318.0C642.0 -308.0 579.0 -284.0 549.0 -260.0C545.0 -380.0 540.0 -400.0 514.0 -400.0C502.0 -400.0 464.0 -400.0 453.0 -400.0C427.0 -400.0 424.0 -396.0 424.0 -356.0V0.0Z"/></g>
<g fill="black" opacity=".8" transform="translate(800 200) scale(0.1 -0.1)"><path d="M0.0 0.0V-125.0C0.0 -222.0 -28.0 -366.0 -252.0 -450.0C-220.0 -475.0 -172.0 -529.0 -153.0 -560.0C107.0 -456.0 146.0 -262.0 146.0 -129.0V0.0ZM277.0 -1.0V-357.0C277.0 -491.0 308.0 -537.0 429.0 -537.0C452.0 -537.0 504.0 -537.0 529.0 -537.0C629.0 -537.0 666.0 -487.0 681.0 -318.0C642.0 -308.0 579.0 -283.0 549.0 -260.0C545.0 -381.0 540.0 -401.0 514.0 -401.0C503.0 -401.0 464.0 -401.0 452.0 -401.0C427.0 -401.0 424.0 -395.0 424.0 -356.0V-1.0Z"/></g>
</svg>
