<?xml version="1.0" encoding="UTF-8"?>
<svg width="1700" height="400" xmlns="http://www.w3.org/2000/svg">
<rect width="100%" height="100%" fill="white"/>
<g fill="green" transform="translate(100 100) scale(0.1 -0.1)"><path d="M0.0 -0.0V-886.0H35.0V-35.0H766.0V-0.0ZM749.0 -0.0V-818.0C749.0 -840.0 742.0 -846.0 719.0 -847.0C697.0 -849.0 620.0 -850.0 526.0 -847.0C533.0 -859.0 539.0 -874.0 543.0 -883.0C652.0 -883.0 714.0 -883.0 743.0 -877.0C773.0 -870.0 784.0 -854.0 784.0 -818.0V0.0Z"/></g>
<g fill="green" transform="translate(200 100) scale(0.1 -0.1)"><path d="M0.0 0.0V-959.0H174.0V-154.0H754.0V0.0ZM687.0 0.0V-770.0C687.0 -790.0 679.0 -797.0 657.0 -797.0C635.0 -797.0 555.0 -798.0 495.0 -794.0C519.0 -837.0 547.0 -914.0 554.0 -961.0C659.0 -961.0 734.0 -958.0 789.0 -931.0C844.0 -904.0 863.0 -858.0 863.0 -772.0V0.0Z"/></g>
<g fill="green" transform="translate(300 100) scale(0.1 -0.1)"><path d="M0.0 0.0V-565.0H22.0V-22.0H449.0V0.0ZM439.0 0.0V-521.0C439.0 -535.0 434.0 -539.0 419.0 -539.0C405.0 -541.0 354.0 -541.0 293.0 -539.0C297.0 -547.0 301.0 -557.0 304.0 -562.0C375.0 -562.0 416.0 -562.0 434.0 -559.0C454.0 -554.0 461.0 -544.0 461.0 -521.0V0.0Z"/></g>
<g fill="green" transform="translate(400 100) scale(0.1 -0.1)"><path d="M0.0 0.0V-612.0H112.0V-96.0H438.0V0.0ZM401.0 0.0V-492.0C401.0 -505.0 395.0 -510.0 381.0 -510.0C366.0 -509.0 312.0 -510.0 271.0 -508.0C286.0 -535.0 305.0 -584.0 309.0 -614.0C379.0 -614.0 429.0 -612.0 464.0 -595.0C500.0 -578.0 513.0 -549.0 513.0 -493.0V0.0Z"/></g>
<g fill="green" transform="translate(500 100) scale(0.1 -0.1)"><path d="M0.0 0.0V-698.0H45.0V-44.0H977.0V0.0ZM954.0 0.0V-618.0C954.0 -643.0 948.0 -651.0 919.0 -652.0C889.0 -655.0 794.0 -656.0 667.0 -652.0C675.0 -668.0 683.0 -686.0 688.0 -698.0C827.0 -698.0 911.0 -698.0 949.0 -690.0C988.0 -681.0 999.0 -661.0 999.0 -619.0V0.0Z"/></g>
<g fill="green" transform="translate(600 100) scale(0.1 -0.1)"><path d="M0.0 0.0V-772.0H219.0V-173.0H955.0V0.0ZM862.0 0.0V-557.0C862.0 -580.0 852.0 -586.0 825.0 -587.0C800.0 -587.0 696.0 -588.0 626.0 -583.0C653.0 -634.0 686.0 -715.0 696.0 -771.0C822.0 -772.0 918.0 -771.0 989.0 -742.0C1060.0 -712.0 1085.0 -661.0 1085.0 -560.0V0.0Z"/></g>
<g fill="green" transform="translate(700 100) scale(0.1 -0.1)"><path d="M0.0 -0.0V-880.0H27.0V-27.0H747.0V0.0ZM732.0 0.0V-830.0C732.0 -847.0 726.0 -852.0 710.0 -852.0C696.0 -854.0 645.0 -855.0 584.0 -852.0C590.0 -861.0 594.0 -873.0 597.0 -879.0C671.0 -880.0 710.0 -879.0 729.0 -874.0C749.0 -870.0 760.0 -858.0 760.0 -830.0V0.0Z"/></g>
<g fill="green" transform="translate(800 100) scale(0.1 -0.1)"><path d="M0.0 0.0V-941.0H130.0V-138.0H757.0V0.0ZM686.0 0.0V-786.0C686.0 -800.0 682.0 -807.0 668.0 -807.0C653.0 -807.0 609.0 -807.0 571.0 -804.0C590.0 -839.0 611.0 -904.0 615.0 -941.0C686.0 -941.0 734.0 -937.0 770.0 -914.0C807.0 -891.0 817.0 -852.0 817.0 -788.0V0.0Z"/></g>
<g fill="red" transform="translate(100 200) scale(0.1 -0.1)"><path d="M0.0 0.0V-528.0H29.0V-30.0H765.0V0.0ZM750.0 0.0V-478.0C750.0 -493.0 746.0 -498.0 729.0 -499.0C711.0 -500.0 657.0 -501.0 584.0 -499.0C590.0 -509.0 595.0 -522.0 597.0 -530.0C675.0 -530.0 725.0 -530.0 749.0 -524.0C772.0 -519.0 779.0 -506.0 779.0 -478.0V0.0Z"/></g>
<g fill="black" opacity=".8" transform="translate(100 200) scale(0.1 -0.1)"><path d="M0.0 0.0V-525.0H29.0V-28.0H763.0V0.0ZM746.0 0.0V-476.0C746.0 -492.0 742.0 -498.0 725.0 -497.0C708.0 -500.0 654.0 -500.0 580.0 -497.0C585.0 -508.0 590.0 -520.0 593.0 -526.0C675.0 -527.0 723.0 -526.0 744.0 -521.0C767.0 -516.0 776.0 -504.0 776.0 -477.0V0.0Z"/></g>
<g fill="red" transform="translate(200 200) scale(0.1 -0.1)"><path d="M0.0 0.0V-567.0H139.0V-127.0H753.0V0.0ZM681.0 0.0V-431.0C681.0 -444.0 676.0 -448.0 661.0 -449.0C648.0 -449.0 596.0 -449.0 560.0 -447.0C577.0 -479.0 598.0 -531.0 605.0 -566.0C674.0 -567.0 728.0 -565.0 769.0 -546.0C811.0 -526.0 824.0 -494.0 824.0 -433.0V0.0Z"/></g>
<g fill="black" opacity=".8" transform="translate(200 200) scale(0.1 -0.1)"><path d="M0.0 0.0V-572.0H138.0V-123.0H763.0V0.0ZM685.0 0.0V-431.0C685.0 -444.0 681.0 -449.0 666.0 -450.0C652.0 -449.0 600.0 -449.0 562.0 -447.0C579.0 -480.0 600.0 -533.0 605.0 -569.0C677.0 -570.0 731.0 -569.0 771.0 -549.0C813.0 -529.0 825.0 -495.0 825.0 -433.0V0.0Z"/></g>
<g fill="red" transform="translate(300 200) scale(0.1 -0.1)"><path d="M0.0 0.0V-827.0H29.0V-30.0H762.0V0.0ZM747.0 0.0V-769.0C747.0 -789.0 739.0 -795.0 718.0 -796.0C699.0 -798.0 629.0 -798.0 544.0 -796.0C550.0 -806.0 554.0 -818.0 557.0 -826.0C658.0 -826.0 712.0 -826.0 739.0 -820.0C765.0 -815.0 776.0 -801.0 776.0 -768.0V0.0Z"/></g>
<g fill="black" opacity=".8" transform="translate(300 200) scale(0.1 -0.1)"><path d="M0.0 0.0V-829.0H31.0V-31.0H762.0V0.0ZM746.0 0.0V-771.0C746.0 -790.0 740.0 -796.0 721.0 -796.0C702.0 -799.0 639.0 -799.0 560.0 -796.0C567.0 -807.0 572.0 -820.0 575.0 -828.0C667.0 -829.0 718.0 -828.0 742.0 -822.0C767.0 -817.0 778.0 -803.0 778.0 -771.0V0.0Z"/></g>
<g fill="red" transform="translate(400 200) scale(0.1 -0.1)"><path d="M0.0 0.0V-893.0H146.0V-142.0H757.0V0.0ZM698.0 0.0V-728.0C698.0 -745.0 692.0 -751.0 674.0 -752.0C656.0 -752.0 595.0 -752.0 548.0 -749.0C569.0 -786.0 593.0 -854.0 599.0 -895.0C683.0 -895.0 743.0 -891.0 788.0 -867.0C832.0 -843.0 846.0 -803.0 846.0 -731.0V0.0Z"/></g>
<g fill="black" opacity=".8" transform="translate(400 200) scale(0.1 -0.1)"><path d="M0.0 0.0V-894.0H152.0V-144.0H761.0V0.0ZM690.0 0.0V-725.0C690.0 -742.0 684.0 -748.0 666.0 -749.0C648.0 -748.0 586.0 -749.0 538.0 -745.0C559.0 -784.0 583.0 -853.0 589.0 -895.0C676.0 -895.0 738.0 -892.0 783.0 -867.0C829.0 -843.0 844.0 -801.0 844.0 -727.0V0.0Z"/></g>
<g fill="red" transform="translate(500 200) scale(0.1 -0.1)"><path d="M0.0 0.0V-827.0H29.0V-30.0H758.0V0.0ZM744.0 0.0V-772.0C744.0 -790.0 737.0 -795.0 718.0 -796.0C702.0 -797.0 640.0 -798.0 565.0 -796.0C571.0 -805.0 576.0 -818.0 579.0 -826.0C667.0 -826.0 715.0 -826.0 740.0 -821.0C763.0 -815.0 773.0 -802.0 773.0 -771.0V0.0Z"/></g>
<g fill="black" opacity=".8" transform="translate(500 200) scale(0.1 -0.1)"><path d="M0.0 0.0V-829.0H30.0V-30.0H762.0V0.0ZM746.0 0.0V-773.0C746.0 -791.0 740.0 -797.0 721.0 -797.0C704.0 -799.0 643.0 -800.0 567.0 -797.0C574.0 -808.0 578.0 -821.0 582.0 -828.0C670.0 -829.0 719.0 -828.0 742.0 -822.0C766.0 -817.0 777.0 -804.0 777.0 -773.0V0.0Z"/></g>
<g fill="red" transform="translate(600 200) scale(0.1 -0.1)"><path d="M0.0 0.0V-893.0H146.0V-142.0H757.0V0.0ZM698.0 0.0V-728.0C698.0 -745.0 692.0 -751.0 674.0 -752.0C656.0 -752.0 595.0 -752.0 548.0 -749.0C569.0 -786.0 593.0 -854.0 599.0 -895.0C683.0 -895.0 743.0 -891.0 788.0 -867.0C832.0 -843.0 846.0 -803.0 846.0 -731.0V0.0Z"/></g>
<g fill="black" opacity=".8" transform="translate(600 200) scale(0.1 -0.1)"><path d="M0.0 0.0V-893.0H148.0V-142.0H763.0V0.0ZM692.0 0.0V-727.0C692.0 -743.0 686.0 -750.0 669.0 -750.0C651.0 -750.0 593.0 -750.0 547.0 -747.0C568.0 -784.0 591.0 -852.0 596.0 -893.0C680.0 -893.0 739.0 -890.0 783.0 -866.0C827.0 -842.0 841.0 -801.0 841.0 -729.0V0.0Z"/></g>
<g fill="red" transform="translate(700 200) scale(0.1 -0.1)"><path d="M0.0 0.0V-830.0H30.0V-30.0H783.0V0.0ZM773.0 0.0V-771.0C773.0 -789.0 767.0 -795.0 748.0 -796.0C728.0 -797.0 664.0 -798.0 584.0 -796.0C590.0 -806.0 595.0 -819.0 598.0 -827.0C689.0 -827.0 742.0 -827.0 767.0 -822.0C793.0 -816.0 803.0 -802.0 803.0 -770.0V0.0Z"/></g>
<g fill="black" opacity=".8" transform="translate(700 200) scale(0.1 -0.1)"><path d="M0.0 0.0V-828.0H32.0V-31.0H785.0V0.0ZM768.0 0.0V-769.0C768.0 -788.0 762.0 -794.0 742.0 -795.0C724.0 -797.0 660.0 -798.0 581.0 -795.0C587.0 -805.0 592.0 -819.0 596.0 -827.0C688.0 -827.0 740.0 -827.0 764.0 -821.0C789.0 -815.0 800.0 -801.0 800.0 -769.0V0.0Z"/></g>
<g fill="red" transform="translate(800 200) scale(0.1 -0.1)"><path d="M0.0 0.0V-888.0H146.0V-144.0H785.0V0.0ZM714.0 0.0V-723.0C714.0 -741.0 707.0 -747.0 688.0 -747.0C669.0 -747.0 603.0 -748.0 551.0 -744.0C572.0 -781.0 597.0 -848.0 603.0 -889.0C692.0 -889.0 754.0 -886.0 800.0 -862.0C846.0 -838.0 861.0 -799.0 861.0 -725.0V0.0Z"/></g>
<g fill="black" opacity=".8" transform="translate(800 200) scale(0.1 -0.1)"><path d="M0.0 0.0V-892.0H154.0V-146.0H784.0V0.0ZM711.0 0.0V-722.0C711.0 -738.0 705.0 -745.0 687.0 -745.0C669.0 -745.0 607.0 -746.0 559.0 -742.0C580.0 -781.0 605.0 -851.0 610.0 -893.0C697.0 -893.0 759.0 -890.0 805.0 -865.0C852.0 -840.0 866.0 -798.0 866.0 -724.0V0.0Z"/></g>
<g fill="red" transform="translate(900 200) scale(0.1 -0.1)"><path d="M0.0 0.0V-765.0H29.0V-29.0H652.0V0.0ZM639.0 0.0V-708.0C639.0 -726.0 633.0 -731.0 615.0 -732.0C597.0 -733.0 533.0 -734.0 456.0 -732.0C462.0 -742.0 467.0 -756.0 470.0 -763.0C556.0 -763.0 609.0 -763.0 634.0 -759.0C659.0 -753.0 668.0 -739.0 668.0 -708.0V0.0Z"/></g>
<g fill="black" opacity=".8" transform="translate(900 200) scale(0.1 -0.1)"><path d="M0.0 0.0V-768.0H29.0V-29.0H653.0V0.0ZM639.0 0.0V-712.0C639.0 -730.0 633.0 -735.0 614.0 -735.0C596.0 -737.0 533.0 -738.0 456.0 -735.0C462.0 -745.0 467.0 -758.0 470.0 -765.0C560.0 -765.0 610.0 -765.0 634.0 -761.0C658.0 -755.0 668.0 -742.0 668.0 -712.0V0.0Z"/></g>
<g fill="red" transform="translate(1000 200) scale(0.1 -0.1)"><path d="M0.0 0.0V-836.0H143.0V-134.0H653.0V0.0ZM586.0 0.0V-673.0C586.0 -689.0 580.0 -695.0 562.0 -695.0C544.0 -696.0 481.0 -696.0 432.0 -693.0C452.0 -729.0 476.0 -795.0 482.0 -835.0C567.0 -835.0 627.0 -832.0 672.0 -808.0C717.0 -785.0 732.0 -746.0 732.0 -675.0V0.0Z"/></g>
<g fill="black" opacity=".8" transform="translate(1000 200) scale(0.1 -0.1)"><path d="M0.0 0.0V-829.0H145.0V-131.0H645.0V0.0ZM588.0 0.0V-671.0C588.0 -687.0 581.0 -694.0 563.0 -694.0C545.0 -693.0 481.0 -694.0 431.0 -691.0C451.0 -727.0 475.0 -792.0 480.0 -831.0C567.0 -831.0 628.0 -828.0 673.0 -806.0C718.0 -783.0 733.0 -744.0 733.0 -672.0V0.0Z"/></g>
<g fill="red" transform="translate(1100 200) scale(0.1 -0.1)"><path d="M0.0 0.0V-837.0H30.0V-30.0H697.0V0.0ZM684.0 0.0V-786.0C684.0 -800.0 679.0 -804.0 667.0 -805.0C654.0 -805.0 610.0 -806.0 558.0 -804.0C563.0 -814.0 569.0 -828.0 570.0 -835.0C631.0 -835.0 668.0 -835.0 687.0 -829.0C706.0 -824.0 714.0 -812.0 714.0 -785.0V0.0Z"/></g>
<g fill="black" opacity=".8" transform="translate(1100 200) scale(0.1 -0.1)"><path d="M0.0 0.0V-832.0H25.0V-25.0H700.0V0.0ZM686.0 0.0V-786.0C686.0 -801.0 680.0 -806.0 665.0 -806.0C652.0 -808.0 605.0 -809.0 549.0 -806.0C555.0 -814.0 558.0 -826.0 561.0 -831.0C630.0 -832.0 665.0 -831.0 683.0 -826.0C701.0 -823.0 712.0 -812.0 712.0 -786.0V0.0Z"/></g>
<g fill="red" transform="translate(1200 200) scale(0.1 -0.1)"><path d="M0.0 0.0V-898.0H143.0V-143.0H702.0V0.0ZM623.0 0.0V-740.0C623.0 -751.0 620.0 -756.0 609.0 -756.0C599.0 -756.0 571.0 -756.0 548.0 -754.0C567.0 -791.0 586.0 -856.0 590.0 -895.0C647.0 -895.0 689.0 -891.0 724.0 -867.0C759.0 -842.0 767.0 -803.0 767.0 -743.0V0.0Z"/></g>
<g fill="black" opacity=".8" transform="translate(1200 200) scale(0.1 -0.1)"><path d="M0.0 0.0V-889.0H121.0V-129.0H710.0V0.0ZM643.0 0.0V-744.0C643.0 -757.0 640.0 -764.0 627.0 -764.0C613.0 -764.0 573.0 -764.0 537.0 -761.0C555.0 -794.0 575.0 -855.0 578.0 -889.0C644.0 -889.0 688.0 -885.0 721.0 -864.0C756.0 -842.0 765.0 -806.0 765.0 -746.0V0.0Z"/></g>
<g fill="red" transform="translate(1300 200) scale(0.1 -0.1)"><path d="M0.0 0.0V-827.0H29.0V-30.0H755.0V0.0ZM738.0 0.0V-772.0C738.0 -790.0 731.0 -795.0 713.0 -796.0C697.0 -797.0 637.0 -798.0 563.0 -796.0C569.0 -805.0 574.0 -818.0 577.0 -825.0C663.0 -826.0 710.0 -826.0 734.0 -821.0C757.0 -815.0 767.0 -802.0 767.0 -772.0V0.0Z"/></g>
<g fill="black" opacity=".8" transform="translate(1300 200) scale(0.1 -0.1)"><path d="M0.0 0.0V-831.0H30.0V-30.0H755.0V0.0ZM739.0 0.0V-775.0C739.0 -794.0 733.0 -799.0 715.0 -799.0C698.0 -801.0 637.0 -802.0 563.0 -799.0C569.0 -810.0 574.0 -823.0 578.0 -830.0C665.0 -830.0 713.0 -830.0 736.0 -824.0C760.0 -819.0 770.0 -806.0 770.0 -775.0V0.0Z"/></g>
<g fill="red" transform="translate(1400 200) scale(0.1 -0.1)"><path d="M0.0 0.0V-898.0H144.0V-140.0H755.0V0.0ZM690.0 0.0V-733.0C690.0 -750.0 684.0 -756.0 667.0 -756.0C649.0 -756.0 590.0 -757.0 543.0 -753.0C563.0 -790.0 587.0 -858.0 593.0 -898.0C676.0 -898.0 735.0 -895.0 779.0 -871.0C823.0 -847.0 836.0 -807.0 836.0 -736.0V0.0Z"/></g>
<g fill="black" opacity=".8" transform="translate(1400 200) scale(0.1 -0.1)"><path d="M0.0 0.0V-894.0H146.0V-141.0H756.0V0.0ZM686.0 0.0V-730.0C686.0 -745.0 680.0 -752.0 664.0 -752.0C646.0 -752.0 589.0 -753.0 543.0 -749.0C564.0 -787.0 587.0 -854.0 592.0 -895.0C675.0 -895.0 733.0 -891.0 776.0 -868.0C820.0 -844.0 834.0 -803.0 834.0 -732.0V0.0Z"/></g>
<g fill="red" transform="translate(1500 200) scale(0.1 -0.1)"><path d="M0.0 0.0V-676.0H29.0V-30.0H639.0V0.0ZM625.0 0.0V-619.0C625.0 -637.0 620.0 -642.0 601.0 -643.0C583.0 -644.0 520.0 -645.0 443.0 -643.0C449.0 -653.0 453.0 -666.0 456.0 -674.0C544.0 -674.0 597.0 -674.0 621.0 -668.0C646.0 -663.0 654.0 -650.0 654.0 -619.0V0.0Z"/></g>
<g fill="black" opacity=".8" transform="translate(1500 200) scale(0.1 -0.1)"><path d="M0.0 0.0V-668.0H29.0V-29.0H644.0V0.0ZM630.0 0.0V-614.0C630.0 -631.0 624.0 -636.0 606.0 -637.0C588.0 -639.0 525.0 -639.0 448.0 -637.0C453.0 -647.0 458.0 -659.0 462.0 -666.0C551.0 -666.0 602.0 -666.0 625.0 -662.0C650.0 -656.0 659.0 -643.0 659.0 -614.0V0.0Z"/></g>
<g fill="red" transform="translate(1600 200) scale(0.1 -0.1)"><path d="M0.0 0.0V-720.0H144.0V-130.0H639.0V0.0ZM582.0 0.0V-566.0C582.0 -582.0 575.0 -587.0 557.0 -587.0C540.0 -587.0 474.0 -588.0 425.0 -585.0C445.0 -620.0 468.0 -682.0 475.0 -721.0C559.0 -721.0 620.0 -719.0 666.0 -697.0C712.0 -675.0 727.0 -637.0 727.0 -568.0V0.0Z"/></g>
<g fill="black" opacity=".8" transform="translate(1600 200) scale(0.1 -0.1)"><path d="M0.0 0.0V-725.0H143.0V-124.0H635.0V0.0ZM577.0 0.0V-573.0C577.0 -589.0 570.0 -595.0 553.0 -595.0C535.0 -595.0 470.0 -595.0 423.0 -592.0C442.0 -627.0 465.0 -688.0 470.0 -726.0C555.0 -726.0 616.0 -724.0 660.0 -703.0C705.0 -681.0 721.0 -644.0 721.0 -575.0V0.0Z"/></g>
<g fill="red" transform="translate(100 300) scale(0.1 -0.1)"><path d="M0.0 0.0V-473.0H29.0V-29.0H742.0V0.0ZM726.0 0.0V-422.0C726.0 -438.0 722.0 -443.0 704.0 -444.0C685.0 -445.0 626.0 -446.0 546.0 -443.0C550.0 -454.0 556.0 -466.0 558.0 -474.0C645.0 -474.0 698.0 -474.0 723.0 -468.0C748.0 -463.0 755.0 -450.0 755.0 -422.0V0.0Z"/></g>
<g fill="black" opacity=".8" transform="translate(100 300) scale(0.1 -0.1)"><path d="M0.0 0.0V-473.0H30.0V-29.0H745.0V0.0ZM729.0 0.0V-422.0C729.0 -438.0 725.0 -444.0 706.0 -444.0C687.0 -447.0 629.0 -447.0 548.0 -444.0C553.0 -455.0 559.0 -467.0 562.0 -474.0C650.0 -475.0 703.0 -474.0 726.0 -469.0C751.0 -464.0 760.0 -451.0 760.0 -423.0V0.0Z"/></g>
<g fill="red" transform="translate(200 300) scale(0.1 -0.1)"><path d="M0.0 0.0V-528.0H143.0V-130.0H744.0V0.0ZM669.0 0.0V-375.0C669.0 -388.0 663.0 -392.0 647.0 -392.0C632.0 -393.0 571.0 -393.0 528.0 -390.0C547.0 -426.0 569.0 -484.0 575.0 -523.0C651.0 -523.0 709.0 -522.0 755.0 -501.0C800.0 -480.0 814.0 -443.0 814.0 -378.0V0.0Z"/></g>
<g fill="black" opacity=".8" transform="translate(200 300) scale(0.1 -0.1)"><path d="M0.0 0.0V-520.0H145.0V-122.0H740.0V0.0ZM665.0 0.0V-377.0C665.0 -391.0 659.0 -396.0 643.0 -397.0C628.0 -396.0 567.0 -396.0 526.0 -393.0C543.0 -428.0 565.0 -481.0 571.0 -518.0C649.0 -519.0 708.0 -518.0 752.0 -499.0C797.0 -478.0 811.0 -444.0 811.0 -380.0V0.0Z"/></g>
<g fill="red" transform="translate(300 300) scale(0.1 -0.1)"><path d="M0.0 0.0V-834.0H30.0V-30.0H790.0V0.0ZM774.0 0.0V-785.0C774.0 -803.0 767.0 -808.0 750.0 -809.0C733.0 -810.0 675.0 -811.0 603.0 -809.0C608.0 -818.0 614.0 -830.0 616.0 -837.0C704.0 -838.0 748.0 -838.0 771.0 -832.0C794.0 -827.0 804.0 -815.0 804.0 -784.0V0.0Z"/></g>
<g fill="black" opacity=".8" transform="translate(300 300) scale(0.1 -0.1)"><path d="M0.0 0.0V-841.0H30.0V-30.0H790.0V0.0ZM773.0 0.0V-786.0C773.0 -804.0 767.0 -810.0 749.0 -810.0C732.0 -812.0 673.0 -813.0 600.0 -810.0C607.0 -820.0 611.0 -833.0 615.0 -840.0C700.0 -841.0 748.0 -840.0 770.0 -835.0C794.0 -830.0 804.0 -816.0 804.0 -786.0V0.0Z"/></g>
<g fill="red" transform="translate(400 300) scale(0.1 -0.1)"><path d="M0.0 0.0V-903.0H141.0V-135.0H808.0V0.0ZM721.0 0.0V-742.0C721.0 -758.0 715.0 -764.0 698.0 -765.0C681.0 -765.0 623.0 -765.0 576.0 -762.0C597.0 -799.0 619.0 -866.0 624.0 -906.0C707.0 -906.0 765.0 -902.0 808.0 -878.0C851.0 -855.0 864.0 -815.0 864.0 -744.0V0.0Z"/></g>
<g fill="black" opacity=".8" transform="translate(400 300) scale(0.1 -0.1)"><path d="M0.0 0.0V-904.0H146.0V-144.0H794.0V0.0ZM719.0 0.0V-739.0C719.0 -754.0 714.0 -761.0 697.0 -761.0C681.0 -761.0 626.0 -761.0 582.0 -758.0C603.0 -796.0 626.0 -863.0 631.0 -904.0C712.0 -904.0 768.0 -901.0 811.0 -877.0C854.0 -852.0 866.0 -811.0 866.0 -741.0V0.0Z"/></g>
<g fill="red" transform="translate(500 300) scale(0.1 -0.1)"><path d="M0.0 0.0V-452.0H29.0V-29.0H563.0V0.0ZM548.0 0.0V-403.0C548.0 -417.0 544.0 -421.0 528.0 -422.0C511.0 -423.0 460.0 -424.0 390.0 -422.0C395.0 -431.0 401.0 -443.0 403.0 -450.0C482.0 -450.0 527.0 -450.0 549.0 -445.0C570.0 -439.0 577.0 -428.0 577.0 -403.0V0.0Z"/></g>
<g fill="black" opacity=".8" transform="translate(500 300) scale(0.1 -0.1)"><path d="M0.0 0.0V-459.0H28.0V-27.0H568.0V0.0ZM555.0 0.0V-408.0C555.0 -424.0 550.0 -429.0 532.0 -429.0C513.0 -432.0 452.0 -432.0 372.0 -429.0C377.0 -439.0 382.0 -451.0 386.0 -458.0C474.0 -458.0 527.0 -458.0 550.0 -454.0C575.0 -447.0 582.0 -435.0 582.0 -409.0V0.0Z"/></g>
<g fill="red" transform="translate(600 300) scale(0.1 -0.1)"><path d="M0.0 0.0V-515.0H148.0V-107.0H560.0V0.0ZM495.0 0.0V-377.0C495.0 -392.0 488.0 -396.0 470.0 -397.0C454.0 -397.0 383.0 -397.0 338.0 -394.0C356.0 -428.0 376.0 -480.0 383.0 -517.0C467.0 -517.0 532.0 -517.0 580.0 -498.0C628.0 -479.0 645.0 -446.0 645.0 -379.0V0.0Z"/></g>
<g fill="black" opacity=".8" transform="translate(600 300) scale(0.1 -0.1)"><path d="M0.0 0.0V-507.0H137.0V-107.0H551.0V0.0ZM500.0 0.0V-372.0C500.0 -387.0 493.0 -391.0 476.0 -392.0C459.0 -391.0 391.0 -392.0 345.0 -389.0C362.0 -421.0 383.0 -472.0 389.0 -507.0C471.0 -507.0 533.0 -507.0 577.0 -488.0C622.0 -470.0 638.0 -438.0 638.0 -374.0V0.0Z"/></g>
<g fill="red" transform="translate(700 300) scale(0.1 -0.1)"><path d="M0.0 0.0V-463.0H30.0V-29.0H622.0V0.0ZM608.0 0.0V-412.0C608.0 -429.0 603.0 -434.0 584.0 -435.0C564.0 -437.0 498.0 -437.0 411.0 -435.0C416.0 -445.0 422.0 -456.0 424.0 -464.0C522.0 -464.0 578.0 -464.0 604.0 -459.0C630.0 -453.0 637.0 -440.0 637.0 -412.0V0.0Z"/></g>
<g fill="black" opacity=".8" transform="translate(700 300) scale(0.1 -0.1)"><path d="M0.0 0.0V-463.0H28.0V-27.0H617.0V0.0ZM603.0 0.0V-412.0C603.0 -428.0 599.0 -433.0 581.0 -433.0C562.0 -436.0 502.0 -436.0 423.0 -433.0C428.0 -444.0 433.0 -455.0 437.0 -462.0C524.0 -462.0 576.0 -462.0 599.0 -458.0C624.0 -452.0 631.0 -439.0 631.0 -413.0V0.0Z"/></g>
<g fill="red" transform="translate(800 300) scale(0.1 -0.1)"><path d="M0.0 0.0V-508.0H138.0V-97.0H602.0V0.0ZM540.0 0.0V-375.0C540.0 -388.0 534.0 -392.0 519.0 -393.0C505.0 -393.0 447.0 -393.0 408.0 -391.0C424.0 -423.0 443.0 -472.0 448.0 -507.0C524.0 -507.0 582.0 -507.0 625.0 -488.0C668.0 -470.0 682.0 -439.0 682.0 -377.0V0.0Z"/></g>
<g fill="black" opacity=".8" transform="translate(800 300) scale(0.1 -0.1)"><path d="M0.0 0.0V-510.0H138.0V-110.0H604.0V0.0ZM546.0 0.0V-374.0C546.0 -388.0 539.0 -392.0 523.0 -393.0C507.0 -392.0 442.0 -393.0 398.0 -390.0C415.0 -422.0 436.0 -474.0 442.0 -509.0C522.0 -510.0 582.0 -509.0 625.0 -491.0C670.0 -472.0 686.0 -439.0 686.0 -375.0V0.0Z"/></g>
<g fill="red" transform="translate(900 300) scale(0.1 -0.1)"><path d="M0.0 0.0V-847.0H30.0V-29.0H797.0V0.0ZM772.0 0.0V-792.0C772.0 -810.0 766.0 -816.0 747.0 -817.0C730.0 -818.0 671.0 -819.0 598.0 -817.0C604.0 -826.0 609.0 -838.0 612.0 -845.0C700.0 -846.0 746.0 -845.0 768.0 -840.0C791.0 -835.0 802.0 -822.0 802.0 -791.0V0.0Z"/></g>
<g fill="black" opacity=".8" transform="translate(900 300) scale(0.1 -0.1)"><path d="M0.0 0.0V-845.0H30.0V-30.0H790.0V0.0ZM773.0 0.0V-790.0C773.0 -808.0 767.0 -814.0 749.0 -814.0C732.0 -816.0 673.0 -817.0 599.0 -814.0C606.0 -824.0 611.0 -837.0 614.0 -844.0C700.0 -845.0 747.0 -844.0 770.0 -839.0C793.0 -834.0 804.0 -821.0 804.0 -790.0V0.0Z"/></g>
<g fill="red" transform="translate(1000 300) scale(0.1 -0.1)"><path d="M0.0 0.0V-905.0H141.0V-137.0H801.0V0.0ZM723.0 0.0V-742.0C723.0 -758.0 717.0 -764.0 700.0 -765.0C683.0 -765.0 625.0 -765.0 578.0 -762.0C599.0 -799.0 621.0 -866.0 626.0 -906.0C709.0 -906.0 767.0 -902.0 810.0 -878.0C853.0 -855.0 866.0 -815.0 866.0 -744.0V0.0Z"/></g>
<g fill="black" opacity=".8" transform="translate(1000 300) scale(0.1 -0.1)"><path d="M0.0 0.0V-909.0H146.0V-144.0H794.0V0.0ZM719.0 0.0V-743.0C719.0 -758.0 714.0 -765.0 697.0 -765.0C680.0 -765.0 625.0 -765.0 581.0 -762.0C602.0 -800.0 625.0 -868.0 630.0 -908.0C711.0 -909.0 768.0 -905.0 811.0 -881.0C854.0 -857.0 867.0 -816.0 867.0 -745.0V0.0Z"/></g>
<g fill="red" transform="translate(1100 300) scale(0.1 -0.1)"><path d="M0.0 0.0V-843.0H30.0V-29.0H790.0V0.0ZM775.0 0.0V-792.0C775.0 -811.0 768.0 -816.0 751.0 -817.0C734.0 -818.0 676.0 -819.0 606.0 -817.0C611.0 -826.0 616.0 -838.0 619.0 -845.0C705.0 -846.0 750.0 -845.0 772.0 -840.0C794.0 -835.0 805.0 -822.0 805.0 -792.0V0.0Z"/></g>
<g fill="black" opacity=".8" transform="translate(1100 300) scale(0.1 -0.1)"><path d="M0.0 0.0V-845.0H30.0V-30.0H790.0V0.0ZM774.0 0.0V-790.0C774.0 -808.0 768.0 -814.0 750.0 -814.0C733.0 -816.0 674.0 -817.0 602.0 -814.0C608.0 -824.0 613.0 -837.0 616.0 -844.0C701.0 -845.0 748.0 -844.0 771.0 -839.0C794.0 -834.0 805.0 -820.0 805.0 -790.0V0.0Z"/></g>
<g fill="red" transform="translate(1200 300) scale(0.1 -0.1)"><path d="M0.0 0.0V-905.0H141.0V-137.0H794.0V0.0ZM723.0 0.0V-742.0C723.0 -758.0 717.0 -764.0 700.0 -765.0C683.0 -765.0 625.0 -765.0 578.0 -762.0C599.0 -799.0 621.0 -866.0 626.0 -906.0C709.0 -906.0 767.0 -902.0 810.0 -878.0C853.0 -855.0 866.0 -815.0 866.0 -744.0V0.0Z"/></g>
<g fill="black" opacity=".8" transform="translate(1200 300) scale(0.1 -0.1)"><path d="M0.0 0.0V-908.0H145.0V-144.0H795.0V0.0ZM720.0 0.0V-743.0C720.0 -758.0 715.0 -765.0 698.0 -765.0C682.0 -765.0 627.0 -765.0 584.0 -762.0C604.0 -800.0 628.0 -868.0 633.0 -908.0C713.0 -908.0 769.0 -905.0 811.0 -881.0C854.0 -856.0 867.0 -815.0 867.0 -745.0V0.0Z"/></g>
<g fill="red" transform="translate(1300 300) scale(0.1 -0.1)"><path d="M0.0 0.0V-676.0H29.0V-30.0H639.0V0.0ZM625.0 0.0V-619.0C625.0 -637.0 619.0 -642.0 600.0 -643.0C581.0 -644.0 515.0 -645.0 434.0 -643.0C439.0 -653.0 445.0 -666.0 447.0 -674.0C539.0 -674.0 594.0 -674.0 620.0 -668.0C646.0 -663.0 654.0 -649.0 654.0 -619.0V0.0Z"/></g>
<g fill="black" opacity=".8" transform="translate(1300 300) scale(0.1 -0.1)"><path d="M0.0 0.0V-668.0H29.0V-29.0H631.0V0.0ZM616.0 0.0V-612.0C616.0 -630.0 611.0 -635.0 592.0 -636.0C573.0 -638.0 509.0 -638.0 429.0 -636.0C434.0 -646.0 440.0 -659.0 443.0 -666.0C534.0 -666.0 587.0 -666.0 611.0 -661.0C637.0 -655.0 646.0 -642.0 646.0 -613.0V0.0Z"/></g>
<g fill="red" transform="translate(1400 300) scale(0.1 -0.1)"><path d="M0.0 0.0V-720.0H144.0V-130.0H597.0V0.0ZM556.0 0.0V-566.0C556.0 -582.0 549.0 -587.0 531.0 -587.0C514.0 -587.0 448.0 -588.0 399.0 -585.0C419.0 -620.0 442.0 -682.0 449.0 -721.0C533.0 -721.0 594.0 -719.0 640.0 -697.0C686.0 -675.0 701.0 -637.0 701.0 -568.0V0.0Z"/></g>
<g fill="black" opacity=".8" transform="translate(1400 300) scale(0.1 -0.1)"><path d="M0.0 0.0V-726.0H145.0V-124.0H619.0V0.0ZM563.0 0.0V-573.0C563.0 -589.0 556.0 -595.0 538.0 -595.0C520.0 -594.0 452.0 -595.0 402.0 -592.0C421.0 -627.0 445.0 -689.0 451.0 -727.0C538.0 -727.0 601.0 -725.0 647.0 -704.0C693.0 -682.0 709.0 -645.0 709.0 -574.0V0.0Z"/></g>
</svg>
