<?xml version="1.0" encoding="UTF-8"?>
<svg width="1700" height="700" xmlns="http://www.w3.org/2000/svg">
<rect width="100%" height="100%" fill="white"/>
<g fill="green" transform="translate(100 100) scale(0.1 -0.1)"><path d="M-0.0 -0.0C167.0 -246.0 339.0 -578.0 407.0 -783.0L463.0 -758.0C395.0 -553.0 223.0 -224.0 53.0 23.0ZM-600.0 -441.0C-599.0 -416.0 -534.0 -396.0 -534.0 -396.0V-394.0C-316.0 -49.0 -113.0 452.0 53.0 907.0L-13.0 924.0C-152.0 489.0 -385.0 4.0 -456.0 -121.0C-525.0 -257.0 -585.0 -364.0 -622.0 -373.0C-614.0 -391.0 -604.0 -423.0 -600.0 -441.0ZM-807.0 -721.0C-764.0 -700.0 -689.0 -686.0 190.0 -562.0C187.0 -549.0 184.0 -522.0 183.0 -506.0L-749.0 -632.0L-806.0 -665.0Z"/></g>
<g fill="green" transform="translate(200 100) scale(0.1 -0.1)"><path d="M0.0 0.0C138.0 -249.0 274.0 -569.0 311.0 -778.0L605.0 -645.0C558.0 -427.0 407.0 -121.0 265.0 119.0ZM-448.0 -439.0C-447.0 -386.0 -198.0 -274.0 -198.0 -274.0V-269.0C-31.0 56.0 151.0 492.0 273.0 932.0L-49.0 1013.0C-145.0 608.0 -319.0 170.0 -382.0 52.0C-441.0 -70.0 -479.0 -127.0 -546.0 -149.0C-512.0 -233.0 -461.0 -381.0 -448.0 -439.0ZM-682.0 -741.0C-595.0 -703.0 -473.0 -684.0 264.0 -599.0C250.0 -532.0 234.0 -413.0 231.0 -327.0L-541.0 -398.0L-692.0 -492.0Z"/></g>
<g fill="green" transform="translate(300 100) scale(0.1 -0.1)"><path d="M0.0 0.0C112.0 -178.0 222.0 -416.0 263.0 -563.0L300.0 -550.0C260.0 -402.0 150.0 -165.0 36.0 14.0ZM-256.0 -262.0C-256.0 -245.0 -212.0 -232.0 -212.0 -232.0V-231.0C-59.0 34.0 81.0 420.0 192.0 764.0L148.0 773.0C55.0 444.0 -105.0 73.0 -154.0 -22.0C-203.0 -127.0 -246.0 -211.0 -271.0 -218.0C-266.0 -230.0 -259.0 -250.0 -256.0 -262.0ZM-476.0 -528.0C-449.0 -514.0 -401.0 -503.0 145.0 -410.0C144.0 -401.0 142.0 -383.0 142.0 -373.0L-439.0 -468.0L-475.0 -490.0Z"/></g>
<g fill="green" transform="translate(400 100) scale(0.1 -0.1)"><path d="M0.0 0.0C90.0 -177.0 171.0 -400.0 186.0 -548.0L385.0 -463.0C363.0 -307.0 271.0 -93.0 178.0 78.0ZM-129.0 -239.0C-128.0 -204.0 53.0 -125.0 53.0 -125.0V-122.0C160.0 128.0 274.0 458.0 349.0 791.0L133.0 836.0C72.0 531.0 -41.0 197.0 -83.0 106.0C-122.0 12.0 -146.0 -30.0 -193.0 -46.0C-171.0 -103.0 -137.0 -201.0 -129.0 -239.0ZM-376.0 -527.0C-322.0 -502.0 -246.0 -487.0 193.0 -426.0C185.0 -380.0 176.0 -299.0 176.0 -240.0L-287.0 -293.0L-383.0 -355.0Z"/></g>
<g fill="green" transform="translate(500 100) scale(0.1 -0.1)"><path d="M0.0 0.0C121.0 -132.0 241.0 -312.0 287.0 -431.0L331.0 -409.0C286.0 -287.0 165.0 -108.0 43.0 22.0ZM-841.0 55.0C-841.0 74.0 -786.0 89.0 -786.0 89.0V91.0C-622.0 244.0 -463.0 469.0 -312.0 695.0L-368.0 717.0C-492.0 504.0 -674.0 280.0 -731.0 223.0C-782.0 163.0 -828.0 118.0 -858.0 113.0C-851.0 99.0 -844.0 70.0 -841.0 55.0ZM-1004.0 -374.0C-975.0 -362.0 -921.0 -352.0 -393.0 -280.0C-398.0 -269.0 -404.0 -247.0 -408.0 -234.0L-959.0 -305.0L-1004.0 -328.0Z"/></g>
<g fill="green" transform="translate(600 100) scale(0.1 -0.1)"><path d="M0.0 0.0C93.0 -139.0 176.0 -316.0 194.0 -435.0L414.0 -344.0C390.0 -216.0 295.0 -46.0 199.0 86.0ZM-724.0 44.0C-724.0 86.0 -560.0 159.0 -560.0 159.0V163.0C-448.0 294.0 -323.0 482.0 -232.0 665.0L-475.0 750.0C-545.0 577.0 -654.0 404.0 -693.0 354.0C-729.0 302.0 -760.0 274.0 -800.0 264.0C-774.0 201.0 -736.0 91.0 -724.0 44.0ZM-920.0 -415.0C-867.0 -393.0 -790.0 -380.0 -360.0 -344.0C-374.0 -292.0 -394.0 -205.0 -403.0 -139.0L-819.0 -163.0L-926.0 -232.0Z"/></g>
<g fill="green" transform="translate(700 100) scale(0.1 -0.1)"><path d="M-0.0 0.0C218.0 -186.0 455.0 -449.0 559.0 -624.0L614.0 -585.0C508.0 -410.0 272.0 -150.0 53.0 35.0ZM-706.0 -383.0C-707.0 -360.0 -637.0 -339.0 -637.0 -339.0V-337.0C-392.0 -118.0 -151.0 199.0 77.0 523.0L9.0 554.0C-184.0 249.0 -461.0 -72.0 -544.0 -154.0C-621.0 -239.0 -687.0 -302.0 -730.0 -309.0C-721.0 -328.0 -710.0 -365.0 -706.0 -383.0ZM-826.0 -554.0C-769.0 -533.0 -672.0 -521.0 616.0 -420.0C612.0 -405.0 609.0 -375.0 608.0 -358.0L-755.0 -462.0L-825.0 -497.0Z"/></g>
<g fill="green" transform="translate(800 100) scale(0.1 -0.1)"><path d="M0.0 0.0C198.0 -194.0 427.0 -458.0 514.0 -635.0L818.0 -448.0C717.0 -261.0 473.0 -14.0 277.0 168.0ZM-523.0 -411.0C-522.0 -353.0 -299.0 -253.0 -299.0 -253.0V-246.0C-71.0 -59.0 186.0 211.0 388.0 497.0L40.0 629.0C-116.0 365.0 -351.0 107.0 -433.0 36.0C-508.0 -36.0 -560.0 -75.0 -629.0 -91.0C-592.0 -183.0 -538.0 -345.0 -523.0 -411.0ZM-658.0 -595.0C-538.0 -552.0 -375.0 -544.0 736.0 -483.0C724.0 -411.0 713.0 -280.0 714.0 -188.0L-468.0 -230.0L-663.0 -337.0Z"/></g>
<g fill="green" transform="translate(900 100) scale(0.1 -0.1)"><path d="M-0.0 0.0C105.0 -206.0 212.0 -480.0 255.0 -642.0L303.0 -622.0C261.0 -461.0 152.0 -189.0 45.0 17.0ZM-567.0 -698.0C-566.0 -676.0 -512.0 -657.0 -512.0 -657.0V-656.0C-391.0 -347.0 -288.0 105.0 -228.0 490.0L-283.0 501.0C-331.0 128.0 -452.0 -303.0 -488.0 -413.0C-527.0 -535.0 -561.0 -633.0 -586.0 -641.0C-579.0 -656.0 -571.0 -683.0 -567.0 -698.0ZM-634.0 -600.0C-605.0 -584.0 -553.0 -572.0 -50.0 -477.0C-54.0 -467.0 -59.0 -444.0 -61.0 -430.0L-589.0 -525.0L-633.0 -551.0Z"/></g>
<g fill="green" transform="translate(1000 100) scale(0.1 -0.1)"><path d="M0.0 0.0C76.0 -205.0 144.0 -465.0 157.0 -631.0L387.0 -547.0C368.0 -376.0 288.0 -125.0 208.0 74.0ZM-461.0 -728.0C-460.0 -687.0 -256.0 -590.0 -256.0 -590.0V-587.0C-198.0 -287.0 -136.0 110.0 -124.0 487.0L-380.0 523.0C-384.0 176.0 -436.0 -218.0 -457.0 -325.0C-478.0 -438.0 -498.0 -489.0 -540.0 -508.0C-514.0 -573.0 -472.0 -683.0 -461.0 -728.0ZM-526.0 -624.0C-478.0 -600.0 -406.0 -579.0 -45.0 -509.0C-63.0 -457.0 -88.0 -370.0 -100.0 -305.0L-440.0 -366.0L-535.0 -433.0Z"/></g>
<g fill="green" transform="translate(1100 100) scale(0.1 -0.1)"><path d="M0.0 -0.0C128.0 -255.0 250.0 -593.0 290.0 -798.0L349.0 -780.0C310.0 -576.0 188.0 -241.0 56.0 15.0ZM-685.0 -399.0C-684.0 -375.0 -623.0 -355.0 -623.0 -355.0V-353.0C-430.0 26.0 -255.0 579.0 -125.0 1068.0L-191.0 1079.0C-296.0 610.0 -497.0 80.0 -558.0 -58.0C-620.0 -207.0 -673.0 -326.0 -706.0 -336.0C-699.0 -353.0 -689.0 -382.0 -685.0 -399.0ZM-488.0 -746.0C-451.0 -727.0 -388.0 -710.0 275.0 -575.0C273.0 -563.0 273.0 -538.0 274.0 -523.0L-437.0 -659.0L-486.0 -691.0Z"/></g>
<g fill="green" transform="translate(1200 100) scale(0.1 -0.1)"><path d="M0.0 0.0C105.0 -265.0 185.0 -597.0 192.0 -814.0L484.0 -705.0C470.0 -479.0 373.0 -159.0 262.0 100.0ZM-515.0 -421.0C-513.0 -372.0 -273.0 -257.0 -273.0 -257.0V-253.0C-140.0 114.0 4.0 601.0 84.0 1085.0L-219.0 1140.0C-280.0 696.0 -417.0 205.0 -466.0 73.0C-515.0 -63.0 -546.0 -126.0 -608.0 -149.0C-575.0 -229.0 -526.0 -367.0 -515.0 -421.0ZM-326.0 -782.0C-258.0 -749.0 -159.0 -725.0 378.0 -634.0C366.0 -570.0 356.0 -455.0 357.0 -373.0L-208.0 -454.0L-337.0 -541.0Z"/></g>
<g fill="green" transform="translate(1300 100) scale(0.1 -0.1)"><path d="M-0.0 0.0C142.0 -224.0 294.0 -527.0 358.0 -709.0L405.0 -686.0C344.0 -505.0 191.0 -206.0 46.0 21.0ZM-562.0 -404.0C-561.0 -381.0 -506.0 -364.0 -506.0 -364.0V-363.0C-285.0 -11.0 -74.0 500.0 95.0 964.0L41.0 978.0C-105.0 532.0 -346.0 39.0 -418.0 -88.0C-489.0 -228.0 -550.0 -337.0 -583.0 -346.0C-576.0 -362.0 -566.0 -388.0 -562.0 -404.0ZM-795.0 -640.0C-754.0 -620.0 -685.0 -612.0 208.0 -522.0C208.0 -511.0 207.0 -489.0 208.0 -476.0L-743.0 -564.0L-794.0 -593.0Z"/></g>
<g fill="green" transform="translate(1400 100) scale(0.1 -0.1)"><path d="M0.0 0.0C127.0 -258.0 254.0 -587.0 290.0 -800.0L557.0 -682.0C511.0 -463.0 372.0 -147.0 240.0 102.0ZM-494.0 -490.0C-493.0 -441.0 -266.0 -330.0 -266.0 -330.0V-324.0C-74.0 29.0 137.0 500.0 275.0 993.0L-23.0 1080.0C-133.0 621.0 -343.0 125.0 -418.0 -3.0C-488.0 -136.0 -525.0 -195.0 -595.0 -219.0C-560.0 -297.0 -507.0 -437.0 -494.0 -490.0ZM-752.0 -746.0C-655.0 -706.0 -523.0 -691.0 305.0 -601.0C292.0 -542.0 274.0 -434.0 271.0 -358.0L-609.0 -434.0L-760.0 -522.0Z"/></g>
<g fill="green" transform="translate(1500 100) scale(0.1 -0.1)"><path d="M-0.0 -0.0C166.0 -253.0 335.0 -591.0 401.0 -805.0L458.0 -781.0C392.0 -569.0 222.0 -232.0 54.0 22.0ZM-580.0 -470.0C-580.0 -445.0 -516.0 -424.0 -516.0 -424.0V-422.0C-301.0 -75.0 -100.0 428.0 61.0 885.0L-4.0 902.0C-140.0 464.0 -370.0 -23.0 -440.0 -149.0C-509.0 -286.0 -566.0 -392.0 -603.0 -402.0C-594.0 -420.0 -585.0 -452.0 -580.0 -470.0ZM-780.0 -732.0C-737.0 -712.0 -662.0 -699.0 213.0 -584.0C210.0 -571.0 207.0 -544.0 206.0 -528.0L-722.0 -644.0L-778.0 -676.0Z"/></g>
<g fill="green" transform="translate(1600 100) scale(0.1 -0.1)"><path d="M0.0 0.0C123.0 -241.0 247.0 -554.0 283.0 -757.0L572.0 -628.0C526.0 -418.0 390.0 -118.0 262.0 116.0ZM-481.0 -417.0C-480.0 -364.0 -236.0 -252.0 -236.0 -252.0V-247.0C-52.0 80.0 151.0 521.0 288.0 973.0L-33.0 1059.0C-141.0 642.0 -336.0 193.0 -406.0 75.0C-471.0 -46.0 -511.0 -104.0 -581.0 -127.0C-546.0 -211.0 -494.0 -359.0 -481.0 -417.0ZM-706.0 -701.0C-617.0 -662.0 -492.0 -644.0 258.0 -561.0C244.0 -494.0 228.0 -374.0 224.0 -287.0L-562.0 -356.0L-716.0 -451.0Z"/></g>
<g fill="green" transform="translate(100 200) scale(0.1 -0.1)"><path d="M-0.0 0.0C134.0 -255.0 268.0 -594.0 320.0 -792.0L370.0 -772.0C320.0 -577.0 184.0 -241.0 48.0 17.0ZM-607.0 -436.0C-607.0 -414.0 -549.0 -395.0 -549.0 -395.0V-393.0C-331.0 -54.0 -128.0 436.0 36.0 887.0L-24.0 903.0C-164.0 472.0 -396.0 -5.0 -467.0 -129.0C-536.0 -262.0 -594.0 -367.0 -628.0 -376.0C-621.0 -392.0 -610.0 -420.0 -607.0 -436.0ZM-835.0 -739.0C-792.0 -719.0 -721.0 -705.0 180.0 -575.0C179.0 -563.0 180.0 -539.0 180.0 -524.0L-782.0 -659.0L-834.0 -690.0Z"/></g>
<g fill="green" transform="translate(200 200) scale(0.1 -0.1)"><path d="M0.0 0.0C121.0 -252.0 256.0 -573.0 298.0 -777.0L562.0 -643.0C512.0 -436.0 361.0 -126.0 238.0 115.0ZM-433.0 -416.0C-433.0 -368.0 -216.0 -262.0 -216.0 -262.0V-257.0C-39.0 58.0 152.0 482.0 279.0 916.0L-12.0 996.0C-111.0 593.0 -297.0 157.0 -363.0 44.0C-425.0 -73.0 -461.0 -128.0 -527.0 -149.0C-494.0 -226.0 -445.0 -363.0 -433.0 -416.0ZM-691.0 -744.0C-602.0 -705.0 -477.0 -687.0 291.0 -594.0C283.0 -532.0 277.0 -417.0 282.0 -337.0L-554.0 -421.0L-702.0 -511.0Z"/></g>
<g fill="green" transform="translate(300 200) scale(0.1 -0.1)"><path d="M0.0 0.0C174.0 -254.0 357.0 -597.0 430.0 -806.0L483.0 -785.0C409.0 -577.0 226.0 -237.0 48.0 19.0ZM-593.0 -424.0C-593.0 -401.0 -536.0 -383.0 -536.0 -383.0V-381.0C-312.0 -43.0 -99.0 442.0 78.0 896.0L17.0 909.0C-132.0 478.0 -375.0 4.0 -448.0 -120.0C-519.0 -252.0 -578.0 -355.0 -614.0 -363.0C-606.0 -379.0 -597.0 -407.0 -593.0 -424.0ZM-789.0 -735.0C-748.0 -714.0 -677.0 -700.0 209.0 -560.0C206.0 -549.0 202.0 -525.0 201.0 -511.0L-735.0 -654.0L-788.0 -686.0Z"/></g>
<g fill="green" transform="translate(400 200) scale(0.1 -0.1)"><path d="M0.0 0.0C132.0 -260.0 255.0 -593.0 285.0 -808.0L582.0 -696.0C541.0 -472.0 407.0 -156.0 268.0 95.0ZM-459.0 -423.0C-459.0 -372.0 -223.0 -264.0 -223.0 -264.0V-258.0C-45.0 42.0 152.0 454.0 292.0 876.0L-34.0 948.0C-139.0 565.0 -322.0 154.0 -390.0 46.0C-452.0 -66.0 -489.0 -120.0 -556.0 -141.0C-523.0 -222.0 -473.0 -367.0 -459.0 -423.0ZM-683.0 -758.0C-595.0 -720.0 -474.0 -703.0 234.0 -620.0C223.0 -555.0 210.0 -437.0 210.0 -352.0L-542.0 -421.0L-694.0 -515.0Z"/></g>
<g fill="green" transform="translate(500 200) scale(0.1 -0.1)"><path d="M0.0 0.0C168.0 -247.0 345.0 -583.0 419.0 -789.0L471.0 -763.0C398.0 -557.0 222.0 -225.0 50.0 23.0ZM-583.0 -432.0C-581.0 -407.0 -517.0 -390.0 -517.0 -390.0V-388.0C-314.0 -52.0 -127.0 437.0 25.0 872.0L-39.0 886.0C-165.0 470.0 -381.0 1.0 -446.0 -120.0C-509.0 -252.0 -568.0 -358.0 -603.0 -365.0C-596.0 -384.0 -587.0 -414.0 -583.0 -432.0ZM-789.0 -731.0C-746.0 -709.0 -675.0 -695.0 169.0 -573.0C166.0 -561.0 164.0 -534.0 164.0 -518.0L-733.0 -643.0L-787.0 -677.0Z"/></g>
<g fill="green" transform="translate(600 200) scale(0.1 -0.1)"><path d="M0.0 0.0C151.0 -250.0 310.0 -576.0 361.0 -788.0L645.0 -648.0C582.0 -428.0 409.0 -116.0 255.0 124.0ZM-458.0 -427.0C-456.0 -378.0 -206.0 -273.0 -206.0 -273.0V-269.0C-47.0 65.0 122.0 503.0 240.0 942.0L-53.0 1018.0C-151.0 614.0 -320.0 173.0 -381.0 52.0C-438.0 -74.0 -474.0 -131.0 -540.0 -152.0C-512.0 -233.0 -468.0 -374.0 -458.0 -427.0ZM-691.0 -750.0C-606.0 -711.0 -488.0 -693.0 285.0 -599.0C271.0 -537.0 254.0 -428.0 249.0 -349.0L-563.0 -428.0L-702.0 -515.0Z"/></g>
<g fill="red" transform="translate(100 300) scale(0.1 -0.1)"><path d="M0.0 0.0C51.0 -57.0 107.0 -136.0 131.0 -186.0L158.0 -171.0C134.0 -121.0 77.0 -44.0 26.0 11.0ZM-697.0 -154.0C-697.0 -145.0 -670.0 -135.0 -670.0 -135.0V-134.0C-613.0 -83.0 -554.0 -7.0 -501.0 75.0L-531.0 88.0C-573.0 11.0 -640.0 -69.0 -660.0 -89.0C-678.0 -108.0 -693.0 -121.0 -707.0 -123.0C-703.0 -131.0 -698.0 -147.0 -697.0 -154.0ZM-267.0 -153.0C-249.0 -147.0 -219.0 -142.0 103.0 -111.0C100.0 -105.0 98.0 -94.0 98.0 -86.0L-242.0 -116.0L-267.0 -129.0Z"/></g>
<g fill="black" opacity=".8" transform="translate(100 300) scale(0.1 -0.1)"><path d="M0.0 0.0C53.0 -57.0 107.0 -135.0 132.0 -186.0L157.0 -171.0C135.0 -122.0 78.0 -44.0 26.0 11.0ZM-695.0 -153.0C-698.0 -144.0 -670.0 -135.0 -670.0 -135.0V-134.0C-612.0 -84.0 -554.0 -7.0 -502.0 75.0L-532.0 88.0C-573.0 10.0 -641.0 -69.0 -659.0 -90.0C-678.0 -107.0 -693.0 -120.0 -707.0 -123.0C-703.0 -131.0 -698.0 -146.0 -695.0 -153.0ZM-269.0 -153.0C-250.0 -149.0 -221.0 -142.0 105.0 -111.0C102.0 -106.0 101.0 -93.0 101.0 -86.0L-243.0 -116.0L-267.0 -129.0Z"/></g>
<g fill="red" transform="translate(200 300) scale(0.1 -0.1)"><path d="M0.0 0.0C46.0 -69.0 95.0 -162.0 113.0 -221.0L235.0 -166.0C214.0 -105.0 160.0 -17.0 113.0 49.0ZM-648.0 -222.0C-648.0 -201.0 -586.0 -163.0 -586.0 -163.0V-161.0C-534.0 -115.0 -471.0 -40.0 -432.0 28.0L-562.0 73.0C-586.0 9.0 -630.0 -52.0 -644.0 -70.0C-659.0 -88.0 -675.0 -101.0 -691.0 -105.0C-676.0 -138.0 -655.0 -197.0 -648.0 -222.0ZM-195.0 -209.0C-164.0 -198.0 -119.0 -192.0 156.0 -175.0C149.0 -149.0 141.0 -102.0 138.0 -69.0L-137.0 -81.0L-197.0 -118.0Z"/></g>
<g fill="black" opacity=".8" transform="translate(200 300) scale(0.1 -0.1)"><path d="M0.0 0.0C45.0 -69.0 94.0 -161.0 112.0 -221.0L235.0 -166.0C213.0 -105.0 159.0 -17.0 114.0 49.0ZM-647.0 -221.0C-646.0 -201.0 -586.0 -162.0 -586.0 -162.0V-159.0C-535.0 -114.0 -474.0 -40.0 -435.0 28.0L-566.0 73.0C-587.0 10.0 -630.0 -53.0 -644.0 -69.0C-658.0 -88.0 -673.0 -100.0 -689.0 -104.0C-675.0 -140.0 -653.0 -196.0 -647.0 -221.0ZM-195.0 -209.0C-164.0 -199.0 -119.0 -194.0 156.0 -176.0C149.0 -149.0 141.0 -102.0 137.0 -69.0L-138.0 -81.0L-197.0 -117.0Z"/></g>
<g fill="red" transform="translate(300 300) scale(0.1 -0.1)"><path d="M0.0 0.0C79.0 -141.0 168.0 -332.0 206.0 -440.0L235.0 -427.0C196.0 -320.0 107.0 -133.0 26.0 11.0ZM-343.0 -413.0C-342.0 -400.0 -312.0 -390.0 -312.0 -390.0V-389.0C-213.0 -185.0 -120.0 112.0 -55.0 372.0L-87.0 377.0C-142.0 127.0 -248.0 -158.0 -279.0 -231.0C-310.0 -311.0 -338.0 -376.0 -355.0 -380.0C-351.0 -389.0 -345.0 -404.0 -343.0 -413.0ZM-343.0 -413.0C-320.0 -400.0 -284.0 -394.0 176.0 -326.0C175.0 -319.0 174.0 -307.0 175.0 -298.0L-315.0 -368.0L-343.0 -386.0Z"/></g>
<g fill="black" opacity=".8" transform="translate(300 300) scale(0.1 -0.1)"><path d="M0.0 0.0C79.0 -141.0 165.0 -332.0 206.0 -442.0L231.0 -428.0C194.0 -321.0 106.0 -132.0 25.0 11.0ZM-340.0 -414.0C-340.0 -400.0 -309.0 -392.0 -309.0 -392.0V-391.0C-212.0 -184.0 -123.0 117.0 -62.0 379.0L-93.0 383.0C-145.0 131.0 -248.0 -156.0 -276.0 -231.0C-307.0 -312.0 -336.0 -378.0 -352.0 -381.0C-348.0 -391.0 -343.0 -404.0 -340.0 -414.0ZM-345.0 -411.0C-321.0 -399.0 -287.0 -391.0 173.0 -326.0C173.0 -321.0 172.0 -308.0 174.0 -300.0L-316.0 -366.0L-342.0 -384.0Z"/></g>
<g fill="red" transform="translate(400 300) scale(0.1 -0.1)"><path d="M0.0 0.0C77.0 -155.0 157.0 -355.0 183.0 -483.0L328.0 -412.0C298.0 -282.0 209.0 -91.0 130.0 58.0ZM-293.0 -472.0C-292.0 -447.0 -162.0 -387.0 -162.0 -387.0V-385.0C-87.0 -171.0 -5.0 110.0 43.0 393.0L-111.0 421.0C-149.0 161.0 -231.0 -127.0 -261.0 -204.0C-290.0 -284.0 -307.0 -320.0 -340.0 -333.0C-324.0 -374.0 -299.0 -445.0 -293.0 -472.0ZM-293.0 -472.0C-247.0 -450.0 -184.0 -439.0 232.0 -374.0C224.0 -345.0 212.0 -292.0 208.0 -255.0L-230.0 -313.0L-299.0 -356.0Z"/></g>
<g fill="black" opacity=".8" transform="translate(400 300) scale(0.1 -0.1)"><path d="M0.0 0.0C74.0 -157.0 155.0 -359.0 181.0 -488.0L334.0 -421.0C300.0 -290.0 214.0 -96.0 138.0 54.0ZM-293.0 -472.0C-291.0 -447.0 -161.0 -385.0 -161.0 -385.0V-382.0C-86.0 -171.0 -6.0 107.0 40.0 384.0L-118.0 414.0C-154.0 160.0 -232.0 -125.0 -262.0 -201.0C-289.0 -281.0 -305.0 -316.0 -339.0 -328.0C-324.0 -372.0 -298.0 -445.0 -293.0 -472.0ZM-296.0 -468.0C-248.0 -447.0 -184.0 -437.0 236.0 -378.0C229.0 -346.0 217.0 -291.0 214.0 -251.0L-230.0 -304.0L-302.0 -348.0Z"/></g>
<g fill="red" transform="translate(500 300) scale(0.1 -0.1)"><path d="M0.0 0.0C81.0 -103.0 180.0 -246.0 228.0 -334.0L255.0 -319.0C208.0 -234.0 108.0 -94.0 26.0 11.0ZM-455.0 -286.0C-455.0 -274.0 -423.0 -266.0 -423.0 -266.0V-265.0C-304.0 -135.0 -191.0 55.0 -89.0 240.0L-116.0 253.0C-206.0 77.0 -338.0 -111.0 -378.0 -159.0C-415.0 -210.0 -446.0 -249.0 -467.0 -253.0C-462.0 -262.0 -457.0 -278.0 -455.0 -286.0ZM-455.0 -286.0C-430.0 -276.0 -388.0 -274.0 187.0 -242.0C185.0 -235.0 182.0 -223.0 181.0 -214.0L-425.0 -245.0L-455.0 -261.0Z"/></g>
<g fill="black" opacity=".8" transform="translate(500 300) scale(0.1 -0.1)"><path d="M0.0 0.0C90.0 -103.0 189.0 -244.0 237.0 -332.0L262.0 -315.0C216.0 -230.0 114.0 -89.0 25.0 14.0ZM-451.0 -285.0C-454.0 -274.0 -423.0 -264.0 -423.0 -264.0C-311.0 -137.0 -198.0 47.0 -101.0 229.0L-130.0 242.0C-215.0 68.0 -344.0 -116.0 -381.0 -163.0C-417.0 -212.0 -446.0 -249.0 -465.0 -253.0C-460.0 -262.0 -455.0 -277.0 -451.0 -285.0ZM-463.0 -286.0C-437.0 -276.0 -394.0 -272.0 202.0 -230.0C201.0 -224.0 200.0 -211.0 200.0 -204.0L-431.0 -245.0L-461.0 -261.0Z"/></g>
<g fill="red" transform="translate(600 300) scale(0.1 -0.1)"><path d="M0.0 0.0C76.0 -115.0 171.0 -270.0 213.0 -367.0L364.0 -286.0C315.0 -190.0 224.0 -47.0 143.0 65.0ZM-436.0 -334.0C-436.0 -306.0 -329.0 -253.0 -329.0 -253.0V-249.0C-207.0 -134.0 -73.0 29.0 24.0 198.0L-149.0 270.0C-224.0 107.0 -349.0 -60.0 -393.0 -102.0C-433.0 -145.0 -458.0 -168.0 -495.0 -178.0C-474.0 -222.0 -446.0 -303.0 -436.0 -334.0ZM-436.0 -334.0C-376.0 -311.0 -294.0 -306.0 251.0 -258.0C241.0 -225.0 225.0 -163.0 218.0 -119.0L-347.0 -158.0L-441.0 -210.0Z"/></g>
<g fill="black" opacity=".8" transform="translate(600 300) scale(0.1 -0.1)"><path d="M0.0 0.0C75.0 -115.0 167.0 -268.0 203.0 -366.0L350.0 -292.0C305.0 -193.0 210.0 -47.0 134.0 62.0ZM-428.0 -331.0C-428.0 -304.0 -329.0 -250.0 -329.0 -250.0V-246.0C-213.0 -129.0 -81.0 40.0 14.0 222.0L-155.0 283.0C-225.0 114.0 -346.0 -60.0 -389.0 -102.0C-427.0 -147.0 -450.0 -170.0 -485.0 -179.0C-466.0 -224.0 -437.0 -300.0 -428.0 -331.0ZM-439.0 -332.0C-378.0 -310.0 -297.0 -307.0 238.0 -269.0C232.0 -236.0 222.0 -175.0 220.0 -133.0L-349.0 -162.0L-442.0 -212.0Z"/></g>
<g fill="red" transform="translate(700 300) scale(0.1 -0.1)"><path d="M0.0 0.0C62.0 -96.0 135.0 -227.0 169.0 -302.0L194.0 -288.0C159.0 -215.0 86.0 -87.0 22.0 10.0ZM-361.0 -285.0C-361.0 -275.0 -333.0 -264.0 -333.0 -264.0V-263.0C-249.0 -159.0 -167.0 -11.0 -98.0 135.0L-130.0 149.0C-188.0 10.0 -281.0 -141.0 -309.0 -179.0C-335.0 -219.0 -356.0 -249.0 -373.0 -252.0C-368.0 -261.0 -363.0 -277.0 -361.0 -285.0ZM-361.0 -285.0C-340.0 -276.0 -303.0 -270.0 137.0 -214.0C135.0 -207.0 132.0 -193.0 131.0 -184.0L-332.0 -244.0L-361.0 -259.0Z"/></g>
<g fill="black" opacity=".8" transform="translate(700 300) scale(0.1 -0.1)"><path d="M0.0 0.0C71.0 -97.0 147.0 -229.0 183.0 -307.0L204.0 -295.0C170.0 -219.0 92.0 -87.0 21.0 11.0ZM-361.0 -283.0C-364.0 -273.0 -337.0 -265.0 -337.0 -265.0V-264.0C-253.0 -158.0 -172.0 -3.0 -104.0 147.0L-131.0 157.0C-189.0 15.0 -282.0 -139.0 -308.0 -179.0C-335.0 -220.0 -357.0 -252.0 -372.0 -255.0C-369.0 -262.0 -364.0 -275.0 -361.0 -283.0ZM-368.0 -281.0C-346.0 -273.0 -313.0 -266.0 150.0 -214.0C149.0 -208.0 147.0 -196.0 148.0 -190.0L-342.0 -244.0L-367.0 -259.0Z"/></g>
<g fill="red" transform="translate(800 300) scale(0.1 -0.1)"><path d="M0.0 0.0C57.0 -96.0 137.0 -224.0 172.0 -302.0L301.0 -222.0C261.0 -146.0 176.0 -23.0 119.0 67.0ZM-298.0 -304.0C-298.0 -277.0 -199.0 -227.0 -199.0 -227.0V-224.0C-118.0 -137.0 -25.0 -9.0 40.0 118.0L-123.0 174.0C-170.0 54.0 -249.0 -66.0 -277.0 -98.0C-303.0 -131.0 -323.0 -149.0 -350.0 -156.0C-332.0 -198.0 -306.0 -273.0 -298.0 -304.0ZM-298.0 -304.0C-254.0 -287.0 -192.0 -280.0 189.0 -250.0C185.0 -219.0 182.0 -161.0 184.0 -121.0L-224.0 -145.0L-302.0 -191.0Z"/></g>
<g fill="black" opacity=".8" transform="translate(800 300) scale(0.1 -0.1)"><path d="M0.0 0.0C62.0 -95.0 142.0 -221.0 174.0 -301.0L294.0 -234.0C256.0 -154.0 171.0 -34.0 110.0 55.0ZM-290.0 -290.0C-290.0 -269.0 -206.0 -226.0 -206.0 -226.0V-223.0C-133.0 -131.0 -51.0 -0.0 8.0 131.0L-127.0 172.0C-168.0 51.0 -240.0 -77.0 -266.0 -110.0C-289.0 -145.0 -306.0 -163.0 -331.0 -170.0C-318.0 -206.0 -296.0 -266.0 -290.0 -290.0ZM-296.0 -289.0C-254.0 -272.0 -195.0 -267.0 188.0 -233.0C184.0 -206.0 178.0 -155.0 179.0 -120.0L-232.0 -149.0L-300.0 -188.0Z"/></g>
<g fill="red" transform="translate(900 300) scale(0.1 -0.1)"><path d="M0.0 0.0C71.0 -130.0 150.0 -306.0 185.0 -406.0L213.0 -389.0C179.0 -292.0 98.0 -120.0 27.0 13.0ZM-545.0 -353.0C-545.0 -342.0 -516.0 -329.0 -516.0 -329.0V-328.0C-395.0 -148.0 -271.0 109.0 -176.0 354.0L-207.0 366.0C-292.0 130.0 -430.0 -125.0 -471.0 -192.0C-510.0 -261.0 -541.0 -314.0 -559.0 -319.0C-554.0 -328.0 -547.0 -344.0 -545.0 -353.0ZM-545.0 -353.0C-518.0 -342.0 -474.0 -339.0 147.0 -296.0C147.0 -289.0 147.0 -277.0 148.0 -269.0L-513.0 -312.0L-545.0 -328.0Z"/></g>
<g fill="black" opacity=".8" transform="translate(900 300) scale(0.1 -0.1)"><path d="M0.0 0.0C69.0 -131.0 145.0 -306.0 183.0 -407.0L209.0 -392.0C176.0 -296.0 96.0 -122.0 27.0 12.0ZM-544.0 -352.0C-546.0 -340.0 -516.0 -329.0 -516.0 -329.0C-392.0 -148.0 -269.0 114.0 -173.0 362.0L-202.0 373.0C-288.0 134.0 -429.0 -123.0 -469.0 -190.0C-510.0 -261.0 -541.0 -314.0 -559.0 -319.0C-554.0 -329.0 -548.0 -343.0 -544.0 -352.0ZM-544.0 -353.0C-516.0 -343.0 -474.0 -340.0 144.0 -300.0C144.0 -294.0 145.0 -281.0 147.0 -274.0L-512.0 -312.0L-542.0 -328.0Z"/></g>
<g fill="red" transform="translate(1000 300) scale(0.1 -0.1)"><path d="M0.0 0.0C61.0 -150.0 139.0 -346.0 170.0 -466.0L318.0 -395.0C281.0 -277.0 196.0 -87.0 134.0 56.0ZM-552.0 -420.0C-552.0 -390.0 -450.0 -326.0 -450.0 -326.0V-321.0C-313.0 -138.0 -159.0 117.0 -61.0 394.0L-234.0 461.0C-308.0 198.0 -456.0 -79.0 -507.0 -145.0C-555.0 -212.0 -579.0 -245.0 -620.0 -258.0C-596.0 -303.0 -561.0 -388.0 -552.0 -420.0ZM-552.0 -420.0C-484.0 -395.0 -392.0 -390.0 200.0 -342.0C195.0 -309.0 188.0 -243.0 189.0 -200.0L-455.0 -240.0L-556.0 -294.0Z"/></g>
<g fill="black" opacity=".8" transform="translate(1000 300) scale(0.1 -0.1)"><path d="M0.0 0.0C61.0 -151.0 142.0 -346.0 175.0 -466.0L326.0 -392.0C285.0 -275.0 200.0 -86.0 137.0 58.0ZM-553.0 -419.0C-553.0 -391.0 -449.0 -326.0 -449.0 -326.0V-321.0C-314.0 -139.0 -161.0 114.0 -62.0 386.0L-237.0 452.0C-310.0 194.0 -457.0 -80.0 -508.0 -145.0C-555.0 -213.0 -578.0 -245.0 -620.0 -258.0C-598.0 -305.0 -562.0 -387.0 -553.0 -419.0ZM-551.0 -421.0C-483.0 -395.0 -391.0 -389.0 204.0 -335.0C198.0 -301.0 187.0 -236.0 186.0 -192.0L-456.0 -240.0L-555.0 -294.0Z"/></g>
<g fill="red" transform="translate(1100 300) scale(0.1 -0.1)"><path d="M0.0 0.0C74.0 -119.0 160.0 -280.0 202.0 -371.0L230.0 -355.0C187.0 -267.0 99.0 -109.0 26.0 11.0ZM-367.0 -336.0C-367.0 -327.0 -340.0 -314.0 -340.0 -314.0V-313.0C-250.0 -179.0 -161.0 11.0 -94.0 192.0L-124.0 205.0C-183.0 30.0 -282.0 -160.0 -312.0 -210.0C-341.0 -261.0 -362.0 -299.0 -379.0 -303.0C-374.0 -312.0 -369.0 -328.0 -367.0 -336.0ZM-367.0 -336.0C-344.0 -326.0 -307.0 -320.0 157.0 -251.0C154.0 -244.0 151.0 -230.0 151.0 -222.0L-338.0 -293.0L-367.0 -310.0Z"/></g>
<g fill="black" opacity=".8" transform="translate(1100 300) scale(0.1 -0.1)"><path d="M0.0 0.0C79.0 -117.0 163.0 -272.0 201.0 -368.0L225.0 -356.0C189.0 -263.0 103.0 -106.0 24.0 11.0ZM-367.0 -336.0C-370.0 -326.0 -341.0 -315.0 -341.0 -315.0C-250.0 -180.0 -163.0 15.0 -94.0 199.0L-124.0 208.0C-183.0 33.0 -283.0 -159.0 -311.0 -209.0C-341.0 -261.0 -363.0 -302.0 -380.0 -306.0C-375.0 -314.0 -370.0 -328.0 -367.0 -336.0ZM-369.0 -331.0C-347.0 -322.0 -310.0 -315.0 164.0 -261.0C163.0 -255.0 161.0 -242.0 161.0 -235.0L-341.0 -291.0L-367.0 -307.0Z"/></g>
<g fill="red" transform="translate(1200 300) scale(0.1 -0.1)"><path d="M0.0 0.0C50.0 -112.0 118.0 -260.0 146.0 -351.0L292.0 -282.0C259.0 -193.0 185.0 -50.0 134.0 56.0ZM-329.0 -328.0C-329.0 -301.0 -227.0 -249.0 -227.0 -249.0V-246.0C-139.0 -127.0 -40.0 41.0 28.0 212.0L-130.0 264.0C-180.0 104.0 -269.0 -64.0 -301.0 -107.0C-330.0 -151.0 -350.0 -174.0 -380.0 -183.0C-362.0 -224.0 -336.0 -298.0 -329.0 -328.0ZM-329.0 -328.0C-283.0 -307.0 -218.0 -296.0 183.0 -241.0C177.0 -210.0 171.0 -151.0 171.0 -110.0L-260.0 -161.0L-335.0 -208.0Z"/></g>
<g fill="black" opacity=".8" transform="translate(1200 300) scale(0.1 -0.1)"><path d="M0.0 0.0C57.0 -108.0 129.0 -252.0 157.0 -342.0L291.0 -278.0C257.0 -187.0 182.0 -50.0 123.0 53.0ZM-328.0 -320.0C-328.0 -297.0 -231.0 -247.0 -231.0 -247.0V-244.0C-144.0 -124.0 -46.0 44.0 22.0 217.0L-130.0 259.0C-178.0 101.0 -266.0 -68.0 -298.0 -110.0C-326.0 -155.0 -345.0 -178.0 -375.0 -186.0C-360.0 -227.0 -335.0 -293.0 -328.0 -320.0ZM-328.0 -316.0C-282.0 -297.0 -219.0 -291.0 177.0 -254.0C172.0 -223.0 164.0 -167.0 163.0 -127.0L-257.0 -158.0L-333.0 -203.0Z"/></g>
<g fill="red" transform="translate(1300 300) scale(0.1 -0.1)"><path d="M0.0 0.0C63.0 -167.0 133.0 -391.0 164.0 -514.0L195.0 -503.0C164.0 -381.0 92.0 -161.0 28.0 8.0ZM-652.0 -453.0C-651.0 -439.0 -618.0 -428.0 -618.0 -428.0V-427.0C-535.0 -211.0 -467.0 103.0 -428.0 369.0L-462.0 373.0C-494.0 116.0 -574.0 -182.0 -599.0 -260.0C-624.0 -343.0 -648.0 -413.0 -663.0 -417.0C-660.0 -427.0 -654.0 -443.0 -652.0 -453.0ZM-652.0 -453.0C-634.0 -441.0 -607.0 -434.0 -313.0 -369.0C-314.0 -364.0 -315.0 -352.0 -315.0 -343.0L-627.0 -407.0L-652.0 -424.0Z"/></g>
<g fill="black" opacity=".8" transform="translate(1300 300) scale(0.1 -0.1)"><path d="M0.0 0.0C60.0 -166.0 122.0 -384.0 149.0 -506.0L181.0 -494.0C157.0 -375.0 92.0 -159.0 30.0 8.0ZM-649.0 -451.0C-649.0 -436.0 -614.0 -424.0 -614.0 -424.0V-423.0C-532.0 -212.0 -461.0 94.0 -421.0 358.0L-460.0 364.0C-491.0 108.0 -575.0 -184.0 -598.0 -260.0C-624.0 -342.0 -647.0 -408.0 -663.0 -412.0C-658.0 -423.0 -653.0 -440.0 -649.0 -451.0ZM-654.0 -463.0C-634.0 -452.0 -604.0 -443.0 -302.0 -370.0C-305.0 -365.0 -308.0 -349.0 -309.0 -340.0L-625.0 -413.0L-652.0 -432.0Z"/></g>
<g fill="red" transform="translate(1400 300) scale(0.1 -0.1)"><path d="M0.0 0.0C39.0 -164.0 83.0 -377.0 99.0 -504.0L251.0 -468.0C230.0 -341.0 180.0 -133.0 138.0 25.0ZM-635.0 -463.0C-635.0 -438.0 -505.0 -378.0 -505.0 -378.0V-376.0C-454.0 -164.0 -402.0 117.0 -386.0 380.0L-540.0 404.0C-551.0 159.0 -598.0 -123.0 -616.0 -197.0C-635.0 -276.0 -647.0 -312.0 -680.0 -325.0C-665.0 -365.0 -641.0 -437.0 -635.0 -463.0ZM-635.0 -463.0C-604.0 -445.0 -557.0 -432.0 -295.0 -379.0C-304.0 -350.0 -317.0 -297.0 -323.0 -259.0L-587.0 -305.0L-644.0 -346.0Z"/></g>
<g fill="black" opacity=".8" transform="translate(1400 300) scale(0.1 -0.1)"><path d="M0.0 0.0C39.0 -165.0 81.0 -375.0 93.0 -502.0L255.0 -453.0C237.0 -327.0 190.0 -122.0 147.0 37.0ZM-633.0 -468.0C-633.0 -442.0 -503.0 -376.0 -503.0 -376.0V-373.0C-453.0 -164.0 -400.0 115.0 -383.0 382.0L-551.0 409.0C-559.0 161.0 -606.0 -120.0 -624.0 -193.0C-641.0 -272.0 -654.0 -308.0 -684.0 -320.0C-668.0 -365.0 -640.0 -439.0 -633.0 -468.0ZM-637.0 -481.0C-604.0 -462.0 -554.0 -448.0 -295.0 -387.0C-307.0 -354.0 -326.0 -297.0 -336.0 -254.0L-585.0 -309.0L-647.0 -354.0Z"/></g>
<g fill="red" transform="translate(1500 300) scale(0.1 -0.1)"><path d="M0.0 0.0C98.0 -112.0 199.0 -266.0 239.0 -365.0L265.0 -349.0C225.0 -251.0 123.0 -99.0 24.0 14.0ZM-433.0 -310.0C-433.0 -300.0 -405.0 -288.0 -405.0 -288.0V-287.0C-304.0 -170.0 -203.0 -4.0 -118.0 162.0L-148.0 176.0C-222.0 18.0 -336.0 -151.0 -371.0 -195.0C-402.0 -240.0 -427.0 -272.0 -445.0 -276.0C-440.0 -285.0 -435.0 -302.0 -433.0 -310.0ZM-433.0 -310.0C-408.0 -299.0 -366.0 -295.0 188.0 -247.0C184.0 -240.0 181.0 -228.0 179.0 -220.0L-403.0 -269.0L-433.0 -284.0Z"/></g>
<g fill="black" opacity=".8" transform="translate(1500 300) scale(0.1 -0.1)"><path d="M0.0 0.0C93.0 -111.0 193.0 -261.0 240.0 -357.0L266.0 -340.0C220.0 -248.0 118.0 -97.0 26.0 14.0ZM-429.0 -309.0C-432.0 -298.0 -400.0 -288.0 -400.0 -288.0V-287.0C-300.0 -171.0 -202.0 -4.0 -118.0 160.0L-150.0 173.0C-222.0 17.0 -334.0 -150.0 -366.0 -194.0C-398.0 -238.0 -424.0 -271.0 -443.0 -275.0C-437.0 -284.0 -433.0 -300.0 -429.0 -309.0ZM-439.0 -314.0C-412.0 -305.0 -370.0 -299.0 192.0 -250.0C190.0 -244.0 189.0 -229.0 189.0 -221.0L-406.0 -271.0L-436.0 -288.0Z"/></g>
<g fill="red" transform="translate(1600 300) scale(0.1 -0.1)"><path d="M0.0 0.0C88.0 -100.0 183.0 -237.0 218.0 -328.0L354.0 -248.0C313.0 -152.0 211.0 -24.0 123.0 70.0ZM-400.0 -292.0C-400.0 -267.0 -309.0 -222.0 -309.0 -222.0V-219.0C-194.0 -114.0 -67.0 35.0 28.0 195.0L-114.0 258.0C-190.0 106.0 -312.0 -47.0 -353.0 -86.0C-392.0 -126.0 -416.0 -148.0 -448.0 -156.0C-431.0 -194.0 -407.0 -264.0 -400.0 -292.0ZM-400.0 -292.0C-347.0 -272.0 -276.0 -269.0 226.0 -235.0C218.0 -206.0 206.0 -153.0 201.0 -115.0L-321.0 -141.0L-403.0 -186.0Z"/></g>
<g fill="black" opacity=".8" transform="translate(1600 300) scale(0.1 -0.1)"><path d="M0.0 0.0C74.0 -103.0 171.0 -243.0 213.0 -332.0L355.0 -252.0C305.0 -163.0 205.0 -28.0 130.0 69.0ZM-398.0 -295.0C-397.0 -269.0 -298.0 -220.0 -298.0 -220.0V-217.0C-193.0 -112.0 -75.0 37.0 14.0 193.0L-145.0 251.0C-212.0 106.0 -319.0 -42.0 -357.0 -80.0C-391.0 -119.0 -414.0 -140.0 -446.0 -148.0C-431.0 -192.0 -405.0 -265.0 -398.0 -295.0ZM-406.0 -301.0C-351.0 -280.0 -277.0 -276.0 226.0 -239.0C220.0 -207.0 212.0 -147.0 210.0 -105.0L-324.0 -134.0L-410.0 -182.0Z"/></g>
<g fill="red" transform="translate(100 400) scale(0.1 -0.1)"><path d="M0.0 0.0C91.0 -96.0 194.0 -231.0 241.0 -319.0L267.0 -302.0C220.0 -217.0 117.0 -84.0 23.0 14.0ZM-468.0 -291.0C-468.0 -281.0 -440.0 -272.0 -440.0 -272.0V-271.0C-345.0 -173.0 -249.0 -35.0 -163.0 110.0L-192.0 120.0C-265.0 -14.0 -375.0 -156.0 -407.0 -192.0C-437.0 -230.0 -461.0 -257.0 -479.0 -260.0C-474.0 -268.0 -469.0 -283.0 -468.0 -291.0ZM-468.0 -291.0C-442.0 -280.0 -399.0 -277.0 195.0 -228.0C193.0 -222.0 190.0 -210.0 189.0 -202.0L-437.0 -252.0L-468.0 -269.0Z"/></g>
<g fill="black" opacity=".8" transform="translate(100 400) scale(0.1 -0.1)"><path d="M0.0 0.0C93.0 -101.0 199.0 -241.0 252.0 -327.0L274.0 -310.0C223.0 -228.0 115.0 -88.0 22.0 13.0ZM-472.0 -292.0C-475.0 -282.0 -447.0 -273.0 -447.0 -273.0C-349.0 -175.0 -250.0 -34.0 -162.0 111.0L-190.0 122.0C-266.0 -15.0 -380.0 -157.0 -411.0 -195.0C-442.0 -232.0 -468.0 -259.0 -485.0 -261.0C-480.0 -270.0 -476.0 -284.0 -472.0 -292.0ZM-460.0 -282.0C-434.0 -273.0 -395.0 -267.0 174.0 -219.0C172.0 -214.0 170.0 -201.0 171.0 -194.0L-429.0 -244.0L-457.0 -260.0Z"/></g>
<g fill="red" transform="translate(200 400) scale(0.1 -0.1)"><path d="M0.0 0.0C82.0 -104.0 173.0 -248.0 210.0 -341.0L354.0 -268.0C310.0 -175.0 221.0 -42.0 135.0 59.0ZM-448.0 -322.0C-448.0 -297.0 -364.0 -251.0 -364.0 -251.0V-247.0C-269.0 -162.0 -157.0 -31.0 -76.0 103.0L-241.0 150.0C-294.0 31.0 -388.0 -91.0 -419.0 -121.0C-449.0 -153.0 -469.0 -172.0 -497.0 -179.0C-480.0 -219.0 -456.0 -293.0 -448.0 -322.0ZM-448.0 -322.0C-388.0 -300.0 -309.0 -297.0 208.0 -257.0C199.0 -225.0 185.0 -164.0 179.0 -122.0L-360.0 -151.0L-452.0 -202.0Z"/></g>
<g fill="black" opacity=".8" transform="translate(200 400) scale(0.1 -0.1)"><path d="M0.0 0.0C78.0 -107.0 178.0 -252.0 222.0 -343.0L361.0 -271.0C309.0 -179.0 207.0 -42.0 128.0 58.0ZM-455.0 -320.0C-455.0 -296.0 -366.0 -251.0 -366.0 -251.0V-247.0C-262.0 -161.0 -143.0 -34.0 -50.0 102.0L-204.0 157.0C-271.0 33.0 -378.0 -93.0 -416.0 -124.0C-449.0 -157.0 -470.0 -175.0 -501.0 -182.0C-487.0 -223.0 -462.0 -292.0 -455.0 -320.0ZM-439.0 -310.0C-383.0 -289.0 -308.0 -287.0 205.0 -251.0C199.0 -221.0 190.0 -167.0 188.0 -128.0L-359.0 -156.0L-443.0 -202.0Z"/></g>
<g fill="red" transform="translate(300 400) scale(0.1 -0.1)"><path d="M0.0 0.0C67.0 -92.0 133.0 -217.0 156.0 -296.0L183.0 -285.0C160.0 -205.0 94.0 -82.0 25.0 10.0ZM-646.0 195.0C-646.0 205.0 -616.0 213.0 -616.0 213.0V214.0C-502.0 304.0 -389.0 433.0 -279.0 573.0L-311.0 584.0C-403.0 455.0 -531.0 324.0 -571.0 290.0C-606.0 255.0 -637.0 230.0 -656.0 227.0C-652.0 219.0 -647.0 203.0 -646.0 195.0ZM-687.0 -253.0C-670.0 -245.0 -639.0 -239.0 -328.0 -188.0C-330.0 -182.0 -333.0 -170.0 -334.0 -163.0L-662.0 -214.0L-687.0 -228.0Z"/></g>
<g fill="black" opacity=".8" transform="translate(300 400) scale(0.1 -0.1)"><path d="M0.0 0.0C68.0 -93.0 133.0 -217.0 158.0 -296.0L182.0 -286.0C161.0 -207.0 94.0 -82.0 26.0 10.0ZM-646.0 195.0C-647.0 205.0 -616.0 213.0 -616.0 213.0V214.0C-503.0 303.0 -389.0 433.0 -279.0 573.0L-312.0 585.0C-403.0 455.0 -532.0 324.0 -571.0 289.0C-607.0 255.0 -638.0 230.0 -656.0 227.0C-652.0 219.0 -648.0 204.0 -646.0 195.0ZM-687.0 -251.0C-669.0 -245.0 -640.0 -238.0 -329.0 -187.0C-331.0 -182.0 -333.0 -169.0 -334.0 -162.0L-662.0 -212.0L-686.0 -227.0Z"/></g>
<g fill="red" transform="translate(400 400) scale(0.1 -0.1)"><path d="M0.0 0.0C53.0 -100.0 99.0 -228.0 109.0 -311.0L245.0 -259.0C232.0 -173.0 180.0 -50.0 124.0 46.0ZM-603.0 194.0C-603.0 219.0 -513.0 260.0 -513.0 260.0V263.0C-419.0 342.0 -314.0 456.0 -233.0 576.0L-374.0 634.0C-438.0 519.0 -534.0 409.0 -567.0 379.0C-599.0 349.0 -620.0 332.0 -648.0 326.0C-632.0 289.0 -610.0 221.0 -603.0 194.0ZM-671.0 -282.0C-635.0 -266.0 -584.0 -259.0 -286.0 -229.0C-292.0 -199.0 -300.0 -145.0 -303.0 -106.0L-609.0 -129.0L-676.0 -172.0Z"/></g>
<g fill="black" opacity=".8" transform="translate(400 400) scale(0.1 -0.1)"><path d="M0.0 0.0C52.0 -101.0 99.0 -228.0 109.0 -311.0L247.0 -260.0C231.0 -174.0 179.0 -50.0 124.0 45.0ZM-603.0 195.0C-603.0 218.0 -513.0 261.0 -513.0 261.0V264.0C-419.0 342.0 -315.0 456.0 -232.0 576.0L-373.0 634.0C-437.0 520.0 -533.0 409.0 -567.0 380.0C-598.0 349.0 -618.0 332.0 -646.0 326.0C-632.0 288.0 -610.0 222.0 -603.0 195.0ZM-670.0 -281.0C-634.0 -265.0 -584.0 -259.0 -286.0 -229.0C-291.0 -199.0 -300.0 -145.0 -303.0 -106.0L-609.0 -129.0L-675.0 -171.0Z"/></g>
<g fill="red" transform="translate(500 400) scale(0.1 -0.1)"><path d="M0.0 0.0C69.0 -78.0 148.0 -187.0 187.0 -251.0L210.0 -231.0C172.0 -169.0 92.0 -63.0 23.0 16.0ZM-526.0 -229.0C-526.0 -219.0 -494.0 -209.0 -494.0 -209.0V-208.0C-401.0 -139.0 -312.0 -37.0 -227.0 71.0L-257.0 87.0C-330.0 -14.0 -434.0 -120.0 -465.0 -146.0C-494.0 -173.0 -519.0 -193.0 -537.0 -195.0C-533.0 -204.0 -527.0 -221.0 -526.0 -229.0ZM-526.0 -229.0C-498.0 -219.0 -455.0 -215.0 146.0 -177.0C145.0 -170.0 146.0 -158.0 147.0 -149.0L-495.0 -189.0L-526.0 -205.0Z"/></g>
<g fill="black" opacity=".8" transform="translate(500 400) scale(0.1 -0.1)"><path d="M0.0 0.0C71.0 -78.0 147.0 -187.0 186.0 -251.0L207.0 -232.0C172.0 -171.0 93.0 -63.0 24.0 15.0ZM-527.0 -228.0C-529.0 -219.0 -496.0 -209.0 -496.0 -209.0V-208.0C-402.0 -143.0 -310.0 -45.0 -223.0 60.0L-253.0 78.0C-328.0 -22.0 -436.0 -124.0 -467.0 -149.0C-496.0 -174.0 -522.0 -192.0 -539.0 -195.0C-535.0 -204.0 -529.0 -220.0 -527.0 -228.0ZM-524.0 -224.0C-496.0 -216.0 -453.0 -210.0 135.0 -174.0C134.0 -168.0 134.0 -153.0 134.0 -145.0L-491.0 -183.0L-522.0 -199.0Z"/></g>
<g fill="red" transform="translate(600 400) scale(0.1 -0.1)"><path d="M0.0 0.0C83.0 -75.0 198.0 -181.0 249.0 -248.0L365.0 -152.0C308.0 -87.0 187.0 14.0 107.0 82.0ZM-437.0 -249.0C-437.0 -227.0 -369.0 -190.0 -369.0 -190.0V-187.0C-279.0 -127.0 -179.0 -37.0 -106.0 51.0L-231.0 114.0C-286.0 27.0 -377.0 -59.0 -406.0 -82.0C-433.0 -105.0 -454.0 -120.0 -479.0 -125.0C-464.0 -160.0 -443.0 -223.0 -437.0 -249.0ZM-437.0 -249.0C-383.0 -229.0 -309.0 -225.0 230.0 -188.0C225.0 -160.0 220.0 -107.0 221.0 -72.0L-358.0 -103.0L-440.0 -147.0Z"/></g>
<g fill="black" opacity=".8" transform="translate(600 400) scale(0.1 -0.1)"><path d="M0.0 0.0C79.0 -79.0 195.0 -187.0 249.0 -255.0L367.0 -159.0C307.0 -93.0 183.0 13.0 109.0 83.0ZM-439.0 -253.0C-439.0 -230.0 -365.0 -188.0 -365.0 -188.0V-185.0C-272.0 -126.0 -168.0 -38.0 -90.0 53.0L-225.0 121.0C-284.0 31.0 -377.0 -55.0 -409.0 -77.0C-437.0 -101.0 -459.0 -115.0 -485.0 -119.0C-470.0 -159.0 -446.0 -225.0 -439.0 -253.0ZM-434.0 -249.0C-380.0 -230.0 -306.0 -227.0 234.0 -195.0C229.0 -165.0 224.0 -111.0 225.0 -74.0L-354.0 -100.0L-437.0 -144.0Z"/></g>
<g fill="red" transform="translate(700 400) scale(0.1 -0.1)"><path d="M0.0 0.0C95.0 -56.0 205.0 -141.0 257.0 -201.0L279.0 -179.0C226.0 -119.0 117.0 -36.0 22.0 19.0ZM-412.0 -168.0C-412.0 -158.0 -381.0 -150.0 -381.0 -150.0V-149.0C-297.0 -105.0 -210.0 -41.0 -123.0 36.0L-152.0 52.0C-225.0 -19.0 -325.0 -88.0 -355.0 -106.0C-381.0 -122.0 -405.0 -133.0 -421.0 -134.0C-417.0 -143.0 -413.0 -160.0 -412.0 -168.0ZM-412.0 -168.0C-387.0 -159.0 -346.0 -156.0 193.0 -129.0C190.0 -123.0 186.0 -110.0 185.0 -102.0L-381.0 -129.0L-412.0 -144.0Z"/></g>
<g fill="black" opacity=".8" transform="translate(700 400) scale(0.1 -0.1)"><path d="M0.0 0.0C95.0 -58.0 202.0 -142.0 256.0 -203.0L276.0 -183.0C224.0 -123.0 116.0 -38.0 21.0 18.0ZM-410.0 -166.0C-413.0 -157.0 -382.0 -149.0 -382.0 -149.0C-296.0 -104.0 -208.0 -37.0 -121.0 40.0L-148.0 55.0C-222.0 -17.0 -325.0 -87.0 -353.0 -105.0C-380.0 -121.0 -405.0 -132.0 -422.0 -134.0C-418.0 -143.0 -414.0 -158.0 -410.0 -166.0ZM-413.0 -168.0C-387.0 -160.0 -348.0 -156.0 196.0 -132.0C194.0 -126.0 192.0 -112.0 192.0 -105.0L-381.0 -130.0L-410.0 -144.0Z"/></g>
<g fill="red" transform="translate(800 400) scale(0.1 -0.1)"><path d="M0.0 0.0C87.0 -63.0 198.0 -156.0 247.0 -217.0L371.0 -136.0C314.0 -73.0 199.0 14.0 114.0 71.0ZM-378.0 -193.0C-378.0 -169.0 -298.0 -133.0 -298.0 -133.0V-130.0C-201.0 -89.0 -94.0 -24.0 -8.0 44.0L-139.0 116.0C-208.0 47.0 -307.0 -12.0 -341.0 -29.0C-372.0 -46.0 -394.0 -57.0 -420.0 -62.0C-406.0 -99.0 -385.0 -166.0 -378.0 -193.0ZM-378.0 -193.0C-327.0 -176.0 -257.0 -176.0 256.0 -157.0C249.0 -130.0 239.0 -80.0 235.0 -45.0L-299.0 -54.0L-379.0 -96.0Z"/></g>
<g fill="black" opacity=".8" transform="translate(800 400) scale(0.1 -0.1)"><path d="M0.0 0.0C88.0 -62.0 202.0 -153.0 253.0 -214.0L373.0 -130.0C314.0 -67.0 197.0 19.0 111.0 74.0ZM-379.0 -191.0C-377.0 -169.0 -297.0 -133.0 -297.0 -133.0V-130.0C-205.0 -89.0 -99.0 -24.0 -11.0 46.0L-145.0 110.0C-213.0 44.0 -308.0 -13.0 -341.0 -30.0C-370.0 -48.0 -392.0 -59.0 -417.0 -62.0C-405.0 -102.0 -384.0 -165.0 -379.0 -191.0ZM-378.0 -194.0C-327.0 -176.0 -258.0 -176.0 253.0 -155.0C246.0 -127.0 236.0 -79.0 232.0 -44.0L-301.0 -56.0L-379.0 -96.0Z"/></g>
<g fill="red" transform="translate(900 400) scale(0.1 -0.1)"><path d="M0.0 0.0C95.0 -56.0 205.0 -141.0 257.0 -201.0L279.0 -179.0C226.0 -119.0 117.0 -36.0 22.0 19.0ZM-412.0 -168.0C-412.0 -158.0 -381.0 -150.0 -381.0 -150.0V-149.0C-297.0 -105.0 -210.0 -41.0 -123.0 36.0L-152.0 52.0C-225.0 -19.0 -325.0 -88.0 -355.0 -106.0C-381.0 -122.0 -405.0 -133.0 -421.0 -134.0C-417.0 -143.0 -413.0 -160.0 -412.0 -168.0ZM-412.0 -168.0C-387.0 -159.0 -346.0 -156.0 193.0 -129.0C190.0 -123.0 186.0 -110.0 185.0 -102.0L-381.0 -129.0L-412.0 -144.0Z"/></g>
<g fill="black" opacity=".8" transform="translate(900 400) scale(0.1 -0.1)"><path d="M0.0 0.0C96.0 -57.0 204.0 -142.0 258.0 -202.0L278.0 -182.0C225.0 -123.0 116.0 -38.0 21.0 18.0ZM-411.0 -166.0C-413.0 -157.0 -383.0 -149.0 -383.0 -149.0C-297.0 -105.0 -209.0 -39.0 -122.0 38.0L-149.0 53.0C-223.0 -18.0 -325.0 -88.0 -353.0 -105.0C-380.0 -122.0 -405.0 -133.0 -422.0 -134.0C-418.0 -143.0 -414.0 -158.0 -411.0 -166.0ZM-413.0 -166.0C-388.0 -159.0 -348.0 -155.0 195.0 -131.0C192.0 -125.0 190.0 -111.0 190.0 -104.0L-382.0 -129.0L-411.0 -143.0Z"/></g>
<g fill="red" transform="translate(1000 400) scale(0.1 -0.1)"><path d="M0.0 0.0C88.0 -62.0 199.0 -155.0 249.0 -215.0L373.0 -134.0C316.0 -71.0 200.0 15.0 115.0 72.0ZM-382.0 -197.0C-382.0 -173.0 -302.0 -138.0 -302.0 -138.0V-135.0C-206.0 -94.0 -99.0 -29.0 -13.0 39.0L-143.0 110.0C-212.0 41.0 -311.0 -17.0 -344.0 -34.0C-375.0 -51.0 -398.0 -63.0 -424.0 -67.0C-409.0 -104.0 -389.0 -170.0 -382.0 -197.0ZM-382.0 -197.0C-331.0 -180.0 -261.0 -180.0 252.0 -161.0C245.0 -134.0 235.0 -84.0 231.0 -49.0L-303.0 -58.0L-383.0 -100.0Z"/></g>
<g fill="black" opacity=".8" transform="translate(1000 400) scale(0.1 -0.1)"><path d="M0.0 0.0C88.0 -63.0 203.0 -155.0 253.0 -217.0L374.0 -134.0C315.0 -70.0 197.0 16.0 111.0 73.0ZM-382.0 -195.0C-381.0 -173.0 -301.0 -138.0 -301.0 -138.0V-135.0C-208.0 -93.0 -103.0 -28.0 -15.0 42.0L-149.0 106.0C-217.0 40.0 -311.0 -18.0 -344.0 -34.0C-373.0 -53.0 -395.0 -63.0 -420.0 -67.0C-408.0 -106.0 -388.0 -169.0 -382.0 -195.0ZM-381.0 -196.0C-330.0 -179.0 -261.0 -178.0 250.0 -157.0C244.0 -130.0 233.0 -82.0 229.0 -48.0L-305.0 -59.0L-382.0 -99.0Z"/></g>
<g fill="red" transform="translate(1100 400) scale(0.1 -0.1)"><path d="M0.0 0.0C50.0 -42.0 104.0 -102.0 129.0 -143.0L153.0 -126.0C129.0 -85.0 73.0 -26.0 23.0 15.0ZM-664.0 -109.0C-664.0 -100.0 -635.0 -90.0 -635.0 -90.0V-89.0C-584.0 -55.0 -530.0 -5.0 -480.0 52.0L-509.0 68.0C-550.0 13.0 -612.0 -42.0 -631.0 -54.0C-647.0 -67.0 -661.0 -74.0 -675.0 -76.0C-670.0 -84.0 -666.0 -102.0 -664.0 -109.0ZM-664.0 -109.0C-650.0 -104.0 -622.0 -102.0 -402.0 -90.0C-406.0 -83.0 -414.0 -71.0 -418.0 -63.0L-639.0 -73.0L-664.0 -84.0Z"/></g>
<g fill="black" opacity=".8" transform="translate(1100 400) scale(0.1 -0.1)"><path d="M0.0 0.0C52.0 -43.0 107.0 -104.0 135.0 -145.0L157.0 -129.0C131.0 -88.0 73.0 -27.0 22.0 14.0ZM-664.0 -110.0C-666.0 -100.0 -636.0 -91.0 -636.0 -91.0C-584.0 -56.0 -531.0 -2.0 -482.0 57.0L-511.0 72.0C-551.0 15.0 -613.0 -41.0 -630.0 -54.0C-647.0 -67.0 -662.0 -76.0 -675.0 -77.0C-670.0 -85.0 -667.0 -102.0 -664.0 -110.0ZM-664.0 -106.0C-650.0 -102.0 -625.0 -99.0 -404.0 -88.0C-408.0 -83.0 -414.0 -70.0 -417.0 -63.0L-640.0 -71.0L-663.0 -82.0Z"/></g>
<g fill="red" transform="translate(1200 400) scale(0.1 -0.1)"><path d="M0.0 0.0C35.0 -52.0 70.0 -121.0 82.0 -166.0L189.0 -122.0C175.0 -76.0 137.0 -10.0 100.0 39.0ZM-662.0 -165.0C-662.0 -143.0 -596.0 -107.0 -596.0 -107.0V-105.0C-564.0 -74.0 -523.0 -21.0 -502.0 22.0L-630.0 72.0C-641.0 26.0 -665.0 -14.0 -673.0 -27.0C-682.0 -41.0 -696.0 -51.0 -707.0 -54.0C-692.0 -85.0 -670.0 -140.0 -662.0 -165.0ZM-662.0 -165.0C-638.0 -156.0 -603.0 -150.0 -420.0 -138.0C-434.0 -113.0 -458.0 -73.0 -473.0 -42.0L-614.0 -47.0L-664.0 -80.0Z"/></g>
<g fill="black" opacity=".8" transform="translate(1200 400) scale(0.1 -0.1)"><path d="M0.0 0.0C33.0 -52.0 71.0 -121.0 84.0 -166.0L190.0 -127.0C172.0 -81.0 132.0 -13.0 97.0 35.0ZM-662.0 -163.0C-662.0 -142.0 -596.0 -107.0 -596.0 -107.0V-104.0C-565.0 -73.0 -526.0 -20.0 -505.0 21.0L-628.0 70.0C-639.0 26.0 -662.0 -15.0 -671.0 -27.0C-678.0 -42.0 -691.0 -52.0 -703.0 -55.0C-691.0 -87.0 -670.0 -138.0 -662.0 -163.0ZM-661.0 -159.0C-638.0 -151.0 -604.0 -145.0 -421.0 -136.0C-433.0 -111.0 -455.0 -74.0 -469.0 -44.0L-615.0 -47.0L-663.0 -77.0Z"/></g>
<g fill="red" transform="translate(1300 400) scale(0.1 -0.1)"><path d="M0.0 0.0C50.0 -43.0 104.0 -102.0 129.0 -143.0L153.0 -127.0C129.0 -86.0 73.0 -27.0 23.0 14.0ZM-659.0 -113.0C-659.0 -103.0 -630.0 -93.0 -630.0 -93.0C-579.0 -59.0 -525.0 -9.0 -475.0 49.0L-504.0 64.0C-545.0 9.0 -607.0 -45.0 -626.0 -58.0C-642.0 -71.0 -656.0 -78.0 -670.0 -80.0C-665.0 -88.0 -661.0 -105.0 -659.0 -113.0ZM-659.0 -113.0C-645.0 -108.0 -618.0 -105.0 -398.0 -90.0C-403.0 -84.0 -411.0 -72.0 -415.0 -63.0L-634.0 -77.0L-659.0 -88.0Z"/></g>
<g fill="black" opacity=".8" transform="translate(1300 400) scale(0.1 -0.1)"><path d="M0.0 0.0C52.0 -44.0 108.0 -106.0 137.0 -147.0L158.0 -131.0C133.0 -90.0 74.0 -28.0 22.0 14.0ZM-659.0 -113.0C-661.0 -103.0 -631.0 -94.0 -631.0 -94.0C-580.0 -59.0 -528.0 -5.0 -480.0 54.0L-508.0 68.0C-547.0 11.0 -609.0 -44.0 -626.0 -58.0C-642.0 -71.0 -657.0 -79.0 -670.0 -81.0C-665.0 -89.0 -662.0 -105.0 -659.0 -113.0ZM-659.0 -108.0C-645.0 -104.0 -620.0 -101.0 -402.0 -90.0C-406.0 -85.0 -412.0 -72.0 -415.0 -65.0L-635.0 -73.0L-658.0 -84.0Z"/></g>
<g fill="red" transform="translate(1400 400) scale(0.1 -0.1)"><path d="M0.0 0.0C35.0 -52.0 70.0 -121.0 82.0 -166.0L189.0 -122.0C175.0 -76.0 137.0 -10.0 100.0 39.0ZM-662.0 -165.0C-662.0 -143.0 -596.0 -107.0 -596.0 -107.0V-105.0C-564.0 -74.0 -523.0 -21.0 -502.0 22.0L-630.0 72.0C-641.0 26.0 -665.0 -14.0 -673.0 -27.0C-682.0 -41.0 -696.0 -51.0 -707.0 -54.0C-692.0 -85.0 -670.0 -140.0 -662.0 -165.0ZM-662.0 -165.0C-638.0 -156.0 -603.0 -150.0 -420.0 -138.0C-434.0 -113.0 -458.0 -73.0 -473.0 -42.0L-614.0 -47.0L-664.0 -80.0Z"/></g>
<g fill="black" opacity=".8" transform="translate(1400 400) scale(0.1 -0.1)"><path d="M0.0 0.0C33.0 -52.0 70.0 -122.0 84.0 -166.0L189.0 -128.0C171.0 -82.0 131.0 -14.0 97.0 34.0ZM-662.0 -163.0C-662.0 -142.0 -597.0 -107.0 -597.0 -107.0V-105.0C-565.0 -73.0 -525.0 -20.0 -503.0 22.0L-625.0 70.0C-637.0 26.0 -661.0 -16.0 -670.0 -28.0C-678.0 -43.0 -691.0 -53.0 -703.0 -55.0C-691.0 -87.0 -670.0 -139.0 -662.0 -163.0ZM-660.0 -158.0C-638.0 -149.0 -604.0 -144.0 -420.0 -135.0C-433.0 -110.0 -455.0 -73.0 -469.0 -43.0L-616.0 -46.0L-662.0 -77.0Z"/></g>
<g fill="red" transform="translate(1500 400) scale(0.1 -0.1)"><path d="M0.0 0.0C104.0 -86.0 217.0 -209.0 267.0 -293.0L294.0 -274.0C243.0 -192.0 128.0 -69.0 24.0 16.0ZM-493.0 -247.0C-493.0 -238.0 -465.0 -228.0 -465.0 -228.0V-227.0C-357.0 -136.0 -247.0 -10.0 -143.0 128.0L-172.0 141.0C-260.0 13.0 -385.0 -119.0 -423.0 -154.0C-457.0 -188.0 -485.0 -212.0 -503.0 -215.0C-499.0 -223.0 -494.0 -239.0 -493.0 -247.0ZM-493.0 -247.0C-467.0 -237.0 -422.0 -234.0 207.0 -195.0C204.0 -189.0 203.0 -177.0 202.0 -169.0L-462.0 -208.0L-493.0 -223.0Z"/></g>
<g fill="black" opacity=".8" transform="translate(1500 400) scale(0.1 -0.1)"><path d="M0.0 0.0C96.0 -87.0 204.0 -210.0 258.0 -289.0L281.0 -269.0C230.0 -192.0 121.0 -70.0 24.0 17.0ZM-492.0 -248.0C-495.0 -237.0 -462.0 -227.0 -462.0 -227.0C-357.0 -139.0 -251.0 -11.0 -152.0 123.0L-183.0 138.0C-268.0 12.0 -390.0 -119.0 -425.0 -152.0C-458.0 -186.0 -487.0 -210.0 -505.0 -213.0C-501.0 -222.0 -496.0 -239.0 -492.0 -248.0ZM-488.0 -248.0C-459.0 -238.0 -415.0 -233.0 202.0 -194.0C201.0 -188.0 199.0 -173.0 199.0 -165.0L-454.0 -205.0L-486.0 -222.0Z"/></g>
<g fill="red" transform="translate(1600 400) scale(0.1 -0.1)"><path d="M0.0 0.0C90.0 -94.0 205.0 -225.0 253.0 -310.0L376.0 -220.0C322.0 -135.0 201.0 -11.0 113.0 76.0ZM-443.0 -283.0C-443.0 -258.0 -360.0 -215.0 -360.0 -215.0V-211.0C-257.0 -129.0 -142.0 -8.0 -57.0 117.0L-204.0 180.0C-267.0 62.0 -372.0 -57.0 -406.0 -88.0C-439.0 -119.0 -461.0 -137.0 -491.0 -144.0C-474.0 -183.0 -450.0 -255.0 -443.0 -283.0ZM-443.0 -283.0C-381.0 -262.0 -298.0 -261.0 264.0 -236.0C258.0 -205.0 252.0 -145.0 251.0 -105.0L-350.0 -120.0L-445.0 -170.0Z"/></g>
<g fill="black" opacity=".8" transform="translate(1600 400) scale(0.1 -0.1)"><path d="M0.0 0.0C89.0 -96.0 203.0 -228.0 252.0 -312.0L395.0 -225.0C337.0 -139.0 218.0 -14.0 130.0 75.0ZM-449.0 -287.0C-448.0 -262.0 -355.0 -215.0 -355.0 -215.0V-211.0C-246.0 -131.0 -123.0 -13.0 -28.0 113.0L-188.0 180.0C-260.0 62.0 -370.0 -53.0 -409.0 -83.0C-444.0 -115.0 -467.0 -132.0 -498.0 -139.0C-482.0 -183.0 -456.0 -257.0 -449.0 -287.0ZM-441.0 -288.0C-382.0 -267.0 -302.0 -265.0 262.0 -232.0C256.0 -200.0 246.0 -141.0 244.0 -101.0L-353.0 -124.0L-444.0 -172.0Z"/></g>
<g fill="red" transform="translate(100 500) scale(0.1 -0.1)"><path d="M0.0 0.0C84.0 -104.0 167.0 -245.0 198.0 -335.0L226.0 -323.0C194.0 -232.0 110.0 -92.0 26.0 12.0ZM-350.0 -303.0C-350.0 -292.0 -320.0 -282.0 -320.0 -282.0V-281.0C-229.0 -152.0 -142.0 33.0 -68.0 212.0L-99.0 220.0C-160.0 52.0 -260.0 -132.0 -291.0 -180.0C-320.0 -229.0 -344.0 -268.0 -360.0 -272.0C-356.0 -279.0 -351.0 -295.0 -350.0 -303.0ZM-350.0 -303.0C-328.0 -294.0 -291.0 -288.0 171.0 -235.0C169.0 -229.0 166.0 -218.0 165.0 -210.0L-321.0 -264.0L-350.0 -278.0Z"/></g>
<g fill="black" opacity=".8" transform="translate(100 500) scale(0.1 -0.1)"><path d="M0.0 0.0C80.0 -106.0 162.0 -248.0 196.0 -337.0L222.0 -325.0C189.0 -238.0 105.0 -95.0 25.0 11.0ZM-347.0 -304.0C-350.0 -293.0 -320.0 -282.0 -320.0 -282.0C-228.0 -152.0 -140.0 37.0 -69.0 217.0L-100.0 228.0C-160.0 56.0 -261.0 -131.0 -290.0 -179.0C-320.0 -229.0 -343.0 -268.0 -360.0 -272.0C-355.0 -280.0 -350.0 -296.0 -347.0 -304.0ZM-345.0 -305.0C-323.0 -297.0 -287.0 -289.0 159.0 -231.0C157.0 -225.0 155.0 -211.0 154.0 -204.0L-316.0 -264.0L-343.0 -279.0Z"/></g>
<g fill="red" transform="translate(200 500) scale(0.1 -0.1)"><path d="M0.0 0.0C59.0 -99.0 114.0 -227.0 129.0 -311.0L259.0 -258.0C241.0 -171.0 180.0 -49.0 119.0 46.0ZM-263.0 -294.0C-263.0 -270.0 -169.0 -222.0 -169.0 -222.0V-219.0C-100.0 -111.0 -22.0 46.0 27.0 200.0L-125.0 234.0C-158.0 94.0 -223.0 -56.0 -246.0 -94.0C-268.0 -134.0 -285.0 -157.0 -311.0 -165.0C-294.0 -201.0 -270.0 -267.0 -263.0 -294.0ZM-263.0 -294.0C-223.0 -279.0 -167.0 -273.0 150.0 -249.0C143.0 -217.0 136.0 -160.0 134.0 -119.0L-192.0 -135.0L-266.0 -180.0Z"/></g>
<g fill="black" opacity=".8" transform="translate(200 500) scale(0.1 -0.1)"><path d="M0.0 0.0C55.0 -100.0 113.0 -229.0 130.0 -313.0L269.0 -254.0C246.0 -167.0 183.0 -44.0 127.0 51.0ZM-267.0 -297.0C-267.0 -272.0 -168.0 -221.0 -168.0 -221.0V-218.0C-96.0 -114.0 -13.0 38.0 43.0 189.0L-120.0 228.0C-156.0 91.0 -224.0 -54.0 -250.0 -92.0C-273.0 -131.0 -290.0 -152.0 -317.0 -160.0C-301.0 -201.0 -274.0 -268.0 -267.0 -297.0ZM-263.0 -298.0C-223.0 -283.0 -166.0 -275.0 153.0 -247.0C147.0 -213.0 140.0 -155.0 140.0 -112.0L-192.0 -136.0L-267.0 -181.0Z"/></g>
<g fill="red" transform="translate(300 500) scale(0.1 -0.1)"><path d="M0.0 0.0C95.0 -58.0 208.0 -144.0 265.0 -199.0L287.0 -178.0C229.0 -122.0 115.0 -39.0 21.0 18.0ZM-449.0 -153.0C-449.0 -144.0 -419.0 -135.0 -419.0 -135.0V-134.0C-331.0 -91.0 -240.0 -29.0 -149.0 48.0L-179.0 63.0C-256.0 -7.0 -360.0 -75.0 -390.0 -92.0C-418.0 -107.0 -442.0 -118.0 -459.0 -119.0C-455.0 -128.0 -450.0 -146.0 -449.0 -153.0ZM-449.0 -153.0C-424.0 -146.0 -382.0 -143.0 180.0 -122.0C178.0 -115.0 175.0 -103.0 174.0 -95.0L-418.0 -114.0L-449.0 -129.0Z"/></g>
<g fill="black" opacity=".8" transform="translate(300 500) scale(0.1 -0.1)"><path d="M0.0 0.0C96.0 -56.0 203.0 -137.0 256.0 -197.0L277.0 -178.0C226.0 -119.0 117.0 -37.0 22.0 18.0ZM-447.0 -152.0C-450.0 -142.0 -420.0 -134.0 -420.0 -134.0V-133.0C-328.0 -93.0 -232.0 -34.0 -136.0 43.0L-164.0 59.0C-246.0 -12.0 -356.0 -78.0 -387.0 -94.0C-417.0 -108.0 -441.0 -117.0 -459.0 -119.0C-454.0 -128.0 -450.0 -144.0 -447.0 -152.0ZM-449.0 -156.0C-424.0 -149.0 -383.0 -145.0 172.0 -122.0C170.0 -116.0 166.0 -103.0 166.0 -96.0L-418.0 -118.0L-447.0 -132.0Z"/></g>
<g fill="red" transform="translate(400 500) scale(0.1 -0.1)"><path d="M0.0 0.0C82.0 -59.0 185.0 -146.0 231.0 -203.0L347.0 -128.0C294.0 -69.0 187.0 13.0 107.0 66.0ZM-422.0 -169.0C-422.0 -146.0 -346.0 -114.0 -346.0 -114.0V-111.0C-247.0 -79.0 -129.0 -21.0 -28.0 45.0L-169.0 98.0C-243.0 41.0 -346.0 -4.0 -380.0 -17.0C-412.0 -31.0 -435.0 -40.0 -461.0 -44.0C-448.0 -80.0 -428.0 -143.0 -422.0 -169.0ZM-422.0 -169.0C-373.0 -153.0 -306.0 -153.0 196.0 -139.0C189.0 -113.0 180.0 -65.0 177.0 -31.0L-346.0 -37.0L-423.0 -77.0Z"/></g>
<g fill="black" opacity=".8" transform="translate(400 500) scale(0.1 -0.1)"><path d="M0.0 0.0C80.0 -59.0 183.0 -146.0 228.0 -204.0L352.0 -126.0C299.0 -65.0 194.0 15.0 115.0 69.0ZM-422.0 -173.0C-421.0 -149.0 -345.0 -112.0 -345.0 -112.0V-108.0C-245.0 -80.0 -127.0 -26.0 -32.0 35.0L-178.0 104.0C-249.0 45.0 -351.0 -0.0 -387.0 -12.0C-418.0 -25.0 -441.0 -35.0 -467.0 -39.0C-453.0 -79.0 -429.0 -145.0 -422.0 -173.0ZM-422.0 -178.0C-369.0 -161.0 -298.0 -161.0 201.0 -146.0C194.0 -116.0 184.0 -64.0 180.0 -27.0L-339.0 -33.0L-423.0 -76.0Z"/></g>
<g fill="red" transform="translate(500 500) scale(0.1 -0.1)"><path d="M0.0 0.0C94.0 -112.0 195.0 -266.0 237.0 -362.0L262.0 -346.0C220.0 -251.0 118.0 -99.0 23.0 13.0ZM-409.0 -328.0C-409.0 -318.0 -381.0 -307.0 -381.0 -307.0V-306.0C-279.0 -151.0 -179.0 70.0 -98.0 281.0L-130.0 290.0C-197.0 89.0 -311.0 -130.0 -344.0 -187.0C-377.0 -247.0 -403.0 -293.0 -421.0 -297.0C-416.0 -306.0 -411.0 -321.0 -409.0 -328.0ZM-409.0 -328.0C-384.0 -318.0 -345.0 -312.0 192.0 -246.0C189.0 -240.0 187.0 -228.0 185.0 -221.0L-380.0 -288.0L-409.0 -305.0Z"/></g>
<g fill="black" opacity=".8" transform="translate(500 500) scale(0.1 -0.1)"><path d="M0.0 0.0C89.0 -114.0 187.0 -270.0 231.0 -364.0L257.0 -349.0C215.0 -256.0 116.0 -101.0 26.0 13.0ZM-411.0 -325.0C-413.0 -313.0 -381.0 -303.0 -381.0 -303.0V-302.0C-275.0 -153.0 -173.0 62.0 -89.0 266.0L-120.0 277.0C-192.0 83.0 -310.0 -130.0 -343.0 -185.0C-377.0 -242.0 -406.0 -288.0 -424.0 -291.0C-419.0 -300.0 -414.0 -316.0 -411.0 -325.0ZM-408.0 -328.0C-383.0 -318.0 -343.0 -311.0 189.0 -252.0C188.0 -246.0 186.0 -233.0 186.0 -225.0L-377.0 -284.0L-406.0 -302.0Z"/></g>
<g fill="red" transform="translate(600 500) scale(0.1 -0.1)"><path d="M0.0 0.0C79.0 -124.0 161.0 -287.0 187.0 -392.0L340.0 -328.0C307.0 -217.0 219.0 -63.0 138.0 55.0ZM-342.0 -363.0C-342.0 -338.0 -238.0 -285.0 -238.0 -285.0V-282.0C-149.0 -149.0 -49.0 39.0 20.0 235.0L-141.0 272.0C-190.0 95.0 -280.0 -93.0 -313.0 -141.0C-343.0 -191.0 -362.0 -216.0 -394.0 -225.0C-376.0 -264.0 -350.0 -335.0 -342.0 -363.0ZM-342.0 -363.0C-291.0 -344.0 -220.0 -340.0 224.0 -308.0C217.0 -277.0 209.0 -218.0 208.0 -178.0L-261.0 -202.0L-345.0 -249.0Z"/></g>
<g fill="black" opacity=".8" transform="translate(600 500) scale(0.1 -0.1)"><path d="M0.0 0.0C76.0 -126.0 160.0 -289.0 189.0 -393.0L342.0 -323.0C306.0 -215.0 216.0 -60.0 139.0 59.0ZM-344.0 -371.0C-344.0 -345.0 -232.0 -289.0 -232.0 -289.0V-285.0C-144.0 -149.0 -44.0 40.0 25.0 232.0L-147.0 278.0C-196.0 102.0 -284.0 -86.0 -317.0 -135.0C-346.0 -187.0 -365.0 -212.0 -397.0 -221.0C-380.0 -266.0 -352.0 -341.0 -344.0 -371.0ZM-340.0 -375.0C-288.0 -355.0 -218.0 -348.0 223.0 -307.0C216.0 -274.0 206.0 -213.0 205.0 -170.0L-260.0 -203.0L-344.0 -251.0Z"/></g>
<g fill="red" transform="translate(700 500) scale(0.1 -0.1)"><path d="M0.0 0.0C88.0 -78.0 189.0 -187.0 238.0 -255.0L260.0 -237.0C211.0 -171.0 109.0 -63.0 22.0 14.0ZM-480.0 -224.0C-480.0 -215.0 -451.0 -206.0 -451.0 -206.0V-205.0C-346.0 -138.0 -240.0 -44.0 -135.0 62.0L-162.0 77.0C-251.0 -23.0 -374.0 -123.0 -410.0 -147.0C-443.0 -173.0 -471.0 -190.0 -490.0 -192.0C-486.0 -200.0 -481.0 -216.0 -480.0 -224.0ZM-480.0 -224.0C-454.0 -214.0 -411.0 -211.0 185.0 -177.0C183.0 -171.0 182.0 -160.0 181.0 -151.0L-449.0 -186.0L-480.0 -201.0Z"/></g>
<g fill="black" opacity=".8" transform="translate(700 500) scale(0.1 -0.1)"><path d="M0.0 0.0C93.0 -80.0 198.0 -192.0 249.0 -265.0L271.0 -246.0C222.0 -176.0 116.0 -63.0 23.0 16.0ZM-474.0 -224.0C-476.0 -214.0 -445.0 -205.0 -445.0 -205.0C-345.0 -136.0 -244.0 -36.0 -148.0 76.0L-178.0 91.0C-260.0 -14.0 -377.0 -118.0 -410.0 -145.0C-441.0 -171.0 -468.0 -189.0 -486.0 -191.0C-481.0 -200.0 -477.0 -216.0 -474.0 -224.0ZM-486.0 -226.0C-458.0 -217.0 -416.0 -212.0 186.0 -176.0C184.0 -170.0 183.0 -156.0 183.0 -148.0L-453.0 -186.0L-483.0 -202.0Z"/></g>
<g fill="red" transform="translate(800 500) scale(0.1 -0.1)"><path d="M0.0 0.0C84.0 -87.0 207.0 -208.0 263.0 -280.0L390.0 -189.0C327.0 -117.0 198.0 -3.0 117.0 76.0ZM-440.0 -247.0C-440.0 -221.0 -337.0 -180.0 -337.0 -180.0V-177.0C-235.0 -116.0 -112.0 -23.0 -6.0 88.0L-171.0 139.0C-252.0 42.0 -357.0 -40.0 -397.0 -64.0C-433.0 -88.0 -456.0 -101.0 -486.0 -107.0C-470.0 -147.0 -448.0 -218.0 -440.0 -247.0ZM-440.0 -247.0C-383.0 -228.0 -306.0 -227.0 229.0 -208.0C224.0 -178.0 218.0 -121.0 218.0 -83.0L-352.0 -93.0L-441.0 -140.0Z"/></g>
<g fill="black" opacity=".8" transform="translate(800 500) scale(0.1 -0.1)"><path d="M0.0 0.0C84.0 -83.0 197.0 -199.0 247.0 -274.0L379.0 -188.0C321.0 -113.0 204.0 -3.0 121.0 73.0ZM-432.0 -247.0C-432.0 -223.0 -349.0 -181.0 -349.0 -181.0V-177.0C-242.0 -119.0 -121.0 -28.0 -25.0 71.0L-175.0 138.0C-247.0 45.0 -355.0 -42.0 -393.0 -64.0C-426.0 -88.0 -450.0 -102.0 -479.0 -107.0C-464.0 -149.0 -439.0 -218.0 -432.0 -247.0ZM-443.0 -249.0C-385.0 -229.0 -308.0 -228.0 239.0 -200.0C233.0 -170.0 225.0 -114.0 223.0 -75.0L-358.0 -95.0L-445.0 -141.0Z"/></g>
<g fill="red" transform="translate(900 500) scale(0.1 -0.1)"><path d="M0.0 0.0C67.0 -144.0 139.0 -337.0 170.0 -446.0L199.0 -433.0C169.0 -326.0 95.0 -136.0 28.0 9.0ZM-294.0 -406.0C-292.0 -393.0 -261.0 -383.0 -261.0 -383.0V-382.0C-172.0 -174.0 -92.0 130.0 -40.0 389.0L-71.0 394.0C-114.0 142.0 -206.0 -146.0 -235.0 -220.0C-263.0 -303.0 -289.0 -368.0 -304.0 -373.0C-301.0 -382.0 -296.0 -397.0 -294.0 -406.0ZM-294.0 -406.0C-273.0 -394.0 -240.0 -389.0 146.0 -331.0C145.0 -325.0 144.0 -312.0 144.0 -304.0L-266.0 -361.0L-293.0 -378.0Z"/></g>
<g fill="black" opacity=".8" transform="translate(900 500) scale(0.1 -0.1)"><path d="M0.0 0.0C71.0 -141.0 143.0 -328.0 176.0 -438.0L202.0 -427.0C173.0 -318.0 99.0 -132.0 27.0 10.0ZM-292.0 -408.0C-293.0 -395.0 -261.0 -385.0 -261.0 -385.0C-173.0 -174.0 -94.0 133.0 -45.0 396.0L-76.0 401.0C-117.0 147.0 -209.0 -146.0 -234.0 -221.0C-263.0 -303.0 -289.0 -371.0 -304.0 -376.0C-301.0 -385.0 -295.0 -399.0 -292.0 -408.0ZM-296.0 -409.0C-274.0 -399.0 -241.0 -391.0 154.0 -331.0C154.0 -325.0 153.0 -311.0 154.0 -304.0L-268.0 -365.0L-293.0 -382.0Z"/></g>
<g fill="red" transform="translate(1000 500) scale(0.1 -0.1)"><path d="M0.0 0.0C63.0 -148.0 125.0 -337.0 142.0 -457.0L291.0 -394.0C270.0 -272.0 200.0 -90.0 134.0 53.0ZM-250.0 -435.0C-249.0 -410.0 -114.0 -346.0 -114.0 -346.0V-345.0C-46.0 -129.0 27.0 153.0 65.0 434.0L-95.0 463.0C-125.0 204.0 -197.0 -85.0 -223.0 -162.0C-249.0 -243.0 -264.0 -277.0 -298.0 -291.0C-282.0 -333.0 -256.0 -408.0 -250.0 -435.0ZM-250.0 -435.0C-206.0 -414.0 -145.0 -401.0 210.0 -345.0C201.0 -312.0 187.0 -251.0 182.0 -209.0L-184.0 -258.0L-257.0 -305.0Z"/></g>
<g fill="black" opacity=".8" transform="translate(1000 500) scale(0.1 -0.1)"><path d="M0.0 0.0C60.0 -145.0 124.0 -331.0 143.0 -450.0L289.0 -388.0C263.0 -267.0 193.0 -87.0 131.0 54.0ZM-248.0 -430.0C-246.0 -406.0 -117.0 -344.0 -117.0 -344.0V-342.0C-50.0 -127.0 21.0 154.0 57.0 434.0L-95.0 461.0C-123.0 204.0 -194.0 -86.0 -221.0 -163.0C-245.0 -244.0 -260.0 -279.0 -293.0 -292.0C-278.0 -334.0 -253.0 -403.0 -248.0 -430.0ZM-250.0 -431.0C-209.0 -412.0 -151.0 -401.0 204.0 -345.0C196.0 -314.0 185.0 -259.0 181.0 -220.0L-190.0 -270.0L-255.0 -312.0Z"/></g>
<g fill="red" transform="translate(1100 500) scale(0.1 -0.1)"><path d="M0.0 0.0C72.0 -140.0 152.0 -328.0 188.0 -435.0L216.0 -422.0C182.0 -316.0 101.0 -131.0 26.0 10.0ZM-311.0 -409.0C-309.0 -396.0 -278.0 -385.0 -278.0 -385.0V-384.0C-189.0 -174.0 -108.0 131.0 -57.0 394.0L-89.0 399.0C-132.0 145.0 -225.0 -146.0 -252.0 -221.0C-281.0 -304.0 -306.0 -370.0 -322.0 -375.0C-318.0 -385.0 -313.0 -400.0 -311.0 -409.0ZM-311.0 -409.0C-290.0 -397.0 -254.0 -391.0 164.0 -328.0C163.0 -322.0 161.0 -310.0 163.0 -302.0L-284.0 -365.0L-310.0 -382.0Z"/></g>
<g fill="black" opacity=".8" transform="translate(1100 500) scale(0.1 -0.1)"><path d="M0.0 0.0C76.0 -141.0 158.0 -329.0 194.0 -441.0L221.0 -429.0C187.0 -319.0 104.0 -132.0 26.0 10.0ZM-310.0 -408.0C-311.0 -395.0 -280.0 -385.0 -280.0 -385.0C-188.0 -175.0 -105.0 130.0 -51.0 394.0L-81.0 398.0C-127.0 143.0 -224.0 -148.0 -251.0 -223.0C-281.0 -305.0 -307.0 -371.0 -322.0 -376.0C-318.0 -386.0 -314.0 -399.0 -310.0 -408.0ZM-313.0 -405.0C-291.0 -394.0 -258.0 -387.0 149.0 -328.0C148.0 -323.0 147.0 -310.0 148.0 -302.0L-285.0 -361.0L-310.0 -378.0Z"/></g>
<g fill="red" transform="translate(1200 500) scale(0.1 -0.1)"><path d="M0.0 0.0C64.0 -147.0 127.0 -336.0 144.0 -455.0L294.0 -391.0C271.0 -269.0 201.0 -88.0 134.0 53.0ZM-290.0 -437.0C-289.0 -412.0 -159.0 -352.0 -159.0 -352.0V-350.0C-84.0 -136.0 -2.0 145.0 46.0 428.0L-108.0 456.0C-146.0 196.0 -228.0 -92.0 -258.0 -169.0C-287.0 -249.0 -304.0 -285.0 -337.0 -298.0C-321.0 -339.0 -296.0 -410.0 -290.0 -437.0ZM-290.0 -437.0C-249.0 -417.0 -192.0 -406.0 168.0 -350.0C158.0 -320.0 148.0 -267.0 143.0 -229.0L-230.0 -279.0L-296.0 -321.0Z"/></g>
<g fill="black" opacity=".8" transform="translate(1200 500) scale(0.1 -0.1)"><path d="M0.0 0.0C60.0 -149.0 121.0 -339.0 139.0 -461.0L290.0 -404.0C265.0 -280.0 199.0 -96.0 135.0 48.0ZM-289.0 -437.0C-288.0 -413.0 -158.0 -351.0 -158.0 -351.0V-348.0C-84.0 -135.0 -3.0 145.0 43.0 427.0L-116.0 456.0C-151.0 197.0 -230.0 -92.0 -259.0 -168.0C-287.0 -248.0 -302.0 -283.0 -337.0 -296.0C-321.0 -339.0 -295.0 -410.0 -289.0 -437.0ZM-290.0 -434.0C-246.0 -414.0 -186.0 -404.0 181.0 -349.0C172.0 -318.0 159.0 -262.0 155.0 -223.0L-226.0 -270.0L-295.0 -314.0Z"/></g>
<g fill="red" transform="translate(1300 500) scale(0.1 -0.1)"><path d="M0.0 0.0C87.0 -61.0 185.0 -152.0 231.0 -212.0L253.0 -194.0C206.0 -133.0 108.0 -45.0 22.0 16.0ZM-457.0 -167.0C-457.0 -158.0 -429.0 -149.0 -429.0 -149.0V-148.0C-335.0 -89.0 -239.0 -6.0 -147.0 89.0L-172.0 106.0C-252.0 16.0 -362.0 -74.0 -394.0 -96.0C-424.0 -118.0 -449.0 -134.0 -467.0 -136.0C-463.0 -144.0 -458.0 -159.0 -457.0 -167.0ZM-457.0 -167.0C-433.0 -158.0 -392.0 -156.0 168.0 -130.0C166.0 -124.0 164.0 -112.0 163.0 -105.0L-427.0 -130.0L-457.0 -145.0Z"/></g>
<g fill="black" opacity=".8" transform="translate(1300 500) scale(0.1 -0.1)"><path d="M0.0 0.0C86.0 -61.0 184.0 -150.0 233.0 -207.0L252.0 -189.0C206.0 -132.0 107.0 -44.0 21.0 16.0ZM-457.0 -165.0C-459.0 -156.0 -430.0 -148.0 -430.0 -148.0C-334.0 -90.0 -235.0 -5.0 -139.0 93.0L-166.0 108.0C-248.0 17.0 -362.0 -73.0 -394.0 -96.0C-424.0 -117.0 -451.0 -133.0 -468.0 -135.0C-464.0 -143.0 -459.0 -157.0 -457.0 -165.0ZM-458.0 -173.0C-432.0 -165.0 -392.0 -161.0 175.0 -133.0C174.0 -127.0 172.0 -114.0 173.0 -108.0L-427.0 -136.0L-456.0 -151.0Z"/></g>
<g fill="red" transform="translate(1400 500) scale(0.1 -0.1)"><path d="M0.0 0.0C85.0 -80.0 185.0 -192.0 227.0 -267.0L360.0 -198.0C311.0 -120.0 206.0 -14.0 122.0 60.0ZM-405.0 -232.0C-405.0 -207.0 -326.0 -168.0 -326.0 -168.0V-164.0C-228.0 -113.0 -116.0 -30.0 -30.0 52.0L-180.0 119.0C-243.0 41.0 -340.0 -31.0 -372.0 -51.0C-403.0 -73.0 -425.0 -86.0 -451.0 -91.0C-435.0 -131.0 -412.0 -203.0 -405.0 -232.0ZM-405.0 -232.0C-353.0 -213.0 -281.0 -212.0 250.0 -182.0C243.0 -155.0 231.0 -105.0 227.0 -70.0L-328.0 -91.0L-407.0 -134.0Z"/></g>
<g fill="black" opacity=".8" transform="translate(1400 500) scale(0.1 -0.1)"><path d="M0.0 0.0C85.0 -77.0 192.0 -183.0 238.0 -252.0L362.0 -173.0C308.0 -101.0 195.0 -1.0 113.0 69.0ZM-406.0 -227.0C-405.0 -204.0 -329.0 -165.0 -329.0 -165.0V-161.0C-232.0 -110.0 -122.0 -31.0 -35.0 56.0L-176.0 120.0C-241.0 38.0 -339.0 -38.0 -373.0 -58.0C-403.0 -79.0 -425.0 -92.0 -451.0 -96.0C-437.0 -135.0 -413.0 -200.0 -406.0 -227.0ZM-405.0 -236.0C-351.0 -218.0 -279.0 -217.0 238.0 -193.0C233.0 -165.0 224.0 -113.0 222.0 -78.0L-325.0 -94.0L-406.0 -137.0Z"/></g>
<g fill="red" transform="translate(1500 500) scale(0.1 -0.1)"><path d="M0.0 0.0C68.0 -135.0 136.0 -314.0 160.0 -432.0L190.0 -423.0C165.0 -307.0 98.0 -128.0 27.0 8.0ZM-247.0 -410.0C-246.0 -397.0 -215.0 -386.0 -215.0 -386.0V-385.0C-136.0 -172.0 -70.0 138.0 -33.0 398.0L-63.0 403.0C-93.0 150.0 -171.0 -144.0 -194.0 -220.0C-220.0 -304.0 -242.0 -372.0 -258.0 -378.0C-253.0 -387.0 -249.0 -401.0 -247.0 -410.0ZM-247.0 -410.0C-229.0 -400.0 -196.0 -393.0 146.0 -341.0C145.0 -335.0 145.0 -322.0 145.0 -313.0L-221.0 -366.0L-246.0 -382.0Z"/></g>
<g fill="black" opacity=".8" transform="translate(1500 500) scale(0.1 -0.1)"><path d="M0.0 0.0C68.0 -140.0 134.0 -324.0 162.0 -438.0L190.0 -428.0C165.0 -316.0 97.0 -131.0 28.0 9.0ZM-249.0 -408.0C-250.0 -395.0 -218.0 -384.0 -218.0 -384.0C-139.0 -174.0 -71.0 135.0 -34.0 393.0L-66.0 398.0C-96.0 146.0 -175.0 -145.0 -198.0 -219.0C-224.0 -302.0 -246.0 -369.0 -261.0 -375.0C-257.0 -385.0 -253.0 -399.0 -249.0 -408.0ZM-244.0 -407.0C-224.0 -397.0 -193.0 -390.0 143.0 -336.0C142.0 -331.0 141.0 -316.0 142.0 -309.0L-217.0 -361.0L-241.0 -378.0Z"/></g>
<g fill="red" transform="translate(1600 500) scale(0.1 -0.1)"><path d="M0.0 0.0C46.0 -130.0 92.0 -303.0 106.0 -414.0L245.0 -359.0C226.0 -246.0 179.0 -81.0 128.0 50.0ZM-227.0 -389.0C-226.0 -364.0 -96.0 -304.0 -96.0 -304.0V-302.0C-38.0 -86.0 24.0 197.0 49.0 473.0L-106.0 492.0C-124.0 241.0 -183.0 -45.0 -204.0 -122.0C-226.0 -200.0 -239.0 -237.0 -272.0 -250.0C-256.0 -291.0 -232.0 -362.0 -227.0 -389.0ZM-227.0 -389.0C-189.0 -370.0 -135.0 -359.0 179.0 -309.0C170.0 -278.0 159.0 -223.0 154.0 -182.0L-167.0 -225.0L-233.0 -268.0Z"/></g>
<g fill="black" opacity=".8" transform="translate(1600 500) scale(0.1 -0.1)"><path d="M0.0 0.0C48.0 -132.0 97.0 -303.0 111.0 -413.0L251.0 -355.0C231.0 -243.0 176.0 -77.0 126.0 52.0ZM-229.0 -389.0C-228.0 -365.0 -98.0 -305.0 -98.0 -305.0V-303.0C-35.0 -86.0 32.0 196.0 65.0 477.0L-82.0 503.0C-108.0 244.0 -177.0 -48.0 -202.0 -125.0C-226.0 -206.0 -240.0 -241.0 -273.0 -255.0C-259.0 -296.0 -234.0 -363.0 -229.0 -389.0ZM-222.0 -388.0C-186.0 -370.0 -134.0 -358.0 173.0 -306.0C164.0 -275.0 152.0 -222.0 147.0 -183.0L-167.0 -229.0L-227.0 -270.0Z"/></g>
<g fill="red" transform="translate(100 600) scale(0.1 -0.1)"><path d="M0.0 0.0C109.0 -62.0 239.0 -156.0 302.0 -221.0L325.0 -199.0C260.0 -134.0 131.0 -42.0 21.0 19.0ZM-491.0 -162.0C-491.0 -153.0 -462.0 -144.0 -462.0 -144.0V-143.0C-353.0 -91.0 -241.0 -16.0 -130.0 75.0L-156.0 91.0C-253.0 7.0 -381.0 -74.0 -418.0 -95.0C-452.0 -115.0 -481.0 -128.0 -501.0 -129.0C-497.0 -138.0 -492.0 -154.0 -491.0 -162.0ZM-491.0 -162.0C-465.0 -153.0 -422.0 -150.0 193.0 -123.0C194.0 -118.0 195.0 -106.0 197.0 -98.0L-460.0 -124.0L-491.0 -139.0Z"/></g>
<g fill="black" opacity=".8" transform="translate(100 600) scale(0.1 -0.1)"><path d="M0.0 0.0C109.0 -59.0 233.0 -147.0 293.0 -211.0L316.0 -189.0C257.0 -126.0 133.0 -38.0 24.0 20.0ZM-489.0 -162.0C-492.0 -151.0 -459.0 -142.0 -459.0 -142.0C-353.0 -94.0 -242.0 -25.0 -131.0 66.0L-161.0 84.0C-256.0 0.0 -383.0 -77.0 -420.0 -96.0C-454.0 -114.0 -482.0 -124.0 -502.0 -126.0C-497.0 -136.0 -492.0 -153.0 -489.0 -162.0ZM-494.0 -165.0C-466.0 -157.0 -421.0 -153.0 206.0 -126.0C203.0 -120.0 199.0 -105.0 198.0 -98.0L-459.0 -124.0L-492.0 -140.0Z"/></g>
<g fill="red" transform="translate(200 600) scale(0.1 -0.1)"><path d="M0.0 0.0C93.0 -67.0 210.0 -167.0 261.0 -232.0L394.0 -153.0C334.0 -84.0 212.0 9.0 122.0 70.0ZM-456.0 -208.0C-456.0 -182.0 -367.0 -144.0 -367.0 -144.0V-141.0C-257.0 -105.0 -128.0 -43.0 -23.0 25.0L-182.0 100.0C-262.0 36.0 -374.0 -14.0 -413.0 -29.0C-448.0 -45.0 -472.0 -56.0 -502.0 -61.0C-486.0 -102.0 -463.0 -178.0 -456.0 -208.0ZM-456.0 -208.0C-395.0 -189.0 -315.0 -185.0 230.0 -174.0C227.0 -143.0 226.0 -87.0 229.0 -47.0H-360.0L-456.0 -97.0Z"/></g>
<g fill="black" opacity=".8" transform="translate(200 600) scale(0.1 -0.1)"><path d="M0.0 0.0C93.0 -71.0 207.0 -172.0 254.0 -240.0L396.0 -156.0C340.0 -84.0 223.0 10.0 131.0 74.0ZM-452.0 -209.0C-452.0 -182.0 -365.0 -140.0 -365.0 -140.0V-136.0C-254.0 -103.0 -125.0 -41.0 -19.0 30.0L-186.0 105.0C-264.0 38.0 -376.0 -14.0 -415.0 -28.0C-449.0 -43.0 -475.0 -54.0 -504.0 -59.0C-487.0 -103.0 -461.0 -177.0 -452.0 -209.0ZM-455.0 -213.0C-396.0 -194.0 -317.0 -195.0 236.0 -178.0C228.0 -145.0 217.0 -87.0 212.0 -45.0L-362.0 -51.0L-456.0 -100.0Z"/></g>
</svg>
