<?xml version="1.0" encoding="UTF-8"?>
<svg width="1700" height="300" xmlns="http://www.w3.org/2000/svg">
<rect width="100%" height="100%" fill="white"/>
<g fill="green" transform="translate(100 100) scale(0.1 -0.1)"><path d="M-0.0 0.0 17.0 -23.0H420.0V0.0ZM110.0 -177.0C70.0 -312.0 4.0 -440.0 -91.0 -525.0C-85.0 -529.0 -77.0 -536.0 -73.0 -540.0C23.0 -451.0 87.0 -325.0 134.0 -181.0ZM81.0 -403.0 60.0 -410.0C157.0 -611.0 325.0 -788.0 515.0 -864.0C519.0 -859.0 526.0 -850.0 532.0 -846.0C341.0 -772.0 172.0 -595.0 81.0 -403.0ZM384.0 -302.0V-308.0C294.0 -576.0 26.0 -769.0 -157.0 -833.0C-154.0 -836.0 -147.0 -847.0 -144.0 -853.0C42.0 -785.0 308.0 -591.0 404.0 -309.0L390.0 -301.0L386.0 -302.0Z"/></g>
<g fill="green" transform="translate(200 100) scale(0.1 -0.1)"><path d="M0.0 0.0 37.0 -80.0H376.0V0.0ZM34.0 -186.0C-10.0 -321.0 -74.0 -460.0 -158.0 -545.0C-133.0 -563.0 -89.0 -602.0 -73.0 -625.0C18.0 -526.0 90.0 -366.0 147.0 -214.0ZM90.0 -430.0 -4.0 -472.0C99.0 -650.0 263.0 -797.0 465.0 -874.0C482.0 -848.0 515.0 -804.0 539.0 -784.0C344.0 -720.0 171.0 -581.0 90.0 -430.0ZM340.0 -304.0V-320.0C265.0 -542.0 59.0 -704.0 -175.0 -775.0C-157.0 -801.0 -140.0 -842.0 -128.0 -874.0C153.0 -785.0 365.0 -618.0 462.0 -334.0L382.0 -295.0L361.0 -304.0Z"/></g>
<g fill="green" transform="translate(300 100) scale(0.1 -0.1)"><path d="M0.0 0.0 24.0 -7.0H178.0V0.0ZM66.0 -197.0C64.0 -266.0 62.0 -332.0 40.0 -376.0C41.0 -377.0 43.0 -378.0 44.0 -379.0C69.0 -334.0 67.0 -271.0 73.0 -196.0ZM101.0 -348.0 94.0 -347.0C120.0 -437.0 142.0 -539.0 175.0 -586.0C177.0 -586.0 180.0 -583.0 181.0 -583.0C149.0 -535.0 123.0 -433.0 101.0 -348.0ZM151.0 -262.0V-265.0C127.0 -411.0 29.0 -528.0 -10.0 -566.0C-10.0 -566.0 -8.0 -570.0 -6.0 -571.0C34.0 -533.0 128.0 -414.0 153.0 -263.0L149.0 -262.0Z"/></g>
<g fill="green" transform="translate(400 100) scale(0.1 -0.1)"><path d="M0.0 0.0 66.0 -17.0H170.0V0.0ZM23.0 -198.0C14.0 -273.0 14.0 -357.0 5.0 -408.0C13.0 -414.0 29.0 -424.0 33.0 -431.0C47.0 -374.0 48.0 -280.0 59.0 -203.0ZM107.0 -358.0 80.0 -372.0C100.0 -435.0 135.0 -516.0 161.0 -566.0C167.0 -561.0 179.0 -551.0 186.0 -549.0C161.0 -504.0 123.0 -420.0 107.0 -358.0ZM152.0 -264.0V-268.0C131.0 -382.0 74.0 -482.0 3.0 -531.0C7.0 -540.0 8.0 -549.0 12.0 -561.0C114.0 -505.0 167.0 -407.0 190.0 -265.0L165.0 -258.0L157.0 -264.0Z"/></g>
<g fill="green" transform="translate(500 100) scale(0.1 -0.1)"><path d="M0.0 0.0 -13.0 -38.0H518.0V0.0ZM73.0 314.0C-25.0 81.0 -175.0 -126.0 -331.0 -258.0C-321.0 -264.0 -305.0 -278.0 -298.0 -283.0C-148.0 -146.0 2.0 60.0 106.0 302.0ZM26.0 -26.0 -5.0 -37.0C153.0 -368.0 434.0 -654.0 747.0 -779.0C755.0 -770.0 766.0 -757.0 776.0 -752.0C459.0 -633.0 178.0 -346.0 26.0 -26.0ZM518.0 102.0V93.0C355.0 -323.0 -70.0 -639.0 -387.0 -750.0C-380.0 -755.0 -369.0 -771.0 -365.0 -782.0C-44.0 -661.0 382.0 -348.0 554.0 90.0L532.0 105.0L525.0 102.0Z"/></g>
<g fill="green" transform="translate(600 100) scale(0.1 -0.1)"><path d="M0.0 0.0 -85.0 -200.0H482.0V0.0ZM-36.0 284.0C-121.0 55.0 -271.0 -160.0 -424.0 -283.0C-380.0 -318.0 -299.0 -393.0 -266.0 -430.0C-115.0 -285.0 54.0 -34.0 152.0 220.0ZM67.0 -105.0 -108.0 -180.0C61.0 -487.0 311.0 -727.0 649.0 -848.0C680.0 -794.0 742.0 -707.0 790.0 -664.0C463.0 -569.0 199.0 -351.0 67.0 -105.0ZM434.0 102.0V70.0C308.0 -285.0 -53.0 -564.0 -429.0 -686.0C-391.0 -728.0 -347.0 -808.0 -324.0 -861.0C106.0 -706.0 480.0 -414.0 646.0 35.0L503.0 114.0L471.0 102.0Z"/></g>
<g fill="green" transform="translate(700 100) scale(0.1 -0.1)"><path d="M0.0 0.0 -9.0 -31.0H538.0V0.0ZM143.0 -384.0C84.0 -450.0 -23.0 -515.0 -150.0 -560.0C-142.0 -564.0 -131.0 -574.0 -126.0 -581.0C1.0 -533.0 108.0 -467.0 176.0 -393.0ZM6.0 -460.0 -21.0 -477.0C139.0 -571.0 456.0 -646.0 693.0 -675.0C697.0 -667.0 705.0 -654.0 712.0 -646.0C470.0 -618.0 157.0 -546.0 6.0 -460.0ZM484.0 -438.0V-444.0C350.0 -551.0 7.0 -624.0 -227.0 -644.0C-223.0 -650.0 -216.0 -665.0 -213.0 -674.0C28.0 -650.0 371.0 -574.0 518.0 -454.0L499.0 -437.0L492.0 -438.0Z"/></g>
<g fill="green" transform="translate(800 100) scale(0.1 -0.1)"><path d="M0.0 0.0 -56.0 -52.0H402.0V0.0ZM33.0 -381.0C-32.0 -438.0 -144.0 -489.0 -278.0 -522.0C-253.0 -542.0 -215.0 -586.0 -198.0 -614.0C-55.0 -568.0 65.0 -503.0 157.0 -419.0ZM-55.0 -443.0 -152.0 -496.0C20.0 -618.0 300.0 -670.0 598.0 -682.0C613.0 -651.0 640.0 -602.0 663.0 -577.0C368.0 -570.0 82.0 -534.0 -55.0 -443.0ZM384.0 -441.0V-454.0C261.0 -547.0 -43.0 -575.0 -323.0 -579.0C-307.0 -609.0 -292.0 -653.0 -285.0 -685.0C31.0 -675.0 355.0 -640.0 526.0 -496.0L438.0 -433.0L413.0 -441.0Z"/></g>
<g fill="green" transform="translate(900 100) scale(0.1 -0.1)"><path d="M0.0 0.0 21.0 -22.0H494.0V0.0ZM120.0 -174.0C88.0 -301.0 32.0 -429.0 -55.0 -515.0C-48.0 -518.0 -41.0 -524.0 -37.0 -529.0C52.0 -439.0 104.0 -314.0 147.0 -177.0ZM-1.0 -344.0 -22.0 -349.0C77.0 -608.0 261.0 -796.0 529.0 -869.0C532.0 -863.0 539.0 -854.0 545.0 -850.0C278.0 -779.0 92.0 -591.0 -1.0 -344.0ZM454.0 -310.0V-315.0C372.0 -593.0 133.0 -766.0 -75.0 -827.0C-71.0 -830.0 -64.0 -842.0 -62.0 -846.0C150.0 -781.0 386.0 -608.0 475.0 -316.0L461.0 -309.0L457.0 -310.0Z"/></g>
<g fill="green" transform="translate(1000 100) scale(0.1 -0.1)"><path d="M0.0 0.0 72.0 -71.0H420.0V0.0ZM69.0 -180.0C31.0 -311.0 -21.0 -450.0 -96.0 -538.0C-72.0 -554.0 -29.0 -588.0 -12.0 -609.0C70.0 -509.0 129.0 -349.0 179.0 -202.0ZM-28.0 -349.0 -117.0 -384.0C-4.0 -629.0 180.0 -802.0 462.0 -884.0C478.0 -857.0 511.0 -810.0 535.0 -789.0C262.0 -722.0 64.0 -558.0 -28.0 -349.0ZM368.0 -312.0V-328.0C311.0 -561.0 138.0 -705.0 -125.0 -765.0C-104.0 -790.0 -78.0 -839.0 -65.0 -871.0C228.0 -792.0 410.0 -635.0 486.0 -340.0L409.0 -304.0L388.0 -312.0Z"/></g>
<g fill="green" transform="translate(1100 100) scale(0.1 -0.1)"><path d="M-0.0 0.0 39.0 -23.0H411.0V0.0ZM122.0 -182.0C104.0 -284.0 48.0 -415.0 -77.0 -506.0C-70.0 -509.0 -65.0 -514.0 -60.0 -520.0C74.0 -424.0 125.0 -296.0 154.0 -182.0ZM136.0 -410.0 111.0 -418.0C198.0 -611.0 354.0 -764.0 540.0 -831.0C543.0 -825.0 551.0 -815.0 557.0 -811.0C371.0 -747.0 215.0 -594.0 136.0 -410.0ZM373.0 -304.0V-311.0C290.0 -565.0 29.0 -747.0 -140.0 -806.0C-137.0 -810.0 -129.0 -822.0 -128.0 -828.0C45.0 -765.0 304.0 -579.0 394.0 -309.0L379.0 -303.0L375.0 -304.0Z"/></g>
<g fill="green" transform="translate(1200 100) scale(0.1 -0.1)"><path d="M0.0 0.0 122.0 -85.0H449.0V0.0ZM67.0 -205.0C38.0 -317.0 5.0 -449.0 -98.0 -543.0C-70.0 -561.0 -29.0 -601.0 -13.0 -632.0C113.0 -516.0 152.0 -367.0 209.0 -219.0ZM168.0 -448.0 72.0 -494.0C180.0 -650.0 351.0 -781.0 543.0 -850.0C559.0 -824.0 592.0 -781.0 615.0 -760.0C431.0 -703.0 252.0 -579.0 168.0 -448.0ZM401.0 -306.0V-321.0C328.0 -531.0 122.0 -685.0 -107.0 -751.0C-90.0 -780.0 -75.0 -825.0 -63.0 -860.0C220.0 -775.0 432.0 -615.0 531.0 -335.0L447.0 -296.0L424.0 -306.0Z"/></g>
<g fill="green" transform="translate(1300 100) scale(0.1 -0.1)"><path d="M-0.0 0.0 15.0 -24.0H398.0V0.0ZM103.0 -181.0C58.0 -320.0 -16.0 -453.0 -123.0 -541.0C-117.0 -546.0 -108.0 -553.0 -104.0 -558.0C4.0 -464.0 78.0 -332.0 128.0 -185.0ZM56.0 -390.0 32.0 -399.0C117.0 -622.0 280.0 -784.0 514.0 -846.0C518.0 -841.0 525.0 -831.0 532.0 -825.0C297.0 -764.0 133.0 -605.0 56.0 -390.0ZM364.0 -300.0V-306.0C286.0 -596.0 34.0 -767.0 -178.0 -823.0C-174.0 -828.0 -167.0 -839.0 -163.0 -844.0C51.0 -784.0 302.0 -612.0 387.0 -307.0L371.0 -299.0L366.0 -300.0Z"/></g>
<g fill="green" transform="translate(1400 100) scale(0.1 -0.1)"><path d="M0.0 0.0 49.0 -83.0H358.0V0.0ZM63.0 -191.0C18.0 -321.0 -56.0 -452.0 -154.0 -532.0C-128.0 -551.0 -83.0 -590.0 -66.0 -614.0C39.0 -519.0 120.0 -368.0 183.0 -217.0ZM102.0 -427.0 0.0 -464.0C99.0 -664.0 260.0 -807.0 496.0 -878.0C513.0 -851.0 545.0 -805.0 569.0 -784.0C346.0 -727.0 178.0 -594.0 102.0 -427.0ZM323.0 -302.0V-319.0C258.0 -566.0 70.0 -720.0 -181.0 -784.0C-161.0 -810.0 -142.0 -851.0 -130.0 -883.0C165.0 -799.0 361.0 -638.0 443.0 -326.0L365.0 -294.0L343.0 -302.0Z"/></g>
<g fill="red" transform="translate(100 200) scale(0.1 -0.1)"><path d="M0.0 0.0 -18.0 -30.0H451.0V0.0ZM74.0 119.0C1.0 -5.0 -120.0 -119.0 -243.0 -193.0C-235.0 -197.0 -223.0 -208.0 -218.0 -213.0C-98.0 -137.0 23.0 -21.0 103.0 109.0ZM-30.0 -35.0 -54.0 -47.0C89.0 -240.0 365.0 -396.0 624.0 -462.0C629.0 -454.0 637.0 -443.0 644.0 -437.0C382.0 -376.0 109.0 -220.0 -30.0 -35.0ZM441.0 0.0V-6.0C304.0 -218.0 -28.0 -380.0 -277.0 -437.0C-272.0 -442.0 -264.0 -455.0 -262.0 -464.0C-8.0 -400.0 326.0 -240.0 472.0 -12.0L454.0 2.0L448.0 0.0Z"/></g>
<g fill="black" opacity=".8" transform="translate(100 200) scale(0.1 -0.1)"><path d="M0.0 0.0 -18.0 -31.0H451.0V0.0ZM74.0 119.0C1.0 -5.0 -120.0 -120.0 -243.0 -194.0C-235.0 -197.0 -223.0 -208.0 -217.0 -214.0C-97.0 -137.0 22.0 -23.0 103.0 108.0ZM-31.0 -36.0 -56.0 -47.0C90.0 -240.0 366.0 -396.0 622.0 -463.0C628.0 -455.0 637.0 -443.0 644.0 -439.0C383.0 -375.0 108.0 -220.0 -31.0 -36.0ZM440.0 -0.0V-7.0C303.0 -218.0 -29.0 -380.0 -277.0 -437.0C-272.0 -442.0 -264.0 -456.0 -262.0 -465.0C-8.0 -401.0 325.0 -240.0 472.0 -13.0L454.0 2.0L448.0 -0.0Z"/></g>
<g fill="red" transform="translate(200 200) scale(0.1 -0.1)"><path d="M0.0 0.0 -87.0 -124.0H379.0V0.0ZM-16.0 103.0C-84.0 -18.0 -207.0 -128.0 -337.0 -192.0C-306.0 -217.0 -253.0 -272.0 -230.0 -301.0C-99.0 -221.0 38.0 -89.0 122.0 55.0ZM-53.0 -63.0 -175.0 -120.0C-18.0 -322.0 222.0 -452.0 523.0 -507.0C543.0 -467.0 584.0 -403.0 617.0 -370.0C322.0 -329.0 72.0 -218.0 -53.0 -63.0ZM347.0 0.0V-22.0C237.0 -207.0 -60.0 -334.0 -353.0 -384.0C-327.0 -416.0 -296.0 -476.0 -282.0 -514.0C41.0 -446.0 355.0 -307.0 506.0 -60.0L401.0 7.0L377.0 0.0Z"/></g>
<g fill="black" opacity=".8" transform="translate(200 200) scale(0.1 -0.1)"><path d="M0.0 0.0 -90.0 -124.0H377.0V0.0ZM-19.0 103.0C-86.0 -18.0 -207.0 -128.0 -336.0 -192.0C-305.0 -217.0 -251.0 -271.0 -227.0 -299.0C-97.0 -220.0 37.0 -89.0 120.0 56.0ZM-53.0 -62.0 -175.0 -120.0C-18.0 -322.0 224.0 -452.0 524.0 -507.0C545.0 -466.0 586.0 -402.0 619.0 -369.0C323.0 -329.0 72.0 -218.0 -53.0 -62.0ZM347.0 -1.0V-21.0C237.0 -205.0 -60.0 -332.0 -354.0 -384.0C-327.0 -416.0 -295.0 -476.0 -281.0 -514.0C41.0 -446.0 355.0 -307.0 506.0 -61.0L402.0 8.0L377.0 -1.0Z"/></g>
<g fill="red" transform="translate(300 200) scale(0.1 -0.1)"><path d="M0.0 0.0V-30.0H463.0V0.0ZM75.0 177.0C3.0 -10.0 -111.0 -186.0 -242.0 -301.0C-234.0 -306.0 -221.0 -317.0 -216.0 -322.0C-87.0 -202.0 27.0 -26.0 105.0 169.0ZM-19.0 -67.0 -46.0 -76.0C64.0 -405.0 284.0 -634.0 621.0 -723.0C627.0 -715.0 635.0 -704.0 643.0 -697.0C306.0 -614.0 87.0 -385.0 -19.0 -67.0ZM455.0 0.0V-7.0C342.0 -383.0 28.0 -614.0 -263.0 -696.0C-257.0 -702.0 -248.0 -715.0 -245.0 -722.0C50.0 -633.0 365.0 -404.0 485.0 -8.0L466.0 2.0L460.0 0.0Z"/></g>
<g fill="black" opacity=".8" transform="translate(300 200) scale(0.1 -0.1)"><path d="M0.0 0.0 -1.0 -31.0H462.0V0.0ZM74.0 176.0C2.0 -12.0 -111.0 -189.0 -244.0 -303.0C-235.0 -308.0 -223.0 -318.0 -217.0 -324.0C-87.0 -204.0 26.0 -28.0 104.0 168.0ZM-22.0 -68.0 -50.0 -77.0C65.0 -403.0 288.0 -634.0 620.0 -724.0C626.0 -716.0 635.0 -704.0 644.0 -699.0C310.0 -612.0 86.0 -383.0 -22.0 -68.0ZM454.0 -0.0V-8.0C341.0 -382.0 29.0 -615.0 -261.0 -698.0C-254.0 -703.0 -245.0 -717.0 -241.0 -724.0C51.0 -633.0 364.0 -402.0 485.0 -9.0L465.0 2.0L459.0 -0.0Z"/></g>
<g fill="red" transform="translate(400 200) scale(0.1 -0.1)"><path d="M0.0 0.0V-152.0H428.0V0.0ZM38.0 154.0C-27.0 -27.0 -142.0 -203.0 -271.0 -307.0C-235.0 -334.0 -171.0 -392.0 -145.0 -423.0C-14.0 -299.0 115.0 -96.0 195.0 110.0ZM24.0 -131.0 -119.0 -181.0C16.0 -485.0 222.0 -695.0 563.0 -793.0C587.0 -750.0 636.0 -680.0 673.0 -645.0C349.0 -568.0 129.0 -377.0 24.0 -131.0ZM376.0 0.0V-27.0C295.0 -353.0 45.0 -567.0 -291.0 -656.0C-259.0 -690.0 -219.0 -756.0 -200.0 -800.0C173.0 -682.0 436.0 -452.0 542.0 -44.0L431.0 8.0L404.0 0.0Z"/></g>
<g fill="black" opacity=".8" transform="translate(400 200) scale(0.1 -0.1)"><path d="M0.0 0.0 -5.0 -152.0H426.0V0.0ZM31.0 153.0C-31.0 -29.0 -142.0 -203.0 -270.0 -307.0C-234.0 -334.0 -169.0 -390.0 -142.0 -420.0C-13.0 -298.0 112.0 -95.0 190.0 110.0ZM24.0 -126.0 -119.0 -178.0C17.0 -483.0 226.0 -694.0 567.0 -794.0C591.0 -751.0 640.0 -679.0 678.0 -645.0C352.0 -568.0 131.0 -375.0 24.0 -126.0ZM375.0 -1.0V-27.0C295.0 -351.0 45.0 -566.0 -290.0 -656.0C-257.0 -689.0 -217.0 -757.0 -198.0 -800.0C173.0 -681.0 436.0 -450.0 541.0 -45.0L430.0 8.0L403.0 -1.0Z"/></g>
<g fill="red" transform="translate(500 200) scale(0.1 -0.1)"><path d="M0.0 0.0 -24.0 -29.0H371.0V0.0ZM59.0 88.0C-15.0 -20.0 -136.0 -117.0 -255.0 -178.0C-247.0 -183.0 -235.0 -194.0 -231.0 -199.0C-115.0 -133.0 9.0 -34.0 86.0 78.0ZM-27.0 -36.0 -51.0 -49.0C68.0 -215.0 315.0 -327.0 565.0 -370.0C569.0 -363.0 577.0 -352.0 584.0 -345.0C331.0 -306.0 88.0 -195.0 -27.0 -36.0ZM363.0 0.0V-6.0C241.0 -196.0 -67.0 -315.0 -317.0 -355.0C-311.0 -362.0 -304.0 -373.0 -302.0 -382.0C-48.0 -336.0 263.0 -217.0 395.0 -12.0L377.0 2.0L370.0 0.0Z"/></g>
<g fill="black" opacity=".8" transform="translate(500 200) scale(0.1 -0.1)"><path d="M0.0 0.0 -23.0 -30.0H369.0V0.0ZM59.0 90.0C-16.0 -19.0 -139.0 -120.0 -265.0 -183.0C-258.0 -187.0 -245.0 -197.0 -240.0 -203.0C-118.0 -136.0 6.0 -35.0 85.0 80.0ZM-29.0 -37.0 -55.0 -50.0C72.0 -209.0 325.0 -322.0 568.0 -366.0C573.0 -359.0 581.0 -348.0 588.0 -341.0C341.0 -299.0 89.0 -190.0 -29.0 -37.0ZM362.0 -0.0V-6.0C241.0 -192.0 -60.0 -313.0 -303.0 -354.0C-297.0 -361.0 -291.0 -373.0 -287.0 -381.0C-40.0 -334.0 263.0 -213.0 394.0 -13.0L376.0 2.0L370.0 -0.0Z"/></g>
<g fill="red" transform="translate(600 200) scale(0.1 -0.1)"><path d="M0.0 0.0 -102.0 -121.0H307.0V0.0ZM-2.0 85.0C-68.0 -15.0 -195.0 -100.0 -327.0 -148.0C-297.0 -172.0 -248.0 -226.0 -227.0 -254.0C-93.0 -191.0 47.0 -87.0 131.0 39.0ZM-20.0 -84.0 -141.0 -135.0C3.0 -300.0 221.0 -386.0 504.0 -417.0C523.0 -379.0 560.0 -319.0 590.0 -287.0C316.0 -268.0 91.0 -203.0 -20.0 -84.0ZM293.0 0.0V-20.0C189.0 -188.0 -89.0 -283.0 -364.0 -317.0C-341.0 -347.0 -314.0 -399.0 -302.0 -433.0C3.0 -383.0 299.0 -278.0 440.0 -54.0L344.0 6.0L321.0 0.0Z"/></g>
<g fill="black" opacity=".8" transform="translate(600 200) scale(0.1 -0.1)"><path d="M0.0 0.0 -96.0 -115.0H308.0V0.0ZM-8.0 75.0C-73.0 -22.0 -200.0 -104.0 -334.0 -150.0C-306.0 -175.0 -257.0 -225.0 -234.0 -253.0C-99.0 -192.0 39.0 -92.0 125.0 31.0ZM-14.0 -71.0 -132.0 -123.0C9.0 -293.0 228.0 -387.0 506.0 -422.0C524.0 -385.0 560.0 -326.0 590.0 -296.0C319.0 -272.0 96.0 -197.0 -14.0 -71.0ZM289.0 -1.0V-19.0C188.0 -186.0 -86.0 -285.0 -357.0 -323.0C-333.0 -352.0 -305.0 -404.0 -294.0 -437.0C5.0 -385.0 295.0 -276.0 433.0 -53.0L340.0 6.0L316.0 -1.0Z"/></g>
<g fill="red" transform="translate(700 200) scale(0.1 -0.1)"><path d="M0.0 0.0 -24.0 -29.0H371.0V0.0ZM58.0 93.0C-22.0 -22.0 -152.0 -124.0 -282.0 -190.0C-275.0 -195.0 -262.0 -206.0 -257.0 -211.0C-131.0 -142.0 1.0 -37.0 85.0 83.0ZM-32.0 -38.0 -56.0 -52.0C70.0 -212.0 329.0 -322.0 581.0 -365.0C586.0 -357.0 593.0 -346.0 600.0 -339.0C344.0 -300.0 89.0 -192.0 -32.0 -38.0ZM365.0 0.0V-6.0C244.0 -196.0 -62.0 -315.0 -310.0 -355.0C-305.0 -362.0 -298.0 -373.0 -295.0 -382.0C-43.0 -336.0 266.0 -217.0 397.0 -12.0L379.0 2.0L372.0 0.0Z"/></g>
<g fill="black" opacity=".8" transform="translate(700 200) scale(0.1 -0.1)"><path d="M0.0 0.0 -26.0 -30.0H371.0V0.0ZM57.0 89.0C-22.0 -25.0 -150.0 -126.0 -277.0 -190.0C-270.0 -194.0 -256.0 -205.0 -251.0 -211.0C-129.0 -143.0 1.0 -41.0 84.0 79.0ZM-34.0 -39.0 -60.0 -53.0C69.0 -213.0 327.0 -326.0 575.0 -370.0C581.0 -363.0 589.0 -352.0 596.0 -345.0C343.0 -303.0 86.0 -193.0 -34.0 -39.0ZM363.0 -0.0V-7.0C241.0 -197.0 -67.0 -318.0 -317.0 -359.0C-311.0 -366.0 -305.0 -378.0 -301.0 -386.0C-47.0 -339.0 263.0 -218.0 397.0 -14.0L378.0 2.0L371.0 -0.0Z"/></g>
<g fill="red" transform="translate(800 200) scale(0.1 -0.1)"><path d="M0.0 0.0 -93.0 -111.0H307.0V0.0ZM-1.0 70.0C-75.0 -28.0 -215.0 -109.0 -359.0 -154.0C-330.0 -178.0 -283.0 -231.0 -262.0 -259.0C-119.0 -199.0 34.0 -100.0 127.0 22.0ZM-13.0 -74.0 -130.0 -123.0C9.0 -296.0 225.0 -394.0 505.0 -431.0C523.0 -394.0 559.0 -336.0 588.0 -306.0C318.0 -280.0 96.0 -203.0 -13.0 -74.0ZM283.0 0.0V-20.0C180.0 -195.0 -96.0 -297.0 -370.0 -334.0C-347.0 -363.0 -320.0 -413.0 -309.0 -447.0C-5.0 -394.0 288.0 -283.0 427.0 -52.0L333.0 6.0L310.0 0.0Z"/></g>
<g fill="black" opacity=".8" transform="translate(800 200) scale(0.1 -0.1)"><path d="M0.0 0.0 -108.0 -117.0H301.0V0.0ZM-10.0 76.0C-78.0 -25.0 -213.0 -107.0 -350.0 -151.0C-321.0 -177.0 -271.0 -228.0 -248.0 -255.0C-112.0 -196.0 34.0 -95.0 122.0 29.0ZM-16.0 -75.0 -137.0 -127.0C6.0 -299.0 227.0 -393.0 511.0 -428.0C530.0 -390.0 566.0 -330.0 596.0 -299.0C320.0 -277.0 95.0 -202.0 -16.0 -75.0ZM284.0 -1.0V-20.0C181.0 -191.0 -99.0 -291.0 -375.0 -329.0C-350.0 -358.0 -322.0 -410.0 -311.0 -444.0C-7.0 -392.0 290.0 -282.0 431.0 -54.0L336.0 6.0L312.0 -1.0Z"/></g>
<g fill="red" transform="translate(900 200) scale(0.1 -0.1)"><path d="M0.0 0.0 -30.0 -29.0H446.0V0.0ZM65.0 86.0C-10.0 -9.0 -135.0 -94.0 -254.0 -149.0C-246.0 -153.0 -234.0 -164.0 -229.0 -170.0C-114.0 -112.0 12.0 -24.0 94.0 75.0ZM-136.0 44.0 -161.0 30.0C-22.0 -161.0 276.0 -267.0 599.0 -301.0C603.0 -292.0 610.0 -281.0 617.0 -273.0C291.0 -243.0 -2.0 -139.0 -136.0 44.0ZM436.0 0.0V-5.0C314.0 -168.0 29.0 -248.0 -247.0 -279.0C-241.0 -286.0 -234.0 -299.0 -232.0 -306.0C50.0 -269.0 338.0 -191.0 471.0 -13.0L452.0 2.0L445.0 0.0Z"/></g>
<g fill="black" opacity=".8" transform="translate(900 200) scale(0.1 -0.1)"><path d="M0.0 0.0 -30.0 -30.0H447.0V0.0ZM65.0 86.0C-11.0 -8.0 -135.0 -94.0 -254.0 -149.0C-246.0 -152.0 -233.0 -162.0 -228.0 -169.0C-113.0 -111.0 11.0 -24.0 94.0 75.0ZM-135.0 43.0 -161.0 31.0C-20.0 -162.0 275.0 -267.0 598.0 -300.0C603.0 -292.0 611.0 -280.0 618.0 -273.0C291.0 -241.0 -3.0 -141.0 -135.0 43.0ZM436.0 -0.0V-5.0C314.0 -169.0 29.0 -248.0 -248.0 -278.0C-241.0 -285.0 -235.0 -299.0 -232.0 -305.0C51.0 -269.0 337.0 -191.0 472.0 -14.0L453.0 2.0L446.0 -0.0Z"/></g>
<g fill="red" transform="translate(1000 200) scale(0.1 -0.1)"><path d="M0.0 0.0 -103.0 -103.0H329.0V0.0ZM14.0 79.0C-52.0 -3.0 -182.0 -68.0 -315.0 -104.0C-287.0 -126.0 -240.0 -174.0 -218.0 -199.0C-87.0 -151.0 55.0 -70.0 139.0 36.0ZM-168.0 38.0 -282.0 -7.0C-120.0 -232.0 134.0 -333.0 506.0 -361.0C523.0 -322.0 558.0 -260.0 587.0 -227.0C225.0 -211.0 -39.0 -132.0 -168.0 38.0ZM301.0 0.0V-20.0C208.0 -172.0 -51.0 -230.0 -353.0 -244.0C-327.0 -272.0 -291.0 -331.0 -279.0 -364.0C31.0 -336.0 312.0 -260.0 444.0 -56.0L352.0 4.0L329.0 0.0Z"/></g>
<g fill="black" opacity=".8" transform="translate(1000 200) scale(0.1 -0.1)"><path d="M0.0 0.0 -102.0 -103.0H329.0V0.0ZM15.0 78.0C-51.0 -4.0 -183.0 -68.0 -315.0 -104.0C-288.0 -127.0 -241.0 -173.0 -217.0 -198.0C-87.0 -151.0 55.0 -70.0 141.0 35.0ZM-167.0 38.0 -281.0 -8.0C-120.0 -232.0 134.0 -334.0 505.0 -362.0C522.0 -322.0 556.0 -259.0 586.0 -227.0C224.0 -212.0 -38.0 -132.0 -167.0 38.0ZM302.0 -1.0V-19.0C209.0 -172.0 -50.0 -229.0 -355.0 -245.0C-328.0 -273.0 -291.0 -332.0 -280.0 -365.0C32.0 -336.0 313.0 -261.0 444.0 -56.0L353.0 5.0L329.0 -1.0Z"/></g>
<g fill="red" transform="translate(1100 200) scale(0.1 -0.1)"><path d="M0.0 0.0V-30.0H531.0V0.0ZM139.0 -356.0C88.0 -425.0 -13.0 -503.0 -148.0 -558.0C-140.0 -563.0 -130.0 -572.0 -125.0 -580.0C13.0 -520.0 114.0 -440.0 175.0 -363.0ZM-23.0 -419.0 -52.0 -435.0C87.0 -584.0 382.0 -662.0 677.0 -685.0C680.0 -676.0 688.0 -663.0 695.0 -654.0C398.0 -633.0 107.0 -559.0 -23.0 -419.0ZM480.0 -420.0V-426.0C366.0 -574.0 60.0 -638.0 -195.0 -656.0C-190.0 -664.0 -183.0 -678.0 -181.0 -686.0C81.0 -664.0 388.0 -597.0 514.0 -433.0L494.0 -418.0L487.0 -420.0Z"/></g>
<g fill="black" opacity=".8" transform="translate(1100 200) scale(0.1 -0.1)"><path d="M0.0 0.0V-30.0H531.0V0.0ZM139.0 -356.0C88.0 -425.0 -13.0 -504.0 -148.0 -559.0C-140.0 -563.0 -129.0 -572.0 -124.0 -580.0C13.0 -520.0 113.0 -440.0 175.0 -363.0ZM-23.0 -419.0 -52.0 -436.0C88.0 -584.0 382.0 -662.0 677.0 -684.0C680.0 -676.0 688.0 -663.0 696.0 -654.0C398.0 -632.0 107.0 -559.0 -23.0 -419.0ZM480.0 -420.0V-426.0C366.0 -575.0 60.0 -638.0 -196.0 -656.0C-191.0 -664.0 -183.0 -679.0 -180.0 -686.0C81.0 -663.0 388.0 -597.0 514.0 -433.0L494.0 -419.0L487.0 -420.0Z"/></g>
<g fill="red" transform="translate(1200 200) scale(0.1 -0.1)"><path d="M0.0 0.0V-56.0H419.0V0.0ZM77.0 -357.0C20.0 -415.0 -80.0 -472.0 -219.0 -512.0C-192.0 -531.0 -154.0 -574.0 -137.0 -603.0C14.0 -547.0 122.0 -478.0 210.0 -386.0ZM-55.0 -410.0 -156.0 -455.0C8.0 -625.0 278.0 -695.0 618.0 -712.0C632.0 -681.0 660.0 -631.0 683.0 -605.0C352.0 -595.0 75.0 -541.0 -55.0 -410.0ZM389.0 -422.0V-437.0C288.0 -570.0 27.0 -603.0 -269.0 -606.0C-251.0 -636.0 -231.0 -683.0 -223.0 -716.0C104.0 -703.0 386.0 -658.0 527.0 -468.0L442.0 -416.0L416.0 -422.0Z"/></g>
<g fill="black" opacity=".8" transform="translate(1200 200) scale(0.1 -0.1)"><path d="M0.0 0.0V-56.0H418.0V0.0ZM77.0 -357.0C20.0 -415.0 -81.0 -472.0 -218.0 -512.0C-192.0 -532.0 -154.0 -573.0 -136.0 -602.0C14.0 -547.0 121.0 -477.0 210.0 -387.0ZM-54.0 -410.0 -156.0 -455.0C8.0 -625.0 278.0 -695.0 618.0 -713.0C633.0 -681.0 660.0 -630.0 683.0 -605.0C352.0 -595.0 75.0 -541.0 -54.0 -410.0ZM389.0 -423.0V-437.0C289.0 -570.0 27.0 -603.0 -270.0 -606.0C-251.0 -636.0 -231.0 -683.0 -223.0 -716.0C104.0 -703.0 387.0 -658.0 527.0 -468.0L442.0 -415.0L416.0 -423.0Z"/></g>
<g fill="red" transform="translate(1300 200) scale(0.1 -0.1)"><path d="M0.0 0.0V-29.0H397.0V0.0ZM74.0 104.0C21.0 13.0 -89.0 -100.0 -239.0 -177.0C-231.0 -181.0 -222.0 -190.0 -216.0 -197.0C-62.0 -115.0 47.0 -1.0 108.0 98.0ZM-7.0 -26.0 -35.0 -39.0C81.0 -232.0 327.0 -347.0 601.0 -391.0C605.0 -382.0 613.0 -370.0 620.0 -363.0C344.0 -324.0 103.0 -211.0 -7.0 -26.0ZM388.0 0.0V-7.0C276.0 -210.0 -12.0 -335.0 -254.0 -378.0C-249.0 -385.0 -241.0 -398.0 -240.0 -406.0C8.0 -356.0 299.0 -231.0 420.0 -10.0L401.0 2.0L395.0 0.0Z"/></g>
<g fill="black" opacity=".8" transform="translate(1300 200) scale(0.1 -0.1)"><path d="M0.0 0.0V-29.0H398.0V0.0ZM74.0 104.0C21.0 13.0 -89.0 -101.0 -238.0 -177.0C-230.0 -180.0 -220.0 -188.0 -214.0 -196.0C-61.0 -115.0 46.0 -1.0 108.0 98.0ZM-6.0 -26.0 -35.0 -39.0C82.0 -233.0 325.0 -347.0 600.0 -390.0C604.0 -382.0 613.0 -370.0 620.0 -364.0C343.0 -323.0 102.0 -212.0 -6.0 -26.0ZM388.0 -0.0V-7.0C276.0 -211.0 -13.0 -335.0 -256.0 -378.0C-250.0 -385.0 -243.0 -399.0 -241.0 -406.0C8.0 -357.0 298.0 -231.0 421.0 -11.0L402.0 2.0L395.0 -0.0Z"/></g>
<g fill="red" transform="translate(1400 200) scale(0.1 -0.1)"><path d="M0.0 0.0V-122.0H401.0V0.0ZM34.0 77.0C-16.0 -13.0 -109.0 -103.0 -256.0 -167.0C-223.0 -190.0 -176.0 -242.0 -154.0 -276.0C8.0 -190.0 112.0 -84.0 193.0 47.0ZM20.0 -66.0 -101.0 -118.0C48.0 -309.0 276.0 -416.0 578.0 -457.0C596.0 -419.0 634.0 -359.0 664.0 -327.0C372.0 -298.0 136.0 -210.0 20.0 -66.0ZM361.0 0.0V-21.0C269.0 -202.0 10.0 -308.0 -272.0 -346.0C-247.0 -378.0 -217.0 -437.0 -204.0 -475.0C108.0 -419.0 385.0 -299.0 515.0 -51.0L415.0 6.0L390.0 0.0Z"/></g>
<g fill="black" opacity=".8" transform="translate(1400 200) scale(0.1 -0.1)"><path d="M0.0 0.0 -1.0 -122.0H400.0V0.0ZM35.0 77.0C-15.0 -13.0 -109.0 -103.0 -255.0 -166.0C-224.0 -191.0 -175.0 -242.0 -152.0 -276.0C9.0 -190.0 112.0 -84.0 194.0 47.0ZM21.0 -66.0 -101.0 -119.0C47.0 -310.0 276.0 -417.0 578.0 -457.0C596.0 -418.0 633.0 -357.0 663.0 -326.0C371.0 -299.0 136.0 -211.0 21.0 -66.0ZM362.0 -1.0V-20.0C271.0 -202.0 10.0 -307.0 -274.0 -346.0C-249.0 -377.0 -218.0 -437.0 -205.0 -475.0C108.0 -419.0 386.0 -300.0 515.0 -51.0L416.0 7.0L390.0 -1.0Z"/></g>
<g fill="red" transform="translate(1500 200) scale(0.1 -0.1)"><path d="M0.0 0.0 -20.0 -30.0H398.0V0.0ZM61.0 117.0C-12.0 -25.0 -135.0 -150.0 -267.0 -231.0C-259.0 -236.0 -247.0 -246.0 -242.0 -251.0C-113.0 -167.0 10.0 -40.0 88.0 108.0ZM-33.0 -53.0 -60.0 -67.0C75.0 -268.0 333.0 -430.0 586.0 -498.0C591.0 -489.0 599.0 -479.0 607.0 -472.0C351.0 -408.0 96.0 -248.0 -33.0 -53.0ZM390.0 0.0V-7.0C269.0 -249.0 -38.0 -420.0 -287.0 -481.0C-281.0 -487.0 -273.0 -500.0 -270.0 -508.0C-16.0 -440.0 292.0 -271.0 423.0 -11.0L403.0 2.0L397.0 0.0Z"/></g>
<g fill="black" opacity=".8" transform="translate(1500 200) scale(0.1 -0.1)"><path d="M0.0 0.0 -17.0 -30.0H401.0V0.0ZM63.0 121.0C-12.0 -18.0 -134.0 -145.0 -261.0 -225.0C-253.0 -230.0 -241.0 -240.0 -235.0 -246.0C-112.0 -161.0 10.0 -34.0 91.0 111.0ZM-23.0 -52.0 -49.0 -64.0C76.0 -275.0 321.0 -430.0 587.0 -492.0C593.0 -485.0 602.0 -474.0 609.0 -468.0C339.0 -408.0 94.0 -256.0 -23.0 -52.0ZM393.0 1.0V-6.0C273.0 -255.0 -39.0 -418.0 -296.0 -475.0C-290.0 -481.0 -283.0 -494.0 -279.0 -502.0C-18.0 -438.0 295.0 -276.0 425.0 -11.0L407.0 3.0L400.0 1.0Z"/></g>
<g fill="red" transform="translate(1600 200) scale(0.1 -0.1)"><path d="M0.0 0.0 -90.0 -129.0H338.0V0.0ZM-22.0 103.0C-79.0 -26.0 -191.0 -140.0 -319.0 -205.0C-286.0 -228.0 -230.0 -280.0 -206.0 -307.0C-78.0 -227.0 46.0 -93.0 120.0 62.0ZM0.0 -82.0 -127.0 -136.0C18.0 -352.0 239.0 -491.0 537.0 -552.0C558.0 -513.0 599.0 -450.0 631.0 -418.0C343.0 -371.0 113.0 -251.0 0.0 -82.0ZM312.0 0.0V-23.0C214.0 -233.0 -55.0 -379.0 -338.0 -437.0C-311.0 -468.0 -279.0 -526.0 -264.0 -563.0C50.0 -484.0 334.0 -328.0 467.0 -53.0L365.0 7.0L340.0 0.0Z"/></g>
<g fill="black" opacity=".8" transform="translate(1600 200) scale(0.1 -0.1)"><path d="M0.0 0.0 -75.0 -128.0H344.0V0.0ZM-1.0 104.0C-67.0 -25.0 -192.0 -140.0 -323.0 -205.0C-292.0 -231.0 -238.0 -284.0 -214.0 -312.0C-82.0 -231.0 55.0 -94.0 139.0 58.0ZM1.0 -94.0 -126.0 -147.0C14.0 -359.0 229.0 -493.0 524.0 -551.0C544.0 -511.0 584.0 -448.0 617.0 -416.0C332.0 -374.0 110.0 -259.0 1.0 -94.0ZM316.0 -0.0V-21.0C219.0 -240.0 -53.0 -381.0 -345.0 -439.0C-318.0 -469.0 -286.0 -526.0 -272.0 -563.0C51.0 -487.0 338.0 -334.0 469.0 -51.0L368.0 8.0L343.0 -0.0Z"/></g>
</svg>
