<?xml version="1.0" encoding="UTF-8"?>
<svg width="1700" height="1900" xmlns="http://www.w3.org/2000/svg">
<rect width="100%" height="100%" fill="white"/>
<g fill="green" transform="translate(100 100) scale(0.1 -0.1)"><path d="M-0.0 0.0 -1.0 33.0H266.0L267.0 2.0ZM-72.0 -164.0 325.0 -254.0 -132.0 -519.0 -526.0 -429.0ZM-778.0 66.0V-244.0H-817.0V324.0H-277.0V66.0Z"/></g>
<g fill="green" transform="translate(200 100) scale(0.1 -0.1)"><path d="M0.0 0.0 -1.0 -35.0H262.0V4.0ZM17.0 -322.0 299.0 -333.0 -159.0 -512.0 -431.0 -502.0ZM-768.0 38.0V-325.0H-734.0V205.0H-329.0V38.0Z"/></g>
<g fill="green" transform="translate(300 100) scale(0.1 -0.1)"><path d="M0.0 0.0 -1.0 -653.0H308.0L309.0 2.0ZM238.0 -411.0 638.0 -895.0 337.0 -1162.0 -61.0 -679.0ZM-1022.0 -27.0V-944.0H-720.0V-303.0H-440.0V-27.0Z"/></g>
<g fill="green" transform="translate(400 100) scale(0.1 -0.1)"><path d="M0.0 0.0 -1.0 -799.0H392.0V3.0ZM341.0 -586.0 623.0 -1041.0 387.0 -1222.0 113.0 -767.0ZM-1017.0 -53.0V-1111.0H-589.0V-414.0H-421.0V-53.0Z"/></g>
<g fill="green" transform="translate(500 100) scale(0.1 -0.1)"><path d="M0.0 0.0 -2.0 253.0H274.0L276.0 1.0ZM172.0 -297.0 559.0 -600.0 -198.0 -856.0 -579.0 -553.0ZM0.0 -551.0V-539.0H-310.0V507.0H1025.0V-551.0Z"/></g>
<g fill="green" transform="translate(600 100) scale(0.1 -0.1)"><path d="M0.0 0.0 -2.0 269.0H299.0V3.0ZM194.0 -483.0 476.0 -662.0 -185.0 -835.0 -448.0 -658.0ZM65.0 -614.0V-542.0H-114.0V254.0H930.0V-614.0Z"/></g>
<g fill="green" transform="translate(700 100) scale(0.1 -0.1)"><path d="M0.0 0.0 -1.0 -19.0H291.0V2.0ZM141.0 -176.0 549.0 295.0 527.0 21.0 120.0 -450.0ZM-776.0 211.0V-264.0H-889.0V480.0H-40.0V211.0Z"/></g>
<g fill="green" transform="translate(800 100) scale(0.1 -0.1)"><path d="M0.0 0.0 -1.0 -169.0H297.0V3.0ZM278.0 -341.0 561.0 198.0 455.0 13.0 174.0 -527.0ZM-788.0 192.0V-361.0H-757.0V323.0H-126.0V192.0Z"/></g>
<g fill="green" transform="translate(900 100) scale(0.1 -0.1)"><path d="M-0.0 0.0 -1.0 -325.0H231.0L233.0 3.0ZM-112.0 802.0 292.0 25.0 -357.0 -243.0 -755.0 534.0ZM-580.0 132.0V-425.0H-540.0V41.0H-260.0V132.0Z"/></g>
<g fill="green" transform="translate(1000 100) scale(0.1 -0.1)"><path d="M0.0 0.0 -2.0 -407.0 245.0 -408.0 246.0 7.0ZM-60.0 671.0 234.0 -53.0 -311.0 -234.0 -587.0 490.0ZM-569.0 103.0V-536.0H-464.0V-49.0H-279.0V103.0Z"/></g>
<g fill="green" transform="translate(1100 100) scale(0.1 -0.1)"><path d="M-0.0 0.0 -1.0 325.0 300.0 324.0 301.0 0.0ZM262.0 -183.0 661.0 -180.0 43.0 -446.0 -352.0 -449.0ZM-823.0 -208.0V-76.0H-38.0V136.0H-821.0V-208.0Z"/></g>
<g fill="green" transform="translate(1200 100) scale(0.1 -0.1)"><path d="M0.0 0.0 -1.0 356.0H313.0V0.0ZM304.0 -316.0 589.0 -212.0 22.0 -392.0 -251.0 -497.0ZM-797.0 -245.0V-130.0H-52.0V164.0H-738.0V-245.0Z"/></g>
<g fill="green" transform="translate(1300 100) scale(0.1 -0.1)"><path d="M-0.0 0.0 -1.0 -67.0H196.0V2.0ZM-430.0 -484.0 -20.0 132.0 -137.0 -144.0 -547.0 -761.0ZM-516.0 -54.0V-299.0H-757.0V40.0H-370.0V-54.0Z"/></g>
<g fill="green" transform="translate(1400 100) scale(0.1 -0.1)"><path d="M0.0 0.0 -1.0 -196.0H139.0V3.0ZM-249.0 -637.0 34.0 -20.0 -285.0 -206.0 -569.0 -826.0ZM-511.0 -110.0V-416.0H-712.0V-85.0H-440.0V-110.0Z"/></g>
<g fill="green" transform="translate(1500 100) scale(0.1 -0.1)"><path d="M0.0 0.0 -2.0 -203.0 116.0 -202.0 119.0 3.0ZM-5.0 -247.0 383.0 -435.0 -88.0 -695.0 -474.0 -507.0ZM-487.0 428.0V159.0H-607.0V287.0H-262.0V428.0Z"/></g>
<g fill="green" transform="translate(1600 100) scale(0.1 -0.1)"><path d="M0.0 0.0 -3.0 -348.0H66.0L68.0 8.0ZM96.0 -436.0 369.0 -519.0 -134.0 -695.0 -400.0 -611.0ZM-519.0 411.0V70.0H-580.0V229.0H-327.0V411.0Z"/></g>
<g fill="green" transform="translate(100 200) scale(0.1 -0.1)"><path d="M-0.0 0.0 -2.0 -59.0H270.0L272.0 3.0ZM-403.0 -222.0 -39.0 -278.0 -51.0 -522.0 -414.0 -466.0ZM-979.0 113.0V-269.0H-595.0V436.0H-238.0V113.0Z"/></g>
<g fill="green" transform="translate(200 200) scale(0.1 -0.1)"><path d="M0.0 0.0 -2.0 -45.0 344.0 -44.0 345.0 7.0ZM-299.0 -306.0 -42.0 -397.0 -76.0 -562.0 -326.0 -472.0ZM-927.0 114.0V-336.0H-492.0V350.0H-202.0V114.0Z"/></g>
<g fill="green" transform="translate(300 200) scale(0.1 -0.1)"><path d="M0.0 0.0 -2.0 22.0H363.0L365.0 2.0ZM-183.0 -58.0 143.0 -372.0 101.0 -590.0 -222.0 -274.0ZM-695.0 -160.0V-9.0H-937.0V246.0H-288.0V-160.0Z"/></g>
<g fill="green" transform="translate(400 200) scale(0.1 -0.1)"><path d="M0.0 0.0 -2.0 -56.0 330.0 -55.0 331.0 5.0ZM-115.0 -202.0 121.0 -483.0 21.0 -630.0 -202.0 -348.0ZM-707.0 -210.0V-79.0H-908.0V94.0H-361.0V-210.0Z"/></g>
<g fill="green" transform="translate(500 200) scale(0.1 -0.1)"><path d="M-0.0 0.0 -1.0 272.0H329.0L330.0 2.0ZM-156.0 -143.0 192.0 -335.0 -42.0 -568.0 -389.0 -376.0ZM-600.0 254.0V-369.0H-830.0V261.0H-309.0V254.0Z"/></g>
<g fill="green" transform="translate(600 200) scale(0.1 -0.1)"><path d="M0.0 0.0 -1.0 166.0 275.0 165.0V4.0ZM-32.0 -292.0 213.0 -427.0 -67.0 -585.0 -306.0 -449.0ZM-634.0 230.0V-464.0H-750.0V137.0H-416.0V230.0Z"/></g>
<g fill="green" transform="translate(700 200) scale(0.1 -0.1)"><path d="M0.0 0.0 -1.0 58.0H17.0L19.0 2.0ZM-58.0 -156.0 242.0 -309.0 -138.0 -509.0 -435.0 -355.0ZM-783.0 11.0V-287.0H-850.0V433.0H-336.0V11.0Z"/></g>
<g fill="green" transform="translate(800 200) scale(0.1 -0.1)"><path d="M0.0 0.0 -2.0 -57.0H29.0L30.0 3.0ZM54.0 -324.0 270.0 -386.0 -137.0 -521.0 -342.0 -458.0ZM-723.0 -30.0V-396.0H-725.0V288.0H-379.0V-30.0Z"/></g>
<g fill="green" transform="translate(900 200) scale(0.1 -0.1)"><path d="M0.0 0.0 1.0 60.0H154.0L153.0 0.0ZM-85.0 -166.0 356.0 -235.0 -85.0 -530.0 -522.0 -460.0ZM-851.0 74.0V-223.0H-818.0V193.0H-209.0V74.0Z"/></g>
<g fill="green" transform="translate(1000 200) scale(0.1 -0.1)"><path d="M0.0 0.0 1.0 58.0H183.0L181.0 -2.0ZM-8.0 -279.0 304.0 -320.0 -152.0 -519.0 -454.0 -479.0ZM-844.0 77.0V-277.0H-744.0V101.0H-257.0V77.0Z"/></g>
<g fill="green" transform="translate(1100 200) scale(0.1 -0.1)"><path d="M0.0 0.0 1.0 3.0H290.0L289.0 1.0ZM156.0 -326.0 187.0 -360.0 -345.0 -382.0 -377.0 -349.0ZM-797.0 76.0V-248.0H-800.0V267.0H-249.0V76.0Z"/></g>
<g fill="green" transform="translate(1200 200) scale(0.1 -0.1)"><path d="M0.0 0.0 1.0 -10.0H292.0L290.0 1.0ZM156.0 -396.0 172.0 -383.0 -311.0 -397.0 -333.0 -413.0ZM-798.0 63.0V-299.0H-749.0V183.0H-303.0V63.0Z"/></g>
<g fill="green" transform="translate(1300 200) scale(0.1 -0.1)"><path d="M-0.0 0.0 1.0 -54.0H236.0L235.0 2.0ZM-89.0 -214.0 322.0 -280.0 -123.0 -554.0 -530.0 -488.0ZM-763.0 36.0V-298.0H-856.0V300.0H-330.0V36.0Z"/></g>
<g fill="green" transform="translate(1400 200) scale(0.1 -0.1)"><path d="M0.0 0.0 1.0 32.0H300.0L298.0 3.0ZM27.0 -267.0 322.0 -301.0 -144.0 -486.0 -425.0 -454.0ZM-720.0 66.0V-286.0H-731.0V256.0H-308.0V66.0Z"/></g>
<g fill="green" transform="translate(1500 200) scale(0.1 -0.1)"><path d="M0.0 0.0 -1.0 54.0H247.0L248.0 2.0ZM-92.0 -158.0 304.0 -270.0 -215.0 -531.0 -603.0 -419.0ZM-791.0 70.0V-228.0H-834.0V325.0H-293.0V70.0Z"/></g>
<g fill="green" transform="translate(1600 200) scale(0.1 -0.1)"><path d="M0.0 0.0 -1.0 -46.0 284.0 -45.0V4.0ZM22.0 -337.0 316.0 -313.0 -78.0 -489.0 -345.0 -516.0ZM-756.0 37.0V-321.0H-721.0V177.0H-306.0V37.0Z"/></g>
<g fill="green" transform="translate(100 300) scale(0.1 -0.1)"><path d="M0.0 0.0 -1.0 36.0H266.0L268.0 3.0ZM-27.0 -155.0 375.0 -291.0 -135.0 -559.0 -534.0 -423.0ZM-764.0 63.0V-260.0H-805.0V317.0H-273.0V63.0Z"/></g>
<g fill="green" transform="translate(200 300) scale(0.1 -0.1)"><path d="M0.0 0.0 -2.0 -41.0H251.0L252.0 5.0ZM-48.0 -333.0 239.0 -291.0 -143.0 -472.0 -418.0 -515.0ZM-777.0 39.0V-318.0H-747.0V218.0H-336.0V39.0Z"/></g>
<g fill="red" transform="translate(100 400) scale(0.1 -0.1)"><path d="M0.0 0.0V-600.0H30.0V0.0ZM435.0 -357.0V-715.0H463.0V-357.0ZM132.0 -346.0V-730.0H161.0V-376.0H604.0V-346.0Z"/></g>
<g fill="black" opacity=".8" transform="translate(100 400) scale(0.1 -0.1)"><path d="M0.0 0.0V-604.0H28.0L29.0 1.0ZM438.0 -352.0V-709.0L462.0 -710.0V-353.0ZM131.0 -344.0V-725.0H157.0V-383.0H608.0V-344.0Z"/></g>
<g fill="red" transform="translate(200 400) scale(0.1 -0.1)"><path d="M0.0 0.0V-702.0H98.0V0.0ZM414.0 -419.0V-775.0H513.0V-419.0ZM138.0 -371.0V-783.0H256.0V-491.0H608.0V-371.0Z"/></g>
<g fill="black" opacity=".8" transform="translate(200 400) scale(0.1 -0.1)"><path d="M0.0 0.0 -3.0 -698.0H99.0L100.0 -0.0ZM411.0 -424.0 409.0 -779.0H515.0L516.0 -424.0ZM141.0 -373.0V-787.0H262.0V-484.0H603.0V-373.0Z"/></g>
<g fill="red" transform="translate(300 400) scale(0.1 -0.1)"><path d="M0.0 0.0V-235.0H29.0V0.0ZM343.0 -45.0V-292.0H372.0V-45.0ZM-325.0 -42.0V-236.0H366.0V-205.0H-295.0V-42.0Z"/></g>
<g fill="black" opacity=".8" transform="translate(300 400) scale(0.1 -0.1)"><path d="M0.0 0.0 1.0 -234.0H37.0L38.0 0.0ZM338.0 -51.0 339.0 -290.0 367.0 -292.0V-53.0ZM-328.0 -52.0V-232.0H384.0V-208.0H-294.0V-52.0Z"/></g>
<g fill="red" transform="translate(400 400) scale(0.1 -0.1)"><path d="M0.0 0.0V-210.0H148.0V0.0ZM326.0 -50.0V-292.0H468.0V-50.0ZM-304.0 -46.0V-255.0H418.0V-146.0H-165.0V-46.0Z"/></g>
<g fill="black" opacity=".8" transform="translate(400 400) scale(0.1 -0.1)"><path d="M0.0 0.0 -2.0 -212.0H138.0L139.0 -1.0ZM329.0 -43.0 333.0 -292.0 474.0 -293.0 475.0 -44.0ZM-301.0 -39.0V-260.0H401.0V-139.0H-164.0V-39.0Z"/></g>
<g fill="red" transform="translate(500 400) scale(0.1 -0.1)"><path d="M0.0 0.0V-803.0H30.0V0.0ZM258.0 -215.0V-885.0H288.0V-215.0ZM-250.0 -216.0V-817.0H282.0V-787.0H-221.0V-216.0Z"/></g>
<g fill="black" opacity=".8" transform="translate(500 400) scale(0.1 -0.1)"><path d="M0.0 0.0 1.0 -804.0H28.0L29.0 1.0ZM256.0 -218.0V-879.0L282.0 -881.0L283.0 -220.0ZM-240.0 -224.0V-815.0H283.0V-790.0H-209.0V-224.0Z"/></g>
<g fill="red" transform="translate(600 400) scale(0.1 -0.1)"><path d="M0.0 0.0V-810.0H146.0V0.0ZM224.0 -210.0V-930.0H370.0V-210.0ZM-217.0 -218.0V-879.0H317.0V-745.0H-74.0V-218.0Z"/></g>
<g fill="black" opacity=".8" transform="translate(600 400) scale(0.1 -0.1)"><path d="M0.0 0.0 -2.0 -810.0H147.0V-0.0ZM225.0 -206.0 226.0 -933.0 376.0 -934.0 377.0 -206.0ZM-227.0 -214.0V-880.0H320.0V-739.0H-87.0V-214.0Z"/></g>
<g fill="red" transform="translate(700 400) scale(0.1 -0.1)"><path d="M0.0 0.0V-794.0H30.0V0.0ZM362.0 -187.0V-880.0H391.0V-187.0ZM-361.0 -186.0V-803.0H382.0V-774.0H-331.0V-186.0Z"/></g>
<g fill="black" opacity=".8" transform="translate(700 400) scale(0.1 -0.1)"><path d="M0.0 0.0 1.0 -780.0H27.0L28.0 0.0ZM364.0 -199.0V-877.0L390.0 -878.0L391.0 -200.0ZM-358.0 -205.0V-794.0H384.0V-778.0H-331.0V-205.0Z"/></g>
<g fill="red" transform="translate(800 400) scale(0.1 -0.1)"><path d="M0.0 0.0V-788.0H154.0V0.0ZM347.0 -210.0V-944.0H499.0V-210.0ZM-337.0 -215.0V-874.0H417.0V-724.0H-187.0V-215.0Z"/></g>
<g fill="black" opacity=".8" transform="translate(800 400) scale(0.1 -0.1)"><path d="M0.0 0.0 -2.0 -801.0H158.0V-1.0ZM346.0 -198.0V-946.0H499.0L500.0 -198.0ZM-339.0 -200.0V-881.0H417.0V-717.0H-187.0V-200.0Z"/></g>
<g fill="red" transform="translate(900 400) scale(0.1 -0.1)"><path d="M0.0 0.0V-605.0H28.0V0.0ZM146.0 -189.0V-219.0H491.0V-189.0ZM-265.0 -2.0V-569.0H20.0V-539.0H-236.0V-2.0Z"/></g>
<g fill="black" opacity=".8" transform="translate(900 400) scale(0.1 -0.1)"><path d="M0.0 0.0 1.0 -608.0H38.0V1.0ZM142.0 -194.0 141.0 -223.0 490.0 -226.0 488.0 -197.0ZM-265.0 -3.0V-563.0H20.0V-538.0H-229.0V-3.0Z"/></g>
<g fill="red" transform="translate(1000 400) scale(0.1 -0.1)"><path d="M0.0 0.0V-702.0H103.0V0.0ZM183.0 -203.0V-330.0H476.0V-203.0ZM-279.0 -3.0V-654.0H40.0V-530.0H-179.0V-3.0Z"/></g>
<g fill="black" opacity=".8" transform="translate(1000 400) scale(0.1 -0.1)"><path d="M0.0 0.0 -1.0 -700.0H93.0V-1.0ZM191.0 -196.0 183.0 -323.0 480.0 -324.0 479.0 -198.0ZM-281.0 -4.0V-658.0H45.0V-530.0H-186.0V-4.0Z"/></g>
<g fill="red" transform="translate(1100 400) scale(0.1 -0.1)"><path d="M0.0 0.0V-706.0H30.0V0.0ZM146.0 -160.0V-756.0H176.0V-160.0ZM-154.0 -154.0V-721.0H163.0V-691.0H-124.0V-154.0Z"/></g>
<g fill="black" opacity=".8" transform="translate(1100 400) scale(0.1 -0.1)"><path d="M0.0 0.0 1.0 -703.0 30.0 -702.0 31.0 1.0ZM138.0 -158.0 137.0 -762.0 178.0 -763.0 180.0 -159.0ZM-157.0 -155.0V-725.0H170.0V-692.0H-120.0V-155.0Z"/></g>
<g fill="red" transform="translate(1200 400) scale(0.1 -0.1)"><path d="M0.0 0.0V-725.0H126.0V0.0ZM154.0 -150.0V-852.0H272.0V-150.0ZM-145.0 -153.0V-804.0H221.0V-680.0H-29.0V-153.0Z"/></g>
<g fill="black" opacity=".8" transform="translate(1200 400) scale(0.1 -0.1)"><path d="M0.0 0.0 -1.0 -729.0H126.0V-0.0ZM161.0 -151.0 162.0 -844.0 270.0 -845.0 271.0 -151.0ZM-144.0 -153.0V-799.0H217.0V-679.0H-32.0V-153.0Z"/></g>
<g fill="red" transform="translate(1300 400) scale(0.1 -0.1)"><path d="M0.0 0.0V-705.0H25.0V0.0ZM134.0 -160.0V-756.0H163.0V-160.0ZM-138.0 -157.0V-724.0H147.0V-694.0H-109.0V-157.0Z"/></g>
<g fill="black" opacity=".8" transform="translate(1300 400) scale(0.1 -0.1)"><path d="M0.0 0.0 1.0 -708.0 31.0 -707.0V1.0ZM130.0 -157.0 129.0 -761.0H165.0L166.0 -158.0ZM-139.0 -155.0V-725.0H147.0V-691.0H-109.0V-155.0Z"/></g>
<g fill="red" transform="translate(1400 400) scale(0.1 -0.1)"><path d="M0.0 0.0V-738.0H130.0V0.0ZM153.0 -148.0V-850.0H256.0V-148.0ZM-126.0 -151.0V-802.0H193.0V-678.0H-26.0V-151.0Z"/></g>
<g fill="black" opacity=".8" transform="translate(1400 400) scale(0.1 -0.1)"><path d="M0.0 0.0 -1.0 -736.0H124.0V0.0ZM157.0 -150.0V-844.0H254.0L256.0 -150.0ZM-126.0 -153.0V-799.0H196.0V-682.0H-26.0V-153.0Z"/></g>
<g fill="red" transform="translate(1500 400) scale(0.1 -0.1)"><path d="M0.0 0.0V-701.0H29.0V0.0ZM129.0 -186.0V-768.0H159.0V-186.0ZM-126.0 -184.0V-712.0H150.0V-683.0H-96.0V-184.0Z"/></g>
<g fill="black" opacity=".8" transform="translate(1500 400) scale(0.1 -0.1)"><path d="M0.0 0.0 2.0 -698.0 21.0 -697.0V1.0ZM140.0 -190.0 139.0 -766.0H166.0L167.0 -191.0ZM-130.0 -180.0V-706.0H145.0V-671.0H-105.0V-180.0Z"/></g>
<g fill="red" transform="translate(1600 400) scale(0.1 -0.1)"><path d="M0.0 0.0V-675.0H109.0V0.0ZM133.0 -163.0V-807.0H239.0V-163.0ZM-127.0 -161.0V-736.0H180.0V-618.0H-22.0V-161.0Z"/></g>
<g fill="black" opacity=".8" transform="translate(1600 400) scale(0.1 -0.1)"><path d="M0.0 0.0 -1.0 -677.0H119.0V-0.0ZM124.0 -159.0 123.0 -807.0H231.0L233.0 -159.0ZM-120.0 -162.0V-740.0H187.0V-631.0H-15.0V-162.0Z"/></g>
<g fill="red" transform="translate(100 500) scale(0.1 -0.1)"><path d="M0.0 0.0V-318.0H30.0V0.0ZM340.0 -68.0V-385.0H370.0V-68.0ZM-332.0 -70.0V-328.0H355.0V-298.0H-302.0V-70.0Z"/></g>
<g fill="black" opacity=".8" transform="translate(100 500) scale(0.1 -0.1)"><path d="M0.0 0.0 1.0 -327.0 34.0 -328.0 35.0 0.0ZM339.0 -57.0V-385.0L372.0 -386.0L373.0 -57.0ZM-337.0 -62.0V-324.0H360.0V-298.0H-307.0V-62.0Z"/></g>
<g fill="red" transform="translate(200 500) scale(0.1 -0.1)"><path d="M0.0 0.0V-324.0H140.0V0.0ZM328.0 -38.0V-403.0H469.0V-38.0ZM-321.0 -44.0V-360.0H383.0V-231.0H-186.0V-44.0Z"/></g>
<g fill="black" opacity=".8" transform="translate(200 500) scale(0.1 -0.1)"><path d="M0.0 0.0 -2.0 -315.0 135.0 -314.0 136.0 -1.0ZM328.0 -49.0 330.0 -401.0H468.0L470.0 -49.0ZM-315.0 -50.0V-363.0H379.0V-231.0H-180.0V-50.0Z"/></g>
<g fill="red" transform="translate(300 500) scale(0.1 -0.1)"><path d="M0.0 0.0V-600.0H28.0V0.0ZM90.0 -181.0V-210.0H625.0V-181.0ZM-237.0 -3.0V-570.0H17.0V-540.0H-208.0V-3.0Z"/></g>
<g fill="black" opacity=".8" transform="translate(300 500) scale(0.1 -0.1)"><path d="M0.0 0.0 1.0 -596.0 27.0 -595.0 28.0 1.0ZM83.0 -177.0 81.0 -223.0 633.0 -225.0V-178.0ZM-241.0 -2.0V-567.0H21.0V-537.0H-212.0V-2.0Z"/></g>
<g fill="red" transform="translate(400 500) scale(0.1 -0.1)"><path d="M0.0 0.0V-702.0H93.0V0.0ZM108.0 -178.0V-316.0H667.0V-178.0ZM-261.0 1.0V-657.0H54.0V-533.0H-165.0V1.0Z"/></g>
<g fill="black" opacity=".8" transform="translate(400 500) scale(0.1 -0.1)"><path d="M0.0 0.0 -2.0 -706.0H95.0L96.0 -0.0ZM119.0 -181.0 113.0 -301.0 659.0 -302.0V-181.0ZM-258.0 0.0V-658.0H53.0V-536.0H-160.0V0.0Z"/></g>
<g fill="red" transform="translate(500 500) scale(0.1 -0.1)"><path d="M0.0 0.0V-596.0H29.0V0.0ZM316.0 177.0V-229.0H345.0V177.0ZM-258.0 6.0V-561.0H20.0V-531.0H-229.0V6.0Z"/></g>
<g fill="black" opacity=".8" transform="translate(500 500) scale(0.1 -0.1)"><path d="M0.0 0.0 1.0 -598.0H34.0L35.0 1.0ZM312.0 183.0 311.0 -234.0 347.0 -235.0 349.0 183.0ZM-261.0 4.0V-560.0H18.0V-532.0H-226.0V4.0Z"/></g>
<g fill="red" transform="translate(600 500) scale(0.1 -0.1)"><path d="M0.0 0.0V-702.0H103.0V0.0ZM298.0 165.0V-281.0H440.0V165.0ZM-279.0 -3.0V-654.0H40.0V-530.0H-179.0V-3.0Z"/></g>
<g fill="black" opacity=".8" transform="translate(600 500) scale(0.1 -0.1)"><path d="M0.0 0.0 -1.0 -700.0 98.0 -701.0V-1.0ZM302.0 159.0V-275.0H438.0L439.0 159.0ZM-277.0 -1.0V-653.0H46.0V-529.0H-181.0V-1.0Z"/></g>
<g fill="red" transform="translate(700 500) scale(0.1 -0.1)"><path d="M0.0 0.0V-600.0H30.0V0.0ZM115.0 -345.0V-375.0H534.0V-345.0ZM-249.0 -2.0V-569.0H16.0V-539.0H-219.0V-2.0Z"/></g>
<g fill="black" opacity=".8" transform="translate(700 500) scale(0.1 -0.1)"><path d="M0.0 0.0 1.0 -607.0H37.0V1.0ZM109.0 -341.0 108.0 -376.0 533.0 -379.0 530.0 -345.0ZM-249.0 -2.0V-567.0H24.0V-540.0H-213.0V-2.0Z"/></g>
<g fill="red" transform="translate(800 500) scale(0.1 -0.1)"><path d="M0.0 0.0V-702.0H100.0V0.0ZM153.0 -343.0V-485.0H509.0V-343.0ZM-266.0 2.0V-656.0H55.0V-532.0H-164.0V2.0Z"/></g>
<g fill="black" opacity=".8" transform="translate(800 500) scale(0.1 -0.1)"><path d="M0.0 0.0 -2.0 -696.0H92.0V-0.0ZM163.0 -344.0 154.0 -480.0 515.0 -482.0 513.0 -346.0ZM-266.0 1.0V-657.0H51.0V-530.0H-170.0V1.0Z"/></g>
<g fill="red" transform="translate(900 500) scale(0.1 -0.1)"><path d="M0.0 0.0V-296.0H30.0V0.0ZM326.0 -59.0V-350.0H355.0V-59.0ZM-315.0 -59.0V-306.0H340.0V-277.0H-286.0V-59.0Z"/></g>
<g fill="black" opacity=".8" transform="translate(900 500) scale(0.1 -0.1)"><path d="M0.0 0.0 1.0 -296.0 35.0 -297.0V0.0ZM323.0 -57.0V-354.0L358.0 -355.0L359.0 -58.0ZM-326.0 -54.0V-307.0H350.0V-274.0H-290.0V-54.0Z"/></g>
<g fill="red" transform="translate(1000 500) scale(0.1 -0.1)"><path d="M0.0 0.0V-261.0H148.0V0.0ZM313.0 -33.0V-362.0H463.0V-33.0ZM-312.0 -30.0V-331.0H383.0V-196.0H-162.0V-30.0Z"/></g>
<g fill="black" opacity=".8" transform="translate(1000 500) scale(0.1 -0.1)"><path d="M0.0 0.0 -1.0 -261.0 144.0 -260.0V-1.0ZM314.0 -34.0 317.0 -357.0H461.0L462.0 -35.0ZM-301.0 -33.0V-329.0H374.0V-199.0H-157.0V-33.0Z"/></g>
<g fill="red" transform="translate(1100 500) scale(0.1 -0.1)"><path d="M0.0 0.0V-600.0H30.0V0.0ZM76.0 -337.0V-367.0H610.0V-337.0ZM-257.0 -2.0V-569.0H12.0V-539.0H-227.0V-2.0Z"/></g>
<g fill="black" opacity=".8" transform="translate(1100 500) scale(0.1 -0.1)"><path d="M0.0 0.0 1.0 -599.0H25.0L26.0 1.0ZM71.0 -327.0 69.0 -372.0 616.0 -373.0V-328.0ZM-255.0 -3.0V-569.0H14.0V-538.0H-229.0V-3.0Z"/></g>
<g fill="red" transform="translate(1200 500) scale(0.1 -0.1)"><path d="M0.0 0.0V-702.0H93.0V0.0ZM104.0 -324.0V-454.0H658.0V-324.0ZM-267.0 2.0V-656.0H48.0V-532.0H-171.0V2.0Z"/></g>
<g fill="black" opacity=".8" transform="translate(1200 500) scale(0.1 -0.1)"><path d="M0.0 0.0 -2.0 -703.0 98.0 -702.0 99.0 0.0ZM112.0 -333.0 107.0 -447.0H652.0L653.0 -333.0ZM-269.0 3.0V-654.0H49.0V-533.0H-169.0V3.0Z"/></g>
<g fill="red" transform="translate(1300 500) scale(0.1 -0.1)"><path d="M0.0 0.0V-596.0H29.0V0.0ZM147.0 105.0V-668.0H176.0V105.0ZM-265.0 6.0V-561.0H21.0V-531.0H-235.0V6.0Z"/></g>
<g fill="black" opacity=".8" transform="translate(1300 500) scale(0.1 -0.1)"><path d="M0.0 0.0V-604.0H27.0L29.0 2.0ZM156.0 102.0 157.0 -652.0H168.0L169.0 102.0ZM-260.0 4.0V-560.0H23.0V-527.0H-231.0V4.0Z"/></g>
<g fill="red" transform="translate(1400 500) scale(0.1 -0.1)"><path d="M0.0 0.0V-702.0H102.0V0.0ZM158.0 67.0V-685.0H302.0V67.0ZM-261.0 -3.0V-654.0H56.0V-530.0H-163.0V-3.0Z"/></g>
<g fill="black" opacity=".8" transform="translate(1400 500) scale(0.1 -0.1)"><path d="M0.0 0.0 -2.0 -695.0H101.0L102.0 2.0ZM146.0 68.0 152.0 -699.0H310.0L311.0 69.0ZM-263.0 -2.0V-654.0H57.0V-531.0H-170.0V-2.0Z"/></g>
<g fill="red" transform="translate(1500 500) scale(0.1 -0.1)"><path d="M0.0 0.0V-596.0H30.0V0.0ZM162.0 -181.0V-548.0H191.0V-181.0ZM-254.0 6.0V-561.0H18.0V-531.0H-224.0V6.0Z"/></g>
<g fill="black" opacity=".8" transform="translate(1500 500) scale(0.1 -0.1)"><path d="M0.0 0.0 1.0 -605.0 36.0 -604.0 37.0 1.0ZM161.0 -173.0V-542.0L187.0 -543.0L188.0 -175.0ZM-255.0 4.0V-562.0H23.0V-532.0H-222.0V4.0Z"/></g>
<g fill="red" transform="translate(1600 500) scale(0.1 -0.1)"><path d="M0.0 0.0V-702.0H107.0V0.0ZM164.0 -199.0V-591.0H280.0V-199.0ZM-265.0 -3.0V-654.0H53.0V-530.0H-166.0V-3.0Z"/></g>
<g fill="black" opacity=".8" transform="translate(1600 500) scale(0.1 -0.1)"><path d="M0.0 0.0 -2.0 -695.0 99.0 -694.0V1.0ZM165.0 -206.0V-594.0L285.0 -595.0L286.0 -207.0ZM-263.0 -1.0V-653.0H50.0V-528.0H-168.0V-1.0Z"/></g>
<g fill="red" transform="translate(100 600) scale(0.1 -0.1)"><path d="M0.0 0.0V-596.0H29.0V0.0ZM150.0 -392.0V-422.0H486.0V-392.0ZM-272.0 6.0V-561.0H17.0V-531.0H-243.0V6.0Z"/></g>
<g fill="black" opacity=".8" transform="translate(100 600) scale(0.1 -0.1)"><path d="M0.0 0.0 1.0 -606.0H33.0V1.0ZM160.0 -383.0 159.0 -408.0 484.0 -410.0 483.0 -385.0ZM-271.0 2.0V-557.0H-0.0V-532.0H-239.0V2.0Z"/></g>
<g fill="red" transform="translate(200 600) scale(0.1 -0.1)"><path d="M0.0 0.0V-702.0H102.0V0.0ZM255.0 -380.0V-509.0H494.0V-380.0ZM-277.0 -1.0V-652.0H21.0V-528.0H-177.0V-1.0Z"/></g>
<g fill="black" opacity=".8" transform="translate(200 600) scale(0.1 -0.1)"><path d="M0.0 0.0 -1.0 -693.0H99.0V-1.0ZM249.0 -388.0 240.0 -519.0 498.0 -520.0V-389.0ZM-276.0 3.0V-652.0H41.0V-528.0H-184.0V3.0Z"/></g>
<g fill="red" transform="translate(300 600) scale(0.1 -0.1)"><path d="M0.0 0.0V-600.0H28.0V0.0ZM121.0 -333.0V-362.0H519.0V-333.0ZM-274.0 -3.0V-570.0H24.0V-540.0H-245.0V-3.0Z"/></g>
<g fill="black" opacity=".8" transform="translate(300 600) scale(0.1 -0.1)"><path d="M0.0 0.0 1.0 -607.0H23.0V1.0ZM124.0 -325.0 122.0 -356.0 519.0 -358.0 518.0 -327.0ZM-266.0 -3.0V-567.0H18.0V-539.0H-240.0V-3.0Z"/></g>
<g fill="red" transform="translate(400 600) scale(0.1 -0.1)"><path d="M0.0 0.0V-702.0H93.0V0.0ZM197.0 -320.0V-448.0H550.0V-320.0ZM-264.0 1.0V-657.0H51.0V-533.0H-168.0V1.0Z"/></g>
<g fill="black" opacity=".8" transform="translate(400 600) scale(0.1 -0.1)"><path d="M0.0 0.0 -1.0 -696.0H98.0V-1.0ZM197.0 -326.0 192.0 -451.0 552.0 -452.0V-327.0ZM-270.0 1.0V-658.0H60.0V-533.0H-176.0V1.0Z"/></g>
<g fill="red" transform="translate(500 600) scale(0.1 -0.1)"><path d="M0.0 0.0V-596.0H29.0V0.0ZM324.0 127.0V-724.0H354.0V127.0ZM-265.0 6.0V-561.0H21.0V-531.0H-235.0V6.0Z"/></g>
<g fill="black" opacity=".8" transform="translate(500 600) scale(0.1 -0.1)"><path d="M0.0 0.0V-601.0H35.0L37.0 1.0ZM322.0 125.0V-723.0L351.0 -724.0L352.0 125.0ZM-263.0 3.0V-559.0H18.0V-531.0H-227.0V3.0Z"/></g>
<g fill="red" transform="translate(600 600) scale(0.1 -0.1)"><path d="M0.0 0.0V-702.0H103.0V0.0ZM303.0 85.0V-784.0H437.0V85.0ZM-279.0 -3.0V-654.0H40.0V-530.0H-179.0V-3.0Z"/></g>
<g fill="black" opacity=".8" transform="translate(600 600) scale(0.1 -0.1)"><path d="M0.0 0.0 -2.0 -698.0 95.0 -699.0 96.0 1.0ZM303.0 85.0 305.0 -783.0H441.0L442.0 88.0ZM-282.0 -2.0V-654.0H47.0V-530.0H-187.0V-2.0Z"/></g>
<g fill="red" transform="translate(700 600) scale(0.1 -0.1)"><path d="M0.0 0.0V-600.0H29.0V0.0ZM122.0 -296.0V-326.0H551.0V-296.0ZM-226.0 -3.0V-570.0H17.0V-540.0H-197.0V-3.0Z"/></g>
<g fill="black" opacity=".8" transform="translate(700 600) scale(0.1 -0.1)"><path d="M0.0 0.0 1.0 -604.0H37.0L38.0 1.0ZM115.0 -300.0V-327.0L548.0 -331.0L545.0 -304.0ZM-226.0 -3.0V-569.0H32.0V-538.0H-192.0V-3.0Z"/></g>
<g fill="red" transform="translate(800 600) scale(0.1 -0.1)"><path d="M0.0 0.0V-702.0H103.0V0.0ZM159.0 -312.0V-436.0H529.0V-312.0ZM-242.0 0.0V-658.0H73.0V-534.0H-146.0V0.0Z"/></g>
<g fill="black" opacity=".8" transform="translate(800 600) scale(0.1 -0.1)"><path d="M0.0 0.0 -2.0 -699.0H92.0L93.0 -0.0ZM170.0 -305.0 162.0 -430.0 536.0 -433.0 534.0 -307.0ZM-243.0 -2.0V-660.0H61.0V-533.0H-150.0V-2.0Z"/></g>
<g fill="red" transform="translate(900 600) scale(0.1 -0.1)"><path d="M0.0 0.0V-340.0H30.0V0.0ZM325.0 -91.0V-408.0H354.0V-91.0ZM-321.0 -92.0V-350.0H341.0V-320.0H-292.0V-92.0Z"/></g>
<g fill="black" opacity=".8" transform="translate(900 600) scale(0.1 -0.1)"><path d="M0.0 0.0V-339.0H37.0L38.0 0.0ZM317.0 -91.0V-413.0L353.0 -414.0L354.0 -92.0ZM-326.0 -98.0V-352.0H350.0V-320.0H-287.0V-98.0Z"/></g>
<g fill="red" transform="translate(1000 600) scale(0.1 -0.1)"><path d="M0.0 0.0V-347.0H144.0V0.0ZM319.0 -98.0V-454.0H461.0V-98.0ZM-301.0 -102.0V-411.0H381.0V-275.0H-160.0V-102.0Z"/></g>
<g fill="black" opacity=".8" transform="translate(1000 600) scale(0.1 -0.1)"><path d="M0.0 0.0 -2.0 -349.0H136.0L137.0 -1.0ZM325.0 -97.0 328.0 -448.0H462.0L463.0 -98.0ZM-298.0 -97.0V-408.0H375.0V-274.0H-164.0V-97.0Z"/></g>
<g fill="red" transform="translate(1100 600) scale(0.1 -0.1)"><path d="M0.0 0.0V-419.0H29.0V-10.0ZM610.0 -490.0V-807.0H640.0V-490.0ZM-64.0 -504.0V-755.0H625.0V-725.0H-35.0V-504.0Z"/></g>
<g fill="black" opacity=".8" transform="translate(1100 600) scale(0.1 -0.1)"><path d="M0.0 0.0V-411.0L40.0 -412.0V-1.0ZM608.0 -494.0 607.0 -811.0 641.0 -812.0 643.0 -495.0ZM-72.0 -513.0V-760.0H615.0V-724.0H-28.0V-513.0Z"/></g>
<g fill="red" transform="translate(1200 600) scale(0.1 -0.1)"><path d="M0.0 0.0V-460.0H143.0V-23.0ZM584.0 -554.0V-887.0H726.0V-554.0ZM-61.0 -557.0V-852.0H632.0V-720.0H80.0V-557.0Z"/></g>
<g fill="black" opacity=".8" transform="translate(1200 600) scale(0.1 -0.1)"><path d="M0.0 0.0 -2.0 -468.0H134.0V-5.0ZM586.0 -549.0V-882.0H724.0L726.0 -550.0ZM-56.0 -550.0V-844.0H648.0V-723.0H72.0V-550.0Z"/></g>
<g fill="red" transform="translate(1300 600) scale(0.1 -0.1)"><path d="M0.0 0.0V-626.0H29.0V0.0ZM311.0 177.0V-339.0H341.0V177.0ZM-273.0 6.0V-574.0H13.0V-545.0H-243.0V6.0Z"/></g>
<g fill="black" opacity=".8" transform="translate(1300 600) scale(0.1 -0.1)"><path d="M0.0 0.0 1.0 -620.0H31.0L32.0 1.0ZM308.0 177.0 307.0 -346.0H345.0L347.0 178.0ZM-275.0 3.0V-572.0H7.0V-547.0H-241.0V3.0Z"/></g>
<g fill="red" transform="translate(1400 600) scale(0.1 -0.1)"><path d="M0.0 0.0V-712.0H103.0V0.0ZM301.0 155.0V-399.0H452.0V155.0ZM-287.0 -3.0V-668.0H30.0V-544.0H-189.0V-3.0Z"/></g>
<g fill="black" opacity=".8" transform="translate(1400 600) scale(0.1 -0.1)"><path d="M0.0 0.0 -1.0 -718.0H102.0V-1.0ZM304.0 154.0 305.0 -391.0H446.0L448.0 155.0ZM-287.0 0.0V-666.0H41.0V-543.0H-190.0V0.0Z"/></g>
<g fill="red" transform="translate(1500 600) scale(0.1 -0.1)"><path d="M0.0 0.0V-706.0H29.0V0.0ZM132.0 -160.0V-756.0H161.0V-160.0ZM-133.0 -154.0V-721.0H153.0V-691.0H-103.0V-154.0Z"/></g>
<g fill="black" opacity=".8" transform="translate(1500 600) scale(0.1 -0.1)"><path d="M0.0 0.0 1.0 -702.0H31.0L32.0 1.0ZM127.0 -158.0 125.0 -761.0 164.0 -762.0 165.0 -159.0ZM-134.0 -154.0V-725.0H154.0V-691.0H-102.0V-154.0Z"/></g>
<g fill="red" transform="translate(1600 600) scale(0.1 -0.1)"><path d="M0.0 0.0V-725.0H122.0V0.0ZM143.0 -150.0V-852.0H246.0V-150.0ZM-123.0 -153.0V-804.0H196.0V-680.0H-23.0V-153.0Z"/></g>
<g fill="black" opacity=".8" transform="translate(1600 600) scale(0.1 -0.1)"><path d="M0.0 0.0 -1.0 -729.0H120.0V0.0ZM149.0 -151.0 148.0 -846.0H243.0L244.0 -151.0ZM-124.0 -153.0V-798.0H199.0V-680.0H-23.0V-153.0Z"/></g>
<g fill="red" transform="translate(100 700) scale(0.1 -0.1)"><path d="M0.0 0.0V-600.0H29.0V0.0ZM156.0 -307.0V-336.0H629.0V-307.0ZM-237.0 -2.0V-569.0H21.0V-539.0H-207.0V-2.0Z"/></g>
<g fill="black" opacity=".8" transform="translate(100 700) scale(0.1 -0.1)"><path d="M0.0 0.0 1.0 -599.0H27.0V1.0ZM156.0 -298.0 154.0 -338.0 635.0 -339.0V-299.0ZM-241.0 -2.0V-568.0H20.0V-539.0H-213.0V-2.0Z"/></g>
<g fill="red" transform="translate(200 700) scale(0.1 -0.1)"><path d="M0.0 0.0V-702.0H93.0V0.0ZM203.0 -296.0V-423.0H668.0V-296.0ZM-261.0 2.0V-656.0H54.0V-532.0H-165.0V2.0Z"/></g>
<g fill="black" opacity=".8" transform="translate(200 700) scale(0.1 -0.1)"><path d="M0.0 0.0 -2.0 -703.0 96.0 -702.0 97.0 -1.0ZM207.0 -304.0 200.0 -419.0 662.0 -420.0 663.0 -305.0ZM-256.0 3.0V-655.0H58.0V-533.0H-159.0V3.0Z"/></g>
<g fill="red" transform="translate(300 700) scale(0.1 -0.1)"><path d="M0.0 0.0V-596.0H29.0V0.0ZM124.0 -168.0V-605.0H154.0V-168.0ZM-272.0 6.0V-561.0H17.0V-531.0H-243.0V6.0Z"/></g>
<g fill="black" opacity=".8" transform="translate(300 700) scale(0.1 -0.1)"><path d="M0.0 0.0 1.0 -608.0H28.0L29.0 1.0ZM130.0 -155.0 129.0 -590.0 149.0 -591.0 150.0 -156.0ZM-268.0 4.0V-562.0H10.0V-533.0H-237.0V4.0Z"/></g>
<g fill="red" transform="translate(400 700) scale(0.1 -0.1)"><path d="M0.0 0.0V-702.0H93.0V0.0ZM133.0 -171.0V-626.0H246.0V-171.0ZM-272.0 -1.0V-652.0H26.0V-528.0H-172.0V-1.0Z"/></g>
<g fill="black" opacity=".8" transform="translate(400 700) scale(0.1 -0.1)"><path d="M0.0 0.0 -2.0 -691.0H93.0V1.0ZM126.0 -184.0V-638.0H252.0L253.0 -185.0ZM-274.0 1.0V-649.0H36.0V-526.0H-180.0V1.0Z"/></g>
<g fill="red" transform="translate(500 700) scale(0.1 -0.1)"><path d="M0.0 0.0V-706.0H29.0V0.0ZM132.0 -160.0V-756.0H161.0V-160.0ZM-133.0 -154.0V-721.0H153.0V-691.0H-103.0V-154.0Z"/></g>
<g fill="black" opacity=".8" transform="translate(500 700) scale(0.1 -0.1)"><path d="M0.0 0.0 1.0 -701.0H32.0L33.0 1.0ZM128.0 -158.0 127.0 -761.0H165.0L167.0 -158.0ZM-136.0 -154.0V-724.0H151.0V-691.0H-104.0V-154.0Z"/></g>
<g fill="red" transform="translate(600 700) scale(0.1 -0.1)"><path d="M0.0 0.0V-725.0H124.0V0.0ZM148.0 -150.0V-852.0H251.0V-150.0ZM-127.0 -153.0V-804.0H192.0V-680.0H-27.0V-153.0Z"/></g>
<g fill="black" opacity=".8" transform="translate(600 700) scale(0.1 -0.1)"><path d="M0.0 0.0 -1.0 -730.0H122.0V0.0ZM152.0 -152.0V-846.0H247.0L248.0 -152.0ZM-126.0 -153.0V-799.0H197.0V-681.0H-25.0V-153.0Z"/></g>
<g fill="red" transform="translate(700 700) scale(0.1 -0.1)"><path d="M0.0 0.0V-600.0H30.0V0.0ZM249.0 -191.0V-549.0H279.0V-191.0ZM-249.0 -3.0V-570.0H12.0V-540.0H-220.0V-3.0Z"/></g>
<g fill="black" opacity=".8" transform="translate(700 700) scale(0.1 -0.1)"><path d="M0.0 0.0 1.0 -603.0H29.0L30.0 1.0ZM253.0 -197.0 254.0 -544.0 277.0 -545.0V-199.0ZM-250.0 2.0V-566.0H16.0V-536.0H-219.0V2.0Z"/></g>
<g fill="red" transform="translate(800 700) scale(0.1 -0.1)"><path d="M0.0 0.0V-702.0H93.0V0.0ZM283.0 -238.0V-603.0H365.0V-238.0ZM-261.0 1.0V-657.0H54.0V-533.0H-165.0V1.0Z"/></g>
<g fill="black" opacity=".8" transform="translate(800 700) scale(0.1 -0.1)"><path d="M0.0 0.0 -1.0 -700.0H93.0L94.0 -0.0ZM279.0 -232.0 278.0 -606.0 368.0 -607.0V-232.0ZM-258.0 -3.0V-660.0H52.0V-535.0H-168.0V-3.0Z"/></g>
<g fill="red" transform="translate(900 700) scale(0.1 -0.1)"><path d="M0.0 0.0V-600.0H28.0V0.0ZM286.0 -231.0V-260.0H551.0V-231.0ZM-237.0 -3.0V-570.0H17.0V-540.0H-208.0V-3.0Z"/></g>
<g fill="black" opacity=".8" transform="translate(900 700) scale(0.1 -0.1)"><path d="M0.0 0.0 1.0 -599.0H30.0V0.0ZM289.0 -235.0 288.0 -264.0 556.0 -266.0 555.0 -238.0ZM-243.0 1.0V-562.0H14.0V-536.0H-209.0V1.0Z"/></g>
<g fill="red" transform="translate(1000 700) scale(0.1 -0.1)"><path d="M0.0 0.0V-702.0H93.0V0.0ZM370.0 -254.0V-374.0H578.0V-254.0ZM-261.0 1.0V-657.0H54.0V-533.0H-165.0V1.0Z"/></g>
<g fill="black" opacity=".8" transform="translate(1000 700) scale(0.1 -0.1)"><path d="M0.0 0.0 -1.0 -703.0H93.0V-2.0ZM372.0 -248.0 364.0 -368.0 575.0 -369.0V-249.0ZM-254.0 -2.0V-663.0H59.0V-538.0H-164.0V-2.0Z"/></g>
<g fill="red" transform="translate(1100 700) scale(0.1 -0.1)"><path d="M0.0 0.0V-600.0H29.0V0.0ZM328.0 172.0V-172.0H357.0V172.0ZM-237.0 -2.0V-569.0H21.0V-539.0H-207.0V-2.0Z"/></g>
<g fill="black" opacity=".8" transform="translate(1100 700) scale(0.1 -0.1)"><path d="M0.0 0.0 2.0 -602.0H29.0V1.0ZM326.0 179.0 325.0 -176.0H360.0L362.0 178.0ZM-241.0 1.0V-568.0H24.0V-539.0H-208.0V1.0Z"/></g>
<g fill="red" transform="translate(1200 700) scale(0.1 -0.1)"><path d="M0.0 0.0V-702.0H93.0V0.0ZM311.0 165.0V-213.0H453.0V165.0ZM-261.0 2.0V-656.0H54.0V-532.0H-165.0V2.0Z"/></g>
<g fill="black" opacity=".8" transform="translate(1200 700) scale(0.1 -0.1)"><path d="M0.0 0.0 -1.0 -700.0H94.0V-1.0ZM314.0 159.0 313.0 -208.0H450.0L451.0 159.0ZM-257.0 -0.0V-656.0H54.0V-532.0H-163.0V-0.0Z"/></g>
<g fill="red" transform="translate(1300 700) scale(0.1 -0.1)"><path d="M0.0 0.0V-260.0H29.0V0.0ZM-48.0 122.0V92.0H424.0V122.0ZM-184.0 241.0V-359.0H-155.0V212.0H540.0V241.0Z"/></g>
<g fill="black" opacity=".8" transform="translate(1300 700) scale(0.1 -0.1)"><path d="M0.0 0.0V-260.0L41.0 -259.0L42.0 2.0ZM-44.0 116.0 -45.0 91.0 426.0 89.0 425.0 115.0ZM-194.0 243.0V-364.0H-165.0V222.0H542.0V243.0Z"/></g>
<g fill="red" transform="translate(1400 700) scale(0.1 -0.1)"><path d="M0.0 0.0V-293.0H129.0V0.0ZM-24.0 129.0V26.0H436.0V129.0ZM-198.0 275.0V-400.0H-59.0V155.0H520.0V275.0Z"/></g>
<g fill="black" opacity=".8" transform="translate(1400 700) scale(0.1 -0.1)"><path d="M0.0 0.0 -2.0 -295.0H117.0L118.0 3.0ZM-24.0 135.0 -31.0 30.0 435.0 29.0 434.0 134.0ZM-189.0 274.0V-392.0H-44.0V143.0H516.0V274.0Z"/></g>
<g fill="red" transform="translate(1500 700) scale(0.1 -0.1)"><path d="M0.0 0.0V-379.0H30.0V0.0ZM444.0 -459.0V-791.0H474.0V-459.0ZM-223.0 -458.0V-737.0H466.0V-707.0H-194.0V-458.0Z"/></g>
<g fill="black" opacity=".8" transform="translate(1500 700) scale(0.1 -0.1)"><path d="M0.0 0.0 2.0 -396.0 17.0 -397.0 16.0 -1.0ZM460.0 -450.0 459.0 -777.0 476.0 -778.0 478.0 -450.0ZM-220.0 -439.0V-730.0H464.0V-692.0H-203.0V-439.0Z"/></g>
<g fill="red" transform="translate(1600 700) scale(0.1 -0.1)"><path d="M0.0 0.0V-333.0H147.0V0.0ZM441.0 -402.0V-767.0H582.0V-402.0ZM-188.0 -407.0V-731.0H504.0V-605.0H-51.0V-407.0Z"/></g>
<g fill="black" opacity=".8" transform="translate(1600 700) scale(0.1 -0.1)"><path d="M0.0 0.0V-315.0H162.0L160.0 -6.0ZM424.0 -412.0 428.0 -778.0H581.0L582.0 -412.0ZM-185.0 -421.0V-736.0H507.0V-619.0H-47.0V-421.0Z"/></g>
<g fill="red" transform="translate(100 800) scale(0.1 -0.1)"><path d="M0.0 0.0V-717.0H28.0V0.0ZM117.0 -160.0V-760.0H145.0V-160.0ZM-120.0 -163.0V-730.0H134.0V-700.0H-91.0V-163.0Z"/></g>
<g fill="black" opacity=".8" transform="translate(100 800) scale(0.1 -0.1)"><path d="M0.0 0.0 1.0 -718.0H29.0V1.0ZM116.0 -158.0 115.0 -762.0 149.0 -763.0 150.0 -159.0ZM-126.0 -156.0V-731.0H142.0V-695.0H-96.0V-156.0Z"/></g>
<g fill="red" transform="translate(200 800) scale(0.1 -0.1)"><path d="M0.0 0.0V-748.0H119.0V0.0ZM142.0 -150.0V-852.0H235.0V-150.0ZM-119.0 -149.0V-807.0H196.0V-683.0H-23.0V-149.0Z"/></g>
<g fill="black" opacity=".8" transform="translate(200 800) scale(0.1 -0.1)"><path d="M0.0 0.0 -1.0 -747.0H119.0V0.0ZM143.0 -151.0 144.0 -848.0H232.0L233.0 -152.0ZM-113.0 -155.0V-805.0H190.0V-688.0H-17.0V-155.0Z"/></g>
<g fill="red" transform="translate(300 800) scale(0.1 -0.1)"><path d="M0.0 0.0V-706.0H29.0V0.0ZM145.0 -160.0V-769.0H174.0V-160.0ZM-135.0 -154.0V-721.0H161.0V-691.0H-105.0V-154.0Z"/></g>
<g fill="black" opacity=".8" transform="translate(300 800) scale(0.1 -0.1)"><path d="M0.0 0.0 1.0 -702.0H33.0L34.0 1.0ZM146.0 -156.0 145.0 -767.0H176.0L177.0 -157.0ZM-137.0 -154.0V-726.0H154.0V-693.0H-108.0V-154.0Z"/></g>
<g fill="red" transform="translate(400 800) scale(0.1 -0.1)"><path d="M0.0 0.0V-725.0H124.0V0.0ZM154.0 -148.0V-840.0H257.0V-148.0ZM-131.0 -151.0V-802.0H186.0V-678.0H-33.0V-151.0Z"/></g>
<g fill="black" opacity=".8" transform="translate(400 800) scale(0.1 -0.1)"><path d="M0.0 0.0 -1.0 -728.0 121.0 -729.0V0.0ZM153.0 -151.0V-840.0L255.0 -841.0L256.0 -151.0ZM-130.0 -151.0V-795.0H196.0V-677.0H-30.0V-151.0Z"/></g>
<g fill="red" transform="translate(500 800) scale(0.1 -0.1)"><path d="M0.0 0.0V-596.0H29.0V0.0ZM324.0 177.0V-131.0H354.0V177.0ZM-272.0 6.0V-561.0H17.0V-531.0H-243.0V6.0Z"/></g>
<g fill="black" opacity=".8" transform="translate(500 800) scale(0.1 -0.1)"><path d="M0.0 0.0 1.0 -599.0H35.0V1.0ZM314.0 181.0 313.0 -143.0H355.0L357.0 181.0ZM-268.0 3.0V-559.0H9.0V-533.0H-231.0V3.0Z"/></g>
<g fill="red" transform="translate(600 800) scale(0.1 -0.1)"><path d="M0.0 0.0V-702.0H102.0V0.0ZM295.0 165.0V-195.0H436.0V165.0ZM-277.0 -1.0V-652.0H21.0V-528.0H-177.0V-1.0Z"/></g>
<g fill="black" opacity=".8" transform="translate(600 800) scale(0.1 -0.1)"><path d="M0.0 0.0 -1.0 -700.0H97.0V-1.0ZM305.0 161.0 303.0 -182.0H434.0L435.0 161.0ZM-285.0 -0.0V-651.0H35.0V-527.0H-189.0V-0.0Z"/></g>
<g fill="red" transform="translate(700 800) scale(0.1 -0.1)"><path d="M0.0 0.0V-600.0H29.0V0.0ZM201.0 -647.0V-676.0H554.0V-647.0ZM-237.0 -2.0V-569.0H21.0V-539.0H-207.0V-2.0Z"/></g>
<g fill="black" opacity=".8" transform="translate(700 800) scale(0.1 -0.1)"><path d="M0.0 0.0 1.0 -611.0 32.0 -610.0V1.0ZM206.0 -627.0 204.0 -661.0 552.0 -663.0 550.0 -630.0ZM-239.0 -3.0V-572.0H21.0V-545.0H-210.0V-3.0Z"/></g>
<g fill="red" transform="translate(800 800) scale(0.1 -0.1)"><path d="M0.0 0.0V-702.0H93.0V0.0ZM266.0 -623.0V-748.0H537.0V-623.0ZM-261.0 2.0V-656.0H54.0V-532.0H-165.0V2.0Z"/></g>
<g fill="black" opacity=".8" transform="translate(800 800) scale(0.1 -0.1)"><path d="M0.0 0.0 -1.0 -692.0 90.0 -691.0V-1.0ZM267.0 -641.0 256.0 -759.0 542.0 -760.0 541.0 -642.0ZM-257.0 4.0V-652.0H55.0V-526.0H-163.0V4.0Z"/></g>
<g fill="red" transform="translate(900 800) scale(0.1 -0.1)"><path d="M0.0 0.0V-600.0H28.0V0.0ZM332.0 -237.0V-731.0H361.0V-237.0ZM-241.0 -3.0V-570.0H13.0V-540.0H-212.0V-3.0Z"/></g>
<g fill="black" opacity=".8" transform="translate(900 800) scale(0.1 -0.1)"><path d="M0.0 0.0 1.0 -601.0 30.0 -600.0 31.0 1.0ZM326.0 -237.0V-735.0L362.0 -737.0V-239.0ZM-241.0 -0.0V-570.0H20.0V-539.0H-210.0V-0.0Z"/></g>
<g fill="red" transform="translate(1000 800) scale(0.1 -0.1)"><path d="M0.0 0.0V-702.0H93.0V0.0ZM309.0 -285.0V-785.0H453.0V-285.0ZM-261.0 1.0V-657.0H54.0V-533.0H-165.0V1.0Z"/></g>
<g fill="black" opacity=".8" transform="translate(1000 800) scale(0.1 -0.1)"><path d="M0.0 0.0 -2.0 -702.0H90.0V0.0ZM315.0 -284.0 314.0 -779.0 453.0 -780.0 454.0 -284.0ZM-262.0 -3.0V-656.0H50.0V-532.0H-166.0V-3.0Z"/></g>
<g fill="red" transform="translate(1100 800) scale(0.1 -0.1)"><path d="M0.0 0.0V-706.0H29.0V0.0ZM132.0 -160.0V-756.0H161.0V-160.0ZM-133.0 -154.0V-721.0H153.0V-691.0H-103.0V-154.0Z"/></g>
<g fill="black" opacity=".8" transform="translate(1100 800) scale(0.1 -0.1)"><path d="M0.0 0.0 1.0 -701.0 30.0 -700.0 31.0 1.0ZM126.0 -159.0 125.0 -763.0H165.0L167.0 -160.0ZM-135.0 -154.0V-724.0H153.0V-690.0H-102.0V-154.0Z"/></g>
<g fill="red" transform="translate(1200 800) scale(0.1 -0.1)"><path d="M0.0 0.0V-725.0H120.0V0.0ZM143.0 -154.0V-855.0H253.0V-154.0ZM-125.0 -153.0V-804.0H196.0V-680.0H-23.0V-153.0Z"/></g>
<g fill="black" opacity=".8" transform="translate(1200 800) scale(0.1 -0.1)"><path d="M0.0 0.0 -1.0 -730.0H120.0V0.0ZM149.0 -154.0 148.0 -847.0H248.0L250.0 -154.0ZM-125.0 -153.0V-799.0H199.0V-681.0H-23.0V-153.0Z"/></g>
<g fill="red" transform="translate(1300 800) scale(0.1 -0.1)"><path d="M0.0 0.0V-600.0H29.0V0.0ZM67.0 -198.0V-228.0H633.0V-198.0ZM-236.0 -2.0V-569.0H21.0V-539.0H-207.0V-2.0Z"/></g>
<g fill="black" opacity=".8" transform="translate(1300 800) scale(0.1 -0.1)"><path d="M0.0 0.0 1.0 -598.0H23.0V1.0ZM69.0 -193.0 67.0 -230.0 639.0 -231.0 640.0 -194.0ZM-234.0 -2.0V-567.0H14.0V-536.0H-209.0V-2.0Z"/></g>
<g fill="red" transform="translate(1400 800) scale(0.1 -0.1)"><path d="M0.0 0.0V-702.0H92.0V0.0ZM121.0 -186.0V-313.0H684.0V-186.0ZM-245.0 2.0V-656.0H43.0V-532.0H-151.0V2.0Z"/></g>
<g fill="black" opacity=".8" transform="translate(1400 800) scale(0.1 -0.1)"><path d="M0.0 0.0 -2.0 -704.0 99.0 -703.0 100.0 -0.0ZM122.0 -191.0 118.0 -309.0 678.0 -310.0 679.0 -191.0ZM-245.0 3.0V-655.0H54.0V-536.0H-150.0V3.0Z"/></g>
<g fill="red" transform="translate(1500 800) scale(0.1 -0.1)"><path d="M0.0 0.0V-520.0H30.0V0.0ZM425.0 -589.0V-774.0H454.0V-589.0ZM-81.0 -595.0V-739.0H441.0V-710.0H-52.0V-595.0Z"/></g>
<g fill="black" opacity=".8" transform="translate(1500 800) scale(0.1 -0.1)"><path d="M0.0 0.0V-515.0H50.0L51.0 -0.0ZM416.0 -588.0 414.0 -783.0 456.0 -784.0V-589.0ZM-96.0 -596.0V-748.0H439.0V-714.0H-47.0V-596.0Z"/></g>
<g fill="red" transform="translate(1600 800) scale(0.1 -0.1)"><path d="M0.0 0.0V-549.0H144.0V0.0ZM347.0 -637.0V-853.0H478.0V-637.0ZM-90.0 -637.0V-827.0H446.0V-719.0H41.0V-637.0Z"/></g>
<g fill="black" opacity=".8" transform="translate(1600 800) scale(0.1 -0.1)"><path d="M0.0 0.0 -2.0 -555.0 124.0 -554.0 125.0 -4.0ZM358.0 -637.0 354.0 -843.0H478.0V-638.0ZM-79.0 -637.0V-816.0H453.0V-716.0H38.0V-637.0Z"/></g>
<g fill="red" transform="translate(100 900) scale(0.1 -0.1)"><path d="M0.0 0.0V-600.0H29.0V0.0ZM262.0 -353.0 244.0 -382.0H536.0V-353.0ZM-221.0 -2.0V-569.0H14.0V-539.0H-191.0V-2.0Z"/></g>
<g fill="black" opacity=".8" transform="translate(100 900) scale(0.1 -0.1)"><path d="M0.0 0.0 1.0 -607.0 34.0 -606.0V1.0ZM257.0 -343.0 240.0 -383.0 529.0 -376.0 543.0 -336.0ZM-223.0 -3.0V-573.0H19.0V-544.0H-190.0V-3.0Z"/></g>
<g fill="red" transform="translate(200 900) scale(0.1 -0.1)"><path d="M0.0 0.0V-702.0H93.0V0.0ZM297.0 -337.0 231.0 -448.0H536.0V-337.0ZM-249.0 2.0V-656.0H48.0V-532.0H-153.0V2.0Z"/></g>
<g fill="black" opacity=".8" transform="translate(200 900) scale(0.1 -0.1)"><path d="M0.0 0.0 -1.0 -696.0H87.0V-1.0ZM278.0 -353.0 258.0 -452.0 532.0 -446.0 542.0 -347.0ZM-248.0 2.0V-652.0H45.0V-526.0H-153.0V2.0Z"/></g>
<g fill="red" transform="translate(300 900) scale(0.1 -0.1)"><path d="M0.0 0.0V-706.0H29.0V0.0ZM118.0 -155.0V-755.0H147.0V-155.0ZM-119.0 -157.0V-724.0H139.0V-694.0H-89.0V-157.0Z"/></g>
<g fill="black" opacity=".8" transform="translate(300 900) scale(0.1 -0.1)"><path d="M0.0 0.0 1.0 -707.0 31.0 -706.0V1.0ZM116.0 -153.0 115.0 -758.0 150.0 -759.0 151.0 -154.0ZM-125.0 -151.0V-725.0H145.0V-690.0H-93.0V-151.0Z"/></g>
<g fill="red" transform="translate(400 900) scale(0.1 -0.1)"><path d="M0.0 0.0V-743.0H118.0V0.0ZM142.0 -150.0V-852.0H235.0V-150.0ZM-119.0 -148.0V-806.0H196.0V-682.0H-23.0V-148.0Z"/></g>
<g fill="black" opacity=".8" transform="translate(400 900) scale(0.1 -0.1)"><path d="M0.0 0.0 -1.0 -742.0 117.0 -743.0V0.0ZM144.0 -151.0V-847.0L232.0 -848.0L233.0 -151.0ZM-114.0 -153.0V-804.0H192.0V-686.0H-18.0V-153.0Z"/></g>
<g fill="red" transform="translate(500 900) scale(0.1 -0.1)"><path d="M0.0 0.0V-582.0H30.0V0.0ZM332.0 -361.0V-652.0H362.0V-361.0ZM-255.0 2.0V-526.0H21.0V-497.0H-225.0V2.0Z"/></g>
<g fill="black" opacity=".8" transform="translate(500 900) scale(0.1 -0.1)"><path d="M0.0 0.0 1.0 -580.0H29.0V1.0ZM333.0 -366.0 332.0 -656.0H365.0L366.0 -367.0ZM-250.0 -4.0V-519.0H16.0V-490.0H-224.0V-4.0Z"/></g>
<g fill="red" transform="translate(600 900) scale(0.1 -0.1)"><path d="M0.0 0.0V-644.0H100.0V0.0ZM326.0 -398.0V-677.0H462.0V-398.0ZM-257.0 2.0V-573.0H42.0V-455.0H-159.0V2.0Z"/></g>
<g fill="black" opacity=".8" transform="translate(600 900) scale(0.1 -0.1)"><path d="M0.0 0.0 -1.0 -646.0H102.0V-0.0ZM326.0 -393.0 325.0 -672.0H458.0L460.0 -393.0ZM-262.0 7.0V-577.0H51.0V-462.0H-161.0V7.0Z"/></g>
<g fill="red" transform="translate(700 900) scale(0.1 -0.1)"><path d="M0.0 0.0V-600.0H30.0V0.0ZM330.0 173.0V-731.0H360.0V173.0ZM-226.0 -3.0V-570.0H18.0V-540.0H-197.0V-3.0Z"/></g>
<g fill="black" opacity=".8" transform="translate(700 900) scale(0.1 -0.1)"><path d="M0.0 0.0 1.0 -611.0 27.0 -610.0 28.0 1.0ZM328.0 181.0V-727.0L358.0 -728.0L359.0 181.0ZM-226.0 -1.0V-570.0H28.0V-537.0H-194.0V-1.0Z"/></g>
<g fill="red" transform="translate(800 900) scale(0.1 -0.1)"><path d="M0.0 0.0V-702.0H93.0V0.0ZM320.0 164.0V-786.0H449.0V164.0ZM-241.0 1.0V-657.0H74.0V-533.0H-145.0V1.0Z"/></g>
<g fill="black" opacity=".8" transform="translate(800 900) scale(0.1 -0.1)"><path d="M0.0 0.0 -2.0 -692.0 94.0 -693.0 95.0 1.0ZM320.0 154.0 323.0 -788.0H452.0L453.0 157.0ZM-240.0 -0.0V-657.0H67.0V-534.0H-149.0V-0.0Z"/></g>
<g fill="red" transform="translate(900 900) scale(0.1 -0.1)"><path d="M0.0 0.0V-600.0H29.0V0.0ZM157.0 -332.0V-619.0H186.0V-332.0ZM-244.0 -3.0V-570.0H10.0V-540.0H-215.0V-3.0Z"/></g>
<g fill="black" opacity=".8" transform="translate(900 900) scale(0.1 -0.1)"><path d="M0.0 0.0 1.0 -608.0H30.0L31.0 1.0ZM157.0 -324.0V-612.0L184.0 -613.0V-326.0ZM-247.0 1.0V-571.0H20.0V-540.0H-216.0V1.0Z"/></g>
<g fill="red" transform="translate(1000 900) scale(0.1 -0.1)"><path d="M0.0 0.0V-702.0H93.0V0.0ZM156.0 -353.0V-655.0H267.0V-353.0ZM-261.0 1.0V-657.0H54.0V-533.0H-165.0V1.0Z"/></g>
<g fill="black" opacity=".8" transform="translate(1000 900) scale(0.1 -0.1)"><path d="M0.0 0.0 -2.0 -695.0H90.0V1.0ZM157.0 -359.0 155.0 -659.0 271.0 -660.0 272.0 -361.0ZM-257.0 -2.0V-656.0H45.0V-531.0H-164.0V-2.0Z"/></g>
<g fill="red" transform="translate(1100 900) scale(0.1 -0.1)"><path d="M0.0 0.0V-602.0H29.0V0.0ZM360.0 -410.0V-439.0H568.0V-410.0ZM-277.0 -1.0V-571.0H21.0V-541.0H-248.0V-1.0Z"/></g>
<g fill="black" opacity=".8" transform="translate(1100 900) scale(0.1 -0.1)"><path d="M0.0 0.0 2.0 -615.0 19.0 -614.0 18.0 -0.0ZM366.0 -389.0 365.0 -426.0H567.0L568.0 -390.0ZM-270.0 -5.0V-570.0H14.0V-544.0H-243.0V-5.0Z"/></g>
<g fill="red" transform="translate(1200 900) scale(0.1 -0.1)"><path d="M0.0 0.0V-712.0H103.0V0.0ZM479.0 -377.0V-498.0H652.0V-377.0ZM-259.0 0.0V-659.0H74.0V-541.0H-155.0V0.0Z"/></g>
<g fill="black" opacity=".8" transform="translate(1200 900) scale(0.1 -0.1)"><path d="M0.0 0.0V-700.0H115.0L114.0 -3.0ZM474.0 -397.0 471.0 -509.0H654.0L655.0 -398.0ZM-263.0 4.0V-658.0H83.0V-538.0H-163.0V4.0Z"/></g>
<g fill="red" transform="translate(1300 900) scale(0.1 -0.1)"><path d="M0.0 0.0V-600.0H30.0V0.0ZM361.0 -317.0V-670.0H390.0V-317.0ZM-255.0 -2.0V-569.0H14.0V-539.0H-225.0V-2.0Z"/></g>
<g fill="black" opacity=".8" transform="translate(1300 900) scale(0.1 -0.1)"><path d="M0.0 0.0 1.0 -596.0H27.0V1.0ZM363.0 -329.0V-674.0H392.0L393.0 -330.0ZM-249.0 1.0V-564.0H6.0V-533.0H-220.0V1.0Z"/></g>
<g fill="red" transform="translate(1400 900) scale(0.1 -0.1)"><path d="M0.0 0.0V-702.0H94.0V0.0ZM388.0 -390.0V-723.0H514.0V-390.0ZM-255.0 2.0V-652.0H39.0V-528.0H-159.0V2.0Z"/></g>
<g fill="black" opacity=".8" transform="translate(1400 900) scale(0.1 -0.1)"><path d="M0.0 0.0 -1.0 -707.0 98.0 -706.0V-0.0ZM386.0 -378.0V-718.0L511.0 -719.0L513.0 -378.0ZM-261.0 -2.0V-654.0H51.0V-534.0H-165.0V-2.0Z"/></g>
<g fill="red" transform="translate(1500 900) scale(0.1 -0.1)"><path d="M0.0 0.0V-261.0H30.0V0.0ZM202.0 -84.0V-274.0H232.0V-84.0ZM-359.0 215.0V-416.0H-330.0V185.0H392.0V215.0Z"/></g>
<g fill="black" opacity=".8" transform="translate(1500 900) scale(0.1 -0.1)"><path d="M0.0 0.0 2.0 -257.0H31.0V1.0ZM195.0 -86.0 194.0 -280.0 231.0 -281.0V-88.0ZM-358.0 204.0V-417.0H-330.0V183.0H406.0V204.0Z"/></g>
<g fill="red" transform="translate(1600 900) scale(0.1 -0.1)"><path d="M0.0 0.0V-248.0H124.0V0.0ZM175.0 -84.0V-300.0H291.0V-84.0ZM-343.0 236.0V-429.0H-205.0V119.0H402.0V236.0Z"/></g>
<g fill="black" opacity=".8" transform="translate(1600 900) scale(0.1 -0.1)"><path d="M0.0 0.0V-253.0L124.0 -254.0L123.0 0.0ZM184.0 -80.0 180.0 -293.0H291.0L292.0 -81.0ZM-346.0 245.0V-426.0H-201.0V121.0H388.0V245.0Z"/></g>
<g fill="red" transform="translate(100 1000) scale(0.1 -0.1)"><path d="M0.0 0.0V-600.0H29.0V0.0ZM406.0 -253.0V-712.0H435.0V-253.0ZM115.0 -246.0V-728.0H145.0V-276.0H569.0V-246.0Z"/></g>
<g fill="black" opacity=".8" transform="translate(100 1000) scale(0.1 -0.1)"><path d="M0.0 0.0V-604.0L21.0 -603.0L23.0 2.0ZM411.0 -247.0 410.0 -707.0H437.0L438.0 -247.0ZM118.0 -242.0V-724.0H135.0V-279.0H571.0V-242.0Z"/></g>
<g fill="red" transform="translate(200 1000) scale(0.1 -0.1)"><path d="M0.0 0.0V-702.0H87.0V0.0ZM406.0 -307.0V-770.0H504.0V-307.0ZM136.0 -261.0V-785.0H246.0V-376.0H575.0V-261.0Z"/></g>
<g fill="black" opacity=".8" transform="translate(200 1000) scale(0.1 -0.1)"><path d="M0.0 0.0 -3.0 -698.0H94.0L96.0 2.0ZM402.0 -314.0 400.0 -773.0 502.0 -774.0 503.0 -313.0ZM135.0 -265.0V-786.0H258.0V-374.0H571.0V-265.0Z"/></g>
<g fill="red" transform="translate(300 1000) scale(0.1 -0.1)"><path d="M0.0 0.0V-371.0H29.0V0.0ZM223.0 0.0V-366.0H252.0V0.0ZM-222.0 7.0V-378.0H-192.0V-23.0H458.0V7.0Z"/></g>
<g fill="black" opacity=".8" transform="translate(300 1000) scale(0.1 -0.1)"><path d="M0.0 0.0 2.0 -371.0H27.0V1.0ZM230.0 -4.0V-356.0L251.0 -358.0L252.0 -4.0ZM-216.0 9.0V-374.0H-182.0V-18.0H443.0V9.0Z"/></g>
<g fill="red" transform="translate(400 1000) scale(0.1 -0.1)"><path d="M0.0 0.0V-360.0H123.0V0.0ZM196.0 0.0V-360.0H319.0V0.0ZM-203.0 39.0V-370.0H-72.0V-71.0H431.0V39.0Z"/></g>
<g fill="black" opacity=".8" transform="translate(400 1000) scale(0.1 -0.1)"><path d="M0.0 0.0 -1.0 -359.0H124.0V-0.0ZM190.0 4.0 191.0 -367.0 320.0 -368.0 321.0 3.0ZM-205.0 38.0V-375.0H-83.0V-74.0H446.0V38.0Z"/></g>
<g fill="red" transform="translate(500 1000) scale(0.1 -0.1)"><path d="M0.0 0.0V-600.0H29.0V0.0ZM225.0 -371.0V-400.0H504.0V-371.0ZM-228.0 -2.0V-569.0H14.0V-539.0H-198.0V-2.0Z"/></g>
<g fill="black" opacity=".8" transform="translate(500 1000) scale(0.1 -0.1)"><path d="M0.0 0.0 1.0 -605.0 28.0 -604.0V1.0ZM229.0 -367.0 228.0 -397.0 506.0 -399.0 505.0 -369.0ZM-228.0 -0.0V-565.0H11.0V-536.0H-199.0V-0.0Z"/></g>
<g fill="red" transform="translate(600 1000) scale(0.1 -0.1)"><path d="M0.0 0.0V-702.0H87.0V0.0ZM298.0 -376.0V-490.0H524.0V-376.0ZM-242.0 2.0V-652.0H46.0V-528.0H-152.0V2.0Z"/></g>
<g fill="black" opacity=".8" transform="translate(600 1000) scale(0.1 -0.1)"><path d="M0.0 0.0 -1.0 -698.0H89.0V-1.0ZM298.0 -379.0 291.0 -490.0 524.0 -491.0 523.0 -380.0ZM-240.0 1.0V-655.0H52.0V-531.0H-153.0V1.0Z"/></g>
<g fill="red" transform="translate(700 1000) scale(0.1 -0.1)"><path d="M0.0 0.0V-618.0H29.0V0.0ZM390.0 -117.0V-660.0H419.0V-117.0ZM-226.0 -2.0V-569.0H15.0V-539.0H-197.0V-2.0Z"/></g>
<g fill="black" opacity=".8" transform="translate(700 1000) scale(0.1 -0.1)"><path d="M0.0 0.0 1.0 -610.0H27.0V1.0ZM391.0 -127.0V-661.0L421.0 -662.0L422.0 -127.0ZM-224.0 -1.0V-567.0H13.0V-536.0H-198.0V-1.0Z"/></g>
<g fill="red" transform="translate(800 1000) scale(0.1 -0.1)"><path d="M0.0 0.0V-698.0H87.0V0.0ZM391.0 -173.0V-709.0H509.0V-173.0ZM-242.0 1.0V-650.0H47.0V-526.0H-154.0V1.0Z"/></g>
<g fill="black" opacity=".8" transform="translate(800 1000) scale(0.1 -0.1)"><path d="M0.0 0.0 -2.0 -705.0 90.0 -706.0V-0.0ZM390.0 -164.0V-706.0L506.0 -707.0L507.0 -163.0ZM-243.0 -0.0V-650.0H52.0V-528.0H-154.0V-0.0Z"/></g>
<g fill="red" transform="translate(900 1000) scale(0.1 -0.1)"><path d="M0.0 0.0V-706.0H29.0V0.0ZM117.0 -155.0V-769.0H146.0V-155.0ZM-124.0 -157.0V-724.0H131.0V-694.0H-94.0V-157.0Z"/></g>
<g fill="black" opacity=".8" transform="translate(900 1000) scale(0.1 -0.1)"><path d="M0.0 0.0 1.0 -708.0H25.0L26.0 1.0ZM115.0 -150.0V-767.0H147.0L148.0 -152.0ZM-128.0 -152.0V-728.0H143.0V-691.0H-95.0V-152.0Z"/></g>
<g fill="red" transform="translate(1000 1000) scale(0.1 -0.1)"><path d="M0.0 0.0V-743.0H110.0V0.0ZM131.0 -144.0V-846.0H233.0V-144.0ZM-122.0 -148.0V-806.0H199.0V-682.0H-20.0V-148.0Z"/></g>
<g fill="black" opacity=".8" transform="translate(1000 1000) scale(0.1 -0.1)"><path d="M0.0 0.0 -1.0 -741.0H113.0V0.0ZM132.0 -148.0 133.0 -846.0 233.0 -847.0 234.0 -148.0ZM-117.0 -152.0V-802.0H189.0V-684.0H-19.0V-152.0Z"/></g>
<g fill="red" transform="translate(1100 1000) scale(0.1 -0.1)"><path d="M0.0 0.0V-600.0H29.0V0.0ZM331.0 169.0V-730.0H360.0V169.0ZM-240.0 -3.0V-570.0H14.0V-540.0H-211.0V-3.0Z"/></g>
<g fill="black" opacity=".8" transform="translate(1100 1000) scale(0.1 -0.1)"><path d="M0.0 0.0 1.0 -611.0H31.0L32.0 1.0ZM328.0 179.0 327.0 -728.0 359.0 -729.0 360.0 179.0ZM-242.0 -1.0V-570.0H21.0V-539.0H-207.0V-1.0Z"/></g>
<g fill="red" transform="translate(1200 1000) scale(0.1 -0.1)"><path d="M0.0 0.0V-702.0H99.0V0.0ZM307.0 164.0V-786.0H442.0V164.0ZM-261.0 1.0V-657.0H58.0V-533.0H-161.0V1.0Z"/></g>
<g fill="black" opacity=".8" transform="translate(1200 1000) scale(0.1 -0.1)"><path d="M0.0 0.0 -2.0 -692.0H95.0L96.0 1.0ZM309.0 152.0 311.0 -785.0 445.0 -786.0 446.0 155.0ZM-259.0 -0.0V-656.0H54.0V-533.0H-164.0V-0.0Z"/></g>
<g fill="red" transform="translate(1300 1000) scale(0.1 -0.1)"><path d="M0.0 0.0V-600.0H30.0V0.0ZM102.0 -459.0V-488.0H527.0V-459.0ZM-250.0 -3.0V-570.0H14.0V-540.0H-221.0V-3.0Z"/></g>
<g fill="black" opacity=".8" transform="translate(1300 1000) scale(0.1 -0.1)"><path d="M0.0 0.0 1.0 -603.0H28.0V1.0ZM100.0 -448.0 99.0 -486.0 529.0 -487.0V-450.0ZM-249.0 -3.0V-571.0H18.0V-540.0H-223.0V-3.0Z"/></g>
<g fill="red" transform="translate(1400 1000) scale(0.1 -0.1)"><path d="M0.0 0.0V-702.0H96.0V0.0ZM139.0 -452.0V-560.0H572.0V-452.0ZM-261.0 1.0V-657.0H54.0V-533.0H-165.0V1.0Z"/></g>
<g fill="black" opacity=".8" transform="translate(1400 1000) scale(0.1 -0.1)"><path d="M0.0 0.0 -2.0 -699.0H98.0V0.0ZM144.0 -461.0 138.0 -559.0 571.0 -560.0V-462.0ZM-261.0 1.0V-655.0H53.0V-532.0H-163.0V1.0Z"/></g>
<g fill="red" transform="translate(1500 1000) scale(0.1 -0.1)"><path d="M0.0 0.0V-600.0H30.0V0.0ZM211.0 -279.0V-308.0H534.0V-279.0ZM-245.0 -2.0V-569.0H10.0V-539.0H-215.0V-2.0Z"/></g>
<g fill="black" opacity=".8" transform="translate(1500 1000) scale(0.1 -0.1)"><path d="M0.0 0.0 1.0 -605.0 30.0 -604.0 29.0 1.0ZM214.0 -277.0 213.0 -301.0 532.0 -304.0 531.0 -280.0ZM-240.0 -2.0V-567.0H7.0V-538.0H-212.0V-2.0Z"/></g>
<g fill="red" transform="translate(1600 1000) scale(0.1 -0.1)"><path d="M0.0 0.0V-702.0H87.0V0.0ZM255.0 -285.0V-377.0H535.0V-285.0ZM-255.0 2.0V-652.0H33.0V-528.0H-165.0V2.0Z"/></g>
<g fill="black" opacity=".8" transform="translate(1600 1000) scale(0.1 -0.1)"><path d="M0.0 0.0 -1.0 -698.0H87.0V-1.0ZM256.0 -286.0 248.0 -380.0 539.0 -382.0 538.0 -287.0ZM-259.0 1.0V-653.0H39.0V-527.0H-170.0V1.0Z"/></g>
<g fill="red" transform="translate(100 1100) scale(0.1 -0.1)"><path d="M0.0 0.0V-605.0H29.0V0.0ZM139.0 -182.0V-575.0H168.0V-182.0ZM-226.0 -2.0V-569.0H15.0V-539.0H-197.0V-2.0Z"/></g>
<g fill="black" opacity=".8" transform="translate(100 1100) scale(0.1 -0.1)"><path d="M0.0 0.0 1.0 -606.0 29.0 -605.0 30.0 1.0ZM140.0 -182.0 139.0 -576.0 170.0 -577.0 171.0 -184.0ZM-229.0 1.0V-566.0H19.0V-535.0H-200.0V1.0Z"/></g>
<g fill="red" transform="translate(200 1100) scale(0.1 -0.1)"><path d="M0.0 0.0V-689.0H87.0V0.0ZM139.0 -212.0V-631.0H255.0V-212.0ZM-242.0 1.0V-650.0H47.0V-526.0H-154.0V1.0Z"/></g>
<g fill="black" opacity=".8" transform="translate(200 1100) scale(0.1 -0.1)"><path d="M0.0 0.0 -2.0 -688.0H87.0L88.0 1.0ZM140.0 -211.0 138.0 -629.0H253.0L254.0 -211.0ZM-238.0 -2.0V-651.0H45.0V-529.0H-151.0V-2.0Z"/></g>
<g fill="red" transform="translate(300 1100) scale(0.1 -0.1)"><path d="M0.0 0.0V-388.0H30.0V0.0ZM306.0 -240.0V-447.0H335.0V-240.0ZM-287.0 -239.0V-400.0H324.0V-371.0H-258.0V-239.0Z"/></g>
<g fill="black" opacity=".8" transform="translate(300 1100) scale(0.1 -0.1)"><path d="M0.0 0.0 1.0 -396.0H34.0V1.0ZM307.0 -237.0 306.0 -447.0H335.0L336.0 -237.0ZM-283.0 -235.0V-396.0H313.0V-369.0H-253.0V-235.0Z"/></g>
<g fill="red" transform="translate(400 1100) scale(0.1 -0.1)"><path d="M0.0 0.0V-365.0H138.0V0.0ZM261.0 -220.0V-441.0H400.0V-220.0ZM-253.0 -221.0V-408.0H312.0V-300.0H-121.0V-221.0Z"/></g>
<g fill="black" opacity=".8" transform="translate(400 1100) scale(0.1 -0.1)"><path d="M0.0 0.0 -2.0 -358.0H134.0V-1.0ZM259.0 -223.0V-439.0H400.0L402.0 -224.0ZM-257.0 -225.0V-409.0H327.0V-302.0H-128.0V-225.0Z"/></g>
<g fill="red" transform="translate(500 1100) scale(0.1 -0.1)"><path d="M0.0 0.0V-600.0H29.0V0.0ZM340.0 -205.0V-730.0H369.0V-205.0ZM140.0 -322.0V-634.0H169.0V-351.0H566.0V-322.0Z"/></g>
<g fill="black" opacity=".8" transform="translate(500 1100) scale(0.1 -0.1)"><path d="M0.0 0.0 -1.0 -604.0H26.0L29.0 1.0ZM346.0 -197.0 345.0 -725.0H372.0L373.0 -197.0ZM136.0 -311.0V-630.0H171.0V-353.0H554.0V-311.0Z"/></g>
<g fill="red" transform="translate(600 1100) scale(0.1 -0.1)"><path d="M0.0 0.0V-702.0H93.0V0.0ZM315.0 -259.0V-786.0H446.0V-259.0ZM141.0 -332.0V-687.0H263.0V-450.0H545.0V-332.0Z"/></g>
<g fill="black" opacity=".8" transform="translate(600 1100) scale(0.1 -0.1)"><path d="M0.0 0.0 -3.0 -696.0H94.0L96.0 2.0ZM309.0 -268.0 311.0 -790.0H443.0L444.0 -267.0ZM148.0 -341.0V-691.0H261.0V-448.0H558.0V-341.0Z"/></g>
<g fill="red" transform="translate(700 1100) scale(0.1 -0.1)"><path d="M0.0 0.0V-600.0H29.0V0.0ZM200.0 -444.0 185.0 -474.0H540.0V-444.0ZM-237.0 -2.0V-569.0H21.0V-539.0H-207.0V-2.0Z"/></g>
<g fill="black" opacity=".8" transform="translate(700 1100) scale(0.1 -0.1)"><path d="M0.0 0.0 1.0 -605.0H35.0V1.0ZM197.0 -444.0 185.0 -473.0 534.0 -469.0 542.0 -441.0ZM-238.0 -1.0V-568.0H25.0V-541.0H-205.0V-1.0Z"/></g>
<g fill="red" transform="translate(800 1100) scale(0.1 -0.1)"><path d="M0.0 0.0V-702.0H93.0V0.0ZM254.0 -454.0 213.0 -566.0H520.0V-454.0ZM-261.0 2.0V-656.0H54.0V-532.0H-165.0V2.0Z"/></g>
<g fill="black" opacity=".8" transform="translate(800 1100) scale(0.1 -0.1)"><path d="M0.0 0.0 -1.0 -698.0H86.0V-1.0ZM244.0 -458.0 226.0 -569.0 521.0 -566.0 527.0 -454.0ZM-260.0 0.0V-656.0H52.0V-528.0H-167.0V0.0Z"/></g>
<g fill="red" transform="translate(900 1100) scale(0.1 -0.1)"><path d="M0.0 0.0V-605.0H30.0V0.0ZM104.0 -187.0V-217.0H621.0V-187.0ZM-246.0 -2.0V-569.0H11.0V-539.0H-217.0V-2.0Z"/></g>
<g fill="black" opacity=".8" transform="translate(900 1100) scale(0.1 -0.1)"><path d="M0.0 0.0 1.0 -596.0H21.0V1.0ZM110.0 -202.0 109.0 -220.0 626.0 -222.0V-204.0ZM-241.0 -2.0V-561.0H6.0V-530.0H-218.0V-2.0Z"/></g>
<g fill="red" transform="translate(1000 1100) scale(0.1 -0.1)"><path d="M0.0 0.0V-689.0H88.0V0.0ZM199.0 -213.0V-324.0H668.0V-213.0ZM-242.0 1.0V-650.0H47.0V-526.0H-154.0V1.0Z"/></g>
<g fill="black" opacity=".8" transform="translate(1000 1100) scale(0.1 -0.1)"><path d="M0.0 0.0 -1.0 -698.0H99.0V-1.0ZM197.0 -198.0 193.0 -319.0 663.0 -320.0V-198.0ZM-245.0 1.0V-655.0H56.0V-535.0H-156.0V1.0Z"/></g>
<g fill="red" transform="translate(1100 1100) scale(0.1 -0.1)"><path d="M0.0 0.0V-600.0H28.0V0.0ZM243.0 -383.0 234.0 -413.0H521.0V-383.0ZM-237.0 -3.0V-570.0H17.0V-540.0H-208.0V-3.0Z"/></g>
<g fill="black" opacity=".8" transform="translate(1100 1100) scale(0.1 -0.1)"><path d="M0.0 0.0 1.0 -599.0H32.0V1.0ZM238.0 -385.0 229.0 -423.0 522.0 -420.0 528.0 -383.0ZM-241.0 -1.0V-567.0H20.0V-539.0H-208.0V-1.0Z"/></g>
<g fill="red" transform="translate(1200 1100) scale(0.1 -0.1)"><path d="M0.0 0.0V-702.0H93.0V0.0ZM291.0 -406.0 257.0 -514.0H550.0V-406.0ZM-261.0 1.0V-657.0H54.0V-533.0H-165.0V1.0Z"/></g>
<g fill="black" opacity=".8" transform="translate(1200 1100) scale(0.1 -0.1)"><path d="M0.0 0.0 -1.0 -703.0H90.0V-1.0ZM286.0 -406.0 272.0 -506.0 545.0 -504.0 550.0 -404.0ZM-258.0 -1.0V-659.0H54.0V-534.0H-164.0V-1.0Z"/></g>
<g fill="red" transform="translate(1300 1100) scale(0.1 -0.1)"><path d="M0.0 0.0V-600.0H30.0V0.0ZM343.0 103.0V-730.0H373.0V107.0ZM-213.0 -2.0V-569.0H18.0V-539.0H-183.0V-2.0Z"/></g>
<g fill="black" opacity=".8" transform="translate(1300 1100) scale(0.1 -0.1)"><path d="M0.0 0.0 1.0 -606.0 29.0 -605.0 30.0 1.0ZM348.0 110.0 344.0 -730.0 374.0 -728.0 379.0 113.0ZM-216.0 2.0V-566.0H16.0V-535.0H-186.0V2.0Z"/></g>
<g fill="red" transform="translate(1400 1100) scale(0.1 -0.1)"><path d="M0.0 0.0V-702.0H87.0V0.0ZM333.0 75.0V-784.0H463.0V96.0ZM-242.0 2.0V-652.0H46.0V-528.0H-152.0V2.0Z"/></g>
<g fill="black" opacity=".8" transform="translate(1400 1100) scale(0.1 -0.1)"><path d="M0.0 0.0 -2.0 -696.0 88.0 -697.0 89.0 1.0ZM330.0 77.0V-784.0L459.0 -783.0L463.0 81.0ZM-237.0 0.0V-653.0H50.0V-532.0H-150.0V0.0Z"/></g>
<g fill="red" transform="translate(1500 1100) scale(0.1 -0.1)"><path d="M0.0 0.0V-600.0H29.0V0.0ZM216.0 -348.0V-378.0H574.0V-348.0ZM-237.0 -2.0V-569.0H21.0V-539.0H-207.0V-2.0Z"/></g>
<g fill="black" opacity=".8" transform="translate(1500 1100) scale(0.1 -0.1)"><path d="M0.0 0.0 1.0 -599.0H32.0V0.0ZM225.0 -359.0V-372.0L574.0 -375.0L572.0 -362.0ZM-242.0 1.0V-562.0H18.0V-535.0H-209.0V1.0Z"/></g>
<g fill="red" transform="translate(1600 1100) scale(0.1 -0.1)"><path d="M0.0 0.0V-702.0H93.0V0.0ZM313.0 -385.0V-480.0H577.0V-385.0ZM-261.0 2.0V-656.0H54.0V-532.0H-165.0V2.0Z"/></g>
<g fill="black" opacity=".8" transform="translate(1600 1100) scale(0.1 -0.1)"><path d="M0.0 0.0 -1.0 -703.0H91.0V-1.0ZM309.0 -373.0 301.0 -483.0 580.0 -485.0 578.0 -374.0ZM-254.0 -1.0V-661.0H59.0V-535.0H-165.0V-1.0Z"/></g>
<g fill="red" transform="translate(100 1200) scale(0.1 -0.1)"><path d="M0.0 0.0V-600.0H28.0V0.0ZM328.0 -335.0V-534.0L357.0 -531.0V-335.0ZM-237.0 -3.0V-570.0H17.0V-540.0H-208.0V-3.0Z"/></g>
<g fill="black" opacity=".8" transform="translate(100 1200) scale(0.1 -0.1)"><path d="M0.0 0.0 1.0 -599.0H33.0V1.0ZM325.0 -339.0 324.0 -532.0 355.0 -533.0V-341.0ZM-238.0 -0.0V-571.0H24.0V-541.0H-206.0V-0.0Z"/></g>
<g fill="red" transform="translate(200 1200) scale(0.1 -0.1)"><path d="M0.0 0.0V-702.0H93.0V0.0ZM314.0 -388.0V-574.0L423.0 -570.0V-388.0ZM-261.0 1.0V-657.0H54.0V-533.0H-165.0V1.0Z"/></g>
<g fill="black" opacity=".8" transform="translate(200 1200) scale(0.1 -0.1)"><path d="M0.0 0.0 -1.0 -703.0H87.0V-1.0ZM319.0 -383.0 315.0 -571.0H426.0V-384.0ZM-260.0 -3.0V-656.0H50.0V-530.0H-166.0V-3.0Z"/></g>
<g fill="red" transform="translate(300 1200) scale(0.1 -0.1)"><path d="M0.0 0.0V-600.0H30.0V0.0ZM187.0 -289.0 169.0 -319.0H597.0V-289.0ZM-249.0 -2.0V-569.0H9.0V-539.0H-219.0V-2.0Z"/></g>
<g fill="black" opacity=".8" transform="translate(300 1200) scale(0.1 -0.1)"><path d="M0.0 0.0 1.0 -605.0 31.0 -604.0V1.0ZM183.0 -292.0 167.0 -321.0 589.0 -313.0 602.0 -284.0ZM-246.0 -2.0V-568.0H17.0V-539.0H-215.0V-2.0Z"/></g>
<g fill="red" transform="translate(400 1200) scale(0.1 -0.1)"><path d="M0.0 0.0V-702.0H93.0V0.0ZM255.0 -288.0 190.0 -409.0H591.0V-288.0ZM-261.0 2.0V-656.0H54.0V-532.0H-165.0V2.0Z"/></g>
<g fill="black" opacity=".8" transform="translate(400 1200) scale(0.1 -0.1)"><path d="M0.0 0.0 -1.0 -699.0H92.0V-1.0ZM235.0 -292.0 216.0 -412.0 589.0 -407.0 598.0 -287.0ZM-263.0 1.0V-657.0H49.0V-529.0H-169.0V1.0Z"/></g>
<g fill="red" transform="translate(500 1200) scale(0.1 -0.1)"><path d="M0.0 0.0V-261.0H30.0V0.0ZM336.0 -61.0V-316.0H365.0V-61.0ZM-330.0 -60.0V-272.0H352.0V-243.0H-301.0V-60.0Z"/></g>
<g fill="black" opacity=".8" transform="translate(500 1200) scale(0.1 -0.1)"><path d="M0.0 0.0 1.0 -269.0H33.0V0.0ZM332.0 -51.0V-320.0L369.0 -321.0L370.0 -51.0ZM-338.0 -48.0V-271.0H364.0V-240.0H-308.0V-48.0Z"/></g>
<g fill="red" transform="translate(600 1200) scale(0.1 -0.1)"><path d="M0.0 0.0V-239.0H144.0V0.0ZM329.0 -18.0V-333.0H471.0V-18.0ZM-318.0 -19.0V-293.0H399.0V-161.0H-180.0V-19.0Z"/></g>
<g fill="black" opacity=".8" transform="translate(600 1200) scale(0.1 -0.1)"><path d="M0.0 0.0 -1.0 -231.0H141.0V-1.0ZM332.0 -27.0 334.0 -327.0H468.0L470.0 -28.0ZM-309.0 -28.0V-294.0H388.0V-164.0H-172.0V-28.0Z"/></g>
<g fill="red" transform="translate(700 1200) scale(0.1 -0.1)"><path d="M0.0 0.0V-600.0H29.0V0.0ZM244.0 -369.0 220.0 -398.0H522.0V-369.0ZM-237.0 -2.0V-569.0H21.0V-539.0H-207.0V-2.0Z"/></g>
<g fill="black" opacity=".8" transform="translate(700 1200) scale(0.1 -0.1)"><path d="M0.0 0.0 1.0 -607.0H35.0V1.0ZM241.0 -368.0 222.0 -396.0 512.0 -387.0 527.0 -359.0ZM-238.0 -2.0V-570.0H26.0V-543.0H-205.0V-2.0Z"/></g>
<g fill="red" transform="translate(800 1200) scale(0.1 -0.1)"><path d="M0.0 0.0V-702.0H93.0V0.0ZM303.0 -368.0 229.0 -473.0H506.0V-368.0ZM-261.0 2.0V-656.0H54.0V-532.0H-165.0V2.0Z"/></g>
<g fill="black" opacity=".8" transform="translate(800 1200) scale(0.1 -0.1)"><path d="M0.0 0.0 -1.0 -696.0H86.0V-1.0ZM278.0 -377.0 255.0 -481.0 505.0 -474.0 516.0 -370.0ZM-260.0 1.0V-655.0H51.0V-527.0H-167.0V1.0Z"/></g>
<g fill="red" transform="translate(900 1200) scale(0.1 -0.1)"><path d="M0.0 0.0V-600.0H29.0V0.0ZM162.0 -256.0V-285.0H555.0V-256.0ZM-218.0 -2.0V-569.0H13.0V-539.0H-188.0V-2.0Z"/></g>
<g fill="black" opacity=".8" transform="translate(900 1200) scale(0.1 -0.1)"><path d="M0.0 0.0 1.0 -599.0H28.0V1.0ZM171.0 -264.0V-273.0L552.0 -276.0L550.0 -268.0ZM-218.0 -2.0V-567.0H16.0V-535.0H-189.0V-2.0Z"/></g>
<g fill="red" transform="translate(1000 1200) scale(0.1 -0.1)"><path d="M0.0 0.0V-689.0H87.0V0.0ZM236.0 -275.0V-358.0H547.0V-275.0ZM-235.0 2.0V-652.0H53.0V-528.0H-145.0V2.0Z"/></g>
<g fill="black" opacity=".8" transform="translate(1000 1200) scale(0.1 -0.1)"><path d="M0.0 0.0 -1.0 -690.0H88.0V-1.0ZM232.0 -265.0 225.0 -366.0 552.0 -368.0 551.0 -267.0ZM-233.0 2.0V-654.0H52.0V-529.0H-146.0V2.0Z"/></g>
<g fill="red" transform="translate(1100 1200) scale(0.1 -0.1)"><path d="M0.0 0.0V-353.0H30.0V0.0ZM326.0 -85.0V-420.0H355.0V-85.0ZM-320.0 -87.0V-366.0H343.0V-336.0H-290.0V-87.0Z"/></g>
<g fill="black" opacity=".8" transform="translate(1100 1200) scale(0.1 -0.1)"><path d="M0.0 0.0 1.0 -359.0H36.0L37.0 1.0ZM324.0 -82.0V-418.0L352.0 -419.0L354.0 -82.0ZM-317.0 -86.0V-367.0H336.0V-337.0H-283.0V-86.0Z"/></g>
<g fill="red" transform="translate(1200 1200) scale(0.1 -0.1)"><path d="M0.0 0.0V-347.0H144.0V0.0ZM301.0 -68.0V-428.0H443.0V-68.0ZM-294.0 -70.0V-405.0H343.0V-271.0H-153.0V-70.0Z"/></g>
<g fill="black" opacity=".8" transform="translate(1200 1200) scale(0.1 -0.1)"><path d="M0.0 0.0 -2.0 -343.0 137.0 -342.0V-1.0ZM301.0 -72.0 303.0 -428.0H446.0L447.0 -72.0ZM-298.0 -72.0V-401.0H354.0V-270.0H-161.0V-72.0Z"/></g>
<g fill="red" transform="translate(1300 1200) scale(0.1 -0.1)"><path d="M0.0 0.0V-600.0H29.0V0.0ZM375.0 -430.0V-686.0H405.0V-430.0ZM-215.0 -2.0V-569.0H20.0V-539.0H-185.0V-2.0Z"/></g>
<g fill="black" opacity=".8" transform="translate(1300 1200) scale(0.1 -0.1)"><path d="M0.0 0.0 1.0 -595.0H27.0V1.0ZM381.0 -428.0 380.0 -680.0 408.0 -681.0 409.0 -429.0ZM-222.0 1.0V-570.0H22.0V-538.0H-195.0V1.0Z"/></g>
<g fill="red" transform="translate(1400 1200) scale(0.1 -0.1)"><path d="M0.0 0.0V-702.0H93.0V0.0ZM400.0 -478.0V-708.0H531.0V-478.0ZM-247.0 2.0V-656.0H68.0V-532.0H-151.0V2.0Z"/></g>
<g fill="black" opacity=".8" transform="translate(1400 1200) scale(0.1 -0.1)"><path d="M0.0 0.0 -1.0 -705.0H96.0L97.0 -1.0ZM395.0 -479.0V-712.0H527.0L529.0 -480.0ZM-237.0 0.0V-654.0H66.0V-533.0H-141.0V0.0Z"/></g>
<g fill="red" transform="translate(1500 1200) scale(0.1 -0.1)"><path d="M0.0 0.0V-728.0H29.0V0.0ZM147.0 -3.0V-726.0H176.0V-3.0ZM-461.0 4.0V-563.0H-219.0V-533.0H-431.0V4.0Z"/></g>
<g fill="black" opacity=".8" transform="translate(1500 1200) scale(0.1 -0.1)"><path d="M0.0 0.0 1.0 -725.0 28.0 -724.0 29.0 2.0ZM148.0 1.0V-723.0H178.0L179.0 1.0ZM-464.0 3.0V-562.0H-214.0V-536.0H-439.0V3.0Z"/></g>
<g fill="red" transform="translate(1600 1200) scale(0.1 -0.1)"><path d="M0.0 0.0V-770.0H111.0V0.0ZM149.0 3.0V-771.0H262.0V3.0ZM-466.0 14.0V-640.0H-178.0V-516.0H-376.0V14.0Z"/></g>
<g fill="black" opacity=".8" transform="translate(1600 1200) scale(0.1 -0.1)"><path d="M0.0 0.0 -1.0 -772.0H112.0V1.0ZM148.0 -1.0 149.0 -773.0H259.0L261.0 -0.0ZM-462.0 16.0V-640.0H-182.0V-512.0H-367.0V16.0Z"/></g>
<g fill="red" transform="translate(100 1300) scale(0.1 -0.1)"><path d="M0.0 0.0V-439.0L29.0 -437.0V0.0ZM-217.0 -105.0V-297.0H252.0V-105.0ZM-560.0 128.0V98.0H-339.0V-75.0H-310.0V128.0Z"/></g>
<g fill="black" opacity=".8" transform="translate(100 1300) scale(0.1 -0.1)"><path d="M0.0 0.0V-430.0L36.0 -429.0V2.0ZM-220.0 -109.0V-292.0L246.0 -293.0L248.0 -108.0ZM-557.0 132.0V93.0H-347.0V-95.0H-302.0V132.0Z"/></g>
<g fill="red" transform="translate(200 1300) scale(0.1 -0.1)"><path d="M0.0 0.0V-444.0L139.0 -440.0V0.0ZM-177.0 -91.0V-339.0H328.0V-91.0ZM-537.0 164.0V50.0H-349.0V-120.0H-216.0V164.0Z"/></g>
<g fill="black" opacity=".8" transform="translate(200 1300) scale(0.1 -0.1)"><path d="M0.0 0.0 -2.0 -451.0 131.0 -449.0V2.0ZM-178.0 -87.0 -170.0 -343.0 332.0 -342.0 334.0 -87.0ZM-542.0 157.0V57.0H-338.0V-100.0H-222.0V157.0Z"/></g>
<g fill="red" transform="translate(300 1300) scale(0.1 -0.1)"><path d="M0.0 0.0V-706.0H29.0V0.0ZM118.0 -155.0V-755.0H147.0V-155.0ZM-119.0 -157.0V-724.0H139.0V-694.0H-89.0V-157.0Z"/></g>
<g fill="black" opacity=".8" transform="translate(300 1300) scale(0.1 -0.1)"><path d="M0.0 0.0 1.0 -707.0H29.0L30.0 1.0ZM115.0 -153.0V-758.0L150.0 -759.0L151.0 -154.0ZM-123.0 -151.0V-726.0H147.0V-690.0H-92.0V-151.0Z"/></g>
<g fill="red" transform="translate(400 1300) scale(0.1 -0.1)"><path d="M0.0 0.0V-743.0H115.0V0.0ZM138.0 -150.0V-852.0H231.0V-150.0ZM-117.0 -148.0V-806.0H198.0V-682.0H-21.0V-148.0Z"/></g>
<g fill="black" opacity=".8" transform="translate(400 1300) scale(0.1 -0.1)"><path d="M0.0 0.0 -1.0 -742.0H115.0V0.0ZM141.0 -151.0V-847.0L229.0 -848.0L230.0 -151.0ZM-113.0 -153.0V-804.0H193.0V-685.0H-18.0V-153.0Z"/></g>
<g fill="red" transform="translate(500 1300) scale(0.1 -0.1)"><path d="M0.0 0.0V-600.0H29.0V0.0ZM349.0 172.0V-339.0H378.0V172.0ZM-228.0 -2.0V-569.0H14.0V-539.0H-198.0V-2.0Z"/></g>
<g fill="black" opacity=".8" transform="translate(500 1300) scale(0.1 -0.1)"><path d="M0.0 0.0 1.0 -607.0H28.0V1.0ZM353.0 178.0V-329.0L375.0 -330.0L376.0 178.0ZM-226.0 -1.0V-571.0H16.0V-538.0H-197.0V-1.0Z"/></g>
<g fill="red" transform="translate(600 1300) scale(0.1 -0.1)"><path d="M0.0 0.0V-702.0H96.0V0.0ZM332.0 165.0V-344.0H466.0V165.0ZM-245.0 2.0V-652.0H49.0V-528.0H-149.0V2.0Z"/></g>
<g fill="black" opacity=".8" transform="translate(600 1300) scale(0.1 -0.1)"><path d="M0.0 0.0 -1.0 -696.0H96.0V-1.0ZM327.0 158.0 329.0 -352.0H470.0L471.0 159.0ZM-245.0 2.0V-649.0H49.0V-527.0H-152.0V2.0Z"/></g>
<g fill="red" transform="translate(700 1300) scale(0.1 -0.1)"><path d="M0.0 0.0V-618.0H29.0V0.0ZM343.0 -427.0V-726.0H372.0V-427.0ZM-226.0 -2.0V-569.0H15.0V-539.0H-197.0V-2.0Z"/></g>
<g fill="black" opacity=".8" transform="translate(700 1300) scale(0.1 -0.1)"><path d="M0.0 0.0 1.0 -611.0H29.0L30.0 1.0ZM334.0 -426.0 333.0 -736.0 377.0 -737.0 378.0 -427.0ZM-224.0 -2.0V-571.0H17.0V-540.0H-197.0V-2.0Z"/></g>
<g fill="red" transform="translate(800 1300) scale(0.1 -0.1)"><path d="M0.0 0.0V-698.0H87.0V0.0ZM318.0 -469.0V-784.0H459.0V-469.0ZM-242.0 1.0V-650.0H47.0V-526.0H-154.0V1.0Z"/></g>
<g fill="black" opacity=".8" transform="translate(800 1300) scale(0.1 -0.1)"><path d="M0.0 0.0 -2.0 -705.0H87.0L88.0 0.0ZM329.0 -469.0 325.0 -773.0H453.0L454.0 -469.0ZM-246.0 -0.0V-647.0H48.0V-525.0H-152.0V-0.0Z"/></g>
<g fill="red" transform="translate(900 1300) scale(0.1 -0.1)"><path d="M0.0 0.0V-605.0H29.0V0.0ZM429.0 -310.0V-561.0H601.0V-310.0ZM-226.0 -2.0V-569.0H15.0V-539.0H-197.0V-2.0Z"/></g>
<g fill="black" opacity=".8" transform="translate(900 1300) scale(0.1 -0.1)"><path d="M0.0 0.0 1.0 -604.0H24.0V0.0ZM438.0 -303.0 437.0 -544.0 599.0 -546.0V-305.0ZM-224.0 -6.0V-574.0H10.0V-541.0H-200.0V-6.0Z"/></g>
<g fill="red" transform="translate(1000 1300) scale(0.1 -0.1)"><path d="M0.0 0.0V-689.0H93.0V0.0ZM474.0 -316.0V-576.0H659.0V-316.0ZM-242.0 1.0V-650.0H53.0V-526.0H-148.0V1.0Z"/></g>
<g fill="black" opacity=".8" transform="translate(1000 1300) scale(0.1 -0.1)"><path d="M0.0 0.0 -1.0 -689.0H98.0V-2.0ZM467.0 -322.0 464.0 -590.0 661.0 -591.0 662.0 -323.0ZM-242.0 5.0V-644.0H59.0V-523.0H-147.0V5.0Z"/></g>
<g fill="red" transform="translate(1100 1300) scale(0.1 -0.1)"><path d="M0.0 0.0V-696.0H30.0V0.0ZM301.0 -47.0V-76.0H584.0V-47.0ZM-180.0 -36.0V-246.0H16.0V-216.0H-151.0V-36.0Z"/></g>
<g fill="black" opacity=".8" transform="translate(1100 1300) scale(0.1 -0.1)"><path d="M0.0 0.0 1.0 -694.0 37.0 -693.0 38.0 2.0ZM296.0 -50.0 295.0 -82.0 586.0 -84.0V-51.0ZM-187.0 -37.0V-253.0H20.0V-208.0H-148.0V-37.0Z"/></g>
<g fill="red" transform="translate(1200 1300) scale(0.1 -0.1)"><path d="M0.0 0.0V-711.0H135.0V0.0ZM328.0 -28.0V-112.0H599.0V-28.0ZM-172.0 -18.0V-278.0H75.0V-160.0H-49.0V-18.0Z"/></g>
<g fill="black" opacity=".8" transform="translate(1200 1300) scale(0.1 -0.1)"><path d="M0.0 0.0 -2.0 -715.0 127.0 -714.0V4.0ZM335.0 -24.0 332.0 -104.0 597.0 -105.0V-25.0ZM-168.0 -17.0V-269.0H75.0V-167.0H-52.0V-17.0Z"/></g>
<g fill="red" transform="translate(1300 1300) scale(0.1 -0.1)"><path d="M0.0 0.0V-600.0H29.0V0.0ZM139.0 78.0V-403.0H168.0V78.0ZM-237.0 -2.0V-569.0H21.0V-539.0H-207.0V-2.0Z"/></g>
<g fill="black" opacity=".8" transform="translate(1300 1300) scale(0.1 -0.1)"><path d="M0.0 0.0 1.0 -607.0H28.0L29.0 1.0ZM145.0 85.0V-397.0H169.0L171.0 85.0ZM-244.0 4.0V-566.0H24.0V-536.0H-213.0V4.0Z"/></g>
<g fill="red" transform="translate(1400 1300) scale(0.1 -0.1)"><path d="M0.0 0.0V-702.0H93.0V0.0ZM145.0 70.0V-439.0H276.0V70.0ZM-261.0 2.0V-656.0H54.0V-532.0H-165.0V2.0Z"/></g>
<g fill="black" opacity=".8" transform="translate(1400 1300) scale(0.1 -0.1)"><path d="M0.0 0.0 -2.0 -695.0H94.0V1.0ZM138.0 62.0 140.0 -444.0 275.0 -443.0 277.0 63.0ZM-251.0 -1.0V-658.0H52.0V-535.0H-160.0V-1.0Z"/></g>
<g fill="red" transform="translate(1500 1300) scale(0.1 -0.1)"><path d="M0.0 0.0V-167.0H30.0V0.0ZM139.0 -528.0V-877.0H168.0V-528.0ZM-382.0 -236.0V-895.0H-352.0V-265.0H-172.0V-236.0Z"/></g>
<g fill="black" opacity=".8" transform="translate(1500 1300) scale(0.1 -0.1)"><path d="M0.0 0.0 1.0 -165.0H44.0V1.0ZM136.0 -538.0 137.0 -878.0H164.0V-537.0ZM-386.0 -240.0V-891.0H-352.0V-271.0H-164.0V-240.0Z"/></g>
<g fill="red" transform="translate(1600 1300) scale(0.1 -0.1)"><path d="M0.0 0.0V-203.0H150.0V0.0ZM183.0 -586.0V-897.0H314.0V-586.0ZM-343.0 -250.0V-951.0H-217.0V-358.0H-121.0V-250.0Z"/></g>
<g fill="black" opacity=".8" transform="translate(1600 1300) scale(0.1 -0.1)"><path d="M0.0 0.0V-206.0H137.0L136.0 -2.0ZM182.0 -577.0 189.0 -895.0H318.0L320.0 -577.0ZM-340.0 -247.0V-953.0H-214.0V-351.0H-128.0V-247.0Z"/></g>
<g fill="red" transform="translate(100 1400) scale(0.1 -0.1)"><path d="M0.0 0.0V-600.0H29.0V0.0ZM331.0 27.0V-273.0H361.0V27.0ZM-221.0 -2.0V-569.0H14.0V-539.0H-191.0V-2.0Z"/></g>
<g fill="black" opacity=".8" transform="translate(100 1400) scale(0.1 -0.1)"><path d="M0.0 0.0 1.0 -601.0H33.0V1.0ZM336.0 21.0V-263.0L357.0 -265.0L356.0 19.0ZM-223.0 1.0V-569.0H18.0V-538.0H-191.0V1.0Z"/></g>
<g fill="red" transform="translate(200 1400) scale(0.1 -0.1)"><path d="M0.0 0.0V-702.0H93.0V0.0ZM327.0 -13.0V-292.0H421.0V-13.0ZM-249.0 2.0V-656.0H48.0V-532.0H-153.0V2.0Z"/></g>
<g fill="black" opacity=".8" transform="translate(200 1400) scale(0.1 -0.1)"><path d="M0.0 0.0 -1.0 -701.0 89.0 -702.0V-1.0ZM323.0 -6.0 322.0 -299.0 427.0 -300.0V-7.0ZM-245.0 -1.0V-655.0H46.0V-530.0H-154.0V-1.0Z"/></g>
<g fill="red" transform="translate(300 1400) scale(0.1 -0.1)"><path d="M0.0 0.0V-600.0H28.0V0.0ZM334.0 -352.0V-670.0H363.0V-352.0ZM-236.0 -3.0V-570.0H11.0V-540.0H-207.0V-3.0Z"/></g>
<g fill="black" opacity=".8" transform="translate(300 1400) scale(0.1 -0.1)"><path d="M0.0 0.0 1.0 -598.0H33.0L34.0 1.0ZM332.0 -360.0 333.0 -666.0 360.0 -668.0 358.0 -363.0ZM-237.0 -0.0V-571.0H20.0V-540.0H-206.0V-0.0Z"/></g>
<g fill="red" transform="translate(400 1400) scale(0.1 -0.1)"><path d="M0.0 0.0V-702.0H94.0V0.0ZM316.0 -421.0V-700.0H437.0V-421.0ZM-261.0 1.0V-657.0H54.0V-533.0H-165.0V1.0Z"/></g>
<g fill="black" opacity=".8" transform="translate(400 1400) scale(0.1 -0.1)"><path d="M0.0 0.0 -2.0 -705.0H87.0L88.0 -0.0ZM318.0 -411.0 316.0 -701.0 442.0 -702.0V-412.0ZM-260.0 -3.0V-655.0H47.0V-530.0H-166.0V-3.0Z"/></g>
<g fill="red" transform="translate(500 1400) scale(0.1 -0.1)"><path d="M0.0 0.0V-600.0H29.0V0.0ZM382.0 -15.0V-456.0H412.0V-15.0ZM-215.0 -2.0V-569.0H20.0V-539.0H-185.0V-2.0Z"/></g>
<g fill="black" opacity=".8" transform="translate(500 1400) scale(0.1 -0.1)"><path d="M0.0 0.0 1.0 -598.0H31.0L32.0 1.0ZM389.0 -13.0V-449.0L414.0 -450.0L415.0 -14.0ZM-225.0 2.0V-569.0H21.0V-539.0H-195.0V2.0Z"/></g>
<g fill="red" transform="translate(600 1400) scale(0.1 -0.1)"><path d="M0.0 0.0V-702.0H93.0V0.0ZM379.0 -47.0V-475.0H506.0V-47.0ZM-261.0 2.0V-656.0H54.0V-532.0H-165.0V2.0Z"/></g>
<g fill="black" opacity=".8" transform="translate(600 1400) scale(0.1 -0.1)"><path d="M0.0 0.0 -2.0 -703.0H92.0V-1.0ZM373.0 -50.0 372.0 -480.0 504.0 -481.0 505.0 -49.0ZM-248.0 0.0V-654.0H54.0V-532.0H-155.0V0.0Z"/></g>
<g fill="red" transform="translate(700 1400) scale(0.1 -0.1)"><path d="M0.0 0.0V-600.0H29.0V0.0ZM108.0 -391.0V-421.0H558.0V-391.0ZM-227.0 -2.0V-569.0H15.0V-539.0H-197.0V-2.0Z"/></g>
<g fill="black" opacity=".8" transform="translate(700 1400) scale(0.1 -0.1)"><path d="M0.0 0.0V-597.0H35.0L36.0 1.0ZM96.0 -401.0V-430.0L558.0 -434.0L554.0 -405.0ZM-226.0 -3.0V-568.0H32.0V-537.0H-191.0V-3.0Z"/></g>
<g fill="red" transform="translate(800 1400) scale(0.1 -0.1)"><path d="M0.0 0.0V-702.0H93.0V0.0ZM126.0 -432.0V-545.0H545.0V-432.0ZM-244.0 -4.0V-662.0H71.0V-538.0H-148.0V-4.0Z"/></g>
<g fill="black" opacity=".8" transform="translate(800 1400) scale(0.1 -0.1)"><path d="M0.0 0.0 -2.0 -707.0 85.0 -706.0 86.0 0.0ZM143.0 -419.0 134.0 -532.0 549.0 -535.0 547.0 -421.0ZM-247.0 -6.0V-664.0H58.0V-536.0H-153.0V-6.0Z"/></g>
<g fill="red" transform="translate(900 1400) scale(0.1 -0.1)"><path d="M0.0 0.0V-600.0H29.0V0.0ZM497.0 -244.0V-729.0H526.0V-244.0ZM-228.0 -2.0V-569.0H14.0V-539.0H-198.0V-2.0Z"/></g>
<g fill="black" opacity=".8" transform="translate(900 1400) scale(0.1 -0.1)"><path d="M0.0 0.0 1.0 -599.0H25.0L26.0 0.0ZM496.0 -241.0 495.0 -732.0 530.0 -733.0 532.0 -241.0ZM-225.0 -1.0V-568.0H8.0V-537.0H-197.0V-1.0Z"/></g>
<g fill="red" transform="translate(1000 1400) scale(0.1 -0.1)"><path d="M0.0 0.0V-702.0H87.0V0.0ZM513.0 -281.0V-785.0H625.0V-281.0ZM-242.0 2.0V-652.0H46.0V-528.0H-152.0V2.0Z"/></g>
<g fill="black" opacity=".8" transform="translate(1000 1400) scale(0.1 -0.1)"><path d="M0.0 0.0 -1.0 -703.0H92.0V-1.0ZM514.0 -285.0 513.0 -781.0H620.0L621.0 -283.0ZM-245.0 1.0V-651.0H56.0V-531.0H-153.0V1.0Z"/></g>
<g fill="red" transform="translate(1100 1400) scale(0.1 -0.1)"><path d="M0.0 0.0V-600.0H30.0V0.0ZM142.0 -250.0V-460.0H556.0V-250.0ZM-214.0 -3.0V-570.0H20.0V-540.0H-185.0V-3.0Z"/></g>
<g fill="black" opacity=".8" transform="translate(1100 1400) scale(0.1 -0.1)"><path d="M0.0 0.0 1.0 -605.0H26.0L27.0 1.0ZM148.0 -235.0 147.0 -444.0 555.0 -446.0 554.0 -237.0ZM-217.0 -4.0V-575.0H30.0V-541.0H-193.0V-4.0Z"/></g>
<g fill="red" transform="translate(1200 1400) scale(0.1 -0.1)"><path d="M0.0 0.0V-702.0H93.0V0.0ZM170.0 -229.0V-493.0H597.0V-229.0ZM-241.0 1.0V-657.0H74.0V-533.0H-145.0V1.0Z"/></g>
<g fill="black" opacity=".8" transform="translate(1200 1400) scale(0.1 -0.1)"><path d="M0.0 0.0 -2.0 -696.0H96.0L97.0 0.0ZM167.0 -243.0 164.0 -505.0 600.0 -506.0V-243.0ZM-234.0 3.0V-652.0H64.0V-530.0H-138.0V3.0Z"/></g>
<g fill="red" transform="translate(1300 1400) scale(0.1 -0.1)"><path d="M0.0 0.0V-600.0H29.0V0.0ZM147.0 -96.0H565.0V-377.0H147.0ZM-226.0 -3.0V-570.0H18.0V-540.0H-197.0V-3.0Z"/></g>
<g fill="black" opacity=".8" transform="translate(1300 1400) scale(0.1 -0.1)"><path d="M0.0 0.0 1.0 -601.0H30.0V1.0ZM146.0 -94.0 565.0 -96.0 564.0 -376.0 149.0 -374.0ZM-226.0 -2.0V-570.0H19.0V-540.0H-197.0V-2.0Z"/></g>
<g fill="red" transform="translate(1400 1400) scale(0.1 -0.1)"><path d="M0.0 0.0V-702.0H92.0V0.0ZM244.0 -184.0H533.0V-374.0H244.0ZM-241.0 1.0V-657.0H74.0V-533.0H-145.0V1.0Z"/></g>
<g fill="black" opacity=".8" transform="translate(1400 1400) scale(0.1 -0.1)"><path d="M0.0 0.0 -2.0 -701.0H91.0L92.0 -0.0ZM241.0 -186.0 537.0 -184.0 532.0 -373.0 245.0 -376.0ZM-240.0 -0.0V-656.0H75.0V-533.0H-146.0V-0.0Z"/></g>
<g fill="red" transform="translate(1500 1400) scale(0.1 -0.1)"><path d="M0.0 0.0V-600.0H29.0V0.0ZM210.0 -114.0V-277.0H499.0V-114.0ZM111.0 -342.0V-730.0H140.0V-372.0H585.0V-342.0Z"/></g>
<g fill="black" opacity=".8" transform="translate(1500 1400) scale(0.1 -0.1)"><path d="M0.0 0.0V-606.0H15.0L16.0 1.0ZM221.0 -104.0 219.0 -269.0H504.0L505.0 -105.0ZM110.0 -335.0V-727.0H141.0V-363.0H575.0V-335.0Z"/></g>
<g fill="red" transform="translate(1600 1400) scale(0.1 -0.1)"><path d="M0.0 0.0V-702.0H92.0V0.0ZM219.0 -129.0V-330.0H568.0V-129.0ZM126.0 -354.0V-786.0H252.0V-459.0H583.0V-354.0Z"/></g>
<g fill="black" opacity=".8" transform="translate(1600 1400) scale(0.1 -0.1)"><path d="M0.0 0.0 -3.0 -695.0H106.0L107.0 0.0ZM210.0 -139.0V-336.0H563.0L564.0 -139.0ZM133.0 -358.0V-788.0H252.0V-467.0H590.0V-358.0Z"/></g>
<g fill="red" transform="translate(100 1500) scale(0.1 -0.1)"><path d="M0.0 0.0V-605.0H29.0V0.0ZM479.0 -96.0V-339.0H508.0V-96.0ZM-226.0 -2.0V-569.0H15.0V-539.0H-197.0V-2.0Z"/></g>
<g fill="black" opacity=".8" transform="translate(100 1500) scale(0.1 -0.1)"><path d="M0.0 0.0 2.0 -595.0H28.0V0.0ZM479.0 -109.0V-340.0L508.0 -342.0V-111.0ZM-222.0 -2.0V-569.0H14.0V-538.0H-195.0V-2.0Z"/></g>
<g fill="red" transform="translate(200 1500) scale(0.1 -0.1)"><path d="M0.0 0.0V-689.0H87.0V0.0ZM475.0 -155.0V-371.0H581.0V-155.0ZM-242.0 1.0V-650.0H47.0V-526.0H-154.0V1.0Z"/></g>
<g fill="black" opacity=".8" transform="translate(200 1500) scale(0.1 -0.1)"><path d="M0.0 0.0 -1.0 -699.0H89.0V-2.0ZM477.0 -141.0 474.0 -368.0 580.0 -369.0V-142.0ZM-246.0 -0.0V-648.0H51.0V-525.0H-157.0V-0.0Z"/></g>
<g fill="red" transform="translate(300 1500) scale(0.1 -0.1)"><path d="M0.0 0.0V-600.0H31.0V0.0ZM330.0 -439.0V-730.0H359.0V-439.0ZM-233.0 -3.0V-570.0H21.0V-540.0H-204.0V-3.0Z"/></g>
<g fill="black" opacity=".8" transform="translate(300 1500) scale(0.1 -0.1)"><path d="M0.0 0.0 1.0 -599.0 32.0 -598.0 33.0 1.0ZM323.0 -439.0V-736.0L361.0 -737.0V-441.0ZM-233.0 -0.0V-571.0H28.0V-540.0H-202.0V-0.0Z"/></g>
<g fill="red" transform="translate(400 1500) scale(0.1 -0.1)"><path d="M0.0 0.0V-702.0H93.0V0.0ZM317.0 -493.0V-786.0H452.0V-493.0ZM-251.0 1.0V-657.0H64.0V-533.0H-155.0V1.0Z"/></g>
<g fill="black" opacity=".8" transform="translate(400 1500) scale(0.1 -0.1)"><path d="M0.0 0.0 -2.0 -704.0H91.0L92.0 0.0ZM325.0 -491.0 322.0 -779.0H451.0L452.0 -492.0ZM-252.0 -3.0V-656.0H60.0V-532.0H-156.0V-3.0Z"/></g>
<g fill="red" transform="translate(500 1500) scale(0.1 -0.1)"><path d="M0.0 0.0V-605.0H30.0V0.0ZM316.0 -195.0V-729.0H345.0V-195.0ZM-242.0 -2.0V-569.0H19.0V-539.0H-213.0V-2.0Z"/></g>
<g fill="black" opacity=".8" transform="translate(500 1500) scale(0.1 -0.1)"><path d="M0.0 0.0 1.0 -602.0H25.0L26.0 1.0ZM313.0 -195.0 312.0 -733.0 348.0 -734.0 349.0 -196.0ZM-236.0 -2.0V-568.0H16.0V-538.0H-209.0V-2.0Z"/></g>
<g fill="red" transform="translate(600 1500) scale(0.1 -0.1)"><path d="M0.0 0.0V-689.0H82.0V0.0ZM308.0 -233.0V-787.0H439.0V-233.0ZM-246.0 -1.0V-652.0H43.0V-528.0H-158.0V-1.0Z"/></g>
<g fill="black" opacity=".8" transform="translate(600 1500) scale(0.1 -0.1)"><path d="M0.0 0.0 -2.0 -692.0H88.0V0.0ZM311.0 -233.0 310.0 -782.0H435.0L437.0 -232.0ZM-252.0 -2.0V-651.0H50.0V-529.0H-162.0V-2.0Z"/></g>
<g fill="red" transform="translate(700 1500) scale(0.1 -0.1)"><path d="M0.0 0.0V-605.0H29.0V0.0ZM337.0 57.0V-195.0H367.0V57.0ZM-219.0 -2.0V-569.0H22.0V-539.0H-190.0V-2.0Z"/></g>
<g fill="black" opacity=".8" transform="translate(700 1500) scale(0.1 -0.1)"><path d="M0.0 0.0 2.0 -604.0H20.0L19.0 1.0ZM338.0 62.0V-188.0H366.0L367.0 61.0ZM-212.0 -3.0V-573.0H27.0V-539.0H-190.0V-3.0Z"/></g>
<g fill="red" transform="translate(800 1500) scale(0.1 -0.1)"><path d="M0.0 0.0V-689.0H83.0V0.0ZM327.0 52.0V-196.0H464.0V52.0ZM-220.0 1.0V-650.0H66.0V-526.0H-135.0V1.0Z"/></g>
<g fill="black" opacity=".8" transform="translate(800 1500) scale(0.1 -0.1)"><path d="M0.0 0.0 -1.0 -690.0H92.0V-1.0ZM326.0 48.0V-202.0H464.0L465.0 47.0ZM-225.0 2.0V-646.0H64.0V-524.0H-137.0V2.0Z"/></g>
<g fill="red" transform="translate(900 1500) scale(0.1 -0.1)"><path d="M0.0 0.0V-600.0H29.0V0.0ZM377.0 -193.0V-418.0H590.0V-193.0ZM-218.0 -3.0V-570.0H26.0V-540.0H-189.0V-3.0Z"/></g>
<g fill="black" opacity=".8" transform="translate(900 1500) scale(0.1 -0.1)"><path d="M0.0 0.0 1.0 -598.0H29.0V1.0ZM377.0 -194.0V-416.0L591.0 -418.0L590.0 -196.0ZM-219.0 -2.0V-570.0H30.0V-539.0H-189.0V-2.0Z"/></g>
<g fill="red" transform="translate(1000 1500) scale(0.1 -0.1)"><path d="M0.0 0.0V-702.0H93.0V0.0ZM407.0 -221.0V-479.0H642.0V-221.0ZM-241.0 1.0V-657.0H74.0V-533.0H-145.0V1.0Z"/></g>
<g fill="black" opacity=".8" transform="translate(1000 1500) scale(0.1 -0.1)"><path d="M0.0 0.0 -1.0 -704.0H94.0V-1.0ZM409.0 -219.0 405.0 -478.0 642.0 -480.0V-219.0ZM-239.0 -0.0V-656.0H72.0V-533.0H-145.0V-0.0Z"/></g>
<g fill="red" transform="translate(1100 1500) scale(0.1 -0.1)"><path d="M0.0 0.0V-600.0H29.0V0.0ZM517.0 -191.0V-729.0H546.0V-191.0ZM-201.0 -2.0V-569.0H12.0V-539.0H-172.0V-2.0Z"/></g>
<g fill="black" opacity=".8" transform="translate(1100 1500) scale(0.1 -0.1)"><path d="M0.0 0.0 1.0 -599.0 27.0 -598.0 28.0 1.0ZM514.0 -193.0V-731.0L548.0 -733.0V-194.0ZM-198.0 -1.0V-569.0H15.0V-536.0H-172.0V-1.0Z"/></g>
<g fill="red" transform="translate(1200 1500) scale(0.1 -0.1)"><path d="M0.0 0.0V-702.0H85.0V0.0ZM521.0 -240.0V-785.0H624.0V-240.0ZM-220.0 2.0V-652.0H61.0V-528.0H-137.0V2.0Z"/></g>
<g fill="black" opacity=".8" transform="translate(1200 1500) scale(0.1 -0.1)"><path d="M0.0 0.0 -2.0 -704.0H87.0V-1.0ZM524.0 -238.0 523.0 -781.0 622.0 -782.0 623.0 -237.0ZM-223.0 0.0V-651.0H61.0V-530.0H-137.0V0.0Z"/></g>
<g fill="red" transform="translate(1300 1500) scale(0.1 -0.1)"><path d="M0.0 0.0V-371.0H30.0V0.0ZM417.0 -381.0V-411.0H660.0V-381.0ZM-86.0 -381.0V-632.0H-57.0V-411.0H164.0V-381.0Z"/></g>
<g fill="black" opacity=".8" transform="translate(1300 1500) scale(0.1 -0.1)"><path d="M0.0 0.0 2.0 -370.0H42.0L40.0 -1.0ZM407.0 -381.0V-413.0L657.0 -416.0L656.0 -383.0ZM-93.0 -375.0V-637.0H-43.0V-421.0H168.0V-375.0Z"/></g>
<g fill="red" transform="translate(1400 1500) scale(0.1 -0.1)"><path d="M0.0 0.0V-351.0H140.0V0.0ZM413.0 -358.0V-463.0H625.0V-358.0ZM-87.0 -358.0V-647.0H54.0V-463.0H199.0V-358.0Z"/></g>
<g fill="black" opacity=".8" transform="translate(1400 1500) scale(0.1 -0.1)"><path d="M0.0 0.0V-352.0H128.0L126.0 -6.0ZM424.0 -356.0 421.0 -458.0 631.0 -460.0 630.0 -357.0ZM-82.0 -365.0V-643.0H41.0V-450.0H197.0V-365.0Z"/></g>
<g fill="red" transform="translate(1500 1500) scale(0.1 -0.1)"><path d="M0.0 0.0V-274.0H30.0V0.0ZM318.0 -538.0V-741.0H347.0V-538.0ZM-347.0 96.0V-299.0H-317.0V66.0H371.0V96.0Z"/></g>
<g fill="black" opacity=".8" transform="translate(1500 1500) scale(0.1 -0.1)"><path d="M0.0 0.0 2.0 -276.0 19.0 -275.0V1.0ZM316.0 -531.0 315.0 -746.0 353.0 -747.0 354.0 -531.0ZM-345.0 96.0V-296.0H-314.0V72.0H371.0V96.0Z"/></g>
<g fill="red" transform="translate(1600 1500) scale(0.1 -0.1)"><path d="M0.0 0.0V-252.0H105.0V0.0ZM279.0 -528.0V-749.0H419.0V-528.0ZM-344.0 141.0V-275.0H-211.0V38.0H369.0V141.0Z"/></g>
<g fill="black" opacity=".8" transform="translate(1600 1500) scale(0.1 -0.1)"><path d="M0.0 0.0V-250.0H117.0L116.0 -1.0ZM283.0 -535.0 280.0 -742.0 412.0 -743.0 414.0 -535.0ZM-344.0 142.0V-277.0H-212.0V32.0H368.0V142.0Z"/></g>
<g fill="red" transform="translate(100 1600) scale(0.1 -0.1)"><path d="M0.0 0.0V-600.0H29.0V0.0ZM338.0 -318.0V-732.0H367.0V-318.0ZM-228.0 -2.0V-569.0H14.0V-539.0H-198.0V-2.0Z"/></g>
<g fill="black" opacity=".8" transform="translate(100 1600) scale(0.1 -0.1)"><path d="M0.0 0.0 1.0 -605.0H28.0L29.0 1.0ZM333.0 -306.0 331.0 -735.0H370.0V-307.0ZM-225.0 -1.0V-571.0H15.0V-539.0H-197.0V-1.0Z"/></g>
<g fill="red" transform="translate(200 1600) scale(0.1 -0.1)"><path d="M0.0 0.0V-702.0H87.0V0.0ZM322.0 -335.0V-781.0H453.0V-335.0ZM-242.0 2.0V-652.0H46.0V-528.0H-152.0V2.0Z"/></g>
<g fill="black" opacity=".8" transform="translate(200 1600) scale(0.1 -0.1)"><path d="M0.0 0.0 -2.0 -697.0H88.0V0.0ZM328.0 -347.0 325.0 -777.0H451.0L452.0 -346.0ZM-245.0 1.0V-649.0H48.0V-528.0H-153.0V1.0Z"/></g>
<g fill="red" transform="translate(300 1600) scale(0.1 -0.1)"><path d="M0.0 0.0V-600.0H29.0V0.0ZM334.0 -185.0V-282.0H365.0V-185.0ZM-233.0 -2.0V-569.0H9.0V-539.0H-203.0V-2.0Z"/></g>
<g fill="black" opacity=".8" transform="translate(300 1600) scale(0.1 -0.1)"><path d="M0.0 0.0 1.0 -598.0 28.0 -597.0V1.0ZM327.0 -189.0 326.0 -290.0 367.0 -292.0V-191.0ZM-229.0 1.0V-567.0H14.0V-537.0H-199.0V1.0Z"/></g>
<g fill="red" transform="translate(400 1600) scale(0.1 -0.1)"><path d="M0.0 0.0V-702.0H87.0V0.0ZM316.0 -230.0V-329.0H450.0V-230.0ZM-242.0 2.0V-652.0H46.0V-528.0H-152.0V2.0Z"/></g>
<g fill="black" opacity=".8" transform="translate(400 1600) scale(0.1 -0.1)"><path d="M0.0 0.0 -1.0 -705.0H88.0L87.0 -1.0ZM325.0 -224.0 322.0 -319.0 448.0 -320.0 449.0 -225.0ZM-248.0 -2.0V-652.0H45.0V-529.0H-156.0V-2.0Z"/></g>
<g fill="red" transform="translate(500 1600) scale(0.1 -0.1)"><path d="M0.0 0.0 13.0 -560.0H43.0L30.0 -10.0ZM353.0 -359.0V-388.0H455.0V-359.0ZM-343.0 -82.0V-649.0H-101.0V-619.0H-313.0V-82.0Z"/></g>
<g fill="black" opacity=".8" transform="translate(500 1600) scale(0.1 -0.1)"><path d="M0.0 0.0 3.0 -553.0H33.0L30.0 -1.0ZM356.0 -354.0 354.0 -384.0 460.0 -386.0V-356.0ZM-343.0 -79.0V-654.0H-104.0V-621.0H-320.0V-79.0Z"/></g>
<g fill="red" transform="translate(600 1600) scale(0.1 -0.1)"><path d="M0.0 0.0 14.0 -550.0H122.0L109.0 -28.0ZM392.0 -312.0V-420.0H487.0V-312.0ZM-351.0 -47.0V-701.0H-63.0V-577.0H-261.0V-47.0Z"/></g>
<g fill="black" opacity=".8" transform="translate(600 1600) scale(0.1 -0.1)"><path d="M0.0 0.0 1.0 -555.0 123.0 -556.0 120.0 -5.0ZM394.0 -315.0 387.0 -422.0H482.0L483.0 -317.0ZM-351.0 -49.0V-695.0H-59.0V-575.0H-254.0V-49.0Z"/></g>
<g fill="red" transform="translate(700 1600) scale(0.1 -0.1)"><path d="M0.0 0.0V-600.0H29.0V0.0ZM163.0 -375.0V-517.0H405.0V-375.0ZM-194.0 -2.0V-569.0H13.0V-539.0H-164.0V-2.0Z"/></g>
<g fill="black" opacity=".8" transform="translate(700 1600) scale(0.1 -0.1)"><path d="M0.0 0.0 1.0 -598.0 24.0 -597.0 25.0 1.0ZM176.0 -375.0 175.0 -507.0 409.0 -508.0V-377.0ZM-196.0 2.0V-566.0H3.0V-533.0H-174.0V2.0Z"/></g>
<g fill="red" transform="translate(800 1600) scale(0.1 -0.1)"><path d="M0.0 0.0V-702.0H77.0V0.0ZM219.0 -405.0V-562.0H475.0V-405.0ZM-216.0 2.0V-652.0H29.0V-528.0H-138.0V2.0Z"/></g>
<g fill="black" opacity=".8" transform="translate(800 1600) scale(0.1 -0.1)"><path d="M0.0 0.0 -2.0 -703.0H83.0L84.0 0.0ZM209.0 -405.0 205.0 -569.0 471.0 -570.0 472.0 -405.0ZM-211.0 0.0V-652.0H40.0V-534.0H-130.0V0.0Z"/></g>
<g fill="red" transform="translate(900 1600) scale(0.1 -0.1)"><path d="M0.0 0.0V-600.0H29.0V0.0ZM420.0 -160.0V-189.0H628.0V-160.0ZM-201.0 -2.0V-569.0H12.0V-539.0H-172.0V-2.0Z"/></g>
<g fill="black" opacity=".8" transform="translate(900 1600) scale(0.1 -0.1)"><path d="M0.0 0.0 2.0 -602.0H27.0L26.0 0.0ZM418.0 -152.0 417.0 -183.0 627.0 -185.0V-154.0ZM-197.0 -4.0V-573.0H19.0V-541.0H-173.0V-4.0Z"/></g>
<g fill="red" transform="translate(1000 1600) scale(0.1 -0.1)"><path d="M0.0 0.0V-702.0H85.0V0.0ZM432.0 -157.0V-225.0H649.0V-157.0ZM-220.0 2.0V-652.0H61.0V-528.0H-137.0V2.0Z"/></g>
<g fill="black" opacity=".8" transform="translate(1000 1600) scale(0.1 -0.1)"><path d="M0.0 0.0 -1.0 -700.0 87.0 -701.0 86.0 -2.0ZM437.0 -164.0 431.0 -228.0 651.0 -229.0V-165.0ZM-223.0 3.0V-648.0H56.0V-524.0H-137.0V3.0Z"/></g>
<g fill="red" transform="translate(1100 1600) scale(0.1 -0.1)"><path d="M0.0 0.0V-305.0H30.0V0.0ZM568.0 -288.0V-628.0H597.0V-288.0ZM386.0 -364.0V-583.0H416.0V-393.0H771.0V-364.0Z"/></g>
<g fill="black" opacity=".8" transform="translate(1100 1600) scale(0.1 -0.1)"><path d="M0.0 0.0V-304.0L35.0 -303.0L36.0 -1.0ZM559.0 -290.0 560.0 -628.0 593.0 -629.0 595.0 -291.0ZM396.0 -370.0V-591.0H424.0V-392.0H774.0V-370.0Z"/></g>
<g fill="red" transform="translate(1200 1600) scale(0.1 -0.1)"><path d="M0.0 0.0V-369.0H118.0V0.0ZM569.0 -351.0V-693.0H700.0V-351.0ZM414.0 -399.0V-636.0H534.0V-494.0H778.0V-399.0Z"/></g>
<g fill="black" opacity=".8" transform="translate(1200 1600) scale(0.1 -0.1)"><path d="M0.0 0.0 -2.0 -372.0H111.0L110.0 -4.0ZM574.0 -348.0 580.0 -691.0 703.0 -692.0 705.0 -348.0ZM402.0 -396.0V-629.0H531.0V-494.0H775.0V-396.0Z"/></g>
<g fill="red" transform="translate(1300 1600) scale(0.1 -0.1)"><path d="M0.0 0.0V-259.0H366.0V0.0ZM273.0 -283.0V-658.0H302.0V-283.0ZM-447.0 -315.0V-649.0H-418.0V-345.0H-90.0V-315.0Z"/></g>
<g fill="black" opacity=".8" transform="translate(1300 1600) scale(0.1 -0.1)"><path d="M0.0 0.0 1.0 -263.0H365.0L364.0 0.0ZM273.0 -278.0V-657.0H303.0L304.0 -278.0ZM-444.0 -316.0V-646.0H-414.0V-341.0H-94.0V-316.0Z"/></g>
<g fill="red" transform="translate(1400 1600) scale(0.1 -0.1)"><path d="M0.0 0.0V-284.0H417.0V0.0ZM254.0 -301.0V-697.0H382.0V-301.0ZM-461.0 -335.0V-688.0H-357.0V-420.0H-99.0V-335.0Z"/></g>
<g fill="black" opacity=".8" transform="translate(1400 1600) scale(0.1 -0.1)"><path d="M0.0 0.0V-280.0L419.0 -279.0L417.0 -1.0ZM253.0 -306.0 255.0 -697.0H380.0L382.0 -307.0ZM-463.0 -333.0V-690.0H-360.0V-423.0H-94.0V-333.0Z"/></g>
<g fill="red" transform="translate(1500 1600) scale(0.1 -0.1)"><path d="M0.0 0.0V-600.0H29.0V0.0ZM135.0 -229.0V-577.0H569.0V-229.0ZM-228.0 -2.0V-569.0H14.0V-539.0H-198.0V-2.0Z"/></g>
<g fill="black" opacity=".8" transform="translate(1500 1600) scale(0.1 -0.1)"><path d="M0.0 0.0V-599.0L24.0 -598.0L26.0 2.0ZM138.0 -230.0 137.0 -572.0 570.0 -574.0 569.0 -231.0ZM-223.0 -2.0V-569.0H16.0V-535.0H-200.0V-2.0Z"/></g>
<g fill="red" transform="translate(1600 1600) scale(0.1 -0.1)"><path d="M0.0 0.0V-702.0H87.0V0.0ZM142.0 -252.0V-628.0H625.0V-252.0ZM-242.0 2.0V-652.0H46.0V-528.0H-152.0V2.0Z"/></g>
<g fill="black" opacity=".8" transform="translate(1600 1600) scale(0.1 -0.1)"><path d="M0.0 0.0 -3.0 -704.0 90.0 -703.0 92.0 1.0ZM141.0 -251.0 139.0 -630.0 624.0 -631.0 625.0 -251.0ZM-245.0 2.0V-650.0H47.0V-530.0H-151.0V2.0Z"/></g>
<g fill="red" transform="translate(100 1700) scale(0.1 -0.1)"><path d="M0.0 0.0V-171.0H259.0V0.0ZM445.0 -230.0V-503.0H474.0V-230.0ZM-215.0 -231.0V-464.0H467.0V-435.0H-187.0V-231.0Z"/></g>
<g fill="black" opacity=".8" transform="translate(100 1700) scale(0.1 -0.1)"><path d="M0.0 0.0V-175.0L250.0 -176.0L251.0 -0.0ZM449.0 -222.0 447.0 -502.0 479.0 -503.0V-223.0ZM-218.0 -228.0V-461.0H464.0V-429.0H-185.0V-228.0Z"/></g>
<g fill="red" transform="translate(200 1700) scale(0.1 -0.1)"><path d="M0.0 0.0V-200.0H283.0V0.0ZM393.0 -248.0V-541.0H538.0V-248.0ZM-249.0 -247.0V-515.0H439.0V-389.0H-112.0V-247.0Z"/></g>
<g fill="black" opacity=".8" transform="translate(200 1700) scale(0.1 -0.1)"><path d="M0.0 0.0 -2.0 -195.0H294.0V-1.0ZM392.0 -256.0 388.0 -540.0H534.0V-256.0ZM-245.0 -249.0V-516.0H444.0V-395.0H-115.0V-249.0Z"/></g>
<g fill="red" transform="translate(300 1700) scale(0.1 -0.1)"><path d="M0.0 0.0V-277.0H285.0V0.0ZM372.0 74.0V-346.0H712.0V74.0ZM-97.0 -15.0V-362.0H332.0V-333.0H-67.0V-15.0Z"/></g>
<g fill="black" opacity=".8" transform="translate(300 1700) scale(0.1 -0.1)"><path d="M0.0 0.0V-266.0H270.0L271.0 1.0ZM379.0 67.0V-335.0L712.0 -337.0L711.0 65.0ZM-84.0 -14.0V-362.0H326.0V-336.0H-70.0V-14.0Z"/></g>
<g fill="red" transform="translate(400 1700) scale(0.1 -0.1)"><path d="M0.0 0.0V-274.0H289.0V0.0ZM341.0 66.0V-355.0H730.0V66.0ZM-128.0 -2.0V-386.0H313.0V-298.0H-28.0V-2.0Z"/></g>
<g fill="black" opacity=".8" transform="translate(400 1700) scale(0.1 -0.1)"><path d="M0.0 0.0 -2.0 -284.0H305.0L306.0 2.0ZM336.0 73.0 332.0 -363.0 729.0 -365.0V73.0ZM-139.0 -4.0V-385.0H320.0V-292.0H-27.0V-4.0Z"/></g>
<g fill="red" transform="translate(500 1700) scale(0.1 -0.1)"><path d="M0.0 0.0V-605.0H31.0V0.0ZM325.0 -301.0V-729.0H354.0V-301.0ZM-206.0 -1.0V-568.0H15.0V-538.0H-176.0V-1.0Z"/></g>
<g fill="black" opacity=".8" transform="translate(500 1700) scale(0.1 -0.1)"><path d="M0.0 0.0 1.0 -599.0 22.0 -598.0V1.0ZM332.0 -306.0 331.0 -727.0 359.0 -728.0 360.0 -307.0ZM-205.0 1.0V-565.0H10.0V-532.0H-180.0V1.0Z"/></g>
<g fill="red" transform="translate(600 1700) scale(0.1 -0.1)"><path d="M0.0 0.0V-689.0H74.0V0.0ZM363.0 -352.0V-784.0H455.0V-352.0ZM-219.0 2.0V-649.0H47.0V-525.0H-137.0V2.0Z"/></g>
<g fill="black" opacity=".8" transform="translate(600 1700) scale(0.1 -0.1)"><path d="M0.0 0.0 -2.0 -695.0H85.0V-0.0ZM358.0 -347.0 356.0 -784.0 449.0 -785.0 450.0 -347.0ZM-218.0 0.0V-650.0H54.0V-531.0H-134.0V0.0Z"/></g>
<g fill="red" transform="translate(700 1700) scale(0.1 -0.1)"><path d="M0.0 0.0V-605.0H30.0V0.0ZM151.0 -276.0V-394.0H373.0V-276.0ZM112.0 -436.0V-728.0H141.0V-466.0H387.0V-436.0Z"/></g>
<g fill="black" opacity=".8" transform="translate(700 1700) scale(0.1 -0.1)"><path d="M0.0 0.0V-602.0L9.0 -601.0L10.0 1.0ZM155.0 -283.0V-387.0L372.0 -388.0L373.0 -284.0ZM132.0 -448.0V-717.0H149.0V-461.0H387.0V-448.0Z"/></g>
<g fill="red" transform="translate(800 1700) scale(0.1 -0.1)"><path d="M0.0 0.0V-689.0H75.0V0.0ZM217.0 -332.0V-478.0H446.0V-332.0ZM193.0 -497.0V-785.0H262.0V-566.0H431.0V-497.0Z"/></g>
<g fill="black" opacity=".8" transform="translate(800 1700) scale(0.1 -0.1)"><path d="M0.0 0.0 -2.0 -693.0 95.0 -692.0 96.0 -0.0ZM212.0 -325.0 216.0 -484.0 446.0 -483.0 447.0 -326.0ZM178.0 -488.0V-795.0H256.0V-566.0H429.0V-488.0Z"/></g>
<g fill="red" transform="translate(900 1700) scale(0.1 -0.1)"><path d="M0.0 0.0V-829.0H30.0V0.0ZM393.0 -99.0V-881.0H422.0V-99.0ZM-381.0 -98.0V-845.0H413.0V-816.0H-350.0V-98.0Z"/></g>
<g fill="black" opacity=".8" transform="translate(900 1700) scale(0.1 -0.1)"><path d="M0.0 0.0 1.0 -816.0H19.0V0.0ZM400.0 -102.0V-869.0L422.0 -871.0V-104.0ZM-369.0 -103.0V-831.0H406.0V-835.0H-357.0V-103.0Z"/></g>
<g fill="red" transform="translate(1000 1700) scale(0.1 -0.1)"><path d="M0.0 0.0V-806.0H134.0V0.0ZM368.0 -81.0V-923.0H503.0V-81.0ZM-359.0 -82.0V-896.0H423.0V-763.0H-227.0V-82.0Z"/></g>
<g fill="black" opacity=".8" transform="translate(1000 1700) scale(0.1 -0.1)"><path d="M0.0 0.0 -1.0 -816.0 147.0 -817.0V-2.0ZM363.0 -78.0 359.0 -932.0 503.0 -933.0V-77.0ZM-368.0 -80.0V-908.0H429.0V-741.0H-218.0V-80.0Z"/></g>
<g fill="red" transform="translate(1100 1700) scale(0.1 -0.1)"><path d="M0.0 0.0V-402.0H29.0V0.0ZM244.0 -91.0V-467.0H273.0V-91.0ZM-243.0 -88.0V-415.0H262.0V-385.0H-213.0V-88.0Z"/></g>
<g fill="black" opacity=".8" transform="translate(1100 1700) scale(0.1 -0.1)"><path d="M0.0 0.0 2.0 -408.0 25.0 -407.0V1.0ZM248.0 -94.0 247.0 -465.0 273.0 -466.0 274.0 -95.0ZM-236.0 -88.0V-411.0H258.0V-372.0H-209.0V-88.0Z"/></g>
<g fill="red" transform="translate(1200 1700) scale(0.1 -0.1)"><path d="M0.0 0.0V-333.0H130.0V0.0ZM215.0 -43.0V-448.0H345.0V-43.0ZM-211.0 -50.0V-398.0H278.0V-272.0H-81.0V-50.0Z"/></g>
<g fill="black" opacity=".8" transform="translate(1200 1700) scale(0.1 -0.1)"><path d="M0.0 0.0 -1.0 -328.0H134.0V-1.0ZM211.0 -40.0 212.0 -447.0 344.0 -448.0 346.0 -40.0ZM-217.0 -50.0V-399.0H286.0V-283.0H-88.0V-50.0Z"/></g>
<g fill="red" transform="translate(1300 1700) scale(0.1 -0.1)"><path d="M0.0 0.0V-803.0H30.0V0.0ZM264.0 -215.0V-885.0H294.0V-215.0ZM-256.0 -216.0V-817.0H287.0V-787.0H-227.0V-216.0Z"/></g>
<g fill="black" opacity=".8" transform="translate(1300 1700) scale(0.1 -0.1)"><path d="M0.0 0.0 1.0 -799.0H31.0L32.0 1.0ZM259.0 -221.0V-882.0L289.0 -883.0V-222.0ZM-246.0 -228.0V-817.0H284.0V-793.0H-212.0V-228.0Z"/></g>
<g fill="red" transform="translate(1400 1700) scale(0.1 -0.1)"><path d="M0.0 0.0V-810.0H146.0V0.0ZM225.0 -222.0V-942.0H372.0V-222.0ZM-224.0 -230.0V-891.0H310.0V-757.0H-81.0V-230.0Z"/></g>
<g fill="black" opacity=".8" transform="translate(1400 1700) scale(0.1 -0.1)"><path d="M0.0 0.0 -2.0 -815.0H144.0L145.0 -0.0ZM229.0 -216.0 228.0 -943.0H378.0V-216.0ZM-235.0 -223.0V-889.0H318.0V-748.0H-96.0V-223.0Z"/></g>
<g fill="red" transform="translate(1500 1700) scale(0.1 -0.1)"><path d="M0.0 0.0V-803.0H30.0V0.0ZM215.0 -220.0V-886.0H245.0V-220.0ZM-209.0 -221.0V-822.0H234.0V-792.0H-180.0V-221.0Z"/></g>
<g fill="black" opacity=".8" transform="translate(1500 1700) scale(0.1 -0.1)"><path d="M0.0 0.0 1.0 -807.0H28.0L29.0 1.0ZM217.0 -223.0 216.0 -882.0 242.0 -883.0 243.0 -224.0ZM-199.0 -226.0V-819.0H224.0V-788.0H-168.0V-226.0Z"/></g>
<g fill="red" transform="translate(1600 1700) scale(0.1 -0.1)"><path d="M0.0 0.0V-810.0H138.0V0.0ZM184.0 -210.0V-930.0H322.0V-210.0ZM-179.0 -218.0V-875.0H247.0V-741.0H-45.0V-218.0Z"/></g>
<g fill="black" opacity=".8" transform="translate(1600 1700) scale(0.1 -0.1)"><path d="M0.0 0.0 -1.0 -808.0H140.0V-0.0ZM182.0 -207.0V-931.0L325.0 -932.0L326.0 -207.0ZM-189.0 -215.0V-875.0H262.0V-743.0H-60.0V-215.0Z"/></g>
<g fill="red" transform="translate(100 1800) scale(0.1 -0.1)"><path d="M0.0 0.0V-322.0H29.0V0.0ZM204.0 76.0V-259.0H233.0V76.0ZM414.0 0.0V-242.0H14.0V-271.0H444.0V0.0Z"/></g>
<g fill="black" opacity=".8" transform="translate(100 1800) scale(0.1 -0.1)"><path d="M0.0 0.0 2.0 -333.0 61.0 -332.0V1.0ZM195.0 71.0 196.0 -269.0 226.0 -270.0 228.0 71.0ZM391.0 -12.0V-229.0H17.0V-277.0H462.0V-12.0Z"/></g>
<g fill="red" transform="translate(200 1800) scale(0.1 -0.1)"><path d="M0.0 0.0V-347.0H121.0V0.0ZM163.0 79.0V-245.0H294.0V79.0ZM337.0 0.0V-180.0H59.0V-301.0H458.0V0.0Z"/></g>
<g fill="black" opacity=".8" transform="translate(200 1800) scale(0.1 -0.1)"><path d="M0.0 0.0 -1.0 -339.0H89.0L88.0 1.0ZM166.0 84.0 173.0 -233.0H302.0L304.0 84.0ZM356.0 10.0V-191.0H61.0V-296.0H442.0V10.0Z"/></g>
<g fill="red" transform="translate(300 1800) scale(0.1 -0.1)"><path d="M0.0 0.0V-252.0H29.0V0.0ZM214.0 218.0V37.0H244.0V218.0ZM341.0 -43.0V-685.0H371.0V-73.0H623.0V-43.0Z"/></g>
<g fill="black" opacity=".8" transform="translate(300 1800) scale(0.1 -0.1)"><path d="M0.0 0.0 1.0 -249.0H32.0L33.0 2.0ZM208.0 225.0V39.0H242.0L244.0 225.0ZM344.0 -38.0V-690.0H371.0V-87.0H623.0V-38.0Z"/></g>
<g fill="red" transform="translate(400 1800) scale(0.1 -0.1)"><path d="M0.0 0.0V-248.0H131.0V0.0ZM240.0 251.0V48.0H390.0V251.0ZM386.0 -17.0V-700.0H525.0V-148.0H660.0V-17.0Z"/></g>
<g fill="black" opacity=".8" transform="translate(400 1800) scale(0.1 -0.1)"><path d="M0.0 0.0 -2.0 -251.0 127.0 -252.0V2.0ZM243.0 245.0 247.0 47.0H390.0L392.0 244.0ZM381.0 -23.0V-694.0H526.0V-133.0H663.0V-23.0Z"/></g>
</svg>
