<?xml version="1.0" encoding="UTF-8"?>
<svg width="1700" height="300" xmlns="http://www.w3.org/2000/svg">
<rect width="100%" height="100%" fill="white"/>
<g fill="green" transform="translate(100 100) scale(0.1 -0.1)"><path d="M-0.0 0.0V-30.0H618.0V0.0ZM-30.0 332.0V302.0H613.0V-106.0H643.0V332.0ZM-14.0 0.0V-383.0C-14.0 -466.0 29.0 -483.0 164.0 -483.0C193.0 -483.0 558.0 -483.0 591.0 -483.0C738.0 -483.0 760.0 -434.0 774.0 -245.0C764.0 -244.0 752.0 -238.0 742.0 -231.0C731.0 -414.0 713.0 -453.0 596.0 -453.0C520.0 -453.0 210.0 -453.0 156.0 -453.0C42.0 -453.0 15.0 -437.0 15.0 -384.0V0.0Z"/></g>
<g fill="green" transform="translate(200 100) scale(0.1 -0.1)"><path d="M0.0 0.0V-146.0H562.0V0.0ZM-85.0 334.0V186.0H473.0V-194.0H631.0V334.0ZM-76.0 0.0V-354.0C-76.0 -518.0 -11.0 -561.0 195.0 -561.0C241.0 -561.0 438.0 -561.0 488.0 -561.0C677.0 -561.0 728.0 -510.0 753.0 -320.0C709.0 -312.0 640.0 -287.0 603.0 -264.0C589.0 -393.0 576.0 -413.0 481.0 -413.0C427.0 -413.0 248.0 -413.0 200.0 -413.0C96.0 -413.0 79.0 -406.0 79.0 -352.0V0.0Z"/></g>
<g fill="green" transform="translate(300 100) scale(0.1 -0.1)"><path d="M0.0 0.0V-22.0H502.0V0.0ZM-23.0 245.0V222.0H501.0V-83.0H523.0V245.0ZM-10.0 0.0V-278.0C-10.0 -343.0 25.0 -357.0 133.0 -357.0C157.0 -357.0 455.0 -357.0 482.0 -357.0C602.0 -357.0 620.0 -318.0 631.0 -168.0C624.0 -168.0 615.0 -163.0 607.0 -158.0C598.0 -303.0 583.0 -334.0 486.0 -334.0C424.0 -334.0 171.0 -334.0 127.0 -334.0C33.0 -334.0 11.0 -321.0 11.0 -279.0V0.0Z"/></g>
<g fill="green" transform="translate(400 100) scale(0.1 -0.1)"><path d="M0.0 0.0V-110.0H459.0V0.0ZM-67.0 251.0V140.0H389.0V-145.0H508.0V251.0ZM-60.0 0.0V-256.0C-60.0 -381.0 -8.0 -413.0 157.0 -413.0C195.0 -413.0 359.0 -413.0 399.0 -413.0C551.0 -413.0 590.0 -376.0 611.0 -235.0C577.0 -229.0 525.0 -210.0 497.0 -194.0C485.0 -288.0 474.0 -302.0 395.0 -302.0C350.0 -302.0 199.0 -302.0 159.0 -302.0C71.0 -302.0 57.0 -296.0 57.0 -255.0V0.0Z"/></g>
<g fill="green" transform="translate(500 100) scale(0.1 -0.1)"><path d="M0.0 0.0V-38.0H456.0V0.0ZM-36.0 429.0V391.0H436.0V-110.0H473.0V429.0ZM-14.0 0.0V-523.0C-14.0 -602.0 17.0 -619.0 124.0 -619.0C146.0 -619.0 393.0 -619.0 420.0 -619.0C529.0 -619.0 546.0 -568.0 555.0 -369.0C542.0 -367.0 527.0 -360.0 516.0 -351.0C509.0 -546.0 498.0 -582.0 420.0 -582.0C368.0 -582.0 157.0 -582.0 119.0 -582.0C40.0 -582.0 23.0 -570.0 23.0 -524.0V0.0Z"/></g>
<g fill="green" transform="translate(600 100) scale(0.1 -0.1)"><path d="M0.0 0.0V-174.0H407.0V0.0ZM-76.0 413.0V239.0H309.0V-232.0H496.0V413.0ZM-74.0 0.0V-494.0C-74.0 -680.0 -20.0 -733.0 154.0 -733.0C189.0 -733.0 303.0 -733.0 341.0 -733.0C495.0 -733.0 545.0 -667.0 567.0 -446.0C515.0 -435.0 433.0 -403.0 394.0 -373.0C385.0 -529.0 376.0 -557.0 324.0 -557.0C295.0 -557.0 204.0 -557.0 180.0 -557.0C125.0 -557.0 115.0 -550.0 115.0 -492.0V0.0Z"/></g>
<g fill="green" transform="translate(700 100) scale(0.1 -0.1)"><path d="M-0.0 0.0V-29.0H615.0V0.0ZM-26.0 333.0V304.0H611.0V-92.0H640.0V333.0ZM-18.0 0.0V-390.0C-18.0 -471.0 25.0 -487.0 159.0 -487.0C189.0 -487.0 566.0 -487.0 599.0 -487.0C738.0 -487.0 759.0 -446.0 772.0 -295.0C763.0 -293.0 750.0 -288.0 741.0 -282.0C730.0 -426.0 713.0 -457.0 603.0 -457.0C525.0 -457.0 206.0 -457.0 151.0 -457.0C38.0 -457.0 10.0 -441.0 10.0 -391.0V0.0Z"/></g>
<g fill="green" transform="translate(800 100) scale(0.1 -0.1)"><path d="M0.0 0.0V-141.0H546.0V0.0ZM-91.0 309.0V160.0H484.0V-196.0H637.0V309.0ZM-75.0 0.0V-353.0C-75.0 -512.0 -9.0 -554.0 193.0 -554.0C238.0 -554.0 438.0 -554.0 487.0 -554.0C680.0 -554.0 729.0 -498.0 752.0 -290.0C711.0 -283.0 644.0 -258.0 606.0 -235.0C593.0 -388.0 579.0 -412.0 481.0 -412.0C427.0 -412.0 245.0 -412.0 197.0 -412.0C91.0 -412.0 74.0 -405.0 74.0 -351.0V0.0Z"/></g>
<g fill="red" transform="translate(100 200) scale(0.1 -0.1)"><path d="M0.0 0.0V-29.0H336.0V0.0ZM-26.0 342.0V313.0H319.0V-73.0H348.0V342.0ZM-15.0 0.0V-424.0C-15.0 -484.0 9.0 -496.0 88.0 -496.0C106.0 -496.0 298.0 -496.0 317.0 -496.0C392.0 -496.0 404.0 -464.0 410.0 -343.0C400.0 -340.0 388.0 -336.0 380.0 -329.0C375.0 -446.0 368.0 -466.0 317.0 -466.0C277.0 -466.0 114.0 -466.0 85.0 -466.0C27.0 -466.0 15.0 -458.0 15.0 -425.0V0.0Z"/></g>
<g fill="black" opacity=".8" transform="translate(100 200) scale(0.1 -0.1)"><path d="M0.0 0.0V-29.0H337.0V0.0ZM-25.0 343.0V313.0H322.0V-73.0H350.0V343.0ZM-14.0 0.0V-425.0C-14.0 -484.0 9.0 -497.0 88.0 -497.0C106.0 -497.0 298.0 -497.0 319.0 -497.0C393.0 -497.0 405.0 -464.0 410.0 -342.0C401.0 -340.0 388.0 -335.0 380.0 -329.0C375.0 -447.0 368.0 -467.0 317.0 -467.0C277.0 -467.0 114.0 -467.0 85.0 -467.0C27.0 -467.0 14.0 -458.0 14.0 -426.0V0.0Z"/></g>
<g fill="red" transform="translate(200 200) scale(0.1 -0.1)"><path d="M0.0 0.0V-133.0H289.0V0.0ZM-63.0 305.0V165.0H237.0V-187.0H381.0V305.0ZM-56.0 0.0V-395.0C-56.0 -538.0 -14.0 -579.0 114.0 -579.0C140.0 -579.0 224.0 -579.0 251.0 -579.0C372.0 -579.0 409.0 -522.0 424.0 -332.0C386.0 -323.0 324.0 -298.0 292.0 -274.0C286.0 -419.0 279.0 -445.0 239.0 -445.0C219.0 -445.0 153.0 -445.0 135.0 -445.0C94.0 -445.0 88.0 -439.0 88.0 -394.0V0.0Z"/></g>
<g fill="black" opacity=".8" transform="translate(200 200) scale(0.1 -0.1)"><path d="M0.0 0.0V-133.0H288.0V0.0ZM-64.0 305.0V167.0H236.0V-185.0H379.0V305.0ZM-57.0 0.0V-395.0C-57.0 -537.0 -15.0 -578.0 114.0 -578.0C140.0 -578.0 224.0 -578.0 251.0 -578.0C372.0 -578.0 408.0 -521.0 424.0 -331.0C385.0 -323.0 322.0 -297.0 291.0 -274.0C285.0 -419.0 277.0 -445.0 238.0 -445.0C218.0 -445.0 152.0 -445.0 136.0 -445.0C95.0 -445.0 88.0 -439.0 88.0 -394.0V0.0Z"/></g>
<g fill="red" transform="translate(300 200) scale(0.1 -0.1)"><path d="M0.0 0.0V-29.0H613.0V0.0ZM-29.0 331.0V302.0H608.0V-98.0H638.0V331.0ZM-16.0 0.0V-386.0C-16.0 -468.0 27.0 -484.0 161.0 -484.0C191.0 -484.0 562.0 -484.0 594.0 -484.0C737.0 -484.0 758.0 -440.0 772.0 -273.0C762.0 -271.0 750.0 -266.0 741.0 -259.0C730.0 -420.0 712.0 -454.0 599.0 -454.0C522.0 -454.0 208.0 -454.0 153.0 -454.0C40.0 -454.0 13.0 -439.0 13.0 -387.0V0.0Z"/></g>
<g fill="black" opacity=".8" transform="translate(300 200) scale(0.1 -0.1)"><path d="M0.0 0.0V-29.0H616.0V0.0ZM-28.0 333.0V303.0H612.0V-98.0H641.0V333.0ZM-16.0 0.0V-387.0C-16.0 -469.0 27.0 -485.0 161.0 -485.0C191.0 -485.0 562.0 -485.0 595.0 -485.0C738.0 -485.0 759.0 -441.0 773.0 -273.0C763.0 -271.0 751.0 -266.0 741.0 -259.0C730.0 -421.0 713.0 -455.0 600.0 -455.0C523.0 -455.0 208.0 -455.0 153.0 -455.0C40.0 -455.0 12.0 -439.0 12.0 -388.0V0.0Z"/></g>
<g fill="red" transform="translate(400 200) scale(0.1 -0.1)"><path d="M0.0 0.0V-143.0H554.0V0.0ZM-87.0 319.0V169.0H482.0V-197.0H637.0V319.0ZM-75.0 0.0V-354.0C-75.0 -516.0 -10.0 -558.0 194.0 -558.0C240.0 -558.0 439.0 -558.0 488.0 -558.0C680.0 -558.0 730.0 -504.0 754.0 -305.0C712.0 -297.0 645.0 -272.0 607.0 -249.0C593.0 -391.0 580.0 -413.0 483.0 -413.0C429.0 -413.0 247.0 -413.0 198.0 -413.0C92.0 -413.0 76.0 -406.0 76.0 -352.0V0.0Z"/></g>
<g fill="black" opacity=".8" transform="translate(400 200) scale(0.1 -0.1)"><path d="M0.0 0.0V-143.0H553.0V0.0ZM-88.0 320.0V172.0H479.0V-195.0H634.0V320.0ZM-75.0 0.0V-353.0C-75.0 -515.0 -10.0 -557.0 194.0 -557.0C239.0 -557.0 438.0 -557.0 487.0 -557.0C679.0 -557.0 729.0 -503.0 752.0 -303.0C710.0 -296.0 642.0 -271.0 605.0 -248.0C591.0 -390.0 578.0 -412.0 481.0 -412.0C427.0 -412.0 246.0 -412.0 198.0 -412.0C93.0 -412.0 76.0 -405.0 76.0 -351.0V0.0Z"/></g>
<g fill="red" transform="translate(500 200) scale(0.1 -0.1)"><path d="M0.0 0.0V-30.0H428.0V0.0ZM-24.0 334.0V304.0H414.0V-85.0H443.0V334.0ZM-14.0 0.0V-397.0C-14.0 -464.0 16.0 -478.0 111.0 -478.0C132.0 -478.0 370.0 -478.0 393.0 -478.0C491.0 -478.0 506.0 -437.0 515.0 -284.0C505.0 -282.0 493.0 -277.0 484.0 -270.0C477.0 -420.0 467.0 -448.0 395.0 -448.0C345.0 -448.0 142.0 -448.0 106.0 -448.0C31.0 -448.0 16.0 -437.0 16.0 -398.0V0.0Z"/></g>
<g fill="black" opacity=".8" transform="translate(500 200) scale(0.1 -0.1)"><path d="M0.0 0.0V-29.0H415.0V0.0ZM-27.0 328.0V299.0H403.0V-86.0H431.0V328.0ZM-12.0 0.0V-396.0C-12.0 -461.0 16.0 -475.0 111.0 -475.0C131.0 -475.0 366.0 -475.0 391.0 -475.0C488.0 -475.0 503.0 -435.0 511.0 -283.0C501.0 -282.0 489.0 -276.0 481.0 -270.0C474.0 -418.0 463.0 -446.0 391.0 -446.0C342.0 -446.0 142.0 -446.0 106.0 -446.0C32.0 -446.0 16.0 -435.0 16.0 -397.0V0.0Z"/></g>
<g fill="red" transform="translate(600 200) scale(0.1 -0.1)"><path d="M0.0 0.0V-133.0H365.0V0.0ZM-71.0 319.0V185.0H288.0V-174.0H435.0V319.0ZM-60.0 0.0V-366.0C-60.0 -513.0 -13.0 -554.0 135.0 -554.0C166.0 -554.0 278.0 -554.0 312.0 -554.0C446.0 -554.0 487.0 -502.0 505.0 -323.0C465.0 -314.0 401.0 -290.0 369.0 -266.0C361.0 -395.0 353.0 -417.0 300.0 -417.0C271.0 -417.0 177.0 -417.0 152.0 -417.0C96.0 -417.0 87.0 -411.0 87.0 -365.0V0.0Z"/></g>
<g fill="black" opacity=".8" transform="translate(600 200) scale(0.1 -0.1)"><path d="M0.0 0.0V-134.0H370.0V0.0ZM-66.0 313.0V177.0H298.0V-181.0H443.0V313.0ZM-61.0 0.0V-370.0C-61.0 -516.0 -14.0 -556.0 136.0 -556.0C168.0 -556.0 283.0 -556.0 317.0 -556.0C454.0 -556.0 494.0 -505.0 513.0 -327.0C473.0 -319.0 409.0 -294.0 378.0 -272.0C369.0 -399.0 360.0 -421.0 306.0 -421.0C276.0 -421.0 178.0 -421.0 153.0 -421.0C94.0 -421.0 84.0 -415.0 84.0 -368.0V0.0Z"/></g>
<g fill="red" transform="translate(700 200) scale(0.1 -0.1)"><path d="M0.0 0.0V-29.0H348.0V0.0ZM-31.0 331.0V302.0H332.0V-87.0H361.0V331.0ZM-10.0 0.0V-406.0C-10.0 -468.0 14.0 -481.0 96.0 -481.0C114.0 -481.0 303.0 -481.0 323.0 -481.0C409.0 -481.0 422.0 -441.0 429.0 -283.0C419.0 -281.0 408.0 -276.0 399.0 -269.0C394.0 -423.0 385.0 -452.0 324.0 -452.0C284.0 -452.0 122.0 -452.0 93.0 -452.0C32.0 -452.0 19.0 -443.0 19.0 -407.0V0.0Z"/></g>
<g fill="black" opacity=".8" transform="translate(700 200) scale(0.1 -0.1)"><path d="M0.0 0.0V-29.0H354.0V0.0ZM-29.0 335.0V304.0H339.0V-87.0H368.0V335.0ZM-10.0 0.0V-407.0C-10.0 -469.0 14.0 -483.0 97.0 -483.0C114.0 -483.0 304.0 -483.0 326.0 -483.0C411.0 -483.0 425.0 -442.0 431.0 -282.0C421.0 -282.0 409.0 -276.0 401.0 -269.0C395.0 -425.0 387.0 -453.0 325.0 -453.0C285.0 -453.0 123.0 -453.0 93.0 -453.0C31.0 -453.0 18.0 -444.0 18.0 -408.0V0.0Z"/></g>
<g fill="red" transform="translate(800 200) scale(0.1 -0.1)"><path d="M0.0 0.0V-137.0H320.0V0.0ZM-56.0 322.0V184.0H244.0V-185.0H390.0V322.0ZM-58.0 0.0V-387.0C-58.0 -533.0 -16.0 -574.0 120.0 -574.0C148.0 -574.0 237.0 -574.0 267.0 -574.0C388.0 -574.0 427.0 -523.0 444.0 -354.0C404.0 -345.0 341.0 -320.0 310.0 -297.0C303.0 -415.0 296.0 -437.0 255.0 -437.0C232.0 -437.0 160.0 -437.0 140.0 -437.0C96.0 -437.0 89.0 -431.0 89.0 -386.0V0.0Z"/></g>
<g fill="black" opacity=".8" transform="translate(800 200) scale(0.1 -0.1)"><path d="M0.0 0.0V-136.0H317.0V0.0ZM-59.0 324.0V189.0H239.0V-180.0H385.0V324.0ZM-58.0 0.0V-385.0C-58.0 -531.0 -16.0 -572.0 120.0 -572.0C148.0 -572.0 236.0 -572.0 265.0 -572.0C385.0 -572.0 423.0 -521.0 441.0 -351.0C400.0 -343.0 336.0 -317.0 306.0 -295.0C298.0 -414.0 291.0 -435.0 252.0 -435.0C229.0 -435.0 159.0 -435.0 141.0 -435.0C98.0 -435.0 90.0 -429.0 90.0 -384.0V0.0Z"/></g>
</svg>
