<?xml version="1.0" encoding="UTF-8"?>
<svg width="1700" height="300" xmlns="http://www.w3.org/2000/svg">
<rect width="100%" height="100%" fill="white"/>
<g fill="green" transform="translate(100 100) scale(0.1 -0.1)"><path d="M0.0 0.0V-29.0H883.0V0.0ZM279.0 620.0V591.0H699.0V620.0ZM170.0 249.0V219.0H629.0V249.0ZM694.0 620.0C658.0 429.0 595.0 141.0 551.0 -15.0H582.0C623.0 138.0 684.0 424.0 724.0 620.0ZM323.0 804.0C276.0 628.0 197.0 364.0 143.0 219.0H176.0C226.0 361.0 305.0 621.0 354.0 800.0Z"/></g>
<g fill="green" transform="translate(200 100) scale(0.1 -0.1)"><path d="M0.0 0.0V-143.0H923.0V0.0ZM296.0 595.0V452.0H688.0V595.0ZM187.0 253.0V113.0H642.0V253.0ZM649.0 595.0C617.0 376.0 559.0 106.0 509.0 -70.0H679.0C720.0 99.0 774.0 368.0 812.0 595.0ZM252.0 761.0C207.0 548.0 133.0 280.0 75.0 113.0H242.0C290.0 269.0 357.0 526.0 409.0 741.0Z"/></g>
<g fill="green" transform="translate(300 100) scale(0.1 -0.1)"><path d="M0.0 0.0V-11.0H457.0V0.0ZM185.0 284.0V273.0H340.0V284.0ZM85.0 117.0 87.0 105.0H312.0V117.0ZM382.0 385.0C349.0 280.0 299.0 121.0 267.0 37.0L281.0 33.0C312.0 115.0 361.0 273.0 396.0 382.0ZM198.0 352.0C175.0 262.0 135.0 126.0 108.0 52.0H121.0C146.0 125.0 186.0 259.0 211.0 350.0Z"/></g>
<g fill="green" transform="translate(400 100) scale(0.1 -0.1)"><path d="M0.0 0.0V-64.0H484.0V0.0ZM189.0 264.0V198.0H332.0V264.0ZM95.0 119.0 101.0 57.0H320.0V119.0ZM362.0 389.0C333.0 266.0 286.0 116.0 252.0 19.0L335.0 0.0C365.0 93.0 410.0 243.0 442.0 372.0ZM161.0 327.0C140.0 218.0 104.0 82.0 76.0 -3.0H144.0C167.0 77.0 200.0 208.0 225.0 319.0Z"/></g>
<g fill="green" transform="translate(500 100) scale(0.1 -0.1)"><path d="M0.0 0.0V-47.0H758.0V0.0ZM-3.0 751.0V704.0H731.0V751.0ZM163.0 286.0 152.0 238.0H620.0V286.0ZM457.0 148.0C511.0 22.0 562.0 -167.0 580.0 -280.0L618.0 -256.0C598.0 -144.0 546.0 42.0 494.0 168.0ZM91.0 1073.0C45.0 914.0 -28.0 686.0 -81.0 553.0H-29.0C20.0 681.0 92.0 903.0 138.0 1066.0Z"/></g>
<g fill="green" transform="translate(600 100) scale(0.1 -0.1)"><path d="M0.0 0.0V-183.0H755.0V0.0ZM38.0 774.0V603.0H733.0V774.0ZM169.0 287.0 133.0 108.0H625.0V287.0ZM401.0 26.0C447.0 -104.0 497.0 -275.0 506.0 -390.0L680.0 -278.0C662.0 -166.0 609.0 -1.0 565.0 127.0ZM32.0 1053.0C-18.0 861.0 -96.0 618.0 -157.0 465.0H97.0C147.0 604.0 216.0 832.0 269.0 1021.0Z"/></g>
<g fill="red" transform="translate(100 200) scale(0.1 -0.1)"><path d="M0.0 0.0V-29.0H883.0V0.0ZM279.0 620.0V591.0H699.0V620.0ZM170.0 249.0V219.0H629.0V249.0ZM694.0 620.0C658.0 429.0 595.0 141.0 551.0 -15.0H582.0C623.0 138.0 684.0 424.0 724.0 620.0ZM323.0 804.0C276.0 628.0 197.0 364.0 143.0 219.0H176.0C226.0 361.0 305.0 621.0 354.0 800.0Z"/></g>
<g fill="black" opacity=".8" transform="translate(100 200) scale(0.1 -0.1)"><path d="M0.0 0.0V-29.0H883.0V0.0ZM279.0 620.0V591.0H699.0V620.0ZM170.0 249.0V219.0H629.0V249.0ZM694.0 620.0C658.0 429.0 595.0 141.0 551.0 -15.0H582.0C623.0 138.0 684.0 424.0 724.0 620.0ZM323.0 804.0C276.0 628.0 197.0 364.0 143.0 219.0H176.0C226.0 361.0 305.0 621.0 354.0 800.0Z"/></g>
<g fill="red" transform="translate(200 200) scale(0.1 -0.1)"><path d="M0.0 0.0V-143.0H923.0V0.0ZM296.0 595.0V452.0H688.0V595.0ZM187.0 253.0V113.0H642.0V253.0ZM649.0 595.0C617.0 376.0 559.0 106.0 509.0 -70.0H679.0C720.0 99.0 774.0 368.0 812.0 595.0ZM252.0 761.0C207.0 548.0 133.0 280.0 75.0 113.0H242.0C290.0 269.0 357.0 526.0 409.0 741.0Z"/></g>
<g fill="black" opacity=".8" transform="translate(200 200) scale(0.1 -0.1)"><path d="M0.0 0.0V-143.0H923.0V0.0ZM296.0 595.0V452.0H688.0V595.0ZM187.0 253.0V113.0H642.0V253.0ZM649.0 595.0C617.0 376.0 559.0 106.0 509.0 -70.0H679.0C720.0 99.0 774.0 368.0 812.0 595.0ZM252.0 761.0C207.0 548.0 133.0 280.0 75.0 113.0H242.0C290.0 269.0 357.0 526.0 409.0 741.0Z"/></g>
<g fill="red" transform="translate(300 200) scale(0.1 -0.1)"><path d="M0.0 0.0V-29.0H332.0V0.0ZM-97.0 415.0V386.0H372.0V415.0ZM78.0 154.0 69.0 124.0H303.0V154.0ZM145.0 -87.0C202.0 -127.0 266.0 -187.0 296.0 -228.0L317.0 -208.0C287.0 -167.0 223.0 -109.0 166.0 -70.0ZM-34.0 621.0C-56.0 548.0 -90.0 448.0 -116.0 386.0H-84.0C-60.0 445.0 -27.0 541.0 -5.0 616.0Z"/></g>
<g fill="black" opacity=".8" transform="translate(300 200) scale(0.1 -0.1)"><path d="M0.0 0.0V-29.0H332.0V0.0ZM-97.0 415.0V386.0H372.0V415.0ZM78.0 154.0 69.0 124.0H303.0V154.0ZM145.0 -87.0C202.0 -127.0 266.0 -187.0 296.0 -228.0L317.0 -208.0C287.0 -167.0 223.0 -109.0 166.0 -70.0ZM-34.0 621.0C-56.0 548.0 -90.0 448.0 -116.0 386.0H-84.0C-60.0 445.0 -27.0 541.0 -5.0 616.0Z"/></g>
<g fill="red" transform="translate(400 200) scale(0.1 -0.1)"><path d="M0.0 0.0V-104.0H316.0V0.0ZM-69.0 443.0V349.0H377.0V443.0ZM77.0 153.0 47.0 52.0H303.0V153.0ZM114.0 -180.0C163.0 -214.0 224.0 -265.0 249.0 -301.0L336.0 -208.0C307.0 -172.0 245.0 -126.0 195.0 -96.0ZM-59.0 619.0C-85.0 531.0 -125.0 420.0 -156.0 349.0H-1.0C24.0 412.0 59.0 514.0 85.0 599.0Z"/></g>
<g fill="black" opacity=".8" transform="translate(400 200) scale(0.1 -0.1)"><path d="M0.0 0.0V-104.0H316.0V0.0ZM-69.0 443.0V349.0H377.0V443.0ZM77.0 153.0 47.0 52.0H303.0V153.0ZM114.0 -180.0C163.0 -214.0 224.0 -265.0 249.0 -301.0L336.0 -208.0C307.0 -172.0 245.0 -126.0 195.0 -96.0ZM-59.0 619.0C-85.0 531.0 -125.0 420.0 -156.0 349.0H-1.0C24.0 412.0 59.0 514.0 85.0 599.0Z"/></g>
</svg>
