<?xml version="1.0" encoding="UTF-8"?>
<svg width="1700" height="600" xmlns="http://www.w3.org/2000/svg">
<rect width="100%" height="100%" fill="white"/>
<g fill="green" transform="translate(100 100) scale(0.1 -0.1)"><path d="M-0.0 0.0C-74.0 -155.0 -223.0 -284.0 -378.0 -363.0C-368.0 -370.0 -352.0 -386.0 -345.0 -394.0C-191.0 -309.0 -40.0 -177.0 41.0 -12.0ZM482.0 -354.0C372.0 -400.0 182.0 -414.0 3.0 -437.0C15.0 -446.0 27.0 -458.0 35.0 -467.0C211.0 -441.0 405.0 -431.0 520.0 -373.0ZM415.0 -721.0C308.0 -866.0 68.0 -960.0 -209.0 -1005.0C-202.0 -1015.0 -189.0 -1030.0 -184.0 -1040.0C92.0 -992.0 339.0 -896.0 457.0 -740.0Z"/></g>
<g fill="green" transform="translate(200 100) scale(0.1 -0.1)"><path d="M0.0 0.0C-62.0 -157.0 -206.0 -280.0 -380.0 -349.0C-338.0 -381.0 -272.0 -449.0 -243.0 -488.0C-53.0 -396.0 107.0 -245.0 195.0 -44.0ZM465.0 -327.0C369.0 -370.0 183.0 -366.0 32.0 -361.0C90.0 -388.0 153.0 -436.0 190.0 -470.0C360.0 -461.0 550.0 -480.0 685.0 -419.0ZM410.0 -715.0C308.0 -817.0 95.0 -869.0 -146.0 -888.0C-112.0 -927.0 -65.0 -994.0 -44.0 -1038.0C227.0 -1006.0 455.0 -943.0 593.0 -802.0Z"/></g>
<g fill="green" transform="translate(300 100) scale(0.1 -0.1)"><path d="M-0.0 0.0C-43.0 -120.0 -135.0 -215.0 -242.0 -275.0C-235.0 -280.0 -222.0 -292.0 -218.0 -297.0C-112.0 -232.0 -18.0 -135.0 30.0 -7.0ZM470.0 -254.0C391.0 -263.0 256.0 -240.0 127.0 -242.0C135.0 -249.0 144.0 -257.0 150.0 -263.0C276.0 -259.0 414.0 -287.0 497.0 -268.0ZM368.0 -511.0C296.0 -605.0 125.0 -656.0 -78.0 -679.0C-74.0 -686.0 -64.0 -697.0 -61.0 -704.0C140.0 -680.0 318.0 -628.0 399.0 -525.0Z"/></g>
<g fill="green" transform="translate(400 100) scale(0.1 -0.1)"><path d="M0.0 0.0C-35.0 -125.0 -126.0 -219.0 -254.0 -272.0C-226.0 -292.0 -176.0 -342.0 -155.0 -368.0C-16.0 -298.0 91.0 -180.0 142.0 -19.0ZM456.0 -224.0C386.0 -235.0 251.0 -200.0 143.0 -179.0C187.0 -194.0 234.0 -223.0 263.0 -244.0C384.0 -258.0 524.0 -312.0 624.0 -292.0ZM369.0 -506.0C299.0 -562.0 148.0 -580.0 -31.0 -581.0C-11.0 -607.0 20.0 -653.0 33.0 -682.0C235.0 -676.0 400.0 -652.0 497.0 -569.0Z"/></g>
<g fill="green" transform="translate(500 100) scale(0.1 -0.1)"><path d="M0.0 0.0C-154.0 -174.0 -431.0 -311.0 -683.0 -387.0C-674.0 -395.0 -658.0 -416.0 -651.0 -425.0C-397.0 -338.0 -120.0 -198.0 42.0 -14.0ZM216.0 -248.0C26.0 -316.0 -316.0 -325.0 -626.0 -335.0C-615.0 -347.0 -605.0 -364.0 -599.0 -373.0C-291.0 -358.0 55.0 -351.0 254.0 -274.0ZM253.0 -444.0C33.0 -638.0 -419.0 -729.0 -911.0 -762.0C-905.0 -775.0 -893.0 -796.0 -891.0 -808.0C-399.0 -770.0 66.0 -676.0 292.0 -469.0Z"/></g>
<g fill="green" transform="translate(600 100) scale(0.1 -0.1)"><path d="M0.0 0.0C-118.0 -160.0 -421.0 -273.0 -687.0 -325.0C-640.0 -368.0 -574.0 -446.0 -543.0 -491.0C-255.0 -412.0 41.0 -265.0 209.0 -47.0ZM222.0 -228.0C42.0 -287.0 -310.0 -275.0 -601.0 -255.0C-550.0 -295.0 -499.0 -359.0 -471.0 -401.0C-160.0 -410.0 189.0 -430.0 426.0 -344.0ZM248.0 -452.0C34.0 -596.0 -396.0 -636.0 -830.0 -639.0C-799.0 -690.0 -761.0 -771.0 -748.0 -823.0C-281.0 -812.0 156.0 -759.0 432.0 -568.0Z"/></g>
<g fill="green" transform="translate(700 100) scale(0.1 -0.1)"><path d="M0.0 0.0C24.0 -120.0 78.0 -272.0 103.0 -367.0C115.0 -370.0 132.0 -377.0 144.0 -383.0C116.0 -285.0 64.0 -129.0 38.0 0.0ZM33.0 -356.0C5.0 -440.0 -47.0 -524.0 -118.0 -582.0C-107.0 -588.0 -93.0 -596.0 -86.0 -603.0C-19.0 -542.0 37.0 -460.0 66.0 -366.0ZM-7.0 -809.0C-7.0 -923.0 -37.0 -1032.0 -102.0 -1097.0C-96.0 -1103.0 -82.0 -1113.0 -74.0 -1119.0C-9.0 -1054.0 21.0 -941.0 32.0 -820.0Z"/></g>
<g fill="green" transform="translate(800 100) scale(0.1 -0.1)"><path d="M0.0 0.0C55.0 -119.0 119.0 -251.0 156.0 -335.0C211.0 -352.0 284.0 -384.0 326.0 -411.0C310.0 -296.0 250.0 -143.0 196.0 12.0ZM29.0 -340.0C12.0 -414.0 -21.0 -479.0 -65.0 -522.0C-17.0 -542.0 39.0 -579.0 72.0 -609.0C132.0 -546.0 175.0 -482.0 207.0 -386.0ZM10.0 -803.0C20.0 -879.0 31.0 -966.0 2.0 -1016.0C37.0 -1038.0 88.0 -1082.0 114.0 -1112.0C161.0 -1043.0 166.0 -948.0 162.0 -847.0Z"/></g>
<g fill="green" transform="translate(900 100) scale(0.1 -0.1)"><path d="M-0.0 0.0C-75.0 -201.0 -236.0 -352.0 -428.0 -445.0C-417.0 -452.0 -400.0 -468.0 -393.0 -476.0C-204.0 -376.0 -39.0 -224.0 43.0 -9.0ZM307.0 -316.0C215.0 -379.0 47.0 -412.0 -114.0 -440.0C-103.0 -449.0 -91.0 -462.0 -83.0 -472.0C76.0 -439.0 249.0 -405.0 346.0 -333.0ZM590.0 -744.0C481.0 -867.0 222.0 -921.0 -83.0 -941.0C-76.0 -952.0 -63.0 -968.0 -59.0 -979.0C245.0 -956.0 512.0 -900.0 635.0 -766.0Z"/></g>
<g fill="green" transform="translate(1000 100) scale(0.1 -0.1)"><path d="M0.0 0.0C-59.0 -202.0 -206.0 -352.0 -413.0 -435.0C-374.0 -465.0 -304.0 -539.0 -276.0 -577.0C-55.0 -468.0 116.0 -282.0 199.0 -30.0ZM335.0 -327.0C252.0 -364.0 85.0 -372.0 -47.0 -375.0C3.0 -404.0 59.0 -455.0 91.0 -490.0C237.0 -477.0 408.0 -469.0 524.0 -409.0ZM624.0 -744.0C511.0 -821.0 271.0 -840.0 -3.0 -836.0C23.0 -873.0 63.0 -939.0 79.0 -981.0C384.0 -981.0 644.0 -955.0 794.0 -841.0Z"/></g>
<g fill="green" transform="translate(1100 100) scale(0.1 -0.1)"><path d="M-0.0 0.0C-108.0 -20.0 -317.0 -52.0 -453.0 -70.0C-447.0 -77.0 -440.0 -91.0 -435.0 -100.0C-294.0 -82.0 -89.0 -46.0 31.0 -25.0ZM474.0 -359.0C361.0 -415.0 162.0 -448.0 -20.0 -474.0C-11.0 -483.0 -2.0 -494.0 5.0 -502.0C186.0 -472.0 389.0 -443.0 507.0 -377.0ZM384.0 -780.0C300.0 -881.0 117.0 -962.0 -76.0 -1003.0C-69.0 -1012.0 -56.0 -1025.0 -53.0 -1033.0C139.0 -990.0 324.0 -909.0 422.0 -798.0Z"/></g>
<g fill="green" transform="translate(1200 100) scale(0.1 -0.1)"><path d="M0.0 0.0C-122.0 -25.0 -340.0 -56.0 -500.0 -72.0C-472.0 -106.0 -441.0 -162.0 -426.0 -201.0C-254.0 -182.0 -37.0 -150.0 124.0 -109.0ZM396.0 -320.0C297.0 -397.0 104.0 -430.0 -61.0 -447.0C-8.0 -479.0 51.0 -532.0 84.0 -571.0C271.0 -534.0 464.0 -508.0 602.0 -408.0ZM368.0 -757.0C289.0 -833.0 132.0 -893.0 -23.0 -920.0C12.0 -957.0 60.0 -1016.0 83.0 -1054.0C255.0 -1018.0 421.0 -953.0 529.0 -854.0Z"/></g>
<g fill="green" transform="translate(1300 100) scale(0.1 -0.1)"><path d="M0.0 0.0C-68.0 -169.0 -214.0 -302.0 -385.0 -385.0C-375.0 -394.0 -357.0 -412.0 -350.0 -420.0C-183.0 -330.0 -29.0 -194.0 45.0 -14.0ZM480.0 -277.0C384.0 -410.0 207.0 -507.0 14.0 -575.0C27.0 -584.0 42.0 -599.0 50.0 -609.0C240.0 -535.0 423.0 -439.0 524.0 -294.0ZM464.0 -533.0C359.0 -790.0 111.0 -955.0 -224.0 -1039.0C-214.0 -1050.0 -199.0 -1067.0 -193.0 -1077.0C139.0 -986.0 397.0 -820.0 510.0 -549.0Z"/></g>
<g fill="green" transform="translate(1400 100) scale(0.1 -0.1)"><path d="M0.0 0.0C-71.0 -143.0 -197.0 -254.0 -374.0 -319.0C-334.0 -351.0 -265.0 -426.0 -238.0 -466.0C-52.0 -381.0 105.0 -242.0 195.0 -59.0ZM442.0 -258.0C362.0 -357.0 206.0 -414.0 44.0 -447.0C97.0 -475.0 167.0 -535.0 204.0 -571.0C382.0 -519.0 555.0 -460.0 666.0 -331.0ZM392.0 -554.0C293.0 -731.0 89.0 -840.0 -172.0 -897.0C-132.0 -935.0 -70.0 -1015.0 -43.0 -1062.0C248.0 -980.0 475.0 -847.0 606.0 -618.0Z"/></g>
<g fill="green" transform="translate(1500 100) scale(0.1 -0.1)"><path d="M0.0 0.0C-67.0 -169.0 -216.0 -306.0 -377.0 -389.0C-369.0 -396.0 -354.0 -410.0 -349.0 -416.0C-189.0 -328.0 -40.0 -189.0 36.0 -11.0ZM437.0 -370.0C349.0 -396.0 203.0 -408.0 80.0 -428.0C91.0 -435.0 100.0 -445.0 108.0 -453.0C230.0 -431.0 377.0 -422.0 469.0 -387.0ZM409.0 -709.0C306.0 -849.0 87.0 -952.0 -168.0 -1001.0C-162.0 -1010.0 -152.0 -1022.0 -147.0 -1031.0C108.0 -979.0 335.0 -873.0 443.0 -725.0Z"/></g>
<g fill="green" transform="translate(1600 100) scale(0.1 -0.1)"><path d="M0.0 0.0C-71.0 -178.0 -229.0 -314.0 -433.0 -388.0C-406.0 -414.0 -353.0 -476.0 -333.0 -508.0C-117.0 -414.0 62.0 -252.0 157.0 -35.0ZM402.0 -381.0C327.0 -402.0 184.0 -392.0 80.0 -385.0C130.0 -406.0 181.0 -442.0 213.0 -468.0C330.0 -466.0 474.0 -490.0 579.0 -458.0ZM368.0 -718.0C270.0 -837.0 67.0 -890.0 -174.0 -911.0C-143.0 -947.0 -105.0 -1007.0 -88.0 -1049.0C186.0 -1010.0 401.0 -944.0 531.0 -783.0Z"/></g>
<g fill="green" transform="translate(100 200) scale(0.1 -0.1)"><path d="M-0.0 0.0C-96.0 -152.0 -258.0 -274.0 -426.0 -349.0C-415.0 -356.0 -400.0 -371.0 -392.0 -379.0C-230.0 -300.0 -63.0 -174.0 36.0 -13.0ZM482.0 -342.0C360.0 -383.0 165.0 -413.0 4.0 -446.0C17.0 -454.0 28.0 -465.0 37.0 -473.0C194.0 -441.0 391.0 -414.0 517.0 -361.0ZM369.0 -741.0C250.0 -836.0 25.0 -928.0 -168.0 -980.0C-161.0 -988.0 -149.0 -1001.0 -143.0 -1010.0C50.0 -957.0 275.0 -863.0 406.0 -761.0Z"/></g>
<g fill="green" transform="translate(200 200) scale(0.1 -0.1)"><path d="M0.0 0.0C-73.0 -171.0 -213.0 -304.0 -380.0 -379.0C-324.0 -423.0 -251.0 -501.0 -217.0 -548.0C-37.0 -446.0 112.0 -284.0 210.0 -72.0ZM499.0 -299.0C390.0 -358.0 183.0 -380.0 37.0 -393.0C101.0 -428.0 168.0 -482.0 207.0 -522.0C364.0 -493.0 565.0 -481.0 715.0 -408.0ZM429.0 -695.0C308.0 -793.0 73.0 -864.0 -138.0 -898.0C-96.0 -943.0 -46.0 -1011.0 -21.0 -1058.0C205.0 -1011.0 443.0 -928.0 599.0 -802.0Z"/></g>
<g fill="green" transform="translate(300 200) scale(0.1 -0.1)"><path d="M0.0 0.0C-75.0 -158.0 -238.0 -283.0 -410.0 -358.0C-400.0 -366.0 -385.0 -381.0 -378.0 -390.0C-206.0 -309.0 -43.0 -183.0 42.0 -14.0ZM442.0 -373.0C341.0 -412.0 162.0 -425.0 -8.0 -442.0C4.0 -451.0 16.0 -464.0 25.0 -474.0C193.0 -453.0 375.0 -443.0 481.0 -391.0ZM416.0 -719.0C308.0 -863.0 62.0 -957.0 -238.0 -998.0C-230.0 -1008.0 -219.0 -1023.0 -213.0 -1034.0C87.0 -991.0 343.0 -893.0 458.0 -738.0Z"/></g>
<g fill="green" transform="translate(400 200) scale(0.1 -0.1)"><path d="M0.0 0.0C-58.0 -153.0 -192.0 -271.0 -367.0 -336.0C-328.0 -366.0 -266.0 -432.0 -239.0 -470.0C-42.0 -385.0 112.0 -244.0 198.0 -47.0ZM453.0 -357.0C374.0 -378.0 212.0 -368.0 90.0 -357.0C146.0 -383.0 204.0 -428.0 240.0 -461.0C388.0 -460.0 551.0 -486.0 670.0 -445.0ZM395.0 -724.0C304.0 -822.0 101.0 -868.0 -135.0 -882.0C-99.0 -922.0 -55.0 -987.0 -35.0 -1035.0C248.0 -1001.0 462.0 -945.0 592.0 -799.0Z"/></g>
<g fill="red" transform="translate(100 300) scale(0.1 -0.1)"><path d="M0.0 0.0C-161.0 -68.0 -435.0 -123.0 -644.0 -148.0C-638.0 -155.0 -632.0 -169.0 -628.0 -176.0C-416.0 -147.0 -145.0 -89.0 24.0 -20.0ZM1.0 -206.0C-144.0 -281.0 -395.0 -343.0 -597.0 -374.0C-590.0 -381.0 -584.0 -394.0 -579.0 -401.0C-376.0 -368.0 -125.0 -302.0 26.0 -224.0ZM73.0 -410.0C-98.0 -520.0 -403.0 -608.0 -670.0 -651.0C-664.0 -659.0 -657.0 -672.0 -654.0 -680.0C-385.0 -634.0 -79.0 -543.0 96.0 -429.0Z"/></g>
<g fill="black" opacity=".8" transform="translate(100 300) scale(0.1 -0.1)"><path d="M0.0 0.0C-159.0 -64.0 -431.0 -119.0 -638.0 -144.0C-633.0 -151.0 -626.0 -164.0 -621.0 -171.0C-413.0 -144.0 -145.0 -86.0 23.0 -21.0ZM3.0 -210.0C-142.0 -281.0 -395.0 -346.0 -597.0 -375.0C-589.0 -383.0 -585.0 -396.0 -579.0 -402.0C-376.0 -370.0 -124.0 -304.0 27.0 -228.0ZM75.0 -416.0C-95.0 -517.0 -398.0 -604.0 -671.0 -645.0C-666.0 -653.0 -659.0 -666.0 -656.0 -673.0C-381.0 -631.0 -75.0 -541.0 97.0 -435.0Z"/></g>
<g fill="red" transform="translate(200 300) scale(0.1 -0.1)"><path d="M0.0 0.0C-139.0 -65.0 -420.0 -114.0 -623.0 -131.0C-589.0 -172.0 -557.0 -230.0 -540.0 -269.0C-325.0 -241.0 -60.0 -183.0 125.0 -95.0ZM6.0 -201.0C-128.0 -281.0 -391.0 -339.0 -592.0 -364.0C-558.0 -404.0 -523.0 -461.0 -506.0 -501.0C-294.0 -462.0 -43.0 -392.0 129.0 -289.0ZM80.0 -395.0C-81.0 -511.0 -389.0 -588.0 -640.0 -625.0C-605.0 -668.0 -571.0 -727.0 -554.0 -769.0C-293.0 -720.0 3.0 -631.0 207.0 -491.0Z"/></g>
<g fill="black" opacity=".8" transform="translate(200 300) scale(0.1 -0.1)"><path d="M0.0 0.0C-140.0 -63.0 -421.0 -113.0 -622.0 -130.0C-586.0 -173.0 -555.0 -232.0 -538.0 -271.0C-322.0 -244.0 -61.0 -187.0 126.0 -99.0ZM5.0 -207.0C-128.0 -288.0 -391.0 -346.0 -592.0 -373.0C-555.0 -415.0 -522.0 -471.0 -503.0 -512.0C-293.0 -472.0 -45.0 -403.0 130.0 -298.0ZM88.0 -395.0C-76.0 -516.0 -388.0 -585.0 -649.0 -616.0C-614.0 -660.0 -583.0 -719.0 -568.0 -762.0C-291.0 -717.0 8.0 -638.0 214.0 -491.0Z"/></g>
<g fill="red" transform="translate(300 300) scale(0.1 -0.1)"><path d="M0.0 0.0C-73.0 -177.0 -217.0 -306.0 -393.0 -384.0C-385.0 -390.0 -373.0 -402.0 -369.0 -407.0C-196.0 -324.0 -49.0 -194.0 29.0 -7.0ZM115.0 -219.0C44.0 -279.0 -80.0 -335.0 -185.0 -367.0C-177.0 -373.0 -169.0 -383.0 -163.0 -390.0C-58.0 -355.0 67.0 -296.0 141.0 -232.0ZM343.0 -453.0C230.0 -568.0 1.0 -642.0 -252.0 -674.0C-246.0 -681.0 -240.0 -692.0 -236.0 -700.0C18.0 -665.0 254.0 -588.0 369.0 -468.0Z"/></g>
<g fill="black" opacity=".8" transform="translate(300 300) scale(0.1 -0.1)"><path d="M0.0 0.0C-73.0 -178.0 -217.0 -307.0 -396.0 -384.0C-388.0 -391.0 -374.0 -402.0 -368.0 -407.0C-195.0 -325.0 -47.0 -196.0 30.0 -7.0ZM115.0 -215.0C43.0 -276.0 -85.0 -332.0 -195.0 -366.0C-186.0 -372.0 -178.0 -383.0 -171.0 -390.0C-62.0 -353.0 67.0 -294.0 143.0 -227.0ZM340.0 -452.0C229.0 -567.0 3.0 -643.0 -246.0 -678.0C-240.0 -685.0 -232.0 -696.0 -228.0 -704.0C21.0 -668.0 254.0 -589.0 367.0 -468.0Z"/></g>
<g fill="red" transform="translate(400 300) scale(0.1 -0.1)"><path d="M0.0 0.0C-55.0 -174.0 -176.0 -304.0 -345.0 -374.0C-313.0 -401.0 -258.0 -459.0 -236.0 -489.0C-62.0 -399.0 75.0 -244.0 149.0 -35.0ZM166.0 -252.0C102.0 -281.0 -29.0 -309.0 -118.0 -321.0C-85.0 -349.0 -50.0 -391.0 -30.0 -421.0C68.0 -402.0 195.0 -365.0 284.0 -317.0ZM354.0 -460.0C244.0 -558.0 20.0 -597.0 -213.0 -611.0C-186.0 -645.0 -158.0 -699.0 -145.0 -739.0C118.0 -710.0 345.0 -658.0 490.0 -522.0Z"/></g>
<g fill="black" opacity=".8" transform="translate(400 300) scale(0.1 -0.1)"><path d="M0.0 0.0C-54.0 -176.0 -176.0 -304.0 -351.0 -372.0C-319.0 -399.0 -265.0 -460.0 -243.0 -490.0C-57.0 -400.0 82.0 -245.0 155.0 -30.0ZM162.0 -242.0C100.0 -275.0 -26.0 -303.0 -115.0 -319.0C-80.0 -344.0 -44.0 -384.0 -22.0 -411.0C72.0 -390.0 196.0 -354.0 282.0 -302.0ZM350.0 -457.0C242.0 -559.0 20.0 -603.0 -215.0 -619.0C-188.0 -652.0 -159.0 -705.0 -146.0 -743.0C116.0 -712.0 344.0 -657.0 483.0 -518.0Z"/></g>
<g fill="red" transform="translate(500 300) scale(0.1 -0.1)"><path d="M0.0 0.0C-87.0 -149.0 -259.0 -252.0 -446.0 -310.0C-438.0 -317.0 -426.0 -329.0 -422.0 -335.0C-239.0 -270.0 -64.0 -167.0 28.0 -10.0ZM38.0 -190.0C-41.0 -257.0 -179.0 -319.0 -296.0 -355.0C-288.0 -360.0 -280.0 -370.0 -274.0 -377.0C-157.0 -340.0 -18.0 -273.0 65.0 -203.0ZM277.0 -395.0C166.0 -513.0 -58.0 -592.0 -306.0 -627.0C-299.0 -635.0 -292.0 -647.0 -288.0 -654.0C-40.0 -616.0 190.0 -533.0 304.0 -409.0Z"/></g>
<g fill="black" opacity=".8" transform="translate(500 300) scale(0.1 -0.1)"><path d="M0.0 0.0C-87.0 -145.0 -258.0 -250.0 -441.0 -311.0C-435.0 -318.0 -424.0 -329.0 -420.0 -334.0C-240.0 -269.0 -67.0 -164.0 26.0 -10.0ZM38.0 -196.0C-37.0 -260.0 -172.0 -322.0 -284.0 -354.0C-277.0 -360.0 -270.0 -370.0 -264.0 -377.0C-152.0 -342.0 -16.0 -276.0 62.0 -208.0ZM285.0 -397.0C169.0 -512.0 -62.0 -588.0 -317.0 -621.0C-312.0 -628.0 -305.0 -639.0 -302.0 -647.0C-47.0 -612.0 192.0 -532.0 309.0 -412.0Z"/></g>
<g fill="red" transform="translate(600 300) scale(0.1 -0.1)"><path d="M0.0 0.0C-75.0 -143.0 -237.0 -238.0 -432.0 -287.0C-408.0 -314.0 -370.0 -372.0 -356.0 -402.0C-144.0 -334.0 34.0 -216.0 133.0 -37.0ZM61.0 -219.0C-3.0 -260.0 -130.0 -298.0 -223.0 -317.0C-195.0 -341.0 -165.0 -377.0 -147.0 -402.0C-46.0 -375.0 78.0 -329.0 162.0 -271.0ZM270.0 -406.0C158.0 -518.0 -68.0 -566.0 -307.0 -585.0C-281.0 -617.0 -255.0 -666.0 -243.0 -701.0C18.0 -668.0 249.0 -606.0 387.0 -462.0Z"/></g>
<g fill="black" opacity=".8" transform="translate(600 300) scale(0.1 -0.1)"><path d="M0.0 0.0C-77.0 -140.0 -238.0 -242.0 -424.0 -293.0C-401.0 -318.0 -362.0 -373.0 -347.0 -400.0C-151.0 -334.0 22.0 -213.0 123.0 -41.0ZM65.0 -233.0C0.0 -271.0 -133.0 -307.0 -230.0 -326.0C-202.0 -351.0 -173.0 -390.0 -156.0 -417.0C-54.0 -392.0 75.0 -345.0 162.0 -287.0ZM275.0 -408.0C162.0 -516.0 -66.0 -560.0 -301.0 -577.0C-277.0 -609.0 -252.0 -659.0 -242.0 -694.0C21.0 -663.0 251.0 -607.0 395.0 -465.0Z"/></g>
<g fill="red" transform="translate(700 300) scale(0.1 -0.1)"><path d="M0.0 0.0C-81.0 -71.0 -220.0 -146.0 -331.0 -190.0C-323.0 -194.0 -314.0 -204.0 -308.0 -211.0C-198.0 -166.0 -59.0 -89.0 27.0 -13.0ZM6.0 -231.0C-74.0 -316.0 -217.0 -398.0 -348.0 -443.0C-340.0 -449.0 -331.0 -460.0 -325.0 -466.0C-196.0 -418.0 -51.0 -334.0 33.0 -243.0ZM34.0 -475.0C-47.0 -590.0 -207.0 -681.0 -390.0 -728.0C-382.0 -734.0 -374.0 -745.0 -369.0 -752.0C-186.0 -703.0 -22.0 -608.0 61.0 -487.0Z"/></g>
<g fill="black" opacity=".8" transform="translate(700 300) scale(0.1 -0.1)"><path d="M0.0 0.0C-80.0 -68.0 -217.0 -140.0 -330.0 -179.0C-323.0 -185.0 -315.0 -194.0 -308.0 -201.0C-195.0 -159.0 -59.0 -86.0 26.0 -14.0ZM9.0 -229.0C-71.0 -311.0 -218.0 -393.0 -351.0 -436.0C-343.0 -442.0 -335.0 -453.0 -328.0 -459.0C-197.0 -414.0 -49.0 -330.0 35.0 -242.0ZM49.0 -467.0C-40.0 -578.0 -211.0 -675.0 -391.0 -727.0C-385.0 -733.0 -377.0 -743.0 -372.0 -750.0C-190.0 -699.0 -16.0 -597.0 75.0 -481.0Z"/></g>
<g fill="red" transform="translate(800 300) scale(0.1 -0.1)"><path d="M0.0 0.0C-60.0 -56.0 -182.0 -113.0 -270.0 -144.0C-234.0 -172.0 -195.0 -215.0 -172.0 -246.0C-75.0 -203.0 43.0 -138.0 128.0 -63.0ZM29.0 -226.0C-43.0 -297.0 -185.0 -365.0 -293.0 -403.0C-258.0 -433.0 -219.0 -478.0 -198.0 -511.0C-79.0 -459.0 59.0 -381.0 156.0 -290.0ZM55.0 -465.0C-26.0 -555.0 -185.0 -627.0 -324.0 -666.0C-290.0 -698.0 -253.0 -746.0 -234.0 -781.0C-79.0 -726.0 78.0 -642.0 184.0 -526.0Z"/></g>
<g fill="black" opacity=".8" transform="translate(800 300) scale(0.1 -0.1)"><path d="M0.0 0.0C-60.0 -59.0 -180.0 -118.0 -271.0 -149.0C-234.0 -178.0 -195.0 -221.0 -173.0 -253.0C-65.0 -209.0 50.0 -143.0 135.0 -62.0ZM19.0 -224.0C-47.0 -296.0 -183.0 -363.0 -293.0 -400.0C-258.0 -429.0 -221.0 -474.0 -200.0 -508.0C-75.0 -457.0 57.0 -381.0 149.0 -284.0ZM44.0 -461.0C-31.0 -562.0 -182.0 -639.0 -322.0 -680.0C-288.0 -712.0 -251.0 -760.0 -232.0 -796.0C-70.0 -736.0 78.0 -648.0 178.0 -519.0Z"/></g>
<g fill="red" transform="translate(900 300) scale(0.1 -0.1)"><path d="M0.0 0.0C-121.0 -89.0 -327.0 -183.0 -489.0 -234.0C-482.0 -239.0 -473.0 -251.0 -468.0 -258.0C-306.0 -204.0 -101.0 -109.0 26.0 -16.0ZM55.0 -252.0C-63.0 -359.0 -272.0 -465.0 -453.0 -522.0C-445.0 -529.0 -437.0 -539.0 -432.0 -546.0C-251.0 -486.0 -42.0 -379.0 81.0 -268.0ZM132.0 -502.0C0.0 -658.0 -245.0 -785.0 -508.0 -848.0C-502.0 -856.0 -494.0 -868.0 -489.0 -875.0C-224.0 -809.0 24.0 -678.0 157.0 -518.0Z"/></g>
<g fill="black" opacity=".8" transform="translate(900 300) scale(0.1 -0.1)"><path d="M0.0 0.0C-120.0 -94.0 -328.0 -184.0 -497.0 -233.0C-490.0 -240.0 -480.0 -254.0 -473.0 -261.0C-305.0 -208.0 -96.0 -115.0 29.0 -17.0ZM52.0 -244.0C-65.0 -353.0 -274.0 -455.0 -455.0 -511.0C-446.0 -519.0 -438.0 -532.0 -432.0 -539.0C-251.0 -479.0 -41.0 -375.0 81.0 -261.0ZM136.0 -507.0C0.0 -665.0 -255.0 -790.0 -514.0 -855.0C-507.0 -864.0 -497.0 -877.0 -493.0 -885.0C-233.0 -816.0 26.0 -689.0 165.0 -524.0Z"/></g>
<g fill="red" transform="translate(1000 300) scale(0.1 -0.1)"><path d="M0.0 0.0C-115.0 -84.0 -341.0 -156.0 -508.0 -193.0C-467.0 -235.0 -424.0 -295.0 -402.0 -338.0C-227.0 -285.0 -13.0 -200.0 139.0 -92.0ZM24.0 -257.0C-86.0 -364.0 -298.0 -441.0 -477.0 -483.0C-436.0 -524.0 -394.0 -585.0 -372.0 -629.0C-180.0 -569.0 25.0 -476.0 169.0 -340.0ZM127.0 -513.0C-8.0 -670.0 -265.0 -748.0 -521.0 -788.0C-484.0 -831.0 -446.0 -895.0 -428.0 -941.0C-153.0 -884.0 103.0 -787.0 274.0 -596.0Z"/></g>
<g fill="black" opacity=".8" transform="translate(1000 300) scale(0.1 -0.1)"><path d="M0.0 0.0C-113.0 -87.0 -336.0 -163.0 -512.0 -200.0C-475.0 -238.0 -433.0 -297.0 -411.0 -335.0C-225.0 -283.0 -8.0 -194.0 140.0 -81.0ZM21.0 -249.0C-88.0 -356.0 -298.0 -439.0 -478.0 -486.0C-438.0 -523.0 -394.0 -582.0 -371.0 -622.0C-182.0 -558.0 25.0 -460.0 165.0 -325.0ZM116.0 -502.0C-17.0 -653.0 -268.0 -751.0 -507.0 -802.0C-470.0 -842.0 -426.0 -906.0 -406.0 -948.0C-155.0 -879.0 97.0 -766.0 263.0 -584.0Z"/></g>
<g fill="red" transform="translate(1100 300) scale(0.1 -0.1)"><path d="M0.0 0.0C-67.0 -81.0 -186.0 -168.0 -285.0 -218.0C-277.0 -223.0 -268.0 -233.0 -261.0 -239.0C-162.0 -187.0 -45.0 -97.0 28.0 -12.0ZM38.0 -275.0C-37.0 -363.0 -167.0 -458.0 -278.0 -512.0C-270.0 -518.0 -261.0 -528.0 -255.0 -534.0C-144.0 -478.0 -13.0 -380.0 65.0 -287.0ZM66.0 -550.0C-15.0 -677.0 -168.0 -796.0 -330.0 -860.0C-322.0 -866.0 -313.0 -877.0 -307.0 -883.0C-146.0 -816.0 8.0 -693.0 93.0 -562.0Z"/></g>
<g fill="black" opacity=".8" transform="translate(1100 300) scale(0.1 -0.1)"><path d="M0.0 0.0C-68.0 -84.0 -186.0 -173.0 -288.0 -224.0C-281.0 -231.0 -271.0 -240.0 -263.0 -246.0C-163.0 -193.0 -45.0 -101.0 28.0 -13.0ZM28.0 -268.0C-42.0 -359.0 -165.0 -460.0 -274.0 -515.0C-265.0 -521.0 -257.0 -531.0 -250.0 -538.0C-141.0 -480.0 -17.0 -378.0 55.0 -280.0ZM55.0 -547.0C-23.0 -674.0 -169.0 -796.0 -326.0 -862.0C-319.0 -868.0 -310.0 -879.0 -304.0 -885.0C-146.0 -817.0 2.0 -691.0 82.0 -559.0Z"/></g>
<g fill="red" transform="translate(1200 300) scale(0.1 -0.1)"><path d="M0.0 0.0C-53.0 -81.0 -160.0 -161.0 -251.0 -206.0C-214.0 -234.0 -172.0 -277.0 -149.0 -309.0C-44.0 -247.0 62.0 -159.0 138.0 -56.0ZM16.0 -276.0C-38.0 -361.0 -146.0 -445.0 -235.0 -494.0C-199.0 -522.0 -157.0 -565.0 -134.0 -596.0C-33.0 -530.0 73.0 -436.0 149.0 -331.0ZM30.0 -540.0C-35.0 -662.0 -160.0 -759.0 -287.0 -816.0C-250.0 -847.0 -208.0 -897.0 -186.0 -934.0C-42.0 -856.0 84.0 -743.0 169.0 -593.0Z"/></g>
<g fill="black" opacity=".8" transform="translate(1200 300) scale(0.1 -0.1)"><path d="M0.0 0.0C-56.0 -77.0 -162.0 -156.0 -253.0 -199.0C-216.0 -227.0 -173.0 -271.0 -150.0 -303.0C-45.0 -245.0 60.0 -159.0 138.0 -59.0ZM19.0 -273.0C-36.0 -355.0 -147.0 -436.0 -239.0 -484.0C-202.0 -512.0 -161.0 -557.0 -137.0 -590.0C-33.0 -527.0 76.0 -435.0 153.0 -329.0ZM35.0 -543.0C-31.0 -665.0 -160.0 -763.0 -288.0 -818.0C-250.0 -850.0 -208.0 -900.0 -187.0 -938.0C-39.0 -858.0 89.0 -747.0 176.0 -595.0Z"/></g>
<g fill="red" transform="translate(1300 300) scale(0.1 -0.1)"><path d="M0.0 0.0C-64.0 -86.0 -176.0 -183.0 -269.0 -238.0C-261.0 -243.0 -251.0 -252.0 -245.0 -258.0C-151.0 -200.0 -40.0 -102.0 28.0 -12.0ZM25.0 -264.0C-39.0 -366.0 -155.0 -471.0 -267.0 -530.0C-259.0 -535.0 -250.0 -544.0 -244.0 -551.0C-131.0 -489.0 -14.0 -382.0 52.0 -275.0ZM51.0 -523.0C-13.0 -665.0 -141.0 -793.0 -299.0 -861.0C-292.0 -867.0 -283.0 -877.0 -277.0 -884.0C-117.0 -813.0 12.0 -682.0 80.0 -534.0Z"/></g>
<g fill="black" opacity=".8" transform="translate(1300 300) scale(0.1 -0.1)"><path d="M0.0 0.0C-59.0 -81.0 -167.0 -169.0 -261.0 -220.0C-254.0 -226.0 -243.0 -235.0 -236.0 -242.0C-143.0 -189.0 -35.0 -99.0 29.0 -13.0ZM26.0 -267.0C-37.0 -362.0 -155.0 -461.0 -267.0 -515.0C-258.0 -522.0 -249.0 -532.0 -242.0 -539.0C-130.0 -481.0 -12.0 -381.0 55.0 -278.0ZM65.0 -539.0C-4.0 -676.0 -145.0 -796.0 -316.0 -861.0C-309.0 -867.0 -300.0 -878.0 -294.0 -884.0C-123.0 -819.0 23.0 -694.0 94.0 -551.0Z"/></g>
<g fill="red" transform="translate(1400 300) scale(0.1 -0.1)"><path d="M0.0 0.0C-47.0 -64.0 -142.0 -128.0 -219.0 -165.0C-182.0 -192.0 -140.0 -235.0 -117.0 -267.0C-25.0 -216.0 70.0 -143.0 139.0 -57.0ZM22.0 -265.0C-28.0 -341.0 -129.0 -411.0 -219.0 -450.0C-183.0 -478.0 -143.0 -523.0 -121.0 -557.0C-13.0 -500.0 89.0 -420.0 159.0 -318.0ZM38.0 -562.0C-22.0 -672.0 -141.0 -759.0 -261.0 -809.0C-224.0 -841.0 -181.0 -891.0 -159.0 -929.0C-19.0 -857.0 101.0 -755.0 183.0 -616.0Z"/></g>
<g fill="black" opacity=".8" transform="translate(1400 300) scale(0.1 -0.1)"><path d="M0.0 0.0C-47.0 -69.0 -140.0 -141.0 -220.0 -182.0C-185.0 -207.0 -143.0 -249.0 -120.0 -279.0C-24.0 -224.0 70.0 -145.0 138.0 -53.0ZM17.0 -271.0C-31.0 -350.0 -129.0 -428.0 -218.0 -472.0C-182.0 -499.0 -141.0 -543.0 -117.0 -575.0C-14.0 -514.0 86.0 -427.0 155.0 -323.0ZM33.0 -543.0C-21.0 -661.0 -133.0 -754.0 -255.0 -806.0C-219.0 -836.0 -177.0 -886.0 -156.0 -922.0C-9.0 -846.0 105.0 -740.0 180.0 -589.0Z"/></g>
<g fill="red" transform="translate(1500 300) scale(0.1 -0.1)"><path d="M0.0 0.0C-104.0 -83.0 -315.0 -158.0 -479.0 -199.0C-474.0 -205.0 -466.0 -217.0 -463.0 -224.0C-293.0 -180.0 -89.0 -103.0 28.0 -16.0ZM12.0 -267.0C-86.0 -331.0 -267.0 -379.0 -423.0 -402.0C-417.0 -409.0 -410.0 -421.0 -405.0 -428.0C-247.0 -400.0 -65.0 -349.0 38.0 -282.0ZM175.0 -515.0C52.0 -644.0 -203.0 -723.0 -492.0 -755.0C-486.0 -763.0 -479.0 -776.0 -476.0 -784.0C-186.0 -749.0 76.0 -666.0 202.0 -530.0Z"/></g>
<g fill="black" opacity=".8" transform="translate(1500 300) scale(0.1 -0.1)"><path d="M0.0 0.0C-105.0 -83.0 -315.0 -160.0 -481.0 -199.0C-476.0 -206.0 -468.0 -218.0 -464.0 -224.0C-293.0 -181.0 -89.0 -104.0 28.0 -17.0ZM9.0 -265.0C-88.0 -329.0 -268.0 -381.0 -426.0 -404.0C-419.0 -412.0 -413.0 -423.0 -407.0 -430.0C-249.0 -402.0 -67.0 -348.0 34.0 -280.0ZM172.0 -507.0C51.0 -635.0 -197.0 -720.0 -485.0 -754.0C-479.0 -763.0 -472.0 -776.0 -469.0 -783.0C-180.0 -747.0 77.0 -658.0 198.0 -523.0Z"/></g>
<g fill="red" transform="translate(1600 300) scale(0.1 -0.1)"><path d="M0.0 0.0C-102.0 -75.0 -327.0 -138.0 -512.0 -166.0C-496.0 -189.0 -471.0 -232.0 -460.0 -258.0C-263.0 -222.0 -38.0 -152.0 101.0 -54.0ZM-17.0 -301.0C-101.0 -349.0 -273.0 -385.0 -410.0 -399.0C-382.0 -426.0 -353.0 -468.0 -337.0 -497.0C-184.0 -474.0 -15.0 -431.0 98.0 -361.0ZM122.0 -522.0C14.0 -628.0 -207.0 -678.0 -437.0 -698.0C-410.0 -731.0 -382.0 -782.0 -369.0 -819.0C-111.0 -785.0 112.0 -725.0 255.0 -584.0Z"/></g>
<g fill="black" opacity=".8" transform="translate(1600 300) scale(0.1 -0.1)"><path d="M0.0 0.0C-103.0 -73.0 -330.0 -135.0 -514.0 -160.0C-496.0 -185.0 -471.0 -230.0 -459.0 -257.0C-258.0 -223.0 -35.0 -156.0 106.0 -57.0ZM-18.0 -295.0C-101.0 -344.0 -272.0 -377.0 -411.0 -391.0C-381.0 -419.0 -353.0 -461.0 -336.0 -491.0C-180.0 -468.0 -14.0 -428.0 99.0 -356.0ZM122.0 -528.0C14.0 -638.0 -208.0 -685.0 -442.0 -702.0C-416.0 -736.0 -389.0 -786.0 -378.0 -824.0C-110.0 -791.0 113.0 -736.0 256.0 -590.0Z"/></g>
<g fill="red" transform="translate(100 400) scale(0.1 -0.1)"><path d="M0.0 0.0C-98.0 -64.0 -279.0 -112.0 -435.0 -135.0C-428.0 -142.0 -422.0 -154.0 -417.0 -161.0C-259.0 -133.0 -77.0 -83.0 26.0 -15.0ZM67.0 -134.0C-38.0 -216.0 -237.0 -277.0 -425.0 -306.0C-418.0 -313.0 -411.0 -325.0 -406.0 -332.0C-218.0 -300.0 -16.0 -235.0 94.0 -149.0ZM170.0 -262.0C47.0 -391.0 -208.0 -470.0 -497.0 -502.0C-491.0 -510.0 -484.0 -524.0 -481.0 -531.0C-191.0 -496.0 71.0 -413.0 197.0 -278.0Z"/></g>
<g fill="black" opacity=".8" transform="translate(100 400) scale(0.1 -0.1)"><path d="M0.0 0.0C-102.0 -67.0 -286.0 -121.0 -441.0 -149.0C-436.0 -156.0 -428.0 -168.0 -423.0 -174.0C-267.0 -142.0 -83.0 -87.0 26.0 -15.0ZM66.0 -134.0C-38.0 -223.0 -236.0 -285.0 -425.0 -316.0C-419.0 -324.0 -411.0 -336.0 -406.0 -342.0C-218.0 -306.0 -18.0 -243.0 92.0 -148.0ZM156.0 -261.0C37.0 -397.0 -211.0 -475.0 -492.0 -509.0C-486.0 -517.0 -477.0 -530.0 -475.0 -537.0C-195.0 -501.0 60.0 -421.0 183.0 -277.0Z"/></g>
<g fill="red" transform="translate(200 400) scale(0.1 -0.1)"><path d="M0.0 0.0C-83.0 -48.0 -257.0 -84.0 -393.0 -98.0C-362.0 -129.0 -329.0 -177.0 -311.0 -210.0C-155.0 -185.0 14.0 -142.0 131.0 -68.0ZM66.0 -127.0C-24.0 -198.0 -211.0 -246.0 -376.0 -266.0C-346.0 -298.0 -314.0 -346.0 -298.0 -380.0C-109.0 -347.0 75.0 -292.0 200.0 -192.0ZM139.0 -262.0C31.0 -370.0 -191.0 -421.0 -420.0 -442.0C-392.0 -476.0 -363.0 -528.0 -350.0 -566.0C-91.0 -531.0 131.0 -469.0 275.0 -326.0Z"/></g>
<g fill="black" opacity=".8" transform="translate(200 400) scale(0.1 -0.1)"><path d="M0.0 0.0C-85.0 -46.0 -260.0 -82.0 -397.0 -97.0C-367.0 -125.0 -333.0 -174.0 -315.0 -204.0C-165.0 -181.0 7.0 -135.0 122.0 -62.0ZM73.0 -120.0C-20.0 -192.0 -210.0 -236.0 -379.0 -257.0C-349.0 -286.0 -315.0 -335.0 -298.0 -367.0C-115.0 -335.0 75.0 -282.0 200.0 -182.0ZM142.0 -266.0C32.0 -365.0 -191.0 -418.0 -410.0 -440.0C-385.0 -471.0 -353.0 -523.0 -340.0 -557.0C-99.0 -524.0 126.0 -461.0 270.0 -332.0Z"/></g>
<g fill="red" transform="translate(300 400) scale(0.1 -0.1)"><path d="M0.0 0.0C-71.0 -92.0 -201.0 -168.0 -322.0 -214.0C-316.0 -220.0 -305.0 -233.0 -300.0 -238.0C-180.0 -187.0 -47.0 -108.0 28.0 -10.0ZM77.0 -116.0C0.0 -243.0 -144.0 -342.0 -292.0 -403.0C-285.0 -409.0 -274.0 -422.0 -270.0 -427.0C-124.0 -361.0 23.0 -259.0 105.0 -126.0ZM154.0 -242.0C62.0 -431.0 -131.0 -547.0 -361.0 -610.0C-354.0 -617.0 -343.0 -629.0 -340.0 -636.0C-113.0 -566.0 85.0 -451.0 182.0 -252.0Z"/></g>
<g fill="black" opacity=".8" transform="translate(300 400) scale(0.1 -0.1)"><path d="M0.0 0.0C-70.0 -88.0 -194.0 -164.0 -316.0 -208.0C-311.0 -215.0 -300.0 -226.0 -295.0 -231.0C-176.0 -182.0 -46.0 -104.0 26.0 -11.0ZM76.0 -121.0C2.0 -244.0 -142.0 -348.0 -289.0 -407.0C-282.0 -414.0 -273.0 -425.0 -268.0 -431.0C-122.0 -367.0 24.0 -260.0 103.0 -132.0ZM158.0 -243.0C68.0 -420.0 -122.0 -538.0 -358.0 -600.0C-352.0 -606.0 -342.0 -619.0 -339.0 -624.0C-105.0 -559.0 92.0 -440.0 185.0 -254.0Z"/></g>
<g fill="red" transform="translate(400 400) scale(0.1 -0.1)"><path d="M0.0 0.0C-64.0 -68.0 -186.0 -123.0 -305.0 -154.0C-280.0 -175.0 -240.0 -221.0 -223.0 -245.0C-103.0 -202.0 31.0 -130.0 111.0 -41.0ZM58.0 -111.0C-11.0 -210.0 -144.0 -290.0 -282.0 -336.0C-257.0 -357.0 -215.0 -404.0 -197.0 -428.0C-59.0 -369.0 86.0 -272.0 171.0 -151.0ZM109.0 -248.0C23.0 -378.0 -140.0 -481.0 -312.0 -539.0C-285.0 -563.0 -240.0 -616.0 -220.0 -643.0C-49.0 -571.0 127.0 -450.0 233.0 -295.0Z"/></g>
<g fill="black" opacity=".8" transform="translate(400 400) scale(0.1 -0.1)"><path d="M0.0 0.0C-66.0 -64.0 -187.0 -119.0 -301.0 -148.0C-273.0 -173.0 -233.0 -220.0 -215.0 -248.0C-96.0 -207.0 33.0 -138.0 117.0 -51.0ZM56.0 -119.0C-11.0 -218.0 -144.0 -294.0 -283.0 -340.0C-255.0 -365.0 -217.0 -412.0 -198.0 -441.0C-54.0 -382.0 87.0 -289.0 175.0 -163.0ZM116.0 -256.0C28.0 -392.0 -141.0 -481.0 -328.0 -529.0C-301.0 -556.0 -261.0 -609.0 -245.0 -639.0C-45.0 -574.0 134.0 -469.0 244.0 -303.0Z"/></g>
<g fill="red" transform="translate(500 400) scale(0.1 -0.1)"><path d="M0.0 0.0C-100.0 -36.0 -307.0 -59.0 -468.0 -72.0C-464.0 -80.0 -459.0 -91.0 -458.0 -98.0C-295.0 -87.0 -89.0 -62.0 23.0 -25.0ZM371.0 -279.0C301.0 -362.0 180.0 -452.0 77.0 -504.0C85.0 -509.0 93.0 -519.0 99.0 -526.0C203.0 -472.0 325.0 -379.0 398.0 -291.0ZM395.0 -566.0C320.0 -688.0 177.0 -803.0 21.0 -864.0C29.0 -870.0 37.0 -880.0 42.0 -886.0C198.0 -822.0 343.0 -705.0 422.0 -578.0Z"/></g>
<g fill="black" opacity=".8" transform="translate(500 400) scale(0.1 -0.1)"><path d="M0.0 0.0C-101.0 -36.0 -307.0 -60.0 -470.0 -73.0C-466.0 -82.0 -461.0 -92.0 -458.0 -99.0C-296.0 -88.0 -90.0 -62.0 23.0 -26.0ZM371.0 -278.0C301.0 -361.0 179.0 -452.0 75.0 -503.0C83.0 -509.0 90.0 -519.0 98.0 -526.0C202.0 -471.0 325.0 -379.0 398.0 -290.0ZM394.0 -564.0C319.0 -686.0 177.0 -803.0 22.0 -865.0C30.0 -872.0 39.0 -881.0 43.0 -887.0C198.0 -823.0 343.0 -705.0 421.0 -576.0Z"/></g>
<g fill="red" transform="translate(600 400) scale(0.1 -0.1)"><path d="M0.0 0.0C-129.0 -33.0 -314.0 -60.0 -484.0 -75.0C-469.0 -106.0 -451.0 -160.0 -447.0 -194.0C-274.0 -183.0 -74.0 -160.0 85.0 -123.0ZM316.0 -283.0C263.0 -361.0 156.0 -437.0 70.0 -481.0C108.0 -510.0 153.0 -557.0 177.0 -590.0C278.0 -529.0 383.0 -443.0 459.0 -343.0ZM338.0 -557.0C271.0 -674.0 141.0 -764.0 13.0 -816.0C52.0 -850.0 95.0 -903.0 118.0 -943.0C265.0 -868.0 396.0 -762.0 485.0 -615.0Z"/></g>
<g fill="black" opacity=".8" transform="translate(600 400) scale(0.1 -0.1)"><path d="M0.0 0.0C-129.0 -33.0 -315.0 -61.0 -486.0 -75.0C-471.0 -106.0 -453.0 -161.0 -448.0 -194.0C-273.0 -183.0 -74.0 -159.0 84.0 -122.0ZM315.0 -280.0C263.0 -359.0 157.0 -434.0 70.0 -480.0C108.0 -508.0 153.0 -554.0 179.0 -586.0C278.0 -525.0 382.0 -440.0 458.0 -338.0ZM337.0 -557.0C271.0 -675.0 142.0 -768.0 15.0 -820.0C53.0 -853.0 96.0 -906.0 118.0 -944.0C266.0 -868.0 396.0 -762.0 483.0 -614.0Z"/></g>
<g fill="red" transform="translate(700 400) scale(0.1 -0.1)"><path d="M0.0 0.0C-58.0 -73.0 -161.0 -146.0 -251.0 -189.0C-243.0 -194.0 -235.0 -204.0 -228.0 -211.0C-138.0 -166.0 -35.0 -89.0 27.0 -12.0ZM24.0 -232.0C-36.0 -318.0 -147.0 -401.0 -254.0 -448.0C-246.0 -454.0 -237.0 -464.0 -232.0 -471.0C-124.0 -421.0 -12.0 -335.0 52.0 -243.0ZM34.0 -464.0C-27.0 -577.0 -147.0 -676.0 -278.0 -729.0C-270.0 -734.0 -262.0 -745.0 -256.0 -752.0C-124.0 -695.0 -3.0 -591.0 61.0 -475.0Z"/></g>
<g fill="black" opacity=".8" transform="translate(700 400) scale(0.1 -0.1)"><path d="M0.0 0.0C-59.0 -68.0 -158.0 -143.0 -242.0 -186.0C-236.0 -192.0 -227.0 -200.0 -221.0 -205.0C-138.0 -160.0 -38.0 -82.0 24.0 -11.0ZM32.0 -216.0C-32.0 -299.0 -149.0 -382.0 -256.0 -429.0C-249.0 -434.0 -241.0 -443.0 -235.0 -449.0C-129.0 -399.0 -12.0 -315.0 55.0 -227.0ZM51.0 -450.0C-18.0 -563.0 -150.0 -665.0 -295.0 -720.0C-290.0 -725.0 -281.0 -735.0 -277.0 -740.0C-131.0 -684.0 4.0 -580.0 75.0 -461.0Z"/></g>
<g fill="red" transform="translate(800 400) scale(0.1 -0.1)"><path d="M0.0 0.0C-48.0 -60.0 -144.0 -118.0 -222.0 -152.0C-188.0 -178.0 -149.0 -220.0 -128.0 -250.0C-40.0 -204.0 56.0 -134.0 123.0 -52.0ZM18.0 -211.0C-36.0 -281.0 -144.0 -341.0 -239.0 -375.0C-206.0 -403.0 -168.0 -447.0 -149.0 -480.0C-40.0 -431.0 68.0 -356.0 140.0 -261.0ZM40.0 -449.0C-27.0 -536.0 -155.0 -605.0 -270.0 -645.0C-236.0 -676.0 -198.0 -723.0 -179.0 -759.0C-53.0 -701.0 76.0 -615.0 159.0 -502.0Z"/></g>
<g fill="black" opacity=".8" transform="translate(800 400) scale(0.1 -0.1)"><path d="M0.0 0.0C-47.0 -61.0 -143.0 -124.0 -218.0 -159.0C-186.0 -183.0 -148.0 -221.0 -127.0 -248.0C-40.0 -200.0 53.0 -130.0 119.0 -48.0ZM19.0 -214.0C-34.0 -290.0 -142.0 -357.0 -236.0 -397.0C-204.0 -422.0 -168.0 -462.0 -147.0 -491.0C-43.0 -437.0 64.0 -361.0 138.0 -263.0ZM35.0 -447.0C-24.0 -549.0 -140.0 -630.0 -257.0 -675.0C-227.0 -702.0 -190.0 -746.0 -172.0 -776.0C-40.0 -713.0 78.0 -621.0 156.0 -495.0Z"/></g>
<g fill="red" transform="translate(900 400) scale(0.1 -0.1)"><path d="M0.0 0.0C-59.0 -75.0 -163.0 -155.0 -251.0 -201.0C-243.0 -206.0 -234.0 -216.0 -227.0 -222.0C-139.0 -174.0 -35.0 -91.0 28.0 -12.0ZM19.0 -263.0C-40.0 -345.0 -144.0 -434.0 -238.0 -484.0C-229.0 -489.0 -220.0 -498.0 -213.0 -505.0C-120.0 -452.0 -16.0 -362.0 46.0 -274.0ZM48.0 -522.0C-13.0 -658.0 -131.0 -786.0 -273.0 -856.0C-265.0 -862.0 -256.0 -871.0 -251.0 -877.0C-108.0 -805.0 13.0 -674.0 76.0 -532.0Z"/></g>
<g fill="black" opacity=".8" transform="translate(900 400) scale(0.1 -0.1)"><path d="M0.0 0.0C-57.0 -74.0 -159.0 -158.0 -244.0 -206.0C-238.0 -212.0 -228.0 -220.0 -221.0 -226.0C-137.0 -176.0 -36.0 -90.0 26.0 -12.0ZM29.0 -267.0C-31.0 -351.0 -140.0 -443.0 -239.0 -494.0C-231.0 -499.0 -222.0 -509.0 -216.0 -515.0C-118.0 -461.0 -8.0 -368.0 55.0 -278.0ZM53.0 -549.0C-12.0 -667.0 -136.0 -780.0 -276.0 -842.0C-270.0 -847.0 -261.0 -857.0 -256.0 -862.0C-115.0 -800.0 12.0 -683.0 79.0 -561.0Z"/></g>
<g fill="red" transform="translate(1000 400) scale(0.1 -0.1)"><path d="M0.0 0.0C-49.0 -67.0 -148.0 -137.0 -224.0 -177.0C-187.0 -205.0 -144.0 -247.0 -119.0 -278.0C-31.0 -224.0 67.0 -146.0 138.0 -59.0ZM10.0 -263.0C-38.0 -336.0 -134.0 -407.0 -214.0 -448.0C-177.0 -476.0 -135.0 -520.0 -112.0 -552.0C-18.0 -495.0 78.0 -413.0 146.0 -318.0ZM22.0 -550.0C-31.0 -660.0 -134.0 -752.0 -239.0 -805.0C-200.0 -837.0 -156.0 -887.0 -133.0 -925.0C-10.0 -848.0 95.0 -741.0 165.0 -601.0Z"/></g>
<g fill="black" opacity=".8" transform="translate(1000 400) scale(0.1 -0.1)"><path d="M0.0 0.0C-48.0 -68.0 -142.0 -141.0 -219.0 -181.0C-186.0 -205.0 -147.0 -245.0 -125.0 -273.0C-34.0 -219.0 59.0 -141.0 127.0 -52.0ZM14.0 -272.0C-33.0 -348.0 -129.0 -422.0 -211.0 -466.0C-175.0 -492.0 -136.0 -533.0 -113.0 -563.0C-20.0 -504.0 75.0 -421.0 142.0 -323.0ZM30.0 -548.0C-23.0 -658.0 -127.0 -747.0 -236.0 -798.0C-202.0 -827.0 -162.0 -873.0 -142.0 -907.0C-13.0 -834.0 92.0 -733.0 163.0 -595.0Z"/></g>
<g fill="red" transform="translate(1100 400) scale(0.1 -0.1)"><path d="M0.0 0.0C-54.0 -96.0 -151.0 -199.0 -246.0 -258.0C-237.0 -263.0 -228.0 -271.0 -221.0 -277.0C-127.0 -217.0 -29.0 -112.0 28.0 -10.0ZM-395.0 -204.0C-425.0 -366.0 -498.0 -550.0 -574.0 -640.0C-567.0 -645.0 -557.0 -656.0 -551.0 -663.0C-474.0 -568.0 -400.0 -373.0 -367.0 -211.0ZM43.0 -525.0C-15.0 -662.0 -136.0 -778.0 -291.0 -839.0C-283.0 -845.0 -274.0 -856.0 -268.0 -862.0C-111.0 -798.0 11.0 -677.0 72.0 -536.0Z"/></g>
<g fill="black" opacity=".8" transform="translate(1100 400) scale(0.1 -0.1)"><path d="M0.0 0.0C-55.0 -96.0 -152.0 -201.0 -248.0 -261.0C-240.0 -266.0 -230.0 -273.0 -221.0 -279.0C-129.0 -218.0 -30.0 -113.0 28.0 -11.0ZM-396.0 -202.0C-426.0 -365.0 -499.0 -550.0 -577.0 -640.0C-570.0 -645.0 -560.0 -657.0 -554.0 -664.0C-476.0 -567.0 -400.0 -373.0 -368.0 -209.0ZM41.0 -523.0C-16.0 -661.0 -135.0 -778.0 -288.0 -841.0C-281.0 -847.0 -271.0 -858.0 -266.0 -864.0C-111.0 -799.0 10.0 -678.0 69.0 -535.0Z"/></g>
<g fill="red" transform="translate(1200 400) scale(0.1 -0.1)"><path d="M0.0 0.0C-39.0 -76.0 -117.0 -158.0 -181.0 -206.0C-146.0 -230.0 -105.0 -267.0 -82.0 -295.0C-7.0 -232.0 72.0 -143.0 128.0 -49.0ZM-373.0 -263.0C-394.0 -380.0 -447.0 -533.0 -507.0 -623.0C-487.0 -657.0 -457.0 -710.0 -444.0 -748.0C-374.0 -640.0 -320.0 -445.0 -291.0 -290.0ZM32.0 -538.0C-18.0 -660.0 -116.0 -760.0 -225.0 -818.0C-190.0 -846.0 -150.0 -893.0 -130.0 -928.0C-3.0 -847.0 98.0 -732.0 162.0 -580.0Z"/></g>
<g fill="black" opacity=".8" transform="translate(1200 400) scale(0.1 -0.1)"><path d="M0.0 0.0C-40.0 -75.0 -118.0 -159.0 -183.0 -206.0C-149.0 -229.0 -108.0 -267.0 -85.0 -295.0C-7.0 -232.0 72.0 -142.0 128.0 -47.0ZM-374.0 -258.0C-394.0 -377.0 -446.0 -529.0 -508.0 -621.0C-486.0 -653.0 -456.0 -706.0 -442.0 -742.0C-374.0 -633.0 -321.0 -440.0 -293.0 -283.0ZM31.0 -537.0C-18.0 -661.0 -115.0 -764.0 -222.0 -823.0C-189.0 -849.0 -148.0 -896.0 -129.0 -929.0C-4.0 -847.0 97.0 -732.0 159.0 -580.0Z"/></g>
<g fill="red" transform="translate(1300 400) scale(0.1 -0.1)"><path d="M0.0 0.0C-60.0 -78.0 -166.0 -164.0 -255.0 -213.0C-248.0 -219.0 -238.0 -228.0 -232.0 -234.0C-143.0 -183.0 -37.0 -94.0 28.0 -12.0ZM32.0 -275.0C-36.0 -359.0 -153.0 -451.0 -254.0 -504.0C-247.0 -509.0 -237.0 -519.0 -231.0 -525.0C-130.0 -470.0 -12.0 -376.0 59.0 -287.0ZM56.0 -569.0C-19.0 -685.0 -160.0 -797.0 -304.0 -859.0C-298.0 -865.0 -289.0 -875.0 -283.0 -880.0C-138.0 -817.0 4.0 -701.0 83.0 -581.0Z"/></g>
<g fill="black" opacity=".8" transform="translate(1300 400) scale(0.1 -0.1)"><path d="M0.0 0.0C-62.0 -79.0 -168.0 -168.0 -258.0 -219.0C-251.0 -224.0 -241.0 -233.0 -233.0 -239.0C-145.0 -187.0 -39.0 -95.0 27.0 -12.0ZM34.0 -272.0C-33.0 -357.0 -152.0 -451.0 -258.0 -503.0C-250.0 -509.0 -241.0 -519.0 -234.0 -525.0C-129.0 -470.0 -9.0 -376.0 60.0 -283.0ZM49.0 -561.0C-21.0 -681.0 -156.0 -796.0 -303.0 -860.0C-296.0 -866.0 -287.0 -876.0 -281.0 -882.0C-134.0 -817.0 3.0 -698.0 77.0 -573.0Z"/></g>
<g fill="red" transform="translate(1400 400) scale(0.1 -0.1)"><path d="M0.0 0.0C-48.0 -76.0 -146.0 -151.0 -229.0 -194.0C-192.0 -221.0 -149.0 -264.0 -126.0 -296.0C-29.0 -237.0 69.0 -153.0 139.0 -56.0ZM19.0 -269.0C-34.0 -348.0 -140.0 -426.0 -227.0 -471.0C-190.0 -499.0 -148.0 -543.0 -125.0 -575.0C-25.0 -513.0 80.0 -426.0 155.0 -326.0ZM34.0 -548.0C-27.0 -665.0 -146.0 -760.0 -266.0 -815.0C-228.0 -847.0 -185.0 -897.0 -163.0 -935.0C-27.0 -857.0 93.0 -747.0 174.0 -601.0Z"/></g>
<g fill="black" opacity=".8" transform="translate(1400 400) scale(0.1 -0.1)"><path d="M0.0 0.0C-49.0 -74.0 -147.0 -151.0 -228.0 -194.0C-191.0 -221.0 -149.0 -263.0 -126.0 -293.0C-30.0 -235.0 66.0 -150.0 136.0 -54.0ZM22.0 -273.0C-32.0 -353.0 -139.0 -428.0 -229.0 -473.0C-191.0 -501.0 -150.0 -544.0 -126.0 -576.0C-24.0 -515.0 81.0 -431.0 156.0 -328.0ZM32.0 -556.0C-27.0 -669.0 -144.0 -762.0 -261.0 -814.0C-225.0 -845.0 -184.0 -893.0 -163.0 -929.0C-26.0 -854.0 91.0 -749.0 170.0 -608.0Z"/></g>
<g fill="red" transform="translate(1500 400) scale(0.1 -0.1)"><path d="M0.0 0.0C-61.0 -78.0 -167.0 -164.0 -256.0 -213.0C-248.0 -219.0 -238.0 -228.0 -233.0 -234.0C-143.0 -183.0 -38.0 -94.0 27.0 -12.0ZM34.0 -273.0C-34.0 -357.0 -151.0 -449.0 -252.0 -502.0C-244.0 -507.0 -234.0 -517.0 -229.0 -523.0C-128.0 -468.0 -10.0 -374.0 61.0 -285.0ZM65.0 -569.0C-10.0 -685.0 -151.0 -797.0 -295.0 -859.0C-288.0 -865.0 -280.0 -875.0 -274.0 -880.0C-129.0 -817.0 13.0 -701.0 92.0 -581.0Z"/></g>
<g fill="black" opacity=".8" transform="translate(1500 400) scale(0.1 -0.1)"><path d="M0.0 0.0C-61.0 -78.0 -168.0 -165.0 -257.0 -216.0C-250.0 -222.0 -240.0 -230.0 -233.0 -237.0C-145.0 -185.0 -39.0 -94.0 27.0 -13.0ZM29.0 -270.0C-36.0 -357.0 -152.0 -452.0 -256.0 -505.0C-248.0 -510.0 -239.0 -520.0 -232.0 -526.0C-129.0 -471.0 -12.0 -375.0 55.0 -282.0ZM59.0 -565.0C-10.0 -683.0 -142.0 -797.0 -284.0 -859.0C-278.0 -865.0 -269.0 -875.0 -263.0 -881.0C-120.0 -818.0 14.0 -701.0 86.0 -578.0Z"/></g>
<g fill="red" transform="translate(1600 400) scale(0.1 -0.1)"><path d="M0.0 0.0C-50.0 -77.0 -149.0 -154.0 -233.0 -198.0C-197.0 -224.0 -156.0 -266.0 -134.0 -297.0C-36.0 -237.0 64.0 -152.0 134.0 -54.0ZM13.0 -277.0C-40.0 -356.0 -146.0 -434.0 -233.0 -479.0C-197.0 -506.0 -155.0 -549.0 -132.0 -581.0C-33.0 -520.0 72.0 -432.0 146.0 -333.0ZM32.0 -553.0C-20.0 -667.0 -124.0 -765.0 -233.0 -821.0C-197.0 -850.0 -155.0 -897.0 -133.0 -932.0C-4.0 -853.0 102.0 -743.0 174.0 -601.0Z"/></g>
<g fill="black" opacity=".8" transform="translate(1600 400) scale(0.1 -0.1)"><path d="M0.0 0.0C-50.0 -74.0 -149.0 -150.0 -231.0 -193.0C-195.0 -219.0 -153.0 -261.0 -130.0 -291.0C-35.0 -234.0 63.0 -150.0 134.0 -55.0ZM16.0 -274.0C-37.0 -354.0 -141.0 -431.0 -230.0 -477.0C-193.0 -505.0 -152.0 -548.0 -129.0 -580.0C-29.0 -518.0 75.0 -431.0 148.0 -328.0ZM43.0 -561.0C-16.0 -672.0 -130.0 -764.0 -246.0 -815.0C-210.0 -846.0 -169.0 -894.0 -148.0 -929.0C-14.0 -855.0 101.0 -752.0 178.0 -613.0Z"/></g>
<g fill="red" transform="translate(100 500) scale(0.1 -0.1)"><path d="M0.0 0.0C-60.0 -78.0 -166.0 -164.0 -255.0 -213.0C-248.0 -219.0 -238.0 -228.0 -232.0 -234.0C-143.0 -183.0 -37.0 -94.0 28.0 -12.0ZM34.0 -258.0C-34.0 -342.0 -152.0 -434.0 -253.0 -487.0C-245.0 -492.0 -235.0 -502.0 -229.0 -508.0C-128.0 -453.0 -10.0 -359.0 61.0 -270.0ZM54.0 -555.0C-21.0 -672.0 -162.0 -783.0 -306.0 -845.0C-300.0 -851.0 -291.0 -861.0 -285.0 -867.0C-140.0 -803.0 2.0 -687.0 81.0 -567.0Z"/></g>
<g fill="black" opacity=".8" transform="translate(100 500) scale(0.1 -0.1)"><path d="M0.0 0.0C-63.0 -80.0 -167.0 -169.0 -256.0 -221.0C-249.0 -227.0 -239.0 -235.0 -231.0 -241.0C-144.0 -188.0 -40.0 -96.0 27.0 -12.0ZM33.0 -264.0C-35.0 -350.0 -154.0 -444.0 -258.0 -498.0C-249.0 -504.0 -241.0 -513.0 -234.0 -519.0C-131.0 -463.0 -12.0 -368.0 58.0 -275.0ZM44.0 -552.0C-28.0 -668.0 -161.0 -783.0 -297.0 -848.0C-291.0 -853.0 -282.0 -863.0 -276.0 -869.0C-139.0 -804.0 -5.0 -685.0 70.0 -564.0Z"/></g>
<g fill="red" transform="translate(200 500) scale(0.1 -0.1)"><path d="M0.0 0.0C-47.0 -80.0 -140.0 -160.0 -220.0 -206.0C-185.0 -232.0 -143.0 -273.0 -120.0 -303.0C-25.0 -241.0 69.0 -153.0 137.0 -53.0ZM16.0 -275.0C-39.0 -357.0 -149.0 -438.0 -239.0 -485.0C-202.0 -513.0 -160.0 -557.0 -137.0 -589.0C-34.0 -525.0 74.0 -435.0 151.0 -332.0ZM31.0 -538.0C-30.0 -655.0 -149.0 -750.0 -269.0 -805.0C-232.0 -837.0 -190.0 -886.0 -168.0 -923.0C-31.0 -846.0 89.0 -735.0 169.0 -590.0Z"/></g>
<g fill="black" opacity=".8" transform="translate(200 500) scale(0.1 -0.1)"><path d="M0.0 0.0C-50.0 -78.0 -148.0 -157.0 -229.0 -201.0C-191.0 -229.0 -148.0 -272.0 -124.0 -302.0C-30.0 -242.0 65.0 -154.0 135.0 -55.0ZM20.0 -264.0C-36.0 -347.0 -146.0 -425.0 -238.0 -472.0C-200.0 -500.0 -159.0 -543.0 -135.0 -575.0C-34.0 -513.0 75.0 -425.0 152.0 -320.0ZM33.0 -544.0C-30.0 -658.0 -150.0 -752.0 -267.0 -806.0C-231.0 -836.0 -189.0 -885.0 -168.0 -920.0C-36.0 -844.0 85.0 -738.0 166.0 -597.0Z"/></g>
<g fill="red" transform="translate(300 500) scale(0.1 -0.1)"><path d="M0.0 0.0C-62.0 -81.0 -170.0 -170.0 -261.0 -222.0C-252.0 -227.0 -243.0 -236.0 -237.0 -242.0C-146.0 -188.0 -39.0 -97.0 27.0 -12.0ZM41.0 -269.0C-29.0 -357.0 -153.0 -449.0 -262.0 -502.0C-254.0 -508.0 -245.0 -517.0 -240.0 -524.0C-130.0 -469.0 -5.0 -374.0 68.0 -281.0ZM64.0 -567.0C-12.0 -681.0 -155.0 -792.0 -300.0 -853.0C-293.0 -858.0 -285.0 -868.0 -279.0 -874.0C-133.0 -812.0 11.0 -698.0 91.0 -579.0Z"/></g>
<g fill="black" opacity=".8" transform="translate(300 500) scale(0.1 -0.1)"><path d="M0.0 0.0C-63.0 -81.0 -171.0 -169.0 -264.0 -221.0C-256.0 -226.0 -246.0 -235.0 -239.0 -241.0C-148.0 -189.0 -40.0 -97.0 27.0 -13.0ZM31.0 -267.0C-36.0 -355.0 -154.0 -452.0 -260.0 -506.0C-251.0 -512.0 -242.0 -522.0 -235.0 -528.0C-131.0 -471.0 -12.0 -374.0 58.0 -279.0ZM57.0 -559.0C-15.0 -677.0 -150.0 -792.0 -293.0 -856.0C-286.0 -862.0 -277.0 -872.0 -271.0 -878.0C-128.0 -813.0 9.0 -694.0 84.0 -571.0Z"/></g>
<g fill="red" transform="translate(400 500) scale(0.1 -0.1)"><path d="M0.0 0.0C-49.0 -79.0 -146.0 -157.0 -229.0 -202.0C-193.0 -229.0 -150.0 -272.0 -127.0 -303.0C-30.0 -242.0 68.0 -155.0 138.0 -55.0ZM21.0 -273.0C-32.0 -356.0 -138.0 -439.0 -225.0 -487.0C-189.0 -514.0 -147.0 -557.0 -125.0 -589.0C-25.0 -524.0 80.0 -432.0 154.0 -328.0ZM36.0 -548.0C-21.0 -661.0 -131.0 -756.0 -242.0 -811.0C-206.0 -841.0 -164.0 -889.0 -142.0 -925.0C-15.0 -848.0 97.0 -738.0 171.0 -597.0Z"/></g>
<g fill="black" opacity=".8" transform="translate(400 500) scale(0.1 -0.1)"><path d="M0.0 0.0C-50.0 -76.0 -147.0 -154.0 -228.0 -198.0C-190.0 -226.0 -147.0 -269.0 -123.0 -300.0C-28.0 -241.0 67.0 -155.0 138.0 -56.0ZM23.0 -269.0C-30.0 -350.0 -138.0 -429.0 -228.0 -476.0C-190.0 -504.0 -148.0 -549.0 -124.0 -581.0C-24.0 -518.0 82.0 -429.0 157.0 -324.0ZM45.0 -552.0C-16.0 -665.0 -135.0 -759.0 -252.0 -812.0C-215.0 -843.0 -174.0 -892.0 -152.0 -927.0C-17.0 -852.0 102.0 -746.0 182.0 -605.0Z"/></g>
<g fill="red" transform="translate(500 500) scale(0.1 -0.1)"><path d="M0.0 0.0C-52.0 -81.0 -144.0 -173.0 -222.0 -226.0C-214.0 -231.0 -205.0 -240.0 -198.0 -245.0C-119.0 -191.0 -27.0 -96.0 28.0 -11.0ZM34.0 -258.0C-24.0 -345.0 -126.0 -443.0 -215.0 -499.0C-207.0 -505.0 -198.0 -514.0 -191.0 -520.0C-103.0 -461.0 0.0 -361.0 61.0 -269.0ZM44.0 -560.0C-17.0 -678.0 -132.0 -796.0 -254.0 -862.0C-246.0 -868.0 -237.0 -877.0 -231.0 -883.0C-109.0 -815.0 7.0 -693.0 72.0 -571.0Z"/></g>
<g fill="black" opacity=".8" transform="translate(500 500) scale(0.1 -0.1)"><path d="M0.0 0.0C-54.0 -79.0 -145.0 -171.0 -222.0 -225.0C-215.0 -231.0 -205.0 -239.0 -198.0 -244.0C-123.0 -189.0 -32.0 -94.0 25.0 -11.0ZM39.0 -265.0C-21.0 -352.0 -124.0 -449.0 -213.0 -505.0C-205.0 -510.0 -197.0 -519.0 -190.0 -524.0C-103.0 -466.0 1.0 -368.0 63.0 -276.0ZM45.0 -557.0C-18.0 -677.0 -133.0 -797.0 -253.0 -865.0C-247.0 -871.0 -237.0 -879.0 -232.0 -884.0C-112.0 -815.0 3.0 -692.0 69.0 -568.0Z"/></g>
<g fill="red" transform="translate(600 500) scale(0.1 -0.1)"><path d="M0.0 0.0C-48.0 -79.0 -143.0 -160.0 -224.0 -206.0C-192.0 -230.0 -153.0 -267.0 -132.0 -294.0C-38.0 -233.0 58.0 -146.0 124.0 -48.0ZM10.0 -271.0C-40.0 -356.0 -137.0 -443.0 -219.0 -494.0C-185.0 -519.0 -145.0 -558.0 -123.0 -587.0C-30.0 -520.0 67.0 -425.0 135.0 -321.0ZM23.0 -554.0C-34.0 -670.0 -143.0 -773.0 -251.0 -834.0C-216.0 -862.0 -177.0 -906.0 -156.0 -938.0C-34.0 -857.0 75.0 -741.0 149.0 -601.0Z"/></g>
<g fill="black" opacity=".8" transform="translate(600 500) scale(0.1 -0.1)"><path d="M0.0 0.0C-49.0 -79.0 -146.0 -161.0 -226.0 -207.0C-192.0 -232.0 -152.0 -273.0 -130.0 -301.0C-39.0 -239.0 55.0 -148.0 123.0 -49.0ZM7.0 -273.0C-43.0 -358.0 -139.0 -438.0 -223.0 -487.0C-187.0 -513.0 -147.0 -554.0 -124.0 -583.0C-33.0 -518.0 63.0 -428.0 130.0 -323.0ZM23.0 -552.0C-34.0 -671.0 -140.0 -770.0 -249.0 -827.0C-214.0 -855.0 -173.0 -902.0 -153.0 -934.0C-32.0 -856.0 76.0 -744.0 148.0 -600.0Z"/></g>
<g fill="red" transform="translate(700 500) scale(0.1 -0.1)"><path d="M0.0 0.0C-64.0 -77.0 -174.0 -163.0 -264.0 -212.0C-256.0 -218.0 -247.0 -227.0 -240.0 -234.0C-149.0 -182.0 -40.0 -94.0 27.0 -11.0ZM20.0 -267.0C-41.0 -361.0 -155.0 -458.0 -263.0 -512.0C-255.0 -518.0 -245.0 -527.0 -239.0 -534.0C-131.0 -477.0 -17.0 -378.0 48.0 -278.0ZM61.0 -545.0C-4.0 -682.0 -131.0 -803.0 -285.0 -868.0C-278.0 -874.0 -269.0 -884.0 -263.0 -890.0C-107.0 -823.0 22.0 -697.0 89.0 -556.0Z"/></g>
<g fill="black" opacity=".8" transform="translate(700 500) scale(0.1 -0.1)"><path d="M0.0 0.0C-60.0 -78.0 -168.0 -164.0 -261.0 -214.0C-253.0 -220.0 -243.0 -229.0 -236.0 -235.0C-144.0 -184.0 -37.0 -96.0 28.0 -13.0ZM22.0 -271.0C-39.0 -362.0 -152.0 -461.0 -257.0 -514.0C-248.0 -520.0 -239.0 -530.0 -233.0 -537.0C-128.0 -480.0 -14.0 -380.0 50.0 -283.0ZM66.0 -555.0C-1.0 -682.0 -134.0 -799.0 -290.0 -862.0C-284.0 -868.0 -275.0 -878.0 -269.0 -884.0C-112.0 -820.0 25.0 -699.0 95.0 -567.0Z"/></g>
<g fill="red" transform="translate(800 500) scale(0.1 -0.1)"><path d="M0.0 0.0C-47.0 -71.0 -142.0 -144.0 -219.0 -186.0C-184.0 -211.0 -144.0 -251.0 -121.0 -281.0C-30.0 -225.0 65.0 -145.0 132.0 -53.0ZM17.0 -269.0C-29.0 -349.0 -122.0 -424.0 -207.0 -466.0C-172.0 -493.0 -132.0 -537.0 -111.0 -569.0C-10.0 -509.0 84.0 -423.0 149.0 -318.0ZM34.0 -554.0C-13.0 -678.0 -108.0 -774.0 -230.0 -826.0C-198.0 -853.0 -160.0 -899.0 -141.0 -933.0C8.0 -857.0 109.0 -749.0 172.0 -592.0Z"/></g>
<g fill="black" opacity=".8" transform="translate(800 500) scale(0.1 -0.1)"><path d="M0.0 0.0C-48.0 -69.0 -141.0 -142.0 -220.0 -183.0C-185.0 -208.0 -144.0 -249.0 -122.0 -279.0C-27.0 -225.0 67.0 -146.0 135.0 -55.0ZM14.0 -277.0C-32.0 -354.0 -127.0 -432.0 -210.0 -478.0C-173.0 -505.0 -133.0 -548.0 -110.0 -580.0C-13.0 -518.0 82.0 -430.0 149.0 -328.0ZM40.0 -557.0C-13.0 -669.0 -120.0 -762.0 -235.0 -813.0C-198.0 -843.0 -157.0 -891.0 -136.0 -927.0C2.0 -852.0 111.0 -748.0 183.0 -604.0Z"/></g>
<g fill="red" transform="translate(900 500) scale(0.1 -0.1)"><path d="M0.0 0.0C-79.0 -94.0 -221.0 -190.0 -350.0 -241.0C-343.0 -247.0 -334.0 -256.0 -329.0 -263.0C-200.0 -208.0 -57.0 -111.0 26.0 -12.0ZM48.0 -259.0C-36.0 -368.0 -191.0 -475.0 -337.0 -533.0C-329.0 -538.0 -320.0 -549.0 -315.0 -556.0C-168.0 -494.0 -12.0 -386.0 75.0 -272.0ZM94.0 -532.0C-5.0 -677.0 -193.0 -799.0 -406.0 -862.0C-400.0 -869.0 -392.0 -879.0 -387.0 -887.0C-171.0 -822.0 20.0 -695.0 121.0 -545.0Z"/></g>
<g fill="black" opacity=".8" transform="translate(900 500) scale(0.1 -0.1)"><path d="M0.0 0.0C-82.0 -91.0 -228.0 -184.0 -354.0 -236.0C-347.0 -243.0 -336.0 -254.0 -328.0 -261.0C-203.0 -206.0 -57.0 -111.0 31.0 -15.0ZM45.0 -266.0C-40.0 -367.0 -194.0 -468.0 -336.0 -523.0C-327.0 -530.0 -317.0 -542.0 -310.0 -549.0C-169.0 -490.0 -14.0 -388.0 75.0 -280.0ZM91.0 -532.0C-6.0 -682.0 -195.0 -809.0 -408.0 -876.0C-401.0 -883.0 -391.0 -895.0 -386.0 -902.0C-172.0 -834.0 22.0 -703.0 121.0 -546.0Z"/></g>
<g fill="red" transform="translate(1000 500) scale(0.1 -0.1)"><path d="M0.0 0.0C-68.0 -81.0 -204.0 -153.0 -319.0 -193.0C-281.0 -224.0 -239.0 -271.0 -216.0 -305.0C-84.0 -249.0 50.0 -166.0 146.0 -62.0ZM41.0 -271.0C-29.0 -365.0 -170.0 -442.0 -297.0 -485.0C-259.0 -516.0 -218.0 -565.0 -196.0 -600.0C-49.0 -539.0 90.0 -450.0 186.0 -330.0ZM61.0 -553.0C-19.0 -687.0 -180.0 -774.0 -358.0 -820.0C-324.0 -853.0 -284.0 -904.0 -266.0 -942.0C-61.0 -874.0 103.0 -774.0 209.0 -607.0Z"/></g>
<g fill="black" opacity=".8" transform="translate(1000 500) scale(0.1 -0.1)"><path d="M0.0 0.0C-69.0 -79.0 -206.0 -156.0 -321.0 -197.0C-283.0 -227.0 -239.0 -277.0 -215.0 -310.0C-85.0 -254.0 52.0 -169.0 147.0 -64.0ZM34.0 -269.0C-36.0 -356.0 -176.0 -435.0 -298.0 -479.0C-259.0 -511.0 -216.0 -561.0 -191.0 -596.0C-55.0 -535.0 84.0 -446.0 181.0 -331.0ZM61.0 -534.0C-22.0 -667.0 -188.0 -764.0 -357.0 -817.0C-319.0 -852.0 -275.0 -908.0 -254.0 -949.0C-61.0 -872.0 106.0 -761.0 216.0 -593.0Z"/></g>
<g fill="red" transform="translate(1100 500) scale(0.1 -0.1)"><path d="M0.0 0.0C-66.0 -69.0 -178.0 -145.0 -268.0 -190.0C-259.0 -194.0 -250.0 -203.0 -244.0 -210.0C-154.0 -164.0 -42.0 -86.0 27.0 -12.0ZM13.0 -281.0C-48.0 -360.0 -157.0 -442.0 -255.0 -489.0C-247.0 -495.0 -238.0 -504.0 -232.0 -511.0C-135.0 -461.0 -24.0 -376.0 41.0 -292.0ZM234.0 -741.0C185.0 -786.0 81.0 -834.0 -7.0 -863.0C-1.0 -869.0 10.0 -879.0 14.0 -886.0C103.0 -857.0 204.0 -807.0 267.0 -756.0Z"/></g>
<g fill="black" opacity=".8" transform="translate(1100 500) scale(0.1 -0.1)"><path d="M0.0 0.0C-65.0 -67.0 -176.0 -142.0 -266.0 -187.0C-258.0 -192.0 -249.0 -200.0 -241.0 -207.0C-153.0 -162.0 -42.0 -85.0 27.0 -13.0ZM12.0 -284.0C-47.0 -360.0 -156.0 -442.0 -252.0 -488.0C-244.0 -494.0 -235.0 -503.0 -229.0 -510.0C-134.0 -461.0 -23.0 -377.0 39.0 -295.0ZM237.0 -744.0C187.0 -785.0 82.0 -832.0 -10.0 -860.0C-4.0 -867.0 7.0 -877.0 11.0 -883.0C103.0 -856.0 207.0 -806.0 269.0 -760.0Z"/></g>
<g fill="red" transform="translate(1200 500) scale(0.1 -0.1)"><path d="M0.0 0.0C-49.0 -77.0 -148.0 -153.0 -229.0 -198.0C-191.0 -226.0 -147.0 -271.0 -123.0 -304.0C-30.0 -243.0 68.0 -156.0 138.0 -58.0ZM25.0 -281.0C-28.0 -359.0 -133.0 -436.0 -216.0 -482.0C-178.0 -513.0 -134.0 -560.0 -110.0 -595.0C-17.0 -531.0 86.0 -440.0 159.0 -339.0ZM297.0 -716.0C247.0 -756.0 148.0 -807.0 66.0 -832.0C95.0 -860.0 134.0 -903.0 154.0 -932.0C241.0 -903.0 346.0 -850.0 412.0 -799.0Z"/></g>
<g fill="black" opacity=".8" transform="translate(1200 500) scale(0.1 -0.1)"><path d="M0.0 0.0C-50.0 -76.0 -149.0 -154.0 -228.0 -199.0C-189.0 -227.0 -145.0 -273.0 -121.0 -305.0C-29.0 -245.0 67.0 -158.0 138.0 -61.0ZM23.0 -285.0C-28.0 -362.0 -135.0 -438.0 -218.0 -486.0C-179.0 -517.0 -135.0 -564.0 -111.0 -601.0C-18.0 -538.0 85.0 -446.0 159.0 -345.0ZM299.0 -714.0C248.0 -755.0 148.0 -804.0 64.0 -828.0C93.0 -856.0 131.0 -900.0 150.0 -930.0C244.0 -901.0 349.0 -851.0 417.0 -798.0Z"/></g>
<g fill="red" transform="translate(1300 500) scale(0.1 -0.1)"><path d="M0.0 0.0C-63.0 -80.0 -173.0 -167.0 -265.0 -218.0C-257.0 -223.0 -247.0 -232.0 -240.0 -239.0C-148.0 -186.0 -40.0 -96.0 27.0 -12.0ZM36.0 -273.0C-37.0 -361.0 -163.0 -456.0 -272.0 -510.0C-264.0 -516.0 -254.0 -525.0 -248.0 -532.0C-140.0 -475.0 -13.0 -378.0 63.0 -285.0ZM57.0 -574.0C-22.0 -690.0 -170.0 -803.0 -320.0 -864.0C-313.0 -870.0 -304.0 -880.0 -298.0 -886.0C-147.0 -823.0 2.0 -707.0 84.0 -586.0Z"/></g>
<g fill="black" opacity=".8" transform="translate(1300 500) scale(0.1 -0.1)"><path d="M0.0 0.0C-66.0 -83.0 -178.0 -173.0 -276.0 -225.0C-268.0 -231.0 -258.0 -240.0 -250.0 -247.0C-154.0 -193.0 -42.0 -101.0 28.0 -13.0ZM31.0 -273.0C-38.0 -362.0 -161.0 -459.0 -270.0 -513.0C-261.0 -519.0 -252.0 -529.0 -245.0 -536.0C-137.0 -479.0 -14.0 -381.0 58.0 -285.0ZM52.0 -566.0C-23.0 -684.0 -164.0 -801.0 -312.0 -866.0C-305.0 -872.0 -296.0 -882.0 -290.0 -888.0C-141.0 -823.0 2.0 -702.0 80.0 -578.0Z"/></g>
<g fill="red" transform="translate(1400 500) scale(0.1 -0.1)"><path d="M0.0 0.0C-48.0 -82.0 -143.0 -163.0 -225.0 -210.0C-188.0 -237.0 -145.0 -281.0 -121.0 -313.0C-25.0 -248.0 71.0 -158.0 140.0 -55.0ZM30.0 -281.0C-23.0 -363.0 -129.0 -444.0 -216.0 -491.0C-179.0 -519.0 -137.0 -563.0 -114.0 -595.0C-13.0 -531.0 91.0 -440.0 166.0 -338.0ZM51.0 -547.0C-14.0 -664.0 -140.0 -762.0 -262.0 -819.0C-223.0 -851.0 -179.0 -902.0 -157.0 -940.0C-19.0 -860.0 106.0 -748.0 193.0 -603.0Z"/></g>
<g fill="black" opacity=".8" transform="translate(1400 500) scale(0.1 -0.1)"><path d="M0.0 0.0C-49.0 -78.0 -145.0 -158.0 -225.0 -202.0C-186.0 -231.0 -141.0 -276.0 -116.0 -308.0C-19.0 -248.0 74.0 -160.0 145.0 -59.0ZM31.0 -273.0C-23.0 -353.0 -134.0 -433.0 -223.0 -479.0C-184.0 -509.0 -142.0 -554.0 -117.0 -587.0C-15.0 -524.0 92.0 -435.0 170.0 -331.0ZM42.0 -558.0C-20.0 -672.0 -143.0 -767.0 -261.0 -821.0C-223.0 -853.0 -181.0 -903.0 -159.0 -940.0C-20.0 -863.0 102.0 -755.0 185.0 -612.0Z"/></g>
</svg>
