<?xml version="1.0" encoding="UTF-8"?>
<svg width="1700" height="500" xmlns="http://www.w3.org/2000/svg">
<rect width="100%" height="100%" fill="white"/>
<g fill="green" transform="translate(100 100) scale(0.1 -0.1)"><path d="M0.0 -0.0V-787.0H32.0V0.0ZM-810.0 -793.0 -805.0 -675.0 407.0 -565.0 403.0 -685.0ZM-440.0 -72.0C-353.0 -120.0 -242.0 -191.0 -180.0 -232.0L-158.0 -207.0C-221.0 -165.0 -333.0 -99.0 -418.0 -51.0ZM-557.0 -261.0C-466.0 -309.0 -347.0 -378.0 -282.0 -420.0L-263.0 -391.0C-327.0 -352.0 -446.0 -285.0 -537.0 -238.0Z"/></g>
<g fill="green" transform="translate(200 100) scale(0.1 -0.1)"><path d="M0.0 0.0V-826.0H166.0V0.0ZM-797.0 -781.0 -785.0 -771.0 428.0 -667.0 417.0 -682.0ZM-420.0 -122.0C-341.0 -168.0 -223.0 -238.0 -166.0 -282.0L-91.0 -140.0C-152.0 -100.0 -273.0 -37.0 -349.0 4.0ZM-567.0 -340.0C-486.0 -383.0 -367.0 -451.0 -311.0 -495.0L-232.0 -352.0C-293.0 -312.0 -416.0 -250.0 -492.0 -214.0Z"/></g>
<g fill="green" transform="translate(300 100) scale(0.1 -0.1)"><path d="M0.0 0.0V-344.0H16.0V0.0ZM-565.0 -502.0 -562.0 -347.0 395.0 -270.0 393.0 -427.0ZM-293.0 -25.0C-240.0 -52.0 -167.0 -92.0 -125.0 -112.0L-114.0 -99.0C-157.0 -78.0 -230.0 -42.0 -282.0 -14.0ZM-379.0 -92.0C-324.0 -120.0 -246.0 -158.0 -201.0 -179.0L-192.0 -162.0C-236.0 -144.0 -314.0 -107.0 -370.0 -79.0Z"/></g>
<g fill="green" transform="translate(400 100) scale(0.1 -0.1)"><path d="M0.0 0.0V-364.0H92.0V0.0ZM-579.0 -503.0 -575.0 -402.0 376.0 -333.0 373.0 -438.0ZM-284.0 -54.0C-234.0 -78.0 -152.0 -115.0 -111.0 -137.0L-84.0 -45.0C-128.0 -27.0 -211.0 6.0 -258.0 27.0ZM-404.0 -148.0C-352.0 -169.0 -269.0 -205.0 -229.0 -228.0L-198.0 -136.0C-242.0 -117.0 -327.0 -84.0 -374.0 -68.0Z"/></g>
<g fill="green" transform="translate(500 100) scale(0.1 -0.1)"><path d="M0.0 0.0V-851.0H29.0V0.0ZM-1192.0 -513.0 -1194.0 -704.0 -493.0 -727.0 -489.0 -537.0ZM-337.0 -116.0C-271.0 -161.0 -182.0 -228.0 -134.0 -260.0L-111.0 -239.0C-161.0 -205.0 -250.0 -144.0 -313.0 -100.0ZM-351.0 -300.0C-288.0 -345.0 -199.0 -407.0 -149.0 -439.0L-131.0 -415.0C-180.0 -383.0 -267.0 -324.0 -331.0 -281.0Z"/></g>
<g fill="green" transform="translate(600 100) scale(0.1 -0.1)"><path d="M0.0 0.0V-894.0H150.0V0.0ZM-1221.0 -529.0 -1240.0 -792.0 -470.0 -826.0 -451.0 -564.0ZM-342.0 -137.0C-276.0 -177.0 -171.0 -239.0 -121.0 -276.0L-61.0 -138.0C-115.0 -105.0 -223.0 -51.0 -284.0 -16.0ZM-369.0 -365.0C-299.0 -405.0 -194.0 -467.0 -145.0 -506.0L-76.0 -374.0C-129.0 -340.0 -237.0 -283.0 -302.0 -250.0Z"/></g>
<g fill="green" transform="translate(700 100) scale(0.1 -0.1)"><path d="M0.0 0.0V-918.0H28.0V0.0ZM-435.0 -1047.0 -428.0 -771.0 447.0 -654.0 441.0 -931.0ZM-349.0 -102.0C-287.0 -156.0 -213.0 -229.0 -172.0 -274.0L-147.0 -257.0C-189.0 -212.0 -264.0 -142.0 -326.0 -88.0ZM-215.0 -322.0C-163.0 -375.0 -101.0 -445.0 -69.0 -487.0L-46.0 -468.0C-77.0 -429.0 -140.0 -360.0 -192.0 -308.0Z"/></g>
<g fill="green" transform="translate(800 100) scale(0.1 -0.1)"><path d="M0.0 0.0V-979.0H137.0V0.0ZM-404.0 -1048.0 -378.0 -873.0 468.0 -751.0 443.0 -930.0ZM-344.0 -138.0C-280.0 -191.0 -198.0 -267.0 -160.0 -316.0L-77.0 -215.0C-118.0 -168.0 -203.0 -98.0 -269.0 -48.0ZM-234.0 -383.0C-179.0 -436.0 -108.0 -511.0 -78.0 -559.0L20.0 -472.0C-13.0 -425.0 -89.0 -354.0 -142.0 -306.0Z"/></g>
<g fill="green" transform="translate(900 100) scale(0.1 -0.1)"><path d="M0.0 0.0V-804.0H25.0V0.0ZM-509.0 -729.0 -504.0 -711.0 229.0 -623.0 224.0 -643.0ZM-158.0 -97.0C-106.0 -129.0 -39.0 -183.0 -7.0 -209.0L12.0 -192.0C-19.0 -165.0 -88.0 -115.0 -137.0 -81.0ZM-714.0 -335.0C-632.0 -388.0 -529.0 -461.0 -475.0 -506.0L-456.0 -487.0C-511.0 -443.0 -614.0 -371.0 -696.0 -320.0Z"/></g>
<g fill="green" transform="translate(1000 100) scale(0.1 -0.1)"><path d="M0.0 0.0V-862.0H134.0V0.0ZM-501.0 -735.0 -485.0 -807.0 276.0 -710.0 261.0 -640.0ZM-139.0 -129.0C-110.0 -173.0 -60.0 -232.0 -44.0 -266.0L53.0 -186.0C32.0 -151.0 -20.0 -97.0 -45.0 -58.0ZM-673.0 -433.0C-613.0 -469.0 -525.0 -524.0 -484.0 -561.0L-429.0 -428.0C-472.0 -395.0 -563.0 -346.0 -619.0 -315.0Z"/></g>
<g fill="green" transform="translate(1100 100) scale(0.1 -0.1)"><path d="M0.0 0.0V-840.0H32.0V0.0ZM-565.0 -535.0 -557.0 -740.0 258.0 -605.0 252.0 -403.0ZM-634.0 -55.0C-529.0 -107.0 -404.0 -180.0 -330.0 -232.0L-313.0 -205.0C-389.0 -153.0 -513.0 -85.0 -618.0 -32.0ZM-596.0 -301.0C-498.0 -339.0 -373.0 -398.0 -305.0 -437.0L-290.0 -406.0C-357.0 -370.0 -482.0 -314.0 -580.0 -277.0Z"/></g>
<g fill="green" transform="translate(1200 100) scale(0.1 -0.1)"><path d="M0.0 0.0V-895.0H163.0V0.0ZM-518.0 -531.0 -496.0 -851.0 357.0 -717.0 336.0 -403.0ZM-584.0 -142.0C-478.0 -188.0 -335.0 -262.0 -261.0 -314.0L-197.0 -157.0C-274.0 -112.0 -419.0 -45.0 -527.0 -2.0ZM-579.0 -385.0C-494.0 -421.0 -368.0 -481.0 -309.0 -520.0L-234.0 -371.0C-299.0 -335.0 -428.0 -281.0 -508.0 -253.0Z"/></g>
<g fill="green" transform="translate(1300 100) scale(0.1 -0.1)"><path d="M0.0 -0.0V-858.0H38.0V0.0ZM-857.0 -669.0 -851.0 -721.0 481.0 -576.0 475.0 -525.0ZM-418.0 -81.0C-319.0 -126.0 -191.0 -199.0 -126.0 -241.0L-101.0 -207.0C-168.0 -166.0 -296.0 -97.0 -393.0 -53.0ZM-551.0 -270.0C-445.0 -317.0 -309.0 -387.0 -235.0 -433.0L-214.0 -396.0C-287.0 -353.0 -423.0 -286.0 -529.0 -241.0Z"/></g>
<g fill="green" transform="translate(1400 100) scale(0.1 -0.1)"><path d="M0.0 0.0V-909.0H195.0V0.0ZM-837.0 -626.0 -817.0 -809.0 542.0 -673.0 524.0 -497.0ZM-388.0 -125.0C-306.0 -176.0 -183.0 -252.0 -127.0 -301.0L-31.0 -145.0C-92.0 -98.0 -219.0 -30.0 -296.0 13.0ZM-573.0 -328.0C-475.0 -382.0 -338.0 -466.0 -275.0 -523.0L-173.0 -368.0C-242.0 -315.0 -383.0 -237.0 -476.0 -191.0Z"/></g>
<g fill="green" transform="translate(1500 100) scale(0.1 -0.1)"><path d="M0.0 -0.0V-797.0H25.0V0.0ZM-814.0 -773.0 -809.0 -560.0 421.0 -461.0 417.0 -676.0ZM-425.0 -64.0C-343.0 -108.0 -242.0 -174.0 -185.0 -217.0L-168.0 -196.0C-225.0 -151.0 -327.0 -89.0 -408.0 -44.0ZM-544.0 -283.0C-455.0 -328.0 -344.0 -397.0 -285.0 -441.0L-272.0 -415.0C-329.0 -375.0 -441.0 -308.0 -529.0 -263.0Z"/></g>
<g fill="green" transform="translate(1600 100) scale(0.1 -0.1)"><path d="M0.0 0.0V-869.0H131.0V0.0ZM-833.0 -761.0 -822.0 -642.0 433.0 -544.0 422.0 -667.0ZM-420.0 -134.0C-347.0 -180.0 -246.0 -250.0 -197.0 -296.0L-130.0 -185.0C-182.0 -142.0 -286.0 -78.0 -359.0 -36.0ZM-535.0 -371.0C-470.0 -416.0 -380.0 -485.0 -338.0 -532.0L-264.0 -426.0C-309.0 -382.0 -403.0 -318.0 -465.0 -278.0Z"/></g>
<g fill="green" transform="translate(100 200) scale(0.1 -0.1)"><path d="M0.0 0.0V-817.0H40.0V0.0ZM-816.0 -813.0 -809.0 -639.0 394.0 -516.0 388.0 -693.0ZM-469.0 -77.0C-370.0 -123.0 -245.0 -191.0 -175.0 -234.0L-150.0 -203.0C-220.0 -159.0 -347.0 -94.0 -442.0 -49.0ZM-587.0 -241.0C-484.0 -283.0 -348.0 -348.0 -275.0 -389.0L-251.0 -353.0C-324.0 -314.0 -460.0 -251.0 -562.0 -211.0Z"/></g>
<g fill="green" transform="translate(200 200) scale(0.1 -0.1)"><path d="M0.0 0.0V-837.0H199.0V0.0ZM-773.0 -796.0 -760.0 -757.0 412.0 -650.0 400.0 -695.0ZM-427.0 -153.0C-342.0 -201.0 -216.0 -275.0 -155.0 -321.0L-52.0 -162.0C-118.0 -119.0 -247.0 -52.0 -329.0 -11.0ZM-586.0 -343.0C-498.0 -388.0 -371.0 -460.0 -311.0 -508.0L-202.0 -350.0C-268.0 -305.0 -400.0 -240.0 -484.0 -203.0Z"/></g>
<g fill="green" transform="translate(300 200) scale(0.1 -0.1)"><path d="M0.0 -0.0V-816.0H42.0V0.0ZM-830.0 -805.0 -824.0 -645.0 397.0 -567.0 393.0 -725.0ZM-455.0 -44.0C-358.0 -107.0 -243.0 -198.0 -180.0 -256.0L-150.0 -226.0C-214.0 -167.0 -331.0 -82.0 -427.0 -20.0ZM-572.0 -269.0C-473.0 -330.0 -352.0 -420.0 -289.0 -479.0L-260.0 -446.0C-322.0 -390.0 -445.0 -302.0 -545.0 -241.0Z"/></g>
<g fill="green" transform="translate(400 200) scale(0.1 -0.1)"><path d="M0.0 0.0V-798.0H203.0V0.0ZM-767.0 -746.0 -757.0 -722.0 427.0 -645.0 418.0 -676.0ZM-438.0 -89.0C-353.0 -141.0 -237.0 -222.0 -182.0 -274.0L-76.0 -126.0C-135.0 -78.0 -254.0 -6.0 -338.0 43.0ZM-567.0 -319.0C-489.0 -369.0 -382.0 -445.0 -332.0 -495.0L-224.0 -347.0C-278.0 -300.0 -388.0 -230.0 -464.0 -187.0Z"/></g>
<g fill="green" transform="translate(500 200) scale(0.1 -0.1)"><path d="M0.0 -0.0V-805.0H28.0V0.0ZM-816.0 -795.0 -814.0 -655.0 404.0 -548.0 402.0 -689.0ZM-440.0 -98.0C-353.0 -135.0 -237.0 -193.0 -175.0 -226.0L-158.0 -200.0C-222.0 -166.0 -337.0 -113.0 -423.0 -77.0ZM-570.0 -296.0C-474.0 -330.0 -345.0 -382.0 -273.0 -414.0L-261.0 -384.0C-332.0 -353.0 -460.0 -304.0 -556.0 -273.0Z"/></g>
<g fill="green" transform="translate(600 200) scale(0.1 -0.1)"><path d="M0.0 0.0V-836.0H157.0V0.0ZM-784.0 -785.0 -773.0 -750.0 427.0 -649.0 418.0 -688.0ZM-419.0 -138.0C-336.0 -169.0 -206.0 -222.0 -142.0 -256.0L-85.0 -101.0C-155.0 -71.0 -287.0 -25.0 -364.0 -1.0ZM-568.0 -358.0C-478.0 -387.0 -342.0 -440.0 -277.0 -475.0L-216.0 -322.0C-288.0 -292.0 -426.0 -244.0 -509.0 -222.0Z"/></g>
<g fill="red" transform="translate(100 300) scale(0.1 -0.1)"><path d="M0.0 0.0V-899.0H29.0V0.0ZM-683.0 -89.0V-694.0H-654.0V-89.0ZM-288.0 -109.0C-223.0 -144.0 -145.0 -199.0 -107.0 -236.0L-89.0 -211.0C-127.0 -175.0 -204.0 -123.0 -269.0 -89.0ZM-336.0 -362.0C-268.0 -393.0 -187.0 -442.0 -144.0 -476.0L-128.0 -451.0C-170.0 -416.0 -251.0 -370.0 -319.0 -341.0Z"/></g>
<g fill="black" opacity=".8" transform="translate(100 300) scale(0.1 -0.1)"><path d="M0.0 0.0V-899.0H29.0V0.0ZM-684.0 -89.0 -682.0 -694.0H-654.0V-88.0ZM-288.0 -109.0C-222.0 -143.0 -144.0 -199.0 -108.0 -235.0L-89.0 -210.0C-128.0 -175.0 -204.0 -123.0 -269.0 -89.0ZM-334.0 -361.0C-268.0 -393.0 -187.0 -442.0 -144.0 -476.0L-127.0 -450.0C-170.0 -415.0 -251.0 -370.0 -318.0 -342.0Z"/></g>
<g fill="red" transform="translate(200 300) scale(0.1 -0.1)"><path d="M0.0 0.0V-950.0H144.0V0.0ZM-649.0 -76.0V-769.0H-514.0V-76.0ZM-262.0 -144.0C-202.0 -181.0 -125.0 -238.0 -90.0 -278.0L-8.0 -168.0C-46.0 -129.0 -126.0 -78.0 -185.0 -45.0ZM-299.0 -396.0C-237.0 -432.0 -153.0 -487.0 -116.0 -525.0L-36.0 -410.0C-77.0 -374.0 -163.0 -324.0 -224.0 -293.0Z"/></g>
<g fill="black" opacity=".8" transform="translate(200 300) scale(0.1 -0.1)"><path d="M0.0 0.0V-950.0H144.0V0.0ZM-649.0 -75.0V-769.0L-514.0 -768.0V-76.0ZM-262.0 -144.0C-202.0 -181.0 -125.0 -238.0 -91.0 -278.0L-8.0 -167.0C-46.0 -128.0 -125.0 -78.0 -184.0 -46.0ZM-301.0 -396.0C-238.0 -432.0 -153.0 -487.0 -116.0 -526.0L-37.0 -411.0C-77.0 -374.0 -162.0 -323.0 -223.0 -293.0Z"/></g>
<g fill="red" transform="translate(300 300) scale(0.1 -0.1)"><path d="M0.0 0.0V-899.0H29.0V0.0ZM-392.0 -648.0 -388.0 -676.0 188.0 -585.0 183.0 -556.0ZM-288.0 -109.0C-223.0 -144.0 -145.0 -199.0 -107.0 -236.0L-89.0 -211.0C-127.0 -175.0 -204.0 -123.0 -269.0 -89.0ZM-336.0 -362.0C-268.0 -393.0 -187.0 -442.0 -144.0 -476.0L-128.0 -451.0C-170.0 -416.0 -251.0 -370.0 -319.0 -341.0Z"/></g>
<g fill="black" opacity=".8" transform="translate(300 300) scale(0.1 -0.1)"><path d="M0.0 0.0V-901.0H27.0V0.0ZM-389.0 -648.0 -385.0 -676.0 186.0 -583.0 181.0 -553.0ZM-288.0 -112.0C-221.0 -146.0 -141.0 -200.0 -104.0 -237.0L-85.0 -213.0C-124.0 -178.0 -203.0 -126.0 -270.0 -93.0ZM-341.0 -359.0C-269.0 -392.0 -183.0 -442.0 -139.0 -478.0L-122.0 -453.0C-167.0 -417.0 -253.0 -370.0 -325.0 -341.0Z"/></g>
<g fill="red" transform="translate(400 300) scale(0.1 -0.1)"><path d="M0.0 0.0V-950.0H144.0V0.0ZM-318.0 -619.0 -292.0 -757.0 271.0 -661.0 247.0 -527.0ZM-259.0 -144.0C-199.0 -181.0 -122.0 -238.0 -87.0 -278.0L-5.0 -168.0C-43.0 -129.0 -123.0 -78.0 -182.0 -45.0ZM-307.0 -396.0C-245.0 -432.0 -161.0 -487.0 -124.0 -525.0L-44.0 -410.0C-85.0 -374.0 -171.0 -324.0 -232.0 -293.0Z"/></g>
<g fill="black" opacity=".8" transform="translate(400 300) scale(0.1 -0.1)"><path d="M0.0 0.0V-942.0H141.0V0.0ZM-318.0 -623.0 -295.0 -760.0 270.0 -660.0 249.0 -526.0ZM-264.0 -145.0C-204.0 -180.0 -125.0 -236.0 -91.0 -274.0L-4.0 -167.0C-44.0 -129.0 -125.0 -80.0 -183.0 -51.0ZM-314.0 -392.0C-248.0 -428.0 -162.0 -484.0 -125.0 -524.0L-39.0 -418.0C-82.0 -380.0 -169.0 -326.0 -232.0 -296.0Z"/></g>
<g fill="red" transform="translate(500 300) scale(0.1 -0.1)"><path d="M0.0 0.0V-899.0H29.0V0.0ZM-578.0 -652.0 -573.0 -681.0 286.0 -553.0 281.0 -527.0ZM-400.0 -92.0C-315.0 -128.0 -211.0 -185.0 -156.0 -224.0L-139.0 -199.0C-193.0 -160.0 -298.0 -105.0 -382.0 -69.0ZM-507.0 -320.0C-413.0 -356.0 -296.0 -412.0 -234.0 -451.0L-220.0 -423.0C-280.0 -386.0 -398.0 -332.0 -491.0 -298.0Z"/></g>
<g fill="black" opacity=".8" transform="translate(500 300) scale(0.1 -0.1)"><path d="M0.0 0.0V-891.0H31.0V0.0ZM-584.0 -651.0 -578.0 -682.0 295.0 -557.0 289.0 -528.0ZM-402.0 -96.0C-316.0 -134.0 -210.0 -192.0 -155.0 -232.0L-136.0 -204.0C-193.0 -165.0 -298.0 -109.0 -382.0 -72.0ZM-505.0 -324.0C-413.0 -359.0 -297.0 -414.0 -235.0 -452.0L-219.0 -422.0C-281.0 -385.0 -397.0 -333.0 -488.0 -300.0Z"/></g>
<g fill="red" transform="translate(600 300) scale(0.1 -0.1)"><path d="M0.0 0.0V-950.0H155.0V0.0ZM-547.0 -642.0 -527.0 -787.0 374.0 -659.0 355.0 -517.0ZM-367.0 -156.0C-292.0 -197.0 -188.0 -260.0 -140.0 -303.0L-50.0 -179.0C-103.0 -137.0 -211.0 -80.0 -283.0 -45.0ZM-492.0 -391.0C-410.0 -434.0 -297.0 -502.0 -246.0 -549.0L-151.0 -426.0C-208.0 -381.0 -326.0 -319.0 -404.0 -282.0Z"/></g>
<g fill="black" opacity=".8" transform="translate(600 300) scale(0.1 -0.1)"><path d="M0.0 0.0V-951.0H159.0V0.0ZM-543.0 -635.0 -521.0 -783.0 368.0 -660.0 348.0 -517.0ZM-366.0 -160.0C-292.0 -202.0 -187.0 -268.0 -139.0 -312.0L-51.0 -183.0C-105.0 -140.0 -211.0 -81.0 -284.0 -45.0ZM-486.0 -397.0C-407.0 -438.0 -298.0 -503.0 -248.0 -549.0L-158.0 -419.0C-213.0 -376.0 -326.0 -316.0 -401.0 -281.0Z"/></g>
<g fill="red" transform="translate(700 300) scale(0.1 -0.1)"><path d="M0.0 0.0V-899.0H30.0V0.0ZM-323.0 -655.0 -317.0 -683.0 167.0 -600.0 161.0 -573.0ZM-242.0 -84.0C-179.0 -124.0 -109.0 -185.0 -75.0 -228.0L-55.0 -207.0C-88.0 -164.0 -159.0 -106.0 -221.0 -65.0ZM-669.0 -390.0C-583.0 -440.0 -484.0 -515.0 -436.0 -568.0L-415.0 -546.0C-464.0 -494.0 -564.0 -420.0 -650.0 -371.0Z"/></g>
<g fill="black" opacity=".8" transform="translate(700 300) scale(0.1 -0.1)"><path d="M0.0 0.0V-901.0H29.0V0.0ZM-323.0 -655.0 -315.0 -682.0 166.0 -600.0 159.0 -572.0ZM-242.0 -83.0C-178.0 -122.0 -109.0 -184.0 -75.0 -226.0L-55.0 -206.0C-88.0 -163.0 -159.0 -105.0 -222.0 -64.0ZM-669.0 -388.0C-583.0 -439.0 -484.0 -515.0 -436.0 -567.0L-415.0 -546.0C-464.0 -494.0 -564.0 -420.0 -650.0 -371.0Z"/></g>
<g fill="red" transform="translate(800 300) scale(0.1 -0.1)"><path d="M0.0 0.0V-945.0H142.0V0.0ZM-264.0 -635.0 -240.0 -773.0 255.0 -676.0 232.0 -540.0ZM-213.0 -141.0C-170.0 -188.0 -120.0 -254.0 -101.0 -298.0L11.0 -220.0C-11.0 -176.0 -64.0 -115.0 -108.0 -71.0ZM-591.0 -472.0C-540.0 -510.0 -473.0 -566.0 -444.0 -605.0L-367.0 -486.0C-398.0 -449.0 -467.0 -399.0 -518.0 -365.0Z"/></g>
<g fill="black" opacity=".8" transform="translate(800 300) scale(0.1 -0.1)"><path d="M0.0 0.0V-945.0H141.0V0.0ZM-264.0 -636.0 -241.0 -774.0 255.0 -675.0 233.0 -540.0ZM-213.0 -140.0C-170.0 -187.0 -120.0 -253.0 -102.0 -296.0L12.0 -220.0C-11.0 -175.0 -63.0 -115.0 -107.0 -72.0ZM-594.0 -471.0C-541.0 -509.0 -474.0 -565.0 -443.0 -605.0L-365.0 -488.0C-397.0 -450.0 -467.0 -399.0 -518.0 -365.0Z"/></g>
<g fill="red" transform="translate(900 300) scale(0.1 -0.1)"><path d="M0.0 0.0V-899.0H29.0V0.0ZM-272.0 -645.0 -266.0 -671.0 152.0 -588.0 146.0 -561.0ZM-219.0 -81.0C-163.0 -125.0 -103.0 -189.0 -77.0 -235.0L-54.0 -215.0C-80.0 -170.0 -140.0 -108.0 -197.0 -64.0ZM-237.0 -341.0C-181.0 -387.0 -123.0 -454.0 -97.0 -502.0L-74.0 -482.0C-99.0 -436.0 -159.0 -370.0 -215.0 -324.0Z"/></g>
<g fill="black" opacity=".8" transform="translate(900 300) scale(0.1 -0.1)"><path d="M0.0 0.0V-892.0H31.0V0.0ZM-275.0 -640.0 -267.0 -669.0 159.0 -591.0 153.0 -559.0ZM-222.0 -86.0C-165.0 -132.0 -103.0 -199.0 -76.0 -246.0L-51.0 -225.0C-79.0 -179.0 -141.0 -114.0 -199.0 -68.0ZM-237.0 -342.0C-180.0 -391.0 -121.0 -460.0 -94.0 -508.0L-69.0 -487.0C-96.0 -440.0 -157.0 -372.0 -215.0 -326.0Z"/></g>
<g fill="red" transform="translate(1000 300) scale(0.1 -0.1)"><path d="M0.0 0.0V-936.0H141.0V0.0ZM-206.0 -603.0 -179.0 -742.0 253.0 -644.0 227.0 -508.0ZM-207.0 -107.0C-161.0 -156.0 -115.0 -225.0 -99.0 -272.0L14.0 -199.0C-5.0 -150.0 -55.0 -87.0 -103.0 -40.0ZM-216.0 -360.0C-169.0 -413.0 -120.0 -487.0 -102.0 -537.0L13.0 -463.0C-8.0 -412.0 -61.0 -343.0 -110.0 -293.0Z"/></g>
<g fill="black" opacity=".8" transform="translate(1000 300) scale(0.1 -0.1)"><path d="M0.0 0.0V-927.0H143.0V0.0ZM-204.0 -596.0 -177.0 -738.0 248.0 -648.0 224.0 -511.0ZM-207.0 -115.0C-160.0 -164.0 -111.0 -234.0 -94.0 -281.0L17.0 -205.0C-4.0 -156.0 -55.0 -93.0 -105.0 -47.0ZM-215.0 -366.0C-168.0 -417.0 -119.0 -487.0 -101.0 -536.0L8.0 -459.0C-13.0 -409.0 -64.0 -342.0 -111.0 -295.0Z"/></g>
<g fill="red" transform="translate(1100 300) scale(0.1 -0.1)"><path d="M0.0 0.0V-904.0H31.0V0.0ZM-304.0 -639.0 -297.0 -665.0 144.0 -573.0 138.0 -548.0ZM-532.0 -63.0C-448.0 -121.0 -359.0 -194.0 -305.0 -255.0L-285.0 -233.0C-340.0 -172.0 -428.0 -101.0 -514.0 -44.0ZM-282.0 -341.0C-215.0 -379.0 -141.0 -438.0 -104.0 -481.0L-85.0 -457.0C-120.0 -416.0 -196.0 -358.0 -262.0 -321.0Z"/></g>
<g fill="black" opacity=".8" transform="translate(1100 300) scale(0.1 -0.1)"><path d="M0.0 0.0V-905.0H30.0V0.0ZM-304.0 -639.0 -295.0 -665.0 143.0 -573.0 137.0 -547.0ZM-532.0 -62.0C-448.0 -119.0 -358.0 -193.0 -306.0 -253.0L-286.0 -232.0C-340.0 -172.0 -429.0 -100.0 -515.0 -44.0ZM-282.0 -339.0C-216.0 -378.0 -142.0 -438.0 -105.0 -481.0L-85.0 -457.0C-121.0 -416.0 -197.0 -358.0 -263.0 -320.0Z"/></g>
<g fill="red" transform="translate(1200 300) scale(0.1 -0.1)"><path d="M0.0 0.0V-945.0H142.0V0.0ZM-223.0 -620.0 -197.0 -759.0 235.0 -661.0 210.0 -525.0ZM-501.0 -144.0C-410.0 -192.0 -308.0 -268.0 -254.0 -323.0L-175.0 -209.0C-229.0 -159.0 -334.0 -89.0 -432.0 -41.0ZM-248.0 -394.0C-197.0 -435.0 -133.0 -496.0 -107.0 -537.0L-5.0 -447.0C-36.0 -406.0 -102.0 -350.0 -154.0 -313.0Z"/></g>
<g fill="black" opacity=".8" transform="translate(1200 300) scale(0.1 -0.1)"><path d="M0.0 0.0V-945.0H141.0V0.0ZM-223.0 -621.0 -198.0 -760.0 235.0 -660.0 211.0 -526.0ZM-501.0 -143.0C-410.0 -191.0 -307.0 -266.0 -254.0 -321.0L-174.0 -208.0C-229.0 -158.0 -333.0 -89.0 -432.0 -42.0ZM-251.0 -392.0C-198.0 -434.0 -133.0 -496.0 -105.0 -538.0L-3.0 -451.0C-34.0 -408.0 -102.0 -350.0 -155.0 -313.0Z"/></g>
<g fill="red" transform="translate(1300 300) scale(0.1 -0.1)"><path d="M0.0 0.0V-507.0H30.0V0.0ZM-579.0 -342.0 -576.0 -371.0 308.0 -304.0 305.0 -274.0ZM-311.0 -17.0C-238.0 -54.0 -148.0 -110.0 -102.0 -147.0L-84.0 -122.0C-130.0 -85.0 -220.0 -32.0 -294.0 3.0ZM-418.0 -161.0C-338.0 -194.0 -240.0 -247.0 -189.0 -284.0L-172.0 -258.0C-223.0 -221.0 -321.0 -170.0 -402.0 -138.0Z"/></g>
<g fill="black" opacity=".8" transform="translate(1300 300) scale(0.1 -0.1)"><path d="M0.0 0.0V-502.0H29.0V0.0ZM-584.0 -341.0 -579.0 -372.0 314.0 -305.0 310.0 -272.0ZM-312.0 -18.0C-238.0 -54.0 -146.0 -111.0 -101.0 -149.0L-82.0 -123.0C-130.0 -86.0 -220.0 -33.0 -296.0 2.0ZM-420.0 -159.0C-341.0 -193.0 -243.0 -247.0 -191.0 -286.0L-174.0 -258.0C-225.0 -221.0 -324.0 -170.0 -405.0 -137.0Z"/></g>
<g fill="red" transform="translate(1400 300) scale(0.1 -0.1)"><path d="M0.0 0.0V-486.0H146.0V0.0ZM-536.0 -277.0 -528.0 -406.0 367.0 -343.0 359.0 -218.0ZM-292.0 -49.0C-231.0 -79.0 -146.0 -127.0 -106.0 -160.0L-34.0 -52.0C-77.0 -21.0 -164.0 22.0 -223.0 48.0ZM-418.0 -171.0C-356.0 -203.0 -271.0 -253.0 -232.0 -287.0L-157.0 -180.0C-200.0 -147.0 -287.0 -102.0 -348.0 -75.0Z"/></g>
<g fill="black" opacity=".8" transform="translate(1400 300) scale(0.1 -0.1)"><path d="M0.0 0.0V-486.0H145.0V0.0ZM-533.0 -276.0 -524.0 -406.0 361.0 -342.0 354.0 -218.0ZM-293.0 -47.0C-231.0 -78.0 -145.0 -127.0 -105.0 -161.0L-33.0 -52.0C-77.0 -20.0 -164.0 23.0 -224.0 49.0ZM-417.0 -172.0C-354.0 -204.0 -268.0 -255.0 -228.0 -292.0L-154.0 -185.0C-198.0 -151.0 -284.0 -102.0 -345.0 -76.0Z"/></g>
<g fill="red" transform="translate(1500 300) scale(0.1 -0.1)"><path d="M0.0 0.0V-899.0H28.0V0.0ZM-766.0 -516.0V-546.0H-271.0V-516.0ZM-218.0 -107.0C-161.0 -144.0 -94.0 -200.0 -63.0 -240.0L-42.0 -218.0C-73.0 -178.0 -140.0 -123.0 -197.0 -88.0ZM-265.0 -346.0C-203.0 -383.0 -132.0 -442.0 -97.0 -483.0L-79.0 -460.0C-113.0 -419.0 -185.0 -362.0 -246.0 -326.0Z"/></g>
<g fill="black" opacity=".8" transform="translate(1500 300) scale(0.1 -0.1)"><path d="M0.0 0.0V-899.0H27.0V0.0ZM-767.0 -516.0 -765.0 -546.0 -270.0 -547.0V-514.0ZM-219.0 -108.0C-161.0 -144.0 -93.0 -202.0 -63.0 -241.0L-41.0 -219.0C-73.0 -180.0 -141.0 -124.0 -198.0 -89.0ZM-265.0 -345.0C-204.0 -383.0 -131.0 -443.0 -96.0 -483.0L-77.0 -460.0C-112.0 -420.0 -185.0 -362.0 -247.0 -326.0Z"/></g>
<g fill="red" transform="translate(1600 300) scale(0.1 -0.1)"><path d="M0.0 0.0V-945.0H132.0V0.0ZM-750.0 -491.0V-612.0H-218.0V-491.0ZM-221.0 -147.0C-173.0 -187.0 -115.0 -247.0 -91.0 -288.0L1.0 -202.0C-26.0 -161.0 -87.0 -106.0 -135.0 -70.0ZM-234.0 -389.0C-188.0 -434.0 -135.0 -499.0 -113.0 -544.0L-16.0 -464.0C-40.0 -419.0 -96.0 -359.0 -143.0 -317.0Z"/></g>
<g fill="black" opacity=".8" transform="translate(1600 300) scale(0.1 -0.1)"><path d="M0.0 0.0V-944.0H132.0V0.0ZM-749.0 -491.0 -750.0 -613.0 -219.0 -612.0 -218.0 -492.0ZM-221.0 -147.0C-174.0 -187.0 -115.0 -248.0 -92.0 -288.0L2.0 -202.0C-26.0 -161.0 -87.0 -107.0 -135.0 -72.0ZM-236.0 -389.0C-189.0 -434.0 -135.0 -498.0 -112.0 -545.0L-15.0 -466.0C-40.0 -421.0 -95.0 -359.0 -143.0 -318.0Z"/></g>
<g fill="red" transform="translate(100 400) scale(0.1 -0.1)"><path d="M0.0 0.0V-899.0H29.0V0.0ZM-771.0 -697.0V-727.0H-263.0V-697.0ZM-224.0 -119.0C-175.0 -168.0 -114.0 -236.0 -83.0 -275.0L-57.0 -257.0C-89.0 -218.0 -150.0 -153.0 -198.0 -106.0ZM-233.0 -343.0C-187.0 -395.0 -130.0 -465.0 -101.0 -506.0L-78.0 -487.0C-106.0 -447.0 -163.0 -378.0 -209.0 -327.0Z"/></g>
<g fill="black" opacity=".8" transform="translate(100 400) scale(0.1 -0.1)"><path d="M0.0 0.0V-904.0H28.0V0.0ZM-768.0 -697.0 -767.0 -726.0H-268.0V-696.0ZM-223.0 -117.0C-174.0 -165.0 -114.0 -234.0 -85.0 -271.0L-59.0 -255.0C-90.0 -216.0 -150.0 -152.0 -198.0 -104.0ZM-232.0 -341.0C-186.0 -394.0 -129.0 -464.0 -100.0 -505.0L-77.0 -487.0C-106.0 -447.0 -163.0 -378.0 -210.0 -327.0Z"/></g>
<g fill="red" transform="translate(200 400) scale(0.1 -0.1)"><path d="M0.0 0.0V-945.0H138.0V0.0ZM-759.0 -697.0V-806.0H-238.0V-697.0ZM-233.0 -130.0C-186.0 -177.0 -122.0 -244.0 -94.0 -286.0L-12.0 -189.0C-42.0 -149.0 -109.0 -88.0 -156.0 -44.0ZM-230.0 -392.0C-183.0 -438.0 -121.0 -503.0 -94.0 -545.0L-11.0 -447.0C-40.0 -408.0 -105.0 -347.0 -151.0 -305.0Z"/></g>
<g fill="black" opacity=".8" transform="translate(200 400) scale(0.1 -0.1)"><path d="M0.0 0.0V-945.0H136.0V0.0ZM-760.0 -699.0 -762.0 -808.0 -235.0 -805.0 -233.0 -698.0ZM-232.0 -129.0C-186.0 -175.0 -122.0 -241.0 -95.0 -282.0L-11.0 -187.0C-42.0 -147.0 -108.0 -88.0 -154.0 -45.0ZM-235.0 -389.0C-186.0 -436.0 -122.0 -502.0 -94.0 -545.0L-9.0 -449.0C-38.0 -409.0 -106.0 -347.0 -153.0 -305.0Z"/></g>
<g fill="red" transform="translate(300 400) scale(0.1 -0.1)"><path d="M0.0 0.0V-626.0H29.0V0.0ZM-290.0 -426.0 -284.0 -453.0 169.0 -363.0 163.0 -336.0ZM-211.0 -60.0C-156.0 -88.0 -90.0 -130.0 -57.0 -161.0L-36.0 -137.0C-69.0 -108.0 -136.0 -66.0 -189.0 -39.0ZM-277.0 -204.0C-219.0 -228.0 -148.0 -268.0 -112.0 -296.0L-92.0 -272.0C-129.0 -243.0 -199.0 -205.0 -257.0 -182.0Z"/></g>
<g fill="black" opacity=".8" transform="translate(300 400) scale(0.1 -0.1)"><path d="M0.0 0.0V-619.0H28.0V0.0ZM-295.0 -420.0 -288.0 -453.0 177.0 -363.0 170.0 -331.0ZM-214.0 -59.0C-157.0 -87.0 -88.0 -131.0 -56.0 -163.0L-37.0 -141.0C-70.0 -111.0 -139.0 -67.0 -195.0 -38.0ZM-283.0 -197.0C-224.0 -226.0 -151.0 -271.0 -114.0 -303.0L-94.0 -279.0C-131.0 -248.0 -205.0 -205.0 -265.0 -178.0Z"/></g>
<g fill="red" transform="translate(400 400) scale(0.1 -0.1)"><path d="M0.0 0.0V-653.0H139.0V0.0ZM-248.0 -389.0 -226.0 -522.0 246.0 -439.0 224.0 -307.0ZM-180.0 -111.0C-139.0 -148.0 -90.0 -201.0 -69.0 -236.0L30.0 -153.0C7.0 -118.0 -46.0 -69.0 -87.0 -36.0ZM-269.0 -249.0C-225.0 -284.0 -172.0 -337.0 -150.0 -373.0L-52.0 -286.0C-77.0 -249.0 -133.0 -202.0 -178.0 -170.0Z"/></g>
<g fill="black" opacity=".8" transform="translate(400 400) scale(0.1 -0.1)"><path d="M0.0 0.0V-644.0H134.0V0.0ZM-243.0 -391.0 -224.0 -525.0 237.0 -439.0 219.0 -311.0ZM-180.0 -108.0C-137.0 -145.0 -84.0 -199.0 -62.0 -235.0L35.0 -155.0C9.0 -119.0 -46.0 -69.0 -89.0 -37.0ZM-270.0 -248.0C-221.0 -286.0 -161.0 -342.0 -135.0 -383.0L-40.0 -300.0C-69.0 -260.0 -131.0 -207.0 -180.0 -174.0Z"/></g>
<g fill="red" transform="translate(500 400) scale(0.1 -0.1)"><path d="M0.0 0.0V-899.0H30.0V0.0ZM-254.0 -643.0 -248.0 -669.0 138.0 -589.0 131.0 -562.0ZM-200.0 -91.0C-146.0 -136.0 -90.0 -201.0 -65.0 -246.0L-43.0 -227.0C-66.0 -183.0 -123.0 -119.0 -177.0 -75.0ZM-210.0 -336.0C-156.0 -385.0 -101.0 -454.0 -77.0 -502.0L-53.0 -484.0C-76.0 -437.0 -133.0 -368.0 -188.0 -320.0Z"/></g>
<g fill="black" opacity=".8" transform="translate(500 400) scale(0.1 -0.1)"><path d="M0.0 0.0V-901.0H30.0V0.0ZM-254.0 -650.0 -247.0 -673.0 137.0 -588.0 130.0 -563.0ZM-197.0 -95.0C-144.0 -138.0 -86.0 -200.0 -62.0 -244.0L-38.0 -223.0C-63.0 -182.0 -121.0 -120.0 -174.0 -78.0ZM-208.0 -339.0C-156.0 -385.0 -101.0 -451.0 -76.0 -497.0L-51.0 -476.0C-76.0 -432.0 -133.0 -368.0 -186.0 -323.0Z"/></g>
<g fill="red" transform="translate(600 400) scale(0.1 -0.1)"><path d="M0.0 0.0V-945.0H134.0V0.0ZM-197.0 -619.0 -172.0 -749.0 224.0 -658.0 200.0 -532.0ZM-178.0 -131.0C-134.0 -182.0 -89.0 -252.0 -74.0 -300.0L34.0 -233.0C17.0 -183.0 -31.0 -118.0 -78.0 -70.0ZM-189.0 -379.0C-142.0 -432.0 -92.0 -505.0 -74.0 -555.0L32.0 -483.0C11.0 -432.0 -43.0 -364.0 -91.0 -314.0Z"/></g>
<g fill="black" opacity=".8" transform="translate(600 400) scale(0.1 -0.1)"><path d="M0.0 0.0V-953.0H136.0V0.0ZM-196.0 -618.0 -169.0 -750.0 223.0 -655.0 197.0 -528.0ZM-181.0 -130.0C-139.0 -180.0 -97.0 -251.0 -83.0 -298.0L29.0 -229.0C12.0 -180.0 -32.0 -115.0 -77.0 -69.0ZM-189.0 -376.0C-145.0 -429.0 -100.0 -501.0 -84.0 -552.0L27.0 -481.0C9.0 -430.0 -39.0 -361.0 -84.0 -312.0Z"/></g>
<g fill="red" transform="translate(700 400) scale(0.1 -0.1)"><path d="M0.0 0.0V-899.0H29.0V0.0ZM-330.0 -645.0 -325.0 -672.0 168.0 -583.0 163.0 -556.0ZM-235.0 -117.0C-174.0 -155.0 -102.0 -210.0 -69.0 -251.0L-45.0 -229.0C-80.0 -189.0 -151.0 -134.0 -213.0 -99.0ZM-276.0 -360.0C-210.0 -398.0 -133.0 -456.0 -96.0 -498.0L-77.0 -475.0C-114.0 -434.0 -190.0 -377.0 -257.0 -341.0Z"/></g>
<g fill="black" opacity=".8" transform="translate(700 400) scale(0.1 -0.1)"><path d="M0.0 0.0V-904.0H28.0V0.0ZM-330.0 -646.0 -324.0 -669.0 161.0 -584.0 155.0 -559.0ZM-233.0 -105.0C-175.0 -143.0 -107.0 -201.0 -78.0 -240.0L-57.0 -219.0C-87.0 -180.0 -154.0 -124.0 -214.0 -87.0ZM-270.0 -356.0C-208.0 -395.0 -139.0 -453.0 -104.0 -494.0L-84.0 -472.0C-119.0 -431.0 -189.0 -376.0 -251.0 -339.0Z"/></g>
<g fill="red" transform="translate(800 400) scale(0.1 -0.1)"><path d="M0.0 0.0V-941.0H137.0V0.0ZM-264.0 -614.0 -240.0 -744.0 240.0 -653.0 216.0 -522.0ZM-224.0 -143.0C-173.0 -183.0 -112.0 -243.0 -87.0 -284.0L11.0 -198.0C-18.0 -157.0 -82.0 -102.0 -133.0 -66.0ZM-243.0 -385.0C-192.0 -428.0 -132.0 -490.0 -108.0 -533.0L-8.0 -450.0C-36.0 -407.0 -98.0 -349.0 -150.0 -310.0Z"/></g>
<g fill="black" opacity=".8" transform="translate(800 400) scale(0.1 -0.1)"><path d="M0.0 0.0V-951.0H135.0V0.0ZM-266.0 -615.0 -241.0 -745.0 245.0 -650.0 222.0 -525.0ZM-216.0 -135.0C-167.0 -177.0 -107.0 -238.0 -84.0 -280.0L13.0 -194.0C-15.0 -151.0 -76.0 -96.0 -127.0 -59.0ZM-245.0 -385.0C-191.0 -429.0 -127.0 -492.0 -100.0 -537.0L-5.0 -451.0C-35.0 -407.0 -101.0 -346.0 -154.0 -307.0Z"/></g>
<g fill="red" transform="translate(900 400) scale(0.1 -0.1)"><path d="M0.0 0.0V-503.0H29.0V0.0ZM-390.0 -344.0 -385.0 -374.0 214.0 -300.0 209.0 -271.0ZM-263.0 -46.0C-196.0 -74.0 -117.0 -119.0 -76.0 -152.0L-60.0 -128.0C-101.0 -95.0 -180.0 -52.0 -246.0 -26.0ZM-338.0 -162.0C-269.0 -189.0 -187.0 -233.0 -145.0 -268.0L-129.0 -242.0C-170.0 -210.0 -254.0 -167.0 -321.0 -140.0Z"/></g>
<g fill="black" opacity=".8" transform="translate(900 400) scale(0.1 -0.1)"><path d="M0.0 0.0V-524.0H27.0V0.0ZM-377.0 -350.0 -371.0 -370.0 192.0 -297.0 187.0 -275.0ZM-257.0 -40.0C-194.0 -67.0 -119.0 -110.0 -81.0 -142.0L-65.0 -119.0C-103.0 -89.0 -178.0 -47.0 -240.0 -20.0ZM-327.0 -164.0C-262.0 -189.0 -181.0 -230.0 -139.0 -259.0L-122.0 -235.0C-164.0 -206.0 -247.0 -167.0 -312.0 -144.0Z"/></g>
<g fill="red" transform="translate(1000 400) scale(0.1 -0.1)"><path d="M0.0 0.0V-518.0H128.0V0.0ZM-310.0 -308.0 -297.0 -428.0 224.0 -363.0 212.0 -250.0ZM-226.0 -83.0C-172.0 -116.0 -100.0 -166.0 -67.0 -200.0L6.0 -108.0C-30.0 -75.0 -103.0 -29.0 -157.0 0.0ZM-304.0 -207.0C-250.0 -240.0 -178.0 -290.0 -145.0 -324.0L-72.0 -232.0C-108.0 -199.0 -181.0 -153.0 -235.0 -124.0Z"/></g>
<g fill="black" opacity=".8" transform="translate(1000 400) scale(0.1 -0.1)"><path d="M0.0 0.0V-525.0H131.0V0.0ZM-321.0 -312.0 -307.0 -429.0 242.0 -360.0 230.0 -249.0ZM-225.0 -85.0C-175.0 -115.0 -108.0 -161.0 -78.0 -192.0L3.0 -101.0C-32.0 -71.0 -100.0 -30.0 -149.0 -5.0ZM-313.0 -203.0C-261.0 -233.0 -192.0 -279.0 -161.0 -313.0L-80.0 -223.0C-115.0 -190.0 -185.0 -146.0 -236.0 -122.0Z"/></g>
<g fill="red" transform="translate(1100 400) scale(0.1 -0.1)"><path d="M0.0 0.0V-785.0H30.0V0.0ZM-496.0 -524.0V-553.0H-301.0V-524.0ZM-222.0 -96.0C-170.0 -132.0 -111.0 -184.0 -81.0 -219.0L-59.0 -200.0C-88.0 -165.0 -149.0 -114.0 -200.0 -79.0ZM-261.0 -294.0C-207.0 -328.0 -141.0 -378.0 -109.0 -412.0L-87.0 -392.0C-119.0 -357.0 -185.0 -308.0 -240.0 -276.0Z"/></g>
<g fill="black" opacity=".8" transform="translate(1100 400) scale(0.1 -0.1)"><path d="M0.0 0.0V-779.0H30.0V0.0ZM-502.0 -524.0 -499.0 -554.0 -294.0 -556.0 -295.0 -524.0ZM-224.0 -98.0C-171.0 -135.0 -110.0 -187.0 -80.0 -223.0L-58.0 -203.0C-88.0 -167.0 -150.0 -117.0 -201.0 -81.0ZM-260.0 -295.0C-208.0 -329.0 -143.0 -380.0 -111.0 -412.0L-88.0 -391.0C-121.0 -356.0 -186.0 -308.0 -239.0 -277.0Z"/></g>
<g fill="red" transform="translate(1200 400) scale(0.1 -0.1)"><path d="M0.0 0.0V-765.0H143.0V0.0ZM-428.0 -514.0V-639.0H-238.0V-514.0ZM-204.0 -129.0C-157.0 -160.0 -96.0 -208.0 -69.0 -240.0L27.0 -146.0C-4.0 -115.0 -67.0 -72.0 -113.0 -44.0ZM-229.0 -335.0C-181.0 -365.0 -119.0 -412.0 -92.0 -443.0L3.0 -347.0C-29.0 -316.0 -93.0 -275.0 -140.0 -248.0Z"/></g>
<g fill="black" opacity=".8" transform="translate(1200 400) scale(0.1 -0.1)"><path d="M0.0 0.0V-767.0H145.0V0.0ZM-424.0 -509.0 -422.0 -637.0 -243.0 -639.0 -244.0 -514.0ZM-204.0 -129.0C-157.0 -161.0 -95.0 -212.0 -68.0 -245.0L27.0 -148.0C-5.0 -116.0 -67.0 -71.0 -114.0 -43.0ZM-225.0 -338.0C-179.0 -368.0 -118.0 -413.0 -92.0 -445.0L-0.0 -346.0C-30.0 -315.0 -92.0 -273.0 -138.0 -248.0Z"/></g>
</svg>
