<?xml version="1.0" encoding="UTF-8"?>
<svg width="1700" height="400" xmlns="http://www.w3.org/2000/svg">
<rect width="100%" height="100%" fill="white"/>
<g fill="green" transform="translate(100 100) scale(0.1 -0.1)"><path d="M-0.0 0.0V31.0H1024.0V-0.0ZM-70.0 -456.0V-483.0H511.0V-456.0ZM300.0 -478.0 129.0 -283.0 835.0 -236.0 1006.0 -431.0ZM391.0 325.0V-591.0H419.0V325.0ZM717.0 292.0V-541.0H746.0V292.0Z"/></g>
<g fill="green" transform="translate(200 100) scale(0.1 -0.1)"><path d="M0.0 0.0V-105.0H1103.0V0.0ZM-32.0 -489.0V-620.0H568.0V-489.0ZM340.0 -469.0 234.0 -423.0 866.0 -410.0 972.0 -456.0ZM360.0 257.0V-676.0H523.0V257.0ZM703.0 230.0V-633.0H867.0V230.0Z"/></g>
<g fill="green" transform="translate(300 100) scale(0.1 -0.1)"><path d="M0.0 0.0V46.0H796.0V0.0ZM-96.0 -267.0V-284.0H336.0V-267.0ZM252.0 -406.0 68.0 -175.0 665.0 -124.0 850.0 -355.0ZM360.0 283.0V-379.0H378.0V283.0ZM541.0 247.0V-324.0H560.0V247.0Z"/></g>
<g fill="green" transform="translate(400 100) scale(0.1 -0.1)"><path d="M0.0 0.0V-57.0H869.0V0.0ZM-64.0 -310.0V-396.0H398.0V-310.0ZM285.0 -397.0 171.0 -286.0 700.0 -272.0 815.0 -383.0ZM342.0 223.0V-444.0H456.0V223.0ZM551.0 193.0V-397.0H664.0V193.0Z"/></g>
<g fill="green" transform="translate(500 100) scale(0.1 -0.1)"><path d="M0.0 0.0V17.0H774.0V0.0ZM-231.0 -756.0V-790.0H50.0V-756.0ZM217.0 -339.0 70.0 -577.0 520.0 -536.0 667.0 -299.0ZM123.0 361.0V-870.0H157.0V361.0ZM552.0 386.0V-905.0H587.0V386.0Z"/></g>
<g fill="green" transform="translate(600 100) scale(0.1 -0.1)"><path d="M0.0 0.0V-151.0H824.0V0.0ZM-191.0 -741.0V-907.0H51.0V-741.0ZM213.0 -317.0 122.0 -713.0 559.0 -702.0 651.0 -306.0ZM69.0 338.0V-977.0H246.0V338.0ZM486.0 359.0V-1003.0H667.0V359.0Z"/></g>
<g fill="green" transform="translate(700 100) scale(0.1 -0.1)"><path d="M0.0 0.0V-26.0H1137.0V-0.0ZM210.0 -448.0V-477.0H968.0V-448.0ZM280.0 69.0 271.0 -534.0 628.0 -532.0 637.0 72.0ZM15.0 61.0V-405.0H44.0V61.0ZM835.0 140.0V-518.0H864.0V140.0Z"/></g>
<g fill="green" transform="translate(800 100) scale(0.1 -0.1)"><path d="M0.0 0.0V-131.0H1184.0V0.0ZM251.0 -469.0V-601.0H1030.0V-469.0ZM302.0 42.0 296.0 -620.0 722.0 -619.0 728.0 43.0ZM-30.0 39.0V-488.0H129.0V39.0ZM772.0 101.0V-588.0H938.0V101.0Z"/></g>
<g fill="green" transform="translate(900 100) scale(0.1 -0.1)"><path d="M-0.0 0.0V-152.0H920.0V0.0ZM-234.0 -553.0V-583.0H498.0V-553.0ZM187.0 -429.0 539.0 151.0 987.0 54.0 636.0 -526.0ZM391.0 -59.0V-758.0H423.0V-59.0ZM770.0 -141.0V-631.0H803.0V-141.0Z"/></g>
<g fill="green" transform="translate(1000 100) scale(0.1 -0.1)"><path d="M0.0 0.0V-202.0H1031.0V0.0ZM-161.0 -577.0V-701.0H510.0V-577.0ZM345.0 -488.0 561.0 21.0 913.0 -5.0 697.0 -514.0ZM403.0 -116.0V-821.0H585.0V-116.0ZM744.0 -183.0V-721.0H926.0V-183.0Z"/></g>
<g fill="green" transform="translate(1100 100) scale(0.1 -0.1)"><path d="M0.0 0.0V31.0H907.0V-0.0ZM258.0 -501.0V-526.0H616.0V-501.0ZM246.0 -562.0 84.0 -188.0 815.0 -143.0 977.0 -517.0ZM418.0 356.0V-689.0H444.0V356.0ZM638.0 299.0V-606.0H664.0V299.0Z"/></g>
<g fill="green" transform="translate(1200 100) scale(0.1 -0.1)"><path d="M0.0 0.0V-104.0H973.0V0.0ZM315.0 -498.0V-632.0H630.0V-498.0ZM304.0 -532.0 203.0 -323.0 804.0 -311.0 905.0 -519.0ZM401.0 295.0V-768.0H552.0V295.0ZM629.0 249.0V-691.0H779.0V249.0Z"/></g>
<g fill="green" transform="translate(1300 100) scale(0.1 -0.1)"><path d="M0.0 0.0V21.0H929.0V0.0ZM-190.0 -494.0V-525.0H694.0V-494.0ZM264.0 -572.0 112.0 -326.0 801.0 -284.0 953.0 -530.0ZM381.0 333.0V-593.0H412.0V333.0ZM661.0 293.0V-534.0H693.0V293.0Z"/></g>
<g fill="green" transform="translate(1400 100) scale(0.1 -0.1)"><path d="M0.0 0.0V-108.0H1021.0V0.0ZM-168.0 -533.0V-671.0H769.0V-533.0ZM322.0 -563.0 228.0 -456.0 808.0 -444.0 902.0 -552.0ZM375.0 288.0V-642.0H538.0V288.0ZM643.0 256.0V-589.0H807.0V256.0Z"/></g>
<g fill="green" transform="translate(1500 100) scale(0.1 -0.1)"><path d="M-0.0 0.0V35.0H1052.0V-0.0ZM-42.0 -459.0V-493.0H535.0V-459.0ZM302.0 -499.0 102.0 -288.0 866.0 -232.0 1066.0 -443.0ZM406.0 324.0V-594.0H441.0V324.0ZM730.0 288.0V-543.0H765.0V288.0Z"/></g>
<g fill="green" transform="translate(1600 100) scale(0.1 -0.1)"><path d="M0.0 0.0V-119.0H1061.0V0.0ZM-73.0 -458.0V-609.0H555.0V-458.0ZM270.0 -474.0 146.0 -427.0 862.0 -412.0 986.0 -459.0ZM312.0 219.0V-688.0H499.0V219.0ZM675.0 189.0V-641.0H862.0V189.0Z"/></g>
<g fill="red" transform="translate(100 200) scale(0.1 -0.1)"><path d="M0.0 0.0V-29.0H601.0V0.0ZM130.0 -608.0V-638.0H470.0V-608.0ZM117.0 194.0V-705.0H146.0V194.0ZM-268.0 74.0V-531.0H-239.0V74.0ZM457.0 194.0V-705.0H486.0V194.0Z"/></g>
<g fill="black" opacity=".8" transform="translate(100 200) scale(0.1 -0.1)"><path d="M0.0 0.0V-28.0H601.0V0.0ZM129.0 -607.0V-638.0H471.0V-607.0ZM116.0 193.0 117.0 -706.0 147.0 -705.0V194.0ZM-268.0 74.0V-530.0H-238.0V74.0ZM457.0 194.0V-706.0H485.0V194.0Z"/></g>
<g fill="red" transform="translate(200 200) scale(0.1 -0.1)"><path d="M0.0 0.0V-139.0H581.0V0.0ZM138.0 -561.0V-700.0H454.0V-561.0ZM70.0 195.0V-755.0H211.0V195.0ZM-336.0 98.0V-604.0H-203.0V98.0ZM345.0 195.0V-750.0H487.0V195.0Z"/></g>
<g fill="black" opacity=".8" transform="translate(200 200) scale(0.1 -0.1)"><path d="M0.0 0.0V-139.0H581.0V0.0ZM138.0 -561.0V-699.0H453.0V-561.0ZM70.0 195.0V-755.0H210.0L211.0 196.0ZM-336.0 99.0V-604.0H-203.0V99.0ZM346.0 195.0V-749.0H486.0V195.0Z"/></g>
<g fill="red" transform="translate(300 200) scale(0.1 -0.1)"><path d="M0.0 0.0V-29.0H587.0V0.0ZM120.0 -607.0V-637.0H469.0V-607.0ZM120.0 -300.0V-329.0H469.0V-300.0ZM107.0 182.0V-704.0H137.0V182.0ZM455.0 182.0V-704.0H485.0V182.0Z"/></g>
<g fill="black" opacity=".8" transform="translate(300 200) scale(0.1 -0.1)"><path d="M0.0 0.0V-32.0H587.0V0.0ZM127.0 -612.0V-641.0H466.0V-612.0ZM116.0 -294.0 132.0 -320.0 472.0 -323.0 456.0 -297.0ZM106.0 183.0V-709.0H134.0V183.0ZM454.0 182.0V-708.0H482.0V182.0Z"/></g>
<g fill="red" transform="translate(400 200) scale(0.1 -0.1)"><path d="M0.0 0.0V-135.0H613.0V0.0ZM172.0 -580.0V-714.0H434.0V-580.0ZM172.0 -286.0V-420.0H434.0V-286.0ZM78.0 156.0V-767.0H222.0V156.0ZM382.0 155.0V-768.0H529.0V155.0Z"/></g>
<g fill="black" opacity=".8" transform="translate(400 200) scale(0.1 -0.1)"><path d="M0.0 0.0V-140.0H612.0V0.0ZM159.0 -573.0V-710.0H439.0V-573.0ZM148.0 -278.0 158.0 -409.0 443.0 -410.0 435.0 -279.0ZM80.0 173.0V-768.0H221.0V173.0ZM393.0 172.0V-760.0H535.0V172.0Z"/></g>
<g fill="red" transform="translate(500 200) scale(0.1 -0.1)"><path d="M0.0 0.0V-29.0H640.0V0.0ZM129.0 -609.0V-639.0H492.0V-609.0ZM129.0 -297.0V-326.0H496.0V-297.0ZM116.0 193.0V-706.0H145.0V193.0ZM482.0 193.0V-706.0H512.0V193.0Z"/></g>
<g fill="black" opacity=".8" transform="translate(500 200) scale(0.1 -0.1)"><path d="M0.0 0.0V-26.0H633.0V0.0ZM126.0 -606.0V-636.0H495.0V-606.0ZM132.0 -299.0 126.0 -339.0 497.0 -336.0 504.0 -296.0ZM118.0 195.0V-698.0H148.0V195.0ZM482.0 196.0V-701.0H511.0V196.0Z"/></g>
<g fill="red" transform="translate(600 200) scale(0.1 -0.1)"><path d="M0.0 0.0V-144.0H653.0V0.0ZM142.0 -561.0V-705.0H476.0V-561.0ZM142.0 -281.0V-420.0H476.0V-281.0ZM74.0 195.0V-755.0H225.0V195.0ZM421.0 195.0V-750.0H574.0V195.0Z"/></g>
<g fill="black" opacity=".8" transform="translate(600 200) scale(0.1 -0.1)"><path d="M0.0 0.0V-139.0H653.0V0.0ZM149.0 -567.0V-708.0H472.0V-567.0ZM155.0 -281.0 150.0 -431.0H472.0L478.0 -281.0ZM83.0 178.0V-760.0H229.0V178.0ZM417.0 179.0V-755.0H565.0V179.0Z"/></g>
<g fill="red" transform="translate(700 200) scale(0.1 -0.1)"><path d="M0.0 0.0V-29.0H883.0V0.0ZM209.0 -596.0V-625.0H672.0V-596.0ZM209.0 -295.0V-324.0H672.0V-295.0ZM194.0 198.0V-701.0H223.0V198.0ZM658.0 198.0V-697.0H687.0V198.0Z"/></g>
<g fill="black" opacity=".8" transform="translate(700 200) scale(0.1 -0.1)"><path d="M0.0 0.0V-26.0H879.0V0.0ZM204.0 -590.0V-620.0H670.0V-590.0ZM204.0 -297.0 198.0 -323.0 673.0 -321.0 679.0 -295.0ZM191.0 194.0V-697.0H220.0V194.0ZM658.0 193.0V-695.0H687.0V193.0Z"/></g>
<g fill="red" transform="translate(800 200) scale(0.1 -0.1)"><path d="M0.0 0.0V-145.0H937.0V0.0ZM256.0 -572.0V-716.0H675.0V-572.0ZM256.0 -288.0V-430.0H675.0V-288.0ZM173.0 169.0V-772.0H330.0V169.0ZM612.0 169.0V-763.0H773.0V169.0Z"/></g>
<g fill="black" opacity=".8" transform="translate(800 200) scale(0.1 -0.1)"><path d="M0.0 0.0V-143.0H935.0V0.0ZM262.0 -577.0V-720.0H676.0V-577.0ZM261.0 -294.0 256.0 -434.0H678.0L683.0 -293.0ZM169.0 167.0V-774.0H329.0V167.0ZM612.0 166.0V-768.0H773.0V166.0Z"/></g>
<g fill="red" transform="translate(900 200) scale(0.1 -0.1)"><path d="M0.0 0.0V-30.0H834.0V0.0ZM-21.0 -412.0V-441.0H853.0V-412.0ZM200.0 -273.0V-302.0H638.0V-273.0ZM187.0 117.0V-430.0H216.0V117.0ZM623.0 117.0V-430.0H653.0V117.0Z"/></g>
<g fill="black" opacity=".8" transform="translate(900 200) scale(0.1 -0.1)"><path d="M0.0 0.0V-29.0H833.0V0.0ZM-22.0 -411.0V-441.0H853.0V-411.0ZM199.0 -273.0 200.0 -302.0H639.0V-272.0ZM187.0 116.0V-430.0H216.0V116.0ZM623.0 116.0V-430.0H652.0V116.0Z"/></g>
<g fill="red" transform="translate(1000 200) scale(0.1 -0.1)"><path d="M0.0 0.0V-117.0H878.0V0.0ZM-22.0 -427.0V-548.0H901.0V-427.0ZM237.0 -284.0V-386.0H638.0V-284.0ZM163.0 84.0V-465.0H309.0V84.0ZM573.0 84.0V-465.0H722.0V84.0Z"/></g>
<g fill="black" opacity=".8" transform="translate(1000 200) scale(0.1 -0.1)"><path d="M0.0 0.0V-117.0H878.0V0.0ZM-22.0 -427.0V-548.0H902.0V-427.0ZM236.0 -283.0V-386.0L639.0 -385.0V-284.0ZM163.0 85.0V-466.0H308.0V85.0ZM575.0 85.0V-464.0H722.0V85.0Z"/></g>
<g fill="red" transform="translate(1100 200) scale(0.1 -0.1)"><path d="M0.0 0.0V-29.0H517.0V0.0ZM-324.0 -599.0V-628.0H-32.0V-599.0ZM129.0 -299.0V-328.0H425.0V-299.0ZM112.0 195.0V-704.0H141.0V195.0ZM397.0 195.0V-700.0H427.0V195.0Z"/></g>
<g fill="black" opacity=".8" transform="translate(1100 200) scale(0.1 -0.1)"><path d="M0.0 0.0V-28.0H516.0V0.0ZM-324.0 -599.0V-628.0H-32.0V-599.0ZM128.0 -299.0 130.0 -329.0 426.0 -328.0 425.0 -299.0ZM112.0 195.0V-703.0H141.0V195.0ZM396.0 194.0V-700.0H426.0V194.0Z"/></g>
<g fill="red" transform="translate(1200 200) scale(0.1 -0.1)"><path d="M0.0 0.0V-140.0H545.0V0.0ZM-314.0 -580.0V-709.0H-48.0V-580.0ZM132.0 -293.0V-430.0H412.0V-293.0ZM66.0 170.0V-775.0H211.0V170.0ZM332.0 170.0V-771.0H480.0V170.0Z"/></g>
<g fill="black" opacity=".8" transform="translate(1200 200) scale(0.1 -0.1)"><path d="M0.0 0.0V-140.0H545.0V0.0ZM-314.0 -580.0V-709.0H-48.0V-580.0ZM132.0 -293.0V-430.0H411.0L413.0 -293.0ZM66.0 171.0V-775.0H211.0V171.0ZM333.0 171.0V-770.0H480.0V171.0Z"/></g>
<g fill="red" transform="translate(1300 200) scale(0.1 -0.1)"><path d="M0.0 0.0V-186.0H519.0V0.0ZM-1.0 -576.0V-605.0H525.0V-576.0ZM30.0 -29.0H489.0V-156.0H30.0ZM-16.0 -229.0V-648.0H13.0V-229.0ZM507.0 -229.0V-643.0H536.0V-229.0Z"/></g>
<g fill="black" opacity=".8" transform="translate(1300 200) scale(0.1 -0.1)"><path d="M0.0 0.0V-185.0H518.0V0.0ZM-2.0 -575.0V-604.0H525.0V-575.0ZM29.0 -30.0 489.0 -31.0 490.0 -156.0H32.0ZM-16.0 -229.0V-647.0H13.0V-229.0ZM507.0 -229.0V-642.0H535.0V-229.0Z"/></g>
<g fill="red" transform="translate(1400 200) scale(0.1 -0.1)"><path d="M0.0 0.0V-204.0H553.0V0.0ZM42.0 -539.0V-652.0H479.0V-539.0ZM131.0 -85.0H414.0V-119.0H131.0ZM-19.0 -224.0V-683.0H122.0V-224.0ZM427.0 -224.0V-683.0H571.0V-224.0Z"/></g>
<g fill="black" opacity=".8" transform="translate(1400 200) scale(0.1 -0.1)"><path d="M0.0 0.0V-203.0H553.0V0.0ZM43.0 -540.0V-653.0H479.0V-540.0ZM133.0 -85.0 415.0 -86.0 412.0 -120.0 131.0 -119.0ZM-19.0 -224.0V-684.0H122.0V-224.0ZM428.0 -225.0V-683.0H570.0V-225.0Z"/></g>
<g fill="red" transform="translate(1500 200) scale(0.1 -0.1)"><path d="M0.0 0.0V-29.0H663.0V0.0ZM150.0 -487.0V-516.0H504.0V-487.0ZM150.0 -234.0V-263.0H504.0V-234.0ZM137.0 138.0V-563.0H166.0V138.0ZM488.0 138.0V-563.0H517.0V138.0Z"/></g>
<g fill="black" opacity=".8" transform="translate(1500 200) scale(0.1 -0.1)"><path d="M0.0 0.0V-25.0H650.0V0.0ZM146.0 -478.0V-507.0H499.0V-478.0ZM140.0 -233.0 136.0 -260.0 507.0 -257.0 512.0 -230.0ZM130.0 131.0V-555.0H159.0V131.0ZM488.0 132.0V-557.0H516.0V132.0Z"/></g>
<g fill="red" transform="translate(1600 200) scale(0.1 -0.1)"><path d="M0.0 0.0V-129.0H635.0V0.0ZM126.0 -427.0V-556.0H460.0V-427.0ZM126.0 -213.0V-335.0H460.0V-213.0ZM59.0 87.0V-611.0H203.0V87.0ZM407.0 86.0V-607.0H554.0V86.0Z"/></g>
<g fill="black" opacity=".8" transform="translate(1600 200) scale(0.1 -0.1)"><path d="M0.0 0.0V-128.0H630.0V0.0ZM129.0 -435.0V-563.0H466.0V-435.0ZM121.0 -217.0 118.0 -341.0 474.0 -340.0 478.0 -217.0ZM60.0 86.0V-620.0H203.0V86.0ZM413.0 85.0V-615.0H556.0V85.0Z"/></g>
<g fill="red" transform="translate(100 300) scale(0.1 -0.1)"><path d="M0.0 0.0V-29.0H883.0V0.0ZM200.0 -460.0V-490.0H681.0V-460.0ZM200.0 -220.0V-249.0H681.0V-220.0ZM185.0 111.0V-546.0H215.0V111.0ZM667.0 111.0V-546.0H697.0V111.0Z"/></g>
<g fill="black" opacity=".8" transform="translate(100 300) scale(0.1 -0.1)"><path d="M0.0 0.0V-31.0H895.0V0.0ZM204.0 -469.0V-498.0H686.0V-469.0ZM208.0 -222.0 217.0 -252.0 680.0 -253.0 672.0 -223.0ZM192.0 117.0V-553.0H222.0V117.0ZM667.0 117.0V-553.0H696.0V117.0Z"/></g>
<g fill="red" transform="translate(200 300) scale(0.1 -0.1)"><path d="M0.0 0.0V-135.0H901.0V0.0ZM218.0 -458.0V-589.0H687.0V-458.0ZM218.0 -227.0V-357.0H687.0V-227.0ZM133.0 55.0V-638.0H291.0V55.0ZM606.0 55.0V-638.0H766.0V55.0Z"/></g>
<g fill="black" opacity=".8" transform="translate(200 300) scale(0.1 -0.1)"><path d="M0.0 0.0V-136.0H906.0V0.0ZM213.0 -449.0V-581.0H681.0V-449.0ZM220.0 -222.0 225.0 -349.0 673.0 -350.0 669.0 -222.0ZM131.0 61.0V-630.0H290.0V61.0ZM604.0 60.0V-628.0H764.0V60.0Z"/></g>
<g fill="red" transform="translate(300 300) scale(0.1 -0.1)"><path d="M0.0 0.0V-29.0H455.0V0.0ZM78.0 -619.0V-649.0H388.0V-619.0ZM78.0 -307.0V-336.0H388.0V-307.0ZM73.0 194.0V-705.0H102.0V194.0ZM365.0 194.0V-705.0H394.0V194.0Z"/></g>
<g fill="black" opacity=".8" transform="translate(300 300) scale(0.1 -0.1)"><path d="M0.0 0.0V-28.0H465.0V0.0ZM76.0 -621.0V-652.0H392.0V-621.0ZM82.0 -313.0 83.0 -339.0 387.0 -337.0V-312.0ZM76.0 196.0V-709.0H106.0V196.0ZM364.0 195.0V-710.0H393.0V195.0Z"/></g>
<g fill="red" transform="translate(400 300) scale(0.1 -0.1)"><path d="M0.0 0.0V-138.0H464.0V0.0ZM79.0 -572.0V-710.0H354.0V-572.0ZM79.0 -286.0V-422.0H354.0V-286.0ZM46.0 183.0V-767.0H178.0V183.0ZM294.0 186.0V-755.0H429.0V186.0Z"/></g>
<g fill="black" opacity=".8" transform="translate(400 300) scale(0.1 -0.1)"><path d="M0.0 0.0V-138.0H467.0V0.0ZM82.0 -568.0V-707.0H349.0V-568.0ZM89.0 -288.0V-419.0H340.0L342.0 -287.0ZM39.0 187.0V-759.0H176.0V187.0ZM290.0 187.0V-750.0H428.0V187.0Z"/></g>
</svg>
