<?xml version="1.0" encoding="UTF-8"?>
<svg width="1700" height="300" xmlns="http://www.w3.org/2000/svg">
<rect width="100%" height="100%" fill="white"/>
<g fill="green" transform="translate(100 100) scale(0.1 -0.1)"><path d="M0.0 0.0V-29.0H883.0V0.0ZM84.0 204.0V175.0H676.0V204.0ZM805.0 317.0C611.0 60.0 312.0 -148.0 -12.0 -274.0C-4.0 -281.0 7.0 -293.0 12.0 -299.0C330.0 -166.0 626.0 36.0 830.0 302.0ZM282.0 -134.0V-446.0C282.0 -511.0 314.0 -523.0 420.0 -523.0C444.0 -523.0 724.0 -523.0 749.0 -523.0C851.0 -523.0 866.0 -490.0 875.0 -354.0C865.0 -352.0 854.0 -347.0 845.0 -341.0C838.0 -470.0 826.0 -493.0 751.0 -493.0C693.0 -493.0 456.0 -493.0 415.0 -493.0C328.0 -493.0 312.0 -484.0 312.0 -446.0V-134.0ZM366.0 356.0V189.0H395.0V356.0ZM366.0 192.0V-20.0H395.0V192.0ZM295.0 -238.0V-267.0H785.0V-238.0Z"/></g>
<g fill="green" transform="translate(200 100) scale(0.1 -0.1)"><path d="M0.0 0.0V-133.0H919.0V0.0ZM93.0 210.0V79.0H652.0V210.0ZM753.0 283.0C583.0 23.0 293.0 -175.0 -31.0 -283.0C-1.0 -314.0 50.0 -378.0 72.0 -411.0C391.0 -287.0 698.0 -72.0 893.0 214.0ZM248.0 -191.0V-429.0C248.0 -564.0 299.0 -604.0 485.0 -604.0C524.0 -604.0 677.0 -604.0 718.0 -604.0C868.0 -604.0 913.0 -566.0 933.0 -417.0C891.0 -409.0 827.0 -388.0 793.0 -365.0C784.0 -457.0 773.0 -472.0 707.0 -472.0C663.0 -472.0 531.0 -472.0 495.0 -472.0C415.0 -472.0 402.0 -467.0 402.0 -427.0V-191.0ZM304.0 322.0V142.0H450.0V322.0ZM304.0 148.0V-32.0H437.0V148.0ZM348.0 -220.0V-348.0H794.0V-220.0Z"/></g>
<g fill="green" transform="translate(300 100) scale(0.1 -0.1)"><path d="M0.0 0.0V-29.0H883.0V0.0ZM84.0 204.0V175.0H676.0V204.0ZM805.0 317.0C611.0 60.0 312.0 -148.0 -12.0 -274.0C-4.0 -281.0 7.0 -293.0 12.0 -299.0C330.0 -166.0 626.0 36.0 830.0 302.0ZM282.0 -134.0V-446.0C282.0 -511.0 314.0 -523.0 420.0 -523.0C444.0 -523.0 724.0 -523.0 749.0 -523.0C851.0 -523.0 866.0 -490.0 875.0 -354.0C865.0 -352.0 854.0 -347.0 845.0 -341.0C838.0 -470.0 826.0 -493.0 751.0 -493.0C693.0 -493.0 456.0 -493.0 415.0 -493.0C328.0 -493.0 312.0 -484.0 312.0 -446.0V-134.0ZM366.0 356.0V189.0H395.0V356.0ZM366.0 192.0V-20.0H395.0V192.0ZM295.0 -238.0V-267.0H785.0V-238.0Z"/></g>
<g fill="green" transform="translate(400 100) scale(0.1 -0.1)"><path d="M0.0 0.0V-133.0H919.0V0.0ZM93.0 210.0V79.0H652.0V210.0ZM753.0 283.0C583.0 23.0 293.0 -175.0 -31.0 -283.0C-1.0 -314.0 50.0 -378.0 72.0 -411.0C391.0 -287.0 698.0 -72.0 893.0 214.0ZM248.0 -191.0V-429.0C248.0 -564.0 299.0 -604.0 485.0 -604.0C524.0 -604.0 677.0 -604.0 718.0 -604.0C868.0 -604.0 913.0 -566.0 933.0 -417.0C891.0 -409.0 827.0 -388.0 793.0 -365.0C784.0 -457.0 773.0 -472.0 707.0 -472.0C663.0 -472.0 531.0 -472.0 495.0 -472.0C415.0 -472.0 402.0 -467.0 402.0 -427.0V-191.0ZM304.0 322.0V142.0H450.0V322.0ZM304.0 148.0V-32.0H437.0V148.0ZM348.0 -220.0V-348.0H794.0V-220.0Z"/></g>
<g fill="red" transform="translate(100 200) scale(0.1 -0.1)"><path d="M0.0 0.0V-29.0H883.0V0.0ZM84.0 204.0V175.0H676.0V204.0ZM805.0 317.0C611.0 60.0 312.0 -148.0 -12.0 -274.0C-4.0 -281.0 7.0 -293.0 12.0 -299.0C330.0 -166.0 626.0 36.0 830.0 302.0ZM282.0 -134.0V-446.0C282.0 -511.0 314.0 -523.0 420.0 -523.0C444.0 -523.0 724.0 -523.0 749.0 -523.0C851.0 -523.0 866.0 -490.0 875.0 -354.0C865.0 -352.0 854.0 -347.0 845.0 -341.0C838.0 -470.0 826.0 -493.0 751.0 -493.0C693.0 -493.0 456.0 -493.0 415.0 -493.0C328.0 -493.0 312.0 -484.0 312.0 -446.0V-134.0ZM366.0 356.0V189.0H395.0V356.0ZM366.0 192.0V-20.0H395.0V192.0ZM295.0 -238.0V-267.0H785.0V-238.0Z"/></g>
<g fill="black" opacity=".8" transform="translate(100 200) scale(0.1 -0.1)"><path d="M0.0 0.0V-29.0H883.0V0.0ZM84.0 204.0V175.0H676.0V204.0ZM805.0 317.0C611.0 60.0 312.0 -148.0 -12.0 -274.0C-4.0 -281.0 7.0 -293.0 12.0 -299.0C330.0 -166.0 626.0 36.0 830.0 302.0ZM282.0 -134.0V-446.0C282.0 -511.0 314.0 -523.0 420.0 -523.0C444.0 -523.0 724.0 -523.0 749.0 -523.0C851.0 -523.0 866.0 -490.0 875.0 -354.0C865.0 -352.0 854.0 -347.0 845.0 -341.0C838.0 -470.0 826.0 -493.0 751.0 -493.0C693.0 -493.0 456.0 -493.0 415.0 -493.0C328.0 -493.0 312.0 -484.0 312.0 -446.0V-134.0ZM366.0 356.0V189.0H395.0V356.0ZM366.0 192.0V-20.0H395.0V192.0ZM295.0 -238.0V-267.0H785.0V-238.0Z"/></g>
<g fill="red" transform="translate(200 200) scale(0.1 -0.1)"><path d="M0.0 0.0V-133.0H919.0V0.0ZM93.0 210.0V79.0H652.0V210.0ZM753.0 283.0C583.0 23.0 293.0 -175.0 -31.0 -283.0C-1.0 -314.0 50.0 -378.0 72.0 -411.0C391.0 -287.0 698.0 -72.0 893.0 214.0ZM248.0 -191.0V-429.0C248.0 -564.0 299.0 -604.0 485.0 -604.0C524.0 -604.0 677.0 -604.0 718.0 -604.0C868.0 -604.0 913.0 -566.0 933.0 -417.0C891.0 -409.0 827.0 -388.0 793.0 -365.0C784.0 -457.0 773.0 -472.0 707.0 -472.0C663.0 -472.0 531.0 -472.0 495.0 -472.0C415.0 -472.0 402.0 -467.0 402.0 -427.0V-191.0ZM304.0 322.0V142.0H450.0V322.0ZM304.0 148.0V-32.0H437.0V148.0ZM348.0 -220.0V-348.0H794.0V-220.0Z"/></g>
<g fill="black" opacity=".8" transform="translate(200 200) scale(0.1 -0.1)"><path d="M0.0 0.0V-133.0H919.0V0.0ZM93.0 210.0V79.0H652.0V210.0ZM753.0 283.0C583.0 23.0 293.0 -175.0 -31.0 -283.0C-1.0 -314.0 50.0 -378.0 72.0 -411.0C391.0 -287.0 698.0 -72.0 893.0 214.0ZM248.0 -191.0V-429.0C248.0 -564.0 299.0 -604.0 485.0 -604.0C524.0 -604.0 677.0 -604.0 718.0 -604.0C868.0 -604.0 913.0 -566.0 933.0 -417.0C891.0 -409.0 827.0 -388.0 793.0 -365.0C784.0 -457.0 773.0 -472.0 707.0 -472.0C663.0 -472.0 531.0 -472.0 495.0 -472.0C415.0 -472.0 402.0 -467.0 402.0 -427.0V-191.0ZM304.0 322.0V142.0H450.0V322.0ZM304.0 148.0V-32.0H437.0V148.0ZM348.0 -220.0V-348.0H794.0V-220.0Z"/></g>
</svg>
