<?xml version="1.0" encoding="UTF-8"?>
<svg width="1700" height="500" xmlns="http://www.w3.org/2000/svg">
<rect width="100%" height="100%" fill="white"/>
<g fill="green" transform="translate(100 100) scale(0.1 -0.1)"><path d="M0.0 0.0 -125.0 -46.0 363.0 -24.0 488.0 22.0ZM-341.0 -21.0 -370.0 -37.0C-278.0 -288.0 -100.0 -334.0 157.0 -334.0H397.0C399.0 -324.0 407.0 -306.0 414.0 -294.0C378.0 -296.0 182.0 -296.0 158.0 -296.0C-77.0 -296.0 -257.0 -255.0 -341.0 -21.0ZM-76.0 290.0V-293.0L-37.0 -302.0V290.0ZM-125.0 232.0 430.0 285.0 566.0 6.0 11.0 -47.0ZM-326.0 467.0V209.0H392.0V467.0ZM-341.0 135.0C-368.0 -80.0 -441.0 -235.0 -575.0 -332.0C-565.0 -339.0 -549.0 -353.0 -543.0 -361.0C-408.0 -254.0 -330.0 -99.0 -302.0 130.0Z"/></g>
<g fill="green" transform="translate(200 100) scale(0.1 -0.1)"><path d="M0.0 0.0 -86.0 -175.0 443.0 -169.0 529.0 6.0ZM-245.0 -51.0 -376.0 -91.0C-285.0 -389.0 -129.0 -437.0 118.0 -437.0H418.0C425.0 -389.0 449.0 -310.0 472.0 -271.0C389.0 -275.0 191.0 -274.0 128.0 -275.0C-48.0 -274.0 -184.0 -251.0 -245.0 -51.0ZM-113.0 256.0V-358.0L74.0 -406.0V256.0ZM29.0 74.0 377.0 88.0 483.0 -31.0 135.0 -45.0ZM-310.0 431.0V68.0H444.0V431.0ZM-363.0 68.0C-379.0 -122.0 -437.0 -267.0 -569.0 -349.0C-530.0 -377.0 -458.0 -442.0 -430.0 -472.0C-286.0 -364.0 -212.0 -188.0 -185.0 54.0Z"/></g>
<g fill="green" transform="translate(300 100) scale(0.1 -0.1)"><path d="M0.0 0.0 -134.0 -39.0 265.0 -15.0 399.0 24.0ZM-284.0 -10.0 -307.0 -22.0C-236.0 -236.0 -94.0 -275.0 105.0 -275.0H284.0C285.0 -268.0 292.0 -253.0 297.0 -243.0C270.0 -245.0 125.0 -245.0 106.0 -245.0C-76.0 -245.0 -219.0 -210.0 -284.0 -10.0ZM-76.0 260.0V-242.0L-45.0 -249.0V260.0ZM-63.0 111.0 424.0 170.0 505.0 -86.0 19.0 -145.0ZM-253.0 343.0V129.0H310.0V343.0ZM-285.0 124.0C-305.0 -59.0 -359.0 -191.0 -465.0 -273.0C-457.0 -279.0 -444.0 -290.0 -439.0 -297.0C-332.0 -205.0 -275.0 -75.0 -254.0 120.0Z"/></g>
<g fill="green" transform="translate(400 100) scale(0.1 -0.1)"><path d="M0.0 0.0 -92.0 -151.0 349.0 -144.0 441.0 6.0ZM-198.0 -39.0 -304.0 -70.0C-233.0 -324.0 -109.0 -363.0 82.0 -363.0H309.0C314.0 -324.0 334.0 -259.0 352.0 -227.0C287.0 -231.0 140.0 -230.0 90.0 -231.0C-44.0 -230.0 -151.0 -211.0 -198.0 -39.0ZM-98.0 232.0V-306.0L51.0 -344.0V232.0ZM80.0 -36.0 382.0 -11.0 434.0 -120.0 131.0 -145.0ZM-232.0 307.0V2.0H357.0V307.0ZM-288.0 63.0C-299.0 -101.0 -344.0 -225.0 -452.0 -294.0C-421.0 -317.0 -363.0 -370.0 -341.0 -393.0C-223.0 -302.0 -166.0 -153.0 -147.0 53.0Z"/></g>
<g fill="green" transform="translate(500 100) scale(0.1 -0.1)"><path d="M0.0 0.0 -229.0 -50.0 400.0 -10.0 629.0 40.0ZM-415.0 46.0 -445.0 27.0C-337.0 -91.0 -160.0 -111.0 123.0 -111.0H429.0C431.0 -102.0 439.0 -84.0 445.0 -73.0C403.0 -75.0 149.0 -75.0 122.0 -75.0C-137.0 -75.0 -319.0 -58.0 -415.0 46.0ZM-129.0 214.0V-85.0L-91.0 -87.0V214.0ZM-142.0 332.0 -21.0 351.0 500.0 325.0 378.0 306.0ZM-344.0 508.0V462.0H317.0V508.0ZM-402.0 144.0C-442.0 3.0 -556.0 -64.0 -689.0 -107.0C-679.0 -115.0 -664.0 -130.0 -658.0 -138.0C-527.0 -86.0 -404.0 -14.0 -365.0 138.0Z"/></g>
<g fill="green" transform="translate(600 100) scale(0.1 -0.1)"><path d="M0.0 0.0 -158.0 -136.0 473.0 -125.0 631.0 11.0ZM-310.0 34.0 -422.0 -3.0C-330.0 -183.0 -198.0 -204.0 65.0 -204.0H466.0C472.0 -165.0 492.0 -104.0 512.0 -73.0C417.0 -78.0 139.0 -77.0 70.0 -78.0C-125.0 -76.0 -252.0 -72.0 -310.0 34.0ZM-160.0 180.0V-162.0L23.0 -188.0V180.0ZM-50.0 287.0 36.0 230.0 536.0 227.0 450.0 283.0ZM-298.0 484.0V363.0H379.0V484.0ZM-432.0 77.0C-457.0 -29.0 -539.0 -79.0 -667.0 -111.0C-630.0 -138.0 -563.0 -204.0 -537.0 -233.0C-400.0 -181.0 -299.0 -101.0 -261.0 58.0Z"/></g>
<g fill="green" transform="translate(700 100) scale(0.1 -0.1)"><path d="M0.0 0.0 339.0 -17.0 467.0 -75.0 128.0 -59.0ZM-92.0 -184.0 -119.0 -197.0C-58.0 -382.0 50.0 -419.0 272.0 -419.0H571.0C573.0 -408.0 581.0 -392.0 587.0 -381.0C552.0 -382.0 293.0 -382.0 271.0 -382.0C75.0 -382.0 -35.0 -351.0 -92.0 -184.0ZM143.0 51.0V-398.0L180.0 -404.0V51.0ZM96.0 163.0 -48.0 190.0 649.0 96.0 793.0 69.0ZM-108.0 595.0V608.0H759.0V595.0ZM-91.0 -74.0C-117.0 -235.0 -182.0 -343.0 -281.0 -413.0C-272.0 -420.0 -258.0 -433.0 -253.0 -440.0C-152.0 -361.0 -83.0 -253.0 -55.0 -79.0Z"/></g>
<g fill="green" transform="translate(800 100) scale(0.1 -0.1)"><path d="M0.0 0.0 234.0 -66.0 406.0 -83.0 172.0 -17.0ZM-69.0 -137.0 -175.0 -164.0C-115.0 -408.0 -7.0 -442.0 193.0 -442.0H509.0C514.0 -399.0 534.0 -332.0 555.0 -298.0C475.0 -302.0 259.0 -301.0 200.0 -302.0C61.0 -302.0 -28.0 -290.0 -69.0 -137.0ZM46.0 107.0V-414.0L204.0 -445.0V107.0ZM111.0 155.0 -21.0 78.0 594.0 33.0 726.0 110.0ZM-118.0 630.0V517.0H707.0V630.0ZM-158.0 -65.0C-171.0 -214.0 -221.0 -317.0 -330.0 -377.0C-295.0 -402.0 -232.0 -459.0 -208.0 -485.0C-89.0 -403.0 -25.0 -273.0 -4.0 -77.0Z"/></g>
<g fill="green" transform="translate(900 100) scale(0.1 -0.1)"><path d="M0.0 0.0 -122.0 -42.0 264.0 -20.0 386.0 22.0ZM-281.0 -46.0 -305.0 -59.0C-231.0 -320.0 -75.0 -364.0 129.0 -364.0H294.0C296.0 -356.0 303.0 -340.0 309.0 -329.0C280.0 -330.0 150.0 -330.0 131.0 -330.0C-55.0 -330.0 -212.0 -289.0 -281.0 -46.0ZM-70.0 296.0V-323.0L-35.0 -333.0V296.0ZM-348.0 409.0 276.0 484.0 125.0 141.0 -498.0 67.0ZM-374.0 781.0V459.0H49.0V781.0ZM-285.0 106.0C-306.0 -105.0 -361.0 -262.0 -476.0 -362.0C-467.0 -368.0 -452.0 -380.0 -447.0 -387.0C-331.0 -278.0 -272.0 -122.0 -250.0 102.0Z"/></g>
<g fill="green" transform="translate(1000 100) scale(0.1 -0.1)"><path d="M0.0 0.0 -84.0 -170.0 347.0 -164.0 431.0 6.0ZM-204.0 -62.0 -315.0 -94.0C-244.0 -408.0 -106.0 -461.0 97.0 -461.0H312.0C318.0 -418.0 339.0 -347.0 358.0 -312.0C298.0 -314.0 153.0 -314.0 107.0 -315.0C-39.0 -314.0 -151.0 -285.0 -204.0 -62.0ZM-100.0 282.0V-389.0L66.0 -443.0V282.0ZM-184.0 232.0 189.0 326.0 -5.0 156.0 -378.0 62.0ZM-364.0 755.0V347.0H100.0V755.0ZM-305.0 70.0C-316.0 -133.0 -359.0 -293.0 -477.0 -384.0C-441.0 -408.0 -375.0 -465.0 -350.0 -492.0C-222.0 -376.0 -166.0 -189.0 -147.0 60.0Z"/></g>
<g fill="green" transform="translate(1100 100) scale(0.1 -0.1)"><path d="M0.0 0.0 20.0 -39.0 490.0 -42.0 470.0 -3.0ZM-300.0 -55.0 -332.0 -73.0C-232.0 -263.0 -59.0 -301.0 229.0 -301.0H546.0C548.0 -290.0 556.0 -272.0 564.0 -259.0C522.0 -261.0 255.0 -261.0 228.0 -261.0C-34.0 -261.0 -210.0 -229.0 -300.0 -55.0ZM-13.0 182.0V-264.0L27.0 -268.0V182.0ZM-305.0 122.0 407.0 156.0 437.0 -35.0 -275.0 -69.0ZM-470.0 335.0V137.0H474.0V335.0ZM-293.0 83.0C-324.0 -101.0 -415.0 -224.0 -554.0 -298.0C-544.0 -306.0 -528.0 -320.0 -521.0 -329.0C-383.0 -244.0 -285.0 -120.0 -253.0 77.0Z"/></g>
<g fill="green" transform="translate(1200 100) scale(0.1 -0.1)"><path d="M0.0 0.0 14.0 -131.0 508.0 -132.0 494.0 -1.0ZM-228.0 -55.0 -359.0 -95.0C-262.0 -340.0 -108.0 -374.0 162.0 -374.0H552.0C560.0 -327.0 584.0 -251.0 608.0 -213.0C507.0 -219.0 246.0 -218.0 169.0 -219.0C-26.0 -218.0 -166.0 -205.0 -228.0 -55.0ZM-75.0 165.0V-312.0L115.0 -345.0V165.0ZM-180.0 4.0 314.0 18.0 320.0 -44.0 -174.0 -58.0ZM-497.0 327.0V25.0H507.0V327.0ZM-355.0 25.0C-374.0 -124.0 -442.0 -226.0 -576.0 -284.0C-536.0 -313.0 -466.0 -381.0 -437.0 -412.0C-290.0 -330.0 -204.0 -195.0 -171.0 9.0Z"/></g>
<g fill="green" transform="translate(1300 100) scale(0.1 -0.1)"><path d="M0.0 0.0 -120.0 -47.0 350.0 -26.0 470.0 21.0ZM-340.0 -30.0 -369.0 -46.0C-280.0 -333.0 -100.0 -386.0 153.0 -386.0H379.0C381.0 -376.0 389.0 -358.0 396.0 -345.0C362.0 -348.0 178.0 -348.0 154.0 -348.0C-77.0 -348.0 -258.0 -300.0 -340.0 -30.0ZM-73.0 326.0V-337.0L-34.0 -347.0V326.0ZM-133.0 440.0 -9.0 402.0 341.0 153.0 218.0 191.0ZM-386.0 248.0V-93.0H305.0V248.0ZM-344.0 145.0C-369.0 -99.0 -432.0 -274.0 -567.0 -385.0C-557.0 -391.0 -540.0 -405.0 -533.0 -413.0C-398.0 -291.0 -331.0 -118.0 -304.0 140.0Z"/></g>
<g fill="green" transform="translate(1400 100) scale(0.1 -0.1)"><path d="M0.0 0.0 -83.0 -192.0 433.0 -186.0 516.0 6.0ZM-235.0 -78.0 -371.0 -118.0C-282.0 -434.0 -127.0 -485.0 115.0 -485.0H403.0C410.0 -436.0 435.0 -353.0 458.0 -313.0C376.0 -317.0 189.0 -316.0 126.0 -317.0C-42.0 -316.0 -176.0 -291.0 -235.0 -78.0ZM-111.0 260.0V-416.0L78.0 -467.0V260.0ZM-68.0 316.0 -39.0 222.0 342.0 104.0 314.0 198.0ZM-399.0 207.0V-246.0H352.0V207.0ZM-348.0 65.0C-363.0 -149.0 -418.0 -312.0 -553.0 -405.0C-513.0 -432.0 -438.0 -498.0 -410.0 -528.0C-263.0 -407.0 -193.0 -213.0 -169.0 53.0Z"/></g>
<g fill="green" transform="translate(1500 100) scale(0.1 -0.1)"><path d="M0.0 0.0 -45.0 -41.0 411.0 -33.0 456.0 8.0ZM-306.0 -36.0 -336.0 -53.0C-239.0 -284.0 -58.0 -326.0 199.0 -326.0H433.0C435.0 -316.0 443.0 -298.0 450.0 -286.0C413.0 -288.0 224.0 -288.0 200.0 -288.0C-36.0 -288.0 -220.0 -251.0 -306.0 -36.0ZM-42.0 223.0V-285.0L-3.0 -293.0V223.0ZM40.0 349.0 751.0 435.0 685.0 179.0 -27.0 93.0ZM-282.0 442.0V112.0H274.0V442.0ZM-311.0 94.0C-338.0 -103.0 -416.0 -240.0 -548.0 -326.0C-538.0 -333.0 -522.0 -346.0 -516.0 -353.0C-384.0 -259.0 -299.0 -121.0 -272.0 90.0Z"/></g>
<g fill="green" transform="translate(1600 100) scale(0.1 -0.1)"><path d="M0.0 0.0 -31.0 -146.0 440.0 -144.0 471.0 2.0ZM-223.0 -52.0 -334.0 -86.0C-248.0 -362.0 -100.0 -404.0 143.0 -404.0H458.0C464.0 -362.0 486.0 -293.0 506.0 -258.0C429.0 -262.0 208.0 -261.0 150.0 -262.0C-31.0 -261.0 -162.0 -240.0 -223.0 -52.0ZM-89.0 209.0V-315.0L96.0 -362.0V209.0ZM209.0 229.0 678.0 277.0 574.0 166.0 105.0 117.0ZM-303.0 410.0V13.0H342.0V410.0ZM-360.0 45.0C-374.0 -122.0 -428.0 -245.0 -553.0 -315.0C-514.0 -343.0 -443.0 -408.0 -415.0 -439.0C-277.0 -344.0 -205.0 -189.0 -180.0 32.0Z"/></g>
<g fill="green" transform="translate(100 200) scale(0.1 -0.1)"><path d="M0.0 0.0 -138.0 -46.0 382.0 -21.0 520.0 24.0ZM-336.0 -23.0 -365.0 -40.0C-263.0 -286.0 -66.0 -330.0 189.0 -330.0H388.0C390.0 -320.0 398.0 -302.0 405.0 -290.0C369.0 -292.0 215.0 -292.0 191.0 -292.0C-45.0 -292.0 -244.0 -253.0 -336.0 -23.0ZM-86.0 285.0V-283.0L-48.0 -292.0V285.0ZM-122.0 286.0H428.0L443.0 16.0H-108.0ZM-146.0 447.0V180.0H488.0V447.0ZM-340.0 133.0C-365.0 -86.0 -442.0 -237.0 -584.0 -332.0C-573.0 -339.0 -556.0 -352.0 -550.0 -360.0C-411.0 -255.0 -326.0 -104.0 -300.0 129.0Z"/></g>
<g fill="green" transform="translate(200 200) scale(0.1 -0.1)"><path d="M0.0 0.0 -95.0 -176.0 450.0 -169.0 545.0 7.0ZM-265.0 -36.0 -391.0 -74.0C-301.0 -384.0 -141.0 -434.0 109.0 -434.0H408.0C416.0 -387.0 439.0 -310.0 462.0 -271.0C380.0 -275.0 181.0 -275.0 118.0 -276.0C-62.0 -275.0 -202.0 -249.0 -265.0 -36.0ZM-115.0 253.0V-354.0L76.0 -407.0V253.0ZM25.0 128.0 370.0 104.0 389.0 -11.0 44.0 13.0ZM-125.0 423.0V50.0H566.0V423.0ZM-391.0 76.0C-403.0 -118.0 -457.0 -261.0 -589.0 -344.0C-549.0 -371.0 -475.0 -438.0 -447.0 -469.0C-301.0 -360.0 -231.0 -183.0 -208.0 66.0Z"/></g>
<g fill="green" transform="translate(300 200) scale(0.1 -0.1)"><path d="M0.0 0.0 -153.0 -45.0 308.0 -18.0 461.0 27.0ZM-335.0 -6.0 -362.0 -21.0C-279.0 -281.0 -112.0 -328.0 125.0 -328.0H339.0C341.0 -319.0 349.0 -302.0 355.0 -291.0C323.0 -293.0 148.0 -293.0 126.0 -293.0C-90.0 -293.0 -259.0 -250.0 -335.0 -6.0ZM-86.0 297.0V-297.0L-50.0 -307.0V297.0ZM-144.0 295.0 473.0 338.0 584.0 55.0 -33.0 12.0ZM-430.0 486.0V203.0H539.0V486.0ZM-337.0 142.0C-362.0 -65.0 -425.0 -221.0 -548.0 -318.0C-539.0 -325.0 -524.0 -338.0 -518.0 -345.0C-393.0 -239.0 -327.0 -83.0 -301.0 137.0Z"/></g>
<g fill="green" transform="translate(400 200) scale(0.1 -0.1)"><path d="M0.0 0.0 -105.0 -177.0 407.0 -170.0 512.0 7.0ZM-235.0 -49.0 -358.0 -87.0C-272.0 -381.0 -122.0 -430.0 110.0 -430.0H373.0C380.0 -385.0 402.0 -310.0 423.0 -274.0C350.0 -277.0 175.0 -277.0 119.0 -277.0C-46.0 -276.0 -176.0 -251.0 -235.0 -49.0ZM-113.0 254.0V-345.0L62.0 -394.0V254.0ZM24.0 132.0 415.0 138.0 509.0 12.0 117.0 6.0ZM-410.0 440.0V63.0H590.0V440.0ZM-342.0 75.0C-357.0 -112.0 -409.0 -260.0 -534.0 -344.0C-497.0 -370.0 -429.0 -430.0 -403.0 -458.0C-268.0 -350.0 -200.0 -173.0 -175.0 62.0Z"/></g>
<g fill="green" transform="translate(500 200) scale(0.1 -0.1)"><path d="M0.0 0.0 -130.0 -45.0 338.0 -23.0 468.0 23.0ZM-343.0 -14.0 -372.0 -30.0C-289.0 -293.0 -127.0 -343.0 134.0 -343.0H410.0C412.0 -333.0 420.0 -315.0 427.0 -304.0C391.0 -305.0 158.0 -305.0 134.0 -305.0C-103.0 -305.0 -267.0 -260.0 -343.0 -14.0ZM-73.0 288.0V-310.0L-35.0 -321.0V288.0ZM-249.0 260.0 442.0 302.0 691.0 -7.0 0.0 -49.0ZM-287.0 465.0V191.0H393.0V465.0ZM-338.0 152.0C-365.0 -57.0 -430.0 -229.0 -562.0 -333.0C-553.0 -340.0 -538.0 -353.0 -532.0 -362.0C-397.0 -250.0 -328.0 -75.0 -299.0 146.0Z"/></g>
<g fill="green" transform="translate(600 200) scale(0.1 -0.1)"><path d="M0.0 0.0 -90.0 -178.0 415.0 -171.0 504.0 6.0ZM-244.0 -63.0 -377.0 -105.0C-280.0 -387.0 -121.0 -434.0 129.0 -434.0H413.0C420.0 -387.0 444.0 -310.0 467.0 -271.0C387.0 -275.0 199.0 -275.0 139.0 -275.0C-39.0 -274.0 -181.0 -251.0 -244.0 -63.0ZM-121.0 231.0V-337.0L60.0 -382.0V231.0ZM-107.0 88.0 345.0 111.0 566.0 -14.0 114.0 -36.0ZM-270.0 425.0V68.0H426.0V425.0ZM-352.0 66.0C-373.0 -111.0 -435.0 -261.0 -565.0 -344.0C-528.0 -370.0 -459.0 -432.0 -433.0 -462.0C-289.0 -356.0 -211.0 -177.0 -178.0 47.0Z"/></g>
<g fill="green" transform="translate(700 200) scale(0.1 -0.1)"><path d="M0.0 0.0 -137.0 -42.0 358.0 -18.0 495.0 24.0ZM-335.0 3.0 -363.0 -11.0C-275.0 -276.0 -98.0 -329.0 162.0 -329.0H398.0C400.0 -320.0 407.0 -305.0 413.0 -295.0C380.0 -296.0 185.0 -296.0 163.0 -296.0C-79.0 -296.0 -255.0 -246.0 -335.0 3.0ZM-79.0 299.0V-292.0L-44.0 -300.0V299.0ZM-108.0 238.0 410.0 293.0 539.0 -6.0 22.0 -61.0ZM-324.0 468.0V207.0H385.0V468.0ZM-340.0 158.0C-357.0 -30.0 -416.0 -221.0 -563.0 -326.0C-555.0 -332.0 -543.0 -345.0 -537.0 -352.0C-387.0 -241.0 -324.0 -48.0 -304.0 154.0Z"/></g>
<g fill="green" transform="translate(800 200) scale(0.1 -0.1)"><path d="M0.0 0.0 -94.0 -172.0 475.0 -165.0 570.0 7.0ZM-245.0 -35.0 -370.0 -78.0C-261.0 -394.0 -69.0 -450.0 190.0 -450.0H428.0C436.0 -404.0 460.0 -328.0 482.0 -290.0C409.0 -294.0 256.0 -293.0 199.0 -294.0C5.0 -293.0 -169.0 -261.0 -245.0 -35.0ZM-105.0 236.0V-377.0L64.0 -419.0V236.0ZM35.0 74.0 390.0 88.0 486.0 -28.0 131.0 -41.0ZM-309.0 435.0V72.0H449.0V435.0ZM-364.0 89.0C-377.0 -81.0 -426.0 -254.0 -553.0 -343.0C-519.0 -370.0 -463.0 -429.0 -437.0 -460.0C-289.0 -348.0 -224.0 -142.0 -195.0 74.0Z"/></g>
<g fill="green" transform="translate(900 200) scale(0.1 -0.1)"><path d="M0.0 0.0 -114.0 -45.0 359.0 -25.0 473.0 20.0ZM-337.0 -9.0 -367.0 -25.0C-269.0 -277.0 -79.0 -322.0 180.0 -322.0H405.0C408.0 -313.0 416.0 -294.0 423.0 -282.0C387.0 -283.0 205.0 -283.0 180.0 -283.0C-59.0 -283.0 -250.0 -244.0 -337.0 -9.0ZM-71.0 296.0V-267.0L-34.0 -280.0V296.0ZM-122.0 249.0 435.0 302.0 573.0 6.0 16.0 -46.0ZM-330.0 483.0V214.0H403.0V483.0ZM-338.0 138.0C-368.0 -72.0 -440.0 -232.0 -570.0 -335.0C-560.0 -340.0 -544.0 -353.0 -539.0 -361.0C-408.0 -250.0 -331.0 -91.0 -300.0 134.0Z"/></g>
<g fill="green" transform="translate(1000 200) scale(0.1 -0.1)"><path d="M0.0 0.0 -78.0 -184.0 420.0 -178.0 498.0 5.0ZM-245.0 -66.0 -404.0 -118.0C-302.0 -394.0 -133.0 -454.0 123.0 -454.0H402.0C410.0 -401.0 436.0 -312.0 461.0 -270.0C376.0 -273.0 204.0 -273.0 139.0 -273.0C-36.0 -272.0 -181.0 -243.0 -245.0 -66.0ZM-116.0 252.0V-309.0L73.0 -376.0V252.0ZM32.0 70.0 363.0 82.0 471.0 -47.0 140.0 -58.0ZM-312.0 434.0V47.0H434.0V434.0ZM-377.0 74.0C-396.0 -116.0 -452.0 -280.0 -568.0 -372.0C-529.0 -398.0 -455.0 -457.0 -424.0 -486.0C-301.0 -369.0 -231.0 -179.0 -202.0 55.0Z"/></g>
<g fill="red" transform="translate(100 300) scale(0.1 -0.1)"><path d="M0.0 0.0V-30.0H275.0V0.0ZM-201.0 -49.0 -224.0 -61.0C-153.0 -286.0 -11.0 -326.0 174.0 -326.0H320.0C322.0 -318.0 328.0 -304.0 334.0 -295.0C308.0 -295.0 193.0 -295.0 175.0 -295.0C5.0 -295.0 -139.0 -261.0 -201.0 -49.0ZM-13.0 197.0V-283.0L16.0 -296.0V197.0ZM-212.0 474.0H224.0V217.0H-212.0ZM-242.0 503.0V188.0H253.0V503.0ZM-208.0 66.0C-228.0 -106.0 -273.0 -243.0 -368.0 -332.0C-360.0 -336.0 -347.0 -345.0 -343.0 -350.0C-248.0 -256.0 -199.0 -119.0 -178.0 63.0Z"/></g>
<g fill="black" opacity=".8" transform="translate(100 300) scale(0.1 -0.1)"><path d="M0.0 0.0V-30.0L275.0 -29.0V1.0ZM-200.0 -51.0 -223.0 -63.0C-154.0 -286.0 -11.0 -325.0 174.0 -325.0H320.0C322.0 -319.0 329.0 -304.0 334.0 -294.0C309.0 -294.0 192.0 -294.0 174.0 -294.0C4.0 -294.0 -139.0 -260.0 -200.0 -51.0ZM-12.0 203.0V-282.0L15.0 -294.0V203.0ZM-212.0 476.0 226.0 475.0 224.0 221.0 -213.0 223.0ZM-241.0 502.0V193.0H253.0V502.0ZM-207.0 65.0C-227.0 -105.0 -273.0 -244.0 -368.0 -332.0C-361.0 -336.0 -347.0 -344.0 -343.0 -350.0C-248.0 -256.0 -199.0 -119.0 -177.0 63.0Z"/></g>
<g fill="red" transform="translate(200 300) scale(0.1 -0.1)"><path d="M0.0 0.0V-135.0H284.0V0.0ZM-154.0 -86.0 -267.0 -122.0C-196.0 -354.0 -69.0 -407.0 118.0 -407.0H301.0C307.0 -368.0 326.0 -303.0 344.0 -272.0C291.0 -273.0 171.0 -274.0 130.0 -273.0C0.0 -273.0 -106.0 -244.0 -154.0 -86.0ZM-61.0 174.0V-278.0L85.0 -340.0V174.0ZM-122.0 354.0H125.0V227.0H-122.0ZM-259.0 480.0V101.0H271.0V480.0ZM-260.0 38.0C-272.0 -122.0 -306.0 -264.0 -390.0 -346.0C-359.0 -365.0 -299.0 -408.0 -276.0 -431.0C-186.0 -330.0 -141.0 -167.0 -122.0 24.0Z"/></g>
<g fill="black" opacity=".8" transform="translate(200 300) scale(0.1 -0.1)"><path d="M0.0 0.0V-136.0L284.0 -134.0V-1.0ZM-154.0 -86.0 -269.0 -121.0C-197.0 -355.0 -69.0 -406.0 118.0 -406.0H302.0C308.0 -368.0 327.0 -302.0 344.0 -270.0C290.0 -272.0 171.0 -274.0 129.0 -273.0C0.0 -272.0 -106.0 -244.0 -154.0 -86.0ZM-60.0 174.0V-280.0L83.0 -341.0V174.0ZM-122.0 351.0H125.0V224.0L-123.0 225.0ZM-259.0 477.0V97.0H270.0V477.0ZM-258.0 37.0C-270.0 -121.0 -304.0 -265.0 -389.0 -346.0C-358.0 -363.0 -299.0 -408.0 -276.0 -430.0C-185.0 -331.0 -140.0 -167.0 -122.0 25.0Z"/></g>
<g fill="red" transform="translate(300 300) scale(0.1 -0.1)"><path d="M0.0 0.0V-29.0H269.0V0.0ZM-190.0 -69.0 -212.0 -80.0C-150.0 -308.0 -24.0 -349.0 151.0 -349.0H301.0C302.0 -341.0 308.0 -328.0 314.0 -319.0C289.0 -320.0 169.0 -320.0 153.0 -320.0C-6.0 -320.0 -134.0 -283.0 -190.0 -69.0ZM-12.0 200.0V-319.0L18.0 -328.0V200.0ZM-189.0 458.0H203.0V213.0H-189.0ZM-219.0 487.0V183.0H232.0V487.0ZM-198.0 56.0C-214.0 -121.0 -256.0 -257.0 -354.0 -342.0C-346.0 -347.0 -334.0 -357.0 -329.0 -362.0C-231.0 -270.0 -185.0 -134.0 -168.0 53.0Z"/></g>
<g fill="black" opacity=".8" transform="translate(300 300) scale(0.1 -0.1)"><path d="M0.0 0.0 1.0 -29.0H269.0V1.0ZM-191.0 -68.0 -213.0 -80.0C-152.0 -308.0 -24.0 -349.0 152.0 -349.0H301.0C302.0 -342.0 309.0 -328.0 314.0 -319.0C289.0 -320.0 169.0 -320.0 153.0 -320.0C-7.0 -320.0 -136.0 -282.0 -191.0 -68.0ZM-12.0 199.0V-318.0L17.0 -327.0V199.0ZM-188.0 458.0H203.0L202.0 214.0L-189.0 215.0ZM-218.0 486.0V184.0H231.0V486.0ZM-199.0 57.0C-215.0 -120.0 -257.0 -257.0 -354.0 -343.0C-347.0 -348.0 -334.0 -357.0 -329.0 -363.0C-232.0 -270.0 -186.0 -134.0 -168.0 54.0Z"/></g>
<g fill="red" transform="translate(400 300) scale(0.1 -0.1)"><path d="M0.0 0.0V-126.0H298.0V0.0ZM-146.0 -75.0 -231.0 -99.0C-172.0 -361.0 -57.0 -403.0 115.0 -403.0H306.0C311.0 -369.0 328.0 -313.0 344.0 -285.0C294.0 -287.0 160.0 -287.0 121.0 -287.0C-5.0 -287.0 -101.0 -263.0 -146.0 -75.0ZM-51.0 184.0V-342.0L87.0 -384.0V184.0ZM-103.0 355.0H126.0V234.0H-103.0ZM-237.0 476.0V113.0H267.0V476.0ZM-231.0 30.0C-238.0 -134.0 -271.0 -264.0 -370.0 -338.0C-340.0 -358.0 -285.0 -406.0 -265.0 -430.0C-155.0 -334.0 -110.0 -180.0 -96.0 23.0Z"/></g>
<g fill="black" opacity=".8" transform="translate(400 300) scale(0.1 -0.1)"><path d="M0.0 0.0V-126.0H298.0L297.0 -0.0ZM-144.0 -76.0 -230.0 -99.0C-171.0 -360.0 -57.0 -402.0 115.0 -402.0H305.0C310.0 -368.0 327.0 -312.0 342.0 -284.0C293.0 -287.0 159.0 -288.0 121.0 -288.0C-4.0 -287.0 -100.0 -263.0 -144.0 -76.0ZM-51.0 182.0V-342.0L88.0 -385.0V182.0ZM-103.0 355.0 127.0 354.0 126.0 232.0H-104.0ZM-238.0 475.0V112.0H267.0V475.0ZM-232.0 30.0C-239.0 -133.0 -273.0 -263.0 -371.0 -338.0C-340.0 -357.0 -285.0 -406.0 -265.0 -429.0C-155.0 -335.0 -110.0 -180.0 -96.0 23.0Z"/></g>
<g fill="red" transform="translate(500 300) scale(0.1 -0.1)"><path d="M0.0 0.0V-30.0H275.0V0.0ZM-201.0 -49.0 -224.0 -61.0C-153.0 -286.0 -11.0 -326.0 174.0 -326.0H320.0C322.0 -318.0 328.0 -304.0 334.0 -295.0C308.0 -295.0 193.0 -295.0 175.0 -295.0C5.0 -295.0 -139.0 -261.0 -201.0 -49.0ZM-13.0 210.0V-281.0L16.0 -295.0V210.0ZM-212.0 474.0H221.0V226.0H-212.0ZM-242.0 503.0V197.0H250.0V503.0ZM-208.0 66.0C-228.0 -106.0 -273.0 -243.0 -368.0 -332.0C-360.0 -336.0 -347.0 -345.0 -343.0 -350.0C-248.0 -256.0 -199.0 -119.0 -178.0 63.0Z"/></g>
<g fill="black" opacity=".8" transform="translate(500 300) scale(0.1 -0.1)"><path d="M0.0 0.0 -1.0 -30.0 275.0 -29.0 276.0 1.0ZM-201.0 -50.0 -224.0 -62.0C-154.0 -286.0 -11.0 -324.0 174.0 -324.0H320.0C322.0 -318.0 329.0 -303.0 334.0 -293.0C308.0 -294.0 193.0 -294.0 174.0 -294.0C4.0 -294.0 -140.0 -259.0 -201.0 -50.0ZM-13.0 204.0V-280.0L14.0 -293.0V204.0ZM-210.0 475.0H223.0L221.0 221.0L-212.0 223.0ZM-242.0 503.0V193.0H252.0V503.0ZM-208.0 66.0C-228.0 -105.0 -273.0 -243.0 -369.0 -332.0C-361.0 -336.0 -348.0 -344.0 -344.0 -350.0C-249.0 -256.0 -199.0 -118.0 -177.0 64.0Z"/></g>
<g fill="red" transform="translate(600 300) scale(0.1 -0.1)"><path d="M0.0 0.0V-135.0H284.0V0.0ZM-154.0 -86.0 -267.0 -122.0C-196.0 -354.0 -69.0 -407.0 118.0 -407.0H301.0C307.0 -368.0 326.0 -303.0 344.0 -272.0C291.0 -273.0 171.0 -274.0 130.0 -273.0C0.0 -273.0 -106.0 -244.0 -154.0 -86.0ZM-60.0 174.0V-278.0L85.0 -339.0V174.0ZM-122.0 349.0H125.0V222.0H-122.0ZM-259.0 475.0V96.0H271.0V475.0ZM-260.0 38.0C-272.0 -122.0 -306.0 -264.0 -390.0 -346.0C-359.0 -364.0 -301.0 -407.0 -278.0 -430.0C-188.0 -328.0 -143.0 -166.0 -125.0 25.0Z"/></g>
<g fill="black" opacity=".8" transform="translate(600 300) scale(0.1 -0.1)"><path d="M0.0 0.0V-136.0L284.0 -135.0V-1.0ZM-155.0 -86.0 -270.0 -122.0C-198.0 -355.0 -70.0 -407.0 118.0 -407.0H301.0C307.0 -368.0 326.0 -302.0 343.0 -270.0C290.0 -272.0 171.0 -274.0 129.0 -273.0C1.0 -272.0 -106.0 -244.0 -155.0 -86.0ZM-61.0 175.0V-279.0L83.0 -340.0V175.0ZM-121.0 350.0H123.0V223.0L-122.0 224.0ZM-259.0 477.0V97.0H269.0V477.0ZM-259.0 38.0C-271.0 -121.0 -305.0 -265.0 -389.0 -346.0C-358.0 -364.0 -300.0 -408.0 -276.0 -431.0C-186.0 -331.0 -141.0 -167.0 -123.0 25.0Z"/></g>
<g fill="red" transform="translate(700 300) scale(0.1 -0.1)"><path d="M0 0.0V-30.0H367.0V0.0ZM-242.0 -29.0 -268.0 -42.0C-187.0 -277.0 -31.0 -325.0 211.0 -325.0H440.0C442.0 -317.0 448.0 -303.0 454.0 -295.0C423.0 -295.0 231.0 -295.0 211.0 -295.0C-14.0 -295.0 -171.0 -251.0 -242.0 -29.0ZM-13.0 201.0V-290.0L17.0 -301.0V201.0ZM-291.0 474.0H313.0V217.0H-291.0ZM-320.0 503.0V188.0H342.0V503.0ZM-248.0 98.0C-264.0 -53.0 -316.0 -230.0 -447.0 -325.0C-440.0 -330.0 -430.0 -340.0 -425.0 -346.0C-291.0 -248.0 -235.0 -67.0 -216.0 94.0Z"/></g>
<g fill="black" opacity=".8" transform="translate(700 300) scale(0.1 -0.1)"><path d="M0.0 0.0V-30.0H369.0L368.0 0.0ZM-242.0 -28.0 -269.0 -42.0C-188.0 -278.0 -28.0 -326.0 213.0 -326.0H437.0C440.0 -318.0 447.0 -304.0 452.0 -295.0C421.0 -295.0 233.0 -295.0 212.0 -295.0C-13.0 -295.0 -171.0 -250.0 -242.0 -28.0ZM-13.0 201.0V-289.0L16.0 -299.0V201.0ZM-293.0 474.0 311.0 476.0 313.0 214.0 -291.0 213.0ZM-320.0 501.0V187.0H340.0V501.0ZM-248.0 98.0C-265.0 -53.0 -316.0 -230.0 -447.0 -326.0C-440.0 -330.0 -429.0 -339.0 -424.0 -346.0C-292.0 -248.0 -235.0 -67.0 -215.0 95.0Z"/></g>
<g fill="red" transform="translate(800 300) scale(0.1 -0.1)"><path d="M0 0.0V-134.0H406.0V0.0ZM-195.0 -64.0 -313.0 -108.0C-208.0 -364.0 -24.0 -419.0 221.0 -419.0H430.0C437.0 -378.0 459.0 -311.0 479.0 -278.0C416.0 -280.0 280.0 -281.0 230.0 -280.0C45.0 -280.0 -122.0 -246.0 -195.0 -64.0ZM-65.0 139.0V-305.0L85.0 -352.0V139.0ZM-204.0 346.0H217.0V243.0H-204.0ZM-349.0 485.0V105.0H372.0V485.0ZM-314.0 54.0C-328.0 -80.0 -370.0 -240.0 -471.0 -323.0C-441.0 -345.0 -392.0 -392.0 -368.0 -421.0C-248.0 -320.0 -192.0 -132.0 -162.0 36.0Z"/></g>
<g fill="black" opacity=".8" transform="translate(800 300) scale(0.1 -0.1)"><path d="M0.0 0.0 1.0 -135.0 405.0 -134.0V-0.0ZM-195.0 -64.0 -312.0 -107.0C-207.0 -363.0 -25.0 -418.0 220.0 -418.0H430.0C438.0 -378.0 459.0 -311.0 479.0 -277.0C417.0 -280.0 278.0 -282.0 229.0 -281.0C45.0 -280.0 -121.0 -247.0 -195.0 -64.0ZM-64.0 138.0V-301.0L86.0 -349.0V138.0ZM-202.0 345.0 218.0 350.0 217.0 245.0 -203.0 241.0ZM-349.0 485.0V106.0H375.0V485.0ZM-316.0 54.0C-331.0 -79.0 -372.0 -239.0 -473.0 -322.0C-442.0 -343.0 -392.0 -391.0 -368.0 -420.0C-249.0 -321.0 -192.0 -133.0 -163.0 36.0Z"/></g>
<g fill="red" transform="translate(900 300) scale(0.1 -0.1)"><path d="M0.0 0.0V-29.0H389.0V0.0ZM-239.0 -25.0 -264.0 -40.0C-178.0 -161.0 -34.0 -185.0 196.0 -185.0H439.0C441.0 -177.0 447.0 -163.0 453.0 -154.0C419.0 -155.0 217.0 -155.0 195.0 -155.0C-17.0 -155.0 -164.0 -136.0 -239.0 -25.0ZM-19.0 118.0V-153.0L11.0 -158.0V118.0ZM-304.0 253.0H309.0V126.0H-304.0ZM-333.0 283.0V96.0H338.0V283.0ZM-234.0 63.0C-262.0 -59.0 -342.0 -139.0 -452.0 -188.0C-444.0 -193.0 -432.0 -203.0 -427.0 -209.0C-320.0 -154.0 -233.0 -71.0 -204.0 59.0Z"/></g>
<g fill="black" opacity=".8" transform="translate(900 300) scale(0.1 -0.1)"><path d="M0.0 0.0 3.0 -30.0H391.0L388.0 0.0ZM-243.0 -21.0 -270.0 -37.0C-182.0 -162.0 -36.0 -186.0 196.0 -186.0H441.0C443.0 -179.0 450.0 -164.0 455.0 -154.0C422.0 -154.0 217.0 -154.0 194.0 -154.0C-19.0 -154.0 -168.0 -135.0 -243.0 -21.0ZM-17.0 117.0V-153.0L11.0 -157.0V117.0ZM-299.0 252.0 309.0 251.0 305.0 132.0 -303.0 135.0ZM-329.0 283.0V102.0H334.0V283.0ZM-237.0 68.0C-265.0 -56.0 -344.0 -140.0 -451.0 -191.0C-443.0 -196.0 -431.0 -205.0 -425.0 -213.0C-321.0 -155.0 -235.0 -70.0 -206.0 64.0Z"/></g>
<g fill="red" transform="translate(1000 300) scale(0.1 -0.1)"><path d="M0.0 0.0V-98.0H374.0V0.0ZM-203.0 -31.0 -313.0 -68.0C-228.0 -224.0 -100.0 -251.0 124.0 -251.0H438.0C445.0 -214.0 464.0 -155.0 483.0 -126.0C400.0 -130.0 194.0 -130.0 130.0 -129.0C-32.0 -129.0 -151.0 -119.0 -203.0 -31.0ZM-74.0 98.0V-150.0L73.0 -182.0V98.0ZM-213.0 172.0H205.0V138.0H-213.0ZM-353.0 276.0V34.0H355.0V276.0ZM-308.0 26.0C-325.0 -70.0 -380.0 -140.0 -474.0 -180.0C-444.0 -201.0 -390.0 -249.0 -368.0 -274.0C-265.0 -216.0 -196.0 -123.0 -168.0 10.0Z"/></g>
<g fill="black" opacity=".8" transform="translate(1000 300) scale(0.1 -0.1)"><path d="M0.0 0.0 2.0 -99.0 374.0 -97.0 372.0 -1.0ZM-197.0 -35.0 -306.0 -71.0C-223.0 -220.0 -99.0 -248.0 123.0 -248.0H432.0C439.0 -212.0 457.0 -155.0 475.0 -126.0C397.0 -131.0 189.0 -132.0 129.0 -131.0C-30.0 -130.0 -146.0 -119.0 -197.0 -35.0ZM-73.0 92.0V-152.0L76.0 -187.0V92.0ZM-215.0 171.0 208.0 169.0V132.0L-216.0 135.0ZM-357.0 272.0V32.0H359.0V272.0ZM-311.0 24.0C-329.0 -69.0 -386.0 -138.0 -478.0 -178.0C-447.0 -198.0 -391.0 -248.0 -368.0 -272.0C-268.0 -216.0 -197.0 -124.0 -169.0 7.0Z"/></g>
<g fill="red" transform="translate(1100 300) scale(0.1 -0.1)"><path d="M0.0 0.0V-30.0H389.0V0.0ZM-254.0 -7.0 -279.0 -22.0C-192.0 -143.0 -48.0 -167.0 183.0 -167.0H428.0C430.0 -159.0 436.0 -145.0 442.0 -136.0C408.0 -137.0 204.0 -137.0 182.0 -137.0C-31.0 -137.0 -179.0 -118.0 -254.0 -7.0ZM-19.0 108.0V-139.0L11.0 -145.0V108.0ZM16.0 511.0V482.0H427.0V511.0ZM-322.0 251.0V88.0H329.0V251.0ZM-253.0 59.0C-282.0 -52.0 -363.0 -124.0 -468.0 -168.0C-460.0 -173.0 -449.0 -184.0 -444.0 -189.0C-340.0 -140.0 -252.0 -65.0 -223.0 55.0Z"/></g>
<g fill="black" opacity=".8" transform="translate(1100 300) scale(0.1 -0.1)"><path d="M0.0 0.0V-30.0H389.0V0.0ZM-253.0 -7.0 -280.0 -23.0C-193.0 -144.0 -47.0 -166.0 184.0 -166.0H428.0C430.0 -160.0 437.0 -145.0 441.0 -135.0C408.0 -137.0 204.0 -137.0 182.0 -137.0C-31.0 -137.0 -179.0 -117.0 -253.0 -7.0ZM-19.0 107.0V-139.0L10.0 -143.0V107.0ZM17.0 512.0 16.0 483.0 427.0 482.0V512.0ZM-321.0 251.0V89.0H329.0V251.0ZM-253.0 59.0C-282.0 -51.0 -363.0 -125.0 -469.0 -169.0C-461.0 -174.0 -449.0 -184.0 -443.0 -189.0C-341.0 -141.0 -253.0 -65.0 -223.0 56.0Z"/></g>
<g fill="red" transform="translate(1200 300) scale(0.1 -0.1)"><path d="M0.0 0.0V-88.0H379.0V0.0ZM-191.0 -27.0 -284.0 -59.0C-205.0 -199.0 -87.0 -224.0 130.0 -224.0H437.0C442.0 -193.0 459.0 -143.0 475.0 -118.0C404.0 -121.0 188.0 -121.0 135.0 -121.0C-28.0 -120.0 -140.0 -110.0 -191.0 -27.0ZM-71.0 73.0V-147.0L75.0 -178.0V73.0ZM34.0 523.0V418.0H462.0V523.0ZM-350.0 235.0V27.0H358.0V235.0ZM-309.0 22.0C-327.0 -59.0 -382.0 -117.0 -472.0 -151.0C-442.0 -172.0 -389.0 -220.0 -367.0 -245.0C-268.0 -195.0 -198.0 -113.0 -169.0 6.0Z"/></g>
<g fill="black" opacity=".8" transform="translate(1200 300) scale(0.1 -0.1)"><path d="M0.0 0.0V-89.0L379.0 -88.0V-1.0ZM-191.0 -27.0 -285.0 -59.0C-205.0 -199.0 -88.0 -223.0 129.0 -223.0H437.0C442.0 -192.0 459.0 -142.0 474.0 -117.0C403.0 -121.0 187.0 -122.0 134.0 -121.0C-27.0 -120.0 -140.0 -110.0 -191.0 -27.0ZM-70.0 73.0V-147.0L75.0 -178.0V73.0ZM35.0 523.0V418.0H462.0V522.0ZM-350.0 234.0V26.0H359.0V234.0ZM-309.0 22.0C-327.0 -58.0 -382.0 -117.0 -472.0 -151.0C-442.0 -171.0 -389.0 -220.0 -366.0 -244.0C-268.0 -196.0 -197.0 -113.0 -169.0 5.0Z"/></g>
<g fill="red" transform="translate(1300 300) scale(0.1 -0.1)"><path d="M0.0 0.0V-29.0H336.0V0.0ZM-241.0 -22.0 -265.0 -36.0C-196.0 -140.0 -88.0 -161.0 136.0 -161.0H437.0C439.0 -153.0 445.0 -139.0 451.0 -131.0C417.0 -131.0 155.0 -131.0 133.0 -131.0C-68.0 -131.0 -180.0 -115.0 -241.0 -22.0ZM-11.0 99.0V-148.0L19.0 -154.0V99.0ZM-319.0 439.0V410.0H329.0V439.0ZM-339.0 539.0V510.0H345.0V539.0ZM-227.0 53.0C-260.0 -43.0 -339.0 -112.0 -432.0 -153.0C-425.0 -159.0 -414.0 -170.0 -410.0 -176.0C-316.0 -130.0 -232.0 -56.0 -198.0 48.0Z"/></g>
<g fill="black" opacity=".8" transform="translate(1300 300) scale(0.1 -0.1)"><path d="M0.0 0.0V-29.0H337.0V1.0ZM-240.0 -22.0 -266.0 -37.0C-196.0 -142.0 -85.0 -161.0 138.0 -161.0H434.0C436.0 -155.0 443.0 -140.0 448.0 -131.0C414.0 -131.0 157.0 -131.0 135.0 -131.0C-66.0 -131.0 -180.0 -114.0 -240.0 -22.0ZM-11.0 98.0V-147.0L17.0 -152.0V98.0ZM-322.0 439.0V413.0L329.0 406.0V434.0ZM-340.0 537.0V508.0H343.0V537.0ZM-227.0 53.0C-260.0 -44.0 -339.0 -112.0 -432.0 -153.0C-425.0 -159.0 -414.0 -169.0 -409.0 -176.0C-316.0 -130.0 -232.0 -57.0 -198.0 47.0Z"/></g>
<g fill="red" transform="translate(1400 300) scale(0.1 -0.1)"><path d="M0.0 0.0V-84.0H334.0V0.0ZM-181.0 -39.0 -281.0 -73.0C-206.0 -188.0 -101.0 -210.0 106.0 -210.0H407.0C412.0 -177.0 429.0 -127.0 445.0 -102.0C373.0 -104.0 165.0 -105.0 113.0 -104.0C-37.0 -103.0 -136.0 -98.0 -181.0 -39.0ZM-78.0 69.0V-147.0L60.0 -171.0V69.0ZM-323.0 432.0V354.0H312.0V432.0ZM-332.0 534.0V452.0H321.0V534.0ZM-267.0 14.0C-292.0 -58.0 -358.0 -111.0 -447.0 -142.0C-419.0 -161.0 -369.0 -205.0 -349.0 -228.0C-254.0 -183.0 -175.0 -111.0 -138.0 -8.0Z"/></g>
<g fill="black" opacity=".8" transform="translate(1400 300) scale(0.1 -0.1)"><path d="M0.0 0.0V-85.0L334.0 -84.0L333.0 -1.0ZM-181.0 -38.0 -281.0 -71.0C-206.0 -189.0 -102.0 -209.0 106.0 -209.0H409.0C414.0 -177.0 430.0 -126.0 446.0 -101.0C374.0 -105.0 164.0 -106.0 112.0 -105.0C-37.0 -104.0 -136.0 -98.0 -181.0 -38.0ZM-76.0 70.0V-141.0L60.0 -167.0V70.0ZM-321.0 431.0 -323.0 359.0 312.0 357.0 314.0 430.0ZM-332.0 534.0V454.0H324.0V534.0ZM-268.0 14.0C-294.0 -58.0 -359.0 -110.0 -448.0 -142.0C-419.0 -159.0 -368.0 -205.0 -348.0 -227.0C-254.0 -184.0 -175.0 -112.0 -140.0 -8.0Z"/></g>
<g fill="red" transform="translate(1500 300) scale(0.1 -0.1)"><path d="M0.0 0.0V-30.0H389.0V0.0ZM-239.0 -30.0 -264.0 -45.0C-176.0 -143.0 -33.0 -161.0 195.0 -161.0H439.0C441.0 -153.0 447.0 -139.0 453.0 -131.0C418.0 -131.0 216.0 -131.0 194.0 -131.0C-16.0 -131.0 -163.0 -117.0 -239.0 -30.0ZM-19.0 100.0V-128.0L11.0 -132.0V100.0ZM-368.0 551.0H-55.0V507.0H-368.0ZM-397.0 580.0V402.0H-26.0V580.0ZM-234.0 41.0C-264.0 -64.0 -352.0 -129.0 -461.0 -169.0C-453.0 -175.0 -441.0 -185.0 -437.0 -191.0C-330.0 -146.0 -234.0 -77.0 -204.0 37.0Z"/></g>
<g fill="black" opacity=".8" transform="translate(1500 300) scale(0.1 -0.1)"><path d="M0.0 0.0V-30.0L391.0 -29.0V1.0ZM-239.0 -29.0 -265.0 -45.0C-175.0 -146.0 -28.0 -162.0 199.0 -162.0H434.0C436.0 -156.0 443.0 -141.0 448.0 -131.0C413.0 -131.0 219.0 -131.0 197.0 -131.0C-12.0 -131.0 -162.0 -117.0 -239.0 -29.0ZM-20.0 99.0V-128.0L10.0 -130.0V99.0ZM-375.0 550.0 -60.0 555.0 -54.0 500.0 -368.0 496.0ZM-398.0 577.0V398.0H-30.0V577.0ZM-234.0 40.0C-264.0 -66.0 -353.0 -130.0 -460.0 -169.0C-452.0 -174.0 -440.0 -183.0 -435.0 -190.0C-331.0 -146.0 -234.0 -79.0 -204.0 36.0Z"/></g>
<g fill="red" transform="translate(1600 300) scale(0.1 -0.1)"><path d="M0.0 0.0V-82.0H370.0V0.0ZM-198.0 -20.0 -290.0 -52.0C-213.0 -195.0 -95.0 -221.0 122.0 -221.0H430.0C435.0 -189.0 452.0 -140.0 468.0 -115.0C397.0 -118.0 180.0 -118.0 127.0 -118.0C-37.0 -117.0 -147.0 -107.0 -198.0 -20.0ZM-77.0 88.0V-160.0L70.0 -192.0V88.0ZM-329.0 525.0H-109.0V498.0H-329.0ZM-435.0 581.0V361.0H2.0V581.0ZM-315.0 25.0C-333.0 -57.0 -391.0 -114.0 -482.0 -148.0C-452.0 -169.0 -399.0 -217.0 -377.0 -242.0C-277.0 -192.0 -205.0 -111.0 -175.0 9.0Z"/></g>
<g fill="black" opacity=".8" transform="translate(1600 300) scale(0.1 -0.1)"><path d="M0.0 0.0V-83.0L369.0 -82.0L368.0 -0.0ZM-198.0 -19.0 -289.0 -49.0C-213.0 -195.0 -96.0 -220.0 121.0 -220.0H433.0C439.0 -189.0 456.0 -140.0 470.0 -115.0C400.0 -119.0 179.0 -120.0 126.0 -120.0C-38.0 -118.0 -147.0 -107.0 -198.0 -19.0ZM-75.0 90.0V-149.0L72.0 -183.0V90.0ZM-324.0 524.0 -108.0 534.0 -109.0 505.0 -325.0 494.0ZM-434.0 582.0V364.0H6.0V582.0ZM-319.0 26.0C-337.0 -57.0 -393.0 -113.0 -484.0 -146.0C-453.0 -166.0 -399.0 -216.0 -376.0 -241.0C-277.0 -193.0 -206.0 -113.0 -177.0 10.0Z"/></g>
<g fill="red" transform="translate(100 400) scale(0.1 -0.1)"><path d="M0.0 0.0V-29.0H389.0V0.0ZM-239.0 -24.0 -264.0 -39.0C-176.0 -137.0 -33.0 -155.0 195.0 -155.0H439.0C441.0 -147.0 447.0 -133.0 453.0 -125.0C418.0 -125.0 216.0 -125.0 194.0 -125.0C-16.0 -125.0 -163.0 -111.0 -239.0 -24.0ZM-19.0 96.0V-131.0L11.0 -136.0V96.0ZM-304.0 460.0V430.0H80.0V460.0ZM-356.0 636.0V607.0H421.0V636.0ZM-234.0 37.0C-264.0 -58.0 -354.0 -117.0 -459.0 -152.0C-451.0 -158.0 -439.0 -169.0 -435.0 -174.0C-332.0 -134.0 -235.0 -71.0 -204.0 33.0Z"/></g>
<g fill="black" opacity=".8" transform="translate(100 400) scale(0.1 -0.1)"><path d="M0.0 0.0V-29.0L389.0 -28.0V0.0ZM-239.0 -26.0 -265.0 -41.0C-179.0 -137.0 -37.0 -153.0 193.0 -153.0H442.0C445.0 -147.0 452.0 -132.0 456.0 -123.0C422.0 -123.0 213.0 -123.0 191.0 -123.0C-20.0 -123.0 -164.0 -109.0 -239.0 -26.0ZM-19.0 97.0V-131.0L10.0 -133.0V97.0ZM-298.0 462.0 -299.0 428.0 79.0 435.0V470.0ZM-353.0 637.0V612.0H423.0V637.0ZM-234.0 39.0C-264.0 -56.0 -353.0 -117.0 -461.0 -154.0C-453.0 -159.0 -441.0 -170.0 -436.0 -176.0C-332.0 -135.0 -235.0 -69.0 -204.0 35.0Z"/></g>
<g fill="red" transform="translate(200 400) scale(0.1 -0.1)"><path d="M0.0 0.0V-82.0H392.0V0.0ZM-203.0 -10.0 -299.0 -43.0C-220.0 -196.0 -98.0 -224.0 125.0 -224.0H439.0C445.0 -191.0 462.0 -139.0 479.0 -114.0C404.0 -116.0 186.0 -117.0 130.0 -116.0C-37.0 -116.0 -151.0 -104.0 -203.0 -10.0ZM-67.0 90.0V-158.0L80.0 -190.0V90.0ZM-270.0 453.0V384.0H100.0V453.0ZM-342.0 650.0V555.0H442.0V650.0ZM-312.0 29.0C-330.0 -53.0 -388.0 -110.0 -479.0 -144.0C-449.0 -165.0 -396.0 -213.0 -374.0 -238.0C-274.0 -188.0 -202.0 -107.0 -172.0 13.0Z"/></g>
<g fill="black" opacity=".8" transform="translate(200 400) scale(0.1 -0.1)"><path d="M0.0 0.0 1.0 -82.0H393.0L392.0 -0.0ZM-202.0 -12.0 -300.0 -45.0C-221.0 -196.0 -98.0 -223.0 125.0 -223.0H436.0C443.0 -190.0 459.0 -137.0 475.0 -111.0C401.0 -115.0 186.0 -116.0 130.0 -116.0C-35.0 -114.0 -149.0 -103.0 -202.0 -12.0ZM-68.0 88.0V-166.0L77.0 -198.0V88.0ZM-272.0 453.0 -270.0 377.0 101.0 378.0 98.0 454.0ZM-344.0 649.0V551.0H440.0V649.0ZM-309.0 28.0C-327.0 -52.0 -386.0 -110.0 -478.0 -145.0C-448.0 -164.0 -396.0 -214.0 -374.0 -238.0C-274.0 -189.0 -200.0 -107.0 -170.0 12.0Z"/></g>
<g fill="red" transform="translate(300 400) scale(0.1 -0.1)"><path d="M0.0 0.0V-30.0H389.0V0.0ZM-241.0 -12.0 -266.0 -27.0C-181.0 -148.0 -39.0 -172.0 189.0 -172.0H429.0C431.0 -164.0 437.0 -150.0 443.0 -141.0C410.0 -142.0 209.0 -142.0 188.0 -142.0C-21.0 -142.0 -167.0 -123.0 -241.0 -12.0ZM-19.0 106.0V-141.0L11.0 -147.0V106.0ZM-288.0 211.0H286.0V113.0H-288.0ZM-318.0 241.0V84.0H316.0V241.0ZM-234.0 71.0C-260.0 -45.0 -335.0 -124.0 -438.0 -171.0C-430.0 -177.0 -418.0 -187.0 -414.0 -193.0C-312.0 -140.0 -230.0 -58.0 -204.0 67.0Z"/></g>
<g fill="black" opacity=".8" transform="translate(300 400) scale(0.1 -0.1)"><path d="M0.0 0.0 -2.0 -29.0 386.0 -28.0 389.0 1.0ZM-237.0 -17.0 -263.0 -32.0C-179.0 -146.0 -40.0 -169.0 186.0 -169.0H431.0C432.0 -162.0 439.0 -148.0 444.0 -138.0C411.0 -139.0 206.0 -139.0 184.0 -139.0C-24.0 -139.0 -165.0 -120.0 -237.0 -17.0ZM-19.0 107.0V-141.0L8.0 -143.0V107.0ZM-285.0 215.0 292.0 213.0 288.0 112.0 -288.0 115.0ZM-318.0 242.0V83.0H322.0V242.0ZM-231.0 69.0C-257.0 -44.0 -333.0 -124.0 -440.0 -170.0C-433.0 -175.0 -421.0 -184.0 -416.0 -192.0C-312.0 -140.0 -228.0 -57.0 -202.0 65.0Z"/></g>
<g fill="red" transform="translate(400 400) scale(0.1 -0.1)"><path d="M0.0 0.0V-88.0H379.0V0.0ZM-188.0 -25.0 -281.0 -57.0C-203.0 -197.0 -87.0 -222.0 127.0 -222.0H428.0C433.0 -191.0 450.0 -141.0 466.0 -116.0C396.0 -119.0 185.0 -119.0 132.0 -119.0C-28.0 -118.0 -138.0 -108.0 -188.0 -25.0ZM-68.0 75.0V-145.0L78.0 -176.0V75.0ZM-208.0 145.0H210.0V117.0H-208.0ZM-348.0 235.0V27.0H360.0V235.0ZM-306.0 24.0C-324.0 -57.0 -379.0 -115.0 -469.0 -149.0C-439.0 -170.0 -386.0 -218.0 -364.0 -243.0C-265.0 -193.0 -195.0 -111.0 -166.0 8.0Z"/></g>
<g fill="black" opacity=".8" transform="translate(400 400) scale(0.1 -0.1)"><path d="M0.0 0.0 -2.0 -89.0 379.0 -88.0 380.0 -1.0ZM-193.0 -23.0 -290.0 -55.0C-209.0 -200.0 -88.0 -223.0 127.0 -223.0H430.0C437.0 -191.0 454.0 -138.0 470.0 -112.0C395.0 -117.0 189.0 -118.0 131.0 -118.0C-27.0 -116.0 -142.0 -107.0 -193.0 -23.0ZM-69.0 81.0V-152.0L72.0 -178.0V81.0ZM-207.0 145.0 207.0 141.0 208.0 116.0 -208.0 121.0ZM-346.0 237.0V24.0H354.0V237.0ZM-301.0 24.0C-317.0 -57.0 -372.0 -118.0 -464.0 -151.0C-435.0 -171.0 -385.0 -220.0 -363.0 -244.0C-261.0 -195.0 -192.0 -111.0 -164.0 9.0Z"/></g>
<g fill="red" transform="translate(500 400) scale(0.1 -0.1)"><path d="M0.0 0.0V-29.0H389.0V0.0ZM-239.0 -27.0 -264.0 -42.0C-178.0 -163.0 -34.0 -187.0 196.0 -187.0H439.0C441.0 -179.0 447.0 -165.0 453.0 -156.0C419.0 -157.0 217.0 -157.0 195.0 -157.0C-17.0 -157.0 -164.0 -138.0 -239.0 -27.0ZM-19.0 115.0V-156.0L11.0 -161.0V115.0ZM-376.0 564.0V436.0H-49.0V564.0ZM-319.0 253.0V88.0H335.0V253.0ZM-234.0 62.0C-262.0 -60.0 -342.0 -140.0 -452.0 -189.0C-444.0 -194.0 -432.0 -204.0 -427.0 -210.0C-320.0 -155.0 -233.0 -72.0 -204.0 58.0Z"/></g>
<g fill="black" opacity=".8" transform="translate(500 400) scale(0.1 -0.1)"><path d="M0.0 0.0V-30.0L390.0 -29.0V0.0ZM-239.0 -26.0 -265.0 -43.0C-178.0 -165.0 -31.0 -187.0 198.0 -187.0H436.0C438.0 -181.0 445.0 -166.0 450.0 -156.0C417.0 -157.0 219.0 -157.0 196.0 -157.0C-15.0 -157.0 -164.0 -137.0 -239.0 -26.0ZM-19.0 114.0V-155.0L9.0 -159.0V114.0ZM-379.0 564.0 -378.0 439.0 -48.0 432.0 -49.0 558.0ZM-319.0 251.0V86.0H333.0V251.0ZM-235.0 62.0C-263.0 -60.0 -342.0 -141.0 -452.0 -188.0C-444.0 -193.0 -431.0 -202.0 -425.0 -210.0C-321.0 -156.0 -233.0 -73.0 -203.0 58.0Z"/></g>
<g fill="red" transform="translate(600 400) scale(0.1 -0.1)"><path d="M0.0 0.0V-95.0H374.0V0.0ZM-203.0 -34.0 -303.0 -68.0C-223.0 -214.0 -102.0 -240.0 118.0 -240.0H426.0C432.0 -207.0 450.0 -154.0 467.0 -128.0C391.0 -131.0 181.0 -132.0 123.0 -131.0C-38.0 -130.0 -152.0 -120.0 -203.0 -34.0ZM-74.0 65.0V-179.0L73.0 -210.0V65.0ZM-413.0 558.0V408.0H-14.0V558.0ZM-354.0 256.0V32.0H354.0V256.0ZM-307.0 23.0C-325.0 -68.0 -382.0 -132.0 -476.0 -171.0C-446.0 -190.0 -392.0 -238.0 -371.0 -263.0C-267.0 -208.0 -196.0 -120.0 -167.0 8.0Z"/></g>
<g fill="black" opacity=".8" transform="translate(600 400) scale(0.1 -0.1)"><path d="M0.0 0.0V-96.0L373.0 -95.0V-0.0ZM-202.0 -34.0 -303.0 -66.0C-223.0 -214.0 -103.0 -239.0 117.0 -239.0H428.0C435.0 -206.0 451.0 -153.0 468.0 -127.0C392.0 -131.0 180.0 -133.0 122.0 -133.0C-38.0 -131.0 -152.0 -120.0 -202.0 -34.0ZM-72.0 66.0V-173.0L74.0 -205.0V66.0ZM-410.0 557.0 -412.0 413.0 -14.0 411.0 -12.0 555.0ZM-354.0 256.0V34.0H357.0V256.0ZM-309.0 23.0C-327.0 -68.0 -384.0 -131.0 -477.0 -170.0C-446.0 -188.0 -392.0 -238.0 -370.0 -262.0C-267.0 -209.0 -196.0 -121.0 -168.0 8.0Z"/></g>
<g fill="red" transform="translate(700 400) scale(0.1 -0.1)"><path d="M0.0 0.0H510.0V-89.0H0.0ZM24.0 -210.0 -1.0 -222.0C56.0 -333.0 140.0 -358.0 342.0 -358.0H632.0C634.0 -349.0 640.0 -336.0 646.0 -327.0C613.0 -327.0 359.0 -327.0 339.0 -327.0C161.0 -327.0 73.0 -308.0 24.0 -210.0ZM222.0 -100.0V-339.0L252.0 -345.0V-100.0ZM-121.0 337.0V308.0H277.0V337.0ZM-168.0 486.0V457.0H627.0V486.0ZM24.0 -151.0C1.0 -245.0 -61.0 -314.0 -142.0 -357.0C-134.0 -363.0 -123.0 -372.0 -119.0 -377.0C-38.0 -329.0 29.0 -257.0 54.0 -155.0Z"/></g>
<g fill="black" opacity=".8" transform="translate(700 400) scale(0.1 -0.1)"><path d="M0.0 0.0H510.0L511.0 -88.0H0.0ZM24.0 -211.0 -2.0 -223.0C55.0 -334.0 141.0 -358.0 342.0 -358.0H631.0C633.0 -350.0 640.0 -336.0 645.0 -326.0C613.0 -326.0 359.0 -326.0 339.0 -326.0C160.0 -326.0 73.0 -307.0 24.0 -211.0ZM222.0 -101.0V-339.0L251.0 -342.0V-101.0ZM-121.0 338.0V310.0L277.0 307.0V337.0ZM-167.0 485.0V457.0H626.0V485.0ZM24.0 -150.0C1.0 -244.0 -61.0 -315.0 -142.0 -358.0C-135.0 -363.0 -124.0 -371.0 -119.0 -377.0C-39.0 -330.0 29.0 -257.0 54.0 -154.0Z"/></g>
<g fill="red" transform="translate(800 400) scale(0.1 -0.1)"><path d="M0.0 0.0H352.0V-25.0H0.0ZM-8.0 -147.0 -93.0 -171.0C-37.0 -317.0 56.0 -341.0 239.0 -341.0H541.0C546.0 -309.0 562.0 -259.0 578.0 -234.0C509.0 -237.0 296.0 -237.0 243.0 -237.0C110.0 -237.0 29.0 -229.0 -8.0 -147.0ZM101.0 -40.0V-288.0L229.0 -314.0V-40.0ZM-171.0 392.0V315.0H185.0V392.0ZM-247.0 547.0V443.0H555.0V547.0ZM-103.0 -110.0C-115.0 -190.0 -156.0 -251.0 -231.0 -287.0C-203.0 -306.0 -154.0 -349.0 -134.0 -372.0C-49.0 -320.0 5.0 -237.0 26.0 -123.0Z"/></g>
<g fill="black" opacity=".8" transform="translate(800 400) scale(0.1 -0.1)"><path d="M0.0 0.0 352.0 -1.0 351.0 -25.0 -1.0 -26.0ZM-8.0 -147.0 -94.0 -170.0C-38.0 -317.0 56.0 -340.0 238.0 -340.0H541.0C546.0 -308.0 562.0 -258.0 578.0 -232.0C508.0 -237.0 295.0 -238.0 242.0 -238.0C111.0 -237.0 30.0 -229.0 -8.0 -147.0ZM102.0 -40.0V-287.0L229.0 -313.0V-40.0ZM-170.0 392.0 -171.0 315.0 185.0 314.0 186.0 392.0ZM-247.0 547.0V443.0H555.0V547.0ZM-103.0 -110.0C-115.0 -189.0 -156.0 -251.0 -231.0 -287.0C-202.0 -304.0 -154.0 -349.0 -133.0 -371.0C-48.0 -322.0 6.0 -238.0 26.0 -123.0Z"/></g>
<g fill="red" transform="translate(900 400) scale(0.1 -0.1)"><path d="M0.0 0.0V-29.0H389.0V0.0ZM-239.0 -26.0 -264.0 -41.0C-176.0 -139.0 -33.0 -157.0 195.0 -157.0H439.0C441.0 -149.0 447.0 -135.0 453.0 -127.0C418.0 -127.0 216.0 -127.0 194.0 -127.0C-16.0 -127.0 -163.0 -113.0 -239.0 -26.0ZM-19.0 96.0V-131.0L11.0 -136.0V96.0ZM-18.0 391.0V362.0H424.0V391.0ZM-34.0 511.0V481.0H443.0V511.0ZM-234.0 45.0C-264.0 -60.0 -352.0 -125.0 -461.0 -165.0C-453.0 -171.0 -441.0 -181.0 -437.0 -187.0C-330.0 -142.0 -234.0 -73.0 -204.0 41.0Z"/></g>
<g fill="black" opacity=".8" transform="translate(900 400) scale(0.1 -0.1)"><path d="M0.0 0.0V-29.0L390.0 -28.0L391.0 0.0ZM-238.0 -25.0 -264.0 -40.0C-175.0 -141.0 -27.0 -159.0 199.0 -159.0H433.0C436.0 -152.0 443.0 -136.0 447.0 -127.0C413.0 -128.0 220.0 -128.0 198.0 -128.0C-11.0 -128.0 -162.0 -113.0 -238.0 -25.0ZM-20.0 95.0V-131.0L9.0 -135.0V95.0ZM-25.0 390.0 -24.0 367.0 425.0 355.0 424.0 378.0ZM-36.0 508.0V477.0H439.0V508.0ZM-235.0 43.0C-265.0 -62.0 -353.0 -125.0 -460.0 -164.0C-452.0 -170.0 -439.0 -180.0 -435.0 -186.0C-331.0 -142.0 -234.0 -75.0 -204.0 40.0Z"/></g>
<g fill="red" transform="translate(1000 400) scale(0.1 -0.1)"><path d="M0.0 0.0V-83.0H374.0V0.0ZM-203.0 -16.0 -300.0 -49.0C-223.0 -195.0 -105.0 -222.0 110.0 -222.0H412.0C417.0 -189.0 434.0 -137.0 451.0 -111.0C378.0 -114.0 170.0 -114.0 116.0 -114.0C-43.0 -113.0 -153.0 -103.0 -203.0 -16.0ZM-74.0 87.0V-161.0L73.0 -193.0V87.0ZM5.0 381.0V284.0H442.0V381.0ZM-17.0 512.0V414.0H461.0V512.0ZM-312.0 24.0C-330.0 -58.0 -388.0 -115.0 -479.0 -149.0C-449.0 -170.0 -396.0 -218.0 -374.0 -243.0C-274.0 -193.0 -202.0 -112.0 -172.0 8.0Z"/></g>
<g fill="black" opacity=".8" transform="translate(1000 400) scale(0.1 -0.1)"><path d="M0.0 0.0V-84.0L372.0 -83.0V-1.0ZM-203.0 -14.0 -299.0 -46.0C-223.0 -195.0 -106.0 -222.0 109.0 -222.0H415.0C421.0 -189.0 437.0 -138.0 454.0 -111.0C381.0 -115.0 168.0 -116.0 115.0 -116.0C-44.0 -115.0 -153.0 -104.0 -203.0 -14.0ZM-72.0 89.0V-148.0L76.0 -183.0V89.0ZM10.0 380.0 5.0 294.0 442.0 291.0 446.0 377.0ZM-16.0 513.0V419.0H466.0V513.0ZM-316.0 25.0C-334.0 -58.0 -391.0 -114.0 -481.0 -148.0C-450.0 -167.0 -395.0 -218.0 -373.0 -242.0C-275.0 -194.0 -203.0 -113.0 -175.0 9.0Z"/></g>
<g fill="red" transform="translate(1100 400) scale(0.1 -0.1)"><path d="M0.0 0.0V-29.0H389.0V0.0ZM-239.0 -16.0 -264.0 -32.0C-175.0 -127.0 -33.0 -144.0 195.0 -144.0H439.0C441.0 -136.0 447.0 -122.0 453.0 -114.0C418.0 -114.0 216.0 -114.0 194.0 -114.0C-16.0 -114.0 -163.0 -101.0 -239.0 -16.0ZM-19.0 66.0V-125.0L11.0 -131.0V66.0ZM-287.0 564.0H282.0V522.0H-287.0ZM-317.0 593.0V419.0H312.0V593.0ZM-234.0 38.0C-265.0 -52.0 -355.0 -107.0 -458.0 -140.0C-450.0 -146.0 -438.0 -156.0 -434.0 -161.0C-333.0 -124.0 -235.0 -64.0 -204.0 34.0Z"/></g>
<g fill="black" opacity=".8" transform="translate(1100 400) scale(0.1 -0.1)"><path d="M0.0 0.0V-29.0L390.0 -28.0V1.0ZM-238.0 -17.0 -265.0 -33.0C-175.0 -129.0 -31.0 -144.0 197.0 -144.0H437.0C439.0 -138.0 446.0 -123.0 451.0 -114.0C416.0 -114.0 217.0 -114.0 195.0 -114.0C-14.0 -114.0 -163.0 -100.0 -238.0 -17.0ZM-19.0 65.0V-125.0L9.0 -129.0V65.0ZM-288.0 564.0 280.0 567.0 283.0 519.0 -287.0 518.0ZM-317.0 592.0V417.0H310.0V592.0ZM-234.0 38.0C-265.0 -52.0 -355.0 -107.0 -458.0 -140.0C-451.0 -146.0 -438.0 -155.0 -433.0 -161.0C-334.0 -125.0 -235.0 -64.0 -204.0 34.0Z"/></g>
<g fill="red" transform="translate(1200 400) scale(0.1 -0.1)"><path d="M0.0 0.0V-73.0H356.0V0.0ZM-204.0 -10.0 -285.0 -39.0C-209.0 -165.0 -96.0 -188.0 122.0 -188.0H436.0C441.0 -160.0 456.0 -118.0 470.0 -96.0C404.0 -98.0 174.0 -99.0 125.0 -98.0C-44.0 -98.0 -152.0 -88.0 -204.0 -10.0ZM-76.0 57.0V-99.0L70.0 -131.0V57.0ZM-204.0 539.0H207.0V520.0H-204.0ZM-340.0 591.0V403.0H349.0V591.0ZM-324.0 22.0C-343.0 -42.0 -401.0 -83.0 -488.0 -109.0C-458.0 -129.0 -405.0 -176.0 -384.0 -202.0C-288.0 -161.0 -214.0 -96.0 -183.0 5.0Z"/></g>
<g fill="black" opacity=".8" transform="translate(1200 400) scale(0.1 -0.1)"><path d="M0.0 0.0V-74.0H356.0L355.0 -1.0ZM-204.0 -10.0 -285.0 -38.0C-210.0 -165.0 -97.0 -187.0 122.0 -187.0H437.0C443.0 -160.0 457.0 -117.0 471.0 -95.0C405.0 -98.0 173.0 -101.0 124.0 -100.0C-44.0 -98.0 -152.0 -88.0 -204.0 -10.0ZM-74.0 57.0V-95.0L70.0 -128.0V57.0ZM-201.0 539.0 207.0 543.0V522.0L-203.0 518.0ZM-340.0 592.0V404.0H350.0V592.0ZM-325.0 22.0C-344.0 -41.0 -401.0 -82.0 -489.0 -109.0C-458.0 -127.0 -405.0 -176.0 -383.0 -201.0C-288.0 -163.0 -214.0 -97.0 -184.0 5.0Z"/></g>
<g fill="red" transform="translate(1300 400) scale(0.1 -0.1)"><path d="M0.0 0.0V-29.0H389.0V0.0ZM-239.0 -16.0 -264.0 -32.0C-175.0 -127.0 -33.0 -144.0 195.0 -144.0H439.0C441.0 -136.0 447.0 -122.0 453.0 -114.0C418.0 -114.0 216.0 -114.0 194.0 -114.0C-16.0 -114.0 -163.0 -101.0 -239.0 -16.0ZM-19.0 74.0V-117.0L11.0 -123.0V74.0ZM-223.0 615.0V585.0H201.0V615.0ZM-174.0 548.0V444.0H147.0V548.0ZM-234.0 38.0C-265.0 -52.0 -355.0 -107.0 -458.0 -140.0C-450.0 -146.0 -438.0 -156.0 -434.0 -161.0C-333.0 -124.0 -235.0 -64.0 -204.0 34.0Z"/></g>
<g fill="black" opacity=".8" transform="translate(1300 400) scale(0.1 -0.1)"><path d="M0.0 0.0V-29.0L387.0 -28.0V0.0ZM-239.0 -19.0 -266.0 -35.0C-179.0 -126.0 -39.0 -141.0 191.0 -141.0H446.0C448.0 -135.0 455.0 -120.0 459.0 -111.0C425.0 -111.0 211.0 -111.0 189.0 -111.0C-23.0 -111.0 -166.0 -97.0 -239.0 -19.0ZM-18.0 75.0V-116.0L10.0 -119.0V75.0ZM-211.0 618.0 -214.0 580.0 198.0 594.0 200.0 634.0ZM-170.0 550.0V452.0H152.0V550.0ZM-234.0 41.0C-265.0 -48.0 -354.0 -108.0 -460.0 -143.0C-453.0 -148.0 -441.0 -157.0 -436.0 -164.0C-333.0 -126.0 -235.0 -60.0 -203.0 37.0Z"/></g>
<g fill="red" transform="translate(1400 400) scale(0.1 -0.1)"><path d="M0.0 0.0V-74.0H356.0V0.0ZM-204.0 -10.0 -285.0 -39.0C-209.0 -167.0 -96.0 -190.0 122.0 -190.0H436.0C441.0 -162.0 456.0 -119.0 470.0 -97.0C404.0 -99.0 174.0 -100.0 125.0 -99.0C-44.0 -99.0 -152.0 -89.0 -204.0 -10.0ZM-76.0 58.0V-100.0L70.0 -132.0V58.0ZM-207.0 638.0V579.0H208.0V638.0ZM-179.0 561.0V439.0H183.0V561.0ZM-324.0 22.0C-343.0 -42.0 -401.0 -84.0 -488.0 -110.0C-458.0 -130.0 -405.0 -178.0 -384.0 -204.0C-288.0 -163.0 -214.0 -97.0 -183.0 5.0Z"/></g>
<g fill="black" opacity=".8" transform="translate(1400 400) scale(0.1 -0.1)"><path d="M0.0 0.0V-75.0L357.0 -73.0V-0.0ZM-203.0 -13.0 -288.0 -43.0C-210.0 -167.0 -96.0 -188.0 121.0 -188.0H431.0C436.0 -160.0 451.0 -117.0 465.0 -93.0C397.0 -97.0 174.0 -99.0 125.0 -98.0C-41.0 -96.0 -151.0 -87.0 -203.0 -13.0ZM-77.0 55.0V-117.0L65.0 -147.0V55.0ZM-212.0 638.0 -207.0 565.0 208.0 568.0 203.0 641.0ZM-181.0 559.0V432.0H178.0V559.0ZM-317.0 21.0C-338.0 -41.0 -398.0 -85.0 -485.0 -112.0C-456.0 -130.0 -405.0 -179.0 -384.0 -204.0C-287.0 -164.0 -211.0 -96.0 -180.0 3.0Z"/></g>
</svg>
