<?xml version="1.0" encoding="UTF-8"?>
<svg width="1700" height="800" xmlns="http://www.w3.org/2000/svg">
<rect width="100%" height="100%" fill="white"/>
<g fill="green" transform="translate(100 100) scale(0.1 -0.1)"><path d="M-0.0 -0.0 159.0 -148.0 197.0 -181.0 38.0 -33.0ZM-381.0 47.0 -407.0 33.0C-302.0 -311.0 -44.0 -348.0 307.0 -348.0H773.0C776.0 -337.0 786.0 -317.0 794.0 -308.0C746.0 -308.0 344.0 -308.0 312.0 -308.0C-21.0 -308.0 -278.0 -278.0 -381.0 47.0ZM110.0 638.0 141.0 599.0 427.0 591.0 400.0 630.0ZM196.0 426.0 425.0 405.0 681.0 355.0 452.0 377.0ZM297.0 881.0V512.0H301.0V881.0ZM-233.0 348.0V-183.0L-190.0 -181.0V348.0ZM-412.0 264.0C-416.0 3.0 -426.0 -212.0 -510.0 -358.0C-500.0 -365.0 -483.0 -379.0 -475.0 -385.0C-387.0 -229.0 -375.0 -14.0 -370.0 261.0Z"/></g>
<g fill="green" transform="translate(200 100) scale(0.1 -0.1)"><path d="M0.0 0.0 121.0 -175.0 163.0 -212.0 45.0 -36.0ZM-409.0 54.0 -500.0 21.0C-392.0 -387.0 -171.0 -442.0 174.0 -442.0H697.0C706.0 -394.0 733.0 -319.0 759.0 -283.0C647.0 -289.0 269.0 -287.0 174.0 -289.0C-116.0 -289.0 -307.0 -261.0 -409.0 54.0ZM62.0 689.0 94.0 585.0 406.0 582.0 393.0 687.0ZM211.0 440.0 356.0 377.0 594.0 362.0 449.0 425.0ZM203.0 879.0V513.0H321.0V879.0ZM-325.0 371.0V-254.0L-156.0 -242.0V371.0ZM-548.0 235.0C-541.0 6.0 -535.0 -199.0 -608.0 -334.0C-576.0 -359.0 -519.0 -423.0 -500.0 -453.0C-402.0 -285.0 -395.0 -50.0 -399.0 232.0Z"/></g>
<g fill="green" transform="translate(300 100) scale(0.1 -0.1)"><path d="M-0.0 0.0 145.0 -130.0 74.0 -157.0 -70.0 -26.0ZM-249.0 77.0 -265.0 68.0C-190.0 -174.0 9.0 -190.0 247.0 -190.0H569.0C571.0 -183.0 578.0 -169.0 584.0 -163.0C550.0 -163.0 275.0 -163.0 252.0 -163.0C23.0 -163.0 -173.0 -152.0 -249.0 77.0ZM198.0 464.0 225.0 438.0 345.0 431.0 322.0 458.0ZM345.0 344.0 569.0 336.0 633.0 287.0 409.0 296.0ZM337.0 661.0V431.0H325.0V661.0ZM-174.0 280.0V-56.0L-144.0 -54.0V280.0ZM-272.0 232.0C-274.0 48.0 -277.0 -97.0 -328.0 -197.0C-321.0 -202.0 -310.0 -212.0 -304.0 -216.0C-249.0 -108.0 -246.0 36.0 -244.0 230.0Z"/></g>
<g fill="green" transform="translate(400 100) scale(0.1 -0.1)"><path d="M0.0 0.0 115.0 -125.0 53.0 -161.0 -57.0 -35.0ZM-282.0 87.0 -331.0 67.0C-256.0 -216.0 -99.0 -250.0 138.0 -250.0H510.0C515.0 -220.0 532.0 -174.0 549.0 -152.0C477.0 -155.0 198.0 -154.0 137.0 -156.0C-69.0 -156.0 -206.0 -138.0 -282.0 87.0ZM163.0 510.0 194.0 456.0 334.0 453.0 323.0 508.0ZM375.0 351.0 517.0 341.0 555.0 327.0 413.0 337.0ZM275.0 669.0V450.0H335.0V669.0ZM-239.0 321.0V-119.0L-127.0 -103.0V321.0ZM-373.0 222.0C-365.0 63.0 -355.0 -73.0 -403.0 -166.0C-383.0 -184.0 -350.0 -230.0 -340.0 -251.0C-272.0 -134.0 -273.0 23.0 -279.0 223.0Z"/></g>
<g fill="green" transform="translate(500 100) scale(0.1 -0.1)"><path d="M-0.0 0.0 242.0 -189.0 96.0 -280.0 -156.0 -91.0ZM-710.0 -90.0 -725.0 -99.0C-637.0 -366.0 -401.0 -377.0 -125.0 -377.0H251.0C253.0 -369.0 261.0 -354.0 267.0 -349.0C228.0 -349.0 -93.0 -349.0 -119.0 -349.0C-385.0 -349.0 -621.0 -342.0 -710.0 -90.0ZM-303.0 343.0 -312.0 311.0 -159.0 314.0 -148.0 346.0ZM-171.0 204.0 62.0 194.0 56.0 143.0 -178.0 154.0ZM-75.0 561.0V301.0H-85.0V561.0ZM-697.0 160.0V-223.0L-665.0 -218.0V160.0ZM-740.0 81.0C-738.0 -126.0 -731.0 -281.0 -774.0 -388.0C-766.0 -393.0 -753.0 -405.0 -747.0 -409.0C-700.0 -293.0 -706.0 -139.0 -708.0 79.0Z"/></g>
<g fill="green" transform="translate(600 100) scale(0.1 -0.1)"><path d="M0.0 0.0 134.0 -118.0 -9.0 -170.0 -174.0 -51.0ZM-785.0 -34.0 -840.0 -56.0C-755.0 -373.0 -577.0 -410.0 -301.0 -410.0H144.0C151.0 -375.0 171.0 -322.0 191.0 -297.0C99.0 -302.0 -226.0 -300.0 -304.0 -302.0C-543.0 -302.0 -699.0 -285.0 -785.0 -34.0ZM-395.0 432.0 -388.0 364.0H-220.0L-215.0 433.0ZM-196.0 242.0 -49.0 222.0 -69.0 206.0 -217.0 226.0ZM-183.0 602.0V347.0H-117.0V602.0ZM-803.0 236.0V-273.0L-689.0 -243.0V236.0ZM-881.0 104.0C-871.0 -76.0 -853.0 -229.0 -898.0 -330.0C-878.0 -348.0 -843.0 -395.0 -833.0 -415.0C-768.0 -289.0 -776.0 -116.0 -786.0 107.0Z"/></g>
<g fill="green" transform="translate(700 100) scale(0.1 -0.1)"><path d="M-0.0 0.0 -50.0 -180.0 -111.0 -138.0 -65.0 42.0ZM-190.0 -272.0 -213.0 -284.0C-117.0 -600.0 125.0 -631.0 456.0 -631.0H917.0C920.0 -621.0 929.0 -602.0 937.0 -594.0C891.0 -594.0 491.0 -594.0 461.0 -594.0C146.0 -594.0 -95.0 -571.0 -190.0 -272.0ZM231.0 276.0 213.0 236.0 446.0 242.0 467.0 282.0ZM91.0 92.0 206.0 65.0 455.0 40.0 339.0 68.0ZM143.0 447.0V160.0H184.0V447.0ZM-248.0 53.0V-466.0L-209.0 -462.0V53.0ZM-221.0 -70.0C-221.0 -298.0 -223.0 -498.0 -294.0 -637.0C-285.0 -643.0 -269.0 -656.0 -262.0 -662.0C-188.0 -513.0 -184.0 -313.0 -184.0 -72.0Z"/></g>
<g fill="green" transform="translate(800 100) scale(0.1 -0.1)"><path d="M0.0 0.0 -15.0 -238.0 -101.0 -260.0 -95.0 -21.0ZM-194.0 -248.0 -269.0 -276.0C-169.0 -662.0 39.0 -711.0 366.0 -711.0H883.0C891.0 -665.0 917.0 -596.0 941.0 -564.0C830.0 -570.0 459.0 -568.0 363.0 -571.0C83.0 -570.0 -95.0 -547.0 -194.0 -248.0ZM207.0 344.0 209.0 218.0 464.0 219.0 474.0 346.0ZM104.0 138.0 177.0 43.0 425.0 35.0 352.0 131.0ZM76.0 455.0V160.0H202.0V455.0ZM-298.0 93.0V-555.0L-144.0 -531.0V93.0ZM-323.0 -89.0C-312.0 -291.0 -297.0 -470.0 -362.0 -596.0C-335.0 -620.0 -288.0 -686.0 -275.0 -717.0C-179.0 -557.0 -182.0 -346.0 -191.0 -89.0Z"/></g>
<g fill="green" transform="translate(900 100) scale(0.1 -0.1)"><path d="M0.0 0.0 88.0 -157.0 188.0 -146.0 101.0 11.0ZM-298.0 87.0 -326.0 72.0C-219.0 -284.0 41.0 -325.0 388.0 -325.0H828.0C831.0 -314.0 841.0 -293.0 849.0 -283.0C802.0 -283.0 424.0 -283.0 393.0 -283.0C64.0 -283.0 -194.0 -249.0 -298.0 87.0ZM-446.0 654.0 -463.0 609.0 -95.0 616.0 -72.0 660.0ZM5.0 458.0 189.0 432.0 567.0 392.0 384.0 419.0ZM412.0 1039.0V534.0H389.0V1039.0ZM-79.0 376.0V-177.0H-35.0V376.0ZM-325.0 311.0C-336.0 19.0 -358.0 -195.0 -453.0 -335.0C-442.0 -343.0 -424.0 -358.0 -416.0 -364.0C-319.0 -213.0 -292.0 0.0 -280.0 307.0Z"/></g>
<g fill="green" transform="translate(1000 100) scale(0.1 -0.1)"><path d="M0.0 0.0 97.0 -224.0 195.0 -238.0 108.0 -13.0ZM-313.0 55.0 -412.0 20.0C-305.0 -391.0 -88.0 -450.0 253.0 -450.0H760.0C769.0 -399.0 797.0 -318.0 824.0 -280.0C712.0 -285.0 350.0 -284.0 254.0 -286.0C-29.0 -286.0 -213.0 -256.0 -313.0 55.0ZM-537.0 716.0 -517.0 558.0 -77.0 559.0 -66.0 718.0ZM4.0 455.0 121.0 356.0 490.0 344.0 374.0 443.0ZM302.0 999.0V508.0H439.0V999.0ZM-167.0 349.0V-260.0L14.0 -259.0V349.0ZM-458.0 240.0C-458.0 -5.0 -462.0 -222.0 -538.0 -354.0C-502.0 -380.0 -434.0 -443.0 -410.0 -470.0C-317.0 -308.0 -297.0 -64.0 -292.0 232.0Z"/></g>
<g fill="green" transform="translate(1100 100) scale(0.1 -0.1)"><path d="M0.0 -0.0 205.0 -94.0V-181.0L-3.0 -86.0ZM-347.0 82.0 -373.0 68.0C-270.0 -274.0 -18.0 -312.0 344.0 -312.0H843.0C846.0 -301.0 856.0 -281.0 864.0 -273.0C815.0 -273.0 380.0 -273.0 348.0 -273.0C5.0 -273.0 -246.0 -241.0 -347.0 82.0ZM213.0 703.0 311.0 670.0 480.0 642.0 384.0 675.0ZM44.0 403.0 215.0 377.0 463.0 339.0 292.0 366.0ZM-179.0 1036.0V493.0H-215.0V1036.0ZM-5.0 355.0V-138.0L38.0 -134.0V355.0ZM-380.0 302.0C-385.0 33.0 -394.0 -180.0 -473.0 -325.0C-463.0 -332.0 -446.0 -346.0 -438.0 -352.0C-354.0 -197.0 -343.0 16.0 -338.0 299.0Z"/></g>
<g fill="green" transform="translate(1200 100) scale(0.1 -0.1)"><path d="M0.0 0.0 126.0 -116.0 150.0 -164.0 15.0 -48.0ZM-385.0 113.0 -470.0 83.0C-365.0 -332.0 -144.0 -385.0 210.0 -385.0H769.0C778.0 -338.0 806.0 -264.0 832.0 -229.0C712.0 -235.0 310.0 -233.0 208.0 -235.0C-93.0 -235.0 -283.0 -209.0 -385.0 113.0ZM183.0 753.0 241.0 674.0 418.0 665.0 372.0 745.0ZM31.0 448.0 139.0 359.0 385.0 348.0 277.0 437.0ZM-320.0 1053.0V541.0H-196.0V1053.0ZM-91.0 405.0V-175.0L75.0 -154.0V405.0ZM-520.0 290.0C-512.0 57.0 -503.0 -149.0 -569.0 -283.0C-537.0 -308.0 -479.0 -369.0 -460.0 -397.0C-371.0 -230.0 -368.0 4.0 -372.0 287.0Z"/></g>
<g fill="green" transform="translate(1300 100) scale(0.1 -0.1)"><path d="M0.0 -0.0 17.0 -126.0 481.0 -80.0 463.0 46.0ZM-443.0 22.0 -468.0 8.0C-352.0 -352.0 -55.0 -376.0 238.0 -376.0H541.0C543.0 -365.0 553.0 -345.0 561.0 -335.0C518.0 -335.0 275.0 -335.0 246.0 -335.0C-35.0 -335.0 -330.0 -319.0 -443.0 22.0ZM40.0 660.0 194.0 631.0 432.0 586.0 281.0 615.0ZM292.0 394.0 480.0 370.0 955.0 329.0 766.0 354.0ZM254.0 877.0V462.0H238.0V877.0ZM66.0 262.0V-223.0L111.0 -226.0V262.0ZM-464.0 239.0C-476.0 -44.0 -502.0 -249.0 -606.0 -382.0C-596.0 -390.0 -578.0 -404.0 -570.0 -410.0C-464.0 -266.0 -433.0 -62.0 -421.0 235.0Z"/></g>
<g fill="green" transform="translate(1400 100) scale(0.1 -0.1)"><path d="M0.0 0.0 39.0 -189.0 500.0 -200.0 458.0 -10.0ZM-431.0 -49.0 -526.0 -87.0C-413.0 -452.0 -190.0 -508.0 106.0 -508.0H489.0C496.0 -463.0 520.0 -390.0 543.0 -355.0C468.0 -358.0 173.0 -357.0 112.0 -359.0C-133.0 -358.0 -328.0 -329.0 -431.0 -49.0ZM53.0 657.0 143.0 594.0 409.0 580.0 337.0 644.0ZM342.0 370.0 462.0 300.0 894.0 288.0 775.0 357.0ZM178.0 828.0V419.0H301.0V828.0ZM-6.0 222.0V-284.0L173.0 -306.0V222.0ZM-568.0 163.0C-568.0 -71.0 -576.0 -265.0 -674.0 -382.0C-642.0 -411.0 -585.0 -481.0 -566.0 -511.0C-443.0 -362.0 -418.0 -136.0 -412.0 159.0Z"/></g>
<g fill="green" transform="translate(1500 100) scale(0.1 -0.1)"><path d="M0.0 -0.0 79.0 -181.0H225.0L147.0 0.0ZM-450.0 61.0 -473.0 48.0C-369.0 -279.0 -108.0 -311.0 271.0 -311.0H826.0C830.0 -300.0 840.0 -281.0 848.0 -273.0C797.0 -273.0 311.0 -273.0 276.0 -273.0C-86.0 -273.0 -347.0 -249.0 -450.0 61.0ZM304.0 658.0 344.0 621.0 430.0 611.0 394.0 647.0ZM45.0 414.0 233.0 392.0 309.0 351.0 121.0 374.0ZM431.0 781.0V585.0H491.0V781.0ZM-85.0 274.0V-119.0L-44.0 -111.0V274.0ZM-489.0 270.0C-483.0 31.0 -470.0 -177.0 -526.0 -323.0C-517.0 -329.0 -501.0 -343.0 -493.0 -349.0C-431.0 -193.0 -444.0 16.0 -450.0 268.0Z"/></g>
<g fill="green" transform="translate(1600 100) scale(0.1 -0.1)"><path d="M0.0 0.0 74.0 -199.0 220.0 -228.0 151.0 -28.0ZM-476.0 54.0 -551.0 26.0C-443.0 -394.0 -217.0 -442.0 155.0 -442.0H770.0C781.0 -396.0 808.0 -328.0 834.0 -294.0C703.0 -302.0 262.0 -300.0 150.0 -302.0C-171.0 -302.0 -369.0 -278.0 -476.0 54.0ZM279.0 654.0 311.0 570.0 402.0 566.0 384.0 651.0ZM52.0 402.0 171.0 335.0 253.0 322.0 134.0 390.0ZM389.0 754.0V536.0H510.0V754.0ZM-142.0 295.0V-243.0L12.0 -199.0V295.0ZM-608.0 213.0C-593.0 -6.0 -570.0 -207.0 -621.0 -347.0C-593.0 -369.0 -545.0 -428.0 -530.0 -456.0C-451.0 -284.0 -464.0 -54.0 -479.0 214.0Z"/></g>
<g fill="green" transform="translate(100 200) scale(0.1 -0.1)"><path d="M0.0 0.0 44.0 -188.0 69.0 -206.0 24.0 -18.0ZM-343.0 62.0 -373.0 45.0C-265.0 -316.0 -10.0 -356.0 282.0 -356.0H591.0C594.0 -344.0 603.0 -323.0 612.0 -312.0C569.0 -312.0 318.0 -312.0 289.0 -312.0C13.0 -312.0 -241.0 -280.0 -343.0 62.0ZM86.0 684.0 19.0 634.0 659.0 655.0 729.0 705.0ZM-120.0 484.0 -12.0 450.0 596.0 427.0 489.0 461.0ZM310.0 953.0V500.0H333.0V953.0ZM-273.0 402.0V-213.0L-227.0 -220.0V402.0ZM-364.0 283.0C-379.0 4.0 -417.0 -215.0 -538.0 -359.0C-527.0 -367.0 -509.0 -381.0 -501.0 -387.0C-379.0 -234.0 -337.0 -15.0 -319.0 279.0Z"/></g>
<g fill="green" transform="translate(200 200) scale(0.1 -0.1)"><path d="M0.0 0.0 37.0 -247.0 104.0 -283.0 66.0 -36.0ZM-317.0 21.0 -432.0 -22.0C-318.0 -386.0 -99.0 -447.0 192.0 -447.0H538.0C546.0 -399.0 570.0 -319.0 595.0 -280.0C523.0 -283.0 258.0 -282.0 202.0 -284.0C-30.0 -283.0 -220.0 -250.0 -317.0 21.0ZM56.0 758.0 35.0 595.0 697.0 601.0 730.0 764.0ZM-100.0 532.0 -32.0 406.0 566.0 399.0 498.0 525.0ZM248.0 960.0V476.0H406.0V960.0ZM-343.0 387.0V-251.0L-155.0 -293.0V387.0ZM-464.0 242.0C-467.0 5.0 -488.0 -197.0 -598.0 -320.0C-561.0 -350.0 -496.0 -420.0 -473.0 -453.0C-339.0 -297.0 -301.0 -61.0 -290.0 234.0Z"/></g>
<g fill="green" transform="translate(300 200) scale(0.1 -0.1)"><path d="M0.0 -0.0 -54.0 -104.0 350.0 -13.0 398.0 91.0ZM-404.0 99.0 -426.0 87.0C-325.0 -232.0 -75.0 -267.0 303.0 -267.0H841.0C844.0 -257.0 854.0 -239.0 861.0 -231.0C812.0 -231.0 340.0 -231.0 307.0 -231.0C-53.0 -231.0 -303.0 -202.0 -404.0 99.0ZM74.0 642.0 89.0 606.0 423.0 602.0 409.0 638.0ZM171.0 512.0 278.0 485.0 658.0 462.0 551.0 490.0ZM228.0 778.0V387.0H221.0V778.0ZM-369.0 392.0V-103.0L-331.0 -96.0V392.0ZM-437.0 300.0C-435.0 56.0 -431.0 -145.0 -496.0 -278.0C-486.0 -285.0 -470.0 -299.0 -463.0 -304.0C-394.0 -161.0 -397.0 40.0 -398.0 297.0Z"/></g>
<g fill="green" transform="translate(400 200) scale(0.1 -0.1)"><path d="M0.0 0.0 -6.0 -194.0 362.0 -165.0 349.0 29.0ZM-408.0 58.0 -490.0 29.0C-383.0 -379.0 -162.0 -429.0 208.0 -429.0H811.0C821.0 -382.0 849.0 -311.0 876.0 -277.0C741.0 -285.0 320.0 -283.0 204.0 -284.0C-113.0 -284.0 -305.0 -260.0 -408.0 58.0ZM54.0 624.0 67.0 523.0 438.0 521.0 432.0 623.0ZM197.0 473.0 264.0 392.0 621.0 385.0 554.0 466.0ZM156.0 694.0V334.0H269.0V694.0ZM-424.0 366.0V-277.0L-269.0 -239.0V366.0ZM-538.0 203.0C-530.0 -12.0 -518.0 -219.0 -566.0 -351.0C-536.0 -372.0 -482.0 -424.0 -462.0 -448.0C-393.0 -290.0 -395.0 -59.0 -400.0 199.0Z"/></g>
<g fill="green" transform="translate(500 200) scale(0.1 -0.1)"><path d="M-0.0 -0.0 261.0 -128.0 282.0 -266.0 26.0 -138.0ZM-386.0 9.0 -409.0 -5.0C-297.0 -339.0 -20.0 -370.0 342.0 -370.0H814.0C817.0 -359.0 827.0 -340.0 835.0 -332.0C786.0 -332.0 380.0 -332.0 347.0 -332.0C1.0 -332.0 -275.0 -308.0 -386.0 9.0ZM75.0 586.0 79.0 547.0 472.0 548.0 474.0 587.0ZM172.0 420.0 357.0 398.0 721.0 357.0 536.0 381.0ZM321.0 738.0V428.0H319.0V738.0ZM-186.0 282.0V-200.0L-145.0 -197.0V282.0ZM-414.0 219.0C-418.0 -37.0 -429.0 -246.0 -513.0 -381.0C-503.0 -388.0 -487.0 -402.0 -480.0 -408.0C-392.0 -264.0 -378.0 -55.0 -372.0 216.0Z"/></g>
<g fill="green" transform="translate(600 200) scale(0.1 -0.1)"><path d="M0.0 0.0 171.0 -116.0 202.0 -199.0 50.0 -82.0ZM-443.0 93.0 -527.0 60.0C-413.0 -338.0 -183.0 -390.0 174.0 -390.0H715.0C724.0 -344.0 751.0 -273.0 776.0 -239.0C661.0 -245.0 271.0 -243.0 173.0 -245.0C-131.0 -245.0 -335.0 -219.0 -443.0 93.0ZM-7.0 707.0 21.0 599.0 433.0 598.0 434.0 708.0ZM157.0 501.0 274.0 436.0 619.0 424.0 502.0 489.0ZM205.0 802.0V505.0H314.0V802.0ZM-296.0 380.0V-211.0L-135.0 -193.0V380.0ZM-571.0 266.0C-567.0 46.0 -562.0 -155.0 -635.0 -279.0C-606.0 -305.0 -552.0 -366.0 -534.0 -394.0C-437.0 -239.0 -427.0 -10.0 -427.0 262.0Z"/></g>
<g fill="green" transform="translate(700 200) scale(0.1 -0.1)"><path d="M-0.0 -0.0 267.0 -40.0 365.0 -124.0 99.0 -84.0ZM-338.0 40.0 -367.0 25.0C-270.0 -322.0 -40.0 -366.0 298.0 -366.0H759.0C762.0 -355.0 772.0 -334.0 780.0 -325.0C733.0 -325.0 333.0 -325.0 302.0 -325.0C-16.0 -325.0 -245.0 -287.0 -338.0 40.0ZM172.0 699.0 133.0 653.0 395.0 665.0 436.0 712.0ZM206.0 471.0 469.0 451.0 648.0 394.0 385.0 415.0ZM296.0 842.0V519.0H322.0V842.0ZM-242.0 369.0V-200.0H-198.0V369.0ZM-371.0 264.0C-376.0 -3.0 -389.0 -223.0 -474.0 -378.0C-463.0 -385.0 -446.0 -398.0 -437.0 -405.0C-349.0 -239.0 -335.0 -20.0 -328.0 261.0Z"/></g>
<g fill="green" transform="translate(800 200) scale(0.1 -0.1)"><path d="M0.0 0.0 180.0 -77.0 242.0 -125.0 66.0 -47.0ZM-388.0 41.0 -486.0 8.0C-386.0 -404.0 -180.0 -461.0 150.0 -461.0H654.0C663.0 -411.0 689.0 -334.0 715.0 -296.0C607.0 -302.0 243.0 -300.0 152.0 -302.0C-120.0 -302.0 -295.0 -273.0 -388.0 41.0ZM90.0 759.0 81.0 630.0 351.0 633.0 371.0 763.0ZM207.0 467.0 374.0 407.0 521.0 390.0 354.0 449.0ZM192.0 841.0V511.0H312.0V841.0ZM-352.0 370.0V-263.0L-181.0 -258.0V370.0ZM-533.0 231.0C-524.0 -7.0 -518.0 -214.0 -593.0 -356.0C-559.0 -380.0 -498.0 -445.0 -477.0 -476.0C-379.0 -299.0 -372.0 -62.0 -380.0 229.0Z"/></g>
<g fill="green" transform="translate(900 200) scale(0.1 -0.1)"><path d="M0.0 0.0 207.0 -97.0 290.0 -98.0 80.0 -1.0ZM-389.0 45.0 -416.0 30.0C-307.0 -306.0 -52.0 -349.0 310.0 -349.0H769.0C772.0 -338.0 782.0 -318.0 790.0 -309.0C742.0 -309.0 346.0 -309.0 314.0 -309.0C-28.0 -309.0 -283.0 -273.0 -389.0 45.0ZM85.0 560.0 57.0 516.0 473.0 525.0 503.0 569.0ZM154.0 401.0 484.0 389.0 687.0 317.0 358.0 330.0ZM281.0 900.0V610.0H288.0V900.0ZM-234.0 345.0V-199.0L-192.0 -197.0V345.0ZM-417.0 254.0C-419.0 31.0 -432.0 -198.0 -530.0 -354.0C-522.0 -360.0 -506.0 -372.0 -498.0 -379.0C-395.0 -216.0 -379.0 15.0 -377.0 251.0Z"/></g>
<g fill="green" transform="translate(1000 200) scale(0.1 -0.1)"><path d="M0.0 0.0 160.0 -138.0 254.0 -150.0 88.0 -12.0ZM-396.0 66.0 -499.0 29.0C-382.0 -383.0 -151.0 -442.0 205.0 -442.0H709.0C719.0 -391.0 747.0 -312.0 774.0 -275.0C660.0 -280.0 303.0 -279.0 206.0 -280.0C-88.0 -280.0 -290.0 -248.0 -396.0 66.0ZM18.0 625.0 16.0 509.0 472.0 511.0 486.0 628.0ZM192.0 396.0 401.0 357.0 602.0 335.0 393.0 375.0ZM204.0 905.0V606.0H320.0V905.0ZM-328.0 356.0V-262.0L-153.0 -256.0V356.0ZM-540.0 233.0C-533.0 24.0 -531.0 -180.0 -620.0 -321.0C-586.0 -347.0 -532.0 -417.0 -513.0 -453.0C-394.0 -276.0 -381.0 -35.0 -385.0 228.0Z"/></g>
<g fill="green" transform="translate(1100 200) scale(0.1 -0.1)"><path d="M-0.0 0.0 200.0 -90.0 272.0 -185.0 76.0 -95.0ZM-361.0 57.0 -387.0 43.0C-281.0 -297.0 -23.0 -334.0 330.0 -334.0H789.0C792.0 -323.0 802.0 -303.0 809.0 -294.0C761.0 -294.0 366.0 -294.0 334.0 -294.0C0.0 -294.0 -257.0 -263.0 -361.0 57.0ZM128.0 627.0 219.0 593.0 475.0 568.0 388.0 601.0ZM193.0 391.0 384.0 367.0 703.0 325.0 512.0 350.0ZM337.0 947.0V506.0H329.0V947.0ZM-224.0 357.0V-189.0L-183.0 -187.0V357.0ZM-388.0 270.0C-393.0 5.0 -407.0 -205.0 -492.0 -342.0C-482.0 -349.0 -465.0 -364.0 -457.0 -369.0C-368.0 -222.0 -352.0 -13.0 -346.0 267.0Z"/></g>
<g fill="green" transform="translate(1200 200) scale(0.1 -0.1)"><path d="M0.0 0.0 131.0 -138.0 152.0 -206.0 33.0 -67.0ZM-427.0 60.0 -528.0 23.0C-415.0 -383.0 -192.0 -440.0 161.0 -440.0H683.0C693.0 -388.0 721.0 -309.0 749.0 -271.0C629.0 -277.0 263.0 -276.0 160.0 -277.0C-131.0 -278.0 -324.0 -248.0 -427.0 60.0ZM60.0 657.0 119.0 551.0 389.0 543.0 347.0 650.0ZM153.0 401.0 274.0 319.0 597.0 307.0 476.0 388.0ZM194.0 931.0V480.0H324.0V931.0ZM-362.0 355.0V-270.0L-189.0 -259.0V355.0ZM-564.0 223.0C-559.0 -8.0 -557.0 -219.0 -628.0 -350.0C-594.0 -374.0 -534.0 -433.0 -513.0 -460.0C-422.0 -300.0 -411.0 -62.0 -412.0 218.0Z"/></g>
<g fill="green" transform="translate(1300 200) scale(0.1 -0.1)"><path d="M0.0 0.0 197.0 -107.0 185.0 -151.0 -14.0 -44.0ZM-384.0 57.0 -412.0 42.0C-300.0 -306.0 -33.0 -345.0 322.0 -345.0H766.0C769.0 -334.0 779.0 -314.0 787.0 -304.0C738.0 -304.0 360.0 -304.0 327.0 -304.0C-10.0 -304.0 -276.0 -272.0 -384.0 57.0ZM77.0 686.0 171.0 652.0 420.0 626.0 331.0 660.0ZM141.0 402.0 385.0 381.0 714.0 328.0 470.0 350.0ZM247.0 799.0V580.0H333.0V799.0ZM-242.0 391.0V-185.0H-198.0V391.0ZM-411.0 274.0C-417.0 32.0 -440.0 -198.0 -549.0 -349.0C-539.0 -355.0 -523.0 -369.0 -515.0 -375.0C-402.0 -217.0 -377.0 14.0 -368.0 271.0Z"/></g>
<g fill="green" transform="translate(1400 200) scale(0.1 -0.1)"><path d="M0.0 0.0 148.0 -151.0 152.0 -186.0 4.0 -34.0ZM-395.0 56.0 -499.0 17.0C-379.0 -389.0 -142.0 -447.0 211.0 -447.0H700.0C709.0 -397.0 737.0 -319.0 764.0 -281.0C655.0 -286.0 304.0 -285.0 213.0 -286.0C-80.0 -286.0 -287.0 -254.0 -395.0 56.0ZM74.0 702.0 142.0 602.0 394.0 594.0 352.0 694.0ZM166.0 400.0 321.0 332.0 662.0 317.0 507.0 384.0ZM190.0 801.0V540.0H331.0V801.0ZM-330.0 388.0V-253.0L-153.0 -257.0V388.0ZM-536.0 234.0C-533.0 15.0 -539.0 -194.0 -632.0 -330.0C-599.0 -357.0 -543.0 -425.0 -523.0 -460.0C-400.0 -290.0 -380.0 -45.0 -377.0 227.0Z"/></g>
<g fill="green" transform="translate(1500 200) scale(0.1 -0.1)"><path d="M0.0 0.0 190.0 -138.0 201.0 -182.0 9.0 -44.0ZM-383.0 57.0 -414.0 41.0C-323.0 -282.0 -131.0 -346.0 251.0 -346.0H784.0C787.0 -336.0 796.0 -315.0 805.0 -308.0C757.0 -308.0 281.0 -308.0 251.0 -308.0C-104.0 -308.0 -297.0 -249.0 -383.0 57.0ZM84.0 677.0 106.0 639.0 458.0 633.0 437.0 671.0ZM177.0 397.0 457.0 381.0 718.0 320.0 438.0 337.0ZM314.0 898.0V445.0H303.0V898.0ZM-216.0 355.0V-212.0L-174.0 -209.0V355.0ZM-414.0 252.0C-413.0 42.0 -423.0 -196.0 -517.0 -363.0C-508.0 -368.0 -495.0 -379.0 -486.0 -386.0C-385.0 -213.0 -376.0 29.0 -376.0 250.0Z"/></g>
<g fill="green" transform="translate(1600 200) scale(0.1 -0.1)"><path d="M0.0 0.0 121.0 -156.0 141.0 -202.0 14.0 -45.0ZM-394.0 66.0 -498.0 32.0C-396.0 -386.0 -186.0 -444.0 171.0 -444.0H715.0C725.0 -394.0 753.0 -316.0 780.0 -278.0C655.0 -285.0 277.0 -283.0 171.0 -284.0C-124.0 -284.0 -304.0 -253.0 -394.0 66.0ZM36.0 702.0 52.0 605.0 438.0 603.0 428.0 701.0ZM203.0 389.0 380.0 340.0 601.0 322.0 423.0 371.0ZM209.0 868.0V439.0H323.0V868.0ZM-312.0 367.0V-259.0L-147.0 -247.0V367.0ZM-542.0 219.0C-533.0 21.0 -530.0 -186.0 -600.0 -338.0C-566.0 -359.0 -509.0 -419.0 -488.0 -456.0C-389.0 -270.0 -383.0 -30.0 -391.0 213.0Z"/></g>
<g fill="green" transform="translate(100 300) scale(0.1 -0.1)"><path d="M0.0 -0.0 213.0 -190.0 250.0 -240.0 37.0 -51.0ZM-384.0 42.0 -413.0 27.0C-314.0 -314.0 -82.0 -359.0 273.0 -359.0H765.0C768.0 -348.0 778.0 -328.0 786.0 -319.0C738.0 -319.0 308.0 -319.0 277.0 -319.0C-57.0 -319.0 -289.0 -280.0 -384.0 42.0ZM93.0 631.0 192.0 597.0 420.0 568.0 324.0 603.0ZM185.0 408.0 380.0 383.0 650.0 341.0 455.0 366.0ZM293.0 896.0V506.0H290.0V896.0ZM-260.0 342.0V-219.0L-216.0 -217.0V342.0ZM-418.0 263.0C-423.0 -5.0 -435.0 -224.0 -519.0 -376.0C-509.0 -383.0 -491.0 -396.0 -483.0 -403.0C-395.0 -241.0 -382.0 -22.0 -375.0 260.0Z"/></g>
<g fill="green" transform="translate(200 300) scale(0.1 -0.1)"><path d="M0.0 0.0 156.0 -204.0 248.0 -222.0 95.0 -18.0ZM-381.0 72.0 -482.0 38.0C-379.0 -376.0 -168.0 -434.0 177.0 -434.0H708.0C718.0 -382.0 746.0 -302.0 774.0 -263.0C654.0 -269.0 279.0 -267.0 177.0 -270.0C-107.0 -269.0 -285.0 -241.0 -381.0 72.0ZM87.0 691.0 143.0 593.0 409.0 584.0 363.0 683.0ZM224.0 455.0 347.0 375.0 596.0 362.0 473.0 442.0ZM219.0 909.0V529.0H341.0V909.0ZM-333.0 381.0V-256.0L-160.0 -244.0V381.0ZM-526.0 246.0C-518.0 10.0 -511.0 -198.0 -581.0 -339.0C-547.0 -363.0 -484.0 -424.0 -464.0 -454.0C-372.0 -281.0 -367.0 -44.0 -372.0 243.0Z"/></g>
<g fill="green" transform="translate(300 300) scale(0.1 -0.1)"><path d="M-0.0 -0.0 127.0 -109.0 171.0 -145.0 42.0 -35.0ZM-378.0 47.0 -406.0 33.0C-307.0 -305.0 -75.0 -351.0 285.0 -351.0H778.0C781.0 -340.0 791.0 -320.0 799.0 -311.0C751.0 -311.0 320.0 -311.0 288.0 -311.0C-50.0 -311.0 -282.0 -271.0 -378.0 47.0ZM86.0 640.0 141.0 602.0 453.0 587.0 403.0 625.0ZM227.0 426.0 413.0 400.0 669.0 359.0 482.0 386.0ZM276.0 867.0V555.0H319.0V867.0ZM-223.0 342.0V-207.0L-180.0 -204.0V342.0ZM-412.0 262.0C-416.0 -12.0 -422.0 -219.0 -494.0 -362.0C-484.0 -370.0 -465.0 -384.0 -457.0 -390.0C-382.0 -235.0 -374.0 -28.0 -369.0 259.0Z"/></g>
<g fill="green" transform="translate(400 300) scale(0.1 -0.1)"><path d="M0.0 0.0 88.0 -167.0 132.0 -205.0 43.0 -38.0ZM-406.0 72.0 -506.0 40.0C-408.0 -385.0 -206.0 -443.0 143.0 -443.0H701.0C711.0 -389.0 740.0 -306.0 769.0 -266.0C640.0 -274.0 253.0 -272.0 141.0 -274.0C-146.0 -274.0 -313.0 -246.0 -406.0 72.0ZM38.0 694.0 88.0 581.0 418.0 576.0 394.0 690.0ZM224.0 456.0 342.0 371.0 586.0 359.0 468.0 443.0ZM188.0 871.0V540.0H329.0V871.0ZM-329.0 366.0V-257.0L-153.0 -237.0V366.0ZM-554.0 237.0C-547.0 -5.0 -537.0 -216.0 -597.0 -355.0C-561.0 -378.0 -494.0 -439.0 -471.0 -467.0C-393.0 -296.0 -390.0 -58.0 -397.0 233.0Z"/></g>
<g fill="green" transform="translate(500 300) scale(0.1 -0.1)"><path d="M-0.0 -0.0 168.0 -219.0 183.0 -222.0 30.0 -3.0ZM-369.0 55.0 -396.0 41.0C-292.0 -305.0 -43.0 -346.0 312.0 -346.0H783.0C786.0 -335.0 796.0 -315.0 804.0 -306.0C756.0 -306.0 349.0 -306.0 317.0 -306.0C-19.0 -306.0 -268.0 -271.0 -369.0 55.0ZM86.0 654.0 153.0 618.0 465.0 600.0 405.0 637.0ZM194.0 429.0 451.0 410.0 692.0 353.0 434.0 374.0ZM295.0 861.0V521.0H306.0V861.0ZM-226.0 375.0V-188.0L-183.0 -187.0V375.0ZM-399.0 268.0C-403.0 -4.0 -409.0 -214.0 -488.0 -353.0C-477.0 -361.0 -460.0 -376.0 -452.0 -382.0C-370.0 -231.0 -361.0 -22.0 -356.0 265.0Z"/></g>
<g fill="green" transform="translate(600 300) scale(0.1 -0.1)"><path d="M0.0 0.0 169.0 -232.0 202.0 -247.0 86.0 -15.0ZM-414.0 57.0 -509.0 24.0C-404.0 -387.0 -186.0 -443.0 160.0 -443.0H685.0C694.0 -396.0 721.0 -320.0 747.0 -284.0C634.0 -290.0 255.0 -288.0 160.0 -289.0C-129.0 -289.0 -317.0 -261.0 -414.0 57.0ZM26.0 677.0 84.0 589.0 426.0 583.0 397.0 672.0ZM191.0 422.0 354.0 368.0 594.0 351.0 431.0 405.0ZM192.0 858.0V520.0H310.0V858.0ZM-332.0 378.0V-253.0L-158.0 -244.0V378.0ZM-555.0 245.0C-550.0 3.0 -548.0 -213.0 -618.0 -348.0C-584.0 -372.0 -520.0 -430.0 -498.0 -455.0C-410.0 -291.0 -400.0 -49.0 -401.0 241.0Z"/></g>
<g fill="red" transform="translate(100 400) scale(0.1 -0.1)"><path d="M0.0 0.0V-30.0H266.0V0.0ZM-220.0 -51.0 -245.0 -64.0C-173.0 -286.0 -35.0 -328.0 156.0 -328.0H313.0C315.0 -320.0 321.0 -306.0 326.0 -297.0C300.0 -297.0 174.0 -297.0 157.0 -297.0C-18.0 -297.0 -157.0 -260.0 -220.0 -51.0ZM-265.0 410.0V381.0H260.0V410.0ZM-321.0 207.0V178.0H310.0V207.0ZM-21.0 563.0V193.0H8.0V563.0ZM-14.0 183.0V-285.0L16.0 -292.0V183.0ZM-227.0 86.0C-243.0 -94.0 -283.0 -234.0 -380.0 -324.0C-372.0 -329.0 -360.0 -337.0 -356.0 -342.0C-260.0 -246.0 -214.0 -107.0 -197.0 83.0Z"/></g>
<g fill="black" opacity=".8" transform="translate(100 400) scale(0.1 -0.1)"><path d="M0.0 0.0 1.0 -33.0 265.0 -40.0 261.0 -6.0ZM-211.0 -40.0 -237.0 -54.0C-169.0 -284.0 -39.0 -327.0 147.0 -327.0H309.0C310.0 -320.0 315.0 -305.0 322.0 -299.0C296.0 -299.0 165.0 -299.0 149.0 -299.0C-23.0 -299.0 -153.0 -258.0 -211.0 -40.0ZM-263.0 407.0 -268.0 377.0 254.0 379.0 258.0 410.0ZM-317.0 209.0 -324.0 180.0 310.0 182.0 316.0 211.0ZM-23.0 562.0V196.0H3.0V562.0ZM-16.0 177.0V-286.0L14.0 -293.0V177.0ZM-218.0 94.0C-233.0 -82.0 -275.0 -234.0 -377.0 -330.0C-370.0 -335.0 -360.0 -342.0 -354.0 -348.0C-251.0 -246.0 -206.0 -94.0 -189.0 91.0Z"/></g>
<g fill="red" transform="translate(200 400) scale(0.1 -0.1)"><path d="M0.0 0.0V-124.0H275.0V0.0ZM-156.0 -88.0 -266.0 -125.0C-192.0 -339.0 -63.0 -389.0 118.0 -389.0H285.0C290.0 -351.0 308.0 -288.0 326.0 -257.0C278.0 -259.0 167.0 -259.0 130.0 -259.0C3.0 -258.0 -106.0 -231.0 -156.0 -88.0ZM-276.0 443.0V320.0H269.0V443.0ZM-321.0 232.0V105.0H314.0V232.0ZM-74.0 547.0V151.0H64.0V547.0ZM-66.0 118.0V-249.0L72.0 -304.0V118.0ZM-271.0 41.0C-278.0 -108.0 -305.0 -239.0 -383.0 -314.0C-352.0 -334.0 -293.0 -382.0 -271.0 -406.0C-182.0 -309.0 -143.0 -155.0 -130.0 30.0Z"/></g>
<g fill="black" opacity=".8" transform="translate(200 400) scale(0.1 -0.1)"><path d="M0.0 0.0 -9.0 -123.0 275.0 -125.0 274.0 -5.0ZM-161.0 -80.0 -264.0 -115.0C-191.0 -346.0 -59.0 -393.0 120.0 -393.0H290.0C296.0 -354.0 312.0 -291.0 331.0 -261.0C282.0 -260.0 168.0 -263.0 130.0 -263.0C1.0 -261.0 -108.0 -235.0 -161.0 -80.0ZM-272.0 439.0 -275.0 313.0 269.0 312.0 271.0 439.0ZM-318.0 236.0 -322.0 106.0 310.0 108.0 314.0 236.0ZM-72.0 543.0V154.0H65.0V543.0ZM-64.0 114.0V-260.0L75.0 -310.0V114.0ZM-269.0 49.0C-277.0 -101.0 -307.0 -239.0 -394.0 -321.0C-363.0 -340.0 -309.0 -383.0 -288.0 -407.0C-191.0 -307.0 -147.0 -146.0 -132.0 38.0Z"/></g>
<g fill="red" transform="translate(300 400) scale(0.1 -0.1)"><path d="M0 0.0V-30.0H363.0V0.0ZM-257.0 -12.0 -281.0 -26.0C-195.0 -276.0 -22.0 -325.0 227.0 -325.0H441.0C442.0 -317.0 449.0 -303.0 455.0 -294.0C424.0 -294.0 248.0 -294.0 227.0 -294.0C-4.0 -294.0 -178.0 -250.0 -257.0 -12.0ZM-344.0 431.0V402.0H358.0V431.0ZM-429.0 223.0V194.0H427.0V223.0ZM-17.0 561.0V212.0H13.0V561.0ZM-16.0 219.0V-276.0L14.0 -283.0V219.0ZM-257.0 114.0C-271.0 -39.0 -321.0 -222.0 -453.0 -321.0C-446.0 -326.0 -436.0 -335.0 -431.0 -341.0C-297.0 -240.0 -243.0 -53.0 -224.0 110.0Z"/></g>
<g fill="black" opacity=".8" transform="translate(300 400) scale(0.1 -0.1)"><path d="M0.0 0.0 2.0 -25.0 363.0 -27.0 362.0 -1.0ZM-260.0 -15.0 -285.0 -31.0C-195.0 -278.0 -19.0 -325.0 231.0 -325.0H443.0C444.0 -317.0 450.0 -301.0 457.0 -295.0C425.0 -295.0 253.0 -295.0 232.0 -295.0C-2.0 -295.0 -179.0 -251.0 -260.0 -15.0ZM-355.0 430.0 -340.0 402.0 367.0 399.0 352.0 428.0ZM-429.0 227.0 -428.0 198.0H426.0V228.0ZM-19.0 564.0V209.0H17.0V564.0ZM-16.0 224.0V-279.0L15.0 -285.0V224.0ZM-260.0 118.0C-273.0 -37.0 -323.0 -219.0 -454.0 -321.0C-447.0 -325.0 -438.0 -334.0 -433.0 -339.0C-300.0 -236.0 -245.0 -52.0 -229.0 115.0Z"/></g>
<g fill="red" transform="translate(400 400) scale(0.1 -0.1)"><path d="M0 0.0V-129.0H383.0V0.0ZM-212.0 -45.0 -327.0 -88.0C-222.0 -346.0 -37.0 -399.0 208.0 -399.0H428.0C436.0 -358.0 458.0 -291.0 478.0 -259.0C413.0 -261.0 269.0 -262.0 217.0 -261.0C30.0 -261.0 -137.0 -229.0 -212.0 -45.0ZM-360.0 444.0V311.0H370.0V444.0ZM-450.0 236.0V102.0H451.0V236.0ZM-79.0 538.0V160.0H71.0V538.0ZM-79.0 144.0V-267.0L71.0 -322.0V144.0ZM-319.0 71.0C-334.0 -67.0 -379.0 -233.0 -486.0 -318.0C-454.0 -339.0 -402.0 -384.0 -377.0 -411.0C-256.0 -309.0 -199.0 -116.0 -169.0 53.0Z"/></g>
<g fill="black" opacity=".8" transform="translate(400 400) scale(0.1 -0.1)"><path d="M0.0 0.0 5.0 -129.0H380.0L378.0 -3.0ZM-210.0 -46.0 -329.0 -91.0C-223.0 -349.0 -39.0 -401.0 206.0 -401.0H427.0C434.0 -359.0 455.0 -290.0 477.0 -258.0C410.0 -258.0 268.0 -261.0 216.0 -259.0C31.0 -257.0 -134.0 -226.0 -210.0 -46.0ZM-367.0 440.0 -356.0 311.0 377.0 309.0 370.0 439.0ZM-444.0 239.0 -443.0 103.0 444.0 105.0 443.0 239.0ZM-80.0 537.0V154.0H72.0V537.0ZM-79.0 148.0V-272.0L74.0 -324.0V148.0ZM-321.0 72.0C-335.0 -67.0 -378.0 -229.0 -486.0 -316.0C-453.0 -339.0 -400.0 -384.0 -377.0 -413.0C-253.0 -308.0 -194.0 -117.0 -168.0 54.0Z"/></g>
<g fill="red" transform="translate(500 400) scale(0.1 -0.1)"><path d="M0.0 0.0V-29.0H199.0V0.0ZM-149.0 -47.0 -174.0 -59.0C-114.0 -281.0 -7.0 -339.0 267.0 -339.0H642.0C644.0 -331.0 651.0 -317.0 657.0 -310.0C624.0 -310.0 285.0 -310.0 264.0 -310.0C14.0 -310.0 -95.0 -256.0 -149.0 -47.0ZM-205.0 397.0V368.0H193.0V397.0ZM-237.0 197.0V168.0H218.0V197.0ZM-23.0 536.0V183.0H6.0V536.0ZM-15.0 173.0V-282.0H15.0V173.0ZM-166.0 91.0C-176.0 -90.0 -197.0 -247.0 -265.0 -347.0C-258.0 -353.0 -246.0 -363.0 -241.0 -368.0C-170.0 -261.0 -147.0 -102.0 -135.0 88.0Z"/></g>
<g fill="black" opacity=".8" transform="translate(500 400) scale(0.1 -0.1)"><path d="M0.0 0.0 -1.0 -26.0 196.0 -27.0 197.0 1.0ZM-151.0 -48.0 -176.0 -61.0C-114.0 -285.0 -4.0 -340.0 270.0 -340.0H645.0C647.0 -333.0 653.0 -318.0 660.0 -313.0C626.0 -313.0 289.0 -313.0 268.0 -313.0C16.0 -313.0 -96.0 -259.0 -151.0 -48.0ZM-212.0 398.0 -205.0 369.0 190.0 368.0 183.0 397.0ZM-233.0 197.0 -239.0 168.0 212.0 169.0 217.0 199.0ZM-25.0 537.0V181.0H6.0V537.0ZM-19.0 173.0V-283.0L10.0 -282.0V173.0ZM-169.0 89.0C-174.0 -85.0 -190.0 -244.0 -260.0 -349.0C-252.0 -354.0 -242.0 -362.0 -236.0 -368.0C-164.0 -256.0 -146.0 -96.0 -140.0 86.0Z"/></g>
<g fill="red" transform="translate(600 400) scale(0.1 -0.1)"><path d="M0.0 0.0V-125.0H185.0V0.0ZM-134.0 -47.0 -225.0 -73.0C-157.0 -373.0 -25.0 -421.0 231.0 -421.0H621.0C629.0 -377.0 654.0 -309.0 676.0 -277.0C571.0 -283.0 323.0 -282.0 231.0 -283.0C28.0 -283.0 -78.0 -259.0 -134.0 -47.0ZM-244.0 412.0V287.0H171.0V412.0ZM-271.0 220.0V93.0H198.0V220.0ZM-103.0 502.0V146.0H33.0V502.0ZM-80.0 140.0V-297.0H53.0V140.0ZM-247.0 50.0C-249.0 -113.0 -257.0 -277.0 -301.0 -376.0C-270.0 -391.0 -211.0 -428.0 -188.0 -448.0C-137.0 -331.0 -121.0 -148.0 -116.0 39.0Z"/></g>
<g fill="black" opacity=".8" transform="translate(600 400) scale(0.1 -0.1)"><path d="M0.0 0.0 -3.0 -124.0 186.0 -122.0 189.0 -0.0ZM-135.0 -44.0 -230.0 -72.0C-161.0 -374.0 -25.0 -419.0 231.0 -419.0H619.0C627.0 -375.0 649.0 -308.0 673.0 -276.0C567.0 -280.0 321.0 -282.0 230.0 -282.0C30.0 -280.0 -79.0 -258.0 -135.0 -44.0ZM-247.0 416.0 -240.0 291.0 182.0 289.0 179.0 415.0ZM-265.0 217.0 -268.0 88.0 194.0 89.0 198.0 217.0ZM-101.0 505.0V145.0H36.0V505.0ZM-78.0 138.0V-301.0L56.0 -298.0V138.0ZM-249.0 45.0C-249.0 -113.0 -257.0 -272.0 -305.0 -376.0C-273.0 -391.0 -216.0 -426.0 -193.0 -447.0C-138.0 -326.0 -121.0 -148.0 -118.0 35.0Z"/></g>
<g fill="red" transform="translate(700 400) scale(0.1 -0.1)"><path d="M0.0 0.0V-29.0H213.0V0.0ZM-158.0 -47.0 -183.0 -59.0C-124.0 -281.0 -17.0 -339.0 256.0 -339.0H629.0C631.0 -331.0 638.0 -317.0 644.0 -310.0C611.0 -310.0 274.0 -310.0 253.0 -310.0C4.0 -310.0 -104.0 -256.0 -158.0 -47.0ZM-220.0 396.0V367.0H209.0V396.0ZM-251.0 196.0V167.0H244.0V196.0ZM-20.0 536.0V187.0H10.0V536.0ZM-15.0 172.0V-292.0H15.0V172.0ZM-177.0 89.0C-184.0 -95.0 -203.0 -247.0 -279.0 -345.0C-272.0 -350.0 -259.0 -360.0 -254.0 -365.0C-178.0 -260.0 -154.0 -108.0 -145.0 87.0Z"/></g>
<g fill="black" opacity=".8" transform="translate(700 400) scale(0.1 -0.1)"><path d="M0.0 0.0 4.0 -30.0 216.0 -31.0 211.0 0.0ZM-158.0 -45.0 -185.0 -59.0C-122.0 -283.0 -15.0 -340.0 260.0 -340.0H629.0C631.0 -334.0 636.0 -318.0 643.0 -313.0C610.0 -313.0 278.0 -313.0 258.0 -313.0C5.0 -313.0 -103.0 -257.0 -158.0 -45.0ZM-230.0 398.0 -216.0 370.0 215.0 366.0 201.0 395.0ZM-245.0 199.0 -256.0 170.0 236.0 172.0 246.0 203.0ZM-21.0 538.0V187.0H13.0V538.0ZM-17.0 175.0V-292.0L12.0 -291.0V175.0ZM-176.0 90.0C-181.0 -80.0 -201.0 -243.0 -276.0 -350.0C-269.0 -356.0 -258.0 -363.0 -252.0 -369.0C-175.0 -255.0 -154.0 -91.0 -147.0 88.0Z"/></g>
<g fill="red" transform="translate(800 400) scale(0.1 -0.1)"><path d="M0.0 0.0V-125.0H221.0V0.0ZM-120.0 -37.0 -223.0 -65.0C-154.0 -364.0 -21.0 -411.0 234.0 -411.0H612.0C620.0 -367.0 644.0 -300.0 666.0 -267.0C562.0 -273.0 324.0 -272.0 236.0 -272.0C41.0 -272.0 -69.0 -248.0 -120.0 -37.0ZM-247.0 424.0V299.0H208.0V424.0ZM-277.0 225.0V95.0H237.0V225.0ZM-85.0 513.0V157.0H54.0V513.0ZM-72.0 150.0V-287.0H63.0V150.0ZM-243.0 55.0C-246.0 -112.0 -259.0 -277.0 -310.0 -375.0C-278.0 -388.0 -214.0 -419.0 -188.0 -437.0C-136.0 -323.0 -116.0 -145.0 -111.0 45.0Z"/></g>
<g fill="black" opacity=".8" transform="translate(800 400) scale(0.1 -0.1)"><path d="M0.0 0.0 -1.0 -129.0 218.0 -122.0 216.0 4.0ZM-129.0 -37.0 -228.0 -66.0C-158.0 -366.0 -21.0 -414.0 234.0 -414.0H611.0C620.0 -368.0 642.0 -299.0 666.0 -267.0C561.0 -271.0 324.0 -272.0 234.0 -272.0C37.0 -270.0 -72.0 -247.0 -129.0 -37.0ZM-254.0 421.0 -245.0 295.0 216.0 293.0 210.0 420.0ZM-266.0 228.0 -273.0 95.0 229.0 97.0 236.0 229.0ZM-87.0 511.0V155.0H54.0V511.0ZM-70.0 142.0V-295.0L67.0 -297.0V142.0ZM-244.0 52.0C-245.0 -104.0 -256.0 -264.0 -308.0 -368.0C-276.0 -383.0 -218.0 -419.0 -194.0 -442.0C-134.0 -320.0 -114.0 -140.0 -110.0 41.0Z"/></g>
<g fill="red" transform="translate(900 400) scale(0.1 -0.1)"><path d="M0.0 0.0V-29.0H203.0V0.0ZM-135.0 -48.0 -160.0 -60.0C-99.0 -283.0 9.0 -340.0 287.0 -340.0H668.0C670.0 -332.0 677.0 -318.0 683.0 -311.0C649.0 -311.0 305.0 -311.0 284.0 -311.0C30.0 -311.0 -80.0 -257.0 -135.0 -48.0ZM-194.0 398.0V369.0H199.0V398.0ZM-220.0 213.0V183.0H222.0V213.0ZM-13.0 535.0V200.0H16.0V535.0ZM-11.0 202.0V-279.0H18.0V202.0ZM-155.0 88.0C-160.0 -95.0 -172.0 -250.0 -239.0 -350.0C-231.0 -355.0 -218.0 -365.0 -213.0 -370.0C-145.0 -262.0 -131.0 -107.0 -124.0 86.0Z"/></g>
<g fill="black" opacity=".8" transform="translate(900 400) scale(0.1 -0.1)"><path d="M0.0 0.0 1.0 -24.0 201.0 -25.0 204.0 1.0ZM-134.0 -44.0 -160.0 -57.0C-97.0 -284.0 14.0 -339.0 289.0 -339.0H666.0C668.0 -333.0 674.0 -317.0 681.0 -312.0C647.0 -312.0 308.0 -312.0 287.0 -312.0C34.0 -312.0 -78.0 -258.0 -134.0 -44.0ZM-204.0 404.0 -191.0 376.0 205.0 373.0 193.0 403.0ZM-215.0 206.0 -223.0 177.0 216.0 178.0 223.0 209.0ZM-20.0 540.0V197.0H18.0V540.0ZM-11.0 184.0V-283.0L18.0 -282.0V184.0ZM-153.0 94.0C-158.0 -92.0 -172.0 -246.0 -237.0 -347.0C-229.0 -353.0 -217.0 -362.0 -211.0 -367.0C-145.0 -258.0 -129.0 -104.0 -123.0 91.0Z"/></g>
<g fill="red" transform="translate(1000 400) scale(0.1 -0.1)"><path d="M0.0 0.0V-125.0H190.0V0.0ZM-133.0 -42.0 -236.0 -71.0C-165.0 -368.0 -29.0 -416.0 232.0 -416.0H622.0C631.0 -372.0 655.0 -305.0 677.0 -272.0C570.0 -278.0 325.0 -278.0 233.0 -277.0C33.0 -277.0 -80.0 -253.0 -133.0 -42.0ZM-243.0 417.0V292.0H172.0V417.0ZM-272.0 218.0V91.0H197.0V218.0ZM-107.0 510.0V154.0H29.0V510.0ZM-77.0 138.0V-299.0H56.0V138.0ZM-246.0 45.0C-247.0 -125.0 -257.0 -295.0 -302.0 -397.0C-270.0 -410.0 -206.0 -440.0 -180.0 -457.0C-134.0 -339.0 -118.0 -155.0 -114.0 35.0Z"/></g>
<g fill="black" opacity=".8" transform="translate(1000 400) scale(0.1 -0.1)"><path d="M0.0 0.0 8.0 -128.0 188.0 -125.0 195.0 0.0ZM-135.0 -42.0 -230.0 -70.0C-163.0 -376.0 -29.0 -422.0 228.0 -422.0H626.0C634.0 -377.0 656.0 -309.0 680.0 -276.0C572.0 -281.0 321.0 -282.0 228.0 -282.0C27.0 -281.0 -79.0 -258.0 -135.0 -42.0ZM-253.0 418.0 -238.0 291.0 181.0 289.0 175.0 416.0ZM-265.0 222.0 -269.0 90.0 190.0 91.0 194.0 222.0ZM-106.0 508.0V156.0H35.0V508.0ZM-83.0 140.0V-303.0L54.0 -299.0V140.0ZM-249.0 49.0C-250.0 -119.0 -257.0 -283.0 -302.0 -386.0C-269.0 -401.0 -208.0 -434.0 -184.0 -453.0C-136.0 -334.0 -119.0 -152.0 -116.0 39.0Z"/></g>
<g fill="red" transform="translate(1100 400) scale(0.1 -0.1)"><path d="M0.0 0.0V-29.0H186.0V0.0ZM-112.0 -47.0 -133.0 -58.0C-59.0 -296.0 100.0 -335.0 358.0 -335.0H675.0C677.0 -327.0 684.0 -313.0 690.0 -306.0C656.0 -306.0 380.0 -306.0 359.0 -306.0C117.0 -306.0 -43.0 -271.0 -112.0 -47.0ZM-172.0 395.0V366.0H177.0V395.0ZM-205.0 202.0V173.0H202.0V202.0ZM-10.0 541.0V188.0H19.0V541.0ZM-11.0 184.0V-245.0H18.0V184.0ZM-131.0 95.0C-136.0 -86.0 -149.0 -237.0 -218.0 -335.0C-210.0 -340.0 -197.0 -351.0 -192.0 -355.0C-123.0 -250.0 -106.0 -99.0 -100.0 93.0Z"/></g>
<g fill="black" opacity=".8" transform="translate(1100 400) scale(0.1 -0.1)"><path d="M0.0 0.0 -5.0 -26.0 178.0 -19.0 188.0 8.0ZM-108.0 -48.0 -130.0 -60.0C-60.0 -295.0 89.0 -334.0 347.0 -334.0H681.0C683.0 -328.0 689.0 -312.0 695.0 -307.0C661.0 -307.0 369.0 -307.0 348.0 -307.0C106.0 -307.0 -43.0 -270.0 -108.0 -48.0ZM-163.0 388.0 -179.0 358.0 164.0 364.0 181.0 395.0ZM-218.0 206.0 -207.0 179.0 212.0 176.0 200.0 205.0ZM-6.0 542.0V190.0H18.0V542.0ZM-8.0 187.0V-250.0L21.0 -249.0V187.0ZM-124.0 96.0C-130.0 -90.0 -147.0 -242.0 -217.0 -338.0C-209.0 -343.0 -198.0 -353.0 -192.0 -358.0C-121.0 -254.0 -102.0 -103.0 -94.0 94.0Z"/></g>
<g fill="red" transform="translate(1200 400) scale(0.1 -0.1)"><path d="M0.0 0.0V-124.0H158.0V0.0ZM-118.0 -67.0 -209.0 -96.0C-129.0 -384.0 21.0 -429.0 274.0 -429.0H636.0C644.0 -388.0 667.0 -324.0 688.0 -293.0C594.0 -298.0 356.0 -298.0 275.0 -298.0C76.0 -298.0 -52.0 -275.0 -118.0 -67.0ZM-231.0 404.0V280.0H157.0V404.0ZM-254.0 207.0V82.0H170.0V207.0ZM-99.0 502.0V146.0H32.0V502.0ZM-71.0 127.0V-319.0H59.0V127.0ZM-225.0 37.0C-225.0 -127.0 -231.0 -283.0 -287.0 -377.0C-259.0 -393.0 -207.0 -434.0 -187.0 -454.0C-121.0 -340.0 -106.0 -165.0 -103.0 30.0Z"/></g>
<g fill="black" opacity=".8" transform="translate(1200 400) scale(0.1 -0.1)"><path d="M0.0 0.0 14.0 -124.0 157.0 -125.0 158.0 -3.0ZM-121.0 -68.0 -204.0 -96.0C-128.0 -385.0 22.0 -428.0 272.0 -428.0H637.0C644.0 -388.0 665.0 -327.0 686.0 -299.0C594.0 -302.0 350.0 -303.0 272.0 -303.0C70.0 -302.0 -55.0 -280.0 -121.0 -68.0ZM-220.0 400.0 -218.0 273.0 146.0 274.0 154.0 401.0ZM-266.0 205.0 -258.0 86.0H185.0L178.0 205.0ZM-97.0 505.0V147.0H31.0V505.0ZM-73.0 137.0V-307.0H58.0V137.0ZM-225.0 39.0C-226.0 -124.0 -235.0 -281.0 -289.0 -376.0C-260.0 -393.0 -208.0 -430.0 -188.0 -449.0C-126.0 -337.0 -106.0 -162.0 -100.0 31.0Z"/></g>
<g fill="red" transform="translate(1300 400) scale(0.1 -0.1)"><path d="M0.0 0.0V-29.0H172.0V0.0ZM-128.0 -47.0 -153.0 -59.0C-93.0 -282.0 16.0 -339.0 294.0 -339.0H675.0C677.0 -331.0 684.0 -317.0 690.0 -310.0C656.0 -310.0 312.0 -310.0 291.0 -310.0C37.0 -310.0 -73.0 -256.0 -128.0 -47.0ZM-194.0 397.0V368.0H159.0V397.0ZM-225.0 197.0V168.0H182.0V197.0ZM-15.0 536.0V183.0H14.0V536.0ZM-15.0 173.0V-273.0H14.0V173.0ZM-147.0 91.0C-147.0 -40.0 -159.0 -219.0 -240.0 -344.0C-232.0 -347.0 -222.0 -354.0 -216.0 -360.0C-133.0 -231.0 -121.0 -49.0 -120.0 89.0Z"/></g>
<g fill="black" opacity=".8" transform="translate(1300 400) scale(0.1 -0.1)"><path d="M0.0 0.0 13.0 -31.0H177.0L163.0 1.0ZM-131.0 -42.0 -156.0 -55.0C-95.0 -276.0 15.0 -330.0 289.0 -330.0H672.0C674.0 -323.0 680.0 -308.0 686.0 -303.0C652.0 -303.0 308.0 -303.0 288.0 -303.0C35.0 -303.0 -76.0 -251.0 -131.0 -42.0ZM-192.0 396.0 -197.0 367.0 160.0 369.0 164.0 399.0ZM-227.0 198.0 -219.0 171.0 193.0 169.0 185.0 197.0ZM-17.0 538.0V181.0H9.0V538.0ZM-14.0 177.0V-267.0L14.0 -265.0V177.0ZM-150.0 94.0C-154.0 -71.0 -170.0 -232.0 -240.0 -340.0C-232.0 -345.0 -222.0 -352.0 -216.0 -358.0C-144.0 -244.0 -127.0 -82.0 -122.0 92.0Z"/></g>
<g fill="red" transform="translate(1400 400) scale(0.1 -0.1)"><path d="M0.0 0.0V-125.0H172.0V0.0ZM-112.0 -40.0 -203.0 -66.0C-135.0 -366.0 -2.0 -414.0 255.0 -414.0H647.0C655.0 -370.0 680.0 -302.0 702.0 -270.0C596.0 -276.0 347.0 -275.0 255.0 -276.0C51.0 -276.0 -55.0 -252.0 -112.0 -40.0ZM-221.0 418.0V293.0H162.0V418.0ZM-242.0 219.0V92.0H182.0V219.0ZM-93.0 509.0V153.0H40.0V509.0ZM-64.0 148.0V-289.0H64.0V148.0ZM-216.0 48.0C-214.0 -83.0 -222.0 -234.0 -275.0 -349.0C-245.0 -363.0 -198.0 -404.0 -177.0 -432.0C-107.0 -292.0 -94.0 -119.0 -95.0 39.0Z"/></g>
<g fill="black" opacity=".8" transform="translate(1400 400) scale(0.1 -0.1)"><path d="M0.0 0.0 7.0 -121.0 170.0 -116.0 158.0 2.0ZM-111.0 -38.0 -200.0 -65.0C-131.0 -364.0 6.0 -408.0 262.0 -408.0H653.0C661.0 -365.0 682.0 -301.0 705.0 -270.0C601.0 -274.0 350.0 -275.0 261.0 -276.0C58.0 -274.0 -53.0 -252.0 -111.0 -38.0ZM-223.0 417.0V293.0H163.0L166.0 417.0ZM-247.0 217.0 -242.0 95.0H180.0L175.0 217.0ZM-87.0 506.0V152.0H43.0V506.0ZM-62.0 148.0V-291.0L67.0 -285.0V148.0ZM-221.0 51.0C-220.0 -101.0 -226.0 -256.0 -274.0 -360.0C-244.0 -375.0 -191.0 -411.0 -170.0 -433.0C-112.0 -311.0 -97.0 -135.0 -95.0 41.0Z"/></g>
<g fill="red" transform="translate(1500 400) scale(0.1 -0.1)"><path d="M0.0 0.0V-29.0H190.0V0.0ZM-126.0 -47.0 -151.0 -59.0C-91.0 -281.0 16.0 -339.0 290.0 -339.0H665.0C667.0 -331.0 674.0 -317.0 680.0 -310.0C647.0 -310.0 308.0 -310.0 287.0 -310.0C37.0 -310.0 -72.0 -256.0 -126.0 -47.0ZM-186.0 397.0V368.0H186.0V397.0ZM-224.0 197.0V168.0H213.0V197.0ZM-17.0 536.0V183.0H12.0V536.0ZM-17.0 173.0V-273.0H12.0V173.0ZM-143.0 91.0C-151.0 -88.0 -167.0 -246.0 -231.0 -347.0C-223.0 -353.0 -211.0 -363.0 -206.0 -368.0C-141.0 -260.0 -122.0 -100.0 -112.0 89.0Z"/></g>
<g fill="black" opacity=".8" transform="translate(1500 400) scale(0.1 -0.1)"><path d="M0.0 0.0V-30.0L184.0 -28.0V4.0ZM-128.0 -47.0 -153.0 -60.0C-92.0 -284.0 19.0 -339.0 291.0 -339.0H668.0C670.0 -332.0 676.0 -317.0 682.0 -312.0C649.0 -312.0 310.0 -312.0 290.0 -312.0C38.0 -312.0 -73.0 -259.0 -128.0 -47.0ZM-189.0 395.0 -190.0 366.0H187.0L188.0 397.0ZM-219.0 200.0 -221.0 171.0H211.0L212.0 201.0ZM-10.0 539.0V183.0H18.0V539.0ZM-11.0 175.0V-278.0L17.0 -277.0V175.0ZM-147.0 90.0C-152.0 -83.0 -168.0 -242.0 -237.0 -348.0C-229.0 -353.0 -219.0 -361.0 -213.0 -367.0C-141.0 -254.0 -124.0 -94.0 -118.0 88.0Z"/></g>
<g fill="red" transform="translate(1600 400) scale(0.1 -0.1)"><path d="M0.0 0.0V-125.0H176.0V0.0ZM-111.0 -40.0 -196.0 -64.0C-132.0 -372.0 2.0 -419.0 255.0 -419.0H647.0C655.0 -377.0 678.0 -313.0 699.0 -282.0C599.0 -288.0 343.0 -287.0 256.0 -288.0C52.0 -288.0 -56.0 -265.0 -111.0 -40.0ZM-226.0 416.0V291.0H189.0V416.0ZM-246.0 217.0V90.0H200.0V217.0ZM-78.0 509.0V153.0H58.0V509.0ZM-60.0 144.0V-293.0H73.0V144.0ZM-224.0 44.0C-226.0 -110.0 -233.0 -266.0 -276.0 -361.0C-247.0 -380.0 -193.0 -424.0 -172.0 -446.0C-116.0 -331.0 -99.0 -151.0 -93.0 32.0Z"/></g>
<g fill="black" opacity=".8" transform="translate(1600 400) scale(0.1 -0.1)"><path d="M0.0 0.0 1.0 -127.0 178.0 -122.0 177.0 2.0ZM-110.0 -45.0 -202.0 -73.0C-134.0 -373.0 2.0 -418.0 256.0 -418.0H645.0C653.0 -375.0 675.0 -309.0 698.0 -277.0C594.0 -282.0 346.0 -283.0 256.0 -283.0C56.0 -281.0 -53.0 -259.0 -110.0 -45.0ZM-222.0 416.0 -220.0 289.0 186.0 288.0 187.0 415.0ZM-245.0 220.0 -246.0 92.0 197.0 94.0 198.0 220.0ZM-83.0 507.0V150.0H51.0V507.0ZM-64.0 141.0V-300.0L69.0 -296.0V141.0ZM-223.0 46.0C-222.0 -112.0 -229.0 -269.0 -277.0 -373.0C-246.0 -388.0 -190.0 -424.0 -168.0 -445.0C-112.0 -323.0 -96.0 -147.0 -94.0 36.0Z"/></g>
<g fill="red" transform="translate(100 500) scale(0.1 -0.1)"><path d="M0.0 0.0V-29.0H296.0V0.0ZM-420.0 -106.0 -441.0 -116.0C-367.0 -355.0 -205.0 -394.0 55.0 -394.0H375.0C377.0 -386.0 384.0 -372.0 390.0 -364.0C356.0 -364.0 77.0 -364.0 55.0 -364.0C-187.0 -364.0 -350.0 -330.0 -420.0 -106.0ZM-478.0 353.0V324.0H-97.0V353.0ZM-507.0 166.0V136.0H-70.0V166.0ZM-299.0 490.0V155.0H-270.0V490.0ZM-292.0 141.0V-322.0H-263.0V141.0ZM-436.0 44.0C-440.0 -138.0 -449.0 -291.0 -515.0 -390.0C-507.0 -395.0 -494.0 -406.0 -489.0 -410.0C-423.0 -303.0 -410.0 -150.0 -405.0 42.0Z"/></g>
<g fill="black" opacity=".8" transform="translate(100 500) scale(0.1 -0.1)"><path d="M0.0 0.0 -5.0 -26.0 292.0 -13.0 295.0 15.0ZM-417.0 -102.0 -439.0 -114.0C-363.0 -354.0 -201.0 -391.0 58.0 -391.0H376.0C378.0 -384.0 385.0 -369.0 390.0 -364.0C356.0 -364.0 81.0 -364.0 59.0 -364.0C-184.0 -364.0 -347.0 -328.0 -417.0 -102.0ZM-476.0 352.0V322.0L-96.0 323.0V353.0ZM-507.0 154.0 -501.0 125.0 -72.0 123.0 -80.0 153.0ZM-302.0 488.0V142.0H-266.0V488.0ZM-296.0 147.0V-311.0L-268.0 -310.0V147.0ZM-434.0 41.0C-439.0 -154.0 -453.0 -302.0 -519.0 -393.0C-510.0 -399.0 -499.0 -410.0 -493.0 -414.0C-426.0 -314.0 -409.0 -167.0 -403.0 38.0Z"/></g>
<g fill="red" transform="translate(200 500) scale(0.1 -0.1)"><path d="M0.0 0.0V-114.0H235.0V0.0ZM-440.0 -135.0 -533.0 -164.0C-453.0 -455.0 -302.0 -501.0 -48.0 -501.0H313.0C321.0 -458.0 344.0 -392.0 366.0 -361.0C270.0 -366.0 36.0 -366.0 -47.0 -366.0C-247.0 -366.0 -374.0 -343.0 -440.0 -135.0ZM-542.0 341.0V216.0H-150.0V341.0ZM-578.0 140.0V13.0H-118.0V140.0ZM-409.0 432.0V76.0H-276.0V432.0ZM-386.0 69.0V-377.0H-255.0V69.0ZM-547.0 -31.0C-547.0 -195.0 -553.0 -351.0 -609.0 -445.0C-581.0 -461.0 -529.0 -502.0 -509.0 -522.0C-443.0 -408.0 -428.0 -233.0 -425.0 -38.0Z"/></g>
<g fill="black" opacity=".8" transform="translate(200 500) scale(0.1 -0.1)"><path d="M0.0 0.0 -7.0 -112.0 240.0 -99.0 237.0 11.0ZM-442.0 -131.0 -533.0 -161.0C-454.0 -452.0 -302.0 -496.0 -49.0 -496.0H314.0C322.0 -453.0 343.0 -389.0 365.0 -358.0C270.0 -362.0 33.0 -363.0 -48.0 -362.0C-249.0 -361.0 -376.0 -340.0 -442.0 -131.0ZM-545.0 347.0 -542.0 228.0 -149.0 227.0 -148.0 347.0ZM-581.0 138.0 -577.0 13.0H-115.0L-119.0 136.0ZM-406.0 441.0V75.0H-270.0V441.0ZM-384.0 75.0V-371.0H-251.0V75.0ZM-547.0 -25.0C-549.0 -198.0 -559.0 -361.0 -613.0 -455.0C-583.0 -471.0 -529.0 -506.0 -507.0 -522.0C-448.0 -414.0 -427.0 -234.0 -421.0 -34.0Z"/></g>
<g fill="red" transform="translate(300 500) scale(0.1 -0.1)"><path d="M0.0 0.0H315.0V-245.0H0.0ZM-417.0 -117.0 -442.0 -129.0C-380.0 -352.0 -272.0 -409.0 7.0 -409.0H390.0C392.0 -401.0 399.0 -387.0 405.0 -380.0C371.0 -380.0 26.0 -380.0 4.0 -380.0C-251.0 -380.0 -362.0 -326.0 -417.0 -117.0ZM-70.0 418.0V389.0H350.0V418.0ZM-495.0 142.0V112.0H-79.0V142.0ZM-304.0 466.0V126.0H-275.0V466.0ZM-296.0 119.0V-348.0H-267.0V119.0ZM-437.0 19.0C-441.0 -163.0 -452.0 -318.0 -516.0 -419.0C-508.0 -424.0 -496.0 -434.0 -491.0 -439.0C-425.0 -331.0 -412.0 -175.0 -406.0 17.0Z"/></g>
<g fill="black" opacity=".8" transform="translate(300 500) scale(0.1 -0.1)"><path d="M0.0 0.0 308.0 3.0 310.0 -240.0 5.0 -242.0ZM-416.0 -114.0 -442.0 -128.0C-378.0 -355.0 -272.0 -410.0 8.0 -410.0H391.0C393.0 -403.0 399.0 -387.0 406.0 -384.0C370.0 -384.0 27.0 -384.0 5.0 -384.0C-250.0 -384.0 -361.0 -327.0 -416.0 -114.0ZM-76.0 412.0 -60.0 384.0 362.0 380.0 345.0 410.0ZM-490.0 146.0 -493.0 115.0H-83.0L-81.0 147.0ZM-308.0 466.0V122.0H-267.0V466.0ZM-295.0 129.0V-350.0L-266.0 -349.0V129.0ZM-437.0 24.0C-440.0 -155.0 -455.0 -317.0 -521.0 -424.0C-512.0 -429.0 -502.0 -437.0 -495.0 -443.0C-427.0 -329.0 -412.0 -167.0 -406.0 23.0Z"/></g>
<g fill="red" transform="translate(400 500) scale(0.1 -0.1)"><path d="M0.0 0.0H120.0V-90.0H0.0ZM-483.0 -18.0 -586.0 -47.0C-515.0 -344.0 -379.0 -392.0 -116.0 -392.0H276.0C285.0 -348.0 309.0 -281.0 331.0 -248.0C224.0 -254.0 -23.0 -254.0 -115.0 -253.0C-316.0 -253.0 -430.0 -229.0 -483.0 -18.0ZM-156.0 499.0V379.0H227.0V499.0ZM-615.0 242.0V115.0H-169.0V242.0ZM-452.0 532.0V176.0H-319.0V532.0ZM-430.0 168.0V-269.0H-302.0V168.0ZM-591.0 76.0C-591.0 -92.0 -598.0 -255.0 -646.0 -354.0C-615.0 -366.0 -554.0 -398.0 -530.0 -415.0C-480.0 -300.0 -467.0 -122.0 -465.0 68.0Z"/></g>
<g fill="black" opacity=".8" transform="translate(400 500) scale(0.1 -0.1)"><path d="M0.0 0.0 129.0 3.0 118.0 -91.0 -5.0 -96.0ZM-482.0 -15.0 -586.0 -47.0C-514.0 -348.0 -375.0 -394.0 -114.0 -394.0H275.0C284.0 -348.0 306.0 -280.0 330.0 -245.0C222.0 -251.0 -23.0 -251.0 -113.0 -251.0C-313.0 -250.0 -427.0 -227.0 -482.0 -15.0ZM-161.0 493.0 -159.0 381.0 231.0 380.0 223.0 492.0ZM-607.0 248.0 -610.0 116.0 -179.0 117.0 -178.0 247.0ZM-455.0 533.0V167.0H-318.0V533.0ZM-430.0 175.0V-268.0L-300.0 -267.0V175.0ZM-592.0 78.0C-591.0 -89.0 -598.0 -252.0 -648.0 -356.0C-616.0 -370.0 -558.0 -400.0 -536.0 -420.0C-481.0 -299.0 -465.0 -120.0 -465.0 70.0Z"/></g>
<g fill="red" transform="translate(500 500) scale(0.1 -0.1)"><path d="M0.0 0.0V-29.0H353.0V0.0ZM-384.0 113.0 -409.0 101.0C-347.0 -122.0 -239.0 -179.0 40.0 -179.0H423.0C425.0 -171.0 432.0 -157.0 438.0 -150.0C404.0 -150.0 59.0 -150.0 37.0 -150.0C-218.0 -150.0 -329.0 -96.0 -384.0 113.0ZM-438.0 557.0V528.0H-63.0V557.0ZM-462.0 357.0V328.0H-38.0V357.0ZM153.0 694.0V262.0H183.0V694.0ZM-263.0 333.0V-117.0H-234.0V333.0ZM-404.0 249.0C-408.0 67.0 -419.0 -88.0 -483.0 -189.0C-475.0 -194.0 -463.0 -204.0 -458.0 -209.0C-392.0 -101.0 -379.0 55.0 -373.0 247.0Z"/></g>
<g fill="black" opacity=".8" transform="translate(500 500) scale(0.1 -0.1)"><path d="M0.0 0.0 5.0 -40.0 355.0 -44.0 350.0 -3.0ZM-384.0 112.0 -409.0 99.0C-348.0 -122.0 -240.0 -175.0 37.0 -175.0H424.0C426.0 -169.0 432.0 -154.0 438.0 -149.0C404.0 -149.0 57.0 -149.0 36.0 -149.0C-220.0 -149.0 -331.0 -95.0 -384.0 112.0ZM-433.0 563.0 -449.0 533.0 -68.0 539.0 -53.0 569.0ZM-459.0 353.0 -468.0 324.0 -37.0 327.0 -27.0 356.0ZM156.0 697.0V275.0H177.0V697.0ZM-264.0 318.0V-118.0L-238.0 -116.0V318.0ZM-404.0 243.0C-405.0 67.0 -416.0 -87.0 -478.0 -187.0C-469.0 -192.0 -460.0 -201.0 -453.0 -205.0C-389.0 -99.0 -379.0 55.0 -375.0 241.0Z"/></g>
<g fill="red" transform="translate(600 500) scale(0.1 -0.1)"><path d="M0.0 0.0V-127.0H289.0V0.0ZM-397.0 43.0 -500.0 14.0C-429.0 -283.0 -293.0 -331.0 -30.0 -331.0H362.0C371.0 -287.0 395.0 -220.0 417.0 -187.0C310.0 -193.0 63.0 -193.0 -29.0 -192.0C-230.0 -192.0 -344.0 -168.0 -397.0 43.0ZM-510.0 502.0V377.0H-104.0V502.0ZM-531.0 303.0V176.0H-89.0V303.0ZM63.0 591.0V145.0H200.0V591.0ZM-346.0 224.0V-213.0H-218.0V224.0ZM-509.0 130.0C-511.0 -37.0 -523.0 -212.0 -559.0 -316.0C-528.0 -327.0 -467.0 -353.0 -441.0 -369.0C-404.0 -251.0 -387.0 -65.0 -383.0 118.0Z"/></g>
<g fill="black" opacity=".8" transform="translate(600 500) scale(0.1 -0.1)"><path d="M0.0 0.0 -5.0 -130.0 290.0 -126.0 292.0 1.0ZM-401.0 40.0 -499.0 10.0C-428.0 -284.0 -290.0 -328.0 -29.0 -328.0H366.0C376.0 -285.0 396.0 -220.0 421.0 -188.0C312.0 -193.0 63.0 -194.0 -29.0 -193.0C-232.0 -193.0 -346.0 -170.0 -401.0 40.0ZM-502.0 507.0 -515.0 378.0 -110.0 379.0 -103.0 508.0ZM-529.0 298.0 -535.0 171.0 -88.0 173.0 -83.0 297.0ZM64.0 588.0V155.0H197.0V588.0ZM-349.0 208.0V-218.0L-222.0 -213.0V208.0ZM-510.0 121.0C-510.0 -40.0 -520.0 -210.0 -557.0 -314.0C-525.0 -325.0 -469.0 -349.0 -444.0 -365.0C-405.0 -249.0 -389.0 -67.0 -386.0 111.0Z"/></g>
<g fill="red" transform="translate(700 500) scale(0.1 -0.1)"><path d="M0.0 0.0V-29.0H182.0V0.0ZM-140.0 -48.0 -165.0 -60.0C-103.0 -283.0 9.0 -340.0 285.0 -340.0H659.0C661.0 -332.0 668.0 -318.0 674.0 -311.0C640.0 -311.0 304.0 -311.0 283.0 -311.0C30.0 -311.0 -84.0 -258.0 -140.0 -48.0ZM221.0 346.0V317.0H672.0V346.0ZM-235.0 196.0V167.0H193.0V196.0ZM-25.0 535.0V182.0H4.0V535.0ZM-15.0 172.0V-278.0H14.0V172.0ZM-161.0 88.0C-160.0 -42.0 -169.0 -221.0 -245.0 -347.0C-238.0 -350.0 -228.0 -357.0 -222.0 -363.0C-143.0 -233.0 -134.0 -51.0 -134.0 87.0Z"/></g>
<g fill="black" opacity=".8" transform="translate(700 500) scale(0.1 -0.1)"><path d="M0.0 0.0 -18.0 -41.0 181.0 -31.0 196.0 12.0ZM-136.0 -54.0 -161.0 -68.0C-99.0 -281.0 9.0 -337.0 285.0 -337.0H663.0C665.0 -330.0 671.0 -315.0 678.0 -311.0C644.0 -311.0 304.0 -311.0 283.0 -311.0C29.0 -311.0 -81.0 -257.0 -136.0 -54.0ZM237.0 356.0 214.0 325.0 669.0 332.0 688.0 363.0ZM-242.0 176.0 -234.0 149.0 201.0 147.0 193.0 174.0ZM-21.0 535.0V192.0H-1.0V535.0ZM-21.0 153.0V-276.0L6.0 -274.0V153.0ZM-155.0 73.0C-154.0 -57.0 -168.0 -228.0 -244.0 -345.0C-238.0 -348.0 -229.0 -355.0 -223.0 -361.0C-143.0 -240.0 -130.0 -67.0 -129.0 72.0Z"/></g>
<g fill="red" transform="translate(800 500) scale(0.1 -0.1)"><path d="M0.0 0.0V-125.0H181.0V0.0ZM-91.0 -45.0 -193.0 -76.0C-111.0 -371.0 42.0 -419.0 303.0 -419.0H664.0C673.0 -375.0 697.0 -308.0 719.0 -275.0C619.0 -280.0 390.0 -280.0 305.0 -280.0C104.0 -280.0 -27.0 -255.0 -91.0 -45.0ZM224.0 355.0V235.0H697.0V355.0ZM-234.0 220.0V93.0H203.0V220.0ZM-73.0 505.0V145.0H60.0V505.0ZM-47.0 146.0V-309.0H83.0V146.0ZM-204.0 44.0C-198.0 -93.0 -202.0 -242.0 -263.0 -353.0C-234.0 -367.0 -187.0 -412.0 -169.0 -442.0C-88.0 -306.0 -78.0 -129.0 -83.0 37.0Z"/></g>
<g fill="black" opacity=".8" transform="translate(800 500) scale(0.1 -0.1)"><path d="M0.0 0.0 -25.0 -130.0 186.0 -126.0 198.0 0.0ZM-91.0 -46.0 -186.0 -76.0C-108.0 -367.0 41.0 -411.0 300.0 -411.0H668.0C677.0 -369.0 697.0 -306.0 720.0 -275.0C621.0 -279.0 385.0 -280.0 301.0 -280.0C97.0 -279.0 -28.0 -255.0 -91.0 -46.0ZM238.0 369.0 210.0 257.0 679.0 258.0 688.0 370.0ZM-242.0 206.0 -238.0 86.0H213.0L208.0 206.0ZM-69.0 512.0V163.0H59.0V512.0ZM-54.0 135.0V-299.0L75.0 -298.0V135.0ZM-202.0 39.0C-197.0 -93.0 -204.0 -240.0 -263.0 -347.0C-233.0 -363.0 -187.0 -403.0 -169.0 -430.0C-93.0 -302.0 -78.0 -128.0 -80.0 31.0Z"/></g>
<g fill="red" transform="translate(900 500) scale(0.1 -0.1)"><path d="M0.0 0.0 -29.0 -30.0H239.0V0.0ZM-554.0 -166.0 -575.0 -177.0C-501.0 -415.0 -339.0 -454.0 -79.0 -454.0H241.0C243.0 -446.0 250.0 -432.0 256.0 -425.0C222.0 -425.0 -57.0 -425.0 -79.0 -425.0C-321.0 -425.0 -484.0 -390.0 -554.0 -166.0ZM-606.0 276.0V247.0H-230.0V276.0ZM-639.0 83.0V54.0H-206.0V83.0ZM-433.0 422.0V69.0H-404.0V422.0ZM-428.0 59.0V-382.0H-399.0V59.0ZM-575.0 -24.0C-580.0 -209.0 -593.0 -363.0 -663.0 -462.0C-655.0 -467.0 -642.0 -477.0 -637.0 -482.0C-566.0 -375.0 -550.0 -221.0 -544.0 -26.0Z"/></g>
<g fill="black" opacity=".8" transform="translate(900 500) scale(0.1 -0.1)"><path d="M0.0 0.0 -25.0 -36.0 231.0 -33.0 236.0 5.0ZM-556.0 -171.0 -577.0 -182.0C-502.0 -416.0 -342.0 -453.0 -81.0 -453.0H244.0C245.0 -446.0 252.0 -431.0 258.0 -427.0C224.0 -427.0 -59.0 -427.0 -80.0 -427.0C-324.0 -427.0 -486.0 -391.0 -556.0 -171.0ZM-599.0 273.0 -613.0 243.0 -229.0 246.0 -218.0 277.0ZM-628.0 80.0 -651.0 50.0 -214.0 55.0 -193.0 86.0ZM-435.0 426.0V78.0H-398.0V426.0ZM-428.0 60.0V-376.0L-399.0 -374.0V60.0ZM-576.0 -28.0C-579.0 -205.0 -594.0 -359.0 -663.0 -461.0C-655.0 -466.0 -644.0 -475.0 -638.0 -480.0C-567.0 -372.0 -551.0 -216.0 -546.0 -31.0Z"/></g>
<g fill="red" transform="translate(1000 500) scale(0.1 -0.1)"><path d="M0.0 0.0 -95.0 -106.0H176.0V0.0ZM-537.0 -164.0 -630.0 -193.0C-550.0 -484.0 -399.0 -530.0 -145.0 -530.0H216.0C224.0 -487.0 247.0 -421.0 269.0 -390.0C173.0 -395.0 -61.0 -395.0 -144.0 -395.0C-344.0 -395.0 -471.0 -372.0 -537.0 -164.0ZM-639.0 308.0V183.0H-238.0V308.0ZM-675.0 109.0V-18.0H-224.0V109.0ZM-506.0 399.0V43.0H-373.0V399.0ZM-489.0 33.0V-413.0H-358.0V33.0ZM-644.0 -64.0C-644.0 -228.0 -650.0 -384.0 -706.0 -478.0C-678.0 -494.0 -626.0 -535.0 -606.0 -555.0C-540.0 -441.0 -525.0 -266.0 -522.0 -71.0Z"/></g>
<g fill="black" opacity=".8" transform="translate(1000 500) scale(0.1 -0.1)"><path d="M0.0 0.0 -64.0 -105.0 180.0 -97.0 177.0 6.0ZM-538.0 -169.0 -627.0 -198.0C-549.0 -487.0 -399.0 -531.0 -147.0 -531.0H218.0C226.0 -487.0 247.0 -422.0 270.0 -391.0C172.0 -395.0 -64.0 -396.0 -147.0 -396.0C-347.0 -395.0 -471.0 -374.0 -538.0 -169.0ZM-634.0 309.0 -647.0 186.0 -245.0 187.0 -239.0 310.0ZM-665.0 109.0 -679.0 -24.0 -230.0 -22.0 -216.0 109.0ZM-509.0 400.0V37.0H-374.0V400.0ZM-486.0 34.0V-407.0L-359.0 -404.0V34.0ZM-644.0 -74.0C-644.0 -231.0 -648.0 -381.0 -703.0 -477.0C-676.0 -493.0 -627.0 -534.0 -608.0 -556.0C-541.0 -441.0 -525.0 -269.0 -523.0 -82.0Z"/></g>
<g fill="red" transform="translate(1100 500) scale(0.1 -0.1)"><path d="M0.0 0.0V-29.0H178.0V0.0ZM-102.0 -55.0 -123.0 -66.0C-61.0 -302.0 76.0 -343.0 331.0 -343.0H697.0C699.0 -335.0 706.0 -321.0 712.0 -314.0C678.0 -314.0 353.0 -314.0 331.0 -314.0C94.0 -314.0 -43.0 -278.0 -102.0 -55.0ZM170.0 476.0V447.0H377.0V476.0ZM-197.0 194.0V165.0H187.0V194.0ZM-9.0 533.0V180.0H21.0V533.0ZM-8.0 171.0V-253.0H22.0V171.0ZM-119.0 97.0C-125.0 -94.0 -141.0 -252.0 -215.0 -354.0C-208.0 -359.0 -196.0 -369.0 -191.0 -374.0C-114.0 -265.0 -96.0 -107.0 -88.0 95.0Z"/></g>
<g fill="black" opacity=".8" transform="translate(1100 500) scale(0.1 -0.1)"><path d="M0.0 0.0 9.0 -25.0 181.0 -41.0 172.0 -15.0ZM-103.0 -51.0 -127.0 -63.0C-62.0 -304.0 75.0 -347.0 334.0 -347.0H695.0C698.0 -339.0 704.0 -323.0 710.0 -318.0C675.0 -318.0 356.0 -318.0 335.0 -318.0C93.0 -318.0 -43.0 -278.0 -103.0 -51.0ZM171.0 463.0 187.0 434.0 392.0 430.0 375.0 460.0ZM-193.0 209.0 -199.0 179.0 180.0 180.0 186.0 211.0ZM-16.0 532.0V179.0H25.0V532.0ZM-9.0 192.0V-249.0H22.0V192.0ZM-124.0 101.0C-128.0 -76.0 -144.0 -242.0 -217.0 -355.0C-209.0 -359.0 -198.0 -368.0 -192.0 -373.0C-116.0 -254.0 -100.0 -88.0 -94.0 99.0Z"/></g>
<g fill="red" transform="translate(1200 500) scale(0.1 -0.1)"><path d="M0.0 0.0V-116.0H149.0V0.0ZM-99.0 -89.0 -176.0 -114.0C-101.0 -399.0 51.0 -440.0 299.0 -440.0H670.0C677.0 -405.0 697.0 -350.0 715.0 -323.0C631.0 -328.0 371.0 -327.0 301.0 -327.0C97.0 -327.0 -35.0 -306.0 -99.0 -89.0ZM184.0 458.0V340.0H369.0V458.0ZM-228.0 200.0V83.0H182.0V200.0ZM-81.0 495.0V139.0H44.0V495.0ZM-56.0 132.0V-314.0H69.0V132.0ZM-202.0 32.0C-201.0 -132.0 -206.0 -287.0 -259.0 -382.0C-233.0 -398.0 -183.0 -436.0 -164.0 -455.0C-100.0 -341.0 -88.0 -168.0 -85.0 26.0Z"/></g>
<g fill="black" opacity=".8" transform="translate(1200 500) scale(0.1 -0.1)"><path d="M0.0 0.0 3.0 -113.0 144.0 -124.0 138.0 -12.0ZM-96.0 -85.0 -180.0 -113.0C-103.0 -408.0 49.0 -450.0 299.0 -450.0H668.0C675.0 -410.0 695.0 -351.0 716.0 -322.0C627.0 -325.0 374.0 -326.0 300.0 -326.0C98.0 -325.0 -30.0 -303.0 -96.0 -85.0ZM170.0 447.0V335.0L372.0 333.0L364.0 446.0ZM-215.0 210.0 -219.0 84.0 173.0 86.0 177.0 210.0ZM-82.0 489.0V124.0H48.0V489.0ZM-48.0 145.0V-316.0L81.0 -317.0V145.0ZM-204.0 30.0C-199.0 -130.0 -204.0 -284.0 -260.0 -388.0C-233.0 -405.0 -185.0 -446.0 -168.0 -469.0C-96.0 -344.0 -83.0 -168.0 -83.0 24.0Z"/></g>
<g fill="red" transform="translate(1300 500) scale(0.1 -0.1)"><path d="M0.0 0.0V-30.0H195.0V0.0ZM-266.0 -83.0 -287.0 -94.0C-216.0 -317.0 -64.0 -355.0 192.0 -355.0H529.0C531.0 -346.0 538.0 -334.0 544.0 -325.0C510.0 -325.0 216.0 -325.0 193.0 -325.0C-46.0 -325.0 -199.0 -293.0 -266.0 -83.0ZM227.0 342.0V312.0H502.0V342.0ZM-351.0 176.0V147.0H-32.0V176.0ZM21.0 353.0V324.0H155.0V353.0ZM-177.0 151.0V-259.0H-148.0V151.0ZM-287.0 59.0C-290.0 -111.0 -298.0 -256.0 -359.0 -350.0C-351.0 -355.0 -338.0 -366.0 -333.0 -371.0C-272.0 -269.0 -261.0 -124.0 -256.0 57.0Z"/></g>
<g fill="black" opacity=".8" transform="translate(1300 500) scale(0.1 -0.1)"><path d="M0.0 0.0 -3.0 -34.0 194.0 -32.0 198.0 3.0ZM-266.0 -82.0 -288.0 -94.0C-214.0 -321.0 -58.0 -354.0 195.0 -354.0H527.0C530.0 -346.0 537.0 -332.0 542.0 -326.0C508.0 -326.0 220.0 -326.0 197.0 -326.0C-41.0 -326.0 -199.0 -296.0 -266.0 -82.0ZM212.0 351.0 225.0 322.0 508.0 319.0 495.0 349.0ZM-339.0 171.0 -353.0 141.0 -38.0 144.0 -25.0 175.0ZM20.0 356.0V326.0H158.0V356.0ZM-177.0 138.0V-265.0L-149.0 -263.0V138.0ZM-287.0 61.0C-288.0 -105.0 -296.0 -254.0 -357.0 -353.0C-350.0 -358.0 -338.0 -367.0 -332.0 -372.0C-270.0 -266.0 -261.0 -118.0 -258.0 59.0Z"/></g>
<g fill="red" transform="translate(1400 500) scale(0.1 -0.1)"><path d="M0.0 0.0V-124.0H185.0V0.0ZM-252.0 -85.0 -343.0 -114.0C-264.0 -403.0 -113.0 -448.0 140.0 -448.0H502.0C510.0 -406.0 533.0 -342.0 554.0 -311.0C459.0 -316.0 222.0 -316.0 141.0 -316.0C-58.0 -316.0 -186.0 -293.0 -252.0 -85.0ZM219.0 338.0V225.0H467.0V338.0ZM-384.0 188.0V62.0H8.0V188.0ZM19.0 355.0V236.0H168.0V355.0ZM-219.0 115.0V-313.0H-86.0V115.0ZM-358.0 15.0C-357.0 -149.0 -362.0 -304.0 -416.0 -399.0C-388.0 -415.0 -336.0 -455.0 -317.0 -475.0C-252.0 -361.0 -239.0 -186.0 -237.0 8.0Z"/></g>
<g fill="black" opacity=".8" transform="translate(1400 500) scale(0.1 -0.1)"><path d="M0.0 0.0 1.0 -125.0 185.0 -120.0 186.0 3.0ZM-256.0 -86.0 -345.0 -116.0C-263.0 -403.0 -109.0 -445.0 144.0 -445.0H503.0C512.0 -402.0 532.0 -340.0 555.0 -310.0C461.0 -313.0 224.0 -315.0 144.0 -315.0C-55.0 -314.0 -186.0 -292.0 -256.0 -86.0ZM217.0 342.0 222.0 228.0 478.0 226.0 472.0 340.0ZM-374.0 188.0 -382.0 60.0 -6.0 61.0 2.0 188.0ZM17.0 353.0V238.0H167.0V353.0ZM-223.0 100.0V-326.0L-91.0 -322.0V100.0ZM-361.0 13.0C-356.0 -147.0 -358.0 -297.0 -416.0 -394.0C-388.0 -410.0 -341.0 -451.0 -324.0 -472.0C-253.0 -356.0 -240.0 -184.0 -242.0 8.0Z"/></g>
<g fill="red" transform="translate(1500 500) scale(0.1 -0.1)"><path d="M0.0 0.0V-29.0H481.0V0.0ZM-325.0 7.0 -346.0 -4.0C-272.0 -242.0 -110.0 -281.0 150.0 -281.0H470.0C472.0 -273.0 479.0 -259.0 485.0 -252.0C451.0 -252.0 172.0 -252.0 150.0 -252.0C-92.0 -252.0 -255.0 -217.0 -325.0 7.0ZM69.0 513.0H413.0V411.0H69.0ZM26.0 164.0V135.0H459.0V164.0ZM-204.0 595.0V242.0H-175.0V595.0ZM223.0 153.0V-217.0H253.0V153.0ZM-342.0 149.0C-347.0 -36.0 -360.0 -190.0 -430.0 -289.0C-422.0 -294.0 -409.0 -304.0 -404.0 -309.0C-333.0 -202.0 -317.0 -48.0 -311.0 147.0Z"/></g>
<g fill="black" opacity=".8" transform="translate(1500 500) scale(0.1 -0.1)"><path d="M0.0 0.0 6.0 -33.0 478.0 -32.0 475.0 3.0ZM-324.0 6.0 -347.0 -6.0C-273.0 -240.0 -114.0 -277.0 146.0 -277.0H473.0C474.0 -271.0 481.0 -256.0 487.0 -251.0C453.0 -251.0 168.0 -251.0 147.0 -251.0C-96.0 -251.0 -256.0 -215.0 -324.0 6.0ZM78.0 511.0H405.0V414.0L78.0 416.0ZM24.0 163.0 23.0 135.0 464.0 134.0 462.0 163.0ZM-202.0 597.0V248.0H-179.0V597.0ZM222.0 151.0V-213.0L252.0 -211.0V151.0ZM-341.0 144.0C-346.0 -44.0 -360.0 -193.0 -427.0 -287.0C-419.0 -292.0 -408.0 -302.0 -402.0 -306.0C-332.0 -205.0 -317.0 -56.0 -312.0 142.0Z"/></g>
<g fill="red" transform="translate(1600 500) scale(0.1 -0.1)"><path d="M0.0 0.0V-113.0H478.0V0.0ZM-309.0 -27.0 -400.0 -56.0C-321.0 -345.0 -170.0 -390.0 83.0 -390.0H445.0C453.0 -348.0 476.0 -284.0 497.0 -253.0C402.0 -258.0 165.0 -258.0 84.0 -258.0C-115.0 -258.0 -243.0 -235.0 -309.0 -27.0ZM150.0 418.0H315.0V388.0H150.0ZM15.0 151.0V43.0H457.0V151.0ZM-279.0 536.0V180.0H-149.0V536.0ZM164.0 96.0V-237.0H298.0V96.0ZM-414.0 73.0C-413.0 -91.0 -418.0 -246.0 -471.0 -341.0C-444.0 -357.0 -393.0 -396.0 -374.0 -416.0C-310.0 -302.0 -298.0 -127.0 -295.0 67.0Z"/></g>
<g fill="black" opacity=".8" transform="translate(1600 500) scale(0.1 -0.1)"><path d="M0.0 0.0 5.0 -113.0 480.0 -107.0 479.0 4.0ZM-311.0 -29.0 -398.0 -58.0C-321.0 -346.0 -170.0 -388.0 82.0 -388.0H448.0C455.0 -347.0 476.0 -285.0 499.0 -255.0C403.0 -259.0 162.0 -260.0 81.0 -260.0C-119.0 -258.0 -245.0 -237.0 -311.0 -29.0ZM156.0 420.0 315.0 418.0 307.0 389.0 151.0 392.0ZM11.0 147.0V40.0L464.0 42.0V147.0ZM-276.0 536.0V183.0H-149.0V536.0ZM164.0 95.0V-233.0L298.0 -231.0V95.0ZM-415.0 70.0C-414.0 -96.0 -420.0 -251.0 -471.0 -345.0C-443.0 -361.0 -391.0 -395.0 -372.0 -413.0C-313.0 -304.0 -298.0 -130.0 -294.0 63.0Z"/></g>
<g fill="red" transform="translate(100 600) scale(0.1 -0.1)"><path d="M0.0 0.0V-29.0H345.0V0.0ZM-390.0 -344.0 -411.0 -355.0C-337.0 -593.0 -175.0 -632.0 85.0 -632.0H405.0C407.0 -624.0 414.0 -610.0 420.0 -603.0C386.0 -603.0 107.0 -603.0 85.0 -603.0C-157.0 -603.0 -320.0 -568.0 -390.0 -344.0ZM-442.0 98.0V69.0H-79.0V98.0ZM-475.0 -85.0V-114.0H-59.0V-85.0ZM-269.0 244.0V-100.0H-240.0V244.0ZM-269.0 -100.0V-558.0H-240.0V-100.0ZM-406.0 -202.0C-411.0 -387.0 -424.0 -541.0 -494.0 -640.0C-486.0 -645.0 -473.0 -655.0 -468.0 -660.0C-398.0 -553.0 -381.0 -399.0 -375.0 -204.0Z"/></g>
<g fill="black" opacity=".8" transform="translate(100 600) scale(0.1 -0.1)"><path d="M0.0 0.0 7.0 -37.0 352.0 -50.0 342.0 -12.0ZM-392.0 -345.0 -413.0 -357.0C-338.0 -592.0 -178.0 -630.0 83.0 -630.0H405.0C407.0 -623.0 413.0 -607.0 419.0 -603.0C385.0 -603.0 104.0 -603.0 84.0 -603.0C-160.0 -603.0 -322.0 -567.0 -392.0 -345.0ZM-437.0 101.0 -445.0 70.0 -79.0 73.0 -73.0 103.0ZM-478.0 -80.0V-108.0H-52.0L-54.0 -79.0ZM-265.0 246.0V-88.0H-250.0V246.0ZM-270.0 -105.0V-562.0L-243.0 -561.0V-105.0ZM-408.0 -205.0C-411.0 -383.0 -422.0 -537.0 -488.0 -636.0C-481.0 -641.0 -469.0 -650.0 -464.0 -656.0C-396.0 -549.0 -381.0 -396.0 -379.0 -207.0Z"/></g>
<g fill="red" transform="translate(200 600) scale(0.1 -0.1)"><path d="M0.0 0.0V-103.0H262.0V0.0ZM-413.0 -325.0 -506.0 -354.0C-426.0 -645.0 -275.0 -691.0 -21.0 -691.0H340.0C348.0 -648.0 371.0 -582.0 393.0 -551.0C297.0 -556.0 63.0 -556.0 -20.0 -556.0C-220.0 -556.0 -347.0 -533.0 -413.0 -325.0ZM-522.0 147.0V22.0H-134.0V147.0ZM-551.0 -52.0V-179.0H-109.0V-52.0ZM-384.0 235.0V-121.0H-251.0V235.0ZM-363.0 -127.0V-573.0H-232.0V-127.0ZM-520.0 -225.0C-520.0 -389.0 -526.0 -545.0 -582.0 -639.0C-554.0 -655.0 -502.0 -696.0 -482.0 -716.0C-416.0 -602.0 -401.0 -427.0 -398.0 -232.0Z"/></g>
<g fill="black" opacity=".8" transform="translate(200 600) scale(0.1 -0.1)"><path d="M0.0 0.0 -15.0 -106.0 258.0 -111.0 261.0 -8.0ZM-414.0 -326.0 -506.0 -357.0C-426.0 -648.0 -274.0 -694.0 -20.0 -694.0H343.0C351.0 -648.0 373.0 -582.0 395.0 -552.0C297.0 -555.0 65.0 -556.0 -20.0 -556.0C-220.0 -555.0 -347.0 -534.0 -414.0 -326.0ZM-517.0 146.0 -528.0 20.0H-140.0L-137.0 146.0ZM-551.0 -54.0 -550.0 -180.0H-107.0L-108.0 -55.0ZM-382.0 228.0V-114.0H-254.0V228.0ZM-363.0 -138.0V-581.0L-231.0 -578.0V-138.0ZM-521.0 -230.0C-520.0 -390.0 -523.0 -544.0 -581.0 -639.0C-553.0 -655.0 -502.0 -695.0 -484.0 -715.0C-416.0 -602.0 -400.0 -429.0 -399.0 -237.0Z"/></g>
<g fill="red" transform="translate(300 600) scale(0.1 -0.1)"><path d="M0.0 0.0V-29.0H328.0V0.0ZM-396.0 -36.0 -417.0 -47.0C-343.0 -285.0 -181.0 -324.0 79.0 -324.0H399.0C401.0 -316.0 408.0 -302.0 414.0 -295.0C381.0 -295.0 101.0 -295.0 79.0 -295.0C-163.0 -295.0 -326.0 -260.0 -396.0 -36.0ZM-57.0 420.0V391.0H398.0V420.0ZM-69.0 257.0V228.0H417.0V257.0ZM59.0 550.0V242.0H89.0V550.0ZM-286.0 189.0V-240.0H-256.0V189.0ZM-412.0 106.0C-417.0 -79.0 -430.0 -233.0 -499.0 -332.0C-492.0 -337.0 -479.0 -347.0 -474.0 -352.0C-403.0 -245.0 -387.0 -91.0 -381.0 104.0Z"/></g>
<g fill="black" opacity=".8" transform="translate(300 600) scale(0.1 -0.1)"><path d="M0.0 0.0 -6.0 -19.0 336.0 -30.0V-10.0ZM-395.0 -31.0 -418.0 -43.0C-342.0 -287.0 -180.0 -326.0 81.0 -326.0H398.0C400.0 -319.0 407.0 -304.0 413.0 -298.0C379.0 -298.0 104.0 -298.0 82.0 -298.0C-161.0 -298.0 -325.0 -261.0 -395.0 -31.0ZM-64.0 419.0 -39.0 391.0 410.0 384.0 385.0 412.0ZM-81.0 267.0 -56.0 239.0 427.0 234.0 401.0 262.0ZM60.0 547.0V234.0H86.0V547.0ZM-284.0 194.0V-254.0L-254.0 -253.0V194.0ZM-413.0 114.0C-418.0 -76.0 -432.0 -231.0 -501.0 -333.0C-494.0 -339.0 -481.0 -348.0 -475.0 -353.0C-404.0 -244.0 -388.0 -88.0 -383.0 111.0Z"/></g>
<g fill="red" transform="translate(400 600) scale(0.1 -0.1)"><path d="M0.0 0.0V-104.0H284.0V0.0ZM-400.0 -49.0 -491.0 -78.0C-411.0 -366.0 -261.0 -411.0 -8.0 -411.0H354.0C362.0 -370.0 385.0 -306.0 406.0 -275.0C312.0 -280.0 74.0 -280.0 -7.0 -280.0C-206.0 -280.0 -334.0 -257.0 -400.0 -49.0ZM-86.0 442.0V335.0H369.0V442.0ZM-100.0 275.0V168.0H382.0V275.0ZM-17.0 518.0V180.0H109.0V518.0ZM-368.0 155.0V-291.0H-238.0V155.0ZM-507.0 55.0C-507.0 -109.0 -513.0 -265.0 -569.0 -359.0C-541.0 -375.0 -489.0 -416.0 -469.0 -436.0C-403.0 -322.0 -388.0 -147.0 -385.0 48.0Z"/></g>
<g fill="black" opacity=".8" transform="translate(400 600) scale(0.1 -0.1)"><path d="M0.0 0.0 -30.0 -105.0 274.0 -123.0 280.0 -20.0ZM-397.0 -43.0 -492.0 -75.0C-411.0 -370.0 -259.0 -416.0 -6.0 -416.0H352.0C360.0 -372.0 381.0 -306.0 404.0 -273.0C311.0 -278.0 75.0 -278.0 -5.0 -278.0C-203.0 -278.0 -330.0 -254.0 -397.0 -43.0ZM-96.0 435.0 -83.0 332.0 374.0 330.0 362.0 432.0ZM-106.0 280.0 -90.0 175.0 382.0 174.0 366.0 277.0ZM-16.0 513.0V181.0H110.0V513.0ZM-372.0 162.0V-294.0L-235.0 -297.0V162.0ZM-509.0 65.0C-509.0 -103.0 -515.0 -260.0 -572.0 -359.0C-541.0 -376.0 -489.0 -417.0 -469.0 -438.0C-401.0 -321.0 -384.0 -143.0 -382.0 58.0Z"/></g>
<g fill="red" transform="translate(500 600) scale(0.1 -0.1)"><path d="M0.0 0.0V-269.0H29.0V0.0ZM-463.0 -191.0 -484.0 -202.0C-413.0 -439.0 -257.0 -479.0 5.0 -479.0H348.0C350.0 -471.0 357.0 -457.0 363.0 -450.0C329.0 -450.0 28.0 -450.0 6.0 -450.0C-239.0 -450.0 -396.0 -415.0 -463.0 -191.0ZM-512.0 251.0V222.0H-180.0V251.0ZM-547.0 58.0V29.0H-154.0V58.0ZM78.0 399.0V108.0H108.0V399.0ZM-358.0 35.0V-398.0H-328.0V35.0ZM-484.0 -49.0C-487.0 -232.0 -495.0 -386.0 -559.0 -487.0C-551.0 -492.0 -539.0 -502.0 -534.0 -507.0C-468.0 -399.0 -458.0 -244.0 -453.0 -51.0Z"/></g>
<g fill="black" opacity=".8" transform="translate(500 600) scale(0.1 -0.1)"><path d="M0.0 0.0 -11.0 -263.0 26.0 -256.0 38.0 7.0ZM-461.0 -188.0 -484.0 -201.0C-410.0 -442.0 -252.0 -480.0 9.0 -480.0H348.0C351.0 -473.0 357.0 -457.0 364.0 -452.0C329.0 -452.0 32.0 -452.0 11.0 -452.0C-234.0 -452.0 -394.0 -417.0 -461.0 -188.0ZM-523.0 254.0 -504.0 225.0 -173.0 220.0 -190.0 249.0ZM-546.0 53.0 -542.0 24.0H-157.0L-161.0 53.0ZM76.0 399.0V99.0H114.0V399.0ZM-358.0 32.0V-403.0L-327.0 -402.0V32.0ZM-482.0 -44.0C-485.0 -231.0 -496.0 -388.0 -562.0 -491.0C-554.0 -496.0 -543.0 -505.0 -537.0 -511.0C-469.0 -401.0 -456.0 -243.0 -452.0 -46.0Z"/></g>
<g fill="red" transform="translate(600 600) scale(0.1 -0.1)"><path d="M0.0 0.0V-269.0H79.0V0.0ZM-442.0 -186.0 -529.0 -214.0C-451.0 -499.0 -300.0 -543.0 -49.0 -543.0H314.0C322.0 -503.0 344.0 -442.0 364.0 -412.0C273.0 -417.0 29.0 -416.0 -48.0 -417.0C-248.0 -416.0 -377.0 -395.0 -442.0 -186.0ZM-545.0 289.0V169.0H-175.0V289.0ZM-574.0 96.0V-26.0H-159.0V96.0ZM30.0 387.0V72.0H152.0V387.0ZM-399.0 23.0V-423.0H-274.0V23.0ZM-548.0 -77.0C-547.0 -241.0 -552.0 -396.0 -605.0 -491.0C-579.0 -507.0 -529.0 -545.0 -510.0 -564.0C-446.0 -450.0 -434.0 -277.0 -431.0 -83.0Z"/></g>
<g fill="black" opacity=".8" transform="translate(600 600) scale(0.1 -0.1)"><path d="M0.0 0.0 -2.0 -270.0 77.0 -269.0 81.0 -1.0ZM-442.0 -184.0 -528.0 -213.0C-451.0 -500.0 -298.0 -543.0 -48.0 -543.0H313.0C321.0 -502.0 341.0 -440.0 363.0 -411.0C272.0 -414.0 28.0 -414.0 -48.0 -416.0C-247.0 -414.0 -376.0 -393.0 -442.0 -184.0ZM-552.0 290.0 -539.0 174.0 -166.0 172.0 -175.0 288.0ZM-571.0 98.0 -570.0 -24.0 -166.0 -25.0 -168.0 97.0ZM29.0 390.0V71.0H154.0V390.0ZM-404.0 26.0V-424.0L-276.0 -423.0V26.0ZM-550.0 -71.0C-548.0 -235.0 -553.0 -390.0 -607.0 -488.0C-580.0 -504.0 -531.0 -542.0 -514.0 -562.0C-448.0 -447.0 -433.0 -273.0 -431.0 -77.0Z"/></g>
<g fill="red" transform="translate(700 600) scale(0.1 -0.1)"><path d="M0.0 0.0V-29.0H522.0V0.0ZM-291.0 35.0 -312.0 24.0C-238.0 -214.0 -76.0 -253.0 184.0 -253.0H504.0C506.0 -245.0 513.0 -231.0 519.0 -224.0C486.0 -224.0 206.0 -224.0 184.0 -224.0C-58.0 -224.0 -221.0 -189.0 -291.0 35.0ZM-343.0 477.0V448.0H15.0V477.0ZM-376.0 284.0V255.0H31.0V284.0ZM243.0 622.0V379.0H273.0V622.0ZM250.0 119.0V-189.0H280.0V119.0ZM-307.0 177.0C-312.0 -8.0 -325.0 -162.0 -394.0 -261.0C-387.0 -266.0 -374.0 -276.0 -369.0 -281.0C-298.0 -174.0 -282.0 -20.0 -276.0 175.0Z"/></g>
<g fill="black" opacity=".8" transform="translate(700 600) scale(0.1 -0.1)"><path d="M0.0 0.0 14.0 -25.0H518.0L509.0 2.0ZM-293.0 36.0 -315.0 22.0C-239.0 -211.0 -83.0 -251.0 179.0 -251.0H506.0C508.0 -244.0 515.0 -229.0 521.0 -223.0C488.0 -223.0 202.0 -223.0 180.0 -223.0C-65.0 -223.0 -223.0 -186.0 -293.0 36.0ZM-333.0 464.0 -344.0 433.0 11.0 438.0 22.0 469.0ZM-380.0 291.0V264.0L31.0 263.0L30.0 292.0ZM239.0 623.0V377.0H274.0V623.0ZM250.0 138.0V-179.0L279.0 -178.0V138.0ZM-310.0 177.0C-315.0 -14.0 -329.0 -163.0 -394.0 -260.0C-387.0 -266.0 -375.0 -274.0 -369.0 -280.0C-302.0 -176.0 -285.0 -26.0 -280.0 174.0Z"/></g>
<g fill="red" transform="translate(800 600) scale(0.1 -0.1)"><path d="M0.0 0.0V-114.0H518.0V0.0ZM-278.0 14.0 -369.0 -15.0C-289.0 -303.0 -139.0 -348.0 114.0 -348.0H476.0C484.0 -307.0 507.0 -243.0 528.0 -212.0C434.0 -217.0 196.0 -217.0 115.0 -217.0C-84.0 -217.0 -212.0 -194.0 -278.0 14.0ZM-391.0 485.0V361.0H1.0V485.0ZM-416.0 288.0V163.0H8.0V288.0ZM191.0 581.0V324.0H325.0V581.0ZM192.0 69.0V-210.0H326.0V69.0ZM-385.0 118.0C-385.0 -46.0 -391.0 -202.0 -447.0 -296.0C-419.0 -312.0 -367.0 -353.0 -347.0 -373.0C-281.0 -259.0 -266.0 -84.0 -263.0 111.0Z"/></g>
<g fill="black" opacity=".8" transform="translate(800 600) scale(0.1 -0.1)"><path d="M0.0 0.0 20.0 -110.0 518.0 -104.0 510.0 3.0ZM-278.0 13.0 -368.0 -17.0C-290.0 -307.0 -142.0 -351.0 110.0 -351.0H476.0C485.0 -308.0 506.0 -245.0 528.0 -213.0C433.0 -217.0 192.0 -219.0 111.0 -219.0C-87.0 -217.0 -212.0 -195.0 -278.0 13.0ZM-392.0 480.0 -391.0 356.0 -4.0 355.0 1.0 480.0ZM-417.0 291.0 -416.0 165.0H15.0V291.0ZM193.0 582.0V314.0H329.0V582.0ZM200.0 85.0V-202.0L335.0 -201.0V85.0ZM-387.0 116.0C-388.0 -52.0 -394.0 -211.0 -449.0 -306.0C-418.0 -323.0 -363.0 -360.0 -342.0 -378.0C-282.0 -266.0 -262.0 -90.0 -259.0 107.0Z"/></g>
<g fill="red" transform="translate(900 600) scale(0.1 -0.1)"><path d="M0.0 0.0V-30.0H181.0V0.0ZM-327.0 -161.0 -352.0 -173.0C-289.0 -396.0 -178.0 -453.0 98.0 -453.0H472.0C474.0 -445.0 481.0 -431.0 487.0 -424.0C453.0 -424.0 117.0 -424.0 96.0 -424.0C-157.0 -424.0 -271.0 -371.0 -327.0 -161.0ZM-82.0 377.0V348.0H263.0V377.0ZM-413.0 103.0V73.0H-64.0V103.0ZM0.0 192.0V163.0H181.0V192.0ZM-223.0 78.0V-380.0H-193.0V78.0ZM-348.0 -25.0C-347.0 -155.0 -356.0 -334.0 -432.0 -460.0C-425.0 -463.0 -415.0 -470.0 -409.0 -476.0C-330.0 -346.0 -321.0 -164.0 -321.0 -26.0Z"/></g>
<g fill="black" opacity=".8" transform="translate(900 600) scale(0.1 -0.1)"><path d="M0.0 0.0 3.0 -31.0 184.0 -36.0 177.0 -3.0ZM-326.0 -161.0 -352.0 -175.0C-289.0 -393.0 -186.0 -450.0 92.0 -450.0H475.0C478.0 -443.0 483.0 -428.0 490.0 -423.0C455.0 -423.0 112.0 -423.0 90.0 -423.0C-165.0 -423.0 -272.0 -368.0 -326.0 -161.0ZM-65.0 372.0 -84.0 342.0 256.0 348.0 274.0 380.0ZM-428.0 106.0 -411.0 79.0 -51.0 75.0 -70.0 104.0ZM3.0 192.0V168.0H171.0V192.0ZM-224.0 80.0V-379.0L-195.0 -377.0V80.0ZM-348.0 -31.0C-346.0 -166.0 -356.0 -337.0 -430.0 -456.0C-423.0 -460.0 -414.0 -467.0 -407.0 -473.0C-331.0 -350.0 -321.0 -175.0 -320.0 -32.0Z"/></g>
<g fill="red" transform="translate(1000 600) scale(0.1 -0.1)"><path d="M0.0 0.0V-108.0H158.0V0.0ZM-300.0 -163.0 -403.0 -193.0C-325.0 -490.0 -181.0 -537.0 78.0 -537.0H447.0C456.0 -493.0 480.0 -426.0 502.0 -393.0C400.0 -399.0 167.0 -398.0 80.0 -398.0C-119.0 -398.0 -241.0 -373.0 -300.0 -163.0ZM-74.0 353.0V232.0H255.0V353.0ZM-440.0 109.0V-18.0H-70.0V109.0ZM0.0 171.0V63.0H158.0V171.0ZM-269.0 27.0V-414.0H-143.0V27.0ZM-415.0 -75.0C-409.0 -213.0 -413.0 -364.0 -474.0 -477.0C-446.0 -490.0 -399.0 -535.0 -381.0 -565.0C-299.0 -427.0 -289.0 -249.0 -295.0 -82.0Z"/></g>
<g fill="black" opacity=".8" transform="translate(1000 600) scale(0.1 -0.1)"><path d="M0.0 0.0 -14.0 -110.0 156.0 -114.0 159.0 -6.0ZM-299.0 -163.0 -399.0 -193.0C-325.0 -492.0 -183.0 -537.0 75.0 -537.0H450.0C459.0 -493.0 480.0 -428.0 503.0 -395.0C400.0 -400.0 163.0 -401.0 76.0 -400.0C-124.0 -399.0 -242.0 -375.0 -299.0 -163.0ZM-66.0 352.0 -78.0 231.0 241.0 232.0 250.0 353.0ZM-452.0 105.0 -441.0 -17.0H-53.0L-65.0 103.0ZM5.0 169.0V71.0H159.0V169.0ZM-269.0 33.0V-406.0H-140.0V33.0ZM-415.0 -76.0C-411.0 -217.0 -417.0 -370.0 -475.0 -482.0C-445.0 -496.0 -396.0 -535.0 -376.0 -563.0C-301.0 -430.0 -287.0 -251.0 -291.0 -84.0Z"/></g>
<g fill="red" transform="translate(1100 600) scale(0.1 -0.1)"><path d="M0.0 0.0H307.0V-192.0H0.0ZM-390.0 -50.0 -412.0 -61.0C-340.0 -295.0 -187.0 -334.0 71.0 -334.0H409.0C411.0 -326.0 418.0 -312.0 423.0 -305.0C390.0 -305.0 94.0 -305.0 72.0 -305.0C-169.0 -305.0 -323.0 -270.0 -390.0 -50.0ZM-456.0 387.0V358.0H-124.0V387.0ZM-487.0 212.0V182.0H-120.0V212.0ZM-300.0 535.0V195.0H-270.0V535.0ZM-291.0 195.0V-246.0H-262.0V195.0ZM-410.0 105.0C-419.0 -82.0 -441.0 -242.0 -514.0 -346.0C-507.0 -351.0 -494.0 -360.0 -488.0 -365.0C-414.0 -255.0 -390.0 -95.0 -378.0 102.0Z"/></g>
<g fill="black" opacity=".8" transform="translate(1100 600) scale(0.1 -0.1)"><path d="M0.0 0.0 307.0 -2.0 312.0 -195.0 1.0 -192.0ZM-390.0 -51.0 -412.0 -64.0C-339.0 -294.0 -187.0 -330.0 71.0 -330.0H411.0C413.0 -323.0 420.0 -308.0 425.0 -304.0C391.0 -304.0 93.0 -304.0 72.0 -304.0C-170.0 -304.0 -323.0 -269.0 -390.0 -51.0ZM-451.0 394.0 -463.0 364.0 -132.0 368.0 -120.0 399.0ZM-501.0 206.0 -484.0 179.0 -109.0 176.0 -125.0 203.0ZM-295.0 536.0V198.0H-280.0V536.0ZM-294.0 181.0V-249.0L-265.0 -248.0V181.0ZM-409.0 99.0C-417.0 -93.0 -439.0 -245.0 -510.0 -342.0C-501.0 -347.0 -490.0 -356.0 -485.0 -361.0C-412.0 -259.0 -389.0 -107.0 -378.0 97.0Z"/></g>
<g fill="red" transform="translate(1200 600) scale(0.1 -0.1)"><path d="M0.0 0.0H178.0V-55.0H0.0ZM-430.0 35.0 -521.0 6.0C-441.0 -280.0 -291.0 -324.0 -38.0 -324.0H324.0C332.0 -282.0 355.0 -218.0 376.0 -187.0C281.0 -192.0 44.0 -192.0 -37.0 -192.0C-236.0 -192.0 -364.0 -170.0 -430.0 35.0ZM-538.0 499.0V375.0H-191.0V499.0ZM-563.0 308.0V182.0H-180.0V308.0ZM-420.0 599.0V243.0H-297.0V599.0ZM-384.0 235.0V-202.0H-264.0V235.0ZM-528.0 135.0C-529.0 -30.0 -536.0 -185.0 -593.0 -279.0C-567.0 -295.0 -517.0 -333.0 -498.0 -353.0C-431.0 -239.0 -415.0 -66.0 -411.0 128.0Z"/></g>
<g fill="black" opacity=".8" transform="translate(1200 600) scale(0.1 -0.1)"><path d="M0.0 0.0 155.0 -5.0 176.0 -58.0 6.0 -55.0ZM-432.0 33.0 -518.0 5.0C-441.0 -280.0 -293.0 -322.0 -42.0 -322.0H327.0C335.0 -280.0 355.0 -219.0 378.0 -189.0C282.0 -192.0 39.0 -193.0 -41.0 -193.0C-241.0 -192.0 -366.0 -172.0 -432.0 33.0ZM-532.0 504.0 -534.0 378.0H-197.0L-191.0 505.0ZM-574.0 301.0 -564.0 182.0 -167.0 181.0 -177.0 299.0ZM-415.0 599.0V258.0H-297.0V599.0ZM-389.0 229.0V-204.0L-266.0 -201.0V229.0ZM-529.0 136.0C-531.0 -31.0 -538.0 -185.0 -593.0 -276.0C-566.0 -293.0 -514.0 -328.0 -495.0 -345.0C-434.0 -237.0 -415.0 -66.0 -409.0 128.0Z"/></g>
<g fill="red" transform="translate(1300 600) scale(0.1 -0.1)"><path d="M0.0 0.0 -16.0 -30.0H363.0V0.0ZM-410.0 -128.0 -435.0 -140.0C-372.0 -363.0 -261.0 -420.0 15.0 -420.0H389.0C391.0 -412.0 398.0 -398.0 404.0 -391.0C370.0 -391.0 34.0 -391.0 13.0 -391.0C-240.0 -391.0 -354.0 -338.0 -410.0 -128.0ZM9.0 384.0 -7.0 354.0H358.0V384.0ZM-496.0 131.0V101.0H-103.0V131.0ZM-313.0 455.0V115.0H-283.0V455.0ZM-300.0 108.0V-350.0H-271.0V108.0ZM-431.0 8.0C-430.0 -122.0 -439.0 -301.0 -515.0 -427.0C-508.0 -430.0 -498.0 -437.0 -492.0 -443.0C-413.0 -313.0 -404.0 -131.0 -404.0 7.0Z"/></g>
<g fill="black" opacity=".8" transform="translate(1300 600) scale(0.1 -0.1)"><path d="M0.0 0.0 1.0 -16.0 356.0 -6.0 344.0 11.0ZM-411.0 -122.0 -437.0 -136.0C-373.0 -363.0 -263.0 -417.0 12.0 -417.0H391.0C393.0 -410.0 399.0 -394.0 406.0 -390.0C371.0 -390.0 31.0 -390.0 11.0 -390.0C-242.0 -390.0 -356.0 -337.0 -411.0 -122.0ZM-1.0 377.0 -13.0 347.0 345.0 349.0 351.0 380.0ZM-498.0 137.0 -497.0 107.0 -106.0 108.0 -108.0 137.0ZM-315.0 459.0V100.0H-280.0V459.0ZM-295.0 116.0V-346.0L-266.0 -344.0V116.0ZM-434.0 15.0C-432.0 -133.0 -442.0 -306.0 -514.0 -428.0C-506.0 -432.0 -497.0 -438.0 -490.0 -445.0C-415.0 -318.0 -406.0 -142.0 -406.0 14.0Z"/></g>
<g fill="red" transform="translate(1400 600) scale(0.1 -0.1)"><path d="M0.0 0.0 -69.0 -95.0H302.0V0.0ZM-373.0 -145.0 -476.0 -175.0C-398.0 -472.0 -254.0 -519.0 5.0 -519.0H374.0C383.0 -475.0 407.0 -408.0 429.0 -375.0C327.0 -381.0 94.0 -380.0 7.0 -380.0C-192.0 -380.0 -314.0 -355.0 -373.0 -145.0ZM5.0 360.0 -64.0 266.0H307.0V360.0ZM-513.0 127.0V0.0H-125.0V127.0ZM-375.0 405.0V45.0H-246.0V405.0ZM-341.0 45.0V-396.0H-215.0V45.0ZM-488.0 -57.0C-482.0 -194.0 -486.0 -346.0 -547.0 -459.0C-519.0 -472.0 -474.0 -515.0 -456.0 -544.0C-375.0 -407.0 -366.0 -229.0 -371.0 -64.0Z"/></g>
<g fill="black" opacity=".8" transform="translate(1400 600) scale(0.1 -0.1)"><path d="M0.0 0.0 -36.0 -94.0 302.0 -76.0 295.0 15.0ZM-378.0 -146.0 -478.0 -177.0C-402.0 -475.0 -254.0 -521.0 3.0 -521.0H374.0C384.0 -476.0 405.0 -411.0 428.0 -379.0C327.0 -383.0 89.0 -384.0 5.0 -383.0C-195.0 -382.0 -318.0 -359.0 -378.0 -146.0ZM-2.0 356.0 -37.0 250.0H319.0L322.0 357.0ZM-515.0 133.0V6.0H-118.0L-119.0 132.0ZM-374.0 407.0V36.0H-241.0V407.0ZM-338.0 60.0V-393.0L-209.0 -392.0V60.0ZM-493.0 -52.0C-487.0 -199.0 -490.0 -353.0 -547.0 -466.0C-517.0 -480.0 -469.0 -519.0 -450.0 -545.0C-377.0 -412.0 -366.0 -233.0 -371.0 -58.0Z"/></g>
<g fill="red" transform="translate(1500 600) scale(0.1 -0.1)"><path d="M0.0 0.0V-181.0H29.0V0.0ZM-440.0 -65.0 -461.0 -76.0C-390.0 -313.0 -234.0 -353.0 28.0 -353.0H371.0C373.0 -345.0 380.0 -331.0 386.0 -324.0C352.0 -324.0 51.0 -324.0 29.0 -324.0C-216.0 -324.0 -373.0 -289.0 -440.0 -65.0ZM-128.0 382.0V353.0H367.0V382.0ZM-524.0 184.0V155.0H-135.0V184.0ZM-341.0 523.0V170.0H-311.0V523.0ZM-340.0 161.0V-263.0H-310.0V161.0ZM-461.0 77.0C-464.0 -106.0 -472.0 -260.0 -536.0 -361.0C-528.0 -366.0 -516.0 -376.0 -511.0 -381.0C-445.0 -273.0 -435.0 -118.0 -430.0 75.0Z"/></g>
<g fill="black" opacity=".8" transform="translate(1500 600) scale(0.1 -0.1)"><path d="M0.0 0.0 19.0 -184.0 33.0 -195.0 14.0 -10.0ZM-443.0 -65.0 -464.0 -77.0C-392.0 -310.0 -243.0 -350.0 23.0 -350.0H372.0C374.0 -342.0 380.0 -328.0 387.0 -323.0C353.0 -323.0 46.0 -323.0 25.0 -323.0C-224.0 -323.0 -376.0 -286.0 -443.0 -65.0ZM-116.0 374.0 -133.0 344.0 360.0 349.0 377.0 381.0ZM-529.0 196.0V168.0L-130.0 167.0V197.0ZM-339.0 525.0V178.0H-319.0V525.0ZM-341.0 169.0V-259.0L-311.0 -257.0V169.0ZM-464.0 74.0C-466.0 -108.0 -472.0 -258.0 -531.0 -356.0C-523.0 -362.0 -512.0 -372.0 -507.0 -376.0C-445.0 -271.0 -438.0 -119.0 -435.0 72.0Z"/></g>
<g fill="red" transform="translate(1600 600) scale(0.1 -0.1)"><path d="M0.0 0.0V-194.0H83.0V0.0ZM-437.0 -29.0 -519.0 -55.0C-442.0 -341.0 -291.0 -383.0 -40.0 -383.0H329.0C336.0 -346.0 357.0 -287.0 377.0 -259.0C289.0 -264.0 36.0 -263.0 -38.0 -263.0C-241.0 -263.0 -372.0 -242.0 -437.0 -29.0ZM-151.0 423.0V334.0H354.0V423.0ZM-566.0 260.0V143.0H-151.0V260.0ZM-414.0 557.0V201.0H-289.0V557.0ZM-399.0 192.0V-254.0H-274.0V192.0ZM-540.0 92.0C-539.0 -72.0 -544.0 -227.0 -597.0 -322.0C-571.0 -338.0 -521.0 -376.0 -502.0 -395.0C-438.0 -281.0 -426.0 -108.0 -423.0 86.0Z"/></g>
<g fill="black" opacity=".8" transform="translate(1600 600) scale(0.1 -0.1)"><path d="M0.0 0.0 5.0 -194.0 81.0 -193.0 76.0 -3.0ZM-438.0 -32.0 -520.0 -58.0C-444.0 -345.0 -292.0 -386.0 -41.0 -386.0H331.0C339.0 -349.0 359.0 -289.0 380.0 -261.0C289.0 -265.0 35.0 -265.0 -40.0 -265.0C-244.0 -263.0 -373.0 -244.0 -438.0 -32.0ZM-147.0 419.0 -155.0 325.0H347.0L354.0 420.0ZM-567.0 260.0 -569.0 144.0 -143.0 143.0 -142.0 260.0ZM-411.0 551.0V200.0H-289.0V551.0ZM-393.0 194.0V-255.0L-267.0 -252.0V194.0ZM-542.0 86.0C-540.0 -79.0 -545.0 -234.0 -597.0 -329.0C-569.0 -346.0 -518.0 -381.0 -500.0 -399.0C-439.0 -286.0 -425.0 -113.0 -422.0 80.0Z"/></g>
<g fill="red" transform="translate(100 700) scale(0.1 -0.1)"><path d="M0.0 0.0V-29.0H525.0V0.0ZM-292.0 -59.0 -313.0 -70.0C-242.0 -307.0 -86.0 -347.0 176.0 -347.0H519.0C521.0 -339.0 528.0 -325.0 534.0 -318.0C500.0 -318.0 199.0 -318.0 177.0 -318.0C-68.0 -318.0 -225.0 -283.0 -292.0 -59.0ZM50.0 445.0V416.0H469.0V445.0ZM-4.0 331.0V302.0H526.0V331.0ZM114.0 280.0V73.0H144.0V280.0ZM-194.0 167.0V-257.0H-164.0V167.0ZM-313.0 83.0C-316.0 -100.0 -324.0 -254.0 -388.0 -355.0C-380.0 -360.0 -368.0 -370.0 -363.0 -375.0C-297.0 -267.0 -287.0 -112.0 -282.0 81.0Z"/></g>
<g fill="black" opacity=".8" transform="translate(100 700) scale(0.1 -0.1)"><path d="M0.0 0.0 1.0 -34.0 520.0 -26.0 523.0 9.0ZM-293.0 -62.0 -313.0 -73.0C-241.0 -307.0 -86.0 -344.0 176.0 -344.0H521.0C523.0 -337.0 529.0 -323.0 536.0 -318.0C501.0 -318.0 199.0 -318.0 177.0 -318.0C-69.0 -318.0 -225.0 -283.0 -293.0 -62.0ZM50.0 446.0 42.0 418.0 467.0 420.0 474.0 451.0ZM1.0 323.0 -10.0 296.0 522.0 298.0 532.0 327.0ZM113.0 283.0V77.0H146.0V283.0ZM-195.0 163.0V-251.0L-166.0 -250.0V163.0ZM-312.0 79.0C-314.0 -104.0 -324.0 -256.0 -388.0 -354.0C-379.0 -360.0 -369.0 -369.0 -363.0 -374.0C-297.0 -268.0 -287.0 -116.0 -282.0 77.0Z"/></g>
<g fill="red" transform="translate(200 700) scale(0.1 -0.1)"><path d="M0.0 0.0V-98.0H505.0V0.0ZM-283.0 -63.0 -365.0 -89.0C-288.0 -375.0 -137.0 -417.0 114.0 -417.0H483.0C490.0 -380.0 511.0 -321.0 531.0 -293.0C443.0 -298.0 190.0 -297.0 116.0 -297.0C-87.0 -297.0 -218.0 -276.0 -283.0 -63.0ZM33.0 456.0V365.0H466.0V456.0ZM2.0 337.0V245.0H498.0V337.0ZM69.0 253.0V64.0H171.0V253.0ZM-240.0 153.0V-293.0H-115.0V153.0ZM-386.0 58.0C-385.0 -106.0 -390.0 -261.0 -443.0 -356.0C-417.0 -372.0 -367.0 -410.0 -348.0 -429.0C-284.0 -315.0 -272.0 -142.0 -269.0 52.0Z"/></g>
<g fill="black" opacity=".8" transform="translate(200 700) scale(0.1 -0.1)"><path d="M0.0 0.0 12.0 -98.0 508.0 -87.0 507.0 8.0ZM-285.0 -65.0 -364.0 -92.0C-288.0 -374.0 -137.0 -414.0 112.0 -414.0H485.0C492.0 -377.0 511.0 -321.0 531.0 -293.0C443.0 -297.0 187.0 -297.0 114.0 -298.0C-89.0 -296.0 -219.0 -277.0 -285.0 -65.0ZM38.0 461.0 32.0 370.0H465.0L470.0 461.0ZM6.0 334.0 -1.0 241.0 495.0 242.0 503.0 334.0ZM70.0 256.0V65.0H172.0V256.0ZM-239.0 149.0V-292.0L-116.0 -289.0V149.0ZM-387.0 53.0C-386.0 -108.0 -390.0 -261.0 -442.0 -356.0C-417.0 -372.0 -368.0 -408.0 -349.0 -426.0C-287.0 -315.0 -272.0 -144.0 -270.0 48.0Z"/></g>
<g fill="red" transform="translate(300 700) scale(0.1 -0.1)"><path d="M0.0 0.0V-30.0H384.0V0.0ZM-380.0 -65.0 -401.0 -76.0C-330.0 -313.0 -174.0 -353.0 88.0 -353.0H431.0C433.0 -345.0 440.0 -331.0 446.0 -324.0C412.0 -324.0 111.0 -324.0 89.0 -324.0C-156.0 -324.0 -313.0 -289.0 -380.0 -65.0ZM-85.0 475.0V446.0H123.0V475.0ZM-459.0 194.0V165.0H-87.0V194.0ZM-281.0 523.0V179.0H-251.0V523.0ZM179.0 98.0V-228.0H209.0V98.0ZM-401.0 77.0C-404.0 -106.0 -412.0 -260.0 -476.0 -361.0C-468.0 -366.0 -456.0 -376.0 -451.0 -381.0C-385.0 -273.0 -375.0 -118.0 -370.0 75.0Z"/></g>
<g fill="black" opacity=".8" transform="translate(300 700) scale(0.1 -0.1)"><path d="M0.0 0.0 -16.0 -31.0 388.0 -34.0 401.0 -1.0ZM-378.0 -63.0 -400.0 -76.0C-326.0 -317.0 -166.0 -354.0 94.0 -354.0H430.0C432.0 -347.0 438.0 -331.0 446.0 -327.0C411.0 -327.0 118.0 -327.0 96.0 -327.0C-149.0 -327.0 -311.0 -293.0 -378.0 -63.0ZM-102.0 488.0 -77.0 461.0 137.0 454.0 110.0 482.0ZM-456.0 188.0 -452.0 160.0 -87.0 159.0 -91.0 188.0ZM-279.0 523.0V178.0H-251.0V523.0ZM178.0 80.0V-244.0L209.0 -242.0V80.0ZM-399.0 80.0C-401.0 -98.0 -410.0 -257.0 -476.0 -364.0C-469.0 -369.0 -459.0 -377.0 -452.0 -383.0C-383.0 -269.0 -372.0 -109.0 -370.0 78.0Z"/></g>
<g fill="red" transform="translate(400 700) scale(0.1 -0.1)"><path d="M0.0 0.0V-79.0H374.0V0.0ZM-370.0 -99.0 -447.0 -124.0C-372.0 -409.0 -220.0 -450.0 28.0 -450.0H399.0C406.0 -415.0 426.0 -360.0 444.0 -333.0C360.0 -338.0 100.0 -337.0 30.0 -337.0C-174.0 -337.0 -306.0 -316.0 -370.0 -99.0ZM-112.0 468.0V385.0H87.0V468.0ZM-492.0 182.0V65.0H-104.0V182.0ZM-347.0 485.0V129.0H-222.0V485.0ZM155.0 59.0V-256.0H275.0V59.0ZM-473.0 22.0C-472.0 -142.0 -477.0 -297.0 -530.0 -392.0C-504.0 -408.0 -454.0 -446.0 -435.0 -465.0C-371.0 -351.0 -359.0 -178.0 -356.0 16.0Z"/></g>
<g fill="black" opacity=".8" transform="translate(400 700) scale(0.1 -0.1)"><path d="M0.0 0.0 -28.0 -84.0 369.0 -92.0 380.0 -10.0ZM-371.0 -97.0 -446.0 -123.0C-370.0 -410.0 -215.0 -449.0 32.0 -449.0H398.0C406.0 -413.0 424.0 -358.0 444.0 -331.0C359.0 -334.0 102.0 -335.0 33.0 -335.0C-170.0 -333.0 -304.0 -314.0 -371.0 -97.0ZM-118.0 471.0 -111.0 393.0 97.0 389.0 84.0 468.0ZM-487.0 182.0 -485.0 66.0H-117.0L-120.0 181.0ZM-349.0 482.0V138.0H-224.0V482.0ZM144.0 45.0V-268.0L268.0 -265.0V45.0ZM-475.0 26.0C-471.0 -133.0 -473.0 -282.0 -530.0 -381.0C-504.0 -398.0 -459.0 -438.0 -442.0 -460.0C-371.0 -341.0 -358.0 -170.0 -359.0 21.0Z"/></g>
<g fill="red" transform="translate(500 700) scale(0.1 -0.1)"><path d="M0.0 0.0H360.0V-80.0H0.0ZM-372.0 -1.0 -397.0 -13.0C-334.0 -236.0 -222.0 -293.0 57.0 -293.0H435.0C437.0 -285.0 444.0 -271.0 450.0 -264.0C416.0 -264.0 76.0 -264.0 55.0 -264.0C-200.0 -264.0 -315.0 -211.0 -372.0 -1.0ZM-86.0 428.0V399.0H165.0V428.0ZM0.0 215.0H360.0V137.0H0.0ZM32.0 582.0V419.0H62.0V582.0ZM-260.0 243.0V-220.0H-230.0V243.0ZM-393.0 135.0C-392.0 5.0 -401.0 -174.0 -476.0 -300.0C-470.0 -303.0 -460.0 -310.0 -454.0 -316.0C-375.0 -186.0 -366.0 -4.0 -366.0 134.0Z"/></g>
<g fill="black" opacity=".8" transform="translate(500 700) scale(0.1 -0.1)"><path d="M0.0 0.0 362.0 -2.0 358.0 -82.0 -3.0 -79.0ZM-372.0 -0.0 -398.0 -13.0C-334.0 -236.0 -222.0 -292.0 57.0 -292.0H436.0C437.0 -285.0 444.0 -270.0 450.0 -266.0C416.0 -266.0 76.0 -266.0 55.0 -266.0C-201.0 -266.0 -315.0 -211.0 -372.0 -0.0ZM-87.0 428.0 -88.0 399.0H166.0V430.0ZM5.0 215.0H356.0V138.0L4.0 139.0ZM31.0 584.0V421.0H63.0V584.0ZM-260.0 242.0V-219.0L-231.0 -218.0V242.0ZM-394.0 134.0C-392.0 8.0 -401.0 -172.0 -475.0 -301.0C-469.0 -304.0 -461.0 -309.0 -454.0 -316.0C-375.0 -184.0 -366.0 -1.0 -368.0 133.0Z"/></g>
<g fill="red" transform="translate(600 700) scale(0.1 -0.1)"><path d="M0.0 0.0H229.0V-24.0H0.0ZM-404.0 44.0 -500.0 16.0C-426.0 -293.0 -282.0 -341.0 -23.0 -341.0H347.0C355.0 -300.0 377.0 -237.0 398.0 -207.0C303.0 -212.0 60.0 -211.0 -21.0 -211.0C-224.0 -211.0 -347.0 -184.0 -404.0 44.0ZM-168.0 456.0V384.0H98.0V456.0ZM0.0 182.0H229.0V159.0H0.0ZM-53.0 594.0V418.0H28.0V594.0ZM-373.0 234.0V-207.0H-247.0V234.0ZM-519.0 142.0C-512.0 1.0 -515.0 -155.0 -575.0 -272.0C-547.0 -285.0 -501.0 -329.0 -483.0 -358.0C-404.0 -216.0 -395.0 -33.0 -402.0 136.0Z"/></g>
<g fill="black" opacity=".8" transform="translate(600 700) scale(0.1 -0.1)"><path d="M0.0 0.0H236.0L230.0 -21.0L-1.0 -22.0ZM-407.0 43.0 -500.0 15.0C-427.0 -295.0 -282.0 -342.0 -22.0 -342.0H348.0C356.0 -300.0 377.0 -238.0 398.0 -207.0C303.0 -211.0 59.0 -211.0 -22.0 -211.0C-225.0 -210.0 -347.0 -184.0 -407.0 43.0ZM-168.0 456.0 -169.0 384.0H99.0L100.0 457.0ZM5.0 183.0 228.0 181.0 225.0 158.0 1.0 160.0ZM-54.0 593.0V417.0H29.0V593.0ZM-373.0 232.0V-209.0L-247.0 -207.0V232.0ZM-520.0 139.0C-512.0 1.0 -513.0 -153.0 -575.0 -272.0C-546.0 -286.0 -502.0 -329.0 -485.0 -359.0C-405.0 -214.0 -395.0 -34.0 -403.0 134.0Z"/></g>
<g fill="red" transform="translate(700 700) scale(0.1 -0.1)"><path d="M0.0 0.0V-29.0H231.0V0.0ZM-169.0 -18.0 -194.0 -29.0C-139.0 -263.0 -33.0 -310.0 126.0 -310.0H263.0C264.0 -302.0 270.0 -288.0 276.0 -280.0C253.0 -280.0 141.0 -280.0 127.0 -280.0C-15.0 -280.0 -121.0 -237.0 -169.0 -18.0ZM-216.0 428.0V399.0H230.0V428.0ZM-263.0 220.0V191.0H271.0V220.0ZM-13.0 576.0V206.0H16.0V576.0ZM-13.0 196.0V-272.0L16.0 -279.0V196.0ZM-177.0 107.0C-195.0 -75.0 -236.0 -218.0 -331.0 -311.0C-323.0 -316.0 -310.0 -324.0 -305.0 -329.0C-212.0 -230.0 -167.0 -87.0 -147.0 104.0Z"/></g>
<g fill="black" opacity=".8" transform="translate(700 700) scale(0.1 -0.1)"><path d="M0.0 0.0 -6.0 -31.0 230.0 -24.0 236.0 9.0ZM-169.0 -27.0 -195.0 -41.0C-138.0 -265.0 -32.0 -308.0 128.0 -308.0H266.0C267.0 -302.0 272.0 -287.0 278.0 -281.0C255.0 -281.0 143.0 -281.0 129.0 -281.0C-16.0 -281.0 -121.0 -239.0 -169.0 -27.0ZM-213.0 429.0 -220.0 399.0 224.0 401.0 230.0 433.0ZM-269.0 217.0 -263.0 189.0 274.0 188.0 268.0 216.0ZM-16.0 577.0V207.0H13.0V577.0ZM-19.0 196.0V-271.0L11.0 -280.0V196.0ZM-177.0 104.0C-193.0 -80.0 -233.0 -220.0 -324.0 -312.0C-316.0 -317.0 -305.0 -324.0 -299.0 -330.0C-209.0 -231.0 -166.0 -92.0 -149.0 102.0Z"/></g>
<g fill="red" transform="translate(800 700) scale(0.1 -0.1)"><path d="M0.0 0.0V-125.0H239.0V0.0ZM-130.0 -95.0 -228.0 -125.0C-167.0 -349.0 -54.0 -394.0 97.0 -394.0H233.0C238.0 -357.0 255.0 -294.0 272.0 -264.0C231.0 -266.0 138.0 -266.0 106.0 -266.0C4.0 -266.0 -86.0 -243.0 -130.0 -95.0ZM-234.0 437.0V308.0H230.0V437.0ZM-271.0 230.0V100.0H252.0V230.0ZM-74.0 537.0V141.0H63.0V537.0ZM-74.0 112.0V-250.0L63.0 -305.0V112.0ZM-236.0 34.0C-243.0 -121.0 -270.0 -255.0 -348.0 -334.0C-318.0 -351.0 -262.0 -392.0 -240.0 -413.0C-156.0 -315.0 -119.0 -161.0 -106.0 24.0Z"/></g>
<g fill="black" opacity=".8" transform="translate(800 700) scale(0.1 -0.1)"><path d="M0.0 0.0 -5.0 -126.0 237.0 -121.0 242.0 2.0ZM-131.0 -94.0 -231.0 -126.0C-170.0 -346.0 -60.0 -391.0 92.0 -391.0H234.0C239.0 -354.0 254.0 -293.0 272.0 -264.0C231.0 -263.0 133.0 -265.0 102.0 -266.0C-1.0 -264.0 -88.0 -239.0 -131.0 -94.0ZM-228.0 441.0 -233.0 317.0H228.0L231.0 441.0ZM-277.0 221.0 -272.0 96.0 259.0 97.0 255.0 220.0ZM-68.0 542.0V144.0H66.0V542.0ZM-71.0 107.0V-257.0L64.0 -309.0V107.0ZM-237.0 41.0C-244.0 -117.0 -272.0 -250.0 -351.0 -331.0C-319.0 -348.0 -264.0 -388.0 -242.0 -409.0C-157.0 -311.0 -117.0 -158.0 -105.0 31.0Z"/></g>
<g fill="red" transform="translate(900 700) scale(0.1 -0.1)"><path d="M0.0 0.0V-30.0H261.0V0.0ZM-173.0 -49.0 -198.0 -62.0C-133.0 -276.0 -12.0 -318.0 163.0 -318.0H310.0C311.0 -310.0 317.0 -296.0 322.0 -287.0C298.0 -287.0 179.0 -287.0 164.0 -287.0C6.0 -287.0 -118.0 -250.0 -173.0 -49.0ZM-251.0 415.0V386.0H253.0V415.0ZM-304.0 219.0V190.0H306.0V219.0ZM-22.0 562.0V204.0H7.0V562.0ZM-14.0 196.0V-276.0L16.0 -292.0V196.0ZM-176.0 110.0C-192.0 -82.0 -234.0 -229.0 -336.0 -324.0C-328.0 -329.0 -316.0 -337.0 -311.0 -342.0C-210.0 -240.0 -165.0 -94.0 -146.0 107.0Z"/></g>
<g fill="black" opacity=".8" transform="translate(900 700) scale(0.1 -0.1)"><path d="M0.0 0.0 8.0 -33.0 261.0 -37.0 255.0 -3.0ZM-174.0 -33.0 -200.0 -47.0C-136.0 -276.0 -13.0 -318.0 160.0 -318.0H305.0C306.0 -311.0 311.0 -296.0 318.0 -290.0C293.0 -290.0 177.0 -290.0 162.0 -290.0C4.0 -290.0 -119.0 -249.0 -174.0 -33.0ZM-240.0 415.0 -246.0 386.0 253.0 387.0 259.0 419.0ZM-295.0 220.0 -301.0 191.0 300.0 193.0 306.0 222.0ZM-18.0 565.0V206.0H11.0V565.0ZM-9.0 192.0V-278.0L20.0 -286.0V192.0ZM-181.0 102.0C-197.0 -85.0 -239.0 -228.0 -336.0 -319.0C-328.0 -325.0 -317.0 -333.0 -311.0 -338.0C-215.0 -240.0 -170.0 -97.0 -151.0 99.0Z"/></g>
<g fill="red" transform="translate(1000 700) scale(0.1 -0.1)"><path d="M0.0 0.0V-122.0H271.0V0.0ZM-127.0 -79.0 -237.0 -114.0C-173.0 -337.0 -59.0 -389.0 109.0 -389.0H271.0C276.0 -351.0 294.0 -287.0 311.0 -256.0C265.0 -258.0 158.0 -258.0 122.0 -258.0C8.0 -258.0 -84.0 -229.0 -127.0 -79.0ZM-248.0 437.0V316.0H261.0V437.0ZM-304.0 238.0V112.0H291.0V238.0ZM-68.0 548.0V152.0H70.0V548.0ZM-58.0 119.0V-264.0L80.0 -319.0V119.0ZM-237.0 66.0C-248.0 -99.0 -284.0 -238.0 -376.0 -318.0C-345.0 -337.0 -286.0 -381.0 -264.0 -404.0C-165.0 -304.0 -118.0 -144.0 -101.0 55.0Z"/></g>
<g fill="black" opacity=".8" transform="translate(1000 700) scale(0.1 -0.1)"><path d="M0.0 0.0 6.0 -125.0 272.0 -123.0 270.0 -0.0ZM-136.0 -82.0 -238.0 -116.0C-170.0 -341.0 -47.0 -387.0 120.0 -387.0H275.0C280.0 -349.0 295.0 -287.0 314.0 -257.0C269.0 -257.0 164.0 -259.0 130.0 -259.0C13.0 -257.0 -87.0 -232.0 -136.0 -82.0ZM-257.0 442.0 -259.0 314.0H259.0L262.0 442.0ZM-306.0 239.0 -310.0 109.0 294.0 111.0 298.0 239.0ZM-72.0 544.0V158.0H65.0V544.0ZM-64.0 116.0V-256.0L75.0 -307.0V116.0ZM-242.0 53.0C-250.0 -106.0 -281.0 -243.0 -365.0 -323.0C-333.0 -342.0 -277.0 -383.0 -255.0 -404.0C-165.0 -307.0 -122.0 -149.0 -106.0 42.0Z"/></g>
<g fill="red" transform="translate(1100 700) scale(0.1 -0.1)"><path d="M0.0 0.0V-29.0H217.0V0.0ZM-141.0 -17.0 -165.0 -28.0C-115.0 -261.0 -17.0 -309.0 131.0 -309.0H256.0C257.0 -301.0 263.0 -287.0 269.0 -279.0C247.0 -279.0 146.0 -279.0 132.0 -279.0C1.0 -279.0 -97.0 -235.0 -141.0 -17.0ZM-188.0 413.0V384.0H210.0V413.0ZM-233.0 216.0V186.0H262.0V216.0ZM-14.0 576.0V206.0H16.0V576.0ZM-14.0 196.0V-272.0L16.0 -279.0V196.0ZM-153.0 107.0C-167.0 -72.0 -203.0 -217.0 -290.0 -311.0C-282.0 -316.0 -270.0 -324.0 -264.0 -329.0C-179.0 -228.0 -140.0 -84.0 -122.0 104.0Z"/></g>
<g fill="black" opacity=".8" transform="translate(1100 700) scale(0.1 -0.1)"><path d="M0.0 0.0 2.0 -30.0 216.0 -27.0 215.0 5.0ZM-144.0 -28.0 -170.0 -41.0C-116.0 -261.0 -16.0 -303.0 134.0 -303.0H264.0C266.0 -297.0 270.0 -282.0 277.0 -276.0C254.0 -276.0 149.0 -276.0 136.0 -276.0C0.0 -276.0 -99.0 -235.0 -144.0 -28.0ZM-194.0 417.0V388.0H217.0L216.0 418.0ZM-239.0 211.0 -237.0 183.0H269.0L265.0 211.0ZM-12.0 579.0V210.0H14.0V579.0ZM-15.0 194.0V-269.0L15.0 -278.0V194.0ZM-153.0 104.0C-169.0 -85.0 -208.0 -218.0 -294.0 -307.0C-286.0 -313.0 -275.0 -319.0 -269.0 -325.0C-184.0 -228.0 -142.0 -96.0 -124.0 101.0Z"/></g>
<g fill="red" transform="translate(1200 700) scale(0.1 -0.1)"><path d="M0.0 0.0V-124.0H221.0V0.0ZM-116.0 -88.0 -211.0 -117.0C-152.0 -339.0 -44.0 -384.0 102.0 -384.0H232.0C237.0 -348.0 254.0 -287.0 270.0 -257.0C232.0 -258.0 141.0 -259.0 111.0 -259.0C13.0 -258.0 -74.0 -235.0 -116.0 -88.0ZM-214.0 432.0V306.0H219.0V432.0ZM-252.0 218.0V91.0H257.0V218.0ZM-67.0 547.0V151.0H64.0V547.0ZM-66.0 104.0V-258.0L64.0 -310.0V104.0ZM-214.0 47.0C-221.0 -110.0 -245.0 -248.0 -322.0 -329.0C-293.0 -345.0 -239.0 -385.0 -218.0 -405.0C-135.0 -305.0 -101.0 -150.0 -89.0 38.0Z"/></g>
<g fill="black" opacity=".8" transform="translate(1200 700) scale(0.1 -0.1)"><path d="M0.0 0.0 2.0 -125.0 221.0 -120.0 222.0 2.0ZM-110.0 -93.0 -207.0 -124.0C-151.0 -339.0 -48.0 -383.0 95.0 -383.0H230.0C235.0 -346.0 249.0 -286.0 267.0 -257.0C227.0 -256.0 135.0 -258.0 105.0 -259.0C9.0 -257.0 -70.0 -234.0 -110.0 -93.0ZM-209.0 431.0 -211.0 309.0H216.0V431.0ZM-249.0 218.0 -247.0 93.0 253.0 94.0 251.0 217.0ZM-66.0 548.0V151.0H65.0V548.0ZM-68.0 106.0V-253.0L65.0 -304.0V106.0ZM-214.0 41.0C-220.0 -119.0 -247.0 -248.0 -322.0 -327.0C-291.0 -344.0 -235.0 -382.0 -213.0 -402.0C-134.0 -307.0 -96.0 -158.0 -85.0 32.0Z"/></g>
<g fill="red" transform="translate(1300 700) scale(0.1 -0.1)"><path d="M0.0 0.0 7.0 -26.0 453.0 68.0 446.0 94.0ZM-359.0 3.0 -384.0 -9.0C-323.0 -232.0 -215.0 -289.0 63.0 -289.0H444.0C446.0 -281.0 453.0 -267.0 459.0 -260.0C425.0 -260.0 81.0 -260.0 60.0 -260.0C-194.0 -260.0 -304.0 -206.0 -359.0 3.0ZM-420.0 447.0V418.0H-36.0V447.0ZM-441.0 252.0V223.0H-13.0V252.0ZM-237.0 586.0V233.0H-208.0V586.0ZM-227.0 237.0V-230.0H-198.0V237.0ZM-379.0 139.0C-384.0 -44.0 -396.0 -199.0 -463.0 -299.0C-455.0 -304.0 -442.0 -314.0 -437.0 -319.0C-369.0 -211.0 -355.0 -56.0 -348.0 137.0Z"/></g>
<g fill="black" opacity=".8" transform="translate(1300 700) scale(0.1 -0.1)"><path d="M0.0 0.0 -8.0 -23.0 458.0 60.0 461.0 83.0ZM-357.0 6.0 -384.0 -8.0C-321.0 -235.0 -214.0 -292.0 64.0 -292.0H444.0C446.0 -285.0 452.0 -270.0 458.0 -265.0C424.0 -265.0 83.0 -265.0 63.0 -265.0C-193.0 -265.0 -303.0 -208.0 -357.0 6.0ZM-425.0 446.0 -403.0 418.0 -19.0 411.0 -45.0 440.0ZM-446.0 259.0 -432.0 231.0 -8.0 228.0 -22.0 257.0ZM-237.0 584.0V233.0H-208.0V584.0ZM-226.0 240.0V-244.0L-197.0 -243.0V240.0ZM-379.0 145.0C-382.0 -31.0 -396.0 -193.0 -466.0 -302.0C-458.0 -308.0 -446.0 -315.0 -440.0 -321.0C-369.0 -206.0 -354.0 -42.0 -349.0 143.0Z"/></g>
<g fill="red" transform="translate(1400 700) scale(0.1 -0.1)"><path d="M0.0 0.0 36.0 -132.0 494.0 -30.0 460.0 99.0ZM-315.0 -42.0 -418.0 -71.0C-347.0 -368.0 -211.0 -416.0 50.0 -416.0H440.0C449.0 -372.0 473.0 -305.0 495.0 -272.0C388.0 -278.0 143.0 -278.0 51.0 -277.0C-149.0 -277.0 -262.0 -253.0 -315.0 -42.0ZM-430.0 417.0V292.0H-15.0V417.0ZM-452.0 218.0V91.0H8.0V218.0ZM-284.0 510.0V154.0H-148.0V510.0ZM-259.0 138.0V-299.0H-126.0V138.0ZM-428.0 45.0C-429.0 -125.0 -439.0 -295.0 -484.0 -397.0C-452.0 -410.0 -388.0 -440.0 -362.0 -457.0C-316.0 -339.0 -300.0 -155.0 -296.0 35.0Z"/></g>
<g fill="black" opacity=".8" transform="translate(1400 700) scale(0.1 -0.1)"><path d="M0.0 0.0 11.0 -133.0 486.0 -53.0 458.0 76.0ZM-311.0 -38.0 -417.0 -68.0C-346.0 -373.0 -207.0 -421.0 53.0 -421.0H438.0C447.0 -375.0 469.0 -304.0 494.0 -271.0C385.0 -275.0 146.0 -276.0 54.0 -275.0C-145.0 -274.0 -256.0 -250.0 -311.0 -38.0ZM-435.0 411.0 -438.0 295.0 -15.0 292.0 -26.0 408.0ZM-451.0 222.0 -442.0 95.0 1.0 94.0 -8.0 220.0ZM-284.0 505.0V154.0H-148.0V505.0ZM-263.0 142.0V-303.0H-125.0V142.0ZM-429.0 51.0C-428.0 -115.0 -438.0 -284.0 -488.0 -394.0C-454.0 -408.0 -394.0 -440.0 -369.0 -459.0C-315.0 -334.0 -297.0 -147.0 -294.0 41.0Z"/></g>
</svg>
