<?xml version="1.0" encoding="UTF-8"?>
<svg width="1700" height="300" xmlns="http://www.w3.org/2000/svg">
<rect width="100%" height="100%" fill="white"/>
<g fill="green" transform="translate(100 100) scale(0.1 -0.1)"><path d="M-0.0 0.0V-29.0H883.0V0.0ZM325.0 193.0V-15.0H355.0V193.0ZM525.0 193.0V-15.0H555.0V193.0ZM426.0 -10.0V-698.0H456.0V-10.0ZM96.0 -195.0V-709.0H125.0V-224.0H772.0V-195.0ZM757.0 -195.0V-648.0C757.0 -662.0 753.0 -667.0 736.0 -668.0C717.0 -669.0 662.0 -670.0 588.0 -668.0C594.0 -678.0 599.0 -690.0 601.0 -700.0C681.0 -700.0 731.0 -700.0 756.0 -694.0C779.0 -687.0 786.0 -675.0 786.0 -648.0V-195.0ZM110.0 165.0C143.0 121.0 181.0 61.0 199.0 22.0L224.0 35.0C208.0 74.0 169.0 131.0 134.0 176.0ZM745.0 177.0C723.0 133.0 682.0 68.0 651.0 29.0L674.0 18.0C707.0 57.0 743.0 115.0 772.0 165.0ZM334.0 -291.0C298.0 -390.0 245.0 -492.0 186.0 -562.0C195.0 -566.0 208.0 -573.0 214.0 -577.0C269.0 -507.0 323.0 -401.0 363.0 -298.0ZM517.0 -300.0C574.0 -382.0 640.0 -493.0 671.0 -563.0L697.0 -551.0C667.0 -482.0 600.0 -372.0 542.0 -289.0ZM265.0 -55.0C193.0 -115.0 87.0 -172.0 -12.0 -212.0C-3.0 -216.0 10.0 -225.0 16.0 -230.0C108.0 -190.0 216.0 -128.0 292.0 -66.0ZM581.0 -73.0C681.0 -121.0 809.0 -191.0 875.0 -233.0L891.0 -208.0C823.0 -166.0 697.0 -100.0 597.0 -53.0Z"/></g>
<g fill="green" transform="translate(200 100) scale(0.1 -0.1)"><path d="M0.0 0.0V-125.0H919.0V0.0ZM294.0 151.0V-70.0H427.0V151.0ZM491.0 151.0V-70.0H626.0V151.0ZM387.0 -74.0V-781.0H526.0V-74.0ZM75.0 -241.0V-797.0H214.0V-361.0H772.0V-241.0ZM706.0 -241.0V-652.0C706.0 -664.0 701.0 -668.0 688.0 -668.0C676.0 -668.0 631.0 -669.0 597.0 -666.0C615.0 -699.0 637.0 -753.0 643.0 -790.0C707.0 -790.0 756.0 -788.0 796.0 -768.0C835.0 -747.0 847.0 -714.0 847.0 -654.0V-241.0ZM80.0 93.0C109.0 54.0 140.0 -1.0 151.0 -37.0L273.0 24.0C258.0 59.0 227.0 109.0 196.0 145.0ZM715.0 146.0C703.0 108.0 678.0 56.0 659.0 22.0L782.0 -8.0C802.0 22.0 824.0 65.0 848.0 115.0ZM278.0 -408.0C259.0 -482.0 228.0 -567.0 194.0 -622.0C223.0 -632.0 275.0 -653.0 301.0 -669.0C332.0 -611.0 369.0 -518.0 392.0 -436.0ZM516.0 -433.0C544.0 -495.0 578.0 -578.0 592.0 -630.0L704.0 -589.0C687.0 -537.0 653.0 -459.0 622.0 -398.0ZM248.0 -105.0C180.0 -145.0 66.0 -186.0 -26.0 -209.0C-6.0 -235.0 26.0 -294.0 38.0 -319.0C138.0 -282.0 267.0 -218.0 350.0 -158.0ZM565.0 -152.0C657.0 -198.0 790.0 -266.0 854.0 -307.0L942.0 -221.0C871.0 -181.0 735.0 -117.0 647.0 -77.0Z"/></g>
<g fill="green" transform="translate(300 100) scale(0.1 -0.1)"><path d="M-0.0 0.0V-25.0H785.0V0.0ZM290.0 165.0V-13.0H316.0V165.0ZM453.0 180.0V-10.0V180.0ZM375.0 -23.0V-644.0H400.0V-23.0ZM86.0 -166.0V-608.0H111.0V-191.0H685.0V-166.0ZM672.0 -166.0V-555.0C672.0 -567.0 669.0 -572.0 654.0 -573.0C637.0 -574.0 588.0 -574.0 522.0 -573.0C527.0 -581.0 532.0 -592.0 533.0 -600.0C604.0 -600.0 649.0 -600.0 671.0 -595.0C691.0 -589.0 697.0 -579.0 697.0 -555.0V-166.0ZM99.0 142.0C128.0 104.0 162.0 52.0 178.0 19.0L199.0 30.0C185.0 64.0 150.0 113.0 119.0 151.0ZM640.0 153.0C616.0 114.0 575.0 57.0 544.0 24.0L564.0 12.0C596.0 46.0 633.0 96.0 664.0 140.0ZM254.0 -259.0C223.0 -335.0 178.0 -417.0 133.0 -474.0C141.0 -477.0 152.0 -483.0 157.0 -486.0C199.0 -430.0 244.0 -344.0 279.0 -265.0ZM459.0 -256.0C509.0 -327.0 568.0 -424.0 595.0 -485.0L618.0 -475.0C591.0 -415.0 532.0 -319.0 481.0 -246.0ZM236.0 -47.0C172.0 -99.0 78.0 -149.0 -10.0 -183.0C-3.0 -187.0 8.0 -194.0 14.0 -199.0C95.0 -164.0 191.0 -111.0 259.0 -57.0ZM516.0 -62.0C605.0 -104.0 719.0 -166.0 778.0 -202.0L791.0 -180.0C730.0 -144.0 618.0 -86.0 529.0 -45.0Z"/></g>
<g fill="green" transform="translate(400 100) scale(0.1 -0.1)"><path d="M0.0 0.0V-108.0H816.0V0.0ZM263.0 127.0V-61.0H379.0V127.0ZM419.0 141.0V-54.0H514.0V141.0ZM340.0 -81.0V-718.0H462.0V-81.0ZM68.0 -206.0V-685.0H190.0V-309.0H683.0V-206.0ZM627.0 -206.0V-559.0C627.0 -570.0 623.0 -573.0 611.0 -573.0C601.0 -573.0 560.0 -574.0 530.0 -572.0C546.0 -600.0 566.0 -647.0 571.0 -679.0C627.0 -679.0 670.0 -678.0 706.0 -660.0C740.0 -642.0 750.0 -613.0 750.0 -561.0V-206.0ZM73.0 77.0C99.0 44.0 127.0 -4.0 137.0 -35.0L244.0 19.0C230.0 50.0 202.0 93.0 175.0 124.0ZM611.0 126.0C598.0 94.0 571.0 51.0 552.0 22.0L659.0 -10.0C679.0 15.0 703.0 50.0 728.0 94.0ZM203.0 -365.0C187.0 -419.0 163.0 -485.0 140.0 -530.0C165.0 -537.0 210.0 -554.0 233.0 -567.0C252.0 -521.0 281.0 -449.0 300.0 -390.0ZM458.0 -372.0C483.0 -425.0 513.0 -497.0 526.0 -542.0L624.0 -506.0C608.0 -461.0 578.0 -393.0 551.0 -341.0ZM224.0 -90.0C163.0 -124.0 60.0 -160.0 -23.0 -179.0C-6.0 -202.0 20.0 -254.0 30.0 -276.0C120.0 -244.0 236.0 -189.0 311.0 -137.0ZM500.0 -130.0C583.0 -171.0 704.0 -230.0 763.0 -266.0L837.0 -190.0C773.0 -155.0 649.0 -99.0 570.0 -64.0Z"/></g>
<g fill="green" transform="translate(500 100) scale(0.1 -0.1)"><path d="M0.0 0.0V-33.0H549.0V0.0ZM189.0 232.0V-14.0H222.0V232.0ZM548.0 -16.0V-63.0H994.0V-16.0ZM332.0 217.0V-66.0H367.0V217.0ZM52.0 -241.0V-797.0H86.0V-275.0H508.0V-241.0ZM483.0 -241.0V-741.0C483.0 -752.0 479.0 -755.0 467.0 -755.0C456.0 -756.0 420.0 -757.0 376.0 -755.0C382.0 -765.0 387.0 -778.0 390.0 -787.0C444.0 -787.0 475.0 -787.0 493.0 -781.0C511.0 -774.0 516.0 -763.0 516.0 -741.0V-241.0ZM48.0 178.0C76.0 131.0 100.0 68.0 108.0 26.0L141.0 40.0C132.0 80.0 107.0 143.0 79.0 191.0ZM822.0 187.0C875.0 149.0 934.0 91.0 963.0 49.0L985.0 70.0C959.0 110.0 898.0 167.0 844.0 206.0ZM895.0 -178.0C861.0 -438.0 789.0 -640.0 639.0 -765.0C647.0 -772.0 661.0 -783.0 667.0 -790.0C817.0 -655.0 893.0 -454.0 930.0 -183.0ZM325.0 -363.0C373.0 -435.0 419.0 -530.0 437.0 -593.0L466.0 -579.0C450.0 -515.0 402.0 -421.0 352.0 -350.0ZM155.0 -63.0C114.0 -119.0 50.0 -173.0 -11.0 -214.0C-1.0 -219.0 14.0 -232.0 18.0 -236.0C77.0 -195.0 144.0 -131.0 188.0 -73.0ZM375.0 -85.0C438.0 -126.0 510.0 -187.0 544.0 -231.0L568.0 -208.0C533.0 -166.0 460.0 -106.0 397.0 -65.0Z"/></g>
<g fill="green" transform="translate(600 100) scale(0.1 -0.1)"><path d="M0.0 0.0V-135.0H594.0V0.0ZM159.0 217.0V-59.0H275.0V217.0ZM580.0 -18.0V-172.0H1066.0V-18.0ZM301.0 200.0V-113.0H418.0V200.0ZM31.0 -280.0V-869.0H143.0V-411.0H529.0V-280.0ZM448.0 -280.0V-732.0C448.0 -742.0 445.0 -745.0 436.0 -745.0C427.0 -746.0 402.0 -746.0 378.0 -744.0C393.0 -776.0 406.0 -827.0 410.0 -861.0C461.0 -861.0 499.0 -858.0 530.0 -839.0C562.0 -819.0 569.0 -787.0 569.0 -734.0V-280.0ZM18.0 146.0C33.0 104.0 46.0 48.0 48.0 12.0L152.0 46.0C148.0 81.0 134.0 135.0 116.0 175.0ZM834.0 146.0C876.0 94.0 928.0 20.0 948.0 -27.0L1066.0 43.0C1042.0 90.0 988.0 159.0 945.0 208.0ZM882.0 -222.0C854.0 -458.0 784.0 -652.0 641.0 -763.0C672.0 -786.0 726.0 -837.0 747.0 -863.0C901.0 -730.0 983.0 -512.0 1022.0 -240.0ZM330.0 -483.0C354.0 -547.0 377.0 -630.0 381.0 -684.0L473.0 -654.0C466.0 -601.0 443.0 -520.0 416.0 -457.0ZM92.0 -123.0C67.0 -163.0 25.0 -205.0 -17.0 -236.0C12.0 -254.0 63.0 -295.0 86.0 -317.0C132.0 -280.0 186.0 -217.0 218.0 -161.0ZM385.0 -170.0C420.0 -210.0 462.0 -266.0 478.0 -302.0L591.0 -241.0C571.0 -206.0 527.0 -153.0 491.0 -115.0Z"/></g>
<g fill="red" transform="translate(100 200) scale(0.1 -0.1)"><path d="M0.0 0.0V-29.0H883.0V0.0ZM325.0 193.0V-15.0H355.0V193.0ZM525.0 193.0V-15.0H555.0V193.0ZM426.0 -10.0V-698.0H456.0V-10.0ZM96.0 -195.0V-709.0H125.0V-224.0H772.0V-195.0ZM757.0 -195.0V-648.0C757.0 -662.0 753.0 -667.0 736.0 -668.0C717.0 -669.0 662.0 -670.0 588.0 -668.0C594.0 -678.0 599.0 -690.0 601.0 -700.0C681.0 -700.0 731.0 -700.0 756.0 -694.0C779.0 -687.0 786.0 -675.0 786.0 -648.0V-195.0ZM110.0 165.0C143.0 121.0 181.0 61.0 199.0 22.0L224.0 35.0C208.0 74.0 169.0 131.0 134.0 176.0ZM745.0 177.0C723.0 133.0 682.0 68.0 651.0 29.0L674.0 18.0C707.0 57.0 743.0 115.0 772.0 165.0ZM334.0 -291.0C298.0 -390.0 245.0 -492.0 186.0 -562.0C195.0 -566.0 208.0 -573.0 214.0 -577.0C269.0 -507.0 323.0 -401.0 363.0 -298.0ZM517.0 -300.0C574.0 -382.0 640.0 -493.0 671.0 -563.0L697.0 -551.0C667.0 -482.0 600.0 -372.0 542.0 -289.0ZM265.0 -55.0C193.0 -115.0 87.0 -172.0 -12.0 -212.0C-3.0 -216.0 10.0 -225.0 16.0 -230.0C108.0 -190.0 216.0 -128.0 292.0 -66.0ZM581.0 -73.0C681.0 -121.0 809.0 -191.0 875.0 -233.0L891.0 -208.0C823.0 -166.0 697.0 -100.0 597.0 -53.0Z"/></g>
<g fill="black" opacity=".8" transform="translate(100 200) scale(0.1 -0.1)"><path d="M0.0 0.0V-29.0H883.0V0.0ZM325.0 193.0V-15.0H355.0V193.0ZM525.0 193.0V-15.0H555.0V193.0ZM426.0 -10.0V-698.0H456.0V-10.0ZM96.0 -195.0V-709.0H125.0V-224.0H772.0V-195.0ZM757.0 -195.0V-648.0C757.0 -662.0 753.0 -667.0 736.0 -668.0C717.0 -669.0 662.0 -670.0 588.0 -668.0C594.0 -678.0 599.0 -690.0 601.0 -700.0C681.0 -700.0 731.0 -700.0 756.0 -694.0C779.0 -687.0 786.0 -675.0 786.0 -648.0V-195.0ZM110.0 165.0C143.0 121.0 181.0 61.0 199.0 22.0L224.0 35.0C208.0 74.0 169.0 131.0 134.0 176.0ZM745.0 177.0C723.0 133.0 682.0 68.0 651.0 29.0L674.0 18.0C707.0 57.0 743.0 115.0 772.0 165.0ZM334.0 -291.0C298.0 -390.0 245.0 -492.0 186.0 -562.0C195.0 -566.0 208.0 -573.0 214.0 -577.0C269.0 -507.0 323.0 -401.0 363.0 -298.0ZM517.0 -300.0C574.0 -382.0 640.0 -493.0 671.0 -563.0L697.0 -551.0C667.0 -482.0 600.0 -372.0 542.0 -289.0ZM265.0 -55.0C193.0 -115.0 87.0 -172.0 -12.0 -212.0C-3.0 -216.0 10.0 -225.0 16.0 -230.0C108.0 -190.0 216.0 -128.0 292.0 -66.0ZM581.0 -73.0C681.0 -121.0 809.0 -191.0 875.0 -233.0L891.0 -208.0C823.0 -166.0 697.0 -100.0 597.0 -53.0Z"/></g>
<g fill="red" transform="translate(200 200) scale(0.1 -0.1)"><path d="M0.0 0.0V-125.0H919.0V0.0ZM294.0 151.0V-70.0H427.0V151.0ZM491.0 151.0V-70.0H626.0V151.0ZM387.0 -74.0V-781.0H526.0V-74.0ZM75.0 -241.0V-797.0H214.0V-361.0H772.0V-241.0ZM706.0 -241.0V-652.0C706.0 -664.0 701.0 -668.0 688.0 -668.0C676.0 -668.0 631.0 -669.0 597.0 -666.0C615.0 -699.0 637.0 -753.0 643.0 -790.0C707.0 -790.0 756.0 -788.0 796.0 -768.0C835.0 -747.0 847.0 -714.0 847.0 -654.0V-241.0ZM80.0 93.0C109.0 54.0 140.0 -1.0 151.0 -37.0L273.0 24.0C258.0 59.0 227.0 109.0 196.0 145.0ZM715.0 146.0C703.0 108.0 678.0 56.0 659.0 22.0L782.0 -8.0C802.0 22.0 824.0 65.0 848.0 115.0ZM278.0 -408.0C259.0 -482.0 228.0 -567.0 194.0 -622.0C223.0 -632.0 275.0 -653.0 301.0 -669.0C332.0 -611.0 369.0 -518.0 392.0 -436.0ZM516.0 -433.0C544.0 -495.0 578.0 -578.0 592.0 -630.0L704.0 -589.0C687.0 -537.0 653.0 -459.0 622.0 -398.0ZM248.0 -105.0C180.0 -145.0 66.0 -186.0 -26.0 -209.0C-6.0 -235.0 26.0 -294.0 38.0 -319.0C138.0 -282.0 267.0 -218.0 350.0 -158.0ZM565.0 -152.0C657.0 -198.0 790.0 -266.0 854.0 -307.0L942.0 -221.0C871.0 -181.0 735.0 -117.0 647.0 -77.0Z"/></g>
<g fill="black" opacity=".8" transform="translate(200 200) scale(0.1 -0.1)"><path d="M0.0 0.0V-125.0H919.0V0.0ZM294.0 151.0V-70.0H427.0V151.0ZM491.0 151.0V-70.0H626.0V151.0ZM387.0 -74.0V-781.0H526.0V-74.0ZM75.0 -241.0V-797.0H214.0V-361.0H772.0V-241.0ZM706.0 -241.0V-652.0C706.0 -664.0 701.0 -668.0 688.0 -668.0C676.0 -668.0 631.0 -669.0 597.0 -666.0C615.0 -699.0 637.0 -753.0 643.0 -790.0C707.0 -790.0 756.0 -788.0 796.0 -768.0C835.0 -747.0 847.0 -714.0 847.0 -654.0V-241.0ZM80.0 93.0C109.0 54.0 140.0 -1.0 151.0 -37.0L273.0 24.0C258.0 59.0 227.0 109.0 196.0 145.0ZM715.0 146.0C703.0 108.0 678.0 56.0 659.0 22.0L782.0 -8.0C802.0 22.0 824.0 65.0 848.0 115.0ZM278.0 -408.0C259.0 -482.0 228.0 -567.0 194.0 -622.0C223.0 -632.0 275.0 -653.0 301.0 -669.0C332.0 -611.0 369.0 -518.0 392.0 -436.0ZM516.0 -433.0C544.0 -495.0 578.0 -578.0 592.0 -630.0L704.0 -589.0C687.0 -537.0 653.0 -459.0 622.0 -398.0ZM248.0 -105.0C180.0 -145.0 66.0 -186.0 -26.0 -209.0C-6.0 -235.0 26.0 -294.0 38.0 -319.0C138.0 -282.0 267.0 -218.0 350.0 -158.0ZM565.0 -152.0C657.0 -198.0 790.0 -266.0 854.0 -307.0L942.0 -221.0C871.0 -181.0 735.0 -117.0 647.0 -77.0Z"/></g>
<g fill="red" transform="translate(300 200) scale(0.1 -0.1)"><path d="M0.0 0.0V-29.0H451.0V0.0ZM154.0 204.0V-12.0H183.0V204.0ZM476.0 -29.0V-58.0H892.0V-29.0ZM281.0 204.0V-12.0H311.0V204.0ZM42.0 -212.0V-696.0H72.0V-242.0H421.0V-212.0ZM398.0 -212.0V-648.0C398.0 -657.0 395.0 -660.0 385.0 -660.0C376.0 -661.0 346.0 -661.0 310.0 -660.0C315.0 -668.0 320.0 -680.0 322.0 -687.0C367.0 -687.0 393.0 -687.0 408.0 -682.0C423.0 -676.0 427.0 -667.0 427.0 -648.0V-212.0ZM37.0 155.0C61.0 114.0 81.0 59.0 87.0 23.0L116.0 35.0C109.0 70.0 88.0 125.0 64.0 166.0ZM717.0 163.0C768.0 130.0 827.0 80.0 856.0 44.0L875.0 64.0C848.0 99.0 788.0 148.0 736.0 181.0ZM815.0 -146.0C786.0 -383.0 722.0 -565.0 586.0 -677.0C593.0 -683.0 605.0 -693.0 610.0 -699.0C747.0 -578.0 814.0 -397.0 846.0 -150.0ZM267.0 -319.0C308.0 -380.0 347.0 -461.0 361.0 -515.0L387.0 -503.0C374.0 -448.0 334.0 -368.0 291.0 -307.0ZM126.0 -55.0C93.0 -103.0 41.0 -150.0 -9.0 -185.0C-1.0 -190.0 12.0 -201.0 16.0 -205.0C64.0 -169.0 119.0 -114.0 155.0 -64.0ZM310.0 -74.0C362.0 -109.0 420.0 -162.0 447.0 -200.0L468.0 -180.0C440.0 -144.0 381.0 -92.0 329.0 -57.0Z"/></g>
<g fill="black" opacity=".8" transform="translate(300 200) scale(0.1 -0.1)"><path d="M0.0 0.0V-29.0H451.0V0.0ZM154.0 204.0V-12.0H183.0V204.0ZM476.0 -29.0V-58.0H892.0V-29.0ZM281.0 204.0V-12.0H311.0V204.0ZM42.0 -212.0V-696.0H72.0V-242.0H421.0V-212.0ZM398.0 -212.0V-648.0C398.0 -657.0 395.0 -660.0 385.0 -660.0C376.0 -661.0 346.0 -661.0 310.0 -660.0C315.0 -668.0 320.0 -680.0 322.0 -687.0C367.0 -687.0 393.0 -687.0 408.0 -682.0C423.0 -676.0 427.0 -667.0 427.0 -648.0V-212.0ZM37.0 155.0C61.0 114.0 81.0 59.0 87.0 23.0L116.0 35.0C109.0 70.0 88.0 125.0 64.0 166.0ZM717.0 163.0C768.0 130.0 827.0 80.0 856.0 44.0L875.0 64.0C848.0 99.0 788.0 148.0 736.0 181.0ZM815.0 -146.0C786.0 -383.0 722.0 -565.0 586.0 -677.0C593.0 -683.0 605.0 -693.0 610.0 -699.0C747.0 -578.0 814.0 -397.0 846.0 -150.0ZM267.0 -319.0C308.0 -380.0 347.0 -461.0 361.0 -515.0L387.0 -503.0C374.0 -448.0 334.0 -368.0 291.0 -307.0ZM126.0 -55.0C93.0 -103.0 41.0 -150.0 -9.0 -185.0C-1.0 -190.0 12.0 -201.0 16.0 -205.0C64.0 -169.0 119.0 -114.0 155.0 -64.0ZM310.0 -74.0C362.0 -109.0 420.0 -162.0 447.0 -200.0L468.0 -180.0C440.0 -144.0 381.0 -92.0 329.0 -57.0Z"/></g>
<g fill="red" transform="translate(400 200) scale(0.1 -0.1)"><path d="M0.0 0.0V-118.0H491.0V0.0ZM128.0 193.0V-50.0H227.0V193.0ZM508.0 -28.0V-156.0H954.0V-28.0ZM254.0 193.0V-50.0H354.0V193.0ZM24.0 -245.0V-757.0H119.0V-359.0H440.0V-245.0ZM369.0 -245.0V-639.0C369.0 -648.0 367.0 -650.0 359.0 -650.0C352.0 -651.0 331.0 -651.0 311.0 -650.0C324.0 -677.0 335.0 -721.0 338.0 -750.0C381.0 -750.0 413.0 -748.0 440.0 -731.0C467.0 -714.0 472.0 -686.0 472.0 -641.0V-245.0ZM11.0 130.0C23.0 94.0 33.0 45.0 34.0 14.0L123.0 41.0C120.0 72.0 109.0 119.0 95.0 154.0ZM730.0 126.0C771.0 80.0 821.0 15.0 841.0 -27.0L943.0 41.0C919.0 83.0 867.0 144.0 825.0 187.0ZM807.0 -179.0C782.0 -395.0 719.0 -570.0 587.0 -671.0C614.0 -691.0 661.0 -738.0 679.0 -761.0C821.0 -640.0 895.0 -443.0 930.0 -194.0ZM272.0 -422.0C293.0 -477.0 312.0 -549.0 315.0 -596.0L393.0 -571.0C387.0 -525.0 368.0 -454.0 345.0 -400.0ZM68.0 -108.0C50.0 -142.0 19.0 -179.0 -14.0 -206.0C12.0 -221.0 57.0 -255.0 78.0 -274.0C114.0 -242.0 155.0 -188.0 179.0 -140.0ZM320.0 -148.0C346.0 -183.0 376.0 -230.0 387.0 -261.0L486.0 -210.0C473.0 -180.0 441.0 -135.0 414.0 -102.0Z"/></g>
<g fill="black" opacity=".8" transform="translate(400 200) scale(0.1 -0.1)"><path d="M0.0 0.0V-118.0H491.0V0.0ZM128.0 193.0V-50.0H227.0V193.0ZM508.0 -28.0V-156.0H954.0V-28.0ZM254.0 193.0V-50.0H354.0V193.0ZM24.0 -245.0V-757.0H119.0V-359.0H440.0V-245.0ZM369.0 -245.0V-639.0C369.0 -648.0 367.0 -650.0 359.0 -650.0C352.0 -651.0 331.0 -651.0 311.0 -650.0C324.0 -677.0 335.0 -721.0 338.0 -750.0C381.0 -750.0 413.0 -748.0 440.0 -731.0C467.0 -714.0 472.0 -686.0 472.0 -641.0V-245.0ZM11.0 130.0C23.0 94.0 33.0 45.0 34.0 14.0L123.0 41.0C120.0 72.0 109.0 119.0 95.0 154.0ZM730.0 126.0C771.0 80.0 821.0 15.0 841.0 -27.0L943.0 41.0C919.0 83.0 867.0 144.0 825.0 187.0ZM807.0 -179.0C782.0 -395.0 719.0 -570.0 587.0 -671.0C614.0 -691.0 661.0 -738.0 679.0 -761.0C821.0 -640.0 895.0 -443.0 930.0 -194.0ZM272.0 -422.0C293.0 -477.0 312.0 -549.0 315.0 -596.0L393.0 -571.0C387.0 -525.0 368.0 -454.0 345.0 -400.0ZM68.0 -108.0C50.0 -142.0 19.0 -179.0 -14.0 -206.0C12.0 -221.0 57.0 -255.0 78.0 -274.0C114.0 -242.0 155.0 -188.0 179.0 -140.0ZM320.0 -148.0C346.0 -183.0 376.0 -230.0 387.0 -261.0L486.0 -210.0C473.0 -180.0 441.0 -135.0 414.0 -102.0Z"/></g>
</svg>
