<?xml version="1.0" encoding="UTF-8"?>
<svg width="1700" height="1300" xmlns="http://www.w3.org/2000/svg">
<rect width="100%" height="100%" fill="white"/>
<g fill="green" transform="translate(100 100) scale(0.1 -0.1)"><path d="M0.0 0.0V-30.0H796.0V0.0Z"/></g>
<g fill="green" transform="translate(200 100) scale(0.1 -0.1)"><path d="M-0.0 0.0V-124.0H844.0V0.0Z"/></g>
<g fill="green" transform="translate(300 100) scale(0.1 -0.1)"><path d="M0.0 0.0V-30.0H802.0V0.0Z"/></g>
<g fill="green" transform="translate(400 100) scale(0.1 -0.1)"><path d="M-0.0 0.0V-125.0H850.0V0.0Z"/></g>
<g fill="red" transform="translate(100 200) scale(0.1 -0.1)"><path d="M0.0 0.0V-30.0H797.0V0.0Z"/></g>
<g fill="black" opacity=".8" transform="translate(100 200) scale(0.1 -0.1)"><path d="M0.0 0.0V-30.0H800.0V0.0Z"/></g>
<g fill="red" transform="translate(200 200) scale(0.1 -0.1)"><path d="M0.0 0.0V-130.0H849.0V0.0Z"/></g>
<g fill="black" opacity=".8" transform="translate(200 200) scale(0.1 -0.1)"><path d="M0.0 0.0V-125.0H848.0V0.0Z"/></g>
<g fill="red" transform="translate(300 200) scale(0.1 -0.1)"><path d="M0.0 0.0V-30.0H801.0V0.0Z"/></g>
<g fill="black" opacity=".8" transform="translate(300 200) scale(0.1 -0.1)"><path d="M0.0 0.0V-30.0H802.0V0.0Z"/></g>
<g fill="red" transform="translate(400 200) scale(0.1 -0.1)"><path d="M0.0 0.0V-127.0H849.0V0.0Z"/></g>
<g fill="black" opacity=".8" transform="translate(400 200) scale(0.1 -0.1)"><path d="M0.0 0.0V-125.0H850.0V0.0Z"/></g>
<g fill="red" transform="translate(500 200) scale(0.1 -0.1)"><path d="M0.0 0.0V-29.0H801.0V0.0Z"/></g>
<g fill="black" opacity=".8" transform="translate(500 200) scale(0.1 -0.1)"><path d="M0.0 0.0V-30.0H802.0V0.0Z"/></g>
<g fill="red" transform="translate(600 200) scale(0.1 -0.1)"><path d="M0.0 0.0V-128.0H849.0V0.0Z"/></g>
<g fill="black" opacity=".8" transform="translate(600 200) scale(0.1 -0.1)"><path d="M0.0 0.0V-125.0H850.0V0.0Z"/></g>
<g fill="red" transform="translate(700 200) scale(0.1 -0.1)"><path d="M0.0 0.0V-30.0H801.0V0.0Z"/></g>
<g fill="black" opacity=".8" transform="translate(700 200) scale(0.1 -0.1)"><path d="M0.0 0.0V-30.0H802.0V0.0Z"/></g>
<g fill="red" transform="translate(800 200) scale(0.1 -0.1)"><path d="M0.0 0.0V-128.0H849.0V0.0Z"/></g>
<g fill="black" opacity=".8" transform="translate(800 200) scale(0.1 -0.1)"><path d="M0.0 0.0V-125.0H850.0V0.0Z"/></g>
<g fill="red" transform="translate(900 200) scale(0.1 -0.1)"><path d="M0.0 0.0V-29.0H801.0V0.0Z"/></g>
<g fill="black" opacity=".8" transform="translate(900 200) scale(0.1 -0.1)"><path d="M0.0 0.0V-30.0H802.0V0.0Z"/></g>
<g fill="red" transform="translate(1000 200) scale(0.1 -0.1)"><path d="M0.0 0.0V-127.0H849.0V0.0Z"/></g>
<g fill="black" opacity=".8" transform="translate(1000 200) scale(0.1 -0.1)"><path d="M0.0 0.0V-125.0H850.0V0.0Z"/></g>
<g fill="red" transform="translate(1100 200) scale(0.1 -0.1)"><path d="M0.0 0.0V-31.0H801.0V0.0Z"/></g>
<g fill="black" opacity=".8" transform="translate(1100 200) scale(0.1 -0.1)"><path d="M0.0 0.0V-30.0H802.0V0.0Z"/></g>
<g fill="red" transform="translate(1200 200) scale(0.1 -0.1)"><path d="M0.0 0.0V-128.0H849.0V0.0Z"/></g>
<g fill="black" opacity=".8" transform="translate(1200 200) scale(0.1 -0.1)"><path d="M0.0 0.0V-125.0H850.0V0.0Z"/></g>
<g fill="red" transform="translate(1300 200) scale(0.1 -0.1)"><path d="M0.0 0.0V-31.0H797.0V0.0Z"/></g>
<g fill="black" opacity=".8" transform="translate(1300 200) scale(0.1 -0.1)"><path d="M0.0 0.0V-30.0H797.0V0.0Z"/></g>
<g fill="red" transform="translate(1400 200) scale(0.1 -0.1)"><path d="M0.0 0.0V-127.0H844.0V0.0Z"/></g>
<g fill="black" opacity=".8" transform="translate(1400 200) scale(0.1 -0.1)"><path d="M0.0 0.0V-124.0H845.0V0.0Z"/></g>
<g fill="red" transform="translate(1500 200) scale(0.1 -0.1)"><path d="M0.0 0.0V-31.0H801.0V0.0Z"/></g>
<g fill="black" opacity=".8" transform="translate(1500 200) scale(0.1 -0.1)"><path d="M0.0 0.0V-30.0H802.0V0.0Z"/></g>
<g fill="red" transform="translate(1600 200) scale(0.1 -0.1)"><path d="M0.0 0.0V-127.0H849.0V0.0Z"/></g>
<g fill="black" opacity=".8" transform="translate(1600 200) scale(0.1 -0.1)"><path d="M0.0 0.0V-125.0H850.0V0.0Z"/></g>
<g fill="red" transform="translate(100 300) scale(0.1 -0.1)"><path d="M0.0 0.0V-31.0H801.0V0.0Z"/></g>
<g fill="black" opacity=".8" transform="translate(100 300) scale(0.1 -0.1)"><path d="M0.0 0.0V-30.0H799.0V0.0Z"/></g>
<g fill="red" transform="translate(200 300) scale(0.1 -0.1)"><path d="M0.0 0.0V-129.0H844.0V0.0Z"/></g>
<g fill="black" opacity=".8" transform="translate(200 300) scale(0.1 -0.1)"><path d="M0.0 0.0V-125.0H847.0V0.0Z"/></g>
<g fill="red" transform="translate(300 300) scale(0.1 -0.1)"><path d="M0.0 0.0V-31.0H801.0V0.0Z"/></g>
<g fill="black" opacity=".8" transform="translate(300 300) scale(0.1 -0.1)"><path d="M0.0 0.0V-30.0H802.0V0.0Z"/></g>
<g fill="red" transform="translate(400 300) scale(0.1 -0.1)"><path d="M0.0 0.0V-125.0H849.0V0.0Z"/></g>
<g fill="black" opacity=".8" transform="translate(400 300) scale(0.1 -0.1)"><path d="M0.0 0.0V-125.0H850.0V0.0Z"/></g>
<g fill="red" transform="translate(500 300) scale(0.1 -0.1)"><path d="M0.0 0.0V-30.0H801.0V0.0Z"/></g>
<g fill="black" opacity=".8" transform="translate(500 300) scale(0.1 -0.1)"><path d="M0.0 0.0V-30.0H802.0V0.0Z"/></g>
<g fill="red" transform="translate(600 300) scale(0.1 -0.1)"><path d="M0.0 0.0V-126.0H849.0V0.0Z"/></g>
<g fill="black" opacity=".8" transform="translate(600 300) scale(0.1 -0.1)"><path d="M0.0 0.0V-125.0H850.0V0.0Z"/></g>
<g fill="red" transform="translate(700 300) scale(0.1 -0.1)"><path d="M0.0 0.0V-29.0H801.0V0.0Z"/></g>
<g fill="black" opacity=".8" transform="translate(700 300) scale(0.1 -0.1)"><path d="M0.0 0.0V-30.0H802.0V0.0Z"/></g>
<g fill="red" transform="translate(800 300) scale(0.1 -0.1)"><path d="M0.0 0.0V-126.0H849.0V0.0Z"/></g>
<g fill="black" opacity=".8" transform="translate(800 300) scale(0.1 -0.1)"><path d="M0.0 0.0V-125.0H850.0V0.0Z"/></g>
<g fill="red" transform="translate(900 300) scale(0.1 -0.1)"><path d="M0.0 0.0V-30.0H801.0V0.0Z"/></g>
<g fill="black" opacity=".8" transform="translate(900 300) scale(0.1 -0.1)"><path d="M0.0 0.0V-30.0H802.0V0.0Z"/></g>
<g fill="red" transform="translate(1000 300) scale(0.1 -0.1)"><path d="M0.0 0.0V-131.0H849.0V0.0Z"/></g>
<g fill="black" opacity=".8" transform="translate(1000 300) scale(0.1 -0.1)"><path d="M0.0 0.0V-125.0H850.0V0.0Z"/></g>
<g fill="red" transform="translate(1100 300) scale(0.1 -0.1)"><path d="M0.0 0.0V-29.0H797.0V0.0Z"/></g>
<g fill="black" opacity=".8" transform="translate(1100 300) scale(0.1 -0.1)"><path d="M0.0 0.0V-30.0H800.0V0.0Z"/></g>
<g fill="red" transform="translate(1200 300) scale(0.1 -0.1)"><path d="M0.0 0.0V-125.0H849.0V0.0Z"/></g>
<g fill="black" opacity=".8" transform="translate(1200 300) scale(0.1 -0.1)"><path d="M0.0 0.0V-125.0H848.0V0.0Z"/></g>
<g fill="red" transform="translate(1300 300) scale(0.1 -0.1)"><path d="M0.0 0.0V-28.0H801.0V0.0Z"/></g>
<g fill="black" opacity=".8" transform="translate(1300 300) scale(0.1 -0.1)"><path d="M0.0 0.0V-30.0H799.0V0.0Z"/></g>
<g fill="red" transform="translate(1400 300) scale(0.1 -0.1)"><path d="M0.0 0.0V-126.0H844.0V0.0Z"/></g>
<g fill="black" opacity=".8" transform="translate(1400 300) scale(0.1 -0.1)"><path d="M0.0 0.0V-124.0H847.0V0.0Z"/></g>
<g fill="red" transform="translate(1500 300) scale(0.1 -0.1)"><path d="M0.0 0.0V-28.0H801.0V0.0Z"/></g>
<g fill="black" opacity=".8" transform="translate(1500 300) scale(0.1 -0.1)"><path d="M0.0 0.0V-30.0H799.0V0.0Z"/></g>
<g fill="red" transform="translate(1600 300) scale(0.1 -0.1)"><path d="M0.0 0.0V-125.0H844.0V0.0Z"/></g>
<g fill="black" opacity=".8" transform="translate(1600 300) scale(0.1 -0.1)"><path d="M0.0 0.0V-124.0H847.0V0.0Z"/></g>
<g fill="red" transform="translate(100 400) scale(0.1 -0.1)"><path d="M0.0 0.0V-31.0H801.0V0.0Z"/></g>
<g fill="black" opacity=".8" transform="translate(100 400) scale(0.1 -0.1)"><path d="M0.0 0.0V-30.0H802.0V0.0Z"/></g>
<g fill="red" transform="translate(200 400) scale(0.1 -0.1)"><path d="M0.0 0.0V-126.0H849.0V0.0Z"/></g>
<g fill="black" opacity=".8" transform="translate(200 400) scale(0.1 -0.1)"><path d="M0.0 0.0V-125.0H850.0V0.0Z"/></g>
<g fill="red" transform="translate(300 400) scale(0.1 -0.1)"><path d="M0.0 0.0V-31.0H801.0V0.0Z"/></g>
<g fill="black" opacity=".8" transform="translate(300 400) scale(0.1 -0.1)"><path d="M0.0 0.0V-30.0H802.0V0.0Z"/></g>
<g fill="red" transform="translate(400 400) scale(0.1 -0.1)"><path d="M0.0 0.0V-130.0H849.0V0.0Z"/></g>
<g fill="black" opacity=".8" transform="translate(400 400) scale(0.1 -0.1)"><path d="M0.0 0.0V-125.0H850.0V0.0Z"/></g>
<g fill="red" transform="translate(500 400) scale(0.1 -0.1)"><path d="M0.0 0.0V-30.0H797.0V0.0Z"/></g>
<g fill="black" opacity=".8" transform="translate(500 400) scale(0.1 -0.1)"><path d="M0.0 0.0V-30.0H800.0V0.0Z"/></g>
<g fill="red" transform="translate(600 400) scale(0.1 -0.1)"><path d="M0.0 0.0V-128.0H849.0V0.0Z"/></g>
<g fill="black" opacity=".8" transform="translate(600 400) scale(0.1 -0.1)"><path d="M0.0 0.0V-125.0H848.0V0.0Z"/></g>
<g fill="red" transform="translate(700 400) scale(0.1 -0.1)"><path d="M0.0 0.0V-30.0H797.0V0.0Z"/></g>
<g fill="black" opacity=".8" transform="translate(700 400) scale(0.1 -0.1)"><path d="M0.0 0.0V-30.0H800.0V0.0Z"/></g>
<g fill="red" transform="translate(800 400) scale(0.1 -0.1)"><path d="M0.0 0.0V-126.0H849.0V0.0Z"/></g>
<g fill="black" opacity=".8" transform="translate(800 400) scale(0.1 -0.1)"><path d="M0.0 0.0V-125.0H848.0V0.0Z"/></g>
<g fill="red" transform="translate(900 400) scale(0.1 -0.1)"><path d="M0.0 0.0V-29.0H797.0V0.0Z"/></g>
<g fill="black" opacity=".8" transform="translate(900 400) scale(0.1 -0.1)"><path d="M0.0 0.0V-30.0H800.0V0.0Z"/></g>
<g fill="red" transform="translate(1000 400) scale(0.1 -0.1)"><path d="M0.0 0.0V-128.0H849.0V0.0Z"/></g>
<g fill="black" opacity=".8" transform="translate(1000 400) scale(0.1 -0.1)"><path d="M0.0 0.0V-125.0H848.0V0.0Z"/></g>
<g fill="red" transform="translate(1100 400) scale(0.1 -0.1)"><path d="M0.0 0.0V-30.0H797.0V0.0Z"/></g>
<g fill="black" opacity=".8" transform="translate(1100 400) scale(0.1 -0.1)"><path d="M0.0 0.0V-30.0H800.0V0.0Z"/></g>
<g fill="red" transform="translate(1200 400) scale(0.1 -0.1)"><path d="M0.0 0.0V-127.0H849.0V0.0Z"/></g>
<g fill="black" opacity=".8" transform="translate(1200 400) scale(0.1 -0.1)"><path d="M0.0 0.0V-125.0H848.0V0.0Z"/></g>
<g fill="red" transform="translate(1300 400) scale(0.1 -0.1)"><path d="M0.0 0.0V-30.0H801.0V0.0Z"/></g>
<g fill="black" opacity=".8" transform="translate(1300 400) scale(0.1 -0.1)"><path d="M0.0 0.0V-30.0H802.0V0.0Z"/></g>
<g fill="red" transform="translate(1400 400) scale(0.1 -0.1)"><path d="M0.0 0.0V-125.0H849.0V0.0Z"/></g>
<g fill="black" opacity=".8" transform="translate(1400 400) scale(0.1 -0.1)"><path d="M0.0 0.0V-125.0H850.0V0.0Z"/></g>
<g fill="red" transform="translate(1500 400) scale(0.1 -0.1)"><path d="M0.0 0.0V-29.0H801.0V0.0Z"/></g>
<g fill="black" opacity=".8" transform="translate(1500 400) scale(0.1 -0.1)"><path d="M0.0 0.0V-30.0H802.0V0.0Z"/></g>
<g fill="red" transform="translate(1600 400) scale(0.1 -0.1)"><path d="M0.0 0.0V-131.0H849.0V0.0Z"/></g>
<g fill="black" opacity=".8" transform="translate(1600 400) scale(0.1 -0.1)"><path d="M0.0 0.0V-125.0H850.0V0.0Z"/></g>
<g fill="red" transform="translate(100 500) scale(0.1 -0.1)"><path d="M0.0 0.0V-28.0H801.0V0.0Z"/></g>
<g fill="black" opacity=".8" transform="translate(100 500) scale(0.1 -0.1)"><path d="M0.0 0.0V-30.0H802.0V0.0Z"/></g>
<g fill="red" transform="translate(200 500) scale(0.1 -0.1)"><path d="M0.0 0.0V-126.0H849.0V0.0Z"/></g>
<g fill="black" opacity=".8" transform="translate(200 500) scale(0.1 -0.1)"><path d="M0.0 0.0V-125.0H850.0V0.0Z"/></g>
<g fill="red" transform="translate(300 500) scale(0.1 -0.1)"><path d="M0.0 0.0V-28.0H801.0V0.0Z"/></g>
<g fill="black" opacity=".8" transform="translate(300 500) scale(0.1 -0.1)"><path d="M0.0 0.0V-30.0H801.0V0.0Z"/></g>
<g fill="red" transform="translate(400 500) scale(0.1 -0.1)"><path d="M0.0 0.0V-124.0H849.0V0.0Z"/></g>
<g fill="black" opacity=".8" transform="translate(400 500) scale(0.1 -0.1)"><path d="M0.0 0.0V-125.0H849.0V0.0Z"/></g>
<g fill="red" transform="translate(500 500) scale(0.1 -0.1)"><path d="M0.0 0.0V-31.0H801.0V0.0Z"/></g>
<g fill="black" opacity=".8" transform="translate(500 500) scale(0.1 -0.1)"><path d="M0.0 0.0V-30.0H799.0V0.0Z"/></g>
<g fill="red" transform="translate(600 500) scale(0.1 -0.1)"><path d="M0.0 0.0V-125.0H844.0V0.0Z"/></g>
<g fill="black" opacity=".8" transform="translate(600 500) scale(0.1 -0.1)"><path d="M0.0 0.0V-124.0H847.0V0.0Z"/></g>
<g fill="red" transform="translate(700 500) scale(0.1 -0.1)"><path d="M0.0 0.0V-31.0H801.0V0.0Z"/></g>
<g fill="black" opacity=".8" transform="translate(700 500) scale(0.1 -0.1)"><path d="M0.0 0.0V-30.0H799.0V0.0Z"/></g>
<g fill="red" transform="translate(800 500) scale(0.1 -0.1)"><path d="M0.0 0.0V-126.0H844.0V0.0Z"/></g>
<g fill="black" opacity=".8" transform="translate(800 500) scale(0.1 -0.1)"><path d="M0.0 0.0V-124.0H847.0V0.0Z"/></g>
<g fill="red" transform="translate(900 500) scale(0.1 -0.1)"><path d="M0.0 0.0V-29.0H797.0V0.0Z"/></g>
<g fill="black" opacity=".8" transform="translate(900 500) scale(0.1 -0.1)"><path d="M0.0 0.0V-30.0H800.0V0.0Z"/></g>
<g fill="red" transform="translate(1000 500) scale(0.1 -0.1)"><path d="M0.0 0.0V-126.0H849.0V0.0Z"/></g>
<g fill="black" opacity=".8" transform="translate(1000 500) scale(0.1 -0.1)"><path d="M0.0 0.0V-125.0H848.0V0.0Z"/></g>
<g fill="red" transform="translate(1100 500) scale(0.1 -0.1)"><path d="M0.0 0.0V-28.0H801.0V0.0Z"/></g>
<g fill="black" opacity=".8" transform="translate(1100 500) scale(0.1 -0.1)"><path d="M0.0 0.0V-30.0H802.0V0.0Z"/></g>
<g fill="red" transform="translate(1200 500) scale(0.1 -0.1)"><path d="M0.0 0.0V-127.0H849.0V0.0Z"/></g>
<g fill="black" opacity=".8" transform="translate(1200 500) scale(0.1 -0.1)"><path d="M0.0 0.0V-125.0H850.0V0.0Z"/></g>
<g fill="red" transform="translate(1300 500) scale(0.1 -0.1)"><path d="M0.0 0.0V-29.0H801.0V0.0Z"/></g>
<g fill="black" opacity=".8" transform="translate(1300 500) scale(0.1 -0.1)"><path d="M0.0 0.0V-30.0H799.0V0.0Z"/></g>
<g fill="red" transform="translate(1400 500) scale(0.1 -0.1)"><path d="M0.0 0.0V-124.0H844.0V0.0Z"/></g>
<g fill="black" opacity=".8" transform="translate(1400 500) scale(0.1 -0.1)"><path d="M0.0 0.0V-124.0H847.0V0.0Z"/></g>
<g fill="red" transform="translate(1500 500) scale(0.1 -0.1)"><path d="M0.0 0.0V-29.0H797.0V0.0Z"/></g>
<g fill="black" opacity=".8" transform="translate(1500 500) scale(0.1 -0.1)"><path d="M0.0 0.0V-30.0H800.0V0.0Z"/></g>
<g fill="red" transform="translate(1600 500) scale(0.1 -0.1)"><path d="M0.0 0.0V-127.0H849.0V0.0Z"/></g>
<g fill="black" opacity=".8" transform="translate(1600 500) scale(0.1 -0.1)"><path d="M0.0 0.0V-125.0H848.0V0.0Z"/></g>
<g fill="red" transform="translate(100 600) scale(0.1 -0.1)"><path d="M0.0 0.0V-30.0H797.0V0.0Z"/></g>
<g fill="black" opacity=".8" transform="translate(100 600) scale(0.1 -0.1)"><path d="M0.0 0.0V-30.0H800.0V0.0Z"/></g>
<g fill="red" transform="translate(200 600) scale(0.1 -0.1)"><path d="M0.0 0.0V-129.0H849.0V0.0Z"/></g>
<g fill="black" opacity=".8" transform="translate(200 600) scale(0.1 -0.1)"><path d="M0.0 0.0V-125.0H848.0V0.0Z"/></g>
<g fill="red" transform="translate(300 600) scale(0.1 -0.1)"><path d="M0.0 0.0V-30.0H801.0V0.0Z"/></g>
<g fill="black" opacity=".8" transform="translate(300 600) scale(0.1 -0.1)"><path d="M0.0 0.0V-30.0H798.0V0.0Z"/></g>
<g fill="red" transform="translate(400 600) scale(0.1 -0.1)"><path d="M0.0 0.0V-120.0H844.0V0.0Z"/></g>
<g fill="black" opacity=".8" transform="translate(400 600) scale(0.1 -0.1)"><path d="M0.0 0.0V-124.0H846.0V0.0Z"/></g>
<g fill="red" transform="translate(500 600) scale(0.1 -0.1)"><path d="M0.0 0.0V-30.0H801.0V0.0Z"/></g>
<g fill="black" opacity=".8" transform="translate(500 600) scale(0.1 -0.1)"><path d="M0.0 0.0V-30.0H801.0V0.0Z"/></g>
<g fill="red" transform="translate(600 600) scale(0.1 -0.1)"><path d="M0.0 0.0V-115.0H849.0V0.0Z"/></g>
<g fill="black" opacity=".8" transform="translate(600 600) scale(0.1 -0.1)"><path d="M0.0 0.0V-125.0H849.0V0.0Z"/></g>
<g fill="red" transform="translate(700 600) scale(0.1 -0.1)"><path d="M0.0 0.0V-28.0H801.0V0.0Z"/></g>
<g fill="black" opacity=".8" transform="translate(700 600) scale(0.1 -0.1)"><path d="M0.0 0.0V-30.0H798.0V0.0Z"/></g>
<g fill="red" transform="translate(800 600) scale(0.1 -0.1)"><path d="M0.0 0.0V-115.0H844.0V0.0Z"/></g>
<g fill="black" opacity=".8" transform="translate(800 600) scale(0.1 -0.1)"><path d="M0.0 0.0V-124.0H846.0V0.0Z"/></g>
<g fill="red" transform="translate(900 600) scale(0.1 -0.1)"><path d="M0.0 0.0V-30.0H801.0V0.0Z"/></g>
<g fill="black" opacity=".8" transform="translate(900 600) scale(0.1 -0.1)"><path d="M0.0 0.0V-30.0H801.0V0.0Z"/></g>
<g fill="red" transform="translate(1000 600) scale(0.1 -0.1)"><path d="M0.0 0.0V-124.0H849.0V0.0Z"/></g>
<g fill="black" opacity=".8" transform="translate(1000 600) scale(0.1 -0.1)"><path d="M0.0 0.0V-125.0H849.0V0.0Z"/></g>
<g fill="red" transform="translate(1100 600) scale(0.1 -0.1)"><path d="M0.0 0.0V-29.0H801.0V0.0Z"/></g>
<g fill="black" opacity=".8" transform="translate(1100 600) scale(0.1 -0.1)"><path d="M0.0 0.0V-30.0H801.0V0.0Z"/></g>
<g fill="red" transform="translate(1200 600) scale(0.1 -0.1)"><path d="M0.0 0.0V-116.0H849.0V0.0Z"/></g>
<g fill="black" opacity=".8" transform="translate(1200 600) scale(0.1 -0.1)"><path d="M0.0 0.0V-125.0H849.0V0.0Z"/></g>
<g fill="red" transform="translate(1300 600) scale(0.1 -0.1)"><path d="M0.0 0.0V-30.0H801.0V0.0Z"/></g>
<g fill="black" opacity=".8" transform="translate(1300 600) scale(0.1 -0.1)"><path d="M0.0 0.0V-30.0H801.0V0.0Z"/></g>
<g fill="red" transform="translate(1400 600) scale(0.1 -0.1)"><path d="M0.0 0.0V-121.0H849.0V0.0Z"/></g>
<g fill="black" opacity=".8" transform="translate(1400 600) scale(0.1 -0.1)"><path d="M0.0 0.0V-125.0H849.0V0.0Z"/></g>
<g fill="red" transform="translate(1500 600) scale(0.1 -0.1)"><path d="M0.0 0.0V-29.0H801.0V0.0Z"/></g>
<g fill="black" opacity=".8" transform="translate(1500 600) scale(0.1 -0.1)"><path d="M0.0 0.0V-30.0H798.0V0.0Z"/></g>
<g fill="red" transform="translate(1600 600) scale(0.1 -0.1)"><path d="M0.0 0.0V-115.0H844.0V0.0Z"/></g>
<g fill="black" opacity=".8" transform="translate(1600 600) scale(0.1 -0.1)"><path d="M0.0 0.0V-124.0H846.0V0.0Z"/></g>
<g fill="red" transform="translate(100 700) scale(0.1 -0.1)"><path d="M0.0 0.0V-30.0H801.0V0.0Z"/></g>
<g fill="black" opacity=".8" transform="translate(100 700) scale(0.1 -0.1)"><path d="M0.0 0.0V-30.0H799.0V0.0Z"/></g>
<g fill="red" transform="translate(200 700) scale(0.1 -0.1)"><path d="M0.0 0.0V-125.0H844.0V0.0Z"/></g>
<g fill="black" opacity=".8" transform="translate(200 700) scale(0.1 -0.1)"><path d="M0.0 0.0V-124.0H847.0V0.0Z"/></g>
<g fill="red" transform="translate(300 700) scale(0.1 -0.1)"><path d="M0.0 0.0V-30.0H801.0V0.0Z"/></g>
<g fill="black" opacity=".8" transform="translate(300 700) scale(0.1 -0.1)"><path d="M0.0 0.0V-30.0H802.0V0.0Z"/></g>
<g fill="red" transform="translate(400 700) scale(0.1 -0.1)"><path d="M0.0 0.0V-130.0H849.0V0.0Z"/></g>
<g fill="black" opacity=".8" transform="translate(400 700) scale(0.1 -0.1)"><path d="M0.0 0.0V-125.0H850.0V0.0Z"/></g>
<g fill="red" transform="translate(500 700) scale(0.1 -0.1)"><path d="M0.0 0.0V-32.0H801.0V0.0Z"/></g>
<g fill="black" opacity=".8" transform="translate(500 700) scale(0.1 -0.1)"><path d="M0.0 0.0V-30.0H799.0V0.0Z"/></g>
<g fill="red" transform="translate(600 700) scale(0.1 -0.1)"><path d="M0.0 0.0V-125.0H844.0V0.0Z"/></g>
<g fill="black" opacity=".8" transform="translate(600 700) scale(0.1 -0.1)"><path d="M0.0 0.0V-124.0H847.0V0.0Z"/></g>
<g fill="red" transform="translate(700 700) scale(0.1 -0.1)"><path d="M0.0 0.0V-30.0H797.0V0.0Z"/></g>
<g fill="black" opacity=".8" transform="translate(700 700) scale(0.1 -0.1)"><path d="M0.0 0.0V-30.0H800.0V0.0Z"/></g>
<g fill="red" transform="translate(800 700) scale(0.1 -0.1)"><path d="M0.0 0.0V-125.0H849.0V0.0Z"/></g>
<g fill="black" opacity=".8" transform="translate(800 700) scale(0.1 -0.1)"><path d="M0.0 0.0V-125.0H848.0V0.0Z"/></g>
<g fill="red" transform="translate(900 700) scale(0.1 -0.1)"><path d="M0.0 0.0V-31.0H801.0V0.0Z"/></g>
<g fill="black" opacity=".8" transform="translate(900 700) scale(0.1 -0.1)"><path d="M0.0 0.0V-30.0H799.0V0.0Z"/></g>
<g fill="red" transform="translate(1000 700) scale(0.1 -0.1)"><path d="M0.0 0.0V-124.0H844.0V0.0Z"/></g>
<g fill="black" opacity=".8" transform="translate(1000 700) scale(0.1 -0.1)"><path d="M0.0 0.0V-124.0H847.0V0.0Z"/></g>
<g fill="red" transform="translate(1100 700) scale(0.1 -0.1)"><path d="M0.0 0.0V-30.0H801.0V0.0Z"/></g>
<g fill="black" opacity=".8" transform="translate(1100 700) scale(0.1 -0.1)"><path d="M0.0 0.0V-30.0H799.0V0.0Z"/></g>
<g fill="red" transform="translate(1200 700) scale(0.1 -0.1)"><path d="M0.0 0.0V-126.0H844.0V0.0Z"/></g>
<g fill="black" opacity=".8" transform="translate(1200 700) scale(0.1 -0.1)"><path d="M0.0 0.0V-124.0H847.0V0.0Z"/></g>
<g fill="red" transform="translate(1300 700) scale(0.1 -0.1)"><path d="M0.0 0.0V-32.0H801.0V0.0Z"/></g>
<g fill="black" opacity=".8" transform="translate(1300 700) scale(0.1 -0.1)"><path d="M0.0 0.0V-30.0H799.0V0.0Z"/></g>
<g fill="red" transform="translate(1400 700) scale(0.1 -0.1)"><path d="M0.0 0.0V-124.0H844.0V0.0Z"/></g>
<g fill="black" opacity=".8" transform="translate(1400 700) scale(0.1 -0.1)"><path d="M0.0 0.0V-124.0H847.0V0.0Z"/></g>
<g fill="red" transform="translate(1500 700) scale(0.1 -0.1)"><path d="M0.0 0.0V-29.0H801.0V0.0Z"/></g>
<g fill="black" opacity=".8" transform="translate(1500 700) scale(0.1 -0.1)"><path d="M0.0 0.0V-30.0H799.0V0.0Z"/></g>
<g fill="red" transform="translate(1600 700) scale(0.1 -0.1)"><path d="M0.0 0.0V-126.0H844.0V0.0Z"/></g>
<g fill="black" opacity=".8" transform="translate(1600 700) scale(0.1 -0.1)"><path d="M0.0 0.0V-124.0H847.0V0.0Z"/></g>
<g fill="red" transform="translate(100 800) scale(0.1 -0.1)"><path d="M0.0 0.0V-31.0H801.0V0.0Z"/></g>
<g fill="black" opacity=".8" transform="translate(100 800) scale(0.1 -0.1)"><path d="M0.0 0.0V-30.0H799.0V0.0Z"/></g>
<g fill="red" transform="translate(200 800) scale(0.1 -0.1)"><path d="M0.0 0.0V-127.0H844.0V0.0Z"/></g>
<g fill="black" opacity=".8" transform="translate(200 800) scale(0.1 -0.1)"><path d="M0.0 0.0V-125.0H847.0V0.0Z"/></g>
<g fill="red" transform="translate(300 800) scale(0.1 -0.1)"><path d="M0.0 0.0V-31.0H801.0V0.0Z"/></g>
<g fill="black" opacity=".8" transform="translate(300 800) scale(0.1 -0.1)"><path d="M0.0 0.0V-30.0H801.0V0.0Z"/></g>
<g fill="red" transform="translate(400 800) scale(0.1 -0.1)"><path d="M0.0 0.0V-124.0H849.0V0.0Z"/></g>
<g fill="black" opacity=".8" transform="translate(400 800) scale(0.1 -0.1)"><path d="M0.0 0.0V-125.0H849.0V0.0Z"/></g>
<g fill="red" transform="translate(500 800) scale(0.1 -0.1)"><path d="M0.0 0.0V-30.0H797.0V0.0Z"/></g>
<g fill="black" opacity=".8" transform="translate(500 800) scale(0.1 -0.1)"><path d="M0.0 0.0V-30.0H799.0V0.0Z"/></g>
<g fill="red" transform="translate(600 800) scale(0.1 -0.1)"><path d="M0.0 0.0V-124.0H849.0V0.0Z"/></g>
<g fill="black" opacity=".8" transform="translate(600 800) scale(0.1 -0.1)"><path d="M0.0 0.0V-125.0H847.0V0.0Z"/></g>
<g fill="red" transform="translate(700 800) scale(0.1 -0.1)"><path d="M0.0 0.0V-30.0H797.0V0.0Z"/></g>
<g fill="black" opacity=".8" transform="translate(700 800) scale(0.1 -0.1)"><path d="M0.0 0.0V-30.0H799.0V0.0Z"/></g>
<g fill="red" transform="translate(800 800) scale(0.1 -0.1)"><path d="M0.0 0.0V-123.0H849.0V0.0Z"/></g>
<g fill="black" opacity=".8" transform="translate(800 800) scale(0.1 -0.1)"><path d="M0.0 0.0V-125.0H847.0V0.0Z"/></g>
<g fill="red" transform="translate(900 800) scale(0.1 -0.1)"><path d="M0.0 0.0V-29.0H797.0V0.0Z"/></g>
<g fill="black" opacity=".8" transform="translate(900 800) scale(0.1 -0.1)"><path d="M0.0 0.0V-30.0H799.0V0.0Z"/></g>
<g fill="red" transform="translate(1000 800) scale(0.1 -0.1)"><path d="M0.0 0.0V-119.0H849.0V0.0Z"/></g>
<g fill="black" opacity=".8" transform="translate(1000 800) scale(0.1 -0.1)"><path d="M0.0 0.0V-125.0H847.0V0.0Z"/></g>
<g fill="red" transform="translate(1100 800) scale(0.1 -0.1)"><path d="M0.0 0.0V-30.0H797.0V0.0Z"/></g>
<g fill="black" opacity=".8" transform="translate(1100 800) scale(0.1 -0.1)"><path d="M0.0 0.0V-30.0H799.0V0.0Z"/></g>
<g fill="red" transform="translate(1200 800) scale(0.1 -0.1)"><path d="M0.0 0.0V-120.0H849.0V0.0Z"/></g>
<g fill="black" opacity=".8" transform="translate(1200 800) scale(0.1 -0.1)"><path d="M0.0 0.0V-125.0H847.0V0.0Z"/></g>
<g fill="red" transform="translate(1300 800) scale(0.1 -0.1)"><path d="M0.0 0.0V-30.0H801.0V0.0Z"/></g>
<g fill="black" opacity=".8" transform="translate(1300 800) scale(0.1 -0.1)"><path d="M0.0 0.0V-30.0H799.0V0.0Z"/></g>
<g fill="red" transform="translate(1400 800) scale(0.1 -0.1)"><path d="M0.0 0.0V-127.0H844.0V0.0Z"/></g>
<g fill="black" opacity=".8" transform="translate(1400 800) scale(0.1 -0.1)"><path d="M0.0 0.0V-125.0H847.0V0.0Z"/></g>
<g fill="red" transform="translate(1500 800) scale(0.1 -0.1)"><path d="M0.0 0.0V-30.0H801.0V0.0Z"/></g>
<g fill="black" opacity=".8" transform="translate(1500 800) scale(0.1 -0.1)"><path d="M0.0 0.0V-30.0H799.0V0.0Z"/></g>
<g fill="red" transform="translate(1600 800) scale(0.1 -0.1)"><path d="M0.0 0.0V-124.0H844.0V0.0Z"/></g>
<g fill="black" opacity=".8" transform="translate(1600 800) scale(0.1 -0.1)"><path d="M0.0 0.0V-124.0H847.0V0.0Z"/></g>
<g fill="red" transform="translate(100 900) scale(0.1 -0.1)"><path d="M0.0 0.0V-30.0H797.0V0.0Z"/></g>
<g fill="black" opacity=".8" transform="translate(100 900) scale(0.1 -0.1)"><path d="M0.0 0.0V-30.0H799.0V0.0Z"/></g>
<g fill="red" transform="translate(200 900) scale(0.1 -0.1)"><path d="M0.0 0.0V-115.0H849.0V0.0Z"/></g>
<g fill="black" opacity=".8" transform="translate(200 900) scale(0.1 -0.1)"><path d="M0.0 0.0V-124.0H847.0V0.0Z"/></g>
<g fill="red" transform="translate(300 900) scale(0.1 -0.1)"><path d="M0.0 0.0V-30.0H797.0V0.0Z"/></g>
<g fill="black" opacity=".8" transform="translate(300 900) scale(0.1 -0.1)"><path d="M0.0 0.0V-30.0H796.0V0.0Z"/></g>
<g fill="red" transform="translate(400 900) scale(0.1 -0.1)"><path d="M0.0 0.0V-116.0H844.0V0.0Z"/></g>
<g fill="black" opacity=".8" transform="translate(400 900) scale(0.1 -0.1)"><path d="M0.0 0.0V-124.0H844.0V0.0Z"/></g>
<g fill="red" transform="translate(500 900) scale(0.1 -0.1)"><path d="M0.0 0.0V-30.0H797.0V0.0Z"/></g>
<g fill="black" opacity=".8" transform="translate(500 900) scale(0.1 -0.1)"><path d="M0.0 0.0V-30.0H796.0V0.0Z"/></g>
<g fill="red" transform="translate(600 900) scale(0.1 -0.1)"><path d="M0.0 0.0V-117.0H844.0V0.0Z"/></g>
<g fill="black" opacity=".8" transform="translate(600 900) scale(0.1 -0.1)"><path d="M0.0 0.0V-124.0H844.0V0.0Z"/></g>
<g fill="red" transform="translate(700 900) scale(0.1 -0.1)"><path d="M0.0 0.0V-29.0H797.0V0.0Z"/></g>
<g fill="black" opacity=".8" transform="translate(700 900) scale(0.1 -0.1)"><path d="M0.0 0.0V-30.0H796.0V0.0Z"/></g>
<g fill="red" transform="translate(800 900) scale(0.1 -0.1)"><path d="M0.0 0.0V-117.0H844.0V0.0Z"/></g>
<g fill="black" opacity=".8" transform="translate(800 900) scale(0.1 -0.1)"><path d="M0.0 0.0V-124.0H844.0V0.0Z"/></g>
<g fill="red" transform="translate(900 900) scale(0.1 -0.1)"><path d="M0.0 0.0V-30.0H797.0V0.0Z"/></g>
<g fill="black" opacity=".8" transform="translate(900 900) scale(0.1 -0.1)"><path d="M0.0 0.0V-30.0H796.0V0.0Z"/></g>
<g fill="red" transform="translate(1000 900) scale(0.1 -0.1)"><path d="M0.0 0.0V-114.0H844.0V0.0Z"/></g>
<g fill="black" opacity=".8" transform="translate(1000 900) scale(0.1 -0.1)"><path d="M0.0 0.0V-124.0H844.0V0.0Z"/></g>
<g fill="red" transform="translate(1100 900) scale(0.1 -0.1)"><path d="M0.0 0.0V-30.0H797.0V0.0Z"/></g>
<g fill="black" opacity=".8" transform="translate(1100 900) scale(0.1 -0.1)"><path d="M0.0 0.0V-30.0H800.0V0.0Z"/></g>
<g fill="red" transform="translate(1200 900) scale(0.1 -0.1)"><path d="M0.0 0.0V-131.0H849.0V0.0Z"/></g>
<g fill="black" opacity=".8" transform="translate(1200 900) scale(0.1 -0.1)"><path d="M0.0 0.0V-125.0H848.0V0.0Z"/></g>
<g fill="red" transform="translate(1300 900) scale(0.1 -0.1)"><path d="M0.0 0.0V-29.0H801.0V0.0Z"/></g>
<g fill="black" opacity=".8" transform="translate(1300 900) scale(0.1 -0.1)"><path d="M0.0 0.0V-30.0H799.0V0.0Z"/></g>
<g fill="red" transform="translate(1400 900) scale(0.1 -0.1)"><path d="M0.0 0.0V-130.0H844.0V0.0Z"/></g>
<g fill="black" opacity=".8" transform="translate(1400 900) scale(0.1 -0.1)"><path d="M0.0 0.0V-125.0H847.0V0.0Z"/></g>
<g fill="red" transform="translate(1500 900) scale(0.1 -0.1)"><path d="M0.0 0.0V-29.0H801.0V0.0Z"/></g>
<g fill="black" opacity=".8" transform="translate(1500 900) scale(0.1 -0.1)"><path d="M0.0 0.0V-30.0H799.0V0.0Z"/></g>
<g fill="red" transform="translate(1600 900) scale(0.1 -0.1)"><path d="M0.0 0.0V-128.0H844.0V0.0Z"/></g>
<g fill="black" opacity=".8" transform="translate(1600 900) scale(0.1 -0.1)"><path d="M0.0 0.0V-125.0H847.0V0.0Z"/></g>
<g fill="red" transform="translate(100 1000) scale(0.1 -0.1)"><path d="M0.0 0.0V-29.0H797.0V0.0Z"/></g>
<g fill="black" opacity=".8" transform="translate(100 1000) scale(0.1 -0.1)"><path d="M0.0 0.0V-30.0H797.0V0.0Z"/></g>
<g fill="red" transform="translate(200 1000) scale(0.1 -0.1)"><path d="M0.0 0.0V-125.0H844.0V0.0Z"/></g>
<g fill="black" opacity=".8" transform="translate(200 1000) scale(0.1 -0.1)"><path d="M0.0 0.0V-124.0H845.0V0.0Z"/></g>
<g fill="red" transform="translate(300 1000) scale(0.1 -0.1)"><path d="M0.0 0.0V-31.0H801.0V0.0Z"/></g>
<g fill="black" opacity=".8" transform="translate(300 1000) scale(0.1 -0.1)"><path d="M0.0 0.0V-30.0H798.0V0.0Z"/></g>
<g fill="red" transform="translate(400 1000) scale(0.1 -0.1)"><path d="M0.0 0.0V-120.0H844.0V0.0Z"/></g>
<g fill="black" opacity=".8" transform="translate(400 1000) scale(0.1 -0.1)"><path d="M0.0 0.0V-124.0H846.0V0.0Z"/></g>
<g fill="red" transform="translate(500 1000) scale(0.1 -0.1)"><path d="M0.0 0.0V-31.0H801.0V0.0Z"/></g>
<g fill="black" opacity=".8" transform="translate(500 1000) scale(0.1 -0.1)"><path d="M0.0 0.0V-30.0H799.0V0.0Z"/></g>
<g fill="red" transform="translate(600 1000) scale(0.1 -0.1)"><path d="M0.0 0.0V-123.0H844.0V0.0Z"/></g>
<g fill="black" opacity=".8" transform="translate(600 1000) scale(0.1 -0.1)"><path d="M0.0 0.0V-124.0H847.0V0.0Z"/></g>
<g fill="red" transform="translate(700 1000) scale(0.1 -0.1)"><path d="M0.0 0.0V-31.0H801.0V0.0Z"/></g>
<g fill="black" opacity=".8" transform="translate(700 1000) scale(0.1 -0.1)"><path d="M0.0 0.0V-30.0H799.0V0.0Z"/></g>
<g fill="red" transform="translate(800 1000) scale(0.1 -0.1)"><path d="M0.0 0.0V-130.0H844.0V0.0Z"/></g>
<g fill="black" opacity=".8" transform="translate(800 1000) scale(0.1 -0.1)"><path d="M0.0 0.0V-125.0H847.0V0.0Z"/></g>
<g fill="red" transform="translate(900 1000) scale(0.1 -0.1)"><path d="M0.0 0.0V-29.0H801.0V0.0Z"/></g>
<g fill="black" opacity=".8" transform="translate(900 1000) scale(0.1 -0.1)"><path d="M0.0 0.0V-30.0H799.0V0.0Z"/></g>
<g fill="red" transform="translate(1000 1000) scale(0.1 -0.1)"><path d="M0.0 0.0V-129.0H844.0V0.0Z"/></g>
<g fill="black" opacity=".8" transform="translate(1000 1000) scale(0.1 -0.1)"><path d="M0.0 0.0V-125.0H847.0V0.0Z"/></g>
<g fill="red" transform="translate(1100 1000) scale(0.1 -0.1)"><path d="M0.0 0.0V-29.0H801.0V0.0Z"/></g>
<g fill="black" opacity=".8" transform="translate(1100 1000) scale(0.1 -0.1)"><path d="M0.0 0.0V-30.0H799.0V0.0Z"/></g>
<g fill="red" transform="translate(1200 1000) scale(0.1 -0.1)"><path d="M0.0 0.0V-123.0H844.0V0.0Z"/></g>
<g fill="black" opacity=".8" transform="translate(1200 1000) scale(0.1 -0.1)"><path d="M0.0 0.0V-124.0H847.0V0.0Z"/></g>
<g fill="red" transform="translate(1300 1000) scale(0.1 -0.1)"><path d="M0.0 0.0V-28.0H801.0V0.0Z"/></g>
<g fill="black" opacity=".8" transform="translate(1300 1000) scale(0.1 -0.1)"><path d="M0.0 0.0V-30.0H799.0V0.0Z"/></g>
<g fill="red" transform="translate(1400 1000) scale(0.1 -0.1)"><path d="M0.0 0.0V-129.0H844.0V0.0Z"/></g>
<g fill="black" opacity=".8" transform="translate(1400 1000) scale(0.1 -0.1)"><path d="M0.0 0.0V-125.0H847.0V0.0Z"/></g>
<g fill="red" transform="translate(1500 1000) scale(0.1 -0.1)"><path d="M0.0 0.0V-28.0H801.0V0.0Z"/></g>
<g fill="black" opacity=".8" transform="translate(1500 1000) scale(0.1 -0.1)"><path d="M0.0 0.0V-30.0H801.0V0.0Z"/></g>
<g fill="red" transform="translate(1600 1000) scale(0.1 -0.1)"><path d="M0.0 0.0V-115.0H849.0V0.0Z"/></g>
<g fill="black" opacity=".8" transform="translate(1600 1000) scale(0.1 -0.1)"><path d="M0.0 0.0V-125.0H849.0V0.0Z"/></g>
<g fill="red" transform="translate(100 1100) scale(0.1 -0.1)"><path d="M0.0 0.0V-30.0H797.0V0.0Z"/></g>
<g fill="black" opacity=".8" transform="translate(100 1100) scale(0.1 -0.1)"><path d="M0.0 0.0V-30.0H796.0V0.0Z"/></g>
<g fill="red" transform="translate(200 1100) scale(0.1 -0.1)"><path d="M0.0 0.0V-119.0H844.0V0.0Z"/></g>
<g fill="black" opacity=".8" transform="translate(200 1100) scale(0.1 -0.1)"><path d="M0.0 0.0V-124.0H844.0V0.0Z"/></g>
<g fill="red" transform="translate(300 1100) scale(0.1 -0.1)"><path d="M0.0 0.0V-29.0H801.0V0.0Z"/></g>
<g fill="black" opacity=".8" transform="translate(300 1100) scale(0.1 -0.1)"><path d="M0.0 0.0V-30.0H801.0V0.0Z"/></g>
<g fill="red" transform="translate(400 1100) scale(0.1 -0.1)"><path d="M0.0 0.0V-115.0H849.0V0.0Z"/></g>
<g fill="black" opacity=".8" transform="translate(400 1100) scale(0.1 -0.1)"><path d="M0.0 0.0V-125.0H849.0V0.0Z"/></g>
<g fill="red" transform="translate(500 1100) scale(0.1 -0.1)"><path d="M0.0 0.0V-29.0H801.0V0.0Z"/></g>
<g fill="black" opacity=".8" transform="translate(500 1100) scale(0.1 -0.1)"><path d="M0.0 0.0V-30.0H801.0V0.0Z"/></g>
<g fill="red" transform="translate(600 1100) scale(0.1 -0.1)"><path d="M0.0 0.0V-124.0H849.0V0.0Z"/></g>
<g fill="black" opacity=".8" transform="translate(600 1100) scale(0.1 -0.1)"><path d="M0.0 0.0V-125.0H849.0V0.0Z"/></g>
<g fill="red" transform="translate(700 1100) scale(0.1 -0.1)"><path d="M0.0 0.0V-29.0H796.0V0.0Z"/></g>
<g fill="black" opacity=".8" transform="translate(700 1100) scale(0.1 -0.1)"><path d="M0.0 0.0V-30.0H799.0V0.0Z"/></g>
<g fill="red" transform="translate(800 1100) scale(0.1 -0.1)"><path d="M0.0 0.0V-127.0H849.0V0.0Z"/></g>
<g fill="black" opacity=".8" transform="translate(800 1100) scale(0.1 -0.1)"><path d="M0.0 0.0V-125.0H847.0V0.0Z"/></g>
<g fill="red" transform="translate(900 1100) scale(0.1 -0.1)"><path d="M0.0 0.0V-29.0H796.0V0.0Z"/></g>
<g fill="black" opacity=".8" transform="translate(900 1100) scale(0.1 -0.1)"><path d="M0.0 0.0V-30.0H799.0V0.0Z"/></g>
<g fill="red" transform="translate(1000 1100) scale(0.1 -0.1)"><path d="M0.0 0.0V-128.0H849.0V0.0Z"/></g>
<g fill="black" opacity=".8" transform="translate(1000 1100) scale(0.1 -0.1)"><path d="M0.0 0.0V-125.0H847.0V0.0Z"/></g>
<g fill="red" transform="translate(1100 1100) scale(0.1 -0.1)"><path d="M0.0 0.0V-30.0H796.0V0.0Z"/></g>
<g fill="black" opacity=".8" transform="translate(1100 1100) scale(0.1 -0.1)"><path d="M0.0 0.0V-30.0H799.0V0.0Z"/></g>
<g fill="red" transform="translate(1200 1100) scale(0.1 -0.1)"><path d="M0.0 0.0V-127.0H849.0V0.0Z"/></g>
<g fill="black" opacity=".8" transform="translate(1200 1100) scale(0.1 -0.1)"><path d="M0.0 0.0V-125.0H847.0V0.0Z"/></g>
<g fill="red" transform="translate(1300 1100) scale(0.1 -0.1)"><path d="M0.0 0.0V-30.0H796.0V0.0Z"/></g>
<g fill="black" opacity=".8" transform="translate(1300 1100) scale(0.1 -0.1)"><path d="M0.0 0.0V-30.0H799.0V0.0Z"/></g>
<g fill="red" transform="translate(1400 1100) scale(0.1 -0.1)"><path d="M0.0 0.0V-124.0H849.0V0.0Z"/></g>
<g fill="black" opacity=".8" transform="translate(1400 1100) scale(0.1 -0.1)"><path d="M0.0 0.0V-124.0H847.0V0.0Z"/></g>
<g fill="red" transform="translate(1500 1100) scale(0.1 -0.1)"><path d="M0.0 0.0V-30.0H796.0V0.0Z"/></g>
<g fill="black" opacity=".8" transform="translate(1500 1100) scale(0.1 -0.1)"><path d="M0.0 0.0V-30.0H799.0V0.0Z"/></g>
<g fill="red" transform="translate(1600 1100) scale(0.1 -0.1)"><path d="M0.0 0.0V-128.0H849.0V0.0Z"/></g>
<g fill="black" opacity=".8" transform="translate(1600 1100) scale(0.1 -0.1)"><path d="M0.0 0.0V-125.0H847.0V0.0Z"/></g>
<g fill="red" transform="translate(100 1200) scale(0.1 -0.1)"><path d="M0.0 0.0V-30.0H801.0V0.0Z"/></g>
<g fill="black" opacity=".8" transform="translate(100 1200) scale(0.1 -0.1)"><path d="M0.0 0.0V-30.0H802.0V0.0Z"/></g>
<g fill="red" transform="translate(200 1200) scale(0.1 -0.1)"><path d="M0.0 0.0V-129.0H849.0V0.0Z"/></g>
<g fill="black" opacity=".8" transform="translate(200 1200) scale(0.1 -0.1)"><path d="M0.0 0.0V-125.0H850.0V0.0Z"/></g>
<g fill="red" transform="translate(300 1200) scale(0.1 -0.1)"><path d="M0.0 0.0V-29.0H797.0V0.0Z"/></g>
<g fill="black" opacity=".8" transform="translate(300 1200) scale(0.1 -0.1)"><path d="M0.0 0.0V-30.0H799.0V0.0Z"/></g>
<g fill="red" transform="translate(400 1200) scale(0.1 -0.1)"><path d="M0.0 0.0V-124.0H849.0V0.0Z"/></g>
<g fill="black" opacity=".8" transform="translate(400 1200) scale(0.1 -0.1)"><path d="M0.0 0.0V-125.0H847.0V0.0Z"/></g>
<g fill="red" transform="translate(500 1200) scale(0.1 -0.1)"><path d="M0.0 0.0V-29.0H797.0V0.0Z"/></g>
<g fill="black" opacity=".8" transform="translate(500 1200) scale(0.1 -0.1)"><path d="M0.0 0.0V-30.0H799.0V0.0Z"/></g>
<g fill="red" transform="translate(600 1200) scale(0.1 -0.1)"><path d="M0.0 0.0V-123.0H849.0V0.0Z"/></g>
<g fill="black" opacity=".8" transform="translate(600 1200) scale(0.1 -0.1)"><path d="M0.0 0.0V-125.0H847.0V0.0Z"/></g>
<g fill="red" transform="translate(700 1200) scale(0.1 -0.1)"><path d="M0.0 0.0V-30.0H797.0V0.0Z"/></g>
<g fill="black" opacity=".8" transform="translate(700 1200) scale(0.1 -0.1)"><path d="M0.0 0.0V-30.0H799.0V0.0Z"/></g>
<g fill="red" transform="translate(800 1200) scale(0.1 -0.1)"><path d="M0.0 0.0V-113.0H849.0V0.0Z"/></g>
<g fill="black" opacity=".8" transform="translate(800 1200) scale(0.1 -0.1)"><path d="M0.0 0.0V-124.0H847.0V0.0Z"/></g>
<g fill="red" transform="translate(900 1200) scale(0.1 -0.1)"><path d="M0.0 0.0V-30.0H797.0V0.0Z"/></g>
<g fill="black" opacity=".8" transform="translate(900 1200) scale(0.1 -0.1)"><path d="M0.0 0.0V-30.0H799.0V0.0Z"/></g>
<g fill="red" transform="translate(1000 1200) scale(0.1 -0.1)"><path d="M0.0 0.0V-114.0H849.0V0.0Z"/></g>
<g fill="black" opacity=".8" transform="translate(1000 1200) scale(0.1 -0.1)"><path d="M0.0 0.0V-124.0H847.0V0.0Z"/></g>
<g fill="red" transform="translate(1100 1200) scale(0.1 -0.1)"><path d="M0.0 0.0V-29.0H797.0V0.0Z"/></g>
<g fill="black" opacity=".8" transform="translate(1100 1200) scale(0.1 -0.1)"><path d="M0.0 0.0V-30.0H799.0V0.0Z"/></g>
<g fill="red" transform="translate(1200 1200) scale(0.1 -0.1)"><path d="M0.0 0.0V-114.0H849.0V0.0Z"/></g>
<g fill="black" opacity=".8" transform="translate(1200 1200) scale(0.1 -0.1)"><path d="M0.0 0.0V-124.0H847.0V0.0Z"/></g>
</svg>
