<?xml version="1.0" encoding="UTF-8"?>
<svg width="1700" height="2400" xmlns="http://www.w3.org/2000/svg">
<rect width="100%" height="100%" fill="white"/>
<g fill="green" transform="translate(100 100) scale(0.1 -0.1)"><path d="M0.0 -0.0V-845.0H34.0V0.0H-0.0Z"/></g>
<g fill="green" transform="translate(200 100) scale(0.1 -0.1)"><path d="M-0.0 -0.0V-978.0H165.0V0.0H0.0Z"/></g>
<g fill="green" transform="translate(300 100) scale(0.1 -0.1)"><path d="M0.0 0.0V-413.0H8.0V0.0H-0.0Z"/></g>
<g fill="green" transform="translate(400 100) scale(0.1 -0.1)"><path d="M0.0 -0.0V-531.0H34.0V0.0H0.0Z"/></g>
<g fill="green" transform="translate(500 100) scale(0.1 -0.1)"><path d="M0.0 -0.0V-845.0H61.0V0.0H0.0Z"/></g>
<g fill="green" transform="translate(600 100) scale(0.1 -0.1)"><path d="M0.0 0.0V-935.0H307.0V0.0H0.0Z"/></g>
<g fill="green" transform="translate(700 100) scale(0.1 -0.1)"><path d="M0.0 -0.0V-914.0H31.0V0.0H0.0Z"/></g>
<g fill="green" transform="translate(800 100) scale(0.1 -0.1)"><path d="M0.0 0.0V-916.0H147.0V0.0H0.0Z"/></g>
<g fill="red" transform="translate(100 200) scale(0.1 -0.1)"><path d="M0.0 0.0V-883.0H32.0V0.0H0.0Z"/></g>
<g fill="black" opacity=".8" transform="translate(100 200) scale(0.1 -0.1)"><path d="M0.0 0.0V-883.0H34.0V0.0H0.0Z"/></g>
<g fill="red" transform="translate(200 200) scale(0.1 -0.1)"><path d="M0.0 0.0V-942.0H162.0V0.0H0.0Z"/></g>
<g fill="black" opacity=".8" transform="translate(200 200) scale(0.1 -0.1)"><path d="M0.0 0.0V-942.0H162.0V0.0H0.0Z"/></g>
<g fill="red" transform="translate(300 200) scale(0.1 -0.1)"><path d="M0.0 0.0V-531.0H33.0V0.0H0.0Z"/></g>
<g fill="black" opacity=".8" transform="translate(300 200) scale(0.1 -0.1)"><path d="M0.0 0.0V-531.0H33.0V0.0H0.0Z"/></g>
<g fill="red" transform="translate(400 200) scale(0.1 -0.1)"><path d="M0.0 0.0V-546.0H162.0V0.0H0.0Z"/></g>
<g fill="black" opacity=".8" transform="translate(400 200) scale(0.1 -0.1)"><path d="M0.0 0.0V-546.0H163.0V0.0H0.0Z"/></g>
<g fill="red" transform="translate(500 200) scale(0.1 -0.1)"><path d="M0.0 0.0V-513.0H32.0V0.0H0.0Z"/></g>
<g fill="black" opacity=".8" transform="translate(500 200) scale(0.1 -0.1)"><path d="M0.0 0.0V-513.0H34.0V0.0H0.0Z"/></g>
<g fill="red" transform="translate(600 200) scale(0.1 -0.1)"><path d="M0.0 0.0V-528.0H168.0V0.0H0.0Z"/></g>
<g fill="black" opacity=".8" transform="translate(600 200) scale(0.1 -0.1)"><path d="M0.0 0.0V-528.0H169.0V0.0H0.0Z"/></g>
<g fill="red" transform="translate(700 200) scale(0.1 -0.1)"><path d="M0.0 0.0V-513.0H33.0V0.0H0.0Z"/></g>
<g fill="black" opacity=".8" transform="translate(700 200) scale(0.1 -0.1)"><path d="M0.0 0.0V-513.0H34.0V0.0H0.0Z"/></g>
<g fill="red" transform="translate(800 200) scale(0.1 -0.1)"><path d="M0.0 0.0V-533.0H167.0V0.0H0.0Z"/></g>
<g fill="black" opacity=".8" transform="translate(800 200) scale(0.1 -0.1)"><path d="M0.0 0.0V-533.0H168.0V0.0H0.0Z"/></g>
<g fill="red" transform="translate(900 200) scale(0.1 -0.1)"><path d="M0.0 0.0V-641.0H33.0V0.0H0.0Z"/></g>
<g fill="black" opacity=".8" transform="translate(900 200) scale(0.1 -0.1)"><path d="M0.0 0.0V-641.0H33.0V0.0H0.0Z"/></g>
<g fill="red" transform="translate(1000 200) scale(0.1 -0.1)"><path d="M0.0 0.0V-663.0H162.0V0.0H0.0Z"/></g>
<g fill="black" opacity=".8" transform="translate(1000 200) scale(0.1 -0.1)"><path d="M0.0 0.0V-663.0H163.0V0.0H0.0Z"/></g>
<g fill="red" transform="translate(1100 200) scale(0.1 -0.1)"><path d="M0.0 0.0V-477.0H33.0V0.0H0.0Z"/></g>
<g fill="black" opacity=".8" transform="translate(1100 200) scale(0.1 -0.1)"><path d="M0.0 0.0V-477.0H34.0V0.0H0.0Z"/></g>
<g fill="red" transform="translate(1200 200) scale(0.1 -0.1)"><path d="M0.0 0.0V-467.0H167.0V0.0H0.0Z"/></g>
<g fill="black" opacity=".8" transform="translate(1200 200) scale(0.1 -0.1)"><path d="M0.0 0.0V-467.0H168.0V0.0H0.0Z"/></g>
<g fill="red" transform="translate(1300 200) scale(0.1 -0.1)"><path d="M0.0 0.0V-513.0H33.0V0.0H0.0Z"/></g>
<g fill="black" opacity=".8" transform="translate(1300 200) scale(0.1 -0.1)"><path d="M0.0 0.0V-513.0H33.0V0.0H0.0Z"/></g>
<g fill="red" transform="translate(1400 200) scale(0.1 -0.1)"><path d="M0.0 0.0V-523.0H162.0V0.0H0.0Z"/></g>
<g fill="black" opacity=".8" transform="translate(1400 200) scale(0.1 -0.1)"><path d="M0.0 0.0V-523.0H163.0V0.0H0.0Z"/></g>
<g fill="red" transform="translate(1500 200) scale(0.1 -0.1)"><path d="M0.0 0.0V-463.0H32.0V0.0H0.0Z"/></g>
<g fill="black" opacity=".8" transform="translate(1500 200) scale(0.1 -0.1)"><path d="M0.0 0.0V-463.0H33.0V0.0H0.0Z"/></g>
<g fill="red" transform="translate(1600 200) scale(0.1 -0.1)"><path d="M0.0 0.0V-467.0H162.0V0.0H0.0Z"/></g>
<g fill="black" opacity=".8" transform="translate(1600 200) scale(0.1 -0.1)"><path d="M0.0 0.0V-467.0H163.0V0.0H0.0Z"/></g>
<g fill="red" transform="translate(100 300) scale(0.1 -0.1)"><path d="M0.0 0.0V-463.0H32.0V0.0H0.0Z"/></g>
<g fill="black" opacity=".8" transform="translate(100 300) scale(0.1 -0.1)"><path d="M0.0 0.0V-463.0H34.0V0.0H0.0Z"/></g>
<g fill="red" transform="translate(200 300) scale(0.1 -0.1)"><path d="M0.0 0.0V-467.0H169.0V0.0H0.0Z"/></g>
<g fill="black" opacity=".8" transform="translate(200 300) scale(0.1 -0.1)"><path d="M0.0 0.0V-467.0H170.0V0.0H0.0Z"/></g>
<g fill="red" transform="translate(300 300) scale(0.1 -0.1)"><path d="M0.0 0.0V-468.0H32.0V0.0H0.0Z"/></g>
<g fill="black" opacity=".8" transform="translate(300 300) scale(0.1 -0.1)"><path d="M0.0 0.0V-468.0H33.0V0.0H0.0Z"/></g>
<g fill="red" transform="translate(400 300) scale(0.1 -0.1)"><path d="M0.0 0.0V-486.0H162.0V0.0H0.0Z"/></g>
<g fill="black" opacity=".8" transform="translate(400 300) scale(0.1 -0.1)"><path d="M0.0 0.0V-486.0H163.0V0.0H0.0Z"/></g>
<g fill="red" transform="translate(500 300) scale(0.1 -0.1)"><path d="M0.0 0.0V-463.0H32.0V0.0H0.0Z"/></g>
<g fill="black" opacity=".8" transform="translate(500 300) scale(0.1 -0.1)"><path d="M0.0 0.0V-463.0H34.0V0.0H0.0Z"/></g>
<g fill="red" transform="translate(600 300) scale(0.1 -0.1)"><path d="M0.0 0.0V-472.0H168.0V0.0H0.0Z"/></g>
<g fill="black" opacity=".8" transform="translate(600 300) scale(0.1 -0.1)"><path d="M0.0 0.0V-472.0H169.0V0.0H0.0Z"/></g>
<g fill="red" transform="translate(700 300) scale(0.1 -0.1)"><path d="M0.0 0.0V-463.0H32.0V0.0H0.0Z"/></g>
<g fill="black" opacity=".8" transform="translate(700 300) scale(0.1 -0.1)"><path d="M0.0 0.0V-463.0H33.0V0.0H0.0Z"/></g>
<g fill="red" transform="translate(800 300) scale(0.1 -0.1)"><path d="M0.0 0.0V-472.0H162.0V0.0H0.0Z"/></g>
<g fill="black" opacity=".8" transform="translate(800 300) scale(0.1 -0.1)"><path d="M0.0 0.0V-472.0H163.0V0.0H0.0Z"/></g>
<g fill="red" transform="translate(900 300) scale(0.1 -0.1)"><path d="M0.0 0.0V-458.0H33.0V0.0H0.0Z"/></g>
<g fill="black" opacity=".8" transform="translate(900 300) scale(0.1 -0.1)"><path d="M0.0 0.0V-458.0H34.0V0.0H0.0Z"/></g>
<g fill="red" transform="translate(1000 300) scale(0.1 -0.1)"><path d="M0.0 0.0V-467.0H169.0V0.0H0.0Z"/></g>
<g fill="black" opacity=".8" transform="translate(1000 300) scale(0.1 -0.1)"><path d="M0.0 0.0V-467.0H170.0V0.0H0.0Z"/></g>
<g fill="red" transform="translate(1100 300) scale(0.1 -0.1)"><path d="M0.0 0.0V-509.0H33.0V0.0H0.0Z"/></g>
<g fill="black" opacity=".8" transform="translate(1100 300) scale(0.1 -0.1)"><path d="M0.0 0.0V-509.0H33.0V0.0H0.0Z"/></g>
<g fill="red" transform="translate(1200 300) scale(0.1 -0.1)"><path d="M0.0 0.0V-528.0H162.0V0.0H0.0Z"/></g>
<g fill="black" opacity=".8" transform="translate(1200 300) scale(0.1 -0.1)"><path d="M0.0 0.0V-528.0H163.0V0.0H0.0Z"/></g>
<g fill="red" transform="translate(1300 300) scale(0.1 -0.1)"><path d="M0.0 0.0V-473.0H33.0V0.0H0.0Z"/></g>
<g fill="black" opacity=".8" transform="translate(1300 300) scale(0.1 -0.1)"><path d="M0.0 0.0V-473.0H33.0V0.0H0.0Z"/></g>
<g fill="red" transform="translate(1400 300) scale(0.1 -0.1)"><path d="M0.0 0.0V-504.0H162.0V0.0H0.0Z"/></g>
<g fill="black" opacity=".8" transform="translate(1400 300) scale(0.1 -0.1)"><path d="M0.0 0.0V-504.0H163.0V0.0H0.0Z"/></g>
<g fill="red" transform="translate(1500 300) scale(0.1 -0.1)"><path d="M0.0 0.0V-463.0H32.0V0.0H0.0Z"/></g>
<g fill="black" opacity=".8" transform="translate(1500 300) scale(0.1 -0.1)"><path d="M0.0 0.0V-463.0H34.0V0.0H0.0Z"/></g>
<g fill="red" transform="translate(1600 300) scale(0.1 -0.1)"><path d="M0.0 0.0V-533.0H168.0V0.0H0.0Z"/></g>
<g fill="black" opacity=".8" transform="translate(1600 300) scale(0.1 -0.1)"><path d="M0.0 0.0V-533.0H169.0V0.0H0.0Z"/></g>
<g fill="red" transform="translate(100 400) scale(0.1 -0.1)"><path d="M0.0 0.0V-596.0H33.0V0.0H0.0Z"/></g>
<g fill="black" opacity=".8" transform="translate(100 400) scale(0.1 -0.1)"><path d="M0.0 0.0V-596.0H33.0V0.0H0.0Z"/></g>
<g fill="red" transform="translate(200 400) scale(0.1 -0.1)"><path d="M0.0 0.0V-621.0H162.0V0.0H0.0Z"/></g>
<g fill="black" opacity=".8" transform="translate(200 400) scale(0.1 -0.1)"><path d="M0.0 0.0V-621.0H163.0V0.0H0.0Z"/></g>
<g fill="red" transform="translate(300 400) scale(0.1 -0.1)"><path d="M0.0 0.0V-509.0H33.0V0.0H0.0Z"/></g>
<g fill="black" opacity=".8" transform="translate(300 400) scale(0.1 -0.1)"><path d="M0.0 0.0V-509.0H33.0V0.0H0.0Z"/></g>
<g fill="red" transform="translate(400 400) scale(0.1 -0.1)"><path d="M0.0 0.0V-533.0H162.0V0.0H0.0Z"/></g>
<g fill="black" opacity=".8" transform="translate(400 400) scale(0.1 -0.1)"><path d="M0.0 0.0V-533.0H163.0V0.0H0.0Z"/></g>
<g fill="red" transform="translate(500 400) scale(0.1 -0.1)"><path d="M0.0 0.0V-536.0H33.0V0.0H0.0Z"/></g>
<g fill="black" opacity=".8" transform="translate(500 400) scale(0.1 -0.1)"><path d="M0.0 0.0V-536.0H33.0V0.0H0.0Z"/></g>
<g fill="red" transform="translate(600 400) scale(0.1 -0.1)"><path d="M0.0 0.0V-546.0H162.0V0.0H0.0Z"/></g>
<g fill="black" opacity=".8" transform="translate(600 400) scale(0.1 -0.1)"><path d="M0.0 0.0V-546.0H163.0V0.0H0.0Z"/></g>
<g fill="red" transform="translate(700 400) scale(0.1 -0.1)"><path d="M0.0 0.0V-513.0H33.0V0.0H0.0Z"/></g>
<g fill="black" opacity=".8" transform="translate(700 400) scale(0.1 -0.1)"><path d="M0.0 0.0V-513.0H34.0V0.0H0.0Z"/></g>
<g fill="red" transform="translate(800 400) scale(0.1 -0.1)"><path d="M0.0 0.0V-523.0H167.0V0.0H0.0Z"/></g>
<g fill="black" opacity=".8" transform="translate(800 400) scale(0.1 -0.1)"><path d="M0.0 0.0V-523.0H168.0V0.0H0.0Z"/></g>
<g fill="red" transform="translate(900 400) scale(0.1 -0.1)"><path d="M0.0 0.0V-513.0H32.0V0.0H0.0Z"/></g>
<g fill="black" opacity=".8" transform="translate(900 400) scale(0.1 -0.1)"><path d="M0.0 0.0V-513.0H33.0V0.0H0.0Z"/></g>
<g fill="red" transform="translate(1000 400) scale(0.1 -0.1)"><path d="M0.0 0.0V-528.0H162.0V0.0H0.0Z"/></g>
<g fill="black" opacity=".8" transform="translate(1000 400) scale(0.1 -0.1)"><path d="M0.0 0.0V-528.0H163.0V0.0H0.0Z"/></g>
<g fill="red" transform="translate(1100 400) scale(0.1 -0.1)"><path d="M0.0 0.0V-463.0H32.0V0.0H0.0Z"/></g>
<g fill="black" opacity=".8" transform="translate(1100 400) scale(0.1 -0.1)"><path d="M0.0 0.0V-463.0H33.0V0.0H0.0Z"/></g>
<g fill="red" transform="translate(1200 400) scale(0.1 -0.1)"><path d="M0.0 0.0V-477.0H162.0V0.0H0.0Z"/></g>
<g fill="black" opacity=".8" transform="translate(1200 400) scale(0.1 -0.1)"><path d="M0.0 0.0V-477.0H163.0V0.0H0.0Z"/></g>
<g fill="red" transform="translate(1300 400) scale(0.1 -0.1)"><path d="M0.0 0.0V-513.0H32.0V0.0H0.0Z"/></g>
<g fill="black" opacity=".8" transform="translate(1300 400) scale(0.1 -0.1)"><path d="M0.0 0.0V-513.0H33.0V0.0H0.0Z"/></g>
<g fill="red" transform="translate(1400 400) scale(0.1 -0.1)"><path d="M0.0 0.0V-533.0H162.0V0.0H0.0Z"/></g>
<g fill="black" opacity=".8" transform="translate(1400 400) scale(0.1 -0.1)"><path d="M0.0 0.0V-533.0H163.0V0.0H0.0Z"/></g>
<g fill="red" transform="translate(1500 400) scale(0.1 -0.1)"><path d="M0.0 0.0V-486.0H33.0V0.0H0.0Z"/></g>
<g fill="black" opacity=".8" transform="translate(1500 400) scale(0.1 -0.1)"><path d="M0.0 0.0V-486.0H34.0V0.0H0.0Z"/></g>
<g fill="red" transform="translate(1600 400) scale(0.1 -0.1)"><path d="M0.0 0.0V-496.0H168.0V0.0H0.0Z"/></g>
<g fill="black" opacity=".8" transform="translate(1600 400) scale(0.1 -0.1)"><path d="M0.0 0.0V-496.0H169.0V0.0H0.0Z"/></g>
<g fill="red" transform="translate(100 500) scale(0.1 -0.1)"><path d="M0.0 0.0V-541.0H33.0V0.0H0.0Z"/></g>
<g fill="black" opacity=".8" transform="translate(100 500) scale(0.1 -0.1)"><path d="M0.0 0.0V-541.0H33.0V0.0H0.0Z"/></g>
<g fill="red" transform="translate(200 500) scale(0.1 -0.1)"><path d="M0.0 0.0V-556.0H162.0V0.0H0.0Z"/></g>
<g fill="black" opacity=".8" transform="translate(200 500) scale(0.1 -0.1)"><path d="M0.0 0.0V-556.0H163.0V0.0H0.0Z"/></g>
<g fill="red" transform="translate(300 500) scale(0.1 -0.1)"><path d="M0.0 0.0V-513.0H32.0V0.0H0.0Z"/></g>
<g fill="black" opacity=".8" transform="translate(300 500) scale(0.1 -0.1)"><path d="M0.0 0.0V-513.0H34.0V0.0H0.0Z"/></g>
<g fill="red" transform="translate(400 500) scale(0.1 -0.1)"><path d="M0.0 0.0V-533.0H169.0V0.0H0.0Z"/></g>
<g fill="black" opacity=".8" transform="translate(400 500) scale(0.1 -0.1)"><path d="M0.0 0.0V-533.0H170.0V0.0H0.0Z"/></g>
<g fill="red" transform="translate(500 500) scale(0.1 -0.1)"><path d="M0.0 0.0V-655.0H33.0V0.0H0.0Z"/></g>
<g fill="black" opacity=".8" transform="translate(500 500) scale(0.1 -0.1)"><path d="M0.0 0.0V-655.0H33.0V0.0H0.0Z"/></g>
<g fill="red" transform="translate(600 500) scale(0.1 -0.1)"><path d="M0.0 0.0V-687.0H162.0V0.0H0.0Z"/></g>
<g fill="black" opacity=".8" transform="translate(600 500) scale(0.1 -0.1)"><path d="M0.0 0.0V-687.0H163.0V0.0H0.0Z"/></g>
<g fill="red" transform="translate(700 500) scale(0.1 -0.1)"><path d="M0.0 0.0V-477.0H33.0V0.0H0.0Z"/></g>
<g fill="black" opacity=".8" transform="translate(700 500) scale(0.1 -0.1)"><path d="M0.0 0.0V-477.0H34.0V0.0H0.0Z"/></g>
<g fill="red" transform="translate(800 500) scale(0.1 -0.1)"><path d="M0.0 0.0V-467.0H169.0V0.0H0.0Z"/></g>
<g fill="black" opacity=".8" transform="translate(800 500) scale(0.1 -0.1)"><path d="M0.0 0.0V-467.0H170.0V0.0H0.0Z"/></g>
<g fill="red" transform="translate(900 500) scale(0.1 -0.1)"><path d="M0.0 0.0V-523.0H33.0V0.0H0.0Z"/></g>
<g fill="black" opacity=".8" transform="translate(900 500) scale(0.1 -0.1)"><path d="M0.0 0.0V-523.0H34.0V0.0H0.0Z"/></g>
<g fill="red" transform="translate(1000 500) scale(0.1 -0.1)"><path d="M0.0 0.0V-533.0H169.0V0.0H0.0Z"/></g>
<g fill="black" opacity=".8" transform="translate(1000 500) scale(0.1 -0.1)"><path d="M0.0 0.0V-533.0H170.0V0.0H0.0Z"/></g>
<g fill="red" transform="translate(1100 500) scale(0.1 -0.1)"><path d="M0.0 0.0V-468.0H32.0V0.0H0.0Z"/></g>
<g fill="black" opacity=".8" transform="translate(1100 500) scale(0.1 -0.1)"><path d="M0.0 0.0V-468.0H33.0V0.0H0.0Z"/></g>
<g fill="red" transform="translate(1200 500) scale(0.1 -0.1)"><path d="M0.0 0.0V-477.0H162.0V0.0H0.0Z"/></g>
<g fill="black" opacity=".8" transform="translate(1200 500) scale(0.1 -0.1)"><path d="M0.0 0.0V-477.0H163.0V0.0H0.0Z"/></g>
<g fill="red" transform="translate(1300 500) scale(0.1 -0.1)"><path d="M0.0 0.0V-473.0H33.0V0.0H0.0Z"/></g>
<g fill="black" opacity=".8" transform="translate(1300 500) scale(0.1 -0.1)"><path d="M0.0 0.0V-473.0H34.0V0.0H0.0Z"/></g>
<g fill="red" transform="translate(1400 500) scale(0.1 -0.1)"><path d="M0.0 0.0V-472.0H168.0V0.0H0.0Z"/></g>
<g fill="black" opacity=".8" transform="translate(1400 500) scale(0.1 -0.1)"><path d="M0.0 0.0V-472.0H169.0V0.0H0.0Z"/></g>
<g fill="red" transform="translate(1500 500) scale(0.1 -0.1)"><path d="M0.0 0.0V-477.0H32.0V0.0H0.0Z"/></g>
<g fill="black" opacity=".8" transform="translate(1500 500) scale(0.1 -0.1)"><path d="M0.0 0.0V-477.0H33.0V0.0H0.0Z"/></g>
<g fill="red" transform="translate(1600 500) scale(0.1 -0.1)"><path d="M0.0 0.0V-496.0H162.0V0.0H0.0Z"/></g>
<g fill="black" opacity=".8" transform="translate(1600 500) scale(0.1 -0.1)"><path d="M0.0 0.0V-496.0H163.0V0.0H0.0Z"/></g>
<g fill="red" transform="translate(100 600) scale(0.1 -0.1)"><path d="M0.0 0.0V-463.0H33.0V0.0H0.0Z"/></g>
<g fill="black" opacity=".8" transform="translate(100 600) scale(0.1 -0.1)"><path d="M0.0 0.0V-463.0H34.0V0.0H0.0Z"/></g>
<g fill="red" transform="translate(200 600) scale(0.1 -0.1)"><path d="M0.0 0.0V-472.0H168.0V0.0H0.0Z"/></g>
<g fill="black" opacity=".8" transform="translate(200 600) scale(0.1 -0.1)"><path d="M0.0 0.0V-472.0H169.0V0.0H0.0Z"/></g>
<g fill="red" transform="translate(300 600) scale(0.1 -0.1)"><path d="M0.0 0.0V-463.0H33.0V0.0H0.0Z"/></g>
<g fill="black" opacity=".8" transform="translate(300 600) scale(0.1 -0.1)"><path d="M0.0 0.0V-463.0H33.0V0.0H0.0Z"/></g>
<g fill="red" transform="translate(400 600) scale(0.1 -0.1)"><path d="M0.0 0.0V-472.0H162.0V0.0H0.0Z"/></g>
<g fill="black" opacity=".8" transform="translate(400 600) scale(0.1 -0.1)"><path d="M0.0 0.0V-472.0H163.0V0.0H0.0Z"/></g>
<g fill="red" transform="translate(500 600) scale(0.1 -0.1)"><path d="M0.0 0.0V-518.0H33.0V0.0H0.0Z"/></g>
<g fill="black" opacity=".8" transform="translate(500 600) scale(0.1 -0.1)"><path d="M0.0 0.0V-518.0H33.0V0.0H0.0Z"/></g>
<g fill="red" transform="translate(600 600) scale(0.1 -0.1)"><path d="M0.0 0.0V-538.0H162.0V0.0H0.0Z"/></g>
<g fill="black" opacity=".8" transform="translate(600 600) scale(0.1 -0.1)"><path d="M0.0 0.0V-538.0H163.0V0.0H0.0Z"/></g>
<g fill="red" transform="translate(700 600) scale(0.1 -0.1)"><path d="M0.0 0.0V-481.0H33.0V0.0H0.0Z"/></g>
<g fill="black" opacity=".8" transform="translate(700 600) scale(0.1 -0.1)"><path d="M0.0 0.0V-481.0H33.0V0.0H0.0Z"/></g>
<g fill="red" transform="translate(800 600) scale(0.1 -0.1)"><path d="M0.0 0.0V-514.0H162.0V0.0H0.0Z"/></g>
<g fill="black" opacity=".8" transform="translate(800 600) scale(0.1 -0.1)"><path d="M0.0 0.0V-514.0H163.0V0.0H0.0Z"/></g>
<g fill="red" transform="translate(900 600) scale(0.1 -0.1)"><path d="M0.0 0.0V-463.0H33.0V0.0H0.0Z"/></g>
<g fill="black" opacity=".8" transform="translate(900 600) scale(0.1 -0.1)"><path d="M0.0 0.0V-463.0H34.0V0.0H0.0Z"/></g>
<g fill="red" transform="translate(1000 600) scale(0.1 -0.1)"><path d="M0.0 0.0V-533.0H168.0V0.0H0.0Z"/></g>
<g fill="black" opacity=".8" transform="translate(1000 600) scale(0.1 -0.1)"><path d="M0.0 0.0V-533.0H169.0V0.0H0.0Z"/></g>
<g fill="red" transform="translate(1100 600) scale(0.1 -0.1)"><path d="M0.0 0.0V-604.0H33.0V0.0H0.0Z"/></g>
<g fill="black" opacity=".8" transform="translate(1100 600) scale(0.1 -0.1)"><path d="M0.0 0.0V-604.0H33.0V0.0H0.0Z"/></g>
<g fill="red" transform="translate(1200 600) scale(0.1 -0.1)"><path d="M0.0 0.0V-631.0H162.0V0.0H0.0Z"/></g>
<g fill="black" opacity=".8" transform="translate(1200 600) scale(0.1 -0.1)"><path d="M0.0 0.0V-631.0H163.0V0.0H0.0Z"/></g>
<g fill="red" transform="translate(1300 600) scale(0.1 -0.1)"><path d="M0.0 0.0V-513.0H33.0V0.0H0.0Z"/></g>
<g fill="black" opacity=".8" transform="translate(1300 600) scale(0.1 -0.1)"><path d="M0.0 0.0V-513.0H33.0V0.0H0.0Z"/></g>
<g fill="red" transform="translate(1400 600) scale(0.1 -0.1)"><path d="M0.0 0.0V-533.0H162.0V0.0H0.0Z"/></g>
<g fill="black" opacity=".8" transform="translate(1400 600) scale(0.1 -0.1)"><path d="M0.0 0.0V-533.0H163.0V0.0H0.0Z"/></g>
<g fill="red" transform="translate(1500 600) scale(0.1 -0.1)"><path d="M0.0 0.0V-523.0H33.0V0.0H0.0Z"/></g>
<g fill="black" opacity=".8" transform="translate(1500 600) scale(0.1 -0.1)"><path d="M0.0 0.0V-523.0H33.0V0.0H0.0Z"/></g>
<g fill="red" transform="translate(1600 600) scale(0.1 -0.1)"><path d="M0.0 0.0V-528.0H162.0V0.0H0.0Z"/></g>
<g fill="black" opacity=".8" transform="translate(1600 600) scale(0.1 -0.1)"><path d="M0.0 0.0V-528.0H163.0V0.0H0.0Z"/></g>
<g fill="red" transform="translate(100 700) scale(0.1 -0.1)"><path d="M0.0 0.0V-518.0H32.0V0.0H0.0Z"/></g>
<g fill="black" opacity=".8" transform="translate(100 700) scale(0.1 -0.1)"><path d="M0.0 0.0V-518.0H33.0V0.0H0.0Z"/></g>
<g fill="red" transform="translate(200 700) scale(0.1 -0.1)"><path d="M0.0 0.0V-533.0H162.0V0.0H0.0Z"/></g>
<g fill="black" opacity=".8" transform="translate(200 700) scale(0.1 -0.1)"><path d="M0.0 0.0V-533.0H163.0V0.0H0.0Z"/></g>
<g fill="red" transform="translate(300 700) scale(0.1 -0.1)"><path d="M0.0 0.0V-486.0H33.0V0.0H0.0Z"/></g>
<g fill="black" opacity=".8" transform="translate(300 700) scale(0.1 -0.1)"><path d="M0.0 0.0V-486.0H34.0V0.0H0.0Z"/></g>
<g fill="red" transform="translate(400 700) scale(0.1 -0.1)"><path d="M0.0 0.0V-472.0H168.0V0.0H0.0Z"/></g>
<g fill="black" opacity=".8" transform="translate(400 700) scale(0.1 -0.1)"><path d="M0.0 0.0V-472.0H169.0V0.0H0.0Z"/></g>
<g fill="red" transform="translate(500 700) scale(0.1 -0.1)"><path d="M0.0 0.0V-518.0H33.0V0.0H0.0Z"/></g>
<g fill="black" opacity=".8" transform="translate(500 700) scale(0.1 -0.1)"><path d="M0.0 0.0V-518.0H33.0V0.0H0.0Z"/></g>
<g fill="red" transform="translate(600 700) scale(0.1 -0.1)"><path d="M0.0 0.0V-533.0H162.0V0.0H0.0Z"/></g>
<g fill="black" opacity=".8" transform="translate(600 700) scale(0.1 -0.1)"><path d="M0.0 0.0V-533.0H163.0V0.0H0.0Z"/></g>
<g fill="red" transform="translate(700 700) scale(0.1 -0.1)"><path d="M0.0 0.0V-504.0H33.0V0.0H0.0Z"/></g>
<g fill="black" opacity=".8" transform="translate(700 700) scale(0.1 -0.1)"><path d="M0.0 0.0V-504.0H34.0V0.0H0.0Z"/></g>
<g fill="red" transform="translate(800 700) scale(0.1 -0.1)"><path d="M0.0 0.0V-504.0H168.0V0.0H0.0Z"/></g>
<g fill="black" opacity=".8" transform="translate(800 700) scale(0.1 -0.1)"><path d="M0.0 0.0V-504.0H169.0V0.0H0.0Z"/></g>
<g fill="red" transform="translate(900 700) scale(0.1 -0.1)"><path d="M0.0 0.0V-883.0H33.0V0.0H0.0Z"/></g>
<g fill="black" opacity=".8" transform="translate(900 700) scale(0.1 -0.1)"><path d="M0.0 0.0V-883.0H32.0V0.0H0.0Z"/></g>
<g fill="red" transform="translate(1000 700) scale(0.1 -0.1)"><path d="M0.0 0.0V-938.0H153.0V0.0H0.0Z"/></g>
<g fill="black" opacity=".8" transform="translate(1000 700) scale(0.1 -0.1)"><path d="M0.0 0.0V-938.0H153.0V0.0H0.0Z"/></g>
<g fill="red" transform="translate(1100 700) scale(0.1 -0.1)"><path d="M0.0 0.0V-531.0H33.0V0.0H0.0Z"/></g>
<g fill="black" opacity=".8" transform="translate(1100 700) scale(0.1 -0.1)"><path d="M0.0 0.0V-531.0H32.0V0.0H0.0Z"/></g>
<g fill="red" transform="translate(1200 700) scale(0.1 -0.1)"><path d="M0.0 0.0V-551.0H158.0V0.0H0.0Z"/></g>
<g fill="black" opacity=".8" transform="translate(1200 700) scale(0.1 -0.1)"><path d="M0.0 0.0V-551.0H159.0V0.0H0.0Z"/></g>
<g fill="red" transform="translate(1300 700) scale(0.1 -0.1)"><path d="M0.0 0.0V-513.0H32.0V0.0H0.0Z"/></g>
<g fill="black" opacity=".8" transform="translate(1300 700) scale(0.1 -0.1)"><path d="M0.0 0.0V-513.0H32.0V0.0H0.0Z"/></g>
<g fill="red" transform="translate(1400 700) scale(0.1 -0.1)"><path d="M0.0 0.0V-533.0H157.0V0.0H0.0Z"/></g>
<g fill="black" opacity=".8" transform="translate(1400 700) scale(0.1 -0.1)"><path d="M0.0 0.0V-533.0H158.0V0.0H0.0Z"/></g>
<g fill="red" transform="translate(1500 700) scale(0.1 -0.1)"><path d="M0.0 0.0V-518.0H34.0V0.0H0.0Z"/></g>
<g fill="black" opacity=".8" transform="translate(1500 700) scale(0.1 -0.1)"><path d="M0.0 0.0V-518.0H32.0V0.0H0.0Z"/></g>
<g fill="red" transform="translate(1600 700) scale(0.1 -0.1)"><path d="M0.0 0.0V-533.0H157.0V0.0H0.0Z"/></g>
<g fill="black" opacity=".8" transform="translate(1600 700) scale(0.1 -0.1)"><path d="M0.0 0.0V-533.0H158.0V0.0H0.0Z"/></g>
<g fill="red" transform="translate(100 800) scale(0.1 -0.1)"><path d="M0.0 0.0V-646.0H33.0V0.0H0.0Z"/></g>
<g fill="black" opacity=".8" transform="translate(100 800) scale(0.1 -0.1)"><path d="M0.0 0.0V-646.0H32.0V0.0H0.0Z"/></g>
<g fill="red" transform="translate(200 800) scale(0.1 -0.1)"><path d="M0.0 0.0V-687.0H158.0V0.0H0.0Z"/></g>
<g fill="black" opacity=".8" transform="translate(200 800) scale(0.1 -0.1)"><path d="M0.0 0.0V-687.0H159.0V0.0H0.0Z"/></g>
<g fill="red" transform="translate(300 800) scale(0.1 -0.1)"><path d="M0.0 0.0V-513.0H34.0V0.0H0.0Z"/></g>
<g fill="black" opacity=".8" transform="translate(300 800) scale(0.1 -0.1)"><path d="M0.0 0.0V-513.0H32.0V0.0H0.0Z"/></g>
<g fill="red" transform="translate(400 800) scale(0.1 -0.1)"><path d="M0.0 0.0V-533.0H156.0V0.0H0.0Z"/></g>
<g fill="black" opacity=".8" transform="translate(400 800) scale(0.1 -0.1)"><path d="M0.0 0.0V-533.0H157.0V0.0H0.0Z"/></g>
<g fill="red" transform="translate(500 800) scale(0.1 -0.1)"><path d="M0.0 0.0V-486.0H33.0V0.0H0.0Z"/></g>
<g fill="black" opacity=".8" transform="translate(500 800) scale(0.1 -0.1)"><path d="M0.0 0.0V-486.0H32.0V0.0H0.0Z"/></g>
<g fill="red" transform="translate(600 800) scale(0.1 -0.1)"><path d="M0.0 0.0V-472.0H156.0V0.0H0.0Z"/></g>
<g fill="black" opacity=".8" transform="translate(600 800) scale(0.1 -0.1)"><path d="M0.0 0.0V-472.0H157.0V0.0H0.0Z"/></g>
<g fill="red" transform="translate(700 800) scale(0.1 -0.1)"><path d="M0.0 0.0V-468.0H33.0V0.0H0.0Z"/></g>
<g fill="black" opacity=".8" transform="translate(700 800) scale(0.1 -0.1)"><path d="M0.0 0.0V-468.0H32.0V0.0H0.0Z"/></g>
<g fill="red" transform="translate(800 800) scale(0.1 -0.1)"><path d="M0.0 0.0V-477.0H158.0V0.0H0.0Z"/></g>
<g fill="black" opacity=".8" transform="translate(800 800) scale(0.1 -0.1)"><path d="M0.0 0.0V-477.0H159.0V0.0H0.0Z"/></g>
<g fill="red" transform="translate(900 800) scale(0.1 -0.1)"><path d="M0.0 0.0V-481.0H32.0V0.0H0.0Z"/></g>
<g fill="black" opacity=".8" transform="translate(900 800) scale(0.1 -0.1)"><path d="M0.0 0.0V-481.0H32.0V0.0H0.0Z"/></g>
<g fill="red" transform="translate(1000 800) scale(0.1 -0.1)"><path d="M0.0 0.0V-472.0H156.0V0.0H0.0Z"/></g>
<g fill="black" opacity=".8" transform="translate(1000 800) scale(0.1 -0.1)"><path d="M0.0 0.0V-472.0H157.0V0.0H0.0Z"/></g>
<g fill="red" transform="translate(1100 800) scale(0.1 -0.1)"><path d="M0.0 0.0V-477.0H32.0V0.0H0.0Z"/></g>
<g fill="black" opacity=".8" transform="translate(1100 800) scale(0.1 -0.1)"><path d="M0.0 0.0V-477.0H32.0V0.0H0.0Z"/></g>
<g fill="red" transform="translate(1200 800) scale(0.1 -0.1)"><path d="M0.0 0.0V-472.0H156.0V0.0H0.0Z"/></g>
<g fill="black" opacity=".8" transform="translate(1200 800) scale(0.1 -0.1)"><path d="M0.0 0.0V-472.0H157.0V0.0H0.0Z"/></g>
<g fill="red" transform="translate(1300 800) scale(0.1 -0.1)"><path d="M0.0 0.0V-477.0H33.0V0.0H0.0Z"/></g>
<g fill="black" opacity=".8" transform="translate(1300 800) scale(0.1 -0.1)"><path d="M0.0 0.0V-477.0H32.0V0.0H0.0Z"/></g>
<g fill="red" transform="translate(1400 800) scale(0.1 -0.1)"><path d="M0.0 0.0V-472.0H156.0V0.0H0.0Z"/></g>
<g fill="black" opacity=".8" transform="translate(1400 800) scale(0.1 -0.1)"><path d="M0.0 0.0V-472.0H157.0V0.0H0.0Z"/></g>
<g fill="red" transform="translate(1500 800) scale(0.1 -0.1)"><path d="M0.0 0.0V-477.0H32.0V0.0H0.0Z"/></g>
<g fill="black" opacity=".8" transform="translate(1500 800) scale(0.1 -0.1)"><path d="M0.0 0.0V-477.0H32.0V0.0H0.0Z"/></g>
<g fill="red" transform="translate(1600 800) scale(0.1 -0.1)"><path d="M0.0 0.0V-472.0H157.0V0.0H0.0Z"/></g>
<g fill="black" opacity=".8" transform="translate(1600 800) scale(0.1 -0.1)"><path d="M0.0 0.0V-472.0H158.0V0.0H0.0Z"/></g>
<g fill="red" transform="translate(100 900) scale(0.1 -0.1)"><path d="M0.0 0.0V-458.0H33.0V0.0H0.0Z"/></g>
<g fill="black" opacity=".8" transform="translate(100 900) scale(0.1 -0.1)"><path d="M0.0 0.0V-458.0H32.0V0.0H0.0Z"/></g>
<g fill="red" transform="translate(200 900) scale(0.1 -0.1)"><path d="M0.0 0.0V-472.0H156.0V0.0H0.0Z"/></g>
<g fill="black" opacity=".8" transform="translate(200 900) scale(0.1 -0.1)"><path d="M0.0 0.0V-472.0H157.0V0.0H0.0Z"/></g>
<g fill="red" transform="translate(300 900) scale(0.1 -0.1)"><path d="M0.0 0.0V-518.0H33.0V0.0H0.0Z"/></g>
<g fill="black" opacity=".8" transform="translate(300 900) scale(0.1 -0.1)"><path d="M0.0 0.0V-518.0H32.0V0.0H0.0Z"/></g>
<g fill="red" transform="translate(400 900) scale(0.1 -0.1)"><path d="M0.0 0.0V-542.0H158.0V0.0H0.0Z"/></g>
<g fill="black" opacity=".8" transform="translate(400 900) scale(0.1 -0.1)"><path d="M0.0 0.0V-542.0H159.0V0.0H0.0Z"/></g>
<g fill="red" transform="translate(500 900) scale(0.1 -0.1)"><path d="M0.0 0.0V-477.0H33.0V0.0H0.0Z"/></g>
<g fill="black" opacity=".8" transform="translate(500 900) scale(0.1 -0.1)"><path d="M0.0 0.0V-477.0H32.0V0.0H0.0Z"/></g>
<g fill="red" transform="translate(600 900) scale(0.1 -0.1)"><path d="M0.0 0.0V-519.0H158.0V0.0H0.0Z"/></g>
<g fill="black" opacity=".8" transform="translate(600 900) scale(0.1 -0.1)"><path d="M0.0 0.0V-519.0H159.0V0.0H0.0Z"/></g>
<g fill="red" transform="translate(700 900) scale(0.1 -0.1)"><path d="M0.0 0.0V-458.0H33.0V0.0H0.0Z"/></g>
<g fill="black" opacity=".8" transform="translate(700 900) scale(0.1 -0.1)"><path d="M0.0 0.0V-458.0H32.0V0.0H0.0Z"/></g>
<g fill="red" transform="translate(800 900) scale(0.1 -0.1)"><path d="M0.0 0.0V-533.0H156.0V0.0H0.0Z"/></g>
<g fill="black" opacity=".8" transform="translate(800 900) scale(0.1 -0.1)"><path d="M0.0 0.0V-533.0H157.0V0.0H0.0Z"/></g>
<g fill="red" transform="translate(900 900) scale(0.1 -0.1)"><path d="M0.0 0.0V-623.0H33.0V0.0H0.0Z"/></g>
<g fill="black" opacity=".8" transform="translate(900 900) scale(0.1 -0.1)"><path d="M0.0 0.0V-623.0H32.0V0.0H0.0Z"/></g>
<g fill="red" transform="translate(1000 900) scale(0.1 -0.1)"><path d="M0.0 0.0V-644.0H158.0V0.0H0.0Z"/></g>
<g fill="black" opacity=".8" transform="translate(1000 900) scale(0.1 -0.1)"><path d="M0.0 0.0V-644.0H159.0V0.0H0.0Z"/></g>
<g fill="red" transform="translate(1100 900) scale(0.1 -0.1)"><path d="M0.0 0.0V-559.0H33.0V0.0H0.0Z"/></g>
<g fill="black" opacity=".8" transform="translate(1100 900) scale(0.1 -0.1)"><path d="M0.0 0.0V-559.0H32.0V0.0H0.0Z"/></g>
<g fill="red" transform="translate(1200 900) scale(0.1 -0.1)"><path d="M0.0 0.0V-570.0H158.0V0.0H0.0Z"/></g>
<g fill="black" opacity=".8" transform="translate(1200 900) scale(0.1 -0.1)"><path d="M0.0 0.0V-570.0H159.0V0.0H0.0Z"/></g>
<g fill="red" transform="translate(1300 900) scale(0.1 -0.1)"><path d="M0.0 0.0V-528.0H33.0V0.0H0.0Z"/></g>
<g fill="black" opacity=".8" transform="translate(1300 900) scale(0.1 -0.1)"><path d="M0.0 0.0V-528.0H32.0V0.0H0.0Z"/></g>
<g fill="red" transform="translate(1400 900) scale(0.1 -0.1)"><path d="M0.0 0.0V-533.0H157.0V0.0H0.0Z"/></g>
<g fill="black" opacity=".8" transform="translate(1400 900) scale(0.1 -0.1)"><path d="M0.0 0.0V-533.0H158.0V0.0H0.0Z"/></g>
<g fill="red" transform="translate(1500 900) scale(0.1 -0.1)"><path d="M0.0 0.0V-528.0H33.0V0.0H0.0Z"/></g>
<g fill="black" opacity=".8" transform="translate(1500 900) scale(0.1 -0.1)"><path d="M0.0 0.0V-528.0H32.0V0.0H0.0Z"/></g>
<g fill="red" transform="translate(1600 900) scale(0.1 -0.1)"><path d="M0.0 0.0V-538.0H156.0V0.0H0.0Z"/></g>
<g fill="black" opacity=".8" transform="translate(1600 900) scale(0.1 -0.1)"><path d="M0.0 0.0V-538.0H157.0V0.0H0.0Z"/></g>
<g fill="red" transform="translate(100 1000) scale(0.1 -0.1)"><path d="M0.0 0.0V-495.0H33.0V0.0H0.0Z"/></g>
<g fill="black" opacity=".8" transform="translate(100 1000) scale(0.1 -0.1)"><path d="M0.0 0.0V-495.0H32.0V0.0H0.0Z"/></g>
<g fill="red" transform="translate(200 1000) scale(0.1 -0.1)"><path d="M0.0 0.0V-504.0H156.0V0.0H0.0Z"/></g>
<g fill="black" opacity=".8" transform="translate(200 1000) scale(0.1 -0.1)"><path d="M0.0 0.0V-504.0H157.0V0.0H0.0Z"/></g>
<g fill="red" transform="translate(300 1000) scale(0.1 -0.1)"><path d="M0.0 0.0V-536.0H33.0V0.0H0.0Z"/></g>
<g fill="black" opacity=".8" transform="translate(300 1000) scale(0.1 -0.1)"><path d="M0.0 0.0V-536.0H33.0V0.0H0.0Z"/></g>
<g fill="red" transform="translate(400 1000) scale(0.1 -0.1)"><path d="M0.0 0.0V-556.0H162.0V0.0H0.0Z"/></g>
<g fill="black" opacity=".8" transform="translate(400 1000) scale(0.1 -0.1)"><path d="M0.0 0.0V-556.0H163.0V0.0H0.0Z"/></g>
<g fill="red" transform="translate(500 1000) scale(0.1 -0.1)"><path d="M0.0 0.0V-650.0H33.0V0.0H0.0Z"/></g>
<g fill="black" opacity=".8" transform="translate(500 1000) scale(0.1 -0.1)"><path d="M0.0 0.0V-650.0H33.0V0.0H0.0Z"/></g>
<g fill="red" transform="translate(600 1000) scale(0.1 -0.1)"><path d="M0.0 0.0V-682.0H162.0V0.0H0.0Z"/></g>
<g fill="black" opacity=".8" transform="translate(600 1000) scale(0.1 -0.1)"><path d="M0.0 0.0V-682.0H163.0V0.0H0.0Z"/></g>
<g fill="red" transform="translate(700 1000) scale(0.1 -0.1)"><path d="M0.0 0.0V-481.0H33.0V0.0H0.0Z"/></g>
<g fill="black" opacity=".8" transform="translate(700 1000) scale(0.1 -0.1)"><path d="M0.0 0.0V-481.0H34.0V0.0H0.0Z"/></g>
<g fill="red" transform="translate(800 1000) scale(0.1 -0.1)"><path d="M0.0 0.0V-467.0H169.0V0.0H0.0Z"/></g>
<g fill="black" opacity=".8" transform="translate(800 1000) scale(0.1 -0.1)"><path d="M0.0 0.0V-467.0H170.0V0.0H0.0Z"/></g>
<g fill="red" transform="translate(900 1000) scale(0.1 -0.1)"><path d="M0.0 0.0V-468.0H32.0V0.0H0.0Z"/></g>
<g fill="black" opacity=".8" transform="translate(900 1000) scale(0.1 -0.1)"><path d="M0.0 0.0V-468.0H33.0V0.0H0.0Z"/></g>
<g fill="red" transform="translate(1000 1000) scale(0.1 -0.1)"><path d="M0.0 0.0V-467.0H162.0V0.0H0.0Z"/></g>
<g fill="black" opacity=".8" transform="translate(1000 1000) scale(0.1 -0.1)"><path d="M0.0 0.0V-467.0H163.0V0.0H0.0Z"/></g>
<g fill="red" transform="translate(1100 1000) scale(0.1 -0.1)"><path d="M0.0 0.0V-458.0H32.0V0.0H0.0Z"/></g>
<g fill="black" opacity=".8" transform="translate(1100 1000) scale(0.1 -0.1)"><path d="M0.0 0.0V-458.0H34.0V0.0H0.0Z"/></g>
<g fill="red" transform="translate(1200 1000) scale(0.1 -0.1)"><path d="M0.0 0.0V-472.0H168.0V0.0H0.0Z"/></g>
<g fill="black" opacity=".8" transform="translate(1200 1000) scale(0.1 -0.1)"><path d="M0.0 0.0V-472.0H169.0V0.0H0.0Z"/></g>
<g fill="red" transform="translate(1300 1000) scale(0.1 -0.1)"><path d="M0.0 0.0V-477.0H32.0V0.0H0.0Z"/></g>
<g fill="black" opacity=".8" transform="translate(1300 1000) scale(0.1 -0.1)"><path d="M0.0 0.0V-477.0H34.0V0.0H0.0Z"/></g>
<g fill="red" transform="translate(1400 1000) scale(0.1 -0.1)"><path d="M0.0 0.0V-472.0H168.0V0.0H0.0Z"/></g>
<g fill="black" opacity=".8" transform="translate(1400 1000) scale(0.1 -0.1)"><path d="M0.0 0.0V-472.0H169.0V0.0H0.0Z"/></g>
<g fill="red" transform="translate(1500 1000) scale(0.1 -0.1)"><path d="M0.0 0.0V-458.0H32.0V0.0H0.0Z"/></g>
<g fill="black" opacity=".8" transform="translate(1500 1000) scale(0.1 -0.1)"><path d="M0.0 0.0V-458.0H33.0V0.0H0.0Z"/></g>
<g fill="red" transform="translate(1600 1000) scale(0.1 -0.1)"><path d="M0.0 0.0V-448.0H162.0V0.0H0.0Z"/></g>
<g fill="black" opacity=".8" transform="translate(1600 1000) scale(0.1 -0.1)"><path d="M0.0 0.0V-448.0H163.0V0.0H0.0Z"/></g>
<g fill="red" transform="translate(100 1100) scale(0.1 -0.1)"><path d="M0.0 0.0V-504.0H33.0V0.0H0.0Z"/></g>
<g fill="black" opacity=".8" transform="translate(100 1100) scale(0.1 -0.1)"><path d="M0.0 0.0V-504.0H33.0V0.0H0.0Z"/></g>
<g fill="red" transform="translate(200 1100) scale(0.1 -0.1)"><path d="M0.0 0.0V-528.0H162.0V0.0H0.0Z"/></g>
<g fill="black" opacity=".8" transform="translate(200 1100) scale(0.1 -0.1)"><path d="M0.0 0.0V-528.0H163.0V0.0H0.0Z"/></g>
<g fill="red" transform="translate(300 1100) scale(0.1 -0.1)"><path d="M0.0 0.0V-481.0H33.0V0.0H0.0Z"/></g>
<g fill="black" opacity=".8" transform="translate(300 1100) scale(0.1 -0.1)"><path d="M0.0 0.0V-481.0H34.0V0.0H0.0Z"/></g>
<g fill="red" transform="translate(400 1100) scale(0.1 -0.1)"><path d="M0.0 0.0V-533.0H168.0V0.0H0.0Z"/></g>
<g fill="black" opacity=".8" transform="translate(400 1100) scale(0.1 -0.1)"><path d="M0.0 0.0V-533.0H169.0V0.0H0.0Z"/></g>
<g fill="red" transform="translate(500 1100) scale(0.1 -0.1)"><path d="M0.0 0.0V-596.0H33.0V0.0H0.0Z"/></g>
<g fill="black" opacity=".8" transform="translate(500 1100) scale(0.1 -0.1)"><path d="M0.0 0.0V-596.0H33.0V0.0H0.0Z"/></g>
<g fill="red" transform="translate(600 1100) scale(0.1 -0.1)"><path d="M0.0 0.0V-626.0H162.0V0.0H0.0Z"/></g>
<g fill="black" opacity=".8" transform="translate(600 1100) scale(0.1 -0.1)"><path d="M0.0 0.0V-626.0H163.0V0.0H0.0Z"/></g>
<g fill="red" transform="translate(700 1100) scale(0.1 -0.1)"><path d="M0.0 0.0V-531.0H33.0V0.0H0.0Z"/></g>
<g fill="black" opacity=".8" transform="translate(700 1100) scale(0.1 -0.1)"><path d="M0.0 0.0V-531.0H33.0V0.0H0.0Z"/></g>
<g fill="red" transform="translate(800 1100) scale(0.1 -0.1)"><path d="M0.0 0.0V-551.0H162.0V0.0H0.0Z"/></g>
<g fill="black" opacity=".8" transform="translate(800 1100) scale(0.1 -0.1)"><path d="M0.0 0.0V-551.0H163.0V0.0H0.0Z"/></g>
<g fill="red" transform="translate(900 1100) scale(0.1 -0.1)"><path d="M0.0 0.0V-491.0H33.0V0.0H0.0Z"/></g>
<g fill="black" opacity=".8" transform="translate(900 1100) scale(0.1 -0.1)"><path d="M0.0 0.0V-491.0H33.0V0.0H0.0Z"/></g>
<g fill="red" transform="translate(1000 1100) scale(0.1 -0.1)"><path d="M0.0 0.0V-519.0H162.0V0.0H0.0Z"/></g>
<g fill="black" opacity=".8" transform="translate(1000 1100) scale(0.1 -0.1)"><path d="M0.0 0.0V-519.0H163.0V0.0H0.0Z"/></g>
<g fill="red" transform="translate(1100 1100) scale(0.1 -0.1)"><path d="M0.0 0.0V-486.0H33.0V0.0H0.0Z"/></g>
<g fill="black" opacity=".8" transform="translate(1100 1100) scale(0.1 -0.1)"><path d="M0.0 0.0V-486.0H34.0V0.0H0.0Z"/></g>
<g fill="red" transform="translate(1200 1100) scale(0.1 -0.1)"><path d="M0.0 0.0V-500.0H168.0V0.0H0.0Z"/></g>
<g fill="black" opacity=".8" transform="translate(1200 1100) scale(0.1 -0.1)"><path d="M0.0 0.0V-500.0H169.0V0.0H0.0Z"/></g>
<g fill="red" transform="translate(1300 1100) scale(0.1 -0.1)"><path d="M0.0 0.0V-883.0H33.0V0.0H0.0Z"/></g>
<g fill="black" opacity=".8" transform="translate(1300 1100) scale(0.1 -0.1)"><path d="M0.0 0.0V-883.0H34.0V0.0H0.0Z"/></g>
<g fill="red" transform="translate(1400 1100) scale(0.1 -0.1)"><path d="M0.0 0.0V-938.0H162.0V0.0H0.0Z"/></g>
<g fill="black" opacity=".8" transform="translate(1400 1100) scale(0.1 -0.1)"><path d="M0.0 0.0V-938.0H162.0V0.0H0.0Z"/></g>
<g fill="red" transform="translate(1500 1100) scale(0.1 -0.1)"><path d="M0.0 0.0V-523.0H33.0V0.0H0.0Z"/></g>
<g fill="black" opacity=".8" transform="translate(1500 1100) scale(0.1 -0.1)"><path d="M0.0 0.0V-523.0H33.0V0.0H0.0Z"/></g>
<g fill="red" transform="translate(1600 1100) scale(0.1 -0.1)"><path d="M0.0 0.0V-542.0H162.0V0.0H0.0Z"/></g>
<g fill="black" opacity=".8" transform="translate(1600 1100) scale(0.1 -0.1)"><path d="M0.0 0.0V-542.0H163.0V0.0H0.0Z"/></g>
<g fill="red" transform="translate(100 1200) scale(0.1 -0.1)"><path d="M0.0 0.0V-531.0H33.0V0.0H0.0Z"/></g>
<g fill="black" opacity=".8" transform="translate(100 1200) scale(0.1 -0.1)"><path d="M0.0 0.0V-531.0H33.0V0.0H0.0Z"/></g>
<g fill="red" transform="translate(200 1200) scale(0.1 -0.1)"><path d="M0.0 0.0V-538.0H162.0V0.0H0.0Z"/></g>
<g fill="black" opacity=".8" transform="translate(200 1200) scale(0.1 -0.1)"><path d="M0.0 0.0V-538.0H163.0V0.0H0.0Z"/></g>
<g fill="red" transform="translate(300 1200) scale(0.1 -0.1)"><path d="M0.0 0.0V-651.0H33.0V0.0H0.0Z"/></g>
<g fill="black" opacity=".8" transform="translate(300 1200) scale(0.1 -0.1)"><path d="M0.0 0.0V-651.0H33.0V0.0H0.0Z"/></g>
<g fill="red" transform="translate(400 1200) scale(0.1 -0.1)"><path d="M0.0 0.0V-682.0H162.0V0.0H0.0Z"/></g>
<g fill="black" opacity=".8" transform="translate(400 1200) scale(0.1 -0.1)"><path d="M0.0 0.0V-682.0H163.0V0.0H0.0Z"/></g>
<g fill="red" transform="translate(500 1200) scale(0.1 -0.1)"><path d="M0.0 0.0V-495.0H33.0V0.0H0.0Z"/></g>
<g fill="black" opacity=".8" transform="translate(500 1200) scale(0.1 -0.1)"><path d="M0.0 0.0V-495.0H33.0V0.0H0.0Z"/></g>
<g fill="red" transform="translate(600 1200) scale(0.1 -0.1)"><path d="M0.0 0.0V-519.0H162.0V0.0H0.0Z"/></g>
<g fill="black" opacity=".8" transform="translate(600 1200) scale(0.1 -0.1)"><path d="M0.0 0.0V-519.0H163.0V0.0H0.0Z"/></g>
<g fill="red" transform="translate(700 1200) scale(0.1 -0.1)"><path d="M0.0 0.0V-468.0H33.0V0.0H0.0Z"/></g>
<g fill="black" opacity=".8" transform="translate(700 1200) scale(0.1 -0.1)"><path d="M0.0 0.0V-468.0H33.0V0.0H0.0Z"/></g>
<g fill="red" transform="translate(800 1200) scale(0.1 -0.1)"><path d="M0.0 0.0V-472.0H162.0V0.0H0.0Z"/></g>
<g fill="black" opacity=".8" transform="translate(800 1200) scale(0.1 -0.1)"><path d="M0.0 0.0V-472.0H163.0V0.0H0.0Z"/></g>
<g fill="red" transform="translate(900 1200) scale(0.1 -0.1)"><path d="M0.0 0.0V-468.0H33.0V0.0H0.0Z"/></g>
<g fill="black" opacity=".8" transform="translate(900 1200) scale(0.1 -0.1)"><path d="M0.0 0.0V-468.0H33.0V0.0H0.0Z"/></g>
<g fill="red" transform="translate(1000 1200) scale(0.1 -0.1)"><path d="M0.0 0.0V-463.0H162.0V0.0H0.0Z"/></g>
<g fill="black" opacity=".8" transform="translate(1000 1200) scale(0.1 -0.1)"><path d="M0.0 0.0V-463.0H163.0V0.0H0.0Z"/></g>
<g fill="red" transform="translate(1100 1200) scale(0.1 -0.1)"><path d="M0.0 0.0V-486.0H33.0V0.0H0.0Z"/></g>
<g fill="black" opacity=".8" transform="translate(1100 1200) scale(0.1 -0.1)"><path d="M0.0 0.0V-486.0H33.0V0.0H0.0Z"/></g>
<g fill="red" transform="translate(1200 1200) scale(0.1 -0.1)"><path d="M0.0 0.0V-509.0H162.0V0.0H0.0Z"/></g>
<g fill="black" opacity=".8" transform="translate(1200 1200) scale(0.1 -0.1)"><path d="M0.0 0.0V-509.0H163.0V0.0H0.0Z"/></g>
<g fill="red" transform="translate(1300 1200) scale(0.1 -0.1)"><path d="M0.0 0.0V-468.0H33.0V0.0H0.0Z"/></g>
<g fill="black" opacity=".8" transform="translate(1300 1200) scale(0.1 -0.1)"><path d="M0.0 0.0V-468.0H33.0V0.0H0.0Z"/></g>
<g fill="red" transform="translate(1400 1200) scale(0.1 -0.1)"><path d="M0.0 0.0V-528.0H162.0V0.0H0.0Z"/></g>
<g fill="black" opacity=".8" transform="translate(1400 1200) scale(0.1 -0.1)"><path d="M0.0 0.0V-528.0H163.0V0.0H0.0Z"/></g>
<g fill="red" transform="translate(1500 1200) scale(0.1 -0.1)"><path d="M0.0 0.0V-614.0H33.0V0.0H0.0Z"/></g>
<g fill="black" opacity=".8" transform="translate(1500 1200) scale(0.1 -0.1)"><path d="M0.0 0.0V-614.0H33.0V0.0H0.0Z"/></g>
<g fill="red" transform="translate(1600 1200) scale(0.1 -0.1)"><path d="M0.0 0.0V-635.0H162.0V0.0H0.0Z"/></g>
<g fill="black" opacity=".8" transform="translate(1600 1200) scale(0.1 -0.1)"><path d="M0.0 0.0V-635.0H163.0V0.0H0.0Z"/></g>
<g fill="red" transform="translate(100 1300) scale(0.1 -0.1)"><path d="M0.0 0.0V-554.0H33.0V0.0H0.0Z"/></g>
<g fill="black" opacity=".8" transform="translate(100 1300) scale(0.1 -0.1)"><path d="M0.0 0.0V-554.0H33.0V0.0H0.0Z"/></g>
<g fill="red" transform="translate(200 1300) scale(0.1 -0.1)"><path d="M0.0 0.0V-551.0H162.0V0.0H0.0Z"/></g>
<g fill="black" opacity=".8" transform="translate(200 1300) scale(0.1 -0.1)"><path d="M0.0 0.0V-551.0H163.0V0.0H0.0Z"/></g>
<g fill="red" transform="translate(300 1300) scale(0.1 -0.1)"><path d="M0.0 0.0V-509.0H33.0V0.0H0.0Z"/></g>
<g fill="black" opacity=".8" transform="translate(300 1300) scale(0.1 -0.1)"><path d="M0.0 0.0V-509.0H33.0V0.0H0.0Z"/></g>
<g fill="red" transform="translate(400 1300) scale(0.1 -0.1)"><path d="M0.0 0.0V-538.0H162.0V0.0H0.0Z"/></g>
<g fill="black" opacity=".8" transform="translate(400 1300) scale(0.1 -0.1)"><path d="M0.0 0.0V-538.0H163.0V0.0H0.0Z"/></g>
<g fill="red" transform="translate(500 1300) scale(0.1 -0.1)"><path d="M0.0 0.0V-500.0H33.0V0.0H0.0Z"/></g>
<g fill="black" opacity=".8" transform="translate(500 1300) scale(0.1 -0.1)"><path d="M0.0 0.0V-500.0H32.0V0.0H0.0Z"/></g>
<g fill="red" transform="translate(600 1300) scale(0.1 -0.1)"><path d="M0.0 0.0V-500.0H159.0V0.0H0.0Z"/></g>
<g fill="black" opacity=".8" transform="translate(600 1300) scale(0.1 -0.1)"><path d="M0.0 0.0V-500.0H160.0V0.0H0.0Z"/></g>
<g fill="red" transform="translate(700 1300) scale(0.1 -0.1)"><path d="M0.0 0.0V-513.0H33.0V0.0H0.0Z"/></g>
<g fill="black" opacity=".8" transform="translate(700 1300) scale(0.1 -0.1)"><path d="M0.0 0.0V-513.0H34.0V0.0H0.0Z"/></g>
<g fill="red" transform="translate(800 1300) scale(0.1 -0.1)"><path d="M0.0 0.0V-533.0H168.0V0.0H0.0Z"/></g>
<g fill="black" opacity=".8" transform="translate(800 1300) scale(0.1 -0.1)"><path d="M0.0 0.0V-533.0H169.0V0.0H0.0Z"/></g>
<g fill="red" transform="translate(900 1300) scale(0.1 -0.1)"><path d="M0.0 0.0V-655.0H33.0V0.0H0.0Z"/></g>
<g fill="black" opacity=".8" transform="translate(900 1300) scale(0.1 -0.1)"><path d="M0.0 0.0V-655.0H33.0V0.0H0.0Z"/></g>
<g fill="red" transform="translate(1000 1300) scale(0.1 -0.1)"><path d="M0.0 0.0V-668.0H162.0V0.0H0.0Z"/></g>
<g fill="black" opacity=".8" transform="translate(1000 1300) scale(0.1 -0.1)"><path d="M0.0 0.0V-668.0H163.0V0.0H0.0Z"/></g>
<g fill="red" transform="translate(1100 1300) scale(0.1 -0.1)"><path d="M0.0 0.0V-513.0H34.0V0.0H0.0Z"/></g>
<g fill="black" opacity=".8" transform="translate(1100 1300) scale(0.1 -0.1)"><path d="M0.0 0.0V-513.0H34.0V0.0H0.0Z"/></g>
<g fill="red" transform="translate(1200 1300) scale(0.1 -0.1)"><path d="M0.0 0.0V-533.0H168.0V0.0H0.0Z"/></g>
<g fill="black" opacity=".8" transform="translate(1200 1300) scale(0.1 -0.1)"><path d="M0.0 0.0V-533.0H169.0V0.0H0.0Z"/></g>
<g fill="red" transform="translate(1300 1300) scale(0.1 -0.1)"><path d="M0.0 0.0V-468.0H33.0V0.0H0.0Z"/></g>
<g fill="black" opacity=".8" transform="translate(1300 1300) scale(0.1 -0.1)"><path d="M0.0 0.0V-468.0H33.0V0.0H0.0Z"/></g>
<g fill="red" transform="translate(1400 1300) scale(0.1 -0.1)"><path d="M0.0 0.0V-467.0H162.0V0.0H0.0Z"/></g>
<g fill="black" opacity=".8" transform="translate(1400 1300) scale(0.1 -0.1)"><path d="M0.0 0.0V-467.0H163.0V0.0H0.0Z"/></g>
<g fill="red" transform="translate(1500 1300) scale(0.1 -0.1)"><path d="M0.0 0.0V-463.0H33.0V0.0H0.0Z"/></g>
<g fill="black" opacity=".8" transform="translate(1500 1300) scale(0.1 -0.1)"><path d="M0.0 0.0V-463.0H33.0V0.0H0.0Z"/></g>
<g fill="red" transform="translate(1600 1300) scale(0.1 -0.1)"><path d="M0.0 0.0V-463.0H162.0V0.0H0.0Z"/></g>
<g fill="black" opacity=".8" transform="translate(1600 1300) scale(0.1 -0.1)"><path d="M0.0 0.0V-463.0H163.0V0.0H0.0Z"/></g>
<g fill="red" transform="translate(100 1400) scale(0.1 -0.1)"><path d="M0.0 0.0V-481.0H32.0V0.0H0.0Z"/></g>
<g fill="black" opacity=".8" transform="translate(100 1400) scale(0.1 -0.1)"><path d="M0.0 0.0V-481.0H33.0V0.0H0.0Z"/></g>
<g fill="red" transform="translate(200 1400) scale(0.1 -0.1)"><path d="M0.0 0.0V-477.0H162.0V0.0H0.0Z"/></g>
<g fill="black" opacity=".8" transform="translate(200 1400) scale(0.1 -0.1)"><path d="M0.0 0.0V-477.0H163.0V0.0H0.0Z"/></g>
<g fill="red" transform="translate(300 1400) scale(0.1 -0.1)"><path d="M0.0 0.0V-468.0H32.0V0.0H0.0Z"/></g>
<g fill="black" opacity=".8" transform="translate(300 1400) scale(0.1 -0.1)"><path d="M0.0 0.0V-468.0H33.0V0.0H0.0Z"/></g>
<g fill="red" transform="translate(400 1400) scale(0.1 -0.1)"><path d="M0.0 0.0V-472.0H162.0V0.0H0.0Z"/></g>
<g fill="black" opacity=".8" transform="translate(400 1400) scale(0.1 -0.1)"><path d="M0.0 0.0V-472.0H163.0V0.0H0.0Z"/></g>
<g fill="red" transform="translate(500 1400) scale(0.1 -0.1)"><path d="M0.0 0.0V-458.0H33.0V0.0H0.0Z"/></g>
<g fill="black" opacity=".8" transform="translate(500 1400) scale(0.1 -0.1)"><path d="M0.0 0.0V-458.0H34.0V0.0H0.0Z"/></g>
<g fill="red" transform="translate(600 1400) scale(0.1 -0.1)"><path d="M0.0 0.0V-467.0H168.0V0.0H0.0Z"/></g>
<g fill="black" opacity=".8" transform="translate(600 1400) scale(0.1 -0.1)"><path d="M0.0 0.0V-467.0H169.0V0.0H0.0Z"/></g>
<g fill="red" transform="translate(700 1400) scale(0.1 -0.1)"><path d="M0.0 0.0V-458.0H32.0V0.0H0.0Z"/></g>
<g fill="black" opacity=".8" transform="translate(700 1400) scale(0.1 -0.1)"><path d="M0.0 0.0V-458.0H33.0V0.0H0.0Z"/></g>
<g fill="red" transform="translate(800 1400) scale(0.1 -0.1)"><path d="M0.0 0.0V-453.0H162.0V0.0H0.0Z"/></g>
<g fill="black" opacity=".8" transform="translate(800 1400) scale(0.1 -0.1)"><path d="M0.0 0.0V-453.0H163.0V0.0H0.0Z"/></g>
<g fill="red" transform="translate(900 1400) scale(0.1 -0.1)"><path d="M0.0 0.0V-458.0H33.0V0.0H0.0Z"/></g>
<g fill="black" opacity=".8" transform="translate(900 1400) scale(0.1 -0.1)"><path d="M0.0 0.0V-458.0H34.0V0.0H0.0Z"/></g>
<g fill="red" transform="translate(1000 1400) scale(0.1 -0.1)"><path d="M0.0 0.0V-533.0H168.0V0.0H0.0Z"/></g>
<g fill="black" opacity=".8" transform="translate(1000 1400) scale(0.1 -0.1)"><path d="M0.0 0.0V-533.0H169.0V0.0H0.0Z"/></g>
<g fill="red" transform="translate(1100 1400) scale(0.1 -0.1)"><path d="M0.0 0.0V-468.0H33.0V0.0H0.0Z"/></g>
<g fill="black" opacity=".8" transform="translate(1100 1400) scale(0.1 -0.1)"><path d="M0.0 0.0V-468.0H33.0V0.0H0.0Z"/></g>
<g fill="red" transform="translate(1200 1400) scale(0.1 -0.1)"><path d="M0.0 0.0V-509.0H162.0V0.0H0.0Z"/></g>
<g fill="black" opacity=".8" transform="translate(1200 1400) scale(0.1 -0.1)"><path d="M0.0 0.0V-509.0H163.0V0.0H0.0Z"/></g>
<g fill="red" transform="translate(1300 1400) scale(0.1 -0.1)"><path d="M0.0 0.0V-500.0H32.0V0.0H0.0Z"/></g>
<g fill="black" opacity=".8" transform="translate(1300 1400) scale(0.1 -0.1)"><path d="M0.0 0.0V-500.0H33.0V0.0H0.0Z"/></g>
<g fill="red" transform="translate(1400 1400) scale(0.1 -0.1)"><path d="M0.0 0.0V-504.0H162.0V0.0H0.0Z"/></g>
<g fill="black" opacity=".8" transform="translate(1400 1400) scale(0.1 -0.1)"><path d="M0.0 0.0V-504.0H163.0V0.0H0.0Z"/></g>
<g fill="red" transform="translate(1500 1400) scale(0.1 -0.1)"><path d="M0.0 0.0V-883.0H32.0V0.0H0.0Z"/></g>
<g fill="black" opacity=".8" transform="translate(1500 1400) scale(0.1 -0.1)"><path d="M0.0 0.0V-883.0H34.0V0.0H0.0Z"/></g>
<g fill="red" transform="translate(1600 1400) scale(0.1 -0.1)"><path d="M0.0 0.0V-938.0H162.0V0.0H0.0Z"/></g>
<g fill="black" opacity=".8" transform="translate(1600 1400) scale(0.1 -0.1)"><path d="M0.0 0.0V-938.0H162.0V0.0H0.0Z"/></g>
<g fill="red" transform="translate(100 1500) scale(0.1 -0.1)"><path d="M0.0 0.0V-536.0H33.0V0.0H0.0Z"/></g>
<g fill="black" opacity=".8" transform="translate(100 1500) scale(0.1 -0.1)"><path d="M0.0 0.0V-536.0H33.0V0.0H0.0Z"/></g>
<g fill="red" transform="translate(200 1500) scale(0.1 -0.1)"><path d="M0.0 0.0V-565.0H162.0V0.0H0.0Z"/></g>
<g fill="black" opacity=".8" transform="translate(200 1500) scale(0.1 -0.1)"><path d="M0.0 0.0V-565.0H163.0V0.0H0.0Z"/></g>
<g fill="red" transform="translate(300 1500) scale(0.1 -0.1)"><path d="M0.0 0.0V-513.0H32.0V0.0H0.0Z"/></g>
<g fill="black" opacity=".8" transform="translate(300 1500) scale(0.1 -0.1)"><path d="M0.0 0.0V-513.0H34.0V0.0H0.0Z"/></g>
<g fill="red" transform="translate(400 1500) scale(0.1 -0.1)"><path d="M0.0 0.0V-533.0H168.0V0.0H0.0Z"/></g>
<g fill="black" opacity=".8" transform="translate(400 1500) scale(0.1 -0.1)"><path d="M0.0 0.0V-533.0H169.0V0.0H0.0Z"/></g>
<g fill="red" transform="translate(500 1500) scale(0.1 -0.1)"><path d="M0.0 0.0V-655.0H33.0V0.0H0.0Z"/></g>
<g fill="black" opacity=".8" transform="translate(500 1500) scale(0.1 -0.1)"><path d="M0.0 0.0V-655.0H33.0V0.0H0.0Z"/></g>
<g fill="red" transform="translate(600 1500) scale(0.1 -0.1)"><path d="M0.0 0.0V-672.0H162.0V0.0H0.0Z"/></g>
<g fill="black" opacity=".8" transform="translate(600 1500) scale(0.1 -0.1)"><path d="M0.0 0.0V-672.0H163.0V0.0H0.0Z"/></g>
<g fill="red" transform="translate(700 1500) scale(0.1 -0.1)"><path d="M0.0 0.0V-477.0H33.0V0.0H0.0Z"/></g>
<g fill="black" opacity=".8" transform="translate(700 1500) scale(0.1 -0.1)"><path d="M0.0 0.0V-477.0H33.0V0.0H0.0Z"/></g>
<g fill="red" transform="translate(800 1500) scale(0.1 -0.1)"><path d="M0.0 0.0V-467.0H162.0V0.0H0.0Z"/></g>
<g fill="black" opacity=".8" transform="translate(800 1500) scale(0.1 -0.1)"><path d="M0.0 0.0V-467.0H163.0V0.0H0.0Z"/></g>
<g fill="red" transform="translate(900 1500) scale(0.1 -0.1)"><path d="M0.0 0.0V-518.0H33.0V0.0H0.0Z"/></g>
<g fill="black" opacity=".8" transform="translate(900 1500) scale(0.1 -0.1)"><path d="M0.0 0.0V-518.0H33.0V0.0H0.0Z"/></g>
<g fill="red" transform="translate(1000 1500) scale(0.1 -0.1)"><path d="M0.0 0.0V-528.0H162.0V0.0H0.0Z"/></g>
<g fill="black" opacity=".8" transform="translate(1000 1500) scale(0.1 -0.1)"><path d="M0.0 0.0V-528.0H163.0V0.0H0.0Z"/></g>
<g fill="red" transform="translate(1100 1500) scale(0.1 -0.1)"><path d="M0.0 0.0V-458.0H32.0V0.0H0.0Z"/></g>
<g fill="black" opacity=".8" transform="translate(1100 1500) scale(0.1 -0.1)"><path d="M0.0 0.0V-458.0H34.0V0.0H0.0Z"/></g>
<g fill="red" transform="translate(1200 1500) scale(0.1 -0.1)"><path d="M0.0 0.0V-472.0H167.0V0.0H0.0Z"/></g>
<g fill="black" opacity=".8" transform="translate(1200 1500) scale(0.1 -0.1)"><path d="M0.0 0.0V-472.0H168.0V0.0H0.0Z"/></g>
<g fill="red" transform="translate(1300 1500) scale(0.1 -0.1)"><path d="M0.0 0.0V-468.0H32.0V0.0H0.0Z"/></g>
<g fill="black" opacity=".8" transform="translate(1300 1500) scale(0.1 -0.1)"><path d="M0.0 0.0V-468.0H33.0V0.0H0.0Z"/></g>
<g fill="red" transform="translate(1400 1500) scale(0.1 -0.1)"><path d="M0.0 0.0V-491.0H162.0V0.0H0.0Z"/></g>
<g fill="black" opacity=".8" transform="translate(1400 1500) scale(0.1 -0.1)"><path d="M0.0 0.0V-491.0H163.0V0.0H0.0Z"/></g>
<g fill="red" transform="translate(1500 1500) scale(0.1 -0.1)"><path d="M0.0 0.0V-450.0H33.0V0.0H0.0Z"/></g>
<g fill="black" opacity=".8" transform="translate(1500 1500) scale(0.1 -0.1)"><path d="M0.0 0.0V-450.0H33.0V0.0H0.0Z"/></g>
<g fill="red" transform="translate(1600 1500) scale(0.1 -0.1)"><path d="M0.0 0.0V-472.0H162.0V0.0H0.0Z"/></g>
<g fill="black" opacity=".8" transform="translate(1600 1500) scale(0.1 -0.1)"><path d="M0.0 0.0V-472.0H163.0V0.0H0.0Z"/></g>
<g fill="red" transform="translate(100 1600) scale(0.1 -0.1)"><path d="M0.0 0.0V-477.0H33.0V0.0H0.0Z"/></g>
<g fill="black" opacity=".8" transform="translate(100 1600) scale(0.1 -0.1)"><path d="M0.0 0.0V-477.0H33.0V0.0H0.0Z"/></g>
<g fill="red" transform="translate(200 1600) scale(0.1 -0.1)"><path d="M0.0 0.0V-509.0H162.0V0.0H0.0Z"/></g>
<g fill="black" opacity=".8" transform="translate(200 1600) scale(0.1 -0.1)"><path d="M0.0 0.0V-509.0H163.0V0.0H0.0Z"/></g>
<g fill="red" transform="translate(300 1600) scale(0.1 -0.1)"><path d="M0.0 0.0V-458.0H32.0V0.0H0.0Z"/></g>
<g fill="black" opacity=".8" transform="translate(300 1600) scale(0.1 -0.1)"><path d="M0.0 0.0V-458.0H34.0V0.0H0.0Z"/></g>
<g fill="red" transform="translate(400 1600) scale(0.1 -0.1)"><path d="M0.0 0.0V-533.0H167.0V0.0H0.0Z"/></g>
<g fill="black" opacity=".8" transform="translate(400 1600) scale(0.1 -0.1)"><path d="M0.0 0.0V-533.0H168.0V0.0H0.0Z"/></g>
<g fill="red" transform="translate(500 1600) scale(0.1 -0.1)"><path d="M0.0 0.0V-541.0H33.0V0.0H0.0Z"/></g>
<g fill="black" opacity=".8" transform="translate(500 1600) scale(0.1 -0.1)"><path d="M0.0 0.0V-541.0H33.0V0.0H0.0Z"/></g>
<g fill="red" transform="translate(600 1600) scale(0.1 -0.1)"><path d="M0.0 0.0V-551.0H162.0V0.0H0.0Z"/></g>
<g fill="black" opacity=".8" transform="translate(600 1600) scale(0.1 -0.1)"><path d="M0.0 0.0V-551.0H163.0V0.0H0.0Z"/></g>
<g fill="red" transform="translate(700 1600) scale(0.1 -0.1)"><path d="M0.0 0.0V-463.0H32.0V0.0H0.0Z"/></g>
<g fill="black" opacity=".8" transform="translate(700 1600) scale(0.1 -0.1)"><path d="M0.0 0.0V-463.0H33.0V0.0H0.0Z"/></g>
<g fill="red" transform="translate(800 1600) scale(0.1 -0.1)"><path d="M0.0 0.0V-491.0H162.0V0.0H0.0Z"/></g>
<g fill="black" opacity=".8" transform="translate(800 1600) scale(0.1 -0.1)"><path d="M0.0 0.0V-491.0H163.0V0.0H0.0Z"/></g>
<g fill="red" transform="translate(900 1600) scale(0.1 -0.1)"><path d="M0.0 0.0V-500.0H32.0V0.0H0.0Z"/></g>
<g fill="black" opacity=".8" transform="translate(900 1600) scale(0.1 -0.1)"><path d="M0.0 0.0V-500.0H33.0V0.0H0.0Z"/></g>
<g fill="red" transform="translate(1000 1600) scale(0.1 -0.1)"><path d="M0.0 0.0V-514.0H162.0V0.0H0.0Z"/></g>
<g fill="black" opacity=".8" transform="translate(1000 1600) scale(0.1 -0.1)"><path d="M0.0 0.0V-514.0H163.0V0.0H0.0Z"/></g>
<g fill="red" transform="translate(1100 1600) scale(0.1 -0.1)"><path d="M0.0 0.0V-531.0H33.0V0.0H0.0Z"/></g>
<g fill="black" opacity=".8" transform="translate(1100 1600) scale(0.1 -0.1)"><path d="M0.0 0.0V-531.0H33.0V0.0H0.0Z"/></g>
<g fill="red" transform="translate(1200 1600) scale(0.1 -0.1)"><path d="M0.0 0.0V-556.0H162.0V0.0H0.0Z"/></g>
<g fill="black" opacity=".8" transform="translate(1200 1600) scale(0.1 -0.1)"><path d="M0.0 0.0V-556.0H163.0V0.0H0.0Z"/></g>
<g fill="red" transform="translate(1300 1600) scale(0.1 -0.1)"><path d="M0.0 0.0V-531.0H33.0V0.0H0.0Z"/></g>
<g fill="black" opacity=".8" transform="translate(1300 1600) scale(0.1 -0.1)"><path d="M0.0 0.0V-531.0H33.0V0.0H0.0Z"/></g>
<g fill="red" transform="translate(1400 1600) scale(0.1 -0.1)"><path d="M0.0 0.0V-533.0H162.0V0.0H0.0Z"/></g>
<g fill="black" opacity=".8" transform="translate(1400 1600) scale(0.1 -0.1)"><path d="M0.0 0.0V-533.0H163.0V0.0H0.0Z"/></g>
<g fill="red" transform="translate(1500 1600) scale(0.1 -0.1)"><path d="M0.0 0.0V-664.0H33.0V0.0H0.0Z"/></g>
<g fill="black" opacity=".8" transform="translate(1500 1600) scale(0.1 -0.1)"><path d="M0.0 0.0V-664.0H33.0V0.0H0.0Z"/></g>
<g fill="red" transform="translate(1600 1600) scale(0.1 -0.1)"><path d="M0.0 0.0V-687.0H162.0V0.0H0.0Z"/></g>
<g fill="black" opacity=".8" transform="translate(1600 1600) scale(0.1 -0.1)"><path d="M0.0 0.0V-687.0H163.0V0.0H0.0Z"/></g>
<g fill="red" transform="translate(100 1700) scale(0.1 -0.1)"><path d="M0.0 0.0V-523.0H33.0V0.0H0.0Z"/></g>
<g fill="black" opacity=".8" transform="translate(100 1700) scale(0.1 -0.1)"><path d="M0.0 0.0V-523.0H33.0V0.0H0.0Z"/></g>
<g fill="red" transform="translate(200 1700) scale(0.1 -0.1)"><path d="M0.0 0.0V-523.0H162.0V0.0H0.0Z"/></g>
<g fill="black" opacity=".8" transform="translate(200 1700) scale(0.1 -0.1)"><path d="M0.0 0.0V-523.0H163.0V0.0H0.0Z"/></g>
<g fill="red" transform="translate(300 1700) scale(0.1 -0.1)"><path d="M0.0 0.0V-473.0H33.0V0.0H0.0Z"/></g>
<g fill="black" opacity=".8" transform="translate(300 1700) scale(0.1 -0.1)"><path d="M0.0 0.0V-473.0H33.0V0.0H0.0Z"/></g>
<g fill="red" transform="translate(400 1700) scale(0.1 -0.1)"><path d="M0.0 0.0V-486.0H162.0V0.0H0.0Z"/></g>
<g fill="black" opacity=".8" transform="translate(400 1700) scale(0.1 -0.1)"><path d="M0.0 0.0V-486.0H163.0V0.0H0.0Z"/></g>
<g fill="red" transform="translate(500 1700) scale(0.1 -0.1)"><path d="M0.0 0.0V-473.0H33.0V0.0H0.0Z"/></g>
<g fill="black" opacity=".8" transform="translate(500 1700) scale(0.1 -0.1)"><path d="M0.0 0.0V-473.0H33.0V0.0H0.0Z"/></g>
<g fill="red" transform="translate(600 1700) scale(0.1 -0.1)"><path d="M0.0 0.0V-482.0H162.0V0.0H0.0Z"/></g>
<g fill="black" opacity=".8" transform="translate(600 1700) scale(0.1 -0.1)"><path d="M0.0 0.0V-482.0H163.0V0.0H0.0Z"/></g>
<g fill="red" transform="translate(700 1700) scale(0.1 -0.1)"><path d="M0.0 0.0V-473.0H33.0V0.0H0.0Z"/></g>
<g fill="black" opacity=".8" transform="translate(700 1700) scale(0.1 -0.1)"><path d="M0.0 0.0V-473.0H33.0V0.0H0.0Z"/></g>
<g fill="red" transform="translate(800 1700) scale(0.1 -0.1)"><path d="M0.0 0.0V-467.0H162.0V0.0H0.0Z"/></g>
<g fill="black" opacity=".8" transform="translate(800 1700) scale(0.1 -0.1)"><path d="M0.0 0.0V-467.0H163.0V0.0H0.0Z"/></g>
<g fill="red" transform="translate(900 1700) scale(0.1 -0.1)"><path d="M0.0 0.0V-495.0H33.0V0.0H0.0Z"/></g>
<g fill="black" opacity=".8" transform="translate(900 1700) scale(0.1 -0.1)"><path d="M0.0 0.0V-495.0H33.0V0.0H0.0Z"/></g>
<g fill="red" transform="translate(1000 1700) scale(0.1 -0.1)"><path d="M0.0 0.0V-514.0H162.0V0.0H0.0Z"/></g>
<g fill="black" opacity=".8" transform="translate(1000 1700) scale(0.1 -0.1)"><path d="M0.0 0.0V-514.0H163.0V0.0H0.0Z"/></g>
<g fill="red" transform="translate(1100 1700) scale(0.1 -0.1)"><path d="M0.0 0.0V-473.0H33.0V0.0H0.0Z"/></g>
<g fill="black" opacity=".8" transform="translate(1100 1700) scale(0.1 -0.1)"><path d="M0.0 0.0V-473.0H33.0V0.0H0.0Z"/></g>
<g fill="red" transform="translate(1200 1700) scale(0.1 -0.1)"><path d="M0.0 0.0V-533.0H162.0V0.0H0.0Z"/></g>
<g fill="black" opacity=".8" transform="translate(1200 1700) scale(0.1 -0.1)"><path d="M0.0 0.0V-533.0H163.0V0.0H0.0Z"/></g>
<g fill="red" transform="translate(1300 1700) scale(0.1 -0.1)"><path d="M0.0 0.0V-614.0H33.0V0.0H0.0Z"/></g>
<g fill="black" opacity=".8" transform="translate(1300 1700) scale(0.1 -0.1)"><path d="M0.0 0.0V-614.0H33.0V0.0H0.0Z"/></g>
<g fill="red" transform="translate(1400 1700) scale(0.1 -0.1)"><path d="M0.0 0.0V-607.0H162.0V0.0H0.0Z"/></g>
<g fill="black" opacity=".8" transform="translate(1400 1700) scale(0.1 -0.1)"><path d="M0.0 0.0V-607.0H163.0V0.0H0.0Z"/></g>
<g fill="red" transform="translate(1500 1700) scale(0.1 -0.1)"><path d="M0.0 0.0V-528.0H33.0V0.0H0.0Z"/></g>
<g fill="black" opacity=".8" transform="translate(1500 1700) scale(0.1 -0.1)"><path d="M0.0 0.0V-528.0H33.0V0.0H0.0Z"/></g>
<g fill="red" transform="translate(1600 1700) scale(0.1 -0.1)"><path d="M0.0 0.0V-523.0H162.0V0.0H0.0Z"/></g>
<g fill="black" opacity=".8" transform="translate(1600 1700) scale(0.1 -0.1)"><path d="M0.0 0.0V-523.0H163.0V0.0H0.0Z"/></g>
<g fill="red" transform="translate(100 1800) scale(0.1 -0.1)"><path d="M0.0 0.0V-559.0H33.0V0.0H0.0Z"/></g>
<g fill="black" opacity=".8" transform="translate(100 1800) scale(0.1 -0.1)"><path d="M0.0 0.0V-559.0H33.0V0.0H0.0Z"/></g>
<g fill="red" transform="translate(200 1800) scale(0.1 -0.1)"><path d="M0.0 0.0V-560.0H162.0V0.0H0.0Z"/></g>
<g fill="black" opacity=".8" transform="translate(200 1800) scale(0.1 -0.1)"><path d="M0.0 0.0V-560.0H163.0V0.0H0.0Z"/></g>
<g fill="red" transform="translate(300 1800) scale(0.1 -0.1)"><path d="M0.0 0.0V-523.0H33.0V0.0H0.0Z"/></g>
<g fill="black" opacity=".8" transform="translate(300 1800) scale(0.1 -0.1)"><path d="M0.0 0.0V-523.0H33.0V0.0H0.0Z"/></g>
<g fill="red" transform="translate(400 1800) scale(0.1 -0.1)"><path d="M0.0 0.0V-533.0H162.0V0.0H0.0Z"/></g>
<g fill="black" opacity=".8" transform="translate(400 1800) scale(0.1 -0.1)"><path d="M0.0 0.0V-533.0H163.0V0.0H0.0Z"/></g>
<g fill="red" transform="translate(500 1800) scale(0.1 -0.1)"><path d="M0.0 0.0V-528.0H33.0V0.0H0.0Z"/></g>
<g fill="black" opacity=".8" transform="translate(500 1800) scale(0.1 -0.1)"><path d="M0.0 0.0V-528.0H33.0V0.0H0.0Z"/></g>
<g fill="red" transform="translate(600 1800) scale(0.1 -0.1)"><path d="M0.0 0.0V-533.0H162.0V0.0H0.0Z"/></g>
<g fill="black" opacity=".8" transform="translate(600 1800) scale(0.1 -0.1)"><path d="M0.0 0.0V-533.0H163.0V0.0H0.0Z"/></g>
<g fill="red" transform="translate(700 1800) scale(0.1 -0.1)"><path d="M0.0 0.0V-505.0H33.0V0.0H0.0Z"/></g>
<g fill="black" opacity=".8" transform="translate(700 1800) scale(0.1 -0.1)"><path d="M0.0 0.0V-505.0H33.0V0.0H0.0Z"/></g>
<g fill="red" transform="translate(800 1800) scale(0.1 -0.1)"><path d="M0.0 0.0V-504.0H162.0V0.0H0.0Z"/></g>
<g fill="black" opacity=".8" transform="translate(800 1800) scale(0.1 -0.1)"><path d="M0.0 0.0V-504.0H163.0V0.0H0.0Z"/></g>
<g fill="red" transform="translate(900 1800) scale(0.1 -0.1)"><path d="M0.0 0.0V-546.0H33.0V0.0H0.0Z"/></g>
<g fill="black" opacity=".8" transform="translate(900 1800) scale(0.1 -0.1)"><path d="M0.0 0.0V-546.0H33.0V0.0H0.0Z"/></g>
<g fill="red" transform="translate(1000 1800) scale(0.1 -0.1)"><path d="M0.0 0.0V-575.0H162.0V0.0H0.0Z"/></g>
<g fill="black" opacity=".8" transform="translate(1000 1800) scale(0.1 -0.1)"><path d="M0.0 0.0V-575.0H163.0V0.0H0.0Z"/></g>
<g fill="red" transform="translate(1100 1800) scale(0.1 -0.1)"><path d="M0.0 0.0V-536.0H33.0V0.0H0.0Z"/></g>
<g fill="black" opacity=".8" transform="translate(1100 1800) scale(0.1 -0.1)"><path d="M0.0 0.0V-536.0H33.0V0.0H0.0Z"/></g>
<g fill="red" transform="translate(1200 1800) scale(0.1 -0.1)"><path d="M0.0 0.0V-560.0H162.0V0.0H0.0Z"/></g>
<g fill="black" opacity=".8" transform="translate(1200 1800) scale(0.1 -0.1)"><path d="M0.0 0.0V-560.0H163.0V0.0H0.0Z"/></g>
<g fill="red" transform="translate(1300 1800) scale(0.1 -0.1)"><path d="M0.0 0.0V-659.0H33.0V0.0H0.0Z"/></g>
<g fill="black" opacity=".8" transform="translate(1300 1800) scale(0.1 -0.1)"><path d="M0.0 0.0V-659.0H33.0V0.0H0.0Z"/></g>
<g fill="red" transform="translate(1400 1800) scale(0.1 -0.1)"><path d="M0.0 0.0V-682.0H162.0V0.0H0.0Z"/></g>
<g fill="black" opacity=".8" transform="translate(1400 1800) scale(0.1 -0.1)"><path d="M0.0 0.0V-682.0H163.0V0.0H0.0Z"/></g>
<g fill="red" transform="translate(1500 1800) scale(0.1 -0.1)"><path d="M0.0 0.0V-536.0H33.0V0.0H0.0Z"/></g>
<g fill="black" opacity=".8" transform="translate(1500 1800) scale(0.1 -0.1)"><path d="M0.0 0.0V-536.0H33.0V0.0H0.0Z"/></g>
<g fill="red" transform="translate(1600 1800) scale(0.1 -0.1)"><path d="M0.0 0.0V-486.0H162.0V0.0H0.0Z"/></g>
<g fill="black" opacity=".8" transform="translate(1600 1800) scale(0.1 -0.1)"><path d="M0.0 0.0V-486.0H163.0V0.0H0.0Z"/></g>
<g fill="red" transform="translate(100 1900) scale(0.1 -0.1)"><path d="M0.0 0.0V-518.0H33.0V0.0H0.0Z"/></g>
<g fill="black" opacity=".8" transform="translate(100 1900) scale(0.1 -0.1)"><path d="M0.0 0.0V-518.0H33.0V0.0H0.0Z"/></g>
<g fill="red" transform="translate(200 1900) scale(0.1 -0.1)"><path d="M0.0 0.0V-542.0H162.0V0.0H0.0Z"/></g>
<g fill="black" opacity=".8" transform="translate(200 1900) scale(0.1 -0.1)"><path d="M0.0 0.0V-542.0H163.0V0.0H0.0Z"/></g>
<g fill="red" transform="translate(300 1900) scale(0.1 -0.1)"><path d="M0.0 0.0V-491.0H32.0V0.0H0.0Z"/></g>
<g fill="black" opacity=".8" transform="translate(300 1900) scale(0.1 -0.1)"><path d="M0.0 0.0V-491.0H33.0V0.0H0.0Z"/></g>
<g fill="red" transform="translate(400 1900) scale(0.1 -0.1)"><path d="M0.0 0.0V-491.0H162.0V0.0H0.0Z"/></g>
<g fill="black" opacity=".8" transform="translate(400 1900) scale(0.1 -0.1)"><path d="M0.0 0.0V-491.0H163.0V0.0H0.0Z"/></g>
<g fill="red" transform="translate(500 1900) scale(0.1 -0.1)"><path d="M0.0 0.0V-486.0H32.0V0.0H0.0Z"/></g>
<g fill="black" opacity=".8" transform="translate(500 1900) scale(0.1 -0.1)"><path d="M0.0 0.0V-486.0H33.0V0.0H0.0Z"/></g>
<g fill="red" transform="translate(600 1900) scale(0.1 -0.1)"><path d="M0.0 0.0V-500.0H162.0V0.0H0.0Z"/></g>
<g fill="black" opacity=".8" transform="translate(600 1900) scale(0.1 -0.1)"><path d="M0.0 0.0V-500.0H163.0V0.0H0.0Z"/></g>
<g fill="red" transform="translate(700 1900) scale(0.1 -0.1)"><path d="M0.0 0.0V-486.0H32.0V0.0H0.0Z"/></g>
<g fill="black" opacity=".8" transform="translate(700 1900) scale(0.1 -0.1)"><path d="M0.0 0.0V-486.0H33.0V0.0H0.0Z"/></g>
<g fill="red" transform="translate(800 1900) scale(0.1 -0.1)"><path d="M0.0 0.0V-491.0H162.0V0.0H0.0Z"/></g>
<g fill="black" opacity=".8" transform="translate(800 1900) scale(0.1 -0.1)"><path d="M0.0 0.0V-491.0H163.0V0.0H0.0Z"/></g>
<g fill="red" transform="translate(900 1900) scale(0.1 -0.1)"><path d="M0.0 0.0V-486.0H32.0V0.0H0.0Z"/></g>
<g fill="black" opacity=".8" transform="translate(900 1900) scale(0.1 -0.1)"><path d="M0.0 0.0V-486.0H33.0V0.0H0.0Z"/></g>
<g fill="red" transform="translate(1000 1900) scale(0.1 -0.1)"><path d="M0.0 0.0V-478.0H162.0V0.0H0.0Z"/></g>
<g fill="black" opacity=".8" transform="translate(1000 1900) scale(0.1 -0.1)"><path d="M0.0 0.0V-478.0H163.0V0.0H0.0Z"/></g>
<g fill="red" transform="translate(1100 1900) scale(0.1 -0.1)"><path d="M0.0 0.0V-528.0H33.0V0.0H0.0Z"/></g>
<g fill="black" opacity=".8" transform="translate(1100 1900) scale(0.1 -0.1)"><path d="M0.0 0.0V-528.0H33.0V0.0H0.0Z"/></g>
<g fill="red" transform="translate(1200 1900) scale(0.1 -0.1)"><path d="M0.0 0.0V-546.0H162.0V0.0H0.0Z"/></g>
<g fill="black" opacity=".8" transform="translate(1200 1900) scale(0.1 -0.1)"><path d="M0.0 0.0V-546.0H163.0V0.0H0.0Z"/></g>
<g fill="red" transform="translate(1300 1900) scale(0.1 -0.1)"><path d="M0.0 0.0V-486.0H33.0V0.0H0.0Z"/></g>
<g fill="black" opacity=".8" transform="translate(1300 1900) scale(0.1 -0.1)"><path d="M0.0 0.0V-486.0H33.0V0.0H0.0Z"/></g>
<g fill="red" transform="translate(1400 1900) scale(0.1 -0.1)"><path d="M0.0 0.0V-519.0H162.0V0.0H0.0Z"/></g>
<g fill="black" opacity=".8" transform="translate(1400 1900) scale(0.1 -0.1)"><path d="M0.0 0.0V-519.0H163.0V0.0H0.0Z"/></g>
<g fill="red" transform="translate(1500 1900) scale(0.1 -0.1)"><path d="M0.0 0.0V-473.0H33.0V0.0H0.0Z"/></g>
<g fill="black" opacity=".8" transform="translate(1500 1900) scale(0.1 -0.1)"><path d="M0.0 0.0V-473.0H33.0V0.0H0.0Z"/></g>
<g fill="red" transform="translate(1600 1900) scale(0.1 -0.1)"><path d="M0.0 0.0V-560.0H162.0V0.0H0.0Z"/></g>
<g fill="black" opacity=".8" transform="translate(1600 1900) scale(0.1 -0.1)"><path d="M0.0 0.0V-560.0H163.0V0.0H0.0Z"/></g>
<g fill="red" transform="translate(100 2000) scale(0.1 -0.1)"><path d="M0.0 0.0V-614.0H33.0V0.0H0.0Z"/></g>
<g fill="black" opacity=".8" transform="translate(100 2000) scale(0.1 -0.1)"><path d="M0.0 0.0V-614.0H33.0V0.0H0.0Z"/></g>
<g fill="red" transform="translate(200 2000) scale(0.1 -0.1)"><path d="M0.0 0.0V-640.0H162.0V0.0H0.0Z"/></g>
<g fill="black" opacity=".8" transform="translate(200 2000) scale(0.1 -0.1)"><path d="M0.0 0.0V-640.0H163.0V0.0H0.0Z"/></g>
<g fill="red" transform="translate(300 2000) scale(0.1 -0.1)"><path d="M0.0 0.0V-550.0H33.0V0.0H0.0Z"/></g>
<g fill="black" opacity=".8" transform="translate(300 2000) scale(0.1 -0.1)"><path d="M0.0 0.0V-550.0H33.0V0.0H0.0Z"/></g>
<g fill="red" transform="translate(400 2000) scale(0.1 -0.1)"><path d="M0.0 0.0V-560.0H162.0V0.0H0.0Z"/></g>
<g fill="black" opacity=".8" transform="translate(400 2000) scale(0.1 -0.1)"><path d="M0.0 0.0V-560.0H163.0V0.0H0.0Z"/></g>
<g fill="red" transform="translate(500 2000) scale(0.1 -0.1)"><path d="M0.0 0.0V-509.0H32.0V0.0H0.0Z"/></g>
<g fill="black" opacity=".8" transform="translate(500 2000) scale(0.1 -0.1)"><path d="M0.0 0.0V-509.0H33.0V0.0H0.0Z"/></g>
<g fill="red" transform="translate(600 2000) scale(0.1 -0.1)"><path d="M0.0 0.0V-556.0H162.0V0.0H0.0Z"/></g>
<g fill="black" opacity=".8" transform="translate(600 2000) scale(0.1 -0.1)"><path d="M0.0 0.0V-556.0H163.0V0.0H0.0Z"/></g>
<g fill="red" transform="translate(700 2000) scale(0.1 -0.1)"><path d="M0.0 0.0V-536.0H32.0V0.0H0.0Z"/></g>
<g fill="black" opacity=".8" transform="translate(700 2000) scale(0.1 -0.1)"><path d="M0.0 0.0V-536.0H33.0V0.0H0.0Z"/></g>
<g fill="red" transform="translate(800 2000) scale(0.1 -0.1)"><path d="M0.0 0.0V-538.0H162.0V0.0H0.0Z"/></g>
<g fill="black" opacity=".8" transform="translate(800 2000) scale(0.1 -0.1)"><path d="M0.0 0.0V-538.0H163.0V0.0H0.0Z"/></g>
<g fill="red" transform="translate(900 2000) scale(0.1 -0.1)"><path d="M0.0 0.0V-536.0H33.0V0.0H0.0Z"/></g>
<g fill="black" opacity=".8" transform="translate(900 2000) scale(0.1 -0.1)"><path d="M0.0 0.0V-536.0H33.0V0.0H0.0Z"/></g>
<g fill="red" transform="translate(1000 2000) scale(0.1 -0.1)"><path d="M0.0 0.0V-533.0H162.0V0.0H0.0Z"/></g>
<g fill="black" opacity=".8" transform="translate(1000 2000) scale(0.1 -0.1)"><path d="M0.0 0.0V-533.0H163.0V0.0H0.0Z"/></g>
<g fill="red" transform="translate(1100 2000) scale(0.1 -0.1)"><path d="M0.0 0.0V-504.0H32.0V0.0H0.0Z"/></g>
<g fill="black" opacity=".8" transform="translate(1100 2000) scale(0.1 -0.1)"><path d="M0.0 0.0V-504.0H33.0V0.0H0.0Z"/></g>
<g fill="red" transform="translate(1200 2000) scale(0.1 -0.1)"><path d="M0.0 0.0V-528.0H162.0V0.0H0.0Z"/></g>
<g fill="black" opacity=".8" transform="translate(1200 2000) scale(0.1 -0.1)"><path d="M0.0 0.0V-528.0H163.0V0.0H0.0Z"/></g>
<g fill="red" transform="translate(1300 2000) scale(0.1 -0.1)"><path d="M0.0 0.0V-550.0H33.0V0.0H0.0Z"/></g>
<g fill="black" opacity=".8" transform="translate(1300 2000) scale(0.1 -0.1)"><path d="M0.0 0.0V-550.0H33.0V0.0H0.0Z"/></g>
<g fill="red" transform="translate(1400 2000) scale(0.1 -0.1)"><path d="M0.0 0.0V-589.0H162.0V0.0H0.0Z"/></g>
<g fill="black" opacity=".8" transform="translate(1400 2000) scale(0.1 -0.1)"><path d="M0.0 0.0V-589.0H163.0V0.0H0.0Z"/></g>
<g fill="red" transform="translate(1500 2000) scale(0.1 -0.1)"><path d="M0.0 0.0V-554.0H32.0V0.0H0.0Z"/></g>
<g fill="black" opacity=".8" transform="translate(1500 2000) scale(0.1 -0.1)"><path d="M0.0 0.0V-554.0H33.0V0.0H0.0Z"/></g>
<g fill="red" transform="translate(1600 2000) scale(0.1 -0.1)"><path d="M0.0 0.0V-594.0H162.0V0.0H0.0Z"/></g>
<g fill="black" opacity=".8" transform="translate(1600 2000) scale(0.1 -0.1)"><path d="M0.0 0.0V-594.0H163.0V0.0H0.0Z"/></g>
<g fill="red" transform="translate(100 2100) scale(0.1 -0.1)"><path d="M0.0 0.0V-554.0H32.0V0.0H0.0Z"/></g>
<g fill="black" opacity=".8" transform="translate(100 2100) scale(0.1 -0.1)"><path d="M0.0 0.0V-554.0H33.0V0.0H0.0Z"/></g>
<g fill="red" transform="translate(200 2100) scale(0.1 -0.1)"><path d="M0.0 0.0V-584.0H162.0V0.0H0.0Z"/></g>
<g fill="black" opacity=".8" transform="translate(200 2100) scale(0.1 -0.1)"><path d="M0.0 0.0V-584.0H163.0V0.0H0.0Z"/></g>
<g fill="red" transform="translate(300 2100) scale(0.1 -0.1)"><path d="M0.0 0.0V-669.0H33.0V0.0H0.0Z"/></g>
<g fill="black" opacity=".8" transform="translate(300 2100) scale(0.1 -0.1)"><path d="M0.0 0.0V-669.0H33.0V0.0H0.0Z"/></g>
<g fill="red" transform="translate(400 2100) scale(0.1 -0.1)"><path d="M0.0 0.0V-700.0H162.0V0.0H0.0Z"/></g>
<g fill="black" opacity=".8" transform="translate(400 2100) scale(0.1 -0.1)"><path d="M0.0 0.0V-700.0H163.0V0.0H0.0Z"/></g>
<g fill="red" transform="translate(500 2100) scale(0.1 -0.1)"><path d="M0.0 0.0V-554.0H32.0V0.0H0.0Z"/></g>
<g fill="black" opacity=".8" transform="translate(500 2100) scale(0.1 -0.1)"><path d="M0.0 0.0V-554.0H33.0V0.0H0.0Z"/></g>
<g fill="red" transform="translate(600 2100) scale(0.1 -0.1)"><path d="M0.0 0.0V-560.0H162.0V0.0H0.0Z"/></g>
<g fill="black" opacity=".8" transform="translate(600 2100) scale(0.1 -0.1)"><path d="M0.0 0.0V-560.0H163.0V0.0H0.0Z"/></g>
<g fill="red" transform="translate(700 2100) scale(0.1 -0.1)"><path d="M0.0 0.0V-531.0H32.0V0.0H0.0Z"/></g>
<g fill="black" opacity=".8" transform="translate(700 2100) scale(0.1 -0.1)"><path d="M0.0 0.0V-531.0H33.0V0.0H0.0Z"/></g>
<g fill="red" transform="translate(800 2100) scale(0.1 -0.1)"><path d="M0.0 0.0V-528.0H162.0V0.0H0.0Z"/></g>
<g fill="black" opacity=".8" transform="translate(800 2100) scale(0.1 -0.1)"><path d="M0.0 0.0V-528.0H163.0V0.0H0.0Z"/></g>
<g fill="red" transform="translate(900 2100) scale(0.1 -0.1)"><path d="M0.0 0.0V-531.0H32.0V0.0H0.0Z"/></g>
<g fill="black" opacity=".8" transform="translate(900 2100) scale(0.1 -0.1)"><path d="M0.0 0.0V-531.0H33.0V0.0H0.0Z"/></g>
<g fill="red" transform="translate(1000 2100) scale(0.1 -0.1)"><path d="M0.0 0.0V-570.0H162.0V0.0H0.0Z"/></g>
<g fill="black" opacity=".8" transform="translate(1000 2100) scale(0.1 -0.1)"><path d="M0.0 0.0V-570.0H163.0V0.0H0.0Z"/></g>
<g fill="red" transform="translate(1100 2100) scale(0.1 -0.1)"><path d="M0.0 0.0V-499.0H32.0V0.0H0.0Z"/></g>
<g fill="black" opacity=".8" transform="translate(1100 2100) scale(0.1 -0.1)"><path d="M0.0 0.0V-499.0H33.0V0.0H0.0Z"/></g>
<g fill="red" transform="translate(1200 2100) scale(0.1 -0.1)"><path d="M0.0 0.0V-500.0H162.0V0.0H0.0Z"/></g>
<g fill="black" opacity=".8" transform="translate(1200 2100) scale(0.1 -0.1)"><path d="M0.0 0.0V-500.0H163.0V0.0H0.0Z"/></g>
<g fill="red" transform="translate(1300 2100) scale(0.1 -0.1)"><path d="M0.0 0.0V-505.0H33.0V0.0H0.0Z"/></g>
<g fill="black" opacity=".8" transform="translate(1300 2100) scale(0.1 -0.1)"><path d="M0.0 0.0V-505.0H33.0V0.0H0.0Z"/></g>
<g fill="red" transform="translate(1400 2100) scale(0.1 -0.1)"><path d="M0.0 0.0V-514.0H162.0V0.0H0.0Z"/></g>
<g fill="black" opacity=".8" transform="translate(1400 2100) scale(0.1 -0.1)"><path d="M0.0 0.0V-514.0H163.0V0.0H0.0Z"/></g>
<g fill="red" transform="translate(1500 2100) scale(0.1 -0.1)"><path d="M0.0 0.0V-486.0H33.0V0.0H0.0Z"/></g>
<g fill="black" opacity=".8" transform="translate(1500 2100) scale(0.1 -0.1)"><path d="M0.0 0.0V-486.0H33.0V0.0H0.0Z"/></g>
<g fill="red" transform="translate(1600 2100) scale(0.1 -0.1)"><path d="M0.0 0.0V-486.0H162.0V0.0H0.0Z"/></g>
<g fill="black" opacity=".8" transform="translate(1600 2100) scale(0.1 -0.1)"><path d="M0.0 0.0V-486.0H163.0V0.0H0.0Z"/></g>
<g fill="red" transform="translate(100 2200) scale(0.1 -0.1)"><path d="M0.0 0.0V-505.0H33.0V0.0H0.0Z"/></g>
<g fill="black" opacity=".8" transform="translate(100 2200) scale(0.1 -0.1)"><path d="M0.0 0.0V-505.0H33.0V0.0H0.0Z"/></g>
<g fill="red" transform="translate(200 2200) scale(0.1 -0.1)"><path d="M0.0 0.0V-551.0H162.0V0.0H0.0Z"/></g>
<g fill="black" opacity=".8" transform="translate(200 2200) scale(0.1 -0.1)"><path d="M0.0 0.0V-551.0H163.0V0.0H0.0Z"/></g>
<g fill="red" transform="translate(300 2200) scale(0.1 -0.1)"><path d="M0.0 0.0V-486.0H33.0V0.0H0.0Z"/></g>
<g fill="black" opacity=".8" transform="translate(300 2200) scale(0.1 -0.1)"><path d="M0.0 0.0V-486.0H33.0V0.0H0.0Z"/></g>
<g fill="red" transform="translate(400 2200) scale(0.1 -0.1)"><path d="M0.0 0.0V-556.0H162.0V0.0H0.0Z"/></g>
<g fill="black" opacity=".8" transform="translate(400 2200) scale(0.1 -0.1)"><path d="M0.0 0.0V-556.0H163.0V0.0H0.0Z"/></g>
<g fill="red" transform="translate(500 2200) scale(0.1 -0.1)"><path d="M0.0 0.0V-619.0H33.0V0.0H0.0Z"/></g>
<g fill="black" opacity=".8" transform="translate(500 2200) scale(0.1 -0.1)"><path d="M0.0 0.0V-619.0H33.0V0.0H0.0Z"/></g>
<g fill="red" transform="translate(600 2200) scale(0.1 -0.1)"><path d="M0.0 0.0V-658.0H162.0V0.0H0.0Z"/></g>
<g fill="black" opacity=".8" transform="translate(600 2200) scale(0.1 -0.1)"><path d="M0.0 0.0V-658.0H163.0V0.0H0.0Z"/></g>
<g fill="red" transform="translate(700 2200) scale(0.1 -0.1)"><path d="M0.0 0.0V-541.0H32.0V0.0H0.0Z"/></g>
<g fill="black" opacity=".8" transform="translate(700 2200) scale(0.1 -0.1)"><path d="M0.0 0.0V-541.0H33.0V0.0H0.0Z"/></g>
<g fill="red" transform="translate(800 2200) scale(0.1 -0.1)"><path d="M0.0 0.0V-570.0H162.0V0.0H0.0Z"/></g>
<g fill="black" opacity=".8" transform="translate(800 2200) scale(0.1 -0.1)"><path d="M0.0 0.0V-570.0H163.0V0.0H0.0Z"/></g>
<g fill="red" transform="translate(900 2200) scale(0.1 -0.1)"><path d="M0.0 0.0V-578.0H33.0V0.0H0.0Z"/></g>
<g fill="black" opacity=".8" transform="translate(900 2200) scale(0.1 -0.1)"><path d="M0.0 0.0V-578.0H33.0V0.0H0.0Z"/></g>
<g fill="red" transform="translate(1000 2200) scale(0.1 -0.1)"><path d="M0.0 0.0V-589.0H162.0V0.0H0.0Z"/></g>
<g fill="black" opacity=".8" transform="translate(1000 2200) scale(0.1 -0.1)"><path d="M0.0 0.0V-589.0H163.0V0.0H0.0Z"/></g>
<g fill="red" transform="translate(1100 2200) scale(0.1 -0.1)"><path d="M0.0 0.0V-541.0H32.0V0.0H0.0Z"/></g>
<g fill="black" opacity=".8" transform="translate(1100 2200) scale(0.1 -0.1)"><path d="M0.0 0.0V-541.0H33.0V0.0H0.0Z"/></g>
<g fill="red" transform="translate(1200 2200) scale(0.1 -0.1)"><path d="M0.0 0.0V-560.0H162.0V0.0H0.0Z"/></g>
<g fill="black" opacity=".8" transform="translate(1200 2200) scale(0.1 -0.1)"><path d="M0.0 0.0V-560.0H163.0V0.0H0.0Z"/></g>
<g fill="red" transform="translate(1300 2200) scale(0.1 -0.1)"><path d="M0.0 0.0V-541.0H33.0V0.0H0.0Z"/></g>
<g fill="black" opacity=".8" transform="translate(1300 2200) scale(0.1 -0.1)"><path d="M0.0 0.0V-541.0H33.0V0.0H0.0Z"/></g>
<g fill="red" transform="translate(1400 2200) scale(0.1 -0.1)"><path d="M0.0 0.0V-560.0H162.0V0.0H0.0Z"/></g>
<g fill="black" opacity=".8" transform="translate(1400 2200) scale(0.1 -0.1)"><path d="M0.0 0.0V-560.0H163.0V0.0H0.0Z"/></g>
<g fill="red" transform="translate(1500 2200) scale(0.1 -0.1)"><path d="M0.0 0.0V-554.0H32.0V0.0H0.0Z"/></g>
<g fill="black" opacity=".8" transform="translate(1500 2200) scale(0.1 -0.1)"><path d="M0.0 0.0V-554.0H33.0V0.0H0.0Z"/></g>
<g fill="red" transform="translate(1600 2200) scale(0.1 -0.1)"><path d="M0.0 0.0V-570.0H162.0V0.0H0.0Z"/></g>
<g fill="black" opacity=".8" transform="translate(1600 2200) scale(0.1 -0.1)"><path d="M0.0 0.0V-570.0H163.0V0.0H0.0Z"/></g>
<g fill="red" transform="translate(100 2300) scale(0.1 -0.1)"><path d="M0.0 0.0V-495.0H33.0V0.0H0.0Z"/></g>
<g fill="black" opacity=".8" transform="translate(100 2300) scale(0.1 -0.1)"><path d="M0.0 0.0V-495.0H33.0V0.0H0.0Z"/></g>
<g fill="red" transform="translate(200 2300) scale(0.1 -0.1)"><path d="M0.0 0.0V-486.0H162.0V0.0H0.0Z"/></g>
<g fill="black" opacity=".8" transform="translate(200 2300) scale(0.1 -0.1)"><path d="M0.0 0.0V-486.0H163.0V0.0H0.0Z"/></g>
<g fill="red" transform="translate(300 2300) scale(0.1 -0.1)"><path d="M0.0 0.0V-536.0H32.0V0.0H0.0Z"/></g>
<g fill="black" opacity=".8" transform="translate(300 2300) scale(0.1 -0.1)"><path d="M0.0 0.0V-536.0H33.0V0.0H0.0Z"/></g>
<g fill="red" transform="translate(400 2300) scale(0.1 -0.1)"><path d="M0.0 0.0V-551.0H162.0V0.0H0.0Z"/></g>
<g fill="black" opacity=".8" transform="translate(400 2300) scale(0.1 -0.1)"><path d="M0.0 0.0V-551.0H163.0V0.0H0.0Z"/></g>
<g fill="red" transform="translate(500 2300) scale(0.1 -0.1)"><path d="M0.0 0.0V-505.0H33.0V0.0H0.0Z"/></g>
<g fill="black" opacity=".8" transform="translate(500 2300) scale(0.1 -0.1)"><path d="M0.0 0.0V-505.0H33.0V0.0H0.0Z"/></g>
<g fill="red" transform="translate(600 2300) scale(0.1 -0.1)"><path d="M0.0 0.0V-519.0H162.0V0.0H0.0Z"/></g>
<g fill="black" opacity=".8" transform="translate(600 2300) scale(0.1 -0.1)"><path d="M0.0 0.0V-519.0H163.0V0.0H0.0Z"/></g>
</svg>
